0, 0, Header, 0, 1, 384
1, 0, Start_track
1, 0, Sequencer_specific, 3, 0, 0, 65
1, 0, Time_signature, 4, 2, 24, 8
1, 0, Key_signature, 0, "major"
1, 0, Tempo, 789474
1, 0, MIDI_port, 0
1, 32, System_exclusive, 5, 126, 127, 9, 1, 247
1, 32, MIDI_port, 0
1, 32, MIDI_port, 0
1, 64, System_exclusive, 10, 65, 16, 66, 18, 64, 0, 127, 0, 65, 247
1, 64, MIDI_port, 0
1, 488, Pitch_bend_c, 8, 8192
1, 524, Control_c, 6, 7, 107
1, 528, Control_c, 8, 11, 127
1, 528, Control_c, 6, 10, 24
1, 529, Control_c, 6, 91, 90
1, 533, Control_c, 6, 93, 86
1, 536, Control_c, 8, 7, 100
1, 544, Control_c, 8, 10, 64
1, 552, Control_c, 8, 91, 0
1, 557, Control_c, 9, 7, 127
1, 560, Control_c, 8, 93, 0
1, 561, Control_c, 3, 7, 113
1, 564, Control_c, 1, 11, 127
1, 564, Pitch_bend_c, 1, 8192
1, 565, Control_c, 3, 10, 39
1, 568, Control_c, 4, 7, 111
1, 568, Control_c, 9, 91, 74
1, 569, Control_c, 3, 91, 90
1, 572, Control_c, 4, 10, 53
1, 572, Control_c, 2, 7, 110
1, 572, Control_c, 9, 93, 18
1, 573, Control_c, 3, 93, 66
1, 576, Control_c, 2, 10, 84
1, 576, Control_c, 9, 11, 127
1, 576, Pitch_bend_c, 9, 5632
1, 576, Control_c, 4, 91, 90
1, 576, Control_c, 4, 11, 127
1, 576, Control_c, 6, 11, 127
1, 576, Control_c, 3, 11, 127
1, 576, Control_c, 2, 11, 127
1, 576, Pitch_bend_c, 6, 8192
1, 576, Pitch_bend_c, 3, 8192
1, 576, Control_c, 5, 11, 127
1, 576, Pitch_bend_c, 4, 8192
1, 576, Pitch_bend_c, 5, 8192
1, 576, Pitch_bend_c, 2, 8192
1, 580, Control_c, 2, 91, 90
1, 580, Control_c, 4, 93, 18
1, 584, Control_c, 2, 93, 18
1, 609, Control_c, 1, 7, 113
1, 612, Control_c, 5, 7, 109
1, 613, Control_c, 1, 10, 64
1, 616, Control_c, 5, 10, 39
1, 617, Control_c, 1, 91, 90
1, 620, Control_c, 5, 91, 88
1, 621, Control_c, 1, 93, 30
1, 624, Control_c, 5, 93, 76
1, 648, Program_c, 9, 0
1, 672, Control_c, 0, 7, 127
1, 672, Pitch_bend_c, 7, 8192
1, 672, Pitch_bend_c, 0, 8192
1, 672, Control_c, 0, 11, 127
1, 672, Control_c, 7, 11, 127
1, 676, Control_c, 0, 10, 64
1, 680, Control_c, 0, 91, 0
1, 685, Control_c, 0, 93, 66
1, 705, Control_c, 7, 7, 109
1, 709, Control_c, 7, 10, 89
1, 713, Control_c, 7, 91, 84
1, 717, Control_c, 7, 93, 18
1, 748, Program_c, 3, 52
1, 749, Program_c, 4, 24
1, 756, Program_c, 2, 80
1, 768, Control_c, 8, 17, 8
1, 796, Program_c, 1, 49
1, 797, Program_c, 5, 29
1, 804, Program_c, 6, 27
1, 853, Program_c, 0, 35
1, 864, Control_c, 6, 99, 1
1, 892, Program_c, 7, 25
1, 960, Control_c, 9, 99, 24
1, 960, Control_c, 6, 98, 33
1, 1008, Control_c, 9, 98, 35
1, 1056, Control_c, 9, 6, 66
1, 1056, Control_c, 6, 6, 74
1, 1104, Control_c, 9, 98, 40
1, 1152, Control_c, 9, 6, 66
1, 1152, Control_c, 6, 98, 32
1, 1200, Control_c, 9, 98, 37
1, 1248, Control_c, 6, 6, 58
1, 1248, Control_c, 9, 6, 67
1, 1536, Note_on_c, 7, 59, 80
1, 1541, Note_on_c, 7, 62, 85
1, 1548, Pitch_bend_c, 4, 2048
1, 1548, Note_on_c, 7, 67, 94
1, 1552, Note_on_c, 4, 50, 95
1, 1593, Pitch_bend_c, 4, 2048
1, 1621, Pitch_bend_c, 4, 4352
1, 1636, Pitch_bend_c, 4, 4736
1, 1652, Pitch_bend_c, 4, 6400
1, 1665, Pitch_bend_c, 4, 8192
1, 1736, Note_on_c, 4, 59, 111
1, 1742, Note_on_c, 4, 50, 0
1, 1910, Note_on_c, 7, 59, 0
1, 1916, Note_on_c, 7, 62, 0
1, 1920, Note_on_c, 7, 59, 77
1, 1922, Note_on_c, 7, 67, 0
1, 1925, Note_on_c, 7, 62, 88
1, 1932, Note_on_c, 7, 67, 96
1, 2102, Note_on_c, 7, 59, 0
1, 2108, Note_on_c, 7, 62, 0
1, 2112, Note_on_c, 7, 59, 69
1, 2114, Note_on_c, 7, 67, 0
1, 2117, Note_on_c, 7, 62, 75
1, 2120, Note_on_c, 4, 50, 84
1, 2124, Note_on_c, 7, 67, 87
1, 2200, Note_on_c, 4, 59, 0
1, 2202, Note_on_c, 7, 62, 0
1, 2206, Note_on_c, 7, 59, 0
1, 2212, Note_on_c, 7, 62, 74
1, 2216, Note_on_c, 7, 59, 68
1, 2290, Note_on_c, 7, 67, 0
1, 2292, Note_on_c, 7, 59, 0
1, 2300, Note_on_c, 7, 62, 0
1, 2304, Note_on_c, 7, 57, 79
1, 2305, Pitch_bend_c, 4, 4096
1, 2306, Note_on_c, 4, 50, 0
1, 2309, Note_on_c, 7, 62, 91
1, 2316, Note_on_c, 7, 66, 101
1, 2317, Note_on_c, 4, 54, 93
1, 2321, Pitch_bend_c, 4, 4224
1, 2337, Pitch_bend_c, 4, 5504
1, 2352, Pitch_bend_c, 4, 5632
1, 2369, Pitch_bend_c, 4, 6784
1, 2384, Pitch_bend_c, 4, 8192
1, 2390, Note_on_c, 7, 66, 0
1, 2394, Note_on_c, 7, 62, 0
1, 2398, Note_on_c, 7, 57, 0
1, 2400, Note_on_c, 7, 66, 88
1, 2404, Note_on_c, 7, 62, 82
1, 2408, Note_on_c, 7, 57, 71
1, 2486, Note_on_c, 7, 57, 0
1, 2492, Note_on_c, 7, 62, 0
1, 2496, Note_on_c, 7, 57, 62
1, 2498, Note_on_c, 7, 66, 0
1, 2500, Note_on_c, 4, 62, 81
1, 2501, Note_on_c, 7, 62, 75
1, 2508, Note_on_c, 7, 66, 80
1, 2514, Note_on_c, 4, 54, 0
1, 2582, Note_on_c, 7, 66, 0
1, 2586, Note_on_c, 7, 62, 0
1, 2590, Note_on_c, 7, 57, 0
1, 2592, Note_on_c, 7, 66, 100
1, 2596, Note_on_c, 7, 62, 89
1, 2600, Note_on_c, 7, 57, 84
1, 2774, Note_on_c, 7, 66, 0
1, 2778, Note_on_c, 7, 62, 0
1, 2782, Note_on_c, 7, 57, 0
1, 2784, Note_on_c, 7, 66, 83
1, 2788, Note_on_c, 7, 62, 73
1, 2792, Note_on_c, 7, 57, 61
1, 2870, Note_on_c, 7, 57, 0
1, 2876, Note_on_c, 7, 62, 0
1, 2880, Note_on_c, 7, 57, 70
1, 2882, Note_on_c, 7, 66, 0
1, 2885, Note_on_c, 7, 62, 77
1, 2892, Note_on_c, 7, 66, 85
1, 2966, Note_on_c, 7, 66, 0
1, 2970, Note_on_c, 7, 62, 0
1, 2974, Note_on_c, 7, 57, 0
1, 2976, Note_on_c, 7, 66, 80
1, 2980, Note_on_c, 7, 62, 74
1, 2984, Note_on_c, 7, 57, 60
1, 3009, Pitch_bend_c, 6, 7552
1, 3028, Pitch_bend_c, 6, 6656
1, 3041, Pitch_bend_c, 6, 6016
1, 3056, Pitch_bend_c, 6, 5504
1, 3060, Note_on_c, 7, 57, 0
1, 3060, Note_on_c, 7, 62, 0
1, 3060, Note_on_c, 7, 66, 0
1, 3064, Note_on_c, 4, 62, 0
1, 3069, Pitch_bend_c, 6, 5120
1, 3072, Note_on_c, 7, 57, 79
1, 3072, Note_on_c, 6, 61, 100
1, 3077, Note_on_c, 7, 61, 87
1, 3084, Note_on_c, 7, 64, 101
1, 3084, Pitch_bend_c, 4, 2048
1, 3085, Pitch_bend_c, 6, 4352
1, 3088, Note_on_c, 4, 52, 98
1, 3101, Pitch_bend_c, 6, 4096
1, 3129, Pitch_bend_c, 6, 4608
1, 3129, Pitch_bend_c, 4, 2048
1, 3148, Pitch_bend_c, 6, 5120
1, 3157, Pitch_bend_c, 4, 4352
1, 3161, Pitch_bend_c, 6, 5632
1, 3172, Pitch_bend_c, 4, 4736
1, 3176, Pitch_bend_c, 6, 6528
1, 3188, Pitch_bend_c, 4, 6400
1, 3189, Pitch_bend_c, 6, 7552
1, 3201, Pitch_bend_c, 4, 8192
1, 3205, Pitch_bend_c, 6, 8192
1, 3272, Note_on_c, 4, 61, 111
1, 3278, Note_on_c, 4, 52, 0
1, 3446, Note_on_c, 7, 57, 0
1, 3452, Note_on_c, 7, 61, 0
1, 3456, Note_on_c, 7, 57, 80
1, 3458, Note_on_c, 7, 64, 0
1, 3461, Note_on_c, 7, 61, 90
1, 3468, Note_on_c, 7, 64, 100
1, 3734, Note_on_c, 7, 57, 0
1, 3736, Note_on_c, 4, 61, 0
1, 3752, Note_on_c, 7, 57, 59
1, 3752, Note_on_c, 4, 57, 86
1, 3828, Note_on_c, 7, 57, 0
1, 3828, Note_on_c, 7, 61, 0
1, 3834, Note_on_c, 7, 64, 0
1, 3840, Note_on_c, 7, 57, 79
1, 3845, Note_on_c, 7, 61, 90
1, 3852, Note_on_c, 7, 64, 94
1, 3852, Note_on_c, 7, 69, 90
1, 3853, Note_on_c, 4, 62, 107
1, 3926, Note_on_c, 7, 64, 0
1, 3930, Note_on_c, 7, 61, 0
1, 3934, Note_on_c, 7, 57, 0
1, 3936, Note_on_c, 7, 64, 93
1, 3938, Note_on_c, 4, 57, 0
1, 3940, Note_on_c, 7, 61, 84
1, 3940, Note_on_c, 4, 61, 82
1, 3944, Note_on_c, 7, 57, 69
1, 4022, Note_on_c, 7, 57, 0
1, 4028, Note_on_c, 7, 61, 0
1, 4032, Note_on_c, 7, 57, 68
1, 4034, Note_on_c, 7, 64, 0
1, 4036, Note_on_c, 4, 57, 65
1, 4037, Note_on_c, 7, 61, 73
1, 4044, Note_on_c, 7, 64, 80
1, 4050, Note_on_c, 4, 61, 0
1, 4118, Note_on_c, 7, 64, 0
1, 4120, Note_on_c, 7, 69, 0
1, 4122, Note_on_c, 7, 61, 0
1, 4126, Note_on_c, 4, 62, 0
1, 4126, Note_on_c, 7, 57, 0
1, 4128, Note_on_c, 7, 64, 96
1, 4128, Note_on_c, 7, 69, 88
1, 4132, Note_on_c, 7, 61, 93
1, 4136, Note_on_c, 7, 57, 82
1, 4136, Note_on_c, 4, 64, 104
1, 4146, Note_on_c, 4, 57, 0
1, 4228, Note_on_c, 4, 61, 76
1, 4310, Note_on_c, 7, 64, 0
1, 4314, Note_on_c, 7, 61, 0
1, 4318, Note_on_c, 7, 57, 0
1, 4320, Note_on_c, 7, 64, 85
1, 4324, Note_on_c, 4, 57, 67
1, 4324, Note_on_c, 7, 61, 76
1, 4328, Note_on_c, 7, 57, 61
1, 4338, Note_on_c, 4, 61, 0
1, 4406, Note_on_c, 7, 57, 0
1, 4408, Note_on_c, 4, 64, 0
1, 4412, Note_on_c, 4, 57, 0
1, 4412, Note_on_c, 7, 61, 0
1, 4416, Note_on_c, 7, 57, 71
1, 4418, Note_on_c, 7, 64, 0
1, 4420, Note_on_c, 7, 69, 0
1, 4420, Note_on_c, 4, 57, 93
1, 4421, Note_on_c, 7, 61, 82
1, 4428, Note_on_c, 7, 69, 76
1, 4428, Note_on_c, 7, 64, 88
1, 4510, Note_on_c, 7, 57, 0
1, 4513, Pitch_bend_c, 4, 7680
1, 4520, Note_on_c, 7, 57, 57
1, 4528, Pitch_bend_c, 4, 6656
1, 4544, Pitch_bend_c, 4, 5632
1, 4548, Pitch_bend_c, 6, 7936
1, 4557, Pitch_bend_c, 4, 4352
1, 4564, Pitch_bend_c, 6, 7040
1, 4572, Pitch_bend_c, 4, 1792
1, 4581, Pitch_bend_c, 6, 5376
1, 4588, Pitch_bend_c, 4, 0
1, 4594, Note_on_c, 4, 57, 0
1, 4596, Note_on_c, 7, 57, 0
1, 4596, Pitch_bend_c, 6, 3840
1, 4598, Note_on_c, 7, 61, 0
1, 4598, Note_on_c, 7, 69, 0
1, 4598, Note_on_c, 7, 64, 0
1, 4605, Pitch_bend_c, 4, 8192
1, 4606, Note_on_c, 6, 61, 0
1, 4608, Note_on_c, 7, 59, 81
1, 4609, Pitch_bend_c, 6, 1280
1, 4613, Note_on_c, 7, 62, 86
1, 4620, Pitch_bend_c, 4, 2048
1, 4620, Note_on_c, 7, 67, 95
1, 4624, Note_on_c, 4, 50, 91
1, 4624, Pitch_bend_c, 6, 0
1, 4628, Note_on_c, 6, 71, 97
1, 4665, Pitch_bend_c, 4, 2048
1, 4673, Pitch_bend_c, 6, 1280
1, 4688, Pitch_bend_c, 6, 3072
1, 4693, Pitch_bend_c, 4, 4352
1, 4704, Pitch_bend_c, 6, 6016
1, 4708, Pitch_bend_c, 4, 4736
1, 4717, Pitch_bend_c, 6, 7552
1, 4724, Pitch_bend_c, 4, 6400
1, 4732, Pitch_bend_c, 6, 8192
1, 4737, Pitch_bend_c, 4, 8192
1, 4808, Note_on_c, 4, 59, 103
1, 4814, Note_on_c, 4, 50, 0
1, 4982, Note_on_c, 7, 59, 0
1, 4988, Note_on_c, 7, 62, 0
1, 4992, Note_on_c, 7, 59, 81
1, 4994, Note_on_c, 7, 67, 0
1, 4997, Note_on_c, 7, 62, 87
1, 5004, Note_on_c, 7, 67, 92
1, 5174, Note_on_c, 7, 59, 0
1, 5180, Note_on_c, 7, 62, 0
1, 5184, Note_on_c, 7, 59, 72
1, 5186, Note_on_c, 7, 67, 0
1, 5189, Note_on_c, 7, 62, 75
1, 5192, Note_on_c, 4, 50, 88
1, 5196, Note_on_c, 7, 67, 86
1, 5272, Note_on_c, 4, 59, 0
1, 5274, Note_on_c, 7, 62, 0
1, 5278, Note_on_c, 7, 59, 0
1, 5284, Note_on_c, 7, 62, 76
1, 5288, Note_on_c, 7, 59, 63
1, 5304, Pitch_bend_c, 6, 7808
1, 5317, Pitch_bend_c, 6, 7040
1, 5333, Pitch_bend_c, 6, 5888
1, 5348, Pitch_bend_c, 6, 4992
1, 5350, Note_on_c, 6, 71, 0
1, 5362, Note_on_c, 7, 67, 0
1, 5364, Note_on_c, 7, 59, 0
1, 5372, Note_on_c, 7, 62, 0
1, 5372, Pitch_bend_c, 6, 2048
1, 5376, Note_on_c, 7, 57, 78
1, 5377, Pitch_bend_c, 4, 4096
1, 5378, Note_on_c, 4, 50, 0
1, 5381, Note_on_c, 7, 62, 89
1, 5385, Pitch_bend_c, 6, 1280
1, 5388, Note_on_c, 6, 66, 104
1, 5388, Note_on_c, 7, 66, 102
1, 5389, Note_on_c, 4, 54, 104
1, 5393, Pitch_bend_c, 4, 4224
1, 5401, Pitch_bend_c, 6, 1280
1, 5409, Pitch_bend_c, 4, 5504
1, 5416, Pitch_bend_c, 6, 2560
1, 5424, Pitch_bend_c, 4, 5632
1, 5429, Pitch_bend_c, 6, 4352
1, 5441, Pitch_bend_c, 4, 6784
1, 5444, Pitch_bend_c, 6, 5888
1, 5456, Pitch_bend_c, 4, 8192
1, 5457, Pitch_bend_c, 6, 7424
1, 5462, Note_on_c, 7, 66, 0
1, 5466, Note_on_c, 7, 62, 0
1, 5470, Note_on_c, 7, 57, 0
1, 5472, Pitch_bend_c, 6, 8192
1, 5472, Note_on_c, 7, 66, 88
1, 5476, Note_on_c, 7, 62, 79
1, 5480, Note_on_c, 7, 57, 72
1, 5558, Note_on_c, 7, 57, 0
1, 5564, Note_on_c, 7, 62, 0
1, 5568, Note_on_c, 7, 57, 67
1, 5570, Note_on_c, 7, 66, 0
1, 5572, Note_on_c, 4, 62, 75
1, 5573, Note_on_c, 7, 62, 70
1, 5580, Note_on_c, 7, 66, 80
1, 5586, Note_on_c, 4, 54, 0
1, 5654, Note_on_c, 7, 66, 0
1, 5658, Note_on_c, 7, 62, 0
1, 5662, Note_on_c, 7, 57, 0
1, 5664, Note_on_c, 7, 66, 95
1, 5668, Note_on_c, 7, 62, 93
1, 5672, Note_on_c, 7, 57, 80
1, 5846, Note_on_c, 7, 66, 0
1, 5850, Note_on_c, 7, 62, 0
1, 5854, Note_on_c, 7, 57, 0
1, 5856, Note_on_c, 7, 66, 77
1, 5860, Note_on_c, 7, 62, 69
1, 5864, Note_on_c, 7, 57, 63
1, 5942, Note_on_c, 7, 57, 0
1, 5948, Note_on_c, 7, 62, 0
1, 5952, Note_on_c, 7, 57, 71
1, 5954, Note_on_c, 7, 66, 0
1, 5957, Note_on_c, 7, 62, 83
1, 5964, Note_on_c, 7, 66, 86
1, 6038, Note_on_c, 7, 66, 0
1, 6042, Note_on_c, 7, 62, 0
1, 6046, Note_on_c, 7, 57, 0
1, 6048, Note_on_c, 7, 66, 86
1, 6052, Note_on_c, 7, 62, 70
1, 6056, Note_on_c, 7, 57, 60
1, 6132, Note_on_c, 7, 57, 0
1, 6132, Note_on_c, 7, 66, 0
1, 6132, Note_on_c, 7, 62, 0
1, 6132, Note_on_c, 1, 45, 73
1, 6132, Note_on_c, 1, 61, 71
1, 6132, Note_on_c, 1, 64, 71
1, 6132, Note_on_c, 1, 52, 67
1, 6136, Note_on_c, 4, 62, 0
1, 6144, Pitch_bend_c, 6, 1792
1, 6144, Note_on_c, 7, 57, 84
1, 6145, Note_on_c, 6, 61, 98
1, 6149, Note_on_c, 7, 61, 87
1, 6152, Note_on_c, 6, 66, 0
1, 6156, Note_on_c, 7, 64, 96
1, 6156, Pitch_bend_c, 4, 2048
1, 6157, Pitch_bend_c, 6, 2304
1, 6160, Note_on_c, 4, 52, 93
1, 6172, Pitch_bend_c, 6, 4352
1, 6185, Pitch_bend_c, 6, 5632
1, 6201, Pitch_bend_c, 6, 7296
1, 6201, Pitch_bend_c, 4, 2048
1, 6216, Pitch_bend_c, 6, 8192
1, 6229, Pitch_bend_c, 4, 4352
1, 6244, Pitch_bend_c, 4, 4736
1, 6260, Pitch_bend_c, 4, 6400
1, 6273, Pitch_bend_c, 4, 8192
1, 6344, Note_on_c, 4, 61, 113
1, 6350, Note_on_c, 4, 52, 0
1, 6518, Note_on_c, 7, 57, 0
1, 6524, Note_on_c, 7, 61, 0
1, 6528, Note_on_c, 7, 57, 78
1, 6530, Note_on_c, 7, 64, 0
1, 6533, Note_on_c, 7, 61, 86
1, 6540, Note_on_c, 7, 64, 96
1, 6728, Note_on_c, 4, 54, 67
1, 6806, Note_on_c, 7, 57, 0
1, 6808, Note_on_c, 4, 61, 0
1, 6818, Note_on_c, 4, 54, 0
1, 6824, Note_on_c, 4, 57, 80
1, 6824, Note_on_c, 7, 57, 64
1, 6872, Note_on_c, 6, 61, 0
1, 6900, Note_on_c, 7, 57, 0
1, 6900, Note_on_c, 7, 61, 0
1, 6906, Note_on_c, 7, 64, 0
1, 6912, Note_on_c, 7, 57, 77
1, 6912, Note_on_c, 0, 52, 87
1, 6913, Note_on_c, 6, 61, 74
1, 6917, Note_on_c, 7, 61, 88
1, 6924, Note_on_c, 7, 64, 96
1, 6924, Note_on_c, 7, 69, 85
1, 6925, Note_on_c, 4, 62, 103
1, 6998, Note_on_c, 7, 64, 0
1, 7000, Note_on_c, 0, 52, 0
1, 7002, Note_on_c, 7, 61, 0
1, 7006, Note_on_c, 7, 57, 0
1, 7008, Note_on_c, 7, 64, 88
1, 7008, Note_on_c, 0, 54, 77
1, 7010, Note_on_c, 4, 57, 0
1, 7012, Note_on_c, 4, 61, 79
1, 7012, Note_on_c, 7, 61, 84
1, 7016, Note_on_c, 7, 57, 71
1, 7094, Note_on_c, 7, 57, 0
1, 7096, Note_on_c, 0, 54, 0
1, 7096, Note_on_c, 9, 40, 41
1, 7100, Note_on_c, 7, 61, 0
1, 7102, Note_on_c, 9, 40, 0
1, 7104, Note_on_c, 0, 49, 88
1, 7104, Note_on_c, 9, 40, 89
1, 7104, Note_on_c, 7, 57, 65
1, 7106, Note_on_c, 7, 64, 0
1, 7108, Note_on_c, 4, 57, 69
1, 7109, Note_on_c, 7, 61, 70
1, 7110, Note_on_c, 9, 40, 0
1, 7116, Note_on_c, 7, 64, 85
1, 7122, Note_on_c, 4, 61, 0
1, 7182, Note_on_c, 0, 49, 0
1, 7190, Note_on_c, 7, 64, 0
1, 7192, Note_on_c, 7, 69, 0
1, 7194, Note_on_c, 6, 61, 0
1, 7194, Note_on_c, 7, 61, 0
1, 7198, Note_on_c, 7, 57, 0
1, 7198, Note_on_c, 4, 62, 0
1, 7200, Note_on_c, 7, 69, 89
1, 7200, Note_on_c, 7, 64, 93
1, 7200, Note_on_c, 0, 52, 78
1, 7201, Note_on_c, 6, 61, 50
1, 7204, Note_on_c, 7, 61, 89
1, 7208, Note_on_c, 7, 57, 76
1, 7208, Note_on_c, 4, 64, 104
1, 7218, Note_on_c, 4, 57, 0
1, 7284, Note_on_c, 0, 52, 0
1, 7296, Note_on_c, 0, 40, 95
1, 7296, Note_on_c, 9, 47, 76
1, 7300, Note_on_c, 4, 61, 79
1, 7302, Note_on_c, 9, 47, 0
1, 7382, Note_on_c, 7, 64, 0
1, 7384, Note_on_c, 0, 40, 0
1, 7386, Note_on_c, 7, 61, 0
1, 7390, Note_on_c, 7, 57, 0
1, 7392, Note_on_c, 7, 64, 82
1, 7392, Note_on_c, 9, 47, 66
1, 7392, Note_on_c, 9, 42, 63
1, 7392, Note_on_c, 0, 42, 80
1, 7396, Note_on_c, 7, 61, 68
1, 7396, Note_on_c, 4, 57, 66
1, 7398, Note_on_c, 9, 42, 0
1, 7398, Note_on_c, 9, 47, 0
1, 7400, Note_on_c, 7, 57, 65
1, 7410, Note_on_c, 4, 61, 0
1, 7470, Note_on_c, 0, 42, 0
1, 7478, Note_on_c, 7, 57, 0
1, 7480, Note_on_c, 4, 64, 0
1, 7484, Note_on_c, 7, 61, 0
1, 7484, Note_on_c, 4, 57, 0
1, 7488, Note_on_c, 9, 46, 59
1, 7488, Note_on_c, 9, 35, 87
1, 7488, Note_on_c, 9, 45, 71
1, 7488, Note_on_c, 7, 57, 69
1, 7488, Note_on_c, 0, 33, 91
1, 7490, Note_on_c, 7, 64, 0
1, 7492, Note_on_c, 7, 69, 0
1, 7492, Note_on_c, 4, 52, 69
1, 7493, Note_on_c, 7, 61, 77
1, 7494, Note_on_c, 9, 45, 0
1, 7494, Note_on_c, 9, 46, 0
1, 7494, Note_on_c, 9, 35, 0
1, 7500, Note_on_c, 7, 64, 91
1, 7500, Note_on_c, 7, 69, 79
1, 7576, Note_on_c, 0, 33, 0
1, 7582, Note_on_c, 7, 57, 0
1, 7584, Note_on_c, 0, 35, 76
1, 7592, Note_on_c, 7, 57, 53
1, 7660, Note_on_c, 1, 61, 0
1, 7660, Note_on_c, 1, 64, 0
1, 7660, Note_on_c, 1, 52, 0
1, 7660, Note_on_c, 1, 45, 0
1, 7666, Note_on_c, 4, 52, 0
1, 7668, Note_on_c, 7, 57, 0
1, 7668, Note_on_c, 6, 61, 0
1, 7668, Note_on_c, 1, 55, 75
1, 7668, Note_on_c, 1, 62, 76
1, 7668, Note_on_c, 1, 67, 73
1, 7668, Note_on_c, 1, 59, 76
1, 7670, Note_on_c, 7, 61, 0
1, 7670, Note_on_c, 7, 64, 0
1, 7670, Note_on_c, 7, 69, 0
1, 7672, Note_on_c, 0, 35, 0
1, 7680, Note_on_c, 5, 43, 87
1, 7680, Note_on_c, 0, 31, 108
1, 7680, Note_on_c, 7, 59, 83
1, 7680, Note_on_c, 9, 51, 55
1, 7680, Note_on_c, 9, 42, 81
1, 7680, Note_on_c, 9, 49, 71
1, 7680, Note_on_c, 9, 35, 118
1, 7685, Note_on_c, 7, 62, 93
1, 7686, Note_on_c, 9, 35, 0
1, 7686, Note_on_c, 9, 49, 0
1, 7686, Note_on_c, 9, 42, 0
1, 7686, Note_on_c, 9, 51, 0
1, 7692, Note_on_c, 7, 67, 100
1, 7862, Note_on_c, 7, 59, 0
1, 7864, Note_on_c, 5, 43, 0
1, 7868, Note_on_c, 7, 62, 0
1, 7872, Note_on_c, 9, 42, 66
1, 7872, Note_on_c, 7, 59, 70
1, 7872, Note_on_c, 9, 51, 50
1, 7872, Note_on_c, 5, 43, 81
1, 7874, Note_on_c, 7, 67, 0
1, 7877, Note_on_c, 7, 62, 85
1, 7878, Note_on_c, 9, 51, 0
1, 7878, Note_on_c, 9, 42, 0
1, 7884, Note_on_c, 7, 67, 89
1, 8054, Note_on_c, 7, 59, 0
1, 8060, Note_on_c, 7, 62, 0
1, 8064, Note_on_c, 7, 59, 85
1, 8064, Note_on_c, 9, 42, 82
1, 8064, Note_on_c, 5, 50, 92
1, 8064, Note_on_c, 5, 67, 100
1, 8064, Note_on_c, 9, 40, 93
1, 8064, Note_on_c, 5, 55, 101
1, 8064, Note_on_c, 9, 51, 50
1, 8066, Note_on_c, 7, 67, 0
1, 8069, Note_on_c, 7, 62, 99
1, 8070, Note_on_c, 9, 42, 0
1, 8070, Note_on_c, 9, 51, 0
1, 8070, Note_on_c, 9, 40, 0
1, 8076, Note_on_c, 7, 67, 101
1, 8154, Note_on_c, 0, 31, 0
1, 8246, Note_on_c, 7, 59, 0
1, 8252, Note_on_c, 7, 62, 0
1, 8256, Note_on_c, 7, 59, 75
1, 8256, Note_on_c, 0, 31, 84
1, 8256, Note_on_c, 9, 51, 59
1, 8256, Note_on_c, 9, 42, 63
1, 8258, Note_on_c, 7, 67, 0
1, 8261, Note_on_c, 7, 62, 80
1, 8262, Note_on_c, 9, 42, 0
1, 8262, Note_on_c, 9, 51, 0
1, 8268, Note_on_c, 7, 67, 91
1, 8290, Note_on_c, 0, 31, 0
1, 8346, Note_on_c, 5, 43, 0
1, 8346, Note_on_c, 7, 62, 0
1, 8350, Note_on_c, 7, 59, 0
1, 8352, Note_on_c, 0, 31, 79
1, 8352, Note_on_c, 9, 35, 85
1, 8356, Note_on_c, 7, 62, 75
1, 8358, Note_on_c, 9, 35, 0
1, 8360, Note_on_c, 7, 59, 70
1, 8386, Note_on_c, 0, 31, 0
1, 8428, Note_on_c, 1, 62, 0
1, 8428, Note_on_c, 1, 59, 0
1, 8428, Note_on_c, 1, 67, 0
1, 8428, Note_on_c, 1, 55, 0
1, 8430, Note_on_c, 5, 50, 0
1, 8434, Note_on_c, 7, 67, 0
1, 8436, Note_on_c, 7, 59, 0
1, 8436, Note_on_c, 1, 62, 80
1, 8436, Note_on_c, 1, 66, 80
1, 8436, Note_on_c, 1, 50, 78
1, 8436, Note_on_c, 1, 57, 72
1, 8444, Note_on_c, 7, 62, 0
1, 8448, Note_on_c, 9, 51, 53
1, 8448, Note_on_c, 5, 45, 93
1, 8448, Note_on_c, 0, 38, 96
1, 8448, Note_on_c, 9, 42, 83
1, 8448, Note_on_c, 3, 66, 117
1, 8448, Note_on_c, 3, 69, 114
1, 8448, Note_on_c, 9, 35, 118
1, 8448, Note_on_c, 8, 78, 1
1, 8448, Note_on_c, 3, 74, 119
1, 8448, Note_on_c, 3, 78, 119
1, 8448, Note_on_c, 2, 78, 1
1, 8448, Note_on_c, 8, 66, 1
1, 8448, Note_on_c, 8, 69, 1
1, 8448, Note_on_c, 8, 74, 1
1, 8448, Note_on_c, 7, 57, 84
1, 8448, Lyric_t, "Cow "
1, 8453, Note_on_c, 7, 62, 86
1, 8454, Note_on_c, 9, 35, 0
1, 8454, Note_on_c, 9, 51, 0
1, 8454, Note_on_c, 9, 42, 0
1, 8460, Note_on_c, 7, 66, 99
1, 8504, Note_on_c, 5, 67, 0
1, 8504, Note_on_c, 5, 55, 0
1, 8534, Note_on_c, 7, 66, 0
1, 8538, Note_on_c, 7, 62, 0
1, 8542, Note_on_c, 7, 57, 0
1, 8544, Note_on_c, 7, 66, 82
1, 8548, Note_on_c, 7, 62, 69
1, 8552, Note_on_c, 0, 38, 0
1, 8552, Note_on_c, 7, 57, 64
1, 8622, Note_on_c, 2, 78, 0
1, 8622, Note_on_c, 3, 78, 0
1, 8622, Note_on_c, 3, 66, 0
1, 8622, Note_on_c, 3, 69, 0
1, 8622, Note_on_c, 3, 74, 0
1, 8630, Note_on_c, 7, 57, 0
1, 8632, Note_on_c, 5, 45, 0
1, 8636, Note_on_c, 7, 62, 0
1, 8638, Note_on_c, 8, 69, 0
1, 8638, Note_on_c, 8, 66, 0
1, 8638, Note_on_c, 8, 74, 0
1, 8638, Note_on_c, 8, 78, 0
1, 8640, Note_on_c, 3, 69, 115
1, 8640, Note_on_c, 8, 76, 1
1, 8640, Note_on_c, 2, 76, 1
1, 8640, Note_on_c, 7, 57, 67
1, 8640, Note_on_c, 3, 76, 119
1, 8640, Note_on_c, 8, 69, 1
1, 8640, Note_on_c, 0, 38, 98
1, 8640, Note_on_c, 3, 73, 120
1, 8640, Note_on_c, 9, 51, 52
1, 8640, Note_on_c, 3, 64, 118
1, 8640, Note_on_c, 5, 45, 82
1, 8640, Note_on_c, 9, 42, 67
1, 8640, Lyric_t, "boys  "
1, 8640, Note_on_c, 9, 35, 100
1, 8640, Note_on_c, 8, 73, 1
1, 8640, Note_on_c, 8, 64, 1
1, 8642, Note_on_c, 7, 66, 0
1, 8645, Note_on_c, 7, 62, 72
1, 8646, Note_on_c, 9, 35, 0
1, 8646, Note_on_c, 9, 42, 0
1, 8646, Note_on_c, 9, 51, 0
1, 8652, Note_on_c, 7, 66, 83
1, 8726, Note_on_c, 7, 66, 0
1, 8730, Note_on_c, 7, 62, 0
1, 8734, Note_on_c, 7, 57, 0
1, 8736, Note_on_c, 7, 66, 89
1, 8740, Note_on_c, 7, 62, 80
1, 8744, Note_on_c, 7, 57, 69
1, 8814, Note_on_c, 2, 76, 0
1, 8814, Note_on_c, 3, 76, 0
1, 8814, Note_on_c, 3, 69, 0
1, 8814, Note_on_c, 3, 64, 0
1, 8814, Note_on_c, 3, 73, 0
1, 8824, Note_on_c, 7, 57, 0
1, 8824, Note_on_c, 7, 62, 0
1, 8830, Note_on_c, 7, 66, 0
1, 8830, Note_on_c, 8, 64, 0
1, 8830, Note_on_c, 8, 69, 0
1, 8830, Note_on_c, 8, 73, 0
1, 8830, Note_on_c, 8, 76, 0
1, 8832, Note_on_c, 3, 62, 105
1, 8832, Note_on_c, 9, 42, 84
1, 8832, Note_on_c, 9, 40, 94
1, 8832, Note_on_c, 5, 54, 98
1, 8832, Lyric_t, "and  "
1, 8832, Note_on_c, 8, 62, 1
1, 8832, Note_on_c, 7, 57, 86
1, 8832, Note_on_c, 2, 74, 1
1, 8832, Note_on_c, 5, 50, 101
1, 8832, Note_on_c, 3, 74, 111
1, 8832, Note_on_c, 5, 66, 98
1, 8832, Note_on_c, 9, 51, 61
1, 8832, Note_on_c, 8, 74, 1
1, 8832, Note_on_c, 8, 69, 1
1, 8832, Note_on_c, 3, 66, 113
1, 8832, Note_on_c, 3, 69, 110
1, 8832, Note_on_c, 8, 66, 1
1, 8837, Note_on_c, 7, 62, 92
1, 8838, Note_on_c, 9, 51, 0
1, 8838, Note_on_c, 9, 40, 0
1, 8838, Note_on_c, 9, 42, 0
1, 8844, Note_on_c, 7, 66, 102
1, 8992, Note_on_c, 3, 62, 0
1, 8992, Note_on_c, 3, 69, 0
1, 8992, Note_on_c, 3, 66, 0
1, 8992, Note_on_c, 3, 74, 0
1, 8992, Note_on_c, 2, 74, 0
1, 9014, Note_on_c, 7, 57, 0
1, 9020, Note_on_c, 7, 62, 0
1, 9022, Note_on_c, 8, 66, 0
1, 9022, Note_on_c, 8, 69, 0
1, 9022, Note_on_c, 8, 62, 0
1, 9022, Note_on_c, 8, 74, 0
1, 9024, Note_on_c, 3, 78, 109
1, 9024, Note_on_c, 7, 57, 76
1, 9024, Note_on_c, 9, 51, 53
1, 9024, Note_on_c, 8, 74, 1
1, 9024, Note_on_c, 8, 78, 1
1, 9024, Note_on_c, 2, 78, 1
1, 9024, Lyric_t, "kiss "
1, 9024, Note_on_c, 3, 66, 107
1, 9024, Note_on_c, 3, 69, 107
1, 9024, Note_on_c, 9, 42, 67
1, 9024, Note_on_c, 8, 66, 1
1, 9024, Note_on_c, 8, 69, 1
1, 9024, Note_on_c, 3, 74, 105
1, 9026, Note_on_c, 7, 66, 0
1, 9029, Note_on_c, 7, 62, 83
1, 9030, Note_on_c, 9, 42, 0
1, 9030, Note_on_c, 9, 51, 0
1, 9036, Note_on_c, 7, 66, 91
1, 9074, Note_on_c, 0, 38, 0
1, 9114, Note_on_c, 7, 62, 0
1, 9114, Note_on_c, 5, 45, 0
1, 9118, Note_on_c, 7, 57, 0
1, 9120, Note_on_c, 0, 38, 90
1, 9124, Note_on_c, 7, 62, 78
1, 9128, Note_on_c, 7, 57, 66
1, 9140, Note_on_c, 2, 78, 0
1, 9140, Note_on_c, 3, 69, 0
1, 9140, Note_on_c, 3, 66, 0
1, 9140, Note_on_c, 3, 74, 0
1, 9140, Note_on_c, 3, 78, 0
1, 9166, Note_on_c, 0, 38, 0
1, 9196, Note_on_c, 1, 57, 0
1, 9196, Note_on_c, 1, 66, 0
1, 9196, Note_on_c, 1, 50, 0
1, 9196, Note_on_c, 1, 62, 0
1, 9204, Note_on_c, 7, 62, 0
1, 9204, Note_on_c, 7, 57, 0
1, 9204, Note_on_c, 1, 61, 76
1, 9204, Note_on_c, 1, 57, 78
1, 9204, Note_on_c, 1, 52, 79
1, 9204, Note_on_c, 1, 64, 77
1, 9206, Note_on_c, 7, 66, 0
1, 9214, Note_on_c, 8, 78, 0
1, 9214, Note_on_c, 8, 74, 0
1, 9214, Note_on_c, 8, 69, 0
1, 9214, Note_on_c, 8, 66, 0
1, 9216, Note_on_c, 8, 73, 1
1, 9216, Note_on_c, 8, 69, 1
1, 9216, Note_on_c, 8, 76, 1
1, 9216, Note_on_c, 3, 73, 110
1, 9216, Note_on_c, 8, 64, 1
1, 9216, Note_on_c, 3, 76, 111
1, 9216, Note_on_c, 3, 69, 116
1, 9216, Note_on_c, 5, 45, 94
1, 9216, Note_on_c, 2, 76, 1
1, 9216, Note_on_c, 3, 64, 110
1, 9216, Note_on_c, 9, 42, 89
1, 9216, Note_on_c, 9, 51, 55
1, 9216, Note_on_c, 9, 35, 114
1, 9216, Lyric_t, "\015 "
1, 9216, Note_on_c, 0, 33, 107
1, 9216, Note_on_c, 7, 57, 82
1, 9216, Lyric_t, "es  "
1, 9221, Note_on_c, 7, 61, 86
1, 9222, Note_on_c, 9, 35, 0
1, 9222, Note_on_c, 9, 51, 0
1, 9222, Note_on_c, 9, 42, 0
1, 9226, Note_on_c, 5, 50, 0
1, 9226, Note_on_c, 5, 54, 0
1, 9226, Note_on_c, 5, 66, 0
1, 9228, Note_on_c, 7, 64, 100
1, 9398, Note_on_c, 7, 57, 0
1, 9400, Note_on_c, 5, 45, 0
1, 9404, Note_on_c, 7, 61, 0
1, 9408, Note_on_c, 7, 57, 71
1, 9408, Note_on_c, 5, 45, 94
1, 9408, Note_on_c, 9, 42, 67
1, 9408, Note_on_c, 9, 51, 51
1, 9410, Note_on_c, 7, 64, 0
1, 9413, Note_on_c, 7, 61, 85
1, 9414, Note_on_c, 9, 51, 0
1, 9414, Note_on_c, 9, 42, 0
1, 9420, Note_on_c, 7, 64, 91
1, 9590, Note_on_c, 7, 57, 0
1, 9596, Note_on_c, 7, 61, 0
1, 9600, Note_on_c, 9, 40, 94
1, 9600, Note_on_c, 7, 57, 86
1, 9600, Note_on_c, 5, 57, 101
1, 9600, Note_on_c, 9, 51, 58
1, 9600, Note_on_c, 9, 42, 85
1, 9600, Note_on_c, 5, 64, 98
1, 9600, Note_on_c, 5, 52, 93
1, 9602, Note_on_c, 7, 64, 0
1, 9605, Note_on_c, 7, 61, 97
1, 9606, Note_on_c, 9, 42, 0
1, 9606, Note_on_c, 9, 51, 0
1, 9606, Note_on_c, 9, 40, 0
1, 9612, Note_on_c, 7, 64, 100
1, 9782, Note_on_c, 7, 57, 0
1, 9788, Note_on_c, 7, 61, 0
1, 9792, Note_on_c, 9, 51, 56
1, 9792, Note_on_c, 9, 42, 61
1, 9792, Note_on_c, 7, 57, 72
1, 9794, Note_on_c, 7, 64, 0
1, 9797, Note_on_c, 7, 61, 81
1, 9798, Note_on_c, 9, 42, 0
1, 9798, Note_on_c, 9, 51, 0
1, 9804, Note_on_c, 7, 64, 89
1, 9860, Note_on_c, 0, 33, 0
1, 9882, Note_on_c, 5, 45, 0
1, 9882, Note_on_c, 7, 61, 0
1, 9886, Note_on_c, 7, 57, 0
1, 9888, Note_on_c, 0, 33, 99
1, 9888, Note_on_c, 9, 35, 81
1, 9892, Note_on_c, 7, 61, 76
1, 9894, Note_on_c, 9, 35, 0
1, 9896, Note_on_c, 7, 57, 64
1, 9928, Note_on_c, 0, 33, 0
1, 9966, Note_on_c, 5, 52, 0
1, 9970, Note_on_c, 7, 64, 0
1, 9972, Note_on_c, 7, 57, 0
1, 9980, Note_on_c, 7, 61, 0
1, 9984, Note_on_c, 9, 35, 111
1, 9984, Note_on_c, 0, 33, 105
1, 9984, Note_on_c, 7, 57, 84
1, 9984, Note_on_c, 5, 45, 92
1, 9984, Note_on_c, 9, 51, 57
1, 9984, Note_on_c, 9, 42, 85
1, 9989, Note_on_c, 7, 61, 93
1, 9990, Note_on_c, 9, 42, 0
1, 9990, Note_on_c, 9, 51, 0
1, 9990, Note_on_c, 9, 35, 0
1, 9996, Note_on_c, 7, 64, 104
1, 10040, Note_on_c, 5, 57, 0
1, 10040, Note_on_c, 5, 64, 0
1, 10062, Note_on_c, 0, 33, 0
1, 10070, Note_on_c, 7, 64, 0
1, 10074, Note_on_c, 7, 61, 0
1, 10078, Note_on_c, 7, 57, 0
1, 10080, Note_on_c, 7, 64, 81
1, 10084, Note_on_c, 7, 61, 71
1, 10088, Note_on_c, 7, 57, 60
1, 10166, Note_on_c, 7, 57, 0
1, 10168, Note_on_c, 5, 45, 0
1, 10172, Note_on_c, 7, 61, 0
1, 10176, Note_on_c, 7, 57, 65
1, 10176, Note_on_c, 9, 42, 63
1, 10176, Note_on_c, 9, 51, 50
1, 10176, Note_on_c, 0, 33, 107
1, 10176, Note_on_c, 9, 35, 97
1, 10176, Note_on_c, 5, 45, 88
1, 10178, Note_on_c, 7, 64, 0
1, 10181, Note_on_c, 7, 61, 73
1, 10182, Note_on_c, 9, 35, 0
1, 10182, Note_on_c, 9, 51, 0
1, 10182, Note_on_c, 9, 42, 0
1, 10188, Note_on_c, 7, 64, 81
1, 10262, Note_on_c, 7, 64, 0
1, 10266, Note_on_c, 7, 61, 0
1, 10270, Note_on_c, 7, 57, 0
1, 10272, Note_on_c, 7, 64, 89
1, 10276, Note_on_c, 7, 61, 76
1, 10280, Note_on_c, 7, 57, 68
1, 10360, Note_on_c, 7, 57, 0
1, 10360, Note_on_c, 7, 61, 0
1, 10366, Note_on_c, 7, 64, 0
1, 10368, Note_on_c, 5, 64, 97
1, 10368, Note_on_c, 9, 42, 84
1, 10368, Note_on_c, 9, 40, 92
1, 10368, Note_on_c, 7, 57, 80
1, 10368, Note_on_c, 5, 57, 93
1, 10368, Note_on_c, 5, 52, 98
1, 10368, Note_on_c, 9, 51, 60
1, 10373, Note_on_c, 7, 61, 97
1, 10374, Note_on_c, 9, 51, 0
1, 10374, Note_on_c, 9, 40, 0
1, 10374, Note_on_c, 9, 42, 0
1, 10380, Note_on_c, 7, 64, 99
1, 10532, Note_on_c, 0, 33, 0
1, 10550, Note_on_c, 7, 57, 0
1, 10550, Note_on_c, 3, 73, 0
1, 10550, Note_on_c, 3, 76, 0
1, 10550, Note_on_c, 2, 76, 0
1, 10550, Note_on_c, 3, 69, 0
1, 10550, Note_on_c, 3, 64, 0
1, 10552, Note_on_c, 5, 45, 0
1, 10552, Note_on_c, 5, 52, 0
1, 10556, Note_on_c, 7, 61, 0
1, 10560, Note_on_c, 5, 45, 67
1, 10560, Note_on_c, 9, 51, 52
1, 10560, Note_on_c, 9, 46, 59
1, 10560, Note_on_c, 7, 57, 74
1, 10560, Note_on_c, 5, 52, 68
1, 10560, Note_on_c, 0, 38, 102
1, 10562, Note_on_c, 7, 64, 0
1, 10565, Note_on_c, 7, 61, 79
1, 10566, Note_on_c, 9, 46, 0
1, 10566, Note_on_c, 9, 51, 0
1, 10572, Note_on_c, 7, 64, 94
1, 10626, Note_on_c, 5, 52, 0
1, 10626, Note_on_c, 5, 45, 0
1, 10650, Note_on_c, 7, 61, 0
1, 10654, Note_on_c, 7, 57, 0
1, 10656, Note_on_c, 5, 45, 66
1, 10656, Note_on_c, 5, 52, 66
1, 10660, Note_on_c, 7, 61, 77
1, 10664, Note_on_c, 7, 57, 70
1, 10722, Note_on_c, 5, 52, 0
1, 10722, Note_on_c, 5, 45, 0
1, 10730, Note_on_c, 0, 38, 0
1, 10732, Note_on_c, 1, 52, 0
1, 10732, Note_on_c, 1, 64, 0
1, 10732, Note_on_c, 1, 61, 0
1, 10732, Note_on_c, 1, 57, 0
1, 10740, Note_on_c, 7, 57, 0
1, 10740, Note_on_c, 7, 61, 0
1, 10740, Note_on_c, 1, 67, 76
1, 10740, Note_on_c, 1, 55, 79
1, 10740, Note_on_c, 1, 62, 75
1, 10740, Note_on_c, 1, 59, 79
1, 10742, Note_on_c, 7, 64, 0
1, 10744, Note_on_c, 5, 57, 0
1, 10744, Note_on_c, 5, 64, 0
1, 10750, Note_on_c, 8, 73, 0
1, 10750, Note_on_c, 8, 76, 0
1, 10750, Note_on_c, 8, 64, 0
1, 10750, Note_on_c, 8, 69, 0
1, 10752, Note_on_c, 5, 43, 89
1, 10752, Note_on_c, 9, 49, 75
1, 10752, Note_on_c, 9, 42, 87
1, 10752, Note_on_c, 7, 59, 85
1, 10752, Note_on_c, 5, 55, 95
1, 10752, Note_on_c, 9, 35, 121
1, 10752, Note_on_c, 9, 51, 55
1, 10752, Note_on_c, 0, 31, 108
1, 10757, Note_on_c, 7, 62, 93
1, 10758, Note_on_c, 9, 51, 0
1, 10758, Note_on_c, 9, 35, 0
1, 10758, Note_on_c, 9, 42, 0
1, 10758, Note_on_c, 9, 49, 0
1, 10764, Note_on_c, 7, 67, 101
1, 10934, Note_on_c, 7, 59, 0
1, 10936, Note_on_c, 5, 55, 0
1, 10936, Note_on_c, 5, 43, 0
1, 10940, Note_on_c, 7, 62, 0
1, 10944, Note_on_c, 7, 59, 70
1, 10944, Note_on_c, 5, 55, 93
1, 10944, Note_on_c, 5, 43, 83
1, 10944, Note_on_c, 9, 42, 65
1, 10944, Note_on_c, 9, 51, 50
1, 10946, Note_on_c, 7, 67, 0
1, 10949, Note_on_c, 7, 62, 79
1, 10950, Note_on_c, 9, 51, 0
1, 10950, Note_on_c, 9, 42, 0
1, 10956, Note_on_c, 7, 67, 90
1, 11126, Note_on_c, 7, 59, 0
1, 11130, Note_on_c, 0, 31, 0
1, 11132, Note_on_c, 5, 55, 0
1, 11132, Note_on_c, 7, 62, 0
1, 11136, Note_on_c, 5, 50, 90
1, 11136, Note_on_c, 9, 42, 84
1, 11136, Note_on_c, 9, 40, 95
1, 11136, Note_on_c, 5, 55, 105
1, 11136, Note_on_c, 7, 59, 84
1, 11136, Note_on_c, 5, 67, 99
1, 11136, Note_on_c, 9, 51, 57
1, 11138, Note_on_c, 7, 67, 0
1, 11141, Note_on_c, 7, 62, 95
1, 11142, Note_on_c, 9, 40, 0
1, 11142, Note_on_c, 9, 42, 0
1, 11142, Note_on_c, 9, 51, 0
1, 11148, Note_on_c, 7, 67, 102
1, 11232, Note_on_c, 0, 31, 84
1, 11266, Note_on_c, 0, 31, 0
1, 11318, Note_on_c, 7, 59, 0
1, 11320, Note_on_c, 5, 55, 0
1, 11320, Note_on_c, 5, 50, 0
1, 11324, Note_on_c, 7, 62, 0
1, 11328, Note_on_c, 9, 42, 62
1, 11328, Note_on_c, 7, 59, 74
1, 11328, Note_on_c, 5, 55, 81
1, 11328, Note_on_c, 5, 50, 63
1, 11328, Note_on_c, 0, 35, 82
1, 11328, Note_on_c, 9, 51, 58
1, 11330, Note_on_c, 7, 67, 0
1, 11333, Note_on_c, 7, 62, 80
1, 11334, Note_on_c, 9, 42, 0
1, 11334, Note_on_c, 9, 51, 0
1, 11340, Note_on_c, 7, 67, 87
1, 11394, Note_on_c, 0, 35, 0
1, 11410, Note_on_c, 5, 50, 0
1, 11410, Note_on_c, 5, 55, 0
1, 11418, Note_on_c, 5, 43, 0
1, 11418, Note_on_c, 7, 62, 0
1, 11422, Note_on_c, 7, 59, 0
1, 11424, Note_on_c, 5, 50, 65
1, 11424, Note_on_c, 0, 37, 83
1, 11424, Note_on_c, 5, 55, 75
1, 11424, Note_on_c, 9, 35, 84
1, 11428, Note_on_c, 7, 62, 75
1, 11430, Note_on_c, 9, 35, 0
1, 11432, Note_on_c, 7, 59, 70
1, 11490, Note_on_c, 0, 37, 0
1, 11500, Note_on_c, 1, 67, 0
1, 11500, Note_on_c, 1, 62, 0
1, 11500, Note_on_c, 1, 55, 0
1, 11500, Note_on_c, 1, 59, 0
1, 11506, Note_on_c, 5, 50, 0
1, 11506, Note_on_c, 5, 55, 0
1, 11506, Note_on_c, 7, 67, 0
1, 11508, Note_on_c, 7, 59, 0
1, 11508, Note_on_c, 1, 66, 72
1, 11508, Note_on_c, 1, 50, 78
1, 11508, Note_on_c, 1, 62, 80
1, 11508, Note_on_c, 1, 57, 77
1, 11516, Note_on_c, 7, 62, 0
1, 11520, Note_on_c, 9, 42, 81
1, 11520, Note_on_c, 5, 45, 87
1, 11520, Note_on_c, 9, 35, 117
1, 11520, Note_on_c, 5, 55, 98
1, 11520, Note_on_c, 9, 51, 54
1, 11520, Note_on_c, 7, 57, 85
1, 11520, Note_on_c, 0, 38, 103
1, 11525, Note_on_c, 7, 62, 91
1, 11526, Note_on_c, 9, 51, 0
1, 11526, Note_on_c, 9, 35, 0
1, 11526, Note_on_c, 9, 42, 0
1, 11532, Note_on_c, 7, 66, 96
1, 11576, Note_on_c, 5, 67, 0
1, 11606, Note_on_c, 7, 66, 0
1, 11610, Note_on_c, 5, 55, 0
1, 11610, Note_on_c, 7, 62, 0
1, 11614, Note_on_c, 7, 57, 0
1, 11616, Note_on_c, 5, 54, 74
1, 11616, Note_on_c, 7, 66, 80
1, 11620, Note_on_c, 7, 62, 73
1, 11624, Note_on_c, 7, 57, 63
1, 11644, Note_on_c, 0, 38, 0
1, 11702, Note_on_c, 7, 57, 0
1, 11704, Note_on_c, 5, 54, 0
1, 11704, Note_on_c, 5, 45, 0
1, 11708, Note_on_c, 7, 62, 0
1, 11712, Note_on_c, 9, 42, 65
1, 11712, Note_on_c, 9, 35, 97
1, 11712, Note_on_c, 9, 51, 55
1, 11712, Note_on_c, 5, 54, 91
1, 11712, Note_on_c, 7, 57, 69
1, 11712, Note_on_c, 0, 38, 99
1, 11712, Note_on_c, 5, 45, 81
1, 11714, Note_on_c, 7, 66, 0
1, 11717, Note_on_c, 7, 62, 78
1, 11718, Note_on_c, 9, 51, 0
1, 11718, Note_on_c, 9, 35, 0
1, 11718, Note_on_c, 9, 42, 0
1, 11724, Note_on_c, 7, 66, 89
1, 11798, Note_on_c, 7, 66, 0
1, 11802, Note_on_c, 7, 62, 0
1, 11806, Note_on_c, 7, 57, 0
1, 11808, Note_on_c, 7, 66, 83
1, 11812, Note_on_c, 7, 62, 75
1, 11816, Note_on_c, 7, 57, 73
1, 11896, Note_on_c, 7, 57, 0
1, 11896, Note_on_c, 7, 62, 0
1, 11896, Note_on_c, 5, 54, 0
1, 11902, Note_on_c, 7, 66, 0
1, 11904, Note_on_c, 5, 50, 100
1, 11904, Note_on_c, 5, 54, 103
1, 11904, Note_on_c, 9, 51, 54
1, 11904, Note_on_c, 9, 42, 86
1, 11904, Note_on_c, 5, 66, 95
1, 11904, Note_on_c, 7, 57, 89
1, 11904, Note_on_c, 9, 40, 88
1, 11909, Note_on_c, 7, 62, 94
1, 11910, Note_on_c, 9, 40, 0
1, 11910, Note_on_c, 9, 51, 0
1, 11910, Note_on_c, 9, 42, 0
1, 11916, Note_on_c, 7, 66, 99
1, 12086, Note_on_c, 7, 57, 0
1, 12092, Note_on_c, 7, 62, 0
1, 12096, Note_on_c, 9, 51, 58
1, 12096, Note_on_c, 9, 42, 69
1, 12096, Note_on_c, 7, 57, 70
1, 12098, Note_on_c, 7, 66, 0
1, 12101, Note_on_c, 7, 62, 80
1, 12102, Note_on_c, 9, 51, 0
1, 12102, Note_on_c, 9, 42, 0
1, 12108, Note_on_c, 7, 66, 92
1, 12146, Note_on_c, 0, 38, 0
1, 12186, Note_on_c, 5, 45, 0
1, 12186, Note_on_c, 7, 62, 0
1, 12190, Note_on_c, 7, 57, 0
1, 12192, Note_on_c, 0, 38, 89
1, 12196, Note_on_c, 7, 62, 74
1, 12200, Note_on_c, 7, 57, 66
1, 12238, Note_on_c, 0, 38, 0
1, 12268, Note_on_c, 1, 62, 0
1, 12268, Note_on_c, 1, 66, 0
1, 12268, Note_on_c, 1, 50, 0
1, 12268, Note_on_c, 1, 57, 0
1, 12276, Note_on_c, 7, 57, 0
1, 12276, Note_on_c, 7, 62, 0
1, 12276, Note_on_c, 1, 61, 76
1, 12276, Note_on_c, 1, 64, 78
1, 12276, Note_on_c, 1, 57, 74
1, 12276, Note_on_c, 1, 52, 78
1, 12278, Note_on_c, 7, 66, 0
1, 12288, Note_on_c, 9, 51, 54
1, 12288, Note_on_c, 5, 45, 94
1, 12288, Note_on_c, 9, 35, 115
1, 12288, Note_on_c, 7, 57, 85
1, 12288, Note_on_c, 0, 33, 102
1, 12288, Note_on_c, 9, 42, 86
1, 12293, Note_on_c, 7, 61, 89
1, 12294, Note_on_c, 9, 42, 0
1, 12294, Note_on_c, 9, 51, 0
1, 12294, Note_on_c, 9, 35, 0
1, 12298, Note_on_c, 5, 50, 0
1, 12298, Note_on_c, 5, 54, 0
1, 12298, Note_on_c, 5, 66, 0
1, 12300, Note_on_c, 7, 64, 96
1, 12470, Note_on_c, 7, 57, 0
1, 12472, Note_on_c, 5, 45, 0
1, 12476, Note_on_c, 7, 61, 0
1, 12480, Note_on_c, 9, 51, 50
1, 12480, Note_on_c, 7, 57, 79
1, 12480, Note_on_c, 9, 42, 65
1, 12480, Note_on_c, 5, 45, 97
1, 12482, Note_on_c, 7, 64, 0
1, 12485, Note_on_c, 7, 61, 85
1, 12486, Note_on_c, 9, 42, 0
1, 12486, Note_on_c, 9, 51, 0
1, 12492, Note_on_c, 7, 64, 88
1, 12662, Note_on_c, 7, 57, 0
1, 12668, Note_on_c, 7, 61, 0
1, 12672, Note_on_c, 5, 52, 94
1, 12672, Note_on_c, 9, 42, 88
1, 12672, Note_on_c, 5, 64, 96
1, 12672, Note_on_c, 9, 51, 52
1, 12672, Note_on_c, 7, 57, 87
1, 12672, Note_on_c, 9, 40, 93
1, 12672, Note_on_c, 5, 57, 96
1, 12674, Note_on_c, 7, 64, 0
1, 12677, Note_on_c, 7, 61, 92
1, 12678, Note_on_c, 9, 51, 0
1, 12678, Note_on_c, 9, 42, 0
1, 12678, Note_on_c, 9, 40, 0
1, 12684, Note_on_c, 7, 64, 99
1, 12854, Note_on_c, 7, 57, 0
1, 12860, Note_on_c, 7, 61, 0
1, 12864, Note_on_c, 9, 42, 64
1, 12864, Note_on_c, 7, 57, 75
1, 12864, Note_on_c, 9, 51, 59
1, 12866, Note_on_c, 7, 64, 0
1, 12869, Note_on_c, 7, 61, 79
1, 12870, Note_on_c, 9, 42, 0
1, 12870, Note_on_c, 9, 51, 0
1, 12876, Note_on_c, 7, 64, 91
1, 12932, Note_on_c, 0, 33, 0
1, 12954, Note_on_c, 5, 45, 0
1, 12954, Note_on_c, 7, 61, 0
1, 12958, Note_on_c, 7, 57, 0
1, 12960, Note_on_c, 0, 40, 94
1, 12960, Note_on_c, 9, 35, 87
1, 12964, Note_on_c, 7, 61, 73
1, 12966, Note_on_c, 9, 35, 0
1, 12968, Note_on_c, 7, 57, 65
1, 13020, Note_on_c, 0, 40, 0
1, 13038, Note_on_c, 5, 52, 0
1, 13042, Note_on_c, 7, 64, 0
1, 13044, Note_on_c, 7, 57, 0
1, 13052, Note_on_c, 7, 61, 0
1, 13056, Note_on_c, 0, 33, 103
1, 13056, Note_on_c, 9, 35, 114
1, 13056, Note_on_c, 9, 42, 85
1, 13056, Note_on_c, 5, 45, 92
1, 13056, Note_on_c, 7, 57, 84
1, 13056, Note_on_c, 9, 51, 56
1, 13061, Note_on_c, 7, 61, 91
1, 13062, Note_on_c, 9, 51, 0
1, 13062, Note_on_c, 9, 35, 0
1, 13062, Note_on_c, 9, 42, 0
1, 13068, Note_on_c, 7, 69, 86
1, 13068, Note_on_c, 7, 64, 102
1, 13112, Note_on_c, 5, 64, 0
1, 13112, Note_on_c, 5, 57, 0
1, 13142, Note_on_c, 7, 64, 0
1, 13146, Note_on_c, 7, 61, 0
1, 13150, Note_on_c, 7, 57, 0
1, 13152, Note_on_c, 7, 64, 77
1, 13156, Note_on_c, 7, 61, 75
1, 13160, Note_on_c, 7, 57, 59
1, 13176, Note_on_c, 0, 33, 0
1, 13238, Note_on_c, 7, 57, 0
1, 13240, Note_on_c, 5, 45, 0
1, 13244, Note_on_c, 7, 61, 0
1, 13248, Note_on_c, 9, 35, 97
1, 13248, Note_on_c, 7, 57, 68
1, 13248, Note_on_c, 9, 51, 55
1, 13248, Note_on_c, 9, 46, 66
1, 13248, Note_on_c, 0, 33, 100
1, 13248, Note_on_c, 5, 45, 81
1, 13250, Note_on_c, 7, 64, 0
1, 13253, Note_on_c, 7, 61, 74
1, 13254, Note_on_c, 9, 46, 0
1, 13254, Note_on_c, 9, 51, 0
1, 13254, Note_on_c, 9, 35, 0
1, 13260, Note_on_c, 7, 64, 86
1, 13334, Note_on_c, 7, 64, 0
1, 13336, Note_on_c, 7, 69, 0
1, 13338, Note_on_c, 7, 61, 0
1, 13342, Note_on_c, 7, 57, 0
1, 13344, Note_on_c, 7, 69, 88
1, 13344, Note_on_c, 7, 64, 96
1, 13348, Note_on_c, 7, 61, 90
1, 13352, Note_on_c, 7, 57, 83
1, 13440, Note_on_c, 5, 57, 95
1, 13440, Note_on_c, 9, 42, 81
1, 13440, Note_on_c, 5, 64, 101
1, 13440, Note_on_c, 5, 52, 97
1, 13440, Note_on_c, 9, 51, 59
1, 13440, Note_on_c, 9, 40, 90
1, 13446, Note_on_c, 9, 40, 0
1, 13446, Note_on_c, 9, 51, 0
1, 13446, Note_on_c, 9, 42, 0
1, 13508, Note_on_c, 0, 33, 0
1, 13526, Note_on_c, 7, 64, 0
1, 13530, Note_on_c, 7, 61, 0
1, 13534, Note_on_c, 7, 57, 0
1, 13536, Note_on_c, 7, 64, 72
1, 13536, Note_on_c, 0, 33, 102
1, 13540, Note_on_c, 7, 61, 62
1, 13544, Note_on_c, 7, 57, 53
1, 13622, Note_on_c, 7, 57, 0
1, 13624, Note_on_c, 5, 45, 0
1, 13624, Note_on_c, 5, 52, 0
1, 13628, Note_on_c, 7, 61, 0
1, 13632, Note_on_c, 5, 52, 65
1, 13632, Note_on_c, 5, 45, 69
1, 13632, Note_on_c, 7, 57, 76
1, 13632, Note_on_c, 9, 46, 65
1, 13632, Note_on_c, 9, 51, 53
1, 13634, Note_on_c, 7, 64, 0
1, 13636, Note_on_c, 7, 69, 0
1, 13637, Note_on_c, 7, 61, 80
1, 13638, Note_on_c, 9, 46, 0
1, 13638, Note_on_c, 9, 51, 0
1, 13644, Note_on_c, 7, 64, 91
1, 13644, Note_on_c, 7, 69, 80
1, 13698, Note_on_c, 5, 45, 0
1, 13698, Note_on_c, 5, 52, 0
1, 13726, Note_on_c, 7, 57, 0
1, 13728, Note_on_c, 5, 45, 64
1, 13728, Note_on_c, 5, 52, 68
1, 13736, Note_on_c, 7, 57, 55
1, 13794, Note_on_c, 5, 52, 0
1, 13794, Note_on_c, 5, 45, 0
1, 13802, Note_on_c, 0, 33, 0
1, 13804, Note_on_c, 1, 57, 0
1, 13804, Note_on_c, 1, 61, 0
1, 13804, Note_on_c, 1, 52, 0
1, 13804, Note_on_c, 1, 64, 0
1, 13812, Note_on_c, 7, 57, 0
1, 13812, Note_on_c, 1, 62, 76
1, 13812, Note_on_c, 1, 55, 79
1, 13812, Note_on_c, 1, 59, 80
1, 13812, Note_on_c, 1, 67, 73
1, 13814, Note_on_c, 7, 69, 0
1, 13814, Note_on_c, 7, 61, 0
1, 13814, Note_on_c, 7, 64, 0
1, 13816, Note_on_c, 5, 57, 0
1, 13816, Note_on_c, 5, 64, 0
1, 13824, Note_on_c, 9, 49, 71
1, 13824, Note_on_c, 9, 35, 115
1, 13824, Note_on_c, 7, 59, 84
1, 13824, Note_on_c, 9, 42, 84
1, 13824, Note_on_c, 9, 51, 55
1, 13824, Note_on_c, 5, 43, 89
1, 13824, Note_on_c, 0, 31, 108
1, 13829, Note_on_c, 7, 62, 93
1, 13830, Note_on_c, 9, 51, 0
1, 13830, Note_on_c, 9, 42, 0
1, 13830, Note_on_c, 9, 35, 0
1, 13830, Note_on_c, 9, 49, 0
1, 13836, Note_on_c, 7, 67, 96
1, 14006, Note_on_c, 7, 59, 0
1, 14008, Note_on_c, 5, 43, 0
1, 14012, Note_on_c, 7, 62, 0
1, 14016, Note_on_c, 7, 59, 72
1, 14016, Note_on_c, 5, 43, 84
1, 14016, Note_on_c, 9, 42, 63
1, 14016, Note_on_c, 9, 51, 54
1, 14018, Note_on_c, 7, 67, 0
1, 14021, Note_on_c, 7, 62, 78
1, 14022, Note_on_c, 9, 51, 0
1, 14022, Note_on_c, 9, 42, 0
1, 14028, Note_on_c, 7, 67, 93
1, 14198, Note_on_c, 7, 59, 0
1, 14202, Note_on_c, 0, 31, 0
1, 14204, Note_on_c, 7, 62, 0
1, 14208, Note_on_c, 9, 51, 51
1, 14208, Note_on_c, 9, 40, 90
1, 14208, Note_on_c, 5, 55, 94
1, 14208, Note_on_c, 7, 59, 89
1, 14208, Note_on_c, 5, 50, 95
1, 14208, Note_on_c, 5, 67, 100
1, 14208, Note_on_c, 9, 42, 89
1, 14210, Note_on_c, 7, 67, 0
1, 14213, Note_on_c, 7, 62, 93
1, 14214, Note_on_c, 9, 40, 0
1, 14214, Note_on_c, 9, 42, 0
1, 14214, Note_on_c, 9, 51, 0
1, 14220, Note_on_c, 7, 67, 105
1, 14304, Note_on_c, 0, 31, 86
1, 14338, Note_on_c, 0, 31, 0
1, 14390, Note_on_c, 7, 59, 0
1, 14392, Note_on_c, 5, 55, 0
1, 14392, Note_on_c, 5, 50, 0
1, 14396, Note_on_c, 7, 62, 0
1, 14400, Note_on_c, 9, 51, 54
1, 14400, Note_on_c, 0, 35, 79
1, 14400, Note_on_c, 5, 50, 68
1, 14400, Note_on_c, 7, 59, 74
1, 14400, Note_on_c, 5, 55, 67
1, 14400, Note_on_c, 9, 42, 64
1, 14402, Note_on_c, 7, 67, 0
1, 14405, Note_on_c, 7, 62, 83
1, 14406, Note_on_c, 9, 51, 0
1, 14406, Note_on_c, 9, 42, 0
1, 14412, Note_on_c, 7, 67, 90
1, 14466, Note_on_c, 0, 35, 0
1, 14482, Note_on_c, 5, 50, 0
1, 14482, Note_on_c, 5, 55, 0
1, 14490, Note_on_c, 5, 43, 0
1, 14490, Note_on_c, 7, 62, 0
1, 14494, Note_on_c, 7, 59, 0
1, 14496, Note_on_c, 5, 55, 68
1, 14496, Note_on_c, 5, 50, 63
1, 14496, Note_on_c, 0, 37, 78
1, 14496, Note_on_c, 9, 35, 84
1, 14500, Note_on_c, 7, 62, 80
1, 14502, Note_on_c, 9, 35, 0
1, 14504, Note_on_c, 7, 59, 64
1, 14562, Note_on_c, 0, 37, 0
1, 14572, Note_on_c, 1, 62, 0
1, 14572, Note_on_c, 1, 55, 0
1, 14572, Note_on_c, 1, 59, 0
1, 14572, Note_on_c, 1, 67, 0
1, 14578, Note_on_c, 5, 50, 0
1, 14578, Note_on_c, 7, 67, 0
1, 14578, Note_on_c, 5, 55, 0
1, 14580, Note_on_c, 7, 59, 0
1, 14580, Note_on_c, 1, 62, 73
1, 14580, Note_on_c, 1, 66, 77
1, 14580, Note_on_c, 1, 57, 72
1, 14580, Note_on_c, 1, 50, 73
1, 14588, Note_on_c, 7, 62, 0
1, 14592, Note_on_c, 3, 66, 115
1, 14592, Note_on_c, 8, 66, 1
1, 14592, Note_on_c, 7, 57, 83
1, 14592, Note_on_c, 8, 69, 1
1, 14592, Note_on_c, 9, 42, 81
1, 14592, Note_on_c, 3, 78, 121
1, 14592, Note_on_c, 3, 69, 120
1, 14592, Note_on_c, 5, 45, 88
1, 14592, Note_on_c, 5, 55, 86
1, 14592, Note_on_c, 9, 35, 118
1, 14592, Note_on_c, 9, 51, 51
1, 14592, Note_on_c, 8, 78, 1
1, 14592, Note_on_c, 2, 78, 1
1, 14592, Note_on_c, 0, 38, 103
1, 14592, Lyric_t, "cow "
1, 14597, Note_on_c, 7, 62, 92
1, 14598, Note_on_c, 9, 51, 0
1, 14598, Note_on_c, 9, 35, 0
1, 14598, Note_on_c, 9, 42, 0
1, 14604, Note_on_c, 7, 66, 101
1, 14648, Note_on_c, 5, 67, 0
1, 14678, Note_on_c, 7, 66, 0
1, 14682, Note_on_c, 7, 62, 0
1, 14682, Note_on_c, 5, 55, 0
1, 14686, Note_on_c, 7, 57, 0
1, 14688, Note_on_c, 5, 54, 64
1, 14688, Note_on_c, 7, 66, 77
1, 14692, Note_on_c, 7, 62, 66
1, 14696, Note_on_c, 7, 57, 59
1, 14716, Note_on_c, 0, 38, 0
1, 14766, Note_on_c, 2, 78, 0
1, 14766, Note_on_c, 3, 78, 0
1, 14766, Note_on_c, 3, 66, 0
1, 14766, Note_on_c, 3, 69, 0
1, 14774, Note_on_c, 7, 57, 0
1, 14776, Note_on_c, 5, 45, 0
1, 14776, Note_on_c, 5, 54, 0
1, 14780, Note_on_c, 7, 62, 0
1, 14782, Note_on_c, 8, 78, 0
1, 14782, Note_on_c, 8, 66, 0
1, 14782, Note_on_c, 8, 69, 0
1, 14784, Note_on_c, 0, 38, 99
1, 14784, Note_on_c, 7, 57, 69
1, 14784, Note_on_c, 9, 51, 57
1, 14784, Note_on_c, 9, 35, 101
1, 14784, Note_on_c, 5, 54, 88
1, 14784, Note_on_c, 5, 45, 73
1, 14784, Note_on_c, 2, 76, 1
1, 14784, Note_on_c, 9, 42, 66
1, 14784, Note_on_c, 8, 64, 1
1, 14784, Note_on_c, 3, 64, 113
1, 14784, Note_on_c, 3, 69, 117
1, 14784, Note_on_c, 3, 76, 119
1, 14784, Lyric_t, "boys  "
1, 14784, Note_on_c, 8, 76, 1
1, 14784, Note_on_c, 8, 69, 1
1, 14786, Note_on_c, 7, 66, 0
1, 14789, Note_on_c, 7, 62, 80
1, 14790, Note_on_c, 9, 35, 0
1, 14790, Note_on_c, 9, 51, 0
1, 14790, Note_on_c, 9, 42, 0
1, 14796, Note_on_c, 7, 66, 81
1, 14870, Note_on_c, 7, 66, 0
1, 14874, Note_on_c, 7, 62, 0
1, 14878, Note_on_c, 7, 57, 0
1, 14880, Note_on_c, 7, 66, 89
1, 14884, Note_on_c, 7, 62, 81
1, 14888, Note_on_c, 7, 57, 73
1, 14958, Note_on_c, 3, 69, 0
1, 14958, Note_on_c, 3, 76, 0
1, 14958, Note_on_c, 2, 76, 0
1, 14958, Note_on_c, 3, 64, 0
1, 14968, Note_on_c, 7, 57, 0
1, 14968, Note_on_c, 7, 62, 0
1, 14968, Note_on_c, 5, 54, 0
1, 14974, Note_on_c, 8, 64, 0
1, 14974, Note_on_c, 8, 76, 0
1, 14974, Note_on_c, 7, 66, 0
1, 14974, Note_on_c, 8, 69, 0
1, 14976, Note_on_c, 5, 54, 96
1, 14976, Note_on_c, 3, 66, 106
1, 14976, Note_on_c, 5, 66, 96
1, 14976, Note_on_c, 8, 74, 1
1, 14976, Note_on_c, 9, 51, 58
1, 14976, Note_on_c, 9, 40, 92
1, 14976, Note_on_c, 3, 74, 108
1, 14976, Note_on_c, 2, 74, 1
1, 14976, Note_on_c, 3, 62, 106
1, 14976, Lyric_t, "and  "
1, 14976, Note_on_c, 5, 50, 97
1, 14976, Note_on_c, 8, 62, 1
1, 14976, Note_on_c, 8, 66, 1
1, 14976, Note_on_c, 7, 57, 85
1, 14976, Note_on_c, 9, 42, 84
1, 14981, Note_on_c, 7, 62, 91
1, 14982, Note_on_c, 9, 42, 0
1, 14982, Note_on_c, 9, 40, 0
1, 14982, Note_on_c, 9, 51, 0
1, 14988, Note_on_c, 7, 66, 100
1, 15136, Note_on_c, 3, 66, 0
1, 15136, Note_on_c, 3, 74, 0
1, 15136, Note_on_c, 3, 62, 0
1, 15136, Note_on_c, 2, 74, 0
1, 15158, Note_on_c, 7, 57, 0
1, 15164, Note_on_c, 7, 62, 0
1, 15166, Note_on_c, 8, 62, 0
1, 15166, Note_on_c, 8, 66, 0
1, 15166, Note_on_c, 8, 74, 0
1, 15168, Note_on_c, 9, 42, 66
1, 15168, Note_on_c, 3, 78, 109
1, 15168, Note_on_c, 8, 69, 1
1, 15168, Note_on_c, 3, 69, 105
1, 15168, Note_on_c, 7, 57, 74
1, 15168, Note_on_c, 9, 51, 53
1, 15168, Note_on_c, 3, 66, 110
1, 15168, Note_on_c, 2, 78, 1
1, 15168, Note_on_c, 8, 78, 1
1, 15168, Lyric_t, "kiss "
1, 15168, Note_on_c, 8, 66, 1
1, 15170, Note_on_c, 7, 66, 0
1, 15173, Note_on_c, 7, 62, 79
1, 15174, Note_on_c, 9, 51, 0
1, 15174, Note_on_c, 9, 42, 0
1, 15180, Note_on_c, 7, 66, 93
1, 15218, Note_on_c, 0, 38, 0
1, 15258, Note_on_c, 5, 45, 0
1, 15258, Note_on_c, 7, 62, 0
1, 15262, Note_on_c, 7, 57, 0
1, 15264, Note_on_c, 0, 38, 88
1, 15268, Note_on_c, 7, 62, 79
1, 15272, Note_on_c, 7, 57, 64
1, 15284, Note_on_c, 3, 66, 0
1, 15284, Note_on_c, 2, 78, 0
1, 15284, Note_on_c, 3, 69, 0
1, 15284, Note_on_c, 3, 78, 0
1, 15310, Note_on_c, 0, 38, 0
1, 15340, Note_on_c, 1, 62, 0
1, 15340, Note_on_c, 1, 66, 0
1, 15340, Note_on_c, 1, 50, 0
1, 15340, Note_on_c, 1, 57, 0
1, 15348, Note_on_c, 7, 62, 0
1, 15348, Note_on_c, 7, 57, 0
1, 15348, Note_on_c, 1, 61, 72
1, 15348, Note_on_c, 1, 64, 78
1, 15348, Note_on_c, 1, 52, 79
1, 15348, Note_on_c, 1, 57, 77
1, 15350, Note_on_c, 7, 66, 0
1, 15358, Note_on_c, 8, 78, 0
1, 15358, Note_on_c, 8, 66, 0
1, 15358, Note_on_c, 8, 69, 0
1, 15360, Lyric_t, "\015 "
1, 15360, Note_on_c, 9, 35, 119
1, 15360, Note_on_c, 9, 42, 81
1, 15360, Note_on_c, 3, 76, 111
1, 15360, Lyric_t, "es  "
1, 15360, Note_on_c, 3, 64, 116
1, 15360, Note_on_c, 7, 57, 78
1, 15360, Note_on_c, 8, 64, 1
1, 15360, Note_on_c, 8, 69, 1
1, 15360, Note_on_c, 8, 76, 1
1, 15360, Note_on_c, 3, 69, 110
1, 15360, Note_on_c, 2, 76, 1
1, 15360, Note_on_c, 0, 33, 107
1, 15360, Note_on_c, 5, 45, 95
1, 15360, Note_on_c, 9, 51, 52
1, 15365, Note_on_c, 7, 61, 89
1, 15366, Note_on_c, 9, 51, 0
1, 15366, Note_on_c, 9, 42, 0
1, 15366, Note_on_c, 9, 35, 0
1, 15370, Note_on_c, 5, 66, 0
1, 15370, Note_on_c, 5, 50, 0
1, 15370, Note_on_c, 5, 54, 0
1, 15372, Note_on_c, 7, 64, 98
1, 15542, Note_on_c, 7, 57, 0
1, 15544, Note_on_c, 5, 45, 0
1, 15548, Note_on_c, 7, 61, 0
1, 15552, Note_on_c, 9, 42, 68
1, 15552, Note_on_c, 7, 57, 72
1, 15552, Note_on_c, 9, 51, 54
1, 15552, Note_on_c, 5, 45, 94
1, 15554, Note_on_c, 7, 64, 0
1, 15557, Note_on_c, 7, 61, 85
1, 15558, Note_on_c, 9, 51, 0
1, 15558, Note_on_c, 9, 42, 0
1, 15564, Note_on_c, 7, 64, 94
1, 15638, Note_on_c, 3, 64, 0
1, 15638, Note_on_c, 8, 64, 0
1, 15648, Note_on_c, 3, 59, 97
1, 15648, Note_on_c, 8, 59, 1
1, 15734, Note_on_c, 8, 59, 0
1, 15734, Note_on_c, 3, 59, 0
1, 15734, Note_on_c, 7, 57, 0
1, 15740, Note_on_c, 7, 61, 0
1, 15744, Note_on_c, 9, 51, 58
1, 15744, Note_on_c, 5, 57, 93
1, 15744, Note_on_c, 3, 57, 112
1, 15744, Note_on_c, 9, 40, 93
1, 15744, Note_on_c, 5, 64, 98
1, 15744, Note_on_c, 5, 52, 92
1, 15744, Note_on_c, 9, 42, 83
1, 15744, Note_on_c, 8, 57, 1
1, 15744, Note_on_c, 7, 57, 89
1, 15746, Note_on_c, 7, 64, 0
1, 15749, Note_on_c, 7, 61, 93
1, 15750, Note_on_c, 9, 42, 0
1, 15750, Note_on_c, 9, 40, 0
1, 15750, Note_on_c, 9, 51, 0
1, 15756, Note_on_c, 7, 64, 101
1, 15926, Note_on_c, 7, 57, 0
1, 15932, Note_on_c, 7, 61, 0
1, 15936, Note_on_c, 9, 51, 55
1, 15936, Note_on_c, 9, 42, 62
1, 15936, Note_on_c, 7, 57, 69
1, 15938, Note_on_c, 7, 64, 0
1, 15941, Note_on_c, 7, 61, 80
1, 15942, Note_on_c, 9, 42, 0
1, 15942, Note_on_c, 9, 51, 0
1, 15948, Note_on_c, 7, 64, 88
1, 16004, Note_on_c, 0, 33, 0
1, 16026, Note_on_c, 7, 61, 0
1, 16026, Note_on_c, 5, 45, 0
1, 16030, Note_on_c, 7, 57, 0
1, 16032, Note_on_c, 9, 35, 86
1, 16032, Note_on_c, 0, 40, 102
1, 16036, Note_on_c, 7, 61, 76
1, 16038, Note_on_c, 9, 35, 0
1, 16040, Note_on_c, 7, 57, 67
1, 16092, Note_on_c, 0, 40, 0
1, 16110, Note_on_c, 5, 52, 0
1, 16114, Note_on_c, 7, 64, 0
1, 16116, Note_on_c, 7, 57, 0
1, 16124, Note_on_c, 7, 61, 0
1, 16128, Note_on_c, 5, 45, 91
1, 16128, Note_on_c, 0, 33, 98
1, 16128, Note_on_c, 9, 35, 114
1, 16128, Note_on_c, 9, 51, 53
1, 16128, Note_on_c, 7, 57, 82
1, 16128, Note_on_c, 9, 42, 83
1, 16133, Note_on_c, 7, 61, 92
1, 16134, Note_on_c, 9, 42, 0
1, 16134, Note_on_c, 9, 51, 0
1, 16134, Note_on_c, 9, 35, 0
1, 16140, Note_on_c, 7, 64, 97
1, 16184, Note_on_c, 5, 64, 0
1, 16184, Note_on_c, 5, 57, 0
1, 16214, Note_on_c, 7, 64, 0
1, 16218, Note_on_c, 7, 61, 0
1, 16222, Note_on_c, 7, 57, 0
1, 16224, Note_on_c, 7, 64, 81
1, 16228, Note_on_c, 7, 61, 72
1, 16232, Note_on_c, 7, 57, 61
1, 16248, Note_on_c, 0, 33, 0
1, 16310, Note_on_c, 7, 57, 0
1, 16312, Note_on_c, 5, 45, 0
1, 16316, Note_on_c, 7, 61, 0
1, 16320, Note_on_c, 9, 42, 62
1, 16320, Note_on_c, 7, 57, 62
1, 16320, Note_on_c, 5, 45, 83
1, 16320, Note_on_c, 9, 51, 50
1, 16320, Note_on_c, 9, 35, 99
1, 16320, Note_on_c, 0, 33, 101
1, 16322, Note_on_c, 7, 64, 0
1, 16325, Note_on_c, 7, 61, 76
1, 16326, Note_on_c, 9, 35, 0
1, 16326, Note_on_c, 9, 51, 0
1, 16326, Note_on_c, 9, 42, 0
1, 16332, Note_on_c, 7, 64, 85
1, 16406, Note_on_c, 7, 64, 0
1, 16410, Note_on_c, 7, 61, 0
1, 16414, Note_on_c, 7, 57, 0
1, 16416, Note_on_c, 7, 64, 84
1, 16420, Note_on_c, 7, 61, 77
1, 16424, Note_on_c, 7, 57, 70
1, 16502, Note_on_c, 8, 69, 0
1, 16502, Note_on_c, 3, 57, 0
1, 16502, Note_on_c, 2, 76, 0
1, 16502, Note_on_c, 3, 76, 0
1, 16502, Note_on_c, 3, 69, 0
1, 16502, Note_on_c, 8, 76, 0
1, 16504, Note_on_c, 7, 57, 0
1, 16504, Note_on_c, 7, 61, 0
1, 16510, Note_on_c, 7, 64, 0
1, 16512, Note_on_c, 5, 57, 96
1, 16512, Note_on_c, 5, 52, 96
1, 16512, Note_on_c, 9, 42, 85
1, 16512, Note_on_c, 5, 64, 101
1, 16512, Note_on_c, 7, 57, 85
1, 16512, Note_on_c, 9, 51, 55
1, 16512, Note_on_c, 9, 40, 92
1, 16517, Note_on_c, 7, 61, 95
1, 16518, Note_on_c, 9, 40, 0
1, 16518, Note_on_c, 9, 51, 0
1, 16518, Note_on_c, 9, 42, 0
1, 16524, Note_on_c, 7, 64, 101
1, 16580, Note_on_c, 0, 33, 0
1, 16608, Note_on_c, 0, 35, 99
1, 16694, Note_on_c, 7, 57, 0
1, 16696, Note_on_c, 5, 52, 0
1, 16696, Note_on_c, 5, 45, 0
1, 16700, Note_on_c, 7, 61, 0
1, 16704, Note_on_c, 5, 52, 68
1, 16704, Note_on_c, 9, 46, 63
1, 16704, Note_on_c, 7, 57, 76
1, 16704, Note_on_c, 9, 51, 59
1, 16704, Note_on_c, 5, 45, 72
1, 16706, Note_on_c, 7, 64, 0
1, 16709, Note_on_c, 7, 61, 81
1, 16710, Note_on_c, 9, 46, 0
1, 16710, Note_on_c, 9, 51, 0
1, 16716, Note_on_c, 7, 64, 91
1, 16770, Note_on_c, 5, 52, 0
1, 16770, Note_on_c, 5, 45, 0
1, 16794, Note_on_c, 7, 61, 0
1, 16798, Note_on_c, 7, 57, 0
1, 16800, Note_on_c, 5, 52, 70
1, 16800, Note_on_c, 5, 45, 67
1, 16804, Note_on_c, 7, 61, 74
1, 16808, Note_on_c, 7, 57, 64
1, 16866, Note_on_c, 5, 45, 0
1, 16866, Note_on_c, 5, 52, 0
1, 16874, Note_on_c, 0, 35, 0
1, 16876, Note_on_c, 1, 64, 0
1, 16876, Note_on_c, 1, 52, 0
1, 16876, Note_on_c, 1, 57, 0
1, 16876, Note_on_c, 1, 61, 0
1, 16884, Note_on_c, 7, 57, 0
1, 16884, Note_on_c, 7, 61, 0
1, 16884, Note_on_c, 1, 67, 78
1, 16884, Note_on_c, 1, 59, 80
1, 16884, Note_on_c, 1, 55, 72
1, 16884, Note_on_c, 1, 62, 73
1, 16886, Note_on_c, 7, 64, 0
1, 16888, Note_on_c, 5, 64, 0
1, 16888, Note_on_c, 5, 57, 0
1, 16894, Note_on_c, 8, 57, 0
1, 16896, Note_on_c, 7, 59, 86
1, 16896, Note_on_c, 2, 74, 1
1, 16896, Note_on_c, 8, 74, 1
1, 16896, Lyric_t, "got "
1, 16896, Note_on_c, 9, 49, 74
1, 16896, Note_on_c, 8, 67, 1
1, 16896, Note_on_c, 3, 62, 110
1, 16896, Note_on_c, 0, 31, 109
1, 16896, Note_on_c, 3, 67, 108
1, 16896, Note_on_c, 9, 42, 85
1, 16896, Note_on_c, 9, 35, 114
1, 16896, Note_on_c, 3, 74, 109
1, 16896, Note_on_c, 9, 51, 51
1, 16896, Note_on_c, 5, 43, 91
1, 16896, Note_on_c, 8, 62, 1
1, 16901, Note_on_c, 7, 62, 92
1, 16902, Note_on_c, 9, 51, 0
1, 16902, Note_on_c, 9, 35, 0
1, 16902, Note_on_c, 9, 42, 0
1, 16902, Note_on_c, 9, 49, 0
1, 16908, Note_on_c, 7, 67, 103
1, 16984, Note_on_c, 3, 62, 0
1, 16984, Note_on_c, 2, 74, 0
1, 16984, Note_on_c, 3, 67, 0
1, 16984, Note_on_c, 3, 74, 0
1, 16990, Note_on_c, 8, 67, 0
1, 16990, Note_on_c, 8, 62, 0
1, 16990, Note_on_c, 8, 74, 0
1, 16992, Note_on_c, 3, 73, 101
1, 16992, Note_on_c, 8, 67, 1
1, 16992, Note_on_c, 8, 61, 1
1, 16992, Lyric_t, "ta  "
1, 16992, Note_on_c, 8, 73, 1
1, 16992, Note_on_c, 3, 67, 98
1, 16992, Note_on_c, 2, 73, 1
1, 16992, Note_on_c, 3, 61, 106
1, 17070, Note_on_c, 3, 61, 0
1, 17070, Note_on_c, 2, 73, 0
1, 17070, Note_on_c, 3, 67, 0
1, 17070, Note_on_c, 3, 73, 0
1, 17078, Note_on_c, 7, 59, 0
1, 17080, Note_on_c, 5, 43, 0
1, 17084, Note_on_c, 7, 62, 0
1, 17086, Note_on_c, 8, 61, 0
1, 17086, Note_on_c, 8, 67, 0
1, 17086, Note_on_c, 8, 73, 0
1, 17088, Note_on_c, 3, 62, 99
1, 17088, Note_on_c, 8, 62, 1
1, 17088, Note_on_c, 9, 42, 68
1, 17088, Note_on_c, 9, 51, 55
1, 17088, Note_on_c, 8, 67, 1
1, 17088, Note_on_c, 2, 74, 1
1, 17088, Note_on_c, 3, 74, 99
1, 17088, Note_on_c, 8, 74, 1
1, 17088, Note_on_c, 7, 59, 72
1, 17088, Note_on_c, 5, 43, 87
1, 17088, Note_on_c, 3, 67, 107
1, 17088, Lyric_t, "find  "
1, 17090, Note_on_c, 7, 67, 0
1, 17093, Note_on_c, 7, 62, 81
1, 17094, Note_on_c, 9, 51, 0
1, 17094, Note_on_c, 9, 42, 0
1, 17100, Note_on_c, 7, 67, 92
1, 17176, Note_on_c, 3, 67, 0
1, 17176, Note_on_c, 3, 74, 0
1, 17176, Note_on_c, 2, 74, 0
1, 17176, Note_on_c, 3, 62, 0
1, 17182, Note_on_c, 8, 62, 0
1, 17182, Note_on_c, 8, 67, 0
1, 17182, Note_on_c, 8, 74, 0
1, 17184, Lyric_t, "my "
1, 17184, Note_on_c, 3, 61, 103
1, 17184, Note_on_c, 8, 73, 1
1, 17184, Note_on_c, 8, 67, 1
1, 17184, Note_on_c, 2, 73, 1
1, 17184, Note_on_c, 3, 73, 106
1, 17184, Note_on_c, 3, 67, 104
1, 17184, Note_on_c, 8, 61, 1
1, 17262, Note_on_c, 3, 67, 0
1, 17262, Note_on_c, 3, 73, 0
1, 17262, Note_on_c, 2, 73, 0
1, 17262, Note_on_c, 3, 61, 0
1, 17270, Note_on_c, 7, 59, 0
1, 17274, Note_on_c, 0, 31, 0
1, 17276, Note_on_c, 7, 62, 0
1, 17278, Note_on_c, 8, 61, 0
1, 17278, Note_on_c, 8, 73, 0
1, 17278, Note_on_c, 8, 67, 0
1, 17280, Note_on_c, 8, 67, 1
1, 17280, Note_on_c, 5, 55, 94
1, 17280, Note_on_c, 5, 50, 96
1, 17280, Note_on_c, 7, 59, 83
1, 17280, Note_on_c, 8, 62, 1
1, 17280, Note_on_c, 3, 74, 113
1, 17280, Note_on_c, 9, 42, 86
1, 17280, Note_on_c, 9, 51, 57
1, 17280, Note_on_c, 9, 40, 88
1, 17280, Note_on_c, 3, 62, 109
1, 17280, Note_on_c, 8, 74, 1
1, 17280, Note_on_c, 5, 67, 97
1, 17280, Note_on_c, 3, 67, 110
1, 17280, Lyric_t, "self  "
1, 17280, Lyric_t, "\015 "
1, 17280, Note_on_c, 2, 74, 1
1, 17282, Note_on_c, 7, 67, 0
1, 17285, Note_on_c, 7, 62, 99
1, 17286, Note_on_c, 9, 40, 0
1, 17286, Note_on_c, 9, 51, 0
1, 17286, Note_on_c, 9, 42, 0
1, 17292, Note_on_c, 7, 67, 102
1, 17376, Note_on_c, 0, 31, 89
1, 17410, Note_on_c, 0, 31, 0
1, 17454, Note_on_c, 2, 74, 0
1, 17454, Note_on_c, 3, 62, 0
1, 17454, Note_on_c, 3, 67, 0
1, 17454, Note_on_c, 3, 74, 0
1, 17462, Note_on_c, 7, 59, 0
1, 17464, Note_on_c, 5, 55, 0
1, 17464, Note_on_c, 5, 50, 0
1, 17468, Note_on_c, 7, 62, 0
1, 17472, Note_on_c, 3, 67, 106
1, 17472, Note_on_c, 9, 51, 59
1, 17472, Note_on_c, 9, 42, 67
1, 17472, Note_on_c, 3, 74, 110
1, 17472, Note_on_c, 5, 50, 63
1, 17472, Note_on_c, 3, 62, 113
1, 17472, Lyric_t, "ev "
1, 17472, Note_on_c, 5, 55, 67
1, 17472, Note_on_c, 2, 74, 1
1, 17472, Note_on_c, 0, 35, 80
1, 17472, Note_on_c, 7, 59, 68
1, 17474, Note_on_c, 7, 67, 0
1, 17477, Note_on_c, 7, 62, 82
1, 17478, Note_on_c, 9, 42, 0
1, 17478, Note_on_c, 9, 51, 0
1, 17484, Note_on_c, 7, 67, 87
1, 17538, Note_on_c, 0, 35, 0
1, 17554, Note_on_c, 5, 55, 0
1, 17554, Note_on_c, 5, 50, 0
1, 17560, Note_on_c, 3, 62, 0
1, 17560, Note_on_c, 3, 67, 0
1, 17560, Note_on_c, 2, 74, 0
1, 17560, Note_on_c, 3, 74, 0
1, 17562, Note_on_c, 7, 62, 0
1, 17562, Note_on_c, 5, 43, 0
1, 17566, Note_on_c, 8, 62, 0
1, 17566, Note_on_c, 8, 74, 0
1, 17566, Note_on_c, 7, 59, 0
1, 17566, Note_on_c, 8, 67, 0
1, 17568, Note_on_c, 8, 67, 1
1, 17568, Note_on_c, 8, 73, 1
1, 17568, Note_on_c, 0, 37, 81
1, 17568, Note_on_c, 8, 61, 1
1, 17568, Lyric_t, "ery "
1, 17568, Note_on_c, 5, 50, 60
1, 17568, Note_on_c, 5, 55, 63
1, 17568, Note_on_c, 3, 67, 98
1, 17568, Note_on_c, 2, 73, 1
1, 17568, Note_on_c, 3, 61, 98
1, 17568, Note_on_c, 3, 73, 104
1, 17568, Note_on_c, 9, 35, 89
1, 17572, Note_on_c, 7, 62, 79
1, 17574, Note_on_c, 9, 35, 0
1, 17576, Note_on_c, 7, 59, 71
1, 17634, Note_on_c, 0, 37, 0
1, 17644, Note_on_c, 1, 62, 0
1, 17644, Note_on_c, 1, 67, 0
1, 17644, Note_on_c, 1, 55, 0
1, 17644, Note_on_c, 1, 59, 0
1, 17650, Note_on_c, 5, 50, 0
1, 17650, Note_on_c, 5, 55, 0
1, 17650, Note_on_c, 7, 67, 0
1, 17652, Note_on_c, 7, 59, 0
1, 17652, Note_on_c, 1, 50, 77
1, 17652, Note_on_c, 1, 57, 73
1, 17652, Note_on_c, 1, 62, 73
1, 17652, Note_on_c, 1, 66, 75
1, 17656, Note_on_c, 3, 73, 0
1, 17656, Note_on_c, 2, 73, 0
1, 17656, Note_on_c, 3, 67, 0
1, 17656, Note_on_c, 3, 61, 0
1, 17660, Note_on_c, 7, 62, 0
1, 17662, Note_on_c, 8, 67, 0
1, 17662, Note_on_c, 8, 61, 0
1, 17662, Note_on_c, 8, 73, 0
1, 17664, Note_on_c, 8, 62, 1
1, 17664, Note_on_c, 5, 45, 87
1, 17664, Note_on_c, 7, 57, 83
1, 17664, Note_on_c, 8, 66, 1
1, 17664, Note_on_c, 2, 74, 1
1, 17664, Note_on_c, 9, 42, 86
1, 17664, Note_on_c, 5, 55, 86
1, 17664, Lyric_t, "time  "
1, 17664, Note_on_c, 9, 51, 56
1, 17664, Note_on_c, 3, 74, 109
1, 17664, Note_on_c, 8, 74, 1
1, 17664, Note_on_c, 3, 62, 112
1, 17664, Note_on_c, 3, 66, 110
1, 17664, Note_on_c, 0, 38, 98
1, 17664, Note_on_c, 9, 35, 111
1, 17669, Note_on_c, 7, 62, 86
1, 17670, Note_on_c, 9, 35, 0
1, 17670, Note_on_c, 9, 51, 0
1, 17670, Note_on_c, 9, 42, 0
1, 17676, Note_on_c, 7, 66, 96
1, 17720, Note_on_c, 5, 67, 0
1, 17750, Note_on_c, 7, 66, 0
1, 17754, Note_on_c, 7, 62, 0
1, 17754, Note_on_c, 5, 55, 0
1, 17758, Note_on_c, 7, 57, 0
1, 17760, Note_on_c, 7, 66, 83
1, 17760, Note_on_c, 5, 54, 69
1, 17764, Note_on_c, 7, 62, 70
1, 17768, Note_on_c, 7, 57, 61
1, 17788, Note_on_c, 0, 38, 0
1, 17838, Note_on_c, 3, 62, 0
1, 17838, Note_on_c, 3, 66, 0
1, 17838, Note_on_c, 2, 74, 0
1, 17838, Note_on_c, 3, 74, 0
1, 17846, Note_on_c, 7, 57, 0
1, 17848, Note_on_c, 5, 45, 0
1, 17848, Note_on_c, 5, 54, 0
1, 17852, Note_on_c, 7, 62, 0
1, 17854, Note_on_c, 8, 62, 0
1, 17854, Note_on_c, 8, 74, 0
1, 17854, Note_on_c, 8, 66, 0
1, 17856, Note_on_c, 3, 73, 98
1, 17856, Note_on_c, 2, 73, 1
1, 17856, Note_on_c, 3, 64, 102
1, 17856, Note_on_c, 7, 57, 67
1, 17856, Note_on_c, 8, 73, 1
1, 17856, Note_on_c, 5, 54, 87
1, 17856, Note_on_c, 5, 45, 79
1, 17856, Lyric_t, "you  "
1, 17856, Note_on_c, 3, 61, 102
1, 17856, Note_on_c, 9, 42, 62
1, 17856, Note_on_c, 9, 51, 58
1, 17856, Note_on_c, 8, 61, 1
1, 17856, Note_on_c, 8, 64, 1
1, 17856, Note_on_c, 9, 35, 99
1, 17856, Note_on_c, 0, 38, 98
1, 17858, Note_on_c, 7, 66, 0
1, 17861, Note_on_c, 7, 62, 75
1, 17862, Note_on_c, 9, 35, 0
1, 17862, Note_on_c, 9, 51, 0
1, 17862, Note_on_c, 9, 42, 0
1, 17868, Note_on_c, 7, 66, 83
1, 17942, Note_on_c, 7, 66, 0
1, 17944, Note_on_c, 3, 64, 0
1, 17944, Note_on_c, 2, 73, 0
1, 17944, Note_on_c, 3, 73, 0
1, 17944, Note_on_c, 3, 61, 0
1, 17946, Note_on_c, 7, 62, 0
1, 17950, Note_on_c, 7, 57, 0
1, 17950, Note_on_c, 8, 61, 0
1, 17950, Note_on_c, 8, 73, 0
1, 17950, Note_on_c, 8, 64, 0
1, 17952, Note_on_c, 8, 66, 1
1, 17952, Note_on_c, 3, 66, 109
1, 17952, Note_on_c, 3, 62, 105
1, 17952, Note_on_c, 2, 74, 1
1, 17952, Note_on_c, 8, 74, 1
1, 17952, Note_on_c, 8, 62, 1
1, 17952, Note_on_c, 3, 74, 111
1, 17952, Note_on_c, 7, 66, 88
1, 17952, Lyric_t, "go  "
1, 17956, Note_on_c, 7, 62, 77
1, 17960, Note_on_c, 7, 57, 71
1, 18040, Note_on_c, 7, 57, 0
1, 18040, Note_on_c, 7, 62, 0
1, 18040, Note_on_c, 5, 54, 0
1, 18046, Note_on_c, 7, 66, 0
1, 18048, Note_on_c, 7, 57, 87
1, 18048, Note_on_c, 5, 66, 96
1, 18048, Note_on_c, 5, 54, 98
1, 18048, Note_on_c, 5, 50, 97
1, 18048, Note_on_c, 9, 42, 85
1, 18048, Note_on_c, 9, 51, 53
1, 18048, Note_on_c, 9, 40, 92
1, 18053, Note_on_c, 7, 62, 89
1, 18054, Note_on_c, 9, 40, 0
1, 18054, Note_on_c, 9, 51, 0
1, 18054, Note_on_c, 9, 42, 0
1, 18060, Note_on_c, 7, 66, 102
1, 18126, Note_on_c, 2, 74, 0
1, 18126, Note_on_c, 3, 62, 0
1, 18126, Note_on_c, 3, 66, 0
1, 18126, Note_on_c, 3, 74, 0
1, 18142, Note_on_c, 8, 66, 0
1, 18142, Note_on_c, 8, 74, 0
1, 18142, Note_on_c, 8, 62, 0
1, 18144, Note_on_c, 3, 69, 113
1, 18144, Note_on_c, 8, 69, 1
1, 18144, Note_on_c, 3, 64, 105
1, 18144, Lyric_t, "a "
1, 18144, Note_on_c, 3, 76, 113
1, 18144, Note_on_c, 2, 76, 1
1, 18144, Note_on_c, 8, 76, 1
1, 18144, Note_on_c, 8, 64, 1
1, 18230, Note_on_c, 7, 57, 0
1, 18232, Note_on_c, 2, 76, 0
1, 18232, Note_on_c, 3, 76, 0
1, 18232, Note_on_c, 3, 64, 0
1, 18232, Note_on_c, 3, 69, 0
1, 18236, Note_on_c, 7, 62, 0
1, 18240, Lyric_t, "\015 "
1, 18240, Note_on_c, 2, 76, 1
1, 18240, Note_on_c, 3, 64, 108
1, 18240, Note_on_c, 7, 57, 75
1, 18240, Lyric_t, "way.  "
1, 18240, Note_on_c, 9, 42, 65
1, 18240, Note_on_c, 9, 51, 53
1, 18240, Note_on_c, 3, 76, 110
1, 18240, Note_on_c, 3, 69, 106
1, 18242, Note_on_c, 7, 66, 0
1, 18245, Note_on_c, 7, 62, 77
1, 18246, Note_on_c, 9, 51, 0
1, 18246, Note_on_c, 9, 42, 0
1, 18252, Note_on_c, 7, 66, 87
1, 18290, Note_on_c, 0, 38, 0
1, 18330, Note_on_c, 7, 62, 0
1, 18330, Note_on_c, 5, 45, 0
1, 18334, Note_on_c, 7, 57, 0
1, 18336, Note_on_c, 0, 38, 90
1, 18340, Note_on_c, 7, 62, 71
1, 18344, Note_on_c, 7, 57, 62
1, 18382, Note_on_c, 0, 38, 0
1, 18412, Note_on_c, 1, 57, 0
1, 18412, Note_on_c, 1, 62, 0
1, 18412, Note_on_c, 1, 66, 0
1, 18412, Note_on_c, 1, 50, 0
1, 18420, Note_on_c, 7, 62, 0
1, 18420, Note_on_c, 7, 57, 0
1, 18420, Note_on_c, 1, 57, 78
1, 18420, Note_on_c, 1, 61, 73
1, 18420, Note_on_c, 1, 64, 80
1, 18420, Note_on_c, 1, 52, 80
1, 18422, Note_on_c, 7, 66, 0
1, 18432, Note_on_c, 9, 51, 55
1, 18432, Note_on_c, 5, 45, 96
1, 18432, Note_on_c, 9, 42, 84
1, 18432, Note_on_c, 7, 57, 83
1, 18432, Note_on_c, 0, 33, 106
1, 18432, Note_on_c, 9, 35, 120
1, 18437, Note_on_c, 7, 61, 90
1, 18438, Note_on_c, 9, 35, 0
1, 18438, Note_on_c, 9, 42, 0
1, 18438, Note_on_c, 9, 51, 0
1, 18442, Note_on_c, 5, 54, 0
1, 18442, Note_on_c, 5, 50, 0
1, 18442, Note_on_c, 5, 66, 0
1, 18444, Note_on_c, 7, 64, 96
1, 18614, Note_on_c, 7, 57, 0
1, 18616, Note_on_c, 5, 45, 0
1, 18620, Note_on_c, 7, 61, 0
1, 18624, Note_on_c, 9, 51, 57
1, 18624, Note_on_c, 7, 57, 77
1, 18624, Note_on_c, 9, 42, 65
1, 18624, Note_on_c, 5, 45, 92
1, 18626, Note_on_c, 7, 64, 0
1, 18629, Note_on_c, 7, 61, 82
1, 18630, Note_on_c, 9, 42, 0
1, 18630, Note_on_c, 9, 51, 0
1, 18636, Note_on_c, 7, 64, 91
1, 18806, Note_on_c, 7, 57, 0
1, 18812, Note_on_c, 7, 61, 0
1, 18816, Note_on_c, 9, 40, 95
1, 18816, Note_on_c, 5, 57, 96
1, 18816, Note_on_c, 7, 57, 89
1, 18816, Note_on_c, 9, 51, 51
1, 18816, Note_on_c, 5, 52, 90
1, 18816, Note_on_c, 9, 42, 84
1, 18816, Note_on_c, 5, 64, 96
1, 18818, Note_on_c, 7, 64, 0
1, 18821, Note_on_c, 7, 61, 91
1, 18822, Note_on_c, 9, 42, 0
1, 18822, Note_on_c, 9, 51, 0
1, 18822, Note_on_c, 9, 40, 0
1, 18828, Note_on_c, 7, 64, 102
1, 18998, Note_on_c, 7, 57, 0
1, 19004, Note_on_c, 7, 61, 0
1, 19008, Note_on_c, 7, 57, 73
1, 19008, Note_on_c, 9, 51, 56
1, 19008, Note_on_c, 9, 42, 68
1, 19010, Note_on_c, 7, 64, 0
1, 19013, Note_on_c, 7, 61, 79
1, 19014, Note_on_c, 9, 42, 0
1, 19014, Note_on_c, 9, 51, 0
1, 19020, Note_on_c, 7, 64, 87
1, 19076, Note_on_c, 0, 33, 0
1, 19098, Note_on_c, 5, 45, 0
1, 19098, Note_on_c, 7, 61, 0
1, 19102, Note_on_c, 7, 57, 0
1, 19104, Note_on_c, 9, 35, 85
1, 19104, Note_on_c, 0, 33, 102
1, 19108, Note_on_c, 7, 61, 76
1, 19110, Note_on_c, 9, 35, 0
1, 19112, Note_on_c, 7, 57, 66
1, 19164, Note_on_c, 0, 33, 0
1, 19182, Note_on_c, 5, 52, 0
1, 19186, Note_on_c, 7, 64, 0
1, 19188, Note_on_c, 7, 57, 0
1, 19196, Note_on_c, 7, 61, 0
1, 19200, Note_on_c, 9, 35, 112
1, 19200, Note_on_c, 5, 45, 86
1, 19200, Note_on_c, 0, 33, 105
1, 19200, Note_on_c, 7, 57, 85
1, 19200, Note_on_c, 9, 51, 57
1, 19200, Note_on_c, 9, 42, 86
1, 19205, Note_on_c, 7, 61, 87
1, 19206, Note_on_c, 9, 42, 0
1, 19206, Note_on_c, 9, 51, 0
1, 19206, Note_on_c, 9, 35, 0
1, 19212, Note_on_c, 7, 69, 88
1, 19212, Note_on_c, 7, 64, 98
1, 19256, Note_on_c, 5, 64, 0
1, 19256, Note_on_c, 5, 57, 0
1, 19286, Note_on_c, 7, 64, 0
1, 19290, Note_on_c, 7, 61, 0
1, 19294, Note_on_c, 7, 57, 0
1, 19296, Note_on_c, 7, 64, 78
1, 19300, Note_on_c, 7, 61, 73
1, 19304, Note_on_c, 7, 57, 65
1, 19320, Note_on_c, 0, 33, 0
1, 19382, Note_on_c, 7, 57, 0
1, 19384, Note_on_c, 5, 45, 0
1, 19388, Note_on_c, 7, 61, 0
1, 19392, Note_on_c, 9, 51, 52
1, 19392, Note_on_c, 0, 33, 101
1, 19392, Note_on_c, 7, 57, 67
1, 19392, Note_on_c, 9, 35, 101
1, 19392, Note_on_c, 9, 46, 61
1, 19392, Note_on_c, 5, 45, 81
1, 19394, Note_on_c, 7, 64, 0
1, 19397, Note_on_c, 7, 61, 74
1, 19398, Note_on_c, 9, 46, 0
1, 19398, Note_on_c, 9, 35, 0
1, 19398, Note_on_c, 9, 51, 0
1, 19404, Note_on_c, 7, 64, 84
1, 19478, Note_on_c, 7, 64, 0
1, 19480, Note_on_c, 7, 69, 0
1, 19482, Note_on_c, 7, 61, 0
1, 19486, Note_on_c, 7, 57, 0
1, 19488, Note_on_c, 7, 64, 101
1, 19488, Note_on_c, 7, 69, 85
1, 19492, Note_on_c, 7, 61, 94
1, 19496, Note_on_c, 7, 57, 86
1, 19584, Note_on_c, 9, 51, 56
1, 19584, Note_on_c, 9, 42, 84
1, 19584, Note_on_c, 9, 57, 70
1, 19584, Note_on_c, 5, 52, 93
1, 19584, Note_on_c, 9, 40, 93
1, 19584, Note_on_c, 5, 64, 98
1, 19584, Note_on_c, 5, 57, 98
1, 19590, Note_on_c, 9, 40, 0
1, 19590, Note_on_c, 9, 57, 0
1, 19590, Note_on_c, 9, 42, 0
1, 19590, Note_on_c, 9, 51, 0
1, 19600, Note_on_c, 3, 64, 0
1, 19600, Note_on_c, 2, 76, 0
1, 19600, Note_on_c, 3, 69, 0
1, 19600, Note_on_c, 3, 76, 0
1, 19652, Note_on_c, 0, 33, 0
1, 19670, Note_on_c, 7, 64, 0
1, 19674, Note_on_c, 7, 61, 0
1, 19678, Note_on_c, 7, 57, 0
1, 19680, Note_on_c, 7, 64, 69
1, 19680, Note_on_c, 0, 33, 100
1, 19684, Note_on_c, 7, 61, 67
1, 19688, Note_on_c, 7, 57, 54
1, 19766, Note_on_c, 7, 57, 0
1, 19768, Note_on_c, 5, 45, 0
1, 19768, Note_on_c, 5, 52, 0
1, 19772, Note_on_c, 7, 61, 0
1, 19776, Note_on_c, 5, 52, 66
1, 19776, Note_on_c, 9, 45, 69
1, 19776, Note_on_c, 9, 40, 65
1, 19776, Note_on_c, 5, 45, 68
1, 19776, Note_on_c, 9, 51, 57
1, 19776, Note_on_c, 7, 57, 70
1, 19776, Note_on_c, 9, 46, 64
1, 19778, Note_on_c, 7, 64, 0
1, 19780, Note_on_c, 7, 69, 0
1, 19781, Note_on_c, 7, 61, 81
1, 19782, Note_on_c, 9, 46, 0
1, 19782, Note_on_c, 9, 51, 0
1, 19782, Note_on_c, 9, 40, 0
1, 19782, Note_on_c, 9, 45, 0
1, 19788, Note_on_c, 7, 69, 79
1, 19788, Note_on_c, 7, 64, 92
1, 19842, Note_on_c, 5, 45, 0
1, 19842, Note_on_c, 5, 52, 0
1, 19870, Note_on_c, 7, 57, 0
1, 19872, Note_on_c, 5, 45, 66
1, 19872, Note_on_c, 9, 45, 60
1, 19872, Note_on_c, 5, 52, 64
1, 19878, Note_on_c, 9, 45, 0
1, 19880, Note_on_c, 7, 57, 58
1, 19938, Note_on_c, 5, 52, 0
1, 19938, Note_on_c, 5, 45, 0
1, 19946, Note_on_c, 0, 33, 0
1, 19948, Note_on_c, 1, 61, 0
1, 19948, Note_on_c, 1, 64, 0
1, 19948, Note_on_c, 1, 52, 0
1, 19948, Note_on_c, 1, 57, 0
1, 19956, Note_on_c, 7, 57, 0
1, 19956, Note_on_c, 1, 67, 49
1, 19956, Note_on_c, 1, 62, 47
1, 19956, Note_on_c, 1, 59, 50
1, 19958, Note_on_c, 7, 61, 0
1, 19958, Note_on_c, 7, 69, 0
1, 19958, Note_on_c, 7, 64, 0
1, 19960, Note_on_c, 5, 64, 0
1, 19960, Note_on_c, 5, 57, 0
1, 19966, Note_on_c, 8, 76, 0
1, 19966, Note_on_c, 8, 64, 0
1, 19966, Note_on_c, 8, 69, 0
1, 19968, Note_on_c, 9, 35, 116
1, 19968, Note_on_c, 9, 49, 68
1, 19968, Note_on_c, 0, 31, 96
1, 19968, Note_on_c, 7, 59, 68
1, 19968, Note_on_c, 9, 42, 58
1, 19971, Lyric_t, "Bag "
1, 19973, Note_on_c, 7, 62, 82
1, 19973, Note_on_c, 2, 71, 113
1, 19974, Note_on_c, 9, 42, 0
1, 19974, Note_on_c, 9, 49, 0
1, 19974, Note_on_c, 9, 35, 0
1, 19980, Note_on_c, 7, 67, 89
1, 20048, Note_on_c, 2, 71, 0
1, 20064, Note_on_c, 9, 42, 29
1, 20070, Note_on_c, 9, 42, 0
1, 20070, Lyric_t, "gy  "
1, 20072, Note_on_c, 2, 71, 111
1, 20148, Note_on_c, 2, 71, 0
1, 20150, Note_on_c, 7, 59, 0
1, 20156, Note_on_c, 7, 62, 0
1, 20160, Note_on_c, 9, 42, 58
1, 20160, Note_on_c, 7, 59, 65
1, 20162, Note_on_c, 7, 67, 0
1, 20163, Lyric_t, "blue  "
1, 20164, Note_on_c, 2, 71, 109
1, 20165, Note_on_c, 7, 62, 71
1, 20166, Note_on_c, 9, 42, 0
1, 20172, Note_on_c, 7, 67, 76
1, 20256, Note_on_c, 9, 42, 30
1, 20262, Note_on_c, 9, 42, 0
1, 20320, Note_on_c, 2, 71, 0
1, 20342, Note_on_c, 7, 59, 0
1, 20348, Note_on_c, 7, 62, 0
1, 20352, Note_on_c, 9, 37, 109
1, 20352, Note_on_c, 9, 42, 64
1, 20352, Note_on_c, 7, 59, 74
1, 20354, Note_on_c, 7, 67, 0
1, 20355, Lyric_t, "\015 "
1, 20355, Lyric_t, "jeans  "
1, 20356, Note_on_c, 2, 71, 106
1, 20357, Note_on_c, 7, 62, 81
1, 20358, Note_on_c, 9, 42, 0
1, 20358, Note_on_c, 9, 37, 0
1, 20364, Note_on_c, 7, 67, 93
1, 20448, Note_on_c, 9, 42, 29
1, 20454, Note_on_c, 9, 42, 0
1, 20512, Note_on_c, 2, 71, 0
1, 20534, Note_on_c, 7, 59, 0
1, 20540, Note_on_c, 7, 62, 0
1, 20544, Note_on_c, 7, 59, 60
1, 20544, Note_on_c, 9, 42, 56
1, 20546, Note_on_c, 7, 67, 0
1, 20549, Note_on_c, 7, 62, 71
1, 20550, Note_on_c, 9, 42, 0
1, 20553, Lyric_t, "and  "
1, 20553, Note_on_c, 2, 71, 111
1, 20556, Note_on_c, 7, 67, 78
1, 20612, Note_on_c, 0, 31, 0
1, 20634, Note_on_c, 7, 62, 0
1, 20638, Note_on_c, 7, 59, 0
1, 20640, Note_on_c, 0, 31, 70
1, 20640, Note_on_c, 9, 35, 96
1, 20640, Note_on_c, 9, 42, 38
1, 20642, Note_on_c, 2, 71, 0
1, 20644, Note_on_c, 7, 62, 64
1, 20646, Note_on_c, 9, 42, 0
1, 20646, Note_on_c, 9, 35, 0
1, 20648, Note_on_c, 7, 59, 59
1, 20649, Lyric_t, "a  "
1, 20649, Note_on_c, 2, 73, 108
1, 20674, Note_on_c, 0, 31, 0
1, 20716, Note_on_c, 1, 59, 0
1, 20716, Note_on_c, 1, 62, 0
1, 20716, Note_on_c, 1, 67, 0
1, 20722, Note_on_c, 7, 67, 0
1, 20724, Note_on_c, 7, 59, 0
1, 20724, Note_on_c, 1, 62, 48
1, 20724, Note_on_c, 1, 66, 43
1, 20724, Note_on_c, 1, 57, 51
1, 20732, Note_on_c, 7, 62, 0
1, 20736, Note_on_c, 9, 42, 57
1, 20736, Note_on_c, 9, 35, 107
1, 20736, Note_on_c, 0, 38, 90
1, 20736, Note_on_c, 7, 57, 76
1, 20738, Note_on_c, 2, 73, 0
1, 20741, Note_on_c, 7, 62, 80
1, 20742, Note_on_c, 9, 42, 0
1, 20742, Note_on_c, 9, 35, 0
1, 20745, Lyric_t, "box  "
1, 20745, Note_on_c, 2, 71, 110
1, 20748, Note_on_c, 7, 66, 90
1, 20822, Note_on_c, 7, 66, 0
1, 20826, Note_on_c, 7, 62, 0
1, 20830, Note_on_c, 7, 57, 0
1, 20832, Note_on_c, 9, 42, 36
1, 20832, Note_on_c, 7, 66, 67
1, 20834, Note_on_c, 2, 71, 0
1, 20836, Note_on_c, 7, 62, 62
1, 20838, Note_on_c, 9, 42, 0
1, 20840, Note_on_c, 7, 57, 54
1, 20841, Note_on_c, 2, 69, 107
1, 20841, Lyric_t, "of  "
1, 20894, Note_on_c, 2, 69, 0
1, 20918, Note_on_c, 7, 57, 0
1, 20924, Note_on_c, 7, 62, 0
1, 20928, Note_on_c, 7, 57, 59
1, 20928, Note_on_c, 9, 42, 61
1, 20930, Note_on_c, 7, 66, 0
1, 20931, Lyric_t, "ma "
1, 20933, Note_on_c, 7, 62, 67
1, 20933, Note_on_c, 2, 69, 101
1, 20934, Note_on_c, 9, 42, 0
1, 20940, Note_on_c, 7, 66, 75
1, 21014, Note_on_c, 7, 66, 0
1, 21018, Note_on_c, 7, 62, 0
1, 21022, Note_on_c, 7, 57, 0
1, 21024, Note_on_c, 9, 42, 28
1, 21024, Note_on_c, 7, 66, 80
1, 21028, Note_on_c, 7, 62, 68
1, 21030, Note_on_c, 9, 42, 0
1, 21030, Note_on_c, 2, 69, 0
1, 21032, Note_on_c, 7, 57, 58
1, 21036, Lyric_t, "ga "
1, 21037, Note_on_c, 2, 66, 104
1, 21098, Note_on_c, 2, 66, 0
1, 21112, Note_on_c, 7, 57, 0
1, 21112, Note_on_c, 7, 62, 0
1, 21118, Note_on_c, 7, 66, 0
1, 21120, Note_on_c, 9, 37, 101
1, 21120, Note_on_c, 7, 57, 70
1, 21120, Note_on_c, 9, 42, 57
1, 21125, Note_on_c, 7, 62, 81
1, 21126, Note_on_c, 9, 42, 0
1, 21126, Note_on_c, 9, 37, 0
1, 21129, Note_on_c, 2, 69, 112
1, 21129, Lyric_t, "zines  "
1, 21129, Lyric_t, "\015 "
1, 21132, Note_on_c, 7, 66, 94
1, 21216, Note_on_c, 9, 42, 34
1, 21222, Note_on_c, 9, 42, 0
1, 21302, Note_on_c, 7, 57, 0
1, 21308, Note_on_c, 7, 62, 0
1, 21312, Note_on_c, 7, 57, 63
1, 21312, Note_on_c, 9, 42, 57
1, 21314, Note_on_c, 7, 66, 0
1, 21317, Note_on_c, 7, 62, 74
1, 21318, Note_on_c, 9, 42, 0
1, 21324, Note_on_c, 2, 69, 0
1, 21324, Note_on_c, 7, 66, 82
1, 21396, Note_on_c, 0, 38, 0
1, 21402, Note_on_c, 7, 62, 0
1, 21406, Note_on_c, 7, 57, 0
1, 21408, Note_on_c, 9, 42, 40
1, 21408, Note_on_c, 0, 30, 87
1, 21412, Note_on_c, 7, 62, 60
1, 21414, Note_on_c, 9, 42, 0
1, 21416, Note_on_c, 7, 57, 52
1, 21420, Lyric_t, "is  "
1, 21421, Note_on_c, 2, 66, 107
1, 21454, Note_on_c, 0, 30, 0
1, 21484, Note_on_c, 1, 57, 0
1, 21484, Note_on_c, 1, 62, 0
1, 21484, Note_on_c, 1, 66, 0
1, 21492, Note_on_c, 7, 57, 0
1, 21492, Note_on_c, 7, 62, 0
1, 21492, Note_on_c, 1, 61, 51
1, 21492, Note_on_c, 1, 57, 50
1, 21492, Note_on_c, 1, 64, 45
1, 21494, Note_on_c, 7, 66, 0
1, 21500, Note_on_c, 2, 66, 0
1, 21504, Note_on_c, 9, 42, 63
1, 21504, Note_on_c, 9, 35, 116
1, 21504, Note_on_c, 0, 33, 99
1, 21504, Note_on_c, 7, 57, 73
1, 21509, Note_on_c, 7, 61, 77
1, 21510, Note_on_c, 9, 35, 0
1, 21510, Note_on_c, 9, 42, 0
1, 21513, Note_on_c, 2, 69, 109
1, 21513, Lyric_t, "all  "
1, 21516, Note_on_c, 7, 64, 92
1, 21600, Note_on_c, 9, 42, 35
1, 21606, Note_on_c, 9, 42, 0
1, 21682, Note_on_c, 2, 69, 0
1, 21686, Note_on_c, 7, 57, 0
1, 21692, Note_on_c, 7, 61, 0
1, 21696, Lyric_t, "I  "
1, 21696, Note_on_c, 7, 57, 61
1, 21696, Note_on_c, 2, 66, 100
1, 21696, Note_on_c, 9, 42, 61
1, 21698, Note_on_c, 7, 64, 0
1, 21701, Note_on_c, 7, 61, 75
1, 21702, Note_on_c, 9, 42, 0
1, 21708, Note_on_c, 7, 64, 76
1, 21768, Note_on_c, 2, 66, 0
1, 21788, Lyric_t, "have  "
1, 21789, Note_on_c, 2, 69, 111
1, 21792, Note_on_c, 9, 42, 26
1, 21798, Note_on_c, 9, 42, 0
1, 21878, Note_on_c, 7, 57, 0
1, 21884, Note_on_c, 7, 61, 0
1, 21888, Note_on_c, 9, 37, 106
1, 21888, Note_on_c, 9, 42, 59
1, 21888, Note_on_c, 7, 57, 72
1, 21890, Note_on_c, 7, 64, 0
1, 21893, Note_on_c, 7, 61, 84
1, 21894, Note_on_c, 9, 42, 0
1, 21894, Note_on_c, 9, 37, 0
1, 21900, Note_on_c, 7, 64, 89
1, 21976, Note_on_c, 2, 69, 0
1, 21984, Lyric_t, "of  "
1, 21984, Note_on_c, 9, 42, 36
1, 21984, Note_on_c, 2, 71, 102
1, 21990, Note_on_c, 9, 42, 0
1, 22056, Note_on_c, 2, 71, 0
1, 22070, Note_on_c, 7, 57, 0
1, 22076, Note_on_c, 7, 61, 0
1, 22080, Note_on_c, 7, 57, 59
1, 22080, Lyric_t, "you.  "
1, 22080, Lyric_t, "\015 "
1, 22080, Note_on_c, 9, 42, 55
1, 22081, Note_on_c, 2, 73, 110
1, 22082, Note_on_c, 7, 64, 0
1, 22085, Note_on_c, 7, 61, 71
1, 22086, Note_on_c, 9, 42, 0
1, 22092, Note_on_c, 7, 64, 78
1, 22148, Note_on_c, 0, 33, 0
1, 22170, Note_on_c, 7, 61, 0
1, 22170, Note_on_c, 2, 73, 0
1, 22174, Note_on_c, 7, 57, 0
1, 22176, Note_on_c, 0, 40, 85
1, 22176, Note_on_c, 9, 37, 106
1, 22176, Note_on_c, 9, 42, 39
1, 22177, Note_on_c, 2, 69, 106
1, 22180, Note_on_c, 7, 61, 63
1, 22182, Note_on_c, 9, 42, 0
1, 22182, Note_on_c, 9, 37, 0
1, 22184, Note_on_c, 7, 57, 56
1, 22216, Note_on_c, 0, 40, 0
1, 22258, Note_on_c, 7, 64, 0
1, 22260, Note_on_c, 7, 57, 0
1, 22264, Note_on_c, 2, 69, 0
1, 22268, Note_on_c, 7, 61, 0
1, 22272, Note_on_c, 7, 57, 73
1, 22272, Note_on_c, 9, 42, 58
1, 22272, Note_on_c, 9, 35, 109
1, 22272, Note_on_c, 0, 45, 86
1, 22272, Note_on_c, 2, 71, 107
1, 22277, Note_on_c, 7, 61, 76
1, 22278, Note_on_c, 9, 35, 0
1, 22278, Note_on_c, 9, 42, 0
1, 22284, Note_on_c, 7, 64, 90
1, 22358, Note_on_c, 7, 64, 0
1, 22360, Note_on_c, 0, 45, 0
1, 22362, Note_on_c, 7, 61, 0
1, 22366, Note_on_c, 7, 57, 0
1, 22368, Note_on_c, 7, 64, 68
1, 22368, Note_on_c, 9, 42, 32
1, 22368, Note_on_c, 0, 47, 78
1, 22372, Note_on_c, 7, 61, 59
1, 22374, Note_on_c, 9, 42, 0
1, 22376, Note_on_c, 7, 57, 50
1, 22454, Note_on_c, 7, 57, 0
1, 22456, Note_on_c, 0, 47, 0
1, 22460, Note_on_c, 7, 61, 0
1, 22464, Note_on_c, 0, 45, 83
1, 22464, Note_on_c, 9, 46, 64
1, 22464, Note_on_c, 7, 57, 56
1, 22466, Note_on_c, 7, 64, 0
1, 22469, Note_on_c, 7, 61, 66
1, 22470, Note_on_c, 9, 46, 0
1, 22476, Note_on_c, 7, 64, 72
1, 22550, Note_on_c, 7, 64, 0
1, 22554, Note_on_c, 7, 61, 0
1, 22558, Note_on_c, 7, 57, 0
1, 22560, Note_on_c, 7, 64, 79
1, 22564, Note_on_c, 7, 61, 66
1, 22568, Note_on_c, 7, 57, 57
1, 22632, Note_on_c, 2, 71, 0
1, 22644, Note_on_c, 0, 45, 0
1, 22648, Note_on_c, 7, 57, 0
1, 22648, Note_on_c, 7, 61, 0
1, 22654, Note_on_c, 7, 64, 0
1, 22656, Note_on_c, 7, 57, 73
1, 22656, Note_on_c, 0, 40, 87
1, 22656, Note_on_c, 9, 42, 57
1, 22656, Note_on_c, 9, 37, 104
1, 22661, Note_on_c, 7, 61, 83
1, 22662, Note_on_c, 9, 37, 0
1, 22662, Note_on_c, 9, 42, 0
1, 22668, Note_on_c, 7, 64, 95
1, 22744, Note_on_c, 0, 40, 0
1, 22752, Note_on_c, 0, 42, 75
1, 22752, Note_on_c, 9, 42, 35
1, 22758, Note_on_c, 9, 42, 0
1, 22838, Note_on_c, 7, 57, 0
1, 22840, Note_on_c, 0, 42, 0
1, 22844, Note_on_c, 7, 61, 0
1, 22848, Note_on_c, 0, 40, 86
1, 22848, Note_on_c, 9, 42, 58
1, 22848, Note_on_c, 7, 57, 62
1, 22850, Note_on_c, 7, 64, 0
1, 22853, Note_on_c, 7, 61, 70
1, 22854, Note_on_c, 9, 42, 0
1, 22860, Note_on_c, 7, 64, 77
1, 22938, Note_on_c, 7, 61, 0
1, 22942, Note_on_c, 7, 57, 0
1, 22944, Note_on_c, 9, 42, 35
1, 22948, Note_on_c, 7, 61, 62
1, 22950, Note_on_c, 9, 42, 0
1, 22952, Note_on_c, 7, 57, 57
1, 23020, Note_on_c, 1, 64, 0
1, 23020, Note_on_c, 1, 57, 0
1, 23020, Note_on_c, 1, 61, 0
1, 23028, Note_on_c, 0, 40, 0
1, 23028, Note_on_c, 7, 61, 0
1, 23028, Note_on_c, 7, 57, 0
1, 23028, Note_on_c, 1, 59, 46
1, 23028, Note_on_c, 1, 67, 45
1, 23028, Note_on_c, 1, 62, 46
1, 23030, Note_on_c, 7, 64, 0
1, 23040, Note_on_c, 9, 35, 108
1, 23040, Note_on_c, 7, 59, 73
1, 23040, Note_on_c, 9, 42, 63
1, 23040, Note_on_c, 0, 31, 102
1, 23043, Lyric_t, "Wait "
1, 23045, Note_on_c, 2, 71, 110
1, 23045, Note_on_c, 7, 62, 79
1, 23046, Note_on_c, 9, 42, 0
1, 23046, Note_on_c, 9, 35, 0
1, 23052, Note_on_c, 7, 67, 90
1, 23136, Note_on_c, 9, 42, 36
1, 23142, Note_on_c, 9, 42, 0
1, 23168, Lyric_t, "ing  "
1, 23198, Note_on_c, 2, 71, 0
1, 23222, Note_on_c, 7, 59, 0
1, 23228, Note_on_c, 7, 62, 0
1, 23232, Note_on_c, 9, 42, 61
1, 23232, Note_on_c, 7, 59, 67
1, 23234, Note_on_c, 7, 67, 0
1, 23235, Lyric_t, "on  "
1, 23236, Note_on_c, 2, 71, 103
1, 23237, Note_on_c, 7, 62, 69
1, 23238, Note_on_c, 9, 42, 0
1, 23244, Note_on_c, 7, 67, 79
1, 23318, Note_on_c, 2, 71, 0
1, 23328, Note_on_c, 9, 42, 29
1, 23328, Lyric_t, "the  "
1, 23328, Note_on_c, 2, 71, 108
1, 23334, Note_on_c, 9, 42, 0
1, 23410, Note_on_c, 2, 71, 0
1, 23414, Note_on_c, 7, 59, 0
1, 23420, Note_on_c, 7, 62, 0
1, 23424, Note_on_c, 7, 59, 71
1, 23424, Note_on_c, 9, 42, 58
1, 23424, Note_on_c, 9, 37, 107
1, 23426, Note_on_c, 7, 67, 0
1, 23427, Lyric_t, "day  "
1, 23427, Lyric_t, "\015 "
1, 23428, Note_on_c, 2, 71, 106
1, 23429, Note_on_c, 7, 62, 82
1, 23430, Note_on_c, 9, 37, 0
1, 23430, Note_on_c, 9, 42, 0
1, 23436, Note_on_c, 7, 67, 93
1, 23520, Note_on_c, 9, 42, 31
1, 23526, Note_on_c, 9, 42, 0
1, 23606, Note_on_c, 7, 59, 0
1, 23612, Note_on_c, 7, 62, 0
1, 23614, Note_on_c, 2, 71, 0
1, 23616, Note_on_c, 9, 42, 57
1, 23616, Note_on_c, 7, 59, 62
1, 23618, Note_on_c, 7, 67, 0
1, 23619, Lyric_t, "you  "
1, 23621, Note_on_c, 7, 62, 71
1, 23621, Note_on_c, 2, 73, 105
1, 23622, Note_on_c, 9, 42, 0
1, 23628, Note_on_c, 7, 67, 77
1, 23684, Note_on_c, 0, 31, 0
1, 23706, Note_on_c, 7, 62, 0
1, 23710, Note_on_c, 7, 59, 0
1, 23712, Note_on_c, 2, 73, 0
1, 23712, Note_on_c, 9, 42, 39
1, 23712, Note_on_c, 9, 35, 101
1, 23712, Note_on_c, 0, 37, 70
1, 23716, Note_on_c, 7, 62, 63
1, 23718, Note_on_c, 9, 35, 0
1, 23718, Note_on_c, 9, 42, 0
1, 23718, Lyric_t, "walk  "
1, 23720, Note_on_c, 2, 71, 107
1, 23720, Note_on_c, 7, 59, 58
1, 23778, Note_on_c, 0, 37, 0
1, 23788, Note_on_c, 1, 59, 0
1, 23788, Note_on_c, 1, 67, 0
1, 23788, Note_on_c, 1, 62, 0
1, 23794, Note_on_c, 7, 67, 0
1, 23796, Note_on_c, 7, 59, 0
1, 23796, Note_on_c, 1, 57, 51
1, 23796, Note_on_c, 1, 66, 44
1, 23796, Note_on_c, 1, 62, 50
1, 23804, Note_on_c, 7, 62, 0
1, 23808, Note_on_c, 9, 42, 59
1, 23808, Note_on_c, 0, 38, 95
1, 23808, Note_on_c, 7, 57, 73
1, 23808, Note_on_c, 9, 35, 114
1, 23813, Note_on_c, 7, 62, 82
1, 23814, Note_on_c, 9, 35, 0
1, 23814, Note_on_c, 9, 42, 0
1, 23820, Note_on_c, 7, 66, 89
1, 23890, Note_on_c, 2, 71, 0
1, 23894, Note_on_c, 7, 66, 0
1, 23898, Note_on_c, 7, 62, 0
1, 23902, Note_on_c, 7, 57, 0
1, 23904, Note_on_c, 7, 66, 64
1, 23904, Lyric_t, "back  "
1, 23904, Note_on_c, 9, 42, 32
1, 23905, Note_on_c, 2, 69, 109
1, 23908, Note_on_c, 7, 62, 56
1, 23910, Note_on_c, 9, 42, 0
1, 23912, Note_on_c, 7, 57, 50
1, 23962, Note_on_c, 0, 38, 0
1, 23990, Note_on_c, 7, 57, 0
1, 23996, Note_on_c, 7, 62, 0
1, 24000, Note_on_c, 7, 57, 54
1, 24000, Note_on_c, 9, 46, 65
1, 24000, Note_on_c, 0, 38, 84
1, 24002, Note_on_c, 7, 66, 0
1, 24005, Note_on_c, 7, 62, 61
1, 24006, Note_on_c, 9, 46, 0
1, 24012, Note_on_c, 7, 66, 77
1, 24068, Note_on_c, 2, 69, 0
1, 24086, Note_on_c, 7, 66, 0
1, 24090, Note_on_c, 7, 62, 0
1, 24094, Note_on_c, 7, 57, 0
1, 24096, Note_on_c, 2, 69, 108
1, 24096, Note_on_c, 7, 66, 73
1, 24096, Lyric_t, "in  "
1, 24100, Note_on_c, 7, 62, 69
1, 24104, Note_on_c, 7, 57, 59
1, 24184, Note_on_c, 7, 57, 0
1, 24184, Note_on_c, 7, 62, 0
1, 24190, Note_on_c, 7, 66, 0
1, 24192, Note_on_c, 9, 42, 62
1, 24192, Note_on_c, 7, 57, 70
1, 24192, Note_on_c, 9, 37, 108
1, 24197, Note_on_c, 7, 62, 80
1, 24198, Note_on_c, 9, 37, 0
1, 24198, Note_on_c, 9, 42, 0
1, 24204, Note_on_c, 7, 66, 89
1, 24288, Note_on_c, 9, 42, 32
1, 24294, Note_on_c, 9, 42, 0
1, 24294, Note_on_c, 2, 69, 0
1, 24300, Lyric_t, "my  "
1, 24301, Note_on_c, 2, 74, 107
1, 24374, Note_on_c, 7, 57, 0
1, 24380, Note_on_c, 7, 62, 0
1, 24384, Note_on_c, 9, 42, 62
1, 24384, Note_on_c, 7, 57, 60
1, 24386, Note_on_c, 7, 66, 0
1, 24389, Note_on_c, 7, 62, 66
1, 24390, Note_on_c, 9, 42, 0
1, 24396, Note_on_c, 7, 66, 83
1, 24434, Note_on_c, 0, 38, 0
1, 24474, Note_on_c, 7, 62, 0
1, 24478, Note_on_c, 7, 57, 0
1, 24480, Note_on_c, 9, 42, 34
1, 24480, Note_on_c, 0, 40, 82
1, 24484, Note_on_c, 7, 62, 67
1, 24486, Note_on_c, 9, 42, 0
1, 24488, Note_on_c, 7, 57, 55
1, 24526, Note_on_c, 0, 40, 0
1, 24540, Note_on_c, 2, 74, 0
1, 24556, Note_on_c, 1, 66, 0
1, 24556, Note_on_c, 1, 62, 0
1, 24556, Note_on_c, 1, 57, 0
1, 24564, Note_on_c, 7, 57, 0
1, 24564, Note_on_c, 7, 62, 0
1, 24564, Note_on_c, 1, 61, 48
1, 24564, Note_on_c, 1, 57, 46
1, 24564, Note_on_c, 1, 64, 47
1, 24566, Note_on_c, 7, 66, 0
1, 24569, Lyric_t, "\015 "
1, 24569, Lyric_t, "life.  "
1, 24572, Note_on_c, 2, 73, 105
1, 24576, Note_on_c, 9, 35, 110
1, 24576, Note_on_c, 7, 57, 74
1, 24576, Note_on_c, 0, 33, 100
1, 24576, Note_on_c, 9, 42, 61
1, 24581, Note_on_c, 7, 61, 79
1, 24582, Note_on_c, 9, 42, 0
1, 24582, Note_on_c, 9, 35, 0
1, 24588, Note_on_c, 7, 64, 89
1, 24672, Note_on_c, 9, 42, 33
1, 24678, Note_on_c, 9, 42, 0
1, 24758, Note_on_c, 7, 57, 0
1, 24764, Note_on_c, 7, 61, 0
1, 24768, Note_on_c, 7, 57, 59
1, 24768, Note_on_c, 9, 42, 64
1, 24770, Note_on_c, 7, 64, 0
1, 24773, Note_on_c, 7, 61, 70
1, 24774, Note_on_c, 9, 42, 0
1, 24780, Note_on_c, 7, 64, 76
1, 24852, Note_on_c, 2, 73, 0
1, 24860, Note_on_c, 2, 71, 104
1, 24864, Note_on_c, 9, 42, 33
1, 24870, Note_on_c, 9, 42, 0
1, 24950, Note_on_c, 7, 57, 0
1, 24952, Note_on_c, 2, 71, 0
1, 24956, Note_on_c, 7, 61, 0
1, 24960, Note_on_c, 7, 57, 70
1, 24960, Note_on_c, 9, 37, 101
1, 24960, Note_on_c, 9, 42, 60
1, 24960, Note_on_c, 2, 69, 101
1, 24962, Note_on_c, 7, 64, 0
1, 24965, Note_on_c, 7, 61, 88
1, 24966, Note_on_c, 9, 42, 0
1, 24966, Note_on_c, 9, 37, 0
1, 24972, Note_on_c, 7, 64, 94
1, 25056, Note_on_c, 9, 42, 33
1, 25062, Note_on_c, 9, 42, 0
1, 25142, Note_on_c, 7, 57, 0
1, 25148, Note_on_c, 7, 61, 0
1, 25152, Note_on_c, 7, 57, 64
1, 25152, Note_on_c, 9, 42, 63
1, 25154, Note_on_c, 7, 64, 0
1, 25157, Note_on_c, 7, 61, 66
1, 25158, Note_on_c, 9, 42, 0
1, 25164, Note_on_c, 7, 64, 76
1, 25220, Note_on_c, 0, 33, 0
1, 25242, Note_on_c, 7, 61, 0
1, 25246, Note_on_c, 7, 57, 0
1, 25248, Note_on_c, 9, 37, 109
1, 25248, Note_on_c, 9, 42, 36
1, 25248, Note_on_c, 0, 40, 92
1, 25252, Note_on_c, 7, 61, 63
1, 25254, Note_on_c, 9, 42, 0
1, 25254, Note_on_c, 9, 37, 0
1, 25256, Note_on_c, 7, 57, 52
1, 25288, Note_on_c, 0, 40, 0
1, 25298, Note_on_c, 2, 69, 0
1, 25330, Note_on_c, 7, 64, 0
1, 25332, Note_on_c, 7, 57, 0
1, 25340, Note_on_c, 7, 61, 0
1, 25344, Note_on_c, 9, 42, 64
1, 25344, Note_on_c, 9, 35, 114
1, 25344, Note_on_c, 7, 57, 74
1, 25344, Note_on_c, 0, 45, 81
1, 25349, Note_on_c, 7, 61, 80
1, 25350, Note_on_c, 9, 35, 0
1, 25350, Note_on_c, 9, 42, 0
1, 25356, Note_on_c, 7, 64, 93
1, 25360, Pitch_bend_c, 6, 0
1, 25369, Note_on_c, 6, 66, 110
1, 25376, Pitch_bend_c, 6, 256
1, 25389, Pitch_bend_c, 6, 0
1, 25429, Pitch_bend_c, 6, 1024
1, 25430, Note_on_c, 7, 64, 0
1, 25432, Note_on_c, 0, 45, 0
1, 25434, Note_on_c, 7, 61, 0
1, 25438, Note_on_c, 7, 57, 0
1, 25440, Note_on_c, 0, 47, 77
1, 25440, Note_on_c, 7, 64, 64
1, 25440, Note_on_c, 9, 42, 32
1, 25444, Note_on_c, 7, 61, 63
1, 25446, Note_on_c, 9, 42, 0
1, 25448, Note_on_c, 7, 57, 48
1, 25449, Pitch_bend_c, 6, 3584
1, 25464, Pitch_bend_c, 6, 5248
1, 25480, Pitch_bend_c, 6, 5888
1, 25496, Pitch_bend_c, 6, 7040
1, 25509, Pitch_bend_c, 6, 7680
1, 25524, Pitch_bend_c, 6, 8192
1, 25526, Note_on_c, 7, 57, 0
1, 25528, Note_on_c, 0, 47, 0
1, 25532, Note_on_c, 7, 61, 0
1, 25536, Note_on_c, 9, 46, 59
1, 25536, Note_on_c, 0, 45, 86
1, 25536, Note_on_c, 7, 57, 57
1, 25538, Note_on_c, 7, 64, 0
1, 25541, Note_on_c, 7, 61, 67
1, 25542, Note_on_c, 9, 46, 0
1, 25548, Note_on_c, 7, 64, 70
1, 25622, Note_on_c, 7, 64, 0
1, 25626, Note_on_c, 7, 61, 0
1, 25630, Note_on_c, 7, 57, 0
1, 25632, Note_on_c, 7, 64, 73
1, 25636, Note_on_c, 7, 61, 72
1, 25640, Note_on_c, 7, 57, 63
1, 25716, Note_on_c, 0, 45, 0
1, 25720, Note_on_c, 7, 57, 0
1, 25720, Note_on_c, 7, 61, 0
1, 25726, Note_on_c, 7, 64, 0
1, 25728, Note_on_c, 9, 37, 102
1, 25728, Note_on_c, 9, 42, 58
1, 25728, Note_on_c, 7, 57, 72
1, 25728, Note_on_c, 0, 40, 85
1, 25733, Note_on_c, 7, 61, 80
1, 25734, Note_on_c, 9, 42, 0
1, 25734, Note_on_c, 9, 37, 0
1, 25740, Note_on_c, 7, 64, 90
1, 25816, Note_on_c, 0, 40, 0
1, 25824, Note_on_c, 9, 42, 31
1, 25824, Note_on_c, 0, 42, 81
1, 25830, Note_on_c, 9, 42, 0
1, 25910, Note_on_c, 7, 57, 0
1, 25912, Note_on_c, 0, 42, 0
1, 25916, Note_on_c, 7, 61, 0
1, 25920, Note_on_c, 9, 46, 62
1, 25920, Note_on_c, 7, 57, 58
1, 25920, Note_on_c, 0, 40, 87
1, 25920, Lyric_t, "Like  "
1, 25921, Note_on_c, 2, 64, 100
1, 25922, Note_on_c, 7, 64, 0
1, 25925, Note_on_c, 7, 61, 69
1, 25926, Note_on_c, 9, 46, 0
1, 25932, Note_on_c, 7, 64, 78
1, 25933, Pitch_bend_c, 6, 7936
1, 25952, Pitch_bend_c, 6, 7552
1, 25969, Pitch_bend_c, 6, 6912
1, 25984, Pitch_bend_c, 6, 6528
1, 26001, Pitch_bend_c, 6, 6144
1, 26010, Note_on_c, 7, 61, 0
1, 26010, Note_on_c, 2, 64, 0
1, 26014, Note_on_c, 7, 57, 0
1, 26016, Lyric_t, "a  "
1, 26017, Note_on_c, 2, 64, 95
1, 26020, Note_on_c, 7, 61, 63
1, 26020, Pitch_bend_c, 6, 5632
1, 26024, Note_on_c, 7, 57, 51
1, 26033, Pitch_bend_c, 6, 5248
1, 26052, Pitch_bend_c, 6, 4608
1, 26069, Pitch_bend_c, 6, 3840
1, 26084, Pitch_bend_c, 6, 3072
1, 26092, Note_on_c, 1, 57, 0
1, 26092, Note_on_c, 1, 64, 0
1, 26092, Note_on_c, 1, 61, 0
1, 26100, Note_on_c, 7, 61, 0
1, 26100, Note_on_c, 7, 57, 0
1, 26100, Note_on_c, 0, 40, 0
1, 26100, Note_on_c, 1, 62, 43
1, 26100, Note_on_c, 1, 67, 48
1, 26100, Note_on_c, 1, 59, 51
1, 26101, Pitch_bend_c, 6, 2304
1, 26102, Note_on_c, 7, 64, 0
1, 26104, Note_on_c, 2, 64, 0
1, 26112, Note_on_c, 9, 42, 59
1, 26112, Note_on_c, 0, 31, 93
1, 26112, Note_on_c, 9, 35, 116
1, 26112, Note_on_c, 7, 59, 69
1, 26116, Pitch_bend_c, 6, 1024
1, 26117, Note_on_c, 7, 62, 81
1, 26118, Note_on_c, 9, 35, 0
1, 26118, Note_on_c, 9, 42, 0
1, 26121, Lyric_t, "new "
1, 26124, Note_on_c, 2, 71, 110
1, 26124, Note_on_c, 7, 67, 92
1, 26129, Pitch_bend_c, 6, 128
1, 26144, Pitch_bend_c, 6, 0
1, 26192, Note_on_c, 6, 66, 0
1, 26208, Note_on_c, 9, 42, 37
1, 26214, Note_on_c, 9, 42, 0
1, 26294, Note_on_c, 7, 59, 0
1, 26300, Note_on_c, 2, 71, 0
1, 26300, Note_on_c, 7, 62, 0
1, 26304, Note_on_c, 7, 59, 65
1, 26304, Note_on_c, 9, 42, 60
1, 26306, Note_on_c, 7, 67, 0
1, 26307, Lyric_t, "born  "
1, 26309, Note_on_c, 2, 71, 110
1, 26309, Note_on_c, 7, 62, 73
1, 26310, Note_on_c, 9, 42, 0
1, 26316, Note_on_c, 7, 67, 76
1, 26400, Note_on_c, 9, 42, 26
1, 26406, Note_on_c, 9, 42, 0
1, 26486, Note_on_c, 2, 71, 0
1, 26486, Note_on_c, 7, 59, 0
1, 26492, Note_on_c, 7, 62, 0
1, 26496, Note_on_c, 7, 59, 72
1, 26496, Lyric_t, "child  "
1, 26496, Lyric_t, "\015 "
1, 26496, Note_on_c, 9, 37, 107
1, 26496, Note_on_c, 9, 42, 59
1, 26497, Note_on_c, 2, 71, 109
1, 26498, Note_on_c, 7, 67, 0
1, 26501, Note_on_c, 7, 62, 83
1, 26502, Note_on_c, 9, 42, 0
1, 26502, Note_on_c, 9, 37, 0
1, 26508, Note_on_c, 7, 67, 91
1, 26556, Pitch_bend_c, 6, 8192
1, 26592, Note_on_c, 9, 42, 29
1, 26598, Note_on_c, 9, 42, 0
1, 26660, Note_on_c, 0, 31, 0
1, 26678, Note_on_c, 7, 59, 0
1, 26684, Note_on_c, 7, 62, 0
1, 26688, Note_on_c, 7, 59, 60
1, 26688, Note_on_c, 0, 35, 80
1, 26688, Note_on_c, 9, 42, 60
1, 26690, Note_on_c, 7, 67, 0
1, 26693, Note_on_c, 7, 62, 66
1, 26694, Note_on_c, 9, 42, 0
1, 26700, Note_on_c, 7, 67, 76
1, 26764, Note_on_c, 2, 71, 0
1, 26770, Note_on_c, 0, 35, 0
1, 26778, Note_on_c, 7, 62, 0
1, 26782, Note_on_c, 7, 59, 0
1, 26784, Lyric_t, "you  "
1, 26784, Note_on_c, 9, 35, 104
1, 26784, Note_on_c, 2, 73, 108
1, 26784, Note_on_c, 0, 37, 71
1, 26784, Note_on_c, 9, 42, 37
1, 26788, Note_on_c, 7, 62, 66
1, 26790, Note_on_c, 9, 42, 0
1, 26790, Note_on_c, 9, 35, 0
1, 26792, Note_on_c, 7, 59, 60
1, 26860, Note_on_c, 1, 59, 0
1, 26860, Note_on_c, 1, 67, 0
1, 26860, Note_on_c, 1, 62, 0
1, 26866, Note_on_c, 7, 67, 0
1, 26866, Note_on_c, 0, 37, 0
1, 26868, Note_on_c, 7, 59, 0
1, 26868, Note_on_c, 1, 57, 49
1, 26868, Note_on_c, 1, 66, 45
1, 26868, Note_on_c, 1, 62, 49
1, 26876, Note_on_c, 7, 62, 0
1, 26876, Note_on_c, 2, 73, 0
1, 26880, Note_on_c, 7, 57, 68
1, 26880, Note_on_c, 0, 38, 87
1, 26880, Note_on_c, 9, 35, 108
1, 26880, Note_on_c, 9, 42, 57
1, 26883, Lyric_t, "made  "
1, 26884, Note_on_c, 2, 71, 105
1, 26885, Note_on_c, 7, 62, 80
1, 26886, Note_on_c, 9, 42, 0
1, 26886, Note_on_c, 9, 35, 0
1, 26892, Note_on_c, 7, 66, 92
1, 26966, Note_on_c, 7, 66, 0
1, 26970, Note_on_c, 7, 62, 0
1, 26970, Note_on_c, 2, 71, 0
1, 26974, Note_on_c, 7, 57, 0
1, 26976, Lyric_t, "me  "
1, 26976, Note_on_c, 7, 66, 67
1, 26976, Note_on_c, 9, 42, 31
1, 26977, Note_on_c, 2, 69, 107
1, 26980, Note_on_c, 7, 62, 63
1, 26982, Note_on_c, 9, 42, 0
1, 26984, Note_on_c, 7, 57, 50
1, 27034, Note_on_c, 0, 38, 0
1, 27040, Note_on_c, 2, 69, 0
1, 27062, Note_on_c, 7, 57, 0
1, 27068, Note_on_c, 7, 62, 0
1, 27072, Lyric_t, "smile  "
1, 27072, Note_on_c, 9, 42, 64
1, 27072, Lyric_t, "\015 "
1, 27072, Note_on_c, 0, 38, 87
1, 27072, Note_on_c, 7, 57, 58
1, 27073, Note_on_c, 2, 71, 112
1, 27074, Note_on_c, 7, 66, 0
1, 27077, Note_on_c, 7, 62, 66
1, 27078, Note_on_c, 9, 42, 0
1, 27084, Note_on_c, 7, 66, 78
1, 27158, Note_on_c, 7, 66, 0
1, 27162, Note_on_c, 7, 62, 0
1, 27166, Note_on_c, 7, 57, 0
1, 27168, Note_on_c, 9, 42, 25
1, 27168, Note_on_c, 7, 66, 75
1, 27172, Note_on_c, 7, 62, 71
1, 27174, Note_on_c, 9, 42, 0
1, 27176, Note_on_c, 7, 57, 55
1, 27256, Note_on_c, 7, 57, 0
1, 27256, Note_on_c, 7, 62, 0
1, 27260, Note_on_c, 2, 71, 0
1, 27262, Note_on_c, 7, 66, 0
1, 27264, Note_on_c, 7, 57, 77
1, 27264, Note_on_c, 9, 42, 61
1, 27264, Note_on_c, 9, 37, 106
1, 27268, Note_on_c, 2, 69, 109
1, 27269, Note_on_c, 7, 62, 79
1, 27270, Note_on_c, 9, 37, 0
1, 27270, Note_on_c, 9, 42, 0
1, 27276, Note_on_c, 7, 66, 89
1, 27360, Note_on_c, 9, 42, 30
1, 27366, Note_on_c, 9, 42, 0
1, 27446, Note_on_c, 7, 57, 0
1, 27452, Note_on_c, 7, 62, 0
1, 27456, Note_on_c, 9, 42, 62
1, 27456, Note_on_c, 7, 57, 58
1, 27458, Note_on_c, 7, 66, 0
1, 27461, Note_on_c, 7, 62, 68
1, 27462, Note_on_c, 9, 42, 0
1, 27468, Note_on_c, 7, 66, 79
1, 27488, Note_on_c, 2, 69, 0
1, 27506, Note_on_c, 0, 38, 0
1, 27546, Note_on_c, 7, 62, 0
1, 27550, Note_on_c, 7, 57, 0
1, 27552, Lyric_t, "then  "
1, 27552, Note_on_c, 9, 42, 41
1, 27552, Note_on_c, 0, 30, 83
1, 27553, Note_on_c, 2, 69, 108
1, 27556, Note_on_c, 7, 62, 63
1, 27558, Note_on_c, 9, 42, 0
1, 27560, Note_on_c, 7, 57, 53
1, 27598, Note_on_c, 0, 30, 0
1, 27628, Note_on_c, 1, 66, 0
1, 27628, Note_on_c, 1, 62, 0
1, 27628, Note_on_c, 1, 57, 0
1, 27636, Note_on_c, 7, 62, 0
1, 27636, Note_on_c, 7, 57, 0
1, 27636, Note_on_c, 1, 61, 47
1, 27636, Note_on_c, 1, 57, 49
1, 27636, Note_on_c, 1, 64, 44
1, 27638, Note_on_c, 7, 66, 0
1, 27644, Note_on_c, 2, 69, 0
1, 27648, Note_on_c, 9, 35, 114
1, 27648, Note_on_c, 0, 33, 101
1, 27648, Note_on_c, 7, 57, 75
1, 27648, Note_on_c, 9, 42, 60
1, 27651, Lyric_t, "stole  "
1, 27652, Note_on_c, 2, 76, 107
1, 27653, Note_on_c, 7, 61, 76
1, 27654, Note_on_c, 9, 42, 0
1, 27654, Note_on_c, 9, 35, 0
1, 27660, Note_on_c, 7, 64, 90
1, 27744, Note_on_c, 9, 42, 34
1, 27750, Note_on_c, 9, 42, 0
1, 27824, Note_on_c, 2, 76, 0
1, 27830, Note_on_c, 7, 57, 0
1, 27836, Note_on_c, 7, 61, 0
1, 27840, Note_on_c, 7, 57, 59
1, 27840, Lyric_t, "my  "
1, 27840, Note_on_c, 9, 42, 64
1, 27840, Note_on_c, 2, 78, 110
1, 27842, Note_on_c, 7, 64, 0
1, 27845, Note_on_c, 7, 61, 67
1, 27846, Note_on_c, 9, 42, 0
1, 27852, Note_on_c, 7, 64, 82
1, 27930, Note_on_c, 2, 78, 0
1, 27936, Lyric_t, "heart  "
1, 27936, Note_on_c, 9, 42, 31
1, 27937, Note_on_c, 2, 73, 108
1, 27942, Note_on_c, 9, 42, 0
1, 28022, Note_on_c, 7, 57, 0
1, 28028, Note_on_c, 7, 61, 0
1, 28032, Note_on_c, 9, 37, 103
1, 28032, Note_on_c, 9, 42, 63
1, 28032, Note_on_c, 7, 57, 72
1, 28034, Note_on_c, 7, 64, 0
1, 28037, Note_on_c, 7, 61, 86
1, 28038, Note_on_c, 9, 42, 0
1, 28038, Note_on_c, 9, 37, 0
1, 28044, Note_on_c, 7, 64, 91
1, 28128, Note_on_c, 2, 73, 0
1, 28128, Note_on_c, 9, 42, 31
1, 28134, Note_on_c, 9, 42, 0
1, 28134, Lyric_t, "a "
1, 28136, Note_on_c, 2, 69, 107
1, 28214, Note_on_c, 7, 57, 0
1, 28220, Note_on_c, 7, 61, 0
1, 28222, Note_on_c, 2, 69, 0
1, 28224, Note_on_c, 7, 57, 57
1, 28224, Note_on_c, 9, 42, 60
1, 28226, Note_on_c, 7, 64, 0
1, 28227, Lyric_t, "\015 "
1, 28227, Lyric_t, "way.  "
1, 28229, Note_on_c, 2, 71, 110
1, 28229, Note_on_c, 7, 61, 70
1, 28230, Note_on_c, 9, 42, 0
1, 28236, Note_on_c, 7, 64, 75
1, 28292, Note_on_c, 0, 33, 0
1, 28308, Note_on_c, 2, 71, 0
1, 28314, Note_on_c, 7, 61, 0
1, 28316, Note_on_c, 2, 69, 107
1, 28318, Note_on_c, 7, 57, 0
1, 28320, Note_on_c, 9, 37, 102
1, 28320, Note_on_c, 0, 40, 93
1, 28320, Note_on_c, 9, 42, 34
1, 28324, Note_on_c, 7, 61, 68
1, 28326, Note_on_c, 9, 42, 0
1, 28326, Note_on_c, 9, 37, 0
1, 28328, Note_on_c, 7, 57, 60
1, 28360, Note_on_c, 0, 40, 0
1, 28402, Note_on_c, 7, 64, 0
1, 28404, Note_on_c, 7, 57, 0
1, 28412, Note_on_c, 7, 61, 0
1, 28416, Note_on_c, 9, 35, 114
1, 28416, Note_on_c, 0, 45, 82
1, 28416, Note_on_c, 7, 57, 67
1, 28416, Note_on_c, 9, 42, 58
1, 28421, Note_on_c, 7, 61, 77
1, 28422, Note_on_c, 9, 42, 0
1, 28422, Note_on_c, 9, 35, 0
1, 28428, Note_on_c, 7, 64, 90
1, 28502, Note_on_c, 7, 64, 0
1, 28504, Note_on_c, 0, 45, 0
1, 28506, Note_on_c, 7, 61, 0
1, 28510, Note_on_c, 7, 57, 0
1, 28512, Note_on_c, 9, 42, 35
1, 28512, Note_on_c, 7, 64, 72
1, 28512, Note_on_c, 0, 47, 77
1, 28516, Note_on_c, 7, 61, 55
1, 28518, Note_on_c, 9, 42, 0
1, 28520, Note_on_c, 7, 57, 46
1, 28598, Note_on_c, 7, 57, 0
1, 28600, Note_on_c, 0, 47, 0
1, 28604, Note_on_c, 7, 61, 0
1, 28606, Note_on_c, 2, 69, 0
1, 28608, Note_on_c, 9, 46, 63
1, 28608, Note_on_c, 0, 45, 82
1, 28608, Note_on_c, 7, 57, 54
1, 28610, Note_on_c, 7, 64, 0
1, 28613, Note_on_c, 7, 61, 66
1, 28614, Note_on_c, 9, 46, 0
1, 28620, Note_on_c, 7, 64, 76
1, 28694, Note_on_c, 7, 64, 0
1, 28698, Note_on_c, 7, 61, 0
1, 28702, Note_on_c, 7, 57, 0
1, 28704, Note_on_c, 7, 64, 78
1, 28708, Note_on_c, 7, 61, 72
1, 28712, Note_on_c, 7, 57, 56
1, 28788, Note_on_c, 0, 45, 0
1, 28792, Note_on_c, 7, 61, 0
1, 28792, Note_on_c, 7, 57, 0
1, 28798, Note_on_c, 7, 64, 0
1, 28800, Note_on_c, 9, 37, 109
1, 28800, Note_on_c, 9, 42, 65
1, 28800, Note_on_c, 7, 57, 74
1, 28800, Note_on_c, 0, 40, 82
1, 28805, Note_on_c, 7, 61, 85
1, 28806, Note_on_c, 9, 42, 0
1, 28806, Note_on_c, 9, 37, 0
1, 28812, Note_on_c, 7, 64, 92
1, 28888, Note_on_c, 0, 40, 0
1, 28896, Note_on_c, 0, 42, 80
1, 28896, Note_on_c, 9, 42, 34
1, 28902, Note_on_c, 9, 42, 0
1, 28982, Note_on_c, 7, 57, 0
1, 28984, Note_on_c, 0, 42, 0
1, 28988, Note_on_c, 7, 61, 0
1, 28992, Note_on_c, 0, 40, 83
1, 28992, Note_on_c, 7, 57, 64
1, 28992, Note_on_c, 9, 42, 55
1, 28994, Note_on_c, 7, 64, 0
1, 28997, Note_on_c, 7, 61, 73
1, 28998, Note_on_c, 9, 42, 0
1, 29004, Note_on_c, 7, 64, 80
1, 29082, Note_on_c, 7, 61, 0
1, 29086, Note_on_c, 7, 57, 0
1, 29088, Note_on_c, 9, 42, 38
1, 29088, Lyric_t, "We  "
1, 29089, Note_on_c, 2, 64, 104
1, 29092, Note_on_c, 7, 61, 61
1, 29094, Note_on_c, 9, 42, 0
1, 29096, Note_on_c, 7, 57, 56
1, 29164, Note_on_c, 1, 57, 0
1, 29164, Note_on_c, 1, 61, 0
1, 29164, Note_on_c, 1, 64, 0
1, 29172, Note_on_c, 7, 57, 0
1, 29172, Note_on_c, 0, 40, 0
1, 29172, Note_on_c, 7, 61, 0
1, 29172, Note_on_c, 1, 67, 46
1, 29172, Note_on_c, 1, 59, 51
1, 29172, Note_on_c, 1, 62, 46
1, 29174, Note_on_c, 7, 64, 0
1, 29180, Note_on_c, 2, 64, 0
1, 29184, Note_on_c, 9, 42, 58
1, 29184, Note_on_c, 0, 31, 99
1, 29184, Note_on_c, 7, 59, 67
1, 29184, Note_on_c, 9, 35, 109
1, 29189, Note_on_c, 7, 62, 82
1, 29190, Note_on_c, 9, 35, 0
1, 29190, Note_on_c, 9, 42, 0
1, 29190, Lyric_t, "may  "
1, 29192, Note_on_c, 2, 71, 111
1, 29196, Note_on_c, 7, 67, 85
1, 29276, Note_on_c, 2, 71, 0
1, 29280, Note_on_c, 9, 42, 34
1, 29286, Note_on_c, 9, 42, 0
1, 29286, Lyric_t, "be  "
1, 29288, Note_on_c, 2, 71, 109
1, 29366, Note_on_c, 7, 59, 0
1, 29372, Note_on_c, 2, 71, 0
1, 29372, Note_on_c, 7, 62, 0
1, 29376, Note_on_c, 7, 59, 59
1, 29376, Note_on_c, 9, 42, 61
1, 29378, Note_on_c, 7, 67, 0
1, 29379, Lyric_t, "out  "
1, 29380, Note_on_c, 2, 71, 107
1, 29381, Note_on_c, 7, 62, 69
1, 29382, Note_on_c, 9, 42, 0
1, 29388, Note_on_c, 7, 67, 83
1, 29464, Note_on_c, 2, 71, 0
1, 29472, Note_on_c, 9, 42, 27
1, 29472, Lyric_t, "of  "
1, 29473, Note_on_c, 2, 71, 108
1, 29478, Note_on_c, 9, 42, 0
1, 29558, Note_on_c, 2, 71, 0
1, 29558, Note_on_c, 7, 59, 0
1, 29564, Note_on_c, 7, 62, 0
1, 29568, Note_on_c, 9, 42, 61
1, 29568, Lyric_t, "\015 "
1, 29568, Lyric_t, "touch  "
1, 29568, Note_on_c, 9, 37, 105
1, 29568, Note_on_c, 7, 59, 71
1, 29569, Note_on_c, 2, 71, 107
1, 29570, Note_on_c, 7, 67, 0
1, 29573, Note_on_c, 7, 62, 80
1, 29574, Note_on_c, 9, 37, 0
1, 29574, Note_on_c, 9, 42, 0
1, 29580, Note_on_c, 7, 67, 88
1, 29664, Note_on_c, 9, 42, 36
1, 29670, Note_on_c, 9, 42, 0
1, 29732, Note_on_c, 0, 31, 0
1, 29750, Note_on_c, 7, 59, 0
1, 29750, Note_on_c, 2, 71, 0
1, 29756, Note_on_c, 7, 62, 0
1, 29760, Note_on_c, 9, 42, 63
1, 29760, Note_on_c, 0, 35, 73
1, 29760, Note_on_c, 7, 59, 57
1, 29760, Note_on_c, 2, 73, 104
1, 29760, Lyric_t, "but  "
1, 29762, Note_on_c, 7, 67, 0
1, 29765, Note_on_c, 7, 62, 70
1, 29766, Note_on_c, 9, 42, 0
1, 29772, Note_on_c, 7, 67, 76
1, 29834, Note_on_c, 2, 73, 0
1, 29838, Note_on_c, 0, 35, 0
1, 29850, Note_on_c, 7, 62, 0
1, 29854, Note_on_c, 7, 59, 0
1, 29856, Note_on_c, 9, 42, 33
1, 29856, Note_on_c, 0, 37, 69
1, 29856, Lyric_t, "nev "
1, 29856, Note_on_c, 2, 71, 108
1, 29856, Note_on_c, 9, 35, 101
1, 29860, Note_on_c, 7, 62, 67
1, 29862, Note_on_c, 9, 35, 0
1, 29862, Note_on_c, 9, 42, 0
1, 29864, Note_on_c, 7, 59, 53
1, 29932, Note_on_c, 1, 59, 0
1, 29932, Note_on_c, 1, 67, 0
1, 29932, Note_on_c, 1, 62, 0
1, 29934, Note_on_c, 0, 37, 0
1, 29938, Note_on_c, 7, 67, 0
1, 29940, Note_on_c, 7, 59, 0
1, 29940, Note_on_c, 1, 66, 46
1, 29940, Note_on_c, 1, 57, 45
1, 29940, Note_on_c, 1, 62, 44
1, 29948, Note_on_c, 7, 62, 0
1, 29952, Note_on_c, 9, 35, 113
1, 29952, Note_on_c, 9, 42, 59
1, 29952, Note_on_c, 0, 38, 87
1, 29952, Note_on_c, 7, 57, 72
1, 29957, Note_on_c, 7, 62, 77
1, 29958, Note_on_c, 9, 42, 0
1, 29958, Note_on_c, 9, 35, 0
1, 29964, Note_on_c, 7, 66, 90
1, 30036, Note_on_c, 2, 71, 0
1, 30038, Note_on_c, 7, 66, 0
1, 30042, Note_on_c, 7, 62, 0
1, 30046, Note_on_c, 7, 57, 0
1, 30048, Note_on_c, 9, 42, 33
1, 30048, Lyric_t, "er  "
1, 30048, Note_on_c, 7, 66, 67
1, 30048, Note_on_c, 2, 69, 107
1, 30052, Note_on_c, 7, 62, 56
1, 30054, Note_on_c, 9, 42, 0
1, 30056, Note_on_c, 7, 57, 53
1, 30106, Note_on_c, 0, 38, 0
1, 30134, Note_on_c, 7, 57, 0
1, 30140, Note_on_c, 7, 62, 0
1, 30144, Note_on_c, 9, 46, 61
1, 30144, Note_on_c, 7, 57, 59
1, 30144, Note_on_c, 0, 38, 84
1, 30146, Note_on_c, 7, 66, 0
1, 30149, Note_on_c, 7, 62, 61
1, 30150, Note_on_c, 9, 46, 0
1, 30156, Note_on_c, 7, 66, 72
1, 30220, Note_on_c, 2, 69, 0
1, 30230, Note_on_c, 7, 66, 0
1, 30234, Note_on_c, 7, 62, 0
1, 30236, Lyric_t, "out  "
1, 30237, Note_on_c, 2, 69, 107
1, 30238, Note_on_c, 7, 57, 0
1, 30240, Note_on_c, 7, 66, 80
1, 30244, Note_on_c, 7, 62, 66
1, 30248, Note_on_c, 7, 57, 57
1, 30328, Note_on_c, 7, 57, 0
1, 30328, Note_on_c, 7, 62, 0
1, 30334, Note_on_c, 7, 66, 0
1, 30336, Note_on_c, 9, 42, 59
1, 30336, Note_on_c, 9, 37, 102
1, 30336, Note_on_c, 7, 57, 71
1, 30341, Note_on_c, 7, 62, 86
1, 30342, Note_on_c, 9, 37, 0
1, 30342, Note_on_c, 9, 42, 0
1, 30348, Note_on_c, 7, 66, 93
1, 30426, Note_on_c, 2, 69, 0
1, 30432, Note_on_c, 9, 42, 34
1, 30438, Note_on_c, 9, 42, 0
1, 30438, Lyric_t, "of  "
1, 30440, Note_on_c, 2, 76, 108
1, 30518, Note_on_c, 7, 57, 0
1, 30524, Note_on_c, 7, 62, 0
1, 30528, Note_on_c, 7, 57, 64
1, 30528, Note_on_c, 9, 42, 55
1, 30530, Note_on_c, 7, 66, 0
1, 30533, Note_on_c, 7, 62, 74
1, 30534, Note_on_c, 9, 42, 0
1, 30540, Note_on_c, 7, 66, 82
1, 30578, Note_on_c, 0, 38, 0
1, 30618, Note_on_c, 7, 62, 0
1, 30622, Note_on_c, 7, 57, 0
1, 30624, Note_on_c, 0, 40, 79
1, 30624, Note_on_c, 9, 42, 38
1, 30628, Note_on_c, 7, 62, 67
1, 30630, Note_on_c, 9, 42, 0
1, 30632, Note_on_c, 7, 57, 56
1, 30692, Note_on_c, 0, 40, 0
1, 30700, Note_on_c, 1, 62, 0
1, 30700, Note_on_c, 1, 57, 0
1, 30700, Note_on_c, 1, 66, 0
1, 30708, Note_on_c, 7, 62, 0
1, 30708, Note_on_c, 7, 57, 0
1, 30708, Note_on_c, 1, 64, 60
1, 30708, Note_on_c, 1, 61, 59
1, 30708, Note_on_c, 1, 57, 56
1, 30710, Note_on_c, 7, 66, 0
1, 30714, Note_on_c, 2, 76, 0
1, 30720, Note_on_c, 7, 57, 72
1, 30720, Note_on_c, 9, 35, 108
1, 30720, Note_on_c, 9, 42, 61
1, 30720, Note_on_c, 0, 33, 95
1, 30720, Lyric_t, "\015 "
1, 30720, Lyric_t, "time  "
1, 30721, Note_on_c, 2, 73, 111
1, 30725, Note_on_c, 7, 61, 76
1, 30726, Note_on_c, 9, 42, 0
1, 30726, Note_on_c, 9, 35, 0
1, 30732, Note_on_c, 7, 64, 90
1, 30816, Note_on_c, 9, 42, 35
1, 30822, Note_on_c, 9, 42, 0
1, 30902, Note_on_c, 7, 57, 0
1, 30908, Note_on_c, 7, 61, 0
1, 30912, Note_on_c, 7, 57, 66
1, 30912, Note_on_c, 9, 42, 59
1, 30914, Note_on_c, 7, 64, 0
1, 30917, Note_on_c, 7, 61, 69
1, 30918, Note_on_c, 9, 42, 0
1, 30924, Note_on_c, 7, 64, 83
1, 31008, Note_on_c, 9, 42, 26
1, 31014, Note_on_c, 9, 42, 0
1, 31094, Note_on_c, 7, 57, 0
1, 31100, Note_on_c, 7, 61, 0
1, 31104, Note_on_c, 3, 62, 108
1, 31104, Note_on_c, 7, 57, 70
1, 31104, Note_on_c, 8, 66, 1
1, 31104, Note_on_c, 8, 62, 1
1, 31104, Note_on_c, 9, 37, 108
1, 31104, Note_on_c, 9, 42, 57
1, 31104, Note_on_c, 3, 66, 104
1, 31106, Note_on_c, 7, 64, 0
1, 31109, Note_on_c, 7, 61, 81
1, 31110, Note_on_c, 9, 37, 0
1, 31110, Note_on_c, 9, 42, 0
1, 31116, Note_on_c, 7, 64, 87
1, 31170, Note_on_c, 2, 73, 0
1, 31200, Note_on_c, 9, 42, 37
1, 31206, Note_on_c, 9, 42, 0
1, 31286, Note_on_c, 7, 57, 0
1, 31292, Note_on_c, 7, 61, 0
1, 31296, Note_on_c, 9, 42, 55
1, 31296, Note_on_c, 7, 57, 58
1, 31298, Note_on_c, 7, 64, 0
1, 31301, Note_on_c, 7, 61, 70
1, 31302, Note_on_c, 9, 42, 0
1, 31308, Note_on_c, 7, 64, 82
1, 31364, Note_on_c, 0, 33, 0
1, 31386, Note_on_c, 7, 61, 0
1, 31390, Note_on_c, 7, 57, 0
1, 31392, Note_on_c, 0, 40, 91
1, 31392, Note_on_c, 9, 42, 34
1, 31395, Lyric_t, "come  "
1, 31396, Note_on_c, 7, 61, 61
1, 31397, Note_on_c, 2, 73, 110
1, 31398, Note_on_c, 9, 42, 0
1, 31400, Note_on_c, 7, 57, 56
1, 31432, Note_on_c, 0, 40, 0
1, 31468, Note_on_c, 3, 66, 0
1, 31468, Note_on_c, 3, 62, 0
1, 31474, Note_on_c, 7, 64, 0
1, 31476, Note_on_c, 7, 57, 0
1, 31476, Note_on_c, 1, 76, 79
1, 31484, Note_on_c, 7, 61, 0
1, 31486, Note_on_c, 8, 62, 0
1, 31486, Note_on_c, 8, 66, 0
1, 31488, Note_on_c, 7, 57, 72
1, 31488, Note_on_c, 9, 42, 57
1, 31488, Note_on_c, 0, 45, 80
1, 31488, Note_on_c, 9, 35, 114
1, 31488, Note_on_c, 8, 61, 1
1, 31488, Note_on_c, 8, 64, 1
1, 31488, Note_on_c, 3, 64, 108
1, 31488, Note_on_c, 3, 61, 110
1, 31493, Note_on_c, 7, 61, 80
1, 31494, Note_on_c, 9, 35, 0
1, 31494, Note_on_c, 9, 42, 0
1, 31500, Note_on_c, 7, 64, 88
1, 31518, Note_on_c, 2, 73, 0
1, 31574, Note_on_c, 7, 64, 0
1, 31576, Note_on_c, 0, 45, 0
1, 31578, Note_on_c, 7, 61, 0
1, 31580, Lyric_t, "back  "
1, 31581, Note_on_c, 2, 73, 109
1, 31582, Note_on_c, 7, 57, 0
1, 31584, Note_on_c, 9, 42, 30
1, 31584, Note_on_c, 0, 47, 69
1, 31584, Note_on_c, 7, 64, 72
1, 31588, Note_on_c, 7, 61, 60
1, 31590, Note_on_c, 9, 42, 0
1, 31592, Note_on_c, 7, 57, 51
1, 31670, Note_on_c, 7, 57, 0
1, 31672, Note_on_c, 0, 47, 0
1, 31676, Note_on_c, 7, 61, 0
1, 31680, Note_on_c, 7, 57, 51
1, 31680, Note_on_c, 0, 42, 87
1, 31680, Note_on_c, 9, 40, 96
1, 31680, Note_on_c, 9, 46, 64
1, 31682, Note_on_c, 7, 64, 0
1, 31685, Note_on_c, 7, 61, 65
1, 31686, Note_on_c, 9, 46, 0
1, 31686, Note_on_c, 9, 40, 0
1, 31692, Note_on_c, 7, 64, 72
1, 31710, Note_on_c, 2, 73, 0
1, 31766, Note_on_c, 7, 64, 0
1, 31766, Lyric_t, "to  "
1, 31768, Note_on_c, 0, 42, 0
1, 31768, Note_on_c, 2, 71, 112
1, 31770, Note_on_c, 7, 61, 0
1, 31774, Note_on_c, 7, 57, 0
1, 31776, Note_on_c, 0, 45, 64
1, 31776, Note_on_c, 7, 64, 78
1, 31780, Note_on_c, 7, 61, 66
1, 31784, Note_on_c, 7, 57, 63
1, 31852, Note_on_c, 1, 76, 0
1, 31852, Note_on_c, 3, 61, 0
1, 31852, Note_on_c, 3, 64, 0
1, 31860, Note_on_c, 1, 74, 76
1, 31864, Note_on_c, 0, 45, 0
1, 31864, Note_on_c, 7, 61, 0
1, 31864, Note_on_c, 7, 57, 0
1, 31870, Note_on_c, 8, 64, 0
1, 31870, Note_on_c, 7, 64, 0
1, 31870, Note_on_c, 8, 61, 0
1, 31872, Note_on_c, 8, 57, 1
1, 31872, Note_on_c, 9, 42, 61
1, 31872, Note_on_c, 0, 40, 80
1, 31872, Note_on_c, 8, 61, 1
1, 31872, Note_on_c, 9, 37, 102
1, 31872, Note_on_c, 9, 40, 95
1, 31872, Note_on_c, 3, 61, 102
1, 31872, Note_on_c, 7, 57, 77
1, 31872, Note_on_c, 3, 57, 103
1, 31877, Note_on_c, 7, 61, 86
1, 31878, Note_on_c, 9, 40, 0
1, 31878, Note_on_c, 9, 37, 0
1, 31878, Note_on_c, 9, 42, 0
1, 31884, Note_on_c, 7, 64, 87
1, 31946, Note_on_c, 2, 71, 0
1, 31958, Lyric_t, "me  "
1, 31960, Note_on_c, 0, 40, 0
1, 31960, Note_on_c, 2, 69, 109
1, 31968, Note_on_c, 9, 42, 32
1, 31968, Note_on_c, 9, 40, 90
1, 31968, Note_on_c, 0, 42, 67
1, 31974, Note_on_c, 9, 40, 0
1, 31974, Note_on_c, 9, 42, 0
1, 32048, Note_on_c, 2, 69, 0
1, 32054, Note_on_c, 7, 57, 0
1, 32054, Lyric_t, "boy.  "
1, 32054, Lyric_t, "\015 "
1, 32056, Note_on_c, 0, 42, 0
1, 32056, Note_on_c, 2, 76, 111
1, 32060, Note_on_c, 7, 61, 0
1, 32064, Note_on_c, 9, 45, 74
1, 32064, Note_on_c, 7, 57, 57
1, 32064, Note_on_c, 9, 46, 58
1, 32064, Note_on_c, 9, 35, 89
1, 32064, Note_on_c, 0, 37, 85
1, 32066, Note_on_c, 7, 64, 0
1, 32069, Note_on_c, 7, 61, 74
1, 32070, Note_on_c, 9, 45, 0
1, 32070, Note_on_c, 9, 35, 0
1, 32070, Note_on_c, 9, 46, 0
1, 32076, Note_on_c, 7, 64, 76
1, 32152, Note_on_c, 0, 37, 0
1, 32154, Note_on_c, 7, 61, 0
1, 32158, Note_on_c, 7, 57, 0
1, 32160, Note_on_c, 0, 40, 67
1, 32164, Note_on_c, 7, 61, 64
1, 32168, Note_on_c, 7, 57, 52
1, 32236, Note_on_c, 1, 61, 0
1, 32236, Note_on_c, 1, 74, 0
1, 32236, Note_on_c, 1, 64, 0
1, 32236, Note_on_c, 1, 57, 0
1, 32244, Note_on_c, 7, 57, 0
1, 32244, Note_on_c, 7, 61, 0
1, 32244, Note_on_c, 1, 55, 78
1, 32244, Note_on_c, 1, 59, 81
1, 32244, Note_on_c, 1, 62, 74
1, 32244, Note_on_c, 1, 67, 79
1, 32246, Note_on_c, 7, 64, 0
1, 32248, Note_on_c, 3, 61, 0
1, 32248, Note_on_c, 0, 40, 0
1, 32248, Note_on_c, 3, 57, 0
1, 32254, Note_on_c, 8, 61, 0
1, 32254, Note_on_c, 8, 57, 0
1, 32256, Note_on_c, 7, 59, 83
1, 32256, Note_on_c, 5, 43, 87
1, 32256, Note_on_c, 0, 31, 109
1, 32256, Note_on_c, 9, 49, 78
1, 32256, Note_on_c, 9, 42, 90
1, 32256, Note_on_c, 9, 35, 114
1, 32256, Note_on_c, 3, 59, 109
1, 32256, Note_on_c, 8, 59, 1
1, 32256, Note_on_c, 9, 51, 53
1, 32261, Note_on_c, 7, 62, 92
1, 32262, Note_on_c, 9, 51, 0
1, 32262, Note_on_c, 9, 42, 0
1, 32262, Note_on_c, 9, 49, 0
1, 32262, Note_on_c, 9, 35, 0
1, 32268, Note_on_c, 7, 67, 102
1, 32344, Note_on_c, 3, 59, 0
1, 32350, Note_on_c, 8, 59, 0
1, 32352, Note_on_c, 3, 57, 99
1, 32352, Note_on_c, 8, 57, 1
1, 32438, Note_on_c, 7, 59, 0
1, 32440, Note_on_c, 5, 43, 0
1, 32444, Note_on_c, 7, 62, 0
1, 32448, Note_on_c, 9, 42, 70
1, 32448, Note_on_c, 7, 59, 74
1, 32448, Note_on_c, 9, 51, 58
1, 32448, Note_on_c, 5, 43, 85
1, 32450, Note_on_c, 7, 67, 0
1, 32453, Note_on_c, 7, 62, 81
1, 32454, Note_on_c, 9, 42, 0
1, 32454, Note_on_c, 9, 51, 0
1, 32460, Note_on_c, 7, 67, 96
1, 32630, Note_on_c, 7, 59, 0
1, 32636, Note_on_c, 7, 62, 0
1, 32640, Note_on_c, 9, 40, 89
1, 32640, Note_on_c, 5, 67, 97
1, 32640, Note_on_c, 5, 50, 98
1, 32640, Note_on_c, 5, 55, 99
1, 32640, Note_on_c, 9, 51, 56
1, 32640, Note_on_c, 9, 42, 83
1, 32640, Note_on_c, 7, 59, 89
1, 32642, Note_on_c, 7, 67, 0
1, 32645, Note_on_c, 7, 62, 93
1, 32646, Note_on_c, 9, 42, 0
1, 32646, Note_on_c, 9, 40, 0
1, 32646, Note_on_c, 9, 51, 0
1, 32652, Note_on_c, 7, 67, 100
1, 32730, Note_on_c, 0, 31, 0
1, 32734, Note_on_c, 3, 57, 0
1, 32822, Note_on_c, 7, 59, 0
1, 32828, Note_on_c, 7, 62, 0
1, 32832, Note_on_c, 0, 31, 81
1, 32832, Note_on_c, 7, 59, 71
1, 32832, Note_on_c, 9, 51, 54
1, 32832, Note_on_c, 9, 42, 63
1, 32834, Note_on_c, 7, 67, 0
1, 32837, Note_on_c, 7, 62, 83
1, 32838, Note_on_c, 9, 42, 0
1, 32838, Note_on_c, 9, 51, 0
1, 32844, Note_on_c, 7, 67, 91
1, 32866, Note_on_c, 0, 31, 0
1, 32882, Note_on_c, 2, 76, 0
1, 32922, Note_on_c, 5, 43, 0
1, 32922, Note_on_c, 7, 62, 0
1, 32926, Note_on_c, 7, 59, 0
1, 32928, Note_on_c, 9, 35, 90
1, 32928, Note_on_c, 0, 31, 83
1, 32932, Note_on_c, 7, 62, 81
1, 32934, Note_on_c, 9, 35, 0
1, 32936, Note_on_c, 7, 59, 69
1, 32962, Note_on_c, 0, 31, 0
1, 33004, Note_on_c, 1, 67, 0
1, 33004, Note_on_c, 1, 55, 0
1, 33004, Note_on_c, 1, 59, 0
1, 33004, Note_on_c, 1, 62, 0
1, 33006, Note_on_c, 5, 50, 0
1, 33010, Note_on_c, 7, 67, 0
1, 33012, Note_on_c, 7, 59, 0
1, 33012, Note_on_c, 1, 57, 75
1, 33012, Note_on_c, 1, 50, 77
1, 33012, Note_on_c, 1, 62, 74
1, 33012, Note_on_c, 1, 66, 77
1, 33020, Note_on_c, 7, 62, 0
1, 33022, Note_on_c, 8, 57, 0
1, 33024, Note_on_c, 8, 69, 1
1, 33024, Lyric_t, "Cow "
1, 33024, Note_on_c, 9, 42, 90
1, 33024, Note_on_c, 3, 66, 119
1, 33024, Note_on_c, 3, 69, 114
1, 33024, Note_on_c, 8, 74, 1
1, 33024, Note_on_c, 7, 57, 87
1, 33024, Note_on_c, 8, 66, 1
1, 33024, Note_on_c, 5, 45, 87
1, 33024, Note_on_c, 9, 51, 53
1, 33024, Note_on_c, 8, 78, 1
1, 33024, Note_on_c, 2, 78, 1
1, 33024, Note_on_c, 9, 35, 112
1, 33024, Note_on_c, 3, 74, 123
1, 33024, Note_on_c, 0, 38, 104
1, 33024, Note_on_c, 3, 78, 118
1, 33029, Note_on_c, 7, 62, 94
1, 33030, Note_on_c, 9, 35, 0
1, 33030, Note_on_c, 9, 51, 0
1, 33030, Note_on_c, 9, 42, 0
1, 33036, Note_on_c, 7, 66, 102
1, 33080, Note_on_c, 5, 67, 0
1, 33080, Note_on_c, 5, 55, 0
1, 33110, Note_on_c, 7, 66, 0
1, 33114, Note_on_c, 7, 62, 0
1, 33118, Note_on_c, 7, 57, 0
1, 33120, Note_on_c, 7, 66, 84
1, 33124, Note_on_c, 7, 62, 68
1, 33128, Note_on_c, 0, 38, 0
1, 33128, Note_on_c, 7, 57, 59
1, 33198, Note_on_c, 2, 78, 0
1, 33198, Note_on_c, 3, 66, 0
1, 33198, Note_on_c, 3, 78, 0
1, 33198, Note_on_c, 3, 74, 0
1, 33198, Note_on_c, 3, 69, 0
1, 33206, Note_on_c, 7, 57, 0
1, 33208, Note_on_c, 5, 45, 0
1, 33212, Note_on_c, 7, 62, 0
1, 33214, Note_on_c, 8, 78, 0
1, 33214, Note_on_c, 8, 69, 0
1, 33214, Note_on_c, 8, 74, 0
1, 33214, Note_on_c, 8, 66, 0
1, 33216, Note_on_c, 5, 45, 86
1, 33216, Lyric_t, "boys  "
1, 33216, Note_on_c, 9, 42, 66
1, 33216, Note_on_c, 8, 69, 1
1, 33216, Note_on_c, 8, 73, 1
1, 33216, Note_on_c, 8, 76, 1
1, 33216, Note_on_c, 3, 69, 116
1, 33216, Note_on_c, 9, 51, 59
1, 33216, Note_on_c, 3, 76, 122
1, 33216, Note_on_c, 9, 35, 99
1, 33216, Note_on_c, 8, 64, 1
1, 33216, Note_on_c, 7, 57, 69
1, 33216, Note_on_c, 2, 76, 1
1, 33216, Note_on_c, 3, 64, 121
1, 33216, Note_on_c, 0, 38, 99
1, 33216, Note_on_c, 3, 73, 122
1, 33218, Note_on_c, 7, 66, 0
1, 33221, Note_on_c, 7, 62, 80
1, 33222, Note_on_c, 9, 35, 0
1, 33222, Note_on_c, 9, 42, 0
1, 33222, Note_on_c, 9, 51, 0
1, 33228, Note_on_c, 7, 66, 88
1, 33302, Note_on_c, 7, 66, 0
1, 33306, Note_on_c, 7, 62, 0
1, 33310, Note_on_c, 7, 57, 0
1, 33312, Note_on_c, 7, 66, 92
1, 33316, Note_on_c, 7, 62, 80
1, 33320, Note_on_c, 7, 57, 75
1, 33390, Note_on_c, 2, 76, 0
1, 33390, Note_on_c, 3, 69, 0
1, 33390, Note_on_c, 3, 64, 0
1, 33390, Note_on_c, 3, 73, 0
1, 33390, Note_on_c, 3, 76, 0
1, 33400, Note_on_c, 7, 62, 0
1, 33400, Note_on_c, 7, 57, 0
1, 33406, Note_on_c, 8, 69, 0
1, 33406, Note_on_c, 7, 66, 0
1, 33406, Note_on_c, 8, 73, 0
1, 33406, Note_on_c, 8, 64, 0
1, 33406, Note_on_c, 8, 76, 0
1, 33408, Note_on_c, 5, 50, 102
1, 33408, Note_on_c, 8, 69, 1
1, 33408, Note_on_c, 9, 51, 53
1, 33408, Note_on_c, 5, 66, 94
1, 33408, Note_on_c, 8, 74, 1
1, 33408, Note_on_c, 3, 66, 110
1, 33408, Note_on_c, 3, 69, 111
1, 33408, Note_on_c, 3, 74, 110
1, 33408, Note_on_c, 2, 74, 1
1, 33408, Note_on_c, 5, 54, 101
1, 33408, Note_on_c, 8, 66, 1
1, 33408, Note_on_c, 9, 42, 87
1, 33408, Lyric_t, "and  "
1, 33408, Note_on_c, 8, 62, 1
1, 33408, Note_on_c, 7, 57, 85
1, 33408, Note_on_c, 9, 40, 91
1, 33408, Note_on_c, 3, 62, 111
1, 33413, Note_on_c, 7, 62, 90
1, 33414, Note_on_c, 9, 40, 0
1, 33414, Note_on_c, 9, 42, 0
1, 33414, Note_on_c, 9, 51, 0
1, 33420, Note_on_c, 7, 66, 103
1, 33568, Note_on_c, 3, 62, 0
1, 33568, Note_on_c, 2, 74, 0
1, 33568, Note_on_c, 3, 66, 0
1, 33568, Note_on_c, 3, 74, 0
1, 33568, Note_on_c, 3, 69, 0
1, 33590, Note_on_c, 7, 57, 0
1, 33596, Note_on_c, 7, 62, 0
1, 33598, Note_on_c, 8, 62, 0
1, 33598, Note_on_c, 8, 66, 0
1, 33598, Note_on_c, 8, 69, 0
1, 33598, Note_on_c, 8, 74, 0
1, 33600, Note_on_c, 8, 66, 1
1, 33600, Note_on_c, 3, 74, 114
1, 33600, Note_on_c, 3, 69, 113
1, 33600, Note_on_c, 8, 78, 1
1, 33600, Note_on_c, 8, 69, 1
1, 33600, Note_on_c, 9, 51, 57
1, 33600, Note_on_c, 2, 78, 1
1, 33600, Note_on_c, 8, 74, 1
1, 33600, Note_on_c, 9, 42, 65
1, 33600, Lyric_t, "kiss "
1, 33600, Note_on_c, 3, 78, 107
1, 33600, Note_on_c, 7, 57, 75
1, 33600, Note_on_c, 3, 66, 113
1, 33602, Note_on_c, 7, 66, 0
1, 33605, Note_on_c, 7, 62, 84
1, 33606, Note_on_c, 9, 42, 0
1, 33606, Note_on_c, 9, 51, 0
1, 33612, Note_on_c, 7, 66, 87
1, 33650, Note_on_c, 0, 38, 0
1, 33690, Note_on_c, 7, 62, 0
1, 33690, Note_on_c, 5, 45, 0
1, 33694, Note_on_c, 7, 57, 0
1, 33696, Note_on_c, 0, 38, 89
1, 33700, Note_on_c, 7, 62, 78
1, 33704, Note_on_c, 7, 57, 66
1, 33716, Note_on_c, 3, 66, 0
1, 33716, Note_on_c, 2, 78, 0
1, 33716, Note_on_c, 3, 78, 0
1, 33716, Note_on_c, 3, 69, 0
1, 33716, Note_on_c, 3, 74, 0
1, 33742, Note_on_c, 0, 38, 0
1, 33772, Note_on_c, 1, 57, 0
1, 33772, Note_on_c, 1, 50, 0
1, 33772, Note_on_c, 1, 62, 0
1, 33772, Note_on_c, 1, 66, 0
1, 33780, Note_on_c, 7, 62, 0
1, 33780, Note_on_c, 7, 57, 0
1, 33780, Note_on_c, 1, 64, 75
1, 33780, Note_on_c, 1, 52, 77
1, 33780, Note_on_c, 1, 57, 74
1, 33780, Note_on_c, 1, 61, 80
1, 33782, Note_on_c, 7, 66, 0
1, 33790, Note_on_c, 8, 78, 0
1, 33790, Note_on_c, 8, 74, 0
1, 33790, Note_on_c, 8, 69, 0
1, 33790, Note_on_c, 8, 66, 0
1, 33792, Note_on_c, 3, 69, 110
1, 33792, Note_on_c, 9, 42, 83
1, 33792, Note_on_c, 5, 45, 95
1, 33792, Note_on_c, 3, 73, 112
1, 33792, Note_on_c, 8, 73, 1
1, 33792, Note_on_c, 2, 76, 1
1, 33792, Note_on_c, 3, 76, 113
1, 33792, Note_on_c, 8, 76, 1
1, 33792, Note_on_c, 9, 35, 122
1, 33792, Lyric_t, "\015 "
1, 33792, Note_on_c, 0, 33, 108
1, 33792, Note_on_c, 3, 64, 111
1, 33792, Note_on_c, 8, 64, 1
1, 33792, Note_on_c, 7, 57, 83
1, 33792, Note_on_c, 9, 51, 57
1, 33792, Note_on_c, 8, 69, 1
1, 33792, Lyric_t, "es  "
1, 33797, Note_on_c, 7, 61, 95
1, 33798, Note_on_c, 9, 51, 0
1, 33798, Note_on_c, 9, 35, 0
1, 33798, Note_on_c, 9, 42, 0
1, 33802, Note_on_c, 5, 66, 0
1, 33802, Note_on_c, 5, 54, 0
1, 33802, Note_on_c, 5, 50, 0
1, 33804, Note_on_c, 7, 64, 103
1, 33974, Note_on_c, 7, 57, 0
1, 33976, Note_on_c, 5, 45, 0
1, 33980, Note_on_c, 7, 61, 0
1, 33984, Note_on_c, 5, 45, 100
1, 33984, Note_on_c, 9, 42, 70
1, 33984, Note_on_c, 7, 57, 76
1, 33984, Note_on_c, 9, 51, 51
1, 33986, Note_on_c, 7, 64, 0
1, 33989, Note_on_c, 7, 61, 87
1, 33990, Note_on_c, 9, 51, 0
1, 33990, Note_on_c, 9, 42, 0
1, 33996, Note_on_c, 7, 64, 88
1, 34166, Note_on_c, 7, 57, 0
1, 34172, Note_on_c, 7, 61, 0
1, 34176, Note_on_c, 9, 51, 56
1, 34176, Note_on_c, 5, 52, 95
1, 34176, Note_on_c, 7, 57, 90
1, 34176, Note_on_c, 9, 42, 85
1, 34176, Note_on_c, 9, 40, 91
1, 34176, Note_on_c, 5, 64, 99
1, 34176, Note_on_c, 5, 57, 100
1, 34178, Note_on_c, 7, 64, 0
1, 34181, Note_on_c, 7, 61, 99
1, 34182, Note_on_c, 9, 40, 0
1, 34182, Note_on_c, 9, 42, 0
1, 34182, Note_on_c, 9, 51, 0
1, 34188, Note_on_c, 7, 64, 107
1, 34358, Note_on_c, 7, 57, 0
1, 34361, Lyric_t, "Al "
1, 34364, Note_on_c, 7, 61, 0
1, 34364, Note_on_c, 2, 73, 111
1, 34368, Note_on_c, 9, 51, 58
1, 34368, Note_on_c, 7, 57, 72
1, 34368, Note_on_c, 9, 42, 64
1, 34370, Note_on_c, 7, 64, 0
1, 34373, Note_on_c, 7, 61, 81
1, 34374, Note_on_c, 9, 42, 0
1, 34374, Note_on_c, 9, 51, 0
1, 34380, Note_on_c, 7, 64, 91
1, 34424, Note_on_c, 2, 73, 0
1, 34436, Note_on_c, 0, 33, 0
1, 34457, Lyric_t, "ways  "
1, 34457, Note_on_c, 2, 73, 109
1, 34458, Note_on_c, 5, 45, 0
1, 34458, Note_on_c, 7, 61, 0
1, 34462, Note_on_c, 7, 57, 0
1, 34464, Note_on_c, 9, 35, 84
1, 34464, Note_on_c, 0, 33, 101
1, 34468, Note_on_c, 7, 61, 81
1, 34470, Note_on_c, 9, 35, 0
1, 34472, Note_on_c, 7, 57, 70
1, 34504, Note_on_c, 0, 33, 0
1, 34530, Note_on_c, 2, 73, 0
1, 34542, Note_on_c, 5, 52, 0
1, 34546, Note_on_c, 7, 64, 0
1, 34548, Note_on_c, 7, 57, 0
1, 34556, Note_on_c, 7, 61, 0
1, 34560, Lyric_t, "seem  "
1, 34560, Note_on_c, 9, 42, 90
1, 34560, Note_on_c, 2, 74, 112
1, 34560, Note_on_c, 5, 45, 88
1, 34560, Note_on_c, 9, 35, 117
1, 34560, Note_on_c, 7, 57, 87
1, 34560, Note_on_c, 9, 51, 57
1, 34560, Note_on_c, 0, 33, 103
1, 34565, Note_on_c, 7, 61, 87
1, 34566, Note_on_c, 9, 51, 0
1, 34566, Note_on_c, 9, 35, 0
1, 34566, Note_on_c, 9, 42, 0
1, 34572, Note_on_c, 7, 64, 102
1, 34616, Note_on_c, 5, 57, 0
1, 34616, Note_on_c, 5, 64, 0
1, 34638, Note_on_c, 0, 33, 0
1, 34646, Note_on_c, 7, 64, 0
1, 34650, Note_on_c, 7, 61, 0
1, 34654, Note_on_c, 7, 57, 0
1, 34656, Note_on_c, 7, 64, 81
1, 34660, Note_on_c, 7, 61, 71
1, 34664, Note_on_c, 7, 57, 58
1, 34742, Note_on_c, 7, 57, 0
1, 34742, Note_on_c, 2, 74, 0
1, 34744, Note_on_c, 5, 45, 0
1, 34748, Note_on_c, 7, 61, 0
1, 34748, Lyric_t, "to  "
1, 34749, Note_on_c, 2, 73, 109
1, 34752, Note_on_c, 9, 51, 53
1, 34752, Note_on_c, 0, 33, 103
1, 34752, Note_on_c, 7, 57, 67
1, 34752, Note_on_c, 9, 42, 65
1, 34752, Note_on_c, 5, 45, 86
1, 34752, Note_on_c, 9, 35, 100
1, 34754, Note_on_c, 7, 64, 0
1, 34757, Note_on_c, 7, 61, 78
1, 34758, Note_on_c, 9, 35, 0
1, 34758, Note_on_c, 9, 51, 0
1, 34758, Note_on_c, 9, 42, 0
1, 34764, Note_on_c, 7, 64, 86
1, 34838, Note_on_c, 7, 64, 0
1, 34840, Note_on_c, 2, 73, 0
1, 34842, Note_on_c, 7, 61, 0
1, 34846, Note_on_c, 7, 57, 0
1, 34848, Note_on_c, 2, 74, 111
1, 34848, Note_on_c, 7, 64, 91
1, 34848, Lyric_t, "bring  "
1, 34852, Note_on_c, 7, 61, 78
1, 34856, Note_on_c, 7, 57, 75
1, 34936, Note_on_c, 7, 57, 0
1, 34936, Note_on_c, 7, 61, 0
1, 34942, Note_on_c, 7, 64, 0
1, 34944, Note_on_c, 9, 51, 56
1, 34944, Note_on_c, 9, 40, 95
1, 34944, Note_on_c, 7, 57, 84
1, 34944, Note_on_c, 9, 42, 85
1, 34944, Note_on_c, 5, 57, 100
1, 34944, Note_on_c, 5, 64, 95
1, 34944, Note_on_c, 5, 52, 100
1, 34949, Note_on_c, 7, 61, 90
1, 34950, Note_on_c, 9, 42, 0
1, 34950, Note_on_c, 9, 40, 0
1, 34950, Note_on_c, 9, 51, 0
1, 34956, Note_on_c, 7, 64, 102
1, 35030, Note_on_c, 2, 74, 0
1, 35036, Lyric_t, "me  "
1, 35037, Note_on_c, 2, 76, 106
1, 35108, Note_on_c, 0, 33, 0
1, 35126, Note_on_c, 2, 76, 0
1, 35126, Note_on_c, 3, 73, 0
1, 35126, Note_on_c, 3, 69, 0
1, 35126, Note_on_c, 7, 57, 0
1, 35126, Note_on_c, 3, 64, 0
1, 35126, Note_on_c, 3, 76, 0
1, 35128, Note_on_c, 5, 52, 0
1, 35128, Note_on_c, 5, 45, 0
1, 35128, Note_on_c, 2, 76, 0
1, 35132, Note_on_c, 7, 61, 0
1, 35136, Note_on_c, 7, 57, 76
1, 35136, Note_on_c, 9, 51, 54
1, 35136, Note_on_c, 9, 46, 60
1, 35136, Note_on_c, 2, 73, 109
1, 35136, Note_on_c, 5, 52, 72
1, 35136, Lyric_t, "\015 "
1, 35136, Lyric_t, "down.  "
1, 35136, Note_on_c, 0, 38, 100
1, 35136, Note_on_c, 5, 45, 72
1, 35138, Note_on_c, 7, 64, 0
1, 35141, Note_on_c, 7, 61, 80
1, 35142, Note_on_c, 9, 46, 0
1, 35142, Note_on_c, 9, 51, 0
1, 35148, Note_on_c, 7, 64, 95
1, 35202, Note_on_c, 5, 45, 0
1, 35202, Note_on_c, 5, 52, 0
1, 35226, Note_on_c, 7, 61, 0
1, 35230, Note_on_c, 7, 57, 0
1, 35232, Note_on_c, 5, 52, 66
1, 35232, Note_on_c, 5, 45, 70
1, 35236, Note_on_c, 7, 61, 77
1, 35240, Note_on_c, 7, 57, 65
1, 35298, Note_on_c, 5, 45, 0
1, 35298, Note_on_c, 5, 52, 0
1, 35306, Note_on_c, 0, 38, 0
1, 35308, Note_on_c, 1, 57, 0
1, 35308, Note_on_c, 1, 61, 0
1, 35308, Note_on_c, 1, 52, 0
1, 35308, Note_on_c, 1, 64, 0
1, 35316, Note_on_c, 7, 61, 0
1, 35316, Note_on_c, 7, 57, 0
1, 35316, Note_on_c, 1, 62, 78
1, 35316, Note_on_c, 1, 55, 74
1, 35316, Note_on_c, 1, 59, 75
1, 35316, Note_on_c, 1, 67, 76
1, 35318, Note_on_c, 7, 64, 0
1, 35320, Note_on_c, 5, 64, 0
1, 35320, Note_on_c, 5, 57, 0
1, 35326, Note_on_c, 8, 76, 0
1, 35326, Note_on_c, 8, 73, 0
1, 35326, Note_on_c, 8, 64, 0
1, 35326, Note_on_c, 8, 69, 0
1, 35328, Note_on_c, 9, 51, 52
1, 35328, Note_on_c, 0, 31, 106
1, 35328, Note_on_c, 7, 59, 86
1, 35328, Note_on_c, 9, 35, 118
1, 35328, Note_on_c, 9, 42, 84
1, 35328, Note_on_c, 5, 55, 98
1, 35328, Note_on_c, 9, 49, 71
1, 35328, Note_on_c, 5, 43, 87
1, 35333, Note_on_c, 7, 62, 89
1, 35334, Note_on_c, 9, 49, 0
1, 35334, Note_on_c, 9, 35, 0
1, 35334, Note_on_c, 9, 51, 0
1, 35334, Note_on_c, 9, 42, 0
1, 35340, Note_on_c, 7, 67, 99
1, 35378, Note_on_c, 2, 73, 0
1, 35409, Note_on_c, 2, 71, 113
1, 35510, Note_on_c, 7, 59, 0
1, 35512, Note_on_c, 5, 43, 0
1, 35512, Note_on_c, 5, 55, 0
1, 35516, Note_on_c, 7, 62, 0
1, 35520, Note_on_c, 7, 59, 78
1, 35520, Note_on_c, 5, 43, 87
1, 35520, Note_on_c, 9, 51, 57
1, 35520, Note_on_c, 9, 42, 70
1, 35520, Note_on_c, 5, 55, 94
1, 35522, Note_on_c, 7, 67, 0
1, 35525, Note_on_c, 7, 62, 79
1, 35526, Note_on_c, 9, 42, 0
1, 35526, Note_on_c, 9, 51, 0
1, 35532, Note_on_c, 7, 67, 88
1, 35702, Note_on_c, 7, 59, 0
1, 35706, Note_on_c, 0, 31, 0
1, 35708, Note_on_c, 5, 55, 0
1, 35708, Note_on_c, 7, 62, 0
1, 35712, Note_on_c, 9, 40, 90
1, 35712, Note_on_c, 9, 51, 51
1, 35712, Note_on_c, 7, 59, 86
1, 35712, Note_on_c, 5, 67, 102
1, 35712, Note_on_c, 5, 50, 98
1, 35712, Note_on_c, 9, 42, 84
1, 35712, Note_on_c, 5, 55, 104
1, 35714, Note_on_c, 7, 67, 0
1, 35717, Note_on_c, 7, 62, 95
1, 35718, Note_on_c, 9, 51, 0
1, 35718, Note_on_c, 9, 40, 0
1, 35718, Note_on_c, 9, 42, 0
1, 35724, Note_on_c, 7, 67, 105
1, 35808, Note_on_c, 0, 31, 88
1, 35828, Note_on_c, 2, 71, 0
1, 35842, Note_on_c, 0, 31, 0
1, 35894, Note_on_c, 7, 59, 0
1, 35896, Note_on_c, 5, 50, 0
1, 35896, Note_on_c, 5, 55, 0
1, 35900, Note_on_c, 7, 62, 0
1, 35904, Note_on_c, 5, 50, 64
1, 35904, Note_on_c, 9, 51, 60
1, 35904, Note_on_c, 9, 42, 63
1, 35904, Note_on_c, 0, 35, 83
1, 35904, Note_on_c, 2, 69, 109
1, 35904, Note_on_c, 7, 59, 70
1, 35904, Lyric_t, "Like  "
1, 35904, Note_on_c, 5, 55, 82
1, 35906, Note_on_c, 7, 67, 0
1, 35909, Note_on_c, 7, 62, 78
1, 35910, Note_on_c, 9, 42, 0
1, 35910, Note_on_c, 9, 51, 0
1, 35916, Note_on_c, 7, 67, 90
1, 35970, Note_on_c, 0, 35, 0
1, 35974, Note_on_c, 2, 69, 0
1, 35986, Note_on_c, 5, 50, 0
1, 35986, Note_on_c, 5, 55, 0
1, 35994, Note_on_c, 5, 43, 0
1, 35994, Note_on_c, 7, 62, 0
1, 35998, Note_on_c, 7, 59, 0
1, 36000, Note_on_c, 9, 35, 87
1, 36000, Note_on_c, 2, 69, 102
1, 36000, Note_on_c, 5, 55, 78
1, 36000, Note_on_c, 0, 37, 77
1, 36000, Lyric_t, "a  "
1, 36000, Note_on_c, 5, 50, 64
1, 36004, Note_on_c, 7, 62, 79
1, 36006, Note_on_c, 9, 35, 0
1, 36008, Note_on_c, 7, 59, 64
1, 36066, Note_on_c, 0, 37, 0
1, 36070, Note_on_c, 2, 69, 0
1, 36076, Note_on_c, 1, 55, 0
1, 36076, Note_on_c, 1, 59, 0
1, 36076, Note_on_c, 1, 67, 0
1, 36076, Note_on_c, 1, 62, 0
1, 36082, Note_on_c, 7, 67, 0
1, 36082, Note_on_c, 5, 55, 0
1, 36082, Note_on_c, 5, 50, 0
1, 36084, Note_on_c, 7, 59, 0
1, 36084, Note_on_c, 1, 62, 75
1, 36084, Note_on_c, 1, 50, 78
1, 36084, Note_on_c, 1, 57, 79
1, 36084, Note_on_c, 1, 66, 80
1, 36089, Lyric_t, "weight  "
1, 36092, Note_on_c, 7, 62, 0
1, 36092, Note_on_c, 2, 78, 109
1, 36096, Note_on_c, 9, 42, 87
1, 36096, Note_on_c, 7, 57, 83
1, 36096, Note_on_c, 5, 55, 97
1, 36096, Note_on_c, 9, 51, 51
1, 36096, Note_on_c, 9, 35, 114
1, 36096, Note_on_c, 5, 45, 93
1, 36096, Note_on_c, 0, 38, 103
1, 36101, Note_on_c, 7, 62, 95
1, 36102, Note_on_c, 9, 35, 0
1, 36102, Note_on_c, 9, 51, 0
1, 36102, Note_on_c, 9, 42, 0
1, 36108, Note_on_c, 7, 66, 103
1, 36152, Note_on_c, 5, 67, 0
1, 36182, Note_on_c, 7, 66, 0
1, 36186, Note_on_c, 5, 55, 0
1, 36186, Note_on_c, 7, 62, 0
1, 36190, Note_on_c, 7, 57, 0
1, 36192, Note_on_c, 5, 54, 77
1, 36192, Note_on_c, 7, 66, 76
1, 36196, Note_on_c, 7, 62, 72
1, 36200, Note_on_c, 7, 57, 61
1, 36220, Note_on_c, 0, 38, 0
1, 36278, Note_on_c, 7, 57, 0
1, 36278, Note_on_c, 2, 78, 0
1, 36280, Note_on_c, 5, 54, 0
1, 36280, Note_on_c, 5, 45, 0
1, 36284, Note_on_c, 7, 62, 0
1, 36284, Lyric_t, "in  "
1, 36285, Note_on_c, 2, 76, 109
1, 36288, Note_on_c, 9, 42, 66
1, 36288, Note_on_c, 9, 35, 104
1, 36288, Note_on_c, 5, 54, 90
1, 36288, Note_on_c, 7, 57, 70
1, 36288, Note_on_c, 0, 38, 94
1, 36288, Note_on_c, 5, 45, 79
1, 36288, Note_on_c, 9, 51, 52
1, 36290, Note_on_c, 7, 66, 0
1, 36293, Note_on_c, 7, 62, 77
1, 36294, Note_on_c, 9, 35, 0
1, 36294, Note_on_c, 9, 51, 0
1, 36294, Note_on_c, 9, 42, 0
1, 36300, Note_on_c, 7, 66, 86
1, 36374, Note_on_c, 7, 66, 0
1, 36378, Note_on_c, 7, 62, 0
1, 36382, Note_on_c, 7, 57, 0
1, 36384, Note_on_c, 7, 66, 90
1, 36388, Note_on_c, 7, 62, 81
1, 36392, Note_on_c, 7, 57, 69
1, 36450, Note_on_c, 2, 76, 0
1, 36470, Lyric_t, "my  "
1, 36472, Note_on_c, 5, 54, 0
1, 36472, Note_on_c, 7, 57, 0
1, 36472, Note_on_c, 7, 62, 0
1, 36472, Note_on_c, 2, 74, 106
1, 36478, Note_on_c, 7, 66, 0
1, 36480, Note_on_c, 5, 54, 112
1, 36480, Note_on_c, 7, 57, 84
1, 36480, Note_on_c, 9, 42, 88
1, 36480, Note_on_c, 9, 51, 58
1, 36480, Note_on_c, 9, 40, 91
1, 36480, Note_on_c, 5, 50, 97
1, 36480, Note_on_c, 5, 66, 97
1, 36485, Note_on_c, 7, 62, 93
1, 36486, Note_on_c, 9, 40, 0
1, 36486, Note_on_c, 9, 42, 0
1, 36486, Note_on_c, 9, 51, 0
1, 36492, Note_on_c, 7, 66, 100
1, 36660, Note_on_c, 2, 74, 0
1, 36662, Note_on_c, 7, 57, 0
1, 36665, Lyric_t, "pock "
1, 36668, Note_on_c, 7, 62, 0
1, 36668, Note_on_c, 2, 78, 108
1, 36672, Note_on_c, 7, 57, 72
1, 36672, Note_on_c, 9, 42, 70
1, 36672, Note_on_c, 9, 51, 56
1, 36674, Note_on_c, 7, 66, 0
1, 36677, Note_on_c, 7, 62, 79
1, 36678, Note_on_c, 9, 51, 0
1, 36678, Note_on_c, 9, 42, 0
1, 36684, Note_on_c, 7, 66, 91
1, 36722, Note_on_c, 0, 38, 0
1, 36762, Note_on_c, 5, 45, 0
1, 36762, Note_on_c, 7, 62, 0
1, 36766, Note_on_c, 7, 57, 0
1, 36768, Note_on_c, 0, 38, 89
1, 36772, Note_on_c, 7, 62, 73
1, 36776, Note_on_c, 7, 57, 69
1, 36814, Note_on_c, 0, 38, 0
1, 36844, Note_on_c, 1, 57, 0
1, 36844, Note_on_c, 1, 62, 0
1, 36844, Note_on_c, 1, 66, 0
1, 36844, Note_on_c, 1, 50, 0
1, 36852, Note_on_c, 7, 62, 0
1, 36852, Note_on_c, 7, 57, 0
1, 36852, Note_on_c, 1, 64, 73
1, 36852, Note_on_c, 1, 52, 77
1, 36852, Note_on_c, 1, 61, 75
1, 36852, Note_on_c, 1, 57, 76
1, 36854, Note_on_c, 7, 66, 0
1, 36856, Note_on_c, 2, 78, 0
1, 36864, Note_on_c, 7, 57, 81
1, 36864, Note_on_c, 9, 51, 57
1, 36864, Note_on_c, 9, 42, 86
1, 36864, Note_on_c, 5, 45, 98
1, 36864, Lyric_t, "et  "
1, 36864, Note_on_c, 0, 33, 104
1, 36864, Lyric_t, "\015 "
1, 36864, Note_on_c, 2, 76, 113
1, 36864, Note_on_c, 9, 35, 116
1, 36869, Note_on_c, 7, 61, 90
1, 36870, Note_on_c, 9, 35, 0
1, 36870, Note_on_c, 9, 51, 0
1, 36870, Note_on_c, 9, 42, 0
1, 36874, Note_on_c, 5, 50, 0
1, 36874, Note_on_c, 5, 54, 0
1, 36874, Note_on_c, 5, 66, 0
1, 36876, Note_on_c, 7, 64, 101
1, 37046, Note_on_c, 7, 57, 0
1, 37048, Note_on_c, 5, 45, 0
1, 37052, Note_on_c, 7, 61, 0
1, 37056, Note_on_c, 9, 42, 64
1, 37056, Note_on_c, 5, 45, 95
1, 37056, Note_on_c, 7, 57, 73
1, 37056, Note_on_c, 9, 51, 54
1, 37058, Note_on_c, 7, 64, 0
1, 37061, Note_on_c, 7, 61, 82
1, 37062, Note_on_c, 9, 51, 0
1, 37062, Note_on_c, 9, 42, 0
1, 37068, Note_on_c, 7, 64, 88
1, 37238, Note_on_c, 7, 57, 0
1, 37244, Note_on_c, 7, 61, 0
1, 37248, Note_on_c, 9, 51, 52
1, 37248, Note_on_c, 5, 57, 96
1, 37248, Note_on_c, 5, 52, 91
1, 37248, Note_on_c, 9, 42, 89
1, 37248, Note_on_c, 7, 57, 83
1, 37248, Note_on_c, 5, 64, 99
1, 37248, Note_on_c, 9, 40, 91
1, 37250, Note_on_c, 7, 64, 0
1, 37253, Note_on_c, 7, 61, 101
1, 37254, Note_on_c, 9, 51, 0
1, 37254, Note_on_c, 9, 40, 0
1, 37254, Note_on_c, 9, 42, 0
1, 37260, Note_on_c, 7, 64, 107
1, 37430, Note_on_c, 7, 57, 0
1, 37432, Note_on_c, 2, 76, 0
1, 37436, Note_on_c, 7, 61, 0
1, 37440, Note_on_c, 2, 74, 108
1, 37440, Note_on_c, 9, 51, 52
1, 37440, Lyric_t, "ev "
1, 37440, Note_on_c, 9, 42, 67
1, 37440, Note_on_c, 7, 57, 76
1, 37442, Note_on_c, 7, 64, 0
1, 37445, Note_on_c, 7, 61, 83
1, 37446, Note_on_c, 9, 42, 0
1, 37446, Note_on_c, 9, 51, 0
1, 37452, Note_on_c, 7, 64, 95
1, 37508, Note_on_c, 0, 33, 0
1, 37528, Note_on_c, 2, 74, 0
1, 37530, Note_on_c, 5, 45, 0
1, 37530, Note_on_c, 7, 61, 0
1, 37534, Note_on_c, 7, 57, 0
1, 37536, Note_on_c, 0, 40, 101
1, 37536, Lyric_t, "ery  "
1, 37536, Note_on_c, 2, 73, 108
1, 37536, Note_on_c, 9, 35, 86
1, 37540, Note_on_c, 7, 61, 79
1, 37542, Note_on_c, 9, 35, 0
1, 37544, Note_on_c, 7, 57, 64
1, 37596, Note_on_c, 0, 40, 0
1, 37614, Note_on_c, 5, 52, 0
1, 37616, Note_on_c, 2, 73, 0
1, 37618, Note_on_c, 7, 64, 0
1, 37620, Note_on_c, 7, 57, 0
1, 37628, Note_on_c, 7, 61, 0
1, 37632, Note_on_c, 5, 45, 89
1, 37632, Note_on_c, 9, 51, 54
1, 37632, Note_on_c, 2, 74, 111
1, 37632, Lyric_t, "time  "
1, 37632, Note_on_c, 9, 42, 85
1, 37632, Note_on_c, 9, 35, 112
1, 37632, Note_on_c, 0, 33, 100
1, 37632, Note_on_c, 7, 57, 81
1, 37637, Note_on_c, 7, 61, 95
1, 37638, Note_on_c, 9, 35, 0
1, 37638, Note_on_c, 9, 42, 0
1, 37638, Note_on_c, 9, 51, 0
1, 37644, Note_on_c, 7, 64, 98
1, 37644, Note_on_c, 7, 69, 95
1, 37688, Note_on_c, 5, 57, 0
1, 37688, Note_on_c, 5, 64, 0
1, 37718, Note_on_c, 7, 64, 0
1, 37722, Note_on_c, 7, 61, 0
1, 37726, Note_on_c, 7, 57, 0
1, 37728, Note_on_c, 7, 64, 82
1, 37732, Note_on_c, 7, 61, 70
1, 37736, Note_on_c, 7, 57, 60
1, 37752, Note_on_c, 0, 33, 0
1, 37812, Note_on_c, 2, 74, 0
1, 37814, Note_on_c, 7, 57, 0
1, 37816, Note_on_c, 5, 45, 0
1, 37820, Note_on_c, 7, 61, 0
1, 37824, Note_on_c, 2, 73, 108
1, 37824, Note_on_c, 9, 51, 58
1, 37824, Note_on_c, 9, 35, 103
1, 37824, Note_on_c, 9, 46, 65
1, 37824, Note_on_c, 0, 33, 109
1, 37824, Note_on_c, 7, 57, 66
1, 37824, Lyric_t, "you  "
1, 37824, Note_on_c, 5, 45, 86
1, 37826, Note_on_c, 7, 64, 0
1, 37829, Note_on_c, 7, 61, 74
1, 37830, Note_on_c, 9, 46, 0
1, 37830, Note_on_c, 9, 51, 0
1, 37830, Note_on_c, 9, 35, 0
1, 37836, Note_on_c, 7, 64, 85
1, 37910, Note_on_c, 7, 64, 0
1, 37912, Note_on_c, 2, 73, 0
1, 37912, Note_on_c, 7, 69, 0
1, 37914, Note_on_c, 7, 61, 0
1, 37918, Note_on_c, 7, 57, 0
1, 37920, Note_on_c, 2, 74, 113
1, 37920, Lyric_t, "come  "
1, 37920, Note_on_c, 7, 64, 103
1, 37920, Note_on_c, 7, 69, 94
1, 37924, Note_on_c, 7, 61, 92
1, 37928, Note_on_c, 7, 57, 85
1, 38016, Note_on_c, 5, 57, 99
1, 38016, Note_on_c, 5, 64, 97
1, 38016, Note_on_c, 9, 51, 60
1, 38016, Note_on_c, 9, 42, 85
1, 38016, Note_on_c, 9, 40, 94
1, 38016, Note_on_c, 5, 52, 100
1, 38022, Note_on_c, 9, 40, 0
1, 38022, Note_on_c, 9, 42, 0
1, 38022, Note_on_c, 9, 51, 0
1, 38084, Note_on_c, 0, 33, 0
1, 38102, Note_on_c, 7, 64, 0
1, 38104, Note_on_c, 2, 74, 0
1, 38106, Note_on_c, 7, 61, 0
1, 38110, Note_on_c, 7, 57, 0
1, 38112, Lyric_t, "a "
1, 38112, Note_on_c, 0, 33, 100
1, 38112, Note_on_c, 7, 64, 71
1, 38112, Note_on_c, 2, 76, 106
1, 38116, Note_on_c, 7, 61, 66
1, 38120, Note_on_c, 7, 57, 60
1, 38198, Note_on_c, 7, 57, 0
1, 38200, Note_on_c, 5, 52, 0
1, 38200, Note_on_c, 5, 45, 0
1, 38204, Note_on_c, 7, 61, 0
1, 38208, Note_on_c, 9, 46, 63
1, 38208, Note_on_c, 7, 57, 69
1, 38208, Note_on_c, 5, 45, 70
1, 38208, Note_on_c, 5, 52, 70
1, 38208, Note_on_c, 9, 51, 58
1, 38210, Note_on_c, 7, 64, 0
1, 38212, Note_on_c, 7, 69, 0
1, 38213, Note_on_c, 7, 61, 82
1, 38214, Note_on_c, 9, 46, 0
1, 38214, Note_on_c, 9, 51, 0
1, 38220, Note_on_c, 7, 64, 94
1, 38220, Note_on_c, 7, 69, 81
1, 38274, Note_on_c, 5, 45, 0
1, 38274, Note_on_c, 5, 52, 0
1, 38280, Note_on_c, 2, 76, 0
1, 38288, Lyric_t, "round.  "
1, 38288, Note_on_c, 2, 73, 106
1, 38288, Lyric_t, "\015 "
1, 38302, Note_on_c, 7, 57, 0
1, 38304, Note_on_c, 5, 45, 69
1, 38304, Note_on_c, 5, 52, 67
1, 38312, Note_on_c, 7, 57, 55
1, 38370, Note_on_c, 5, 52, 0
1, 38370, Note_on_c, 5, 45, 0
1, 38378, Note_on_c, 0, 33, 0
1, 38380, Note_on_c, 1, 64, 0
1, 38380, Note_on_c, 1, 52, 0
1, 38380, Note_on_c, 1, 61, 0
1, 38380, Note_on_c, 1, 57, 0
1, 38388, Note_on_c, 7, 57, 0
1, 38388, Note_on_c, 1, 67, 73
1, 38388, Note_on_c, 1, 59, 76
1, 38388, Note_on_c, 1, 55, 80
1, 38388, Note_on_c, 1, 62, 75
1, 38390, Note_on_c, 7, 64, 0
1, 38390, Note_on_c, 7, 61, 0
1, 38390, Note_on_c, 7, 69, 0
1, 38392, Note_on_c, 5, 57, 0
1, 38392, Note_on_c, 5, 64, 0
1, 38400, Note_on_c, 7, 59, 84
1, 38400, Note_on_c, 9, 42, 83
1, 38400, Note_on_c, 0, 31, 106
1, 38400, Note_on_c, 9, 51, 53
1, 38400, Note_on_c, 5, 43, 93
1, 38400, Note_on_c, 9, 35, 121
1, 38400, Note_on_c, 9, 49, 73
1, 38405, Note_on_c, 7, 62, 92
1, 38406, Note_on_c, 9, 49, 0
1, 38406, Note_on_c, 9, 51, 0
1, 38406, Note_on_c, 9, 42, 0
1, 38406, Note_on_c, 9, 35, 0
1, 38412, Note_on_c, 7, 67, 104
1, 38582, Note_on_c, 7, 59, 0
1, 38582, Note_on_c, 2, 73, 0
1, 38584, Note_on_c, 5, 43, 0
1, 38588, Note_on_c, 7, 62, 0
1, 38589, Note_on_c, 2, 71, 112
1, 38592, Note_on_c, 7, 59, 75
1, 38592, Note_on_c, 9, 51, 52
1, 38592, Note_on_c, 9, 42, 64
1, 38592, Note_on_c, 5, 43, 87
1, 38594, Note_on_c, 7, 67, 0
1, 38597, Note_on_c, 7, 62, 87
1, 38598, Note_on_c, 9, 42, 0
1, 38598, Note_on_c, 9, 51, 0
1, 38604, Note_on_c, 7, 67, 91
1, 38774, Note_on_c, 7, 59, 0
1, 38776, Note_on_c, 2, 71, 0
1, 38778, Note_on_c, 0, 31, 0
1, 38780, Note_on_c, 7, 62, 0
1, 38784, Note_on_c, 9, 51, 53
1, 38784, Note_on_c, 9, 42, 88
1, 38784, Note_on_c, 9, 40, 88
1, 38784, Note_on_c, 5, 67, 95
1, 38784, Note_on_c, 2, 73, 111
1, 38784, Note_on_c, 5, 55, 95
1, 38784, Lyric_t, "Damn  "
1, 38784, Note_on_c, 7, 59, 84
1, 38784, Note_on_c, 5, 50, 92
1, 38786, Note_on_c, 7, 67, 0
1, 38789, Note_on_c, 7, 62, 98
1, 38790, Note_on_c, 9, 40, 0
1, 38790, Note_on_c, 9, 42, 0
1, 38790, Note_on_c, 9, 51, 0
1, 38796, Note_on_c, 7, 67, 102
1, 38880, Note_on_c, 0, 31, 83
1, 38914, Note_on_c, 0, 31, 0
1, 38952, Note_on_c, 2, 73, 0
1, 38966, Note_on_c, 7, 59, 0
1, 38968, Note_on_c, 5, 55, 0
1, 38968, Note_on_c, 5, 50, 0
1, 38972, Note_on_c, 7, 62, 0
1, 38976, Lyric_t, "those  "
1, 38976, Note_on_c, 5, 55, 72
1, 38976, Note_on_c, 5, 50, 67
1, 38976, Note_on_c, 7, 59, 69
1, 38976, Note_on_c, 9, 51, 52
1, 38976, Note_on_c, 0, 35, 78
1, 38976, Note_on_c, 9, 42, 69
1, 38976, Note_on_c, 2, 71, 110
1, 38978, Note_on_c, 7, 67, 0
1, 38981, Note_on_c, 7, 62, 77
1, 38982, Note_on_c, 9, 51, 0
1, 38982, Note_on_c, 9, 42, 0
1, 38988, Note_on_c, 7, 67, 93
1, 39042, Note_on_c, 0, 35, 0
1, 39058, Note_on_c, 5, 55, 0
1, 39058, Note_on_c, 5, 50, 0
1, 39066, Note_on_c, 5, 43, 0
1, 39066, Note_on_c, 7, 62, 0
1, 39070, Note_on_c, 7, 59, 0
1, 39072, Note_on_c, 5, 50, 68
1, 39072, Note_on_c, 0, 37, 80
1, 39072, Note_on_c, 5, 55, 67
1, 39072, Note_on_c, 9, 35, 87
1, 39076, Note_on_c, 7, 62, 73
1, 39078, Note_on_c, 9, 35, 0
1, 39080, Note_on_c, 7, 59, 66
1, 39138, Note_on_c, 0, 37, 0
1, 39148, Note_on_c, 1, 59, 0
1, 39148, Note_on_c, 1, 67, 0
1, 39148, Note_on_c, 1, 55, 0
1, 39148, Note_on_c, 2, 71, 0
1, 39148, Note_on_c, 1, 62, 0
1, 39154, Note_on_c, 5, 50, 0
1, 39154, Note_on_c, 5, 55, 0
1, 39154, Note_on_c, 7, 67, 0
1, 39156, Note_on_c, 7, 59, 0
1, 39156, Note_on_c, 1, 57, 77
1, 39156, Note_on_c, 1, 66, 76
1, 39156, Note_on_c, 1, 50, 74
1, 39156, Note_on_c, 1, 62, 78
1, 39164, Note_on_c, 7, 62, 0
1, 39168, Note_on_c, 5, 45, 93
1, 39168, Note_on_c, 3, 66, 121
1, 39168, Note_on_c, 8, 78, 1
1, 39168, Note_on_c, 8, 69, 1
1, 39168, Lyric_t, "cow "
1, 39168, Note_on_c, 7, 57, 84
1, 39168, Note_on_c, 8, 66, 1
1, 39168, Note_on_c, 0, 38, 103
1, 39168, Note_on_c, 3, 78, 118
1, 39168, Note_on_c, 3, 69, 117
1, 39168, Note_on_c, 5, 55, 87
1, 39168, Note_on_c, 9, 42, 90
1, 39168, Note_on_c, 9, 35, 116
1, 39168, Note_on_c, 9, 51, 53
1, 39169, Note_on_c, 2, 69, 111
1, 39173, Note_on_c, 7, 62, 93
1, 39174, Note_on_c, 9, 51, 0
1, 39174, Note_on_c, 9, 35, 0
1, 39174, Note_on_c, 9, 42, 0
1, 39180, Note_on_c, 7, 66, 97
1, 39224, Note_on_c, 5, 67, 0
1, 39254, Note_on_c, 7, 66, 0
1, 39258, Note_on_c, 7, 62, 0
1, 39258, Note_on_c, 5, 55, 0
1, 39262, Note_on_c, 7, 57, 0
1, 39264, Note_on_c, 5, 54, 69
1, 39264, Note_on_c, 7, 66, 83
1, 39268, Note_on_c, 7, 62, 69
1, 39272, Note_on_c, 7, 57, 61
1, 39292, Note_on_c, 0, 38, 0
1, 39342, Note_on_c, 3, 78, 0
1, 39342, Note_on_c, 3, 66, 0
1, 39342, Note_on_c, 3, 69, 0
1, 39350, Note_on_c, 7, 57, 0
1, 39352, Note_on_c, 5, 45, 0
1, 39352, Note_on_c, 5, 54, 0
1, 39356, Note_on_c, 7, 62, 0
1, 39358, Note_on_c, 8, 69, 0
1, 39358, Note_on_c, 8, 78, 0
1, 39358, Note_on_c, 8, 66, 0
1, 39358, Note_on_c, 2, 69, 0
1, 39360, Note_on_c, 9, 42, 68
1, 39360, Note_on_c, 8, 64, 1
1, 39360, Note_on_c, 9, 35, 100
1, 39360, Note_on_c, 0, 38, 96
1, 39360, Note_on_c, 3, 69, 116
1, 39360, Note_on_c, 9, 51, 51
1, 39360, Note_on_c, 8, 69, 1
1, 39360, Note_on_c, 3, 76, 119
1, 39360, Note_on_c, 5, 54, 85
1, 39360, Note_on_c, 3, 64, 115
1, 39360, Note_on_c, 7, 57, 67
1, 39360, Note_on_c, 8, 76, 1
1, 39360, Note_on_c, 5, 45, 80
1, 39362, Note_on_c, 7, 66, 0
1, 39363, Lyric_t, "boys  "
1, 39365, Note_on_c, 2, 71, 109
1, 39365, Note_on_c, 7, 62, 74
1, 39366, Note_on_c, 9, 51, 0
1, 39366, Note_on_c, 9, 35, 0
1, 39366, Note_on_c, 9, 42, 0
1, 39372, Note_on_c, 7, 66, 83
1, 39446, Note_on_c, 7, 66, 0
1, 39450, Note_on_c, 7, 62, 0
1, 39454, Note_on_c, 7, 57, 0
1, 39456, Note_on_c, 7, 66, 92
1, 39460, Note_on_c, 7, 62, 79
1, 39464, Note_on_c, 7, 57, 72
1, 39534, Note_on_c, 2, 71, 0
1, 39534, Note_on_c, 3, 69, 0
1, 39534, Note_on_c, 3, 76, 0
1, 39534, Note_on_c, 3, 64, 0
1, 39544, Note_on_c, 7, 57, 0
1, 39544, Note_on_c, 7, 62, 0
1, 39544, Note_on_c, 5, 54, 0
1, 39550, Note_on_c, 8, 76, 0
1, 39550, Note_on_c, 7, 66, 0
1, 39550, Note_on_c, 8, 69, 0
1, 39550, Note_on_c, 8, 64, 0
1, 39552, Note_on_c, 5, 66, 95
1, 39552, Note_on_c, 3, 66, 114
1, 39552, Note_on_c, 5, 54, 101
1, 39552, Note_on_c, 3, 62, 113
1, 39552, Note_on_c, 9, 40, 93
1, 39552, Note_on_c, 9, 42, 85
1, 39552, Note_on_c, 5, 50, 98
1, 39552, Note_on_c, 8, 66, 1
1, 39552, Note_on_c, 3, 74, 111
1, 39552, Note_on_c, 9, 51, 53
1, 39552, Note_on_c, 7, 57, 81
1, 39552, Note_on_c, 8, 74, 1
1, 39552, Note_on_c, 8, 62, 1
1, 39555, Lyric_t, "and  "
1, 39557, Note_on_c, 2, 73, 111
1, 39557, Note_on_c, 7, 62, 91
1, 39558, Note_on_c, 9, 51, 0
1, 39558, Note_on_c, 9, 42, 0
1, 39558, Note_on_c, 9, 40, 0
1, 39564, Note_on_c, 7, 66, 99
1, 39712, Note_on_c, 3, 62, 0
1, 39712, Note_on_c, 2, 73, 0
1, 39712, Note_on_c, 3, 66, 0
1, 39712, Note_on_c, 3, 74, 0
1, 39734, Note_on_c, 7, 57, 0
1, 39740, Note_on_c, 7, 62, 0
1, 39742, Note_on_c, 8, 62, 0
1, 39742, Note_on_c, 8, 74, 0
1, 39742, Note_on_c, 8, 66, 0
1, 39744, Note_on_c, 3, 66, 113
1, 39744, Note_on_c, 8, 69, 1
1, 39744, Note_on_c, 8, 78, 1
1, 39744, Note_on_c, 9, 42, 71
1, 39744, Note_on_c, 8, 66, 1
1, 39744, Note_on_c, 7, 57, 70
1, 39744, Note_on_c, 3, 78, 112
1, 39744, Note_on_c, 3, 69, 107
1, 39744, Note_on_c, 9, 51, 60
1, 39746, Note_on_c, 7, 66, 0
1, 39747, Lyric_t, "kiss "
1, 39749, Note_on_c, 2, 73, 110
1, 39749, Note_on_c, 7, 62, 85
1, 39750, Note_on_c, 9, 51, 0
1, 39750, Note_on_c, 9, 42, 0
1, 39756, Note_on_c, 7, 66, 89
1, 39794, Note_on_c, 0, 38, 0
1, 39834, Note_on_c, 5, 45, 0
1, 39834, Note_on_c, 7, 62, 0
1, 39838, Note_on_c, 7, 57, 0
1, 39840, Note_on_c, 0, 38, 92
1, 39844, Note_on_c, 7, 62, 74
1, 39848, Note_on_c, 7, 57, 63
1, 39860, Note_on_c, 3, 78, 0
1, 39860, Note_on_c, 3, 69, 0
1, 39860, Note_on_c, 3, 66, 0
1, 39886, Note_on_c, 0, 38, 0
1, 39914, Note_on_c, 2, 73, 0
1, 39916, Note_on_c, 1, 62, 0
1, 39916, Note_on_c, 1, 50, 0
1, 39916, Note_on_c, 1, 57, 0
1, 39916, Note_on_c, 1, 66, 0
1, 39924, Note_on_c, 7, 62, 0
1, 39924, Note_on_c, 7, 57, 0
1, 39924, Note_on_c, 1, 61, 76
1, 39924, Note_on_c, 1, 52, 79
1, 39924, Note_on_c, 1, 57, 80
1, 39924, Note_on_c, 1, 64, 80
1, 39926, Note_on_c, 7, 66, 0
1, 39934, Note_on_c, 8, 66, 0
1, 39934, Note_on_c, 8, 78, 0
1, 39934, Note_on_c, 8, 69, 0
1, 39936, Note_on_c, 3, 64, 114
1, 39936, Note_on_c, 7, 57, 80
1, 39936, Note_on_c, 8, 64, 1
1, 39936, Note_on_c, 5, 45, 94
1, 39936, Note_on_c, 3, 69, 117
1, 39936, Note_on_c, 3, 76, 118
1, 39936, Note_on_c, 0, 33, 103
1, 39936, Note_on_c, 9, 42, 88
1, 39936, Note_on_c, 9, 51, 52
1, 39936, Note_on_c, 8, 69, 1
1, 39936, Note_on_c, 8, 76, 1
1, 39936, Note_on_c, 9, 35, 115
1, 39941, Note_on_c, 7, 61, 95
1, 39942, Note_on_c, 9, 35, 0
1, 39942, Note_on_c, 9, 51, 0
1, 39942, Note_on_c, 9, 42, 0
1, 39942, Lyric_t, "\015 "
1, 39942, Lyric_t, "es  "
1, 39944, Note_on_c, 2, 71, 111
1, 39946, Note_on_c, 5, 54, 0
1, 39946, Note_on_c, 5, 50, 0
1, 39946, Note_on_c, 5, 66, 0
1, 39948, Note_on_c, 7, 64, 99
1, 40118, Note_on_c, 7, 57, 0
1, 40120, Note_on_c, 5, 45, 0
1, 40124, Note_on_c, 7, 61, 0
1, 40128, Note_on_c, 5, 45, 100
1, 40128, Note_on_c, 7, 57, 77
1, 40128, Note_on_c, 9, 51, 53
1, 40128, Note_on_c, 9, 42, 70
1, 40130, Note_on_c, 7, 64, 0
1, 40133, Note_on_c, 7, 61, 80
1, 40134, Note_on_c, 9, 42, 0
1, 40134, Note_on_c, 9, 51, 0
1, 40140, Note_on_c, 7, 64, 91
1, 40214, Note_on_c, 3, 64, 0
1, 40214, Note_on_c, 8, 64, 0
1, 40224, Note_on_c, 8, 59, 1
1, 40224, Note_on_c, 3, 59, 104
1, 40296, Note_on_c, 2, 71, 0
1, 40310, Note_on_c, 3, 59, 0
1, 40310, Note_on_c, 8, 59, 0
1, 40310, Note_on_c, 7, 57, 0
1, 40316, Note_on_c, 7, 61, 0
1, 40320, Note_on_c, 9, 40, 95
1, 40320, Note_on_c, 3, 57, 118
1, 40320, Note_on_c, 7, 57, 85
1, 40320, Note_on_c, 9, 42, 86
1, 40320, Note_on_c, 5, 64, 100
1, 40320, Note_on_c, 5, 57, 102
1, 40320, Note_on_c, 5, 52, 91
1, 40320, Note_on_c, 2, 69, 107
1, 40320, Note_on_c, 9, 51, 55
1, 40320, Note_on_c, 8, 57, 1
1, 40322, Note_on_c, 7, 64, 0
1, 40325, Note_on_c, 7, 61, 92
1, 40326, Note_on_c, 9, 51, 0
1, 40326, Note_on_c, 9, 42, 0
1, 40326, Note_on_c, 9, 40, 0
1, 40332, Note_on_c, 7, 64, 103
1, 40502, Note_on_c, 7, 57, 0
1, 40508, Note_on_c, 7, 61, 0
1, 40512, Note_on_c, 9, 51, 54
1, 40512, Note_on_c, 7, 57, 71
1, 40512, Note_on_c, 9, 42, 61
1, 40514, Note_on_c, 7, 64, 0
1, 40517, Note_on_c, 7, 61, 79
1, 40518, Note_on_c, 9, 42, 0
1, 40518, Note_on_c, 9, 51, 0
1, 40524, Note_on_c, 7, 64, 92
1, 40580, Note_on_c, 0, 33, 0
1, 40602, Note_on_c, 5, 45, 0
1, 40602, Note_on_c, 7, 61, 0
1, 40606, Note_on_c, 7, 57, 0
1, 40608, Note_on_c, 0, 40, 99
1, 40608, Note_on_c, 9, 35, 90
1, 40612, Note_on_c, 7, 61, 73
1, 40614, Note_on_c, 9, 35, 0
1, 40616, Note_on_c, 7, 57, 64
1, 40668, Note_on_c, 0, 40, 0
1, 40686, Note_on_c, 2, 69, 0
1, 40686, Note_on_c, 5, 52, 0
1, 40690, Note_on_c, 7, 64, 0
1, 40692, Note_on_c, 7, 57, 0
1, 40700, Note_on_c, 7, 61, 0
1, 40704, Note_on_c, 9, 51, 53
1, 40704, Note_on_c, 7, 57, 82
1, 40704, Note_on_c, 0, 33, 106
1, 40704, Note_on_c, 5, 45, 87
1, 40704, Note_on_c, 2, 64, 102
1, 40704, Note_on_c, 9, 35, 116
1, 40704, Note_on_c, 9, 42, 83
1, 40709, Note_on_c, 7, 61, 89
1, 40710, Note_on_c, 9, 42, 0
1, 40710, Note_on_c, 9, 35, 0
1, 40710, Note_on_c, 9, 51, 0
1, 40716, Note_on_c, 7, 64, 102
1, 40760, Note_on_c, 5, 64, 0
1, 40760, Note_on_c, 5, 57, 0
1, 40790, Note_on_c, 7, 64, 0
1, 40794, Note_on_c, 7, 61, 0
1, 40798, Note_on_c, 7, 57, 0
1, 40800, Note_on_c, 7, 64, 78
1, 40804, Note_on_c, 7, 61, 72
1, 40808, Note_on_c, 7, 57, 63
1, 40824, Note_on_c, 0, 33, 0
1, 40886, Note_on_c, 7, 57, 0
1, 40888, Note_on_c, 5, 45, 0
1, 40892, Note_on_c, 7, 61, 0
1, 40896, Note_on_c, 9, 35, 105
1, 40896, Note_on_c, 9, 42, 70
1, 40896, Note_on_c, 7, 57, 65
1, 40896, Note_on_c, 0, 33, 104
1, 40896, Note_on_c, 5, 45, 82
1, 40896, Note_on_c, 9, 51, 57
1, 40898, Note_on_c, 7, 64, 0
1, 40901, Note_on_c, 7, 61, 72
1, 40902, Note_on_c, 9, 51, 0
1, 40902, Note_on_c, 9, 42, 0
1, 40902, Note_on_c, 9, 35, 0
1, 40908, Note_on_c, 7, 64, 82
1, 40974, Note_on_c, 2, 64, 0
1, 40982, Note_on_c, 7, 64, 0
1, 40986, Note_on_c, 7, 61, 0
1, 40990, Note_on_c, 7, 57, 0
1, 40992, Note_on_c, 7, 64, 88
1, 40996, Note_on_c, 7, 61, 80
1, 41000, Note_on_c, 7, 57, 69
1, 41078, Note_on_c, 3, 57, 0
1, 41078, Note_on_c, 3, 69, 0
1, 41078, Note_on_c, 8, 69, 0
1, 41078, Note_on_c, 3, 76, 0
1, 41078, Note_on_c, 8, 76, 0
1, 41080, Note_on_c, 7, 61, 0
1, 41080, Note_on_c, 7, 57, 0
1, 41086, Note_on_c, 7, 64, 0
1, 41088, Note_on_c, 5, 52, 99
1, 41088, Note_on_c, 5, 64, 97
1, 41088, Note_on_c, 7, 57, 81
1, 41088, Note_on_c, 5, 57, 98
1, 41088, Note_on_c, 9, 40, 88
1, 41088, Note_on_c, 9, 51, 54
1, 41088, Note_on_c, 9, 42, 84
1, 41093, Note_on_c, 7, 61, 93
1, 41094, Note_on_c, 9, 42, 0
1, 41094, Note_on_c, 9, 51, 0
1, 41094, Note_on_c, 9, 40, 0
1, 41100, Note_on_c, 7, 64, 103
1, 41156, Note_on_c, 0, 33, 0
1, 41182, Note_on_c, 8, 57, 0
1, 41184, Note_on_c, 0, 35, 101
1, 41270, Note_on_c, 7, 57, 0
1, 41272, Note_on_c, 5, 52, 0
1, 41272, Note_on_c, 5, 45, 0
1, 41276, Note_on_c, 7, 61, 0
1, 41280, Note_on_c, 5, 52, 71
1, 41280, Note_on_c, 9, 46, 64
1, 41280, Note_on_c, 9, 51, 57
1, 41280, Note_on_c, 7, 57, 69
1, 41280, Note_on_c, 5, 45, 72
1, 41282, Note_on_c, 7, 64, 0
1, 41285, Note_on_c, 7, 61, 80
1, 41286, Note_on_c, 9, 51, 0
1, 41286, Note_on_c, 9, 46, 0
1, 41292, Note_on_c, 7, 64, 90
1, 41346, Note_on_c, 5, 52, 0
1, 41346, Note_on_c, 5, 45, 0
1, 41370, Note_on_c, 7, 61, 0
1, 41374, Note_on_c, 7, 57, 0
1, 41376, Note_on_c, 5, 52, 66
1, 41376, Note_on_c, 5, 45, 70
1, 41380, Note_on_c, 7, 61, 78
1, 41384, Note_on_c, 7, 57, 65
1, 41442, Note_on_c, 5, 45, 0
1, 41442, Note_on_c, 5, 52, 0
1, 41450, Note_on_c, 0, 35, 0
1, 41452, Note_on_c, 1, 57, 0
1, 41452, Note_on_c, 1, 64, 0
1, 41452, Note_on_c, 1, 52, 0
1, 41452, Note_on_c, 1, 61, 0
1, 41460, Note_on_c, 7, 61, 0
1, 41460, Note_on_c, 7, 57, 0
1, 41460, Note_on_c, 1, 55, 73
1, 41460, Note_on_c, 1, 62, 79
1, 41460, Note_on_c, 1, 59, 74
1, 41460, Note_on_c, 1, 67, 73
1, 41462, Note_on_c, 7, 64, 0
1, 41464, Note_on_c, 5, 64, 0
1, 41464, Note_on_c, 5, 57, 0
1, 41472, Note_on_c, 9, 51, 58
1, 41472, Note_on_c, 9, 49, 70
1, 41472, Note_on_c, 2, 71, 111
1, 41472, Note_on_c, 9, 35, 119
1, 41472, Note_on_c, 3, 62, 115
1, 41472, Note_on_c, 0, 31, 111
1, 41472, Lyric_t, "Got "
1, 41472, Note_on_c, 8, 74, 1
1, 41472, Note_on_c, 8, 67, 1
1, 41472, Note_on_c, 8, 62, 1
1, 41472, Note_on_c, 9, 42, 88
1, 41472, Note_on_c, 3, 67, 115
1, 41472, Note_on_c, 5, 43, 87
1, 41472, Note_on_c, 7, 59, 81
1, 41472, Note_on_c, 3, 74, 111
1, 41477, Note_on_c, 7, 62, 95
1, 41478, Note_on_c, 9, 42, 0
1, 41478, Note_on_c, 9, 49, 0
1, 41478, Note_on_c, 9, 35, 0
1, 41478, Note_on_c, 9, 51, 0
1, 41484, Note_on_c, 7, 67, 99
1, 41544, Note_on_c, 2, 71, 0
1, 41560, Note_on_c, 3, 74, 0
1, 41560, Note_on_c, 3, 62, 0
1, 41560, Note_on_c, 3, 67, 0
1, 41564, Lyric_t, "ta  "
1, 41565, Note_on_c, 2, 71, 112
1, 41566, Note_on_c, 8, 74, 0
1, 41566, Note_on_c, 8, 62, 0
1, 41566, Note_on_c, 8, 67, 0
1, 41568, Note_on_c, 8, 67, 1
1, 41568, Note_on_c, 8, 73, 1
1, 41568, Note_on_c, 3, 67, 103
1, 41568, Note_on_c, 3, 73, 102
1, 41568, Note_on_c, 3, 61, 104
1, 41568, Note_on_c, 8, 61, 1
1, 41638, Note_on_c, 2, 71, 0
1, 41646, Note_on_c, 3, 61, 0
1, 41646, Note_on_c, 3, 73, 0
1, 41646, Note_on_c, 3, 67, 0
1, 41654, Note_on_c, 7, 59, 0
1, 41656, Note_on_c, 5, 43, 0
1, 41657, Lyric_t, "find  "
1, 41660, Note_on_c, 7, 62, 0
1, 41660, Note_on_c, 2, 71, 109
1, 41662, Note_on_c, 8, 61, 0
1, 41662, Note_on_c, 8, 67, 0
1, 41662, Note_on_c, 8, 73, 0
1, 41664, Note_on_c, 3, 62, 108
1, 41664, Note_on_c, 9, 42, 70
1, 41664, Note_on_c, 3, 74, 100
1, 41664, Note_on_c, 8, 62, 1
1, 41664, Note_on_c, 9, 51, 59
1, 41664, Note_on_c, 7, 59, 79
1, 41664, Note_on_c, 8, 67, 1
1, 41664, Note_on_c, 5, 43, 89
1, 41664, Note_on_c, 3, 67, 104
1, 41664, Note_on_c, 8, 74, 1
1, 41666, Note_on_c, 7, 67, 0
1, 41669, Note_on_c, 7, 62, 85
1, 41670, Note_on_c, 9, 42, 0
1, 41670, Note_on_c, 9, 51, 0
1, 41676, Note_on_c, 7, 67, 95
1, 41738, Note_on_c, 2, 71, 0
1, 41752, Note_on_c, 3, 67, 0
1, 41752, Note_on_c, 3, 62, 0
1, 41752, Note_on_c, 3, 74, 0
1, 41753, Lyric_t, "my "
1, 41753, Note_on_c, 2, 71, 109
1, 41758, Note_on_c, 8, 74, 0
1, 41758, Note_on_c, 8, 62, 0
1, 41758, Note_on_c, 8, 67, 0
1, 41760, Note_on_c, 3, 73, 105
1, 41760, Note_on_c, 8, 67, 1
1, 41760, Note_on_c, 3, 67, 104
1, 41760, Note_on_c, 8, 73, 1
1, 41760, Note_on_c, 3, 61, 105
1, 41760, Note_on_c, 8, 61, 1
1, 41834, Note_on_c, 2, 71, 0
1, 41838, Note_on_c, 3, 73, 0
1, 41838, Note_on_c, 3, 61, 0
1, 41838, Note_on_c, 3, 67, 0
1, 41846, Note_on_c, 7, 59, 0
1, 41850, Note_on_c, 0, 31, 0
1, 41852, Note_on_c, 7, 62, 0
1, 41854, Note_on_c, 8, 61, 0
1, 41854, Note_on_c, 8, 67, 0
1, 41854, Note_on_c, 8, 73, 0
1, 41856, Note_on_c, 8, 74, 1
1, 41856, Note_on_c, 8, 62, 1
1, 41856, Note_on_c, 3, 74, 117
1, 41856, Note_on_c, 9, 42, 82
1, 41856, Note_on_c, 9, 51, 54
1, 41856, Note_on_c, 8, 67, 1
1, 41856, Note_on_c, 5, 67, 97
1, 41856, Note_on_c, 9, 40, 93
1, 41856, Note_on_c, 5, 50, 93
1, 41856, Note_on_c, 5, 55, 99
1, 41856, Note_on_c, 3, 67, 117
1, 41856, Note_on_c, 3, 62, 112
1, 41856, Note_on_c, 7, 59, 83
1, 41856, Lyric_t, "self  "
1, 41856, Lyric_t, "\015 "
1, 41857, Note_on_c, 2, 71, 113
1, 41858, Note_on_c, 7, 67, 0
1, 41861, Note_on_c, 7, 62, 100
1, 41862, Note_on_c, 9, 51, 0
1, 41862, Note_on_c, 9, 42, 0
1, 41862, Note_on_c, 9, 40, 0
1, 41868, Note_on_c, 7, 67, 99
1, 41952, Note_on_c, 0, 31, 84
1, 41986, Note_on_c, 0, 31, 0
1, 42018, Note_on_c, 2, 71, 0
1, 42030, Note_on_c, 3, 62, 0
1, 42030, Note_on_c, 3, 67, 0
1, 42030, Note_on_c, 3, 74, 0
1, 42038, Note_on_c, 7, 59, 0
1, 42040, Note_on_c, 5, 55, 0
1, 42040, Note_on_c, 5, 50, 0
1, 42044, Note_on_c, 7, 62, 0
1, 42048, Note_on_c, 5, 50, 68
1, 42048, Note_on_c, 3, 62, 106
1, 42048, Note_on_c, 3, 74, 106
1, 42048, Note_on_c, 7, 59, 74
1, 42048, Note_on_c, 3, 67, 109
1, 42048, Note_on_c, 5, 55, 75
1, 42048, Note_on_c, 9, 51, 57
1, 42048, Note_on_c, 0, 35, 85
1, 42048, Note_on_c, 9, 42, 68
1, 42050, Note_on_c, 7, 67, 0
1, 42051, Lyric_t, "ev "
1, 42053, Note_on_c, 2, 71, 106
1, 42053, Note_on_c, 7, 62, 84
1, 42054, Note_on_c, 9, 42, 0
1, 42054, Note_on_c, 9, 51, 0
1, 42060, Note_on_c, 7, 67, 90
1, 42114, Note_on_c, 0, 35, 0
1, 42130, Note_on_c, 5, 50, 0
1, 42130, Note_on_c, 5, 55, 0
1, 42136, Note_on_c, 3, 67, 0
1, 42136, Note_on_c, 3, 62, 0
1, 42136, Note_on_c, 3, 74, 0
1, 42138, Note_on_c, 7, 62, 0
1, 42138, Note_on_c, 5, 43, 0
1, 42142, Note_on_c, 2, 71, 0
1, 42142, Note_on_c, 8, 62, 0
1, 42142, Note_on_c, 8, 74, 0
1, 42142, Note_on_c, 8, 67, 0
1, 42142, Note_on_c, 7, 59, 0
1, 42144, Note_on_c, 3, 67, 101
1, 42144, Note_on_c, 8, 61, 1
1, 42144, Note_on_c, 3, 73, 97
1, 42144, Note_on_c, 3, 61, 102
1, 42144, Note_on_c, 9, 35, 84
1, 42144, Note_on_c, 5, 55, 69
1, 42144, Note_on_c, 8, 67, 1
1, 42144, Note_on_c, 8, 73, 1
1, 42144, Note_on_c, 0, 37, 78
1, 42144, Note_on_c, 5, 50, 64
1, 42147, Lyric_t, "ery "
1, 42148, Note_on_c, 7, 62, 73
1, 42149, Note_on_c, 2, 73, 109
1, 42150, Note_on_c, 9, 35, 0
1, 42152, Note_on_c, 7, 59, 68
1, 42210, Note_on_c, 0, 37, 0
1, 42220, Note_on_c, 1, 62, 0
1, 42220, Note_on_c, 1, 59, 0
1, 42220, Note_on_c, 1, 55, 0
1, 42220, Note_on_c, 1, 67, 0
1, 42226, Note_on_c, 5, 50, 0
1, 42226, Note_on_c, 7, 67, 0
1, 42226, Note_on_c, 5, 55, 0
1, 42228, Note_on_c, 7, 59, 0
1, 42228, Note_on_c, 1, 66, 80
1, 42228, Note_on_c, 1, 50, 74
1, 42228, Note_on_c, 1, 57, 80
1, 42228, Note_on_c, 1, 62, 77
1, 42232, Note_on_c, 3, 73, 0
1, 42232, Note_on_c, 3, 61, 0
1, 42232, Note_on_c, 3, 67, 0
1, 42236, Note_on_c, 7, 62, 0
1, 42238, Note_on_c, 8, 67, 0
1, 42238, Note_on_c, 8, 61, 0
1, 42238, Note_on_c, 8, 73, 0
1, 42238, Note_on_c, 2, 73, 0
1, 42240, Note_on_c, 8, 74, 1
1, 42240, Note_on_c, 3, 66, 112
1, 42240, Note_on_c, 0, 38, 103
1, 42240, Note_on_c, 8, 66, 1
1, 42240, Note_on_c, 5, 45, 91
1, 42240, Note_on_c, 3, 74, 114
1, 42240, Note_on_c, 8, 62, 1
1, 42240, Note_on_c, 3, 62, 112
1, 42240, Note_on_c, 9, 35, 115
1, 42240, Note_on_c, 9, 42, 83
1, 42240, Note_on_c, 9, 51, 56
1, 42240, Note_on_c, 5, 55, 89
1, 42240, Note_on_c, 7, 57, 82
1, 42243, Lyric_t, "time  "
1, 42245, Note_on_c, 7, 62, 95
1, 42245, Note_on_c, 2, 71, 110
1, 42246, Note_on_c, 9, 51, 0
1, 42246, Note_on_c, 9, 42, 0
1, 42246, Note_on_c, 9, 35, 0
1, 42252, Note_on_c, 7, 66, 98
1, 42296, Note_on_c, 5, 67, 0
1, 42326, Note_on_c, 7, 66, 0
1, 42330, Note_on_c, 7, 62, 0
1, 42330, Note_on_c, 5, 55, 0
1, 42334, Note_on_c, 7, 57, 0
1, 42336, Note_on_c, 5, 54, 68
1, 42336, Note_on_c, 7, 66, 82
1, 42340, Note_on_c, 7, 62, 73
1, 42344, Note_on_c, 7, 57, 58
1, 42364, Note_on_c, 0, 38, 0
1, 42414, Note_on_c, 3, 74, 0
1, 42414, Note_on_c, 3, 66, 0
1, 42414, Note_on_c, 3, 62, 0
1, 42418, Note_on_c, 2, 71, 0
1, 42422, Note_on_c, 7, 57, 0
1, 42424, Note_on_c, 5, 45, 0
1, 42424, Note_on_c, 5, 54, 0
1, 42428, Note_on_c, 7, 62, 0
1, 42430, Note_on_c, 8, 74, 0
1, 42430, Note_on_c, 8, 66, 0
1, 42430, Note_on_c, 8, 62, 0
1, 42432, Note_on_c, 7, 57, 64
1, 42432, Note_on_c, 8, 64, 1
1, 42432, Note_on_c, 5, 54, 84
1, 42432, Note_on_c, 3, 61, 103
1, 42432, Note_on_c, 9, 35, 104
1, 42432, Note_on_c, 9, 51, 51
1, 42432, Note_on_c, 8, 61, 1
1, 42432, Note_on_c, 3, 73, 104
1, 42432, Note_on_c, 9, 42, 64
1, 42432, Note_on_c, 0, 38, 97
1, 42432, Note_on_c, 3, 64, 100
1, 42432, Note_on_c, 8, 73, 1
1, 42432, Note_on_c, 5, 45, 77
1, 42434, Note_on_c, 7, 66, 0
1, 42437, Note_on_c, 7, 62, 73
1, 42438, Note_on_c, 9, 51, 0
1, 42438, Note_on_c, 9, 35, 0
1, 42438, Note_on_c, 9, 42, 0
1, 42438, Lyric_t, "you  "
1, 42440, Note_on_c, 2, 69, 105
1, 42444, Note_on_c, 7, 66, 85
1, 42508, Note_on_c, 2, 69, 0
1, 42518, Note_on_c, 7, 66, 0
1, 42520, Note_on_c, 3, 64, 0
1, 42520, Note_on_c, 3, 61, 0
1, 42520, Note_on_c, 3, 73, 0
1, 42522, Note_on_c, 7, 62, 0
1, 42526, Note_on_c, 8, 73, 0
1, 42526, Note_on_c, 8, 61, 0
1, 42526, Note_on_c, 8, 64, 0
1, 42526, Note_on_c, 7, 57, 0
1, 42528, Note_on_c, 8, 62, 1
1, 42528, Note_on_c, 3, 74, 107
1, 42528, Note_on_c, 7, 66, 86
1, 42528, Note_on_c, 8, 66, 1
1, 42528, Note_on_c, 8, 74, 1
1, 42528, Note_on_c, 3, 62, 112
1, 42528, Note_on_c, 3, 66, 110
1, 42532, Note_on_c, 7, 62, 79
1, 42536, Note_on_c, 7, 57, 71
1, 42537, Lyric_t, "go  "
1, 42540, Note_on_c, 2, 69, 109
1, 42616, Note_on_c, 7, 57, 0
1, 42616, Note_on_c, 7, 62, 0
1, 42616, Note_on_c, 5, 54, 0
1, 42622, Note_on_c, 7, 66, 0
1, 42624, Note_on_c, 5, 50, 98
1, 42624, Note_on_c, 5, 66, 96
1, 42624, Note_on_c, 9, 40, 90
1, 42624, Note_on_c, 9, 42, 83
1, 42624, Note_on_c, 5, 54, 97
1, 42624, Note_on_c, 7, 57, 85
1, 42624, Note_on_c, 9, 51, 59
1, 42629, Note_on_c, 7, 62, 97
1, 42630, Note_on_c, 9, 51, 0
1, 42630, Note_on_c, 9, 42, 0
1, 42630, Note_on_c, 9, 40, 0
1, 42636, Note_on_c, 7, 66, 105
1, 42702, Note_on_c, 3, 74, 0
1, 42702, Note_on_c, 3, 66, 0
1, 42702, Note_on_c, 3, 62, 0
1, 42718, Note_on_c, 8, 62, 0
1, 42718, Note_on_c, 8, 66, 0
1, 42718, Note_on_c, 8, 74, 0
1, 42720, Note_on_c, 2, 69, 0
1, 42720, Note_on_c, 3, 69, 109
1, 42720, Note_on_c, 8, 64, 1
1, 42720, Note_on_c, 8, 76, 1
1, 42720, Note_on_c, 3, 76, 107
1, 42720, Note_on_c, 3, 64, 107
1, 42720, Note_on_c, 8, 69, 1
1, 42726, Lyric_t, "a "
1, 42728, Note_on_c, 2, 76, 111
1, 42806, Note_on_c, 7, 57, 0
1, 42808, Note_on_c, 3, 64, 0
1, 42808, Note_on_c, 3, 76, 0
1, 42808, Note_on_c, 3, 69, 0
1, 42812, Note_on_c, 7, 62, 0
1, 42816, Note_on_c, 3, 76, 114
1, 42816, Note_on_c, 9, 51, 59
1, 42816, Note_on_c, 7, 57, 74
1, 42816, Note_on_c, 9, 42, 72
1, 42816, Note_on_c, 3, 69, 113
1, 42816, Note_on_c, 3, 64, 107
1, 42818, Note_on_c, 7, 66, 0
1, 42821, Note_on_c, 7, 62, 84
1, 42822, Note_on_c, 9, 42, 0
1, 42822, Note_on_c, 9, 51, 0
1, 42828, Note_on_c, 7, 66, 90
1, 42866, Note_on_c, 0, 38, 0
1, 42906, Note_on_c, 7, 62, 0
1, 42906, Note_on_c, 5, 45, 0
1, 42910, Note_on_c, 7, 57, 0
1, 42912, Note_on_c, 0, 38, 93
1, 42916, Note_on_c, 7, 62, 75
1, 42920, Note_on_c, 7, 57, 71
1, 42948, Note_on_c, 2, 76, 0
1, 42958, Note_on_c, 0, 38, 0
1, 42988, Note_on_c, 1, 50, 0
1, 42988, Note_on_c, 1, 57, 0
1, 42988, Note_on_c, 1, 66, 0
1, 42988, Note_on_c, 1, 62, 0
1, 42996, Note_on_c, 7, 62, 0
1, 42996, Note_on_c, 7, 57, 0
1, 42996, Note_on_c, 1, 57, 76
1, 42996, Note_on_c, 1, 52, 80
1, 42996, Note_on_c, 1, 61, 73
1, 42996, Note_on_c, 1, 64, 80
1, 42998, Note_on_c, 7, 66, 0
1, 43001, Lyric_t, "\015 "
1, 43001, Lyric_t, "way.  "
1, 43004, Note_on_c, 2, 73, 111
1, 43008, Note_on_c, 0, 33, 104
1, 43008, Note_on_c, 5, 45, 99
1, 43008, Note_on_c, 7, 57, 79
1, 43008, Note_on_c, 9, 35, 115
1, 43008, Note_on_c, 9, 42, 86
1, 43008, Note_on_c, 9, 51, 59
1, 43013, Note_on_c, 7, 61, 90
1, 43014, Note_on_c, 9, 51, 0
1, 43014, Note_on_c, 9, 42, 0
1, 43014, Note_on_c, 9, 35, 0
1, 43018, Note_on_c, 5, 50, 0
1, 43018, Note_on_c, 5, 54, 0
1, 43018, Note_on_c, 5, 66, 0
1, 43020, Note_on_c, 7, 64, 99
1, 43190, Note_on_c, 7, 57, 0
1, 43192, Note_on_c, 5, 45, 0
1, 43196, Note_on_c, 7, 61, 0
1, 43200, Note_on_c, 5, 45, 92
1, 43200, Note_on_c, 9, 42, 68
1, 43200, Note_on_c, 7, 57, 75
1, 43200, Note_on_c, 9, 51, 53
1, 43202, Note_on_c, 7, 64, 0
1, 43205, Note_on_c, 7, 61, 80
1, 43206, Note_on_c, 9, 51, 0
1, 43206, Note_on_c, 9, 42, 0
1, 43212, Note_on_c, 7, 64, 90
1, 43382, Note_on_c, 7, 57, 0
1, 43388, Note_on_c, 7, 61, 0
1, 43392, Note_on_c, 9, 42, 88
1, 43392, Note_on_c, 9, 51, 55
1, 43392, Note_on_c, 9, 40, 92
1, 43392, Note_on_c, 7, 57, 82
1, 43392, Note_on_c, 5, 64, 95
1, 43392, Note_on_c, 5, 57, 100
1, 43392, Note_on_c, 5, 52, 94
1, 43394, Note_on_c, 7, 64, 0
1, 43397, Note_on_c, 7, 61, 99
1, 43398, Note_on_c, 9, 40, 0
1, 43398, Note_on_c, 9, 51, 0
1, 43398, Note_on_c, 9, 42, 0
1, 43404, Note_on_c, 7, 64, 100
1, 43490, Note_on_c, 2, 73, 0
1, 43497, Note_on_c, 2, 71, 111
1, 43574, Note_on_c, 7, 57, 0
1, 43580, Note_on_c, 7, 61, 0
1, 43584, Note_on_c, 2, 71, 0
1, 43584, Note_on_c, 9, 42, 62
1, 43584, Note_on_c, 9, 51, 53
1, 43584, Note_on_c, 7, 57, 72
1, 43586, Note_on_c, 7, 64, 0
1, 43589, Note_on_c, 7, 61, 77
1, 43590, Note_on_c, 9, 51, 0
1, 43590, Note_on_c, 9, 42, 0
1, 43592, Note_on_c, 2, 69, 109
1, 43596, Note_on_c, 7, 64, 93
1, 43652, Note_on_c, 0, 33, 0
1, 43674, Note_on_c, 7, 61, 0
1, 43674, Note_on_c, 5, 45, 0
1, 43678, Note_on_c, 7, 57, 0
1, 43680, Note_on_c, 0, 33, 96
1, 43680, Note_on_c, 9, 35, 85
1, 43684, Note_on_c, 7, 61, 77
1, 43686, Note_on_c, 9, 35, 0
1, 43688, Note_on_c, 7, 57, 69
1, 43740, Note_on_c, 0, 33, 0
1, 43758, Note_on_c, 5, 52, 0
1, 43762, Note_on_c, 7, 64, 0
1, 43764, Note_on_c, 7, 57, 0
1, 43772, Note_on_c, 7, 61, 0
1, 43776, Note_on_c, 9, 42, 85
1, 43776, Note_on_c, 9, 35, 117
1, 43776, Note_on_c, 0, 33, 106
1, 43776, Note_on_c, 5, 45, 87
1, 43776, Note_on_c, 7, 57, 79
1, 43776, Note_on_c, 9, 51, 54
1, 43781, Note_on_c, 7, 61, 93
1, 43782, Note_on_c, 9, 51, 0
1, 43782, Note_on_c, 9, 35, 0
1, 43782, Note_on_c, 9, 42, 0
1, 43788, Note_on_c, 7, 69, 95
1, 43788, Note_on_c, 7, 64, 101
1, 43832, Note_on_c, 5, 64, 0
1, 43832, Note_on_c, 5, 57, 0
1, 43862, Note_on_c, 7, 64, 0
1, 43866, Note_on_c, 7, 61, 0
1, 43870, Note_on_c, 7, 57, 0
1, 43872, Note_on_c, 7, 64, 83
1, 43876, Note_on_c, 7, 61, 76
1, 43880, Note_on_c, 7, 57, 65
1, 43896, Note_on_c, 0, 33, 0
1, 43938, Note_on_c, 2, 69, 0
1, 43958, Note_on_c, 7, 57, 0
1, 43960, Note_on_c, 5, 45, 0
1, 43964, Note_on_c, 7, 61, 0
1, 43968, Note_on_c, 9, 35, 102
1, 43968, Note_on_c, 9, 46, 65
1, 43968, Note_on_c, 0, 33, 101
1, 43968, Note_on_c, 7, 57, 63
1, 43968, Note_on_c, 5, 45, 83
1, 43968, Note_on_c, 9, 51, 55
1, 43970, Note_on_c, 7, 64, 0
1, 43973, Note_on_c, 7, 61, 72
1, 43974, Note_on_c, 9, 51, 0
1, 43974, Note_on_c, 9, 46, 0
1, 43974, Note_on_c, 9, 35, 0
1, 43980, Note_on_c, 7, 64, 86
1, 44054, Note_on_c, 7, 64, 0
1, 44056, Note_on_c, 7, 69, 0
1, 44058, Note_on_c, 7, 61, 0
1, 44062, Note_on_c, 7, 57, 0
1, 44064, Note_on_c, 7, 69, 89
1, 44064, Note_on_c, 7, 64, 103
1, 44068, Note_on_c, 7, 61, 92
1, 44072, Note_on_c, 7, 57, 85
1, 44160, Note_on_c, 9, 51, 61
1, 44160, Note_on_c, 5, 64, 96
1, 44160, Note_on_c, 5, 52, 99
1, 44160, Note_on_c, 9, 40, 96
1, 44160, Note_on_c, 5, 57, 94
1, 44160, Note_on_c, 9, 42, 83
1, 44160, Note_on_c, 9, 57, 67
1, 44166, Note_on_c, 9, 57, 0
1, 44166, Note_on_c, 9, 42, 0
1, 44166, Note_on_c, 9, 40, 0
1, 44166, Note_on_c, 9, 51, 0
1, 44176, Note_on_c, 3, 76, 0
1, 44176, Note_on_c, 3, 64, 0
1, 44176, Note_on_c, 3, 69, 0
1, 44228, Note_on_c, 0, 33, 0
1, 44246, Note_on_c, 7, 64, 0
1, 44250, Note_on_c, 7, 61, 0
1, 44254, Note_on_c, 7, 57, 0
1, 44256, Note_on_c, 7, 64, 70
1, 44256, Note_on_c, 9, 47, 77
1, 44256, Note_on_c, 0, 33, 100
1, 44260, Note_on_c, 7, 61, 65
1, 44262, Note_on_c, 9, 47, 0
1, 44264, Note_on_c, 7, 57, 61
1, 44342, Note_on_c, 7, 57, 0
1, 44344, Note_on_c, 5, 52, 0
1, 44344, Note_on_c, 5, 45, 0
1, 44348, Note_on_c, 7, 61, 0
1, 44352, Note_on_c, 9, 45, 79
1, 44352, Note_on_c, 7, 57, 77
1, 44352, Note_on_c, 9, 46, 68
1, 44352, Note_on_c, 5, 52, 66
1, 44352, Note_on_c, 9, 40, 74
1, 44352, Note_on_c, 9, 51, 57
1, 44352, Note_on_c, 5, 45, 69
1, 44354, Note_on_c, 7, 64, 0
1, 44356, Note_on_c, 7, 69, 0
1, 44357, Note_on_c, 7, 61, 78
1, 44358, Note_on_c, 9, 51, 0
1, 44358, Note_on_c, 9, 40, 0
1, 44358, Note_on_c, 9, 45, 0
1, 44358, Note_on_c, 9, 46, 0
1, 44364, Note_on_c, 7, 64, 92
1, 44364, Note_on_c, 7, 69, 82
1, 44418, Note_on_c, 5, 45, 0
1, 44418, Note_on_c, 5, 52, 0
1, 44446, Note_on_c, 7, 57, 0
1, 44448, Note_on_c, 5, 52, 68
1, 44448, Note_on_c, 9, 45, 68
1, 44448, Note_on_c, 5, 45, 67
1, 44454, Note_on_c, 9, 45, 0
1, 44456, Note_on_c, 7, 57, 52
1, 44514, Note_on_c, 5, 45, 0
1, 44514, Note_on_c, 5, 52, 0
1, 44522, Note_on_c, 0, 33, 0
1, 44524, Note_on_c, 1, 61, 0
1, 44524, Note_on_c, 1, 64, 0
1, 44524, Note_on_c, 1, 57, 0
1, 44524, Note_on_c, 1, 52, 0
1, 44532, Note_on_c, 7, 57, 0
1, 44532, Note_on_c, 1, 62, 45
1, 44532, Note_on_c, 1, 67, 47
1, 44532, Note_on_c, 1, 59, 53
1, 44534, Note_on_c, 7, 61, 0
1, 44534, Note_on_c, 7, 64, 0
1, 44534, Note_on_c, 7, 69, 0
1, 44536, Note_on_c, 5, 57, 0
1, 44536, Note_on_c, 5, 64, 0
1, 44542, Note_on_c, 8, 64, 0
1, 44542, Note_on_c, 8, 76, 0
1, 44542, Note_on_c, 8, 69, 0
1, 44544, Note_on_c, 9, 49, 68
1, 44544, Note_on_c, 9, 35, 112
1, 44544, Note_on_c, 9, 42, 62
1, 44544, Note_on_c, 0, 31, 103
1, 44544, Note_on_c, 7, 59, 74
1, 44544, Pitch_bend_c, 6, 1280
1, 44547, Lyric_t, "Hold "
1, 44549, Note_on_c, 7, 62, 82
1, 44549, Note_on_c, 2, 76, 114
1, 44550, Note_on_c, 9, 42, 0
1, 44550, Note_on_c, 9, 49, 0
1, 44550, Note_on_c, 9, 35, 0
1, 44552, Note_on_c, 6, 67, 99
1, 44556, Note_on_c, 7, 67, 90
1, 44568, Pitch_bend_c, 6, 1280
1, 44584, Pitch_bend_c, 6, 1536
1, 44604, Pitch_bend_c, 6, 2048
1, 44621, Pitch_bend_c, 6, 2560
1, 44624, Note_on_c, 2, 76, 0
1, 44637, Pitch_bend_c, 6, 3072
1, 44640, Note_on_c, 9, 42, 37
1, 44646, Note_on_c, 9, 42, 0
1, 44646, Lyric_t, "ing  "
1, 44648, Note_on_c, 2, 76, 109
1, 44656, Pitch_bend_c, 6, 3840
1, 44669, Pitch_bend_c, 6, 4352
1, 44688, Pitch_bend_c, 6, 5120
1, 44701, Pitch_bend_c, 6, 5504
1, 44716, Pitch_bend_c, 6, 6016
1, 44724, Note_on_c, 2, 76, 0
1, 44726, Note_on_c, 7, 59, 0
1, 44729, Pitch_bend_c, 6, 6656
1, 44732, Note_on_c, 7, 62, 0
1, 44736, Note_on_c, 7, 59, 67
1, 44736, Note_on_c, 9, 42, 62
1, 44738, Note_on_c, 7, 67, 0
1, 44739, Lyric_t, "on  "
1, 44740, Note_on_c, 2, 76, 113
1, 44741, Note_on_c, 7, 62, 75
1, 44742, Note_on_c, 9, 42, 0
1, 44744, Pitch_bend_c, 6, 7552
1, 44748, Note_on_c, 7, 67, 82
1, 44757, Pitch_bend_c, 6, 8192
1, 44816, Note_on_c, 2, 76, 0
1, 44832, Note_on_c, 9, 42, 28
1, 44838, Note_on_c, 9, 42, 0
1, 44838, Lyric_t, "to  "
1, 44840, Note_on_c, 2, 78, 111
1, 44916, Note_on_c, 2, 78, 0
1, 44918, Note_on_c, 7, 59, 0
1, 44924, Note_on_c, 7, 62, 0
1, 44928, Note_on_c, 7, 59, 77
1, 44928, Note_on_c, 9, 42, 63
1, 44928, Note_on_c, 9, 37, 111
1, 44930, Note_on_c, 7, 67, 0
1, 44931, Lyric_t, "\015 "
1, 44931, Lyric_t, "you  "
1, 44932, Note_on_c, 2, 71, 108
1, 44933, Note_on_c, 7, 62, 88
1, 44934, Note_on_c, 9, 37, 0
1, 44934, Note_on_c, 9, 42, 0
1, 44940, Note_on_c, 7, 67, 89
1, 45024, Note_on_c, 9, 42, 34
1, 45030, Note_on_c, 9, 42, 0
1, 45088, Note_on_c, 2, 71, 0
1, 45110, Note_on_c, 7, 59, 0
1, 45116, Note_on_c, 7, 62, 0
1, 45120, Note_on_c, 7, 59, 58
1, 45120, Note_on_c, 9, 42, 65
1, 45122, Note_on_c, 7, 67, 0
1, 45125, Note_on_c, 7, 62, 68
1, 45126, Note_on_c, 9, 42, 0
1, 45129, Note_on_c, 2, 71, 111
1, 45129, Lyric_t, "like  "
1, 45132, Note_on_c, 7, 67, 82
1, 45188, Note_on_c, 0, 31, 0
1, 45189, Pitch_bend_c, 6, 7936
1, 45204, Pitch_bend_c, 6, 7168
1, 45210, Note_on_c, 7, 62, 0
1, 45214, Note_on_c, 7, 59, 0
1, 45216, Note_on_c, 0, 31, 77
1, 45216, Note_on_c, 9, 35, 102
1, 45216, Note_on_c, 9, 42, 40
1, 45217, Pitch_bend_c, 6, 6272
1, 45218, Note_on_c, 2, 71, 0
1, 45220, Note_on_c, 7, 62, 69
1, 45222, Note_on_c, 9, 42, 0
1, 45222, Note_on_c, 9, 35, 0
1, 45224, Note_on_c, 7, 59, 59
1, 45225, Note_on_c, 2, 69, 106
1, 45225, Lyric_t, "a  "
1, 45232, Pitch_bend_c, 6, 4992
1, 45245, Pitch_bend_c, 6, 3328
1, 45250, Note_on_c, 0, 31, 0
1, 45260, Pitch_bend_c, 6, 1024
1, 45273, Pitch_bend_c, 6, 0
1, 45290, Note_on_c, 6, 67, 0
1, 45292, Note_on_c, 1, 67, 0
1, 45292, Note_on_c, 1, 62, 0
1, 45292, Note_on_c, 1, 59, 0
1, 45298, Note_on_c, 7, 67, 0
1, 45300, Note_on_c, 7, 59, 0
1, 45300, Note_on_c, 1, 62, 46
1, 45300, Note_on_c, 1, 57, 53
1, 45300, Note_on_c, 1, 66, 51
1, 45308, Note_on_c, 7, 62, 0
1, 45312, Note_on_c, 9, 42, 58
1, 45312, Note_on_c, 0, 38, 90
1, 45312, Note_on_c, 9, 35, 110
1, 45312, Note_on_c, 7, 57, 72
1, 45314, Note_on_c, 2, 69, 0
1, 45317, Note_on_c, 7, 62, 79
1, 45318, Note_on_c, 9, 42, 0
1, 45318, Note_on_c, 9, 35, 0
1, 45320, Note_on_c, 6, 62, 102
1, 45321, Note_on_c, 2, 71, 113
1, 45321, Lyric_t, "pair  "
1, 45324, Note_on_c, 7, 66, 88
1, 45325, Pitch_bend_c, 6, 256
1, 45340, Pitch_bend_c, 6, 1024
1, 45353, Pitch_bend_c, 6, 2048
1, 45368, Pitch_bend_c, 6, 3328
1, 45381, Pitch_bend_c, 6, 4608
1, 45396, Pitch_bend_c, 6, 5120
1, 45398, Note_on_c, 7, 66, 0
1, 45402, Note_on_c, 7, 62, 0
1, 45406, Note_on_c, 7, 57, 0
1, 45408, Note_on_c, 7, 66, 72
1, 45408, Note_on_c, 9, 42, 35
1, 45409, Pitch_bend_c, 6, 5888
1, 45410, Note_on_c, 2, 71, 0
1, 45412, Note_on_c, 7, 62, 58
1, 45414, Note_on_c, 9, 42, 0
1, 45416, Note_on_c, 7, 57, 51
1, 45417, Lyric_t, "of  "
1, 45417, Note_on_c, 2, 69, 108
1, 45429, Pitch_bend_c, 6, 6656
1, 45445, Pitch_bend_c, 6, 7168
1, 45460, Pitch_bend_c, 6, 7680
1, 45470, Note_on_c, 2, 69, 0
1, 45473, Pitch_bend_c, 6, 8192
1, 45494, Note_on_c, 7, 57, 0
1, 45500, Note_on_c, 7, 62, 0
1, 45504, Note_on_c, 7, 57, 58
1, 45504, Note_on_c, 9, 42, 63
1, 45506, Note_on_c, 7, 66, 0
1, 45507, Lyric_t, "old  "
1, 45509, Note_on_c, 2, 69, 103
1, 45509, Note_on_c, 7, 62, 69
1, 45510, Note_on_c, 9, 42, 0
1, 45516, Note_on_c, 7, 66, 77
1, 45590, Note_on_c, 7, 66, 0
1, 45594, Note_on_c, 7, 62, 0
1, 45598, Note_on_c, 7, 57, 0
1, 45600, Note_on_c, 7, 66, 80
1, 45600, Note_on_c, 9, 42, 28
1, 45604, Note_on_c, 7, 62, 72
1, 45606, Note_on_c, 9, 42, 0
1, 45606, Note_on_c, 2, 69, 0
1, 45608, Note_on_c, 7, 57, 60
1, 45613, Note_on_c, 2, 66, 106
1, 45674, Note_on_c, 2, 66, 0
1, 45688, Note_on_c, 7, 57, 0
1, 45688, Note_on_c, 7, 62, 0
1, 45694, Note_on_c, 7, 66, 0
1, 45696, Note_on_c, 9, 42, 68
1, 45696, Note_on_c, 9, 37, 106
1, 45696, Note_on_c, 7, 57, 79
1, 45701, Note_on_c, 7, 62, 86
1, 45702, Note_on_c, 9, 37, 0
1, 45702, Note_on_c, 9, 42, 0
1, 45705, Lyric_t, "\015 "
1, 45705, Lyric_t, "shoes  "
1, 45705, Note_on_c, 2, 69, 111
1, 45708, Note_on_c, 7, 66, 92
1, 45792, Note_on_c, 9, 42, 35
1, 45798, Note_on_c, 9, 42, 0
1, 45858, Note_on_c, 2, 69, 0
1, 45878, Note_on_c, 7, 57, 0
1, 45884, Note_on_c, 7, 62, 0
1, 45888, Note_on_c, 7, 57, 66
1, 45888, Note_on_c, 9, 42, 63
1, 45890, Note_on_c, 7, 66, 0
1, 45893, Note_on_c, 7, 62, 68
1, 45894, Note_on_c, 9, 42, 0
1, 45900, Lyric_t, "that  "
1, 45900, Note_on_c, 7, 66, 81
1, 45901, Note_on_c, 2, 69, 110
1, 45972, Note_on_c, 0, 38, 0
1, 45978, Note_on_c, 7, 62, 0
1, 45980, Note_on_c, 2, 69, 0
1, 45982, Note_on_c, 7, 57, 0
1, 45984, Note_on_c, 0, 30, 84
1, 45984, Note_on_c, 9, 42, 36
1, 45988, Note_on_c, 7, 62, 65
1, 45990, Note_on_c, 9, 42, 0
1, 45992, Note_on_c, 7, 57, 59
1, 45996, Lyric_t, "you  "
1, 45997, Note_on_c, 2, 66, 110
1, 46030, Note_on_c, 0, 30, 0
1, 46060, Note_on_c, 1, 66, 0
1, 46060, Note_on_c, 1, 62, 0
1, 46060, Note_on_c, 1, 57, 0
1, 46068, Note_on_c, 7, 57, 0
1, 46068, Note_on_c, 7, 62, 0
1, 46068, Note_on_c, 1, 61, 49
1, 46068, Note_on_c, 1, 57, 49
1, 46068, Note_on_c, 1, 64, 51
1, 46070, Note_on_c, 7, 66, 0
1, 46076, Note_on_c, 2, 66, 0
1, 46080, Note_on_c, 6, 62, 0
1, 46080, Note_on_c, 9, 35, 112
1, 46080, Note_on_c, 9, 42, 65
1, 46080, Note_on_c, 7, 57, 71
1, 46080, Note_on_c, 0, 33, 97
1, 46085, Note_on_c, 7, 61, 81
1, 46086, Note_on_c, 9, 42, 0
1, 46086, Note_on_c, 9, 35, 0
1, 46089, Lyric_t, "nev "
1, 46089, Note_on_c, 2, 69, 110
1, 46092, Note_on_c, 7, 64, 92
1, 46176, Note_on_c, 9, 42, 32
1, 46182, Note_on_c, 9, 42, 0
1, 46258, Note_on_c, 2, 69, 0
1, 46262, Note_on_c, 7, 57, 0
1, 46268, Note_on_c, 7, 61, 0
1, 46272, Note_on_c, 9, 42, 63
1, 46272, Lyric_t, "er  "
1, 46272, Note_on_c, 7, 57, 64
1, 46272, Note_on_c, 2, 66, 103
1, 46274, Note_on_c, 7, 64, 0
1, 46277, Note_on_c, 7, 61, 72
1, 46278, Note_on_c, 9, 42, 0
1, 46284, Note_on_c, 7, 64, 83
1, 46344, Note_on_c, 2, 66, 0
1, 46364, Lyric_t, "throw  "
1, 46365, Note_on_c, 2, 69, 112
1, 46368, Note_on_c, 9, 42, 31
1, 46374, Note_on_c, 9, 42, 0
1, 46454, Note_on_c, 7, 57, 0
1, 46460, Note_on_c, 7, 61, 0
1, 46464, Note_on_c, 9, 42, 61
1, 46464, Note_on_c, 9, 37, 103
1, 46464, Note_on_c, 7, 57, 80
1, 46466, Note_on_c, 7, 64, 0
1, 46469, Note_on_c, 7, 61, 85
1, 46470, Note_on_c, 9, 37, 0
1, 46470, Note_on_c, 9, 42, 0
1, 46476, Note_on_c, 7, 64, 97
1, 46552, Note_on_c, 2, 69, 0
1, 46560, Lyric_t, "a "
1, 46560, Note_on_c, 2, 71, 103
1, 46560, Note_on_c, 9, 42, 35
1, 46566, Note_on_c, 9, 42, 0
1, 46632, Note_on_c, 2, 71, 0
1, 46646, Note_on_c, 7, 57, 0
1, 46652, Note_on_c, 7, 61, 0
1, 46656, Lyric_t, "way.  "
1, 46656, Note_on_c, 7, 57, 61
1, 46656, Note_on_c, 9, 42, 65
1, 46656, Lyric_t, "\015 "
1, 46657, Note_on_c, 2, 73, 109
1, 46658, Note_on_c, 7, 64, 0
1, 46661, Note_on_c, 7, 61, 68
1, 46662, Note_on_c, 9, 42, 0
1, 46668, Note_on_c, 7, 64, 78
1, 46724, Note_on_c, 0, 33, 0
1, 46746, Note_on_c, 7, 61, 0
1, 46750, Note_on_c, 7, 57, 0
1, 46752, Note_on_c, 9, 37, 104
1, 46752, Note_on_c, 9, 42, 36
1, 46752, Note_on_c, 0, 40, 91
1, 46756, Note_on_c, 7, 61, 67
1, 46758, Note_on_c, 9, 42, 0
1, 46758, Note_on_c, 9, 37, 0
1, 46760, Note_on_c, 7, 57, 60
1, 46792, Note_on_c, 0, 40, 0
1, 46834, Note_on_c, 7, 64, 0
1, 46836, Note_on_c, 7, 57, 0
1, 46844, Note_on_c, 7, 61, 0
1, 46848, Note_on_c, 0, 45, 89
1, 46848, Note_on_c, 7, 57, 70
1, 46848, Note_on_c, 9, 42, 64
1, 46848, Note_on_c, 9, 35, 108
1, 46853, Note_on_c, 7, 61, 80
1, 46854, Note_on_c, 9, 35, 0
1, 46854, Note_on_c, 9, 42, 0
1, 46860, Note_on_c, 7, 64, 93
1, 46934, Note_on_c, 7, 64, 0
1, 46936, Note_on_c, 0, 45, 0
1, 46938, Note_on_c, 7, 61, 0
1, 46938, Note_on_c, 2, 73, 0
1, 46942, Note_on_c, 7, 57, 0
1, 46944, Note_on_c, 9, 42, 39
1, 46944, Note_on_c, 0, 47, 77
1, 46944, Note_on_c, 7, 64, 66
1, 46945, Note_on_c, 2, 71, 105
1, 46948, Note_on_c, 7, 61, 64
1, 46950, Note_on_c, 9, 42, 0
1, 46952, Note_on_c, 7, 57, 48
1, 47030, Note_on_c, 7, 57, 0
1, 47032, Note_on_c, 0, 47, 0
1, 47032, Note_on_c, 2, 71, 0
1, 47036, Note_on_c, 7, 61, 0
1, 47040, Note_on_c, 0, 45, 90
1, 47040, Note_on_c, 7, 57, 54
1, 47040, Note_on_c, 2, 69, 108
1, 47040, Note_on_c, 9, 46, 65
1, 47042, Note_on_c, 7, 64, 0
1, 47045, Note_on_c, 7, 61, 66
1, 47046, Note_on_c, 9, 46, 0
1, 47052, Note_on_c, 7, 64, 79
1, 47092, Pitch_bend_c, 6, 7552
1, 47105, Pitch_bend_c, 6, 6400
1, 47120, Pitch_bend_c, 6, 5376
1, 47126, Note_on_c, 7, 64, 0
1, 47130, Note_on_c, 7, 61, 0
1, 47133, Pitch_bend_c, 6, 4352
1, 47134, Note_on_c, 7, 57, 0
1, 47136, Note_on_c, 7, 64, 75
1, 47140, Note_on_c, 7, 61, 68
1, 47144, Note_on_c, 7, 57, 60
1, 47148, Pitch_bend_c, 6, 1024
1, 47161, Pitch_bend_c, 6, 0
1, 47220, Note_on_c, 0, 45, 0
1, 47224, Note_on_c, 7, 57, 0
1, 47224, Note_on_c, 7, 61, 0
1, 47230, Note_on_c, 7, 64, 0
1, 47232, Note_on_c, 9, 37, 108
1, 47232, Note_on_c, 0, 40, 90
1, 47232, Note_on_c, 7, 57, 72
1, 47232, Note_on_c, 9, 42, 60
1, 47237, Note_on_c, 7, 61, 87
1, 47238, Note_on_c, 9, 42, 0
1, 47238, Note_on_c, 9, 37, 0
1, 47240, Note_on_c, 6, 71, 95
1, 47244, Note_on_c, 7, 64, 97
1, 47320, Note_on_c, 0, 40, 0
1, 47328, Note_on_c, 0, 42, 77
1, 47328, Note_on_c, 9, 42, 33
1, 47334, Note_on_c, 9, 42, 0
1, 47400, Note_on_c, 2, 69, 0
1, 47414, Note_on_c, 7, 57, 0
1, 47416, Note_on_c, 0, 42, 0
1, 47420, Note_on_c, 7, 61, 0
1, 47424, Note_on_c, 0, 40, 84
1, 47424, Note_on_c, 9, 42, 57
1, 47424, Note_on_c, 7, 57, 66
1, 47426, Note_on_c, 7, 64, 0
1, 47429, Note_on_c, 7, 61, 72
1, 47430, Note_on_c, 9, 42, 0
1, 47436, Note_on_c, 7, 64, 83
1, 47484, Pitch_bend_c, 6, 512
1, 47501, Pitch_bend_c, 6, 1536
1, 47514, Note_on_c, 7, 61, 0
1, 47516, Pitch_bend_c, 6, 2048
1, 47518, Note_on_c, 7, 57, 0
1, 47520, Note_on_c, 9, 42, 42
1, 47524, Note_on_c, 7, 61, 65
1, 47526, Note_on_c, 9, 42, 0
1, 47528, Note_on_c, 7, 57, 54
1, 47532, Pitch_bend_c, 6, 2816
1, 47548, Pitch_bend_c, 6, 3328
1, 47565, Pitch_bend_c, 6, 4096
1, 47580, Pitch_bend_c, 6, 4608
1, 47593, Pitch_bend_c, 6, 4992
1, 47596, Note_on_c, 1, 61, 0
1, 47596, Note_on_c, 1, 57, 0
1, 47596, Note_on_c, 1, 64, 0
1, 47604, Note_on_c, 7, 57, 0
1, 47604, Note_on_c, 7, 61, 0
1, 47604, Note_on_c, 0, 40, 0
1, 47604, Note_on_c, 1, 67, 50
1, 47604, Note_on_c, 1, 59, 49
1, 47604, Note_on_c, 1, 62, 49
1, 47606, Note_on_c, 7, 64, 0
1, 47609, Pitch_bend_c, 6, 5376
1, 47616, Note_on_c, 9, 42, 66
1, 47616, Note_on_c, 9, 35, 113
1, 47616, Note_on_c, 0, 31, 103
1, 47616, Note_on_c, 7, 59, 69
1, 47619, Lyric_t, "Ev "
1, 47621, Note_on_c, 2, 71, 113
1, 47621, Note_on_c, 7, 62, 77
1, 47622, Note_on_c, 9, 35, 0
1, 47622, Note_on_c, 9, 42, 0
1, 47625, Pitch_bend_c, 6, 5632
1, 47628, Note_on_c, 7, 67, 91
1, 47644, Pitch_bend_c, 6, 6144
1, 47657, Pitch_bend_c, 6, 6656
1, 47672, Pitch_bend_c, 6, 7296
1, 47685, Pitch_bend_c, 6, 7680
1, 47704, Pitch_bend_c, 6, 8192
1, 47712, Note_on_c, 9, 42, 39
1, 47718, Note_on_c, 9, 42, 0
1, 47774, Note_on_c, 2, 71, 0
1, 47798, Note_on_c, 7, 59, 0
1, 47804, Note_on_c, 7, 62, 0
1, 47808, Note_on_c, 7, 59, 64
1, 47808, Note_on_c, 9, 42, 62
1, 47810, Note_on_c, 7, 67, 0
1, 47811, Lyric_t, "ery  "
1, 47812, Note_on_c, 2, 69, 104
1, 47813, Note_on_c, 7, 62, 70
1, 47814, Note_on_c, 9, 42, 0
1, 47820, Note_on_c, 7, 67, 84
1, 47894, Note_on_c, 2, 69, 0
1, 47904, Lyric_t, "road  "
1, 47904, Note_on_c, 2, 71, 108
1, 47904, Note_on_c, 9, 42, 34
1, 47910, Note_on_c, 9, 42, 0
1, 47990, Note_on_c, 7, 59, 0
1, 47996, Note_on_c, 7, 62, 0
1, 48000, Note_on_c, 7, 59, 80
1, 48000, Note_on_c, 9, 42, 63
1, 48000, Note_on_c, 9, 37, 111
1, 48002, Note_on_c, 7, 67, 0
1, 48005, Note_on_c, 7, 62, 91
1, 48006, Note_on_c, 9, 37, 0
1, 48006, Note_on_c, 9, 42, 0
1, 48012, Note_on_c, 7, 67, 90
1, 48082, Note_on_c, 2, 71, 0
1, 48096, Note_on_c, 9, 42, 37
1, 48099, Lyric_t, "still  "
1, 48101, Note_on_c, 2, 72, 108
1, 48102, Note_on_c, 9, 42, 0
1, 48182, Note_on_c, 7, 59, 0
1, 48188, Note_on_c, 7, 62, 0
1, 48192, Note_on_c, 9, 42, 60
1, 48192, Note_on_c, 7, 59, 63
1, 48194, Note_on_c, 7, 67, 0
1, 48197, Note_on_c, 7, 62, 66
1, 48198, Note_on_c, 9, 42, 0
1, 48204, Note_on_c, 7, 67, 85
1, 48260, Note_on_c, 0, 31, 0
1, 48270, Note_on_c, 2, 72, 0
1, 48282, Note_on_c, 7, 62, 0
1, 48284, Pitch_bend_c, 6, 7936
1, 48286, Note_on_c, 7, 59, 0
1, 48288, Note_on_c, 6, 71, 0
1, 48288, Note_on_c, 9, 35, 106
1, 48288, Note_on_c, 0, 37, 70
1, 48288, Note_on_c, 9, 42, 38
1, 48292, Note_on_c, 7, 62, 67
1, 48294, Note_on_c, 9, 42, 0
1, 48294, Note_on_c, 9, 35, 0
1, 48294, Lyric_t, "leads  "
1, 48296, Note_on_c, 7, 59, 61
1, 48296, Note_on_c, 2, 71, 110
1, 48297, Pitch_bend_c, 6, 7040
1, 48312, Pitch_bend_c, 6, 5376
1, 48325, Pitch_bend_c, 6, 3840
1, 48340, Pitch_bend_c, 6, 1280
1, 48354, Note_on_c, 0, 37, 0
1, 48356, Pitch_bend_c, 6, 512
1, 48364, Note_on_c, 1, 59, 0
1, 48364, Note_on_c, 1, 62, 0
1, 48364, Note_on_c, 1, 67, 0
1, 48370, Note_on_c, 7, 67, 0
1, 48372, Note_on_c, 7, 59, 0
1, 48372, Pitch_bend_c, 6, 1280
1, 48372, Note_on_c, 1, 57, 45
1, 48372, Note_on_c, 1, 66, 51
1, 48372, Note_on_c, 1, 62, 45
1, 48380, Note_on_c, 7, 62, 0
1, 48384, Note_on_c, 7, 57, 73
1, 48384, Note_on_c, 9, 35, 111
1, 48384, Note_on_c, 9, 42, 63
1, 48384, Note_on_c, 0, 38, 95
1, 48385, Pitch_bend_c, 6, 1536
1, 48389, Note_on_c, 7, 62, 83
1, 48390, Note_on_c, 9, 42, 0
1, 48390, Note_on_c, 9, 35, 0
1, 48392, Note_on_c, 6, 62, 97
1, 48396, Note_on_c, 7, 66, 89
1, 48400, Pitch_bend_c, 6, 2304
1, 48416, Pitch_bend_c, 6, 3072
1, 48429, Pitch_bend_c, 6, 4096
1, 48444, Pitch_bend_c, 6, 4992
1, 48457, Pitch_bend_c, 6, 5888
1, 48466, Note_on_c, 2, 71, 0
1, 48470, Note_on_c, 7, 66, 0
1, 48472, Pitch_bend_c, 6, 6656
1, 48474, Note_on_c, 7, 62, 0
1, 48478, Note_on_c, 7, 57, 0
1, 48480, Note_on_c, 7, 66, 68
1, 48480, Note_on_c, 9, 42, 39
1, 48480, Lyric_t, "me  "
1, 48481, Note_on_c, 2, 69, 110
1, 48484, Note_on_c, 7, 62, 57
1, 48485, Pitch_bend_c, 6, 7680
1, 48486, Note_on_c, 9, 42, 0
1, 48488, Note_on_c, 7, 57, 50
1, 48500, Pitch_bend_c, 6, 8192
1, 48538, Note_on_c, 0, 38, 0
1, 48566, Note_on_c, 7, 57, 0
1, 48572, Note_on_c, 7, 62, 0
1, 48576, Note_on_c, 7, 57, 54
1, 48576, Note_on_c, 0, 38, 92
1, 48576, Note_on_c, 9, 46, 61
1, 48578, Note_on_c, 7, 66, 0
1, 48581, Note_on_c, 7, 62, 69
1, 48582, Note_on_c, 9, 46, 0
1, 48588, Note_on_c, 7, 66, 80
1, 48644, Note_on_c, 2, 69, 0
1, 48662, Note_on_c, 7, 66, 0
1, 48666, Note_on_c, 7, 62, 0
1, 48670, Note_on_c, 7, 57, 0
1, 48672, Note_on_c, 2, 69, 109
1, 48672, Lyric_t, "back  "
1, 48672, Note_on_c, 7, 66, 74
1, 48676, Note_on_c, 7, 62, 68
1, 48680, Note_on_c, 7, 57, 63
1, 48760, Note_on_c, 7, 57, 0
1, 48760, Note_on_c, 7, 62, 0
1, 48766, Note_on_c, 7, 66, 0
1, 48768, Note_on_c, 9, 37, 104
1, 48768, Note_on_c, 9, 42, 62
1, 48768, Note_on_c, 7, 57, 72
1, 48773, Note_on_c, 7, 62, 80
1, 48774, Note_on_c, 9, 42, 0
1, 48774, Note_on_c, 9, 37, 0
1, 48780, Note_on_c, 7, 66, 89
1, 48864, Note_on_c, 9, 42, 35
1, 48870, Note_on_c, 9, 42, 0
1, 48870, Note_on_c, 2, 69, 0
1, 48876, Lyric_t, "to  "
1, 48877, Note_on_c, 2, 73, 105
1, 48950, Note_on_c, 7, 57, 0
1, 48956, Note_on_c, 7, 62, 0
1, 48960, Note_on_c, 9, 42, 60
1, 48960, Note_on_c, 7, 57, 64
1, 48962, Note_on_c, 7, 66, 0
1, 48965, Note_on_c, 7, 62, 76
1, 48966, Note_on_c, 9, 42, 0
1, 48972, Note_on_c, 7, 66, 83
1, 49010, Note_on_c, 0, 38, 0
1, 49036, Pitch_bend_c, 6, 7936
1, 49049, Pitch_bend_c, 6, 7040
1, 49050, Note_on_c, 7, 62, 0
1, 49054, Note_on_c, 7, 57, 0
1, 49056, Note_on_c, 9, 42, 38
1, 49056, Note_on_c, 0, 40, 82
1, 49060, Note_on_c, 7, 62, 68
1, 49062, Note_on_c, 9, 42, 0
1, 49064, Note_on_c, 7, 57, 59
1, 49064, Pitch_bend_c, 6, 5888
1, 49077, Pitch_bend_c, 6, 4352
1, 49092, Pitch_bend_c, 6, 2560
1, 49102, Note_on_c, 0, 40, 0
1, 49105, Pitch_bend_c, 6, 768
1, 49116, Note_on_c, 2, 73, 0
1, 49120, Pitch_bend_c, 6, 0
1, 49132, Note_on_c, 1, 62, 0
1, 49132, Note_on_c, 1, 57, 0
1, 49132, Note_on_c, 1, 66, 0
1, 49140, Note_on_c, 7, 57, 0
1, 49140, Note_on_c, 7, 62, 0
1, 49140, Note_on_c, 1, 57, 52
1, 49140, Note_on_c, 1, 64, 50
1, 49140, Note_on_c, 1, 61, 47
1, 49142, Note_on_c, 7, 66, 0
1, 49145, Lyric_t, "\015 "
1, 49145, Lyric_t, "you.  "
1, 49148, Note_on_c, 2, 73, 109
1, 49152, Note_on_c, 6, 62, 0
1, 49152, Note_on_c, 9, 35, 111
1, 49152, Note_on_c, 7, 57, 71
1, 49152, Note_on_c, 0, 33, 98
1, 49152, Note_on_c, 9, 42, 65
1, 49157, Note_on_c, 7, 61, 77
1, 49158, Note_on_c, 9, 42, 0
1, 49158, Note_on_c, 9, 35, 0
1, 49160, Note_on_c, 6, 61, 96
1, 49164, Note_on_c, 7, 64, 93
1, 49248, Note_on_c, 9, 42, 31
1, 49254, Note_on_c, 9, 42, 0
1, 49268, Pitch_bend_c, 6, 1536
1, 49281, Pitch_bend_c, 6, 3072
1, 49296, Pitch_bend_c, 6, 4992
1, 49309, Pitch_bend_c, 6, 5760
1, 49324, Pitch_bend_c, 6, 6784
1, 49334, Note_on_c, 7, 57, 0
1, 49337, Pitch_bend_c, 6, 7552
1, 49340, Note_on_c, 7, 61, 0
1, 49344, Note_on_c, 7, 57, 68
1, 49344, Note_on_c, 9, 42, 60
1, 49346, Note_on_c, 7, 64, 0
1, 49349, Note_on_c, 7, 61, 71
1, 49350, Note_on_c, 9, 42, 0
1, 49353, Pitch_bend_c, 6, 8192
1, 49356, Note_on_c, 7, 64, 82
1, 49428, Note_on_c, 2, 73, 0
1, 49436, Note_on_c, 2, 71, 105
1, 49440, Note_on_c, 9, 42, 27
1, 49446, Note_on_c, 9, 42, 0
1, 49526, Note_on_c, 7, 57, 0
1, 49528, Note_on_c, 2, 71, 0
1, 49532, Note_on_c, 7, 61, 0
1, 49536, Note_on_c, 9, 42, 59
1, 49536, Note_on_c, 7, 57, 76
1, 49536, Note_on_c, 9, 37, 107
1, 49536, Note_on_c, 2, 69, 103
1, 49538, Note_on_c, 7, 64, 0
1, 49541, Note_on_c, 7, 61, 82
1, 49542, Note_on_c, 9, 37, 0
1, 49542, Note_on_c, 9, 42, 0
1, 49548, Note_on_c, 7, 64, 89
1, 49632, Note_on_c, 9, 42, 35
1, 49638, Note_on_c, 9, 42, 0
1, 49718, Note_on_c, 7, 57, 0
1, 49724, Note_on_c, 7, 61, 0
1, 49728, Note_on_c, 9, 42, 60
1, 49728, Note_on_c, 7, 57, 58
1, 49730, Note_on_c, 7, 64, 0
1, 49733, Note_on_c, 7, 61, 68
1, 49734, Note_on_c, 9, 42, 0
1, 49740, Note_on_c, 7, 64, 78
1, 49796, Note_on_c, 0, 33, 0
1, 49818, Note_on_c, 7, 61, 0
1, 49822, Note_on_c, 7, 57, 0
1, 49824, Note_on_c, 0, 40, 91
1, 49824, Note_on_c, 9, 37, 108
1, 49824, Note_on_c, 9, 42, 39
1, 49828, Note_on_c, 7, 61, 69
1, 49830, Note_on_c, 9, 42, 0
1, 49830, Note_on_c, 9, 37, 0
1, 49832, Note_on_c, 7, 57, 55
1, 49864, Note_on_c, 0, 40, 0
1, 49874, Note_on_c, 2, 69, 0
1, 49906, Note_on_c, 7, 64, 0
1, 49908, Note_on_c, 7, 57, 0
1, 49916, Note_on_c, 7, 61, 0
1, 49920, Note_on_c, 6, 61, 0
1, 49920, Note_on_c, 7, 57, 71
1, 49920, Note_on_c, 9, 35, 110
1, 49920, Note_on_c, 9, 42, 60
1, 49920, Note_on_c, 0, 45, 83
1, 49925, Note_on_c, 7, 61, 80
1, 49926, Note_on_c, 9, 42, 0
1, 49926, Note_on_c, 9, 35, 0
1, 49932, Note_on_c, 7, 64, 89
1, 50006, Note_on_c, 7, 64, 0
1, 50008, Note_on_c, 0, 45, 0
1, 50010, Note_on_c, 7, 61, 0
1, 50014, Note_on_c, 7, 57, 0
1, 50016, Note_on_c, 9, 42, 36
1, 50016, Note_on_c, 7, 64, 73
1, 50016, Note_on_c, 0, 47, 83
1, 50020, Note_on_c, 7, 61, 57
1, 50022, Note_on_c, 9, 42, 0
1, 50024, Note_on_c, 7, 57, 51
1, 50102, Note_on_c, 7, 57, 0
1, 50104, Note_on_c, 0, 47, 0
1, 50108, Note_on_c, 7, 61, 0
1, 50112, Note_on_c, 9, 46, 63
1, 50112, Note_on_c, 0, 45, 87
1, 50112, Note_on_c, 7, 57, 53
1, 50114, Note_on_c, 7, 64, 0
1, 50117, Note_on_c, 7, 61, 66
1, 50118, Note_on_c, 9, 46, 0
1, 50124, Note_on_c, 7, 64, 78
1, 50198, Note_on_c, 7, 64, 0
1, 50202, Note_on_c, 7, 61, 0
1, 50206, Note_on_c, 7, 57, 0
1, 50208, Note_on_c, 7, 64, 78
1, 50212, Note_on_c, 7, 61, 72
1, 50216, Note_on_c, 7, 57, 57
1, 50292, Note_on_c, 0, 45, 0
1, 50296, Note_on_c, 7, 61, 0
1, 50296, Note_on_c, 7, 57, 0
1, 50302, Note_on_c, 7, 64, 0
1, 50304, Note_on_c, 0, 40, 87
1, 50304, Note_on_c, 9, 42, 68
1, 50304, Note_on_c, 9, 37, 112
1, 50304, Note_on_c, 7, 57, 80
1, 50309, Note_on_c, 7, 61, 83
1, 50310, Note_on_c, 9, 37, 0
1, 50310, Note_on_c, 9, 42, 0
1, 50316, Note_on_c, 7, 64, 96
1, 50392, Note_on_c, 0, 40, 0
1, 50400, Lyric_t, "Your  "
1, 50400, Note_on_c, 0, 42, 83
1, 50400, Note_on_c, 9, 42, 38
1, 50401, Note_on_c, 2, 76, 106
1, 50406, Note_on_c, 9, 42, 0
1, 50486, Note_on_c, 7, 57, 0
1, 50488, Note_on_c, 0, 42, 0
1, 50492, Note_on_c, 7, 61, 0
1, 50496, Note_on_c, 0, 40, 89
1, 50496, Note_on_c, 9, 46, 63
1, 50496, Note_on_c, 7, 57, 59
1, 50498, Note_on_c, 7, 64, 0
1, 50501, Note_on_c, 7, 61, 75
1, 50502, Note_on_c, 9, 46, 0
1, 50508, Note_on_c, 7, 64, 78
1, 50586, Note_on_c, 7, 61, 0
1, 50590, Note_on_c, 7, 57, 0
1, 50596, Note_on_c, 7, 61, 63
1, 50600, Note_on_c, 7, 57, 58
1, 50668, Note_on_c, 1, 61, 0
1, 50668, Note_on_c, 1, 64, 0
1, 50668, Note_on_c, 1, 57, 0
1, 50676, Note_on_c, 0, 40, 0
1, 50676, Note_on_c, 7, 57, 0
1, 50676, Note_on_c, 7, 61, 0
1, 50676, Note_on_c, 1, 62, 53
1, 50676, Note_on_c, 1, 59, 53
1, 50676, Note_on_c, 1, 67, 53
1, 50678, Note_on_c, 7, 64, 0
1, 50688, Note_on_c, 7, 59, 76
1, 50688, Note_on_c, 9, 42, 64
1, 50688, Note_on_c, 0, 31, 102
1, 50688, Pitch_bend_c, 6, 128
1, 50688, Note_on_c, 9, 35, 113
1, 50692, Note_on_c, 2, 76, 0
1, 50693, Note_on_c, 7, 62, 83
1, 50694, Note_on_c, 9, 35, 0
1, 50694, Note_on_c, 9, 42, 0
1, 50696, Note_on_c, 6, 71, 97
1, 50697, Lyric_t, "lit "
1, 50700, Note_on_c, 7, 67, 86
1, 50700, Note_on_c, 2, 71, 108
1, 50780, Note_on_c, 2, 71, 0
1, 50784, Note_on_c, 9, 42, 37
1, 50790, Note_on_c, 9, 42, 0
1, 50793, Lyric_t, "tle  "
1, 50796, Note_on_c, 2, 71, 104
1, 50800, Pitch_bend_c, 6, 2816
1, 50813, Pitch_bend_c, 6, 6016
1, 50828, Pitch_bend_c, 6, 8192
1, 50870, Note_on_c, 7, 59, 0
1, 50876, Note_on_c, 2, 71, 0
1, 50876, Note_on_c, 7, 62, 0
1, 50880, Note_on_c, 9, 42, 61
1, 50880, Note_on_c, 7, 59, 68
1, 50882, Note_on_c, 7, 67, 0
1, 50883, Lyric_t, "white  "
1, 50885, Note_on_c, 2, 71, 107
1, 50885, Note_on_c, 7, 62, 70
1, 50886, Note_on_c, 9, 42, 0
1, 50892, Note_on_c, 7, 67, 79
1, 50976, Note_on_c, 9, 42, 34
1, 50982, Note_on_c, 9, 42, 0
1, 51062, Note_on_c, 2, 71, 0
1, 51062, Note_on_c, 7, 59, 0
1, 51068, Note_on_c, 7, 62, 0
1, 51072, Note_on_c, 9, 42, 61
1, 51072, Lyric_t, "lies  "
1, 51072, Note_on_c, 9, 37, 109
1, 51072, Note_on_c, 7, 59, 74
1, 51073, Note_on_c, 2, 71, 110
1, 51074, Note_on_c, 7, 67, 0
1, 51077, Note_on_c, 7, 62, 82
1, 51078, Note_on_c, 9, 37, 0
1, 51078, Note_on_c, 9, 42, 0
1, 51084, Note_on_c, 7, 67, 92
1, 51168, Note_on_c, 9, 42, 32
1, 51174, Note_on_c, 9, 42, 0
1, 51212, Pitch_bend_c, 6, 7552
1, 51225, Pitch_bend_c, 6, 7040
1, 51236, Note_on_c, 0, 31, 0
1, 51244, Pitch_bend_c, 6, 5888
1, 51254, Note_on_c, 7, 59, 0
1, 51257, Pitch_bend_c, 6, 5376
1, 51260, Note_on_c, 7, 62, 0
1, 51264, Note_on_c, 9, 42, 59
1, 51264, Note_on_c, 7, 59, 60
1, 51264, Note_on_c, 0, 35, 82
1, 51266, Note_on_c, 7, 67, 0
1, 51269, Note_on_c, 7, 62, 68
1, 51270, Note_on_c, 9, 42, 0
1, 51273, Pitch_bend_c, 6, 4352
1, 51276, Note_on_c, 7, 67, 81
1, 51288, Pitch_bend_c, 6, 3584
1, 51304, Pitch_bend_c, 6, 2048
1, 51320, Pitch_bend_c, 6, 0
1, 51340, Note_on_c, 2, 71, 0
1, 51346, Note_on_c, 0, 35, 0
1, 51354, Note_on_c, 7, 62, 0
1, 51358, Note_on_c, 7, 59, 0
1, 51360, Note_on_c, 9, 35, 98
1, 51360, Lyric_t, "and  "
1, 51360, Note_on_c, 0, 37, 71
1, 51360, Note_on_c, 9, 42, 37
1, 51360, Note_on_c, 2, 73, 106
1, 51364, Note_on_c, 7, 62, 67
1, 51366, Note_on_c, 9, 42, 0
1, 51366, Note_on_c, 9, 35, 0
1, 51368, Note_on_c, 7, 59, 56
1, 51436, Note_on_c, 1, 67, 0
1, 51436, Note_on_c, 1, 62, 0
1, 51436, Note_on_c, 1, 59, 0
1, 51442, Note_on_c, 7, 67, 0
1, 51442, Note_on_c, 0, 37, 0
1, 51444, Note_on_c, 7, 59, 0
1, 51444, Note_on_c, 1, 66, 49
1, 51444, Note_on_c, 1, 62, 50
1, 51444, Note_on_c, 1, 57, 53
1, 51452, Note_on_c, 7, 62, 0
1, 51452, Note_on_c, 2, 73, 0
1, 51456, Note_on_c, 6, 71, 0
1, 51456, Note_on_c, 0, 38, 97
1, 51456, Note_on_c, 9, 35, 110
1, 51456, Note_on_c, 9, 42, 65
1, 51456, Note_on_c, 7, 57, 77
1, 51459, Lyric_t, "but "
1, 51460, Note_on_c, 2, 71, 110
1, 51461, Note_on_c, 7, 62, 79
1, 51462, Note_on_c, 9, 42, 0
1, 51462, Note_on_c, 9, 35, 0
1, 51464, Note_on_c, 6, 66, 102
1, 51468, Note_on_c, 7, 66, 89
1, 51542, Note_on_c, 7, 66, 0
1, 51546, Note_on_c, 7, 62, 0
1, 51546, Note_on_c, 2, 71, 0
1, 51550, Note_on_c, 7, 57, 0
1, 51552, Note_on_c, 7, 66, 73
1, 51552, Lyric_t, "ter "
1, 51552, Note_on_c, 9, 42, 33
1, 51553, Pitch_bend_c, 6, 1024
1, 51553, Note_on_c, 2, 69, 110
1, 51556, Note_on_c, 7, 62, 61
1, 51558, Note_on_c, 9, 42, 0
1, 51560, Note_on_c, 7, 57, 55
1, 51568, Pitch_bend_c, 6, 2304
1, 51581, Pitch_bend_c, 6, 4352
1, 51596, Pitch_bend_c, 6, 5120
1, 51609, Pitch_bend_c, 6, 5888
1, 51610, Note_on_c, 0, 38, 0
1, 51616, Note_on_c, 2, 69, 0
1, 51625, Pitch_bend_c, 6, 6400
1, 51638, Note_on_c, 7, 57, 0
1, 51641, Pitch_bend_c, 6, 6912
1, 51644, Note_on_c, 7, 62, 0
1, 51648, Lyric_t, "\015 "
1, 51648, Lyric_t, "flies  "
1, 51648, Note_on_c, 7, 57, 58
1, 51648, Note_on_c, 0, 38, 87
1, 51648, Note_on_c, 9, 42, 66
1, 51649, Note_on_c, 2, 69, 112
1, 51650, Note_on_c, 7, 66, 0
1, 51653, Note_on_c, 7, 62, 63
1, 51654, Note_on_c, 9, 42, 0
1, 51657, Pitch_bend_c, 6, 7296
1, 51660, Note_on_c, 7, 66, 78
1, 51672, Pitch_bend_c, 6, 7808
1, 51685, Pitch_bend_c, 6, 8192
1, 51734, Note_on_c, 7, 66, 0
1, 51738, Note_on_c, 7, 62, 0
1, 51742, Note_on_c, 7, 57, 0
1, 51744, Note_on_c, 9, 42, 33
1, 51744, Note_on_c, 7, 66, 83
1, 51748, Note_on_c, 7, 62, 68
1, 51750, Note_on_c, 9, 42, 0
1, 51752, Note_on_c, 7, 57, 57
1, 51832, Note_on_c, 7, 57, 0
1, 51832, Note_on_c, 7, 62, 0
1, 51838, Note_on_c, 7, 66, 0
1, 51840, Note_on_c, 7, 57, 72
1, 51840, Note_on_c, 9, 42, 61
1, 51840, Note_on_c, 9, 37, 107
1, 51845, Note_on_c, 7, 62, 83
1, 51846, Note_on_c, 9, 37, 0
1, 51846, Note_on_c, 9, 42, 0
1, 51852, Note_on_c, 7, 66, 91
1, 51936, Note_on_c, 9, 42, 35
1, 51942, Note_on_c, 9, 42, 0
1, 52022, Note_on_c, 7, 57, 0
1, 52028, Note_on_c, 7, 62, 0
1, 52032, Note_on_c, 9, 42, 59
1, 52032, Note_on_c, 7, 57, 64
1, 52034, Note_on_c, 7, 66, 0
1, 52037, Note_on_c, 7, 62, 72
1, 52038, Note_on_c, 9, 42, 0
1, 52044, Note_on_c, 7, 66, 85
1, 52082, Note_on_c, 0, 38, 0
1, 52122, Note_on_c, 7, 62, 0
1, 52126, Note_on_c, 7, 57, 0
1, 52128, Note_on_c, 0, 30, 83
1, 52128, Note_on_c, 9, 42, 39
1, 52132, Note_on_c, 7, 62, 64
1, 52134, Note_on_c, 9, 42, 0
1, 52136, Note_on_c, 7, 57, 58
1, 52174, Note_on_c, 0, 30, 0
1, 52186, Note_on_c, 2, 69, 0
1, 52204, Note_on_c, 1, 62, 0
1, 52204, Note_on_c, 1, 66, 0
1, 52204, Note_on_c, 1, 57, 0
1, 52212, Note_on_c, 7, 62, 0
1, 52212, Note_on_c, 7, 57, 0
1, 52212, Note_on_c, 1, 57, 47
1, 52212, Note_on_c, 1, 64, 48
1, 52212, Note_on_c, 1, 61, 47
1, 52214, Note_on_c, 7, 66, 0
1, 52224, Note_on_c, 6, 66, 0
1, 52224, Note_on_c, 7, 57, 70
1, 52224, Note_on_c, 9, 35, 114
1, 52224, Note_on_c, 9, 42, 59
1, 52224, Note_on_c, 0, 33, 100
1, 52225, Pitch_bend_c, 6, 1280
1, 52227, Lyric_t, "made  "
1, 52228, Note_on_c, 2, 81, 108
1, 52229, Note_on_c, 7, 61, 78
1, 52230, Note_on_c, 9, 42, 0
1, 52230, Note_on_c, 9, 35, 0
1, 52232, Note_on_c, 6, 64, 98
1, 52236, Note_on_c, 7, 64, 87
1, 52320, Note_on_c, 9, 42, 31
1, 52326, Note_on_c, 9, 42, 0
1, 52336, Pitch_bend_c, 6, 4352
1, 52349, Pitch_bend_c, 6, 6912
1, 52364, Pitch_bend_c, 6, 8192
1, 52400, Note_on_c, 2, 81, 0
1, 52406, Note_on_c, 7, 57, 0
1, 52412, Note_on_c, 7, 61, 0
1, 52416, Note_on_c, 7, 57, 63
1, 52416, Note_on_c, 2, 81, 109
1, 52416, Note_on_c, 9, 42, 59
1, 52416, Lyric_t, "me  "
1, 52418, Note_on_c, 7, 64, 0
1, 52421, Note_on_c, 7, 61, 69
1, 52422, Note_on_c, 9, 42, 0
1, 52428, Note_on_c, 7, 64, 86
1, 52506, Note_on_c, 2, 81, 0
1, 52512, Lyric_t, "shed  "
1, 52512, Note_on_c, 9, 42, 35
1, 52513, Note_on_c, 2, 78, 111
1, 52518, Note_on_c, 9, 42, 0
1, 52598, Note_on_c, 7, 57, 0
1, 52604, Note_on_c, 7, 61, 0
1, 52608, Note_on_c, 9, 37, 109
1, 52608, Note_on_c, 7, 57, 79
1, 52608, Note_on_c, 9, 42, 66
1, 52610, Note_on_c, 7, 64, 0
1, 52613, Note_on_c, 7, 61, 85
1, 52614, Note_on_c, 9, 42, 0
1, 52614, Note_on_c, 9, 37, 0
1, 52620, Note_on_c, 7, 64, 91
1, 52704, Note_on_c, 2, 78, 0
1, 52704, Note_on_c, 9, 42, 31
1, 52710, Note_on_c, 9, 42, 0
1, 52710, Lyric_t, "a  "
1, 52712, Note_on_c, 2, 76, 103
1, 52788, Note_on_c, 2, 76, 0
1, 52790, Note_on_c, 7, 57, 0
1, 52793, Lyric_t, "\015 "
1, 52793, Lyric_t, "tear.  "
1, 52796, Note_on_c, 7, 61, 0
1, 52796, Note_on_c, 2, 76, 110
1, 52800, Note_on_c, 7, 57, 64
1, 52800, Note_on_c, 9, 42, 57
1, 52802, Note_on_c, 7, 64, 0
1, 52805, Note_on_c, 7, 61, 67
1, 52806, Note_on_c, 9, 42, 0
1, 52812, Note_on_c, 7, 64, 77
1, 52868, Note_on_c, 0, 33, 0
1, 52890, Note_on_c, 7, 61, 0
1, 52894, Note_on_c, 7, 57, 0
1, 52896, Note_on_c, 9, 42, 42
1, 52896, Note_on_c, 9, 37, 103
1, 52896, Note_on_c, 0, 40, 88
1, 52897, Pitch_bend_c, 6, 7552
1, 52900, Note_on_c, 7, 61, 71
1, 52902, Note_on_c, 9, 37, 0
1, 52902, Note_on_c, 9, 42, 0
1, 52904, Note_on_c, 7, 57, 59
1, 52912, Pitch_bend_c, 6, 7040
1, 52925, Pitch_bend_c, 6, 5504
1, 52936, Note_on_c, 0, 40, 0
1, 52940, Pitch_bend_c, 6, 4096
1, 52953, Pitch_bend_c, 6, 1280
1, 52968, Pitch_bend_c, 6, 0
1, 52978, Note_on_c, 7, 64, 0
1, 52980, Note_on_c, 7, 57, 0
1, 52988, Note_on_c, 7, 61, 0
1, 52992, Note_on_c, 6, 64, 0
1, 52992, Note_on_c, 0, 45, 83
1, 52992, Note_on_c, 9, 35, 112
1, 52992, Note_on_c, 9, 42, 65
1, 52992, Note_on_c, 7, 57, 76
1, 52997, Note_on_c, 7, 61, 78
1, 52998, Note_on_c, 9, 42, 0
1, 52998, Note_on_c, 9, 35, 0
1, 53000, Note_on_c, 6, 61, 102
1, 53004, Note_on_c, 7, 64, 89
1, 53033, Pitch_bend_c, 6, 512
1, 53048, Pitch_bend_c, 6, 1792
1, 53061, Pitch_bend_c, 6, 3328
1, 53076, Pitch_bend_c, 6, 4992
1, 53078, Note_on_c, 7, 64, 0
1, 53080, Note_on_c, 0, 45, 0
1, 53082, Note_on_c, 7, 61, 0
1, 53086, Note_on_c, 7, 57, 0
1, 53086, Note_on_c, 2, 76, 0
1, 53088, Note_on_c, 7, 64, 74
1, 53088, Note_on_c, 0, 47, 77
1, 53088, Note_on_c, 9, 42, 38
1, 53089, Pitch_bend_c, 6, 5888
1, 53092, Note_on_c, 7, 61, 65
1, 53094, Note_on_c, 9, 42, 0
1, 53096, Note_on_c, 7, 57, 54
1, 53104, Pitch_bend_c, 6, 7296
1, 53117, Pitch_bend_c, 6, 8192
1, 53174, Note_on_c, 7, 57, 0
1, 53176, Note_on_c, 0, 47, 0
1, 53180, Note_on_c, 7, 61, 0
1, 53184, Note_on_c, 0, 45, 83
1, 53184, Note_on_c, 7, 57, 53
1, 53184, Note_on_c, 9, 46, 67
1, 53186, Note_on_c, 7, 64, 0
1, 53189, Note_on_c, 7, 61, 69
1, 53190, Note_on_c, 9, 46, 0
1, 53196, Note_on_c, 7, 64, 80
1, 53270, Note_on_c, 7, 64, 0
1, 53274, Note_on_c, 7, 61, 0
1, 53278, Note_on_c, 7, 57, 0
1, 53280, Note_on_c, 7, 64, 78
1, 53284, Note_on_c, 7, 61, 73
1, 53288, Note_on_c, 7, 57, 62
1, 53364, Note_on_c, 0, 45, 0
1, 53368, Note_on_c, 7, 57, 0
1, 53368, Note_on_c, 7, 61, 0
1, 53374, Note_on_c, 7, 64, 0
1, 53376, Note_on_c, 7, 57, 72
1, 53376, Note_on_c, 9, 37, 109
1, 53376, Note_on_c, 0, 40, 88
1, 53376, Lyric_t, "Still  "
1, 53376, Note_on_c, 9, 42, 65
1, 53377, Note_on_c, 2, 76, 109
1, 53381, Note_on_c, 7, 61, 87
1, 53382, Note_on_c, 9, 42, 0
1, 53382, Note_on_c, 9, 37, 0
1, 53388, Note_on_c, 7, 64, 90
1, 53464, Note_on_c, 2, 76, 0
1, 53464, Note_on_c, 0, 40, 0
1, 53472, Lyric_t, "I'm  "
1, 53472, Note_on_c, 9, 42, 32
1, 53472, Note_on_c, 0, 42, 77
1, 53473, Note_on_c, 2, 76, 108
1, 53478, Note_on_c, 9, 42, 0
1, 53558, Note_on_c, 7, 57, 0
1, 53560, Note_on_c, 0, 42, 0
1, 53564, Note_on_c, 7, 61, 0
1, 53568, Note_on_c, 7, 57, 61
1, 53568, Note_on_c, 0, 40, 87
1, 53568, Note_on_c, 9, 42, 57
1, 53570, Note_on_c, 7, 64, 0
1, 53573, Note_on_c, 7, 61, 77
1, 53574, Note_on_c, 9, 42, 0
1, 53580, Note_on_c, 7, 64, 80
1, 53656, Note_on_c, 2, 76, 0
1, 53658, Note_on_c, 7, 61, 0
1, 53662, Note_on_c, 7, 57, 0
1, 53664, Note_on_c, 9, 42, 39
1, 53668, Note_on_c, 7, 61, 68
1, 53670, Note_on_c, 9, 42, 0
1, 53670, Lyric_t, "pray "
1, 53672, Note_on_c, 2, 79, 112
1, 53672, Note_on_c, 7, 57, 55
1, 53740, Note_on_c, 1, 61, 0
1, 53740, Note_on_c, 1, 64, 0
1, 53740, Note_on_c, 1, 57, 0
1, 53748, Note_on_c, 7, 57, 0
1, 53748, Note_on_c, 0, 40, 0
1, 53748, Note_on_c, 7, 61, 0
1, 53748, Note_on_c, 1, 59, 48
1, 53748, Note_on_c, 1, 62, 52
1, 53748, Note_on_c, 1, 67, 48
1, 53750, Note_on_c, 7, 64, 0
1, 53760, Note_on_c, 6, 61, 0
1, 53760, Note_on_c, 0, 31, 97
1, 53760, Pitch_bend_c, 6, 256
1, 53760, Note_on_c, 9, 35, 116
1, 53760, Note_on_c, 9, 42, 63
1, 53760, Note_on_c, 7, 59, 74
1, 53765, Note_on_c, 7, 62, 79
1, 53766, Note_on_c, 9, 42, 0
1, 53766, Note_on_c, 9, 35, 0
1, 53768, Note_on_c, 6, 59, 103
1, 53769, Control_c, 6, 1, 19
1, 53772, Note_on_c, 7, 67, 86
1, 53856, Note_on_c, 9, 42, 32
1, 53862, Note_on_c, 9, 42, 0
1, 53885, Pitch_bend_c, 6, 2816
1, 53894, Note_on_c, 2, 79, 0
1, 53900, Lyric_t, "ing  "
1, 53901, Pitch_bend_c, 6, 5376
1, 53901, Note_on_c, 2, 81, 102
1, 53917, Pitch_bend_c, 6, 6912
1, 53933, Pitch_bend_c, 6, 8192
1, 53942, Note_on_c, 7, 59, 0
1, 53948, Note_on_c, 7, 62, 0
1, 53952, Note_on_c, 7, 59, 66
1, 53952, Note_on_c, 9, 42, 64
1, 53954, Note_on_c, 7, 67, 0
1, 53957, Note_on_c, 7, 62, 75
1, 53958, Note_on_c, 9, 42, 0
1, 53964, Note_on_c, 7, 67, 81
1, 54042, Note_on_c, 2, 81, 0
1, 54048, Note_on_c, 9, 42, 29
1, 54054, Note_on_c, 9, 42, 0
1, 54086, Lyric_t, "on  "
1, 54088, Note_on_c, 2, 81, 105
1, 54134, Note_on_c, 7, 59, 0
1, 54140, Note_on_c, 7, 62, 0
1, 54144, Note_on_c, 9, 37, 105
1, 54144, Note_on_c, 7, 59, 77
1, 54144, Note_on_c, 9, 42, 61
1, 54146, Note_on_c, 7, 67, 0
1, 54149, Note_on_c, 7, 62, 89
1, 54150, Note_on_c, 9, 42, 0
1, 54150, Note_on_c, 9, 37, 0
1, 54156, Note_on_c, 7, 67, 90
1, 54232, Note_on_c, 2, 81, 0
1, 54240, Note_on_c, 9, 42, 33
1, 54246, Note_on_c, 9, 42, 0
1, 54272, Lyric_t, "the  "
1, 54273, Note_on_c, 2, 81, 103
1, 54308, Note_on_c, 0, 31, 0
1, 54326, Note_on_c, 7, 59, 0
1, 54332, Note_on_c, 7, 62, 0
1, 54336, Note_on_c, 0, 35, 71
1, 54336, Note_on_c, 9, 42, 60
1, 54336, Note_on_c, 7, 59, 65
1, 54338, Note_on_c, 7, 67, 0
1, 54341, Note_on_c, 7, 62, 69
1, 54342, Note_on_c, 9, 42, 0
1, 54348, Note_on_c, 7, 67, 84
1, 54414, Note_on_c, 0, 35, 0
1, 54426, Note_on_c, 7, 62, 0
1, 54430, Note_on_c, 7, 59, 0
1, 54432, Note_on_c, 2, 81, 0
1, 54432, Note_on_c, 0, 37, 69
1, 54432, Note_on_c, 9, 42, 36
1, 54432, Note_on_c, 9, 35, 105
1, 54436, Note_on_c, 7, 62, 69
1, 54438, Note_on_c, 9, 35, 0
1, 54438, Note_on_c, 9, 42, 0
1, 54440, Note_on_c, 7, 59, 56
1, 54445, Pitch_bend_c, 6, 7680
1, 54461, Pitch_bend_c, 6, 7040
1, 54464, Lyric_t, "day  "
1, 54464, Lyric_t, "\015 "
1, 54465, Note_on_c, 2, 84, 102
1, 54476, Pitch_bend_c, 6, 6144
1, 54489, Pitch_bend_c, 6, 4992
1, 54504, Pitch_bend_c, 6, 1792
1, 54508, Note_on_c, 1, 59, 0
1, 54508, Note_on_c, 1, 67, 0
1, 54508, Note_on_c, 1, 62, 0
1, 54510, Note_on_c, 0, 37, 0
1, 54514, Note_on_c, 7, 67, 0
1, 54516, Note_on_c, 7, 59, 0
1, 54516, Note_on_c, 1, 66, 50
1, 54516, Note_on_c, 1, 62, 46
1, 54516, Note_on_c, 1, 57, 52
1, 54517, Pitch_bend_c, 6, 0
1, 54524, Note_on_c, 7, 62, 0
1, 54528, Note_on_c, 6, 59, 0
1, 54528, Note_on_c, 7, 57, 73
1, 54528, Note_on_c, 0, 38, 91
1, 54528, Note_on_c, 9, 35, 109
1, 54528, Note_on_c, 9, 42, 61
1, 54533, Note_on_c, 7, 62, 77
1, 54534, Note_on_c, 9, 42, 0
1, 54534, Note_on_c, 9, 35, 0
1, 54536, Note_on_c, 6, 66, 100
1, 54540, Note_on_c, 7, 66, 91
1, 54614, Note_on_c, 7, 66, 0
1, 54618, Note_on_c, 7, 62, 0
1, 54622, Note_on_c, 7, 57, 0
1, 54624, Note_on_c, 7, 66, 66
1, 54624, Note_on_c, 9, 42, 32
1, 54628, Note_on_c, 7, 62, 64
1, 54630, Note_on_c, 9, 42, 0
1, 54632, Note_on_c, 7, 57, 52
1, 54644, Pitch_bend_c, 6, 1024
1, 54648, Note_on_c, 2, 84, 0
1, 54657, Pitch_bend_c, 6, 2304
1, 54665, Lyric_t, "that  "
1, 54668, Note_on_c, 2, 81, 103
1, 54672, Pitch_bend_c, 6, 4736
1, 54682, Note_on_c, 0, 38, 0
1, 54688, Pitch_bend_c, 6, 5888
1, 54701, Pitch_bend_c, 6, 6528
1, 54710, Note_on_c, 7, 57, 0
1, 54716, Note_on_c, 7, 62, 0
1, 54716, Pitch_bend_c, 6, 7296
1, 54720, Note_on_c, 9, 46, 61
1, 54720, Note_on_c, 0, 38, 88
1, 54720, Note_on_c, 7, 57, 62
1, 54722, Note_on_c, 7, 66, 0
1, 54725, Note_on_c, 7, 62, 70
1, 54726, Note_on_c, 9, 46, 0
1, 54732, Note_on_c, 7, 66, 79
1, 54732, Pitch_bend_c, 6, 7680
1, 54748, Pitch_bend_c, 6, 8192
1, 54806, Note_on_c, 7, 66, 0
1, 54810, Note_on_c, 7, 62, 0
1, 54814, Note_on_c, 7, 57, 0
1, 54816, Note_on_c, 7, 66, 79
1, 54820, Note_on_c, 7, 62, 69
1, 54824, Note_on_c, 7, 57, 65
1, 54826, Note_on_c, 2, 81, 0
1, 54867, Lyric_t, "you'll  "
1, 54869, Note_on_c, 2, 81, 102
1, 54904, Note_on_c, 7, 57, 0
1, 54904, Note_on_c, 7, 62, 0
1, 54910, Note_on_c, 7, 66, 0
1, 54912, Note_on_c, 9, 42, 63
1, 54912, Note_on_c, 9, 37, 104
1, 54912, Note_on_c, 7, 57, 73
1, 54917, Note_on_c, 7, 62, 83
1, 54918, Note_on_c, 9, 37, 0
1, 54918, Note_on_c, 9, 42, 0
1, 54924, Note_on_c, 7, 66, 90
1, 55008, Note_on_c, 9, 42, 31
1, 55014, Note_on_c, 9, 42, 0
1, 55045, Pitch_bend_c, 6, 7936
1, 55048, Note_on_c, 2, 81, 0
1, 55061, Pitch_bend_c, 6, 7680
1, 55065, Note_on_c, 2, 79, 103
1, 55065, Lyric_t, "be  "
1, 55080, Pitch_bend_c, 6, 7168
1, 55093, Pitch_bend_c, 6, 6912
1, 55094, Note_on_c, 7, 57, 0
1, 55100, Note_on_c, 7, 62, 0
1, 55104, Note_on_c, 7, 57, 67
1, 55104, Note_on_c, 9, 42, 57
1, 55106, Note_on_c, 7, 66, 0
1, 55108, Pitch_bend_c, 6, 6272
1, 55109, Note_on_c, 7, 62, 73
1, 55110, Note_on_c, 9, 42, 0
1, 55116, Note_on_c, 7, 66, 79
1, 55121, Pitch_bend_c, 6, 5632
1, 55136, Pitch_bend_c, 6, 4608
1, 55149, Pitch_bend_c, 6, 3840
1, 55154, Note_on_c, 0, 38, 0
1, 55164, Pitch_bend_c, 6, 1280
1, 55177, Pitch_bend_c, 6, 0
1, 55194, Note_on_c, 7, 62, 0
1, 55198, Note_on_c, 7, 57, 0
1, 55200, Note_on_c, 9, 42, 37
1, 55200, Note_on_c, 0, 40, 81
1, 55204, Note_on_c, 7, 62, 66
1, 55206, Note_on_c, 9, 42, 0
1, 55208, Note_on_c, 7, 57, 54
1, 55216, Note_on_c, 2, 79, 0
1, 55248, Lyric_t, "\015 "
1, 55248, Lyric_t, "mine  "
1, 55249, Note_on_c, 2, 81, 104
1, 55268, Note_on_c, 0, 40, 0
1, 55276, Note_on_c, 1, 57, 0
1, 55276, Note_on_c, 1, 62, 0
1, 55276, Note_on_c, 1, 66, 0
1, 55284, Note_on_c, 7, 57, 0
1, 55284, Note_on_c, 7, 62, 0
1, 55284, Note_on_c, 1, 64, 63
1, 55284, Note_on_c, 1, 57, 57
1, 55284, Note_on_c, 1, 61, 59
1, 55286, Note_on_c, 7, 66, 0
1, 55296, Note_on_c, 6, 66, 0
1, 55296, Note_on_c, 0, 33, 96
1, 55296, Note_on_c, 7, 57, 73
1, 55296, Note_on_c, 9, 42, 63
1, 55296, Note_on_c, 9, 35, 118
1, 55301, Note_on_c, 7, 61, 79
1, 55302, Note_on_c, 9, 35, 0
1, 55302, Note_on_c, 9, 42, 0
1, 55304, Note_on_c, 6, 69, 103
1, 55308, Note_on_c, 7, 64, 94
1, 55341, Pitch_bend_c, 6, 1024
1, 55356, Pitch_bend_c, 6, 1536
1, 55369, Pitch_bend_c, 6, 2560
1, 55385, Pitch_bend_c, 6, 3584
1, 55392, Note_on_c, 9, 42, 39
1, 55398, Note_on_c, 9, 42, 0
1, 55401, Pitch_bend_c, 6, 4608
1, 55417, Pitch_bend_c, 6, 5376
1, 55433, Pitch_bend_c, 6, 5888
1, 55448, Pitch_bend_c, 6, 6528
1, 55461, Pitch_bend_c, 6, 7040
1, 55477, Pitch_bend_c, 6, 7552
1, 55478, Note_on_c, 7, 57, 0
1, 55484, Note_on_c, 7, 61, 0
1, 55488, Note_on_c, 9, 42, 67
1, 55488, Note_on_c, 7, 57, 62
1, 55490, Note_on_c, 7, 64, 0
1, 55492, Pitch_bend_c, 6, 7936
1, 55493, Note_on_c, 7, 61, 72
1, 55494, Note_on_c, 9, 42, 0
1, 55500, Note_on_c, 7, 64, 85
1, 55505, Pitch_bend_c, 6, 8192
1, 55584, Note_on_c, 9, 42, 34
1, 55590, Note_on_c, 9, 42, 0
1, 55670, Note_on_c, 7, 57, 0
1, 55676, Note_on_c, 7, 61, 0
1, 55680, Note_on_c, 7, 57, 77
1, 55680, Note_on_c, 9, 37, 105
1, 55680, Note_on_c, 9, 42, 62
1, 55680, Note_on_c, 8, 61, 1
1, 55680, Note_on_c, 8, 64, 1
1, 55680, Note_on_c, 3, 61, 108
1, 55680, Note_on_c, 3, 64, 110
1, 55682, Note_on_c, 7, 64, 0
1, 55685, Note_on_c, 7, 61, 85
1, 55686, Note_on_c, 9, 42, 0
1, 55686, Note_on_c, 9, 37, 0
1, 55692, Note_on_c, 7, 64, 89
1, 55776, Note_on_c, 9, 42, 31
1, 55782, Note_on_c, 9, 42, 0
1, 55862, Note_on_c, 7, 57, 0
1, 55868, Note_on_c, 7, 61, 0
1, 55872, Note_on_c, 7, 57, 66
1, 55872, Note_on_c, 9, 42, 62
1, 55874, Note_on_c, 7, 64, 0
1, 55877, Note_on_c, 7, 61, 66
1, 55878, Note_on_c, 9, 42, 0
1, 55884, Note_on_c, 7, 64, 80
1, 55888, Note_on_c, 2, 81, 0
1, 55940, Note_on_c, 0, 33, 0
1, 55962, Note_on_c, 7, 61, 0
1, 55966, Note_on_c, 7, 57, 0
1, 55968, Note_on_c, 9, 42, 41
1, 55968, Note_on_c, 0, 40, 94
1, 55968, Note_on_c, 9, 35, 93
1, 55972, Note_on_c, 7, 61, 63
1, 55974, Note_on_c, 9, 35, 0
1, 55974, Note_on_c, 9, 42, 0
1, 55976, Note_on_c, 7, 57, 62
1, 55993, Lyric_t, "why  "
1, 55996, Note_on_c, 2, 88, 104
1, 56008, Note_on_c, 0, 40, 0
1, 56044, Note_on_c, 3, 64, 0
1, 56044, Note_on_c, 3, 61, 0
1, 56050, Note_on_c, 7, 64, 0
1, 56052, Note_on_c, 7, 57, 0
1, 56052, Note_on_c, 1, 76, 75
1, 56060, Note_on_c, 7, 61, 0
1, 56064, Note_on_c, 6, 69, 0
1, 56064, Note_on_c, 3, 61, 107
1, 56064, Note_on_c, 0, 45, 90
1, 56064, Note_on_c, 9, 40, 98
1, 56064, Note_on_c, 9, 42, 59
1, 56064, Note_on_c, 3, 64, 111
1, 56064, Note_on_c, 7, 57, 73
1, 56064, Note_on_c, 9, 35, 112
1, 56069, Note_on_c, 7, 61, 80
1, 56070, Note_on_c, 9, 35, 0
1, 56070, Note_on_c, 9, 40, 0
1, 56070, Note_on_c, 9, 42, 0
1, 56076, Note_on_c, 7, 64, 95
1, 56150, Note_on_c, 7, 64, 0
1, 56152, Note_on_c, 0, 45, 0
1, 56154, Note_on_c, 7, 61, 0
1, 56158, Note_on_c, 7, 57, 0
1, 56160, Note_on_c, 7, 64, 66
1, 56160, Note_on_c, 0, 47, 71
1, 56160, Note_on_c, 9, 42, 38
1, 56164, Note_on_c, 7, 61, 60
1, 56166, Note_on_c, 9, 42, 0
1, 56168, Note_on_c, 7, 57, 49
1, 56180, Note_on_c, 2, 88, 0
1, 56185, Lyric_t, "do  "
1, 56188, Note_on_c, 2, 86, 104
1, 56246, Note_on_c, 7, 57, 0
1, 56248, Note_on_c, 0, 47, 0
1, 56252, Note_on_c, 7, 61, 0
1, 56256, Note_on_c, 0, 42, 84
1, 56256, Note_on_c, 9, 46, 64
1, 56256, Note_on_c, 7, 57, 55
1, 56258, Note_on_c, 7, 64, 0
1, 56261, Note_on_c, 7, 61, 66
1, 56262, Note_on_c, 9, 46, 0
1, 56268, Note_on_c, 7, 64, 80
1, 56342, Note_on_c, 7, 64, 0
1, 56344, Note_on_c, 0, 42, 0
1, 56346, Note_on_c, 7, 61, 0
1, 56350, Note_on_c, 7, 57, 0
1, 56350, Note_on_c, 2, 86, 0
1, 56352, Note_on_c, 0, 45, 68
1, 56352, Note_on_c, 7, 64, 82
1, 56352, Note_on_c, 9, 35, 85
1, 56356, Note_on_c, 7, 61, 72
1, 56358, Note_on_c, 9, 35, 0
1, 56360, Note_on_c, 7, 57, 60
1, 56364, Lyric_t, "you  "
1, 56365, Note_on_c, 2, 84, 103
1, 56428, Note_on_c, 3, 64, 0
1, 56428, Note_on_c, 1, 76, 0
1, 56428, Note_on_c, 3, 61, 0
1, 56436, Note_on_c, 1, 74, 79
1, 56440, Note_on_c, 0, 45, 0
1, 56440, Note_on_c, 7, 57, 0
1, 56440, Note_on_c, 7, 61, 0
1, 56446, Note_on_c, 7, 64, 0
1, 56448, Note_on_c, 9, 42, 62
1, 56448, Note_on_c, 9, 40, 103
1, 56448, Note_on_c, 3, 61, 105
1, 56448, Note_on_c, 7, 57, 76
1, 56448, Note_on_c, 0, 40, 82
1, 56448, Note_on_c, 3, 64, 112
1, 56448, Note_on_c, 9, 37, 103
1, 56453, Note_on_c, 7, 61, 83
1, 56454, Note_on_c, 9, 37, 0
1, 56454, Note_on_c, 9, 42, 0
1, 56454, Note_on_c, 9, 40, 0
1, 56460, Note_on_c, 7, 64, 96
1, 56496, Note_on_c, 2, 84, 0
1, 56512, Lyric_t, "leave?  "
1, 56512, Lyric_t, "\015 "
1, 56513, Note_on_c, 2, 86, 106
1, 56536, Note_on_c, 0, 40, 0
1, 56541, Control_c, 6, 1, 19
1, 56544, Note_on_c, 9, 40, 87
1, 56544, Note_on_c, 9, 42, 35
1, 56544, Note_on_c, 0, 42, 75
1, 56550, Note_on_c, 9, 42, 0
1, 56550, Note_on_c, 9, 40, 0
1, 56624, Note_on_c, 2, 86, 0
1, 56630, Note_on_c, 7, 57, 0
1, 56632, Note_on_c, 0, 42, 0
1, 56632, Note_on_c, 2, 84, 105
1, 56636, Note_on_c, 7, 61, 0
1, 56640, Note_on_c, 9, 45, 74
1, 56640, Note_on_c, 9, 35, 91
1, 56640, Note_on_c, 0, 37, 90
1, 56640, Note_on_c, 7, 57, 60
1, 56640, Note_on_c, 9, 46, 59
1, 56642, Note_on_c, 7, 64, 0
1, 56645, Note_on_c, 7, 61, 73
1, 56646, Note_on_c, 9, 45, 0
1, 56646, Note_on_c, 9, 46, 0
1, 56646, Note_on_c, 9, 35, 0
1, 56652, Note_on_c, 7, 64, 84
1, 56728, Note_on_c, 0, 37, 0
1, 56730, Note_on_c, 7, 61, 0
1, 56734, Note_on_c, 7, 57, 0
1, 56736, Note_on_c, 0, 40, 66
1, 56740, Note_on_c, 7, 61, 64
1, 56744, Note_on_c, 7, 57, 59
1, 56812, Note_on_c, 1, 57, 0
1, 56812, Note_on_c, 1, 61, 0
1, 56812, Note_on_c, 1, 64, 0
1, 56812, Note_on_c, 1, 74, 0
1, 56820, Note_on_c, 7, 61, 0
1, 56820, Note_on_c, 7, 57, 0
1, 56820, Note_on_c, 1, 62, 83
1, 56820, Note_on_c, 1, 55, 75
1, 56820, Note_on_c, 1, 67, 78
1, 56820, Note_on_c, 1, 59, 82
1, 56822, Note_on_c, 7, 64, 0
1, 56824, Note_on_c, 3, 64, 0
1, 56824, Note_on_c, 3, 61, 0
1, 56824, Note_on_c, 0, 40, 0
1, 56830, Note_on_c, 8, 61, 0
1, 56830, Note_on_c, 8, 64, 0
1, 56832, Note_on_c, 9, 35, 121
1, 56832, Note_on_c, 3, 62, 106
1, 56832, Note_on_c, 9, 49, 77
1, 56832, Note_on_c, 9, 42, 88
1, 56832, Note_on_c, 5, 43, 90
1, 56832, Note_on_c, 9, 51, 61
1, 56832, Note_on_c, 7, 59, 85
1, 56832, Note_on_c, 8, 62, 1
1, 56832, Note_on_c, 0, 31, 106
1, 56837, Note_on_c, 7, 62, 97
1, 56838, Note_on_c, 9, 51, 0
1, 56838, Note_on_c, 9, 42, 0
1, 56838, Note_on_c, 9, 35, 0
1, 56838, Note_on_c, 9, 49, 0
1, 56844, Note_on_c, 7, 67, 102
1, 56912, Note_on_c, 2, 84, 0
1, 56920, Note_on_c, 2, 81, 102
1, 57014, Note_on_c, 7, 59, 0
1, 57016, Note_on_c, 5, 43, 0
1, 57020, Note_on_c, 7, 62, 0
1, 57024, Note_on_c, 9, 42, 73
1, 57024, Note_on_c, 9, 51, 55
1, 57024, Note_on_c, 7, 59, 79
1, 57024, Note_on_c, 5, 43, 92
1, 57026, Note_on_c, 7, 67, 0
1, 57029, Note_on_c, 7, 62, 84
1, 57030, Note_on_c, 9, 51, 0
1, 57030, Note_on_c, 9, 42, 0
1, 57036, Note_on_c, 7, 67, 97
1, 57206, Note_on_c, 7, 59, 0
1, 57208, Note_on_c, 3, 62, 0
1, 57212, Note_on_c, 7, 62, 0
1, 57216, Note_on_c, 5, 67, 99
1, 57216, Note_on_c, 5, 55, 96
1, 57216, Note_on_c, 9, 40, 91
1, 57216, Note_on_c, 9, 51, 58
1, 57216, Note_on_c, 5, 50, 92
1, 57216, Note_on_c, 9, 42, 90
1, 57216, Note_on_c, 7, 59, 86
1, 57218, Note_on_c, 7, 67, 0
1, 57221, Note_on_c, 7, 62, 101
1, 57222, Note_on_c, 9, 42, 0
1, 57222, Note_on_c, 9, 40, 0
1, 57222, Note_on_c, 9, 51, 0
1, 57228, Note_on_c, 7, 67, 108
1, 57306, Note_on_c, 0, 31, 0
1, 57350, Note_on_c, 2, 81, 0
1, 57398, Note_on_c, 7, 59, 0
1, 57404, Note_on_c, 7, 62, 0
1, 57408, Note_on_c, 7, 59, 72
1, 57408, Note_on_c, 9, 51, 61
1, 57408, Note_on_c, 0, 31, 87
1, 57408, Note_on_c, 9, 42, 69
1, 57410, Note_on_c, 7, 67, 0
1, 57413, Note_on_c, 7, 62, 86
1, 57414, Note_on_c, 9, 42, 0
1, 57414, Note_on_c, 9, 51, 0
1, 57420, Note_on_c, 7, 67, 96
1, 57442, Note_on_c, 0, 31, 0
1, 57498, Note_on_c, 5, 43, 0
1, 57498, Note_on_c, 7, 62, 0
1, 57502, Note_on_c, 7, 59, 0
1, 57504, Note_on_c, 0, 31, 83
1, 57504, Note_on_c, 9, 35, 90
1, 57508, Note_on_c, 7, 62, 82
1, 57510, Note_on_c, 9, 35, 0
1, 57512, Note_on_c, 7, 59, 70
1, 57538, Note_on_c, 0, 31, 0
1, 57580, Note_on_c, 1, 55, 0
1, 57580, Note_on_c, 1, 59, 0
1, 57580, Note_on_c, 1, 62, 0
1, 57580, Note_on_c, 1, 67, 0
1, 57582, Note_on_c, 5, 50, 0
1, 57586, Note_on_c, 7, 67, 0
1, 57588, Note_on_c, 7, 59, 0
1, 57588, Note_on_c, 1, 62, 76
1, 57588, Note_on_c, 1, 50, 76
1, 57588, Note_on_c, 1, 66, 78
1, 57588, Note_on_c, 1, 57, 76
1, 57596, Note_on_c, 7, 62, 0
1, 57598, Note_on_c, 8, 62, 0
1, 57600, Note_on_c, 3, 74, 123
1, 57600, Note_on_c, 3, 69, 119
1, 57600, Note_on_c, 3, 78, 116
1, 57600, Note_on_c, 8, 74, 1
1, 57600, Note_on_c, 8, 78, 1
1, 57600, Lyric_t, "Cow "
1, 57600, Note_on_c, 9, 35, 115
1, 57600, Note_on_c, 5, 45, 91
1, 57600, Note_on_c, 0, 38, 104
1, 57600, Note_on_c, 8, 66, 1
1, 57600, Note_on_c, 8, 69, 1
1, 57600, Note_on_c, 9, 42, 90
1, 57600, Note_on_c, 3, 66, 123
1, 57600, Note_on_c, 2, 78, 1
1, 57600, Note_on_c, 9, 51, 57
1, 57600, Note_on_c, 7, 57, 84
1, 57605, Note_on_c, 7, 62, 93
1, 57606, Note_on_c, 9, 51, 0
1, 57606, Note_on_c, 9, 42, 0
1, 57606, Note_on_c, 9, 35, 0
1, 57612, Note_on_c, 7, 66, 100
1, 57656, Note_on_c, 5, 67, 0
1, 57656, Note_on_c, 5, 55, 0
1, 57686, Note_on_c, 7, 66, 0
1, 57690, Note_on_c, 7, 62, 0
1, 57694, Note_on_c, 7, 57, 0
1, 57696, Note_on_c, 7, 66, 80
1, 57700, Note_on_c, 7, 62, 69
1, 57704, Note_on_c, 0, 38, 0
1, 57704, Note_on_c, 7, 57, 62
1, 57774, Note_on_c, 2, 78, 0
1, 57774, Note_on_c, 3, 69, 0
1, 57774, Note_on_c, 3, 66, 0
1, 57774, Note_on_c, 3, 78, 0
1, 57774, Note_on_c, 3, 74, 0
1, 57782, Note_on_c, 7, 57, 0
1, 57784, Note_on_c, 5, 45, 0
1, 57788, Note_on_c, 7, 62, 0
1, 57790, Note_on_c, 8, 66, 0
1, 57790, Note_on_c, 8, 69, 0
1, 57790, Note_on_c, 8, 74, 0
1, 57790, Note_on_c, 8, 78, 0
1, 57792, Note_on_c, 8, 64, 1
1, 57792, Note_on_c, 3, 69, 117
1, 57792, Note_on_c, 0, 38, 100
1, 57792, Note_on_c, 8, 76, 1
1, 57792, Note_on_c, 3, 64, 122
1, 57792, Note_on_c, 8, 69, 1
1, 57792, Note_on_c, 8, 73, 1
1, 57792, Note_on_c, 9, 51, 56
1, 57792, Note_on_c, 3, 76, 125
1, 57792, Note_on_c, 3, 73, 116
1, 57792, Note_on_c, 9, 42, 72
1, 57792, Note_on_c, 7, 57, 73
1, 57792, Note_on_c, 9, 35, 103
1, 57792, Note_on_c, 5, 45, 88
1, 57792, Lyric_t, "boys  "
1, 57792, Note_on_c, 2, 76, 1
1, 57794, Note_on_c, 7, 66, 0
1, 57797, Note_on_c, 7, 62, 81
1, 57798, Note_on_c, 9, 35, 0
1, 57798, Note_on_c, 9, 42, 0
1, 57798, Note_on_c, 9, 51, 0
1, 57804, Note_on_c, 7, 66, 89
1, 57878, Note_on_c, 7, 66, 0
1, 57882, Note_on_c, 7, 62, 0
1, 57886, Note_on_c, 7, 57, 0
1, 57888, Note_on_c, 7, 66, 88
1, 57892, Note_on_c, 7, 62, 82
1, 57896, Note_on_c, 7, 57, 76
1, 57966, Note_on_c, 3, 64, 0
1, 57966, Note_on_c, 2, 76, 0
1, 57966, Note_on_c, 3, 69, 0
1, 57966, Note_on_c, 3, 73, 0
1, 57966, Note_on_c, 3, 76, 0
1, 57976, Note_on_c, 7, 57, 0
1, 57976, Note_on_c, 7, 62, 0
1, 57982, Note_on_c, 7, 66, 0
1, 57982, Note_on_c, 8, 69, 0
1, 57982, Note_on_c, 8, 76, 0
1, 57982, Note_on_c, 8, 73, 0
1, 57982, Note_on_c, 8, 64, 0
1, 57984, Note_on_c, 3, 66, 110
1, 57984, Note_on_c, 9, 40, 95
1, 57984, Note_on_c, 8, 62, 1
1, 57984, Note_on_c, 8, 74, 1
1, 57984, Note_on_c, 5, 54, 100
1, 57984, Note_on_c, 5, 66, 96
1, 57984, Note_on_c, 8, 69, 1
1, 57984, Lyric_t, "and  "
1, 57984, Note_on_c, 3, 69, 108
1, 57984, Note_on_c, 3, 74, 112
1, 57984, Note_on_c, 3, 62, 108
1, 57984, Note_on_c, 2, 74, 1
1, 57984, Note_on_c, 9, 42, 89
1, 57984, Note_on_c, 9, 51, 56
1, 57984, Note_on_c, 7, 57, 87
1, 57984, Note_on_c, 5, 50, 98
1, 57984, Note_on_c, 8, 66, 1
1, 57989, Note_on_c, 7, 62, 100
1, 57990, Note_on_c, 9, 51, 0
1, 57990, Note_on_c, 9, 42, 0
1, 57990, Note_on_c, 9, 40, 0
1, 57996, Note_on_c, 7, 66, 102
1, 58144, Note_on_c, 3, 66, 0
1, 58144, Note_on_c, 2, 74, 0
1, 58144, Note_on_c, 3, 62, 0
1, 58144, Note_on_c, 3, 74, 0
1, 58144, Note_on_c, 3, 69, 0
1, 58166, Note_on_c, 7, 57, 0
1, 58172, Note_on_c, 7, 62, 0
1, 58174, Note_on_c, 8, 66, 0
1, 58174, Note_on_c, 8, 62, 0
1, 58174, Note_on_c, 8, 74, 0
1, 58174, Note_on_c, 8, 69, 0
1, 58176, Note_on_c, 3, 66, 114
1, 58176, Note_on_c, 8, 66, 1
1, 58176, Note_on_c, 8, 69, 1
1, 58176, Note_on_c, 9, 42, 69
1, 58176, Note_on_c, 3, 69, 108
1, 58176, Note_on_c, 8, 78, 1
1, 58176, Note_on_c, 7, 57, 74
1, 58176, Note_on_c, 8, 74, 1
1, 58176, Note_on_c, 9, 51, 55
1, 58176, Note_on_c, 2, 78, 1
1, 58176, Note_on_c, 3, 74, 112
1, 58176, Note_on_c, 3, 78, 111
1, 58176, Lyric_t, "kiss "
1, 58178, Note_on_c, 7, 66, 0
1, 58181, Note_on_c, 7, 62, 84
1, 58182, Note_on_c, 9, 51, 0
1, 58182, Note_on_c, 9, 42, 0
1, 58188, Note_on_c, 7, 66, 90
1, 58226, Note_on_c, 0, 38, 0
1, 58266, Note_on_c, 7, 62, 0
1, 58266, Note_on_c, 5, 45, 0
1, 58270, Note_on_c, 7, 57, 0
1, 58272, Note_on_c, 0, 38, 95
1, 58276, Note_on_c, 7, 62, 78
1, 58280, Note_on_c, 7, 57, 69
1, 58292, Note_on_c, 2, 78, 0
1, 58292, Note_on_c, 3, 78, 0
1, 58292, Note_on_c, 3, 66, 0
1, 58292, Note_on_c, 3, 74, 0
1, 58292, Note_on_c, 3, 69, 0
1, 58318, Note_on_c, 0, 38, 0
1, 58348, Note_on_c, 1, 62, 0
1, 58348, Note_on_c, 1, 50, 0
1, 58348, Note_on_c, 1, 57, 0
1, 58348, Note_on_c, 1, 66, 0
1, 58356, Note_on_c, 7, 62, 0
1, 58356, Note_on_c, 7, 57, 0
1, 58356, Note_on_c, 1, 61, 75
1, 58356, Note_on_c, 1, 52, 76
1, 58356, Note_on_c, 1, 57, 76
1, 58356, Note_on_c, 1, 64, 77
1, 58358, Note_on_c, 7, 66, 0
1, 58366, Note_on_c, 8, 78, 0
1, 58366, Note_on_c, 8, 74, 0
1, 58366, Note_on_c, 8, 69, 0
1, 58366, Note_on_c, 8, 66, 0
1, 58368, Note_on_c, 3, 64, 115
1, 58368, Note_on_c, 2, 76, 1
1, 58368, Note_on_c, 8, 73, 1
1, 58368, Lyric_t, "\015 "
1, 58368, Note_on_c, 3, 73, 119
1, 58368, Note_on_c, 3, 76, 114
1, 58368, Note_on_c, 9, 42, 85
1, 58368, Note_on_c, 9, 35, 123
1, 58368, Lyric_t, "es  "
1, 58368, Note_on_c, 5, 45, 101
1, 58368, Note_on_c, 0, 33, 105
1, 58368, Note_on_c, 3, 69, 120
1, 58368, Note_on_c, 8, 64, 1
1, 58368, Note_on_c, 8, 69, 1
1, 58368, Note_on_c, 9, 51, 53
1, 58368, Note_on_c, 7, 57, 89
1, 58368, Note_on_c, 8, 76, 1
1, 58373, Note_on_c, 7, 61, 92
1, 58374, Note_on_c, 9, 51, 0
1, 58374, Note_on_c, 9, 35, 0
1, 58374, Note_on_c, 9, 42, 0
1, 58378, Note_on_c, 5, 50, 0
1, 58378, Note_on_c, 5, 66, 0
1, 58378, Note_on_c, 5, 54, 0
1, 58380, Note_on_c, 7, 64, 102
1, 58550, Note_on_c, 7, 57, 0
1, 58552, Note_on_c, 5, 45, 0
1, 58556, Note_on_c, 7, 61, 0
1, 58560, Note_on_c, 5, 45, 96
1, 58560, Note_on_c, 7, 57, 73
1, 58560, Note_on_c, 9, 42, 73
1, 58560, Note_on_c, 9, 51, 54
1, 58562, Note_on_c, 7, 64, 0
1, 58565, Note_on_c, 7, 61, 87
1, 58566, Note_on_c, 9, 51, 0
1, 58566, Note_on_c, 9, 42, 0
1, 58572, Note_on_c, 7, 64, 96
1, 58742, Note_on_c, 7, 57, 0
1, 58748, Note_on_c, 7, 61, 0
1, 58752, Note_on_c, 9, 42, 93
1, 58752, Note_on_c, 9, 40, 94
1, 58752, Note_on_c, 5, 52, 98
1, 58752, Note_on_c, 5, 64, 102
1, 58752, Note_on_c, 7, 57, 91
1, 58752, Note_on_c, 9, 51, 57
1, 58752, Note_on_c, 5, 57, 97
1, 58754, Note_on_c, 7, 64, 0
1, 58757, Note_on_c, 7, 61, 94
1, 58758, Note_on_c, 9, 51, 0
1, 58758, Note_on_c, 9, 42, 0
1, 58758, Note_on_c, 9, 40, 0
1, 58764, Note_on_c, 7, 64, 103
1, 58934, Note_on_c, 7, 57, 0
1, 58937, Lyric_t, "Al "
1, 58940, Note_on_c, 7, 61, 0
1, 58940, Note_on_c, 2, 81, 114
1, 58944, Note_on_c, 9, 42, 71
1, 58944, Note_on_c, 9, 51, 56
1, 58944, Note_on_c, 7, 57, 74
1, 58946, Note_on_c, 7, 64, 0
1, 58949, Note_on_c, 7, 61, 83
1, 58950, Note_on_c, 9, 51, 0
1, 58950, Note_on_c, 9, 42, 0
1, 58956, Note_on_c, 7, 64, 94
1, 59000, Note_on_c, 2, 81, 0
1, 59012, Note_on_c, 0, 33, 0
1, 59033, Note_on_c, 2, 81, 113
1, 59033, Lyric_t, "ways  "
1, 59034, Note_on_c, 5, 45, 0
1, 59034, Note_on_c, 7, 61, 0
1, 59038, Note_on_c, 7, 57, 0
1, 59040, Note_on_c, 9, 35, 88
1, 59040, Note_on_c, 0, 33, 100
1, 59044, Note_on_c, 7, 61, 77
1, 59046, Note_on_c, 9, 35, 0
1, 59048, Note_on_c, 7, 57, 72
1, 59080, Note_on_c, 0, 33, 0
1, 59106, Note_on_c, 2, 81, 0
1, 59118, Note_on_c, 5, 52, 0
1, 59122, Note_on_c, 7, 64, 0
1, 59124, Note_on_c, 7, 57, 0
1, 59132, Note_on_c, 7, 61, 0
1, 59136, Lyric_t, "seem  "
1, 59136, Note_on_c, 9, 42, 85
1, 59136, Note_on_c, 7, 57, 84
1, 59136, Note_on_c, 0, 33, 109
1, 59136, Note_on_c, 9, 35, 118
1, 59136, Note_on_c, 9, 51, 52
1, 59136, Note_on_c, 5, 45, 90
1, 59136, Note_on_c, 2, 81, 115
1, 59141, Note_on_c, 7, 61, 91
1, 59142, Note_on_c, 9, 51, 0
1, 59142, Note_on_c, 9, 35, 0
1, 59142, Note_on_c, 9, 42, 0
1, 59148, Note_on_c, 7, 64, 100
1, 59192, Note_on_c, 5, 57, 0
1, 59192, Note_on_c, 5, 64, 0
1, 59214, Note_on_c, 0, 33, 0
1, 59222, Note_on_c, 7, 64, 0
1, 59226, Note_on_c, 7, 61, 0
1, 59230, Note_on_c, 7, 57, 0
1, 59232, Note_on_c, 7, 64, 86
1, 59236, Note_on_c, 7, 61, 71
1, 59240, Note_on_c, 7, 57, 65
1, 59318, Note_on_c, 7, 57, 0
1, 59318, Note_on_c, 2, 81, 0
1, 59320, Note_on_c, 5, 45, 0
1, 59324, Note_on_c, 7, 61, 0
1, 59324, Lyric_t, "to  "
1, 59325, Note_on_c, 2, 78, 112
1, 59328, Note_on_c, 9, 51, 56
1, 59328, Note_on_c, 9, 42, 68
1, 59328, Note_on_c, 5, 45, 90
1, 59328, Note_on_c, 7, 57, 72
1, 59328, Note_on_c, 9, 35, 102
1, 59328, Note_on_c, 0, 33, 104
1, 59330, Note_on_c, 7, 64, 0
1, 59333, Note_on_c, 7, 61, 74
1, 59334, Note_on_c, 9, 35, 0
1, 59334, Note_on_c, 9, 51, 0
1, 59334, Note_on_c, 9, 42, 0
1, 59340, Note_on_c, 7, 64, 91
1, 59414, Note_on_c, 7, 64, 0
1, 59416, Note_on_c, 2, 78, 0
1, 59418, Note_on_c, 7, 61, 0
1, 59422, Note_on_c, 7, 57, 0
1, 59424, Note_on_c, 7, 64, 86
1, 59424, Note_on_c, 2, 78, 114
1, 59424, Lyric_t, "bring  "
1, 59428, Note_on_c, 7, 61, 82
1, 59432, Note_on_c, 7, 57, 73
1, 59512, Note_on_c, 7, 57, 0
1, 59512, Note_on_c, 7, 61, 0
1, 59518, Note_on_c, 7, 64, 0
1, 59520, Note_on_c, 5, 52, 100
1, 59520, Note_on_c, 5, 64, 102
1, 59520, Note_on_c, 9, 40, 98
1, 59520, Note_on_c, 5, 57, 103
1, 59520, Note_on_c, 7, 57, 84
1, 59520, Note_on_c, 9, 42, 88
1, 59520, Note_on_c, 9, 51, 63
1, 59525, Note_on_c, 7, 61, 100
1, 59526, Note_on_c, 9, 51, 0
1, 59526, Note_on_c, 9, 42, 0
1, 59526, Note_on_c, 9, 40, 0
1, 59532, Note_on_c, 7, 64, 101
1, 59606, Note_on_c, 2, 78, 0
1, 59612, Lyric_t, "me  "
1, 59613, Note_on_c, 2, 76, 108
1, 59684, Note_on_c, 0, 33, 0
1, 59702, Note_on_c, 2, 76, 0
1, 59702, Note_on_c, 3, 64, 0
1, 59702, Note_on_c, 3, 73, 0
1, 59702, Note_on_c, 3, 69, 0
1, 59702, Note_on_c, 7, 57, 0
1, 59702, Note_on_c, 3, 76, 0
1, 59704, Note_on_c, 5, 52, 0
1, 59704, Note_on_c, 2, 76, 0
1, 59704, Note_on_c, 5, 45, 0
1, 59708, Note_on_c, 7, 61, 0
1, 59712, Note_on_c, 0, 38, 103
1, 59712, Note_on_c, 2, 76, 112
1, 59712, Lyric_t, "down  "
1, 59712, Note_on_c, 5, 45, 70
1, 59712, Note_on_c, 7, 57, 74
1, 59712, Lyric_t, "\015 "
1, 59712, Note_on_c, 9, 46, 65
1, 59712, Note_on_c, 9, 51, 58
1, 59712, Note_on_c, 5, 52, 68
1, 59714, Note_on_c, 7, 64, 0
1, 59717, Note_on_c, 7, 61, 87
1, 59718, Note_on_c, 9, 51, 0
1, 59718, Note_on_c, 9, 46, 0
1, 59724, Note_on_c, 7, 64, 97
1, 59778, Note_on_c, 5, 52, 0
1, 59778, Note_on_c, 5, 45, 0
1, 59802, Note_on_c, 7, 61, 0
1, 59806, Note_on_c, 7, 57, 0
1, 59808, Note_on_c, 5, 45, 73
1, 59808, Note_on_c, 5, 52, 70
1, 59812, Note_on_c, 7, 61, 81
1, 59816, Note_on_c, 7, 57, 74
1, 59874, Note_on_c, 5, 52, 0
1, 59874, Note_on_c, 5, 45, 0
1, 59882, Note_on_c, 0, 38, 0
1, 59884, Note_on_c, 1, 57, 0
1, 59884, Note_on_c, 1, 61, 0
1, 59884, Note_on_c, 1, 64, 0
1, 59884, Note_on_c, 1, 52, 0
1, 59892, Note_on_c, 7, 57, 0
1, 59892, Note_on_c, 7, 61, 0
1, 59892, Note_on_c, 1, 62, 77
1, 59892, Note_on_c, 1, 59, 82
1, 59892, Note_on_c, 1, 67, 80
1, 59892, Note_on_c, 1, 55, 83
1, 59894, Note_on_c, 7, 64, 0
1, 59896, Note_on_c, 5, 64, 0
1, 59896, Note_on_c, 5, 57, 0
1, 59902, Note_on_c, 8, 73, 0
1, 59902, Note_on_c, 8, 64, 0
1, 59902, Note_on_c, 8, 76, 0
1, 59902, Note_on_c, 8, 69, 0
1, 59904, Note_on_c, 9, 51, 60
1, 59904, Note_on_c, 9, 49, 80
1, 59904, Note_on_c, 9, 42, 89
1, 59904, Note_on_c, 5, 55, 98
1, 59904, Note_on_c, 5, 43, 92
1, 59904, Note_on_c, 9, 35, 124
1, 59904, Note_on_c, 7, 59, 81
1, 59904, Note_on_c, 0, 31, 106
1, 59909, Note_on_c, 7, 62, 91
1, 59910, Note_on_c, 9, 35, 0
1, 59910, Note_on_c, 9, 42, 0
1, 59910, Note_on_c, 9, 49, 0
1, 59910, Note_on_c, 9, 51, 0
1, 59916, Note_on_c, 7, 67, 104
1, 59954, Note_on_c, 2, 76, 0
1, 59985, Note_on_c, 2, 81, 115
1, 60086, Note_on_c, 7, 59, 0
1, 60088, Note_on_c, 5, 55, 0
1, 60088, Note_on_c, 5, 43, 0
1, 60092, Note_on_c, 7, 62, 0
1, 60096, Note_on_c, 9, 42, 72
1, 60096, Note_on_c, 9, 51, 54
1, 60096, Note_on_c, 5, 43, 91
1, 60096, Note_on_c, 5, 55, 101
1, 60096, Note_on_c, 7, 59, 76
1, 60098, Note_on_c, 7, 67, 0
1, 60101, Note_on_c, 7, 62, 83
1, 60102, Note_on_c, 9, 51, 0
1, 60102, Note_on_c, 9, 42, 0
1, 60108, Note_on_c, 7, 67, 96
1, 60278, Note_on_c, 7, 59, 0
1, 60282, Note_on_c, 0, 31, 0
1, 60284, Note_on_c, 5, 55, 0
1, 60284, Note_on_c, 7, 62, 0
1, 60288, Note_on_c, 5, 67, 97
1, 60288, Note_on_c, 9, 42, 88
1, 60288, Note_on_c, 5, 55, 109
1, 60288, Note_on_c, 5, 50, 92
1, 60288, Note_on_c, 9, 40, 97
1, 60288, Note_on_c, 7, 59, 92
1, 60288, Note_on_c, 9, 51, 60
1, 60290, Note_on_c, 7, 67, 0
1, 60293, Note_on_c, 7, 62, 94
1, 60294, Note_on_c, 9, 42, 0
1, 60294, Note_on_c, 9, 51, 0
1, 60294, Note_on_c, 9, 40, 0
1, 60300, Note_on_c, 7, 67, 107
1, 60384, Note_on_c, 0, 31, 83
1, 60404, Note_on_c, 2, 81, 0
1, 60418, Note_on_c, 0, 31, 0
1, 60470, Note_on_c, 7, 59, 0
1, 60472, Note_on_c, 5, 50, 0
1, 60472, Note_on_c, 5, 55, 0
1, 60476, Note_on_c, 7, 62, 0
1, 60480, Note_on_c, 5, 50, 66
1, 60480, Note_on_c, 0, 35, 87
1, 60480, Note_on_c, 9, 42, 71
1, 60480, Note_on_c, 9, 51, 57
1, 60480, Note_on_c, 7, 59, 74
1, 60480, Note_on_c, 5, 55, 85
1, 60482, Note_on_c, 7, 67, 0
1, 60485, Note_on_c, 7, 62, 82
1, 60486, Note_on_c, 9, 51, 0
1, 60486, Note_on_c, 9, 42, 0
1, 60492, Note_on_c, 7, 67, 97
1, 60546, Note_on_c, 0, 35, 0
1, 60562, Note_on_c, 5, 50, 0
1, 60562, Note_on_c, 5, 55, 0
1, 60570, Note_on_c, 5, 43, 0
1, 60570, Note_on_c, 7, 62, 0
1, 60574, Note_on_c, 7, 59, 0
1, 60576, Note_on_c, 5, 50, 68
1, 60576, Note_on_c, 0, 37, 82
1, 60576, Note_on_c, 5, 55, 79
1, 60576, Note_on_c, 9, 35, 90
1, 60580, Note_on_c, 7, 62, 83
1, 60582, Note_on_c, 9, 35, 0
1, 60584, Note_on_c, 7, 59, 67
1, 60642, Note_on_c, 0, 37, 0
1, 60652, Note_on_c, 1, 55, 0
1, 60652, Note_on_c, 1, 62, 0
1, 60652, Note_on_c, 1, 67, 0
1, 60652, Note_on_c, 1, 59, 0
1, 60658, Note_on_c, 5, 55, 0
1, 60658, Note_on_c, 7, 67, 0
1, 60658, Note_on_c, 5, 50, 0
1, 60660, Note_on_c, 7, 59, 0
1, 60660, Note_on_c, 1, 57, 81
1, 60660, Note_on_c, 1, 50, 82
1, 60660, Note_on_c, 1, 62, 81
1, 60660, Note_on_c, 1, 66, 81
1, 60668, Note_on_c, 7, 62, 0
1, 60672, Lyric_t, "Weight  "
1, 60672, Note_on_c, 3, 66, 118
1, 60672, Note_on_c, 8, 74, 1
1, 60672, Note_on_c, 3, 74, 124
1, 60672, Note_on_c, 3, 69, 119
1, 60672, Note_on_c, 8, 69, 1
1, 60672, Note_on_c, 7, 57, 87
1, 60672, Note_on_c, 8, 78, 1
1, 60672, Note_on_c, 0, 38, 99
1, 60672, Note_on_c, 9, 51, 59
1, 60672, Note_on_c, 9, 42, 91
1, 60672, Note_on_c, 8, 66, 1
1, 60672, Note_on_c, 5, 55, 99
1, 60672, Note_on_c, 9, 35, 115
1, 60672, Note_on_c, 2, 78, 1
1, 60672, Note_on_c, 5, 45, 94
1, 60672, Note_on_c, 3, 78, 116
1, 60677, Note_on_c, 7, 62, 93
1, 60678, Note_on_c, 9, 35, 0
1, 60678, Note_on_c, 9, 42, 0
1, 60678, Note_on_c, 9, 51, 0
1, 60684, Note_on_c, 7, 66, 107
1, 60728, Note_on_c, 5, 67, 0
1, 60758, Note_on_c, 7, 66, 0
1, 60762, Note_on_c, 5, 55, 0
1, 60762, Note_on_c, 7, 62, 0
1, 60766, Note_on_c, 7, 57, 0
1, 60768, Note_on_c, 5, 54, 79
1, 60768, Note_on_c, 7, 66, 79
1, 60772, Note_on_c, 7, 62, 72
1, 60776, Note_on_c, 7, 57, 66
1, 60796, Note_on_c, 0, 38, 0
1, 60846, Note_on_c, 3, 74, 0
1, 60846, Note_on_c, 2, 78, 0
1, 60846, Note_on_c, 3, 69, 0
1, 60846, Note_on_c, 3, 78, 0
1, 60846, Note_on_c, 3, 66, 0
1, 60854, Note_on_c, 7, 57, 0
1, 60856, Note_on_c, 5, 54, 0
1, 60856, Note_on_c, 5, 45, 0
1, 60860, Note_on_c, 7, 62, 0
1, 60862, Note_on_c, 8, 66, 0
1, 60862, Note_on_c, 8, 69, 0
1, 60862, Note_on_c, 8, 78, 0
1, 60862, Note_on_c, 8, 74, 0
1, 60864, Note_on_c, 0, 38, 101
1, 60864, Note_on_c, 5, 45, 82
1, 60864, Note_on_c, 2, 76, 1
1, 60864, Lyric_t, "in  "
1, 60864, Note_on_c, 3, 73, 124
1, 60864, Note_on_c, 8, 76, 1
1, 60864, Note_on_c, 8, 73, 1
1, 60864, Note_on_c, 3, 69, 116
1, 60864, Note_on_c, 9, 51, 54
1, 60864, Note_on_c, 3, 76, 118
1, 60864, Note_on_c, 8, 69, 1
1, 60864, Note_on_c, 9, 42, 71
1, 60864, Note_on_c, 7, 57, 68
1, 60864, Note_on_c, 5, 54, 95
1, 60864, Note_on_c, 3, 64, 122
1, 60864, Note_on_c, 8, 64, 1
1, 60864, Note_on_c, 9, 35, 109
1, 60866, Note_on_c, 7, 66, 0
1, 60869, Note_on_c, 7, 62, 75
1, 60870, Note_on_c, 9, 35, 0
1, 60870, Note_on_c, 9, 42, 0
1, 60870, Note_on_c, 9, 51, 0
1, 60876, Note_on_c, 7, 66, 91
1, 60950, Note_on_c, 7, 66, 0
1, 60954, Note_on_c, 7, 62, 0
1, 60958, Note_on_c, 7, 57, 0
1, 60960, Note_on_c, 7, 66, 86
1, 60964, Note_on_c, 7, 62, 81
1, 60968, Note_on_c, 7, 57, 71
1, 61038, Note_on_c, 3, 64, 0
1, 61038, Note_on_c, 2, 76, 0
1, 61038, Note_on_c, 3, 73, 0
1, 61038, Note_on_c, 3, 69, 0
1, 61038, Note_on_c, 3, 76, 0
1, 61048, Note_on_c, 7, 62, 0
1, 61048, Note_on_c, 5, 54, 0
1, 61048, Note_on_c, 7, 57, 0
1, 61054, Note_on_c, 7, 66, 0
1, 61054, Note_on_c, 8, 76, 0
1, 61054, Note_on_c, 8, 64, 0
1, 61054, Note_on_c, 8, 73, 0
1, 61054, Note_on_c, 8, 69, 0
1, 61056, Note_on_c, 3, 62, 117
1, 61056, Note_on_c, 2, 74, 1
1, 61056, Note_on_c, 3, 74, 115
1, 61056, Note_on_c, 3, 66, 108
1, 61056, Note_on_c, 9, 42, 87
1, 61056, Note_on_c, 9, 51, 58
1, 61056, Lyric_t, "my  "
1, 61056, Note_on_c, 9, 40, 94
1, 61056, Note_on_c, 5, 50, 96
1, 61056, Note_on_c, 5, 54, 114
1, 61056, Note_on_c, 3, 69, 116
1, 61056, Note_on_c, 7, 57, 91
1, 61056, Note_on_c, 8, 62, 1
1, 61056, Note_on_c, 8, 66, 1
1, 61056, Note_on_c, 5, 66, 98
1, 61056, Note_on_c, 8, 74, 1
1, 61056, Note_on_c, 8, 69, 1
1, 61061, Note_on_c, 7, 62, 96
1, 61062, Note_on_c, 9, 40, 0
1, 61062, Note_on_c, 9, 51, 0
1, 61062, Note_on_c, 9, 42, 0
1, 61068, Note_on_c, 7, 66, 106
1, 61216, Note_on_c, 3, 69, 0
1, 61216, Note_on_c, 3, 66, 0
1, 61216, Note_on_c, 3, 62, 0
1, 61216, Note_on_c, 3, 74, 0
1, 61216, Note_on_c, 2, 74, 0
1, 61238, Note_on_c, 7, 57, 0
1, 61244, Note_on_c, 7, 62, 0
1, 61246, Note_on_c, 8, 66, 0
1, 61246, Note_on_c, 8, 62, 0
1, 61246, Note_on_c, 8, 74, 0
1, 61246, Note_on_c, 8, 69, 0
1, 61248, Note_on_c, 3, 66, 113
1, 61248, Note_on_c, 8, 74, 1
1, 61248, Note_on_c, 8, 69, 1
1, 61248, Note_on_c, 7, 57, 73
1, 61248, Note_on_c, 2, 78, 1
1, 61248, Note_on_c, 3, 69, 110
1, 61248, Note_on_c, 3, 74, 109
1, 61248, Note_on_c, 9, 42, 72
1, 61248, Note_on_c, 8, 78, 1
1, 61248, Note_on_c, 8, 66, 1
1, 61248, Note_on_c, 9, 51, 57
1, 61248, Note_on_c, 3, 78, 108
1, 61248, Lyric_t, "pock "
1, 61250, Note_on_c, 7, 66, 0
1, 61253, Note_on_c, 7, 62, 80
1, 61254, Note_on_c, 9, 51, 0
1, 61254, Note_on_c, 9, 42, 0
1, 61260, Note_on_c, 7, 66, 93
1, 61298, Note_on_c, 0, 38, 0
1, 61338, Note_on_c, 7, 62, 0
1, 61338, Note_on_c, 5, 45, 0
1, 61342, Note_on_c, 7, 57, 0
1, 61344, Note_on_c, 0, 38, 95
1, 61348, Note_on_c, 7, 62, 82
1, 61352, Note_on_c, 7, 57, 68
1, 61364, Note_on_c, 3, 74, 0
1, 61364, Note_on_c, 3, 66, 0
1, 61364, Note_on_c, 3, 69, 0
1, 61364, Note_on_c, 3, 78, 0
1, 61364, Note_on_c, 2, 78, 0
1, 61390, Note_on_c, 0, 38, 0
1, 61420, Note_on_c, 1, 50, 0
1, 61420, Note_on_c, 1, 66, 0
1, 61420, Note_on_c, 1, 62, 0
1, 61420, Note_on_c, 1, 57, 0
1, 61428, Note_on_c, 7, 57, 0
1, 61428, Note_on_c, 7, 62, 0
1, 61428, Note_on_c, 1, 52, 81
1, 61428, Note_on_c, 1, 61, 76
1, 61428, Note_on_c, 1, 57, 82
1, 61428, Note_on_c, 1, 64, 76
1, 61430, Note_on_c, 7, 66, 0
1, 61438, Note_on_c, 8, 69, 0
1, 61438, Note_on_c, 8, 66, 0
1, 61438, Note_on_c, 8, 74, 0
1, 61438, Note_on_c, 8, 78, 0
1, 61440, Note_on_c, 8, 76, 1
1, 61440, Lyric_t, "et  "
1, 61440, Note_on_c, 3, 64, 119
1, 61440, Note_on_c, 2, 76, 1
1, 61440, Note_on_c, 3, 73, 116
1, 61440, Note_on_c, 3, 69, 119
1, 61440, Note_on_c, 0, 33, 108
1, 61440, Note_on_c, 9, 35, 121
1, 61440, Note_on_c, 9, 42, 85
1, 61440, Note_on_c, 9, 51, 61
1, 61440, Lyric_t, "\015 "
1, 61440, Note_on_c, 8, 69, 1
1, 61440, Note_on_c, 8, 73, 1
1, 61440, Note_on_c, 7, 57, 89
1, 61440, Note_on_c, 5, 45, 101
1, 61440, Note_on_c, 8, 64, 1
1, 61440, Note_on_c, 3, 76, 113
1, 61445, Note_on_c, 7, 61, 98
1, 61446, Note_on_c, 9, 51, 0
1, 61446, Note_on_c, 9, 42, 0
1, 61446, Note_on_c, 9, 35, 0
1, 61450, Note_on_c, 5, 54, 0
1, 61450, Note_on_c, 5, 50, 0
1, 61450, Note_on_c, 5, 66, 0
1, 61452, Note_on_c, 7, 64, 99
1, 61622, Note_on_c, 7, 57, 0
1, 61624, Note_on_c, 5, 45, 0
1, 61628, Note_on_c, 7, 61, 0
1, 61632, Note_on_c, 7, 57, 75
1, 61632, Note_on_c, 5, 45, 98
1, 61632, Note_on_c, 9, 51, 58
1, 61632, Note_on_c, 9, 42, 73
1, 61634, Note_on_c, 7, 64, 0
1, 61637, Note_on_c, 7, 61, 81
1, 61638, Note_on_c, 9, 42, 0
1, 61638, Note_on_c, 9, 51, 0
1, 61644, Note_on_c, 7, 64, 94
1, 61814, Note_on_c, 7, 57, 0
1, 61820, Note_on_c, 7, 61, 0
1, 61824, Note_on_c, 2, 81, 111
1, 61824, Note_on_c, 7, 57, 86
1, 61824, Lyric_t, "e "
1, 61824, Note_on_c, 9, 40, 91
1, 61824, Note_on_c, 9, 42, 89
1, 61824, Note_on_c, 5, 52, 98
1, 61824, Note_on_c, 9, 51, 54
1, 61824, Note_on_c, 5, 64, 104
1, 61824, Note_on_c, 5, 57, 99
1, 61826, Note_on_c, 7, 64, 0
1, 61829, Note_on_c, 7, 61, 96
1, 61830, Note_on_c, 9, 51, 0
1, 61830, Note_on_c, 9, 42, 0
1, 61830, Note_on_c, 9, 40, 0
1, 61836, Note_on_c, 7, 64, 102
1, 61912, Note_on_c, 2, 81, 0
1, 61920, Note_on_c, 2, 83, 115
1, 61920, Lyric_t, "ve "
1, 62006, Note_on_c, 7, 57, 0
1, 62008, Note_on_c, 2, 83, 0
1, 62012, Note_on_c, 7, 61, 0
1, 62016, Lyric_t, "ry  "
1, 62016, Note_on_c, 2, 85, 111
1, 62016, Note_on_c, 9, 42, 63
1, 62016, Note_on_c, 7, 57, 79
1, 62016, Note_on_c, 9, 51, 54
1, 62018, Note_on_c, 7, 64, 0
1, 62021, Note_on_c, 7, 61, 85
1, 62022, Note_on_c, 9, 51, 0
1, 62022, Note_on_c, 9, 42, 0
1, 62028, Note_on_c, 7, 64, 97
1, 62084, Note_on_c, 0, 33, 0
1, 62104, Note_on_c, 2, 85, 0
1, 62106, Note_on_c, 5, 45, 0
1, 62106, Note_on_c, 7, 61, 0
1, 62110, Note_on_c, 7, 57, 0
1, 62112, Note_on_c, 0, 40, 99
1, 62112, Note_on_c, 2, 85, 114
1, 62112, Lyric_t, "time  "
1, 62112, Note_on_c, 9, 35, 84
1, 62116, Note_on_c, 7, 61, 80
1, 62118, Note_on_c, 9, 35, 0
1, 62120, Note_on_c, 7, 57, 74
1, 62172, Note_on_c, 0, 40, 0
1, 62190, Note_on_c, 5, 52, 0
1, 62194, Note_on_c, 7, 64, 0
1, 62196, Note_on_c, 7, 57, 0
1, 62204, Note_on_c, 7, 61, 0
1, 62208, Note_on_c, 7, 57, 81
1, 62208, Note_on_c, 9, 35, 118
1, 62208, Note_on_c, 9, 51, 53
1, 62208, Note_on_c, 9, 42, 85
1, 62208, Note_on_c, 5, 45, 90
1, 62208, Note_on_c, 0, 33, 109
1, 62213, Note_on_c, 7, 61, 95
1, 62214, Note_on_c, 9, 42, 0
1, 62214, Note_on_c, 9, 51, 0
1, 62214, Note_on_c, 9, 35, 0
1, 62220, Note_on_c, 7, 64, 101
1, 62220, Note_on_c, 7, 69, 91
1, 62264, Note_on_c, 5, 64, 0
1, 62264, Note_on_c, 5, 57, 0
1, 62288, Note_on_c, 2, 85, 0
1, 62294, Note_on_c, 7, 64, 0
1, 62298, Note_on_c, 7, 61, 0
1, 62302, Note_on_c, 7, 57, 0
1, 62304, Note_on_c, 2, 83, 112
1, 62304, Lyric_t, "you  "
1, 62304, Note_on_c, 7, 64, 83
1, 62308, Note_on_c, 7, 61, 72
1, 62312, Note_on_c, 7, 57, 67
1, 62328, Note_on_c, 0, 33, 0
1, 62388, Note_on_c, 2, 83, 0
1, 62390, Note_on_c, 7, 57, 0
1, 62392, Note_on_c, 5, 45, 0
1, 62396, Note_on_c, 7, 61, 0
1, 62400, Note_on_c, 5, 45, 89
1, 62400, Note_on_c, 9, 35, 100
1, 62400, Note_on_c, 7, 57, 68
1, 62400, Note_on_c, 9, 46, 69
1, 62400, Note_on_c, 0, 33, 103
1, 62400, Note_on_c, 2, 83, 114
1, 62400, Lyric_t, "come  "
1, 62400, Note_on_c, 9, 51, 55
1, 62402, Note_on_c, 7, 64, 0
1, 62405, Note_on_c, 7, 61, 75
1, 62406, Note_on_c, 9, 51, 0
1, 62406, Note_on_c, 9, 35, 0
1, 62406, Note_on_c, 9, 46, 0
1, 62412, Note_on_c, 7, 64, 88
1, 62486, Note_on_c, 7, 64, 0
1, 62488, Note_on_c, 7, 69, 0
1, 62490, Note_on_c, 7, 61, 0
1, 62494, Note_on_c, 7, 57, 0
1, 62496, Note_on_c, 7, 69, 92
1, 62496, Note_on_c, 7, 64, 99
1, 62500, Note_on_c, 7, 61, 96
1, 62504, Note_on_c, 7, 57, 85
1, 62580, Note_on_c, 2, 83, 0
1, 62592, Note_on_c, 2, 81, 115
1, 62592, Note_on_c, 5, 52, 97
1, 62592, Note_on_c, 5, 57, 97
1, 62592, Note_on_c, 9, 42, 85
1, 62592, Note_on_c, 9, 51, 63
1, 62592, Lyric_t, "a "
1, 62592, Note_on_c, 5, 64, 102
1, 62592, Note_on_c, 9, 40, 91
1, 62598, Note_on_c, 9, 40, 0
1, 62598, Note_on_c, 9, 51, 0
1, 62598, Note_on_c, 9, 42, 0
1, 62660, Note_on_c, 0, 33, 0
1, 62678, Note_on_c, 7, 64, 0
1, 62680, Note_on_c, 2, 81, 0
1, 62682, Note_on_c, 7, 61, 0
1, 62686, Note_on_c, 7, 57, 0
1, 62688, Lyric_t, "round.  "
1, 62688, Note_on_c, 2, 81, 109
1, 62688, Note_on_c, 7, 64, 77
1, 62688, Lyric_t, "\015 "
1, 62688, Note_on_c, 0, 33, 103
1, 62692, Note_on_c, 7, 61, 70
1, 62696, Note_on_c, 7, 57, 55
1, 62774, Note_on_c, 7, 57, 0
1, 62774, Note_on_c, 3, 64, 0
1, 62774, Note_on_c, 3, 73, 0
1, 62774, Note_on_c, 3, 69, 0
1, 62774, Note_on_c, 3, 76, 0
1, 62774, Note_on_c, 2, 76, 0
1, 62776, Note_on_c, 5, 45, 0
1, 62776, Note_on_c, 5, 52, 0
1, 62780, Note_on_c, 7, 61, 0
1, 62784, Note_on_c, 9, 46, 67
1, 62784, Note_on_c, 9, 51, 56
1, 62784, Note_on_c, 7, 57, 73
1, 62784, Note_on_c, 5, 45, 71
1, 62784, Note_on_c, 5, 52, 72
1, 62786, Note_on_c, 7, 64, 0
1, 62788, Note_on_c, 7, 69, 0
1, 62789, Note_on_c, 7, 61, 85
1, 62790, Note_on_c, 9, 51, 0
1, 62790, Note_on_c, 9, 46, 0
1, 62796, Note_on_c, 7, 69, 81
1, 62796, Note_on_c, 7, 64, 93
1, 62850, Note_on_c, 5, 45, 0
1, 62850, Note_on_c, 5, 52, 0
1, 62878, Note_on_c, 7, 57, 0
1, 62880, Note_on_c, 5, 52, 68
1, 62880, Note_on_c, 5, 45, 71
1, 62888, Note_on_c, 7, 57, 60
1, 62946, Note_on_c, 5, 45, 0
1, 62946, Note_on_c, 5, 52, 0
1, 62954, Note_on_c, 0, 33, 0
1, 62956, Note_on_c, 1, 64, 0
1, 62956, Note_on_c, 1, 52, 0
1, 62956, Note_on_c, 1, 57, 0
1, 62956, Note_on_c, 1, 61, 0
1, 62964, Note_on_c, 7, 57, 0
1, 62964, Note_on_c, 1, 55, 83
1, 62964, Note_on_c, 1, 67, 78
1, 62964, Note_on_c, 1, 62, 81
1, 62964, Note_on_c, 1, 59, 79
1, 62966, Note_on_c, 7, 64, 0
1, 62966, Note_on_c, 7, 61, 0
1, 62966, Note_on_c, 7, 69, 0
1, 62968, Note_on_c, 5, 64, 0
1, 62968, Note_on_c, 5, 57, 0
1, 62974, Note_on_c, 8, 64, 0
1, 62974, Note_on_c, 8, 76, 0
1, 62974, Note_on_c, 8, 69, 0
1, 62974, Note_on_c, 8, 73, 0
1, 62976, Note_on_c, 9, 42, 87
1, 62976, Note_on_c, 9, 35, 117
1, 62976, Note_on_c, 9, 49, 79
1, 62976, Note_on_c, 0, 31, 113
1, 62976, Note_on_c, 5, 43, 91
1, 62976, Note_on_c, 7, 59, 85
1, 62976, Note_on_c, 9, 51, 54
1, 62981, Note_on_c, 7, 62, 96
1, 62982, Note_on_c, 9, 51, 0
1, 62982, Note_on_c, 9, 35, 0
1, 62982, Note_on_c, 9, 49, 0
1, 62982, Note_on_c, 9, 42, 0
1, 62988, Note_on_c, 7, 67, 98
1, 63158, Note_on_c, 7, 59, 0
1, 63160, Note_on_c, 5, 43, 0
1, 63164, Note_on_c, 7, 62, 0
1, 63168, Note_on_c, 9, 42, 66
1, 63168, Note_on_c, 7, 59, 81
1, 63168, Note_on_c, 5, 43, 84
1, 63168, Note_on_c, 9, 51, 61
1, 63170, Note_on_c, 7, 67, 0
1, 63173, Note_on_c, 7, 62, 82
1, 63174, Note_on_c, 9, 51, 0
1, 63174, Note_on_c, 9, 42, 0
1, 63180, Note_on_c, 7, 67, 98
1, 63338, Note_on_c, 2, 81, 0
1, 63350, Note_on_c, 7, 59, 0
1, 63354, Note_on_c, 0, 31, 0
1, 63356, Note_on_c, 7, 62, 0
1, 63360, Note_on_c, 5, 50, 95
1, 63360, Lyric_t, "Damn  "
1, 63360, Note_on_c, 9, 40, 98
1, 63360, Note_on_c, 9, 42, 85
1, 63360, Note_on_c, 5, 55, 104
1, 63360, Note_on_c, 7, 59, 85
1, 63360, Note_on_c, 2, 78, 114
1, 63360, Note_on_c, 5, 67, 99
1, 63360, Note_on_c, 9, 51, 56
1, 63362, Note_on_c, 7, 67, 0
1, 63365, Note_on_c, 7, 62, 99
1, 63366, Note_on_c, 9, 42, 0
1, 63366, Note_on_c, 9, 40, 0
1, 63366, Note_on_c, 9, 51, 0
1, 63372, Note_on_c, 7, 67, 109
1, 63432, Note_on_c, 2, 78, 0
1, 63456, Note_on_c, 0, 31, 86
1, 63456, Note_on_c, 2, 76, 111
1, 63456, Lyric_t, "those  "
1, 63490, Note_on_c, 0, 31, 0
1, 63542, Note_on_c, 7, 59, 0
1, 63544, Note_on_c, 5, 55, 0
1, 63544, Note_on_c, 5, 50, 0
1, 63548, Note_on_c, 7, 62, 0
1, 63552, Note_on_c, 9, 42, 66
1, 63552, Note_on_c, 5, 55, 75
1, 63552, Note_on_c, 0, 35, 81
1, 63552, Note_on_c, 9, 51, 58
1, 63552, Note_on_c, 7, 59, 71
1, 63552, Note_on_c, 5, 50, 68
1, 63554, Note_on_c, 7, 67, 0
1, 63557, Note_on_c, 7, 62, 82
1, 63558, Note_on_c, 9, 42, 0
1, 63558, Note_on_c, 9, 51, 0
1, 63564, Note_on_c, 7, 67, 89
1, 63618, Note_on_c, 0, 35, 0
1, 63634, Note_on_c, 5, 55, 0
1, 63634, Note_on_c, 5, 50, 0
1, 63642, Note_on_c, 5, 43, 0
1, 63642, Note_on_c, 7, 62, 0
1, 63646, Note_on_c, 7, 59, 0
1, 63648, Note_on_c, 0, 37, 83
1, 63648, Note_on_c, 5, 55, 63
1, 63648, Note_on_c, 9, 35, 92
1, 63648, Note_on_c, 5, 50, 67
1, 63652, Note_on_c, 7, 62, 81
1, 63654, Note_on_c, 9, 35, 0
1, 63656, Note_on_c, 7, 59, 71
1, 63714, Note_on_c, 0, 37, 0
1, 63724, Note_on_c, 1, 55, 0
1, 63724, Note_on_c, 1, 62, 0
1, 63724, Note_on_c, 1, 59, 0
1, 63724, Note_on_c, 2, 76, 0
1, 63724, Note_on_c, 1, 67, 0
1, 63730, Note_on_c, 7, 67, 0
1, 63730, Note_on_c, 5, 55, 0
1, 63730, Note_on_c, 5, 50, 0
1, 63732, Note_on_c, 7, 59, 0
1, 63732, Note_on_c, 1, 62, 82
1, 63732, Note_on_c, 1, 50, 76
1, 63732, Note_on_c, 1, 66, 84
1, 63732, Note_on_c, 1, 57, 81
1, 63740, Note_on_c, 7, 62, 0
1, 63744, Note_on_c, 3, 66, 124
1, 63744, Note_on_c, 9, 42, 87
1, 63744, Note_on_c, 5, 45, 95
1, 63744, Note_on_c, 5, 55, 86
1, 63744, Note_on_c, 9, 35, 121
1, 63744, Note_on_c, 7, 57, 88
1, 63744, Note_on_c, 9, 51, 58
1, 63744, Note_on_c, 8, 66, 1
1, 63744, Note_on_c, 8, 69, 1
1, 63744, Note_on_c, 8, 78, 1
1, 63744, Note_on_c, 3, 78, 118
1, 63744, Lyric_t, "cow "
1, 63744, Note_on_c, 0, 38, 102
1, 63744, Note_on_c, 3, 69, 120
1, 63745, Note_on_c, 2, 78, 114
1, 63749, Note_on_c, 7, 62, 97
1, 63750, Note_on_c, 9, 51, 0
1, 63750, Note_on_c, 9, 42, 0
1, 63750, Note_on_c, 9, 35, 0
1, 63756, Note_on_c, 7, 66, 105
1, 63800, Note_on_c, 5, 67, 0
1, 63830, Note_on_c, 7, 66, 0
1, 63834, Note_on_c, 7, 62, 0
1, 63834, Note_on_c, 5, 55, 0
1, 63838, Note_on_c, 7, 57, 0
1, 63840, Note_on_c, 7, 66, 84
1, 63840, Note_on_c, 5, 54, 67
1, 63844, Note_on_c, 7, 62, 70
1, 63848, Note_on_c, 7, 57, 65
1, 63868, Note_on_c, 0, 38, 0
1, 63918, Note_on_c, 3, 78, 0
1, 63918, Note_on_c, 3, 69, 0
1, 63918, Note_on_c, 3, 66, 0
1, 63926, Note_on_c, 7, 57, 0
1, 63928, Note_on_c, 5, 45, 0
1, 63928, Note_on_c, 5, 54, 0
1, 63932, Note_on_c, 7, 62, 0
1, 63934, Note_on_c, 8, 66, 0
1, 63934, Note_on_c, 8, 78, 0
1, 63934, Note_on_c, 2, 78, 0
1, 63934, Note_on_c, 8, 69, 0
1, 63936, Note_on_c, 9, 35, 105
1, 63936, Note_on_c, 5, 54, 85
1, 63936, Note_on_c, 3, 64, 120
1, 63936, Note_on_c, 0, 38, 96
1, 63936, Note_on_c, 9, 51, 59
1, 63936, Note_on_c, 8, 64, 1
1, 63936, Note_on_c, 8, 69, 1
1, 63936, Note_on_c, 9, 42, 69
1, 63936, Note_on_c, 5, 45, 76
1, 63936, Note_on_c, 7, 57, 73
1, 63936, Note_on_c, 3, 76, 119
1, 63936, Note_on_c, 8, 76, 1
1, 63936, Note_on_c, 3, 69, 119
1, 63938, Note_on_c, 7, 66, 0
1, 63939, Lyric_t, "boys  "
1, 63941, Note_on_c, 2, 81, 113
1, 63941, Note_on_c, 7, 62, 77
1, 63942, Note_on_c, 9, 51, 0
1, 63942, Note_on_c, 9, 42, 0
1, 63942, Note_on_c, 9, 35, 0
1, 63948, Note_on_c, 7, 66, 85
1, 64022, Note_on_c, 7, 66, 0
1, 64026, Note_on_c, 7, 62, 0
1, 64030, Note_on_c, 7, 57, 0
1, 64032, Note_on_c, 7, 66, 90
1, 64036, Note_on_c, 7, 62, 83
1, 64040, Note_on_c, 7, 57, 69
1, 64110, Note_on_c, 2, 81, 0
1, 64110, Note_on_c, 3, 69, 0
1, 64110, Note_on_c, 3, 64, 0
1, 64110, Note_on_c, 3, 76, 0
1, 64120, Note_on_c, 7, 57, 0
1, 64120, Note_on_c, 7, 62, 0
1, 64120, Note_on_c, 5, 54, 0
1, 64126, Note_on_c, 8, 76, 0
1, 64126, Note_on_c, 8, 64, 0
1, 64126, Note_on_c, 8, 69, 0
1, 64126, Note_on_c, 7, 66, 0
1, 64128, Note_on_c, 7, 57, 90
1, 64128, Note_on_c, 3, 74, 112
1, 64128, Note_on_c, 8, 74, 1
1, 64128, Note_on_c, 5, 66, 102
1, 64128, Note_on_c, 3, 66, 108
1, 64128, Note_on_c, 9, 40, 91
1, 64128, Note_on_c, 5, 54, 104
1, 64128, Note_on_c, 9, 51, 61
1, 64128, Note_on_c, 8, 62, 1
1, 64128, Note_on_c, 8, 66, 1
1, 64128, Note_on_c, 5, 50, 100
1, 64128, Note_on_c, 3, 62, 110
1, 64128, Note_on_c, 9, 42, 84
1, 64131, Lyric_t, "and  "
1, 64133, Note_on_c, 7, 62, 92
1, 64133, Note_on_c, 2, 78, 112
1, 64134, Note_on_c, 9, 42, 0
1, 64134, Note_on_c, 9, 51, 0
1, 64134, Note_on_c, 9, 40, 0
1, 64140, Note_on_c, 7, 66, 106
1, 64288, Note_on_c, 3, 62, 0
1, 64288, Note_on_c, 3, 74, 0
1, 64288, Note_on_c, 2, 78, 0
1, 64288, Note_on_c, 3, 66, 0
1, 64310, Note_on_c, 7, 57, 0
1, 64316, Note_on_c, 7, 62, 0
1, 64318, Note_on_c, 8, 74, 0
1, 64318, Note_on_c, 8, 66, 0
1, 64318, Note_on_c, 8, 62, 0
1, 64320, Note_on_c, 9, 42, 73
1, 64320, Note_on_c, 3, 78, 111
1, 64320, Note_on_c, 9, 51, 61
1, 64320, Note_on_c, 8, 69, 1
1, 64320, Note_on_c, 7, 57, 78
1, 64320, Note_on_c, 3, 66, 111
1, 64320, Note_on_c, 8, 78, 1
1, 64320, Note_on_c, 8, 66, 1
1, 64320, Note_on_c, 3, 69, 115
1, 64322, Note_on_c, 7, 66, 0
1, 64323, Lyric_t, "kiss "
1, 64325, Note_on_c, 7, 62, 88
1, 64325, Note_on_c, 2, 83, 113
1, 64326, Note_on_c, 9, 42, 0
1, 64326, Note_on_c, 9, 51, 0
1, 64332, Note_on_c, 7, 66, 97
1, 64370, Note_on_c, 0, 38, 0
1, 64410, Note_on_c, 7, 62, 0
1, 64410, Note_on_c, 5, 45, 0
1, 64414, Note_on_c, 7, 57, 0
1, 64416, Note_on_c, 0, 38, 95
1, 64420, Note_on_c, 7, 62, 76
1, 64424, Note_on_c, 7, 57, 65
1, 64436, Note_on_c, 3, 69, 0
1, 64436, Note_on_c, 3, 78, 0
1, 64436, Note_on_c, 3, 66, 0
1, 64462, Note_on_c, 0, 38, 0
1, 64490, Note_on_c, 2, 83, 0
1, 64492, Note_on_c, 1, 62, 0
1, 64492, Note_on_c, 1, 66, 0
1, 64492, Note_on_c, 1, 50, 0
1, 64492, Note_on_c, 1, 57, 0
1, 64500, Note_on_c, 7, 57, 0
1, 64500, Note_on_c, 7, 62, 0
1, 64500, Note_on_c, 1, 57, 75
1, 64500, Note_on_c, 1, 52, 75
1, 64500, Note_on_c, 1, 61, 80
1, 64500, Note_on_c, 1, 64, 76
1, 64502, Note_on_c, 7, 66, 0
1, 64510, Note_on_c, 8, 78, 0
1, 64510, Note_on_c, 8, 69, 0
1, 64510, Note_on_c, 8, 66, 0
1, 64512, Note_on_c, 0, 33, 111
1, 64512, Note_on_c, 5, 45, 95
1, 64512, Note_on_c, 3, 64, 115
1, 64512, Note_on_c, 7, 57, 84
1, 64512, Note_on_c, 9, 42, 87
1, 64512, Note_on_c, 9, 35, 119
1, 64512, Note_on_c, 3, 76, 120
1, 64512, Note_on_c, 8, 64, 1
1, 64512, Note_on_c, 8, 76, 1
1, 64512, Note_on_c, 3, 69, 116
1, 64512, Note_on_c, 9, 51, 61
1, 64512, Note_on_c, 8, 69, 1
1, 64517, Note_on_c, 7, 61, 92
1, 64518, Note_on_c, 9, 51, 0
1, 64518, Note_on_c, 9, 35, 0
1, 64518, Note_on_c, 9, 42, 0
1, 64518, Lyric_t, "\015 "
1, 64518, Lyric_t, "es  "
1, 64520, Note_on_c, 2, 81, 113
1, 64522, Note_on_c, 5, 50, 0
1, 64522, Note_on_c, 5, 54, 0
1, 64522, Note_on_c, 5, 66, 0
1, 64524, Note_on_c, 7, 64, 102
1, 64694, Note_on_c, 7, 57, 0
1, 64696, Note_on_c, 5, 45, 0
1, 64700, Note_on_c, 7, 61, 0
1, 64704, Note_on_c, 9, 42, 68
1, 64704, Note_on_c, 7, 57, 79
1, 64704, Note_on_c, 5, 45, 96
1, 64704, Note_on_c, 9, 51, 56
1, 64706, Note_on_c, 7, 64, 0
1, 64709, Note_on_c, 7, 61, 88
1, 64710, Note_on_c, 9, 51, 0
1, 64710, Note_on_c, 9, 42, 0
1, 64716, Note_on_c, 7, 64, 91
1, 64790, Note_on_c, 3, 64, 0
1, 64790, Note_on_c, 8, 64, 0
1, 64800, Note_on_c, 3, 59, 101
1, 64800, Note_on_c, 8, 59, 1
1, 64886, Note_on_c, 8, 59, 0
1, 64886, Note_on_c, 3, 59, 0
1, 64886, Note_on_c, 7, 57, 0
1, 64892, Note_on_c, 7, 61, 0
1, 64896, Note_on_c, 5, 57, 98
1, 64896, Note_on_c, 3, 57, 119
1, 64896, Note_on_c, 9, 40, 97
1, 64896, Note_on_c, 8, 57, 1
1, 64896, Note_on_c, 5, 52, 97
1, 64896, Note_on_c, 9, 51, 61
1, 64896, Note_on_c, 9, 42, 86
1, 64896, Note_on_c, 5, 64, 98
1, 64896, Note_on_c, 7, 57, 89
1, 64898, Note_on_c, 7, 64, 0
1, 64901, Note_on_c, 7, 61, 97
1, 64902, Note_on_c, 9, 42, 0
1, 64902, Note_on_c, 9, 51, 0
1, 64902, Note_on_c, 9, 40, 0
1, 64908, Note_on_c, 7, 64, 104
1, 65078, Note_on_c, 7, 57, 0
1, 65084, Note_on_c, 7, 61, 0
1, 65088, Note_on_c, 7, 57, 72
1, 65088, Note_on_c, 9, 42, 64
1, 65088, Note_on_c, 9, 51, 60
1, 65090, Note_on_c, 7, 64, 0
1, 65093, Note_on_c, 7, 61, 81
1, 65094, Note_on_c, 9, 51, 0
1, 65094, Note_on_c, 9, 42, 0
1, 65100, Note_on_c, 7, 64, 97
1, 65156, Note_on_c, 0, 33, 0
1, 65178, Note_on_c, 7, 61, 0
1, 65178, Note_on_c, 5, 45, 0
1, 65182, Note_on_c, 7, 57, 0
1, 65184, Note_on_c, 0, 40, 103
1, 65184, Note_on_c, 9, 35, 92
1, 65188, Note_on_c, 7, 61, 80
1, 65190, Note_on_c, 9, 35, 0
1, 65192, Note_on_c, 7, 57, 72
1, 65244, Note_on_c, 0, 40, 0
1, 65262, Note_on_c, 5, 52, 0
1, 65266, Note_on_c, 7, 64, 0
1, 65268, Note_on_c, 7, 57, 0
1, 65276, Note_on_c, 7, 61, 0
1, 65280, Note_on_c, 9, 42, 89
1, 65280, Note_on_c, 7, 57, 82
1, 65280, Note_on_c, 9, 51, 57
1, 65280, Note_on_c, 9, 35, 114
1, 65280, Note_on_c, 0, 33, 108
1, 65280, Note_on_c, 5, 45, 92
1, 65285, Note_on_c, 7, 61, 96
1, 65286, Note_on_c, 9, 35, 0
1, 65286, Note_on_c, 9, 51, 0
1, 65286, Note_on_c, 9, 42, 0
1, 65292, Note_on_c, 7, 64, 104
1, 65336, Note_on_c, 5, 64, 0
1, 65336, Note_on_c, 5, 57, 0
1, 65366, Note_on_c, 7, 64, 0
1, 65370, Note_on_c, 7, 61, 0
1, 65374, Note_on_c, 7, 57, 0
1, 65376, Note_on_c, 7, 64, 82
1, 65380, Note_on_c, 7, 61, 77
1, 65384, Note_on_c, 7, 57, 60
1, 65400, Note_on_c, 0, 33, 0
1, 65462, Note_on_c, 7, 57, 0
1, 65464, Note_on_c, 5, 45, 0
1, 65468, Note_on_c, 7, 61, 0
1, 65472, Note_on_c, 5, 45, 86
1, 65472, Note_on_c, 9, 51, 60
1, 65472, Note_on_c, 0, 33, 105
1, 65472, Note_on_c, 7, 57, 65
1, 65472, Note_on_c, 9, 42, 72
1, 65472, Note_on_c, 9, 35, 102
1, 65474, Note_on_c, 7, 64, 0
1, 65477, Note_on_c, 7, 61, 78
1, 65478, Note_on_c, 9, 35, 0
1, 65478, Note_on_c, 9, 42, 0
1, 65478, Note_on_c, 9, 51, 0
1, 65484, Note_on_c, 7, 64, 92
1, 65558, Note_on_c, 7, 64, 0
1, 65562, Note_on_c, 7, 61, 0
1, 65566, Note_on_c, 7, 57, 0
1, 65568, Note_on_c, 7, 64, 87
1, 65572, Note_on_c, 7, 61, 86
1, 65576, Note_on_c, 7, 57, 76
1, 65640, Note_on_c, 2, 81, 0
1, 65654, Note_on_c, 3, 76, 0
1, 65654, Note_on_c, 3, 57, 0
1, 65654, Note_on_c, 3, 69, 0
1, 65654, Note_on_c, 8, 76, 0
1, 65654, Note_on_c, 8, 69, 0
1, 65656, Note_on_c, 7, 57, 0
1, 65656, Note_on_c, 7, 61, 0
1, 65662, Note_on_c, 7, 64, 0
1, 65662, Note_on_c, 8, 57, 0
1, 65664, Note_on_c, 5, 52, 101
1, 65664, Note_on_c, 5, 64, 100
1, 65664, Note_on_c, 9, 42, 87
1, 65664, Note_on_c, 9, 40, 92
1, 65664, Note_on_c, 5, 57, 104
1, 65664, Note_on_c, 9, 51, 62
1, 65664, Note_on_c, 7, 57, 91
1, 65669, Note_on_c, 7, 61, 101
1, 65670, Note_on_c, 9, 51, 0
1, 65670, Note_on_c, 9, 42, 0
1, 65670, Note_on_c, 9, 40, 0
1, 65676, Note_on_c, 7, 64, 108
1, 65732, Note_on_c, 0, 33, 0
1, 65760, Note_on_c, 0, 35, 102
1, 65846, Note_on_c, 7, 57, 0
1, 65848, Note_on_c, 5, 52, 0
1, 65848, Note_on_c, 5, 45, 0
1, 65852, Note_on_c, 7, 61, 0
1, 65856, Note_on_c, 9, 46, 66
1, 65856, Note_on_c, 5, 45, 70
1, 65856, Note_on_c, 9, 51, 54
1, 65856, Note_on_c, 7, 57, 72
1, 65856, Note_on_c, 5, 52, 73
1, 65858, Note_on_c, 7, 64, 0
1, 65861, Note_on_c, 7, 61, 84
1, 65862, Note_on_c, 9, 51, 0
1, 65862, Note_on_c, 9, 46, 0
1, 65868, Note_on_c, 7, 64, 89
1, 65922, Note_on_c, 5, 45, 0
1, 65922, Note_on_c, 5, 52, 0
1, 65946, Note_on_c, 7, 61, 0
1, 65950, Note_on_c, 7, 57, 0
1, 65952, Note_on_c, 5, 45, 75
1, 65952, Note_on_c, 5, 52, 71
1, 65956, Note_on_c, 7, 61, 82
1, 65960, Note_on_c, 7, 57, 72
1, 66018, Note_on_c, 5, 52, 0
1, 66018, Note_on_c, 5, 45, 0
1, 66026, Note_on_c, 0, 35, 0
1, 66028, Note_on_c, 1, 64, 0
1, 66028, Note_on_c, 1, 57, 0
1, 66028, Note_on_c, 1, 52, 0
1, 66028, Note_on_c, 1, 61, 0
1, 66036, Note_on_c, 7, 61, 0
1, 66036, Note_on_c, 7, 57, 0
1, 66036, Note_on_c, 1, 59, 79
1, 66036, Note_on_c, 1, 55, 76
1, 66036, Note_on_c, 1, 62, 82
1, 66036, Note_on_c, 1, 67, 81
1, 66038, Note_on_c, 7, 64, 0
1, 66040, Note_on_c, 5, 64, 0
1, 66040, Note_on_c, 5, 57, 0
1, 66048, Note_on_c, 9, 51, 60
1, 66048, Note_on_c, 5, 43, 90
1, 66048, Note_on_c, 9, 35, 121
1, 66048, Note_on_c, 9, 49, 72
1, 66048, Lyric_t, "got "
1, 66048, Note_on_c, 9, 42, 85
1, 66048, Note_on_c, 0, 31, 108
1, 66048, Note_on_c, 8, 74, 1
1, 66048, Note_on_c, 2, 79, 113
1, 66048, Note_on_c, 7, 59, 83
1, 66048, Note_on_c, 8, 67, 1
1, 66048, Note_on_c, 3, 74, 112
1, 66048, Note_on_c, 8, 62, 1
1, 66048, Note_on_c, 3, 67, 117
1, 66048, Note_on_c, 3, 62, 115
1, 66053, Note_on_c, 7, 62, 92
1, 66054, Note_on_c, 9, 42, 0
1, 66054, Note_on_c, 9, 49, 0
1, 66054, Note_on_c, 9, 35, 0
1, 66054, Note_on_c, 9, 51, 0
1, 66060, Note_on_c, 7, 67, 105
1, 66120, Note_on_c, 2, 79, 0
1, 66136, Note_on_c, 3, 67, 0
1, 66136, Note_on_c, 3, 62, 0
1, 66136, Note_on_c, 3, 74, 0
1, 66140, Lyric_t, "ta  "
1, 66141, Note_on_c, 2, 79, 113
1, 66142, Note_on_c, 8, 62, 0
1, 66142, Note_on_c, 8, 74, 0
1, 66142, Note_on_c, 8, 67, 0
1, 66144, Note_on_c, 8, 61, 1
1, 66144, Note_on_c, 3, 67, 109
1, 66144, Note_on_c, 8, 67, 1
1, 66144, Note_on_c, 8, 73, 1
1, 66144, Note_on_c, 3, 61, 108
1, 66144, Note_on_c, 3, 73, 104
1, 66214, Note_on_c, 2, 79, 0
1, 66222, Note_on_c, 3, 73, 0
1, 66222, Note_on_c, 3, 61, 0
1, 66222, Note_on_c, 3, 67, 0
1, 66230, Note_on_c, 7, 59, 0
1, 66232, Note_on_c, 5, 43, 0
1, 66233, Lyric_t, "find  "
1, 66236, Note_on_c, 7, 62, 0
1, 66236, Note_on_c, 2, 79, 113
1, 66238, Note_on_c, 8, 61, 0
1, 66238, Note_on_c, 8, 67, 0
1, 66238, Note_on_c, 8, 73, 0
1, 66240, Note_on_c, 3, 62, 105
1, 66240, Note_on_c, 9, 42, 65
1, 66240, Note_on_c, 3, 67, 110
1, 66240, Note_on_c, 3, 74, 103
1, 66240, Note_on_c, 9, 51, 57
1, 66240, Note_on_c, 8, 67, 1
1, 66240, Note_on_c, 8, 74, 1
1, 66240, Note_on_c, 7, 59, 77
1, 66240, Note_on_c, 5, 43, 89
1, 66240, Note_on_c, 8, 62, 1
1, 66242, Note_on_c, 7, 67, 0
1, 66245, Note_on_c, 7, 62, 86
1, 66246, Note_on_c, 9, 42, 0
1, 66246, Note_on_c, 9, 51, 0
1, 66252, Note_on_c, 7, 67, 93
1, 66314, Note_on_c, 2, 79, 0
1, 66328, Note_on_c, 3, 62, 0
1, 66328, Note_on_c, 3, 74, 0
1, 66328, Note_on_c, 3, 67, 0
1, 66329, Lyric_t, "my "
1, 66329, Note_on_c, 2, 79, 111
1, 66334, Note_on_c, 8, 62, 0
1, 66334, Note_on_c, 8, 67, 0
1, 66334, Note_on_c, 8, 74, 0
1, 66336, Note_on_c, 8, 73, 1
1, 66336, Note_on_c, 8, 61, 1
1, 66336, Note_on_c, 8, 67, 1
1, 66336, Note_on_c, 3, 73, 106
1, 66336, Note_on_c, 3, 61, 113
1, 66336, Note_on_c, 3, 67, 105
1, 66410, Note_on_c, 2, 79, 0
1, 66414, Note_on_c, 3, 67, 0
1, 66414, Note_on_c, 3, 61, 0
1, 66414, Note_on_c, 3, 73, 0
1, 66422, Note_on_c, 7, 59, 0
1, 66426, Note_on_c, 0, 31, 0
1, 66428, Note_on_c, 7, 62, 0
1, 66430, Note_on_c, 8, 73, 0
1, 66430, Note_on_c, 8, 61, 0
1, 66430, Note_on_c, 8, 67, 0
1, 66432, Note_on_c, 5, 50, 98
1, 66432, Note_on_c, 5, 67, 98
1, 66432, Note_on_c, 3, 74, 114
1, 66432, Lyric_t, "\015 "
1, 66432, Note_on_c, 7, 59, 88
1, 66432, Note_on_c, 8, 67, 1
1, 66432, Note_on_c, 5, 55, 102
1, 66432, Note_on_c, 3, 62, 115
1, 66432, Note_on_c, 3, 67, 114
1, 66432, Note_on_c, 9, 51, 54
1, 66432, Lyric_t, "self  "
1, 66432, Note_on_c, 9, 40, 98
1, 66432, Note_on_c, 9, 42, 92
1, 66432, Note_on_c, 8, 74, 1
1, 66432, Note_on_c, 8, 62, 1
1, 66433, Note_on_c, 2, 79, 115
1, 66434, Note_on_c, 7, 67, 0
1, 66437, Note_on_c, 7, 62, 98
1, 66438, Note_on_c, 9, 42, 0
1, 66438, Note_on_c, 9, 40, 0
1, 66438, Note_on_c, 9, 51, 0
1, 66444, Note_on_c, 7, 67, 105
1, 66528, Note_on_c, 0, 31, 86
1, 66562, Note_on_c, 0, 31, 0
1, 66594, Note_on_c, 2, 79, 0
1, 66606, Note_on_c, 3, 74, 0
1, 66606, Note_on_c, 3, 67, 0
1, 66606, Note_on_c, 3, 62, 0
1, 66614, Note_on_c, 7, 59, 0
1, 66616, Note_on_c, 5, 55, 0
1, 66616, Note_on_c, 5, 50, 0
1, 66620, Note_on_c, 7, 62, 0
1, 66624, Note_on_c, 5, 55, 69
1, 66624, Note_on_c, 0, 35, 87
1, 66624, Note_on_c, 9, 42, 70
1, 66624, Note_on_c, 5, 50, 68
1, 66624, Note_on_c, 7, 59, 70
1, 66624, Note_on_c, 3, 74, 115
1, 66624, Note_on_c, 3, 67, 112
1, 66624, Note_on_c, 3, 62, 110
1, 66624, Note_on_c, 9, 51, 58
1, 66626, Note_on_c, 7, 67, 0
1, 66627, Lyric_t, "ev "
1, 66629, Note_on_c, 2, 79, 109
1, 66629, Note_on_c, 7, 62, 84
1, 66630, Note_on_c, 9, 51, 0
1, 66630, Note_on_c, 9, 42, 0
1, 66636, Note_on_c, 7, 67, 91
1, 66690, Note_on_c, 0, 35, 0
1, 66706, Note_on_c, 5, 55, 0
1, 66706, Note_on_c, 5, 50, 0
1, 66712, Note_on_c, 3, 67, 0
1, 66712, Note_on_c, 3, 74, 0
1, 66712, Note_on_c, 3, 62, 0
1, 66714, Note_on_c, 7, 62, 0
1, 66714, Note_on_c, 5, 43, 0
1, 66718, Note_on_c, 8, 67, 0
1, 66718, Note_on_c, 7, 59, 0
1, 66718, Note_on_c, 8, 62, 0
1, 66718, Note_on_c, 8, 74, 0
1, 66718, Note_on_c, 2, 79, 0
1, 66720, Note_on_c, 3, 61, 103
1, 66720, Note_on_c, 5, 50, 64
1, 66720, Note_on_c, 9, 35, 84
1, 66720, Note_on_c, 8, 73, 1
1, 66720, Note_on_c, 3, 73, 105
1, 66720, Note_on_c, 0, 37, 80
1, 66720, Note_on_c, 3, 67, 102
1, 66720, Note_on_c, 8, 67, 1
1, 66720, Note_on_c, 5, 55, 68
1, 66720, Note_on_c, 8, 61, 1
1, 66723, Lyric_t, "ery  "
1, 66724, Note_on_c, 7, 62, 75
1, 66725, Note_on_c, 2, 79, 111
1, 66726, Note_on_c, 9, 35, 0
1, 66728, Note_on_c, 7, 59, 73
1, 66786, Note_on_c, 0, 37, 0
1, 66796, Note_on_c, 1, 59, 0
1, 66796, Note_on_c, 1, 67, 0
1, 66796, Note_on_c, 1, 55, 0
1, 66796, Note_on_c, 1, 62, 0
1, 66802, Note_on_c, 7, 67, 0
1, 66802, Note_on_c, 5, 50, 0
1, 66802, Note_on_c, 5, 55, 0
1, 66804, Note_on_c, 7, 59, 0
1, 66804, Note_on_c, 1, 50, 83
1, 66804, Note_on_c, 1, 62, 78
1, 66804, Note_on_c, 1, 66, 82
1, 66804, Note_on_c, 1, 57, 77
1, 66808, Note_on_c, 3, 73, 0
1, 66808, Note_on_c, 3, 67, 0
1, 66808, Note_on_c, 3, 61, 0
1, 66812, Note_on_c, 7, 62, 0
1, 66814, Note_on_c, 2, 79, 0
1, 66814, Note_on_c, 8, 67, 0
1, 66814, Note_on_c, 8, 61, 0
1, 66814, Note_on_c, 8, 73, 0
1, 66816, Note_on_c, 0, 38, 102
1, 66816, Note_on_c, 3, 74, 120
1, 66816, Note_on_c, 8, 66, 1
1, 66816, Note_on_c, 7, 57, 84
1, 66816, Note_on_c, 9, 42, 91
1, 66816, Note_on_c, 9, 51, 56
1, 66816, Note_on_c, 8, 74, 1
1, 66816, Note_on_c, 3, 62, 115
1, 66816, Note_on_c, 5, 55, 87
1, 66816, Note_on_c, 9, 35, 121
1, 66816, Note_on_c, 8, 62, 1
1, 66816, Note_on_c, 5, 45, 93
1, 66816, Note_on_c, 3, 66, 117
1, 66819, Lyric_t, "time  "
1, 66821, Note_on_c, 7, 62, 92
1, 66821, Note_on_c, 2, 81, 112
1, 66822, Note_on_c, 9, 35, 0
1, 66822, Note_on_c, 9, 42, 0
1, 66822, Note_on_c, 9, 51, 0
1, 66828, Note_on_c, 7, 66, 102
1, 66872, Note_on_c, 5, 67, 0
1, 66902, Note_on_c, 7, 66, 0
1, 66906, Note_on_c, 7, 62, 0
1, 66906, Note_on_c, 5, 55, 0
1, 66910, Note_on_c, 7, 57, 0
1, 66912, Note_on_c, 7, 66, 84
1, 66912, Note_on_c, 5, 54, 71
1, 66916, Note_on_c, 7, 62, 71
1, 66920, Note_on_c, 7, 57, 62
1, 66940, Note_on_c, 0, 38, 0
1, 66990, Note_on_c, 3, 66, 0
1, 66990, Note_on_c, 3, 62, 0
1, 66990, Note_on_c, 3, 74, 0
1, 66994, Note_on_c, 2, 81, 0
1, 66998, Note_on_c, 7, 57, 0
1, 67000, Note_on_c, 5, 45, 0
1, 67000, Note_on_c, 5, 54, 0
1, 67004, Note_on_c, 7, 62, 0
1, 67006, Note_on_c, 8, 66, 0
1, 67006, Note_on_c, 8, 74, 0
1, 67006, Note_on_c, 8, 62, 0
1, 67008, Note_on_c, 5, 54, 88
1, 67008, Note_on_c, 0, 38, 100
1, 67008, Note_on_c, 5, 45, 83
1, 67008, Note_on_c, 7, 57, 70
1, 67008, Note_on_c, 9, 51, 58
1, 67008, Note_on_c, 9, 42, 69
1, 67008, Note_on_c, 3, 64, 103
1, 67008, Note_on_c, 3, 73, 103
1, 67008, Note_on_c, 8, 73, 1
1, 67008, Note_on_c, 9, 35, 106
1, 67008, Note_on_c, 8, 61, 1
1, 67008, Note_on_c, 8, 64, 1
1, 67008, Note_on_c, 3, 61, 106
1, 67010, Note_on_c, 7, 66, 0
1, 67013, Note_on_c, 7, 62, 75
1, 67014, Note_on_c, 9, 42, 0
1, 67014, Note_on_c, 9, 51, 0
1, 67014, Note_on_c, 9, 35, 0
1, 67014, Lyric_t, "you  "
1, 67016, Note_on_c, 2, 81, 109
1, 67020, Note_on_c, 7, 66, 86
1, 67084, Note_on_c, 2, 81, 0
1, 67094, Note_on_c, 7, 66, 0
1, 67096, Note_on_c, 3, 61, 0
1, 67096, Note_on_c, 3, 64, 0
1, 67096, Note_on_c, 3, 73, 0
1, 67098, Note_on_c, 7, 62, 0
1, 67102, Note_on_c, 8, 61, 0
1, 67102, Note_on_c, 8, 64, 0
1, 67102, Note_on_c, 7, 57, 0
1, 67102, Note_on_c, 8, 73, 0
1, 67104, Note_on_c, 8, 74, 1
1, 67104, Note_on_c, 8, 62, 1
1, 67104, Note_on_c, 3, 66, 112
1, 67104, Note_on_c, 7, 66, 89
1, 67104, Note_on_c, 3, 62, 108
1, 67104, Note_on_c, 3, 74, 111
1, 67104, Note_on_c, 8, 66, 1
1, 67108, Note_on_c, 7, 62, 84
1, 67112, Note_on_c, 7, 57, 69
1, 67113, Lyric_t, "go  "
1, 67116, Note_on_c, 2, 81, 114
1, 67192, Note_on_c, 7, 57, 0
1, 67192, Note_on_c, 7, 62, 0
1, 67192, Note_on_c, 5, 54, 0
1, 67198, Note_on_c, 7, 66, 0
1, 67200, Note_on_c, 9, 42, 91
1, 67200, Note_on_c, 9, 51, 57
1, 67200, Note_on_c, 7, 57, 84
1, 67200, Note_on_c, 9, 40, 90
1, 67200, Note_on_c, 5, 50, 99
1, 67200, Note_on_c, 5, 66, 98
1, 67200, Note_on_c, 5, 54, 99
1, 67205, Note_on_c, 7, 62, 93
1, 67206, Note_on_c, 9, 40, 0
1, 67206, Note_on_c, 9, 51, 0
1, 67206, Note_on_c, 9, 42, 0
1, 67212, Note_on_c, 7, 66, 101
1, 67278, Note_on_c, 3, 66, 0
1, 67278, Note_on_c, 3, 74, 0
1, 67278, Note_on_c, 3, 62, 0
1, 67294, Note_on_c, 8, 74, 0
1, 67294, Note_on_c, 8, 66, 0
1, 67294, Note_on_c, 8, 62, 0
1, 67296, Note_on_c, 2, 81, 0
1, 67296, Note_on_c, 8, 69, 1
1, 67296, Note_on_c, 3, 69, 111
1, 67296, Note_on_c, 8, 76, 1
1, 67296, Note_on_c, 3, 64, 110
1, 67296, Note_on_c, 8, 64, 1
1, 67296, Note_on_c, 3, 76, 109
1, 67302, Lyric_t, "a "
1, 67304, Note_on_c, 2, 79, 111
1, 67372, Note_on_c, 2, 79, 0
1, 67382, Note_on_c, 7, 57, 0
1, 67384, Note_on_c, 3, 76, 0
1, 67384, Note_on_c, 3, 64, 0
1, 67384, Note_on_c, 3, 69, 0
1, 67388, Note_on_c, 7, 62, 0
1, 67390, Note_on_c, 8, 64, 0
1, 67390, Note_on_c, 8, 76, 0
1, 67390, Note_on_c, 8, 69, 0
1, 67392, Note_on_c, 9, 42, 71
1, 67392, Note_on_c, 3, 64, 108
1, 67392, Note_on_c, 3, 76, 116
1, 67392, Note_on_c, 8, 69, 1
1, 67392, Note_on_c, 3, 69, 109
1, 67392, Note_on_c, 9, 51, 62
1, 67392, Note_on_c, 8, 64, 1
1, 67392, Note_on_c, 7, 57, 71
1, 67392, Note_on_c, 8, 76, 1
1, 67394, Note_on_c, 7, 66, 0
1, 67397, Note_on_c, 7, 62, 88
1, 67398, Note_on_c, 9, 51, 0
1, 67398, Note_on_c, 9, 42, 0
1, 67398, Lyric_t, "\015 "
1, 67398, Lyric_t, "way  "
1, 67400, Note_on_c, 2, 81, 113
1, 67404, Note_on_c, 7, 66, 90
1, 67442, Note_on_c, 0, 38, 0
1, 67482, Note_on_c, 7, 62, 0
1, 67482, Note_on_c, 5, 45, 0
1, 67486, Note_on_c, 7, 57, 0
1, 67488, Note_on_c, 0, 38, 92
1, 67492, Note_on_c, 7, 62, 77
1, 67496, Note_on_c, 7, 57, 73
1, 67534, Note_on_c, 0, 38, 0
1, 67564, Note_on_c, 1, 62, 0
1, 67564, Note_on_c, 1, 57, 0
1, 67564, Note_on_c, 1, 66, 0
1, 67564, Note_on_c, 1, 50, 0
1, 67572, Note_on_c, 7, 62, 0
1, 67572, Note_on_c, 7, 57, 0
1, 67572, Note_on_c, 1, 61, 83
1, 67572, Note_on_c, 1, 57, 80
1, 67572, Note_on_c, 1, 64, 75
1, 67572, Note_on_c, 1, 52, 77
1, 67574, Note_on_c, 7, 66, 0
1, 67584, Note_on_c, 7, 57, 83
1, 67584, Note_on_c, 9, 51, 53
1, 67584, Note_on_c, 0, 33, 110
1, 67584, Note_on_c, 9, 35, 120
1, 67584, Note_on_c, 9, 42, 88
1, 67584, Note_on_c, 5, 45, 96
1, 67589, Note_on_c, 7, 61, 96
1, 67590, Note_on_c, 9, 42, 0
1, 67590, Note_on_c, 9, 35, 0
1, 67590, Note_on_c, 9, 51, 0
1, 67594, Note_on_c, 5, 66, 0
1, 67594, Note_on_c, 5, 54, 0
1, 67594, Note_on_c, 5, 50, 0
1, 67596, Note_on_c, 7, 64, 98
1, 67748, Note_on_c, 2, 81, 0
1, 67766, Note_on_c, 7, 57, 0
1, 67768, Note_on_c, 5, 45, 0
1, 67772, Note_on_c, 7, 61, 0
1, 67776, Note_on_c, 5, 45, 98
1, 67776, Note_on_c, 9, 42, 68
1, 67776, Note_on_c, 2, 81, 112
1, 67776, Note_on_c, 7, 57, 75
1, 67776, Lyric_t, "ev "
1, 67776, Note_on_c, 9, 51, 59
1, 67778, Note_on_c, 7, 64, 0
1, 67781, Note_on_c, 7, 61, 82
1, 67782, Note_on_c, 9, 51, 0
1, 67782, Note_on_c, 9, 42, 0
1, 67788, Note_on_c, 7, 64, 94
1, 67858, Note_on_c, 2, 81, 0
1, 67872, Note_on_c, 2, 79, 111
1, 67872, Lyric_t, "ery  "
1, 67954, Note_on_c, 2, 79, 0
1, 67958, Note_on_c, 7, 57, 0
1, 67964, Note_on_c, 7, 61, 0
1, 67968, Note_on_c, 2, 81, 110
1, 67968, Note_on_c, 9, 42, 88
1, 67968, Lyric_t, "time  "
1, 67968, Note_on_c, 5, 52, 97
1, 67968, Note_on_c, 9, 40, 91
1, 67968, Note_on_c, 5, 64, 101
1, 67968, Note_on_c, 9, 51, 53
1, 67968, Note_on_c, 5, 57, 96
1, 67968, Note_on_c, 7, 57, 92
1, 67970, Note_on_c, 7, 64, 0
1, 67973, Note_on_c, 7, 61, 94
1, 67974, Note_on_c, 9, 51, 0
1, 67974, Note_on_c, 9, 40, 0
1, 67974, Note_on_c, 9, 42, 0
1, 67980, Note_on_c, 7, 64, 102
1, 68150, Note_on_c, 7, 57, 0
1, 68156, Note_on_c, 7, 61, 0
1, 68160, Note_on_c, 9, 42, 69
1, 68160, Note_on_c, 7, 57, 77
1, 68160, Note_on_c, 9, 51, 61
1, 68162, Note_on_c, 7, 64, 0
1, 68165, Note_on_c, 7, 61, 81
1, 68166, Note_on_c, 9, 51, 0
1, 68166, Note_on_c, 9, 42, 0
1, 68172, Note_on_c, 7, 64, 95
1, 68228, Note_on_c, 0, 33, 0
1, 68242, Note_on_c, 2, 81, 0
1, 68250, Note_on_c, 7, 61, 0
1, 68250, Note_on_c, 5, 45, 0
1, 68254, Note_on_c, 7, 57, 0
1, 68256, Note_on_c, 0, 33, 97
1, 68256, Note_on_c, 9, 35, 84
1, 68260, Note_on_c, 7, 61, 80
1, 68262, Note_on_c, 9, 35, 0
1, 68264, Note_on_c, 7, 57, 66
1, 68316, Note_on_c, 0, 33, 0
1, 68334, Note_on_c, 5, 52, 0
1, 68338, Note_on_c, 7, 64, 0
1, 68340, Note_on_c, 7, 57, 0
1, 68348, Note_on_c, 7, 61, 0
1, 68352, Note_on_c, 9, 42, 89
1, 68352, Note_on_c, 5, 45, 93
1, 68352, Note_on_c, 0, 33, 104
1, 68352, Note_on_c, 2, 81, 112
1, 68352, Lyric_t, "ev "
1, 68352, Note_on_c, 9, 51, 55
1, 68352, Note_on_c, 7, 57, 82
1, 68352, Note_on_c, 9, 35, 116
1, 68357, Note_on_c, 7, 61, 90
1, 68358, Note_on_c, 9, 35, 0
1, 68358, Note_on_c, 9, 51, 0
1, 68358, Note_on_c, 9, 42, 0
1, 68364, Note_on_c, 7, 69, 89
1, 68364, Note_on_c, 7, 64, 106
1, 68408, Note_on_c, 5, 57, 0
1, 68408, Note_on_c, 5, 64, 0
1, 68434, Note_on_c, 2, 81, 0
1, 68438, Note_on_c, 7, 64, 0
1, 68442, Note_on_c, 7, 61, 0
1, 68446, Note_on_c, 7, 57, 0
1, 68448, Lyric_t, "ery  "
1, 68448, Note_on_c, 2, 79, 110
1, 68448, Note_on_c, 7, 64, 86
1, 68452, Note_on_c, 7, 61, 79
1, 68456, Note_on_c, 7, 57, 62
1, 68472, Note_on_c, 0, 33, 0
1, 68530, Note_on_c, 2, 79, 0
1, 68534, Note_on_c, 7, 57, 0
1, 68536, Note_on_c, 5, 45, 0
1, 68540, Note_on_c, 7, 61, 0
1, 68544, Note_on_c, 9, 35, 102
1, 68544, Note_on_c, 0, 33, 104
1, 68544, Note_on_c, 7, 57, 72
1, 68544, Lyric_t, "time  "
1, 68544, Note_on_c, 5, 45, 91
1, 68544, Note_on_c, 9, 51, 56
1, 68544, Note_on_c, 2, 81, 112
1, 68544, Note_on_c, 9, 46, 66
1, 68546, Note_on_c, 7, 64, 0
1, 68549, Note_on_c, 7, 61, 82
1, 68550, Note_on_c, 9, 46, 0
1, 68550, Note_on_c, 9, 51, 0
1, 68550, Note_on_c, 9, 35, 0
1, 68556, Note_on_c, 7, 64, 84
1, 68630, Note_on_c, 7, 64, 0
1, 68632, Note_on_c, 7, 69, 0
1, 68634, Note_on_c, 7, 61, 0
1, 68638, Note_on_c, 7, 57, 0
1, 68640, Note_on_c, 7, 64, 105
1, 68640, Note_on_c, 7, 69, 89
1, 68644, Note_on_c, 7, 61, 98
1, 68648, Note_on_c, 7, 57, 88
1, 68736, Note_on_c, 9, 57, 69
1, 68736, Note_on_c, 9, 51, 59
1, 68736, Note_on_c, 5, 64, 96
1, 68736, Note_on_c, 5, 52, 102
1, 68736, Note_on_c, 5, 57, 99
1, 68736, Note_on_c, 9, 40, 92
1, 68736, Note_on_c, 9, 42, 86
1, 68738, Note_on_c, 2, 81, 0
1, 68742, Note_on_c, 9, 40, 0
1, 68742, Note_on_c, 9, 57, 0
1, 68742, Note_on_c, 9, 51, 0
1, 68742, Note_on_c, 9, 42, 0
1, 68745, Lyric_t, "ba "
1, 68745, Note_on_c, 2, 84, 114
1, 68752, Note_on_c, 3, 76, 0
1, 68752, Note_on_c, 3, 64, 0
1, 68752, Note_on_c, 3, 69, 0
1, 68804, Note_on_c, 0, 33, 0
1, 68822, Note_on_c, 7, 64, 0
1, 68826, Note_on_c, 7, 61, 0
1, 68830, Note_on_c, 7, 57, 0
1, 68832, Note_on_c, 9, 47, 79
1, 68832, Note_on_c, 7, 64, 74
1, 68832, Note_on_c, 0, 33, 104
1, 68836, Note_on_c, 7, 61, 65
1, 68838, Note_on_c, 9, 47, 0
1, 68840, Note_on_c, 7, 57, 61
1, 68918, Note_on_c, 7, 57, 0
1, 68920, Note_on_c, 5, 52, 0
1, 68920, Note_on_c, 5, 45, 0
1, 68924, Note_on_c, 7, 61, 0
1, 68928, Note_on_c, 2, 84, 0
1, 68928, Note_on_c, 9, 46, 62
1, 68928, Note_on_c, 9, 45, 84
1, 68928, Note_on_c, 9, 40, 74
1, 68928, Note_on_c, 5, 45, 74
1, 68928, Note_on_c, 9, 51, 59
1, 68928, Note_on_c, 7, 57, 74
1, 68928, Note_on_c, 5, 52, 71
1, 68930, Note_on_c, 7, 64, 0
1, 68932, Note_on_c, 7, 69, 0
1, 68933, Note_on_c, 7, 61, 80
1, 68934, Note_on_c, 9, 51, 0
1, 68934, Note_on_c, 9, 46, 0
1, 68934, Note_on_c, 9, 40, 0
1, 68934, Note_on_c, 9, 45, 0
1, 68934, Lyric_t, "by  "
1, 68936, Note_on_c, 2, 81, 110
1, 68940, Note_on_c, 7, 64, 97
1, 68940, Note_on_c, 7, 69, 86
1, 68994, Note_on_c, 5, 52, 0
1, 68994, Note_on_c, 5, 45, 0
1, 69022, Note_on_c, 7, 57, 0
1, 69024, Note_on_c, 5, 45, 74
1, 69024, Note_on_c, 9, 45, 67
1, 69024, Note_on_c, 5, 52, 72
1, 69030, Note_on_c, 9, 45, 0
1, 69032, Note_on_c, 7, 57, 54
1, 69090, Note_on_c, 5, 52, 0
1, 69090, Note_on_c, 5, 45, 0
1, 69098, Note_on_c, 0, 33, 0
1, 69100, Note_on_c, 1, 64, 0
1, 69100, Note_on_c, 1, 61, 0
1, 69100, Note_on_c, 1, 52, 0
1, 69100, Note_on_c, 1, 57, 0
1, 69108, Note_on_c, 7, 57, 0
1, 69108, Note_on_c, 1, 67, 83
1, 69108, Note_on_c, 1, 62, 80
1, 69108, Note_on_c, 1, 55, 79
1, 69108, Note_on_c, 1, 59, 83
1, 69110, Note_on_c, 7, 64, 0
1, 69110, Note_on_c, 7, 69, 0
1, 69110, Note_on_c, 7, 61, 0
1, 69112, Note_on_c, 5, 57, 0
1, 69112, Note_on_c, 5, 64, 0
1, 69118, Note_on_c, 8, 64, 0
1, 69118, Note_on_c, 8, 69, 0
1, 69118, Note_on_c, 8, 76, 0
1, 69120, Note_on_c, 9, 49, 75
1, 69120, Note_on_c, 0, 31, 108
1, 69120, Note_on_c, 7, 59, 81
1, 69120, Note_on_c, 9, 42, 85
1, 69120, Note_on_c, 9, 51, 57
1, 69120, Note_on_c, 9, 35, 122
1, 69120, Note_on_c, 5, 43, 90
1, 69125, Note_on_c, 7, 62, 91
1, 69126, Note_on_c, 9, 35, 0
1, 69126, Note_on_c, 9, 51, 0
1, 69126, Note_on_c, 9, 42, 0
1, 69126, Note_on_c, 9, 49, 0
1, 69132, Note_on_c, 7, 67, 104
1, 69216, Note_on_c, 2, 81, 0
1, 69222, Lyric_t, "\015 "
1, 69222, Lyric_t, "yeah.  "
1, 69224, Note_on_c, 2, 79, 108
1, 69302, Note_on_c, 7, 59, 0
1, 69304, Note_on_c, 5, 43, 0
1, 69308, Note_on_c, 7, 62, 0
1, 69312, Note_on_c, 2, 79, 0
1, 69312, Note_on_c, 5, 43, 91
1, 69312, Note_on_c, 7, 59, 81
1, 69312, Note_on_c, 9, 51, 59
1, 69312, Note_on_c, 9, 42, 65
1, 69314, Note_on_c, 7, 67, 0
1, 69317, Note_on_c, 7, 62, 81
1, 69318, Note_on_c, 9, 42, 0
1, 69318, Note_on_c, 9, 51, 0
1, 69320, Note_on_c, 2, 81, 109
1, 69324, Note_on_c, 7, 67, 91
1, 69494, Note_on_c, 7, 59, 0
1, 69500, Note_on_c, 7, 62, 0
1, 69504, Note_on_c, 9, 51, 60
1, 69504, Note_on_c, 9, 40, 94
1, 69504, Note_on_c, 7, 59, 92
1, 69504, Note_on_c, 5, 67, 104
1, 69504, Note_on_c, 5, 55, 102
1, 69504, Note_on_c, 9, 42, 89
1, 69504, Note_on_c, 5, 50, 98
1, 69506, Note_on_c, 7, 67, 0
1, 69509, Note_on_c, 7, 62, 98
1, 69510, Note_on_c, 9, 40, 0
1, 69510, Note_on_c, 9, 51, 0
1, 69510, Note_on_c, 9, 42, 0
1, 69516, Note_on_c, 7, 67, 102
1, 69594, Note_on_c, 0, 31, 0
1, 69666, Note_on_c, 2, 81, 0
1, 69686, Note_on_c, 7, 59, 0
1, 69692, Note_on_c, 7, 62, 0
1, 69696, Note_on_c, 0, 31, 87
1, 69696, Note_on_c, 7, 59, 76
1, 69696, Note_on_c, 9, 51, 61
1, 69696, Note_on_c, 9, 42, 66
1, 69698, Note_on_c, 7, 67, 0
1, 69701, Note_on_c, 7, 62, 81
1, 69702, Note_on_c, 9, 42, 0
1, 69702, Note_on_c, 9, 51, 0
1, 69708, Note_on_c, 7, 67, 94
1, 69730, Note_on_c, 0, 31, 0
1, 69786, Note_on_c, 5, 43, 0
1, 69786, Note_on_c, 7, 62, 0
1, 69790, Note_on_c, 7, 59, 0
1, 69792, Note_on_c, 0, 31, 85
1, 69792, Note_on_c, 9, 35, 88
1, 69796, Note_on_c, 7, 62, 82
1, 69798, Note_on_c, 9, 35, 0
1, 69800, Note_on_c, 7, 59, 71
1, 69826, Note_on_c, 0, 31, 0
1, 69868, Note_on_c, 1, 55, 0
1, 69868, Note_on_c, 1, 62, 0
1, 69868, Note_on_c, 1, 67, 0
1, 69868, Note_on_c, 1, 59, 0
1, 69870, Note_on_c, 5, 50, 0
1, 69874, Note_on_c, 7, 67, 0
1, 69876, Note_on_c, 7, 59, 0
1, 69876, Note_on_c, 1, 66, 83
1, 69876, Note_on_c, 1, 62, 83
1, 69876, Note_on_c, 1, 50, 78
1, 69876, Note_on_c, 1, 57, 75
1, 69884, Note_on_c, 7, 62, 0
1, 69888, Note_on_c, 8, 78, 1
1, 69888, Note_on_c, 3, 66, 122
1, 69888, Note_on_c, 3, 69, 117
1, 69888, Note_on_c, 2, 78, 1
1, 69888, Note_on_c, 3, 78, 120
1, 69888, Note_on_c, 9, 35, 118
1, 69888, Note_on_c, 0, 38, 100
1, 69888, Note_on_c, 8, 74, 1
1, 69888, Note_on_c, 5, 45, 96
1, 69888, Lyric_t, "Cow "
1, 69888, Note_on_c, 7, 57, 82
1, 69888, Note_on_c, 3, 74, 124
1, 69888, Note_on_c, 8, 69, 1
1, 69888, Note_on_c, 9, 51, 59
1, 69888, Note_on_c, 9, 42, 91
1, 69888, Note_on_c, 8, 66, 1
1, 69893, Note_on_c, 7, 62, 95
1, 69894, Note_on_c, 9, 42, 0
1, 69894, Note_on_c, 9, 51, 0
1, 69894, Note_on_c, 9, 35, 0
1, 69900, Note_on_c, 7, 66, 101
1, 69944, Note_on_c, 5, 55, 0
1, 69944, Note_on_c, 5, 67, 0
1, 69974, Note_on_c, 7, 66, 0
1, 69978, Note_on_c, 7, 62, 0
1, 69982, Note_on_c, 7, 57, 0
1, 69984, Note_on_c, 7, 66, 78
1, 69988, Note_on_c, 7, 62, 72
1, 69992, Note_on_c, 0, 38, 0
1, 69992, Note_on_c, 7, 57, 67
1, 70062, Note_on_c, 3, 78, 0
1, 70062, Note_on_c, 3, 66, 0
1, 70062, Note_on_c, 3, 74, 0
1, 70062, Note_on_c, 2, 78, 0
1, 70062, Note_on_c, 3, 69, 0
1, 70070, Note_on_c, 7, 57, 0
1, 70072, Note_on_c, 5, 45, 0
1, 70076, Note_on_c, 7, 62, 0
1, 70078, Note_on_c, 8, 74, 0
1, 70078, Note_on_c, 8, 69, 0
1, 70078, Note_on_c, 8, 66, 0
1, 70078, Note_on_c, 8, 78, 0
1, 70080, Note_on_c, 8, 64, 1
1, 70080, Note_on_c, 2, 76, 1
1, 70080, Note_on_c, 3, 64, 123
1, 70080, Note_on_c, 7, 57, 73
1, 70080, Note_on_c, 9, 42, 68
1, 70080, Note_on_c, 8, 76, 1
1, 70080, Note_on_c, 0, 38, 95
1, 70080, Note_on_c, 3, 76, 124
1, 70080, Note_on_c, 8, 73, 1
1, 70080, Note_on_c, 9, 35, 102
1, 70080, Lyric_t, "boys  "
1, 70080, Note_on_c, 8, 69, 1
1, 70080, Note_on_c, 3, 73, 124
1, 70080, Note_on_c, 3, 69, 116
1, 70080, Note_on_c, 5, 45, 85
1, 70080, Note_on_c, 9, 51, 58
1, 70082, Note_on_c, 7, 66, 0
1, 70085, Note_on_c, 7, 62, 82
1, 70086, Note_on_c, 9, 51, 0
1, 70086, Note_on_c, 9, 42, 0
1, 70086, Note_on_c, 9, 35, 0
1, 70092, Note_on_c, 7, 66, 86
1, 70166, Note_on_c, 7, 66, 0
1, 70170, Note_on_c, 7, 62, 0
1, 70174, Note_on_c, 7, 57, 0
1, 70176, Note_on_c, 7, 66, 90
1, 70180, Note_on_c, 7, 62, 78
1, 70184, Note_on_c, 7, 57, 71
1, 70254, Note_on_c, 3, 73, 0
1, 70254, Note_on_c, 3, 64, 0
1, 70254, Note_on_c, 3, 69, 0
1, 70254, Note_on_c, 2, 76, 0
1, 70254, Note_on_c, 3, 76, 0
1, 70264, Note_on_c, 7, 62, 0
1, 70264, Note_on_c, 7, 57, 0
1, 70270, Note_on_c, 8, 69, 0
1, 70270, Note_on_c, 7, 66, 0
1, 70270, Note_on_c, 8, 76, 0
1, 70270, Note_on_c, 8, 73, 0
1, 70270, Note_on_c, 8, 64, 0
1, 70272, Note_on_c, 3, 74, 108
1, 70272, Note_on_c, 2, 74, 1
1, 70272, Note_on_c, 8, 74, 1
1, 70272, Note_on_c, 8, 62, 1
1, 70272, Note_on_c, 9, 42, 87
1, 70272, Note_on_c, 9, 51, 57
1, 70272, Note_on_c, 5, 50, 96
1, 70272, Note_on_c, 3, 62, 115
1, 70272, Note_on_c, 8, 66, 1
1, 70272, Note_on_c, 3, 69, 110
1, 70272, Lyric_t, "and  "
1, 70272, Note_on_c, 5, 66, 98
1, 70272, Note_on_c, 5, 54, 100
1, 70272, Note_on_c, 8, 69, 1
1, 70272, Note_on_c, 3, 66, 111
1, 70272, Note_on_c, 9, 40, 94
1, 70272, Note_on_c, 7, 57, 89
1, 70277, Note_on_c, 7, 62, 98
1, 70278, Note_on_c, 9, 40, 0
1, 70278, Note_on_c, 9, 51, 0
1, 70278, Note_on_c, 9, 42, 0
1, 70284, Note_on_c, 7, 66, 102
1, 70432, Note_on_c, 3, 74, 0
1, 70432, Note_on_c, 2, 74, 0
1, 70432, Note_on_c, 3, 66, 0
1, 70432, Note_on_c, 3, 69, 0
1, 70432, Note_on_c, 3, 62, 0
1, 70454, Note_on_c, 7, 57, 0
1, 70460, Note_on_c, 7, 62, 0
1, 70462, Note_on_c, 8, 74, 0
1, 70462, Note_on_c, 8, 69, 0
1, 70462, Note_on_c, 8, 62, 0
1, 70462, Note_on_c, 8, 66, 0
1, 70464, Note_on_c, 7, 57, 79
1, 70464, Note_on_c, 3, 74, 110
1, 70464, Note_on_c, 3, 78, 114
1, 70464, Note_on_c, 8, 78, 1
1, 70464, Note_on_c, 8, 66, 1
1, 70464, Note_on_c, 2, 78, 1
1, 70464, Note_on_c, 3, 69, 114
1, 70464, Note_on_c, 3, 66, 112
1, 70464, Note_on_c, 9, 51, 56
1, 70464, Note_on_c, 9, 42, 68
1, 70464, Note_on_c, 8, 74, 1
1, 70464, Lyric_t, "kiss "
1, 70464, Note_on_c, 8, 69, 1
1, 70466, Note_on_c, 7, 66, 0
1, 70469, Note_on_c, 7, 62, 88
1, 70470, Note_on_c, 9, 42, 0
1, 70470, Note_on_c, 9, 51, 0
1, 70476, Note_on_c, 7, 66, 95
1, 70514, Note_on_c, 0, 38, 0
1, 70554, Note_on_c, 5, 45, 0
1, 70554, Note_on_c, 7, 62, 0
1, 70558, Note_on_c, 7, 57, 0
1, 70560, Note_on_c, 0, 38, 99
1, 70564, Note_on_c, 7, 62, 77
1, 70568, Note_on_c, 7, 57, 65
1, 70580, Note_on_c, 3, 69, 0
1, 70580, Note_on_c, 2, 78, 0
1, 70580, Note_on_c, 3, 66, 0
1, 70580, Note_on_c, 3, 78, 0
1, 70580, Note_on_c, 3, 74, 0
1, 70606, Note_on_c, 0, 38, 0
1, 70636, Note_on_c, 1, 50, 0
1, 70636, Note_on_c, 1, 57, 0
1, 70636, Note_on_c, 1, 66, 0
1, 70636, Note_on_c, 1, 62, 0
1, 70644, Note_on_c, 7, 62, 0
1, 70644, Note_on_c, 7, 57, 0
1, 70644, Note_on_c, 1, 61, 75
1, 70644, Note_on_c, 1, 52, 78
1, 70644, Note_on_c, 1, 64, 78
1, 70644, Note_on_c, 1, 57, 80
1, 70646, Note_on_c, 7, 66, 0
1, 70654, Note_on_c, 8, 78, 0
1, 70654, Note_on_c, 8, 74, 0
1, 70654, Note_on_c, 8, 69, 0
1, 70654, Note_on_c, 8, 66, 0
1, 70656, Note_on_c, 9, 42, 86
1, 70656, Note_on_c, 3, 64, 119
1, 70656, Note_on_c, 8, 64, 1
1, 70656, Note_on_c, 9, 35, 116
1, 70656, Note_on_c, 2, 76, 1
1, 70656, Note_on_c, 3, 69, 119
1, 70656, Note_on_c, 0, 33, 113
1, 70656, Note_on_c, 5, 45, 102
1, 70656, Note_on_c, 8, 73, 1
1, 70656, Note_on_c, 8, 76, 1
1, 70656, Note_on_c, 3, 73, 112
1, 70656, Note_on_c, 9, 51, 58
1, 70656, Lyric_t, "\015 "
1, 70656, Note_on_c, 8, 69, 1
1, 70656, Lyric_t, "es  "
1, 70656, Note_on_c, 7, 57, 89
1, 70656, Note_on_c, 3, 76, 118
1, 70661, Note_on_c, 7, 61, 95
1, 70662, Note_on_c, 9, 51, 0
1, 70662, Note_on_c, 9, 35, 0
1, 70662, Note_on_c, 9, 42, 0
1, 70666, Note_on_c, 5, 50, 0
1, 70666, Note_on_c, 5, 54, 0
1, 70666, Note_on_c, 5, 66, 0
1, 70668, Note_on_c, 7, 64, 101
1, 70838, Note_on_c, 7, 57, 0
1, 70840, Note_on_c, 5, 45, 0
1, 70844, Note_on_c, 7, 61, 0
1, 70848, Note_on_c, 5, 45, 95
1, 70848, Note_on_c, 7, 57, 76
1, 70848, Note_on_c, 9, 51, 61
1, 70848, Note_on_c, 9, 42, 66
1, 70850, Note_on_c, 7, 64, 0
1, 70853, Note_on_c, 7, 61, 89
1, 70854, Note_on_c, 9, 42, 0
1, 70854, Note_on_c, 9, 51, 0
1, 70860, Note_on_c, 7, 64, 90
1, 71030, Note_on_c, 7, 57, 0
1, 71036, Note_on_c, 7, 61, 0
1, 71040, Note_on_c, 9, 40, 92
1, 71040, Note_on_c, 5, 57, 97
1, 71040, Note_on_c, 5, 64, 98
1, 71040, Note_on_c, 5, 52, 97
1, 71040, Note_on_c, 9, 51, 58
1, 71040, Note_on_c, 9, 42, 91
1, 71040, Note_on_c, 7, 57, 84
1, 71042, Note_on_c, 7, 64, 0
1, 71045, Note_on_c, 7, 61, 95
1, 71046, Note_on_c, 9, 42, 0
1, 71046, Note_on_c, 9, 51, 0
1, 71046, Note_on_c, 9, 40, 0
1, 71052, Note_on_c, 7, 64, 109
1, 71222, Note_on_c, 7, 57, 0
1, 71228, Note_on_c, 7, 61, 0
1, 71232, Note_on_c, 7, 57, 77
1, 71232, Note_on_c, 9, 42, 71
1, 71232, Note_on_c, 9, 51, 56
1, 71234, Note_on_c, 7, 64, 0
1, 71237, Note_on_c, 7, 61, 79
1, 71238, Note_on_c, 9, 51, 0
1, 71238, Note_on_c, 9, 42, 0
1, 71244, Note_on_c, 7, 64, 89
1, 71300, Note_on_c, 0, 33, 0
1, 71322, Note_on_c, 7, 61, 0
1, 71322, Note_on_c, 5, 45, 0
1, 71326, Note_on_c, 7, 57, 0
1, 71328, Note_on_c, 0, 33, 101
1, 71328, Note_on_c, 9, 35, 92
1, 71332, Note_on_c, 7, 61, 75
1, 71334, Note_on_c, 9, 35, 0
1, 71336, Note_on_c, 7, 57, 68
1, 71368, Note_on_c, 0, 33, 0
1, 71406, Note_on_c, 5, 52, 0
1, 71410, Note_on_c, 7, 64, 0
1, 71412, Note_on_c, 7, 57, 0
1, 71420, Note_on_c, 7, 61, 0
1, 71424, Note_on_c, 9, 42, 91
1, 71424, Note_on_c, 9, 35, 118
1, 71424, Note_on_c, 2, 88, 114
1, 71424, Note_on_c, 7, 57, 87
1, 71424, Note_on_c, 5, 45, 94
1, 71424, Note_on_c, 9, 51, 53
1, 71424, Lyric_t, "Yeah  "
1, 71424, Note_on_c, 0, 33, 108
1, 71429, Note_on_c, 7, 61, 91
1, 71430, Note_on_c, 9, 51, 0
1, 71430, Note_on_c, 9, 35, 0
1, 71430, Note_on_c, 9, 42, 0
1, 71436, Note_on_c, 7, 64, 101
1, 71480, Note_on_c, 5, 57, 0
1, 71480, Note_on_c, 5, 64, 0
1, 71502, Note_on_c, 0, 33, 0
1, 71510, Note_on_c, 7, 64, 0
1, 71514, Note_on_c, 7, 61, 0
1, 71518, Note_on_c, 7, 57, 0
1, 71520, Note_on_c, 7, 64, 83
1, 71524, Note_on_c, 7, 61, 72
1, 71528, Note_on_c, 7, 57, 65
1, 71606, Note_on_c, 7, 57, 0
1, 71606, Note_on_c, 2, 88, 0
1, 71608, Note_on_c, 5, 45, 0
1, 71612, Note_on_c, 7, 61, 0
1, 71612, Lyric_t, "hey "
1, 71613, Note_on_c, 2, 86, 111
1, 71616, Note_on_c, 9, 42, 69
1, 71616, Note_on_c, 9, 51, 58
1, 71616, Note_on_c, 5, 45, 85
1, 71616, Note_on_c, 7, 57, 73
1, 71616, Note_on_c, 0, 33, 105
1, 71616, Note_on_c, 9, 35, 102
1, 71618, Note_on_c, 7, 64, 0
1, 71621, Note_on_c, 7, 61, 75
1, 71622, Note_on_c, 9, 35, 0
1, 71622, Note_on_c, 9, 42, 0
1, 71622, Note_on_c, 9, 51, 0
1, 71628, Note_on_c, 7, 64, 85
1, 71702, Note_on_c, 7, 64, 0
1, 71704, Note_on_c, 2, 86, 0
1, 71706, Note_on_c, 7, 61, 0
1, 71710, Note_on_c, 7, 57, 0
1, 71712, Note_on_c, 7, 64, 87
1, 71712, Lyric_t, "eh "
1, 71712, Note_on_c, 2, 85, 112
1, 71716, Note_on_c, 7, 61, 86
1, 71720, Note_on_c, 7, 57, 76
1, 71798, Note_on_c, 2, 85, 0
1, 71800, Note_on_c, 7, 57, 0
1, 71800, Note_on_c, 7, 61, 0
1, 71806, Note_on_c, 7, 64, 0
1, 71808, Note_on_c, 9, 40, 90
1, 71808, Note_on_c, 2, 86, 111
1, 71808, Lyric_t, "ey "
1, 71808, Note_on_c, 5, 57, 103
1, 71808, Note_on_c, 5, 64, 97
1, 71808, Note_on_c, 9, 51, 58
1, 71808, Note_on_c, 7, 57, 89
1, 71808, Note_on_c, 9, 42, 88
1, 71808, Note_on_c, 5, 52, 104
1, 71813, Note_on_c, 7, 61, 99
1, 71814, Note_on_c, 9, 42, 0
1, 71814, Note_on_c, 9, 51, 0
1, 71814, Note_on_c, 9, 40, 0
1, 71820, Note_on_c, 7, 64, 105
1, 71894, Note_on_c, 2, 86, 0
1, 71900, Lyric_t, "ey "
1, 71901, Note_on_c, 2, 85, 109
1, 71972, Note_on_c, 0, 33, 0
1, 71990, Note_on_c, 3, 76, 0
1, 71990, Note_on_c, 3, 73, 0
1, 71990, Note_on_c, 7, 57, 0
1, 71990, Note_on_c, 2, 76, 0
1, 71990, Note_on_c, 3, 69, 0
1, 71990, Note_on_c, 3, 64, 0
1, 71992, Note_on_c, 5, 52, 0
1, 71992, Note_on_c, 5, 45, 0
1, 71992, Note_on_c, 2, 85, 0
1, 71996, Note_on_c, 7, 61, 0
1, 72000, Note_on_c, 9, 51, 60
1, 72000, Note_on_c, 5, 45, 73
1, 72000, Note_on_c, 0, 38, 102
1, 72000, Note_on_c, 9, 46, 69
1, 72000, Note_on_c, 7, 57, 73
1, 72000, Lyric_t, "ey  "
1, 72000, Note_on_c, 5, 52, 74
1, 72000, Note_on_c, 2, 81, 113
1, 72002, Note_on_c, 7, 64, 0
1, 72005, Note_on_c, 7, 61, 81
1, 72006, Note_on_c, 9, 46, 0
1, 72006, Note_on_c, 9, 51, 0
1, 72012, Note_on_c, 7, 64, 95
1, 72066, Note_on_c, 5, 52, 0
1, 72066, Note_on_c, 5, 45, 0
1, 72090, Note_on_c, 7, 61, 0
1, 72094, Note_on_c, 7, 57, 0
1, 72096, Note_on_c, 5, 45, 74
1, 72096, Note_on_c, 5, 52, 69
1, 72100, Note_on_c, 7, 61, 78
1, 72104, Note_on_c, 7, 57, 68
1, 72162, Note_on_c, 5, 52, 0
1, 72162, Note_on_c, 5, 45, 0
1, 72170, Note_on_c, 0, 38, 0
1, 72172, Note_on_c, 1, 61, 0
1, 72172, Note_on_c, 1, 64, 0
1, 72172, Note_on_c, 1, 52, 0
1, 72172, Note_on_c, 1, 57, 0
1, 72180, Note_on_c, 7, 57, 0
1, 72180, Note_on_c, 7, 61, 0
1, 72180, Note_on_c, 1, 62, 80
1, 72180, Note_on_c, 1, 55, 77
1, 72180, Note_on_c, 1, 59, 79
1, 72180, Note_on_c, 1, 67, 83
1, 72182, Note_on_c, 7, 64, 0
1, 72184, Note_on_c, 5, 57, 0
1, 72184, Note_on_c, 5, 64, 0
1, 72190, Note_on_c, 8, 64, 0
1, 72190, Note_on_c, 8, 69, 0
1, 72190, Note_on_c, 8, 76, 0
1, 72190, Note_on_c, 8, 73, 0
1, 72192, Note_on_c, 5, 43, 89
1, 72192, Note_on_c, 0, 31, 106
1, 72192, Note_on_c, 9, 51, 56
1, 72192, Note_on_c, 9, 49, 79
1, 72192, Note_on_c, 5, 55, 102
1, 72192, Note_on_c, 9, 42, 90
1, 72192, Note_on_c, 7, 59, 81
1, 72192, Note_on_c, 9, 35, 117
1, 72197, Note_on_c, 7, 62, 93
1, 72198, Note_on_c, 9, 35, 0
1, 72198, Note_on_c, 9, 49, 0
1, 72198, Note_on_c, 9, 51, 0
1, 72198, Note_on_c, 9, 42, 0
1, 72204, Note_on_c, 7, 67, 101
1, 72362, Note_on_c, 2, 81, 0
1, 72368, Lyric_t, "yeah "
1, 72369, Note_on_c, 2, 84, 115
1, 72374, Note_on_c, 7, 59, 0
1, 72376, Note_on_c, 5, 43, 0
1, 72376, Note_on_c, 5, 55, 0
1, 72380, Note_on_c, 7, 62, 0
1, 72384, Note_on_c, 9, 42, 65
1, 72384, Note_on_c, 5, 43, 85
1, 72384, Note_on_c, 9, 51, 57
1, 72384, Note_on_c, 7, 59, 78
1, 72384, Note_on_c, 5, 55, 98
1, 72386, Note_on_c, 7, 67, 0
1, 72389, Note_on_c, 7, 62, 84
1, 72390, Note_on_c, 9, 51, 0
1, 72390, Note_on_c, 9, 42, 0
1, 72396, Note_on_c, 7, 67, 94
1, 72458, Note_on_c, 2, 84, 0
1, 72464, Lyric_t, "eh  "
1, 72464, Lyric_t, "\015 "
1, 72465, Note_on_c, 2, 81, 114
1, 72566, Note_on_c, 7, 59, 0
1, 72570, Note_on_c, 0, 31, 0
1, 72572, Note_on_c, 7, 62, 0
1, 72572, Note_on_c, 5, 55, 0
1, 72576, Note_on_c, 9, 42, 90
1, 72576, Note_on_c, 5, 55, 113
1, 72576, Note_on_c, 9, 40, 98
1, 72576, Note_on_c, 9, 51, 57
1, 72576, Note_on_c, 5, 67, 103
1, 72576, Note_on_c, 5, 50, 100
1, 72576, Note_on_c, 7, 59, 91
1, 72578, Note_on_c, 7, 67, 0
1, 72581, Note_on_c, 7, 62, 102
1, 72582, Note_on_c, 9, 51, 0
1, 72582, Note_on_c, 9, 40, 0
1, 72582, Note_on_c, 9, 42, 0
1, 72588, Note_on_c, 7, 67, 109
1, 72672, Note_on_c, 0, 31, 84
1, 72706, Note_on_c, 0, 31, 0
1, 72758, Note_on_c, 7, 59, 0
1, 72760, Note_on_c, 5, 55, 0
1, 72760, Note_on_c, 5, 50, 0
1, 72764, Note_on_c, 7, 62, 0
1, 72768, Note_on_c, 5, 50, 70
1, 72768, Note_on_c, 9, 51, 56
1, 72768, Note_on_c, 7, 59, 73
1, 72768, Note_on_c, 9, 42, 64
1, 72768, Note_on_c, 0, 35, 85
1, 72768, Note_on_c, 5, 55, 79
1, 72770, Note_on_c, 7, 67, 0
1, 72773, Note_on_c, 7, 62, 80
1, 72774, Note_on_c, 9, 51, 0
1, 72774, Note_on_c, 9, 42, 0
1, 72780, Note_on_c, 7, 67, 96
1, 72834, Note_on_c, 0, 35, 0
1, 72850, Note_on_c, 5, 50, 0
1, 72850, Note_on_c, 5, 55, 0
1, 72856, Note_on_c, 2, 81, 0
1, 72858, Note_on_c, 5, 43, 0
1, 72858, Note_on_c, 7, 62, 0
1, 72862, Note_on_c, 7, 59, 0
1, 72864, Note_on_c, 9, 35, 84
1, 72864, Note_on_c, 0, 37, 79
1, 72864, Note_on_c, 5, 50, 69
1, 72864, Note_on_c, 5, 55, 77
1, 72868, Note_on_c, 7, 62, 80
1, 72870, Note_on_c, 9, 35, 0
1, 72872, Note_on_c, 7, 59, 69
1, 72930, Note_on_c, 0, 37, 0
1, 72940, Note_on_c, 1, 55, 0
1, 72940, Note_on_c, 1, 59, 0
1, 72940, Note_on_c, 1, 67, 0
1, 72940, Note_on_c, 1, 62, 0
1, 72946, Note_on_c, 5, 50, 0
1, 72946, Note_on_c, 5, 55, 0
1, 72946, Note_on_c, 7, 67, 0
1, 72948, Note_on_c, 7, 59, 0
1, 72948, Note_on_c, 1, 66, 82
1, 72948, Note_on_c, 1, 62, 80
1, 72948, Note_on_c, 1, 57, 76
1, 72948, Note_on_c, 1, 50, 78
1, 72956, Note_on_c, 7, 62, 0
1, 72960, Note_on_c, 8, 66, 1
1, 72960, Note_on_c, 3, 78, 125
1, 72960, Note_on_c, 2, 78, 1
1, 72960, Note_on_c, 8, 69, 1
1, 72960, Note_on_c, 8, 74, 1
1, 72960, Lyric_t, "Weight  "
1, 72960, Note_on_c, 5, 55, 95
1, 72960, Note_on_c, 3, 66, 122
1, 72960, Note_on_c, 3, 74, 116
1, 72960, Note_on_c, 0, 38, 106
1, 72960, Note_on_c, 7, 57, 86
1, 72960, Note_on_c, 8, 78, 1
1, 72960, Note_on_c, 9, 35, 117
1, 72960, Note_on_c, 9, 42, 89
1, 72960, Note_on_c, 9, 51, 56
1, 72960, Note_on_c, 5, 45, 88
1, 72960, Note_on_c, 3, 69, 116
1, 72965, Note_on_c, 7, 62, 90
1, 72966, Note_on_c, 9, 51, 0
1, 72966, Note_on_c, 9, 42, 0
1, 72966, Note_on_c, 9, 35, 0
1, 72972, Note_on_c, 7, 66, 100
1, 73016, Note_on_c, 5, 67, 0
1, 73046, Note_on_c, 7, 66, 0
1, 73050, Note_on_c, 5, 55, 0
1, 73050, Note_on_c, 7, 62, 0
1, 73054, Note_on_c, 7, 57, 0
1, 73056, Note_on_c, 5, 54, 85
1, 73056, Note_on_c, 7, 66, 79
1, 73060, Note_on_c, 7, 62, 69
1, 73064, Note_on_c, 7, 57, 65
1, 73084, Note_on_c, 0, 38, 0
1, 73134, Note_on_c, 2, 78, 0
1, 73134, Note_on_c, 3, 69, 0
1, 73134, Note_on_c, 3, 66, 0
1, 73134, Note_on_c, 3, 78, 0
1, 73134, Note_on_c, 3, 74, 0
1, 73142, Note_on_c, 7, 57, 0
1, 73144, Note_on_c, 5, 45, 0
1, 73144, Note_on_c, 5, 54, 0
1, 73148, Note_on_c, 7, 62, 0
1, 73150, Note_on_c, 8, 74, 0
1, 73150, Note_on_c, 8, 66, 0
1, 73150, Note_on_c, 8, 69, 0
1, 73150, Note_on_c, 8, 78, 0
1, 73152, Note_on_c, 3, 69, 118
1, 73152, Note_on_c, 3, 73, 117
1, 73152, Note_on_c, 3, 76, 118
1, 73152, Note_on_c, 7, 57, 71
1, 73152, Note_on_c, 2, 76, 1
1, 73152, Note_on_c, 5, 45, 83
1, 73152, Note_on_c, 5, 54, 96
1, 73152, Note_on_c, 3, 64, 119
1, 73152, Note_on_c, 8, 76, 1
1, 73152, Note_on_c, 8, 64, 1
1, 73152, Note_on_c, 8, 69, 1
1, 73152, Note_on_c, 0, 38, 95
1, 73152, Note_on_c, 9, 51, 56
1, 73152, Lyric_t, "in  "
1, 73152, Note_on_c, 9, 42, 73
1, 73152, Note_on_c, 8, 73, 1
1, 73152, Note_on_c, 9, 35, 108
1, 73154, Note_on_c, 7, 66, 0
1, 73157, Note_on_c, 7, 62, 82
1, 73158, Note_on_c, 9, 35, 0
1, 73158, Note_on_c, 9, 51, 0
1, 73158, Note_on_c, 9, 42, 0
1, 73164, Note_on_c, 7, 66, 88
1, 73238, Note_on_c, 7, 66, 0
1, 73242, Note_on_c, 7, 62, 0
1, 73246, Note_on_c, 7, 57, 0
1, 73248, Note_on_c, 7, 66, 94
1, 73252, Note_on_c, 7, 62, 84
1, 73256, Note_on_c, 7, 57, 74
1, 73326, Note_on_c, 3, 76, 0
1, 73326, Note_on_c, 2, 76, 0
1, 73326, Note_on_c, 3, 64, 0
1, 73326, Note_on_c, 3, 73, 0
1, 73326, Note_on_c, 3, 69, 0
1, 73336, Note_on_c, 7, 57, 0
1, 73336, Note_on_c, 7, 62, 0
1, 73336, Note_on_c, 5, 54, 0
1, 73342, Note_on_c, 8, 64, 0
1, 73342, Note_on_c, 8, 69, 0
1, 73342, Note_on_c, 7, 66, 0
1, 73342, Note_on_c, 8, 73, 0
1, 73342, Note_on_c, 8, 76, 0
1, 73344, Note_on_c, 3, 69, 116
1, 73344, Note_on_c, 3, 62, 112
1, 73344, Note_on_c, 2, 74, 1
1, 73344, Note_on_c, 9, 40, 96
1, 73344, Note_on_c, 9, 42, 90
1, 73344, Note_on_c, 9, 51, 55
1, 73344, Note_on_c, 7, 57, 86
1, 73344, Note_on_c, 8, 69, 1
1, 73344, Note_on_c, 8, 62, 1
1, 73344, Note_on_c, 5, 50, 102
1, 73344, Note_on_c, 3, 66, 114
1, 73344, Note_on_c, 5, 54, 108
1, 73344, Lyric_t, "my  "
1, 73344, Note_on_c, 8, 66, 1
1, 73344, Note_on_c, 3, 74, 112
1, 73344, Note_on_c, 8, 74, 1
1, 73344, Note_on_c, 5, 66, 96
1, 73349, Note_on_c, 7, 62, 98
1, 73350, Note_on_c, 9, 51, 0
1, 73350, Note_on_c, 9, 40, 0
1, 73350, Note_on_c, 9, 42, 0
1, 73356, Note_on_c, 7, 66, 103
1, 73504, Note_on_c, 3, 66, 0
1, 73504, Note_on_c, 3, 69, 0
1, 73504, Note_on_c, 3, 74, 0
1, 73504, Note_on_c, 2, 74, 0
1, 73504, Note_on_c, 3, 62, 0
1, 73526, Note_on_c, 7, 57, 0
1, 73532, Note_on_c, 7, 62, 0
1, 73534, Note_on_c, 8, 74, 0
1, 73534, Note_on_c, 8, 66, 0
1, 73534, Note_on_c, 8, 62, 0
1, 73534, Note_on_c, 8, 69, 0
1, 73536, Lyric_t, "pock "
1, 73536, Note_on_c, 9, 51, 59
1, 73536, Note_on_c, 3, 66, 110
1, 73536, Note_on_c, 9, 42, 70
1, 73536, Note_on_c, 8, 74, 1
1, 73536, Note_on_c, 8, 78, 1
1, 73536, Note_on_c, 2, 78, 1
1, 73536, Note_on_c, 3, 69, 111
1, 73536, Note_on_c, 3, 74, 110
1, 73536, Note_on_c, 3, 78, 112
1, 73536, Note_on_c, 8, 66, 1
1, 73536, Note_on_c, 8, 69, 1
1, 73536, Note_on_c, 7, 57, 72
1, 73538, Note_on_c, 7, 66, 0
1, 73541, Note_on_c, 7, 62, 84
1, 73542, Note_on_c, 9, 51, 0
1, 73542, Note_on_c, 9, 42, 0
1, 73548, Note_on_c, 7, 66, 97
1, 73586, Note_on_c, 0, 38, 0
1, 73626, Note_on_c, 7, 62, 0
1, 73626, Note_on_c, 5, 45, 0
1, 73630, Note_on_c, 7, 57, 0
1, 73632, Note_on_c, 0, 38, 98
1, 73636, Note_on_c, 7, 62, 74
1, 73640, Note_on_c, 7, 57, 69
1, 73652, Note_on_c, 3, 69, 0
1, 73652, Note_on_c, 3, 78, 0
1, 73652, Note_on_c, 2, 78, 0
1, 73652, Note_on_c, 3, 74, 0
1, 73652, Note_on_c, 3, 66, 0
1, 73678, Note_on_c, 0, 38, 0
1, 73708, Note_on_c, 1, 50, 0
1, 73708, Note_on_c, 1, 66, 0
1, 73708, Note_on_c, 1, 57, 0
1, 73708, Note_on_c, 1, 62, 0
1, 73716, Note_on_c, 7, 62, 0
1, 73716, Note_on_c, 7, 57, 0
1, 73716, Note_on_c, 1, 57, 80
1, 73716, Note_on_c, 1, 64, 83
1, 73716, Note_on_c, 1, 61, 81
1, 73716, Note_on_c, 1, 52, 80
1, 73718, Note_on_c, 7, 66, 0
1, 73726, Note_on_c, 8, 66, 0
1, 73726, Note_on_c, 8, 74, 0
1, 73726, Note_on_c, 8, 69, 0
1, 73726, Note_on_c, 8, 78, 0
1, 73728, Note_on_c, 9, 35, 116
1, 73728, Note_on_c, 8, 76, 1
1, 73728, Note_on_c, 9, 42, 85
1, 73728, Note_on_c, 8, 69, 1
1, 73728, Note_on_c, 8, 73, 1
1, 73728, Note_on_c, 2, 76, 1
1, 73728, Lyric_t, "\015 "
1, 73728, Note_on_c, 0, 33, 112
1, 73728, Note_on_c, 8, 64, 1
1, 73728, Note_on_c, 3, 64, 115
1, 73728, Note_on_c, 9, 51, 55
1, 73728, Note_on_c, 7, 57, 81
1, 73728, Note_on_c, 3, 76, 113
1, 73728, Lyric_t, "et  "
1, 73728, Note_on_c, 3, 69, 116
1, 73728, Note_on_c, 3, 73, 117
1, 73728, Note_on_c, 5, 45, 96
1, 73733, Note_on_c, 7, 61, 97
1, 73734, Note_on_c, 9, 51, 0
1, 73734, Note_on_c, 9, 42, 0
1, 73734, Note_on_c, 9, 35, 0
1, 73738, Note_on_c, 5, 66, 0
1, 73738, Note_on_c, 5, 54, 0
1, 73738, Note_on_c, 5, 50, 0
1, 73740, Note_on_c, 7, 64, 98
1, 73824, Lyric_t, "You're  "
1, 73824, Note_on_c, 2, 79, 110
1, 73906, Note_on_c, 2, 79, 0
1, 73910, Note_on_c, 7, 57, 0
1, 73912, Note_on_c, 5, 45, 0
1, 73916, Note_on_c, 7, 61, 0
1, 73920, Note_on_c, 9, 51, 54
1, 73920, Lyric_t, "like  "
1, 73920, Note_on_c, 2, 81, 113
1, 73920, Note_on_c, 9, 42, 65
1, 73920, Note_on_c, 7, 57, 79
1, 73920, Note_on_c, 5, 45, 100
1, 73922, Note_on_c, 7, 64, 0
1, 73925, Note_on_c, 7, 61, 82
1, 73926, Note_on_c, 9, 42, 0
1, 73926, Note_on_c, 9, 51, 0
1, 73932, Note_on_c, 7, 64, 98
1, 74002, Note_on_c, 2, 81, 0
1, 74016, Lyric_t, "a  "
1, 74016, Note_on_c, 2, 79, 113
1, 74098, Note_on_c, 2, 79, 0
1, 74102, Note_on_c, 7, 57, 0
1, 74108, Note_on_c, 7, 61, 0
1, 74112, Note_on_c, 9, 42, 91
1, 74112, Note_on_c, 9, 40, 90
1, 74112, Lyric_t, "weight  "
1, 74112, Note_on_c, 5, 52, 98
1, 74112, Note_on_c, 7, 57, 84
1, 74112, Note_on_c, 5, 64, 100
1, 74112, Note_on_c, 2, 81, 111
1, 74112, Note_on_c, 9, 51, 59
1, 74112, Lyric_t, "\015 "
1, 74112, Note_on_c, 5, 57, 101
1, 74114, Note_on_c, 7, 64, 0
1, 74117, Note_on_c, 7, 61, 99
1, 74118, Note_on_c, 9, 51, 0
1, 74118, Note_on_c, 9, 42, 0
1, 74118, Note_on_c, 9, 40, 0
1, 74124, Note_on_c, 7, 64, 108
1, 74294, Note_on_c, 7, 57, 0
1, 74300, Note_on_c, 7, 61, 0
1, 74304, Note_on_c, 7, 57, 71
1, 74304, Note_on_c, 9, 51, 63
1, 74304, Note_on_c, 9, 42, 70
1, 74306, Note_on_c, 7, 64, 0
1, 74309, Note_on_c, 7, 61, 86
1, 74310, Note_on_c, 9, 42, 0
1, 74310, Note_on_c, 9, 51, 0
1, 74316, Note_on_c, 7, 64, 91
1, 74372, Note_on_c, 0, 33, 0
1, 74386, Note_on_c, 2, 81, 0
1, 74394, Note_on_c, 5, 45, 0
1, 74394, Note_on_c, 7, 61, 0
1, 74398, Note_on_c, 7, 57, 0
1, 74400, Note_on_c, 2, 79, 110
1, 74400, Lyric_t, "you're  "
1, 74400, Note_on_c, 0, 40, 97
1, 74400, Note_on_c, 9, 35, 88
1, 74404, Note_on_c, 7, 61, 76
1, 74406, Note_on_c, 9, 35, 0
1, 74408, Note_on_c, 7, 57, 71
1, 74460, Note_on_c, 0, 40, 0
1, 74478, Note_on_c, 5, 52, 0
1, 74482, Note_on_c, 2, 79, 0
1, 74482, Note_on_c, 7, 64, 0
1, 74484, Note_on_c, 7, 57, 0
1, 74492, Note_on_c, 7, 61, 0
1, 74496, Note_on_c, 9, 35, 121
1, 74496, Note_on_c, 2, 81, 112
1, 74496, Note_on_c, 7, 57, 84
1, 74496, Lyric_t, "like  "
1, 74496, Note_on_c, 9, 51, 60
1, 74496, Note_on_c, 0, 33, 102
1, 74496, Note_on_c, 9, 42, 86
1, 74496, Note_on_c, 5, 45, 96
1, 74501, Note_on_c, 7, 61, 94
1, 74502, Note_on_c, 9, 42, 0
1, 74502, Note_on_c, 9, 51, 0
1, 74502, Note_on_c, 9, 35, 0
1, 74508, Note_on_c, 7, 64, 103
1, 74508, Note_on_c, 7, 69, 97
1, 74552, Note_on_c, 5, 64, 0
1, 74552, Note_on_c, 5, 57, 0
1, 74578, Note_on_c, 2, 81, 0
1, 74582, Note_on_c, 7, 64, 0
1, 74586, Note_on_c, 7, 61, 0
1, 74590, Note_on_c, 7, 57, 0
1, 74592, Note_on_c, 2, 79, 112
1, 74592, Lyric_t, "a  "
1, 74592, Note_on_c, 7, 64, 85
1, 74596, Note_on_c, 7, 61, 76
1, 74600, Note_on_c, 7, 57, 66
1, 74616, Note_on_c, 0, 33, 0
1, 74674, Note_on_c, 2, 79, 0
1, 74678, Note_on_c, 7, 57, 0
1, 74680, Note_on_c, 5, 45, 0
1, 74684, Note_on_c, 7, 61, 0
1, 74688, Note_on_c, 9, 51, 53
1, 74688, Note_on_c, 7, 57, 72
1, 74688, Note_on_c, 5, 45, 92
1, 74688, Note_on_c, 2, 81, 113
1, 74688, Note_on_c, 9, 46, 68
1, 74688, Note_on_c, 0, 33, 108
1, 74688, Lyric_t, "weight  "
1, 74688, Note_on_c, 9, 35, 103
1, 74690, Note_on_c, 7, 64, 0
1, 74693, Note_on_c, 7, 61, 82
1, 74694, Note_on_c, 9, 35, 0
1, 74694, Note_on_c, 9, 46, 0
1, 74694, Note_on_c, 9, 51, 0
1, 74700, Note_on_c, 7, 64, 86
1, 74774, Note_on_c, 7, 64, 0
1, 74776, Note_on_c, 7, 69, 0
1, 74778, Note_on_c, 7, 61, 0
1, 74782, Note_on_c, 7, 57, 0
1, 74784, Note_on_c, 7, 64, 104
1, 74784, Note_on_c, 7, 69, 88
1, 74788, Note_on_c, 7, 61, 96
1, 74792, Note_on_c, 7, 57, 86
1, 74880, Note_on_c, 9, 40, 91
1, 74880, Note_on_c, 9, 42, 92
1, 74880, Note_on_c, 9, 51, 62
1, 74880, Note_on_c, 5, 64, 102
1, 74880, Note_on_c, 5, 57, 97
1, 74880, Note_on_c, 5, 52, 97
1, 74882, Note_on_c, 2, 81, 0
1, 74886, Note_on_c, 9, 51, 0
1, 74886, Note_on_c, 9, 42, 0
1, 74886, Note_on_c, 9, 40, 0
1, 74889, Note_on_c, 2, 84, 114
1, 74889, Lyric_t, "ba "
1, 74948, Note_on_c, 0, 33, 0
1, 74966, Note_on_c, 7, 64, 0
1, 74970, Note_on_c, 7, 61, 0
1, 74974, Note_on_c, 7, 57, 0
1, 74976, Note_on_c, 0, 33, 98
1, 74976, Note_on_c, 7, 64, 79
1, 74980, Note_on_c, 7, 61, 65
1, 74984, Note_on_c, 7, 57, 57
1, 75062, Note_on_c, 7, 57, 0
1, 75062, Note_on_c, 3, 64, 0
1, 75062, Note_on_c, 3, 76, 0
1, 75062, Note_on_c, 3, 69, 0
1, 75062, Note_on_c, 3, 73, 0
1, 75062, Note_on_c, 2, 76, 0
1, 75064, Note_on_c, 5, 45, 0
1, 75064, Note_on_c, 5, 52, 0
1, 75068, Note_on_c, 7, 61, 0
1, 75072, Note_on_c, 2, 84, 0
1, 75072, Note_on_c, 9, 51, 58
1, 75072, Note_on_c, 5, 45, 67
1, 75072, Note_on_c, 7, 57, 74
1, 75072, Note_on_c, 9, 46, 67
1, 75072, Note_on_c, 5, 52, 67
1, 75074, Note_on_c, 7, 64, 0
1, 75076, Note_on_c, 7, 69, 0
1, 75077, Note_on_c, 7, 61, 82
1, 75078, Note_on_c, 9, 46, 0
1, 75078, Note_on_c, 9, 51, 0
1, 75078, Lyric_t, "by.  "
1, 75078, Lyric_t, "\015 "
1, 75080, Note_on_c, 2, 81, 109
1, 75084, Note_on_c, 7, 64, 91
1, 75084, Note_on_c, 7, 69, 80
1, 75138, Note_on_c, 5, 52, 0
1, 75138, Note_on_c, 5, 45, 0
1, 75166, Note_on_c, 7, 57, 0
1, 75168, Note_on_c, 5, 52, 69
1, 75168, Note_on_c, 5, 45, 70
1, 75176, Note_on_c, 7, 57, 61
1, 75234, Note_on_c, 5, 45, 0
1, 75234, Note_on_c, 5, 52, 0
1, 75242, Note_on_c, 0, 33, 0
1, 75244, Note_on_c, 1, 61, 0
1, 75244, Note_on_c, 1, 57, 0
1, 75244, Note_on_c, 1, 52, 0
1, 75244, Note_on_c, 1, 64, 0
1, 75252, Note_on_c, 7, 57, 0
1, 75252, Note_on_c, 1, 62, 83
1, 75252, Note_on_c, 1, 67, 76
1, 75252, Note_on_c, 1, 55, 76
1, 75252, Note_on_c, 1, 59, 78
1, 75254, Note_on_c, 7, 69, 0
1, 75254, Note_on_c, 7, 64, 0
1, 75254, Note_on_c, 7, 61, 0
1, 75256, Note_on_c, 5, 57, 0
1, 75256, Note_on_c, 5, 64, 0
1, 75262, Note_on_c, 8, 73, 0
1, 75262, Note_on_c, 8, 64, 0
1, 75262, Note_on_c, 8, 69, 0
1, 75262, Note_on_c, 8, 76, 0
1, 75264, Note_on_c, 5, 43, 93
1, 75264, Note_on_c, 9, 35, 125
1, 75264, Note_on_c, 7, 59, 88
1, 75264, Note_on_c, 9, 42, 88
1, 75264, Note_on_c, 9, 49, 76
1, 75264, Note_on_c, 0, 31, 111
1, 75264, Note_on_c, 9, 51, 56
1, 75269, Note_on_c, 7, 62, 95
1, 75270, Note_on_c, 9, 51, 0
1, 75270, Note_on_c, 9, 42, 0
1, 75270, Note_on_c, 9, 35, 0
1, 75270, Note_on_c, 9, 49, 0
1, 75276, Note_on_c, 7, 67, 102
1, 75446, Note_on_c, 7, 59, 0
1, 75448, Note_on_c, 5, 43, 0
1, 75452, Note_on_c, 7, 62, 0
1, 75456, Note_on_c, 2, 81, 0
1, 75456, Note_on_c, 9, 42, 66
1, 75456, Note_on_c, 5, 43, 90
1, 75456, Note_on_c, 9, 51, 61
1, 75456, Note_on_c, 7, 59, 78
1, 75458, Note_on_c, 7, 67, 0
1, 75461, Note_on_c, 7, 62, 88
1, 75462, Note_on_c, 9, 51, 0
1, 75462, Note_on_c, 9, 42, 0
1, 75468, Note_on_c, 7, 67, 93
1, 75638, Note_on_c, 7, 59, 0
1, 75642, Note_on_c, 0, 31, 0
1, 75644, Note_on_c, 7, 62, 0
1, 75648, Note_on_c, 9, 40, 90
1, 75648, Note_on_c, 7, 59, 89
1, 75648, Note_on_c, 5, 67, 102
1, 75648, Note_on_c, 9, 51, 55
1, 75648, Note_on_c, 5, 50, 95
1, 75648, Note_on_c, 5, 55, 104
1, 75648, Note_on_c, 9, 42, 89
1, 75650, Note_on_c, 7, 67, 0
1, 75653, Note_on_c, 7, 62, 94
1, 75654, Note_on_c, 9, 51, 0
1, 75654, Note_on_c, 9, 42, 0
1, 75654, Note_on_c, 9, 40, 0
1, 75660, Note_on_c, 7, 67, 103
1, 75744, Note_on_c, 0, 31, 84
1, 75778, Note_on_c, 0, 31, 0
1, 75830, Note_on_c, 7, 59, 0
1, 75832, Note_on_c, 5, 50, 0
1, 75832, Note_on_c, 5, 55, 0
1, 75836, Note_on_c, 7, 62, 0
1, 75840, Note_on_c, 5, 55, 69
1, 75840, Note_on_c, 5, 50, 71
1, 75840, Note_on_c, 7, 59, 78
1, 75840, Note_on_c, 9, 51, 61
1, 75840, Note_on_c, 0, 35, 84
1, 75840, Note_on_c, 9, 42, 68
1, 75842, Note_on_c, 7, 67, 0
1, 75845, Note_on_c, 7, 62, 86
1, 75846, Note_on_c, 9, 51, 0
1, 75846, Note_on_c, 9, 42, 0
1, 75852, Note_on_c, 7, 67, 96
1, 75906, Note_on_c, 0, 35, 0
1, 75922, Note_on_c, 5, 55, 0
1, 75922, Note_on_c, 5, 50, 0
1, 75930, Note_on_c, 5, 43, 0
1, 75930, Note_on_c, 7, 62, 0
1, 75934, Note_on_c, 7, 59, 0
1, 75936, Note_on_c, 0, 37, 87
1, 75936, Note_on_c, 5, 55, 70
1, 75936, Note_on_c, 9, 35, 88
1, 75936, Note_on_c, 5, 50, 69
1, 75940, Note_on_c, 7, 62, 77
1, 75942, Note_on_c, 9, 35, 0
1, 75944, Note_on_c, 7, 59, 66
1, 76002, Note_on_c, 0, 37, 0
1, 76012, Note_on_c, 1, 59, 0
1, 76012, Note_on_c, 1, 55, 0
1, 76012, Note_on_c, 1, 67, 0
1, 76012, Note_on_c, 1, 62, 0
1, 76018, Note_on_c, 7, 67, 0
1, 76018, Note_on_c, 5, 55, 0
1, 76018, Note_on_c, 5, 50, 0
1, 76020, Note_on_c, 7, 59, 0
1, 76020, Note_on_c, 1, 50, 75
1, 76020, Note_on_c, 1, 57, 77
1, 76020, Note_on_c, 1, 66, 79
1, 76020, Note_on_c, 1, 62, 83
1, 76028, Note_on_c, 7, 62, 0
1, 76032, Note_on_c, 9, 51, 54
1, 76032, Note_on_c, 9, 42, 90
1, 76032, Note_on_c, 9, 35, 122
1, 76032, Note_on_c, 8, 78, 1
1, 76032, Note_on_c, 7, 57, 88
1, 76032, Note_on_c, 3, 78, 116
1, 76032, Lyric_t, "Cow "
1, 76032, Note_on_c, 3, 66, 117
1, 76032, Note_on_c, 0, 38, 107
1, 76032, Note_on_c, 8, 66, 1
1, 76032, Note_on_c, 5, 55, 91
1, 76032, Note_on_c, 3, 69, 124
1, 76032, Note_on_c, 8, 69, 1
1, 76032, Note_on_c, 5, 45, 92
1, 76033, Note_on_c, 2, 78, 114
1, 76037, Note_on_c, 7, 62, 90
1, 76038, Note_on_c, 9, 35, 0
1, 76038, Note_on_c, 9, 42, 0
1, 76038, Note_on_c, 9, 51, 0
1, 76044, Note_on_c, 7, 66, 107
1, 76088, Note_on_c, 5, 67, 0
1, 76118, Note_on_c, 7, 66, 0
1, 76122, Note_on_c, 7, 62, 0
1, 76122, Note_on_c, 5, 55, 0
1, 76126, Note_on_c, 7, 57, 0
1, 76128, Note_on_c, 7, 66, 83
1, 76128, Note_on_c, 5, 54, 76
1, 76132, Note_on_c, 7, 62, 74
1, 76136, Note_on_c, 7, 57, 66
1, 76156, Note_on_c, 0, 38, 0
1, 76206, Note_on_c, 3, 69, 0
1, 76206, Note_on_c, 3, 78, 0
1, 76206, Note_on_c, 3, 66, 0
1, 76214, Note_on_c, 7, 57, 0
1, 76216, Note_on_c, 5, 45, 0
1, 76216, Note_on_c, 5, 54, 0
1, 76220, Note_on_c, 7, 62, 0
1, 76222, Note_on_c, 8, 69, 0
1, 76222, Note_on_c, 2, 78, 0
1, 76222, Note_on_c, 8, 78, 0
1, 76222, Note_on_c, 8, 66, 0
1, 76224, Note_on_c, 9, 35, 108
1, 76224, Note_on_c, 8, 76, 1
1, 76224, Note_on_c, 9, 42, 66
1, 76224, Note_on_c, 9, 51, 61
1, 76224, Note_on_c, 0, 38, 101
1, 76224, Note_on_c, 3, 64, 116
1, 76224, Note_on_c, 3, 69, 118
1, 76224, Note_on_c, 8, 64, 1
1, 76224, Note_on_c, 8, 69, 1
1, 76224, Note_on_c, 3, 76, 116
1, 76224, Note_on_c, 7, 57, 68
1, 76224, Note_on_c, 5, 54, 85
1, 76224, Note_on_c, 5, 45, 78
1, 76226, Note_on_c, 7, 66, 0
1, 76227, Lyric_t, "boys  "
1, 76229, Note_on_c, 7, 62, 75
1, 76229, Note_on_c, 2, 81, 111
1, 76230, Note_on_c, 9, 51, 0
1, 76230, Note_on_c, 9, 42, 0
1, 76230, Note_on_c, 9, 35, 0
1, 76236, Note_on_c, 7, 66, 88
1, 76310, Note_on_c, 7, 66, 0
1, 76314, Note_on_c, 7, 62, 0
1, 76318, Note_on_c, 7, 57, 0
1, 76320, Note_on_c, 7, 66, 93
1, 76324, Note_on_c, 7, 62, 82
1, 76328, Note_on_c, 7, 57, 74
1, 76398, Note_on_c, 3, 64, 0
1, 76398, Note_on_c, 3, 69, 0
1, 76398, Note_on_c, 3, 76, 0
1, 76400, Note_on_c, 2, 81, 0
1, 76408, Note_on_c, 7, 57, 0
1, 76408, Note_on_c, 7, 62, 0
1, 76408, Note_on_c, 5, 54, 0
1, 76414, Note_on_c, 8, 76, 0
1, 76414, Note_on_c, 7, 66, 0
1, 76414, Note_on_c, 8, 64, 0
1, 76414, Note_on_c, 8, 69, 0
1, 76416, Note_on_c, 3, 62, 108
1, 76416, Note_on_c, 9, 40, 98
1, 76416, Note_on_c, 8, 74, 1
1, 76416, Note_on_c, 8, 66, 1
1, 76416, Note_on_c, 5, 66, 101
1, 76416, Note_on_c, 3, 66, 112
1, 76416, Note_on_c, 8, 62, 1
1, 76416, Note_on_c, 5, 54, 103
1, 76416, Note_on_c, 9, 51, 56
1, 76416, Note_on_c, 9, 42, 85
1, 76416, Note_on_c, 5, 50, 97
1, 76416, Note_on_c, 7, 57, 84
1, 76416, Note_on_c, 3, 74, 116
1, 76419, Lyric_t, "and  "
1, 76421, Note_on_c, 7, 62, 92
1, 76421, Note_on_c, 2, 78, 110
1, 76422, Note_on_c, 9, 42, 0
1, 76422, Note_on_c, 9, 51, 0
1, 76422, Note_on_c, 9, 40, 0
1, 76428, Note_on_c, 7, 66, 107
1, 76576, Note_on_c, 3, 74, 0
1, 76576, Note_on_c, 3, 62, 0
1, 76576, Note_on_c, 3, 66, 0
1, 76598, Note_on_c, 7, 57, 0
1, 76598, Note_on_c, 2, 78, 0
1, 76604, Note_on_c, 7, 62, 0
1, 76606, Note_on_c, 8, 74, 0
1, 76606, Note_on_c, 8, 66, 0
1, 76606, Note_on_c, 8, 62, 0
1, 76608, Note_on_c, 9, 51, 54
1, 76608, Note_on_c, 3, 78, 115
1, 76608, Note_on_c, 8, 78, 1
1, 76608, Note_on_c, 3, 69, 111
1, 76608, Note_on_c, 8, 69, 1
1, 76608, Note_on_c, 8, 66, 1
1, 76608, Note_on_c, 9, 42, 67
1, 76608, Note_on_c, 7, 57, 74
1, 76608, Note_on_c, 3, 66, 114
1, 76610, Note_on_c, 7, 66, 0
1, 76611, Lyric_t, "kiss "
1, 76613, Note_on_c, 2, 83, 113
1, 76613, Note_on_c, 7, 62, 85
1, 76614, Note_on_c, 9, 42, 0
1, 76614, Note_on_c, 9, 51, 0
1, 76620, Note_on_c, 7, 66, 95
1, 76658, Note_on_c, 0, 38, 0
1, 76698, Note_on_c, 7, 62, 0
1, 76698, Note_on_c, 5, 45, 0
1, 76702, Note_on_c, 7, 57, 0
1, 76704, Note_on_c, 0, 38, 92
1, 76708, Note_on_c, 7, 62, 81
1, 76712, Note_on_c, 7, 57, 69
1, 76724, Note_on_c, 3, 66, 0
1, 76724, Note_on_c, 3, 78, 0
1, 76724, Note_on_c, 3, 69, 0
1, 76750, Note_on_c, 0, 38, 0
1, 76780, Note_on_c, 1, 66, 0
1, 76780, Note_on_c, 1, 50, 0
1, 76780, Note_on_c, 1, 62, 0
1, 76780, Note_on_c, 1, 57, 0
1, 76788, Note_on_c, 7, 62, 0
1, 76788, Note_on_c, 7, 57, 0
1, 76788, Note_on_c, 1, 64, 75
1, 76788, Note_on_c, 1, 52, 80
1, 76788, Note_on_c, 1, 57, 83
1, 76788, Note_on_c, 1, 61, 82
1, 76790, Note_on_c, 7, 66, 0
1, 76790, Note_on_c, 2, 83, 0
1, 76798, Note_on_c, 8, 69, 0
1, 76798, Note_on_c, 8, 66, 0
1, 76798, Note_on_c, 8, 78, 0
1, 76800, Note_on_c, 8, 76, 1
1, 76800, Note_on_c, 9, 35, 117
1, 76800, Note_on_c, 7, 57, 84
1, 76800, Note_on_c, 9, 51, 53
1, 76800, Note_on_c, 0, 33, 106
1, 76800, Note_on_c, 3, 76, 118
1, 76800, Note_on_c, 9, 42, 85
1, 76800, Note_on_c, 8, 64, 1
1, 76800, Note_on_c, 8, 69, 1
1, 76800, Note_on_c, 3, 64, 119
1, 76800, Note_on_c, 3, 69, 114
1, 76800, Note_on_c, 5, 45, 95
1, 76805, Note_on_c, 7, 61, 94
1, 76806, Note_on_c, 9, 42, 0
1, 76806, Note_on_c, 9, 35, 0
1, 76806, Note_on_c, 9, 51, 0
1, 76806, Lyric_t, "\015 "
1, 76806, Lyric_t, "es  "
1, 76808, Note_on_c, 2, 81, 115
1, 76810, Note_on_c, 5, 54, 0
1, 76810, Note_on_c, 5, 66, 0
1, 76810, Note_on_c, 5, 50, 0
1, 76812, Note_on_c, 7, 64, 99
1, 76982, Note_on_c, 7, 57, 0
1, 76984, Note_on_c, 5, 45, 0
1, 76988, Note_on_c, 7, 61, 0
1, 76992, Note_on_c, 5, 45, 101
1, 76992, Note_on_c, 9, 42, 68
1, 76992, Note_on_c, 9, 51, 54
1, 76992, Note_on_c, 7, 57, 77
1, 76994, Note_on_c, 7, 64, 0
1, 76997, Note_on_c, 7, 61, 86
1, 76998, Note_on_c, 9, 51, 0
1, 76998, Note_on_c, 9, 42, 0
1, 77004, Note_on_c, 7, 64, 96
1, 77078, Note_on_c, 3, 64, 0
1, 77078, Note_on_c, 8, 64, 0
1, 77088, Note_on_c, 8, 59, 1
1, 77088, Note_on_c, 3, 59, 101
1, 77174, Note_on_c, 3, 59, 0
1, 77174, Note_on_c, 8, 59, 0
1, 77174, Note_on_c, 7, 57, 0
1, 77180, Note_on_c, 7, 61, 0
1, 77184, Note_on_c, 5, 52, 97
1, 77184, Note_on_c, 7, 57, 89
1, 77184, Note_on_c, 8, 57, 1
1, 77184, Note_on_c, 9, 51, 53
1, 77184, Note_on_c, 5, 64, 104
1, 77184, Note_on_c, 9, 40, 94
1, 77184, Note_on_c, 9, 42, 91
1, 77184, Note_on_c, 5, 57, 102
1, 77184, Note_on_c, 3, 57, 113
1, 77186, Note_on_c, 7, 64, 0
1, 77189, Note_on_c, 7, 61, 95
1, 77190, Note_on_c, 9, 42, 0
1, 77190, Note_on_c, 9, 40, 0
1, 77190, Note_on_c, 9, 51, 0
1, 77196, Note_on_c, 7, 64, 109
1, 77366, Note_on_c, 7, 57, 0
1, 77372, Note_on_c, 7, 61, 0
1, 77376, Note_on_c, 9, 51, 56
1, 77376, Note_on_c, 9, 42, 63
1, 77376, Note_on_c, 7, 57, 70
1, 77378, Note_on_c, 7, 64, 0
1, 77381, Note_on_c, 7, 61, 82
1, 77382, Note_on_c, 9, 42, 0
1, 77382, Note_on_c, 9, 51, 0
1, 77388, Note_on_c, 7, 64, 90
1, 77444, Note_on_c, 0, 33, 0
1, 77466, Note_on_c, 7, 61, 0
1, 77466, Note_on_c, 5, 45, 0
1, 77470, Note_on_c, 7, 57, 0
1, 77472, Note_on_c, 0, 40, 103
1, 77472, Note_on_c, 9, 35, 91
1, 77476, Note_on_c, 7, 61, 78
1, 77478, Note_on_c, 9, 35, 0
1, 77480, Note_on_c, 7, 57, 71
1, 77532, Note_on_c, 0, 40, 0
1, 77544, Note_on_c, 2, 81, 0
1, 77550, Note_on_c, 5, 52, 0
1, 77554, Note_on_c, 7, 64, 0
1, 77556, Note_on_c, 7, 57, 0
1, 77564, Note_on_c, 7, 61, 0
1, 77568, Note_on_c, 9, 35, 122
1, 77568, Note_on_c, 0, 33, 107
1, 77568, Note_on_c, 9, 51, 58
1, 77568, Note_on_c, 9, 42, 86
1, 77568, Note_on_c, 7, 57, 86
1, 77568, Note_on_c, 5, 45, 93
1, 77573, Note_on_c, 7, 61, 92
1, 77574, Note_on_c, 9, 42, 0
1, 77574, Note_on_c, 9, 51, 0
1, 77574, Note_on_c, 9, 35, 0
1, 77580, Note_on_c, 7, 64, 105
1, 77624, Note_on_c, 5, 57, 0
1, 77624, Note_on_c, 5, 64, 0
1, 77654, Note_on_c, 7, 64, 0
1, 77658, Note_on_c, 7, 61, 0
1, 77662, Note_on_c, 7, 57, 0
1, 77664, Note_on_c, 7, 64, 79
1, 77668, Note_on_c, 7, 61, 72
1, 77672, Note_on_c, 7, 57, 61
1, 77688, Note_on_c, 0, 33, 0
1, 77750, Note_on_c, 7, 57, 0
1, 77752, Note_on_c, 5, 45, 0
1, 77756, Note_on_c, 7, 61, 0
1, 77760, Note_on_c, 5, 45, 88
1, 77760, Note_on_c, 0, 33, 109
1, 77760, Note_on_c, 7, 57, 71
1, 77760, Note_on_c, 9, 35, 103
1, 77760, Note_on_c, 9, 51, 57
1, 77760, Note_on_c, 9, 42, 66
1, 77762, Note_on_c, 7, 64, 0
1, 77765, Note_on_c, 7, 61, 82
1, 77766, Note_on_c, 9, 42, 0
1, 77766, Note_on_c, 9, 51, 0
1, 77766, Note_on_c, 9, 35, 0
1, 77772, Note_on_c, 7, 64, 89
1, 77846, Note_on_c, 7, 64, 0
1, 77850, Note_on_c, 7, 61, 0
1, 77854, Note_on_c, 7, 57, 0
1, 77856, Note_on_c, 7, 64, 92
1, 77860, Note_on_c, 7, 61, 80
1, 77864, Note_on_c, 7, 57, 75
1, 77942, Note_on_c, 3, 76, 0
1, 77942, Note_on_c, 3, 69, 0
1, 77942, Note_on_c, 8, 69, 0
1, 77942, Note_on_c, 8, 76, 0
1, 77942, Note_on_c, 3, 57, 0
1, 77944, Note_on_c, 7, 61, 0
1, 77944, Note_on_c, 7, 57, 0
1, 77950, Note_on_c, 8, 57, 0
1, 77950, Note_on_c, 7, 64, 0
1, 77952, Note_on_c, 9, 40, 90
1, 77952, Note_on_c, 9, 51, 59
1, 77952, Note_on_c, 5, 52, 99
1, 77952, Note_on_c, 9, 42, 84
1, 77952, Note_on_c, 5, 64, 101
1, 77952, Note_on_c, 5, 57, 100
1, 77952, Note_on_c, 7, 57, 88
1, 77957, Note_on_c, 7, 61, 95
1, 77958, Note_on_c, 9, 42, 0
1, 77958, Note_on_c, 9, 51, 0
1, 77958, Note_on_c, 9, 40, 0
1, 77964, Note_on_c, 7, 64, 104
1, 78020, Note_on_c, 0, 33, 0
1, 78048, Note_on_c, 0, 35, 103
1, 78134, Note_on_c, 7, 57, 0
1, 78136, Note_on_c, 5, 52, 0
1, 78136, Note_on_c, 5, 45, 0
1, 78140, Note_on_c, 7, 61, 0
1, 78144, Note_on_c, 5, 52, 73
1, 78144, Note_on_c, 9, 46, 62
1, 78144, Note_on_c, 9, 51, 59
1, 78144, Note_on_c, 5, 45, 73
1, 78144, Note_on_c, 7, 57, 76
1, 78146, Note_on_c, 7, 64, 0
1, 78149, Note_on_c, 7, 61, 82
1, 78150, Note_on_c, 9, 51, 0
1, 78150, Note_on_c, 9, 46, 0
1, 78156, Note_on_c, 7, 64, 90
1, 78210, Note_on_c, 5, 52, 0
1, 78210, Note_on_c, 5, 45, 0
1, 78234, Note_on_c, 7, 61, 0
1, 78238, Note_on_c, 7, 57, 0
1, 78240, Note_on_c, 5, 52, 74
1, 78240, Note_on_c, 5, 45, 67
1, 78244, Note_on_c, 7, 61, 79
1, 78248, Note_on_c, 7, 57, 68
1, 78306, Note_on_c, 5, 45, 0
1, 78306, Note_on_c, 5, 52, 0
1, 78314, Note_on_c, 0, 35, 0
1, 78316, Note_on_c, 1, 61, 0
1, 78316, Note_on_c, 1, 52, 0
1, 78316, Note_on_c, 1, 57, 0
1, 78316, Note_on_c, 1, 64, 0
1, 78324, Note_on_c, 7, 61, 0
1, 78324, Note_on_c, 7, 57, 0
1, 78324, Note_on_c, 1, 59, 76
1, 78324, Note_on_c, 1, 55, 79
1, 78324, Note_on_c, 1, 67, 79
1, 78324, Note_on_c, 1, 62, 75
1, 78326, Note_on_c, 7, 64, 0
1, 78328, Note_on_c, 5, 64, 0
1, 78328, Note_on_c, 5, 57, 0
1, 78336, Note_on_c, 9, 42, 85
1, 78336, Note_on_c, 0, 31, 108
1, 78336, Note_on_c, 8, 62, 1
1, 78336, Note_on_c, 7, 59, 89
1, 78336, Lyric_t, "got "
1, 78336, Note_on_c, 2, 74, 115
1, 78336, Note_on_c, 3, 62, 114
1, 78336, Note_on_c, 3, 67, 118
1, 78336, Note_on_c, 5, 43, 90
1, 78336, Note_on_c, 9, 49, 73
1, 78336, Note_on_c, 8, 67, 1
1, 78336, Note_on_c, 8, 74, 1
1, 78336, Note_on_c, 3, 74, 114
1, 78336, Note_on_c, 9, 51, 55
1, 78336, Note_on_c, 9, 35, 123
1, 78341, Note_on_c, 7, 62, 92
1, 78342, Note_on_c, 9, 35, 0
1, 78342, Note_on_c, 9, 51, 0
1, 78342, Note_on_c, 9, 49, 0
1, 78342, Note_on_c, 9, 42, 0
1, 78348, Note_on_c, 7, 67, 98
1, 78408, Note_on_c, 2, 74, 0
1, 78424, Note_on_c, 3, 74, 0
1, 78424, Note_on_c, 3, 67, 0
1, 78424, Note_on_c, 3, 62, 0
1, 78428, Lyric_t, "ta  "
1, 78429, Note_on_c, 2, 74, 111
1, 78430, Note_on_c, 8, 67, 0
1, 78430, Note_on_c, 8, 62, 0
1, 78430, Note_on_c, 8, 74, 0
1, 78432, Note_on_c, 3, 73, 106
1, 78432, Note_on_c, 8, 67, 1
1, 78432, Note_on_c, 3, 61, 107
1, 78432, Note_on_c, 8, 73, 1
1, 78432, Note_on_c, 8, 61, 1
1, 78432, Note_on_c, 3, 67, 107
1, 78502, Note_on_c, 2, 74, 0
1, 78510, Note_on_c, 3, 67, 0
1, 78510, Note_on_c, 3, 73, 0
1, 78510, Note_on_c, 3, 61, 0
1, 78518, Note_on_c, 7, 59, 0
1, 78520, Note_on_c, 5, 43, 0
1, 78521, Lyric_t, "find  "
1, 78524, Note_on_c, 7, 62, 0
1, 78524, Note_on_c, 2, 74, 113
1, 78526, Note_on_c, 8, 73, 0
1, 78526, Note_on_c, 8, 67, 0
1, 78526, Note_on_c, 8, 61, 0
1, 78528, Note_on_c, 8, 62, 1
1, 78528, Note_on_c, 3, 62, 106
1, 78528, Note_on_c, 9, 42, 68
1, 78528, Note_on_c, 7, 59, 75
1, 78528, Note_on_c, 8, 67, 1
1, 78528, Note_on_c, 3, 74, 110
1, 78528, Note_on_c, 5, 43, 85
1, 78528, Note_on_c, 8, 74, 1
1, 78528, Note_on_c, 3, 67, 108
1, 78528, Note_on_c, 9, 51, 60
1, 78530, Note_on_c, 7, 67, 0
1, 78533, Note_on_c, 7, 62, 84
1, 78534, Note_on_c, 9, 51, 0
1, 78534, Note_on_c, 9, 42, 0
1, 78540, Note_on_c, 7, 67, 92
1, 78602, Note_on_c, 2, 74, 0
1, 78616, Note_on_c, 3, 62, 0
1, 78616, Note_on_c, 3, 67, 0
1, 78616, Note_on_c, 3, 74, 0
1, 78617, Note_on_c, 2, 74, 114
1, 78617, Lyric_t, "my "
1, 78622, Note_on_c, 8, 62, 0
1, 78622, Note_on_c, 8, 67, 0
1, 78622, Note_on_c, 8, 74, 0
1, 78624, Note_on_c, 3, 67, 112
1, 78624, Note_on_c, 8, 67, 1
1, 78624, Note_on_c, 3, 61, 109
1, 78624, Note_on_c, 8, 61, 1
1, 78624, Note_on_c, 3, 73, 112
1, 78624, Note_on_c, 8, 73, 1
1, 78698, Note_on_c, 2, 74, 0
1, 78702, Note_on_c, 3, 67, 0
1, 78702, Note_on_c, 3, 73, 0
1, 78702, Note_on_c, 3, 61, 0
1, 78710, Note_on_c, 7, 59, 0
1, 78714, Note_on_c, 0, 31, 0
1, 78716, Note_on_c, 7, 62, 0
1, 78718, Note_on_c, 8, 73, 0
1, 78718, Note_on_c, 8, 67, 0
1, 78718, Note_on_c, 8, 61, 0
1, 78720, Note_on_c, 5, 67, 103
1, 78720, Note_on_c, 5, 50, 94
1, 78720, Note_on_c, 8, 62, 1
1, 78720, Note_on_c, 3, 67, 114
1, 78720, Note_on_c, 5, 55, 102
1, 78720, Lyric_t, "self  "
1, 78720, Note_on_c, 3, 74, 117
1, 78720, Note_on_c, 9, 42, 90
1, 78720, Note_on_c, 9, 51, 60
1, 78720, Note_on_c, 8, 74, 1
1, 78720, Note_on_c, 8, 67, 1
1, 78720, Note_on_c, 7, 59, 86
1, 78720, Note_on_c, 3, 62, 114
1, 78720, Lyric_t, "\015 "
1, 78720, Note_on_c, 9, 40, 96
1, 78721, Note_on_c, 2, 74, 115
1, 78722, Note_on_c, 7, 67, 0
1, 78725, Note_on_c, 7, 62, 94
1, 78726, Note_on_c, 9, 40, 0
1, 78726, Note_on_c, 9, 51, 0
1, 78726, Note_on_c, 9, 42, 0
1, 78732, Note_on_c, 7, 67, 101
1, 78816, Note_on_c, 0, 31, 89
1, 78850, Note_on_c, 0, 31, 0
1, 78882, Note_on_c, 2, 74, 0
1, 78894, Note_on_c, 3, 62, 0
1, 78894, Note_on_c, 3, 67, 0
1, 78894, Note_on_c, 3, 74, 0
1, 78902, Note_on_c, 7, 59, 0
1, 78904, Note_on_c, 5, 55, 0
1, 78904, Note_on_c, 5, 50, 0
1, 78908, Note_on_c, 7, 62, 0
1, 78912, Note_on_c, 9, 42, 68
1, 78912, Note_on_c, 3, 74, 115
1, 78912, Note_on_c, 3, 62, 111
1, 78912, Note_on_c, 0, 35, 81
1, 78912, Note_on_c, 5, 55, 72
1, 78912, Note_on_c, 5, 50, 72
1, 78912, Note_on_c, 9, 51, 60
1, 78912, Note_on_c, 3, 67, 115
1, 78912, Note_on_c, 7, 59, 70
1, 78914, Note_on_c, 7, 67, 0
1, 78915, Lyric_t, "ev "
1, 78917, Note_on_c, 2, 74, 109
1, 78917, Note_on_c, 7, 62, 81
1, 78918, Note_on_c, 9, 51, 0
1, 78918, Note_on_c, 9, 42, 0
1, 78924, Note_on_c, 7, 67, 96
1, 78978, Note_on_c, 0, 35, 0
1, 78994, Note_on_c, 5, 50, 0
1, 78994, Note_on_c, 5, 55, 0
1, 79000, Note_on_c, 3, 67, 0
1, 79000, Note_on_c, 3, 74, 0
1, 79000, Note_on_c, 3, 62, 0
1, 79002, Note_on_c, 7, 62, 0
1, 79002, Note_on_c, 5, 43, 0
1, 79006, Note_on_c, 7, 59, 0
1, 79006, Note_on_c, 8, 62, 0
1, 79006, Note_on_c, 2, 74, 0
1, 79006, Note_on_c, 8, 67, 0
1, 79006, Note_on_c, 8, 74, 0
1, 79008, Note_on_c, 3, 67, 107
1, 79008, Note_on_c, 8, 67, 1
1, 79008, Note_on_c, 3, 61, 103
1, 79008, Note_on_c, 0, 37, 85
1, 79008, Note_on_c, 5, 55, 63
1, 79008, Note_on_c, 9, 35, 91
1, 79008, Note_on_c, 8, 61, 1
1, 79008, Note_on_c, 5, 50, 71
1, 79008, Note_on_c, 3, 73, 105
1, 79008, Note_on_c, 8, 73, 1
1, 79011, Lyric_t, "ery  "
1, 79012, Note_on_c, 7, 62, 81
1, 79013, Note_on_c, 2, 73, 111
1, 79014, Note_on_c, 9, 35, 0
1, 79016, Note_on_c, 7, 59, 74
1, 79074, Note_on_c, 0, 37, 0
1, 79084, Note_on_c, 1, 67, 0
1, 79084, Note_on_c, 1, 55, 0
1, 79084, Note_on_c, 1, 62, 0
1, 79084, Note_on_c, 1, 59, 0
1, 79090, Note_on_c, 7, 67, 0
1, 79090, Note_on_c, 5, 55, 0
1, 79090, Note_on_c, 5, 50, 0
1, 79092, Note_on_c, 7, 59, 0
1, 79092, Note_on_c, 1, 62, 83
1, 79092, Note_on_c, 1, 50, 77
1, 79092, Note_on_c, 1, 57, 80
1, 79092, Note_on_c, 1, 66, 76
1, 79096, Note_on_c, 3, 61, 0
1, 79096, Note_on_c, 3, 67, 0
1, 79096, Note_on_c, 3, 73, 0
1, 79100, Note_on_c, 7, 62, 0
1, 79102, Note_on_c, 8, 67, 0
1, 79102, Note_on_c, 8, 61, 0
1, 79102, Note_on_c, 8, 73, 0
1, 79102, Note_on_c, 2, 73, 0
1, 79104, Note_on_c, 5, 45, 92
1, 79104, Note_on_c, 5, 55, 86
1, 79104, Note_on_c, 8, 74, 1
1, 79104, Note_on_c, 7, 57, 81
1, 79104, Note_on_c, 0, 38, 105
1, 79104, Note_on_c, 3, 74, 119
1, 79104, Note_on_c, 8, 66, 1
1, 79104, Note_on_c, 9, 42, 88
1, 79104, Note_on_c, 9, 35, 120
1, 79104, Note_on_c, 8, 62, 1
1, 79104, Note_on_c, 3, 66, 117
1, 79104, Note_on_c, 3, 62, 117
1, 79104, Note_on_c, 9, 51, 56
1, 79107, Lyric_t, "time  "
1, 79109, Note_on_c, 7, 62, 92
1, 79109, Note_on_c, 2, 74, 110
1, 79110, Note_on_c, 9, 51, 0
1, 79110, Note_on_c, 9, 35, 0
1, 79110, Note_on_c, 9, 42, 0
1, 79116, Note_on_c, 7, 66, 106
1, 79160, Note_on_c, 5, 67, 0
1, 79190, Note_on_c, 7, 66, 0
1, 79194, Note_on_c, 7, 62, 0
1, 79194, Note_on_c, 5, 55, 0
1, 79198, Note_on_c, 7, 57, 0
1, 79200, Note_on_c, 7, 66, 79
1, 79200, Note_on_c, 5, 54, 74
1, 79204, Note_on_c, 7, 62, 72
1, 79208, Note_on_c, 7, 57, 68
1, 79228, Note_on_c, 0, 38, 0
1, 79278, Note_on_c, 3, 66, 0
1, 79278, Note_on_c, 3, 62, 0
1, 79278, Note_on_c, 3, 74, 0
1, 79282, Note_on_c, 2, 74, 0
1, 79286, Note_on_c, 7, 57, 0
1, 79288, Note_on_c, 5, 54, 0
1, 79288, Note_on_c, 5, 45, 0
1, 79292, Note_on_c, 7, 62, 0
1, 79294, Note_on_c, 8, 74, 0
1, 79294, Note_on_c, 8, 62, 0
1, 79294, Note_on_c, 8, 66, 0
1, 79296, Note_on_c, 7, 57, 65
1, 79296, Note_on_c, 8, 73, 1
1, 79296, Note_on_c, 3, 73, 104
1, 79296, Note_on_c, 9, 42, 65
1, 79296, Note_on_c, 8, 64, 1
1, 79296, Note_on_c, 5, 54, 82
1, 79296, Note_on_c, 3, 61, 109
1, 79296, Note_on_c, 8, 61, 1
1, 79296, Note_on_c, 9, 35, 100
1, 79296, Note_on_c, 5, 45, 83
1, 79296, Note_on_c, 9, 51, 56
1, 79296, Note_on_c, 3, 64, 106
1, 79296, Note_on_c, 0, 38, 99
1, 79298, Note_on_c, 7, 66, 0
1, 79301, Note_on_c, 7, 62, 80
1, 79302, Note_on_c, 9, 51, 0
1, 79302, Note_on_c, 9, 42, 0
1, 79302, Note_on_c, 9, 35, 0
1, 79302, Lyric_t, "you  "
1, 79304, Note_on_c, 2, 74, 109
1, 79308, Note_on_c, 7, 66, 91
1, 79372, Note_on_c, 2, 74, 0
1, 79382, Note_on_c, 7, 66, 0
1, 79384, Note_on_c, 3, 64, 0
1, 79384, Note_on_c, 3, 73, 0
1, 79384, Note_on_c, 3, 61, 0
1, 79386, Note_on_c, 7, 62, 0
1, 79390, Note_on_c, 8, 64, 0
1, 79390, Note_on_c, 8, 61, 0
1, 79390, Note_on_c, 8, 73, 0
1, 79390, Note_on_c, 7, 57, 0
1, 79392, Note_on_c, 8, 62, 1
1, 79392, Note_on_c, 3, 62, 114
1, 79392, Note_on_c, 7, 66, 87
1, 79392, Note_on_c, 8, 74, 1
1, 79392, Note_on_c, 3, 66, 114
1, 79392, Note_on_c, 3, 74, 110
1, 79392, Note_on_c, 8, 66, 1
1, 79396, Note_on_c, 7, 62, 85
1, 79400, Note_on_c, 7, 57, 71
1, 79401, Lyric_t, "go  "
1, 79404, Note_on_c, 2, 71, 113
1, 79480, Note_on_c, 7, 57, 0
1, 79480, Note_on_c, 7, 62, 0
1, 79480, Note_on_c, 5, 54, 0
1, 79486, Note_on_c, 7, 66, 0
1, 79488, Note_on_c, 9, 51, 60
1, 79488, Note_on_c, 5, 66, 103
1, 79488, Note_on_c, 5, 50, 103
1, 79488, Note_on_c, 9, 40, 90
1, 79488, Note_on_c, 9, 42, 87
1, 79488, Note_on_c, 7, 57, 88
1, 79488, Note_on_c, 5, 54, 99
1, 79493, Note_on_c, 7, 62, 94
1, 79494, Note_on_c, 9, 42, 0
1, 79494, Note_on_c, 9, 40, 0
1, 79494, Note_on_c, 9, 51, 0
1, 79500, Note_on_c, 7, 66, 101
1, 79566, Note_on_c, 3, 62, 0
1, 79566, Note_on_c, 3, 66, 0
1, 79566, Note_on_c, 3, 74, 0
1, 79582, Note_on_c, 8, 62, 0
1, 79582, Note_on_c, 8, 66, 0
1, 79582, Note_on_c, 8, 74, 0
1, 79584, Note_on_c, 2, 71, 0
1, 79584, Note_on_c, 8, 64, 1
1, 79584, Note_on_c, 3, 69, 115
1, 79584, Note_on_c, 3, 64, 108
1, 79584, Note_on_c, 8, 69, 1
1, 79584, Note_on_c, 8, 76, 1
1, 79584, Note_on_c, 3, 76, 108
1, 79590, Lyric_t, "a "
1, 79592, Note_on_c, 2, 69, 111
1, 79670, Note_on_c, 7, 57, 0
1, 79672, Note_on_c, 3, 76, 0
1, 79672, Note_on_c, 3, 64, 0
1, 79672, Note_on_c, 3, 69, 0
1, 79676, Note_on_c, 7, 62, 0
1, 79678, Note_on_c, 8, 69, 0
1, 79678, Note_on_c, 8, 76, 0
1, 79678, Note_on_c, 8, 64, 0
1, 79680, Note_on_c, 2, 69, 0
1, 79680, Note_on_c, 8, 64, 1
1, 79680, Note_on_c, 9, 42, 68
1, 79680, Note_on_c, 8, 69, 1
1, 79680, Note_on_c, 8, 76, 1
1, 79680, Note_on_c, 3, 76, 115
1, 79680, Note_on_c, 7, 57, 76
1, 79680, Note_on_c, 3, 64, 113
1, 79680, Note_on_c, 3, 69, 109
1, 79680, Note_on_c, 9, 51, 58
1, 79682, Note_on_c, 7, 66, 0
1, 79685, Note_on_c, 7, 62, 81
1, 79686, Note_on_c, 9, 51, 0
1, 79686, Note_on_c, 9, 42, 0
1, 79686, Lyric_t, "\015 "
1, 79686, Lyric_t, "way.  "
1, 79688, Note_on_c, 2, 69, 111
1, 79692, Note_on_c, 7, 66, 90
1, 79730, Note_on_c, 0, 38, 0
1, 79770, Note_on_c, 7, 62, 0
1, 79770, Note_on_c, 5, 45, 0
1, 79774, Note_on_c, 7, 57, 0
1, 79776, Note_on_c, 0, 38, 96
1, 79780, Note_on_c, 7, 62, 74
1, 79784, Note_on_c, 7, 57, 67
1, 79822, Note_on_c, 0, 38, 0
1, 79852, Note_on_c, 1, 57, 0
1, 79852, Note_on_c, 1, 50, 0
1, 79852, Note_on_c, 1, 66, 0
1, 79852, Note_on_c, 1, 62, 0
1, 79860, Note_on_c, 7, 62, 0
1, 79860, Note_on_c, 7, 57, 0
1, 79860, Note_on_c, 2, 69, 0
1, 79860, Note_on_c, 1, 61, 82
1, 79860, Note_on_c, 1, 52, 81
1, 79860, Note_on_c, 1, 57, 75
1, 79860, Note_on_c, 1, 64, 82
1, 79862, Note_on_c, 7, 66, 0
1, 79872, Note_on_c, 9, 42, 87
1, 79872, Note_on_c, 7, 57, 88
1, 79872, Note_on_c, 5, 45, 96
1, 79872, Note_on_c, 0, 33, 113
1, 79872, Note_on_c, 9, 35, 117
1, 79872, Note_on_c, 9, 51, 55
1, 79877, Note_on_c, 7, 61, 95
1, 79878, Note_on_c, 9, 51, 0
1, 79878, Note_on_c, 9, 35, 0
1, 79878, Note_on_c, 9, 42, 0
1, 79882, Note_on_c, 5, 50, 0
1, 79882, Note_on_c, 5, 66, 0
1, 79882, Note_on_c, 5, 54, 0
1, 79884, Note_on_c, 7, 64, 102
1, 80054, Note_on_c, 7, 57, 0
1, 80056, Note_on_c, 5, 45, 0
1, 80060, Note_on_c, 7, 61, 0
1, 80064, Note_on_c, 5, 45, 94
1, 80064, Note_on_c, 9, 42, 71
1, 80064, Note_on_c, 9, 51, 58
1, 80064, Note_on_c, 7, 57, 74
1, 80066, Note_on_c, 7, 64, 0
1, 80069, Note_on_c, 7, 61, 89
1, 80070, Note_on_c, 9, 51, 0
1, 80070, Note_on_c, 9, 42, 0
1, 80076, Note_on_c, 7, 64, 99
1, 80246, Note_on_c, 7, 57, 0
1, 80252, Note_on_c, 7, 61, 0
1, 80256, Note_on_c, 9, 51, 55
1, 80256, Note_on_c, 7, 57, 84
1, 80256, Note_on_c, 5, 57, 100
1, 80256, Note_on_c, 5, 64, 96
1, 80256, Note_on_c, 5, 52, 99
1, 80256, Note_on_c, 9, 40, 98
1, 80256, Note_on_c, 9, 42, 84
1, 80258, Note_on_c, 7, 64, 0
1, 80261, Note_on_c, 7, 61, 102
1, 80262, Note_on_c, 9, 42, 0
1, 80262, Note_on_c, 9, 40, 0
1, 80262, Note_on_c, 9, 51, 0
1, 80268, Note_on_c, 7, 64, 108
1, 80438, Note_on_c, 7, 57, 0
1, 80444, Note_on_c, 7, 61, 0
1, 80448, Note_on_c, 9, 42, 63
1, 80448, Note_on_c, 9, 51, 57
1, 80448, Note_on_c, 7, 57, 70
1, 80450, Note_on_c, 7, 64, 0
1, 80453, Note_on_c, 7, 61, 80
1, 80454, Note_on_c, 9, 51, 0
1, 80454, Note_on_c, 9, 42, 0
1, 80460, Note_on_c, 7, 64, 91
1, 80516, Note_on_c, 0, 33, 0
1, 80538, Note_on_c, 7, 61, 0
1, 80538, Note_on_c, 5, 45, 0
1, 80542, Note_on_c, 7, 57, 0
1, 80544, Note_on_c, 9, 35, 92
1, 80544, Note_on_c, 0, 33, 98
1, 80548, Note_on_c, 7, 61, 82
1, 80550, Note_on_c, 9, 35, 0
1, 80552, Note_on_c, 7, 57, 70
1, 80604, Note_on_c, 0, 33, 0
1, 80622, Note_on_c, 5, 52, 0
1, 80626, Note_on_c, 7, 64, 0
1, 80628, Note_on_c, 7, 57, 0
1, 80636, Note_on_c, 7, 61, 0
1, 80640, Note_on_c, 9, 35, 120
1, 80640, Note_on_c, 0, 33, 108
1, 80640, Note_on_c, 5, 45, 88
1, 80640, Note_on_c, 9, 51, 55
1, 80640, Note_on_c, 7, 57, 86
1, 80640, Note_on_c, 9, 42, 87
1, 80645, Note_on_c, 7, 61, 97
1, 80646, Note_on_c, 9, 42, 0
1, 80646, Note_on_c, 9, 51, 0
1, 80646, Note_on_c, 9, 35, 0
1, 80652, Note_on_c, 7, 64, 101
1, 80652, Note_on_c, 7, 69, 96
1, 80696, Note_on_c, 5, 57, 0
1, 80696, Note_on_c, 5, 64, 0
1, 80726, Note_on_c, 7, 64, 0
1, 80729, Lyric_t, "Yeah "
1, 80730, Note_on_c, 7, 61, 0
1, 80732, Note_on_c, 2, 76, 113
1, 80734, Note_on_c, 7, 57, 0
1, 80736, Note_on_c, 7, 64, 88
1, 80740, Note_on_c, 7, 61, 76
1, 80744, Note_on_c, 7, 57, 68
1, 80760, Note_on_c, 0, 33, 0
1, 80822, Note_on_c, 7, 57, 0
1, 80824, Note_on_c, 5, 45, 0
1, 80828, Note_on_c, 7, 61, 0
1, 80832, Note_on_c, 9, 35, 104
1, 80832, Note_on_c, 5, 45, 84
1, 80832, Note_on_c, 7, 57, 69
1, 80832, Note_on_c, 0, 33, 109
1, 80832, Note_on_c, 9, 46, 66
1, 80832, Note_on_c, 9, 51, 54
1, 80834, Note_on_c, 7, 64, 0
1, 80837, Note_on_c, 7, 61, 78
1, 80838, Note_on_c, 9, 51, 0
1, 80838, Note_on_c, 9, 46, 0
1, 80838, Note_on_c, 9, 35, 0
1, 80844, Note_on_c, 7, 64, 84
1, 80918, Note_on_c, 7, 64, 0
1, 80920, Note_on_c, 7, 69, 0
1, 80922, Note_on_c, 7, 61, 0
1, 80926, Note_on_c, 7, 57, 0
1, 80928, Note_on_c, 7, 69, 96
1, 80928, Note_on_c, 7, 64, 98
1, 80930, Note_on_c, 2, 76, 0
1, 80932, Note_on_c, 7, 61, 92
1, 80936, Note_on_c, 7, 57, 89
1, 80937, Note_on_c, 2, 73, 114
1, 80937, Lyric_t, "eh  "
1, 81024, Note_on_c, 5, 57, 97
1, 81024, Note_on_c, 5, 52, 103
1, 81024, Note_on_c, 9, 40, 98
1, 81024, Note_on_c, 9, 42, 85
1, 81024, Note_on_c, 5, 64, 101
1, 81024, Note_on_c, 9, 57, 71
1, 81024, Note_on_c, 9, 51, 61
1, 81030, Note_on_c, 9, 51, 0
1, 81030, Note_on_c, 9, 42, 0
1, 81030, Note_on_c, 9, 40, 0
1, 81030, Note_on_c, 9, 57, 0
1, 81040, Note_on_c, 3, 64, 0
1, 81040, Note_on_c, 3, 69, 0
1, 81040, Note_on_c, 3, 76, 0
1, 81092, Note_on_c, 0, 33, 0
1, 81110, Note_on_c, 7, 64, 0
1, 81114, Note_on_c, 7, 61, 0
1, 81118, Note_on_c, 7, 57, 0
1, 81120, Note_on_c, 2, 73, 0
1, 81120, Note_on_c, 9, 47, 81
1, 81120, Note_on_c, 7, 64, 73
1, 81120, Note_on_c, 0, 33, 101
1, 81124, Note_on_c, 7, 61, 69
1, 81126, Note_on_c, 9, 47, 0
1, 81126, Lyric_t, "\015 "
1, 81126, Lyric_t, "yeah  "
1, 81128, Note_on_c, 7, 57, 58
1, 81128, Note_on_c, 2, 69, 112
1, 81206, Note_on_c, 7, 57, 0
1, 81208, Note_on_c, 5, 45, 0
1, 81208, Note_on_c, 5, 52, 0
1, 81212, Note_on_c, 7, 61, 0
1, 81216, Note_on_c, 9, 46, 65
1, 81216, Note_on_c, 5, 52, 71
1, 81216, Note_on_c, 7, 57, 71
1, 81216, Note_on_c, 5, 45, 70
1, 81216, Note_on_c, 9, 40, 71
1, 81216, Note_on_c, 9, 51, 60
1, 81216, Note_on_c, 9, 45, 83
1, 81218, Note_on_c, 7, 64, 0
1, 81220, Note_on_c, 7, 69, 0
1, 81221, Note_on_c, 7, 61, 88
1, 81222, Note_on_c, 9, 45, 0
1, 81222, Note_on_c, 9, 40, 0
1, 81222, Note_on_c, 9, 51, 0
1, 81222, Note_on_c, 9, 46, 0
1, 81228, Note_on_c, 7, 69, 79
1, 81228, Note_on_c, 7, 64, 89
1, 81282, Note_on_c, 5, 45, 0
1, 81282, Note_on_c, 5, 52, 0
1, 81310, Note_on_c, 7, 57, 0
1, 81312, Note_on_c, 5, 45, 72
1, 81312, Note_on_c, 9, 45, 67
1, 81312, Note_on_c, 5, 52, 74
1, 81318, Note_on_c, 9, 45, 0
1, 81320, Note_on_c, 7, 57, 54
1, 81378, Note_on_c, 5, 52, 0
1, 81378, Note_on_c, 5, 45, 0
1, 81386, Note_on_c, 0, 33, 0
1, 81388, Note_on_c, 1, 64, 0
1, 81388, Note_on_c, 1, 57, 0
1, 81388, Note_on_c, 1, 61, 0
1, 81388, Note_on_c, 1, 52, 0
1, 81396, Note_on_c, 7, 57, 0
1, 81396, Note_on_c, 1, 59, 60
1, 81396, Note_on_c, 1, 67, 60
1, 81396, Note_on_c, 1, 62, 61
1, 81398, Note_on_c, 7, 64, 0
1, 81398, Note_on_c, 7, 61, 0
1, 81398, Note_on_c, 7, 69, 0
1, 81400, Note_on_c, 5, 57, 0
1, 81400, Note_on_c, 5, 64, 0
1, 81406, Note_on_c, 8, 64, 0
1, 81406, Note_on_c, 8, 69, 0
1, 81406, Note_on_c, 8, 76, 0
1, 81408, Note_on_c, 0, 43, 104
1, 81408, Note_on_c, 7, 59, 86
1, 81408, Note_on_c, 9, 51, 37
1, 81408, Note_on_c, 9, 42, 47
1, 81409, Note_on_c, 6, 71, 110
1, 81409, Note_on_c, 6, 67, 104
1, 81412, Pitch_bend_c, 6, 0
1, 81413, Note_on_c, 7, 62, 101
1, 81414, Note_on_c, 9, 42, 0
1, 81414, Note_on_c, 9, 51, 0
1, 81420, Note_on_c, 7, 67, 105
1, 81448, Pitch_bend_c, 6, 768
1, 81461, Pitch_bend_c, 6, 4096
1, 81474, Note_on_c, 2, 69, 0
1, 81476, Pitch_bend_c, 6, 6400
1, 81489, Pitch_bend_c, 6, 8192
1, 81504, Note_on_c, 9, 42, 31
1, 81510, Note_on_c, 9, 42, 0
1, 81600, Note_on_c, 9, 51, 34
1, 81600, Note_on_c, 9, 42, 49
1, 81603, Lyric_t, "Why  "
1, 81604, Note_on_c, 6, 71, 0
1, 81604, Note_on_c, 2, 76, 111
1, 81604, Note_on_c, 6, 69, 112
1, 81606, Note_on_c, 9, 42, 0
1, 81606, Note_on_c, 9, 51, 0
1, 81610, Note_on_c, 6, 67, 0
1, 81696, Note_on_c, 9, 42, 28
1, 81702, Note_on_c, 9, 42, 0
1, 81774, Note_on_c, 2, 76, 0
1, 81782, Note_on_c, 7, 59, 0
1, 81788, Note_on_c, 7, 62, 0
1, 81792, Note_on_c, 9, 51, 35
1, 81792, Note_on_c, 7, 59, 90
1, 81792, Note_on_c, 9, 42, 50
1, 81794, Note_on_c, 7, 67, 0
1, 81795, Lyric_t, "do  "
1, 81797, Note_on_c, 2, 74, 110
1, 81797, Note_on_c, 7, 62, 99
1, 81798, Note_on_c, 9, 42, 0
1, 81798, Note_on_c, 9, 51, 0
1, 81804, Note_on_c, 7, 67, 102
1, 81888, Note_on_c, 9, 42, 28
1, 81890, Note_on_c, 2, 74, 0
1, 81894, Note_on_c, 9, 42, 0
1, 81897, Note_on_c, 2, 73, 112
1, 81897, Lyric_t, "I  "
1, 81974, Note_on_c, 7, 59, 0
1, 81980, Note_on_c, 7, 62, 0
1, 81984, Note_on_c, 9, 42, 44
1, 81984, Note_on_c, 7, 59, 75
1, 81984, Note_on_c, 9, 51, 35
1, 81986, Note_on_c, 7, 67, 0
1, 81989, Note_on_c, 7, 62, 88
1, 81990, Note_on_c, 9, 51, 0
1, 81990, Note_on_c, 9, 42, 0
1, 81996, Note_on_c, 7, 67, 94
1, 82050, Note_on_c, 0, 43, 0
1, 82074, Note_on_c, 7, 62, 0
1, 82078, Note_on_c, 7, 59, 0
1, 82080, Note_on_c, 9, 42, 31
1, 82080, Note_on_c, 0, 43, 90
1, 82084, Note_on_c, 2, 73, 0
1, 82084, Note_on_c, 7, 62, 85
1, 82086, Note_on_c, 9, 42, 0
1, 82088, Note_on_c, 7, 59, 77
1, 82089, Lyric_t, "keep  "
1, 82092, Note_on_c, 2, 74, 113
1, 82146, Note_on_c, 0, 43, 0
1, 82156, Note_on_c, 1, 59, 0
1, 82156, Note_on_c, 1, 67, 0
1, 82156, Note_on_c, 1, 62, 0
1, 82162, Note_on_c, 7, 67, 0
1, 82164, Note_on_c, 7, 59, 0
1, 82164, Note_on_c, 1, 57, 63
1, 82164, Note_on_c, 1, 66, 66
1, 82164, Note_on_c, 1, 62, 62
1, 82172, Note_on_c, 7, 62, 0
1, 82176, Note_on_c, 9, 42, 51
1, 82176, Note_on_c, 9, 51, 35
1, 82176, Note_on_c, 7, 57, 91
1, 82176, Note_on_c, 0, 42, 101
1, 82181, Note_on_c, 7, 62, 99
1, 82182, Note_on_c, 9, 51, 0
1, 82182, Note_on_c, 9, 42, 0
1, 82188, Note_on_c, 7, 66, 109
1, 82262, Note_on_c, 7, 66, 0
1, 82266, Note_on_c, 7, 62, 0
1, 82270, Note_on_c, 7, 57, 0
1, 82272, Note_on_c, 9, 42, 27
1, 82272, Note_on_c, 7, 66, 95
1, 82276, Note_on_c, 7, 62, 89
1, 82278, Note_on_c, 9, 42, 0
1, 82280, Note_on_c, 2, 74, 0
1, 82280, Note_on_c, 7, 57, 85
1, 82288, Note_on_c, 2, 73, 111
1, 82288, Lyric_t, "on  "
1, 82358, Note_on_c, 7, 57, 0
1, 82364, Note_on_c, 7, 62, 0
1, 82368, Note_on_c, 9, 51, 40
1, 82368, Note_on_c, 7, 57, 76
1, 82368, Note_on_c, 9, 42, 50
1, 82370, Note_on_c, 7, 66, 0
1, 82373, Note_on_c, 7, 62, 83
1, 82374, Note_on_c, 9, 42, 0
1, 82374, Note_on_c, 9, 51, 0
1, 82380, Note_on_c, 7, 66, 94
1, 82454, Note_on_c, 7, 66, 0
1, 82454, Note_on_c, 6, 69, 0
1, 82458, Note_on_c, 7, 62, 0
1, 82462, Note_on_c, 7, 57, 0
1, 82462, Note_on_c, 2, 73, 0
1, 82464, Note_on_c, 9, 42, 25
1, 82464, Note_on_c, 7, 66, 103
1, 82468, Note_on_c, 7, 62, 98
1, 82470, Note_on_c, 9, 42, 0
1, 82472, Note_on_c, 7, 57, 93
1, 82480, Note_on_c, 2, 74, 108
1, 82480, Lyric_t, "hold "
1, 82496, Pitch_bend_c, 6, 7680
1, 82509, Pitch_bend_c, 6, 6144
1, 82524, Pitch_bend_c, 6, 2304
1, 82537, Pitch_bend_c, 6, 0
1, 82560, Note_on_c, 9, 42, 50
1, 82560, Note_on_c, 6, 66, 115
1, 82560, Note_on_c, 9, 51, 37
1, 82566, Note_on_c, 9, 51, 0
1, 82566, Note_on_c, 9, 42, 0
1, 82585, Pitch_bend_c, 6, 128
1, 82601, Pitch_bend_c, 6, 5504
1, 82616, Pitch_bend_c, 6, 8192
1, 82646, Note_on_c, 7, 66, 0
1, 82650, Note_on_c, 7, 62, 0
1, 82654, Note_on_c, 7, 57, 0
1, 82656, Note_on_c, 9, 42, 33
1, 82656, Note_on_c, 7, 66, 89
1, 82660, Note_on_c, 7, 62, 82
1, 82660, Note_on_c, 6, 64, 109
1, 82662, Note_on_c, 9, 42, 0
1, 82662, Note_on_c, 6, 66, 0
1, 82662, Note_on_c, 2, 74, 0
1, 82664, Note_on_c, 7, 57, 70
1, 82668, Lyric_t, "ing  "
1, 82669, Note_on_c, 2, 73, 108
1, 82742, Note_on_c, 7, 57, 0
1, 82748, Note_on_c, 7, 62, 0
1, 82748, Note_on_c, 6, 64, 0
1, 82752, Note_on_c, 9, 42, 48
1, 82752, Note_on_c, 9, 51, 38
1, 82752, Note_on_c, 7, 57, 79
1, 82754, Note_on_c, 7, 66, 0
1, 82756, Note_on_c, 6, 62, 105
1, 82757, Note_on_c, 7, 62, 90
1, 82758, Note_on_c, 9, 51, 0
1, 82758, Note_on_c, 9, 42, 0
1, 82762, Note_on_c, 2, 73, 0
1, 82764, Note_on_c, 7, 66, 98
1, 82768, Lyric_t, "you  "
1, 82768, Lyric_t, "\015 "
1, 82769, Note_on_c, 2, 69, 109
1, 82818, Note_on_c, 0, 42, 0
1, 82838, Note_on_c, 7, 66, 0
1, 82842, Note_on_c, 7, 62, 0
1, 82846, Note_on_c, 7, 57, 0
1, 82848, Note_on_c, 7, 66, 90
1, 82848, Note_on_c, 9, 42, 31
1, 82848, Note_on_c, 0, 42, 89
1, 82852, Note_on_c, 7, 62, 87
1, 82854, Note_on_c, 9, 42, 0
1, 82856, Note_on_c, 7, 57, 76
1, 82914, Note_on_c, 0, 42, 0
1, 82924, Note_on_c, 1, 57, 0
1, 82924, Note_on_c, 1, 62, 0
1, 82924, Note_on_c, 1, 66, 0
1, 82926, Note_on_c, 2, 69, 0
1, 82926, Note_on_c, 6, 62, 0
1, 82932, Note_on_c, 7, 57, 0
1, 82932, Note_on_c, 7, 62, 0
1, 82932, Note_on_c, 7, 66, 0
1, 82932, Note_on_c, 1, 61, 68
1, 82932, Note_on_c, 1, 57, 60
1, 82932, Note_on_c, 1, 64, 66
1, 82944, Note_on_c, 9, 51, 40
1, 82944, Note_on_c, 9, 42, 45
1, 82944, Note_on_c, 0, 40, 109
1, 82944, Note_on_c, 7, 57, 90
1, 82949, Note_on_c, 7, 61, 98
1, 82949, Note_on_c, 6, 61, 104
1, 82950, Note_on_c, 9, 42, 0
1, 82950, Note_on_c, 9, 51, 0
1, 82956, Note_on_c, 7, 64, 103
1, 83040, Note_on_c, 9, 42, 25
1, 83046, Note_on_c, 9, 42, 0
1, 83122, Note_on_c, 6, 61, 0
1, 83136, Note_on_c, 9, 42, 47
1, 83136, Note_on_c, 9, 51, 37
1, 83137, Note_on_c, 6, 69, 120
1, 83139, Lyric_t, "when  "
1, 83140, Note_on_c, 2, 76, 113
1, 83142, Note_on_c, 9, 51, 0
1, 83142, Note_on_c, 9, 42, 0
1, 83232, Note_on_c, 9, 42, 29
1, 83238, Note_on_c, 9, 42, 0
1, 83310, Note_on_c, 2, 76, 0
1, 83318, Note_on_c, 7, 57, 0
1, 83324, Note_on_c, 7, 61, 0
1, 83328, Note_on_c, 9, 51, 40
1, 83328, Note_on_c, 9, 42, 52
1, 83328, Note_on_c, 7, 57, 86
1, 83330, Note_on_c, 7, 64, 0
1, 83331, Lyric_t, "all  "
1, 83333, Note_on_c, 2, 74, 111
1, 83333, Note_on_c, 7, 61, 100
1, 83334, Note_on_c, 9, 42, 0
1, 83334, Note_on_c, 9, 51, 0
1, 83340, Note_on_c, 7, 64, 110
1, 83424, Note_on_c, 9, 42, 33
1, 83426, Note_on_c, 2, 74, 0
1, 83430, Note_on_c, 9, 42, 0
1, 83433, Note_on_c, 2, 73, 112
1, 83433, Lyric_t, "you  "
1, 83520, Note_on_c, 9, 42, 45
1, 83520, Note_on_c, 9, 51, 36
1, 83526, Note_on_c, 9, 51, 0
1, 83526, Note_on_c, 9, 42, 0
1, 83606, Note_on_c, 7, 57, 0
1, 83616, Note_on_c, 9, 42, 32
1, 83620, Note_on_c, 2, 73, 0
1, 83622, Note_on_c, 9, 42, 0
1, 83624, Note_on_c, 7, 57, 69
1, 83625, Lyric_t, "do  "
1, 83628, Note_on_c, 2, 74, 113
1, 83700, Note_on_c, 7, 57, 0
1, 83700, Note_on_c, 7, 61, 0
1, 83706, Note_on_c, 7, 64, 0
1, 83712, Note_on_c, 9, 42, 45
1, 83712, Note_on_c, 9, 51, 40
1, 83712, Note_on_c, 7, 57, 93
1, 83717, Note_on_c, 7, 61, 99
1, 83718, Note_on_c, 9, 51, 0
1, 83718, Note_on_c, 9, 42, 0
1, 83724, Note_on_c, 7, 69, 96
1, 83724, Note_on_c, 7, 64, 108
1, 83798, Note_on_c, 7, 64, 0
1, 83802, Note_on_c, 7, 61, 0
1, 83806, Note_on_c, 7, 57, 0
1, 83808, Note_on_c, 7, 64, 95
1, 83808, Note_on_c, 9, 42, 27
1, 83812, Note_on_c, 7, 61, 89
1, 83814, Note_on_c, 9, 42, 0
1, 83816, Note_on_c, 2, 74, 0
1, 83816, Note_on_c, 7, 57, 78
1, 83824, Lyric_t, "is  "
1, 83824, Note_on_c, 2, 73, 112
1, 83894, Note_on_c, 7, 57, 0
1, 83900, Note_on_c, 7, 61, 0
1, 83904, Note_on_c, 9, 51, 37
1, 83904, Note_on_c, 7, 57, 76
1, 83904, Note_on_c, 9, 42, 45
1, 83906, Note_on_c, 7, 64, 0
1, 83909, Note_on_c, 7, 61, 79
1, 83910, Note_on_c, 9, 42, 0
1, 83910, Note_on_c, 9, 51, 0
1, 83916, Note_on_c, 7, 64, 94
1, 83990, Note_on_c, 7, 64, 0
1, 83992, Note_on_c, 7, 69, 0
1, 83994, Note_on_c, 7, 61, 0
1, 83998, Note_on_c, 7, 57, 0
1, 83998, Note_on_c, 2, 73, 0
1, 84000, Note_on_c, 7, 69, 100
1, 84000, Note_on_c, 9, 42, 26
1, 84000, Note_on_c, 7, 64, 110
1, 84004, Note_on_c, 7, 61, 96
1, 84006, Note_on_c, 9, 42, 0
1, 84008, Note_on_c, 7, 57, 89
1, 84016, Lyric_t, "hurt  "
1, 84016, Note_on_c, 2, 74, 107
1, 84096, Note_on_c, 9, 51, 43
1, 84096, Note_on_c, 9, 42, 51
1, 84102, Note_on_c, 9, 42, 0
1, 84102, Note_on_c, 9, 51, 0
1, 84182, Note_on_c, 7, 64, 0
1, 84186, Note_on_c, 7, 61, 0
1, 84188, Note_on_c, 2, 74, 0
1, 84190, Note_on_c, 7, 57, 0
1, 84192, Note_on_c, 9, 42, 29
1, 84192, Note_on_c, 7, 64, 93
1, 84195, Lyric_t, "\015 "
1, 84195, Lyric_t, "me?  "
1, 84196, Note_on_c, 2, 76, 110
1, 84196, Note_on_c, 7, 61, 84
1, 84198, Note_on_c, 9, 42, 0
1, 84200, Note_on_c, 7, 57, 72
1, 84262, Note_on_c, 0, 40, 0
1, 84278, Note_on_c, 7, 57, 0
1, 84280, Note_on_c, 6, 69, 0
1, 84284, Note_on_c, 7, 61, 0
1, 84288, Note_on_c, 0, 40, 96
1, 84288, Note_on_c, 7, 57, 78
1, 84288, Note_on_c, 6, 52, 98
1, 84288, Note_on_c, 9, 51, 39
1, 84288, Note_on_c, 9, 42, 48
1, 84290, Note_on_c, 7, 64, 0
1, 84292, Note_on_c, 7, 69, 0
1, 84293, Note_on_c, 7, 61, 89
1, 84294, Note_on_c, 9, 42, 0
1, 84294, Note_on_c, 9, 51, 0
1, 84300, Note_on_c, 7, 69, 84
1, 84300, Note_on_c, 7, 64, 99
1, 84372, Note_on_c, 0, 40, 0
1, 84382, Note_on_c, 7, 57, 0
1, 84384, Note_on_c, 6, 52, 0
1, 84384, Note_on_c, 9, 42, 27
1, 84384, Note_on_c, 0, 42, 81
1, 84388, Note_on_c, 6, 54, 92
1, 84390, Note_on_c, 9, 42, 0
1, 84392, Note_on_c, 7, 57, 62
1, 84460, Note_on_c, 1, 64, 0
1, 84460, Note_on_c, 2, 76, 0
1, 84460, Note_on_c, 1, 57, 0
1, 84460, Note_on_c, 1, 61, 0
1, 84468, Note_on_c, 0, 42, 0
1, 84468, Note_on_c, 7, 57, 0
1, 84468, Note_on_c, 1, 67, 64
1, 84468, Note_on_c, 1, 59, 62
1, 84468, Note_on_c, 1, 62, 68
1, 84470, Note_on_c, 7, 64, 0
1, 84470, Note_on_c, 7, 61, 0
1, 84470, Note_on_c, 7, 69, 0
1, 84476, Note_on_c, 6, 54, 0
1, 84480, Note_on_c, 9, 51, 34
1, 84480, Note_on_c, 6, 50, 84
1, 84480, Note_on_c, 9, 42, 45
1, 84480, Note_on_c, 0, 43, 104
1, 84480, Note_on_c, 7, 59, 88
1, 84484, Note_on_c, 6, 55, 110
1, 84485, Note_on_c, 7, 62, 96
1, 84486, Note_on_c, 9, 42, 0
1, 84486, Note_on_c, 9, 51, 0
1, 84492, Note_on_c, 7, 67, 106
1, 84576, Note_on_c, 9, 42, 27
1, 84582, Note_on_c, 9, 42, 0
1, 84672, Note_on_c, 9, 51, 38
1, 84672, Note_on_c, 9, 42, 51
1, 84675, Lyric_t, "All  "
1, 84676, Note_on_c, 2, 76, 111
1, 84678, Note_on_c, 9, 42, 0
1, 84678, Note_on_c, 9, 51, 0
1, 84734, Note_on_c, 2, 76, 0
1, 84768, Note_on_c, 9, 42, 28
1, 84771, Lyric_t, "my  "
1, 84772, Note_on_c, 2, 76, 109
1, 84774, Note_on_c, 9, 42, 0
1, 84830, Note_on_c, 2, 76, 0
1, 84854, Note_on_c, 7, 59, 0
1, 84860, Note_on_c, 7, 62, 0
1, 84864, Note_on_c, 9, 42, 47
1, 84864, Note_on_c, 7, 59, 87
1, 84864, Note_on_c, 9, 51, 40
1, 84866, Note_on_c, 7, 67, 0
1, 84867, Lyric_t, "friends  "
1, 84869, Note_on_c, 7, 62, 95
1, 84869, Note_on_c, 2, 74, 113
1, 84870, Note_on_c, 9, 51, 0
1, 84870, Note_on_c, 9, 42, 0
1, 84876, Note_on_c, 7, 67, 102
1, 84960, Note_on_c, 9, 42, 31
1, 84966, Note_on_c, 9, 42, 0
1, 85036, Note_on_c, 2, 74, 0
1, 85046, Note_on_c, 7, 59, 0
1, 85052, Note_on_c, 7, 62, 0
1, 85056, Note_on_c, 9, 51, 42
1, 85056, Note_on_c, 9, 42, 44
1, 85056, Note_on_c, 7, 59, 80
1, 85058, Note_on_c, 7, 67, 0
1, 85061, Note_on_c, 7, 62, 84
1, 85062, Note_on_c, 9, 42, 0
1, 85062, Note_on_c, 9, 51, 0
1, 85065, Lyric_t, "\015 "
1, 85065, Note_on_c, 2, 74, 111
1, 85065, Lyric_t, "say  "
1, 85068, Note_on_c, 7, 67, 100
1, 85122, Note_on_c, 0, 43, 0
1, 85138, Note_on_c, 2, 74, 0
1, 85146, Note_on_c, 7, 62, 0
1, 85150, Note_on_c, 6, 50, 0
1, 85150, Note_on_c, 7, 59, 0
1, 85152, Note_on_c, 9, 42, 27
1, 85152, Note_on_c, 0, 43, 92
1, 85154, Note_on_c, 6, 55, 0
1, 85156, Note_on_c, 7, 62, 88
1, 85157, Note_on_c, 6, 61, 97
1, 85158, Note_on_c, 9, 42, 0
1, 85160, Note_on_c, 7, 59, 78
1, 85161, Note_on_c, 2, 73, 108
1, 85161, Lyric_t, "that  "
1, 85218, Note_on_c, 0, 43, 0
1, 85228, Note_on_c, 1, 62, 0
1, 85228, Note_on_c, 1, 67, 0
1, 85228, Note_on_c, 1, 59, 0
1, 85234, Note_on_c, 7, 67, 0
1, 85236, Note_on_c, 7, 59, 0
1, 85236, Note_on_c, 1, 57, 61
1, 85236, Note_on_c, 1, 62, 67
1, 85236, Note_on_c, 1, 66, 63
1, 85244, Note_on_c, 7, 62, 0
1, 85248, Note_on_c, 7, 57, 90
1, 85248, Note_on_c, 0, 42, 108
1, 85248, Note_on_c, 9, 51, 40
1, 85248, Note_on_c, 9, 42, 53
1, 85252, Note_on_c, 2, 73, 0
1, 85253, Note_on_c, 7, 62, 95
1, 85254, Note_on_c, 9, 42, 0
1, 85254, Note_on_c, 9, 51, 0
1, 85257, Lyric_t, "I  "
1, 85260, Note_on_c, 7, 66, 105
1, 85260, Note_on_c, 6, 62, 109
1, 85260, Note_on_c, 2, 74, 114
1, 85266, Note_on_c, 6, 61, 0
1, 85334, Note_on_c, 7, 66, 0
1, 85338, Note_on_c, 7, 62, 0
1, 85342, Note_on_c, 7, 57, 0
1, 85344, Note_on_c, 9, 42, 27
1, 85344, Note_on_c, 7, 66, 99
1, 85348, Note_on_c, 7, 62, 90
1, 85350, Note_on_c, 9, 42, 0
1, 85352, Note_on_c, 7, 57, 83
1, 85430, Note_on_c, 7, 57, 0
1, 85434, Note_on_c, 6, 62, 0
1, 85436, Note_on_c, 7, 62, 0
1, 85440, Note_on_c, 9, 42, 51
1, 85440, Note_on_c, 7, 57, 75
1, 85440, Note_on_c, 9, 51, 34
1, 85442, Note_on_c, 7, 66, 0
1, 85445, Note_on_c, 7, 62, 84
1, 85446, Note_on_c, 9, 51, 0
1, 85446, Note_on_c, 9, 42, 0
1, 85448, Note_on_c, 2, 74, 0
1, 85448, Note_on_c, 6, 61, 104
1, 85452, Note_on_c, 7, 66, 94
1, 85456, Note_on_c, 2, 73, 109
1, 85456, Lyric_t, "should  "
1, 85526, Note_on_c, 7, 66, 0
1, 85530, Note_on_c, 7, 62, 0
1, 85534, Note_on_c, 7, 57, 0
1, 85534, Note_on_c, 2, 73, 0
1, 85536, Note_on_c, 7, 66, 110
1, 85536, Note_on_c, 9, 42, 31
1, 85540, Note_on_c, 7, 62, 100
1, 85542, Note_on_c, 9, 42, 0
1, 85542, Note_on_c, 6, 61, 0
1, 85544, Note_on_c, 7, 57, 90
1, 85545, Note_on_c, 6, 57, 111
1, 85552, Lyric_t, "let  "
1, 85552, Note_on_c, 2, 74, 110
1, 85632, Note_on_c, 9, 51, 40
1, 85632, Note_on_c, 9, 42, 45
1, 85638, Note_on_c, 9, 42, 0
1, 85638, Note_on_c, 9, 51, 0
1, 85714, Note_on_c, 6, 57, 0
1, 85718, Note_on_c, 7, 66, 0
1, 85722, Note_on_c, 7, 62, 0
1, 85726, Note_on_c, 7, 57, 0
1, 85728, Note_on_c, 9, 42, 28
1, 85728, Note_on_c, 7, 66, 87
1, 85732, Note_on_c, 7, 62, 86
1, 85733, Note_on_c, 6, 64, 94
1, 85734, Note_on_c, 9, 42, 0
1, 85734, Note_on_c, 2, 74, 0
1, 85736, Note_on_c, 7, 57, 69
1, 85740, Lyric_t, "you  "
1, 85741, Note_on_c, 2, 73, 110
1, 85814, Note_on_c, 7, 57, 0
1, 85820, Note_on_c, 7, 62, 0
1, 85824, Note_on_c, 7, 57, 78
1, 85824, Note_on_c, 9, 51, 37
1, 85824, Note_on_c, 9, 42, 52
1, 85826, Note_on_c, 7, 66, 0
1, 85829, Note_on_c, 7, 62, 88
1, 85830, Note_on_c, 9, 42, 0
1, 85830, Note_on_c, 6, 64, 0
1, 85830, Note_on_c, 9, 51, 0
1, 85832, Note_on_c, 6, 61, 107
1, 85834, Note_on_c, 2, 73, 0
1, 85836, Note_on_c, 7, 66, 100
1, 85840, Lyric_t, "go  "
1, 85840, Lyric_t, "\015 "
1, 85841, Note_on_c, 2, 69, 111
1, 85890, Note_on_c, 0, 42, 0
1, 85910, Note_on_c, 7, 66, 0
1, 85914, Note_on_c, 7, 62, 0
1, 85918, Note_on_c, 7, 57, 0
1, 85920, Note_on_c, 0, 42, 87
1, 85920, Note_on_c, 9, 42, 33
1, 85920, Note_on_c, 7, 66, 89
1, 85924, Note_on_c, 7, 62, 82
1, 85926, Note_on_c, 9, 42, 0
1, 85928, Note_on_c, 7, 57, 75
1, 85986, Note_on_c, 0, 42, 0
1, 85996, Note_on_c, 1, 66, 0
1, 85996, Note_on_c, 1, 62, 0
1, 85996, Note_on_c, 1, 57, 0
1, 86004, Note_on_c, 7, 62, 0
1, 86004, Note_on_c, 7, 57, 0
1, 86004, Note_on_c, 7, 66, 0
1, 86004, Note_on_c, 1, 61, 68
1, 86004, Note_on_c, 1, 64, 67
1, 86004, Note_on_c, 1, 52, 66
1, 86016, Note_on_c, 9, 51, 39
1, 86016, Note_on_c, 9, 42, 52
1, 86016, Note_on_c, 0, 45, 106
1, 86016, Note_on_c, 7, 57, 88
1, 86021, Note_on_c, 7, 61, 101
1, 86022, Note_on_c, 9, 42, 0
1, 86022, Note_on_c, 9, 51, 0
1, 86028, Note_on_c, 7, 64, 110
1, 86112, Note_on_c, 9, 42, 30
1, 86118, Note_on_c, 9, 42, 0
1, 86190, Note_on_c, 2, 69, 0
1, 86208, Note_on_c, 9, 42, 53
1, 86208, Note_on_c, 9, 51, 40
1, 86211, Lyric_t, "so  "
1, 86212, Note_on_c, 2, 76, 112
1, 86214, Note_on_c, 9, 51, 0
1, 86214, Note_on_c, 9, 42, 0
1, 86304, Note_on_c, 9, 42, 28
1, 86310, Note_on_c, 9, 42, 0
1, 86355, Lyric_t, "a "
1, 86382, Note_on_c, 2, 76, 0
1, 86390, Note_on_c, 7, 57, 0
1, 86396, Note_on_c, 7, 61, 0
1, 86400, Note_on_c, 7, 57, 89
1, 86400, Note_on_c, 9, 42, 45
1, 86400, Note_on_c, 9, 51, 38
1, 86402, Note_on_c, 7, 64, 0
1, 86405, Note_on_c, 2, 74, 111
1, 86405, Note_on_c, 7, 61, 98
1, 86406, Note_on_c, 9, 51, 0
1, 86406, Note_on_c, 9, 42, 0
1, 86412, Note_on_c, 7, 64, 106
1, 86464, Lyric_t, "fraid  "
1, 86496, Note_on_c, 9, 42, 32
1, 86502, Note_on_c, 9, 42, 0
1, 86592, Note_on_c, 9, 42, 51
1, 86592, Note_on_c, 9, 51, 38
1, 86594, Note_on_c, 2, 74, 0
1, 86598, Note_on_c, 9, 51, 0
1, 86598, Note_on_c, 9, 42, 0
1, 86601, Note_on_c, 2, 73, 111
1, 86601, Lyric_t, "that  "
1, 86658, Note_on_c, 0, 45, 0
1, 86678, Note_on_c, 7, 57, 0
1, 86688, Note_on_c, 0, 52, 88
1, 86688, Note_on_c, 9, 42, 27
1, 86692, Note_on_c, 2, 73, 0
1, 86694, Note_on_c, 9, 42, 0
1, 86696, Note_on_c, 7, 57, 74
1, 86697, Lyric_t, "I  "
1, 86700, Note_on_c, 2, 74, 111
1, 86772, Note_on_c, 7, 57, 0
1, 86772, Note_on_c, 7, 61, 0
1, 86776, Note_on_c, 0, 52, 0
1, 86778, Note_on_c, 7, 64, 0
1, 86784, Note_on_c, 9, 42, 50
1, 86784, Note_on_c, 7, 57, 86
1, 86784, Note_on_c, 9, 51, 38
1, 86789, Note_on_c, 7, 61, 97
1, 86790, Note_on_c, 9, 51, 0
1, 86790, Note_on_c, 9, 42, 0
1, 86796, Note_on_c, 7, 64, 112
1, 86796, Note_on_c, 7, 69, 101
1, 86870, Note_on_c, 7, 64, 0
1, 86874, Note_on_c, 7, 61, 0
1, 86878, Note_on_c, 7, 57, 0
1, 86880, Note_on_c, 9, 42, 29
1, 86880, Note_on_c, 0, 45, 80
1, 86880, Note_on_c, 7, 64, 102
1, 86884, Note_on_c, 7, 61, 93
1, 86886, Note_on_c, 9, 42, 0
1, 86888, Note_on_c, 2, 74, 0
1, 86888, Note_on_c, 7, 57, 81
1, 86896, Lyric_t, "might  "
1, 86896, Note_on_c, 2, 81, 109
1, 86966, Note_on_c, 7, 57, 0
1, 86968, Note_on_c, 0, 45, 0
1, 86972, Note_on_c, 7, 61, 0
1, 86976, Note_on_c, 0, 42, 90
1, 86976, Note_on_c, 7, 57, 77
1, 86976, Note_on_c, 9, 51, 41
1, 86976, Note_on_c, 9, 42, 52
1, 86978, Note_on_c, 7, 64, 0
1, 86981, Note_on_c, 7, 61, 87
1, 86982, Note_on_c, 9, 42, 0
1, 86982, Note_on_c, 9, 51, 0
1, 86988, Note_on_c, 7, 64, 89
1, 87054, Note_on_c, 0, 42, 0
1, 87062, Note_on_c, 7, 64, 0
1, 87064, Note_on_c, 7, 69, 0
1, 87066, Note_on_c, 7, 61, 0
1, 87070, Note_on_c, 2, 81, 0
1, 87070, Note_on_c, 7, 57, 0
1, 87072, Note_on_c, 9, 42, 24
1, 87072, Note_on_c, 7, 69, 102
1, 87072, Note_on_c, 7, 64, 111
1, 87072, Note_on_c, 0, 40, 88
1, 87076, Note_on_c, 7, 61, 103
1, 87078, Note_on_c, 9, 42, 0
1, 87080, Note_on_c, 7, 57, 92
1, 87088, Note_on_c, 2, 76, 108
1, 87088, Lyric_t, "\015 "
1, 87088, Lyric_t, "see.  "
1, 87168, Note_on_c, 9, 51, 41
1, 87168, Note_on_c, 9, 42, 53
1, 87174, Note_on_c, 9, 42, 0
1, 87174, Note_on_c, 9, 51, 0
1, 87194, Note_on_c, 6, 61, 0
1, 87252, Note_on_c, 0, 40, 0
1, 87254, Note_on_c, 7, 64, 0
1, 87258, Note_on_c, 7, 61, 0
1, 87262, Note_on_c, 7, 57, 0
1, 87264, Note_on_c, 0, 40, 92
1, 87264, Note_on_c, 9, 42, 32
1, 87264, Note_on_c, 7, 64, 93
1, 87268, Note_on_c, 7, 61, 85
1, 87270, Note_on_c, 9, 42, 0
1, 87272, Note_on_c, 7, 57, 69
1, 87342, Note_on_c, 0, 40, 0
1, 87350, Note_on_c, 7, 57, 0
1, 87356, Note_on_c, 7, 61, 0
1, 87360, Note_on_c, 9, 42, 51
1, 87360, Note_on_c, 7, 57, 76
1, 87360, Note_on_c, 0, 38, 100
1, 87360, Note_on_c, 9, 51, 35
1, 87362, Note_on_c, 7, 64, 0
1, 87364, Note_on_c, 7, 69, 0
1, 87365, Note_on_c, 7, 61, 91
1, 87366, Note_on_c, 9, 51, 0
1, 87366, Note_on_c, 9, 42, 0
1, 87372, Note_on_c, 7, 64, 95
1, 87372, Note_on_c, 7, 69, 91
1, 87448, Note_on_c, 0, 38, 0
1, 87454, Note_on_c, 7, 57, 0
1, 87456, Note_on_c, 0, 40, 79
1, 87456, Note_on_c, 9, 42, 31
1, 87462, Note_on_c, 9, 42, 0
1, 87464, Note_on_c, 7, 57, 65
1, 87532, Note_on_c, 1, 64, 0
1, 87532, Note_on_c, 1, 52, 0
1, 87532, Note_on_c, 1, 61, 0
1, 87540, Note_on_c, 7, 57, 0
1, 87540, Note_on_c, 1, 67, 68
1, 87540, Note_on_c, 1, 59, 63
1, 87540, Note_on_c, 1, 62, 60
1, 87542, Note_on_c, 7, 69, 0
1, 87542, Note_on_c, 7, 64, 0
1, 87542, Note_on_c, 7, 61, 0
1, 87544, Note_on_c, 0, 40, 0
1, 87552, Note_on_c, 9, 51, 39
1, 87552, Note_on_c, 0, 31, 106
1, 87552, Note_on_c, 7, 59, 87
1, 87552, Note_on_c, 9, 42, 49
1, 87553, Note_on_c, 6, 71, 116
1, 87553, Note_on_c, 6, 67, 99
1, 87556, Pitch_bend_c, 6, 0
1, 87557, Note_on_c, 7, 62, 99
1, 87558, Note_on_c, 9, 42, 0
1, 87558, Note_on_c, 9, 51, 0
1, 87558, Note_on_c, 2, 76, 0
1, 87564, Note_on_c, 7, 67, 105
1, 87592, Pitch_bend_c, 6, 768
1, 87605, Pitch_bend_c, 6, 4096
1, 87620, Pitch_bend_c, 6, 6400
1, 87633, Pitch_bend_c, 6, 8192
1, 87648, Note_on_c, 9, 42, 27
1, 87654, Note_on_c, 9, 42, 0
1, 87744, Note_on_c, 9, 42, 48
1, 87744, Note_on_c, 9, 51, 34
1, 87747, Lyric_t, "Can't  "
1, 87748, Note_on_c, 6, 71, 0
1, 87748, Note_on_c, 2, 76, 111
1, 87748, Note_on_c, 6, 69, 111
1, 87750, Note_on_c, 9, 51, 0
1, 87750, Note_on_c, 9, 42, 0
1, 87754, Note_on_c, 6, 67, 0
1, 87840, Note_on_c, 9, 42, 30
1, 87846, Note_on_c, 9, 42, 0
1, 87918, Note_on_c, 2, 76, 0
1, 87926, Note_on_c, 7, 59, 0
1, 87932, Note_on_c, 7, 62, 0
1, 87936, Note_on_c, 9, 42, 51
1, 87936, Note_on_c, 9, 51, 36
1, 87936, Note_on_c, 7, 59, 85
1, 87938, Note_on_c, 7, 67, 0
1, 87939, Lyric_t, "keep  "
1, 87941, Note_on_c, 7, 62, 103
1, 87941, Note_on_c, 2, 74, 110
1, 87942, Note_on_c, 9, 51, 0
1, 87942, Note_on_c, 9, 42, 0
1, 87948, Note_on_c, 7, 67, 103
1, 88032, Note_on_c, 9, 42, 30
1, 88034, Note_on_c, 2, 74, 0
1, 88038, Note_on_c, 9, 42, 0
1, 88041, Lyric_t, "on  "
1, 88041, Note_on_c, 2, 73, 112
1, 88118, Note_on_c, 7, 59, 0
1, 88124, Note_on_c, 7, 62, 0
1, 88128, Note_on_c, 9, 42, 50
1, 88128, Note_on_c, 7, 59, 75
1, 88128, Note_on_c, 9, 51, 43
1, 88130, Note_on_c, 7, 67, 0
1, 88133, Note_on_c, 7, 62, 89
1, 88134, Note_on_c, 9, 51, 0
1, 88134, Note_on_c, 9, 42, 0
1, 88140, Note_on_c, 7, 67, 96
1, 88198, Note_on_c, 0, 31, 0
1, 88218, Note_on_c, 7, 62, 0
1, 88222, Note_on_c, 7, 59, 0
1, 88224, Note_on_c, 9, 42, 27
1, 88224, Note_on_c, 0, 38, 109
1, 88228, Note_on_c, 2, 73, 0
1, 88228, Note_on_c, 7, 62, 81
1, 88230, Note_on_c, 9, 42, 0
1, 88232, Note_on_c, 7, 59, 73
1, 88233, Lyric_t, "liv "
1, 88236, Note_on_c, 2, 74, 113
1, 88300, Note_on_c, 1, 62, 0
1, 88300, Note_on_c, 1, 59, 0
1, 88300, Note_on_c, 1, 67, 0
1, 88306, Note_on_c, 7, 67, 0
1, 88308, Note_on_c, 7, 59, 0
1, 88308, Note_on_c, 1, 57, 62
1, 88308, Note_on_c, 1, 62, 65
1, 88308, Note_on_c, 1, 66, 60
1, 88316, Note_on_c, 7, 62, 0
1, 88320, Note_on_c, 9, 51, 37
1, 88320, Note_on_c, 7, 57, 94
1, 88320, Note_on_c, 9, 42, 47
1, 88325, Note_on_c, 7, 62, 96
1, 88326, Note_on_c, 9, 42, 0
1, 88326, Note_on_c, 9, 51, 0
1, 88332, Note_on_c, 7, 66, 109
1, 88406, Note_on_c, 7, 66, 0
1, 88410, Note_on_c, 7, 62, 0
1, 88414, Note_on_c, 7, 57, 0
1, 88416, Note_on_c, 9, 42, 25
1, 88416, Note_on_c, 7, 66, 99
1, 88420, Note_on_c, 7, 62, 89
1, 88422, Note_on_c, 9, 42, 0
1, 88424, Note_on_c, 2, 74, 0
1, 88424, Note_on_c, 7, 57, 78
1, 88432, Lyric_t, "ing  "
1, 88432, Note_on_c, 2, 73, 111
1, 88502, Note_on_c, 7, 57, 0
1, 88508, Note_on_c, 7, 62, 0
1, 88512, Note_on_c, 7, 57, 78
1, 88512, Note_on_c, 9, 42, 52
1, 88512, Note_on_c, 9, 51, 42
1, 88514, Note_on_c, 7, 66, 0
1, 88517, Note_on_c, 7, 62, 85
1, 88518, Note_on_c, 9, 51, 0
1, 88518, Note_on_c, 9, 42, 0
1, 88524, Note_on_c, 7, 66, 91
1, 88598, Note_on_c, 7, 66, 0
1, 88598, Note_on_c, 6, 69, 0
1, 88602, Note_on_c, 7, 62, 0
1, 88606, Note_on_c, 7, 57, 0
1, 88606, Note_on_c, 2, 73, 0
1, 88608, Note_on_c, 7, 66, 109
1, 88608, Note_on_c, 9, 42, 25
1, 88612, Note_on_c, 7, 62, 97
1, 88614, Note_on_c, 9, 42, 0
1, 88616, Note_on_c, 7, 57, 92
1, 88624, Lyric_t, "life  "
1, 88624, Note_on_c, 2, 74, 111
1, 88640, Pitch_bend_c, 6, 7680
1, 88653, Pitch_bend_c, 6, 6144
1, 88668, Pitch_bend_c, 6, 2304
1, 88681, Pitch_bend_c, 6, 0
1, 88704, Note_on_c, 9, 51, 39
1, 88704, Note_on_c, 9, 42, 52
1, 88704, Note_on_c, 6, 66, 113
1, 88710, Note_on_c, 9, 42, 0
1, 88710, Note_on_c, 9, 51, 0
1, 88729, Pitch_bend_c, 6, 128
1, 88745, Pitch_bend_c, 6, 5504
1, 88760, Pitch_bend_c, 6, 8192
1, 88790, Note_on_c, 7, 66, 0
1, 88794, Note_on_c, 7, 62, 0
1, 88798, Note_on_c, 7, 57, 0
1, 88800, Note_on_c, 7, 66, 91
1, 88800, Note_on_c, 9, 42, 33
1, 88804, Note_on_c, 6, 64, 102
1, 88804, Note_on_c, 7, 62, 80
1, 88806, Note_on_c, 9, 42, 0
1, 88806, Note_on_c, 2, 74, 0
1, 88806, Note_on_c, 6, 66, 0
1, 88808, Note_on_c, 7, 57, 77
1, 88812, Lyric_t, "like  "
1, 88813, Note_on_c, 2, 73, 111
1, 88886, Note_on_c, 7, 57, 0
1, 88892, Note_on_c, 6, 64, 0
1, 88892, Note_on_c, 7, 62, 0
1, 88896, Note_on_c, 9, 42, 49
1, 88896, Note_on_c, 7, 57, 80
1, 88896, Note_on_c, 9, 51, 35
1, 88898, Note_on_c, 7, 66, 0
1, 88900, Note_on_c, 6, 62, 99
1, 88901, Note_on_c, 7, 62, 85
1, 88902, Note_on_c, 9, 51, 0
1, 88902, Note_on_c, 9, 42, 0
1, 88906, Note_on_c, 2, 73, 0
1, 88908, Note_on_c, 7, 66, 100
1, 88912, Lyric_t, "this  "
1, 88912, Lyric_t, "\015 "
1, 88913, Note_on_c, 2, 69, 111
1, 88966, Note_on_c, 0, 38, 0
1, 88982, Note_on_c, 7, 66, 0
1, 88986, Note_on_c, 7, 62, 0
1, 88990, Note_on_c, 7, 57, 0
1, 88992, Note_on_c, 0, 38, 93
1, 88992, Note_on_c, 7, 66, 96
1, 88992, Note_on_c, 9, 42, 34
1, 88996, Note_on_c, 7, 62, 85
1, 88998, Note_on_c, 9, 42, 0
1, 89000, Note_on_c, 7, 57, 76
1, 89062, Note_on_c, 0, 38, 0
1, 89068, Note_on_c, 1, 66, 0
1, 89068, Note_on_c, 1, 62, 0
1, 89068, Note_on_c, 1, 57, 0
1, 89070, Note_on_c, 2, 69, 0
1, 89070, Note_on_c, 6, 62, 0
1, 89076, Note_on_c, 7, 57, 0
1, 89076, Note_on_c, 7, 66, 0
1, 89076, Note_on_c, 7, 62, 0
1, 89076, Note_on_c, 1, 61, 64
1, 89076, Note_on_c, 1, 64, 60
1, 89076, Note_on_c, 1, 57, 64
1, 89088, Note_on_c, 0, 40, 100
1, 89088, Note_on_c, 9, 42, 47
1, 89088, Note_on_c, 9, 51, 35
1, 89088, Note_on_c, 7, 57, 90
1, 89093, Note_on_c, 7, 61, 100
1, 89093, Note_on_c, 6, 61, 99
1, 89094, Note_on_c, 9, 51, 0
1, 89094, Note_on_c, 9, 42, 0
1, 89100, Note_on_c, 7, 64, 105
1, 89176, Note_on_c, 0, 40, 0
1, 89184, Note_on_c, 9, 42, 29
1, 89184, Note_on_c, 0, 33, 93
1, 89190, Note_on_c, 9, 42, 0
1, 89246, Note_on_c, 0, 33, 0
1, 89266, Note_on_c, 6, 61, 0
1, 89280, Note_on_c, 9, 51, 34
1, 89280, Note_on_c, 9, 42, 45
1, 89280, Note_on_c, 0, 33, 93
1, 89281, Note_on_c, 6, 69, 121
1, 89283, Lyric_t, "up  "
1, 89284, Note_on_c, 2, 73, 106
1, 89286, Note_on_c, 9, 42, 0
1, 89286, Note_on_c, 9, 51, 0
1, 89312, Note_on_c, 2, 73, 0
1, 89376, Note_on_c, 2, 73, 106
1, 89376, Note_on_c, 9, 42, 29
1, 89376, Lyric_t, "and  "
1, 89382, Note_on_c, 9, 42, 0
1, 89418, Note_on_c, 2, 73, 0
1, 89462, Note_on_c, 7, 57, 0
1, 89468, Note_on_c, 7, 61, 0
1, 89472, Note_on_c, 9, 51, 36
1, 89472, Note_on_c, 7, 57, 91
1, 89472, Note_on_c, 9, 42, 47
1, 89474, Note_on_c, 7, 64, 0
1, 89475, Lyric_t, "down  "
1, 89476, Note_on_c, 2, 74, 111
1, 89477, Note_on_c, 7, 61, 97
1, 89478, Note_on_c, 9, 42, 0
1, 89478, Note_on_c, 9, 51, 0
1, 89484, Note_on_c, 7, 64, 105
1, 89568, Note_on_c, 9, 42, 27
1, 89574, Note_on_c, 9, 42, 0
1, 89664, Note_on_c, 9, 51, 42
1, 89664, Note_on_c, 9, 42, 44
1, 89666, Note_on_c, 2, 74, 0
1, 89667, Lyric_t, "in  "
1, 89670, Note_on_c, 9, 42, 0
1, 89670, Note_on_c, 9, 51, 0
1, 89673, Note_on_c, 2, 73, 105
1, 89750, Note_on_c, 7, 57, 0
1, 89753, Lyric_t, "and  "
1, 89760, Note_on_c, 2, 73, 0
1, 89760, Note_on_c, 9, 42, 27
1, 89766, Note_on_c, 9, 42, 0
1, 89768, Note_on_c, 7, 57, 66
1, 89772, Note_on_c, 2, 74, 107
1, 89843, Lyric_t, "out  "
1, 89844, Note_on_c, 7, 57, 0
1, 89844, Note_on_c, 7, 61, 0
1, 89850, Note_on_c, 7, 64, 0
1, 89856, Note_on_c, 9, 42, 46
1, 89856, Note_on_c, 7, 57, 94
1, 89856, Note_on_c, 9, 51, 39
1, 89861, Note_on_c, 7, 61, 98
1, 89862, Note_on_c, 9, 51, 0
1, 89862, Note_on_c, 9, 42, 0
1, 89868, Note_on_c, 7, 64, 105
1, 89868, Note_on_c, 7, 69, 102
1, 89942, Note_on_c, 7, 64, 0
1, 89946, Note_on_c, 7, 61, 0
1, 89950, Note_on_c, 7, 57, 0
1, 89952, Note_on_c, 9, 42, 29
1, 89952, Note_on_c, 7, 64, 97
1, 89956, Note_on_c, 7, 61, 86
1, 89958, Note_on_c, 9, 42, 0
1, 89960, Note_on_c, 7, 57, 79
1, 90038, Note_on_c, 7, 57, 0
1, 90040, Note_on_c, 0, 33, 0
1, 90040, Note_on_c, 2, 74, 0
1, 90044, Note_on_c, 7, 61, 0
1, 90048, Note_on_c, 7, 57, 74
1, 90048, Note_on_c, 9, 51, 40
1, 90048, Note_on_c, 9, 42, 51
1, 90048, Note_on_c, 0, 33, 98
1, 90050, Note_on_c, 7, 64, 0
1, 90051, Lyric_t, "I  "
1, 90052, Note_on_c, 2, 73, 106
1, 90053, Note_on_c, 7, 61, 85
1, 90054, Note_on_c, 9, 42, 0
1, 90054, Note_on_c, 9, 51, 0
1, 90060, Note_on_c, 7, 64, 90
1, 90130, Note_on_c, 0, 33, 0
1, 90134, Note_on_c, 7, 64, 0
1, 90136, Note_on_c, 7, 69, 0
1, 90138, Note_on_c, 7, 61, 0
1, 90142, Note_on_c, 2, 73, 0
1, 90142, Note_on_c, 7, 57, 0
1, 90144, Note_on_c, 7, 64, 103
1, 90144, Note_on_c, 0, 35, 92
1, 90144, Note_on_c, 7, 69, 101
1, 90144, Note_on_c, 9, 42, 28
1, 90148, Note_on_c, 7, 61, 98
1, 90150, Note_on_c, 9, 42, 0
1, 90150, Lyric_t, "won "
1, 90152, Note_on_c, 7, 57, 92
1, 90152, Note_on_c, 2, 74, 108
1, 90228, Note_on_c, 0, 35, 0
1, 90240, Note_on_c, 9, 51, 44
1, 90240, Note_on_c, 0, 38, 91
1, 90240, Note_on_c, 9, 42, 50
1, 90246, Note_on_c, 9, 42, 0
1, 90246, Note_on_c, 9, 51, 0
1, 90326, Note_on_c, 7, 64, 0
1, 90330, Note_on_c, 7, 61, 0
1, 90332, Note_on_c, 2, 74, 0
1, 90334, Note_on_c, 7, 57, 0
1, 90336, Note_on_c, 7, 64, 90
1, 90336, Note_on_c, 9, 42, 26
1, 90339, Lyric_t, "\015 "
1, 90339, Lyric_t, "der  "
1, 90340, Note_on_c, 7, 61, 86
1, 90340, Note_on_c, 2, 76, 111
1, 90342, Note_on_c, 9, 42, 0
1, 90344, Note_on_c, 7, 57, 69
1, 90420, Note_on_c, 0, 38, 0
1, 90422, Note_on_c, 7, 57, 0
1, 90424, Note_on_c, 6, 69, 0
1, 90428, Note_on_c, 7, 61, 0
1, 90432, Note_on_c, 7, 57, 77
1, 90432, Note_on_c, 0, 38, 101
1, 90432, Note_on_c, 9, 42, 47
1, 90432, Note_on_c, 9, 51, 39
1, 90432, Note_on_c, 6, 52, 94
1, 90434, Note_on_c, 7, 64, 0
1, 90436, Note_on_c, 7, 69, 0
1, 90437, Note_on_c, 7, 61, 93
1, 90438, Note_on_c, 9, 51, 0
1, 90438, Note_on_c, 9, 42, 0
1, 90444, Note_on_c, 7, 69, 91
1, 90444, Note_on_c, 7, 64, 97
1, 90514, Note_on_c, 0, 38, 0
1, 90526, Note_on_c, 7, 57, 0
1, 90528, Note_on_c, 6, 52, 0
1, 90528, Note_on_c, 9, 42, 35
1, 90528, Note_on_c, 0, 40, 93
1, 90532, Note_on_c, 6, 54, 86
1, 90534, Note_on_c, 9, 42, 0
1, 90536, Note_on_c, 7, 57, 60
1, 90604, Note_on_c, 1, 61, 0
1, 90604, Note_on_c, 1, 57, 0
1, 90604, Note_on_c, 2, 76, 0
1, 90604, Note_on_c, 1, 64, 0
1, 90612, Note_on_c, 0, 40, 0
1, 90612, Note_on_c, 7, 57, 0
1, 90612, Note_on_c, 1, 62, 64
1, 90612, Note_on_c, 1, 67, 65
1, 90612, Note_on_c, 1, 59, 68
1, 90614, Note_on_c, 7, 64, 0
1, 90614, Note_on_c, 7, 61, 0
1, 90614, Note_on_c, 7, 69, 0
1, 90620, Note_on_c, 6, 54, 0
1, 90624, Note_on_c, 6, 50, 76
1, 90624, Note_on_c, 9, 51, 40
1, 90624, Note_on_c, 0, 43, 99
1, 90624, Note_on_c, 9, 42, 48
1, 90624, Note_on_c, 7, 59, 91
1, 90628, Note_on_c, 6, 55, 115
1, 90629, Note_on_c, 7, 62, 102
1, 90630, Note_on_c, 9, 42, 0
1, 90630, Note_on_c, 9, 51, 0
1, 90636, Note_on_c, 7, 67, 107
1, 90720, Note_on_c, 9, 42, 30
1, 90726, Note_on_c, 9, 42, 0
1, 90816, Note_on_c, 9, 42, 49
1, 90816, Note_on_c, 9, 51, 40
1, 90819, Lyric_t, "is  "
1, 90820, Note_on_c, 2, 76, 113
1, 90822, Note_on_c, 9, 51, 0
1, 90822, Note_on_c, 9, 42, 0
1, 90862, Note_on_c, 2, 76, 0
1, 90900, Note_on_c, 0, 43, 0
1, 90912, Note_on_c, 0, 43, 92
1, 90912, Note_on_c, 9, 42, 26
1, 90915, Lyric_t, "this  "
1, 90916, Note_on_c, 2, 76, 109
1, 90918, Note_on_c, 9, 42, 0
1, 90958, Note_on_c, 2, 76, 0
1, 90978, Note_on_c, 0, 43, 0
1, 90998, Note_on_c, 7, 59, 0
1, 91004, Note_on_c, 7, 62, 0
1, 91008, Note_on_c, 9, 42, 45
1, 91008, Note_on_c, 9, 51, 40
1, 91008, Note_on_c, 0, 47, 94
1, 91008, Note_on_c, 7, 59, 86
1, 91010, Note_on_c, 7, 67, 0
1, 91011, Lyric_t, "world  "
1, 91013, Note_on_c, 7, 62, 101
1, 91013, Note_on_c, 2, 74, 114
1, 91014, Note_on_c, 9, 51, 0
1, 91014, Note_on_c, 9, 42, 0
1, 91020, Note_on_c, 7, 67, 108
1, 91092, Note_on_c, 0, 47, 0
1, 91104, Note_on_c, 0, 50, 95
1, 91104, Note_on_c, 9, 42, 25
1, 91110, Note_on_c, 9, 42, 0
1, 91180, Note_on_c, 2, 74, 0
1, 91190, Note_on_c, 7, 59, 0
1, 91196, Note_on_c, 7, 62, 0
1, 91200, Note_on_c, 9, 51, 38
1, 91200, Note_on_c, 7, 59, 77
1, 91200, Note_on_c, 9, 42, 44
1, 91202, Note_on_c, 7, 67, 0
1, 91205, Note_on_c, 7, 62, 83
1, 91206, Note_on_c, 9, 42, 0
1, 91206, Note_on_c, 9, 51, 0
1, 91209, Note_on_c, 2, 73, 109
1, 91209, Lyric_t, "just  "
1, 91212, Note_on_c, 7, 67, 97
1, 91260, Note_on_c, 2, 73, 0
1, 91262, Note_on_c, 0, 50, 0
1, 91290, Note_on_c, 7, 62, 0
1, 91294, Note_on_c, 7, 59, 0
1, 91294, Note_on_c, 6, 50, 0
1, 91296, Note_on_c, 9, 42, 31
1, 91296, Note_on_c, 0, 52, 87
1, 91298, Note_on_c, 6, 55, 0
1, 91300, Note_on_c, 7, 62, 83
1, 91301, Note_on_c, 6, 61, 100
1, 91302, Note_on_c, 9, 42, 0
1, 91304, Note_on_c, 7, 59, 79
1, 91305, Lyric_t, "a  "
1, 91305, Note_on_c, 2, 73, 112
1, 91356, Note_on_c, 2, 73, 0
1, 91372, Note_on_c, 1, 62, 0
1, 91372, Note_on_c, 1, 59, 0
1, 91372, Note_on_c, 1, 67, 0
1, 91378, Note_on_c, 7, 67, 0
1, 91380, Note_on_c, 7, 59, 0
1, 91380, Note_on_c, 0, 52, 0
1, 91380, Note_on_c, 1, 66, 61
1, 91380, Note_on_c, 1, 57, 64
1, 91380, Note_on_c, 1, 62, 64
1, 91388, Note_on_c, 7, 62, 0
1, 91392, Note_on_c, 0, 54, 86
1, 91392, Note_on_c, 9, 42, 51
1, 91392, Note_on_c, 7, 57, 86
1, 91392, Note_on_c, 9, 51, 37
1, 91397, Note_on_c, 7, 62, 95
1, 91398, Note_on_c, 9, 51, 0
1, 91398, Note_on_c, 9, 42, 0
1, 91401, Lyric_t, "cow "
1, 91404, Note_on_c, 7, 66, 111
1, 91404, Note_on_c, 2, 74, 112
1, 91404, Note_on_c, 6, 62, 103
1, 91410, Note_on_c, 6, 61, 0
1, 91478, Note_on_c, 7, 66, 0
1, 91482, Note_on_c, 7, 62, 0
1, 91486, Note_on_c, 7, 57, 0
1, 91488, Note_on_c, 9, 42, 32
1, 91488, Note_on_c, 7, 66, 100
1, 91492, Note_on_c, 7, 62, 87
1, 91494, Note_on_c, 9, 42, 0
1, 91496, Note_on_c, 7, 57, 84
1, 91550, Note_on_c, 0, 54, 0
1, 91574, Note_on_c, 7, 57, 0
1, 91578, Note_on_c, 6, 62, 0
1, 91580, Note_on_c, 7, 62, 0
1, 91584, Note_on_c, 9, 51, 37
1, 91584, Note_on_c, 7, 57, 78
1, 91584, Note_on_c, 0, 38, 82
1, 91584, Note_on_c, 9, 42, 52
1, 91586, Note_on_c, 7, 66, 0
1, 91589, Note_on_c, 7, 62, 79
1, 91590, Note_on_c, 9, 42, 0
1, 91590, Note_on_c, 9, 51, 0
1, 91592, Note_on_c, 2, 74, 0
1, 91592, Note_on_c, 6, 61, 108
1, 91596, Note_on_c, 7, 66, 94
1, 91600, Note_on_c, 2, 73, 109
1, 91600, Lyric_t, "boy  "
1, 91670, Note_on_c, 7, 66, 0
1, 91674, Note_on_c, 7, 62, 0
1, 91678, Note_on_c, 2, 73, 0
1, 91678, Note_on_c, 7, 57, 0
1, 91680, Note_on_c, 7, 66, 111
1, 91680, Note_on_c, 9, 42, 26
1, 91684, Note_on_c, 7, 62, 100
1, 91686, Note_on_c, 9, 42, 0
1, 91686, Note_on_c, 6, 61, 0
1, 91688, Note_on_c, 7, 57, 89
1, 91689, Note_on_c, 6, 57, 112
1, 91696, Lyric_t, "and  "
1, 91696, Note_on_c, 2, 74, 110
1, 91776, Note_on_c, 9, 42, 52
1, 91776, Note_on_c, 9, 51, 41
1, 91782, Note_on_c, 9, 51, 0
1, 91782, Note_on_c, 9, 42, 0
1, 91858, Note_on_c, 6, 57, 0
1, 91862, Note_on_c, 7, 66, 0
1, 91866, Note_on_c, 7, 62, 0
1, 91870, Note_on_c, 7, 57, 0
1, 91872, Note_on_c, 7, 66, 88
1, 91872, Note_on_c, 9, 42, 31
1, 91876, Note_on_c, 7, 62, 81
1, 91877, Note_on_c, 6, 64, 95
1, 91878, Note_on_c, 9, 42, 0
1, 91878, Note_on_c, 2, 74, 0
1, 91880, Note_on_c, 7, 57, 72
1, 91884, Lyric_t, "a  "
1, 91885, Note_on_c, 2, 73, 111
1, 91956, Note_on_c, 0, 38, 0
1, 91958, Note_on_c, 7, 57, 0
1, 91964, Note_on_c, 7, 62, 0
1, 91968, Note_on_c, 0, 38, 82
1, 91968, Note_on_c, 9, 51, 40
1, 91968, Note_on_c, 9, 42, 48
1, 91968, Note_on_c, 7, 57, 80
1, 91970, Note_on_c, 7, 66, 0
1, 91973, Note_on_c, 7, 62, 88
1, 91974, Note_on_c, 9, 42, 0
1, 91974, Note_on_c, 9, 51, 0
1, 91974, Note_on_c, 6, 64, 0
1, 91976, Note_on_c, 6, 61, 112
1, 91978, Note_on_c, 2, 73, 0
1, 91980, Note_on_c, 7, 66, 101
1, 91984, Lyric_t, "kiss?  "
1, 91984, Lyric_t, "\015 "
1, 91985, Note_on_c, 2, 69, 109
1, 92054, Note_on_c, 7, 66, 0
1, 92058, Note_on_c, 7, 62, 0
1, 92062, Note_on_c, 7, 57, 0
1, 92064, Note_on_c, 7, 66, 92
1, 92064, Note_on_c, 9, 42, 27
1, 92068, Note_on_c, 7, 62, 84
1, 92070, Note_on_c, 9, 42, 0
1, 92072, Note_on_c, 7, 57, 78
1, 92140, Note_on_c, 1, 66, 0
1, 92140, Note_on_c, 1, 57, 0
1, 92140, Note_on_c, 1, 62, 0
1, 92142, Note_on_c, 2, 69, 0
1, 92148, Note_on_c, 7, 62, 0
1, 92148, Note_on_c, 7, 66, 0
1, 92148, Note_on_c, 7, 57, 0
1, 92148, Note_on_c, 0, 38, 0
1, 92148, Note_on_c, 1, 64, 78
1, 92148, Note_on_c, 1, 45, 74
1, 92148, Note_on_c, 1, 52, 81
1, 92148, Note_on_c, 1, 61, 81
1, 92160, Note_on_c, 7, 57, 86
1, 92160, Note_on_c, 9, 51, 38
1, 92160, Note_on_c, 9, 42, 47
1, 92160, Note_on_c, 0, 33, 89
1, 92165, Note_on_c, 7, 61, 98
1, 92166, Note_on_c, 9, 42, 0
1, 92166, Note_on_c, 9, 51, 0
1, 92172, Note_on_c, 7, 64, 105
1, 92256, Note_on_c, 9, 42, 31
1, 92262, Note_on_c, 9, 42, 0
1, 92336, Note_on_c, 9, 47, 67
1, 92340, Note_on_c, 0, 33, 0
1, 92342, Note_on_c, 9, 47, 0
1, 92352, Note_on_c, 0, 37, 85
1, 92352, Note_on_c, 9, 51, 35
1, 92352, Lyric_t, "Or  "
1, 92352, Note_on_c, 9, 42, 49
1, 92352, Note_on_c, 9, 47, 92
1, 92353, Note_on_c, 2, 76, 105
1, 92358, Note_on_c, 9, 47, 0
1, 92358, Note_on_c, 9, 51, 0
1, 92358, Note_on_c, 9, 42, 0
1, 92436, Note_on_c, 0, 37, 0
1, 92448, Note_on_c, 0, 40, 85
1, 92448, Note_on_c, 9, 42, 31
1, 92454, Note_on_c, 9, 42, 0
1, 92500, Note_on_c, 2, 76, 0
1, 92532, Note_on_c, 0, 40, 0
1, 92534, Note_on_c, 7, 57, 0
1, 92540, Note_on_c, 7, 61, 0
1, 92544, Note_on_c, 2, 76, 108
1, 92544, Note_on_c, 3, 61, 108
1, 92544, Note_on_c, 9, 51, 34
1, 92544, Note_on_c, 9, 42, 47
1, 92544, Note_on_c, 3, 64, 107
1, 92544, Note_on_c, 7, 57, 87
1, 92544, Lyric_t, "should  "
1, 92544, Note_on_c, 0, 45, 82
1, 92544, Note_on_c, 8, 64, 1
1, 92544, Note_on_c, 8, 61, 1
1, 92546, Note_on_c, 7, 64, 0
1, 92549, Note_on_c, 7, 61, 100
1, 92550, Note_on_c, 9, 42, 0
1, 92550, Note_on_c, 9, 51, 0
1, 92556, Note_on_c, 7, 64, 106
1, 92618, Note_on_c, 2, 76, 0
1, 92628, Note_on_c, 0, 45, 0
1, 92640, Note_on_c, 0, 40, 72
1, 92640, Note_on_c, 9, 35, 98
1, 92640, Note_on_c, 9, 42, 29
1, 92643, Lyric_t, "I  "
1, 92644, Note_on_c, 2, 76, 111
1, 92646, Note_on_c, 9, 42, 0
1, 92646, Note_on_c, 9, 35, 0
1, 92702, Note_on_c, 0, 40, 0
1, 92720, Note_on_c, 9, 45, 69
1, 92726, Note_on_c, 9, 45, 0
1, 92736, Note_on_c, 9, 42, 44
1, 92736, Note_on_c, 9, 45, 89
1, 92736, Note_on_c, 9, 51, 39
1, 92736, Note_on_c, 0, 49, 84
1, 92742, Note_on_c, 9, 51, 0
1, 92742, Note_on_c, 9, 45, 0
1, 92742, Note_on_c, 9, 42, 0
1, 92820, Note_on_c, 0, 49, 0
1, 92822, Note_on_c, 7, 57, 0
1, 92832, Note_on_c, 9, 42, 29
1, 92832, Note_on_c, 0, 45, 74
1, 92838, Note_on_c, 9, 42, 0
1, 92838, Note_on_c, 2, 76, 0
1, 92840, Note_on_c, 7, 57, 72
1, 92844, Lyric_t, "choose  "
1, 92845, Note_on_c, 2, 79, 111
1, 92908, Note_on_c, 3, 61, 0
1, 92908, Note_on_c, 3, 64, 0
1, 92916, Note_on_c, 7, 57, 0
1, 92916, Note_on_c, 7, 61, 0
1, 92916, Note_on_c, 0, 45, 0
1, 92922, Note_on_c, 7, 64, 0
1, 92928, Note_on_c, 7, 57, 87
1, 92928, Note_on_c, 3, 61, 114
1, 92928, Note_on_c, 9, 42, 52
1, 92928, Note_on_c, 3, 64, 107
1, 92928, Note_on_c, 0, 52, 89
1, 92928, Note_on_c, 9, 51, 38
1, 92933, Note_on_c, 7, 61, 97
1, 92934, Note_on_c, 9, 51, 0
1, 92934, Note_on_c, 9, 42, 0
1, 92940, Note_on_c, 7, 64, 104
1, 92940, Note_on_c, 7, 69, 101
1, 93014, Note_on_c, 7, 64, 0
1, 93016, Note_on_c, 0, 52, 0
1, 93018, Note_on_c, 7, 61, 0
1, 93022, Note_on_c, 7, 57, 0
1, 93024, Note_on_c, 7, 64, 95
1, 93024, Note_on_c, 9, 35, 98
1, 93024, Note_on_c, 0, 54, 85
1, 93024, Note_on_c, 9, 42, 31
1, 93028, Note_on_c, 7, 61, 94
1, 93030, Note_on_c, 9, 42, 0
1, 93030, Note_on_c, 9, 35, 0
1, 93032, Note_on_c, 7, 57, 79
1, 93110, Note_on_c, 7, 57, 0
1, 93112, Note_on_c, 0, 54, 0
1, 93112, Note_on_c, 9, 40, 43
1, 93116, Note_on_c, 9, 40, 0
1, 93116, Note_on_c, 7, 61, 0
1, 93120, Note_on_c, 2, 79, 0
1, 93120, Note_on_c, 7, 57, 76
1, 93120, Note_on_c, 9, 40, 98
1, 93120, Note_on_c, 0, 49, 95
1, 93120, Note_on_c, 9, 51, 42
1, 93120, Note_on_c, 9, 42, 47
1, 93121, Note_on_c, 9, 40, 0
1, 93122, Note_on_c, 7, 64, 0
1, 93125, Note_on_c, 7, 61, 84
1, 93126, Note_on_c, 9, 42, 0
1, 93126, Note_on_c, 9, 51, 0
1, 93126, Lyric_t, "an "
1, 93128, Note_on_c, 2, 81, 112
1, 93132, Note_on_c, 7, 64, 91
1, 93198, Note_on_c, 0, 49, 0
1, 93206, Note_on_c, 7, 64, 0
1, 93208, Note_on_c, 7, 69, 0
1, 93210, Note_on_c, 7, 61, 0
1, 93214, Note_on_c, 7, 57, 0
1, 93216, Note_on_c, 0, 52, 83
1, 93216, Note_on_c, 9, 42, 29
1, 93216, Note_on_c, 7, 64, 109
1, 93216, Note_on_c, 7, 69, 94
1, 93220, Note_on_c, 7, 61, 98
1, 93222, Note_on_c, 9, 42, 0
1, 93224, Note_on_c, 7, 57, 92
1, 93292, Note_on_c, 3, 61, 0
1, 93292, Note_on_c, 3, 64, 0
1, 93292, Note_on_c, 2, 81, 0
1, 93300, Note_on_c, 0, 52, 0
1, 93312, Note_on_c, 9, 40, 93
1, 93312, Note_on_c, 0, 40, 101
1, 93312, Lyric_t, "oth "
1, 93312, Note_on_c, 3, 64, 110
1, 93312, Note_on_c, 9, 51, 40
1, 93312, Note_on_c, 9, 42, 45
1, 93312, Note_on_c, 3, 61, 112
1, 93313, Note_on_c, 2, 85, 104
1, 93318, Note_on_c, 9, 42, 0
1, 93318, Note_on_c, 9, 51, 0
1, 93318, Note_on_c, 9, 40, 0
1, 93338, Note_on_c, 6, 61, 0
1, 93398, Note_on_c, 7, 64, 0
1, 93400, Note_on_c, 2, 85, 0
1, 93400, Note_on_c, 0, 40, 0
1, 93402, Note_on_c, 7, 61, 0
1, 93406, Note_on_c, 7, 57, 0
1, 93408, Lyric_t, "er?  "
1, 93408, Note_on_c, 9, 40, 80
1, 93408, Note_on_c, 9, 42, 50
1, 93408, Note_on_c, 2, 88, 111
1, 93408, Lyric_t, "\015 "
1, 93408, Note_on_c, 7, 64, 91
1, 93408, Note_on_c, 0, 42, 85
1, 93412, Note_on_c, 7, 61, 80
1, 93414, Note_on_c, 9, 42, 0
1, 93414, Note_on_c, 9, 40, 0
1, 93416, Note_on_c, 7, 57, 69
1, 93486, Note_on_c, 0, 42, 0
1, 93494, Note_on_c, 7, 57, 0
1, 93500, Note_on_c, 7, 61, 0
1, 93504, Note_on_c, 9, 45, 75
1, 93504, Note_on_c, 9, 46, 46
1, 93504, Note_on_c, 9, 51, 36
1, 93504, Note_on_c, 0, 33, 95
1, 93504, Note_on_c, 7, 57, 79
1, 93506, Note_on_c, 7, 64, 0
1, 93508, Note_on_c, 7, 69, 0
1, 93509, Note_on_c, 7, 61, 87
1, 93510, Note_on_c, 9, 51, 0
1, 93510, Note_on_c, 9, 45, 0
1, 93510, Note_on_c, 9, 46, 0
1, 93516, Note_on_c, 7, 69, 84
1, 93516, Note_on_c, 7, 64, 102
1, 93592, Note_on_c, 0, 33, 0
1, 93598, Note_on_c, 7, 57, 0
1, 93600, Note_on_c, 0, 35, 85
1, 93600, Note_on_c, 9, 35, 93
1, 93606, Note_on_c, 9, 35, 0
1, 93608, Note_on_c, 7, 57, 64
1, 93676, Note_on_c, 1, 45, 0
1, 93676, Note_on_c, 1, 52, 0
1, 93676, Note_on_c, 1, 61, 0
1, 93676, Note_on_c, 1, 64, 0
1, 93684, Note_on_c, 7, 57, 0
1, 93684, Note_on_c, 1, 55, 82
1, 93684, Note_on_c, 1, 62, 83
1, 93684, Note_on_c, 1, 67, 82
1, 93684, Note_on_c, 1, 59, 82
1, 93686, Note_on_c, 7, 61, 0
1, 93686, Note_on_c, 7, 64, 0
1, 93686, Note_on_c, 7, 69, 0
1, 93688, Note_on_c, 3, 61, 0
1, 93688, Note_on_c, 3, 64, 0
1, 93688, Note_on_c, 0, 35, 0
1, 93694, Note_on_c, 8, 61, 0
1, 93694, Note_on_c, 8, 64, 0
1, 93696, Note_on_c, 9, 42, 86
1, 93696, Note_on_c, 9, 35, 120
1, 93696, Note_on_c, 9, 49, 78
1, 93696, Note_on_c, 5, 43, 95
1, 93696, Note_on_c, 8, 62, 1
1, 93696, Note_on_c, 9, 51, 57
1, 93696, Note_on_c, 3, 62, 111
1, 93696, Note_on_c, 7, 59, 82
1, 93696, Note_on_c, 0, 31, 111
1, 93701, Note_on_c, 7, 62, 91
1, 93702, Note_on_c, 9, 51, 0
1, 93702, Note_on_c, 9, 49, 0
1, 93702, Note_on_c, 9, 35, 0
1, 93702, Note_on_c, 9, 42, 0
1, 93708, Note_on_c, 7, 67, 100
1, 93878, Note_on_c, 7, 59, 0
1, 93880, Note_on_c, 5, 43, 0
1, 93884, Note_on_c, 7, 62, 0
1, 93888, Note_on_c, 7, 59, 77
1, 93888, Note_on_c, 5, 43, 86
1, 93888, Note_on_c, 9, 42, 74
1, 93888, Note_on_c, 9, 51, 58
1, 93890, Note_on_c, 7, 67, 0
1, 93893, Note_on_c, 7, 62, 86
1, 93894, Note_on_c, 9, 51, 0
1, 93894, Note_on_c, 9, 42, 0
1, 93900, Note_on_c, 7, 67, 98
1, 93966, Note_on_c, 2, 88, 0
1, 93980, Note_on_c, 2, 85, 110
1, 94070, Note_on_c, 7, 59, 0
1, 94072, Note_on_c, 3, 62, 0
1, 94076, Note_on_c, 7, 62, 0
1, 94080, Note_on_c, 5, 67, 99
1, 94080, Note_on_c, 5, 55, 102
1, 94080, Note_on_c, 9, 40, 93
1, 94080, Note_on_c, 9, 42, 87
1, 94080, Note_on_c, 5, 50, 93
1, 94080, Note_on_c, 9, 51, 57
1, 94080, Note_on_c, 7, 59, 91
1, 94082, Note_on_c, 7, 67, 0
1, 94085, Note_on_c, 7, 62, 97
1, 94086, Note_on_c, 9, 51, 0
1, 94086, Note_on_c, 9, 40, 0
1, 94086, Note_on_c, 9, 42, 0
1, 94092, Note_on_c, 7, 67, 107
1, 94170, Note_on_c, 0, 31, 0
1, 94254, Note_on_c, 2, 85, 0
1, 94262, Note_on_c, 7, 59, 0
1, 94268, Note_on_c, 7, 62, 0
1, 94268, Note_on_c, 2, 83, 107
1, 94272, Note_on_c, 9, 42, 68
1, 94272, Note_on_c, 0, 31, 84
1, 94272, Note_on_c, 7, 59, 71
1, 94272, Note_on_c, 9, 51, 59
1, 94274, Note_on_c, 7, 67, 0
1, 94277, Note_on_c, 7, 62, 85
1, 94278, Note_on_c, 9, 51, 0
1, 94278, Note_on_c, 9, 42, 0
1, 94284, Note_on_c, 7, 67, 92
1, 94306, Note_on_c, 0, 31, 0
1, 94362, Note_on_c, 5, 43, 0
1, 94362, Note_on_c, 7, 62, 0
1, 94366, Note_on_c, 7, 59, 0
1, 94368, Note_on_c, 0, 31, 87
1, 94368, Note_on_c, 9, 35, 85
1, 94372, Note_on_c, 7, 62, 77
1, 94374, Note_on_c, 9, 35, 0
1, 94376, Note_on_c, 7, 59, 72
1, 94402, Note_on_c, 0, 31, 0
1, 94444, Note_on_c, 1, 67, 0
1, 94444, Note_on_c, 1, 62, 0
1, 94444, Note_on_c, 1, 59, 0
1, 94444, Note_on_c, 1, 55, 0
1, 94446, Note_on_c, 5, 50, 0
1, 94450, Note_on_c, 7, 67, 0
1, 94452, Note_on_c, 7, 59, 0
1, 94452, Note_on_c, 1, 62, 81
1, 94452, Note_on_c, 1, 57, 79
1, 94452, Note_on_c, 1, 50, 77
1, 94452, Note_on_c, 1, 66, 81
1, 94460, Note_on_c, 7, 62, 0
1, 94462, Note_on_c, 8, 62, 0
1, 94464, Note_on_c, 3, 66, 118
1, 94464, Note_on_c, 8, 78, 1
1, 94464, Note_on_c, 8, 66, 1
1, 94464, Note_on_c, 3, 74, 123
1, 94464, Note_on_c, 3, 69, 121
1, 94464, Note_on_c, 9, 51, 57
1, 94464, Note_on_c, 3, 78, 121
1, 94464, Note_on_c, 9, 35, 116
1, 94464, Note_on_c, 8, 74, 1
1, 94464, Note_on_c, 7, 57, 85
1, 94464, Note_on_c, 0, 38, 102
1, 94464, Note_on_c, 8, 69, 1
1, 94464, Note_on_c, 9, 42, 92
1, 94464, Note_on_c, 5, 45, 94
1, 94464, Note_on_c, 2, 78, 1
1, 94469, Note_on_c, 7, 62, 95
1, 94470, Note_on_c, 9, 42, 0
1, 94470, Note_on_c, 9, 35, 0
1, 94470, Note_on_c, 9, 51, 0
1, 94476, Note_on_c, 7, 66, 109
1, 94520, Note_on_c, 5, 67, 0
1, 94520, Note_on_c, 5, 55, 0
1, 94542, Note_on_c, 2, 83, 0
1, 94550, Note_on_c, 7, 66, 0
1, 94553, Lyric_t, "Cow "
1, 94554, Note_on_c, 7, 62, 0
1, 94556, Note_on_c, 2, 81, 106
1, 94558, Note_on_c, 7, 57, 0
1, 94560, Note_on_c, 7, 66, 86
1, 94564, Note_on_c, 7, 62, 74
1, 94568, Note_on_c, 0, 38, 0
1, 94568, Note_on_c, 7, 57, 65
1, 94638, Note_on_c, 3, 66, 0
1, 94638, Note_on_c, 2, 78, 0
1, 94638, Note_on_c, 3, 74, 0
1, 94638, Note_on_c, 3, 69, 0
1, 94638, Note_on_c, 3, 78, 0
1, 94646, Note_on_c, 7, 57, 0
1, 94648, Note_on_c, 5, 45, 0
1, 94652, Note_on_c, 7, 62, 0
1, 94654, Note_on_c, 8, 69, 0
1, 94654, Note_on_c, 8, 74, 0
1, 94654, Note_on_c, 8, 78, 0
1, 94654, Note_on_c, 8, 66, 0
1, 94656, Note_on_c, 8, 64, 1
1, 94656, Note_on_c, 3, 73, 120
1, 94656, Note_on_c, 3, 76, 120
1, 94656, Note_on_c, 3, 64, 120
1, 94656, Note_on_c, 9, 35, 103
1, 94656, Note_on_c, 0, 38, 102
1, 94656, Note_on_c, 8, 69, 1
1, 94656, Note_on_c, 2, 76, 1
1, 94656, Note_on_c, 5, 45, 88
1, 94656, Note_on_c, 7, 57, 73
1, 94656, Note_on_c, 8, 76, 1
1, 94656, Note_on_c, 8, 73, 1
1, 94656, Note_on_c, 9, 51, 54
1, 94656, Note_on_c, 9, 42, 73
1, 94656, Lyric_t, "boys  "
1, 94656, Note_on_c, 3, 69, 117
1, 94658, Note_on_c, 7, 66, 0
1, 94661, Note_on_c, 7, 62, 76
1, 94662, Note_on_c, 9, 42, 0
1, 94662, Note_on_c, 9, 35, 0
1, 94662, Note_on_c, 9, 51, 0
1, 94668, Note_on_c, 7, 66, 89
1, 94742, Note_on_c, 7, 66, 0
1, 94746, Note_on_c, 7, 62, 0
1, 94750, Note_on_c, 7, 57, 0
1, 94752, Note_on_c, 7, 66, 90
1, 94756, Note_on_c, 7, 62, 86
1, 94760, Note_on_c, 7, 57, 70
1, 94830, Note_on_c, 3, 64, 0
1, 94830, Note_on_c, 3, 73, 0
1, 94830, Note_on_c, 3, 69, 0
1, 94830, Note_on_c, 3, 76, 0
1, 94830, Note_on_c, 2, 76, 0
1, 94840, Note_on_c, 7, 57, 0
1, 94840, Note_on_c, 7, 62, 0
1, 94846, Note_on_c, 8, 76, 0
1, 94846, Note_on_c, 8, 73, 0
1, 94846, Note_on_c, 7, 66, 0
1, 94846, Note_on_c, 8, 64, 0
1, 94846, Note_on_c, 8, 69, 0
1, 94848, Note_on_c, 5, 54, 97
1, 94848, Note_on_c, 9, 42, 85
1, 94848, Note_on_c, 9, 40, 96
1, 94848, Note_on_c, 2, 74, 1
1, 94848, Note_on_c, 3, 74, 109
1, 94848, Note_on_c, 5, 66, 101
1, 94848, Note_on_c, 5, 50, 105
1, 94848, Note_on_c, 8, 66, 1
1, 94848, Note_on_c, 9, 51, 62
1, 94848, Note_on_c, 3, 66, 116
1, 94848, Note_on_c, 3, 69, 109
1, 94848, Note_on_c, 3, 62, 113
1, 94848, Lyric_t, "and  "
1, 94848, Note_on_c, 8, 74, 1
1, 94848, Note_on_c, 8, 62, 1
1, 94848, Note_on_c, 8, 69, 1
1, 94848, Note_on_c, 7, 57, 86
1, 94853, Note_on_c, 7, 62, 93
1, 94854, Note_on_c, 9, 51, 0
1, 94854, Note_on_c, 9, 40, 0
1, 94854, Note_on_c, 9, 42, 0
1, 94860, Note_on_c, 7, 66, 106
1, 95000, Note_on_c, 2, 81, 0
1, 95008, Note_on_c, 3, 66, 0
1, 95008, Note_on_c, 3, 62, 0
1, 95008, Note_on_c, 3, 69, 0
1, 95008, Note_on_c, 2, 74, 0
1, 95008, Note_on_c, 3, 74, 0
1, 95030, Note_on_c, 7, 57, 0
1, 95036, Note_on_c, 7, 62, 0
1, 95038, Note_on_c, 8, 74, 0
1, 95038, Note_on_c, 8, 69, 0
1, 95038, Note_on_c, 8, 62, 0
1, 95038, Note_on_c, 8, 66, 0
1, 95040, Note_on_c, 3, 66, 114
1, 95040, Note_on_c, 9, 42, 75
1, 95040, Note_on_c, 3, 78, 111
1, 95040, Note_on_c, 3, 69, 114
1, 95040, Note_on_c, 8, 74, 1
1, 95040, Note_on_c, 8, 78, 1
1, 95040, Note_on_c, 8, 66, 1
1, 95040, Note_on_c, 9, 51, 62
1, 95040, Lyric_t, "kiss "
1, 95040, Note_on_c, 7, 57, 73
1, 95040, Note_on_c, 2, 78, 1
1, 95040, Note_on_c, 3, 74, 114
1, 95040, Note_on_c, 8, 69, 1
1, 95042, Note_on_c, 7, 66, 0
1, 95045, Note_on_c, 7, 62, 81
1, 95046, Note_on_c, 9, 51, 0
1, 95046, Note_on_c, 9, 42, 0
1, 95052, Note_on_c, 7, 66, 91
1, 95090, Note_on_c, 0, 38, 0
1, 95130, Note_on_c, 7, 62, 0
1, 95130, Note_on_c, 5, 45, 0
1, 95134, Note_on_c, 7, 57, 0
1, 95136, Note_on_c, 0, 38, 94
1, 95140, Note_on_c, 7, 62, 75
1, 95144, Note_on_c, 7, 57, 71
1, 95156, Note_on_c, 2, 78, 0
1, 95156, Note_on_c, 3, 74, 0
1, 95156, Note_on_c, 3, 66, 0
1, 95156, Note_on_c, 3, 78, 0
1, 95156, Note_on_c, 3, 69, 0
1, 95182, Note_on_c, 0, 38, 0
1, 95212, Note_on_c, 1, 57, 0
1, 95212, Note_on_c, 1, 50, 0
1, 95212, Note_on_c, 1, 62, 0
1, 95212, Note_on_c, 1, 66, 0
1, 95220, Note_on_c, 7, 62, 0
1, 95220, Note_on_c, 7, 57, 0
1, 95220, Note_on_c, 1, 57, 77
1, 95220, Note_on_c, 1, 52, 78
1, 95220, Note_on_c, 1, 64, 82
1, 95220, Note_on_c, 1, 61, 84
1, 95222, Note_on_c, 7, 66, 0
1, 95230, Note_on_c, 8, 74, 0
1, 95230, Note_on_c, 8, 66, 0
1, 95230, Note_on_c, 8, 69, 0
1, 95230, Note_on_c, 8, 78, 0
1, 95232, Note_on_c, 3, 73, 119
1, 95232, Note_on_c, 8, 64, 1
1, 95232, Note_on_c, 9, 35, 125
1, 95232, Note_on_c, 3, 76, 114
1, 95232, Note_on_c, 9, 42, 88
1, 95232, Note_on_c, 2, 76, 1
1, 95232, Note_on_c, 8, 73, 1
1, 95232, Note_on_c, 3, 69, 119
1, 95232, Note_on_c, 0, 33, 114
1, 95232, Note_on_c, 8, 69, 1
1, 95232, Note_on_c, 9, 51, 60
1, 95232, Note_on_c, 3, 64, 116
1, 95232, Note_on_c, 7, 57, 88
1, 95232, Lyric_t, "es  "
1, 95232, Lyric_t, "\015 "
1, 95232, Note_on_c, 8, 76, 1
1, 95232, Note_on_c, 5, 45, 99
1, 95237, Note_on_c, 7, 61, 95
1, 95238, Note_on_c, 9, 51, 0
1, 95238, Note_on_c, 9, 42, 0
1, 95238, Note_on_c, 9, 35, 0
1, 95242, Note_on_c, 5, 54, 0
1, 95242, Note_on_c, 5, 50, 0
1, 95242, Note_on_c, 5, 66, 0
1, 95244, Note_on_c, 7, 64, 106
1, 95414, Note_on_c, 7, 57, 0
1, 95416, Note_on_c, 5, 45, 0
1, 95420, Note_on_c, 7, 61, 0
1, 95424, Note_on_c, 7, 57, 76
1, 95424, Note_on_c, 9, 51, 54
1, 95424, Note_on_c, 9, 42, 70
1, 95424, Note_on_c, 5, 45, 101
1, 95426, Note_on_c, 7, 64, 0
1, 95429, Note_on_c, 7, 61, 87
1, 95430, Note_on_c, 9, 42, 0
1, 95430, Note_on_c, 9, 51, 0
1, 95436, Note_on_c, 7, 64, 99
1, 95606, Note_on_c, 7, 57, 0
1, 95612, Note_on_c, 7, 61, 0
1, 95616, Note_on_c, 5, 52, 95
1, 95616, Note_on_c, 9, 51, 61
1, 95616, Note_on_c, 9, 40, 93
1, 95616, Note_on_c, 9, 42, 88
1, 95616, Note_on_c, 5, 64, 99
1, 95616, Note_on_c, 5, 57, 102
1, 95616, Note_on_c, 7, 57, 86
1, 95618, Note_on_c, 7, 64, 0
1, 95621, Note_on_c, 7, 61, 97
1, 95622, Note_on_c, 9, 42, 0
1, 95622, Note_on_c, 9, 51, 0
1, 95622, Note_on_c, 9, 40, 0
1, 95628, Note_on_c, 7, 64, 107
1, 95798, Note_on_c, 7, 57, 0
1, 95801, Lyric_t, "Cow "
1, 95804, Note_on_c, 7, 61, 0
1, 95804, Note_on_c, 2, 81, 113
1, 95808, Note_on_c, 9, 51, 63
1, 95808, Note_on_c, 9, 42, 72
1, 95808, Note_on_c, 7, 57, 79
1, 95810, Note_on_c, 7, 64, 0
1, 95813, Note_on_c, 7, 61, 84
1, 95814, Note_on_c, 9, 42, 0
1, 95814, Note_on_c, 9, 51, 0
1, 95820, Note_on_c, 7, 64, 92
1, 95864, Note_on_c, 2, 81, 0
1, 95876, Note_on_c, 0, 33, 0
1, 95897, Note_on_c, 2, 81, 113
1, 95898, Note_on_c, 5, 45, 0
1, 95898, Note_on_c, 7, 61, 0
1, 95902, Note_on_c, 7, 57, 0
1, 95904, Note_on_c, 9, 35, 87
1, 95904, Note_on_c, 0, 33, 100
1, 95908, Note_on_c, 7, 61, 76
1, 95910, Note_on_c, 9, 35, 0
1, 95912, Note_on_c, 7, 57, 69
1, 95944, Note_on_c, 0, 33, 0
1, 95970, Note_on_c, 2, 81, 0
1, 95982, Note_on_c, 5, 52, 0
1, 95986, Note_on_c, 7, 64, 0
1, 95988, Note_on_c, 7, 57, 0
1, 95996, Note_on_c, 7, 61, 0
1, 96000, Note_on_c, 0, 33, 108
1, 96000, Lyric_t, "boys  "
1, 96000, Note_on_c, 2, 81, 114
1, 96000, Note_on_c, 9, 51, 59
1, 96000, Note_on_c, 5, 45, 90
1, 96000, Note_on_c, 9, 35, 115
1, 96000, Note_on_c, 9, 42, 92
1, 96000, Note_on_c, 7, 57, 82
1, 96005, Note_on_c, 7, 61, 96
1, 96006, Note_on_c, 9, 42, 0
1, 96006, Note_on_c, 9, 35, 0
1, 96006, Note_on_c, 9, 51, 0
1, 96012, Note_on_c, 7, 64, 106
1, 96056, Note_on_c, 5, 64, 0
1, 96056, Note_on_c, 5, 57, 0
1, 96078, Note_on_c, 0, 33, 0
1, 96086, Note_on_c, 7, 64, 0
1, 96090, Note_on_c, 7, 61, 0
1, 96094, Note_on_c, 7, 57, 0
1, 96096, Note_on_c, 7, 64, 85
1, 96100, Note_on_c, 7, 61, 73
1, 96104, Note_on_c, 7, 57, 61
1, 96182, Note_on_c, 7, 57, 0
1, 96182, Note_on_c, 2, 81, 0
1, 96184, Note_on_c, 5, 45, 0
1, 96188, Note_on_c, 7, 61, 0
1, 96188, Lyric_t, "and  "
1, 96189, Note_on_c, 2, 78, 110
1, 96192, Note_on_c, 0, 33, 110
1, 96192, Note_on_c, 9, 51, 55
1, 96192, Note_on_c, 9, 42, 68
1, 96192, Note_on_c, 5, 45, 92
1, 96192, Note_on_c, 7, 57, 66
1, 96192, Note_on_c, 9, 35, 102
1, 96194, Note_on_c, 7, 64, 0
1, 96197, Note_on_c, 7, 61, 83
1, 96198, Note_on_c, 9, 35, 0
1, 96198, Note_on_c, 9, 51, 0
1, 96198, Note_on_c, 9, 42, 0
1, 96204, Note_on_c, 7, 64, 90
1, 96278, Note_on_c, 7, 64, 0
1, 96280, Note_on_c, 2, 78, 0
1, 96282, Note_on_c, 7, 61, 0
1, 96286, Note_on_c, 7, 57, 0
1, 96288, Note_on_c, 7, 64, 93
1, 96288, Note_on_c, 2, 78, 113
1, 96292, Note_on_c, 7, 61, 86
1, 96296, Note_on_c, 7, 57, 76
1, 96376, Note_on_c, 7, 57, 0
1, 96376, Note_on_c, 7, 61, 0
1, 96382, Note_on_c, 7, 64, 0
1, 96384, Note_on_c, 9, 51, 64
1, 96384, Note_on_c, 5, 64, 104
1, 96384, Note_on_c, 7, 57, 85
1, 96384, Note_on_c, 9, 42, 88
1, 96384, Note_on_c, 5, 52, 102
1, 96384, Note_on_c, 5, 57, 100
1, 96384, Note_on_c, 9, 40, 92
1, 96389, Note_on_c, 7, 61, 95
1, 96390, Note_on_c, 9, 40, 0
1, 96390, Note_on_c, 9, 42, 0
1, 96390, Note_on_c, 9, 51, 0
1, 96396, Note_on_c, 7, 64, 105
1, 96470, Note_on_c, 2, 78, 0
1, 96476, Lyric_t, "kiss "
1, 96477, Note_on_c, 2, 76, 106
1, 96548, Note_on_c, 0, 33, 0
1, 96566, Note_on_c, 2, 76, 0
1, 96566, Note_on_c, 7, 57, 0
1, 96566, Note_on_c, 3, 73, 0
1, 96566, Note_on_c, 3, 76, 0
1, 96566, Note_on_c, 3, 64, 0
1, 96566, Note_on_c, 3, 69, 0
1, 96568, Note_on_c, 5, 45, 0
1, 96568, Note_on_c, 5, 52, 0
1, 96568, Note_on_c, 2, 76, 0
1, 96572, Note_on_c, 7, 61, 0
1, 96576, Note_on_c, 5, 45, 69
1, 96576, Note_on_c, 2, 76, 115
1, 96576, Note_on_c, 9, 46, 63
1, 96576, Note_on_c, 9, 51, 60
1, 96576, Note_on_c, 5, 52, 69
1, 96576, Lyric_t, "\015 "
1, 96576, Lyric_t, "es.  "
1, 96576, Note_on_c, 0, 38, 98
1, 96576, Note_on_c, 7, 57, 78
1, 96578, Note_on_c, 7, 64, 0
1, 96581, Note_on_c, 7, 61, 83
1, 96582, Note_on_c, 9, 51, 0
1, 96582, Note_on_c, 9, 46, 0
1, 96588, Note_on_c, 7, 64, 98
1, 96642, Note_on_c, 5, 52, 0
1, 96642, Note_on_c, 5, 45, 0
1, 96666, Note_on_c, 7, 61, 0
1, 96670, Note_on_c, 7, 57, 0
1, 96672, Note_on_c, 5, 45, 75
1, 96672, Note_on_c, 5, 52, 68
1, 96676, Note_on_c, 7, 61, 80
1, 96680, Note_on_c, 7, 57, 73
1, 96738, Note_on_c, 5, 52, 0
1, 96738, Note_on_c, 5, 45, 0
1, 96746, Note_on_c, 0, 38, 0
1, 96748, Note_on_c, 1, 52, 0
1, 96748, Note_on_c, 1, 57, 0
1, 96748, Note_on_c, 1, 64, 0
1, 96748, Note_on_c, 1, 61, 0
1, 96756, Note_on_c, 7, 61, 0
1, 96756, Note_on_c, 7, 57, 0
1, 96756, Note_on_c, 1, 62, 84
1, 96756, Note_on_c, 1, 59, 79
1, 96756, Note_on_c, 1, 55, 81
1, 96756, Note_on_c, 1, 67, 83
1, 96758, Note_on_c, 7, 64, 0
1, 96760, Note_on_c, 5, 64, 0
1, 96760, Note_on_c, 5, 57, 0
1, 96766, Note_on_c, 8, 64, 0
1, 96766, Note_on_c, 8, 69, 0
1, 96766, Note_on_c, 8, 76, 0
1, 96766, Note_on_c, 8, 73, 0
1, 96768, Note_on_c, 7, 59, 87
1, 96768, Note_on_c, 0, 31, 111
1, 96768, Note_on_c, 9, 51, 61
1, 96768, Note_on_c, 5, 55, 100
1, 96768, Note_on_c, 9, 42, 85
1, 96768, Note_on_c, 9, 49, 75
1, 96768, Note_on_c, 5, 43, 97
1, 96768, Note_on_c, 9, 35, 124
1, 96773, Note_on_c, 7, 62, 95
1, 96774, Note_on_c, 9, 35, 0
1, 96774, Note_on_c, 9, 42, 0
1, 96774, Note_on_c, 9, 51, 0
1, 96774, Note_on_c, 9, 49, 0
1, 96780, Note_on_c, 7, 67, 106
1, 96818, Note_on_c, 2, 76, 0
1, 96849, Note_on_c, 2, 81, 115
1, 96950, Note_on_c, 7, 59, 0
1, 96952, Note_on_c, 5, 55, 0
1, 96952, Note_on_c, 5, 43, 0
1, 96956, Note_on_c, 7, 62, 0
1, 96960, Note_on_c, 5, 43, 88
1, 96960, Note_on_c, 9, 42, 73
1, 96960, Note_on_c, 7, 59, 77
1, 96960, Note_on_c, 9, 51, 62
1, 96960, Note_on_c, 5, 55, 100
1, 96962, Note_on_c, 7, 67, 0
1, 96965, Note_on_c, 7, 62, 82
1, 96966, Note_on_c, 9, 51, 0
1, 96966, Note_on_c, 9, 42, 0
1, 96972, Note_on_c, 7, 67, 93
1, 97142, Note_on_c, 7, 59, 0
1, 97146, Note_on_c, 0, 31, 0
1, 97148, Note_on_c, 7, 62, 0
1, 97148, Note_on_c, 5, 55, 0
1, 97152, Note_on_c, 9, 40, 97
1, 97152, Note_on_c, 5, 55, 108
1, 97152, Note_on_c, 5, 67, 105
1, 97152, Note_on_c, 7, 59, 92
1, 97152, Note_on_c, 9, 51, 55
1, 97152, Note_on_c, 9, 42, 93
1, 97152, Note_on_c, 5, 50, 98
1, 97154, Note_on_c, 7, 67, 0
1, 97157, Note_on_c, 7, 62, 99
1, 97158, Note_on_c, 9, 40, 0
1, 97158, Note_on_c, 9, 42, 0
1, 97158, Note_on_c, 9, 51, 0
1, 97164, Note_on_c, 7, 67, 105
1, 97248, Note_on_c, 0, 31, 88
1, 97268, Note_on_c, 2, 81, 0
1, 97282, Note_on_c, 0, 31, 0
1, 97334, Note_on_c, 7, 59, 0
1, 97336, Note_on_c, 5, 55, 0
1, 97336, Note_on_c, 5, 50, 0
1, 97340, Note_on_c, 7, 62, 0
1, 97344, Note_on_c, 7, 59, 78
1, 97344, Note_on_c, 9, 51, 55
1, 97344, Note_on_c, 0, 35, 88
1, 97344, Note_on_c, 9, 42, 70
1, 97344, Note_on_c, 5, 55, 88
1, 97344, Note_on_c, 5, 50, 71
1, 97346, Note_on_c, 7, 67, 0
1, 97349, Note_on_c, 7, 62, 79
1, 97350, Note_on_c, 9, 42, 0
1, 97350, Note_on_c, 9, 51, 0
1, 97356, Note_on_c, 7, 67, 96
1, 97410, Note_on_c, 0, 35, 0
1, 97426, Note_on_c, 5, 50, 0
1, 97426, Note_on_c, 5, 55, 0
1, 97434, Note_on_c, 5, 43, 0
1, 97434, Note_on_c, 7, 62, 0
1, 97438, Note_on_c, 7, 59, 0
1, 97440, Note_on_c, 5, 55, 75
1, 97440, Note_on_c, 9, 35, 90
1, 97440, Note_on_c, 5, 50, 72
1, 97440, Note_on_c, 0, 37, 87
1, 97444, Note_on_c, 7, 62, 81
1, 97446, Note_on_c, 9, 35, 0
1, 97448, Note_on_c, 7, 59, 71
1, 97506, Note_on_c, 0, 37, 0
1, 97516, Note_on_c, 1, 67, 0
1, 97516, Note_on_c, 1, 55, 0
1, 97516, Note_on_c, 1, 59, 0
1, 97516, Note_on_c, 1, 62, 0
1, 97522, Note_on_c, 5, 55, 0
1, 97522, Note_on_c, 5, 50, 0
1, 97522, Note_on_c, 7, 67, 0
1, 97524, Note_on_c, 7, 59, 0
1, 97524, Note_on_c, 1, 62, 79
1, 97524, Note_on_c, 1, 50, 77
1, 97524, Note_on_c, 1, 66, 77
1, 97524, Note_on_c, 1, 57, 80
1, 97532, Note_on_c, 7, 62, 0
1, 97536, Note_on_c, 2, 78, 1
1, 97536, Note_on_c, 9, 35, 118
1, 97536, Note_on_c, 3, 66, 119
1, 97536, Note_on_c, 8, 66, 1
1, 97536, Note_on_c, 5, 55, 98
1, 97536, Note_on_c, 9, 51, 55
1, 97536, Lyric_t, "Weight  "
1, 97536, Note_on_c, 8, 78, 1
1, 97536, Note_on_c, 9, 42, 92
1, 97536, Note_on_c, 8, 69, 1
1, 97536, Note_on_c, 8, 74, 1
1, 97536, Note_on_c, 5, 45, 96
1, 97536, Note_on_c, 3, 74, 118
1, 97536, Note_on_c, 3, 78, 118
1, 97536, Note_on_c, 0, 38, 107
1, 97536, Note_on_c, 3, 69, 126
1, 97536, Note_on_c, 7, 57, 85
1, 97541, Note_on_c, 7, 62, 97
1, 97542, Note_on_c, 9, 42, 0
1, 97542, Note_on_c, 9, 35, 0
1, 97542, Note_on_c, 9, 51, 0
1, 97548, Note_on_c, 7, 66, 103
1, 97592, Note_on_c, 5, 67, 0
1, 97622, Note_on_c, 7, 66, 0
1, 97626, Note_on_c, 7, 62, 0
1, 97626, Note_on_c, 5, 55, 0
1, 97630, Note_on_c, 7, 57, 0
1, 97632, Note_on_c, 7, 66, 86
1, 97632, Note_on_c, 5, 54, 79
1, 97636, Note_on_c, 7, 62, 78
1, 97640, Note_on_c, 7, 57, 63
1, 97660, Note_on_c, 0, 38, 0
1, 97710, Note_on_c, 3, 78, 0
1, 97710, Note_on_c, 3, 74, 0
1, 97710, Note_on_c, 3, 66, 0
1, 97710, Note_on_c, 3, 69, 0
1, 97710, Note_on_c, 2, 78, 0
1, 97718, Note_on_c, 7, 57, 0
1, 97720, Note_on_c, 5, 45, 0
1, 97720, Note_on_c, 5, 54, 0
1, 97724, Note_on_c, 7, 62, 0
1, 97726, Note_on_c, 8, 66, 0
1, 97726, Note_on_c, 8, 74, 0
1, 97726, Note_on_c, 8, 78, 0
1, 97726, Note_on_c, 8, 69, 0
1, 97728, Note_on_c, 9, 35, 102
1, 97728, Note_on_c, 8, 64, 1
1, 97728, Note_on_c, 7, 57, 72
1, 97728, Note_on_c, 8, 76, 1
1, 97728, Note_on_c, 8, 73, 1
1, 97728, Note_on_c, 9, 51, 56
1, 97728, Note_on_c, 8, 69, 1
1, 97728, Note_on_c, 3, 64, 124
1, 97728, Note_on_c, 9, 42, 66
1, 97728, Note_on_c, 3, 76, 121
1, 97728, Note_on_c, 5, 54, 97
1, 97728, Lyric_t, "in  "
1, 97728, Note_on_c, 0, 38, 101
1, 97728, Note_on_c, 5, 45, 80
1, 97728, Note_on_c, 2, 76, 1
1, 97728, Note_on_c, 3, 73, 120
1, 97728, Note_on_c, 3, 69, 124
1, 97730, Note_on_c, 7, 66, 0
1, 97733, Note_on_c, 7, 62, 76
1, 97734, Note_on_c, 9, 51, 0
1, 97734, Note_on_c, 9, 42, 0
1, 97734, Note_on_c, 9, 35, 0
1, 97740, Note_on_c, 7, 66, 92
1, 97814, Note_on_c, 7, 66, 0
1, 97818, Note_on_c, 7, 62, 0
1, 97822, Note_on_c, 7, 57, 0
1, 97824, Note_on_c, 7, 66, 89
1, 97828, Note_on_c, 7, 62, 80
1, 97832, Note_on_c, 7, 57, 72
1, 97902, Note_on_c, 2, 76, 0
1, 97902, Note_on_c, 3, 73, 0
1, 97902, Note_on_c, 3, 64, 0
1, 97902, Note_on_c, 3, 69, 0
1, 97902, Note_on_c, 3, 76, 0
1, 97912, Note_on_c, 5, 54, 0
1, 97912, Note_on_c, 7, 57, 0
1, 97912, Note_on_c, 7, 62, 0
1, 97918, Note_on_c, 8, 64, 0
1, 97918, Note_on_c, 7, 66, 0
1, 97918, Note_on_c, 8, 73, 0
1, 97918, Note_on_c, 8, 69, 0
1, 97918, Note_on_c, 8, 76, 0
1, 97920, Note_on_c, 7, 57, 85
1, 97920, Note_on_c, 5, 66, 104
1, 97920, Note_on_c, 5, 54, 114
1, 97920, Note_on_c, 8, 69, 1
1, 97920, Lyric_t, "my  "
1, 97920, Note_on_c, 3, 62, 111
1, 97920, Note_on_c, 3, 66, 110
1, 97920, Note_on_c, 8, 62, 1
1, 97920, Note_on_c, 8, 66, 1
1, 97920, Note_on_c, 2, 74, 1
1, 97920, Note_on_c, 8, 74, 1
1, 97920, Note_on_c, 3, 69, 114
1, 97920, Note_on_c, 3, 74, 114
1, 97920, Note_on_c, 9, 51, 62
1, 97920, Note_on_c, 9, 40, 92
1, 97920, Note_on_c, 9, 42, 88
1, 97920, Note_on_c, 5, 50, 102
1, 97925, Note_on_c, 7, 62, 93
1, 97926, Note_on_c, 9, 42, 0
1, 97926, Note_on_c, 9, 40, 0
1, 97926, Note_on_c, 9, 51, 0
1, 97932, Note_on_c, 7, 66, 102
1, 98080, Note_on_c, 3, 69, 0
1, 98080, Note_on_c, 2, 74, 0
1, 98080, Note_on_c, 3, 74, 0
1, 98080, Note_on_c, 3, 66, 0
1, 98080, Note_on_c, 3, 62, 0
1, 98102, Note_on_c, 7, 57, 0
1, 98108, Note_on_c, 7, 62, 0
1, 98110, Note_on_c, 8, 74, 0
1, 98110, Note_on_c, 8, 69, 0
1, 98110, Note_on_c, 8, 62, 0
1, 98110, Note_on_c, 8, 66, 0
1, 98112, Note_on_c, 8, 69, 1
1, 98112, Note_on_c, 3, 78, 116
1, 98112, Note_on_c, 3, 66, 112
1, 98112, Note_on_c, 8, 74, 1
1, 98112, Note_on_c, 8, 78, 1
1, 98112, Note_on_c, 7, 57, 73
1, 98112, Lyric_t, "pock "
1, 98112, Note_on_c, 3, 69, 110
1, 98112, Note_on_c, 8, 66, 1
1, 98112, Note_on_c, 9, 42, 70
1, 98112, Note_on_c, 9, 51, 61
1, 98112, Note_on_c, 3, 74, 109
1, 98112, Note_on_c, 2, 78, 1
1, 98114, Note_on_c, 7, 66, 0
1, 98117, Note_on_c, 7, 62, 89
1, 98118, Note_on_c, 9, 51, 0
1, 98118, Note_on_c, 9, 42, 0
1, 98124, Note_on_c, 7, 66, 96
1, 98162, Note_on_c, 0, 38, 0
1, 98202, Note_on_c, 5, 45, 0
1, 98202, Note_on_c, 7, 62, 0
1, 98206, Note_on_c, 7, 57, 0
1, 98208, Note_on_c, 0, 38, 94
1, 98212, Note_on_c, 7, 62, 81
1, 98216, Note_on_c, 7, 57, 73
1, 98228, Note_on_c, 3, 69, 0
1, 98228, Note_on_c, 2, 78, 0
1, 98228, Note_on_c, 3, 74, 0
1, 98228, Note_on_c, 3, 66, 0
1, 98228, Note_on_c, 3, 78, 0
1, 98254, Note_on_c, 0, 38, 0
1, 98284, Note_on_c, 1, 50, 0
1, 98284, Note_on_c, 1, 66, 0
1, 98284, Note_on_c, 1, 62, 0
1, 98284, Note_on_c, 1, 57, 0
1, 98292, Note_on_c, 7, 62, 0
1, 98292, Note_on_c, 7, 57, 0
1, 98292, Note_on_c, 1, 57, 81
1, 98292, Note_on_c, 1, 64, 82
1, 98292, Note_on_c, 1, 52, 78
1, 98292, Note_on_c, 1, 61, 80
1, 98294, Note_on_c, 7, 66, 0
1, 98302, Note_on_c, 8, 69, 0
1, 98302, Note_on_c, 8, 74, 0
1, 98302, Note_on_c, 8, 66, 0
1, 98302, Note_on_c, 8, 78, 0
1, 98304, Lyric_t, "et  "
1, 98304, Note_on_c, 9, 51, 55
1, 98304, Note_on_c, 8, 69, 1
1, 98304, Note_on_c, 9, 35, 119
1, 98304, Note_on_c, 9, 42, 86
1, 98304, Note_on_c, 3, 69, 119
1, 98304, Lyric_t, "\015 "
1, 98304, Note_on_c, 3, 76, 118
1, 98304, Note_on_c, 3, 64, 116
1, 98304, Note_on_c, 8, 73, 1
1, 98304, Note_on_c, 8, 76, 1
1, 98304, Note_on_c, 2, 76, 1
1, 98304, Note_on_c, 3, 73, 120
1, 98304, Note_on_c, 0, 33, 109
1, 98304, Note_on_c, 8, 64, 1
1, 98304, Note_on_c, 7, 57, 85
1, 98304, Note_on_c, 5, 45, 96
1, 98309, Note_on_c, 7, 61, 96
1, 98310, Note_on_c, 9, 42, 0
1, 98310, Note_on_c, 9, 35, 0
1, 98310, Note_on_c, 9, 51, 0
1, 98314, Note_on_c, 5, 54, 0
1, 98314, Note_on_c, 5, 50, 0
1, 98314, Note_on_c, 5, 66, 0
1, 98316, Note_on_c, 7, 64, 102
1, 98486, Note_on_c, 7, 57, 0
1, 98488, Note_on_c, 5, 45, 0
1, 98492, Note_on_c, 7, 61, 0
1, 98496, Note_on_c, 5, 45, 96
1, 98496, Note_on_c, 9, 42, 70
1, 98496, Note_on_c, 9, 51, 61
1, 98496, Note_on_c, 7, 57, 76
1, 98498, Note_on_c, 7, 64, 0
1, 98501, Note_on_c, 7, 61, 86
1, 98502, Note_on_c, 9, 51, 0
1, 98502, Note_on_c, 9, 42, 0
1, 98508, Note_on_c, 7, 64, 100
1, 98678, Note_on_c, 7, 57, 0
1, 98684, Note_on_c, 7, 61, 0
1, 98688, Note_on_c, 5, 64, 99
1, 98688, Note_on_c, 9, 42, 87
1, 98688, Note_on_c, 7, 57, 90
1, 98688, Note_on_c, 2, 81, 113
1, 98688, Note_on_c, 5, 52, 94
1, 98688, Note_on_c, 5, 57, 104
1, 98688, Lyric_t, "You're  "
1, 98688, Note_on_c, 9, 51, 59
1, 98688, Note_on_c, 9, 40, 96
1, 98690, Note_on_c, 7, 64, 0
1, 98693, Note_on_c, 7, 61, 97
1, 98694, Note_on_c, 9, 51, 0
1, 98694, Note_on_c, 9, 42, 0
1, 98694, Note_on_c, 9, 40, 0
1, 98700, Note_on_c, 7, 64, 106
1, 98776, Note_on_c, 2, 81, 0
1, 98784, Lyric_t, "like  "
1, 98784, Note_on_c, 2, 83, 112
1, 98870, Note_on_c, 7, 57, 0
1, 98872, Note_on_c, 2, 83, 0
1, 98876, Note_on_c, 7, 61, 0
1, 98880, Note_on_c, 7, 57, 80
1, 98880, Note_on_c, 9, 51, 56
1, 98880, Note_on_c, 2, 85, 114
1, 98880, Note_on_c, 9, 42, 64
1, 98880, Lyric_t, "a  "
1, 98882, Note_on_c, 7, 64, 0
1, 98885, Note_on_c, 7, 61, 83
1, 98886, Note_on_c, 9, 42, 0
1, 98886, Note_on_c, 9, 51, 0
1, 98892, Note_on_c, 7, 64, 91
1, 98948, Note_on_c, 0, 33, 0
1, 98968, Note_on_c, 2, 85, 0
1, 98970, Note_on_c, 5, 45, 0
1, 98970, Note_on_c, 7, 61, 0
1, 98974, Note_on_c, 7, 57, 0
1, 98976, Lyric_t, "weight  "
1, 98976, Note_on_c, 0, 40, 102
1, 98976, Lyric_t, "\015 "
1, 98976, Note_on_c, 9, 35, 88
1, 98976, Note_on_c, 2, 85, 113
1, 98980, Note_on_c, 7, 61, 79
1, 98982, Note_on_c, 9, 35, 0
1, 98984, Note_on_c, 7, 57, 73
1, 99036, Note_on_c, 0, 40, 0
1, 99054, Note_on_c, 5, 52, 0
1, 99058, Note_on_c, 7, 64, 0
1, 99060, Note_on_c, 7, 57, 0
1, 99068, Note_on_c, 7, 61, 0
1, 99072, Note_on_c, 7, 57, 87
1, 99072, Note_on_c, 0, 33, 110
1, 99072, Note_on_c, 5, 45, 96
1, 99072, Note_on_c, 9, 35, 121
1, 99072, Note_on_c, 9, 42, 90
1, 99072, Note_on_c, 9, 51, 61
1, 99077, Note_on_c, 7, 61, 94
1, 99078, Note_on_c, 9, 51, 0
1, 99078, Note_on_c, 9, 42, 0
1, 99078, Note_on_c, 9, 35, 0
1, 99084, Note_on_c, 7, 64, 102
1, 99084, Note_on_c, 7, 69, 95
1, 99128, Note_on_c, 5, 57, 0
1, 99128, Note_on_c, 5, 64, 0
1, 99152, Note_on_c, 2, 85, 0
1, 99158, Note_on_c, 7, 64, 0
1, 99162, Note_on_c, 7, 61, 0
1, 99166, Note_on_c, 7, 57, 0
1, 99168, Note_on_c, 2, 83, 115
1, 99168, Note_on_c, 7, 64, 82
1, 99168, Lyric_t, "you're  "
1, 99172, Note_on_c, 7, 61, 77
1, 99176, Note_on_c, 7, 57, 63
1, 99192, Note_on_c, 0, 33, 0
1, 99252, Note_on_c, 2, 83, 0
1, 99254, Note_on_c, 7, 57, 0
1, 99256, Note_on_c, 5, 45, 0
1, 99260, Note_on_c, 7, 61, 0
1, 99264, Note_on_c, 0, 33, 105
1, 99264, Lyric_t, "a  "
1, 99264, Note_on_c, 7, 57, 72
1, 99264, Note_on_c, 9, 46, 69
1, 99264, Note_on_c, 5, 45, 87
1, 99264, Note_on_c, 2, 83, 112
1, 99264, Note_on_c, 9, 51, 62
1, 99264, Note_on_c, 9, 35, 103
1, 99266, Note_on_c, 7, 64, 0
1, 99269, Note_on_c, 7, 61, 80
1, 99270, Note_on_c, 9, 35, 0
1, 99270, Note_on_c, 9, 51, 0
1, 99270, Note_on_c, 9, 46, 0
1, 99276, Note_on_c, 7, 64, 85
1, 99350, Note_on_c, 7, 64, 0
1, 99352, Note_on_c, 7, 69, 0
1, 99354, Note_on_c, 7, 61, 0
1, 99358, Note_on_c, 7, 57, 0
1, 99360, Note_on_c, 7, 69, 92
1, 99360, Note_on_c, 7, 64, 101
1, 99364, Note_on_c, 7, 61, 91
1, 99368, Note_on_c, 7, 57, 84
1, 99444, Note_on_c, 2, 83, 0
1, 99456, Note_on_c, 9, 51, 60
1, 99456, Note_on_c, 9, 40, 99
1, 99456, Note_on_c, 5, 57, 101
1, 99456, Note_on_c, 5, 52, 104
1, 99456, Lyric_t, "weight  "
1, 99456, Note_on_c, 5, 64, 104
1, 99456, Note_on_c, 9, 42, 90
1, 99456, Note_on_c, 2, 81, 115
1, 99462, Note_on_c, 9, 42, 0
1, 99462, Note_on_c, 9, 51, 0
1, 99462, Note_on_c, 9, 40, 0
1, 99524, Note_on_c, 0, 33, 0
1, 99542, Note_on_c, 7, 64, 0
1, 99544, Note_on_c, 2, 81, 0
1, 99546, Note_on_c, 7, 61, 0
1, 99550, Note_on_c, 7, 57, 0
1, 99552, Note_on_c, 2, 81, 105
1, 99552, Note_on_c, 0, 33, 103
1, 99552, Note_on_c, 9, 40, 82
1, 99552, Note_on_c, 7, 64, 78
1, 99552, Lyric_t, "\015 "
1, 99552, Lyric_t, "baby.  "
1, 99556, Note_on_c, 7, 61, 69
1, 99558, Note_on_c, 9, 40, 0
1, 99560, Note_on_c, 7, 57, 56
1, 99638, Note_on_c, 7, 57, 0
1, 99638, Note_on_c, 3, 76, 0
1, 99638, Note_on_c, 2, 76, 0
1, 99638, Note_on_c, 3, 69, 0
1, 99638, Note_on_c, 3, 73, 0
1, 99638, Note_on_c, 3, 64, 0
1, 99640, Note_on_c, 5, 45, 0
1, 99640, Note_on_c, 5, 52, 0
1, 99644, Note_on_c, 7, 61, 0
1, 99648, Note_on_c, 5, 52, 76
1, 99648, Note_on_c, 9, 45, 84
1, 99648, Note_on_c, 5, 45, 74
1, 99648, Note_on_c, 9, 51, 63
1, 99648, Note_on_c, 9, 46, 63
1, 99648, Note_on_c, 7, 57, 79
1, 99650, Note_on_c, 7, 64, 0
1, 99652, Note_on_c, 7, 69, 0
1, 99653, Note_on_c, 7, 61, 84
1, 99654, Note_on_c, 9, 46, 0
1, 99654, Note_on_c, 9, 51, 0
1, 99654, Note_on_c, 9, 45, 0
1, 99660, Note_on_c, 7, 64, 98
1, 99660, Note_on_c, 7, 69, 80
1, 99714, Note_on_c, 5, 45, 0
1, 99714, Note_on_c, 5, 52, 0
1, 99742, Note_on_c, 7, 57, 0
1, 99744, Note_on_c, 5, 52, 69
1, 99744, Note_on_c, 5, 45, 68
1, 99744, Note_on_c, 9, 45, 63
1, 99750, Note_on_c, 9, 45, 0
1, 99752, Note_on_c, 7, 57, 55
1, 99810, Note_on_c, 5, 45, 0
1, 99810, Note_on_c, 5, 52, 0
1, 99818, Note_on_c, 0, 33, 0
1, 99820, Note_on_c, 1, 61, 0
1, 99820, Note_on_c, 1, 52, 0
1, 99820, Note_on_c, 1, 57, 0
1, 99820, Note_on_c, 1, 64, 0
1, 99828, Note_on_c, 7, 57, 0
1, 99828, Note_on_c, 1, 62, 76
1, 99828, Note_on_c, 1, 55, 84
1, 99828, Note_on_c, 1, 59, 80
1, 99828, Note_on_c, 1, 67, 81
1, 99830, Note_on_c, 7, 69, 0
1, 99830, Note_on_c, 7, 64, 0
1, 99830, Note_on_c, 7, 61, 0
1, 99832, Note_on_c, 5, 64, 0
1, 99832, Note_on_c, 5, 57, 0
1, 99838, Note_on_c, 8, 76, 0
1, 99838, Note_on_c, 8, 64, 0
1, 99838, Note_on_c, 8, 73, 0
1, 99838, Note_on_c, 8, 69, 0
1, 99840, Note_on_c, 9, 42, 90
1, 99840, Note_on_c, 5, 43, 92
1, 99840, Note_on_c, 7, 59, 86
1, 99840, Note_on_c, 9, 51, 59
1, 99840, Note_on_c, 9, 49, 79
1, 99840, Note_on_c, 0, 31, 107
1, 99840, Note_on_c, 9, 35, 117
1, 99845, Note_on_c, 7, 62, 92
1, 99846, Note_on_c, 9, 35, 0
1, 99846, Note_on_c, 9, 51, 0
1, 99846, Note_on_c, 9, 42, 0
1, 99846, Note_on_c, 9, 49, 0
1, 99852, Note_on_c, 7, 67, 100
1, 100022, Note_on_c, 7, 59, 0
1, 100024, Note_on_c, 5, 43, 0
1, 100028, Note_on_c, 7, 62, 0
1, 100032, Note_on_c, 5, 43, 93
1, 100032, Note_on_c, 7, 59, 79
1, 100032, Note_on_c, 9, 42, 70
1, 100032, Note_on_c, 9, 51, 59
1, 100034, Note_on_c, 7, 67, 0
1, 100037, Note_on_c, 7, 62, 85
1, 100038, Note_on_c, 9, 51, 0
1, 100038, Note_on_c, 9, 42, 0
1, 100044, Note_on_c, 7, 67, 92
1, 100202, Note_on_c, 2, 81, 0
1, 100214, Note_on_c, 7, 59, 0
1, 100218, Note_on_c, 0, 31, 0
1, 100220, Note_on_c, 7, 62, 0
1, 100224, Note_on_c, 5, 55, 97
1, 100224, Note_on_c, 9, 42, 92
1, 100224, Note_on_c, 5, 67, 103
1, 100224, Lyric_t, "Damn  "
1, 100224, Note_on_c, 7, 59, 91
1, 100224, Note_on_c, 2, 78, 114
1, 100224, Note_on_c, 9, 40, 99
1, 100224, Note_on_c, 9, 51, 58
1, 100224, Note_on_c, 5, 50, 97
1, 100226, Note_on_c, 7, 67, 0
1, 100229, Note_on_c, 7, 62, 100
1, 100230, Note_on_c, 9, 42, 0
1, 100230, Note_on_c, 9, 51, 0
1, 100230, Note_on_c, 9, 40, 0
1, 100236, Note_on_c, 7, 67, 108
1, 100296, Note_on_c, 2, 78, 0
1, 100320, Note_on_c, 2, 76, 113
1, 100320, Lyric_t, "those  "
1, 100320, Note_on_c, 0, 31, 84
1, 100354, Note_on_c, 0, 31, 0
1, 100406, Note_on_c, 7, 59, 0
1, 100408, Note_on_c, 5, 55, 0
1, 100408, Note_on_c, 5, 50, 0
1, 100412, Note_on_c, 7, 62, 0
1, 100416, Note_on_c, 0, 35, 85
1, 100416, Note_on_c, 5, 55, 72
1, 100416, Note_on_c, 5, 50, 72
1, 100416, Note_on_c, 9, 51, 56
1, 100416, Note_on_c, 9, 42, 64
1, 100416, Note_on_c, 7, 59, 75
1, 100418, Note_on_c, 7, 67, 0
1, 100421, Note_on_c, 7, 62, 81
1, 100422, Note_on_c, 9, 42, 0
1, 100422, Note_on_c, 9, 51, 0
1, 100428, Note_on_c, 7, 67, 98
1, 100482, Note_on_c, 0, 35, 0
1, 100498, Note_on_c, 5, 50, 0
1, 100498, Note_on_c, 5, 55, 0
1, 100506, Note_on_c, 5, 43, 0
1, 100506, Note_on_c, 7, 62, 0
1, 100510, Note_on_c, 7, 59, 0
1, 100512, Note_on_c, 5, 55, 68
1, 100512, Note_on_c, 5, 50, 68
1, 100512, Note_on_c, 9, 35, 87
1, 100512, Note_on_c, 0, 37, 84
1, 100516, Note_on_c, 7, 62, 84
1, 100518, Note_on_c, 9, 35, 0
1, 100520, Note_on_c, 7, 59, 74
1, 100578, Note_on_c, 0, 37, 0
1, 100588, Note_on_c, 1, 67, 0
1, 100588, Note_on_c, 1, 59, 0
1, 100588, Note_on_c, 1, 62, 0
1, 100588, Note_on_c, 1, 55, 0
1, 100588, Note_on_c, 2, 76, 0
1, 100594, Note_on_c, 5, 50, 0
1, 100594, Note_on_c, 5, 55, 0
1, 100594, Note_on_c, 7, 67, 0
1, 100596, Note_on_c, 7, 59, 0
1, 100596, Note_on_c, 1, 62, 77
1, 100596, Note_on_c, 1, 57, 84
1, 100596, Note_on_c, 1, 50, 82
1, 100596, Note_on_c, 1, 66, 84
1, 100604, Note_on_c, 7, 62, 0
1, 100608, Note_on_c, 3, 66, 125
1, 100608, Note_on_c, 7, 57, 90
1, 100608, Note_on_c, 8, 69, 1
1, 100608, Note_on_c, 3, 78, 120
1, 100608, Note_on_c, 5, 55, 94
1, 100608, Note_on_c, 3, 69, 119
1, 100608, Lyric_t, "cow "
1, 100608, Note_on_c, 0, 38, 105
1, 100608, Note_on_c, 5, 45, 97
1, 100608, Note_on_c, 9, 42, 88
1, 100608, Note_on_c, 9, 51, 57
1, 100608, Note_on_c, 9, 35, 117
1, 100608, Note_on_c, 8, 78, 1
1, 100608, Note_on_c, 8, 66, 1
1, 100609, Note_on_c, 2, 78, 111
1, 100613, Note_on_c, 7, 62, 97
1, 100614, Note_on_c, 9, 35, 0
1, 100614, Note_on_c, 9, 51, 0
1, 100614, Note_on_c, 9, 42, 0
1, 100620, Note_on_c, 7, 66, 107
1, 100664, Note_on_c, 5, 67, 0
1, 100694, Note_on_c, 7, 66, 0
1, 100698, Note_on_c, 5, 55, 0
1, 100698, Note_on_c, 7, 62, 0
1, 100702, Note_on_c, 7, 57, 0
1, 100704, Note_on_c, 7, 66, 87
1, 100704, Note_on_c, 5, 54, 74
1, 100708, Note_on_c, 7, 62, 73
1, 100712, Note_on_c, 7, 57, 68
1, 100732, Note_on_c, 0, 38, 0
1, 100782, Note_on_c, 3, 69, 0
1, 100782, Note_on_c, 3, 78, 0
1, 100782, Note_on_c, 3, 66, 0
1, 100790, Note_on_c, 7, 57, 0
1, 100792, Note_on_c, 5, 45, 0
1, 100792, Note_on_c, 5, 54, 0
1, 100796, Note_on_c, 7, 62, 0
1, 100798, Note_on_c, 8, 69, 0
1, 100798, Note_on_c, 8, 78, 0
1, 100798, Note_on_c, 2, 78, 0
1, 100798, Note_on_c, 8, 66, 0
1, 100800, Note_on_c, 8, 69, 1
1, 100800, Note_on_c, 5, 45, 83
1, 100800, Note_on_c, 5, 54, 89
1, 100800, Note_on_c, 3, 64, 125
1, 100800, Note_on_c, 8, 76, 1
1, 100800, Note_on_c, 9, 51, 60
1, 100800, Note_on_c, 9, 35, 103
1, 100800, Note_on_c, 7, 57, 73
1, 100800, Note_on_c, 8, 64, 1
1, 100800, Note_on_c, 9, 42, 73
1, 100800, Note_on_c, 3, 69, 118
1, 100800, Note_on_c, 3, 76, 122
1, 100800, Note_on_c, 0, 38, 104
1, 100802, Note_on_c, 7, 66, 0
1, 100803, Lyric_t, "boys  "
1, 100805, Note_on_c, 7, 62, 79
1, 100805, Note_on_c, 2, 81, 115
1, 100806, Note_on_c, 9, 51, 0
1, 100806, Note_on_c, 9, 42, 0
1, 100806, Note_on_c, 9, 35, 0
1, 100812, Note_on_c, 7, 66, 89
1, 100886, Note_on_c, 7, 66, 0
1, 100890, Note_on_c, 7, 62, 0
1, 100894, Note_on_c, 7, 57, 0
1, 100896, Note_on_c, 7, 66, 89
1, 100900, Note_on_c, 7, 62, 84
1, 100904, Note_on_c, 7, 57, 73
1, 100974, Note_on_c, 2, 81, 0
1, 100974, Note_on_c, 3, 76, 0
1, 100974, Note_on_c, 3, 64, 0
1, 100974, Note_on_c, 3, 69, 0
1, 100984, Note_on_c, 7, 57, 0
1, 100984, Note_on_c, 7, 62, 0
1, 100984, Note_on_c, 5, 54, 0
1, 100990, Note_on_c, 8, 76, 0
1, 100990, Note_on_c, 8, 64, 0
1, 100990, Note_on_c, 8, 69, 0
1, 100990, Note_on_c, 7, 66, 0
1, 100992, Note_on_c, 5, 50, 104
1, 100992, Note_on_c, 3, 66, 114
1, 100992, Note_on_c, 5, 54, 101
1, 100992, Note_on_c, 8, 62, 1
1, 100992, Note_on_c, 8, 66, 1
1, 100992, Note_on_c, 8, 74, 1
1, 100992, Note_on_c, 7, 57, 84
1, 100992, Note_on_c, 9, 42, 88
1, 100992, Note_on_c, 9, 51, 60
1, 100992, Note_on_c, 9, 40, 94
1, 100992, Note_on_c, 3, 74, 109
1, 100992, Note_on_c, 3, 62, 114
1, 100992, Note_on_c, 5, 66, 105
1, 100995, Lyric_t, "and  "
1, 100997, Note_on_c, 7, 62, 100
1, 100997, Note_on_c, 2, 78, 114
1, 100998, Note_on_c, 9, 40, 0
1, 100998, Note_on_c, 9, 51, 0
1, 100998, Note_on_c, 9, 42, 0
1, 101004, Note_on_c, 7, 66, 108
1, 101152, Note_on_c, 3, 62, 0
1, 101152, Note_on_c, 3, 74, 0
1, 101152, Note_on_c, 2, 78, 0
1, 101152, Note_on_c, 3, 66, 0
1, 101174, Note_on_c, 7, 57, 0
1, 101180, Note_on_c, 7, 62, 0
1, 101182, Note_on_c, 8, 66, 0
1, 101182, Note_on_c, 8, 62, 0
1, 101182, Note_on_c, 8, 74, 0
1, 101184, Note_on_c, 9, 42, 70
1, 101184, Note_on_c, 3, 66, 117
1, 101184, Note_on_c, 8, 69, 1
1, 101184, Note_on_c, 8, 66, 1
1, 101184, Note_on_c, 7, 57, 72
1, 101184, Note_on_c, 9, 51, 56
1, 101184, Note_on_c, 3, 78, 114
1, 101184, Note_on_c, 3, 69, 117
1, 101184, Note_on_c, 8, 78, 1
1, 101186, Note_on_c, 7, 66, 0
1, 101187, Lyric_t, "kiss "
1, 101189, Note_on_c, 2, 83, 110
1, 101189, Note_on_c, 7, 62, 81
1, 101190, Note_on_c, 9, 51, 0
1, 101190, Note_on_c, 9, 42, 0
1, 101196, Note_on_c, 7, 66, 96
1, 101234, Note_on_c, 0, 38, 0
1, 101274, Note_on_c, 5, 45, 0
1, 101274, Note_on_c, 7, 62, 0
1, 101278, Note_on_c, 7, 57, 0
1, 101280, Note_on_c, 0, 38, 95
1, 101284, Note_on_c, 7, 62, 83
1, 101288, Note_on_c, 7, 57, 70
1, 101300, Note_on_c, 3, 78, 0
1, 101300, Note_on_c, 3, 69, 0
1, 101300, Note_on_c, 3, 66, 0
1, 101326, Note_on_c, 0, 38, 0
1, 101354, Note_on_c, 2, 83, 0
1, 101356, Note_on_c, 1, 50, 0
1, 101356, Note_on_c, 1, 57, 0
1, 101356, Note_on_c, 1, 62, 0
1, 101356, Note_on_c, 1, 66, 0
1, 101364, Note_on_c, 7, 62, 0
1, 101364, Note_on_c, 7, 57, 0
1, 101364, Note_on_c, 1, 52, 80
1, 101364, Note_on_c, 1, 61, 81
1, 101364, Note_on_c, 1, 57, 83
1, 101364, Note_on_c, 1, 64, 85
1, 101366, Note_on_c, 7, 66, 0
1, 101374, Note_on_c, 8, 66, 0
1, 101374, Note_on_c, 8, 78, 0
1, 101374, Note_on_c, 8, 69, 0
1, 101376, Note_on_c, 5, 45, 100
1, 101376, Note_on_c, 9, 42, 93
1, 101376, Note_on_c, 3, 64, 118
1, 101376, Note_on_c, 7, 57, 82
1, 101376, Note_on_c, 8, 64, 1
1, 101376, Note_on_c, 9, 51, 57
1, 101376, Note_on_c, 8, 76, 1
1, 101376, Note_on_c, 9, 35, 125
1, 101376, Note_on_c, 3, 76, 117
1, 101376, Note_on_c, 0, 33, 114
1, 101376, Note_on_c, 3, 69, 115
1, 101376, Note_on_c, 8, 69, 1
1, 101381, Note_on_c, 7, 61, 96
1, 101382, Note_on_c, 9, 35, 0
1, 101382, Note_on_c, 9, 51, 0
1, 101382, Note_on_c, 9, 42, 0
1, 101382, Lyric_t, "\015 "
1, 101382, Lyric_t, "es  "
1, 101384, Note_on_c, 2, 81, 115
1, 101386, Note_on_c, 5, 50, 0
1, 101386, Note_on_c, 5, 54, 0
1, 101386, Note_on_c, 5, 66, 0
1, 101388, Note_on_c, 7, 64, 103
1, 101558, Note_on_c, 7, 57, 0
1, 101560, Note_on_c, 5, 45, 0
1, 101564, Note_on_c, 7, 61, 0
1, 101568, Note_on_c, 9, 42, 69
1, 101568, Note_on_c, 7, 57, 76
1, 101568, Note_on_c, 5, 45, 99
1, 101568, Note_on_c, 9, 51, 59
1, 101570, Note_on_c, 7, 64, 0
1, 101573, Note_on_c, 7, 61, 85
1, 101574, Note_on_c, 9, 51, 0
1, 101574, Note_on_c, 9, 42, 0
1, 101580, Note_on_c, 7, 64, 91
1, 101654, Note_on_c, 3, 64, 0
1, 101654, Note_on_c, 8, 64, 0
1, 101664, Note_on_c, 8, 59, 1
1, 101664, Note_on_c, 3, 59, 104
1, 101750, Note_on_c, 3, 59, 0
1, 101750, Note_on_c, 8, 59, 0
1, 101750, Note_on_c, 7, 57, 0
1, 101756, Note_on_c, 7, 61, 0
1, 101760, Note_on_c, 9, 40, 96
1, 101760, Note_on_c, 5, 64, 103
1, 101760, Note_on_c, 5, 57, 102
1, 101760, Note_on_c, 9, 51, 54
1, 101760, Note_on_c, 9, 42, 86
1, 101760, Note_on_c, 5, 52, 96
1, 101760, Note_on_c, 8, 57, 1
1, 101760, Note_on_c, 7, 57, 88
1, 101760, Note_on_c, 3, 57, 119
1, 101762, Note_on_c, 7, 64, 0
1, 101765, Note_on_c, 7, 61, 96
1, 101766, Note_on_c, 9, 42, 0
1, 101766, Note_on_c, 9, 51, 0
1, 101766, Note_on_c, 9, 40, 0
1, 101772, Note_on_c, 7, 64, 105
1, 101942, Note_on_c, 7, 57, 0
1, 101948, Note_on_c, 7, 61, 0
1, 101952, Note_on_c, 9, 51, 59
1, 101952, Note_on_c, 7, 57, 74
1, 101952, Note_on_c, 9, 42, 70
1, 101954, Note_on_c, 7, 64, 0
1, 101957, Note_on_c, 7, 61, 87
1, 101958, Note_on_c, 9, 42, 0
1, 101958, Note_on_c, 9, 51, 0
1, 101964, Note_on_c, 7, 64, 97
1, 102020, Note_on_c, 0, 33, 0
1, 102042, Note_on_c, 7, 61, 0
1, 102042, Note_on_c, 5, 45, 0
1, 102046, Note_on_c, 7, 57, 0
1, 102048, Note_on_c, 9, 35, 92
1, 102048, Note_on_c, 0, 40, 98
1, 102052, Note_on_c, 7, 61, 77
1, 102054, Note_on_c, 9, 35, 0
1, 102056, Note_on_c, 7, 57, 75
1, 102108, Note_on_c, 0, 40, 0
1, 102126, Note_on_c, 5, 52, 0
1, 102130, Note_on_c, 7, 64, 0
1, 102132, Note_on_c, 7, 57, 0
1, 102140, Note_on_c, 7, 61, 0
1, 102144, Note_on_c, 5, 45, 92
1, 102144, Note_on_c, 0, 33, 110
1, 102144, Note_on_c, 9, 35, 121
1, 102144, Note_on_c, 7, 57, 90
1, 102144, Note_on_c, 9, 42, 92
1, 102144, Note_on_c, 9, 51, 59
1, 102149, Note_on_c, 7, 61, 90
1, 102150, Note_on_c, 9, 51, 0
1, 102150, Note_on_c, 9, 42, 0
1, 102150, Note_on_c, 9, 35, 0
1, 102156, Note_on_c, 7, 64, 104
1, 102200, Note_on_c, 5, 57, 0
1, 102200, Note_on_c, 5, 64, 0
1, 102230, Note_on_c, 7, 64, 0
1, 102234, Note_on_c, 7, 61, 0
1, 102238, Note_on_c, 7, 57, 0
1, 102240, Note_on_c, 7, 64, 82
1, 102244, Note_on_c, 7, 61, 75
1, 102248, Note_on_c, 7, 57, 65
1, 102264, Note_on_c, 0, 33, 0
1, 102326, Note_on_c, 7, 57, 0
1, 102328, Note_on_c, 5, 45, 0
1, 102332, Note_on_c, 7, 61, 0
1, 102336, Note_on_c, 9, 51, 56
1, 102336, Note_on_c, 0, 33, 108
1, 102336, Note_on_c, 7, 57, 68
1, 102336, Note_on_c, 9, 35, 106
1, 102336, Note_on_c, 9, 42, 71
1, 102336, Note_on_c, 5, 45, 85
1, 102338, Note_on_c, 7, 64, 0
1, 102341, Note_on_c, 7, 61, 75
1, 102342, Note_on_c, 9, 42, 0
1, 102342, Note_on_c, 9, 35, 0
1, 102342, Note_on_c, 9, 51, 0
1, 102348, Note_on_c, 7, 64, 85
1, 102422, Note_on_c, 7, 64, 0
1, 102426, Note_on_c, 7, 61, 0
1, 102430, Note_on_c, 7, 57, 0
1, 102432, Note_on_c, 7, 64, 95
1, 102436, Note_on_c, 7, 61, 81
1, 102440, Note_on_c, 7, 57, 75
1, 102504, Note_on_c, 2, 81, 0
1, 102518, Note_on_c, 3, 69, 0
1, 102518, Note_on_c, 8, 69, 0
1, 102518, Note_on_c, 3, 57, 0
1, 102518, Note_on_c, 3, 76, 0
1, 102518, Note_on_c, 8, 76, 0
1, 102520, Note_on_c, 7, 57, 0
1, 102520, Note_on_c, 7, 61, 0
1, 102526, Note_on_c, 7, 64, 0
1, 102526, Note_on_c, 8, 57, 0
1, 102528, Note_on_c, 9, 42, 91
1, 102528, Note_on_c, 9, 51, 57
1, 102528, Note_on_c, 5, 57, 102
1, 102528, Note_on_c, 9, 40, 92
1, 102528, Note_on_c, 7, 57, 88
1, 102528, Note_on_c, 5, 52, 105
1, 102528, Note_on_c, 5, 64, 97
1, 102533, Note_on_c, 7, 61, 93
1, 102534, Note_on_c, 9, 40, 0
1, 102534, Note_on_c, 9, 51, 0
1, 102534, Note_on_c, 9, 42, 0
1, 102540, Note_on_c, 7, 64, 105
1, 102596, Note_on_c, 0, 33, 0
1, 102624, Note_on_c, 0, 35, 99
1, 102710, Note_on_c, 7, 57, 0
1, 102712, Note_on_c, 5, 52, 0
1, 102712, Note_on_c, 5, 45, 0
1, 102716, Note_on_c, 7, 61, 0
1, 102720, Note_on_c, 9, 51, 58
1, 102720, Note_on_c, 5, 52, 69
1, 102720, Note_on_c, 9, 46, 68
1, 102720, Note_on_c, 7, 57, 74
1, 102720, Note_on_c, 5, 45, 76
1, 102722, Note_on_c, 7, 64, 0
1, 102725, Note_on_c, 7, 61, 87
1, 102726, Note_on_c, 9, 46, 0
1, 102726, Note_on_c, 9, 51, 0
1, 102732, Note_on_c, 7, 64, 95
1, 102786, Note_on_c, 5, 52, 0
1, 102786, Note_on_c, 5, 45, 0
1, 102810, Note_on_c, 7, 61, 0
1, 102814, Note_on_c, 7, 57, 0
1, 102816, Note_on_c, 5, 52, 75
1, 102816, Note_on_c, 5, 45, 72
1, 102820, Note_on_c, 7, 61, 78
1, 102824, Note_on_c, 7, 57, 73
1, 102882, Note_on_c, 5, 45, 0
1, 102882, Note_on_c, 5, 52, 0
1, 102890, Note_on_c, 0, 35, 0
1, 102892, Note_on_c, 1, 61, 0
1, 102892, Note_on_c, 1, 52, 0
1, 102892, Note_on_c, 1, 64, 0
1, 102892, Note_on_c, 1, 57, 0
1, 102900, Note_on_c, 7, 61, 0
1, 102900, Note_on_c, 7, 57, 0
1, 102900, Note_on_c, 1, 67, 80
1, 102900, Note_on_c, 1, 55, 83
1, 102900, Note_on_c, 1, 59, 76
1, 102900, Note_on_c, 1, 62, 81
1, 102902, Note_on_c, 7, 64, 0
1, 102904, Note_on_c, 5, 57, 0
1, 102904, Note_on_c, 5, 64, 0
1, 102912, Note_on_c, 8, 62, 1
1, 102912, Note_on_c, 7, 59, 82
1, 102912, Note_on_c, 5, 43, 95
1, 102912, Note_on_c, 2, 79, 115
1, 102912, Note_on_c, 8, 74, 1
1, 102912, Note_on_c, 9, 35, 121
1, 102912, Lyric_t, "I  "
1, 102912, Note_on_c, 9, 42, 90
1, 102912, Note_on_c, 8, 67, 1
1, 102912, Note_on_c, 0, 31, 111
1, 102912, Note_on_c, 3, 67, 117
1, 102912, Note_on_c, 3, 74, 115
1, 102912, Note_on_c, 9, 49, 76
1, 102912, Note_on_c, 3, 62, 120
1, 102912, Note_on_c, 9, 51, 62
1, 102917, Note_on_c, 7, 62, 91
1, 102918, Note_on_c, 9, 51, 0
1, 102918, Note_on_c, 9, 49, 0
1, 102918, Note_on_c, 9, 42, 0
1, 102918, Note_on_c, 9, 35, 0
1, 102924, Note_on_c, 7, 67, 102
1, 102984, Note_on_c, 2, 79, 0
1, 103000, Note_on_c, 3, 62, 0
1, 103000, Note_on_c, 3, 74, 0
1, 103000, Note_on_c, 3, 67, 0
1, 103004, Lyric_t, "said  "
1, 103005, Note_on_c, 2, 79, 111
1, 103006, Note_on_c, 8, 62, 0
1, 103006, Note_on_c, 8, 74, 0
1, 103006, Note_on_c, 8, 67, 0
1, 103008, Note_on_c, 3, 73, 106
1, 103008, Note_on_c, 8, 67, 1
1, 103008, Note_on_c, 3, 61, 105
1, 103008, Note_on_c, 3, 67, 109
1, 103008, Note_on_c, 8, 73, 1
1, 103008, Note_on_c, 8, 61, 1
1, 103078, Note_on_c, 2, 79, 0
1, 103086, Note_on_c, 3, 73, 0
1, 103086, Note_on_c, 3, 67, 0
1, 103086, Note_on_c, 3, 61, 0
1, 103094, Note_on_c, 7, 59, 0
1, 103096, Note_on_c, 5, 43, 0
1, 103097, Lyric_t, "I  "
1, 103100, Note_on_c, 7, 62, 0
1, 103100, Note_on_c, 2, 79, 114
1, 103102, Note_on_c, 8, 61, 0
1, 103102, Note_on_c, 8, 67, 0
1, 103102, Note_on_c, 8, 73, 0
1, 103104, Note_on_c, 8, 74, 1
1, 103104, Note_on_c, 7, 59, 77
1, 103104, Note_on_c, 8, 67, 1
1, 103104, Note_on_c, 9, 42, 73
1, 103104, Note_on_c, 3, 62, 104
1, 103104, Note_on_c, 8, 62, 1
1, 103104, Note_on_c, 5, 43, 88
1, 103104, Note_on_c, 3, 67, 107
1, 103104, Note_on_c, 3, 74, 104
1, 103104, Note_on_c, 9, 51, 59
1, 103106, Note_on_c, 7, 67, 0
1, 103109, Note_on_c, 7, 62, 86
1, 103110, Note_on_c, 9, 51, 0
1, 103110, Note_on_c, 9, 42, 0
1, 103116, Note_on_c, 7, 67, 97
1, 103178, Note_on_c, 2, 79, 0
1, 103192, Note_on_c, 3, 74, 0
1, 103192, Note_on_c, 3, 67, 0
1, 103192, Note_on_c, 3, 62, 0
1, 103193, Note_on_c, 2, 79, 114
1, 103193, Lyric_t, "got "
1, 103198, Note_on_c, 8, 74, 0
1, 103198, Note_on_c, 8, 67, 0
1, 103198, Note_on_c, 8, 62, 0
1, 103200, Note_on_c, 3, 61, 108
1, 103200, Note_on_c, 3, 73, 107
1, 103200, Note_on_c, 8, 67, 1
1, 103200, Note_on_c, 8, 61, 1
1, 103200, Note_on_c, 3, 67, 110
1, 103200, Note_on_c, 8, 73, 1
1, 103274, Note_on_c, 2, 79, 0
1, 103278, Note_on_c, 3, 61, 0
1, 103278, Note_on_c, 3, 67, 0
1, 103278, Note_on_c, 3, 73, 0
1, 103286, Note_on_c, 7, 59, 0
1, 103290, Note_on_c, 0, 31, 0
1, 103292, Note_on_c, 7, 62, 0
1, 103294, Note_on_c, 8, 73, 0
1, 103294, Note_on_c, 8, 67, 0
1, 103294, Note_on_c, 8, 61, 0
1, 103296, Note_on_c, 3, 67, 114
1, 103296, Note_on_c, 8, 74, 1
1, 103296, Note_on_c, 3, 62, 119
1, 103296, Note_on_c, 9, 42, 87
1, 103296, Note_on_c, 7, 59, 91
1, 103296, Note_on_c, 8, 62, 1
1, 103296, Note_on_c, 9, 40, 100
1, 103296, Note_on_c, 3, 74, 114
1, 103296, Note_on_c, 9, 51, 57
1, 103296, Lyric_t, "ta  "
1, 103296, Note_on_c, 8, 67, 1
1, 103296, Note_on_c, 5, 50, 100
1, 103296, Note_on_c, 5, 67, 106
1, 103296, Note_on_c, 5, 55, 99
1, 103297, Note_on_c, 2, 79, 114
1, 103298, Note_on_c, 7, 67, 0
1, 103301, Note_on_c, 7, 62, 100
1, 103302, Note_on_c, 9, 42, 0
1, 103302, Note_on_c, 9, 51, 0
1, 103302, Note_on_c, 9, 40, 0
1, 103308, Note_on_c, 7, 67, 105
1, 103392, Note_on_c, 0, 31, 85
1, 103426, Note_on_c, 0, 31, 0
1, 103458, Note_on_c, 2, 79, 0
1, 103470, Note_on_c, 3, 62, 0
1, 103470, Note_on_c, 3, 67, 0
1, 103470, Note_on_c, 3, 74, 0
1, 103478, Note_on_c, 7, 59, 0
1, 103480, Note_on_c, 5, 50, 0
1, 103480, Note_on_c, 5, 55, 0
1, 103484, Note_on_c, 7, 62, 0
1, 103488, Note_on_c, 5, 55, 76
1, 103488, Note_on_c, 9, 42, 64
1, 103488, Note_on_c, 9, 51, 62
1, 103488, Note_on_c, 3, 67, 109
1, 103488, Note_on_c, 0, 35, 85
1, 103488, Note_on_c, 3, 62, 110
1, 103488, Note_on_c, 3, 74, 113
1, 103488, Note_on_c, 5, 50, 66
1, 103488, Note_on_c, 7, 59, 77
1, 103490, Note_on_c, 7, 67, 0
1, 103491, Lyric_t, "find  "
1, 103493, Note_on_c, 7, 62, 86
1, 103493, Note_on_c, 2, 79, 111
1, 103494, Note_on_c, 9, 51, 0
1, 103494, Note_on_c, 9, 42, 0
1, 103500, Note_on_c, 7, 67, 98
1, 103554, Note_on_c, 0, 35, 0
1, 103570, Note_on_c, 5, 50, 0
1, 103570, Note_on_c, 5, 55, 0
1, 103576, Note_on_c, 3, 62, 0
1, 103576, Note_on_c, 3, 74, 0
1, 103576, Note_on_c, 3, 67, 0
1, 103578, Note_on_c, 5, 43, 0
1, 103578, Note_on_c, 7, 62, 0
1, 103582, Note_on_c, 2, 79, 0
1, 103582, Note_on_c, 8, 67, 0
1, 103582, Note_on_c, 7, 59, 0
1, 103582, Note_on_c, 8, 62, 0
1, 103582, Note_on_c, 8, 74, 0
1, 103584, Note_on_c, 5, 55, 66
1, 103584, Note_on_c, 3, 67, 106
1, 103584, Note_on_c, 5, 50, 70
1, 103584, Note_on_c, 8, 61, 1
1, 103584, Note_on_c, 0, 37, 87
1, 103584, Note_on_c, 8, 73, 1
1, 103584, Note_on_c, 3, 73, 108
1, 103584, Note_on_c, 3, 61, 101
1, 103584, Note_on_c, 9, 35, 88
1, 103584, Note_on_c, 8, 67, 1
1, 103587, Lyric_t, "myself  "
1, 103587, Lyric_t, "\015 "
1, 103588, Note_on_c, 7, 62, 79
1, 103589, Note_on_c, 2, 79, 115
1, 103590, Note_on_c, 9, 35, 0
1, 103592, Note_on_c, 7, 59, 68
1, 103650, Note_on_c, 0, 37, 0
1, 103660, Note_on_c, 1, 67, 0
1, 103660, Note_on_c, 1, 55, 0
1, 103660, Note_on_c, 1, 62, 0
1, 103660, Note_on_c, 1, 59, 0
1, 103666, Note_on_c, 5, 50, 0
1, 103666, Note_on_c, 7, 67, 0
1, 103666, Note_on_c, 5, 55, 0
1, 103668, Note_on_c, 7, 59, 0
1, 103668, Note_on_c, 1, 66, 84
1, 103668, Note_on_c, 1, 50, 81
1, 103668, Note_on_c, 1, 57, 79
1, 103668, Note_on_c, 1, 62, 84
1, 103672, Note_on_c, 3, 67, 0
1, 103672, Note_on_c, 3, 73, 0
1, 103672, Note_on_c, 3, 61, 0
1, 103676, Note_on_c, 7, 62, 0
1, 103678, Note_on_c, 8, 73, 0
1, 103678, Note_on_c, 2, 79, 0
1, 103678, Note_on_c, 8, 67, 0
1, 103678, Note_on_c, 8, 61, 0
1, 103680, Note_on_c, 0, 38, 103
1, 103680, Note_on_c, 5, 55, 94
1, 103680, Note_on_c, 7, 57, 90
1, 103680, Note_on_c, 5, 45, 90
1, 103680, Note_on_c, 3, 66, 115
1, 103680, Note_on_c, 3, 62, 116
1, 103680, Note_on_c, 3, 74, 118
1, 103680, Note_on_c, 9, 42, 90
1, 103680, Note_on_c, 9, 51, 57
1, 103680, Note_on_c, 8, 62, 1
1, 103680, Note_on_c, 9, 35, 124
1, 103680, Note_on_c, 8, 74, 1
1, 103680, Note_on_c, 8, 66, 1
1, 103683, Lyric_t, "ev "
1, 103685, Note_on_c, 7, 62, 98
1, 103685, Note_on_c, 2, 81, 113
1, 103686, Note_on_c, 9, 35, 0
1, 103686, Note_on_c, 9, 51, 0
1, 103686, Note_on_c, 9, 42, 0
1, 103692, Note_on_c, 7, 66, 108
1, 103736, Note_on_c, 5, 67, 0
1, 103766, Note_on_c, 7, 66, 0
1, 103770, Note_on_c, 7, 62, 0
1, 103770, Note_on_c, 5, 55, 0
1, 103774, Note_on_c, 7, 57, 0
1, 103776, Note_on_c, 7, 66, 82
1, 103776, Note_on_c, 5, 54, 76
1, 103780, Note_on_c, 7, 62, 74
1, 103784, Note_on_c, 7, 57, 68
1, 103804, Note_on_c, 0, 38, 0
1, 103854, Note_on_c, 3, 62, 0
1, 103854, Note_on_c, 3, 66, 0
1, 103854, Note_on_c, 3, 74, 0
1, 103858, Note_on_c, 2, 81, 0
1, 103862, Note_on_c, 7, 57, 0
1, 103864, Note_on_c, 5, 45, 0
1, 103864, Note_on_c, 5, 54, 0
1, 103868, Note_on_c, 7, 62, 0
1, 103870, Note_on_c, 8, 66, 0
1, 103870, Note_on_c, 8, 74, 0
1, 103870, Note_on_c, 8, 62, 0
1, 103872, Note_on_c, 9, 51, 57
1, 103872, Note_on_c, 0, 38, 104
1, 103872, Note_on_c, 8, 64, 1
1, 103872, Note_on_c, 5, 45, 80
1, 103872, Note_on_c, 5, 54, 83
1, 103872, Note_on_c, 8, 73, 1
1, 103872, Note_on_c, 3, 61, 107
1, 103872, Note_on_c, 3, 64, 103
1, 103872, Note_on_c, 3, 73, 105
1, 103872, Note_on_c, 7, 57, 73
1, 103872, Note_on_c, 9, 35, 104
1, 103872, Note_on_c, 9, 42, 67
1, 103872, Note_on_c, 8, 61, 1
1, 103874, Note_on_c, 7, 66, 0
1, 103877, Note_on_c, 7, 62, 79
1, 103878, Note_on_c, 9, 42, 0
1, 103878, Note_on_c, 9, 35, 0
1, 103878, Note_on_c, 9, 51, 0
1, 103878, Lyric_t, "ery  "
1, 103880, Note_on_c, 2, 81, 112
1, 103884, Note_on_c, 7, 66, 92
1, 103948, Note_on_c, 2, 81, 0
1, 103958, Note_on_c, 7, 66, 0
1, 103960, Note_on_c, 3, 64, 0
1, 103960, Note_on_c, 3, 61, 0
1, 103960, Note_on_c, 3, 73, 0
1, 103962, Note_on_c, 7, 62, 0
1, 103966, Note_on_c, 8, 61, 0
1, 103966, Note_on_c, 8, 73, 0
1, 103966, Note_on_c, 8, 64, 0
1, 103966, Note_on_c, 7, 57, 0
1, 103968, Note_on_c, 8, 66, 1
1, 103968, Note_on_c, 8, 74, 1
1, 103968, Note_on_c, 3, 66, 109
1, 103968, Note_on_c, 3, 74, 116
1, 103968, Note_on_c, 3, 62, 117
1, 103968, Note_on_c, 8, 62, 1
1, 103968, Note_on_c, 7, 66, 90
1, 103972, Note_on_c, 7, 62, 84
1, 103976, Note_on_c, 7, 57, 78
1, 103977, Lyric_t, "time  "
1, 103980, Note_on_c, 2, 81, 111
1, 104056, Note_on_c, 7, 57, 0
1, 104056, Note_on_c, 7, 62, 0
1, 104056, Note_on_c, 5, 54, 0
1, 104062, Note_on_c, 7, 66, 0
1, 104064, Note_on_c, 5, 66, 104
1, 104064, Note_on_c, 9, 40, 93
1, 104064, Note_on_c, 5, 54, 97
1, 104064, Note_on_c, 9, 51, 63
1, 104064, Note_on_c, 7, 57, 85
1, 104064, Note_on_c, 5, 50, 100
1, 104064, Note_on_c, 9, 42, 87
1, 104069, Note_on_c, 7, 62, 99
1, 104070, Note_on_c, 9, 42, 0
1, 104070, Note_on_c, 9, 51, 0
1, 104070, Note_on_c, 9, 40, 0
1, 104076, Note_on_c, 7, 66, 109
1, 104142, Note_on_c, 3, 66, 0
1, 104142, Note_on_c, 3, 74, 0
1, 104142, Note_on_c, 3, 62, 0
1, 104158, Note_on_c, 8, 66, 0
1, 104158, Note_on_c, 8, 74, 0
1, 104158, Note_on_c, 8, 62, 0
1, 104160, Note_on_c, 2, 81, 0
1, 104160, Note_on_c, 8, 64, 1
1, 104160, Note_on_c, 3, 69, 112
1, 104160, Note_on_c, 8, 69, 1
1, 104160, Note_on_c, 8, 76, 1
1, 104160, Note_on_c, 3, 76, 113
1, 104160, Note_on_c, 3, 64, 111
1, 104166, Lyric_t, "you  "
1, 104168, Note_on_c, 2, 79, 111
1, 104236, Note_on_c, 2, 79, 0
1, 104246, Note_on_c, 7, 57, 0
1, 104248, Note_on_c, 3, 64, 0
1, 104248, Note_on_c, 3, 76, 0
1, 104248, Note_on_c, 3, 69, 0
1, 104252, Note_on_c, 7, 62, 0
1, 104254, Note_on_c, 8, 76, 0
1, 104254, Note_on_c, 8, 69, 0
1, 104254, Note_on_c, 8, 64, 0
1, 104256, Note_on_c, 8, 76, 1
1, 104256, Note_on_c, 9, 51, 62
1, 104256, Note_on_c, 9, 42, 67
1, 104256, Note_on_c, 3, 64, 116
1, 104256, Note_on_c, 3, 69, 117
1, 104256, Note_on_c, 3, 76, 112
1, 104256, Note_on_c, 8, 69, 1
1, 104256, Note_on_c, 8, 64, 1
1, 104256, Note_on_c, 7, 57, 77
1, 104258, Note_on_c, 7, 66, 0
1, 104261, Note_on_c, 7, 62, 82
1, 104262, Note_on_c, 9, 42, 0
1, 104262, Note_on_c, 9, 51, 0
1, 104262, Lyric_t, "go  "
1, 104264, Note_on_c, 2, 81, 114
1, 104268, Note_on_c, 7, 66, 96
1, 104306, Note_on_c, 0, 38, 0
1, 104346, Note_on_c, 7, 62, 0
1, 104346, Note_on_c, 5, 45, 0
1, 104350, Note_on_c, 7, 57, 0
1, 104352, Note_on_c, 0, 38, 98
1, 104356, Note_on_c, 7, 62, 75
1, 104360, Note_on_c, 7, 57, 66
1, 104398, Note_on_c, 0, 38, 0
1, 104428, Note_on_c, 1, 66, 0
1, 104428, Note_on_c, 1, 62, 0
1, 104428, Note_on_c, 1, 57, 0
1, 104428, Note_on_c, 1, 50, 0
1, 104436, Note_on_c, 7, 57, 0
1, 104436, Note_on_c, 7, 62, 0
1, 104436, Note_on_c, 1, 64, 76
1, 104436, Note_on_c, 1, 57, 82
1, 104436, Note_on_c, 1, 52, 78
1, 104436, Note_on_c, 1, 61, 82
1, 104438, Note_on_c, 7, 66, 0
1, 104448, Note_on_c, 7, 57, 88
1, 104448, Note_on_c, 9, 51, 59
1, 104448, Note_on_c, 9, 35, 119
1, 104448, Note_on_c, 5, 45, 103
1, 104448, Note_on_c, 0, 33, 107
1, 104448, Note_on_c, 9, 42, 90
1, 104453, Note_on_c, 7, 61, 94
1, 104454, Note_on_c, 9, 42, 0
1, 104454, Note_on_c, 9, 35, 0
1, 104454, Note_on_c, 9, 51, 0
1, 104458, Note_on_c, 5, 50, 0
1, 104458, Note_on_c, 5, 66, 0
1, 104458, Note_on_c, 5, 54, 0
1, 104460, Note_on_c, 7, 64, 99
1, 104544, Note_on_c, 9, 40, 98
1, 104550, Note_on_c, 9, 40, 0
1, 104612, Note_on_c, 2, 81, 0
1, 104630, Note_on_c, 7, 57, 0
1, 104632, Note_on_c, 5, 45, 0
1, 104636, Note_on_c, 7, 61, 0
1, 104640, Note_on_c, 2, 81, 110
1, 104640, Note_on_c, 9, 42, 69
1, 104640, Lyric_t, "a "
1, 104640, Note_on_c, 9, 51, 56
1, 104640, Note_on_c, 7, 57, 75
1, 104640, Note_on_c, 5, 45, 101
1, 104642, Note_on_c, 7, 64, 0
1, 104645, Note_on_c, 7, 61, 86
1, 104646, Note_on_c, 9, 51, 0
1, 104646, Note_on_c, 9, 42, 0
1, 104652, Note_on_c, 7, 64, 98
1, 104722, Note_on_c, 2, 81, 0
1, 104736, Lyric_t, "way  "
1, 104736, Note_on_c, 2, 79, 112
1, 104736, Lyric_t, "\015 "
1, 104818, Note_on_c, 2, 79, 0
1, 104822, Note_on_c, 7, 57, 0
1, 104828, Note_on_c, 7, 61, 0
1, 104832, Note_on_c, 7, 57, 86
1, 104832, Note_on_c, 9, 51, 60
1, 104832, Note_on_c, 5, 52, 99
1, 104832, Note_on_c, 5, 57, 105
1, 104832, Note_on_c, 5, 64, 106
1, 104832, Note_on_c, 2, 81, 111
1, 104832, Note_on_c, 9, 42, 93
1, 104832, Note_on_c, 9, 40, 96
1, 104834, Note_on_c, 7, 64, 0
1, 104837, Note_on_c, 7, 61, 99
1, 104838, Note_on_c, 9, 40, 0
1, 104838, Note_on_c, 9, 42, 0
1, 104838, Note_on_c, 9, 51, 0
1, 104844, Note_on_c, 7, 64, 108
1, 105014, Note_on_c, 7, 57, 0
1, 105020, Note_on_c, 7, 61, 0
1, 105024, Note_on_c, 7, 57, 78
1, 105024, Note_on_c, 9, 51, 57
1, 105024, Note_on_c, 9, 42, 67
1, 105026, Note_on_c, 7, 64, 0
1, 105029, Note_on_c, 7, 61, 80
1, 105030, Note_on_c, 9, 42, 0
1, 105030, Note_on_c, 9, 51, 0
1, 105036, Note_on_c, 7, 64, 90
1, 105092, Note_on_c, 0, 33, 0
1, 105106, Note_on_c, 2, 81, 0
1, 105114, Note_on_c, 7, 61, 0
1, 105114, Note_on_c, 5, 45, 0
1, 105118, Note_on_c, 7, 57, 0
1, 105120, Note_on_c, 9, 35, 88
1, 105120, Note_on_c, 0, 33, 100
1, 105124, Note_on_c, 7, 61, 83
1, 105126, Note_on_c, 9, 35, 0
1, 105128, Note_on_c, 7, 57, 69
1, 105180, Note_on_c, 0, 33, 0
1, 105198, Note_on_c, 5, 52, 0
1, 105202, Note_on_c, 7, 64, 0
1, 105204, Note_on_c, 7, 57, 0
1, 105212, Note_on_c, 7, 61, 0
1, 105216, Note_on_c, 9, 35, 118
1, 105216, Note_on_c, 7, 57, 86
1, 105216, Note_on_c, 0, 33, 104
1, 105216, Lyric_t, "ev "
1, 105216, Note_on_c, 9, 42, 92
1, 105216, Note_on_c, 5, 45, 97
1, 105216, Note_on_c, 2, 81, 110
1, 105216, Note_on_c, 9, 51, 53
1, 105221, Note_on_c, 7, 61, 91
1, 105222, Note_on_c, 9, 51, 0
1, 105222, Note_on_c, 9, 42, 0
1, 105222, Note_on_c, 9, 35, 0
1, 105228, Note_on_c, 7, 64, 100
1, 105228, Note_on_c, 7, 69, 93
1, 105272, Note_on_c, 5, 57, 0
1, 105272, Note_on_c, 5, 64, 0
1, 105298, Note_on_c, 2, 81, 0
1, 105302, Note_on_c, 7, 64, 0
1, 105306, Note_on_c, 7, 61, 0
1, 105310, Note_on_c, 7, 57, 0
1, 105312, Lyric_t, "ery  "
1, 105312, Note_on_c, 2, 79, 114
1, 105312, Note_on_c, 9, 40, 80
1, 105312, Note_on_c, 7, 64, 81
1, 105316, Note_on_c, 7, 61, 79
1, 105318, Note_on_c, 9, 40, 0
1, 105320, Note_on_c, 7, 57, 70
1, 105336, Note_on_c, 0, 33, 0
1, 105394, Note_on_c, 2, 79, 0
1, 105398, Note_on_c, 7, 57, 0
1, 105400, Note_on_c, 5, 45, 0
1, 105404, Note_on_c, 7, 61, 0
1, 105408, Note_on_c, 7, 57, 74
1, 105408, Note_on_c, 2, 81, 113
1, 105408, Note_on_c, 5, 45, 87
1, 105408, Note_on_c, 9, 46, 64
1, 105408, Note_on_c, 0, 33, 108
1, 105408, Note_on_c, 9, 35, 106
1, 105408, Note_on_c, 9, 51, 55
1, 105408, Lyric_t, "time  "
1, 105410, Note_on_c, 7, 64, 0
1, 105413, Note_on_c, 7, 61, 75
1, 105414, Note_on_c, 9, 51, 0
1, 105414, Note_on_c, 9, 35, 0
1, 105414, Note_on_c, 9, 46, 0
1, 105420, Note_on_c, 7, 64, 90
1, 105494, Note_on_c, 7, 64, 0
1, 105496, Note_on_c, 7, 69, 0
1, 105498, Note_on_c, 7, 61, 0
1, 105502, Note_on_c, 7, 57, 0
1, 105504, Note_on_c, 7, 64, 102
1, 105504, Note_on_c, 9, 40, 73
1, 105504, Note_on_c, 7, 69, 89
1, 105508, Note_on_c, 7, 61, 94
1, 105510, Note_on_c, 9, 40, 0
1, 105512, Note_on_c, 7, 57, 85
1, 105600, Note_on_c, 5, 52, 103
1, 105600, Note_on_c, 9, 57, 70
1, 105600, Note_on_c, 9, 42, 89
1, 105600, Note_on_c, 5, 57, 100
1, 105600, Note_on_c, 9, 40, 92
1, 105600, Note_on_c, 5, 64, 104
1, 105600, Note_on_c, 9, 51, 57
1, 105602, Note_on_c, 2, 81, 0
1, 105606, Note_on_c, 9, 40, 0
1, 105606, Note_on_c, 9, 42, 0
1, 105606, Note_on_c, 9, 57, 0
1, 105606, Note_on_c, 9, 51, 0
1, 105609, Lyric_t, "every  "
1, 105609, Note_on_c, 2, 84, 112
1, 105616, Note_on_c, 3, 76, 0
1, 105616, Note_on_c, 3, 69, 0
1, 105616, Note_on_c, 3, 64, 0
1, 105668, Note_on_c, 0, 33, 0
1, 105686, Note_on_c, 7, 64, 0
1, 105690, Note_on_c, 7, 61, 0
1, 105694, Note_on_c, 7, 57, 0
1, 105696, Note_on_c, 7, 64, 74
1, 105696, Note_on_c, 0, 33, 105
1, 105696, Note_on_c, 9, 47, 80
1, 105700, Note_on_c, 7, 61, 68
1, 105702, Note_on_c, 9, 47, 0
1, 105704, Note_on_c, 7, 57, 58
1, 105782, Note_on_c, 7, 57, 0
1, 105784, Note_on_c, 5, 52, 0
1, 105784, Note_on_c, 5, 45, 0
1, 105788, Note_on_c, 7, 61, 0
1, 105792, Note_on_c, 2, 84, 0
1, 105792, Note_on_c, 9, 40, 69
1, 105792, Note_on_c, 9, 51, 58
1, 105792, Note_on_c, 5, 45, 72
1, 105792, Note_on_c, 5, 52, 70
1, 105792, Note_on_c, 9, 46, 69
1, 105792, Note_on_c, 9, 45, 83
1, 105792, Note_on_c, 7, 57, 78
1, 105794, Note_on_c, 7, 64, 0
1, 105796, Note_on_c, 7, 69, 0
1, 105797, Note_on_c, 7, 61, 85
1, 105798, Note_on_c, 9, 45, 0
1, 105798, Note_on_c, 9, 46, 0
1, 105798, Note_on_c, 9, 51, 0
1, 105798, Note_on_c, 9, 40, 0
1, 105798, Lyric_t, "time  "
1, 105800, Note_on_c, 2, 81, 109
1, 105804, Note_on_c, 7, 69, 88
1, 105804, Note_on_c, 7, 64, 94
1, 105858, Note_on_c, 5, 52, 0
1, 105858, Note_on_c, 5, 45, 0
1, 105886, Note_on_c, 7, 57, 0
1, 105888, Note_on_c, 9, 45, 70
1, 105888, Note_on_c, 5, 52, 70
1, 105888, Note_on_c, 5, 45, 72
1, 105894, Note_on_c, 9, 45, 0
1, 105896, Note_on_c, 7, 57, 59
1, 105954, Note_on_c, 5, 45, 0
1, 105954, Note_on_c, 5, 52, 0
1, 105962, Note_on_c, 0, 33, 0
1, 105964, Note_on_c, 1, 57, 0
1, 105964, Note_on_c, 1, 52, 0
1, 105964, Note_on_c, 1, 64, 0
1, 105964, Note_on_c, 1, 61, 0
1, 105972, Note_on_c, 7, 57, 0
1, 105972, Note_on_c, 1, 62, 81
1, 105972, Note_on_c, 1, 67, 77
1, 105972, Note_on_c, 1, 55, 84
1, 105972, Note_on_c, 1, 59, 82
1, 105974, Note_on_c, 7, 64, 0
1, 105974, Note_on_c, 7, 61, 0
1, 105974, Note_on_c, 7, 69, 0
1, 105976, Note_on_c, 5, 64, 0
1, 105976, Note_on_c, 5, 57, 0
1, 105982, Note_on_c, 8, 76, 0
1, 105982, Note_on_c, 8, 69, 0
1, 105982, Note_on_c, 8, 64, 0
1, 105984, Note_on_c, 9, 42, 92
1, 105984, Note_on_c, 0, 31, 112
1, 105984, Note_on_c, 7, 59, 88
1, 105984, Note_on_c, 9, 49, 74
1, 105984, Note_on_c, 9, 51, 57
1, 105984, Note_on_c, 9, 35, 123
1, 105984, Note_on_c, 5, 43, 93
1, 105989, Note_on_c, 7, 62, 97
1, 105990, Note_on_c, 9, 35, 0
1, 105990, Note_on_c, 9, 51, 0
1, 105990, Note_on_c, 9, 49, 0
1, 105990, Note_on_c, 9, 42, 0
1, 105996, Note_on_c, 7, 67, 101
1, 106080, Note_on_c, 2, 81, 0
1, 106086, Lyric_t, "you  "
1, 106088, Note_on_c, 2, 79, 109
1, 106166, Note_on_c, 7, 59, 0
1, 106168, Note_on_c, 5, 43, 0
1, 106172, Note_on_c, 7, 62, 0
1, 106176, Note_on_c, 2, 79, 0
1, 106176, Note_on_c, 5, 43, 91
1, 106176, Note_on_c, 9, 51, 60
1, 106176, Note_on_c, 9, 42, 74
1, 106176, Note_on_c, 7, 59, 75
1, 106178, Note_on_c, 7, 67, 0
1, 106181, Note_on_c, 7, 62, 82
1, 106182, Note_on_c, 9, 42, 0
1, 106182, Note_on_c, 9, 51, 0
1, 106182, Lyric_t, "go.  "
1, 106182, Lyric_t, "\015 "
1, 106184, Note_on_c, 2, 81, 111
1, 106188, Note_on_c, 7, 67, 95
1, 106358, Note_on_c, 7, 59, 0
1, 106364, Note_on_c, 7, 62, 0
1, 106368, Note_on_c, 5, 55, 97
1, 106368, Note_on_c, 7, 59, 88
1, 106368, Note_on_c, 5, 67, 105
1, 106368, Note_on_c, 9, 42, 91
1, 106368, Note_on_c, 9, 40, 98
1, 106368, Note_on_c, 9, 51, 57
1, 106368, Note_on_c, 5, 50, 96
1, 106370, Note_on_c, 7, 67, 0
1, 106373, Note_on_c, 7, 62, 102
1, 106374, Note_on_c, 9, 51, 0
1, 106374, Note_on_c, 9, 42, 0
1, 106374, Note_on_c, 9, 40, 0
1, 106380, Note_on_c, 7, 67, 103
1, 106458, Note_on_c, 0, 31, 0
1, 106530, Note_on_c, 2, 81, 0
1, 106550, Note_on_c, 7, 59, 0
1, 106556, Note_on_c, 7, 62, 0
1, 106560, Note_on_c, 0, 31, 91
1, 106560, Note_on_c, 7, 59, 75
1, 106560, Note_on_c, 9, 51, 59
1, 106560, Note_on_c, 9, 42, 64
1, 106562, Note_on_c, 7, 67, 0
1, 106565, Note_on_c, 7, 62, 83
1, 106566, Note_on_c, 9, 42, 0
1, 106566, Note_on_c, 9, 51, 0
1, 106572, Note_on_c, 7, 67, 96
1, 106594, Note_on_c, 0, 31, 0
1, 106650, Note_on_c, 5, 43, 0
1, 106650, Note_on_c, 7, 62, 0
1, 106654, Note_on_c, 7, 59, 0
1, 106656, Note_on_c, 9, 35, 86
1, 106656, Note_on_c, 0, 31, 88
1, 106660, Note_on_c, 7, 62, 84
1, 106662, Note_on_c, 9, 35, 0
1, 106664, Note_on_c, 7, 59, 74
1, 106690, Note_on_c, 0, 31, 0
1, 106732, Note_on_c, 1, 55, 0
1, 106732, Note_on_c, 1, 62, 0
1, 106732, Note_on_c, 1, 59, 0
1, 106732, Note_on_c, 1, 67, 0
1, 106734, Note_on_c, 5, 50, 0
1, 106738, Note_on_c, 7, 67, 0
1, 106740, Note_on_c, 7, 59, 0
1, 106740, Note_on_c, 1, 57, 81
1, 106740, Note_on_c, 1, 50, 84
1, 106740, Note_on_c, 1, 62, 85
1, 106740, Note_on_c, 1, 66, 77
1, 106748, Note_on_c, 7, 62, 0
1, 106752, Note_on_c, 9, 42, 87
1, 106752, Note_on_c, 9, 35, 116
1, 106752, Note_on_c, 3, 69, 118
1, 106752, Note_on_c, 7, 57, 87
1, 106752, Note_on_c, 5, 45, 91
1, 106752, Note_on_c, 9, 51, 54
1, 106752, Note_on_c, 2, 78, 1
1, 106752, Note_on_c, 8, 78, 1
1, 106752, Note_on_c, 3, 74, 126
1, 106752, Lyric_t, "Cow "
1, 106752, Note_on_c, 8, 74, 1
1, 106752, Note_on_c, 0, 38, 101
1, 106752, Note_on_c, 8, 66, 1
1, 106752, Note_on_c, 3, 66, 124
1, 106752, Note_on_c, 8, 69, 1
1, 106752, Note_on_c, 3, 78, 120
1, 106757, Note_on_c, 7, 62, 90
1, 106758, Note_on_c, 9, 51, 0
1, 106758, Note_on_c, 9, 42, 0
1, 106758, Note_on_c, 9, 35, 0
1, 106764, Note_on_c, 7, 66, 101
1, 106808, Note_on_c, 5, 67, 0
1, 106808, Note_on_c, 5, 55, 0
1, 106838, Note_on_c, 7, 66, 0
1, 106842, Note_on_c, 7, 62, 0
1, 106846, Note_on_c, 7, 57, 0
1, 106848, Note_on_c, 7, 66, 82
1, 106852, Note_on_c, 7, 62, 78
1, 106856, Note_on_c, 0, 38, 0
1, 106856, Note_on_c, 7, 57, 62
1, 106926, Note_on_c, 3, 69, 0
1, 106926, Note_on_c, 3, 66, 0
1, 106926, Note_on_c, 3, 78, 0
1, 106926, Note_on_c, 2, 78, 0
1, 106926, Note_on_c, 3, 74, 0
1, 106934, Note_on_c, 7, 57, 0
1, 106936, Note_on_c, 5, 45, 0
1, 106940, Note_on_c, 7, 62, 0
1, 106942, Note_on_c, 8, 74, 0
1, 106942, Note_on_c, 8, 66, 0
1, 106942, Note_on_c, 8, 69, 0
1, 106942, Note_on_c, 8, 78, 0
1, 106944, Note_on_c, 9, 42, 74
1, 106944, Note_on_c, 8, 76, 1
1, 106944, Note_on_c, 3, 69, 120
1, 106944, Note_on_c, 3, 76, 124
1, 106944, Note_on_c, 8, 69, 1
1, 106944, Note_on_c, 8, 73, 1
1, 106944, Note_on_c, 9, 51, 61
1, 106944, Note_on_c, 2, 76, 1
1, 106944, Note_on_c, 7, 57, 74
1, 106944, Note_on_c, 3, 64, 121
1, 106944, Note_on_c, 3, 73, 121
1, 106944, Note_on_c, 8, 64, 1
1, 106944, Note_on_c, 5, 45, 88
1, 106944, Note_on_c, 9, 35, 108
1, 106944, Lyric_t, "boys  "
1, 106944, Note_on_c, 0, 38, 100
1, 106946, Note_on_c, 7, 66, 0
1, 106949, Note_on_c, 7, 62, 77
1, 106950, Note_on_c, 9, 35, 0
1, 106950, Note_on_c, 9, 51, 0
1, 106950, Note_on_c, 9, 42, 0
1, 106956, Note_on_c, 7, 66, 87
1, 107030, Note_on_c, 7, 66, 0
1, 107034, Note_on_c, 7, 62, 0
1, 107038, Note_on_c, 7, 57, 0
1, 107040, Note_on_c, 7, 66, 88
1, 107044, Note_on_c, 7, 62, 84
1, 107048, Note_on_c, 7, 57, 71
1, 107118, Note_on_c, 3, 69, 0
1, 107118, Note_on_c, 3, 76, 0
1, 107118, Note_on_c, 3, 73, 0
1, 107118, Note_on_c, 2, 76, 0
1, 107118, Note_on_c, 3, 64, 0
1, 107128, Note_on_c, 7, 57, 0
1, 107128, Note_on_c, 7, 62, 0
1, 107134, Note_on_c, 7, 66, 0
1, 107134, Note_on_c, 8, 69, 0
1, 107134, Note_on_c, 8, 64, 0
1, 107134, Note_on_c, 8, 73, 0
1, 107134, Note_on_c, 8, 76, 0
1, 107136, Note_on_c, 3, 62, 110
1, 107136, Note_on_c, 3, 69, 109
1, 107136, Note_on_c, 8, 74, 1
1, 107136, Note_on_c, 8, 66, 1
1, 107136, Note_on_c, 3, 66, 112
1, 107136, Note_on_c, 5, 50, 99
1, 107136, Note_on_c, 8, 69, 1
1, 107136, Note_on_c, 5, 66, 104
1, 107136, Note_on_c, 9, 42, 85
1, 107136, Note_on_c, 7, 57, 84
1, 107136, Note_on_c, 3, 74, 112
1, 107136, Lyric_t, "and  "
1, 107136, Note_on_c, 5, 54, 98
1, 107136, Note_on_c, 9, 51, 62
1, 107136, Note_on_c, 8, 62, 1
1, 107136, Note_on_c, 2, 74, 1
1, 107136, Note_on_c, 9, 40, 92
1, 107141, Note_on_c, 7, 62, 95
1, 107142, Note_on_c, 9, 40, 0
1, 107142, Note_on_c, 9, 51, 0
1, 107142, Note_on_c, 9, 42, 0
1, 107148, Note_on_c, 7, 66, 107
1, 107296, Note_on_c, 3, 74, 0
1, 107296, Note_on_c, 3, 69, 0
1, 107296, Note_on_c, 3, 62, 0
1, 107296, Note_on_c, 2, 74, 0
1, 107296, Note_on_c, 3, 66, 0
1, 107318, Note_on_c, 7, 57, 0
1, 107324, Note_on_c, 7, 62, 0
1, 107326, Note_on_c, 8, 62, 0
1, 107326, Note_on_c, 8, 74, 0
1, 107326, Note_on_c, 8, 66, 0
1, 107326, Note_on_c, 8, 69, 0
1, 107328, Note_on_c, 3, 69, 114
1, 107328, Note_on_c, 2, 78, 1
1, 107328, Note_on_c, 3, 74, 116
1, 107328, Lyric_t, "kiss "
1, 107328, Note_on_c, 8, 66, 1
1, 107328, Note_on_c, 8, 78, 1
1, 107328, Note_on_c, 7, 57, 75
1, 107328, Note_on_c, 3, 78, 110
1, 107328, Note_on_c, 8, 74, 1
1, 107328, Note_on_c, 8, 69, 1
1, 107328, Note_on_c, 3, 66, 111
1, 107328, Note_on_c, 9, 42, 67
1, 107328, Note_on_c, 9, 51, 57
1, 107330, Note_on_c, 7, 66, 0
1, 107333, Note_on_c, 7, 62, 82
1, 107334, Note_on_c, 9, 51, 0
1, 107334, Note_on_c, 9, 42, 0
1, 107340, Note_on_c, 7, 66, 95
1, 107378, Note_on_c, 0, 38, 0
1, 107418, Note_on_c, 7, 62, 0
1, 107418, Note_on_c, 5, 45, 0
1, 107422, Note_on_c, 7, 57, 0
1, 107424, Note_on_c, 0, 38, 94
1, 107428, Note_on_c, 7, 62, 77
1, 107432, Note_on_c, 7, 57, 72
1, 107444, Note_on_c, 3, 78, 0
1, 107444, Note_on_c, 3, 69, 0
1, 107444, Note_on_c, 3, 66, 0
1, 107444, Note_on_c, 3, 74, 0
1, 107444, Note_on_c, 2, 78, 0
1, 107470, Note_on_c, 0, 38, 0
1, 107500, Note_on_c, 1, 62, 0
1, 107500, Note_on_c, 1, 57, 0
1, 107500, Note_on_c, 1, 66, 0
1, 107500, Note_on_c, 1, 50, 0
1, 107508, Note_on_c, 7, 62, 0
1, 107508, Note_on_c, 7, 57, 0
1, 107508, Note_on_c, 1, 52, 77
1, 107508, Note_on_c, 1, 64, 80
1, 107508, Note_on_c, 1, 61, 80
1, 107508, Note_on_c, 1, 57, 83
1, 107510, Note_on_c, 7, 66, 0
1, 107518, Note_on_c, 8, 69, 0
1, 107518, Note_on_c, 8, 74, 0
1, 107518, Note_on_c, 8, 78, 0
1, 107518, Note_on_c, 8, 66, 0
1, 107520, Note_on_c, 2, 76, 1
1, 107520, Note_on_c, 7, 57, 89
1, 107520, Note_on_c, 8, 64, 1
1, 107520, Note_on_c, 3, 76, 121
1, 107520, Note_on_c, 0, 33, 112
1, 107520, Note_on_c, 3, 69, 113
1, 107520, Lyric_t, "es  "
1, 107520, Note_on_c, 5, 45, 100
1, 107520, Note_on_c, 8, 76, 1
1, 107520, Note_on_c, 9, 51, 60
1, 107520, Note_on_c, 3, 73, 115
1, 107520, Note_on_c, 8, 73, 1
1, 107520, Note_on_c, 9, 42, 86
1, 107520, Lyric_t, "\015 "
1, 107520, Note_on_c, 8, 69, 1
1, 107520, Note_on_c, 3, 64, 118
1, 107520, Note_on_c, 9, 35, 124
1, 107525, Note_on_c, 7, 61, 96
1, 107526, Note_on_c, 9, 35, 0
1, 107526, Note_on_c, 9, 42, 0
1, 107526, Note_on_c, 9, 51, 0
1, 107530, Note_on_c, 5, 54, 0
1, 107530, Note_on_c, 5, 50, 0
1, 107530, Note_on_c, 5, 66, 0
1, 107532, Note_on_c, 7, 64, 106
1, 107702, Note_on_c, 7, 57, 0
1, 107704, Note_on_c, 5, 45, 0
1, 107708, Note_on_c, 7, 61, 0
1, 107712, Note_on_c, 9, 51, 60
1, 107712, Note_on_c, 5, 45, 97
1, 107712, Note_on_c, 9, 42, 74
1, 107712, Note_on_c, 7, 57, 75
1, 107714, Note_on_c, 7, 64, 0
1, 107717, Note_on_c, 7, 61, 90
1, 107718, Note_on_c, 9, 42, 0
1, 107718, Note_on_c, 9, 51, 0
1, 107724, Note_on_c, 7, 64, 94
1, 107894, Note_on_c, 7, 57, 0
1, 107900, Note_on_c, 7, 61, 0
1, 107904, Note_on_c, 5, 52, 100
1, 107904, Note_on_c, 5, 57, 102
1, 107904, Note_on_c, 9, 40, 94
1, 107904, Note_on_c, 9, 42, 85
1, 107904, Note_on_c, 9, 51, 62
1, 107904, Note_on_c, 7, 57, 91
1, 107904, Note_on_c, 5, 64, 100
1, 107906, Note_on_c, 7, 64, 0
1, 107909, Note_on_c, 7, 61, 100
1, 107910, Note_on_c, 9, 51, 0
1, 107910, Note_on_c, 9, 42, 0
1, 107910, Note_on_c, 9, 40, 0
1, 107916, Note_on_c, 7, 64, 110
1, 108086, Note_on_c, 7, 57, 0
1, 108092, Note_on_c, 7, 61, 0
1, 108096, Note_on_c, 9, 42, 70
1, 108096, Note_on_c, 7, 57, 73
1, 108096, Note_on_c, 9, 51, 62
1, 108098, Note_on_c, 7, 64, 0
1, 108101, Note_on_c, 7, 61, 81
1, 108102, Note_on_c, 9, 51, 0
1, 108102, Note_on_c, 9, 42, 0
1, 108108, Note_on_c, 7, 64, 91
1, 108164, Note_on_c, 0, 33, 0
1, 108186, Note_on_c, 7, 61, 0
1, 108186, Note_on_c, 5, 45, 0
1, 108190, Note_on_c, 7, 57, 0
1, 108192, Note_on_c, 0, 33, 105
1, 108192, Note_on_c, 9, 35, 90
1, 108196, Note_on_c, 7, 61, 80
1, 108198, Note_on_c, 9, 35, 0
1, 108200, Note_on_c, 7, 57, 68
1, 108232, Note_on_c, 0, 33, 0
1, 108270, Note_on_c, 5, 52, 0
1, 108274, Note_on_c, 7, 64, 0
1, 108276, Note_on_c, 7, 57, 0
1, 108284, Note_on_c, 7, 61, 0
1, 108288, Note_on_c, 9, 35, 119
1, 108288, Note_on_c, 5, 45, 92
1, 108288, Note_on_c, 9, 42, 85
1, 108288, Lyric_t, "always  "
1, 108288, Note_on_c, 0, 33, 110
1, 108288, Note_on_c, 2, 88, 115
1, 108288, Note_on_c, 7, 57, 90
1, 108288, Note_on_c, 9, 51, 59
1, 108293, Note_on_c, 7, 61, 96
1, 108294, Note_on_c, 9, 51, 0
1, 108294, Note_on_c, 9, 42, 0
1, 108294, Note_on_c, 9, 35, 0
1, 108300, Note_on_c, 7, 64, 100
1, 108344, Note_on_c, 5, 57, 0
1, 108344, Note_on_c, 5, 64, 0
1, 108366, Note_on_c, 0, 33, 0
1, 108374, Note_on_c, 7, 64, 0
1, 108378, Note_on_c, 7, 61, 0
1, 108382, Note_on_c, 7, 57, 0
1, 108384, Note_on_c, 7, 64, 85
1, 108388, Note_on_c, 7, 61, 77
1, 108392, Note_on_c, 7, 57, 63
1, 108470, Note_on_c, 7, 57, 0
1, 108470, Note_on_c, 2, 88, 0
1, 108472, Note_on_c, 5, 45, 0
1, 108476, Note_on_c, 7, 61, 0
1, 108476, Lyric_t, "seem  "
1, 108477, Note_on_c, 2, 86, 113
1, 108480, Note_on_c, 0, 33, 106
1, 108480, Note_on_c, 9, 51, 62
1, 108480, Note_on_c, 7, 57, 70
1, 108480, Note_on_c, 5, 45, 85
1, 108480, Note_on_c, 9, 42, 72
1, 108480, Note_on_c, 9, 35, 107
1, 108482, Note_on_c, 7, 64, 0
1, 108485, Note_on_c, 7, 61, 81
1, 108486, Note_on_c, 9, 35, 0
1, 108486, Note_on_c, 9, 42, 0
1, 108486, Note_on_c, 9, 51, 0
1, 108492, Note_on_c, 7, 64, 89
1, 108566, Note_on_c, 7, 64, 0
1, 108568, Note_on_c, 2, 86, 0
1, 108570, Note_on_c, 7, 61, 0
1, 108574, Note_on_c, 7, 57, 0
1, 108576, Note_on_c, 7, 64, 93
1, 108576, Lyric_t, "to  "
1, 108576, Note_on_c, 2, 85, 113
1, 108580, Note_on_c, 7, 61, 80
1, 108584, Note_on_c, 7, 57, 76
1, 108662, Note_on_c, 2, 85, 0
1, 108664, Note_on_c, 7, 57, 0
1, 108664, Note_on_c, 7, 61, 0
1, 108670, Note_on_c, 7, 64, 0
1, 108672, Note_on_c, 9, 40, 96
1, 108672, Note_on_c, 5, 52, 101
1, 108672, Note_on_c, 9, 51, 62
1, 108672, Note_on_c, 5, 57, 103
1, 108672, Lyric_t, "bring  "
1, 108672, Note_on_c, 2, 86, 115
1, 108672, Note_on_c, 9, 42, 86
1, 108672, Note_on_c, 7, 57, 84
1, 108672, Note_on_c, 5, 64, 98
1, 108677, Note_on_c, 7, 61, 94
1, 108678, Note_on_c, 9, 42, 0
1, 108678, Note_on_c, 9, 51, 0
1, 108678, Note_on_c, 9, 40, 0
1, 108684, Note_on_c, 7, 64, 108
1, 108758, Note_on_c, 2, 86, 0
1, 108764, Lyric_t, "me  "
1, 108765, Note_on_c, 2, 85, 108
1, 108836, Note_on_c, 0, 33, 0
1, 108854, Note_on_c, 3, 73, 0
1, 108854, Note_on_c, 2, 76, 0
1, 108854, Note_on_c, 3, 64, 0
1, 108854, Note_on_c, 3, 76, 0
1, 108854, Note_on_c, 7, 57, 0
1, 108854, Note_on_c, 3, 69, 0
1, 108856, Note_on_c, 5, 52, 0
1, 108856, Note_on_c, 2, 85, 0
1, 108856, Note_on_c, 5, 45, 0
1, 108860, Note_on_c, 7, 61, 0
1, 108864, Note_on_c, 5, 52, 76
1, 108864, Note_on_c, 5, 45, 75
1, 108864, Note_on_c, 9, 51, 59
1, 108864, Note_on_c, 0, 38, 106
1, 108864, Note_on_c, 2, 81, 111
1, 108864, Note_on_c, 7, 57, 78
1, 108864, Lyric_t, "down.  "
1, 108864, Note_on_c, 9, 46, 69
1, 108864, Lyric_t, "\015 "
1, 108866, Note_on_c, 7, 64, 0
1, 108869, Note_on_c, 7, 61, 82
1, 108870, Note_on_c, 9, 46, 0
1, 108870, Note_on_c, 9, 51, 0
1, 108876, Note_on_c, 7, 64, 94
1, 108930, Note_on_c, 5, 52, 0
1, 108930, Note_on_c, 5, 45, 0
1, 108954, Note_on_c, 7, 61, 0
1, 108958, Note_on_c, 7, 57, 0
1, 108960, Note_on_c, 5, 52, 73
1, 108960, Note_on_c, 5, 45, 69
1, 108964, Note_on_c, 7, 61, 81
1, 108968, Note_on_c, 7, 57, 67
1, 109026, Note_on_c, 5, 45, 0
1, 109026, Note_on_c, 5, 52, 0
1, 109034, Note_on_c, 0, 38, 0
1, 109036, Note_on_c, 1, 64, 0
1, 109036, Note_on_c, 1, 52, 0
1, 109036, Note_on_c, 1, 61, 0
1, 109036, Note_on_c, 1, 57, 0
1, 109044, Note_on_c, 7, 57, 0
1, 109044, Note_on_c, 7, 61, 0
1, 109044, Note_on_c, 1, 55, 79
1, 109044, Note_on_c, 1, 67, 84
1, 109044, Note_on_c, 1, 59, 80
1, 109044, Note_on_c, 1, 62, 79
1, 109046, Note_on_c, 7, 64, 0
1, 109048, Note_on_c, 5, 57, 0
1, 109048, Note_on_c, 5, 64, 0
1, 109054, Note_on_c, 8, 64, 0
1, 109054, Note_on_c, 8, 69, 0
1, 109054, Note_on_c, 8, 76, 0
1, 109054, Note_on_c, 8, 73, 0
1, 109056, Note_on_c, 5, 43, 90
1, 109056, Note_on_c, 9, 35, 126
1, 109056, Note_on_c, 9, 42, 88
1, 109056, Note_on_c, 5, 55, 105
1, 109056, Note_on_c, 9, 51, 56
1, 109056, Note_on_c, 7, 59, 89
1, 109056, Note_on_c, 0, 31, 106
1, 109056, Note_on_c, 9, 49, 77
1, 109061, Note_on_c, 7, 62, 96
1, 109062, Note_on_c, 9, 49, 0
1, 109062, Note_on_c, 9, 42, 0
1, 109062, Note_on_c, 9, 35, 0
1, 109062, Note_on_c, 9, 51, 0
1, 109068, Note_on_c, 7, 67, 107
1, 109226, Note_on_c, 2, 81, 0
1, 109232, Lyric_t, "You're  "
1, 109233, Note_on_c, 2, 84, 115
1, 109238, Note_on_c, 7, 59, 0
1, 109240, Note_on_c, 5, 55, 0
1, 109240, Note_on_c, 5, 43, 0
1, 109244, Note_on_c, 7, 62, 0
1, 109248, Note_on_c, 5, 43, 91
1, 109248, Note_on_c, 9, 42, 66
1, 109248, Note_on_c, 7, 59, 82
1, 109248, Note_on_c, 5, 55, 98
1, 109248, Note_on_c, 9, 51, 55
1, 109250, Note_on_c, 7, 67, 0
1, 109253, Note_on_c, 7, 62, 89
1, 109254, Note_on_c, 9, 42, 0
1, 109254, Note_on_c, 9, 51, 0
1, 109260, Note_on_c, 7, 67, 96
1, 109322, Note_on_c, 2, 84, 0
1, 109328, Lyric_t, "like  "
1, 109329, Note_on_c, 2, 81, 115
1, 109430, Note_on_c, 7, 59, 0
1, 109434, Note_on_c, 0, 31, 0
1, 109436, Note_on_c, 5, 55, 0
1, 109436, Note_on_c, 7, 62, 0
1, 109440, Note_on_c, 5, 50, 100
1, 109440, Note_on_c, 9, 42, 91
1, 109440, Note_on_c, 7, 59, 91
1, 109440, Note_on_c, 5, 67, 103
1, 109440, Note_on_c, 9, 51, 59
1, 109440, Note_on_c, 9, 40, 96
1, 109440, Note_on_c, 5, 55, 108
1, 109442, Note_on_c, 7, 67, 0
1, 109445, Note_on_c, 7, 62, 100
1, 109446, Note_on_c, 9, 42, 0
1, 109446, Note_on_c, 9, 40, 0
1, 109446, Note_on_c, 9, 51, 0
1, 109452, Note_on_c, 7, 67, 110
1, 109536, Note_on_c, 0, 31, 92
1, 109570, Note_on_c, 0, 31, 0
1, 109622, Note_on_c, 7, 59, 0
1, 109624, Note_on_c, 5, 50, 0
1, 109624, Note_on_c, 5, 55, 0
1, 109628, Note_on_c, 7, 62, 0
1, 109632, Note_on_c, 7, 59, 74
1, 109632, Note_on_c, 5, 55, 88
1, 109632, Note_on_c, 5, 50, 71
1, 109632, Note_on_c, 9, 42, 72
1, 109632, Note_on_c, 0, 35, 86
1, 109632, Note_on_c, 9, 51, 55
1, 109634, Note_on_c, 7, 67, 0
1, 109637, Note_on_c, 7, 62, 86
1, 109638, Note_on_c, 9, 51, 0
1, 109638, Note_on_c, 9, 42, 0
1, 109644, Note_on_c, 7, 67, 91
1, 109698, Note_on_c, 0, 35, 0
1, 109714, Note_on_c, 5, 50, 0
1, 109714, Note_on_c, 5, 55, 0
1, 109720, Note_on_c, 2, 81, 0
1, 109722, Note_on_c, 5, 43, 0
1, 109722, Note_on_c, 7, 62, 0
1, 109726, Note_on_c, 7, 59, 0
1, 109728, Note_on_c, 9, 35, 89
1, 109728, Note_on_c, 5, 55, 74
1, 109728, Note_on_c, 5, 50, 64
1, 109728, Note_on_c, 0, 37, 80
1, 109732, Note_on_c, 7, 62, 76
1, 109734, Note_on_c, 9, 35, 0
1, 109736, Note_on_c, 7, 59, 75
1, 109794, Note_on_c, 0, 37, 0
1, 109804, Note_on_c, 1, 55, 0
1, 109804, Note_on_c, 1, 59, 0
1, 109804, Note_on_c, 1, 67, 0
1, 109804, Note_on_c, 1, 62, 0
1, 109810, Note_on_c, 5, 50, 0
1, 109810, Note_on_c, 5, 55, 0
1, 109810, Note_on_c, 7, 67, 0
1, 109812, Note_on_c, 7, 59, 0
1, 109812, Note_on_c, 1, 66, 82
1, 109812, Note_on_c, 1, 57, 78
1, 109812, Note_on_c, 1, 62, 78
1, 109812, Note_on_c, 1, 50, 78
1, 109820, Note_on_c, 7, 62, 0
1, 109824, Note_on_c, 5, 55, 99
1, 109824, Note_on_c, 8, 74, 1
1, 109824, Note_on_c, 8, 78, 1
1, 109824, Note_on_c, 7, 57, 88
1, 109824, Note_on_c, 5, 45, 96
1, 109824, Lyric_t, "weight  "
1, 109824, Note_on_c, 9, 51, 56
1, 109824, Note_on_c, 3, 78, 117
1, 109824, Note_on_c, 8, 69, 1
1, 109824, Note_on_c, 9, 35, 116
1, 109824, Note_on_c, 9, 42, 92
1, 109824, Note_on_c, 2, 78, 1
1, 109824, Note_on_c, 3, 74, 122
1, 109824, Note_on_c, 3, 69, 118
1, 109824, Note_on_c, 3, 66, 122
1, 109824, Note_on_c, 8, 66, 1
1, 109824, Note_on_c, 0, 38, 104
1, 109829, Note_on_c, 7, 62, 90
1, 109830, Note_on_c, 9, 42, 0
1, 109830, Note_on_c, 9, 35, 0
1, 109830, Note_on_c, 9, 51, 0
1, 109836, Note_on_c, 7, 66, 100
1, 109880, Note_on_c, 5, 67, 0
1, 109910, Note_on_c, 7, 66, 0
1, 109914, Note_on_c, 7, 62, 0
1, 109914, Note_on_c, 5, 55, 0
1, 109918, Note_on_c, 7, 57, 0
1, 109920, Note_on_c, 7, 66, 81
1, 109920, Note_on_c, 5, 54, 86
1, 109924, Note_on_c, 7, 62, 71
1, 109928, Note_on_c, 7, 57, 62
1, 109948, Note_on_c, 0, 38, 0
1, 109998, Note_on_c, 3, 66, 0
1, 109998, Note_on_c, 2, 78, 0
1, 109998, Note_on_c, 3, 69, 0
1, 109998, Note_on_c, 3, 74, 0
1, 109998, Note_on_c, 3, 78, 0
1, 110006, Note_on_c, 7, 57, 0
1, 110008, Note_on_c, 5, 54, 0
1, 110008, Note_on_c, 5, 45, 0
1, 110012, Note_on_c, 7, 62, 0
1, 110014, Note_on_c, 8, 74, 0
1, 110014, Note_on_c, 8, 78, 0
1, 110014, Note_on_c, 8, 69, 0
1, 110014, Note_on_c, 8, 66, 0
1, 110016, Note_on_c, 8, 76, 1
1, 110016, Note_on_c, 8, 69, 1
1, 110016, Note_on_c, 3, 73, 120
1, 110016, Note_on_c, 3, 76, 117
1, 110016, Note_on_c, 9, 42, 67
1, 110016, Note_on_c, 8, 73, 1
1, 110016, Note_on_c, 2, 76, 1
1, 110016, Note_on_c, 5, 45, 81
1, 110016, Note_on_c, 9, 51, 61
1, 110016, Note_on_c, 9, 35, 108
1, 110016, Note_on_c, 7, 57, 72
1, 110016, Note_on_c, 3, 64, 117
1, 110016, Note_on_c, 3, 69, 125
1, 110016, Note_on_c, 8, 64, 1
1, 110016, Note_on_c, 5, 54, 93
1, 110016, Lyric_t, "in  "
1, 110016, Note_on_c, 0, 38, 102
1, 110018, Note_on_c, 7, 66, 0
1, 110021, Note_on_c, 7, 62, 76
1, 110022, Note_on_c, 9, 42, 0
1, 110022, Note_on_c, 9, 35, 0
1, 110022, Note_on_c, 9, 51, 0
1, 110028, Note_on_c, 7, 66, 90
1, 110102, Note_on_c, 7, 66, 0
1, 110106, Note_on_c, 7, 62, 0
1, 110110, Note_on_c, 7, 57, 0
1, 110112, Note_on_c, 7, 66, 87
1, 110116, Note_on_c, 7, 62, 87
1, 110120, Note_on_c, 7, 57, 77
1, 110190, Note_on_c, 3, 69, 0
1, 110190, Note_on_c, 3, 73, 0
1, 110190, Note_on_c, 3, 64, 0
1, 110190, Note_on_c, 3, 76, 0
1, 110190, Note_on_c, 2, 76, 0
1, 110200, Note_on_c, 7, 62, 0
1, 110200, Note_on_c, 7, 57, 0
1, 110200, Note_on_c, 5, 54, 0
1, 110206, Note_on_c, 7, 66, 0
1, 110206, Note_on_c, 8, 64, 0
1, 110206, Note_on_c, 8, 73, 0
1, 110206, Note_on_c, 8, 69, 0
1, 110206, Note_on_c, 8, 76, 0
1, 110208, Note_on_c, 8, 69, 1
1, 110208, Note_on_c, 9, 42, 87
1, 110208, Note_on_c, 8, 74, 1
1, 110208, Note_on_c, 5, 50, 100
1, 110208, Note_on_c, 9, 51, 58
1, 110208, Note_on_c, 8, 62, 1
1, 110208, Note_on_c, 5, 54, 111
1, 110208, Note_on_c, 9, 40, 94
1, 110208, Lyric_t, "my  "
1, 110208, Note_on_c, 7, 57, 90
1, 110208, Note_on_c, 8, 66, 1
1, 110208, Note_on_c, 3, 62, 112
1, 110208, Note_on_c, 3, 66, 116
1, 110208, Note_on_c, 5, 66, 104
1, 110208, Note_on_c, 2, 74, 1
1, 110208, Note_on_c, 3, 69, 115
1, 110208, Note_on_c, 3, 74, 110
1, 110213, Note_on_c, 7, 62, 98
1, 110214, Note_on_c, 9, 40, 0
1, 110214, Note_on_c, 9, 42, 0
1, 110214, Note_on_c, 9, 51, 0
1, 110220, Note_on_c, 7, 66, 106
1, 110368, Note_on_c, 3, 66, 0
1, 110368, Note_on_c, 3, 62, 0
1, 110368, Note_on_c, 3, 74, 0
1, 110368, Note_on_c, 2, 74, 0
1, 110368, Note_on_c, 3, 69, 0
1, 110390, Note_on_c, 7, 57, 0
1, 110396, Note_on_c, 7, 62, 0
1, 110398, Note_on_c, 8, 66, 0
1, 110398, Note_on_c, 8, 69, 0
1, 110398, Note_on_c, 8, 74, 0
1, 110398, Note_on_c, 8, 62, 0
1, 110400, Note_on_c, 3, 66, 111
1, 110400, Note_on_c, 8, 66, 1
1, 110400, Note_on_c, 9, 42, 68
1, 110400, Note_on_c, 7, 57, 72
1, 110400, Note_on_c, 8, 78, 1
1, 110400, Note_on_c, 3, 69, 116
1, 110400, Lyric_t, "pock "
1, 110400, Note_on_c, 9, 51, 61
1, 110400, Note_on_c, 2, 78, 1
1, 110400, Note_on_c, 8, 74, 1
1, 110400, Note_on_c, 8, 69, 1
1, 110400, Note_on_c, 3, 78, 111
1, 110400, Note_on_c, 3, 74, 110
1, 110402, Note_on_c, 7, 66, 0
1, 110405, Note_on_c, 7, 62, 81
1, 110406, Note_on_c, 9, 51, 0
1, 110406, Note_on_c, 9, 42, 0
1, 110412, Note_on_c, 7, 66, 93
1, 110450, Note_on_c, 0, 38, 0
1, 110490, Note_on_c, 7, 62, 0
1, 110490, Note_on_c, 5, 45, 0
1, 110494, Note_on_c, 7, 57, 0
1, 110496, Note_on_c, 0, 38, 92
1, 110500, Note_on_c, 7, 62, 78
1, 110504, Note_on_c, 7, 57, 66
1, 110516, Note_on_c, 3, 66, 0
1, 110516, Note_on_c, 3, 69, 0
1, 110516, Note_on_c, 2, 78, 0
1, 110516, Note_on_c, 3, 74, 0
1, 110516, Note_on_c, 3, 78, 0
1, 110542, Note_on_c, 0, 38, 0
1, 110572, Note_on_c, 1, 57, 0
1, 110572, Note_on_c, 1, 50, 0
1, 110572, Note_on_c, 1, 62, 0
1, 110572, Note_on_c, 1, 66, 0
1, 110580, Note_on_c, 7, 62, 0
1, 110580, Note_on_c, 7, 57, 0
1, 110580, Note_on_c, 1, 52, 79
1, 110580, Note_on_c, 1, 64, 82
1, 110580, Note_on_c, 1, 57, 77
1, 110580, Note_on_c, 1, 61, 81
1, 110582, Note_on_c, 7, 66, 0
1, 110590, Note_on_c, 8, 78, 0
1, 110590, Note_on_c, 8, 74, 0
1, 110590, Note_on_c, 8, 66, 0
1, 110590, Note_on_c, 8, 69, 0
1, 110592, Note_on_c, 8, 76, 1
1, 110592, Note_on_c, 9, 42, 90
1, 110592, Note_on_c, 9, 35, 124
1, 110592, Note_on_c, 8, 64, 1
1, 110592, Note_on_c, 8, 69, 1
1, 110592, Note_on_c, 7, 57, 84
1, 110592, Note_on_c, 0, 33, 109
1, 110592, Note_on_c, 3, 76, 116
1, 110592, Note_on_c, 9, 51, 62
1, 110592, Note_on_c, 3, 69, 116
1, 110592, Lyric_t, "\015 "
1, 110592, Note_on_c, 8, 73, 1
1, 110592, Note_on_c, 2, 76, 1
1, 110592, Note_on_c, 5, 45, 95
1, 110592, Note_on_c, 3, 73, 121
1, 110592, Lyric_t, "et  "
1, 110592, Note_on_c, 3, 64, 114
1, 110597, Note_on_c, 7, 61, 93
1, 110598, Note_on_c, 9, 51, 0
1, 110598, Note_on_c, 9, 35, 0
1, 110598, Note_on_c, 9, 42, 0
1, 110602, Note_on_c, 5, 66, 0
1, 110602, Note_on_c, 5, 50, 0
1, 110602, Note_on_c, 5, 54, 0
1, 110604, Note_on_c, 7, 64, 100
1, 110688, Lyric_t, "You're  "
1, 110688, Note_on_c, 2, 79, 112
1, 110770, Note_on_c, 2, 79, 0
1, 110774, Note_on_c, 7, 57, 0
1, 110776, Note_on_c, 5, 45, 0
1, 110780, Note_on_c, 7, 61, 0
1, 110784, Note_on_c, 5, 45, 99
1, 110784, Note_on_c, 7, 57, 78
1, 110784, Note_on_c, 2, 81, 112
1, 110784, Note_on_c, 9, 51, 54
1, 110784, Lyric_t, "like  "
1, 110784, Note_on_c, 9, 42, 67
1, 110786, Note_on_c, 7, 64, 0
1, 110789, Note_on_c, 7, 61, 89
1, 110790, Note_on_c, 9, 42, 0
1, 110790, Note_on_c, 9, 51, 0
1, 110796, Note_on_c, 7, 64, 99
1, 110866, Note_on_c, 2, 81, 0
1, 110880, Lyric_t, "a  "
1, 110880, Note_on_c, 2, 79, 113
1, 110962, Note_on_c, 2, 79, 0
1, 110966, Note_on_c, 7, 57, 0
1, 110972, Note_on_c, 7, 61, 0
1, 110976, Note_on_c, 7, 57, 85
1, 110976, Lyric_t, "weight  "
1, 110976, Note_on_c, 2, 81, 110
1, 110976, Note_on_c, 5, 52, 93
1, 110976, Note_on_c, 5, 64, 104
1, 110976, Note_on_c, 9, 42, 87
1, 110976, Note_on_c, 9, 40, 91
1, 110976, Note_on_c, 5, 57, 101
1, 110976, Note_on_c, 9, 51, 57
1, 110976, Lyric_t, "\015 "
1, 110978, Note_on_c, 7, 64, 0
1, 110981, Note_on_c, 7, 61, 99
1, 110982, Note_on_c, 9, 40, 0
1, 110982, Note_on_c, 9, 42, 0
1, 110982, Note_on_c, 9, 51, 0
1, 110988, Note_on_c, 7, 64, 106
1, 111158, Note_on_c, 7, 57, 0
1, 111164, Note_on_c, 7, 61, 0
1, 111168, Note_on_c, 9, 42, 66
1, 111168, Note_on_c, 9, 51, 60
1, 111168, Note_on_c, 7, 57, 71
1, 111170, Note_on_c, 7, 64, 0
1, 111173, Note_on_c, 7, 61, 83
1, 111174, Note_on_c, 9, 51, 0
1, 111174, Note_on_c, 9, 42, 0
1, 111180, Note_on_c, 7, 64, 98
1, 111236, Note_on_c, 0, 33, 0
1, 111250, Note_on_c, 2, 81, 0
1, 111258, Note_on_c, 5, 45, 0
1, 111258, Note_on_c, 7, 61, 0
1, 111262, Note_on_c, 7, 57, 0
1, 111264, Note_on_c, 2, 79, 111
1, 111264, Note_on_c, 0, 40, 101
1, 111264, Note_on_c, 9, 35, 85
1, 111264, Lyric_t, "you're  "
1, 111268, Note_on_c, 7, 61, 82
1, 111270, Note_on_c, 9, 35, 0
1, 111272, Note_on_c, 7, 57, 69
1, 111324, Note_on_c, 0, 40, 0
1, 111342, Note_on_c, 5, 52, 0
1, 111346, Note_on_c, 2, 79, 0
1, 111346, Note_on_c, 7, 64, 0
1, 111348, Note_on_c, 7, 57, 0
1, 111356, Note_on_c, 7, 61, 0
1, 111360, Note_on_c, 0, 33, 104
1, 111360, Note_on_c, 7, 57, 88
1, 111360, Note_on_c, 5, 45, 89
1, 111360, Note_on_c, 9, 42, 92
1, 111360, Note_on_c, 9, 51, 54
1, 111360, Note_on_c, 2, 81, 113
1, 111360, Note_on_c, 9, 35, 116
1, 111360, Lyric_t, "like  "
1, 111365, Note_on_c, 7, 61, 90
1, 111366, Note_on_c, 9, 35, 0
1, 111366, Note_on_c, 9, 51, 0
1, 111366, Note_on_c, 9, 42, 0
1, 111372, Note_on_c, 7, 69, 94
1, 111372, Note_on_c, 7, 64, 101
1, 111416, Note_on_c, 5, 64, 0
1, 111416, Note_on_c, 5, 57, 0
1, 111442, Note_on_c, 2, 81, 0
1, 111446, Note_on_c, 7, 64, 0
1, 111450, Note_on_c, 7, 61, 0
1, 111454, Note_on_c, 7, 57, 0
1, 111456, Lyric_t, "a  "
1, 111456, Note_on_c, 2, 79, 114
1, 111456, Note_on_c, 7, 64, 83
1, 111460, Note_on_c, 7, 61, 76
1, 111464, Note_on_c, 7, 57, 66
1, 111480, Note_on_c, 0, 33, 0
1, 111538, Note_on_c, 2, 79, 0
1, 111542, Note_on_c, 7, 57, 0
1, 111544, Note_on_c, 5, 45, 0
1, 111548, Note_on_c, 7, 61, 0
1, 111552, Note_on_c, 5, 45, 90
1, 111552, Note_on_c, 2, 81, 112
1, 111552, Lyric_t, "\015 "
1, 111552, Note_on_c, 9, 35, 106
1, 111552, Note_on_c, 7, 57, 68
1, 111552, Note_on_c, 9, 46, 63
1, 111552, Note_on_c, 9, 51, 54
1, 111552, Lyric_t, "weight  "
1, 111552, Note_on_c, 0, 33, 107
1, 111554, Note_on_c, 7, 64, 0
1, 111557, Note_on_c, 7, 61, 76
1, 111558, Note_on_c, 9, 51, 0
1, 111558, Note_on_c, 9, 46, 0
1, 111558, Note_on_c, 9, 35, 0
1, 111564, Note_on_c, 7, 64, 88
1, 111638, Note_on_c, 7, 64, 0
1, 111640, Note_on_c, 7, 69, 0
1, 111642, Note_on_c, 7, 61, 0
1, 111646, Note_on_c, 7, 57, 0
1, 111648, Note_on_c, 7, 64, 99
1, 111648, Note_on_c, 9, 40, 71
1, 111648, Note_on_c, 7, 69, 93
1, 111652, Note_on_c, 7, 61, 92
1, 111654, Note_on_c, 9, 40, 0
1, 111656, Note_on_c, 7, 57, 87
1, 111744, Note_on_c, 5, 57, 97
1, 111744, Note_on_c, 9, 51, 58
1, 111744, Note_on_c, 9, 40, 98
1, 111744, Note_on_c, 9, 42, 86
1, 111744, Note_on_c, 5, 52, 101
1, 111744, Note_on_c, 5, 64, 103
1, 111746, Note_on_c, 2, 81, 0
1, 111750, Note_on_c, 9, 40, 0
1, 111750, Note_on_c, 9, 51, 0
1, 111750, Note_on_c, 9, 42, 0
1, 111753, Lyric_t, "yeah  "
1, 111753, Note_on_c, 2, 84, 115
1, 111812, Note_on_c, 0, 33, 0
1, 111830, Note_on_c, 7, 64, 0
1, 111834, Note_on_c, 7, 61, 0
1, 111838, Note_on_c, 7, 57, 0
1, 111840, Note_on_c, 7, 64, 79
1, 111840, Note_on_c, 0, 33, 101
1, 111840, Note_on_c, 9, 40, 80
1, 111844, Note_on_c, 7, 61, 69
1, 111846, Note_on_c, 9, 40, 0
1, 111848, Note_on_c, 7, 57, 56
1, 111926, Note_on_c, 7, 57, 0
1, 111926, Note_on_c, 3, 69, 0
1, 111926, Note_on_c, 3, 64, 0
1, 111926, Note_on_c, 3, 73, 0
1, 111926, Note_on_c, 2, 76, 0
1, 111926, Note_on_c, 3, 76, 0
1, 111928, Note_on_c, 5, 45, 0
1, 111928, Note_on_c, 5, 52, 0
1, 111932, Note_on_c, 7, 61, 0
1, 111936, Note_on_c, 2, 84, 0
1, 111936, Note_on_c, 9, 51, 61
1, 111936, Note_on_c, 5, 52, 70
1, 111936, Note_on_c, 9, 46, 63
1, 111936, Note_on_c, 5, 45, 70
1, 111936, Note_on_c, 9, 47, 83
1, 111936, Note_on_c, 7, 57, 74
1, 111938, Note_on_c, 7, 64, 0
1, 111940, Note_on_c, 7, 69, 0
1, 111941, Note_on_c, 7, 61, 89
1, 111942, Note_on_c, 9, 47, 0
1, 111942, Note_on_c, 9, 46, 0
1, 111942, Note_on_c, 9, 51, 0
1, 111942, Lyric_t, "\015 "
1, 111942, Lyric_t, "yeah.  "
1, 111944, Note_on_c, 2, 81, 112
1, 111948, Note_on_c, 7, 69, 88
1, 111948, Note_on_c, 7, 64, 95
1, 112002, Note_on_c, 5, 45, 0
1, 112002, Note_on_c, 5, 52, 0
1, 112030, Note_on_c, 7, 57, 0
1, 112032, Note_on_c, 9, 45, 71
1, 112032, Note_on_c, 5, 52, 75
1, 112032, Note_on_c, 5, 45, 73
1, 112038, Note_on_c, 9, 45, 0
1, 112040, Note_on_c, 7, 57, 56
1, 112098, Note_on_c, 5, 45, 0
1, 112098, Note_on_c, 5, 52, 0
1, 112106, Note_on_c, 0, 33, 0
1, 112108, Note_on_c, 1, 61, 0
1, 112108, Note_on_c, 1, 52, 0
1, 112108, Note_on_c, 1, 64, 0
1, 112108, Note_on_c, 1, 57, 0
1, 112116, Note_on_c, 7, 57, 0
1, 112116, Note_on_c, 1, 67, 80
1, 112116, Note_on_c, 1, 55, 83
1, 112116, Note_on_c, 1, 62, 83
1, 112116, Note_on_c, 1, 59, 84
1, 112118, Note_on_c, 7, 64, 0
1, 112118, Note_on_c, 7, 69, 0
1, 112118, Note_on_c, 7, 61, 0
1, 112120, Note_on_c, 5, 57, 0
1, 112120, Note_on_c, 5, 64, 0
1, 112126, Note_on_c, 8, 76, 0
1, 112126, Note_on_c, 8, 69, 0
1, 112126, Note_on_c, 8, 73, 0
1, 112126, Note_on_c, 8, 64, 0
1, 112128, Note_on_c, 7, 59, 84
1, 112128, Note_on_c, 9, 42, 93
1, 112128, Note_on_c, 9, 49, 73
1, 112128, Note_on_c, 9, 51, 61
1, 112128, Note_on_c, 9, 35, 117
1, 112128, Note_on_c, 0, 31, 111
1, 112128, Note_on_c, 5, 43, 89
1, 112133, Note_on_c, 7, 62, 90
1, 112134, Note_on_c, 9, 35, 0
1, 112134, Note_on_c, 9, 51, 0
1, 112134, Note_on_c, 9, 42, 0
1, 112134, Note_on_c, 9, 49, 0
1, 112140, Note_on_c, 7, 67, 103
1, 112310, Note_on_c, 7, 59, 0
1, 112312, Note_on_c, 5, 43, 0
1, 112316, Note_on_c, 7, 62, 0
1, 112320, Note_on_c, 2, 81, 0
1, 112320, Note_on_c, 9, 42, 68
1, 112320, Note_on_c, 9, 51, 54
1, 112320, Note_on_c, 7, 59, 78
1, 112320, Note_on_c, 5, 43, 93
1, 112322, Note_on_c, 7, 67, 0
1, 112325, Note_on_c, 7, 62, 86
1, 112326, Note_on_c, 9, 51, 0
1, 112326, Note_on_c, 9, 42, 0
1, 112332, Note_on_c, 7, 67, 98
1, 112502, Note_on_c, 7, 59, 0
1, 112506, Note_on_c, 0, 31, 0
1, 112508, Note_on_c, 7, 62, 0
1, 112512, Note_on_c, 5, 55, 105
1, 112512, Note_on_c, 9, 42, 88
1, 112512, Note_on_c, 5, 50, 95
1, 112512, Note_on_c, 7, 59, 88
1, 112512, Note_on_c, 5, 67, 100
1, 112512, Note_on_c, 9, 40, 93
1, 112512, Note_on_c, 9, 51, 58
1, 112514, Note_on_c, 7, 67, 0
1, 112517, Note_on_c, 7, 62, 103
1, 112518, Note_on_c, 9, 42, 0
1, 112518, Note_on_c, 9, 51, 0
1, 112518, Note_on_c, 9, 40, 0
1, 112524, Note_on_c, 7, 67, 102
1, 112608, Note_on_c, 0, 31, 92
1, 112642, Note_on_c, 0, 31, 0
1, 112694, Note_on_c, 7, 59, 0
1, 112696, Note_on_c, 5, 50, 0
1, 112696, Note_on_c, 5, 55, 0
1, 112700, Note_on_c, 7, 62, 0
1, 112704, Note_on_c, 5, 50, 72
1, 112704, Note_on_c, 0, 35, 80
1, 112704, Note_on_c, 7, 59, 74
1, 112704, Note_on_c, 9, 51, 55
1, 112704, Note_on_c, 5, 55, 71
1, 112704, Note_on_c, 9, 42, 65
1, 112706, Note_on_c, 7, 67, 0
1, 112709, Note_on_c, 7, 62, 85
1, 112710, Note_on_c, 9, 51, 0
1, 112710, Note_on_c, 9, 42, 0
1, 112716, Note_on_c, 7, 67, 96
1, 112770, Note_on_c, 0, 35, 0
1, 112786, Note_on_c, 5, 50, 0
1, 112786, Note_on_c, 5, 55, 0
1, 112794, Note_on_c, 5, 43, 0
1, 112794, Note_on_c, 7, 62, 0
1, 112798, Note_on_c, 7, 59, 0
1, 112800, Note_on_c, 9, 35, 92
1, 112800, Note_on_c, 0, 37, 81
1, 112800, Note_on_c, 5, 55, 70
1, 112800, Note_on_c, 5, 50, 67
1, 112804, Note_on_c, 7, 62, 81
1, 112806, Note_on_c, 9, 35, 0
1, 112808, Note_on_c, 7, 59, 73
1, 112866, Note_on_c, 0, 37, 0
1, 112876, Note_on_c, 1, 55, 0
1, 112876, Note_on_c, 1, 59, 0
1, 112876, Note_on_c, 1, 62, 0
1, 112876, Note_on_c, 1, 67, 0
1, 112882, Note_on_c, 5, 55, 0
1, 112882, Note_on_c, 5, 50, 0
1, 112882, Note_on_c, 7, 67, 0
1, 112884, Note_on_c, 7, 59, 0
1, 112884, Note_on_c, 1, 57, 79
1, 112884, Note_on_c, 1, 50, 83
1, 112884, Note_on_c, 1, 62, 78
1, 112884, Note_on_c, 1, 66, 81
1, 112892, Note_on_c, 7, 62, 0
1, 112896, Note_on_c, 5, 55, 93
1, 112896, Note_on_c, 5, 45, 96
1, 112896, Note_on_c, 3, 69, 121
1, 112896, Note_on_c, 3, 66, 125
1, 112896, Lyric_t, "Cow "
1, 112896, Note_on_c, 0, 38, 101
1, 112896, Note_on_c, 9, 51, 56
1, 112896, Note_on_c, 3, 78, 120
1, 112896, Note_on_c, 8, 66, 1
1, 112896, Note_on_c, 8, 69, 1
1, 112896, Note_on_c, 9, 35, 116
1, 112896, Note_on_c, 7, 57, 83
1, 112896, Note_on_c, 8, 78, 1
1, 112896, Note_on_c, 9, 42, 91
1, 112897, Note_on_c, 2, 78, 115
1, 112901, Note_on_c, 7, 62, 95
1, 112902, Note_on_c, 9, 42, 0
1, 112902, Note_on_c, 9, 35, 0
1, 112902, Note_on_c, 9, 51, 0
1, 112908, Note_on_c, 7, 66, 105
1, 112952, Note_on_c, 5, 67, 0
1, 112982, Note_on_c, 7, 66, 0
1, 112986, Note_on_c, 7, 62, 0
1, 112986, Note_on_c, 5, 55, 0
1, 112990, Note_on_c, 7, 57, 0
1, 112992, Note_on_c, 7, 66, 81
1, 112992, Note_on_c, 5, 54, 75
1, 112996, Note_on_c, 7, 62, 77
1, 113000, Note_on_c, 7, 57, 68
1, 113020, Note_on_c, 0, 38, 0
1, 113070, Note_on_c, 3, 69, 0
1, 113070, Note_on_c, 3, 66, 0
1, 113070, Note_on_c, 3, 78, 0
1, 113078, Note_on_c, 7, 57, 0
1, 113080, Note_on_c, 5, 45, 0
1, 113080, Note_on_c, 5, 54, 0
1, 113084, Note_on_c, 7, 62, 0
1, 113086, Note_on_c, 8, 78, 0
1, 113086, Note_on_c, 2, 78, 0
1, 113086, Note_on_c, 8, 69, 0
1, 113086, Note_on_c, 8, 66, 0
1, 113088, Note_on_c, 8, 76, 1
1, 113088, Note_on_c, 0, 38, 99
1, 113088, Note_on_c, 8, 69, 1
1, 113088, Note_on_c, 3, 64, 120
1, 113088, Note_on_c, 3, 69, 124
1, 113088, Note_on_c, 9, 51, 60
1, 113088, Note_on_c, 9, 42, 74
1, 113088, Note_on_c, 8, 64, 1
1, 113088, Note_on_c, 5, 45, 85
1, 113088, Note_on_c, 5, 54, 88
1, 113088, Note_on_c, 3, 76, 121
1, 113088, Note_on_c, 9, 35, 102
1, 113088, Note_on_c, 7, 57, 73
1, 113090, Note_on_c, 7, 66, 0
1, 113091, Lyric_t, "boys  "
1, 113093, Note_on_c, 7, 62, 76
1, 113093, Note_on_c, 2, 81, 115
1, 113094, Note_on_c, 9, 35, 0
1, 113094, Note_on_c, 9, 51, 0
1, 113094, Note_on_c, 9, 42, 0
1, 113100, Note_on_c, 7, 66, 86
1, 113174, Note_on_c, 7, 66, 0
1, 113178, Note_on_c, 7, 62, 0
1, 113182, Note_on_c, 7, 57, 0
1, 113184, Note_on_c, 7, 66, 96
1, 113188, Note_on_c, 7, 62, 85
1, 113192, Note_on_c, 7, 57, 75
1, 113262, Note_on_c, 3, 76, 0
1, 113262, Note_on_c, 3, 69, 0
1, 113262, Note_on_c, 3, 64, 0
1, 113264, Note_on_c, 2, 81, 0
1, 113272, Note_on_c, 7, 57, 0
1, 113272, Note_on_c, 7, 62, 0
1, 113272, Note_on_c, 5, 54, 0
1, 113278, Note_on_c, 8, 76, 0
1, 113278, Note_on_c, 8, 69, 0
1, 113278, Note_on_c, 8, 64, 0
1, 113278, Note_on_c, 7, 66, 0
1, 113280, Note_on_c, 7, 57, 87
1, 113280, Note_on_c, 3, 74, 115
1, 113280, Note_on_c, 8, 62, 1
1, 113280, Note_on_c, 5, 54, 101
1, 113280, Note_on_c, 5, 66, 102
1, 113280, Note_on_c, 8, 66, 1
1, 113280, Note_on_c, 9, 51, 59
1, 113280, Note_on_c, 3, 62, 116
1, 113280, Note_on_c, 3, 66, 112
1, 113280, Note_on_c, 9, 42, 86
1, 113280, Note_on_c, 5, 50, 99
1, 113280, Note_on_c, 8, 74, 1
1, 113280, Note_on_c, 9, 40, 98
1, 113283, Lyric_t, "and  "
1, 113285, Note_on_c, 7, 62, 96
1, 113285, Note_on_c, 2, 78, 111
1, 113286, Note_on_c, 9, 40, 0
1, 113286, Note_on_c, 9, 42, 0
1, 113286, Note_on_c, 9, 51, 0
1, 113292, Note_on_c, 7, 66, 102
1, 113440, Note_on_c, 3, 66, 0
1, 113440, Note_on_c, 3, 62, 0
1, 113440, Note_on_c, 3, 74, 0
1, 113462, Note_on_c, 7, 57, 0
1, 113462, Note_on_c, 2, 78, 0
1, 113468, Note_on_c, 7, 62, 0
1, 113470, Note_on_c, 8, 62, 0
1, 113470, Note_on_c, 8, 74, 0
1, 113470, Note_on_c, 8, 66, 0
1, 113472, Note_on_c, 7, 57, 79
1, 113472, Note_on_c, 8, 66, 1
1, 113472, Note_on_c, 3, 78, 111
1, 113472, Note_on_c, 3, 66, 114
1, 113472, Note_on_c, 8, 78, 1
1, 113472, Note_on_c, 8, 69, 1
1, 113472, Note_on_c, 9, 51, 61
1, 113472, Note_on_c, 9, 42, 71
1, 113472, Note_on_c, 3, 69, 115
1, 113474, Note_on_c, 7, 66, 0
1, 113475, Lyric_t, "kiss "
1, 113477, Note_on_c, 2, 83, 110
1, 113477, Note_on_c, 7, 62, 81
1, 113478, Note_on_c, 9, 42, 0
1, 113478, Note_on_c, 9, 51, 0
1, 113484, Note_on_c, 7, 66, 97
1, 113522, Note_on_c, 0, 38, 0
1, 113562, Note_on_c, 5, 45, 0
1, 113562, Note_on_c, 7, 62, 0
1, 113566, Note_on_c, 7, 57, 0
1, 113568, Note_on_c, 0, 38, 92
1, 113572, Note_on_c, 7, 62, 76
1, 113576, Note_on_c, 7, 57, 66
1, 113588, Note_on_c, 3, 69, 0
1, 113588, Note_on_c, 3, 78, 0
1, 113588, Note_on_c, 3, 66, 0
1, 113614, Note_on_c, 0, 38, 0
1, 113644, Note_on_c, 1, 62, 0
1, 113644, Note_on_c, 1, 66, 0
1, 113644, Note_on_c, 1, 57, 0
1, 113644, Note_on_c, 1, 50, 0
1, 113652, Note_on_c, 7, 57, 0
1, 113652, Note_on_c, 7, 62, 0
1, 113652, Note_on_c, 1, 61, 82
1, 113652, Note_on_c, 1, 52, 81
1, 113652, Note_on_c, 1, 64, 80
1, 113652, Note_on_c, 1, 57, 79
1, 113654, Note_on_c, 7, 66, 0
1, 113654, Note_on_c, 2, 83, 0
1, 113662, Note_on_c, 8, 78, 0
1, 113662, Note_on_c, 8, 66, 0
1, 113662, Note_on_c, 8, 69, 0
1, 113664, Note_on_c, 5, 45, 103
1, 113664, Note_on_c, 8, 69, 1
1, 113664, Note_on_c, 7, 57, 84
1, 113664, Note_on_c, 8, 76, 1
1, 113664, Note_on_c, 9, 42, 85
1, 113664, Note_on_c, 3, 76, 115
1, 113664, Note_on_c, 3, 69, 113
1, 113664, Note_on_c, 8, 64, 1
1, 113664, Note_on_c, 9, 35, 118
1, 113664, Note_on_c, 9, 51, 55
1, 113664, Note_on_c, 3, 64, 113
1, 113664, Note_on_c, 0, 33, 108
1, 113669, Note_on_c, 7, 61, 93
1, 113670, Note_on_c, 9, 51, 0
1, 113670, Note_on_c, 9, 35, 0
1, 113670, Note_on_c, 9, 42, 0
1, 113670, Lyric_t, "es  "
1, 113670, Lyric_t, "\015 "
1, 113672, Note_on_c, 2, 81, 114
1, 113674, Note_on_c, 5, 54, 0
1, 113674, Note_on_c, 5, 50, 0
1, 113674, Note_on_c, 5, 66, 0
1, 113676, Note_on_c, 7, 64, 107
1, 113846, Note_on_c, 7, 57, 0
1, 113848, Note_on_c, 5, 45, 0
1, 113852, Note_on_c, 7, 61, 0
1, 113856, Note_on_c, 9, 51, 60
1, 113856, Note_on_c, 9, 42, 69
1, 113856, Note_on_c, 5, 45, 96
1, 113856, Note_on_c, 7, 57, 77
1, 113858, Note_on_c, 7, 64, 0
1, 113861, Note_on_c, 7, 61, 87
1, 113862, Note_on_c, 9, 42, 0
1, 113862, Note_on_c, 9, 51, 0
1, 113868, Note_on_c, 7, 64, 97
1, 113942, Note_on_c, 3, 64, 0
1, 113942, Note_on_c, 8, 64, 0
1, 113952, Note_on_c, 3, 59, 100
1, 113952, Note_on_c, 8, 59, 1
1, 114038, Note_on_c, 8, 59, 0
1, 114038, Note_on_c, 3, 59, 0
1, 114038, Note_on_c, 7, 57, 0
1, 114044, Note_on_c, 7, 61, 0
1, 114048, Note_on_c, 5, 57, 105
1, 114048, Note_on_c, 7, 57, 91
1, 114048, Note_on_c, 8, 57, 1
1, 114048, Note_on_c, 5, 64, 101
1, 114048, Note_on_c, 9, 40, 96
1, 114048, Note_on_c, 5, 52, 94
1, 114048, Note_on_c, 9, 51, 54
1, 114048, Note_on_c, 9, 42, 86
1, 114048, Note_on_c, 3, 57, 118
1, 114050, Note_on_c, 7, 64, 0
1, 114053, Note_on_c, 7, 61, 98
1, 114054, Note_on_c, 9, 42, 0
1, 114054, Note_on_c, 9, 40, 0
1, 114054, Note_on_c, 9, 51, 0
1, 114060, Note_on_c, 7, 64, 103
1, 114230, Note_on_c, 7, 57, 0
1, 114236, Note_on_c, 7, 61, 0
1, 114240, Note_on_c, 9, 42, 65
1, 114240, Note_on_c, 7, 57, 73
1, 114240, Note_on_c, 9, 51, 61
1, 114242, Note_on_c, 7, 64, 0
1, 114245, Note_on_c, 7, 61, 82
1, 114246, Note_on_c, 9, 51, 0
1, 114246, Note_on_c, 9, 42, 0
1, 114252, Note_on_c, 7, 64, 97
1, 114308, Note_on_c, 0, 33, 0
1, 114330, Note_on_c, 7, 61, 0
1, 114330, Note_on_c, 5, 45, 0
1, 114334, Note_on_c, 7, 57, 0
1, 114336, Note_on_c, 9, 35, 88
1, 114336, Note_on_c, 0, 40, 105
1, 114340, Note_on_c, 7, 61, 80
1, 114342, Note_on_c, 9, 35, 0
1, 114344, Note_on_c, 7, 57, 73
1, 114396, Note_on_c, 0, 40, 0
1, 114408, Note_on_c, 2, 81, 0
1, 114414, Note_on_c, 5, 52, 0
1, 114418, Note_on_c, 7, 64, 0
1, 114420, Note_on_c, 7, 57, 0
1, 114428, Note_on_c, 7, 61, 0
1, 114432, Note_on_c, 5, 45, 94
1, 114432, Note_on_c, 9, 42, 87
1, 114432, Note_on_c, 9, 35, 117
1, 114432, Note_on_c, 7, 57, 83
1, 114432, Note_on_c, 9, 51, 59
1, 114432, Note_on_c, 0, 33, 102
1, 114437, Note_on_c, 7, 61, 92
1, 114438, Note_on_c, 9, 51, 0
1, 114438, Note_on_c, 9, 35, 0
1, 114438, Note_on_c, 9, 42, 0
1, 114444, Note_on_c, 7, 64, 107
1, 114488, Note_on_c, 5, 64, 0
1, 114488, Note_on_c, 5, 57, 0
1, 114518, Note_on_c, 7, 64, 0
1, 114522, Note_on_c, 7, 61, 0
1, 114526, Note_on_c, 7, 57, 0
1, 114528, Note_on_c, 7, 64, 79
1, 114532, Note_on_c, 7, 61, 78
1, 114536, Note_on_c, 7, 57, 67
1, 114552, Note_on_c, 0, 33, 0
1, 114614, Note_on_c, 7, 57, 0
1, 114616, Note_on_c, 5, 45, 0
1, 114620, Note_on_c, 7, 61, 0
1, 114624, Note_on_c, 7, 57, 71
1, 114624, Note_on_c, 5, 45, 93
1, 114624, Note_on_c, 9, 35, 104
1, 114624, Note_on_c, 9, 51, 54
1, 114624, Note_on_c, 0, 33, 112
1, 114624, Note_on_c, 9, 42, 67
1, 114626, Note_on_c, 7, 64, 0
1, 114629, Note_on_c, 7, 61, 77
1, 114630, Note_on_c, 9, 42, 0
1, 114630, Note_on_c, 9, 51, 0
1, 114630, Note_on_c, 9, 35, 0
1, 114636, Note_on_c, 7, 64, 86
1, 114710, Note_on_c, 7, 64, 0
1, 114714, Note_on_c, 7, 61, 0
1, 114718, Note_on_c, 7, 57, 0
1, 114720, Note_on_c, 7, 64, 91
1, 114724, Note_on_c, 7, 61, 87
1, 114728, Note_on_c, 7, 57, 73
1, 114806, Note_on_c, 3, 69, 0
1, 114806, Note_on_c, 3, 57, 0
1, 114806, Note_on_c, 8, 76, 0
1, 114806, Note_on_c, 3, 76, 0
1, 114806, Note_on_c, 8, 69, 0
1, 114808, Note_on_c, 7, 61, 0
1, 114808, Note_on_c, 7, 57, 0
1, 114814, Note_on_c, 8, 57, 0
1, 114814, Note_on_c, 7, 64, 0
1, 114816, Note_on_c, 5, 64, 99
1, 114816, Note_on_c, 5, 57, 98
1, 114816, Note_on_c, 7, 57, 88
1, 114816, Note_on_c, 9, 51, 58
1, 114816, Note_on_c, 9, 40, 95
1, 114816, Note_on_c, 5, 52, 105
1, 114816, Note_on_c, 9, 42, 86
1, 114821, Note_on_c, 7, 61, 100
1, 114822, Note_on_c, 9, 42, 0
1, 114822, Note_on_c, 9, 51, 0
1, 114822, Note_on_c, 9, 40, 0
1, 114828, Note_on_c, 7, 64, 107
1, 114884, Note_on_c, 0, 33, 0
1, 114912, Note_on_c, 0, 35, 106
1, 114998, Note_on_c, 7, 57, 0
1, 115000, Note_on_c, 5, 45, 0
1, 115000, Note_on_c, 5, 52, 0
1, 115004, Note_on_c, 7, 61, 0
1, 115008, Note_on_c, 7, 57, 74
1, 115008, Note_on_c, 5, 45, 73
1, 115008, Note_on_c, 5, 52, 68
1, 115008, Note_on_c, 9, 51, 58
1, 115008, Note_on_c, 9, 46, 65
1, 115010, Note_on_c, 7, 64, 0
1, 115013, Note_on_c, 7, 61, 84
1, 115014, Note_on_c, 9, 46, 0
1, 115014, Note_on_c, 9, 51, 0
1, 115020, Note_on_c, 7, 64, 98
1, 115074, Note_on_c, 5, 52, 0
1, 115074, Note_on_c, 5, 45, 0
1, 115098, Note_on_c, 7, 61, 0
1, 115102, Note_on_c, 7, 57, 0
1, 115104, Note_on_c, 5, 52, 68
1, 115104, Note_on_c, 5, 45, 70
1, 115108, Note_on_c, 7, 61, 78
1, 115112, Note_on_c, 7, 57, 66
1, 115170, Note_on_c, 5, 45, 0
1, 115170, Note_on_c, 5, 52, 0
1, 115178, Note_on_c, 0, 35, 0
1, 115180, Note_on_c, 1, 61, 0
1, 115180, Note_on_c, 1, 52, 0
1, 115180, Note_on_c, 1, 57, 0
1, 115180, Note_on_c, 1, 64, 0
1, 115188, Note_on_c, 7, 61, 0
1, 115188, Note_on_c, 7, 57, 0
1, 115188, Note_on_c, 1, 55, 79
1, 115188, Note_on_c, 1, 67, 77
1, 115188, Note_on_c, 1, 62, 79
1, 115188, Note_on_c, 1, 59, 84
1, 115190, Note_on_c, 7, 64, 0
1, 115192, Note_on_c, 5, 57, 0
1, 115192, Note_on_c, 5, 64, 0
1, 115200, Note_on_c, 9, 42, 92
1, 115200, Note_on_c, 8, 67, 1
1, 115200, Note_on_c, 3, 67, 119
1, 115200, Note_on_c, 2, 74, 115
1, 115200, Note_on_c, 8, 62, 1
1, 115200, Note_on_c, 3, 62, 119
1, 115200, Note_on_c, 9, 51, 56
1, 115200, Note_on_c, 9, 35, 117
1, 115200, Lyric_t, "got "
1, 115200, Note_on_c, 7, 59, 88
1, 115200, Note_on_c, 0, 31, 114
1, 115200, Note_on_c, 9, 49, 77
1, 115200, Note_on_c, 5, 43, 92
1, 115200, Note_on_c, 8, 74, 1
1, 115200, Note_on_c, 3, 74, 115
1, 115205, Note_on_c, 7, 62, 98
1, 115206, Note_on_c, 9, 49, 0
1, 115206, Note_on_c, 9, 42, 0
1, 115206, Note_on_c, 9, 35, 0
1, 115206, Note_on_c, 9, 51, 0
1, 115212, Note_on_c, 7, 67, 100
1, 115272, Note_on_c, 2, 74, 0
1, 115288, Note_on_c, 3, 74, 0
1, 115288, Note_on_c, 3, 62, 0
1, 115288, Note_on_c, 3, 67, 0
1, 115292, Lyric_t, "ta  "
1, 115293, Note_on_c, 2, 74, 115
1, 115294, Note_on_c, 8, 62, 0
1, 115294, Note_on_c, 8, 74, 0
1, 115294, Note_on_c, 8, 67, 0
1, 115296, Note_on_c, 8, 73, 1
1, 115296, Note_on_c, 3, 73, 110
1, 115296, Note_on_c, 8, 67, 1
1, 115296, Note_on_c, 8, 61, 1
1, 115296, Note_on_c, 3, 67, 108
1, 115296, Note_on_c, 3, 61, 107
1, 115366, Note_on_c, 2, 74, 0
1, 115374, Note_on_c, 3, 61, 0
1, 115374, Note_on_c, 3, 67, 0
1, 115374, Note_on_c, 3, 73, 0
1, 115382, Note_on_c, 7, 59, 0
1, 115384, Note_on_c, 5, 43, 0
1, 115385, Lyric_t, "find  "
1, 115388, Note_on_c, 7, 62, 0
1, 115388, Note_on_c, 2, 74, 110
1, 115390, Note_on_c, 8, 73, 0
1, 115390, Note_on_c, 8, 67, 0
1, 115390, Note_on_c, 8, 61, 0
1, 115392, Note_on_c, 8, 62, 1
1, 115392, Note_on_c, 5, 43, 92
1, 115392, Note_on_c, 3, 62, 111
1, 115392, Note_on_c, 8, 74, 1
1, 115392, Note_on_c, 9, 51, 56
1, 115392, Note_on_c, 3, 67, 103
1, 115392, Note_on_c, 9, 42, 66
1, 115392, Note_on_c, 3, 74, 105
1, 115392, Note_on_c, 7, 59, 78
1, 115392, Note_on_c, 8, 67, 1
1, 115394, Note_on_c, 7, 67, 0
1, 115397, Note_on_c, 7, 62, 89
1, 115398, Note_on_c, 9, 42, 0
1, 115398, Note_on_c, 9, 51, 0
1, 115404, Note_on_c, 7, 67, 92
1, 115466, Note_on_c, 2, 74, 0
1, 115480, Note_on_c, 3, 62, 0
1, 115480, Note_on_c, 3, 67, 0
1, 115480, Note_on_c, 3, 74, 0
1, 115481, Note_on_c, 2, 74, 112
1, 115481, Lyric_t, "my "
1, 115486, Note_on_c, 8, 67, 0
1, 115486, Note_on_c, 8, 62, 0
1, 115486, Note_on_c, 8, 74, 0
1, 115488, Note_on_c, 3, 61, 113
1, 115488, Note_on_c, 8, 67, 1
1, 115488, Note_on_c, 8, 61, 1
1, 115488, Note_on_c, 3, 73, 108
1, 115488, Note_on_c, 3, 67, 114
1, 115488, Note_on_c, 8, 73, 1
1, 115562, Note_on_c, 2, 74, 0
1, 115566, Note_on_c, 3, 61, 0
1, 115566, Note_on_c, 3, 67, 0
1, 115566, Note_on_c, 3, 73, 0
1, 115574, Note_on_c, 7, 59, 0
1, 115578, Note_on_c, 0, 31, 0
1, 115580, Note_on_c, 7, 62, 0
1, 115582, Note_on_c, 8, 73, 0
1, 115582, Note_on_c, 8, 67, 0
1, 115582, Note_on_c, 8, 61, 0
1, 115584, Note_on_c, 3, 62, 115
1, 115584, Note_on_c, 8, 67, 1
1, 115584, Note_on_c, 3, 74, 120
1, 115584, Note_on_c, 9, 51, 61
1, 115584, Note_on_c, 3, 67, 119
1, 115584, Note_on_c, 5, 55, 102
1, 115584, Note_on_c, 8, 74, 1
1, 115584, Note_on_c, 8, 62, 1
1, 115584, Note_on_c, 5, 50, 93
1, 115584, Note_on_c, 9, 40, 91
1, 115584, Note_on_c, 5, 67, 97
1, 115584, Note_on_c, 9, 42, 89
1, 115584, Lyric_t, "\015 "
1, 115584, Lyric_t, "self  "
1, 115584, Note_on_c, 7, 59, 93
1, 115585, Note_on_c, 2, 74, 115
1, 115586, Note_on_c, 7, 67, 0
1, 115589, Note_on_c, 7, 62, 101
1, 115590, Note_on_c, 9, 42, 0
1, 115590, Note_on_c, 9, 40, 0
1, 115590, Note_on_c, 9, 51, 0
1, 115596, Note_on_c, 7, 67, 106
1, 115680, Note_on_c, 0, 31, 92
1, 115714, Note_on_c, 0, 31, 0
1, 115746, Note_on_c, 2, 74, 0
1, 115758, Note_on_c, 3, 67, 0
1, 115758, Note_on_c, 3, 74, 0
1, 115758, Note_on_c, 3, 62, 0
1, 115766, Note_on_c, 7, 59, 0
1, 115768, Note_on_c, 5, 55, 0
1, 115768, Note_on_c, 5, 50, 0
1, 115772, Note_on_c, 7, 62, 0
1, 115776, Note_on_c, 7, 59, 77
1, 115776, Note_on_c, 9, 42, 70
1, 115776, Note_on_c, 9, 51, 56
1, 115776, Note_on_c, 0, 35, 84
1, 115776, Note_on_c, 3, 67, 112
1, 115776, Note_on_c, 3, 74, 109
1, 115776, Note_on_c, 5, 55, 76
1, 115776, Note_on_c, 3, 62, 109
1, 115776, Note_on_c, 5, 50, 74
1, 115778, Note_on_c, 7, 67, 0
1, 115779, Lyric_t, "ev "
1, 115781, Note_on_c, 7, 62, 80
1, 115781, Note_on_c, 2, 74, 113
1, 115782, Note_on_c, 9, 51, 0
1, 115782, Note_on_c, 9, 42, 0
1, 115788, Note_on_c, 7, 67, 95
1, 115842, Note_on_c, 0, 35, 0
1, 115858, Note_on_c, 5, 50, 0
1, 115858, Note_on_c, 5, 55, 0
1, 115864, Note_on_c, 3, 62, 0
1, 115864, Note_on_c, 3, 74, 0
1, 115864, Note_on_c, 3, 67, 0
1, 115866, Note_on_c, 5, 43, 0
1, 115866, Note_on_c, 7, 62, 0
1, 115870, Note_on_c, 8, 62, 0
1, 115870, Note_on_c, 8, 67, 0
1, 115870, Note_on_c, 2, 74, 0
1, 115870, Note_on_c, 7, 59, 0
1, 115870, Note_on_c, 8, 74, 0
1, 115872, Note_on_c, 5, 55, 69
1, 115872, Note_on_c, 8, 67, 1
1, 115872, Note_on_c, 9, 35, 92
1, 115872, Note_on_c, 0, 37, 85
1, 115872, Note_on_c, 3, 67, 107
1, 115872, Note_on_c, 3, 61, 102
1, 115872, Note_on_c, 5, 50, 65
1, 115872, Note_on_c, 8, 61, 1
1, 115872, Note_on_c, 8, 73, 1
1, 115872, Note_on_c, 3, 73, 103
1, 115875, Lyric_t, "ery  "
1, 115876, Note_on_c, 7, 62, 76
1, 115877, Note_on_c, 2, 73, 114
1, 115878, Note_on_c, 9, 35, 0
1, 115880, Note_on_c, 7, 59, 67
1, 115938, Note_on_c, 0, 37, 0
1, 115948, Note_on_c, 1, 67, 0
1, 115948, Note_on_c, 1, 59, 0
1, 115948, Note_on_c, 1, 62, 0
1, 115948, Note_on_c, 1, 55, 0
1, 115954, Note_on_c, 7, 67, 0
1, 115954, Note_on_c, 5, 50, 0
1, 115954, Note_on_c, 5, 55, 0
1, 115956, Note_on_c, 7, 59, 0
1, 115956, Note_on_c, 1, 57, 80
1, 115956, Note_on_c, 1, 66, 82
1, 115956, Note_on_c, 1, 50, 78
1, 115956, Note_on_c, 1, 62, 83
1, 115960, Note_on_c, 3, 73, 0
1, 115960, Note_on_c, 3, 67, 0
1, 115960, Note_on_c, 3, 61, 0
1, 115964, Note_on_c, 7, 62, 0
1, 115966, Note_on_c, 8, 61, 0
1, 115966, Note_on_c, 8, 67, 0
1, 115966, Note_on_c, 2, 73, 0
1, 115966, Note_on_c, 8, 73, 0
1, 115968, Note_on_c, 5, 45, 97
1, 115968, Note_on_c, 9, 35, 115
1, 115968, Note_on_c, 3, 62, 114
1, 115968, Note_on_c, 9, 51, 60
1, 115968, Note_on_c, 9, 42, 92
1, 115968, Note_on_c, 8, 74, 1
1, 115968, Note_on_c, 0, 38, 100
1, 115968, Note_on_c, 3, 74, 115
1, 115968, Note_on_c, 3, 66, 118
1, 115968, Note_on_c, 8, 66, 1
1, 115968, Note_on_c, 5, 55, 89
1, 115968, Note_on_c, 7, 57, 83
1, 115968, Note_on_c, 8, 62, 1
1, 115971, Lyric_t, "time  "
1, 115973, Note_on_c, 2, 74, 113
1, 115973, Note_on_c, 7, 62, 92
1, 115974, Note_on_c, 9, 42, 0
1, 115974, Note_on_c, 9, 51, 0
1, 115974, Note_on_c, 9, 35, 0
1, 115980, Note_on_c, 7, 66, 103
1, 116024, Note_on_c, 5, 67, 0
1, 116054, Note_on_c, 7, 66, 0
1, 116058, Note_on_c, 5, 55, 0
1, 116058, Note_on_c, 7, 62, 0
1, 116062, Note_on_c, 7, 57, 0
1, 116064, Note_on_c, 7, 66, 79
1, 116064, Note_on_c, 5, 54, 70
1, 116068, Note_on_c, 7, 62, 73
1, 116072, Note_on_c, 7, 57, 64
1, 116092, Note_on_c, 0, 38, 0
1, 116142, Note_on_c, 3, 62, 0
1, 116142, Note_on_c, 3, 74, 0
1, 116142, Note_on_c, 3, 66, 0
1, 116146, Note_on_c, 2, 74, 0
1, 116150, Note_on_c, 7, 57, 0
1, 116152, Note_on_c, 5, 45, 0
1, 116152, Note_on_c, 5, 54, 0
1, 116156, Note_on_c, 7, 62, 0
1, 116158, Note_on_c, 8, 66, 0
1, 116158, Note_on_c, 8, 62, 0
1, 116158, Note_on_c, 8, 74, 0
1, 116160, Note_on_c, 8, 64, 1
1, 116160, Note_on_c, 9, 51, 60
1, 116160, Note_on_c, 5, 45, 77
1, 116160, Note_on_c, 8, 73, 1
1, 116160, Note_on_c, 0, 38, 97
1, 116160, Note_on_c, 8, 61, 1
1, 116160, Note_on_c, 9, 42, 69
1, 116160, Note_on_c, 9, 35, 106
1, 116160, Note_on_c, 3, 73, 105
1, 116160, Note_on_c, 3, 61, 102
1, 116160, Note_on_c, 7, 57, 74
1, 116160, Note_on_c, 3, 64, 106
1, 116160, Note_on_c, 5, 54, 86
1, 116162, Note_on_c, 7, 66, 0
1, 116165, Note_on_c, 7, 62, 77
1, 116166, Note_on_c, 9, 35, 0
1, 116166, Note_on_c, 9, 42, 0
1, 116166, Note_on_c, 9, 51, 0
1, 116166, Lyric_t, "you  "
1, 116168, Note_on_c, 2, 74, 111
1, 116172, Note_on_c, 7, 66, 93
1, 116236, Note_on_c, 2, 74, 0
1, 116246, Note_on_c, 7, 66, 0
1, 116248, Note_on_c, 3, 64, 0
1, 116248, Note_on_c, 3, 61, 0
1, 116248, Note_on_c, 3, 73, 0
1, 116250, Note_on_c, 7, 62, 0
1, 116254, Note_on_c, 8, 61, 0
1, 116254, Note_on_c, 7, 57, 0
1, 116254, Note_on_c, 8, 73, 0
1, 116254, Note_on_c, 8, 64, 0
1, 116256, Note_on_c, 3, 66, 116
1, 116256, Note_on_c, 8, 74, 1
1, 116256, Note_on_c, 8, 62, 1
1, 116256, Note_on_c, 3, 62, 116
1, 116256, Note_on_c, 7, 66, 89
1, 116256, Note_on_c, 8, 66, 1
1, 116256, Note_on_c, 3, 74, 110
1, 116260, Note_on_c, 7, 62, 81
1, 116264, Note_on_c, 7, 57, 76
1, 116265, Lyric_t, "go  "
1, 116268, Note_on_c, 2, 71, 110
1, 116344, Note_on_c, 7, 57, 0
1, 116344, Note_on_c, 7, 62, 0
1, 116344, Note_on_c, 5, 54, 0
1, 116350, Note_on_c, 7, 66, 0
1, 116352, Note_on_c, 9, 51, 62
1, 116352, Note_on_c, 5, 54, 104
1, 116352, Note_on_c, 9, 42, 91
1, 116352, Note_on_c, 5, 66, 101
1, 116352, Note_on_c, 5, 50, 101
1, 116352, Note_on_c, 7, 57, 88
1, 116352, Note_on_c, 9, 40, 91
1, 116357, Note_on_c, 7, 62, 98
1, 116358, Note_on_c, 9, 40, 0
1, 116358, Note_on_c, 9, 42, 0
1, 116358, Note_on_c, 9, 51, 0
1, 116364, Note_on_c, 7, 66, 102
1, 116430, Note_on_c, 3, 66, 0
1, 116430, Note_on_c, 3, 62, 0
1, 116430, Note_on_c, 3, 74, 0
1, 116446, Note_on_c, 8, 74, 0
1, 116446, Note_on_c, 8, 62, 0
1, 116446, Note_on_c, 8, 66, 0
1, 116448, Note_on_c, 2, 71, 0
1, 116448, Note_on_c, 8, 76, 1
1, 116448, Note_on_c, 3, 76, 116
1, 116448, Note_on_c, 3, 64, 117
1, 116448, Note_on_c, 8, 64, 1
1, 116448, Note_on_c, 8, 69, 1
1, 116448, Note_on_c, 3, 69, 112
1, 116454, Lyric_t, "a "
1, 116456, Note_on_c, 2, 69, 113
1, 116534, Note_on_c, 7, 57, 0
1, 116536, Note_on_c, 3, 69, 0
1, 116536, Note_on_c, 3, 64, 0
1, 116536, Note_on_c, 3, 76, 0
1, 116540, Note_on_c, 7, 62, 0
1, 116542, Note_on_c, 8, 64, 0
1, 116542, Note_on_c, 8, 69, 0
1, 116542, Note_on_c, 8, 76, 0
1, 116544, Note_on_c, 2, 69, 0
1, 116544, Note_on_c, 3, 69, 116
1, 116544, Note_on_c, 3, 76, 111
1, 116544, Note_on_c, 9, 51, 59
1, 116544, Note_on_c, 9, 42, 74
1, 116544, Note_on_c, 8, 76, 1
1, 116544, Note_on_c, 7, 57, 78
1, 116544, Note_on_c, 8, 64, 1
1, 116544, Note_on_c, 8, 69, 1
1, 116544, Note_on_c, 3, 64, 116
1, 116546, Note_on_c, 7, 66, 0
1, 116549, Note_on_c, 7, 62, 90
1, 116550, Note_on_c, 9, 42, 0
1, 116550, Note_on_c, 9, 51, 0
1, 116550, Lyric_t, "way.  "
1, 116550, Lyric_t, "\015 "
1, 116552, Note_on_c, 2, 69, 112
1, 116556, Note_on_c, 7, 66, 95
1, 116594, Note_on_c, 0, 38, 0
1, 116634, Note_on_c, 7, 62, 0
1, 116634, Note_on_c, 5, 45, 0
1, 116638, Note_on_c, 7, 57, 0
1, 116640, Note_on_c, 0, 38, 94
1, 116644, Note_on_c, 7, 62, 83
1, 116648, Note_on_c, 7, 57, 68
1, 116686, Note_on_c, 0, 38, 0
1, 116716, Note_on_c, 1, 50, 0
1, 116716, Note_on_c, 1, 62, 0
1, 116716, Note_on_c, 1, 57, 0
1, 116716, Note_on_c, 1, 66, 0
1, 116724, Note_on_c, 7, 62, 0
1, 116724, Note_on_c, 7, 57, 0
1, 116724, Note_on_c, 1, 61, 79
1, 116724, Note_on_c, 1, 57, 79
1, 116724, Note_on_c, 1, 64, 77
1, 116724, Note_on_c, 1, 52, 83
1, 116726, Note_on_c, 7, 66, 0
1, 116736, Note_on_c, 0, 33, 110
1, 116736, Note_on_c, 7, 57, 83
1, 116736, Note_on_c, 9, 51, 57
1, 116736, Note_on_c, 5, 45, 95
1, 116736, Note_on_c, 9, 42, 90
1, 116736, Note_on_c, 9, 35, 121
1, 116741, Note_on_c, 7, 61, 90
1, 116742, Note_on_c, 9, 35, 0
1, 116742, Note_on_c, 9, 42, 0
1, 116742, Note_on_c, 9, 51, 0
1, 116746, Note_on_c, 5, 66, 0
1, 116746, Note_on_c, 5, 54, 0
1, 116746, Note_on_c, 5, 50, 0
1, 116748, Note_on_c, 7, 64, 101
1, 116832, Note_on_c, 9, 40, 93
1, 116838, Note_on_c, 9, 40, 0
1, 116918, Note_on_c, 7, 57, 0
1, 116920, Note_on_c, 5, 45, 0
1, 116924, Note_on_c, 7, 61, 0
1, 116928, Note_on_c, 7, 57, 82
1, 116928, Note_on_c, 9, 51, 62
1, 116928, Note_on_c, 9, 42, 74
1, 116928, Note_on_c, 5, 45, 95
1, 116930, Note_on_c, 7, 64, 0
1, 116933, Note_on_c, 7, 61, 82
1, 116934, Note_on_c, 9, 42, 0
1, 116934, Note_on_c, 9, 51, 0
1, 116940, Note_on_c, 7, 64, 91
1, 117108, Note_on_c, 2, 69, 0
1, 117110, Note_on_c, 7, 57, 0
1, 117116, Note_on_c, 7, 61, 0
1, 117120, Note_on_c, 9, 40, 99
1, 117120, Note_on_c, 5, 64, 98
1, 117120, Note_on_c, 9, 51, 54
1, 117120, Note_on_c, 5, 52, 99
1, 117120, Note_on_c, 5, 57, 102
1, 117120, Note_on_c, 9, 42, 93
1, 117120, Note_on_c, 7, 57, 85
1, 117122, Note_on_c, 7, 64, 0
1, 117125, Note_on_c, 7, 61, 100
1, 117126, Note_on_c, 9, 42, 0
1, 117126, Note_on_c, 9, 51, 0
1, 117126, Note_on_c, 9, 40, 0
1, 117132, Note_on_c, 7, 64, 104
1, 117302, Note_on_c, 7, 57, 0
1, 117308, Note_on_c, 7, 61, 0
1, 117312, Note_on_c, 9, 51, 60
1, 117312, Note_on_c, 7, 57, 74
1, 117312, Note_on_c, 9, 42, 65
1, 117314, Note_on_c, 7, 64, 0
1, 117317, Note_on_c, 7, 61, 82
1, 117318, Note_on_c, 9, 42, 0
1, 117318, Note_on_c, 9, 51, 0
1, 117324, Note_on_c, 7, 64, 96
1, 117380, Note_on_c, 0, 33, 0
1, 117402, Note_on_c, 7, 61, 0
1, 117402, Note_on_c, 5, 45, 0
1, 117406, Note_on_c, 7, 57, 0
1, 117408, Note_on_c, 9, 35, 91
1, 117408, Note_on_c, 0, 33, 102
1, 117412, Note_on_c, 7, 61, 84
1, 117414, Note_on_c, 9, 35, 0
1, 117416, Note_on_c, 7, 57, 69
1, 117468, Note_on_c, 0, 33, 0
1, 117486, Note_on_c, 5, 52, 0
1, 117490, Note_on_c, 7, 64, 0
1, 117492, Note_on_c, 7, 57, 0
1, 117500, Note_on_c, 7, 61, 0
1, 117504, Note_on_c, 5, 45, 92
1, 117504, Note_on_c, 0, 33, 107
1, 117504, Note_on_c, 9, 42, 88
1, 117504, Note_on_c, 9, 35, 115
1, 117504, Note_on_c, 7, 57, 84
1, 117504, Note_on_c, 9, 51, 53
1, 117509, Note_on_c, 7, 61, 93
1, 117510, Note_on_c, 9, 51, 0
1, 117510, Note_on_c, 9, 35, 0
1, 117510, Note_on_c, 9, 42, 0
1, 117516, Note_on_c, 7, 69, 93
1, 117516, Note_on_c, 7, 64, 104
1, 117560, Note_on_c, 5, 57, 0
1, 117560, Note_on_c, 5, 64, 0
1, 117590, Note_on_c, 7, 64, 0
1, 117594, Note_on_c, 7, 61, 0
1, 117598, Note_on_c, 7, 57, 0
1, 117600, Note_on_c, 9, 40, 88
1, 117600, Note_on_c, 7, 64, 81
1, 117604, Note_on_c, 7, 61, 80
1, 117606, Note_on_c, 9, 40, 0
1, 117608, Note_on_c, 7, 57, 65
1, 117624, Note_on_c, 0, 33, 0
1, 117686, Note_on_c, 7, 57, 0
1, 117688, Note_on_c, 5, 45, 0
1, 117692, Note_on_c, 7, 61, 0
1, 117696, Note_on_c, 9, 51, 55
1, 117696, Note_on_c, 9, 46, 70
1, 117696, Note_on_c, 7, 57, 66
1, 117696, Note_on_c, 0, 33, 107
1, 117696, Note_on_c, 5, 45, 92
1, 117696, Note_on_c, 9, 35, 109
1, 117698, Note_on_c, 7, 64, 0
1, 117701, Note_on_c, 7, 61, 79
1, 117702, Note_on_c, 9, 35, 0
1, 117702, Note_on_c, 9, 46, 0
1, 117702, Note_on_c, 9, 51, 0
1, 117708, Note_on_c, 7, 64, 89
1, 117782, Note_on_c, 7, 64, 0
1, 117784, Note_on_c, 7, 69, 0
1, 117786, Note_on_c, 7, 61, 0
1, 117790, Note_on_c, 7, 57, 0
1, 117792, Note_on_c, 7, 69, 96
1, 117792, Note_on_c, 9, 40, 64
1, 117792, Note_on_c, 7, 64, 105
1, 117796, Note_on_c, 7, 61, 91
1, 117798, Note_on_c, 9, 40, 0
1, 117800, Note_on_c, 7, 57, 84
1, 117888, Note_on_c, 5, 64, 102
1, 117888, Note_on_c, 9, 57, 75
1, 117888, Note_on_c, 5, 57, 104
1, 117888, Note_on_c, 9, 40, 98
1, 117888, Note_on_c, 9, 51, 62
1, 117888, Note_on_c, 9, 42, 92
1, 117888, Note_on_c, 5, 52, 102
1, 117894, Note_on_c, 9, 42, 0
1, 117894, Note_on_c, 9, 51, 0
1, 117894, Note_on_c, 9, 40, 0
1, 117894, Note_on_c, 9, 57, 0
1, 117904, Note_on_c, 3, 69, 0
1, 117904, Note_on_c, 3, 76, 0
1, 117904, Note_on_c, 3, 64, 0
1, 117956, Note_on_c, 0, 33, 0
1, 117974, Note_on_c, 7, 64, 0
1, 117978, Note_on_c, 7, 61, 0
1, 117982, Note_on_c, 7, 57, 0
1, 117984, Note_on_c, 0, 33, 99
1, 117984, Note_on_c, 7, 64, 81
1, 117984, Note_on_c, 9, 40, 77
1, 117984, Note_on_c, 9, 47, 80
1, 117988, Note_on_c, 7, 61, 64
1, 117990, Note_on_c, 9, 47, 0
1, 117990, Note_on_c, 9, 40, 0
1, 117992, Note_on_c, 7, 57, 59
1, 118070, Note_on_c, 7, 57, 0
1, 118072, Note_on_c, 5, 52, 0
1, 118072, Note_on_c, 5, 45, 0
1, 118076, Note_on_c, 7, 61, 0
1, 118080, Note_on_c, 5, 45, 75
1, 118080, Note_on_c, 9, 45, 88
1, 118080, Note_on_c, 9, 40, 75
1, 118080, Note_on_c, 7, 57, 76
1, 118080, Note_on_c, 5, 52, 70
1, 118080, Note_on_c, 9, 51, 63
1, 118080, Note_on_c, 9, 46, 64
1, 118082, Note_on_c, 7, 64, 0
1, 118084, Note_on_c, 7, 69, 0
1, 118085, Note_on_c, 7, 61, 85
1, 118086, Note_on_c, 9, 46, 0
1, 118086, Note_on_c, 9, 51, 0
1, 118086, Note_on_c, 9, 40, 0
1, 118086, Note_on_c, 9, 45, 0
1, 118092, Note_on_c, 7, 69, 81
1, 118092, Note_on_c, 7, 64, 94
1, 118146, Note_on_c, 5, 52, 0
1, 118146, Note_on_c, 5, 45, 0
1, 118174, Note_on_c, 7, 57, 0
1, 118176, Note_on_c, 9, 45, 69
1, 118176, Note_on_c, 5, 45, 68
1, 118176, Note_on_c, 9, 35, 95
1, 118176, Note_on_c, 5, 52, 69
1, 118182, Note_on_c, 9, 35, 0
1, 118182, Note_on_c, 9, 45, 0
1, 118184, Note_on_c, 7, 57, 59
1, 118242, Note_on_c, 5, 52, 0
1, 118242, Note_on_c, 5, 45, 0
1, 118250, Note_on_c, 0, 33, 0
1, 118252, Note_on_c, 1, 64, 0
1, 118252, Note_on_c, 1, 52, 0
1, 118252, Note_on_c, 1, 61, 0
1, 118252, Note_on_c, 1, 57, 0
1, 118260, Note_on_c, 7, 57, 0
1, 118260, Note_on_c, 1, 43, 83
1, 118260, Note_on_c, 1, 62, 83
1, 118260, Note_on_c, 1, 67, 82
1, 118260, Note_on_c, 1, 59, 76
1, 118262, Note_on_c, 7, 61, 0
1, 118262, Note_on_c, 7, 69, 0
1, 118262, Note_on_c, 7, 64, 0
1, 118264, Note_on_c, 5, 57, 0
1, 118264, Note_on_c, 5, 64, 0
1, 118270, Note_on_c, 8, 76, 0
1, 118270, Note_on_c, 8, 69, 0
1, 118270, Note_on_c, 8, 64, 0
1, 118272, Note_on_c, 9, 42, 91
1, 118272, Note_on_c, 0, 31, 105
1, 118272, Note_on_c, 7, 59, 87
1, 118272, Note_on_c, 9, 35, 123
1, 118272, Note_on_c, 5, 43, 83
1, 118272, Note_on_c, 9, 49, 73
1, 118272, Note_on_c, 9, 51, 54
1, 118272, Note_on_c, 5, 50, 71
1, 118272, Note_on_c, 5, 55, 76
1, 118277, Note_on_c, 7, 62, 92
1, 118278, Note_on_c, 9, 51, 0
1, 118278, Note_on_c, 9, 49, 0
1, 118278, Note_on_c, 9, 35, 0
1, 118278, Note_on_c, 9, 42, 0
1, 118284, Note_on_c, 7, 67, 107
1, 119756, Note_on_c, 7, 59, 0
1, 119762, Note_on_c, 7, 62, 0
1, 119768, Note_on_c, 7, 67, 0
1, 119788, Note_on_c, 1, 43, 0
1, 119788, Note_on_c, 1, 62, 0
1, 119788, Note_on_c, 1, 67, 0
1, 119788, Note_on_c, 1, 59, 0
1, 119798, Note_on_c, 5, 43, 0
1, 119798, Note_on_c, 5, 50, 0
1, 119798, Note_on_c, 5, 55, 0
1, 119800, Note_on_c, 0, 31, 0
1, 121140, Control_c, 1, 120, 0
1, 121152, Control_c, 4, 120, 0
1, 121152, Control_c, 5, 120, 0
1, 121152, Control_c, 3, 120, 0
1, 121152, Control_c, 2, 120, 0
1, 121152, Control_c, 8, 120, 0
1, 121152, Control_c, 0, 120, 0
1, 121152, Control_c, 6, 120, 0
1, 121152, Control_c, 7, 120, 0
1, 121236, Control_c, 1, 123, 0
1, 121248, Control_c, 4, 123, 0
1, 121248, Control_c, 0, 123, 0
1, 121248, Control_c, 9, 120, 0
1, 121248, Control_c, 5, 123, 0
1, 121248, Control_c, 3, 123, 0
1, 121248, Control_c, 7, 123, 0
1, 121248, Control_c, 6, 123, 0
1, 121248, Control_c, 2, 123, 0
1, 121248, Control_c, 8, 123, 0
1, 121248, End_track
0, 0, End_of_file
