0, 0, Header, 0, 1, 96
1, 0, Start_track
1, 0, Title_t, "Cream"
1, 0, Copyright_t, "(P)1994 International Music Publications Ltd(C)1994 Barnes Music Engraving Ltd"
1, 0, Time_signature, 4, 2, 24, 8
1, 0, Tempo, 530973
1, 0, System_exclusive, 5, 126, 127, 9, 1, 247
1, 103, Program_c, 1, 33
1, 104, Control_c, 1, 7, 78
1, 104, Control_c, 1, 10, 64
1, 104, Control_c, 1, 11, 127
1, 105, Control_c, 1, 91, 5
1, 105, Control_c, 1, 93, 45
1, 108, Program_c, 2, 18
1, 109, Control_c, 2, 7, 60
1, 109, Control_c, 2, 10, 64
1, 109, Control_c, 2, 11, 127
1, 110, Control_c, 2, 91, 40
1, 110, Control_c, 2, 93, 0
1, 113, Program_c, 3, 63
1, 114, Control_c, 3, 7, 82
1, 114, Control_c, 3, 10, 64
1, 114, Control_c, 3, 11, 34
1, 115, Control_c, 3, 91, 45
1, 115, Control_c, 3, 93, 0
1, 118, Program_c, 4, 28
1, 119, Control_c, 4, 7, 54
1, 119, Control_c, 4, 10, 84
1, 119, Control_c, 4, 11, 127
1, 120, Control_c, 4, 91, 0
1, 120, Control_c, 4, 93, 0
1, 123, Program_c, 5, 29
1, 124, Control_c, 5, 7, 70
1, 124, Control_c, 5, 10, 14
1, 124, Control_c, 5, 11, 127
1, 125, Control_c, 5, 91, 64
1, 125, Control_c, 5, 93, 0
1, 128, Program_c, 6, 90
1, 129, Control_c, 6, 7, 80
1, 129, Control_c, 6, 10, 64
1, 129, Control_c, 6, 11, 127
1, 130, Control_c, 6, 91, 18
1, 130, Control_c, 6, 93, 64
1, 133, Program_c, 7, 30
1, 134, Control_c, 7, 7, 72
1, 134, Control_c, 7, 10, 92
1, 134, Control_c, 7, 11, 127
1, 135, Control_c, 7, 91, 80
1, 135, Control_c, 7, 93, 0
1, 138, Program_c, 8, 48
1, 139, Control_c, 8, 7, 80
1, 139, Control_c, 8, 10, 64
1, 139, Control_c, 8, 11, 127
1, 140, Control_c, 8, 91, 40
1, 140, Control_c, 8, 93, 0
1, 144, Control_c, 9, 7, 110
1, 144, Control_c, 9, 11, 127
1, 145, Control_c, 9, 91, 80
1, 145, Control_c, 9, 93, 30
1, 148, Program_c, 10, 53
1, 149, Control_c, 10, 7, 30
1, 149, Control_c, 10, 10, 64
1, 149, Control_c, 10, 11, 127
1, 150, Control_c, 10, 91, 64
1, 150, Control_c, 10, 93, 64
1, 153, Program_c, 11, 54
1, 154, Control_c, 11, 7, 90
1, 154, Control_c, 11, 10, 64
1, 154, Control_c, 11, 11, 127
1, 155, Control_c, 11, 91, 40
1, 155, Control_c, 11, 93, 30
1, 158, Program_c, 12, 119
1, 159, Control_c, 12, 7, 127
1, 159, Control_c, 12, 10, 64
1, 159, Control_c, 12, 11, 127
1, 160, Control_c, 12, 91, 127
1, 160, Control_c, 12, 93, 0
1, 163, Program_c, 13, 12
1, 164, Control_c, 13, 7, 24
1, 164, Control_c, 13, 10, 80
1, 164, Control_c, 13, 11, 127
1, 165, Control_c, 13, 91, 100
1, 165, Control_c, 13, 93, 0
1, 384, Time_signature, 4, 2, 24, 8
1, 384, Note_on_c, 9, 42, 100
1, 387, Note_off_c, 9, 42, 64
1, 480, Note_on_c, 9, 42, 70
1, 483, Note_off_c, 9, 42, 64
1, 576, Note_on_c, 9, 42, 70
1, 579, Note_off_c, 9, 42, 64
1, 672, Note_on_c, 9, 42, 70
1, 675, Note_off_c, 9, 42, 64
1, 768, Note_on_c, 9, 42, 100
1, 771, Note_off_c, 9, 42, 64
1, 864, Note_on_c, 9, 42, 70
1, 867, Note_off_c, 9, 42, 64
1, 960, Note_on_c, 9, 42, 70
1, 963, Note_off_c, 9, 42, 64
1, 1056, Note_on_c, 9, 42, 70
1, 1059, Note_off_c, 9, 42, 64
1, 1152, Note_on_c, 9, 56, 94
1, 1152, Note_on_c, 13, 85, 127
1, 1155, Note_off_c, 9, 56, 64
1, 1155, Note_on_c, 9, 36, 72
1, 1155, Note_off_c, 13, 85, 64
1, 1158, Note_off_c, 9, 36, 64
1, 1179, Pitch_bend_c, 3, 8191
1, 1180, Note_on_c, 3, 58, 113
1, 1194, Control_c, 3, 11, 35
1, 1211, Control_c, 3, 11, 37
1, 1220, Control_c, 3, 11, 39
1, 1228, Control_c, 3, 11, 41
1, 1236, Control_c, 3, 11, 42
1, 1246, Note_on_c, 9, 56, 72
1, 1248, Note_on_c, 13, 85, 127
1, 1249, Note_off_c, 9, 56, 64
1, 1251, Note_off_c, 13, 85, 64
1, 1252, Control_c, 3, 11, 44
1, 1261, Control_c, 3, 11, 48
1, 1267, Control_c, 3, 11, 49
1, 1274, Control_c, 3, 11, 51
1, 1282, Control_c, 3, 11, 54
1, 1286, Control_c, 3, 11, 58
1, 1287, Pitch_bend_c, 3, 7808
1, 1288, Pitch_bend_c, 3, 7424
1, 1289, Control_c, 3, 11, 62
1, 1290, Control_c, 3, 11, 69
1, 1292, Pitch_bend_c, 3, 7040
1, 1293, Control_c, 3, 11, 77
1, 1296, Pitch_bend_c, 3, 6912
1, 1297, Control_c, 3, 11, 84
1, 1299, Pitch_bend_c, 3, 6528
1, 1299, Control_c, 3, 11, 90
1, 1302, Pitch_bend_c, 3, 6272
1, 1302, Control_c, 3, 11, 99
1, 1306, Pitch_bend_c, 3, 6016
1, 1306, Control_c, 3, 11, 102
1, 1309, Control_c, 3, 11, 110
1, 1310, Pitch_bend_c, 3, 5760
1, 1311, Control_c, 3, 11, 115
1, 1314, Pitch_bend_c, 3, 5632
1, 1314, Control_c, 3, 11, 118
1, 1317, Control_c, 3, 11, 120
1, 1318, Pitch_bend_c, 3, 5504
1, 1320, Pitch_bend_c, 3, 5376
1, 1320, Control_c, 3, 11, 122
1, 1324, Pitch_bend_c, 3, 5248
1, 1324, Control_c, 3, 11, 124
1, 1327, Control_c, 3, 11, 126
1, 1328, Pitch_bend_c, 3, 4992
1, 1331, Control_c, 3, 11, 127
1, 1332, Pitch_bend_c, 3, 4864
1, 1336, Pitch_bend_c, 3, 4736
1, 1340, Pitch_bend_c, 3, 4480
1, 1341, Note_on_c, 9, 56, 72
1, 1342, Pitch_bend_c, 3, 4352
1, 1344, Note_off_c, 9, 56, 64
1, 1344, Note_on_c, 13, 85, 127
1, 1346, Pitch_bend_c, 3, 4224
1, 1347, Note_off_c, 13, 85, 64
1, 1348, Pitch_bend_c, 3, 3968
1, 1353, Control_c, 3, 11, 125
1, 1354, Pitch_bend_c, 3, 3840
1, 1358, Pitch_bend_c, 3, 3456
1, 1359, Control_c, 3, 11, 123
1, 1364, Pitch_bend_c, 3, 3328
1, 1367, Pitch_bend_c, 3, 3200
1, 1369, Pitch_bend_c, 3, 2944
1, 1375, Pitch_bend_c, 3, 2816
1, 1379, Pitch_bend_c, 3, 2560
1, 1385, Pitch_bend_c, 3, 2432
1, 1385, Control_c, 3, 11, 121
1, 1389, Pitch_bend_c, 3, 2304
1, 1391, Control_c, 3, 11, 120
1, 1393, Pitch_bend_c, 3, 2176
1, 1396, Control_c, 3, 11, 119
1, 1397, Pitch_bend_c, 3, 2048
1, 1401, Pitch_bend_c, 3, 1920
1, 1404, Control_c, 3, 11, 117
1, 1405, Pitch_bend_c, 3, 1792
1, 1409, Pitch_bend_c, 3, 1664
1, 1411, Pitch_bend_c, 3, 1536
1, 1415, Pitch_bend_c, 3, 1408
1, 1419, Pitch_bend_c, 3, 1280
1, 1419, Control_c, 3, 11, 115
1, 1422, Control_c, 3, 11, 114
1, 1422, Pitch_bend_c, 3, 1152
1, 1426, Pitch_bend_c, 3, 1024
1, 1430, Pitch_bend_c, 3, 896
1, 1434, Pitch_bend_c, 3, 768
1, 1436, Pitch_bend_c, 3, 640
1, 1436, Control_c, 3, 11, 112
1, 1439, Note_on_c, 9, 56, 72
1, 1440, Pitch_bend_c, 3, 512
1, 1440, Note_on_c, 13, 85, 127
1, 1442, Pitch_bend_c, 3, 384
1, 1442, Control_c, 3, 11, 110
1, 1442, Note_off_c, 9, 56, 64
1, 1443, Note_off_c, 13, 85, 64
1, 1445, Control_c, 3, 11, 109
1, 1446, Pitch_bend_c, 3, 256
1, 1450, Pitch_bend_c, 3, 128
1, 1451, Control_c, 3, 11, 108
1, 1454, Pitch_bend_c, 3, 0
1, 1457, Control_c, 3, 11, 107
1, 1461, Control_c, 3, 11, 105
1, 1466, Control_c, 3, 11, 104
1, 1472, Control_c, 3, 11, 103
1, 1476, Control_c, 3, 11, 102
1, 1481, Control_c, 3, 11, 101
1, 1487, Control_c, 3, 11, 100
1, 1491, Control_c, 3, 11, 99
1, 1497, Control_c, 3, 11, 97
1, 1502, Control_c, 3, 11, 96
1, 1510, Control_c, 3, 11, 95
1, 1536, Pitch_bend_c, 3, 128
1, 1536, Note_on_c, 9, 56, 72
1, 1536, Note_on_c, 13, 85, 127
1, 1539, Pitch_bend_c, 3, 256
1, 1539, Note_off_c, 9, 56, 64
1, 1539, Note_off_c, 13, 85, 64
1, 1541, Pitch_bend_c, 3, 384
1, 1544, Pitch_bend_c, 3, 640
1, 1549, Pitch_bend_c, 3, 896
1, 1553, Pitch_bend_c, 3, 1024
1, 1556, Pitch_bend_c, 3, 1280
1, 1558, Pitch_bend_c, 3, 1536
1, 1562, Pitch_bend_c, 3, 1920
1, 1566, Pitch_bend_c, 3, 2048
1, 1568, Pitch_bend_c, 3, 2432
1, 1572, Pitch_bend_c, 3, 2816
1, 1576, Pitch_bend_c, 3, 3072
1, 1580, Pitch_bend_c, 3, 3456
1, 1584, Pitch_bend_c, 3, 3584
1, 1585, Control_c, 3, 11, 97
1, 1586, Pitch_bend_c, 3, 3840
1, 1590, Pitch_bend_c, 3, 4096
1, 1593, Control_c, 3, 11, 100
1, 1594, Pitch_bend_c, 3, 4224
1, 1597, Pitch_bend_c, 3, 4352
1, 1600, Pitch_bend_c, 3, 4736
1, 1601, Control_c, 3, 11, 101
1, 1606, Pitch_bend_c, 3, 4864
1, 1607, Pitch_bend_c, 3, 5120
1, 1608, Control_c, 3, 11, 102
1, 1612, Pitch_bend_c, 3, 5248
1, 1614, Pitch_bend_c, 3, 5376
1, 1617, Pitch_bend_c, 3, 5632
1, 1621, Pitch_bend_c, 3, 5888
1, 1625, Pitch_bend_c, 3, 6144
1, 1629, Pitch_bend_c, 3, 6400
1, 1631, Control_c, 3, 11, 104
1, 1631, Note_on_c, 9, 56, 72
1, 1632, Note_on_c, 13, 85, 127
1, 1633, Pitch_bend_c, 3, 6656
1, 1634, Note_off_c, 9, 56, 64
1, 1635, Pitch_bend_c, 3, 6912
1, 1635, Note_off_c, 13, 85, 64
1, 1639, Pitch_bend_c, 3, 7296
1, 1643, Pitch_bend_c, 3, 7424
1, 1645, Pitch_bend_c, 3, 7680
1, 1646, Control_c, 3, 11, 106
1, 1648, Control_c, 3, 11, 107
1, 1649, Pitch_bend_c, 3, 8192
1, 1668, Control_c, 3, 11, 109
1, 1676, Control_c, 3, 11, 110
1, 1691, Control_c, 3, 11, 112
1, 1706, Control_c, 3, 11, 114
1, 1708, Pitch_bend_c, 3, 7680
1, 1712, Pitch_bend_c, 3, 7296
1, 1716, Pitch_bend_c, 3, 7040
1, 1720, Pitch_bend_c, 3, 6784
1, 1724, Pitch_bend_c, 3, 6656
1, 1726, Pitch_bend_c, 3, 6400
1, 1727, Note_on_c, 9, 56, 72
1, 1728, Note_on_c, 13, 85, 127
1, 1730, Note_off_c, 9, 56, 64
1, 1731, Note_off_c, 13, 85, 64
1, 1732, Pitch_bend_c, 3, 6144
1, 1734, Pitch_bend_c, 3, 6016
1, 1737, Pitch_bend_c, 3, 5632
1, 1741, Pitch_bend_c, 3, 5504
1, 1743, Pitch_bend_c, 3, 5248
1, 1747, Pitch_bend_c, 3, 4864
1, 1751, Pitch_bend_c, 3, 4608
1, 1755, Pitch_bend_c, 3, 4352
1, 1757, Pitch_bend_c, 3, 4096
1, 1761, Pitch_bend_c, 3, 3712
1, 1765, Pitch_bend_c, 3, 3328
1, 1769, Pitch_bend_c, 3, 2944
1, 1773, Pitch_bend_c, 3, 2816
1, 1774, Control_c, 3, 11, 112
1, 1775, Pitch_bend_c, 3, 2560
1, 1779, Pitch_bend_c, 3, 2304
1, 1780, Note_on_c, 9, 40, 65
1, 1783, Pitch_bend_c, 3, 2048
1, 1783, Note_off_c, 9, 40, 64
1, 1789, Pitch_bend_c, 3, 1920
1, 1790, Control_c, 3, 11, 109
1, 1793, Control_c, 3, 11, 108
1, 1794, Pitch_bend_c, 3, 1792
1, 1801, Control_c, 3, 11, 107
1, 1808, Control_c, 3, 11, 105
1, 1812, Pitch_bend_c, 3, 1920
1, 1814, Control_c, 3, 11, 103
1, 1816, Pitch_bend_c, 3, 2048
1, 1818, Pitch_bend_c, 3, 2176
1, 1820, Pitch_bend_c, 3, 2432
1, 1820, Control_c, 3, 11, 101
1, 1823, Note_on_c, 9, 56, 72
1, 1824, Control_c, 3, 11, 100
1, 1824, Pitch_bend_c, 3, 2816
1, 1824, Note_on_c, 13, 85, 127
1, 1826, Note_off_c, 9, 56, 64
1, 1827, Note_off_c, 13, 85, 64
1, 1828, Pitch_bend_c, 3, 3072
1, 1831, Control_c, 3, 11, 98
1, 1832, Pitch_bend_c, 3, 3456
1, 1836, Pitch_bend_c, 3, 3584
1, 1838, Pitch_bend_c, 3, 4096
1, 1839, Control_c, 3, 11, 96
1, 1842, Pitch_bend_c, 3, 4480
1, 1844, Control_c, 3, 11, 95
1, 1846, Pitch_bend_c, 3, 4992
1, 1850, Pitch_bend_c, 3, 5248
1, 1850, Control_c, 3, 11, 94
1, 1852, Pitch_bend_c, 3, 5760
1, 1856, Pitch_bend_c, 3, 6272
1, 1860, Pitch_bend_c, 3, 6528
1, 1861, Control_c, 3, 11, 92
1, 1863, Pitch_bend_c, 3, 6912
1, 1867, Pitch_bend_c, 3, 7168
1, 1869, Pitch_bend_c, 3, 7424
1, 1873, Pitch_bend_c, 3, 7808
1, 1874, Control_c, 3, 11, 89
1, 1877, Pitch_bend_c, 3, 8192
1, 1880, Control_c, 3, 11, 88
1, 1895, Control_c, 3, 11, 86
1, 1899, Control_c, 3, 11, 85
1, 1904, Control_c, 3, 11, 83
1, 1910, Control_c, 3, 11, 82
1, 1912, Pitch_bend_c, 11, 8191
1, 1913, Note_on_c, 11, 60, 64
1, 1918, Control_c, 3, 11, 81
1, 1920, Note_on_c, 9, 56, 72
1, 1920, Control_c, 11, 11, 126
1, 1920, Control_c, 11, 10, 3
1, 1920, Note_on_c, 13, 85, 127
1, 1921, Control_c, 3, 11, 80
1, 1922, Note_on_c, 9, 36, 96
1, 1923, Note_off_c, 9, 56, 64
1, 1923, Note_off_c, 13, 85, 64
1, 1925, Note_off_c, 9, 36, 64
1, 1927, Control_c, 3, 11, 79
1, 1933, Control_c, 3, 11, 77
1, 1937, Control_c, 3, 11, 76
1, 1942, Control_c, 3, 11, 75
1, 1944, Control_c, 11, 11, 120
1, 1948, Control_c, 3, 11, 74
1, 1968, Control_c, 11, 11, 98
1, 1968, Control_c, 11, 10, 18
1, 1972, Pitch_bend_c, 11, 7908
1, 1974, Pitch_bend_c, 11, 7552
1, 1978, Pitch_bend_c, 11, 7168
1, 1980, Pitch_bend_c, 3, 7936
1, 1982, Pitch_bend_c, 3, 7680
1, 1982, Pitch_bend_c, 11, 7040
1, 1984, Pitch_bend_c, 11, 6528
1, 1986, Pitch_bend_c, 3, 7424
1, 1988, Pitch_bend_c, 11, 6144
1, 1990, Pitch_bend_c, 3, 7168
1, 1992, Pitch_bend_c, 11, 5632
1, 1992, Control_c, 11, 11, 82
1, 1993, Pitch_bend_c, 3, 7040
1, 1995, Pitch_bend_c, 3, 6656
1, 1996, Pitch_bend_c, 11, 5248
1, 1999, Pitch_bend_c, 3, 6400
1, 2000, Pitch_bend_c, 11, 4992
1, 2001, Control_c, 3, 11, 76
1, 2002, Pitch_bend_c, 11, 4608
1, 2003, Pitch_bend_c, 3, 5888
1, 2006, Pitch_bend_c, 11, 4224
1, 2007, Pitch_bend_c, 3, 5760
1, 2009, Pitch_bend_c, 3, 5376
1, 2010, Pitch_bend_c, 11, 3968
1, 2013, Pitch_bend_c, 3, 4992
1, 2014, Note_on_c, 9, 56, 72
1, 2014, Pitch_bend_c, 11, 3840
1, 2016, Control_c, 3, 11, 80
1, 2016, Pitch_bend_c, 11, 3584
1, 2016, Control_c, 11, 11, 60
1, 2016, Control_c, 11, 10, 33
1, 2016, Note_on_c, 13, 85, 127
1, 2017, Pitch_bend_c, 3, 4480
1, 2017, Note_off_c, 9, 56, 64
1, 2019, Note_off_c, 13, 85, 64
1, 2020, Pitch_bend_c, 11, 3328
1, 2021, Pitch_bend_c, 3, 4352
1, 2023, Pitch_bend_c, 3, 4096
1, 2023, Pitch_bend_c, 11, 2944
1, 2024, Control_c, 3, 11, 82
1, 2027, Pitch_bend_c, 3, 3712
1, 2028, Pitch_bend_c, 11, 2816
1, 2031, Pitch_bend_c, 3, 3584
1, 2031, Pitch_bend_c, 11, 2560
1, 2033, Control_c, 3, 11, 84
1, 2035, Pitch_bend_c, 3, 3328
1, 2035, Pitch_bend_c, 11, 2304
1, 2037, Pitch_bend_c, 11, 2048
1, 2039, Control_c, 3, 11, 85
1, 2040, Pitch_bend_c, 3, 3200
1, 2040, Control_c, 11, 11, 51
1, 2041, Pitch_bend_c, 11, 1792
1, 2043, Pitch_bend_c, 3, 3072
1, 2045, Pitch_bend_c, 11, 1664
1, 2046, Pitch_bend_c, 3, 2944
1, 2047, Pitch_bend_c, 11, 1280
1, 2050, Pitch_bend_c, 3, 2816
1, 2051, Pitch_bend_c, 11, 1024
1, 2052, Pitch_bend_c, 3, 2688
1, 2053, Control_c, 3, 11, 88
1, 2055, Pitch_bend_c, 11, 768
1, 2056, Pitch_bend_c, 3, 2560
1, 2059, Pitch_bend_c, 11, 512
1, 2060, Pitch_bend_c, 3, 2432
1, 2060, Control_c, 3, 11, 89
1, 2062, Control_c, 3, 11, 90
1, 2062, Pitch_bend_c, 3, 2304
1, 2064, Pitch_bend_c, 11, 384
1, 2064, Control_c, 11, 11, 97
1, 2064, Control_c, 11, 10, 48
1, 2066, Pitch_bend_c, 3, 2048
1, 2067, Pitch_bend_c, 11, 256
1, 2068, Control_c, 3, 11, 91
1, 2069, Pitch_bend_c, 11, 0
1, 2070, Pitch_bend_c, 3, 1920
1, 2072, Pitch_bend_c, 3, 1664
1, 2072, Control_c, 3, 11, 92
1, 2076, Control_c, 3, 11, 93
1, 2077, Pitch_bend_c, 3, 1408
1, 2079, Control_c, 3, 11, 94
1, 2081, Pitch_bend_c, 3, 1280
1, 2084, Pitch_bend_c, 3, 1152
1, 2084, Control_c, 3, 11, 95
1, 2086, Pitch_bend_c, 3, 768
1, 2088, Control_c, 11, 11, 101
1, 2090, Pitch_bend_c, 3, 512
1, 2091, Control_c, 3, 11, 96
1, 2093, Control_c, 3, 11, 97
1, 2094, Pitch_bend_c, 3, 256
1, 2098, Pitch_bend_c, 3, 0
1, 2106, Control_c, 3, 11, 100
1, 2109, Note_on_c, 9, 56, 72
1, 2112, Note_off_c, 9, 56, 64
1, 2112, Control_c, 11, 11, 110
1, 2112, Control_c, 11, 10, 63
1, 2112, Note_on_c, 13, 85, 127
1, 2114, Control_c, 3, 11, 101
1, 2115, Control_c, 3, 11, 102
1, 2115, Note_off_c, 13, 85, 64
1, 2121, Control_c, 3, 11, 104
1, 2136, Control_c, 3, 11, 106
1, 2136, Control_c, 11, 11, 118
1, 2150, Pitch_bend_c, 11, 256
1, 2151, Control_c, 3, 11, 108
1, 2155, Pitch_bend_c, 11, 512
1, 2159, Pitch_bend_c, 11, 640
1, 2160, Control_c, 11, 11, 122
1, 2160, Control_c, 11, 10, 79
1, 2163, Pitch_bend_c, 11, 896
1, 2166, Control_c, 3, 11, 111
1, 2167, Pitch_bend_c, 11, 1280
1, 2171, Pitch_bend_c, 11, 1408
1, 2173, Pitch_bend_c, 11, 1664
1, 2177, Pitch_bend_c, 11, 1920
1, 2181, Control_c, 3, 11, 114
1, 2181, Pitch_bend_c, 11, 2176
1, 2184, Control_c, 11, 11, 124
1, 2185, Pitch_bend_c, 11, 2560
1, 2189, Pitch_bend_c, 11, 2688
1, 2191, Pitch_bend_c, 11, 2944
1, 2195, Pitch_bend_c, 11, 3328
1, 2196, Pitch_bend_c, 3, 256
1, 2198, Pitch_bend_c, 3, 512
1, 2199, Pitch_bend_c, 11, 3712
1, 2202, Pitch_bend_c, 3, 768
1, 2203, Pitch_bend_c, 11, 3968
1, 2206, Pitch_bend_c, 3, 1024
1, 2207, Note_on_c, 9, 56, 72
1, 2207, Pitch_bend_c, 11, 4224
1, 2208, Pitch_bend_c, 11, 4608
1, 2208, Control_c, 11, 10, 94
1, 2208, Note_on_c, 13, 85, 127
1, 2210, Pitch_bend_c, 3, 1280
1, 2210, Note_off_c, 9, 56, 64
1, 2211, Note_off_c, 13, 85, 64
1, 2212, Pitch_bend_c, 3, 1536
1, 2212, Pitch_bend_c, 11, 4992
1, 2216, Pitch_bend_c, 3, 1792
1, 2216, Pitch_bend_c, 11, 5376
1, 2220, Pitch_bend_c, 3, 2176
1, 2220, Pitch_bend_c, 11, 5504
1, 2222, Pitch_bend_c, 11, 5888
1, 2224, Pitch_bend_c, 3, 2560
1, 2226, Pitch_bend_c, 11, 6144
1, 2228, Pitch_bend_c, 3, 2688
1, 2230, Pitch_bend_c, 3, 2944
1, 2230, Pitch_bend_c, 11, 6400
1, 2232, Control_c, 11, 11, 122
1, 2234, Pitch_bend_c, 3, 3328
1, 2234, Pitch_bend_c, 11, 6528
1, 2236, Control_c, 3, 11, 111
1, 2236, Pitch_bend_c, 11, 6912
1, 2238, Pitch_bend_c, 3, 3584
1, 2240, Pitch_bend_c, 11, 7296
1, 2241, Pitch_bend_c, 3, 3712
1, 2244, Pitch_bend_c, 3, 3968
1, 2244, Pitch_bend_c, 11, 7680
1, 2248, Pitch_bend_c, 11, 7936
1, 2249, Pitch_bend_c, 3, 4224
1, 2252, Pitch_bend_c, 11, 8192
1, 2253, Pitch_bend_c, 3, 4352
1, 2256, Control_c, 11, 11, 103
1, 2256, Control_c, 11, 10, 109
1, 2257, Pitch_bend_c, 3, 4608
1, 2257, Control_c, 3, 11, 109
1, 2259, Pitch_bend_c, 3, 4736
1, 2261, Control_c, 3, 11, 107
1, 2263, Pitch_bend_c, 3, 4864
1, 2264, Pitch_bend_c, 11, 7936
1, 2265, Pitch_bend_c, 3, 5120
1, 2266, Control_c, 3, 11, 105
1, 2266, Pitch_bend_c, 11, 7808
1, 2268, Pitch_bend_c, 11, 7168
1, 2269, Pitch_bend_c, 3, 5376
1, 2272, Control_c, 3, 11, 103
1, 2272, Pitch_bend_c, 11, 6400
1, 2273, Pitch_bend_c, 3, 5760
1, 2275, Pitch_bend_c, 11, 5504
1, 2277, Pitch_bend_c, 3, 5888
1, 2279, Pitch_bend_c, 3, 6144
1, 2280, Pitch_bend_c, 11, 4480
1, 2280, Control_c, 11, 11, 87
1, 2281, Control_c, 3, 11, 102
1, 2283, Pitch_bend_c, 3, 6400
1, 2283, Pitch_bend_c, 11, 3840
1, 2285, Pitch_bend_c, 11, 2944
1, 2287, Pitch_bend_c, 3, 6656
1, 2287, Control_c, 3, 11, 100
1, 2289, Pitch_bend_c, 11, 2304
1, 2291, Control_c, 3, 11, 99
1, 2291, Pitch_bend_c, 3, 7040
1, 2293, Pitch_bend_c, 11, 1792
1, 2295, Pitch_bend_c, 3, 7168
1, 2296, Pitch_bend_c, 3, 7424
1, 2296, Control_c, 3, 11, 98
1, 2297, Pitch_bend_c, 11, 1536
1, 2299, Pitch_bend_c, 11, 1408
1, 2300, Pitch_bend_c, 3, 7808
1, 2302, Control_c, 3, 11, 96
1, 2303, Pitch_bend_c, 11, 1280
1, 2304, Pitch_bend_c, 3, 8192
1, 2304, Note_on_c, 9, 56, 72
1, 2304, Control_c, 11, 11, 72
1, 2304, Control_c, 11, 10, 124
1, 2304, Note_on_c, 13, 85, 127
1, 2306, Control_c, 3, 11, 95
1, 2307, Note_off_c, 9, 56, 64
1, 2307, Note_off_c, 13, 85, 64
1, 2311, Pitch_bend_c, 11, 1664
1, 2312, Control_c, 3, 11, 93
1, 2315, Pitch_bend_c, 11, 1920
1, 2317, Pitch_bend_c, 11, 2304
1, 2318, Control_c, 3, 11, 90
1, 2321, Pitch_bend_c, 11, 2688
1, 2325, Pitch_bend_c, 11, 3072
1, 2327, Control_c, 3, 11, 88
1, 2328, Control_c, 11, 11, 64
1, 2329, Pitch_bend_c, 11, 3200
1, 2331, Pitch_bend_c, 11, 3712
1, 2332, Control_c, 3, 11, 87
1, 2335, Pitch_bend_c, 11, 4224
1, 2337, Control_c, 3, 11, 85
1, 2339, Pitch_bend_c, 11, 4608
1, 2342, Control_c, 3, 11, 83
1, 2342, Pitch_bend_c, 11, 4864
1, 2346, Pitch_bend_c, 11, 4992
1, 2347, Control_c, 3, 11, 82
1, 2348, Pitch_bend_c, 11, 5248
1, 2352, Control_c, 3, 11, 81
1, 2352, Control_c, 11, 11, 59
1, 2352, Control_c, 11, 10, 108
1, 2354, Pitch_bend_c, 11, 5376
1, 2356, Pitch_bend_c, 3, 8452
1, 2356, Pitch_bend_c, 11, 5504
1, 2357, Control_c, 3, 11, 80
1, 2359, Pitch_bend_c, 3, 8842
1, 2363, Pitch_bend_c, 3, 9102
1, 2363, Control_c, 3, 11, 78
1, 2367, Pitch_bend_c, 3, 9362
1, 2371, Pitch_bend_c, 3, 9492
1, 2372, Pitch_bend_c, 11, 5632
1, 2373, Pitch_bend_c, 3, 9882
1, 2374, Control_c, 3, 11, 76
1, 2376, Control_c, 11, 11, 57
1, 2377, Pitch_bend_c, 3, 10142
1, 2378, Pitch_bend_c, 11, 5760
1, 2380, Control_c, 3, 11, 75
1, 2380, Pitch_bend_c, 11, 5888
1, 2381, Pitch_bend_c, 3, 10402
1, 2384, Pitch_bend_c, 11, 6144
1, 2385, Pitch_bend_c, 3, 10532
1, 2386, Control_c, 3, 11, 74
1, 2387, Pitch_bend_c, 3, 10662
1, 2388, Pitch_bend_c, 11, 6400
1, 2389, Control_c, 3, 11, 73
1, 2391, Pitch_bend_c, 3, 11052
1, 2392, Pitch_bend_c, 11, 6528
1, 2394, Pitch_bend_c, 11, 6784
1, 2395, Pitch_bend_c, 3, 11312
1, 2397, Control_c, 3, 11, 71
1, 2398, Pitch_bend_c, 11, 7040
1, 2399, Pitch_bend_c, 3, 11572
1, 2399, Note_on_c, 9, 56, 72
1, 2400, Control_c, 11, 10, 93
1, 2400, Note_on_c, 12, 47, 127
1, 2400, Note_on_c, 13, 85, 127
1, 2401, Pitch_bend_c, 3, 11832
1, 2402, Note_off_c, 9, 56, 64
1, 2402, Pitch_bend_c, 11, 7424
1, 2403, Control_c, 3, 11, 69
1, 2403, Note_off_c, 13, 85, 64
1, 2405, Pitch_bend_c, 3, 12092
1, 2407, Pitch_bend_c, 11, 7552
1, 2408, Control_c, 3, 11, 67
1, 2409, Pitch_bend_c, 3, 12352
1, 2409, Pitch_bend_c, 11, 7808
1, 2411, Pitch_bend_c, 11, 8192
1, 2412, Control_c, 3, 11, 65
1, 2413, Pitch_bend_c, 3, 12482
1, 2416, Pitch_bend_c, 3, 12612
1, 2418, Control_c, 3, 11, 64
1, 2419, Pitch_bend_c, 3, 12872
1, 2423, Control_c, 3, 11, 62
1, 2424, Pitch_bend_c, 3, 13132
1, 2427, Control_c, 3, 11, 61
1, 2429, Pitch_bend_c, 3, 13522
1, 2432, Control_c, 3, 11, 59
1, 2433, Pitch_bend_c, 3, 13782
1, 2436, Pitch_bend_c, 3, 14172
1, 2440, Pitch_bend_c, 3, 14432
1, 2444, Pitch_bend_c, 3, 14822
1, 2448, Pitch_bend_c, 3, 14952
1, 2448, Control_c, 11, 10, 77
1, 2448, Control_c, 11, 11, 68
1, 2451, Pitch_bend_c, 3, 15082
1, 2456, Pitch_bend_c, 3, 15212
1, 2457, Pitch_bend_c, 11, 8452
1, 2460, Pitch_bend_c, 11, 8582
1, 2464, Pitch_bend_c, 11, 8972
1, 2470, Pitch_bend_c, 11, 9102
1, 2472, Pitch_bend_c, 11, 9232
1, 2472, Control_c, 11, 11, 76
1, 2476, Control_c, 3, 11, 62
1, 2476, Pitch_bend_c, 11, 9492
1, 2478, Pitch_bend_c, 3, 15082
1, 2480, Control_c, 3, 11, 63
1, 2480, Pitch_bend_c, 11, 9622
1, 2482, Pitch_bend_c, 11, 9752
1, 2484, Control_c, 3, 11, 67
1, 2485, Pitch_bend_c, 3, 14952
1, 2486, Pitch_bend_c, 11, 10012
1, 2488, Pitch_bend_c, 11, 10272
1, 2489, Pitch_bend_c, 3, 14692
1, 2491, Control_c, 3, 11, 71
1, 2492, Pitch_bend_c, 11, 10532
1, 2493, Control_c, 3, 11, 73
1, 2494, Note_on_c, 9, 56, 72
1, 2495, Pitch_bend_c, 3, 14562
1, 2496, Control_c, 11, 11, 80
1, 2496, Control_c, 11, 10, 62
1, 2496, Note_on_c, 13, 85, 127
1, 2497, Pitch_bend_c, 3, 14302
1, 2497, Note_off_c, 9, 56, 64
1, 2498, Pitch_bend_c, 11, 10662
1, 2499, Control_c, 3, 11, 78
1, 2499, Note_off_c, 13, 85, 64
1, 2500, Pitch_bend_c, 11, 10792
1, 2501, Pitch_bend_c, 3, 14172
1, 2502, Pitch_bend_c, 11, 11052
1, 2504, Pitch_bend_c, 3, 14042
1, 2506, Control_c, 3, 11, 82
1, 2507, Pitch_bend_c, 3, 13912
1, 2508, Pitch_bend_c, 11, 11182
1, 2511, Pitch_bend_c, 3, 13782
1, 2512, Pitch_bend_c, 11, 11442
1, 2514, Control_c, 3, 11, 83
1, 2515, Pitch_bend_c, 3, 13652
1, 2515, Pitch_bend_c, 11, 11572
1, 2517, Control_c, 3, 11, 84
1, 2519, Pitch_bend_c, 11, 11702
1, 2520, Control_c, 11, 11, 89
1, 2521, Control_c, 3, 11, 86
1, 2521, Pitch_bend_c, 3, 13522
1, 2521, Pitch_bend_c, 11, 11832
1, 2524, Pitch_bend_c, 11, 11962
1, 2525, Pitch_bend_c, 3, 13262
1, 2527, Pitch_bend_c, 11, 12222
1, 2529, Control_c, 3, 11, 88
1, 2531, Pitch_bend_c, 3, 13132
1, 2533, Pitch_bend_c, 11, 12352
1, 2534, Pitch_bend_c, 3, 12872
1, 2535, Pitch_bend_c, 11, 12482
1, 2536, Control_c, 3, 11, 89
1, 2537, Pitch_bend_c, 11, 12742
1, 2538, Control_c, 3, 11, 91
1, 2538, Pitch_bend_c, 3, 12612
1, 2542, Pitch_bend_c, 3, 12352
1, 2542, Note_on_c, 9, 36, 78
1, 2543, Note_on_c, 9, 40, 80
1, 2543, Pitch_bend_c, 11, 13002
1, 2544, Control_c, 3, 11, 93
1, 2544, Control_c, 11, 11, 97
1, 2544, Control_c, 11, 10, 46
1, 2544, Note_on_c, 13, 87, 127
1, 2545, Note_off_c, 9, 36, 64
1, 2545, Pitch_bend_c, 11, 13132
1, 2546, Pitch_bend_c, 3, 12222
1, 2546, Note_off_c, 9, 40, 64
1, 2547, Note_off_c, 13, 87, 64
1, 2548, Pitch_bend_c, 3, 11832
1, 2549, Pitch_bend_c, 11, 13392
1, 2552, Pitch_bend_c, 3, 11572
1, 2552, Control_c, 3, 11, 95
1, 2553, Pitch_bend_c, 11, 13522
1, 2555, Pitch_bend_c, 11, 13782
1, 2556, Pitch_bend_c, 3, 11182
1, 2559, Control_c, 3, 11, 97
1, 2559, Note_off_c, 12, 47, 64
1, 2560, Pitch_bend_c, 3, 11052
1, 2560, Pitch_bend_c, 11, 13912
1, 2562, Pitch_bend_c, 3, 10792
1, 2563, Pitch_bend_c, 11, 14042
1, 2566, Pitch_bend_c, 3, 10402
1, 2567, Control_c, 3, 11, 100
1, 2568, Control_c, 11, 11, 103
1, 2570, Pitch_bend_c, 3, 10142
1, 2571, Pitch_bend_c, 11, 14172
1, 2574, Pitch_bend_c, 3, 10012
1, 2574, Control_c, 3, 11, 103
1, 2576, Pitch_bend_c, 3, 9622
1, 2580, Pitch_bend_c, 3, 9362
1, 2581, Pitch_bend_c, 11, 14302
1, 2582, Control_c, 3, 11, 104
1, 2584, Pitch_bend_c, 3, 9102
1, 2585, Control_c, 3, 11, 105
1, 2587, Pitch_bend_c, 11, 14432
1, 2588, Pitch_bend_c, 3, 8712
1, 2589, Control_c, 3, 11, 107
1, 2592, Pitch_bend_c, 3, 8582
1, 2592, Control_c, 11, 11, 120
1, 2592, Control_c, 11, 10, 31
1, 2592, Note_on_c, 13, 85, 127
1, 2593, Pitch_bend_c, 11, 14562
1, 2594, Pitch_bend_c, 3, 8192
1, 2594, Note_on_c, 9, 40, 127
1, 2595, Note_off_c, 13, 85, 64
1, 2596, Pitch_bend_c, 11, 14692
1, 2597, Control_c, 3, 11, 110
1, 2597, Note_off_c, 9, 40, 64
1, 2602, Pitch_bend_c, 11, 14822
1, 2604, Control_c, 3, 11, 111
1, 2606, Control_c, 3, 11, 113
1, 2606, Pitch_bend_c, 11, 14952
1, 2608, Pitch_bend_c, 11, 15082
1, 2612, Control_c, 3, 11, 114
1, 2612, Pitch_bend_c, 11, 15212
1, 2616, Control_c, 3, 11, 115
1, 2616, Pitch_bend_c, 11, 15342
1, 2616, Control_c, 11, 11, 127
1, 2620, Pitch_bend_c, 11, 15472
1, 2621, Control_c, 3, 11, 116
1, 2622, Pitch_bend_c, 11, 15732
1, 2626, Pitch_bend_c, 11, 16122
1, 2627, Control_c, 3, 11, 117
1, 2630, Pitch_bend_c, 11, 16252
1, 2631, Control_c, 3, 11, 118
1, 2632, Pitch_bend_c, 11, 16382
1, 2635, Control_c, 3, 11, 119
1, 2638, Control_c, 3, 11, 120
1, 2640, Note_on_c, 9, 36, 127
1, 2640, Control_c, 11, 10, 64
1, 2640, Note_on_c, 13, 87, 127
1, 2643, Control_c, 3, 11, 121
1, 2643, Note_off_c, 9, 36, 64
1, 2643, Note_off_c, 13, 87, 64
1, 2646, Control_c, 3, 11, 123
1, 2652, Control_c, 3, 11, 124
1, 2655, Note_off_c, 11, 60, 64
1, 2657, Pitch_bend_c, 3, 7680
1, 2658, Control_c, 3, 11, 125
1, 2659, Control_c, 3, 11, 127
1, 2661, Pitch_bend_c, 3, 7296
1, 2665, Pitch_bend_c, 3, 6784
1, 2669, Pitch_bend_c, 3, 6528
1, 2671, Pitch_bend_c, 3, 6016
1, 2674, Pitch_bend_c, 3, 5248
1, 2678, Pitch_bend_c, 3, 4480
1, 2682, Pitch_bend_c, 3, 3456
1, 2686, Pitch_bend_c, 3, 2944
1, 2688, Pitch_bend_c, 3, 1536
1, 2688, Note_on_c, 9, 36, 94
1, 2688, Note_on_c, 9, 56, 72
1, 2688, Note_on_c, 13, 85, 127
1, 2689, Note_on_c, 9, 49, 127
1, 2691, Note_off_c, 9, 56, 64
1, 2691, Note_off_c, 9, 36, 64
1, 2691, Note_off_c, 13, 85, 64
1, 2692, Pitch_bend_c, 3, 0
1, 2692, Note_off_c, 9, 49, 64
1, 2717, Note_off_c, 3, 58, 64
1, 2736, Note_on_c, 9, 44, 73
1, 2736, Note_on_c, 13, 87, 127
1, 2739, Note_off_c, 9, 44, 64
1, 2739, Note_off_c, 13, 87, 64
1, 2783, Note_on_c, 9, 42, 94
1, 2785, Note_on_c, 9, 40, 94
1, 2786, Note_off_c, 9, 42, 64
1, 2788, Note_off_c, 9, 40, 64
1, 2832, Note_on_c, 9, 44, 73
1, 2832, Note_on_c, 13, 87, 127
1, 2835, Note_off_c, 9, 44, 64
1, 2835, Note_off_c, 13, 87, 64
1, 2879, Note_on_c, 9, 56, 72
1, 2880, Note_on_c, 9, 36, 94
1, 2880, Note_on_c, 13, 85, 127
1, 2882, Note_off_c, 9, 56, 64
1, 2882, Note_on_c, 9, 42, 94
1, 2883, Note_off_c, 9, 36, 64
1, 2883, Note_off_c, 13, 85, 64
1, 2885, Note_off_c, 9, 42, 64
1, 2928, Note_on_c, 13, 87, 127
1, 2929, Note_on_c, 9, 44, 73
1, 2931, Note_off_c, 13, 87, 64
1, 2932, Note_off_c, 9, 44, 64
1, 2977, Note_on_c, 9, 42, 94
1, 2977, Note_on_c, 9, 40, 94
1, 2980, Note_off_c, 9, 40, 64
1, 2980, Note_off_c, 9, 42, 64
1, 3024, Note_on_c, 13, 87, 127
1, 3026, Note_on_c, 9, 44, 73
1, 3027, Note_off_c, 13, 87, 64
1, 3029, Note_off_c, 9, 44, 64
1, 3072, Note_on_c, 9, 36, 94
1, 3072, Note_on_c, 9, 56, 72
1, 3072, Note_on_c, 13, 85, 127
1, 3075, Note_off_c, 9, 56, 64
1, 3075, Note_off_c, 9, 36, 64
1, 3075, Note_off_c, 13, 85, 64
1, 3120, Note_on_c, 9, 44, 73
1, 3120, Note_on_c, 13, 87, 127
1, 3123, Note_off_c, 9, 44, 64
1, 3123, Note_off_c, 13, 87, 64
1, 3167, Note_on_c, 9, 42, 94
1, 3169, Note_on_c, 9, 40, 94
1, 3170, Note_off_c, 9, 42, 64
1, 3172, Note_off_c, 9, 40, 64
1, 3216, Note_on_c, 9, 44, 73
1, 3216, Note_on_c, 13, 87, 127
1, 3219, Note_off_c, 9, 44, 64
1, 3219, Note_off_c, 13, 87, 64
1, 3263, Note_on_c, 9, 56, 72
1, 3264, Note_on_c, 9, 36, 94
1, 3266, Note_off_c, 9, 56, 64
1, 3266, Note_on_c, 9, 42, 94
1, 3267, Note_off_c, 9, 36, 64
1, 3269, Note_off_c, 9, 42, 64
1, 3313, Note_on_c, 9, 44, 73
1, 3313, Note_on_c, 13, 75, 127
1, 3316, Note_off_c, 9, 44, 64
1, 3316, Note_off_c, 13, 75, 64
1, 3361, Note_on_c, 9, 42, 94
1, 3361, Note_on_c, 9, 40, 94
1, 3364, Note_off_c, 9, 40, 64
1, 3364, Note_off_c, 9, 42, 64
1, 3410, Note_on_c, 9, 44, 73
1, 3413, Note_off_c, 9, 44, 64
1, 3456, Note_on_c, 9, 36, 94
1, 3456, Note_on_c, 9, 56, 72
1, 3459, Note_off_c, 9, 56, 64
1, 3459, Note_off_c, 9, 36, 64
1, 3504, Note_on_c, 9, 44, 73
1, 3507, Note_off_c, 9, 44, 64
1, 3551, Note_on_c, 9, 42, 94
1, 3553, Note_on_c, 9, 40, 94
1, 3554, Note_off_c, 9, 42, 64
1, 3556, Note_off_c, 9, 40, 64
1, 3600, Note_on_c, 9, 44, 73
1, 3603, Note_off_c, 9, 44, 64
1, 3647, Note_on_c, 9, 56, 72
1, 3648, Note_on_c, 9, 36, 94
1, 3650, Note_off_c, 9, 56, 64
1, 3650, Note_on_c, 9, 42, 94
1, 3651, Note_off_c, 9, 36, 64
1, 3653, Note_off_c, 9, 42, 64
1, 3697, Note_on_c, 9, 44, 73
1, 3700, Note_off_c, 9, 44, 64
1, 3745, Note_on_c, 9, 42, 94
1, 3745, Note_on_c, 9, 40, 94
1, 3748, Note_off_c, 9, 40, 64
1, 3748, Note_off_c, 9, 42, 64
1, 3794, Note_on_c, 9, 44, 73
1, 3797, Note_off_c, 9, 44, 64
1, 3839, Note_on_c, 9, 44, 32
1, 3840, Note_on_c, 9, 56, 67
1, 3840, Note_on_c, 9, 36, 102
1, 3842, Note_off_c, 9, 44, 64
1, 3843, Note_off_c, 9, 36, 64
1, 3843, Note_off_c, 9, 56, 64
1, 3888, Note_on_c, 9, 44, 73
1, 3891, Note_off_c, 9, 44, 64
1, 3935, Note_on_c, 9, 42, 94
1, 3937, Note_on_c, 9, 40, 94
1, 3938, Note_off_c, 9, 42, 64
1, 3940, Note_off_c, 9, 40, 64
1, 3984, Note_on_c, 9, 44, 73
1, 3987, Note_off_c, 9, 44, 64
1, 4031, Note_on_c, 9, 56, 72
1, 4032, Note_on_c, 9, 36, 94
1, 4034, Note_off_c, 9, 56, 64
1, 4034, Note_on_c, 9, 42, 94
1, 4035, Note_off_c, 9, 36, 64
1, 4037, Note_off_c, 9, 42, 64
1, 4081, Note_on_c, 9, 44, 73
1, 4084, Note_off_c, 9, 44, 64
1, 4129, Note_on_c, 9, 42, 94
1, 4129, Note_on_c, 9, 40, 94
1, 4132, Note_off_c, 9, 40, 64
1, 4132, Note_off_c, 9, 42, 64
1, 4178, Note_on_c, 9, 44, 73
1, 4181, Note_off_c, 9, 44, 64
1, 4221, Note_on_c, 1, 34, 100
1, 4224, Note_on_c, 4, 58, 94
1, 4224, Note_on_c, 4, 53, 94
1, 4224, Note_on_c, 9, 36, 94
1, 4224, Note_on_c, 9, 42, 94
1, 4224, Note_on_c, 9, 56, 72
1, 4226, Note_on_c, 2, 46, 74
1, 4227, Note_off_c, 9, 56, 64
1, 4227, Note_off_c, 9, 42, 64
1, 4227, Note_off_c, 9, 36, 64
1, 4232, Note_off_c, 4, 53, 64
1, 4232, Note_off_c, 4, 58, 64
1, 4244, Note_off_c, 1, 34, 64
1, 4270, Note_on_c, 1, 34, 100
1, 4272, Note_on_c, 9, 44, 73
1, 4274, Note_on_c, 4, 58, 94
1, 4274, Note_on_c, 4, 53, 94
1, 4275, Note_off_c, 9, 44, 64
1, 4282, Note_off_c, 4, 53, 64
1, 4282, Note_off_c, 4, 58, 64
1, 4293, Note_off_c, 1, 34, 64
1, 4317, Note_on_c, 1, 44, 100
1, 4319, Note_on_c, 4, 58, 94
1, 4319, Note_on_c, 4, 53, 94
1, 4319, Note_on_c, 9, 42, 94
1, 4321, Note_on_c, 9, 40, 94
1, 4322, Note_off_c, 9, 42, 64
1, 4324, Note_off_c, 9, 40, 64
1, 4327, Note_off_c, 4, 53, 64
1, 4327, Note_off_c, 4, 58, 64
1, 4340, Note_off_c, 1, 44, 64
1, 4364, Note_on_c, 4, 58, 94
1, 4364, Note_on_c, 4, 53, 94
1, 4367, Note_on_c, 1, 34, 60
1, 4368, Note_on_c, 9, 44, 73
1, 4371, Note_off_c, 9, 44, 64
1, 4372, Note_off_c, 4, 53, 64
1, 4372, Note_off_c, 4, 58, 64
1, 4374, Note_off_c, 1, 34, 64
1, 4412, Note_on_c, 1, 44, 100
1, 4415, Note_on_c, 4, 58, 94
1, 4415, Note_on_c, 4, 53, 94
1, 4415, Note_on_c, 9, 56, 72
1, 4416, Note_on_c, 9, 36, 94
1, 4418, Note_off_c, 9, 56, 64
1, 4418, Note_on_c, 9, 42, 94
1, 4419, Note_off_c, 9, 36, 64
1, 4421, Note_off_c, 9, 42, 64
1, 4423, Note_off_c, 4, 53, 64
1, 4423, Note_off_c, 4, 58, 64
1, 4429, Pitch_bend_c, 1, 16383
1, 4451, Note_off_c, 1, 44, 64
1, 4462, Note_on_c, 1, 34, 100
1, 4463, Pitch_bend_c, 1, 8192
1, 4465, Note_on_c, 4, 53, 94
1, 4465, Note_on_c, 9, 44, 73
1, 4466, Note_on_c, 4, 58, 94
1, 4468, Note_off_c, 9, 44, 64
1, 4473, Note_off_c, 4, 53, 64
1, 4474, Note_off_c, 4, 58, 64
1, 4493, Note_off_c, 1, 34, 64
1, 4511, Note_on_c, 1, 37, 79
1, 4512, Note_on_c, 4, 56, 74
1, 4513, Note_on_c, 4, 61, 75
1, 4513, Note_on_c, 9, 42, 94
1, 4513, Note_on_c, 9, 40, 94
1, 4516, Note_off_c, 9, 40, 64
1, 4516, Note_off_c, 9, 42, 64
1, 4520, Note_off_c, 4, 56, 64
1, 4521, Note_off_c, 4, 61, 64
1, 4522, Note_off_c, 1, 37, 64
1, 4559, Note_on_c, 1, 39, 100
1, 4560, Note_on_c, 4, 58, 90
1, 4560, Note_on_c, 4, 63, 90
1, 4562, Note_on_c, 9, 44, 73
1, 4565, Note_off_c, 9, 44, 64
1, 4568, Note_off_c, 4, 63, 64
1, 4568, Note_off_c, 4, 58, 64
1, 4608, Note_on_c, 4, 58, 54
1, 4608, Note_on_c, 4, 63, 54
1, 4608, Note_on_c, 9, 36, 94
1, 4608, Note_on_c, 9, 42, 94
1, 4608, Note_on_c, 9, 56, 72
1, 4611, Note_off_c, 9, 56, 64
1, 4611, Note_off_c, 9, 42, 64
1, 4611, Note_off_c, 9, 36, 64
1, 4612, Note_off_c, 2, 46, 64
1, 4612, Note_on_c, 2, 39, 74
1, 4616, Note_off_c, 4, 63, 64
1, 4616, Note_off_c, 4, 58, 64
1, 4630, Note_off_c, 1, 39, 64
1, 4653, Note_on_c, 1, 39, 100
1, 4656, Note_on_c, 4, 58, 98
1, 4656, Note_on_c, 4, 63, 98
1, 4656, Note_on_c, 9, 44, 73
1, 4659, Note_off_c, 9, 44, 64
1, 4664, Note_off_c, 4, 63, 64
1, 4664, Note_off_c, 4, 58, 64
1, 4692, Note_off_c, 1, 39, 64
1, 4703, Note_on_c, 1, 49, 100
1, 4703, Note_on_c, 9, 42, 94
1, 4704, Note_on_c, 4, 63, 77
1, 4704, Note_on_c, 4, 58, 77
1, 4705, Note_on_c, 9, 40, 94
1, 4706, Note_off_c, 9, 42, 64
1, 4708, Note_off_c, 9, 40, 64
1, 4712, Note_off_c, 4, 58, 64
1, 4712, Note_off_c, 4, 63, 64
1, 4742, Note_off_c, 1, 49, 64
1, 4751, Note_on_c, 1, 39, 75
1, 4752, Note_on_c, 4, 63, 93
1, 4752, Note_on_c, 4, 58, 93
1, 4752, Note_on_c, 9, 44, 73
1, 4755, Note_off_c, 9, 44, 64
1, 4760, Note_off_c, 4, 58, 64
1, 4760, Note_off_c, 4, 63, 64
1, 4766, Note_off_c, 1, 39, 64
1, 4798, Note_on_c, 1, 49, 100
1, 4799, Note_on_c, 9, 56, 72
1, 4800, Note_on_c, 4, 63, 90
1, 4800, Note_on_c, 4, 58, 90
1, 4800, Note_on_c, 9, 36, 94
1, 4802, Note_off_c, 9, 56, 64
1, 4802, Note_on_c, 9, 42, 94
1, 4803, Note_off_c, 9, 36, 64
1, 4805, Note_off_c, 9, 42, 64
1, 4808, Note_off_c, 4, 58, 64
1, 4808, Note_off_c, 4, 63, 64
1, 4809, Pitch_bend_c, 1, 16383
1, 4837, Note_off_c, 1, 49, 64
1, 4844, Pitch_bend_c, 1, 8192
1, 4845, Note_on_c, 1, 29, 90
1, 4848, Note_on_c, 4, 63, 91
1, 4848, Note_on_c, 4, 58, 91
1, 4849, Note_on_c, 9, 44, 73
1, 4852, Note_off_c, 9, 44, 64
1, 4856, Note_off_c, 4, 58, 64
1, 4856, Note_off_c, 4, 63, 64
1, 4860, Note_off_c, 1, 29, 64
1, 4894, Note_on_c, 1, 32, 91
1, 4896, Note_on_c, 4, 63, 97
1, 4896, Note_on_c, 4, 58, 97
1, 4897, Note_on_c, 9, 42, 94
1, 4897, Note_on_c, 9, 40, 94
1, 4900, Note_off_c, 9, 40, 64
1, 4900, Note_off_c, 9, 42, 64
1, 4904, Note_off_c, 4, 58, 64
1, 4904, Note_off_c, 4, 63, 64
1, 4925, Note_off_c, 1, 32, 64
1, 4941, Note_on_c, 1, 34, 100
1, 4944, Note_on_c, 4, 58, 77
1, 4944, Note_on_c, 4, 63, 77
1, 4946, Note_on_c, 9, 44, 73
1, 4949, Note_off_c, 9, 44, 64
1, 4952, Note_off_c, 4, 63, 64
1, 4952, Note_off_c, 4, 58, 64
1, 4990, Note_off_c, 2, 39, 64
1, 4992, Note_on_c, 4, 58, 60
1, 4992, Note_on_c, 4, 53, 60
1, 4992, Note_on_c, 9, 36, 94
1, 4992, Note_on_c, 9, 42, 94
1, 4992, Note_on_c, 9, 56, 72
1, 4993, Note_on_c, 2, 46, 74
1, 4995, Note_off_c, 9, 56, 64
1, 4995, Note_off_c, 9, 42, 64
1, 4995, Note_off_c, 9, 36, 64
1, 5000, Note_off_c, 4, 53, 64
1, 5000, Note_off_c, 4, 58, 64
1, 5020, Note_off_c, 1, 34, 64
1, 5037, Note_on_c, 1, 34, 100
1, 5037, Pitch_bend_c, 6, 0
1, 5037, Control_c, 6, 1, 127
1, 5038, Note_on_c, 6, 58, 94
1, 5040, Note_on_c, 6, 62, 94
1, 5040, Note_on_c, 9, 44, 73
1, 5042, Note_on_c, 4, 58, 94
1, 5042, Note_on_c, 4, 53, 94
1, 5043, Note_off_c, 9, 44, 64
1, 5050, Note_off_c, 4, 53, 64
1, 5050, Note_off_c, 4, 58, 64
1, 5053, Pitch_bend_c, 6, 8192
1, 5066, Note_off_c, 6, 62, 64
1, 5072, Note_off_c, 6, 58, 64
1, 5076, Note_off_c, 1, 34, 64
1, 5087, Note_on_c, 1, 44, 100
1, 5087, Note_on_c, 4, 58, 84
1, 5087, Note_on_c, 4, 53, 84
1, 5087, Note_on_c, 9, 42, 94
1, 5089, Note_on_c, 9, 40, 94
1, 5090, Note_off_c, 9, 42, 64
1, 5092, Note_off_c, 9, 40, 64
1, 5095, Note_off_c, 4, 53, 64
1, 5095, Note_off_c, 4, 58, 64
1, 5126, Note_off_c, 1, 44, 64
1, 5132, Note_on_c, 4, 58, 97
1, 5132, Note_on_c, 4, 53, 97
1, 5134, Note_on_c, 1, 34, 71
1, 5136, Note_on_c, 9, 44, 73
1, 5139, Note_off_c, 9, 44, 64
1, 5140, Note_off_c, 4, 53, 64
1, 5140, Note_off_c, 4, 58, 64
1, 5149, Note_off_c, 1, 34, 64
1, 5181, Note_on_c, 1, 44, 100
1, 5181, Pitch_bend_c, 6, 0
1, 5182, Note_on_c, 6, 58, 94
1, 5183, Note_on_c, 4, 58, 86
1, 5183, Note_on_c, 4, 53, 86
1, 5183, Note_on_c, 6, 62, 94
1, 5183, Note_on_c, 9, 56, 72
1, 5184, Note_on_c, 9, 36, 94
1, 5185, Pitch_bend_c, 6, 2688
1, 5186, Note_off_c, 9, 56, 64
1, 5186, Note_on_c, 9, 42, 94
1, 5187, Note_off_c, 9, 36, 64
1, 5189, Pitch_bend_c, 6, 6144
1, 5189, Note_off_c, 9, 42, 64
1, 5191, Note_off_c, 4, 53, 64
1, 5191, Note_off_c, 4, 58, 64
1, 5193, Pitch_bend_c, 6, 8192
1, 5198, Pitch_bend_c, 1, 16383
1, 5212, Note_off_c, 6, 62, 64
1, 5220, Note_off_c, 1, 44, 64
1, 5225, Note_off_c, 6, 58, 64
1, 5229, Pitch_bend_c, 1, 8192
1, 5230, Note_on_c, 1, 34, 93
1, 5233, Note_on_c, 4, 53, 94
1, 5233, Note_on_c, 9, 44, 73
1, 5234, Note_on_c, 4, 58, 94
1, 5236, Note_off_c, 9, 44, 64
1, 5241, Note_off_c, 4, 53, 64
1, 5242, Note_off_c, 4, 58, 64
1, 5277, Note_off_c, 1, 34, 64
1, 5280, Note_on_c, 4, 53, 92
1, 5280, Note_on_c, 4, 58, 92
1, 5281, Note_on_c, 9, 42, 94
1, 5281, Note_on_c, 9, 40, 94
1, 5284, Note_off_c, 9, 40, 64
1, 5284, Note_off_c, 9, 42, 64
1, 5287, Note_off_c, 4, 53, 64
1, 5288, Note_off_c, 4, 58, 64
1, 5326, Note_on_c, 1, 32, 100
1, 5329, Note_on_c, 4, 53, 92
1, 5330, Note_on_c, 4, 58, 92
1, 5330, Note_on_c, 9, 44, 73
1, 5333, Note_off_c, 9, 44, 64
1, 5336, Note_off_c, 4, 53, 64
1, 5337, Note_off_c, 4, 58, 64
1, 5342, Pitch_bend_c, 1, 16383
1, 5375, Pitch_bend_c, 6, 0
1, 5376, Note_on_c, 4, 58, 60
1, 5376, Note_on_c, 4, 53, 60
1, 5376, Note_on_c, 6, 60, 94
1, 5376, Note_on_c, 6, 63, 94
1, 5376, Note_on_c, 9, 36, 94
1, 5376, Note_on_c, 9, 42, 94
1, 5376, Note_on_c, 9, 56, 72
1, 5377, Pitch_bend_c, 6, 1408
1, 5379, Pitch_bend_c, 6, 3968
1, 5379, Note_off_c, 9, 56, 64
1, 5379, Note_off_c, 9, 42, 64
1, 5379, Note_off_c, 9, 36, 64
1, 5381, Pitch_bend_c, 6, 8192
1, 5384, Note_off_c, 4, 53, 64
1, 5384, Note_off_c, 4, 58, 64
1, 5397, Note_off_c, 1, 32, 64
1, 5401, Note_off_c, 6, 63, 64
1, 5411, Note_off_c, 6, 60, 64
1, 5421, Pitch_bend_c, 1, 8192
1, 5422, Note_on_c, 1, 34, 100
1, 5424, Note_on_c, 9, 44, 73
1, 5426, Note_on_c, 4, 58, 94
1, 5426, Note_on_c, 4, 53, 94
1, 5427, Note_off_c, 9, 44, 64
1, 5434, Note_off_c, 4, 53, 64
1, 5434, Note_off_c, 4, 58, 64
1, 5461, Note_off_c, 1, 34, 64
1, 5469, Note_on_c, 1, 44, 100
1, 5471, Note_on_c, 4, 58, 84
1, 5471, Note_on_c, 4, 53, 84
1, 5471, Note_on_c, 6, 60, 94
1, 5471, Note_on_c, 6, 63, 94
1, 5471, Note_on_c, 9, 42, 94
1, 5473, Note_on_c, 9, 40, 94
1, 5474, Note_off_c, 9, 42, 64
1, 5476, Note_off_c, 9, 40, 64
1, 5479, Note_off_c, 4, 53, 64
1, 5479, Note_off_c, 4, 58, 64
1, 5503, Note_off_c, 6, 63, 64
1, 5513, Note_off_c, 6, 60, 64
1, 5516, Note_on_c, 4, 58, 97
1, 5516, Note_on_c, 4, 53, 97
1, 5518, Pitch_bend_c, 6, 3968
1, 5519, Note_on_c, 6, 58, 94
1, 5520, Note_on_c, 9, 44, 73
1, 5521, Note_on_c, 6, 62, 94
1, 5522, Pitch_bend_c, 6, 0
1, 5523, Note_off_c, 9, 44, 64
1, 5524, Note_off_c, 1, 44, 64
1, 5524, Note_off_c, 4, 53, 64
1, 5524, Note_off_c, 4, 58, 64
1, 5536, Pitch_bend_c, 6, 7424
1, 5542, Pitch_bend_c, 6, 8712
1, 5546, Pitch_bend_c, 6, 8192
1, 5548, Note_off_c, 6, 62, 64
1, 5563, Note_on_c, 1, 44, 100
1, 5563, Note_off_c, 6, 58, 64
1, 5567, Note_on_c, 4, 58, 86
1, 5567, Note_on_c, 4, 53, 86
1, 5567, Note_on_c, 9, 56, 72
1, 5568, Note_on_c, 9, 36, 94
1, 5570, Note_off_c, 9, 56, 64
1, 5570, Note_on_c, 9, 42, 94
1, 5571, Note_off_c, 9, 36, 64
1, 5573, Note_off_c, 9, 42, 64
1, 5575, Note_off_c, 4, 53, 64
1, 5575, Note_off_c, 4, 58, 64
1, 5582, Pitch_bend_c, 1, 16383
1, 5596, Note_off_c, 1, 44, 64
1, 5612, Pitch_bend_c, 1, 8192
1, 5613, Note_on_c, 1, 29, 91
1, 5617, Note_on_c, 4, 53, 94
1, 5617, Note_on_c, 9, 44, 73
1, 5618, Note_on_c, 4, 58, 94
1, 5620, Note_off_c, 9, 44, 64
1, 5625, Note_off_c, 4, 53, 64
1, 5626, Note_off_c, 4, 58, 64
1, 5636, Note_off_c, 1, 29, 64
1, 5662, Note_on_c, 1, 32, 94
1, 5664, Note_on_c, 4, 53, 92
1, 5664, Note_on_c, 4, 58, 92
1, 5665, Note_on_c, 9, 42, 94
1, 5665, Note_on_c, 9, 40, 94
1, 5668, Note_off_c, 9, 40, 64
1, 5668, Note_off_c, 9, 42, 64
1, 5671, Note_off_c, 4, 53, 64
1, 5672, Note_off_c, 4, 58, 64
1, 5701, Note_off_c, 1, 32, 64
1, 5711, Note_on_c, 1, 34, 100
1, 5713, Note_on_c, 4, 53, 92
1, 5714, Note_on_c, 4, 58, 92
1, 5714, Note_on_c, 9, 44, 73
1, 5717, Note_off_c, 9, 44, 64
1, 5720, Note_off_c, 4, 53, 64
1, 5721, Note_off_c, 4, 58, 64
1, 5760, Note_on_c, 4, 58, 94
1, 5760, Note_on_c, 4, 53, 94
1, 5760, Note_on_c, 9, 36, 94
1, 5760, Note_on_c, 9, 42, 94
1, 5760, Note_on_c, 9, 56, 72
1, 5763, Note_off_c, 9, 56, 64
1, 5763, Note_off_c, 9, 42, 64
1, 5763, Note_off_c, 9, 36, 64
1, 5766, Note_off_c, 1, 34, 64
1, 5768, Note_off_c, 4, 53, 64
1, 5768, Note_off_c, 4, 58, 64
1, 5808, Note_on_c, 9, 44, 73
1, 5810, Note_on_c, 1, 34, 100
1, 5810, Note_on_c, 4, 58, 94
1, 5810, Note_on_c, 4, 53, 94
1, 5811, Note_off_c, 9, 44, 64
1, 5818, Note_off_c, 4, 53, 64
1, 5818, Note_off_c, 4, 58, 64
1, 5849, Note_off_c, 1, 34, 64
1, 5855, Note_on_c, 1, 44, 100
1, 5855, Note_on_c, 4, 58, 94
1, 5855, Note_on_c, 4, 53, 94
1, 5855, Note_on_c, 9, 42, 94
1, 5857, Note_on_c, 9, 40, 94
1, 5858, Note_off_c, 9, 42, 64
1, 5860, Note_off_c, 9, 40, 64
1, 5863, Note_off_c, 4, 53, 64
1, 5863, Note_off_c, 4, 58, 64
1, 5894, Note_off_c, 1, 44, 64
1, 5900, Note_on_c, 4, 58, 94
1, 5900, Note_on_c, 4, 53, 94
1, 5904, Note_on_c, 9, 44, 73
1, 5907, Note_off_c, 9, 44, 64
1, 5908, Note_on_c, 1, 34, 89
1, 5908, Note_off_c, 4, 53, 64
1, 5908, Note_off_c, 4, 58, 64
1, 5923, Note_off_c, 1, 34, 64
1, 5951, Note_on_c, 1, 44, 100
1, 5951, Note_on_c, 4, 58, 94
1, 5951, Note_on_c, 4, 53, 94
1, 5951, Note_on_c, 9, 56, 72
1, 5952, Note_on_c, 9, 36, 94
1, 5954, Note_off_c, 9, 56, 64
1, 5954, Note_on_c, 9, 42, 94
1, 5955, Note_off_c, 9, 36, 64
1, 5957, Note_off_c, 9, 42, 64
1, 5959, Note_off_c, 4, 53, 64
1, 5959, Note_off_c, 4, 58, 64
1, 5966, Pitch_bend_c, 1, 16383
1, 5990, Note_off_c, 1, 44, 64
1, 5999, Pitch_bend_c, 1, 8192
1, 6000, Note_on_c, 1, 34, 88
1, 6001, Note_on_c, 4, 53, 94
1, 6001, Note_on_c, 9, 44, 73
1, 6002, Note_on_c, 4, 58, 94
1, 6004, Note_off_c, 9, 44, 64
1, 6009, Note_off_c, 4, 53, 64
1, 6010, Note_off_c, 4, 58, 64
1, 6015, Note_off_c, 1, 34, 64
1, 6048, Note_on_c, 4, 56, 74
1, 6049, Note_on_c, 4, 61, 75
1, 6049, Note_on_c, 9, 42, 94
1, 6049, Note_on_c, 9, 40, 94
1, 6052, Note_off_c, 9, 40, 64
1, 6052, Note_off_c, 9, 42, 64
1, 6056, Note_off_c, 4, 56, 64
1, 6057, Note_off_c, 4, 61, 64
1, 6096, Note_on_c, 1, 39, 100
1, 6096, Note_on_c, 4, 58, 90
1, 6096, Note_on_c, 4, 63, 90
1, 6098, Note_on_c, 9, 44, 73
1, 6101, Note_off_c, 9, 44, 64
1, 6104, Note_off_c, 4, 63, 64
1, 6104, Note_off_c, 4, 58, 64
1, 6144, Note_on_c, 4, 58, 54
1, 6144, Note_on_c, 4, 63, 54
1, 6144, Note_on_c, 9, 36, 94
1, 6144, Note_on_c, 9, 42, 94
1, 6144, Note_on_c, 9, 56, 72
1, 6145, Note_on_c, 2, 39, 74
1, 6147, Note_off_c, 2, 46, 64
1, 6147, Note_off_c, 9, 56, 64
1, 6147, Note_off_c, 9, 42, 64
1, 6147, Note_off_c, 9, 36, 64
1, 6152, Note_off_c, 4, 63, 64
1, 6152, Note_off_c, 4, 58, 64
1, 6167, Note_off_c, 1, 39, 64
1, 6189, Note_on_c, 1, 39, 100
1, 6192, Note_on_c, 4, 58, 98
1, 6192, Note_on_c, 4, 63, 98
1, 6192, Note_on_c, 9, 44, 73
1, 6195, Note_off_c, 9, 44, 64
1, 6200, Note_off_c, 4, 63, 64
1, 6200, Note_off_c, 4, 58, 64
1, 6228, Note_off_c, 1, 39, 64
1, 6239, Note_on_c, 1, 49, 100
1, 6239, Note_on_c, 9, 42, 94
1, 6240, Note_on_c, 4, 63, 77
1, 6240, Note_on_c, 4, 58, 77
1, 6241, Note_on_c, 9, 40, 94
1, 6242, Note_off_c, 9, 42, 64
1, 6244, Note_off_c, 9, 40, 64
1, 6248, Note_off_c, 4, 58, 64
1, 6248, Note_off_c, 4, 63, 64
1, 6278, Note_off_c, 1, 49, 64
1, 6287, Note_on_c, 1, 39, 75
1, 6288, Note_on_c, 4, 63, 93
1, 6288, Note_on_c, 4, 58, 93
1, 6288, Note_on_c, 9, 44, 73
1, 6291, Note_off_c, 9, 44, 64
1, 6296, Note_off_c, 4, 58, 64
1, 6296, Note_off_c, 4, 63, 64
1, 6302, Note_off_c, 1, 39, 64
1, 6334, Note_on_c, 1, 49, 100
1, 6335, Note_on_c, 9, 56, 72
1, 6336, Note_on_c, 4, 63, 90
1, 6336, Note_on_c, 4, 58, 90
1, 6336, Note_on_c, 9, 36, 94
1, 6338, Note_off_c, 9, 56, 64
1, 6338, Note_on_c, 9, 42, 94
1, 6339, Note_off_c, 9, 36, 64
1, 6341, Note_off_c, 9, 42, 64
1, 6344, Note_off_c, 4, 58, 64
1, 6344, Note_off_c, 4, 63, 64
1, 6345, Pitch_bend_c, 1, 16383
1, 6373, Note_off_c, 1, 49, 64
1, 6380, Pitch_bend_c, 1, 8192
1, 6381, Note_on_c, 1, 29, 90
1, 6383, Pitch_bend_c, 5, 8319
1, 6384, Note_on_c, 4, 63, 91
1, 6384, Note_on_c, 4, 58, 91
1, 6384, Note_on_c, 5, 61, 94
1, 6385, Note_on_c, 9, 44, 73
1, 6388, Note_off_c, 9, 44, 64
1, 6392, Note_off_c, 4, 58, 64
1, 6392, Note_off_c, 4, 63, 64
1, 6396, Note_off_c, 1, 29, 64
1, 6418, Pitch_bend_c, 5, 8452
1, 6422, Pitch_bend_c, 5, 8712
1, 6426, Pitch_bend_c, 5, 8842
1, 6428, Pitch_bend_c, 5, 9102
1, 6430, Note_on_c, 1, 32, 91
1, 6432, Note_on_c, 4, 63, 97
1, 6432, Note_on_c, 4, 58, 97
1, 6432, Pitch_bend_c, 5, 9362
1, 6433, Note_on_c, 9, 42, 94
1, 6433, Note_on_c, 9, 40, 94
1, 6435, Pitch_bend_c, 5, 9492
1, 6436, Note_off_c, 9, 40, 64
1, 6436, Note_off_c, 9, 42, 64
1, 6438, Pitch_bend_c, 5, 9882
1, 6440, Note_off_c, 4, 58, 64
1, 6440, Note_off_c, 4, 63, 64
1, 6442, Pitch_bend_c, 5, 10142
1, 6445, Pitch_bend_c, 5, 10532
1, 6449, Pitch_bend_c, 5, 10922
1, 6453, Pitch_bend_c, 5, 11832
1, 6459, Pitch_bend_c, 5, 12872
1, 6461, Note_off_c, 1, 32, 64
1, 6467, Pitch_bend_c, 5, 13652
1, 6473, Pitch_bend_c, 5, 8192
1, 6477, Note_on_c, 1, 34, 100
1, 6477, Note_on_c, 5, 58, 85
1, 6480, Note_on_c, 4, 58, 77
1, 6480, Note_on_c, 4, 63, 77
1, 6481, Note_off_c, 5, 61, 64
1, 6482, Note_on_c, 9, 44, 73
1, 6485, Note_off_c, 9, 44, 64
1, 6488, Note_off_c, 4, 63, 64
1, 6488, Note_off_c, 4, 58, 64
1, 6524, Note_on_c, 2, 46, 74
1, 6527, Note_off_c, 2, 39, 64
1, 6528, Note_on_c, 4, 58, 60
1, 6528, Note_on_c, 4, 53, 60
1, 6528, Note_on_c, 9, 36, 94
1, 6528, Note_on_c, 9, 42, 94
1, 6528, Note_on_c, 9, 56, 72
1, 6531, Note_off_c, 9, 56, 64
1, 6531, Note_off_c, 9, 42, 64
1, 6531, Note_off_c, 9, 36, 64
1, 6536, Note_off_c, 4, 53, 64
1, 6536, Note_off_c, 4, 58, 64
1, 6554, Control_c, 5, 1, 2
1, 6556, Note_off_c, 1, 34, 64
1, 6556, Control_c, 5, 1, 19
1, 6564, Control_c, 5, 1, 26
1, 6569, Control_c, 5, 1, 31
1, 6573, Note_on_c, 1, 34, 100
1, 6573, Control_c, 5, 1, 43
1, 6576, Note_on_c, 9, 44, 73
1, 6578, Note_on_c, 4, 58, 94
1, 6578, Note_on_c, 4, 53, 94
1, 6579, Note_off_c, 9, 44, 64
1, 6583, Control_c, 5, 1, 46
1, 6586, Note_off_c, 4, 53, 64
1, 6586, Note_off_c, 4, 58, 64
1, 6587, Control_c, 5, 1, 49
1, 6591, Control_c, 5, 1, 56
1, 6601, Control_c, 5, 1, 57
1, 6605, Control_c, 5, 1, 58
1, 6609, Control_c, 5, 1, 60
1, 6612, Note_off_c, 1, 34, 64
1, 6615, Control_c, 5, 1, 62
1, 6620, Control_c, 5, 1, 63
1, 6623, Note_on_c, 1, 44, 100
1, 6623, Note_on_c, 4, 58, 84
1, 6623, Note_on_c, 4, 53, 84
1, 6623, Note_on_c, 9, 42, 94
1, 6625, Control_c, 5, 1, 64
1, 6625, Note_on_c, 9, 40, 94
1, 6626, Note_off_c, 9, 42, 64
1, 6628, Note_off_c, 9, 40, 64
1, 6630, Pitch_bend_c, 5, 6784
1, 6631, Note_off_c, 4, 53, 64
1, 6631, Note_off_c, 4, 58, 64
1, 6634, Pitch_bend_c, 5, 4864
1, 6638, Pitch_bend_c, 5, 2816
1, 6640, Control_c, 5, 1, 61
1, 6642, Pitch_bend_c, 5, 128
1, 6645, Pitch_bend_c, 5, 0
1, 6646, Control_c, 5, 1, 58
1, 6650, Control_c, 5, 1, 53
1, 6654, Control_c, 5, 1, 33
1, 6659, Note_off_c, 5, 58, 64
1, 6662, Note_off_c, 1, 44, 64
1, 6668, Note_on_c, 4, 58, 97
1, 6668, Note_on_c, 4, 53, 97
1, 6670, Note_on_c, 1, 34, 71
1, 6672, Note_on_c, 9, 44, 73
1, 6675, Note_off_c, 9, 44, 64
1, 6676, Note_off_c, 4, 53, 64
1, 6676, Note_off_c, 4, 58, 64
1, 6685, Note_off_c, 1, 34, 64
1, 6716, Pitch_bend_c, 5, 8192
1, 6717, Note_on_c, 1, 44, 100
1, 6719, Note_on_c, 4, 58, 86
1, 6719, Note_on_c, 4, 53, 86
1, 6719, Note_on_c, 9, 56, 72
1, 6720, Note_on_c, 9, 36, 94
1, 6722, Note_off_c, 9, 56, 64
1, 6722, Note_on_c, 9, 42, 94
1, 6723, Note_off_c, 9, 36, 64
1, 6725, Note_off_c, 9, 42, 64
1, 6727, Note_off_c, 4, 53, 64
1, 6727, Note_off_c, 4, 58, 64
1, 6734, Pitch_bend_c, 1, 16383
1, 6756, Note_off_c, 1, 44, 64
1, 6765, Pitch_bend_c, 1, 8192
1, 6766, Note_on_c, 1, 34, 93
1, 6769, Note_on_c, 4, 53, 94
1, 6769, Note_on_c, 9, 44, 73
1, 6770, Note_on_c, 4, 58, 94
1, 6772, Note_off_c, 9, 44, 64
1, 6777, Note_off_c, 4, 53, 64
1, 6778, Note_off_c, 4, 58, 64
1, 6813, Note_off_c, 1, 34, 64
1, 6816, Note_on_c, 4, 53, 92
1, 6816, Note_on_c, 4, 58, 92
1, 6817, Note_on_c, 9, 42, 94
1, 6817, Note_on_c, 9, 40, 94
1, 6820, Note_off_c, 9, 40, 64
1, 6820, Note_off_c, 9, 42, 64
1, 6823, Note_off_c, 4, 53, 64
1, 6824, Note_off_c, 4, 58, 64
1, 6862, Note_on_c, 1, 32, 100
1, 6865, Note_on_c, 4, 53, 92
1, 6866, Note_on_c, 4, 58, 92
1, 6866, Note_on_c, 9, 44, 73
1, 6869, Note_off_c, 9, 44, 64
1, 6872, Note_off_c, 4, 53, 64
1, 6873, Note_off_c, 4, 58, 64
1, 6878, Pitch_bend_c, 1, 16383
1, 6912, Note_on_c, 4, 58, 60
1, 6912, Note_on_c, 4, 53, 60
1, 6912, Note_on_c, 9, 36, 94
1, 6912, Note_on_c, 9, 42, 94
1, 6912, Note_on_c, 9, 56, 72
1, 6915, Note_off_c, 9, 56, 64
1, 6915, Note_off_c, 9, 42, 64
1, 6915, Note_off_c, 9, 36, 64
1, 6920, Note_off_c, 4, 53, 64
1, 6920, Note_off_c, 4, 58, 64
1, 6933, Note_off_c, 1, 32, 64
1, 6960, Pitch_bend_c, 1, 8192
1, 6960, Note_on_c, 9, 44, 73
1, 6961, Note_on_c, 1, 34, 100
1, 6962, Note_on_c, 4, 58, 94
1, 6962, Note_on_c, 4, 53, 94
1, 6963, Note_off_c, 9, 44, 64
1, 6970, Note_off_c, 4, 53, 64
1, 6970, Note_off_c, 4, 58, 64
1, 6984, Note_off_c, 1, 34, 64
1, 7007, Note_on_c, 4, 58, 84
1, 7007, Note_on_c, 4, 53, 84
1, 7007, Note_on_c, 9, 42, 94
1, 7008, Note_on_c, 1, 44, 100
1, 7009, Note_on_c, 9, 40, 94
1, 7010, Note_off_c, 9, 42, 64
1, 7012, Note_off_c, 9, 40, 64
1, 7015, Note_off_c, 4, 53, 64
1, 7015, Note_off_c, 4, 58, 64
1, 7039, Note_off_c, 1, 44, 64
1, 7052, Note_on_c, 4, 58, 97
1, 7052, Note_on_c, 4, 53, 97
1, 7056, Note_on_c, 1, 34, 86
1, 7056, Note_on_c, 9, 44, 73
1, 7059, Note_off_c, 9, 44, 64
1, 7060, Note_off_c, 4, 53, 64
1, 7060, Note_off_c, 4, 58, 64
1, 7071, Note_off_c, 1, 34, 64
1, 7103, Note_on_c, 4, 58, 86
1, 7103, Note_on_c, 4, 53, 86
1, 7103, Note_on_c, 9, 56, 72
1, 7104, Note_on_c, 1, 44, 86
1, 7104, Note_on_c, 9, 36, 94
1, 7106, Note_off_c, 9, 56, 64
1, 7106, Note_on_c, 9, 42, 94
1, 7107, Note_off_c, 9, 36, 64
1, 7109, Note_off_c, 9, 42, 64
1, 7111, Note_off_c, 4, 53, 64
1, 7111, Note_off_c, 4, 58, 64
1, 7129, Pitch_bend_c, 1, 16383
1, 7143, Note_off_c, 1, 44, 64
1, 7148, Pitch_bend_c, 3, 8192
1, 7149, Note_on_c, 3, 65, 82
1, 7153, Note_on_c, 4, 53, 94
1, 7153, Note_on_c, 9, 44, 73
1, 7154, Note_on_c, 4, 58, 94
1, 7156, Note_off_c, 9, 44, 64
1, 7161, Note_off_c, 4, 53, 64
1, 7162, Note_off_c, 4, 58, 64
1, 7178, Note_on_c, 10, 65, 88
1, 7196, Note_on_c, 3, 68, 103
1, 7198, Note_off_c, 3, 65, 64
1, 7200, Note_on_c, 4, 53, 92
1, 7200, Note_on_c, 4, 58, 92
1, 7201, Note_on_c, 9, 42, 94
1, 7201, Note_on_c, 9, 40, 94
1, 7204, Note_off_c, 9, 40, 64
1, 7204, Note_off_c, 9, 42, 64
1, 7207, Note_off_c, 4, 53, 64
1, 7208, Note_off_c, 4, 58, 64
1, 7224, Note_on_c, 10, 68, 109
1, 7229, Note_off_c, 3, 68, 64
1, 7243, Note_on_c, 3, 70, 117
1, 7248, Pitch_bend_c, 1, 8192
1, 7249, Note_on_c, 1, 49, 65
1, 7249, Note_on_c, 4, 53, 92
1, 7250, Note_on_c, 1, 55, 68
1, 7250, Note_on_c, 4, 58, 92
1, 7250, Note_on_c, 9, 44, 73
1, 7253, Note_off_c, 9, 44, 64
1, 7255, Note_off_c, 10, 65, 64
1, 7256, Note_off_c, 4, 53, 64
1, 7257, Note_off_c, 4, 58, 64
1, 7272, Note_on_c, 10, 70, 123
1, 7276, Pitch_bend_c, 1, 12288
1, 7285, Note_off_c, 3, 70, 64
1, 7286, Note_off_c, 10, 68, 64
1, 7296, Note_on_c, 4, 58, 94
1, 7296, Note_on_c, 4, 53, 94
1, 7296, Note_on_c, 9, 36, 94
1, 7296, Note_on_c, 9, 42, 94
1, 7296, Note_on_c, 9, 56, 72
1, 7299, Note_off_c, 9, 56, 64
1, 7299, Note_off_c, 9, 42, 64
1, 7299, Note_off_c, 9, 36, 64
1, 7304, Note_off_c, 4, 53, 64
1, 7304, Note_off_c, 4, 58, 64
1, 7325, Pitch_bend_c, 1, 8192
1, 7331, Pitch_bend_c, 1, 4096
1, 7335, Pitch_bend_c, 1, 0
1, 7336, Note_off_c, 1, 49, 64
1, 7337, Note_off_c, 1, 55, 64
1, 7342, Note_off_c, 10, 70, 64
1, 7344, Note_on_c, 9, 44, 73
1, 7346, Note_on_c, 4, 58, 94
1, 7346, Note_on_c, 4, 53, 94
1, 7347, Note_off_c, 9, 44, 64
1, 7354, Note_off_c, 4, 53, 64
1, 7354, Note_off_c, 4, 58, 64
1, 7390, Pitch_bend_c, 1, 8192
1, 7391, Note_on_c, 1, 44, 100
1, 7391, Note_on_c, 4, 58, 94
1, 7391, Note_on_c, 4, 53, 94
1, 7391, Pitch_bend_c, 8, 0
1, 7391, Note_on_c, 9, 42, 94
1, 7392, Note_on_c, 8, 58, 94
1, 7393, Note_on_c, 9, 40, 94
1, 7394, Note_off_c, 9, 42, 64
1, 7396, Note_off_c, 9, 40, 64
1, 7399, Note_off_c, 4, 53, 64
1, 7399, Note_off_c, 4, 58, 64
1, 7407, Pitch_bend_c, 8, 1280
1, 7411, Pitch_bend_c, 8, 2944
1, 7412, Note_off_c, 8, 58, 64
1, 7430, Note_off_c, 1, 44, 64
1, 7436, Note_on_c, 4, 58, 94
1, 7436, Note_on_c, 4, 53, 94
1, 7440, Note_on_c, 9, 44, 73
1, 7443, Note_off_c, 9, 44, 64
1, 7444, Note_on_c, 1, 34, 89
1, 7444, Note_off_c, 4, 53, 64
1, 7444, Note_off_c, 4, 58, 64
1, 7459, Note_off_c, 1, 34, 64
1, 7481, Pitch_bend_c, 8, 8192
1, 7482, Note_on_c, 8, 58, 94
1, 7487, Note_on_c, 1, 44, 100
1, 7487, Note_on_c, 4, 58, 94
1, 7487, Note_on_c, 4, 53, 94
1, 7487, Note_on_c, 9, 56, 72
1, 7488, Note_on_c, 9, 36, 94
1, 7490, Note_off_c, 9, 56, 64
1, 7490, Note_on_c, 9, 42, 94
1, 7491, Note_off_c, 9, 36, 64
1, 7493, Note_off_c, 9, 42, 64
1, 7495, Note_off_c, 4, 53, 64
1, 7495, Note_off_c, 4, 58, 64
1, 7502, Pitch_bend_c, 1, 16383
1, 7526, Note_off_c, 1, 44, 64
1, 7535, Pitch_bend_c, 1, 8192
1, 7536, Note_on_c, 1, 34, 88
1, 7537, Note_on_c, 4, 53, 94
1, 7537, Note_on_c, 9, 44, 73
1, 7538, Note_on_c, 4, 58, 94
1, 7540, Note_off_c, 9, 44, 64
1, 7545, Note_off_c, 4, 53, 64
1, 7546, Note_off_c, 4, 58, 64
1, 7551, Note_off_c, 1, 34, 64
1, 7576, Control_c, 8, 1, 21
1, 7584, Note_on_c, 4, 56, 74
1, 7585, Note_on_c, 4, 61, 75
1, 7585, Note_on_c, 9, 42, 94
1, 7585, Note_on_c, 9, 40, 94
1, 7588, Note_off_c, 9, 40, 64
1, 7588, Note_off_c, 9, 42, 64
1, 7592, Note_off_c, 4, 56, 64
1, 7593, Note_off_c, 4, 61, 64
1, 7632, Note_on_c, 1, 39, 100
1, 7632, Note_on_c, 4, 58, 90
1, 7632, Note_on_c, 4, 63, 90
1, 7634, Note_on_c, 9, 44, 73
1, 7637, Note_off_c, 9, 44, 64
1, 7640, Note_off_c, 4, 63, 64
1, 7640, Note_off_c, 4, 58, 64
1, 7646, Note_off_c, 8, 58, 64
1, 7677, Note_on_c, 3, 68, 117
1, 7679, Note_on_c, 2, 39, 74
1, 7680, Note_off_c, 2, 46, 64
1, 7680, Note_on_c, 4, 58, 54
1, 7680, Note_on_c, 4, 63, 54
1, 7680, Note_on_c, 9, 36, 94
1, 7680, Note_on_c, 9, 42, 94
1, 7680, Note_on_c, 9, 56, 72
1, 7683, Note_off_c, 9, 56, 64
1, 7683, Note_off_c, 9, 42, 64
1, 7683, Note_off_c, 9, 36, 64
1, 7687, Note_off_c, 1, 39, 64
1, 7688, Note_off_c, 4, 63, 64
1, 7688, Note_off_c, 4, 58, 64
1, 7694, Note_off_c, 3, 68, 64
1, 7706, Note_on_c, 10, 68, 123
1, 7725, Note_on_c, 1, 39, 100
1, 7725, Note_on_c, 3, 68, 82
1, 7728, Note_on_c, 4, 58, 98
1, 7728, Note_on_c, 4, 63, 98
1, 7728, Note_on_c, 9, 44, 73
1, 7731, Note_off_c, 9, 44, 64
1, 7736, Note_off_c, 4, 63, 64
1, 7736, Note_off_c, 4, 58, 64
1, 7737, Note_off_c, 3, 68, 64
1, 7751, Note_off_c, 10, 68, 64
1, 7753, Note_on_c, 10, 68, 122
1, 7764, Note_off_c, 1, 39, 64
1, 7771, Note_on_c, 3, 68, 117
1, 7775, Note_on_c, 1, 49, 100
1, 7775, Note_on_c, 9, 42, 94
1, 7776, Note_on_c, 4, 63, 77
1, 7776, Note_on_c, 4, 58, 77
1, 7777, Note_on_c, 9, 40, 94
1, 7778, Note_off_c, 9, 42, 64
1, 7780, Note_off_c, 9, 40, 64
1, 7784, Note_off_c, 4, 58, 64
1, 7784, Note_off_c, 4, 63, 64
1, 7785, Note_off_c, 3, 68, 64
1, 7794, Note_off_c, 10, 68, 64
1, 7799, Note_on_c, 10, 68, 123
1, 7814, Note_off_c, 1, 49, 64
1, 7819, Note_on_c, 3, 68, 73
1, 7823, Note_on_c, 1, 39, 75
1, 7824, Note_on_c, 4, 63, 93
1, 7824, Note_on_c, 4, 58, 93
1, 7824, Note_on_c, 9, 44, 73
1, 7827, Note_off_c, 9, 44, 64
1, 7832, Note_off_c, 4, 58, 64
1, 7832, Note_off_c, 4, 63, 64
1, 7834, Note_off_c, 3, 68, 64
1, 7838, Note_off_c, 1, 39, 64
1, 7842, Note_off_c, 10, 68, 64
1, 7848, Note_on_c, 10, 68, 110
1, 7867, Note_on_c, 3, 70, 103
1, 7870, Note_on_c, 1, 49, 100
1, 7871, Note_on_c, 9, 56, 72
1, 7872, Note_on_c, 4, 63, 90
1, 7872, Note_on_c, 4, 58, 90
1, 7872, Note_on_c, 9, 36, 94
1, 7874, Note_off_c, 9, 56, 64
1, 7874, Note_on_c, 9, 42, 94
1, 7875, Note_off_c, 9, 36, 64
1, 7877, Note_off_c, 9, 42, 64
1, 7880, Note_off_c, 4, 58, 64
1, 7880, Note_off_c, 4, 63, 64
1, 7881, Pitch_bend_c, 1, 16383
1, 7891, Note_off_c, 10, 68, 64
1, 7895, Note_on_c, 10, 70, 109
1, 7909, Note_off_c, 1, 49, 64
1, 7913, Note_off_c, 3, 70, 64
1, 7916, Pitch_bend_c, 1, 8192
1, 7916, Note_on_c, 3, 65, 82
1, 7917, Note_on_c, 1, 29, 90
1, 7920, Note_on_c, 4, 63, 91
1, 7920, Note_on_c, 4, 58, 91
1, 7921, Note_on_c, 9, 44, 73
1, 7924, Note_off_c, 9, 44, 64
1, 7928, Note_off_c, 4, 58, 64
1, 7928, Note_off_c, 4, 63, 64
1, 7932, Note_off_c, 1, 29, 64
1, 7945, Note_on_c, 10, 65, 102
1, 7955, Note_off_c, 3, 65, 64
1, 7961, Note_on_c, 3, 68, 103
1, 7966, Note_on_c, 1, 32, 91
1, 7968, Note_on_c, 4, 63, 97
1, 7968, Note_on_c, 4, 58, 97
1, 7969, Note_on_c, 9, 42, 94
1, 7969, Note_on_c, 9, 40, 94
1, 7970, Note_off_c, 10, 70, 64
1, 7972, Note_off_c, 9, 40, 64
1, 7972, Note_off_c, 9, 42, 64
1, 7976, Note_off_c, 4, 58, 64
1, 7976, Note_off_c, 4, 63, 64
1, 7989, Note_off_c, 3, 68, 64
1, 7990, Note_on_c, 10, 68, 109
1, 7997, Note_off_c, 1, 32, 64
1, 8011, Note_on_c, 3, 70, 126
1, 8012, Note_off_c, 10, 65, 64
1, 8013, Note_on_c, 1, 34, 100
1, 8016, Note_on_c, 4, 58, 77
1, 8016, Note_on_c, 4, 63, 77
1, 8018, Note_on_c, 9, 44, 73
1, 8021, Note_off_c, 9, 44, 64
1, 8024, Note_off_c, 4, 63, 64
1, 8024, Note_off_c, 4, 58, 64
1, 8039, Note_on_c, 10, 70, 127
1, 8044, Note_off_c, 3, 70, 64
1, 8046, Note_off_c, 10, 68, 64
1, 8063, Note_on_c, 2, 46, 74
1, 8064, Note_on_c, 4, 58, 60
1, 8064, Note_on_c, 4, 53, 60
1, 8064, Note_on_c, 9, 36, 94
1, 8064, Note_on_c, 9, 42, 94
1, 8064, Note_on_c, 9, 56, 72
1, 8067, Note_off_c, 2, 39, 64
1, 8067, Note_off_c, 9, 56, 64
1, 8067, Note_off_c, 9, 42, 64
1, 8067, Note_off_c, 9, 36, 64
1, 8072, Note_off_c, 4, 53, 64
1, 8072, Note_off_c, 4, 58, 64
1, 8092, Note_off_c, 1, 34, 64
1, 8101, Note_off_c, 10, 70, 64
1, 8105, Note_on_c, 3, 70, 103
1, 8109, Note_on_c, 1, 34, 100
1, 8112, Note_on_c, 9, 44, 73
1, 8114, Note_on_c, 4, 58, 94
1, 8114, Note_on_c, 4, 53, 94
1, 8115, Note_off_c, 9, 44, 64
1, 8122, Note_off_c, 4, 53, 64
1, 8122, Note_off_c, 4, 58, 64
1, 8134, Note_on_c, 10, 70, 109
1, 8148, Note_off_c, 1, 34, 64
1, 8149, Note_off_c, 3, 70, 64
1, 8159, Note_on_c, 1, 44, 100
1, 8159, Note_on_c, 4, 58, 84
1, 8159, Note_on_c, 4, 53, 84
1, 8159, Note_on_c, 9, 42, 94
1, 8161, Note_on_c, 9, 40, 94
1, 8162, Note_off_c, 9, 42, 64
1, 8164, Note_off_c, 9, 40, 64
1, 8167, Note_off_c, 4, 53, 64
1, 8167, Note_off_c, 4, 58, 64
1, 8198, Note_off_c, 1, 44, 64
1, 8204, Note_on_c, 4, 58, 97
1, 8204, Note_on_c, 4, 53, 97
1, 8206, Note_on_c, 1, 34, 71
1, 8206, Note_off_c, 10, 70, 64
1, 8208, Note_on_c, 9, 44, 73
1, 8211, Note_off_c, 9, 44, 64
1, 8212, Note_off_c, 4, 53, 64
1, 8212, Note_off_c, 4, 58, 64
1, 8221, Note_off_c, 1, 34, 64
1, 8253, Note_on_c, 1, 44, 100
1, 8255, Note_on_c, 4, 58, 86
1, 8255, Note_on_c, 4, 53, 86
1, 8255, Note_on_c, 9, 56, 72
1, 8256, Note_on_c, 9, 36, 94
1, 8258, Note_off_c, 9, 56, 64
1, 8258, Note_on_c, 9, 42, 94
1, 8259, Note_off_c, 9, 36, 64
1, 8261, Note_off_c, 9, 42, 64
1, 8263, Note_off_c, 4, 53, 64
1, 8263, Note_off_c, 4, 58, 64
1, 8270, Pitch_bend_c, 1, 16383
1, 8292, Note_off_c, 1, 44, 64
1, 8301, Pitch_bend_c, 1, 8192
1, 8302, Note_on_c, 1, 34, 93
1, 8305, Note_on_c, 4, 53, 94
1, 8305, Note_on_c, 9, 44, 73
1, 8306, Note_on_c, 4, 58, 94
1, 8308, Note_off_c, 9, 44, 64
1, 8313, Note_off_c, 4, 53, 64
1, 8314, Note_off_c, 4, 58, 64
1, 8349, Note_off_c, 1, 34, 64
1, 8352, Note_on_c, 4, 53, 92
1, 8352, Note_on_c, 4, 58, 92
1, 8353, Note_on_c, 9, 42, 94
1, 8353, Note_on_c, 9, 40, 94
1, 8356, Note_off_c, 9, 40, 64
1, 8356, Note_off_c, 9, 42, 64
1, 8359, Note_off_c, 4, 53, 64
1, 8360, Note_off_c, 4, 58, 64
1, 8398, Note_on_c, 1, 32, 100
1, 8401, Note_on_c, 4, 53, 92
1, 8402, Note_on_c, 4, 58, 92
1, 8402, Note_on_c, 9, 44, 73
1, 8405, Note_off_c, 9, 44, 64
1, 8408, Note_off_c, 4, 53, 64
1, 8409, Note_off_c, 4, 58, 64
1, 8414, Pitch_bend_c, 1, 16383
1, 8448, Note_on_c, 4, 58, 60
1, 8448, Note_on_c, 4, 53, 60
1, 8448, Note_on_c, 9, 36, 94
1, 8448, Note_on_c, 9, 42, 94
1, 8448, Note_on_c, 9, 56, 72
1, 8451, Note_off_c, 9, 56, 64
1, 8451, Note_off_c, 9, 42, 64
1, 8451, Note_off_c, 9, 36, 64
1, 8453, Note_off_c, 1, 32, 64
1, 8456, Note_off_c, 4, 53, 64
1, 8456, Note_off_c, 4, 58, 64
1, 8493, Pitch_bend_c, 1, 8192
1, 8494, Note_on_c, 1, 34, 100
1, 8496, Note_on_c, 9, 44, 73
1, 8498, Note_on_c, 4, 58, 94
1, 8498, Note_on_c, 4, 53, 94
1, 8499, Note_off_c, 9, 44, 64
1, 8506, Note_off_c, 4, 53, 64
1, 8506, Note_off_c, 4, 58, 64
1, 8533, Note_off_c, 1, 34, 64
1, 8541, Note_on_c, 1, 44, 100
1, 8543, Note_on_c, 4, 58, 84
1, 8543, Note_on_c, 4, 53, 84
1, 8543, Note_on_c, 9, 42, 94
1, 8545, Note_on_c, 9, 40, 94
1, 8546, Note_off_c, 9, 42, 64
1, 8548, Note_off_c, 9, 40, 64
1, 8551, Note_off_c, 4, 53, 64
1, 8551, Note_off_c, 4, 58, 64
1, 8588, Note_on_c, 4, 58, 97
1, 8588, Note_on_c, 4, 53, 97
1, 8592, Note_on_c, 9, 44, 73
1, 8595, Note_off_c, 9, 44, 64
1, 8596, Note_off_c, 1, 44, 64
1, 8596, Note_off_c, 4, 53, 64
1, 8596, Note_off_c, 4, 58, 64
1, 8635, Note_on_c, 1, 44, 100
1, 8639, Note_on_c, 4, 58, 86
1, 8639, Note_on_c, 4, 53, 86
1, 8639, Note_on_c, 9, 56, 72
1, 8640, Note_on_c, 9, 36, 94
1, 8642, Note_off_c, 9, 56, 64
1, 8642, Note_on_c, 9, 42, 94
1, 8643, Note_off_c, 9, 36, 64
1, 8645, Note_off_c, 9, 42, 64
1, 8647, Note_off_c, 4, 53, 64
1, 8647, Note_off_c, 4, 58, 64
1, 8654, Pitch_bend_c, 1, 16383
1, 8668, Note_off_c, 1, 44, 64
1, 8684, Pitch_bend_c, 1, 8192
1, 8685, Note_on_c, 1, 29, 91
1, 8685, Note_on_c, 3, 65, 85
1, 8689, Note_on_c, 4, 53, 94
1, 8689, Note_on_c, 9, 44, 73
1, 8690, Note_on_c, 4, 58, 94
1, 8692, Note_off_c, 9, 44, 64
1, 8697, Note_off_c, 4, 53, 64
1, 8698, Note_off_c, 4, 58, 64
1, 8708, Note_off_c, 1, 29, 64
1, 8714, Note_on_c, 10, 65, 118
1, 8732, Note_on_c, 3, 68, 103
1, 8734, Note_on_c, 1, 32, 94
1, 8736, Note_on_c, 4, 53, 92
1, 8736, Note_on_c, 4, 58, 92
1, 8737, Note_on_c, 9, 42, 94
1, 8737, Note_on_c, 9, 40, 94
1, 8740, Note_off_c, 3, 65, 64
1, 8740, Note_off_c, 9, 40, 64
1, 8740, Note_off_c, 9, 42, 64
1, 8743, Note_off_c, 4, 53, 64
1, 8744, Note_off_c, 4, 58, 64
1, 8761, Note_on_c, 10, 68, 109
1, 8765, Note_off_c, 3, 68, 64
1, 8773, Note_off_c, 1, 32, 64
1, 8781, Note_on_c, 3, 70, 120
1, 8783, Note_on_c, 1, 34, 100
1, 8785, Note_on_c, 4, 53, 92
1, 8786, Note_on_c, 4, 58, 92
1, 8786, Note_on_c, 9, 44, 73
1, 8789, Note_off_c, 9, 44, 64
1, 8792, Note_off_c, 4, 53, 64
1, 8793, Note_off_c, 4, 58, 64
1, 8797, Note_off_c, 10, 65, 64
1, 8809, Note_on_c, 10, 70, 126
1, 8813, Note_off_c, 3, 70, 64
1, 8822, Note_off_c, 10, 68, 64
1, 8832, Note_on_c, 4, 58, 94
1, 8832, Note_on_c, 4, 53, 94
1, 8832, Note_on_c, 9, 36, 94
1, 8832, Note_on_c, 9, 42, 94
1, 8832, Note_on_c, 9, 56, 72
1, 8835, Note_off_c, 9, 56, 64
1, 8835, Note_off_c, 9, 42, 64
1, 8835, Note_off_c, 9, 36, 64
1, 8838, Note_off_c, 1, 34, 64
1, 8840, Note_off_c, 4, 53, 64
1, 8840, Note_off_c, 4, 58, 64
1, 8870, Note_off_c, 10, 70, 64
1, 8880, Note_on_c, 9, 44, 73
1, 8882, Note_on_c, 4, 58, 94
1, 8882, Note_on_c, 4, 53, 94
1, 8883, Note_off_c, 9, 44, 64
1, 8890, Note_off_c, 4, 53, 64
1, 8890, Note_off_c, 4, 58, 64
1, 8927, Note_on_c, 1, 44, 100
1, 8927, Note_on_c, 4, 58, 94
1, 8927, Note_on_c, 4, 53, 94
1, 8927, Pitch_bend_c, 8, 0
1, 8927, Note_on_c, 9, 42, 94
1, 8928, Note_on_c, 8, 58, 94
1, 8929, Note_on_c, 9, 40, 94
1, 8930, Note_off_c, 9, 42, 64
1, 8932, Note_off_c, 9, 40, 64
1, 8935, Note_off_c, 4, 53, 64
1, 8935, Note_off_c, 4, 58, 64
1, 8943, Pitch_bend_c, 8, 384
1, 8945, Pitch_bend_c, 8, 2944
1, 8948, Note_off_c, 8, 58, 64
1, 8966, Note_off_c, 1, 44, 64
1, 8972, Note_on_c, 4, 58, 94
1, 8972, Note_on_c, 4, 53, 94
1, 8976, Note_on_c, 9, 44, 73
1, 8979, Note_off_c, 9, 44, 64
1, 8980, Note_on_c, 1, 34, 89
1, 8980, Note_off_c, 4, 53, 64
1, 8980, Note_off_c, 4, 58, 64
1, 8995, Note_off_c, 1, 34, 64
1, 9017, Pitch_bend_c, 8, 8192
1, 9018, Note_on_c, 8, 58, 94
1, 9023, Note_on_c, 1, 44, 100
1, 9023, Note_on_c, 4, 58, 94
1, 9023, Note_on_c, 4, 53, 94
1, 9023, Note_on_c, 9, 56, 72
1, 9024, Note_on_c, 9, 36, 94
1, 9026, Note_off_c, 9, 56, 64
1, 9026, Note_on_c, 9, 42, 94
1, 9027, Note_off_c, 9, 36, 64
1, 9029, Note_off_c, 9, 42, 64
1, 9031, Note_off_c, 4, 53, 64
1, 9031, Note_off_c, 4, 58, 64
1, 9038, Pitch_bend_c, 1, 16383
1, 9062, Note_off_c, 1, 44, 64
1, 9071, Pitch_bend_c, 1, 8192
1, 9072, Note_on_c, 1, 34, 88
1, 9073, Note_on_c, 4, 53, 94
1, 9073, Note_on_c, 9, 44, 73
1, 9074, Note_on_c, 4, 58, 94
1, 9076, Note_off_c, 9, 44, 64
1, 9081, Note_off_c, 4, 53, 64
1, 9082, Note_off_c, 4, 58, 64
1, 9087, Note_off_c, 1, 34, 64
1, 9112, Control_c, 8, 1, 29
1, 9120, Note_on_c, 4, 56, 74
1, 9121, Note_on_c, 4, 61, 75
1, 9121, Note_on_c, 9, 42, 94
1, 9121, Note_on_c, 9, 40, 94
1, 9124, Note_off_c, 9, 40, 64
1, 9124, Note_off_c, 9, 42, 64
1, 9128, Note_off_c, 4, 56, 64
1, 9129, Note_off_c, 4, 61, 64
1, 9168, Note_on_c, 1, 39, 100
1, 9168, Note_on_c, 4, 58, 90
1, 9168, Note_on_c, 4, 63, 90
1, 9170, Note_on_c, 9, 44, 73
1, 9173, Note_off_c, 9, 44, 64
1, 9176, Note_off_c, 4, 63, 64
1, 9176, Note_off_c, 4, 58, 64
1, 9182, Note_off_c, 8, 58, 64
1, 9212, Note_on_c, 3, 68, 120
1, 9215, Note_off_c, 2, 46, 64
1, 9216, Note_on_c, 4, 58, 54
1, 9216, Note_on_c, 4, 63, 54
1, 9216, Note_on_c, 9, 36, 94
1, 9216, Note_on_c, 9, 42, 94
1, 9216, Note_on_c, 9, 56, 72
1, 9218, Note_on_c, 2, 39, 74
1, 9219, Note_off_c, 9, 56, 64
1, 9219, Note_off_c, 9, 42, 64
1, 9219, Note_off_c, 9, 36, 64
1, 9224, Note_off_c, 4, 63, 64
1, 9224, Note_off_c, 4, 58, 64
1, 9226, Note_off_c, 3, 68, 64
1, 9239, Note_off_c, 1, 39, 64
1, 9240, Note_on_c, 10, 68, 126
1, 9261, Note_on_c, 1, 39, 100
1, 9261, Note_on_c, 3, 68, 85
1, 9264, Note_on_c, 4, 58, 98
1, 9264, Note_on_c, 4, 63, 98
1, 9264, Note_on_c, 9, 44, 73
1, 9267, Note_off_c, 9, 44, 64
1, 9272, Note_off_c, 3, 68, 64
1, 9272, Note_off_c, 4, 63, 64
1, 9272, Note_off_c, 4, 58, 64
1, 9283, Note_off_c, 10, 68, 64
1, 9290, Note_on_c, 10, 68, 114
1, 9300, Note_off_c, 1, 39, 64
1, 9307, Note_on_c, 3, 68, 103
1, 9311, Note_on_c, 1, 49, 100
1, 9311, Note_on_c, 9, 42, 94
1, 9312, Note_on_c, 4, 63, 77
1, 9312, Note_on_c, 4, 58, 77
1, 9313, Note_on_c, 9, 40, 94
1, 9314, Note_off_c, 9, 42, 64
1, 9316, Note_off_c, 9, 40, 64
1, 9320, Note_off_c, 3, 68, 64
1, 9320, Note_off_c, 4, 58, 64
1, 9320, Note_off_c, 4, 63, 64
1, 9329, Note_off_c, 10, 68, 64
1, 9335, Note_on_c, 10, 68, 109
1, 9350, Note_off_c, 1, 49, 64
1, 9356, Note_on_c, 3, 68, 85
1, 9359, Note_on_c, 1, 39, 75
1, 9360, Note_on_c, 4, 63, 93
1, 9360, Note_on_c, 4, 58, 93
1, 9360, Note_on_c, 9, 44, 73
1, 9363, Note_off_c, 9, 44, 64
1, 9368, Note_off_c, 4, 58, 64
1, 9368, Note_off_c, 4, 63, 64
1, 9372, Note_off_c, 3, 68, 64
1, 9374, Note_off_c, 1, 39, 64
1, 9377, Note_off_c, 10, 68, 64
1, 9385, Note_on_c, 10, 68, 110
1, 9404, Note_on_c, 3, 70, 120
1, 9406, Note_on_c, 1, 49, 100
1, 9407, Note_on_c, 9, 56, 72
1, 9408, Note_on_c, 4, 63, 90
1, 9408, Note_on_c, 4, 58, 90
1, 9408, Note_on_c, 9, 36, 94
1, 9410, Note_off_c, 9, 56, 64
1, 9410, Note_on_c, 9, 42, 94
1, 9411, Note_off_c, 9, 36, 64
1, 9413, Note_off_c, 9, 42, 64
1, 9416, Note_off_c, 4, 58, 64
1, 9416, Note_off_c, 4, 63, 64
1, 9417, Pitch_bend_c, 1, 16383
1, 9429, Note_off_c, 10, 68, 64
1, 9432, Note_on_c, 10, 70, 126
1, 9445, Note_off_c, 1, 49, 64
1, 9445, Note_off_c, 3, 70, 64
1, 9449, Note_on_c, 3, 65, 94
1, 9452, Pitch_bend_c, 1, 8192
1, 9453, Note_on_c, 1, 29, 90
1, 9456, Note_on_c, 4, 63, 91
1, 9456, Note_on_c, 4, 58, 91
1, 9457, Note_on_c, 9, 44, 73
1, 9460, Note_off_c, 9, 44, 64
1, 9464, Note_off_c, 4, 58, 64
1, 9464, Note_off_c, 4, 63, 64
1, 9468, Note_off_c, 1, 29, 64
1, 9478, Note_on_c, 10, 65, 100
1, 9497, Note_off_c, 3, 65, 64
1, 9497, Note_on_c, 3, 68, 103
1, 9502, Note_on_c, 1, 32, 91
1, 9502, Note_off_c, 10, 70, 64
1, 9504, Note_on_c, 4, 63, 97
1, 9504, Note_on_c, 4, 58, 97
1, 9505, Note_on_c, 9, 42, 94
1, 9505, Note_on_c, 9, 40, 94
1, 9508, Note_off_c, 9, 40, 64
1, 9508, Note_off_c, 9, 42, 64
1, 9512, Note_off_c, 4, 58, 64
1, 9512, Note_off_c, 4, 63, 64
1, 9526, Note_on_c, 10, 68, 109
1, 9533, Note_off_c, 1, 32, 64
1, 9543, Note_off_c, 3, 68, 64
1, 9548, Note_on_c, 3, 70, 111
1, 9549, Note_on_c, 1, 34, 100
1, 9552, Note_on_c, 4, 58, 77
1, 9552, Note_on_c, 4, 63, 77
1, 9554, Note_on_c, 9, 44, 73
1, 9554, Note_off_c, 10, 65, 64
1, 9557, Note_off_c, 9, 44, 64
1, 9560, Note_off_c, 4, 63, 64
1, 9560, Note_off_c, 4, 58, 64
1, 9568, Note_off_c, 3, 70, 64
1, 9576, Note_on_c, 10, 70, 117
1, 9597, Note_on_c, 2, 46, 74
1, 9600, Note_off_c, 2, 39, 64
1, 9600, Note_on_c, 4, 58, 60
1, 9600, Note_on_c, 4, 53, 60
1, 9600, Note_on_c, 9, 36, 94
1, 9600, Note_on_c, 9, 42, 94
1, 9600, Note_on_c, 9, 56, 72
1, 9600, Note_off_c, 10, 68, 64
1, 9603, Note_off_c, 9, 56, 64
1, 9603, Note_off_c, 9, 42, 64
1, 9603, Note_off_c, 9, 36, 64
1, 9604, Note_off_c, 1, 34, 64
1, 9608, Note_off_c, 4, 53, 64
1, 9608, Note_off_c, 4, 58, 64
1, 9625, Note_off_c, 10, 70, 64
1, 9638, Note_on_c, 3, 70, 103
1, 9645, Note_on_c, 1, 34, 100
1, 9648, Note_on_c, 9, 44, 73
1, 9650, Note_on_c, 4, 58, 94
1, 9650, Note_on_c, 4, 53, 94
1, 9651, Note_off_c, 9, 44, 64
1, 9658, Note_off_c, 4, 53, 64
1, 9658, Note_off_c, 4, 58, 64
1, 9666, Note_on_c, 10, 70, 109
1, 9684, Note_off_c, 1, 34, 64
1, 9695, Note_on_c, 1, 44, 100
1, 9695, Note_on_c, 4, 58, 84
1, 9695, Note_on_c, 4, 53, 84
1, 9695, Note_on_c, 9, 42, 94
1, 9697, Note_on_c, 9, 40, 94
1, 9698, Note_off_c, 9, 42, 64
1, 9700, Note_off_c, 9, 40, 64
1, 9703, Note_off_c, 4, 53, 64
1, 9703, Note_off_c, 4, 58, 64
1, 9724, Note_off_c, 3, 70, 64
1, 9734, Note_off_c, 1, 44, 64
1, 9740, Note_on_c, 4, 58, 97
1, 9740, Note_on_c, 4, 53, 97
1, 9742, Note_on_c, 1, 34, 71
1, 9744, Note_on_c, 9, 44, 73
1, 9747, Note_off_c, 9, 44, 64
1, 9748, Note_off_c, 4, 53, 64
1, 9748, Note_off_c, 4, 58, 64
1, 9757, Note_off_c, 1, 34, 64
1, 9781, Note_off_c, 10, 70, 64
1, 9789, Note_on_c, 1, 44, 100
1, 9791, Note_on_c, 4, 58, 86
1, 9791, Note_on_c, 4, 53, 86
1, 9791, Note_on_c, 9, 56, 72
1, 9792, Note_on_c, 9, 36, 94
1, 9794, Note_off_c, 9, 56, 64
1, 9794, Note_on_c, 9, 42, 94
1, 9795, Note_off_c, 9, 36, 64
1, 9797, Note_off_c, 9, 42, 64
1, 9799, Note_off_c, 4, 53, 64
1, 9799, Note_off_c, 4, 58, 64
1, 9806, Pitch_bend_c, 1, 16383
1, 9828, Note_off_c, 1, 44, 64
1, 9837, Pitch_bend_c, 1, 8192
1, 9838, Note_on_c, 1, 34, 93
1, 9841, Note_on_c, 4, 53, 94
1, 9841, Note_on_c, 9, 44, 73
1, 9842, Note_on_c, 4, 58, 94
1, 9844, Note_off_c, 9, 44, 64
1, 9849, Note_off_c, 4, 53, 64
1, 9850, Note_off_c, 4, 58, 64
1, 9888, Note_on_c, 4, 53, 92
1, 9888, Note_on_c, 4, 58, 92
1, 9889, Note_on_c, 9, 42, 94
1, 9889, Note_on_c, 9, 40, 94
1, 9892, Note_off_c, 9, 40, 64
1, 9892, Note_off_c, 9, 42, 64
1, 9893, Note_off_c, 1, 34, 64
1, 9895, Note_off_c, 4, 53, 64
1, 9896, Note_off_c, 4, 58, 64
1, 9934, Note_on_c, 1, 32, 100
1, 9937, Note_on_c, 4, 53, 92
1, 9938, Note_on_c, 4, 58, 92
1, 9938, Note_on_c, 9, 44, 73
1, 9941, Note_off_c, 9, 44, 64
1, 9944, Note_off_c, 4, 53, 64
1, 9945, Note_off_c, 4, 58, 64
1, 9950, Pitch_bend_c, 1, 16383
1, 9984, Note_on_c, 4, 58, 60
1, 9984, Note_on_c, 4, 53, 60
1, 9984, Note_on_c, 9, 36, 94
1, 9984, Note_on_c, 9, 42, 94
1, 9984, Note_on_c, 9, 56, 72
1, 9987, Note_off_c, 9, 56, 64
1, 9987, Note_off_c, 9, 42, 64
1, 9987, Note_off_c, 9, 36, 64
1, 9989, Note_off_c, 1, 32, 64
1, 9992, Note_off_c, 4, 53, 64
1, 9992, Note_off_c, 4, 58, 64
1, 10029, Pitch_bend_c, 1, 8192
1, 10030, Note_on_c, 1, 34, 100
1, 10032, Note_on_c, 9, 44, 73
1, 10034, Note_on_c, 4, 58, 94
1, 10034, Note_on_c, 4, 53, 94
1, 10035, Note_off_c, 9, 44, 64
1, 10042, Note_off_c, 4, 53, 64
1, 10042, Note_off_c, 4, 58, 64
1, 10069, Note_off_c, 1, 34, 64
1, 10077, Note_on_c, 1, 44, 100
1, 10079, Note_on_c, 4, 58, 84
1, 10079, Note_on_c, 4, 53, 84
1, 10079, Note_on_c, 9, 42, 94
1, 10081, Note_on_c, 9, 40, 94
1, 10082, Note_off_c, 9, 42, 64
1, 10084, Note_off_c, 9, 40, 64
1, 10087, Note_off_c, 4, 53, 64
1, 10087, Note_off_c, 4, 58, 64
1, 10124, Note_on_c, 4, 58, 97
1, 10124, Note_on_c, 4, 53, 97
1, 10128, Note_on_c, 9, 44, 73
1, 10131, Note_off_c, 9, 44, 64
1, 10132, Note_off_c, 1, 44, 64
1, 10132, Note_off_c, 4, 53, 64
1, 10132, Note_off_c, 4, 58, 64
1, 10171, Note_on_c, 1, 44, 100
1, 10175, Note_on_c, 4, 58, 86
1, 10175, Note_on_c, 4, 53, 86
1, 10175, Note_on_c, 9, 56, 72
1, 10176, Note_on_c, 9, 36, 94
1, 10178, Note_off_c, 9, 56, 64
1, 10178, Note_on_c, 9, 42, 94
1, 10179, Note_off_c, 9, 36, 64
1, 10181, Note_off_c, 9, 42, 64
1, 10183, Note_off_c, 4, 53, 64
1, 10183, Note_off_c, 4, 58, 64
1, 10190, Pitch_bend_c, 1, 16383
1, 10204, Note_off_c, 1, 44, 64
1, 10220, Pitch_bend_c, 1, 8192
1, 10221, Note_on_c, 1, 29, 91
1, 10221, Note_on_c, 3, 65, 82
1, 10225, Note_on_c, 4, 53, 94
1, 10225, Note_on_c, 9, 44, 73
1, 10226, Note_on_c, 4, 58, 94
1, 10228, Note_off_c, 9, 44, 64
1, 10233, Note_off_c, 4, 53, 64
1, 10234, Note_off_c, 4, 58, 64
1, 10244, Note_off_c, 1, 29, 64
1, 10250, Note_on_c, 10, 65, 98
1, 10268, Note_on_c, 3, 68, 103
1, 10270, Note_on_c, 1, 32, 94
1, 10270, Note_off_c, 3, 65, 64
1, 10272, Note_on_c, 4, 53, 92
1, 10272, Note_on_c, 4, 58, 92
1, 10273, Note_on_c, 9, 42, 94
1, 10273, Note_on_c, 9, 40, 94
1, 10276, Note_off_c, 9, 40, 64
1, 10276, Note_off_c, 9, 42, 64
1, 10279, Note_off_c, 4, 53, 64
1, 10280, Note_off_c, 4, 58, 64
1, 10296, Note_on_c, 10, 68, 109
1, 10301, Note_off_c, 3, 68, 64
1, 10309, Note_off_c, 1, 32, 64
1, 10315, Note_on_c, 3, 70, 117
1, 10319, Note_on_c, 1, 34, 100
1, 10321, Note_on_c, 4, 53, 92
1, 10322, Note_on_c, 4, 58, 92
1, 10322, Note_on_c, 9, 44, 73
1, 10325, Note_off_c, 9, 44, 64
1, 10327, Note_off_c, 10, 65, 64
1, 10328, Note_off_c, 4, 53, 64
1, 10329, Note_off_c, 4, 58, 64
1, 10344, Note_on_c, 10, 70, 123
1, 10357, Note_off_c, 3, 70, 64
1, 10358, Note_off_c, 10, 68, 64
1, 10368, Note_on_c, 4, 58, 94
1, 10368, Note_on_c, 4, 53, 94
1, 10368, Note_on_c, 9, 36, 94
1, 10368, Note_on_c, 9, 42, 94
1, 10368, Note_on_c, 9, 56, 72
1, 10371, Note_off_c, 9, 56, 64
1, 10371, Note_off_c, 9, 42, 64
1, 10371, Note_off_c, 9, 36, 64
1, 10374, Note_off_c, 1, 34, 64
1, 10376, Note_off_c, 4, 53, 64
1, 10376, Note_off_c, 4, 58, 64
1, 10414, Note_off_c, 10, 70, 64
1, 10416, Note_on_c, 9, 44, 73
1, 10418, Note_on_c, 4, 58, 94
1, 10418, Note_on_c, 4, 53, 94
1, 10419, Note_off_c, 9, 44, 64
1, 10426, Note_off_c, 4, 53, 64
1, 10426, Note_off_c, 4, 58, 64
1, 10463, Note_on_c, 1, 44, 100
1, 10463, Note_on_c, 4, 58, 94
1, 10463, Note_on_c, 4, 53, 94
1, 10463, Note_on_c, 9, 42, 94
1, 10465, Note_on_c, 9, 40, 94
1, 10466, Note_off_c, 9, 42, 64
1, 10468, Note_off_c, 9, 40, 64
1, 10471, Note_off_c, 4, 53, 64
1, 10471, Note_off_c, 4, 58, 64
1, 10502, Note_off_c, 1, 44, 64
1, 10508, Note_on_c, 4, 58, 94
1, 10508, Note_on_c, 4, 53, 94
1, 10509, Pitch_bend_c, 11, 0
1, 10510, Note_on_c, 11, 77, 64
1, 10512, Note_on_c, 9, 44, 73
1, 10515, Note_off_c, 9, 44, 64
1, 10516, Note_on_c, 1, 34, 89
1, 10516, Note_off_c, 4, 53, 64
1, 10516, Note_off_c, 4, 58, 64
1, 10531, Note_off_c, 1, 34, 64
1, 10559, Note_on_c, 1, 44, 100
1, 10559, Note_on_c, 4, 58, 94
1, 10559, Note_on_c, 4, 53, 94
1, 10559, Note_on_c, 9, 56, 72
1, 10560, Note_on_c, 9, 36, 94
1, 10562, Note_off_c, 9, 56, 64
1, 10562, Note_on_c, 9, 42, 94
1, 10563, Note_off_c, 9, 36, 64
1, 10565, Note_off_c, 9, 42, 64
1, 10567, Note_off_c, 4, 53, 64
1, 10567, Note_off_c, 4, 58, 64
1, 10567, Pitch_bend_c, 11, 128
1, 10569, Pitch_bend_c, 11, 256
1, 10571, Pitch_bend_c, 11, 512
1, 10574, Pitch_bend_c, 1, 16383
1, 10575, Pitch_bend_c, 11, 768
1, 10579, Pitch_bend_c, 11, 1024
1, 10583, Pitch_bend_c, 11, 1280
1, 10585, Pitch_bend_c, 11, 1536
1, 10589, Pitch_bend_c, 11, 1920
1, 10593, Pitch_bend_c, 11, 2432
1, 10597, Pitch_bend_c, 11, 2816
1, 10598, Note_off_c, 1, 44, 64
1, 10601, Pitch_bend_c, 11, 3072
1, 10603, Pitch_bend_c, 11, 3456
1, 10606, Pitch_bend_c, 11, 3840
1, 10607, Pitch_bend_c, 1, 8192
1, 10608, Note_on_c, 1, 34, 88
1, 10609, Note_on_c, 4, 53, 94
1, 10609, Note_on_c, 9, 44, 73
1, 10610, Note_on_c, 4, 58, 94
1, 10611, Pitch_bend_c, 11, 4096
1, 10612, Note_off_c, 9, 44, 64
1, 10614, Pitch_bend_c, 11, 4480
1, 10617, Note_off_c, 4, 53, 64
1, 10618, Note_off_c, 4, 58, 64
1, 10618, Pitch_bend_c, 11, 4608
1, 10621, Pitch_bend_c, 11, 4864
1, 10623, Note_off_c, 1, 34, 64
1, 10624, Pitch_bend_c, 11, 5120
1, 10628, Pitch_bend_c, 11, 5248
1, 10632, Pitch_bend_c, 11, 5376
1, 10634, Pitch_bend_c, 11, 5632
1, 10638, Pitch_bend_c, 11, 5760
1, 10642, Pitch_bend_c, 11, 6144
1, 10646, Pitch_bend_c, 11, 6272
1, 10650, Pitch_bend_c, 11, 6400
1, 10652, Pitch_bend_c, 11, 6656
1, 10656, Note_on_c, 4, 56, 74
1, 10656, Pitch_bend_c, 11, 6912
1, 10657, Note_on_c, 4, 61, 75
1, 10657, Note_on_c, 9, 42, 94
1, 10657, Note_on_c, 9, 40, 94
1, 10660, Note_off_c, 9, 40, 64
1, 10660, Note_off_c, 9, 42, 64
1, 10660, Pitch_bend_c, 11, 7168
1, 10664, Note_off_c, 4, 56, 64
1, 10664, Pitch_bend_c, 11, 7424
1, 10665, Note_off_c, 4, 61, 64
1, 10668, Pitch_bend_c, 11, 7552
1, 10669, Pitch_bend_c, 11, 7936
1, 10673, Pitch_bend_c, 11, 8192
1, 10701, Note_on_c, 3, 65, 85
1, 10704, Note_on_c, 1, 39, 100
1, 10704, Note_on_c, 4, 58, 90
1, 10704, Note_on_c, 4, 63, 90
1, 10706, Note_on_c, 9, 44, 73
1, 10709, Note_off_c, 9, 44, 64
1, 10712, Note_off_c, 4, 63, 64
1, 10712, Note_off_c, 4, 58, 64
1, 10729, Note_on_c, 10, 65, 110
1, 10739, Note_off_c, 3, 65, 64
1, 10749, Note_on_c, 3, 68, 117
1, 10751, Note_off_c, 2, 46, 64
1, 10752, Note_on_c, 4, 58, 54
1, 10752, Note_on_c, 4, 63, 54
1, 10752, Note_on_c, 9, 36, 94
1, 10752, Note_on_c, 9, 42, 94
1, 10752, Note_on_c, 9, 56, 72
1, 10754, Note_on_c, 2, 39, 74
1, 10754, Note_off_c, 11, 77, 64
1, 10755, Note_off_c, 9, 56, 64
1, 10755, Note_off_c, 9, 42, 64
1, 10755, Note_off_c, 9, 36, 64
1, 10759, Note_off_c, 1, 39, 64
1, 10760, Note_off_c, 4, 63, 64
1, 10760, Note_off_c, 4, 58, 64
1, 10766, Note_off_c, 3, 68, 64
1, 10778, Note_on_c, 10, 68, 123
1, 10796, Note_off_c, 10, 65, 64
1, 10797, Note_on_c, 1, 39, 100
1, 10797, Note_on_c, 3, 68, 82
1, 10800, Note_on_c, 4, 58, 98
1, 10800, Note_on_c, 4, 63, 98
1, 10800, Note_on_c, 9, 44, 73
1, 10803, Note_off_c, 9, 44, 64
1, 10808, Note_off_c, 4, 63, 64
1, 10808, Note_off_c, 4, 58, 64
1, 10809, Note_off_c, 3, 68, 64
1, 10823, Note_off_c, 10, 68, 64
1, 10825, Note_on_c, 10, 68, 106
1, 10836, Note_off_c, 1, 39, 64
1, 10843, Note_on_c, 3, 68, 117
1, 10847, Note_on_c, 1, 49, 100
1, 10847, Note_on_c, 9, 42, 94
1, 10848, Note_on_c, 4, 63, 77
1, 10848, Note_on_c, 4, 58, 77
1, 10849, Note_on_c, 9, 40, 94
1, 10850, Note_off_c, 9, 42, 64
1, 10852, Note_off_c, 9, 40, 64
1, 10856, Note_off_c, 4, 58, 64
1, 10856, Note_off_c, 4, 63, 64
1, 10857, Note_off_c, 3, 68, 64
1, 10866, Note_off_c, 10, 68, 64
1, 10871, Note_on_c, 10, 68, 123
1, 10886, Note_off_c, 1, 49, 64
1, 10891, Note_on_c, 3, 68, 73
1, 10895, Note_on_c, 1, 39, 75
1, 10896, Note_on_c, 4, 63, 93
1, 10896, Note_on_c, 4, 58, 93
1, 10896, Note_on_c, 9, 44, 73
1, 10899, Note_off_c, 9, 44, 64
1, 10904, Note_off_c, 4, 58, 64
1, 10904, Note_off_c, 4, 63, 64
1, 10906, Note_off_c, 3, 68, 64
1, 10910, Note_off_c, 1, 39, 64
1, 10914, Note_off_c, 10, 68, 64
1, 10920, Note_on_c, 10, 68, 102
1, 10939, Note_on_c, 3, 70, 103
1, 10942, Note_on_c, 1, 49, 100
1, 10943, Note_on_c, 9, 56, 72
1, 10944, Note_on_c, 4, 63, 90
1, 10944, Note_on_c, 4, 58, 90
1, 10944, Note_on_c, 9, 36, 94
1, 10946, Note_off_c, 9, 56, 64
1, 10946, Note_on_c, 9, 42, 94
1, 10947, Note_off_c, 9, 36, 64
1, 10949, Note_off_c, 9, 42, 64
1, 10952, Note_off_c, 4, 58, 64
1, 10952, Note_off_c, 4, 63, 64
1, 10953, Pitch_bend_c, 1, 16383
1, 10963, Note_off_c, 10, 68, 64
1, 10967, Note_on_c, 10, 70, 109
1, 10981, Note_off_c, 1, 49, 64
1, 10985, Note_off_c, 3, 70, 64
1, 10988, Pitch_bend_c, 1, 8192
1, 10988, Note_on_c, 3, 65, 82
1, 10989, Note_on_c, 1, 29, 90
1, 10992, Note_on_c, 4, 63, 91
1, 10992, Note_on_c, 4, 58, 91
1, 10993, Note_on_c, 9, 44, 73
1, 10996, Note_off_c, 9, 44, 64
1, 11000, Note_off_c, 4, 58, 64
1, 11000, Note_off_c, 4, 63, 64
1, 11004, Note_off_c, 1, 29, 64
1, 11017, Note_on_c, 10, 65, 106
1, 11027, Note_off_c, 3, 65, 64
1, 11033, Note_on_c, 3, 68, 103
1, 11038, Note_on_c, 1, 32, 91
1, 11040, Note_on_c, 4, 63, 97
1, 11040, Note_on_c, 4, 58, 97
1, 11041, Note_on_c, 9, 42, 94
1, 11041, Note_on_c, 9, 40, 94
1, 11042, Note_off_c, 10, 70, 64
1, 11044, Note_off_c, 9, 40, 64
1, 11044, Note_off_c, 9, 42, 64
1, 11048, Note_off_c, 4, 58, 64
1, 11048, Note_off_c, 4, 63, 64
1, 11061, Note_off_c, 3, 68, 64
1, 11062, Note_on_c, 10, 68, 109
1, 11069, Note_off_c, 1, 32, 64
1, 11083, Note_on_c, 3, 70, 126
1, 11084, Note_off_c, 10, 65, 64
1, 11085, Note_on_c, 1, 34, 100
1, 11088, Note_on_c, 4, 58, 77
1, 11088, Note_on_c, 4, 63, 77
1, 11090, Note_on_c, 9, 44, 73
1, 11093, Note_off_c, 9, 44, 64
1, 11096, Note_off_c, 4, 63, 64
1, 11096, Note_off_c, 4, 58, 64
1, 11111, Note_on_c, 10, 70, 127
1, 11116, Note_off_c, 3, 70, 64
1, 11118, Note_off_c, 10, 68, 64
1, 11134, Note_on_c, 2, 46, 74
1, 11136, Note_off_c, 2, 39, 64
1, 11136, Note_on_c, 4, 58, 60
1, 11136, Note_on_c, 4, 53, 60
1, 11136, Note_on_c, 9, 36, 94
1, 11136, Note_on_c, 9, 42, 94
1, 11136, Note_on_c, 9, 56, 72
1, 11139, Note_off_c, 9, 56, 64
1, 11139, Note_off_c, 9, 42, 64
1, 11139, Note_off_c, 9, 36, 64
1, 11140, Note_off_c, 1, 34, 64
1, 11144, Note_off_c, 4, 53, 64
1, 11144, Note_off_c, 4, 58, 64
1, 11173, Note_off_c, 10, 70, 64
1, 11177, Note_on_c, 3, 70, 103
1, 11181, Note_on_c, 1, 34, 100
1, 11183, Pitch_bend_c, 6, 0
1, 11184, Note_on_c, 9, 44, 73
1, 11186, Note_on_c, 4, 58, 94
1, 11186, Note_on_c, 4, 53, 94
1, 11187, Note_off_c, 9, 44, 64
1, 11194, Note_off_c, 4, 53, 64
1, 11194, Note_off_c, 4, 58, 64
1, 11197, Pitch_bend_c, 6, 512
1, 11199, Pitch_bend_c, 6, 8192
1, 11206, Note_on_c, 10, 70, 109
1, 11220, Note_off_c, 1, 34, 64
1, 11221, Note_off_c, 3, 70, 64
1, 11231, Note_on_c, 1, 44, 100
1, 11231, Note_on_c, 4, 58, 84
1, 11231, Note_on_c, 4, 53, 84
1, 11231, Note_on_c, 9, 42, 94
1, 11233, Note_on_c, 9, 40, 94
1, 11234, Note_off_c, 9, 42, 64
1, 11236, Note_off_c, 9, 40, 64
1, 11239, Note_off_c, 4, 53, 64
1, 11239, Note_off_c, 4, 58, 64
1, 11270, Note_off_c, 1, 44, 64
1, 11276, Note_on_c, 4, 58, 97
1, 11276, Note_on_c, 4, 53, 97
1, 11278, Note_on_c, 1, 34, 71
1, 11278, Note_off_c, 10, 70, 64
1, 11280, Note_on_c, 9, 44, 73
1, 11283, Note_off_c, 9, 44, 64
1, 11284, Note_off_c, 4, 53, 64
1, 11284, Note_off_c, 4, 58, 64
1, 11293, Note_off_c, 1, 34, 64
1, 11325, Note_on_c, 1, 44, 100
1, 11326, Pitch_bend_c, 6, 0
1, 11326, Control_c, 6, 1, 127
1, 11327, Note_on_c, 4, 58, 86
1, 11327, Note_on_c, 4, 53, 86
1, 11327, Note_on_c, 6, 62, 94
1, 11327, Note_on_c, 9, 56, 72
1, 11328, Note_on_c, 9, 36, 94
1, 11329, Pitch_bend_c, 6, 1024
1, 11330, Note_off_c, 9, 56, 64
1, 11330, Note_on_c, 9, 42, 94
1, 11331, Pitch_bend_c, 6, 8192
1, 11331, Note_off_c, 9, 36, 64
1, 11333, Note_off_c, 9, 42, 64
1, 11335, Note_off_c, 4, 53, 64
1, 11335, Note_off_c, 4, 58, 64
1, 11342, Pitch_bend_c, 1, 16383
1, 11356, Note_off_c, 6, 62, 64
1, 11364, Note_off_c, 1, 44, 64
1, 11373, Pitch_bend_c, 1, 8192
1, 11374, Note_on_c, 1, 34, 93
1, 11377, Note_on_c, 4, 53, 94
1, 11377, Note_on_c, 9, 44, 73
1, 11378, Note_on_c, 4, 58, 94
1, 11380, Note_off_c, 9, 44, 64
1, 11385, Note_off_c, 4, 53, 64
1, 11386, Note_off_c, 4, 58, 64
1, 11424, Note_on_c, 4, 53, 92
1, 11424, Note_on_c, 4, 58, 92
1, 11425, Note_on_c, 9, 42, 94
1, 11425, Note_on_c, 9, 40, 94
1, 11428, Note_off_c, 9, 40, 64
1, 11428, Note_off_c, 9, 42, 64
1, 11429, Note_off_c, 1, 34, 64
1, 11431, Note_off_c, 4, 53, 64
1, 11432, Note_off_c, 4, 58, 64
1, 11470, Note_on_c, 1, 32, 100
1, 11473, Note_on_c, 4, 53, 92
1, 11474, Note_on_c, 4, 58, 92
1, 11474, Note_on_c, 9, 44, 73
1, 11477, Note_off_c, 9, 44, 64
1, 11480, Note_off_c, 4, 53, 64
1, 11481, Note_off_c, 4, 58, 64
1, 11486, Pitch_bend_c, 1, 16383
1, 11519, Pitch_bend_c, 6, 0
1, 11520, Note_on_c, 4, 58, 60
1, 11520, Note_on_c, 4, 53, 60
1, 11520, Note_on_c, 6, 63, 94
1, 11520, Note_on_c, 9, 36, 94
1, 11520, Note_on_c, 9, 42, 94
1, 11520, Note_on_c, 9, 56, 72
1, 11521, Pitch_bend_c, 6, 2816
1, 11523, Note_off_c, 9, 56, 64
1, 11523, Note_off_c, 9, 42, 64
1, 11523, Note_off_c, 9, 36, 64
1, 11524, Pitch_bend_c, 6, 5760
1, 11525, Note_off_c, 1, 32, 64
1, 11528, Note_off_c, 4, 53, 64
1, 11528, Note_off_c, 4, 58, 64
1, 11528, Pitch_bend_c, 6, 8192
1, 11545, Note_off_c, 6, 63, 64
1, 11565, Pitch_bend_c, 1, 8192
1, 11566, Note_on_c, 1, 34, 100
1, 11568, Note_on_c, 9, 44, 73
1, 11570, Note_on_c, 4, 58, 94
1, 11570, Note_on_c, 4, 53, 94
1, 11571, Note_off_c, 9, 44, 64
1, 11578, Note_off_c, 4, 53, 64
1, 11578, Note_off_c, 4, 58, 64
1, 11605, Note_off_c, 1, 34, 64
1, 11613, Note_on_c, 1, 44, 100
1, 11615, Note_on_c, 4, 58, 84
1, 11615, Note_on_c, 4, 53, 84
1, 11615, Note_on_c, 6, 63, 94
1, 11615, Note_on_c, 9, 42, 94
1, 11617, Note_on_c, 9, 40, 94
1, 11618, Note_off_c, 9, 42, 64
1, 11620, Note_off_c, 9, 40, 64
1, 11623, Note_off_c, 4, 53, 64
1, 11623, Note_off_c, 4, 58, 64
1, 11647, Note_off_c, 6, 63, 64
1, 11660, Note_on_c, 4, 58, 97
1, 11660, Note_on_c, 4, 53, 97
1, 11664, Pitch_bend_c, 6, 2816
1, 11664, Note_on_c, 9, 44, 73
1, 11665, Note_on_c, 6, 62, 94
1, 11667, Note_off_c, 9, 44, 64
1, 11668, Note_off_c, 1, 44, 64
1, 11668, Note_off_c, 4, 53, 64
1, 11668, Note_off_c, 4, 58, 64
1, 11668, Pitch_bend_c, 6, 0
1, 11680, Pitch_bend_c, 6, 384
1, 11681, Pitch_bend_c, 6, 6016
1, 11685, Pitch_bend_c, 6, 9232
1, 11688, Pitch_bend_c, 6, 8192
1, 11692, Note_off_c, 6, 62, 64
1, 11707, Note_on_c, 1, 44, 100
1, 11711, Note_on_c, 4, 58, 86
1, 11711, Note_on_c, 4, 53, 86
1, 11711, Note_on_c, 9, 56, 72
1, 11712, Note_on_c, 9, 36, 94
1, 11714, Note_off_c, 9, 56, 64
1, 11714, Note_on_c, 9, 42, 94
1, 11715, Note_off_c, 9, 36, 64
1, 11717, Note_off_c, 9, 42, 64
1, 11719, Note_off_c, 4, 53, 64
1, 11719, Note_off_c, 4, 58, 64
1, 11726, Pitch_bend_c, 1, 16383
1, 11740, Note_off_c, 1, 44, 64
1, 11756, Pitch_bend_c, 1, 8192
1, 11757, Note_on_c, 1, 29, 91
1, 11757, Note_on_c, 3, 65, 85
1, 11761, Note_on_c, 4, 53, 94
1, 11761, Note_on_c, 9, 44, 73
1, 11762, Note_on_c, 4, 58, 94
1, 11764, Note_off_c, 9, 44, 64
1, 11769, Note_off_c, 4, 53, 64
1, 11770, Note_off_c, 4, 58, 64
1, 11780, Note_off_c, 1, 29, 64
1, 11786, Note_on_c, 10, 65, 118
1, 11804, Note_on_c, 3, 68, 103
1, 11806, Note_on_c, 1, 32, 94
1, 11808, Note_on_c, 4, 53, 92
1, 11808, Note_on_c, 4, 58, 92
1, 11809, Note_on_c, 9, 42, 94
1, 11809, Note_on_c, 9, 40, 94
1, 11812, Note_off_c, 3, 65, 64
1, 11812, Note_off_c, 9, 40, 64
1, 11812, Note_off_c, 9, 42, 64
1, 11815, Note_off_c, 4, 53, 64
1, 11816, Note_off_c, 4, 58, 64
1, 11833, Note_on_c, 10, 68, 109
1, 11837, Note_off_c, 3, 68, 64
1, 11845, Note_off_c, 1, 32, 64
1, 11853, Note_on_c, 3, 70, 120
1, 11855, Note_on_c, 1, 34, 100
1, 11857, Note_on_c, 4, 53, 92
1, 11858, Note_on_c, 4, 58, 92
1, 11858, Note_on_c, 9, 44, 73
1, 11861, Note_off_c, 9, 44, 64
1, 11864, Note_off_c, 4, 53, 64
1, 11865, Note_off_c, 4, 58, 64
1, 11869, Note_off_c, 10, 65, 64
1, 11881, Note_on_c, 10, 70, 126
1, 11885, Note_off_c, 3, 70, 64
1, 11894, Note_off_c, 10, 68, 64
1, 11904, Note_on_c, 4, 58, 94
1, 11904, Note_on_c, 4, 53, 94
1, 11904, Note_on_c, 9, 36, 94
1, 11904, Note_on_c, 9, 42, 94
1, 11904, Note_on_c, 9, 56, 72
1, 11907, Note_off_c, 9, 56, 64
1, 11907, Note_off_c, 9, 42, 64
1, 11907, Note_off_c, 9, 36, 64
1, 11910, Note_off_c, 1, 34, 64
1, 11912, Note_off_c, 4, 53, 64
1, 11912, Note_off_c, 4, 58, 64
1, 11942, Note_off_c, 10, 70, 64
1, 11952, Note_on_c, 9, 44, 73
1, 11954, Note_on_c, 4, 58, 94
1, 11954, Note_on_c, 4, 53, 94
1, 11955, Note_off_c, 9, 44, 64
1, 11962, Note_off_c, 4, 53, 64
1, 11962, Note_off_c, 4, 58, 64
1, 11999, Note_on_c, 1, 44, 100
1, 11999, Note_on_c, 4, 58, 94
1, 11999, Note_on_c, 4, 53, 94
1, 11999, Note_on_c, 9, 42, 94
1, 12001, Note_on_c, 9, 40, 94
1, 12002, Note_off_c, 9, 42, 64
1, 12004, Note_off_c, 9, 40, 64
1, 12007, Note_off_c, 4, 53, 64
1, 12007, Note_off_c, 4, 58, 64
1, 12038, Note_off_c, 1, 44, 64
1, 12044, Note_on_c, 4, 58, 94
1, 12044, Note_on_c, 4, 53, 94
1, 12048, Note_on_c, 9, 44, 73
1, 12051, Note_off_c, 9, 44, 64
1, 12052, Note_on_c, 1, 34, 89
1, 12052, Note_off_c, 4, 53, 64
1, 12052, Note_off_c, 4, 58, 64
1, 12067, Note_off_c, 1, 34, 64
1, 12095, Note_on_c, 1, 44, 100
1, 12095, Note_on_c, 4, 58, 94
1, 12095, Note_on_c, 4, 53, 94
1, 12095, Note_on_c, 9, 56, 72
1, 12096, Note_on_c, 9, 36, 94
1, 12098, Note_off_c, 9, 56, 64
1, 12098, Note_on_c, 9, 42, 94
1, 12099, Note_off_c, 9, 36, 64
1, 12101, Note_off_c, 9, 42, 64
1, 12103, Note_off_c, 4, 53, 64
1, 12103, Note_off_c, 4, 58, 64
1, 12110, Pitch_bend_c, 1, 16383
1, 12134, Note_off_c, 1, 44, 64
1, 12143, Pitch_bend_c, 1, 8192
1, 12144, Note_on_c, 1, 34, 88
1, 12145, Note_on_c, 4, 53, 94
1, 12145, Note_on_c, 9, 44, 73
1, 12146, Note_on_c, 4, 58, 94
1, 12148, Note_off_c, 9, 44, 64
1, 12153, Note_off_c, 4, 53, 64
1, 12154, Note_off_c, 4, 58, 64
1, 12159, Note_off_c, 1, 34, 64
1, 12192, Note_on_c, 4, 56, 74
1, 12193, Note_on_c, 4, 61, 75
1, 12193, Note_on_c, 9, 42, 94
1, 12193, Note_on_c, 9, 40, 94
1, 12196, Note_off_c, 9, 40, 64
1, 12196, Note_off_c, 9, 42, 64
1, 12200, Note_off_c, 4, 56, 64
1, 12201, Note_off_c, 4, 61, 64
1, 12240, Note_on_c, 1, 39, 100
1, 12240, Note_on_c, 4, 58, 90
1, 12240, Note_on_c, 4, 63, 90
1, 12242, Note_on_c, 3, 65, 103
1, 12242, Note_on_c, 9, 44, 73
1, 12245, Note_off_c, 9, 44, 64
1, 12248, Note_off_c, 4, 63, 64
1, 12248, Note_off_c, 4, 58, 64
1, 12270, Note_on_c, 10, 65, 109
1, 12279, Note_off_c, 1, 39, 64
1, 12284, Note_on_c, 3, 68, 120
1, 12288, Note_on_c, 4, 58, 54
1, 12288, Note_on_c, 4, 63, 54
1, 12288, Note_on_c, 9, 36, 94
1, 12288, Note_on_c, 9, 42, 94
1, 12288, Note_on_c, 9, 56, 72
1, 12289, Note_off_c, 3, 65, 64
1, 12291, Note_off_c, 2, 46, 64
1, 12291, Note_off_c, 9, 56, 64
1, 12291, Note_off_c, 9, 42, 64
1, 12291, Note_off_c, 9, 36, 64
1, 12295, Note_on_c, 2, 39, 74
1, 12296, Note_off_c, 4, 63, 64
1, 12296, Note_off_c, 4, 58, 64
1, 12298, Note_off_c, 3, 68, 64
1, 12312, Note_on_c, 10, 68, 126
1, 12333, Note_on_c, 1, 39, 100
1, 12333, Note_on_c, 3, 68, 85
1, 12336, Note_on_c, 4, 58, 98
1, 12336, Note_on_c, 4, 63, 98
1, 12336, Note_on_c, 9, 44, 73
1, 12339, Note_off_c, 9, 44, 64
1, 12341, Note_off_c, 10, 65, 64
1, 12344, Note_off_c, 3, 68, 64
1, 12344, Note_off_c, 4, 63, 64
1, 12344, Note_off_c, 4, 58, 64
1, 12355, Note_off_c, 10, 68, 64
1, 12362, Note_on_c, 10, 68, 118
1, 12372, Note_off_c, 1, 39, 64
1, 12379, Note_on_c, 3, 68, 103
1, 12383, Note_on_c, 1, 49, 100
1, 12383, Note_on_c, 9, 42, 94
1, 12384, Note_on_c, 4, 63, 77
1, 12384, Note_on_c, 4, 58, 77
1, 12385, Note_on_c, 9, 40, 94
1, 12386, Note_off_c, 9, 42, 64
1, 12388, Note_off_c, 9, 40, 64
1, 12392, Note_off_c, 3, 68, 64
1, 12392, Note_off_c, 4, 58, 64
1, 12392, Note_off_c, 4, 63, 64
1, 12401, Note_off_c, 10, 68, 64
1, 12407, Note_on_c, 10, 68, 114
1, 12422, Note_off_c, 1, 49, 64
1, 12428, Note_on_c, 3, 68, 85
1, 12431, Note_on_c, 1, 39, 75
1, 12432, Note_on_c, 4, 63, 93
1, 12432, Note_on_c, 4, 58, 93
1, 12432, Note_on_c, 9, 44, 73
1, 12435, Note_off_c, 9, 44, 64
1, 12440, Note_off_c, 4, 58, 64
1, 12440, Note_off_c, 4, 63, 64
1, 12444, Note_off_c, 3, 68, 64
1, 12446, Note_off_c, 1, 39, 64
1, 12449, Note_off_c, 10, 68, 64
1, 12457, Note_on_c, 10, 68, 118
1, 12476, Note_on_c, 3, 70, 120
1, 12478, Note_on_c, 1, 49, 100
1, 12479, Note_on_c, 9, 56, 72
1, 12480, Note_on_c, 4, 63, 90
1, 12480, Note_on_c, 4, 58, 90
1, 12480, Note_on_c, 9, 36, 94
1, 12482, Note_off_c, 9, 56, 64
1, 12482, Note_on_c, 9, 42, 94
1, 12483, Note_off_c, 9, 36, 64
1, 12485, Note_off_c, 9, 42, 64
1, 12488, Note_off_c, 4, 58, 64
1, 12488, Note_off_c, 4, 63, 64
1, 12489, Pitch_bend_c, 1, 16383
1, 12501, Note_off_c, 10, 68, 64
1, 12504, Note_on_c, 10, 70, 126
1, 12517, Note_off_c, 1, 49, 64
1, 12517, Note_off_c, 3, 70, 64
1, 12521, Note_on_c, 3, 65, 94
1, 12524, Pitch_bend_c, 1, 8192
1, 12525, Note_on_c, 1, 29, 90
1, 12528, Note_on_c, 4, 63, 91
1, 12528, Note_on_c, 4, 58, 91
1, 12529, Note_on_c, 9, 44, 73
1, 12532, Note_off_c, 9, 44, 64
1, 12536, Note_off_c, 4, 58, 64
1, 12536, Note_off_c, 4, 63, 64
1, 12540, Note_off_c, 1, 29, 64
1, 12550, Note_on_c, 10, 65, 110
1, 12569, Note_off_c, 3, 65, 64
1, 12569, Note_on_c, 3, 68, 103
1, 12574, Note_on_c, 1, 32, 91
1, 12574, Note_off_c, 10, 70, 64
1, 12576, Note_on_c, 4, 63, 97
1, 12576, Note_on_c, 4, 58, 97
1, 12577, Note_on_c, 9, 42, 94
1, 12577, Note_on_c, 9, 40, 94
1, 12580, Note_off_c, 9, 40, 64
1, 12580, Note_off_c, 9, 42, 64
1, 12584, Note_off_c, 4, 58, 64
1, 12584, Note_off_c, 4, 63, 64
1, 12598, Note_on_c, 10, 68, 109
1, 12605, Note_off_c, 1, 32, 64
1, 12615, Note_off_c, 3, 68, 64
1, 12620, Note_on_c, 3, 70, 111
1, 12621, Note_on_c, 1, 34, 100
1, 12624, Note_on_c, 4, 58, 77
1, 12624, Note_on_c, 4, 63, 77
1, 12626, Note_on_c, 9, 44, 73
1, 12626, Note_off_c, 10, 65, 64
1, 12629, Note_off_c, 9, 44, 64
1, 12632, Note_off_c, 4, 63, 64
1, 12632, Note_off_c, 4, 58, 64
1, 12640, Note_off_c, 3, 70, 64
1, 12648, Note_on_c, 10, 70, 117
1, 12660, Note_off_c, 1, 34, 64
1, 12670, Note_on_c, 2, 46, 74
1, 12672, Note_on_c, 4, 58, 60
1, 12672, Note_on_c, 4, 53, 60
1, 12672, Note_on_c, 9, 36, 94
1, 12672, Note_on_c, 9, 42, 94
1, 12672, Note_on_c, 9, 56, 72
1, 12672, Note_off_c, 10, 68, 64
1, 12675, Note_off_c, 9, 56, 64
1, 12675, Note_off_c, 9, 42, 64
1, 12675, Note_off_c, 9, 36, 64
1, 12678, Note_off_c, 2, 39, 64
1, 12680, Note_off_c, 4, 53, 64
1, 12680, Note_off_c, 4, 58, 64
1, 12697, Note_off_c, 10, 70, 64
1, 12710, Note_on_c, 3, 70, 103
1, 12717, Note_on_c, 1, 34, 100
1, 12720, Note_on_c, 9, 44, 73
1, 12722, Note_on_c, 4, 58, 94
1, 12722, Note_on_c, 4, 53, 94
1, 12723, Note_off_c, 9, 44, 64
1, 12730, Note_off_c, 4, 53, 64
1, 12730, Note_off_c, 4, 58, 64
1, 12738, Note_on_c, 10, 70, 109
1, 12756, Note_off_c, 1, 34, 64
1, 12767, Note_on_c, 1, 44, 100
1, 12767, Note_on_c, 4, 58, 84
1, 12767, Note_on_c, 4, 53, 84
1, 12767, Control_c, 8, 1, 0
1, 12767, Pitch_bend_c, 8, 0
1, 12767, Note_on_c, 9, 42, 94
1, 12768, Note_on_c, 8, 58, 94
1, 12769, Note_on_c, 9, 40, 94
1, 12770, Note_off_c, 9, 42, 64
1, 12772, Note_off_c, 9, 40, 64
1, 12775, Note_off_c, 4, 53, 64
1, 12775, Note_off_c, 4, 58, 64
1, 12783, Pitch_bend_c, 8, 1280
1, 12787, Pitch_bend_c, 8, 2944
1, 12788, Note_off_c, 8, 58, 64
1, 12796, Note_off_c, 3, 70, 64
1, 12806, Note_off_c, 1, 44, 64
1, 12812, Note_on_c, 4, 58, 97
1, 12812, Note_on_c, 4, 53, 97
1, 12814, Note_on_c, 1, 34, 71
1, 12816, Note_on_c, 9, 44, 73
1, 12819, Note_off_c, 9, 44, 64
1, 12820, Note_off_c, 4, 53, 64
1, 12820, Note_off_c, 4, 58, 64
1, 12829, Note_off_c, 1, 34, 64
1, 12853, Note_off_c, 10, 70, 64
1, 12861, Note_on_c, 1, 44, 100
1, 12863, Note_on_c, 4, 58, 86
1, 12863, Note_on_c, 4, 53, 86
1, 12863, Note_on_c, 9, 56, 72
1, 12864, Note_on_c, 9, 36, 94
1, 12866, Note_off_c, 9, 56, 64
1, 12866, Note_on_c, 9, 42, 94
1, 12867, Note_off_c, 9, 36, 64
1, 12869, Note_off_c, 9, 42, 64
1, 12871, Note_off_c, 4, 53, 64
1, 12871, Note_off_c, 4, 58, 64
1, 12878, Pitch_bend_c, 1, 16383
1, 12900, Note_off_c, 1, 44, 64
1, 12909, Pitch_bend_c, 1, 8192
1, 12910, Note_on_c, 1, 34, 93
1, 12913, Note_on_c, 4, 53, 94
1, 12913, Note_on_c, 9, 44, 73
1, 12914, Note_on_c, 4, 58, 94
1, 12916, Note_off_c, 9, 44, 64
1, 12921, Note_off_c, 4, 53, 64
1, 12922, Note_off_c, 4, 58, 64
1, 12957, Note_off_c, 1, 34, 64
1, 12960, Note_on_c, 4, 53, 92
1, 12960, Note_on_c, 4, 58, 92
1, 12961, Note_on_c, 9, 42, 94
1, 12961, Note_on_c, 9, 40, 94
1, 12964, Note_off_c, 9, 40, 64
1, 12964, Note_off_c, 9, 42, 64
1, 12967, Note_off_c, 4, 53, 64
1, 12968, Note_off_c, 4, 58, 64
1, 13006, Note_on_c, 1, 32, 100
1, 13009, Note_on_c, 4, 53, 92
1, 13010, Note_on_c, 4, 58, 92
1, 13010, Note_on_c, 9, 44, 73
1, 13013, Note_off_c, 9, 44, 64
1, 13016, Note_off_c, 4, 53, 64
1, 13017, Note_off_c, 4, 58, 64
1, 13022, Pitch_bend_c, 1, 16383
1, 13053, Note_off_c, 1, 32, 64
1, 13056, Note_on_c, 4, 58, 60
1, 13056, Note_on_c, 4, 53, 60
1, 13056, Note_on_c, 9, 36, 94
1, 13056, Note_on_c, 9, 42, 94
1, 13056, Note_on_c, 9, 56, 72
1, 13059, Note_off_c, 9, 56, 64
1, 13059, Note_off_c, 9, 42, 64
1, 13059, Note_off_c, 9, 36, 64
1, 13064, Note_off_c, 4, 53, 64
1, 13064, Note_off_c, 4, 58, 64
1, 13101, Pitch_bend_c, 1, 8192
1, 13102, Note_on_c, 1, 34, 100
1, 13104, Note_on_c, 9, 44, 73
1, 13106, Note_on_c, 4, 58, 94
1, 13106, Note_on_c, 4, 53, 94
1, 13107, Note_off_c, 9, 44, 64
1, 13114, Note_off_c, 4, 53, 64
1, 13114, Note_off_c, 4, 58, 64
1, 13141, Note_off_c, 1, 34, 64
1, 13149, Note_on_c, 1, 44, 100
1, 13151, Note_on_c, 4, 58, 84
1, 13151, Note_on_c, 4, 53, 84
1, 13151, Note_on_c, 9, 42, 94
1, 13153, Note_on_c, 9, 40, 94
1, 13154, Note_off_c, 9, 42, 64
1, 13156, Note_off_c, 9, 40, 64
1, 13159, Note_off_c, 4, 53, 64
1, 13159, Note_off_c, 4, 58, 64
1, 13196, Note_on_c, 4, 58, 97
1, 13196, Note_on_c, 4, 53, 97
1, 13200, Note_on_c, 9, 44, 73
1, 13203, Note_off_c, 9, 44, 64
1, 13204, Note_off_c, 1, 44, 64
1, 13204, Note_off_c, 4, 53, 64
1, 13204, Note_off_c, 4, 58, 64
1, 13243, Note_on_c, 1, 44, 100
1, 13247, Note_on_c, 4, 58, 86
1, 13247, Note_on_c, 4, 53, 86
1, 13247, Note_on_c, 9, 56, 72
1, 13248, Note_on_c, 9, 36, 94
1, 13250, Note_off_c, 9, 56, 64
1, 13250, Note_on_c, 9, 42, 94
1, 13251, Note_off_c, 9, 36, 64
1, 13253, Note_off_c, 9, 42, 64
1, 13255, Note_off_c, 4, 53, 64
1, 13255, Note_off_c, 4, 58, 64
1, 13262, Pitch_bend_c, 1, 16383
1, 13276, Note_off_c, 1, 44, 64
1, 13292, Pitch_bend_c, 1, 8192
1, 13293, Note_on_c, 1, 29, 91
1, 13295, Control_c, 5, 1, 0
1, 13296, Note_on_c, 5, 61, 94
1, 13296, Note_on_c, 9, 43, 79
1, 13297, Note_on_c, 4, 53, 94
1, 13298, Note_on_c, 4, 58, 94
1, 13299, Note_off_c, 9, 43, 64
1, 13305, Note_off_c, 4, 53, 64
1, 13306, Note_off_c, 4, 58, 64
1, 13316, Note_off_c, 1, 29, 64
1, 13330, Pitch_bend_c, 5, 8452
1, 13334, Pitch_bend_c, 5, 8712
1, 13338, Pitch_bend_c, 5, 8842
1, 13340, Pitch_bend_c, 5, 9102
1, 13342, Note_on_c, 1, 32, 94
1, 13344, Note_on_c, 4, 53, 92
1, 13344, Note_on_c, 4, 58, 92
1, 13344, Pitch_bend_c, 5, 9362
1, 13345, Note_on_c, 9, 42, 94
1, 13345, Note_on_c, 9, 40, 94
1, 13347, Pitch_bend_c, 5, 9622
1, 13348, Note_off_c, 9, 40, 64
1, 13348, Note_off_c, 9, 42, 64
1, 13351, Note_off_c, 4, 53, 64
1, 13352, Note_off_c, 4, 58, 64
1, 13352, Pitch_bend_c, 5, 9882
1, 13354, Pitch_bend_c, 5, 10532
1, 13361, Pitch_bend_c, 5, 10922
1, 13365, Pitch_bend_c, 5, 11572
1, 13369, Pitch_bend_c, 5, 12612
1, 13375, Pitch_bend_c, 5, 12872
1, 13379, Pitch_bend_c, 5, 13522
1, 13381, Note_off_c, 1, 32, 64
1, 13383, Pitch_bend_c, 5, 9882
1, 13386, Note_off_c, 5, 61, 64
1, 13388, Pitch_bend_c, 5, 8192
1, 13389, Note_on_c, 5, 58, 85
1, 13392, Note_on_c, 9, 36, 62
1, 13393, Note_on_c, 4, 53, 92
1, 13394, Note_on_c, 4, 58, 92
1, 13394, Note_on_c, 9, 44, 73
1, 13395, Note_off_c, 9, 36, 64
1, 13397, Note_off_c, 2, 46, 64
1, 13397, Note_off_c, 9, 44, 64
1, 13400, Note_off_c, 4, 53, 64
1, 13401, Note_off_c, 4, 58, 64
1, 13436, Note_on_c, 2, 46, 74
1, 13439, Pitch_bend_c, 3, 489
1, 13440, Note_on_c, 1, 34, 94
1, 13440, Note_on_c, 3, 70, 103
1, 13440, Note_on_c, 9, 36, 100
1, 13440, Note_on_c, 9, 49, 100
1, 13440, Note_on_c, 9, 56, 72
1, 13441, Note_on_c, 2, 77, 94
1, 13441, Note_on_c, 2, 80, 94
1, 13442, Note_on_c, 2, 74, 94
1, 13442, Note_on_c, 2, 82, 94
1, 13443, Note_off_c, 9, 56, 64
1, 13443, Note_off_c, 9, 49, 64
1, 13443, Note_off_c, 9, 36, 64
1, 13444, Pitch_bend_c, 3, 1772
1, 13447, Note_off_c, 2, 82, 64
1, 13448, Pitch_bend_c, 3, 3056
1, 13450, Note_off_c, 2, 74, 64
1, 13451, Note_off_c, 2, 80, 64
1, 13452, Pitch_bend_c, 3, 4340
1, 13454, Note_off_c, 2, 77, 64
1, 13456, Pitch_bend_c, 3, 5624
1, 13460, Pitch_bend_c, 3, 6907
1, 13464, Pitch_bend_c, 3, 8192
1, 13466, Control_c, 5, 1, 2
1, 13467, Pitch_bend_c, 10, 489
1, 13468, Control_c, 5, 1, 19
1, 13468, Note_on_c, 10, 70, 109
1, 13472, Pitch_bend_c, 10, 1772
1, 13476, Control_c, 5, 1, 26
1, 13476, Pitch_bend_c, 10, 3056
1, 13480, Pitch_bend_c, 10, 4340
1, 13481, Control_c, 5, 1, 31
1, 13484, Pitch_bend_c, 10, 5624
1, 13485, Control_c, 5, 1, 43
1, 13488, Note_on_c, 2, 80, 94
1, 13488, Note_on_c, 9, 44, 73
1, 13488, Pitch_bend_c, 10, 6907
1, 13489, Note_on_c, 2, 77, 94
1, 13489, Note_on_c, 2, 74, 94
1, 13490, Note_on_c, 2, 82, 96
1, 13490, Note_on_c, 4, 46, 94
1, 13491, Note_off_c, 9, 44, 64
1, 13492, Pitch_bend_c, 10, 8192
1, 13494, Note_off_c, 2, 82, 64
1, 13495, Note_off_c, 2, 80, 64
1, 13495, Note_off_c, 2, 74, 64
1, 13495, Control_c, 5, 1, 46
1, 13497, Note_off_c, 2, 77, 64
1, 13498, Note_off_c, 4, 46, 64
1, 13499, Control_c, 5, 1, 49
1, 13503, Control_c, 5, 1, 56
1, 13513, Control_c, 5, 1, 57
1, 13517, Control_c, 5, 1, 58
1, 13521, Control_c, 5, 1, 60
1, 13527, Control_c, 5, 1, 62
1, 13532, Control_c, 5, 1, 63
1, 13535, Note_on_c, 2, 80, 105
1, 13535, Note_on_c, 9, 42, 94
1, 13536, Note_on_c, 2, 82, 105
1, 13536, Note_on_c, 2, 74, 105
1, 13537, Note_on_c, 2, 77, 105
1, 13537, Control_c, 5, 1, 64
1, 13537, Note_on_c, 9, 40, 94
1, 13538, Note_off_c, 9, 42, 64
1, 13540, Note_off_c, 9, 40, 64
1, 13542, Pitch_bend_c, 5, 7680
1, 13544, Note_off_c, 2, 74, 64
1, 13544, Pitch_bend_c, 5, 4864
1, 13545, Note_off_c, 2, 80, 64
1, 13545, Note_off_c, 2, 77, 64
1, 13546, Note_off_c, 2, 82, 64
1, 13550, Pitch_bend_c, 5, 2816
1, 13551, Note_off_c, 1, 34, 64
1, 13552, Pitch_bend_c, 3, 7680
1, 13552, Control_c, 5, 1, 61
1, 13554, Pitch_bend_c, 5, 128
1, 13555, Pitch_bend_c, 3, 7424
1, 13557, Pitch_bend_c, 3, 6144
1, 13557, Pitch_bend_c, 5, 0
1, 13558, Control_c, 5, 1, 58
1, 13562, Control_c, 5, 1, 53
1, 13565, Pitch_bend_c, 3, 5248
1, 13566, Control_c, 5, 1, 33
1, 13569, Pitch_bend_c, 3, 4224
1, 13571, Note_off_c, 5, 58, 64
1, 13572, Pitch_bend_c, 3, 1664
1, 13574, Note_off_c, 3, 70, 64
1, 13580, Note_on_c, 4, 46, 94
1, 13581, Pitch_bend_c, 10, 7680
1, 13583, Note_on_c, 2, 77, 79
1, 13583, Pitch_bend_c, 10, 7424
1, 13584, Note_on_c, 2, 74, 79
1, 13584, Note_on_c, 9, 44, 73
1, 13585, Note_on_c, 2, 80, 79
1, 13585, Note_on_c, 2, 82, 79
1, 13585, Pitch_bend_c, 10, 6784
1, 13587, Note_off_c, 9, 44, 64
1, 13588, Note_off_c, 4, 46, 64
1, 13589, Pitch_bend_c, 10, 6144
1, 13590, Note_off_c, 2, 82, 64
1, 13591, Note_off_c, 2, 80, 64
1, 13592, Note_off_c, 2, 74, 64
1, 13593, Pitch_bend_c, 10, 5248
1, 13594, Note_off_c, 2, 77, 64
1, 13597, Pitch_bend_c, 10, 4224
1, 13600, Pitch_bend_c, 10, 3584
1, 13603, Note_off_c, 10, 70, 64
1, 13603, Pitch_bend_c, 10, 1664
1, 13611, Pitch_bend_c, 10, 8192
1, 13631, Note_on_c, 9, 56, 72
1, 13632, Note_on_c, 2, 74, 88
1, 13632, Note_on_c, 2, 77, 88
1, 13632, Note_on_c, 9, 36, 94
1, 13633, Note_on_c, 2, 80, 88
1, 13634, Note_on_c, 2, 82, 88
1, 13634, Note_off_c, 9, 56, 64
1, 13634, Note_on_c, 9, 42, 94
1, 13635, Note_off_c, 9, 36, 64
1, 13637, Note_off_c, 9, 42, 64
1, 13639, Note_off_c, 2, 80, 64
1, 13640, Note_on_c, 1, 34, 94
1, 13640, Note_off_c, 2, 77, 64
1, 13640, Note_off_c, 2, 74, 64
1, 13641, Note_off_c, 2, 82, 64
1, 13653, Note_off_c, 1, 34, 64
1, 13675, Note_on_c, 4, 46, 94
1, 13678, Note_on_c, 2, 77, 94
1, 13679, Note_on_c, 2, 74, 94
1, 13679, Note_on_c, 2, 80, 94
1, 13680, Note_on_c, 2, 82, 94
1, 13681, Note_on_c, 1, 34, 94
1, 13681, Note_on_c, 9, 44, 73
1, 13683, Note_off_c, 4, 46, 64
1, 13684, Note_off_c, 2, 82, 64
1, 13684, Note_off_c, 2, 80, 64
1, 13684, Note_off_c, 9, 44, 64
1, 13687, Note_off_c, 2, 74, 64
1, 13687, Note_off_c, 2, 77, 64
1, 13704, Note_off_c, 1, 34, 64
1, 13727, Note_on_c, 2, 74, 94
1, 13727, Note_on_c, 2, 77, 94
1, 13728, Note_on_c, 2, 80, 94
1, 13729, Note_on_c, 1, 33, 94
1, 13729, Note_on_c, 2, 82, 94
1, 13729, Note_on_c, 9, 42, 94
1, 13729, Note_on_c, 9, 40, 94
1, 13732, Note_off_c, 9, 40, 64
1, 13732, Note_off_c, 9, 42, 64
1, 13735, Note_off_c, 2, 82, 64
1, 13735, Note_off_c, 2, 80, 64
1, 13737, Note_off_c, 2, 77, 64
1, 13738, Note_off_c, 2, 74, 64
1, 13752, Note_off_c, 1, 33, 64
1, 13775, Note_on_c, 2, 77, 94
1, 13775, Note_on_c, 2, 80, 94
1, 13776, Note_on_c, 1, 31, 94
1, 13776, Note_on_c, 2, 74, 94
1, 13776, Note_on_c, 4, 46, 94
1, 13777, Note_on_c, 2, 82, 94
1, 13778, Note_on_c, 9, 44, 73
1, 13781, Note_off_c, 9, 44, 64
1, 13784, Note_off_c, 4, 46, 64
1, 13786, Note_off_c, 2, 74, 64
1, 13787, Note_off_c, 2, 82, 64
1, 13788, Note_off_c, 2, 80, 64
1, 13790, Note_off_c, 2, 77, 64
1, 13799, Note_off_c, 1, 31, 64
1, 13820, Note_off_c, 2, 46, 64
1, 13821, Pitch_bend_c, 3, 8192
1, 13822, Note_on_c, 2, 41, 74
1, 13822, Note_on_c, 3, 68, 103
1, 13824, Note_on_c, 2, 75, 94
1, 13824, Note_on_c, 9, 36, 94
1, 13824, Note_on_c, 9, 42, 94
1, 13824, Note_on_c, 9, 56, 72
1, 13825, Note_on_c, 2, 80, 94
1, 13826, Note_on_c, 1, 29, 94
1, 13826, Note_on_c, 2, 82, 88
1, 13827, Note_off_c, 9, 56, 64
1, 13827, Note_off_c, 9, 42, 64
1, 13827, Note_off_c, 9, 36, 64
1, 13830, Note_off_c, 2, 82, 64
1, 13833, Note_off_c, 2, 80, 64
1, 13836, Note_off_c, 2, 75, 64
1, 13850, Note_on_c, 10, 68, 109
1, 13869, Note_on_c, 2, 75, 79
1, 13870, Note_on_c, 2, 80, 79
1, 13872, Note_on_c, 3, 70, 94
1, 13872, Note_on_c, 9, 44, 73
1, 13874, Note_off_c, 2, 80, 64
1, 13874, Note_on_c, 4, 46, 94
1, 13875, Note_off_c, 3, 68, 64
1, 13875, Note_off_c, 9, 44, 64
1, 13877, Note_off_c, 2, 75, 64
1, 13882, Note_off_c, 4, 46, 64
1, 13900, Note_on_c, 10, 70, 100
1, 13917, Note_on_c, 2, 75, 88
1, 13918, Note_on_c, 2, 80, 88
1, 13919, Note_on_c, 2, 82, 88
1, 13919, Note_on_c, 9, 42, 94
1, 13920, Note_on_c, 2, 77, 88
1, 13921, Note_off_c, 2, 77, 64
1, 13921, Note_on_c, 9, 40, 94
1, 13922, Note_off_c, 9, 42, 64
1, 13923, Note_off_c, 2, 82, 64
1, 13924, Note_off_c, 9, 40, 64
1, 13928, Note_off_c, 2, 80, 64
1, 13929, Note_off_c, 1, 29, 64
1, 13931, Note_off_c, 2, 75, 64
1, 13932, Note_off_c, 10, 68, 64
1, 13964, Note_on_c, 3, 72, 111
1, 13964, Note_on_c, 4, 46, 94
1, 13965, Note_on_c, 2, 80, 105
1, 13966, Note_on_c, 2, 75, 105
1, 13966, Note_on_c, 2, 82, 105
1, 13966, Note_off_c, 3, 70, 64
1, 13967, Note_on_c, 2, 77, 105
1, 13968, Note_on_c, 9, 44, 73
1, 13971, Note_off_c, 2, 77, 64
1, 13971, Note_off_c, 9, 44, 64
1, 13972, Note_off_c, 4, 46, 64
1, 13974, Note_off_c, 2, 82, 64
1, 13976, Note_off_c, 2, 75, 64
1, 13978, Note_off_c, 2, 80, 64
1, 13990, Note_on_c, 1, 29, 94
1, 13993, Note_on_c, 10, 72, 117
1, 14003, Note_off_c, 1, 29, 64
1, 14003, Pitch_bend_c, 3, 8558
1, 14005, Pitch_bend_c, 3, 9047
1, 14009, Pitch_bend_c, 3, 10025
1, 14012, Note_on_c, 1, 29, 94
1, 14014, Note_on_c, 2, 75, 71
1, 14014, Pitch_bend_c, 3, 10759
1, 14015, Note_on_c, 2, 80, 70
1, 14015, Note_on_c, 2, 77, 70
1, 14015, Note_on_c, 9, 56, 72
1, 14016, Note_on_c, 2, 82, 79
1, 14016, Pitch_bend_c, 3, 12226
1, 14016, Note_on_c, 9, 36, 94
1, 14018, Note_off_c, 9, 56, 64
1, 14018, Note_on_c, 9, 42, 94
1, 14019, Note_off_c, 2, 77, 64
1, 14019, Note_off_c, 3, 72, 64
1, 14019, Note_off_c, 9, 36, 64
1, 14020, Pitch_bend_c, 3, 12928
1, 14021, Note_off_c, 2, 82, 64
1, 14021, Note_off_c, 9, 42, 64
1, 14022, Pitch_bend_c, 3, 13952
1, 14023, Note_off_c, 2, 80, 64
1, 14023, Note_off_c, 2, 75, 64
1, 14023, Note_off_c, 10, 70, 64
1, 14024, Pitch_bend_c, 3, 14848
1, 14025, Pitch_bend_c, 3, 14976
1, 14031, Pitch_bend_c, 10, 8558
1, 14033, Pitch_bend_c, 10, 9047
1, 14037, Pitch_bend_c, 10, 10025
1, 14040, Note_off_c, 1, 29, 64
1, 14042, Pitch_bend_c, 10, 10759
1, 14044, Pitch_bend_c, 10, 12226
1, 14048, Pitch_bend_c, 10, 12800
1, 14052, Pitch_bend_c, 10, 13440
1, 14056, Pitch_bend_c, 10, 14080
1, 14057, Pitch_bend_c, 3, 8192
1, 14059, Note_on_c, 4, 46, 94
1, 14060, Pitch_bend_c, 10, 14848
1, 14061, Note_on_c, 1, 29, 94
1, 14062, Note_on_c, 2, 75, 79
1, 14062, Note_on_c, 2, 80, 79
1, 14063, Note_on_c, 2, 82, 88
1, 14063, Pitch_bend_c, 5, 8192
1, 14064, Note_on_c, 5, 61, 94
1, 14065, Note_off_c, 2, 82, 64
1, 14065, Note_on_c, 9, 44, 73
1, 14065, Pitch_bend_c, 10, 15360
1, 14067, Note_off_c, 4, 46, 64
1, 14068, Note_off_c, 2, 80, 64
1, 14068, Note_off_c, 9, 44, 64
1, 14069, Note_off_c, 2, 75, 64
1, 14076, Note_off_c, 10, 72, 64
1, 14100, Note_off_c, 1, 29, 64
1, 14100, Pitch_bend_c, 5, 8582
1, 14103, Pitch_bend_c, 5, 8842
1, 14108, Pitch_bend_c, 5, 8972
1, 14110, Note_on_c, 2, 75, 94
1, 14110, Pitch_bend_c, 5, 9492
1, 14111, Note_on_c, 1, 31, 94
1, 14111, Note_on_c, 2, 77, 94
1, 14111, Note_on_c, 2, 80, 94
1, 14111, Pitch_bend_c, 10, 8192
1, 14112, Note_on_c, 2, 82, 94
1, 14113, Note_on_c, 9, 42, 94
1, 14113, Note_on_c, 9, 40, 94
1, 14116, Note_off_c, 2, 82, 64
1, 14116, Note_off_c, 9, 40, 64
1, 14116, Note_off_c, 9, 42, 64
1, 14118, Note_off_c, 2, 80, 64
1, 14118, Pitch_bend_c, 5, 9882
1, 14120, Note_off_c, 2, 77, 64
1, 14121, Note_off_c, 2, 75, 64
1, 14122, Pitch_bend_c, 5, 10142
1, 14125, Pitch_bend_c, 5, 10402
1, 14128, Pitch_bend_c, 5, 10662
1, 14131, Pitch_bend_c, 5, 11312
1, 14135, Pitch_bend_c, 5, 11832
1, 14139, Pitch_bend_c, 5, 12742
1, 14145, Pitch_bend_c, 5, 13262
1, 14149, Pitch_bend_c, 5, 13652
1, 14153, Pitch_bend_c, 5, 10662
1, 14154, Note_off_c, 1, 31, 64
1, 14155, Note_off_c, 5, 61, 64
1, 14156, Pitch_bend_c, 5, 8192
1, 14157, Note_on_c, 5, 58, 85
1, 14159, Note_on_c, 2, 75, 94
1, 14159, Note_on_c, 2, 77, 94
1, 14160, Note_on_c, 1, 33, 94
1, 14160, Note_on_c, 2, 80, 94
1, 14160, Note_on_c, 2, 82, 94
1, 14160, Note_on_c, 4, 46, 94
1, 14162, Note_on_c, 9, 44, 73
1, 14165, Note_off_c, 9, 44, 64
1, 14168, Note_off_c, 4, 46, 64
1, 14177, Note_off_c, 2, 82, 64
1, 14179, Note_off_c, 1, 33, 64
1, 14179, Note_off_c, 2, 77, 64
1, 14179, Note_off_c, 2, 80, 64
1, 14179, Note_off_c, 2, 75, 64
1, 14202, Note_off_c, 2, 41, 64
1, 14205, Note_on_c, 1, 34, 94
1, 14206, Note_on_c, 2, 46, 74
1, 14207, Pitch_bend_c, 3, 489
1, 14208, Note_on_c, 3, 70, 103
1, 14208, Note_on_c, 9, 36, 94
1, 14208, Note_on_c, 9, 42, 94
1, 14208, Note_on_c, 9, 56, 72
1, 14209, Note_on_c, 2, 77, 94
1, 14209, Note_on_c, 2, 80, 94
1, 14210, Note_on_c, 2, 74, 94
1, 14210, Note_on_c, 2, 82, 94
1, 14211, Note_off_c, 9, 56, 64
1, 14211, Note_off_c, 9, 42, 64
1, 14211, Note_off_c, 9, 36, 64
1, 14212, Pitch_bend_c, 3, 1772
1, 14215, Note_off_c, 2, 82, 64
1, 14216, Pitch_bend_c, 3, 3056
1, 14218, Note_off_c, 2, 74, 64
1, 14219, Note_off_c, 2, 80, 64
1, 14220, Pitch_bend_c, 3, 4340
1, 14222, Note_off_c, 2, 77, 64
1, 14224, Pitch_bend_c, 3, 5624
1, 14228, Pitch_bend_c, 3, 6907
1, 14232, Pitch_bend_c, 3, 8192
1, 14234, Control_c, 5, 1, 5
1, 14235, Pitch_bend_c, 10, 489
1, 14236, Note_on_c, 10, 70, 109
1, 14237, Control_c, 5, 1, 13
1, 14240, Pitch_bend_c, 10, 1772
1, 14241, Control_c, 5, 1, 27
1, 14244, Pitch_bend_c, 10, 3056
1, 14248, Pitch_bend_c, 10, 4340
1, 14250, Control_c, 5, 1, 34
1, 14252, Pitch_bend_c, 10, 5624
1, 14255, Control_c, 5, 1, 39
1, 14256, Note_on_c, 2, 80, 94
1, 14256, Note_on_c, 9, 44, 73
1, 14256, Pitch_bend_c, 10, 6907
1, 14257, Note_on_c, 2, 77, 94
1, 14257, Note_on_c, 2, 74, 94
1, 14258, Note_on_c, 2, 82, 96
1, 14258, Note_on_c, 4, 46, 94
1, 14259, Control_c, 5, 1, 48
1, 14259, Note_off_c, 9, 44, 64
1, 14260, Pitch_bend_c, 10, 8192
1, 14262, Note_off_c, 2, 82, 64
1, 14263, Note_off_c, 2, 80, 64
1, 14263, Note_off_c, 2, 74, 64
1, 14265, Note_off_c, 2, 77, 64
1, 14266, Note_off_c, 4, 46, 64
1, 14268, Control_c, 5, 1, 52
1, 14273, Control_c, 5, 1, 55
1, 14279, Control_c, 5, 1, 58
1, 14289, Control_c, 5, 1, 59
1, 14291, Control_c, 5, 1, 60
1, 14295, Control_c, 5, 1, 62
1, 14300, Control_c, 5, 1, 63
1, 14303, Note_on_c, 2, 80, 105
1, 14303, Note_on_c, 9, 42, 94
1, 14304, Note_on_c, 2, 82, 105
1, 14304, Note_on_c, 2, 74, 105
1, 14305, Note_on_c, 2, 77, 105
1, 14305, Control_c, 5, 1, 64
1, 14305, Note_on_c, 9, 40, 94
1, 14306, Note_off_c, 9, 42, 64
1, 14308, Note_off_c, 9, 40, 64
1, 14310, Pitch_bend_c, 5, 6912
1, 14312, Note_off_c, 2, 74, 64
1, 14313, Note_off_c, 2, 80, 64
1, 14313, Note_off_c, 2, 77, 64
1, 14313, Pitch_bend_c, 5, 3840
1, 14314, Note_off_c, 2, 82, 64
1, 14320, Pitch_bend_c, 3, 7424
1, 14320, Pitch_bend_c, 5, 1408
1, 14320, Control_c, 5, 1, 63
1, 14323, Control_c, 5, 1, 55
1, 14324, Pitch_bend_c, 5, 0
1, 14325, Pitch_bend_c, 3, 6912
1, 14327, Pitch_bend_c, 3, 5760
1, 14332, Control_c, 5, 1, 50
1, 14334, Pitch_bend_c, 3, 3840
1, 14336, Control_c, 5, 1, 42
1, 14339, Note_off_c, 5, 58, 64
1, 14341, Pitch_bend_c, 3, 512
1, 14342, Note_off_c, 3, 70, 64
1, 14348, Note_on_c, 4, 46, 94
1, 14349, Pitch_bend_c, 10, 7424
1, 14351, Note_on_c, 2, 77, 79
1, 14352, Note_on_c, 2, 74, 79
1, 14352, Note_on_c, 9, 44, 73
1, 14353, Note_on_c, 2, 80, 79
1, 14353, Note_on_c, 2, 82, 79
1, 14353, Pitch_bend_c, 10, 6912
1, 14355, Note_off_c, 9, 44, 64
1, 14355, Pitch_bend_c, 10, 6528
1, 14356, Note_off_c, 4, 46, 64
1, 14358, Note_off_c, 2, 82, 64
1, 14359, Note_off_c, 2, 80, 64
1, 14359, Pitch_bend_c, 10, 5760
1, 14360, Note_off_c, 2, 74, 64
1, 14362, Note_off_c, 1, 34, 64
1, 14362, Note_off_c, 2, 77, 64
1, 14362, Pitch_bend_c, 10, 4864
1, 14366, Pitch_bend_c, 10, 3840
1, 14369, Pitch_bend_c, 10, 2560
1, 14373, Pitch_bend_c, 10, 512
1, 14387, Note_off_c, 10, 70, 64
1, 14398, Pitch_bend_c, 10, 8192
1, 14399, Note_on_c, 9, 56, 72
1, 14400, Note_on_c, 2, 74, 88
1, 14400, Note_on_c, 2, 77, 88
1, 14400, Note_on_c, 9, 36, 94
1, 14401, Note_on_c, 2, 80, 88
1, 14402, Note_on_c, 2, 82, 88
1, 14402, Note_off_c, 9, 56, 64
1, 14402, Note_on_c, 9, 42, 94
1, 14403, Note_off_c, 9, 36, 64
1, 14405, Note_off_c, 9, 42, 64
1, 14406, Note_on_c, 1, 34, 94
1, 14407, Note_off_c, 2, 80, 64
1, 14408, Note_off_c, 2, 77, 64
1, 14408, Note_off_c, 2, 74, 64
1, 14409, Note_off_c, 2, 82, 64
1, 14420, Note_off_c, 1, 34, 64
1, 14443, Note_on_c, 4, 46, 94
1, 14446, Note_on_c, 2, 77, 94
1, 14447, Note_on_c, 2, 74, 94
1, 14447, Note_on_c, 2, 80, 94
1, 14448, Note_on_c, 1, 34, 94
1, 14448, Note_on_c, 2, 82, 94
1, 14449, Note_on_c, 9, 44, 73
1, 14451, Note_off_c, 4, 46, 64
1, 14452, Note_off_c, 2, 82, 64
1, 14452, Note_off_c, 2, 80, 64
1, 14452, Note_off_c, 9, 44, 64
1, 14455, Note_off_c, 2, 74, 64
1, 14455, Note_off_c, 2, 77, 64
1, 14471, Note_off_c, 1, 34, 64
1, 14495, Note_on_c, 2, 74, 94
1, 14495, Note_on_c, 2, 77, 94
1, 14496, Note_on_c, 1, 33, 94
1, 14496, Note_on_c, 2, 80, 94
1, 14497, Note_on_c, 2, 82, 94
1, 14497, Note_on_c, 9, 42, 94
1, 14497, Note_on_c, 9, 40, 94
1, 14500, Note_off_c, 9, 40, 64
1, 14500, Note_off_c, 9, 42, 64
1, 14503, Note_off_c, 2, 82, 64
1, 14503, Note_off_c, 2, 80, 64
1, 14505, Note_off_c, 2, 77, 64
1, 14506, Note_off_c, 2, 74, 64
1, 14519, Note_off_c, 1, 33, 64
1, 14543, Note_on_c, 2, 77, 94
1, 14543, Note_on_c, 2, 80, 94
1, 14544, Note_on_c, 2, 74, 94
1, 14544, Note_on_c, 3, 65, 91
1, 14544, Note_on_c, 4, 46, 94
1, 14545, Note_on_c, 1, 31, 94
1, 14545, Note_on_c, 2, 82, 94
1, 14546, Note_on_c, 9, 44, 73
1, 14549, Note_off_c, 9, 44, 64
1, 14552, Note_off_c, 4, 46, 64
1, 14554, Note_off_c, 2, 74, 64
1, 14555, Note_off_c, 2, 82, 64
1, 14556, Note_off_c, 2, 80, 64
1, 14558, Note_off_c, 2, 77, 64
1, 14568, Note_off_c, 1, 31, 64
1, 14582, Note_off_c, 3, 65, 64
1, 14588, Note_off_c, 2, 46, 64
1, 14589, Pitch_bend_c, 3, 8192
1, 14590, Note_on_c, 3, 68, 103
1, 14592, Note_on_c, 2, 41, 74
1, 14592, Note_on_c, 2, 75, 94
1, 14592, Note_on_c, 9, 36, 94
1, 14592, Note_on_c, 9, 42, 94
1, 14592, Note_on_c, 9, 56, 72
1, 14593, Note_on_c, 1, 29, 94
1, 14593, Note_on_c, 2, 80, 94
1, 14594, Note_on_c, 2, 82, 88
1, 14595, Note_off_c, 9, 56, 64
1, 14595, Note_off_c, 9, 42, 64
1, 14595, Note_off_c, 9, 36, 64
1, 14598, Note_off_c, 2, 82, 64
1, 14601, Note_off_c, 2, 80, 64
1, 14604, Note_off_c, 2, 75, 64
1, 14618, Note_on_c, 10, 68, 109
1, 14637, Note_on_c, 2, 75, 79
1, 14638, Note_on_c, 2, 80, 79
1, 14640, Note_on_c, 3, 70, 94
1, 14640, Note_on_c, 9, 44, 73
1, 14642, Note_off_c, 2, 80, 64
1, 14642, Note_on_c, 4, 46, 94
1, 14643, Note_off_c, 3, 68, 64
1, 14643, Note_off_c, 9, 44, 64
1, 14645, Note_off_c, 2, 75, 64
1, 14650, Note_off_c, 4, 46, 64
1, 14668, Note_on_c, 10, 70, 100
1, 14685, Note_on_c, 2, 75, 88
1, 14686, Note_on_c, 2, 80, 88
1, 14687, Note_on_c, 2, 82, 88
1, 14687, Note_on_c, 9, 42, 94
1, 14688, Note_on_c, 2, 77, 88
1, 14689, Note_off_c, 2, 77, 64
1, 14689, Note_on_c, 9, 40, 94
1, 14690, Note_off_c, 9, 42, 64
1, 14691, Note_off_c, 2, 82, 64
1, 14692, Note_off_c, 9, 40, 64
1, 14696, Note_off_c, 2, 80, 64
1, 14699, Note_off_c, 2, 75, 64
1, 14700, Note_off_c, 10, 68, 64
1, 14732, Note_on_c, 3, 72, 111
1, 14732, Note_on_c, 4, 46, 94
1, 14733, Note_on_c, 2, 80, 105
1, 14734, Note_on_c, 2, 75, 105
1, 14734, Note_on_c, 2, 82, 105
1, 14734, Note_off_c, 3, 70, 64
1, 14735, Note_on_c, 2, 77, 105
1, 14736, Note_on_c, 9, 44, 73
1, 14739, Note_off_c, 2, 77, 64
1, 14739, Note_off_c, 9, 44, 64
1, 14740, Note_off_c, 4, 46, 64
1, 14742, Note_off_c, 1, 29, 64
1, 14742, Note_off_c, 2, 82, 64
1, 14744, Note_off_c, 2, 75, 64
1, 14746, Note_off_c, 2, 80, 64
1, 14761, Note_on_c, 10, 72, 117
1, 14763, Note_on_c, 1, 29, 94
1, 14770, Note_off_c, 1, 29, 64
1, 14771, Pitch_bend_c, 3, 8314
1, 14772, Pitch_bend_c, 3, 9047
1, 14777, Pitch_bend_c, 3, 9781
1, 14779, Pitch_bend_c, 3, 10025
1, 14780, Control_c, 5, 1, 0
1, 14780, Pitch_bend_c, 5, 8192
1, 14780, Control_c, 6, 1, 0
1, 14781, Note_on_c, 5, 65, 94
1, 14781, Note_on_c, 6, 65, 94
1, 14782, Note_on_c, 2, 75, 71
1, 14782, Pitch_bend_c, 3, 11981
1, 14783, Note_on_c, 2, 80, 70
1, 14783, Note_on_c, 2, 77, 70
1, 14783, Note_on_c, 9, 56, 72
1, 14784, Note_on_c, 2, 82, 79
1, 14784, Note_on_c, 9, 36, 94
1, 14786, Pitch_bend_c, 3, 12960
1, 14786, Note_off_c, 9, 56, 64
1, 14786, Note_on_c, 9, 42, 94
1, 14787, Note_off_c, 2, 77, 64
1, 14787, Note_off_c, 3, 72, 64
1, 14787, Note_off_c, 9, 36, 64
1, 14789, Note_on_c, 1, 29, 94
1, 14789, Note_off_c, 2, 82, 64
1, 14789, Note_off_c, 9, 42, 64
1, 14791, Note_off_c, 2, 80, 64
1, 14791, Note_off_c, 2, 75, 64
1, 14791, Pitch_bend_c, 3, 13696
1, 14791, Note_off_c, 10, 70, 64
1, 14796, Pitch_bend_c, 3, 14208
1, 14799, Pitch_bend_c, 10, 8314
1, 14800, Pitch_bend_c, 10, 9047
1, 14805, Note_off_c, 1, 29, 64
1, 14805, Pitch_bend_c, 10, 9781
1, 14807, Pitch_bend_c, 10, 10025
1, 14810, Pitch_bend_c, 10, 11981
1, 14814, Pitch_bend_c, 10, 12960
1, 14817, Pitch_bend_c, 10, 13568
1, 14820, Pitch_bend_c, 10, 13824
1, 14825, Pitch_bend_c, 10, 14208
1, 14827, Note_on_c, 4, 46, 94
1, 14829, Pitch_bend_c, 5, 8842
1, 14829, Pitch_bend_c, 6, 8842
1, 14830, Note_on_c, 1, 29, 94
1, 14830, Note_on_c, 2, 75, 79
1, 14830, Note_on_c, 2, 80, 79
1, 14831, Note_on_c, 2, 82, 88
1, 14832, Pitch_bend_c, 5, 10792
1, 14832, Pitch_bend_c, 6, 10792
1, 14832, Pitch_bend_c, 10, 14592
1, 14833, Note_off_c, 2, 82, 64
1, 14833, Note_on_c, 9, 44, 73
1, 14835, Note_off_c, 4, 46, 64
1, 14836, Note_off_c, 2, 80, 64
1, 14836, Note_off_c, 9, 44, 64
1, 14837, Note_off_c, 2, 75, 64
1, 14838, Pitch_bend_c, 5, 13912
1, 14838, Pitch_bend_c, 6, 13912
1, 14844, Note_off_c, 10, 72, 64
1, 14845, Pitch_bend_c, 10, 14848
1, 14846, Pitch_bend_c, 5, 16382
1, 14846, Pitch_bend_c, 6, 16382
1, 14861, Note_off_c, 1, 29, 64
1, 14878, Note_on_c, 2, 75, 94
1, 14879, Note_on_c, 1, 31, 94
1, 14879, Note_on_c, 2, 77, 94
1, 14879, Note_on_c, 2, 80, 94
1, 14880, Note_on_c, 2, 82, 94
1, 14880, Pitch_bend_c, 5, 9882
1, 14880, Pitch_bend_c, 6, 9882
1, 14881, Note_on_c, 9, 42, 94
1, 14881, Note_on_c, 9, 40, 94
1, 14882, Pitch_bend_c, 10, 8192
1, 14884, Note_off_c, 2, 82, 64
1, 14884, Note_off_c, 9, 40, 64
1, 14884, Note_off_c, 9, 42, 64
1, 14886, Note_off_c, 2, 80, 64
1, 14887, Pitch_bend_c, 5, 8192
1, 14887, Pitch_bend_c, 6, 8192
1, 14888, Note_off_c, 2, 77, 64
1, 14889, Note_off_c, 2, 75, 64
1, 14910, Note_off_c, 1, 31, 64
1, 14917, Pitch_bend_c, 6, 8582
1, 14919, Pitch_bend_c, 6, 10012
1, 14923, Pitch_bend_c, 6, 11962
1, 14926, Note_on_c, 1, 33, 94
1, 14926, Pitch_bend_c, 6, 13132
1, 14927, Note_on_c, 2, 75, 94
1, 14927, Note_on_c, 2, 77, 94
1, 14928, Note_on_c, 2, 80, 94
1, 14928, Note_on_c, 2, 82, 94
1, 14928, Note_on_c, 4, 46, 94
1, 14929, Pitch_bend_c, 5, 16382
1, 14929, Pitch_bend_c, 6, 16382
1, 14930, Note_on_c, 9, 44, 73
1, 14933, Note_off_c, 9, 44, 64
1, 14936, Note_off_c, 4, 46, 64
1, 14945, Note_off_c, 2, 82, 64
1, 14947, Note_off_c, 2, 77, 64
1, 14947, Note_off_c, 2, 80, 64
1, 14947, Note_off_c, 2, 75, 64
1, 14949, Note_off_c, 1, 33, 64
1, 14968, Note_off_c, 2, 41, 64
1, 14970, Note_on_c, 2, 46, 74
1, 14975, Note_on_c, 1, 34, 94
1, 14975, Pitch_bend_c, 3, 8192
1, 14976, Pitch_bend_c, 3, 489
1, 14976, Note_on_c, 3, 70, 103
1, 14976, Note_on_c, 9, 36, 94
1, 14976, Note_on_c, 9, 42, 94
1, 14976, Note_on_c, 9, 56, 72
1, 14977, Note_on_c, 2, 77, 94
1, 14977, Note_on_c, 2, 80, 94
1, 14978, Note_on_c, 2, 74, 94
1, 14978, Note_on_c, 2, 82, 94
1, 14979, Note_off_c, 9, 56, 64
1, 14979, Note_off_c, 9, 42, 64
1, 14979, Note_off_c, 9, 36, 64
1, 14980, Pitch_bend_c, 3, 1772
1, 14983, Note_off_c, 2, 82, 64
1, 14984, Pitch_bend_c, 3, 3056
1, 14986, Note_off_c, 2, 74, 64
1, 14987, Note_off_c, 2, 80, 64
1, 14988, Pitch_bend_c, 3, 4340
1, 14988, Control_c, 5, 1, 9
1, 14990, Note_off_c, 2, 77, 64
1, 14992, Pitch_bend_c, 3, 5624
1, 14993, Control_c, 5, 1, 16
1, 14996, Pitch_bend_c, 3, 6907
1, 14997, Control_c, 5, 1, 23
1, 15000, Pitch_bend_c, 3, 8192
1, 15002, Control_c, 5, 1, 31
1, 15004, Pitch_bend_c, 10, 489
1, 15004, Note_on_c, 10, 70, 109
1, 15006, Control_c, 5, 1, 38
1, 15008, Pitch_bend_c, 10, 1772
1, 15012, Control_c, 5, 1, 43
1, 15012, Pitch_bend_c, 10, 3056
1, 15015, Control_c, 5, 1, 49
1, 15016, Pitch_bend_c, 10, 4340
1, 15020, Control_c, 5, 1, 54
1, 15020, Pitch_bend_c, 10, 5624
1, 15024, Note_on_c, 2, 80, 94
1, 15024, Note_on_c, 9, 44, 73
1, 15024, Pitch_bend_c, 10, 6907
1, 15025, Note_on_c, 2, 77, 94
1, 15025, Note_on_c, 2, 74, 94
1, 15025, Control_c, 5, 1, 59
1, 15026, Note_on_c, 2, 82, 96
1, 15026, Note_on_c, 4, 46, 94
1, 15027, Note_off_c, 9, 44, 64
1, 15028, Pitch_bend_c, 10, 8192
1, 15029, Control_c, 5, 1, 64
1, 15030, Note_off_c, 2, 82, 64
1, 15031, Note_off_c, 2, 80, 64
1, 15031, Note_off_c, 2, 74, 64
1, 15033, Note_off_c, 2, 77, 64
1, 15034, Note_off_c, 4, 46, 64
1, 15035, Control_c, 5, 1, 71
1, 15043, Control_c, 5, 1, 74
1, 15047, Control_c, 5, 1, 76
1, 15047, Control_c, 6, 1, 76
1, 15053, Control_c, 5, 1, 78
1, 15053, Control_c, 6, 1, 78
1, 15057, Control_c, 5, 1, 80
1, 15057, Control_c, 6, 1, 80
1, 15061, Control_c, 5, 1, 81
1, 15061, Control_c, 6, 1, 81
1, 15065, Control_c, 5, 1, 82
1, 15065, Control_c, 6, 1, 82
1, 15069, Control_c, 5, 1, 83
1, 15069, Control_c, 6, 1, 83
1, 15071, Note_on_c, 2, 80, 105
1, 15071, Note_on_c, 9, 42, 94
1, 15072, Note_on_c, 2, 82, 105
1, 15072, Note_on_c, 2, 74, 105
1, 15073, Note_on_c, 2, 77, 105
1, 15073, Note_on_c, 9, 40, 94
1, 15074, Note_off_c, 9, 42, 64
1, 15076, Note_off_c, 9, 40, 64
1, 15077, Control_c, 5, 1, 84
1, 15077, Control_c, 6, 1, 84
1, 15080, Note_off_c, 2, 74, 64
1, 15081, Note_off_c, 2, 80, 64
1, 15081, Note_off_c, 2, 77, 64
1, 15082, Note_off_c, 2, 82, 64
1, 15088, Pitch_bend_c, 3, 7680
1, 15091, Pitch_bend_c, 3, 7168
1, 15094, Pitch_bend_c, 3, 6528
1, 15098, Pitch_bend_c, 3, 6144
1, 15100, Control_c, 5, 1, 86
1, 15101, Pitch_bend_c, 3, 5248
1, 15105, Pitch_bend_c, 3, 4224
1, 15105, Control_c, 5, 1, 87
1, 15108, Pitch_bend_c, 3, 3072
1, 15110, Note_off_c, 3, 70, 64
1, 15110, Control_c, 5, 1, 89
1, 15116, Note_on_c, 4, 46, 94
1, 15116, Control_c, 5, 1, 90
1, 15117, Pitch_bend_c, 10, 7680
1, 15119, Note_on_c, 2, 77, 79
1, 15119, Pitch_bend_c, 10, 7168
1, 15120, Note_on_c, 2, 74, 79
1, 15120, Note_on_c, 9, 44, 73
1, 15121, Note_on_c, 2, 80, 79
1, 15121, Note_on_c, 2, 82, 79
1, 15122, Control_c, 5, 1, 91
1, 15122, Pitch_bend_c, 10, 6528
1, 15123, Note_off_c, 9, 44, 64
1, 15124, Note_off_c, 4, 46, 64
1, 15126, Note_off_c, 1, 34, 64
1, 15126, Note_off_c, 2, 82, 64
1, 15127, Note_off_c, 2, 80, 64
1, 15127, Pitch_bend_c, 10, 6144
1, 15128, Note_off_c, 2, 74, 64
1, 15129, Pitch_bend_c, 10, 5248
1, 15130, Note_off_c, 2, 77, 64
1, 15133, Pitch_bend_c, 10, 4224
1, 15136, Pitch_bend_c, 10, 3072
1, 15140, Pitch_bend_c, 10, 1024
1, 15145, Control_c, 5, 1, 92
1, 15147, Note_on_c, 1, 34, 72
1, 15147, Note_off_c, 10, 70, 64
1, 15151, Control_c, 5, 1, 93
1, 15154, Note_off_c, 1, 34, 64
1, 15157, Control_c, 5, 1, 95
1, 15162, Pitch_bend_c, 10, 8192
1, 15167, Note_on_c, 9, 56, 72
1, 15168, Note_on_c, 2, 74, 88
1, 15168, Note_on_c, 2, 77, 88
1, 15168, Note_on_c, 9, 36, 94
1, 15169, Note_on_c, 2, 80, 88
1, 15170, Note_on_c, 2, 82, 88
1, 15170, Note_off_c, 9, 56, 64
1, 15170, Note_on_c, 9, 42, 94
1, 15171, Note_off_c, 9, 36, 64
1, 15173, Note_off_c, 9, 42, 64
1, 15175, Note_off_c, 2, 80, 64
1, 15176, Note_on_c, 1, 34, 94
1, 15176, Note_off_c, 2, 77, 64
1, 15176, Note_off_c, 2, 74, 64
1, 15177, Note_off_c, 2, 82, 64
1, 15192, Note_off_c, 1, 34, 64
1, 15211, Note_on_c, 4, 46, 94
1, 15214, Note_on_c, 2, 77, 94
1, 15215, Note_on_c, 2, 74, 94
1, 15215, Note_on_c, 2, 80, 94
1, 15216, Note_on_c, 2, 82, 94
1, 15217, Note_on_c, 1, 34, 94
1, 15217, Note_on_c, 9, 44, 73
1, 15219, Note_off_c, 4, 46, 64
1, 15220, Note_off_c, 2, 82, 64
1, 15220, Note_off_c, 2, 80, 64
1, 15220, Note_off_c, 9, 44, 64
1, 15223, Note_off_c, 2, 74, 64
1, 15223, Note_off_c, 2, 77, 64
1, 15234, Pitch_bend_c, 5, 16122
1, 15234, Pitch_bend_c, 6, 16122
1, 15237, Pitch_bend_c, 5, 15082
1, 15237, Pitch_bend_c, 6, 15082
1, 15240, Note_off_c, 1, 34, 64
1, 15244, Pitch_bend_c, 5, 14172
1, 15244, Pitch_bend_c, 6, 14172
1, 15248, Pitch_bend_c, 5, 13262
1, 15248, Pitch_bend_c, 6, 13262
1, 15252, Pitch_bend_c, 5, 12222
1, 15252, Pitch_bend_c, 6, 12222
1, 15256, Pitch_bend_c, 5, 11832
1, 15256, Pitch_bend_c, 6, 11832
1, 15258, Pitch_bend_c, 5, 10532
1, 15258, Pitch_bend_c, 6, 10532
1, 15260, Note_off_c, 5, 65, 64
1, 15260, Note_off_c, 6, 65, 64
1, 15263, Note_on_c, 1, 33, 94
1, 15263, Note_on_c, 2, 74, 94
1, 15263, Note_on_c, 2, 77, 94
1, 15264, Note_on_c, 2, 80, 94
1, 15265, Note_on_c, 2, 82, 94
1, 15265, Note_on_c, 9, 42, 94
1, 15265, Note_on_c, 9, 40, 94
1, 15268, Note_off_c, 9, 40, 64
1, 15268, Note_off_c, 9, 42, 64
1, 15271, Note_off_c, 2, 82, 64
1, 15271, Note_off_c, 2, 80, 64
1, 15273, Note_off_c, 2, 77, 64
1, 15274, Note_off_c, 2, 74, 64
1, 15294, Note_off_c, 1, 33, 64
1, 15311, Note_on_c, 2, 77, 94
1, 15311, Note_on_c, 2, 80, 94
1, 15312, Note_on_c, 1, 31, 94
1, 15312, Note_on_c, 2, 74, 94
1, 15312, Note_on_c, 4, 46, 94
1, 15313, Note_on_c, 2, 82, 94
1, 15314, Note_on_c, 9, 44, 73
1, 15317, Note_off_c, 9, 44, 64
1, 15320, Note_off_c, 4, 46, 64
1, 15322, Note_off_c, 2, 74, 64
1, 15323, Note_off_c, 2, 82, 64
1, 15324, Note_off_c, 2, 80, 64
1, 15326, Note_off_c, 2, 77, 64
1, 15335, Note_off_c, 1, 31, 64
1, 15344, Pitch_bend_c, 5, 8192
1, 15358, Note_on_c, 1, 29, 94
1, 15358, Note_off_c, 2, 46, 64
1, 15358, Pitch_bend_c, 3, 8192
1, 15359, Note_on_c, 3, 68, 103
1, 15360, Note_on_c, 2, 75, 94
1, 15360, Note_on_c, 9, 36, 94
1, 15360, Note_on_c, 9, 42, 94
1, 15360, Note_on_c, 9, 56, 72
1, 15361, Note_on_c, 2, 80, 94
1, 15361, Note_on_c, 2, 41, 74
1, 15362, Note_on_c, 2, 82, 88
1, 15363, Note_off_c, 9, 56, 64
1, 15363, Note_off_c, 9, 42, 64
1, 15363, Note_off_c, 9, 36, 64
1, 15366, Note_off_c, 2, 82, 64
1, 15369, Note_off_c, 2, 80, 64
1, 15372, Note_off_c, 2, 75, 64
1, 15388, Note_on_c, 10, 68, 109
1, 15405, Note_on_c, 2, 75, 79
1, 15406, Note_on_c, 2, 80, 79
1, 15408, Note_on_c, 3, 70, 94
1, 15408, Note_on_c, 9, 44, 73
1, 15410, Note_off_c, 2, 80, 64
1, 15410, Note_on_c, 4, 46, 94
1, 15411, Note_off_c, 9, 44, 64
1, 15412, Note_off_c, 3, 68, 64
1, 15413, Note_off_c, 2, 75, 64
1, 15418, Note_off_c, 4, 46, 64
1, 15436, Note_on_c, 10, 70, 100
1, 15453, Note_on_c, 2, 75, 88
1, 15454, Note_on_c, 2, 80, 88
1, 15455, Note_on_c, 2, 82, 88
1, 15455, Note_on_c, 9, 42, 94
1, 15456, Note_on_c, 2, 77, 88
1, 15457, Note_off_c, 2, 77, 64
1, 15457, Note_on_c, 9, 40, 94
1, 15458, Note_off_c, 9, 42, 64
1, 15459, Note_off_c, 2, 82, 64
1, 15460, Note_off_c, 9, 40, 64
1, 15464, Note_off_c, 2, 80, 64
1, 15467, Note_off_c, 2, 75, 64
1, 15469, Note_off_c, 10, 68, 64
1, 15500, Note_on_c, 4, 46, 94
1, 15501, Note_on_c, 2, 80, 105
1, 15502, Note_on_c, 2, 75, 105
1, 15502, Note_on_c, 2, 82, 105
1, 15502, Note_off_c, 3, 70, 64
1, 15503, Note_on_c, 2, 77, 105
1, 15503, Note_on_c, 3, 72, 111
1, 15504, Note_on_c, 9, 44, 73
1, 15507, Note_off_c, 2, 77, 64
1, 15507, Note_off_c, 9, 44, 64
1, 15508, Note_off_c, 1, 29, 64
1, 15508, Note_off_c, 4, 46, 64
1, 15510, Note_off_c, 2, 82, 64
1, 15512, Note_off_c, 2, 75, 64
1, 15514, Note_off_c, 2, 80, 64
1, 15531, Note_on_c, 10, 72, 117
1, 15532, Note_on_c, 1, 29, 94
1, 15539, Note_off_c, 1, 29, 64
1, 15539, Pitch_bend_c, 3, 8803
1, 15542, Pitch_bend_c, 3, 9047
1, 15545, Pitch_bend_c, 3, 10025
1, 15550, Note_on_c, 2, 75, 71
1, 15550, Pitch_bend_c, 3, 10759
1, 15551, Note_on_c, 2, 80, 70
1, 15551, Note_on_c, 2, 77, 70
1, 15551, Note_on_c, 9, 56, 72
1, 15552, Note_on_c, 1, 29, 94
1, 15552, Note_on_c, 2, 82, 79
1, 15552, Pitch_bend_c, 3, 12471
1, 15552, Note_on_c, 9, 36, 94
1, 15554, Note_off_c, 9, 56, 64
1, 15554, Note_on_c, 9, 42, 94
1, 15555, Note_off_c, 2, 77, 64
1, 15555, Note_off_c, 9, 36, 64
1, 15556, Pitch_bend_c, 3, 13184
1, 15557, Note_off_c, 2, 82, 64
1, 15557, Note_off_c, 9, 42, 64
1, 15558, Note_off_c, 3, 72, 64
1, 15559, Note_off_c, 2, 80, 64
1, 15559, Note_off_c, 2, 75, 64
1, 15559, Note_off_c, 10, 70, 64
1, 15564, Pitch_bend_c, 3, 14208
1, 15567, Pitch_bend_c, 10, 8803
1, 15570, Pitch_bend_c, 10, 9047
1, 15572, Pitch_bend_c, 3, 14464
1, 15573, Pitch_bend_c, 10, 10025
1, 15578, Pitch_bend_c, 10, 10759
1, 15580, Pitch_bend_c, 10, 12471
1, 15584, Pitch_bend_c, 10, 13056
1, 15588, Pitch_bend_c, 10, 13824
1, 15591, Note_off_c, 1, 29, 64
1, 15593, Pitch_bend_c, 3, 8192
1, 15595, Note_on_c, 4, 46, 94
1, 15595, Pitch_bend_c, 10, 14336
1, 15598, Note_on_c, 2, 75, 79
1, 15598, Note_on_c, 2, 80, 79
1, 15599, Note_on_c, 2, 82, 88
1, 15601, Note_on_c, 1, 29, 94
1, 15601, Note_off_c, 2, 82, 64
1, 15601, Note_on_c, 9, 44, 73
1, 15603, Note_off_c, 4, 46, 64
1, 15603, Pitch_bend_c, 10, 14592
1, 15604, Note_off_c, 2, 80, 64
1, 15604, Note_off_c, 9, 44, 64
1, 15605, Note_off_c, 2, 75, 64
1, 15613, Pitch_bend_c, 10, 14848
1, 15615, Note_off_c, 10, 72, 64
1, 15622, Pitch_bend_c, 10, 14464
1, 15631, Pitch_bend_c, 10, 13824
1, 15632, Note_off_c, 1, 29, 64
1, 15646, Pitch_bend_c, 1, 0
1, 15646, Note_on_c, 2, 75, 94
1, 15647, Note_on_c, 1, 35, 94
1, 15647, Note_on_c, 2, 77, 94
1, 15647, Note_on_c, 2, 80, 94
1, 15648, Note_on_c, 2, 82, 94
1, 15649, Note_on_c, 9, 42, 94
1, 15649, Note_on_c, 9, 40, 94
1, 15652, Pitch_bend_c, 1, 4096
1, 15652, Note_off_c, 2, 82, 64
1, 15652, Note_off_c, 9, 40, 64
1, 15652, Note_off_c, 9, 42, 64
1, 15654, Note_off_c, 2, 80, 64
1, 15656, Note_off_c, 2, 77, 64
1, 15656, Pitch_bend_c, 10, 8192
1, 15657, Pitch_bend_c, 1, 8192
1, 15657, Note_off_c, 2, 75, 64
1, 15664, Pitch_bend_c, 1, 12288
1, 15671, Pitch_bend_c, 1, 16383
1, 15684, Pitch_bend_c, 1, 12288
1, 15693, Pitch_bend_c, 1, 8192
1, 15695, Note_on_c, 2, 75, 94
1, 15695, Note_on_c, 2, 77, 94
1, 15696, Note_on_c, 2, 80, 94
1, 15696, Note_on_c, 2, 82, 94
1, 15696, Note_on_c, 4, 46, 94
1, 15698, Note_on_c, 9, 44, 73
1, 15701, Pitch_bend_c, 1, 4096
1, 15701, Note_off_c, 9, 44, 64
1, 15704, Note_off_c, 4, 46, 64
1, 15708, Pitch_bend_c, 1, 0
1, 15713, Note_off_c, 2, 82, 64
1, 15715, Note_off_c, 2, 77, 64
1, 15715, Note_off_c, 2, 80, 64
1, 15715, Note_off_c, 2, 75, 64
1, 15726, Note_off_c, 1, 35, 64
1, 15739, Note_on_c, 2, 51, 74
1, 15740, Note_off_c, 2, 41, 64
1, 15743, Pitch_bend_c, 1, 8192
1, 15744, Note_on_c, 1, 39, 94
1, 15744, Note_on_c, 2, 73, 94
1, 15744, Note_on_c, 2, 77, 94
1, 15744, Note_on_c, 2, 79, 94
1, 15744, Note_on_c, 2, 82, 94
1, 15744, Note_on_c, 3, 70, 103
1, 15744, Note_on_c, 9, 36, 108
1, 15744, Note_on_c, 9, 57, 108
1, 15744, Note_on_c, 9, 56, 72
1, 15747, Note_off_c, 9, 56, 64
1, 15747, Note_off_c, 9, 57, 64
1, 15747, Note_off_c, 9, 36, 64
1, 15772, Note_on_c, 10, 70, 109
1, 15792, Note_on_c, 9, 44, 73
1, 15794, Note_on_c, 4, 46, 94
1, 15795, Note_off_c, 9, 44, 64
1, 15802, Note_off_c, 4, 46, 64
1, 15839, Note_on_c, 9, 42, 94
1, 15841, Note_on_c, 9, 40, 94
1, 15842, Note_off_c, 9, 42, 64
1, 15844, Note_off_c, 9, 40, 64
1, 15882, Pitch_bend_c, 10, 7808
1, 15884, Note_on_c, 4, 46, 94
1, 15885, Pitch_bend_c, 3, 0
1, 15886, Pitch_bend_c, 10, 6912
1, 15887, Note_on_c, 3, 73, 103
1, 15888, Note_off_c, 3, 70, 64
1, 15888, Note_on_c, 9, 44, 73
1, 15890, Pitch_bend_c, 10, 5888
1, 15891, Note_off_c, 9, 44, 64
1, 15892, Note_off_c, 4, 46, 64
1, 15894, Pitch_bend_c, 10, 4608
1, 15897, Pitch_bend_c, 10, 3712
1, 15898, Pitch_bend_c, 1, 4096
1, 15900, Pitch_bend_c, 10, 2816
1, 15903, Pitch_bend_c, 10, 1792
1, 15904, Pitch_bend_c, 3, 5248
1, 15906, Pitch_bend_c, 10, 1024
1, 15908, Pitch_bend_c, 1, 0
1, 15909, Pitch_bend_c, 10, 512
1, 15910, Pitch_bend_c, 3, 8192
1, 15911, Note_off_c, 10, 70, 64
1, 15913, Pitch_bend_c, 10, 0
1, 15915, Pitch_bend_c, 10, 8192
1, 15916, Note_on_c, 10, 73, 109
1, 15919, Note_off_c, 1, 39, 64
1, 15921, Pitch_bend_c, 1, 8192
1, 15922, Note_on_c, 1, 31, 94
1, 15922, Note_off_c, 2, 77, 64
1, 15923, Note_off_c, 2, 79, 64
1, 15923, Note_off_c, 2, 82, 64
1, 15924, Note_off_c, 2, 73, 64
1, 15927, Note_off_c, 2, 51, 64
1, 15929, Note_off_c, 1, 31, 64
1, 15931, Note_on_c, 2, 43, 74
1, 15933, Note_on_c, 2, 77, 94
1, 15934, Note_on_c, 2, 82, 94
1, 15934, Note_on_c, 3, 72, 103
1, 15935, Note_on_c, 2, 74, 94
1, 15935, Note_on_c, 9, 56, 72
1, 15936, Note_on_c, 2, 79, 94
1, 15936, Note_on_c, 9, 36, 94
1, 15936, Note_on_c, 9, 49, 94
1, 15938, Note_on_c, 1, 31, 94
1, 15938, Note_off_c, 9, 56, 64
1, 15939, Note_off_c, 3, 73, 64
1, 15939, Note_off_c, 9, 49, 64
1, 15939, Note_off_c, 9, 36, 64
1, 15963, Note_on_c, 10, 72, 109
1, 15979, Note_on_c, 4, 46, 94
1, 15980, Note_off_c, 3, 72, 64
1, 15983, Note_on_c, 3, 70, 103
1, 15985, Note_on_c, 9, 44, 73
1, 15986, Note_on_c, 2, 67, 96
1, 15987, Note_off_c, 4, 46, 64
1, 15988, Note_off_c, 9, 44, 64
1, 15996, Note_off_c, 10, 73, 64
1, 16012, Note_off_c, 2, 77, 64
1, 16012, Note_on_c, 10, 70, 109
1, 16033, Note_off_c, 2, 79, 64
1, 16033, Note_off_c, 2, 74, 64
1, 16033, Note_off_c, 2, 82, 64
1, 16033, Note_on_c, 9, 42, 94
1, 16033, Note_on_c, 9, 40, 94
1, 16036, Note_off_c, 3, 70, 64
1, 16036, Note_off_c, 9, 40, 64
1, 16036, Note_off_c, 9, 42, 64
1, 16037, Note_off_c, 10, 72, 64
1, 16040, Note_off_c, 2, 67, 64
1, 16076, Note_off_c, 1, 31, 64
1, 16078, Note_off_c, 2, 43, 64
1, 16078, Note_on_c, 2, 70, 96
1, 16079, Note_on_c, 2, 46, 74
1, 16080, Note_on_c, 2, 74, 96
1, 16080, Note_on_c, 2, 77, 96
1, 16080, Note_on_c, 3, 65, 103
1, 16080, Note_on_c, 4, 46, 94
1, 16080, Note_on_c, 9, 36, 94
1, 16080, Note_on_c, 9, 52, 94
1, 16080, Note_on_c, 9, 55, 94
1, 16081, Note_on_c, 1, 34, 94
1, 16083, Note_off_c, 9, 55, 64
1, 16083, Note_off_c, 9, 52, 64
1, 16083, Note_off_c, 9, 36, 64
1, 16088, Note_off_c, 4, 46, 64
1, 16093, Note_off_c, 10, 70, 64
1, 16109, Note_on_c, 10, 65, 109
1, 16128, Note_on_c, 9, 42, 94
1, 16128, Note_on_c, 9, 56, 72
1, 16131, Note_off_c, 9, 56, 64
1, 16131, Note_off_c, 9, 42, 64
1, 16163, Pitch_bend_c, 3, 7168
1, 16168, Pitch_bend_c, 3, 5120
1, 16176, Pitch_bend_c, 3, 3456
1, 16176, Note_on_c, 9, 44, 73
1, 16178, Note_on_c, 4, 50, 94
1, 16179, Note_on_c, 4, 56, 94
1, 16179, Note_off_c, 9, 44, 64
1, 16182, Pitch_bend_c, 3, 2304
1, 16186, Pitch_bend_c, 3, 1280
1, 16186, Note_off_c, 4, 50, 64
1, 16187, Note_off_c, 4, 56, 64
1, 16189, Pitch_bend_c, 3, 0
1, 16192, Pitch_bend_c, 10, 7936
1, 16193, Pitch_bend_c, 10, 7168
1, 16197, Pitch_bend_c, 10, 6272
1, 16200, Pitch_bend_c, 10, 5120
1, 16204, Pitch_bend_c, 10, 4480
1, 16207, Pitch_bend_c, 10, 3456
1, 16210, Pitch_bend_c, 10, 2304
1, 16214, Note_off_c, 3, 65, 64
1, 16214, Pitch_bend_c, 10, 1280
1, 16217, Pitch_bend_c, 10, 128
1, 16221, Pitch_bend_c, 10, 0
1, 16223, Note_on_c, 9, 42, 94
1, 16224, Note_off_c, 10, 65, 64
1, 16225, Note_on_c, 9, 40, 94
1, 16226, Note_off_c, 9, 42, 64
1, 16228, Note_off_c, 9, 40, 64
1, 16268, Note_on_c, 4, 50, 94
1, 16269, Note_on_c, 4, 56, 94
1, 16272, Note_on_c, 9, 44, 73
1, 16275, Note_off_c, 9, 44, 64
1, 16276, Note_off_c, 4, 50, 64
1, 16277, Note_off_c, 4, 56, 64
1, 16304, Pitch_bend_c, 10, 8192
1, 16319, Note_on_c, 9, 56, 72
1, 16320, Note_on_c, 9, 36, 94
1, 16322, Note_off_c, 9, 56, 64
1, 16322, Note_on_c, 9, 42, 94
1, 16323, Note_off_c, 9, 36, 64
1, 16325, Note_off_c, 9, 42, 64
1, 16331, Note_off_c, 2, 46, 64
1, 16363, Note_on_c, 4, 50, 94
1, 16364, Pitch_bend_c, 3, 8192
1, 16364, Note_on_c, 4, 56, 94
1, 16365, Note_on_c, 3, 65, 82
1, 16367, Note_on_c, 2, 50, 60
1, 16369, Note_on_c, 9, 44, 73
1, 16370, Note_on_c, 2, 52, 61
1, 16371, Note_off_c, 2, 50, 64
1, 16371, Note_off_c, 4, 50, 64
1, 16372, Note_off_c, 4, 56, 64
1, 16372, Note_off_c, 9, 44, 64
1, 16374, Note_off_c, 2, 52, 64
1, 16376, Note_on_c, 2, 53, 63
1, 16380, Note_off_c, 2, 53, 64
1, 16381, Note_on_c, 2, 55, 65
1, 16385, Note_off_c, 2, 55, 64
1, 16387, Note_on_c, 2, 57, 68
1, 16391, Note_off_c, 2, 57, 64
1, 16392, Note_off_c, 1, 34, 64
1, 16392, Note_on_c, 2, 59, 70
1, 16394, Note_on_c, 10, 65, 88
1, 16396, Note_off_c, 2, 59, 64
1, 16397, Note_on_c, 2, 60, 72
1, 16401, Note_off_c, 2, 60, 64
1, 16401, Note_on_c, 2, 62, 73
1, 16404, Note_on_c, 2, 64, 75
1, 16405, Note_off_c, 2, 62, 64
1, 16407, Note_on_c, 2, 65, 76
1, 16408, Note_off_c, 2, 64, 64
1, 16411, Note_off_c, 2, 65, 64
1, 16412, Note_on_c, 2, 67, 78
1, 16412, Note_on_c, 3, 68, 103
1, 16414, Note_off_c, 3, 65, 64
1, 16416, Note_on_c, 1, 32, 94
1, 16416, Note_off_c, 2, 67, 64
1, 16417, Note_on_c, 9, 42, 94
1, 16417, Note_on_c, 9, 40, 94
1, 16420, Note_off_c, 9, 40, 64
1, 16420, Note_off_c, 9, 42, 64
1, 16421, Note_off_c, 2, 77, 64
1, 16422, Note_off_c, 2, 74, 64
1, 16422, Note_off_c, 2, 70, 64
1, 16425, Note_on_c, 2, 88, 83
1, 16426, Note_on_c, 2, 89, 84
1, 16429, Note_off_c, 2, 88, 64
1, 16430, Note_off_c, 2, 89, 64
1, 16431, Note_on_c, 2, 86, 86
1, 16435, Note_off_c, 2, 86, 64
1, 16436, Note_on_c, 2, 84, 88
1, 16440, Note_off_c, 2, 84, 64
1, 16440, Note_on_c, 10, 68, 109
1, 16441, Note_on_c, 2, 83, 93
1, 16444, Note_on_c, 2, 81, 91
1, 16445, Note_off_c, 2, 83, 64
1, 16445, Note_off_c, 3, 68, 64
1, 16448, Note_off_c, 2, 81, 64
1, 16448, Note_on_c, 2, 79, 89
1, 16450, Pitch_bend_c, 1, 7424
1, 16452, Pitch_bend_c, 1, 6784
1, 16452, Note_off_c, 2, 79, 64
1, 16452, Note_on_c, 2, 77, 88
1, 16456, Pitch_bend_c, 1, 5760
1, 16456, Note_off_c, 2, 77, 64
1, 16459, Pitch_bend_c, 1, 4480
1, 16459, Note_on_c, 2, 76, 84
1, 16459, Note_on_c, 3, 70, 117
1, 16461, Pitch_bend_c, 1, 2944
1, 16463, Note_off_c, 2, 76, 64
1, 16464, Pitch_bend_c, 1, 1152
1, 16464, Note_on_c, 4, 56, 94
1, 16464, Note_on_c, 4, 50, 94
1, 16464, Note_on_c, 9, 46, 81
1, 16465, Note_on_c, 2, 74, 81
1, 16466, Pitch_bend_c, 1, 256
1, 16467, Note_off_c, 9, 46, 64
1, 16469, Note_off_c, 2, 74, 64
1, 16471, Note_on_c, 2, 72, 79
1, 16471, Note_off_c, 10, 65, 64
1, 16472, Note_off_c, 4, 50, 64
1, 16472, Note_off_c, 4, 56, 64
1, 16475, Note_off_c, 2, 72, 64
1, 16478, Note_on_c, 2, 71, 75
1, 16482, Note_off_c, 2, 71, 64
1, 16484, Note_on_c, 2, 69, 73
1, 16488, Note_off_c, 2, 69, 64
1, 16488, Note_on_c, 10, 70, 123
1, 16490, Note_on_c, 2, 67, 70
1, 16491, Pitch_bend_c, 1, 8192
1, 16494, Note_off_c, 2, 67, 64
1, 16495, Note_off_c, 1, 32, 64
1, 16496, Note_on_c, 2, 65, 67
1, 16500, Note_off_c, 2, 65, 64
1, 16501, Note_off_c, 3, 70, 64
1, 16502, Note_off_c, 10, 68, 64
1, 16503, Note_on_c, 2, 64, 64
1, 16507, Note_off_c, 2, 64, 64
1, 16508, Note_on_c, 2, 62, 61
1, 16512, Note_on_c, 1, 34, 94
1, 16512, Note_off_c, 2, 62, 64
1, 16512, Note_on_c, 4, 58, 94
1, 16512, Note_on_c, 4, 53, 94
1, 16512, Note_on_c, 9, 36, 94
1, 16512, Note_on_c, 9, 42, 94
1, 16512, Note_on_c, 9, 56, 72
1, 16514, Note_on_c, 2, 46, 74
1, 16515, Note_off_c, 9, 56, 64
1, 16515, Note_off_c, 9, 42, 64
1, 16515, Note_off_c, 9, 36, 64
1, 16520, Note_off_c, 4, 53, 64
1, 16520, Note_off_c, 4, 58, 64
1, 16558, Note_off_c, 10, 70, 64
1, 16560, Note_on_c, 9, 44, 73
1, 16562, Note_on_c, 4, 58, 94
1, 16562, Note_on_c, 4, 53, 94
1, 16563, Note_off_c, 9, 44, 64
1, 16570, Note_off_c, 4, 53, 64
1, 16570, Note_off_c, 4, 58, 64
1, 16575, Note_off_c, 1, 34, 64
1, 16606, Control_c, 5, 1, 0
1, 16607, Note_on_c, 1, 44, 100
1, 16607, Note_on_c, 4, 58, 94
1, 16607, Note_on_c, 4, 53, 94
1, 16607, Note_on_c, 5, 73, 94
1, 16607, Note_on_c, 9, 42, 94
1, 16609, Note_on_c, 9, 40, 94
1, 16610, Note_off_c, 9, 42, 64
1, 16612, Note_off_c, 9, 40, 64
1, 16615, Note_off_c, 4, 53, 64
1, 16615, Note_off_c, 4, 58, 64
1, 16646, Note_off_c, 1, 44, 64
1, 16652, Note_on_c, 4, 58, 94
1, 16652, Note_on_c, 4, 53, 94
1, 16656, Note_on_c, 9, 44, 73
1, 16659, Note_off_c, 9, 44, 64
1, 16660, Note_on_c, 1, 34, 89
1, 16660, Note_off_c, 4, 53, 64
1, 16660, Note_off_c, 4, 58, 64
1, 16661, Pitch_bend_c, 5, 8452
1, 16662, Pitch_bend_c, 5, 8712
1, 16666, Pitch_bend_c, 5, 9362
1, 16672, Pitch_bend_c, 5, 9752
1, 16675, Note_off_c, 1, 34, 64
1, 16676, Pitch_bend_c, 5, 10272
1, 16680, Pitch_bend_c, 5, 11182
1, 16686, Pitch_bend_c, 5, 11962
1, 16690, Pitch_bend_c, 5, 12612
1, 16693, Pitch_bend_c, 5, 13522
1, 16698, Pitch_bend_c, 5, 13912
1, 16700, Pitch_bend_c, 5, 14562
1, 16703, Note_on_c, 1, 44, 100
1, 16703, Note_on_c, 4, 58, 94
1, 16703, Note_on_c, 4, 53, 94
1, 16703, Note_on_c, 9, 56, 72
1, 16704, Pitch_bend_c, 5, 15342
1, 16704, Note_on_c, 9, 36, 94
1, 16706, Note_off_c, 5, 73, 64
1, 16706, Note_off_c, 9, 56, 64
1, 16706, Note_on_c, 9, 42, 94
1, 16707, Note_off_c, 9, 36, 64
1, 16708, Note_on_c, 5, 70, 94
1, 16709, Note_off_c, 9, 42, 64
1, 16710, Pitch_bend_c, 5, 10272
1, 16711, Note_off_c, 4, 53, 64
1, 16711, Note_off_c, 4, 58, 64
1, 16712, Pitch_bend_c, 5, 8192
1, 16718, Pitch_bend_c, 1, 16383
1, 16742, Note_off_c, 1, 44, 64
1, 16751, Pitch_bend_c, 1, 8192
1, 16752, Note_on_c, 1, 34, 88
1, 16753, Note_on_c, 4, 53, 94
1, 16753, Note_on_c, 9, 44, 73
1, 16754, Note_on_c, 4, 58, 94
1, 16756, Note_off_c, 9, 44, 64
1, 16761, Note_off_c, 4, 53, 64
1, 16762, Note_off_c, 4, 58, 64
1, 16767, Note_off_c, 1, 34, 64
1, 16800, Note_on_c, 4, 56, 74
1, 16801, Note_on_c, 4, 61, 75
1, 16801, Note_on_c, 9, 42, 94
1, 16801, Note_on_c, 9, 40, 94
1, 16804, Note_off_c, 9, 40, 64
1, 16804, Note_off_c, 9, 42, 64
1, 16808, Note_off_c, 4, 56, 64
1, 16809, Note_off_c, 4, 61, 64
1, 16836, Pitch_bend_c, 5, 7936
1, 16840, Pitch_bend_c, 5, 7552
1, 16848, Note_on_c, 1, 39, 100
1, 16848, Note_on_c, 4, 58, 90
1, 16848, Note_on_c, 4, 63, 90
1, 16850, Pitch_bend_c, 5, 7296
1, 16850, Note_on_c, 9, 44, 73
1, 16851, Pitch_bend_c, 5, 7040
1, 16853, Note_off_c, 9, 44, 64
1, 16855, Pitch_bend_c, 5, 6528
1, 16856, Note_off_c, 4, 63, 64
1, 16856, Note_off_c, 4, 58, 64
1, 16861, Pitch_bend_c, 5, 6144
1, 16865, Pitch_bend_c, 5, 5632
1, 16869, Pitch_bend_c, 5, 4992
1, 16872, Pitch_bend_c, 5, 4401
1, 16875, Pitch_bend_c, 5, 3178
1, 16885, Note_off_c, 5, 70, 64
1, 16893, Note_on_c, 3, 68, 117
1, 16896, Note_on_c, 4, 58, 54
1, 16896, Note_on_c, 4, 63, 54
1, 16896, Note_on_c, 9, 36, 94
1, 16896, Note_on_c, 9, 42, 94
1, 16896, Note_on_c, 9, 56, 72
1, 16899, Note_off_c, 9, 56, 64
1, 16899, Note_off_c, 9, 42, 64
1, 16899, Note_off_c, 9, 36, 64
1, 16900, Note_off_c, 2, 46, 64
1, 16900, Note_on_c, 2, 39, 74
1, 16904, Note_off_c, 4, 63, 64
1, 16904, Note_off_c, 4, 58, 64
1, 16910, Note_off_c, 3, 68, 64
1, 16919, Note_off_c, 1, 39, 64
1, 16922, Note_on_c, 10, 68, 123
1, 16926, Pitch_bend_c, 5, 8192
1, 16941, Note_on_c, 1, 39, 100
1, 16941, Note_on_c, 3, 68, 82
1, 16944, Note_on_c, 4, 58, 98
1, 16944, Note_on_c, 4, 63, 98
1, 16944, Note_on_c, 9, 44, 73
1, 16947, Note_off_c, 9, 44, 64
1, 16952, Note_off_c, 4, 63, 64
1, 16952, Note_off_c, 4, 58, 64
1, 16953, Note_off_c, 3, 68, 64
1, 16967, Note_off_c, 10, 68, 64
1, 16969, Note_on_c, 10, 68, 88
1, 16980, Note_off_c, 1, 39, 64
1, 16987, Note_on_c, 3, 68, 117
1, 16991, Note_on_c, 1, 49, 100
1, 16991, Note_on_c, 9, 42, 94
1, 16992, Note_on_c, 4, 63, 77
1, 16992, Note_on_c, 4, 58, 77
1, 16993, Note_on_c, 9, 40, 94
1, 16994, Note_off_c, 9, 42, 64
1, 16996, Note_off_c, 9, 40, 64
1, 17000, Note_off_c, 4, 58, 64
1, 17000, Note_off_c, 4, 63, 64
1, 17001, Note_off_c, 3, 68, 64
1, 17010, Note_off_c, 10, 68, 64
1, 17015, Note_on_c, 10, 68, 123
1, 17030, Note_off_c, 1, 49, 64
1, 17035, Note_on_c, 3, 68, 73
1, 17039, Note_on_c, 1, 39, 75
1, 17040, Note_on_c, 4, 63, 93
1, 17040, Note_on_c, 4, 58, 93
1, 17040, Note_on_c, 9, 44, 73
1, 17043, Note_off_c, 9, 44, 64
1, 17048, Note_off_c, 4, 58, 64
1, 17048, Note_off_c, 4, 63, 64
1, 17050, Note_off_c, 3, 68, 64
1, 17054, Note_off_c, 1, 39, 64
1, 17058, Note_off_c, 10, 68, 64
1, 17064, Note_on_c, 10, 68, 79
1, 17083, Note_on_c, 3, 70, 103
1, 17086, Note_on_c, 1, 49, 100
1, 17087, Note_on_c, 9, 56, 72
1, 17088, Note_on_c, 4, 63, 90
1, 17088, Note_on_c, 4, 58, 90
1, 17088, Note_on_c, 9, 36, 94
1, 17090, Note_off_c, 9, 56, 64
1, 17090, Note_on_c, 9, 42, 94
1, 17091, Note_off_c, 9, 36, 64
1, 17093, Note_off_c, 9, 42, 64
1, 17096, Note_off_c, 4, 58, 64
1, 17096, Note_off_c, 4, 63, 64
1, 17097, Pitch_bend_c, 1, 16383
1, 17107, Note_off_c, 10, 68, 64
1, 17111, Note_on_c, 10, 70, 109
1, 17125, Note_off_c, 1, 49, 64
1, 17129, Note_off_c, 3, 70, 64
1, 17132, Pitch_bend_c, 1, 8192
1, 17132, Note_on_c, 3, 65, 82
1, 17133, Note_on_c, 1, 29, 90
1, 17136, Note_on_c, 4, 63, 91
1, 17136, Note_on_c, 4, 58, 91
1, 17137, Note_on_c, 9, 44, 73
1, 17140, Note_off_c, 9, 44, 64
1, 17144, Note_off_c, 4, 58, 64
1, 17144, Note_off_c, 4, 63, 64
1, 17148, Note_off_c, 1, 29, 64
1, 17161, Note_on_c, 10, 65, 88
1, 17171, Note_off_c, 3, 65, 64
1, 17177, Note_on_c, 3, 68, 103
1, 17182, Note_on_c, 1, 32, 91
1, 17184, Note_on_c, 4, 63, 97
1, 17184, Note_on_c, 4, 58, 97
1, 17185, Note_on_c, 9, 42, 94
1, 17185, Note_on_c, 9, 40, 94
1, 17186, Note_off_c, 10, 70, 64
1, 17188, Note_off_c, 9, 40, 64
1, 17188, Note_off_c, 9, 42, 64
1, 17192, Note_off_c, 4, 58, 64
1, 17192, Note_off_c, 4, 63, 64
1, 17205, Note_off_c, 3, 68, 64
1, 17206, Note_on_c, 10, 68, 109
1, 17213, Note_off_c, 1, 32, 64
1, 17227, Note_on_c, 3, 70, 126
1, 17228, Note_off_c, 10, 65, 64
1, 17229, Note_on_c, 1, 34, 100
1, 17232, Note_on_c, 4, 58, 77
1, 17232, Note_on_c, 4, 63, 77
1, 17234, Note_on_c, 9, 44, 73
1, 17237, Note_off_c, 9, 44, 64
1, 17240, Note_off_c, 4, 63, 64
1, 17240, Note_off_c, 4, 58, 64
1, 17255, Note_on_c, 10, 70, 127
1, 17260, Note_off_c, 3, 70, 64
1, 17262, Note_off_c, 10, 68, 64
1, 17278, Note_off_c, 2, 39, 64
1, 17280, Note_on_c, 4, 58, 60
1, 17280, Note_on_c, 4, 53, 60
1, 17280, Note_on_c, 9, 36, 94
1, 17280, Note_on_c, 9, 42, 94
1, 17280, Note_on_c, 9, 56, 72
1, 17281, Note_on_c, 2, 46, 74
1, 17283, Note_off_c, 9, 56, 64
1, 17283, Note_off_c, 9, 42, 64
1, 17283, Note_off_c, 9, 36, 64
1, 17288, Note_off_c, 4, 53, 64
1, 17288, Note_off_c, 4, 58, 64
1, 17308, Note_off_c, 1, 34, 64
1, 17317, Note_off_c, 10, 70, 64
1, 17321, Note_on_c, 3, 70, 103
1, 17325, Note_on_c, 1, 34, 100
1, 17328, Note_on_c, 9, 44, 73
1, 17330, Note_on_c, 4, 58, 94
1, 17330, Note_on_c, 4, 53, 94
1, 17331, Note_off_c, 9, 44, 64
1, 17338, Note_off_c, 4, 53, 64
1, 17338, Note_off_c, 4, 58, 64
1, 17350, Note_on_c, 10, 70, 109
1, 17364, Note_off_c, 1, 34, 64
1, 17365, Note_off_c, 3, 70, 64
1, 17375, Note_on_c, 1, 44, 100
1, 17375, Note_on_c, 4, 58, 84
1, 17375, Note_on_c, 4, 53, 84
1, 17375, Note_on_c, 9, 42, 94
1, 17377, Note_on_c, 9, 40, 94
1, 17378, Note_off_c, 9, 42, 64
1, 17380, Note_off_c, 9, 40, 64
1, 17383, Note_off_c, 4, 53, 64
1, 17383, Note_off_c, 4, 58, 64
1, 17414, Note_off_c, 1, 44, 64
1, 17420, Note_on_c, 4, 58, 97
1, 17420, Note_on_c, 4, 53, 97
1, 17422, Note_on_c, 1, 34, 71
1, 17422, Note_off_c, 10, 70, 64
1, 17424, Note_on_c, 9, 44, 73
1, 17427, Note_off_c, 9, 44, 64
1, 17427, Pitch_bend_c, 11, 0
1, 17428, Note_off_c, 4, 53, 64
1, 17428, Note_off_c, 4, 58, 64
1, 17428, Note_on_c, 11, 79, 64
1, 17437, Note_off_c, 1, 34, 64
1, 17442, Pitch_bend_c, 11, 1792
1, 17446, Pitch_bend_c, 11, 3968
1, 17449, Pitch_bend_c, 11, 6144
1, 17453, Pitch_bend_c, 11, 6912
1, 17456, Pitch_bend_c, 11, 8192
1, 17466, Note_on_c, 11, 80, 64
1, 17469, Note_on_c, 1, 44, 100
1, 17469, Note_off_c, 11, 79, 64
1, 17471, Note_on_c, 4, 58, 86
1, 17471, Note_on_c, 4, 53, 86
1, 17471, Note_on_c, 9, 56, 72
1, 17472, Note_on_c, 9, 36, 94
1, 17474, Note_off_c, 9, 56, 64
1, 17474, Note_on_c, 9, 42, 94
1, 17475, Note_off_c, 9, 36, 64
1, 17477, Note_off_c, 9, 42, 64
1, 17479, Note_off_c, 4, 53, 64
1, 17479, Note_off_c, 4, 58, 64
1, 17486, Pitch_bend_c, 1, 16383
1, 17508, Note_off_c, 1, 44, 64
1, 17513, Note_off_c, 11, 80, 64
1, 17515, Note_on_c, 11, 79, 64
1, 17517, Pitch_bend_c, 1, 8192
1, 17518, Note_on_c, 1, 34, 93
1, 17521, Note_on_c, 4, 53, 94
1, 17521, Note_on_c, 9, 44, 73
1, 17522, Note_on_c, 4, 58, 94
1, 17524, Note_off_c, 9, 44, 64
1, 17529, Note_off_c, 4, 53, 64
1, 17530, Note_off_c, 4, 58, 64
1, 17562, Note_on_c, 11, 77, 64
1, 17567, Note_off_c, 11, 79, 64
1, 17568, Note_on_c, 4, 53, 92
1, 17568, Note_on_c, 4, 58, 92
1, 17569, Note_on_c, 9, 42, 94
1, 17569, Note_on_c, 9, 40, 94
1, 17572, Note_off_c, 9, 40, 64
1, 17572, Note_off_c, 9, 42, 64
1, 17575, Note_off_c, 4, 53, 64
1, 17576, Note_off_c, 4, 58, 64
1, 17584, Note_off_c, 11, 77, 64
1, 17589, Note_off_c, 1, 34, 64
1, 17611, Note_on_c, 11, 75, 64
1, 17614, Note_on_c, 1, 32, 100
1, 17617, Note_on_c, 4, 53, 92
1, 17618, Note_on_c, 4, 58, 92
1, 17618, Note_on_c, 9, 44, 73
1, 17621, Note_off_c, 9, 44, 64
1, 17624, Note_off_c, 4, 53, 64
1, 17625, Note_off_c, 4, 58, 64
1, 17630, Pitch_bend_c, 1, 16383
1, 17634, Note_off_c, 11, 75, 64
1, 17664, Note_on_c, 4, 58, 60
1, 17664, Note_on_c, 4, 53, 60
1, 17664, Note_on_c, 9, 36, 94
1, 17664, Note_on_c, 9, 42, 94
1, 17664, Note_on_c, 9, 56, 72
1, 17667, Note_off_c, 9, 56, 64
1, 17667, Note_off_c, 9, 42, 64
1, 17667, Note_off_c, 9, 36, 64
1, 17672, Note_off_c, 4, 53, 64
1, 17672, Note_off_c, 4, 58, 64
1, 17685, Note_off_c, 1, 32, 64
1, 17705, Pitch_bend_c, 11, 0
1, 17706, Note_on_c, 11, 74, 64
1, 17709, Pitch_bend_c, 1, 8192
1, 17710, Note_on_c, 1, 34, 100
1, 17712, Note_on_c, 9, 44, 73
1, 17714, Note_on_c, 4, 58, 94
1, 17714, Note_on_c, 4, 53, 94
1, 17715, Note_off_c, 9, 44, 64
1, 17722, Note_off_c, 4, 53, 64
1, 17722, Note_off_c, 4, 58, 64
1, 17723, Pitch_bend_c, 11, 1152
1, 17726, Pitch_bend_c, 11, 3200
1, 17730, Pitch_bend_c, 11, 4992
1, 17734, Pitch_bend_c, 11, 6272
1, 17738, Pitch_bend_c, 11, 6784
1, 17739, Pitch_bend_c, 11, 7680
1, 17743, Pitch_bend_c, 11, 8192
1, 17749, Note_off_c, 1, 34, 64
1, 17757, Note_on_c, 1, 44, 100
1, 17759, Note_on_c, 4, 58, 84
1, 17759, Note_on_c, 4, 53, 84
1, 17759, Note_on_c, 9, 42, 94
1, 17761, Note_on_c, 9, 40, 94
1, 17762, Note_off_c, 9, 42, 64
1, 17764, Note_off_c, 9, 40, 64
1, 17767, Note_off_c, 4, 53, 64
1, 17767, Note_off_c, 4, 58, 64
1, 17804, Note_on_c, 4, 58, 97
1, 17804, Note_on_c, 4, 53, 97
1, 17808, Note_on_c, 9, 44, 73
1, 17811, Note_off_c, 9, 44, 64
1, 17812, Note_off_c, 1, 44, 64
1, 17812, Note_off_c, 4, 53, 64
1, 17812, Note_off_c, 4, 58, 64
1, 17851, Note_on_c, 1, 44, 100
1, 17855, Note_on_c, 4, 58, 86
1, 17855, Note_on_c, 4, 53, 86
1, 17855, Note_on_c, 9, 56, 72
1, 17856, Note_on_c, 9, 36, 94
1, 17858, Note_off_c, 9, 56, 64
1, 17858, Note_on_c, 9, 42, 94
1, 17859, Note_off_c, 9, 36, 64
1, 17861, Note_off_c, 9, 42, 64
1, 17863, Note_off_c, 4, 53, 64
1, 17863, Note_off_c, 4, 58, 64
1, 17870, Pitch_bend_c, 1, 16383
1, 17884, Note_off_c, 1, 44, 64
1, 17885, Pitch_bend_c, 11, 7936
1, 17887, Pitch_bend_c, 11, 7168
1, 17890, Pitch_bend_c, 11, 6144
1, 17895, Pitch_bend_c, 11, 5376
1, 17897, Pitch_bend_c, 11, 3584
1, 17900, Pitch_bend_c, 1, 8192
1, 17901, Note_on_c, 1, 29, 91
1, 17901, Note_on_c, 3, 65, 85
1, 17901, Pitch_bend_c, 11, 1664
1, 17904, Pitch_bend_c, 11, 0
1, 17905, Note_on_c, 4, 53, 94
1, 17905, Note_on_c, 9, 44, 73
1, 17905, Note_off_c, 11, 74, 64
1, 17906, Note_on_c, 4, 58, 94
1, 17908, Note_off_c, 9, 44, 64
1, 17913, Note_off_c, 4, 53, 64
1, 17914, Note_off_c, 4, 58, 64
1, 17924, Note_off_c, 1, 29, 64
1, 17930, Note_on_c, 10, 65, 91
1, 17948, Note_on_c, 3, 68, 103
1, 17950, Note_on_c, 1, 32, 94
1, 17952, Note_on_c, 4, 53, 92
1, 17952, Note_on_c, 4, 58, 92
1, 17953, Note_on_c, 9, 42, 94
1, 17953, Note_on_c, 9, 40, 94
1, 17956, Note_off_c, 3, 65, 64
1, 17956, Note_off_c, 9, 40, 64
1, 17956, Note_off_c, 9, 42, 64
1, 17959, Note_off_c, 4, 53, 64
1, 17960, Note_off_c, 4, 58, 64
1, 17977, Note_on_c, 10, 68, 109
1, 17981, Note_off_c, 3, 68, 64
1, 17989, Note_off_c, 1, 32, 64
1, 17997, Note_on_c, 3, 70, 120
1, 17999, Note_on_c, 1, 34, 100
1, 18001, Note_on_c, 4, 53, 92
1, 18002, Note_on_c, 4, 58, 92
1, 18002, Note_on_c, 9, 44, 73
1, 18005, Note_off_c, 9, 44, 64
1, 18008, Note_off_c, 4, 53, 64
1, 18009, Note_off_c, 4, 58, 64
1, 18013, Note_off_c, 10, 65, 64
1, 18025, Note_on_c, 10, 70, 126
1, 18029, Note_off_c, 3, 70, 64
1, 18038, Note_off_c, 10, 68, 64
1, 18048, Note_on_c, 4, 58, 94
1, 18048, Note_on_c, 4, 53, 94
1, 18048, Note_on_c, 9, 36, 94
1, 18048, Note_on_c, 9, 42, 94
1, 18048, Note_on_c, 9, 56, 72
1, 18051, Note_off_c, 9, 56, 64
1, 18051, Note_off_c, 9, 42, 64
1, 18051, Note_off_c, 9, 36, 64
1, 18054, Note_off_c, 1, 34, 64
1, 18056, Note_off_c, 4, 53, 64
1, 18056, Note_off_c, 4, 58, 64
1, 18086, Note_off_c, 10, 70, 64
1, 18096, Note_on_c, 1, 34, 40
1, 18096, Note_on_c, 9, 44, 73
1, 18098, Note_on_c, 4, 58, 94
1, 18098, Note_on_c, 4, 53, 94
1, 18099, Note_off_c, 9, 44, 64
1, 18103, Note_off_c, 1, 34, 64
1, 18106, Note_off_c, 4, 53, 64
1, 18106, Note_off_c, 4, 58, 64
1, 18143, Note_on_c, 1, 44, 100
1, 18143, Note_on_c, 4, 58, 94
1, 18143, Note_on_c, 4, 53, 94
1, 18143, Control_c, 8, 1, 0
1, 18143, Note_on_c, 9, 42, 94
1, 18144, Note_on_c, 8, 58, 94
1, 18145, Note_on_c, 9, 40, 94
1, 18146, Note_off_c, 9, 42, 64
1, 18148, Note_off_c, 9, 40, 64
1, 18151, Note_off_c, 4, 53, 64
1, 18151, Note_off_c, 4, 58, 64
1, 18159, Pitch_bend_c, 8, 1280
1, 18163, Pitch_bend_c, 8, 2944
1, 18164, Note_off_c, 8, 58, 64
1, 18182, Note_off_c, 1, 44, 64
1, 18188, Note_on_c, 4, 58, 94
1, 18188, Note_on_c, 4, 53, 94
1, 18192, Note_on_c, 9, 44, 73
1, 18195, Note_off_c, 9, 44, 64
1, 18196, Note_on_c, 1, 34, 89
1, 18196, Note_off_c, 4, 53, 64
1, 18196, Note_off_c, 4, 58, 64
1, 18211, Note_off_c, 1, 34, 64
1, 18233, Pitch_bend_c, 8, 8192
1, 18234, Note_on_c, 8, 58, 94
1, 18239, Note_on_c, 1, 44, 100
1, 18239, Note_on_c, 4, 58, 94
1, 18239, Note_on_c, 4, 53, 94
1, 18239, Note_on_c, 9, 56, 72
1, 18240, Note_on_c, 9, 36, 94
1, 18242, Note_off_c, 9, 56, 64
1, 18242, Note_on_c, 9, 42, 94
1, 18243, Note_off_c, 9, 36, 64
1, 18245, Note_off_c, 9, 42, 64
1, 18247, Note_off_c, 4, 53, 64
1, 18247, Note_off_c, 4, 58, 64
1, 18254, Pitch_bend_c, 1, 16383
1, 18278, Note_off_c, 1, 44, 64
1, 18287, Pitch_bend_c, 1, 8192
1, 18288, Note_on_c, 1, 34, 88
1, 18289, Note_on_c, 4, 53, 94
1, 18289, Note_on_c, 9, 44, 73
1, 18290, Note_on_c, 4, 58, 94
1, 18292, Note_off_c, 9, 44, 64
1, 18297, Note_off_c, 4, 53, 64
1, 18298, Note_off_c, 4, 58, 64
1, 18303, Note_off_c, 1, 34, 64
1, 18336, Note_on_c, 4, 56, 74
1, 18337, Note_on_c, 4, 61, 75
1, 18337, Note_on_c, 9, 42, 94
1, 18337, Note_on_c, 9, 40, 94
1, 18340, Note_off_c, 9, 40, 64
1, 18340, Note_off_c, 9, 42, 64
1, 18344, Note_off_c, 4, 56, 64
1, 18345, Note_off_c, 4, 61, 64
1, 18355, Control_c, 8, 1, 82
1, 18384, Note_on_c, 1, 39, 100
1, 18384, Note_on_c, 4, 58, 90
1, 18384, Note_on_c, 4, 63, 90
1, 18386, Note_on_c, 9, 44, 73
1, 18389, Note_off_c, 9, 44, 64
1, 18392, Note_off_c, 4, 63, 64
1, 18392, Note_off_c, 4, 58, 64
1, 18398, Note_off_c, 8, 58, 64
1, 18428, Note_on_c, 3, 68, 120
1, 18431, Note_off_c, 1, 39, 64
1, 18432, Note_on_c, 4, 58, 54
1, 18432, Note_on_c, 4, 63, 54
1, 18432, Note_on_c, 9, 36, 94
1, 18432, Note_on_c, 9, 42, 94
1, 18432, Note_on_c, 9, 56, 72
1, 18433, Note_on_c, 2, 39, 74
1, 18435, Note_off_c, 2, 46, 64
1, 18435, Note_off_c, 9, 56, 64
1, 18435, Note_off_c, 9, 42, 64
1, 18435, Note_off_c, 9, 36, 64
1, 18440, Note_off_c, 4, 63, 64
1, 18440, Note_off_c, 4, 58, 64
1, 18442, Note_off_c, 3, 68, 64
1, 18456, Note_on_c, 10, 68, 126
1, 18477, Note_on_c, 1, 39, 100
1, 18477, Note_on_c, 3, 68, 85
1, 18480, Note_on_c, 4, 58, 98
1, 18480, Note_on_c, 4, 63, 98
1, 18480, Note_on_c, 9, 44, 73
1, 18483, Note_off_c, 9, 44, 64
1, 18488, Note_off_c, 3, 68, 64
1, 18488, Note_off_c, 4, 63, 64
1, 18488, Note_off_c, 4, 58, 64
1, 18499, Note_off_c, 10, 68, 64
1, 18506, Note_on_c, 10, 68, 91
1, 18516, Note_off_c, 1, 39, 64
1, 18523, Note_on_c, 3, 68, 103
1, 18527, Note_on_c, 1, 49, 100
1, 18527, Note_on_c, 9, 42, 94
1, 18528, Note_on_c, 4, 63, 77
1, 18528, Note_on_c, 4, 58, 77
1, 18529, Note_on_c, 9, 40, 94
1, 18530, Note_off_c, 9, 42, 64
1, 18532, Note_off_c, 9, 40, 64
1, 18536, Note_off_c, 3, 68, 64
1, 18536, Note_off_c, 4, 58, 64
1, 18536, Note_off_c, 4, 63, 64
1, 18545, Note_off_c, 10, 68, 64
1, 18551, Note_on_c, 10, 68, 109
1, 18566, Note_off_c, 1, 49, 64
1, 18572, Note_on_c, 3, 68, 85
1, 18575, Note_on_c, 1, 39, 75
1, 18576, Note_on_c, 4, 63, 93
1, 18576, Note_on_c, 4, 58, 93
1, 18576, Note_on_c, 9, 44, 73
1, 18579, Note_off_c, 9, 44, 64
1, 18584, Note_off_c, 4, 58, 64
1, 18584, Note_off_c, 4, 63, 64
1, 18588, Note_off_c, 3, 68, 64
1, 18590, Note_off_c, 1, 39, 64
1, 18593, Note_off_c, 10, 68, 64
1, 18601, Note_on_c, 10, 68, 91
1, 18620, Note_on_c, 3, 70, 120
1, 18622, Note_on_c, 1, 49, 100
1, 18623, Note_on_c, 9, 56, 72
1, 18624, Note_on_c, 4, 63, 90
1, 18624, Note_on_c, 4, 58, 90
1, 18624, Note_on_c, 9, 36, 94
1, 18626, Note_off_c, 9, 56, 64
1, 18626, Note_on_c, 9, 42, 94
1, 18627, Note_off_c, 9, 36, 64
1, 18629, Note_off_c, 9, 42, 64
1, 18632, Note_off_c, 4, 58, 64
1, 18632, Note_off_c, 4, 63, 64
1, 18633, Pitch_bend_c, 1, 16383
1, 18645, Note_off_c, 10, 68, 64
1, 18648, Note_on_c, 10, 70, 126
1, 18661, Note_off_c, 1, 49, 64
1, 18661, Note_off_c, 3, 70, 64
1, 18665, Note_on_c, 3, 65, 94
1, 18668, Pitch_bend_c, 1, 8192
1, 18669, Note_on_c, 1, 29, 90
1, 18672, Note_on_c, 4, 63, 91
1, 18672, Note_on_c, 4, 58, 91
1, 18673, Note_on_c, 9, 44, 73
1, 18676, Note_off_c, 9, 44, 64
1, 18680, Note_off_c, 4, 58, 64
1, 18680, Note_off_c, 4, 63, 64
1, 18684, Note_off_c, 1, 29, 64
1, 18694, Note_on_c, 10, 65, 100
1, 18713, Note_off_c, 3, 65, 64
1, 18713, Note_on_c, 3, 68, 103
1, 18718, Note_on_c, 1, 32, 91
1, 18718, Note_off_c, 10, 70, 64
1, 18720, Note_on_c, 4, 63, 97
1, 18720, Note_on_c, 4, 58, 97
1, 18721, Note_on_c, 9, 42, 94
1, 18721, Note_on_c, 9, 40, 94
1, 18724, Note_off_c, 9, 40, 64
1, 18724, Note_off_c, 9, 42, 64
1, 18728, Note_off_c, 4, 58, 64
1, 18728, Note_off_c, 4, 63, 64
1, 18742, Note_on_c, 10, 68, 109
1, 18749, Note_off_c, 1, 32, 64
1, 18759, Note_off_c, 3, 68, 64
1, 18764, Note_on_c, 3, 70, 111
1, 18765, Note_on_c, 1, 34, 100
1, 18768, Note_on_c, 4, 58, 77
1, 18768, Note_on_c, 4, 63, 77
1, 18770, Note_on_c, 9, 44, 73
1, 18770, Note_off_c, 10, 65, 64
1, 18773, Note_off_c, 9, 44, 64
1, 18776, Note_off_c, 4, 63, 64
1, 18776, Note_off_c, 4, 58, 64
1, 18784, Note_off_c, 3, 70, 64
1, 18792, Note_on_c, 10, 70, 117
1, 18812, Note_off_c, 1, 34, 64
1, 18812, Note_on_c, 2, 46, 74
1, 18815, Note_off_c, 2, 39, 64
1, 18816, Note_on_c, 4, 58, 60
1, 18816, Note_on_c, 4, 53, 60
1, 18816, Note_on_c, 9, 36, 94
1, 18816, Note_on_c, 9, 42, 94
1, 18816, Note_on_c, 9, 56, 72
1, 18816, Note_off_c, 10, 68, 64
1, 18819, Note_off_c, 9, 56, 64
1, 18819, Note_off_c, 9, 42, 64
1, 18819, Note_off_c, 9, 36, 64
1, 18824, Note_off_c, 4, 53, 64
1, 18824, Note_off_c, 4, 58, 64
1, 18841, Note_off_c, 10, 70, 64
1, 18854, Note_on_c, 3, 70, 103
1, 18861, Note_on_c, 1, 34, 100
1, 18861, Pitch_bend_c, 6, 0
1, 18861, Control_c, 6, 1, 127
1, 18862, Note_on_c, 6, 58, 94
1, 18864, Note_on_c, 6, 62, 94
1, 18864, Note_on_c, 9, 44, 73
1, 18866, Note_on_c, 4, 58, 94
1, 18866, Note_on_c, 4, 53, 94
1, 18867, Note_off_c, 9, 44, 64
1, 18874, Note_off_c, 4, 53, 64
1, 18874, Note_off_c, 4, 58, 64
1, 18877, Pitch_bend_c, 6, 3456
1, 18881, Pitch_bend_c, 6, 8192
1, 18882, Note_on_c, 10, 70, 109
1, 18890, Note_off_c, 6, 62, 64
1, 18896, Note_off_c, 6, 58, 64
1, 18900, Note_off_c, 1, 34, 64
1, 18911, Note_on_c, 1, 44, 100
1, 18911, Note_on_c, 4, 58, 84
1, 18911, Note_on_c, 4, 53, 84
1, 18911, Note_on_c, 9, 42, 94
1, 18913, Note_on_c, 9, 40, 94
1, 18914, Note_off_c, 9, 42, 64
1, 18916, Note_off_c, 9, 40, 64
1, 18919, Note_off_c, 4, 53, 64
1, 18919, Note_off_c, 4, 58, 64
1, 18940, Note_off_c, 3, 70, 64
1, 18950, Note_off_c, 1, 44, 64
1, 18956, Note_on_c, 4, 58, 97
1, 18956, Note_on_c, 4, 53, 97
1, 18958, Note_on_c, 1, 34, 71
1, 18960, Note_on_c, 9, 44, 73
1, 18963, Note_off_c, 9, 44, 64
1, 18964, Note_off_c, 4, 53, 64
1, 18964, Note_off_c, 4, 58, 64
1, 18973, Note_off_c, 1, 34, 64
1, 18997, Note_off_c, 10, 70, 64
1, 19001, Pitch_bend_c, 11, 8192
1, 19002, Note_on_c, 11, 75, 64
1, 19005, Note_on_c, 1, 44, 100
1, 19005, Pitch_bend_c, 6, 0
1, 19006, Note_on_c, 6, 58, 94
1, 19007, Note_on_c, 4, 58, 86
1, 19007, Note_on_c, 4, 53, 86
1, 19007, Note_on_c, 6, 62, 94
1, 19007, Note_on_c, 9, 56, 72
1, 19008, Note_on_c, 9, 36, 94
1, 19009, Pitch_bend_c, 6, 1024
1, 19010, Note_off_c, 9, 56, 64
1, 19010, Note_on_c, 9, 42, 94
1, 19011, Pitch_bend_c, 6, 6144
1, 19011, Note_off_c, 9, 36, 64
1, 19013, Note_off_c, 9, 42, 64
1, 19015, Note_off_c, 4, 53, 64
1, 19015, Note_off_c, 4, 58, 64
1, 19017, Pitch_bend_c, 6, 8192
1, 19018, Pitch_bend_c, 11, 8972
1, 19021, Pitch_bend_c, 11, 9622
1, 19022, Pitch_bend_c, 1, 16383
1, 19024, Pitch_bend_c, 11, 11052
1, 19027, Pitch_bend_c, 11, 12482
1, 19032, Pitch_bend_c, 11, 13522
1, 19035, Pitch_bend_c, 11, 14302
1, 19036, Note_off_c, 6, 62, 64
1, 19040, Pitch_bend_c, 11, 14562
1, 19041, Pitch_bend_c, 11, 14692
1, 19044, Note_off_c, 1, 44, 64
1, 19047, Pitch_bend_c, 11, 14432
1, 19049, Note_off_c, 6, 58, 64
1, 19049, Pitch_bend_c, 11, 14042
1, 19053, Pitch_bend_c, 1, 8192
1, 19053, Pitch_bend_c, 11, 13652
1, 19054, Note_on_c, 1, 34, 93
1, 19055, Pitch_bend_c, 11, 12612
1, 19057, Note_on_c, 4, 53, 94
1, 19057, Note_on_c, 9, 44, 73
1, 19058, Note_on_c, 4, 58, 94
1, 19059, Pitch_bend_c, 11, 9362
1, 19060, Note_off_c, 9, 44, 64
1, 19063, Pitch_bend_c, 11, 8192
1, 19065, Note_off_c, 4, 53, 64
1, 19066, Note_off_c, 4, 58, 64
1, 19093, Note_off_c, 11, 75, 64
1, 19101, Note_off_c, 1, 34, 64
1, 19102, Note_on_c, 11, 74, 64
1, 19104, Note_on_c, 4, 53, 92
1, 19104, Note_on_c, 4, 58, 92
1, 19105, Note_on_c, 9, 42, 94
1, 19105, Note_on_c, 9, 40, 94
1, 19108, Note_off_c, 9, 40, 64
1, 19108, Note_off_c, 9, 42, 64
1, 19111, Note_off_c, 4, 53, 64
1, 19112, Note_off_c, 4, 58, 64
1, 19130, Note_off_c, 11, 74, 64
1, 19147, Note_on_c, 11, 75, 64
1, 19150, Note_on_c, 1, 32, 100
1, 19153, Note_on_c, 4, 53, 92
1, 19154, Note_on_c, 4, 58, 92
1, 19154, Note_on_c, 9, 44, 73
1, 19157, Note_off_c, 9, 44, 64
1, 19160, Note_off_c, 4, 53, 64
1, 19161, Note_off_c, 4, 58, 64
1, 19165, Pitch_bend_c, 11, 8972
1, 19166, Pitch_bend_c, 1, 16383
1, 19167, Pitch_bend_c, 11, 10532
1, 19171, Pitch_bend_c, 11, 12222
1, 19175, Pitch_bend_c, 11, 13782
1, 19179, Pitch_bend_c, 11, 14172
1, 19181, Pitch_bend_c, 11, 15212
1, 19185, Pitch_bend_c, 11, 15342
1, 19193, Pitch_bend_c, 11, 15082
1, 19196, Pitch_bend_c, 11, 14562
1, 19197, Note_off_c, 1, 32, 64
1, 19199, Pitch_bend_c, 6, 0
1, 19199, Pitch_bend_c, 11, 13782
1, 19200, Note_on_c, 4, 58, 60
1, 19200, Note_on_c, 4, 53, 60
1, 19200, Note_on_c, 6, 60, 94
1, 19200, Note_on_c, 6, 63, 94
1, 19200, Note_on_c, 9, 36, 94
1, 19200, Note_on_c, 9, 42, 94
1, 19200, Note_on_c, 9, 56, 72
1, 19201, Pitch_bend_c, 6, 1408
1, 19203, Pitch_bend_c, 6, 4736
1, 19203, Note_off_c, 9, 56, 64
1, 19203, Note_off_c, 9, 42, 64
1, 19203, Note_off_c, 9, 36, 64
1, 19203, Pitch_bend_c, 11, 12482
1, 19206, Pitch_bend_c, 6, 7552
1, 19207, Pitch_bend_c, 11, 8192
1, 19208, Note_off_c, 4, 53, 64
1, 19208, Note_off_c, 4, 58, 64
1, 19210, Pitch_bend_c, 6, 8192
1, 19225, Note_off_c, 6, 63, 64
1, 19235, Note_off_c, 6, 60, 64
1, 19245, Pitch_bend_c, 1, 8192
1, 19246, Note_on_c, 1, 34, 100
1, 19248, Note_on_c, 9, 44, 73
1, 19250, Note_on_c, 4, 58, 94
1, 19250, Note_on_c, 4, 53, 94
1, 19251, Note_off_c, 9, 44, 64
1, 19258, Note_off_c, 4, 53, 64
1, 19258, Note_off_c, 4, 58, 64
1, 19285, Note_off_c, 1, 34, 64
1, 19293, Note_on_c, 1, 44, 100
1, 19295, Note_on_c, 4, 58, 84
1, 19295, Note_on_c, 4, 53, 84
1, 19295, Note_on_c, 6, 60, 94
1, 19295, Note_on_c, 6, 63, 94
1, 19295, Note_on_c, 9, 42, 94
1, 19297, Note_on_c, 9, 40, 94
1, 19298, Note_off_c, 9, 42, 64
1, 19300, Note_off_c, 9, 40, 64
1, 19303, Note_off_c, 4, 53, 64
1, 19303, Note_off_c, 4, 58, 64
1, 19327, Note_off_c, 6, 63, 64
1, 19337, Note_off_c, 6, 60, 64
1, 19340, Note_on_c, 4, 58, 97
1, 19340, Note_on_c, 4, 53, 97
1, 19342, Pitch_bend_c, 6, 3968
1, 19343, Note_on_c, 6, 58, 94
1, 19344, Note_on_c, 9, 44, 73
1, 19345, Note_on_c, 6, 62, 94
1, 19346, Pitch_bend_c, 6, 0
1, 19346, Note_on_c, 11, 74, 64
1, 19347, Note_off_c, 9, 44, 64
1, 19347, Note_off_c, 11, 75, 64
1, 19348, Note_off_c, 1, 44, 64
1, 19348, Note_off_c, 4, 53, 64
1, 19348, Note_off_c, 4, 58, 64
1, 19360, Pitch_bend_c, 6, 2304
1, 19364, Pitch_bend_c, 6, 8582
1, 19367, Pitch_bend_c, 6, 8192
1, 19372, Note_off_c, 6, 62, 64
1, 19387, Note_on_c, 1, 44, 100
1, 19387, Note_off_c, 6, 58, 64
1, 19391, Note_on_c, 4, 58, 86
1, 19391, Note_on_c, 4, 53, 86
1, 19391, Note_on_c, 9, 56, 72
1, 19392, Note_on_c, 9, 36, 94
1, 19394, Note_off_c, 9, 56, 64
1, 19394, Note_on_c, 9, 42, 94
1, 19395, Note_off_c, 9, 36, 64
1, 19397, Note_off_c, 9, 42, 64
1, 19399, Note_off_c, 4, 53, 64
1, 19399, Note_off_c, 4, 58, 64
1, 19406, Pitch_bend_c, 1, 16383
1, 19420, Note_off_c, 1, 44, 64
1, 19436, Pitch_bend_c, 1, 8192
1, 19437, Note_on_c, 1, 29, 91
1, 19437, Note_on_c, 3, 65, 82
1, 19437, Pitch_bend_c, 11, 7424
1, 19441, Note_on_c, 4, 53, 94
1, 19441, Note_on_c, 9, 44, 73
1, 19441, Pitch_bend_c, 11, 6656
1, 19442, Note_on_c, 4, 58, 94
1, 19444, Note_off_c, 9, 44, 64
1, 19445, Pitch_bend_c, 11, 5760
1, 19449, Note_off_c, 4, 53, 64
1, 19449, Pitch_bend_c, 11, 4864
1, 19450, Note_off_c, 4, 58, 64
1, 19451, Pitch_bend_c, 11, 3456
1, 19454, Pitch_bend_c, 11, 1536
1, 19459, Pitch_bend_c, 11, 0
1, 19460, Note_off_c, 1, 29, 64
1, 19466, Note_on_c, 10, 65, 88
1, 19468, Note_off_c, 11, 74, 64
1, 19484, Note_on_c, 3, 68, 103
1, 19486, Note_on_c, 1, 32, 94
1, 19486, Note_off_c, 3, 65, 64
1, 19488, Note_on_c, 4, 53, 92
1, 19488, Note_on_c, 4, 58, 92
1, 19489, Note_on_c, 9, 42, 94
1, 19489, Note_on_c, 9, 40, 94
1, 19492, Note_off_c, 9, 40, 64
1, 19492, Note_off_c, 9, 42, 64
1, 19495, Note_off_c, 4, 53, 64
1, 19496, Note_off_c, 4, 58, 64
1, 19512, Note_on_c, 10, 68, 109
1, 19517, Note_off_c, 3, 68, 64
1, 19525, Note_off_c, 1, 32, 64
1, 19531, Note_on_c, 3, 70, 117
1, 19535, Note_on_c, 1, 34, 100
1, 19536, Note_on_c, 9, 46, 85
1, 19537, Note_on_c, 4, 53, 92
1, 19538, Note_on_c, 4, 58, 92
1, 19539, Note_off_c, 9, 46, 64
1, 19543, Note_off_c, 10, 65, 64
1, 19544, Note_off_c, 4, 53, 64
1, 19545, Note_off_c, 4, 58, 64
1, 19560, Note_on_c, 10, 70, 123
1, 19574, Note_off_c, 10, 68, 64
1, 19584, Note_on_c, 4, 58, 94
1, 19584, Note_on_c, 4, 53, 94
1, 19584, Note_on_c, 9, 36, 94
1, 19584, Note_on_c, 9, 56, 72
1, 19584, Note_on_c, 9, 42, 94
1, 19587, Note_off_c, 9, 42, 64
1, 19587, Note_off_c, 9, 56, 64
1, 19587, Note_off_c, 9, 36, 64
1, 19590, Note_off_c, 1, 34, 64
1, 19592, Note_off_c, 4, 53, 64
1, 19592, Note_off_c, 4, 58, 64
1, 19603, Note_off_c, 3, 70, 64
1, 19630, Note_off_c, 10, 70, 64
1, 19632, Note_on_c, 9, 44, 73
1, 19634, Note_on_c, 4, 58, 94
1, 19634, Note_on_c, 4, 53, 94
1, 19635, Note_on_c, 1, 34, 46
1, 19635, Note_off_c, 9, 44, 64
1, 19642, Note_off_c, 4, 53, 64
1, 19642, Note_off_c, 4, 58, 64
1, 19650, Note_off_c, 1, 34, 64
1, 19678, Note_on_c, 9, 56, 72
1, 19679, Note_on_c, 1, 44, 100
1, 19679, Note_on_c, 4, 58, 94
1, 19679, Note_on_c, 4, 53, 94
1, 19679, Note_on_c, 9, 42, 94
1, 19681, Note_off_c, 9, 56, 64
1, 19681, Note_on_c, 9, 40, 94
1, 19682, Note_off_c, 9, 42, 64
1, 19684, Note_off_c, 9, 40, 64
1, 19687, Note_off_c, 4, 53, 64
1, 19687, Note_off_c, 4, 58, 64
1, 19718, Note_off_c, 1, 44, 64
1, 19721, Pitch_bend_c, 11, 8192
1, 19722, Note_on_c, 11, 77, 64
1, 19724, Note_on_c, 4, 58, 94
1, 19724, Note_on_c, 4, 53, 94
1, 19727, Note_on_c, 11, 82, 82
1, 19728, Note_on_c, 9, 44, 73
1, 19731, Note_off_c, 9, 44, 64
1, 19732, Note_on_c, 1, 34, 89
1, 19732, Note_off_c, 4, 53, 64
1, 19732, Note_off_c, 4, 58, 64
1, 19747, Note_off_c, 1, 34, 64
1, 19773, Note_on_c, 9, 56, 72
1, 19775, Note_on_c, 1, 44, 100
1, 19775, Note_on_c, 4, 58, 94
1, 19775, Note_on_c, 4, 53, 94
1, 19776, Note_off_c, 9, 56, 64
1, 19776, Note_on_c, 9, 36, 94
1, 19778, Note_on_c, 9, 42, 94
1, 19779, Note_off_c, 9, 36, 64
1, 19781, Note_off_c, 9, 42, 64
1, 19783, Note_off_c, 4, 53, 64
1, 19783, Note_off_c, 4, 58, 64
1, 19790, Pitch_bend_c, 1, 16383
1, 19814, Note_off_c, 1, 44, 64
1, 19823, Pitch_bend_c, 1, 8192
1, 19824, Note_on_c, 1, 34, 88
1, 19825, Note_on_c, 4, 53, 94
1, 19825, Note_on_c, 9, 44, 73
1, 19826, Note_on_c, 4, 58, 94
1, 19828, Note_off_c, 9, 44, 64
1, 19828, Pitch_bend_c, 11, 7808
1, 19830, Pitch_bend_c, 11, 7424
1, 19832, Pitch_bend_c, 11, 6272
1, 19833, Note_off_c, 4, 53, 64
1, 19834, Note_off_c, 4, 58, 64
1, 19834, Note_off_c, 11, 77, 64
1, 19836, Pitch_bend_c, 11, 4480
1, 19839, Note_off_c, 1, 34, 64
1, 19840, Pitch_bend_c, 11, 2688
1, 19843, Pitch_bend_c, 11, 768
1, 19844, Note_off_c, 11, 82, 64
1, 19871, Note_on_c, 9, 56, 72
1, 19872, Note_on_c, 4, 56, 74
1, 19873, Note_on_c, 4, 61, 75
1, 19873, Note_on_c, 9, 42, 94
1, 19873, Note_on_c, 9, 40, 94
1, 19874, Note_off_c, 9, 56, 64
1, 19876, Note_off_c, 9, 40, 64
1, 19876, Note_off_c, 9, 42, 64
1, 19880, Note_off_c, 4, 56, 64
1, 19881, Note_off_c, 4, 61, 64
1, 19920, Note_on_c, 1, 39, 100
1, 19920, Note_on_c, 4, 58, 90
1, 19920, Note_on_c, 4, 63, 90
1, 19922, Note_on_c, 9, 44, 73
1, 19925, Note_off_c, 9, 44, 64
1, 19928, Note_off_c, 4, 63, 64
1, 19928, Note_off_c, 4, 58, 64
1, 19945, Note_on_c, 10, 65, 91
1, 19965, Note_on_c, 3, 68, 117
1, 19968, Note_off_c, 2, 46, 64
1, 19968, Note_on_c, 4, 58, 54
1, 19968, Note_on_c, 4, 63, 54
1, 19968, Note_on_c, 9, 36, 94
1, 19968, Note_on_c, 9, 56, 72
1, 19968, Note_on_c, 9, 42, 94
1, 19970, Note_on_c, 2, 39, 74
1, 19971, Note_off_c, 9, 42, 64
1, 19971, Note_off_c, 9, 56, 64
1, 19971, Note_off_c, 9, 36, 64
1, 19975, Note_off_c, 1, 39, 64
1, 19976, Note_off_c, 4, 63, 64
1, 19976, Note_off_c, 4, 58, 64
1, 19982, Note_off_c, 3, 68, 64
1, 19994, Note_on_c, 10, 68, 123
1, 20012, Note_off_c, 10, 65, 64
1, 20013, Note_on_c, 1, 39, 100
1, 20013, Note_on_c, 3, 68, 82
1, 20016, Note_on_c, 4, 58, 98
1, 20016, Note_on_c, 4, 63, 98
1, 20016, Note_on_c, 9, 44, 73
1, 20019, Note_off_c, 9, 44, 64
1, 20024, Note_off_c, 4, 63, 64
1, 20024, Note_off_c, 4, 58, 64
1, 20025, Note_off_c, 3, 68, 64
1, 20039, Note_off_c, 10, 68, 64
1, 20041, Note_on_c, 10, 68, 88
1, 20052, Note_off_c, 1, 39, 64
1, 20059, Note_on_c, 3, 68, 117
1, 20063, Note_on_c, 1, 49, 100
1, 20063, Note_on_c, 9, 42, 94
1, 20063, Note_on_c, 9, 56, 72
1, 20064, Note_on_c, 4, 63, 77
1, 20064, Note_on_c, 4, 58, 77
1, 20065, Note_on_c, 9, 40, 94
1, 20066, Note_off_c, 9, 56, 64
1, 20066, Note_off_c, 9, 42, 64
1, 20068, Note_off_c, 9, 40, 64
1, 20072, Note_off_c, 4, 58, 64
1, 20072, Note_off_c, 4, 63, 64
1, 20073, Note_off_c, 3, 68, 64
1, 20082, Note_off_c, 10, 68, 64
1, 20087, Note_on_c, 10, 68, 123
1, 20102, Note_off_c, 1, 49, 64
1, 20107, Note_on_c, 3, 68, 73
1, 20111, Note_on_c, 1, 39, 75
1, 20112, Note_on_c, 4, 63, 93
1, 20112, Note_on_c, 4, 58, 93
1, 20112, Note_on_c, 9, 44, 73
1, 20115, Note_off_c, 9, 44, 64
1, 20120, Note_off_c, 4, 58, 64
1, 20120, Note_off_c, 4, 63, 64
1, 20122, Note_off_c, 3, 68, 64
1, 20126, Note_off_c, 1, 39, 64
1, 20130, Note_off_c, 10, 68, 64
1, 20136, Note_on_c, 10, 68, 79
1, 20155, Note_on_c, 3, 70, 103
1, 20158, Note_on_c, 1, 49, 100
1, 20158, Note_on_c, 9, 56, 72
1, 20160, Note_on_c, 4, 63, 90
1, 20160, Note_on_c, 4, 58, 90
1, 20160, Note_on_c, 9, 36, 94
1, 20161, Note_off_c, 9, 56, 64
1, 20162, Note_on_c, 9, 42, 94
1, 20163, Note_off_c, 9, 36, 64
1, 20165, Note_off_c, 9, 42, 64
1, 20168, Note_off_c, 4, 58, 64
1, 20168, Note_off_c, 4, 63, 64
1, 20169, Pitch_bend_c, 1, 16383
1, 20179, Note_off_c, 10, 68, 64
1, 20183, Note_on_c, 10, 70, 109
1, 20197, Note_off_c, 1, 49, 64
1, 20201, Note_off_c, 3, 70, 64
1, 20204, Pitch_bend_c, 1, 8192
1, 20204, Note_on_c, 3, 65, 82
1, 20205, Note_on_c, 1, 29, 90
1, 20208, Note_on_c, 4, 63, 91
1, 20208, Note_on_c, 4, 58, 91
1, 20209, Note_on_c, 9, 44, 73
1, 20212, Note_off_c, 9, 44, 64
1, 20216, Note_off_c, 4, 58, 64
1, 20216, Note_off_c, 4, 63, 64
1, 20220, Note_off_c, 1, 29, 64
1, 20233, Note_on_c, 10, 65, 88
1, 20243, Note_off_c, 3, 65, 64
1, 20249, Note_on_c, 3, 68, 103
1, 20254, Note_on_c, 1, 32, 91
1, 20256, Note_on_c, 4, 63, 97
1, 20256, Note_on_c, 4, 58, 97
1, 20257, Note_on_c, 9, 42, 94
1, 20257, Note_on_c, 9, 40, 94
1, 20258, Note_off_c, 10, 70, 64
1, 20260, Note_off_c, 9, 40, 64
1, 20260, Note_off_c, 9, 42, 64
1, 20264, Note_off_c, 4, 58, 64
1, 20264, Note_off_c, 4, 63, 64
1, 20277, Note_off_c, 3, 68, 64
1, 20278, Note_on_c, 10, 68, 109
1, 20285, Note_off_c, 1, 32, 64
1, 20299, Note_on_c, 3, 70, 126
1, 20300, Note_off_c, 10, 65, 64
1, 20301, Note_on_c, 1, 34, 100
1, 20304, Note_on_c, 4, 58, 77
1, 20304, Note_on_c, 4, 63, 77
1, 20306, Note_on_c, 9, 44, 73
1, 20309, Note_off_c, 9, 44, 64
1, 20312, Note_off_c, 4, 63, 64
1, 20312, Note_off_c, 4, 58, 64
1, 20327, Note_on_c, 10, 70, 127
1, 20334, Note_off_c, 10, 68, 64
1, 20350, Note_on_c, 2, 46, 74
1, 20352, Note_off_c, 2, 39, 64
1, 20352, Note_on_c, 4, 58, 60
1, 20352, Note_on_c, 4, 53, 60
1, 20352, Note_on_c, 9, 36, 94
1, 20352, Note_on_c, 9, 42, 94
1, 20352, Note_on_c, 9, 56, 72
1, 20355, Note_off_c, 9, 56, 64
1, 20355, Note_off_c, 9, 42, 64
1, 20355, Note_off_c, 9, 36, 64
1, 20356, Note_off_c, 1, 34, 64
1, 20360, Note_off_c, 4, 53, 64
1, 20360, Note_off_c, 4, 58, 64
1, 20367, Note_off_c, 3, 70, 64
1, 20389, Note_off_c, 10, 70, 64
1, 20397, Note_on_c, 1, 34, 100
1, 20398, Pitch_bend_c, 5, 8314
1, 20399, Note_on_c, 5, 73, 94
1, 20400, Note_on_c, 9, 44, 73
1, 20402, Note_on_c, 4, 58, 94
1, 20402, Note_on_c, 4, 53, 94
1, 20403, Note_off_c, 9, 44, 64
1, 20410, Note_off_c, 4, 53, 64
1, 20410, Note_off_c, 4, 58, 64
1, 20422, Note_on_c, 10, 70, 109
1, 20436, Note_off_c, 1, 34, 64
1, 20447, Note_on_c, 1, 44, 100
1, 20447, Note_on_c, 4, 58, 84
1, 20447, Note_on_c, 4, 53, 84
1, 20447, Note_on_c, 9, 42, 94
1, 20449, Note_on_c, 9, 40, 94
1, 20450, Note_off_c, 9, 42, 64
1, 20452, Note_off_c, 9, 40, 64
1, 20453, Pitch_bend_c, 5, 8582
1, 20455, Note_off_c, 4, 53, 64
1, 20455, Note_off_c, 4, 58, 64
1, 20456, Pitch_bend_c, 5, 8972
1, 20460, Pitch_bend_c, 5, 9622
1, 20466, Pitch_bend_c, 5, 10012
1, 20470, Pitch_bend_c, 5, 10532
1, 20474, Pitch_bend_c, 5, 11572
1, 20480, Pitch_bend_c, 5, 12352
1, 20484, Pitch_bend_c, 5, 13132
1, 20486, Note_off_c, 1, 44, 64
1, 20488, Pitch_bend_c, 5, 13912
1, 20492, Note_on_c, 4, 58, 97
1, 20492, Note_on_c, 4, 53, 97
1, 20492, Pitch_bend_c, 5, 14302
1, 20494, Note_on_c, 1, 34, 71
1, 20494, Note_off_c, 10, 70, 64
1, 20496, Note_on_c, 9, 44, 73
1, 20498, Note_off_c, 5, 73, 64
1, 20499, Pitch_bend_c, 5, 8192
1, 20499, Note_off_c, 9, 44, 64
1, 20500, Note_off_c, 4, 53, 64
1, 20500, Note_off_c, 4, 58, 64
1, 20500, Note_on_c, 5, 70, 94
1, 20509, Note_off_c, 1, 34, 64
1, 20541, Note_on_c, 1, 44, 100
1, 20541, Pitch_bend_c, 11, 8192
1, 20542, Note_on_c, 11, 63, 64
1, 20543, Note_on_c, 4, 58, 86
1, 20543, Note_on_c, 4, 53, 86
1, 20543, Note_on_c, 9, 56, 72
1, 20544, Note_on_c, 9, 36, 94
1, 20546, Note_off_c, 9, 56, 64
1, 20546, Note_on_c, 9, 42, 94
1, 20547, Note_off_c, 9, 36, 64
1, 20549, Note_off_c, 9, 42, 64
1, 20551, Note_off_c, 4, 53, 64
1, 20551, Note_off_c, 4, 58, 64
1, 20554, Pitch_bend_c, 11, 8842
1, 20558, Pitch_bend_c, 1, 16383
1, 20558, Pitch_bend_c, 11, 9882
1, 20562, Pitch_bend_c, 11, 11052
1, 20565, Pitch_bend_c, 11, 11702
1, 20567, Pitch_bend_c, 11, 12872
1, 20571, Pitch_bend_c, 11, 13652
1, 20575, Pitch_bend_c, 11, 14172
1, 20579, Pitch_bend_c, 11, 14302
1, 20580, Note_off_c, 1, 44, 64
1, 20581, Pitch_bend_c, 11, 14432
1, 20589, Pitch_bend_c, 1, 8192
1, 20590, Note_on_c, 1, 34, 93
1, 20591, Pitch_bend_c, 11, 14302
1, 20593, Note_on_c, 4, 53, 94
1, 20593, Note_on_c, 9, 44, 73
1, 20593, Pitch_bend_c, 11, 13782
1, 20594, Note_on_c, 4, 58, 94
1, 20595, Pitch_bend_c, 11, 13132
1, 20596, Note_off_c, 9, 44, 64
1, 20599, Pitch_bend_c, 11, 11832
1, 20601, Note_off_c, 4, 53, 64
1, 20602, Note_off_c, 4, 58, 64
1, 20603, Pitch_bend_c, 11, 10272
1, 20607, Pitch_bend_c, 11, 9232
1, 20610, Pitch_bend_c, 11, 8192
1, 20628, Pitch_bend_c, 5, 7936
1, 20632, Pitch_bend_c, 5, 7808
1, 20635, Pitch_bend_c, 5, 7680
1, 20638, Pitch_bend_c, 5, 7552
1, 20638, Note_on_c, 11, 61, 64
1, 20640, Note_on_c, 4, 53, 92
1, 20640, Note_on_c, 4, 58, 92
1, 20641, Note_on_c, 9, 42, 94
1, 20641, Note_on_c, 9, 40, 94
1, 20642, Pitch_bend_c, 5, 7168
1, 20642, Note_off_c, 11, 63, 64
1, 20644, Note_off_c, 9, 40, 64
1, 20644, Note_off_c, 9, 42, 64
1, 20645, Note_off_c, 1, 34, 64
1, 20645, Pitch_bend_c, 5, 6912
1, 20647, Note_off_c, 4, 53, 64
1, 20648, Note_off_c, 4, 58, 64
1, 20649, Pitch_bend_c, 5, 6400
1, 20655, Pitch_bend_c, 5, 5888
1, 20659, Pitch_bend_c, 5, 5376
1, 20663, Pitch_bend_c, 5, 4890
1, 20666, Pitch_bend_c, 5, 3912
1, 20669, Pitch_bend_c, 5, 3178
1, 20672, Note_off_c, 11, 61, 64
1, 20677, Note_off_c, 5, 70, 64
1, 20686, Note_on_c, 1, 32, 100
1, 20689, Note_on_c, 4, 53, 92
1, 20689, Note_on_c, 11, 63, 64
1, 20690, Note_on_c, 4, 58, 92
1, 20690, Note_on_c, 9, 44, 73
1, 20693, Note_off_c, 9, 44, 64
1, 20696, Note_off_c, 4, 53, 64
1, 20697, Note_off_c, 4, 58, 64
1, 20702, Pitch_bend_c, 1, 16383
1, 20736, Note_on_c, 4, 58, 60
1, 20736, Note_on_c, 4, 53, 60
1, 20736, Note_on_c, 9, 36, 94
1, 20736, Note_on_c, 9, 42, 94
1, 20736, Note_on_c, 9, 56, 72
1, 20739, Note_off_c, 9, 56, 64
1, 20739, Note_off_c, 9, 42, 64
1, 20739, Note_off_c, 9, 36, 64
1, 20741, Note_off_c, 1, 32, 64
1, 20744, Note_off_c, 4, 53, 64
1, 20744, Note_off_c, 4, 58, 64
1, 20744, Pitch_bend_c, 5, 8192
1, 20760, Pitch_bend_c, 11, 8452
1, 20766, Pitch_bend_c, 11, 8582
1, 20770, Pitch_bend_c, 11, 8842
1, 20776, Pitch_bend_c, 11, 8972
1, 20778, Pitch_bend_c, 11, 9102
1, 20781, Pitch_bend_c, 1, 8192
1, 20782, Note_on_c, 1, 34, 100
1, 20782, Pitch_bend_c, 11, 9232
1, 20784, Note_on_c, 9, 44, 73
1, 20784, Pitch_bend_c, 11, 9362
1, 20786, Note_on_c, 4, 58, 94
1, 20786, Note_on_c, 4, 53, 94
1, 20787, Note_off_c, 9, 44, 64
1, 20788, Pitch_bend_c, 11, 9622
1, 20794, Note_off_c, 4, 53, 64
1, 20794, Note_off_c, 4, 58, 64
1, 20794, Pitch_bend_c, 11, 9752
1, 20796, Pitch_bend_c, 11, 10012
1, 20800, Pitch_bend_c, 11, 10142
1, 20802, Pitch_bend_c, 11, 10272
1, 20806, Pitch_bend_c, 11, 10532
1, 20812, Pitch_bend_c, 11, 10662
1, 20814, Pitch_bend_c, 11, 10792
1, 20816, Pitch_bend_c, 11, 11052
1, 20820, Pitch_bend_c, 11, 11442
1, 20821, Note_off_c, 1, 34, 64
1, 20823, Pitch_bend_c, 11, 11702
1, 20827, Pitch_bend_c, 11, 11962
1, 20829, Note_on_c, 1, 44, 100
1, 20831, Note_on_c, 4, 58, 84
1, 20831, Note_on_c, 4, 53, 84
1, 20831, Note_on_c, 9, 42, 94
1, 20831, Pitch_bend_c, 11, 12092
1, 20833, Note_on_c, 9, 40, 94
1, 20834, Note_off_c, 9, 42, 64
1, 20834, Pitch_bend_c, 11, 12352
1, 20836, Note_off_c, 9, 40, 64
1, 20837, Pitch_bend_c, 11, 12612
1, 20839, Note_off_c, 4, 53, 64
1, 20839, Note_off_c, 4, 58, 64
1, 20841, Pitch_bend_c, 11, 12872
1, 20845, Pitch_bend_c, 11, 13002
1, 20847, Pitch_bend_c, 11, 13132
1, 20851, Pitch_bend_c, 11, 13392
1, 20855, Pitch_bend_c, 11, 13522
1, 20859, Pitch_bend_c, 11, 13782
1, 20865, Pitch_bend_c, 11, 13912
1, 20869, Pitch_bend_c, 11, 14172
1, 20875, Pitch_bend_c, 11, 14302
1, 20876, Note_on_c, 4, 58, 97
1, 20876, Note_on_c, 4, 53, 97
1, 20877, Pitch_bend_c, 11, 14432
1, 20879, Pitch_bend_c, 11, 14692
1, 20880, Note_on_c, 9, 44, 73
1, 20883, Note_off_c, 9, 44, 64
1, 20884, Note_off_c, 1, 44, 64
1, 20884, Note_off_c, 4, 53, 64
1, 20884, Note_off_c, 4, 58, 64
1, 20884, Pitch_bend_c, 11, 14822
1, 20887, Pitch_bend_c, 11, 14952
1, 20890, Pitch_bend_c, 11, 15082
1, 20893, Pitch_bend_c, 11, 15212
1, 20896, Pitch_bend_c, 11, 15342
1, 20900, Pitch_bend_c, 11, 15472
1, 20906, Pitch_bend_c, 11, 15602
1, 20923, Note_on_c, 1, 44, 100
1, 20927, Note_on_c, 4, 58, 86
1, 20927, Note_on_c, 4, 53, 86
1, 20927, Note_on_c, 9, 56, 72
1, 20928, Note_on_c, 9, 36, 94
1, 20930, Note_off_c, 9, 56, 64
1, 20930, Note_on_c, 9, 42, 94
1, 20931, Note_off_c, 9, 36, 64
1, 20933, Note_off_c, 9, 42, 64
1, 20935, Note_off_c, 4, 53, 64
1, 20935, Note_off_c, 4, 58, 64
1, 20942, Pitch_bend_c, 1, 16383
1, 20956, Note_off_c, 1, 44, 64
1, 20972, Pitch_bend_c, 1, 8192
1, 20973, Note_on_c, 1, 29, 91
1, 20973, Note_on_c, 3, 65, 85
1, 20977, Note_on_c, 4, 53, 94
1, 20977, Note_on_c, 9, 44, 73
1, 20978, Note_on_c, 4, 58, 94
1, 20980, Note_off_c, 9, 44, 64
1, 20985, Note_off_c, 4, 53, 64
1, 20986, Note_off_c, 4, 58, 64
1, 20996, Note_off_c, 1, 29, 64
1, 21002, Note_on_c, 10, 65, 91
1, 21020, Note_on_c, 3, 68, 103
1, 21022, Note_on_c, 1, 32, 94
1, 21024, Note_on_c, 4, 53, 92
1, 21024, Note_on_c, 4, 58, 92
1, 21025, Note_on_c, 9, 42, 94
1, 21025, Note_on_c, 9, 40, 94
1, 21026, Note_off_c, 11, 63, 64
1, 21028, Note_off_c, 3, 65, 64
1, 21028, Note_off_c, 9, 40, 64
1, 21028, Note_off_c, 9, 42, 64
1, 21031, Note_off_c, 4, 53, 64
1, 21032, Note_off_c, 4, 58, 64
1, 21049, Note_on_c, 10, 68, 109
1, 21053, Note_off_c, 3, 68, 64
1, 21061, Note_off_c, 1, 32, 64
1, 21069, Note_on_c, 3, 70, 120
1, 21071, Note_on_c, 1, 34, 100
1, 21073, Note_on_c, 4, 53, 92
1, 21074, Note_on_c, 4, 58, 92
1, 21074, Note_on_c, 9, 44, 73
1, 21077, Note_off_c, 9, 44, 64
1, 21080, Note_off_c, 4, 53, 64
1, 21081, Note_off_c, 4, 58, 64
1, 21085, Note_off_c, 10, 65, 64
1, 21097, Note_on_c, 10, 70, 126
1, 21110, Note_off_c, 10, 68, 64
1, 21120, Note_on_c, 4, 58, 94
1, 21120, Note_on_c, 4, 53, 94
1, 21120, Note_on_c, 9, 36, 94
1, 21120, Note_on_c, 9, 42, 94
1, 21120, Note_on_c, 9, 56, 72
1, 21123, Note_off_c, 9, 56, 64
1, 21123, Note_off_c, 9, 42, 64
1, 21123, Note_off_c, 9, 36, 64
1, 21126, Note_off_c, 1, 34, 64
1, 21128, Note_off_c, 4, 53, 64
1, 21128, Note_off_c, 4, 58, 64
1, 21138, Note_off_c, 3, 70, 64
1, 21158, Note_off_c, 10, 70, 64
1, 21168, Note_on_c, 1, 34, 49
1, 21168, Note_on_c, 9, 44, 73
1, 21170, Note_on_c, 4, 58, 94
1, 21170, Note_on_c, 4, 53, 94
1, 21171, Note_off_c, 9, 44, 64
1, 21175, Note_off_c, 1, 34, 64
1, 21178, Note_off_c, 4, 53, 64
1, 21178, Note_off_c, 4, 58, 64
1, 21215, Note_on_c, 1, 44, 100
1, 21215, Note_on_c, 4, 58, 94
1, 21215, Note_on_c, 4, 53, 94
1, 21215, Note_on_c, 9, 42, 94
1, 21217, Note_on_c, 9, 40, 94
1, 21218, Note_off_c, 9, 42, 64
1, 21220, Note_off_c, 9, 40, 64
1, 21223, Note_off_c, 4, 53, 64
1, 21223, Note_off_c, 4, 58, 64
1, 21254, Note_off_c, 1, 44, 64
1, 21260, Note_on_c, 4, 58, 94
1, 21260, Note_on_c, 4, 53, 94
1, 21260, Pitch_bend_c, 11, 8192
1, 21261, Note_on_c, 11, 82, 64
1, 21263, Note_on_c, 11, 77, 64
1, 21264, Note_on_c, 9, 44, 73
1, 21267, Note_off_c, 9, 44, 64
1, 21268, Note_on_c, 1, 34, 89
1, 21268, Note_off_c, 4, 53, 64
1, 21268, Note_off_c, 4, 58, 64
1, 21283, Note_off_c, 1, 34, 64
1, 21311, Note_on_c, 1, 44, 100
1, 21311, Note_on_c, 4, 58, 94
1, 21311, Note_on_c, 4, 53, 94
1, 21311, Note_on_c, 9, 56, 72
1, 21312, Note_on_c, 9, 36, 94
1, 21314, Note_off_c, 9, 56, 64
1, 21314, Note_on_c, 9, 42, 94
1, 21315, Note_off_c, 9, 36, 64
1, 21317, Note_off_c, 9, 42, 64
1, 21319, Note_off_c, 4, 53, 64
1, 21319, Note_off_c, 4, 58, 64
1, 21326, Pitch_bend_c, 1, 16383
1, 21350, Note_off_c, 1, 44, 64
1, 21359, Pitch_bend_c, 1, 8192
1, 21360, Note_on_c, 1, 34, 88
1, 21361, Note_on_c, 4, 53, 94
1, 21361, Note_on_c, 9, 44, 73
1, 21362, Note_on_c, 4, 58, 94
1, 21364, Note_off_c, 9, 44, 64
1, 21369, Note_off_c, 4, 53, 64
1, 21370, Note_off_c, 4, 58, 64
1, 21375, Note_off_c, 1, 34, 64
1, 21408, Note_on_c, 1, 37, 76
1, 21408, Note_on_c, 4, 56, 74
1, 21409, Note_on_c, 4, 61, 75
1, 21409, Note_on_c, 9, 42, 94
1, 21409, Note_on_c, 9, 40, 94
1, 21412, Note_off_c, 9, 40, 64
1, 21412, Note_off_c, 9, 42, 64
1, 21415, Note_off_c, 11, 77, 64
1, 21415, Note_off_c, 11, 82, 64
1, 21416, Note_off_c, 4, 56, 64
1, 21417, Note_off_c, 4, 61, 64
1, 21423, Note_off_c, 1, 37, 64
1, 21456, Note_on_c, 1, 39, 88
1, 21456, Note_on_c, 4, 58, 90
1, 21456, Note_on_c, 4, 63, 90
1, 21458, Note_on_c, 3, 65, 103
1, 21458, Note_on_c, 9, 44, 73
1, 21461, Note_off_c, 9, 44, 64
1, 21464, Note_off_c, 4, 63, 64
1, 21464, Note_off_c, 4, 58, 64
1, 21486, Note_on_c, 10, 65, 109
1, 21500, Note_on_c, 3, 68, 120
1, 21504, Note_on_c, 4, 58, 54
1, 21504, Note_on_c, 4, 63, 54
1, 21504, Note_on_c, 9, 36, 94
1, 21504, Note_on_c, 9, 42, 94
1, 21505, Note_off_c, 3, 65, 64
1, 21507, Note_off_c, 2, 46, 64
1, 21507, Note_off_c, 9, 42, 64
1, 21507, Note_off_c, 9, 36, 64
1, 21512, Note_off_c, 4, 63, 64
1, 21512, Note_off_c, 4, 58, 64
1, 21514, Note_off_c, 3, 68, 64
1, 21528, Note_on_c, 10, 68, 126
1, 21549, Note_on_c, 3, 68, 85
1, 21551, Note_off_c, 1, 39, 64
1, 21560, Note_off_c, 3, 68, 64
1, 21562, Note_off_c, 10, 65, 64
1, 21571, Note_off_c, 10, 68, 64
1, 21578, Note_on_c, 10, 68, 91
1, 21595, Note_on_c, 3, 68, 103
1, 21600, Note_on_c, 9, 56, 72
1, 21603, Note_off_c, 9, 56, 64
1, 21608, Note_off_c, 3, 68, 64
1, 21617, Note_off_c, 10, 68, 64
1, 21623, Note_on_c, 10, 68, 109
1, 21644, Note_on_c, 3, 68, 85
1, 21660, Note_off_c, 3, 68, 64
1, 21665, Note_off_c, 10, 68, 64
1, 21673, Note_on_c, 10, 68, 91
1, 21692, Note_on_c, 3, 70, 120
1, 21697, Note_on_c, 9, 56, 72
1, 21700, Note_off_c, 9, 56, 64
1, 21717, Note_off_c, 10, 68, 64
1, 21720, Note_on_c, 10, 70, 126
1, 21733, Note_off_c, 3, 70, 64
1, 21737, Note_on_c, 3, 65, 94
1, 21766, Note_on_c, 10, 65, 100
1, 21785, Note_off_c, 3, 65, 64
1, 21785, Note_on_c, 3, 68, 103
1, 21790, Note_off_c, 10, 70, 64
1, 21793, Note_on_c, 9, 56, 72
1, 21796, Note_off_c, 9, 56, 64
1, 21814, Note_on_c, 10, 68, 109
1, 21831, Note_off_c, 3, 68, 64
1, 21836, Note_on_c, 3, 70, 111
1, 21842, Note_off_c, 10, 65, 64
1, 21864, Note_on_c, 10, 70, 117
1, 21888, Note_on_c, 9, 36, 94
1, 21888, Note_on_c, 9, 42, 94
1, 21888, Note_off_c, 10, 68, 64
1, 21889, Note_off_c, 3, 70, 64
1, 21890, Note_on_c, 9, 56, 72
1, 21891, Note_off_c, 9, 42, 64
1, 21891, Note_off_c, 9, 36, 64
1, 21893, Note_off_c, 9, 56, 64
1, 21913, Note_off_c, 10, 70, 64
1, 21936, Note_on_c, 9, 44, 73
1, 21939, Note_off_c, 9, 44, 64
1, 21983, Note_on_c, 9, 42, 94
1, 21985, Note_on_c, 9, 40, 94
1, 21986, Note_off_c, 9, 42, 64
1, 21988, Note_off_c, 9, 40, 64
1, 22029, Note_on_c, 11, 63, 64
1, 22032, Note_on_c, 9, 44, 73
1, 22035, Note_off_c, 9, 44, 64
1, 22051, Pitch_bend_c, 11, 8582
1, 22052, Pitch_bend_c, 11, 9492
1, 22056, Pitch_bend_c, 11, 10012
1, 22058, Pitch_bend_c, 11, 11312
1, 22062, Pitch_bend_c, 11, 12612
1, 22066, Pitch_bend_c, 11, 13392
1, 22070, Pitch_bend_c, 11, 13652
1, 22072, Pitch_bend_c, 11, 14042
1, 22076, Pitch_bend_c, 11, 14302
1, 22080, Note_on_c, 9, 36, 94
1, 22080, Pitch_bend_c, 11, 14562
1, 22082, Note_on_c, 9, 42, 94
1, 22083, Note_off_c, 9, 36, 64
1, 22085, Note_off_c, 9, 42, 64
1, 22085, Note_on_c, 9, 56, 72
1, 22086, Pitch_bend_c, 11, 13782
1, 22087, Pitch_bend_c, 11, 9622
1, 22088, Note_off_c, 9, 56, 64
1, 22090, Pitch_bend_c, 11, 8192
1, 22123, Note_on_c, 11, 61, 64
1, 22129, Note_on_c, 9, 44, 73
1, 22132, Note_off_c, 9, 44, 64
1, 22133, Note_off_c, 11, 63, 64
1, 22166, Note_off_c, 11, 61, 64
1, 22176, Note_on_c, 11, 56, 64
1, 22177, Note_on_c, 9, 42, 94
1, 22177, Note_on_c, 9, 40, 94
1, 22180, Note_off_c, 9, 40, 64
1, 22180, Note_off_c, 9, 42, 64
1, 22214, Note_off_c, 11, 56, 64
1, 22222, Note_on_c, 11, 58, 64
1, 22226, Note_on_c, 9, 44, 73
1, 22229, Note_off_c, 9, 44, 64
1, 22272, Note_on_c, 9, 36, 94
1, 22272, Note_on_c, 9, 42, 94
1, 22272, Note_on_c, 9, 56, 72
1, 22275, Note_off_c, 9, 56, 64
1, 22275, Note_off_c, 9, 42, 64
1, 22275, Note_off_c, 9, 36, 64
1, 22338, Pitch_bend_c, 11, 7808
1, 22342, Pitch_bend_c, 11, 7552
1, 22348, Pitch_bend_c, 11, 7424
1, 22350, Pitch_bend_c, 11, 7296
1, 22354, Pitch_bend_c, 11, 7168
1, 22358, Pitch_bend_c, 11, 7040
1, 22360, Pitch_bend_c, 11, 6912
1, 22366, Pitch_bend_c, 11, 6784
1, 22371, Pitch_bend_c, 11, 6656
1, 22378, Pitch_bend_c, 11, 6528
1, 22383, Pitch_bend_c, 11, 6400
1, 22393, Pitch_bend_c, 11, 6272
1, 22399, Pitch_bend_c, 11, 6144
1, 22405, Pitch_bend_c, 11, 6016
1, 22411, Pitch_bend_c, 11, 5888
1, 22415, Pitch_bend_c, 11, 5760
1, 22419, Pitch_bend_c, 11, 5632
1, 22423, Pitch_bend_c, 11, 5504
1, 22427, Pitch_bend_c, 11, 5376
1, 22432, Note_on_c, 12, 47, 127
1, 22433, Pitch_bend_c, 11, 5248
1, 22440, Pitch_bend_c, 11, 5120
1, 22446, Pitch_bend_c, 11, 4992
1, 22450, Pitch_bend_c, 11, 4864
1, 22454, Pitch_bend_c, 11, 4736
1, 22458, Pitch_bend_c, 11, 4480
1, 22464, Pitch_bend_c, 11, 4096
1, 22470, Pitch_bend_c, 11, 3968
1, 22472, Note_on_c, 2, 88, 89
1, 22472, Pitch_bend_c, 11, 3840
1, 22473, Note_on_c, 2, 86, 89
1, 22476, Note_off_c, 2, 88, 64
1, 22476, Pitch_bend_c, 11, 3712
1, 22477, Note_off_c, 2, 86, 64
1, 22479, Note_on_c, 2, 84, 87
1, 22480, Pitch_bend_c, 11, 3584
1, 22482, Pitch_bend_c, 11, 3328
1, 22483, Note_off_c, 2, 84, 64
1, 22484, Note_on_c, 2, 83, 86
1, 22486, Pitch_bend_c, 11, 3072
1, 22488, Note_off_c, 2, 83, 64
1, 22489, Note_on_c, 2, 81, 85
1, 22490, Pitch_bend_c, 11, 2816
1, 22493, Note_off_c, 2, 81, 64
1, 22494, Note_on_c, 2, 79, 84
1, 22494, Pitch_bend_c, 11, 2560
1, 22496, Pitch_bend_c, 11, 2304
1, 22498, Note_off_c, 2, 79, 64
1, 22499, Note_on_c, 2, 77, 83
1, 22500, Pitch_bend_c, 11, 2048
1, 22503, Note_off_c, 2, 77, 64
1, 22503, Pitch_bend_c, 11, 1664
1, 22507, Pitch_bend_c, 11, 1408
1, 22508, Note_on_c, 2, 76, 81
1, 22511, Pitch_bend_c, 11, 1280
1, 22512, Note_off_c, 2, 76, 64
1, 22514, Note_on_c, 2, 74, 80
1, 22514, Pitch_bend_c, 11, 896
1, 22517, Pitch_bend_c, 11, 640
1, 22518, Note_off_c, 2, 74, 64
1, 22521, Note_on_c, 2, 72, 78
1, 22521, Pitch_bend_c, 11, 256
1, 22525, Note_off_c, 2, 72, 64
1, 22525, Note_on_c, 2, 71, 78
1, 22525, Pitch_bend_c, 11, 128
1, 22527, Pitch_bend_c, 11, 0
1, 22529, Note_off_c, 2, 71, 64
1, 22530, Note_on_c, 2, 69, 77
1, 22534, Note_off_c, 2, 69, 64
1, 22536, Note_on_c, 2, 67, 75
1, 22538, Note_on_c, 2, 71, 75
1, 22540, Note_off_c, 2, 67, 64
1, 22540, Note_on_c, 2, 65, 74
1, 22542, Note_off_c, 2, 71, 64
1, 22544, Note_off_c, 2, 65, 64
1, 22545, Note_on_c, 2, 64, 73
1, 22547, Note_off_c, 11, 58, 64
1, 22549, Note_off_c, 2, 64, 64
1, 22550, Note_on_c, 2, 62, 72
1, 22554, Note_off_c, 2, 62, 64
1, 22554, Note_on_c, 9, 40, 87
1, 22555, Note_on_c, 2, 60, 71
1, 22557, Note_off_c, 9, 40, 64
1, 22559, Note_off_c, 2, 60, 64
1, 22559, Note_off_c, 12, 47, 64
1, 22564, Note_on_c, 2, 59, 74
1, 22568, Note_off_c, 2, 59, 64
1, 22568, Note_on_c, 2, 62, 74
1, 22570, Note_on_c, 2, 64, 75
1, 22572, Note_off_c, 2, 62, 64
1, 22574, Note_off_c, 2, 64, 64
1, 22576, Note_on_c, 2, 65, 76
1, 22580, Note_off_c, 2, 65, 64
1, 22583, Note_on_c, 2, 67, 77
1, 22587, Note_off_c, 2, 67, 64
1, 22590, Note_on_c, 2, 69, 78
1, 22594, Note_off_c, 2, 69, 64
1, 22597, Note_on_c, 2, 71, 79
1, 22601, Note_off_c, 2, 71, 64
1, 22605, Note_on_c, 2, 72, 80
1, 22608, Note_on_c, 9, 42, 96
1, 22609, Note_off_c, 2, 72, 64
1, 22610, Note_on_c, 2, 74, 81
1, 22611, Note_off_c, 9, 42, 64
1, 22614, Note_off_c, 2, 74, 64
1, 22616, Note_on_c, 2, 76, 82
1, 22620, Note_off_c, 2, 76, 64
1, 22622, Note_on_c, 2, 77, 83
1, 22626, Note_off_c, 2, 77, 64
1, 22626, Note_on_c, 2, 79, 83
1, 22630, Note_off_c, 2, 79, 64
1, 22632, Note_on_c, 2, 81, 84
1, 22636, Note_off_c, 2, 81, 64
1, 22636, Note_on_c, 2, 83, 85
1, 22640, Note_off_c, 2, 83, 64
1, 22640, Note_on_c, 2, 84, 85
1, 22644, Note_off_c, 2, 84, 64
1, 22645, Note_on_c, 2, 86, 86
1, 22649, Note_off_c, 2, 86, 64
1, 22649, Note_on_c, 2, 88, 87
1, 22653, Note_off_c, 2, 88, 64
1, 22655, Note_on_c, 2, 89, 88
1, 22655, Pitch_bend_c, 3, 489
1, 22655, Pitch_bend_c, 11, 8192
1, 22656, Note_on_c, 1, 34, 94
1, 22656, Note_on_c, 3, 70, 103
1, 22656, Note_on_c, 9, 36, 94
1, 22656, Note_on_c, 9, 42, 94
1, 22656, Note_on_c, 9, 56, 72
1, 22656, Note_on_c, 11, 77, 64
1, 22657, Note_on_c, 2, 77, 94
1, 22657, Note_on_c, 2, 80, 94
1, 22657, Note_on_c, 9, 55, 94
1, 22658, Note_off_c, 2, 89, 64
1, 22658, Note_on_c, 2, 74, 94
1, 22658, Note_on_c, 2, 82, 94
1, 22658, Note_on_c, 9, 57, 94
1, 22659, Note_off_c, 9, 56, 64
1, 22659, Note_off_c, 9, 36, 64
1, 22659, Note_off_c, 9, 42, 64
1, 22660, Pitch_bend_c, 3, 1772
1, 22660, Note_off_c, 9, 55, 64
1, 22661, Note_off_c, 9, 57, 64
1, 22663, Note_off_c, 2, 82, 64
1, 22664, Pitch_bend_c, 3, 3056
1, 22666, Note_off_c, 2, 74, 64
1, 22667, Note_off_c, 2, 80, 64
1, 22668, Pitch_bend_c, 3, 4340
1, 22670, Note_off_c, 2, 77, 64
1, 22672, Pitch_bend_c, 3, 5624
1, 22676, Pitch_bend_c, 3, 6907
1, 22680, Pitch_bend_c, 3, 8192
1, 22683, Pitch_bend_c, 10, 489
1, 22684, Note_on_c, 10, 70, 109
1, 22688, Pitch_bend_c, 10, 1772
1, 22692, Pitch_bend_c, 10, 3056
1, 22696, Pitch_bend_c, 10, 4340
1, 22700, Pitch_bend_c, 10, 5624
1, 22704, Note_on_c, 2, 80, 94
1, 22704, Note_on_c, 9, 44, 73
1, 22704, Pitch_bend_c, 10, 6907
1, 22705, Note_on_c, 2, 77, 94
1, 22705, Note_on_c, 2, 74, 94
1, 22706, Note_on_c, 2, 82, 96
1, 22706, Note_on_c, 4, 46, 94
1, 22707, Note_off_c, 9, 44, 64
1, 22708, Pitch_bend_c, 10, 8192
1, 22710, Note_off_c, 2, 82, 64
1, 22711, Note_off_c, 2, 74, 64
1, 22711, Note_off_c, 2, 80, 64
1, 22713, Note_off_c, 2, 77, 64
1, 22714, Note_off_c, 4, 46, 64
1, 22751, Note_on_c, 2, 80, 105
1, 22751, Note_on_c, 9, 42, 94
1, 22752, Note_on_c, 2, 82, 105
1, 22752, Note_on_c, 2, 74, 105
1, 22753, Note_on_c, 2, 77, 105
1, 22753, Note_on_c, 9, 40, 94
1, 22754, Note_off_c, 9, 42, 64
1, 22756, Note_off_c, 9, 40, 64
1, 22760, Note_off_c, 2, 74, 64
1, 22761, Note_off_c, 2, 77, 64
1, 22761, Note_off_c, 2, 80, 64
1, 22762, Note_off_c, 2, 82, 64
1, 22768, Pitch_bend_c, 3, 7936
1, 22769, Pitch_bend_c, 3, 7424
1, 22773, Pitch_bend_c, 3, 6784
1, 22776, Pitch_bend_c, 3, 6144
1, 22778, Note_off_c, 11, 77, 64
1, 22781, Pitch_bend_c, 3, 5504
1, 22783, Pitch_bend_c, 3, 3584
1, 22790, Note_off_c, 3, 70, 64
1, 22790, Pitch_bend_c, 3, 1664
1, 22796, Note_on_c, 4, 46, 94
1, 22797, Pitch_bend_c, 10, 7424
1, 22799, Note_on_c, 2, 77, 79
1, 22800, Note_on_c, 2, 74, 79
1, 22800, Note_on_c, 9, 44, 73
1, 22801, Note_on_c, 2, 80, 79
1, 22801, Note_on_c, 2, 82, 79
1, 22801, Pitch_bend_c, 10, 6784
1, 22802, Note_off_c, 1, 34, 64
1, 22803, Note_off_c, 9, 44, 64
1, 22804, Note_off_c, 4, 46, 64
1, 22805, Pitch_bend_c, 10, 6144
1, 22806, Note_off_c, 2, 82, 64
1, 22807, Note_off_c, 2, 80, 64
1, 22808, Note_off_c, 2, 74, 64
1, 22809, Pitch_bend_c, 10, 5504
1, 22810, Note_off_c, 2, 77, 64
1, 22811, Pitch_bend_c, 10, 4736
1, 22815, Pitch_bend_c, 10, 3584
1, 22819, Pitch_bend_c, 10, 1664
1, 22823, Note_off_c, 10, 70, 64
1, 22827, Pitch_bend_c, 10, 8192
1, 22847, Note_on_c, 9, 56, 72
1, 22848, Note_on_c, 2, 74, 88
1, 22848, Note_on_c, 2, 77, 88
1, 22848, Note_on_c, 9, 36, 94
1, 22849, Note_on_c, 2, 80, 88
1, 22850, Note_on_c, 2, 82, 88
1, 22850, Note_off_c, 9, 56, 64
1, 22850, Note_on_c, 9, 42, 94
1, 22851, Note_off_c, 9, 36, 64
1, 22853, Note_off_c, 9, 42, 64
1, 22855, Note_off_c, 2, 80, 64
1, 22856, Note_on_c, 1, 34, 94
1, 22856, Note_off_c, 2, 74, 64
1, 22856, Note_off_c, 2, 77, 64
1, 22857, Note_off_c, 2, 82, 64
1, 22869, Note_off_c, 1, 34, 64
1, 22891, Note_on_c, 4, 46, 94
1, 22894, Note_on_c, 2, 77, 94
1, 22895, Note_on_c, 2, 74, 94
1, 22895, Note_on_c, 2, 80, 94
1, 22896, Note_on_c, 2, 82, 94
1, 22897, Note_on_c, 1, 34, 94
1, 22897, Note_on_c, 9, 44, 73
1, 22899, Note_off_c, 4, 46, 64
1, 22900, Note_off_c, 2, 82, 64
1, 22900, Note_off_c, 2, 80, 64
1, 22900, Note_off_c, 9, 44, 64
1, 22903, Note_off_c, 2, 74, 64
1, 22903, Note_off_c, 2, 77, 64
1, 22920, Note_off_c, 1, 34, 64
1, 22943, Note_on_c, 2, 74, 94
1, 22943, Note_on_c, 2, 77, 94
1, 22944, Note_on_c, 2, 80, 94
1, 22945, Note_on_c, 1, 33, 94
1, 22945, Note_on_c, 2, 82, 94
1, 22945, Note_on_c, 9, 42, 94
1, 22945, Note_on_c, 9, 40, 94
1, 22948, Note_off_c, 9, 40, 64
1, 22948, Note_off_c, 9, 42, 64
1, 22951, Note_off_c, 2, 82, 64
1, 22951, Note_off_c, 2, 80, 64
1, 22953, Note_off_c, 2, 77, 64
1, 22954, Note_off_c, 2, 74, 64
1, 22968, Note_off_c, 1, 33, 64
1, 22991, Note_on_c, 2, 77, 94
1, 22991, Note_on_c, 2, 80, 94
1, 22992, Note_on_c, 1, 31, 94
1, 22992, Note_on_c, 2, 74, 94
1, 22992, Note_on_c, 4, 46, 94
1, 22993, Note_on_c, 2, 82, 94
1, 22994, Note_on_c, 9, 44, 73
1, 22997, Note_off_c, 9, 44, 64
1, 23000, Note_off_c, 4, 46, 64
1, 23002, Note_off_c, 2, 74, 64
1, 23003, Note_off_c, 2, 82, 64
1, 23004, Note_off_c, 2, 80, 64
1, 23006, Note_off_c, 2, 77, 64
1, 23015, Note_off_c, 1, 31, 64
1, 23037, Pitch_bend_c, 3, 8192
1, 23038, Note_on_c, 2, 41, 74
1, 23038, Note_on_c, 3, 68, 103
1, 23038, Note_on_c, 11, 75, 64
1, 23040, Note_on_c, 2, 75, 94
1, 23040, Note_on_c, 9, 36, 94
1, 23040, Note_on_c, 9, 42, 94
1, 23040, Note_on_c, 9, 56, 72
1, 23041, Note_on_c, 2, 80, 94
1, 23042, Note_on_c, 1, 29, 94
1, 23042, Note_on_c, 2, 82, 88
1, 23043, Note_off_c, 9, 56, 64
1, 23043, Note_off_c, 9, 42, 64
1, 23043, Note_off_c, 9, 36, 64
1, 23046, Note_off_c, 2, 82, 64
1, 23049, Note_off_c, 2, 80, 64
1, 23052, Note_off_c, 2, 75, 64
1, 23057, Note_off_c, 11, 75, 64
1, 23066, Note_on_c, 10, 68, 109
1, 23083, Note_on_c, 11, 77, 64
1, 23085, Note_on_c, 2, 75, 79
1, 23086, Note_on_c, 2, 80, 79
1, 23088, Note_on_c, 3, 70, 94
1, 23088, Note_on_c, 9, 44, 73
1, 23090, Note_off_c, 2, 80, 64
1, 23090, Note_on_c, 4, 46, 94
1, 23091, Note_off_c, 3, 68, 64
1, 23091, Note_off_c, 9, 44, 64
1, 23093, Note_off_c, 2, 75, 64
1, 23098, Note_off_c, 4, 46, 64
1, 23116, Note_on_c, 10, 70, 100
1, 23133, Note_on_c, 2, 75, 88
1, 23134, Note_on_c, 2, 80, 88
1, 23134, Note_off_c, 11, 77, 64
1, 23135, Note_on_c, 2, 82, 88
1, 23135, Note_on_c, 9, 42, 94
1, 23136, Note_on_c, 2, 77, 88
1, 23137, Note_off_c, 2, 77, 64
1, 23137, Note_on_c, 9, 40, 94
1, 23138, Note_off_c, 9, 42, 64
1, 23139, Note_off_c, 2, 82, 64
1, 23140, Note_off_c, 9, 40, 64
1, 23144, Note_off_c, 2, 80, 64
1, 23145, Note_off_c, 1, 29, 64
1, 23147, Note_off_c, 2, 75, 64
1, 23148, Note_off_c, 10, 68, 64
1, 23179, Note_on_c, 11, 79, 64
1, 23180, Note_on_c, 3, 72, 111
1, 23180, Note_on_c, 4, 46, 94
1, 23181, Note_on_c, 2, 80, 105
1, 23182, Note_on_c, 2, 75, 105
1, 23182, Note_on_c, 2, 82, 105
1, 23182, Note_off_c, 3, 70, 64
1, 23183, Note_on_c, 2, 77, 105
1, 23184, Note_on_c, 9, 44, 73
1, 23187, Note_off_c, 2, 77, 64
1, 23187, Note_off_c, 9, 44, 64
1, 23188, Note_off_c, 4, 46, 64
1, 23190, Note_off_c, 2, 82, 64
1, 23192, Note_off_c, 2, 75, 64
1, 23194, Note_off_c, 2, 80, 64
1, 23206, Note_on_c, 1, 29, 94
1, 23209, Note_on_c, 10, 72, 117
1, 23219, Note_off_c, 1, 29, 64
1, 23219, Pitch_bend_c, 3, 8558
1, 23221, Pitch_bend_c, 3, 9047
1, 23225, Pitch_bend_c, 3, 10025
1, 23228, Note_on_c, 1, 29, 94
1, 23230, Note_on_c, 2, 75, 71
1, 23230, Pitch_bend_c, 3, 10270
1, 23231, Note_on_c, 2, 80, 70
1, 23231, Note_on_c, 2, 77, 70
1, 23231, Pitch_bend_c, 3, 12226
1, 23231, Note_on_c, 9, 56, 72
1, 23232, Note_on_c, 2, 82, 79
1, 23232, Note_on_c, 9, 36, 94
1, 23234, Note_off_c, 9, 56, 64
1, 23234, Note_on_c, 9, 42, 94
1, 23235, Note_off_c, 2, 77, 64
1, 23235, Note_off_c, 3, 72, 64
1, 23235, Note_off_c, 9, 36, 64
1, 23236, Pitch_bend_c, 3, 13440
1, 23237, Note_off_c, 2, 82, 64
1, 23237, Note_off_c, 9, 42, 64
1, 23239, Note_off_c, 2, 80, 64
1, 23239, Note_off_c, 2, 75, 64
1, 23239, Note_off_c, 10, 70, 64
1, 23243, Pitch_bend_c, 3, 14080
1, 23247, Pitch_bend_c, 10, 8558
1, 23249, Pitch_bend_c, 10, 9047
1, 23250, Note_off_c, 11, 79, 64
1, 23252, Pitch_bend_c, 3, 14208
1, 23252, Pitch_bend_c, 10, 9088
1, 23256, Note_off_c, 1, 29, 64
1, 23256, Pitch_bend_c, 10, 9344
1, 23259, Pitch_bend_c, 10, 9728
1, 23260, Pitch_bend_c, 3, 13184
1, 23261, Pitch_bend_c, 3, 13056
1, 23262, Pitch_bend_c, 10, 9856
1, 23264, Pitch_bend_c, 10, 10240
1, 23267, Pitch_bend_c, 10, 10496
1, 23270, Pitch_bend_c, 10, 10880
1, 23275, Note_on_c, 4, 46, 94
1, 23276, Pitch_bend_c, 10, 11520
1, 23277, Note_on_c, 1, 29, 94
1, 23278, Note_on_c, 2, 75, 79
1, 23278, Note_on_c, 2, 80, 79
1, 23279, Note_on_c, 2, 82, 88
1, 23280, Note_on_c, 5, 61, 94
1, 23280, Pitch_bend_c, 10, 12544
1, 23281, Note_off_c, 2, 82, 64
1, 23281, Note_on_c, 9, 44, 73
1, 23283, Note_off_c, 4, 46, 64
1, 23283, Pitch_bend_c, 10, 13312
1, 23284, Note_off_c, 2, 80, 64
1, 23284, Note_off_c, 9, 44, 64
1, 23285, Note_off_c, 2, 75, 64
1, 23285, Pitch_bend_c, 10, 14208
1, 23289, Pitch_bend_c, 10, 14848
1, 23291, Pitch_bend_c, 3, 8192
1, 23292, Note_off_c, 10, 72, 64
1, 23311, Pitch_bend_c, 10, 8192
1, 23316, Note_off_c, 1, 29, 64
1, 23319, Pitch_bend_c, 5, 8712
1, 23322, Pitch_bend_c, 5, 8972
1, 23326, Note_on_c, 2, 75, 94
1, 23326, Pitch_bend_c, 5, 9232
1, 23327, Note_on_c, 1, 31, 94
1, 23327, Note_on_c, 2, 77, 94
1, 23327, Note_on_c, 2, 80, 94
1, 23328, Note_on_c, 2, 82, 94
1, 23329, Pitch_bend_c, 5, 9492
1, 23329, Note_on_c, 9, 42, 94
1, 23329, Note_on_c, 9, 40, 94
1, 23332, Note_off_c, 2, 82, 64
1, 23332, Note_off_c, 9, 40, 64
1, 23332, Note_off_c, 9, 42, 64
1, 23334, Note_off_c, 2, 80, 64
1, 23334, Pitch_bend_c, 5, 9622
1, 23336, Note_off_c, 2, 77, 64
1, 23336, Pitch_bend_c, 5, 10402
1, 23337, Note_off_c, 2, 75, 64
1, 23344, Pitch_bend_c, 5, 10662
1, 23347, Pitch_bend_c, 5, 11312
1, 23351, Pitch_bend_c, 5, 12092
1, 23357, Pitch_bend_c, 5, 12742
1, 23361, Pitch_bend_c, 5, 13262
1, 23365, Pitch_bend_c, 5, 13652
1, 23370, Note_off_c, 1, 31, 64
1, 23371, Note_off_c, 5, 61, 64
1, 23372, Pitch_bend_c, 5, 8192
1, 23373, Note_on_c, 5, 58, 85
1, 23375, Note_on_c, 2, 75, 94
1, 23375, Note_on_c, 2, 77, 94
1, 23376, Note_on_c, 1, 33, 94
1, 23376, Note_on_c, 2, 80, 94
1, 23376, Note_on_c, 2, 82, 94
1, 23376, Note_on_c, 4, 46, 94
1, 23378, Note_on_c, 9, 44, 73
1, 23381, Note_off_c, 9, 44, 64
1, 23384, Note_off_c, 4, 46, 64
1, 23393, Note_off_c, 2, 82, 64
1, 23395, Note_off_c, 1, 33, 64
1, 23395, Note_off_c, 2, 77, 64
1, 23395, Note_off_c, 2, 80, 64
1, 23395, Note_off_c, 2, 75, 64
1, 23418, Note_off_c, 2, 41, 64
1, 23419, Note_on_c, 11, 77, 64
1, 23421, Note_on_c, 1, 34, 94
1, 23422, Note_on_c, 2, 46, 74
1, 23423, Pitch_bend_c, 3, 489
1, 23424, Note_on_c, 3, 70, 103
1, 23424, Note_on_c, 9, 36, 94
1, 23424, Note_on_c, 9, 42, 94
1, 23424, Note_on_c, 9, 56, 72
1, 23425, Note_on_c, 2, 77, 94
1, 23425, Note_on_c, 2, 80, 94
1, 23426, Note_on_c, 2, 74, 94
1, 23426, Note_on_c, 2, 82, 94
1, 23427, Note_off_c, 9, 56, 64
1, 23427, Note_off_c, 9, 42, 64
1, 23427, Note_off_c, 9, 36, 64
1, 23428, Pitch_bend_c, 3, 1772
1, 23431, Note_off_c, 2, 82, 64
1, 23432, Pitch_bend_c, 3, 3056
1, 23434, Note_off_c, 2, 74, 64
1, 23435, Note_off_c, 2, 80, 64
1, 23436, Pitch_bend_c, 3, 4340
1, 23438, Note_off_c, 2, 77, 64
1, 23440, Pitch_bend_c, 3, 5624
1, 23444, Pitch_bend_c, 3, 6907
1, 23448, Pitch_bend_c, 3, 8192
1, 23450, Control_c, 5, 1, 5
1, 23451, Pitch_bend_c, 10, 489
1, 23452, Note_on_c, 10, 70, 109
1, 23453, Control_c, 5, 1, 13
1, 23456, Pitch_bend_c, 10, 1772
1, 23457, Control_c, 5, 1, 27
1, 23460, Pitch_bend_c, 10, 3056
1, 23464, Pitch_bend_c, 10, 4340
1, 23466, Control_c, 5, 1, 34
1, 23468, Pitch_bend_c, 10, 5624
1, 23471, Control_c, 5, 1, 39
1, 23472, Note_on_c, 2, 80, 94
1, 23472, Note_on_c, 9, 44, 73
1, 23472, Pitch_bend_c, 10, 6907
1, 23473, Note_on_c, 2, 77, 94
1, 23473, Note_on_c, 2, 74, 94
1, 23474, Note_on_c, 2, 82, 96
1, 23474, Note_on_c, 4, 46, 94
1, 23475, Control_c, 5, 1, 48
1, 23475, Note_off_c, 9, 44, 64
1, 23476, Pitch_bend_c, 10, 8192
1, 23478, Note_off_c, 2, 82, 64
1, 23479, Note_off_c, 2, 80, 64
1, 23479, Note_off_c, 2, 74, 64
1, 23481, Note_off_c, 2, 77, 64
1, 23482, Note_off_c, 4, 46, 64
1, 23484, Control_c, 5, 1, 52
1, 23489, Control_c, 5, 1, 55
1, 23495, Control_c, 5, 1, 58
1, 23498, Pitch_bend_c, 5, 7936
1, 23502, Pitch_bend_c, 5, 7680
1, 23505, Control_c, 5, 1, 59
1, 23507, Control_c, 5, 1, 60
1, 23507, Pitch_bend_c, 5, 7168
1, 23511, Control_c, 5, 1, 62
1, 23512, Pitch_bend_c, 5, 6400
1, 23516, Control_c, 5, 1, 63
1, 23518, Pitch_bend_c, 5, 5120
1, 23519, Note_on_c, 2, 80, 105
1, 23519, Note_on_c, 9, 42, 94
1, 23520, Note_on_c, 2, 82, 105
1, 23520, Note_on_c, 2, 74, 105
1, 23521, Note_on_c, 2, 77, 105
1, 23521, Control_c, 5, 1, 64
1, 23521, Note_on_c, 9, 40, 94
1, 23522, Pitch_bend_c, 5, 4096
1, 23522, Note_off_c, 9, 42, 64
1, 23524, Note_off_c, 9, 40, 64
1, 23528, Note_off_c, 2, 74, 64
1, 23528, Pitch_bend_c, 5, 2560
1, 23529, Note_off_c, 2, 80, 64
1, 23529, Note_off_c, 2, 77, 64
1, 23530, Note_off_c, 2, 82, 64
1, 23534, Pitch_bend_c, 5, 1280
1, 23536, Pitch_bend_c, 3, 7680
1, 23536, Control_c, 5, 1, 63
1, 23539, Pitch_bend_c, 3, 6912
1, 23539, Control_c, 5, 1, 55
1, 23540, Pitch_bend_c, 5, 0
1, 23543, Pitch_bend_c, 3, 6528
1, 23546, Pitch_bend_c, 3, 5760
1, 23548, Control_c, 5, 1, 50
1, 23550, Pitch_bend_c, 3, 5248
1, 23552, Control_c, 5, 1, 42
1, 23553, Pitch_bend_c, 3, 3840
1, 23555, Note_off_c, 5, 58, 64
1, 23557, Pitch_bend_c, 3, 3072
1, 23558, Note_off_c, 3, 70, 64
1, 23564, Note_on_c, 4, 46, 94
1, 23565, Pitch_bend_c, 10, 7680
1, 23567, Note_on_c, 2, 77, 79
1, 23567, Pitch_bend_c, 10, 6912
1, 23568, Note_on_c, 2, 74, 79
1, 23568, Note_on_c, 9, 44, 73
1, 23569, Note_on_c, 2, 80, 79
1, 23569, Note_on_c, 2, 82, 79
1, 23571, Note_off_c, 9, 44, 64
1, 23571, Pitch_bend_c, 10, 6528
1, 23572, Note_off_c, 4, 46, 64
1, 23574, Note_off_c, 2, 82, 64
1, 23575, Note_off_c, 2, 80, 64
1, 23575, Pitch_bend_c, 10, 5760
1, 23576, Note_off_c, 2, 74, 64
1, 23578, Note_off_c, 1, 34, 64
1, 23578, Note_off_c, 2, 77, 64
1, 23578, Pitch_bend_c, 10, 5248
1, 23581, Pitch_bend_c, 10, 3840
1, 23585, Pitch_bend_c, 10, 3072
1, 23588, Note_off_c, 10, 70, 64
1, 23588, Pitch_bend_c, 10, 512
1, 23589, Note_off_c, 11, 77, 64
1, 23593, Pitch_bend_c, 10, 8314
1, 23595, Pitch_bend_c, 10, 8192
1, 23615, Note_on_c, 9, 56, 72
1, 23616, Note_on_c, 2, 74, 88
1, 23616, Note_on_c, 2, 77, 88
1, 23616, Note_on_c, 9, 36, 94
1, 23617, Note_on_c, 2, 80, 88
1, 23618, Note_on_c, 2, 82, 88
1, 23618, Note_off_c, 9, 56, 64
1, 23618, Note_on_c, 9, 42, 94
1, 23619, Note_off_c, 9, 36, 64
1, 23621, Note_off_c, 9, 42, 64
1, 23622, Note_on_c, 1, 34, 94
1, 23623, Note_off_c, 2, 80, 64
1, 23624, Note_off_c, 2, 77, 64
1, 23624, Note_off_c, 2, 74, 64
1, 23625, Note_off_c, 2, 82, 64
1, 23636, Note_off_c, 1, 34, 64
1, 23659, Note_on_c, 4, 46, 94
1, 23662, Note_on_c, 2, 77, 94
1, 23663, Note_on_c, 2, 74, 94
1, 23663, Note_on_c, 2, 80, 94
1, 23664, Note_on_c, 1, 34, 94
1, 23664, Note_on_c, 2, 82, 94
1, 23665, Note_on_c, 9, 44, 73
1, 23667, Note_off_c, 4, 46, 64
1, 23668, Note_off_c, 2, 82, 64
1, 23668, Note_off_c, 2, 80, 64
1, 23668, Note_off_c, 9, 44, 64
1, 23671, Note_off_c, 2, 74, 64
1, 23671, Note_off_c, 2, 77, 64
1, 23683, Pitch_bend_c, 5, 8192
1, 23687, Note_off_c, 1, 34, 64
1, 23711, Note_on_c, 2, 74, 94
1, 23711, Note_on_c, 2, 77, 94
1, 23712, Note_on_c, 1, 33, 94
1, 23712, Note_on_c, 2, 80, 94
1, 23713, Note_on_c, 2, 82, 94
1, 23713, Note_on_c, 9, 42, 94
1, 23713, Note_on_c, 9, 40, 94
1, 23716, Note_off_c, 9, 40, 64
1, 23716, Note_off_c, 9, 42, 64
1, 23719, Note_off_c, 2, 82, 64
1, 23719, Note_off_c, 2, 80, 64
1, 23721, Note_off_c, 2, 77, 64
1, 23722, Note_off_c, 2, 74, 64
1, 23735, Note_off_c, 1, 33, 64
1, 23759, Note_on_c, 2, 77, 94
1, 23759, Note_on_c, 2, 80, 94
1, 23760, Note_on_c, 2, 74, 94
1, 23760, Note_on_c, 4, 46, 94
1, 23761, Note_on_c, 1, 31, 94
1, 23761, Note_on_c, 2, 82, 94
1, 23762, Note_on_c, 9, 44, 73
1, 23765, Note_off_c, 9, 44, 64
1, 23768, Note_off_c, 4, 46, 64
1, 23770, Note_off_c, 2, 74, 64
1, 23771, Note_off_c, 2, 82, 64
1, 23772, Note_off_c, 2, 80, 64
1, 23774, Note_off_c, 2, 77, 64
1, 23784, Note_off_c, 1, 31, 64
1, 23801, Note_on_c, 11, 75, 64
1, 23804, Note_off_c, 2, 46, 64
1, 23805, Pitch_bend_c, 3, 8192
1, 23806, Note_on_c, 3, 68, 103
1, 23808, Note_on_c, 2, 41, 74
1, 23808, Note_on_c, 2, 75, 94
1, 23808, Note_on_c, 9, 36, 94
1, 23808, Note_on_c, 9, 42, 94
1, 23808, Note_on_c, 9, 56, 72
1, 23809, Note_on_c, 1, 29, 94
1, 23809, Note_on_c, 2, 80, 94
1, 23810, Note_on_c, 2, 82, 88
1, 23811, Note_off_c, 9, 56, 64
1, 23811, Note_off_c, 9, 42, 64
1, 23811, Note_off_c, 9, 36, 64
1, 23814, Note_off_c, 2, 82, 64
1, 23817, Note_off_c, 2, 80, 64
1, 23819, Note_off_c, 11, 75, 64
1, 23820, Note_off_c, 2, 75, 64
1, 23834, Note_on_c, 10, 68, 109
1, 23851, Note_on_c, 11, 77, 64
1, 23853, Note_on_c, 2, 75, 79
1, 23854, Note_on_c, 2, 80, 79
1, 23856, Note_on_c, 3, 70, 94
1, 23856, Note_on_c, 9, 44, 73
1, 23858, Note_off_c, 2, 80, 64
1, 23858, Note_on_c, 4, 46, 94
1, 23859, Note_off_c, 3, 68, 64
1, 23859, Note_off_c, 9, 44, 64
1, 23861, Note_off_c, 2, 75, 64
1, 23866, Note_off_c, 4, 46, 64
1, 23884, Note_on_c, 10, 70, 100
1, 23901, Note_on_c, 2, 75, 88
1, 23902, Note_on_c, 2, 80, 88
1, 23903, Note_on_c, 2, 82, 88
1, 23903, Note_on_c, 9, 42, 94
1, 23904, Note_on_c, 2, 77, 88
1, 23904, Note_off_c, 11, 77, 64
1, 23905, Note_off_c, 2, 77, 64
1, 23905, Note_on_c, 9, 40, 94
1, 23906, Note_off_c, 9, 42, 64
1, 23907, Note_off_c, 2, 82, 64
1, 23908, Note_off_c, 9, 40, 64
1, 23912, Note_off_c, 2, 80, 64
1, 23915, Note_off_c, 2, 75, 64
1, 23916, Note_off_c, 10, 68, 64
1, 23948, Note_on_c, 3, 72, 111
1, 23948, Note_on_c, 4, 46, 94
1, 23949, Note_on_c, 2, 80, 105
1, 23950, Note_on_c, 2, 75, 105
1, 23950, Note_on_c, 2, 82, 105
1, 23950, Note_off_c, 3, 70, 64
1, 23951, Note_on_c, 2, 77, 105
1, 23952, Note_on_c, 9, 44, 73
1, 23953, Note_on_c, 11, 79, 64
1, 23955, Note_off_c, 2, 77, 64
1, 23955, Note_off_c, 9, 44, 64
1, 23956, Note_off_c, 4, 46, 64
1, 23958, Note_off_c, 1, 29, 64
1, 23958, Note_off_c, 2, 82, 64
1, 23960, Note_off_c, 2, 75, 64
1, 23962, Note_off_c, 2, 80, 64
1, 23977, Note_on_c, 10, 72, 117
1, 23979, Note_on_c, 1, 29, 73
1, 23986, Note_off_c, 1, 29, 64
1, 23987, Pitch_bend_c, 3, 9047
1, 23993, Pitch_bend_c, 3, 9292
1, 23994, Pitch_bend_c, 3, 10025
1, 23996, Control_c, 5, 1, 0
1, 23996, Control_c, 6, 1, 0
1, 23997, Note_on_c, 5, 65, 94
1, 23997, Note_on_c, 6, 65, 94
1, 23998, Note_on_c, 2, 75, 71
1, 23998, Pitch_bend_c, 3, 11492
1, 23999, Note_on_c, 2, 80, 70
1, 23999, Note_on_c, 2, 77, 70
1, 23999, Note_on_c, 9, 56, 72
1, 24000, Note_on_c, 2, 82, 79
1, 24000, Note_on_c, 9, 36, 94
1, 24001, Pitch_bend_c, 3, 12960
1, 24002, Note_off_c, 9, 56, 64
1, 24002, Note_on_c, 9, 42, 94
1, 24003, Note_off_c, 2, 77, 64
1, 24003, Note_off_c, 3, 72, 64
1, 24003, Note_off_c, 9, 36, 64
1, 24005, Note_on_c, 1, 29, 94
1, 24005, Note_off_c, 2, 82, 64
1, 24005, Note_off_c, 9, 42, 64
1, 24007, Note_off_c, 2, 80, 64
1, 24007, Note_off_c, 2, 75, 64
1, 24007, Note_off_c, 10, 70, 64
1, 24015, Pitch_bend_c, 10, 9047
1, 24021, Note_off_c, 1, 29, 64
1, 24021, Pitch_bend_c, 10, 9292
1, 24022, Pitch_bend_c, 10, 10025
1, 24026, Pitch_bend_c, 10, 11492
1, 24029, Pitch_bend_c, 10, 12960
1, 24032, Pitch_bend_c, 10, 13824
1, 24036, Pitch_bend_c, 10, 14592
1, 24042, Note_off_c, 11, 79, 64
1, 24043, Note_on_c, 4, 46, 94
1, 24044, Pitch_bend_c, 10, 15232
1, 24046, Note_on_c, 1, 29, 94
1, 24046, Note_on_c, 2, 75, 79
1, 24046, Note_on_c, 2, 80, 79
1, 24046, Pitch_bend_c, 5, 9102
1, 24046, Pitch_bend_c, 6, 9102
1, 24047, Note_on_c, 2, 82, 88
1, 24049, Note_off_c, 2, 82, 64
1, 24049, Note_on_c, 9, 44, 73
1, 24050, Pitch_bend_c, 5, 10792
1, 24050, Pitch_bend_c, 6, 10792
1, 24051, Note_off_c, 4, 46, 64
1, 24051, Pitch_bend_c, 10, 15360
1, 24052, Note_off_c, 2, 80, 64
1, 24052, Note_off_c, 9, 44, 64
1, 24053, Note_off_c, 2, 75, 64
1, 24054, Pitch_bend_c, 5, 12482
1, 24054, Pitch_bend_c, 6, 12482
1, 24057, Pitch_bend_c, 5, 14952
1, 24057, Pitch_bend_c, 6, 14952
1, 24060, Note_off_c, 10, 72, 64
1, 24064, Pitch_bend_c, 5, 16382
1, 24064, Pitch_bend_c, 6, 16382
1, 24076, Pitch_bend_c, 10, 8192
1, 24077, Note_off_c, 1, 29, 64
1, 24094, Note_on_c, 2, 75, 94
1, 24095, Note_on_c, 1, 31, 94
1, 24095, Note_on_c, 2, 77, 94
1, 24095, Note_on_c, 2, 80, 94
1, 24096, Note_on_c, 2, 82, 94
1, 24096, Pitch_bend_c, 5, 13652
1, 24096, Pitch_bend_c, 6, 13652
1, 24097, Note_on_c, 9, 42, 94
1, 24097, Note_on_c, 9, 40, 94
1, 24099, Pitch_bend_c, 5, 9882
1, 24099, Pitch_bend_c, 6, 9882
1, 24100, Note_off_c, 2, 82, 64
1, 24100, Note_off_c, 9, 40, 64
1, 24100, Note_off_c, 9, 42, 64
1, 24102, Note_off_c, 2, 80, 64
1, 24103, Pitch_bend_c, 5, 8192
1, 24103, Pitch_bend_c, 6, 8192
1, 24104, Note_off_c, 2, 77, 64
1, 24105, Note_off_c, 2, 75, 64
1, 24126, Note_off_c, 1, 31, 64
1, 24133, Pitch_bend_c, 6, 8582
1, 24135, Pitch_bend_c, 6, 11052
1, 24141, Pitch_bend_c, 6, 13132
1, 24142, Note_on_c, 1, 33, 94
1, 24143, Note_on_c, 2, 75, 94
1, 24143, Note_on_c, 2, 77, 94
1, 24144, Note_on_c, 2, 80, 94
1, 24144, Note_on_c, 2, 82, 94
1, 24144, Note_on_c, 4, 46, 94
1, 24145, Pitch_bend_c, 6, 15212
1, 24146, Note_on_c, 9, 44, 73
1, 24148, Pitch_bend_c, 5, 16382
1, 24148, Pitch_bend_c, 6, 16382
1, 24149, Note_off_c, 9, 44, 64
1, 24152, Note_off_c, 4, 46, 64
1, 24161, Note_off_c, 2, 82, 64
1, 24163, Note_off_c, 2, 77, 64
1, 24163, Note_off_c, 2, 80, 64
1, 24163, Note_off_c, 2, 75, 64
1, 24165, Note_off_c, 1, 33, 64
1, 24184, Note_off_c, 2, 41, 64
1, 24186, Note_on_c, 2, 46, 74
1, 24191, Note_on_c, 1, 34, 94
1, 24191, Pitch_bend_c, 3, 8192
1, 24191, Note_on_c, 11, 77, 64
1, 24192, Pitch_bend_c, 3, 489
1, 24192, Note_on_c, 3, 70, 103
1, 24192, Note_on_c, 9, 36, 94
1, 24192, Note_on_c, 9, 42, 94
1, 24192, Note_on_c, 9, 56, 72
1, 24193, Note_on_c, 2, 77, 94
1, 24193, Note_on_c, 2, 80, 94
1, 24194, Note_on_c, 2, 74, 94
1, 24194, Note_on_c, 2, 82, 94
1, 24195, Note_off_c, 9, 56, 64
1, 24195, Note_off_c, 9, 42, 64
1, 24195, Note_off_c, 9, 36, 64
1, 24196, Pitch_bend_c, 3, 1772
1, 24199, Note_off_c, 2, 82, 64
1, 24200, Pitch_bend_c, 3, 3056
1, 24202, Note_off_c, 2, 74, 64
1, 24203, Note_off_c, 2, 80, 64
1, 24204, Pitch_bend_c, 3, 4340
1, 24204, Control_c, 5, 1, 9
1, 24206, Note_off_c, 2, 77, 64
1, 24208, Pitch_bend_c, 3, 5624
1, 24209, Control_c, 5, 1, 16
1, 24212, Pitch_bend_c, 3, 6907
1, 24213, Control_c, 5, 1, 23
1, 24216, Pitch_bend_c, 3, 8192
1, 24218, Control_c, 5, 1, 31
1, 24220, Pitch_bend_c, 10, 489
1, 24220, Note_on_c, 10, 70, 109
1, 24222, Control_c, 5, 1, 38
1, 24222, Control_c, 6, 1, 38
1, 24224, Pitch_bend_c, 10, 1772
1, 24228, Control_c, 5, 1, 43
1, 24228, Pitch_bend_c, 10, 3056
1, 24231, Control_c, 5, 1, 49
1, 24232, Pitch_bend_c, 10, 4340
1, 24236, Control_c, 5, 1, 54
1, 24236, Pitch_bend_c, 10, 5624
1, 24240, Note_on_c, 2, 80, 94
1, 24240, Note_on_c, 9, 44, 73
1, 24240, Pitch_bend_c, 10, 6907
1, 24241, Note_on_c, 2, 77, 94
1, 24241, Note_on_c, 2, 74, 94
1, 24241, Control_c, 5, 1, 59
1, 24242, Note_on_c, 2, 82, 96
1, 24242, Note_on_c, 4, 46, 94
1, 24243, Note_off_c, 9, 44, 64
1, 24244, Pitch_bend_c, 10, 8192
1, 24245, Control_c, 5, 1, 64
1, 24246, Note_off_c, 2, 82, 64
1, 24247, Note_off_c, 2, 80, 64
1, 24247, Note_off_c, 2, 74, 64
1, 24249, Note_off_c, 2, 77, 64
1, 24250, Note_off_c, 4, 46, 64
1, 24251, Control_c, 5, 1, 71
1, 24259, Control_c, 5, 1, 74
1, 24263, Control_c, 5, 1, 76
1, 24269, Control_c, 5, 1, 78
1, 24273, Control_c, 5, 1, 80
1, 24277, Control_c, 5, 1, 81
1, 24281, Control_c, 5, 1, 82
1, 24285, Control_c, 5, 1, 83
1, 24287, Note_on_c, 2, 80, 105
1, 24287, Note_on_c, 9, 42, 94
1, 24288, Note_on_c, 2, 82, 105
1, 24288, Note_on_c, 2, 74, 105
1, 24289, Note_on_c, 2, 77, 105
1, 24289, Note_on_c, 9, 40, 94
1, 24290, Note_off_c, 9, 42, 64
1, 24292, Note_off_c, 9, 40, 64
1, 24293, Control_c, 5, 1, 84
1, 24293, Control_c, 6, 1, 84
1, 24296, Note_off_c, 2, 74, 64
1, 24297, Note_off_c, 2, 80, 64
1, 24297, Note_off_c, 2, 77, 64
1, 24298, Note_off_c, 2, 82, 64
1, 24304, Pitch_bend_c, 3, 7680
1, 24307, Pitch_bend_c, 3, 7424
1, 24309, Pitch_bend_c, 3, 6144
1, 24316, Control_c, 5, 1, 86
1, 24316, Control_c, 6, 1, 86
1, 24317, Pitch_bend_c, 3, 5248
1, 24321, Pitch_bend_c, 3, 4224
1, 24321, Control_c, 5, 1, 87
1, 24324, Pitch_bend_c, 3, 1664
1, 24326, Note_off_c, 3, 70, 64
1, 24326, Control_c, 5, 1, 89
1, 24328, Note_off_c, 11, 77, 64
1, 24332, Note_on_c, 4, 46, 94
1, 24332, Control_c, 5, 1, 90
1, 24333, Pitch_bend_c, 10, 7680
1, 24335, Note_on_c, 2, 77, 79
1, 24335, Pitch_bend_c, 10, 7424
1, 24336, Note_on_c, 2, 74, 79
1, 24336, Note_on_c, 9, 44, 73
1, 24337, Note_on_c, 2, 80, 79
1, 24337, Note_on_c, 2, 82, 79
1, 24337, Pitch_bend_c, 10, 6784
1, 24338, Control_c, 5, 1, 91
1, 24338, Control_c, 6, 1, 91
1, 24339, Note_off_c, 9, 44, 64
1, 24340, Note_off_c, 4, 46, 64
1, 24341, Pitch_bend_c, 10, 6144
1, 24342, Note_off_c, 1, 34, 64
1, 24342, Note_off_c, 2, 82, 64
1, 24343, Note_off_c, 2, 80, 64
1, 24344, Note_off_c, 2, 74, 64
1, 24345, Pitch_bend_c, 10, 5248
1, 24346, Note_off_c, 2, 77, 64
1, 24349, Pitch_bend_c, 10, 4224
1, 24352, Pitch_bend_c, 10, 3584
1, 24355, Pitch_bend_c, 10, 1664
1, 24359, Note_off_c, 10, 70, 64
1, 24361, Control_c, 5, 1, 92
1, 24361, Control_c, 6, 1, 92
1, 24363, Note_on_c, 1, 34, 72
1, 24363, Pitch_bend_c, 10, 8192
1, 24367, Control_c, 5, 1, 93
1, 24367, Control_c, 6, 1, 93
1, 24370, Note_off_c, 1, 34, 64
1, 24373, Control_c, 5, 1, 95
1, 24373, Control_c, 6, 1, 95
1, 24383, Note_on_c, 9, 56, 72
1, 24384, Note_on_c, 2, 74, 88
1, 24384, Note_on_c, 2, 77, 88
1, 24384, Note_on_c, 9, 36, 94
1, 24385, Note_on_c, 2, 80, 88
1, 24386, Note_on_c, 2, 82, 88
1, 24386, Note_off_c, 9, 56, 64
1, 24386, Note_on_c, 9, 42, 94
1, 24387, Note_off_c, 9, 36, 64
1, 24389, Note_off_c, 9, 42, 64
1, 24391, Note_off_c, 2, 80, 64
1, 24392, Note_on_c, 1, 34, 94
1, 24392, Note_off_c, 2, 77, 64
1, 24392, Note_off_c, 2, 74, 64
1, 24393, Note_off_c, 2, 82, 64
1, 24408, Note_off_c, 1, 34, 64
1, 24427, Note_on_c, 4, 46, 94
1, 24430, Note_on_c, 2, 77, 94
1, 24431, Note_on_c, 2, 74, 94
1, 24431, Note_on_c, 2, 80, 94
1, 24432, Note_on_c, 2, 82, 94
1, 24433, Note_on_c, 1, 34, 94
1, 24433, Note_on_c, 9, 44, 73
1, 24435, Note_off_c, 4, 46, 64
1, 24436, Note_off_c, 2, 82, 64
1, 24436, Note_off_c, 2, 80, 64
1, 24436, Note_off_c, 9, 44, 64
1, 24439, Note_off_c, 2, 74, 64
1, 24439, Note_off_c, 2, 77, 64
1, 24450, Pitch_bend_c, 5, 16122
1, 24450, Pitch_bend_c, 6, 16122
1, 24453, Pitch_bend_c, 5, 15472
1, 24456, Note_off_c, 1, 34, 64
1, 24456, Pitch_bend_c, 5, 15082
1, 24460, Pitch_bend_c, 5, 14172
1, 24464, Pitch_bend_c, 5, 13262
1, 24468, Pitch_bend_c, 5, 12482
1, 24470, Pitch_bend_c, 5, 11832
1, 24474, Pitch_bend_c, 5, 10792
1, 24476, Note_off_c, 5, 65, 64
1, 24476, Note_off_c, 6, 65, 64
1, 24479, Note_on_c, 1, 33, 94
1, 24479, Note_on_c, 2, 74, 94
1, 24479, Note_on_c, 2, 77, 94
1, 24480, Note_on_c, 2, 80, 94
1, 24481, Note_on_c, 2, 82, 94
1, 24481, Note_on_c, 9, 42, 94
1, 24481, Note_on_c, 9, 40, 94
1, 24484, Note_off_c, 9, 40, 64
1, 24484, Note_off_c, 9, 42, 64
1, 24487, Note_off_c, 2, 82, 64
1, 24487, Note_off_c, 2, 80, 64
1, 24489, Note_off_c, 2, 77, 64
1, 24490, Note_off_c, 2, 74, 64
1, 24510, Note_off_c, 1, 33, 64
1, 24527, Note_on_c, 2, 77, 94
1, 24527, Note_on_c, 2, 80, 94
1, 24528, Note_on_c, 1, 31, 94
1, 24528, Note_on_c, 2, 74, 94
1, 24528, Note_on_c, 4, 46, 94
1, 24529, Note_on_c, 2, 82, 94
1, 24530, Note_on_c, 9, 44, 73
1, 24533, Note_off_c, 9, 44, 64
1, 24536, Note_off_c, 4, 46, 64
1, 24538, Note_off_c, 2, 74, 64
1, 24539, Note_off_c, 2, 82, 64
1, 24540, Note_off_c, 2, 80, 64
1, 24542, Note_off_c, 2, 77, 64
1, 24551, Note_off_c, 1, 31, 64
1, 24571, Note_on_c, 11, 75, 64
1, 24574, Note_on_c, 1, 29, 94
1, 24574, Note_off_c, 2, 46, 64
1, 24574, Pitch_bend_c, 3, 8192
1, 24575, Note_on_c, 3, 68, 103
1, 24576, Note_on_c, 2, 75, 94
1, 24576, Note_on_c, 9, 36, 94
1, 24576, Note_on_c, 9, 42, 94
1, 24576, Note_on_c, 9, 56, 72
1, 24577, Note_on_c, 2, 80, 94
1, 24577, Note_on_c, 2, 41, 74
1, 24578, Note_on_c, 2, 82, 88
1, 24579, Note_off_c, 9, 56, 64
1, 24579, Note_off_c, 9, 42, 64
1, 24579, Note_off_c, 9, 36, 64
1, 24580, Pitch_bend_c, 5, 8192
1, 24582, Note_off_c, 2, 82, 64
1, 24585, Note_off_c, 2, 80, 64
1, 24588, Note_off_c, 2, 75, 64
1, 24591, Note_off_c, 11, 75, 64
1, 24604, Note_on_c, 10, 68, 109
1, 24619, Note_on_c, 11, 77, 64
1, 24621, Note_on_c, 2, 75, 79
1, 24622, Note_on_c, 2, 80, 79
1, 24624, Note_on_c, 3, 70, 94
1, 24624, Note_on_c, 9, 44, 73
1, 24626, Note_off_c, 2, 80, 64
1, 24626, Note_on_c, 4, 46, 94
1, 24627, Note_off_c, 9, 44, 64
1, 24628, Note_off_c, 3, 68, 64
1, 24629, Note_off_c, 2, 75, 64
1, 24634, Note_off_c, 4, 46, 64
1, 24652, Note_on_c, 10, 70, 100
1, 24657, Note_off_c, 11, 77, 64
1, 24669, Note_on_c, 2, 75, 88
1, 24670, Note_on_c, 2, 80, 88
1, 24671, Note_on_c, 2, 82, 88
1, 24671, Note_on_c, 9, 42, 94
1, 24672, Note_on_c, 2, 77, 88
1, 24673, Note_off_c, 2, 77, 64
1, 24673, Note_on_c, 9, 40, 94
1, 24674, Note_off_c, 9, 42, 64
1, 24675, Note_off_c, 2, 82, 64
1, 24676, Note_off_c, 9, 40, 64
1, 24680, Note_off_c, 2, 80, 64
1, 24683, Note_off_c, 2, 75, 64
1, 24685, Note_off_c, 10, 68, 64
1, 24709, Note_on_c, 11, 79, 64
1, 24716, Note_on_c, 4, 46, 94
1, 24717, Note_on_c, 2, 80, 105
1, 24718, Note_on_c, 2, 75, 105
1, 24718, Note_on_c, 2, 82, 105
1, 24718, Note_off_c, 3, 70, 64
1, 24719, Note_on_c, 2, 77, 105
1, 24719, Note_on_c, 3, 72, 111
1, 24720, Note_on_c, 9, 44, 73
1, 24723, Note_off_c, 2, 77, 64
1, 24723, Note_off_c, 9, 44, 64
1, 24724, Note_off_c, 1, 29, 64
1, 24724, Note_off_c, 4, 46, 64
1, 24726, Note_off_c, 2, 82, 64
1, 24728, Note_off_c, 2, 75, 64
1, 24730, Note_off_c, 2, 80, 64
1, 24747, Note_on_c, 10, 72, 117
1, 24748, Note_on_c, 1, 29, 75
1, 24755, Note_off_c, 1, 29, 64
1, 24755, Pitch_bend_c, 3, 8558
1, 24757, Pitch_bend_c, 3, 9047
1, 24761, Pitch_bend_c, 3, 10025
1, 24766, Note_on_c, 2, 75, 71
1, 24766, Pitch_bend_c, 3, 10759
1, 24767, Note_on_c, 2, 80, 70
1, 24767, Note_on_c, 2, 77, 70
1, 24767, Note_on_c, 9, 56, 72
1, 24768, Note_on_c, 1, 29, 94
1, 24768, Note_on_c, 2, 82, 79
1, 24768, Pitch_bend_c, 3, 12226
1, 24768, Note_on_c, 9, 36, 94
1, 24770, Note_off_c, 9, 56, 64
1, 24770, Note_on_c, 9, 42, 94
1, 24771, Note_off_c, 2, 77, 64
1, 24771, Note_off_c, 9, 36, 64
1, 24772, Pitch_bend_c, 3, 13056
1, 24773, Note_off_c, 2, 82, 64
1, 24773, Note_off_c, 9, 42, 64
1, 24774, Note_off_c, 3, 72, 64
1, 24775, Note_off_c, 2, 80, 64
1, 24775, Note_off_c, 2, 75, 64
1, 24775, Note_off_c, 10, 70, 64
1, 24778, Pitch_bend_c, 3, 13952
1, 24783, Pitch_bend_c, 10, 8558
1, 24784, Pitch_bend_c, 3, 14592
1, 24785, Pitch_bend_c, 10, 9047
1, 24789, Pitch_bend_c, 10, 10025
1, 24794, Pitch_bend_c, 10, 10759
1, 24796, Pitch_bend_c, 3, 14720
1, 24796, Pitch_bend_c, 10, 12226
1, 24799, Note_off_c, 11, 79, 64
1, 24800, Pitch_bend_c, 10, 12800
1, 24806, Pitch_bend_c, 10, 13312
1, 24807, Note_off_c, 1, 29, 64
1, 24807, Pitch_bend_c, 10, 13440
1, 24811, Note_on_c, 4, 46, 94
1, 24814, Note_on_c, 2, 75, 79
1, 24814, Note_on_c, 2, 80, 79
1, 24814, Pitch_bend_c, 3, 8192
1, 24815, Note_on_c, 2, 82, 88
1, 24817, Note_on_c, 1, 29, 94
1, 24817, Note_off_c, 2, 82, 64
1, 24817, Note_on_c, 9, 44, 73
1, 24818, Pitch_bend_c, 10, 13824
1, 24819, Note_off_c, 4, 46, 64
1, 24820, Note_off_c, 2, 80, 64
1, 24820, Note_off_c, 9, 44, 64
1, 24821, Note_off_c, 2, 75, 64
1, 24831, Note_off_c, 10, 72, 64
1, 24831, Pitch_bend_c, 10, 14336
1, 24832, Pitch_bend_c, 10, 14592
1, 24845, Pitch_bend_c, 10, 15104
1, 24848, Note_off_c, 1, 29, 64
1, 24856, Pitch_bend_c, 10, 8192
1, 24862, Pitch_bend_c, 1, 0
1, 24862, Note_on_c, 2, 75, 94
1, 24863, Note_on_c, 1, 35, 94
1, 24863, Note_on_c, 2, 77, 94
1, 24863, Note_on_c, 2, 80, 94
1, 24864, Note_on_c, 2, 82, 94
1, 24865, Note_on_c, 9, 42, 94
1, 24865, Note_on_c, 9, 40, 94
1, 24868, Pitch_bend_c, 1, 4096
1, 24868, Note_off_c, 2, 82, 64
1, 24868, Note_off_c, 9, 40, 64
1, 24868, Note_off_c, 9, 42, 64
1, 24870, Note_off_c, 2, 80, 64
1, 24872, Note_off_c, 2, 77, 64
1, 24873, Pitch_bend_c, 1, 8192
1, 24873, Note_off_c, 2, 75, 64
1, 24880, Pitch_bend_c, 1, 12288
1, 24887, Pitch_bend_c, 1, 16383
1, 24900, Pitch_bend_c, 1, 12288
1, 24909, Pitch_bend_c, 1, 8192
1, 24911, Note_on_c, 2, 75, 94
1, 24911, Note_on_c, 2, 77, 94
1, 24912, Note_on_c, 2, 80, 94
1, 24912, Note_on_c, 2, 82, 94
1, 24912, Note_on_c, 4, 46, 94
1, 24914, Note_on_c, 9, 44, 73
1, 24917, Pitch_bend_c, 1, 4096
1, 24917, Note_off_c, 9, 44, 64
1, 24920, Note_off_c, 4, 46, 64
1, 24924, Pitch_bend_c, 1, 0
1, 24929, Note_off_c, 2, 82, 64
1, 24931, Note_off_c, 2, 77, 64
1, 24931, Note_off_c, 2, 80, 64
1, 24931, Note_off_c, 2, 75, 64
1, 24942, Note_off_c, 1, 35, 64
1, 24947, Note_on_c, 11, 75, 64
1, 24955, Note_on_c, 2, 51, 74
1, 24956, Note_off_c, 2, 41, 64
1, 24959, Pitch_bend_c, 1, 8192
1, 24960, Note_on_c, 1, 39, 94
1, 24960, Note_on_c, 2, 73, 94
1, 24960, Note_on_c, 2, 77, 94
1, 24960, Note_on_c, 2, 79, 94
1, 24960, Note_on_c, 2, 82, 94
1, 24960, Note_on_c, 3, 70, 103
1, 24960, Note_on_c, 9, 36, 108
1, 24960, Note_on_c, 9, 57, 108
1, 24960, Note_on_c, 9, 56, 72
1, 24963, Note_off_c, 9, 56, 64
1, 24963, Note_off_c, 9, 57, 64
1, 24963, Note_off_c, 9, 36, 64
1, 24988, Note_on_c, 10, 70, 109
1, 25008, Note_on_c, 9, 44, 73
1, 25010, Note_on_c, 4, 46, 94
1, 25011, Note_off_c, 9, 44, 64
1, 25018, Note_off_c, 4, 46, 64
1, 25055, Note_on_c, 9, 42, 94
1, 25057, Note_on_c, 9, 40, 94
1, 25058, Note_off_c, 9, 42, 64
1, 25060, Note_off_c, 9, 40, 64
1, 25077, Pitch_bend_c, 3, 7808
1, 25080, Pitch_bend_c, 3, 7552
1, 25083, Pitch_bend_c, 10, 7936
1, 25083, Note_off_c, 11, 75, 64
1, 25084, Pitch_bend_c, 3, 6528
1, 25087, Pitch_bend_c, 3, 5504
1, 25088, Pitch_bend_c, 10, 7424
1, 25091, Pitch_bend_c, 3, 4352
1, 25094, Pitch_bend_c, 10, 6400
1, 25095, Note_off_c, 3, 70, 64
1, 25095, Pitch_bend_c, 3, 2816
1, 25099, Pitch_bend_c, 10, 5504
1, 25100, Note_on_c, 4, 46, 94
1, 25100, Note_on_c, 11, 77, 64
1, 25102, Pitch_bend_c, 3, 8192
1, 25103, Note_on_c, 3, 73, 103
1, 25103, Pitch_bend_c, 10, 4352
1, 25104, Note_on_c, 9, 44, 73
1, 25107, Note_off_c, 9, 44, 64
1, 25108, Note_off_c, 4, 46, 64
1, 25108, Pitch_bend_c, 10, 3456
1, 25112, Pitch_bend_c, 10, 2304
1, 25114, Pitch_bend_c, 1, 4096
1, 25116, Pitch_bend_c, 10, 1280
1, 25121, Pitch_bend_c, 10, 128
1, 25124, Pitch_bend_c, 1, 0
1, 25124, Note_off_c, 11, 77, 64
1, 25131, Note_off_c, 10, 70, 64
1, 25131, Pitch_bend_c, 10, 8192
1, 25132, Note_on_c, 10, 73, 109
1, 25135, Note_off_c, 1, 39, 64
1, 25137, Pitch_bend_c, 1, 8192
1, 25138, Note_on_c, 1, 31, 77
1, 25138, Note_off_c, 2, 77, 64
1, 25139, Note_off_c, 2, 79, 64
1, 25139, Note_off_c, 2, 82, 64
1, 25140, Note_off_c, 2, 73, 64
1, 25143, Note_off_c, 2, 51, 64
1, 25144, Note_on_c, 11, 75, 64
1, 25145, Note_off_c, 1, 31, 64
1, 25147, Note_on_c, 2, 43, 74
1, 25149, Note_on_c, 2, 77, 94
1, 25150, Note_on_c, 2, 82, 94
1, 25150, Note_on_c, 3, 72, 103
1, 25151, Note_on_c, 2, 74, 94
1, 25151, Note_on_c, 9, 56, 72
1, 25152, Note_on_c, 2, 79, 94
1, 25152, Note_on_c, 9, 36, 94
1, 25152, Note_on_c, 9, 49, 94
1, 25154, Note_on_c, 1, 31, 94
1, 25154, Note_off_c, 9, 56, 64
1, 25155, Note_off_c, 3, 73, 64
1, 25155, Note_off_c, 9, 49, 64
1, 25155, Note_off_c, 9, 36, 64
1, 25172, Note_off_c, 11, 75, 64
1, 25179, Note_on_c, 10, 72, 109
1, 25193, Note_on_c, 11, 74, 64
1, 25195, Note_on_c, 4, 46, 94
1, 25196, Note_off_c, 3, 72, 64
1, 25199, Note_on_c, 3, 70, 103
1, 25201, Note_on_c, 9, 44, 73
1, 25202, Note_on_c, 2, 67, 96
1, 25203, Note_off_c, 4, 46, 64
1, 25204, Note_off_c, 9, 44, 64
1, 25212, Note_off_c, 10, 73, 64
1, 25228, Note_off_c, 2, 77, 64
1, 25228, Note_on_c, 10, 70, 109
1, 25249, Note_off_c, 2, 79, 64
1, 25249, Note_off_c, 2, 74, 64
1, 25249, Note_off_c, 2, 82, 64
1, 25249, Note_on_c, 9, 42, 94
1, 25252, Note_off_c, 3, 70, 64
1, 25252, Note_off_c, 9, 42, 64
1, 25253, Note_off_c, 10, 72, 64
1, 25256, Note_off_c, 2, 67, 64
1, 25290, Note_off_c, 11, 74, 64
1, 25292, Note_off_c, 1, 31, 64
1, 25294, Note_off_c, 2, 43, 64
1, 25294, Note_on_c, 2, 70, 96
1, 25295, Note_on_c, 2, 46, 74
1, 25296, Note_on_c, 2, 74, 96
1, 25296, Note_on_c, 2, 77, 96
1, 25296, Note_on_c, 3, 65, 103
1, 25296, Note_on_c, 4, 46, 94
1, 25296, Note_on_c, 9, 36, 94
1, 25296, Note_on_c, 9, 52, 94
1, 25296, Note_on_c, 9, 55, 94
1, 25297, Note_on_c, 1, 34, 94
1, 25299, Note_off_c, 9, 55, 64
1, 25299, Note_off_c, 9, 52, 64
1, 25299, Note_off_c, 9, 36, 64
1, 25304, Note_off_c, 4, 46, 64
1, 25309, Note_off_c, 10, 70, 64
1, 25325, Note_on_c, 10, 65, 109
1, 25344, Note_on_c, 9, 42, 94
1, 25344, Note_on_c, 9, 56, 72
1, 25347, Note_off_c, 9, 56, 64
1, 25347, Note_off_c, 9, 42, 64
1, 25379, Pitch_bend_c, 3, 7936
1, 25380, Pitch_bend_c, 3, 7168
1, 25384, Pitch_bend_c, 3, 6272
1, 25387, Pitch_bend_c, 3, 4480
1, 25388, Control_c, 5, 1, 0
1, 25389, Note_on_c, 5, 73, 94
1, 25392, Note_on_c, 9, 44, 73
1, 25394, Pitch_bend_c, 3, 3456
1, 25394, Note_on_c, 4, 50, 109
1, 25395, Note_on_c, 4, 56, 109
1, 25395, Note_off_c, 9, 44, 64
1, 25398, Pitch_bend_c, 3, 2304
1, 25402, Pitch_bend_c, 3, 1280
1, 25402, Note_off_c, 4, 50, 64
1, 25403, Note_off_c, 4, 56, 64
1, 25405, Pitch_bend_c, 3, 640
1, 25408, Pitch_bend_c, 3, 0
1, 25408, Pitch_bend_c, 10, 7168
1, 25413, Pitch_bend_c, 10, 6272
1, 25416, Pitch_bend_c, 10, 5376
1, 25419, Pitch_bend_c, 10, 4480
1, 25423, Pitch_bend_c, 5, 8452
1, 25423, Pitch_bend_c, 10, 3456
1, 25426, Pitch_bend_c, 10, 2304
1, 25428, Pitch_bend_c, 5, 8582
1, 25430, Note_off_c, 3, 65, 64
1, 25430, Pitch_bend_c, 10, 1280
1, 25431, Pitch_bend_c, 5, 8712
1, 25433, Pitch_bend_c, 5, 8972
1, 25433, Pitch_bend_c, 10, 640
1, 25436, Pitch_bend_c, 10, 0
1, 25438, Pitch_bend_c, 5, 9102
1, 25439, Note_on_c, 9, 42, 94
1, 25441, Pitch_bend_c, 5, 9232
1, 25441, Note_on_c, 9, 40, 94
1, 25442, Note_off_c, 9, 42, 64
1, 25443, Pitch_bend_c, 5, 9492
1, 25444, Note_off_c, 9, 40, 64
1, 25447, Pitch_bend_c, 5, 9752
1, 25450, Pitch_bend_c, 5, 10142
1, 25452, Note_off_c, 10, 65, 64
1, 25454, Pitch_bend_c, 5, 10532
1, 25458, Pitch_bend_c, 5, 11182
1, 25460, Pitch_bend_c, 10, 8192
1, 25464, Pitch_bend_c, 5, 11572
1, 25468, Pitch_bend_c, 5, 12092
1, 25472, Pitch_bend_c, 5, 12742
1, 25475, Pitch_bend_c, 5, 13132
1, 25478, Pitch_bend_c, 5, 13912
1, 25482, Pitch_bend_c, 5, 14692
1, 25484, Note_on_c, 4, 50, 113
1, 25485, Note_on_c, 4, 56, 113
1, 25488, Note_on_c, 5, 70, 94
1, 25488, Note_on_c, 9, 44, 73
1, 25490, Pitch_bend_c, 5, 11832
1, 25491, Note_off_c, 9, 44, 64
1, 25492, Note_off_c, 4, 50, 64
1, 25492, Pitch_bend_c, 5, 8192
1, 25493, Note_off_c, 4, 56, 64
1, 25496, Note_off_c, 5, 73, 64
1, 25535, Note_on_c, 9, 56, 72
1, 25536, Note_on_c, 9, 36, 94
1, 25538, Note_off_c, 9, 56, 64
1, 25538, Note_on_c, 9, 42, 94
1, 25539, Note_off_c, 9, 36, 64
1, 25541, Note_off_c, 9, 42, 64
1, 25547, Note_off_c, 2, 46, 64
1, 25579, Note_off_c, 1, 34, 64
1, 25579, Note_on_c, 4, 50, 116
1, 25580, Note_on_c, 4, 56, 116
1, 25581, Note_on_c, 1, 29, 94
1, 25583, Note_on_c, 2, 50, 60
1, 25584, Note_on_c, 9, 40, 83
1, 25584, Note_on_c, 9, 44, 83
1, 25586, Note_on_c, 2, 52, 61
1, 25587, Note_off_c, 2, 50, 64
1, 25587, Note_off_c, 4, 50, 64
1, 25587, Note_off_c, 9, 44, 64
1, 25587, Note_off_c, 9, 40, 64
1, 25588, Note_off_c, 4, 56, 64
1, 25590, Note_off_c, 2, 52, 64
1, 25592, Note_on_c, 2, 53, 63
1, 25596, Note_off_c, 2, 53, 64
1, 25597, Note_on_c, 2, 55, 65
1, 25601, Note_off_c, 2, 55, 64
1, 25603, Note_on_c, 2, 57, 68
1, 25607, Note_off_c, 2, 57, 64
1, 25608, Note_on_c, 2, 59, 70
1, 25612, Note_off_c, 2, 59, 64
1, 25613, Note_on_c, 2, 60, 72
1, 25617, Note_off_c, 2, 60, 64
1, 25617, Note_on_c, 2, 62, 73
1, 25620, Note_on_c, 2, 64, 75
1, 25621, Note_off_c, 2, 62, 64
1, 25622, Pitch_bend_c, 5, 7680
1, 25623, Note_on_c, 2, 65, 76
1, 25624, Note_off_c, 2, 64, 64
1, 25626, Pitch_bend_c, 5, 7168
1, 25627, Note_off_c, 2, 65, 64
1, 25628, Note_on_c, 2, 67, 78
1, 25630, Pitch_bend_c, 5, 6912
1, 25632, Note_off_c, 2, 67, 64
1, 25632, Pitch_bend_c, 5, 6400
1, 25633, Note_on_c, 9, 42, 94
1, 25633, Note_on_c, 9, 40, 94
1, 25636, Pitch_bend_c, 5, 5888
1, 25636, Note_off_c, 9, 40, 64
1, 25636, Note_off_c, 9, 42, 64
1, 25637, Note_off_c, 2, 77, 64
1, 25638, Note_off_c, 2, 74, 64
1, 25638, Note_off_c, 2, 70, 64
1, 25640, Pitch_bend_c, 5, 5248
1, 25641, Note_on_c, 2, 88, 83
1, 25642, Note_on_c, 2, 89, 84
1, 25644, Pitch_bend_c, 5, 4608
1, 25645, Note_off_c, 2, 88, 64
1, 25646, Note_off_c, 2, 89, 64
1, 25647, Note_on_c, 2, 86, 86
1, 25647, Pitch_bend_c, 5, 3584
1, 25651, Note_off_c, 2, 86, 64
1, 25652, Note_on_c, 2, 84, 88
1, 25653, Pitch_bend_c, 5, 2688
1, 25656, Note_off_c, 2, 84, 64
1, 25657, Pitch_bend_c, 1, 7552
1, 25657, Note_on_c, 2, 83, 93
1, 25657, Pitch_bend_c, 5, 1536
1, 25660, Note_on_c, 2, 81, 91
1, 25660, Pitch_bend_c, 5, 0
1, 25661, Pitch_bend_c, 1, 7296
1, 25661, Note_off_c, 2, 83, 64
1, 25664, Note_off_c, 2, 81, 64
1, 25664, Note_on_c, 2, 79, 89
1, 25665, Pitch_bend_c, 1, 6656
1, 25665, Note_off_c, 5, 70, 64
1, 25668, Note_off_c, 2, 79, 64
1, 25668, Note_on_c, 2, 77, 88
1, 25671, Pitch_bend_c, 1, 6144
1, 25672, Note_off_c, 2, 77, 64
1, 25675, Pitch_bend_c, 1, 5504
1, 25675, Note_on_c, 2, 76, 84
1, 25679, Pitch_bend_c, 1, 4864
1, 25679, Note_off_c, 2, 76, 64
1, 25680, Note_on_c, 4, 56, 117
1, 25680, Note_on_c, 4, 50, 117
1, 25680, Note_on_c, 9, 46, 77
1, 25680, Note_on_c, 9, 41, 77
1, 25681, Note_on_c, 2, 74, 81
1, 25682, Pitch_bend_c, 1, 4608
1, 25683, Note_off_c, 9, 41, 64
1, 25683, Note_off_c, 9, 46, 64
1, 25685, Pitch_bend_c, 1, 3968
1, 25685, Note_off_c, 2, 74, 64
1, 25687, Note_on_c, 2, 72, 79
1, 25688, Note_off_c, 4, 50, 64
1, 25688, Note_off_c, 4, 56, 64
1, 25689, Pitch_bend_c, 1, 3200
1, 25691, Note_off_c, 2, 72, 64
1, 25693, Pitch_bend_c, 1, 2304
1, 25694, Note_on_c, 2, 71, 75
1, 25696, Pitch_bend_c, 1, 1408
1, 25698, Note_off_c, 2, 71, 64
1, 25700, Pitch_bend_c, 1, 768
1, 25700, Note_on_c, 2, 69, 73
1, 25704, Note_off_c, 2, 69, 64
1, 25706, Note_on_c, 2, 67, 70
1, 25710, Note_off_c, 2, 67, 64
1, 25712, Note_on_c, 2, 65, 67
1, 25714, Note_off_c, 1, 29, 64
1, 25716, Note_off_c, 2, 65, 64
1, 25719, Note_on_c, 2, 64, 64
1, 25723, Note_off_c, 2, 64, 64
1, 25724, Note_on_c, 2, 62, 61
1, 25727, Pitch_bend_c, 1, 8192
1, 25728, Note_on_c, 1, 34, 88
1, 25728, Note_off_c, 2, 62, 64
1, 25728, Note_on_c, 9, 36, 94
1, 25728, Note_on_c, 9, 42, 94
1, 25728, Note_on_c, 9, 56, 72
1, 25731, Note_off_c, 9, 56, 64
1, 25731, Note_off_c, 9, 42, 64
1, 25731, Note_off_c, 9, 36, 64
1, 25743, Note_off_c, 1, 34, 64
1, 25775, Pitch_bend_c, 3, 8192
1, 25776, Note_on_c, 3, 73, 103
1, 25776, Note_on_c, 9, 44, 73
1, 25779, Note_off_c, 9, 44, 64
1, 25790, Note_off_c, 3, 73, 64
1, 25805, Note_on_c, 10, 73, 109
1, 25823, Note_on_c, 3, 70, 92
1, 25823, Note_on_c, 9, 42, 94
1, 25825, Note_on_c, 9, 40, 94
1, 25826, Note_off_c, 9, 42, 64
1, 25828, Note_off_c, 9, 40, 64
1, 25836, Note_off_c, 3, 70, 64
1, 25847, Note_off_c, 10, 73, 64
1, 25851, Note_on_c, 10, 70, 98
1, 25871, Note_on_c, 3, 73, 103
1, 25872, Note_on_c, 9, 44, 73
1, 25875, Note_off_c, 9, 44, 64
1, 25882, Note_off_c, 3, 73, 64
1, 25893, Note_off_c, 10, 70, 64
1, 25900, Note_on_c, 10, 73, 109
1, 25919, Note_on_c, 3, 70, 90
1, 25919, Note_on_c, 9, 56, 72
1, 25920, Note_on_c, 9, 36, 94
1, 25922, Note_off_c, 9, 56, 64
1, 25922, Note_on_c, 9, 42, 94
1, 25923, Note_off_c, 9, 36, 64
1, 25925, Note_off_c, 9, 42, 64
1, 25927, Note_off_c, 3, 70, 64
1, 25939, Note_off_c, 10, 73, 64
1, 25947, Note_on_c, 10, 70, 96
1, 25966, Note_on_c, 3, 73, 103
1, 25969, Note_on_c, 9, 44, 73
1, 25972, Note_off_c, 9, 44, 64
1, 25984, Note_off_c, 10, 70, 64
1, 25994, Note_on_c, 10, 73, 109
1, 26012, Pitch_bend_c, 3, 8842
1, 26017, Pitch_bend_c, 3, 9492
1, 26017, Note_on_c, 9, 42, 94
1, 26017, Note_on_c, 9, 40, 94
1, 26020, Note_off_c, 9, 40, 64
1, 26020, Note_off_c, 9, 42, 64
1, 26021, Pitch_bend_c, 3, 10142
1, 26025, Pitch_bend_c, 3, 11572
1, 26031, Pitch_bend_c, 3, 13522
1, 26039, Pitch_bend_c, 3, 15732
1, 26040, Pitch_bend_c, 10, 8452
1, 26042, Pitch_bend_c, 10, 8842
1, 26045, Pitch_bend_c, 3, 16382
1, 26046, Pitch_bend_c, 10, 9492
1, 26049, Note_off_c, 3, 73, 64
1, 26050, Pitch_bend_c, 10, 10142
1, 26054, Pitch_bend_c, 10, 10662
1, 26056, Pitch_bend_c, 10, 11572
1, 26059, Pitch_bend_c, 10, 12612
1, 26063, Pitch_bend_c, 10, 13522
1, 26066, Note_on_c, 9, 44, 73
1, 26068, Pitch_bend_c, 10, 14562
1, 26069, Note_off_c, 9, 44, 64
1, 26070, Pitch_bend_c, 10, 15732
1, 26074, Pitch_bend_c, 10, 16382
1, 26097, Note_off_c, 10, 73, 64
1, 26111, Pitch_bend_c, 3, 8223
1, 26111, Pitch_bend_c, 10, 8192
1, 26112, Note_on_c, 3, 68, 84
1, 26112, Note_on_c, 9, 36, 94
1, 26112, Note_on_c, 9, 42, 94
1, 26112, Note_on_c, 9, 56, 72
1, 26115, Note_off_c, 9, 56, 64
1, 26115, Note_off_c, 9, 42, 64
1, 26115, Note_off_c, 9, 36, 64
1, 26125, Note_off_c, 3, 68, 64
1, 26141, Note_on_c, 10, 68, 90
1, 26159, Note_on_c, 3, 70, 96
1, 26160, Note_on_c, 9, 44, 73
1, 26163, Note_off_c, 9, 44, 64
1, 26171, Note_off_c, 3, 70, 64
1, 26182, Note_off_c, 10, 68, 64
1, 26188, Note_on_c, 10, 70, 102
1, 26207, Note_on_c, 9, 42, 94
1, 26208, Note_on_c, 3, 70, 103
1, 26209, Note_on_c, 9, 40, 94
1, 26210, Note_off_c, 9, 42, 64
1, 26212, Note_off_c, 9, 40, 64
1, 26220, Note_off_c, 3, 70, 64
1, 26228, Note_off_c, 10, 70, 64
1, 26236, Note_on_c, 10, 70, 109
1, 26255, Note_on_c, 3, 73, 107
1, 26256, Note_on_c, 9, 44, 73
1, 26259, Note_off_c, 9, 44, 64
1, 26277, Note_off_c, 10, 70, 64
1, 26284, Note_on_c, 10, 73, 113
1, 26303, Note_on_c, 9, 56, 72
1, 26304, Note_on_c, 9, 36, 94
1, 26306, Note_off_c, 9, 56, 64
1, 26306, Note_on_c, 9, 42, 94
1, 26307, Note_off_c, 9, 36, 64
1, 26309, Note_off_c, 9, 42, 64
1, 26328, Pitch_bend_c, 3, 7646
1, 26332, Pitch_bend_c, 3, 7100
1, 26336, Pitch_bend_c, 3, 6554
1, 26340, Pitch_bend_c, 3, 6008
1, 26344, Pitch_bend_c, 3, 5461
1, 26348, Pitch_bend_c, 3, 4915
1, 26352, Pitch_bend_c, 3, 4369
1, 26353, Note_on_c, 9, 44, 73
1, 26356, Pitch_bend_c, 3, 3823
1, 26356, Note_off_c, 9, 44, 64
1, 26356, Pitch_bend_c, 10, 7646
1, 26360, Pitch_bend_c, 3, 3277
1, 26360, Pitch_bend_c, 10, 7100
1, 26364, Pitch_bend_c, 3, 2731
1, 26364, Pitch_bend_c, 10, 6554
1, 26368, Pitch_bend_c, 3, 2185
1, 26368, Pitch_bend_c, 10, 6008
1, 26372, Note_off_c, 3, 73, 64
1, 26372, Pitch_bend_c, 3, 1639
1, 26372, Pitch_bend_c, 10, 5461
1, 26376, Pitch_bend_c, 10, 4915
1, 26380, Pitch_bend_c, 10, 4369
1, 26384, Pitch_bend_c, 10, 3823
1, 26388, Pitch_bend_c, 10, 3277
1, 26392, Pitch_bend_c, 10, 2731
1, 26396, Pitch_bend_c, 10, 2185
1, 26399, Pitch_bend_c, 5, 8192
1, 26399, Pitch_bend_c, 6, 8192
1, 26399, Control_c, 6, 1, 0
1, 26400, Note_on_c, 5, 72, 94
1, 26400, Note_on_c, 6, 72, 94
1, 26400, Pitch_bend_c, 10, 1639
1, 26401, Note_on_c, 9, 42, 94
1, 26401, Note_on_c, 9, 40, 94
1, 26404, Note_off_c, 9, 40, 64
1, 26404, Note_off_c, 9, 42, 64
1, 26419, Note_off_c, 10, 73, 64
1, 26431, Pitch_bend_c, 10, 8192
1, 26446, Note_on_c, 5, 68, 94
1, 26447, Note_on_c, 6, 68, 94
1, 26448, Note_off_c, 5, 72, 64
1, 26448, Note_off_c, 6, 72, 64
1, 26450, Note_on_c, 9, 44, 73
1, 26453, Note_off_c, 9, 44, 64
1, 26488, Note_off_c, 5, 68, 64
1, 26489, Note_off_c, 6, 68, 64
1, 26493, Note_on_c, 5, 65, 94
1, 26494, Note_on_c, 1, 34, 100
1, 26495, Note_on_c, 6, 65, 94
1, 26496, Note_on_c, 2, 46, 74
1, 26496, Note_on_c, 4, 58, 60
1, 26496, Note_on_c, 4, 53, 60
1, 26496, Note_on_c, 9, 36, 94
1, 26496, Note_on_c, 9, 42, 94
1, 26496, Note_on_c, 9, 56, 72
1, 26499, Note_off_c, 9, 56, 64
1, 26499, Note_off_c, 9, 42, 64
1, 26499, Note_off_c, 9, 36, 64
1, 26504, Note_off_c, 4, 53, 64
1, 26504, Note_off_c, 4, 58, 64
1, 26509, Note_off_c, 1, 34, 64
1, 26541, Pitch_bend_c, 5, 8582
1, 26541, Pitch_bend_c, 6, 8582
1, 26542, Note_on_c, 1, 34, 100
1, 26543, Pitch_bend_c, 5, 14302
1, 26543, Pitch_bend_c, 6, 14302
1, 26544, Note_on_c, 9, 44, 73
1, 26546, Note_on_c, 4, 58, 94
1, 26546, Note_on_c, 4, 53, 94
1, 26547, Note_off_c, 9, 44, 64
1, 26549, Pitch_bend_c, 5, 16382
1, 26549, Pitch_bend_c, 6, 16382
1, 26554, Note_off_c, 4, 53, 64
1, 26554, Note_off_c, 4, 58, 64
1, 26565, Note_off_c, 1, 34, 64
1, 26588, Pitch_bend_c, 5, 10402
1, 26588, Pitch_bend_c, 6, 10402
1, 26589, Note_on_c, 1, 44, 100
1, 26589, Note_off_c, 5, 65, 64
1, 26590, Note_off_c, 6, 65, 64
1, 26591, Note_on_c, 4, 58, 84
1, 26591, Note_on_c, 4, 53, 84
1, 26591, Pitch_bend_c, 5, 8192
1, 26591, Pitch_bend_c, 6, 8192
1, 26591, Note_on_c, 9, 42, 94
1, 26592, Note_on_c, 5, 70, 94
1, 26592, Note_on_c, 6, 70, 94
1, 26593, Note_on_c, 9, 40, 94
1, 26594, Note_off_c, 9, 42, 64
1, 26596, Note_off_c, 9, 40, 64
1, 26599, Note_off_c, 4, 53, 64
1, 26599, Note_off_c, 4, 58, 64
1, 26612, Note_off_c, 1, 44, 64
1, 26636, Note_on_c, 4, 58, 97
1, 26636, Note_on_c, 4, 53, 97
1, 26639, Note_on_c, 1, 34, 60
1, 26640, Note_on_c, 9, 44, 73
1, 26642, Pitch_bend_c, 5, 14302
1, 26642, Pitch_bend_c, 6, 14302
1, 26643, Note_off_c, 9, 44, 64
1, 26644, Note_off_c, 4, 53, 64
1, 26644, Note_off_c, 4, 58, 64
1, 26646, Note_off_c, 1, 34, 64
1, 26647, Pitch_bend_c, 5, 16382
1, 26647, Pitch_bend_c, 6, 16382
1, 26687, Note_on_c, 4, 58, 86
1, 26687, Note_on_c, 4, 53, 86
1, 26687, Note_on_c, 9, 56, 72
1, 26688, Note_on_c, 1, 44, 80
1, 26688, Note_off_c, 5, 70, 64
1, 26688, Pitch_bend_c, 5, 10662
1, 26688, Note_off_c, 6, 70, 64
1, 26688, Pitch_bend_c, 6, 10662
1, 26688, Note_on_c, 9, 36, 94
1, 26689, Note_on_c, 6, 65, 94
1, 26690, Pitch_bend_c, 6, 6784
1, 26690, Note_off_c, 9, 56, 64
1, 26690, Note_on_c, 9, 42, 94
1, 26691, Note_on_c, 5, 65, 94
1, 26691, Note_off_c, 9, 36, 64
1, 26693, Pitch_bend_c, 5, 8192
1, 26693, Pitch_bend_c, 6, 8192
1, 26693, Note_off_c, 9, 42, 64
1, 26695, Note_off_c, 4, 53, 64
1, 26695, Note_off_c, 4, 58, 64
1, 26704, Pitch_bend_c, 1, 16383
1, 26727, Note_off_c, 1, 44, 64
1, 26735, Pitch_bend_c, 1, 8192
1, 26736, Note_on_c, 1, 34, 100
1, 26736, Pitch_bend_c, 6, 9492
1, 26737, Note_on_c, 4, 53, 94
1, 26737, Note_on_c, 9, 44, 73
1, 26738, Note_on_c, 4, 58, 94
1, 26738, Pitch_bend_c, 6, 13002
1, 26740, Note_off_c, 9, 44, 64
1, 26742, Pitch_bend_c, 6, 15602
1, 26745, Note_off_c, 4, 53, 64
1, 26745, Pitch_bend_c, 5, 16382
1, 26745, Pitch_bend_c, 6, 16382
1, 26746, Note_off_c, 4, 58, 64
1, 26759, Note_off_c, 1, 34, 64
1, 26781, Pitch_bend_c, 5, 15212
1, 26781, Pitch_bend_c, 6, 15212
1, 26784, Note_on_c, 4, 53, 92
1, 26784, Note_on_c, 4, 58, 92
1, 26784, Pitch_bend_c, 5, 13002
1, 26784, Pitch_bend_c, 6, 13002
1, 26785, Note_on_c, 9, 42, 94
1, 26785, Note_on_c, 9, 40, 94
1, 26787, Pitch_bend_c, 5, 8314
1, 26787, Pitch_bend_c, 6, 8314
1, 26788, Note_off_c, 9, 40, 64
1, 26788, Note_off_c, 9, 42, 64
1, 26791, Note_off_c, 4, 53, 64
1, 26792, Note_off_c, 4, 58, 64
1, 26823, Pitch_bend_c, 5, 8972
1, 26823, Pitch_bend_c, 6, 8972
1, 26826, Pitch_bend_c, 5, 10012
1, 26826, Pitch_bend_c, 6, 10012
1, 26829, Pitch_bend_c, 5, 13132
1, 26829, Pitch_bend_c, 6, 13132
1, 26833, Note_on_c, 4, 53, 92
1, 26834, Note_on_c, 1, 34, 100
1, 26834, Note_on_c, 4, 58, 92
1, 26834, Note_on_c, 9, 44, 73
1, 26836, Pitch_bend_c, 5, 16252
1, 26836, Pitch_bend_c, 6, 16252
1, 26837, Note_off_c, 9, 44, 64
1, 26840, Note_off_c, 4, 53, 64
1, 26841, Note_off_c, 4, 58, 64
1, 26843, Pitch_bend_c, 5, 16382
1, 26843, Pitch_bend_c, 6, 16382
1, 26857, Note_off_c, 6, 65, 64
1, 26880, Note_on_c, 4, 58, 60
1, 26880, Note_on_c, 4, 53, 60
1, 26880, Note_on_c, 9, 36, 94
1, 26880, Note_on_c, 9, 42, 94
1, 26880, Note_on_c, 9, 56, 72
1, 26883, Note_off_c, 9, 56, 64
1, 26883, Note_off_c, 9, 42, 64
1, 26883, Note_off_c, 9, 36, 64
1, 26888, Note_off_c, 4, 53, 64
1, 26888, Note_off_c, 4, 58, 64
1, 26905, Note_off_c, 1, 34, 64
1, 26925, Control_c, 5, 1, 2
1, 26927, Control_c, 5, 1, 9
1, 26928, Note_on_c, 1, 34, 100
1, 26928, Note_on_c, 9, 44, 73
1, 26930, Note_on_c, 4, 58, 94
1, 26930, Note_on_c, 4, 53, 94
1, 26931, Control_c, 5, 1, 18
1, 26931, Note_off_c, 9, 44, 64
1, 26936, Control_c, 5, 1, 25
1, 26938, Note_off_c, 4, 53, 64
1, 26938, Note_off_c, 4, 58, 64
1, 26940, Control_c, 5, 1, 33
1, 26945, Control_c, 5, 1, 39
1, 26950, Control_c, 5, 1, 46
1, 26951, Note_off_c, 1, 34, 64
1, 26954, Control_c, 5, 1, 52
1, 26959, Control_c, 5, 1, 58
1, 26963, Control_c, 5, 1, 62
1, 26968, Control_c, 5, 1, 64
1, 26972, Control_c, 5, 1, 68
1, 26975, Note_on_c, 4, 58, 84
1, 26975, Note_on_c, 4, 53, 84
1, 26975, Note_on_c, 9, 42, 94
1, 26976, Note_on_c, 1, 44, 100
1, 26976, Control_c, 5, 1, 71
1, 26977, Note_on_c, 9, 40, 94
1, 26978, Note_off_c, 9, 42, 64
1, 26980, Note_off_c, 9, 40, 64
1, 26981, Control_c, 5, 1, 75
1, 26983, Note_off_c, 4, 53, 64
1, 26983, Note_off_c, 4, 58, 64
1, 26986, Control_c, 5, 1, 77
1, 26990, Control_c, 5, 1, 80
1, 26995, Control_c, 5, 1, 82
1, 26999, Note_off_c, 1, 44, 64
1, 27001, Control_c, 5, 1, 84
1, 27005, Control_c, 5, 1, 85
1, 27009, Control_c, 5, 1, 87
1, 27016, Control_c, 5, 1, 88
1, 27020, Note_on_c, 4, 58, 97
1, 27020, Note_on_c, 4, 53, 97
1, 27024, Note_on_c, 9, 44, 73
1, 27027, Note_off_c, 9, 44, 64
1, 27028, Note_off_c, 4, 53, 64
1, 27028, Note_off_c, 4, 58, 64
1, 27043, Control_c, 5, 1, 87
1, 27046, Control_c, 5, 1, 85
1, 27049, Control_c, 5, 1, 83
1, 27055, Control_c, 5, 1, 82
1, 27058, Control_c, 5, 1, 78
1, 27062, Control_c, 5, 1, 75
1, 27067, Control_c, 5, 1, 72
1, 27071, Note_on_c, 4, 58, 86
1, 27071, Note_on_c, 4, 53, 86
1, 27071, Control_c, 5, 1, 68
1, 27071, Note_on_c, 6, 67, 94
1, 27071, Note_on_c, 6, 72, 94
1, 27071, Note_on_c, 9, 56, 72
1, 27072, Note_on_c, 9, 36, 94
1, 27074, Note_off_c, 9, 56, 64
1, 27074, Note_on_c, 9, 42, 94
1, 27075, Note_off_c, 9, 36, 64
1, 27076, Control_c, 5, 1, 62
1, 27077, Note_off_c, 9, 42, 64
1, 27079, Note_off_c, 4, 53, 64
1, 27079, Note_off_c, 4, 58, 64
1, 27080, Control_c, 5, 1, 57
1, 27081, Pitch_bend_c, 6, 9882
1, 27085, Control_c, 5, 1, 52
1, 27085, Pitch_bend_c, 6, 11962
1, 27089, Control_c, 5, 1, 47
1, 27089, Pitch_bend_c, 6, 16252
1, 27091, Pitch_bend_c, 5, 16252
1, 27092, Pitch_bend_c, 5, 16122
1, 27092, Pitch_bend_c, 6, 14432
1, 27094, Control_c, 5, 1, 42
1, 27095, Pitch_bend_c, 5, 15732
1, 27095, Pitch_bend_c, 6, 15472
1, 27098, Control_c, 5, 1, 37
1, 27099, Pitch_bend_c, 6, 15602
1, 27100, Pitch_bend_c, 5, 15602
1, 27102, Pitch_bend_c, 5, 14692
1, 27102, Pitch_bend_c, 6, 15082
1, 27103, Control_c, 5, 1, 31
1, 27107, Control_c, 5, 1, 3
1, 27109, Pitch_bend_c, 5, 13782
1, 27109, Pitch_bend_c, 6, 13782
1, 27111, Control_c, 5, 1, 0
1, 27113, Pitch_bend_c, 5, 13132
1, 27113, Pitch_bend_c, 6, 11702
1, 27115, Note_off_c, 5, 65, 64
1, 27116, Pitch_bend_c, 6, 8192
1, 27120, Note_on_c, 1, 29, 82
1, 27120, Pitch_bend_c, 6, 8314
1, 27121, Note_on_c, 4, 53, 94
1, 27121, Note_on_c, 9, 44, 73
1, 27122, Note_on_c, 4, 58, 94
1, 27124, Pitch_bend_c, 6, 8238
1, 27124, Note_off_c, 9, 44, 64
1, 27127, Pitch_bend_c, 6, 8192
1, 27129, Note_off_c, 4, 53, 64
1, 27130, Note_off_c, 4, 58, 64
1, 27135, Note_off_c, 1, 29, 64
1, 27151, Note_off_c, 6, 72, 64
1, 27164, Note_off_c, 6, 67, 64
1, 27166, Note_on_c, 6, 70, 94
1, 27166, Note_on_c, 6, 65, 94
1, 27168, Note_on_c, 1, 32, 100
1, 27168, Note_on_c, 4, 53, 92
1, 27168, Note_on_c, 4, 58, 92
1, 27169, Note_on_c, 9, 42, 94
1, 27169, Note_on_c, 9, 40, 94
1, 27172, Note_off_c, 9, 40, 64
1, 27172, Note_off_c, 9, 42, 64
1, 27175, Note_off_c, 4, 53, 64
1, 27176, Note_off_c, 4, 58, 64
1, 27191, Note_off_c, 1, 32, 64
1, 27204, Note_off_c, 6, 65, 64
1, 27214, Note_off_c, 6, 70, 64
1, 27214, Note_on_c, 6, 62, 94
1, 27215, Note_on_c, 6, 67, 94
1, 27216, Note_on_c, 1, 34, 100
1, 27217, Note_on_c, 4, 53, 92
1, 27218, Note_on_c, 4, 58, 92
1, 27218, Note_on_c, 9, 44, 73
1, 27221, Note_off_c, 9, 44, 64
1, 27224, Note_off_c, 4, 53, 64
1, 27225, Note_off_c, 4, 58, 64
1, 27235, Note_off_c, 6, 67, 64
1, 27243, Note_off_c, 6, 62, 64
1, 27263, Note_on_c, 6, 70, 94
1, 27264, Note_on_c, 4, 58, 94
1, 27264, Note_on_c, 4, 53, 94
1, 27264, Note_on_c, 6, 65, 94
1, 27264, Note_on_c, 9, 36, 94
1, 27264, Note_on_c, 9, 42, 94
1, 27264, Note_on_c, 9, 56, 72
1, 27267, Note_off_c, 9, 56, 64
1, 27267, Note_off_c, 9, 42, 64
1, 27267, Note_off_c, 9, 36, 64
1, 27272, Note_off_c, 4, 53, 64
1, 27272, Note_off_c, 4, 58, 64
1, 27279, Note_off_c, 1, 34, 64
1, 27287, Note_off_c, 6, 65, 64
1, 27297, Note_off_c, 6, 70, 64
1, 27311, Pitch_bend_c, 6, 128
1, 27312, Note_on_c, 6, 67, 94
1, 27312, Note_on_c, 9, 44, 73
1, 27313, Note_on_c, 6, 62, 94
1, 27314, Note_on_c, 4, 58, 94
1, 27314, Note_on_c, 4, 53, 94
1, 27315, Note_off_c, 9, 44, 64
1, 27316, Pitch_bend_c, 6, 256
1, 27319, Pitch_bend_c, 6, 2432
1, 27322, Note_off_c, 4, 53, 64
1, 27322, Note_off_c, 4, 58, 64
1, 27323, Pitch_bend_c, 6, 4480
1, 27326, Pitch_bend_c, 6, 8192
1, 27359, Note_on_c, 1, 44, 100
1, 27359, Note_on_c, 4, 58, 94
1, 27359, Note_on_c, 4, 53, 94
1, 27359, Note_on_c, 9, 42, 94
1, 27361, Note_on_c, 9, 40, 94
1, 27362, Note_off_c, 9, 42, 64
1, 27364, Note_off_c, 9, 40, 64
1, 27367, Note_off_c, 4, 53, 64
1, 27367, Note_off_c, 4, 58, 64
1, 27398, Note_off_c, 1, 44, 64
1, 27404, Note_on_c, 4, 58, 94
1, 27404, Note_on_c, 4, 53, 94
1, 27408, Note_on_c, 9, 44, 73
1, 27411, Note_off_c, 9, 44, 64
1, 27412, Note_on_c, 1, 34, 89
1, 27412, Note_off_c, 4, 53, 64
1, 27412, Note_off_c, 4, 58, 64
1, 27422, Note_off_c, 6, 62, 64
1, 27427, Note_off_c, 1, 34, 64
1, 27455, Note_on_c, 1, 44, 100
1, 27455, Note_on_c, 4, 58, 94
1, 27455, Note_on_c, 4, 53, 94
1, 27455, Note_on_c, 9, 56, 72
1, 27456, Note_on_c, 9, 36, 94
1, 27458, Note_off_c, 9, 56, 64
1, 27458, Note_on_c, 9, 42, 94
1, 27459, Note_off_c, 9, 36, 64
1, 27461, Note_off_c, 9, 42, 64
1, 27463, Note_off_c, 4, 53, 64
1, 27463, Note_off_c, 4, 58, 64
1, 27470, Pitch_bend_c, 1, 16383
1, 27470, Note_off_c, 6, 67, 64
1, 27494, Note_off_c, 1, 44, 64
1, 27503, Pitch_bend_c, 1, 8192
1, 27504, Note_on_c, 1, 34, 88
1, 27505, Note_on_c, 4, 53, 94
1, 27505, Note_on_c, 9, 44, 73
1, 27506, Note_on_c, 4, 58, 94
1, 27508, Note_off_c, 9, 44, 64
1, 27513, Note_off_c, 4, 53, 64
1, 27514, Note_off_c, 4, 58, 64
1, 27519, Note_off_c, 1, 34, 64
1, 27552, Note_on_c, 4, 56, 74
1, 27552, Note_on_c, 9, 40, 94
1, 27553, Note_on_c, 4, 61, 75
1, 27553, Note_on_c, 9, 42, 94
1, 27555, Note_off_c, 9, 40, 64
1, 27556, Note_off_c, 9, 42, 64
1, 27560, Note_off_c, 4, 56, 64
1, 27561, Note_off_c, 4, 61, 64
1, 27600, Note_on_c, 1, 39, 100
1, 27600, Note_on_c, 4, 58, 90
1, 27600, Note_on_c, 4, 63, 90
1, 27602, Note_on_c, 9, 44, 73
1, 27605, Note_off_c, 9, 44, 64
1, 27608, Note_off_c, 4, 63, 64
1, 27608, Note_off_c, 4, 58, 64
1, 27648, Note_on_c, 4, 58, 54
1, 27648, Note_on_c, 4, 63, 54
1, 27648, Note_on_c, 9, 36, 94
1, 27648, Note_on_c, 9, 42, 94
1, 27648, Note_on_c, 9, 56, 72
1, 27651, Note_off_c, 9, 56, 64
1, 27651, Note_off_c, 9, 42, 64
1, 27651, Note_off_c, 9, 36, 64
1, 27656, Note_off_c, 4, 63, 64
1, 27656, Note_off_c, 4, 58, 64
1, 27671, Note_off_c, 1, 39, 64
1, 27693, Note_on_c, 1, 39, 100
1, 27696, Note_on_c, 4, 58, 98
1, 27696, Note_on_c, 4, 63, 98
1, 27696, Note_on_c, 9, 44, 73
1, 27699, Note_off_c, 9, 44, 64
1, 27704, Note_off_c, 4, 63, 64
1, 27704, Note_off_c, 4, 58, 64
1, 27732, Note_off_c, 1, 39, 64
1, 27743, Note_on_c, 1, 49, 100
1, 27743, Note_on_c, 9, 42, 94
1, 27744, Note_on_c, 4, 63, 77
1, 27744, Note_on_c, 4, 58, 77
1, 27745, Note_on_c, 9, 40, 94
1, 27746, Note_off_c, 9, 42, 64
1, 27748, Note_off_c, 9, 40, 64
1, 27752, Note_off_c, 4, 58, 64
1, 27752, Note_off_c, 4, 63, 64
1, 27782, Note_off_c, 1, 49, 64
1, 27791, Note_on_c, 1, 39, 75
1, 27792, Note_on_c, 4, 63, 93
1, 27792, Note_on_c, 4, 58, 93
1, 27792, Note_on_c, 9, 44, 73
1, 27795, Note_off_c, 9, 44, 64
1, 27800, Note_off_c, 4, 58, 64
1, 27800, Note_off_c, 4, 63, 64
1, 27806, Note_off_c, 1, 39, 64
1, 27838, Note_on_c, 1, 49, 100
1, 27839, Note_on_c, 9, 56, 72
1, 27840, Note_on_c, 4, 63, 90
1, 27840, Note_on_c, 4, 58, 90
1, 27840, Note_on_c, 9, 36, 94
1, 27842, Note_off_c, 9, 56, 64
1, 27842, Note_on_c, 9, 42, 94
1, 27843, Note_off_c, 9, 36, 64
1, 27845, Note_off_c, 9, 42, 64
1, 27848, Note_off_c, 4, 58, 64
1, 27848, Note_off_c, 4, 63, 64
1, 27849, Pitch_bend_c, 1, 16383
1, 27877, Note_off_c, 1, 49, 64
1, 27884, Pitch_bend_c, 1, 8192
1, 27885, Note_on_c, 1, 29, 90
1, 27888, Note_on_c, 4, 63, 91
1, 27888, Note_on_c, 4, 58, 91
1, 27889, Note_on_c, 9, 44, 73
1, 27892, Note_off_c, 9, 44, 64
1, 27896, Note_off_c, 4, 58, 64
1, 27896, Note_off_c, 4, 63, 64
1, 27900, Note_off_c, 1, 29, 64
1, 27934, Note_on_c, 1, 32, 91
1, 27936, Note_on_c, 4, 63, 97
1, 27936, Note_on_c, 4, 58, 97
1, 27937, Note_on_c, 9, 42, 94
1, 27937, Note_on_c, 9, 40, 94
1, 27940, Note_off_c, 9, 40, 64
1, 27940, Note_off_c, 9, 42, 64
1, 27944, Note_off_c, 4, 58, 64
1, 27944, Note_off_c, 4, 63, 64
1, 27965, Note_off_c, 1, 32, 64
1, 27981, Note_on_c, 1, 34, 100
1, 27984, Note_on_c, 4, 58, 77
1, 27984, Note_on_c, 4, 63, 77
1, 27986, Note_on_c, 9, 44, 73
1, 27989, Note_off_c, 9, 44, 64
1, 27992, Note_off_c, 4, 63, 64
1, 27992, Note_off_c, 4, 58, 64
1, 28031, Pitch_bend_c, 5, 8192
1, 28031, Control_c, 5, 1, 0
1, 28032, Note_on_c, 4, 58, 60
1, 28032, Note_on_c, 4, 53, 60
1, 28032, Note_on_c, 5, 60, 94
1, 28032, Note_on_c, 9, 36, 94
1, 28032, Note_on_c, 9, 42, 94
1, 28032, Note_on_c, 9, 56, 72
1, 28035, Note_off_c, 9, 56, 64
1, 28035, Note_off_c, 9, 42, 64
1, 28035, Note_off_c, 9, 36, 64
1, 28040, Note_off_c, 4, 53, 64
1, 28040, Note_off_c, 4, 58, 64
1, 28060, Note_off_c, 1, 34, 64
1, 28075, Pitch_bend_c, 5, 12092
1, 28077, Note_on_c, 1, 34, 100
1, 28080, Note_on_c, 9, 44, 73
1, 28082, Note_on_c, 4, 58, 94
1, 28082, Note_on_c, 4, 53, 94
1, 28083, Pitch_bend_c, 5, 15082
1, 28083, Note_off_c, 9, 44, 64
1, 28087, Pitch_bend_c, 5, 16382
1, 28090, Note_off_c, 4, 53, 64
1, 28090, Note_off_c, 4, 58, 64
1, 28116, Note_off_c, 1, 34, 64
1, 28121, Pitch_bend_c, 5, 15472
1, 28124, Pitch_bend_c, 5, 13522
1, 28127, Note_on_c, 1, 44, 100
1, 28127, Note_on_c, 4, 58, 84
1, 28127, Note_on_c, 4, 53, 84
1, 28127, Note_on_c, 9, 42, 94
1, 28128, Pitch_bend_c, 5, 10922
1, 28129, Note_on_c, 9, 40, 94
1, 28130, Note_off_c, 9, 42, 64
1, 28132, Pitch_bend_c, 5, 8842
1, 28132, Note_off_c, 9, 40, 64
1, 28135, Note_off_c, 4, 53, 64
1, 28135, Note_off_c, 4, 58, 64
1, 28166, Note_off_c, 1, 44, 64
1, 28170, Pitch_bend_c, 5, 9102
1, 28172, Note_on_c, 4, 58, 97
1, 28172, Note_on_c, 4, 53, 97
1, 28173, Pitch_bend_c, 5, 10662
1, 28174, Note_on_c, 1, 34, 71
1, 28176, Note_on_c, 9, 44, 73
1, 28177, Pitch_bend_c, 5, 13002
1, 28179, Note_off_c, 9, 44, 64
1, 28180, Note_off_c, 4, 53, 64
1, 28180, Note_off_c, 4, 58, 64
1, 28181, Pitch_bend_c, 5, 14302
1, 28184, Pitch_bend_c, 5, 16122
1, 28187, Pitch_bend_c, 5, 16382
1, 28189, Note_off_c, 1, 34, 64
1, 28221, Note_on_c, 1, 44, 100
1, 28223, Note_on_c, 4, 58, 86
1, 28223, Note_on_c, 4, 53, 86
1, 28223, Note_on_c, 9, 56, 72
1, 28224, Note_on_c, 9, 36, 94
1, 28226, Note_off_c, 9, 56, 64
1, 28226, Note_on_c, 9, 42, 94
1, 28227, Note_off_c, 9, 36, 64
1, 28229, Note_off_c, 9, 42, 64
1, 28231, Note_off_c, 4, 53, 64
1, 28231, Note_off_c, 4, 58, 64
1, 28238, Pitch_bend_c, 1, 16383
1, 28260, Note_off_c, 1, 44, 64
1, 28269, Pitch_bend_c, 1, 8192
1, 28270, Note_on_c, 1, 34, 93
1, 28273, Note_on_c, 4, 53, 94
1, 28273, Note_on_c, 9, 44, 73
1, 28274, Note_on_c, 4, 58, 94
1, 28276, Note_off_c, 9, 44, 64
1, 28281, Note_off_c, 4, 53, 64
1, 28282, Note_off_c, 4, 58, 64
1, 28320, Note_on_c, 4, 53, 92
1, 28320, Note_on_c, 4, 58, 92
1, 28321, Note_on_c, 9, 42, 94
1, 28321, Note_on_c, 9, 40, 94
1, 28324, Note_off_c, 9, 40, 64
1, 28324, Note_off_c, 9, 42, 64
1, 28327, Note_off_c, 4, 53, 64
1, 28327, Pitch_bend_c, 5, 15992
1, 28328, Note_off_c, 4, 58, 64
1, 28331, Pitch_bend_c, 5, 15342
1, 28335, Pitch_bend_c, 5, 14172
1, 28341, Note_off_c, 1, 34, 64
1, 28341, Pitch_bend_c, 5, 13132
1, 28345, Pitch_bend_c, 5, 12092
1, 28349, Pitch_bend_c, 5, 10922
1, 28352, Pitch_bend_c, 5, 10272
1, 28355, Pitch_bend_c, 5, 9362
1, 28359, Pitch_bend_c, 5, 8582
1, 28360, Note_off_c, 5, 60, 64
1, 28366, Note_on_c, 1, 32, 100
1, 28369, Note_on_c, 4, 53, 92
1, 28370, Note_on_c, 4, 58, 92
1, 28370, Note_on_c, 9, 44, 73
1, 28373, Note_off_c, 9, 44, 64
1, 28376, Note_off_c, 4, 53, 64
1, 28377, Note_off_c, 4, 58, 64
1, 28382, Pitch_bend_c, 1, 16383
1, 28416, Note_on_c, 4, 58, 60
1, 28416, Note_on_c, 4, 53, 60
1, 28416, Note_on_c, 9, 36, 94
1, 28416, Note_on_c, 9, 42, 94
1, 28416, Note_on_c, 9, 56, 72
1, 28417, Pitch_bend_c, 5, 8192
1, 28419, Note_off_c, 9, 56, 64
1, 28419, Note_off_c, 9, 42, 64
1, 28419, Note_off_c, 9, 36, 64
1, 28424, Note_off_c, 4, 53, 64
1, 28424, Note_off_c, 4, 58, 64
1, 28437, Note_off_c, 1, 32, 64
1, 28461, Pitch_bend_c, 1, 8192
1, 28462, Note_on_c, 1, 34, 100
1, 28464, Note_on_c, 9, 44, 73
1, 28466, Note_on_c, 4, 58, 94
1, 28466, Note_on_c, 4, 53, 94
1, 28467, Note_off_c, 9, 44, 64
1, 28474, Note_off_c, 4, 53, 64
1, 28474, Note_off_c, 4, 58, 64
1, 28501, Note_off_c, 1, 34, 64
1, 28509, Note_on_c, 1, 44, 100
1, 28511, Note_on_c, 4, 58, 84
1, 28511, Note_on_c, 4, 53, 84
1, 28511, Note_on_c, 9, 42, 94
1, 28513, Note_on_c, 9, 40, 94
1, 28514, Note_off_c, 9, 42, 64
1, 28516, Note_off_c, 9, 40, 64
1, 28519, Note_off_c, 4, 53, 64
1, 28519, Note_off_c, 4, 58, 64
1, 28556, Note_on_c, 4, 58, 97
1, 28556, Note_on_c, 4, 53, 97
1, 28560, Note_on_c, 9, 44, 73
1, 28563, Note_off_c, 9, 44, 64
1, 28564, Note_off_c, 1, 44, 64
1, 28564, Note_off_c, 4, 53, 64
1, 28564, Note_off_c, 4, 58, 64
1, 28603, Note_on_c, 1, 44, 100
1, 28607, Note_on_c, 4, 58, 86
1, 28607, Note_on_c, 4, 53, 86
1, 28607, Note_on_c, 9, 56, 72
1, 28608, Note_on_c, 9, 36, 94
1, 28610, Note_off_c, 9, 56, 64
1, 28610, Note_on_c, 9, 42, 94
1, 28611, Note_off_c, 9, 36, 64
1, 28613, Note_off_c, 9, 42, 64
1, 28615, Note_off_c, 4, 53, 64
1, 28615, Note_off_c, 4, 58, 64
1, 28622, Pitch_bend_c, 1, 16383
1, 28636, Note_off_c, 1, 44, 64
1, 28652, Pitch_bend_c, 1, 8192
1, 28652, Pitch_bend_c, 3, 8192
1, 28653, Note_on_c, 1, 29, 91
1, 28653, Note_on_c, 3, 65, 82
1, 28657, Note_on_c, 4, 53, 94
1, 28657, Note_on_c, 9, 44, 73
1, 28658, Note_on_c, 4, 58, 94
1, 28660, Note_off_c, 9, 44, 64
1, 28665, Note_off_c, 4, 53, 64
1, 28666, Note_off_c, 4, 58, 64
1, 28676, Note_off_c, 1, 29, 64
1, 28682, Note_on_c, 10, 65, 88
1, 28700, Note_on_c, 3, 68, 103
1, 28702, Note_on_c, 1, 32, 94
1, 28702, Note_off_c, 3, 65, 64
1, 28704, Note_on_c, 4, 53, 92
1, 28704, Note_on_c, 4, 58, 92
1, 28705, Note_on_c, 9, 42, 94
1, 28705, Note_on_c, 9, 40, 94
1, 28708, Note_off_c, 9, 40, 64
1, 28708, Note_off_c, 9, 42, 64
1, 28711, Note_off_c, 4, 53, 64
1, 28712, Note_off_c, 4, 58, 64
1, 28728, Note_on_c, 10, 68, 109
1, 28733, Note_off_c, 3, 68, 64
1, 28741, Note_off_c, 1, 32, 64
1, 28747, Note_on_c, 3, 70, 117
1, 28751, Note_on_c, 1, 34, 100
1, 28753, Note_on_c, 4, 53, 92
1, 28754, Note_on_c, 4, 58, 92
1, 28754, Note_on_c, 9, 44, 73
1, 28757, Note_off_c, 9, 44, 64
1, 28759, Note_off_c, 10, 65, 64
1, 28760, Note_off_c, 2, 46, 64
1, 28760, Note_off_c, 4, 53, 64
1, 28761, Note_off_c, 4, 58, 64
1, 28776, Note_on_c, 10, 70, 123
1, 28789, Note_off_c, 3, 70, 64
1, 28790, Note_off_c, 10, 68, 64
1, 28800, Note_on_c, 4, 58, 94
1, 28800, Note_on_c, 4, 53, 94
1, 28800, Note_on_c, 9, 36, 94
1, 28800, Note_on_c, 9, 42, 94
1, 28800, Note_on_c, 9, 56, 72
1, 28802, Note_on_c, 2, 46, 74
1, 28803, Note_off_c, 9, 56, 64
1, 28803, Note_off_c, 9, 42, 64
1, 28803, Note_off_c, 9, 36, 64
1, 28808, Note_off_c, 4, 53, 64
1, 28808, Note_off_c, 4, 58, 64
1, 28814, Note_off_c, 1, 34, 64
1, 28846, Note_off_c, 10, 70, 64
1, 28848, Note_on_c, 9, 44, 73
1, 28850, Note_on_c, 4, 58, 94
1, 28850, Note_on_c, 4, 53, 94
1, 28851, Note_off_c, 9, 44, 64
1, 28858, Note_off_c, 4, 53, 64
1, 28858, Note_off_c, 4, 58, 64
1, 28895, Note_on_c, 1, 44, 100
1, 28895, Note_on_c, 4, 58, 94
1, 28895, Note_on_c, 4, 53, 94
1, 28895, Control_c, 8, 1, 0
1, 28895, Pitch_bend_c, 8, 0
1, 28895, Note_on_c, 9, 42, 94
1, 28896, Note_on_c, 8, 58, 94
1, 28897, Note_on_c, 9, 40, 94
1, 28898, Note_off_c, 9, 42, 64
1, 28900, Note_off_c, 9, 40, 64
1, 28903, Note_off_c, 4, 53, 64
1, 28903, Note_off_c, 4, 58, 64
1, 28911, Pitch_bend_c, 8, 1280
1, 28915, Pitch_bend_c, 8, 2944
1, 28916, Note_off_c, 8, 58, 64
1, 28934, Note_off_c, 1, 44, 64
1, 28940, Note_on_c, 4, 58, 94
1, 28940, Note_on_c, 4, 53, 94
1, 28944, Note_on_c, 9, 44, 73
1, 28947, Note_off_c, 9, 44, 64
1, 28948, Note_on_c, 1, 34, 89
1, 28948, Note_off_c, 4, 53, 64
1, 28948, Note_off_c, 4, 58, 64
1, 28963, Note_off_c, 1, 34, 64
1, 28985, Pitch_bend_c, 8, 8192
1, 28986, Note_on_c, 8, 58, 94
1, 28991, Note_on_c, 1, 44, 100
1, 28991, Note_on_c, 4, 58, 94
1, 28991, Note_on_c, 4, 53, 94
1, 28991, Note_on_c, 9, 56, 72
1, 28992, Note_on_c, 9, 36, 94
1, 28994, Note_off_c, 9, 56, 64
1, 28994, Note_on_c, 9, 42, 94
1, 28995, Note_off_c, 9, 36, 64
1, 28997, Note_off_c, 9, 42, 64
1, 28999, Note_off_c, 4, 53, 64
1, 28999, Note_off_c, 4, 58, 64
1, 29006, Pitch_bend_c, 1, 16383
1, 29030, Note_off_c, 1, 44, 64
1, 29039, Pitch_bend_c, 1, 8192
1, 29040, Note_on_c, 1, 34, 88
1, 29041, Note_on_c, 4, 53, 94
1, 29041, Note_on_c, 9, 44, 73
1, 29042, Note_on_c, 4, 58, 94
1, 29044, Note_off_c, 9, 44, 64
1, 29049, Note_off_c, 4, 53, 64
1, 29050, Note_off_c, 4, 58, 64
1, 29055, Note_off_c, 1, 34, 64
1, 29088, Note_on_c, 4, 56, 74
1, 29089, Note_on_c, 4, 61, 75
1, 29089, Note_on_c, 9, 42, 94
1, 29089, Note_on_c, 9, 40, 94
1, 29092, Note_off_c, 9, 40, 64
1, 29092, Note_off_c, 9, 42, 64
1, 29096, Note_off_c, 4, 56, 64
1, 29097, Note_off_c, 4, 61, 64
1, 29109, Control_c, 8, 1, 87
1, 29136, Note_on_c, 1, 39, 100
1, 29136, Note_on_c, 4, 58, 90
1, 29136, Note_on_c, 4, 63, 90
1, 29138, Note_on_c, 9, 44, 73
1, 29141, Note_off_c, 9, 44, 64
1, 29144, Note_off_c, 4, 63, 64
1, 29144, Note_off_c, 4, 58, 64
1, 29150, Note_off_c, 8, 58, 64
1, 29181, Note_on_c, 3, 68, 117
1, 29184, Note_on_c, 4, 58, 54
1, 29184, Note_on_c, 4, 63, 54
1, 29184, Note_on_c, 9, 36, 94
1, 29184, Note_on_c, 9, 42, 94
1, 29184, Note_on_c, 9, 56, 72
1, 29187, Note_off_c, 9, 56, 64
1, 29187, Note_off_c, 9, 42, 64
1, 29187, Note_off_c, 9, 36, 64
1, 29188, Note_off_c, 2, 46, 64
1, 29188, Note_on_c, 2, 39, 74
1, 29192, Note_off_c, 4, 63, 64
1, 29192, Note_off_c, 4, 58, 64
1, 29198, Note_off_c, 3, 68, 64
1, 29207, Note_off_c, 1, 39, 64
1, 29210, Note_on_c, 10, 68, 123
1, 29229, Note_on_c, 1, 39, 100
1, 29229, Note_on_c, 3, 68, 82
1, 29232, Note_on_c, 4, 58, 98
1, 29232, Note_on_c, 4, 63, 98
1, 29232, Note_on_c, 9, 44, 73
1, 29235, Note_off_c, 9, 44, 64
1, 29240, Note_off_c, 4, 63, 64
1, 29240, Note_off_c, 4, 58, 64
1, 29241, Note_off_c, 3, 68, 64
1, 29255, Note_off_c, 10, 68, 64
1, 29257, Note_on_c, 10, 68, 88
1, 29268, Note_off_c, 1, 39, 64
1, 29275, Note_on_c, 3, 68, 117
1, 29279, Note_on_c, 1, 49, 100
1, 29279, Note_on_c, 9, 42, 94
1, 29280, Note_on_c, 4, 63, 77
1, 29280, Note_on_c, 4, 58, 77
1, 29281, Note_on_c, 9, 40, 94
1, 29282, Note_off_c, 9, 42, 64
1, 29284, Note_off_c, 9, 40, 64
1, 29288, Note_off_c, 4, 58, 64
1, 29288, Note_off_c, 4, 63, 64
1, 29298, Note_off_c, 10, 68, 64
1, 29303, Note_on_c, 10, 68, 123
1, 29318, Note_off_c, 1, 49, 64
1, 29320, Note_off_c, 3, 68, 64
1, 29327, Note_on_c, 1, 39, 75
1, 29328, Note_on_c, 4, 63, 93
1, 29328, Note_on_c, 4, 58, 93
1, 29328, Note_on_c, 9, 44, 73
1, 29331, Note_off_c, 9, 44, 64
1, 29336, Note_off_c, 4, 58, 64
1, 29336, Note_off_c, 4, 63, 64
1, 29342, Note_off_c, 1, 39, 64
1, 29346, Note_off_c, 10, 68, 64
1, 29352, Note_on_c, 10, 68, 79
1, 29371, Note_on_c, 3, 70, 103
1, 29374, Note_on_c, 1, 49, 100
1, 29375, Note_on_c, 9, 56, 72
1, 29376, Note_on_c, 4, 63, 90
1, 29376, Note_on_c, 4, 58, 90
1, 29376, Note_on_c, 9, 36, 94
1, 29378, Note_off_c, 9, 56, 64
1, 29378, Note_on_c, 9, 42, 94
1, 29379, Note_off_c, 9, 36, 64
1, 29381, Note_off_c, 9, 42, 64
1, 29384, Note_off_c, 4, 58, 64
1, 29384, Note_off_c, 4, 63, 64
1, 29385, Pitch_bend_c, 1, 16383
1, 29395, Note_off_c, 10, 68, 64
1, 29399, Note_on_c, 10, 70, 109
1, 29413, Note_off_c, 1, 49, 64
1, 29417, Note_off_c, 3, 70, 64
1, 29420, Pitch_bend_c, 1, 8192
1, 29420, Note_on_c, 3, 65, 82
1, 29421, Note_on_c, 1, 29, 90
1, 29424, Note_on_c, 4, 63, 91
1, 29424, Note_on_c, 4, 58, 91
1, 29425, Note_on_c, 9, 44, 73
1, 29428, Note_off_c, 9, 44, 64
1, 29432, Note_off_c, 4, 58, 64
1, 29432, Note_off_c, 4, 63, 64
1, 29436, Note_off_c, 1, 29, 64
1, 29449, Note_on_c, 10, 65, 88
1, 29459, Note_off_c, 3, 65, 64
1, 29465, Note_on_c, 3, 68, 103
1, 29470, Note_on_c, 1, 32, 91
1, 29472, Note_on_c, 4, 63, 97
1, 29472, Note_on_c, 4, 58, 97
1, 29473, Note_on_c, 9, 42, 94
1, 29473, Note_on_c, 9, 40, 94
1, 29474, Note_off_c, 10, 70, 64
1, 29476, Note_off_c, 9, 40, 64
1, 29476, Note_off_c, 9, 42, 64
1, 29480, Note_off_c, 4, 58, 64
1, 29480, Note_off_c, 4, 63, 64
1, 29493, Note_off_c, 3, 68, 64
1, 29494, Note_on_c, 10, 68, 109
1, 29501, Note_off_c, 1, 32, 64
1, 29515, Note_on_c, 3, 70, 126
1, 29516, Note_off_c, 10, 65, 64
1, 29517, Note_on_c, 1, 34, 100
1, 29520, Note_on_c, 4, 58, 77
1, 29520, Note_on_c, 4, 63, 77
1, 29522, Note_on_c, 9, 44, 73
1, 29525, Note_off_c, 9, 44, 64
1, 29528, Note_off_c, 4, 63, 64
1, 29528, Note_off_c, 4, 58, 64
1, 29543, Note_on_c, 10, 70, 127
1, 29548, Note_off_c, 3, 70, 64
1, 29550, Note_off_c, 10, 68, 64
1, 29566, Note_off_c, 2, 39, 64
1, 29568, Note_on_c, 4, 58, 60
1, 29568, Note_on_c, 4, 53, 60
1, 29568, Note_on_c, 9, 36, 94
1, 29568, Note_on_c, 9, 42, 94
1, 29568, Note_on_c, 9, 56, 72
1, 29569, Note_on_c, 2, 46, 74
1, 29571, Note_off_c, 9, 56, 64
1, 29571, Note_off_c, 9, 42, 64
1, 29571, Note_off_c, 9, 36, 64
1, 29572, Note_off_c, 1, 34, 64
1, 29576, Note_off_c, 4, 53, 64
1, 29576, Note_off_c, 4, 58, 64
1, 29605, Note_off_c, 10, 70, 64
1, 29609, Note_on_c, 3, 70, 103
1, 29613, Note_on_c, 1, 34, 100
1, 29616, Note_on_c, 9, 44, 73
1, 29618, Note_on_c, 4, 58, 94
1, 29618, Note_on_c, 4, 53, 94
1, 29619, Note_off_c, 9, 44, 64
1, 29626, Note_off_c, 4, 53, 64
1, 29626, Note_off_c, 4, 58, 64
1, 29638, Note_on_c, 10, 70, 109
1, 29652, Note_off_c, 1, 34, 64
1, 29653, Note_off_c, 3, 70, 64
1, 29663, Note_on_c, 1, 44, 100
1, 29663, Note_on_c, 4, 58, 84
1, 29663, Note_on_c, 4, 53, 84
1, 29663, Note_on_c, 9, 42, 94
1, 29665, Note_on_c, 9, 40, 94
1, 29666, Note_off_c, 9, 42, 64
1, 29668, Note_off_c, 9, 40, 64
1, 29671, Note_off_c, 4, 53, 64
1, 29671, Note_off_c, 4, 58, 64
1, 29702, Note_off_c, 1, 44, 64
1, 29708, Note_on_c, 4, 58, 97
1, 29708, Note_on_c, 4, 53, 97
1, 29710, Note_on_c, 1, 34, 71
1, 29710, Note_off_c, 10, 70, 64
1, 29712, Note_on_c, 9, 44, 73
1, 29715, Note_off_c, 9, 44, 64
1, 29716, Note_off_c, 4, 53, 64
1, 29716, Note_off_c, 4, 58, 64
1, 29725, Note_off_c, 1, 34, 64
1, 29757, Note_on_c, 1, 44, 100
1, 29759, Note_on_c, 4, 58, 86
1, 29759, Note_on_c, 4, 53, 86
1, 29759, Note_on_c, 9, 56, 72
1, 29760, Note_on_c, 9, 36, 94
1, 29762, Note_off_c, 9, 56, 64
1, 29762, Note_on_c, 9, 42, 94
1, 29763, Note_off_c, 9, 36, 64
1, 29765, Note_off_c, 9, 42, 64
1, 29767, Note_off_c, 4, 53, 64
1, 29767, Note_off_c, 4, 58, 64
1, 29774, Pitch_bend_c, 1, 16383
1, 29796, Note_off_c, 1, 44, 64
1, 29802, Note_on_c, 5, 86, 94
1, 29804, Note_on_c, 5, 82, 94
1, 29805, Pitch_bend_c, 1, 8192
1, 29806, Note_on_c, 1, 34, 93
1, 29809, Note_on_c, 4, 53, 94
1, 29809, Note_on_c, 9, 44, 73
1, 29810, Note_on_c, 4, 58, 94
1, 29812, Note_off_c, 9, 44, 64
1, 29817, Note_off_c, 4, 53, 64
1, 29818, Note_off_c, 4, 58, 64
1, 29832, Pitch_bend_c, 5, 6912
1, 29836, Pitch_bend_c, 5, 4864
1, 29839, Pitch_bend_c, 5, 2176
1, 29844, Pitch_bend_c, 5, 0
1, 29856, Note_on_c, 4, 53, 92
1, 29856, Note_on_c, 4, 58, 92
1, 29857, Note_off_c, 5, 86, 64
1, 29857, Note_on_c, 9, 42, 94
1, 29857, Note_on_c, 9, 40, 94
1, 29859, Note_off_c, 5, 82, 64
1, 29860, Note_off_c, 9, 40, 64
1, 29860, Note_off_c, 9, 42, 64
1, 29863, Note_off_c, 4, 53, 64
1, 29864, Note_off_c, 4, 58, 64
1, 29869, Note_off_c, 1, 34, 64
1, 29902, Note_on_c, 1, 32, 100
1, 29905, Note_on_c, 4, 53, 92
1, 29906, Note_on_c, 4, 58, 92
1, 29906, Note_on_c, 9, 44, 73
1, 29909, Note_off_c, 9, 44, 64
1, 29912, Note_off_c, 4, 53, 64
1, 29913, Note_off_c, 4, 58, 64
1, 29918, Pitch_bend_c, 1, 16383
1, 29952, Note_on_c, 4, 58, 60
1, 29952, Note_on_c, 4, 53, 60
1, 29952, Pitch_bend_c, 5, 8314
1, 29952, Note_on_c, 9, 36, 94
1, 29952, Note_on_c, 9, 42, 94
1, 29952, Note_on_c, 9, 56, 72
1, 29953, Note_on_c, 5, 72, 94
1, 29955, Note_off_c, 9, 56, 64
1, 29955, Note_off_c, 9, 42, 64
1, 29955, Note_off_c, 9, 36, 64
1, 29957, Note_off_c, 1, 32, 64
1, 29960, Note_off_c, 4, 53, 64
1, 29960, Note_off_c, 4, 58, 64
1, 29997, Pitch_bend_c, 1, 8192
1, 29998, Note_on_c, 1, 34, 100
1, 30000, Note_on_c, 9, 44, 73
1, 30002, Note_on_c, 4, 58, 94
1, 30002, Note_on_c, 4, 53, 94
1, 30003, Note_off_c, 9, 44, 64
1, 30005, Note_on_c, 5, 48, 75
1, 30010, Note_off_c, 4, 53, 64
1, 30010, Note_off_c, 4, 58, 64
1, 30024, Note_off_c, 5, 72, 64
1, 30037, Note_off_c, 1, 34, 64
1, 30045, Note_on_c, 1, 44, 100
1, 30047, Note_on_c, 4, 58, 84
1, 30047, Note_on_c, 4, 53, 84
1, 30047, Note_on_c, 9, 42, 94
1, 30049, Note_on_c, 9, 40, 94
1, 30050, Note_off_c, 9, 42, 64
1, 30052, Note_off_c, 9, 40, 64
1, 30053, Pitch_bend_c, 5, 7808
1, 30055, Note_off_c, 4, 53, 64
1, 30055, Note_off_c, 4, 58, 64
1, 30057, Pitch_bend_c, 5, 7296
1, 30061, Pitch_bend_c, 5, 7040
1, 30063, Pitch_bend_c, 5, 6528
1, 30067, Pitch_bend_c, 5, 6016
1, 30070, Pitch_bend_c, 5, 5504
1, 30075, Pitch_bend_c, 5, 5248
1, 30077, Pitch_bend_c, 5, 4736
1, 30081, Pitch_bend_c, 5, 4224
1, 30085, Pitch_bend_c, 5, 3584
1, 30088, Pitch_bend_c, 5, 2816
1, 30089, Note_off_c, 5, 48, 64
1, 30092, Note_on_c, 4, 58, 97
1, 30092, Note_on_c, 4, 53, 97
1, 30092, Pitch_bend_c, 5, 1536
1, 30092, Note_on_c, 5, 34, 94
1, 30094, Note_on_c, 5, 25, 70
1, 30096, Note_on_c, 9, 44, 73
1, 30098, Pitch_bend_c, 5, 512
1, 30099, Note_off_c, 9, 44, 64
1, 30100, Note_off_c, 1, 44, 64
1, 30100, Note_off_c, 4, 53, 64
1, 30100, Note_off_c, 4, 58, 64
1, 30100, Note_on_c, 5, 26, 68
1, 30102, Pitch_bend_c, 5, 0
1, 30102, Note_on_c, 5, 24, 70
1, 30137, Pitch_bend_c, 5, 8192
1, 30139, Note_on_c, 1, 44, 100
1, 30143, Note_on_c, 4, 58, 86
1, 30143, Note_on_c, 4, 53, 86
1, 30143, Note_on_c, 9, 56, 72
1, 30144, Note_on_c, 9, 36, 94
1, 30146, Note_off_c, 9, 56, 64
1, 30146, Note_on_c, 9, 42, 94
1, 30147, Note_off_c, 9, 36, 64
1, 30149, Note_off_c, 9, 42, 64
1, 30151, Note_off_c, 4, 53, 64
1, 30151, Note_off_c, 4, 58, 64
1, 30158, Pitch_bend_c, 1, 16383
1, 30172, Note_off_c, 1, 44, 64
1, 30188, Pitch_bend_c, 1, 8192
1, 30189, Note_on_c, 1, 29, 91
1, 30189, Note_on_c, 3, 65, 85
1, 30193, Note_on_c, 4, 53, 94
1, 30193, Note_on_c, 9, 44, 73
1, 30194, Note_on_c, 4, 58, 94
1, 30196, Note_off_c, 9, 44, 64
1, 30201, Note_off_c, 4, 53, 64
1, 30202, Note_off_c, 4, 58, 64
1, 30212, Note_off_c, 1, 29, 64
1, 30218, Note_on_c, 10, 65, 91
1, 30236, Note_on_c, 3, 68, 103
1, 30238, Note_on_c, 1, 32, 94
1, 30240, Note_on_c, 4, 53, 92
1, 30240, Note_on_c, 4, 58, 92
1, 30241, Note_on_c, 9, 42, 94
1, 30241, Note_on_c, 9, 40, 94
1, 30244, Note_off_c, 3, 65, 64
1, 30244, Note_off_c, 9, 40, 64
1, 30244, Note_off_c, 9, 42, 64
1, 30247, Note_off_c, 4, 53, 64
1, 30248, Note_off_c, 4, 58, 64
1, 30265, Note_on_c, 10, 68, 109
1, 30269, Note_off_c, 3, 68, 64
1, 30277, Note_off_c, 1, 32, 64
1, 30285, Note_on_c, 3, 70, 120
1, 30287, Note_on_c, 1, 34, 100
1, 30289, Note_on_c, 4, 53, 92
1, 30290, Note_on_c, 4, 58, 92
1, 30290, Note_on_c, 9, 44, 73
1, 30293, Note_off_c, 9, 44, 64
1, 30296, Note_off_c, 4, 53, 64
1, 30297, Note_off_c, 4, 58, 64
1, 30301, Note_off_c, 10, 65, 64
1, 30302, Note_off_c, 5, 25, 64
1, 30309, Note_off_c, 5, 24, 64
1, 30310, Note_off_c, 5, 34, 64
1, 30311, Note_off_c, 5, 26, 64
1, 30313, Note_on_c, 10, 70, 126
1, 30317, Note_off_c, 3, 70, 64
1, 30326, Note_off_c, 10, 68, 64
1, 30336, Note_on_c, 4, 58, 94
1, 30336, Note_on_c, 4, 53, 94
1, 30336, Note_on_c, 9, 36, 94
1, 30336, Note_on_c, 9, 42, 94
1, 30336, Note_on_c, 9, 56, 72
1, 30339, Note_off_c, 9, 56, 64
1, 30339, Note_off_c, 9, 42, 64
1, 30339, Note_off_c, 9, 36, 64
1, 30342, Note_off_c, 1, 34, 64
1, 30344, Note_off_c, 4, 53, 64
1, 30344, Note_off_c, 4, 58, 64
1, 30374, Note_off_c, 10, 70, 64
1, 30384, Note_on_c, 9, 44, 73
1, 30386, Note_on_c, 4, 58, 94
1, 30386, Note_on_c, 4, 53, 94
1, 30387, Note_off_c, 9, 44, 64
1, 30394, Note_off_c, 4, 53, 64
1, 30394, Note_off_c, 4, 58, 64
1, 30431, Note_on_c, 1, 44, 100
1, 30431, Note_on_c, 4, 58, 94
1, 30431, Note_on_c, 4, 53, 94
1, 30431, Control_c, 8, 1, 0
1, 30431, Pitch_bend_c, 8, 0
1, 30431, Note_on_c, 9, 42, 94
1, 30432, Note_on_c, 8, 58, 94
1, 30433, Note_on_c, 9, 40, 94
1, 30434, Note_off_c, 9, 42, 64
1, 30436, Note_off_c, 9, 40, 64
1, 30439, Note_off_c, 4, 53, 64
1, 30439, Note_off_c, 4, 58, 64
1, 30447, Pitch_bend_c, 8, 384
1, 30449, Pitch_bend_c, 8, 2944
1, 30452, Note_off_c, 8, 58, 64
1, 30470, Note_off_c, 1, 44, 64
1, 30476, Note_on_c, 4, 58, 94
1, 30476, Note_on_c, 4, 53, 94
1, 30480, Note_on_c, 9, 44, 73
1, 30483, Note_off_c, 9, 44, 64
1, 30484, Note_on_c, 1, 34, 89
1, 30484, Note_off_c, 4, 53, 64
1, 30484, Note_off_c, 4, 58, 64
1, 30499, Note_off_c, 1, 34, 64
1, 30521, Pitch_bend_c, 8, 8192
1, 30522, Note_on_c, 8, 58, 94
1, 30527, Note_on_c, 1, 44, 100
1, 30527, Note_on_c, 4, 58, 94
1, 30527, Note_on_c, 4, 53, 94
1, 30527, Note_on_c, 9, 56, 72
1, 30528, Note_on_c, 9, 36, 94
1, 30530, Note_off_c, 9, 56, 64
1, 30530, Note_on_c, 9, 42, 94
1, 30531, Note_off_c, 9, 36, 64
1, 30533, Note_off_c, 9, 42, 64
1, 30535, Note_off_c, 4, 53, 64
1, 30535, Note_off_c, 4, 58, 64
1, 30542, Pitch_bend_c, 1, 16383
1, 30566, Note_off_c, 1, 44, 64
1, 30575, Pitch_bend_c, 1, 8192
1, 30576, Note_on_c, 1, 34, 88
1, 30577, Note_on_c, 4, 53, 94
1, 30577, Note_on_c, 9, 44, 73
1, 30578, Note_on_c, 4, 58, 94
1, 30580, Note_off_c, 9, 44, 64
1, 30585, Note_off_c, 4, 53, 64
1, 30586, Note_off_c, 4, 58, 64
1, 30591, Note_off_c, 1, 34, 64
1, 30624, Note_on_c, 4, 56, 74
1, 30625, Note_on_c, 4, 61, 75
1, 30625, Note_on_c, 9, 42, 94
1, 30625, Note_on_c, 9, 40, 94
1, 30628, Note_off_c, 9, 40, 64
1, 30628, Note_off_c, 9, 42, 64
1, 30632, Note_off_c, 4, 56, 64
1, 30633, Note_off_c, 4, 61, 64
1, 30636, Control_c, 8, 1, 70
1, 30672, Note_on_c, 1, 39, 100
1, 30672, Note_on_c, 4, 58, 90
1, 30672, Note_on_c, 4, 63, 90
1, 30674, Note_on_c, 9, 44, 73
1, 30677, Note_off_c, 9, 44, 64
1, 30680, Note_off_c, 4, 63, 64
1, 30680, Note_off_c, 4, 58, 64
1, 30686, Note_off_c, 8, 58, 64
1, 30716, Note_on_c, 3, 68, 120
1, 30720, Note_on_c, 4, 58, 54
1, 30720, Note_on_c, 4, 63, 54
1, 30720, Note_on_c, 9, 36, 94
1, 30720, Note_on_c, 9, 42, 94
1, 30720, Note_on_c, 9, 56, 72
1, 30721, Note_on_c, 2, 39, 74
1, 30723, Note_off_c, 2, 46, 64
1, 30723, Note_off_c, 9, 56, 64
1, 30723, Note_off_c, 9, 42, 64
1, 30723, Note_off_c, 9, 36, 64
1, 30727, Note_off_c, 1, 39, 64
1, 30728, Note_off_c, 4, 63, 64
1, 30728, Note_off_c, 4, 58, 64
1, 30730, Note_off_c, 3, 68, 64
1, 30744, Note_on_c, 10, 68, 126
1, 30765, Note_on_c, 1, 39, 100
1, 30765, Note_on_c, 3, 68, 85
1, 30768, Note_on_c, 4, 58, 98
1, 30768, Note_on_c, 4, 63, 98
1, 30768, Note_on_c, 9, 44, 73
1, 30771, Note_off_c, 9, 44, 64
1, 30776, Note_off_c, 3, 68, 64
1, 30776, Note_off_c, 4, 63, 64
1, 30776, Note_off_c, 4, 58, 64
1, 30787, Note_off_c, 10, 68, 64
1, 30794, Note_on_c, 10, 68, 91
1, 30804, Note_off_c, 1, 39, 64
1, 30811, Note_on_c, 3, 68, 103
1, 30815, Note_on_c, 1, 49, 100
1, 30815, Note_on_c, 9, 42, 94
1, 30816, Note_on_c, 4, 63, 77
1, 30816, Note_on_c, 4, 58, 77
1, 30817, Note_on_c, 9, 40, 94
1, 30818, Note_off_c, 9, 42, 64
1, 30820, Note_off_c, 9, 40, 64
1, 30824, Note_off_c, 3, 68, 64
1, 30824, Note_off_c, 4, 58, 64
1, 30824, Note_off_c, 4, 63, 64
1, 30833, Note_off_c, 10, 68, 64
1, 30839, Note_on_c, 10, 68, 109
1, 30854, Note_off_c, 1, 49, 64
1, 30860, Note_on_c, 3, 68, 85
1, 30863, Note_on_c, 1, 39, 75
1, 30864, Note_on_c, 4, 63, 93
1, 30864, Note_on_c, 4, 58, 93
1, 30864, Note_on_c, 9, 44, 73
1, 30867, Note_off_c, 9, 44, 64
1, 30872, Note_off_c, 4, 58, 64
1, 30872, Note_off_c, 4, 63, 64
1, 30876, Note_off_c, 3, 68, 64
1, 30878, Note_off_c, 1, 39, 64
1, 30881, Note_off_c, 10, 68, 64
1, 30889, Note_on_c, 10, 68, 91
1, 30908, Note_on_c, 3, 70, 120
1, 30910, Note_on_c, 1, 49, 100
1, 30911, Note_on_c, 9, 56, 72
1, 30912, Note_on_c, 4, 63, 90
1, 30912, Note_on_c, 4, 58, 90
1, 30912, Note_on_c, 9, 36, 94
1, 30914, Note_off_c, 9, 56, 64
1, 30914, Note_on_c, 9, 42, 94
1, 30915, Note_off_c, 9, 36, 64
1, 30917, Note_off_c, 9, 42, 64
1, 30920, Note_off_c, 4, 58, 64
1, 30920, Note_off_c, 4, 63, 64
1, 30921, Pitch_bend_c, 1, 16383
1, 30933, Note_off_c, 10, 68, 64
1, 30936, Note_on_c, 10, 70, 126
1, 30949, Note_off_c, 1, 49, 64
1, 30949, Note_off_c, 3, 70, 64
1, 30953, Note_on_c, 3, 65, 94
1, 30956, Pitch_bend_c, 1, 8192
1, 30957, Note_on_c, 1, 29, 90
1, 30960, Note_on_c, 4, 63, 91
1, 30960, Note_on_c, 4, 58, 91
1, 30961, Note_on_c, 9, 44, 73
1, 30964, Note_off_c, 9, 44, 64
1, 30968, Note_off_c, 4, 58, 64
1, 30968, Note_off_c, 4, 63, 64
1, 30972, Note_off_c, 1, 29, 64
1, 30981, Note_off_c, 3, 65, 64
1, 30982, Note_on_c, 10, 65, 100
1, 31001, Note_on_c, 3, 68, 103
1, 31006, Note_on_c, 1, 32, 91
1, 31006, Note_off_c, 10, 70, 64
1, 31008, Note_on_c, 4, 63, 97
1, 31008, Note_on_c, 4, 58, 97
1, 31009, Note_on_c, 9, 42, 94
1, 31009, Note_on_c, 9, 40, 94
1, 31012, Note_off_c, 9, 40, 64
1, 31012, Note_off_c, 9, 42, 64
1, 31016, Note_off_c, 4, 58, 64
1, 31016, Note_off_c, 4, 63, 64
1, 31030, Note_on_c, 10, 68, 109
1, 31037, Note_off_c, 1, 32, 64
1, 31047, Note_off_c, 3, 68, 64
1, 31052, Note_on_c, 3, 70, 111
1, 31053, Note_on_c, 1, 34, 100
1, 31056, Note_on_c, 4, 58, 77
1, 31056, Note_on_c, 4, 63, 77
1, 31058, Note_on_c, 9, 44, 73
1, 31058, Note_off_c, 10, 65, 64
1, 31061, Note_off_c, 9, 44, 64
1, 31064, Note_off_c, 4, 63, 64
1, 31064, Note_off_c, 4, 58, 64
1, 31072, Note_off_c, 3, 70, 64
1, 31080, Note_on_c, 10, 70, 117
1, 31100, Note_on_c, 2, 46, 74
1, 31103, Note_off_c, 2, 39, 64
1, 31104, Note_on_c, 4, 58, 60
1, 31104, Note_on_c, 4, 53, 60
1, 31104, Note_on_c, 9, 36, 94
1, 31104, Note_on_c, 9, 42, 94
1, 31104, Note_on_c, 9, 56, 72
1, 31104, Note_off_c, 10, 68, 64
1, 31107, Note_off_c, 9, 56, 64
1, 31107, Note_off_c, 9, 42, 64
1, 31107, Note_off_c, 9, 36, 64
1, 31112, Note_off_c, 4, 53, 64
1, 31112, Note_off_c, 4, 58, 64
1, 31116, Note_off_c, 1, 34, 64
1, 31129, Note_off_c, 10, 70, 64
1, 31142, Note_on_c, 3, 70, 103
1, 31149, Note_on_c, 1, 34, 100
1, 31149, Pitch_bend_c, 6, 0
1, 31149, Control_c, 6, 1, 127
1, 31150, Note_on_c, 6, 58, 94
1, 31152, Note_on_c, 6, 62, 94
1, 31152, Note_on_c, 9, 44, 73
1, 31154, Note_on_c, 4, 58, 94
1, 31154, Note_on_c, 4, 53, 94
1, 31155, Note_off_c, 9, 44, 64
1, 31162, Note_off_c, 4, 53, 64
1, 31162, Note_off_c, 4, 58, 64
1, 31165, Pitch_bend_c, 6, 3456
1, 31169, Pitch_bend_c, 6, 8192
1, 31170, Note_on_c, 10, 70, 109
1, 31178, Note_off_c, 6, 62, 64
1, 31184, Note_off_c, 6, 58, 64
1, 31188, Note_off_c, 1, 34, 64
1, 31199, Note_on_c, 1, 44, 100
1, 31199, Note_on_c, 4, 58, 84
1, 31199, Note_on_c, 4, 53, 84
1, 31199, Note_on_c, 9, 42, 94
1, 31201, Note_on_c, 9, 40, 94
1, 31202, Note_off_c, 9, 42, 64
1, 31204, Note_off_c, 9, 40, 64
1, 31207, Note_off_c, 4, 53, 64
1, 31207, Note_off_c, 4, 58, 64
1, 31228, Note_off_c, 3, 70, 64
1, 31238, Note_off_c, 1, 44, 64
1, 31244, Note_on_c, 4, 58, 97
1, 31244, Note_on_c, 4, 53, 97
1, 31246, Note_on_c, 1, 34, 71
1, 31248, Note_on_c, 9, 44, 73
1, 31251, Note_off_c, 9, 44, 64
1, 31252, Note_off_c, 4, 53, 64
1, 31252, Note_off_c, 4, 58, 64
1, 31261, Note_off_c, 1, 34, 64
1, 31285, Note_off_c, 10, 70, 64
1, 31293, Note_on_c, 1, 44, 100
1, 31293, Pitch_bend_c, 6, 0
1, 31294, Note_on_c, 6, 58, 94
1, 31295, Note_on_c, 4, 58, 86
1, 31295, Note_on_c, 4, 53, 86
1, 31295, Note_on_c, 6, 62, 94
1, 31295, Note_on_c, 9, 56, 72
1, 31296, Note_on_c, 9, 36, 94
1, 31297, Pitch_bend_c, 6, 1024
1, 31298, Note_off_c, 9, 56, 64
1, 31298, Note_on_c, 9, 42, 94
1, 31299, Pitch_bend_c, 6, 3712
1, 31299, Note_off_c, 9, 36, 64
1, 31301, Note_off_c, 9, 42, 64
1, 31302, Pitch_bend_c, 6, 8192
1, 31303, Note_off_c, 4, 53, 64
1, 31303, Note_off_c, 4, 58, 64
1, 31310, Pitch_bend_c, 1, 16383
1, 31324, Note_off_c, 6, 62, 64
1, 31332, Note_off_c, 1, 44, 64
1, 31337, Note_off_c, 6, 58, 64
1, 31341, Pitch_bend_c, 1, 8192
1, 31342, Note_on_c, 1, 34, 93
1, 31345, Note_on_c, 4, 53, 94
1, 31345, Note_on_c, 9, 44, 73
1, 31346, Note_on_c, 4, 58, 94
1, 31348, Note_off_c, 9, 44, 64
1, 31353, Note_off_c, 4, 53, 64
1, 31354, Note_off_c, 4, 58, 64
1, 31373, Note_off_c, 1, 34, 64
1, 31392, Note_on_c, 4, 53, 92
1, 31392, Note_on_c, 4, 58, 92
1, 31393, Note_on_c, 9, 42, 94
1, 31393, Note_on_c, 9, 40, 94
1, 31396, Note_off_c, 9, 40, 64
1, 31396, Note_off_c, 9, 42, 64
1, 31399, Note_off_c, 4, 53, 64
1, 31400, Note_off_c, 4, 58, 64
1, 31438, Note_on_c, 1, 32, 100
1, 31441, Note_on_c, 4, 53, 92
1, 31442, Note_on_c, 4, 58, 92
1, 31442, Note_on_c, 9, 44, 73
1, 31445, Note_off_c, 9, 44, 64
1, 31448, Note_off_c, 4, 53, 64
1, 31449, Note_off_c, 4, 58, 64
1, 31454, Pitch_bend_c, 1, 16383
1, 31487, Pitch_bend_c, 6, 0
1, 31488, Note_on_c, 4, 58, 60
1, 31488, Note_on_c, 4, 53, 60
1, 31488, Note_on_c, 6, 63, 94
1, 31488, Note_on_c, 6, 60, 94
1, 31488, Note_on_c, 9, 36, 94
1, 31488, Note_on_c, 9, 42, 94
1, 31488, Note_on_c, 9, 56, 72
1, 31489, Pitch_bend_c, 6, 1408
1, 31491, Pitch_bend_c, 6, 7552
1, 31491, Note_off_c, 9, 56, 64
1, 31491, Note_off_c, 9, 42, 64
1, 31491, Note_off_c, 9, 36, 64
1, 31496, Note_off_c, 4, 53, 64
1, 31496, Note_off_c, 4, 58, 64
1, 31498, Pitch_bend_c, 6, 8192
1, 31509, Note_off_c, 1, 32, 64
1, 31513, Note_off_c, 6, 63, 64
1, 31523, Note_off_c, 6, 60, 64
1, 31533, Pitch_bend_c, 1, 8192
1, 31534, Note_on_c, 1, 34, 100
1, 31536, Note_on_c, 9, 44, 73
1, 31538, Note_on_c, 4, 58, 94
1, 31538, Note_on_c, 4, 53, 94
1, 31539, Note_off_c, 9, 44, 64
1, 31546, Note_off_c, 4, 53, 64
1, 31546, Note_off_c, 4, 58, 64
1, 31573, Note_off_c, 1, 34, 64
1, 31581, Note_on_c, 1, 44, 100
1, 31583, Note_on_c, 4, 58, 84
1, 31583, Note_on_c, 4, 53, 84
1, 31583, Note_on_c, 6, 63, 94
1, 31583, Note_on_c, 6, 60, 94
1, 31583, Note_on_c, 9, 42, 94
1, 31585, Note_on_c, 9, 40, 94
1, 31586, Note_off_c, 9, 42, 64
1, 31588, Note_off_c, 9, 40, 64
1, 31591, Note_off_c, 4, 53, 64
1, 31591, Note_off_c, 4, 58, 64
1, 31615, Note_off_c, 6, 63, 64
1, 31625, Note_off_c, 6, 60, 64
1, 31628, Note_on_c, 4, 58, 97
1, 31628, Note_on_c, 4, 53, 97
1, 31630, Pitch_bend_c, 6, 5376
1, 31631, Note_on_c, 6, 58, 94
1, 31632, Pitch_bend_c, 6, 2816
1, 31632, Note_on_c, 9, 44, 73
1, 31633, Note_on_c, 6, 62, 94
1, 31635, Note_off_c, 9, 44, 64
1, 31636, Note_off_c, 1, 44, 64
1, 31636, Note_off_c, 4, 53, 64
1, 31636, Note_off_c, 4, 58, 64
1, 31636, Pitch_bend_c, 6, 0
1, 31648, Pitch_bend_c, 6, 2304
1, 31652, Pitch_bend_c, 6, 8192
1, 31660, Note_off_c, 6, 62, 64
1, 31675, Note_on_c, 1, 44, 100
1, 31675, Note_off_c, 6, 58, 64
1, 31679, Note_on_c, 4, 58, 86
1, 31679, Note_on_c, 4, 53, 86
1, 31679, Note_on_c, 9, 56, 72
1, 31680, Note_on_c, 9, 36, 94
1, 31682, Note_off_c, 9, 56, 64
1, 31682, Note_on_c, 9, 42, 94
1, 31683, Note_off_c, 9, 36, 64
1, 31685, Note_off_c, 9, 42, 64
1, 31687, Note_off_c, 4, 53, 64
1, 31687, Note_off_c, 4, 58, 64
1, 31694, Pitch_bend_c, 1, 16383
1, 31708, Note_off_c, 1, 44, 64
1, 31724, Pitch_bend_c, 1, 8192
1, 31725, Note_on_c, 1, 29, 91
1, 31726, Pitch_bend_c, 3, 0
1, 31727, Note_on_c, 3, 77, 103
1, 31729, Note_on_c, 4, 53, 94
1, 31729, Note_on_c, 9, 44, 73
1, 31730, Note_on_c, 4, 58, 94
1, 31732, Note_off_c, 9, 44, 64
1, 31733, Pitch_bend_c, 3, 1792
1, 31737, Pitch_bend_c, 3, 3840
1, 31737, Note_off_c, 4, 53, 64
1, 31738, Note_off_c, 4, 58, 64
1, 31740, Pitch_bend_c, 3, 5376
1, 31743, Pitch_bend_c, 3, 7168
1, 31747, Pitch_bend_c, 3, 8192
1, 31748, Note_off_c, 1, 29, 64
1, 31755, Pitch_bend_c, 10, 0
1, 31756, Note_on_c, 10, 77, 109
1, 31762, Pitch_bend_c, 10, 1792
1, 31765, Pitch_bend_c, 10, 3840
1, 31768, Pitch_bend_c, 10, 5376
1, 31771, Pitch_bend_c, 10, 7168
1, 31774, Note_on_c, 1, 32, 94
1, 31775, Note_on_c, 3, 75, 94
1, 31776, Note_on_c, 4, 53, 92
1, 31776, Note_on_c, 4, 58, 92
1, 31776, Pitch_bend_c, 10, 8192
1, 31777, Note_on_c, 9, 42, 94
1, 31777, Note_on_c, 9, 40, 94
1, 31780, Note_off_c, 9, 40, 64
1, 31780, Note_off_c, 9, 42, 64
1, 31783, Note_off_c, 4, 53, 64
1, 31784, Note_off_c, 3, 77, 64
1, 31784, Note_off_c, 4, 58, 64
1, 31793, Note_off_c, 3, 75, 64
1, 31803, Note_on_c, 10, 75, 100
1, 31813, Note_off_c, 1, 32, 64
1, 31822, Note_on_c, 3, 73, 109
1, 31823, Note_on_c, 1, 34, 100
1, 31825, Note_on_c, 4, 53, 92
1, 31826, Note_on_c, 4, 58, 92
1, 31826, Note_on_c, 9, 44, 73
1, 31829, Note_off_c, 9, 44, 64
1, 31832, Note_off_c, 4, 53, 64
1, 31833, Note_off_c, 4, 58, 64
1, 31841, Note_off_c, 10, 77, 64
1, 31850, Note_off_c, 10, 75, 64
1, 31851, Note_on_c, 10, 73, 115
1, 31872, Note_on_c, 4, 58, 94
1, 31872, Note_on_c, 4, 53, 94
1, 31872, Note_on_c, 9, 36, 94
1, 31872, Note_on_c, 9, 42, 94
1, 31872, Note_on_c, 9, 56, 72
1, 31875, Note_off_c, 9, 56, 64
1, 31875, Note_off_c, 9, 42, 64
1, 31875, Note_off_c, 9, 36, 64
1, 31880, Note_off_c, 4, 53, 64
1, 31880, Note_off_c, 4, 58, 64
1, 31910, Note_off_c, 1, 34, 64
1, 31916, Note_on_c, 11, 63, 64
1, 31920, Note_on_c, 9, 44, 73
1, 31922, Note_on_c, 4, 58, 94
1, 31922, Note_on_c, 4, 53, 94
1, 31922, Note_on_c, 11, 65, 64
1, 31923, Pitch_bend_c, 3, 8452
1, 31923, Note_off_c, 9, 44, 64
1, 31925, Pitch_bend_c, 3, 8712
1, 31929, Pitch_bend_c, 3, 8972
1, 31930, Note_off_c, 4, 53, 64
1, 31930, Note_off_c, 4, 58, 64
1, 31932, Pitch_bend_c, 3, 9102
1, 31934, Note_off_c, 11, 63, 64
1, 31937, Pitch_bend_c, 3, 9362
1, 31940, Pitch_bend_c, 3, 9492
1, 31940, Note_off_c, 11, 65, 64
1, 31943, Pitch_bend_c, 3, 9752
1, 31948, Pitch_bend_c, 3, 9882
1, 31950, Pitch_bend_c, 3, 10012
1, 31951, Pitch_bend_c, 10, 8452
1, 31953, Pitch_bend_c, 3, 10272
1, 31953, Pitch_bend_c, 10, 8712
1, 31957, Pitch_bend_c, 10, 8972
1, 31958, Pitch_bend_c, 3, 10402
1, 31960, Pitch_bend_c, 3, 10792
1, 31961, Pitch_bend_c, 10, 9102
1, 31964, Pitch_bend_c, 3, 11182
1, 31965, Pitch_bend_c, 10, 9362
1, 31965, Note_on_c, 11, 63, 64
1, 31966, Note_on_c, 11, 68, 64
1, 31967, Note_on_c, 1, 44, 100
1, 31967, Note_on_c, 4, 58, 94
1, 31967, Note_on_c, 4, 53, 94
1, 31967, Note_on_c, 9, 42, 94
1, 31968, Pitch_bend_c, 3, 11702
1, 31968, Pitch_bend_c, 10, 9492
1, 31969, Note_on_c, 9, 40, 94
1, 31970, Note_off_c, 9, 42, 64
1, 31971, Pitch_bend_c, 10, 9752
1, 31972, Pitch_bend_c, 3, 11962
1, 31972, Note_off_c, 9, 40, 64
1, 31974, Pitch_bend_c, 3, 13002
1, 31975, Note_off_c, 4, 53, 64
1, 31975, Note_off_c, 4, 58, 64
1, 31977, Pitch_bend_c, 10, 9882
1, 31979, Pitch_bend_c, 10, 10012
1, 31980, Note_off_c, 11, 63, 64
1, 31982, Pitch_bend_c, 3, 13132
1, 31982, Pitch_bend_c, 10, 10272
1, 31982, Note_off_c, 11, 68, 64
1, 31983, Note_off_c, 3, 73, 64
1, 31986, Pitch_bend_c, 10, 10402
1, 31988, Pitch_bend_c, 10, 10792
1, 31993, Pitch_bend_c, 10, 11182
1, 31996, Pitch_bend_c, 10, 11702
1, 32000, Pitch_bend_c, 10, 11962
1, 32002, Pitch_bend_c, 10, 12482
1, 32006, Note_off_c, 1, 44, 64
1, 32006, Pitch_bend_c, 10, 13002
1, 32010, Pitch_bend_c, 10, 13132
1, 32011, Note_on_c, 11, 65, 64
1, 32012, Note_on_c, 4, 58, 94
1, 32012, Note_on_c, 4, 53, 94
1, 32013, Note_on_c, 11, 70, 64
1, 32016, Note_on_c, 9, 44, 73
1, 32019, Note_off_c, 9, 44, 64
1, 32020, Note_on_c, 1, 34, 89
1, 32020, Note_off_c, 4, 53, 64
1, 32020, Note_off_c, 4, 58, 64
1, 32035, Note_off_c, 1, 34, 64
1, 32040, Note_off_c, 10, 73, 64
1, 32063, Note_on_c, 1, 44, 100
1, 32063, Note_on_c, 4, 58, 94
1, 32063, Note_on_c, 4, 53, 94
1, 32063, Note_on_c, 9, 56, 72
1, 32064, Note_on_c, 9, 36, 94
1, 32066, Note_off_c, 9, 56, 64
1, 32066, Note_on_c, 9, 42, 94
1, 32067, Note_off_c, 9, 36, 64
1, 32068, Pitch_bend_c, 10, 8192
1, 32069, Note_off_c, 9, 42, 64
1, 32071, Note_off_c, 4, 53, 64
1, 32071, Note_off_c, 4, 58, 64
1, 32078, Pitch_bend_c, 1, 16383
1, 32099, Pitch_bend_c, 11, 7936
1, 32100, Pitch_bend_c, 11, 7168
1, 32102, Note_off_c, 1, 44, 64
1, 32104, Pitch_bend_c, 11, 6656
1, 32107, Pitch_bend_c, 11, 5888
1, 32110, Pitch_bend_c, 11, 4736
1, 32111, Pitch_bend_c, 1, 8192
1, 32112, Note_on_c, 1, 34, 88
1, 32113, Note_on_c, 4, 53, 94
1, 32113, Note_on_c, 9, 44, 73
1, 32114, Note_on_c, 4, 58, 94
1, 32114, Pitch_bend_c, 11, 3584
1, 32116, Note_off_c, 9, 44, 64
1, 32118, Pitch_bend_c, 11, 2432
1, 32121, Note_off_c, 4, 53, 64
1, 32122, Note_off_c, 4, 58, 64
1, 32122, Pitch_bend_c, 11, 1664
1, 32124, Pitch_bend_c, 11, 384
1, 32127, Note_off_c, 1, 34, 64
1, 32128, Pitch_bend_c, 11, 0
1, 32142, Note_off_c, 11, 70, 64
1, 32150, Note_off_c, 11, 65, 64
1, 32160, Note_on_c, 4, 56, 74
1, 32161, Note_on_c, 4, 61, 75
1, 32161, Note_on_c, 9, 42, 94
1, 32161, Note_on_c, 9, 40, 94
1, 32164, Note_off_c, 9, 40, 64
1, 32164, Note_off_c, 9, 42, 64
1, 32168, Note_off_c, 4, 56, 64
1, 32169, Note_off_c, 4, 61, 64
1, 32205, Pitch_bend_c, 3, 8192
1, 32206, Note_on_c, 3, 65, 88
1, 32208, Note_on_c, 1, 39, 100
1, 32208, Note_on_c, 4, 58, 90
1, 32208, Note_on_c, 4, 63, 90
1, 32210, Note_on_c, 9, 44, 73
1, 32213, Note_off_c, 9, 44, 64
1, 32216, Note_off_c, 4, 63, 64
1, 32216, Note_off_c, 4, 58, 64
1, 32235, Note_on_c, 10, 65, 94
1, 32247, Note_off_c, 1, 39, 64
1, 32255, Note_on_c, 2, 39, 74
1, 32255, Note_on_c, 3, 67, 107
1, 32256, Note_off_c, 2, 46, 64
1, 32256, Note_on_c, 4, 58, 54
1, 32256, Note_on_c, 4, 63, 54
1, 32256, Note_on_c, 9, 36, 94
1, 32256, Note_on_c, 9, 42, 94
1, 32256, Note_on_c, 9, 56, 72
1, 32257, Note_off_c, 3, 65, 64
1, 32259, Note_off_c, 9, 56, 64
1, 32259, Note_off_c, 9, 42, 64
1, 32259, Note_off_c, 9, 36, 64
1, 32264, Note_off_c, 4, 63, 64
1, 32264, Note_off_c, 4, 58, 64
1, 32269, Note_off_c, 3, 67, 64
1, 32283, Note_on_c, 10, 67, 113
1, 32290, Note_off_c, 10, 65, 64
1, 32301, Note_on_c, 1, 39, 100
1, 32303, Note_on_c, 3, 67, 92
1, 32304, Note_on_c, 4, 58, 98
1, 32304, Note_on_c, 4, 63, 98
1, 32304, Note_on_c, 9, 44, 73
1, 32307, Note_off_c, 9, 44, 64
1, 32312, Note_off_c, 4, 63, 64
1, 32312, Note_off_c, 4, 58, 64
1, 32318, Note_off_c, 3, 67, 64
1, 32326, Note_off_c, 10, 67, 64
1, 32332, Note_off_c, 1, 39, 64
1, 32332, Note_on_c, 10, 67, 98
1, 32351, Note_on_c, 1, 49, 100
1, 32351, Note_on_c, 3, 68, 109
1, 32351, Note_on_c, 9, 42, 94
1, 32352, Note_on_c, 4, 63, 77
1, 32352, Note_on_c, 4, 58, 77
1, 32353, Note_on_c, 9, 40, 94
1, 32354, Note_off_c, 9, 42, 64
1, 32356, Note_off_c, 9, 40, 64
1, 32360, Note_off_c, 4, 58, 64
1, 32360, Note_off_c, 4, 63, 64
1, 32375, Note_off_c, 10, 67, 64
1, 32376, Note_off_c, 3, 68, 64
1, 32379, Note_on_c, 10, 68, 115
1, 32390, Note_off_c, 1, 49, 64
1, 32398, Note_on_c, 3, 65, 92
1, 32399, Note_on_c, 1, 39, 75
1, 32400, Note_on_c, 4, 63, 93
1, 32400, Note_on_c, 4, 58, 93
1, 32400, Note_on_c, 9, 44, 73
1, 32403, Note_off_c, 9, 44, 64
1, 32408, Note_off_c, 4, 58, 64
1, 32408, Note_off_c, 4, 63, 64
1, 32414, Note_off_c, 1, 39, 64
1, 32416, Note_off_c, 3, 65, 64
1, 32426, Note_on_c, 10, 65, 98
1, 32433, Note_off_c, 10, 68, 64
1, 32446, Note_on_c, 1, 49, 100
1, 32447, Note_on_c, 3, 68, 115
1, 32447, Note_on_c, 9, 56, 72
1, 32448, Note_on_c, 4, 63, 90
1, 32448, Note_on_c, 4, 58, 90
1, 32448, Note_on_c, 9, 36, 94
1, 32450, Note_off_c, 9, 56, 64
1, 32450, Note_on_c, 9, 42, 94
1, 32451, Note_off_c, 9, 36, 64
1, 32453, Note_off_c, 9, 42, 64
1, 32456, Note_off_c, 4, 58, 64
1, 32456, Note_off_c, 4, 63, 64
1, 32457, Pitch_bend_c, 1, 16383
1, 32468, Note_off_c, 3, 68, 64
1, 32473, Note_off_c, 10, 65, 64
1, 32475, Note_on_c, 10, 68, 121
1, 32485, Note_off_c, 1, 49, 64
1, 32492, Pitch_bend_c, 1, 8192
1, 32493, Note_on_c, 1, 29, 90
1, 32495, Note_on_c, 3, 65, 90
1, 32496, Note_on_c, 4, 63, 91
1, 32496, Note_on_c, 4, 58, 91
1, 32497, Note_on_c, 9, 44, 73
1, 32500, Note_off_c, 9, 44, 64
1, 32504, Note_off_c, 4, 58, 64
1, 32504, Note_off_c, 4, 63, 64
1, 32508, Note_off_c, 1, 29, 64
1, 32512, Note_off_c, 3, 65, 64
1, 32523, Note_on_c, 10, 65, 96
1, 32525, Note_off_c, 10, 68, 64
1, 32542, Note_on_c, 1, 32, 91
1, 32544, Note_on_c, 3, 67, 103
1, 32544, Note_on_c, 4, 63, 97
1, 32544, Note_on_c, 4, 58, 97
1, 32545, Note_on_c, 9, 42, 94
1, 32545, Note_on_c, 9, 40, 94
1, 32548, Note_off_c, 9, 40, 64
1, 32548, Note_off_c, 9, 42, 64
1, 32552, Note_off_c, 4, 58, 64
1, 32552, Note_off_c, 4, 63, 64
1, 32553, Note_off_c, 3, 67, 64
1, 32569, Note_off_c, 10, 65, 64
1, 32572, Note_on_c, 10, 67, 109
1, 32573, Note_off_c, 1, 32, 64
1, 32589, Note_on_c, 1, 34, 100
1, 32591, Note_on_c, 3, 68, 115
1, 32592, Note_on_c, 4, 58, 77
1, 32592, Note_on_c, 4, 63, 77
1, 32594, Note_on_c, 9, 44, 73
1, 32597, Note_off_c, 9, 44, 64
1, 32600, Note_off_c, 4, 63, 64
1, 32600, Note_off_c, 4, 58, 64
1, 32610, Note_off_c, 10, 67, 64
1, 32620, Note_on_c, 10, 68, 121
1, 32636, Note_off_c, 1, 34, 64
1, 32639, Note_on_c, 2, 46, 74
1, 32640, Note_on_c, 4, 58, 60
1, 32640, Note_on_c, 4, 53, 60
1, 32640, Note_on_c, 9, 36, 94
1, 32640, Note_on_c, 9, 42, 94
1, 32640, Note_on_c, 9, 56, 72
1, 32643, Note_off_c, 2, 39, 64
1, 32643, Note_off_c, 9, 56, 64
1, 32643, Note_off_c, 9, 42, 64
1, 32643, Note_off_c, 9, 36, 64
1, 32645, Pitch_bend_c, 3, 7936
1, 32647, Pitch_bend_c, 3, 7168
1, 32648, Note_off_c, 4, 53, 64
1, 32648, Note_off_c, 4, 58, 64
1, 32650, Pitch_bend_c, 3, 6272
1, 32654, Pitch_bend_c, 3, 4480
1, 32660, Pitch_bend_c, 3, 3072
1, 32664, Pitch_bend_c, 3, 1792
1, 32668, Pitch_bend_c, 3, 0
1, 32673, Pitch_bend_c, 10, 7936
1, 32675, Pitch_bend_c, 10, 7168
1, 32679, Pitch_bend_c, 10, 6272
1, 32682, Pitch_bend_c, 10, 5632
1, 32685, Note_on_c, 1, 34, 100
1, 32685, Pitch_bend_c, 3, 8192
1, 32685, Pitch_bend_c, 10, 4480
1, 32686, Note_off_c, 3, 68, 64
1, 32688, Note_on_c, 3, 58, 86
1, 32688, Note_on_c, 9, 44, 73
1, 32688, Pitch_bend_c, 10, 3072
1, 32690, Note_on_c, 4, 58, 94
1, 32690, Note_on_c, 4, 53, 94
1, 32691, Note_off_c, 9, 44, 64
1, 32693, Pitch_bend_c, 10, 1792
1, 32697, Pitch_bend_c, 10, 1152
1, 32698, Note_off_c, 4, 53, 64
1, 32698, Note_off_c, 4, 58, 64
1, 32699, Pitch_bend_c, 10, 0
1, 32714, Note_off_c, 10, 68, 64
1, 32715, Pitch_bend_c, 10, 8192
1, 32716, Note_on_c, 10, 58, 92
1, 32724, Note_off_c, 1, 34, 64
1, 32735, Note_on_c, 1, 44, 100
1, 32735, Note_on_c, 4, 58, 84
1, 32735, Note_on_c, 4, 53, 84
1, 32735, Note_on_c, 9, 42, 94
1, 32737, Note_on_c, 9, 40, 94
1, 32738, Note_off_c, 9, 42, 64
1, 32740, Note_off_c, 9, 40, 64
1, 32742, Note_off_c, 3, 58, 64
1, 32743, Note_off_c, 4, 53, 64
1, 32743, Note_off_c, 4, 58, 64
1, 32774, Note_off_c, 1, 44, 64
1, 32780, Note_on_c, 4, 58, 97
1, 32780, Note_on_c, 4, 53, 97
1, 32782, Note_on_c, 1, 34, 71
1, 32784, Note_on_c, 9, 44, 73
1, 32787, Note_off_c, 9, 44, 64
1, 32788, Note_off_c, 4, 53, 64
1, 32788, Note_off_c, 4, 58, 64
1, 32797, Note_off_c, 1, 34, 64
1, 32799, Note_off_c, 10, 58, 64
1, 32829, Note_on_c, 1, 44, 100
1, 32831, Note_on_c, 4, 58, 86
1, 32831, Note_on_c, 4, 53, 86
1, 32831, Note_on_c, 9, 56, 72
1, 32832, Note_on_c, 9, 36, 94
1, 32834, Note_off_c, 9, 56, 64
1, 32834, Note_on_c, 9, 42, 94
1, 32835, Note_off_c, 9, 36, 64
1, 32837, Note_off_c, 9, 42, 64
1, 32839, Note_off_c, 4, 53, 64
1, 32839, Note_off_c, 4, 58, 64
1, 32846, Pitch_bend_c, 1, 16383
1, 32868, Note_off_c, 1, 44, 64
1, 32877, Pitch_bend_c, 1, 8192
1, 32878, Note_on_c, 1, 34, 93
1, 32881, Note_on_c, 4, 53, 94
1, 32881, Note_on_c, 9, 44, 73
1, 32882, Note_on_c, 4, 58, 94
1, 32884, Note_off_c, 9, 44, 64
1, 32889, Note_off_c, 4, 53, 64
1, 32890, Note_off_c, 4, 58, 64
1, 32925, Note_off_c, 1, 34, 64
1, 32928, Note_on_c, 4, 53, 92
1, 32928, Note_on_c, 4, 58, 92
1, 32929, Note_on_c, 9, 42, 94
1, 32929, Note_on_c, 9, 40, 94
1, 32932, Note_off_c, 9, 40, 64
1, 32932, Note_off_c, 9, 42, 64
1, 32935, Note_off_c, 4, 53, 64
1, 32936, Note_off_c, 4, 58, 64
1, 32974, Note_on_c, 1, 32, 100
1, 32977, Note_on_c, 4, 53, 92
1, 32978, Note_on_c, 4, 58, 92
1, 32978, Note_on_c, 9, 44, 73
1, 32981, Note_off_c, 9, 44, 64
1, 32984, Note_off_c, 4, 53, 64
1, 32985, Note_off_c, 4, 58, 64
1, 32990, Pitch_bend_c, 1, 16383
1, 33013, Note_off_c, 1, 32, 64
1, 33024, Note_on_c, 4, 58, 60
1, 33024, Note_on_c, 4, 53, 60
1, 33024, Note_on_c, 9, 36, 94
1, 33024, Note_on_c, 9, 42, 94
1, 33024, Note_on_c, 9, 56, 72
1, 33027, Note_off_c, 9, 56, 64
1, 33027, Note_off_c, 9, 42, 64
1, 33027, Note_off_c, 9, 36, 64
1, 33032, Note_off_c, 4, 53, 64
1, 33032, Note_off_c, 4, 58, 64
1, 33069, Pitch_bend_c, 1, 8192
1, 33070, Note_on_c, 1, 34, 100
1, 33072, Note_on_c, 9, 44, 73
1, 33074, Note_on_c, 4, 58, 94
1, 33074, Note_on_c, 4, 53, 94
1, 33075, Note_off_c, 9, 44, 64
1, 33082, Note_off_c, 4, 53, 64
1, 33082, Note_off_c, 4, 58, 64
1, 33109, Note_off_c, 1, 34, 64
1, 33117, Note_on_c, 1, 44, 100
1, 33119, Note_on_c, 4, 58, 84
1, 33119, Note_on_c, 4, 53, 84
1, 33119, Note_on_c, 9, 42, 94
1, 33121, Note_on_c, 9, 40, 94
1, 33122, Note_off_c, 9, 42, 64
1, 33124, Note_off_c, 9, 40, 64
1, 33127, Note_off_c, 4, 53, 64
1, 33127, Note_off_c, 4, 58, 64
1, 33164, Note_on_c, 4, 58, 97
1, 33164, Note_on_c, 4, 53, 97
1, 33168, Note_on_c, 9, 44, 73
1, 33171, Note_off_c, 9, 44, 64
1, 33172, Note_off_c, 1, 44, 64
1, 33172, Note_off_c, 4, 53, 64
1, 33172, Note_off_c, 4, 58, 64
1, 33211, Note_on_c, 1, 44, 100
1, 33215, Note_on_c, 4, 58, 86
1, 33215, Note_on_c, 4, 53, 86
1, 33215, Note_on_c, 9, 56, 72
1, 33216, Note_on_c, 9, 36, 94
1, 33218, Note_off_c, 9, 56, 64
1, 33218, Note_on_c, 9, 42, 94
1, 33219, Note_off_c, 9, 36, 64
1, 33221, Note_off_c, 9, 42, 64
1, 33223, Note_off_c, 4, 53, 64
1, 33223, Note_off_c, 4, 58, 64
1, 33230, Pitch_bend_c, 1, 16383
1, 33244, Note_off_c, 1, 44, 64
1, 33260, Pitch_bend_c, 1, 8192
1, 33261, Note_on_c, 1, 29, 91
1, 33262, Pitch_bend_c, 3, 0
1, 33263, Note_on_c, 3, 77, 103
1, 33265, Note_on_c, 4, 53, 94
1, 33265, Note_on_c, 9, 44, 73
1, 33266, Note_on_c, 4, 58, 94
1, 33268, Note_off_c, 9, 44, 64
1, 33269, Pitch_bend_c, 3, 1792
1, 33273, Pitch_bend_c, 3, 3840
1, 33273, Note_off_c, 4, 53, 64
1, 33274, Note_off_c, 4, 58, 64
1, 33276, Pitch_bend_c, 3, 5504
1, 33280, Pitch_bend_c, 3, 7168
1, 33283, Pitch_bend_c, 3, 8192
1, 33284, Note_off_c, 1, 29, 64
1, 33291, Pitch_bend_c, 10, 0
1, 33292, Note_on_c, 10, 77, 109
1, 33298, Pitch_bend_c, 10, 1792
1, 33301, Pitch_bend_c, 10, 3840
1, 33304, Pitch_bend_c, 10, 5504
1, 33308, Pitch_bend_c, 10, 7168
1, 33310, Note_on_c, 1, 32, 94
1, 33311, Note_on_c, 3, 75, 94
1, 33312, Note_on_c, 4, 53, 92
1, 33312, Note_on_c, 4, 58, 92
1, 33312, Pitch_bend_c, 10, 8192
1, 33313, Note_on_c, 9, 42, 94
1, 33313, Note_on_c, 9, 40, 94
1, 33316, Note_off_c, 9, 40, 64
1, 33316, Note_off_c, 9, 42, 64
1, 33319, Note_off_c, 4, 53, 64
1, 33320, Note_off_c, 3, 77, 64
1, 33320, Note_off_c, 4, 58, 64
1, 33329, Note_off_c, 3, 75, 64
1, 33339, Note_on_c, 10, 75, 100
1, 33349, Note_off_c, 1, 32, 64
1, 33358, Note_on_c, 3, 73, 109
1, 33359, Note_on_c, 1, 34, 100
1, 33361, Note_on_c, 4, 53, 92
1, 33362, Note_on_c, 4, 58, 92
1, 33362, Note_on_c, 9, 44, 73
1, 33365, Note_off_c, 9, 44, 64
1, 33368, Note_off_c, 4, 53, 64
1, 33369, Note_off_c, 4, 58, 64
1, 33377, Note_off_c, 10, 77, 64
1, 33386, Note_off_c, 10, 75, 64
1, 33387, Note_on_c, 10, 73, 115
1, 33408, Note_on_c, 4, 58, 94
1, 33408, Note_on_c, 4, 53, 94
1, 33408, Note_on_c, 9, 36, 94
1, 33408, Note_on_c, 9, 42, 94
1, 33408, Note_on_c, 9, 56, 72
1, 33411, Note_off_c, 9, 56, 64
1, 33411, Note_off_c, 9, 42, 64
1, 33411, Note_off_c, 9, 36, 64
1, 33416, Note_off_c, 4, 53, 64
1, 33416, Note_off_c, 4, 58, 64
1, 33446, Note_off_c, 1, 34, 64
1, 33451, Pitch_bend_c, 11, 8192
1, 33452, Note_on_c, 11, 63, 64
1, 33456, Note_on_c, 9, 44, 73
1, 33458, Note_on_c, 4, 58, 94
1, 33458, Note_on_c, 4, 53, 94
1, 33458, Note_on_c, 11, 65, 64
1, 33459, Pitch_bend_c, 3, 8582
1, 33459, Note_off_c, 9, 44, 64
1, 33463, Pitch_bend_c, 3, 8712
1, 33465, Pitch_bend_c, 3, 9102
1, 33466, Note_off_c, 4, 53, 64
1, 33466, Note_off_c, 4, 58, 64
1, 33470, Note_off_c, 11, 63, 64
1, 33473, Pitch_bend_c, 3, 9362
1, 33476, Pitch_bend_c, 3, 9492
1, 33476, Note_off_c, 11, 65, 64
1, 33479, Pitch_bend_c, 3, 9752
1, 33484, Pitch_bend_c, 3, 9882
1, 33486, Pitch_bend_c, 3, 10272
1, 33487, Pitch_bend_c, 10, 8582
1, 33491, Pitch_bend_c, 10, 8712
1, 33493, Pitch_bend_c, 10, 8972
1, 33494, Pitch_bend_c, 3, 10532
1, 33497, Pitch_bend_c, 10, 9102
1, 33498, Pitch_bend_c, 3, 10792
1, 33500, Pitch_bend_c, 3, 11182
1, 33501, Pitch_bend_c, 10, 9362
1, 33501, Note_on_c, 11, 63, 64
1, 33502, Note_on_c, 11, 68, 64
1, 33503, Note_on_c, 1, 44, 100
1, 33503, Note_on_c, 4, 58, 94
1, 33503, Note_on_c, 4, 53, 94
1, 33503, Note_on_c, 9, 42, 94
1, 33504, Pitch_bend_c, 3, 11702
1, 33504, Pitch_bend_c, 10, 9492
1, 33505, Note_on_c, 9, 40, 94
1, 33506, Note_off_c, 9, 42, 64
1, 33507, Pitch_bend_c, 10, 9752
1, 33508, Pitch_bend_c, 3, 12222
1, 33508, Note_off_c, 9, 40, 64
1, 33511, Note_off_c, 4, 53, 64
1, 33511, Note_off_c, 4, 58, 64
1, 33512, Pitch_bend_c, 3, 12742
1, 33513, Pitch_bend_c, 10, 9882
1, 33514, Pitch_bend_c, 3, 13002
1, 33515, Pitch_bend_c, 10, 10012
1, 33516, Note_off_c, 11, 63, 64
1, 33518, Pitch_bend_c, 3, 13132
1, 33518, Pitch_bend_c, 10, 10272
1, 33518, Note_off_c, 11, 68, 64
1, 33519, Note_off_c, 3, 73, 64
1, 33522, Pitch_bend_c, 10, 10532
1, 33527, Pitch_bend_c, 10, 10792
1, 33529, Pitch_bend_c, 10, 11182
1, 33532, Pitch_bend_c, 10, 11702
1, 33536, Pitch_bend_c, 10, 12222
1, 33540, Pitch_bend_c, 10, 12742
1, 33542, Note_off_c, 1, 44, 64
1, 33542, Pitch_bend_c, 10, 13002
1, 33546, Pitch_bend_c, 10, 13132
1, 33547, Note_on_c, 11, 65, 64
1, 33548, Note_on_c, 4, 58, 94
1, 33548, Note_on_c, 4, 53, 94
1, 33549, Note_on_c, 11, 70, 64
1, 33552, Note_on_c, 9, 44, 73
1, 33555, Note_off_c, 9, 44, 64
1, 33556, Note_on_c, 1, 34, 89
1, 33556, Note_off_c, 4, 53, 64
1, 33556, Note_off_c, 4, 58, 64
1, 33571, Note_off_c, 1, 34, 64
1, 33576, Note_off_c, 10, 73, 64
1, 33598, Pitch_bend_c, 10, 8192
1, 33599, Note_on_c, 1, 44, 100
1, 33599, Note_on_c, 4, 58, 94
1, 33599, Note_on_c, 4, 53, 94
1, 33599, Note_on_c, 9, 56, 72
1, 33600, Note_on_c, 9, 36, 94
1, 33602, Note_off_c, 9, 56, 64
1, 33602, Note_on_c, 9, 42, 94
1, 33603, Note_off_c, 9, 36, 64
1, 33605, Note_off_c, 9, 42, 64
1, 33607, Note_off_c, 4, 53, 64
1, 33607, Note_off_c, 4, 58, 64
1, 33614, Pitch_bend_c, 1, 16383
1, 33635, Pitch_bend_c, 11, 7936
1, 33636, Pitch_bend_c, 11, 7168
1, 33638, Note_off_c, 1, 44, 64
1, 33640, Pitch_bend_c, 11, 6272
1, 33644, Pitch_bend_c, 11, 5760
1, 33647, Pitch_bend_c, 1, 8192
1, 33647, Pitch_bend_c, 11, 4736
1, 33648, Note_on_c, 1, 34, 88
1, 33649, Note_on_c, 4, 53, 94
1, 33649, Note_on_c, 9, 44, 73
1, 33650, Note_on_c, 4, 58, 94
1, 33650, Pitch_bend_c, 11, 3584
1, 33652, Note_off_c, 9, 44, 64
1, 33654, Pitch_bend_c, 11, 2432
1, 33657, Note_off_c, 4, 53, 64
1, 33658, Note_off_c, 4, 58, 64
1, 33658, Pitch_bend_c, 11, 1024
1, 33662, Pitch_bend_c, 11, 0
1, 33663, Note_off_c, 1, 34, 64
1, 33678, Note_off_c, 11, 70, 64
1, 33686, Note_off_c, 11, 65, 64
1, 33696, Note_on_c, 4, 56, 74
1, 33697, Note_on_c, 4, 61, 75
1, 33697, Note_on_c, 9, 42, 94
1, 33697, Note_on_c, 9, 40, 94
1, 33700, Note_off_c, 9, 40, 64
1, 33700, Note_off_c, 9, 42, 64
1, 33704, Note_off_c, 4, 56, 64
1, 33705, Note_off_c, 4, 61, 64
1, 33742, Pitch_bend_c, 3, 8192
1, 33743, Note_on_c, 3, 61, 88
1, 33744, Note_on_c, 1, 39, 100
1, 33744, Note_on_c, 4, 58, 90
1, 33744, Note_on_c, 4, 63, 90
1, 33746, Note_on_c, 9, 44, 73
1, 33749, Note_off_c, 9, 44, 64
1, 33752, Note_off_c, 4, 63, 64
1, 33752, Note_off_c, 4, 58, 64
1, 33762, Note_off_c, 3, 61, 64
1, 33771, Note_on_c, 10, 61, 94
1, 33791, Note_off_c, 2, 46, 64
1, 33792, Note_on_c, 4, 58, 54
1, 33792, Note_on_c, 4, 63, 54
1, 33792, Note_on_c, 9, 36, 94
1, 33792, Note_on_c, 9, 42, 94
1, 33792, Note_on_c, 9, 56, 72
1, 33793, Note_on_c, 3, 63, 103
1, 33794, Note_on_c, 2, 39, 74
1, 33795, Note_off_c, 9, 56, 64
1, 33795, Note_off_c, 9, 42, 64
1, 33795, Note_off_c, 9, 36, 64
1, 33799, Note_off_c, 1, 39, 64
1, 33800, Note_off_c, 4, 63, 64
1, 33800, Note_off_c, 4, 58, 64
1, 33815, Note_off_c, 3, 63, 64
1, 33816, Note_off_c, 10, 61, 64
1, 33822, Note_on_c, 10, 63, 109
1, 33837, Note_on_c, 1, 39, 100
1, 33840, Note_on_c, 3, 61, 92
1, 33840, Note_on_c, 4, 58, 98
1, 33840, Note_on_c, 4, 63, 98
1, 33840, Note_on_c, 9, 44, 73
1, 33843, Note_off_c, 9, 44, 64
1, 33848, Note_off_c, 4, 63, 64
1, 33848, Note_off_c, 4, 58, 64
1, 33859, Note_off_c, 3, 61, 64
1, 33868, Note_on_c, 10, 61, 98
1, 33872, Note_off_c, 10, 63, 64
1, 33876, Note_off_c, 1, 39, 64
1, 33887, Note_on_c, 1, 49, 100
1, 33887, Note_on_c, 3, 63, 103
1, 33887, Note_on_c, 9, 42, 94
1, 33888, Note_on_c, 4, 63, 77
1, 33888, Note_on_c, 4, 58, 77
1, 33889, Note_on_c, 9, 40, 94
1, 33890, Note_off_c, 9, 42, 64
1, 33892, Note_off_c, 9, 40, 64
1, 33895, Pitch_bend_c, 3, 8972
1, 33896, Pitch_bend_c, 3, 11052
1, 33896, Note_off_c, 4, 58, 64
1, 33896, Note_off_c, 4, 63, 64
1, 33899, Pitch_bend_c, 3, 14952
1, 33907, Pitch_bend_c, 3, 15342
1, 33911, Pitch_bend_c, 3, 14952
1, 33913, Pitch_bend_c, 3, 12742
1, 33915, Note_on_c, 10, 63, 109
1, 33916, Note_off_c, 10, 61, 64
1, 33917, Pitch_bend_c, 3, 9102
1, 33920, Pitch_bend_c, 3, 8192
1, 33923, Pitch_bend_c, 10, 8972
1, 33924, Pitch_bend_c, 10, 11052
1, 33926, Note_off_c, 1, 49, 64
1, 33928, Pitch_bend_c, 10, 13002
1, 33931, Pitch_bend_c, 10, 14952
1, 33934, Note_off_c, 3, 63, 64
1, 33935, Note_on_c, 1, 39, 75
1, 33935, Note_on_c, 3, 61, 90
1, 33935, Pitch_bend_c, 10, 15342
1, 33936, Note_on_c, 4, 63, 93
1, 33936, Note_on_c, 4, 58, 93
1, 33936, Note_on_c, 9, 44, 73
1, 33939, Note_off_c, 9, 44, 64
1, 33940, Pitch_bend_c, 10, 14952
1, 33941, Pitch_bend_c, 10, 12742
1, 33944, Note_off_c, 4, 58, 64
1, 33944, Note_off_c, 4, 63, 64
1, 33946, Pitch_bend_c, 10, 9102
1, 33949, Pitch_bend_c, 10, 8192
1, 33950, Note_off_c, 1, 39, 64
1, 33959, Note_off_c, 3, 61, 64
1, 33963, Note_on_c, 10, 61, 96
1, 33982, Note_on_c, 1, 49, 100
1, 33983, Note_on_c, 9, 56, 72
1, 33984, Note_on_c, 4, 63, 90
1, 33984, Note_on_c, 4, 58, 90
1, 33984, Note_on_c, 9, 36, 94
1, 33986, Note_on_c, 3, 63, 103
1, 33986, Note_off_c, 9, 56, 64
1, 33986, Note_on_c, 9, 42, 94
1, 33987, Note_off_c, 9, 36, 64
1, 33989, Note_off_c, 9, 42, 64
1, 33991, Note_off_c, 10, 63, 64
1, 33992, Note_off_c, 4, 58, 64
1, 33992, Note_off_c, 4, 63, 64
1, 33993, Pitch_bend_c, 1, 16383
1, 34010, Note_off_c, 3, 63, 64
1, 34015, Note_on_c, 10, 63, 109
1, 34016, Note_off_c, 10, 61, 64
1, 34021, Note_off_c, 1, 49, 64
1, 34028, Pitch_bend_c, 1, 8192
1, 34029, Note_on_c, 1, 29, 90
1, 34030, Note_on_c, 3, 61, 92
1, 34032, Note_on_c, 4, 63, 91
1, 34032, Note_on_c, 4, 58, 91
1, 34033, Note_on_c, 9, 44, 73
1, 34036, Note_off_c, 9, 44, 64
1, 34040, Note_off_c, 4, 58, 64
1, 34040, Note_off_c, 4, 63, 64
1, 34044, Note_off_c, 1, 29, 64
1, 34048, Note_off_c, 3, 61, 64
1, 34058, Note_on_c, 10, 61, 98
1, 34067, Note_off_c, 10, 63, 64
1, 34078, Note_on_c, 1, 32, 91
1, 34079, Note_on_c, 3, 61, 103
1, 34080, Note_on_c, 4, 63, 97
1, 34080, Note_on_c, 4, 58, 97
1, 34081, Note_on_c, 9, 42, 94
1, 34081, Note_on_c, 9, 40, 94
1, 34084, Note_off_c, 9, 40, 64
1, 34084, Note_off_c, 9, 42, 64
1, 34088, Note_off_c, 4, 58, 64
1, 34088, Note_off_c, 4, 63, 64
1, 34094, Note_off_c, 3, 61, 64
1, 34105, Note_off_c, 10, 61, 64
1, 34107, Note_on_c, 10, 61, 109
1, 34109, Note_off_c, 1, 32, 64
1, 34125, Note_on_c, 1, 34, 100
1, 34125, Note_on_c, 3, 62, 103
1, 34128, Note_on_c, 4, 58, 77
1, 34128, Note_on_c, 4, 63, 77
1, 34130, Note_on_c, 9, 44, 73
1, 34133, Note_off_c, 9, 44, 64
1, 34136, Note_off_c, 4, 63, 64
1, 34136, Note_off_c, 4, 58, 64
1, 34149, Pitch_bend_c, 3, 7680
1, 34151, Pitch_bend_c, 3, 3328
1, 34151, Note_off_c, 10, 61, 64
1, 34153, Note_on_c, 10, 62, 109
1, 34158, Pitch_bend_c, 3, 1408
1, 34162, Pitch_bend_c, 3, 384
1, 34165, Pitch_bend_c, 3, 128
1, 34169, Pitch_bend_c, 3, 768
1, 34172, Note_off_c, 3, 62, 64
1, 34172, Pitch_bend_c, 3, 4224
1, 34173, Note_on_c, 2, 46, 74
1, 34176, Note_off_c, 2, 39, 64
1, 34176, Pitch_bend_c, 3, 8192
1, 34176, Note_on_c, 4, 58, 60
1, 34176, Note_on_c, 4, 53, 60
1, 34176, Note_on_c, 9, 36, 94
1, 34176, Note_on_c, 9, 42, 94
1, 34176, Note_on_c, 9, 56, 72
1, 34177, Note_on_c, 3, 58, 92
1, 34178, Pitch_bend_c, 10, 7680
1, 34179, Note_off_c, 9, 56, 64
1, 34179, Note_off_c, 9, 42, 64
1, 34179, Note_off_c, 9, 36, 64
1, 34180, Pitch_bend_c, 10, 5760
1, 34183, Pitch_bend_c, 10, 3328
1, 34184, Note_off_c, 4, 53, 64
1, 34184, Note_off_c, 4, 58, 64
1, 34187, Pitch_bend_c, 10, 1408
1, 34190, Pitch_bend_c, 10, 384
1, 34193, Pitch_bend_c, 10, 128
1, 34198, Pitch_bend_c, 10, 768
1, 34201, Pitch_bend_c, 10, 4224
1, 34203, Note_off_c, 10, 62, 64
1, 34204, Note_off_c, 1, 34, 64
1, 34204, Pitch_bend_c, 10, 8192
1, 34205, Note_on_c, 10, 58, 98
1, 34218, Note_off_c, 3, 58, 64
1, 34221, Note_on_c, 1, 34, 100
1, 34224, Note_on_c, 9, 44, 73
1, 34226, Note_on_c, 4, 58, 94
1, 34226, Note_on_c, 4, 53, 94
1, 34227, Note_off_c, 9, 44, 64
1, 34234, Note_off_c, 4, 53, 64
1, 34234, Note_off_c, 4, 58, 64
1, 34260, Note_off_c, 1, 34, 64
1, 34271, Note_on_c, 1, 44, 100
1, 34271, Note_on_c, 4, 58, 84
1, 34271, Note_on_c, 4, 53, 84
1, 34271, Note_on_c, 9, 42, 94
1, 34273, Note_on_c, 9, 40, 94
1, 34274, Note_off_c, 9, 42, 64
1, 34275, Note_off_c, 10, 58, 64
1, 34276, Note_off_c, 9, 40, 64
1, 34279, Note_off_c, 4, 53, 64
1, 34279, Note_off_c, 4, 58, 64
1, 34310, Note_off_c, 1, 44, 64
1, 34316, Note_on_c, 4, 58, 97
1, 34316, Note_on_c, 4, 53, 97
1, 34318, Note_on_c, 1, 34, 71
1, 34320, Note_on_c, 9, 44, 73
1, 34323, Note_off_c, 9, 44, 64
1, 34324, Note_off_c, 4, 53, 64
1, 34324, Note_off_c, 4, 58, 64
1, 34333, Note_off_c, 1, 34, 64
1, 34365, Note_on_c, 1, 44, 100
1, 34367, Note_on_c, 4, 58, 86
1, 34367, Note_on_c, 4, 53, 86
1, 34367, Note_on_c, 9, 56, 72
1, 34368, Note_on_c, 9, 36, 94
1, 34370, Note_off_c, 9, 56, 64
1, 34370, Note_on_c, 9, 42, 94
1, 34371, Note_off_c, 9, 36, 64
1, 34373, Note_off_c, 9, 42, 64
1, 34375, Note_off_c, 4, 53, 64
1, 34375, Note_off_c, 4, 58, 64
1, 34382, Pitch_bend_c, 1, 16383
1, 34404, Note_off_c, 1, 44, 64
1, 34413, Pitch_bend_c, 1, 8192
1, 34414, Note_on_c, 1, 34, 93
1, 34417, Note_on_c, 4, 53, 94
1, 34417, Note_on_c, 9, 44, 73
1, 34418, Note_on_c, 4, 58, 94
1, 34420, Note_off_c, 9, 44, 64
1, 34425, Note_off_c, 4, 53, 64
1, 34426, Note_off_c, 4, 58, 64
1, 34464, Note_on_c, 4, 53, 92
1, 34464, Note_on_c, 4, 58, 92
1, 34465, Note_on_c, 9, 42, 94
1, 34465, Note_on_c, 9, 40, 94
1, 34468, Note_off_c, 9, 40, 64
1, 34468, Note_off_c, 9, 42, 64
1, 34469, Note_off_c, 1, 34, 64
1, 34471, Note_off_c, 4, 53, 64
1, 34472, Note_off_c, 4, 58, 64
1, 34510, Note_on_c, 1, 32, 100
1, 34513, Note_on_c, 4, 53, 92
1, 34514, Note_on_c, 4, 58, 92
1, 34514, Note_on_c, 9, 44, 73
1, 34517, Note_off_c, 9, 44, 64
1, 34520, Note_off_c, 4, 53, 64
1, 34521, Note_off_c, 4, 58, 64
1, 34526, Pitch_bend_c, 1, 16383
1, 34557, Note_off_c, 1, 32, 64
1, 34560, Note_on_c, 4, 58, 60
1, 34560, Note_on_c, 4, 53, 60
1, 34560, Note_on_c, 9, 36, 94
1, 34560, Note_on_c, 9, 42, 94
1, 34560, Note_on_c, 9, 56, 72
1, 34563, Note_off_c, 9, 56, 64
1, 34563, Note_off_c, 9, 42, 64
1, 34563, Note_off_c, 9, 36, 64
1, 34568, Note_off_c, 4, 53, 64
1, 34568, Note_off_c, 4, 58, 64
1, 34605, Pitch_bend_c, 1, 8192
1, 34606, Note_on_c, 1, 34, 100
1, 34608, Note_on_c, 9, 44, 73
1, 34610, Note_on_c, 4, 58, 94
1, 34610, Note_on_c, 4, 53, 94
1, 34611, Note_off_c, 9, 44, 64
1, 34618, Note_off_c, 4, 53, 64
1, 34618, Note_off_c, 4, 58, 64
1, 34645, Note_off_c, 1, 34, 64
1, 34653, Note_on_c, 1, 44, 100
1, 34655, Note_on_c, 4, 58, 84
1, 34655, Note_on_c, 4, 53, 84
1, 34655, Note_on_c, 9, 42, 94
1, 34657, Note_on_c, 9, 40, 94
1, 34658, Note_off_c, 9, 42, 64
1, 34660, Note_off_c, 9, 40, 64
1, 34663, Note_off_c, 4, 53, 64
1, 34663, Note_off_c, 4, 58, 64
1, 34700, Note_on_c, 4, 58, 97
1, 34700, Note_on_c, 4, 53, 97
1, 34704, Note_on_c, 9, 44, 73
1, 34707, Note_off_c, 9, 44, 64
1, 34708, Note_off_c, 1, 44, 64
1, 34708, Note_off_c, 4, 53, 64
1, 34708, Note_off_c, 4, 58, 64
1, 34747, Note_on_c, 1, 44, 100
1, 34751, Note_on_c, 4, 58, 86
1, 34751, Note_on_c, 4, 53, 86
1, 34751, Note_on_c, 9, 56, 72
1, 34752, Note_on_c, 9, 40, 98
1, 34754, Note_off_c, 9, 56, 64
1, 34755, Note_off_c, 9, 40, 64
1, 34759, Note_off_c, 4, 53, 64
1, 34759, Note_off_c, 4, 58, 64
1, 34766, Pitch_bend_c, 1, 16383
1, 34776, Note_on_c, 9, 40, 73
1, 34779, Note_off_c, 9, 40, 64
1, 34780, Note_off_c, 1, 44, 64
1, 34796, Pitch_bend_c, 1, 8192
1, 34797, Note_on_c, 1, 29, 91
1, 34800, Note_on_c, 9, 43, 83
1, 34801, Note_on_c, 4, 53, 94
1, 34802, Note_on_c, 4, 58, 94
1, 34803, Note_off_c, 9, 43, 64
1, 34809, Note_off_c, 4, 53, 64
1, 34810, Note_off_c, 4, 58, 64
1, 34820, Note_off_c, 1, 29, 64
1, 34846, Note_on_c, 1, 32, 94
1, 34848, Note_on_c, 4, 53, 92
1, 34848, Note_on_c, 4, 58, 92
1, 34848, Note_on_c, 9, 40, 100
1, 34851, Note_off_c, 9, 40, 64
1, 34855, Note_off_c, 4, 53, 64
1, 34856, Note_off_c, 4, 58, 64
1, 34872, Note_on_c, 9, 40, 79
1, 34875, Note_off_c, 9, 40, 64
1, 34885, Note_off_c, 1, 32, 64
1, 34896, Note_on_c, 9, 41, 87
1, 34897, Note_on_c, 4, 53, 92
1, 34898, Note_on_c, 4, 58, 92
1, 34899, Note_off_c, 9, 41, 64
1, 34904, Note_off_c, 4, 53, 64
1, 34905, Note_off_c, 4, 58, 64
1, 34943, Pitch_bend_c, 3, 489
1, 34943, Pitch_bend_c, 11, 8192
1, 34944, Note_on_c, 1, 34, 94
1, 34944, Note_on_c, 3, 70, 103
1, 34944, Note_on_c, 9, 36, 104
1, 34944, Note_on_c, 9, 49, 104
1, 34944, Note_on_c, 9, 55, 104
1, 34944, Note_on_c, 9, 56, 72
1, 34944, Note_on_c, 11, 77, 64
1, 34945, Note_on_c, 2, 77, 94
1, 34945, Note_on_c, 2, 80, 94
1, 34946, Note_on_c, 2, 74, 94
1, 34946, Note_on_c, 2, 82, 94
1, 34947, Note_off_c, 9, 56, 64
1, 34947, Note_off_c, 9, 36, 64
1, 34947, Note_off_c, 9, 49, 64
1, 34947, Note_off_c, 9, 55, 64
1, 34948, Pitch_bend_c, 3, 1772
1, 34951, Note_off_c, 2, 82, 64
1, 34952, Pitch_bend_c, 3, 3056
1, 34954, Note_off_c, 2, 74, 64
1, 34955, Note_off_c, 2, 80, 64
1, 34956, Pitch_bend_c, 3, 4340
1, 34958, Note_off_c, 2, 77, 64
1, 34960, Pitch_bend_c, 3, 5624
1, 34964, Pitch_bend_c, 3, 6907
1, 34968, Pitch_bend_c, 3, 8192
1, 34971, Pitch_bend_c, 10, 489
1, 34972, Note_on_c, 10, 70, 109
1, 34976, Pitch_bend_c, 10, 1772
1, 34980, Pitch_bend_c, 10, 3056
1, 34984, Pitch_bend_c, 10, 4340
1, 34988, Pitch_bend_c, 10, 5624
1, 34992, Note_on_c, 2, 80, 94
1, 34992, Note_on_c, 9, 44, 73
1, 34992, Pitch_bend_c, 10, 6907
1, 34993, Note_on_c, 2, 77, 94
1, 34993, Note_on_c, 2, 74, 94
1, 34994, Note_on_c, 2, 82, 96
1, 34994, Note_on_c, 4, 46, 94
1, 34995, Note_off_c, 9, 44, 64
1, 34996, Pitch_bend_c, 10, 8192
1, 34998, Note_off_c, 2, 82, 64
1, 34999, Note_off_c, 2, 80, 64
1, 34999, Note_off_c, 2, 74, 64
1, 35001, Note_off_c, 2, 77, 64
1, 35002, Note_off_c, 4, 46, 64
1, 35039, Note_on_c, 2, 80, 105
1, 35039, Note_on_c, 9, 42, 94
1, 35040, Note_on_c, 2, 82, 105
1, 35040, Note_on_c, 2, 74, 105
1, 35041, Note_on_c, 2, 77, 105
1, 35041, Note_on_c, 9, 40, 94
1, 35042, Note_off_c, 9, 42, 64
1, 35044, Note_off_c, 9, 40, 64
1, 35048, Note_off_c, 2, 74, 64
1, 35049, Note_off_c, 2, 80, 64
1, 35049, Note_off_c, 2, 77, 64
1, 35050, Note_off_c, 2, 82, 64
1, 35056, Pitch_bend_c, 3, 7680
1, 35059, Pitch_bend_c, 3, 7424
1, 35061, Pitch_bend_c, 3, 6144
1, 35066, Note_off_c, 11, 77, 64
1, 35069, Pitch_bend_c, 3, 5248
1, 35073, Pitch_bend_c, 3, 4224
1, 35076, Pitch_bend_c, 3, 1664
1, 35078, Note_off_c, 3, 70, 64
1, 35084, Note_on_c, 4, 46, 94
1, 35085, Pitch_bend_c, 10, 7680
1, 35087, Note_on_c, 2, 77, 79
1, 35087, Pitch_bend_c, 10, 7424
1, 35088, Note_on_c, 2, 74, 79
1, 35088, Note_on_c, 9, 44, 73
1, 35089, Note_on_c, 2, 80, 79
1, 35089, Note_on_c, 2, 82, 79
1, 35089, Pitch_bend_c, 10, 6784
1, 35091, Note_off_c, 9, 44, 64
1, 35092, Note_off_c, 4, 46, 64
1, 35093, Pitch_bend_c, 10, 6144
1, 35094, Note_off_c, 2, 82, 64
1, 35095, Note_off_c, 2, 80, 64
1, 35096, Note_off_c, 2, 74, 64
1, 35097, Pitch_bend_c, 10, 5248
1, 35098, Note_off_c, 2, 77, 64
1, 35101, Pitch_bend_c, 10, 4224
1, 35104, Pitch_bend_c, 10, 3584
1, 35107, Pitch_bend_c, 10, 1664
1, 35119, Note_off_c, 1, 34, 64
1, 35135, Note_on_c, 9, 56, 72
1, 35135, Note_off_c, 10, 70, 64
1, 35136, Note_on_c, 2, 74, 88
1, 35136, Note_on_c, 2, 77, 88
1, 35136, Note_on_c, 9, 36, 94
1, 35137, Note_on_c, 2, 80, 88
1, 35138, Note_on_c, 2, 82, 88
1, 35138, Note_off_c, 9, 56, 64
1, 35138, Note_on_c, 9, 42, 94
1, 35139, Note_off_c, 9, 36, 64
1, 35141, Note_off_c, 9, 42, 64
1, 35143, Note_off_c, 2, 80, 64
1, 35144, Note_on_c, 1, 34, 94
1, 35144, Note_off_c, 2, 77, 64
1, 35144, Note_off_c, 2, 74, 64
1, 35145, Note_off_c, 2, 82, 64
1, 35147, Pitch_bend_c, 10, 8192
1, 35157, Note_off_c, 1, 34, 64
1, 35179, Note_on_c, 4, 46, 94
1, 35182, Note_on_c, 2, 77, 94
1, 35183, Note_on_c, 2, 74, 94
1, 35183, Note_on_c, 2, 80, 94
1, 35184, Note_on_c, 2, 82, 94
1, 35185, Note_on_c, 1, 34, 94
1, 35185, Note_on_c, 9, 44, 73
1, 35187, Note_off_c, 4, 46, 64
1, 35188, Note_off_c, 2, 82, 64
1, 35188, Note_off_c, 2, 80, 64
1, 35188, Note_off_c, 9, 44, 64
1, 35191, Note_off_c, 2, 74, 64
1, 35191, Note_off_c, 2, 77, 64
1, 35208, Note_off_c, 1, 34, 64
1, 35231, Note_on_c, 2, 74, 94
1, 35231, Note_on_c, 2, 77, 94
1, 35232, Note_on_c, 2, 80, 94
1, 35233, Note_on_c, 1, 33, 94
1, 35233, Note_on_c, 2, 82, 94
1, 35233, Note_on_c, 9, 42, 94
1, 35233, Note_on_c, 9, 40, 94
1, 35236, Note_off_c, 9, 40, 64
1, 35236, Note_off_c, 9, 42, 64
1, 35239, Note_off_c, 2, 82, 64
1, 35239, Note_off_c, 2, 80, 64
1, 35241, Note_off_c, 2, 77, 64
1, 35242, Note_off_c, 2, 74, 64
1, 35256, Note_off_c, 1, 33, 64
1, 35279, Note_on_c, 2, 77, 94
1, 35279, Note_on_c, 2, 80, 94
1, 35280, Note_on_c, 1, 31, 94
1, 35280, Note_on_c, 2, 74, 94
1, 35280, Note_on_c, 4, 46, 94
1, 35281, Note_on_c, 2, 82, 94
1, 35282, Note_on_c, 9, 44, 73
1, 35285, Note_off_c, 9, 44, 64
1, 35288, Note_off_c, 4, 46, 64
1, 35290, Note_off_c, 2, 74, 64
1, 35291, Note_off_c, 2, 82, 64
1, 35292, Note_off_c, 2, 80, 64
1, 35294, Note_off_c, 2, 77, 64
1, 35303, Note_off_c, 1, 31, 64
1, 35325, Pitch_bend_c, 3, 8192
1, 35326, Note_on_c, 2, 41, 74
1, 35326, Note_on_c, 3, 68, 103
1, 35326, Note_on_c, 11, 75, 64
1, 35327, Note_off_c, 2, 46, 64
1, 35328, Note_on_c, 2, 75, 94
1, 35328, Note_on_c, 9, 36, 94
1, 35328, Note_on_c, 9, 42, 94
1, 35328, Note_on_c, 9, 56, 72
1, 35329, Note_on_c, 2, 80, 94
1, 35330, Note_on_c, 1, 29, 94
1, 35330, Note_on_c, 2, 82, 88
1, 35331, Note_off_c, 9, 56, 64
1, 35331, Note_off_c, 9, 42, 64
1, 35331, Note_off_c, 9, 36, 64
1, 35334, Note_off_c, 2, 82, 64
1, 35337, Note_off_c, 2, 80, 64
1, 35340, Note_off_c, 2, 75, 64
1, 35345, Note_off_c, 11, 75, 64
1, 35354, Note_on_c, 10, 68, 109
1, 35371, Note_on_c, 11, 77, 64
1, 35373, Note_on_c, 2, 75, 79
1, 35374, Note_on_c, 2, 80, 79
1, 35376, Note_on_c, 3, 70, 94
1, 35376, Note_on_c, 9, 44, 73
1, 35378, Note_off_c, 2, 80, 64
1, 35378, Note_on_c, 4, 46, 94
1, 35379, Note_off_c, 3, 68, 64
1, 35379, Note_off_c, 9, 44, 64
1, 35381, Note_off_c, 2, 75, 64
1, 35386, Note_off_c, 4, 46, 64
1, 35404, Note_on_c, 10, 70, 100
1, 35421, Note_on_c, 2, 75, 88
1, 35422, Note_on_c, 2, 80, 88
1, 35422, Note_off_c, 11, 77, 64
1, 35423, Note_on_c, 2, 82, 88
1, 35423, Note_on_c, 9, 42, 94
1, 35424, Note_on_c, 2, 77, 88
1, 35425, Note_off_c, 2, 77, 64
1, 35425, Note_on_c, 9, 40, 94
1, 35426, Note_off_c, 9, 42, 64
1, 35427, Note_off_c, 2, 82, 64
1, 35428, Note_off_c, 9, 40, 64
1, 35432, Note_off_c, 2, 80, 64
1, 35433, Note_off_c, 1, 29, 64
1, 35435, Note_off_c, 2, 75, 64
1, 35436, Note_off_c, 10, 68, 64
1, 35467, Note_on_c, 11, 79, 64
1, 35468, Note_on_c, 3, 72, 111
1, 35468, Note_on_c, 4, 46, 94
1, 35469, Note_on_c, 2, 80, 105
1, 35470, Note_on_c, 2, 75, 105
1, 35470, Note_on_c, 2, 82, 105
1, 35470, Note_off_c, 3, 70, 64
1, 35471, Note_on_c, 2, 77, 105
1, 35472, Note_on_c, 9, 44, 73
1, 35475, Note_off_c, 2, 77, 64
1, 35475, Note_off_c, 9, 44, 64
1, 35476, Note_off_c, 4, 46, 64
1, 35478, Note_off_c, 2, 82, 64
1, 35480, Note_off_c, 2, 75, 64
1, 35482, Note_off_c, 2, 80, 64
1, 35494, Note_on_c, 1, 29, 94
1, 35497, Note_on_c, 10, 72, 117
1, 35507, Note_off_c, 1, 29, 64
1, 35507, Pitch_bend_c, 3, 8558
1, 35509, Pitch_bend_c, 3, 9047
1, 35513, Pitch_bend_c, 3, 10025
1, 35516, Note_on_c, 1, 29, 94
1, 35518, Note_on_c, 2, 75, 71
1, 35518, Pitch_bend_c, 3, 10759
1, 35519, Note_on_c, 2, 80, 70
1, 35519, Note_on_c, 2, 77, 70
1, 35519, Note_on_c, 9, 56, 72
1, 35520, Note_on_c, 2, 82, 79
1, 35520, Pitch_bend_c, 3, 12226
1, 35520, Note_on_c, 9, 36, 94
1, 35522, Note_off_c, 9, 56, 64
1, 35522, Note_on_c, 9, 42, 94
1, 35523, Note_off_c, 2, 77, 64
1, 35523, Note_off_c, 3, 72, 64
1, 35523, Note_off_c, 9, 36, 64
1, 35525, Note_off_c, 2, 82, 64
1, 35525, Note_off_c, 9, 42, 64
1, 35527, Note_off_c, 2, 80, 64
1, 35527, Note_off_c, 2, 75, 64
1, 35527, Note_off_c, 10, 70, 64
1, 35535, Pitch_bend_c, 10, 8558
1, 35537, Pitch_bend_c, 10, 9047
1, 35538, Pitch_bend_c, 3, 8192
1, 35538, Note_off_c, 11, 79, 64
1, 35541, Pitch_bend_c, 10, 10025
1, 35544, Note_off_c, 1, 29, 64
1, 35546, Pitch_bend_c, 10, 10759
1, 35548, Pitch_bend_c, 10, 12226
1, 35552, Pitch_bend_c, 10, 12800
1, 35560, Pitch_bend_c, 10, 13312
1, 35563, Note_on_c, 4, 46, 94
1, 35564, Pitch_bend_c, 10, 13568
1, 35565, Note_on_c, 1, 29, 94
1, 35566, Note_on_c, 2, 75, 79
1, 35566, Note_on_c, 2, 80, 79
1, 35567, Note_on_c, 2, 82, 88
1, 35568, Note_on_c, 5, 61, 94
1, 35568, Pitch_bend_c, 10, 14080
1, 35569, Note_off_c, 2, 82, 64
1, 35569, Note_on_c, 9, 44, 73
1, 35571, Note_off_c, 4, 46, 64
1, 35572, Note_off_c, 2, 80, 64
1, 35572, Note_off_c, 9, 44, 64
1, 35572, Pitch_bend_c, 10, 14592
1, 35573, Note_off_c, 2, 75, 64
1, 35576, Pitch_bend_c, 10, 15360
1, 35580, Note_off_c, 10, 72, 64
1, 35580, Pitch_bend_c, 10, 15872
1, 35604, Note_off_c, 1, 29, 64
1, 35604, Pitch_bend_c, 5, 8582
1, 35607, Pitch_bend_c, 5, 8842
1, 35612, Pitch_bend_c, 5, 8972
1, 35614, Note_on_c, 2, 75, 94
1, 35614, Pitch_bend_c, 5, 9492
1, 35615, Note_on_c, 1, 31, 94
1, 35615, Note_on_c, 2, 77, 94
1, 35615, Note_on_c, 2, 80, 94
1, 35616, Note_on_c, 2, 82, 94
1, 35617, Note_on_c, 9, 42, 94
1, 35617, Note_on_c, 9, 40, 94
1, 35620, Note_off_c, 2, 82, 64
1, 35620, Note_off_c, 9, 40, 64
1, 35620, Note_off_c, 9, 42, 64
1, 35622, Note_off_c, 2, 80, 64
1, 35622, Pitch_bend_c, 5, 9882
1, 35624, Note_off_c, 2, 77, 64
1, 35625, Note_off_c, 2, 75, 64
1, 35626, Pitch_bend_c, 5, 10142
1, 35629, Pitch_bend_c, 5, 10402
1, 35632, Pitch_bend_c, 5, 10662
1, 35635, Pitch_bend_c, 5, 11312
1, 35639, Pitch_bend_c, 5, 11832
1, 35643, Pitch_bend_c, 5, 12742
1, 35649, Pitch_bend_c, 5, 13262
1, 35653, Pitch_bend_c, 5, 13652
1, 35658, Note_off_c, 1, 31, 64
1, 35659, Note_off_c, 5, 61, 64
1, 35660, Pitch_bend_c, 5, 8192
1, 35661, Note_on_c, 5, 58, 85
1, 35663, Note_on_c, 2, 75, 94
1, 35663, Note_on_c, 2, 77, 94
1, 35664, Note_on_c, 1, 33, 94
1, 35664, Note_on_c, 2, 80, 94
1, 35664, Note_on_c, 2, 82, 94
1, 35664, Note_on_c, 4, 46, 94
1, 35666, Note_on_c, 9, 44, 73
1, 35669, Note_off_c, 9, 44, 64
1, 35672, Note_off_c, 4, 46, 64
1, 35681, Note_off_c, 2, 82, 64
1, 35683, Note_off_c, 1, 33, 64
1, 35683, Note_off_c, 2, 77, 64
1, 35683, Note_off_c, 2, 80, 64
1, 35683, Note_off_c, 2, 75, 64
1, 35706, Note_off_c, 2, 41, 64
1, 35707, Note_on_c, 11, 77, 64
1, 35709, Note_on_c, 1, 34, 94
1, 35710, Note_on_c, 2, 46, 74
1, 35711, Pitch_bend_c, 3, 489
1, 35712, Note_on_c, 3, 70, 103
1, 35712, Note_on_c, 9, 36, 94
1, 35712, Note_on_c, 9, 42, 94
1, 35712, Note_on_c, 9, 56, 72
1, 35713, Note_on_c, 2, 77, 94
1, 35713, Note_on_c, 2, 80, 94
1, 35714, Note_on_c, 2, 74, 94
1, 35714, Note_on_c, 2, 82, 94
1, 35715, Note_off_c, 9, 56, 64
1, 35715, Note_off_c, 9, 42, 64
1, 35715, Note_off_c, 9, 36, 64
1, 35716, Pitch_bend_c, 3, 1772
1, 35719, Note_off_c, 2, 82, 64
1, 35720, Pitch_bend_c, 3, 3056
1, 35722, Note_off_c, 2, 74, 64
1, 35723, Note_off_c, 2, 80, 64
1, 35724, Pitch_bend_c, 3, 4340
1, 35726, Note_off_c, 2, 77, 64
1, 35728, Pitch_bend_c, 3, 5624
1, 35732, Pitch_bend_c, 3, 6907
1, 35736, Pitch_bend_c, 3, 8192
1, 35738, Control_c, 5, 1, 8
1, 35739, Pitch_bend_c, 10, 489
1, 35740, Note_on_c, 10, 70, 109
1, 35742, Control_c, 5, 1, 16
1, 35744, Pitch_bend_c, 10, 1772
1, 35747, Control_c, 5, 1, 23
1, 35748, Pitch_bend_c, 10, 3056
1, 35751, Control_c, 5, 1, 36
1, 35752, Pitch_bend_c, 10, 4340
1, 35756, Pitch_bend_c, 10, 5624
1, 35760, Note_on_c, 2, 80, 94
1, 35760, Note_on_c, 9, 44, 73
1, 35760, Pitch_bend_c, 10, 6907
1, 35761, Note_on_c, 2, 77, 94
1, 35761, Note_on_c, 2, 74, 94
1, 35761, Control_c, 5, 1, 41
1, 35762, Note_on_c, 2, 82, 96
1, 35762, Note_on_c, 4, 46, 94
1, 35763, Note_off_c, 9, 44, 64
1, 35764, Pitch_bend_c, 10, 8192
1, 35765, Control_c, 5, 1, 45
1, 35766, Note_off_c, 2, 82, 64
1, 35767, Note_off_c, 2, 80, 64
1, 35767, Note_off_c, 2, 74, 64
1, 35769, Note_off_c, 2, 77, 64
1, 35769, Control_c, 5, 1, 49
1, 35770, Note_off_c, 4, 46, 64
1, 35775, Control_c, 5, 1, 53
1, 35779, Control_c, 5, 1, 55
1, 35783, Control_c, 5, 1, 57
1, 35789, Control_c, 5, 1, 58
1, 35793, Control_c, 5, 1, 60
1, 35799, Control_c, 5, 1, 61
1, 35801, Control_c, 5, 1, 63
1, 35807, Note_on_c, 2, 80, 105
1, 35807, Note_on_c, 9, 42, 94
1, 35808, Note_on_c, 2, 82, 105
1, 35808, Note_on_c, 2, 74, 105
1, 35809, Note_on_c, 2, 77, 105
1, 35809, Control_c, 5, 1, 64
1, 35809, Note_on_c, 9, 40, 94
1, 35810, Note_off_c, 9, 42, 64
1, 35812, Note_off_c, 9, 40, 64
1, 35814, Pitch_bend_c, 5, 6912
1, 35816, Note_off_c, 2, 74, 64
1, 35817, Note_off_c, 2, 80, 64
1, 35817, Note_off_c, 2, 77, 64
1, 35817, Pitch_bend_c, 5, 3840
1, 35818, Note_off_c, 2, 82, 64
1, 35824, Pitch_bend_c, 3, 7424
1, 35824, Pitch_bend_c, 5, 1408
1, 35824, Control_c, 5, 1, 62
1, 35828, Control_c, 5, 1, 58
1, 35828, Pitch_bend_c, 5, 0
1, 35829, Pitch_bend_c, 3, 6912
1, 35831, Pitch_bend_c, 3, 5760
1, 35834, Control_c, 5, 1, 46
1, 35838, Pitch_bend_c, 3, 3840
1, 35842, Control_c, 5, 1, 38
1, 35843, Note_off_c, 5, 58, 64
1, 35845, Pitch_bend_c, 3, 512
1, 35846, Note_off_c, 3, 70, 64
1, 35852, Note_on_c, 4, 46, 94
1, 35853, Pitch_bend_c, 10, 7424
1, 35855, Note_on_c, 2, 77, 79
1, 35856, Note_on_c, 2, 74, 79
1, 35856, Note_on_c, 9, 44, 73
1, 35857, Note_on_c, 2, 80, 79
1, 35857, Note_on_c, 2, 82, 79
1, 35857, Pitch_bend_c, 10, 6912
1, 35859, Note_off_c, 9, 44, 64
1, 35859, Pitch_bend_c, 10, 6528
1, 35860, Note_off_c, 4, 46, 64
1, 35862, Note_off_c, 2, 82, 64
1, 35863, Note_off_c, 2, 80, 64
1, 35863, Pitch_bend_c, 10, 5760
1, 35864, Note_off_c, 2, 74, 64
1, 35866, Note_off_c, 1, 34, 64
1, 35866, Note_off_c, 2, 77, 64
1, 35866, Pitch_bend_c, 10, 4864
1, 35870, Pitch_bend_c, 10, 3840
1, 35873, Pitch_bend_c, 10, 2560
1, 35877, Pitch_bend_c, 10, 512
1, 35877, Note_off_c, 11, 77, 64
1, 35903, Note_on_c, 9, 56, 72
1, 35903, Note_off_c, 10, 70, 64
1, 35904, Note_on_c, 2, 74, 88
1, 35904, Note_on_c, 2, 77, 88
1, 35904, Note_on_c, 9, 36, 94
1, 35905, Note_on_c, 2, 80, 88
1, 35906, Note_on_c, 2, 82, 88
1, 35906, Pitch_bend_c, 5, 8192
1, 35906, Note_off_c, 9, 56, 64
1, 35906, Note_on_c, 9, 42, 94
1, 35907, Note_off_c, 9, 36, 64
1, 35908, Pitch_bend_c, 10, 8192
1, 35909, Note_off_c, 9, 42, 64
1, 35910, Note_on_c, 1, 34, 94
1, 35911, Note_off_c, 2, 80, 64
1, 35912, Note_off_c, 2, 77, 64
1, 35912, Note_off_c, 2, 74, 64
1, 35913, Note_off_c, 2, 82, 64
1, 35924, Note_off_c, 1, 34, 64
1, 35947, Note_on_c, 4, 46, 94
1, 35950, Note_on_c, 2, 77, 94
1, 35951, Note_on_c, 2, 74, 94
1, 35951, Note_on_c, 2, 80, 94
1, 35952, Note_on_c, 1, 34, 94
1, 35952, Note_on_c, 2, 82, 94
1, 35953, Note_on_c, 9, 44, 73
1, 35955, Note_off_c, 4, 46, 64
1, 35956, Note_off_c, 2, 82, 64
1, 35956, Note_off_c, 2, 80, 64
1, 35956, Note_off_c, 9, 44, 64
1, 35959, Note_off_c, 2, 74, 64
1, 35959, Note_off_c, 2, 77, 64
1, 35975, Note_off_c, 1, 34, 64
1, 35999, Note_on_c, 2, 74, 94
1, 35999, Note_on_c, 2, 77, 94
1, 36000, Note_on_c, 1, 33, 94
1, 36000, Note_on_c, 2, 80, 94
1, 36001, Note_on_c, 2, 82, 94
1, 36001, Note_on_c, 9, 42, 94
1, 36001, Note_on_c, 9, 40, 94
1, 36004, Note_off_c, 9, 40, 64
1, 36004, Note_off_c, 9, 42, 64
1, 36007, Note_off_c, 2, 82, 64
1, 36007, Note_off_c, 2, 80, 64
1, 36009, Note_off_c, 2, 77, 64
1, 36010, Note_off_c, 2, 74, 64
1, 36023, Note_off_c, 1, 33, 64
1, 36047, Note_on_c, 2, 77, 94
1, 36047, Note_on_c, 2, 80, 94
1, 36048, Note_on_c, 2, 74, 94
1, 36048, Note_on_c, 4, 46, 94
1, 36049, Note_on_c, 1, 31, 94
1, 36049, Note_on_c, 2, 82, 94
1, 36050, Note_on_c, 9, 44, 73
1, 36053, Note_off_c, 9, 44, 64
1, 36056, Note_off_c, 4, 46, 64
1, 36058, Note_off_c, 2, 74, 64
1, 36059, Note_off_c, 2, 82, 64
1, 36060, Note_off_c, 2, 80, 64
1, 36062, Note_off_c, 2, 77, 64
1, 36072, Note_off_c, 1, 31, 64
1, 36089, Note_on_c, 11, 75, 64
1, 36092, Note_off_c, 2, 46, 64
1, 36093, Pitch_bend_c, 3, 8192
1, 36094, Note_on_c, 3, 68, 103
1, 36096, Note_on_c, 2, 41, 74
1, 36096, Note_on_c, 2, 75, 94
1, 36096, Note_on_c, 9, 36, 94
1, 36096, Note_on_c, 9, 42, 94
1, 36096, Note_on_c, 9, 56, 72
1, 36097, Note_on_c, 1, 29, 94
1, 36097, Note_on_c, 2, 80, 94
1, 36098, Note_on_c, 2, 82, 88
1, 36099, Note_off_c, 9, 56, 64
1, 36099, Note_off_c, 9, 42, 64
1, 36099, Note_off_c, 9, 36, 64
1, 36102, Note_off_c, 2, 82, 64
1, 36105, Note_off_c, 2, 80, 64
1, 36107, Note_off_c, 11, 75, 64
1, 36108, Note_off_c, 2, 75, 64
1, 36122, Note_on_c, 10, 68, 109
1, 36139, Note_on_c, 11, 77, 64
1, 36141, Note_on_c, 2, 75, 79
1, 36142, Note_on_c, 2, 80, 79
1, 36144, Note_on_c, 3, 70, 94
1, 36144, Note_on_c, 9, 44, 73
1, 36146, Note_off_c, 2, 80, 64
1, 36146, Note_on_c, 4, 46, 94
1, 36147, Note_off_c, 3, 68, 64
1, 36147, Note_off_c, 9, 44, 64
1, 36149, Note_off_c, 2, 75, 64
1, 36154, Note_off_c, 4, 46, 64
1, 36172, Note_on_c, 10, 70, 100
1, 36189, Note_on_c, 2, 75, 88
1, 36190, Note_on_c, 2, 80, 88
1, 36191, Note_on_c, 2, 82, 88
1, 36191, Note_on_c, 9, 42, 94
1, 36192, Note_on_c, 2, 77, 88
1, 36192, Note_off_c, 11, 77, 64
1, 36193, Note_off_c, 2, 77, 64
1, 36193, Note_on_c, 9, 40, 94
1, 36194, Note_off_c, 9, 42, 64
1, 36195, Note_off_c, 2, 82, 64
1, 36196, Note_off_c, 9, 40, 64
1, 36200, Note_off_c, 2, 80, 64
1, 36203, Note_off_c, 2, 75, 64
1, 36204, Note_off_c, 10, 68, 64
1, 36236, Note_on_c, 3, 72, 111
1, 36236, Note_on_c, 4, 46, 94
1, 36237, Note_on_c, 2, 80, 105
1, 36238, Note_on_c, 2, 75, 105
1, 36238, Note_on_c, 2, 82, 105
1, 36238, Note_off_c, 3, 70, 64
1, 36239, Note_on_c, 2, 77, 105
1, 36240, Note_on_c, 9, 44, 73
1, 36241, Note_on_c, 11, 79, 64
1, 36243, Note_off_c, 2, 77, 64
1, 36243, Note_off_c, 9, 44, 64
1, 36244, Note_off_c, 4, 46, 64
1, 36246, Note_off_c, 1, 29, 64
1, 36246, Note_off_c, 2, 82, 64
1, 36248, Note_off_c, 2, 75, 64
1, 36250, Note_off_c, 2, 80, 64
1, 36265, Note_on_c, 10, 72, 117
1, 36267, Note_on_c, 1, 29, 94
1, 36274, Note_off_c, 1, 29, 64
1, 36275, Pitch_bend_c, 3, 8314
1, 36276, Pitch_bend_c, 3, 9047
1, 36281, Pitch_bend_c, 3, 9781
1, 36283, Pitch_bend_c, 3, 10025
1, 36284, Control_c, 5, 1, 0
1, 36284, Control_c, 6, 1, 0
1, 36285, Note_on_c, 5, 65, 94
1, 36285, Note_on_c, 6, 65, 94
1, 36286, Note_on_c, 2, 75, 71
1, 36286, Pitch_bend_c, 3, 11981
1, 36287, Note_on_c, 2, 80, 70
1, 36287, Note_on_c, 2, 77, 70
1, 36287, Note_on_c, 9, 56, 72
1, 36288, Note_on_c, 2, 82, 79
1, 36288, Note_on_c, 9, 36, 94
1, 36290, Pitch_bend_c, 3, 12960
1, 36290, Note_off_c, 9, 56, 64
1, 36290, Note_on_c, 9, 42, 94
1, 36291, Note_off_c, 2, 77, 64
1, 36291, Note_off_c, 3, 72, 64
1, 36291, Note_off_c, 9, 36, 64
1, 36293, Note_on_c, 1, 29, 94
1, 36293, Note_off_c, 2, 82, 64
1, 36293, Note_off_c, 9, 42, 64
1, 36295, Note_off_c, 2, 80, 64
1, 36295, Note_off_c, 2, 75, 64
1, 36295, Note_off_c, 10, 70, 64
1, 36303, Pitch_bend_c, 10, 8314
1, 36304, Pitch_bend_c, 10, 9047
1, 36309, Note_off_c, 1, 29, 64
1, 36309, Pitch_bend_c, 10, 9781
1, 36311, Pitch_bend_c, 10, 10025
1, 36314, Pitch_bend_c, 10, 11981
1, 36318, Pitch_bend_c, 10, 12960
1, 36321, Pitch_bend_c, 10, 13696
1, 36324, Pitch_bend_c, 10, 14464
1, 36329, Pitch_bend_c, 10, 14976
1, 36330, Note_off_c, 11, 79, 64
1, 36331, Note_on_c, 4, 46, 94
1, 36333, Pitch_bend_c, 5, 8842
1, 36333, Pitch_bend_c, 6, 8842
1, 36334, Note_on_c, 1, 29, 94
1, 36334, Note_on_c, 2, 75, 79
1, 36334, Note_on_c, 2, 80, 79
1, 36335, Note_on_c, 2, 82, 88
1, 36336, Pitch_bend_c, 5, 10792
1, 36336, Pitch_bend_c, 6, 10792
1, 36336, Pitch_bend_c, 10, 14720
1, 36337, Note_off_c, 2, 82, 64
1, 36337, Note_on_c, 9, 44, 73
1, 36339, Note_off_c, 4, 46, 64
1, 36340, Note_off_c, 2, 80, 64
1, 36340, Note_off_c, 9, 44, 64
1, 36340, Pitch_bend_c, 10, 14080
1, 36341, Note_off_c, 2, 75, 64
1, 36342, Pitch_bend_c, 5, 13912
1, 36342, Pitch_bend_c, 6, 13912
1, 36343, Pitch_bend_c, 10, 13184
1, 36344, Pitch_bend_c, 10, 11136
1, 36348, Note_off_c, 10, 72, 64
1, 36350, Pitch_bend_c, 5, 16382
1, 36350, Pitch_bend_c, 6, 16382
1, 36365, Note_off_c, 1, 29, 64
1, 36382, Note_on_c, 2, 75, 94
1, 36383, Note_on_c, 1, 31, 94
1, 36383, Note_on_c, 2, 77, 94
1, 36383, Note_on_c, 2, 80, 94
1, 36384, Note_on_c, 2, 82, 94
1, 36384, Pitch_bend_c, 5, 9882
1, 36384, Pitch_bend_c, 6, 9882
1, 36385, Note_on_c, 9, 42, 94
1, 36385, Note_on_c, 9, 40, 94
1, 36387, Pitch_bend_c, 10, 8192
1, 36388, Note_off_c, 2, 82, 64
1, 36388, Note_off_c, 9, 40, 64
1, 36388, Note_off_c, 9, 42, 64
1, 36390, Note_off_c, 2, 80, 64
1, 36391, Pitch_bend_c, 5, 8192
1, 36391, Pitch_bend_c, 6, 8192
1, 36392, Note_off_c, 2, 77, 64
1, 36393, Note_off_c, 2, 75, 64
1, 36414, Note_off_c, 1, 31, 64
1, 36421, Pitch_bend_c, 5, 8582
1, 36421, Pitch_bend_c, 6, 8582
1, 36423, Pitch_bend_c, 5, 10012
1, 36423, Pitch_bend_c, 6, 10012
1, 36427, Pitch_bend_c, 5, 11962
1, 36427, Pitch_bend_c, 6, 11962
1, 36430, Note_on_c, 1, 33, 94
1, 36430, Pitch_bend_c, 5, 13132
1, 36430, Pitch_bend_c, 6, 13132
1, 36431, Note_on_c, 2, 75, 94
1, 36431, Note_on_c, 2, 77, 94
1, 36432, Note_on_c, 2, 80, 94
1, 36432, Note_on_c, 2, 82, 94
1, 36432, Note_on_c, 4, 46, 94
1, 36433, Pitch_bend_c, 5, 16382
1, 36433, Pitch_bend_c, 6, 16382
1, 36434, Note_on_c, 9, 44, 73
1, 36437, Note_off_c, 9, 44, 64
1, 36440, Note_off_c, 4, 46, 64
1, 36449, Note_off_c, 2, 82, 64
1, 36451, Note_off_c, 2, 77, 64
1, 36451, Note_off_c, 2, 80, 64
1, 36451, Note_off_c, 2, 75, 64
1, 36453, Note_off_c, 1, 33, 64
1, 36472, Note_off_c, 2, 41, 64
1, 36474, Note_on_c, 2, 46, 74
1, 36479, Note_on_c, 1, 34, 94
1, 36479, Pitch_bend_c, 3, 489
1, 36479, Note_on_c, 11, 77, 64
1, 36480, Note_on_c, 3, 70, 103
1, 36480, Note_on_c, 9, 36, 94
1, 36480, Note_on_c, 9, 42, 94
1, 36480, Note_on_c, 9, 56, 72
1, 36481, Note_on_c, 2, 77, 94
1, 36481, Note_on_c, 2, 80, 94
1, 36482, Note_on_c, 2, 74, 94
1, 36482, Note_on_c, 2, 82, 94
1, 36483, Note_off_c, 9, 56, 64
1, 36483, Note_off_c, 9, 42, 64
1, 36483, Note_off_c, 9, 36, 64
1, 36484, Pitch_bend_c, 3, 1772
1, 36487, Note_off_c, 2, 82, 64
1, 36488, Pitch_bend_c, 3, 3056
1, 36490, Note_off_c, 2, 74, 64
1, 36491, Note_off_c, 2, 80, 64
1, 36492, Pitch_bend_c, 3, 4340
1, 36492, Control_c, 5, 1, 2
1, 36492, Control_c, 6, 1, 2
1, 36494, Note_off_c, 2, 77, 64
1, 36494, Control_c, 5, 1, 11
1, 36494, Control_c, 6, 1, 11
1, 36496, Pitch_bend_c, 3, 5624
1, 36498, Control_c, 5, 1, 20
1, 36498, Control_c, 6, 1, 20
1, 36500, Pitch_bend_c, 3, 6907
1, 36504, Pitch_bend_c, 3, 8192
1, 36504, Control_c, 5, 1, 26
1, 36504, Control_c, 6, 1, 26
1, 36508, Control_c, 5, 1, 32
1, 36508, Control_c, 6, 1, 32
1, 36508, Pitch_bend_c, 10, 489
1, 36508, Note_on_c, 10, 70, 109
1, 36512, Control_c, 5, 1, 38
1, 36512, Control_c, 6, 1, 38
1, 36512, Pitch_bend_c, 10, 1772
1, 36516, Control_c, 5, 1, 45
1, 36516, Control_c, 6, 1, 45
1, 36516, Pitch_bend_c, 10, 3056
1, 36520, Pitch_bend_c, 10, 4340
1, 36522, Control_c, 5, 1, 50
1, 36522, Control_c, 6, 1, 50
1, 36524, Pitch_bend_c, 10, 5624
1, 36525, Control_c, 5, 1, 61
1, 36525, Control_c, 6, 1, 61
1, 36528, Note_on_c, 2, 80, 94
1, 36528, Note_on_c, 9, 44, 73
1, 36528, Pitch_bend_c, 10, 6907
1, 36529, Note_on_c, 2, 77, 94
1, 36529, Note_on_c, 2, 74, 94
1, 36530, Note_on_c, 2, 82, 96
1, 36530, Note_on_c, 4, 46, 94
1, 36531, Note_off_c, 9, 44, 64
1, 36532, Pitch_bend_c, 10, 8192
1, 36534, Note_off_c, 2, 82, 64
1, 36535, Note_off_c, 2, 80, 64
1, 36535, Note_off_c, 2, 74, 64
1, 36535, Control_c, 5, 1, 64
1, 36535, Control_c, 6, 1, 64
1, 36537, Note_off_c, 2, 77, 64
1, 36538, Note_off_c, 4, 46, 64
1, 36539, Control_c, 5, 1, 69
1, 36539, Control_c, 6, 1, 69
1, 36545, Control_c, 5, 1, 75
1, 36545, Control_c, 6, 1, 75
1, 36553, Control_c, 5, 1, 76
1, 36553, Control_c, 6, 1, 76
1, 36557, Control_c, 5, 1, 78
1, 36557, Control_c, 6, 1, 78
1, 36561, Control_c, 5, 1, 81
1, 36561, Control_c, 6, 1, 81
1, 36569, Control_c, 5, 1, 82
1, 36569, Control_c, 6, 1, 82
1, 36573, Control_c, 5, 1, 83
1, 36573, Control_c, 6, 1, 83
1, 36575, Note_on_c, 2, 80, 105
1, 36575, Note_on_c, 9, 42, 94
1, 36576, Note_on_c, 2, 82, 105
1, 36576, Note_on_c, 2, 74, 105
1, 36577, Note_on_c, 2, 77, 105
1, 36577, Note_on_c, 9, 40, 94
1, 36578, Note_off_c, 9, 42, 64
1, 36580, Note_off_c, 9, 40, 64
1, 36581, Control_c, 5, 1, 84
1, 36581, Control_c, 6, 1, 84
1, 36584, Note_off_c, 2, 74, 64
1, 36585, Note_off_c, 2, 80, 64
1, 36585, Note_off_c, 2, 77, 64
1, 36586, Note_off_c, 2, 82, 64
1, 36604, Control_c, 5, 1, 85
1, 36604, Control_c, 6, 1, 85
1, 36607, Control_c, 5, 1, 87
1, 36614, Note_off_c, 3, 70, 64
1, 36614, Control_c, 5, 1, 88
1, 36616, Control_c, 5, 1, 89
1, 36616, Note_off_c, 11, 77, 64
1, 36620, Note_on_c, 4, 46, 94
1, 36620, Control_c, 5, 1, 90
1, 36621, Pitch_bend_c, 10, 7680
1, 36623, Note_on_c, 2, 77, 79
1, 36623, Pitch_bend_c, 10, 7168
1, 36624, Note_on_c, 2, 74, 79
1, 36624, Note_on_c, 9, 44, 73
1, 36625, Note_on_c, 2, 80, 79
1, 36625, Note_on_c, 2, 82, 79
1, 36626, Control_c, 5, 1, 91
1, 36626, Pitch_bend_c, 10, 6528
1, 36627, Note_off_c, 9, 44, 64
1, 36628, Note_off_c, 4, 46, 64
1, 36630, Note_off_c, 1, 34, 64
1, 36630, Note_off_c, 2, 82, 64
1, 36631, Note_off_c, 2, 80, 64
1, 36631, Pitch_bend_c, 10, 6144
1, 36632, Note_off_c, 2, 74, 64
1, 36633, Pitch_bend_c, 10, 5248
1, 36634, Note_off_c, 2, 77, 64
1, 36637, Pitch_bend_c, 10, 4224
1, 36640, Pitch_bend_c, 10, 3072
1, 36644, Pitch_bend_c, 10, 1024
1, 36649, Control_c, 5, 1, 92
1, 36651, Note_on_c, 1, 34, 72
1, 36655, Control_c, 5, 1, 93
1, 36658, Note_off_c, 1, 34, 64
1, 36661, Control_c, 5, 1, 95
1, 36661, Control_c, 6, 1, 95
1, 36671, Note_on_c, 9, 56, 72
1, 36671, Note_off_c, 10, 70, 64
1, 36672, Note_on_c, 2, 74, 88
1, 36672, Note_on_c, 2, 77, 88
1, 36672, Note_on_c, 9, 36, 94
1, 36673, Note_on_c, 2, 80, 88
1, 36674, Note_on_c, 2, 82, 88
1, 36674, Note_off_c, 9, 56, 64
1, 36674, Note_on_c, 9, 42, 94
1, 36675, Note_off_c, 9, 36, 64
1, 36677, Note_off_c, 9, 42, 64
1, 36679, Note_off_c, 2, 80, 64
1, 36680, Note_on_c, 1, 34, 94
1, 36680, Note_off_c, 2, 77, 64
1, 36680, Note_off_c, 2, 74, 64
1, 36681, Note_off_c, 2, 82, 64
1, 36681, Pitch_bend_c, 10, 8192
1, 36696, Note_off_c, 1, 34, 64
1, 36715, Note_on_c, 4, 46, 94
1, 36718, Note_on_c, 2, 77, 94
1, 36719, Note_on_c, 2, 74, 94
1, 36719, Note_on_c, 2, 80, 94
1, 36720, Note_on_c, 2, 82, 94
1, 36721, Note_on_c, 1, 34, 94
1, 36721, Note_on_c, 9, 44, 73
1, 36723, Note_off_c, 4, 46, 64
1, 36724, Note_off_c, 2, 82, 64
1, 36724, Note_off_c, 2, 80, 64
1, 36724, Note_off_c, 9, 44, 64
1, 36727, Note_off_c, 2, 74, 64
1, 36727, Note_off_c, 2, 77, 64
1, 36738, Pitch_bend_c, 5, 16122
1, 36738, Pitch_bend_c, 6, 16122
1, 36741, Pitch_bend_c, 5, 15082
1, 36741, Pitch_bend_c, 6, 15082
1, 36744, Note_off_c, 1, 34, 64
1, 36748, Pitch_bend_c, 5, 14172
1, 36748, Pitch_bend_c, 6, 14172
1, 36752, Pitch_bend_c, 5, 13262
1, 36752, Pitch_bend_c, 6, 13262
1, 36756, Pitch_bend_c, 5, 12222
1, 36756, Pitch_bend_c, 6, 12222
1, 36760, Pitch_bend_c, 5, 11832
1, 36760, Pitch_bend_c, 6, 11832
1, 36762, Pitch_bend_c, 5, 10532
1, 36762, Pitch_bend_c, 6, 10532
1, 36763, Note_on_c, 3, 70, 97
1, 36764, Note_off_c, 5, 65, 64
1, 36764, Note_off_c, 6, 65, 64
1, 36767, Note_on_c, 1, 33, 94
1, 36767, Note_on_c, 2, 74, 94
1, 36767, Note_on_c, 2, 77, 94
1, 36768, Note_on_c, 2, 80, 94
1, 36769, Note_on_c, 2, 82, 94
1, 36769, Note_on_c, 9, 42, 94
1, 36769, Note_on_c, 9, 40, 94
1, 36772, Note_off_c, 9, 40, 64
1, 36772, Note_off_c, 9, 42, 64
1, 36775, Note_off_c, 2, 82, 64
1, 36775, Note_off_c, 2, 80, 64
1, 36777, Note_off_c, 2, 77, 64
1, 36778, Note_off_c, 2, 74, 64
1, 36792, Note_off_c, 3, 70, 64
1, 36798, Note_off_c, 1, 33, 64
1, 36815, Note_on_c, 2, 77, 94
1, 36815, Note_on_c, 2, 80, 94
1, 36816, Note_on_c, 1, 31, 94
1, 36816, Note_on_c, 2, 74, 94
1, 36816, Note_on_c, 4, 46, 94
1, 36817, Note_on_c, 2, 82, 94
1, 36818, Note_on_c, 3, 73, 100
1, 36818, Note_on_c, 9, 44, 73
1, 36821, Note_off_c, 9, 44, 64
1, 36824, Note_off_c, 4, 46, 64
1, 36826, Note_off_c, 2, 74, 64
1, 36827, Note_off_c, 2, 82, 64
1, 36828, Note_off_c, 2, 80, 64
1, 36830, Note_off_c, 2, 77, 64
1, 36836, Note_off_c, 3, 73, 64
1, 36839, Note_off_c, 1, 31, 64
1, 36859, Note_on_c, 11, 75, 64
1, 36862, Note_on_c, 1, 29, 94
1, 36862, Note_off_c, 2, 46, 64
1, 36863, Note_on_c, 3, 72, 103
1, 36864, Note_on_c, 2, 75, 94
1, 36864, Note_on_c, 9, 36, 94
1, 36864, Note_on_c, 9, 42, 94
1, 36864, Note_on_c, 9, 56, 72
1, 36865, Note_on_c, 2, 80, 94
1, 36865, Note_on_c, 2, 41, 74
1, 36866, Note_on_c, 2, 82, 88
1, 36867, Note_off_c, 9, 56, 64
1, 36867, Note_off_c, 9, 42, 64
1, 36867, Note_off_c, 9, 36, 64
1, 36870, Note_off_c, 2, 82, 64
1, 36873, Note_off_c, 2, 80, 64
1, 36876, Note_off_c, 2, 75, 64
1, 36879, Note_off_c, 11, 75, 64
1, 36892, Note_on_c, 10, 68, 109
1, 36907, Note_on_c, 11, 77, 64
1, 36909, Note_on_c, 2, 75, 79
1, 36910, Note_on_c, 2, 80, 79
1, 36912, Note_on_c, 3, 70, 94
1, 36912, Note_on_c, 9, 44, 73
1, 36914, Note_off_c, 2, 80, 64
1, 36914, Note_on_c, 4, 46, 94
1, 36915, Note_off_c, 9, 44, 64
1, 36916, Note_off_c, 3, 72, 64
1, 36917, Note_off_c, 2, 75, 64
1, 36922, Note_off_c, 4, 46, 64
1, 36940, Note_on_c, 10, 70, 100
1, 36945, Note_off_c, 11, 77, 64
1, 36957, Note_on_c, 2, 75, 88
1, 36958, Note_on_c, 2, 80, 88
1, 36959, Note_on_c, 2, 82, 88
1, 36959, Note_on_c, 9, 42, 94
1, 36960, Note_on_c, 2, 77, 88
1, 36961, Note_off_c, 2, 77, 64
1, 36961, Note_on_c, 9, 40, 94
1, 36962, Note_off_c, 9, 42, 64
1, 36963, Note_off_c, 2, 82, 64
1, 36964, Note_off_c, 9, 40, 64
1, 36968, Note_off_c, 2, 80, 64
1, 36971, Note_off_c, 2, 75, 64
1, 36973, Note_off_c, 10, 68, 64
1, 36997, Note_on_c, 11, 79, 64
1, 37004, Note_on_c, 4, 46, 94
1, 37005, Note_on_c, 2, 80, 105
1, 37006, Note_on_c, 2, 75, 105
1, 37006, Note_on_c, 2, 82, 105
1, 37006, Note_off_c, 3, 70, 64
1, 37007, Note_on_c, 2, 77, 105
1, 37007, Note_on_c, 3, 72, 111
1, 37008, Note_on_c, 9, 44, 73
1, 37011, Note_off_c, 2, 77, 64
1, 37011, Note_off_c, 9, 44, 64
1, 37012, Note_off_c, 1, 29, 64
1, 37012, Note_off_c, 4, 46, 64
1, 37014, Note_off_c, 2, 82, 64
1, 37016, Note_off_c, 2, 75, 64
1, 37018, Note_off_c, 2, 80, 64
1, 37035, Note_on_c, 10, 72, 117
1, 37036, Note_on_c, 1, 29, 94
1, 37043, Note_off_c, 1, 29, 64
1, 37043, Pitch_bend_c, 3, 8803
1, 37046, Pitch_bend_c, 3, 9047
1, 37049, Pitch_bend_c, 3, 10025
1, 37054, Note_on_c, 2, 75, 71
1, 37054, Pitch_bend_c, 3, 10759
1, 37055, Note_on_c, 2, 80, 70
1, 37055, Note_on_c, 2, 77, 70
1, 37055, Note_on_c, 9, 56, 72
1, 37056, Note_on_c, 1, 29, 94
1, 37056, Note_on_c, 2, 82, 79
1, 37056, Pitch_bend_c, 3, 12471
1, 37056, Note_on_c, 9, 36, 94
1, 37057, Note_off_c, 3, 72, 64
1, 37058, Note_off_c, 9, 56, 64
1, 37058, Note_on_c, 9, 42, 94
1, 37059, Note_off_c, 2, 77, 64
1, 37059, Note_off_c, 9, 36, 64
1, 37061, Note_off_c, 2, 82, 64
1, 37061, Note_off_c, 9, 42, 64
1, 37063, Note_off_c, 2, 80, 64
1, 37063, Note_off_c, 2, 75, 64
1, 37063, Note_off_c, 10, 70, 64
1, 37065, Pitch_bend_c, 3, 8192
1, 37071, Pitch_bend_c, 10, 8803
1, 37074, Pitch_bend_c, 10, 9047
1, 37077, Pitch_bend_c, 10, 10025
1, 37082, Pitch_bend_c, 10, 10759
1, 37084, Pitch_bend_c, 10, 12471
1, 37087, Note_off_c, 11, 79, 64
1, 37088, Pitch_bend_c, 10, 12800
1, 37095, Note_off_c, 1, 29, 64
1, 37095, Pitch_bend_c, 10, 13312
1, 37099, Note_on_c, 4, 46, 94
1, 37102, Note_on_c, 2, 75, 79
1, 37102, Note_on_c, 2, 80, 79
1, 37102, Pitch_bend_c, 10, 13696
1, 37103, Note_on_c, 2, 82, 88
1, 37105, Note_on_c, 1, 29, 94
1, 37105, Note_off_c, 2, 82, 64
1, 37105, Note_on_c, 9, 44, 73
1, 37107, Note_off_c, 4, 46, 64
1, 37108, Note_off_c, 2, 80, 64
1, 37108, Note_off_c, 9, 44, 64
1, 37108, Pitch_bend_c, 10, 14336
1, 37109, Note_off_c, 2, 75, 64
1, 37112, Pitch_bend_c, 10, 14720
1, 37113, Pitch_bend_c, 10, 14848
1, 37116, Pitch_bend_c, 10, 15488
1, 37119, Note_off_c, 10, 72, 64
1, 37119, Pitch_bend_c, 10, 16000
1, 37136, Note_off_c, 1, 29, 64
1, 37150, Pitch_bend_c, 1, 0
1, 37150, Note_on_c, 2, 75, 94
1, 37151, Note_on_c, 1, 35, 94
1, 37151, Note_on_c, 2, 77, 94
1, 37151, Note_on_c, 2, 80, 94
1, 37152, Note_on_c, 2, 82, 94
1, 37153, Note_on_c, 9, 42, 94
1, 37153, Note_on_c, 9, 40, 94
1, 37156, Pitch_bend_c, 1, 4096
1, 37156, Note_off_c, 2, 82, 64
1, 37156, Note_off_c, 9, 40, 64
1, 37156, Note_off_c, 9, 42, 64
1, 37158, Note_off_c, 2, 80, 64
1, 37160, Note_off_c, 2, 77, 64
1, 37160, Pitch_bend_c, 10, 8192
1, 37161, Pitch_bend_c, 1, 8192
1, 37161, Note_off_c, 2, 75, 64
1, 37168, Pitch_bend_c, 1, 12288
1, 37175, Pitch_bend_c, 1, 16383
1, 37188, Pitch_bend_c, 1, 12288
1, 37197, Pitch_bend_c, 1, 8192
1, 37199, Note_on_c, 2, 75, 94
1, 37199, Note_on_c, 2, 77, 94
1, 37200, Note_on_c, 2, 80, 94
1, 37200, Note_on_c, 2, 82, 94
1, 37200, Note_on_c, 4, 46, 94
1, 37202, Note_on_c, 9, 44, 73
1, 37205, Pitch_bend_c, 1, 4096
1, 37205, Note_off_c, 9, 44, 64
1, 37208, Note_off_c, 4, 46, 64
1, 37212, Pitch_bend_c, 1, 0
1, 37217, Note_off_c, 2, 82, 64
1, 37219, Note_off_c, 2, 77, 64
1, 37219, Note_off_c, 2, 80, 64
1, 37219, Note_off_c, 2, 75, 64
1, 37230, Note_off_c, 1, 35, 64
1, 37235, Note_on_c, 11, 75, 64
1, 37243, Note_on_c, 2, 51, 74
1, 37244, Note_off_c, 2, 41, 64
1, 37247, Pitch_bend_c, 1, 8192
1, 37248, Note_on_c, 1, 39, 94
1, 37248, Note_on_c, 2, 73, 94
1, 37248, Note_on_c, 2, 77, 94
1, 37248, Note_on_c, 2, 79, 94
1, 37248, Note_on_c, 2, 82, 94
1, 37248, Note_on_c, 3, 70, 103
1, 37248, Note_on_c, 9, 36, 108
1, 37248, Note_on_c, 9, 57, 108
1, 37248, Note_on_c, 9, 56, 72
1, 37251, Note_off_c, 9, 56, 64
1, 37251, Note_off_c, 9, 57, 64
1, 37251, Note_off_c, 9, 36, 64
1, 37276, Note_on_c, 10, 70, 109
1, 37296, Note_on_c, 9, 44, 73
1, 37298, Note_on_c, 4, 46, 94
1, 37299, Note_off_c, 9, 44, 64
1, 37306, Note_off_c, 4, 46, 64
1, 37343, Note_on_c, 9, 42, 94
1, 37345, Note_on_c, 9, 40, 94
1, 37346, Note_off_c, 9, 42, 64
1, 37348, Note_off_c, 9, 40, 64
1, 37371, Note_off_c, 11, 75, 64
1, 37387, Pitch_bend_c, 10, 7808
1, 37388, Note_on_c, 4, 46, 94
1, 37388, Note_on_c, 11, 77, 64
1, 37389, Pitch_bend_c, 3, 0
1, 37390, Pitch_bend_c, 10, 7296
1, 37391, Note_on_c, 3, 73, 103
1, 37392, Note_off_c, 3, 70, 64
1, 37392, Note_on_c, 9, 44, 73
1, 37394, Pitch_bend_c, 10, 6528
1, 37395, Note_off_c, 9, 44, 64
1, 37396, Note_off_c, 4, 46, 64
1, 37397, Pitch_bend_c, 10, 5504
1, 37402, Pitch_bend_c, 1, 4096
1, 37402, Pitch_bend_c, 10, 4608
1, 37405, Pitch_bend_c, 10, 3840
1, 37408, Pitch_bend_c, 3, 5248
1, 37409, Pitch_bend_c, 10, 2304
1, 37412, Pitch_bend_c, 1, 0
1, 37412, Pitch_bend_c, 10, 1280
1, 37412, Note_off_c, 11, 77, 64
1, 37414, Pitch_bend_c, 3, 8192
1, 37416, Note_off_c, 10, 70, 64
1, 37417, Pitch_bend_c, 10, 0
1, 37419, Pitch_bend_c, 10, 8192
1, 37420, Note_on_c, 10, 73, 109
1, 37423, Note_off_c, 1, 39, 64
1, 37425, Pitch_bend_c, 1, 8192
1, 37426, Note_on_c, 1, 31, 94
1, 37426, Note_off_c, 2, 77, 64
1, 37427, Note_off_c, 2, 79, 64
1, 37427, Note_off_c, 2, 82, 64
1, 37428, Note_off_c, 2, 73, 64
1, 37431, Note_off_c, 2, 51, 64
1, 37432, Note_on_c, 11, 75, 64
1, 37433, Note_off_c, 1, 31, 64
1, 37435, Note_on_c, 2, 43, 74
1, 37437, Note_on_c, 2, 77, 94
1, 37438, Note_on_c, 2, 82, 94
1, 37438, Note_on_c, 3, 72, 103
1, 37439, Note_on_c, 2, 74, 94
1, 37439, Note_on_c, 9, 56, 72
1, 37440, Note_on_c, 2, 79, 94
1, 37440, Note_on_c, 9, 36, 94
1, 37440, Note_on_c, 9, 49, 94
1, 37442, Note_on_c, 1, 31, 94
1, 37442, Note_off_c, 9, 56, 64
1, 37443, Note_off_c, 3, 73, 64
1, 37443, Note_off_c, 9, 49, 64
1, 37443, Note_off_c, 9, 36, 64
1, 37460, Note_off_c, 11, 75, 64
1, 37467, Note_on_c, 10, 72, 109
1, 37481, Note_on_c, 11, 74, 64
1, 37483, Note_on_c, 4, 46, 94
1, 37484, Note_off_c, 3, 72, 64
1, 37487, Note_on_c, 3, 70, 103
1, 37489, Note_on_c, 9, 44, 73
1, 37490, Note_on_c, 2, 67, 96
1, 37491, Note_off_c, 4, 46, 64
1, 37492, Note_off_c, 9, 44, 64
1, 37500, Note_off_c, 10, 73, 64
1, 37516, Note_off_c, 2, 77, 64
1, 37516, Note_on_c, 10, 70, 109
1, 37533, Note_off_c, 2, 82, 64
1, 37537, Note_off_c, 2, 74, 64
1, 37537, Note_off_c, 2, 79, 64
1, 37537, Note_on_c, 9, 42, 94
1, 37537, Note_on_c, 9, 40, 94
1, 37540, Note_off_c, 3, 70, 64
1, 37540, Note_off_c, 9, 40, 64
1, 37540, Note_off_c, 9, 42, 64
1, 37541, Note_off_c, 10, 72, 64
1, 37544, Note_off_c, 2, 67, 64
1, 37578, Note_off_c, 11, 74, 64
1, 37580, Note_off_c, 1, 31, 64
1, 37582, Note_off_c, 2, 43, 64
1, 37582, Note_on_c, 2, 70, 96
1, 37583, Note_on_c, 2, 46, 74
1, 37584, Note_on_c, 2, 74, 96
1, 37584, Note_on_c, 2, 77, 96
1, 37584, Note_on_c, 3, 65, 103
1, 37584, Note_on_c, 4, 46, 94
1, 37584, Note_on_c, 9, 36, 94
1, 37584, Note_on_c, 9, 52, 94
1, 37584, Note_on_c, 9, 55, 94
1, 37585, Note_on_c, 1, 34, 94
1, 37587, Note_off_c, 9, 55, 64
1, 37587, Note_off_c, 9, 52, 64
1, 37587, Note_off_c, 9, 36, 64
1, 37592, Note_off_c, 4, 46, 64
1, 37597, Note_off_c, 10, 70, 64
1, 37613, Note_on_c, 10, 65, 109
1, 37632, Note_on_c, 9, 42, 94
1, 37632, Note_on_c, 9, 56, 72
1, 37635, Note_off_c, 9, 56, 64
1, 37635, Note_off_c, 9, 42, 64
1, 37667, Pitch_bend_c, 3, 7168
1, 37672, Pitch_bend_c, 3, 5120
1, 37680, Pitch_bend_c, 3, 3456
1, 37680, Note_on_c, 9, 44, 73
1, 37682, Note_on_c, 4, 50, 94
1, 37683, Note_on_c, 4, 56, 94
1, 37683, Note_off_c, 9, 44, 64
1, 37686, Pitch_bend_c, 3, 2304
1, 37690, Pitch_bend_c, 3, 1280
1, 37690, Note_off_c, 4, 50, 64
1, 37691, Note_off_c, 4, 56, 64
1, 37693, Pitch_bend_c, 3, 0
1, 37696, Pitch_bend_c, 10, 7936
1, 37697, Pitch_bend_c, 10, 7168
1, 37701, Pitch_bend_c, 10, 6272
1, 37704, Pitch_bend_c, 10, 5120
1, 37708, Pitch_bend_c, 10, 4480
1, 37711, Pitch_bend_c, 10, 3456
1, 37714, Pitch_bend_c, 10, 2304
1, 37718, Note_off_c, 3, 65, 64
1, 37718, Pitch_bend_c, 10, 1280
1, 37721, Pitch_bend_c, 10, 128
1, 37725, Pitch_bend_c, 10, 0
1, 37727, Note_on_c, 9, 42, 94
1, 37729, Note_on_c, 9, 40, 94
1, 37730, Note_off_c, 9, 42, 64
1, 37732, Note_off_c, 9, 40, 64
1, 37772, Note_on_c, 4, 50, 94
1, 37773, Note_on_c, 4, 56, 94
1, 37775, Note_off_c, 10, 65, 64
1, 37776, Note_on_c, 9, 44, 73
1, 37779, Note_off_c, 9, 44, 64
1, 37780, Note_off_c, 4, 50, 64
1, 37781, Note_off_c, 4, 56, 64
1, 37804, Pitch_bend_c, 10, 8192
1, 37823, Note_on_c, 9, 56, 72
1, 37824, Note_on_c, 9, 36, 94
1, 37826, Note_off_c, 9, 56, 64
1, 37826, Note_on_c, 9, 42, 94
1, 37827, Note_off_c, 9, 36, 64
1, 37829, Note_off_c, 9, 42, 64
1, 37835, Note_off_c, 2, 46, 64
1, 37867, Note_on_c, 4, 50, 94
1, 37868, Note_on_c, 4, 56, 94
1, 37871, Note_on_c, 2, 50, 60
1, 37872, Note_on_c, 9, 40, 83
1, 37872, Note_on_c, 9, 44, 83
1, 37874, Note_on_c, 2, 52, 61
1, 37875, Note_off_c, 2, 50, 64
1, 37875, Note_off_c, 4, 50, 64
1, 37875, Note_off_c, 9, 44, 64
1, 37875, Note_off_c, 9, 40, 64
1, 37876, Note_off_c, 4, 56, 64
1, 37878, Note_off_c, 2, 52, 64
1, 37880, Note_on_c, 2, 53, 63
1, 37884, Note_off_c, 2, 53, 64
1, 37885, Note_on_c, 2, 55, 65
1, 37889, Note_off_c, 2, 55, 64
1, 37891, Note_on_c, 2, 57, 68
1, 37895, Note_off_c, 2, 57, 64
1, 37896, Note_off_c, 1, 34, 64
1, 37896, Note_on_c, 2, 59, 70
1, 37900, Note_off_c, 2, 59, 64
1, 37901, Note_on_c, 2, 60, 72
1, 37905, Note_off_c, 2, 60, 64
1, 37905, Note_on_c, 2, 62, 73
1, 37908, Note_on_c, 2, 64, 75
1, 37909, Note_off_c, 2, 62, 64
1, 37911, Note_on_c, 2, 65, 76
1, 37912, Note_off_c, 2, 64, 64
1, 37915, Note_off_c, 2, 65, 64
1, 37916, Note_on_c, 2, 67, 78
1, 37920, Note_on_c, 1, 39, 94
1, 37920, Note_off_c, 2, 67, 64
1, 37921, Note_on_c, 9, 42, 94
1, 37921, Note_on_c, 9, 40, 94
1, 37924, Note_off_c, 9, 40, 64
1, 37924, Note_off_c, 9, 42, 64
1, 37925, Note_off_c, 2, 77, 64
1, 37926, Note_off_c, 2, 74, 64
1, 37926, Note_off_c, 2, 70, 64
1, 37929, Note_on_c, 2, 88, 83
1, 37930, Note_on_c, 2, 89, 84
1, 37933, Note_off_c, 2, 88, 64
1, 37934, Note_off_c, 2, 89, 64
1, 37935, Note_on_c, 2, 86, 86
1, 37939, Note_off_c, 2, 86, 64
1, 37940, Note_on_c, 2, 84, 88
1, 37944, Note_off_c, 2, 84, 64
1, 37945, Note_on_c, 2, 83, 93
1, 37948, Note_on_c, 2, 81, 91
1, 37949, Note_off_c, 2, 83, 64
1, 37952, Note_off_c, 2, 81, 64
1, 37952, Note_on_c, 2, 79, 89
1, 37954, Pitch_bend_c, 1, 7424
1, 37956, Pitch_bend_c, 1, 6784
1, 37956, Note_off_c, 2, 79, 64
1, 37956, Note_on_c, 2, 77, 88
1, 37960, Pitch_bend_c, 1, 5760
1, 37960, Note_off_c, 2, 77, 64
1, 37963, Pitch_bend_c, 1, 4480
1, 37963, Note_on_c, 2, 76, 84
1, 37965, Pitch_bend_c, 1, 2944
1, 37967, Note_off_c, 2, 76, 64
1, 37968, Pitch_bend_c, 1, 1152
1, 37968, Note_on_c, 4, 56, 94
1, 37968, Note_on_c, 4, 50, 94
1, 37968, Note_on_c, 9, 41, 77
1, 37968, Note_on_c, 9, 46, 77
1, 37969, Note_on_c, 2, 74, 81
1, 37970, Pitch_bend_c, 1, 256
1, 37971, Note_off_c, 9, 46, 64
1, 37971, Note_off_c, 9, 41, 64
1, 37973, Note_off_c, 2, 74, 64
1, 37975, Note_on_c, 2, 72, 79
1, 37976, Note_off_c, 4, 50, 64
1, 37976, Note_off_c, 4, 56, 64
1, 37979, Note_off_c, 2, 72, 64
1, 37982, Note_on_c, 2, 71, 75
1, 37986, Note_off_c, 2, 71, 64
1, 37988, Note_on_c, 2, 69, 73
1, 37992, Note_off_c, 2, 69, 64
1, 37994, Note_on_c, 2, 67, 70
1, 37995, Pitch_bend_c, 1, 8192
1, 37998, Note_off_c, 2, 67, 64
1, 37999, Note_off_c, 1, 39, 64
1, 38000, Note_on_c, 2, 65, 67
1, 38004, Note_off_c, 2, 65, 64
1, 38007, Note_on_c, 2, 64, 64
1, 38011, Note_off_c, 2, 64, 64
1, 38012, Note_on_c, 2, 62, 61
1, 38015, Pitch_bend_c, 3, 2934
1, 38016, Note_off_c, 2, 62, 64
1, 38016, Note_on_c, 3, 70, 103
1, 38016, Note_on_c, 9, 36, 94
1, 38016, Note_on_c, 9, 42, 94
1, 38016, Note_on_c, 9, 56, 72
1, 38016, Note_on_c, 11, 77, 64
1, 38019, Note_off_c, 9, 56, 64
1, 38019, Note_off_c, 9, 42, 64
1, 38019, Note_off_c, 9, 36, 64
1, 38020, Pitch_bend_c, 3, 3708
1, 38024, Pitch_bend_c, 3, 4482
1, 38028, Pitch_bend_c, 3, 5256
1, 38032, Pitch_bend_c, 3, 6031
1, 38036, Pitch_bend_c, 3, 8192
1, 38044, Pitch_bend_c, 10, 2934
1, 38045, Note_on_c, 10, 70, 109
1, 38048, Pitch_bend_c, 10, 3708
1, 38052, Pitch_bend_c, 10, 4482
1, 38056, Pitch_bend_c, 10, 5256
1, 38060, Pitch_bend_c, 10, 6031
1, 38064, Note_on_c, 9, 44, 73
1, 38064, Pitch_bend_c, 10, 8192
1, 38067, Note_off_c, 9, 44, 64
1, 38080, Note_off_c, 3, 70, 64
1, 38111, Note_on_c, 3, 70, 77
1, 38111, Note_on_c, 9, 42, 94
1, 38113, Note_on_c, 9, 40, 94
1, 38114, Note_off_c, 9, 42, 64
1, 38116, Note_off_c, 9, 40, 64
1, 38121, Note_off_c, 11, 77, 64
1, 38137, Note_off_c, 10, 70, 64
1, 38140, Note_on_c, 10, 70, 83
1, 38156, Note_off_c, 3, 70, 64
1, 38160, Note_on_c, 9, 44, 73
1, 38163, Note_off_c, 9, 44, 64
1, 38207, Note_on_c, 3, 70, 69
1, 38207, Note_on_c, 9, 56, 72
1, 38208, Note_on_c, 9, 36, 94
1, 38210, Note_off_c, 9, 56, 64
1, 38210, Note_on_c, 9, 42, 94
1, 38211, Note_off_c, 9, 36, 64
1, 38213, Note_off_c, 9, 42, 64
1, 38213, Note_off_c, 10, 70, 64
1, 38236, Note_on_c, 10, 70, 75
1, 38245, Note_off_c, 3, 70, 64
1, 38257, Note_on_c, 9, 44, 73
1, 38260, Note_off_c, 9, 44, 64
1, 38302, Note_on_c, 3, 70, 63
1, 38302, Note_off_c, 10, 70, 64
1, 38305, Note_on_c, 9, 42, 94
1, 38305, Note_on_c, 9, 40, 94
1, 38308, Note_off_c, 9, 40, 64
1, 38308, Note_off_c, 9, 42, 64
1, 38331, Note_on_c, 10, 70, 69
1, 38342, Note_off_c, 3, 70, 64
1, 38354, Note_on_c, 9, 44, 73
1, 38357, Note_off_c, 9, 44, 64
1, 38399, Note_on_c, 3, 70, 55
1, 38399, Note_off_c, 10, 70, 64
1, 38400, Note_on_c, 9, 36, 94
1, 38400, Note_on_c, 9, 42, 94
1, 38400, Note_on_c, 9, 56, 72
1, 38403, Note_off_c, 9, 56, 64
1, 38403, Note_off_c, 9, 42, 64
1, 38403, Note_off_c, 9, 36, 64
1, 38427, Note_on_c, 10, 70, 61
1, 38433, Note_off_c, 3, 70, 64
1, 38448, Note_on_c, 9, 44, 73
1, 38451, Note_off_c, 9, 44, 64
1, 38490, Note_off_c, 10, 70, 64
1, 38495, Note_on_c, 3, 70, 48
1, 38495, Note_on_c, 9, 42, 94
1, 38497, Note_on_c, 9, 40, 94
1, 38498, Note_off_c, 9, 42, 64
1, 38500, Note_off_c, 9, 40, 64
1, 38523, Note_off_c, 3, 70, 64
1, 38523, Note_on_c, 10, 70, 54
1, 38544, Note_on_c, 9, 44, 73
1, 38547, Note_off_c, 9, 44, 64
1, 38580, Note_off_c, 10, 70, 64
1, 38591, Note_on_c, 3, 70, 40
1, 38591, Note_on_c, 9, 56, 72
1, 38592, Note_on_c, 9, 36, 94
1, 38594, Note_off_c, 9, 56, 64
1, 38594, Note_on_c, 9, 42, 94
1, 38595, Note_off_c, 9, 36, 64
1, 38597, Note_off_c, 9, 42, 64
1, 38620, Note_on_c, 10, 70, 46
1, 38627, Note_off_c, 3, 70, 64
1, 38641, Note_on_c, 9, 44, 73
1, 38644, Note_off_c, 9, 44, 64
1, 38684, Note_off_c, 10, 70, 64
1, 38686, Pitch_bend_c, 3, 0
1, 38687, Note_on_c, 3, 65, 77
1, 38689, Note_on_c, 9, 42, 94
1, 38689, Note_on_c, 9, 40, 94
1, 38692, Note_off_c, 9, 40, 64
1, 38692, Note_off_c, 9, 42, 64
1, 38715, Pitch_bend_c, 10, 0
1, 38716, Note_on_c, 10, 65, 83
1, 38728, Pitch_bend_c, 3, 128
1, 38729, Pitch_bend_c, 3, 1536
1, 38736, Pitch_bend_c, 3, 2432
1, 38738, Note_on_c, 9, 44, 73
1, 38740, Pitch_bend_c, 3, 3328
1, 38741, Note_off_c, 9, 44, 64
1, 38743, Pitch_bend_c, 3, 5376
1, 38750, Pitch_bend_c, 3, 6272
1, 38754, Pitch_bend_c, 3, 7424
1, 38757, Pitch_bend_c, 10, 768
1, 38758, Pitch_bend_c, 3, 8192
1, 38761, Pitch_bend_c, 10, 1536
1, 38765, Pitch_bend_c, 10, 2432
1, 38769, Pitch_bend_c, 10, 3328
1, 38772, Pitch_bend_c, 10, 4224
1, 38775, Pitch_bend_c, 10, 5376
1, 38779, Pitch_bend_c, 10, 6272
1, 38781, Note_on_c, 11, 77, 64
1, 38782, Pitch_bend_c, 10, 7424
1, 38783, Note_off_c, 3, 65, 64
1, 38783, Note_on_c, 3, 70, 103
1, 38784, Note_on_c, 9, 36, 94
1, 38784, Note_on_c, 9, 42, 94
1, 38784, Note_on_c, 9, 56, 72
1, 38786, Pitch_bend_c, 10, 8192
1, 38787, Note_off_c, 9, 56, 64
1, 38787, Note_off_c, 9, 42, 64
1, 38787, Note_off_c, 9, 36, 64
1, 38811, Note_on_c, 10, 70, 109
1, 38832, Note_on_c, 9, 44, 73
1, 38835, Note_off_c, 9, 44, 64
1, 38840, Note_off_c, 10, 65, 64
1, 38848, Note_off_c, 3, 70, 64
1, 38863, Note_off_c, 11, 77, 64
1, 38879, Note_on_c, 3, 70, 75
1, 38879, Note_on_c, 9, 42, 94
1, 38881, Note_on_c, 9, 40, 94
1, 38882, Note_off_c, 9, 42, 64
1, 38884, Note_off_c, 9, 40, 64
1, 38905, Note_off_c, 10, 70, 64
1, 38908, Note_on_c, 10, 70, 81
1, 38921, Note_off_c, 3, 70, 64
1, 38928, Note_on_c, 9, 44, 73
1, 38931, Note_off_c, 9, 44, 64
1, 38975, Note_on_c, 3, 70, 68
1, 38975, Note_on_c, 9, 56, 72
1, 38976, Note_on_c, 9, 36, 94
1, 38978, Note_off_c, 9, 56, 64
1, 38978, Note_on_c, 9, 42, 94
1, 38978, Note_off_c, 10, 70, 64
1, 38979, Note_off_c, 9, 36, 64
1, 38981, Note_off_c, 9, 42, 64
1, 39003, Note_on_c, 10, 70, 74
1, 39015, Note_off_c, 3, 70, 64
1, 39025, Note_on_c, 9, 44, 73
1, 39028, Note_off_c, 9, 44, 64
1, 39071, Note_on_c, 3, 70, 61
1, 39072, Note_off_c, 10, 70, 64
1, 39073, Note_on_c, 9, 42, 94
1, 39073, Note_on_c, 9, 40, 94
1, 39076, Note_off_c, 9, 40, 64
1, 39076, Note_off_c, 9, 42, 64
1, 39100, Note_on_c, 10, 70, 67
1, 39109, Note_off_c, 3, 70, 64
1, 39122, Note_on_c, 9, 44, 73
1, 39125, Note_off_c, 9, 44, 64
1, 39166, Note_off_c, 10, 70, 64
1, 39167, Note_on_c, 3, 70, 54
1, 39168, Note_on_c, 9, 36, 94
1, 39168, Note_on_c, 9, 42, 94
1, 39168, Note_on_c, 9, 56, 72
1, 39171, Note_off_c, 9, 56, 64
1, 39171, Note_off_c, 9, 42, 64
1, 39171, Note_off_c, 9, 36, 64
1, 39196, Note_on_c, 10, 70, 60
1, 39205, Note_off_c, 3, 70, 64
1, 39216, Note_on_c, 9, 44, 73
1, 39219, Note_off_c, 9, 44, 64
1, 39262, Note_off_c, 10, 70, 64
1, 39263, Note_on_c, 3, 70, 47
1, 39263, Note_on_c, 9, 42, 94
1, 39265, Note_on_c, 9, 40, 94
1, 39266, Note_off_c, 9, 42, 64
1, 39268, Note_off_c, 9, 40, 64
1, 39291, Note_on_c, 10, 70, 53
1, 39300, Note_off_c, 3, 70, 64
1, 39312, Note_on_c, 9, 44, 73
1, 39315, Note_off_c, 9, 44, 64
1, 39356, Pitch_bend_c, 5, 8192
1, 39356, Control_c, 5, 1, 0
1, 39357, Note_on_c, 5, 84, 94
1, 39357, Note_off_c, 10, 70, 64
1, 39359, Note_on_c, 3, 70, 40
1, 39359, Pitch_bend_c, 7, 15360
1, 39359, Note_on_c, 9, 56, 72
1, 39360, Pitch_bend_c, 6, 8192
1, 39360, Control_c, 6, 1, 0
1, 39360, Note_on_c, 7, 80, 100
1, 39360, Note_on_c, 9, 36, 94
1, 39361, Note_on_c, 6, 77, 94
1, 39362, Note_off_c, 9, 56, 64
1, 39363, Note_off_c, 9, 36, 64
1, 39364, Pitch_bend_c, 7, 15872
1, 39371, Pitch_bend_c, 7, 16000
1, 39374, Pitch_bend_c, 7, 15872
1, 39377, Pitch_bend_c, 5, 8842
1, 39380, Pitch_bend_c, 7, 15744
1, 39381, Pitch_bend_c, 5, 9752
1, 39382, Note_off_c, 6, 77, 64
1, 39384, Pitch_bend_c, 5, 11182
1, 39384, Pitch_bend_c, 7, 15360
1, 39387, Pitch_bend_c, 7, 15104
1, 39387, Note_on_c, 10, 70, 46
1, 39388, Pitch_bend_c, 5, 13262
1, 39389, Pitch_bend_c, 7, 14336
1, 39392, Note_off_c, 3, 70, 64
1, 39392, Pitch_bend_c, 7, 13824
1, 39394, Pitch_bend_c, 5, 14692
1, 39396, Pitch_bend_c, 7, 12800
1, 39398, Pitch_bend_c, 5, 14952
1, 39399, Pitch_bend_c, 7, 12288
1, 39402, Pitch_bend_c, 7, 11264
1, 39406, Pitch_bend_c, 5, 14562
1, 39406, Pitch_bend_c, 7, 10624
1, 39408, Pitch_bend_c, 5, 13652
1, 39409, Pitch_bend_c, 7, 9600
1, 39412, Pitch_bend_c, 5, 12482
1, 39414, Pitch_bend_c, 7, 8192
1, 39415, Pitch_bend_c, 5, 10792
1, 39420, Pitch_bend_c, 5, 8842
1, 39422, Pitch_bend_c, 5, 8192
1, 39449, Note_off_c, 10, 70, 64
1, 39453, Note_off_c, 7, 80, 64
1, 39454, Note_off_c, 5, 84, 64
1, 39455, Note_on_c, 5, 82, 94
1, 39456, Note_on_c, 7, 77, 100
1, 39495, Note_off_c, 7, 77, 64
1, 39501, Note_off_c, 5, 82, 64
1, 39502, Note_on_c, 5, 84, 94
1, 39505, Pitch_bend_c, 7, 0
1, 39506, Note_on_c, 7, 74, 100
1, 39508, Note_on_c, 6, 75, 94
1, 39510, Pitch_bend_c, 7, 4096
1, 39511, Pitch_bend_c, 5, 8576
1, 39515, Pitch_bend_c, 7, 8192
1, 39520, Pitch_bend_c, 5, 8960
1, 39532, Pitch_bend_c, 7, 8576
1, 39533, Pitch_bend_c, 5, 9216
1, 39536, Pitch_bend_c, 7, 8960
1, 39539, Pitch_bend_c, 5, 9728
1, 39540, Pitch_bend_c, 7, 9856
1, 39543, Pitch_bend_c, 7, 11008
1, 39545, Pitch_bend_c, 5, 10496
1, 39547, Note_on_c, 2, 51, 74
1, 39547, Pitch_bend_c, 7, 11648
1, 39550, Pitch_bend_c, 7, 11776
1, 39550, Note_on_c, 11, 75, 64
1, 39552, Note_on_c, 1, 39, 94
1, 39552, Note_on_c, 2, 73, 94
1, 39552, Note_on_c, 2, 77, 94
1, 39552, Note_on_c, 2, 79, 94
1, 39552, Note_on_c, 2, 82, 94
1, 39552, Note_on_c, 3, 70, 103
1, 39552, Pitch_bend_c, 5, 11392
1, 39552, Note_on_c, 9, 36, 108
1, 39552, Note_on_c, 9, 57, 108
1, 39552, Note_on_c, 9, 56, 72
1, 39555, Note_off_c, 9, 56, 64
1, 39555, Note_off_c, 9, 57, 64
1, 39555, Note_off_c, 9, 36, 64
1, 39557, Pitch_bend_c, 5, 12672
1, 39557, Pitch_bend_c, 7, 12160
1, 39560, Pitch_bend_c, 5, 13824
1, 39564, Pitch_bend_c, 5, 14464
1, 39564, Pitch_bend_c, 7, 12288
1, 39568, Pitch_bend_c, 5, 14720
1, 39568, Pitch_bend_c, 7, 12544
1, 39572, Pitch_bend_c, 7, 12800
1, 39574, Pitch_bend_c, 5, 14464
1, 39576, Pitch_bend_c, 7, 12672
1, 39578, Pitch_bend_c, 5, 13184
1, 39580, Note_on_c, 10, 70, 109
1, 39582, Pitch_bend_c, 7, 12288
1, 39586, Pitch_bend_c, 7, 11648
1, 39592, Pitch_bend_c, 7, 11520
1, 39597, Note_off_c, 5, 84, 64
1, 39599, Pitch_bend_c, 5, 8192
1, 39599, Pitch_bend_c, 7, 11648
1, 39600, Note_on_c, 5, 79, 94
1, 39600, Note_on_c, 9, 44, 73
1, 39602, Note_on_c, 4, 46, 94
1, 39603, Pitch_bend_c, 7, 12288
1, 39603, Note_off_c, 9, 44, 64
1, 39606, Pitch_bend_c, 7, 12544
1, 39610, Note_off_c, 4, 46, 64
1, 39610, Pitch_bend_c, 7, 12800
1, 39621, Pitch_bend_c, 7, 12544
1, 39627, Pitch_bend_c, 7, 12288
1, 39630, Pitch_bend_c, 7, 11648
1, 39633, Pitch_bend_c, 7, 11136
1, 39634, Pitch_bend_c, 5, 8576
1, 39637, Pitch_bend_c, 5, 8832
1, 39638, Pitch_bend_c, 7, 11264
1, 39640, Pitch_bend_c, 5, 9088
1, 39643, Pitch_bend_c, 5, 8704
1, 39647, Note_on_c, 9, 42, 94
1, 39648, Pitch_bend_c, 7, 11776
1, 39649, Pitch_bend_c, 5, 8192
1, 39649, Note_on_c, 9, 40, 94
1, 39650, Note_off_c, 9, 42, 64
1, 39652, Pitch_bend_c, 5, 8576
1, 39652, Pitch_bend_c, 7, 12288
1, 39652, Note_off_c, 9, 40, 64
1, 39652, Pitch_bend_c, 10, 7936
1, 39655, Pitch_bend_c, 5, 9088
1, 39657, Pitch_bend_c, 7, 12672
1, 39657, Pitch_bend_c, 10, 7808
1, 39659, Pitch_bend_c, 5, 9216
1, 39660, Pitch_bend_c, 7, 12928
1, 39660, Pitch_bend_c, 10, 7680
1, 39662, Pitch_bend_c, 5, 8832
1, 39664, Pitch_bend_c, 7, 13056
1, 39664, Pitch_bend_c, 10, 7296
1, 39669, Pitch_bend_c, 5, 8192
1, 39669, Pitch_bend_c, 7, 12800
1, 39670, Pitch_bend_c, 10, 6912
1, 39672, Pitch_bend_c, 5, 7680
1, 39675, Pitch_bend_c, 5, 7296
1, 39675, Pitch_bend_c, 7, 12288
1, 39675, Pitch_bend_c, 10, 6528
1, 39678, Pitch_bend_c, 7, 11776
1, 39680, Pitch_bend_c, 5, 6912
1, 39680, Pitch_bend_c, 7, 11520
1, 39680, Pitch_bend_c, 10, 5888
1, 39683, Pitch_bend_c, 5, 7168
1, 39684, Note_off_c, 11, 75, 64
1, 39686, Pitch_bend_c, 10, 4864
1, 39688, Pitch_bend_c, 5, 7552
1, 39689, Note_off_c, 3, 70, 64
1, 39690, Pitch_bend_c, 7, 11392
1, 39690, Note_on_c, 11, 77, 64
1, 39691, Pitch_bend_c, 10, 4096
1, 39692, Note_on_c, 4, 46, 94
1, 39692, Pitch_bend_c, 5, 8192
1, 39693, Pitch_bend_c, 3, 0
1, 39694, Pitch_bend_c, 7, 11776
1, 39695, Note_on_c, 3, 73, 103
1, 39696, Note_on_c, 9, 44, 73
1, 39697, Pitch_bend_c, 5, 8704
1, 39698, Pitch_bend_c, 7, 12288
1, 39698, Pitch_bend_c, 10, 3072
1, 39699, Note_off_c, 9, 44, 64
1, 39700, Note_off_c, 4, 46, 64
1, 39700, Pitch_bend_c, 5, 9088
1, 39702, Pitch_bend_c, 7, 12544
1, 39704, Pitch_bend_c, 5, 9344
1, 39705, Pitch_bend_c, 10, 1664
1, 39706, Pitch_bend_c, 1, 4096
1, 39706, Pitch_bend_c, 7, 12928
1, 39707, Pitch_bend_c, 5, 9472
1, 39711, Pitch_bend_c, 5, 9600
1, 39712, Pitch_bend_c, 3, 2560
1, 39714, Pitch_bend_c, 10, 384
1, 39715, Pitch_bend_c, 5, 9344
1, 39715, Pitch_bend_c, 7, 12672
1, 39716, Pitch_bend_c, 1, 0
1, 39716, Pitch_bend_c, 3, 8192
1, 39716, Note_off_c, 10, 70, 64
1, 39718, Pitch_bend_c, 5, 8832
1, 39718, Pitch_bend_c, 7, 12288
1, 39721, Pitch_bend_c, 7, 11776
1, 39723, Pitch_bend_c, 5, 8192
1, 39723, Pitch_bend_c, 10, 8192
1, 39724, Note_on_c, 10, 73, 109
1, 39725, Pitch_bend_c, 5, 7552
1, 39727, Note_off_c, 1, 39, 64
1, 39727, Pitch_bend_c, 7, 11648
1, 39727, Note_off_c, 11, 77, 64
1, 39728, Pitch_bend_c, 5, 7168
1, 39729, Pitch_bend_c, 1, 8192
1, 39730, Note_on_c, 1, 31, 94
1, 39730, Note_off_c, 2, 77, 64
1, 39731, Note_off_c, 2, 79, 64
1, 39731, Note_off_c, 2, 82, 64
1, 39732, Note_off_c, 2, 73, 64
1, 39732, Pitch_bend_c, 5, 6784
1, 39734, Pitch_bend_c, 7, 11776
1, 39735, Note_off_c, 2, 51, 64
1, 39737, Note_off_c, 1, 31, 64
1, 39738, Pitch_bend_c, 5, 7296
1, 39739, Note_on_c, 2, 43, 74
1, 39739, Pitch_bend_c, 7, 12288
1, 39739, Note_on_c, 11, 75, 64
1, 39741, Note_on_c, 2, 77, 94
1, 39741, Pitch_bend_c, 5, 8192
1, 39742, Note_on_c, 2, 82, 94
1, 39742, Note_on_c, 3, 72, 103
1, 39742, Pitch_bend_c, 7, 12544
1, 39743, Note_on_c, 2, 74, 94
1, 39743, Note_on_c, 9, 56, 72
1, 39744, Note_on_c, 2, 79, 94
1, 39744, Pitch_bend_c, 7, 13056
1, 39744, Note_on_c, 9, 36, 94
1, 39744, Note_on_c, 9, 49, 94
1, 39745, Pitch_bend_c, 5, 8704
1, 39746, Note_on_c, 1, 31, 94
1, 39746, Note_off_c, 9, 56, 64
1, 39747, Note_off_c, 3, 73, 64
1, 39747, Pitch_bend_c, 7, 12928
1, 39747, Note_off_c, 9, 49, 64
1, 39747, Note_off_c, 9, 36, 64
1, 39748, Pitch_bend_c, 5, 9216
1, 39750, Pitch_bend_c, 7, 12800
1, 39751, Pitch_bend_c, 5, 9472
1, 39753, Pitch_bend_c, 7, 12288
1, 39756, Pitch_bend_c, 7, 11520
1, 39757, Pitch_bend_c, 5, 9216
1, 39761, Note_off_c, 6, 75, 64
1, 39763, Pitch_bend_c, 5, 8192
1, 39764, Pitch_bend_c, 5, 7296
1, 39764, Pitch_bend_c, 7, 11648
1, 39767, Pitch_bend_c, 5, 6784
1, 39768, Pitch_bend_c, 7, 12288
1, 39770, Pitch_bend_c, 5, 6656
1, 39771, Note_on_c, 10, 72, 109
1, 39772, Pitch_bend_c, 7, 12544
1, 39774, Pitch_bend_c, 5, 7040
1, 39776, Pitch_bend_c, 7, 12672
1, 39779, Pitch_bend_c, 5, 7296
1, 39780, Pitch_bend_c, 7, 12544
1, 39782, Pitch_bend_c, 5, 7680
1, 39784, Pitch_bend_c, 7, 11904
1, 39785, Note_off_c, 7, 74, 64
1, 39786, Pitch_bend_c, 5, 8192
1, 39787, Note_on_c, 4, 46, 94
1, 39787, Note_off_c, 11, 75, 64
1, 39788, Note_off_c, 3, 72, 64
1, 39789, Note_on_c, 11, 74, 64
1, 39791, Note_on_c, 3, 70, 103
1, 39793, Note_on_c, 9, 44, 73
1, 39794, Note_on_c, 2, 67, 96
1, 39795, Note_off_c, 4, 46, 64
1, 39796, Note_off_c, 9, 44, 64
1, 39799, Note_off_c, 5, 79, 64
1, 39804, Note_off_c, 10, 73, 64
1, 39820, Note_off_c, 2, 77, 64
1, 39820, Note_on_c, 10, 70, 109
1, 39827, Note_off_c, 11, 74, 64
1, 39833, Pitch_bend_c, 7, 8192
1, 39837, Note_off_c, 2, 82, 64
1, 39841, Note_off_c, 2, 74, 64
1, 39841, Note_off_c, 2, 79, 64
1, 39841, Note_on_c, 9, 42, 94
1, 39841, Note_on_c, 9, 40, 94
1, 39844, Note_off_c, 3, 70, 64
1, 39844, Note_off_c, 9, 40, 64
1, 39844, Note_off_c, 9, 42, 64
1, 39845, Note_off_c, 10, 72, 64
1, 39848, Note_off_c, 2, 67, 64
1, 39884, Note_off_c, 1, 31, 64
1, 39886, Note_off_c, 2, 43, 64
1, 39886, Note_on_c, 2, 70, 75
1, 39888, Note_on_c, 2, 74, 75
1, 39888, Note_on_c, 2, 77, 75
1, 39888, Note_on_c, 2, 89, 75
1, 39888, Note_on_c, 3, 65, 103
1, 39888, Note_on_c, 4, 46, 94
1, 39888, Note_on_c, 9, 36, 94
1, 39888, Note_on_c, 9, 52, 94
1, 39888, Note_on_c, 9, 55, 94
1, 39889, Note_on_c, 1, 34, 94
1, 39891, Note_off_c, 9, 55, 64
1, 39891, Note_off_c, 9, 52, 64
1, 39891, Note_off_c, 9, 36, 64
1, 39892, Note_off_c, 2, 89, 64
1, 39896, Note_off_c, 4, 46, 64
1, 39901, Note_off_c, 10, 70, 64
1, 39904, Note_on_c, 2, 92, 80
1, 39912, Note_off_c, 2, 92, 64
1, 39917, Note_on_c, 10, 65, 109
1, 39920, Note_on_c, 2, 89, 78
1, 39928, Note_off_c, 2, 89, 64
1, 39936, Note_on_c, 2, 92, 78
1, 39936, Note_on_c, 9, 42, 94
1, 39936, Note_on_c, 9, 56, 72
1, 39939, Note_off_c, 9, 56, 64
1, 39939, Note_off_c, 9, 42, 64
1, 39944, Note_off_c, 2, 92, 64
1, 39952, Note_on_c, 2, 89, 83
1, 39960, Note_off_c, 2, 89, 64
1, 39968, Note_on_c, 2, 92, 76
1, 39971, Pitch_bend_c, 3, 7168
1, 39976, Note_off_c, 2, 92, 64
1, 39976, Pitch_bend_c, 3, 5760
1, 39981, Note_on_c, 9, 43, 94
1, 39982, Pitch_bend_c, 3, 3456
1, 39983, Control_c, 5, 1, 0
1, 39984, Note_on_c, 2, 89, 77
1, 39984, Note_on_c, 5, 67, 74
1, 39984, Note_on_c, 5, 63, 78
1, 39984, Note_off_c, 9, 43, 64
1, 39984, Note_on_c, 9, 45, 79
1, 39986, Note_on_c, 4, 50, 94
1, 39987, Note_on_c, 4, 56, 94
1, 39987, Note_off_c, 9, 45, 64
1, 39990, Pitch_bend_c, 3, 2304
1, 39990, Pitch_bend_c, 5, 8320
1, 39992, Note_off_c, 2, 89, 64
1, 39994, Pitch_bend_c, 3, 1792
1, 39994, Note_off_c, 4, 50, 64
1, 39995, Note_off_c, 4, 56, 64
1, 39996, Pitch_bend_c, 3, 640
1, 39998, Pitch_bend_c, 5, 8448
1, 40000, Note_on_c, 2, 92, 76
1, 40000, Pitch_bend_c, 3, 0
1, 40000, Pitch_bend_c, 10, 7168
1, 40005, Pitch_bend_c, 10, 6784
1, 40007, Pitch_bend_c, 5, 8704
1, 40007, Pitch_bend_c, 10, 5760
1, 40008, Note_off_c, 2, 92, 64
1, 40010, Pitch_bend_c, 10, 4608
1, 40014, Pitch_bend_c, 10, 3456
1, 40016, Note_on_c, 2, 89, 75
1, 40018, Pitch_bend_c, 10, 2304
1, 40022, Note_off_c, 3, 65, 64
1, 40022, Pitch_bend_c, 10, 1792
1, 40023, Note_off_c, 5, 63, 64
1, 40023, Note_off_c, 5, 67, 64
1, 40024, Note_off_c, 2, 89, 64
1, 40024, Pitch_bend_c, 10, 640
1, 40028, Pitch_bend_c, 10, 0
1, 40031, Note_on_c, 9, 36, 94
1, 40031, Note_on_c, 9, 42, 94
1, 40032, Note_on_c, 2, 92, 79
1, 40032, Pitch_bend_c, 5, 8192
1, 40033, Note_on_c, 5, 61, 64
1, 40034, Note_on_c, 5, 65, 64
1, 40034, Note_off_c, 9, 42, 64
1, 40034, Note_off_c, 9, 36, 64
1, 40040, Note_off_c, 2, 92, 64
1, 40042, Pitch_bend_c, 5, 8448
1, 40046, Pitch_bend_c, 5, 8832
1, 40048, Note_on_c, 2, 89, 78
1, 40051, Pitch_bend_c, 5, 9344
1, 40054, Pitch_bend_c, 5, 9600
1, 40056, Note_off_c, 2, 89, 64
1, 40064, Note_on_c, 2, 92, 78
1, 40064, Note_off_c, 5, 61, 64
1, 40065, Note_off_c, 5, 65, 64
1, 40072, Note_off_c, 2, 92, 64
1, 40076, Note_on_c, 4, 50, 94
1, 40077, Note_on_c, 4, 56, 94
1, 40079, Pitch_bend_c, 5, 8192
1, 40079, Note_off_c, 10, 65, 64
1, 40080, Note_on_c, 2, 89, 82
1, 40080, Note_on_c, 5, 63, 77
1, 40082, Note_on_c, 5, 67, 77
1, 40083, Note_on_c, 9, 36, 94
1, 40084, Note_off_c, 4, 50, 64
1, 40085, Note_off_c, 4, 56, 64
1, 40086, Pitch_bend_c, 5, 8320
1, 40086, Note_off_c, 9, 36, 64
1, 40088, Note_off_c, 2, 89, 64
1, 40094, Pitch_bend_c, 5, 8448
1, 40100, Pitch_bend_c, 5, 8832
1, 40104, Note_off_c, 1, 34, 64
1, 40104, Note_on_c, 2, 92, 81
1, 40112, Note_off_c, 2, 92, 64
1, 40112, Note_on_c, 2, 89, 81
1, 40112, Pitch_bend_c, 10, 8192
1, 40119, Note_off_c, 5, 63, 64
1, 40120, Note_off_c, 2, 89, 64
1, 40121, Note_off_c, 5, 67, 64
1, 40127, Note_on_c, 9, 47, 94
1, 40127, Note_on_c, 9, 56, 72
1, 40128, Note_on_c, 1, 43, 77
1, 40128, Note_on_c, 2, 92, 81
1, 40128, Pitch_bend_c, 5, 8192
1, 40129, Note_on_c, 5, 61, 69
1, 40130, Note_on_c, 5, 65, 69
1, 40130, Note_off_c, 9, 56, 64
1, 40130, Note_off_c, 9, 47, 64
1, 40130, Note_on_c, 9, 42, 79
1, 40130, Note_on_c, 9, 48, 79
1, 40132, Pitch_bend_c, 5, 8448
1, 40133, Note_off_c, 9, 48, 64
1, 40133, Note_off_c, 9, 42, 64
1, 40136, Note_off_c, 2, 92, 64
1, 40136, Pitch_bend_c, 5, 9216
1, 40140, Pitch_bend_c, 5, 9856
1, 40144, Note_on_c, 2, 89, 85
1, 40144, Pitch_bend_c, 5, 10496
1, 40152, Note_off_c, 2, 89, 64
1, 40160, Note_on_c, 2, 92, 83
1, 40160, Note_off_c, 5, 61, 64
1, 40161, Note_off_c, 5, 65, 64
1, 40168, Note_off_c, 2, 92, 64
1, 40171, Note_on_c, 4, 50, 94
1, 40172, Note_on_c, 4, 56, 94
1, 40175, Note_on_c, 2, 50, 60
1, 40177, Pitch_bend_c, 5, 8192
1, 40178, Note_on_c, 2, 52, 61
1, 40178, Note_on_c, 5, 63, 73
1, 40178, Note_on_c, 9, 36, 94
1, 40179, Note_off_c, 4, 50, 64
1, 40179, Note_on_c, 5, 67, 73
1, 40180, Note_off_c, 4, 56, 64
1, 40181, Note_off_c, 9, 36, 64
1, 40182, Note_off_c, 2, 52, 64
1, 40183, Note_off_c, 2, 50, 64
1, 40184, Note_on_c, 2, 89, 69
1, 40184, Note_on_c, 2, 53, 69
1, 40184, Pitch_bend_c, 5, 8576
1, 40188, Note_off_c, 2, 53, 64
1, 40188, Note_off_c, 2, 89, 64
1, 40189, Note_on_c, 2, 55, 65
1, 40193, Note_off_c, 2, 55, 64
1, 40194, Pitch_bend_c, 5, 8960
1, 40195, Note_on_c, 2, 57, 68
1, 40199, Note_off_c, 2, 57, 64
1, 40200, Note_on_c, 2, 92, 75
1, 40200, Note_on_c, 2, 59, 75
1, 40204, Note_off_c, 2, 59, 64
1, 40204, Note_off_c, 2, 92, 64
1, 40205, Note_on_c, 2, 60, 72
1, 40209, Note_off_c, 2, 60, 64
1, 40209, Note_on_c, 2, 62, 73
1, 40212, Note_on_c, 2, 64, 75
1, 40213, Note_off_c, 2, 62, 64
1, 40215, Note_on_c, 2, 65, 76
1, 40216, Note_off_c, 2, 64, 64
1, 40217, Note_off_c, 5, 63, 64
1, 40218, Note_off_c, 5, 67, 64
1, 40219, Note_off_c, 2, 65, 64
1, 40220, Note_on_c, 2, 67, 78
1, 40223, Note_off_c, 1, 43, 64
1, 40223, Pitch_bend_c, 5, 8192
1, 40224, Note_off_c, 2, 67, 64
1, 40224, Note_on_c, 5, 61, 58
1, 40224, Note_on_c, 5, 65, 58
1, 40224, Note_on_c, 9, 40, 94
1, 40225, Note_on_c, 1, 41, 71
1, 40225, Note_on_c, 9, 42, 94
1, 40227, Note_off_c, 9, 40, 64
1, 40228, Note_off_c, 9, 42, 64
1, 40229, Note_off_c, 2, 77, 64
1, 40230, Note_off_c, 2, 74, 64
1, 40230, Note_off_c, 2, 70, 64
1, 40232, Pitch_bend_c, 5, 8576
1, 40233, Note_on_c, 2, 88, 83
1, 40234, Note_on_c, 2, 89, 84
1, 40237, Note_off_c, 2, 88, 64
1, 40238, Note_off_c, 2, 89, 64
1, 40239, Note_on_c, 2, 86, 86
1, 40239, Pitch_bend_c, 5, 8960
1, 40243, Note_off_c, 2, 86, 64
1, 40244, Note_on_c, 2, 84, 88
1, 40244, Pitch_bend_c, 5, 9856
1, 40248, Note_off_c, 2, 84, 64
1, 40249, Note_on_c, 2, 83, 93
1, 40250, Pitch_bend_c, 5, 10496
1, 40252, Note_on_c, 2, 81, 91
1, 40253, Note_off_c, 2, 83, 64
1, 40256, Note_off_c, 2, 81, 64
1, 40256, Note_on_c, 2, 79, 89
1, 40260, Note_off_c, 2, 79, 64
1, 40260, Note_on_c, 2, 77, 88
1, 40263, Note_off_c, 5, 65, 64
1, 40263, Note_off_c, 5, 61, 64
1, 40264, Note_off_c, 2, 77, 64
1, 40267, Note_on_c, 2, 76, 84
1, 40271, Note_off_c, 2, 76, 64
1, 40271, Note_on_c, 5, 63, 74
1, 40272, Note_on_c, 4, 56, 94
1, 40272, Note_on_c, 4, 50, 94
1, 40272, Pitch_bend_c, 5, 8192
1, 40272, Note_on_c, 5, 67, 75
1, 40272, Note_on_c, 9, 46, 81
1, 40273, Note_on_c, 2, 74, 81
1, 40273, Note_on_c, 5, 72, 75
1, 40275, Note_off_c, 9, 46, 64
1, 40277, Note_off_c, 2, 74, 64
1, 40279, Note_on_c, 2, 72, 79
1, 40280, Note_off_c, 4, 50, 64
1, 40280, Note_off_c, 4, 56, 64
1, 40283, Note_off_c, 2, 72, 64
1, 40286, Note_on_c, 2, 71, 75
1, 40290, Note_off_c, 2, 71, 64
1, 40292, Note_on_c, 2, 69, 73
1, 40296, Note_off_c, 2, 69, 64
1, 40298, Note_on_c, 2, 67, 70
1, 40302, Note_off_c, 2, 67, 64
1, 40304, Note_on_c, 2, 65, 67
1, 40308, Note_off_c, 2, 65, 64
1, 40310, Note_off_c, 5, 63, 64
1, 40311, Note_on_c, 2, 64, 64
1, 40311, Note_off_c, 5, 67, 64
1, 40312, Note_off_c, 5, 72, 64
1, 40315, Note_off_c, 2, 64, 64
1, 40316, Note_on_c, 2, 62, 61
1, 40317, Pitch_bend_c, 5, 0
1, 40317, Pitch_bend_c, 7, 4096
1, 40317, Note_on_c, 11, 77, 64
1, 40318, Note_on_c, 5, 65, 79
1, 40318, Note_on_c, 7, 65, 69
1, 40319, Pitch_bend_c, 3, 8192
1, 40319, Note_on_c, 5, 68, 79
1, 40319, Note_on_c, 7, 68, 70
1, 40320, Note_off_c, 1, 41, 64
1, 40320, Note_on_c, 1, 34, 94
1, 40320, Note_off_c, 2, 62, 64
1, 40320, Note_on_c, 3, 70, 103
1, 40320, Note_on_c, 9, 36, 98
1, 40320, Note_on_c, 9, 49, 98
1, 40320, Note_on_c, 9, 56, 72
1, 40323, Note_off_c, 9, 56, 64
1, 40323, Note_off_c, 9, 49, 64
1, 40323, Note_off_c, 9, 36, 64
1, 40324, Pitch_bend_c, 3, 3708
1, 40324, Pitch_bend_c, 5, 4096
1, 40328, Pitch_bend_c, 3, 4482
1, 40331, Pitch_bend_c, 5, 8192
1, 40331, Pitch_bend_c, 7, 8192
1, 40332, Pitch_bend_c, 3, 5256
1, 40336, Pitch_bend_c, 3, 6031
1, 40340, Pitch_bend_c, 3, 8192
1, 40345, Note_off_c, 5, 68, 64
1, 40345, Note_off_c, 7, 68, 64
1, 40346, Note_off_c, 5, 65, 64
1, 40346, Note_off_c, 7, 65, 64
1, 40348, Pitch_bend_c, 10, 2934
1, 40349, Note_on_c, 10, 70, 109
1, 40352, Pitch_bend_c, 10, 3708
1, 40356, Pitch_bend_c, 10, 4482
1, 40360, Pitch_bend_c, 10, 5256
1, 40364, Pitch_bend_c, 10, 6031
1, 40368, Note_on_c, 5, 68, 79
1, 40368, Note_on_c, 5, 65, 79
1, 40368, Note_on_c, 7, 68, 73
1, 40368, Note_on_c, 7, 65, 73
1, 40368, Note_on_c, 9, 44, 73
1, 40368, Pitch_bend_c, 10, 8192
1, 40370, Note_on_c, 4, 46, 94
1, 40371, Note_off_c, 9, 44, 64
1, 40378, Note_off_c, 4, 46, 64
1, 40384, Note_off_c, 3, 70, 64
1, 40391, Note_off_c, 5, 65, 64
1, 40391, Note_off_c, 5, 68, 64
1, 40391, Note_off_c, 7, 65, 64
1, 40391, Note_off_c, 7, 68, 64
1, 40415, Note_on_c, 9, 42, 94
1, 40416, Note_on_c, 5, 65, 79
1, 40416, Note_on_c, 5, 68, 79
1, 40416, Note_on_c, 7, 65, 83
1, 40416, Note_on_c, 7, 68, 83
1, 40417, Note_on_c, 9, 40, 94
1, 40418, Note_off_c, 9, 42, 64
1, 40419, Note_off_c, 11, 77, 64
1, 40420, Note_off_c, 9, 40, 64
1, 40431, Note_off_c, 1, 34, 64
1, 40439, Note_off_c, 5, 68, 64
1, 40439, Note_off_c, 5, 65, 64
1, 40439, Note_off_c, 7, 68, 64
1, 40439, Note_off_c, 7, 65, 64
1, 40441, Note_off_c, 10, 70, 64
1, 40460, Note_on_c, 4, 46, 94
1, 40464, Note_on_c, 5, 68, 79
1, 40464, Note_on_c, 5, 73, 79
1, 40464, Note_on_c, 5, 65, 79
1, 40464, Note_on_c, 7, 65, 87
1, 40464, Note_on_c, 7, 68, 87
1, 40464, Note_on_c, 9, 44, 73
1, 40467, Note_off_c, 9, 44, 64
1, 40468, Note_off_c, 4, 46, 64
1, 40479, Note_off_c, 5, 65, 64
1, 40479, Note_off_c, 5, 73, 64
1, 40479, Note_off_c, 5, 68, 64
1, 40487, Note_off_c, 7, 68, 64
1, 40487, Note_off_c, 7, 65, 64
1, 40511, Note_on_c, 9, 56, 72
1, 40512, Note_on_c, 7, 68, 100
1, 40512, Note_on_c, 7, 65, 100
1, 40512, Note_on_c, 9, 36, 94
1, 40514, Note_off_c, 9, 56, 64
1, 40514, Note_on_c, 9, 42, 94
1, 40515, Note_off_c, 9, 36, 64
1, 40517, Note_off_c, 9, 42, 64
1, 40520, Note_on_c, 1, 34, 94
1, 40533, Note_off_c, 1, 34, 64
1, 40543, Note_off_c, 7, 65, 64
1, 40543, Note_off_c, 7, 68, 64
1, 40555, Note_on_c, 4, 46, 94
1, 40560, Note_on_c, 5, 73, 79
1, 40560, Note_on_c, 5, 68, 79
1, 40560, Note_on_c, 5, 65, 79
1, 40560, Note_on_c, 7, 68, 108
1, 40560, Note_on_c, 7, 65, 108
1, 40561, Note_on_c, 1, 34, 94
1, 40561, Note_on_c, 9, 44, 73
1, 40563, Note_off_c, 4, 46, 64
1, 40564, Note_off_c, 9, 44, 64
1, 40584, Note_off_c, 1, 34, 64
1, 40591, Note_off_c, 5, 73, 64
1, 40591, Note_off_c, 7, 65, 64
1, 40591, Note_off_c, 7, 68, 64
1, 40599, Note_off_c, 5, 65, 64
1, 40599, Note_off_c, 5, 68, 64
1, 40607, Note_on_c, 7, 65, 108
1, 40609, Note_on_c, 1, 33, 94
1, 40609, Note_on_c, 7, 68, 108
1, 40609, Note_on_c, 9, 42, 94
1, 40609, Note_on_c, 9, 40, 94
1, 40612, Note_off_c, 9, 40, 64
1, 40612, Note_off_c, 9, 42, 64
1, 40632, Note_off_c, 1, 33, 64
1, 40638, Note_off_c, 7, 65, 64
1, 40640, Note_off_c, 7, 68, 64
1, 40655, Pitch_bend_c, 5, 4096
1, 40656, Note_on_c, 1, 31, 94
1, 40656, Note_on_c, 4, 46, 94
1, 40656, Note_on_c, 5, 63, 67
1, 40656, Pitch_bend_c, 7, 0
1, 40657, Note_on_c, 5, 67, 78
1, 40657, Note_on_c, 5, 72, 78
1, 40657, Note_on_c, 7, 70, 113
1, 40657, Note_on_c, 7, 67, 113
1, 40658, Note_on_c, 9, 44, 73
1, 40661, Note_off_c, 9, 44, 64
1, 40664, Note_off_c, 4, 46, 64
1, 40675, Pitch_bend_c, 5, 8192
1, 40675, Pitch_bend_c, 7, 8192
1, 40679, Note_off_c, 1, 31, 64
1, 40702, Note_on_c, 2, 41, 74
1, 40704, Note_on_c, 9, 36, 94
1, 40704, Note_on_c, 9, 42, 94
1, 40704, Note_on_c, 9, 56, 72
1, 40706, Note_on_c, 1, 29, 94
1, 40707, Note_off_c, 9, 56, 64
1, 40707, Note_off_c, 9, 42, 64
1, 40707, Note_off_c, 9, 36, 64
1, 40732, Pitch_bend_c, 5, 4096
1, 40742, Pitch_bend_c, 5, 0
1, 40744, Note_off_c, 7, 67, 64
1, 40744, Note_off_c, 7, 70, 64
1, 40749, Note_off_c, 5, 67, 64
1, 40749, Note_off_c, 5, 63, 64
1, 40750, Note_off_c, 5, 72, 64
1, 40752, Pitch_bend_c, 5, 8192
1, 40752, Note_on_c, 7, 65, 113
1, 40752, Note_on_c, 9, 44, 73
1, 40753, Note_on_c, 5, 61, 61
1, 40754, Note_on_c, 4, 46, 94
1, 40754, Note_on_c, 5, 65, 73
1, 40755, Note_on_c, 5, 70, 81
1, 40755, Note_off_c, 9, 44, 64
1, 40762, Note_off_c, 4, 46, 64
1, 40768, Note_off_c, 5, 61, 64
1, 40775, Note_off_c, 7, 65, 64
1, 40777, Note_off_c, 5, 65, 64
1, 40786, Note_off_c, 5, 70, 64
1, 40799, Note_on_c, 9, 42, 94
1, 40801, Note_on_c, 9, 40, 94
1, 40802, Note_off_c, 9, 42, 64
1, 40804, Note_off_c, 9, 40, 64
1, 40809, Note_off_c, 1, 29, 64
1, 40844, Note_on_c, 4, 46, 94
1, 40848, Note_on_c, 9, 44, 73
1, 40851, Note_off_c, 9, 44, 64
1, 40852, Note_off_c, 4, 46, 64
1, 40870, Note_on_c, 1, 29, 94
1, 40883, Note_off_c, 1, 29, 64
1, 40892, Note_on_c, 1, 29, 94
1, 40893, Note_on_c, 5, 65, 94
1, 40893, Note_on_c, 5, 77, 60
1, 40895, Note_on_c, 9, 56, 72
1, 40896, Note_on_c, 9, 36, 94
1, 40898, Note_off_c, 9, 56, 64
1, 40898, Note_on_c, 9, 42, 94
1, 40899, Note_off_c, 9, 36, 64
1, 40901, Note_off_c, 9, 42, 64
1, 40920, Note_off_c, 1, 29, 64
1, 40939, Note_on_c, 4, 46, 94
1, 40941, Note_on_c, 1, 29, 94
1, 40941, Pitch_bend_c, 5, 8842
1, 40944, Pitch_bend_c, 5, 10792
1, 40945, Note_on_c, 9, 44, 73
1, 40947, Note_off_c, 4, 46, 64
1, 40948, Note_off_c, 9, 44, 64
1, 40950, Pitch_bend_c, 5, 13912
1, 40958, Pitch_bend_c, 5, 16382
1, 40980, Note_off_c, 1, 29, 64
1, 40987, Pitch_bend_c, 5, 15232
1, 40989, Pitch_bend_c, 5, 11904
1, 40991, Note_on_c, 1, 31, 94
1, 40992, Pitch_bend_c, 5, 9882
1, 40993, Note_on_c, 9, 42, 94
1, 40993, Note_on_c, 9, 40, 94
1, 40995, Pitch_bend_c, 5, 8960
1, 40996, Note_off_c, 9, 40, 64
1, 40996, Note_off_c, 9, 42, 64
1, 40999, Pitch_bend_c, 5, 8192
1, 41029, Pitch_bend_c, 5, 8582
1, 41031, Pitch_bend_c, 5, 10012
1, 41034, Note_off_c, 1, 31, 64
1, 41035, Pitch_bend_c, 5, 11962
1, 41038, Pitch_bend_c, 5, 13132
1, 41040, Note_on_c, 1, 33, 94
1, 41040, Note_on_c, 4, 46, 94
1, 41041, Pitch_bend_c, 5, 16382
1, 41042, Note_on_c, 9, 44, 73
1, 41045, Note_off_c, 9, 44, 64
1, 41048, Note_off_c, 4, 46, 64
1, 41059, Note_off_c, 1, 33, 64
1, 41077, Pitch_bend_c, 11, 0
1, 41078, Note_on_c, 11, 77, 64
1, 41082, Note_off_c, 2, 41, 64
1, 41085, Note_on_c, 1, 34, 94
1, 41086, Note_on_c, 2, 46, 74
1, 41088, Note_on_c, 3, 70, 103
1, 41088, Note_on_c, 9, 36, 94
1, 41088, Note_on_c, 9, 42, 94
1, 41088, Note_on_c, 9, 56, 72
1, 41091, Note_off_c, 9, 56, 64
1, 41091, Note_off_c, 9, 42, 64
1, 41091, Note_off_c, 9, 36, 64
1, 41092, Pitch_bend_c, 3, 3708
1, 41096, Pitch_bend_c, 3, 4482
1, 41097, Pitch_bend_c, 11, 3072
1, 41099, Pitch_bend_c, 11, 6144
1, 41100, Pitch_bend_c, 3, 5256
1, 41100, Control_c, 5, 1, 5
1, 41102, Pitch_bend_c, 11, 8192
1, 41103, Control_c, 5, 1, 13
1, 41104, Pitch_bend_c, 3, 6031
1, 41108, Pitch_bend_c, 3, 8192
1, 41108, Control_c, 5, 1, 20
1, 41112, Control_c, 5, 1, 29
1, 41115, Note_on_c, 10, 70, 109
1, 41116, Pitch_bend_c, 10, 2934
1, 41117, Control_c, 5, 1, 35
1, 41120, Pitch_bend_c, 10, 3708
1, 41122, Control_c, 5, 1, 45
1, 41124, Pitch_bend_c, 10, 4482
1, 41128, Pitch_bend_c, 10, 5256
1, 41130, Control_c, 5, 1, 52
1, 41132, Pitch_bend_c, 10, 6031
1, 41135, Control_c, 5, 1, 57
1, 41136, Note_on_c, 9, 44, 73
1, 41136, Pitch_bend_c, 10, 8192
1, 41138, Note_on_c, 4, 46, 94
1, 41139, Control_c, 5, 1, 67
1, 41139, Note_off_c, 9, 44, 64
1, 41146, Note_off_c, 4, 46, 64
1, 41149, Control_c, 5, 1, 69
1, 41152, Note_off_c, 3, 70, 64
1, 41153, Control_c, 5, 1, 72
1, 41157, Control_c, 5, 1, 77
1, 41167, Control_c, 5, 1, 79
1, 41171, Control_c, 5, 1, 81
1, 41177, Control_c, 5, 1, 82
1, 41181, Control_c, 5, 1, 83
1, 41183, Note_on_c, 9, 42, 94
1, 41185, Note_on_c, 9, 40, 94
1, 41186, Note_off_c, 9, 42, 64
1, 41187, Note_off_c, 11, 77, 64
1, 41188, Note_off_c, 9, 40, 64
1, 41189, Control_c, 5, 1, 84
1, 41209, Note_off_c, 10, 70, 64
1, 41212, Control_c, 5, 1, 87
1, 41222, Control_c, 5, 1, 89
1, 41228, Note_on_c, 4, 46, 94
1, 41228, Control_c, 5, 1, 90
1, 41232, Note_on_c, 9, 44, 73
1, 41234, Control_c, 5, 1, 91
1, 41235, Note_off_c, 9, 44, 64
1, 41236, Note_off_c, 4, 46, 64
1, 41242, Note_off_c, 1, 34, 64
1, 41257, Control_c, 5, 1, 92
1, 41263, Control_c, 5, 1, 93
1, 41269, Control_c, 5, 1, 95
1, 41271, Pitch_bend_c, 7, 0
1, 41272, Note_on_c, 7, 73, 77
1, 41276, Pitch_bend_c, 7, 4096
1, 41279, Note_on_c, 9, 56, 72
1, 41280, Pitch_bend_c, 7, 8192
1, 41280, Note_on_c, 9, 36, 94
1, 41282, Note_off_c, 9, 56, 64
1, 41282, Note_on_c, 9, 42, 94
1, 41283, Note_off_c, 9, 36, 64
1, 41284, Pitch_bend_c, 7, 12288
1, 41285, Note_off_c, 9, 42, 64
1, 41286, Note_on_c, 1, 34, 94
1, 41288, Pitch_bend_c, 7, 16383
1, 41300, Note_off_c, 1, 34, 64
1, 41304, Pitch_bend_c, 7, 12288
1, 41309, Pitch_bend_c, 7, 8192
1, 41313, Pitch_bend_c, 7, 4096
1, 41316, Pitch_bend_c, 7, 0
1, 41319, Note_off_c, 7, 73, 64
1, 41323, Note_on_c, 4, 46, 94
1, 41328, Note_on_c, 1, 34, 94
1, 41329, Pitch_bend_c, 7, 8192
1, 41329, Note_on_c, 9, 44, 73
1, 41330, Note_on_c, 7, 46, 99
1, 41331, Note_off_c, 4, 46, 64
1, 41332, Note_off_c, 9, 44, 64
1, 41339, Note_off_c, 7, 46, 64
1, 41346, Pitch_bend_c, 5, 16122
1, 41349, Pitch_bend_c, 5, 15082
1, 41351, Note_off_c, 1, 34, 64
1, 41356, Pitch_bend_c, 5, 14172
1, 41360, Pitch_bend_c, 5, 13262
1, 41364, Pitch_bend_c, 5, 12222
1, 41368, Pitch_bend_c, 5, 11832
1, 41370, Pitch_bend_c, 5, 10532
1, 41372, Note_off_c, 5, 77, 64
1, 41372, Note_off_c, 5, 65, 64
1, 41376, Note_on_c, 1, 33, 94
1, 41376, Note_on_c, 7, 61, 89
1, 41377, Note_on_c, 9, 42, 94
1, 41377, Note_on_c, 9, 40, 94
1, 41380, Pitch_bend_c, 7, 8448
1, 41380, Note_off_c, 9, 40, 64
1, 41380, Note_off_c, 9, 42, 64
1, 41383, Pitch_bend_c, 7, 8576
1, 41384, Pitch_bend_c, 7, 8704
1, 41387, Pitch_bend_c, 7, 8960
1, 41388, Pitch_bend_c, 7, 9088
1, 41390, Pitch_bend_c, 7, 9216
1, 41392, Pitch_bend_c, 7, 9344
1, 41393, Pitch_bend_c, 7, 9472
1, 41396, Pitch_bend_c, 7, 9600
1, 41397, Pitch_bend_c, 7, 9728
1, 41399, Note_off_c, 1, 33, 64
1, 41399, Pitch_bend_c, 5, 8192
1, 41399, Pitch_bend_c, 7, 9984
1, 41400, Pitch_bend_c, 7, 10240
1, 41402, Pitch_bend_c, 7, 10368
1, 41403, Pitch_bend_c, 7, 10496
1, 41408, Control_c, 7, 1, 5
1, 41413, Control_c, 7, 1, 36
1, 41416, Control_c, 7, 1, 58
1, 41420, Control_c, 7, 1, 75
1, 41424, Note_on_c, 4, 46, 94
1, 41425, Note_on_c, 1, 31, 94
1, 41426, Note_on_c, 9, 44, 73
1, 41428, Control_c, 7, 1, 82
1, 41429, Control_c, 7, 1, 83
1, 41429, Note_off_c, 9, 44, 64
1, 41432, Note_off_c, 4, 46, 64
1, 41442, Control_c, 7, 1, 86
1, 41448, Note_off_c, 1, 31, 64
1, 41454, Control_c, 7, 1, 83
1, 41461, Control_c, 7, 1, 75
1, 41468, Note_off_c, 2, 46, 64
1, 41471, Note_on_c, 6, 51, 59
1, 41471, Note_off_c, 7, 61, 64
1, 41472, Note_on_c, 2, 41, 74
1, 41472, Control_c, 7, 1, 0
1, 41472, Note_on_c, 9, 36, 94
1, 41472, Note_on_c, 9, 42, 94
1, 41472, Note_on_c, 9, 56, 72
1, 41473, Note_on_c, 1, 29, 94
1, 41475, Note_off_c, 9, 56, 64
1, 41475, Note_off_c, 9, 42, 64
1, 41475, Note_off_c, 9, 36, 64
1, 41497, Pitch_bend_c, 6, 16383
1, 41520, Note_on_c, 9, 44, 73
1, 41522, Note_on_c, 4, 46, 94
1, 41522, Pitch_bend_c, 6, 8192
1, 41523, Note_off_c, 9, 44, 64
1, 41530, Note_off_c, 4, 46, 64
1, 41548, Pitch_bend_c, 6, 16383
1, 41561, Pitch_bend_c, 6, 12288
1, 41566, Note_off_c, 6, 51, 64
1, 41567, Pitch_bend_c, 6, 8192
1, 41567, Note_on_c, 6, 49, 57
1, 41567, Note_on_c, 9, 42, 94
1, 41569, Note_on_c, 9, 40, 94
1, 41570, Note_off_c, 9, 42, 64
1, 41572, Note_off_c, 9, 40, 64
1, 41584, Pitch_bend_c, 6, 8576
1, 41587, Pitch_bend_c, 6, 8704
1, 41589, Pitch_bend_c, 6, 9088
1, 41592, Pitch_bend_c, 6, 9600
1, 41597, Pitch_bend_c, 6, 9728
1, 41600, Pitch_bend_c, 6, 10368
1, 41604, Pitch_bend_c, 6, 11008
1, 41608, Pitch_bend_c, 6, 11776
1, 41612, Note_on_c, 4, 46, 94
1, 41614, Note_off_c, 6, 49, 64
1, 41616, Pitch_bend_c, 6, 8192
1, 41616, Note_on_c, 9, 44, 73
1, 41617, Note_on_c, 6, 46, 56
1, 41619, Note_off_c, 9, 44, 64
1, 41620, Note_off_c, 4, 46, 64
1, 41622, Note_off_c, 1, 29, 64
1, 41643, Note_on_c, 1, 29, 94
1, 41650, Note_off_c, 1, 29, 64
1, 41656, Note_off_c, 6, 46, 64
1, 41663, Note_on_c, 6, 49, 57
1, 41663, Note_on_c, 9, 56, 72
1, 41664, Note_on_c, 9, 36, 94
1, 41666, Note_off_c, 9, 56, 64
1, 41666, Note_on_c, 9, 42, 94
1, 41667, Note_off_c, 9, 36, 64
1, 41669, Note_on_c, 1, 29, 94
1, 41669, Note_off_c, 9, 42, 64
1, 41677, Pitch_bend_c, 6, 8448
1, 41682, Pitch_bend_c, 6, 8832
1, 41685, Note_off_c, 1, 29, 64
1, 41689, Pitch_bend_c, 6, 9088
1, 41695, Pitch_bend_c, 6, 9216
1, 41701, Pitch_bend_c, 6, 9856
1, 41704, Pitch_bend_c, 6, 10368
1, 41707, Note_on_c, 4, 46, 94
1, 41709, Pitch_bend_c, 6, 10752
1, 41710, Note_on_c, 1, 29, 94
1, 41713, Pitch_bend_c, 6, 10368
1, 41713, Note_on_c, 9, 44, 73
1, 41715, Note_off_c, 4, 46, 64
1, 41716, Note_off_c, 9, 44, 64
1, 41718, Pitch_bend_c, 6, 10112
1, 41722, Pitch_bend_c, 6, 10624
1, 41723, Pitch_bend_c, 6, 10752
1, 41727, Pitch_bend_c, 6, 11008
1, 41731, Pitch_bend_c, 6, 10496
1, 41741, Note_off_c, 1, 29, 64
1, 41744, Pitch_bend_c, 6, 11008
1, 41748, Pitch_bend_c, 6, 11136
1, 41750, Note_off_c, 6, 49, 64
1, 41758, Pitch_bend_c, 3, 0
1, 41759, Note_on_c, 1, 31, 94
1, 41759, Note_on_c, 3, 65, 77
1, 41759, Pitch_bend_c, 6, 10496
1, 41760, Pitch_bend_c, 6, 8192
1, 41760, Note_on_c, 6, 46, 57
1, 41761, Note_on_c, 9, 42, 94
1, 41761, Note_on_c, 9, 40, 94
1, 41764, Note_off_c, 9, 40, 64
1, 41764, Note_off_c, 9, 42, 64
1, 41787, Pitch_bend_c, 10, 0
1, 41788, Note_on_c, 10, 65, 83
1, 41790, Note_off_c, 1, 31, 64
1, 41800, Pitch_bend_c, 3, 256
1, 41802, Pitch_bend_c, 3, 1024
1, 41806, Note_on_c, 1, 33, 94
1, 41806, Pitch_bend_c, 3, 1920
1, 41808, Note_on_c, 4, 46, 94
1, 41808, Note_on_c, 9, 40, 79
1, 41809, Pitch_bend_c, 3, 3584
1, 41810, Note_on_c, 9, 44, 79
1, 41811, Note_off_c, 9, 40, 64
1, 41813, Note_off_c, 9, 44, 64
1, 41816, Pitch_bend_c, 3, 4480
1, 41816, Note_off_c, 4, 46, 64
1, 41820, Pitch_bend_c, 3, 5632
1, 41824, Pitch_bend_c, 3, 6784
1, 41827, Pitch_bend_c, 3, 7424
1, 41829, Note_off_c, 1, 33, 64
1, 41829, Pitch_bend_c, 10, 256
1, 41830, Pitch_bend_c, 3, 8192
1, 41831, Pitch_bend_c, 10, 1024
1, 41835, Pitch_bend_c, 10, 1920
1, 41838, Pitch_bend_c, 10, 2432
1, 41841, Pitch_bend_c, 10, 3584
1, 41845, Pitch_bend_c, 10, 4480
1, 41847, Note_off_c, 6, 46, 64
1, 41848, Note_off_c, 2, 41, 64
1, 41849, Pitch_bend_c, 10, 5632
1, 41850, Note_on_c, 2, 46, 74
1, 41851, Note_on_c, 11, 77, 64
1, 41852, Pitch_bend_c, 10, 6784
1, 41855, Note_on_c, 1, 34, 94
1, 41855, Note_off_c, 3, 65, 64
1, 41855, Note_on_c, 3, 70, 103
1, 41856, Note_on_c, 9, 36, 94
1, 41856, Note_on_c, 9, 42, 94
1, 41856, Note_on_c, 9, 56, 72
1, 41858, Pitch_bend_c, 10, 8192
1, 41859, Note_off_c, 9, 56, 64
1, 41859, Note_off_c, 9, 42, 64
1, 41859, Note_off_c, 9, 36, 64
1, 41883, Note_on_c, 10, 70, 109
1, 41904, Note_on_c, 9, 44, 73
1, 41906, Note_on_c, 4, 46, 94
1, 41907, Note_off_c, 9, 44, 64
1, 41912, Note_off_c, 10, 65, 64
1, 41914, Note_off_c, 4, 46, 64
1, 41920, Note_off_c, 3, 70, 64
1, 41941, Note_off_c, 11, 77, 64
1, 41951, Note_on_c, 9, 42, 94
1, 41953, Note_on_c, 9, 40, 94
1, 41954, Note_off_c, 9, 42, 64
1, 41956, Note_off_c, 9, 40, 64
1, 41977, Note_off_c, 10, 70, 64
1, 41996, Note_on_c, 4, 46, 94
1, 42000, Note_on_c, 9, 44, 73
1, 42003, Note_off_c, 9, 44, 64
1, 42004, Note_off_c, 4, 46, 64
1, 42006, Note_off_c, 1, 34, 64
1, 42027, Note_on_c, 1, 34, 72
1, 42034, Note_off_c, 1, 34, 64
1, 42045, Pitch_bend_c, 7, 8192
1, 42046, Note_on_c, 7, 63, 74
1, 42047, Note_on_c, 7, 67, 74
1, 42047, Note_on_c, 9, 56, 72
1, 42048, Note_on_c, 9, 36, 94
1, 42050, Note_off_c, 9, 56, 64
1, 42050, Note_on_c, 9, 42, 94
1, 42051, Note_off_c, 9, 36, 64
1, 42053, Note_off_c, 9, 42, 64
1, 42056, Note_on_c, 1, 34, 94
1, 42069, Note_off_c, 7, 63, 64
1, 42070, Note_off_c, 7, 67, 64
1, 42072, Note_off_c, 1, 34, 64
1, 42091, Note_on_c, 4, 46, 94
1, 42092, Note_on_c, 7, 65, 92
1, 42094, Note_on_c, 7, 68, 92
1, 42097, Note_on_c, 1, 36, 94
1, 42097, Note_on_c, 9, 44, 73
1, 42099, Note_off_c, 4, 46, 64
1, 42100, Note_off_c, 9, 44, 64
1, 42120, Note_off_c, 1, 36, 64
1, 42123, Note_off_c, 7, 65, 64
1, 42125, Note_off_c, 7, 68, 64
1, 42143, Note_on_c, 1, 37, 94
1, 42145, Note_on_c, 9, 42, 94
1, 42145, Note_on_c, 9, 40, 94
1, 42148, Note_off_c, 9, 40, 64
1, 42148, Note_off_c, 9, 42, 64
1, 42174, Note_off_c, 1, 37, 64
1, 42192, Note_on_c, 1, 28, 94
1, 42192, Note_on_c, 4, 46, 94
1, 42194, Note_on_c, 9, 44, 73
1, 42197, Note_off_c, 9, 44, 64
1, 42200, Note_off_c, 4, 46, 64
1, 42215, Note_off_c, 1, 28, 64
1, 42238, Note_on_c, 1, 29, 94
1, 42238, Note_off_c, 2, 46, 64
1, 42238, Note_on_c, 7, 63, 92
1, 42239, Note_on_c, 7, 67, 92
1, 42240, Note_on_c, 9, 36, 94
1, 42240, Note_on_c, 9, 42, 94
1, 42240, Note_on_c, 9, 56, 72
1, 42241, Note_on_c, 2, 41, 74
1, 42243, Note_off_c, 9, 56, 64
1, 42243, Note_off_c, 9, 42, 64
1, 42243, Note_off_c, 9, 36, 64
1, 42269, Note_off_c, 7, 63, 64
1, 42270, Note_off_c, 7, 67, 64
1, 42285, Note_on_c, 7, 65, 92
1, 42286, Note_on_c, 7, 68, 92
1, 42288, Note_on_c, 9, 44, 73
1, 42290, Note_on_c, 4, 46, 94
1, 42291, Note_off_c, 9, 44, 64
1, 42298, Note_off_c, 4, 46, 64
1, 42316, Note_off_c, 7, 65, 64
1, 42317, Note_off_c, 7, 68, 64
1, 42325, Note_off_c, 1, 29, 64
1, 42335, Note_on_c, 1, 29, 77
1, 42335, Note_on_c, 9, 42, 94
1, 42337, Note_on_c, 9, 40, 94
1, 42338, Note_off_c, 9, 42, 64
1, 42339, Note_off_c, 1, 29, 64
1, 42340, Note_off_c, 9, 40, 64
1, 42360, Note_on_c, 1, 29, 94
1, 42364, Note_off_c, 1, 29, 64
1, 42380, Note_on_c, 4, 46, 94
1, 42382, Note_on_c, 1, 39, 107
1, 42384, Note_on_c, 9, 44, 73
1, 42385, Note_on_c, 7, 63, 92
1, 42386, Note_off_c, 1, 39, 64
1, 42386, Note_on_c, 7, 67, 92
1, 42387, Note_off_c, 9, 44, 64
1, 42388, Note_off_c, 4, 46, 64
1, 42413, Note_on_c, 1, 29, 83
1, 42416, Note_off_c, 7, 63, 64
1, 42417, Note_off_c, 1, 29, 64
1, 42417, Note_off_c, 7, 67, 64
1, 42431, Note_on_c, 9, 56, 72
1, 42432, Note_on_c, 1, 29, 94
1, 42432, Note_on_c, 9, 36, 94
1, 42434, Note_off_c, 9, 56, 64
1, 42434, Note_on_c, 9, 42, 94
1, 42435, Note_off_c, 9, 36, 64
1, 42437, Note_off_c, 9, 42, 64
1, 42471, Note_off_c, 1, 29, 64
1, 42475, Note_on_c, 4, 46, 94
1, 42481, Note_on_c, 1, 31, 76
1, 42481, Note_on_c, 9, 44, 73
1, 42483, Note_off_c, 4, 46, 64
1, 42484, Note_off_c, 9, 44, 64
1, 42512, Note_off_c, 1, 31, 64
1, 42528, Note_on_c, 1, 33, 94
1, 42529, Note_on_c, 9, 42, 94
1, 42529, Note_on_c, 9, 40, 94
1, 42532, Note_off_c, 9, 40, 64
1, 42532, Note_off_c, 9, 42, 64
1, 42553, Note_on_c, 9, 40, 87
1, 42556, Note_off_c, 9, 40, 64
1, 42559, Note_off_c, 1, 33, 64
1, 42576, Note_on_c, 1, 34, 84
1, 42576, Note_on_c, 4, 46, 94
1, 42576, Note_on_c, 9, 40, 88
1, 42579, Note_off_c, 9, 40, 64
1, 42584, Note_off_c, 4, 46, 64
1, 42601, Note_on_c, 9, 40, 103
1, 42604, Note_off_c, 9, 40, 64
1, 42607, Note_off_c, 1, 34, 64
1, 42617, Note_on_c, 11, 75, 64
1, 42620, Note_off_c, 2, 41, 64
1, 42623, Note_on_c, 7, 58, 75
1, 42623, Note_on_c, 7, 51, 75
1, 42624, Note_on_c, 1, 39, 94
1, 42624, Note_on_c, 2, 73, 94
1, 42624, Note_on_c, 2, 77, 94
1, 42624, Note_on_c, 2, 79, 94
1, 42624, Note_on_c, 2, 82, 94
1, 42624, Note_on_c, 3, 70, 103
1, 42624, Note_on_c, 7, 63, 75
1, 42624, Note_on_c, 9, 36, 108
1, 42624, Note_on_c, 9, 57, 108
1, 42624, Note_on_c, 9, 56, 72
1, 42627, Note_off_c, 9, 56, 64
1, 42627, Note_off_c, 9, 57, 64
1, 42627, Note_off_c, 9, 36, 64
1, 42672, Note_on_c, 9, 44, 73
1, 42674, Note_on_c, 4, 46, 94
1, 42675, Note_off_c, 9, 44, 64
1, 42682, Note_off_c, 4, 46, 64
1, 42719, Note_on_c, 9, 42, 94
1, 42721, Note_on_c, 9, 40, 94
1, 42722, Note_off_c, 9, 42, 64
1, 42724, Note_off_c, 9, 40, 64
1, 42753, Note_off_c, 11, 75, 64
1, 42761, Note_off_c, 3, 70, 64
1, 42762, Note_on_c, 11, 77, 64
1, 42764, Note_on_c, 4, 46, 94
1, 42765, Pitch_bend_c, 3, 0
1, 42767, Note_on_c, 3, 73, 103
1, 42768, Note_on_c, 9, 44, 73
1, 42771, Note_off_c, 9, 44, 64
1, 42772, Note_off_c, 4, 46, 64
1, 42778, Pitch_bend_c, 1, 4096
1, 42784, Pitch_bend_c, 3, 5248
1, 42788, Pitch_bend_c, 1, 0
1, 42788, Note_off_c, 11, 77, 64
1, 42790, Pitch_bend_c, 3, 8192
1, 42799, Note_off_c, 1, 39, 64
1, 42801, Pitch_bend_c, 1, 8192
1, 42802, Note_on_c, 1, 31, 94
1, 42802, Note_off_c, 2, 77, 64
1, 42803, Note_off_c, 2, 82, 64
1, 42803, Note_off_c, 2, 79, 64
1, 42804, Note_off_c, 2, 73, 64
1, 42806, Note_off_c, 7, 51, 64
1, 42806, Note_off_c, 7, 58, 64
1, 42806, Note_on_c, 11, 75, 64
1, 42807, Note_off_c, 7, 63, 64
1, 42809, Note_off_c, 1, 31, 64
1, 42813, Note_on_c, 2, 77, 94
1, 42814, Note_on_c, 2, 82, 94
1, 42814, Note_on_c, 3, 72, 103
1, 42815, Note_on_c, 2, 74, 94
1, 42815, Note_on_c, 9, 56, 72
1, 42816, Note_on_c, 2, 79, 94
1, 42816, Note_on_c, 7, 58, 81
1, 42816, Note_on_c, 9, 36, 94
1, 42816, Note_on_c, 9, 49, 94
1, 42817, Note_on_c, 7, 63, 81
1, 42818, Note_on_c, 1, 31, 94
1, 42818, Note_on_c, 7, 67, 81
1, 42818, Note_off_c, 9, 56, 64
1, 42819, Note_off_c, 3, 73, 64
1, 42819, Note_off_c, 9, 49, 64
1, 42819, Note_off_c, 9, 36, 64
1, 42847, Note_off_c, 11, 75, 64
1, 42856, Note_on_c, 11, 74, 64
1, 42859, Note_on_c, 4, 46, 94
1, 42860, Note_off_c, 3, 72, 64
1, 42863, Note_on_c, 3, 70, 103
1, 42865, Note_on_c, 9, 44, 73
1, 42866, Note_on_c, 2, 67, 96
1, 42867, Note_off_c, 4, 46, 64
1, 42868, Note_off_c, 9, 44, 64
1, 42892, Note_off_c, 2, 77, 64
1, 42909, Note_off_c, 2, 82, 64
1, 42913, Note_off_c, 2, 79, 64
1, 42913, Note_off_c, 2, 74, 64
1, 42913, Note_on_c, 9, 42, 94
1, 42913, Note_on_c, 9, 40, 94
1, 42916, Note_off_c, 3, 70, 64
1, 42916, Note_off_c, 9, 40, 64
1, 42916, Note_off_c, 9, 42, 64
1, 42920, Note_off_c, 2, 67, 64
1, 42935, Note_off_c, 11, 74, 64
1, 42951, Note_off_c, 7, 58, 64
1, 42952, Note_off_c, 7, 63, 64
1, 42953, Note_off_c, 7, 67, 64
1, 42956, Note_off_c, 1, 31, 64
1, 42958, Note_on_c, 2, 70, 75
1, 42960, Note_on_c, 2, 74, 75
1, 42960, Note_on_c, 2, 77, 75
1, 42960, Note_on_c, 2, 89, 75
1, 42960, Note_on_c, 3, 65, 103
1, 42960, Note_on_c, 4, 46, 94
1, 42960, Note_on_c, 7, 53, 74
1, 42960, Note_on_c, 9, 36, 94
1, 42960, Note_on_c, 9, 52, 94
1, 42960, Note_on_c, 9, 55, 94
1, 42961, Note_on_c, 1, 34, 94
1, 42962, Note_on_c, 7, 63, 74
1, 42963, Note_off_c, 9, 55, 64
1, 42963, Note_off_c, 9, 52, 64
1, 42963, Note_off_c, 9, 36, 64
1, 42964, Note_on_c, 7, 68, 74
1, 42968, Note_off_c, 4, 46, 64
1, 42970, Note_off_c, 2, 89, 64
1, 42976, Note_on_c, 2, 92, 80
1, 42986, Note_off_c, 2, 92, 64
1, 42992, Note_on_c, 2, 89, 78
1, 43002, Note_off_c, 2, 89, 64
1, 43008, Note_on_c, 2, 92, 78
1, 43008, Note_on_c, 9, 56, 72
1, 43011, Note_off_c, 9, 56, 64
1, 43018, Note_off_c, 2, 92, 64
1, 43024, Note_on_c, 2, 89, 83
1, 43034, Note_off_c, 2, 89, 64
1, 43040, Note_on_c, 2, 92, 76
1, 43043, Pitch_bend_c, 3, 7168
1, 43048, Pitch_bend_c, 3, 5120
1, 43050, Note_off_c, 2, 92, 64
1, 43056, Note_on_c, 2, 89, 77
1, 43056, Pitch_bend_c, 3, 3456
1, 43056, Note_on_c, 9, 36, 77
1, 43058, Note_on_c, 4, 50, 94
1, 43059, Note_on_c, 4, 56, 94
1, 43059, Note_off_c, 9, 36, 64
1, 43062, Pitch_bend_c, 3, 2304
1, 43066, Note_off_c, 2, 89, 64
1, 43066, Pitch_bend_c, 3, 1280
1, 43066, Note_off_c, 4, 50, 64
1, 43067, Note_off_c, 4, 56, 64
1, 43069, Pitch_bend_c, 3, 0
1, 43072, Note_on_c, 2, 92, 76
1, 43082, Note_off_c, 2, 92, 64
1, 43088, Note_on_c, 2, 89, 75
1, 43094, Note_off_c, 3, 65, 64
1, 43098, Note_off_c, 2, 89, 64
1, 43104, Note_on_c, 2, 92, 79
1, 43104, Note_on_c, 9, 40, 94
1, 43107, Note_off_c, 9, 40, 64
1, 43114, Note_off_c, 2, 92, 64
1, 43120, Note_on_c, 2, 89, 78
1, 43130, Note_off_c, 2, 89, 64
1, 43136, Note_on_c, 2, 92, 78
1, 43146, Note_off_c, 2, 92, 64
1, 43148, Note_on_c, 4, 50, 94
1, 43149, Note_on_c, 4, 56, 94
1, 43151, Note_on_c, 9, 36, 77
1, 43152, Note_on_c, 2, 89, 82
1, 43154, Note_off_c, 9, 36, 64
1, 43156, Note_off_c, 4, 50, 64
1, 43157, Note_off_c, 4, 56, 64
1, 43162, Note_off_c, 2, 89, 64
1, 43176, Note_on_c, 2, 92, 81
1, 43184, Note_on_c, 2, 89, 81
1, 43186, Note_off_c, 2, 92, 64
1, 43194, Note_off_c, 2, 89, 64
1, 43199, Note_on_c, 9, 36, 51
1, 43199, Note_on_c, 9, 56, 72
1, 43199, Note_on_c, 9, 40, 52
1, 43199, Note_on_c, 9, 41, 52
1, 43200, Note_on_c, 2, 92, 81
1, 43202, Note_off_c, 9, 41, 64
1, 43202, Note_off_c, 9, 36, 64
1, 43202, Note_off_c, 9, 56, 64
1, 43202, Note_off_c, 9, 40, 64
1, 43210, Note_off_c, 2, 92, 64
1, 43216, Note_on_c, 2, 89, 85
1, 43226, Note_off_c, 2, 89, 64
1, 43232, Note_on_c, 2, 92, 83
1, 43242, Note_off_c, 2, 92, 64
1, 43243, Note_on_c, 4, 50, 94
1, 43243, Note_off_c, 7, 68, 64
1, 43244, Note_off_c, 1, 34, 64
1, 43244, Note_on_c, 4, 56, 94
1, 43247, Pitch_bend_c, 1, 4096
1, 43247, Note_on_c, 2, 50, 60
1, 43247, Note_on_c, 9, 40, 62
1, 43247, Note_on_c, 9, 41, 63
1, 43247, Note_on_c, 9, 36, 62
1, 43248, Note_on_c, 1, 50, 94
1, 43250, Note_on_c, 2, 52, 61
1, 43250, Note_off_c, 9, 36, 64
1, 43250, Note_off_c, 9, 41, 64
1, 43250, Note_off_c, 9, 40, 64
1, 43251, Note_off_c, 4, 50, 64
1, 43252, Note_off_c, 4, 56, 64
1, 43254, Note_off_c, 2, 52, 64
1, 43256, Note_on_c, 2, 89, 69
1, 43256, Note_on_c, 2, 53, 69
1, 43257, Note_off_c, 2, 50, 64
1, 43260, Note_off_c, 2, 89, 64
1, 43260, Note_off_c, 2, 53, 64
1, 43261, Note_on_c, 2, 55, 65
1, 43265, Note_off_c, 2, 55, 64
1, 43267, Note_on_c, 2, 57, 68
1, 43269, Pitch_bend_c, 1, 8192
1, 43271, Note_off_c, 2, 57, 64
1, 43272, Note_on_c, 2, 92, 75
1, 43272, Note_on_c, 2, 59, 75
1, 43273, Note_off_c, 7, 63, 64
1, 43275, Pitch_bend_c, 1, 8704
1, 43276, Note_off_c, 2, 59, 64
1, 43276, Note_off_c, 2, 92, 64
1, 43277, Note_on_c, 2, 60, 72
1, 43279, Pitch_bend_c, 1, 9344
1, 43281, Note_off_c, 2, 60, 64
1, 43281, Note_on_c, 2, 62, 73
1, 43284, Note_on_c, 2, 64, 75
1, 43285, Pitch_bend_c, 1, 9472
1, 43285, Note_off_c, 2, 62, 64
1, 43287, Note_on_c, 2, 65, 76
1, 43287, Note_off_c, 7, 53, 64
1, 43288, Note_off_c, 2, 64, 64
1, 43289, Pitch_bend_c, 1, 9088
1, 43291, Note_off_c, 2, 65, 64
1, 43292, Note_on_c, 2, 67, 78
1, 43295, Note_on_c, 9, 36, 73
1, 43295, Note_on_c, 9, 40, 85
1, 43295, Note_on_c, 9, 41, 85
1, 43296, Note_off_c, 2, 67, 64
1, 43297, Pitch_bend_c, 1, 8192
1, 43298, Note_off_c, 9, 41, 64
1, 43298, Note_off_c, 9, 40, 64
1, 43298, Note_off_c, 9, 36, 64
1, 43300, Pitch_bend_c, 1, 7296
1, 43301, Note_off_c, 2, 77, 64
1, 43302, Note_off_c, 2, 74, 64
1, 43302, Note_off_c, 2, 70, 64
1, 43303, Pitch_bend_c, 1, 6272
1, 43305, Note_on_c, 2, 88, 83
1, 43306, Note_on_c, 2, 89, 84
1, 43308, Pitch_bend_c, 1, 5888
1, 43309, Note_off_c, 2, 88, 64
1, 43310, Note_off_c, 2, 89, 64
1, 43311, Note_on_c, 2, 86, 86
1, 43314, Pitch_bend_c, 1, 6656
1, 43315, Note_off_c, 2, 86, 64
1, 43316, Note_on_c, 2, 84, 88
1, 43318, Pitch_bend_c, 1, 8192
1, 43320, Pitch_bend_c, 1, 8832
1, 43320, Note_off_c, 2, 84, 64
1, 43321, Note_on_c, 2, 83, 93
1, 43323, Pitch_bend_c, 1, 9856
1, 43324, Note_on_c, 2, 81, 91
1, 43325, Note_off_c, 2, 83, 64
1, 43328, Pitch_bend_c, 1, 10240
1, 43328, Note_off_c, 2, 81, 64
1, 43328, Note_on_c, 2, 79, 89
1, 43332, Note_off_c, 2, 79, 64
1, 43332, Note_on_c, 2, 77, 88
1, 43335, Pitch_bend_c, 1, 9856
1, 43336, Note_off_c, 2, 77, 64
1, 43339, Note_on_c, 2, 76, 84
1, 43340, Pitch_bend_c, 1, 8192
1, 43343, Note_off_c, 2, 76, 64
1, 43343, Note_on_c, 9, 40, 100
1, 43343, Note_on_c, 9, 36, 91
1, 43343, Note_on_c, 9, 41, 100
1, 43344, Pitch_bend_c, 1, 6912
1, 43344, Note_on_c, 4, 56, 94
1, 43344, Note_on_c, 4, 50, 94
1, 43345, Note_on_c, 2, 74, 81
1, 43346, Note_off_c, 9, 41, 64
1, 43346, Note_off_c, 9, 36, 64
1, 43346, Note_off_c, 9, 40, 64
1, 43348, Pitch_bend_c, 1, 5888
1, 43349, Note_off_c, 2, 74, 64
1, 43351, Note_on_c, 2, 72, 79
1, 43352, Note_off_c, 4, 50, 64
1, 43352, Note_off_c, 4, 56, 64
1, 43353, Pitch_bend_c, 1, 6016
1, 43355, Note_off_c, 2, 72, 64
1, 43357, Pitch_bend_c, 1, 7040
1, 43358, Note_on_c, 2, 71, 75
1, 43362, Note_off_c, 2, 71, 64
1, 43363, Pitch_bend_c, 1, 8192
1, 43364, Note_on_c, 2, 69, 73
1, 43366, Pitch_bend_c, 1, 9216
1, 43368, Pitch_bend_c, 1, 9856
1, 43368, Note_off_c, 2, 69, 64
1, 43370, Note_on_c, 2, 67, 70
1, 43374, Note_off_c, 2, 67, 64
1, 43376, Note_on_c, 2, 65, 67
1, 43380, Note_off_c, 2, 65, 64
1, 43381, Pitch_bend_c, 1, 9088
1, 43383, Note_on_c, 2, 64, 64
1, 43384, Note_on_c, 11, 77, 64
1, 43388, Note_on_c, 2, 62, 61
1, 43389, Pitch_bend_c, 1, 8192
1, 43390, Note_off_c, 2, 64, 64
1, 43391, Note_off_c, 1, 50, 64
1, 43391, Pitch_bend_c, 3, 8192
1, 43392, Note_on_c, 1, 34, 94
1, 43392, Note_off_c, 2, 62, 64
1, 43392, Note_on_c, 2, 80, 94
1, 43392, Note_on_c, 2, 74, 94
1, 43392, Note_on_c, 2, 82, 94
1, 43392, Note_on_c, 2, 77, 94
1, 43392, Note_on_c, 3, 70, 103
1, 43392, Note_on_c, 9, 36, 102
1, 43392, Note_on_c, 9, 57, 102
1, 43392, Note_on_c, 9, 56, 72
1, 43395, Note_off_c, 9, 56, 64
1, 43395, Note_off_c, 9, 57, 64
1, 43395, Note_off_c, 9, 36, 64
1, 43396, Pitch_bend_c, 3, 3708
1, 43397, Note_off_c, 2, 82, 64
1, 43400, Note_off_c, 2, 74, 64
1, 43400, Pitch_bend_c, 3, 4482
1, 43402, Note_off_c, 2, 80, 64
1, 43404, Pitch_bend_c, 3, 5256
1, 43405, Note_off_c, 2, 77, 64
1, 43408, Pitch_bend_c, 3, 6031
1, 43412, Pitch_bend_c, 3, 8192
1, 43420, Pitch_bend_c, 10, 2934
1, 43421, Note_on_c, 10, 70, 109
1, 43424, Pitch_bend_c, 10, 3708
1, 43428, Pitch_bend_c, 10, 4482
1, 43432, Pitch_bend_c, 10, 5256
1, 43436, Pitch_bend_c, 10, 6031
1, 43440, Note_on_c, 2, 80, 94
1, 43440, Note_on_c, 9, 44, 73
1, 43440, Pitch_bend_c, 10, 8192
1, 43441, Note_on_c, 2, 77, 94
1, 43441, Note_on_c, 2, 74, 94
1, 43442, Note_on_c, 2, 82, 96
1, 43442, Note_on_c, 4, 46, 94
1, 43443, Note_off_c, 9, 44, 64
1, 43446, Note_off_c, 2, 82, 64
1, 43447, Note_off_c, 2, 74, 64
1, 43447, Note_off_c, 2, 80, 64
1, 43449, Note_off_c, 2, 77, 64
1, 43450, Note_off_c, 4, 46, 64
1, 43456, Note_off_c, 3, 70, 64
1, 43487, Note_on_c, 2, 80, 105
1, 43487, Note_on_c, 9, 42, 94
1, 43488, Note_on_c, 2, 82, 105
1, 43488, Note_on_c, 2, 74, 105
1, 43488, Note_on_c, 9, 40, 94
1, 43489, Note_on_c, 2, 77, 105
1, 43490, Note_off_c, 9, 42, 64
1, 43491, Note_off_c, 9, 40, 64
1, 43495, Note_off_c, 11, 77, 64
1, 43496, Note_off_c, 2, 74, 64
1, 43497, Note_off_c, 2, 77, 64
1, 43497, Note_off_c, 2, 80, 64
1, 43498, Note_off_c, 2, 82, 64
1, 43503, Note_off_c, 1, 34, 64
1, 43513, Note_off_c, 10, 70, 64
1, 43532, Note_on_c, 4, 46, 94
1, 43535, Note_on_c, 2, 77, 79
1, 43536, Note_on_c, 2, 74, 79
1, 43536, Note_on_c, 9, 44, 73
1, 43537, Note_on_c, 2, 80, 79
1, 43537, Note_on_c, 2, 82, 79
1, 43539, Note_off_c, 9, 44, 64
1, 43540, Note_off_c, 4, 46, 64
1, 43542, Note_off_c, 2, 82, 64
1, 43543, Note_off_c, 2, 80, 64
1, 43544, Note_off_c, 2, 74, 64
1, 43546, Note_off_c, 2, 77, 64
1, 43583, Note_on_c, 9, 56, 72
1, 43584, Note_on_c, 2, 74, 88
1, 43584, Note_on_c, 2, 77, 88
1, 43584, Note_on_c, 9, 36, 94
1, 43584, Note_on_c, 9, 42, 94
1, 43585, Note_on_c, 2, 80, 88
1, 43586, Note_on_c, 2, 82, 88
1, 43586, Note_off_c, 9, 56, 64
1, 43587, Note_off_c, 9, 42, 64
1, 43587, Note_off_c, 9, 36, 64
1, 43591, Note_off_c, 2, 80, 64
1, 43592, Note_on_c, 1, 34, 94
1, 43592, Note_off_c, 2, 74, 64
1, 43592, Note_off_c, 2, 77, 64
1, 43593, Note_off_c, 2, 82, 64
1, 43605, Note_off_c, 1, 34, 64
1, 43627, Note_on_c, 4, 46, 94
1, 43630, Note_on_c, 2, 77, 94
1, 43631, Note_on_c, 2, 74, 94
1, 43631, Note_on_c, 2, 80, 94
1, 43632, Note_on_c, 2, 82, 94
1, 43632, Note_on_c, 9, 44, 73
1, 43633, Note_on_c, 1, 34, 94
1, 43635, Note_off_c, 4, 46, 64
1, 43635, Note_off_c, 9, 44, 64
1, 43636, Note_off_c, 2, 82, 64
1, 43636, Note_off_c, 2, 80, 64
1, 43639, Note_off_c, 2, 74, 64
1, 43639, Note_off_c, 2, 77, 64
1, 43656, Note_off_c, 1, 34, 64
1, 43679, Note_on_c, 2, 74, 94
1, 43679, Note_on_c, 2, 77, 94
1, 43680, Note_on_c, 2, 80, 94
1, 43680, Note_on_c, 9, 42, 94
1, 43680, Note_on_c, 9, 40, 94
1, 43681, Note_on_c, 1, 33, 94
1, 43681, Note_on_c, 2, 82, 94
1, 43683, Note_off_c, 9, 40, 64
1, 43683, Note_off_c, 9, 42, 64
1, 43687, Note_off_c, 2, 82, 64
1, 43687, Note_off_c, 2, 80, 64
1, 43689, Note_off_c, 2, 77, 64
1, 43690, Note_off_c, 2, 74, 64
1, 43704, Note_off_c, 1, 33, 64
1, 43727, Note_on_c, 2, 77, 94
1, 43727, Note_on_c, 2, 80, 94
1, 43728, Note_on_c, 1, 31, 94
1, 43728, Note_on_c, 2, 74, 94
1, 43728, Note_on_c, 4, 46, 94
1, 43728, Note_on_c, 9, 44, 73
1, 43729, Note_on_c, 2, 82, 94
1, 43731, Note_off_c, 9, 44, 64
1, 43736, Note_off_c, 4, 46, 64
1, 43738, Note_off_c, 2, 74, 64
1, 43739, Note_off_c, 2, 82, 64
1, 43740, Note_off_c, 2, 80, 64
1, 43742, Note_off_c, 2, 77, 64
1, 43751, Note_off_c, 1, 31, 64
1, 43769, Note_on_c, 11, 75, 47
1, 43774, Note_on_c, 2, 41, 74
1, 43776, Note_on_c, 2, 75, 94
1, 43776, Note_on_c, 9, 36, 94
1, 43776, Note_on_c, 9, 42, 94
1, 43776, Note_on_c, 9, 56, 72
1, 43777, Note_on_c, 2, 80, 94
1, 43778, Note_on_c, 1, 29, 94
1, 43778, Note_on_c, 2, 82, 88
1, 43779, Note_off_c, 9, 56, 64
1, 43779, Note_off_c, 9, 42, 64
1, 43779, Note_off_c, 9, 36, 64
1, 43782, Note_off_c, 2, 82, 64
1, 43785, Note_off_c, 2, 80, 64
1, 43788, Note_off_c, 2, 75, 64
1, 43807, Note_off_c, 11, 75, 64
1, 43821, Note_on_c, 2, 75, 79
1, 43822, Note_on_c, 2, 80, 79
1, 43824, Note_on_c, 9, 44, 73
1, 43824, Note_on_c, 11, 77, 43
1, 43826, Note_off_c, 2, 80, 64
1, 43826, Note_on_c, 4, 46, 94
1, 43827, Note_off_c, 9, 44, 64
1, 43829, Note_off_c, 2, 75, 64
1, 43834, Note_off_c, 4, 46, 64
1, 43852, Note_off_c, 11, 77, 64
1, 43869, Note_on_c, 2, 75, 88
1, 43870, Note_on_c, 2, 80, 88
1, 43871, Note_on_c, 2, 82, 88
1, 43871, Note_on_c, 9, 42, 94
1, 43872, Note_on_c, 2, 77, 88
1, 43873, Note_off_c, 2, 77, 64
1, 43873, Note_on_c, 9, 40, 94
1, 43874, Note_off_c, 9, 42, 64
1, 43875, Note_off_c, 2, 82, 64
1, 43876, Note_off_c, 9, 40, 64
1, 43880, Note_off_c, 2, 80, 64
1, 43881, Note_off_c, 1, 29, 64
1, 43883, Note_off_c, 2, 75, 64
1, 43916, Note_on_c, 4, 46, 94
1, 43917, Note_on_c, 2, 80, 105
1, 43918, Note_on_c, 2, 75, 105
1, 43918, Note_on_c, 2, 82, 105
1, 43919, Note_on_c, 2, 77, 105
1, 43920, Note_on_c, 9, 44, 73
1, 43921, Note_on_c, 11, 79, 51
1, 43923, Note_off_c, 2, 77, 64
1, 43923, Note_off_c, 9, 44, 64
1, 43924, Note_off_c, 4, 46, 64
1, 43926, Note_off_c, 2, 82, 64
1, 43928, Note_off_c, 2, 75, 64
1, 43930, Note_off_c, 2, 80, 64
1, 43942, Note_on_c, 1, 29, 94
1, 43955, Note_off_c, 1, 29, 64
1, 43960, Note_off_c, 11, 79, 64
1, 43964, Note_on_c, 1, 29, 94
1, 43966, Note_on_c, 2, 75, 71
1, 43967, Note_on_c, 2, 80, 70
1, 43967, Note_on_c, 2, 77, 70
1, 43967, Note_on_c, 9, 56, 72
1, 43968, Note_on_c, 2, 82, 79
1, 43968, Note_on_c, 9, 36, 94
1, 43970, Note_off_c, 9, 56, 64
1, 43970, Note_on_c, 9, 42, 94
1, 43971, Note_off_c, 2, 77, 64
1, 43971, Note_off_c, 9, 36, 64
1, 43973, Note_off_c, 2, 82, 64
1, 43973, Note_off_c, 9, 42, 64
1, 43975, Note_off_c, 2, 80, 64
1, 43975, Note_off_c, 2, 75, 64
1, 43992, Note_off_c, 1, 29, 64
1, 44011, Note_on_c, 4, 46, 94
1, 44013, Note_on_c, 1, 29, 94
1, 44014, Note_on_c, 2, 75, 79
1, 44014, Note_on_c, 2, 80, 79
1, 44015, Note_on_c, 2, 82, 88
1, 44015, Control_c, 5, 1, 0
1, 44016, Note_on_c, 5, 61, 69
1, 44017, Note_off_c, 2, 82, 64
1, 44017, Note_on_c, 9, 44, 73
1, 44019, Note_off_c, 4, 46, 64
1, 44020, Note_off_c, 2, 80, 64
1, 44020, Note_off_c, 9, 44, 64
1, 44021, Note_off_c, 2, 75, 64
1, 44050, Pitch_bend_c, 5, 8452
1, 44052, Note_off_c, 1, 29, 64
1, 44054, Pitch_bend_c, 5, 8712
1, 44058, Pitch_bend_c, 5, 8842
1, 44060, Pitch_bend_c, 5, 9102
1, 44062, Note_on_c, 2, 75, 94
1, 44063, Note_on_c, 1, 31, 94
1, 44063, Note_on_c, 2, 77, 94
1, 44063, Note_on_c, 2, 80, 94
1, 44064, Note_on_c, 2, 82, 94
1, 44064, Pitch_bend_c, 5, 9362
1, 44065, Note_on_c, 9, 42, 94
1, 44065, Note_on_c, 9, 40, 94
1, 44067, Pitch_bend_c, 5, 9492
1, 44068, Note_off_c, 2, 82, 64
1, 44068, Note_off_c, 9, 40, 64
1, 44068, Note_off_c, 9, 42, 64
1, 44070, Note_off_c, 2, 80, 64
1, 44070, Pitch_bend_c, 5, 9882
1, 44072, Note_off_c, 2, 77, 64
1, 44073, Note_off_c, 2, 75, 64
1, 44074, Pitch_bend_c, 5, 10142
1, 44077, Pitch_bend_c, 5, 10532
1, 44081, Pitch_bend_c, 5, 10922
1, 44085, Pitch_bend_c, 5, 11832
1, 44091, Pitch_bend_c, 5, 12872
1, 44096, Pitch_bend_c, 5, 14208
1, 44101, Pitch_bend_c, 5, 14592
1, 44106, Note_off_c, 1, 31, 64
1, 44106, Note_off_c, 5, 61, 64
1, 44108, Pitch_bend_c, 5, 8192
1, 44109, Note_on_c, 5, 58, 60
1, 44111, Note_on_c, 2, 75, 94
1, 44111, Note_on_c, 2, 77, 94
1, 44112, Note_on_c, 1, 33, 94
1, 44112, Note_on_c, 2, 80, 94
1, 44112, Note_on_c, 2, 82, 94
1, 44112, Note_on_c, 4, 46, 94
1, 44114, Note_on_c, 9, 44, 73
1, 44117, Note_off_c, 9, 44, 64
1, 44120, Note_off_c, 4, 46, 64
1, 44129, Note_off_c, 2, 82, 64
1, 44131, Note_off_c, 1, 33, 64
1, 44131, Note_off_c, 2, 77, 64
1, 44131, Note_off_c, 2, 80, 64
1, 44131, Note_off_c, 2, 75, 64
1, 44154, Note_off_c, 2, 41, 64
1, 44157, Note_on_c, 1, 34, 94
1, 44158, Note_on_c, 2, 46, 74
1, 44159, Pitch_bend_c, 3, 2934
1, 44160, Note_on_c, 3, 70, 103
1, 44160, Note_on_c, 9, 36, 94
1, 44160, Note_on_c, 9, 42, 94
1, 44160, Note_on_c, 9, 56, 72
1, 44161, Note_on_c, 2, 77, 94
1, 44161, Note_on_c, 2, 80, 94
1, 44162, Note_on_c, 2, 74, 94
1, 44162, Note_on_c, 2, 82, 94
1, 44163, Note_off_c, 9, 56, 64
1, 44163, Note_off_c, 9, 42, 64
1, 44163, Note_off_c, 9, 36, 64
1, 44164, Pitch_bend_c, 3, 3708
1, 44167, Note_off_c, 2, 82, 64
1, 44168, Pitch_bend_c, 3, 4482
1, 44170, Note_off_c, 2, 74, 64
1, 44171, Note_off_c, 2, 80, 64
1, 44172, Pitch_bend_c, 3, 5256
1, 44174, Note_off_c, 2, 77, 64
1, 44176, Pitch_bend_c, 3, 6031
1, 44180, Pitch_bend_c, 3, 8192
1, 44186, Control_c, 5, 1, 5
1, 44188, Pitch_bend_c, 10, 2934
1, 44189, Control_c, 5, 1, 13
1, 44189, Note_on_c, 10, 70, 109
1, 44192, Pitch_bend_c, 10, 3708
1, 44193, Control_c, 5, 1, 27
1, 44196, Pitch_bend_c, 10, 4482
1, 44200, Pitch_bend_c, 10, 5256
1, 44202, Control_c, 5, 1, 34
1, 44204, Pitch_bend_c, 10, 6031
1, 44207, Control_c, 5, 1, 39
1, 44208, Note_on_c, 2, 80, 94
1, 44208, Note_on_c, 9, 44, 73
1, 44208, Pitch_bend_c, 10, 8192
1, 44209, Note_on_c, 2, 77, 94
1, 44209, Note_on_c, 2, 74, 94
1, 44210, Note_on_c, 2, 82, 96
1, 44210, Note_on_c, 4, 46, 94
1, 44211, Control_c, 5, 1, 48
1, 44211, Note_off_c, 9, 44, 64
1, 44214, Note_off_c, 2, 82, 64
1, 44215, Note_off_c, 2, 80, 64
1, 44215, Note_off_c, 2, 74, 64
1, 44217, Note_off_c, 2, 77, 64
1, 44218, Note_off_c, 4, 46, 64
1, 44220, Control_c, 5, 1, 52
1, 44224, Note_off_c, 3, 70, 64
1, 44225, Control_c, 5, 1, 55
1, 44231, Control_c, 5, 1, 58
1, 44241, Control_c, 5, 1, 59
1, 44243, Control_c, 5, 1, 60
1, 44247, Control_c, 5, 1, 62
1, 44252, Control_c, 5, 1, 63
1, 44255, Note_on_c, 2, 80, 105
1, 44255, Note_on_c, 9, 42, 94
1, 44256, Note_on_c, 2, 82, 105
1, 44256, Note_on_c, 2, 74, 105
1, 44257, Note_on_c, 2, 77, 105
1, 44257, Control_c, 5, 1, 64
1, 44257, Note_on_c, 9, 40, 94
1, 44258, Note_off_c, 9, 42, 64
1, 44260, Note_off_c, 9, 40, 64
1, 44262, Pitch_bend_c, 5, 6784
1, 44264, Note_off_c, 2, 74, 64
1, 44265, Note_off_c, 2, 80, 64
1, 44265, Note_off_c, 2, 77, 64
1, 44266, Note_off_c, 2, 82, 64
1, 44266, Pitch_bend_c, 5, 4864
1, 44270, Pitch_bend_c, 5, 2816
1, 44272, Control_c, 5, 1, 63
1, 44274, Pitch_bend_c, 5, 128
1, 44275, Control_c, 5, 1, 55
1, 44277, Pitch_bend_c, 5, 0
1, 44281, Note_off_c, 10, 70, 64
1, 44284, Control_c, 5, 1, 50
1, 44288, Control_c, 5, 1, 42
1, 44291, Note_off_c, 5, 58, 64
1, 44300, Note_on_c, 4, 46, 94
1, 44303, Note_on_c, 2, 77, 79
1, 44304, Note_on_c, 2, 74, 79
1, 44304, Note_on_c, 9, 44, 73
1, 44305, Note_on_c, 2, 80, 79
1, 44305, Note_on_c, 2, 82, 79
1, 44307, Note_off_c, 9, 44, 64
1, 44308, Note_off_c, 4, 46, 64
1, 44310, Note_off_c, 2, 82, 64
1, 44311, Note_off_c, 2, 80, 64
1, 44312, Note_off_c, 2, 74, 64
1, 44314, Note_off_c, 1, 34, 64
1, 44314, Note_off_c, 2, 77, 64
1, 44351, Note_on_c, 9, 56, 72
1, 44352, Note_on_c, 2, 74, 88
1, 44352, Note_on_c, 2, 77, 88
1, 44352, Note_on_c, 9, 36, 94
1, 44353, Note_on_c, 2, 80, 88
1, 44354, Note_on_c, 2, 82, 88
1, 44354, Note_off_c, 9, 56, 64
1, 44354, Note_on_c, 9, 42, 94
1, 44355, Note_off_c, 9, 36, 64
1, 44357, Note_off_c, 9, 42, 64
1, 44358, Note_on_c, 1, 34, 94
1, 44358, Pitch_bend_c, 5, 8192
1, 44359, Note_off_c, 2, 80, 64
1, 44360, Note_off_c, 2, 77, 64
1, 44360, Note_off_c, 2, 74, 64
1, 44361, Note_off_c, 2, 82, 64
1, 44372, Note_off_c, 1, 34, 64
1, 44395, Note_on_c, 4, 46, 94
1, 44398, Note_on_c, 2, 77, 94
1, 44399, Note_on_c, 2, 74, 94
1, 44399, Note_on_c, 2, 80, 94
1, 44400, Note_on_c, 1, 34, 94
1, 44400, Note_on_c, 2, 82, 94
1, 44401, Note_on_c, 9, 44, 73
1, 44403, Note_off_c, 4, 46, 64
1, 44404, Note_off_c, 2, 82, 64
1, 44404, Note_off_c, 2, 80, 64
1, 44404, Note_off_c, 9, 44, 64
1, 44407, Note_off_c, 2, 74, 64
1, 44407, Note_off_c, 2, 77, 64
1, 44423, Note_off_c, 1, 34, 64
1, 44447, Note_on_c, 2, 74, 94
1, 44447, Note_on_c, 2, 77, 94
1, 44448, Note_on_c, 1, 33, 94
1, 44448, Note_on_c, 2, 80, 94
1, 44449, Note_on_c, 2, 82, 94
1, 44449, Note_on_c, 9, 42, 94
1, 44449, Note_on_c, 9, 40, 94
1, 44452, Note_off_c, 9, 40, 64
1, 44452, Note_off_c, 9, 42, 64
1, 44455, Note_off_c, 2, 82, 64
1, 44455, Note_off_c, 2, 80, 64
1, 44457, Note_off_c, 2, 77, 64
1, 44458, Note_off_c, 2, 74, 64
1, 44471, Note_off_c, 1, 33, 64
1, 44495, Note_on_c, 2, 77, 94
1, 44495, Note_on_c, 2, 80, 94
1, 44496, Note_on_c, 2, 74, 94
1, 44496, Note_on_c, 4, 46, 94
1, 44497, Note_on_c, 1, 31, 94
1, 44497, Note_on_c, 2, 82, 94
1, 44498, Note_on_c, 9, 44, 73
1, 44501, Note_off_c, 9, 44, 64
1, 44504, Note_off_c, 4, 46, 64
1, 44506, Note_off_c, 2, 74, 64
1, 44507, Note_off_c, 2, 82, 64
1, 44508, Note_off_c, 2, 80, 64
1, 44510, Note_off_c, 2, 77, 64
1, 44520, Note_off_c, 1, 31, 64
1, 44540, Note_off_c, 2, 46, 64
1, 44541, Note_on_c, 11, 75, 38
1, 44544, Note_on_c, 2, 41, 74
1, 44544, Note_on_c, 2, 75, 94
1, 44544, Note_on_c, 9, 36, 94
1, 44544, Note_on_c, 9, 42, 94
1, 44544, Note_on_c, 9, 56, 72
1, 44545, Note_on_c, 1, 29, 94
1, 44545, Note_on_c, 2, 80, 94
1, 44546, Note_on_c, 2, 82, 88
1, 44547, Note_off_c, 9, 56, 64
1, 44547, Note_off_c, 9, 42, 64
1, 44547, Note_off_c, 9, 36, 64
1, 44550, Note_off_c, 2, 82, 64
1, 44553, Note_off_c, 2, 80, 64
1, 44556, Note_off_c, 2, 75, 64
1, 44564, Note_off_c, 11, 75, 64
1, 44589, Note_on_c, 2, 75, 79
1, 44590, Note_on_c, 2, 80, 79
1, 44592, Note_on_c, 9, 44, 73
1, 44592, Note_on_c, 11, 77, 32
1, 44594, Note_off_c, 2, 80, 64
1, 44594, Note_on_c, 4, 46, 94
1, 44595, Note_off_c, 9, 44, 64
1, 44597, Note_off_c, 2, 75, 64
1, 44602, Note_off_c, 4, 46, 64
1, 44622, Note_off_c, 11, 77, 64
1, 44637, Note_on_c, 2, 75, 88
1, 44638, Note_on_c, 2, 80, 88
1, 44639, Note_on_c, 2, 82, 88
1, 44639, Note_on_c, 9, 42, 94
1, 44640, Note_on_c, 2, 77, 88
1, 44641, Note_off_c, 2, 77, 64
1, 44641, Note_on_c, 9, 40, 94
1, 44642, Note_off_c, 9, 42, 64
1, 44643, Note_off_c, 2, 82, 64
1, 44644, Note_off_c, 9, 40, 64
1, 44648, Note_off_c, 2, 80, 64
1, 44651, Note_off_c, 2, 75, 64
1, 44684, Note_on_c, 4, 46, 94
1, 44685, Note_on_c, 2, 80, 105
1, 44686, Note_on_c, 2, 75, 105
1, 44686, Note_on_c, 2, 82, 105
1, 44687, Note_on_c, 2, 77, 105
1, 44688, Note_on_c, 9, 44, 73
1, 44689, Note_on_c, 11, 79, 30
1, 44691, Note_off_c, 2, 77, 64
1, 44691, Note_off_c, 9, 44, 64
1, 44692, Note_off_c, 4, 46, 64
1, 44694, Note_off_c, 1, 29, 64
1, 44694, Note_off_c, 2, 82, 64
1, 44696, Note_off_c, 2, 75, 64
1, 44698, Note_off_c, 2, 80, 64
1, 44715, Note_on_c, 1, 29, 94
1, 44722, Note_off_c, 1, 29, 64
1, 44730, Note_off_c, 11, 79, 64
1, 44732, Control_c, 5, 1, 0
1, 44733, Note_on_c, 5, 65, 69
1, 44733, Note_on_c, 6, 65, 69
1, 44734, Note_on_c, 2, 75, 71
1, 44735, Note_on_c, 2, 80, 70
1, 44735, Note_on_c, 2, 77, 70
1, 44735, Note_on_c, 9, 56, 72
1, 44736, Note_on_c, 2, 82, 79
1, 44736, Note_on_c, 9, 36, 94
1, 44738, Note_off_c, 9, 56, 64
1, 44738, Note_on_c, 9, 42, 94
1, 44739, Note_off_c, 2, 77, 64
1, 44739, Note_off_c, 9, 36, 64
1, 44741, Note_on_c, 1, 29, 94
1, 44741, Note_off_c, 2, 82, 64
1, 44741, Note_off_c, 9, 42, 64
1, 44743, Note_off_c, 2, 80, 64
1, 44743, Note_off_c, 2, 75, 64
1, 44757, Note_off_c, 1, 29, 64
1, 44779, Note_on_c, 4, 46, 94
1, 44781, Pitch_bend_c, 5, 8842
1, 44781, Pitch_bend_c, 6, 8842
1, 44782, Note_on_c, 1, 29, 94
1, 44782, Note_on_c, 2, 75, 79
1, 44782, Note_on_c, 2, 80, 79
1, 44783, Note_on_c, 2, 82, 88
1, 44784, Pitch_bend_c, 5, 10012
1, 44784, Pitch_bend_c, 6, 10012
1, 44785, Note_off_c, 2, 82, 64
1, 44785, Note_on_c, 9, 44, 73
1, 44787, Note_off_c, 4, 46, 64
1, 44788, Note_off_c, 2, 80, 64
1, 44788, Pitch_bend_c, 5, 11312
1, 44788, Pitch_bend_c, 6, 11312
1, 44788, Note_off_c, 9, 44, 64
1, 44789, Note_off_c, 2, 75, 64
1, 44791, Pitch_bend_c, 5, 13912
1, 44791, Pitch_bend_c, 6, 13912
1, 44798, Pitch_bend_c, 5, 15602
1, 44798, Pitch_bend_c, 6, 15602
1, 44802, Pitch_bend_c, 5, 16382
1, 44802, Pitch_bend_c, 6, 16382
1, 44813, Note_off_c, 1, 29, 64
1, 44830, Note_on_c, 2, 75, 94
1, 44830, Pitch_bend_c, 3, 0
1, 44831, Note_on_c, 1, 31, 94
1, 44831, Note_on_c, 2, 77, 94
1, 44831, Note_on_c, 2, 80, 94
1, 44831, Note_on_c, 3, 65, 77
1, 44832, Note_on_c, 2, 82, 94
1, 44832, Pitch_bend_c, 5, 15472
1, 44832, Pitch_bend_c, 6, 15472
1, 44833, Pitch_bend_c, 5, 11702
1, 44833, Pitch_bend_c, 6, 11702
1, 44833, Note_on_c, 9, 42, 94
1, 44833, Note_on_c, 9, 40, 94
1, 44836, Note_off_c, 2, 82, 64
1, 44836, Note_off_c, 9, 40, 64
1, 44836, Note_off_c, 9, 42, 64
1, 44838, Note_off_c, 2, 80, 64
1, 44838, Pitch_bend_c, 5, 8712
1, 44838, Pitch_bend_c, 6, 8712
1, 44840, Note_off_c, 2, 77, 64
1, 44840, Pitch_bend_c, 5, 8192
1, 44840, Pitch_bend_c, 6, 8192
1, 44841, Note_off_c, 2, 75, 64
1, 44859, Pitch_bend_c, 10, 0
1, 44860, Note_on_c, 10, 65, 83
1, 44862, Note_off_c, 1, 31, 64
1, 44869, Pitch_bend_c, 5, 9102
1, 44869, Pitch_bend_c, 6, 9102
1, 44872, Pitch_bend_c, 3, 512
1, 44872, Pitch_bend_c, 5, 10012
1, 44872, Pitch_bend_c, 6, 10012
1, 44875, Pitch_bend_c, 5, 14172
1, 44875, Pitch_bend_c, 6, 14172
1, 44876, Pitch_bend_c, 3, 2176
1, 44878, Note_on_c, 1, 33, 94
1, 44879, Note_on_c, 2, 75, 94
1, 44879, Note_on_c, 2, 77, 94
1, 44880, Note_on_c, 2, 80, 94
1, 44880, Note_on_c, 2, 82, 94
1, 44880, Note_on_c, 4, 46, 94
1, 44882, Pitch_bend_c, 3, 3840
1, 44882, Note_on_c, 9, 44, 73
1, 44883, Pitch_bend_c, 5, 16382
1, 44883, Pitch_bend_c, 6, 16382
1, 44885, Note_off_c, 9, 44, 64
1, 44888, Note_off_c, 4, 46, 64
1, 44890, Pitch_bend_c, 3, 5632
1, 44896, Pitch_bend_c, 3, 8192
1, 44897, Note_off_c, 2, 82, 64
1, 44899, Note_off_c, 2, 77, 64
1, 44899, Note_off_c, 2, 80, 64
1, 44899, Note_off_c, 2, 75, 64
1, 44901, Note_off_c, 1, 33, 64
1, 44901, Pitch_bend_c, 10, 512
1, 44904, Pitch_bend_c, 10, 1024
1, 44907, Pitch_bend_c, 10, 2176
1, 44911, Pitch_bend_c, 10, 2688
1, 44914, Pitch_bend_c, 10, 3840
1, 44918, Pitch_bend_c, 10, 4480
1, 44920, Note_off_c, 2, 41, 64
1, 44921, Pitch_bend_c, 10, 5632
1, 44922, Note_on_c, 2, 46, 74
1, 44924, Pitch_bend_c, 10, 6784
1, 44927, Note_on_c, 1, 34, 94
1, 44927, Note_off_c, 3, 65, 64
1, 44927, Note_on_c, 3, 70, 103
1, 44928, Note_on_c, 9, 36, 94
1, 44928, Note_on_c, 9, 42, 94
1, 44928, Note_on_c, 9, 56, 72
1, 44928, Pitch_bend_c, 10, 8192
1, 44929, Note_on_c, 2, 77, 94
1, 44929, Note_on_c, 2, 80, 94
1, 44930, Note_on_c, 2, 74, 94
1, 44930, Note_on_c, 2, 82, 94
1, 44931, Note_off_c, 9, 56, 64
1, 44931, Note_off_c, 9, 42, 64
1, 44931, Note_off_c, 9, 36, 64
1, 44935, Note_off_c, 2, 82, 64
1, 44938, Note_off_c, 2, 74, 64
1, 44939, Note_off_c, 2, 80, 64
1, 44942, Note_off_c, 2, 77, 64
1, 44955, Note_on_c, 10, 70, 109
1, 44976, Note_on_c, 2, 80, 94
1, 44976, Note_on_c, 9, 44, 73
1, 44977, Note_on_c, 2, 77, 94
1, 44977, Note_on_c, 2, 74, 94
1, 44978, Note_on_c, 2, 82, 96
1, 44978, Note_on_c, 4, 46, 94
1, 44979, Note_off_c, 9, 44, 64
1, 44981, Control_c, 6, 1, 64
1, 44982, Note_off_c, 2, 82, 64
1, 44983, Note_off_c, 2, 80, 64
1, 44983, Note_off_c, 2, 74, 64
1, 44984, Note_off_c, 10, 65, 64
1, 44985, Note_off_c, 2, 77, 64
1, 44986, Note_off_c, 4, 46, 64
1, 44987, Control_c, 5, 1, 71
1, 44992, Note_off_c, 3, 70, 64
1, 45023, Note_on_c, 2, 80, 105
1, 45023, Note_on_c, 9, 42, 94
1, 45024, Note_on_c, 2, 82, 105
1, 45024, Note_on_c, 2, 74, 105
1, 45025, Note_on_c, 2, 77, 105
1, 45025, Note_on_c, 9, 40, 94
1, 45026, Note_off_c, 9, 42, 64
1, 45028, Note_off_c, 9, 40, 64
1, 45029, Control_c, 6, 1, 84
1, 45032, Note_off_c, 2, 74, 64
1, 45033, Note_off_c, 2, 80, 64
1, 45033, Note_off_c, 2, 77, 64
1, 45034, Note_off_c, 2, 82, 64
1, 45049, Note_off_c, 10, 70, 64
1, 45052, Control_c, 6, 1, 86
1, 45068, Note_on_c, 4, 46, 94
1, 45071, Note_on_c, 2, 77, 79
1, 45072, Note_on_c, 2, 74, 79
1, 45072, Note_on_c, 9, 44, 73
1, 45073, Note_on_c, 2, 80, 79
1, 45073, Note_on_c, 2, 82, 79
1, 45075, Note_off_c, 9, 44, 64
1, 45076, Note_off_c, 4, 46, 64
1, 45078, Note_off_c, 1, 34, 64
1, 45078, Note_off_c, 2, 82, 64
1, 45079, Note_off_c, 2, 80, 64
1, 45080, Note_off_c, 2, 74, 64
1, 45082, Note_off_c, 2, 77, 64
1, 45099, Note_on_c, 1, 34, 72
1, 45106, Note_off_c, 1, 34, 64
1, 45109, Control_c, 5, 1, 95
1, 45109, Control_c, 6, 1, 95
1, 45119, Note_on_c, 9, 56, 72
1, 45120, Note_on_c, 2, 74, 88
1, 45120, Note_on_c, 2, 77, 88
1, 45120, Note_on_c, 9, 36, 94
1, 45121, Note_on_c, 2, 80, 88
1, 45122, Note_on_c, 2, 82, 88
1, 45122, Note_off_c, 9, 56, 64
1, 45122, Note_on_c, 9, 42, 94
1, 45123, Note_off_c, 9, 36, 64
1, 45125, Note_off_c, 9, 42, 64
1, 45127, Note_off_c, 2, 80, 64
1, 45128, Note_on_c, 1, 34, 94
1, 45128, Note_off_c, 2, 77, 64
1, 45128, Note_off_c, 2, 74, 64
1, 45129, Note_off_c, 2, 82, 64
1, 45144, Note_off_c, 1, 34, 64
1, 45163, Note_on_c, 4, 46, 94
1, 45166, Note_on_c, 2, 77, 94
1, 45167, Note_on_c, 2, 74, 94
1, 45167, Note_on_c, 2, 80, 94
1, 45168, Note_on_c, 2, 82, 94
1, 45169, Note_on_c, 1, 34, 94
1, 45169, Note_on_c, 9, 44, 73
1, 45171, Note_off_c, 4, 46, 64
1, 45172, Note_off_c, 2, 82, 64
1, 45172, Note_off_c, 2, 80, 64
1, 45172, Note_off_c, 9, 44, 64
1, 45175, Note_off_c, 2, 74, 64
1, 45175, Note_off_c, 2, 77, 64
1, 45186, Pitch_bend_c, 5, 15992
1, 45186, Pitch_bend_c, 6, 15992
1, 45190, Pitch_bend_c, 5, 15342
1, 45190, Pitch_bend_c, 6, 15342
1, 45192, Note_off_c, 1, 34, 64
1, 45194, Pitch_bend_c, 5, 14692
1, 45194, Pitch_bend_c, 6, 14692
1, 45198, Pitch_bend_c, 5, 13262
1, 45198, Pitch_bend_c, 6, 13262
1, 45204, Pitch_bend_c, 5, 12222
1, 45204, Pitch_bend_c, 6, 12222
1, 45208, Pitch_bend_c, 5, 11312
1, 45208, Pitch_bend_c, 6, 11312
1, 45211, Pitch_bend_c, 5, 10532
1, 45211, Pitch_bend_c, 6, 10532
1, 45212, Note_off_c, 5, 65, 64
1, 45212, Note_off_c, 6, 65, 64
1, 45213, Pitch_bend_c, 5, 8192
1, 45213, Pitch_bend_c, 6, 8192
1, 45215, Note_on_c, 1, 33, 94
1, 45215, Note_on_c, 2, 74, 94
1, 45215, Note_on_c, 2, 77, 94
1, 45216, Note_on_c, 2, 80, 94
1, 45217, Note_on_c, 2, 82, 94
1, 45217, Note_on_c, 9, 42, 94
1, 45217, Note_on_c, 9, 40, 94
1, 45220, Note_off_c, 9, 40, 64
1, 45220, Note_off_c, 9, 42, 64
1, 45223, Note_off_c, 2, 82, 64
1, 45223, Note_off_c, 2, 80, 64
1, 45225, Note_off_c, 2, 77, 64
1, 45226, Note_off_c, 2, 74, 64
1, 45246, Note_off_c, 1, 33, 64
1, 45263, Note_on_c, 2, 77, 94
1, 45263, Note_on_c, 2, 80, 94
1, 45264, Note_on_c, 1, 31, 94
1, 45264, Note_on_c, 2, 74, 94
1, 45264, Note_on_c, 4, 46, 94
1, 45265, Note_on_c, 2, 82, 94
1, 45266, Note_on_c, 9, 44, 73
1, 45269, Note_off_c, 9, 44, 64
1, 45272, Note_off_c, 4, 46, 64
1, 45274, Note_off_c, 2, 74, 64
1, 45275, Note_off_c, 2, 82, 64
1, 45276, Note_off_c, 2, 80, 64
1, 45278, Note_off_c, 2, 77, 64
1, 45287, Note_off_c, 1, 31, 64
1, 45310, Note_on_c, 1, 29, 94
1, 45310, Note_off_c, 2, 46, 64
1, 45311, Note_on_c, 11, 75, 21
1, 45312, Note_on_c, 2, 75, 94
1, 45312, Note_on_c, 9, 36, 94
1, 45312, Note_on_c, 9, 42, 94
1, 45312, Note_on_c, 9, 56, 72
1, 45313, Note_on_c, 2, 80, 94
1, 45313, Note_on_c, 2, 41, 74
1, 45314, Note_on_c, 2, 82, 88
1, 45315, Note_off_c, 9, 56, 64
1, 45315, Note_off_c, 9, 42, 64
1, 45315, Note_off_c, 9, 36, 64
1, 45318, Note_off_c, 2, 82, 64
1, 45321, Note_off_c, 2, 80, 64
1, 45324, Note_off_c, 2, 75, 64
1, 45357, Note_on_c, 2, 75, 79
1, 45358, Note_on_c, 2, 80, 79
1, 45360, Note_on_c, 9, 44, 73
1, 45362, Note_off_c, 2, 80, 64
1, 45362, Note_on_c, 4, 46, 94
1, 45362, Note_off_c, 11, 75, 64
1, 45362, Note_on_c, 11, 77, 19
1, 45363, Note_off_c, 9, 44, 64
1, 45365, Note_off_c, 2, 75, 64
1, 45370, Note_off_c, 4, 46, 64
1, 45399, Note_off_c, 11, 77, 64
1, 45405, Note_on_c, 2, 75, 88
1, 45406, Note_on_c, 2, 80, 88
1, 45407, Note_on_c, 2, 82, 88
1, 45407, Note_on_c, 9, 42, 94
1, 45408, Note_on_c, 2, 77, 88
1, 45409, Note_off_c, 2, 77, 64
1, 45409, Note_on_c, 9, 40, 94
1, 45410, Note_off_c, 9, 42, 64
1, 45411, Note_off_c, 2, 82, 64
1, 45412, Note_off_c, 9, 40, 64
1, 45416, Note_off_c, 2, 80, 64
1, 45419, Note_off_c, 2, 75, 64
1, 45452, Note_on_c, 4, 46, 94
1, 45453, Note_on_c, 2, 80, 105
1, 45453, Note_on_c, 11, 79, 19
1, 45454, Note_on_c, 2, 75, 105
1, 45454, Note_on_c, 2, 82, 105
1, 45455, Note_on_c, 2, 77, 105
1, 45456, Note_on_c, 9, 44, 73
1, 45459, Note_off_c, 2, 77, 64
1, 45459, Note_off_c, 9, 44, 64
1, 45460, Note_off_c, 1, 29, 64
1, 45460, Note_off_c, 4, 46, 64
1, 45462, Note_off_c, 2, 82, 64
1, 45464, Note_off_c, 2, 75, 64
1, 45466, Note_off_c, 2, 80, 64
1, 45484, Note_on_c, 1, 29, 94
1, 45488, Note_off_c, 11, 79, 64
1, 45491, Note_off_c, 1, 29, 64
1, 45502, Note_on_c, 2, 75, 71
1, 45503, Note_on_c, 2, 80, 70
1, 45503, Note_on_c, 2, 77, 70
1, 45503, Note_on_c, 9, 56, 72
1, 45504, Note_on_c, 1, 29, 94
1, 45504, Note_on_c, 2, 82, 79
1, 45504, Note_on_c, 9, 36, 94
1, 45506, Note_off_c, 9, 56, 64
1, 45506, Note_on_c, 9, 42, 94
1, 45507, Note_off_c, 2, 77, 64
1, 45507, Note_off_c, 9, 36, 64
1, 45509, Control_c, 1, 11, 125
1, 45509, Note_off_c, 2, 82, 64
1, 45509, Control_c, 2, 11, 125
1, 45509, Note_off_c, 9, 42, 64
1, 45509, Control_c, 9, 11, 125
1, 45511, Note_off_c, 2, 80, 64
1, 45511, Note_off_c, 2, 75, 64
1, 45543, Note_off_c, 1, 29, 64
1, 45546, Control_c, 4, 11, 125
1, 45547, Note_on_c, 4, 46, 94
1, 45550, Note_on_c, 2, 75, 79
1, 45550, Note_on_c, 2, 80, 79
1, 45551, Note_on_c, 2, 82, 88
1, 45553, Note_on_c, 1, 29, 94
1, 45553, Note_off_c, 2, 82, 64
1, 45553, Note_on_c, 9, 44, 73
1, 45555, Control_c, 1, 11, 123
1, 45555, Control_c, 2, 11, 123
1, 45555, Note_off_c, 4, 46, 64
1, 45555, Control_c, 4, 11, 123
1, 45555, Control_c, 9, 11, 123
1, 45556, Note_off_c, 2, 80, 64
1, 45556, Note_off_c, 9, 44, 64
1, 45557, Note_off_c, 2, 75, 64
1, 45584, Note_off_c, 1, 29, 64
1, 45598, Pitch_bend_c, 1, 0
1, 45598, Note_on_c, 2, 75, 94
1, 45599, Note_on_c, 1, 35, 94
1, 45599, Note_on_c, 2, 77, 94
1, 45599, Note_on_c, 2, 80, 94
1, 45600, Note_on_c, 2, 82, 94
1, 45601, Note_on_c, 9, 42, 94
1, 45601, Note_on_c, 9, 40, 94
1, 45604, Pitch_bend_c, 1, 4096
1, 45604, Note_off_c, 2, 82, 64
1, 45604, Note_off_c, 9, 40, 64
1, 45604, Note_off_c, 9, 42, 64
1, 45606, Note_off_c, 2, 80, 64
1, 45608, Note_off_c, 2, 77, 64
1, 45609, Pitch_bend_c, 1, 8192
1, 45609, Note_off_c, 2, 75, 64
1, 45610, Control_c, 1, 11, 121
1, 45610, Control_c, 2, 11, 121
1, 45616, Pitch_bend_c, 1, 12288
1, 45623, Pitch_bend_c, 1, 16383
1, 45636, Pitch_bend_c, 1, 12288
1, 45640, Control_c, 1, 11, 119
1, 45640, Control_c, 2, 11, 119
1, 45645, Pitch_bend_c, 1, 8192
1, 45647, Note_on_c, 2, 75, 94
1, 45647, Note_on_c, 2, 77, 94
1, 45647, Control_c, 4, 11, 119
1, 45648, Note_on_c, 2, 80, 94
1, 45648, Note_on_c, 2, 82, 94
1, 45648, Note_on_c, 4, 46, 94
1, 45649, Control_c, 9, 11, 119
1, 45650, Note_on_c, 9, 44, 73
1, 45653, Pitch_bend_c, 1, 4096
1, 45653, Note_off_c, 9, 44, 64
1, 45656, Note_off_c, 4, 46, 64
1, 45660, Pitch_bend_c, 1, 0
1, 45665, Note_off_c, 2, 82, 64
1, 45667, Note_off_c, 2, 77, 64
1, 45667, Note_off_c, 2, 80, 64
1, 45667, Note_off_c, 2, 75, 64
1, 45678, Note_off_c, 1, 35, 64
1, 45691, Note_on_c, 2, 51, 74
1, 45692, Note_off_c, 2, 41, 64
1, 45695, Pitch_bend_c, 1, 8192
1, 45695, Control_c, 3, 11, 119
1, 45696, Note_on_c, 1, 39, 94
1, 45696, Note_on_c, 2, 73, 94
1, 45696, Note_on_c, 2, 77, 94
1, 45696, Note_on_c, 2, 79, 94
1, 45696, Note_on_c, 2, 82, 94
1, 45696, Note_on_c, 3, 70, 103
1, 45696, Note_on_c, 9, 36, 108
1, 45696, Note_on_c, 9, 56, 72
1, 45696, Note_on_c, 9, 57, 108
1, 45698, Note_on_c, 11, 75, 18
1, 45699, Note_off_c, 9, 57, 64
1, 45699, Note_off_c, 9, 56, 64
1, 45699, Note_off_c, 9, 36, 64
1, 45701, Control_c, 1, 11, 117
1, 45701, Control_c, 2, 11, 117
1, 45701, Control_c, 3, 11, 117
1, 45723, Control_c, 10, 11, 117
1, 45724, Note_on_c, 10, 70, 109
1, 45740, Note_off_c, 11, 75, 64
1, 45743, Control_c, 9, 11, 117
1, 45744, Note_on_c, 9, 44, 73
1, 45745, Control_c, 4, 11, 117
1, 45746, Note_on_c, 4, 46, 94
1, 45747, Note_off_c, 9, 44, 64
1, 45751, Control_c, 1, 11, 115
1, 45751, Control_c, 2, 11, 115
1, 45751, Control_c, 3, 11, 115
1, 45751, Control_c, 4, 11, 115
1, 45751, Control_c, 10, 11, 115
1, 45754, Note_off_c, 4, 46, 64
1, 45790, Control_c, 9, 11, 115
1, 45791, Control_c, 1, 11, 113
1, 45791, Control_c, 2, 11, 113
1, 45791, Control_c, 3, 11, 113
1, 45791, Control_c, 9, 11, 113
1, 45791, Note_on_c, 9, 42, 94
1, 45791, Control_c, 10, 11, 113
1, 45793, Note_on_c, 9, 40, 94
1, 45794, Note_off_c, 9, 42, 64
1, 45796, Note_off_c, 9, 40, 64
1, 45817, Pitch_bend_c, 10, 7808
1, 45821, Control_c, 1, 11, 110
1, 45821, Control_c, 2, 11, 110
1, 45821, Control_c, 3, 11, 110
1, 45821, Control_c, 10, 11, 110
1, 45823, Pitch_bend_c, 10, 7424
1, 45830, Pitch_bend_c, 10, 6400
1, 45834, Note_off_c, 3, 70, 64
1, 45835, Control_c, 4, 11, 110
1, 45836, Note_on_c, 4, 46, 94
1, 45836, Pitch_bend_c, 10, 5376
1, 45837, Pitch_bend_c, 3, 0
1, 45837, Note_on_c, 11, 77, 18
1, 45839, Note_on_c, 3, 73, 103
1, 45839, Control_c, 9, 11, 110
1, 45840, Note_on_c, 9, 44, 73
1, 45841, Pitch_bend_c, 10, 4608
1, 45843, Note_off_c, 9, 44, 64
1, 45844, Note_off_c, 4, 46, 64
1, 45846, Pitch_bend_c, 10, 3584
1, 45850, Pitch_bend_c, 1, 4096
1, 45852, Pitch_bend_c, 10, 2176
1, 45856, Pitch_bend_c, 3, 5248
1, 45860, Pitch_bend_c, 1, 0
1, 45861, Note_off_c, 10, 70, 64
1, 45862, Pitch_bend_c, 3, 8192
1, 45867, Control_c, 1, 11, 108
1, 45867, Control_c, 2, 11, 108
1, 45867, Control_c, 3, 11, 108
1, 45867, Control_c, 10, 11, 108
1, 45867, Pitch_bend_c, 10, 8192
1, 45868, Note_on_c, 10, 73, 109
1, 45871, Note_off_c, 1, 39, 64
1, 45873, Pitch_bend_c, 1, 8192
1, 45874, Note_on_c, 1, 31, 94
1, 45874, Note_off_c, 2, 77, 64
1, 45875, Note_off_c, 2, 79, 64
1, 45875, Note_off_c, 2, 82, 64
1, 45875, Note_off_c, 11, 77, 64
1, 45876, Note_off_c, 2, 73, 64
1, 45879, Note_off_c, 2, 51, 64
1, 45881, Note_off_c, 1, 31, 64
1, 45882, Note_on_c, 11, 75, 18
1, 45883, Note_on_c, 2, 43, 74
1, 45885, Note_on_c, 2, 77, 94
1, 45886, Note_on_c, 3, 72, 103
1, 45886, Control_c, 9, 11, 108
1, 45887, Note_on_c, 2, 74, 94
1, 45887, Note_on_c, 9, 56, 72
1, 45888, Note_on_c, 2, 79, 94
1, 45888, Note_on_c, 9, 36, 94
1, 45888, Note_on_c, 9, 49, 94
1, 45890, Note_on_c, 1, 31, 94
1, 45890, Note_off_c, 9, 56, 64
1, 45891, Note_off_c, 3, 73, 64
1, 45891, Note_off_c, 9, 49, 64
1, 45891, Note_off_c, 9, 36, 64
1, 45902, Control_c, 1, 11, 106
1, 45902, Control_c, 2, 11, 106
1, 45902, Control_c, 3, 11, 106
1, 45902, Control_c, 10, 11, 106
1, 45915, Note_on_c, 10, 72, 109
1, 45917, Control_c, 1, 11, 104
1, 45917, Control_c, 2, 11, 104
1, 45917, Control_c, 3, 11, 104
1, 45917, Control_c, 10, 11, 104
1, 45929, Note_off_c, 11, 75, 64
1, 45930, Control_c, 4, 11, 104
1, 45931, Note_on_c, 4, 46, 94
1, 45931, Note_on_c, 11, 74, 18
1, 45932, Note_off_c, 3, 72, 64
1, 45934, Control_c, 1, 11, 102
1, 45934, Control_c, 2, 11, 102
1, 45934, Control_c, 3, 11, 102
1, 45934, Control_c, 4, 11, 102
1, 45934, Control_c, 10, 11, 102
1, 45935, Note_on_c, 3, 70, 103
1, 45936, Control_c, 9, 11, 102
1, 45937, Note_on_c, 9, 44, 73
1, 45938, Note_on_c, 2, 67, 96
1, 45939, Note_off_c, 4, 46, 64
1, 45940, Note_off_c, 9, 44, 64
1, 45948, Note_off_c, 10, 73, 64
1, 45953, Control_c, 1, 11, 100
1, 45953, Control_c, 2, 11, 100
1, 45953, Control_c, 3, 11, 100
1, 45953, Control_c, 10, 11, 100
1, 45963, Note_off_c, 11, 74, 64
1, 45964, Note_off_c, 2, 77, 64
1, 45964, Note_on_c, 10, 70, 109
1, 45970, Control_c, 1, 11, 98
1, 45970, Control_c, 2, 11, 98
1, 45970, Control_c, 3, 11, 98
1, 45970, Control_c, 10, 11, 98
1, 45977, Control_c, 1, 11, 96
1, 45977, Control_c, 2, 11, 96
1, 45977, Control_c, 3, 11, 96
1, 45977, Control_c, 10, 11, 96
1, 45984, Control_c, 9, 11, 96
1, 45985, Note_off_c, 2, 79, 64
1, 45985, Note_off_c, 2, 74, 64
1, 45985, Note_on_c, 9, 42, 94
1, 45985, Note_on_c, 9, 40, 94
1, 45988, Note_off_c, 3, 70, 64
1, 45988, Note_off_c, 9, 40, 64
1, 45988, Note_off_c, 9, 42, 64
1, 45989, Note_off_c, 10, 72, 64
1, 45992, Note_off_c, 2, 67, 64
1, 45995, Control_c, 1, 11, 94
1, 45995, Control_c, 2, 11, 94
1, 45995, Control_c, 10, 11, 94
1, 46015, Control_c, 1, 11, 92
1, 46015, Control_c, 2, 11, 92
1, 46015, Control_c, 10, 11, 92
1, 46028, Note_off_c, 1, 31, 64
1, 46030, Note_off_c, 2, 43, 64
1, 46030, Note_on_c, 2, 70, 96
1, 46031, Note_on_c, 2, 46, 74
1, 46031, Control_c, 3, 11, 92
1, 46031, Control_c, 4, 11, 92
1, 46031, Control_c, 9, 11, 92
1, 46032, Note_on_c, 2, 74, 96
1, 46032, Note_on_c, 2, 77, 96
1, 46032, Note_on_c, 3, 65, 103
1, 46032, Note_on_c, 4, 46, 94
1, 46032, Note_on_c, 9, 36, 94
1, 46032, Note_on_c, 9, 52, 94
1, 46032, Note_on_c, 9, 55, 94
1, 46033, Note_on_c, 1, 34, 94
1, 46035, Note_off_c, 9, 55, 64
1, 46035, Note_off_c, 9, 52, 64
1, 46035, Note_off_c, 9, 36, 64
1, 46040, Note_off_c, 4, 46, 64
1, 46045, Note_off_c, 10, 70, 64
1, 46053, Control_c, 1, 11, 90
1, 46053, Control_c, 2, 11, 90
1, 46053, Control_c, 3, 11, 90
1, 46060, Control_c, 10, 11, 90
1, 46061, Note_on_c, 10, 65, 109
1, 46070, Control_c, 1, 11, 88
1, 46070, Control_c, 2, 11, 88
1, 46070, Control_c, 3, 11, 88
1, 46070, Control_c, 10, 11, 88
1, 46079, Control_c, 9, 11, 88
1, 46080, Note_on_c, 9, 56, 72
1, 46080, Note_on_c, 9, 42, 94
1, 46083, Control_c, 1, 11, 86
1, 46083, Control_c, 2, 11, 86
1, 46083, Control_c, 3, 11, 86
1, 46083, Note_off_c, 9, 42, 64
1, 46083, Note_off_c, 9, 56, 64
1, 46083, Control_c, 9, 11, 86
1, 46083, Control_c, 10, 11, 86
1, 46089, Control_c, 1, 11, 85
1, 46089, Control_c, 2, 11, 85
1, 46089, Control_c, 3, 11, 85
1, 46089, Control_c, 10, 11, 85
1, 46100, Control_c, 1, 11, 83
1, 46100, Control_c, 2, 11, 83
1, 46100, Control_c, 3, 11, 83
1, 46100, Control_c, 10, 11, 83
1, 46115, Control_c, 1, 11, 81
1, 46115, Control_c, 2, 11, 81
1, 46115, Control_c, 3, 11, 81
1, 46115, Pitch_bend_c, 3, 7552
1, 46115, Control_c, 10, 11, 81
1, 46118, Pitch_bend_c, 3, 6784
1, 46122, Pitch_bend_c, 3, 5120
1, 46127, Control_c, 9, 11, 81
1, 46128, Control_c, 1, 11, 78
1, 46128, Control_c, 2, 11, 78
1, 46128, Pitch_bend_c, 3, 3968
1, 46128, Control_c, 3, 11, 78
1, 46128, Control_c, 9, 11, 78
1, 46128, Note_on_c, 9, 44, 73
1, 46128, Control_c, 10, 11, 78
1, 46129, Control_c, 4, 11, 78
1, 46130, Note_on_c, 4, 46, 94
1, 46131, Note_off_c, 9, 44, 64
1, 46132, Pitch_bend_c, 3, 2944
1, 46135, Pitch_bend_c, 3, 1152
1, 46138, Note_off_c, 4, 46, 64
1, 46142, Pitch_bend_c, 3, 0
1, 46144, Control_c, 1, 11, 76
1, 46144, Control_c, 2, 11, 76
1, 46144, Control_c, 3, 11, 76
1, 46144, Control_c, 10, 11, 76
1, 46144, Pitch_bend_c, 10, 7552
1, 46146, Pitch_bend_c, 10, 6784
1, 46151, Pitch_bend_c, 10, 6016
1, 46153, Pitch_bend_c, 10, 5120
1, 46156, Pitch_bend_c, 10, 3968
1, 46159, Control_c, 1, 11, 74
1, 46159, Control_c, 2, 11, 74
1, 46159, Control_c, 3, 11, 74
1, 46159, Control_c, 10, 11, 74
1, 46160, Pitch_bend_c, 10, 2944
1, 46164, Control_c, 1, 11, 73
1, 46164, Control_c, 2, 11, 73
1, 46164, Control_c, 3, 11, 73
1, 46164, Pitch_bend_c, 10, 2048
1, 46164, Control_c, 10, 11, 73
1, 46166, Note_off_c, 3, 65, 64
1, 46167, Pitch_bend_c, 10, 1152
1, 46170, Pitch_bend_c, 10, 0
1, 46174, Control_c, 9, 11, 73
1, 46175, Note_on_c, 9, 42, 94
1, 46176, Control_c, 1, 11, 71
1, 46176, Control_c, 2, 11, 71
1, 46176, Control_c, 9, 11, 71
1, 46176, Control_c, 10, 11, 71
1, 46177, Note_on_c, 9, 40, 94
1, 46178, Note_off_c, 9, 42, 64
1, 46180, Pitch_bend_c, 3, 8192
1, 46180, Note_off_c, 9, 40, 64
1, 46189, Control_c, 1, 11, 68
1, 46189, Control_c, 2, 11, 68
1, 46189, Control_c, 10, 11, 68
1, 46195, Control_c, 1, 11, 67
1, 46195, Control_c, 2, 11, 67
1, 46195, Control_c, 10, 11, 67
1, 46198, Control_c, 1, 11, 66
1, 46198, Control_c, 2, 11, 66
1, 46198, Control_c, 10, 11, 66
1, 46204, Control_c, 1, 11, 64
1, 46204, Control_c, 2, 11, 64
1, 46204, Control_c, 10, 11, 64
1, 46210, Control_c, 1, 11, 62
1, 46210, Control_c, 2, 11, 62
1, 46210, Control_c, 10, 11, 62
1, 46219, Control_c, 4, 11, 62
1, 46220, Note_on_c, 4, 46, 94
1, 46221, Control_c, 1, 11, 60
1, 46221, Control_c, 2, 11, 60
1, 46221, Control_c, 4, 11, 60
1, 46221, Control_c, 10, 11, 60
1, 46223, Control_c, 9, 11, 60
1, 46223, Note_off_c, 10, 65, 64
1, 46224, Note_on_c, 9, 44, 73
1, 46227, Note_off_c, 9, 44, 64
1, 46228, Note_off_c, 4, 46, 64
1, 46229, Control_c, 1, 11, 59
1, 46229, Control_c, 2, 11, 59
1, 46234, Control_c, 1, 11, 57
1, 46234, Control_c, 2, 11, 57
1, 46248, Control_c, 1, 11, 55
1, 46248, Control_c, 2, 11, 55
1, 46251, Control_c, 1, 11, 54
1, 46251, Control_c, 2, 11, 54
1, 46254, Pitch_bend_c, 10, 8192
1, 46257, Control_c, 1, 11, 53
1, 46257, Control_c, 2, 11, 53
1, 46262, Control_c, 1, 11, 50
1, 46262, Control_c, 2, 11, 50
1, 46266, Control_c, 1, 11, 48
1, 46266, Control_c, 2, 11, 48
1, 46270, Control_c, 9, 11, 48
1, 46271, Note_on_c, 9, 56, 72
1, 46272, Control_c, 1, 11, 45
1, 46272, Control_c, 2, 11, 45
1, 46272, Control_c, 9, 11, 45
1, 46272, Note_on_c, 9, 36, 94
1, 46274, Note_off_c, 9, 56, 64
1, 46274, Note_on_c, 9, 42, 94
1, 46275, Note_off_c, 9, 36, 64
1, 46277, Note_off_c, 9, 42, 64
1, 46278, Control_c, 1, 11, 43
1, 46278, Control_c, 2, 11, 43
1, 46281, Control_c, 1, 11, 40
1, 46281, Control_c, 2, 11, 40
1, 46287, Control_c, 1, 11, 38
1, 46287, Control_c, 2, 11, 38
1, 46293, Control_c, 1, 11, 36
1, 46293, Control_c, 2, 11, 36
1, 46297, Control_c, 1, 11, 35
1, 46297, Control_c, 2, 11, 35
1, 46302, Control_c, 1, 11, 33
1, 46302, Control_c, 2, 11, 33
1, 46311, Control_c, 1, 11, 31
1, 46311, Control_c, 2, 11, 31
1, 46314, Control_c, 4, 11, 31
1, 46315, Note_on_c, 4, 46, 94
1, 46317, Control_c, 2, 11, 29
1, 46317, Control_c, 4, 11, 29
1, 46319, Control_c, 9, 11, 29
1, 46320, Note_on_c, 9, 44, 83
1, 46320, Note_on_c, 9, 40, 83
1, 46323, Control_c, 2, 11, 26
1, 46323, Note_off_c, 4, 46, 64
1, 46323, Control_c, 4, 11, 26
1, 46323, Note_off_c, 9, 40, 64
1, 46323, Note_off_c, 9, 44, 64
1, 46323, Control_c, 9, 11, 26
1, 46327, Control_c, 2, 11, 24
1, 46333, Control_c, 2, 11, 21
1, 46338, Control_c, 2, 11, 15
1, 46342, Control_c, 2, 11, 11
1, 46344, Note_off_c, 1, 34, 64
1, 46354, Control_c, 2, 11, 9
1, 46368, Note_on_c, 1, 32, 94
1, 46368, Control_c, 9, 11, 9
1, 46369, Control_c, 2, 11, 7
1, 46369, Control_c, 9, 11, 7
1, 46369, Note_on_c, 9, 42, 94
1, 46369, Note_on_c, 9, 40, 94
1, 46372, Note_off_c, 9, 40, 64
1, 46372, Note_off_c, 9, 42, 64
1, 46373, Note_off_c, 2, 77, 64
1, 46374, Note_off_c, 2, 74, 64
1, 46374, Note_off_c, 2, 70, 64
1, 46379, Note_off_c, 2, 46, 64
1, 46387, Control_c, 2, 11, 5
1, 46402, Pitch_bend_c, 1, 7424
1, 46404, Pitch_bend_c, 1, 6784
1, 46405, Control_c, 2, 11, 3
1, 46408, Pitch_bend_c, 1, 5760
1, 46411, Pitch_bend_c, 1, 4480
1, 46413, Pitch_bend_c, 1, 2944
1, 46415, Control_c, 4, 11, 3
1, 46415, Control_c, 9, 11, 3
1, 46416, Pitch_bend_c, 1, 1152
1, 46416, Note_on_c, 4, 46, 94
1, 46416, Note_on_c, 9, 41, 77
1, 46418, Pitch_bend_c, 1, 256
1, 46419, Note_off_c, 9, 41, 64
1, 46423, Control_c, 2, 11, 1
1, 46423, Control_c, 4, 11, 1
1, 46424, Note_off_c, 4, 46, 64
1, 46440, Control_c, 2, 11, 0
1, 46443, Pitch_bend_c, 1, 8192
1, 46447, Note_off_c, 1, 32, 64
1, 46560, Control_c, 1, 11, 127
1, 46560, Control_c, 2, 11, 127
1, 46560, Control_c, 3, 11, 127
1, 46560, Control_c, 4, 11, 127
1, 46560, Control_c, 9, 11, 127
1, 46560, Control_c, 10, 11, 127
1, 47232, End_track
0, 0, End_of_file
