0, 0, Header, 1, 53, 384
1, 0, Start_track
1, 0, Time_signature, 4, 2, 96, 8
1, 0, Sequencer_specific, 3, 0, 0, 65
1, 0, Tempo, 689655
1, 55296, Time_signature, 2, 2, 96, 8
1, 56064, Time_signature, 4, 2, 96, 8
1, 80640, Time_signature, 2, 2, 96, 8
1, 81408, Time_signature, 4, 2, 96, 8
1, 93696, Time_signature, 2, 2, 96, 8
1, 94464, Time_signature, 4, 2, 96, 8
1, 119040, Time_signature, 2, 2, 96, 8
1, 119808, Time_signature, 4, 2, 96, 8
1, 119808, End_track
2, 0, Start_track
2, 0, Control_c, 0, 0, 0
2, 0, Program_c, 0, 99
2, 0, Control_c, 0, 91, 46
2, 0, Control_c, 0, 93, 47
2, 960, Note_on_c, 0, 82, 100
2, 1088, Note_off_c, 0, 82, 100
2, 1152, Note_on_c, 0, 89, 100
2, 1408, Note_off_c, 0, 89, 100
2, 32448, Note_on_c, 0, 71, 100
2, 32512, Note_off_c, 0, 71, 100
2, 32544, Note_on_c, 0, 71, 100
2, 32608, Note_off_c, 0, 71, 100
2, 32640, Note_on_c, 0, 71, 100
2, 32704, Note_off_c, 0, 71, 100
2, 32736, Note_on_c, 0, 71, 100
2, 32800, Note_off_c, 0, 71, 100
2, 32832, Note_on_c, 0, 74, 100
2, 32960, Note_off_c, 0, 74, 100
2, 33024, Note_on_c, 0, 69, 100
2, 33088, Note_off_c, 0, 69, 100
2, 33120, Note_on_c, 0, 71, 100
2, 33248, Note_off_c, 0, 71, 100
2, 33312, Note_on_c, 0, 69, 100
2, 33440, Note_off_c, 0, 69, 100
2, 33504, Note_on_c, 0, 67, 100
2, 33568, Note_off_c, 0, 67, 100
2, 33600, Note_on_c, 0, 67, 100
2, 33728, Note_off_c, 0, 67, 100
2, 33792, Note_on_c, 0, 69, 100
2, 33856, Note_off_c, 0, 69, 100
2, 33888, Note_on_c, 0, 69, 100
2, 34016, Note_off_c, 0, 69, 100
2, 34080, Note_on_c, 0, 67, 100
2, 34144, Note_off_c, 0, 67, 100
2, 34176, Note_on_c, 0, 69, 100
2, 34240, Note_off_c, 0, 69, 100
2, 34272, Note_on_c, 0, 70, 100
2, 34400, Note_off_c, 0, 70, 100
2, 34464, Note_on_c, 0, 69, 100
2, 34592, Note_off_c, 0, 69, 100
2, 34656, Note_on_c, 0, 67, 100
2, 34720, Note_off_c, 0, 67, 100
2, 34752, Note_on_c, 0, 65, 100
2, 34880, Note_off_c, 0, 65, 100
2, 35328, Note_on_c, 0, 67, 100
2, 35392, Note_off_c, 0, 67, 100
2, 35424, Note_on_c, 0, 67, 100
2, 35552, Note_off_c, 0, 67, 100
2, 35616, Note_on_c, 0, 67, 100
2, 35744, Note_off_c, 0, 67, 100
2, 35808, Note_on_c, 0, 69, 100
2, 35936, Note_off_c, 0, 69, 100
2, 36000, Note_on_c, 0, 69, 100
2, 36064, Note_off_c, 0, 69, 100
2, 36096, Note_on_c, 0, 71, 100
2, 36224, Note_off_c, 0, 71, 100
2, 36288, Note_on_c, 0, 71, 100
2, 36352, Note_off_c, 0, 71, 100
2, 36384, Note_on_c, 0, 72, 100
2, 36512, Note_off_c, 0, 72, 100
2, 36576, Note_on_c, 0, 71, 100
2, 36640, Note_off_c, 0, 71, 100
2, 36672, Note_on_c, 0, 67, 100
2, 36800, Note_off_c, 0, 67, 100
2, 36864, Note_on_c, 0, 69, 100
2, 37056, Note_off_c, 0, 69, 100
2, 37152, Note_on_c, 0, 67, 100
2, 37216, Note_off_c, 0, 67, 100
2, 37248, Note_on_c, 0, 66, 100
2, 37504, Note_off_c, 0, 66, 100
2, 38496, Note_on_c, 0, 69, 100
2, 38560, Note_off_c, 0, 69, 100
2, 38592, Note_on_c, 0, 71, 100
2, 38656, Note_off_c, 0, 71, 100
2, 38688, Note_on_c, 0, 71, 100
2, 38752, Note_off_c, 0, 71, 100
2, 38784, Note_on_c, 0, 71, 100
2, 38848, Note_off_c, 0, 71, 100
2, 38880, Note_on_c, 0, 71, 100
2, 39008, Note_off_c, 0, 71, 100
2, 39072, Note_on_c, 0, 74, 100
2, 39136, Note_off_c, 0, 74, 100
2, 39168, Note_on_c, 0, 69, 100
2, 39232, Note_off_c, 0, 69, 100
2, 39264, Note_on_c, 0, 71, 100
2, 39392, Note_off_c, 0, 71, 100
2, 39456, Note_on_c, 0, 69, 100
2, 39520, Note_off_c, 0, 69, 100
2, 39552, Note_on_c, 0, 71, 100
2, 39616, Note_off_c, 0, 71, 100
2, 39744, Note_on_c, 0, 69, 100
2, 39808, Note_off_c, 0, 69, 100
2, 39840, Note_on_c, 0, 67, 100
2, 39904, Note_off_c, 0, 67, 100
2, 39936, Note_on_c, 0, 69, 100
2, 40000, Note_off_c, 0, 69, 100
2, 40032, Note_on_c, 0, 69, 100
2, 40160, Note_off_c, 0, 69, 100
2, 40224, Note_on_c, 0, 67, 100
2, 40288, Note_off_c, 0, 67, 100
2, 40320, Note_on_c, 0, 69, 100
2, 40384, Note_off_c, 0, 69, 100
2, 40416, Note_on_c, 0, 70, 100
2, 40544, Note_off_c, 0, 70, 100
2, 40608, Note_on_c, 0, 69, 100
2, 40736, Note_off_c, 0, 69, 100
2, 40800, Note_on_c, 0, 67, 100
2, 40864, Note_off_c, 0, 67, 100
2, 40896, Note_on_c, 0, 65, 100
2, 41024, Note_off_c, 0, 65, 100
2, 41376, Note_on_c, 0, 67, 100
2, 41440, Note_off_c, 0, 67, 100
2, 41472, Note_on_c, 0, 67, 100
2, 41536, Note_off_c, 0, 67, 100
2, 41568, Note_on_c, 0, 67, 100
2, 41696, Note_off_c, 0, 67, 100
2, 41760, Note_on_c, 0, 67, 100
2, 41888, Note_off_c, 0, 67, 100
2, 41952, Note_on_c, 0, 69, 100
2, 42080, Note_off_c, 0, 69, 100
2, 42144, Note_on_c, 0, 69, 100
2, 42208, Note_off_c, 0, 69, 100
2, 42240, Note_on_c, 0, 71, 100
2, 42368, Note_off_c, 0, 71, 100
2, 42432, Note_on_c, 0, 71, 100
2, 42496, Note_off_c, 0, 71, 100
2, 42528, Note_on_c, 0, 72, 100
2, 42656, Note_off_c, 0, 72, 100
2, 42720, Note_on_c, 0, 71, 100
2, 42784, Note_off_c, 0, 71, 100
2, 42816, Note_on_c, 0, 67, 100
2, 42944, Note_off_c, 0, 67, 100
2, 43008, Note_on_c, 0, 69, 100
2, 43200, Note_off_c, 0, 69, 100
2, 43296, Note_on_c, 0, 67, 100
2, 43360, Note_off_c, 0, 67, 100
2, 43392, Note_on_c, 0, 66, 100
2, 43648, Note_off_c, 0, 66, 100
2, 44544, Note_on_c, 0, 72, 100
2, 44608, Note_off_c, 0, 72, 100
2, 44640, Note_on_c, 0, 72, 100
2, 44768, Note_off_c, 0, 72, 100
2, 44832, Note_on_c, 0, 72, 100
2, 44960, Note_off_c, 0, 72, 100
2, 45024, Note_on_c, 0, 71, 100
2, 45152, Note_off_c, 0, 71, 100
2, 45216, Note_on_c, 0, 69, 100
2, 45344, Note_off_c, 0, 69, 100
2, 45408, Note_on_c, 0, 67, 100
2, 45472, Note_off_c, 0, 67, 100
2, 45792, Note_on_c, 0, 71, 100
2, 45856, Note_off_c, 0, 71, 100
2, 45888, Note_on_c, 0, 71, 100
2, 46016, Note_off_c, 0, 71, 100
2, 46080, Note_on_c, 0, 72, 100
2, 46208, Note_off_c, 0, 72, 100
2, 46272, Note_on_c, 0, 69, 100
2, 46336, Note_off_c, 0, 69, 100
2, 46368, Note_on_c, 0, 69, 100
2, 46432, Note_off_c, 0, 69, 100
2, 46464, Note_on_c, 0, 69, 100
2, 46592, Note_off_c, 0, 69, 100
2, 46656, Note_on_c, 0, 67, 100
2, 46720, Note_off_c, 0, 67, 100
2, 46752, Note_on_c, 0, 69, 100
2, 46880, Note_off_c, 0, 69, 100
2, 46944, Note_on_c, 0, 71, 100
2, 47136, Note_off_c, 0, 71, 100
2, 47520, Note_on_c, 0, 72, 100
2, 47584, Note_off_c, 0, 72, 100
2, 47616, Note_on_c, 0, 72, 100
2, 47744, Note_off_c, 0, 72, 100
2, 47808, Note_on_c, 0, 72, 100
2, 47936, Note_off_c, 0, 72, 100
2, 48000, Note_on_c, 0, 72, 100
2, 48064, Note_off_c, 0, 72, 100
2, 48096, Note_on_c, 0, 71, 100
2, 48224, Note_off_c, 0, 71, 100
2, 48288, Note_on_c, 0, 69, 100
2, 48416, Note_off_c, 0, 69, 100
2, 48480, Note_on_c, 0, 67, 100
2, 48672, Note_off_c, 0, 67, 100
2, 48960, Note_on_c, 0, 69, 100
2, 49024, Note_off_c, 0, 69, 100
2, 49056, Note_on_c, 0, 69, 100
2, 49120, Note_off_c, 0, 69, 100
2, 49152, Note_on_c, 0, 72, 100
2, 49280, Note_off_c, 0, 72, 100
2, 49344, Note_on_c, 0, 69, 100
2, 49472, Note_off_c, 0, 69, 100
2, 49536, Note_on_c, 0, 69, 100
2, 49728, Note_off_c, 0, 69, 100
2, 49824, Note_on_c, 0, 67, 100
2, 49888, Note_off_c, 0, 67, 100
2, 49920, Note_on_c, 0, 69, 100
2, 49984, Note_off_c, 0, 69, 100
2, 50016, Note_on_c, 0, 71, 100
2, 50208, Note_off_c, 0, 71, 100
2, 50592, Note_on_c, 0, 73, 100
2, 50656, Note_off_c, 0, 73, 100
2, 50688, Note_on_c, 0, 73, 100
2, 50816, Note_off_c, 0, 73, 100
2, 50880, Note_on_c, 0, 73, 100
2, 51008, Note_off_c, 0, 73, 100
2, 51072, Note_on_c, 0, 73, 100
2, 51136, Note_off_c, 0, 73, 100
2, 51168, Note_on_c, 0, 72, 100
2, 51296, Note_off_c, 0, 72, 100
2, 51360, Note_on_c, 0, 70, 100
2, 51488, Note_off_c, 0, 70, 100
2, 51552, Note_on_c, 0, 70, 100
2, 51616, Note_off_c, 0, 70, 100
2, 51648, Note_on_c, 0, 68, 100
2, 51776, Note_off_c, 0, 68, 100
2, 51936, Note_on_c, 0, 70, 100
2, 52000, Note_off_c, 0, 70, 100
2, 52032, Note_on_c, 0, 70, 100
2, 52160, Note_off_c, 0, 70, 100
2, 52224, Note_on_c, 0, 73, 100
2, 52288, Note_off_c, 0, 73, 100
2, 52320, Note_on_c, 0, 70, 100
2, 52448, Note_off_c, 0, 70, 100
2, 52512, Note_on_c, 0, 70, 100
2, 52576, Note_off_c, 0, 70, 100
2, 52608, Note_on_c, 0, 70, 100
2, 52736, Note_off_c, 0, 70, 100
2, 52800, Note_on_c, 0, 68, 100
2, 52864, Note_off_c, 0, 68, 100
2, 52896, Note_on_c, 0, 70, 100
2, 53024, Note_off_c, 0, 70, 100
2, 53088, Note_on_c, 0, 72, 100
2, 53216, Note_off_c, 0, 72, 100
2, 53280, Note_on_c, 0, 70, 100
2, 53344, Note_off_c, 0, 70, 100
2, 53568, Note_on_c, 0, 70, 100
2, 53632, Note_off_c, 0, 70, 100
2, 53664, Note_on_c, 0, 70, 100
2, 53728, Note_off_c, 0, 70, 100
2, 53760, Note_on_c, 0, 73, 100
2, 53888, Note_off_c, 0, 73, 100
2, 53952, Note_on_c, 0, 73, 100
2, 54016, Note_off_c, 0, 73, 100
2, 54048, Note_on_c, 0, 74, 100
2, 54112, Note_off_c, 0, 74, 100
2, 54240, Note_on_c, 0, 73, 100
2, 54368, Note_off_c, 0, 73, 100
2, 54432, Note_on_c, 0, 72, 100
2, 54496, Note_off_c, 0, 72, 100
2, 54528, Note_on_c, 0, 70, 100
2, 54592, Note_off_c, 0, 70, 100
2, 54624, Note_on_c, 0, 68, 100
2, 54688, Note_off_c, 0, 68, 100
2, 55296, Note_on_c, 0, 72, 100
2, 55424, Note_off_c, 0, 72, 100
2, 55488, Note_on_c, 0, 72, 100
2, 55552, Note_off_c, 0, 72, 100
2, 55584, Note_on_c, 0, 72, 100
2, 55712, Note_off_c, 0, 72, 100
2, 55776, Note_on_c, 0, 72, 100
2, 55904, Note_off_c, 0, 72, 100
2, 55968, Note_on_c, 0, 72, 100
2, 56032, Note_off_c, 0, 72, 100
2, 56064, Note_on_c, 0, 73, 100
2, 56192, Note_off_c, 0, 73, 100
2, 56256, Note_on_c, 0, 74, 100
2, 56512, Note_off_c, 0, 74, 100
2, 56640, Note_on_c, 0, 77, 100
2, 56768, Note_off_c, 0, 77, 100
2, 56832, Note_on_c, 0, 71, 100
2, 56960, Note_off_c, 0, 71, 100
2, 57312, Note_on_c, 0, 77, 100
2, 57504, Note_off_c, 0, 77, 100
2, 57792, Note_on_c, 0, 71, 100
2, 57856, Note_off_c, 0, 71, 100
2, 57888, Note_on_c, 0, 71, 100
2, 57952, Note_off_c, 0, 71, 100
2, 57984, Note_on_c, 0, 71, 100
2, 58048, Note_off_c, 0, 71, 100
2, 58080, Note_on_c, 0, 74, 100
2, 58208, Note_off_c, 0, 74, 100
2, 58272, Note_on_c, 0, 71, 100
2, 58400, Note_off_c, 0, 71, 100
2, 58464, Note_on_c, 0, 71, 100
2, 58528, Note_off_c, 0, 71, 100
2, 58560, Note_on_c, 0, 69, 100
2, 58688, Note_off_c, 0, 69, 100
2, 58848, Note_on_c, 0, 76, 100
2, 58912, Note_off_c, 0, 76, 100
2, 58944, Note_on_c, 0, 67, 100
2, 59072, Note_off_c, 0, 67, 100
2, 59136, Note_on_c, 0, 69, 100
2, 59328, Note_off_c, 0, 69, 100
2, 59424, Note_on_c, 0, 69, 100
2, 59488, Note_off_c, 0, 69, 100
2, 59520, Note_on_c, 0, 69, 100
2, 59584, Note_off_c, 0, 69, 100
2, 59616, Note_on_c, 0, 71, 100
2, 59744, Note_off_c, 0, 71, 100
2, 59808, Note_on_c, 0, 69, 100
2, 59936, Note_off_c, 0, 69, 100
2, 60000, Note_on_c, 0, 67, 100
2, 60064, Note_off_c, 0, 67, 100
2, 60096, Note_on_c, 0, 65, 100
2, 60224, Note_off_c, 0, 65, 100
2, 60576, Note_on_c, 0, 67, 100
2, 60640, Note_off_c, 0, 67, 100
2, 60672, Note_on_c, 0, 67, 100
2, 60736, Note_off_c, 0, 67, 100
2, 60768, Note_on_c, 0, 67, 100
2, 60896, Note_off_c, 0, 67, 100
2, 60960, Note_on_c, 0, 67, 100
2, 61088, Note_off_c, 0, 67, 100
2, 61152, Note_on_c, 0, 69, 100
2, 61280, Note_off_c, 0, 69, 100
2, 61344, Note_on_c, 0, 69, 100
2, 61408, Note_off_c, 0, 69, 100
2, 61440, Note_on_c, 0, 71, 100
2, 61504, Note_off_c, 0, 71, 100
2, 61536, Note_on_c, 0, 71, 100
2, 61600, Note_off_c, 0, 71, 100
2, 61632, Note_on_c, 0, 72, 100
2, 61760, Note_off_c, 0, 72, 100
2, 61824, Note_on_c, 0, 71, 100
2, 61888, Note_off_c, 0, 71, 100
2, 61920, Note_on_c, 0, 67, 100
2, 61984, Note_off_c, 0, 67, 100
2, 62016, Note_on_c, 0, 67, 100
2, 62144, Note_off_c, 0, 67, 100
2, 62208, Note_on_c, 0, 69, 100
2, 62400, Note_off_c, 0, 69, 100
2, 62496, Note_on_c, 0, 67, 100
2, 62560, Note_off_c, 0, 67, 100
2, 62592, Note_on_c, 0, 66, 100
2, 62848, Note_off_c, 0, 66, 100
2, 63840, Note_on_c, 0, 69, 100
2, 63904, Note_off_c, 0, 69, 100
2, 63936, Note_on_c, 0, 71, 100
2, 64000, Note_off_c, 0, 71, 100
2, 64032, Note_on_c, 0, 71, 100
2, 64096, Note_off_c, 0, 71, 100
2, 64128, Note_on_c, 0, 71, 100
2, 64256, Note_off_c, 0, 71, 100
2, 64320, Note_on_c, 0, 74, 100
2, 64384, Note_off_c, 0, 74, 100
2, 64416, Note_on_c, 0, 69, 100
2, 64480, Note_off_c, 0, 69, 100
2, 64512, Note_on_c, 0, 71, 100
2, 64640, Note_off_c, 0, 71, 100
2, 64704, Note_on_c, 0, 69, 100
2, 64768, Note_off_c, 0, 69, 100
2, 64800, Note_on_c, 0, 71, 100
2, 64864, Note_off_c, 0, 71, 100
2, 64992, Note_on_c, 0, 71, 100
2, 65120, Note_off_c, 0, 71, 100
2, 65184, Note_on_c, 0, 69, 100
2, 65408, Note_off_c, 0, 69, 100
2, 65472, Note_on_c, 0, 69, 100
2, 65600, Note_off_c, 0, 69, 100
2, 65664, Note_on_c, 0, 69, 100
2, 65728, Note_off_c, 0, 69, 100
2, 65760, Note_on_c, 0, 71, 100
2, 65888, Note_off_c, 0, 71, 100
2, 65952, Note_on_c, 0, 69, 100
2, 66080, Note_off_c, 0, 69, 100
2, 66144, Note_on_c, 0, 67, 100
2, 66208, Note_off_c, 0, 67, 100
2, 66240, Note_on_c, 0, 65, 100
2, 66368, Note_off_c, 0, 65, 100
2, 66720, Note_on_c, 0, 67, 100
2, 66944, Note_off_c, 0, 67, 100
2, 67008, Note_on_c, 0, 67, 100
2, 67136, Note_off_c, 0, 67, 100
2, 67200, Note_on_c, 0, 67, 100
2, 67264, Note_off_c, 0, 67, 100
2, 67296, Note_on_c, 0, 69, 100
2, 67424, Note_off_c, 0, 69, 100
2, 67488, Note_on_c, 0, 69, 100
2, 67552, Note_off_c, 0, 69, 100
2, 67584, Note_on_c, 0, 71, 100
2, 67648, Note_off_c, 0, 71, 100
2, 67680, Note_on_c, 0, 71, 100
2, 67744, Note_off_c, 0, 71, 100
2, 67776, Note_on_c, 0, 72, 100
2, 67904, Note_off_c, 0, 72, 100
2, 67968, Note_on_c, 0, 71, 100
2, 68032, Note_off_c, 0, 71, 100
2, 68064, Note_on_c, 0, 67, 100
2, 68192, Note_off_c, 0, 67, 100
2, 68256, Note_on_c, 0, 67, 100
2, 68416, Note_off_c, 0, 67, 100
2, 68448, Note_on_c, 0, 69, 100
2, 68640, Note_off_c, 0, 69, 100
2, 68736, Note_on_c, 0, 67, 100
2, 68800, Note_off_c, 0, 67, 100
2, 68832, Note_on_c, 0, 66, 100
2, 69024, Note_off_c, 0, 66, 100
2, 69504, Note_on_c, 0, 76, 100
2, 69760, Note_off_c, 0, 76, 100
2, 69888, Note_on_c, 0, 72, 100
2, 69952, Note_off_c, 0, 72, 100
2, 69984, Note_on_c, 0, 72, 100
2, 70112, Note_off_c, 0, 72, 100
2, 70176, Note_on_c, 0, 72, 100
2, 70304, Note_off_c, 0, 72, 100
2, 70368, Note_on_c, 0, 71, 100
2, 70496, Note_off_c, 0, 71, 100
2, 70560, Note_on_c, 0, 69, 100
2, 70688, Note_off_c, 0, 69, 100
2, 70752, Note_on_c, 0, 67, 100
2, 70816, Note_off_c, 0, 67, 100
2, 71136, Note_on_c, 0, 72, 100
2, 71264, Note_off_c, 0, 72, 100
2, 71328, Note_on_c, 0, 72, 100
2, 71392, Note_off_c, 0, 72, 100
2, 71424, Note_on_c, 0, 72, 100
2, 71552, Note_off_c, 0, 72, 100
2, 71616, Note_on_c, 0, 69, 100
2, 71680, Note_off_c, 0, 69, 100
2, 71712, Note_on_c, 0, 69, 100
2, 71776, Note_off_c, 0, 69, 100
2, 71808, Note_on_c, 0, 69, 100
2, 71936, Note_off_c, 0, 69, 100
2, 72000, Note_on_c, 0, 67, 100
2, 72128, Note_off_c, 0, 67, 100
2, 72192, Note_on_c, 0, 69, 100
2, 72256, Note_off_c, 0, 69, 100
2, 72288, Note_on_c, 0, 71, 100
2, 72416, Note_off_c, 0, 71, 100
2, 72768, Note_on_c, 0, 69, 100
2, 72832, Note_off_c, 0, 69, 100
2, 72864, Note_on_c, 0, 69, 100
2, 72928, Note_off_c, 0, 69, 100
2, 72960, Note_on_c, 0, 72, 100
2, 73088, Note_off_c, 0, 72, 100
2, 73152, Note_on_c, 0, 72, 100
2, 73280, Note_off_c, 0, 72, 100
2, 73344, Note_on_c, 0, 72, 100
2, 73408, Note_off_c, 0, 72, 100
2, 73440, Note_on_c, 0, 71, 100
2, 73568, Note_off_c, 0, 71, 100
2, 73632, Note_on_c, 0, 69, 100
2, 73760, Note_off_c, 0, 69, 100
2, 73824, Note_on_c, 0, 67, 100
2, 73888, Note_off_c, 0, 67, 100
2, 74304, Note_on_c, 0, 69, 100
2, 74368, Note_off_c, 0, 69, 100
2, 74400, Note_on_c, 0, 69, 100
2, 74464, Note_off_c, 0, 69, 100
2, 74496, Note_on_c, 0, 72, 100
2, 74688, Note_off_c, 0, 72, 100
2, 74784, Note_on_c, 0, 69, 100
2, 74912, Note_off_c, 0, 69, 100
2, 74976, Note_on_c, 0, 69, 100
2, 75040, Note_off_c, 0, 69, 100
2, 75072, Note_on_c, 0, 69, 100
2, 75136, Note_off_c, 0, 69, 100
2, 75168, Note_on_c, 0, 72, 100
2, 75232, Note_off_c, 0, 72, 100
2, 75264, Note_on_c, 0, 74, 100
2, 75328, Note_off_c, 0, 74, 100
2, 75360, Note_on_c, 0, 72, 100
2, 75424, Note_off_c, 0, 72, 100
2, 75456, Note_on_c, 0, 69, 100
2, 75584, Note_off_c, 0, 69, 100
2, 75840, Note_on_c, 0, 72, 100
2, 75904, Note_off_c, 0, 72, 100
2, 75936, Note_on_c, 0, 73, 100
2, 76000, Note_off_c, 0, 73, 100
2, 76032, Note_on_c, 0, 73, 100
2, 76160, Note_off_c, 0, 73, 100
2, 76224, Note_on_c, 0, 73, 100
2, 76352, Note_off_c, 0, 73, 100
2, 76416, Note_on_c, 0, 73, 100
2, 76480, Note_off_c, 0, 73, 100
2, 76512, Note_on_c, 0, 73, 100
2, 76640, Note_off_c, 0, 73, 100
2, 76704, Note_on_c, 0, 72, 100
2, 76768, Note_off_c, 0, 72, 100
2, 76800, Note_on_c, 0, 70, 100
2, 76864, Note_off_c, 0, 70, 100
2, 76896, Note_on_c, 0, 68, 100
2, 76960, Note_off_c, 0, 68, 100
2, 77280, Note_on_c, 0, 70, 100
2, 77344, Note_off_c, 0, 70, 100
2, 77376, Note_on_c, 0, 70, 100
2, 77504, Note_off_c, 0, 70, 100
2, 77568, Note_on_c, 0, 73, 100
2, 77696, Note_off_c, 0, 73, 100
2, 77760, Note_on_c, 0, 70, 100
2, 77824, Note_off_c, 0, 70, 100
2, 77856, Note_on_c, 0, 70, 100
2, 77920, Note_off_c, 0, 70, 100
2, 77952, Note_on_c, 0, 70, 100
2, 78016, Note_off_c, 0, 70, 100
2, 78048, Note_on_c, 0, 68, 100
2, 78176, Note_off_c, 0, 68, 100
2, 78240, Note_on_c, 0, 68, 100
2, 78304, Note_off_c, 0, 68, 100
2, 78336, Note_on_c, 0, 70, 100
2, 78400, Note_off_c, 0, 70, 100
2, 78432, Note_on_c, 0, 72, 100
2, 78560, Note_off_c, 0, 72, 100
2, 78912, Note_on_c, 0, 70, 100
2, 78976, Note_off_c, 0, 70, 100
2, 79008, Note_on_c, 0, 70, 100
2, 79072, Note_off_c, 0, 70, 100
2, 79104, Note_on_c, 0, 73, 100
2, 79168, Note_off_c, 0, 73, 100
2, 79200, Note_on_c, 0, 73, 100
2, 79328, Note_off_c, 0, 73, 100
2, 79392, Note_on_c, 0, 72, 100
2, 79456, Note_off_c, 0, 72, 100
2, 79488, Note_on_c, 0, 73, 100
2, 79552, Note_off_c, 0, 73, 100
2, 79584, Note_on_c, 0, 72, 100
2, 79648, Note_off_c, 0, 72, 100
2, 79680, Note_on_c, 0, 70, 100
2, 79744, Note_off_c, 0, 70, 100
2, 79776, Note_on_c, 0, 73, 100
2, 79840, Note_off_c, 0, 73, 100
2, 79872, Note_on_c, 0, 75, 100
2, 79936, Note_off_c, 0, 75, 100
2, 79968, Note_on_c, 0, 75, 100
2, 80160, Note_off_c, 0, 75, 100
2, 80448, Note_on_c, 0, 70, 100
2, 80512, Note_off_c, 0, 70, 100
2, 80544, Note_on_c, 0, 71, 100
2, 80608, Note_off_c, 0, 71, 100
2, 80640, Note_on_c, 0, 72, 100
2, 80768, Note_off_c, 0, 72, 100
2, 80832, Note_on_c, 0, 72, 100
2, 81024, Note_off_c, 0, 72, 100
2, 81120, Note_on_c, 0, 72, 100
2, 81184, Note_off_c, 0, 72, 100
2, 81216, Note_on_c, 0, 72, 100
2, 81280, Note_off_c, 0, 72, 100
2, 81312, Note_on_c, 0, 72, 100
2, 81376, Note_off_c, 0, 72, 100
2, 81408, Note_on_c, 0, 74, 100
2, 81792, Note_off_c, 0, 74, 100
2, 81984, Note_on_c, 0, 77, 100
2, 82048, Note_off_c, 0, 77, 100
2, 82080, Note_on_c, 0, 72, 100
2, 82144, Note_off_c, 0, 72, 100
2, 82176, Note_on_c, 0, 71, 100
2, 82240, Note_off_c, 0, 71, 100
2, 82272, Note_on_c, 0, 71, 100
2, 82336, Note_off_c, 0, 71, 100
2, 82656, Note_on_c, 0, 78, 100
2, 82848, Note_off_c, 0, 78, 100
2, 96192, Note_on_c, 0, 71, 100
2, 96256, Note_off_c, 0, 71, 100
2, 96288, Note_on_c, 0, 70, 100
2, 96352, Note_off_c, 0, 70, 100
2, 96384, Note_on_c, 0, 71, 100
2, 96448, Note_off_c, 0, 71, 100
2, 96480, Note_on_c, 0, 74, 100
2, 96608, Note_off_c, 0, 74, 100
2, 96672, Note_on_c, 0, 71, 100
2, 96800, Note_off_c, 0, 71, 100
2, 96864, Note_on_c, 0, 71, 100
2, 96992, Note_off_c, 0, 71, 100
2, 97056, Note_on_c, 0, 69, 100
2, 97120, Note_off_c, 0, 69, 100
2, 97248, Note_on_c, 0, 74, 100
2, 97312, Note_off_c, 0, 74, 100
2, 97440, Note_on_c, 0, 71, 100
2, 97504, Note_off_c, 0, 71, 100
2, 97536, Note_on_c, 0, 69, 100
2, 97600, Note_off_c, 0, 69, 100
2, 97632, Note_on_c, 0, 67, 100
2, 97760, Note_off_c, 0, 67, 100
2, 97824, Note_on_c, 0, 69, 100
2, 97888, Note_off_c, 0, 69, 100
2, 97920, Note_on_c, 0, 69, 100
2, 97984, Note_off_c, 0, 69, 100
2, 98016, Note_on_c, 0, 70, 100
2, 98144, Note_off_c, 0, 70, 100
2, 98208, Note_on_c, 0, 69, 100
2, 98336, Note_off_c, 0, 69, 100
2, 98400, Note_on_c, 0, 67, 100
2, 98464, Note_off_c, 0, 67, 100
2, 98496, Note_on_c, 0, 65, 100
2, 98624, Note_off_c, 0, 65, 100
2, 98976, Note_on_c, 0, 67, 100
2, 99040, Note_off_c, 0, 67, 100
2, 99072, Note_on_c, 0, 67, 100
2, 99136, Note_off_c, 0, 67, 100
2, 99168, Note_on_c, 0, 67, 100
2, 99296, Note_off_c, 0, 67, 100
2, 99360, Note_on_c, 0, 67, 100
2, 99488, Note_off_c, 0, 67, 100
2, 99552, Note_on_c, 0, 69, 100
2, 99680, Note_off_c, 0, 69, 100
2, 99744, Note_on_c, 0, 69, 100
2, 99808, Note_off_c, 0, 69, 100
2, 99840, Note_on_c, 0, 71, 100
2, 99904, Note_off_c, 0, 71, 100
2, 99936, Note_on_c, 0, 71, 100
2, 100000, Note_off_c, 0, 71, 100
2, 100032, Note_on_c, 0, 72, 100
2, 100160, Note_off_c, 0, 72, 100
2, 100224, Note_on_c, 0, 67, 100
2, 100352, Note_off_c, 0, 67, 100
2, 100416, Note_on_c, 0, 67, 100
2, 100544, Note_off_c, 0, 67, 100
2, 100608, Note_on_c, 0, 69, 100
2, 100800, Note_off_c, 0, 69, 100
2, 100896, Note_on_c, 0, 67, 100
2, 100960, Note_off_c, 0, 67, 100
2, 100992, Note_on_c, 0, 66, 100
2, 101248, Note_off_c, 0, 66, 100
2, 102240, Note_on_c, 0, 70, 100
2, 102304, Note_off_c, 0, 70, 100
2, 102336, Note_on_c, 0, 71, 100
2, 102400, Note_off_c, 0, 71, 100
2, 102432, Note_on_c, 0, 71, 100
2, 102496, Note_off_c, 0, 71, 100
2, 102528, Note_on_c, 0, 71, 100
2, 102656, Note_off_c, 0, 71, 100
2, 102720, Note_on_c, 0, 74, 100
2, 102784, Note_off_c, 0, 74, 100
2, 102816, Note_on_c, 0, 69, 100
2, 102880, Note_off_c, 0, 69, 100
2, 102912, Note_on_c, 0, 71, 100
2, 102976, Note_off_c, 0, 71, 100
2, 103008, Note_on_c, 0, 69, 100
2, 103072, Note_off_c, 0, 69, 100
2, 103104, Note_on_c, 0, 71, 100
2, 103232, Note_off_c, 0, 71, 100
2, 103392, Note_on_c, 0, 76, 100
2, 103520, Note_off_c, 0, 76, 100
2, 103584, Note_on_c, 0, 69, 100
2, 103808, Note_off_c, 0, 69, 100
2, 103872, Note_on_c, 0, 69, 100
2, 103936, Note_off_c, 0, 69, 100
2, 103968, Note_on_c, 0, 67, 100
2, 104032, Note_off_c, 0, 67, 100
2, 104064, Note_on_c, 0, 69, 100
2, 104192, Note_off_c, 0, 69, 100
2, 104256, Note_on_c, 0, 70, 100
2, 104320, Note_off_c, 0, 70, 100
2, 104352, Note_on_c, 0, 69, 100
2, 104480, Note_off_c, 0, 69, 100
2, 104544, Note_on_c, 0, 67, 100
2, 104608, Note_off_c, 0, 67, 100
2, 104640, Note_on_c, 0, 65, 100
2, 104768, Note_off_c, 0, 65, 100
2, 105120, Note_on_c, 0, 67, 100
2, 105184, Note_off_c, 0, 67, 100
2, 105216, Note_on_c, 0, 67, 100
2, 105344, Note_off_c, 0, 67, 100
2, 105408, Note_on_c, 0, 67, 100
2, 105536, Note_off_c, 0, 67, 100
2, 105600, Note_on_c, 0, 67, 100
2, 105664, Note_off_c, 0, 67, 100
2, 105696, Note_on_c, 0, 69, 100
2, 105824, Note_off_c, 0, 69, 100
2, 105888, Note_on_c, 0, 69, 100
2, 105952, Note_off_c, 0, 69, 100
2, 105984, Note_on_c, 0, 71, 100
2, 106048, Note_off_c, 0, 71, 100
2, 106080, Note_on_c, 0, 71, 100
2, 106144, Note_off_c, 0, 71, 100
2, 106176, Note_on_c, 0, 72, 100
2, 106304, Note_off_c, 0, 72, 100
2, 106368, Note_on_c, 0, 71, 100
2, 106496, Note_off_c, 0, 71, 100
2, 106560, Note_on_c, 0, 67, 100
2, 106624, Note_off_c, 0, 67, 100
2, 106656, Note_on_c, 0, 67, 100
2, 106720, Note_off_c, 0, 67, 100
2, 106752, Note_on_c, 0, 69, 100
2, 106880, Note_off_c, 0, 69, 100
2, 106944, Note_on_c, 0, 69, 100
2, 107072, Note_off_c, 0, 69, 100
2, 107136, Note_on_c, 0, 67, 100
2, 107200, Note_off_c, 0, 67, 100
2, 107232, Note_on_c, 0, 66, 100
2, 107424, Note_off_c, 0, 66, 100
2, 108000, Note_on_c, 0, 74, 100
2, 108192, Note_off_c, 0, 74, 100
2, 108288, Note_on_c, 0, 72, 100
2, 108352, Note_off_c, 0, 72, 100
2, 108384, Note_on_c, 0, 72, 100
2, 108512, Note_off_c, 0, 72, 100
2, 108576, Note_on_c, 0, 72, 100
2, 108704, Note_off_c, 0, 72, 100
2, 108768, Note_on_c, 0, 71, 100
2, 108896, Note_off_c, 0, 71, 100
2, 108960, Note_on_c, 0, 69, 100
2, 109088, Note_off_c, 0, 69, 100
2, 109152, Note_on_c, 0, 67, 100
2, 109216, Note_off_c, 0, 67, 100
2, 109536, Note_on_c, 0, 71, 100
2, 109600, Note_off_c, 0, 71, 100
2, 109632, Note_on_c, 0, 71, 100
2, 109760, Note_off_c, 0, 71, 100
2, 109824, Note_on_c, 0, 72, 100
2, 109952, Note_off_c, 0, 72, 100
2, 110016, Note_on_c, 0, 69, 100
2, 110080, Note_off_c, 0, 69, 100
2, 110112, Note_on_c, 0, 69, 100
2, 110176, Note_off_c, 0, 69, 100
2, 110208, Note_on_c, 0, 69, 100
2, 110336, Note_off_c, 0, 69, 100
2, 110400, Note_on_c, 0, 67, 100
2, 110464, Note_off_c, 0, 67, 100
2, 110496, Note_on_c, 0, 69, 100
2, 110624, Note_off_c, 0, 69, 100
2, 110688, Note_on_c, 0, 71, 100
2, 110880, Note_off_c, 0, 71, 100
2, 111264, Note_on_c, 0, 72, 100
2, 111328, Note_off_c, 0, 72, 100
2, 111360, Note_on_c, 0, 72, 100
2, 111488, Note_off_c, 0, 72, 100
2, 111552, Note_on_c, 0, 72, 100
2, 111680, Note_off_c, 0, 72, 100
2, 111744, Note_on_c, 0, 72, 100
2, 111808, Note_off_c, 0, 72, 100
2, 111840, Note_on_c, 0, 71, 100
2, 111968, Note_off_c, 0, 71, 100
2, 112032, Note_on_c, 0, 69, 100
2, 112160, Note_off_c, 0, 69, 100
2, 112224, Note_on_c, 0, 67, 100
2, 112416, Note_off_c, 0, 67, 100
2, 112704, Note_on_c, 0, 69, 100
2, 112768, Note_off_c, 0, 69, 100
2, 112800, Note_on_c, 0, 69, 100
2, 112864, Note_off_c, 0, 69, 100
2, 112896, Note_on_c, 0, 72, 100
2, 113024, Note_off_c, 0, 72, 100
2, 113088, Note_on_c, 0, 69, 100
2, 113216, Note_off_c, 0, 69, 100
2, 113280, Note_on_c, 0, 69, 100
2, 113472, Note_off_c, 0, 69, 100
2, 113568, Note_on_c, 0, 67, 100
2, 113632, Note_off_c, 0, 67, 100
2, 113664, Note_on_c, 0, 69, 100
2, 113728, Note_off_c, 0, 69, 100
2, 113760, Note_on_c, 0, 71, 100
2, 113952, Note_off_c, 0, 71, 100
2, 114336, Note_on_c, 0, 73, 100
2, 114400, Note_off_c, 0, 73, 100
2, 114432, Note_on_c, 0, 73, 100
2, 114560, Note_off_c, 0, 73, 100
2, 114624, Note_on_c, 0, 73, 100
2, 114752, Note_off_c, 0, 73, 100
2, 114816, Note_on_c, 0, 73, 100
2, 114880, Note_off_c, 0, 73, 100
2, 114912, Note_on_c, 0, 72, 100
2, 115040, Note_off_c, 0, 72, 100
2, 115104, Note_on_c, 0, 70, 100
2, 115232, Note_off_c, 0, 70, 100
2, 115296, Note_on_c, 0, 70, 100
2, 115360, Note_off_c, 0, 70, 100
2, 115392, Note_on_c, 0, 68, 100
2, 115520, Note_off_c, 0, 68, 100
2, 115680, Note_on_c, 0, 70, 100
2, 115744, Note_off_c, 0, 70, 100
2, 115776, Note_on_c, 0, 70, 100
2, 115904, Note_off_c, 0, 70, 100
2, 115968, Note_on_c, 0, 73, 100
2, 116032, Note_off_c, 0, 73, 100
2, 116064, Note_on_c, 0, 70, 100
2, 116192, Note_off_c, 0, 70, 100
2, 116256, Note_on_c, 0, 70, 100
2, 116320, Note_off_c, 0, 70, 100
2, 116352, Note_on_c, 0, 70, 100
2, 116480, Note_off_c, 0, 70, 100
2, 116544, Note_on_c, 0, 68, 100
2, 116608, Note_off_c, 0, 68, 100
2, 116640, Note_on_c, 0, 70, 100
2, 116768, Note_off_c, 0, 70, 100
2, 116832, Note_on_c, 0, 72, 100
2, 116960, Note_off_c, 0, 72, 100
2, 117024, Note_on_c, 0, 70, 100
2, 117088, Note_off_c, 0, 70, 100
2, 117312, Note_on_c, 0, 70, 100
2, 117376, Note_off_c, 0, 70, 100
2, 117408, Note_on_c, 0, 70, 100
2, 117472, Note_off_c, 0, 70, 100
2, 117504, Note_on_c, 0, 73, 100
2, 117632, Note_off_c, 0, 73, 100
2, 117696, Note_on_c, 0, 73, 100
2, 117760, Note_off_c, 0, 73, 100
2, 117792, Note_on_c, 0, 74, 100
2, 117856, Note_off_c, 0, 74, 100
2, 117984, Note_on_c, 0, 73, 100
2, 118112, Note_off_c, 0, 73, 100
2, 118176, Note_on_c, 0, 72, 100
2, 118240, Note_off_c, 0, 72, 100
2, 118272, Note_on_c, 0, 70, 100
2, 118336, Note_off_c, 0, 70, 100
2, 118368, Note_on_c, 0, 68, 100
2, 118432, Note_off_c, 0, 68, 100
2, 119040, Note_on_c, 0, 72, 100
2, 119168, Note_off_c, 0, 72, 100
2, 119232, Note_on_c, 0, 72, 100
2, 119296, Note_off_c, 0, 72, 100
2, 119328, Note_on_c, 0, 72, 100
2, 119456, Note_off_c, 0, 72, 100
2, 119520, Note_on_c, 0, 72, 100
2, 119648, Note_off_c, 0, 72, 100
2, 119712, Note_on_c, 0, 72, 100
2, 119776, Note_off_c, 0, 72, 100
2, 119808, Note_on_c, 0, 73, 100
2, 119936, Note_off_c, 0, 73, 100
2, 120000, Note_on_c, 0, 74, 100
2, 120256, Note_off_c, 0, 74, 100
2, 120384, Note_on_c, 0, 77, 100
2, 120512, Note_off_c, 0, 77, 100
2, 120576, Note_on_c, 0, 71, 100
2, 120704, Note_off_c, 0, 71, 100
2, 121056, Note_on_c, 0, 77, 100
2, 121248, Note_off_c, 0, 77, 100
2, 121248, End_track
3, 0, Start_track
3, 0, Control_c, 1, 0, 0
3, 0, Program_c, 1, 73
3, 0, Control_c, 1, 91, 33
3, 0, Control_c, 1, 93, 74
3, 1536, Note_on_c, 1, 76, 115
3, 1600, Note_off_c, 1, 76, 115
3, 1632, Note_on_c, 1, 79, 115
3, 1696, Note_off_c, 1, 79, 115
3, 1728, Note_on_c, 1, 76, 115
3, 1792, Note_off_c, 1, 76, 115
3, 1824, Note_on_c, 1, 79, 115
3, 1888, Note_off_c, 1, 79, 115
3, 1920, Note_on_c, 1, 76, 115
3, 1984, Note_off_c, 1, 76, 115
3, 2016, Note_on_c, 1, 79, 115
3, 2080, Note_off_c, 1, 79, 115
3, 2112, Note_on_c, 1, 76, 115
3, 2176, Note_off_c, 1, 76, 115
3, 2208, Note_on_c, 1, 79, 115
3, 2272, Note_off_c, 1, 79, 115
3, 2304, Note_on_c, 1, 86, 115
3, 2432, Note_off_c, 1, 86, 115
3, 2688, Note_on_c, 1, 88, 115
3, 2816, Note_off_c, 1, 88, 115
3, 2880, Note_on_c, 1, 87, 115
3, 2944, Note_off_c, 1, 87, 115
3, 2976, Note_on_c, 1, 86, 115
3, 3040, Note_off_c, 1, 86, 115
3, 3072, Note_on_c, 1, 86, 115
3, 4352, Note_off_c, 1, 86, 115
3, 4608, Note_on_c, 1, 76, 115
3, 4672, Note_off_c, 1, 76, 115
3, 4704, Note_on_c, 1, 79, 115
3, 4768, Note_off_c, 1, 79, 115
3, 4800, Note_on_c, 1, 76, 115
3, 4864, Note_off_c, 1, 76, 115
3, 4896, Note_on_c, 1, 79, 115
3, 4960, Note_off_c, 1, 79, 115
3, 4992, Note_on_c, 1, 76, 115
3, 5056, Note_off_c, 1, 76, 115
3, 5088, Note_on_c, 1, 79, 115
3, 5152, Note_off_c, 1, 79, 115
3, 5184, Note_on_c, 1, 76, 115
3, 5248, Note_off_c, 1, 76, 115
3, 5280, Note_on_c, 1, 79, 115
3, 5344, Note_off_c, 1, 79, 115
3, 5376, Note_on_c, 1, 86, 115
3, 5504, Note_off_c, 1, 86, 115
3, 5760, Note_on_c, 1, 88, 115
3, 5888, Note_off_c, 1, 88, 115
3, 5952, Note_on_c, 1, 87, 115
3, 6016, Note_off_c, 1, 87, 115
3, 6048, Note_on_c, 1, 86, 115
3, 6112, Note_off_c, 1, 86, 115
3, 6144, Note_on_c, 1, 86, 115
3, 7424, Note_off_c, 1, 86, 115
3, 7680, Note_on_c, 1, 76, 115
3, 7744, Note_off_c, 1, 76, 115
3, 7776, Note_on_c, 1, 79, 115
3, 7840, Note_off_c, 1, 79, 115
3, 7872, Note_on_c, 1, 76, 115
3, 7936, Note_off_c, 1, 76, 115
3, 7968, Note_on_c, 1, 79, 115
3, 8032, Note_off_c, 1, 79, 115
3, 8064, Note_on_c, 1, 76, 115
3, 8128, Note_off_c, 1, 76, 115
3, 8160, Note_on_c, 1, 79, 115
3, 8224, Note_off_c, 1, 79, 115
3, 8256, Note_on_c, 1, 76, 115
3, 8320, Note_off_c, 1, 76, 115
3, 8352, Note_on_c, 1, 79, 115
3, 8416, Note_off_c, 1, 79, 115
3, 8448, Note_on_c, 1, 86, 115
3, 8576, Note_off_c, 1, 86, 115
3, 8832, Note_on_c, 1, 88, 115
3, 8960, Note_off_c, 1, 88, 115
3, 9024, Note_on_c, 1, 87, 115
3, 9088, Note_off_c, 1, 87, 115
3, 9120, Note_on_c, 1, 86, 115
3, 9184, Note_off_c, 1, 86, 115
3, 9216, Note_on_c, 1, 86, 115
3, 10496, Note_off_c, 1, 86, 115
3, 10752, Note_on_c, 1, 76, 115
3, 10816, Note_off_c, 1, 76, 115
3, 10848, Note_on_c, 1, 79, 115
3, 10912, Note_off_c, 1, 79, 115
3, 10944, Note_on_c, 1, 76, 115
3, 11008, Note_off_c, 1, 76, 115
3, 11040, Note_on_c, 1, 79, 115
3, 11104, Note_off_c, 1, 79, 115
3, 11136, Note_on_c, 1, 76, 115
3, 11200, Note_off_c, 1, 76, 115
3, 11232, Note_on_c, 1, 79, 115
3, 11296, Note_off_c, 1, 79, 115
3, 11328, Note_on_c, 1, 76, 115
3, 11392, Note_off_c, 1, 76, 115
3, 11424, Note_on_c, 1, 79, 115
3, 11488, Note_off_c, 1, 79, 115
3, 11520, Note_on_c, 1, 86, 115
3, 11648, Note_off_c, 1, 86, 115
3, 11904, Note_on_c, 1, 88, 115
3, 12032, Note_off_c, 1, 88, 115
3, 12096, Note_on_c, 1, 87, 115
3, 12160, Note_off_c, 1, 87, 115
3, 12192, Note_on_c, 1, 86, 115
3, 12256, Note_off_c, 1, 86, 115
3, 12288, Note_on_c, 1, 86, 115
3, 13568, Note_off_c, 1, 86, 115
3, 13824, Note_on_c, 1, 76, 115
3, 13888, Note_off_c, 1, 76, 115
3, 13920, Note_on_c, 1, 79, 115
3, 13984, Note_off_c, 1, 79, 115
3, 14016, Note_on_c, 1, 76, 115
3, 14080, Note_off_c, 1, 76, 115
3, 14112, Note_on_c, 1, 79, 115
3, 14176, Note_off_c, 1, 79, 115
3, 14208, Note_on_c, 1, 86, 115
3, 14272, Note_off_c, 1, 86, 115
3, 14496, Note_on_c, 1, 71, 115
3, 14560, Note_off_c, 1, 71, 115
3, 14592, Note_on_c, 1, 76, 115
3, 14656, Note_off_c, 1, 76, 115
3, 14688, Note_on_c, 1, 76, 115
3, 14752, Note_off_c, 1, 76, 115
3, 14880, Note_on_c, 1, 76, 115
3, 14944, Note_off_c, 1, 76, 115
3, 14976, Note_on_c, 1, 76, 115
3, 15104, Note_off_c, 1, 76, 115
3, 15168, Note_on_c, 1, 75, 115
3, 15232, Note_off_c, 1, 75, 115
3, 15264, Note_on_c, 1, 75, 115
3, 15328, Note_off_c, 1, 75, 115
3, 15360, Note_on_c, 1, 74, 115
3, 15424, Note_off_c, 1, 74, 115
3, 15648, Note_on_c, 1, 74, 115
3, 15712, Note_off_c, 1, 74, 115
3, 15744, Note_on_c, 1, 74, 115
3, 15808, Note_off_c, 1, 74, 115
3, 16032, Note_on_c, 1, 74, 115
3, 16096, Note_off_c, 1, 74, 115
3, 16128, Note_on_c, 1, 74, 115
3, 16192, Note_off_c, 1, 74, 115
3, 16224, Note_on_c, 1, 74, 115
3, 16288, Note_off_c, 1, 74, 115
3, 16416, Note_on_c, 1, 74, 115
3, 16480, Note_off_c, 1, 74, 115
3, 16512, Note_on_c, 1, 74, 115
3, 16640, Note_off_c, 1, 74, 115
3, 16704, Note_on_c, 1, 74, 115
3, 16768, Note_off_c, 1, 74, 115
3, 16800, Note_on_c, 1, 74, 115
3, 16864, Note_off_c, 1, 74, 115
3, 16896, Note_on_c, 1, 76, 115
3, 16960, Note_off_c, 1, 76, 115
3, 16992, Note_on_c, 1, 79, 115
3, 17056, Note_off_c, 1, 79, 115
3, 17088, Note_on_c, 1, 76, 115
3, 17152, Note_off_c, 1, 76, 115
3, 17184, Note_on_c, 1, 79, 115
3, 17248, Note_off_c, 1, 79, 115
3, 17280, Note_on_c, 1, 86, 115
3, 17344, Note_off_c, 1, 86, 115
3, 17568, Note_on_c, 1, 71, 115
3, 17632, Note_off_c, 1, 71, 115
3, 17664, Note_on_c, 1, 76, 115
3, 17728, Note_off_c, 1, 76, 115
3, 17952, Note_on_c, 1, 76, 115
3, 18016, Note_off_c, 1, 76, 115
3, 18048, Note_on_c, 1, 76, 115
3, 18176, Note_off_c, 1, 76, 115
3, 18240, Note_on_c, 1, 75, 115
3, 18304, Note_off_c, 1, 75, 115
3, 18336, Note_on_c, 1, 75, 115
3, 18400, Note_off_c, 1, 75, 115
3, 18432, Note_on_c, 1, 74, 115
3, 18496, Note_off_c, 1, 74, 115
3, 18720, Note_on_c, 1, 74, 115
3, 18784, Note_off_c, 1, 74, 115
3, 18816, Note_on_c, 1, 74, 115
3, 18880, Note_off_c, 1, 74, 115
3, 19104, Note_on_c, 1, 74, 115
3, 19168, Note_off_c, 1, 74, 115
3, 19200, Note_on_c, 1, 74, 115
3, 19264, Note_off_c, 1, 74, 115
3, 19296, Note_on_c, 1, 74, 115
3, 19360, Note_off_c, 1, 74, 115
3, 19488, Note_on_c, 1, 74, 115
3, 19552, Note_off_c, 1, 74, 115
3, 19584, Note_on_c, 1, 74, 115
3, 19712, Note_off_c, 1, 74, 115
3, 19776, Note_on_c, 1, 74, 115
3, 19904, Note_off_c, 1, 74, 115
3, 19968, Note_on_c, 1, 76, 115
3, 20032, Note_off_c, 1, 76, 115
3, 20064, Note_on_c, 1, 79, 115
3, 20128, Note_off_c, 1, 79, 115
3, 20160, Note_on_c, 1, 76, 115
3, 20224, Note_off_c, 1, 76, 115
3, 20256, Note_on_c, 1, 79, 115
3, 20320, Note_off_c, 1, 79, 115
3, 20352, Note_on_c, 1, 86, 115
3, 20416, Note_off_c, 1, 86, 115
3, 20640, Note_on_c, 1, 71, 115
3, 20704, Note_off_c, 1, 71, 115
3, 20736, Note_on_c, 1, 76, 115
3, 20800, Note_off_c, 1, 76, 115
3, 20832, Note_on_c, 1, 76, 115
3, 20896, Note_off_c, 1, 76, 115
3, 21024, Note_on_c, 1, 76, 115
3, 21088, Note_off_c, 1, 76, 115
3, 21120, Note_on_c, 1, 76, 115
3, 21248, Note_off_c, 1, 76, 115
3, 21312, Note_on_c, 1, 76, 115
3, 21376, Note_off_c, 1, 76, 115
3, 21408, Note_on_c, 1, 76, 115
3, 21472, Note_off_c, 1, 76, 115
3, 21504, Note_on_c, 1, 75, 115
3, 21568, Note_off_c, 1, 75, 115
3, 21792, Note_on_c, 1, 75, 115
3, 21856, Note_off_c, 1, 75, 115
3, 21888, Note_on_c, 1, 75, 115
3, 21952, Note_off_c, 1, 75, 115
3, 22176, Note_on_c, 1, 75, 115
3, 22240, Note_off_c, 1, 75, 115
3, 22272, Note_on_c, 1, 75, 115
3, 22336, Note_off_c, 1, 75, 115
3, 22368, Note_on_c, 1, 75, 115
3, 22432, Note_off_c, 1, 75, 115
3, 22560, Note_on_c, 1, 75, 115
3, 22624, Note_off_c, 1, 75, 115
3, 22656, Note_on_c, 1, 75, 115
3, 22784, Note_off_c, 1, 75, 115
3, 22848, Note_on_c, 1, 77, 115
3, 22912, Note_off_c, 1, 77, 115
3, 22944, Note_on_c, 1, 77, 115
3, 23008, Note_off_c, 1, 77, 115
3, 23040, Note_on_c, 1, 78, 115
3, 23104, Note_off_c, 1, 78, 115
3, 23328, Note_on_c, 1, 78, 115
3, 23392, Note_off_c, 1, 78, 115
3, 23424, Note_on_c, 1, 78, 115
3, 23488, Note_off_c, 1, 78, 115
3, 23712, Note_on_c, 1, 78, 115
3, 23776, Note_off_c, 1, 78, 115
3, 23808, Note_on_c, 1, 78, 115
3, 23872, Note_off_c, 1, 78, 115
3, 23904, Note_on_c, 1, 78, 115
3, 23968, Note_off_c, 1, 78, 115
3, 24000, Note_on_c, 1, 81, 115
3, 24064, Note_off_c, 1, 81, 115
3, 24192, Note_on_c, 1, 78, 115
3, 24320, Note_off_c, 1, 78, 115
3, 24384, Note_on_c, 1, 77, 115
3, 24448, Note_off_c, 1, 77, 115
3, 24480, Note_on_c, 1, 77, 115
3, 24544, Note_off_c, 1, 77, 115
3, 24576, Note_on_c, 1, 76, 115
3, 24640, Note_off_c, 1, 76, 115
3, 24864, Note_on_c, 1, 76, 115
3, 24928, Note_off_c, 1, 76, 115
3, 24960, Note_on_c, 1, 76, 115
3, 25024, Note_off_c, 1, 76, 115
3, 25248, Note_on_c, 1, 76, 115
3, 25312, Note_off_c, 1, 76, 115
3, 25344, Note_on_c, 1, 76, 115
3, 25408, Note_off_c, 1, 76, 115
3, 25440, Note_on_c, 1, 76, 115
3, 25504, Note_off_c, 1, 76, 115
3, 25632, Note_on_c, 1, 76, 115
3, 25696, Note_off_c, 1, 76, 115
3, 25728, Note_on_c, 1, 76, 115
3, 25856, Note_off_c, 1, 76, 115
3, 25920, Note_on_c, 1, 78, 115
3, 25984, Note_off_c, 1, 78, 115
3, 26016, Note_on_c, 1, 78, 115
3, 26080, Note_off_c, 1, 78, 115
3, 26112, Note_on_c, 1, 79, 115
3, 26176, Note_off_c, 1, 79, 115
3, 26400, Note_on_c, 1, 79, 115
3, 26464, Note_off_c, 1, 79, 115
3, 26496, Note_on_c, 1, 79, 115
3, 26560, Note_off_c, 1, 79, 115
3, 26784, Note_on_c, 1, 79, 115
3, 26848, Note_off_c, 1, 79, 115
3, 26880, Note_on_c, 1, 79, 115
3, 26944, Note_off_c, 1, 79, 115
3, 26976, Note_on_c, 1, 79, 115
3, 27040, Note_off_c, 1, 79, 115
3, 27168, Note_on_c, 1, 79, 115
3, 27232, Note_off_c, 1, 79, 115
3, 27264, Note_on_c, 1, 79, 115
3, 27392, Note_off_c, 1, 79, 115
3, 27456, Note_on_c, 1, 78, 115
3, 27520, Note_off_c, 1, 78, 115
3, 27552, Note_on_c, 1, 78, 115
3, 27616, Note_off_c, 1, 78, 115
3, 27648, Note_on_c, 1, 77, 115
3, 27712, Note_off_c, 1, 77, 115
3, 27936, Note_on_c, 1, 77, 115
3, 28000, Note_off_c, 1, 77, 115
3, 28032, Note_on_c, 1, 77, 115
3, 28096, Note_off_c, 1, 77, 115
3, 28320, Note_on_c, 1, 77, 115
3, 28384, Note_off_c, 1, 77, 115
3, 28416, Note_on_c, 1, 77, 115
3, 28480, Note_off_c, 1, 77, 115
3, 28512, Note_on_c, 1, 77, 115
3, 28576, Note_off_c, 1, 77, 115
3, 28704, Note_on_c, 1, 77, 115
3, 28768, Note_off_c, 1, 77, 115
3, 28800, Note_on_c, 1, 77, 115
3, 28928, Note_off_c, 1, 77, 115
3, 28992, Note_on_c, 1, 79, 115
3, 29120, Note_off_c, 1, 79, 115
3, 29184, Note_on_c, 1, 79, 115
3, 29248, Note_off_c, 1, 79, 115
3, 29280, Note_on_c, 1, 81, 115
3, 29344, Note_off_c, 1, 81, 115
3, 29376, Note_on_c, 1, 79, 115
3, 29440, Note_off_c, 1, 79, 115
3, 29472, Note_on_c, 1, 81, 115
3, 29536, Note_off_c, 1, 81, 115
3, 29568, Note_on_c, 1, 79, 115
3, 29632, Note_off_c, 1, 79, 115
3, 29664, Note_on_c, 1, 81, 115
3, 29728, Note_off_c, 1, 81, 115
3, 29760, Note_on_c, 1, 79, 115
3, 29824, Note_off_c, 1, 79, 115
3, 29856, Note_on_c, 1, 81, 115
3, 29920, Note_off_c, 1, 81, 115
3, 29952, Note_on_c, 1, 79, 115
3, 30016, Note_off_c, 1, 79, 115
3, 30048, Note_on_c, 1, 81, 115
3, 30112, Note_off_c, 1, 81, 115
3, 30144, Note_on_c, 1, 79, 115
3, 30208, Note_off_c, 1, 79, 115
3, 30240, Note_on_c, 1, 81, 115
3, 30304, Note_off_c, 1, 81, 115
3, 30336, Note_on_c, 1, 79, 115
3, 30400, Note_off_c, 1, 79, 115
3, 30432, Note_on_c, 1, 81, 115
3, 30496, Note_off_c, 1, 81, 115
3, 30720, Note_on_c, 1, 86, 115
3, 30784, Note_off_c, 1, 86, 115
3, 30816, Note_on_c, 1, 88, 115
3, 30880, Note_off_c, 1, 88, 115
3, 30912, Note_on_c, 1, 86, 115
3, 30976, Note_off_c, 1, 86, 115
3, 31008, Note_on_c, 1, 88, 115
3, 31072, Note_off_c, 1, 88, 115
3, 31104, Note_on_c, 1, 86, 115
3, 31168, Note_off_c, 1, 86, 115
3, 31200, Note_on_c, 1, 88, 115
3, 31264, Note_off_c, 1, 88, 115
3, 31296, Note_on_c, 1, 86, 115
3, 31360, Note_off_c, 1, 86, 115
3, 31392, Note_on_c, 1, 88, 115
3, 31456, Note_off_c, 1, 88, 115
3, 31488, Note_on_c, 1, 86, 115
3, 31552, Note_off_c, 1, 86, 115
3, 31584, Note_on_c, 1, 88, 115
3, 31648, Note_off_c, 1, 88, 115
3, 31680, Note_on_c, 1, 86, 115
3, 31744, Note_off_c, 1, 86, 115
3, 31776, Note_on_c, 1, 88, 115
3, 31840, Note_off_c, 1, 88, 115
3, 31872, Note_on_c, 1, 86, 115
3, 31936, Note_off_c, 1, 86, 115
3, 31968, Note_on_c, 1, 88, 115
3, 32032, Note_off_c, 1, 88, 115
3, 32064, Note_on_c, 1, 86, 115
3, 32128, Note_off_c, 1, 86, 115
3, 32160, Note_on_c, 1, 88, 115
3, 32224, Note_off_c, 1, 88, 115
3, 83232, Note_on_c, 1, 86, 115
3, 83296, Note_off_c, 1, 86, 115
3, 83328, Note_on_c, 1, 88, 115
3, 83392, Note_off_c, 1, 88, 115
3, 83424, Note_on_c, 1, 88, 115
3, 83552, Note_off_c, 1, 88, 115
3, 83616, Note_on_c, 1, 86, 115
3, 83680, Note_off_c, 1, 86, 115
3, 83712, Note_on_c, 1, 88, 115
3, 83776, Note_off_c, 1, 88, 115
3, 83808, Note_on_c, 1, 88, 115
3, 83936, Note_off_c, 1, 88, 115
3, 84000, Note_on_c, 1, 84, 115
3, 84064, Note_off_c, 1, 84, 115
3, 84096, Note_on_c, 1, 81, 115
3, 84160, Note_off_c, 1, 81, 115
3, 84192, Note_on_c, 1, 79, 115
3, 84256, Note_off_c, 1, 79, 115
3, 84288, Note_on_c, 1, 81, 115
3, 84352, Note_off_c, 1, 81, 115
3, 84384, Note_on_c, 1, 81, 115
3, 84448, Note_off_c, 1, 81, 115
3, 84480, Note_on_c, 1, 81, 115
3, 84544, Note_off_c, 1, 81, 115
3, 84576, Note_on_c, 1, 84, 115
3, 84640, Note_off_c, 1, 84, 115
3, 84672, Note_on_c, 1, 81, 115
3, 84736, Note_off_c, 1, 81, 115
3, 84768, Note_on_c, 1, 79, 115
3, 84832, Note_off_c, 1, 79, 115
3, 84864, Note_on_c, 1, 81, 115
3, 84928, Note_off_c, 1, 81, 115
3, 84960, Note_on_c, 1, 84, 115
3, 85024, Note_off_c, 1, 84, 115
3, 85056, Note_on_c, 1, 81, 115
3, 85120, Note_off_c, 1, 81, 115
3, 85152, Note_on_c, 1, 79, 115
3, 85216, Note_off_c, 1, 79, 115
3, 85248, Note_on_c, 1, 81, 115
3, 85312, Note_off_c, 1, 81, 115
3, 85344, Note_on_c, 1, 81, 115
3, 85408, Note_off_c, 1, 81, 115
3, 85440, Note_on_c, 1, 81, 115
3, 85504, Note_off_c, 1, 81, 115
3, 85536, Note_on_c, 1, 79, 115
3, 85600, Note_off_c, 1, 79, 115
3, 85632, Note_on_c, 1, 76, 115
3, 85696, Note_off_c, 1, 76, 115
3, 85728, Note_on_c, 1, 81, 115
3, 85792, Note_off_c, 1, 81, 115
3, 85824, Note_on_c, 1, 79, 115
3, 85888, Note_off_c, 1, 79, 115
3, 85920, Note_on_c, 1, 76, 115
3, 85984, Note_off_c, 1, 76, 115
3, 86016, Note_on_c, 1, 81, 115
3, 86080, Note_off_c, 1, 81, 115
3, 86112, Note_on_c, 1, 79, 115
3, 86176, Note_off_c, 1, 79, 115
3, 86208, Note_on_c, 1, 81, 115
3, 86272, Note_off_c, 1, 81, 115
3, 86304, Note_on_c, 1, 84, 115
3, 86368, Note_off_c, 1, 84, 115
3, 86400, Note_on_c, 1, 81, 115
3, 86464, Note_off_c, 1, 81, 115
3, 86496, Note_on_c, 1, 84, 115
3, 86560, Note_off_c, 1, 84, 115
3, 86592, Note_on_c, 1, 86, 115
3, 86656, Note_off_c, 1, 86, 115
3, 86688, Note_on_c, 1, 88, 115
3, 86752, Note_off_c, 1, 88, 115
3, 86784, Note_on_c, 1, 88, 115
3, 86848, Note_off_c, 1, 88, 115
3, 86880, Note_on_c, 1, 88, 115
3, 86944, Note_off_c, 1, 88, 115
3, 86976, Note_on_c, 1, 91, 115
3, 87040, Note_off_c, 1, 91, 115
3, 87072, Note_on_c, 1, 91, 115
3, 87136, Note_off_c, 1, 91, 115
3, 87168, Note_on_c, 1, 88, 115
3, 87232, Note_off_c, 1, 88, 115
3, 87264, Note_on_c, 1, 86, 115
3, 87328, Note_off_c, 1, 86, 115
3, 87360, Note_on_c, 1, 88, 115
3, 87424, Note_off_c, 1, 88, 115
3, 87456, Note_on_c, 1, 88, 115
3, 87520, Note_off_c, 1, 88, 115
3, 87648, Note_on_c, 1, 69, 115
3, 87776, Note_off_c, 1, 69, 115
3, 87840, Note_on_c, 1, 88, 115
3, 87904, Note_off_c, 1, 88, 115
3, 87936, Note_on_c, 1, 86, 115
3, 88064, Note_off_c, 1, 86, 115
3, 88128, Note_on_c, 1, 87, 115
3, 88192, Note_off_c, 1, 87, 115
3, 88224, Note_on_c, 1, 86, 115
3, 88288, Note_off_c, 1, 86, 115
3, 88320, Note_on_c, 1, 84, 115
3, 88384, Note_off_c, 1, 84, 115
3, 88416, Note_on_c, 1, 81, 115
3, 88480, Note_off_c, 1, 81, 115
3, 88512, Note_on_c, 1, 79, 115
3, 88576, Note_off_c, 1, 79, 115
3, 88608, Note_on_c, 1, 84, 115
3, 88672, Note_off_c, 1, 84, 115
3, 88704, Note_on_c, 1, 81, 115
3, 88768, Note_off_c, 1, 81, 115
3, 88800, Note_on_c, 1, 79, 115
3, 88864, Note_off_c, 1, 79, 115
3, 88896, Note_on_c, 1, 81, 115
3, 88960, Note_off_c, 1, 81, 115
3, 88992, Note_on_c, 1, 81, 115
3, 89056, Note_off_c, 1, 81, 115
3, 89056, End_track
4, 0, Start_track
4, 0, Control_c, 2, 0, 0
4, 0, Program_c, 2, 2
4, 0, Control_c, 2, 10, 45
4, 0, Control_c, 2, 91, 39
4, 0, Control_c, 2, 93, 46
4, 1536, Note_on_c, 2, 52, 100
4, 1536, Note_on_c, 2, 59, 100
4, 1536, Note_on_c, 2, 64, 100
4, 1536, Note_on_c, 2, 67, 100
4, 1536, Note_on_c, 2, 71, 100
4, 1792, Note_off_c, 2, 52, 100
4, 1792, Note_off_c, 2, 59, 100
4, 1792, Note_off_c, 2, 64, 100
4, 1792, Note_off_c, 2, 67, 100
4, 1792, Note_off_c, 2, 71, 100
4, 2304, Note_on_c, 2, 52, 100
4, 2304, Note_on_c, 2, 59, 100
4, 2304, Note_on_c, 2, 64, 100
4, 2304, Note_on_c, 2, 67, 100
4, 2304, Note_on_c, 2, 71, 100
4, 2560, Note_off_c, 2, 52, 100
4, 2560, Note_off_c, 2, 59, 100
4, 2560, Note_off_c, 2, 64, 100
4, 2560, Note_off_c, 2, 67, 100
4, 2560, Note_off_c, 2, 71, 100
4, 3072, Note_on_c, 2, 52, 100
4, 3072, Note_on_c, 2, 59, 100
4, 3072, Note_on_c, 2, 64, 100
4, 3072, Note_on_c, 2, 67, 100
4, 3072, Note_on_c, 2, 71, 100
4, 3072, Note_on_c, 2, 76, 100
4, 3328, Note_off_c, 2, 52, 100
4, 3328, Note_off_c, 2, 59, 100
4, 3328, Note_off_c, 2, 64, 100
4, 3328, Note_off_c, 2, 67, 100
4, 3328, Note_off_c, 2, 71, 100
4, 3328, Note_off_c, 2, 76, 100
4, 3840, Note_on_c, 2, 76, 100
4, 3840, Note_on_c, 2, 83, 100
4, 3840, Note_on_c, 2, 88, 100
4, 3840, Note_on_c, 2, 91, 100
4, 4096, Note_off_c, 2, 76, 100
4, 4096, Note_off_c, 2, 83, 100
4, 4096, Note_off_c, 2, 88, 100
4, 4096, Note_off_c, 2, 91, 100
4, 4608, Note_on_c, 2, 60, 100
4, 4608, Note_on_c, 2, 67, 100
4, 4608, Note_on_c, 2, 72, 100
4, 4608, Note_on_c, 2, 76, 100
4, 4608, Note_on_c, 2, 79, 100
4, 4864, Note_off_c, 2, 60, 100
4, 4864, Note_off_c, 2, 67, 100
4, 4864, Note_off_c, 2, 72, 100
4, 4864, Note_off_c, 2, 76, 100
4, 4864, Note_off_c, 2, 79, 100
4, 5376, Note_on_c, 2, 60, 100
4, 5376, Note_on_c, 2, 67, 100
4, 5376, Note_on_c, 2, 72, 100
4, 5376, Note_on_c, 2, 76, 100
4, 5376, Note_on_c, 2, 79, 100
4, 5632, Note_off_c, 2, 60, 100
4, 5632, Note_off_c, 2, 67, 100
4, 5632, Note_off_c, 2, 72, 100
4, 5632, Note_off_c, 2, 76, 100
4, 5632, Note_off_c, 2, 79, 100
4, 6144, Note_on_c, 2, 60, 100
4, 6144, Note_on_c, 2, 67, 100
4, 6144, Note_on_c, 2, 72, 100
4, 6144, Note_on_c, 2, 76, 100
4, 6144, Note_on_c, 2, 79, 100
4, 6144, Note_on_c, 2, 84, 100
4, 6400, Note_off_c, 2, 60, 100
4, 6400, Note_off_c, 2, 67, 100
4, 6400, Note_off_c, 2, 72, 100
4, 6400, Note_off_c, 2, 76, 100
4, 6400, Note_off_c, 2, 79, 100
4, 6400, Note_off_c, 2, 84, 100
4, 6912, Note_on_c, 2, 96, 100
4, 6912, Note_on_c, 2, 84, 100
4, 6912, Note_on_c, 2, 79, 100
4, 6912, Note_on_c, 2, 91, 100
4, 7168, Note_off_c, 2, 96, 100
4, 7168, Note_off_c, 2, 84, 100
4, 7168, Note_off_c, 2, 79, 100
4, 7168, Note_off_c, 2, 91, 100
4, 7680, Note_on_c, 2, 62, 100
4, 7680, Note_on_c, 2, 67, 100
4, 7680, Note_on_c, 2, 71, 100
4, 7680, Note_on_c, 2, 74, 100
4, 7936, Note_off_c, 2, 62, 100
4, 7936, Note_off_c, 2, 67, 100
4, 7936, Note_off_c, 2, 71, 100
4, 7936, Note_off_c, 2, 74, 100
4, 8448, Note_on_c, 2, 62, 100
4, 8448, Note_on_c, 2, 67, 100
4, 8448, Note_on_c, 2, 71, 100
4, 8448, Note_on_c, 2, 74, 100
4, 8704, Note_off_c, 2, 62, 100
4, 8704, Note_off_c, 2, 67, 100
4, 8704, Note_off_c, 2, 71, 100
4, 8704, Note_off_c, 2, 74, 100
4, 9216, Note_on_c, 2, 62, 100
4, 9216, Note_on_c, 2, 67, 100
4, 9216, Note_on_c, 2, 71, 100
4, 9216, Note_on_c, 2, 74, 100
4, 9472, Note_off_c, 2, 62, 100
4, 9472, Note_off_c, 2, 67, 100
4, 9472, Note_off_c, 2, 71, 100
4, 9472, Note_off_c, 2, 74, 100
4, 9984, Note_on_c, 2, 79, 100
4, 9984, Note_on_c, 2, 83, 100
4, 9984, Note_on_c, 2, 86, 100
4, 9984, Note_on_c, 2, 91, 100
4, 10240, Note_off_c, 2, 79, 100
4, 10240, Note_off_c, 2, 83, 100
4, 10240, Note_off_c, 2, 86, 100
4, 10240, Note_off_c, 2, 91, 100
4, 10560, Note_on_c, 2, 62, 100
4, 10688, Note_off_c, 2, 62, 100
4, 10752, Note_on_c, 2, 64, 100
4, 10752, Note_on_c, 2, 69, 100
4, 10752, Note_on_c, 2, 76, 100
4, 10752, Note_on_c, 2, 81, 100
4, 11008, Note_off_c, 2, 64, 100
4, 11008, Note_off_c, 2, 69, 100
4, 11008, Note_off_c, 2, 76, 100
4, 11008, Note_off_c, 2, 81, 100
4, 11520, Note_on_c, 2, 64, 100
4, 11520, Note_on_c, 2, 69, 100
4, 11520, Note_on_c, 2, 76, 100
4, 11520, Note_on_c, 2, 81, 100
4, 11648, Note_off_c, 2, 64, 100
4, 11648, Note_off_c, 2, 69, 100
4, 11648, Note_off_c, 2, 76, 100
4, 11648, Note_off_c, 2, 81, 100
4, 12096, Note_on_c, 2, 64, 100
4, 12224, Note_off_c, 2, 64, 100
4, 12288, Note_on_c, 2, 65, 100
4, 12288, Note_on_c, 2, 70, 100
4, 12288, Note_on_c, 2, 74, 100
4, 12288, Note_on_c, 2, 77, 100
4, 12288, Note_on_c, 2, 82, 100
4, 12416, Note_off_c, 2, 65, 100
4, 12416, Note_off_c, 2, 70, 100
4, 12416, Note_off_c, 2, 74, 100
4, 12416, Note_off_c, 2, 77, 100
4, 12416, Note_off_c, 2, 82, 100
4, 12480, Note_on_c, 2, 52, 100
4, 12608, Note_off_c, 2, 52, 100
4, 13056, Note_on_c, 2, 65, 100
4, 13056, Note_on_c, 2, 70, 100
4, 13056, Note_on_c, 2, 74, 100
4, 13056, Note_on_c, 2, 77, 100
4, 13056, Note_on_c, 2, 82, 100
4, 13056, Note_on_c, 2, 89, 100
4, 13184, Note_off_c, 2, 65, 100
4, 13184, Note_off_c, 2, 70, 100
4, 13184, Note_off_c, 2, 74, 100
4, 13184, Note_off_c, 2, 77, 100
4, 13184, Note_off_c, 2, 82, 100
4, 13184, Note_off_c, 2, 89, 100
4, 13248, Note_on_c, 2, 52, 100
4, 13376, Note_off_c, 2, 52, 100
4, 24864, Note_on_c, 2, 72, 100
4, 24928, Note_off_c, 2, 72, 100
4, 24960, Note_on_c, 2, 72, 100
4, 24960, Note_on_c, 2, 76, 100
4, 24960, Note_on_c, 2, 79, 100
4, 25152, Note_off_c, 2, 72, 100
4, 25152, Note_off_c, 2, 76, 100
4, 25152, Note_off_c, 2, 79, 100
4, 25344, Note_on_c, 2, 60, 100
4, 25344, Note_on_c, 2, 67, 100
4, 25344, Note_on_c, 2, 72, 100
4, 25536, Note_off_c, 2, 60, 100
4, 25536, Note_off_c, 2, 67, 100
4, 25536, Note_off_c, 2, 72, 100
4, 25728, Note_on_c, 2, 72, 100
4, 25728, Note_on_c, 2, 76, 100
4, 25728, Note_on_c, 2, 79, 100
4, 25728, Note_on_c, 2, 84, 100
4, 25920, Note_off_c, 2, 72, 100
4, 25920, Note_off_c, 2, 76, 100
4, 25920, Note_off_c, 2, 79, 100
4, 25920, Note_off_c, 2, 84, 100
4, 26112, Note_on_c, 2, 72, 100
4, 26112, Note_on_c, 2, 79, 100
4, 26112, Note_on_c, 2, 84, 100
4, 26112, Note_on_c, 2, 87, 100
4, 26112, Note_on_c, 2, 91, 100
4, 26304, Note_off_c, 2, 72, 100
4, 26304, Note_off_c, 2, 79, 100
4, 26304, Note_off_c, 2, 84, 100
4, 26304, Note_off_c, 2, 87, 100
4, 26304, Note_off_c, 2, 91, 100
4, 26880, Note_on_c, 2, 72, 100
4, 26880, Note_on_c, 2, 79, 100
4, 26880, Note_on_c, 2, 84, 100
4, 26880, Note_on_c, 2, 87, 100
4, 26880, Note_on_c, 2, 91, 100
4, 27072, Note_off_c, 2, 72, 100
4, 27072, Note_off_c, 2, 79, 100
4, 27072, Note_off_c, 2, 84, 100
4, 27072, Note_off_c, 2, 87, 100
4, 27072, Note_off_c, 2, 91, 100
4, 27648, Note_on_c, 2, 58, 100
4, 27648, Note_on_c, 2, 65, 100
4, 27648, Note_on_c, 2, 70, 100
4, 27840, Note_off_c, 2, 58, 100
4, 27840, Note_off_c, 2, 65, 100
4, 27840, Note_off_c, 2, 70, 100
4, 28416, Note_on_c, 2, 58, 100
4, 28416, Note_on_c, 2, 65, 100
4, 28416, Note_on_c, 2, 70, 100
4, 28608, Note_off_c, 2, 58, 100
4, 28608, Note_off_c, 2, 65, 100
4, 28608, Note_off_c, 2, 70, 100
4, 29184, Note_on_c, 2, 57, 100
4, 29184, Note_on_c, 2, 73, 100
4, 29184, Note_on_c, 2, 76, 100
4, 29184, Note_on_c, 2, 81, 100
4, 29184, Note_on_c, 2, 85, 100
4, 29376, Note_off_c, 2, 57, 100
4, 29376, Note_off_c, 2, 73, 100
4, 29376, Note_off_c, 2, 76, 100
4, 29376, Note_off_c, 2, 81, 100
4, 29376, Note_off_c, 2, 85, 100
4, 29760, Note_on_c, 2, 57, 100
4, 29760, Note_on_c, 2, 73, 100
4, 29760, Note_on_c, 2, 76, 100
4, 29760, Note_on_c, 2, 81, 100
4, 29760, Note_on_c, 2, 85, 100
4, 29888, Note_off_c, 2, 57, 100
4, 29888, Note_off_c, 2, 73, 100
4, 29888, Note_off_c, 2, 76, 100
4, 29888, Note_off_c, 2, 81, 100
4, 29888, Note_off_c, 2, 85, 100
4, 30240, Note_on_c, 2, 57, 100
4, 30240, Note_on_c, 2, 73, 100
4, 30240, Note_on_c, 2, 76, 100
4, 30240, Note_on_c, 2, 81, 100
4, 30240, Note_on_c, 2, 85, 100
4, 30432, Note_off_c, 2, 57, 100
4, 30432, Note_off_c, 2, 73, 100
4, 30432, Note_off_c, 2, 76, 100
4, 30432, Note_off_c, 2, 81, 100
4, 30432, Note_off_c, 2, 85, 100
4, 30720, Note_on_c, 2, 52, 100
4, 30720, Note_on_c, 2, 59, 100
4, 30720, Note_on_c, 2, 64, 100
4, 30720, Note_on_c, 2, 69, 100
4, 30720, Note_on_c, 2, 71, 100
4, 30912, Note_off_c, 2, 52, 100
4, 30912, Note_off_c, 2, 59, 100
4, 30912, Note_off_c, 2, 64, 100
4, 30912, Note_off_c, 2, 69, 100
4, 30912, Note_off_c, 2, 71, 100
4, 31296, Note_on_c, 2, 64, 100
4, 31296, Note_on_c, 2, 71, 100
4, 31296, Note_on_c, 2, 69, 100
4, 31424, Note_off_c, 2, 64, 100
4, 31424, Note_off_c, 2, 71, 100
4, 31424, Note_off_c, 2, 69, 100
4, 31776, Note_on_c, 2, 52, 100
4, 31776, Note_on_c, 2, 64, 100
4, 31776, Note_on_c, 2, 71, 100
4, 31776, Note_on_c, 2, 76, 100
4, 31776, Note_on_c, 2, 81, 100
4, 31776, Note_on_c, 2, 83, 100
4, 31968, Note_off_c, 2, 52, 100
4, 31968, Note_off_c, 2, 64, 100
4, 31968, Note_off_c, 2, 71, 100
4, 31968, Note_off_c, 2, 76, 100
4, 31968, Note_off_c, 2, 81, 100
4, 31968, Note_off_c, 2, 83, 100
4, 32256, Note_on_c, 2, 52, 100
4, 32256, Note_on_c, 2, 59, 100
4, 32256, Note_on_c, 2, 64, 100
4, 32256, Note_on_c, 2, 67, 100
4, 32256, Note_on_c, 2, 71, 100
4, 32256, Note_on_c, 2, 76, 100
4, 32448, Note_off_c, 2, 52, 100
4, 32448, Note_off_c, 2, 59, 100
4, 32448, Note_off_c, 2, 64, 100
4, 32448, Note_off_c, 2, 67, 100
4, 32448, Note_off_c, 2, 71, 100
4, 32448, Note_off_c, 2, 76, 100
4, 32640, Note_on_c, 2, 52, 100
4, 32640, Note_on_c, 2, 59, 100
4, 32640, Note_on_c, 2, 64, 100
4, 32640, Note_on_c, 2, 67, 100
4, 32640, Note_on_c, 2, 71, 100
4, 32640, Note_on_c, 2, 76, 100
4, 32768, Note_off_c, 2, 52, 100
4, 32768, Note_off_c, 2, 59, 100
4, 32768, Note_off_c, 2, 64, 100
4, 32768, Note_off_c, 2, 67, 100
4, 32768, Note_off_c, 2, 71, 100
4, 32768, Note_off_c, 2, 76, 100
4, 33792, Note_on_c, 2, 53, 100
4, 33792, Note_on_c, 2, 60, 100
4, 33792, Note_on_c, 2, 65, 100
4, 33792, Note_on_c, 2, 69, 100
4, 33792, Note_on_c, 2, 72, 100
4, 33792, Note_on_c, 2, 77, 100
4, 33984, Note_off_c, 2, 53, 100
4, 33984, Note_off_c, 2, 60, 100
4, 33984, Note_off_c, 2, 65, 100
4, 33984, Note_off_c, 2, 69, 100
4, 33984, Note_off_c, 2, 72, 100
4, 33984, Note_off_c, 2, 77, 100
4, 34176, Note_on_c, 2, 53, 100
4, 34176, Note_on_c, 2, 60, 100
4, 34176, Note_on_c, 2, 65, 100
4, 34176, Note_on_c, 2, 69, 100
4, 34176, Note_on_c, 2, 72, 100
4, 34176, Note_on_c, 2, 77, 100
4, 34304, Note_off_c, 2, 53, 100
4, 34304, Note_off_c, 2, 60, 100
4, 34304, Note_off_c, 2, 65, 100
4, 34304, Note_off_c, 2, 69, 100
4, 34304, Note_off_c, 2, 72, 100
4, 34304, Note_off_c, 2, 77, 100
4, 35616, Note_on_c, 2, 55, 100
4, 35616, Note_on_c, 2, 62, 100
4, 35616, Note_on_c, 2, 67, 100
4, 35616, Note_on_c, 2, 71, 100
4, 35616, Note_on_c, 2, 74, 100
4, 35616, Note_on_c, 2, 79, 100
4, 35680, Note_off_c, 2, 55, 100
4, 35680, Note_off_c, 2, 62, 100
4, 35680, Note_off_c, 2, 67, 100
4, 35680, Note_off_c, 2, 71, 100
4, 35680, Note_off_c, 2, 74, 100
4, 35680, Note_off_c, 2, 79, 100
4, 36864, Note_on_c, 2, 62, 100
4, 36864, Note_on_c, 2, 69, 100
4, 36864, Note_on_c, 2, 74, 100
4, 36864, Note_on_c, 2, 81, 100
4, 36864, Note_on_c, 2, 86, 100
4, 37056, Note_off_c, 2, 62, 100
4, 37056, Note_off_c, 2, 69, 100
4, 37056, Note_off_c, 2, 74, 100
4, 37056, Note_off_c, 2, 81, 100
4, 37056, Note_off_c, 2, 86, 100
4, 37152, Note_on_c, 2, 62, 100
4, 37152, Note_on_c, 2, 69, 100
4, 37152, Note_on_c, 2, 74, 100
4, 37152, Note_on_c, 2, 81, 100
4, 37152, Note_on_c, 2, 86, 100
4, 37216, Note_off_c, 2, 62, 100
4, 37216, Note_off_c, 2, 69, 100
4, 37216, Note_off_c, 2, 74, 100
4, 37216, Note_off_c, 2, 81, 100
4, 37216, Note_off_c, 2, 86, 100
4, 37632, Note_on_c, 2, 74, 100
4, 37632, Note_on_c, 2, 78, 100
4, 37632, Note_on_c, 2, 81, 100
4, 37632, Note_on_c, 2, 86, 100
4, 37632, Note_on_c, 2, 90, 100
4, 37824, Note_off_c, 2, 74, 100
4, 37824, Note_off_c, 2, 78, 100
4, 37824, Note_off_c, 2, 81, 100
4, 37824, Note_off_c, 2, 86, 100
4, 37824, Note_off_c, 2, 90, 100
4, 37920, Note_on_c, 2, 62, 100
4, 37920, Note_on_c, 2, 69, 100
4, 37920, Note_on_c, 2, 74, 100
4, 37920, Note_on_c, 2, 81, 100
4, 37920, Note_on_c, 2, 86, 100
4, 37984, Note_off_c, 2, 62, 100
4, 37984, Note_off_c, 2, 69, 100
4, 37984, Note_off_c, 2, 74, 100
4, 37984, Note_off_c, 2, 81, 100
4, 37984, Note_off_c, 2, 86, 100
4, 38400, Note_on_c, 2, 52, 100
4, 38400, Note_on_c, 2, 59, 100
4, 38400, Note_on_c, 2, 64, 100
4, 38400, Note_on_c, 2, 67, 100
4, 38400, Note_on_c, 2, 71, 100
4, 38400, Note_on_c, 2, 76, 100
4, 38592, Note_off_c, 2, 52, 100
4, 38592, Note_off_c, 2, 59, 100
4, 38592, Note_off_c, 2, 64, 100
4, 38592, Note_off_c, 2, 67, 100
4, 38592, Note_off_c, 2, 71, 100
4, 38592, Note_off_c, 2, 76, 100
4, 38784, Note_on_c, 2, 52, 100
4, 38784, Note_on_c, 2, 59, 100
4, 38784, Note_on_c, 2, 64, 100
4, 38784, Note_on_c, 2, 67, 100
4, 38784, Note_on_c, 2, 71, 100
4, 38784, Note_on_c, 2, 76, 100
4, 38912, Note_off_c, 2, 52, 100
4, 38912, Note_off_c, 2, 59, 100
4, 38912, Note_off_c, 2, 64, 100
4, 38912, Note_off_c, 2, 67, 100
4, 38912, Note_off_c, 2, 71, 100
4, 38912, Note_off_c, 2, 76, 100
4, 39936, Note_on_c, 2, 53, 100
4, 39936, Note_on_c, 2, 60, 100
4, 39936, Note_on_c, 2, 65, 100
4, 39936, Note_on_c, 2, 69, 100
4, 39936, Note_on_c, 2, 72, 100
4, 39936, Note_on_c, 2, 77, 100
4, 40128, Note_off_c, 2, 53, 100
4, 40128, Note_off_c, 2, 60, 100
4, 40128, Note_off_c, 2, 65, 100
4, 40128, Note_off_c, 2, 69, 100
4, 40128, Note_off_c, 2, 72, 100
4, 40128, Note_off_c, 2, 77, 100
4, 40320, Note_on_c, 2, 53, 100
4, 40320, Note_on_c, 2, 60, 100
4, 40320, Note_on_c, 2, 65, 100
4, 40320, Note_on_c, 2, 69, 100
4, 40320, Note_on_c, 2, 72, 100
4, 40320, Note_on_c, 2, 77, 100
4, 40448, Note_off_c, 2, 53, 100
4, 40448, Note_off_c, 2, 60, 100
4, 40448, Note_off_c, 2, 65, 100
4, 40448, Note_off_c, 2, 69, 100
4, 40448, Note_off_c, 2, 72, 100
4, 40448, Note_off_c, 2, 77, 100
4, 41760, Note_on_c, 2, 55, 100
4, 41760, Note_on_c, 2, 62, 100
4, 41760, Note_on_c, 2, 67, 100
4, 41760, Note_on_c, 2, 71, 100
4, 41760, Note_on_c, 2, 74, 100
4, 41760, Note_on_c, 2, 79, 100
4, 41824, Note_off_c, 2, 55, 100
4, 41824, Note_off_c, 2, 62, 100
4, 41824, Note_off_c, 2, 67, 100
4, 41824, Note_off_c, 2, 71, 100
4, 41824, Note_off_c, 2, 74, 100
4, 41824, Note_off_c, 2, 79, 100
4, 43008, Note_on_c, 2, 62, 100
4, 43008, Note_on_c, 2, 69, 100
4, 43008, Note_on_c, 2, 74, 100
4, 43008, Note_on_c, 2, 81, 100
4, 43008, Note_on_c, 2, 86, 100
4, 43200, Note_off_c, 2, 62, 100
4, 43200, Note_off_c, 2, 69, 100
4, 43200, Note_off_c, 2, 74, 100
4, 43200, Note_off_c, 2, 81, 100
4, 43200, Note_off_c, 2, 86, 100
4, 43296, Note_on_c, 2, 62, 100
4, 43296, Note_on_c, 2, 69, 100
4, 43296, Note_on_c, 2, 74, 100
4, 43296, Note_on_c, 2, 81, 100
4, 43296, Note_on_c, 2, 86, 100
4, 43360, Note_off_c, 2, 62, 100
4, 43360, Note_off_c, 2, 69, 100
4, 43360, Note_off_c, 2, 74, 100
4, 43360, Note_off_c, 2, 81, 100
4, 43360, Note_off_c, 2, 86, 100
4, 43776, Note_on_c, 2, 74, 100
4, 43776, Note_on_c, 2, 78, 100
4, 43776, Note_on_c, 2, 81, 100
4, 43776, Note_on_c, 2, 86, 100
4, 43776, Note_on_c, 2, 90, 100
4, 43968, Note_off_c, 2, 74, 100
4, 43968, Note_off_c, 2, 78, 100
4, 43968, Note_off_c, 2, 81, 100
4, 43968, Note_off_c, 2, 86, 100
4, 43968, Note_off_c, 2, 90, 100
4, 44064, Note_on_c, 2, 62, 100
4, 44064, Note_on_c, 2, 69, 100
4, 44064, Note_on_c, 2, 74, 100
4, 44064, Note_on_c, 2, 81, 100
4, 44064, Note_on_c, 2, 86, 100
4, 44128, Note_off_c, 2, 62, 100
4, 44128, Note_off_c, 2, 69, 100
4, 44128, Note_off_c, 2, 74, 100
4, 44128, Note_off_c, 2, 81, 100
4, 44128, Note_off_c, 2, 86, 100
4, 44736, Note_on_c, 2, 57, 100
4, 44800, Note_off_c, 2, 57, 100
4, 44832, Note_on_c, 2, 57, 100
4, 44896, Note_off_c, 2, 57, 100
4, 45120, Note_on_c, 2, 64, 100
4, 45184, Note_off_c, 2, 64, 100
4, 45216, Note_on_c, 2, 57, 100
4, 45280, Note_off_c, 2, 57, 100
4, 45696, Note_on_c, 2, 62, 100
4, 45696, Note_on_c, 2, 55, 100
4, 45888, Note_off_c, 2, 62, 100
4, 45888, Note_off_c, 2, 55, 100
4, 46272, Note_on_c, 2, 57, 100
4, 46336, Note_off_c, 2, 57, 100
4, 46368, Note_on_c, 2, 57, 100
4, 46432, Note_off_c, 2, 57, 100
4, 46656, Note_on_c, 2, 64, 100
4, 46720, Note_off_c, 2, 64, 100
4, 46752, Note_on_c, 2, 57, 100
4, 46816, Note_off_c, 2, 57, 100
4, 47232, Note_on_c, 2, 62, 100
4, 47232, Note_on_c, 2, 55, 100
4, 47424, Note_off_c, 2, 62, 100
4, 47424, Note_off_c, 2, 55, 100
4, 47808, Note_on_c, 2, 57, 100
4, 47872, Note_off_c, 2, 57, 100
4, 47904, Note_on_c, 2, 57, 100
4, 47968, Note_off_c, 2, 57, 100
4, 48192, Note_on_c, 2, 64, 100
4, 48256, Note_off_c, 2, 64, 100
4, 48288, Note_on_c, 2, 57, 100
4, 48352, Note_off_c, 2, 57, 100
4, 48768, Note_on_c, 2, 62, 100
4, 48768, Note_on_c, 2, 55, 100
4, 48960, Note_off_c, 2, 62, 100
4, 48960, Note_off_c, 2, 55, 100
4, 49344, Note_on_c, 2, 57, 100
4, 49408, Note_off_c, 2, 57, 100
4, 49440, Note_on_c, 2, 57, 100
4, 49504, Note_off_c, 2, 57, 100
4, 49728, Note_on_c, 2, 64, 100
4, 49792, Note_off_c, 2, 64, 100
4, 49824, Note_on_c, 2, 57, 100
4, 49888, Note_off_c, 2, 57, 100
4, 50304, Note_on_c, 2, 62, 100
4, 50304, Note_on_c, 2, 55, 100
4, 50496, Note_off_c, 2, 62, 100
4, 50496, Note_off_c, 2, 55, 100
4, 50880, Note_on_c, 2, 58, 100
4, 50944, Note_off_c, 2, 58, 100
4, 50976, Note_on_c, 2, 58, 100
4, 51040, Note_off_c, 2, 58, 100
4, 51264, Note_on_c, 2, 65, 100
4, 51328, Note_off_c, 2, 65, 100
4, 51360, Note_on_c, 2, 58, 100
4, 51424, Note_off_c, 2, 58, 100
4, 51840, Note_on_c, 2, 63, 100
4, 51840, Note_on_c, 2, 56, 100
4, 52032, Note_off_c, 2, 63, 100
4, 52032, Note_off_c, 2, 56, 100
4, 52416, Note_on_c, 2, 58, 100
4, 52480, Note_off_c, 2, 58, 100
4, 52512, Note_on_c, 2, 58, 100
4, 52576, Note_off_c, 2, 58, 100
4, 52800, Note_on_c, 2, 65, 100
4, 52864, Note_off_c, 2, 65, 100
4, 52896, Note_on_c, 2, 58, 100
4, 52960, Note_off_c, 2, 58, 100
4, 53376, Note_on_c, 2, 63, 100
4, 53376, Note_on_c, 2, 56, 100
4, 53568, Note_off_c, 2, 63, 100
4, 53568, Note_off_c, 2, 56, 100
4, 53952, Note_on_c, 2, 58, 100
4, 54016, Note_off_c, 2, 58, 100
4, 54048, Note_on_c, 2, 58, 100
4, 54112, Note_off_c, 2, 58, 100
4, 54336, Note_on_c, 2, 65, 100
4, 54400, Note_off_c, 2, 65, 100
4, 54432, Note_on_c, 2, 58, 100
4, 54496, Note_off_c, 2, 58, 100
4, 54912, Note_on_c, 2, 63, 100
4, 54912, Note_on_c, 2, 56, 100
4, 55104, Note_off_c, 2, 63, 100
4, 55104, Note_off_c, 2, 56, 100
4, 55296, Note_on_c, 2, 72, 100
4, 55296, Note_on_c, 2, 67, 100
4, 55296, Note_on_c, 2, 60, 100
4, 55552, Note_off_c, 2, 72, 100
4, 55552, Note_off_c, 2, 67, 100
4, 55552, Note_off_c, 2, 60, 100
4, 56544, Note_on_c, 2, 77, 100
4, 56736, Note_off_c, 2, 77, 100
4, 57120, Note_on_c, 2, 69, 100
4, 57184, Note_off_c, 2, 69, 100
4, 57312, Note_on_c, 2, 59, 100
4, 57504, Note_off_c, 2, 59, 100
4, 57888, Note_on_c, 2, 52, 100
4, 57888, Note_on_c, 2, 59, 100
4, 57888, Note_on_c, 2, 64, 100
4, 57888, Note_on_c, 2, 67, 100
4, 57888, Note_on_c, 2, 71, 100
4, 57888, Note_on_c, 2, 76, 100
4, 57952, Note_off_c, 2, 52, 100
4, 57952, Note_off_c, 2, 59, 100
4, 57952, Note_off_c, 2, 64, 100
4, 57952, Note_off_c, 2, 67, 100
4, 57952, Note_off_c, 2, 71, 100
4, 57952, Note_off_c, 2, 76, 100
4, 57984, Note_on_c, 2, 52, 100
4, 57984, Note_on_c, 2, 59, 100
4, 57984, Note_on_c, 2, 64, 100
4, 57984, Note_on_c, 2, 67, 100
4, 57984, Note_on_c, 2, 71, 100
4, 57984, Note_on_c, 2, 76, 100
4, 58112, Note_off_c, 2, 52, 100
4, 58112, Note_off_c, 2, 59, 100
4, 58112, Note_off_c, 2, 64, 100
4, 58112, Note_off_c, 2, 67, 100
4, 58112, Note_off_c, 2, 71, 100
4, 58112, Note_off_c, 2, 76, 100
4, 58656, Note_on_c, 2, 71, 100
4, 58656, Note_on_c, 2, 64, 100
4, 58784, Note_off_c, 2, 71, 100
4, 58784, Note_off_c, 2, 64, 100
4, 59424, Note_on_c, 2, 53, 100
4, 59424, Note_on_c, 2, 60, 100
4, 59424, Note_on_c, 2, 65, 100
4, 59424, Note_on_c, 2, 69, 100
4, 59424, Note_on_c, 2, 72, 100
4, 59424, Note_on_c, 2, 77, 100
4, 59488, Note_off_c, 2, 53, 100
4, 59488, Note_off_c, 2, 60, 100
4, 59488, Note_off_c, 2, 65, 100
4, 59488, Note_off_c, 2, 69, 100
4, 59488, Note_off_c, 2, 72, 100
4, 59488, Note_off_c, 2, 77, 100
4, 59520, Note_on_c, 2, 53, 100
4, 59520, Note_on_c, 2, 60, 100
4, 59520, Note_on_c, 2, 65, 100
4, 59520, Note_on_c, 2, 69, 100
4, 59520, Note_on_c, 2, 72, 100
4, 59520, Note_on_c, 2, 77, 100
4, 59648, Note_off_c, 2, 53, 100
4, 59648, Note_off_c, 2, 60, 100
4, 59648, Note_off_c, 2, 65, 100
4, 59648, Note_off_c, 2, 69, 100
4, 59648, Note_off_c, 2, 72, 100
4, 59648, Note_off_c, 2, 77, 100
4, 60192, Note_on_c, 2, 77, 100
4, 60192, Note_on_c, 2, 72, 100
4, 60320, Note_off_c, 2, 77, 100
4, 60320, Note_off_c, 2, 72, 100
4, 60384, Note_on_c, 2, 57, 100
4, 60448, Note_off_c, 2, 57, 100
4, 60480, Note_on_c, 2, 60, 100
4, 60608, Note_off_c, 2, 60, 100
4, 60672, Note_on_c, 2, 55, 100
4, 60672, Note_on_c, 2, 62, 100
4, 60672, Note_on_c, 2, 67, 100
4, 60672, Note_on_c, 2, 71, 100
4, 60672, Note_on_c, 2, 74, 100
4, 60672, Note_on_c, 2, 79, 100
4, 60864, Note_off_c, 2, 55, 100
4, 60864, Note_off_c, 2, 62, 100
4, 60864, Note_off_c, 2, 67, 100
4, 60864, Note_off_c, 2, 71, 100
4, 60864, Note_off_c, 2, 74, 100
4, 60864, Note_off_c, 2, 79, 100
4, 61440, Note_on_c, 2, 67, 100
4, 61440, Note_on_c, 2, 71, 100
4, 61440, Note_on_c, 2, 74, 100
4, 61440, Note_on_c, 2, 79, 100
4, 61440, Note_on_c, 2, 83, 100
4, 61504, Note_off_c, 2, 67, 100
4, 61504, Note_off_c, 2, 71, 100
4, 61504, Note_off_c, 2, 74, 100
4, 61504, Note_off_c, 2, 79, 100
4, 61504, Note_off_c, 2, 83, 100
4, 61536, Note_on_c, 2, 66, 100
4, 61664, Note_off_c, 2, 66, 100
4, 61920, Note_on_c, 2, 57, 100
4, 61984, Note_off_c, 2, 57, 100
4, 62016, Note_on_c, 2, 60, 100
4, 62144, Note_off_c, 2, 60, 100
4, 62208, Note_on_c, 2, 62, 100
4, 62208, Note_on_c, 2, 69, 100
4, 62208, Note_on_c, 2, 74, 100
4, 62208, Note_on_c, 2, 78, 100
4, 62400, Note_off_c, 2, 62, 100
4, 62400, Note_off_c, 2, 69, 100
4, 62400, Note_off_c, 2, 74, 100
4, 62400, Note_off_c, 2, 78, 100
4, 62496, Note_on_c, 2, 62, 100
4, 62496, Note_on_c, 2, 69, 100
4, 62496, Note_on_c, 2, 74, 100
4, 62496, Note_on_c, 2, 78, 100
4, 62560, Note_off_c, 2, 62, 100
4, 62560, Note_off_c, 2, 69, 100
4, 62560, Note_off_c, 2, 74, 100
4, 62560, Note_off_c, 2, 78, 100
4, 62784, Note_on_c, 2, 86, 100
4, 62784, Note_on_c, 2, 90, 100
4, 62848, Note_off_c, 2, 86, 100
4, 62848, Note_off_c, 2, 90, 100
4, 62976, Note_on_c, 2, 74, 100
4, 62976, Note_on_c, 2, 78, 100
4, 62976, Note_on_c, 2, 81, 100
4, 62976, Note_on_c, 2, 90, 100
4, 62976, Note_on_c, 2, 86, 100
4, 63104, Note_off_c, 2, 74, 100
4, 63104, Note_off_c, 2, 78, 100
4, 63104, Note_off_c, 2, 81, 100
4, 63104, Note_off_c, 2, 90, 100
4, 63104, Note_off_c, 2, 86, 100
4, 64032, Note_on_c, 2, 52, 100
4, 64032, Note_on_c, 2, 59, 100
4, 64032, Note_on_c, 2, 64, 100
4, 64032, Note_on_c, 2, 67, 100
4, 64032, Note_on_c, 2, 71, 100
4, 64032, Note_on_c, 2, 76, 100
4, 64096, Note_off_c, 2, 52, 100
4, 64096, Note_off_c, 2, 59, 100
4, 64096, Note_off_c, 2, 64, 100
4, 64096, Note_off_c, 2, 67, 100
4, 64096, Note_off_c, 2, 71, 100
4, 64096, Note_off_c, 2, 76, 100
4, 64128, Note_on_c, 2, 52, 100
4, 64128, Note_on_c, 2, 59, 100
4, 64128, Note_on_c, 2, 64, 100
4, 64128, Note_on_c, 2, 67, 100
4, 64128, Note_on_c, 2, 71, 100
4, 64128, Note_on_c, 2, 76, 100
4, 64256, Note_off_c, 2, 52, 100
4, 64256, Note_off_c, 2, 59, 100
4, 64256, Note_off_c, 2, 64, 100
4, 64256, Note_off_c, 2, 67, 100
4, 64256, Note_off_c, 2, 71, 100
4, 64256, Note_off_c, 2, 76, 100
4, 64800, Note_on_c, 2, 71, 100
4, 64800, Note_on_c, 2, 64, 100
4, 64928, Note_off_c, 2, 71, 100
4, 64928, Note_off_c, 2, 64, 100
4, 65568, Note_on_c, 2, 53, 100
4, 65568, Note_on_c, 2, 60, 100
4, 65568, Note_on_c, 2, 65, 100
4, 65568, Note_on_c, 2, 69, 100
4, 65568, Note_on_c, 2, 72, 100
4, 65568, Note_on_c, 2, 77, 100
4, 65632, Note_off_c, 2, 53, 100
4, 65632, Note_off_c, 2, 60, 100
4, 65632, Note_off_c, 2, 65, 100
4, 65632, Note_off_c, 2, 69, 100
4, 65632, Note_off_c, 2, 72, 100
4, 65632, Note_off_c, 2, 77, 100
4, 65664, Note_on_c, 2, 53, 100
4, 65664, Note_on_c, 2, 60, 100
4, 65664, Note_on_c, 2, 65, 100
4, 65664, Note_on_c, 2, 69, 100
4, 65664, Note_on_c, 2, 72, 100
4, 65664, Note_on_c, 2, 77, 100
4, 65792, Note_off_c, 2, 53, 100
4, 65792, Note_off_c, 2, 60, 100
4, 65792, Note_off_c, 2, 65, 100
4, 65792, Note_off_c, 2, 69, 100
4, 65792, Note_off_c, 2, 72, 100
4, 65792, Note_off_c, 2, 77, 100
4, 66336, Note_on_c, 2, 77, 100
4, 66336, Note_on_c, 2, 72, 100
4, 66464, Note_off_c, 2, 77, 100
4, 66464, Note_off_c, 2, 72, 100
4, 66528, Note_on_c, 2, 57, 100
4, 66592, Note_off_c, 2, 57, 100
4, 66624, Note_on_c, 2, 60, 100
4, 66752, Note_off_c, 2, 60, 100
4, 66816, Note_on_c, 2, 55, 100
4, 66816, Note_on_c, 2, 62, 100
4, 66816, Note_on_c, 2, 67, 100
4, 66816, Note_on_c, 2, 71, 100
4, 66816, Note_on_c, 2, 74, 100
4, 66816, Note_on_c, 2, 79, 100
4, 67008, Note_off_c, 2, 55, 100
4, 67008, Note_off_c, 2, 62, 100
4, 67008, Note_off_c, 2, 67, 100
4, 67008, Note_off_c, 2, 71, 100
4, 67008, Note_off_c, 2, 74, 100
4, 67008, Note_off_c, 2, 79, 100
4, 67584, Note_on_c, 2, 67, 100
4, 67584, Note_on_c, 2, 71, 100
4, 67584, Note_on_c, 2, 74, 100
4, 67584, Note_on_c, 2, 79, 100
4, 67584, Note_on_c, 2, 83, 100
4, 67648, Note_off_c, 2, 67, 100
4, 67648, Note_off_c, 2, 71, 100
4, 67648, Note_off_c, 2, 74, 100
4, 67648, Note_off_c, 2, 79, 100
4, 67648, Note_off_c, 2, 83, 100
4, 67680, Note_on_c, 2, 66, 100
4, 67808, Note_off_c, 2, 66, 100
4, 68064, Note_on_c, 2, 57, 100
4, 68128, Note_off_c, 2, 57, 100
4, 68160, Note_on_c, 2, 60, 100
4, 68288, Note_off_c, 2, 60, 100
4, 68352, Note_on_c, 2, 62, 100
4, 68352, Note_on_c, 2, 69, 100
4, 68352, Note_on_c, 2, 74, 100
4, 68352, Note_on_c, 2, 78, 100
4, 68544, Note_off_c, 2, 62, 100
4, 68544, Note_off_c, 2, 69, 100
4, 68544, Note_off_c, 2, 74, 100
4, 68544, Note_off_c, 2, 78, 100
4, 68640, Note_on_c, 2, 62, 100
4, 68640, Note_on_c, 2, 69, 100
4, 68640, Note_on_c, 2, 74, 100
4, 68640, Note_on_c, 2, 78, 100
4, 68704, Note_off_c, 2, 62, 100
4, 68704, Note_off_c, 2, 69, 100
4, 68704, Note_off_c, 2, 74, 100
4, 68704, Note_off_c, 2, 78, 100
4, 68928, Note_on_c, 2, 86, 100
4, 68928, Note_on_c, 2, 90, 100
4, 68992, Note_off_c, 2, 86, 100
4, 68992, Note_off_c, 2, 90, 100
4, 69120, Note_on_c, 2, 74, 100
4, 69120, Note_on_c, 2, 78, 100
4, 69120, Note_on_c, 2, 81, 100
4, 69120, Note_on_c, 2, 90, 100
4, 69120, Note_on_c, 2, 86, 100
4, 69248, Note_off_c, 2, 74, 100
4, 69248, Note_off_c, 2, 78, 100
4, 69248, Note_off_c, 2, 81, 100
4, 69248, Note_off_c, 2, 90, 100
4, 69248, Note_off_c, 2, 86, 100
4, 70080, Note_on_c, 2, 57, 100
4, 70144, Note_off_c, 2, 57, 100
4, 70176, Note_on_c, 2, 57, 100
4, 70240, Note_off_c, 2, 57, 100
4, 70464, Note_on_c, 2, 64, 100
4, 70528, Note_off_c, 2, 64, 100
4, 70560, Note_on_c, 2, 57, 100
4, 70624, Note_off_c, 2, 57, 100
4, 71040, Note_on_c, 2, 62, 100
4, 71040, Note_on_c, 2, 55, 100
4, 71232, Note_off_c, 2, 62, 100
4, 71232, Note_off_c, 2, 55, 100
4, 71616, Note_on_c, 2, 57, 100
4, 71680, Note_off_c, 2, 57, 100
4, 71712, Note_on_c, 2, 57, 100
4, 71776, Note_off_c, 2, 57, 100
4, 72000, Note_on_c, 2, 64, 100
4, 72064, Note_off_c, 2, 64, 100
4, 72096, Note_on_c, 2, 57, 100
4, 72160, Note_off_c, 2, 57, 100
4, 72576, Note_on_c, 2, 62, 100
4, 72576, Note_on_c, 2, 55, 100
4, 72768, Note_off_c, 2, 62, 100
4, 72768, Note_off_c, 2, 55, 100
4, 73152, Note_on_c, 2, 57, 100
4, 73216, Note_off_c, 2, 57, 100
4, 73248, Note_on_c, 2, 57, 100
4, 73312, Note_off_c, 2, 57, 100
4, 73536, Note_on_c, 2, 64, 100
4, 73600, Note_off_c, 2, 64, 100
4, 73632, Note_on_c, 2, 57, 100
4, 73696, Note_off_c, 2, 57, 100
4, 74112, Note_on_c, 2, 62, 100
4, 74112, Note_on_c, 2, 55, 100
4, 74304, Note_off_c, 2, 62, 100
4, 74304, Note_off_c, 2, 55, 100
4, 74688, Note_on_c, 2, 57, 100
4, 74752, Note_off_c, 2, 57, 100
4, 74784, Note_on_c, 2, 57, 100
4, 74848, Note_off_c, 2, 57, 100
4, 75072, Note_on_c, 2, 64, 100
4, 75136, Note_off_c, 2, 64, 100
4, 75168, Note_on_c, 2, 57, 100
4, 75232, Note_off_c, 2, 57, 100
4, 75648, Note_on_c, 2, 62, 100
4, 75648, Note_on_c, 2, 55, 100
4, 75840, Note_off_c, 2, 62, 100
4, 75840, Note_off_c, 2, 55, 100
4, 76224, Note_on_c, 2, 58, 100
4, 76288, Note_off_c, 2, 58, 100
4, 76320, Note_on_c, 2, 58, 100
4, 76384, Note_off_c, 2, 58, 100
4, 76608, Note_on_c, 2, 65, 100
4, 76672, Note_off_c, 2, 65, 100
4, 76704, Note_on_c, 2, 58, 100
4, 76768, Note_off_c, 2, 58, 100
4, 77184, Note_on_c, 2, 63, 100
4, 77184, Note_on_c, 2, 56, 100
4, 77376, Note_off_c, 2, 63, 100
4, 77376, Note_off_c, 2, 56, 100
4, 77760, Note_on_c, 2, 58, 100
4, 77824, Note_off_c, 2, 58, 100
4, 77856, Note_on_c, 2, 58, 100
4, 77920, Note_off_c, 2, 58, 100
4, 78144, Note_on_c, 2, 65, 100
4, 78208, Note_off_c, 2, 65, 100
4, 78240, Note_on_c, 2, 58, 100
4, 78304, Note_off_c, 2, 58, 100
4, 78720, Note_on_c, 2, 63, 100
4, 78720, Note_on_c, 2, 56, 100
4, 78912, Note_off_c, 2, 63, 100
4, 78912, Note_off_c, 2, 56, 100
4, 79296, Note_on_c, 2, 58, 100
4, 79360, Note_off_c, 2, 58, 100
4, 79392, Note_on_c, 2, 58, 100
4, 79456, Note_off_c, 2, 58, 100
4, 79680, Note_on_c, 2, 65, 100
4, 79744, Note_off_c, 2, 65, 100
4, 79776, Note_on_c, 2, 58, 100
4, 79840, Note_off_c, 2, 58, 100
4, 80256, Note_on_c, 2, 63, 100
4, 80256, Note_on_c, 2, 56, 100
4, 80448, Note_off_c, 2, 63, 100
4, 80448, Note_off_c, 2, 56, 100
4, 80640, Note_on_c, 2, 72, 100
4, 80640, Note_on_c, 2, 67, 100
4, 80640, Note_on_c, 2, 60, 100
4, 80896, Note_off_c, 2, 72, 100
4, 80896, Note_off_c, 2, 67, 100
4, 80896, Note_off_c, 2, 60, 100
4, 81888, Note_on_c, 2, 77, 100
4, 82080, Note_off_c, 2, 77, 100
4, 82464, Note_on_c, 2, 69, 100
4, 82528, Note_off_c, 2, 69, 100
4, 82656, Note_on_c, 2, 59, 100
4, 82848, Note_off_c, 2, 59, 100
4, 83136, Note_on_c, 2, 57, 100
4, 83200, Note_off_c, 2, 57, 100
4, 83232, Note_on_c, 2, 57, 100
4, 83296, Note_off_c, 2, 57, 100
4, 83520, Note_on_c, 2, 64, 100
4, 83584, Note_off_c, 2, 64, 100
4, 83616, Note_on_c, 2, 57, 100
4, 83680, Note_off_c, 2, 57, 100
4, 84096, Note_on_c, 2, 62, 100
4, 84096, Note_on_c, 2, 55, 100
4, 84288, Note_off_c, 2, 62, 100
4, 84288, Note_off_c, 2, 55, 100
4, 84672, Note_on_c, 2, 57, 100
4, 84736, Note_off_c, 2, 57, 100
4, 84768, Note_on_c, 2, 57, 100
4, 84832, Note_off_c, 2, 57, 100
4, 85056, Note_on_c, 2, 64, 100
4, 85120, Note_off_c, 2, 64, 100
4, 85152, Note_on_c, 2, 57, 100
4, 85216, Note_off_c, 2, 57, 100
4, 85632, Note_on_c, 2, 62, 100
4, 85632, Note_on_c, 2, 55, 100
4, 85824, Note_off_c, 2, 62, 100
4, 85824, Note_off_c, 2, 55, 100
4, 86208, Note_on_c, 2, 57, 100
4, 86272, Note_off_c, 2, 57, 100
4, 86304, Note_on_c, 2, 57, 100
4, 86368, Note_off_c, 2, 57, 100
4, 86592, Note_on_c, 2, 64, 100
4, 86656, Note_off_c, 2, 64, 100
4, 86688, Note_on_c, 2, 57, 100
4, 86752, Note_off_c, 2, 57, 100
4, 87168, Note_on_c, 2, 62, 100
4, 87168, Note_on_c, 2, 55, 100
4, 87360, Note_off_c, 2, 62, 100
4, 87360, Note_off_c, 2, 55, 100
4, 87744, Note_on_c, 2, 57, 100
4, 87808, Note_off_c, 2, 57, 100
4, 87840, Note_on_c, 2, 57, 100
4, 87904, Note_off_c, 2, 57, 100
4, 88128, Note_on_c, 2, 64, 100
4, 88192, Note_off_c, 2, 64, 100
4, 88224, Note_on_c, 2, 57, 100
4, 88288, Note_off_c, 2, 57, 100
4, 88704, Note_on_c, 2, 62, 100
4, 88704, Note_on_c, 2, 55, 100
4, 88896, Note_off_c, 2, 62, 100
4, 88896, Note_off_c, 2, 55, 100
4, 89280, Note_on_c, 2, 58, 100
4, 89344, Note_off_c, 2, 58, 100
4, 89376, Note_on_c, 2, 58, 100
4, 89440, Note_off_c, 2, 58, 100
4, 89664, Note_on_c, 2, 65, 100
4, 89728, Note_off_c, 2, 65, 100
4, 89760, Note_on_c, 2, 58, 100
4, 89824, Note_off_c, 2, 58, 100
4, 90240, Note_on_c, 2, 63, 100
4, 90240, Note_on_c, 2, 56, 100
4, 90432, Note_off_c, 2, 63, 100
4, 90432, Note_off_c, 2, 56, 100
4, 90816, Note_on_c, 2, 58, 100
4, 90880, Note_off_c, 2, 58, 100
4, 90912, Note_on_c, 2, 58, 100
4, 90976, Note_off_c, 2, 58, 100
4, 91200, Note_on_c, 2, 65, 100
4, 91264, Note_off_c, 2, 65, 100
4, 91296, Note_on_c, 2, 58, 100
4, 91360, Note_off_c, 2, 58, 100
4, 91776, Note_on_c, 2, 63, 100
4, 91776, Note_on_c, 2, 56, 100
4, 91968, Note_off_c, 2, 63, 100
4, 91968, Note_off_c, 2, 56, 100
4, 92352, Note_on_c, 2, 58, 100
4, 92416, Note_off_c, 2, 58, 100
4, 92448, Note_on_c, 2, 58, 100
4, 92512, Note_off_c, 2, 58, 100
4, 92736, Note_on_c, 2, 65, 100
4, 92800, Note_off_c, 2, 65, 100
4, 92832, Note_on_c, 2, 58, 100
4, 92896, Note_off_c, 2, 58, 100
4, 93312, Note_on_c, 2, 63, 100
4, 93312, Note_on_c, 2, 56, 100
4, 93504, Note_off_c, 2, 63, 100
4, 93504, Note_off_c, 2, 56, 100
4, 93696, Note_on_c, 2, 72, 100
4, 93696, Note_on_c, 2, 67, 100
4, 93696, Note_on_c, 2, 60, 100
4, 93952, Note_off_c, 2, 72, 100
4, 93952, Note_off_c, 2, 67, 100
4, 93952, Note_off_c, 2, 60, 100
4, 94944, Note_on_c, 2, 77, 100
4, 95136, Note_off_c, 2, 77, 100
4, 95520, Note_on_c, 2, 69, 100
4, 95584, Note_off_c, 2, 69, 100
4, 95712, Note_on_c, 2, 59, 100
4, 95904, Note_off_c, 2, 59, 100
4, 96000, Note_on_c, 2, 52, 100
4, 96000, Note_on_c, 2, 59, 100
4, 96000, Note_on_c, 2, 64, 100
4, 96000, Note_on_c, 2, 67, 100
4, 96000, Note_on_c, 2, 71, 100
4, 96000, Note_on_c, 2, 76, 100
4, 96192, Note_off_c, 2, 52, 100
4, 96192, Note_off_c, 2, 59, 100
4, 96192, Note_off_c, 2, 64, 100
4, 96192, Note_off_c, 2, 67, 100
4, 96192, Note_off_c, 2, 71, 100
4, 96192, Note_off_c, 2, 76, 100
4, 96384, Note_on_c, 2, 52, 100
4, 96384, Note_on_c, 2, 59, 100
4, 96384, Note_on_c, 2, 64, 100
4, 96384, Note_on_c, 2, 67, 100
4, 96384, Note_on_c, 2, 71, 100
4, 96384, Note_on_c, 2, 76, 100
4, 96512, Note_off_c, 2, 52, 100
4, 96512, Note_off_c, 2, 59, 100
4, 96512, Note_off_c, 2, 64, 100
4, 96512, Note_off_c, 2, 67, 100
4, 96512, Note_off_c, 2, 71, 100
4, 96512, Note_off_c, 2, 76, 100
4, 97536, Note_on_c, 2, 53, 100
4, 97536, Note_on_c, 2, 60, 100
4, 97536, Note_on_c, 2, 65, 100
4, 97536, Note_on_c, 2, 69, 100
4, 97536, Note_on_c, 2, 72, 100
4, 97536, Note_on_c, 2, 77, 100
4, 97728, Note_off_c, 2, 53, 100
4, 97728, Note_off_c, 2, 60, 100
4, 97728, Note_off_c, 2, 65, 100
4, 97728, Note_off_c, 2, 69, 100
4, 97728, Note_off_c, 2, 72, 100
4, 97728, Note_off_c, 2, 77, 100
4, 97920, Note_on_c, 2, 53, 100
4, 97920, Note_on_c, 2, 60, 100
4, 97920, Note_on_c, 2, 65, 100
4, 97920, Note_on_c, 2, 69, 100
4, 97920, Note_on_c, 2, 72, 100
4, 97920, Note_on_c, 2, 77, 100
4, 98048, Note_off_c, 2, 53, 100
4, 98048, Note_off_c, 2, 60, 100
4, 98048, Note_off_c, 2, 65, 100
4, 98048, Note_off_c, 2, 69, 100
4, 98048, Note_off_c, 2, 72, 100
4, 98048, Note_off_c, 2, 77, 100
4, 99360, Note_on_c, 2, 55, 100
4, 99360, Note_on_c, 2, 62, 100
4, 99360, Note_on_c, 2, 67, 100
4, 99360, Note_on_c, 2, 71, 100
4, 99360, Note_on_c, 2, 74, 100
4, 99360, Note_on_c, 2, 79, 100
4, 99424, Note_off_c, 2, 55, 100
4, 99424, Note_off_c, 2, 62, 100
4, 99424, Note_off_c, 2, 67, 100
4, 99424, Note_off_c, 2, 71, 100
4, 99424, Note_off_c, 2, 74, 100
4, 99424, Note_off_c, 2, 79, 100
4, 100608, Note_on_c, 2, 62, 100
4, 100608, Note_on_c, 2, 69, 100
4, 100608, Note_on_c, 2, 74, 100
4, 100608, Note_on_c, 2, 81, 100
4, 100608, Note_on_c, 2, 86, 100
4, 100800, Note_off_c, 2, 62, 100
4, 100800, Note_off_c, 2, 69, 100
4, 100800, Note_off_c, 2, 74, 100
4, 100800, Note_off_c, 2, 81, 100
4, 100800, Note_off_c, 2, 86, 100
4, 100896, Note_on_c, 2, 62, 100
4, 100896, Note_on_c, 2, 69, 100
4, 100896, Note_on_c, 2, 74, 100
4, 100896, Note_on_c, 2, 81, 100
4, 100896, Note_on_c, 2, 86, 100
4, 100960, Note_off_c, 2, 62, 100
4, 100960, Note_off_c, 2, 69, 100
4, 100960, Note_off_c, 2, 74, 100
4, 100960, Note_off_c, 2, 81, 100
4, 100960, Note_off_c, 2, 86, 100
4, 101376, Note_on_c, 2, 74, 100
4, 101376, Note_on_c, 2, 78, 100
4, 101376, Note_on_c, 2, 81, 100
4, 101376, Note_on_c, 2, 86, 100
4, 101376, Note_on_c, 2, 90, 100
4, 101568, Note_off_c, 2, 74, 100
4, 101568, Note_off_c, 2, 78, 100
4, 101568, Note_off_c, 2, 81, 100
4, 101568, Note_off_c, 2, 86, 100
4, 101568, Note_off_c, 2, 90, 100
4, 101664, Note_on_c, 2, 62, 100
4, 101664, Note_on_c, 2, 69, 100
4, 101664, Note_on_c, 2, 74, 100
4, 101664, Note_on_c, 2, 81, 100
4, 101664, Note_on_c, 2, 86, 100
4, 101728, Note_off_c, 2, 62, 100
4, 101728, Note_off_c, 2, 69, 100
4, 101728, Note_off_c, 2, 74, 100
4, 101728, Note_off_c, 2, 81, 100
4, 101728, Note_off_c, 2, 86, 100
4, 102144, Note_on_c, 2, 52, 100
4, 102144, Note_on_c, 2, 59, 100
4, 102144, Note_on_c, 2, 64, 100
4, 102144, Note_on_c, 2, 67, 100
4, 102144, Note_on_c, 2, 71, 100
4, 102144, Note_on_c, 2, 76, 100
4, 102336, Note_off_c, 2, 52, 100
4, 102336, Note_off_c, 2, 59, 100
4, 102336, Note_off_c, 2, 64, 100
4, 102336, Note_off_c, 2, 67, 100
4, 102336, Note_off_c, 2, 71, 100
4, 102336, Note_off_c, 2, 76, 100
4, 102528, Note_on_c, 2, 52, 100
4, 102528, Note_on_c, 2, 59, 100
4, 102528, Note_on_c, 2, 64, 100
4, 102528, Note_on_c, 2, 67, 100
4, 102528, Note_on_c, 2, 71, 100
4, 102528, Note_on_c, 2, 76, 100
4, 102656, Note_off_c, 2, 52, 100
4, 102656, Note_off_c, 2, 59, 100
4, 102656, Note_off_c, 2, 64, 100
4, 102656, Note_off_c, 2, 67, 100
4, 102656, Note_off_c, 2, 71, 100
4, 102656, Note_off_c, 2, 76, 100
4, 103680, Note_on_c, 2, 53, 100
4, 103680, Note_on_c, 2, 60, 100
4, 103680, Note_on_c, 2, 65, 100
4, 103680, Note_on_c, 2, 69, 100
4, 103680, Note_on_c, 2, 72, 100
4, 103680, Note_on_c, 2, 77, 100
4, 103872, Note_off_c, 2, 53, 100
4, 103872, Note_off_c, 2, 60, 100
4, 103872, Note_off_c, 2, 65, 100
4, 103872, Note_off_c, 2, 69, 100
4, 103872, Note_off_c, 2, 72, 100
4, 103872, Note_off_c, 2, 77, 100
4, 104064, Note_on_c, 2, 53, 100
4, 104064, Note_on_c, 2, 60, 100
4, 104064, Note_on_c, 2, 65, 100
4, 104064, Note_on_c, 2, 69, 100
4, 104064, Note_on_c, 2, 72, 100
4, 104064, Note_on_c, 2, 77, 100
4, 104192, Note_off_c, 2, 53, 100
4, 104192, Note_off_c, 2, 60, 100
4, 104192, Note_off_c, 2, 65, 100
4, 104192, Note_off_c, 2, 69, 100
4, 104192, Note_off_c, 2, 72, 100
4, 104192, Note_off_c, 2, 77, 100
4, 105504, Note_on_c, 2, 55, 100
4, 105504, Note_on_c, 2, 62, 100
4, 105504, Note_on_c, 2, 67, 100
4, 105504, Note_on_c, 2, 71, 100
4, 105504, Note_on_c, 2, 74, 100
4, 105504, Note_on_c, 2, 79, 100
4, 105568, Note_off_c, 2, 55, 100
4, 105568, Note_off_c, 2, 62, 100
4, 105568, Note_off_c, 2, 67, 100
4, 105568, Note_off_c, 2, 71, 100
4, 105568, Note_off_c, 2, 74, 100
4, 105568, Note_off_c, 2, 79, 100
4, 106752, Note_on_c, 2, 62, 100
4, 106752, Note_on_c, 2, 69, 100
4, 106752, Note_on_c, 2, 74, 100
4, 106752, Note_on_c, 2, 81, 100
4, 106752, Note_on_c, 2, 86, 100
4, 106944, Note_off_c, 2, 62, 100
4, 106944, Note_off_c, 2, 69, 100
4, 106944, Note_off_c, 2, 74, 100
4, 106944, Note_off_c, 2, 81, 100
4, 106944, Note_off_c, 2, 86, 100
4, 107040, Note_on_c, 2, 62, 100
4, 107040, Note_on_c, 2, 69, 100
4, 107040, Note_on_c, 2, 74, 100
4, 107040, Note_on_c, 2, 81, 100
4, 107040, Note_on_c, 2, 86, 100
4, 107104, Note_off_c, 2, 62, 100
4, 107104, Note_off_c, 2, 69, 100
4, 107104, Note_off_c, 2, 74, 100
4, 107104, Note_off_c, 2, 81, 100
4, 107104, Note_off_c, 2, 86, 100
4, 107520, Note_on_c, 2, 74, 100
4, 107520, Note_on_c, 2, 78, 100
4, 107520, Note_on_c, 2, 81, 100
4, 107520, Note_on_c, 2, 86, 100
4, 107520, Note_on_c, 2, 90, 100
4, 107712, Note_off_c, 2, 74, 100
4, 107712, Note_off_c, 2, 78, 100
4, 107712, Note_off_c, 2, 81, 100
4, 107712, Note_off_c, 2, 86, 100
4, 107712, Note_off_c, 2, 90, 100
4, 107808, Note_on_c, 2, 62, 100
4, 107808, Note_on_c, 2, 69, 100
4, 107808, Note_on_c, 2, 74, 100
4, 107808, Note_on_c, 2, 81, 100
4, 107808, Note_on_c, 2, 86, 100
4, 107872, Note_off_c, 2, 62, 100
4, 107872, Note_off_c, 2, 69, 100
4, 107872, Note_off_c, 2, 74, 100
4, 107872, Note_off_c, 2, 81, 100
4, 107872, Note_off_c, 2, 86, 100
4, 108480, Note_on_c, 2, 57, 100
4, 108544, Note_off_c, 2, 57, 100
4, 108576, Note_on_c, 2, 57, 100
4, 108640, Note_off_c, 2, 57, 100
4, 108864, Note_on_c, 2, 64, 100
4, 108928, Note_off_c, 2, 64, 100
4, 108960, Note_on_c, 2, 57, 100
4, 109024, Note_off_c, 2, 57, 100
4, 109440, Note_on_c, 2, 62, 100
4, 109440, Note_on_c, 2, 55, 100
4, 109632, Note_off_c, 2, 62, 100
4, 109632, Note_off_c, 2, 55, 100
4, 110016, Note_on_c, 2, 57, 100
4, 110080, Note_off_c, 2, 57, 100
4, 110112, Note_on_c, 2, 57, 100
4, 110176, Note_off_c, 2, 57, 100
4, 110400, Note_on_c, 2, 64, 100
4, 110464, Note_off_c, 2, 64, 100
4, 110496, Note_on_c, 2, 57, 100
4, 110560, Note_off_c, 2, 57, 100
4, 110976, Note_on_c, 2, 62, 100
4, 110976, Note_on_c, 2, 55, 100
4, 111168, Note_off_c, 2, 62, 100
4, 111168, Note_off_c, 2, 55, 100
4, 111552, Note_on_c, 2, 57, 100
4, 111616, Note_off_c, 2, 57, 100
4, 111648, Note_on_c, 2, 57, 100
4, 111712, Note_off_c, 2, 57, 100
4, 111936, Note_on_c, 2, 64, 100
4, 112000, Note_off_c, 2, 64, 100
4, 112032, Note_on_c, 2, 57, 100
4, 112096, Note_off_c, 2, 57, 100
4, 112512, Note_on_c, 2, 62, 100
4, 112512, Note_on_c, 2, 55, 100
4, 112704, Note_off_c, 2, 62, 100
4, 112704, Note_off_c, 2, 55, 100
4, 113088, Note_on_c, 2, 57, 100
4, 113152, Note_off_c, 2, 57, 100
4, 113184, Note_on_c, 2, 57, 100
4, 113248, Note_off_c, 2, 57, 100
4, 113472, Note_on_c, 2, 64, 100
4, 113536, Note_off_c, 2, 64, 100
4, 113568, Note_on_c, 2, 57, 100
4, 113632, Note_off_c, 2, 57, 100
4, 114048, Note_on_c, 2, 62, 100
4, 114048, Note_on_c, 2, 55, 100
4, 114240, Note_off_c, 2, 62, 100
4, 114240, Note_off_c, 2, 55, 100
4, 114624, Note_on_c, 2, 58, 100
4, 114688, Note_off_c, 2, 58, 100
4, 114720, Note_on_c, 2, 58, 100
4, 114784, Note_off_c, 2, 58, 100
4, 115008, Note_on_c, 2, 65, 100
4, 115072, Note_off_c, 2, 65, 100
4, 115104, Note_on_c, 2, 58, 100
4, 115168, Note_off_c, 2, 58, 100
4, 115584, Note_on_c, 2, 63, 100
4, 115584, Note_on_c, 2, 56, 100
4, 115776, Note_off_c, 2, 63, 100
4, 115776, Note_off_c, 2, 56, 100
4, 116160, Note_on_c, 2, 58, 100
4, 116224, Note_off_c, 2, 58, 100
4, 116256, Note_on_c, 2, 58, 100
4, 116320, Note_off_c, 2, 58, 100
4, 116544, Note_on_c, 2, 65, 100
4, 116608, Note_off_c, 2, 65, 100
4, 116640, Note_on_c, 2, 58, 100
4, 116704, Note_off_c, 2, 58, 100
4, 117120, Note_on_c, 2, 63, 100
4, 117120, Note_on_c, 2, 56, 100
4, 117312, Note_off_c, 2, 63, 100
4, 117312, Note_off_c, 2, 56, 100
4, 117696, Note_on_c, 2, 58, 100
4, 117760, Note_off_c, 2, 58, 100
4, 117792, Note_on_c, 2, 58, 100
4, 117856, Note_off_c, 2, 58, 100
4, 118080, Note_on_c, 2, 65, 100
4, 118144, Note_off_c, 2, 65, 100
4, 118176, Note_on_c, 2, 58, 100
4, 118240, Note_off_c, 2, 58, 100
4, 118656, Note_on_c, 2, 63, 100
4, 118656, Note_on_c, 2, 56, 100
4, 118848, Note_off_c, 2, 63, 100
4, 118848, Note_off_c, 2, 56, 100
4, 119040, Note_on_c, 2, 72, 100
4, 119040, Note_on_c, 2, 67, 100
4, 119040, Note_on_c, 2, 60, 100
4, 119296, Note_off_c, 2, 72, 100
4, 119296, Note_off_c, 2, 67, 100
4, 119296, Note_off_c, 2, 60, 100
4, 120288, Note_on_c, 2, 77, 100
4, 120480, Note_off_c, 2, 77, 100
4, 120864, Note_on_c, 2, 69, 100
4, 120928, Note_off_c, 2, 69, 100
4, 121056, Note_on_c, 2, 59, 100
4, 121248, Note_off_c, 2, 59, 100
4, 121248, End_track
5, 0, Start_track
5, 0, Control_c, 3, 0, 0
5, 0, Program_c, 3, 2
5, 0, Control_c, 3, 10, 82
5, 0, Control_c, 3, 91, 45
5, 0, Control_c, 3, 93, 42
5, 1920, Note_on_c, 3, 52, 100
5, 1920, Note_on_c, 3, 59, 100
5, 1920, Note_on_c, 3, 64, 100
5, 1920, Note_on_c, 3, 67, 100
5, 1920, Note_on_c, 3, 71, 100
5, 2176, Note_off_c, 3, 52, 100
5, 2176, Note_off_c, 3, 59, 100
5, 2176, Note_off_c, 3, 64, 100
5, 2176, Note_off_c, 3, 67, 100
5, 2176, Note_off_c, 3, 71, 100
5, 2688, Note_on_c, 3, 52, 100
5, 2688, Note_on_c, 3, 59, 100
5, 2688, Note_on_c, 3, 64, 100
5, 2688, Note_on_c, 3, 67, 100
5, 2688, Note_on_c, 3, 71, 100
5, 2944, Note_off_c, 3, 52, 100
5, 2944, Note_off_c, 3, 59, 100
5, 2944, Note_off_c, 3, 64, 100
5, 2944, Note_off_c, 3, 67, 100
5, 2944, Note_off_c, 3, 71, 100
5, 3456, Note_on_c, 3, 64, 100
5, 3456, Note_on_c, 3, 71, 100
5, 3456, Note_on_c, 3, 76, 100
5, 3456, Note_on_c, 3, 79, 100
5, 3456, Note_on_c, 3, 83, 100
5, 3712, Note_off_c, 3, 64, 100
5, 3712, Note_off_c, 3, 71, 100
5, 3712, Note_off_c, 3, 76, 100
5, 3712, Note_off_c, 3, 79, 100
5, 3712, Note_off_c, 3, 83, 100
5, 4224, Note_on_c, 3, 64, 100
5, 4224, Note_on_c, 3, 71, 100
5, 4224, Note_on_c, 3, 76, 100
5, 4224, Note_on_c, 3, 79, 100
5, 4224, Note_on_c, 3, 83, 100
5, 4480, Note_off_c, 3, 64, 100
5, 4480, Note_off_c, 3, 71, 100
5, 4480, Note_off_c, 3, 76, 100
5, 4480, Note_off_c, 3, 79, 100
5, 4480, Note_off_c, 3, 83, 100
5, 4992, Note_on_c, 3, 60, 100
5, 4992, Note_on_c, 3, 67, 100
5, 4992, Note_on_c, 3, 72, 100
5, 4992, Note_on_c, 3, 76, 100
5, 4992, Note_on_c, 3, 79, 100
5, 5248, Note_off_c, 3, 60, 100
5, 5248, Note_off_c, 3, 67, 100
5, 5248, Note_off_c, 3, 72, 100
5, 5248, Note_off_c, 3, 76, 100
5, 5248, Note_off_c, 3, 79, 100
5, 5760, Note_on_c, 3, 60, 100
5, 5760, Note_on_c, 3, 67, 100
5, 5760, Note_on_c, 3, 72, 100
5, 5760, Note_on_c, 3, 76, 100
5, 5760, Note_on_c, 3, 79, 100
5, 5760, Note_on_c, 3, 84, 100
5, 6016, Note_off_c, 3, 60, 100
5, 6016, Note_off_c, 3, 67, 100
5, 6016, Note_off_c, 3, 72, 100
5, 6016, Note_off_c, 3, 76, 100
5, 6016, Note_off_c, 3, 79, 100
5, 6016, Note_off_c, 3, 84, 100
5, 6528, Note_on_c, 3, 76, 100
5, 6528, Note_on_c, 3, 79, 100
5, 6528, Note_on_c, 3, 84, 100
5, 6528, Note_on_c, 3, 91, 100
5, 6784, Note_off_c, 3, 76, 100
5, 6784, Note_off_c, 3, 79, 100
5, 6784, Note_off_c, 3, 84, 100
5, 6784, Note_off_c, 3, 91, 100
5, 7296, Note_on_c, 3, 76, 100
5, 7296, Note_on_c, 3, 79, 100
5, 7296, Note_on_c, 3, 84, 100
5, 7296, Note_on_c, 3, 91, 100
5, 7552, Note_off_c, 3, 76, 100
5, 7552, Note_off_c, 3, 79, 100
5, 7552, Note_off_c, 3, 84, 100
5, 7552, Note_off_c, 3, 91, 100
5, 8064, Note_on_c, 3, 62, 100
5, 8064, Note_on_c, 3, 67, 100
5, 8064, Note_on_c, 3, 71, 100
5, 8064, Note_on_c, 3, 74, 100
5, 8320, Note_off_c, 3, 62, 100
5, 8320, Note_off_c, 3, 67, 100
5, 8320, Note_off_c, 3, 71, 100
5, 8320, Note_off_c, 3, 74, 100
5, 8832, Note_on_c, 3, 62, 100
5, 8832, Note_on_c, 3, 67, 100
5, 8832, Note_on_c, 3, 71, 100
5, 8832, Note_on_c, 3, 74, 100
5, 9088, Note_off_c, 3, 62, 100
5, 9088, Note_off_c, 3, 67, 100
5, 9088, Note_off_c, 3, 71, 100
5, 9088, Note_off_c, 3, 74, 100
5, 9600, Note_on_c, 3, 71, 100
5, 9600, Note_on_c, 3, 74, 100
5, 9600, Note_on_c, 3, 79, 100
5, 9600, Note_on_c, 3, 83, 100
5, 9856, Note_off_c, 3, 71, 100
5, 9856, Note_off_c, 3, 74, 100
5, 9856, Note_off_c, 3, 79, 100
5, 9856, Note_off_c, 3, 83, 100
5, 10368, Note_on_c, 3, 74, 100
5, 10368, Note_on_c, 3, 79, 100
5, 10368, Note_on_c, 3, 83, 100
5, 10368, Note_on_c, 3, 86, 100
5, 10496, Note_off_c, 3, 74, 100
5, 10496, Note_off_c, 3, 79, 100
5, 10496, Note_off_c, 3, 83, 100
5, 10496, Note_off_c, 3, 86, 100
5, 11136, Note_on_c, 3, 64, 100
5, 11136, Note_on_c, 3, 69, 100
5, 11136, Note_on_c, 3, 76, 100
5, 11136, Note_on_c, 3, 81, 100
5, 11392, Note_off_c, 3, 64, 100
5, 11392, Note_off_c, 3, 69, 100
5, 11392, Note_off_c, 3, 76, 100
5, 11392, Note_off_c, 3, 81, 100
5, 11712, Note_on_c, 3, 52, 100
5, 11840, Note_off_c, 3, 52, 100
5, 11904, Note_on_c, 3, 64, 100
5, 11904, Note_on_c, 3, 69, 100
5, 11904, Note_on_c, 3, 76, 100
5, 11904, Note_on_c, 3, 81, 100
5, 12032, Note_off_c, 3, 64, 100
5, 12032, Note_off_c, 3, 69, 100
5, 12032, Note_off_c, 3, 76, 100
5, 12032, Note_off_c, 3, 81, 100
5, 12672, Note_on_c, 3, 65, 100
5, 12672, Note_on_c, 3, 70, 100
5, 12672, Note_on_c, 3, 74, 100
5, 12672, Note_on_c, 3, 77, 100
5, 12672, Note_on_c, 3, 82, 100
5, 12800, Note_off_c, 3, 65, 100
5, 12800, Note_off_c, 3, 70, 100
5, 12800, Note_off_c, 3, 74, 100
5, 12800, Note_off_c, 3, 77, 100
5, 12800, Note_off_c, 3, 82, 100
5, 12864, Note_on_c, 3, 52, 100
5, 12992, Note_off_c, 3, 52, 100
5, 13440, Note_on_c, 3, 94, 100
5, 13440, Note_on_c, 3, 89, 100
5, 13440, Note_on_c, 3, 86, 100
5, 13440, Note_on_c, 3, 82, 100
5, 13568, Note_off_c, 3, 94, 100
5, 13568, Note_off_c, 3, 89, 100
5, 13568, Note_off_c, 3, 86, 100
5, 13568, Note_off_c, 3, 82, 100
5, 13632, Note_on_c, 3, 52, 100
5, 13760, Note_off_c, 3, 52, 100
5, 24576, Note_on_c, 3, 60, 100
5, 24576, Note_on_c, 3, 67, 100
5, 24576, Note_on_c, 3, 72, 100
5, 24768, Note_off_c, 3, 60, 100
5, 24768, Note_off_c, 3, 67, 100
5, 24768, Note_off_c, 3, 72, 100
5, 25248, Note_on_c, 3, 72, 100
5, 25248, Note_on_c, 3, 76, 100
5, 25312, Note_off_c, 3, 72, 100
5, 25312, Note_off_c, 3, 76, 100
5, 25632, Note_on_c, 3, 67, 100
5, 25632, Note_on_c, 3, 72, 100
5, 25696, Note_off_c, 3, 67, 100
5, 25696, Note_off_c, 3, 72, 100
5, 26016, Note_on_c, 3, 72, 100
5, 26016, Note_on_c, 3, 79, 100
5, 26016, Note_on_c, 3, 84, 100
5, 26016, Note_on_c, 3, 87, 100
5, 26016, Note_on_c, 3, 91, 100
5, 26080, Note_off_c, 3, 72, 100
5, 26080, Note_off_c, 3, 79, 100
5, 26080, Note_off_c, 3, 84, 100
5, 26080, Note_off_c, 3, 87, 100
5, 26080, Note_off_c, 3, 91, 100
5, 26400, Note_on_c, 3, 72, 100
5, 26400, Note_on_c, 3, 79, 100
5, 26400, Note_on_c, 3, 84, 100
5, 26400, Note_on_c, 3, 87, 100
5, 26400, Note_on_c, 3, 91, 100
5, 26464, Note_off_c, 3, 72, 100
5, 26464, Note_off_c, 3, 79, 100
5, 26464, Note_off_c, 3, 84, 100
5, 26464, Note_off_c, 3, 87, 100
5, 26464, Note_off_c, 3, 91, 100
5, 26496, Note_on_c, 3, 72, 100
5, 26496, Note_on_c, 3, 79, 100
5, 26496, Note_on_c, 3, 84, 100
5, 26496, Note_on_c, 3, 87, 100
5, 26496, Note_on_c, 3, 91, 100
5, 26752, Note_off_c, 3, 72, 100
5, 26752, Note_off_c, 3, 79, 100
5, 26752, Note_off_c, 3, 84, 100
5, 26752, Note_off_c, 3, 87, 100
5, 26752, Note_off_c, 3, 91, 100
5, 27168, Note_on_c, 3, 72, 100
5, 27168, Note_on_c, 3, 79, 100
5, 27168, Note_on_c, 3, 84, 100
5, 27168, Note_on_c, 3, 87, 100
5, 27168, Note_on_c, 3, 91, 100
5, 27232, Note_off_c, 3, 72, 100
5, 27232, Note_off_c, 3, 79, 100
5, 27232, Note_off_c, 3, 84, 100
5, 27232, Note_off_c, 3, 87, 100
5, 27232, Note_off_c, 3, 91, 100
5, 27264, Note_on_c, 3, 72, 100
5, 27264, Note_on_c, 3, 79, 100
5, 27264, Note_on_c, 3, 84, 100
5, 27264, Note_on_c, 3, 87, 100
5, 27264, Note_on_c, 3, 91, 100
5, 27520, Note_off_c, 3, 72, 100
5, 27520, Note_off_c, 3, 79, 100
5, 27520, Note_off_c, 3, 84, 100
5, 27520, Note_off_c, 3, 87, 100
5, 27520, Note_off_c, 3, 91, 100
5, 27936, Note_on_c, 3, 58, 100
5, 27936, Note_on_c, 3, 65, 100
5, 28000, Note_off_c, 3, 58, 100
5, 28000, Note_off_c, 3, 65, 100
5, 28032, Note_on_c, 3, 70, 100
5, 28032, Note_on_c, 3, 74, 100
5, 28032, Note_on_c, 3, 77, 100
5, 28160, Note_off_c, 3, 70, 100
5, 28160, Note_off_c, 3, 74, 100
5, 28160, Note_off_c, 3, 77, 100
5, 28704, Note_on_c, 3, 58, 100
5, 28704, Note_on_c, 3, 65, 100
5, 28768, Note_off_c, 3, 58, 100
5, 28768, Note_off_c, 3, 65, 100
5, 28800, Note_on_c, 3, 70, 100
5, 28800, Note_on_c, 3, 74, 100
5, 28800, Note_on_c, 3, 77, 100
5, 28992, Note_off_c, 3, 70, 100
5, 28992, Note_off_c, 3, 74, 100
5, 28992, Note_off_c, 3, 77, 100
5, 29472, Note_on_c, 3, 57, 100
5, 29472, Note_on_c, 3, 69, 100
5, 29472, Note_on_c, 3, 73, 100
5, 29472, Note_on_c, 3, 76, 100
5, 29472, Note_on_c, 3, 81, 100
5, 29664, Note_off_c, 3, 57, 100
5, 29664, Note_off_c, 3, 69, 100
5, 29664, Note_off_c, 3, 73, 100
5, 29664, Note_off_c, 3, 76, 100
5, 29664, Note_off_c, 3, 81, 100
5, 29952, Note_on_c, 3, 57, 100
5, 29952, Note_on_c, 3, 81, 100
5, 29952, Note_on_c, 3, 85, 100
5, 29952, Note_on_c, 3, 88, 100
5, 29952, Note_on_c, 3, 93, 100
5, 30144, Note_off_c, 3, 57, 100
5, 30144, Note_off_c, 3, 81, 100
5, 30144, Note_off_c, 3, 85, 100
5, 30144, Note_off_c, 3, 88, 100
5, 30144, Note_off_c, 3, 93, 100
5, 30528, Note_on_c, 3, 57, 100
5, 30528, Note_on_c, 3, 69, 100
5, 30528, Note_on_c, 3, 73, 100
5, 30528, Note_on_c, 3, 76, 100
5, 30528, Note_on_c, 3, 81, 100
5, 30656, Note_off_c, 3, 57, 100
5, 30656, Note_off_c, 3, 69, 100
5, 30656, Note_off_c, 3, 73, 100
5, 30656, Note_off_c, 3, 76, 100
5, 30656, Note_off_c, 3, 81, 100
5, 31008, Note_on_c, 3, 52, 100
5, 31008, Note_on_c, 3, 59, 100
5, 31008, Note_on_c, 3, 64, 100
5, 31008, Note_on_c, 3, 69, 100
5, 31008, Note_on_c, 3, 71, 100
5, 31008, Note_on_c, 3, 76, 100
5, 31200, Note_off_c, 3, 52, 100
5, 31200, Note_off_c, 3, 59, 100
5, 31200, Note_off_c, 3, 64, 100
5, 31200, Note_off_c, 3, 69, 100
5, 31200, Note_off_c, 3, 71, 100
5, 31200, Note_off_c, 3, 76, 100
5, 31488, Note_on_c, 3, 52, 100
5, 31488, Note_on_c, 3, 64, 100
5, 31488, Note_on_c, 3, 71, 100
5, 31488, Note_on_c, 3, 76, 100
5, 31488, Note_on_c, 3, 81, 100
5, 31488, Note_on_c, 3, 83, 100
5, 31680, Note_off_c, 3, 52, 100
5, 31680, Note_off_c, 3, 64, 100
5, 31680, Note_off_c, 3, 71, 100
5, 31680, Note_off_c, 3, 76, 100
5, 31680, Note_off_c, 3, 81, 100
5, 31680, Note_off_c, 3, 83, 100
5, 32064, Note_on_c, 3, 52, 100
5, 32064, Note_on_c, 3, 64, 100
5, 32064, Note_on_c, 3, 71, 100
5, 32064, Note_on_c, 3, 76, 100
5, 32064, Note_on_c, 3, 81, 100
5, 32064, Note_on_c, 3, 83, 100
5, 32192, Note_off_c, 3, 52, 100
5, 32192, Note_off_c, 3, 64, 100
5, 32192, Note_off_c, 3, 71, 100
5, 32192, Note_off_c, 3, 76, 100
5, 32192, Note_off_c, 3, 81, 100
5, 32192, Note_off_c, 3, 83, 100
5, 32544, Note_on_c, 3, 52, 100
5, 32544, Note_on_c, 3, 59, 100
5, 32544, Note_on_c, 3, 64, 100
5, 32544, Note_on_c, 3, 67, 100
5, 32544, Note_on_c, 3, 71, 100
5, 32544, Note_on_c, 3, 76, 100
5, 32608, Note_off_c, 3, 52, 100
5, 32608, Note_off_c, 3, 59, 100
5, 32608, Note_off_c, 3, 64, 100
5, 32608, Note_off_c, 3, 67, 100
5, 32608, Note_off_c, 3, 71, 100
5, 32608, Note_off_c, 3, 76, 100
5, 34080, Note_on_c, 3, 53, 100
5, 34080, Note_on_c, 3, 60, 100
5, 34080, Note_on_c, 3, 65, 100
5, 34080, Note_on_c, 3, 69, 100
5, 34080, Note_on_c, 3, 72, 100
5, 34080, Note_on_c, 3, 77, 100
5, 34144, Note_off_c, 3, 53, 100
5, 34144, Note_off_c, 3, 60, 100
5, 34144, Note_off_c, 3, 65, 100
5, 34144, Note_off_c, 3, 69, 100
5, 34144, Note_off_c, 3, 72, 100
5, 34144, Note_off_c, 3, 77, 100
5, 35328, Note_on_c, 3, 55, 100
5, 35328, Note_on_c, 3, 62, 100
5, 35328, Note_on_c, 3, 67, 100
5, 35328, Note_on_c, 3, 71, 100
5, 35328, Note_on_c, 3, 74, 100
5, 35328, Note_on_c, 3, 79, 100
5, 35520, Note_off_c, 3, 55, 100
5, 35520, Note_off_c, 3, 62, 100
5, 35520, Note_off_c, 3, 67, 100
5, 35520, Note_off_c, 3, 71, 100
5, 35520, Note_off_c, 3, 74, 100
5, 35520, Note_off_c, 3, 79, 100
5, 35712, Note_on_c, 3, 55, 100
5, 35712, Note_on_c, 3, 62, 100
5, 35712, Note_on_c, 3, 67, 100
5, 35712, Note_on_c, 3, 71, 100
5, 35712, Note_on_c, 3, 74, 100
5, 35712, Note_on_c, 3, 79, 100
5, 35840, Note_off_c, 3, 55, 100
5, 35840, Note_off_c, 3, 62, 100
5, 35840, Note_off_c, 3, 67, 100
5, 35840, Note_off_c, 3, 71, 100
5, 35840, Note_off_c, 3, 74, 100
5, 35840, Note_off_c, 3, 79, 100
5, 37248, Note_on_c, 3, 62, 100
5, 37248, Note_on_c, 3, 69, 100
5, 37248, Note_on_c, 3, 74, 100
5, 37248, Note_on_c, 3, 81, 100
5, 37248, Note_on_c, 3, 86, 100
5, 37440, Note_off_c, 3, 62, 100
5, 37440, Note_off_c, 3, 69, 100
5, 37440, Note_off_c, 3, 74, 100
5, 37440, Note_off_c, 3, 81, 100
5, 37440, Note_off_c, 3, 86, 100
5, 37536, Note_on_c, 3, 74, 100
5, 37536, Note_on_c, 3, 78, 100
5, 37536, Note_on_c, 3, 81, 100
5, 37536, Note_on_c, 3, 86, 100
5, 37536, Note_on_c, 3, 90, 100
5, 37600, Note_off_c, 3, 74, 100
5, 37600, Note_off_c, 3, 78, 100
5, 37600, Note_off_c, 3, 81, 100
5, 37600, Note_off_c, 3, 86, 100
5, 37600, Note_off_c, 3, 90, 100
5, 38016, Note_on_c, 3, 62, 100
5, 38016, Note_on_c, 3, 69, 100
5, 38016, Note_on_c, 3, 74, 100
5, 38016, Note_on_c, 3, 81, 100
5, 38016, Note_on_c, 3, 86, 100
5, 38272, Note_off_c, 3, 62, 100
5, 38272, Note_off_c, 3, 69, 100
5, 38272, Note_off_c, 3, 74, 100
5, 38272, Note_off_c, 3, 81, 100
5, 38272, Note_off_c, 3, 86, 100
5, 38688, Note_on_c, 3, 52, 100
5, 38688, Note_on_c, 3, 59, 100
5, 38688, Note_on_c, 3, 64, 100
5, 38688, Note_on_c, 3, 67, 100
5, 38688, Note_on_c, 3, 71, 100
5, 38688, Note_on_c, 3, 76, 100
5, 38752, Note_off_c, 3, 52, 100
5, 38752, Note_off_c, 3, 59, 100
5, 38752, Note_off_c, 3, 64, 100
5, 38752, Note_off_c, 3, 67, 100
5, 38752, Note_off_c, 3, 71, 100
5, 38752, Note_off_c, 3, 76, 100
5, 40224, Note_on_c, 3, 53, 100
5, 40224, Note_on_c, 3, 60, 100
5, 40224, Note_on_c, 3, 65, 100
5, 40224, Note_on_c, 3, 69, 100
5, 40224, Note_on_c, 3, 72, 100
5, 40224, Note_on_c, 3, 77, 100
5, 40288, Note_off_c, 3, 53, 100
5, 40288, Note_off_c, 3, 60, 100
5, 40288, Note_off_c, 3, 65, 100
5, 40288, Note_off_c, 3, 69, 100
5, 40288, Note_off_c, 3, 72, 100
5, 40288, Note_off_c, 3, 77, 100
5, 41472, Note_on_c, 3, 55, 100
5, 41472, Note_on_c, 3, 62, 100
5, 41472, Note_on_c, 3, 67, 100
5, 41472, Note_on_c, 3, 71, 100
5, 41472, Note_on_c, 3, 74, 100
5, 41472, Note_on_c, 3, 79, 100
5, 41664, Note_off_c, 3, 55, 100
5, 41664, Note_off_c, 3, 62, 100
5, 41664, Note_off_c, 3, 67, 100
5, 41664, Note_off_c, 3, 71, 100
5, 41664, Note_off_c, 3, 74, 100
5, 41664, Note_off_c, 3, 79, 100
5, 41856, Note_on_c, 3, 55, 100
5, 41856, Note_on_c, 3, 62, 100
5, 41856, Note_on_c, 3, 67, 100
5, 41856, Note_on_c, 3, 71, 100
5, 41856, Note_on_c, 3, 74, 100
5, 41856, Note_on_c, 3, 79, 100
5, 41984, Note_off_c, 3, 55, 100
5, 41984, Note_off_c, 3, 62, 100
5, 41984, Note_off_c, 3, 67, 100
5, 41984, Note_off_c, 3, 71, 100
5, 41984, Note_off_c, 3, 74, 100
5, 41984, Note_off_c, 3, 79, 100
5, 43392, Note_on_c, 3, 62, 100
5, 43392, Note_on_c, 3, 69, 100
5, 43392, Note_on_c, 3, 74, 100
5, 43392, Note_on_c, 3, 81, 100
5, 43392, Note_on_c, 3, 86, 100
5, 43584, Note_off_c, 3, 62, 100
5, 43584, Note_off_c, 3, 69, 100
5, 43584, Note_off_c, 3, 74, 100
5, 43584, Note_off_c, 3, 81, 100
5, 43584, Note_off_c, 3, 86, 100
5, 43680, Note_on_c, 3, 74, 100
5, 43680, Note_on_c, 3, 78, 100
5, 43680, Note_on_c, 3, 81, 100
5, 43680, Note_on_c, 3, 86, 100
5, 43680, Note_on_c, 3, 90, 100
5, 43744, Note_off_c, 3, 74, 100
5, 43744, Note_off_c, 3, 78, 100
5, 43744, Note_off_c, 3, 81, 100
5, 43744, Note_off_c, 3, 86, 100
5, 43744, Note_off_c, 3, 90, 100
5, 44160, Note_on_c, 3, 62, 100
5, 44160, Note_on_c, 3, 69, 100
5, 44160, Note_on_c, 3, 74, 100
5, 44160, Note_on_c, 3, 81, 100
5, 44160, Note_on_c, 3, 86, 100
5, 44416, Note_off_c, 3, 62, 100
5, 44416, Note_off_c, 3, 69, 100
5, 44416, Note_off_c, 3, 74, 100
5, 44416, Note_off_c, 3, 81, 100
5, 44416, Note_off_c, 3, 86, 100
5, 44544, Note_on_c, 3, 57, 100
5, 44672, Note_off_c, 3, 57, 100
5, 44928, Note_on_c, 3, 60, 100
5, 44992, Note_off_c, 3, 60, 100
5, 45024, Note_on_c, 3, 57, 100
5, 45088, Note_off_c, 3, 57, 100
5, 45312, Note_on_c, 3, 60, 100
5, 45376, Note_off_c, 3, 60, 100
5, 45408, Note_on_c, 3, 62, 100
5, 45408, Note_on_c, 3, 55, 100
5, 45472, Note_off_c, 3, 62, 100
5, 45472, Note_off_c, 3, 55, 100
5, 46080, Note_on_c, 3, 57, 100
5, 46208, Note_off_c, 3, 57, 100
5, 46464, Note_on_c, 3, 60, 100
5, 46528, Note_off_c, 3, 60, 100
5, 46560, Note_on_c, 3, 57, 100
5, 46624, Note_off_c, 3, 57, 100
5, 46848, Note_on_c, 3, 60, 100
5, 46912, Note_off_c, 3, 60, 100
5, 46944, Note_on_c, 3, 62, 100
5, 46944, Note_on_c, 3, 55, 100
5, 47008, Note_off_c, 3, 62, 100
5, 47008, Note_off_c, 3, 55, 100
5, 47616, Note_on_c, 3, 57, 100
5, 47744, Note_off_c, 3, 57, 100
5, 48000, Note_on_c, 3, 60, 100
5, 48064, Note_off_c, 3, 60, 100
5, 48096, Note_on_c, 3, 57, 100
5, 48160, Note_off_c, 3, 57, 100
5, 48384, Note_on_c, 3, 60, 100
5, 48448, Note_off_c, 3, 60, 100
5, 48480, Note_on_c, 3, 62, 100
5, 48480, Note_on_c, 3, 55, 100
5, 48544, Note_off_c, 3, 62, 100
5, 48544, Note_off_c, 3, 55, 100
5, 49152, Note_on_c, 3, 57, 100
5, 49280, Note_off_c, 3, 57, 100
5, 49536, Note_on_c, 3, 60, 100
5, 49600, Note_off_c, 3, 60, 100
5, 49632, Note_on_c, 3, 57, 100
5, 49696, Note_off_c, 3, 57, 100
5, 49920, Note_on_c, 3, 60, 100
5, 49984, Note_off_c, 3, 60, 100
5, 50016, Note_on_c, 3, 62, 100
5, 50016, Note_on_c, 3, 55, 100
5, 50080, Note_off_c, 3, 62, 100
5, 50080, Note_off_c, 3, 55, 100
5, 50688, Note_on_c, 3, 58, 100
5, 50816, Note_off_c, 3, 58, 100
5, 51072, Note_on_c, 3, 61, 100
5, 51136, Note_off_c, 3, 61, 100
5, 51168, Note_on_c, 3, 58, 100
5, 51232, Note_off_c, 3, 58, 100
5, 51456, Note_on_c, 3, 61, 100
5, 51520, Note_off_c, 3, 61, 100
5, 51552, Note_on_c, 3, 63, 100
5, 51552, Note_on_c, 3, 56, 100
5, 51616, Note_off_c, 3, 63, 100
5, 51616, Note_off_c, 3, 56, 100
5, 52224, Note_on_c, 3, 58, 100
5, 52352, Note_off_c, 3, 58, 100
5, 52608, Note_on_c, 3, 61, 100
5, 52672, Note_off_c, 3, 61, 100
5, 52704, Note_on_c, 3, 58, 100
5, 52768, Note_off_c, 3, 58, 100
5, 52992, Note_on_c, 3, 61, 100
5, 53056, Note_off_c, 3, 61, 100
5, 53088, Note_on_c, 3, 63, 100
5, 53088, Note_on_c, 3, 56, 100
5, 53152, Note_off_c, 3, 63, 100
5, 53152, Note_off_c, 3, 56, 100
5, 53760, Note_on_c, 3, 58, 100
5, 53888, Note_off_c, 3, 58, 100
5, 54144, Note_on_c, 3, 61, 100
5, 54208, Note_off_c, 3, 61, 100
5, 54240, Note_on_c, 3, 58, 100
5, 54304, Note_off_c, 3, 58, 100
5, 54528, Note_on_c, 3, 61, 100
5, 54592, Note_off_c, 3, 61, 100
5, 54624, Note_on_c, 3, 63, 100
5, 54624, Note_on_c, 3, 56, 100
5, 54688, Note_off_c, 3, 63, 100
5, 54688, Note_off_c, 3, 56, 100
5, 55680, Note_on_c, 3, 72, 100
5, 55680, Note_on_c, 3, 67, 100
5, 55680, Note_on_c, 3, 60, 100
5, 55936, Note_off_c, 3, 72, 100
5, 55936, Note_off_c, 3, 67, 100
5, 55936, Note_off_c, 3, 60, 100
5, 56832, Note_on_c, 3, 77, 100
5, 56960, Note_off_c, 3, 77, 100
5, 57024, Note_on_c, 3, 77, 100
5, 57088, Note_off_c, 3, 77, 100
5, 57600, Note_on_c, 3, 52, 100
5, 57600, Note_on_c, 3, 59, 100
5, 57600, Note_on_c, 3, 64, 100
5, 57600, Note_on_c, 3, 67, 100
5, 57600, Note_on_c, 3, 71, 100
5, 57600, Note_on_c, 3, 76, 100
5, 57792, Note_off_c, 3, 52, 100
5, 57792, Note_off_c, 3, 59, 100
5, 57792, Note_off_c, 3, 64, 100
5, 57792, Note_off_c, 3, 67, 100
5, 57792, Note_off_c, 3, 71, 100
5, 57792, Note_off_c, 3, 76, 100
5, 58368, Note_on_c, 3, 71, 100
5, 58368, Note_on_c, 3, 64, 100
5, 58432, Note_off_c, 3, 71, 100
5, 58432, Note_off_c, 3, 64, 100
5, 58464, Note_on_c, 3, 64, 100
5, 58464, Note_on_c, 3, 69, 100
5, 58592, Note_off_c, 3, 64, 100
5, 58592, Note_off_c, 3, 69, 100
5, 58848, Note_on_c, 3, 57, 100
5, 58912, Note_off_c, 3, 57, 100
5, 58944, Note_on_c, 3, 55, 100
5, 59072, Note_off_c, 3, 55, 100
5, 59136, Note_on_c, 3, 53, 100
5, 59136, Note_on_c, 3, 60, 100
5, 59136, Note_on_c, 3, 65, 100
5, 59136, Note_on_c, 3, 69, 100
5, 59136, Note_on_c, 3, 72, 100
5, 59136, Note_on_c, 3, 77, 100
5, 59328, Note_off_c, 3, 53, 100
5, 59328, Note_off_c, 3, 60, 100
5, 59328, Note_off_c, 3, 65, 100
5, 59328, Note_off_c, 3, 69, 100
5, 59328, Note_off_c, 3, 72, 100
5, 59328, Note_off_c, 3, 77, 100
5, 59904, Note_on_c, 3, 77, 100
5, 59904, Note_on_c, 3, 72, 100
5, 59968, Note_off_c, 3, 77, 100
5, 59968, Note_off_c, 3, 72, 100
5, 60000, Note_on_c, 3, 77, 100
5, 60000, Note_on_c, 3, 81, 100
5, 60128, Note_off_c, 3, 77, 100
5, 60128, Note_off_c, 3, 81, 100
5, 60960, Note_on_c, 3, 55, 100
5, 60960, Note_on_c, 3, 62, 100
5, 60960, Note_on_c, 3, 67, 100
5, 60960, Note_on_c, 3, 71, 100
5, 60960, Note_on_c, 3, 74, 100
5, 60960, Note_on_c, 3, 79, 100
5, 61024, Note_off_c, 3, 55, 100
5, 61024, Note_off_c, 3, 62, 100
5, 61024, Note_off_c, 3, 67, 100
5, 61024, Note_off_c, 3, 71, 100
5, 61024, Note_off_c, 3, 74, 100
5, 61024, Note_off_c, 3, 79, 100
5, 61056, Note_on_c, 3, 55, 100
5, 61056, Note_on_c, 3, 62, 100
5, 61056, Note_on_c, 3, 67, 100
5, 61056, Note_on_c, 3, 71, 100
5, 61056, Note_on_c, 3, 74, 100
5, 61056, Note_on_c, 3, 79, 100
5, 61184, Note_off_c, 3, 55, 100
5, 61184, Note_off_c, 3, 62, 100
5, 61184, Note_off_c, 3, 67, 100
5, 61184, Note_off_c, 3, 71, 100
5, 61184, Note_off_c, 3, 74, 100
5, 61184, Note_off_c, 3, 79, 100
5, 61728, Note_on_c, 3, 67, 100
5, 61728, Note_on_c, 3, 71, 100
5, 61728, Note_on_c, 3, 74, 100
5, 61728, Note_on_c, 3, 79, 100
5, 61728, Note_on_c, 3, 83, 100
5, 61856, Note_off_c, 3, 67, 100
5, 61856, Note_off_c, 3, 71, 100
5, 61856, Note_off_c, 3, 74, 100
5, 61856, Note_off_c, 3, 79, 100
5, 61856, Note_off_c, 3, 83, 100
5, 62592, Note_on_c, 3, 62, 100
5, 62592, Note_on_c, 3, 69, 100
5, 62592, Note_on_c, 3, 74, 100
5, 62592, Note_on_c, 3, 78, 100
5, 62720, Note_off_c, 3, 62, 100
5, 62720, Note_off_c, 3, 69, 100
5, 62720, Note_off_c, 3, 74, 100
5, 62720, Note_off_c, 3, 78, 100
5, 62880, Note_on_c, 3, 74, 100
5, 62880, Note_on_c, 3, 78, 100
5, 62880, Note_on_c, 3, 81, 100
5, 62880, Note_on_c, 3, 86, 100
5, 62880, Note_on_c, 3, 90, 100
5, 62944, Note_off_c, 3, 74, 100
5, 62944, Note_off_c, 3, 78, 100
5, 62944, Note_off_c, 3, 81, 100
5, 62944, Note_off_c, 3, 86, 100
5, 62944, Note_off_c, 3, 90, 100
5, 63264, Note_on_c, 3, 69, 100
5, 63264, Note_on_c, 3, 74, 100
5, 63264, Note_on_c, 3, 81, 100
5, 63264, Note_on_c, 3, 86, 100
5, 63328, Note_off_c, 3, 69, 100
5, 63328, Note_off_c, 3, 74, 100
5, 63328, Note_off_c, 3, 81, 100
5, 63328, Note_off_c, 3, 86, 100
5, 63360, Note_on_c, 3, 69, 100
5, 63360, Note_on_c, 3, 74, 100
5, 63360, Note_on_c, 3, 81, 100
5, 63360, Note_on_c, 3, 86, 100
5, 63616, Note_off_c, 3, 69, 100
5, 63616, Note_off_c, 3, 74, 100
5, 63616, Note_off_c, 3, 81, 100
5, 63616, Note_off_c, 3, 86, 100
5, 63744, Note_on_c, 3, 52, 100
5, 63744, Note_on_c, 3, 59, 100
5, 63744, Note_on_c, 3, 64, 100
5, 63744, Note_on_c, 3, 67, 100
5, 63744, Note_on_c, 3, 71, 100
5, 63744, Note_on_c, 3, 76, 100
5, 63936, Note_off_c, 3, 52, 100
5, 63936, Note_off_c, 3, 59, 100
5, 63936, Note_off_c, 3, 64, 100
5, 63936, Note_off_c, 3, 67, 100
5, 63936, Note_off_c, 3, 71, 100
5, 63936, Note_off_c, 3, 76, 100
5, 64512, Note_on_c, 3, 71, 100
5, 64512, Note_on_c, 3, 64, 100
5, 64576, Note_off_c, 3, 71, 100
5, 64576, Note_off_c, 3, 64, 100
5, 64608, Note_on_c, 3, 64, 100
5, 64608, Note_on_c, 3, 69, 100
5, 64736, Note_off_c, 3, 64, 100
5, 64736, Note_off_c, 3, 69, 100
5, 64992, Note_on_c, 3, 57, 100
5, 65056, Note_off_c, 3, 57, 100
5, 65088, Note_on_c, 3, 55, 100
5, 65216, Note_off_c, 3, 55, 100
5, 65280, Note_on_c, 3, 53, 100
5, 65280, Note_on_c, 3, 60, 100
5, 65280, Note_on_c, 3, 65, 100
5, 65280, Note_on_c, 3, 69, 100
5, 65280, Note_on_c, 3, 72, 100
5, 65280, Note_on_c, 3, 77, 100
5, 65472, Note_off_c, 3, 53, 100
5, 65472, Note_off_c, 3, 60, 100
5, 65472, Note_off_c, 3, 65, 100
5, 65472, Note_off_c, 3, 69, 100
5, 65472, Note_off_c, 3, 72, 100
5, 65472, Note_off_c, 3, 77, 100
5, 66048, Note_on_c, 3, 77, 100
5, 66048, Note_on_c, 3, 72, 100
5, 66112, Note_off_c, 3, 77, 100
5, 66112, Note_off_c, 3, 72, 100
5, 66144, Note_on_c, 3, 77, 100
5, 66144, Note_on_c, 3, 81, 100
5, 66272, Note_off_c, 3, 77, 100
5, 66272, Note_off_c, 3, 81, 100
5, 67104, Note_on_c, 3, 55, 100
5, 67104, Note_on_c, 3, 62, 100
5, 67104, Note_on_c, 3, 67, 100
5, 67104, Note_on_c, 3, 71, 100
5, 67104, Note_on_c, 3, 74, 100
5, 67104, Note_on_c, 3, 79, 100
5, 67168, Note_off_c, 3, 55, 100
5, 67168, Note_off_c, 3, 62, 100
5, 67168, Note_off_c, 3, 67, 100
5, 67168, Note_off_c, 3, 71, 100
5, 67168, Note_off_c, 3, 74, 100
5, 67168, Note_off_c, 3, 79, 100
5, 67200, Note_on_c, 3, 55, 100
5, 67200, Note_on_c, 3, 62, 100
5, 67200, Note_on_c, 3, 67, 100
5, 67200, Note_on_c, 3, 71, 100
5, 67200, Note_on_c, 3, 74, 100
5, 67200, Note_on_c, 3, 79, 100
5, 67328, Note_off_c, 3, 55, 100
5, 67328, Note_off_c, 3, 62, 100
5, 67328, Note_off_c, 3, 67, 100
5, 67328, Note_off_c, 3, 71, 100
5, 67328, Note_off_c, 3, 74, 100
5, 67328, Note_off_c, 3, 79, 100
5, 67872, Note_on_c, 3, 67, 100
5, 67872, Note_on_c, 3, 71, 100
5, 67872, Note_on_c, 3, 74, 100
5, 67872, Note_on_c, 3, 79, 100
5, 67872, Note_on_c, 3, 83, 100
5, 68000, Note_off_c, 3, 67, 100
5, 68000, Note_off_c, 3, 71, 100
5, 68000, Note_off_c, 3, 74, 100
5, 68000, Note_off_c, 3, 79, 100
5, 68000, Note_off_c, 3, 83, 100
5, 68736, Note_on_c, 3, 62, 100
5, 68736, Note_on_c, 3, 69, 100
5, 68736, Note_on_c, 3, 74, 100
5, 68736, Note_on_c, 3, 78, 100
5, 68864, Note_off_c, 3, 62, 100
5, 68864, Note_off_c, 3, 69, 100
5, 68864, Note_off_c, 3, 74, 100
5, 68864, Note_off_c, 3, 78, 100
5, 69024, Note_on_c, 3, 74, 100
5, 69024, Note_on_c, 3, 78, 100
5, 69024, Note_on_c, 3, 81, 100
5, 69024, Note_on_c, 3, 86, 100
5, 69024, Note_on_c, 3, 90, 100
5, 69088, Note_off_c, 3, 74, 100
5, 69088, Note_off_c, 3, 78, 100
5, 69088, Note_off_c, 3, 81, 100
5, 69088, Note_off_c, 3, 86, 100
5, 69088, Note_off_c, 3, 90, 100
5, 69408, Note_on_c, 3, 69, 100
5, 69408, Note_on_c, 3, 74, 100
5, 69408, Note_on_c, 3, 81, 100
5, 69408, Note_on_c, 3, 86, 100
5, 69472, Note_off_c, 3, 69, 100
5, 69472, Note_off_c, 3, 74, 100
5, 69472, Note_off_c, 3, 81, 100
5, 69472, Note_off_c, 3, 86, 100
5, 69504, Note_on_c, 3, 69, 100
5, 69504, Note_on_c, 3, 74, 100
5, 69504, Note_on_c, 3, 81, 100
5, 69504, Note_on_c, 3, 86, 100
5, 69760, Note_off_c, 3, 69, 100
5, 69760, Note_off_c, 3, 74, 100
5, 69760, Note_off_c, 3, 81, 100
5, 69760, Note_off_c, 3, 86, 100
5, 69888, Note_on_c, 3, 57, 100
5, 70016, Note_off_c, 3, 57, 100
5, 70272, Note_on_c, 3, 60, 100
5, 70336, Note_off_c, 3, 60, 100
5, 70368, Note_on_c, 3, 57, 100
5, 70432, Note_off_c, 3, 57, 100
5, 70656, Note_on_c, 3, 60, 100
5, 70720, Note_off_c, 3, 60, 100
5, 70752, Note_on_c, 3, 62, 100
5, 70752, Note_on_c, 3, 55, 100
5, 70816, Note_off_c, 3, 62, 100
5, 70816, Note_off_c, 3, 55, 100
5, 71424, Note_on_c, 3, 57, 100
5, 71552, Note_off_c, 3, 57, 100
5, 71808, Note_on_c, 3, 60, 100
5, 71872, Note_off_c, 3, 60, 100
5, 71904, Note_on_c, 3, 57, 100
5, 71968, Note_off_c, 3, 57, 100
5, 72192, Note_on_c, 3, 60, 100
5, 72256, Note_off_c, 3, 60, 100
5, 72288, Note_on_c, 3, 62, 100
5, 72288, Note_on_c, 3, 55, 100
5, 72352, Note_off_c, 3, 62, 100
5, 72352, Note_off_c, 3, 55, 100
5, 72960, Note_on_c, 3, 57, 100
5, 73088, Note_off_c, 3, 57, 100
5, 73344, Note_on_c, 3, 60, 100
5, 73408, Note_off_c, 3, 60, 100
5, 73440, Note_on_c, 3, 57, 100
5, 73504, Note_off_c, 3, 57, 100
5, 73728, Note_on_c, 3, 60, 100
5, 73792, Note_off_c, 3, 60, 100
5, 73824, Note_on_c, 3, 62, 100
5, 73824, Note_on_c, 3, 55, 100
5, 73888, Note_off_c, 3, 62, 100
5, 73888, Note_off_c, 3, 55, 100
5, 74496, Note_on_c, 3, 57, 100
5, 74624, Note_off_c, 3, 57, 100
5, 74880, Note_on_c, 3, 60, 100
5, 74944, Note_off_c, 3, 60, 100
5, 74976, Note_on_c, 3, 57, 100
5, 75040, Note_off_c, 3, 57, 100
5, 75264, Note_on_c, 3, 60, 100
5, 75328, Note_off_c, 3, 60, 100
5, 75360, Note_on_c, 3, 62, 100
5, 75360, Note_on_c, 3, 55, 100
5, 75424, Note_off_c, 3, 62, 100
5, 75424, Note_off_c, 3, 55, 100
5, 76032, Note_on_c, 3, 58, 100
5, 76160, Note_off_c, 3, 58, 100
5, 76416, Note_on_c, 3, 61, 100
5, 76480, Note_off_c, 3, 61, 100
5, 76512, Note_on_c, 3, 58, 100
5, 76576, Note_off_c, 3, 58, 100
5, 76800, Note_on_c, 3, 61, 100
5, 76864, Note_off_c, 3, 61, 100
5, 76896, Note_on_c, 3, 63, 100
5, 76896, Note_on_c, 3, 56, 100
5, 76960, Note_off_c, 3, 63, 100
5, 76960, Note_off_c, 3, 56, 100
5, 77568, Note_on_c, 3, 58, 100
5, 77696, Note_off_c, 3, 58, 100
5, 77952, Note_on_c, 3, 61, 100
5, 78016, Note_off_c, 3, 61, 100
5, 78048, Note_on_c, 3, 58, 100
5, 78112, Note_off_c, 3, 58, 100
5, 78336, Note_on_c, 3, 61, 100
5, 78400, Note_off_c, 3, 61, 100
5, 78432, Note_on_c, 3, 63, 100
5, 78432, Note_on_c, 3, 56, 100
5, 78496, Note_off_c, 3, 63, 100
5, 78496, Note_off_c, 3, 56, 100
5, 79104, Note_on_c, 3, 58, 100
5, 79232, Note_off_c, 3, 58, 100
5, 79488, Note_on_c, 3, 61, 100
5, 79552, Note_off_c, 3, 61, 100
5, 79584, Note_on_c, 3, 58, 100
5, 79648, Note_off_c, 3, 58, 100
5, 79872, Note_on_c, 3, 61, 100
5, 79936, Note_off_c, 3, 61, 100
5, 79968, Note_on_c, 3, 63, 100
5, 79968, Note_on_c, 3, 56, 100
5, 80032, Note_off_c, 3, 63, 100
5, 80032, Note_off_c, 3, 56, 100
5, 81024, Note_on_c, 3, 72, 100
5, 81024, Note_on_c, 3, 67, 100
5, 81024, Note_on_c, 3, 60, 100
5, 81280, Note_off_c, 3, 72, 100
5, 81280, Note_off_c, 3, 67, 100
5, 81280, Note_off_c, 3, 60, 100
5, 82176, Note_on_c, 3, 77, 100
5, 82304, Note_off_c, 3, 77, 100
5, 82368, Note_on_c, 3, 77, 100
5, 82432, Note_off_c, 3, 77, 100
5, 82944, Note_on_c, 3, 57, 100
5, 83072, Note_off_c, 3, 57, 100
5, 83328, Note_on_c, 3, 60, 100
5, 83392, Note_off_c, 3, 60, 100
5, 83424, Note_on_c, 3, 57, 100
5, 83488, Note_off_c, 3, 57, 100
5, 83712, Note_on_c, 3, 60, 100
5, 83776, Note_off_c, 3, 60, 100
5, 83808, Note_on_c, 3, 62, 100
5, 83808, Note_on_c, 3, 55, 100
5, 83872, Note_off_c, 3, 62, 100
5, 83872, Note_off_c, 3, 55, 100
5, 84480, Note_on_c, 3, 57, 100
5, 84608, Note_off_c, 3, 57, 100
5, 84864, Note_on_c, 3, 60, 100
5, 84928, Note_off_c, 3, 60, 100
5, 84960, Note_on_c, 3, 57, 100
5, 85024, Note_off_c, 3, 57, 100
5, 85248, Note_on_c, 3, 60, 100
5, 85312, Note_off_c, 3, 60, 100
5, 85344, Note_on_c, 3, 62, 100
5, 85344, Note_on_c, 3, 55, 100
5, 85408, Note_off_c, 3, 62, 100
5, 85408, Note_off_c, 3, 55, 100
5, 86016, Note_on_c, 3, 57, 100
5, 86144, Note_off_c, 3, 57, 100
5, 86400, Note_on_c, 3, 60, 100
5, 86464, Note_off_c, 3, 60, 100
5, 86496, Note_on_c, 3, 57, 100
5, 86560, Note_off_c, 3, 57, 100
5, 86784, Note_on_c, 3, 60, 100
5, 86848, Note_off_c, 3, 60, 100
5, 86880, Note_on_c, 3, 62, 100
5, 86880, Note_on_c, 3, 55, 100
5, 86944, Note_off_c, 3, 62, 100
5, 86944, Note_off_c, 3, 55, 100
5, 87552, Note_on_c, 3, 57, 100
5, 87680, Note_off_c, 3, 57, 100
5, 87936, Note_on_c, 3, 60, 100
5, 88000, Note_off_c, 3, 60, 100
5, 88032, Note_on_c, 3, 57, 100
5, 88096, Note_off_c, 3, 57, 100
5, 88320, Note_on_c, 3, 60, 100
5, 88384, Note_off_c, 3, 60, 100
5, 88416, Note_on_c, 3, 62, 100
5, 88416, Note_on_c, 3, 55, 100
5, 88480, Note_off_c, 3, 62, 100
5, 88480, Note_off_c, 3, 55, 100
5, 89088, Note_on_c, 3, 58, 100
5, 89216, Note_off_c, 3, 58, 100
5, 89472, Note_on_c, 3, 61, 100
5, 89536, Note_off_c, 3, 61, 100
5, 89568, Note_on_c, 3, 58, 100
5, 89632, Note_off_c, 3, 58, 100
5, 89856, Note_on_c, 3, 61, 100
5, 89920, Note_off_c, 3, 61, 100
5, 89952, Note_on_c, 3, 63, 100
5, 89952, Note_on_c, 3, 56, 100
5, 90016, Note_off_c, 3, 63, 100
5, 90016, Note_off_c, 3, 56, 100
5, 90624, Note_on_c, 3, 58, 100
5, 90752, Note_off_c, 3, 58, 100
5, 91008, Note_on_c, 3, 61, 100
5, 91072, Note_off_c, 3, 61, 100
5, 91104, Note_on_c, 3, 58, 100
5, 91168, Note_off_c, 3, 58, 100
5, 91392, Note_on_c, 3, 61, 100
5, 91456, Note_off_c, 3, 61, 100
5, 91488, Note_on_c, 3, 63, 100
5, 91488, Note_on_c, 3, 56, 100
5, 91552, Note_off_c, 3, 63, 100
5, 91552, Note_off_c, 3, 56, 100
5, 92160, Note_on_c, 3, 58, 100
5, 92288, Note_off_c, 3, 58, 100
5, 92544, Note_on_c, 3, 61, 100
5, 92608, Note_off_c, 3, 61, 100
5, 92640, Note_on_c, 3, 58, 100
5, 92704, Note_off_c, 3, 58, 100
5, 92928, Note_on_c, 3, 61, 100
5, 92992, Note_off_c, 3, 61, 100
5, 93024, Note_on_c, 3, 63, 100
5, 93024, Note_on_c, 3, 56, 100
5, 93088, Note_off_c, 3, 63, 100
5, 93088, Note_off_c, 3, 56, 100
5, 94080, Note_on_c, 3, 72, 100
5, 94080, Note_on_c, 3, 67, 100
5, 94080, Note_on_c, 3, 60, 100
5, 94336, Note_off_c, 3, 72, 100
5, 94336, Note_off_c, 3, 67, 100
5, 94336, Note_off_c, 3, 60, 100
5, 95232, Note_on_c, 3, 77, 100
5, 95360, Note_off_c, 3, 77, 100
5, 95424, Note_on_c, 3, 77, 100
5, 95488, Note_off_c, 3, 77, 100
5, 96288, Note_on_c, 3, 52, 100
5, 96288, Note_on_c, 3, 59, 100
5, 96288, Note_on_c, 3, 64, 100
5, 96288, Note_on_c, 3, 67, 100
5, 96288, Note_on_c, 3, 71, 100
5, 96288, Note_on_c, 3, 76, 100
5, 96352, Note_off_c, 3, 52, 100
5, 96352, Note_off_c, 3, 59, 100
5, 96352, Note_off_c, 3, 64, 100
5, 96352, Note_off_c, 3, 67, 100
5, 96352, Note_off_c, 3, 71, 100
5, 96352, Note_off_c, 3, 76, 100
5, 97824, Note_on_c, 3, 53, 100
5, 97824, Note_on_c, 3, 60, 100
5, 97824, Note_on_c, 3, 65, 100
5, 97824, Note_on_c, 3, 69, 100
5, 97824, Note_on_c, 3, 72, 100
5, 97824, Note_on_c, 3, 77, 100
5, 97888, Note_off_c, 3, 53, 100
5, 97888, Note_off_c, 3, 60, 100
5, 97888, Note_off_c, 3, 65, 100
5, 97888, Note_off_c, 3, 69, 100
5, 97888, Note_off_c, 3, 72, 100
5, 97888, Note_off_c, 3, 77, 100
5, 99072, Note_on_c, 3, 55, 100
5, 99072, Note_on_c, 3, 62, 100
5, 99072, Note_on_c, 3, 67, 100
5, 99072, Note_on_c, 3, 71, 100
5, 99072, Note_on_c, 3, 74, 100
5, 99072, Note_on_c, 3, 79, 100
5, 99264, Note_off_c, 3, 55, 100
5, 99264, Note_off_c, 3, 62, 100
5, 99264, Note_off_c, 3, 67, 100
5, 99264, Note_off_c, 3, 71, 100
5, 99264, Note_off_c, 3, 74, 100
5, 99264, Note_off_c, 3, 79, 100
5, 99456, Note_on_c, 3, 55, 100
5, 99456, Note_on_c, 3, 62, 100
5, 99456, Note_on_c, 3, 67, 100
5, 99456, Note_on_c, 3, 71, 100
5, 99456, Note_on_c, 3, 74, 100
5, 99456, Note_on_c, 3, 79, 100
5, 99584, Note_off_c, 3, 55, 100
5, 99584, Note_off_c, 3, 62, 100
5, 99584, Note_off_c, 3, 67, 100
5, 99584, Note_off_c, 3, 71, 100
5, 99584, Note_off_c, 3, 74, 100
5, 99584, Note_off_c, 3, 79, 100
5, 100992, Note_on_c, 3, 62, 100
5, 100992, Note_on_c, 3, 69, 100
5, 100992, Note_on_c, 3, 74, 100
5, 100992, Note_on_c, 3, 81, 100
5, 100992, Note_on_c, 3, 86, 100
5, 101184, Note_off_c, 3, 62, 100
5, 101184, Note_off_c, 3, 69, 100
5, 101184, Note_off_c, 3, 74, 100
5, 101184, Note_off_c, 3, 81, 100
5, 101184, Note_off_c, 3, 86, 100
5, 101280, Note_on_c, 3, 74, 100
5, 101280, Note_on_c, 3, 78, 100
5, 101280, Note_on_c, 3, 81, 100
5, 101280, Note_on_c, 3, 86, 100
5, 101280, Note_on_c, 3, 90, 100
5, 101344, Note_off_c, 3, 74, 100
5, 101344, Note_off_c, 3, 78, 100
5, 101344, Note_off_c, 3, 81, 100
5, 101344, Note_off_c, 3, 86, 100
5, 101344, Note_off_c, 3, 90, 100
5, 101760, Note_on_c, 3, 62, 100
5, 101760, Note_on_c, 3, 69, 100
5, 101760, Note_on_c, 3, 74, 100
5, 101760, Note_on_c, 3, 81, 100
5, 101760, Note_on_c, 3, 86, 100
5, 102016, Note_off_c, 3, 62, 100
5, 102016, Note_off_c, 3, 69, 100
5, 102016, Note_off_c, 3, 74, 100
5, 102016, Note_off_c, 3, 81, 100
5, 102016, Note_off_c, 3, 86, 100
5, 102432, Note_on_c, 3, 52, 100
5, 102432, Note_on_c, 3, 59, 100
5, 102432, Note_on_c, 3, 64, 100
5, 102432, Note_on_c, 3, 67, 100
5, 102432, Note_on_c, 3, 71, 100
5, 102432, Note_on_c, 3, 76, 100
5, 102496, Note_off_c, 3, 52, 100
5, 102496, Note_off_c, 3, 59, 100
5, 102496, Note_off_c, 3, 64, 100
5, 102496, Note_off_c, 3, 67, 100
5, 102496, Note_off_c, 3, 71, 100
5, 102496, Note_off_c, 3, 76, 100
5, 103968, Note_on_c, 3, 53, 100
5, 103968, Note_on_c, 3, 60, 100
5, 103968, Note_on_c, 3, 65, 100
5, 103968, Note_on_c, 3, 69, 100
5, 103968, Note_on_c, 3, 72, 100
5, 103968, Note_on_c, 3, 77, 100
5, 104032, Note_off_c, 3, 53, 100
5, 104032, Note_off_c, 3, 60, 100
5, 104032, Note_off_c, 3, 65, 100
5, 104032, Note_off_c, 3, 69, 100
5, 104032, Note_off_c, 3, 72, 100
5, 104032, Note_off_c, 3, 77, 100
5, 105216, Note_on_c, 3, 55, 100
5, 105216, Note_on_c, 3, 62, 100
5, 105216, Note_on_c, 3, 67, 100
5, 105216, Note_on_c, 3, 71, 100
5, 105216, Note_on_c, 3, 74, 100
5, 105216, Note_on_c, 3, 79, 100
5, 105408, Note_off_c, 3, 55, 100
5, 105408, Note_off_c, 3, 62, 100
5, 105408, Note_off_c, 3, 67, 100
5, 105408, Note_off_c, 3, 71, 100
5, 105408, Note_off_c, 3, 74, 100
5, 105408, Note_off_c, 3, 79, 100
5, 105600, Note_on_c, 3, 55, 100
5, 105600, Note_on_c, 3, 62, 100
5, 105600, Note_on_c, 3, 67, 100
5, 105600, Note_on_c, 3, 71, 100
5, 105600, Note_on_c, 3, 74, 100
5, 105600, Note_on_c, 3, 79, 100
5, 105728, Note_off_c, 3, 55, 100
5, 105728, Note_off_c, 3, 62, 100
5, 105728, Note_off_c, 3, 67, 100
5, 105728, Note_off_c, 3, 71, 100
5, 105728, Note_off_c, 3, 74, 100
5, 105728, Note_off_c, 3, 79, 100
5, 107136, Note_on_c, 3, 62, 100
5, 107136, Note_on_c, 3, 69, 100
5, 107136, Note_on_c, 3, 74, 100
5, 107136, Note_on_c, 3, 81, 100
5, 107136, Note_on_c, 3, 86, 100
5, 107328, Note_off_c, 3, 62, 100
5, 107328, Note_off_c, 3, 69, 100
5, 107328, Note_off_c, 3, 74, 100
5, 107328, Note_off_c, 3, 81, 100
5, 107328, Note_off_c, 3, 86, 100
5, 107424, Note_on_c, 3, 74, 100
5, 107424, Note_on_c, 3, 78, 100
5, 107424, Note_on_c, 3, 81, 100
5, 107424, Note_on_c, 3, 86, 100
5, 107424, Note_on_c, 3, 90, 100
5, 107488, Note_off_c, 3, 74, 100
5, 107488, Note_off_c, 3, 78, 100
5, 107488, Note_off_c, 3, 81, 100
5, 107488, Note_off_c, 3, 86, 100
5, 107488, Note_off_c, 3, 90, 100
5, 107904, Note_on_c, 3, 62, 100
5, 107904, Note_on_c, 3, 69, 100
5, 107904, Note_on_c, 3, 74, 100
5, 107904, Note_on_c, 3, 81, 100
5, 107904, Note_on_c, 3, 86, 100
5, 108160, Note_off_c, 3, 62, 100
5, 108160, Note_off_c, 3, 69, 100
5, 108160, Note_off_c, 3, 74, 100
5, 108160, Note_off_c, 3, 81, 100
5, 108160, Note_off_c, 3, 86, 100
5, 108288, Note_on_c, 3, 57, 100
5, 108416, Note_off_c, 3, 57, 100
5, 108672, Note_on_c, 3, 60, 100
5, 108736, Note_off_c, 3, 60, 100
5, 108768, Note_on_c, 3, 57, 100
5, 108832, Note_off_c, 3, 57, 100
5, 109056, Note_on_c, 3, 60, 100
5, 109120, Note_off_c, 3, 60, 100
5, 109152, Note_on_c, 3, 62, 100
5, 109152, Note_on_c, 3, 55, 100
5, 109216, Note_off_c, 3, 62, 100
5, 109216, Note_off_c, 3, 55, 100
5, 109824, Note_on_c, 3, 57, 100
5, 109952, Note_off_c, 3, 57, 100
5, 110208, Note_on_c, 3, 60, 100
5, 110272, Note_off_c, 3, 60, 100
5, 110304, Note_on_c, 3, 57, 100
5, 110368, Note_off_c, 3, 57, 100
5, 110592, Note_on_c, 3, 60, 100
5, 110656, Note_off_c, 3, 60, 100
5, 110688, Note_on_c, 3, 62, 100
5, 110688, Note_on_c, 3, 55, 100
5, 110752, Note_off_c, 3, 62, 100
5, 110752, Note_off_c, 3, 55, 100
5, 111360, Note_on_c, 3, 57, 100
5, 111488, Note_off_c, 3, 57, 100
5, 111744, Note_on_c, 3, 60, 100
5, 111808, Note_off_c, 3, 60, 100
5, 111840, Note_on_c, 3, 57, 100
5, 111904, Note_off_c, 3, 57, 100
5, 112128, Note_on_c, 3, 60, 100
5, 112192, Note_off_c, 3, 60, 100
5, 112224, Note_on_c, 3, 62, 100
5, 112224, Note_on_c, 3, 55, 100
5, 112288, Note_off_c, 3, 62, 100
5, 112288, Note_off_c, 3, 55, 100
5, 112896, Note_on_c, 3, 57, 100
5, 113024, Note_off_c, 3, 57, 100
5, 113280, Note_on_c, 3, 60, 100
5, 113344, Note_off_c, 3, 60, 100
5, 113376, Note_on_c, 3, 57, 100
5, 113440, Note_off_c, 3, 57, 100
5, 113664, Note_on_c, 3, 60, 100
5, 113728, Note_off_c, 3, 60, 100
5, 113760, Note_on_c, 3, 62, 100
5, 113760, Note_on_c, 3, 55, 100
5, 113824, Note_off_c, 3, 62, 100
5, 113824, Note_off_c, 3, 55, 100
5, 114432, Note_on_c, 3, 58, 100
5, 114560, Note_off_c, 3, 58, 100
5, 114816, Note_on_c, 3, 61, 100
5, 114880, Note_off_c, 3, 61, 100
5, 114912, Note_on_c, 3, 58, 100
5, 114976, Note_off_c, 3, 58, 100
5, 115200, Note_on_c, 3, 61, 100
5, 115264, Note_off_c, 3, 61, 100
5, 115296, Note_on_c, 3, 63, 100
5, 115296, Note_on_c, 3, 56, 100
5, 115360, Note_off_c, 3, 63, 100
5, 115360, Note_off_c, 3, 56, 100
5, 115968, Note_on_c, 3, 58, 100
5, 116096, Note_off_c, 3, 58, 100
5, 116352, Note_on_c, 3, 61, 100
5, 116416, Note_off_c, 3, 61, 100
5, 116448, Note_on_c, 3, 58, 100
5, 116512, Note_off_c, 3, 58, 100
5, 116736, Note_on_c, 3, 61, 100
5, 116800, Note_off_c, 3, 61, 100
5, 116832, Note_on_c, 3, 63, 100
5, 116832, Note_on_c, 3, 56, 100
5, 116896, Note_off_c, 3, 63, 100
5, 116896, Note_off_c, 3, 56, 100
5, 117504, Note_on_c, 3, 58, 100
5, 117632, Note_off_c, 3, 58, 100
5, 117888, Note_on_c, 3, 61, 100
5, 117952, Note_off_c, 3, 61, 100
5, 117984, Note_on_c, 3, 58, 100
5, 118048, Note_off_c, 3, 58, 100
5, 118272, Note_on_c, 3, 61, 100
5, 118336, Note_off_c, 3, 61, 100
5, 118368, Note_on_c, 3, 63, 100
5, 118368, Note_on_c, 3, 56, 100
5, 118432, Note_off_c, 3, 63, 100
5, 118432, Note_off_c, 3, 56, 100
5, 119424, Note_on_c, 3, 72, 100
5, 119424, Note_on_c, 3, 67, 100
5, 119424, Note_on_c, 3, 60, 100
5, 119680, Note_off_c, 3, 72, 100
5, 119680, Note_off_c, 3, 67, 100
5, 119680, Note_off_c, 3, 60, 100
5, 120576, Note_on_c, 3, 77, 100
5, 120704, Note_off_c, 3, 77, 100
5, 120768, Note_on_c, 3, 77, 100
5, 120832, Note_off_c, 3, 77, 100
5, 120832, End_track
6, 0, Start_track
6, 0, Control_c, 4, 0, 0
6, 0, Program_c, 4, 30
6, 0, Control_c, 4, 10, 21
6, 0, Control_c, 4, 91, 69
6, 13824, Note_on_c, 4, 64, 100
6, 13824, Note_on_c, 4, 71, 100
6, 13824, Note_on_c, 4, 76, 100
6, 14080, Note_off_c, 4, 64, 100
6, 14080, Note_off_c, 4, 71, 100
6, 14080, Note_off_c, 4, 76, 100
6, 14592, Note_on_c, 4, 64, 100
6, 14592, Note_on_c, 4, 69, 100
6, 14592, Note_on_c, 4, 76, 100
6, 14848, Note_off_c, 4, 64, 100
6, 14848, Note_off_c, 4, 69, 100
6, 14848, Note_off_c, 4, 76, 100
6, 15360, Note_on_c, 4, 58, 100
6, 15360, Note_on_c, 4, 65, 100
6, 15360, Note_on_c, 4, 70, 100
6, 15616, Note_off_c, 4, 58, 100
6, 15616, Note_off_c, 4, 65, 100
6, 15616, Note_off_c, 4, 70, 100
6, 16128, Note_on_c, 4, 58, 100
6, 16128, Note_on_c, 4, 65, 100
6, 16128, Note_on_c, 4, 70, 100
6, 16384, Note_off_c, 4, 58, 100
6, 16384, Note_off_c, 4, 65, 100
6, 16384, Note_off_c, 4, 70, 100
6, 16896, Note_on_c, 4, 64, 100
6, 16896, Note_on_c, 4, 71, 100
6, 16896, Note_on_c, 4, 76, 100
6, 17152, Note_off_c, 4, 64, 100
6, 17152, Note_off_c, 4, 71, 100
6, 17152, Note_off_c, 4, 76, 100
6, 17664, Note_on_c, 4, 64, 100
6, 17664, Note_on_c, 4, 71, 100
6, 17664, Note_on_c, 4, 76, 100
6, 17920, Note_off_c, 4, 64, 100
6, 17920, Note_off_c, 4, 71, 100
6, 17920, Note_off_c, 4, 76, 100
6, 18432, Note_on_c, 4, 58, 100
6, 18432, Note_on_c, 4, 65, 100
6, 18432, Note_on_c, 4, 70, 100
6, 18688, Note_off_c, 4, 58, 100
6, 18688, Note_off_c, 4, 65, 100
6, 18688, Note_off_c, 4, 70, 100
6, 19200, Note_on_c, 4, 58, 100
6, 19200, Note_on_c, 4, 65, 100
6, 19200, Note_on_c, 4, 70, 100
6, 19392, Note_off_c, 4, 58, 100
6, 19392, Note_off_c, 4, 65, 100
6, 19392, Note_off_c, 4, 70, 100
6, 19488, Note_on_c, 4, 70, 100
6, 19552, Note_off_c, 4, 70, 100
6, 19968, Note_on_c, 4, 60, 100
6, 19968, Note_on_c, 4, 67, 100
6, 19968, Note_on_c, 4, 72, 100
6, 20160, Note_off_c, 4, 60, 100
6, 20160, Note_off_c, 4, 67, 100
6, 20160, Note_off_c, 4, 72, 100
6, 20256, Note_on_c, 4, 60, 100
6, 20320, Note_off_c, 4, 60, 100
6, 20736, Note_on_c, 4, 60, 100
6, 20736, Note_on_c, 4, 67, 100
6, 20736, Note_on_c, 4, 72, 100
6, 20928, Note_off_c, 4, 60, 100
6, 20928, Note_off_c, 4, 67, 100
6, 20928, Note_off_c, 4, 72, 100
6, 21024, Note_on_c, 4, 72, 100
6, 21024, Note_on_c, 4, 67, 100
6, 21088, Note_off_c, 4, 72, 100
6, 21088, Note_off_c, 4, 67, 100
6, 21504, Note_on_c, 4, 56, 100
6, 21504, Note_on_c, 4, 63, 100
6, 21504, Note_on_c, 4, 68, 100
6, 21696, Note_off_c, 4, 56, 100
6, 21696, Note_off_c, 4, 63, 100
6, 21696, Note_off_c, 4, 68, 100
6, 22272, Note_on_c, 4, 56, 100
6, 22272, Note_on_c, 4, 63, 100
6, 22272, Note_on_c, 4, 68, 100
6, 22464, Note_off_c, 4, 56, 100
6, 22464, Note_off_c, 4, 63, 100
6, 22464, Note_off_c, 4, 68, 100
6, 22848, Note_on_c, 4, 56, 100
6, 22976, Note_off_c, 4, 56, 100
6, 23040, Note_on_c, 4, 62, 100
6, 23040, Note_on_c, 4, 69, 100
6, 23040, Note_on_c, 4, 74, 100
6, 23232, Note_off_c, 4, 62, 100
6, 23232, Note_off_c, 4, 69, 100
6, 23232, Note_off_c, 4, 74, 100
6, 23808, Note_on_c, 4, 62, 100
6, 23808, Note_on_c, 4, 69, 100
6, 23808, Note_on_c, 4, 74, 100
6, 24000, Note_off_c, 4, 62, 100
6, 24000, Note_off_c, 4, 69, 100
6, 24000, Note_off_c, 4, 74, 100
6, 24384, Note_on_c, 4, 57, 100
6, 24512, Note_off_c, 4, 57, 100
6, 24576, Note_on_c, 4, 48, 100
6, 24576, Note_on_c, 4, 55, 100
6, 24576, Note_on_c, 4, 60, 100
6, 24768, Note_off_c, 4, 48, 100
6, 24768, Note_off_c, 4, 55, 100
6, 24768, Note_off_c, 4, 60, 100
6, 25248, Note_on_c, 4, 60, 100
6, 25248, Note_on_c, 4, 64, 100
6, 25312, Note_off_c, 4, 60, 100
6, 25312, Note_off_c, 4, 64, 100
6, 25632, Note_on_c, 4, 55, 100
6, 25632, Note_on_c, 4, 60, 100
6, 25696, Note_off_c, 4, 55, 100
6, 25696, Note_off_c, 4, 60, 100
6, 26016, Note_on_c, 4, 60, 100
6, 26016, Note_on_c, 4, 67, 100
6, 26016, Note_on_c, 4, 72, 100
6, 26016, Note_on_c, 4, 75, 100
6, 26016, Note_on_c, 4, 79, 100
6, 26080, Note_off_c, 4, 60, 100
6, 26080, Note_off_c, 4, 67, 100
6, 26080, Note_off_c, 4, 72, 100
6, 26080, Note_off_c, 4, 75, 100
6, 26080, Note_off_c, 4, 79, 100
6, 26400, Note_on_c, 4, 60, 100
6, 26400, Note_on_c, 4, 67, 100
6, 26400, Note_on_c, 4, 72, 100
6, 26400, Note_on_c, 4, 75, 100
6, 26400, Note_on_c, 4, 79, 100
6, 26464, Note_off_c, 4, 60, 100
6, 26464, Note_off_c, 4, 67, 100
6, 26464, Note_off_c, 4, 72, 100
6, 26464, Note_off_c, 4, 75, 100
6, 26464, Note_off_c, 4, 79, 100
6, 26496, Note_on_c, 4, 60, 100
6, 26496, Note_on_c, 4, 67, 100
6, 26496, Note_on_c, 4, 72, 100
6, 26496, Note_on_c, 4, 75, 100
6, 26496, Note_on_c, 4, 79, 100
6, 26752, Note_off_c, 4, 60, 100
6, 26752, Note_off_c, 4, 67, 100
6, 26752, Note_off_c, 4, 72, 100
6, 26752, Note_off_c, 4, 75, 100
6, 26752, Note_off_c, 4, 79, 100
6, 27168, Note_on_c, 4, 60, 100
6, 27168, Note_on_c, 4, 67, 100
6, 27168, Note_on_c, 4, 72, 100
6, 27168, Note_on_c, 4, 75, 100
6, 27168, Note_on_c, 4, 79, 100
6, 27232, Note_off_c, 4, 60, 100
6, 27232, Note_off_c, 4, 67, 100
6, 27232, Note_off_c, 4, 72, 100
6, 27232, Note_off_c, 4, 75, 100
6, 27232, Note_off_c, 4, 79, 100
6, 27264, Note_on_c, 4, 60, 100
6, 27264, Note_on_c, 4, 67, 100
6, 27264, Note_on_c, 4, 72, 100
6, 27264, Note_on_c, 4, 75, 100
6, 27264, Note_on_c, 4, 79, 100
6, 27520, Note_off_c, 4, 60, 100
6, 27520, Note_off_c, 4, 67, 100
6, 27520, Note_off_c, 4, 72, 100
6, 27520, Note_off_c, 4, 75, 100
6, 27520, Note_off_c, 4, 79, 100
6, 27936, Note_on_c, 4, 58, 100
6, 27936, Note_on_c, 4, 65, 100
6, 28000, Note_off_c, 4, 58, 100
6, 28000, Note_off_c, 4, 65, 100
6, 28032, Note_on_c, 4, 70, 100
6, 28032, Note_on_c, 4, 74, 100
6, 28032, Note_on_c, 4, 77, 100
6, 28160, Note_off_c, 4, 70, 100
6, 28160, Note_off_c, 4, 74, 100
6, 28160, Note_off_c, 4, 77, 100
6, 28704, Note_on_c, 4, 58, 100
6, 28704, Note_on_c, 4, 65, 100
6, 28768, Note_off_c, 4, 58, 100
6, 28768, Note_off_c, 4, 65, 100
6, 28800, Note_on_c, 4, 70, 100
6, 28800, Note_on_c, 4, 74, 100
6, 28800, Note_on_c, 4, 77, 100
6, 28992, Note_off_c, 4, 70, 100
6, 28992, Note_off_c, 4, 74, 100
6, 28992, Note_off_c, 4, 77, 100
6, 29472, Note_on_c, 4, 57, 100
6, 29472, Note_on_c, 4, 69, 100
6, 29472, Note_on_c, 4, 73, 100
6, 29472, Note_on_c, 4, 76, 100
6, 29472, Note_on_c, 4, 81, 100
6, 29664, Note_off_c, 4, 57, 100
6, 29664, Note_off_c, 4, 69, 100
6, 29664, Note_off_c, 4, 73, 100
6, 29664, Note_off_c, 4, 76, 100
6, 29664, Note_off_c, 4, 81, 100
6, 29952, Note_on_c, 4, 57, 100
6, 29952, Note_on_c, 4, 81, 100
6, 29952, Note_on_c, 4, 85, 100
6, 29952, Note_on_c, 4, 88, 100
6, 29952, Note_on_c, 4, 93, 100
6, 30144, Note_off_c, 4, 57, 100
6, 30144, Note_off_c, 4, 81, 100
6, 30144, Note_off_c, 4, 85, 100
6, 30144, Note_off_c, 4, 88, 100
6, 30144, Note_off_c, 4, 93, 100
6, 30528, Note_on_c, 4, 57, 100
6, 30528, Note_on_c, 4, 69, 100
6, 30528, Note_on_c, 4, 73, 100
6, 30528, Note_on_c, 4, 76, 100
6, 30528, Note_on_c, 4, 81, 100
6, 30656, Note_off_c, 4, 57, 100
6, 30656, Note_off_c, 4, 69, 100
6, 30656, Note_off_c, 4, 73, 100
6, 30656, Note_off_c, 4, 76, 100
6, 30656, Note_off_c, 4, 81, 100
6, 31008, Note_on_c, 4, 52, 100
6, 31008, Note_on_c, 4, 59, 100
6, 31008, Note_on_c, 4, 64, 100
6, 31008, Note_on_c, 4, 69, 100
6, 31008, Note_on_c, 4, 71, 100
6, 31008, Note_on_c, 4, 76, 100
6, 31200, Note_off_c, 4, 52, 100
6, 31200, Note_off_c, 4, 59, 100
6, 31200, Note_off_c, 4, 64, 100
6, 31200, Note_off_c, 4, 69, 100
6, 31200, Note_off_c, 4, 71, 100
6, 31200, Note_off_c, 4, 76, 100
6, 31488, Note_on_c, 4, 52, 100
6, 31488, Note_on_c, 4, 64, 100
6, 31488, Note_on_c, 4, 71, 100
6, 31488, Note_on_c, 4, 76, 100
6, 31488, Note_on_c, 4, 81, 100
6, 31488, Note_on_c, 4, 83, 100
6, 31680, Note_off_c, 4, 52, 100
6, 31680, Note_off_c, 4, 64, 100
6, 31680, Note_off_c, 4, 71, 100
6, 31680, Note_off_c, 4, 76, 100
6, 31680, Note_off_c, 4, 81, 100
6, 31680, Note_off_c, 4, 83, 100
6, 32064, Note_on_c, 4, 52, 100
6, 32064, Note_on_c, 4, 64, 100
6, 32064, Note_on_c, 4, 71, 100
6, 32064, Note_on_c, 4, 76, 100
6, 32064, Note_on_c, 4, 81, 100
6, 32064, Note_on_c, 4, 83, 100
6, 32192, Note_off_c, 4, 52, 100
6, 32192, Note_off_c, 4, 64, 100
6, 32192, Note_off_c, 4, 71, 100
6, 32192, Note_off_c, 4, 76, 100
6, 32192, Note_off_c, 4, 81, 100
6, 32192, Note_off_c, 4, 83, 100
6, 32256, Note_on_c, 4, 52, 100
6, 32448, Note_off_c, 4, 52, 100
6, 32544, Note_on_c, 4, 52, 100
6, 32608, Note_off_c, 4, 52, 100
6, 34176, Note_on_c, 4, 53, 100
6, 34176, Note_on_c, 4, 60, 100
6, 34304, Note_off_c, 4, 53, 100
6, 34304, Note_off_c, 4, 60, 100
6, 35328, Note_on_c, 4, 55, 100
6, 35328, Note_on_c, 4, 62, 100
6, 35520, Note_off_c, 4, 55, 100
6, 35520, Note_off_c, 4, 62, 100
6, 35616, Note_on_c, 4, 55, 100
6, 35616, Note_on_c, 4, 62, 100
6, 35680, Note_off_c, 4, 55, 100
6, 35680, Note_off_c, 4, 62, 100
6, 36864, Note_on_c, 4, 62, 100
6, 36864, Note_on_c, 4, 69, 100
6, 37056, Note_off_c, 4, 62, 100
6, 37056, Note_off_c, 4, 69, 100
6, 37152, Note_on_c, 4, 62, 100
6, 37152, Note_on_c, 4, 69, 100
6, 37216, Note_off_c, 4, 62, 100
6, 37216, Note_off_c, 4, 69, 100
6, 37728, Note_on_c, 4, 57, 100
6, 37792, Note_off_c, 4, 57, 100
6, 37824, Note_on_c, 4, 64, 100
6, 37952, Note_off_c, 4, 64, 100
6, 38208, Note_on_c, 4, 55, 100
6, 38336, Note_off_c, 4, 55, 100
6, 38400, Note_on_c, 4, 52, 100
6, 38592, Note_off_c, 4, 52, 100
6, 38688, Note_on_c, 4, 52, 100
6, 38752, Note_off_c, 4, 52, 100
6, 40320, Note_on_c, 4, 53, 100
6, 40320, Note_on_c, 4, 60, 100
6, 40448, Note_off_c, 4, 53, 100
6, 40448, Note_off_c, 4, 60, 100
6, 41472, Note_on_c, 4, 55, 100
6, 41472, Note_on_c, 4, 62, 100
6, 41664, Note_off_c, 4, 55, 100
6, 41664, Note_off_c, 4, 62, 100
6, 41760, Note_on_c, 4, 55, 100
6, 41760, Note_on_c, 4, 62, 100
6, 41824, Note_off_c, 4, 55, 100
6, 41824, Note_off_c, 4, 62, 100
6, 43008, Note_on_c, 4, 62, 100
6, 43008, Note_on_c, 4, 69, 100
6, 43200, Note_off_c, 4, 62, 100
6, 43200, Note_off_c, 4, 69, 100
6, 43296, Note_on_c, 4, 62, 100
6, 43296, Note_on_c, 4, 69, 100
6, 43360, Note_off_c, 4, 62, 100
6, 43360, Note_off_c, 4, 69, 100
6, 43872, Note_on_c, 4, 57, 100
6, 43936, Note_off_c, 4, 57, 100
6, 43968, Note_on_c, 4, 64, 100
6, 44096, Note_off_c, 4, 64, 100
6, 44352, Note_on_c, 4, 55, 100
6, 44480, Note_off_c, 4, 55, 100
6, 44544, Note_on_c, 4, 57, 100
6, 44672, Note_off_c, 4, 57, 100
6, 44928, Note_on_c, 4, 60, 100
6, 44992, Note_off_c, 4, 60, 100
6, 45024, Note_on_c, 4, 57, 100
6, 45088, Note_off_c, 4, 57, 100
6, 45312, Note_on_c, 4, 60, 100
6, 45376, Note_off_c, 4, 60, 100
6, 45408, Note_on_c, 4, 62, 100
6, 45408, Note_on_c, 4, 55, 100
6, 45472, Note_off_c, 4, 62, 100
6, 45472, Note_off_c, 4, 55, 100
6, 46080, Note_on_c, 4, 57, 100
6, 46208, Note_off_c, 4, 57, 100
6, 46464, Note_on_c, 4, 60, 100
6, 46528, Note_off_c, 4, 60, 100
6, 46560, Note_on_c, 4, 57, 100
6, 46624, Note_off_c, 4, 57, 100
6, 46848, Note_on_c, 4, 60, 100
6, 46912, Note_off_c, 4, 60, 100
6, 46944, Note_on_c, 4, 62, 100
6, 46944, Note_on_c, 4, 55, 100
6, 47008, Note_off_c, 4, 62, 100
6, 47008, Note_off_c, 4, 55, 100
6, 47616, Note_on_c, 4, 57, 100
6, 47744, Note_off_c, 4, 57, 100
6, 48000, Note_on_c, 4, 60, 100
6, 48064, Note_off_c, 4, 60, 100
6, 48096, Note_on_c, 4, 57, 100
6, 48160, Note_off_c, 4, 57, 100
6, 48384, Note_on_c, 4, 60, 100
6, 48448, Note_off_c, 4, 60, 100
6, 48480, Note_on_c, 4, 62, 100
6, 48480, Note_on_c, 4, 55, 100
6, 48544, Note_off_c, 4, 62, 100
6, 48544, Note_off_c, 4, 55, 100
6, 49152, Note_on_c, 4, 57, 100
6, 49280, Note_off_c, 4, 57, 100
6, 49536, Note_on_c, 4, 60, 100
6, 49600, Note_off_c, 4, 60, 100
6, 49632, Note_on_c, 4, 57, 100
6, 49696, Note_off_c, 4, 57, 100
6, 49920, Note_on_c, 4, 60, 100
6, 49984, Note_off_c, 4, 60, 100
6, 50016, Note_on_c, 4, 62, 100
6, 50016, Note_on_c, 4, 55, 100
6, 50080, Note_off_c, 4, 62, 100
6, 50080, Note_off_c, 4, 55, 100
6, 50688, Note_on_c, 4, 58, 100
6, 50816, Note_off_c, 4, 58, 100
6, 51072, Note_on_c, 4, 61, 100
6, 51136, Note_off_c, 4, 61, 100
6, 51168, Note_on_c, 4, 58, 100
6, 51232, Note_off_c, 4, 58, 100
6, 51456, Note_on_c, 4, 61, 100
6, 51520, Note_off_c, 4, 61, 100
6, 51552, Note_on_c, 4, 63, 100
6, 51552, Note_on_c, 4, 56, 100
6, 51616, Note_off_c, 4, 63, 100
6, 51616, Note_off_c, 4, 56, 100
6, 52224, Note_on_c, 4, 58, 100
6, 52352, Note_off_c, 4, 58, 100
6, 52608, Note_on_c, 4, 61, 100
6, 52672, Note_off_c, 4, 61, 100
6, 52704, Note_on_c, 4, 58, 100
6, 52768, Note_off_c, 4, 58, 100
6, 52992, Note_on_c, 4, 61, 100
6, 53056, Note_off_c, 4, 61, 100
6, 53088, Note_on_c, 4, 63, 100
6, 53088, Note_on_c, 4, 56, 100
6, 53152, Note_off_c, 4, 63, 100
6, 53152, Note_off_c, 4, 56, 100
6, 53760, Note_on_c, 4, 58, 100
6, 53888, Note_off_c, 4, 58, 100
6, 54144, Note_on_c, 4, 61, 100
6, 54208, Note_off_c, 4, 61, 100
6, 54240, Note_on_c, 4, 58, 100
6, 54304, Note_off_c, 4, 58, 100
6, 54528, Note_on_c, 4, 61, 100
6, 54592, Note_off_c, 4, 61, 100
6, 54624, Note_on_c, 4, 63, 100
6, 54624, Note_on_c, 4, 56, 100
6, 54688, Note_off_c, 4, 63, 100
6, 54688, Note_off_c, 4, 56, 100
6, 55296, Note_on_c, 4, 60, 100
6, 55296, Note_on_c, 4, 67, 100
6, 55296, Note_on_c, 4, 72, 100
6, 55296, Note_on_c, 4, 76, 100
6, 55296, Note_on_c, 4, 84, 100
6, 55296, Note_on_c, 4, 79, 100
6, 55424, Note_off_c, 4, 60, 100
6, 55424, Note_off_c, 4, 67, 100
6, 55424, Note_off_c, 4, 72, 100
6, 55424, Note_off_c, 4, 76, 100
6, 55424, Note_off_c, 4, 84, 100
6, 55424, Note_off_c, 4, 79, 100
6, 55680, Note_on_c, 4, 60, 100
6, 55680, Note_on_c, 4, 67, 100
6, 55680, Note_on_c, 4, 72, 100
6, 55680, Note_on_c, 4, 76, 100
6, 55680, Note_on_c, 4, 84, 100
6, 55680, Note_on_c, 4, 79, 100
6, 55808, Note_off_c, 4, 60, 100
6, 55808, Note_off_c, 4, 67, 100
6, 55808, Note_off_c, 4, 72, 100
6, 55808, Note_off_c, 4, 76, 100
6, 55808, Note_off_c, 4, 84, 100
6, 55808, Note_off_c, 4, 79, 100
6, 56064, Note_on_c, 4, 62, 100
6, 56064, Note_on_c, 4, 69, 100
6, 56064, Note_on_c, 4, 74, 100
6, 56064, Note_on_c, 4, 78, 100
6, 56064, Note_on_c, 4, 86, 100
6, 56064, Note_on_c, 4, 81, 100
6, 56128, Note_off_c, 4, 62, 100
6, 56128, Note_off_c, 4, 69, 100
6, 56128, Note_off_c, 4, 74, 100
6, 56128, Note_off_c, 4, 78, 100
6, 56128, Note_off_c, 4, 86, 100
6, 56192, Note_off_c, 4, 81, 100
6, 56256, Note_on_c, 4, 62, 100
6, 56256, Note_on_c, 4, 69, 100
6, 56256, Note_on_c, 4, 74, 100
6, 56256, Note_on_c, 4, 78, 100
6, 56256, Note_on_c, 4, 86, 100
6, 56256, Note_on_c, 4, 81, 100
6, 56320, Note_off_c, 4, 62, 100
6, 56320, Note_off_c, 4, 69, 100
6, 56320, Note_off_c, 4, 74, 100
6, 56320, Note_off_c, 4, 78, 100
6, 56320, Note_off_c, 4, 86, 100
6, 56384, Note_off_c, 4, 81, 100
6, 56448, Note_on_c, 4, 60, 100
6, 56448, Note_on_c, 4, 67, 100
6, 56448, Note_on_c, 4, 72, 100
6, 56448, Note_on_c, 4, 76, 100
6, 56448, Note_on_c, 4, 79, 100
6, 56448, Note_on_c, 4, 84, 100
6, 56576, Note_off_c, 4, 60, 100
6, 56576, Note_off_c, 4, 67, 100
6, 56576, Note_off_c, 4, 72, 100
6, 56576, Note_off_c, 4, 76, 100
6, 56576, Note_off_c, 4, 79, 100
6, 56576, Note_off_c, 4, 84, 100
6, 57024, Note_on_c, 4, 59, 100
6, 57024, Note_on_c, 4, 66, 100
6, 57024, Note_on_c, 4, 71, 100
6, 57024, Note_on_c, 4, 75, 100
6, 57024, Note_on_c, 4, 83, 100
6, 57088, Note_off_c, 4, 59, 100
6, 57088, Note_off_c, 4, 66, 100
6, 57088, Note_off_c, 4, 71, 100
6, 57088, Note_off_c, 4, 75, 100
6, 57088, Note_off_c, 4, 83, 100
6, 57216, Note_on_c, 4, 59, 100
6, 57216, Note_on_c, 4, 71, 100
6, 57216, Note_on_c, 4, 66, 100
6, 57216, Note_on_c, 4, 75, 100
6, 57216, Note_on_c, 4, 83, 100
6, 57344, Note_off_c, 4, 59, 100
6, 57344, Note_off_c, 4, 71, 100
6, 57344, Note_off_c, 4, 66, 100
6, 57344, Note_off_c, 4, 75, 100
6, 57344, Note_off_c, 4, 83, 100
6, 57600, Note_on_c, 4, 52, 100
6, 57792, Note_off_c, 4, 52, 100
6, 57888, Note_on_c, 4, 52, 100
6, 57952, Note_off_c, 4, 52, 100
6, 59520, Note_on_c, 4, 53, 100
6, 59520, Note_on_c, 4, 60, 100
6, 59648, Note_off_c, 4, 53, 100
6, 59648, Note_off_c, 4, 60, 100
6, 60672, Note_on_c, 4, 55, 100
6, 60672, Note_on_c, 4, 62, 100
6, 60864, Note_off_c, 4, 55, 100
6, 60864, Note_off_c, 4, 62, 100
6, 60960, Note_on_c, 4, 55, 100
6, 60960, Note_on_c, 4, 62, 100
6, 61024, Note_off_c, 4, 55, 100
6, 61024, Note_off_c, 4, 62, 100
6, 62208, Note_on_c, 4, 62, 100
6, 62208, Note_on_c, 4, 69, 100
6, 62400, Note_off_c, 4, 62, 100
6, 62400, Note_off_c, 4, 69, 100
6, 62496, Note_on_c, 4, 62, 100
6, 62496, Note_on_c, 4, 69, 100
6, 62560, Note_off_c, 4, 62, 100
6, 62560, Note_off_c, 4, 69, 100
6, 63072, Note_on_c, 4, 57, 100
6, 63136, Note_off_c, 4, 57, 100
6, 63168, Note_on_c, 4, 64, 100
6, 63296, Note_off_c, 4, 64, 100
6, 63552, Note_on_c, 4, 55, 100
6, 63680, Note_off_c, 4, 55, 100
6, 63744, Note_on_c, 4, 52, 100
6, 63936, Note_off_c, 4, 52, 100
6, 64032, Note_on_c, 4, 52, 100
6, 64096, Note_off_c, 4, 52, 100
6, 65664, Note_on_c, 4, 53, 100
6, 65664, Note_on_c, 4, 60, 100
6, 65792, Note_off_c, 4, 53, 100
6, 65792, Note_off_c, 4, 60, 100
6, 66816, Note_on_c, 4, 55, 100
6, 66816, Note_on_c, 4, 62, 100
6, 67008, Note_off_c, 4, 55, 100
6, 67008, Note_off_c, 4, 62, 100
6, 67104, Note_on_c, 4, 55, 100
6, 67104, Note_on_c, 4, 62, 100
6, 67168, Note_off_c, 4, 55, 100
6, 67168, Note_off_c, 4, 62, 100
6, 68352, Note_on_c, 4, 62, 100
6, 68352, Note_on_c, 4, 69, 100
6, 68544, Note_off_c, 4, 62, 100
6, 68544, Note_off_c, 4, 69, 100
6, 68640, Note_on_c, 4, 62, 100
6, 68640, Note_on_c, 4, 69, 100
6, 68704, Note_off_c, 4, 62, 100
6, 68704, Note_off_c, 4, 69, 100
6, 69216, Note_on_c, 4, 57, 100
6, 69280, Note_off_c, 4, 57, 100
6, 69312, Note_on_c, 4, 64, 100
6, 69440, Note_off_c, 4, 64, 100
6, 69696, Note_on_c, 4, 55, 100
6, 69824, Note_off_c, 4, 55, 100
6, 69888, Note_on_c, 4, 57, 100
6, 70016, Note_off_c, 4, 57, 100
6, 70272, Note_on_c, 4, 60, 100
6, 70336, Note_off_c, 4, 60, 100
6, 70368, Note_on_c, 4, 57, 100
6, 70432, Note_off_c, 4, 57, 100
6, 70656, Note_on_c, 4, 60, 100
6, 70720, Note_off_c, 4, 60, 100
6, 70752, Note_on_c, 4, 62, 100
6, 70752, Note_on_c, 4, 55, 100
6, 70816, Note_off_c, 4, 62, 100
6, 70816, Note_off_c, 4, 55, 100
6, 71424, Note_on_c, 4, 57, 100
6, 71552, Note_off_c, 4, 57, 100
6, 71808, Note_on_c, 4, 60, 100
6, 71872, Note_off_c, 4, 60, 100
6, 71904, Note_on_c, 4, 57, 100
6, 71968, Note_off_c, 4, 57, 100
6, 72192, Note_on_c, 4, 60, 100
6, 72256, Note_off_c, 4, 60, 100
6, 72288, Note_on_c, 4, 62, 100
6, 72288, Note_on_c, 4, 55, 100
6, 72352, Note_off_c, 4, 62, 100
6, 72352, Note_off_c, 4, 55, 100
6, 72960, Note_on_c, 4, 57, 100
6, 73088, Note_off_c, 4, 57, 100
6, 73344, Note_on_c, 4, 60, 100
6, 73408, Note_off_c, 4, 60, 100
6, 73440, Note_on_c, 4, 57, 100
6, 73504, Note_off_c, 4, 57, 100
6, 73728, Note_on_c, 4, 60, 100
6, 73792, Note_off_c, 4, 60, 100
6, 73824, Note_on_c, 4, 62, 100
6, 73824, Note_on_c, 4, 55, 100
6, 73888, Note_off_c, 4, 62, 100
6, 73888, Note_off_c, 4, 55, 100
6, 74496, Note_on_c, 4, 57, 100
6, 74624, Note_off_c, 4, 57, 100
6, 74880, Note_on_c, 4, 60, 100
6, 74944, Note_off_c, 4, 60, 100
6, 74976, Note_on_c, 4, 57, 100
6, 75040, Note_off_c, 4, 57, 100
6, 75264, Note_on_c, 4, 60, 100
6, 75328, Note_off_c, 4, 60, 100
6, 75360, Note_on_c, 4, 62, 100
6, 75360, Note_on_c, 4, 55, 100
6, 75424, Note_off_c, 4, 62, 100
6, 75424, Note_off_c, 4, 55, 100
6, 76032, Note_on_c, 4, 58, 100
6, 76160, Note_off_c, 4, 58, 100
6, 76416, Note_on_c, 4, 61, 100
6, 76480, Note_off_c, 4, 61, 100
6, 76512, Note_on_c, 4, 58, 100
6, 76576, Note_off_c, 4, 58, 100
6, 76800, Note_on_c, 4, 61, 100
6, 76864, Note_off_c, 4, 61, 100
6, 76896, Note_on_c, 4, 63, 100
6, 76896, Note_on_c, 4, 56, 100
6, 76960, Note_off_c, 4, 63, 100
6, 76960, Note_off_c, 4, 56, 100
6, 77568, Note_on_c, 4, 58, 100
6, 77696, Note_off_c, 4, 58, 100
6, 77952, Note_on_c, 4, 61, 100
6, 78016, Note_off_c, 4, 61, 100
6, 78048, Note_on_c, 4, 58, 100
6, 78112, Note_off_c, 4, 58, 100
6, 78336, Note_on_c, 4, 61, 100
6, 78400, Note_off_c, 4, 61, 100
6, 78432, Note_on_c, 4, 63, 100
6, 78432, Note_on_c, 4, 56, 100
6, 78496, Note_off_c, 4, 63, 100
6, 78496, Note_off_c, 4, 56, 100
6, 79104, Note_on_c, 4, 58, 100
6, 79232, Note_off_c, 4, 58, 100
6, 79488, Note_on_c, 4, 61, 100
6, 79552, Note_off_c, 4, 61, 100
6, 79584, Note_on_c, 4, 58, 100
6, 79648, Note_off_c, 4, 58, 100
6, 79872, Note_on_c, 4, 61, 100
6, 79936, Note_off_c, 4, 61, 100
6, 79968, Note_on_c, 4, 63, 100
6, 79968, Note_on_c, 4, 56, 100
6, 80032, Note_off_c, 4, 63, 100
6, 80032, Note_off_c, 4, 56, 100
6, 80640, Note_on_c, 4, 60, 100
6, 80640, Note_on_c, 4, 67, 100
6, 80640, Note_on_c, 4, 72, 100
6, 80640, Note_on_c, 4, 76, 100
6, 80640, Note_on_c, 4, 84, 100
6, 80640, Note_on_c, 4, 79, 100
6, 80768, Note_off_c, 4, 60, 100
6, 80768, Note_off_c, 4, 67, 100
6, 80768, Note_off_c, 4, 72, 100
6, 80768, Note_off_c, 4, 76, 100
6, 80768, Note_off_c, 4, 84, 100
6, 80768, Note_off_c, 4, 79, 100
6, 81024, Note_on_c, 4, 60, 100
6, 81024, Note_on_c, 4, 67, 100
6, 81024, Note_on_c, 4, 72, 100
6, 81024, Note_on_c, 4, 76, 100
6, 81024, Note_on_c, 4, 84, 100
6, 81024, Note_on_c, 4, 79, 100
6, 81152, Note_off_c, 4, 60, 100
6, 81152, Note_off_c, 4, 67, 100
6, 81152, Note_off_c, 4, 72, 100
6, 81152, Note_off_c, 4, 76, 100
6, 81152, Note_off_c, 4, 84, 100
6, 81152, Note_off_c, 4, 79, 100
6, 81408, Note_on_c, 4, 62, 100
6, 81408, Note_on_c, 4, 69, 100
6, 81408, Note_on_c, 4, 74, 100
6, 81408, Note_on_c, 4, 78, 100
6, 81408, Note_on_c, 4, 86, 100
6, 81408, Note_on_c, 4, 81, 100
6, 81472, Note_off_c, 4, 62, 100
6, 81472, Note_off_c, 4, 69, 100
6, 81472, Note_off_c, 4, 74, 100
6, 81472, Note_off_c, 4, 78, 100
6, 81472, Note_off_c, 4, 86, 100
6, 81536, Note_off_c, 4, 81, 100
6, 81600, Note_on_c, 4, 62, 100
6, 81600, Note_on_c, 4, 69, 100
6, 81600, Note_on_c, 4, 74, 100
6, 81600, Note_on_c, 4, 78, 100
6, 81600, Note_on_c, 4, 86, 100
6, 81600, Note_on_c, 4, 81, 100
6, 81664, Note_off_c, 4, 62, 100
6, 81664, Note_off_c, 4, 69, 100
6, 81664, Note_off_c, 4, 74, 100
6, 81664, Note_off_c, 4, 78, 100
6, 81664, Note_off_c, 4, 86, 100
6, 81728, Note_off_c, 4, 81, 100
6, 81792, Note_on_c, 4, 60, 100
6, 81792, Note_on_c, 4, 67, 100
6, 81792, Note_on_c, 4, 72, 100
6, 81792, Note_on_c, 4, 76, 100
6, 81792, Note_on_c, 4, 79, 100
6, 81792, Note_on_c, 4, 84, 100
6, 81920, Note_off_c, 4, 60, 100
6, 81920, Note_off_c, 4, 67, 100
6, 81920, Note_off_c, 4, 72, 100
6, 81920, Note_off_c, 4, 76, 100
6, 81920, Note_off_c, 4, 79, 100
6, 81920, Note_off_c, 4, 84, 100
6, 82368, Note_on_c, 4, 59, 100
6, 82368, Note_on_c, 4, 66, 100
6, 82368, Note_on_c, 4, 71, 100
6, 82368, Note_on_c, 4, 75, 100
6, 82368, Note_on_c, 4, 83, 100
6, 82432, Note_off_c, 4, 59, 100
6, 82432, Note_off_c, 4, 66, 100
6, 82432, Note_off_c, 4, 71, 100
6, 82432, Note_off_c, 4, 75, 100
6, 82432, Note_off_c, 4, 83, 100
6, 82560, Note_on_c, 4, 59, 100
6, 82560, Note_on_c, 4, 71, 100
6, 82560, Note_on_c, 4, 66, 100
6, 82560, Note_on_c, 4, 75, 100
6, 82560, Note_on_c, 4, 83, 100
6, 82688, Note_off_c, 4, 59, 100
6, 82688, Note_off_c, 4, 71, 100
6, 82688, Note_off_c, 4, 66, 100
6, 82688, Note_off_c, 4, 75, 100
6, 82688, Note_off_c, 4, 83, 100
6, 82944, Note_on_c, 4, 57, 100
6, 83072, Note_off_c, 4, 57, 100
6, 83328, Note_on_c, 4, 60, 100
6, 83392, Note_off_c, 4, 60, 100
6, 83424, Note_on_c, 4, 57, 100
6, 83488, Note_off_c, 4, 57, 100
6, 83712, Note_on_c, 4, 60, 100
6, 83776, Note_off_c, 4, 60, 100
6, 83808, Note_on_c, 4, 62, 100
6, 83808, Note_on_c, 4, 55, 100
6, 83872, Note_off_c, 4, 62, 100
6, 83872, Note_off_c, 4, 55, 100
6, 84480, Note_on_c, 4, 57, 100
6, 84608, Note_off_c, 4, 57, 100
6, 84864, Note_on_c, 4, 60, 100
6, 84928, Note_off_c, 4, 60, 100
6, 84960, Note_on_c, 4, 57, 100
6, 85024, Note_off_c, 4, 57, 100
6, 85248, Note_on_c, 4, 60, 100
6, 85312, Note_off_c, 4, 60, 100
6, 85344, Note_on_c, 4, 62, 100
6, 85344, Note_on_c, 4, 55, 100
6, 85408, Note_off_c, 4, 62, 100
6, 85408, Note_off_c, 4, 55, 100
6, 86016, Note_on_c, 4, 57, 100
6, 86144, Note_off_c, 4, 57, 100
6, 86400, Note_on_c, 4, 60, 100
6, 86464, Note_off_c, 4, 60, 100
6, 86496, Note_on_c, 4, 57, 100
6, 86560, Note_off_c, 4, 57, 100
6, 86784, Note_on_c, 4, 60, 100
6, 86848, Note_off_c, 4, 60, 100
6, 86880, Note_on_c, 4, 62, 100
6, 86880, Note_on_c, 4, 55, 100
6, 86944, Note_off_c, 4, 62, 100
6, 86944, Note_off_c, 4, 55, 100
6, 87552, Note_on_c, 4, 57, 100
6, 87680, Note_off_c, 4, 57, 100
6, 87936, Note_on_c, 4, 60, 100
6, 88000, Note_off_c, 4, 60, 100
6, 88032, Note_on_c, 4, 57, 100
6, 88096, Note_off_c, 4, 57, 100
6, 88320, Note_on_c, 4, 60, 100
6, 88384, Note_off_c, 4, 60, 100
6, 88416, Note_on_c, 4, 62, 100
6, 88416, Note_on_c, 4, 55, 100
6, 88480, Note_off_c, 4, 62, 100
6, 88480, Note_off_c, 4, 55, 100
6, 89088, Note_on_c, 4, 58, 100
6, 89216, Note_off_c, 4, 58, 100
6, 89472, Note_on_c, 4, 61, 100
6, 89536, Note_off_c, 4, 61, 100
6, 89568, Note_on_c, 4, 58, 100
6, 89632, Note_off_c, 4, 58, 100
6, 89856, Note_on_c, 4, 61, 100
6, 89920, Note_off_c, 4, 61, 100
6, 89952, Note_on_c, 4, 63, 100
6, 89952, Note_on_c, 4, 56, 100
6, 90016, Note_off_c, 4, 63, 100
6, 90016, Note_off_c, 4, 56, 100
6, 90624, Note_on_c, 4, 58, 100
6, 90752, Note_off_c, 4, 58, 100
6, 91008, Note_on_c, 4, 61, 100
6, 91072, Note_off_c, 4, 61, 100
6, 91104, Note_on_c, 4, 58, 100
6, 91168, Note_off_c, 4, 58, 100
6, 91392, Note_on_c, 4, 61, 100
6, 91456, Note_off_c, 4, 61, 100
6, 91488, Note_on_c, 4, 63, 100
6, 91488, Note_on_c, 4, 56, 100
6, 91552, Note_off_c, 4, 63, 100
6, 91552, Note_off_c, 4, 56, 100
6, 92160, Note_on_c, 4, 58, 100
6, 92288, Note_off_c, 4, 58, 100
6, 92544, Note_on_c, 4, 61, 100
6, 92608, Note_off_c, 4, 61, 100
6, 92640, Note_on_c, 4, 58, 100
6, 92704, Note_off_c, 4, 58, 100
6, 92928, Note_on_c, 4, 61, 100
6, 92992, Note_off_c, 4, 61, 100
6, 93024, Note_on_c, 4, 63, 100
6, 93024, Note_on_c, 4, 56, 100
6, 93088, Note_off_c, 4, 63, 100
6, 93088, Note_off_c, 4, 56, 100
6, 93696, Note_on_c, 4, 60, 100
6, 93696, Note_on_c, 4, 67, 100
6, 93696, Note_on_c, 4, 72, 100
6, 93696, Note_on_c, 4, 76, 100
6, 93696, Note_on_c, 4, 84, 100
6, 93696, Note_on_c, 4, 79, 100
6, 93824, Note_off_c, 4, 60, 100
6, 93824, Note_off_c, 4, 67, 100
6, 93824, Note_off_c, 4, 72, 100
6, 93824, Note_off_c, 4, 76, 100
6, 93824, Note_off_c, 4, 84, 100
6, 93824, Note_off_c, 4, 79, 100
6, 94080, Note_on_c, 4, 60, 100
6, 94080, Note_on_c, 4, 67, 100
6, 94080, Note_on_c, 4, 72, 100
6, 94080, Note_on_c, 4, 76, 100
6, 94080, Note_on_c, 4, 84, 100
6, 94080, Note_on_c, 4, 79, 100
6, 94208, Note_off_c, 4, 60, 100
6, 94208, Note_off_c, 4, 67, 100
6, 94208, Note_off_c, 4, 72, 100
6, 94208, Note_off_c, 4, 76, 100
6, 94208, Note_off_c, 4, 84, 100
6, 94208, Note_off_c, 4, 79, 100
6, 94464, Note_on_c, 4, 62, 100
6, 94464, Note_on_c, 4, 69, 100
6, 94464, Note_on_c, 4, 74, 100
6, 94464, Note_on_c, 4, 78, 100
6, 94464, Note_on_c, 4, 86, 100
6, 94464, Note_on_c, 4, 81, 100
6, 94528, Note_off_c, 4, 62, 100
6, 94528, Note_off_c, 4, 69, 100
6, 94528, Note_off_c, 4, 74, 100
6, 94528, Note_off_c, 4, 78, 100
6, 94528, Note_off_c, 4, 86, 100
6, 94592, Note_off_c, 4, 81, 100
6, 94656, Note_on_c, 4, 62, 100
6, 94656, Note_on_c, 4, 69, 100
6, 94656, Note_on_c, 4, 74, 100
6, 94656, Note_on_c, 4, 78, 100
6, 94656, Note_on_c, 4, 86, 100
6, 94656, Note_on_c, 4, 81, 100
6, 94720, Note_off_c, 4, 62, 100
6, 94720, Note_off_c, 4, 69, 100
6, 94720, Note_off_c, 4, 74, 100
6, 94720, Note_off_c, 4, 78, 100
6, 94720, Note_off_c, 4, 86, 100
6, 94784, Note_off_c, 4, 81, 100
6, 94848, Note_on_c, 4, 60, 100
6, 94848, Note_on_c, 4, 67, 100
6, 94848, Note_on_c, 4, 72, 100
6, 94848, Note_on_c, 4, 76, 100
6, 94848, Note_on_c, 4, 79, 100
6, 94848, Note_on_c, 4, 84, 100
6, 94976, Note_off_c, 4, 60, 100
6, 94976, Note_off_c, 4, 67, 100
6, 94976, Note_off_c, 4, 72, 100
6, 94976, Note_off_c, 4, 76, 100
6, 94976, Note_off_c, 4, 79, 100
6, 94976, Note_off_c, 4, 84, 100
6, 95424, Note_on_c, 4, 59, 100
6, 95424, Note_on_c, 4, 66, 100
6, 95424, Note_on_c, 4, 71, 100
6, 95424, Note_on_c, 4, 75, 100
6, 95424, Note_on_c, 4, 83, 100
6, 95488, Note_off_c, 4, 59, 100
6, 95488, Note_off_c, 4, 66, 100
6, 95488, Note_off_c, 4, 71, 100
6, 95488, Note_off_c, 4, 75, 100
6, 95488, Note_off_c, 4, 83, 100
6, 95616, Note_on_c, 4, 59, 100
6, 95616, Note_on_c, 4, 71, 100
6, 95616, Note_on_c, 4, 66, 100
6, 95616, Note_on_c, 4, 75, 100
6, 95616, Note_on_c, 4, 83, 100
6, 95744, Note_off_c, 4, 59, 100
6, 95744, Note_off_c, 4, 71, 100
6, 95744, Note_off_c, 4, 66, 100
6, 95744, Note_off_c, 4, 75, 100
6, 95744, Note_off_c, 4, 83, 100
6, 96000, Note_on_c, 4, 52, 100
6, 96192, Note_off_c, 4, 52, 100
6, 96288, Note_on_c, 4, 52, 100
6, 96352, Note_off_c, 4, 52, 100
6, 97056, Note_on_c, 4, 52, 100
6, 97120, Note_off_c, 4, 52, 100
6, 97152, Note_on_c, 4, 59, 100
6, 97216, Note_off_c, 4, 59, 100
6, 97920, Note_on_c, 4, 53, 100
6, 97920, Note_on_c, 4, 60, 100
6, 98048, Note_off_c, 4, 53, 100
6, 98048, Note_off_c, 4, 60, 100
6, 98784, Note_on_c, 4, 55, 100
6, 98848, Note_off_c, 4, 55, 100
6, 98976, Note_on_c, 4, 60, 100
6, 99040, Note_off_c, 4, 60, 100
6, 99072, Note_on_c, 4, 55, 100
6, 99264, Note_off_c, 4, 55, 100
6, 99360, Note_on_c, 4, 62, 100
6, 99424, Note_off_c, 4, 62, 100
6, 100032, Note_on_c, 4, 60, 100
6, 100096, Note_off_c, 4, 60, 100
6, 100224, Note_on_c, 4, 60, 100
6, 100288, Note_off_c, 4, 60, 100
6, 100416, Note_on_c, 4, 55, 100
6, 100544, Note_off_c, 4, 55, 100
6, 100608, Note_on_c, 4, 62, 100
6, 100608, Note_on_c, 4, 69, 100
6, 100800, Note_off_c, 4, 62, 100
6, 100800, Note_off_c, 4, 69, 100
6, 100896, Note_on_c, 4, 62, 100
6, 100896, Note_on_c, 4, 69, 100
6, 100960, Note_off_c, 4, 62, 100
6, 100960, Note_off_c, 4, 69, 100
6, 101472, Note_on_c, 4, 57, 100
6, 101536, Note_off_c, 4, 57, 100
6, 101568, Note_on_c, 4, 64, 100
6, 101696, Note_off_c, 4, 64, 100
6, 101952, Note_on_c, 4, 55, 100
6, 102016, Note_off_c, 4, 55, 100
6, 102048, Note_on_c, 4, 52, 100
6, 102112, Note_off_c, 4, 52, 100
6, 102528, Note_on_c, 4, 52, 100
6, 102528, Note_on_c, 4, 59, 100
6, 102656, Note_off_c, 4, 52, 100
6, 102656, Note_off_c, 4, 59, 100
6, 103008, Note_on_c, 4, 52, 100
6, 103072, Note_off_c, 4, 52, 100
6, 103104, Note_on_c, 4, 55, 100
6, 103168, Note_off_c, 4, 55, 100
6, 103392, Note_on_c, 4, 52, 100
6, 103456, Note_off_c, 4, 52, 100
6, 103488, Note_on_c, 4, 55, 100
6, 103552, Note_off_c, 4, 55, 100
6, 103584, Note_on_c, 4, 52, 100
6, 103648, Note_off_c, 4, 52, 100
6, 104064, Note_on_c, 4, 53, 100
6, 104064, Note_on_c, 4, 60, 100
6, 104192, Note_off_c, 4, 53, 100
6, 104192, Note_off_c, 4, 60, 100
6, 104928, Note_on_c, 4, 55, 100
6, 104992, Note_off_c, 4, 55, 100
6, 105120, Note_on_c, 4, 60, 100
6, 105184, Note_off_c, 4, 60, 100
6, 105216, Note_on_c, 4, 55, 100
6, 105408, Note_off_c, 4, 55, 100
6, 105504, Note_on_c, 4, 62, 100
6, 105568, Note_off_c, 4, 62, 100
6, 106176, Note_on_c, 4, 60, 100
6, 106240, Note_off_c, 4, 60, 100
6, 106368, Note_on_c, 4, 60, 100
6, 106432, Note_off_c, 4, 60, 100
6, 106560, Note_on_c, 4, 55, 100
6, 106688, Note_off_c, 4, 55, 100
6, 106752, Note_on_c, 4, 62, 100
6, 106944, Note_off_c, 4, 62, 100
6, 107040, Note_on_c, 4, 62, 100
6, 107040, Note_on_c, 4, 69, 100
6, 107104, Note_off_c, 4, 62, 100
6, 107104, Note_off_c, 4, 69, 100
6, 107616, Note_on_c, 4, 57, 100
6, 107680, Note_off_c, 4, 57, 100
6, 107712, Note_on_c, 4, 64, 100
6, 107840, Note_off_c, 4, 64, 100
6, 108096, Note_on_c, 4, 55, 100
6, 108224, Note_off_c, 4, 55, 100
6, 108288, Note_on_c, 4, 57, 100
6, 108416, Note_off_c, 4, 57, 100
6, 108672, Note_on_c, 4, 60, 100
6, 108736, Note_off_c, 4, 60, 100
6, 108768, Note_on_c, 4, 57, 100
6, 108832, Note_off_c, 4, 57, 100
6, 109056, Note_on_c, 4, 60, 100
6, 109120, Note_off_c, 4, 60, 100
6, 109152, Note_on_c, 4, 62, 100
6, 109152, Note_on_c, 4, 55, 100
6, 109216, Note_off_c, 4, 62, 100
6, 109216, Note_off_c, 4, 55, 100
6, 109824, Note_on_c, 4, 57, 100
6, 109952, Note_off_c, 4, 57, 100
6, 110208, Note_on_c, 4, 60, 100
6, 110272, Note_off_c, 4, 60, 100
6, 110304, Note_on_c, 4, 57, 100
6, 110368, Note_off_c, 4, 57, 100
6, 110592, Note_on_c, 4, 60, 100
6, 110656, Note_off_c, 4, 60, 100
6, 110688, Note_on_c, 4, 62, 100
6, 110688, Note_on_c, 4, 55, 100
6, 110752, Note_off_c, 4, 62, 100
6, 110752, Note_off_c, 4, 55, 100
6, 111360, Note_on_c, 4, 57, 100
6, 111488, Note_off_c, 4, 57, 100
6, 111744, Note_on_c, 4, 60, 100
6, 111808, Note_off_c, 4, 60, 100
6, 111840, Note_on_c, 4, 57, 100
6, 111904, Note_off_c, 4, 57, 100
6, 112128, Note_on_c, 4, 60, 100
6, 112192, Note_off_c, 4, 60, 100
6, 112224, Note_on_c, 4, 62, 100
6, 112224, Note_on_c, 4, 55, 100
6, 112288, Note_off_c, 4, 62, 100
6, 112288, Note_off_c, 4, 55, 100
6, 112896, Note_on_c, 4, 57, 100
6, 113024, Note_off_c, 4, 57, 100
6, 113280, Note_on_c, 4, 60, 100
6, 113344, Note_off_c, 4, 60, 100
6, 113376, Note_on_c, 4, 57, 100
6, 113440, Note_off_c, 4, 57, 100
6, 113664, Note_on_c, 4, 60, 100
6, 113728, Note_off_c, 4, 60, 100
6, 113760, Note_on_c, 4, 62, 100
6, 113760, Note_on_c, 4, 55, 100
6, 113824, Note_off_c, 4, 62, 100
6, 113824, Note_off_c, 4, 55, 100
6, 114432, Note_on_c, 4, 58, 100
6, 114560, Note_off_c, 4, 58, 100
6, 114816, Note_on_c, 4, 61, 100
6, 114880, Note_off_c, 4, 61, 100
6, 114912, Note_on_c, 4, 58, 100
6, 114976, Note_off_c, 4, 58, 100
6, 115200, Note_on_c, 4, 61, 100
6, 115264, Note_off_c, 4, 61, 100
6, 115296, Note_on_c, 4, 63, 100
6, 115296, Note_on_c, 4, 56, 100
6, 115360, Note_off_c, 4, 63, 100
6, 115360, Note_off_c, 4, 56, 100
6, 115968, Note_on_c, 4, 58, 100
6, 116096, Note_off_c, 4, 58, 100
6, 116352, Note_on_c, 4, 61, 100
6, 116416, Note_off_c, 4, 61, 100
6, 116448, Note_on_c, 4, 58, 100
6, 116512, Note_off_c, 4, 58, 100
6, 116736, Note_on_c, 4, 61, 100
6, 116800, Note_off_c, 4, 61, 100
6, 116832, Note_on_c, 4, 63, 100
6, 116832, Note_on_c, 4, 56, 100
6, 116896, Note_off_c, 4, 63, 100
6, 116896, Note_off_c, 4, 56, 100
6, 117504, Note_on_c, 4, 58, 100
6, 117632, Note_off_c, 4, 58, 100
6, 117888, Note_on_c, 4, 61, 100
6, 117952, Note_off_c, 4, 61, 100
6, 117984, Note_on_c, 4, 58, 100
6, 118048, Note_off_c, 4, 58, 100
6, 118272, Note_on_c, 4, 61, 100
6, 118336, Note_off_c, 4, 61, 100
6, 118368, Note_on_c, 4, 63, 100
6, 118368, Note_on_c, 4, 56, 100
6, 118432, Note_off_c, 4, 63, 100
6, 118432, Note_off_c, 4, 56, 100
6, 119040, Note_on_c, 4, 60, 100
6, 119040, Note_on_c, 4, 67, 100
6, 119040, Note_on_c, 4, 72, 100
6, 119040, Note_on_c, 4, 76, 100
6, 119040, Note_on_c, 4, 84, 100
6, 119040, Note_on_c, 4, 79, 100
6, 119168, Note_off_c, 4, 60, 100
6, 119168, Note_off_c, 4, 67, 100
6, 119168, Note_off_c, 4, 72, 100
6, 119168, Note_off_c, 4, 76, 100
6, 119168, Note_off_c, 4, 84, 100
6, 119168, Note_off_c, 4, 79, 100
6, 119424, Note_on_c, 4, 60, 100
6, 119424, Note_on_c, 4, 67, 100
6, 119424, Note_on_c, 4, 72, 100
6, 119424, Note_on_c, 4, 76, 100
6, 119424, Note_on_c, 4, 84, 100
6, 119424, Note_on_c, 4, 79, 100
6, 119552, Note_off_c, 4, 60, 100
6, 119552, Note_off_c, 4, 67, 100
6, 119552, Note_off_c, 4, 72, 100
6, 119552, Note_off_c, 4, 76, 100
6, 119552, Note_off_c, 4, 84, 100
6, 119552, Note_off_c, 4, 79, 100
6, 119808, Note_on_c, 4, 62, 100
6, 119808, Note_on_c, 4, 69, 100
6, 119808, Note_on_c, 4, 74, 100
6, 119808, Note_on_c, 4, 78, 100
6, 119808, Note_on_c, 4, 86, 100
6, 119808, Note_on_c, 4, 81, 100
6, 119872, Note_off_c, 4, 62, 100
6, 119872, Note_off_c, 4, 69, 100
6, 119872, Note_off_c, 4, 74, 100
6, 119872, Note_off_c, 4, 78, 100
6, 119872, Note_off_c, 4, 86, 100
6, 119936, Note_off_c, 4, 81, 100
6, 120000, Note_on_c, 4, 62, 100
6, 120000, Note_on_c, 4, 69, 100
6, 120000, Note_on_c, 4, 74, 100
6, 120000, Note_on_c, 4, 78, 100
6, 120000, Note_on_c, 4, 86, 100
6, 120000, Note_on_c, 4, 81, 100
6, 120064, Note_off_c, 4, 62, 100
6, 120064, Note_off_c, 4, 69, 100
6, 120064, Note_off_c, 4, 74, 100
6, 120064, Note_off_c, 4, 78, 100
6, 120064, Note_off_c, 4, 86, 100
6, 120128, Note_off_c, 4, 81, 100
6, 120192, Note_on_c, 4, 60, 100
6, 120192, Note_on_c, 4, 67, 100
6, 120192, Note_on_c, 4, 72, 100
6, 120192, Note_on_c, 4, 76, 100
6, 120192, Note_on_c, 4, 79, 100
6, 120192, Note_on_c, 4, 84, 100
6, 120320, Note_off_c, 4, 60, 100
6, 120320, Note_off_c, 4, 67, 100
6, 120320, Note_off_c, 4, 72, 100
6, 120320, Note_off_c, 4, 76, 100
6, 120320, Note_off_c, 4, 79, 100
6, 120320, Note_off_c, 4, 84, 100
6, 120768, Note_on_c, 4, 59, 100
6, 120768, Note_on_c, 4, 66, 100
6, 120768, Note_on_c, 4, 71, 100
6, 120768, Note_on_c, 4, 75, 100
6, 120768, Note_on_c, 4, 83, 100
6, 120832, Note_off_c, 4, 59, 100
6, 120832, Note_off_c, 4, 66, 100
6, 120832, Note_off_c, 4, 71, 100
6, 120832, Note_off_c, 4, 75, 100
6, 120832, Note_off_c, 4, 83, 100
6, 120960, Note_on_c, 4, 59, 100
6, 120960, Note_on_c, 4, 71, 100
6, 120960, Note_on_c, 4, 66, 100
6, 120960, Note_on_c, 4, 75, 100
6, 120960, Note_on_c, 4, 83, 100
6, 121088, Note_off_c, 4, 59, 100
6, 121088, Note_off_c, 4, 71, 100
6, 121088, Note_off_c, 4, 66, 100
6, 121088, Note_off_c, 4, 75, 100
6, 121088, Note_off_c, 4, 83, 100
6, 121088, End_track
7, 0, Start_track
7, 0, Control_c, 5, 0, 0
7, 0, Program_c, 5, 30
7, 0, Control_c, 5, 10, 102
7, 0, Control_c, 5, 91, 70
7, 14208, Note_on_c, 5, 64, 100
7, 14208, Note_on_c, 5, 71, 100
7, 14208, Note_on_c, 5, 76, 100
7, 14208, Note_on_c, 5, 79, 100
7, 14336, Note_off_c, 5, 64, 100
7, 14336, Note_off_c, 5, 71, 100
7, 14336, Note_off_c, 5, 76, 100
7, 14336, Note_off_c, 5, 79, 100
7, 14976, Note_on_c, 5, 64, 100
7, 14976, Note_on_c, 5, 71, 100
7, 14976, Note_on_c, 5, 76, 100
7, 14976, Note_on_c, 5, 79, 100
7, 15104, Note_off_c, 5, 64, 100
7, 15104, Note_off_c, 5, 71, 100
7, 15104, Note_off_c, 5, 76, 100
7, 15104, Note_off_c, 5, 79, 100
7, 15744, Note_on_c, 5, 70, 100
7, 15744, Note_on_c, 5, 74, 100
7, 15744, Note_on_c, 5, 77, 100
7, 15936, Note_off_c, 5, 70, 100
7, 15936, Note_off_c, 5, 74, 100
7, 15936, Note_off_c, 5, 77, 100
7, 16512, Note_on_c, 5, 70, 100
7, 16512, Note_on_c, 5, 74, 100
7, 16512, Note_on_c, 5, 77, 100
7, 16640, Note_off_c, 5, 70, 100
7, 16640, Note_off_c, 5, 74, 100
7, 16640, Note_off_c, 5, 77, 100
7, 17280, Note_on_c, 5, 64, 100
7, 17280, Note_on_c, 5, 71, 100
7, 17280, Note_on_c, 5, 76, 100
7, 17280, Note_on_c, 5, 79, 100
7, 17408, Note_off_c, 5, 64, 100
7, 17408, Note_off_c, 5, 71, 100
7, 17408, Note_off_c, 5, 76, 100
7, 17408, Note_off_c, 5, 79, 100
7, 18048, Note_on_c, 5, 64, 100
7, 18048, Note_on_c, 5, 71, 100
7, 18048, Note_on_c, 5, 76, 100
7, 18048, Note_on_c, 5, 79, 100
7, 18176, Note_off_c, 5, 64, 100
7, 18176, Note_off_c, 5, 71, 100
7, 18176, Note_off_c, 5, 76, 100
7, 18176, Note_off_c, 5, 79, 100
7, 18240, Note_on_c, 5, 62, 100
7, 18368, Note_off_c, 5, 62, 100
7, 18816, Note_on_c, 5, 74, 100
7, 18816, Note_on_c, 5, 77, 100
7, 18816, Note_on_c, 5, 70, 100
7, 19008, Note_off_c, 5, 74, 100
7, 19008, Note_off_c, 5, 77, 100
7, 19008, Note_off_c, 5, 70, 100
7, 19584, Note_on_c, 5, 70, 100
7, 19584, Note_on_c, 5, 74, 100
7, 19584, Note_on_c, 5, 77, 100
7, 19776, Note_off_c, 5, 70, 100
7, 19776, Note_off_c, 5, 74, 100
7, 19776, Note_off_c, 5, 77, 100
7, 20352, Note_on_c, 5, 72, 100
7, 20352, Note_on_c, 5, 76, 100
7, 20352, Note_on_c, 5, 79, 100
7, 20544, Note_off_c, 5, 72, 100
7, 20544, Note_off_c, 5, 76, 100
7, 20544, Note_off_c, 5, 79, 100
7, 21120, Note_on_c, 5, 72, 100
7, 21120, Note_on_c, 5, 76, 100
7, 21120, Note_on_c, 5, 79, 100
7, 21248, Note_off_c, 5, 72, 100
7, 21248, Note_off_c, 5, 76, 100
7, 21248, Note_off_c, 5, 79, 100
7, 21312, Note_on_c, 5, 67, 100
7, 21440, Note_off_c, 5, 67, 100
7, 21792, Note_on_c, 5, 56, 100
7, 21856, Note_off_c, 5, 56, 100
7, 21888, Note_on_c, 5, 68, 100
7, 21888, Note_on_c, 5, 72, 100
7, 21888, Note_on_c, 5, 75, 100
7, 22080, Note_off_c, 5, 68, 100
7, 22080, Note_off_c, 5, 72, 100
7, 22080, Note_off_c, 5, 75, 100
7, 22560, Note_on_c, 5, 56, 100
7, 22624, Note_off_c, 5, 56, 100
7, 22656, Note_on_c, 5, 72, 100
7, 22656, Note_on_c, 5, 75, 100
7, 22656, Note_on_c, 5, 68, 100
7, 22784, Note_off_c, 5, 72, 100
7, 22784, Note_off_c, 5, 75, 100
7, 22784, Note_off_c, 5, 68, 100
7, 23328, Note_on_c, 5, 62, 100
7, 23392, Note_off_c, 5, 62, 100
7, 23424, Note_on_c, 5, 78, 100
7, 23424, Note_on_c, 5, 81, 100
7, 23424, Note_on_c, 5, 74, 100
7, 23616, Note_off_c, 5, 78, 100
7, 23616, Note_off_c, 5, 81, 100
7, 23616, Note_off_c, 5, 74, 100
7, 24096, Note_on_c, 5, 74, 100
7, 24160, Note_off_c, 5, 74, 100
7, 24192, Note_on_c, 5, 74, 100
7, 24192, Note_on_c, 5, 78, 100
7, 24192, Note_on_c, 5, 81, 100
7, 24320, Note_off_c, 5, 74, 100
7, 24320, Note_off_c, 5, 78, 100
7, 24320, Note_off_c, 5, 81, 100
7, 24864, Note_on_c, 5, 60, 100
7, 24928, Note_off_c, 5, 60, 100
7, 24960, Note_on_c, 5, 60, 100
7, 24960, Note_on_c, 5, 64, 100
7, 24960, Note_on_c, 5, 67, 100
7, 25152, Note_off_c, 5, 60, 100
7, 25152, Note_off_c, 5, 64, 100
7, 25152, Note_off_c, 5, 67, 100
7, 25344, Note_on_c, 5, 48, 100
7, 25344, Note_on_c, 5, 55, 100
7, 25344, Note_on_c, 5, 60, 100
7, 25536, Note_off_c, 5, 48, 100
7, 25536, Note_off_c, 5, 55, 100
7, 25536, Note_off_c, 5, 60, 100
7, 25728, Note_on_c, 5, 60, 100
7, 25728, Note_on_c, 5, 64, 100
7, 25728, Note_on_c, 5, 67, 100
7, 25728, Note_on_c, 5, 72, 100
7, 25920, Note_off_c, 5, 60, 100
7, 25920, Note_off_c, 5, 64, 100
7, 25920, Note_off_c, 5, 67, 100
7, 25920, Note_off_c, 5, 72, 100
7, 26112, Note_on_c, 5, 60, 100
7, 26112, Note_on_c, 5, 67, 100
7, 26112, Note_on_c, 5, 72, 100
7, 26112, Note_on_c, 5, 75, 100
7, 26112, Note_on_c, 5, 79, 100
7, 26304, Note_off_c, 5, 60, 100
7, 26304, Note_off_c, 5, 67, 100
7, 26304, Note_off_c, 5, 72, 100
7, 26304, Note_off_c, 5, 75, 100
7, 26304, Note_off_c, 5, 79, 100
7, 26880, Note_on_c, 5, 60, 100
7, 26880, Note_on_c, 5, 67, 100
7, 26880, Note_on_c, 5, 72, 100
7, 26880, Note_on_c, 5, 75, 100
7, 26880, Note_on_c, 5, 79, 100
7, 27072, Note_off_c, 5, 60, 100
7, 27072, Note_off_c, 5, 67, 100
7, 27072, Note_off_c, 5, 72, 100
7, 27072, Note_off_c, 5, 75, 100
7, 27072, Note_off_c, 5, 79, 100
7, 27648, Note_on_c, 5, 58, 100
7, 27648, Note_on_c, 5, 65, 100
7, 27648, Note_on_c, 5, 70, 100
7, 27840, Note_off_c, 5, 58, 100
7, 27840, Note_off_c, 5, 65, 100
7, 27840, Note_off_c, 5, 70, 100
7, 28416, Note_on_c, 5, 58, 100
7, 28416, Note_on_c, 5, 65, 100
7, 28416, Note_on_c, 5, 70, 100
7, 28608, Note_off_c, 5, 58, 100
7, 28608, Note_off_c, 5, 65, 100
7, 28608, Note_off_c, 5, 70, 100
7, 29184, Note_on_c, 5, 57, 100
7, 29184, Note_on_c, 5, 73, 100
7, 29184, Note_on_c, 5, 76, 100
7, 29184, Note_on_c, 5, 81, 100
7, 29184, Note_on_c, 5, 85, 100
7, 29376, Note_off_c, 5, 57, 100
7, 29376, Note_off_c, 5, 73, 100
7, 29376, Note_off_c, 5, 76, 100
7, 29376, Note_off_c, 5, 81, 100
7, 29376, Note_off_c, 5, 85, 100
7, 29760, Note_on_c, 5, 57, 100
7, 29760, Note_on_c, 5, 73, 100
7, 29760, Note_on_c, 5, 76, 100
7, 29760, Note_on_c, 5, 81, 100
7, 29760, Note_on_c, 5, 85, 100
7, 29888, Note_off_c, 5, 57, 100
7, 29888, Note_off_c, 5, 73, 100
7, 29888, Note_off_c, 5, 76, 100
7, 29888, Note_off_c, 5, 81, 100
7, 29888, Note_off_c, 5, 85, 100
7, 30240, Note_on_c, 5, 57, 100
7, 30240, Note_on_c, 5, 73, 100
7, 30240, Note_on_c, 5, 76, 100
7, 30240, Note_on_c, 5, 81, 100
7, 30240, Note_on_c, 5, 85, 100
7, 30432, Note_off_c, 5, 57, 100
7, 30432, Note_off_c, 5, 73, 100
7, 30432, Note_off_c, 5, 76, 100
7, 30432, Note_off_c, 5, 81, 100
7, 30432, Note_off_c, 5, 85, 100
7, 30720, Note_on_c, 5, 52, 100
7, 30720, Note_on_c, 5, 59, 100
7, 30720, Note_on_c, 5, 64, 100
7, 30720, Note_on_c, 5, 69, 100
7, 30720, Note_on_c, 5, 71, 100
7, 30912, Note_off_c, 5, 52, 100
7, 30912, Note_off_c, 5, 59, 100
7, 30912, Note_off_c, 5, 64, 100
7, 30912, Note_off_c, 5, 69, 100
7, 30912, Note_off_c, 5, 71, 100
7, 31296, Note_on_c, 5, 64, 100
7, 31296, Note_on_c, 5, 71, 100
7, 31296, Note_on_c, 5, 69, 100
7, 31424, Note_off_c, 5, 64, 100
7, 31424, Note_off_c, 5, 71, 100
7, 31424, Note_off_c, 5, 69, 100
7, 31776, Note_on_c, 5, 52, 100
7, 31776, Note_on_c, 5, 64, 100
7, 31776, Note_on_c, 5, 71, 100
7, 31776, Note_on_c, 5, 76, 100
7, 31776, Note_on_c, 5, 81, 100
7, 31776, Note_on_c, 5, 83, 100
7, 31968, Note_off_c, 5, 52, 100
7, 31968, Note_off_c, 5, 64, 100
7, 31968, Note_off_c, 5, 71, 100
7, 31968, Note_off_c, 5, 76, 100
7, 31968, Note_off_c, 5, 81, 100
7, 31968, Note_off_c, 5, 83, 100
7, 32640, Note_on_c, 5, 52, 100
7, 32768, Note_off_c, 5, 52, 100
7, 33792, Note_on_c, 5, 53, 100
7, 33792, Note_on_c, 5, 60, 100
7, 33984, Note_off_c, 5, 53, 100
7, 33984, Note_off_c, 5, 60, 100
7, 34080, Note_on_c, 5, 53, 100
7, 34080, Note_on_c, 5, 60, 100
7, 34144, Note_off_c, 5, 53, 100
7, 34144, Note_off_c, 5, 60, 100
7, 35712, Note_on_c, 5, 55, 100
7, 35712, Note_on_c, 5, 62, 100
7, 35840, Note_off_c, 5, 55, 100
7, 35840, Note_off_c, 5, 62, 100
7, 35904, Note_on_c, 5, 55, 100
7, 36032, Note_off_c, 5, 55, 100
7, 37248, Note_on_c, 5, 62, 100
7, 37248, Note_on_c, 5, 69, 100
7, 37376, Note_off_c, 5, 62, 100
7, 37376, Note_off_c, 5, 69, 100
7, 37440, Note_on_c, 5, 57, 100
7, 37504, Note_off_c, 5, 57, 100
7, 37536, Note_on_c, 5, 60, 100
7, 37664, Note_off_c, 5, 60, 100
7, 38016, Note_on_c, 5, 57, 100
7, 38080, Note_off_c, 5, 57, 100
7, 38112, Note_on_c, 5, 60, 100
7, 38176, Note_off_c, 5, 60, 100
7, 38784, Note_on_c, 5, 52, 100
7, 38912, Note_off_c, 5, 52, 100
7, 39936, Note_on_c, 5, 53, 100
7, 39936, Note_on_c, 5, 60, 100
7, 40128, Note_off_c, 5, 53, 100
7, 40128, Note_off_c, 5, 60, 100
7, 40224, Note_on_c, 5, 53, 100
7, 40224, Note_on_c, 5, 60, 100
7, 40288, Note_off_c, 5, 53, 100
7, 40288, Note_off_c, 5, 60, 100
7, 41856, Note_on_c, 5, 55, 100
7, 41856, Note_on_c, 5, 62, 100
7, 41984, Note_off_c, 5, 55, 100
7, 41984, Note_off_c, 5, 62, 100
7, 42048, Note_on_c, 5, 55, 100
7, 42176, Note_off_c, 5, 55, 100
7, 43392, Note_on_c, 5, 62, 100
7, 43392, Note_on_c, 5, 69, 100
7, 43520, Note_off_c, 5, 62, 100
7, 43520, Note_off_c, 5, 69, 100
7, 43584, Note_on_c, 5, 57, 100
7, 43648, Note_off_c, 5, 57, 100
7, 43680, Note_on_c, 5, 60, 100
7, 43808, Note_off_c, 5, 60, 100
7, 44160, Note_on_c, 5, 57, 100
7, 44224, Note_off_c, 5, 57, 100
7, 44256, Note_on_c, 5, 60, 100
7, 44320, Note_off_c, 5, 60, 100
7, 44736, Note_on_c, 5, 57, 100
7, 44800, Note_off_c, 5, 57, 100
7, 44832, Note_on_c, 5, 57, 100
7, 44896, Note_off_c, 5, 57, 100
7, 45120, Note_on_c, 5, 64, 100
7, 45184, Note_off_c, 5, 64, 100
7, 45216, Note_on_c, 5, 57, 100
7, 45280, Note_off_c, 5, 57, 100
7, 45696, Note_on_c, 5, 62, 100
7, 45696, Note_on_c, 5, 55, 100
7, 45888, Note_off_c, 5, 62, 100
7, 45888, Note_off_c, 5, 55, 100
7, 46272, Note_on_c, 5, 57, 100
7, 46336, Note_off_c, 5, 57, 100
7, 46368, Note_on_c, 5, 57, 100
7, 46432, Note_off_c, 5, 57, 100
7, 46656, Note_on_c, 5, 64, 100
7, 46720, Note_off_c, 5, 64, 100
7, 46752, Note_on_c, 5, 57, 100
7, 46816, Note_off_c, 5, 57, 100
7, 47232, Note_on_c, 5, 62, 100
7, 47232, Note_on_c, 5, 55, 100
7, 47424, Note_off_c, 5, 62, 100
7, 47424, Note_off_c, 5, 55, 100
7, 47808, Note_on_c, 5, 57, 100
7, 47872, Note_off_c, 5, 57, 100
7, 47904, Note_on_c, 5, 57, 100
7, 47968, Note_off_c, 5, 57, 100
7, 48192, Note_on_c, 5, 64, 100
7, 48256, Note_off_c, 5, 64, 100
7, 48288, Note_on_c, 5, 57, 100
7, 48352, Note_off_c, 5, 57, 100
7, 48768, Note_on_c, 5, 62, 100
7, 48768, Note_on_c, 5, 55, 100
7, 48960, Note_off_c, 5, 62, 100
7, 48960, Note_off_c, 5, 55, 100
7, 49344, Note_on_c, 5, 57, 100
7, 49408, Note_off_c, 5, 57, 100
7, 49440, Note_on_c, 5, 57, 100
7, 49504, Note_off_c, 5, 57, 100
7, 49728, Note_on_c, 5, 64, 100
7, 49792, Note_off_c, 5, 64, 100
7, 49824, Note_on_c, 5, 57, 100
7, 49888, Note_off_c, 5, 57, 100
7, 50304, Note_on_c, 5, 62, 100
7, 50304, Note_on_c, 5, 55, 100
7, 50496, Note_off_c, 5, 62, 100
7, 50496, Note_off_c, 5, 55, 100
7, 50880, Note_on_c, 5, 58, 100
7, 50944, Note_off_c, 5, 58, 100
7, 50976, Note_on_c, 5, 58, 100
7, 51040, Note_off_c, 5, 58, 100
7, 51264, Note_on_c, 5, 65, 100
7, 51328, Note_off_c, 5, 65, 100
7, 51360, Note_on_c, 5, 58, 100
7, 51424, Note_off_c, 5, 58, 100
7, 51840, Note_on_c, 5, 63, 100
7, 51840, Note_on_c, 5, 56, 100
7, 52032, Note_off_c, 5, 63, 100
7, 52032, Note_off_c, 5, 56, 100
7, 52416, Note_on_c, 5, 58, 100
7, 52480, Note_off_c, 5, 58, 100
7, 52512, Note_on_c, 5, 58, 100
7, 52576, Note_off_c, 5, 58, 100
7, 52800, Note_on_c, 5, 65, 100
7, 52864, Note_off_c, 5, 65, 100
7, 52896, Note_on_c, 5, 58, 100
7, 52960, Note_off_c, 5, 58, 100
7, 53376, Note_on_c, 5, 63, 100
7, 53376, Note_on_c, 5, 56, 100
7, 53568, Note_off_c, 5, 63, 100
7, 53568, Note_off_c, 5, 56, 100
7, 53952, Note_on_c, 5, 58, 100
7, 54016, Note_off_c, 5, 58, 100
7, 54048, Note_on_c, 5, 58, 100
7, 54112, Note_off_c, 5, 58, 100
7, 54336, Note_on_c, 5, 65, 100
7, 54400, Note_off_c, 5, 65, 100
7, 54432, Note_on_c, 5, 58, 100
7, 54496, Note_off_c, 5, 58, 100
7, 54912, Note_on_c, 5, 63, 100
7, 54912, Note_on_c, 5, 56, 100
7, 55104, Note_off_c, 5, 63, 100
7, 55104, Note_off_c, 5, 56, 100
7, 55488, Note_on_c, 5, 60, 100
7, 55488, Note_on_c, 5, 67, 100
7, 55488, Note_on_c, 5, 72, 100
7, 55488, Note_on_c, 5, 76, 100
7, 55488, Note_on_c, 5, 84, 100
7, 55488, Note_on_c, 5, 79, 100
7, 55616, Note_off_c, 5, 60, 100
7, 55616, Note_off_c, 5, 67, 100
7, 55616, Note_off_c, 5, 72, 100
7, 55616, Note_off_c, 5, 76, 100
7, 55616, Note_off_c, 5, 84, 100
7, 55616, Note_off_c, 5, 79, 100
7, 55872, Note_on_c, 5, 60, 100
7, 55872, Note_on_c, 5, 67, 100
7, 55872, Note_on_c, 5, 72, 100
7, 55872, Note_on_c, 5, 76, 100
7, 55872, Note_on_c, 5, 84, 100
7, 55872, Note_on_c, 5, 79, 100
7, 56000, Note_off_c, 5, 60, 100
7, 56000, Note_off_c, 5, 67, 100
7, 56000, Note_off_c, 5, 72, 100
7, 56000, Note_off_c, 5, 76, 100
7, 56000, Note_off_c, 5, 84, 100
7, 56000, Note_off_c, 5, 79, 100
7, 56160, Note_on_c, 5, 62, 100
7, 56160, Note_on_c, 5, 69, 100
7, 56160, Note_on_c, 5, 74, 100
7, 56160, Note_on_c, 5, 78, 100
7, 56160, Note_on_c, 5, 86, 100
7, 56160, Note_on_c, 5, 81, 100
7, 56224, Note_off_c, 5, 62, 100
7, 56224, Note_off_c, 5, 69, 100
7, 56224, Note_off_c, 5, 74, 100
7, 56224, Note_off_c, 5, 78, 100
7, 56224, Note_off_c, 5, 86, 100
7, 56288, Note_off_c, 5, 81, 100
7, 56352, Note_on_c, 5, 60, 100
7, 56352, Note_on_c, 5, 67, 100
7, 56352, Note_on_c, 5, 72, 100
7, 56352, Note_on_c, 5, 76, 100
7, 56352, Note_on_c, 5, 84, 100
7, 56352, Note_on_c, 5, 79, 100
7, 56416, Note_off_c, 5, 60, 100
7, 56416, Note_off_c, 5, 67, 100
7, 56416, Note_off_c, 5, 72, 100
7, 56416, Note_off_c, 5, 76, 100
7, 56416, Note_off_c, 5, 84, 100
7, 56416, Note_off_c, 5, 79, 100
7, 56928, Note_on_c, 5, 59, 100
7, 56928, Note_on_c, 5, 66, 100
7, 56928, Note_on_c, 5, 71, 100
7, 56928, Note_on_c, 5, 75, 100
7, 56928, Note_on_c, 5, 83, 100
7, 56992, Note_off_c, 5, 59, 100
7, 56992, Note_off_c, 5, 66, 100
7, 56992, Note_off_c, 5, 71, 100
7, 56992, Note_off_c, 5, 75, 100
7, 56992, Note_off_c, 5, 83, 100
7, 57120, Note_on_c, 5, 57, 100
7, 57120, Note_on_c, 5, 64, 100
7, 57120, Note_on_c, 5, 69, 100
7, 57120, Note_on_c, 5, 73, 100
7, 57120, Note_on_c, 5, 76, 100
7, 57184, Note_off_c, 5, 57, 100
7, 57184, Note_off_c, 5, 64, 100
7, 57184, Note_off_c, 5, 69, 100
7, 57184, Note_off_c, 5, 73, 100
7, 57184, Note_off_c, 5, 76, 100
7, 57984, Note_on_c, 5, 52, 100
7, 58112, Note_off_c, 5, 52, 100
7, 59136, Note_on_c, 5, 53, 100
7, 59136, Note_on_c, 5, 60, 100
7, 59328, Note_off_c, 5, 53, 100
7, 59328, Note_off_c, 5, 60, 100
7, 59424, Note_on_c, 5, 53, 100
7, 59424, Note_on_c, 5, 60, 100
7, 59488, Note_off_c, 5, 53, 100
7, 59488, Note_off_c, 5, 60, 100
7, 61056, Note_on_c, 5, 55, 100
7, 61056, Note_on_c, 5, 62, 100
7, 61184, Note_off_c, 5, 55, 100
7, 61184, Note_off_c, 5, 62, 100
7, 61248, Note_on_c, 5, 55, 100
7, 61376, Note_off_c, 5, 55, 100
7, 62592, Note_on_c, 5, 62, 100
7, 62592, Note_on_c, 5, 69, 100
7, 62720, Note_off_c, 5, 62, 100
7, 62720, Note_off_c, 5, 69, 100
7, 62784, Note_on_c, 5, 57, 100
7, 62848, Note_off_c, 5, 57, 100
7, 62880, Note_on_c, 5, 60, 100
7, 63008, Note_off_c, 5, 60, 100
7, 63360, Note_on_c, 5, 57, 100
7, 63424, Note_off_c, 5, 57, 100
7, 63456, Note_on_c, 5, 60, 100
7, 63520, Note_off_c, 5, 60, 100
7, 64128, Note_on_c, 5, 52, 100
7, 64256, Note_off_c, 5, 52, 100
7, 65280, Note_on_c, 5, 53, 100
7, 65280, Note_on_c, 5, 60, 100
7, 65472, Note_off_c, 5, 53, 100
7, 65472, Note_off_c, 5, 60, 100
7, 65568, Note_on_c, 5, 53, 100
7, 65568, Note_on_c, 5, 60, 100
7, 65632, Note_off_c, 5, 53, 100
7, 65632, Note_off_c, 5, 60, 100
7, 67200, Note_on_c, 5, 55, 100
7, 67200, Note_on_c, 5, 62, 100
7, 67328, Note_off_c, 5, 55, 100
7, 67328, Note_off_c, 5, 62, 100
7, 67392, Note_on_c, 5, 55, 100
7, 67520, Note_off_c, 5, 55, 100
7, 68736, Note_on_c, 5, 62, 100
7, 68736, Note_on_c, 5, 69, 100
7, 68864, Note_off_c, 5, 62, 100
7, 68864, Note_off_c, 5, 69, 100
7, 68928, Note_on_c, 5, 57, 100
7, 68992, Note_off_c, 5, 57, 100
7, 69024, Note_on_c, 5, 60, 100
7, 69152, Note_off_c, 5, 60, 100
7, 69504, Note_on_c, 5, 57, 100
7, 69568, Note_off_c, 5, 57, 100
7, 69600, Note_on_c, 5, 60, 100
7, 69664, Note_off_c, 5, 60, 100
7, 70080, Note_on_c, 5, 57, 100
7, 70144, Note_off_c, 5, 57, 100
7, 70176, Note_on_c, 5, 57, 100
7, 70240, Note_off_c, 5, 57, 100
7, 70464, Note_on_c, 5, 64, 100
7, 70528, Note_off_c, 5, 64, 100
7, 70560, Note_on_c, 5, 57, 100
7, 70624, Note_off_c, 5, 57, 100
7, 71040, Note_on_c, 5, 62, 100
7, 71040, Note_on_c, 5, 55, 100
7, 71232, Note_off_c, 5, 62, 100
7, 71232, Note_off_c, 5, 55, 100
7, 71616, Note_on_c, 5, 57, 100
7, 71680, Note_off_c, 5, 57, 100
7, 71712, Note_on_c, 5, 57, 100
7, 71776, Note_off_c, 5, 57, 100
7, 72000, Note_on_c, 5, 64, 100
7, 72064, Note_off_c, 5, 64, 100
7, 72096, Note_on_c, 5, 57, 100
7, 72160, Note_off_c, 5, 57, 100
7, 72576, Note_on_c, 5, 62, 100
7, 72576, Note_on_c, 5, 55, 100
7, 72768, Note_off_c, 5, 62, 100
7, 72768, Note_off_c, 5, 55, 100
7, 73152, Note_on_c, 5, 57, 100
7, 73216, Note_off_c, 5, 57, 100
7, 73248, Note_on_c, 5, 57, 100
7, 73312, Note_off_c, 5, 57, 100
7, 73536, Note_on_c, 5, 64, 100
7, 73600, Note_off_c, 5, 64, 100
7, 73632, Note_on_c, 5, 57, 100
7, 73696, Note_off_c, 5, 57, 100
7, 74112, Note_on_c, 5, 62, 100
7, 74112, Note_on_c, 5, 55, 100
7, 74304, Note_off_c, 5, 62, 100
7, 74304, Note_off_c, 5, 55, 100
7, 74688, Note_on_c, 5, 57, 100
7, 74752, Note_off_c, 5, 57, 100
7, 74784, Note_on_c, 5, 57, 100
7, 74848, Note_off_c, 5, 57, 100
7, 75072, Note_on_c, 5, 64, 100
7, 75136, Note_off_c, 5, 64, 100
7, 75168, Note_on_c, 5, 57, 100
7, 75232, Note_off_c, 5, 57, 100
7, 75648, Note_on_c, 5, 62, 100
7, 75648, Note_on_c, 5, 55, 100
7, 75840, Note_off_c, 5, 62, 100
7, 75840, Note_off_c, 5, 55, 100
7, 76224, Note_on_c, 5, 58, 100
7, 76288, Note_off_c, 5, 58, 100
7, 76320, Note_on_c, 5, 58, 100
7, 76384, Note_off_c, 5, 58, 100
7, 76608, Note_on_c, 5, 65, 100
7, 76672, Note_off_c, 5, 65, 100
7, 76704, Note_on_c, 5, 58, 100
7, 76768, Note_off_c, 5, 58, 100
7, 77184, Note_on_c, 5, 63, 100
7, 77184, Note_on_c, 5, 56, 100
7, 77376, Note_off_c, 5, 63, 100
7, 77376, Note_off_c, 5, 56, 100
7, 77760, Note_on_c, 5, 58, 100
7, 77824, Note_off_c, 5, 58, 100
7, 77856, Note_on_c, 5, 58, 100
7, 77920, Note_off_c, 5, 58, 100
7, 78144, Note_on_c, 5, 65, 100
7, 78208, Note_off_c, 5, 65, 100
7, 78240, Note_on_c, 5, 58, 100
7, 78304, Note_off_c, 5, 58, 100
7, 78720, Note_on_c, 5, 63, 100
7, 78720, Note_on_c, 5, 56, 100
7, 78912, Note_off_c, 5, 63, 100
7, 78912, Note_off_c, 5, 56, 100
7, 79296, Note_on_c, 5, 58, 100
7, 79360, Note_off_c, 5, 58, 100
7, 79392, Note_on_c, 5, 58, 100
7, 79456, Note_off_c, 5, 58, 100
7, 79680, Note_on_c, 5, 65, 100
7, 79744, Note_off_c, 5, 65, 100
7, 79776, Note_on_c, 5, 58, 100
7, 79840, Note_off_c, 5, 58, 100
7, 80256, Note_on_c, 5, 63, 100
7, 80256, Note_on_c, 5, 56, 100
7, 80448, Note_off_c, 5, 63, 100
7, 80448, Note_off_c, 5, 56, 100
7, 80832, Note_on_c, 5, 60, 100
7, 80832, Note_on_c, 5, 67, 100
7, 80832, Note_on_c, 5, 72, 100
7, 80832, Note_on_c, 5, 76, 100
7, 80832, Note_on_c, 5, 84, 100
7, 80832, Note_on_c, 5, 79, 100
7, 80960, Note_off_c, 5, 60, 100
7, 80960, Note_off_c, 5, 67, 100
7, 80960, Note_off_c, 5, 72, 100
7, 80960, Note_off_c, 5, 76, 100
7, 80960, Note_off_c, 5, 84, 100
7, 80960, Note_off_c, 5, 79, 100
7, 81216, Note_on_c, 5, 60, 100
7, 81216, Note_on_c, 5, 67, 100
7, 81216, Note_on_c, 5, 72, 100
7, 81216, Note_on_c, 5, 76, 100
7, 81216, Note_on_c, 5, 84, 100
7, 81216, Note_on_c, 5, 79, 100
7, 81344, Note_off_c, 5, 60, 100
7, 81344, Note_off_c, 5, 67, 100
7, 81344, Note_off_c, 5, 72, 100
7, 81344, Note_off_c, 5, 76, 100
7, 81344, Note_off_c, 5, 84, 100
7, 81344, Note_off_c, 5, 79, 100
7, 81504, Note_on_c, 5, 62, 100
7, 81504, Note_on_c, 5, 69, 100
7, 81504, Note_on_c, 5, 74, 100
7, 81504, Note_on_c, 5, 78, 100
7, 81504, Note_on_c, 5, 86, 100
7, 81504, Note_on_c, 5, 81, 100
7, 81568, Note_off_c, 5, 62, 100
7, 81568, Note_off_c, 5, 69, 100
7, 81568, Note_off_c, 5, 74, 100
7, 81568, Note_off_c, 5, 78, 100
7, 81568, Note_off_c, 5, 86, 100
7, 81632, Note_off_c, 5, 81, 100
7, 81696, Note_on_c, 5, 60, 100
7, 81696, Note_on_c, 5, 67, 100
7, 81696, Note_on_c, 5, 72, 100
7, 81696, Note_on_c, 5, 76, 100
7, 81696, Note_on_c, 5, 84, 100
7, 81696, Note_on_c, 5, 79, 100
7, 81760, Note_off_c, 5, 60, 100
7, 81760, Note_off_c, 5, 67, 100
7, 81760, Note_off_c, 5, 72, 100
7, 81760, Note_off_c, 5, 76, 100
7, 81760, Note_off_c, 5, 84, 100
7, 81760, Note_off_c, 5, 79, 100
7, 82272, Note_on_c, 5, 59, 100
7, 82272, Note_on_c, 5, 66, 100
7, 82272, Note_on_c, 5, 71, 100
7, 82272, Note_on_c, 5, 75, 100
7, 82272, Note_on_c, 5, 83, 100
7, 82336, Note_off_c, 5, 59, 100
7, 82336, Note_off_c, 5, 66, 100
7, 82336, Note_off_c, 5, 71, 100
7, 82336, Note_off_c, 5, 75, 100
7, 82336, Note_off_c, 5, 83, 100
7, 82464, Note_on_c, 5, 57, 100
7, 82464, Note_on_c, 5, 64, 100
7, 82464, Note_on_c, 5, 69, 100
7, 82464, Note_on_c, 5, 73, 100
7, 82464, Note_on_c, 5, 76, 100
7, 82528, Note_off_c, 5, 57, 100
7, 82528, Note_off_c, 5, 64, 100
7, 82528, Note_off_c, 5, 69, 100
7, 82528, Note_off_c, 5, 73, 100
7, 82528, Note_off_c, 5, 76, 100
7, 83136, Note_on_c, 5, 57, 100
7, 83200, Note_off_c, 5, 57, 100
7, 83232, Note_on_c, 5, 57, 100
7, 83296, Note_off_c, 5, 57, 100
7, 83520, Note_on_c, 5, 64, 100
7, 83584, Note_off_c, 5, 64, 100
7, 83616, Note_on_c, 5, 57, 100
7, 83680, Note_off_c, 5, 57, 100
7, 84096, Note_on_c, 5, 62, 100
7, 84096, Note_on_c, 5, 55, 100
7, 84288, Note_off_c, 5, 62, 100
7, 84288, Note_off_c, 5, 55, 100
7, 84672, Note_on_c, 5, 57, 100
7, 84736, Note_off_c, 5, 57, 100
7, 84768, Note_on_c, 5, 57, 100
7, 84832, Note_off_c, 5, 57, 100
7, 85056, Note_on_c, 5, 64, 100
7, 85120, Note_off_c, 5, 64, 100
7, 85152, Note_on_c, 5, 57, 100
7, 85216, Note_off_c, 5, 57, 100
7, 85632, Note_on_c, 5, 62, 100
7, 85632, Note_on_c, 5, 55, 100
7, 85824, Note_off_c, 5, 62, 100
7, 85824, Note_off_c, 5, 55, 100
7, 86208, Note_on_c, 5, 57, 100
7, 86272, Note_off_c, 5, 57, 100
7, 86304, Note_on_c, 5, 57, 100
7, 86368, Note_off_c, 5, 57, 100
7, 86592, Note_on_c, 5, 64, 100
7, 86656, Note_off_c, 5, 64, 100
7, 86688, Note_on_c, 5, 57, 100
7, 86752, Note_off_c, 5, 57, 100
7, 87168, Note_on_c, 5, 62, 100
7, 87168, Note_on_c, 5, 55, 100
7, 87360, Note_off_c, 5, 62, 100
7, 87360, Note_off_c, 5, 55, 100
7, 87744, Note_on_c, 5, 57, 100
7, 87808, Note_off_c, 5, 57, 100
7, 87840, Note_on_c, 5, 57, 100
7, 87904, Note_off_c, 5, 57, 100
7, 88128, Note_on_c, 5, 64, 100
7, 88192, Note_off_c, 5, 64, 100
7, 88224, Note_on_c, 5, 57, 100
7, 88288, Note_off_c, 5, 57, 100
7, 88704, Note_on_c, 5, 62, 100
7, 88704, Note_on_c, 5, 55, 100
7, 88896, Note_off_c, 5, 62, 100
7, 88896, Note_off_c, 5, 55, 100
7, 89280, Note_on_c, 5, 58, 100
7, 89344, Note_off_c, 5, 58, 100
7, 89376, Note_on_c, 5, 58, 100
7, 89440, Note_off_c, 5, 58, 100
7, 89664, Note_on_c, 5, 65, 100
7, 89728, Note_off_c, 5, 65, 100
7, 89760, Note_on_c, 5, 58, 100
7, 89824, Note_off_c, 5, 58, 100
7, 90240, Note_on_c, 5, 63, 100
7, 90240, Note_on_c, 5, 56, 100
7, 90432, Note_off_c, 5, 63, 100
7, 90432, Note_off_c, 5, 56, 100
7, 90816, Note_on_c, 5, 58, 100
7, 90880, Note_off_c, 5, 58, 100
7, 90912, Note_on_c, 5, 58, 100
7, 90976, Note_off_c, 5, 58, 100
7, 91200, Note_on_c, 5, 65, 100
7, 91264, Note_off_c, 5, 65, 100
7, 91296, Note_on_c, 5, 58, 100
7, 91360, Note_off_c, 5, 58, 100
7, 91776, Note_on_c, 5, 63, 100
7, 91776, Note_on_c, 5, 56, 100
7, 91968, Note_off_c, 5, 63, 100
7, 91968, Note_off_c, 5, 56, 100
7, 92352, Note_on_c, 5, 58, 100
7, 92416, Note_off_c, 5, 58, 100
7, 92448, Note_on_c, 5, 58, 100
7, 92512, Note_off_c, 5, 58, 100
7, 92736, Note_on_c, 5, 65, 100
7, 92800, Note_off_c, 5, 65, 100
7, 92832, Note_on_c, 5, 58, 100
7, 92896, Note_off_c, 5, 58, 100
7, 93312, Note_on_c, 5, 63, 100
7, 93312, Note_on_c, 5, 56, 100
7, 93504, Note_off_c, 5, 63, 100
7, 93504, Note_off_c, 5, 56, 100
7, 93888, Note_on_c, 5, 60, 100
7, 93888, Note_on_c, 5, 67, 100
7, 93888, Note_on_c, 5, 72, 100
7, 93888, Note_on_c, 5, 76, 100
7, 93888, Note_on_c, 5, 84, 100
7, 93888, Note_on_c, 5, 79, 100
7, 94016, Note_off_c, 5, 60, 100
7, 94016, Note_off_c, 5, 67, 100
7, 94016, Note_off_c, 5, 72, 100
7, 94016, Note_off_c, 5, 76, 100
7, 94016, Note_off_c, 5, 84, 100
7, 94016, Note_off_c, 5, 79, 100
7, 94272, Note_on_c, 5, 60, 100
7, 94272, Note_on_c, 5, 67, 100
7, 94272, Note_on_c, 5, 72, 100
7, 94272, Note_on_c, 5, 76, 100
7, 94272, Note_on_c, 5, 84, 100
7, 94272, Note_on_c, 5, 79, 100
7, 94400, Note_off_c, 5, 60, 100
7, 94400, Note_off_c, 5, 67, 100
7, 94400, Note_off_c, 5, 72, 100
7, 94400, Note_off_c, 5, 76, 100
7, 94400, Note_off_c, 5, 84, 100
7, 94400, Note_off_c, 5, 79, 100
7, 94560, Note_on_c, 5, 62, 100
7, 94560, Note_on_c, 5, 69, 100
7, 94560, Note_on_c, 5, 74, 100
7, 94560, Note_on_c, 5, 78, 100
7, 94560, Note_on_c, 5, 86, 100
7, 94560, Note_on_c, 5, 81, 100
7, 94624, Note_off_c, 5, 62, 100
7, 94624, Note_off_c, 5, 69, 100
7, 94624, Note_off_c, 5, 74, 100
7, 94624, Note_off_c, 5, 78, 100
7, 94624, Note_off_c, 5, 86, 100
7, 94688, Note_off_c, 5, 81, 100
7, 94752, Note_on_c, 5, 60, 100
7, 94752, Note_on_c, 5, 67, 100
7, 94752, Note_on_c, 5, 72, 100
7, 94752, Note_on_c, 5, 76, 100
7, 94752, Note_on_c, 5, 84, 100
7, 94752, Note_on_c, 5, 79, 100
7, 94816, Note_off_c, 5, 60, 100
7, 94816, Note_off_c, 5, 67, 100
7, 94816, Note_off_c, 5, 72, 100
7, 94816, Note_off_c, 5, 76, 100
7, 94816, Note_off_c, 5, 84, 100
7, 94816, Note_off_c, 5, 79, 100
7, 95328, Note_on_c, 5, 59, 100
7, 95328, Note_on_c, 5, 66, 100
7, 95328, Note_on_c, 5, 71, 100
7, 95328, Note_on_c, 5, 75, 100
7, 95328, Note_on_c, 5, 83, 100
7, 95392, Note_off_c, 5, 59, 100
7, 95392, Note_off_c, 5, 66, 100
7, 95392, Note_off_c, 5, 71, 100
7, 95392, Note_off_c, 5, 75, 100
7, 95392, Note_off_c, 5, 83, 100
7, 95520, Note_on_c, 5, 57, 100
7, 95520, Note_on_c, 5, 64, 100
7, 95520, Note_on_c, 5, 69, 100
7, 95520, Note_on_c, 5, 73, 100
7, 95520, Note_on_c, 5, 76, 100
7, 95584, Note_off_c, 5, 57, 100
7, 95584, Note_off_c, 5, 64, 100
7, 95584, Note_off_c, 5, 69, 100
7, 95584, Note_off_c, 5, 73, 100
7, 95584, Note_off_c, 5, 76, 100
7, 96384, Note_on_c, 5, 52, 100
7, 96384, Note_on_c, 5, 59, 100
7, 96512, Note_off_c, 5, 52, 100
7, 96512, Note_off_c, 5, 59, 100
7, 96864, Note_on_c, 5, 52, 100
7, 96928, Note_off_c, 5, 52, 100
7, 96960, Note_on_c, 5, 55, 100
7, 97024, Note_off_c, 5, 55, 100
7, 97248, Note_on_c, 5, 52, 100
7, 97312, Note_off_c, 5, 52, 100
7, 97344, Note_on_c, 5, 55, 100
7, 97408, Note_off_c, 5, 55, 100
7, 97440, Note_on_c, 5, 52, 100
7, 97504, Note_off_c, 5, 52, 100
7, 97536, Note_on_c, 5, 53, 100
7, 97728, Note_off_c, 5, 53, 100
7, 97824, Note_on_c, 5, 53, 100
7, 97824, Note_on_c, 5, 60, 100
7, 97888, Note_off_c, 5, 53, 100
7, 97888, Note_off_c, 5, 60, 100
7, 98688, Note_on_c, 5, 53, 100
7, 98752, Note_off_c, 5, 53, 100
7, 98880, Note_on_c, 5, 57, 100
7, 98944, Note_off_c, 5, 57, 100
7, 99456, Note_on_c, 5, 55, 100
7, 99456, Note_on_c, 5, 62, 100
7, 99584, Note_off_c, 5, 55, 100
7, 99584, Note_off_c, 5, 62, 100
7, 99648, Note_on_c, 5, 55, 100
7, 99776, Note_off_c, 5, 55, 100
7, 100128, Note_on_c, 5, 59, 100
7, 100192, Note_off_c, 5, 59, 100
7, 100320, Note_on_c, 5, 59, 100
7, 100384, Note_off_c, 5, 59, 100
7, 100992, Note_on_c, 5, 62, 100
7, 100992, Note_on_c, 5, 69, 100
7, 101120, Note_off_c, 5, 62, 100
7, 101120, Note_off_c, 5, 69, 100
7, 101184, Note_on_c, 5, 57, 100
7, 101248, Note_off_c, 5, 57, 100
7, 101280, Note_on_c, 5, 60, 100
7, 101408, Note_off_c, 5, 60, 100
7, 101760, Note_on_c, 5, 57, 100
7, 101824, Note_off_c, 5, 57, 100
7, 101856, Note_on_c, 5, 60, 100
7, 101920, Note_off_c, 5, 60, 100
7, 102144, Note_on_c, 5, 52, 100
7, 102336, Note_off_c, 5, 52, 100
7, 102432, Note_on_c, 5, 59, 100
7, 102496, Note_off_c, 5, 59, 100
7, 103200, Note_on_c, 5, 52, 100
7, 103264, Note_off_c, 5, 52, 100
7, 103296, Note_on_c, 5, 59, 100
7, 103360, Note_off_c, 5, 59, 100
7, 103680, Note_on_c, 5, 53, 100
7, 103872, Note_off_c, 5, 53, 100
7, 103968, Note_on_c, 5, 53, 100
7, 103968, Note_on_c, 5, 60, 100
7, 104032, Note_off_c, 5, 53, 100
7, 104032, Note_off_c, 5, 60, 100
7, 104832, Note_on_c, 5, 53, 100
7, 104896, Note_off_c, 5, 53, 100
7, 105024, Note_on_c, 5, 57, 100
7, 105088, Note_off_c, 5, 57, 100
7, 105600, Note_on_c, 5, 55, 100
7, 105600, Note_on_c, 5, 62, 100
7, 105728, Note_off_c, 5, 55, 100
7, 105728, Note_off_c, 5, 62, 100
7, 105792, Note_on_c, 5, 55, 100
7, 105920, Note_off_c, 5, 55, 100
7, 106272, Note_on_c, 5, 59, 100
7, 106336, Note_off_c, 5, 59, 100
7, 106464, Note_on_c, 5, 59, 100
7, 106528, Note_off_c, 5, 59, 100
7, 107136, Note_on_c, 5, 62, 100
7, 107136, Note_on_c, 5, 69, 100
7, 107264, Note_off_c, 5, 62, 100
7, 107264, Note_off_c, 5, 69, 100
7, 107328, Note_on_c, 5, 57, 100
7, 107392, Note_off_c, 5, 57, 100
7, 107424, Note_on_c, 5, 60, 100
7, 107552, Note_off_c, 5, 60, 100
7, 107904, Note_on_c, 5, 57, 100
7, 107968, Note_off_c, 5, 57, 100
7, 108000, Note_on_c, 5, 60, 100
7, 108064, Note_off_c, 5, 60, 100
7, 108480, Note_on_c, 5, 57, 100
7, 108544, Note_off_c, 5, 57, 100
7, 108576, Note_on_c, 5, 57, 100
7, 108640, Note_off_c, 5, 57, 100
7, 108864, Note_on_c, 5, 64, 100
7, 108928, Note_off_c, 5, 64, 100
7, 108960, Note_on_c, 5, 57, 100
7, 109024, Note_off_c, 5, 57, 100
7, 109440, Note_on_c, 5, 62, 100
7, 109440, Note_on_c, 5, 55, 100
7, 109632, Note_off_c, 5, 62, 100
7, 109632, Note_off_c, 5, 55, 100
7, 110016, Note_on_c, 5, 57, 100
7, 110080, Note_off_c, 5, 57, 100
7, 110112, Note_on_c, 5, 57, 100
7, 110176, Note_off_c, 5, 57, 100
7, 110400, Note_on_c, 5, 64, 100
7, 110464, Note_off_c, 5, 64, 100
7, 110496, Note_on_c, 5, 57, 100
7, 110560, Note_off_c, 5, 57, 100
7, 110976, Note_on_c, 5, 62, 100
7, 110976, Note_on_c, 5, 55, 100
7, 111168, Note_off_c, 5, 62, 100
7, 111168, Note_off_c, 5, 55, 100
7, 111552, Note_on_c, 5, 57, 100
7, 111616, Note_off_c, 5, 57, 100
7, 111648, Note_on_c, 5, 57, 100
7, 111712, Note_off_c, 5, 57, 100
7, 111936, Note_on_c, 5, 64, 100
7, 112000, Note_off_c, 5, 64, 100
7, 112032, Note_on_c, 5, 57, 100
7, 112096, Note_off_c, 5, 57, 100
7, 112512, Note_on_c, 5, 62, 100
7, 112512, Note_on_c, 5, 55, 100
7, 112704, Note_off_c, 5, 62, 100
7, 112704, Note_off_c, 5, 55, 100
7, 113088, Note_on_c, 5, 57, 100
7, 113152, Note_off_c, 5, 57, 100
7, 113184, Note_on_c, 5, 57, 100
7, 113248, Note_off_c, 5, 57, 100
7, 113472, Note_on_c, 5, 64, 100
7, 113536, Note_off_c, 5, 64, 100
7, 113568, Note_on_c, 5, 57, 100
7, 113632, Note_off_c, 5, 57, 100
7, 114048, Note_on_c, 5, 62, 100
7, 114048, Note_on_c, 5, 55, 100
7, 114240, Note_off_c, 5, 62, 100
7, 114240, Note_off_c, 5, 55, 100
7, 114624, Note_on_c, 5, 58, 100
7, 114688, Note_off_c, 5, 58, 100
7, 114720, Note_on_c, 5, 58, 100
7, 114784, Note_off_c, 5, 58, 100
7, 115008, Note_on_c, 5, 65, 100
7, 115072, Note_off_c, 5, 65, 100
7, 115104, Note_on_c, 5, 58, 100
7, 115168, Note_off_c, 5, 58, 100
7, 115584, Note_on_c, 5, 63, 100
7, 115584, Note_on_c, 5, 56, 100
7, 115776, Note_off_c, 5, 63, 100
7, 115776, Note_off_c, 5, 56, 100
7, 116160, Note_on_c, 5, 58, 100
7, 116224, Note_off_c, 5, 58, 100
7, 116256, Note_on_c, 5, 58, 100
7, 116320, Note_off_c, 5, 58, 100
7, 116544, Note_on_c, 5, 65, 100
7, 116608, Note_off_c, 5, 65, 100
7, 116640, Note_on_c, 5, 58, 100
7, 116704, Note_off_c, 5, 58, 100
7, 117120, Note_on_c, 5, 63, 100
7, 117120, Note_on_c, 5, 56, 100
7, 117312, Note_off_c, 5, 63, 100
7, 117312, Note_off_c, 5, 56, 100
7, 117696, Note_on_c, 5, 58, 100
7, 117760, Note_off_c, 5, 58, 100
7, 117792, Note_on_c, 5, 58, 100
7, 117856, Note_off_c, 5, 58, 100
7, 118080, Note_on_c, 5, 65, 100
7, 118144, Note_off_c, 5, 65, 100
7, 118176, Note_on_c, 5, 58, 100
7, 118240, Note_off_c, 5, 58, 100
7, 118656, Note_on_c, 5, 63, 100
7, 118656, Note_on_c, 5, 56, 100
7, 118848, Note_off_c, 5, 63, 100
7, 118848, Note_off_c, 5, 56, 100
7, 119232, Note_on_c, 5, 60, 100
7, 119232, Note_on_c, 5, 67, 100
7, 119232, Note_on_c, 5, 72, 100
7, 119232, Note_on_c, 5, 76, 100
7, 119232, Note_on_c, 5, 84, 100
7, 119232, Note_on_c, 5, 79, 100
7, 119360, Note_off_c, 5, 60, 100
7, 119360, Note_off_c, 5, 67, 100
7, 119360, Note_off_c, 5, 72, 100
7, 119360, Note_off_c, 5, 76, 100
7, 119360, Note_off_c, 5, 84, 100
7, 119360, Note_off_c, 5, 79, 100
7, 119616, Note_on_c, 5, 60, 100
7, 119616, Note_on_c, 5, 67, 100
7, 119616, Note_on_c, 5, 72, 100
7, 119616, Note_on_c, 5, 76, 100
7, 119616, Note_on_c, 5, 84, 100
7, 119616, Note_on_c, 5, 79, 100
7, 119744, Note_off_c, 5, 60, 100
7, 119744, Note_off_c, 5, 67, 100
7, 119744, Note_off_c, 5, 72, 100
7, 119744, Note_off_c, 5, 76, 100
7, 119744, Note_off_c, 5, 84, 100
7, 119744, Note_off_c, 5, 79, 100
7, 119904, Note_on_c, 5, 62, 100
7, 119904, Note_on_c, 5, 69, 100
7, 119904, Note_on_c, 5, 74, 100
7, 119904, Note_on_c, 5, 78, 100
7, 119904, Note_on_c, 5, 86, 100
7, 119904, Note_on_c, 5, 81, 100
7, 119968, Note_off_c, 5, 62, 100
7, 119968, Note_off_c, 5, 69, 100
7, 119968, Note_off_c, 5, 74, 100
7, 119968, Note_off_c, 5, 78, 100
7, 119968, Note_off_c, 5, 86, 100
7, 120032, Note_off_c, 5, 81, 100
7, 120096, Note_on_c, 5, 60, 100
7, 120096, Note_on_c, 5, 67, 100
7, 120096, Note_on_c, 5, 72, 100
7, 120096, Note_on_c, 5, 76, 100
7, 120096, Note_on_c, 5, 84, 100
7, 120096, Note_on_c, 5, 79, 100
7, 120160, Note_off_c, 5, 60, 100
7, 120160, Note_off_c, 5, 67, 100
7, 120160, Note_off_c, 5, 72, 100
7, 120160, Note_off_c, 5, 76, 100
7, 120160, Note_off_c, 5, 84, 100
7, 120160, Note_off_c, 5, 79, 100
7, 120672, Note_on_c, 5, 59, 100
7, 120672, Note_on_c, 5, 66, 100
7, 120672, Note_on_c, 5, 71, 100
7, 120672, Note_on_c, 5, 75, 100
7, 120672, Note_on_c, 5, 83, 100
7, 120736, Note_off_c, 5, 59, 100
7, 120736, Note_off_c, 5, 66, 100
7, 120736, Note_off_c, 5, 71, 100
7, 120736, Note_off_c, 5, 75, 100
7, 120736, Note_off_c, 5, 83, 100
7, 120864, Note_on_c, 5, 57, 100
7, 120864, Note_on_c, 5, 64, 100
7, 120864, Note_on_c, 5, 69, 100
7, 120864, Note_on_c, 5, 73, 100
7, 120864, Note_on_c, 5, 76, 100
7, 120928, Note_off_c, 5, 57, 100
7, 120928, Note_off_c, 5, 64, 100
7, 120928, Note_off_c, 5, 69, 100
7, 120928, Note_off_c, 5, 73, 100
7, 120928, Note_off_c, 5, 76, 100
7, 120928, End_track
8, 0, Start_track
8, 0, Control_c, 6, 0, 0
8, 0, Program_c, 6, 33
8, 1536, Note_on_c, 6, 59, 100
8, 1664, Note_off_c, 6, 59, 100
8, 1728, Note_on_c, 6, 59, 100
8, 1856, Note_off_c, 6, 59, 100
8, 1920, Note_on_c, 6, 59, 100
8, 2048, Note_off_c, 6, 59, 100
8, 2112, Note_on_c, 6, 59, 100
8, 2240, Note_off_c, 6, 59, 100
8, 2304, Note_on_c, 6, 59, 100
8, 2432, Note_off_c, 6, 59, 100
8, 2496, Note_on_c, 6, 59, 100
8, 2624, Note_off_c, 6, 59, 100
8, 2688, Note_on_c, 6, 59, 100
8, 2816, Note_off_c, 6, 59, 100
8, 2880, Note_on_c, 6, 59, 100
8, 3008, Note_off_c, 6, 59, 100
8, 3072, Note_on_c, 6, 59, 100
8, 3200, Note_off_c, 6, 59, 100
8, 3264, Note_on_c, 6, 59, 100
8, 3392, Note_off_c, 6, 59, 100
8, 3456, Note_on_c, 6, 59, 100
8, 3584, Note_off_c, 6, 59, 100
8, 3648, Note_on_c, 6, 59, 100
8, 3776, Note_off_c, 6, 59, 100
8, 3840, Note_on_c, 6, 59, 100
8, 3968, Note_off_c, 6, 59, 100
8, 4032, Note_on_c, 6, 59, 100
8, 4160, Note_off_c, 6, 59, 100
8, 4224, Note_on_c, 6, 59, 100
8, 4352, Note_off_c, 6, 59, 100
8, 4416, Note_on_c, 6, 59, 100
8, 4544, Note_off_c, 6, 59, 100
8, 4608, Note_on_c, 6, 60, 100
8, 4736, Note_off_c, 6, 60, 100
8, 4800, Note_on_c, 6, 60, 100
8, 4928, Note_off_c, 6, 60, 100
8, 4992, Note_on_c, 6, 60, 100
8, 5120, Note_off_c, 6, 60, 100
8, 5184, Note_on_c, 6, 60, 100
8, 5312, Note_off_c, 6, 60, 100
8, 5376, Note_on_c, 6, 60, 100
8, 5504, Note_off_c, 6, 60, 100
8, 5568, Note_on_c, 6, 60, 100
8, 5696, Note_off_c, 6, 60, 100
8, 5760, Note_on_c, 6, 60, 100
8, 5888, Note_off_c, 6, 60, 100
8, 5952, Note_on_c, 6, 60, 100
8, 6080, Note_off_c, 6, 60, 100
8, 6144, Note_on_c, 6, 60, 100
8, 6272, Note_off_c, 6, 60, 100
8, 6336, Note_on_c, 6, 60, 100
8, 6464, Note_off_c, 6, 60, 100
8, 6528, Note_on_c, 6, 60, 100
8, 6656, Note_off_c, 6, 60, 100
8, 6720, Note_on_c, 6, 60, 100
8, 6848, Note_off_c, 6, 60, 100
8, 6912, Note_on_c, 6, 60, 100
8, 7040, Note_off_c, 6, 60, 100
8, 7104, Note_on_c, 6, 60, 100
8, 7232, Note_off_c, 6, 60, 100
8, 7296, Note_on_c, 6, 60, 100
8, 7424, Note_off_c, 6, 60, 100
8, 7488, Note_on_c, 6, 60, 100
8, 7616, Note_off_c, 6, 60, 100
8, 7680, Note_on_c, 6, 62, 100
8, 7808, Note_off_c, 6, 62, 100
8, 7872, Note_on_c, 6, 62, 100
8, 8000, Note_off_c, 6, 62, 100
8, 8064, Note_on_c, 6, 62, 100
8, 8192, Note_off_c, 6, 62, 100
8, 8256, Note_on_c, 6, 62, 100
8, 8384, Note_off_c, 6, 62, 100
8, 8448, Note_on_c, 6, 62, 100
8, 8576, Note_off_c, 6, 62, 100
8, 8640, Note_on_c, 6, 62, 100
8, 8768, Note_off_c, 6, 62, 100
8, 8832, Note_on_c, 6, 62, 100
8, 8960, Note_off_c, 6, 62, 100
8, 9024, Note_on_c, 6, 62, 100
8, 9152, Note_off_c, 6, 62, 100
8, 9216, Note_on_c, 6, 62, 100
8, 9344, Note_off_c, 6, 62, 100
8, 9408, Note_on_c, 6, 62, 100
8, 9536, Note_off_c, 6, 62, 100
8, 9600, Note_on_c, 6, 62, 100
8, 9728, Note_off_c, 6, 62, 100
8, 9792, Note_on_c, 6, 62, 100
8, 9920, Note_off_c, 6, 62, 100
8, 9984, Note_on_c, 6, 62, 100
8, 10112, Note_off_c, 6, 62, 100
8, 10176, Note_on_c, 6, 62, 100
8, 10304, Note_off_c, 6, 62, 100
8, 10368, Note_on_c, 6, 62, 100
8, 10496, Note_off_c, 6, 62, 100
8, 10560, Note_on_c, 6, 62, 100
8, 10688, Note_off_c, 6, 62, 100
8, 10752, Note_on_c, 6, 64, 100
8, 10880, Note_off_c, 6, 64, 100
8, 10944, Note_on_c, 6, 64, 100
8, 11072, Note_off_c, 6, 64, 100
8, 11136, Note_on_c, 6, 64, 100
8, 11264, Note_off_c, 6, 64, 100
8, 11328, Note_on_c, 6, 64, 100
8, 11456, Note_off_c, 6, 64, 100
8, 11520, Note_on_c, 6, 64, 100
8, 11648, Note_off_c, 6, 64, 100
8, 11712, Note_on_c, 6, 64, 100
8, 11840, Note_off_c, 6, 64, 100
8, 11904, Note_on_c, 6, 64, 100
8, 12032, Note_off_c, 6, 64, 100
8, 12096, Note_on_c, 6, 64, 100
8, 12224, Note_off_c, 6, 64, 100
8, 12288, Note_on_c, 6, 65, 100
8, 12416, Note_off_c, 6, 65, 100
8, 12480, Note_on_c, 6, 65, 100
8, 12608, Note_off_c, 6, 65, 100
8, 12672, Note_on_c, 6, 65, 100
8, 12800, Note_off_c, 6, 65, 100
8, 12864, Note_on_c, 6, 65, 100
8, 12992, Note_off_c, 6, 65, 100
8, 13056, Note_on_c, 6, 65, 100
8, 13184, Note_off_c, 6, 65, 100
8, 13248, Note_on_c, 6, 65, 100
8, 13376, Note_off_c, 6, 65, 100
8, 13440, Note_on_c, 6, 65, 100
8, 13568, Note_off_c, 6, 65, 100
8, 13632, Note_on_c, 6, 65, 100
8, 13760, Note_off_c, 6, 65, 100
8, 13824, Note_on_c, 6, 52, 100
8, 13952, Note_off_c, 6, 52, 100
8, 14112, Note_on_c, 6, 47, 100
8, 14176, Note_off_c, 6, 47, 100
8, 14208, Note_on_c, 6, 52, 100
8, 14336, Note_off_c, 6, 52, 100
8, 14496, Note_on_c, 6, 47, 100
8, 14560, Note_off_c, 6, 47, 100
8, 14592, Note_on_c, 6, 52, 100
8, 14720, Note_off_c, 6, 52, 100
8, 14880, Note_on_c, 6, 47, 100
8, 14944, Note_off_c, 6, 47, 100
8, 14976, Note_on_c, 6, 52, 100
8, 15104, Note_off_c, 6, 52, 100
8, 15168, Note_on_c, 6, 52, 100
8, 15296, Note_off_c, 6, 52, 100
8, 15360, Note_on_c, 6, 58, 100
8, 15488, Note_off_c, 6, 58, 100
8, 15648, Note_on_c, 6, 53, 100
8, 15712, Note_off_c, 6, 53, 100
8, 15744, Note_on_c, 6, 58, 100
8, 15872, Note_off_c, 6, 58, 100
8, 16032, Note_on_c, 6, 53, 100
8, 16096, Note_off_c, 6, 53, 100
8, 16128, Note_on_c, 6, 58, 100
8, 16256, Note_off_c, 6, 58, 100
8, 16416, Note_on_c, 6, 53, 100
8, 16480, Note_off_c, 6, 53, 100
8, 16512, Note_on_c, 6, 58, 100
8, 16640, Note_off_c, 6, 58, 100
8, 16704, Note_on_c, 6, 58, 100
8, 16832, Note_off_c, 6, 58, 100
8, 16896, Note_on_c, 6, 52, 100
8, 17024, Note_off_c, 6, 52, 100
8, 17184, Note_on_c, 6, 47, 100
8, 17248, Note_off_c, 6, 47, 100
8, 17280, Note_on_c, 6, 52, 100
8, 17408, Note_off_c, 6, 52, 100
8, 17568, Note_on_c, 6, 47, 100
8, 17632, Note_off_c, 6, 47, 100
8, 17664, Note_on_c, 6, 52, 100
8, 17792, Note_off_c, 6, 52, 100
8, 17952, Note_on_c, 6, 47, 100
8, 18016, Note_off_c, 6, 47, 100
8, 18048, Note_on_c, 6, 52, 100
8, 18176, Note_off_c, 6, 52, 100
8, 18240, Note_on_c, 6, 52, 100
8, 18368, Note_off_c, 6, 52, 100
8, 18432, Note_on_c, 6, 58, 100
8, 18560, Note_off_c, 6, 58, 100
8, 18720, Note_on_c, 6, 53, 100
8, 18784, Note_off_c, 6, 53, 100
8, 18816, Note_on_c, 6, 58, 100
8, 18944, Note_off_c, 6, 58, 100
8, 19104, Note_on_c, 6, 53, 100
8, 19168, Note_off_c, 6, 53, 100
8, 19200, Note_on_c, 6, 58, 100
8, 19328, Note_off_c, 6, 58, 100
8, 19488, Note_on_c, 6, 53, 100
8, 19552, Note_off_c, 6, 53, 100
8, 19584, Note_on_c, 6, 58, 100
8, 19712, Note_off_c, 6, 58, 100
8, 19776, Note_on_c, 6, 58, 100
8, 19904, Note_off_c, 6, 58, 100
8, 19968, Note_on_c, 6, 60, 100
8, 20096, Note_off_c, 6, 60, 100
8, 20256, Note_on_c, 6, 55, 100
8, 20320, Note_off_c, 6, 55, 100
8, 20352, Note_on_c, 6, 60, 100
8, 20480, Note_off_c, 6, 60, 100
8, 20640, Note_on_c, 6, 55, 100
8, 20704, Note_off_c, 6, 55, 100
8, 20736, Note_on_c, 6, 60, 100
8, 20864, Note_off_c, 6, 60, 100
8, 21024, Note_on_c, 6, 55, 100
8, 21088, Note_off_c, 6, 55, 100
8, 21120, Note_on_c, 6, 60, 100
8, 21248, Note_off_c, 6, 60, 100
8, 21312, Note_on_c, 6, 60, 100
8, 21440, Note_off_c, 6, 60, 100
8, 21504, Note_on_c, 6, 56, 100
8, 21632, Note_off_c, 6, 56, 100
8, 21792, Note_on_c, 6, 51, 100
8, 21856, Note_off_c, 6, 51, 100
8, 21888, Note_on_c, 6, 56, 100
8, 22016, Note_off_c, 6, 56, 100
8, 22176, Note_on_c, 6, 51, 100
8, 22240, Note_off_c, 6, 51, 100
8, 22272, Note_on_c, 6, 56, 100
8, 22400, Note_off_c, 6, 56, 100
8, 22560, Note_on_c, 6, 51, 100
8, 22624, Note_off_c, 6, 51, 100
8, 22656, Note_on_c, 6, 56, 100
8, 22784, Note_off_c, 6, 56, 100
8, 22848, Note_on_c, 6, 56, 100
8, 22976, Note_off_c, 6, 56, 100
8, 23040, Note_on_c, 6, 62, 100
8, 23168, Note_off_c, 6, 62, 100
8, 23328, Note_on_c, 6, 57, 100
8, 23392, Note_off_c, 6, 57, 100
8, 23424, Note_on_c, 6, 62, 100
8, 23552, Note_off_c, 6, 62, 100
8, 23712, Note_on_c, 6, 57, 100
8, 23776, Note_off_c, 6, 57, 100
8, 23808, Note_on_c, 6, 62, 100
8, 23936, Note_off_c, 6, 62, 100
8, 24096, Note_on_c, 6, 57, 100
8, 24160, Note_off_c, 6, 57, 100
8, 24192, Note_on_c, 6, 62, 100
8, 24320, Note_off_c, 6, 62, 100
8, 24384, Note_on_c, 6, 62, 100
8, 24512, Note_off_c, 6, 62, 100
8, 24576, Note_on_c, 6, 60, 100
8, 24704, Note_off_c, 6, 60, 100
8, 24864, Note_on_c, 6, 55, 100
8, 24928, Note_off_c, 6, 55, 100
8, 24960, Note_on_c, 6, 60, 100
8, 25088, Note_off_c, 6, 60, 100
8, 25248, Note_on_c, 6, 55, 100
8, 25312, Note_off_c, 6, 55, 100
8, 25344, Note_on_c, 6, 60, 100
8, 25472, Note_off_c, 6, 60, 100
8, 25632, Note_on_c, 6, 55, 100
8, 25696, Note_off_c, 6, 55, 100
8, 25728, Note_on_c, 6, 60, 100
8, 25856, Note_off_c, 6, 60, 100
8, 25920, Note_on_c, 6, 60, 100
8, 26048, Note_off_c, 6, 60, 100
8, 26112, Note_on_c, 6, 60, 100
8, 26240, Note_off_c, 6, 60, 100
8, 26400, Note_on_c, 6, 55, 100
8, 26464, Note_off_c, 6, 55, 100
8, 26496, Note_on_c, 6, 60, 100
8, 26624, Note_off_c, 6, 60, 100
8, 26784, Note_on_c, 6, 55, 100
8, 26848, Note_off_c, 6, 55, 100
8, 26880, Note_on_c, 6, 60, 100
8, 27008, Note_off_c, 6, 60, 100
8, 27168, Note_on_c, 6, 55, 100
8, 27232, Note_off_c, 6, 55, 100
8, 27264, Note_on_c, 6, 60, 100
8, 27392, Note_off_c, 6, 60, 100
8, 27456, Note_on_c, 6, 60, 100
8, 27584, Note_off_c, 6, 60, 100
8, 27648, Note_on_c, 6, 58, 100
8, 27776, Note_off_c, 6, 58, 100
8, 27936, Note_on_c, 6, 53, 100
8, 28000, Note_off_c, 6, 53, 100
8, 28032, Note_on_c, 6, 58, 100
8, 28160, Note_off_c, 6, 58, 100
8, 28320, Note_on_c, 6, 53, 100
8, 28384, Note_off_c, 6, 53, 100
8, 28416, Note_on_c, 6, 58, 100
8, 28544, Note_off_c, 6, 58, 100
8, 28704, Note_on_c, 6, 53, 100
8, 28768, Note_off_c, 6, 53, 100
8, 28800, Note_on_c, 6, 58, 100
8, 28928, Note_off_c, 6, 58, 100
8, 28992, Note_on_c, 6, 58, 100
8, 29120, Note_off_c, 6, 58, 100
8, 29184, Note_on_c, 6, 57, 100
8, 29440, Note_off_c, 6, 57, 100
8, 29568, Note_on_c, 6, 57, 100
8, 29824, Note_off_c, 6, 57, 100
8, 29952, Note_on_c, 6, 57, 100
8, 30208, Note_off_c, 6, 57, 100
8, 30336, Note_on_c, 6, 57, 100
8, 30528, Note_off_c, 6, 57, 100
8, 30624, Note_on_c, 6, 52, 100
8, 30688, Note_off_c, 6, 52, 100
8, 30720, Note_on_c, 6, 52, 100
8, 30976, Note_off_c, 6, 52, 100
8, 31104, Note_on_c, 6, 52, 100
8, 31360, Note_off_c, 6, 52, 100
8, 31488, Note_on_c, 6, 52, 100
8, 31744, Note_off_c, 6, 52, 100
8, 31872, Note_on_c, 6, 52, 100
8, 32128, Note_off_c, 6, 52, 100
8, 32256, Note_on_c, 6, 52, 100
8, 32448, Note_off_c, 6, 52, 100
8, 32544, Note_on_c, 6, 52, 100
8, 32608, Note_off_c, 6, 52, 100
8, 32640, Note_on_c, 6, 52, 100
8, 32768, Note_off_c, 6, 52, 100
8, 33792, Note_on_c, 6, 53, 100
8, 33984, Note_off_c, 6, 53, 100
8, 34080, Note_on_c, 6, 53, 100
8, 34144, Note_off_c, 6, 53, 100
8, 34176, Note_on_c, 6, 53, 100
8, 34304, Note_off_c, 6, 53, 100
8, 35328, Note_on_c, 6, 55, 100
8, 35520, Note_off_c, 6, 55, 100
8, 35616, Note_on_c, 6, 55, 100
8, 35680, Note_off_c, 6, 55, 100
8, 35712, Note_on_c, 6, 55, 100
8, 35840, Note_off_c, 6, 55, 100
8, 36864, Note_on_c, 6, 57, 100
8, 37056, Note_off_c, 6, 57, 100
8, 37152, Note_on_c, 6, 57, 100
8, 37216, Note_off_c, 6, 57, 100
8, 37248, Note_on_c, 6, 57, 100
8, 37376, Note_off_c, 6, 57, 100
8, 37440, Note_on_c, 6, 57, 100
8, 37504, Note_off_c, 6, 57, 100
8, 37536, Note_on_c, 6, 60, 100
8, 37664, Note_off_c, 6, 60, 100
8, 37728, Note_on_c, 6, 57, 100
8, 37792, Note_off_c, 6, 57, 100
8, 37824, Note_on_c, 6, 64, 100
8, 37952, Note_off_c, 6, 64, 100
8, 38016, Note_on_c, 6, 57, 100
8, 38080, Note_off_c, 6, 57, 100
8, 38112, Note_on_c, 6, 64, 100
8, 38176, Note_off_c, 6, 64, 100
8, 38208, Note_on_c, 6, 55, 100
8, 38336, Note_off_c, 6, 55, 100
8, 38400, Note_on_c, 6, 52, 100
8, 38592, Note_off_c, 6, 52, 100
8, 38688, Note_on_c, 6, 52, 100
8, 38752, Note_off_c, 6, 52, 100
8, 38784, Note_on_c, 6, 52, 100
8, 38912, Note_off_c, 6, 52, 100
8, 39936, Note_on_c, 6, 53, 100
8, 40128, Note_off_c, 6, 53, 100
8, 40224, Note_on_c, 6, 53, 100
8, 40288, Note_off_c, 6, 53, 100
8, 40320, Note_on_c, 6, 53, 100
8, 40448, Note_off_c, 6, 53, 100
8, 41472, Note_on_c, 6, 55, 100
8, 41664, Note_off_c, 6, 55, 100
8, 41760, Note_on_c, 6, 55, 100
8, 41824, Note_off_c, 6, 55, 100
8, 41856, Note_on_c, 6, 55, 100
8, 41984, Note_off_c, 6, 55, 100
8, 43008, Note_on_c, 6, 57, 100
8, 43200, Note_off_c, 6, 57, 100
8, 43296, Note_on_c, 6, 57, 100
8, 43360, Note_off_c, 6, 57, 100
8, 43392, Note_on_c, 6, 57, 100
8, 43520, Note_off_c, 6, 57, 100
8, 43584, Note_on_c, 6, 57, 100
8, 43648, Note_off_c, 6, 57, 100
8, 43680, Note_on_c, 6, 60, 100
8, 43808, Note_off_c, 6, 60, 100
8, 43872, Note_on_c, 6, 57, 100
8, 43936, Note_off_c, 6, 57, 100
8, 43968, Note_on_c, 6, 64, 100
8, 44096, Note_off_c, 6, 64, 100
8, 44160, Note_on_c, 6, 57, 100
8, 44224, Note_off_c, 6, 57, 100
8, 44256, Note_on_c, 6, 64, 100
8, 44320, Note_off_c, 6, 64, 100
8, 44352, Note_on_c, 6, 55, 100
8, 44480, Note_off_c, 6, 55, 100
8, 44544, Note_on_c, 6, 45, 100
8, 44672, Note_off_c, 6, 45, 100
8, 44832, Note_on_c, 6, 45, 100
8, 44896, Note_off_c, 6, 45, 100
8, 44928, Note_on_c, 6, 48, 100
8, 44992, Note_off_c, 6, 48, 100
8, 45024, Note_on_c, 6, 45, 100
8, 45088, Note_off_c, 6, 45, 100
8, 45120, Note_on_c, 6, 52, 100
8, 45184, Note_off_c, 6, 52, 100
8, 45216, Note_on_c, 6, 45, 100
8, 45280, Note_off_c, 6, 45, 100
8, 45312, Note_on_c, 6, 48, 100
8, 45376, Note_off_c, 6, 48, 100
8, 45408, Note_on_c, 6, 43, 100
8, 45472, Note_off_c, 6, 43, 100
8, 45696, Note_on_c, 6, 43, 100
8, 45824, Note_off_c, 6, 43, 100
8, 46080, Note_on_c, 6, 45, 100
8, 46208, Note_off_c, 6, 45, 100
8, 46368, Note_on_c, 6, 45, 100
8, 46432, Note_off_c, 6, 45, 100
8, 46464, Note_on_c, 6, 48, 100
8, 46528, Note_off_c, 6, 48, 100
8, 46560, Note_on_c, 6, 45, 100
8, 46624, Note_off_c, 6, 45, 100
8, 46656, Note_on_c, 6, 52, 100
8, 46720, Note_off_c, 6, 52, 100
8, 46752, Note_on_c, 6, 45, 100
8, 46816, Note_off_c, 6, 45, 100
8, 46848, Note_on_c, 6, 48, 100
8, 46912, Note_off_c, 6, 48, 100
8, 46944, Note_on_c, 6, 43, 100
8, 47008, Note_off_c, 6, 43, 100
8, 47232, Note_on_c, 6, 43, 100
8, 47360, Note_off_c, 6, 43, 100
8, 47616, Note_on_c, 6, 45, 100
8, 47744, Note_off_c, 6, 45, 100
8, 47904, Note_on_c, 6, 45, 100
8, 47968, Note_off_c, 6, 45, 100
8, 48000, Note_on_c, 6, 48, 100
8, 48064, Note_off_c, 6, 48, 100
8, 48096, Note_on_c, 6, 45, 100
8, 48160, Note_off_c, 6, 45, 100
8, 48192, Note_on_c, 6, 52, 100
8, 48256, Note_off_c, 6, 52, 100
8, 48288, Note_on_c, 6, 45, 100
8, 48352, Note_off_c, 6, 45, 100
8, 48384, Note_on_c, 6, 48, 100
8, 48448, Note_off_c, 6, 48, 100
8, 48480, Note_on_c, 6, 43, 100
8, 48544, Note_off_c, 6, 43, 100
8, 48768, Note_on_c, 6, 43, 100
8, 48896, Note_off_c, 6, 43, 100
8, 49152, Note_on_c, 6, 45, 100
8, 49280, Note_off_c, 6, 45, 100
8, 49440, Note_on_c, 6, 45, 100
8, 49504, Note_off_c, 6, 45, 100
8, 49536, Note_on_c, 6, 48, 100
8, 49600, Note_off_c, 6, 48, 100
8, 49632, Note_on_c, 6, 45, 100
8, 49696, Note_off_c, 6, 45, 100
8, 49728, Note_on_c, 6, 52, 100
8, 49792, Note_off_c, 6, 52, 100
8, 49824, Note_on_c, 6, 45, 100
8, 49888, Note_off_c, 6, 45, 100
8, 49920, Note_on_c, 6, 48, 100
8, 49984, Note_off_c, 6, 48, 100
8, 50016, Note_on_c, 6, 43, 100
8, 50080, Note_off_c, 6, 43, 100
8, 50304, Note_on_c, 6, 43, 100
8, 50432, Note_off_c, 6, 43, 100
8, 50688, Note_on_c, 6, 46, 100
8, 50816, Note_off_c, 6, 46, 100
8, 50976, Note_on_c, 6, 46, 100
8, 51040, Note_off_c, 6, 46, 100
8, 51072, Note_on_c, 6, 49, 100
8, 51136, Note_off_c, 6, 49, 100
8, 51168, Note_on_c, 6, 46, 100
8, 51232, Note_off_c, 6, 46, 100
8, 51264, Note_on_c, 6, 53, 100
8, 51328, Note_off_c, 6, 53, 100
8, 51360, Note_on_c, 6, 46, 100
8, 51424, Note_off_c, 6, 46, 100
8, 51456, Note_on_c, 6, 49, 100
8, 51520, Note_off_c, 6, 49, 100
8, 51552, Note_on_c, 6, 44, 100
8, 51616, Note_off_c, 6, 44, 100
8, 51840, Note_on_c, 6, 44, 100
8, 51968, Note_off_c, 6, 44, 100
8, 52224, Note_on_c, 6, 46, 100
8, 52352, Note_off_c, 6, 46, 100
8, 52512, Note_on_c, 6, 46, 100
8, 52576, Note_off_c, 6, 46, 100
8, 52608, Note_on_c, 6, 49, 100
8, 52672, Note_off_c, 6, 49, 100
8, 52704, Note_on_c, 6, 46, 100
8, 52768, Note_off_c, 6, 46, 100
8, 52800, Note_on_c, 6, 53, 100
8, 52864, Note_off_c, 6, 53, 100
8, 52896, Note_on_c, 6, 46, 100
8, 52960, Note_off_c, 6, 46, 100
8, 52992, Note_on_c, 6, 49, 100
8, 53056, Note_off_c, 6, 49, 100
8, 53088, Note_on_c, 6, 44, 100
8, 53152, Note_off_c, 6, 44, 100
8, 53376, Note_on_c, 6, 44, 100
8, 53504, Note_off_c, 6, 44, 100
8, 53760, Note_on_c, 6, 46, 100
8, 53888, Note_off_c, 6, 46, 100
8, 54048, Note_on_c, 6, 46, 100
8, 54112, Note_off_c, 6, 46, 100
8, 54144, Note_on_c, 6, 49, 100
8, 54208, Note_off_c, 6, 49, 100
8, 54240, Note_on_c, 6, 46, 100
8, 54304, Note_off_c, 6, 46, 100
8, 54336, Note_on_c, 6, 53, 100
8, 54400, Note_off_c, 6, 53, 100
8, 54432, Note_on_c, 6, 46, 100
8, 54496, Note_off_c, 6, 46, 100
8, 54528, Note_on_c, 6, 49, 100
8, 54592, Note_off_c, 6, 49, 100
8, 54624, Note_on_c, 6, 44, 100
8, 54688, Note_off_c, 6, 44, 100
8, 54912, Note_on_c, 6, 44, 100
8, 55040, Note_off_c, 6, 44, 100
8, 55296, Note_on_c, 6, 48, 100
8, 55360, Note_off_c, 6, 48, 100
8, 55392, Note_on_c, 6, 48, 100
8, 55456, Note_off_c, 6, 48, 100
8, 55488, Note_on_c, 6, 48, 100
8, 55552, Note_off_c, 6, 48, 100
8, 55584, Note_on_c, 6, 48, 100
8, 55648, Note_off_c, 6, 48, 100
8, 55680, Note_on_c, 6, 48, 100
8, 55744, Note_off_c, 6, 48, 100
8, 55776, Note_on_c, 6, 48, 100
8, 55840, Note_off_c, 6, 48, 100
8, 55872, Note_on_c, 6, 48, 100
8, 55936, Note_off_c, 6, 48, 100
8, 55968, Note_on_c, 6, 48, 100
8, 56032, Note_off_c, 6, 48, 100
8, 56064, Note_on_c, 6, 50, 100
8, 56128, Note_off_c, 6, 50, 100
8, 56160, Note_on_c, 6, 50, 100
8, 56224, Note_off_c, 6, 50, 100
8, 56256, Note_on_c, 6, 50, 100
8, 56320, Note_off_c, 6, 50, 100
8, 56352, Note_on_c, 6, 48, 100
8, 56416, Note_off_c, 6, 48, 100
8, 56448, Note_on_c, 6, 50, 100
8, 56512, Note_off_c, 6, 50, 100
8, 56928, Note_on_c, 6, 47, 100
8, 56992, Note_off_c, 6, 47, 100
8, 57024, Note_on_c, 6, 47, 100
8, 57088, Note_off_c, 6, 47, 100
8, 57120, Note_on_c, 6, 45, 100
8, 57184, Note_off_c, 6, 45, 100
8, 57216, Note_on_c, 6, 47, 100
8, 57344, Note_off_c, 6, 47, 100
8, 57408, Note_on_c, 6, 50, 100
8, 57536, Note_off_c, 6, 50, 100
8, 57600, Note_on_c, 6, 52, 100
8, 57792, Note_off_c, 6, 52, 100
8, 57888, Note_on_c, 6, 52, 100
8, 57952, Note_off_c, 6, 52, 100
8, 57984, Note_on_c, 6, 52, 100
8, 58112, Note_off_c, 6, 52, 100
8, 58368, Note_on_c, 6, 64, 100
8, 58432, Note_off_c, 6, 64, 100
8, 58464, Note_on_c, 6, 62, 100
8, 58592, Note_off_c, 6, 62, 100
8, 58656, Note_on_c, 6, 59, 100
8, 58784, Note_off_c, 6, 59, 100
8, 58848, Note_on_c, 6, 57, 100
8, 58912, Note_off_c, 6, 57, 100
8, 58944, Note_on_c, 6, 55, 100
8, 59072, Note_off_c, 6, 55, 100
8, 59136, Note_on_c, 6, 53, 100
8, 59392, Note_off_c, 6, 53, 100
8, 59424, Note_on_c, 6, 53, 100
8, 59488, Note_off_c, 6, 53, 100
8, 59520, Note_on_c, 6, 53, 100
8, 59648, Note_off_c, 6, 53, 100
8, 59904, Note_on_c, 6, 53, 100
8, 59968, Note_off_c, 6, 53, 100
8, 60000, Note_on_c, 6, 53, 100
8, 60128, Note_off_c, 6, 53, 100
8, 60192, Note_on_c, 6, 55, 100
8, 60320, Note_off_c, 6, 55, 100
8, 60384, Note_on_c, 6, 57, 100
8, 60448, Note_off_c, 6, 57, 100
8, 60480, Note_on_c, 6, 60, 100
8, 60608, Note_off_c, 6, 60, 100
8, 60672, Note_on_c, 6, 55, 100
8, 60864, Note_off_c, 6, 55, 100
8, 60960, Note_on_c, 6, 55, 100
8, 61024, Note_off_c, 6, 55, 100
8, 61056, Note_on_c, 6, 55, 100
8, 61184, Note_off_c, 6, 55, 100
8, 61440, Note_on_c, 6, 55, 100
8, 61504, Note_off_c, 6, 55, 100
8, 61536, Note_on_c, 6, 54, 100
8, 61664, Note_off_c, 6, 54, 100
8, 61728, Note_on_c, 6, 55, 100
8, 61856, Note_off_c, 6, 55, 100
8, 61920, Note_on_c, 6, 57, 100
8, 61984, Note_off_c, 6, 57, 100
8, 62016, Note_on_c, 6, 60, 100
8, 62144, Note_off_c, 6, 60, 100
8, 62208, Note_on_c, 6, 62, 100
8, 62400, Note_off_c, 6, 62, 100
8, 62496, Note_on_c, 6, 62, 100
8, 62560, Note_off_c, 6, 62, 100
8, 62592, Note_on_c, 6, 62, 100
8, 62720, Note_off_c, 6, 62, 100
8, 62784, Note_on_c, 6, 57, 100
8, 62848, Note_off_c, 6, 57, 100
8, 62880, Note_on_c, 6, 60, 100
8, 63008, Note_off_c, 6, 60, 100
8, 63072, Note_on_c, 6, 57, 100
8, 63136, Note_off_c, 6, 57, 100
8, 63168, Note_on_c, 6, 64, 100
8, 63296, Note_off_c, 6, 64, 100
8, 63360, Note_on_c, 6, 57, 100
8, 63424, Note_off_c, 6, 57, 100
8, 63456, Note_on_c, 6, 60, 100
8, 63520, Note_off_c, 6, 60, 100
8, 63552, Note_on_c, 6, 55, 100
8, 63680, Note_off_c, 6, 55, 100
8, 63744, Note_on_c, 6, 52, 100
8, 63936, Note_off_c, 6, 52, 100
8, 64032, Note_on_c, 6, 52, 100
8, 64096, Note_off_c, 6, 52, 100
8, 64128, Note_on_c, 6, 52, 100
8, 64256, Note_off_c, 6, 52, 100
8, 64512, Note_on_c, 6, 64, 100
8, 64576, Note_off_c, 6, 64, 100
8, 64608, Note_on_c, 6, 62, 100
8, 64736, Note_off_c, 6, 62, 100
8, 64800, Note_on_c, 6, 59, 100
8, 64928, Note_off_c, 6, 59, 100
8, 64992, Note_on_c, 6, 57, 100
8, 65056, Note_off_c, 6, 57, 100
8, 65088, Note_on_c, 6, 55, 100
8, 65216, Note_off_c, 6, 55, 100
8, 65280, Note_on_c, 6, 53, 100
8, 65472, Note_off_c, 6, 53, 100
8, 65568, Note_on_c, 6, 53, 100
8, 65632, Note_off_c, 6, 53, 100
8, 65664, Note_on_c, 6, 53, 100
8, 65792, Note_off_c, 6, 53, 100
8, 66048, Note_on_c, 6, 53, 100
8, 66112, Note_off_c, 6, 53, 100
8, 66144, Note_on_c, 6, 53, 100
8, 66272, Note_off_c, 6, 53, 100
8, 66336, Note_on_c, 6, 55, 100
8, 66464, Note_off_c, 6, 55, 100
8, 66528, Note_on_c, 6, 57, 100
8, 66592, Note_off_c, 6, 57, 100
8, 66624, Note_on_c, 6, 60, 100
8, 66752, Note_off_c, 6, 60, 100
8, 66816, Note_on_c, 6, 55, 100
8, 67008, Note_off_c, 6, 55, 100
8, 67104, Note_on_c, 6, 55, 100
8, 67168, Note_off_c, 6, 55, 100
8, 67200, Note_on_c, 6, 55, 100
8, 67328, Note_off_c, 6, 55, 100
8, 67584, Note_on_c, 6, 55, 100
8, 67648, Note_off_c, 6, 55, 100
8, 67680, Note_on_c, 6, 54, 100
8, 67808, Note_off_c, 6, 54, 100
8, 67872, Note_on_c, 6, 55, 100
8, 68000, Note_off_c, 6, 55, 100
8, 68064, Note_on_c, 6, 57, 100
8, 68128, Note_off_c, 6, 57, 100
8, 68160, Note_on_c, 6, 60, 100
8, 68288, Note_off_c, 6, 60, 100
8, 68352, Note_on_c, 6, 62, 100
8, 68544, Note_off_c, 6, 62, 100
8, 68640, Note_on_c, 6, 62, 100
8, 68704, Note_off_c, 6, 62, 100
8, 68736, Note_on_c, 6, 62, 100
8, 68864, Note_off_c, 6, 62, 100
8, 68928, Note_on_c, 6, 57, 100
8, 68992, Note_off_c, 6, 57, 100
8, 69024, Note_on_c, 6, 60, 100
8, 69152, Note_off_c, 6, 60, 100
8, 69216, Note_on_c, 6, 57, 100
8, 69280, Note_off_c, 6, 57, 100
8, 69312, Note_on_c, 6, 64, 100
8, 69440, Note_off_c, 6, 64, 100
8, 69504, Note_on_c, 6, 57, 100
8, 69568, Note_off_c, 6, 57, 100
8, 69600, Note_on_c, 6, 60, 100
8, 69664, Note_off_c, 6, 60, 100
8, 69696, Note_on_c, 6, 55, 100
8, 69824, Note_off_c, 6, 55, 100
8, 69888, Note_on_c, 6, 45, 100
8, 70016, Note_off_c, 6, 45, 100
8, 70176, Note_on_c, 6, 45, 100
8, 70240, Note_off_c, 6, 45, 100
8, 70272, Note_on_c, 6, 48, 100
8, 70336, Note_off_c, 6, 48, 100
8, 70368, Note_on_c, 6, 45, 100
8, 70432, Note_off_c, 6, 45, 100
8, 70464, Note_on_c, 6, 52, 100
8, 70528, Note_off_c, 6, 52, 100
8, 70560, Note_on_c, 6, 45, 100
8, 70624, Note_off_c, 6, 45, 100
8, 70656, Note_on_c, 6, 48, 100
8, 70720, Note_off_c, 6, 48, 100
8, 70752, Note_on_c, 6, 43, 100
8, 70816, Note_off_c, 6, 43, 100
8, 71040, Note_on_c, 6, 43, 100
8, 71168, Note_off_c, 6, 43, 100
8, 71424, Note_on_c, 6, 45, 100
8, 71552, Note_off_c, 6, 45, 100
8, 71712, Note_on_c, 6, 45, 100
8, 71776, Note_off_c, 6, 45, 100
8, 71808, Note_on_c, 6, 48, 100
8, 71872, Note_off_c, 6, 48, 100
8, 71904, Note_on_c, 6, 45, 100
8, 71968, Note_off_c, 6, 45, 100
8, 72000, Note_on_c, 6, 52, 100
8, 72064, Note_off_c, 6, 52, 100
8, 72096, Note_on_c, 6, 45, 100
8, 72160, Note_off_c, 6, 45, 100
8, 72192, Note_on_c, 6, 48, 100
8, 72256, Note_off_c, 6, 48, 100
8, 72288, Note_on_c, 6, 43, 100
8, 72352, Note_off_c, 6, 43, 100
8, 72576, Note_on_c, 6, 43, 100
8, 72704, Note_off_c, 6, 43, 100
8, 72960, Note_on_c, 6, 45, 100
8, 73088, Note_off_c, 6, 45, 100
8, 73248, Note_on_c, 6, 45, 100
8, 73312, Note_off_c, 6, 45, 100
8, 73344, Note_on_c, 6, 48, 100
8, 73408, Note_off_c, 6, 48, 100
8, 73440, Note_on_c, 6, 45, 100
8, 73504, Note_off_c, 6, 45, 100
8, 73536, Note_on_c, 6, 52, 100
8, 73600, Note_off_c, 6, 52, 100
8, 73632, Note_on_c, 6, 45, 100
8, 73696, Note_off_c, 6, 45, 100
8, 73728, Note_on_c, 6, 48, 100
8, 73792, Note_off_c, 6, 48, 100
8, 73824, Note_on_c, 6, 43, 100
8, 73888, Note_off_c, 6, 43, 100
8, 74112, Note_on_c, 6, 43, 100
8, 74240, Note_off_c, 6, 43, 100
8, 74496, Note_on_c, 6, 45, 100
8, 74624, Note_off_c, 6, 45, 100
8, 74784, Note_on_c, 6, 45, 100
8, 74848, Note_off_c, 6, 45, 100
8, 74880, Note_on_c, 6, 48, 100
8, 74944, Note_off_c, 6, 48, 100
8, 74976, Note_on_c, 6, 45, 100
8, 75040, Note_off_c, 6, 45, 100
8, 75072, Note_on_c, 6, 52, 100
8, 75136, Note_off_c, 6, 52, 100
8, 75168, Note_on_c, 6, 45, 100
8, 75232, Note_off_c, 6, 45, 100
8, 75264, Note_on_c, 6, 48, 100
8, 75328, Note_off_c, 6, 48, 100
8, 75360, Note_on_c, 6, 43, 100
8, 75424, Note_off_c, 6, 43, 100
8, 75648, Note_on_c, 6, 43, 100
8, 75776, Note_off_c, 6, 43, 100
8, 76032, Note_on_c, 6, 46, 100
8, 76160, Note_off_c, 6, 46, 100
8, 76320, Note_on_c, 6, 46, 100
8, 76384, Note_off_c, 6, 46, 100
8, 76416, Note_on_c, 6, 49, 100
8, 76480, Note_off_c, 6, 49, 100
8, 76512, Note_on_c, 6, 46, 100
8, 76576, Note_off_c, 6, 46, 100
8, 76608, Note_on_c, 6, 53, 100
8, 76672, Note_off_c, 6, 53, 100
8, 76704, Note_on_c, 6, 46, 100
8, 76768, Note_off_c, 6, 46, 100
8, 76800, Note_on_c, 6, 49, 100
8, 76864, Note_off_c, 6, 49, 100
8, 76896, Note_on_c, 6, 44, 100
8, 76960, Note_off_c, 6, 44, 100
8, 77184, Note_on_c, 6, 44, 100
8, 77312, Note_off_c, 6, 44, 100
8, 77568, Note_on_c, 6, 46, 100
8, 77696, Note_off_c, 6, 46, 100
8, 77856, Note_on_c, 6, 46, 100
8, 77920, Note_off_c, 6, 46, 100
8, 77952, Note_on_c, 6, 49, 100
8, 78016, Note_off_c, 6, 49, 100
8, 78048, Note_on_c, 6, 46, 100
8, 78112, Note_off_c, 6, 46, 100
8, 78144, Note_on_c, 6, 53, 100
8, 78208, Note_off_c, 6, 53, 100
8, 78240, Note_on_c, 6, 46, 100
8, 78304, Note_off_c, 6, 46, 100
8, 78336, Note_on_c, 6, 49, 100
8, 78400, Note_off_c, 6, 49, 100
8, 78432, Note_on_c, 6, 44, 100
8, 78496, Note_off_c, 6, 44, 100
8, 78720, Note_on_c, 6, 44, 100
8, 78848, Note_off_c, 6, 44, 100
8, 79104, Note_on_c, 6, 46, 100
8, 79232, Note_off_c, 6, 46, 100
8, 79392, Note_on_c, 6, 46, 100
8, 79456, Note_off_c, 6, 46, 100
8, 79488, Note_on_c, 6, 49, 100
8, 79552, Note_off_c, 6, 49, 100
8, 79584, Note_on_c, 6, 46, 100
8, 79648, Note_off_c, 6, 46, 100
8, 79680, Note_on_c, 6, 53, 100
8, 79744, Note_off_c, 6, 53, 100
8, 79776, Note_on_c, 6, 46, 100
8, 79840, Note_off_c, 6, 46, 100
8, 79872, Note_on_c, 6, 49, 100
8, 79936, Note_off_c, 6, 49, 100
8, 79968, Note_on_c, 6, 44, 100
8, 80032, Note_off_c, 6, 44, 100
8, 80256, Note_on_c, 6, 44, 100
8, 80384, Note_off_c, 6, 44, 100
8, 80640, Note_on_c, 6, 48, 100
8, 80704, Note_off_c, 6, 48, 100
8, 80736, Note_on_c, 6, 48, 100
8, 80800, Note_off_c, 6, 48, 100
8, 80832, Note_on_c, 6, 48, 100
8, 80896, Note_off_c, 6, 48, 100
8, 80928, Note_on_c, 6, 48, 100
8, 80992, Note_off_c, 6, 48, 100
8, 81024, Note_on_c, 6, 48, 100
8, 81088, Note_off_c, 6, 48, 100
8, 81120, Note_on_c, 6, 48, 100
8, 81184, Note_off_c, 6, 48, 100
8, 81216, Note_on_c, 6, 48, 100
8, 81280, Note_off_c, 6, 48, 100
8, 81312, Note_on_c, 6, 48, 100
8, 81376, Note_off_c, 6, 48, 100
8, 81408, Note_on_c, 6, 50, 100
8, 81472, Note_off_c, 6, 50, 100
8, 81504, Note_on_c, 6, 50, 100
8, 81568, Note_off_c, 6, 50, 100
8, 81600, Note_on_c, 6, 50, 100
8, 81664, Note_off_c, 6, 50, 100
8, 81696, Note_on_c, 6, 48, 100
8, 81760, Note_off_c, 6, 48, 100
8, 81792, Note_on_c, 6, 50, 100
8, 81856, Note_off_c, 6, 50, 100
8, 82272, Note_on_c, 6, 47, 100
8, 82336, Note_off_c, 6, 47, 100
8, 82368, Note_on_c, 6, 47, 100
8, 82432, Note_off_c, 6, 47, 100
8, 82464, Note_on_c, 6, 45, 100
8, 82528, Note_off_c, 6, 45, 100
8, 82560, Note_on_c, 6, 47, 100
8, 82688, Note_off_c, 6, 47, 100
8, 82752, Note_on_c, 6, 50, 100
8, 82880, Note_off_c, 6, 50, 100
8, 82944, Note_on_c, 6, 45, 100
8, 83072, Note_off_c, 6, 45, 100
8, 83232, Note_on_c, 6, 45, 100
8, 83296, Note_off_c, 6, 45, 100
8, 83328, Note_on_c, 6, 48, 100
8, 83392, Note_off_c, 6, 48, 100
8, 83424, Note_on_c, 6, 45, 100
8, 83488, Note_off_c, 6, 45, 100
8, 83520, Note_on_c, 6, 52, 100
8, 83584, Note_off_c, 6, 52, 100
8, 83616, Note_on_c, 6, 45, 100
8, 83680, Note_off_c, 6, 45, 100
8, 83712, Note_on_c, 6, 48, 100
8, 83776, Note_off_c, 6, 48, 100
8, 83808, Note_on_c, 6, 43, 100
8, 83872, Note_off_c, 6, 43, 100
8, 84096, Note_on_c, 6, 43, 100
8, 84224, Note_off_c, 6, 43, 100
8, 84480, Note_on_c, 6, 45, 100
8, 84608, Note_off_c, 6, 45, 100
8, 84768, Note_on_c, 6, 45, 100
8, 84832, Note_off_c, 6, 45, 100
8, 84864, Note_on_c, 6, 48, 100
8, 84928, Note_off_c, 6, 48, 100
8, 84960, Note_on_c, 6, 45, 100
8, 85024, Note_off_c, 6, 45, 100
8, 85056, Note_on_c, 6, 52, 100
8, 85120, Note_off_c, 6, 52, 100
8, 85152, Note_on_c, 6, 45, 100
8, 85216, Note_off_c, 6, 45, 100
8, 85248, Note_on_c, 6, 48, 100
8, 85312, Note_off_c, 6, 48, 100
8, 85344, Note_on_c, 6, 43, 100
8, 85408, Note_off_c, 6, 43, 100
8, 85632, Note_on_c, 6, 43, 100
8, 85760, Note_off_c, 6, 43, 100
8, 86016, Note_on_c, 6, 45, 100
8, 86144, Note_off_c, 6, 45, 100
8, 86304, Note_on_c, 6, 45, 100
8, 86368, Note_off_c, 6, 45, 100
8, 86400, Note_on_c, 6, 48, 100
8, 86464, Note_off_c, 6, 48, 100
8, 86496, Note_on_c, 6, 45, 100
8, 86560, Note_off_c, 6, 45, 100
8, 86592, Note_on_c, 6, 52, 100
8, 86656, Note_off_c, 6, 52, 100
8, 86688, Note_on_c, 6, 45, 100
8, 86752, Note_off_c, 6, 45, 100
8, 86784, Note_on_c, 6, 48, 100
8, 86848, Note_off_c, 6, 48, 100
8, 86880, Note_on_c, 6, 43, 100
8, 86944, Note_off_c, 6, 43, 100
8, 87168, Note_on_c, 6, 43, 100
8, 87296, Note_off_c, 6, 43, 100
8, 87552, Note_on_c, 6, 45, 100
8, 87680, Note_off_c, 6, 45, 100
8, 87840, Note_on_c, 6, 45, 100
8, 87904, Note_off_c, 6, 45, 100
8, 87936, Note_on_c, 6, 48, 100
8, 88000, Note_off_c, 6, 48, 100
8, 88032, Note_on_c, 6, 45, 100
8, 88096, Note_off_c, 6, 45, 100
8, 88128, Note_on_c, 6, 52, 100
8, 88192, Note_off_c, 6, 52, 100
8, 88224, Note_on_c, 6, 45, 100
8, 88288, Note_off_c, 6, 45, 100
8, 88320, Note_on_c, 6, 48, 100
8, 88384, Note_off_c, 6, 48, 100
8, 88416, Note_on_c, 6, 43, 100
8, 88480, Note_off_c, 6, 43, 100
8, 88704, Note_on_c, 6, 43, 100
8, 88832, Note_off_c, 6, 43, 100
8, 89088, Note_on_c, 6, 46, 100
8, 89216, Note_off_c, 6, 46, 100
8, 89376, Note_on_c, 6, 46, 100
8, 89440, Note_off_c, 6, 46, 100
8, 89472, Note_on_c, 6, 49, 100
8, 89536, Note_off_c, 6, 49, 100
8, 89568, Note_on_c, 6, 46, 100
8, 89632, Note_off_c, 6, 46, 100
8, 89664, Note_on_c, 6, 53, 100
8, 89728, Note_off_c, 6, 53, 100
8, 89760, Note_on_c, 6, 46, 100
8, 89824, Note_off_c, 6, 46, 100
8, 89856, Note_on_c, 6, 49, 100
8, 89920, Note_off_c, 6, 49, 100
8, 89952, Note_on_c, 6, 44, 100
8, 90016, Note_off_c, 6, 44, 100
8, 90240, Note_on_c, 6, 44, 100
8, 90368, Note_off_c, 6, 44, 100
8, 90624, Note_on_c, 6, 46, 100
8, 90752, Note_off_c, 6, 46, 100
8, 90912, Note_on_c, 6, 46, 100
8, 90976, Note_off_c, 6, 46, 100
8, 91008, Note_on_c, 6, 49, 100
8, 91072, Note_off_c, 6, 49, 100
8, 91104, Note_on_c, 6, 46, 100
8, 91168, Note_off_c, 6, 46, 100
8, 91200, Note_on_c, 6, 53, 100
8, 91264, Note_off_c, 6, 53, 100
8, 91296, Note_on_c, 6, 46, 100
8, 91360, Note_off_c, 6, 46, 100
8, 91392, Note_on_c, 6, 49, 100
8, 91456, Note_off_c, 6, 49, 100
8, 91488, Note_on_c, 6, 44, 100
8, 91552, Note_off_c, 6, 44, 100
8, 91776, Note_on_c, 6, 44, 100
8, 91904, Note_off_c, 6, 44, 100
8, 92160, Note_on_c, 6, 46, 100
8, 92288, Note_off_c, 6, 46, 100
8, 92448, Note_on_c, 6, 46, 100
8, 92512, Note_off_c, 6, 46, 100
8, 92544, Note_on_c, 6, 49, 100
8, 92608, Note_off_c, 6, 49, 100
8, 92640, Note_on_c, 6, 46, 100
8, 92704, Note_off_c, 6, 46, 100
8, 92736, Note_on_c, 6, 53, 100
8, 92800, Note_off_c, 6, 53, 100
8, 92832, Note_on_c, 6, 46, 100
8, 92896, Note_off_c, 6, 46, 100
8, 92928, Note_on_c, 6, 49, 100
8, 92992, Note_off_c, 6, 49, 100
8, 93024, Note_on_c, 6, 44, 100
8, 93088, Note_off_c, 6, 44, 100
8, 93312, Note_on_c, 6, 44, 100
8, 93440, Note_off_c, 6, 44, 100
8, 93696, Note_on_c, 6, 48, 100
8, 93760, Note_off_c, 6, 48, 100
8, 93792, Note_on_c, 6, 48, 100
8, 93856, Note_off_c, 6, 48, 100
8, 93888, Note_on_c, 6, 48, 100
8, 93952, Note_off_c, 6, 48, 100
8, 93984, Note_on_c, 6, 48, 100
8, 94048, Note_off_c, 6, 48, 100
8, 94080, Note_on_c, 6, 48, 100
8, 94144, Note_off_c, 6, 48, 100
8, 94176, Note_on_c, 6, 48, 100
8, 94240, Note_off_c, 6, 48, 100
8, 94272, Note_on_c, 6, 48, 100
8, 94336, Note_off_c, 6, 48, 100
8, 94368, Note_on_c, 6, 48, 100
8, 94432, Note_off_c, 6, 48, 100
8, 94464, Note_on_c, 6, 50, 100
8, 94528, Note_off_c, 6, 50, 100
8, 94560, Note_on_c, 6, 50, 100
8, 94624, Note_off_c, 6, 50, 100
8, 94656, Note_on_c, 6, 50, 100
8, 94720, Note_off_c, 6, 50, 100
8, 94752, Note_on_c, 6, 48, 100
8, 94816, Note_off_c, 6, 48, 100
8, 94848, Note_on_c, 6, 50, 100
8, 94912, Note_off_c, 6, 50, 100
8, 95328, Note_on_c, 6, 47, 100
8, 95392, Note_off_c, 6, 47, 100
8, 95424, Note_on_c, 6, 47, 100
8, 95488, Note_off_c, 6, 47, 100
8, 95520, Note_on_c, 6, 45, 100
8, 95584, Note_off_c, 6, 45, 100
8, 95616, Note_on_c, 6, 47, 100
8, 95744, Note_off_c, 6, 47, 100
8, 95808, Note_on_c, 6, 50, 100
8, 95936, Note_off_c, 6, 50, 100
8, 96000, Note_on_c, 6, 52, 100
8, 96192, Note_off_c, 6, 52, 100
8, 96288, Note_on_c, 6, 52, 100
8, 96352, Note_off_c, 6, 52, 100
8, 96384, Note_on_c, 6, 52, 100
8, 96512, Note_off_c, 6, 52, 100
8, 96864, Note_on_c, 6, 52, 100
8, 96928, Note_off_c, 6, 52, 100
8, 96960, Note_on_c, 6, 55, 100
8, 97024, Note_off_c, 6, 55, 100
8, 97056, Note_on_c, 6, 52, 100
8, 97120, Note_off_c, 6, 52, 100
8, 97152, Note_on_c, 6, 59, 100
8, 97216, Note_off_c, 6, 59, 100
8, 97248, Note_on_c, 6, 52, 100
8, 97312, Note_off_c, 6, 52, 100
8, 97344, Note_on_c, 6, 55, 100
8, 97408, Note_off_c, 6, 55, 100
8, 97440, Note_on_c, 6, 52, 100
8, 97504, Note_off_c, 6, 52, 100
8, 97536, Note_on_c, 6, 53, 100
8, 97728, Note_off_c, 6, 53, 100
8, 97824, Note_on_c, 6, 53, 100
8, 97888, Note_off_c, 6, 53, 100
8, 97920, Note_on_c, 6, 53, 100
8, 98048, Note_off_c, 6, 53, 100
8, 98688, Note_on_c, 6, 53, 100
8, 98752, Note_off_c, 6, 53, 100
8, 98784, Note_on_c, 6, 55, 100
8, 98848, Note_off_c, 6, 55, 100
8, 98880, Note_on_c, 6, 57, 100
8, 98944, Note_off_c, 6, 57, 100
8, 98976, Note_on_c, 6, 60, 100
8, 99040, Note_off_c, 6, 60, 100
8, 99072, Note_on_c, 6, 55, 100
8, 99264, Note_off_c, 6, 55, 100
8, 99360, Note_on_c, 6, 55, 100
8, 99424, Note_off_c, 6, 55, 100
8, 99456, Note_on_c, 6, 55, 100
8, 99584, Note_off_c, 6, 55, 100
8, 100032, Note_on_c, 6, 60, 100
8, 100096, Note_off_c, 6, 60, 100
8, 100128, Note_on_c, 6, 59, 100
8, 100192, Note_off_c, 6, 59, 100
8, 100224, Note_on_c, 6, 60, 100
8, 100288, Note_off_c, 6, 60, 100
8, 100320, Note_on_c, 6, 59, 100
8, 100384, Note_off_c, 6, 59, 100
8, 100416, Note_on_c, 6, 55, 100
8, 100544, Note_off_c, 6, 55, 100
8, 100608, Note_on_c, 6, 57, 100
8, 100800, Note_off_c, 6, 57, 100
8, 100896, Note_on_c, 6, 57, 100
8, 100960, Note_off_c, 6, 57, 100
8, 100992, Note_on_c, 6, 57, 100
8, 101120, Note_off_c, 6, 57, 100
8, 101184, Note_on_c, 6, 57, 100
8, 101248, Note_off_c, 6, 57, 100
8, 101280, Note_on_c, 6, 60, 100
8, 101408, Note_off_c, 6, 60, 100
8, 101472, Note_on_c, 6, 57, 100
8, 101536, Note_off_c, 6, 57, 100
8, 101568, Note_on_c, 6, 64, 100
8, 101696, Note_off_c, 6, 64, 100
8, 101760, Note_on_c, 6, 57, 100
8, 101824, Note_off_c, 6, 57, 100
8, 101856, Note_on_c, 6, 60, 100
8, 101920, Note_off_c, 6, 60, 100
8, 101952, Note_on_c, 6, 55, 100
8, 102080, Note_off_c, 6, 55, 100
8, 102144, Note_on_c, 6, 52, 100
8, 102336, Note_off_c, 6, 52, 100
8, 102432, Note_on_c, 6, 52, 100
8, 102496, Note_off_c, 6, 52, 100
8, 102528, Note_on_c, 6, 52, 100
8, 102656, Note_off_c, 6, 52, 100
8, 103008, Note_on_c, 6, 52, 100
8, 103072, Note_off_c, 6, 52, 100
8, 103104, Note_on_c, 6, 55, 100
8, 103168, Note_off_c, 6, 55, 100
8, 103200, Note_on_c, 6, 52, 100
8, 103264, Note_off_c, 6, 52, 100
8, 103296, Note_on_c, 6, 59, 100
8, 103360, Note_off_c, 6, 59, 100
8, 103392, Note_on_c, 6, 52, 100
8, 103456, Note_off_c, 6, 52, 100
8, 103488, Note_on_c, 6, 55, 100
8, 103552, Note_off_c, 6, 55, 100
8, 103584, Note_on_c, 6, 52, 100
8, 103648, Note_off_c, 6, 52, 100
8, 103680, Note_on_c, 6, 53, 100
8, 103872, Note_off_c, 6, 53, 100
8, 103968, Note_on_c, 6, 53, 100
8, 104032, Note_off_c, 6, 53, 100
8, 104064, Note_on_c, 6, 53, 100
8, 104192, Note_off_c, 6, 53, 100
8, 104832, Note_on_c, 6, 53, 100
8, 104896, Note_off_c, 6, 53, 100
8, 104928, Note_on_c, 6, 55, 100
8, 104992, Note_off_c, 6, 55, 100
8, 105024, Note_on_c, 6, 57, 100
8, 105088, Note_off_c, 6, 57, 100
8, 105120, Note_on_c, 6, 60, 100
8, 105184, Note_off_c, 6, 60, 100
8, 105216, Note_on_c, 6, 55, 100
8, 105408, Note_off_c, 6, 55, 100
8, 105504, Note_on_c, 6, 55, 100
8, 105568, Note_off_c, 6, 55, 100
8, 105600, Note_on_c, 6, 55, 100
8, 105728, Note_off_c, 6, 55, 100
8, 106176, Note_on_c, 6, 60, 100
8, 106240, Note_off_c, 6, 60, 100
8, 106272, Note_on_c, 6, 59, 100
8, 106336, Note_off_c, 6, 59, 100
8, 106368, Note_on_c, 6, 60, 100
8, 106432, Note_off_c, 6, 60, 100
8, 106464, Note_on_c, 6, 59, 100
8, 106528, Note_off_c, 6, 59, 100
8, 106560, Note_on_c, 6, 55, 100
8, 106688, Note_off_c, 6, 55, 100
8, 106752, Note_on_c, 6, 57, 100
8, 106944, Note_off_c, 6, 57, 100
8, 107040, Note_on_c, 6, 57, 100
8, 107104, Note_off_c, 6, 57, 100
8, 107136, Note_on_c, 6, 57, 100
8, 107264, Note_off_c, 6, 57, 100
8, 107328, Note_on_c, 6, 57, 100
8, 107392, Note_off_c, 6, 57, 100
8, 107424, Note_on_c, 6, 60, 100
8, 107552, Note_off_c, 6, 60, 100
8, 107616, Note_on_c, 6, 57, 100
8, 107680, Note_off_c, 6, 57, 100
8, 107712, Note_on_c, 6, 64, 100
8, 107840, Note_off_c, 6, 64, 100
8, 107904, Note_on_c, 6, 57, 100
8, 107968, Note_off_c, 6, 57, 100
8, 108000, Note_on_c, 6, 60, 100
8, 108064, Note_off_c, 6, 60, 100
8, 108096, Note_on_c, 6, 55, 100
8, 108224, Note_off_c, 6, 55, 100
8, 108288, Note_on_c, 6, 45, 100
8, 108416, Note_off_c, 6, 45, 100
8, 108576, Note_on_c, 6, 45, 100
8, 108640, Note_off_c, 6, 45, 100
8, 108672, Note_on_c, 6, 48, 100
8, 108736, Note_off_c, 6, 48, 100
8, 108768, Note_on_c, 6, 45, 100
8, 108832, Note_off_c, 6, 45, 100
8, 108864, Note_on_c, 6, 52, 100
8, 108928, Note_off_c, 6, 52, 100
8, 108960, Note_on_c, 6, 45, 100
8, 109024, Note_off_c, 6, 45, 100
8, 109056, Note_on_c, 6, 48, 100
8, 109120, Note_off_c, 6, 48, 100
8, 109152, Note_on_c, 6, 43, 100
8, 109216, Note_off_c, 6, 43, 100
8, 109440, Note_on_c, 6, 43, 100
8, 109568, Note_off_c, 6, 43, 100
8, 109824, Note_on_c, 6, 45, 100
8, 109952, Note_off_c, 6, 45, 100
8, 110112, Note_on_c, 6, 45, 100
8, 110176, Note_off_c, 6, 45, 100
8, 110208, Note_on_c, 6, 48, 100
8, 110272, Note_off_c, 6, 48, 100
8, 110304, Note_on_c, 6, 45, 100
8, 110368, Note_off_c, 6, 45, 100
8, 110400, Note_on_c, 6, 52, 100
8, 110464, Note_off_c, 6, 52, 100
8, 110496, Note_on_c, 6, 45, 100
8, 110560, Note_off_c, 6, 45, 100
8, 110592, Note_on_c, 6, 48, 100
8, 110656, Note_off_c, 6, 48, 100
8, 110688, Note_on_c, 6, 43, 100
8, 110752, Note_off_c, 6, 43, 100
8, 110976, Note_on_c, 6, 43, 100
8, 111104, Note_off_c, 6, 43, 100
8, 111360, Note_on_c, 6, 45, 100
8, 111488, Note_off_c, 6, 45, 100
8, 111648, Note_on_c, 6, 45, 100
8, 111712, Note_off_c, 6, 45, 100
8, 111744, Note_on_c, 6, 48, 100
8, 111808, Note_off_c, 6, 48, 100
8, 111840, Note_on_c, 6, 45, 100
8, 111904, Note_off_c, 6, 45, 100
8, 111936, Note_on_c, 6, 52, 100
8, 112000, Note_off_c, 6, 52, 100
8, 112032, Note_on_c, 6, 45, 100
8, 112096, Note_off_c, 6, 45, 100
8, 112128, Note_on_c, 6, 48, 100
8, 112192, Note_off_c, 6, 48, 100
8, 112224, Note_on_c, 6, 43, 100
8, 112288, Note_off_c, 6, 43, 100
8, 112512, Note_on_c, 6, 43, 100
8, 112640, Note_off_c, 6, 43, 100
8, 112896, Note_on_c, 6, 45, 100
8, 113024, Note_off_c, 6, 45, 100
8, 113184, Note_on_c, 6, 45, 100
8, 113248, Note_off_c, 6, 45, 100
8, 113280, Note_on_c, 6, 48, 100
8, 113344, Note_off_c, 6, 48, 100
8, 113376, Note_on_c, 6, 45, 100
8, 113440, Note_off_c, 6, 45, 100
8, 113472, Note_on_c, 6, 52, 100
8, 113536, Note_off_c, 6, 52, 100
8, 113568, Note_on_c, 6, 45, 100
8, 113632, Note_off_c, 6, 45, 100
8, 113664, Note_on_c, 6, 48, 100
8, 113728, Note_off_c, 6, 48, 100
8, 113760, Note_on_c, 6, 43, 100
8, 113824, Note_off_c, 6, 43, 100
8, 114048, Note_on_c, 6, 43, 100
8, 114176, Note_off_c, 6, 43, 100
8, 114432, Note_on_c, 6, 46, 100
8, 114560, Note_off_c, 6, 46, 100
8, 114720, Note_on_c, 6, 46, 100
8, 114784, Note_off_c, 6, 46, 100
8, 114816, Note_on_c, 6, 49, 100
8, 114880, Note_off_c, 6, 49, 100
8, 114912, Note_on_c, 6, 46, 100
8, 114976, Note_off_c, 6, 46, 100
8, 115008, Note_on_c, 6, 53, 100
8, 115072, Note_off_c, 6, 53, 100
8, 115104, Note_on_c, 6, 46, 100
8, 115168, Note_off_c, 6, 46, 100
8, 115200, Note_on_c, 6, 49, 100
8, 115264, Note_off_c, 6, 49, 100
8, 115296, Note_on_c, 6, 44, 100
8, 115360, Note_off_c, 6, 44, 100
8, 115584, Note_on_c, 6, 44, 100
8, 115712, Note_off_c, 6, 44, 100
8, 115968, Note_on_c, 6, 46, 100
8, 116096, Note_off_c, 6, 46, 100
8, 116256, Note_on_c, 6, 46, 100
8, 116320, Note_off_c, 6, 46, 100
8, 116352, Note_on_c, 6, 49, 100
8, 116416, Note_off_c, 6, 49, 100
8, 116448, Note_on_c, 6, 46, 100
8, 116512, Note_off_c, 6, 46, 100
8, 116544, Note_on_c, 6, 53, 100
8, 116608, Note_off_c, 6, 53, 100
8, 116640, Note_on_c, 6, 46, 100
8, 116704, Note_off_c, 6, 46, 100
8, 116736, Note_on_c, 6, 49, 100
8, 116800, Note_off_c, 6, 49, 100
8, 116832, Note_on_c, 6, 44, 100
8, 116896, Note_off_c, 6, 44, 100
8, 117120, Note_on_c, 6, 44, 100
8, 117248, Note_off_c, 6, 44, 100
8, 117504, Note_on_c, 6, 46, 100
8, 117632, Note_off_c, 6, 46, 100
8, 117792, Note_on_c, 6, 46, 100
8, 117856, Note_off_c, 6, 46, 100
8, 117888, Note_on_c, 6, 49, 100
8, 117952, Note_off_c, 6, 49, 100
8, 117984, Note_on_c, 6, 46, 100
8, 118048, Note_off_c, 6, 46, 100
8, 118080, Note_on_c, 6, 53, 100
8, 118144, Note_off_c, 6, 53, 100
8, 118176, Note_on_c, 6, 46, 100
8, 118240, Note_off_c, 6, 46, 100
8, 118272, Note_on_c, 6, 49, 100
8, 118336, Note_off_c, 6, 49, 100
8, 118368, Note_on_c, 6, 44, 100
8, 118432, Note_off_c, 6, 44, 100
8, 118656, Note_on_c, 6, 44, 100
8, 118784, Note_off_c, 6, 44, 100
8, 119040, Note_on_c, 6, 48, 100
8, 119104, Note_off_c, 6, 48, 100
8, 119136, Note_on_c, 6, 48, 100
8, 119200, Note_off_c, 6, 48, 100
8, 119232, Note_on_c, 6, 48, 100
8, 119296, Note_off_c, 6, 48, 100
8, 119328, Note_on_c, 6, 48, 100
8, 119392, Note_off_c, 6, 48, 100
8, 119424, Note_on_c, 6, 48, 100
8, 119488, Note_off_c, 6, 48, 100
8, 119520, Note_on_c, 6, 48, 100
8, 119584, Note_off_c, 6, 48, 100
8, 119616, Note_on_c, 6, 48, 100
8, 119680, Note_off_c, 6, 48, 100
8, 119712, Note_on_c, 6, 48, 100
8, 119776, Note_off_c, 6, 48, 100
8, 119808, Note_on_c, 6, 50, 100
8, 119872, Note_off_c, 6, 50, 100
8, 119904, Note_on_c, 6, 50, 100
8, 119968, Note_off_c, 6, 50, 100
8, 120000, Note_on_c, 6, 50, 100
8, 120064, Note_off_c, 6, 50, 100
8, 120096, Note_on_c, 6, 48, 100
8, 120160, Note_off_c, 6, 48, 100
8, 120192, Note_on_c, 6, 50, 100
8, 120256, Note_off_c, 6, 50, 100
8, 120672, Note_on_c, 6, 47, 100
8, 120736, Note_off_c, 6, 47, 100
8, 120768, Note_on_c, 6, 47, 100
8, 120832, Note_off_c, 6, 47, 100
8, 120864, Note_on_c, 6, 45, 100
8, 120928, Note_off_c, 6, 45, 100
8, 120960, Note_on_c, 6, 47, 100
8, 121088, Note_off_c, 6, 47, 100
8, 121152, Note_on_c, 6, 50, 100
8, 121280, Note_off_c, 6, 50, 100
8, 121280, End_track
9, 0, Start_track
9, 0, Control_c, 7, 0, 0
9, 0, Program_c, 7, 32
9, 1536, Note_on_c, 7, 47, 100
9, 1664, Note_off_c, 7, 47, 100
9, 1728, Note_on_c, 7, 47, 100
9, 1856, Note_off_c, 7, 47, 100
9, 1920, Note_on_c, 7, 47, 100
9, 2048, Note_off_c, 7, 47, 100
9, 2112, Note_on_c, 7, 47, 100
9, 2240, Note_off_c, 7, 47, 100
9, 2304, Note_on_c, 7, 47, 100
9, 2432, Note_off_c, 7, 47, 100
9, 2496, Note_on_c, 7, 47, 100
9, 2624, Note_off_c, 7, 47, 100
9, 2688, Note_on_c, 7, 47, 100
9, 2816, Note_off_c, 7, 47, 100
9, 2880, Note_on_c, 7, 47, 100
9, 3008, Note_off_c, 7, 47, 100
9, 3072, Note_on_c, 7, 47, 100
9, 3200, Note_off_c, 7, 47, 100
9, 3264, Note_on_c, 7, 47, 100
9, 3392, Note_off_c, 7, 47, 100
9, 3456, Note_on_c, 7, 47, 100
9, 3584, Note_off_c, 7, 47, 100
9, 3648, Note_on_c, 7, 47, 100
9, 3776, Note_off_c, 7, 47, 100
9, 3840, Note_on_c, 7, 47, 100
9, 3968, Note_off_c, 7, 47, 100
9, 4032, Note_on_c, 7, 47, 100
9, 4160, Note_off_c, 7, 47, 100
9, 4224, Note_on_c, 7, 47, 100
9, 4352, Note_off_c, 7, 47, 100
9, 4416, Note_on_c, 7, 47, 100
9, 4544, Note_off_c, 7, 47, 100
9, 4608, Note_on_c, 7, 48, 100
9, 4736, Note_off_c, 7, 48, 100
9, 4800, Note_on_c, 7, 48, 100
9, 4928, Note_off_c, 7, 48, 100
9, 4992, Note_on_c, 7, 48, 100
9, 5120, Note_off_c, 7, 48, 100
9, 5184, Note_on_c, 7, 48, 100
9, 5312, Note_off_c, 7, 48, 100
9, 5376, Note_on_c, 7, 48, 100
9, 5504, Note_off_c, 7, 48, 100
9, 5568, Note_on_c, 7, 48, 100
9, 5696, Note_off_c, 7, 48, 100
9, 5760, Note_on_c, 7, 48, 100
9, 5888, Note_off_c, 7, 48, 100
9, 5952, Note_on_c, 7, 48, 100
9, 6080, Note_off_c, 7, 48, 100
9, 6144, Note_on_c, 7, 48, 100
9, 6272, Note_off_c, 7, 48, 100
9, 6336, Note_on_c, 7, 48, 100
9, 6464, Note_off_c, 7, 48, 100
9, 6528, Note_on_c, 7, 48, 100
9, 6656, Note_off_c, 7, 48, 100
9, 6720, Note_on_c, 7, 48, 100
9, 6848, Note_off_c, 7, 48, 100
9, 6912, Note_on_c, 7, 48, 100
9, 7040, Note_off_c, 7, 48, 100
9, 7104, Note_on_c, 7, 48, 100
9, 7232, Note_off_c, 7, 48, 100
9, 7296, Note_on_c, 7, 48, 100
9, 7424, Note_off_c, 7, 48, 100
9, 7488, Note_on_c, 7, 48, 100
9, 7616, Note_off_c, 7, 48, 100
9, 7680, Note_on_c, 7, 50, 100
9, 7808, Note_off_c, 7, 50, 100
9, 7872, Note_on_c, 7, 50, 100
9, 8000, Note_off_c, 7, 50, 100
9, 8064, Note_on_c, 7, 50, 100
9, 8192, Note_off_c, 7, 50, 100
9, 8256, Note_on_c, 7, 50, 100
9, 8384, Note_off_c, 7, 50, 100
9, 8448, Note_on_c, 7, 50, 100
9, 8576, Note_off_c, 7, 50, 100
9, 8640, Note_on_c, 7, 50, 100
9, 8768, Note_off_c, 7, 50, 100
9, 8832, Note_on_c, 7, 50, 100
9, 8960, Note_off_c, 7, 50, 100
9, 9024, Note_on_c, 7, 50, 100
9, 9152, Note_off_c, 7, 50, 100
9, 9216, Note_on_c, 7, 50, 100
9, 9344, Note_off_c, 7, 50, 100
9, 9408, Note_on_c, 7, 50, 100
9, 9536, Note_off_c, 7, 50, 100
9, 9600, Note_on_c, 7, 50, 100
9, 9728, Note_off_c, 7, 50, 100
9, 9792, Note_on_c, 7, 50, 100
9, 9920, Note_off_c, 7, 50, 100
9, 9984, Note_on_c, 7, 50, 100
9, 10112, Note_off_c, 7, 50, 100
9, 10176, Note_on_c, 7, 50, 100
9, 10304, Note_off_c, 7, 50, 100
9, 10368, Note_on_c, 7, 50, 100
9, 10496, Note_off_c, 7, 50, 100
9, 10560, Note_on_c, 7, 50, 100
9, 10688, Note_off_c, 7, 50, 100
9, 10752, Note_on_c, 7, 52, 100
9, 10880, Note_off_c, 7, 52, 100
9, 10944, Note_on_c, 7, 52, 100
9, 11072, Note_off_c, 7, 52, 100
9, 11136, Note_on_c, 7, 52, 100
9, 11264, Note_off_c, 7, 52, 100
9, 11328, Note_on_c, 7, 52, 100
9, 11456, Note_off_c, 7, 52, 100
9, 11520, Note_on_c, 7, 52, 100
9, 11648, Note_off_c, 7, 52, 100
9, 11712, Note_on_c, 7, 52, 100
9, 11840, Note_off_c, 7, 52, 100
9, 11904, Note_on_c, 7, 52, 100
9, 12032, Note_off_c, 7, 52, 100
9, 12096, Note_on_c, 7, 52, 100
9, 12224, Note_off_c, 7, 52, 100
9, 12288, Note_on_c, 7, 53, 100
9, 12416, Note_off_c, 7, 53, 100
9, 12480, Note_on_c, 7, 53, 100
9, 12608, Note_off_c, 7, 53, 100
9, 12672, Note_on_c, 7, 53, 100
9, 12800, Note_off_c, 7, 53, 100
9, 12864, Note_on_c, 7, 53, 100
9, 12992, Note_off_c, 7, 53, 100
9, 13056, Note_on_c, 7, 53, 100
9, 13184, Note_off_c, 7, 53, 100
9, 13248, Note_on_c, 7, 53, 100
9, 13376, Note_off_c, 7, 53, 100
9, 13440, Note_on_c, 7, 53, 100
9, 13568, Note_off_c, 7, 53, 100
9, 13632, Note_on_c, 7, 53, 100
9, 13760, Note_off_c, 7, 53, 100
9, 13824, Note_on_c, 7, 40, 100
9, 13952, Note_off_c, 7, 40, 100
9, 14112, Note_on_c, 7, 35, 100
9, 14176, Note_off_c, 7, 35, 100
9, 14208, Note_on_c, 7, 40, 100
9, 14336, Note_off_c, 7, 40, 100
9, 14496, Note_on_c, 7, 35, 100
9, 14560, Note_off_c, 7, 35, 100
9, 14592, Note_on_c, 7, 40, 100
9, 14720, Note_off_c, 7, 40, 100
9, 14880, Note_on_c, 7, 35, 100
9, 14944, Note_off_c, 7, 35, 100
9, 14976, Note_on_c, 7, 40, 100
9, 15104, Note_off_c, 7, 40, 100
9, 15168, Note_on_c, 7, 40, 100
9, 15296, Note_off_c, 7, 40, 100
9, 15360, Note_on_c, 7, 46, 100
9, 15488, Note_off_c, 7, 46, 100
9, 15648, Note_on_c, 7, 41, 100
9, 15712, Note_off_c, 7, 41, 100
9, 15744, Note_on_c, 7, 46, 100
9, 15872, Note_off_c, 7, 46, 100
9, 16032, Note_on_c, 7, 41, 100
9, 16096, Note_off_c, 7, 41, 100
9, 16128, Note_on_c, 7, 46, 100
9, 16256, Note_off_c, 7, 46, 100
9, 16416, Note_on_c, 7, 41, 100
9, 16480, Note_off_c, 7, 41, 100
9, 16512, Note_on_c, 7, 46, 100
9, 16640, Note_off_c, 7, 46, 100
9, 16704, Note_on_c, 7, 46, 100
9, 16832, Note_off_c, 7, 46, 100
9, 16896, Note_on_c, 7, 40, 100
9, 17024, Note_off_c, 7, 40, 100
9, 17184, Note_on_c, 7, 35, 100
9, 17248, Note_off_c, 7, 35, 100
9, 17280, Note_on_c, 7, 40, 100
9, 17408, Note_off_c, 7, 40, 100
9, 17568, Note_on_c, 7, 35, 100
9, 17632, Note_off_c, 7, 35, 100
9, 17664, Note_on_c, 7, 40, 100
9, 17792, Note_off_c, 7, 40, 100
9, 17952, Note_on_c, 7, 35, 100
9, 18016, Note_off_c, 7, 35, 100
9, 18048, Note_on_c, 7, 40, 100
9, 18176, Note_off_c, 7, 40, 100
9, 18240, Note_on_c, 7, 40, 100
9, 18368, Note_off_c, 7, 40, 100
9, 18432, Note_on_c, 7, 46, 100
9, 18560, Note_off_c, 7, 46, 100
9, 18720, Note_on_c, 7, 41, 100
9, 18784, Note_off_c, 7, 41, 100
9, 18816, Note_on_c, 7, 46, 100
9, 18944, Note_off_c, 7, 46, 100
9, 19104, Note_on_c, 7, 41, 100
9, 19168, Note_off_c, 7, 41, 100
9, 19200, Note_on_c, 7, 46, 100
9, 19328, Note_off_c, 7, 46, 100
9, 19488, Note_on_c, 7, 41, 100
9, 19552, Note_off_c, 7, 41, 100
9, 19584, Note_on_c, 7, 46, 100
9, 19712, Note_off_c, 7, 46, 100
9, 19776, Note_on_c, 7, 46, 100
9, 19904, Note_off_c, 7, 46, 100
9, 19968, Note_on_c, 7, 48, 100
9, 20096, Note_off_c, 7, 48, 100
9, 20256, Note_on_c, 7, 43, 100
9, 20320, Note_off_c, 7, 43, 100
9, 20352, Note_on_c, 7, 48, 100
9, 20480, Note_off_c, 7, 48, 100
9, 20640, Note_on_c, 7, 43, 100
9, 20704, Note_off_c, 7, 43, 100
9, 20736, Note_on_c, 7, 48, 100
9, 20864, Note_off_c, 7, 48, 100
9, 21024, Note_on_c, 7, 43, 100
9, 21088, Note_off_c, 7, 43, 100
9, 21120, Note_on_c, 7, 48, 100
9, 21248, Note_off_c, 7, 48, 100
9, 21312, Note_on_c, 7, 48, 100
9, 21440, Note_off_c, 7, 48, 100
9, 21504, Note_on_c, 7, 44, 100
9, 21632, Note_off_c, 7, 44, 100
9, 21792, Note_on_c, 7, 39, 100
9, 21856, Note_off_c, 7, 39, 100
9, 21888, Note_on_c, 7, 44, 100
9, 22016, Note_off_c, 7, 44, 100
9, 22176, Note_on_c, 7, 39, 100
9, 22240, Note_off_c, 7, 39, 100
9, 22272, Note_on_c, 7, 44, 100
9, 22400, Note_off_c, 7, 44, 100
9, 22560, Note_on_c, 7, 39, 100
9, 22624, Note_off_c, 7, 39, 100
9, 22656, Note_on_c, 7, 44, 100
9, 22784, Note_off_c, 7, 44, 100
9, 22848, Note_on_c, 7, 44, 100
9, 22976, Note_off_c, 7, 44, 100
9, 23040, Note_on_c, 7, 50, 100
9, 23168, Note_off_c, 7, 50, 100
9, 23328, Note_on_c, 7, 45, 100
9, 23392, Note_off_c, 7, 45, 100
9, 23424, Note_on_c, 7, 50, 100
9, 23552, Note_off_c, 7, 50, 100
9, 23712, Note_on_c, 7, 45, 100
9, 23776, Note_off_c, 7, 45, 100
9, 23808, Note_on_c, 7, 50, 100
9, 23936, Note_off_c, 7, 50, 100
9, 24096, Note_on_c, 7, 45, 100
9, 24160, Note_off_c, 7, 45, 100
9, 24192, Note_on_c, 7, 50, 100
9, 24320, Note_off_c, 7, 50, 100
9, 24384, Note_on_c, 7, 50, 100
9, 24512, Note_off_c, 7, 50, 100
9, 24576, Note_on_c, 7, 48, 100
9, 24704, Note_off_c, 7, 48, 100
9, 24864, Note_on_c, 7, 43, 100
9, 24928, Note_off_c, 7, 43, 100
9, 24960, Note_on_c, 7, 48, 100
9, 25088, Note_off_c, 7, 48, 100
9, 25248, Note_on_c, 7, 43, 100
9, 25312, Note_off_c, 7, 43, 100
9, 25344, Note_on_c, 7, 48, 100
9, 25472, Note_off_c, 7, 48, 100
9, 25632, Note_on_c, 7, 43, 100
9, 25696, Note_off_c, 7, 43, 100
9, 25728, Note_on_c, 7, 48, 100
9, 25856, Note_off_c, 7, 48, 100
9, 25920, Note_on_c, 7, 48, 100
9, 26048, Note_off_c, 7, 48, 100
9, 26112, Note_on_c, 7, 48, 100
9, 26240, Note_off_c, 7, 48, 100
9, 26400, Note_on_c, 7, 43, 100
9, 26464, Note_off_c, 7, 43, 100
9, 26496, Note_on_c, 7, 48, 100
9, 26624, Note_off_c, 7, 48, 100
9, 26784, Note_on_c, 7, 43, 100
9, 26848, Note_off_c, 7, 43, 100
9, 26880, Note_on_c, 7, 48, 100
9, 27008, Note_off_c, 7, 48, 100
9, 27168, Note_on_c, 7, 43, 100
9, 27232, Note_off_c, 7, 43, 100
9, 27264, Note_on_c, 7, 48, 100
9, 27392, Note_off_c, 7, 48, 100
9, 27456, Note_on_c, 7, 48, 100
9, 27584, Note_off_c, 7, 48, 100
9, 27648, Note_on_c, 7, 46, 100
9, 27776, Note_off_c, 7, 46, 100
9, 27936, Note_on_c, 7, 41, 100
9, 28000, Note_off_c, 7, 41, 100
9, 28032, Note_on_c, 7, 46, 100
9, 28160, Note_off_c, 7, 46, 100
9, 28320, Note_on_c, 7, 41, 100
9, 28384, Note_off_c, 7, 41, 100
9, 28416, Note_on_c, 7, 46, 100
9, 28544, Note_off_c, 7, 46, 100
9, 28704, Note_on_c, 7, 41, 100
9, 28768, Note_off_c, 7, 41, 100
9, 28800, Note_on_c, 7, 46, 100
9, 28928, Note_off_c, 7, 46, 100
9, 28992, Note_on_c, 7, 46, 100
9, 29120, Note_off_c, 7, 46, 100
9, 29184, Note_on_c, 7, 45, 100
9, 29440, Note_off_c, 7, 45, 100
9, 29568, Note_on_c, 7, 45, 100
9, 29824, Note_off_c, 7, 45, 100
9, 29952, Note_on_c, 7, 45, 100
9, 30208, Note_off_c, 7, 45, 100
9, 30336, Note_on_c, 7, 45, 100
9, 30528, Note_off_c, 7, 45, 100
9, 30624, Note_on_c, 7, 40, 100
9, 30688, Note_off_c, 7, 40, 100
9, 30720, Note_on_c, 7, 40, 100
9, 30976, Note_off_c, 7, 40, 100
9, 31104, Note_on_c, 7, 40, 100
9, 31360, Note_off_c, 7, 40, 100
9, 31488, Note_on_c, 7, 40, 100
9, 31744, Note_off_c, 7, 40, 100
9, 31872, Note_on_c, 7, 40, 100
9, 32128, Note_off_c, 7, 40, 100
9, 32256, Note_on_c, 7, 40, 100
9, 32448, Note_off_c, 7, 40, 100
9, 32544, Note_on_c, 7, 40, 100
9, 32608, Note_off_c, 7, 40, 100
9, 32640, Note_on_c, 7, 40, 100
9, 32768, Note_off_c, 7, 40, 100
9, 33792, Note_on_c, 7, 41, 100
9, 33984, Note_off_c, 7, 41, 100
9, 34080, Note_on_c, 7, 41, 100
9, 34144, Note_off_c, 7, 41, 100
9, 34176, Note_on_c, 7, 41, 100
9, 34304, Note_off_c, 7, 41, 100
9, 35328, Note_on_c, 7, 43, 100
9, 35520, Note_off_c, 7, 43, 100
9, 35616, Note_on_c, 7, 43, 100
9, 35680, Note_off_c, 7, 43, 100
9, 35712, Note_on_c, 7, 43, 100
9, 35840, Note_off_c, 7, 43, 100
9, 36864, Note_on_c, 7, 45, 100
9, 37056, Note_off_c, 7, 45, 100
9, 37152, Note_on_c, 7, 45, 100
9, 37216, Note_off_c, 7, 45, 100
9, 37248, Note_on_c, 7, 45, 100
9, 37376, Note_off_c, 7, 45, 100
9, 37440, Note_on_c, 7, 45, 100
9, 37504, Note_off_c, 7, 45, 100
9, 37536, Note_on_c, 7, 48, 100
9, 37664, Note_off_c, 7, 48, 100
9, 37728, Note_on_c, 7, 45, 100
9, 37792, Note_off_c, 7, 45, 100
9, 37824, Note_on_c, 7, 52, 100
9, 37952, Note_off_c, 7, 52, 100
9, 38016, Note_on_c, 7, 45, 100
9, 38080, Note_off_c, 7, 45, 100
9, 38112, Note_on_c, 7, 52, 100
9, 38176, Note_off_c, 7, 52, 100
9, 38208, Note_on_c, 7, 43, 100
9, 38336, Note_off_c, 7, 43, 100
9, 38400, Note_on_c, 7, 40, 100
9, 38592, Note_off_c, 7, 40, 100
9, 38688, Note_on_c, 7, 40, 100
9, 38752, Note_off_c, 7, 40, 100
9, 38784, Note_on_c, 7, 40, 100
9, 38912, Note_off_c, 7, 40, 100
9, 39936, Note_on_c, 7, 41, 100
9, 40128, Note_off_c, 7, 41, 100
9, 40224, Note_on_c, 7, 41, 100
9, 40288, Note_off_c, 7, 41, 100
9, 40320, Note_on_c, 7, 41, 100
9, 40448, Note_off_c, 7, 41, 100
9, 41472, Note_on_c, 7, 43, 100
9, 41664, Note_off_c, 7, 43, 100
9, 41760, Note_on_c, 7, 43, 100
9, 41824, Note_off_c, 7, 43, 100
9, 41856, Note_on_c, 7, 43, 100
9, 41984, Note_off_c, 7, 43, 100
9, 43008, Note_on_c, 7, 45, 100
9, 43200, Note_off_c, 7, 45, 100
9, 43296, Note_on_c, 7, 45, 100
9, 43360, Note_off_c, 7, 45, 100
9, 43392, Note_on_c, 7, 45, 100
9, 43520, Note_off_c, 7, 45, 100
9, 43584, Note_on_c, 7, 45, 100
9, 43648, Note_off_c, 7, 45, 100
9, 43680, Note_on_c, 7, 48, 100
9, 43808, Note_off_c, 7, 48, 100
9, 43872, Note_on_c, 7, 45, 100
9, 43936, Note_off_c, 7, 45, 100
9, 43968, Note_on_c, 7, 52, 100
9, 44096, Note_off_c, 7, 52, 100
9, 44160, Note_on_c, 7, 45, 100
9, 44224, Note_off_c, 7, 45, 100
9, 44256, Note_on_c, 7, 52, 100
9, 44320, Note_off_c, 7, 52, 100
9, 44352, Note_on_c, 7, 43, 100
9, 44480, Note_off_c, 7, 43, 100
9, 44544, Note_on_c, 7, 33, 100
9, 44672, Note_off_c, 7, 33, 100
9, 44832, Note_on_c, 7, 33, 100
9, 44896, Note_off_c, 7, 33, 100
9, 44928, Note_on_c, 7, 36, 100
9, 44992, Note_off_c, 7, 36, 100
9, 45024, Note_on_c, 7, 33, 100
9, 45088, Note_off_c, 7, 33, 100
9, 45120, Note_on_c, 7, 40, 100
9, 45184, Note_off_c, 7, 40, 100
9, 45216, Note_on_c, 7, 33, 100
9, 45280, Note_off_c, 7, 33, 100
9, 45312, Note_on_c, 7, 36, 100
9, 45376, Note_off_c, 7, 36, 100
9, 45408, Note_on_c, 7, 31, 100
9, 45472, Note_off_c, 7, 31, 100
9, 45696, Note_on_c, 7, 31, 100
9, 45824, Note_off_c, 7, 31, 100
9, 46080, Note_on_c, 7, 33, 100
9, 46208, Note_off_c, 7, 33, 100
9, 46368, Note_on_c, 7, 33, 100
9, 46432, Note_off_c, 7, 33, 100
9, 46464, Note_on_c, 7, 36, 100
9, 46528, Note_off_c, 7, 36, 100
9, 46560, Note_on_c, 7, 33, 100
9, 46624, Note_off_c, 7, 33, 100
9, 46656, Note_on_c, 7, 40, 100
9, 46720, Note_off_c, 7, 40, 100
9, 46752, Note_on_c, 7, 33, 100
9, 46816, Note_off_c, 7, 33, 100
9, 46848, Note_on_c, 7, 36, 100
9, 46912, Note_off_c, 7, 36, 100
9, 46944, Note_on_c, 7, 31, 100
9, 47008, Note_off_c, 7, 31, 100
9, 47232, Note_on_c, 7, 31, 100
9, 47360, Note_off_c, 7, 31, 100
9, 47616, Note_on_c, 7, 33, 100
9, 47744, Note_off_c, 7, 33, 100
9, 47904, Note_on_c, 7, 33, 100
9, 47968, Note_off_c, 7, 33, 100
9, 48000, Note_on_c, 7, 36, 100
9, 48064, Note_off_c, 7, 36, 100
9, 48096, Note_on_c, 7, 33, 100
9, 48160, Note_off_c, 7, 33, 100
9, 48192, Note_on_c, 7, 40, 100
9, 48256, Note_off_c, 7, 40, 100
9, 48288, Note_on_c, 7, 33, 100
9, 48352, Note_off_c, 7, 33, 100
9, 48384, Note_on_c, 7, 36, 100
9, 48448, Note_off_c, 7, 36, 100
9, 48480, Note_on_c, 7, 31, 100
9, 48544, Note_off_c, 7, 31, 100
9, 48768, Note_on_c, 7, 31, 100
9, 48896, Note_off_c, 7, 31, 100
9, 49152, Note_on_c, 7, 33, 100
9, 49280, Note_off_c, 7, 33, 100
9, 49440, Note_on_c, 7, 33, 100
9, 49504, Note_off_c, 7, 33, 100
9, 49536, Note_on_c, 7, 36, 100
9, 49600, Note_off_c, 7, 36, 100
9, 49632, Note_on_c, 7, 33, 100
9, 49696, Note_off_c, 7, 33, 100
9, 49728, Note_on_c, 7, 40, 100
9, 49792, Note_off_c, 7, 40, 100
9, 49824, Note_on_c, 7, 33, 100
9, 49888, Note_off_c, 7, 33, 100
9, 49920, Note_on_c, 7, 36, 100
9, 49984, Note_off_c, 7, 36, 100
9, 50016, Note_on_c, 7, 31, 100
9, 50080, Note_off_c, 7, 31, 100
9, 50304, Note_on_c, 7, 31, 100
9, 50432, Note_off_c, 7, 31, 100
9, 50688, Note_on_c, 7, 34, 100
9, 50816, Note_off_c, 7, 34, 100
9, 50976, Note_on_c, 7, 34, 100
9, 51040, Note_off_c, 7, 34, 100
9, 51072, Note_on_c, 7, 37, 100
9, 51136, Note_off_c, 7, 37, 100
9, 51168, Note_on_c, 7, 34, 100
9, 51232, Note_off_c, 7, 34, 100
9, 51264, Note_on_c, 7, 41, 100
9, 51328, Note_off_c, 7, 41, 100
9, 51360, Note_on_c, 7, 34, 100
9, 51424, Note_off_c, 7, 34, 100
9, 51456, Note_on_c, 7, 37, 100
9, 51520, Note_off_c, 7, 37, 100
9, 51552, Note_on_c, 7, 32, 100
9, 51616, Note_off_c, 7, 32, 100
9, 51840, Note_on_c, 7, 32, 100
9, 51968, Note_off_c, 7, 32, 100
9, 52224, Note_on_c, 7, 34, 100
9, 52352, Note_off_c, 7, 34, 100
9, 52512, Note_on_c, 7, 34, 100
9, 52576, Note_off_c, 7, 34, 100
9, 52608, Note_on_c, 7, 37, 100
9, 52672, Note_off_c, 7, 37, 100
9, 52704, Note_on_c, 7, 34, 100
9, 52768, Note_off_c, 7, 34, 100
9, 52800, Note_on_c, 7, 41, 100
9, 52864, Note_off_c, 7, 41, 100
9, 52896, Note_on_c, 7, 34, 100
9, 52960, Note_off_c, 7, 34, 100
9, 52992, Note_on_c, 7, 37, 100
9, 53056, Note_off_c, 7, 37, 100
9, 53088, Note_on_c, 7, 32, 100
9, 53152, Note_off_c, 7, 32, 100
9, 53376, Note_on_c, 7, 32, 100
9, 53504, Note_off_c, 7, 32, 100
9, 53760, Note_on_c, 7, 34, 100
9, 53888, Note_off_c, 7, 34, 100
9, 54048, Note_on_c, 7, 34, 100
9, 54112, Note_off_c, 7, 34, 100
9, 54144, Note_on_c, 7, 37, 100
9, 54208, Note_off_c, 7, 37, 100
9, 54240, Note_on_c, 7, 34, 100
9, 54304, Note_off_c, 7, 34, 100
9, 54336, Note_on_c, 7, 41, 100
9, 54400, Note_off_c, 7, 41, 100
9, 54432, Note_on_c, 7, 34, 100
9, 54496, Note_off_c, 7, 34, 100
9, 54528, Note_on_c, 7, 37, 100
9, 54592, Note_off_c, 7, 37, 100
9, 54624, Note_on_c, 7, 32, 100
9, 54688, Note_off_c, 7, 32, 100
9, 54912, Note_on_c, 7, 32, 100
9, 55040, Note_off_c, 7, 32, 100
9, 55296, Note_on_c, 7, 36, 100
9, 55360, Note_off_c, 7, 36, 100
9, 55392, Note_on_c, 7, 36, 100
9, 55456, Note_off_c, 7, 36, 100
9, 55488, Note_on_c, 7, 36, 100
9, 55552, Note_off_c, 7, 36, 100
9, 55584, Note_on_c, 7, 36, 100
9, 55648, Note_off_c, 7, 36, 100
9, 55680, Note_on_c, 7, 36, 100
9, 55744, Note_off_c, 7, 36, 100
9, 55776, Note_on_c, 7, 36, 100
9, 55840, Note_off_c, 7, 36, 100
9, 55872, Note_on_c, 7, 36, 100
9, 55936, Note_off_c, 7, 36, 100
9, 55968, Note_on_c, 7, 36, 100
9, 56032, Note_off_c, 7, 36, 100
9, 56064, Note_on_c, 7, 38, 100
9, 56128, Note_off_c, 7, 38, 100
9, 56160, Note_on_c, 7, 38, 100
9, 56224, Note_off_c, 7, 38, 100
9, 56256, Note_on_c, 7, 38, 100
9, 56320, Note_off_c, 7, 38, 100
9, 56352, Note_on_c, 7, 36, 100
9, 56416, Note_off_c, 7, 36, 100
9, 56448, Note_on_c, 7, 38, 100
9, 56512, Note_off_c, 7, 38, 100
9, 56928, Note_on_c, 7, 35, 100
9, 56992, Note_off_c, 7, 35, 100
9, 57024, Note_on_c, 7, 35, 100
9, 57088, Note_off_c, 7, 35, 100
9, 57120, Note_on_c, 7, 33, 100
9, 57184, Note_off_c, 7, 33, 100
9, 57216, Note_on_c, 7, 35, 100
9, 57344, Note_off_c, 7, 35, 100
9, 57408, Note_on_c, 7, 38, 100
9, 57536, Note_off_c, 7, 38, 100
9, 57600, Note_on_c, 7, 40, 100
9, 57792, Note_off_c, 7, 40, 100
9, 57888, Note_on_c, 7, 40, 100
9, 57952, Note_off_c, 7, 40, 100
9, 57984, Note_on_c, 7, 40, 100
9, 58112, Note_off_c, 7, 40, 100
9, 58368, Note_on_c, 7, 52, 100
9, 58432, Note_off_c, 7, 52, 100
9, 58464, Note_on_c, 7, 50, 100
9, 58592, Note_off_c, 7, 50, 100
9, 58656, Note_on_c, 7, 47, 100
9, 58784, Note_off_c, 7, 47, 100
9, 58848, Note_on_c, 7, 45, 100
9, 58912, Note_off_c, 7, 45, 100
9, 58944, Note_on_c, 7, 43, 100
9, 59072, Note_off_c, 7, 43, 100
9, 59136, Note_on_c, 7, 41, 100
9, 59392, Note_off_c, 7, 41, 100
9, 59424, Note_on_c, 7, 41, 100
9, 59488, Note_off_c, 7, 41, 100
9, 59520, Note_on_c, 7, 41, 100
9, 59648, Note_off_c, 7, 41, 100
9, 59904, Note_on_c, 7, 41, 100
9, 59968, Note_off_c, 7, 41, 100
9, 60000, Note_on_c, 7, 41, 100
9, 60128, Note_off_c, 7, 41, 100
9, 60192, Note_on_c, 7, 43, 100
9, 60320, Note_off_c, 7, 43, 100
9, 60384, Note_on_c, 7, 45, 100
9, 60448, Note_off_c, 7, 45, 100
9, 60480, Note_on_c, 7, 48, 100
9, 60608, Note_off_c, 7, 48, 100
9, 60672, Note_on_c, 7, 43, 100
9, 60864, Note_off_c, 7, 43, 100
9, 60960, Note_on_c, 7, 43, 100
9, 61024, Note_off_c, 7, 43, 100
9, 61056, Note_on_c, 7, 43, 100
9, 61184, Note_off_c, 7, 43, 100
9, 61440, Note_on_c, 7, 43, 100
9, 61504, Note_off_c, 7, 43, 100
9, 61536, Note_on_c, 7, 42, 100
9, 61664, Note_off_c, 7, 42, 100
9, 61728, Note_on_c, 7, 43, 100
9, 61856, Note_off_c, 7, 43, 100
9, 61920, Note_on_c, 7, 45, 100
9, 61984, Note_off_c, 7, 45, 100
9, 62016, Note_on_c, 7, 48, 100
9, 62144, Note_off_c, 7, 48, 100
9, 62208, Note_on_c, 7, 50, 100
9, 62400, Note_off_c, 7, 50, 100
9, 62496, Note_on_c, 7, 50, 100
9, 62560, Note_off_c, 7, 50, 100
9, 62592, Note_on_c, 7, 50, 100
9, 62720, Note_off_c, 7, 50, 100
9, 62784, Note_on_c, 7, 45, 100
9, 62848, Note_off_c, 7, 45, 100
9, 62880, Note_on_c, 7, 48, 100
9, 63008, Note_off_c, 7, 48, 100
9, 63072, Note_on_c, 7, 45, 100
9, 63136, Note_off_c, 7, 45, 100
9, 63168, Note_on_c, 7, 52, 100
9, 63296, Note_off_c, 7, 52, 100
9, 63360, Note_on_c, 7, 45, 100
9, 63424, Note_off_c, 7, 45, 100
9, 63456, Note_on_c, 7, 48, 100
9, 63520, Note_off_c, 7, 48, 100
9, 63552, Note_on_c, 7, 43, 100
9, 63680, Note_off_c, 7, 43, 100
9, 63744, Note_on_c, 7, 40, 100
9, 63936, Note_off_c, 7, 40, 100
9, 64032, Note_on_c, 7, 40, 100
9, 64096, Note_off_c, 7, 40, 100
9, 64128, Note_on_c, 7, 40, 100
9, 64256, Note_off_c, 7, 40, 100
9, 64512, Note_on_c, 7, 52, 100
9, 64576, Note_off_c, 7, 52, 100
9, 64608, Note_on_c, 7, 50, 100
9, 64736, Note_off_c, 7, 50, 100
9, 64800, Note_on_c, 7, 47, 100
9, 64928, Note_off_c, 7, 47, 100
9, 64992, Note_on_c, 7, 45, 100
9, 65056, Note_off_c, 7, 45, 100
9, 65088, Note_on_c, 7, 43, 100
9, 65216, Note_off_c, 7, 43, 100
9, 65280, Note_on_c, 7, 41, 100
9, 65472, Note_off_c, 7, 41, 100
9, 65568, Note_on_c, 7, 41, 100
9, 65632, Note_off_c, 7, 41, 100
9, 65664, Note_on_c, 7, 41, 100
9, 65792, Note_off_c, 7, 41, 100
9, 66048, Note_on_c, 7, 41, 100
9, 66112, Note_off_c, 7, 41, 100
9, 66144, Note_on_c, 7, 41, 100
9, 66272, Note_off_c, 7, 41, 100
9, 66336, Note_on_c, 7, 43, 100
9, 66464, Note_off_c, 7, 43, 100
9, 66528, Note_on_c, 7, 45, 100
9, 66592, Note_off_c, 7, 45, 100
9, 66624, Note_on_c, 7, 48, 100
9, 66752, Note_off_c, 7, 48, 100
9, 66816, Note_on_c, 7, 43, 100
9, 67008, Note_off_c, 7, 43, 100
9, 67104, Note_on_c, 7, 43, 100
9, 67168, Note_off_c, 7, 43, 100
9, 67200, Note_on_c, 7, 43, 100
9, 67328, Note_off_c, 7, 43, 100
9, 67584, Note_on_c, 7, 43, 100
9, 67648, Note_off_c, 7, 43, 100
9, 67680, Note_on_c, 7, 42, 100
9, 67808, Note_off_c, 7, 42, 100
9, 67872, Note_on_c, 7, 43, 100
9, 68000, Note_off_c, 7, 43, 100
9, 68064, Note_on_c, 7, 45, 100
9, 68128, Note_off_c, 7, 45, 100
9, 68160, Note_on_c, 7, 48, 100
9, 68288, Note_off_c, 7, 48, 100
9, 68352, Note_on_c, 7, 50, 100
9, 68544, Note_off_c, 7, 50, 100
9, 68640, Note_on_c, 7, 50, 100
9, 68704, Note_off_c, 7, 50, 100
9, 68736, Note_on_c, 7, 50, 100
9, 68864, Note_off_c, 7, 50, 100
9, 68928, Note_on_c, 7, 45, 100
9, 68992, Note_off_c, 7, 45, 100
9, 69024, Note_on_c, 7, 48, 100
9, 69152, Note_off_c, 7, 48, 100
9, 69216, Note_on_c, 7, 45, 100
9, 69280, Note_off_c, 7, 45, 100
9, 69312, Note_on_c, 7, 52, 100
9, 69440, Note_off_c, 7, 52, 100
9, 69504, Note_on_c, 7, 45, 100
9, 69568, Note_off_c, 7, 45, 100
9, 69600, Note_on_c, 7, 48, 100
9, 69664, Note_off_c, 7, 48, 100
9, 69696, Note_on_c, 7, 43, 100
9, 69824, Note_off_c, 7, 43, 100
9, 69888, Note_on_c, 7, 33, 100
9, 70016, Note_off_c, 7, 33, 100
9, 70176, Note_on_c, 7, 33, 100
9, 70240, Note_off_c, 7, 33, 100
9, 70272, Note_on_c, 7, 36, 100
9, 70336, Note_off_c, 7, 36, 100
9, 70368, Note_on_c, 7, 33, 100
9, 70432, Note_off_c, 7, 33, 100
9, 70464, Note_on_c, 7, 40, 100
9, 70528, Note_off_c, 7, 40, 100
9, 70560, Note_on_c, 7, 33, 100
9, 70624, Note_off_c, 7, 33, 100
9, 70656, Note_on_c, 7, 36, 100
9, 70720, Note_off_c, 7, 36, 100
9, 70752, Note_on_c, 7, 31, 100
9, 70816, Note_off_c, 7, 31, 100
9, 71040, Note_on_c, 7, 31, 100
9, 71168, Note_off_c, 7, 31, 100
9, 71424, Note_on_c, 7, 33, 100
9, 71552, Note_off_c, 7, 33, 100
9, 71712, Note_on_c, 7, 33, 100
9, 71776, Note_off_c, 7, 33, 100
9, 71808, Note_on_c, 7, 36, 100
9, 71872, Note_off_c, 7, 36, 100
9, 71904, Note_on_c, 7, 33, 100
9, 71968, Note_off_c, 7, 33, 100
9, 72000, Note_on_c, 7, 40, 100
9, 72064, Note_off_c, 7, 40, 100
9, 72096, Note_on_c, 7, 33, 100
9, 72160, Note_off_c, 7, 33, 100
9, 72192, Note_on_c, 7, 36, 100
9, 72256, Note_off_c, 7, 36, 100
9, 72288, Note_on_c, 7, 31, 100
9, 72352, Note_off_c, 7, 31, 100
9, 72576, Note_on_c, 7, 31, 100
9, 72704, Note_off_c, 7, 31, 100
9, 72960, Note_on_c, 7, 33, 100
9, 73088, Note_off_c, 7, 33, 100
9, 73248, Note_on_c, 7, 33, 100
9, 73312, Note_off_c, 7, 33, 100
9, 73344, Note_on_c, 7, 36, 100
9, 73408, Note_off_c, 7, 36, 100
9, 73440, Note_on_c, 7, 33, 100
9, 73504, Note_off_c, 7, 33, 100
9, 73536, Note_on_c, 7, 40, 100
9, 73600, Note_off_c, 7, 40, 100
9, 73632, Note_on_c, 7, 33, 100
9, 73696, Note_off_c, 7, 33, 100
9, 73728, Note_on_c, 7, 36, 100
9, 73792, Note_off_c, 7, 36, 100
9, 73824, Note_on_c, 7, 31, 100
9, 73888, Note_off_c, 7, 31, 100
9, 74112, Note_on_c, 7, 31, 100
9, 74240, Note_off_c, 7, 31, 100
9, 74496, Note_on_c, 7, 33, 100
9, 74624, Note_off_c, 7, 33, 100
9, 74784, Note_on_c, 7, 33, 100
9, 74848, Note_off_c, 7, 33, 100
9, 74880, Note_on_c, 7, 36, 100
9, 74944, Note_off_c, 7, 36, 100
9, 74976, Note_on_c, 7, 33, 100
9, 75040, Note_off_c, 7, 33, 100
9, 75072, Note_on_c, 7, 40, 100
9, 75136, Note_off_c, 7, 40, 100
9, 75168, Note_on_c, 7, 33, 100
9, 75232, Note_off_c, 7, 33, 100
9, 75264, Note_on_c, 7, 36, 100
9, 75328, Note_off_c, 7, 36, 100
9, 75360, Note_on_c, 7, 31, 100
9, 75424, Note_off_c, 7, 31, 100
9, 75648, Note_on_c, 7, 31, 100
9, 75776, Note_off_c, 7, 31, 100
9, 76032, Note_on_c, 7, 34, 100
9, 76160, Note_off_c, 7, 34, 100
9, 76320, Note_on_c, 7, 34, 100
9, 76384, Note_off_c, 7, 34, 100
9, 76416, Note_on_c, 7, 37, 100
9, 76480, Note_off_c, 7, 37, 100
9, 76512, Note_on_c, 7, 34, 100
9, 76576, Note_off_c, 7, 34, 100
9, 76608, Note_on_c, 7, 41, 100
9, 76672, Note_off_c, 7, 41, 100
9, 76704, Note_on_c, 7, 34, 100
9, 76768, Note_off_c, 7, 34, 100
9, 76800, Note_on_c, 7, 37, 100
9, 76864, Note_off_c, 7, 37, 100
9, 76896, Note_on_c, 7, 32, 100
9, 76960, Note_off_c, 7, 32, 100
9, 77184, Note_on_c, 7, 32, 100
9, 77312, Note_off_c, 7, 32, 100
9, 77568, Note_on_c, 7, 34, 100
9, 77696, Note_off_c, 7, 34, 100
9, 77856, Note_on_c, 7, 34, 100
9, 77920, Note_off_c, 7, 34, 100
9, 77952, Note_on_c, 7, 37, 100
9, 78016, Note_off_c, 7, 37, 100
9, 78048, Note_on_c, 7, 34, 100
9, 78112, Note_off_c, 7, 34, 100
9, 78144, Note_on_c, 7, 41, 100
9, 78208, Note_off_c, 7, 41, 100
9, 78240, Note_on_c, 7, 34, 100
9, 78304, Note_off_c, 7, 34, 100
9, 78336, Note_on_c, 7, 37, 100
9, 78400, Note_off_c, 7, 37, 100
9, 78432, Note_on_c, 7, 32, 100
9, 78496, Note_off_c, 7, 32, 100
9, 78720, Note_on_c, 7, 32, 100
9, 78848, Note_off_c, 7, 32, 100
9, 79104, Note_on_c, 7, 34, 100
9, 79232, Note_off_c, 7, 34, 100
9, 79392, Note_on_c, 7, 34, 100
9, 79456, Note_off_c, 7, 34, 100
9, 79488, Note_on_c, 7, 37, 100
9, 79552, Note_off_c, 7, 37, 100
9, 79584, Note_on_c, 7, 34, 100
9, 79648, Note_off_c, 7, 34, 100
9, 79680, Note_on_c, 7, 41, 100
9, 79744, Note_off_c, 7, 41, 100
9, 79776, Note_on_c, 7, 34, 100
9, 79840, Note_off_c, 7, 34, 100
9, 79872, Note_on_c, 7, 37, 100
9, 79936, Note_off_c, 7, 37, 100
9, 79968, Note_on_c, 7, 32, 100
9, 80032, Note_off_c, 7, 32, 100
9, 80256, Note_on_c, 7, 32, 100
9, 80384, Note_off_c, 7, 32, 100
9, 80640, Note_on_c, 7, 36, 100
9, 80704, Note_off_c, 7, 36, 100
9, 80736, Note_on_c, 7, 36, 100
9, 80800, Note_off_c, 7, 36, 100
9, 80832, Note_on_c, 7, 36, 100
9, 80896, Note_off_c, 7, 36, 100
9, 80928, Note_on_c, 7, 36, 100
9, 80992, Note_off_c, 7, 36, 100
9, 81024, Note_on_c, 7, 36, 100
9, 81088, Note_off_c, 7, 36, 100
9, 81120, Note_on_c, 7, 36, 100
9, 81184, Note_off_c, 7, 36, 100
9, 81216, Note_on_c, 7, 36, 100
9, 81280, Note_off_c, 7, 36, 100
9, 81312, Note_on_c, 7, 36, 100
9, 81376, Note_off_c, 7, 36, 100
9, 81408, Note_on_c, 7, 38, 100
9, 81472, Note_off_c, 7, 38, 100
9, 81504, Note_on_c, 7, 38, 100
9, 81568, Note_off_c, 7, 38, 100
9, 81600, Note_on_c, 7, 38, 100
9, 81664, Note_off_c, 7, 38, 100
9, 81696, Note_on_c, 7, 36, 100
9, 81760, Note_off_c, 7, 36, 100
9, 81792, Note_on_c, 7, 38, 100
9, 81856, Note_off_c, 7, 38, 100
9, 82272, Note_on_c, 7, 35, 100
9, 82336, Note_off_c, 7, 35, 100
9, 82368, Note_on_c, 7, 35, 100
9, 82432, Note_off_c, 7, 35, 100
9, 82464, Note_on_c, 7, 33, 100
9, 82528, Note_off_c, 7, 33, 100
9, 82560, Note_on_c, 7, 35, 100
9, 82688, Note_off_c, 7, 35, 100
9, 82752, Note_on_c, 7, 38, 100
9, 82880, Note_off_c, 7, 38, 100
9, 82944, Note_on_c, 7, 33, 100
9, 83072, Note_off_c, 7, 33, 100
9, 83232, Note_on_c, 7, 33, 100
9, 83296, Note_off_c, 7, 33, 100
9, 83328, Note_on_c, 7, 36, 100
9, 83392, Note_off_c, 7, 36, 100
9, 83424, Note_on_c, 7, 33, 100
9, 83488, Note_off_c, 7, 33, 100
9, 83520, Note_on_c, 7, 40, 100
9, 83584, Note_off_c, 7, 40, 100
9, 83616, Note_on_c, 7, 33, 100
9, 83680, Note_off_c, 7, 33, 100
9, 83712, Note_on_c, 7, 36, 100
9, 83776, Note_off_c, 7, 36, 100
9, 83808, Note_on_c, 7, 31, 100
9, 83872, Note_off_c, 7, 31, 100
9, 84096, Note_on_c, 7, 31, 100
9, 84224, Note_off_c, 7, 31, 100
9, 84480, Note_on_c, 7, 33, 100
9, 84608, Note_off_c, 7, 33, 100
9, 84768, Note_on_c, 7, 33, 100
9, 84832, Note_off_c, 7, 33, 100
9, 84864, Note_on_c, 7, 36, 100
9, 84928, Note_off_c, 7, 36, 100
9, 84960, Note_on_c, 7, 33, 100
9, 85024, Note_off_c, 7, 33, 100
9, 85056, Note_on_c, 7, 40, 100
9, 85120, Note_off_c, 7, 40, 100
9, 85152, Note_on_c, 7, 33, 100
9, 85216, Note_off_c, 7, 33, 100
9, 85248, Note_on_c, 7, 36, 100
9, 85312, Note_off_c, 7, 36, 100
9, 85344, Note_on_c, 7, 31, 100
9, 85408, Note_off_c, 7, 31, 100
9, 85632, Note_on_c, 7, 31, 100
9, 85760, Note_off_c, 7, 31, 100
9, 86016, Note_on_c, 7, 33, 100
9, 86144, Note_off_c, 7, 33, 100
9, 86304, Note_on_c, 7, 33, 100
9, 86368, Note_off_c, 7, 33, 100
9, 86400, Note_on_c, 7, 36, 100
9, 86464, Note_off_c, 7, 36, 100
9, 86496, Note_on_c, 7, 33, 100
9, 86560, Note_off_c, 7, 33, 100
9, 86592, Note_on_c, 7, 40, 100
9, 86656, Note_off_c, 7, 40, 100
9, 86688, Note_on_c, 7, 33, 100
9, 86752, Note_off_c, 7, 33, 100
9, 86784, Note_on_c, 7, 36, 100
9, 86848, Note_off_c, 7, 36, 100
9, 86880, Note_on_c, 7, 31, 100
9, 86944, Note_off_c, 7, 31, 100
9, 87168, Note_on_c, 7, 31, 100
9, 87296, Note_off_c, 7, 31, 100
9, 87552, Note_on_c, 7, 33, 100
9, 87680, Note_off_c, 7, 33, 100
9, 87840, Note_on_c, 7, 33, 100
9, 87904, Note_off_c, 7, 33, 100
9, 87936, Note_on_c, 7, 36, 100
9, 88000, Note_off_c, 7, 36, 100
9, 88032, Note_on_c, 7, 33, 100
9, 88096, Note_off_c, 7, 33, 100
9, 88128, Note_on_c, 7, 40, 100
9, 88192, Note_off_c, 7, 40, 100
9, 88224, Note_on_c, 7, 33, 100
9, 88288, Note_off_c, 7, 33, 100
9, 88320, Note_on_c, 7, 36, 100
9, 88384, Note_off_c, 7, 36, 100
9, 88416, Note_on_c, 7, 31, 100
9, 88480, Note_off_c, 7, 31, 100
9, 88704, Note_on_c, 7, 31, 100
9, 88832, Note_off_c, 7, 31, 100
9, 89088, Note_on_c, 7, 34, 100
9, 89216, Note_off_c, 7, 34, 100
9, 89376, Note_on_c, 7, 34, 100
9, 89440, Note_off_c, 7, 34, 100
9, 89472, Note_on_c, 7, 37, 100
9, 89536, Note_off_c, 7, 37, 100
9, 89568, Note_on_c, 7, 34, 100
9, 89632, Note_off_c, 7, 34, 100
9, 89664, Note_on_c, 7, 41, 100
9, 89728, Note_off_c, 7, 41, 100
9, 89760, Note_on_c, 7, 34, 100
9, 89824, Note_off_c, 7, 34, 100
9, 89856, Note_on_c, 7, 37, 100
9, 89920, Note_off_c, 7, 37, 100
9, 89952, Note_on_c, 7, 32, 100
9, 90016, Note_off_c, 7, 32, 100
9, 90240, Note_on_c, 7, 32, 100
9, 90368, Note_off_c, 7, 32, 100
9, 90624, Note_on_c, 7, 34, 100
9, 90752, Note_off_c, 7, 34, 100
9, 90912, Note_on_c, 7, 34, 100
9, 90976, Note_off_c, 7, 34, 100
9, 91008, Note_on_c, 7, 37, 100
9, 91072, Note_off_c, 7, 37, 100
9, 91104, Note_on_c, 7, 34, 100
9, 91168, Note_off_c, 7, 34, 100
9, 91200, Note_on_c, 7, 41, 100
9, 91264, Note_off_c, 7, 41, 100
9, 91296, Note_on_c, 7, 34, 100
9, 91360, Note_off_c, 7, 34, 100
9, 91392, Note_on_c, 7, 37, 100
9, 91456, Note_off_c, 7, 37, 100
9, 91488, Note_on_c, 7, 32, 100
9, 91552, Note_off_c, 7, 32, 100
9, 91776, Note_on_c, 7, 32, 100
9, 91904, Note_off_c, 7, 32, 100
9, 92160, Note_on_c, 7, 34, 100
9, 92288, Note_off_c, 7, 34, 100
9, 92448, Note_on_c, 7, 34, 100
9, 92512, Note_off_c, 7, 34, 100
9, 92544, Note_on_c, 7, 37, 100
9, 92608, Note_off_c, 7, 37, 100
9, 92640, Note_on_c, 7, 34, 100
9, 92704, Note_off_c, 7, 34, 100
9, 92736, Note_on_c, 7, 41, 100
9, 92800, Note_off_c, 7, 41, 100
9, 92832, Note_on_c, 7, 34, 100
9, 92896, Note_off_c, 7, 34, 100
9, 92928, Note_on_c, 7, 37, 100
9, 92992, Note_off_c, 7, 37, 100
9, 93024, Note_on_c, 7, 32, 100
9, 93088, Note_off_c, 7, 32, 100
9, 93312, Note_on_c, 7, 32, 100
9, 93440, Note_off_c, 7, 32, 100
9, 93696, Note_on_c, 7, 36, 100
9, 93760, Note_off_c, 7, 36, 100
9, 93792, Note_on_c, 7, 36, 100
9, 93856, Note_off_c, 7, 36, 100
9, 93888, Note_on_c, 7, 36, 100
9, 93952, Note_off_c, 7, 36, 100
9, 93984, Note_on_c, 7, 36, 100
9, 94048, Note_off_c, 7, 36, 100
9, 94080, Note_on_c, 7, 36, 100
9, 94144, Note_off_c, 7, 36, 100
9, 94176, Note_on_c, 7, 36, 100
9, 94240, Note_off_c, 7, 36, 100
9, 94272, Note_on_c, 7, 36, 100
9, 94336, Note_off_c, 7, 36, 100
9, 94368, Note_on_c, 7, 36, 100
9, 94432, Note_off_c, 7, 36, 100
9, 94464, Note_on_c, 7, 38, 100
9, 94528, Note_off_c, 7, 38, 100
9, 94560, Note_on_c, 7, 38, 100
9, 94624, Note_off_c, 7, 38, 100
9, 94656, Note_on_c, 7, 38, 100
9, 94720, Note_off_c, 7, 38, 100
9, 94752, Note_on_c, 7, 36, 100
9, 94816, Note_off_c, 7, 36, 100
9, 94848, Note_on_c, 7, 38, 100
9, 94912, Note_off_c, 7, 38, 100
9, 95328, Note_on_c, 7, 35, 100
9, 95392, Note_off_c, 7, 35, 100
9, 95424, Note_on_c, 7, 35, 100
9, 95488, Note_off_c, 7, 35, 100
9, 95520, Note_on_c, 7, 33, 100
9, 95584, Note_off_c, 7, 33, 100
9, 95616, Note_on_c, 7, 35, 100
9, 95744, Note_off_c, 7, 35, 100
9, 95808, Note_on_c, 7, 38, 100
9, 95936, Note_off_c, 7, 38, 100
9, 96000, Note_on_c, 7, 40, 100
9, 96192, Note_off_c, 7, 40, 100
9, 96288, Note_on_c, 7, 40, 100
9, 96352, Note_off_c, 7, 40, 100
9, 96384, Note_on_c, 7, 40, 100
9, 96512, Note_off_c, 7, 40, 100
9, 96864, Note_on_c, 7, 40, 100
9, 96928, Note_off_c, 7, 40, 100
9, 96960, Note_on_c, 7, 43, 100
9, 97024, Note_off_c, 7, 43, 100
9, 97056, Note_on_c, 7, 40, 100
9, 97120, Note_off_c, 7, 40, 100
9, 97152, Note_on_c, 7, 47, 100
9, 97216, Note_off_c, 7, 47, 100
9, 97248, Note_on_c, 7, 40, 100
9, 97312, Note_off_c, 7, 40, 100
9, 97344, Note_on_c, 7, 43, 100
9, 97408, Note_off_c, 7, 43, 100
9, 97440, Note_on_c, 7, 40, 100
9, 97504, Note_off_c, 7, 40, 100
9, 97536, Note_on_c, 7, 41, 100
9, 97728, Note_off_c, 7, 41, 100
9, 97824, Note_on_c, 7, 41, 100
9, 97888, Note_off_c, 7, 41, 100
9, 97920, Note_on_c, 7, 41, 100
9, 98048, Note_off_c, 7, 41, 100
9, 98688, Note_on_c, 7, 41, 100
9, 98752, Note_off_c, 7, 41, 100
9, 98784, Note_on_c, 7, 43, 100
9, 98848, Note_off_c, 7, 43, 100
9, 98880, Note_on_c, 7, 45, 100
9, 98944, Note_off_c, 7, 45, 100
9, 98976, Note_on_c, 7, 48, 100
9, 99040, Note_off_c, 7, 48, 100
9, 99072, Note_on_c, 7, 43, 100
9, 99264, Note_off_c, 7, 43, 100
9, 99360, Note_on_c, 7, 43, 100
9, 99424, Note_off_c, 7, 43, 100
9, 99456, Note_on_c, 7, 43, 100
9, 99584, Note_off_c, 7, 43, 100
9, 100032, Note_on_c, 7, 48, 100
9, 100096, Note_off_c, 7, 48, 100
9, 100128, Note_on_c, 7, 47, 100
9, 100192, Note_off_c, 7, 47, 100
9, 100224, Note_on_c, 7, 48, 100
9, 100288, Note_off_c, 7, 48, 100
9, 100320, Note_on_c, 7, 47, 100
9, 100384, Note_off_c, 7, 47, 100
9, 100416, Note_on_c, 7, 43, 100
9, 100544, Note_off_c, 7, 43, 100
9, 100608, Note_on_c, 7, 45, 100
9, 100800, Note_off_c, 7, 45, 100
9, 100896, Note_on_c, 7, 45, 100
9, 100960, Note_off_c, 7, 45, 100
9, 100992, Note_on_c, 7, 45, 100
9, 101120, Note_off_c, 7, 45, 100
9, 101184, Note_on_c, 7, 45, 100
9, 101248, Note_off_c, 7, 45, 100
9, 101280, Note_on_c, 7, 48, 100
9, 101408, Note_off_c, 7, 48, 100
9, 101472, Note_on_c, 7, 45, 100
9, 101536, Note_off_c, 7, 45, 100
9, 101568, Note_on_c, 7, 52, 100
9, 101696, Note_off_c, 7, 52, 100
9, 101760, Note_on_c, 7, 45, 100
9, 101824, Note_off_c, 7, 45, 100
9, 101856, Note_on_c, 7, 48, 100
9, 101920, Note_off_c, 7, 48, 100
9, 101952, Note_on_c, 7, 43, 100
9, 102080, Note_off_c, 7, 43, 100
9, 102144, Note_on_c, 7, 40, 100
9, 102336, Note_off_c, 7, 40, 100
9, 102432, Note_on_c, 7, 40, 100
9, 102496, Note_off_c, 7, 40, 100
9, 102528, Note_on_c, 7, 40, 100
9, 102656, Note_off_c, 7, 40, 100
9, 103008, Note_on_c, 7, 40, 100
9, 103072, Note_off_c, 7, 40, 100
9, 103104, Note_on_c, 7, 43, 100
9, 103168, Note_off_c, 7, 43, 100
9, 103200, Note_on_c, 7, 40, 100
9, 103264, Note_off_c, 7, 40, 100
9, 103296, Note_on_c, 7, 47, 100
9, 103360, Note_off_c, 7, 47, 100
9, 103392, Note_on_c, 7, 40, 100
9, 103456, Note_off_c, 7, 40, 100
9, 103488, Note_on_c, 7, 43, 100
9, 103552, Note_off_c, 7, 43, 100
9, 103584, Note_on_c, 7, 40, 100
9, 103648, Note_off_c, 7, 40, 100
9, 103680, Note_on_c, 7, 41, 100
9, 103872, Note_off_c, 7, 41, 100
9, 103968, Note_on_c, 7, 41, 100
9, 104032, Note_off_c, 7, 41, 100
9, 104064, Note_on_c, 7, 41, 100
9, 104192, Note_off_c, 7, 41, 100
9, 104832, Note_on_c, 7, 41, 100
9, 104896, Note_off_c, 7, 41, 100
9, 104928, Note_on_c, 7, 43, 100
9, 104992, Note_off_c, 7, 43, 100
9, 105024, Note_on_c, 7, 45, 100
9, 105088, Note_off_c, 7, 45, 100
9, 105120, Note_on_c, 7, 48, 100
9, 105184, Note_off_c, 7, 48, 100
9, 105216, Note_on_c, 7, 43, 100
9, 105408, Note_off_c, 7, 43, 100
9, 105504, Note_on_c, 7, 43, 100
9, 105568, Note_off_c, 7, 43, 100
9, 105600, Note_on_c, 7, 43, 100
9, 105728, Note_off_c, 7, 43, 100
9, 106176, Note_on_c, 7, 48, 100
9, 106240, Note_off_c, 7, 48, 100
9, 106272, Note_on_c, 7, 47, 100
9, 106336, Note_off_c, 7, 47, 100
9, 106368, Note_on_c, 7, 48, 100
9, 106432, Note_off_c, 7, 48, 100
9, 106464, Note_on_c, 7, 47, 100
9, 106528, Note_off_c, 7, 47, 100
9, 106560, Note_on_c, 7, 43, 100
9, 106688, Note_off_c, 7, 43, 100
9, 106752, Note_on_c, 7, 45, 100
9, 106944, Note_off_c, 7, 45, 100
9, 107040, Note_on_c, 7, 45, 100
9, 107104, Note_off_c, 7, 45, 100
9, 107136, Note_on_c, 7, 45, 100
9, 107264, Note_off_c, 7, 45, 100
9, 107328, Note_on_c, 7, 45, 100
9, 107392, Note_off_c, 7, 45, 100
9, 107424, Note_on_c, 7, 48, 100
9, 107552, Note_off_c, 7, 48, 100
9, 107616, Note_on_c, 7, 45, 100
9, 107680, Note_off_c, 7, 45, 100
9, 107712, Note_on_c, 7, 52, 100
9, 107840, Note_off_c, 7, 52, 100
9, 107904, Note_on_c, 7, 45, 100
9, 107968, Note_off_c, 7, 45, 100
9, 108000, Note_on_c, 7, 48, 100
9, 108064, Note_off_c, 7, 48, 100
9, 108096, Note_on_c, 7, 43, 100
9, 108224, Note_off_c, 7, 43, 100
9, 108288, Note_on_c, 7, 33, 100
9, 108416, Note_off_c, 7, 33, 100
9, 108576, Note_on_c, 7, 33, 100
9, 108640, Note_off_c, 7, 33, 100
9, 108672, Note_on_c, 7, 36, 100
9, 108736, Note_off_c, 7, 36, 100
9, 108768, Note_on_c, 7, 33, 100
9, 108832, Note_off_c, 7, 33, 100
9, 108864, Note_on_c, 7, 40, 100
9, 108928, Note_off_c, 7, 40, 100
9, 108960, Note_on_c, 7, 33, 100
9, 109024, Note_off_c, 7, 33, 100
9, 109056, Note_on_c, 7, 36, 100
9, 109120, Note_off_c, 7, 36, 100
9, 109152, Note_on_c, 7, 31, 100
9, 109216, Note_off_c, 7, 31, 100
9, 109440, Note_on_c, 7, 31, 100
9, 109568, Note_off_c, 7, 31, 100
9, 109824, Note_on_c, 7, 33, 100
9, 109952, Note_off_c, 7, 33, 100
9, 110112, Note_on_c, 7, 33, 100
9, 110176, Note_off_c, 7, 33, 100
9, 110208, Note_on_c, 7, 36, 100
9, 110272, Note_off_c, 7, 36, 100
9, 110304, Note_on_c, 7, 33, 100
9, 110368, Note_off_c, 7, 33, 100
9, 110400, Note_on_c, 7, 40, 100
9, 110464, Note_off_c, 7, 40, 100
9, 110496, Note_on_c, 7, 33, 100
9, 110560, Note_off_c, 7, 33, 100
9, 110592, Note_on_c, 7, 36, 100
9, 110656, Note_off_c, 7, 36, 100
9, 110688, Note_on_c, 7, 31, 100
9, 110752, Note_off_c, 7, 31, 100
9, 110976, Note_on_c, 7, 31, 100
9, 111104, Note_off_c, 7, 31, 100
9, 111360, Note_on_c, 7, 33, 100
9, 111488, Note_off_c, 7, 33, 100
9, 111648, Note_on_c, 7, 33, 100
9, 111712, Note_off_c, 7, 33, 100
9, 111744, Note_on_c, 7, 36, 100
9, 111808, Note_off_c, 7, 36, 100
9, 111840, Note_on_c, 7, 33, 100
9, 111904, Note_off_c, 7, 33, 100
9, 111936, Note_on_c, 7, 40, 100
9, 112000, Note_off_c, 7, 40, 100
9, 112032, Note_on_c, 7, 33, 100
9, 112096, Note_off_c, 7, 33, 100
9, 112128, Note_on_c, 7, 36, 100
9, 112192, Note_off_c, 7, 36, 100
9, 112224, Note_on_c, 7, 31, 100
9, 112288, Note_off_c, 7, 31, 100
9, 112512, Note_on_c, 7, 31, 100
9, 112640, Note_off_c, 7, 31, 100
9, 112896, Note_on_c, 7, 33, 100
9, 113024, Note_off_c, 7, 33, 100
9, 113184, Note_on_c, 7, 33, 100
9, 113248, Note_off_c, 7, 33, 100
9, 113280, Note_on_c, 7, 36, 100
9, 113344, Note_off_c, 7, 36, 100
9, 113376, Note_on_c, 7, 33, 100
9, 113440, Note_off_c, 7, 33, 100
9, 113472, Note_on_c, 7, 40, 100
9, 113536, Note_off_c, 7, 40, 100
9, 113568, Note_on_c, 7, 33, 100
9, 113632, Note_off_c, 7, 33, 100
9, 113664, Note_on_c, 7, 36, 100
9, 113728, Note_off_c, 7, 36, 100
9, 113760, Note_on_c, 7, 31, 100
9, 113824, Note_off_c, 7, 31, 100
9, 114048, Note_on_c, 7, 31, 100
9, 114176, Note_off_c, 7, 31, 100
9, 114432, Note_on_c, 7, 34, 100
9, 114560, Note_off_c, 7, 34, 100
9, 114720, Note_on_c, 7, 34, 100
9, 114784, Note_off_c, 7, 34, 100
9, 114816, Note_on_c, 7, 37, 100
9, 114880, Note_off_c, 7, 37, 100
9, 114912, Note_on_c, 7, 34, 100
9, 114976, Note_off_c, 7, 34, 100
9, 115008, Note_on_c, 7, 41, 100
9, 115072, Note_off_c, 7, 41, 100
9, 115104, Note_on_c, 7, 34, 100
9, 115168, Note_off_c, 7, 34, 100
9, 115200, Note_on_c, 7, 37, 100
9, 115264, Note_off_c, 7, 37, 100
9, 115296, Note_on_c, 7, 32, 100
9, 115360, Note_off_c, 7, 32, 100
9, 115584, Note_on_c, 7, 32, 100
9, 115712, Note_off_c, 7, 32, 100
9, 115968, Note_on_c, 7, 34, 100
9, 116096, Note_off_c, 7, 34, 100
9, 116256, Note_on_c, 7, 34, 100
9, 116320, Note_off_c, 7, 34, 100
9, 116352, Note_on_c, 7, 37, 100
9, 116416, Note_off_c, 7, 37, 100
9, 116448, Note_on_c, 7, 34, 100
9, 116512, Note_off_c, 7, 34, 100
9, 116544, Note_on_c, 7, 41, 100
9, 116608, Note_off_c, 7, 41, 100
9, 116640, Note_on_c, 7, 34, 100
9, 116704, Note_off_c, 7, 34, 100
9, 116736, Note_on_c, 7, 37, 100
9, 116800, Note_off_c, 7, 37, 100
9, 116832, Note_on_c, 7, 32, 100
9, 116896, Note_off_c, 7, 32, 100
9, 117120, Note_on_c, 7, 32, 100
9, 117248, Note_off_c, 7, 32, 100
9, 117504, Note_on_c, 7, 34, 100
9, 117632, Note_off_c, 7, 34, 100
9, 117792, Note_on_c, 7, 34, 100
9, 117856, Note_off_c, 7, 34, 100
9, 117888, Note_on_c, 7, 37, 100
9, 117952, Note_off_c, 7, 37, 100
9, 117984, Note_on_c, 7, 34, 100
9, 118048, Note_off_c, 7, 34, 100
9, 118080, Note_on_c, 7, 41, 100
9, 118144, Note_off_c, 7, 41, 100
9, 118176, Note_on_c, 7, 34, 100
9, 118240, Note_off_c, 7, 34, 100
9, 118272, Note_on_c, 7, 37, 100
9, 118336, Note_off_c, 7, 37, 100
9, 118368, Note_on_c, 7, 32, 100
9, 118432, Note_off_c, 7, 32, 100
9, 118656, Note_on_c, 7, 32, 100
9, 118784, Note_off_c, 7, 32, 100
9, 119040, Note_on_c, 7, 36, 100
9, 119104, Note_off_c, 7, 36, 100
9, 119136, Note_on_c, 7, 36, 100
9, 119200, Note_off_c, 7, 36, 100
9, 119232, Note_on_c, 7, 36, 100
9, 119296, Note_off_c, 7, 36, 100
9, 119328, Note_on_c, 7, 36, 100
9, 119392, Note_off_c, 7, 36, 100
9, 119424, Note_on_c, 7, 36, 100
9, 119488, Note_off_c, 7, 36, 100
9, 119520, Note_on_c, 7, 36, 100
9, 119584, Note_off_c, 7, 36, 100
9, 119616, Note_on_c, 7, 36, 100
9, 119680, Note_off_c, 7, 36, 100
9, 119712, Note_on_c, 7, 36, 100
9, 119776, Note_off_c, 7, 36, 100
9, 119808, Note_on_c, 7, 38, 100
9, 119872, Note_off_c, 7, 38, 100
9, 119904, Note_on_c, 7, 38, 100
9, 119968, Note_off_c, 7, 38, 100
9, 120000, Note_on_c, 7, 38, 100
9, 120064, Note_off_c, 7, 38, 100
9, 120096, Note_on_c, 7, 36, 100
9, 120160, Note_off_c, 7, 36, 100
9, 120192, Note_on_c, 7, 38, 100
9, 120256, Note_off_c, 7, 38, 100
9, 120672, Note_on_c, 7, 35, 100
9, 120736, Note_off_c, 7, 35, 100
9, 120768, Note_on_c, 7, 35, 100
9, 120832, Note_off_c, 7, 35, 100
9, 120864, Note_on_c, 7, 33, 100
9, 120928, Note_off_c, 7, 33, 100
9, 120960, Note_on_c, 7, 35, 100
9, 121088, Note_off_c, 7, 35, 100
9, 121152, Note_on_c, 7, 38, 100
9, 121280, Note_off_c, 7, 38, 100
9, 121280, End_track
10, 0, Start_track
10, 0, Control_c, 8, 0, 0
10, 0, Program_c, 8, 29
10, 0, Control_c, 8, 91, 27
10, 89088, Note_on_c, 8, 73, 127
10, 89216, Note_off_c, 8, 73, 127
10, 89280, Note_on_c, 8, 70, 127
10, 89408, Note_off_c, 8, 70, 127
10, 89472, Note_on_c, 8, 68, 127
10, 89600, Note_off_c, 8, 68, 127
10, 89664, Note_on_c, 8, 75, 127
10, 89728, Note_off_c, 8, 75, 127
10, 89760, Note_on_c, 8, 77, 127
10, 89824, Note_off_c, 8, 77, 127
10, 89856, Note_on_c, 8, 75, 127
10, 89920, Note_off_c, 8, 75, 127
10, 89952, Note_on_c, 8, 77, 127
10, 90016, Note_off_c, 8, 77, 127
10, 90048, Note_on_c, 8, 75, 127
10, 90112, Note_off_c, 8, 75, 127
10, 90144, Note_on_c, 8, 73, 127
10, 90208, Note_off_c, 8, 73, 127
10, 90240, Note_on_c, 8, 75, 127
10, 90304, Note_off_c, 8, 75, 127
10, 90336, Note_on_c, 8, 65, 127
10, 90400, Note_off_c, 8, 65, 127
10, 90432, Note_on_c, 8, 73, 127
10, 90496, Note_off_c, 8, 73, 127
10, 90528, Note_on_c, 8, 70, 127
10, 90592, Note_off_c, 8, 70, 127
10, 90624, Note_on_c, 8, 68, 127
10, 90688, Note_off_c, 8, 68, 127
10, 90720, Note_on_c, 8, 70, 127
10, 90784, Note_off_c, 8, 70, 127
10, 90816, Note_on_c, 8, 70, 127
10, 90880, Note_off_c, 8, 70, 127
10, 90912, Note_on_c, 8, 68, 127
10, 90976, Note_off_c, 8, 68, 127
10, 91008, Note_on_c, 8, 65, 127
10, 91072, Note_off_c, 8, 65, 127
10, 91104, Note_on_c, 8, 73, 127
10, 91168, Note_off_c, 8, 73, 127
10, 91200, Note_on_c, 8, 70, 127
10, 91264, Note_off_c, 8, 70, 127
10, 91296, Note_on_c, 8, 68, 127
10, 91360, Note_off_c, 8, 68, 127
10, 91392, Note_on_c, 8, 65, 127
10, 91456, Note_off_c, 8, 65, 127
10, 91488, Note_on_c, 8, 68, 127
10, 91552, Note_off_c, 8, 68, 127
10, 91584, Note_on_c, 8, 70, 127
10, 91712, Note_off_c, 8, 70, 127
10, 91776, Note_on_c, 8, 68, 127
10, 91840, Note_off_c, 8, 68, 127
10, 91872, Note_on_c, 8, 70, 127
10, 91936, Note_off_c, 8, 70, 127
10, 91968, Note_on_c, 8, 73, 127
10, 92032, Note_off_c, 8, 73, 127
10, 92064, Note_on_c, 8, 77, 127
10, 92128, Note_off_c, 8, 77, 127
10, 92160, Note_on_c, 8, 76, 127
10, 92224, Note_off_c, 8, 76, 127
10, 92256, Note_on_c, 8, 80, 127
10, 92320, Note_off_c, 8, 80, 127
10, 92352, Note_on_c, 8, 75, 127
10, 92416, Note_off_c, 8, 75, 127
10, 92448, Note_on_c, 8, 73, 127
10, 92512, Note_off_c, 8, 73, 127
10, 92544, Note_on_c, 8, 76, 127
10, 92608, Note_off_c, 8, 76, 127
10, 92640, Note_on_c, 8, 73, 127
10, 92704, Note_off_c, 8, 73, 127
10, 92736, Note_on_c, 8, 73, 127
10, 92800, Note_off_c, 8, 73, 127
10, 92928, Note_on_c, 8, 65, 127
10, 92992, Note_off_c, 8, 65, 127
10, 93024, Note_on_c, 8, 68, 127
10, 93088, Note_off_c, 8, 68, 127
10, 93120, Note_on_c, 8, 70, 127
10, 93376, Note_off_c, 8, 70, 127
10, 93504, Note_on_c, 8, 66, 127
10, 93568, Note_off_c, 8, 66, 127
10, 93600, Note_on_c, 8, 67, 127
10, 93664, Note_off_c, 8, 67, 127
10, 93696, Note_on_c, 8, 60, 127
10, 93888, Note_off_c, 8, 60, 127
10, 93984, Note_on_c, 8, 62, 127
10, 94048, Note_off_c, 8, 62, 127
10, 94080, Note_on_c, 8, 64, 127
10, 94144, Note_off_c, 8, 64, 127
10, 94176, Note_on_c, 8, 67, 127
10, 94592, Note_off_c, 8, 67, 127
10, 94944, Note_on_c, 8, 77, 127
10, 95136, Note_off_c, 8, 77, 127
10, 95232, Note_on_c, 8, 77, 127
10, 95360, Note_off_c, 8, 77, 127
10, 95424, Note_on_c, 8, 77, 127
10, 95488, Note_off_c, 8, 77, 127
10, 95712, Note_on_c, 8, 59, 127
10, 95904, Note_off_c, 8, 59, 127
10, 95904, End_track
11, 0, Start_track
11, 0, Title_t, "_______Copyright Rob Horvath 1997"
11, 0, Control_c, 9, 0, 0
11, 0, Program_c, 9, 10
11, 0, Control_c, 9, 91, 48
11, 13824, Note_on_c, 9, 49, 100
11, 13824, Note_on_c, 9, 36, 100
11, 13952, Note_off_c, 9, 49, 100
11, 13952, Note_off_c, 9, 36, 100
11, 14112, Note_on_c, 9, 36, 100
11, 14176, Note_off_c, 9, 36, 100
11, 14208, Note_on_c, 9, 42, 100
11, 14208, Note_on_c, 9, 38, 100
11, 14336, Note_off_c, 9, 42, 100
11, 14336, Note_off_c, 9, 38, 100
11, 14400, Note_on_c, 9, 42, 100
11, 14496, Note_on_c, 9, 36, 100
11, 14528, Note_off_c, 9, 42, 100
11, 14560, Note_off_c, 9, 36, 100
11, 14592, Note_on_c, 9, 42, 100
11, 14592, Note_on_c, 9, 36, 100
11, 14720, Note_off_c, 9, 42, 100
11, 14720, Note_off_c, 9, 36, 100
11, 14784, Note_on_c, 9, 42, 100
11, 14848, Note_off_c, 9, 42, 100
11, 14880, Note_on_c, 9, 36, 100
11, 14944, Note_off_c, 9, 36, 100
11, 14976, Note_on_c, 9, 42, 100
11, 14976, Note_on_c, 9, 38, 100
11, 15104, Note_off_c, 9, 42, 100
11, 15104, Note_off_c, 9, 38, 100
11, 15168, Note_on_c, 9, 42, 100
11, 15168, Note_on_c, 9, 36, 100
11, 15296, Note_off_c, 9, 42, 100
11, 15296, Note_off_c, 9, 36, 100
11, 15360, Note_on_c, 9, 42, 100
11, 15360, Note_on_c, 9, 36, 100
11, 15488, Note_off_c, 9, 42, 100
11, 15488, Note_off_c, 9, 36, 100
11, 15552, Note_on_c, 9, 42, 100
11, 15616, Note_off_c, 9, 42, 100
11, 15648, Note_on_c, 9, 36, 100
11, 15712, Note_off_c, 9, 36, 100
11, 15744, Note_on_c, 9, 42, 100
11, 15744, Note_on_c, 9, 38, 100
11, 15872, Note_off_c, 9, 42, 100
11, 15872, Note_off_c, 9, 38, 100
11, 15936, Note_on_c, 9, 42, 100
11, 16032, Note_on_c, 9, 36, 100
11, 16064, Note_off_c, 9, 42, 100
11, 16096, Note_off_c, 9, 36, 100
11, 16128, Note_on_c, 9, 42, 100
11, 16128, Note_on_c, 9, 36, 100
11, 16256, Note_off_c, 9, 42, 100
11, 16256, Note_off_c, 9, 36, 100
11, 16320, Note_on_c, 9, 42, 100
11, 16384, Note_off_c, 9, 42, 100
11, 16416, Note_on_c, 9, 36, 100
11, 16480, Note_off_c, 9, 36, 100
11, 16512, Note_on_c, 9, 42, 100
11, 16512, Note_on_c, 9, 38, 100
11, 16640, Note_off_c, 9, 42, 100
11, 16640, Note_off_c, 9, 38, 100
11, 16704, Note_on_c, 9, 42, 100
11, 16832, Note_off_c, 9, 42, 100
11, 16896, Note_on_c, 9, 36, 100
11, 16896, Note_on_c, 9, 42, 100
11, 17024, Note_off_c, 9, 36, 100
11, 17024, Note_off_c, 9, 42, 100
11, 17088, Note_on_c, 9, 42, 100
11, 17152, Note_off_c, 9, 42, 100
11, 17184, Note_on_c, 9, 36, 100
11, 17248, Note_off_c, 9, 36, 100
11, 17280, Note_on_c, 9, 42, 100
11, 17280, Note_on_c, 9, 38, 100
11, 17408, Note_off_c, 9, 42, 100
11, 17408, Note_off_c, 9, 38, 100
11, 17472, Note_on_c, 9, 42, 100
11, 17568, Note_on_c, 9, 36, 100
11, 17600, Note_off_c, 9, 42, 100
11, 17632, Note_off_c, 9, 36, 100
11, 17664, Note_on_c, 9, 42, 100
11, 17664, Note_on_c, 9, 36, 100
11, 17792, Note_off_c, 9, 42, 100
11, 17792, Note_off_c, 9, 36, 100
11, 17856, Note_on_c, 9, 42, 100
11, 17920, Note_off_c, 9, 42, 100
11, 17952, Note_on_c, 9, 36, 100
11, 18016, Note_off_c, 9, 36, 100
11, 18048, Note_on_c, 9, 42, 100
11, 18048, Note_on_c, 9, 38, 100
11, 18176, Note_off_c, 9, 42, 100
11, 18176, Note_off_c, 9, 38, 100
11, 18240, Note_on_c, 9, 42, 100
11, 18240, Note_on_c, 9, 36, 100
11, 18368, Note_off_c, 9, 42, 100
11, 18368, Note_off_c, 9, 36, 100
11, 18432, Note_on_c, 9, 42, 100
11, 18432, Note_on_c, 9, 36, 100
11, 18560, Note_off_c, 9, 42, 100
11, 18560, Note_off_c, 9, 36, 100
11, 18624, Note_on_c, 9, 42, 100
11, 18688, Note_off_c, 9, 42, 100
11, 18720, Note_on_c, 9, 36, 100
11, 18784, Note_off_c, 9, 36, 100
11, 18816, Note_on_c, 9, 42, 100
11, 18816, Note_on_c, 9, 38, 100
11, 18944, Note_off_c, 9, 42, 100
11, 18944, Note_off_c, 9, 38, 100
11, 19008, Note_on_c, 9, 42, 100
11, 19104, Note_on_c, 9, 36, 100
11, 19136, Note_off_c, 9, 42, 100
11, 19168, Note_off_c, 9, 36, 100
11, 19200, Note_on_c, 9, 42, 100
11, 19200, Note_on_c, 9, 36, 100
11, 19328, Note_off_c, 9, 42, 100
11, 19328, Note_off_c, 9, 36, 100
11, 19392, Note_on_c, 9, 42, 100
11, 19456, Note_off_c, 9, 42, 100
11, 19488, Note_on_c, 9, 36, 100
11, 19552, Note_off_c, 9, 36, 100
11, 19584, Note_on_c, 9, 42, 100
11, 19584, Note_on_c, 9, 38, 100
11, 19712, Note_off_c, 9, 42, 100
11, 19712, Note_off_c, 9, 38, 100
11, 19776, Note_on_c, 9, 42, 100
11, 19904, Note_off_c, 9, 42, 100
11, 19968, Note_on_c, 9, 36, 100
11, 19968, Note_on_c, 9, 42, 100
11, 20096, Note_off_c, 9, 36, 100
11, 20096, Note_off_c, 9, 42, 100
11, 20160, Note_on_c, 9, 42, 100
11, 20224, Note_off_c, 9, 42, 100
11, 20256, Note_on_c, 9, 36, 100
11, 20320, Note_off_c, 9, 36, 100
11, 20352, Note_on_c, 9, 42, 100
11, 20352, Note_on_c, 9, 38, 100
11, 20480, Note_off_c, 9, 42, 100
11, 20480, Note_off_c, 9, 38, 100
11, 20544, Note_on_c, 9, 42, 100
11, 20640, Note_on_c, 9, 36, 100
11, 20672, Note_off_c, 9, 42, 100
11, 20704, Note_off_c, 9, 36, 100
11, 20736, Note_on_c, 9, 42, 100
11, 20736, Note_on_c, 9, 36, 100
11, 20864, Note_off_c, 9, 42, 100
11, 20864, Note_off_c, 9, 36, 100
11, 20928, Note_on_c, 9, 42, 100
11, 20992, Note_off_c, 9, 42, 100
11, 21024, Note_on_c, 9, 36, 100
11, 21088, Note_off_c, 9, 36, 100
11, 21120, Note_on_c, 9, 42, 100
11, 21120, Note_on_c, 9, 38, 100
11, 21248, Note_off_c, 9, 42, 100
11, 21248, Note_off_c, 9, 38, 100
11, 21312, Note_on_c, 9, 42, 100
11, 21312, Note_on_c, 9, 36, 100
11, 21440, Note_off_c, 9, 42, 100
11, 21440, Note_off_c, 9, 36, 100
11, 21504, Note_on_c, 9, 42, 100
11, 21504, Note_on_c, 9, 36, 100
11, 21632, Note_off_c, 9, 42, 100
11, 21632, Note_off_c, 9, 36, 100
11, 21696, Note_on_c, 9, 42, 100
11, 21760, Note_off_c, 9, 42, 100
11, 21792, Note_on_c, 9, 36, 100
11, 21856, Note_off_c, 9, 36, 100
11, 21888, Note_on_c, 9, 42, 100
11, 21888, Note_on_c, 9, 38, 100
11, 22016, Note_off_c, 9, 42, 100
11, 22016, Note_off_c, 9, 38, 100
11, 22080, Note_on_c, 9, 42, 100
11, 22176, Note_on_c, 9, 36, 100
11, 22208, Note_off_c, 9, 42, 100
11, 22240, Note_off_c, 9, 36, 100
11, 22272, Note_on_c, 9, 42, 100
11, 22272, Note_on_c, 9, 36, 100
11, 22400, Note_off_c, 9, 42, 100
11, 22400, Note_off_c, 9, 36, 100
11, 22464, Note_on_c, 9, 42, 100
11, 22528, Note_off_c, 9, 42, 100
11, 22560, Note_on_c, 9, 36, 100
11, 22624, Note_off_c, 9, 36, 100
11, 22656, Note_on_c, 9, 42, 100
11, 22656, Note_on_c, 9, 38, 100
11, 22784, Note_off_c, 9, 42, 100
11, 22784, Note_off_c, 9, 38, 100
11, 22848, Note_on_c, 9, 42, 100
11, 22976, Note_off_c, 9, 42, 100
11, 23040, Note_on_c, 9, 36, 100
11, 23040, Note_on_c, 9, 42, 100
11, 23168, Note_off_c, 9, 36, 100
11, 23168, Note_off_c, 9, 42, 100
11, 23232, Note_on_c, 9, 42, 100
11, 23296, Note_off_c, 9, 42, 100
11, 23328, Note_on_c, 9, 36, 100
11, 23392, Note_off_c, 9, 36, 100
11, 23424, Note_on_c, 9, 42, 100
11, 23424, Note_on_c, 9, 38, 100
11, 23552, Note_off_c, 9, 42, 100
11, 23552, Note_off_c, 9, 38, 100
11, 23616, Note_on_c, 9, 42, 100
11, 23712, Note_on_c, 9, 36, 100
11, 23744, Note_off_c, 9, 42, 100
11, 23776, Note_off_c, 9, 36, 100
11, 23808, Note_on_c, 9, 42, 100
11, 23808, Note_on_c, 9, 36, 100
11, 23936, Note_off_c, 9, 42, 100
11, 23936, Note_off_c, 9, 36, 100
11, 24000, Note_on_c, 9, 42, 100
11, 24064, Note_off_c, 9, 42, 100
11, 24096, Note_on_c, 9, 36, 100
11, 24160, Note_off_c, 9, 36, 100
11, 24192, Note_on_c, 9, 42, 100
11, 24192, Note_on_c, 9, 38, 100
11, 24320, Note_off_c, 9, 42, 100
11, 24320, Note_off_c, 9, 38, 100
11, 24384, Note_on_c, 9, 42, 100
11, 24384, Note_on_c, 9, 36, 100
11, 24512, Note_off_c, 9, 42, 100
11, 24512, Note_off_c, 9, 36, 100
11, 24576, Note_on_c, 9, 42, 100
11, 24576, Note_on_c, 9, 36, 100
11, 24704, Note_off_c, 9, 42, 100
11, 24704, Note_off_c, 9, 36, 100
11, 24768, Note_on_c, 9, 42, 100
11, 24832, Note_off_c, 9, 42, 100
11, 24864, Note_on_c, 9, 36, 100
11, 24928, Note_off_c, 9, 36, 100
11, 24960, Note_on_c, 9, 42, 100
11, 24960, Note_on_c, 9, 38, 100
11, 25088, Note_off_c, 9, 42, 100
11, 25088, Note_off_c, 9, 38, 100
11, 25152, Note_on_c, 9, 42, 100
11, 25248, Note_on_c, 9, 36, 100
11, 25280, Note_off_c, 9, 42, 100
11, 25312, Note_off_c, 9, 36, 100
11, 25344, Note_on_c, 9, 42, 100
11, 25344, Note_on_c, 9, 36, 100
11, 25472, Note_off_c, 9, 42, 100
11, 25472, Note_off_c, 9, 36, 100
11, 25536, Note_on_c, 9, 42, 100
11, 25600, Note_off_c, 9, 42, 100
11, 25632, Note_on_c, 9, 36, 100
11, 25696, Note_off_c, 9, 36, 100
11, 25728, Note_on_c, 9, 42, 100
11, 25728, Note_on_c, 9, 38, 100
11, 25856, Note_off_c, 9, 42, 100
11, 25856, Note_off_c, 9, 38, 100
11, 25920, Note_on_c, 9, 42, 100
11, 26048, Note_off_c, 9, 42, 100
11, 26112, Note_on_c, 9, 36, 100
11, 26112, Note_on_c, 9, 42, 100
11, 26240, Note_off_c, 9, 36, 100
11, 26240, Note_off_c, 9, 42, 100
11, 26304, Note_on_c, 9, 42, 100
11, 26368, Note_off_c, 9, 42, 100
11, 26400, Note_on_c, 9, 36, 100
11, 26464, Note_off_c, 9, 36, 100
11, 26496, Note_on_c, 9, 42, 100
11, 26496, Note_on_c, 9, 38, 100
11, 26624, Note_off_c, 9, 42, 100
11, 26624, Note_off_c, 9, 38, 100
11, 26688, Note_on_c, 9, 42, 100
11, 26784, Note_on_c, 9, 36, 100
11, 26816, Note_off_c, 9, 42, 100
11, 26848, Note_off_c, 9, 36, 100
11, 26880, Note_on_c, 9, 42, 100
11, 26880, Note_on_c, 9, 36, 100
11, 27008, Note_off_c, 9, 42, 100
11, 27008, Note_off_c, 9, 36, 100
11, 27072, Note_on_c, 9, 42, 100
11, 27136, Note_off_c, 9, 42, 100
11, 27168, Note_on_c, 9, 36, 100
11, 27232, Note_off_c, 9, 36, 100
11, 27264, Note_on_c, 9, 42, 100
11, 27264, Note_on_c, 9, 38, 100
11, 27392, Note_off_c, 9, 42, 100
11, 27392, Note_off_c, 9, 38, 100
11, 27456, Note_on_c, 9, 42, 100
11, 27456, Note_on_c, 9, 36, 100
11, 27584, Note_off_c, 9, 42, 100
11, 27584, Note_off_c, 9, 36, 100
11, 27648, Note_on_c, 9, 42, 100
11, 27648, Note_on_c, 9, 36, 100
11, 27776, Note_off_c, 9, 42, 100
11, 27776, Note_off_c, 9, 36, 100
11, 27840, Note_on_c, 9, 42, 100
11, 27904, Note_off_c, 9, 42, 100
11, 27936, Note_on_c, 9, 36, 100
11, 28000, Note_off_c, 9, 36, 100
11, 28032, Note_on_c, 9, 42, 100
11, 28032, Note_on_c, 9, 38, 100
11, 28160, Note_off_c, 9, 42, 100
11, 28160, Note_off_c, 9, 38, 100
11, 28224, Note_on_c, 9, 42, 100
11, 28320, Note_on_c, 9, 36, 100
11, 28352, Note_off_c, 9, 42, 100
11, 28384, Note_off_c, 9, 36, 100
11, 28416, Note_on_c, 9, 42, 100
11, 28416, Note_on_c, 9, 36, 100
11, 28544, Note_off_c, 9, 42, 100
11, 28544, Note_off_c, 9, 36, 100
11, 28608, Note_on_c, 9, 42, 100
11, 28672, Note_off_c, 9, 42, 100
11, 28704, Note_on_c, 9, 36, 100
11, 28768, Note_off_c, 9, 36, 100
11, 28800, Note_on_c, 9, 42, 100
11, 28800, Note_on_c, 9, 38, 100
11, 28928, Note_off_c, 9, 42, 100
11, 28928, Note_off_c, 9, 38, 100
11, 28992, Note_on_c, 9, 42, 100
11, 29120, Note_off_c, 9, 42, 100
11, 29184, Note_on_c, 9, 49, 100
11, 29184, Note_on_c, 9, 36, 100
11, 29312, Note_off_c, 9, 49, 100
11, 29312, Note_off_c, 9, 36, 100
11, 29376, Note_on_c, 9, 42, 100
11, 29376, Note_on_c, 9, 36, 100
11, 29504, Note_off_c, 9, 42, 100
11, 29504, Note_off_c, 9, 36, 100
11, 29568, Note_on_c, 9, 42, 100
11, 29568, Note_on_c, 9, 38, 100
11, 29696, Note_off_c, 9, 42, 100
11, 29696, Note_off_c, 9, 38, 100
11, 29760, Note_on_c, 9, 42, 100
11, 29888, Note_off_c, 9, 42, 100
11, 29952, Note_on_c, 9, 42, 100
11, 29952, Note_on_c, 9, 36, 100
11, 30080, Note_off_c, 9, 42, 100
11, 30080, Note_off_c, 9, 36, 100
11, 30144, Note_on_c, 9, 42, 100
11, 30144, Note_on_c, 9, 36, 100
11, 30272, Note_off_c, 9, 42, 100
11, 30272, Note_off_c, 9, 36, 100
11, 30336, Note_on_c, 9, 42, 100
11, 30336, Note_on_c, 9, 38, 100
11, 30464, Note_off_c, 9, 42, 100
11, 30464, Note_off_c, 9, 38, 100
11, 30528, Note_on_c, 9, 42, 100
11, 30656, Note_off_c, 9, 42, 100
11, 30720, Note_on_c, 9, 42, 100
11, 30720, Note_on_c, 9, 36, 100
11, 30848, Note_off_c, 9, 42, 100
11, 30848, Note_off_c, 9, 36, 100
11, 30912, Note_on_c, 9, 42, 100
11, 30912, Note_on_c, 9, 36, 100
11, 31040, Note_off_c, 9, 42, 100
11, 31040, Note_off_c, 9, 36, 100
11, 31104, Note_on_c, 9, 42, 100
11, 31104, Note_on_c, 9, 38, 100
11, 31232, Note_off_c, 9, 42, 100
11, 31232, Note_off_c, 9, 38, 100
11, 31296, Note_on_c, 9, 42, 100
11, 31424, Note_off_c, 9, 42, 100
11, 31488, Note_on_c, 9, 42, 100
11, 31488, Note_on_c, 9, 36, 100
11, 31616, Note_off_c, 9, 42, 100
11, 31616, Note_off_c, 9, 36, 100
11, 31680, Note_on_c, 9, 42, 100
11, 31680, Note_on_c, 9, 36, 100
11, 31808, Note_off_c, 9, 42, 100
11, 31808, Note_off_c, 9, 36, 100
11, 31872, Note_on_c, 9, 42, 100
11, 31872, Note_on_c, 9, 38, 100
11, 32000, Note_off_c, 9, 42, 100
11, 32000, Note_off_c, 9, 38, 100
11, 32064, Note_on_c, 9, 42, 100
11, 32064, Note_on_c, 9, 36, 100
11, 32192, Note_off_c, 9, 42, 100
11, 32192, Note_off_c, 9, 36, 100
11, 32256, Note_on_c, 9, 42, 100
11, 32256, Note_on_c, 9, 36, 100
11, 32384, Note_off_c, 9, 42, 100
11, 32384, Note_off_c, 9, 36, 100
11, 32448, Note_on_c, 9, 42, 100
11, 32512, Note_off_c, 9, 42, 100
11, 32544, Note_on_c, 9, 36, 100
11, 32608, Note_off_c, 9, 36, 100
11, 32640, Note_on_c, 9, 42, 100
11, 32640, Note_on_c, 9, 38, 100
11, 32768, Note_off_c, 9, 42, 100
11, 32768, Note_off_c, 9, 38, 100
11, 32832, Note_on_c, 9, 42, 100
11, 32960, Note_off_c, 9, 42, 100
11, 33024, Note_on_c, 9, 42, 100
11, 33024, Note_on_c, 9, 36, 100
11, 33152, Note_off_c, 9, 42, 100
11, 33152, Note_off_c, 9, 36, 100
11, 33216, Note_on_c, 9, 42, 100
11, 33216, Note_on_c, 9, 36, 100
11, 33344, Note_off_c, 9, 42, 100
11, 33344, Note_off_c, 9, 36, 100
11, 33408, Note_on_c, 9, 42, 100
11, 33408, Note_on_c, 9, 38, 100
11, 33536, Note_off_c, 9, 42, 100
11, 33536, Note_off_c, 9, 38, 100
11, 33600, Note_on_c, 9, 42, 100
11, 33728, Note_off_c, 9, 42, 100
11, 33792, Note_on_c, 9, 42, 100
11, 33792, Note_on_c, 9, 36, 100
11, 33920, Note_off_c, 9, 42, 100
11, 33920, Note_off_c, 9, 36, 100
11, 33984, Note_on_c, 9, 42, 100
11, 34048, Note_off_c, 9, 42, 100
11, 34080, Note_on_c, 9, 36, 100
11, 34144, Note_off_c, 9, 36, 100
11, 34176, Note_on_c, 9, 42, 100
11, 34176, Note_on_c, 9, 38, 100
11, 34304, Note_off_c, 9, 42, 100
11, 34304, Note_off_c, 9, 38, 100
11, 34368, Note_on_c, 9, 42, 100
11, 34496, Note_off_c, 9, 42, 100
11, 34560, Note_on_c, 9, 42, 100
11, 34560, Note_on_c, 9, 36, 100
11, 34688, Note_off_c, 9, 42, 100
11, 34688, Note_off_c, 9, 36, 100
11, 34752, Note_on_c, 9, 42, 100
11, 34752, Note_on_c, 9, 36, 100
11, 34880, Note_off_c, 9, 42, 100
11, 34880, Note_off_c, 9, 36, 100
11, 34944, Note_on_c, 9, 42, 100
11, 34944, Note_on_c, 9, 38, 100
11, 35072, Note_off_c, 9, 42, 100
11, 35072, Note_off_c, 9, 38, 100
11, 35136, Note_on_c, 9, 42, 100
11, 35136, Note_on_c, 9, 36, 100
11, 35264, Note_off_c, 9, 42, 100
11, 35264, Note_off_c, 9, 36, 100
11, 35328, Note_on_c, 9, 42, 100
11, 35328, Note_on_c, 9, 36, 100
11, 35456, Note_off_c, 9, 42, 100
11, 35456, Note_off_c, 9, 36, 100
11, 35520, Note_on_c, 9, 42, 100
11, 35584, Note_off_c, 9, 42, 100
11, 35616, Note_on_c, 9, 36, 100
11, 35680, Note_off_c, 9, 36, 100
11, 35712, Note_on_c, 9, 42, 100
11, 35712, Note_on_c, 9, 38, 100
11, 35840, Note_off_c, 9, 42, 100
11, 35840, Note_off_c, 9, 38, 100
11, 35904, Note_on_c, 9, 42, 100
11, 36032, Note_off_c, 9, 42, 100
11, 36096, Note_on_c, 9, 42, 100
11, 36096, Note_on_c, 9, 36, 100
11, 36224, Note_off_c, 9, 42, 100
11, 36224, Note_off_c, 9, 36, 100
11, 36288, Note_on_c, 9, 42, 100
11, 36288, Note_on_c, 9, 36, 100
11, 36416, Note_off_c, 9, 42, 100
11, 36416, Note_off_c, 9, 36, 100
11, 36480, Note_on_c, 9, 42, 100
11, 36480, Note_on_c, 9, 38, 100
11, 36608, Note_off_c, 9, 42, 100
11, 36608, Note_off_c, 9, 38, 100
11, 36672, Note_on_c, 9, 42, 100
11, 36800, Note_off_c, 9, 42, 100
11, 36864, Note_on_c, 9, 42, 100
11, 36864, Note_on_c, 9, 36, 100
11, 36992, Note_off_c, 9, 42, 100
11, 36992, Note_off_c, 9, 36, 100
11, 37056, Note_on_c, 9, 42, 100
11, 37120, Note_off_c, 9, 42, 100
11, 37152, Note_on_c, 9, 36, 100
11, 37216, Note_off_c, 9, 36, 100
11, 37248, Note_on_c, 9, 42, 100
11, 37248, Note_on_c, 9, 38, 100
11, 37376, Note_off_c, 9, 42, 100
11, 37376, Note_off_c, 9, 38, 100
11, 37440, Note_on_c, 9, 42, 100
11, 37568, Note_off_c, 9, 42, 100
11, 37632, Note_on_c, 9, 42, 100
11, 37632, Note_on_c, 9, 36, 100
11, 37760, Note_off_c, 9, 42, 100
11, 37760, Note_off_c, 9, 36, 100
11, 37824, Note_on_c, 9, 42, 100
11, 37824, Note_on_c, 9, 36, 100
11, 37952, Note_off_c, 9, 42, 100
11, 37952, Note_off_c, 9, 36, 100
11, 38016, Note_on_c, 9, 38, 100
11, 38080, Note_off_c, 9, 38, 100
11, 38112, Note_on_c, 9, 38, 100
11, 38240, Note_off_c, 9, 38, 100
11, 38304, Note_on_c, 9, 38, 100
11, 38368, Note_off_c, 9, 38, 100
11, 38400, Note_on_c, 9, 42, 100
11, 38400, Note_on_c, 9, 36, 100
11, 38528, Note_off_c, 9, 42, 100
11, 38528, Note_off_c, 9, 36, 100
11, 38592, Note_on_c, 9, 42, 100
11, 38656, Note_off_c, 9, 42, 100
11, 38688, Note_on_c, 9, 36, 100
11, 38752, Note_off_c, 9, 36, 100
11, 38784, Note_on_c, 9, 42, 100
11, 38784, Note_on_c, 9, 38, 100
11, 38912, Note_off_c, 9, 42, 100
11, 38912, Note_off_c, 9, 38, 100
11, 38976, Note_on_c, 9, 42, 100
11, 39104, Note_off_c, 9, 42, 100
11, 39168, Note_on_c, 9, 42, 100
11, 39168, Note_on_c, 9, 36, 100
11, 39296, Note_off_c, 9, 42, 100
11, 39296, Note_off_c, 9, 36, 100
11, 39360, Note_on_c, 9, 42, 100
11, 39360, Note_on_c, 9, 36, 100
11, 39488, Note_off_c, 9, 42, 100
11, 39488, Note_off_c, 9, 36, 100
11, 39552, Note_on_c, 9, 42, 100
11, 39552, Note_on_c, 9, 38, 100
11, 39680, Note_off_c, 9, 42, 100
11, 39680, Note_off_c, 9, 38, 100
11, 39744, Note_on_c, 9, 42, 100
11, 39872, Note_off_c, 9, 42, 100
11, 39936, Note_on_c, 9, 42, 100
11, 39936, Note_on_c, 9, 36, 100
11, 40064, Note_off_c, 9, 42, 100
11, 40064, Note_off_c, 9, 36, 100
11, 40128, Note_on_c, 9, 42, 100
11, 40192, Note_off_c, 9, 42, 100
11, 40224, Note_on_c, 9, 36, 100
11, 40288, Note_off_c, 9, 36, 100
11, 40320, Note_on_c, 9, 42, 100
11, 40320, Note_on_c, 9, 38, 100
11, 40448, Note_off_c, 9, 42, 100
11, 40448, Note_off_c, 9, 38, 100
11, 40512, Note_on_c, 9, 42, 100
11, 40640, Note_off_c, 9, 42, 100
11, 40704, Note_on_c, 9, 42, 100
11, 40704, Note_on_c, 9, 36, 100
11, 40832, Note_off_c, 9, 42, 100
11, 40832, Note_off_c, 9, 36, 100
11, 40896, Note_on_c, 9, 42, 100
11, 40896, Note_on_c, 9, 36, 100
11, 41024, Note_off_c, 9, 42, 100
11, 41024, Note_off_c, 9, 36, 100
11, 41088, Note_on_c, 9, 42, 100
11, 41088, Note_on_c, 9, 38, 100
11, 41216, Note_off_c, 9, 42, 100
11, 41216, Note_off_c, 9, 38, 100
11, 41280, Note_on_c, 9, 42, 100
11, 41280, Note_on_c, 9, 36, 100
11, 41408, Note_off_c, 9, 42, 100
11, 41408, Note_off_c, 9, 36, 100
11, 41472, Note_on_c, 9, 42, 100
11, 41472, Note_on_c, 9, 36, 100
11, 41600, Note_off_c, 9, 42, 100
11, 41600, Note_off_c, 9, 36, 100
11, 41664, Note_on_c, 9, 42, 100
11, 41728, Note_off_c, 9, 42, 100
11, 41760, Note_on_c, 9, 36, 100
11, 41824, Note_off_c, 9, 36, 100
11, 41856, Note_on_c, 9, 42, 100
11, 41856, Note_on_c, 9, 38, 100
11, 41984, Note_off_c, 9, 42, 100
11, 41984, Note_off_c, 9, 38, 100
11, 42048, Note_on_c, 9, 42, 100
11, 42176, Note_off_c, 9, 42, 100
11, 42240, Note_on_c, 9, 42, 100
11, 42240, Note_on_c, 9, 36, 100
11, 42368, Note_off_c, 9, 42, 100
11, 42368, Note_off_c, 9, 36, 100
11, 42432, Note_on_c, 9, 42, 100
11, 42432, Note_on_c, 9, 36, 100
11, 42560, Note_off_c, 9, 42, 100
11, 42560, Note_off_c, 9, 36, 100
11, 42624, Note_on_c, 9, 42, 100
11, 42624, Note_on_c, 9, 38, 100
11, 42752, Note_off_c, 9, 42, 100
11, 42752, Note_off_c, 9, 38, 100
11, 42816, Note_on_c, 9, 42, 100
11, 42944, Note_off_c, 9, 42, 100
11, 43008, Note_on_c, 9, 42, 100
11, 43008, Note_on_c, 9, 36, 100
11, 43136, Note_off_c, 9, 42, 100
11, 43136, Note_off_c, 9, 36, 100
11, 43200, Note_on_c, 9, 42, 100
11, 43264, Note_off_c, 9, 42, 100
11, 43296, Note_on_c, 9, 36, 100
11, 43360, Note_off_c, 9, 36, 100
11, 43392, Note_on_c, 9, 42, 100
11, 43392, Note_on_c, 9, 38, 100
11, 43520, Note_off_c, 9, 42, 100
11, 43520, Note_off_c, 9, 38, 100
11, 43584, Note_on_c, 9, 42, 100
11, 43712, Note_off_c, 9, 42, 100
11, 43776, Note_on_c, 9, 42, 100
11, 43776, Note_on_c, 9, 36, 100
11, 43904, Note_off_c, 9, 42, 100
11, 43904, Note_off_c, 9, 36, 100
11, 43968, Note_on_c, 9, 42, 100
11, 43968, Note_on_c, 9, 36, 100
11, 44096, Note_off_c, 9, 42, 100
11, 44096, Note_off_c, 9, 36, 100
11, 44160, Note_on_c, 9, 38, 100
11, 44224, Note_off_c, 9, 38, 100
11, 44256, Note_on_c, 9, 38, 100
11, 44384, Note_off_c, 9, 38, 100
11, 44448, Note_on_c, 9, 38, 100
11, 44512, Note_off_c, 9, 38, 100
11, 44544, Note_on_c, 9, 49, 100
11, 44544, Note_on_c, 9, 36, 100
11, 44672, Note_off_c, 9, 49, 100
11, 44672, Note_off_c, 9, 36, 100
11, 44832, Note_on_c, 9, 36, 100
11, 44896, Note_off_c, 9, 36, 100
11, 44928, Note_on_c, 9, 42, 100
11, 44928, Note_on_c, 9, 38, 100
11, 45056, Note_off_c, 9, 42, 100
11, 45056, Note_off_c, 9, 38, 100
11, 45120, Note_on_c, 9, 42, 100
11, 45216, Note_on_c, 9, 36, 100
11, 45248, Note_off_c, 9, 42, 100
11, 45280, Note_off_c, 9, 36, 100
11, 45312, Note_on_c, 9, 42, 100
11, 45312, Note_on_c, 9, 36, 100
11, 45440, Note_off_c, 9, 42, 100
11, 45440, Note_off_c, 9, 36, 100
11, 45504, Note_on_c, 9, 42, 100
11, 45568, Note_off_c, 9, 42, 100
11, 45600, Note_on_c, 9, 36, 100
11, 45664, Note_off_c, 9, 36, 100
11, 45696, Note_on_c, 9, 42, 100
11, 45696, Note_on_c, 9, 38, 100
11, 45824, Note_off_c, 9, 42, 100
11, 45824, Note_off_c, 9, 38, 100
11, 45888, Note_on_c, 9, 42, 100
11, 45888, Note_on_c, 9, 36, 100
11, 46016, Note_off_c, 9, 42, 100
11, 46016, Note_off_c, 9, 36, 100
11, 46080, Note_on_c, 9, 42, 100
11, 46080, Note_on_c, 9, 36, 100
11, 46208, Note_off_c, 9, 42, 100
11, 46208, Note_off_c, 9, 36, 100
11, 46272, Note_on_c, 9, 42, 100
11, 46336, Note_off_c, 9, 42, 100
11, 46368, Note_on_c, 9, 36, 100
11, 46432, Note_off_c, 9, 36, 100
11, 46464, Note_on_c, 9, 42, 100
11, 46464, Note_on_c, 9, 38, 100
11, 46592, Note_off_c, 9, 42, 100
11, 46592, Note_off_c, 9, 38, 100
11, 46656, Note_on_c, 9, 42, 100
11, 46752, Note_on_c, 9, 36, 100
11, 46784, Note_off_c, 9, 42, 100
11, 46816, Note_off_c, 9, 36, 100
11, 46848, Note_on_c, 9, 42, 100
11, 46848, Note_on_c, 9, 36, 100
11, 46976, Note_off_c, 9, 42, 100
11, 46976, Note_off_c, 9, 36, 100
11, 47040, Note_on_c, 9, 42, 100
11, 47104, Note_off_c, 9, 42, 100
11, 47136, Note_on_c, 9, 36, 100
11, 47200, Note_off_c, 9, 36, 100
11, 47232, Note_on_c, 9, 42, 100
11, 47232, Note_on_c, 9, 38, 100
11, 47360, Note_off_c, 9, 42, 100
11, 47360, Note_off_c, 9, 38, 100
11, 47424, Note_on_c, 9, 42, 100
11, 47552, Note_off_c, 9, 42, 100
11, 47616, Note_on_c, 9, 36, 100
11, 47616, Note_on_c, 9, 42, 100
11, 47744, Note_off_c, 9, 36, 100
11, 47744, Note_off_c, 9, 42, 100
11, 47808, Note_on_c, 9, 42, 100
11, 47872, Note_off_c, 9, 42, 100
11, 47904, Note_on_c, 9, 36, 100
11, 47968, Note_off_c, 9, 36, 100
11, 48000, Note_on_c, 9, 42, 100
11, 48000, Note_on_c, 9, 38, 100
11, 48128, Note_off_c, 9, 42, 100
11, 48128, Note_off_c, 9, 38, 100
11, 48192, Note_on_c, 9, 42, 100
11, 48288, Note_on_c, 9, 36, 100
11, 48320, Note_off_c, 9, 42, 100
11, 48352, Note_off_c, 9, 36, 100
11, 48384, Note_on_c, 9, 42, 100
11, 48384, Note_on_c, 9, 36, 100
11, 48512, Note_off_c, 9, 42, 100
11, 48512, Note_off_c, 9, 36, 100
11, 48576, Note_on_c, 9, 42, 100
11, 48640, Note_off_c, 9, 42, 100
11, 48672, Note_on_c, 9, 36, 100
11, 48736, Note_off_c, 9, 36, 100
11, 48768, Note_on_c, 9, 42, 100
11, 48768, Note_on_c, 9, 38, 100
11, 48896, Note_off_c, 9, 42, 100
11, 48896, Note_off_c, 9, 38, 100
11, 48960, Note_on_c, 9, 42, 100
11, 48960, Note_on_c, 9, 36, 100
11, 49088, Note_off_c, 9, 42, 100
11, 49088, Note_off_c, 9, 36, 100
11, 49152, Note_on_c, 9, 42, 100
11, 49152, Note_on_c, 9, 36, 100
11, 49280, Note_off_c, 9, 42, 100
11, 49280, Note_off_c, 9, 36, 100
11, 49344, Note_on_c, 9, 42, 100
11, 49408, Note_off_c, 9, 42, 100
11, 49440, Note_on_c, 9, 36, 100
11, 49504, Note_off_c, 9, 36, 100
11, 49536, Note_on_c, 9, 42, 100
11, 49536, Note_on_c, 9, 38, 100
11, 49664, Note_off_c, 9, 42, 100
11, 49664, Note_off_c, 9, 38, 100
11, 49728, Note_on_c, 9, 42, 100
11, 49824, Note_on_c, 9, 36, 100
11, 49856, Note_off_c, 9, 42, 100
11, 49888, Note_off_c, 9, 36, 100
11, 49920, Note_on_c, 9, 42, 100
11, 49920, Note_on_c, 9, 36, 100
11, 50048, Note_off_c, 9, 42, 100
11, 50048, Note_off_c, 9, 36, 100
11, 50112, Note_on_c, 9, 42, 100
11, 50176, Note_off_c, 9, 42, 100
11, 50208, Note_on_c, 9, 36, 100
11, 50272, Note_off_c, 9, 36, 100
11, 50304, Note_on_c, 9, 42, 100
11, 50304, Note_on_c, 9, 38, 100
11, 50432, Note_off_c, 9, 42, 100
11, 50432, Note_off_c, 9, 38, 100
11, 50496, Note_on_c, 9, 42, 100
11, 50624, Note_off_c, 9, 42, 100
11, 50688, Note_on_c, 9, 36, 100
11, 50688, Note_on_c, 9, 49, 100
11, 50816, Note_off_c, 9, 36, 100
11, 50816, Note_off_c, 9, 49, 100
11, 50880, Note_on_c, 9, 42, 100
11, 50944, Note_off_c, 9, 42, 100
11, 50976, Note_on_c, 9, 36, 100
11, 51040, Note_off_c, 9, 36, 100
11, 51072, Note_on_c, 9, 42, 100
11, 51072, Note_on_c, 9, 38, 100
11, 51200, Note_off_c, 9, 42, 100
11, 51200, Note_off_c, 9, 38, 100
11, 51264, Note_on_c, 9, 42, 100
11, 51360, Note_on_c, 9, 36, 100
11, 51392, Note_off_c, 9, 42, 100
11, 51424, Note_off_c, 9, 36, 100
11, 51456, Note_on_c, 9, 42, 100
11, 51456, Note_on_c, 9, 36, 100
11, 51584, Note_off_c, 9, 42, 100
11, 51584, Note_off_c, 9, 36, 100
11, 51648, Note_on_c, 9, 42, 100
11, 51712, Note_off_c, 9, 42, 100
11, 51744, Note_on_c, 9, 36, 100
11, 51808, Note_off_c, 9, 36, 100
11, 51840, Note_on_c, 9, 42, 100
11, 51840, Note_on_c, 9, 38, 100
11, 51968, Note_off_c, 9, 42, 100
11, 51968, Note_off_c, 9, 38, 100
11, 52032, Note_on_c, 9, 42, 100
11, 52032, Note_on_c, 9, 36, 100
11, 52160, Note_off_c, 9, 42, 100
11, 52160, Note_off_c, 9, 36, 100
11, 52224, Note_on_c, 9, 42, 100
11, 52224, Note_on_c, 9, 36, 100
11, 52352, Note_off_c, 9, 42, 100
11, 52352, Note_off_c, 9, 36, 100
11, 52416, Note_on_c, 9, 42, 100
11, 52480, Note_off_c, 9, 42, 100
11, 52512, Note_on_c, 9, 36, 100
11, 52576, Note_off_c, 9, 36, 100
11, 52608, Note_on_c, 9, 42, 100
11, 52608, Note_on_c, 9, 38, 100
11, 52736, Note_off_c, 9, 42, 100
11, 52736, Note_off_c, 9, 38, 100
11, 52800, Note_on_c, 9, 42, 100
11, 52896, Note_on_c, 9, 36, 100
11, 52928, Note_off_c, 9, 42, 100
11, 52960, Note_off_c, 9, 36, 100
11, 52992, Note_on_c, 9, 42, 100
11, 52992, Note_on_c, 9, 36, 100
11, 53120, Note_off_c, 9, 42, 100
11, 53120, Note_off_c, 9, 36, 100
11, 53184, Note_on_c, 9, 42, 100
11, 53248, Note_off_c, 9, 42, 100
11, 53280, Note_on_c, 9, 36, 100
11, 53344, Note_off_c, 9, 36, 100
11, 53376, Note_on_c, 9, 42, 100
11, 53376, Note_on_c, 9, 38, 100
11, 53504, Note_off_c, 9, 42, 100
11, 53504, Note_off_c, 9, 38, 100
11, 53568, Note_on_c, 9, 42, 100
11, 53696, Note_off_c, 9, 42, 100
11, 53760, Note_on_c, 9, 36, 100
11, 53760, Note_on_c, 9, 42, 100
11, 53888, Note_off_c, 9, 36, 100
11, 53888, Note_off_c, 9, 42, 100
11, 53952, Note_on_c, 9, 42, 100
11, 54016, Note_off_c, 9, 42, 100
11, 54048, Note_on_c, 9, 36, 100
11, 54112, Note_off_c, 9, 36, 100
11, 54144, Note_on_c, 9, 42, 100
11, 54144, Note_on_c, 9, 38, 100
11, 54272, Note_off_c, 9, 42, 100
11, 54272, Note_off_c, 9, 38, 100
11, 54336, Note_on_c, 9, 42, 100
11, 54432, Note_on_c, 9, 36, 100
11, 54464, Note_off_c, 9, 42, 100
11, 54496, Note_off_c, 9, 36, 100
11, 54528, Note_on_c, 9, 42, 100
11, 54528, Note_on_c, 9, 36, 100
11, 54656, Note_off_c, 9, 42, 100
11, 54656, Note_off_c, 9, 36, 100
11, 54720, Note_on_c, 9, 42, 100
11, 54784, Note_off_c, 9, 42, 100
11, 54816, Note_on_c, 9, 36, 100
11, 54880, Note_off_c, 9, 36, 100
11, 54912, Note_on_c, 9, 42, 100
11, 54912, Note_on_c, 9, 38, 100
11, 55040, Note_off_c, 9, 42, 100
11, 55040, Note_off_c, 9, 38, 100
11, 55104, Note_on_c, 9, 42, 100
11, 55104, Note_on_c, 9, 36, 100
11, 55232, Note_off_c, 9, 42, 100
11, 55232, Note_off_c, 9, 36, 100
11, 55296, Note_on_c, 9, 42, 100
11, 55296, Note_on_c, 9, 36, 100
11, 55424, Note_off_c, 9, 42, 100
11, 55424, Note_off_c, 9, 36, 100
11, 55488, Note_on_c, 9, 42, 100
11, 55552, Note_off_c, 9, 42, 100
11, 55584, Note_on_c, 9, 36, 100
11, 55648, Note_off_c, 9, 36, 100
11, 55680, Note_on_c, 9, 42, 100
11, 55680, Note_on_c, 9, 38, 100
11, 55808, Note_off_c, 9, 42, 100
11, 55808, Note_off_c, 9, 38, 100
11, 55872, Note_on_c, 9, 42, 100
11, 55968, Note_on_c, 9, 36, 100
11, 56000, Note_off_c, 9, 42, 100
11, 56032, Note_off_c, 9, 36, 100
11, 56064, Note_on_c, 9, 36, 100
11, 56128, Note_off_c, 9, 36, 100
11, 56160, Note_on_c, 9, 36, 100
11, 56224, Note_off_c, 9, 36, 100
11, 56256, Note_on_c, 9, 36, 100
11, 56320, Note_off_c, 9, 36, 100
11, 56352, Note_on_c, 9, 38, 100
11, 56416, Note_off_c, 9, 38, 100
11, 56448, Note_on_c, 9, 38, 100
11, 56512, Note_off_c, 9, 38, 100
11, 56544, Note_on_c, 9, 50, 100
11, 56608, Note_off_c, 9, 50, 100
11, 56640, Note_on_c, 9, 48, 100
11, 56704, Note_off_c, 9, 48, 100
11, 56736, Note_on_c, 9, 48, 100
11, 56800, Note_off_c, 9, 48, 100
11, 56832, Note_on_c, 9, 47, 100
11, 56896, Note_off_c, 9, 47, 100
11, 56928, Note_on_c, 9, 36, 100
11, 56992, Note_off_c, 9, 36, 100
11, 57024, Note_on_c, 9, 36, 100
11, 57088, Note_off_c, 9, 36, 100
11, 57120, Note_on_c, 9, 36, 100
11, 57184, Note_off_c, 9, 36, 100
11, 57216, Note_on_c, 9, 38, 100
11, 57344, Note_off_c, 9, 38, 100
11, 57408, Note_on_c, 9, 38, 100
11, 57536, Note_off_c, 9, 38, 100
11, 57600, Note_on_c, 9, 42, 100
11, 57600, Note_on_c, 9, 36, 100
11, 57728, Note_off_c, 9, 42, 100
11, 57728, Note_off_c, 9, 36, 100
11, 57792, Note_on_c, 9, 42, 100
11, 57856, Note_off_c, 9, 42, 100
11, 57888, Note_on_c, 9, 36, 100
11, 57952, Note_off_c, 9, 36, 100
11, 57984, Note_on_c, 9, 42, 100
11, 57984, Note_on_c, 9, 38, 100
11, 58112, Note_off_c, 9, 42, 100
11, 58112, Note_off_c, 9, 38, 100
11, 58176, Note_on_c, 9, 42, 100
11, 58304, Note_off_c, 9, 42, 100
11, 58368, Note_on_c, 9, 42, 100
11, 58368, Note_on_c, 9, 36, 100
11, 58496, Note_off_c, 9, 42, 100
11, 58496, Note_off_c, 9, 36, 100
11, 58560, Note_on_c, 9, 42, 100
11, 58560, Note_on_c, 9, 36, 100
11, 58688, Note_off_c, 9, 42, 100
11, 58688, Note_off_c, 9, 36, 100
11, 58752, Note_on_c, 9, 42, 100
11, 58752, Note_on_c, 9, 38, 100
11, 58880, Note_off_c, 9, 42, 100
11, 58880, Note_off_c, 9, 38, 100
11, 58944, Note_on_c, 9, 42, 100
11, 59072, Note_off_c, 9, 42, 100
11, 59136, Note_on_c, 9, 42, 100
11, 59136, Note_on_c, 9, 36, 100
11, 59264, Note_off_c, 9, 42, 100
11, 59264, Note_off_c, 9, 36, 100
11, 59328, Note_on_c, 9, 42, 100
11, 59392, Note_off_c, 9, 42, 100
11, 59424, Note_on_c, 9, 36, 100
11, 59488, Note_off_c, 9, 36, 100
11, 59520, Note_on_c, 9, 42, 100
11, 59520, Note_on_c, 9, 38, 100
11, 59648, Note_off_c, 9, 42, 100
11, 59648, Note_off_c, 9, 38, 100
11, 59712, Note_on_c, 9, 42, 100
11, 59840, Note_off_c, 9, 42, 100
11, 59904, Note_on_c, 9, 42, 100
11, 59904, Note_on_c, 9, 36, 100
11, 60032, Note_off_c, 9, 42, 100
11, 60032, Note_off_c, 9, 36, 100
11, 60096, Note_on_c, 9, 42, 100
11, 60096, Note_on_c, 9, 36, 100
11, 60224, Note_off_c, 9, 42, 100
11, 60224, Note_off_c, 9, 36, 100
11, 60288, Note_on_c, 9, 42, 100
11, 60288, Note_on_c, 9, 38, 100
11, 60416, Note_off_c, 9, 42, 100
11, 60416, Note_off_c, 9, 38, 100
11, 60480, Note_on_c, 9, 42, 100
11, 60480, Note_on_c, 9, 36, 100
11, 60608, Note_off_c, 9, 42, 100
11, 60608, Note_off_c, 9, 36, 100
11, 60672, Note_on_c, 9, 42, 100
11, 60672, Note_on_c, 9, 36, 100
11, 60800, Note_off_c, 9, 42, 100
11, 60800, Note_off_c, 9, 36, 100
11, 60864, Note_on_c, 9, 42, 100
11, 60928, Note_off_c, 9, 42, 100
11, 60960, Note_on_c, 9, 36, 100
11, 61024, Note_off_c, 9, 36, 100
11, 61056, Note_on_c, 9, 42, 100
11, 61056, Note_on_c, 9, 38, 100
11, 61184, Note_off_c, 9, 42, 100
11, 61184, Note_off_c, 9, 38, 100
11, 61248, Note_on_c, 9, 42, 100
11, 61376, Note_off_c, 9, 42, 100
11, 61440, Note_on_c, 9, 42, 100
11, 61440, Note_on_c, 9, 36, 100
11, 61568, Note_off_c, 9, 42, 100
11, 61568, Note_off_c, 9, 36, 100
11, 61632, Note_on_c, 9, 42, 100
11, 61632, Note_on_c, 9, 36, 100
11, 61760, Note_off_c, 9, 42, 100
11, 61760, Note_off_c, 9, 36, 100
11, 61824, Note_on_c, 9, 42, 100
11, 61824, Note_on_c, 9, 38, 100
11, 61952, Note_off_c, 9, 42, 100
11, 61952, Note_off_c, 9, 38, 100
11, 62016, Note_on_c, 9, 42, 100
11, 62144, Note_off_c, 9, 42, 100
11, 62208, Note_on_c, 9, 42, 100
11, 62208, Note_on_c, 9, 36, 100
11, 62336, Note_off_c, 9, 42, 100
11, 62336, Note_off_c, 9, 36, 100
11, 62400, Note_on_c, 9, 42, 100
11, 62464, Note_off_c, 9, 42, 100
11, 62496, Note_on_c, 9, 36, 100
11, 62560, Note_off_c, 9, 36, 100
11, 62592, Note_on_c, 9, 42, 100
11, 62592, Note_on_c, 9, 38, 100
11, 62720, Note_off_c, 9, 42, 100
11, 62720, Note_off_c, 9, 38, 100
11, 62784, Note_on_c, 9, 42, 100
11, 62912, Note_off_c, 9, 42, 100
11, 62976, Note_on_c, 9, 42, 100
11, 62976, Note_on_c, 9, 36, 100
11, 63104, Note_off_c, 9, 42, 100
11, 63104, Note_off_c, 9, 36, 100
11, 63168, Note_on_c, 9, 42, 100
11, 63168, Note_on_c, 9, 36, 100
11, 63296, Note_off_c, 9, 42, 100
11, 63296, Note_off_c, 9, 36, 100
11, 63360, Note_on_c, 9, 38, 100
11, 63424, Note_off_c, 9, 38, 100
11, 63456, Note_on_c, 9, 38, 100
11, 63584, Note_off_c, 9, 38, 100
11, 63648, Note_on_c, 9, 38, 100
11, 63712, Note_off_c, 9, 38, 100
11, 63744, Note_on_c, 9, 36, 100
11, 63744, Note_on_c, 9, 57, 100
11, 63872, Note_off_c, 9, 36, 100
11, 63872, Note_off_c, 9, 57, 100
11, 63936, Note_on_c, 9, 42, 100
11, 64000, Note_off_c, 9, 42, 100
11, 64032, Note_on_c, 9, 36, 100
11, 64096, Note_off_c, 9, 36, 100
11, 64128, Note_on_c, 9, 42, 100
11, 64128, Note_on_c, 9, 38, 100
11, 64256, Note_off_c, 9, 42, 100
11, 64256, Note_off_c, 9, 38, 100
11, 64320, Note_on_c, 9, 42, 100
11, 64448, Note_off_c, 9, 42, 100
11, 64512, Note_on_c, 9, 42, 100
11, 64512, Note_on_c, 9, 36, 100
11, 64640, Note_off_c, 9, 42, 100
11, 64640, Note_off_c, 9, 36, 100
11, 64704, Note_on_c, 9, 42, 100
11, 64704, Note_on_c, 9, 36, 100
11, 64832, Note_off_c, 9, 42, 100
11, 64832, Note_off_c, 9, 36, 100
11, 64896, Note_on_c, 9, 42, 100
11, 64896, Note_on_c, 9, 38, 100
11, 65024, Note_off_c, 9, 42, 100
11, 65024, Note_off_c, 9, 38, 100
11, 65088, Note_on_c, 9, 42, 100
11, 65216, Note_off_c, 9, 42, 100
11, 65280, Note_on_c, 9, 42, 100
11, 65280, Note_on_c, 9, 36, 100
11, 65408, Note_off_c, 9, 42, 100
11, 65408, Note_off_c, 9, 36, 100
11, 65472, Note_on_c, 9, 42, 100
11, 65536, Note_off_c, 9, 42, 100
11, 65568, Note_on_c, 9, 36, 100
11, 65632, Note_off_c, 9, 36, 100
11, 65664, Note_on_c, 9, 42, 100
11, 65664, Note_on_c, 9, 38, 100
11, 65792, Note_off_c, 9, 42, 100
11, 65792, Note_off_c, 9, 38, 100
11, 65856, Note_on_c, 9, 42, 100
11, 65984, Note_off_c, 9, 42, 100
11, 66048, Note_on_c, 9, 42, 100
11, 66048, Note_on_c, 9, 36, 100
11, 66176, Note_off_c, 9, 42, 100
11, 66176, Note_off_c, 9, 36, 100
11, 66240, Note_on_c, 9, 42, 100
11, 66240, Note_on_c, 9, 36, 100
11, 66368, Note_off_c, 9, 42, 100
11, 66368, Note_off_c, 9, 36, 100
11, 66432, Note_on_c, 9, 42, 100
11, 66432, Note_on_c, 9, 38, 100
11, 66560, Note_off_c, 9, 42, 100
11, 66560, Note_off_c, 9, 38, 100
11, 66624, Note_on_c, 9, 42, 100
11, 66624, Note_on_c, 9, 36, 100
11, 66752, Note_off_c, 9, 42, 100
11, 66752, Note_off_c, 9, 36, 100
11, 66816, Note_on_c, 9, 42, 100
11, 66816, Note_on_c, 9, 36, 100
11, 66944, Note_off_c, 9, 42, 100
11, 66944, Note_off_c, 9, 36, 100
11, 67008, Note_on_c, 9, 42, 100
11, 67072, Note_off_c, 9, 42, 100
11, 67104, Note_on_c, 9, 36, 100
11, 67168, Note_off_c, 9, 36, 100
11, 67200, Note_on_c, 9, 42, 100
11, 67200, Note_on_c, 9, 38, 100
11, 67328, Note_off_c, 9, 42, 100
11, 67328, Note_off_c, 9, 38, 100
11, 67392, Note_on_c, 9, 42, 100
11, 67520, Note_off_c, 9, 42, 100
11, 67584, Note_on_c, 9, 42, 100
11, 67584, Note_on_c, 9, 36, 100
11, 67712, Note_off_c, 9, 42, 100
11, 67712, Note_off_c, 9, 36, 100
11, 67776, Note_on_c, 9, 42, 100
11, 67776, Note_on_c, 9, 36, 100
11, 67904, Note_off_c, 9, 42, 100
11, 67904, Note_off_c, 9, 36, 100
11, 67968, Note_on_c, 9, 42, 100
11, 67968, Note_on_c, 9, 38, 100
11, 68096, Note_off_c, 9, 42, 100
11, 68096, Note_off_c, 9, 38, 100
11, 68160, Note_on_c, 9, 42, 100
11, 68288, Note_off_c, 9, 42, 100
11, 68352, Note_on_c, 9, 42, 100
11, 68352, Note_on_c, 9, 36, 100
11, 68480, Note_off_c, 9, 42, 100
11, 68480, Note_off_c, 9, 36, 100
11, 68544, Note_on_c, 9, 42, 100
11, 68608, Note_off_c, 9, 42, 100
11, 68640, Note_on_c, 9, 36, 100
11, 68704, Note_off_c, 9, 36, 100
11, 68736, Note_on_c, 9, 42, 100
11, 68736, Note_on_c, 9, 38, 100
11, 68864, Note_off_c, 9, 42, 100
11, 68864, Note_off_c, 9, 38, 100
11, 68928, Note_on_c, 9, 42, 100
11, 69056, Note_off_c, 9, 42, 100
11, 69120, Note_on_c, 9, 42, 100
11, 69120, Note_on_c, 9, 36, 100
11, 69248, Note_off_c, 9, 42, 100
11, 69248, Note_off_c, 9, 36, 100
11, 69312, Note_on_c, 9, 42, 100
11, 69312, Note_on_c, 9, 36, 100
11, 69440, Note_off_c, 9, 42, 100
11, 69440, Note_off_c, 9, 36, 100
11, 69504, Note_on_c, 9, 38, 100
11, 69568, Note_off_c, 9, 38, 100
11, 69600, Note_on_c, 9, 38, 100
11, 69728, Note_off_c, 9, 38, 100
11, 69792, Note_on_c, 9, 38, 100
11, 69856, Note_off_c, 9, 38, 100
11, 69888, Note_on_c, 9, 49, 100
11, 69888, Note_on_c, 9, 36, 100
11, 70016, Note_off_c, 9, 49, 100
11, 70016, Note_off_c, 9, 36, 100
11, 70176, Note_on_c, 9, 36, 100
11, 70240, Note_off_c, 9, 36, 100
11, 70272, Note_on_c, 9, 42, 100
11, 70272, Note_on_c, 9, 38, 100
11, 70400, Note_off_c, 9, 42, 100
11, 70400, Note_off_c, 9, 38, 100
11, 70464, Note_on_c, 9, 42, 100
11, 70560, Note_on_c, 9, 36, 100
11, 70592, Note_off_c, 9, 42, 100
11, 70624, Note_off_c, 9, 36, 100
11, 70656, Note_on_c, 9, 42, 100
11, 70656, Note_on_c, 9, 36, 100
11, 70784, Note_off_c, 9, 42, 100
11, 70784, Note_off_c, 9, 36, 100
11, 70848, Note_on_c, 9, 42, 100
11, 70912, Note_off_c, 9, 42, 100
11, 70944, Note_on_c, 9, 36, 100
11, 71008, Note_off_c, 9, 36, 100
11, 71040, Note_on_c, 9, 42, 100
11, 71040, Note_on_c, 9, 38, 100
11, 71168, Note_off_c, 9, 42, 100
11, 71168, Note_off_c, 9, 38, 100
11, 71232, Note_on_c, 9, 42, 100
11, 71232, Note_on_c, 9, 36, 100
11, 71360, Note_off_c, 9, 42, 100
11, 71360, Note_off_c, 9, 36, 100
11, 71424, Note_on_c, 9, 42, 100
11, 71424, Note_on_c, 9, 36, 100
11, 71552, Note_off_c, 9, 42, 100
11, 71552, Note_off_c, 9, 36, 100
11, 71616, Note_on_c, 9, 42, 100
11, 71680, Note_off_c, 9, 42, 100
11, 71712, Note_on_c, 9, 36, 100
11, 71776, Note_off_c, 9, 36, 100
11, 71808, Note_on_c, 9, 42, 100
11, 71808, Note_on_c, 9, 38, 100
11, 71936, Note_off_c, 9, 42, 100
11, 71936, Note_off_c, 9, 38, 100
11, 72000, Note_on_c, 9, 42, 100
11, 72096, Note_on_c, 9, 36, 100
11, 72128, Note_off_c, 9, 42, 100
11, 72160, Note_off_c, 9, 36, 100
11, 72192, Note_on_c, 9, 42, 100
11, 72192, Note_on_c, 9, 36, 100
11, 72320, Note_off_c, 9, 42, 100
11, 72320, Note_off_c, 9, 36, 100
11, 72384, Note_on_c, 9, 42, 100
11, 72448, Note_off_c, 9, 42, 100
11, 72480, Note_on_c, 9, 36, 100
11, 72544, Note_off_c, 9, 36, 100
11, 72576, Note_on_c, 9, 42, 100
11, 72576, Note_on_c, 9, 38, 100
11, 72704, Note_off_c, 9, 42, 100
11, 72704, Note_off_c, 9, 38, 100
11, 72768, Note_on_c, 9, 42, 100
11, 72896, Note_off_c, 9, 42, 100
11, 72960, Note_on_c, 9, 36, 100
11, 72960, Note_on_c, 9, 42, 100
11, 73088, Note_off_c, 9, 36, 100
11, 73088, Note_off_c, 9, 42, 100
11, 73152, Note_on_c, 9, 42, 100
11, 73216, Note_off_c, 9, 42, 100
11, 73248, Note_on_c, 9, 36, 100
11, 73312, Note_off_c, 9, 36, 100
11, 73344, Note_on_c, 9, 42, 100
11, 73344, Note_on_c, 9, 38, 100
11, 73472, Note_off_c, 9, 42, 100
11, 73472, Note_off_c, 9, 38, 100
11, 73536, Note_on_c, 9, 42, 100
11, 73632, Note_on_c, 9, 36, 100
11, 73664, Note_off_c, 9, 42, 100
11, 73696, Note_off_c, 9, 36, 100
11, 73728, Note_on_c, 9, 42, 100
11, 73728, Note_on_c, 9, 36, 100
11, 73856, Note_off_c, 9, 42, 100
11, 73856, Note_off_c, 9, 36, 100
11, 73920, Note_on_c, 9, 42, 100
11, 73984, Note_off_c, 9, 42, 100
11, 74016, Note_on_c, 9, 36, 100
11, 74080, Note_off_c, 9, 36, 100
11, 74112, Note_on_c, 9, 42, 100
11, 74112, Note_on_c, 9, 38, 100
11, 74240, Note_off_c, 9, 42, 100
11, 74240, Note_off_c, 9, 38, 100
11, 74304, Note_on_c, 9, 42, 100
11, 74304, Note_on_c, 9, 36, 100
11, 74432, Note_off_c, 9, 42, 100
11, 74432, Note_off_c, 9, 36, 100
11, 74496, Note_on_c, 9, 42, 100
11, 74496, Note_on_c, 9, 36, 100
11, 74624, Note_off_c, 9, 42, 100
11, 74624, Note_off_c, 9, 36, 100
11, 74688, Note_on_c, 9, 42, 100
11, 74752, Note_off_c, 9, 42, 100
11, 74784, Note_on_c, 9, 36, 100
11, 74848, Note_off_c, 9, 36, 100
11, 74880, Note_on_c, 9, 42, 100
11, 74880, Note_on_c, 9, 38, 100
11, 75008, Note_off_c, 9, 42, 100
11, 75008, Note_off_c, 9, 38, 100
11, 75072, Note_on_c, 9, 42, 100
11, 75168, Note_on_c, 9, 36, 100
11, 75200, Note_off_c, 9, 42, 100
11, 75232, Note_off_c, 9, 36, 100
11, 75264, Note_on_c, 9, 42, 100
11, 75264, Note_on_c, 9, 36, 100
11, 75392, Note_off_c, 9, 42, 100
11, 75392, Note_off_c, 9, 36, 100
11, 75456, Note_on_c, 9, 42, 100
11, 75520, Note_off_c, 9, 42, 100
11, 75552, Note_on_c, 9, 36, 100
11, 75616, Note_off_c, 9, 36, 100
11, 75648, Note_on_c, 9, 42, 100
11, 75648, Note_on_c, 9, 38, 100
11, 75776, Note_off_c, 9, 42, 100
11, 75776, Note_off_c, 9, 38, 100
11, 75840, Note_on_c, 9, 42, 100
11, 75968, Note_off_c, 9, 42, 100
11, 76032, Note_on_c, 9, 36, 100
11, 76032, Note_on_c, 9, 49, 100
11, 76160, Note_off_c, 9, 36, 100
11, 76160, Note_off_c, 9, 49, 100
11, 76224, Note_on_c, 9, 42, 100
11, 76288, Note_off_c, 9, 42, 100
11, 76320, Note_on_c, 9, 36, 100
11, 76384, Note_off_c, 9, 36, 100
11, 76416, Note_on_c, 9, 42, 100
11, 76416, Note_on_c, 9, 38, 100
11, 76544, Note_off_c, 9, 42, 100
11, 76544, Note_off_c, 9, 38, 100
11, 76608, Note_on_c, 9, 42, 100
11, 76704, Note_on_c, 9, 36, 100
11, 76736, Note_off_c, 9, 42, 100
11, 76768, Note_off_c, 9, 36, 100
11, 76800, Note_on_c, 9, 42, 100
11, 76800, Note_on_c, 9, 36, 100
11, 76928, Note_off_c, 9, 42, 100
11, 76928, Note_off_c, 9, 36, 100
11, 76992, Note_on_c, 9, 42, 100
11, 77056, Note_off_c, 9, 42, 100
11, 77088, Note_on_c, 9, 36, 100
11, 77152, Note_off_c, 9, 36, 100
11, 77184, Note_on_c, 9, 42, 100
11, 77184, Note_on_c, 9, 38, 100
11, 77312, Note_off_c, 9, 42, 100
11, 77312, Note_off_c, 9, 38, 100
11, 77376, Note_on_c, 9, 42, 100
11, 77376, Note_on_c, 9, 36, 100
11, 77504, Note_off_c, 9, 42, 100
11, 77504, Note_off_c, 9, 36, 100
11, 77568, Note_on_c, 9, 42, 100
11, 77568, Note_on_c, 9, 36, 100
11, 77696, Note_off_c, 9, 42, 100
11, 77696, Note_off_c, 9, 36, 100
11, 77760, Note_on_c, 9, 42, 100
11, 77824, Note_off_c, 9, 42, 100
11, 77856, Note_on_c, 9, 36, 100
11, 77920, Note_off_c, 9, 36, 100
11, 77952, Note_on_c, 9, 42, 100
11, 77952, Note_on_c, 9, 38, 100
11, 78080, Note_off_c, 9, 42, 100
11, 78080, Note_off_c, 9, 38, 100
11, 78144, Note_on_c, 9, 42, 100
11, 78240, Note_on_c, 9, 36, 100
11, 78272, Note_off_c, 9, 42, 100
11, 78304, Note_off_c, 9, 36, 100
11, 78336, Note_on_c, 9, 42, 100
11, 78336, Note_on_c, 9, 36, 100
11, 78464, Note_off_c, 9, 42, 100
11, 78464, Note_off_c, 9, 36, 100
11, 78528, Note_on_c, 9, 42, 100
11, 78592, Note_off_c, 9, 42, 100
11, 78624, Note_on_c, 9, 36, 100
11, 78688, Note_off_c, 9, 36, 100
11, 78720, Note_on_c, 9, 42, 100
11, 78720, Note_on_c, 9, 38, 100
11, 78848, Note_off_c, 9, 42, 100
11, 78848, Note_off_c, 9, 38, 100
11, 78912, Note_on_c, 9, 42, 100
11, 79040, Note_off_c, 9, 42, 100
11, 79104, Note_on_c, 9, 36, 100
11, 79104, Note_on_c, 9, 42, 100
11, 79232, Note_off_c, 9, 36, 100
11, 79232, Note_off_c, 9, 42, 100
11, 79296, Note_on_c, 9, 42, 100
11, 79360, Note_off_c, 9, 42, 100
11, 79392, Note_on_c, 9, 36, 100
11, 79456, Note_off_c, 9, 36, 100
11, 79488, Note_on_c, 9, 42, 100
11, 79488, Note_on_c, 9, 38, 100
11, 79616, Note_off_c, 9, 42, 100
11, 79616, Note_off_c, 9, 38, 100
11, 79680, Note_on_c, 9, 42, 100
11, 79776, Note_on_c, 9, 36, 100
11, 79808, Note_off_c, 9, 42, 100
11, 79840, Note_off_c, 9, 36, 100
11, 79872, Note_on_c, 9, 42, 100
11, 79872, Note_on_c, 9, 36, 100
11, 80000, Note_off_c, 9, 42, 100
11, 80000, Note_off_c, 9, 36, 100
11, 80064, Note_on_c, 9, 42, 100
11, 80128, Note_off_c, 9, 42, 100
11, 80160, Note_on_c, 9, 36, 100
11, 80224, Note_off_c, 9, 36, 100
11, 80256, Note_on_c, 9, 42, 100
11, 80256, Note_on_c, 9, 38, 100
11, 80384, Note_off_c, 9, 42, 100
11, 80384, Note_off_c, 9, 38, 100
11, 80448, Note_on_c, 9, 42, 100
11, 80448, Note_on_c, 9, 36, 100
11, 80576, Note_off_c, 9, 42, 100
11, 80576, Note_off_c, 9, 36, 100
11, 80640, Note_on_c, 9, 42, 100
11, 80640, Note_on_c, 9, 36, 100
11, 80768, Note_off_c, 9, 42, 100
11, 80768, Note_off_c, 9, 36, 100
11, 80832, Note_on_c, 9, 42, 100
11, 80896, Note_off_c, 9, 42, 100
11, 80928, Note_on_c, 9, 36, 100
11, 80992, Note_off_c, 9, 36, 100
11, 81024, Note_on_c, 9, 42, 100
11, 81024, Note_on_c, 9, 38, 100
11, 81152, Note_off_c, 9, 42, 100
11, 81152, Note_off_c, 9, 38, 100
11, 81216, Note_on_c, 9, 42, 100
11, 81312, Note_on_c, 9, 36, 100
11, 81344, Note_off_c, 9, 42, 100
11, 81376, Note_off_c, 9, 36, 100
11, 81408, Note_on_c, 9, 36, 100
11, 81472, Note_off_c, 9, 36, 100
11, 81504, Note_on_c, 9, 36, 100
11, 81568, Note_off_c, 9, 36, 100
11, 81600, Note_on_c, 9, 36, 100
11, 81664, Note_off_c, 9, 36, 100
11, 81696, Note_on_c, 9, 38, 100
11, 81760, Note_off_c, 9, 38, 100
11, 81792, Note_on_c, 9, 38, 100
11, 81856, Note_off_c, 9, 38, 100
11, 81888, Note_on_c, 9, 50, 100
11, 81952, Note_off_c, 9, 50, 100
11, 81984, Note_on_c, 9, 48, 100
11, 82048, Note_off_c, 9, 48, 100
11, 82080, Note_on_c, 9, 48, 100
11, 82144, Note_off_c, 9, 48, 100
11, 82176, Note_on_c, 9, 47, 100
11, 82240, Note_off_c, 9, 47, 100
11, 82272, Note_on_c, 9, 36, 100
11, 82336, Note_off_c, 9, 36, 100
11, 82368, Note_on_c, 9, 36, 100
11, 82432, Note_off_c, 9, 36, 100
11, 82464, Note_on_c, 9, 36, 100
11, 82528, Note_off_c, 9, 36, 100
11, 82560, Note_on_c, 9, 38, 100
11, 82688, Note_off_c, 9, 38, 100
11, 82752, Note_on_c, 9, 38, 100
11, 82816, Note_off_c, 9, 38, 100
11, 82848, Note_on_c, 9, 38, 100
11, 82912, Note_off_c, 9, 38, 100
11, 82944, Note_on_c, 9, 49, 100
11, 82944, Note_on_c, 9, 36, 100
11, 83072, Note_off_c, 9, 49, 100
11, 83072, Note_off_c, 9, 36, 100
11, 83232, Note_on_c, 9, 36, 100
11, 83296, Note_off_c, 9, 36, 100
11, 83328, Note_on_c, 9, 42, 100
11, 83328, Note_on_c, 9, 38, 100
11, 83456, Note_off_c, 9, 42, 100
11, 83456, Note_off_c, 9, 38, 100
11, 83520, Note_on_c, 9, 42, 100
11, 83616, Note_on_c, 9, 36, 100
11, 83648, Note_off_c, 9, 42, 100
11, 83680, Note_off_c, 9, 36, 100
11, 83712, Note_on_c, 9, 42, 100
11, 83712, Note_on_c, 9, 36, 100
11, 83840, Note_off_c, 9, 42, 100
11, 83840, Note_off_c, 9, 36, 100
11, 83904, Note_on_c, 9, 42, 100
11, 83968, Note_off_c, 9, 42, 100
11, 84000, Note_on_c, 9, 36, 100
11, 84064, Note_off_c, 9, 36, 100
11, 84096, Note_on_c, 9, 42, 100
11, 84096, Note_on_c, 9, 38, 100
11, 84224, Note_off_c, 9, 42, 100
11, 84224, Note_off_c, 9, 38, 100
11, 84288, Note_on_c, 9, 42, 100
11, 84288, Note_on_c, 9, 36, 100
11, 84416, Note_off_c, 9, 42, 100
11, 84416, Note_off_c, 9, 36, 100
11, 84480, Note_on_c, 9, 42, 100
11, 84480, Note_on_c, 9, 36, 100
11, 84608, Note_off_c, 9, 42, 100
11, 84608, Note_off_c, 9, 36, 100
11, 84672, Note_on_c, 9, 42, 100
11, 84736, Note_off_c, 9, 42, 100
11, 84768, Note_on_c, 9, 36, 100
11, 84832, Note_off_c, 9, 36, 100
11, 84864, Note_on_c, 9, 42, 100
11, 84864, Note_on_c, 9, 38, 100
11, 84992, Note_off_c, 9, 42, 100
11, 84992, Note_off_c, 9, 38, 100
11, 85056, Note_on_c, 9, 42, 100
11, 85152, Note_on_c, 9, 36, 100
11, 85184, Note_off_c, 9, 42, 100
11, 85216, Note_off_c, 9, 36, 100
11, 85248, Note_on_c, 9, 42, 100
11, 85248, Note_on_c, 9, 36, 100
11, 85376, Note_off_c, 9, 42, 100
11, 85376, Note_off_c, 9, 36, 100
11, 85440, Note_on_c, 9, 42, 100
11, 85504, Note_off_c, 9, 42, 100
11, 85536, Note_on_c, 9, 36, 100
11, 85600, Note_off_c, 9, 36, 100
11, 85632, Note_on_c, 9, 42, 100
11, 85632, Note_on_c, 9, 38, 100
11, 85760, Note_off_c, 9, 42, 100
11, 85760, Note_off_c, 9, 38, 100
11, 85824, Note_on_c, 9, 42, 100
11, 85952, Note_off_c, 9, 42, 100
11, 86016, Note_on_c, 9, 36, 100
11, 86016, Note_on_c, 9, 42, 100
11, 86144, Note_off_c, 9, 36, 100
11, 86144, Note_off_c, 9, 42, 100
11, 86208, Note_on_c, 9, 42, 100
11, 86272, Note_off_c, 9, 42, 100
11, 86304, Note_on_c, 9, 36, 100
11, 86368, Note_off_c, 9, 36, 100
11, 86400, Note_on_c, 9, 42, 100
11, 86400, Note_on_c, 9, 38, 100
11, 86528, Note_off_c, 9, 42, 100
11, 86528, Note_off_c, 9, 38, 100
11, 86592, Note_on_c, 9, 42, 100
11, 86688, Note_on_c, 9, 36, 100
11, 86720, Note_off_c, 9, 42, 100
11, 86752, Note_off_c, 9, 36, 100
11, 86784, Note_on_c, 9, 42, 100
11, 86784, Note_on_c, 9, 36, 100
11, 86912, Note_off_c, 9, 42, 100
11, 86912, Note_off_c, 9, 36, 100
11, 86976, Note_on_c, 9, 42, 100
11, 87040, Note_off_c, 9, 42, 100
11, 87072, Note_on_c, 9, 36, 100
11, 87136, Note_off_c, 9, 36, 100
11, 87168, Note_on_c, 9, 42, 100
11, 87168, Note_on_c, 9, 38, 100
11, 87296, Note_off_c, 9, 42, 100
11, 87296, Note_off_c, 9, 38, 100
11, 87360, Note_on_c, 9, 42, 100
11, 87360, Note_on_c, 9, 36, 100
11, 87488, Note_off_c, 9, 42, 100
11, 87488, Note_off_c, 9, 36, 100
11, 87552, Note_on_c, 9, 42, 100
11, 87552, Note_on_c, 9, 36, 100
11, 87680, Note_off_c, 9, 42, 100
11, 87680, Note_off_c, 9, 36, 100
11, 87744, Note_on_c, 9, 42, 100
11, 87808, Note_off_c, 9, 42, 100
11, 87840, Note_on_c, 9, 36, 100
11, 87904, Note_off_c, 9, 36, 100
11, 87936, Note_on_c, 9, 42, 100
11, 87936, Note_on_c, 9, 38, 100
11, 88064, Note_off_c, 9, 42, 100
11, 88064, Note_off_c, 9, 38, 100
11, 88128, Note_on_c, 9, 42, 100
11, 88224, Note_on_c, 9, 36, 100
11, 88256, Note_off_c, 9, 42, 100
11, 88288, Note_off_c, 9, 36, 100
11, 88320, Note_on_c, 9, 42, 100
11, 88320, Note_on_c, 9, 36, 100
11, 88448, Note_off_c, 9, 42, 100
11, 88448, Note_off_c, 9, 36, 100
11, 88512, Note_on_c, 9, 42, 100
11, 88576, Note_off_c, 9, 42, 100
11, 88608, Note_on_c, 9, 36, 100
11, 88672, Note_off_c, 9, 36, 100
11, 88704, Note_on_c, 9, 42, 100
11, 88704, Note_on_c, 9, 38, 100
11, 88832, Note_off_c, 9, 42, 100
11, 88832, Note_off_c, 9, 38, 100
11, 88896, Note_on_c, 9, 42, 100
11, 89024, Note_off_c, 9, 42, 100
11, 89088, Note_on_c, 9, 36, 100
11, 89088, Note_on_c, 9, 49, 100
11, 89216, Note_off_c, 9, 36, 100
11, 89216, Note_off_c, 9, 49, 100
11, 89280, Note_on_c, 9, 42, 100
11, 89344, Note_off_c, 9, 42, 100
11, 89376, Note_on_c, 9, 36, 100
11, 89440, Note_off_c, 9, 36, 100
11, 89472, Note_on_c, 9, 42, 100
11, 89472, Note_on_c, 9, 38, 100
11, 89600, Note_off_c, 9, 42, 100
11, 89600, Note_off_c, 9, 38, 100
11, 89664, Note_on_c, 9, 42, 100
11, 89760, Note_on_c, 9, 36, 100
11, 89792, Note_off_c, 9, 42, 100
11, 89824, Note_off_c, 9, 36, 100
11, 89856, Note_on_c, 9, 42, 100
11, 89856, Note_on_c, 9, 36, 100
11, 89984, Note_off_c, 9, 42, 100
11, 89984, Note_off_c, 9, 36, 100
11, 90048, Note_on_c, 9, 42, 100
11, 90112, Note_off_c, 9, 42, 100
11, 90144, Note_on_c, 9, 36, 100
11, 90208, Note_off_c, 9, 36, 100
11, 90240, Note_on_c, 9, 42, 100
11, 90240, Note_on_c, 9, 38, 100
11, 90368, Note_off_c, 9, 42, 100
11, 90368, Note_off_c, 9, 38, 100
11, 90432, Note_on_c, 9, 42, 100
11, 90432, Note_on_c, 9, 36, 100
11, 90560, Note_off_c, 9, 42, 100
11, 90560, Note_off_c, 9, 36, 100
11, 90624, Note_on_c, 9, 42, 100
11, 90624, Note_on_c, 9, 36, 100
11, 90752, Note_off_c, 9, 42, 100
11, 90752, Note_off_c, 9, 36, 100
11, 90816, Note_on_c, 9, 42, 100
11, 90880, Note_off_c, 9, 42, 100
11, 90912, Note_on_c, 9, 36, 100
11, 90976, Note_off_c, 9, 36, 100
11, 91008, Note_on_c, 9, 42, 100
11, 91008, Note_on_c, 9, 38, 100
11, 91136, Note_off_c, 9, 42, 100
11, 91136, Note_off_c, 9, 38, 100
11, 91200, Note_on_c, 9, 42, 100
11, 91296, Note_on_c, 9, 36, 100
11, 91328, Note_off_c, 9, 42, 100
11, 91360, Note_off_c, 9, 36, 100
11, 91392, Note_on_c, 9, 42, 100
11, 91392, Note_on_c, 9, 36, 100
11, 91520, Note_off_c, 9, 42, 100
11, 91520, Note_off_c, 9, 36, 100
11, 91584, Note_on_c, 9, 42, 100
11, 91648, Note_off_c, 9, 42, 100
11, 91680, Note_on_c, 9, 36, 100
11, 91744, Note_off_c, 9, 36, 100
11, 91776, Note_on_c, 9, 42, 100
11, 91776, Note_on_c, 9, 38, 100
11, 91904, Note_off_c, 9, 42, 100
11, 91904, Note_off_c, 9, 38, 100
11, 91968, Note_on_c, 9, 42, 100
11, 92096, Note_off_c, 9, 42, 100
11, 92160, Note_on_c, 9, 36, 100
11, 92160, Note_on_c, 9, 42, 100
11, 92288, Note_off_c, 9, 36, 100
11, 92288, Note_off_c, 9, 42, 100
11, 92352, Note_on_c, 9, 42, 100
11, 92416, Note_off_c, 9, 42, 100
11, 92448, Note_on_c, 9, 36, 100
11, 92512, Note_off_c, 9, 36, 100
11, 92544, Note_on_c, 9, 42, 100
11, 92544, Note_on_c, 9, 38, 100
11, 92672, Note_off_c, 9, 42, 100
11, 92672, Note_off_c, 9, 38, 100
11, 92736, Note_on_c, 9, 42, 100
11, 92832, Note_on_c, 9, 36, 100
11, 92864, Note_off_c, 9, 42, 100
11, 92896, Note_off_c, 9, 36, 100
11, 92928, Note_on_c, 9, 42, 100
11, 92928, Note_on_c, 9, 36, 100
11, 93056, Note_off_c, 9, 42, 100
11, 93056, Note_off_c, 9, 36, 100
11, 93120, Note_on_c, 9, 42, 100
11, 93184, Note_off_c, 9, 42, 100
11, 93216, Note_on_c, 9, 36, 100
11, 93280, Note_off_c, 9, 36, 100
11, 93312, Note_on_c, 9, 42, 100
11, 93312, Note_on_c, 9, 38, 100
11, 93440, Note_off_c, 9, 42, 100
11, 93440, Note_off_c, 9, 38, 100
11, 93504, Note_on_c, 9, 42, 100
11, 93504, Note_on_c, 9, 36, 100
11, 93632, Note_off_c, 9, 42, 100
11, 93632, Note_off_c, 9, 36, 100
11, 93696, Note_on_c, 9, 42, 100
11, 93696, Note_on_c, 9, 36, 100
11, 93824, Note_off_c, 9, 42, 100
11, 93824, Note_off_c, 9, 36, 100
11, 93888, Note_on_c, 9, 42, 100
11, 93952, Note_off_c, 9, 42, 100
11, 93984, Note_on_c, 9, 36, 100
11, 94048, Note_off_c, 9, 36, 100
11, 94080, Note_on_c, 9, 42, 100
11, 94080, Note_on_c, 9, 38, 100
11, 94208, Note_off_c, 9, 42, 100
11, 94208, Note_off_c, 9, 38, 100
11, 94272, Note_on_c, 9, 42, 100
11, 94368, Note_on_c, 9, 36, 100
11, 94400, Note_off_c, 9, 42, 100
11, 94432, Note_off_c, 9, 36, 100
11, 94464, Note_on_c, 9, 36, 100
11, 94528, Note_off_c, 9, 36, 100
11, 94560, Note_on_c, 9, 36, 100
11, 94624, Note_off_c, 9, 36, 100
11, 94656, Note_on_c, 9, 36, 100
11, 94720, Note_off_c, 9, 36, 100
11, 94752, Note_on_c, 9, 38, 100
11, 94816, Note_off_c, 9, 38, 100
11, 94848, Note_on_c, 9, 38, 100
11, 94912, Note_off_c, 9, 38, 100
11, 94944, Note_on_c, 9, 50, 100
11, 95008, Note_off_c, 9, 50, 100
11, 95040, Note_on_c, 9, 48, 100
11, 95104, Note_off_c, 9, 48, 100
11, 95136, Note_on_c, 9, 48, 100
11, 95200, Note_off_c, 9, 48, 100
11, 95232, Note_on_c, 9, 47, 100
11, 95296, Note_off_c, 9, 47, 100
11, 95328, Note_on_c, 9, 36, 100
11, 95392, Note_off_c, 9, 36, 100
11, 95424, Note_on_c, 9, 36, 100
11, 95488, Note_off_c, 9, 36, 100
11, 95520, Note_on_c, 9, 36, 100
11, 95584, Note_off_c, 9, 36, 100
11, 95616, Note_on_c, 9, 38, 100
11, 95744, Note_off_c, 9, 38, 100
11, 95808, Note_on_c, 9, 38, 100
11, 95936, Note_off_c, 9, 38, 100
11, 96000, Note_on_c, 9, 36, 100
11, 96000, Note_on_c, 9, 57, 100
11, 96128, Note_off_c, 9, 36, 100
11, 96128, Note_off_c, 9, 57, 100
11, 96192, Note_on_c, 9, 42, 100
11, 96256, Note_off_c, 9, 42, 100
11, 96288, Note_on_c, 9, 36, 100
11, 96352, Note_off_c, 9, 36, 100
11, 96384, Note_on_c, 9, 42, 100
11, 96384, Note_on_c, 9, 38, 100
11, 96512, Note_off_c, 9, 42, 100
11, 96512, Note_off_c, 9, 38, 100
11, 96576, Note_on_c, 9, 42, 100
11, 96704, Note_off_c, 9, 42, 100
11, 96768, Note_on_c, 9, 42, 100
11, 96768, Note_on_c, 9, 36, 100
11, 96896, Note_off_c, 9, 42, 100
11, 96896, Note_off_c, 9, 36, 100
11, 96960, Note_on_c, 9, 42, 100
11, 96960, Note_on_c, 9, 36, 100
11, 97088, Note_off_c, 9, 42, 100
11, 97088, Note_off_c, 9, 36, 100
11, 97152, Note_on_c, 9, 42, 100
11, 97152, Note_on_c, 9, 38, 100
11, 97280, Note_off_c, 9, 42, 100
11, 97280, Note_off_c, 9, 38, 100
11, 97344, Note_on_c, 9, 42, 100
11, 97472, Note_off_c, 9, 42, 100
11, 97536, Note_on_c, 9, 42, 100
11, 97536, Note_on_c, 9, 36, 100
11, 97664, Note_off_c, 9, 42, 100
11, 97664, Note_off_c, 9, 36, 100
11, 97728, Note_on_c, 9, 42, 100
11, 97792, Note_off_c, 9, 42, 100
11, 97824, Note_on_c, 9, 36, 100
11, 97888, Note_off_c, 9, 36, 100
11, 97920, Note_on_c, 9, 42, 100
11, 97920, Note_on_c, 9, 38, 100
11, 98048, Note_off_c, 9, 42, 100
11, 98048, Note_off_c, 9, 38, 100
11, 98112, Note_on_c, 9, 42, 100
11, 98240, Note_off_c, 9, 42, 100
11, 98304, Note_on_c, 9, 42, 100
11, 98304, Note_on_c, 9, 36, 100
11, 98432, Note_off_c, 9, 42, 100
11, 98432, Note_off_c, 9, 36, 100
11, 98496, Note_on_c, 9, 42, 100
11, 98496, Note_on_c, 9, 36, 100
11, 98624, Note_off_c, 9, 42, 100
11, 98624, Note_off_c, 9, 36, 100
11, 98688, Note_on_c, 9, 42, 100
11, 98688, Note_on_c, 9, 38, 100
11, 98816, Note_off_c, 9, 42, 100
11, 98816, Note_off_c, 9, 38, 100
11, 98880, Note_on_c, 9, 42, 100
11, 98880, Note_on_c, 9, 36, 100
11, 99008, Note_off_c, 9, 42, 100
11, 99008, Note_off_c, 9, 36, 100
11, 99072, Note_on_c, 9, 42, 100
11, 99072, Note_on_c, 9, 36, 100
11, 99200, Note_off_c, 9, 42, 100
11, 99200, Note_off_c, 9, 36, 100
11, 99264, Note_on_c, 9, 42, 100
11, 99328, Note_off_c, 9, 42, 100
11, 99360, Note_on_c, 9, 36, 100
11, 99424, Note_off_c, 9, 36, 100
11, 99456, Note_on_c, 9, 42, 100
11, 99456, Note_on_c, 9, 38, 100
11, 99584, Note_off_c, 9, 42, 100
11, 99584, Note_off_c, 9, 38, 100
11, 99648, Note_on_c, 9, 42, 100
11, 99776, Note_off_c, 9, 42, 100
11, 99840, Note_on_c, 9, 42, 100
11, 99840, Note_on_c, 9, 36, 100
11, 99968, Note_off_c, 9, 42, 100
11, 99968, Note_off_c, 9, 36, 100
11, 100032, Note_on_c, 9, 42, 100
11, 100032, Note_on_c, 9, 36, 100
11, 100160, Note_off_c, 9, 42, 100
11, 100160, Note_off_c, 9, 36, 100
11, 100224, Note_on_c, 9, 42, 100
11, 100224, Note_on_c, 9, 38, 100
11, 100352, Note_off_c, 9, 42, 100
11, 100352, Note_off_c, 9, 38, 100
11, 100416, Note_on_c, 9, 42, 100
11, 100544, Note_off_c, 9, 42, 100
11, 100608, Note_on_c, 9, 42, 100
11, 100608, Note_on_c, 9, 36, 100
11, 100736, Note_off_c, 9, 42, 100
11, 100736, Note_off_c, 9, 36, 100
11, 100800, Note_on_c, 9, 42, 100
11, 100864, Note_off_c, 9, 42, 100
11, 100896, Note_on_c, 9, 36, 100
11, 100960, Note_off_c, 9, 36, 100
11, 100992, Note_on_c, 9, 42, 100
11, 100992, Note_on_c, 9, 38, 100
11, 101120, Note_off_c, 9, 42, 100
11, 101120, Note_off_c, 9, 38, 100
11, 101184, Note_on_c, 9, 42, 100
11, 101312, Note_off_c, 9, 42, 100
11, 101376, Note_on_c, 9, 42, 100
11, 101376, Note_on_c, 9, 36, 100
11, 101504, Note_off_c, 9, 42, 100
11, 101504, Note_off_c, 9, 36, 100
11, 101568, Note_on_c, 9, 42, 100
11, 101568, Note_on_c, 9, 36, 100
11, 101696, Note_off_c, 9, 42, 100
11, 101696, Note_off_c, 9, 36, 100
11, 101760, Note_on_c, 9, 38, 100
11, 101824, Note_off_c, 9, 38, 100
11, 101856, Note_on_c, 9, 38, 100
11, 101920, Note_off_c, 9, 38, 100
11, 101952, Note_on_c, 9, 38, 100
11, 102016, Note_off_c, 9, 38, 100
11, 102144, Note_on_c, 9, 36, 100
11, 102144, Note_on_c, 9, 57, 100
11, 102272, Note_off_c, 9, 36, 100
11, 102272, Note_off_c, 9, 57, 100
11, 102336, Note_on_c, 9, 42, 100
11, 102400, Note_off_c, 9, 42, 100
11, 102432, Note_on_c, 9, 36, 100
11, 102496, Note_off_c, 9, 36, 100
11, 102528, Note_on_c, 9, 42, 100
11, 102528, Note_on_c, 9, 38, 100
11, 102656, Note_off_c, 9, 42, 100
11, 102656, Note_off_c, 9, 38, 100
11, 102720, Note_on_c, 9, 42, 100
11, 102848, Note_off_c, 9, 42, 100
11, 102912, Note_on_c, 9, 42, 100
11, 102912, Note_on_c, 9, 36, 100
11, 103040, Note_off_c, 9, 42, 100
11, 103040, Note_off_c, 9, 36, 100
11, 103104, Note_on_c, 9, 42, 100
11, 103104, Note_on_c, 9, 36, 100
11, 103232, Note_off_c, 9, 42, 100
11, 103232, Note_off_c, 9, 36, 100
11, 103296, Note_on_c, 9, 42, 100
11, 103296, Note_on_c, 9, 38, 100
11, 103424, Note_off_c, 9, 42, 100
11, 103424, Note_off_c, 9, 38, 100
11, 103488, Note_on_c, 9, 42, 100
11, 103616, Note_off_c, 9, 42, 100
11, 103680, Note_on_c, 9, 42, 100
11, 103680, Note_on_c, 9, 36, 100
11, 103808, Note_off_c, 9, 42, 100
11, 103808, Note_off_c, 9, 36, 100
11, 103872, Note_on_c, 9, 42, 100
11, 103936, Note_off_c, 9, 42, 100
11, 103968, Note_on_c, 9, 36, 100
11, 104032, Note_off_c, 9, 36, 100
11, 104064, Note_on_c, 9, 42, 100
11, 104064, Note_on_c, 9, 38, 100
11, 104192, Note_off_c, 9, 42, 100
11, 104192, Note_off_c, 9, 38, 100
11, 104256, Note_on_c, 9, 42, 100
11, 104384, Note_off_c, 9, 42, 100
11, 104448, Note_on_c, 9, 42, 100
11, 104448, Note_on_c, 9, 36, 100
11, 104576, Note_off_c, 9, 42, 100
11, 104576, Note_off_c, 9, 36, 100
11, 104640, Note_on_c, 9, 42, 100
11, 104640, Note_on_c, 9, 36, 100
11, 104768, Note_off_c, 9, 42, 100
11, 104768, Note_off_c, 9, 36, 100
11, 104832, Note_on_c, 9, 42, 100
11, 104832, Note_on_c, 9, 38, 100
11, 104960, Note_off_c, 9, 42, 100
11, 104960, Note_off_c, 9, 38, 100
11, 105024, Note_on_c, 9, 42, 100
11, 105024, Note_on_c, 9, 36, 100
11, 105152, Note_off_c, 9, 42, 100
11, 105152, Note_off_c, 9, 36, 100
11, 105216, Note_on_c, 9, 42, 100
11, 105216, Note_on_c, 9, 36, 100
11, 105344, Note_off_c, 9, 42, 100
11, 105344, Note_off_c, 9, 36, 100
11, 105408, Note_on_c, 9, 42, 100
11, 105472, Note_off_c, 9, 42, 100
11, 105504, Note_on_c, 9, 36, 100
11, 105568, Note_off_c, 9, 36, 100
11, 105600, Note_on_c, 9, 42, 100
11, 105600, Note_on_c, 9, 38, 100
11, 105728, Note_off_c, 9, 42, 100
11, 105728, Note_off_c, 9, 38, 100
11, 105792, Note_on_c, 9, 42, 100
11, 105920, Note_off_c, 9, 42, 100
11, 105984, Note_on_c, 9, 42, 100
11, 105984, Note_on_c, 9, 36, 100
11, 106112, Note_off_c, 9, 42, 100
11, 106112, Note_off_c, 9, 36, 100
11, 106176, Note_on_c, 9, 42, 100
11, 106176, Note_on_c, 9, 36, 100
11, 106304, Note_off_c, 9, 42, 100
11, 106304, Note_off_c, 9, 36, 100
11, 106368, Note_on_c, 9, 42, 100
11, 106368, Note_on_c, 9, 38, 100
11, 106496, Note_off_c, 9, 42, 100
11, 106496, Note_off_c, 9, 38, 100
11, 106560, Note_on_c, 9, 42, 100
11, 106688, Note_off_c, 9, 42, 100
11, 106752, Note_on_c, 9, 42, 100
11, 106752, Note_on_c, 9, 36, 100
11, 106880, Note_off_c, 9, 42, 100
11, 106880, Note_off_c, 9, 36, 100
11, 106944, Note_on_c, 9, 42, 100
11, 107008, Note_off_c, 9, 42, 100
11, 107040, Note_on_c, 9, 36, 100
11, 107104, Note_off_c, 9, 36, 100
11, 107136, Note_on_c, 9, 42, 100
11, 107136, Note_on_c, 9, 38, 100
11, 107264, Note_off_c, 9, 42, 100
11, 107264, Note_off_c, 9, 38, 100
11, 107328, Note_on_c, 9, 42, 100
11, 107456, Note_off_c, 9, 42, 100
11, 107520, Note_on_c, 9, 42, 100
11, 107520, Note_on_c, 9, 36, 100
11, 107648, Note_off_c, 9, 42, 100
11, 107648, Note_off_c, 9, 36, 100
11, 107712, Note_on_c, 9, 42, 100
11, 107712, Note_on_c, 9, 36, 100
11, 107840, Note_off_c, 9, 42, 100
11, 107840, Note_off_c, 9, 36, 100
11, 107904, Note_on_c, 9, 38, 100
11, 108032, Note_off_c, 9, 38, 100
11, 108096, Note_on_c, 9, 38, 100
11, 108160, Note_off_c, 9, 38, 100
11, 108192, Note_on_c, 9, 38, 100
11, 108256, Note_off_c, 9, 38, 100
11, 108288, Note_on_c, 9, 49, 100
11, 108288, Note_on_c, 9, 36, 100
11, 108416, Note_off_c, 9, 49, 100
11, 108416, Note_off_c, 9, 36, 100
11, 108576, Note_on_c, 9, 36, 100
11, 108640, Note_off_c, 9, 36, 100
11, 108672, Note_on_c, 9, 42, 100
11, 108672, Note_on_c, 9, 38, 100
11, 108800, Note_off_c, 9, 42, 100
11, 108800, Note_off_c, 9, 38, 100
11, 108864, Note_on_c, 9, 42, 100
11, 108960, Note_on_c, 9, 36, 100
11, 108992, Note_off_c, 9, 42, 100
11, 109024, Note_off_c, 9, 36, 100
11, 109056, Note_on_c, 9, 42, 100
11, 109056, Note_on_c, 9, 36, 100
11, 109184, Note_off_c, 9, 42, 100
11, 109184, Note_off_c, 9, 36, 100
11, 109248, Note_on_c, 9, 42, 100
11, 109312, Note_off_c, 9, 42, 100
11, 109344, Note_on_c, 9, 36, 100
11, 109408, Note_off_c, 9, 36, 100
11, 109440, Note_on_c, 9, 42, 100
11, 109440, Note_on_c, 9, 38, 100
11, 109568, Note_off_c, 9, 42, 100
11, 109568, Note_off_c, 9, 38, 100
11, 109632, Note_on_c, 9, 42, 100
11, 109632, Note_on_c, 9, 36, 100
11, 109760, Note_off_c, 9, 42, 100
11, 109760, Note_off_c, 9, 36, 100
11, 109824, Note_on_c, 9, 42, 100
11, 109824, Note_on_c, 9, 36, 100
11, 109952, Note_off_c, 9, 42, 100
11, 109952, Note_off_c, 9, 36, 100
11, 110016, Note_on_c, 9, 42, 100
11, 110080, Note_off_c, 9, 42, 100
11, 110112, Note_on_c, 9, 36, 100
11, 110176, Note_off_c, 9, 36, 100
11, 110208, Note_on_c, 9, 42, 100
11, 110208, Note_on_c, 9, 38, 100
11, 110336, Note_off_c, 9, 42, 100
11, 110336, Note_off_c, 9, 38, 100
11, 110400, Note_on_c, 9, 42, 100
11, 110496, Note_on_c, 9, 36, 100
11, 110528, Note_off_c, 9, 42, 100
11, 110560, Note_off_c, 9, 36, 100
11, 110592, Note_on_c, 9, 42, 100
11, 110592, Note_on_c, 9, 36, 100
11, 110720, Note_off_c, 9, 42, 100
11, 110720, Note_off_c, 9, 36, 100
11, 110784, Note_on_c, 9, 42, 100
11, 110848, Note_off_c, 9, 42, 100
11, 110880, Note_on_c, 9, 36, 100
11, 110944, Note_off_c, 9, 36, 100
11, 110976, Note_on_c, 9, 42, 100
11, 110976, Note_on_c, 9, 38, 100
11, 111104, Note_off_c, 9, 42, 100
11, 111104, Note_off_c, 9, 38, 100
11, 111168, Note_on_c, 9, 42, 100
11, 111296, Note_off_c, 9, 42, 100
11, 111360, Note_on_c, 9, 36, 100
11, 111360, Note_on_c, 9, 42, 100
11, 111488, Note_off_c, 9, 36, 100
11, 111488, Note_off_c, 9, 42, 100
11, 111552, Note_on_c, 9, 42, 100
11, 111616, Note_off_c, 9, 42, 100
11, 111648, Note_on_c, 9, 36, 100
11, 111712, Note_off_c, 9, 36, 100
11, 111744, Note_on_c, 9, 42, 100
11, 111744, Note_on_c, 9, 38, 100
11, 111872, Note_off_c, 9, 42, 100
11, 111872, Note_off_c, 9, 38, 100
11, 111936, Note_on_c, 9, 42, 100
11, 112032, Note_on_c, 9, 36, 100
11, 112064, Note_off_c, 9, 42, 100
11, 112096, Note_off_c, 9, 36, 100
11, 112128, Note_on_c, 9, 42, 100
11, 112128, Note_on_c, 9, 36, 100
11, 112256, Note_off_c, 9, 42, 100
11, 112256, Note_off_c, 9, 36, 100
11, 112320, Note_on_c, 9, 42, 100
11, 112384, Note_off_c, 9, 42, 100
11, 112416, Note_on_c, 9, 36, 100
11, 112480, Note_off_c, 9, 36, 100
11, 112512, Note_on_c, 9, 42, 100
11, 112512, Note_on_c, 9, 38, 100
11, 112640, Note_off_c, 9, 42, 100
11, 112640, Note_off_c, 9, 38, 100
11, 112704, Note_on_c, 9, 42, 100
11, 112704, Note_on_c, 9, 36, 100
11, 112832, Note_off_c, 9, 42, 100
11, 112832, Note_off_c, 9, 36, 100
11, 112896, Note_on_c, 9, 42, 100
11, 112896, Note_on_c, 9, 36, 100
11, 113024, Note_off_c, 9, 42, 100
11, 113024, Note_off_c, 9, 36, 100
11, 113088, Note_on_c, 9, 42, 100
11, 113152, Note_off_c, 9, 42, 100
11, 113184, Note_on_c, 9, 36, 100
11, 113248, Note_off_c, 9, 36, 100
11, 113280, Note_on_c, 9, 42, 100
11, 113280, Note_on_c, 9, 38, 100
11, 113408, Note_off_c, 9, 42, 100
11, 113408, Note_off_c, 9, 38, 100
11, 113472, Note_on_c, 9, 42, 100
11, 113568, Note_on_c, 9, 36, 100
11, 113600, Note_off_c, 9, 42, 100
11, 113632, Note_off_c, 9, 36, 100
11, 113664, Note_on_c, 9, 42, 100
11, 113664, Note_on_c, 9, 36, 100
11, 113792, Note_off_c, 9, 42, 100
11, 113792, Note_off_c, 9, 36, 100
11, 113856, Note_on_c, 9, 42, 100
11, 113920, Note_off_c, 9, 42, 100
11, 113952, Note_on_c, 9, 36, 100
11, 114016, Note_off_c, 9, 36, 100
11, 114048, Note_on_c, 9, 42, 100
11, 114048, Note_on_c, 9, 38, 100
11, 114176, Note_off_c, 9, 42, 100
11, 114176, Note_off_c, 9, 38, 100
11, 114240, Note_on_c, 9, 42, 100
11, 114368, Note_off_c, 9, 42, 100
11, 114432, Note_on_c, 9, 36, 100
11, 114432, Note_on_c, 9, 42, 100
11, 114560, Note_off_c, 9, 36, 100
11, 114560, Note_off_c, 9, 42, 100
11, 114624, Note_on_c, 9, 42, 100
11, 114688, Note_off_c, 9, 42, 100
11, 114720, Note_on_c, 9, 36, 100
11, 114784, Note_off_c, 9, 36, 100
11, 114816, Note_on_c, 9, 42, 100
11, 114816, Note_on_c, 9, 38, 100
11, 114944, Note_off_c, 9, 42, 100
11, 114944, Note_off_c, 9, 38, 100
11, 115008, Note_on_c, 9, 42, 100
11, 115104, Note_on_c, 9, 36, 100
11, 115136, Note_off_c, 9, 42, 100
11, 115168, Note_off_c, 9, 36, 100
11, 115200, Note_on_c, 9, 42, 100
11, 115200, Note_on_c, 9, 36, 100
11, 115328, Note_off_c, 9, 42, 100
11, 115328, Note_off_c, 9, 36, 100
11, 115392, Note_on_c, 9, 42, 100
11, 115456, Note_off_c, 9, 42, 100
11, 115488, Note_on_c, 9, 36, 100
11, 115552, Note_off_c, 9, 36, 100
11, 115584, Note_on_c, 9, 38, 100
11, 115712, Note_off_c, 9, 38, 100
11, 115776, Note_on_c, 9, 38, 100
11, 115776, Note_on_c, 9, 42, 100
11, 115840, Note_off_c, 9, 38, 100
11, 115840, Note_off_c, 9, 42, 100
11, 115872, Note_on_c, 9, 38, 100
11, 115936, Note_off_c, 9, 38, 100
11, 115968, Note_on_c, 9, 42, 100
11, 115968, Note_on_c, 9, 36, 100
11, 116096, Note_off_c, 9, 42, 100
11, 116096, Note_off_c, 9, 36, 100
11, 116160, Note_on_c, 9, 42, 100
11, 116224, Note_off_c, 9, 42, 100
11, 116256, Note_on_c, 9, 36, 100
11, 116320, Note_off_c, 9, 36, 100
11, 116352, Note_on_c, 9, 42, 100
11, 116352, Note_on_c, 9, 38, 100
11, 116480, Note_off_c, 9, 42, 100
11, 116480, Note_off_c, 9, 38, 100
11, 116544, Note_on_c, 9, 42, 100
11, 116640, Note_on_c, 9, 36, 100
11, 116672, Note_off_c, 9, 42, 100
11, 116704, Note_off_c, 9, 36, 100
11, 116736, Note_on_c, 9, 42, 100
11, 116736, Note_on_c, 9, 36, 100
11, 116864, Note_off_c, 9, 42, 100
11, 116864, Note_off_c, 9, 36, 100
11, 117120, Note_on_c, 9, 42, 100
11, 117120, Note_on_c, 9, 38, 100
11, 117248, Note_off_c, 9, 42, 100
11, 117248, Note_off_c, 9, 38, 100
11, 117312, Note_on_c, 9, 42, 100
11, 117440, Note_off_c, 9, 42, 100
11, 117504, Note_on_c, 9, 36, 100
11, 117504, Note_on_c, 9, 42, 100
11, 117632, Note_off_c, 9, 36, 100
11, 117632, Note_off_c, 9, 42, 100
11, 117696, Note_on_c, 9, 42, 100
11, 117760, Note_off_c, 9, 42, 100
11, 117792, Note_on_c, 9, 36, 100
11, 117856, Note_off_c, 9, 36, 100
11, 117888, Note_on_c, 9, 42, 100
11, 117888, Note_on_c, 9, 38, 100
11, 118016, Note_off_c, 9, 42, 100
11, 118016, Note_off_c, 9, 38, 100
11, 118080, Note_on_c, 9, 42, 100
11, 118176, Note_on_c, 9, 36, 100
11, 118208, Note_off_c, 9, 42, 100
11, 118240, Note_off_c, 9, 36, 100
11, 118272, Note_on_c, 9, 42, 100
11, 118272, Note_on_c, 9, 36, 100
11, 118400, Note_off_c, 9, 42, 100
11, 118400, Note_off_c, 9, 36, 100
11, 118464, Note_on_c, 9, 42, 100
11, 118528, Note_off_c, 9, 42, 100
11, 118560, Note_on_c, 9, 36, 100
11, 118624, Note_off_c, 9, 36, 100
11, 118656, Note_on_c, 9, 42, 100
11, 118656, Note_on_c, 9, 38, 100
11, 118784, Note_off_c, 9, 42, 100
11, 118784, Note_off_c, 9, 38, 100
11, 118848, Note_on_c, 9, 42, 100
11, 118848, Note_on_c, 9, 36, 100
11, 118976, Note_off_c, 9, 42, 100
11, 118976, Note_off_c, 9, 36, 100
11, 119040, Note_on_c, 9, 42, 100
11, 119040, Note_on_c, 9, 36, 100
11, 119168, Note_off_c, 9, 42, 100
11, 119168, Note_off_c, 9, 36, 100
11, 119232, Note_on_c, 9, 42, 100
11, 119296, Note_off_c, 9, 42, 100
11, 119328, Note_on_c, 9, 36, 100
11, 119392, Note_off_c, 9, 36, 100
11, 119424, Note_on_c, 9, 42, 100
11, 119424, Note_on_c, 9, 38, 100
11, 119552, Note_off_c, 9, 42, 100
11, 119552, Note_off_c, 9, 38, 100
11, 119616, Note_on_c, 9, 42, 100
11, 119712, Note_on_c, 9, 36, 100
11, 119744, Note_off_c, 9, 42, 100
11, 119776, Note_off_c, 9, 36, 100
11, 119808, Note_on_c, 9, 36, 100
11, 119872, Note_off_c, 9, 36, 100
11, 119904, Note_on_c, 9, 36, 100
11, 119968, Note_off_c, 9, 36, 100
11, 120000, Note_on_c, 9, 36, 100
11, 120064, Note_off_c, 9, 36, 100
11, 120096, Note_on_c, 9, 38, 100
11, 120160, Note_off_c, 9, 38, 100
11, 120192, Note_on_c, 9, 38, 100
11, 120256, Note_off_c, 9, 38, 100
11, 120288, Note_on_c, 9, 50, 100
11, 120352, Note_off_c, 9, 50, 100
11, 120384, Note_on_c, 9, 48, 100
11, 120448, Note_off_c, 9, 48, 100
11, 120480, Note_on_c, 9, 48, 100
11, 120544, Note_off_c, 9, 48, 100
11, 120576, Note_on_c, 9, 47, 100
11, 120640, Note_off_c, 9, 47, 100
11, 120672, Note_on_c, 9, 36, 100
11, 120736, Note_off_c, 9, 36, 100
11, 120768, Note_on_c, 9, 36, 100
11, 120832, Note_off_c, 9, 36, 100
11, 120864, Note_on_c, 9, 36, 100
11, 120928, Note_off_c, 9, 36, 100
11, 120960, Note_on_c, 9, 38, 100
11, 121088, Note_off_c, 9, 38, 100
11, 121152, Note_on_c, 9, 38, 100
11, 121280, Note_off_c, 9, 38, 100
11, 121280, End_track
12, 0, Start_track
12, 0, End_track
13, 0, Start_track
13, 0, End_track
14, 0, Start_track
14, 0, End_track
15, 0, Start_track
15, 0, End_track
16, 0, Start_track
16, 0, End_track
17, 0, Start_track
17, 0, End_track
18, 0, Start_track
18, 0, End_track
19, 0, Start_track
19, 0, End_track
20, 0, Start_track
20, 0, End_track
21, 0, Start_track
21, 0, End_track
22, 0, Start_track
22, 0, End_track
23, 0, Start_track
23, 0, End_track
24, 0, Start_track
24, 0, End_track
25, 0, Start_track
25, 0, End_track
26, 0, Start_track
26, 0, End_track
27, 0, Start_track
27, 0, End_track
28, 0, Start_track
28, 0, End_track
29, 0, Start_track
29, 0, End_track
30, 0, Start_track
30, 0, End_track
31, 0, Start_track
31, 0, End_track
32, 0, Start_track
32, 0, End_track
33, 0, Start_track
33, 0, End_track
34, 0, Start_track
34, 0, End_track
35, 0, Start_track
35, 0, End_track
36, 0, Start_track
36, 0, End_track
37, 0, Start_track
37, 0, End_track
38, 0, Start_track
38, 0, End_track
39, 0, Start_track
39, 0, End_track
40, 0, Start_track
40, 0, End_track
41, 0, Start_track
41, 0, End_track
42, 0, Start_track
42, 0, End_track
43, 0, Start_track
43, 0, End_track
44, 0, Start_track
44, 0, End_track
45, 0, Start_track
45, 0, End_track
46, 0, Start_track
46, 0, End_track
47, 0, Start_track
47, 0, End_track
48, 0, Start_track
48, 0, End_track
49, 0, Start_track
49, 0, End_track
50, 0, Start_track
50, 0, End_track
51, 0, Start_track
51, 0, End_track
52, 0, Start_track
52, 0, End_track
53, 0, Start_track
53, 0, End_track
0, 0, End_of_file
