0, 0, Header, 1, 9, 120
1, 0, Start_track
1, 0, Time_signature, 4, 2, 24, 8
1, 0, Key_signature, -2, "major"
1, 0, Tempo, 300000
1, 0, End_track
2, 0, Start_track
2, 0, MIDI_port, 0
2, 0, Title_t, "Vocal"
2, 0, Program_c, 0, 54
2, 0, Control_c, 0, 7, 115
2, 7980, Note_on_c, 0, 74, 100
2, 8039, Note_on_c, 0, 74, 0
2, 8040, Note_on_c, 0, 74, 100
2, 8099, Note_on_c, 0, 74, 0
2, 8100, Note_on_c, 0, 74, 100
2, 8159, Note_on_c, 0, 74, 0
2, 8160, Note_on_c, 0, 77, 100
2, 8399, Note_on_c, 0, 77, 0
2, 8400, Note_on_c, 0, 74, 100
2, 8579, Note_on_c, 0, 74, 0
2, 8580, Note_on_c, 0, 74, 100
2, 8759, Note_on_c, 0, 74, 0
2, 8760, Note_on_c, 0, 74, 100
2, 8819, Note_on_c, 0, 74, 0
2, 8820, Note_on_c, 0, 72, 100
2, 8879, Note_on_c, 0, 72, 0
2, 8880, Note_on_c, 0, 70, 100
2, 8999, Note_on_c, 0, 70, 0
2, 9000, Note_on_c, 0, 72, 100
2, 9119, Note_on_c, 0, 72, 0
2, 9120, Note_on_c, 0, 72, 100
2, 9179, Note_on_c, 0, 72, 0
2, 9180, Note_on_c, 0, 70, 100
2, 9299, Note_on_c, 0, 70, 0
2, 9300, Note_on_c, 0, 70, 100
2, 9359, Note_on_c, 0, 70, 0
2, 9360, Note_on_c, 0, 70, 100
2, 9479, Note_on_c, 0, 70, 0
2, 9480, Note_on_c, 0, 67, 100
2, 9599, Note_on_c, 0, 67, 0
2, 10080, Note_on_c, 0, 72, 100
2, 10199, Note_on_c, 0, 72, 0
2, 10200, Note_on_c, 0, 70, 100
2, 10259, Note_on_c, 0, 70, 0
2, 10260, Note_on_c, 0, 72, 100
2, 10379, Note_on_c, 0, 72, 0
2, 10380, Note_on_c, 0, 70, 100
2, 10499, Note_on_c, 0, 70, 0
2, 10500, Note_on_c, 0, 72, 100
2, 10619, Note_on_c, 0, 72, 0
2, 10620, Note_on_c, 0, 72, 100
2, 10739, Note_on_c, 0, 72, 0
2, 10740, Note_on_c, 0, 74, 100
2, 10919, Note_on_c, 0, 74, 0
2, 10920, Note_on_c, 0, 72, 100
2, 10979, Note_on_c, 0, 72, 0
2, 10980, Note_on_c, 0, 70, 100
2, 11039, Note_on_c, 0, 70, 0
2, 11040, Note_on_c, 0, 72, 100
2, 11219, Note_on_c, 0, 72, 0
2, 11220, Note_on_c, 0, 70, 100
2, 11399, Note_on_c, 0, 70, 0
2, 12000, Note_on_c, 0, 77, 100
2, 12119, Note_on_c, 0, 77, 0
2, 12120, Note_on_c, 0, 74, 100
2, 12179, Note_on_c, 0, 74, 0
2, 12180, Note_on_c, 0, 74, 100
2, 12299, Note_on_c, 0, 74, 0
2, 12300, Note_on_c, 0, 72, 100
2, 12419, Note_on_c, 0, 72, 0
2, 12420, Note_on_c, 0, 70, 100
2, 12479, Note_on_c, 0, 70, 0
2, 12480, Note_on_c, 0, 74, 100
2, 12839, Note_on_c, 0, 74, 0
2, 12840, Note_on_c, 0, 72, 100
2, 12899, Note_on_c, 0, 72, 0
2, 12900, Note_on_c, 0, 70, 100
2, 12959, Note_on_c, 0, 70, 0
2, 12960, Note_on_c, 0, 72, 100
2, 13019, Note_on_c, 0, 72, 0
2, 13020, Note_on_c, 0, 70, 100
2, 13139, Note_on_c, 0, 70, 0
2, 13140, Note_on_c, 0, 70, 100
2, 13199, Note_on_c, 0, 70, 0
2, 13200, Note_on_c, 0, 70, 100
2, 13259, Note_on_c, 0, 70, 0
2, 13260, Note_on_c, 0, 67, 100
2, 13439, Note_on_c, 0, 67, 0
2, 13920, Note_on_c, 0, 72, 100
2, 13979, Note_on_c, 0, 72, 0
2, 13980, Note_on_c, 0, 70, 100
2, 14099, Note_on_c, 0, 70, 0
2, 14100, Note_on_c, 0, 72, 100
2, 14219, Note_on_c, 0, 72, 0
2, 14220, Note_on_c, 0, 70, 100
2, 14339, Note_on_c, 0, 70, 0
2, 14340, Note_on_c, 0, 72, 100
2, 14459, Note_on_c, 0, 72, 0
2, 14460, Note_on_c, 0, 70, 100
2, 14579, Note_on_c, 0, 70, 0
2, 14580, Note_on_c, 0, 74, 100
2, 14759, Note_on_c, 0, 74, 0
2, 14760, Note_on_c, 0, 72, 100
2, 14819, Note_on_c, 0, 72, 0
2, 14820, Note_on_c, 0, 72, 100
2, 14939, Note_on_c, 0, 72, 0
2, 14940, Note_on_c, 0, 70, 100
2, 15059, Note_on_c, 0, 70, 0
2, 15060, Note_on_c, 0, 70, 100
2, 15239, Note_on_c, 0, 70, 0
2, 15540, Note_on_c, 0, 70, 100
2, 15719, Note_on_c, 0, 70, 0
2, 15900, Note_on_c, 0, 74, 100
2, 15989, Note_on_c, 0, 74, 0
2, 16020, Note_on_c, 0, 74, 100
2, 16169, Note_on_c, 0, 74, 0
2, 16380, Note_on_c, 0, 74, 100
2, 16469, Note_on_c, 0, 74, 0
2, 16500, Note_on_c, 0, 74, 100
2, 16649, Note_on_c, 0, 74, 0
2, 16740, Note_on_c, 0, 67, 100
2, 16799, Note_on_c, 0, 67, 0
2, 16800, Note_on_c, 0, 72, 100
2, 16859, Note_on_c, 0, 72, 0
2, 16860, Note_on_c, 0, 72, 100
2, 16919, Note_on_c, 0, 72, 0
2, 16920, Note_on_c, 0, 70, 100
2, 16979, Note_on_c, 0, 70, 0
2, 16980, Note_on_c, 0, 72, 100
2, 17159, Note_on_c, 0, 72, 0
2, 17160, Note_on_c, 0, 72, 100
2, 17279, Note_on_c, 0, 72, 0
2, 17280, Note_on_c, 0, 72, 100
2, 17399, Note_on_c, 0, 72, 0
2, 17400, Note_on_c, 0, 72, 100
2, 17459, Note_on_c, 0, 72, 0
2, 17460, Note_on_c, 0, 74, 100
2, 17639, Note_on_c, 0, 74, 0
2, 17700, Note_on_c, 0, 70, 100
2, 17759, Note_on_c, 0, 70, 0
2, 17760, Note_on_c, 0, 72, 100
2, 17879, Note_on_c, 0, 72, 0
2, 17880, Note_on_c, 0, 70, 100
2, 17939, Note_on_c, 0, 70, 0
2, 17940, Note_on_c, 0, 72, 100
2, 18119, Note_on_c, 0, 72, 0
2, 18180, Note_on_c, 0, 70, 100
2, 18239, Note_on_c, 0, 70, 0
2, 18240, Note_on_c, 0, 72, 100
2, 18359, Note_on_c, 0, 72, 0
2, 18360, Note_on_c, 0, 70, 100
2, 18419, Note_on_c, 0, 70, 0
2, 18420, Note_on_c, 0, 74, 100
2, 18659, Note_on_c, 0, 74, 0
2, 18660, Note_on_c, 0, 74, 100
2, 18719, Note_on_c, 0, 74, 0
2, 18720, Note_on_c, 0, 74, 100
2, 18779, Note_on_c, 0, 74, 0
2, 18780, Note_on_c, 0, 74, 100
2, 18839, Note_on_c, 0, 74, 0
2, 18840, Note_on_c, 0, 74, 100
2, 18899, Note_on_c, 0, 74, 0
2, 18900, Note_on_c, 0, 72, 100
2, 19019, Note_on_c, 0, 72, 0
2, 19020, Note_on_c, 0, 72, 100
2, 19079, Note_on_c, 0, 72, 0
2, 19080, Note_on_c, 0, 72, 100
2, 19139, Note_on_c, 0, 72, 0
2, 19140, Note_on_c, 0, 67, 100
2, 19199, Note_on_c, 0, 67, 0
2, 19200, Note_on_c, 0, 70, 100
2, 19379, Note_on_c, 0, 70, 0
2, 19380, Note_on_c, 0, 70, 100
2, 19499, Note_on_c, 0, 70, 0
2, 19500, Note_on_c, 0, 67, 100
2, 19679, Note_on_c, 0, 67, 0
2, 19680, Note_on_c, 0, 74, 100
2, 19799, Note_on_c, 0, 74, 0
2, 19860, Note_on_c, 0, 74, 100
2, 20039, Note_on_c, 0, 74, 0
2, 20100, Note_on_c, 0, 74, 100
2, 20279, Note_on_c, 0, 74, 0
2, 20280, Note_on_c, 0, 74, 100
2, 20399, Note_on_c, 0, 74, 0
2, 20400, Note_on_c, 0, 74, 100
2, 20519, Note_on_c, 0, 74, 0
2, 20640, Note_on_c, 0, 75, 100
2, 20759, Note_on_c, 0, 75, 0
2, 20760, Note_on_c, 0, 75, 100
2, 20819, Note_on_c, 0, 75, 0
2, 20820, Note_on_c, 0, 75, 100
2, 20999, Note_on_c, 0, 75, 0
2, 21000, Note_on_c, 0, 75, 100
2, 21059, Note_on_c, 0, 75, 0
2, 21060, Note_on_c, 0, 75, 100
2, 21179, Note_on_c, 0, 75, 0
2, 21180, Note_on_c, 0, 75, 100
2, 21299, Note_on_c, 0, 75, 0
2, 21300, Note_on_c, 0, 75, 100
2, 21359, Note_on_c, 0, 75, 0
2, 21360, Note_on_c, 0, 75, 100
2, 21479, Note_on_c, 0, 75, 0
2, 21600, Note_on_c, 0, 75, 100
2, 21719, Note_on_c, 0, 75, 0
2, 21720, Note_on_c, 0, 75, 100
2, 21779, Note_on_c, 0, 75, 0
2, 21780, Note_on_c, 0, 75, 100
2, 21899, Note_on_c, 0, 75, 0
2, 21900, Note_on_c, 0, 75, 100
2, 21959, Note_on_c, 0, 75, 0
2, 21960, Note_on_c, 0, 75, 100
2, 22019, Note_on_c, 0, 75, 0
2, 22020, Note_on_c, 0, 75, 100
2, 22199, Note_on_c, 0, 75, 0
2, 22200, Note_on_c, 0, 75, 100
2, 22319, Note_on_c, 0, 75, 0
2, 22320, Note_on_c, 0, 77, 100
2, 22439, Note_on_c, 0, 77, 0
2, 22560, Note_on_c, 0, 75, 100
2, 22619, Note_on_c, 0, 75, 0
2, 22620, Note_on_c, 0, 75, 100
2, 22679, Note_on_c, 0, 75, 0
2, 22680, Note_on_c, 0, 75, 100
2, 22739, Note_on_c, 0, 75, 0
2, 22740, Note_on_c, 0, 75, 100
2, 22859, Note_on_c, 0, 75, 0
2, 22860, Note_on_c, 0, 75, 100
2, 22919, Note_on_c, 0, 75, 0
2, 22920, Note_on_c, 0, 75, 100
2, 22979, Note_on_c, 0, 75, 0
2, 22980, Note_on_c, 0, 75, 100
2, 23039, Note_on_c, 0, 75, 0
2, 23040, Note_on_c, 0, 75, 100
2, 23159, Note_on_c, 0, 75, 0
2, 23160, Note_on_c, 0, 74, 100
2, 23279, Note_on_c, 0, 74, 0
2, 23280, Note_on_c, 0, 74, 100
2, 23399, Note_on_c, 0, 74, 0
2, 23520, Note_on_c, 0, 74, 100
2, 23639, Note_on_c, 0, 74, 0
2, 23700, Note_on_c, 0, 74, 100
2, 23879, Note_on_c, 0, 74, 0
2, 23880, Note_on_c, 0, 74, 100
2, 23940, Note_on_c, 0, 74, 0
2, 23940, Note_on_c, 0, 74, 100
2, 24119, Note_on_c, 0, 74, 0
2, 24120, Note_on_c, 0, 74, 100
2, 24239, Note_on_c, 0, 74, 0
2, 24240, Note_on_c, 0, 74, 100
2, 24359, Note_on_c, 0, 74, 0
2, 24480, Note_on_c, 0, 75, 100
2, 24660, Note_on_c, 0, 75, 0
2, 24660, Note_on_c, 0, 75, 100
2, 24839, Note_on_c, 0, 75, 0
2, 24840, Note_on_c, 0, 75, 100
2, 24899, Note_on_c, 0, 75, 0
2, 24900, Note_on_c, 0, 75, 100
2, 24960, Note_on_c, 0, 75, 0
2, 24960, Note_on_c, 0, 75, 100
2, 25020, Note_on_c, 0, 75, 0
2, 25020, Note_on_c, 0, 75, 100
2, 25080, Note_on_c, 0, 75, 0
2, 25080, Note_on_c, 0, 75, 100
2, 25200, Note_on_c, 0, 75, 0
2, 25200, Note_on_c, 0, 75, 100
2, 25319, Note_on_c, 0, 75, 0
2, 25440, Note_on_c, 0, 75, 100
2, 25500, Note_on_c, 0, 75, 0
2, 25500, Note_on_c, 0, 75, 100
2, 25619, Note_on_c, 0, 75, 0
2, 25620, Note_on_c, 0, 75, 100
2, 25800, Note_on_c, 0, 75, 0
2, 25800, Note_on_c, 0, 75, 100
2, 25859, Note_on_c, 0, 75, 0
2, 25860, Note_on_c, 0, 75, 100
2, 26039, Note_on_c, 0, 75, 0
2, 26040, Note_on_c, 0, 75, 100
2, 26159, Note_on_c, 0, 75, 0
2, 26160, Note_on_c, 0, 77, 100
2, 26279, Note_on_c, 0, 77, 0
2, 26400, Note_on_c, 0, 75, 100
2, 26459, Note_on_c, 0, 75, 0
2, 26460, Note_on_c, 0, 75, 100
2, 26519, Note_on_c, 0, 75, 0
2, 26520, Note_on_c, 0, 75, 100
2, 26579, Note_on_c, 0, 75, 0
2, 26580, Note_on_c, 0, 75, 100
2, 26699, Note_on_c, 0, 75, 0
2, 26700, Note_on_c, 0, 75, 100
2, 26759, Note_on_c, 0, 75, 0
2, 26760, Note_on_c, 0, 75, 100
2, 26819, Note_on_c, 0, 75, 0
2, 26820, Note_on_c, 0, 75, 100
2, 26879, Note_on_c, 0, 75, 0
2, 26880, Note_on_c, 0, 75, 100
2, 26999, Note_on_c, 0, 75, 0
2, 27000, Note_on_c, 0, 74, 100
2, 27119, Note_on_c, 0, 74, 0
2, 27120, Note_on_c, 0, 74, 100
2, 27239, Note_on_c, 0, 74, 0
2, 31020, Note_on_c, 0, 74, 100
2, 31079, Note_on_c, 0, 74, 0
2, 31080, Note_on_c, 0, 74, 100
2, 31199, Note_on_c, 0, 74, 0
2, 31200, Note_on_c, 0, 77, 100
2, 31319, Note_on_c, 0, 77, 0
2, 31320, Note_on_c, 0, 74, 100
2, 31379, Note_on_c, 0, 74, 0
2, 31380, Note_on_c, 0, 74, 100
2, 31589, Note_on_c, 0, 74, 0
2, 31620, Note_on_c, 0, 74, 100
2, 31799, Note_on_c, 0, 74, 0
2, 31800, Note_on_c, 0, 74, 100
2, 31859, Note_on_c, 0, 74, 0
2, 31860, Note_on_c, 0, 72, 100
2, 31919, Note_on_c, 0, 72, 0
2, 31920, Note_on_c, 0, 70, 100
2, 32039, Note_on_c, 0, 70, 0
2, 32040, Note_on_c, 0, 72, 100
2, 32159, Note_on_c, 0, 72, 0
2, 32160, Note_on_c, 0, 72, 100
2, 32219, Note_on_c, 0, 72, 0
2, 32220, Note_on_c, 0, 70, 100
2, 32339, Note_on_c, 0, 70, 0
2, 32340, Note_on_c, 0, 70, 100
2, 32399, Note_on_c, 0, 70, 0
2, 32400, Note_on_c, 0, 70, 100
2, 32519, Note_on_c, 0, 70, 0
2, 32520, Note_on_c, 0, 67, 100
2, 32639, Note_on_c, 0, 67, 0
2, 33120, Note_on_c, 0, 72, 100
2, 33239, Note_on_c, 0, 72, 0
2, 33240, Note_on_c, 0, 70, 100
2, 33299, Note_on_c, 0, 70, 0
2, 33300, Note_on_c, 0, 72, 100
2, 33419, Note_on_c, 0, 72, 0
2, 33420, Note_on_c, 0, 70, 100
2, 33479, Note_on_c, 0, 70, 0
2, 33480, Note_on_c, 0, 70, 100
2, 33539, Note_on_c, 0, 70, 0
2, 33540, Note_on_c, 0, 72, 100
2, 33659, Note_on_c, 0, 72, 0
2, 33660, Note_on_c, 0, 72, 100
2, 33779, Note_on_c, 0, 72, 0
2, 33780, Note_on_c, 0, 74, 100
2, 33959, Note_on_c, 0, 74, 0
2, 33960, Note_on_c, 0, 72, 100
2, 34079, Note_on_c, 0, 72, 0
2, 34080, Note_on_c, 0, 72, 100
2, 34259, Note_on_c, 0, 72, 0
2, 34260, Note_on_c, 0, 70, 100
2, 34319, Note_on_c, 0, 70, 0
2, 34320, Note_on_c, 0, 70, 100
2, 34439, Note_on_c, 0, 70, 0
2, 34920, Note_on_c, 0, 74, 100
2, 35039, Note_on_c, 0, 74, 0
2, 35040, Note_on_c, 0, 77, 100
2, 35159, Note_on_c, 0, 77, 0
2, 35160, Note_on_c, 0, 74, 100
2, 35219, Note_on_c, 0, 74, 0
2, 35220, Note_on_c, 0, 74, 100
2, 35339, Note_on_c, 0, 74, 0
2, 35340, Note_on_c, 0, 72, 100
2, 35519, Note_on_c, 0, 72, 0
2, 35520, Note_on_c, 0, 74, 100
2, 35879, Note_on_c, 0, 74, 0
2, 35880, Note_on_c, 0, 72, 100
2, 35939, Note_on_c, 0, 72, 0
2, 35940, Note_on_c, 0, 70, 100
2, 35999, Note_on_c, 0, 70, 0
2, 36000, Note_on_c, 0, 72, 100
2, 36059, Note_on_c, 0, 72, 0
2, 36060, Note_on_c, 0, 70, 100
2, 36179, Note_on_c, 0, 70, 0
2, 36180, Note_on_c, 0, 70, 100
2, 36239, Note_on_c, 0, 70, 0
2, 36240, Note_on_c, 0, 70, 100
2, 36299, Note_on_c, 0, 70, 0
2, 36300, Note_on_c, 0, 67, 100
2, 36479, Note_on_c, 0, 67, 0
2, 36960, Note_on_c, 0, 72, 100
2, 37019, Note_on_c, 0, 72, 0
2, 37020, Note_on_c, 0, 70, 100
2, 37139, Note_on_c, 0, 70, 0
2, 37140, Note_on_c, 0, 72, 100
2, 37259, Note_on_c, 0, 72, 0
2, 37260, Note_on_c, 0, 70, 100
2, 37379, Note_on_c, 0, 70, 0
2, 37380, Note_on_c, 0, 72, 100
2, 37499, Note_on_c, 0, 72, 0
2, 37500, Note_on_c, 0, 70, 100
2, 37559, Note_on_c, 0, 70, 0
2, 37560, Note_on_c, 0, 70, 100
2, 37619, Note_on_c, 0, 70, 0
2, 37620, Note_on_c, 0, 74, 100
2, 37799, Note_on_c, 0, 74, 0
2, 37800, Note_on_c, 0, 72, 100
2, 37859, Note_on_c, 0, 72, 0
2, 37860, Note_on_c, 0, 72, 100
2, 37919, Note_on_c, 0, 72, 0
2, 37920, Note_on_c, 0, 72, 100
2, 37979, Note_on_c, 0, 72, 0
2, 37980, Note_on_c, 0, 70, 100
2, 38099, Note_on_c, 0, 70, 0
2, 38100, Note_on_c, 0, 70, 100
2, 38219, Note_on_c, 0, 70, 0
2, 38220, Note_on_c, 0, 67, 100
2, 38399, Note_on_c, 0, 67, 0
2, 38580, Note_on_c, 0, 70, 100
2, 38759, Note_on_c, 0, 70, 0
2, 38940, Note_on_c, 0, 74, 100
2, 39029, Note_on_c, 0, 74, 0
2, 39060, Note_on_c, 0, 74, 100
2, 39209, Note_on_c, 0, 74, 0
2, 39420, Note_on_c, 0, 74, 100
2, 39509, Note_on_c, 0, 74, 0
2, 39540, Note_on_c, 0, 74, 100
2, 39689, Note_on_c, 0, 74, 0
2, 39780, Note_on_c, 0, 67, 100
2, 39839, Note_on_c, 0, 67, 0
2, 39840, Note_on_c, 0, 72, 100
2, 39899, Note_on_c, 0, 72, 0
2, 39900, Note_on_c, 0, 72, 100
2, 39959, Note_on_c, 0, 72, 0
2, 39960, Note_on_c, 0, 70, 100
2, 40019, Note_on_c, 0, 70, 0
2, 40020, Note_on_c, 0, 72, 100
2, 40199, Note_on_c, 0, 72, 0
2, 40200, Note_on_c, 0, 72, 100
2, 40319, Note_on_c, 0, 72, 0
2, 40320, Note_on_c, 0, 72, 100
2, 40439, Note_on_c, 0, 72, 0
2, 40440, Note_on_c, 0, 72, 100
2, 40499, Note_on_c, 0, 72, 0
2, 40500, Note_on_c, 0, 74, 100
2, 40679, Note_on_c, 0, 74, 0
2, 40740, Note_on_c, 0, 70, 100
2, 40799, Note_on_c, 0, 70, 0
2, 40800, Note_on_c, 0, 72, 100
2, 40919, Note_on_c, 0, 72, 0
2, 40920, Note_on_c, 0, 70, 100
2, 40979, Note_on_c, 0, 70, 0
2, 40980, Note_on_c, 0, 72, 100
2, 41159, Note_on_c, 0, 72, 0
2, 41220, Note_on_c, 0, 70, 100
2, 41279, Note_on_c, 0, 70, 0
2, 41280, Note_on_c, 0, 72, 100
2, 41399, Note_on_c, 0, 72, 0
2, 41400, Note_on_c, 0, 70, 100
2, 41459, Note_on_c, 0, 70, 0
2, 41460, Note_on_c, 0, 74, 100
2, 41699, Note_on_c, 0, 74, 0
2, 41700, Note_on_c, 0, 74, 100
2, 41759, Note_on_c, 0, 74, 0
2, 41760, Note_on_c, 0, 74, 100
2, 41819, Note_on_c, 0, 74, 0
2, 41820, Note_on_c, 0, 74, 100
2, 41879, Note_on_c, 0, 74, 0
2, 41880, Note_on_c, 0, 74, 100
2, 41939, Note_on_c, 0, 74, 0
2, 41940, Note_on_c, 0, 72, 100
2, 42059, Note_on_c, 0, 72, 0
2, 42060, Note_on_c, 0, 72, 100
2, 42119, Note_on_c, 0, 72, 0
2, 42120, Note_on_c, 0, 72, 100
2, 42179, Note_on_c, 0, 72, 0
2, 42180, Note_on_c, 0, 67, 100
2, 42239, Note_on_c, 0, 67, 0
2, 42240, Note_on_c, 0, 70, 100
2, 42419, Note_on_c, 0, 70, 0
2, 42420, Note_on_c, 0, 70, 100
2, 42539, Note_on_c, 0, 70, 0
2, 42540, Note_on_c, 0, 67, 100
2, 42719, Note_on_c, 0, 67, 0
2, 42720, Note_on_c, 0, 74, 100
2, 42839, Note_on_c, 0, 74, 0
2, 42900, Note_on_c, 0, 74, 100
2, 43079, Note_on_c, 0, 74, 0
2, 43140, Note_on_c, 0, 74, 100
2, 43319, Note_on_c, 0, 74, 0
2, 43320, Note_on_c, 0, 74, 100
2, 43439, Note_on_c, 0, 74, 0
2, 43440, Note_on_c, 0, 74, 100
2, 43559, Note_on_c, 0, 74, 0
2, 43680, Note_on_c, 0, 75, 100
2, 43799, Note_on_c, 0, 75, 0
2, 43800, Note_on_c, 0, 75, 100
2, 43859, Note_on_c, 0, 75, 0
2, 43860, Note_on_c, 0, 75, 100
2, 44039, Note_on_c, 0, 75, 0
2, 44040, Note_on_c, 0, 75, 100
2, 44099, Note_on_c, 0, 75, 0
2, 44100, Note_on_c, 0, 75, 100
2, 44219, Note_on_c, 0, 75, 0
2, 44220, Note_on_c, 0, 75, 100
2, 44339, Note_on_c, 0, 75, 0
2, 44340, Note_on_c, 0, 75, 100
2, 44399, Note_on_c, 0, 75, 0
2, 44400, Note_on_c, 0, 75, 100
2, 44519, Note_on_c, 0, 75, 0
2, 44640, Note_on_c, 0, 75, 100
2, 44759, Note_on_c, 0, 75, 0
2, 44760, Note_on_c, 0, 75, 100
2, 44819, Note_on_c, 0, 75, 0
2, 44820, Note_on_c, 0, 75, 100
2, 44939, Note_on_c, 0, 75, 0
2, 44940, Note_on_c, 0, 75, 100
2, 44999, Note_on_c, 0, 75, 0
2, 45000, Note_on_c, 0, 75, 100
2, 45059, Note_on_c, 0, 75, 0
2, 45060, Note_on_c, 0, 75, 100
2, 45239, Note_on_c, 0, 75, 0
2, 45240, Note_on_c, 0, 75, 100
2, 45359, Note_on_c, 0, 75, 0
2, 45360, Note_on_c, 0, 77, 100
2, 45479, Note_on_c, 0, 77, 0
2, 45600, Note_on_c, 0, 75, 100
2, 45659, Note_on_c, 0, 75, 0
2, 45660, Note_on_c, 0, 75, 100
2, 45719, Note_on_c, 0, 75, 0
2, 45720, Note_on_c, 0, 75, 100
2, 45779, Note_on_c, 0, 75, 0
2, 45780, Note_on_c, 0, 75, 100
2, 45899, Note_on_c, 0, 75, 0
2, 45900, Note_on_c, 0, 75, 100
2, 45959, Note_on_c, 0, 75, 0
2, 45960, Note_on_c, 0, 75, 100
2, 46019, Note_on_c, 0, 75, 0
2, 46020, Note_on_c, 0, 75, 100
2, 46079, Note_on_c, 0, 75, 0
2, 46080, Note_on_c, 0, 75, 100
2, 46199, Note_on_c, 0, 75, 0
2, 46200, Note_on_c, 0, 74, 100
2, 46319, Note_on_c, 0, 74, 0
2, 46320, Note_on_c, 0, 74, 100
2, 46439, Note_on_c, 0, 74, 0
2, 46560, Note_on_c, 0, 74, 100
2, 46679, Note_on_c, 0, 74, 0
2, 46740, Note_on_c, 0, 74, 100
2, 46919, Note_on_c, 0, 74, 0
2, 46920, Note_on_c, 0, 74, 100
2, 46980, Note_on_c, 0, 74, 0
2, 46980, Note_on_c, 0, 74, 100
2, 47159, Note_on_c, 0, 74, 0
2, 47160, Note_on_c, 0, 74, 100
2, 47279, Note_on_c, 0, 74, 0
2, 47280, Note_on_c, 0, 74, 100
2, 47399, Note_on_c, 0, 74, 0
2, 47520, Note_on_c, 0, 75, 100
2, 47700, Note_on_c, 0, 75, 0
2, 47700, Note_on_c, 0, 75, 100
2, 47879, Note_on_c, 0, 75, 0
2, 47880, Note_on_c, 0, 75, 100
2, 47939, Note_on_c, 0, 75, 0
2, 47940, Note_on_c, 0, 75, 100
2, 48000, Note_on_c, 0, 75, 0
2, 48000, Note_on_c, 0, 75, 100
2, 48060, Note_on_c, 0, 75, 0
2, 48060, Note_on_c, 0, 75, 100
2, 48120, Note_on_c, 0, 75, 0
2, 48120, Note_on_c, 0, 75, 100
2, 48240, Note_on_c, 0, 75, 0
2, 48240, Note_on_c, 0, 75, 100
2, 48359, Note_on_c, 0, 75, 0
2, 48480, Note_on_c, 0, 75, 100
2, 48540, Note_on_c, 0, 75, 0
2, 48540, Note_on_c, 0, 75, 100
2, 48659, Note_on_c, 0, 75, 0
2, 48660, Note_on_c, 0, 75, 100
2, 48840, Note_on_c, 0, 75, 0
2, 48840, Note_on_c, 0, 75, 100
2, 48899, Note_on_c, 0, 75, 0
2, 48900, Note_on_c, 0, 75, 100
2, 49079, Note_on_c, 0, 75, 0
2, 49080, Note_on_c, 0, 75, 100
2, 49199, Note_on_c, 0, 75, 0
2, 49200, Note_on_c, 0, 77, 100
2, 49319, Note_on_c, 0, 77, 0
2, 49440, Note_on_c, 0, 75, 100
2, 49499, Note_on_c, 0, 75, 0
2, 49500, Note_on_c, 0, 75, 100
2, 49559, Note_on_c, 0, 75, 0
2, 49560, Note_on_c, 0, 75, 100
2, 49619, Note_on_c, 0, 75, 0
2, 49620, Note_on_c, 0, 75, 100
2, 49739, Note_on_c, 0, 75, 0
2, 49740, Note_on_c, 0, 75, 100
2, 49799, Note_on_c, 0, 75, 0
2, 49800, Note_on_c, 0, 75, 100
2, 49859, Note_on_c, 0, 75, 0
2, 49860, Note_on_c, 0, 75, 100
2, 49919, Note_on_c, 0, 75, 0
2, 49920, Note_on_c, 0, 75, 100
2, 50039, Note_on_c, 0, 75, 0
2, 50040, Note_on_c, 0, 74, 100
2, 50159, Note_on_c, 0, 74, 0
2, 50160, Note_on_c, 0, 74, 100
2, 50279, Note_on_c, 0, 74, 0
2, 54540, Note_on_c, 0, 74, 100
2, 54659, Note_on_c, 0, 74, 0
2, 54660, Note_on_c, 0, 77, 100
2, 54719, Note_on_c, 0, 77, 0
2, 54720, Note_on_c, 0, 79, 100
2, 54839, Note_on_c, 0, 79, 0
2, 54840, Note_on_c, 0, 77, 100
2, 54899, Note_on_c, 0, 77, 0
2, 54900, Note_on_c, 0, 74, 100
2, 55019, Note_on_c, 0, 74, 0
2, 55020, Note_on_c, 0, 70, 100
2, 55079, Note_on_c, 0, 70, 0
2, 55080, Note_on_c, 0, 70, 100
2, 55139, Note_on_c, 0, 70, 0
2, 55140, Note_on_c, 0, 72, 100
2, 55379, Note_on_c, 0, 72, 0
2, 55380, Note_on_c, 0, 74, 100
2, 55439, Note_on_c, 0, 74, 0
2, 55440, Note_on_c, 0, 74, 100
2, 55499, Note_on_c, 0, 74, 0
2, 55500, Note_on_c, 0, 72, 100
2, 55679, Note_on_c, 0, 72, 0
2, 56400, Note_on_c, 0, 67, 100
2, 56459, Note_on_c, 0, 67, 0
2, 56460, Note_on_c, 0, 70, 100
2, 56579, Note_on_c, 0, 70, 0
2, 56580, Note_on_c, 0, 70, 100
2, 56819, Note_on_c, 0, 70, 0
2, 56820, Note_on_c, 0, 72, 100
2, 56939, Note_on_c, 0, 72, 0
2, 56940, Note_on_c, 0, 74, 100
2, 57059, Note_on_c, 0, 74, 0
2, 57060, Note_on_c, 0, 74, 100
2, 57179, Note_on_c, 0, 74, 0
2, 57180, Note_on_c, 0, 74, 100
2, 57359, Note_on_c, 0, 74, 0
2, 58440, Note_on_c, 0, 74, 100
2, 58499, Note_on_c, 0, 74, 0
2, 58500, Note_on_c, 0, 77, 100
2, 58559, Note_on_c, 0, 77, 0
2, 58560, Note_on_c, 0, 79, 100
2, 58679, Note_on_c, 0, 79, 0
2, 58680, Note_on_c, 0, 77, 100
2, 58739, Note_on_c, 0, 77, 0
2, 58740, Note_on_c, 0, 74, 100
2, 58859, Note_on_c, 0, 74, 0
2, 58860, Note_on_c, 0, 72, 100
2, 58919, Note_on_c, 0, 72, 0
2, 58920, Note_on_c, 0, 70, 100
2, 58979, Note_on_c, 0, 70, 0
2, 58980, Note_on_c, 0, 72, 100
2, 59219, Note_on_c, 0, 72, 0
2, 59220, Note_on_c, 0, 74, 100
2, 59279, Note_on_c, 0, 74, 0
2, 59280, Note_on_c, 0, 74, 100
2, 59339, Note_on_c, 0, 74, 0
2, 59340, Note_on_c, 0, 72, 100
2, 59519, Note_on_c, 0, 72, 0
2, 60120, Note_on_c, 0, 67, 100
2, 60179, Note_on_c, 0, 67, 0
2, 60180, Note_on_c, 0, 70, 100
2, 60239, Note_on_c, 0, 70, 0
2, 60240, Note_on_c, 0, 70, 100
2, 60359, Note_on_c, 0, 70, 0
2, 60540, Note_on_c, 0, 67, 100
2, 60599, Note_on_c, 0, 67, 0
2, 60600, Note_on_c, 0, 70, 100
2, 60719, Note_on_c, 0, 70, 0
2, 60720, Note_on_c, 0, 70, 100
2, 60839, Note_on_c, 0, 70, 0
2, 60840, Note_on_c, 0, 70, 100
2, 60959, Note_on_c, 0, 70, 0
2, 60960, Note_on_c, 0, 74, 100
2, 61019, Note_on_c, 0, 74, 0
2, 61020, Note_on_c, 0, 72, 100
2, 61139, Note_on_c, 0, 72, 0
2, 61140, Note_on_c, 0, 70, 100
2, 61199, Note_on_c, 0, 70, 0
2, 61200, Note_on_c, 0, 70, 100
2, 61379, Note_on_c, 0, 70, 0
2, 61380, Note_on_c, 0, 79, 100
2, 61499, Note_on_c, 0, 79, 0
2, 61500, Note_on_c, 0, 77, 100
2, 61559, Note_on_c, 0, 77, 0
2, 61560, Note_on_c, 0, 74, 100
2, 61619, Note_on_c, 0, 74, 0
2, 61620, Note_on_c, 0, 77, 100
2, 61739, Note_on_c, 0, 77, 0
2, 61740, Note_on_c, 0, 74, 100
2, 61919, Note_on_c, 0, 74, 0
2, 61920, Note_on_c, 0, 74, 100
2, 62039, Note_on_c, 0, 74, 0
2, 62100, Note_on_c, 0, 74, 100
2, 62279, Note_on_c, 0, 74, 0
2, 62340, Note_on_c, 0, 74, 100
2, 62519, Note_on_c, 0, 74, 0
2, 62520, Note_on_c, 0, 74, 100
2, 62639, Note_on_c, 0, 74, 0
2, 62640, Note_on_c, 0, 74, 100
2, 62759, Note_on_c, 0, 74, 0
2, 62880, Note_on_c, 0, 75, 100
2, 62999, Note_on_c, 0, 75, 0
2, 63000, Note_on_c, 0, 75, 100
2, 63059, Note_on_c, 0, 75, 0
2, 63060, Note_on_c, 0, 75, 100
2, 63239, Note_on_c, 0, 75, 0
2, 63240, Note_on_c, 0, 75, 100
2, 63299, Note_on_c, 0, 75, 0
2, 63300, Note_on_c, 0, 75, 100
2, 63419, Note_on_c, 0, 75, 0
2, 63420, Note_on_c, 0, 75, 100
2, 63539, Note_on_c, 0, 75, 0
2, 63540, Note_on_c, 0, 75, 100
2, 63599, Note_on_c, 0, 75, 0
2, 63600, Note_on_c, 0, 75, 100
2, 63719, Note_on_c, 0, 75, 0
2, 63840, Note_on_c, 0, 75, 100
2, 63959, Note_on_c, 0, 75, 0
2, 63960, Note_on_c, 0, 75, 100
2, 64019, Note_on_c, 0, 75, 0
2, 64020, Note_on_c, 0, 75, 100
2, 64139, Note_on_c, 0, 75, 0
2, 64140, Note_on_c, 0, 75, 100
2, 64199, Note_on_c, 0, 75, 0
2, 64200, Note_on_c, 0, 75, 100
2, 64259, Note_on_c, 0, 75, 0
2, 64260, Note_on_c, 0, 75, 100
2, 64439, Note_on_c, 0, 75, 0
2, 64440, Note_on_c, 0, 75, 100
2, 64559, Note_on_c, 0, 75, 0
2, 64560, Note_on_c, 0, 77, 100
2, 64679, Note_on_c, 0, 77, 0
2, 64800, Note_on_c, 0, 75, 100
2, 64859, Note_on_c, 0, 75, 0
2, 64860, Note_on_c, 0, 75, 100
2, 64919, Note_on_c, 0, 75, 0
2, 64920, Note_on_c, 0, 75, 100
2, 64979, Note_on_c, 0, 75, 0
2, 64980, Note_on_c, 0, 75, 100
2, 65099, Note_on_c, 0, 75, 0
2, 65100, Note_on_c, 0, 75, 100
2, 65159, Note_on_c, 0, 75, 0
2, 65160, Note_on_c, 0, 75, 100
2, 65219, Note_on_c, 0, 75, 0
2, 65220, Note_on_c, 0, 75, 100
2, 65279, Note_on_c, 0, 75, 0
2, 65280, Note_on_c, 0, 75, 100
2, 65399, Note_on_c, 0, 75, 0
2, 65400, Note_on_c, 0, 74, 100
2, 65519, Note_on_c, 0, 74, 0
2, 65520, Note_on_c, 0, 74, 100
2, 65639, Note_on_c, 0, 74, 0
2, 65760, Note_on_c, 0, 74, 100
2, 65879, Note_on_c, 0, 74, 0
2, 65940, Note_on_c, 0, 74, 100
2, 66119, Note_on_c, 0, 74, 0
2, 66120, Note_on_c, 0, 74, 100
2, 66180, Note_on_c, 0, 74, 0
2, 66180, Note_on_c, 0, 74, 100
2, 66359, Note_on_c, 0, 74, 0
2, 66360, Note_on_c, 0, 74, 100
2, 66479, Note_on_c, 0, 74, 0
2, 66480, Note_on_c, 0, 74, 100
2, 66599, Note_on_c, 0, 74, 0
2, 66720, Note_on_c, 0, 75, 100
2, 66900, Note_on_c, 0, 75, 0
2, 66900, Note_on_c, 0, 75, 100
2, 67079, Note_on_c, 0, 75, 0
2, 67080, Note_on_c, 0, 75, 100
2, 67139, Note_on_c, 0, 75, 0
2, 67140, Note_on_c, 0, 75, 100
2, 67200, Note_on_c, 0, 75, 0
2, 67200, Note_on_c, 0, 75, 100
2, 67260, Note_on_c, 0, 75, 0
2, 67260, Note_on_c, 0, 75, 100
2, 67320, Note_on_c, 0, 75, 0
2, 67320, Note_on_c, 0, 75, 100
2, 67440, Note_on_c, 0, 75, 0
2, 67440, Note_on_c, 0, 75, 100
2, 67559, Note_on_c, 0, 75, 0
2, 67680, Note_on_c, 0, 75, 100
2, 67740, Note_on_c, 0, 75, 0
2, 67740, Note_on_c, 0, 75, 100
2, 67859, Note_on_c, 0, 75, 0
2, 67860, Note_on_c, 0, 75, 100
2, 68040, Note_on_c, 0, 75, 0
2, 68040, Note_on_c, 0, 75, 100
2, 68099, Note_on_c, 0, 75, 0
2, 68100, Note_on_c, 0, 75, 100
2, 68279, Note_on_c, 0, 75, 0
2, 68280, Note_on_c, 0, 75, 100
2, 68399, Note_on_c, 0, 75, 0
2, 68400, Note_on_c, 0, 77, 100
2, 68519, Note_on_c, 0, 77, 0
2, 68640, Note_on_c, 0, 75, 100
2, 68699, Note_on_c, 0, 75, 0
2, 68700, Note_on_c, 0, 75, 100
2, 68759, Note_on_c, 0, 75, 0
2, 68760, Note_on_c, 0, 75, 100
2, 68819, Note_on_c, 0, 75, 0
2, 68820, Note_on_c, 0, 75, 100
2, 68939, Note_on_c, 0, 75, 0
2, 68940, Note_on_c, 0, 75, 100
2, 68999, Note_on_c, 0, 75, 0
2, 69000, Note_on_c, 0, 75, 100
2, 69059, Note_on_c, 0, 75, 0
2, 69060, Note_on_c, 0, 75, 100
2, 69119, Note_on_c, 0, 75, 0
2, 69120, Note_on_c, 0, 75, 100
2, 69239, Note_on_c, 0, 75, 0
2, 69240, Note_on_c, 0, 74, 100
2, 69359, Note_on_c, 0, 74, 0
2, 69360, Note_on_c, 0, 74, 100
2, 69479, Note_on_c, 0, 74, 0
2, 72480, Note_on_c, 0, 75, 100
2, 72539, Note_on_c, 0, 75, 0
2, 72540, Note_on_c, 0, 75, 100
2, 72599, Note_on_c, 0, 75, 0
2, 72600, Note_on_c, 0, 75, 100
2, 72659, Note_on_c, 0, 75, 0
2, 72660, Note_on_c, 0, 75, 100
2, 72779, Note_on_c, 0, 75, 0
2, 72780, Note_on_c, 0, 75, 100
2, 72839, Note_on_c, 0, 75, 0
2, 72840, Note_on_c, 0, 75, 100
2, 72899, Note_on_c, 0, 75, 0
2, 72900, Note_on_c, 0, 75, 100
2, 72959, Note_on_c, 0, 75, 0
2, 72960, Note_on_c, 0, 75, 100
2, 73079, Note_on_c, 0, 75, 0
2, 73080, Note_on_c, 0, 74, 100
2, 73199, Note_on_c, 0, 74, 0
2, 73200, Note_on_c, 0, 74, 100
2, 73319, Note_on_c, 0, 74, 0
2, 81000, Note_on_c, 0, 74, 100
2, 81059, Note_on_c, 0, 74, 0
2, 81060, Note_on_c, 0, 77, 100
2, 81179, Note_on_c, 0, 77, 0
2, 81180, Note_on_c, 0, 74, 100
2, 81299, Note_on_c, 0, 74, 0
2, 81300, Note_on_c, 0, 74, 100
2, 81479, Note_on_c, 0, 74, 0
2, 81480, Note_on_c, 0, 72, 100
2, 81539, Note_on_c, 0, 72, 0
2, 81540, Note_on_c, 0, 72, 100
2, 81659, Note_on_c, 0, 72, 0
2, 81660, Note_on_c, 0, 70, 100
2, 81779, Note_on_c, 0, 70, 0
2, 81780, Note_on_c, 0, 74, 100
2, 81959, Note_on_c, 0, 74, 0
2, 82080, Note_on_c, 0, 72, 100
2, 82199, Note_on_c, 0, 72, 0
2, 82200, Note_on_c, 0, 70, 100
2, 82259, Note_on_c, 0, 70, 0
2, 82260, Note_on_c, 0, 74, 100
2, 82379, Note_on_c, 0, 74, 0
2, 82380, Note_on_c, 0, 72, 100
2, 82499, Note_on_c, 0, 72, 0
2, 82500, Note_on_c, 0, 70, 100
2, 82559, Note_on_c, 0, 70, 0
2, 82560, Note_on_c, 0, 72, 100
2, 82739, Note_on_c, 0, 72, 0
2, 82740, Note_on_c, 0, 70, 100
2, 82919, Note_on_c, 0, 70, 0
2, 83040, Note_on_c, 0, 72, 100
2, 83159, Note_on_c, 0, 72, 0
2, 83160, Note_on_c, 0, 70, 100
2, 83219, Note_on_c, 0, 70, 0
2, 83220, Note_on_c, 0, 72, 100
2, 83399, Note_on_c, 0, 72, 0
2, 83400, Note_on_c, 0, 72, 100
2, 83519, Note_on_c, 0, 72, 0
2, 83520, Note_on_c, 0, 72, 100
2, 83639, Note_on_c, 0, 72, 0
2, 83640, Note_on_c, 0, 70, 100
2, 83699, Note_on_c, 0, 70, 0
2, 83700, Note_on_c, 0, 74, 100
2, 83879, Note_on_c, 0, 74, 0
2, 84000, Note_on_c, 0, 74, 100
2, 84059, Note_on_c, 0, 74, 0
2, 84060, Note_on_c, 0, 74, 100
2, 84179, Note_on_c, 0, 74, 0
2, 84180, Note_on_c, 0, 74, 100
2, 84359, Note_on_c, 0, 74, 0
2, 84360, Note_on_c, 0, 72, 100
2, 84419, Note_on_c, 0, 72, 0
2, 84420, Note_on_c, 0, 70, 100
2, 84479, Note_on_c, 0, 70, 0
2, 84480, Note_on_c, 0, 70, 100
2, 84659, Note_on_c, 0, 70, 0
2, 84660, Note_on_c, 0, 70, 100
2, 84839, Note_on_c, 0, 70, 0
2, 84839, End_track
3, 0, Start_track
3, 0, MIDI_port, 0
3, 0, Title_t, "Piano"
3, 0, Program_c, 1, 0
3, 0, Control_c, 1, 7, 100
3, 2880, Note_on_c, 1, 70, 70
3, 2880, Note_on_c, 1, 65, 70
3, 2969, Note_on_c, 1, 65, 0
3, 2969, Note_on_c, 1, 70, 0
3, 3000, Note_on_c, 1, 70, 80
3, 3000, Note_on_c, 1, 65, 80
3, 3089, Note_on_c, 1, 65, 0
3, 3089, Note_on_c, 1, 70, 0
3, 3120, Note_on_c, 1, 65, 90
3, 3120, Note_on_c, 1, 72, 90
3, 3239, Note_on_c, 1, 72, 0
3, 3239, Note_on_c, 1, 65, 0
3, 3240, Note_on_c, 1, 74, 100
3, 3240, Note_on_c, 1, 65, 100
3, 3359, Note_on_c, 1, 65, 0
3, 3359, Note_on_c, 1, 74, 0
3, 3360, Note_on_c, 1, 67, 110
3, 3360, Note_on_c, 1, 70, 110
3, 3360, Note_on_c, 1, 75, 110
3, 3539, Note_on_c, 1, 75, 0
3, 3539, Note_on_c, 1, 70, 0
3, 3539, Note_on_c, 1, 67, 0
3, 3540, Note_on_c, 1, 65, 110
3, 3540, Note_on_c, 1, 74, 110
3, 3679, Note_on_c, 1, 74, 0
3, 3679, Note_on_c, 1, 65, 0
3, 3680, Note_on_c, 1, 63, 110
3, 3680, Note_on_c, 1, 72, 110
3, 3759, Note_on_c, 1, 72, 0
3, 3759, Note_on_c, 1, 63, 0
3, 3760, Note_on_c, 1, 63, 110
3, 3760, Note_on_c, 1, 70, 110
3, 3839, Note_on_c, 1, 70, 0
3, 3839, Note_on_c, 1, 63, 0
3, 3840, Note_on_c, 1, 63, 110
3, 3840, Note_on_c, 1, 67, 110
3, 4019, Note_on_c, 1, 67, 0
3, 4019, Note_on_c, 1, 63, 0
3, 4020, Note_on_c, 1, 63, 110
3, 4020, Note_on_c, 1, 65, 110
3, 4319, Note_on_c, 1, 65, 0
3, 4319, Note_on_c, 1, 63, 0
3, 6720, Note_on_c, 1, 70, 70
3, 6720, Note_on_c, 1, 65, 70
3, 6809, Note_on_c, 1, 65, 0
3, 6809, Note_on_c, 1, 70, 0
3, 6840, Note_on_c, 1, 70, 80
3, 6840, Note_on_c, 1, 65, 80
3, 6929, Note_on_c, 1, 65, 0
3, 6929, Note_on_c, 1, 70, 0
3, 6960, Note_on_c, 1, 65, 90
3, 6960, Note_on_c, 1, 72, 90
3, 7079, Note_on_c, 1, 72, 0
3, 7079, Note_on_c, 1, 65, 0
3, 7080, Note_on_c, 1, 74, 100
3, 7080, Note_on_c, 1, 65, 100
3, 7199, Note_on_c, 1, 65, 0
3, 7199, Note_on_c, 1, 74, 0
3, 7200, Note_on_c, 1, 67, 110
3, 7200, Note_on_c, 1, 70, 110
3, 7200, Note_on_c, 1, 75, 110
3, 7379, Note_on_c, 1, 75, 0
3, 7379, Note_on_c, 1, 70, 0
3, 7379, Note_on_c, 1, 67, 0
3, 7380, Note_on_c, 1, 65, 110
3, 7380, Note_on_c, 1, 74, 110
3, 7519, Note_on_c, 1, 74, 0
3, 7519, Note_on_c, 1, 65, 0
3, 7520, Note_on_c, 1, 63, 110
3, 7520, Note_on_c, 1, 72, 110
3, 7599, Note_on_c, 1, 72, 0
3, 7599, Note_on_c, 1, 63, 0
3, 7600, Note_on_c, 1, 63, 110
3, 7600, Note_on_c, 1, 70, 110
3, 7679, Note_on_c, 1, 70, 0
3, 7679, Note_on_c, 1, 63, 0
3, 7680, Note_on_c, 1, 63, 110
3, 7680, Note_on_c, 1, 67, 110
3, 7859, Note_on_c, 1, 67, 0
3, 7859, Note_on_c, 1, 63, 0
3, 7860, Note_on_c, 1, 63, 110
3, 7860, Note_on_c, 1, 65, 110
3, 8159, Note_on_c, 1, 65, 0
3, 8159, Note_on_c, 1, 63, 0
3, 8160, Note_on_c, 1, 70, 90
3, 8160, Note_on_c, 1, 74, 90
3, 8160, Note_on_c, 1, 77, 90
3, 9119, Note_on_c, 1, 77, 0
3, 9119, Note_on_c, 1, 74, 0
3, 9119, Note_on_c, 1, 70, 0
3, 9120, Note_on_c, 1, 65, 90
3, 9120, Note_on_c, 1, 62, 90
3, 9599, Note_on_c, 1, 62, 0
3, 9599, Note_on_c, 1, 65, 0
3, 9600, Note_on_c, 1, 58, 110
3, 9600, Note_on_c, 1, 65, 110
3, 9779, Note_on_c, 1, 65, 0
3, 9779, Note_on_c, 1, 58, 0
3, 9780, Note_on_c, 1, 60, 110
3, 9780, Note_on_c, 1, 65, 110
3, 10079, Note_on_c, 1, 65, 0
3, 10079, Note_on_c, 1, 60, 0
3, 10080, Note_on_c, 1, 72, 90
3, 10080, Note_on_c, 1, 69, 90
3, 10080, Note_on_c, 1, 65, 90
3, 11039, Note_on_c, 1, 65, 0
3, 11039, Note_on_c, 1, 69, 0
3, 11039, Note_on_c, 1, 72, 0
3, 11040, Note_on_c, 1, 63, 90
3, 11040, Note_on_c, 1, 67, 90
3, 11040, Note_on_c, 1, 72, 90
3, 11519, Note_on_c, 1, 72, 0
3, 11519, Note_on_c, 1, 67, 0
3, 11519, Note_on_c, 1, 63, 0
3, 11520, Note_on_c, 1, 58, 110
3, 11520, Note_on_c, 1, 67, 110
3, 11520, Note_on_c, 1, 63, 110
3, 11700, Note_on_c, 1, 65, 110
3, 11999, Note_on_c, 1, 65, 0
3, 11999, Note_on_c, 1, 58, 0
3, 11999, Note_on_c, 1, 67, 0
3, 11999, Note_on_c, 1, 63, 0
3, 12000, Note_on_c, 1, 70, 90
3, 12000, Note_on_c, 1, 74, 90
3, 12000, Note_on_c, 1, 77, 90
3, 12959, Note_on_c, 1, 77, 0
3, 12959, Note_on_c, 1, 74, 0
3, 12959, Note_on_c, 1, 70, 0
3, 12960, Note_on_c, 1, 65, 90
3, 12960, Note_on_c, 1, 62, 90
3, 13439, Note_on_c, 1, 62, 0
3, 13439, Note_on_c, 1, 65, 0
3, 13440, Note_on_c, 1, 58, 110
3, 13440, Note_on_c, 1, 65, 110
3, 13619, Note_on_c, 1, 65, 0
3, 13619, Note_on_c, 1, 58, 0
3, 13620, Note_on_c, 1, 60, 110
3, 13620, Note_on_c, 1, 65, 110
3, 13919, Note_on_c, 1, 65, 0
3, 13919, Note_on_c, 1, 60, 0
3, 13920, Note_on_c, 1, 72, 90
3, 13920, Note_on_c, 1, 69, 90
3, 13920, Note_on_c, 1, 65, 90
3, 14879, Note_on_c, 1, 65, 0
3, 14879, Note_on_c, 1, 69, 0
3, 14879, Note_on_c, 1, 72, 0
3, 14880, Note_on_c, 1, 63, 90
3, 14880, Note_on_c, 1, 67, 90
3, 14880, Note_on_c, 1, 72, 90
3, 15359, Note_on_c, 1, 72, 0
3, 15359, Note_on_c, 1, 67, 0
3, 15359, Note_on_c, 1, 63, 0
3, 15360, Note_on_c, 1, 58, 110
3, 15360, Note_on_c, 1, 67, 110
3, 15360, Note_on_c, 1, 63, 110
3, 15540, Note_on_c, 1, 65, 110
3, 15839, Note_on_c, 1, 65, 0
3, 15839, Note_on_c, 1, 58, 0
3, 15839, Note_on_c, 1, 67, 0
3, 15839, Note_on_c, 1, 63, 0
3, 15900, Note_on_c, 1, 65, 90
3, 15900, Note_on_c, 1, 70, 90
3, 15900, Note_on_c, 1, 74, 90
3, 16019, Note_on_c, 1, 74, 0
3, 16019, Note_on_c, 1, 70, 0
3, 16019, Note_on_c, 1, 65, 0
3, 16020, Note_on_c, 1, 74, 90
3, 16020, Note_on_c, 1, 70, 90
3, 16020, Note_on_c, 1, 65, 90
3, 16199, Note_on_c, 1, 65, 0
3, 16199, Note_on_c, 1, 70, 0
3, 16199, Note_on_c, 1, 74, 0
3, 16380, Note_on_c, 1, 74, 90
3, 16380, Note_on_c, 1, 70, 90
3, 16380, Note_on_c, 1, 65, 90
3, 16499, Note_on_c, 1, 65, 0
3, 16499, Note_on_c, 1, 70, 0
3, 16499, Note_on_c, 1, 74, 0
3, 16500, Note_on_c, 1, 65, 90
3, 16500, Note_on_c, 1, 70, 90
3, 16500, Note_on_c, 1, 74, 90
3, 16679, Note_on_c, 1, 74, 0
3, 16679, Note_on_c, 1, 70, 0
3, 16679, Note_on_c, 1, 65, 0
3, 16800, Note_on_c, 1, 62, 90
3, 16800, Note_on_c, 1, 65, 90
3, 17459, Note_on_c, 1, 65, 0
3, 17459, Note_on_c, 1, 62, 0
3, 17460, Note_on_c, 1, 74, 90
3, 17460, Note_on_c, 1, 70, 90
3, 17460, Note_on_c, 1, 65, 90
3, 17759, Note_on_c, 1, 65, 0
3, 17759, Note_on_c, 1, 70, 0
3, 17759, Note_on_c, 1, 74, 0
3, 17760, Note_on_c, 1, 72, 90
3, 17760, Note_on_c, 1, 69, 90
3, 17760, Note_on_c, 1, 65, 90
3, 18719, Note_on_c, 1, 65, 0
3, 18719, Note_on_c, 1, 69, 0
3, 18719, Note_on_c, 1, 72, 0
3, 18720, Note_on_c, 1, 70, 90
3, 18720, Note_on_c, 1, 67, 90
3, 18720, Note_on_c, 1, 63, 90
3, 19199, Note_on_c, 1, 63, 0
3, 19199, Note_on_c, 1, 67, 0
3, 19199, Note_on_c, 1, 70, 0
3, 19200, Note_on_c, 1, 70, 90
3, 19200, Note_on_c, 1, 67, 90
3, 19200, Note_on_c, 1, 63, 90
3, 19379, Note_on_c, 1, 63, 0
3, 19379, Note_on_c, 1, 67, 0
3, 19379, Note_on_c, 1, 70, 0
3, 19380, Note_on_c, 1, 63, 90
3, 19380, Note_on_c, 1, 67, 90
3, 19380, Note_on_c, 1, 70, 90
3, 19499, Note_on_c, 1, 70, 0
3, 19499, Note_on_c, 1, 67, 0
3, 19499, Note_on_c, 1, 63, 0
3, 19500, Note_on_c, 1, 67, 90
3, 19679, Note_on_c, 1, 67, 0
3, 29760, Note_on_c, 1, 70, 70
3, 29760, Note_on_c, 1, 65, 70
3, 29849, Note_on_c, 1, 65, 0
3, 29849, Note_on_c, 1, 70, 0
3, 29880, Note_on_c, 1, 70, 80
3, 29880, Note_on_c, 1, 65, 80
3, 29969, Note_on_c, 1, 65, 0
3, 29969, Note_on_c, 1, 70, 0
3, 30000, Note_on_c, 1, 65, 90
3, 30000, Note_on_c, 1, 72, 90
3, 30119, Note_on_c, 1, 72, 0
3, 30119, Note_on_c, 1, 65, 0
3, 30120, Note_on_c, 1, 74, 100
3, 30120, Note_on_c, 1, 65, 100
3, 30239, Note_on_c, 1, 65, 0
3, 30239, Note_on_c, 1, 74, 0
3, 30240, Note_on_c, 1, 67, 110
3, 30240, Note_on_c, 1, 70, 110
3, 30240, Note_on_c, 1, 75, 110
3, 30419, Note_on_c, 1, 75, 0
3, 30419, Note_on_c, 1, 70, 0
3, 30419, Note_on_c, 1, 67, 0
3, 30420, Note_on_c, 1, 65, 110
3, 30420, Note_on_c, 1, 74, 110
3, 30559, Note_on_c, 1, 74, 0
3, 30559, Note_on_c, 1, 65, 0
3, 30560, Note_on_c, 1, 63, 110
3, 30560, Note_on_c, 1, 72, 110
3, 30639, Note_on_c, 1, 72, 0
3, 30639, Note_on_c, 1, 63, 0
3, 30640, Note_on_c, 1, 63, 110
3, 30640, Note_on_c, 1, 70, 110
3, 30719, Note_on_c, 1, 70, 0
3, 30719, Note_on_c, 1, 63, 0
3, 30720, Note_on_c, 1, 63, 110
3, 30720, Note_on_c, 1, 67, 110
3, 30899, Note_on_c, 1, 67, 0
3, 30899, Note_on_c, 1, 63, 0
3, 30900, Note_on_c, 1, 63, 110
3, 30900, Note_on_c, 1, 65, 110
3, 31199, Note_on_c, 1, 65, 0
3, 31199, Note_on_c, 1, 63, 0
3, 31200, Note_on_c, 1, 70, 90
3, 31200, Note_on_c, 1, 74, 90
3, 31200, Note_on_c, 1, 77, 90
3, 32159, Note_on_c, 1, 77, 0
3, 32159, Note_on_c, 1, 74, 0
3, 32159, Note_on_c, 1, 70, 0
3, 32160, Note_on_c, 1, 65, 90
3, 32160, Note_on_c, 1, 62, 90
3, 32639, Note_on_c, 1, 62, 0
3, 32639, Note_on_c, 1, 65, 0
3, 32640, Note_on_c, 1, 58, 110
3, 32640, Note_on_c, 1, 65, 110
3, 32819, Note_on_c, 1, 65, 0
3, 32819, Note_on_c, 1, 58, 0
3, 32820, Note_on_c, 1, 60, 110
3, 32820, Note_on_c, 1, 65, 110
3, 33119, Note_on_c, 1, 65, 0
3, 33119, Note_on_c, 1, 60, 0
3, 33120, Note_on_c, 1, 72, 90
3, 33120, Note_on_c, 1, 69, 90
3, 33120, Note_on_c, 1, 65, 90
3, 34079, Note_on_c, 1, 65, 0
3, 34079, Note_on_c, 1, 69, 0
3, 34079, Note_on_c, 1, 72, 0
3, 34080, Note_on_c, 1, 63, 90
3, 34080, Note_on_c, 1, 67, 90
3, 34080, Note_on_c, 1, 72, 90
3, 34559, Note_on_c, 1, 72, 0
3, 34559, Note_on_c, 1, 67, 0
3, 34559, Note_on_c, 1, 63, 0
3, 34560, Note_on_c, 1, 58, 110
3, 34560, Note_on_c, 1, 67, 110
3, 34560, Note_on_c, 1, 63, 110
3, 34740, Note_on_c, 1, 65, 110
3, 35039, Note_on_c, 1, 65, 0
3, 35039, Note_on_c, 1, 58, 0
3, 35039, Note_on_c, 1, 67, 0
3, 35039, Note_on_c, 1, 63, 0
3, 35040, Note_on_c, 1, 70, 90
3, 35040, Note_on_c, 1, 74, 90
3, 35040, Note_on_c, 1, 77, 90
3, 35999, Note_on_c, 1, 77, 0
3, 35999, Note_on_c, 1, 74, 0
3, 35999, Note_on_c, 1, 70, 0
3, 36000, Note_on_c, 1, 65, 90
3, 36000, Note_on_c, 1, 62, 90
3, 36479, Note_on_c, 1, 62, 0
3, 36479, Note_on_c, 1, 65, 0
3, 36480, Note_on_c, 1, 58, 110
3, 36480, Note_on_c, 1, 65, 110
3, 36659, Note_on_c, 1, 65, 0
3, 36659, Note_on_c, 1, 58, 0
3, 36660, Note_on_c, 1, 60, 110
3, 36660, Note_on_c, 1, 65, 110
3, 36959, Note_on_c, 1, 65, 0
3, 36959, Note_on_c, 1, 60, 0
3, 36960, Note_on_c, 1, 72, 90
3, 36960, Note_on_c, 1, 69, 90
3, 36960, Note_on_c, 1, 65, 90
3, 37919, Note_on_c, 1, 65, 0
3, 37919, Note_on_c, 1, 69, 0
3, 37919, Note_on_c, 1, 72, 0
3, 37920, Note_on_c, 1, 63, 90
3, 37920, Note_on_c, 1, 67, 90
3, 37920, Note_on_c, 1, 72, 90
3, 38399, Note_on_c, 1, 72, 0
3, 38399, Note_on_c, 1, 67, 0
3, 38399, Note_on_c, 1, 63, 0
3, 38400, Note_on_c, 1, 58, 110
3, 38400, Note_on_c, 1, 67, 110
3, 38400, Note_on_c, 1, 63, 110
3, 38580, Note_on_c, 1, 65, 110
3, 38879, Note_on_c, 1, 65, 0
3, 38879, Note_on_c, 1, 58, 0
3, 38879, Note_on_c, 1, 67, 0
3, 38879, Note_on_c, 1, 63, 0
3, 38940, Note_on_c, 1, 65, 90
3, 38940, Note_on_c, 1, 70, 90
3, 38940, Note_on_c, 1, 74, 90
3, 39059, Note_on_c, 1, 74, 0
3, 39059, Note_on_c, 1, 70, 0
3, 39059, Note_on_c, 1, 65, 0
3, 39060, Note_on_c, 1, 74, 90
3, 39060, Note_on_c, 1, 70, 90
3, 39060, Note_on_c, 1, 65, 90
3, 39239, Note_on_c, 1, 65, 0
3, 39239, Note_on_c, 1, 70, 0
3, 39239, Note_on_c, 1, 74, 0
3, 39420, Note_on_c, 1, 74, 90
3, 39420, Note_on_c, 1, 70, 90
3, 39420, Note_on_c, 1, 65, 90
3, 39539, Note_on_c, 1, 65, 0
3, 39539, Note_on_c, 1, 70, 0
3, 39539, Note_on_c, 1, 74, 0
3, 39540, Note_on_c, 1, 65, 90
3, 39540, Note_on_c, 1, 70, 90
3, 39540, Note_on_c, 1, 74, 90
3, 39719, Note_on_c, 1, 74, 0
3, 39719, Note_on_c, 1, 70, 0
3, 39719, Note_on_c, 1, 65, 0
3, 39840, Note_on_c, 1, 62, 90
3, 39840, Note_on_c, 1, 65, 90
3, 40499, Note_on_c, 1, 65, 0
3, 40499, Note_on_c, 1, 62, 0
3, 40500, Note_on_c, 1, 74, 90
3, 40500, Note_on_c, 1, 70, 90
3, 40500, Note_on_c, 1, 65, 90
3, 40799, Note_on_c, 1, 65, 0
3, 40799, Note_on_c, 1, 70, 0
3, 40799, Note_on_c, 1, 74, 0
3, 40800, Note_on_c, 1, 72, 90
3, 40800, Note_on_c, 1, 69, 90
3, 40800, Note_on_c, 1, 65, 90
3, 41759, Note_on_c, 1, 65, 0
3, 41759, Note_on_c, 1, 69, 0
3, 41759, Note_on_c, 1, 72, 0
3, 41760, Note_on_c, 1, 70, 90
3, 41760, Note_on_c, 1, 67, 90
3, 41760, Note_on_c, 1, 63, 90
3, 42239, Note_on_c, 1, 63, 0
3, 42239, Note_on_c, 1, 67, 0
3, 42239, Note_on_c, 1, 70, 0
3, 42240, Note_on_c, 1, 70, 90
3, 42240, Note_on_c, 1, 67, 90
3, 42240, Note_on_c, 1, 63, 90
3, 42419, Note_on_c, 1, 63, 0
3, 42419, Note_on_c, 1, 67, 0
3, 42419, Note_on_c, 1, 70, 0
3, 42420, Note_on_c, 1, 63, 90
3, 42420, Note_on_c, 1, 67, 90
3, 42420, Note_on_c, 1, 70, 90
3, 42539, Note_on_c, 1, 70, 0
3, 42539, Note_on_c, 1, 67, 0
3, 42539, Note_on_c, 1, 63, 0
3, 42540, Note_on_c, 1, 67, 90
3, 42719, Note_on_c, 1, 67, 0
3, 52800, Note_on_c, 1, 70, 70
3, 52800, Note_on_c, 1, 65, 70
3, 52889, Note_on_c, 1, 65, 0
3, 52889, Note_on_c, 1, 70, 0
3, 52920, Note_on_c, 1, 70, 80
3, 52920, Note_on_c, 1, 65, 80
3, 53009, Note_on_c, 1, 65, 0
3, 53009, Note_on_c, 1, 70, 0
3, 53040, Note_on_c, 1, 65, 90
3, 53040, Note_on_c, 1, 72, 90
3, 53159, Note_on_c, 1, 72, 0
3, 53159, Note_on_c, 1, 65, 0
3, 53160, Note_on_c, 1, 74, 100
3, 53160, Note_on_c, 1, 65, 100
3, 53279, Note_on_c, 1, 65, 0
3, 53279, Note_on_c, 1, 74, 0
3, 53280, Note_on_c, 1, 67, 110
3, 53280, Note_on_c, 1, 70, 110
3, 53280, Note_on_c, 1, 75, 110
3, 53459, Note_on_c, 1, 75, 0
3, 53459, Note_on_c, 1, 70, 0
3, 53459, Note_on_c, 1, 67, 0
3, 53460, Note_on_c, 1, 65, 110
3, 53460, Note_on_c, 1, 74, 110
3, 53599, Note_on_c, 1, 74, 0
3, 53599, Note_on_c, 1, 65, 0
3, 53600, Note_on_c, 1, 63, 110
3, 53600, Note_on_c, 1, 72, 110
3, 53679, Note_on_c, 1, 72, 0
3, 53679, Note_on_c, 1, 63, 0
3, 53680, Note_on_c, 1, 63, 110
3, 53680, Note_on_c, 1, 70, 110
3, 53759, Note_on_c, 1, 70, 0
3, 53759, Note_on_c, 1, 63, 0
3, 53760, Note_on_c, 1, 63, 110
3, 53760, Note_on_c, 1, 67, 110
3, 53939, Note_on_c, 1, 67, 0
3, 53939, Note_on_c, 1, 63, 0
3, 53940, Note_on_c, 1, 63, 110
3, 53940, Note_on_c, 1, 65, 110
3, 54239, Note_on_c, 1, 65, 0
3, 54239, Note_on_c, 1, 63, 0
3, 81120, Note_on_c, 1, 70, 90
3, 81120, Note_on_c, 1, 74, 90
3, 81120, Note_on_c, 1, 77, 90
3, 82079, Note_on_c, 1, 77, 0
3, 82079, Note_on_c, 1, 74, 0
3, 82079, Note_on_c, 1, 70, 0
3, 82080, Note_on_c, 1, 65, 90
3, 82080, Note_on_c, 1, 62, 90
3, 83039, Note_on_c, 1, 62, 0
3, 83039, Note_on_c, 1, 65, 0
3, 83040, Note_on_c, 1, 72, 90
3, 83040, Note_on_c, 1, 69, 90
3, 83040, Note_on_c, 1, 65, 90
3, 83999, Note_on_c, 1, 65, 0
3, 83999, Note_on_c, 1, 69, 0
3, 83999, Note_on_c, 1, 72, 0
3, 84000, Note_on_c, 1, 63, 90
3, 84000, Note_on_c, 1, 67, 90
3, 84000, Note_on_c, 1, 72, 90
3, 84479, Note_on_c, 1, 72, 0
3, 84479, Note_on_c, 1, 67, 0
3, 84479, Note_on_c, 1, 63, 0
3, 84480, Note_on_c, 1, 58, 110
3, 84480, Note_on_c, 1, 67, 110
3, 84480, Note_on_c, 1, 63, 110
3, 84959, Note_on_c, 1, 63, 0
3, 84959, Note_on_c, 1, 67, 0
3, 84959, Note_on_c, 1, 58, 0
3, 87360, Note_on_c, 1, 70, 70
3, 87360, Note_on_c, 1, 65, 70
3, 87449, Note_on_c, 1, 65, 0
3, 87449, Note_on_c, 1, 70, 0
3, 87480, Note_on_c, 1, 70, 80
3, 87480, Note_on_c, 1, 65, 80
3, 87569, Note_on_c, 1, 65, 0
3, 87569, Note_on_c, 1, 70, 0
3, 87600, Note_on_c, 1, 65, 90
3, 87600, Note_on_c, 1, 72, 90
3, 87719, Note_on_c, 1, 72, 0
3, 87719, Note_on_c, 1, 65, 0
3, 87720, Note_on_c, 1, 74, 100
3, 87720, Note_on_c, 1, 65, 100
3, 87839, Note_on_c, 1, 65, 0
3, 87839, Note_on_c, 1, 74, 0
3, 87840, Note_on_c, 1, 67, 110
3, 87840, Note_on_c, 1, 70, 110
3, 87840, Note_on_c, 1, 75, 110
3, 88019, Note_on_c, 1, 75, 0
3, 88019, Note_on_c, 1, 70, 0
3, 88019, Note_on_c, 1, 67, 0
3, 88020, Note_on_c, 1, 65, 110
3, 88020, Note_on_c, 1, 74, 110
3, 88159, Note_on_c, 1, 74, 0
3, 88159, Note_on_c, 1, 65, 0
3, 88160, Note_on_c, 1, 63, 110
3, 88160, Note_on_c, 1, 72, 110
3, 88239, Note_on_c, 1, 72, 0
3, 88239, Note_on_c, 1, 63, 0
3, 88240, Note_on_c, 1, 63, 110
3, 88240, Note_on_c, 1, 70, 110
3, 88319, Note_on_c, 1, 70, 0
3, 88319, Note_on_c, 1, 63, 0
3, 88320, Note_on_c, 1, 63, 110
3, 88320, Note_on_c, 1, 67, 110
3, 88499, Note_on_c, 1, 67, 0
3, 88499, Note_on_c, 1, 63, 0
3, 88500, Note_on_c, 1, 63, 110
3, 88500, Note_on_c, 1, 65, 110
3, 88799, Note_on_c, 1, 65, 0
3, 88799, Note_on_c, 1, 63, 0
3, 88800, Control_c, 1, 7, 100
3, 88838, Control_c, 1, 7, 99
3, 88876, Control_c, 1, 7, 98
3, 88915, Control_c, 1, 7, 97
3, 88953, Control_c, 1, 7, 96
3, 88991, Control_c, 1, 7, 95
3, 89030, Control_c, 1, 7, 94
3, 89068, Control_c, 1, 7, 93
3, 89107, Control_c, 1, 7, 92
3, 89145, Control_c, 1, 7, 91
3, 89183, Control_c, 1, 7, 90
3, 89222, Control_c, 1, 7, 89
3, 89260, Control_c, 1, 7, 88
3, 89299, Control_c, 1, 7, 87
3, 89337, Control_c, 1, 7, 86
3, 89375, Control_c, 1, 7, 85
3, 89414, Control_c, 1, 7, 84
3, 89452, Control_c, 1, 7, 83
3, 89491, Control_c, 1, 7, 82
3, 89529, Control_c, 1, 7, 81
3, 89567, Control_c, 1, 7, 80
3, 89606, Control_c, 1, 7, 79
3, 89644, Control_c, 1, 7, 78
3, 89682, Control_c, 1, 7, 77
3, 89721, Control_c, 1, 7, 76
3, 89759, Control_c, 1, 7, 75
3, 89798, Control_c, 1, 7, 74
3, 89836, Control_c, 1, 7, 73
3, 89874, Control_c, 1, 7, 72
3, 89913, Control_c, 1, 7, 71
3, 89951, Control_c, 1, 7, 70
3, 89990, Control_c, 1, 7, 69
3, 90028, Control_c, 1, 7, 68
3, 90066, Control_c, 1, 7, 67
3, 90105, Control_c, 1, 7, 66
3, 90143, Control_c, 1, 7, 65
3, 90182, Control_c, 1, 7, 64
3, 90220, Control_c, 1, 7, 63
3, 90258, Control_c, 1, 7, 62
3, 90297, Control_c, 1, 7, 61
3, 90335, Control_c, 1, 7, 60
3, 90373, Control_c, 1, 7, 59
3, 90412, Control_c, 1, 7, 58
3, 90450, Control_c, 1, 7, 57
3, 90489, Control_c, 1, 7, 56
3, 90527, Control_c, 1, 7, 55
3, 90565, Control_c, 1, 7, 54
3, 90604, Control_c, 1, 7, 53
3, 90642, Control_c, 1, 7, 52
3, 90681, Control_c, 1, 7, 51
3, 90719, Control_c, 1, 7, 50
3, 90757, Control_c, 1, 7, 49
3, 90796, Control_c, 1, 7, 48
3, 90834, Control_c, 1, 7, 47
3, 90873, Control_c, 1, 7, 46
3, 90911, Control_c, 1, 7, 45
3, 90949, Control_c, 1, 7, 44
3, 90988, Control_c, 1, 7, 43
3, 91026, Control_c, 1, 7, 42
3, 91065, Control_c, 1, 7, 41
3, 91103, Control_c, 1, 7, 40
3, 91141, Control_c, 1, 7, 39
3, 91180, Control_c, 1, 7, 38
3, 91200, Note_on_c, 1, 70, 70
3, 91200, Note_on_c, 1, 65, 70
3, 91218, Control_c, 1, 7, 37
3, 91256, Control_c, 1, 7, 36
3, 91289, Note_on_c, 1, 65, 0
3, 91289, Note_on_c, 1, 70, 0
3, 91295, Control_c, 1, 7, 35
3, 91320, Note_on_c, 1, 70, 80
3, 91320, Note_on_c, 1, 65, 80
3, 91333, Control_c, 1, 7, 34
3, 91372, Control_c, 1, 7, 33
3, 91409, Note_on_c, 1, 65, 0
3, 91409, Note_on_c, 1, 70, 0
3, 91410, Control_c, 1, 7, 32
3, 91440, Note_on_c, 1, 65, 90
3, 91440, Note_on_c, 1, 72, 90
3, 91448, Control_c, 1, 7, 31
3, 91487, Control_c, 1, 7, 30
3, 91525, Control_c, 1, 7, 29
3, 91559, Note_on_c, 1, 72, 0
3, 91559, Note_on_c, 1, 65, 0
3, 91560, Note_on_c, 1, 74, 100
3, 91560, Note_on_c, 1, 65, 100
3, 91564, Control_c, 1, 7, 28
3, 91602, Control_c, 1, 7, 27
3, 91640, Control_c, 1, 7, 26
3, 91679, Note_on_c, 1, 65, 0
3, 91679, Note_on_c, 1, 74, 0
3, 91679, Control_c, 1, 7, 25
3, 91680, Note_on_c, 1, 67, 110
3, 91680, Note_on_c, 1, 70, 110
3, 91680, Note_on_c, 1, 75, 110
3, 91717, Control_c, 1, 7, 24
3, 91756, Control_c, 1, 7, 23
3, 91794, Control_c, 1, 7, 22
3, 91832, Control_c, 1, 7, 21
3, 91859, Note_on_c, 1, 75, 0
3, 91859, Note_on_c, 1, 70, 0
3, 91859, Note_on_c, 1, 67, 0
3, 91860, Note_on_c, 1, 65, 110
3, 91860, Note_on_c, 1, 74, 110
3, 91871, Control_c, 1, 7, 20
3, 91909, Control_c, 1, 7, 19
3, 91947, Control_c, 1, 7, 18
3, 91986, Control_c, 1, 7, 17
3, 91999, Note_on_c, 1, 74, 0
3, 91999, Note_on_c, 1, 65, 0
3, 92000, Note_on_c, 1, 63, 110
3, 92000, Note_on_c, 1, 72, 110
3, 92024, Control_c, 1, 7, 16
3, 92063, Control_c, 1, 7, 15
3, 92079, Note_on_c, 1, 72, 0
3, 92079, Note_on_c, 1, 63, 0
3, 92080, Note_on_c, 1, 63, 110
3, 92080, Note_on_c, 1, 70, 110
3, 92101, Control_c, 1, 7, 14
3, 92139, Control_c, 1, 7, 13
3, 92159, Note_on_c, 1, 70, 0
3, 92159, Note_on_c, 1, 63, 0
3, 92160, Note_on_c, 1, 63, 110
3, 92160, Note_on_c, 1, 67, 110
3, 92178, Control_c, 1, 7, 12
3, 92216, Control_c, 1, 7, 11
3, 92255, Control_c, 1, 7, 10
3, 92293, Control_c, 1, 7, 9
3, 92331, Control_c, 1, 7, 8
3, 92339, Note_on_c, 1, 67, 0
3, 92339, Note_on_c, 1, 63, 0
3, 92340, Note_on_c, 1, 63, 110
3, 92340, Note_on_c, 1, 65, 110
3, 92370, Control_c, 1, 7, 7
3, 92408, Control_c, 1, 7, 6
3, 92447, Control_c, 1, 7, 5
3, 92485, Control_c, 1, 7, 4
3, 92523, Control_c, 1, 7, 3
3, 92562, Control_c, 1, 7, 2
3, 92600, Control_c, 1, 7, 1
3, 92639, Note_on_c, 1, 65, 0
3, 92639, Note_on_c, 1, 63, 0
3, 92639, Control_c, 1, 7, 0
3, 92639, End_track
4, 0, Start_track
4, 0, MIDI_port, 0
4, 0, Title_t, "Organ"
4, 0, Program_c, 2, 16
4, 0, Control_c, 2, 7, 55
4, 4320, Note_on_c, 2, 65, 100
4, 4320, Note_on_c, 2, 74, 100
4, 4320, Note_on_c, 2, 70, 100
4, 5280, Note_on_c, 2, 67, 100
4, 6239, Note_on_c, 2, 67, 0
4, 6239, Note_on_c, 2, 65, 0
4, 6239, Note_on_c, 2, 74, 0
4, 6239, Note_on_c, 2, 70, 0
4, 6240, Note_on_c, 2, 72, 100
4, 6240, Note_on_c, 2, 69, 100
4, 6240, Note_on_c, 2, 65, 100
4, 7199, Note_on_c, 2, 65, 0
4, 7199, Note_on_c, 2, 69, 0
4, 7199, Note_on_c, 2, 72, 0
4, 7200, Note_on_c, 2, 70, 100
4, 7200, Note_on_c, 2, 67, 100
4, 7200, Note_on_c, 2, 63, 100
4, 7200, Note_on_c, 2, 72, 100
4, 7679, Note_on_c, 2, 72, 0
4, 7679, Note_on_c, 2, 70, 0
4, 7679, Note_on_c, 2, 67, 0
4, 7679, Note_on_c, 2, 63, 0
4, 7680, Note_on_c, 2, 70, 100
4, 7680, Note_on_c, 2, 67, 100
4, 7680, Note_on_c, 2, 63, 100
4, 8159, Note_on_c, 2, 63, 0
4, 8159, Note_on_c, 2, 67, 0
4, 8159, Note_on_c, 2, 70, 0
4, 8160, Note_on_c, 2, 65, 100
4, 8160, Note_on_c, 2, 74, 100
4, 8160, Note_on_c, 2, 70, 100
4, 9120, Note_on_c, 2, 67, 100
4, 10079, Note_on_c, 2, 67, 0
4, 10079, Note_on_c, 2, 65, 0
4, 10079, Note_on_c, 2, 74, 0
4, 10079, Note_on_c, 2, 70, 0
4, 10080, Note_on_c, 2, 72, 100
4, 10080, Note_on_c, 2, 69, 100
4, 10080, Note_on_c, 2, 65, 100
4, 11039, Note_on_c, 2, 65, 0
4, 11039, Note_on_c, 2, 69, 0
4, 11039, Note_on_c, 2, 72, 0
4, 11040, Note_on_c, 2, 70, 100
4, 11040, Note_on_c, 2, 67, 100
4, 11040, Note_on_c, 2, 63, 100
4, 11040, Note_on_c, 2, 72, 100
4, 11519, Note_on_c, 2, 72, 0
4, 11519, Note_on_c, 2, 70, 0
4, 11519, Note_on_c, 2, 67, 0
4, 11519, Note_on_c, 2, 63, 0
4, 11520, Note_on_c, 2, 70, 100
4, 11520, Note_on_c, 2, 67, 100
4, 11520, Note_on_c, 2, 63, 100
4, 11999, Note_on_c, 2, 63, 0
4, 11999, Note_on_c, 2, 67, 0
4, 11999, Note_on_c, 2, 70, 0
4, 12000, Note_on_c, 2, 65, 100
4, 12000, Note_on_c, 2, 74, 100
4, 12000, Note_on_c, 2, 70, 100
4, 12960, Note_on_c, 2, 67, 100
4, 13919, Note_on_c, 2, 67, 0
4, 13919, Note_on_c, 2, 65, 0
4, 13919, Note_on_c, 2, 74, 0
4, 13919, Note_on_c, 2, 70, 0
4, 13920, Note_on_c, 2, 72, 100
4, 13920, Note_on_c, 2, 69, 100
4, 13920, Note_on_c, 2, 65, 100
4, 14879, Note_on_c, 2, 65, 0
4, 14879, Note_on_c, 2, 69, 0
4, 14879, Note_on_c, 2, 72, 0
4, 14880, Note_on_c, 2, 70, 100
4, 14880, Note_on_c, 2, 67, 100
4, 14880, Note_on_c, 2, 63, 100
4, 14880, Note_on_c, 2, 72, 100
4, 15359, Note_on_c, 2, 72, 0
4, 15359, Note_on_c, 2, 70, 0
4, 15359, Note_on_c, 2, 67, 0
4, 15359, Note_on_c, 2, 63, 0
4, 15360, Note_on_c, 2, 70, 100
4, 15360, Note_on_c, 2, 67, 100
4, 15360, Note_on_c, 2, 63, 100
4, 15839, Note_on_c, 2, 63, 0
4, 15839, Note_on_c, 2, 67, 0
4, 15839, Note_on_c, 2, 70, 0
4, 15840, Note_on_c, 2, 65, 100
4, 15840, Note_on_c, 2, 74, 100
4, 15840, Note_on_c, 2, 70, 100
4, 16800, Note_on_c, 2, 67, 100
4, 17759, Note_on_c, 2, 67, 0
4, 17759, Note_on_c, 2, 65, 0
4, 17759, Note_on_c, 2, 74, 0
4, 17759, Note_on_c, 2, 70, 0
4, 17760, Note_on_c, 2, 72, 100
4, 17760, Note_on_c, 2, 69, 100
4, 17760, Note_on_c, 2, 65, 100
4, 18719, Note_on_c, 2, 65, 0
4, 18719, Note_on_c, 2, 69, 0
4, 18719, Note_on_c, 2, 72, 0
4, 18720, Note_on_c, 2, 70, 100
4, 18720, Note_on_c, 2, 67, 100
4, 18720, Note_on_c, 2, 63, 100
4, 18720, Note_on_c, 2, 72, 100
4, 19199, Note_on_c, 2, 72, 0
4, 19199, Note_on_c, 2, 70, 0
4, 19199, Note_on_c, 2, 67, 0
4, 19199, Note_on_c, 2, 63, 0
4, 19200, Note_on_c, 2, 70, 100
4, 19200, Note_on_c, 2, 67, 100
4, 19200, Note_on_c, 2, 63, 100
4, 19679, Note_on_c, 2, 63, 0
4, 19679, Note_on_c, 2, 67, 0
4, 19679, Note_on_c, 2, 70, 0
4, 19680, Note_on_c, 2, 65, 100
4, 19680, Note_on_c, 2, 74, 100
4, 19680, Note_on_c, 2, 70, 100
4, 20639, Note_on_c, 2, 70, 0
4, 20639, Note_on_c, 2, 74, 0
4, 20639, Note_on_c, 2, 65, 0
4, 20640, Note_on_c, 2, 75, 100
4, 20640, Note_on_c, 2, 67, 100
4, 20640, Note_on_c, 2, 70, 100
4, 21599, Note_on_c, 2, 70, 0
4, 21599, Note_on_c, 2, 67, 0
4, 21599, Note_on_c, 2, 75, 0
4, 21600, Note_on_c, 2, 68, 100
4, 21600, Note_on_c, 2, 72, 100
4, 21600, Note_on_c, 2, 75, 100
4, 22559, Note_on_c, 2, 75, 0
4, 22559, Note_on_c, 2, 72, 0
4, 22559, Note_on_c, 2, 68, 0
4, 22560, Note_on_c, 2, 67, 100
4, 22560, Note_on_c, 2, 75, 100
4, 22560, Note_on_c, 2, 70, 100
4, 23159, Note_on_c, 2, 70, 0
4, 23159, Note_on_c, 2, 75, 0
4, 23159, Note_on_c, 2, 67, 0
4, 23160, Note_on_c, 2, 74, 100
4, 23160, Note_on_c, 2, 70, 100
4, 23160, Note_on_c, 2, 65, 100
4, 23519, Note_on_c, 2, 65, 0
4, 23519, Note_on_c, 2, 70, 0
4, 23519, Note_on_c, 2, 74, 0
4, 23520, Note_on_c, 2, 65, 100
4, 23520, Note_on_c, 2, 74, 100
4, 23520, Note_on_c, 2, 70, 100
4, 24479, Note_on_c, 2, 70, 0
4, 24479, Note_on_c, 2, 74, 0
4, 24479, Note_on_c, 2, 65, 0
4, 24480, Note_on_c, 2, 75, 100
4, 24480, Note_on_c, 2, 67, 100
4, 24480, Note_on_c, 2, 70, 100
4, 25439, Note_on_c, 2, 70, 0
4, 25439, Note_on_c, 2, 67, 0
4, 25439, Note_on_c, 2, 75, 0
4, 25440, Note_on_c, 2, 68, 100
4, 25440, Note_on_c, 2, 72, 100
4, 25440, Note_on_c, 2, 75, 100
4, 26399, Note_on_c, 2, 75, 0
4, 26399, Note_on_c, 2, 72, 0
4, 26399, Note_on_c, 2, 68, 0
4, 26400, Note_on_c, 2, 67, 100
4, 26400, Note_on_c, 2, 75, 100
4, 26400, Note_on_c, 2, 70, 100
4, 26999, Note_on_c, 2, 70, 0
4, 26999, Note_on_c, 2, 75, 0
4, 26999, Note_on_c, 2, 67, 0
4, 27000, Note_on_c, 2, 74, 100
4, 27000, Note_on_c, 2, 70, 100
4, 27000, Note_on_c, 2, 65, 100
4, 27359, Note_on_c, 2, 65, 0
4, 27359, Note_on_c, 2, 70, 0
4, 27359, Note_on_c, 2, 74, 0
4, 27360, Note_on_c, 2, 65, 100
4, 27360, Note_on_c, 2, 74, 100
4, 27360, Note_on_c, 2, 70, 100
4, 28320, Note_on_c, 2, 67, 100
4, 29279, Note_on_c, 2, 67, 0
4, 29279, Note_on_c, 2, 65, 0
4, 29279, Note_on_c, 2, 74, 0
4, 29279, Note_on_c, 2, 70, 0
4, 29280, Note_on_c, 2, 72, 100
4, 29280, Note_on_c, 2, 69, 100
4, 29280, Note_on_c, 2, 65, 100
4, 30239, Note_on_c, 2, 65, 0
4, 30239, Note_on_c, 2, 69, 0
4, 30239, Note_on_c, 2, 72, 0
4, 30240, Note_on_c, 2, 70, 100
4, 30240, Note_on_c, 2, 67, 100
4, 30240, Note_on_c, 2, 63, 100
4, 30240, Note_on_c, 2, 72, 100
4, 30719, Note_on_c, 2, 72, 0
4, 30719, Note_on_c, 2, 70, 0
4, 30719, Note_on_c, 2, 67, 0
4, 30719, Note_on_c, 2, 63, 0
4, 30720, Note_on_c, 2, 70, 100
4, 30720, Note_on_c, 2, 67, 100
4, 30720, Note_on_c, 2, 63, 100
4, 31199, Note_on_c, 2, 63, 0
4, 31199, Note_on_c, 2, 67, 0
4, 31199, Note_on_c, 2, 70, 0
4, 31200, Note_on_c, 2, 65, 100
4, 31200, Note_on_c, 2, 74, 100
4, 31200, Note_on_c, 2, 70, 100
4, 32160, Note_on_c, 2, 67, 100
4, 33119, Note_on_c, 2, 67, 0
4, 33119, Note_on_c, 2, 65, 0
4, 33119, Note_on_c, 2, 74, 0
4, 33119, Note_on_c, 2, 70, 0
4, 33120, Note_on_c, 2, 72, 100
4, 33120, Note_on_c, 2, 69, 100
4, 33120, Note_on_c, 2, 65, 100
4, 34079, Note_on_c, 2, 65, 0
4, 34079, Note_on_c, 2, 69, 0
4, 34079, Note_on_c, 2, 72, 0
4, 34080, Note_on_c, 2, 70, 100
4, 34080, Note_on_c, 2, 67, 100
4, 34080, Note_on_c, 2, 63, 100
4, 34080, Note_on_c, 2, 72, 100
4, 34559, Note_on_c, 2, 72, 0
4, 34559, Note_on_c, 2, 70, 0
4, 34559, Note_on_c, 2, 67, 0
4, 34559, Note_on_c, 2, 63, 0
4, 34560, Note_on_c, 2, 70, 100
4, 34560, Note_on_c, 2, 67, 100
4, 34560, Note_on_c, 2, 63, 100
4, 35039, Note_on_c, 2, 63, 0
4, 35039, Note_on_c, 2, 67, 0
4, 35039, Note_on_c, 2, 70, 0
4, 35040, Note_on_c, 2, 65, 100
4, 35040, Note_on_c, 2, 74, 100
4, 35040, Note_on_c, 2, 70, 100
4, 36000, Note_on_c, 2, 67, 100
4, 36959, Note_on_c, 2, 67, 0
4, 36959, Note_on_c, 2, 65, 0
4, 36959, Note_on_c, 2, 74, 0
4, 36959, Note_on_c, 2, 70, 0
4, 36960, Note_on_c, 2, 72, 100
4, 36960, Note_on_c, 2, 69, 100
4, 36960, Note_on_c, 2, 65, 100
4, 37919, Note_on_c, 2, 65, 0
4, 37919, Note_on_c, 2, 69, 0
4, 37919, Note_on_c, 2, 72, 0
4, 37920, Note_on_c, 2, 70, 100
4, 37920, Note_on_c, 2, 67, 100
4, 37920, Note_on_c, 2, 63, 100
4, 37920, Note_on_c, 2, 72, 100
4, 38399, Note_on_c, 2, 72, 0
4, 38399, Note_on_c, 2, 70, 0
4, 38399, Note_on_c, 2, 67, 0
4, 38399, Note_on_c, 2, 63, 0
4, 38400, Note_on_c, 2, 70, 100
4, 38400, Note_on_c, 2, 67, 100
4, 38400, Note_on_c, 2, 63, 100
4, 38879, Note_on_c, 2, 63, 0
4, 38879, Note_on_c, 2, 67, 0
4, 38879, Note_on_c, 2, 70, 0
4, 38880, Note_on_c, 2, 65, 100
4, 38880, Note_on_c, 2, 74, 100
4, 38880, Note_on_c, 2, 70, 100
4, 39840, Note_on_c, 2, 67, 100
4, 40799, Note_on_c, 2, 67, 0
4, 40799, Note_on_c, 2, 65, 0
4, 40799, Note_on_c, 2, 74, 0
4, 40799, Note_on_c, 2, 70, 0
4, 40800, Note_on_c, 2, 72, 100
4, 40800, Note_on_c, 2, 69, 100
4, 40800, Note_on_c, 2, 65, 100
4, 41759, Note_on_c, 2, 65, 0
4, 41759, Note_on_c, 2, 69, 0
4, 41759, Note_on_c, 2, 72, 0
4, 41760, Note_on_c, 2, 70, 100
4, 41760, Note_on_c, 2, 67, 100
4, 41760, Note_on_c, 2, 63, 100
4, 41760, Note_on_c, 2, 72, 100
4, 42239, Note_on_c, 2, 72, 0
4, 42239, Note_on_c, 2, 70, 0
4, 42239, Note_on_c, 2, 67, 0
4, 42239, Note_on_c, 2, 63, 0
4, 42240, Note_on_c, 2, 70, 100
4, 42240, Note_on_c, 2, 67, 100
4, 42240, Note_on_c, 2, 63, 100
4, 42719, Note_on_c, 2, 63, 0
4, 42719, Note_on_c, 2, 67, 0
4, 42719, Note_on_c, 2, 70, 0
4, 42720, Note_on_c, 2, 65, 100
4, 42720, Note_on_c, 2, 74, 100
4, 42720, Note_on_c, 2, 70, 100
4, 43679, Note_on_c, 2, 70, 0
4, 43679, Note_on_c, 2, 74, 0
4, 43679, Note_on_c, 2, 65, 0
4, 43680, Note_on_c, 2, 75, 100
4, 43680, Note_on_c, 2, 67, 100
4, 43680, Note_on_c, 2, 70, 100
4, 44639, Note_on_c, 2, 70, 0
4, 44639, Note_on_c, 2, 67, 0
4, 44639, Note_on_c, 2, 75, 0
4, 44640, Note_on_c, 2, 68, 100
4, 44640, Note_on_c, 2, 72, 100
4, 44640, Note_on_c, 2, 75, 100
4, 45599, Note_on_c, 2, 75, 0
4, 45599, Note_on_c, 2, 72, 0
4, 45599, Note_on_c, 2, 68, 0
4, 45600, Note_on_c, 2, 67, 100
4, 45600, Note_on_c, 2, 75, 100
4, 45600, Note_on_c, 2, 70, 100
4, 46199, Note_on_c, 2, 70, 0
4, 46199, Note_on_c, 2, 75, 0
4, 46199, Note_on_c, 2, 67, 0
4, 46200, Note_on_c, 2, 74, 100
4, 46200, Note_on_c, 2, 70, 100
4, 46200, Note_on_c, 2, 65, 100
4, 46559, Note_on_c, 2, 65, 0
4, 46559, Note_on_c, 2, 70, 0
4, 46559, Note_on_c, 2, 74, 0
4, 46560, Note_on_c, 2, 65, 100
4, 46560, Note_on_c, 2, 74, 100
4, 46560, Note_on_c, 2, 70, 100
4, 47519, Note_on_c, 2, 70, 0
4, 47519, Note_on_c, 2, 74, 0
4, 47519, Note_on_c, 2, 65, 0
4, 47520, Note_on_c, 2, 75, 100
4, 47520, Note_on_c, 2, 67, 100
4, 47520, Note_on_c, 2, 70, 100
4, 48479, Note_on_c, 2, 70, 0
4, 48479, Note_on_c, 2, 67, 0
4, 48479, Note_on_c, 2, 75, 0
4, 48480, Note_on_c, 2, 68, 100
4, 48480, Note_on_c, 2, 72, 100
4, 48480, Note_on_c, 2, 75, 100
4, 49439, Note_on_c, 2, 75, 0
4, 49439, Note_on_c, 2, 72, 0
4, 49439, Note_on_c, 2, 68, 0
4, 49440, Note_on_c, 2, 67, 100
4, 49440, Note_on_c, 2, 75, 100
4, 49440, Note_on_c, 2, 70, 100
4, 50039, Note_on_c, 2, 70, 0
4, 50039, Note_on_c, 2, 75, 0
4, 50039, Note_on_c, 2, 67, 0
4, 50040, Note_on_c, 2, 74, 100
4, 50040, Note_on_c, 2, 70, 100
4, 50040, Note_on_c, 2, 65, 100
4, 50399, Note_on_c, 2, 65, 0
4, 50399, Note_on_c, 2, 70, 0
4, 50399, Note_on_c, 2, 74, 0
4, 50400, Note_on_c, 2, 65, 100
4, 50400, Note_on_c, 2, 74, 100
4, 50400, Note_on_c, 2, 70, 100
4, 51360, Note_on_c, 2, 67, 100
4, 52319, Note_on_c, 2, 67, 0
4, 52319, Note_on_c, 2, 65, 0
4, 52319, Note_on_c, 2, 74, 0
4, 52319, Note_on_c, 2, 70, 0
4, 52320, Note_on_c, 2, 72, 100
4, 52320, Note_on_c, 2, 69, 100
4, 52320, Note_on_c, 2, 65, 100
4, 53279, Note_on_c, 2, 65, 0
4, 53279, Note_on_c, 2, 69, 0
4, 53279, Note_on_c, 2, 72, 0
4, 53280, Note_on_c, 2, 70, 100
4, 53280, Note_on_c, 2, 67, 100
4, 53280, Note_on_c, 2, 63, 100
4, 53280, Note_on_c, 2, 72, 100
4, 53759, Note_on_c, 2, 72, 0
4, 53759, Note_on_c, 2, 70, 0
4, 53759, Note_on_c, 2, 67, 0
4, 53759, Note_on_c, 2, 63, 0
4, 53760, Note_on_c, 2, 70, 100
4, 53760, Note_on_c, 2, 67, 100
4, 53760, Note_on_c, 2, 63, 100
4, 54239, Note_on_c, 2, 63, 0
4, 54239, Note_on_c, 2, 67, 0
4, 54239, Note_on_c, 2, 70, 0
4, 54240, Note_on_c, 2, 74, 100
4, 54240, Note_on_c, 2, 70, 100
4, 54240, Note_on_c, 2, 65, 100
4, 54719, Note_on_c, 2, 65, 0
4, 54719, Note_on_c, 2, 70, 0
4, 54719, Note_on_c, 2, 74, 0
4, 54720, Note_on_c, 2, 65, 100
4, 54720, Note_on_c, 2, 69, 100
4, 54720, Note_on_c, 2, 72, 100
4, 55199, Note_on_c, 2, 72, 0
4, 55199, Note_on_c, 2, 69, 0
4, 55199, Note_on_c, 2, 65, 0
4, 55200, Note_on_c, 2, 67, 100
4, 55200, Note_on_c, 2, 63, 100
4, 55200, Note_on_c, 2, 58, 100
4, 56159, Note_on_c, 2, 58, 0
4, 56159, Note_on_c, 2, 63, 0
4, 56159, Note_on_c, 2, 67, 0
4, 56160, Note_on_c, 2, 67, 100
4, 56160, Note_on_c, 2, 63, 100
4, 56160, Note_on_c, 2, 58, 100
4, 57119, Note_on_c, 2, 58, 0
4, 57119, Note_on_c, 2, 63, 0
4, 57119, Note_on_c, 2, 67, 0
4, 57120, Note_on_c, 2, 74, 100
4, 57120, Note_on_c, 2, 70, 100
4, 57120, Note_on_c, 2, 65, 100
4, 57839, Note_on_c, 2, 65, 0
4, 57839, Note_on_c, 2, 70, 0
4, 57839, Note_on_c, 2, 74, 0
4, 57840, Note_on_c, 2, 65, 100
4, 57840, Note_on_c, 2, 69, 100
4, 57840, Note_on_c, 2, 72, 100
4, 58079, Note_on_c, 2, 72, 0
4, 58079, Note_on_c, 2, 69, 0
4, 58079, Note_on_c, 2, 65, 0
4, 58080, Note_on_c, 2, 74, 100
4, 58080, Note_on_c, 2, 70, 100
4, 58080, Note_on_c, 2, 65, 100
4, 58559, Note_on_c, 2, 65, 0
4, 58559, Note_on_c, 2, 70, 0
4, 58559, Note_on_c, 2, 74, 0
4, 58560, Note_on_c, 2, 65, 100
4, 58560, Note_on_c, 2, 69, 100
4, 58560, Note_on_c, 2, 72, 100
4, 59039, Note_on_c, 2, 72, 0
4, 59039, Note_on_c, 2, 69, 0
4, 59039, Note_on_c, 2, 65, 0
4, 59040, Note_on_c, 2, 67, 100
4, 59040, Note_on_c, 2, 63, 100
4, 59040, Note_on_c, 2, 58, 100
4, 59999, Note_on_c, 2, 58, 0
4, 59999, Note_on_c, 2, 63, 0
4, 59999, Note_on_c, 2, 67, 0
4, 60000, Note_on_c, 2, 67, 100
4, 60000, Note_on_c, 2, 63, 100
4, 60000, Note_on_c, 2, 58, 100
4, 61919, Note_on_c, 2, 58, 0
4, 61919, Note_on_c, 2, 63, 0
4, 61919, Note_on_c, 2, 67, 0
4, 61920, Note_on_c, 2, 65, 100
4, 61920, Note_on_c, 2, 74, 100
4, 61920, Note_on_c, 2, 70, 100
4, 62879, Note_on_c, 2, 70, 0
4, 62879, Note_on_c, 2, 74, 0
4, 62879, Note_on_c, 2, 65, 0
4, 62880, Note_on_c, 2, 75, 100
4, 62880, Note_on_c, 2, 67, 100
4, 62880, Note_on_c, 2, 70, 100
4, 63839, Note_on_c, 2, 70, 0
4, 63839, Note_on_c, 2, 67, 0
4, 63839, Note_on_c, 2, 75, 0
4, 63840, Note_on_c, 2, 68, 100
4, 63840, Note_on_c, 2, 72, 100
4, 63840, Note_on_c, 2, 75, 100
4, 64799, Note_on_c, 2, 75, 0
4, 64799, Note_on_c, 2, 72, 0
4, 64799, Note_on_c, 2, 68, 0
4, 64800, Note_on_c, 2, 67, 100
4, 64800, Note_on_c, 2, 75, 100
4, 64800, Note_on_c, 2, 70, 100
4, 65399, Note_on_c, 2, 70, 0
4, 65399, Note_on_c, 2, 75, 0
4, 65399, Note_on_c, 2, 67, 0
4, 65400, Note_on_c, 2, 74, 100
4, 65400, Note_on_c, 2, 70, 100
4, 65400, Note_on_c, 2, 65, 100
4, 65759, Note_on_c, 2, 65, 0
4, 65759, Note_on_c, 2, 70, 0
4, 65759, Note_on_c, 2, 74, 0
4, 65760, Note_on_c, 2, 65, 100
4, 65760, Note_on_c, 2, 74, 100
4, 65760, Note_on_c, 2, 70, 100
4, 66719, Note_on_c, 2, 70, 0
4, 66719, Note_on_c, 2, 74, 0
4, 66719, Note_on_c, 2, 65, 0
4, 66720, Note_on_c, 2, 75, 100
4, 66720, Note_on_c, 2, 67, 100
4, 66720, Note_on_c, 2, 70, 100
4, 67679, Note_on_c, 2, 70, 0
4, 67679, Note_on_c, 2, 67, 0
4, 67679, Note_on_c, 2, 75, 0
4, 67680, Note_on_c, 2, 68, 100
4, 67680, Note_on_c, 2, 72, 100
4, 67680, Note_on_c, 2, 75, 100
4, 68639, Note_on_c, 2, 75, 0
4, 68639, Note_on_c, 2, 72, 0
4, 68639, Note_on_c, 2, 68, 0
4, 68640, Note_on_c, 2, 67, 100
4, 68640, Note_on_c, 2, 75, 100
4, 68640, Note_on_c, 2, 70, 100
4, 69239, Note_on_c, 2, 70, 0
4, 69239, Note_on_c, 2, 75, 0
4, 69239, Note_on_c, 2, 67, 0
4, 69240, Note_on_c, 2, 74, 100
4, 69240, Note_on_c, 2, 70, 100
4, 69240, Note_on_c, 2, 65, 100
4, 69599, Note_on_c, 2, 65, 0
4, 69599, Note_on_c, 2, 70, 0
4, 69599, Note_on_c, 2, 74, 0
4, 69600, Note_on_c, 2, 65, 100
4, 69600, Note_on_c, 2, 74, 100
4, 69600, Note_on_c, 2, 70, 100
4, 70560, Note_on_c, 2, 67, 100
4, 71519, Note_on_c, 2, 67, 0
4, 71519, Note_on_c, 2, 65, 0
4, 71519, Note_on_c, 2, 74, 0
4, 71519, Note_on_c, 2, 70, 0
4, 71520, Note_on_c, 2, 72, 100
4, 71520, Note_on_c, 2, 69, 100
4, 71520, Note_on_c, 2, 65, 100
4, 72479, Note_on_c, 2, 65, 0
4, 72479, Note_on_c, 2, 69, 0
4, 72479, Note_on_c, 2, 72, 0
4, 72480, Note_on_c, 2, 70, 100
4, 72480, Note_on_c, 2, 67, 100
4, 72480, Note_on_c, 2, 63, 100
4, 72480, Note_on_c, 2, 72, 100
4, 72959, Note_on_c, 2, 72, 0
4, 72959, Note_on_c, 2, 70, 0
4, 72959, Note_on_c, 2, 67, 0
4, 72959, Note_on_c, 2, 63, 0
4, 72960, Note_on_c, 2, 70, 100
4, 72960, Note_on_c, 2, 67, 100
4, 72960, Note_on_c, 2, 63, 100
4, 73439, Note_on_c, 2, 63, 0
4, 73439, Note_on_c, 2, 67, 0
4, 73439, Note_on_c, 2, 70, 0
4, 73440, Note_on_c, 2, 65, 100
4, 73440, Note_on_c, 2, 74, 100
4, 73440, Note_on_c, 2, 70, 100
4, 74400, Note_on_c, 2, 67, 100
4, 75359, Note_on_c, 2, 67, 0
4, 75359, Note_on_c, 2, 65, 0
4, 75359, Note_on_c, 2, 74, 0
4, 75359, Note_on_c, 2, 70, 0
4, 75360, Note_on_c, 2, 72, 100
4, 75360, Note_on_c, 2, 69, 100
4, 75360, Note_on_c, 2, 65, 100
4, 76319, Note_on_c, 2, 65, 0
4, 76319, Note_on_c, 2, 69, 0
4, 76319, Note_on_c, 2, 72, 0
4, 76320, Note_on_c, 2, 70, 100
4, 76320, Note_on_c, 2, 67, 100
4, 76320, Note_on_c, 2, 63, 100
4, 76320, Note_on_c, 2, 72, 100
4, 76799, Note_on_c, 2, 72, 0
4, 76799, Note_on_c, 2, 70, 0
4, 76799, Note_on_c, 2, 67, 0
4, 76799, Note_on_c, 2, 63, 0
4, 76800, Note_on_c, 2, 70, 100
4, 76800, Note_on_c, 2, 67, 100
4, 76800, Note_on_c, 2, 63, 100
4, 77279, Note_on_c, 2, 63, 0
4, 77279, Note_on_c, 2, 67, 0
4, 77279, Note_on_c, 2, 70, 0
4, 77280, Note_on_c, 2, 65, 100
4, 77280, Note_on_c, 2, 74, 100
4, 77280, Note_on_c, 2, 70, 100
4, 78240, Note_on_c, 2, 67, 100
4, 79199, Note_on_c, 2, 67, 0
4, 79199, Note_on_c, 2, 65, 0
4, 79199, Note_on_c, 2, 74, 0
4, 79199, Note_on_c, 2, 70, 0
4, 79200, Note_on_c, 2, 72, 100
4, 79200, Note_on_c, 2, 69, 105
4, 79200, Note_on_c, 2, 65, 105
4, 80159, Note_on_c, 2, 65, 0
4, 80159, Note_on_c, 2, 69, 0
4, 80159, Note_on_c, 2, 72, 0
4, 80160, Note_on_c, 2, 70, 110
4, 80160, Note_on_c, 2, 67, 110
4, 80160, Note_on_c, 2, 63, 110
4, 80160, Note_on_c, 2, 72, 110
4, 80639, Note_on_c, 2, 72, 0
4, 80639, Note_on_c, 2, 70, 0
4, 80639, Note_on_c, 2, 67, 0
4, 80639, Note_on_c, 2, 63, 0
4, 80640, Note_on_c, 2, 70, 110
4, 80640, Note_on_c, 2, 67, 110
4, 80640, Note_on_c, 2, 63, 110
4, 81119, Note_on_c, 2, 63, 0
4, 81119, Note_on_c, 2, 67, 0
4, 81119, Note_on_c, 2, 70, 0
4, 81120, Note_on_c, 2, 65, 100
4, 81120, Note_on_c, 2, 74, 100
4, 81120, Note_on_c, 2, 70, 100
4, 82080, Note_on_c, 2, 67, 100
4, 83039, Note_on_c, 2, 67, 0
4, 83039, Note_on_c, 2, 65, 0
4, 83039, Note_on_c, 2, 74, 0
4, 83039, Note_on_c, 2, 70, 0
4, 83040, Note_on_c, 2, 72, 100
4, 83040, Note_on_c, 2, 69, 100
4, 83040, Note_on_c, 2, 65, 100
4, 83999, Note_on_c, 2, 65, 0
4, 83999, Note_on_c, 2, 69, 0
4, 83999, Note_on_c, 2, 72, 0
4, 84000, Note_on_c, 2, 70, 100
4, 84000, Note_on_c, 2, 67, 100
4, 84000, Note_on_c, 2, 63, 100
4, 84000, Note_on_c, 2, 72, 100
4, 84479, Note_on_c, 2, 72, 0
4, 84479, Note_on_c, 2, 70, 0
4, 84479, Note_on_c, 2, 67, 0
4, 84479, Note_on_c, 2, 63, 0
4, 84480, Note_on_c, 2, 70, 100
4, 84480, Note_on_c, 2, 67, 100
4, 84480, Note_on_c, 2, 63, 100
4, 84959, Note_on_c, 2, 63, 0
4, 84959, Note_on_c, 2, 67, 0
4, 84959, Note_on_c, 2, 70, 0
4, 84960, Note_on_c, 2, 65, 100
4, 84960, Note_on_c, 2, 74, 100
4, 84960, Note_on_c, 2, 70, 100
4, 85920, Note_on_c, 2, 67, 100
4, 86879, Note_on_c, 2, 67, 0
4, 86879, Note_on_c, 2, 65, 0
4, 86879, Note_on_c, 2, 74, 0
4, 86879, Note_on_c, 2, 70, 0
4, 86880, Note_on_c, 2, 72, 100
4, 86880, Note_on_c, 2, 69, 100
4, 86880, Note_on_c, 2, 65, 100
4, 87839, Note_on_c, 2, 65, 0
4, 87839, Note_on_c, 2, 69, 0
4, 87839, Note_on_c, 2, 72, 0
4, 87840, Note_on_c, 2, 70, 100
4, 87840, Note_on_c, 2, 67, 100
4, 87840, Note_on_c, 2, 63, 100
4, 87840, Note_on_c, 2, 72, 100
4, 88319, Note_on_c, 2, 72, 0
4, 88319, Note_on_c, 2, 70, 0
4, 88319, Note_on_c, 2, 67, 0
4, 88319, Note_on_c, 2, 63, 0
4, 88320, Note_on_c, 2, 70, 100
4, 88320, Note_on_c, 2, 67, 100
4, 88320, Note_on_c, 2, 63, 100
4, 88799, Note_on_c, 2, 63, 0
4, 88799, Note_on_c, 2, 67, 0
4, 88799, Note_on_c, 2, 70, 0
4, 88800, Control_c, 2, 7, 55
4, 88800, Note_on_c, 2, 65, 100
4, 88800, Note_on_c, 2, 74, 100
4, 88800, Note_on_c, 2, 70, 100
4, 88869, Control_c, 2, 7, 54
4, 88939, Control_c, 2, 7, 53
4, 89009, Control_c, 2, 7, 52
4, 89079, Control_c, 2, 7, 51
4, 89149, Control_c, 2, 7, 50
4, 89218, Control_c, 2, 7, 49
4, 89288, Control_c, 2, 7, 48
4, 89358, Control_c, 2, 7, 47
4, 89428, Control_c, 2, 7, 46
4, 89498, Control_c, 2, 7, 45
4, 89567, Control_c, 2, 7, 44
4, 89637, Control_c, 2, 7, 43
4, 89707, Control_c, 2, 7, 42
4, 89760, Note_on_c, 2, 67, 100
4, 89777, Control_c, 2, 7, 41
4, 89847, Control_c, 2, 7, 40
4, 89916, Control_c, 2, 7, 39
4, 89986, Control_c, 2, 7, 38
4, 90056, Control_c, 2, 7, 37
4, 90126, Control_c, 2, 7, 36
4, 90196, Control_c, 2, 7, 35
4, 90265, Control_c, 2, 7, 34
4, 90335, Control_c, 2, 7, 33
4, 90405, Control_c, 2, 7, 32
4, 90475, Control_c, 2, 7, 31
4, 90545, Control_c, 2, 7, 30
4, 90614, Control_c, 2, 7, 29
4, 90684, Control_c, 2, 7, 28
4, 90719, Note_on_c, 2, 67, 0
4, 90719, Note_on_c, 2, 65, 0
4, 90719, Note_on_c, 2, 74, 0
4, 90719, Note_on_c, 2, 70, 0
4, 90720, Note_on_c, 2, 72, 100
4, 90720, Note_on_c, 2, 69, 100
4, 90720, Note_on_c, 2, 65, 100
4, 90754, Control_c, 2, 7, 27
4, 90824, Control_c, 2, 7, 26
4, 90894, Control_c, 2, 7, 25
4, 90963, Control_c, 2, 7, 24
4, 91033, Control_c, 2, 7, 23
4, 91103, Control_c, 2, 7, 22
4, 91173, Control_c, 2, 7, 21
4, 91243, Control_c, 2, 7, 20
4, 91312, Control_c, 2, 7, 19
4, 91382, Control_c, 2, 7, 18
4, 91452, Control_c, 2, 7, 17
4, 91522, Control_c, 2, 7, 16
4, 91592, Control_c, 2, 7, 15
4, 91661, Control_c, 2, 7, 14
4, 91679, Note_on_c, 2, 65, 0
4, 91679, Note_on_c, 2, 69, 0
4, 91679, Note_on_c, 2, 72, 0
4, 91680, Note_on_c, 2, 70, 100
4, 91680, Note_on_c, 2, 67, 100
4, 91680, Note_on_c, 2, 63, 100
4, 91680, Note_on_c, 2, 72, 100
4, 91731, Control_c, 2, 7, 13
4, 91801, Control_c, 2, 7, 12
4, 91871, Control_c, 2, 7, 11
4, 91941, Control_c, 2, 7, 10
4, 92010, Control_c, 2, 7, 9
4, 92080, Control_c, 2, 7, 8
4, 92150, Control_c, 2, 7, 7
4, 92159, Note_on_c, 2, 72, 0
4, 92159, Note_on_c, 2, 70, 0
4, 92159, Note_on_c, 2, 67, 0
4, 92159, Note_on_c, 2, 63, 0
4, 92160, Note_on_c, 2, 70, 100
4, 92160, Note_on_c, 2, 67, 100
4, 92160, Note_on_c, 2, 63, 100
4, 92220, Control_c, 2, 7, 6
4, 92290, Control_c, 2, 7, 5
4, 92359, Control_c, 2, 7, 4
4, 92429, Control_c, 2, 7, 3
4, 92499, Control_c, 2, 7, 2
4, 92569, Control_c, 2, 7, 1
4, 92639, Note_on_c, 2, 63, 0
4, 92639, Note_on_c, 2, 67, 0
4, 92639, Note_on_c, 2, 70, 0
4, 92639, Control_c, 2, 7, 0
4, 92639, End_track
5, 0, Start_track
5, 0, MIDI_port, 0
5, 0, Title_t, "Bass"
5, 0, Program_c, 3, 33
5, 0, Control_c, 3, 7, 100
5, 480, Note_on_c, 3, 46, 100
5, 659, Note_on_c, 3, 46, 0
5, 660, Note_on_c, 3, 46, 100
5, 779, Note_on_c, 3, 46, 0
5, 780, Note_on_c, 3, 46, 100
5, 839, Note_on_c, 3, 46, 0
5, 840, Note_on_c, 3, 46, 100
5, 899, Note_on_c, 3, 46, 0
5, 900, Note_on_c, 3, 46, 100
5, 959, Note_on_c, 3, 46, 0
5, 960, Note_on_c, 3, 46, 100
5, 1079, Note_on_c, 3, 46, 0
5, 1080, Note_on_c, 3, 46, 100
5, 1199, Note_on_c, 3, 46, 0
5, 1200, Note_on_c, 3, 46, 100
5, 1319, Note_on_c, 3, 46, 0
5, 1320, Note_on_c, 3, 46, 100
5, 1379, Note_on_c, 3, 46, 0
5, 1380, Note_on_c, 3, 45, 100
5, 1439, Note_on_c, 3, 45, 0
5, 1440, Note_on_c, 3, 43, 100
5, 1619, Note_on_c, 3, 43, 0
5, 1620, Note_on_c, 3, 43, 100
5, 1739, Note_on_c, 3, 43, 0
5, 1740, Note_on_c, 3, 43, 100
5, 1799, Note_on_c, 3, 43, 0
5, 1800, Note_on_c, 3, 43, 100
5, 1859, Note_on_c, 3, 43, 0
5, 1860, Note_on_c, 3, 43, 100
5, 1919, Note_on_c, 3, 43, 0
5, 1920, Note_on_c, 3, 43, 100
5, 2039, Note_on_c, 3, 43, 0
5, 2040, Note_on_c, 3, 43, 100
5, 2159, Note_on_c, 3, 43, 0
5, 2160, Note_on_c, 3, 43, 100
5, 2279, Note_on_c, 3, 43, 0
5, 2280, Note_on_c, 3, 43, 100
5, 2339, Note_on_c, 3, 43, 0
5, 2340, Note_on_c, 3, 46, 100
5, 2399, Note_on_c, 3, 46, 0
5, 2400, Note_on_c, 3, 41, 100
5, 2579, Note_on_c, 3, 41, 0
5, 2580, Note_on_c, 3, 41, 100
5, 2699, Note_on_c, 3, 41, 0
5, 2700, Note_on_c, 3, 41, 100
5, 2759, Note_on_c, 3, 41, 0
5, 2760, Note_on_c, 3, 41, 100
5, 2819, Note_on_c, 3, 41, 0
5, 2820, Note_on_c, 3, 41, 100
5, 2879, Note_on_c, 3, 41, 0
5, 2880, Note_on_c, 3, 41, 100
5, 2999, Note_on_c, 3, 41, 0
5, 3000, Note_on_c, 3, 41, 100
5, 3119, Note_on_c, 3, 41, 0
5, 3120, Note_on_c, 3, 41, 100
5, 3359, Note_on_c, 3, 41, 0
5, 3360, Note_on_c, 3, 36, 100
5, 3539, Note_on_c, 3, 36, 0
5, 3540, Note_on_c, 3, 36, 100
5, 3659, Note_on_c, 3, 36, 0
5, 3660, Note_on_c, 3, 36, 100
5, 3719, Note_on_c, 3, 36, 0
5, 3720, Note_on_c, 3, 36, 100
5, 3779, Note_on_c, 3, 36, 0
5, 3780, Note_on_c, 3, 36, 100
5, 3839, Note_on_c, 3, 36, 0
5, 3840, Note_on_c, 3, 39, 100
5, 3959, Note_on_c, 3, 39, 0
5, 3960, Note_on_c, 3, 39, 100
5, 4079, Note_on_c, 3, 39, 0
5, 4080, Note_on_c, 3, 39, 100
5, 4139, Note_on_c, 3, 39, 0
5, 4140, Note_on_c, 3, 41, 100
5, 4199, Note_on_c, 3, 41, 0
5, 4200, Note_on_c, 3, 42, 100
5, 4259, Note_on_c, 3, 42, 0
5, 4260, Note_on_c, 3, 41, 100
5, 4319, Note_on_c, 3, 41, 0
5, 4320, Note_on_c, 3, 46, 100
5, 4499, Note_on_c, 3, 46, 0
5, 4500, Note_on_c, 3, 46, 100
5, 4619, Note_on_c, 3, 46, 0
5, 4620, Note_on_c, 3, 46, 100
5, 4679, Note_on_c, 3, 46, 0
5, 4680, Note_on_c, 3, 46, 100
5, 4739, Note_on_c, 3, 46, 0
5, 4740, Note_on_c, 3, 46, 100
5, 4799, Note_on_c, 3, 46, 0
5, 4800, Note_on_c, 3, 46, 100
5, 4919, Note_on_c, 3, 46, 0
5, 4920, Note_on_c, 3, 46, 100
5, 5039, Note_on_c, 3, 46, 0
5, 5040, Note_on_c, 3, 46, 100
5, 5159, Note_on_c, 3, 46, 0
5, 5160, Note_on_c, 3, 46, 100
5, 5219, Note_on_c, 3, 46, 0
5, 5220, Note_on_c, 3, 45, 100
5, 5279, Note_on_c, 3, 45, 0
5, 5280, Note_on_c, 3, 43, 100
5, 5459, Note_on_c, 3, 43, 0
5, 5460, Note_on_c, 3, 43, 100
5, 5579, Note_on_c, 3, 43, 0
5, 5580, Note_on_c, 3, 43, 100
5, 5639, Note_on_c, 3, 43, 0
5, 5640, Note_on_c, 3, 43, 100
5, 5699, Note_on_c, 3, 43, 0
5, 5700, Note_on_c, 3, 43, 100
5, 5759, Note_on_c, 3, 43, 0
5, 5760, Note_on_c, 3, 43, 100
5, 5879, Note_on_c, 3, 43, 0
5, 5880, Note_on_c, 3, 43, 100
5, 5999, Note_on_c, 3, 43, 0
5, 6000, Note_on_c, 3, 43, 100
5, 6119, Note_on_c, 3, 43, 0
5, 6120, Note_on_c, 3, 43, 100
5, 6179, Note_on_c, 3, 43, 0
5, 6180, Note_on_c, 3, 46, 100
5, 6239, Note_on_c, 3, 46, 0
5, 6240, Note_on_c, 3, 41, 100
5, 6419, Note_on_c, 3, 41, 0
5, 6420, Note_on_c, 3, 41, 100
5, 6539, Note_on_c, 3, 41, 0
5, 6540, Note_on_c, 3, 41, 100
5, 6599, Note_on_c, 3, 41, 0
5, 6600, Note_on_c, 3, 41, 100
5, 6659, Note_on_c, 3, 41, 0
5, 6660, Note_on_c, 3, 41, 100
5, 6719, Note_on_c, 3, 41, 0
5, 6720, Note_on_c, 3, 41, 100
5, 6839, Note_on_c, 3, 41, 0
5, 6840, Note_on_c, 3, 41, 100
5, 6959, Note_on_c, 3, 41, 0
5, 6960, Note_on_c, 3, 41, 100
5, 7199, Note_on_c, 3, 41, 0
5, 7200, Note_on_c, 3, 36, 100
5, 7379, Note_on_c, 3, 36, 0
5, 7380, Note_on_c, 3, 36, 100
5, 7499, Note_on_c, 3, 36, 0
5, 7500, Note_on_c, 3, 36, 100
5, 7559, Note_on_c, 3, 36, 0
5, 7560, Note_on_c, 3, 36, 100
5, 7619, Note_on_c, 3, 36, 0
5, 7620, Note_on_c, 3, 36, 100
5, 7679, Note_on_c, 3, 36, 0
5, 7680, Note_on_c, 3, 39, 100
5, 7799, Note_on_c, 3, 39, 0
5, 7800, Note_on_c, 3, 39, 100
5, 7919, Note_on_c, 3, 39, 0
5, 7920, Note_on_c, 3, 39, 100
5, 7979, Note_on_c, 3, 39, 0
5, 7980, Note_on_c, 3, 41, 100
5, 8039, Note_on_c, 3, 41, 0
5, 8040, Note_on_c, 3, 42, 100
5, 8099, Note_on_c, 3, 42, 0
5, 8100, Note_on_c, 3, 41, 100
5, 8159, Note_on_c, 3, 41, 0
5, 8160, Note_on_c, 3, 46, 100
5, 8339, Note_on_c, 3, 46, 0
5, 8340, Note_on_c, 3, 46, 100
5, 8459, Note_on_c, 3, 46, 0
5, 8460, Note_on_c, 3, 46, 100
5, 8519, Note_on_c, 3, 46, 0
5, 8520, Note_on_c, 3, 46, 100
5, 8579, Note_on_c, 3, 46, 0
5, 8580, Note_on_c, 3, 46, 100
5, 8639, Note_on_c, 3, 46, 0
5, 8640, Note_on_c, 3, 46, 100
5, 8759, Note_on_c, 3, 46, 0
5, 8760, Note_on_c, 3, 46, 100
5, 8879, Note_on_c, 3, 46, 0
5, 8880, Note_on_c, 3, 46, 100
5, 8999, Note_on_c, 3, 46, 0
5, 9000, Note_on_c, 3, 46, 100
5, 9059, Note_on_c, 3, 46, 0
5, 9060, Note_on_c, 3, 45, 100
5, 9119, Note_on_c, 3, 45, 0
5, 9120, Note_on_c, 3, 43, 100
5, 9299, Note_on_c, 3, 43, 0
5, 9300, Note_on_c, 3, 43, 100
5, 9419, Note_on_c, 3, 43, 0
5, 9420, Note_on_c, 3, 43, 100
5, 9479, Note_on_c, 3, 43, 0
5, 9480, Note_on_c, 3, 43, 100
5, 9539, Note_on_c, 3, 43, 0
5, 9540, Note_on_c, 3, 43, 100
5, 9599, Note_on_c, 3, 43, 0
5, 9600, Note_on_c, 3, 43, 100
5, 9719, Note_on_c, 3, 43, 0
5, 9720, Note_on_c, 3, 43, 100
5, 9839, Note_on_c, 3, 43, 0
5, 9840, Note_on_c, 3, 43, 100
5, 9959, Note_on_c, 3, 43, 0
5, 9960, Note_on_c, 3, 43, 100
5, 10019, Note_on_c, 3, 43, 0
5, 10020, Note_on_c, 3, 46, 100
5, 10079, Note_on_c, 3, 46, 0
5, 10080, Note_on_c, 3, 41, 100
5, 10259, Note_on_c, 3, 41, 0
5, 10260, Note_on_c, 3, 41, 100
5, 10379, Note_on_c, 3, 41, 0
5, 10380, Note_on_c, 3, 41, 100
5, 10439, Note_on_c, 3, 41, 0
5, 10440, Note_on_c, 3, 41, 100
5, 10499, Note_on_c, 3, 41, 0
5, 10500, Note_on_c, 3, 41, 100
5, 10559, Note_on_c, 3, 41, 0
5, 10560, Note_on_c, 3, 41, 100
5, 10679, Note_on_c, 3, 41, 0
5, 10680, Note_on_c, 3, 41, 100
5, 10799, Note_on_c, 3, 41, 0
5, 10800, Note_on_c, 3, 41, 100
5, 11039, Note_on_c, 3, 41, 0
5, 11040, Note_on_c, 3, 36, 100
5, 11219, Note_on_c, 3, 36, 0
5, 11220, Note_on_c, 3, 36, 100
5, 11339, Note_on_c, 3, 36, 0
5, 11340, Note_on_c, 3, 36, 100
5, 11399, Note_on_c, 3, 36, 0
5, 11400, Note_on_c, 3, 36, 100
5, 11459, Note_on_c, 3, 36, 0
5, 11460, Note_on_c, 3, 36, 100
5, 11519, Note_on_c, 3, 36, 0
5, 11520, Note_on_c, 3, 39, 100
5, 11639, Note_on_c, 3, 39, 0
5, 11640, Note_on_c, 3, 39, 100
5, 11759, Note_on_c, 3, 39, 0
5, 11760, Note_on_c, 3, 39, 100
5, 11819, Note_on_c, 3, 39, 0
5, 11820, Note_on_c, 3, 41, 100
5, 11879, Note_on_c, 3, 41, 0
5, 11880, Note_on_c, 3, 42, 100
5, 11939, Note_on_c, 3, 42, 0
5, 11940, Note_on_c, 3, 41, 100
5, 11999, Note_on_c, 3, 41, 0
5, 12000, Note_on_c, 3, 46, 100
5, 12179, Note_on_c, 3, 46, 0
5, 12180, Note_on_c, 3, 46, 100
5, 12299, Note_on_c, 3, 46, 0
5, 12300, Note_on_c, 3, 46, 100
5, 12359, Note_on_c, 3, 46, 0
5, 12360, Note_on_c, 3, 46, 100
5, 12419, Note_on_c, 3, 46, 0
5, 12420, Note_on_c, 3, 46, 100
5, 12479, Note_on_c, 3, 46, 0
5, 12480, Note_on_c, 3, 46, 100
5, 12599, Note_on_c, 3, 46, 0
5, 12600, Note_on_c, 3, 46, 100
5, 12719, Note_on_c, 3, 46, 0
5, 12720, Note_on_c, 3, 46, 100
5, 12839, Note_on_c, 3, 46, 0
5, 12840, Note_on_c, 3, 46, 100
5, 12899, Note_on_c, 3, 46, 0
5, 12900, Note_on_c, 3, 45, 100
5, 12959, Note_on_c, 3, 45, 0
5, 12960, Note_on_c, 3, 43, 100
5, 13139, Note_on_c, 3, 43, 0
5, 13140, Note_on_c, 3, 43, 100
5, 13259, Note_on_c, 3, 43, 0
5, 13260, Note_on_c, 3, 43, 100
5, 13319, Note_on_c, 3, 43, 0
5, 13320, Note_on_c, 3, 43, 100
5, 13379, Note_on_c, 3, 43, 0
5, 13380, Note_on_c, 3, 43, 100
5, 13439, Note_on_c, 3, 43, 0
5, 13440, Note_on_c, 3, 43, 100
5, 13559, Note_on_c, 3, 43, 0
5, 13560, Note_on_c, 3, 43, 100
5, 13679, Note_on_c, 3, 43, 0
5, 13680, Note_on_c, 3, 43, 100
5, 13799, Note_on_c, 3, 43, 0
5, 13800, Note_on_c, 3, 43, 100
5, 13859, Note_on_c, 3, 43, 0
5, 13860, Note_on_c, 3, 46, 100
5, 13919, Note_on_c, 3, 46, 0
5, 13920, Note_on_c, 3, 41, 100
5, 14099, Note_on_c, 3, 41, 0
5, 14100, Note_on_c, 3, 41, 100
5, 14219, Note_on_c, 3, 41, 0
5, 14220, Note_on_c, 3, 41, 100
5, 14279, Note_on_c, 3, 41, 0
5, 14280, Note_on_c, 3, 41, 100
5, 14339, Note_on_c, 3, 41, 0
5, 14340, Note_on_c, 3, 41, 100
5, 14399, Note_on_c, 3, 41, 0
5, 14400, Note_on_c, 3, 41, 100
5, 14519, Note_on_c, 3, 41, 0
5, 14520, Note_on_c, 3, 41, 100
5, 14639, Note_on_c, 3, 41, 0
5, 14640, Note_on_c, 3, 41, 100
5, 14879, Note_on_c, 3, 41, 0
5, 14880, Note_on_c, 3, 36, 100
5, 15059, Note_on_c, 3, 36, 0
5, 15060, Note_on_c, 3, 36, 100
5, 15179, Note_on_c, 3, 36, 0
5, 15180, Note_on_c, 3, 36, 100
5, 15239, Note_on_c, 3, 36, 0
5, 15240, Note_on_c, 3, 36, 100
5, 15299, Note_on_c, 3, 36, 0
5, 15300, Note_on_c, 3, 36, 100
5, 15359, Note_on_c, 3, 36, 0
5, 15360, Note_on_c, 3, 39, 100
5, 15479, Note_on_c, 3, 39, 0
5, 15480, Note_on_c, 3, 39, 100
5, 15599, Note_on_c, 3, 39, 0
5, 15600, Note_on_c, 3, 39, 100
5, 15659, Note_on_c, 3, 39, 0
5, 15660, Note_on_c, 3, 41, 100
5, 15719, Note_on_c, 3, 41, 0
5, 15720, Note_on_c, 3, 42, 100
5, 15779, Note_on_c, 3, 42, 0
5, 15780, Note_on_c, 3, 41, 100
5, 15839, Note_on_c, 3, 41, 0
5, 15840, Note_on_c, 3, 46, 100
5, 16019, Note_on_c, 3, 46, 0
5, 16020, Note_on_c, 3, 46, 100
5, 16139, Note_on_c, 3, 46, 0
5, 16140, Note_on_c, 3, 46, 100
5, 16199, Note_on_c, 3, 46, 0
5, 16200, Note_on_c, 3, 46, 100
5, 16259, Note_on_c, 3, 46, 0
5, 16260, Note_on_c, 3, 46, 100
5, 16319, Note_on_c, 3, 46, 0
5, 16320, Note_on_c, 3, 46, 100
5, 16439, Note_on_c, 3, 46, 0
5, 16440, Note_on_c, 3, 46, 100
5, 16559, Note_on_c, 3, 46, 0
5, 16560, Note_on_c, 3, 46, 100
5, 16679, Note_on_c, 3, 46, 0
5, 16680, Note_on_c, 3, 46, 100
5, 16739, Note_on_c, 3, 46, 0
5, 16740, Note_on_c, 3, 45, 100
5, 16799, Note_on_c, 3, 45, 0
5, 16800, Note_on_c, 3, 43, 100
5, 16979, Note_on_c, 3, 43, 0
5, 16980, Note_on_c, 3, 43, 100
5, 17099, Note_on_c, 3, 43, 0
5, 17100, Note_on_c, 3, 43, 100
5, 17159, Note_on_c, 3, 43, 0
5, 17160, Note_on_c, 3, 43, 100
5, 17219, Note_on_c, 3, 43, 0
5, 17220, Note_on_c, 3, 43, 100
5, 17279, Note_on_c, 3, 43, 0
5, 17280, Note_on_c, 3, 43, 100
5, 17399, Note_on_c, 3, 43, 0
5, 17400, Note_on_c, 3, 43, 100
5, 17519, Note_on_c, 3, 43, 0
5, 17520, Note_on_c, 3, 43, 100
5, 17639, Note_on_c, 3, 43, 0
5, 17640, Note_on_c, 3, 43, 100
5, 17699, Note_on_c, 3, 43, 0
5, 17700, Note_on_c, 3, 46, 100
5, 17759, Note_on_c, 3, 46, 0
5, 17760, Note_on_c, 3, 41, 100
5, 17939, Note_on_c, 3, 41, 0
5, 17940, Note_on_c, 3, 41, 100
5, 18059, Note_on_c, 3, 41, 0
5, 18060, Note_on_c, 3, 41, 100
5, 18119, Note_on_c, 3, 41, 0
5, 18120, Note_on_c, 3, 41, 100
5, 18179, Note_on_c, 3, 41, 0
5, 18180, Note_on_c, 3, 41, 100
5, 18239, Note_on_c, 3, 41, 0
5, 18240, Note_on_c, 3, 41, 100
5, 18359, Note_on_c, 3, 41, 0
5, 18360, Note_on_c, 3, 41, 100
5, 18479, Note_on_c, 3, 41, 0
5, 18480, Note_on_c, 3, 41, 100
5, 18719, Note_on_c, 3, 41, 0
5, 18720, Note_on_c, 3, 36, 100
5, 18899, Note_on_c, 3, 36, 0
5, 18900, Note_on_c, 3, 36, 100
5, 19019, Note_on_c, 3, 36, 0
5, 19020, Note_on_c, 3, 36, 100
5, 19079, Note_on_c, 3, 36, 0
5, 19080, Note_on_c, 3, 36, 100
5, 19139, Note_on_c, 3, 36, 0
5, 19140, Note_on_c, 3, 36, 100
5, 19199, Note_on_c, 3, 36, 0
5, 19200, Note_on_c, 3, 39, 100
5, 19319, Note_on_c, 3, 39, 0
5, 19320, Note_on_c, 3, 39, 100
5, 19439, Note_on_c, 3, 39, 0
5, 19440, Note_on_c, 3, 39, 100
5, 19499, Note_on_c, 3, 39, 0
5, 19500, Note_on_c, 3, 41, 100
5, 19559, Note_on_c, 3, 41, 0
5, 19560, Note_on_c, 3, 42, 100
5, 19619, Note_on_c, 3, 42, 0
5, 19620, Note_on_c, 3, 41, 100
5, 19679, Note_on_c, 3, 41, 0
5, 19680, Note_on_c, 3, 46, 100
5, 19859, Note_on_c, 3, 46, 0
5, 19860, Note_on_c, 3, 46, 100
5, 19979, Note_on_c, 3, 46, 0
5, 19980, Note_on_c, 3, 46, 100
5, 20039, Note_on_c, 3, 46, 0
5, 20040, Note_on_c, 3, 46, 100
5, 20099, Note_on_c, 3, 46, 0
5, 20100, Note_on_c, 3, 46, 100
5, 20159, Note_on_c, 3, 46, 0
5, 20160, Note_on_c, 3, 46, 100
5, 20279, Note_on_c, 3, 46, 0
5, 20280, Note_on_c, 3, 46, 100
5, 20399, Note_on_c, 3, 46, 0
5, 20400, Note_on_c, 3, 46, 100
5, 20519, Note_on_c, 3, 46, 0
5, 20520, Note_on_c, 3, 43, 100
5, 20579, Note_on_c, 3, 43, 0
5, 20580, Note_on_c, 3, 41, 100
5, 20639, Note_on_c, 3, 41, 0
5, 20640, Note_on_c, 3, 46, 100
5, 20819, Note_on_c, 3, 46, 0
5, 20820, Note_on_c, 3, 46, 100
5, 20939, Note_on_c, 3, 46, 0
5, 20940, Note_on_c, 3, 46, 100
5, 20999, Note_on_c, 3, 46, 0
5, 21000, Note_on_c, 3, 46, 100
5, 21059, Note_on_c, 3, 46, 0
5, 21060, Note_on_c, 3, 46, 100
5, 21119, Note_on_c, 3, 46, 0
5, 21120, Note_on_c, 3, 46, 100
5, 21239, Note_on_c, 3, 46, 0
5, 21240, Note_on_c, 3, 46, 100
5, 21359, Note_on_c, 3, 46, 0
5, 21360, Note_on_c, 3, 46, 100
5, 21479, Note_on_c, 3, 46, 0
5, 21480, Note_on_c, 3, 43, 100
5, 21539, Note_on_c, 3, 43, 0
5, 21540, Note_on_c, 3, 41, 100
5, 21599, Note_on_c, 3, 41, 0
5, 21600, Note_on_c, 3, 46, 100
5, 21779, Note_on_c, 3, 46, 0
5, 21780, Note_on_c, 3, 46, 100
5, 21899, Note_on_c, 3, 46, 0
5, 21900, Note_on_c, 3, 46, 100
5, 21959, Note_on_c, 3, 46, 0
5, 21960, Note_on_c, 3, 46, 100
5, 22019, Note_on_c, 3, 46, 0
5, 22020, Note_on_c, 3, 46, 100
5, 22079, Note_on_c, 3, 46, 0
5, 22080, Note_on_c, 3, 46, 100
5, 22199, Note_on_c, 3, 46, 0
5, 22200, Note_on_c, 3, 46, 100
5, 22319, Note_on_c, 3, 46, 0
5, 22320, Note_on_c, 3, 46, 100
5, 22439, Note_on_c, 3, 46, 0
5, 22440, Note_on_c, 3, 43, 100
5, 22499, Note_on_c, 3, 43, 0
5, 22500, Note_on_c, 3, 41, 100
5, 22559, Note_on_c, 3, 41, 0
5, 22560, Note_on_c, 3, 46, 100
5, 22739, Note_on_c, 3, 46, 0
5, 22740, Note_on_c, 3, 46, 100
5, 22859, Note_on_c, 3, 46, 0
5, 22860, Note_on_c, 3, 46, 100
5, 22919, Note_on_c, 3, 46, 0
5, 22920, Note_on_c, 3, 46, 100
5, 22979, Note_on_c, 3, 46, 0
5, 22980, Note_on_c, 3, 39, 100
5, 23039, Note_on_c, 3, 39, 0
5, 23040, Note_on_c, 3, 39, 100
5, 23159, Note_on_c, 3, 39, 0
5, 23160, Note_on_c, 3, 46, 100
5, 23279, Note_on_c, 3, 46, 0
5, 23280, Note_on_c, 3, 46, 100
5, 23399, Note_on_c, 3, 46, 0
5, 23400, Note_on_c, 3, 43, 100
5, 23459, Note_on_c, 3, 43, 0
5, 23460, Note_on_c, 3, 41, 100
5, 23519, Note_on_c, 3, 41, 0
5, 23520, Note_on_c, 3, 46, 100
5, 23699, Note_on_c, 3, 46, 0
5, 23700, Note_on_c, 3, 46, 100
5, 23819, Note_on_c, 3, 46, 0
5, 23820, Note_on_c, 3, 46, 100
5, 23879, Note_on_c, 3, 46, 0
5, 23880, Note_on_c, 3, 46, 100
5, 23939, Note_on_c, 3, 46, 0
5, 23940, Note_on_c, 3, 46, 100
5, 23999, Note_on_c, 3, 46, 0
5, 24000, Note_on_c, 3, 46, 100
5, 24119, Note_on_c, 3, 46, 0
5, 24120, Note_on_c, 3, 46, 100
5, 24239, Note_on_c, 3, 46, 0
5, 24240, Note_on_c, 3, 46, 100
5, 24359, Note_on_c, 3, 46, 0
5, 24360, Note_on_c, 3, 43, 100
5, 24419, Note_on_c, 3, 43, 0
5, 24420, Note_on_c, 3, 41, 100
5, 24479, Note_on_c, 3, 41, 0
5, 24480, Note_on_c, 3, 46, 100
5, 24659, Note_on_c, 3, 46, 0
5, 24660, Note_on_c, 3, 46, 100
5, 24779, Note_on_c, 3, 46, 0
5, 24780, Note_on_c, 3, 46, 100
5, 24839, Note_on_c, 3, 46, 0
5, 24840, Note_on_c, 3, 46, 100
5, 24899, Note_on_c, 3, 46, 0
5, 24900, Note_on_c, 3, 46, 100
5, 24959, Note_on_c, 3, 46, 0
5, 24960, Note_on_c, 3, 46, 100
5, 25079, Note_on_c, 3, 46, 0
5, 25080, Note_on_c, 3, 46, 100
5, 25199, Note_on_c, 3, 46, 0
5, 25200, Note_on_c, 3, 46, 100
5, 25319, Note_on_c, 3, 46, 0
5, 25320, Note_on_c, 3, 43, 100
5, 25379, Note_on_c, 3, 43, 0
5, 25380, Note_on_c, 3, 41, 100
5, 25439, Note_on_c, 3, 41, 0
5, 25440, Note_on_c, 3, 46, 100
5, 25619, Note_on_c, 3, 46, 0
5, 25620, Note_on_c, 3, 46, 100
5, 25739, Note_on_c, 3, 46, 0
5, 25740, Note_on_c, 3, 46, 100
5, 25799, Note_on_c, 3, 46, 0
5, 25800, Note_on_c, 3, 46, 100
5, 25859, Note_on_c, 3, 46, 0
5, 25860, Note_on_c, 3, 46, 100
5, 25919, Note_on_c, 3, 46, 0
5, 25920, Note_on_c, 3, 46, 100
5, 26039, Note_on_c, 3, 46, 0
5, 26040, Note_on_c, 3, 46, 100
5, 26159, Note_on_c, 3, 46, 0
5, 26160, Note_on_c, 3, 46, 100
5, 26279, Note_on_c, 3, 46, 0
5, 26280, Note_on_c, 3, 43, 100
5, 26339, Note_on_c, 3, 43, 0
5, 26340, Note_on_c, 3, 41, 100
5, 26399, Note_on_c, 3, 41, 0
5, 26400, Note_on_c, 3, 46, 100
5, 26579, Note_on_c, 3, 46, 0
5, 26580, Note_on_c, 3, 46, 100
5, 26699, Note_on_c, 3, 46, 0
5, 26700, Note_on_c, 3, 46, 100
5, 26759, Note_on_c, 3, 46, 0
5, 26760, Note_on_c, 3, 46, 100
5, 26819, Note_on_c, 3, 46, 0
5, 26820, Note_on_c, 3, 39, 100
5, 26879, Note_on_c, 3, 39, 0
5, 26880, Note_on_c, 3, 39, 100
5, 26999, Note_on_c, 3, 39, 0
5, 27000, Note_on_c, 3, 46, 100
5, 27119, Note_on_c, 3, 46, 0
5, 27120, Note_on_c, 3, 46, 100
5, 27239, Note_on_c, 3, 46, 0
5, 27240, Note_on_c, 3, 43, 100
5, 27299, Note_on_c, 3, 43, 0
5, 27300, Note_on_c, 3, 41, 100
5, 27359, Note_on_c, 3, 41, 0
5, 27360, Note_on_c, 3, 46, 100
5, 27539, Note_on_c, 3, 46, 0
5, 27540, Note_on_c, 3, 46, 100
5, 27659, Note_on_c, 3, 46, 0
5, 27660, Note_on_c, 3, 46, 100
5, 27719, Note_on_c, 3, 46, 0
5, 27720, Note_on_c, 3, 46, 100
5, 27779, Note_on_c, 3, 46, 0
5, 27780, Note_on_c, 3, 46, 100
5, 27839, Note_on_c, 3, 46, 0
5, 27840, Note_on_c, 3, 46, 100
5, 27959, Note_on_c, 3, 46, 0
5, 27960, Note_on_c, 3, 46, 100
5, 28079, Note_on_c, 3, 46, 0
5, 28080, Note_on_c, 3, 46, 100
5, 28199, Note_on_c, 3, 46, 0
5, 28200, Note_on_c, 3, 46, 100
5, 28259, Note_on_c, 3, 46, 0
5, 28260, Note_on_c, 3, 45, 100
5, 28319, Note_on_c, 3, 45, 0
5, 28320, Note_on_c, 3, 43, 100
5, 28499, Note_on_c, 3, 43, 0
5, 28500, Note_on_c, 3, 43, 100
5, 28619, Note_on_c, 3, 43, 0
5, 28620, Note_on_c, 3, 43, 100
5, 28679, Note_on_c, 3, 43, 0
5, 28680, Note_on_c, 3, 43, 100
5, 28739, Note_on_c, 3, 43, 0
5, 28740, Note_on_c, 3, 43, 100
5, 28799, Note_on_c, 3, 43, 0
5, 28800, Note_on_c, 3, 43, 100
5, 28919, Note_on_c, 3, 43, 0
5, 28920, Note_on_c, 3, 43, 100
5, 29039, Note_on_c, 3, 43, 0
5, 29040, Note_on_c, 3, 43, 100
5, 29159, Note_on_c, 3, 43, 0
5, 29160, Note_on_c, 3, 43, 100
5, 29219, Note_on_c, 3, 43, 0
5, 29220, Note_on_c, 3, 46, 100
5, 29279, Note_on_c, 3, 46, 0
5, 29280, Note_on_c, 3, 41, 100
5, 29459, Note_on_c, 3, 41, 0
5, 29460, Note_on_c, 3, 41, 100
5, 29579, Note_on_c, 3, 41, 0
5, 29580, Note_on_c, 3, 41, 100
5, 29639, Note_on_c, 3, 41, 0
5, 29640, Note_on_c, 3, 41, 100
5, 29699, Note_on_c, 3, 41, 0
5, 29700, Note_on_c, 3, 41, 100
5, 29759, Note_on_c, 3, 41, 0
5, 29760, Note_on_c, 3, 41, 100
5, 29879, Note_on_c, 3, 41, 0
5, 29880, Note_on_c, 3, 41, 100
5, 29999, Note_on_c, 3, 41, 0
5, 30000, Note_on_c, 3, 41, 100
5, 30239, Note_on_c, 3, 41, 0
5, 30240, Note_on_c, 3, 36, 100
5, 30419, Note_on_c, 3, 36, 0
5, 30420, Note_on_c, 3, 36, 100
5, 30539, Note_on_c, 3, 36, 0
5, 30540, Note_on_c, 3, 36, 100
5, 30599, Note_on_c, 3, 36, 0
5, 30600, Note_on_c, 3, 36, 100
5, 30659, Note_on_c, 3, 36, 0
5, 30660, Note_on_c, 3, 36, 100
5, 30719, Note_on_c, 3, 36, 0
5, 30720, Note_on_c, 3, 39, 100
5, 30839, Note_on_c, 3, 39, 0
5, 30840, Note_on_c, 3, 39, 100
5, 30959, Note_on_c, 3, 39, 0
5, 30960, Note_on_c, 3, 39, 100
5, 31019, Note_on_c, 3, 39, 0
5, 31020, Note_on_c, 3, 41, 100
5, 31079, Note_on_c, 3, 41, 0
5, 31080, Note_on_c, 3, 42, 100
5, 31139, Note_on_c, 3, 42, 0
5, 31140, Note_on_c, 3, 41, 100
5, 31199, Note_on_c, 3, 41, 0
5, 31200, Note_on_c, 3, 46, 100
5, 31379, Note_on_c, 3, 46, 0
5, 31380, Note_on_c, 3, 46, 100
5, 31499, Note_on_c, 3, 46, 0
5, 31500, Note_on_c, 3, 46, 100
5, 31559, Note_on_c, 3, 46, 0
5, 31560, Note_on_c, 3, 46, 100
5, 31619, Note_on_c, 3, 46, 0
5, 31620, Note_on_c, 3, 46, 100
5, 31679, Note_on_c, 3, 46, 0
5, 31680, Note_on_c, 3, 46, 100
5, 31799, Note_on_c, 3, 46, 0
5, 31800, Note_on_c, 3, 46, 100
5, 31919, Note_on_c, 3, 46, 0
5, 31920, Note_on_c, 3, 46, 100
5, 32039, Note_on_c, 3, 46, 0
5, 32040, Note_on_c, 3, 46, 100
5, 32099, Note_on_c, 3, 46, 0
5, 32100, Note_on_c, 3, 45, 100
5, 32159, Note_on_c, 3, 45, 0
5, 32160, Note_on_c, 3, 43, 100
5, 32339, Note_on_c, 3, 43, 0
5, 32340, Note_on_c, 3, 43, 100
5, 32459, Note_on_c, 3, 43, 0
5, 32460, Note_on_c, 3, 43, 100
5, 32519, Note_on_c, 3, 43, 0
5, 32520, Note_on_c, 3, 43, 100
5, 32579, Note_on_c, 3, 43, 0
5, 32580, Note_on_c, 3, 43, 100
5, 32639, Note_on_c, 3, 43, 0
5, 32640, Note_on_c, 3, 43, 100
5, 32759, Note_on_c, 3, 43, 0
5, 32760, Note_on_c, 3, 43, 100
5, 32879, Note_on_c, 3, 43, 0
5, 32880, Note_on_c, 3, 43, 100
5, 32999, Note_on_c, 3, 43, 0
5, 33000, Note_on_c, 3, 43, 100
5, 33059, Note_on_c, 3, 43, 0
5, 33060, Note_on_c, 3, 46, 100
5, 33119, Note_on_c, 3, 46, 0
5, 33120, Note_on_c, 3, 41, 100
5, 33299, Note_on_c, 3, 41, 0
5, 33300, Note_on_c, 3, 41, 100
5, 33419, Note_on_c, 3, 41, 0
5, 33420, Note_on_c, 3, 41, 100
5, 33479, Note_on_c, 3, 41, 0
5, 33480, Note_on_c, 3, 41, 100
5, 33539, Note_on_c, 3, 41, 0
5, 33540, Note_on_c, 3, 41, 100
5, 33599, Note_on_c, 3, 41, 0
5, 33600, Note_on_c, 3, 41, 100
5, 33719, Note_on_c, 3, 41, 0
5, 33720, Note_on_c, 3, 41, 100
5, 33839, Note_on_c, 3, 41, 0
5, 33840, Note_on_c, 3, 41, 100
5, 34079, Note_on_c, 3, 41, 0
5, 34080, Note_on_c, 3, 36, 100
5, 34259, Note_on_c, 3, 36, 0
5, 34260, Note_on_c, 3, 36, 100
5, 34379, Note_on_c, 3, 36, 0
5, 34380, Note_on_c, 3, 36, 100
5, 34439, Note_on_c, 3, 36, 0
5, 34440, Note_on_c, 3, 36, 100
5, 34499, Note_on_c, 3, 36, 0
5, 34500, Note_on_c, 3, 36, 100
5, 34559, Note_on_c, 3, 36, 0
5, 34560, Note_on_c, 3, 39, 100
5, 34679, Note_on_c, 3, 39, 0
5, 34680, Note_on_c, 3, 39, 100
5, 34799, Note_on_c, 3, 39, 0
5, 34800, Note_on_c, 3, 39, 100
5, 34859, Note_on_c, 3, 39, 0
5, 34860, Note_on_c, 3, 41, 100
5, 34919, Note_on_c, 3, 41, 0
5, 34920, Note_on_c, 3, 42, 100
5, 34979, Note_on_c, 3, 42, 0
5, 34980, Note_on_c, 3, 41, 100
5, 35039, Note_on_c, 3, 41, 0
5, 35040, Note_on_c, 3, 46, 100
5, 35219, Note_on_c, 3, 46, 0
5, 35220, Note_on_c, 3, 46, 100
5, 35339, Note_on_c, 3, 46, 0
5, 35340, Note_on_c, 3, 46, 100
5, 35399, Note_on_c, 3, 46, 0
5, 35400, Note_on_c, 3, 46, 100
5, 35459, Note_on_c, 3, 46, 0
5, 35460, Note_on_c, 3, 46, 100
5, 35519, Note_on_c, 3, 46, 0
5, 35520, Note_on_c, 3, 46, 100
5, 35639, Note_on_c, 3, 46, 0
5, 35640, Note_on_c, 3, 46, 100
5, 35759, Note_on_c, 3, 46, 0
5, 35760, Note_on_c, 3, 46, 100
5, 35879, Note_on_c, 3, 46, 0
5, 35880, Note_on_c, 3, 46, 100
5, 35939, Note_on_c, 3, 46, 0
5, 35940, Note_on_c, 3, 45, 100
5, 35999, Note_on_c, 3, 45, 0
5, 36000, Note_on_c, 3, 43, 100
5, 36179, Note_on_c, 3, 43, 0
5, 36180, Note_on_c, 3, 43, 100
5, 36299, Note_on_c, 3, 43, 0
5, 36300, Note_on_c, 3, 43, 100
5, 36359, Note_on_c, 3, 43, 0
5, 36360, Note_on_c, 3, 43, 100
5, 36419, Note_on_c, 3, 43, 0
5, 36420, Note_on_c, 3, 43, 100
5, 36479, Note_on_c, 3, 43, 0
5, 36480, Note_on_c, 3, 43, 100
5, 36599, Note_on_c, 3, 43, 0
5, 36600, Note_on_c, 3, 43, 100
5, 36719, Note_on_c, 3, 43, 0
5, 36720, Note_on_c, 3, 43, 100
5, 36839, Note_on_c, 3, 43, 0
5, 36840, Note_on_c, 3, 43, 100
5, 36899, Note_on_c, 3, 43, 0
5, 36900, Note_on_c, 3, 46, 100
5, 36959, Note_on_c, 3, 46, 0
5, 36960, Note_on_c, 3, 41, 100
5, 37139, Note_on_c, 3, 41, 0
5, 37140, Note_on_c, 3, 41, 100
5, 37259, Note_on_c, 3, 41, 0
5, 37260, Note_on_c, 3, 41, 100
5, 37319, Note_on_c, 3, 41, 0
5, 37320, Note_on_c, 3, 41, 100
5, 37379, Note_on_c, 3, 41, 0
5, 37380, Note_on_c, 3, 41, 100
5, 37439, Note_on_c, 3, 41, 0
5, 37440, Note_on_c, 3, 41, 100
5, 37559, Note_on_c, 3, 41, 0
5, 37560, Note_on_c, 3, 41, 100
5, 37679, Note_on_c, 3, 41, 0
5, 37680, Note_on_c, 3, 41, 100
5, 37919, Note_on_c, 3, 41, 0
5, 37920, Note_on_c, 3, 36, 100
5, 38099, Note_on_c, 3, 36, 0
5, 38100, Note_on_c, 3, 36, 100
5, 38219, Note_on_c, 3, 36, 0
5, 38220, Note_on_c, 3, 36, 100
5, 38279, Note_on_c, 3, 36, 0
5, 38280, Note_on_c, 3, 36, 100
5, 38339, Note_on_c, 3, 36, 0
5, 38340, Note_on_c, 3, 36, 100
5, 38399, Note_on_c, 3, 36, 0
5, 38400, Note_on_c, 3, 39, 100
5, 38519, Note_on_c, 3, 39, 0
5, 38520, Note_on_c, 3, 39, 100
5, 38639, Note_on_c, 3, 39, 0
5, 38640, Note_on_c, 3, 39, 100
5, 38699, Note_on_c, 3, 39, 0
5, 38700, Note_on_c, 3, 41, 100
5, 38759, Note_on_c, 3, 41, 0
5, 38760, Note_on_c, 3, 42, 100
5, 38819, Note_on_c, 3, 42, 0
5, 38820, Note_on_c, 3, 41, 100
5, 38879, Note_on_c, 3, 41, 0
5, 38880, Note_on_c, 3, 46, 100
5, 39059, Note_on_c, 3, 46, 0
5, 39060, Note_on_c, 3, 46, 100
5, 39179, Note_on_c, 3, 46, 0
5, 39180, Note_on_c, 3, 46, 100
5, 39239, Note_on_c, 3, 46, 0
5, 39240, Note_on_c, 3, 46, 100
5, 39299, Note_on_c, 3, 46, 0
5, 39300, Note_on_c, 3, 46, 100
5, 39359, Note_on_c, 3, 46, 0
5, 39360, Note_on_c, 3, 46, 100
5, 39479, Note_on_c, 3, 46, 0
5, 39480, Note_on_c, 3, 46, 100
5, 39599, Note_on_c, 3, 46, 0
5, 39600, Note_on_c, 3, 46, 100
5, 39719, Note_on_c, 3, 46, 0
5, 39720, Note_on_c, 3, 46, 100
5, 39779, Note_on_c, 3, 46, 0
5, 39780, Note_on_c, 3, 45, 100
5, 39839, Note_on_c, 3, 45, 0
5, 39840, Note_on_c, 3, 43, 100
5, 40019, Note_on_c, 3, 43, 0
5, 40020, Note_on_c, 3, 43, 100
5, 40139, Note_on_c, 3, 43, 0
5, 40140, Note_on_c, 3, 43, 100
5, 40199, Note_on_c, 3, 43, 0
5, 40200, Note_on_c, 3, 43, 100
5, 40259, Note_on_c, 3, 43, 0
5, 40260, Note_on_c, 3, 43, 100
5, 40319, Note_on_c, 3, 43, 0
5, 40320, Note_on_c, 3, 43, 100
5, 40439, Note_on_c, 3, 43, 0
5, 40440, Note_on_c, 3, 43, 100
5, 40559, Note_on_c, 3, 43, 0
5, 40560, Note_on_c, 3, 43, 100
5, 40679, Note_on_c, 3, 43, 0
5, 40680, Note_on_c, 3, 43, 100
5, 40739, Note_on_c, 3, 43, 0
5, 40740, Note_on_c, 3, 46, 100
5, 40799, Note_on_c, 3, 46, 0
5, 40800, Note_on_c, 3, 41, 100
5, 40979, Note_on_c, 3, 41, 0
5, 40980, Note_on_c, 3, 41, 100
5, 41099, Note_on_c, 3, 41, 0
5, 41100, Note_on_c, 3, 41, 100
5, 41159, Note_on_c, 3, 41, 0
5, 41160, Note_on_c, 3, 41, 100
5, 41219, Note_on_c, 3, 41, 0
5, 41220, Note_on_c, 3, 41, 100
5, 41279, Note_on_c, 3, 41, 0
5, 41280, Note_on_c, 3, 41, 100
5, 41399, Note_on_c, 3, 41, 0
5, 41400, Note_on_c, 3, 41, 100
5, 41519, Note_on_c, 3, 41, 0
5, 41520, Note_on_c, 3, 41, 100
5, 41759, Note_on_c, 3, 41, 0
5, 41760, Note_on_c, 3, 36, 100
5, 41939, Note_on_c, 3, 36, 0
5, 41940, Note_on_c, 3, 36, 100
5, 42059, Note_on_c, 3, 36, 0
5, 42060, Note_on_c, 3, 36, 100
5, 42119, Note_on_c, 3, 36, 0
5, 42120, Note_on_c, 3, 36, 100
5, 42179, Note_on_c, 3, 36, 0
5, 42180, Note_on_c, 3, 36, 100
5, 42239, Note_on_c, 3, 36, 0
5, 42240, Note_on_c, 3, 39, 100
5, 42359, Note_on_c, 3, 39, 0
5, 42360, Note_on_c, 3, 39, 100
5, 42479, Note_on_c, 3, 39, 0
5, 42480, Note_on_c, 3, 39, 100
5, 42539, Note_on_c, 3, 39, 0
5, 42540, Note_on_c, 3, 41, 100
5, 42599, Note_on_c, 3, 41, 0
5, 42600, Note_on_c, 3, 42, 100
5, 42659, Note_on_c, 3, 42, 0
5, 42660, Note_on_c, 3, 41, 100
5, 42719, Note_on_c, 3, 41, 0
5, 42720, Note_on_c, 3, 46, 100
5, 42899, Note_on_c, 3, 46, 0
5, 42900, Note_on_c, 3, 46, 100
5, 43019, Note_on_c, 3, 46, 0
5, 43020, Note_on_c, 3, 46, 100
5, 43079, Note_on_c, 3, 46, 0
5, 43080, Note_on_c, 3, 46, 100
5, 43139, Note_on_c, 3, 46, 0
5, 43140, Note_on_c, 3, 46, 100
5, 43199, Note_on_c, 3, 46, 0
5, 43200, Note_on_c, 3, 46, 100
5, 43319, Note_on_c, 3, 46, 0
5, 43320, Note_on_c, 3, 46, 100
5, 43439, Note_on_c, 3, 46, 0
5, 43440, Note_on_c, 3, 46, 100
5, 43559, Note_on_c, 3, 46, 0
5, 43560, Note_on_c, 3, 43, 100
5, 43619, Note_on_c, 3, 43, 0
5, 43620, Note_on_c, 3, 41, 100
5, 43679, Note_on_c, 3, 41, 0
5, 43680, Note_on_c, 3, 46, 100
5, 43859, Note_on_c, 3, 46, 0
5, 43860, Note_on_c, 3, 46, 100
5, 43979, Note_on_c, 3, 46, 0
5, 43980, Note_on_c, 3, 46, 100
5, 44039, Note_on_c, 3, 46, 0
5, 44040, Note_on_c, 3, 46, 100
5, 44099, Note_on_c, 3, 46, 0
5, 44100, Note_on_c, 3, 46, 100
5, 44159, Note_on_c, 3, 46, 0
5, 44160, Note_on_c, 3, 46, 100
5, 44279, Note_on_c, 3, 46, 0
5, 44280, Note_on_c, 3, 46, 100
5, 44399, Note_on_c, 3, 46, 0
5, 44400, Note_on_c, 3, 46, 100
5, 44519, Note_on_c, 3, 46, 0
5, 44520, Note_on_c, 3, 43, 100
5, 44579, Note_on_c, 3, 43, 0
5, 44580, Note_on_c, 3, 41, 100
5, 44639, Note_on_c, 3, 41, 0
5, 44640, Note_on_c, 3, 46, 100
5, 44819, Note_on_c, 3, 46, 0
5, 44820, Note_on_c, 3, 46, 100
5, 44939, Note_on_c, 3, 46, 0
5, 44940, Note_on_c, 3, 46, 100
5, 44999, Note_on_c, 3, 46, 0
5, 45000, Note_on_c, 3, 46, 100
5, 45059, Note_on_c, 3, 46, 0
5, 45060, Note_on_c, 3, 46, 100
5, 45119, Note_on_c, 3, 46, 0
5, 45120, Note_on_c, 3, 46, 100
5, 45239, Note_on_c, 3, 46, 0
5, 45240, Note_on_c, 3, 46, 100
5, 45359, Note_on_c, 3, 46, 0
5, 45360, Note_on_c, 3, 46, 100
5, 45479, Note_on_c, 3, 46, 0
5, 45480, Note_on_c, 3, 43, 100
5, 45539, Note_on_c, 3, 43, 0
5, 45540, Note_on_c, 3, 41, 100
5, 45599, Note_on_c, 3, 41, 0
5, 45600, Note_on_c, 3, 46, 100
5, 45779, Note_on_c, 3, 46, 0
5, 45780, Note_on_c, 3, 46, 100
5, 45899, Note_on_c, 3, 46, 0
5, 45900, Note_on_c, 3, 46, 100
5, 45959, Note_on_c, 3, 46, 0
5, 45960, Note_on_c, 3, 46, 100
5, 46019, Note_on_c, 3, 46, 0
5, 46020, Note_on_c, 3, 39, 100
5, 46079, Note_on_c, 3, 39, 0
5, 46080, Note_on_c, 3, 39, 100
5, 46199, Note_on_c, 3, 39, 0
5, 46200, Note_on_c, 3, 46, 100
5, 46319, Note_on_c, 3, 46, 0
5, 46320, Note_on_c, 3, 46, 100
5, 46439, Note_on_c, 3, 46, 0
5, 46440, Note_on_c, 3, 43, 100
5, 46499, Note_on_c, 3, 43, 0
5, 46500, Note_on_c, 3, 41, 100
5, 46559, Note_on_c, 3, 41, 0
5, 46560, Note_on_c, 3, 46, 100
5, 46739, Note_on_c, 3, 46, 0
5, 46740, Note_on_c, 3, 46, 100
5, 46859, Note_on_c, 3, 46, 0
5, 46860, Note_on_c, 3, 46, 100
5, 46919, Note_on_c, 3, 46, 0
5, 46920, Note_on_c, 3, 46, 100
5, 46979, Note_on_c, 3, 46, 0
5, 46980, Note_on_c, 3, 46, 100
5, 47039, Note_on_c, 3, 46, 0
5, 47040, Note_on_c, 3, 46, 100
5, 47159, Note_on_c, 3, 46, 0
5, 47160, Note_on_c, 3, 46, 100
5, 47279, Note_on_c, 3, 46, 0
5, 47280, Note_on_c, 3, 46, 100
5, 47399, Note_on_c, 3, 46, 0
5, 47400, Note_on_c, 3, 43, 100
5, 47459, Note_on_c, 3, 43, 0
5, 47460, Note_on_c, 3, 41, 100
5, 47519, Note_on_c, 3, 41, 0
5, 47520, Note_on_c, 3, 46, 100
5, 47699, Note_on_c, 3, 46, 0
5, 47700, Note_on_c, 3, 46, 100
5, 47819, Note_on_c, 3, 46, 0
5, 47820, Note_on_c, 3, 46, 100
5, 47879, Note_on_c, 3, 46, 0
5, 47880, Note_on_c, 3, 46, 100
5, 47939, Note_on_c, 3, 46, 0
5, 47940, Note_on_c, 3, 46, 100
5, 47999, Note_on_c, 3, 46, 0
5, 48000, Note_on_c, 3, 46, 100
5, 48119, Note_on_c, 3, 46, 0
5, 48120, Note_on_c, 3, 46, 100
5, 48239, Note_on_c, 3, 46, 0
5, 48240, Note_on_c, 3, 46, 100
5, 48359, Note_on_c, 3, 46, 0
5, 48360, Note_on_c, 3, 43, 100
5, 48419, Note_on_c, 3, 43, 0
5, 48420, Note_on_c, 3, 41, 100
5, 48479, Note_on_c, 3, 41, 0
5, 48480, Note_on_c, 3, 46, 100
5, 48659, Note_on_c, 3, 46, 0
5, 48660, Note_on_c, 3, 46, 100
5, 48779, Note_on_c, 3, 46, 0
5, 48780, Note_on_c, 3, 46, 100
5, 48839, Note_on_c, 3, 46, 0
5, 48840, Note_on_c, 3, 46, 100
5, 48899, Note_on_c, 3, 46, 0
5, 48900, Note_on_c, 3, 46, 100
5, 48959, Note_on_c, 3, 46, 0
5, 48960, Note_on_c, 3, 46, 100
5, 49079, Note_on_c, 3, 46, 0
5, 49080, Note_on_c, 3, 46, 100
5, 49199, Note_on_c, 3, 46, 0
5, 49200, Note_on_c, 3, 46, 100
5, 49319, Note_on_c, 3, 46, 0
5, 49320, Note_on_c, 3, 43, 100
5, 49379, Note_on_c, 3, 43, 0
5, 49380, Note_on_c, 3, 41, 100
5, 49439, Note_on_c, 3, 41, 0
5, 49440, Note_on_c, 3, 46, 100
5, 49619, Note_on_c, 3, 46, 0
5, 49620, Note_on_c, 3, 46, 100
5, 49739, Note_on_c, 3, 46, 0
5, 49740, Note_on_c, 3, 46, 100
5, 49799, Note_on_c, 3, 46, 0
5, 49800, Note_on_c, 3, 46, 100
5, 49859, Note_on_c, 3, 46, 0
5, 49860, Note_on_c, 3, 39, 100
5, 49919, Note_on_c, 3, 39, 0
5, 49920, Note_on_c, 3, 39, 100
5, 50039, Note_on_c, 3, 39, 0
5, 50040, Note_on_c, 3, 46, 100
5, 50159, Note_on_c, 3, 46, 0
5, 50160, Note_on_c, 3, 46, 100
5, 50279, Note_on_c, 3, 46, 0
5, 50280, Note_on_c, 3, 43, 100
5, 50339, Note_on_c, 3, 43, 0
5, 50340, Note_on_c, 3, 41, 100
5, 50399, Note_on_c, 3, 41, 0
5, 50400, Note_on_c, 3, 46, 100
5, 50579, Note_on_c, 3, 46, 0
5, 50580, Note_on_c, 3, 46, 100
5, 50699, Note_on_c, 3, 46, 0
5, 50700, Note_on_c, 3, 46, 100
5, 50759, Note_on_c, 3, 46, 0
5, 50760, Note_on_c, 3, 46, 100
5, 50819, Note_on_c, 3, 46, 0
5, 50820, Note_on_c, 3, 46, 100
5, 50879, Note_on_c, 3, 46, 0
5, 50880, Note_on_c, 3, 46, 100
5, 50999, Note_on_c, 3, 46, 0
5, 51000, Note_on_c, 3, 46, 100
5, 51119, Note_on_c, 3, 46, 0
5, 51120, Note_on_c, 3, 46, 100
5, 51239, Note_on_c, 3, 46, 0
5, 51240, Note_on_c, 3, 46, 100
5, 51299, Note_on_c, 3, 46, 0
5, 51300, Note_on_c, 3, 45, 100
5, 51359, Note_on_c, 3, 45, 0
5, 51360, Note_on_c, 3, 43, 100
5, 51539, Note_on_c, 3, 43, 0
5, 51540, Note_on_c, 3, 43, 100
5, 51659, Note_on_c, 3, 43, 0
5, 51660, Note_on_c, 3, 43, 100
5, 51719, Note_on_c, 3, 43, 0
5, 51720, Note_on_c, 3, 43, 100
5, 51779, Note_on_c, 3, 43, 0
5, 51780, Note_on_c, 3, 43, 100
5, 51839, Note_on_c, 3, 43, 0
5, 51840, Note_on_c, 3, 43, 100
5, 51959, Note_on_c, 3, 43, 0
5, 51960, Note_on_c, 3, 43, 100
5, 52079, Note_on_c, 3, 43, 0
5, 52080, Note_on_c, 3, 43, 100
5, 52199, Note_on_c, 3, 43, 0
5, 52200, Note_on_c, 3, 43, 100
5, 52259, Note_on_c, 3, 43, 0
5, 52260, Note_on_c, 3, 46, 100
5, 52319, Note_on_c, 3, 46, 0
5, 52320, Note_on_c, 3, 41, 100
5, 52499, Note_on_c, 3, 41, 0
5, 52500, Note_on_c, 3, 41, 100
5, 52619, Note_on_c, 3, 41, 0
5, 52620, Note_on_c, 3, 41, 100
5, 52679, Note_on_c, 3, 41, 0
5, 52680, Note_on_c, 3, 41, 100
5, 52739, Note_on_c, 3, 41, 0
5, 52740, Note_on_c, 3, 41, 100
5, 52799, Note_on_c, 3, 41, 0
5, 52800, Note_on_c, 3, 41, 100
5, 52919, Note_on_c, 3, 41, 0
5, 52920, Note_on_c, 3, 41, 100
5, 53039, Note_on_c, 3, 41, 0
5, 53040, Note_on_c, 3, 41, 100
5, 53279, Note_on_c, 3, 41, 0
5, 53280, Note_on_c, 3, 36, 100
5, 53459, Note_on_c, 3, 36, 0
5, 53460, Note_on_c, 3, 36, 100
5, 53579, Note_on_c, 3, 36, 0
5, 53580, Note_on_c, 3, 36, 100
5, 53639, Note_on_c, 3, 36, 0
5, 53640, Note_on_c, 3, 36, 100
5, 53699, Note_on_c, 3, 36, 0
5, 53700, Note_on_c, 3, 36, 100
5, 53759, Note_on_c, 3, 36, 0
5, 53760, Note_on_c, 3, 39, 100
5, 53879, Note_on_c, 3, 39, 0
5, 53880, Note_on_c, 3, 39, 100
5, 53999, Note_on_c, 3, 39, 0
5, 54000, Note_on_c, 3, 39, 100
5, 54059, Note_on_c, 3, 39, 0
5, 54060, Note_on_c, 3, 38, 100
5, 54119, Note_on_c, 3, 38, 0
5, 54120, Note_on_c, 3, 39, 100
5, 54179, Note_on_c, 3, 39, 0
5, 54180, Note_on_c, 3, 41, 100
5, 54239, Note_on_c, 3, 41, 0
5, 54240, Note_on_c, 3, 43, 100
5, 54419, Note_on_c, 3, 43, 0
5, 54420, Note_on_c, 3, 43, 100
5, 54539, Note_on_c, 3, 43, 0
5, 54540, Note_on_c, 3, 43, 100
5, 54599, Note_on_c, 3, 43, 0
5, 54600, Note_on_c, 3, 36, 100
5, 54659, Note_on_c, 3, 36, 0
5, 54660, Note_on_c, 3, 37, 100
5, 54719, Note_on_c, 3, 37, 0
5, 54720, Note_on_c, 3, 38, 100
5, 54899, Note_on_c, 3, 38, 0
5, 54900, Note_on_c, 3, 38, 100
5, 55019, Note_on_c, 3, 38, 0
5, 55020, Note_on_c, 3, 38, 100
5, 55079, Note_on_c, 3, 38, 0
5, 55080, Note_on_c, 3, 39, 100
5, 55139, Note_on_c, 3, 39, 0
5, 55140, Note_on_c, 3, 38, 100
5, 55199, Note_on_c, 3, 38, 0
5, 55200, Note_on_c, 3, 36, 100
5, 55379, Note_on_c, 3, 36, 0
5, 55380, Note_on_c, 3, 36, 100
5, 55499, Note_on_c, 3, 36, 0
5, 55500, Note_on_c, 3, 36, 100
5, 55619, Note_on_c, 3, 36, 0
5, 55620, Note_on_c, 3, 36, 100
5, 55679, Note_on_c, 3, 36, 0
5, 55680, Note_on_c, 3, 36, 100
5, 55859, Note_on_c, 3, 36, 0
5, 55860, Note_on_c, 3, 36, 100
5, 55979, Note_on_c, 3, 36, 0
5, 55980, Note_on_c, 3, 36, 100
5, 56099, Note_on_c, 3, 36, 0
5, 56100, Note_on_c, 3, 38, 100
5, 56159, Note_on_c, 3, 38, 0
5, 56160, Note_on_c, 3, 39, 100
5, 56339, Note_on_c, 3, 39, 0
5, 56340, Note_on_c, 3, 39, 100
5, 56459, Note_on_c, 3, 39, 0
5, 56460, Note_on_c, 3, 39, 100
5, 56579, Note_on_c, 3, 39, 0
5, 56580, Note_on_c, 3, 39, 100
5, 56639, Note_on_c, 3, 39, 0
5, 56640, Note_on_c, 3, 39, 100
5, 56819, Note_on_c, 3, 39, 0
5, 56820, Note_on_c, 3, 39, 100
5, 56939, Note_on_c, 3, 39, 0
5, 56940, Note_on_c, 3, 39, 100
5, 57059, Note_on_c, 3, 39, 0
5, 57060, Note_on_c, 3, 39, 100
5, 57119, Note_on_c, 3, 39, 0
5, 57120, Note_on_c, 3, 46, 100
5, 57299, Note_on_c, 3, 46, 0
5, 57300, Note_on_c, 3, 46, 100
5, 57419, Note_on_c, 3, 46, 0
5, 57420, Note_on_c, 3, 46, 100
5, 57539, Note_on_c, 3, 46, 0
5, 57540, Note_on_c, 3, 41, 100
5, 57599, Note_on_c, 3, 41, 0
5, 57600, Note_on_c, 3, 46, 100
5, 57719, Note_on_c, 3, 46, 0
5, 57720, Note_on_c, 3, 46, 100
5, 57839, Note_on_c, 3, 46, 0
5, 57840, Note_on_c, 3, 45, 100
5, 57959, Note_on_c, 3, 45, 0
5, 57960, Note_on_c, 3, 45, 100
5, 58079, Note_on_c, 3, 45, 0
5, 58080, Note_on_c, 3, 43, 100
5, 58259, Note_on_c, 3, 43, 0
5, 58260, Note_on_c, 3, 43, 100
5, 58379, Note_on_c, 3, 43, 0
5, 58380, Note_on_c, 3, 43, 100
5, 58439, Note_on_c, 3, 43, 0
5, 58440, Note_on_c, 3, 36, 100
5, 58499, Note_on_c, 3, 36, 0
5, 58500, Note_on_c, 3, 37, 100
5, 58559, Note_on_c, 3, 37, 0
5, 58560, Note_on_c, 3, 38, 100
5, 58739, Note_on_c, 3, 38, 0
5, 58740, Note_on_c, 3, 38, 100
5, 58859, Note_on_c, 3, 38, 0
5, 58860, Note_on_c, 3, 38, 100
5, 58919, Note_on_c, 3, 38, 0
5, 58920, Note_on_c, 3, 38, 100
5, 58979, Note_on_c, 3, 38, 0
5, 58980, Note_on_c, 3, 36, 100
5, 59039, Note_on_c, 3, 36, 0
5, 59040, Note_on_c, 3, 36, 100
5, 59219, Note_on_c, 3, 36, 0
5, 59220, Note_on_c, 3, 36, 100
5, 59339, Note_on_c, 3, 36, 0
5, 59340, Note_on_c, 3, 36, 100
5, 59459, Note_on_c, 3, 36, 0
5, 59460, Note_on_c, 3, 36, 100
5, 59519, Note_on_c, 3, 36, 0
5, 59520, Note_on_c, 3, 36, 100
5, 59699, Note_on_c, 3, 36, 0
5, 59700, Note_on_c, 3, 36, 100
5, 59819, Note_on_c, 3, 36, 0
5, 59820, Note_on_c, 3, 36, 100
5, 59939, Note_on_c, 3, 36, 0
5, 59940, Note_on_c, 3, 38, 100
5, 59999, Note_on_c, 3, 38, 0
5, 60000, Note_on_c, 3, 39, 100
5, 60179, Note_on_c, 3, 39, 0
5, 60180, Note_on_c, 3, 39, 100
5, 60299, Note_on_c, 3, 39, 0
5, 60300, Note_on_c, 3, 39, 100
5, 60419, Note_on_c, 3, 39, 0
5, 60420, Note_on_c, 3, 39, 100
5, 60479, Note_on_c, 3, 39, 0
5, 60480, Note_on_c, 3, 39, 100
5, 60539, Note_on_c, 3, 39, 0
5, 60540, Note_on_c, 3, 39, 100
5, 60599, Note_on_c, 3, 39, 0
5, 60600, Note_on_c, 3, 46, 100
5, 60659, Note_on_c, 3, 46, 0
5, 60660, Note_on_c, 3, 39, 100
5, 60719, Note_on_c, 3, 39, 0
5, 60720, Note_on_c, 3, 39, 100
5, 60839, Note_on_c, 3, 39, 0
5, 60840, Note_on_c, 3, 39, 100
5, 60959, Note_on_c, 3, 39, 0
5, 60960, Note_on_c, 3, 39, 100
5, 61019, Note_on_c, 3, 39, 0
5, 61020, Note_on_c, 3, 39, 100
5, 61079, Note_on_c, 3, 39, 0
5, 61080, Note_on_c, 3, 39, 100
5, 61139, Note_on_c, 3, 39, 0
5, 61140, Note_on_c, 3, 39, 100
5, 61199, Note_on_c, 3, 39, 0
5, 61200, Note_on_c, 3, 39, 100
5, 61319, Note_on_c, 3, 39, 0
5, 61320, Note_on_c, 3, 39, 100
5, 61439, Note_on_c, 3, 39, 0
5, 61440, Note_on_c, 3, 39, 100
5, 61499, Note_on_c, 3, 39, 0
5, 61500, Note_on_c, 3, 39, 100
5, 61559, Note_on_c, 3, 39, 0
5, 61560, Note_on_c, 3, 41, 100
5, 61619, Note_on_c, 3, 41, 0
5, 61620, Note_on_c, 3, 43, 100
5, 61679, Note_on_c, 3, 43, 0
5, 61680, Note_on_c, 3, 46, 100
5, 61739, Note_on_c, 3, 46, 0
5, 61740, Note_on_c, 3, 43, 100
5, 61799, Note_on_c, 3, 43, 0
5, 61800, Note_on_c, 3, 41, 100
5, 61859, Note_on_c, 3, 41, 0
5, 61860, Note_on_c, 3, 43, 100
5, 61919, Note_on_c, 3, 43, 0
5, 61920, Note_on_c, 3, 46, 100
5, 62099, Note_on_c, 3, 46, 0
5, 62100, Note_on_c, 3, 46, 100
5, 62219, Note_on_c, 3, 46, 0
5, 62220, Note_on_c, 3, 46, 100
5, 62279, Note_on_c, 3, 46, 0
5, 62280, Note_on_c, 3, 46, 100
5, 62339, Note_on_c, 3, 46, 0
5, 62340, Note_on_c, 3, 46, 100
5, 62399, Note_on_c, 3, 46, 0
5, 62400, Note_on_c, 3, 46, 100
5, 62519, Note_on_c, 3, 46, 0
5, 62520, Note_on_c, 3, 46, 100
5, 62639, Note_on_c, 3, 46, 0
5, 62640, Note_on_c, 3, 46, 100
5, 62759, Note_on_c, 3, 46, 0
5, 62760, Note_on_c, 3, 43, 100
5, 62819, Note_on_c, 3, 43, 0
5, 62820, Note_on_c, 3, 41, 100
5, 62879, Note_on_c, 3, 41, 0
5, 62880, Note_on_c, 3, 46, 100
5, 63059, Note_on_c, 3, 46, 0
5, 63060, Note_on_c, 3, 46, 100
5, 63179, Note_on_c, 3, 46, 0
5, 63180, Note_on_c, 3, 46, 100
5, 63239, Note_on_c, 3, 46, 0
5, 63240, Note_on_c, 3, 46, 100
5, 63299, Note_on_c, 3, 46, 0
5, 63300, Note_on_c, 3, 46, 100
5, 63359, Note_on_c, 3, 46, 0
5, 63360, Note_on_c, 3, 46, 100
5, 63479, Note_on_c, 3, 46, 0
5, 63480, Note_on_c, 3, 46, 100
5, 63599, Note_on_c, 3, 46, 0
5, 63600, Note_on_c, 3, 46, 100
5, 63719, Note_on_c, 3, 46, 0
5, 63720, Note_on_c, 3, 43, 100
5, 63779, Note_on_c, 3, 43, 0
5, 63780, Note_on_c, 3, 41, 100
5, 63839, Note_on_c, 3, 41, 0
5, 63840, Note_on_c, 3, 46, 100
5, 64019, Note_on_c, 3, 46, 0
5, 64020, Note_on_c, 3, 46, 100
5, 64139, Note_on_c, 3, 46, 0
5, 64140, Note_on_c, 3, 46, 100
5, 64199, Note_on_c, 3, 46, 0
5, 64200, Note_on_c, 3, 46, 100
5, 64259, Note_on_c, 3, 46, 0
5, 64260, Note_on_c, 3, 46, 100
5, 64319, Note_on_c, 3, 46, 0
5, 64320, Note_on_c, 3, 46, 100
5, 64439, Note_on_c, 3, 46, 0
5, 64440, Note_on_c, 3, 46, 100
5, 64559, Note_on_c, 3, 46, 0
5, 64560, Note_on_c, 3, 46, 100
5, 64679, Note_on_c, 3, 46, 0
5, 64680, Note_on_c, 3, 43, 100
5, 64739, Note_on_c, 3, 43, 0
5, 64740, Note_on_c, 3, 41, 100
5, 64799, Note_on_c, 3, 41, 0
5, 64800, Note_on_c, 3, 46, 100
5, 64979, Note_on_c, 3, 46, 0
5, 64980, Note_on_c, 3, 46, 100
5, 65099, Note_on_c, 3, 46, 0
5, 65100, Note_on_c, 3, 46, 100
5, 65159, Note_on_c, 3, 46, 0
5, 65160, Note_on_c, 3, 46, 100
5, 65219, Note_on_c, 3, 46, 0
5, 65220, Note_on_c, 3, 39, 100
5, 65279, Note_on_c, 3, 39, 0
5, 65280, Note_on_c, 3, 39, 100
5, 65399, Note_on_c, 3, 39, 0
5, 65400, Note_on_c, 3, 46, 100
5, 65519, Note_on_c, 3, 46, 0
5, 65520, Note_on_c, 3, 46, 100
5, 65639, Note_on_c, 3, 46, 0
5, 65640, Note_on_c, 3, 43, 100
5, 65699, Note_on_c, 3, 43, 0
5, 65700, Note_on_c, 3, 41, 100
5, 65759, Note_on_c, 3, 41, 0
5, 65760, Note_on_c, 3, 46, 100
5, 65939, Note_on_c, 3, 46, 0
5, 65940, Note_on_c, 3, 46, 100
5, 66059, Note_on_c, 3, 46, 0
5, 66060, Note_on_c, 3, 46, 100
5, 66119, Note_on_c, 3, 46, 0
5, 66120, Note_on_c, 3, 46, 100
5, 66179, Note_on_c, 3, 46, 0
5, 66180, Note_on_c, 3, 46, 100
5, 66239, Note_on_c, 3, 46, 0
5, 66240, Note_on_c, 3, 46, 100
5, 66359, Note_on_c, 3, 46, 0
5, 66360, Note_on_c, 3, 46, 100
5, 66479, Note_on_c, 3, 46, 0
5, 66480, Note_on_c, 3, 46, 100
5, 66599, Note_on_c, 3, 46, 0
5, 66600, Note_on_c, 3, 43, 100
5, 66659, Note_on_c, 3, 43, 0
5, 66660, Note_on_c, 3, 41, 100
5, 66719, Note_on_c, 3, 41, 0
5, 66720, Note_on_c, 3, 46, 100
5, 66899, Note_on_c, 3, 46, 0
5, 66900, Note_on_c, 3, 46, 100
5, 67019, Note_on_c, 3, 46, 0
5, 67020, Note_on_c, 3, 46, 100
5, 67079, Note_on_c, 3, 46, 0
5, 67080, Note_on_c, 3, 46, 100
5, 67139, Note_on_c, 3, 46, 0
5, 67140, Note_on_c, 3, 46, 100
5, 67199, Note_on_c, 3, 46, 0
5, 67200, Note_on_c, 3, 46, 100
5, 67319, Note_on_c, 3, 46, 0
5, 67320, Note_on_c, 3, 46, 100
5, 67439, Note_on_c, 3, 46, 0
5, 67440, Note_on_c, 3, 46, 100
5, 67559, Note_on_c, 3, 46, 0
5, 67560, Note_on_c, 3, 43, 100
5, 67619, Note_on_c, 3, 43, 0
5, 67620, Note_on_c, 3, 41, 100
5, 67679, Note_on_c, 3, 41, 0
5, 67680, Note_on_c, 3, 46, 100
5, 67859, Note_on_c, 3, 46, 0
5, 67860, Note_on_c, 3, 46, 100
5, 67979, Note_on_c, 3, 46, 0
5, 67980, Note_on_c, 3, 46, 100
5, 68039, Note_on_c, 3, 46, 0
5, 68040, Note_on_c, 3, 46, 100
5, 68099, Note_on_c, 3, 46, 0
5, 68100, Note_on_c, 3, 46, 100
5, 68159, Note_on_c, 3, 46, 0
5, 68160, Note_on_c, 3, 46, 100
5, 68279, Note_on_c, 3, 46, 0
5, 68280, Note_on_c, 3, 46, 100
5, 68399, Note_on_c, 3, 46, 0
5, 68400, Note_on_c, 3, 46, 100
5, 68519, Note_on_c, 3, 46, 0
5, 68520, Note_on_c, 3, 43, 100
5, 68579, Note_on_c, 3, 43, 0
5, 68580, Note_on_c, 3, 41, 100
5, 68639, Note_on_c, 3, 41, 0
5, 68640, Note_on_c, 3, 46, 100
5, 68819, Note_on_c, 3, 46, 0
5, 68820, Note_on_c, 3, 46, 100
5, 68939, Note_on_c, 3, 46, 0
5, 68940, Note_on_c, 3, 46, 100
5, 68999, Note_on_c, 3, 46, 0
5, 69000, Note_on_c, 3, 46, 100
5, 69059, Note_on_c, 3, 46, 0
5, 69060, Note_on_c, 3, 39, 100
5, 69119, Note_on_c, 3, 39, 0
5, 69120, Note_on_c, 3, 39, 100
5, 69239, Note_on_c, 3, 39, 0
5, 69240, Note_on_c, 3, 46, 100
5, 69359, Note_on_c, 3, 46, 0
5, 69360, Note_on_c, 3, 46, 100
5, 69479, Note_on_c, 3, 46, 0
5, 69480, Note_on_c, 3, 43, 100
5, 69539, Note_on_c, 3, 43, 0
5, 69540, Note_on_c, 3, 41, 100
5, 69599, Note_on_c, 3, 41, 0
5, 69600, Note_on_c, 3, 46, 100
5, 69779, Note_on_c, 3, 46, 0
5, 69780, Note_on_c, 3, 46, 100
5, 69899, Note_on_c, 3, 46, 0
5, 69900, Note_on_c, 3, 46, 100
5, 69959, Note_on_c, 3, 46, 0
5, 69960, Note_on_c, 3, 46, 100
5, 70019, Note_on_c, 3, 46, 0
5, 70020, Note_on_c, 3, 46, 100
5, 70079, Note_on_c, 3, 46, 0
5, 70080, Note_on_c, 3, 46, 100
5, 70199, Note_on_c, 3, 46, 0
5, 70200, Note_on_c, 3, 46, 100
5, 70319, Note_on_c, 3, 46, 0
5, 70320, Note_on_c, 3, 46, 100
5, 70439, Note_on_c, 3, 46, 0
5, 70440, Note_on_c, 3, 46, 100
5, 70499, Note_on_c, 3, 46, 0
5, 70500, Note_on_c, 3, 45, 100
5, 70559, Note_on_c, 3, 45, 0
5, 70560, Note_on_c, 3, 43, 100
5, 70739, Note_on_c, 3, 43, 0
5, 70740, Note_on_c, 3, 43, 100
5, 70859, Note_on_c, 3, 43, 0
5, 70860, Note_on_c, 3, 43, 100
5, 70919, Note_on_c, 3, 43, 0
5, 70920, Note_on_c, 3, 43, 100
5, 70979, Note_on_c, 3, 43, 0
5, 70980, Note_on_c, 3, 43, 100
5, 71039, Note_on_c, 3, 43, 0
5, 71040, Note_on_c, 3, 43, 100
5, 71159, Note_on_c, 3, 43, 0
5, 71160, Note_on_c, 3, 43, 100
5, 71279, Note_on_c, 3, 43, 0
5, 71280, Note_on_c, 3, 43, 100
5, 71399, Note_on_c, 3, 43, 0
5, 71400, Note_on_c, 3, 43, 100
5, 71459, Note_on_c, 3, 43, 0
5, 71460, Note_on_c, 3, 46, 100
5, 71519, Note_on_c, 3, 46, 0
5, 71520, Note_on_c, 3, 41, 100
5, 71699, Note_on_c, 3, 41, 0
5, 71700, Note_on_c, 3, 41, 100
5, 71819, Note_on_c, 3, 41, 0
5, 71820, Note_on_c, 3, 41, 100
5, 71879, Note_on_c, 3, 41, 0
5, 71880, Note_on_c, 3, 41, 100
5, 71939, Note_on_c, 3, 41, 0
5, 71940, Note_on_c, 3, 41, 100
5, 71999, Note_on_c, 3, 41, 0
5, 72000, Note_on_c, 3, 41, 100
5, 72119, Note_on_c, 3, 41, 0
5, 72120, Note_on_c, 3, 41, 100
5, 72239, Note_on_c, 3, 41, 0
5, 72240, Note_on_c, 3, 41, 100
5, 72479, Note_on_c, 3, 41, 0
5, 72480, Note_on_c, 3, 36, 100
5, 72659, Note_on_c, 3, 36, 0
5, 72660, Note_on_c, 3, 36, 100
5, 72779, Note_on_c, 3, 36, 0
5, 72780, Note_on_c, 3, 36, 100
5, 72839, Note_on_c, 3, 36, 0
5, 72840, Note_on_c, 3, 36, 100
5, 72899, Note_on_c, 3, 36, 0
5, 72900, Note_on_c, 3, 36, 100
5, 72959, Note_on_c, 3, 36, 0
5, 72960, Note_on_c, 3, 39, 100
5, 73079, Note_on_c, 3, 39, 0
5, 73080, Note_on_c, 3, 39, 100
5, 73199, Note_on_c, 3, 39, 0
5, 73200, Note_on_c, 3, 39, 100
5, 73259, Note_on_c, 3, 39, 0
5, 73260, Note_on_c, 3, 38, 100
5, 73319, Note_on_c, 3, 38, 0
5, 73320, Note_on_c, 3, 39, 100
5, 73379, Note_on_c, 3, 39, 0
5, 73380, Note_on_c, 3, 41, 100
5, 73439, Note_on_c, 3, 41, 0
5, 73440, Note_on_c, 3, 46, 100
5, 73619, Note_on_c, 3, 46, 0
5, 73620, Note_on_c, 3, 46, 100
5, 73739, Note_on_c, 3, 46, 0
5, 73740, Note_on_c, 3, 46, 100
5, 73799, Note_on_c, 3, 46, 0
5, 73800, Note_on_c, 3, 46, 100
5, 73859, Note_on_c, 3, 46, 0
5, 73860, Note_on_c, 3, 46, 100
5, 73919, Note_on_c, 3, 46, 0
5, 73920, Note_on_c, 3, 46, 100
5, 74039, Note_on_c, 3, 46, 0
5, 74040, Note_on_c, 3, 46, 100
5, 74159, Note_on_c, 3, 46, 0
5, 74160, Note_on_c, 3, 46, 100
5, 74279, Note_on_c, 3, 46, 0
5, 74280, Note_on_c, 3, 46, 100
5, 74339, Note_on_c, 3, 46, 0
5, 74340, Note_on_c, 3, 45, 100
5, 74399, Note_on_c, 3, 45, 0
5, 74400, Note_on_c, 3, 43, 100
5, 74579, Note_on_c, 3, 43, 0
5, 74580, Note_on_c, 3, 43, 100
5, 74699, Note_on_c, 3, 43, 0
5, 74700, Note_on_c, 3, 43, 100
5, 74759, Note_on_c, 3, 43, 0
5, 74760, Note_on_c, 3, 43, 100
5, 74819, Note_on_c, 3, 43, 0
5, 74820, Note_on_c, 3, 43, 100
5, 74879, Note_on_c, 3, 43, 0
5, 74880, Note_on_c, 3, 43, 100
5, 74999, Note_on_c, 3, 43, 0
5, 75000, Note_on_c, 3, 43, 100
5, 75119, Note_on_c, 3, 43, 0
5, 75120, Note_on_c, 3, 43, 100
5, 75239, Note_on_c, 3, 43, 0
5, 75240, Note_on_c, 3, 43, 100
5, 75299, Note_on_c, 3, 43, 0
5, 75300, Note_on_c, 3, 46, 100
5, 75359, Note_on_c, 3, 46, 0
5, 75360, Note_on_c, 3, 41, 100
5, 75539, Note_on_c, 3, 41, 0
5, 75540, Note_on_c, 3, 41, 100
5, 75659, Note_on_c, 3, 41, 0
5, 75660, Note_on_c, 3, 41, 100
5, 75719, Note_on_c, 3, 41, 0
5, 75720, Note_on_c, 3, 41, 100
5, 75779, Note_on_c, 3, 41, 0
5, 75780, Note_on_c, 3, 41, 100
5, 75839, Note_on_c, 3, 41, 0
5, 75840, Note_on_c, 3, 41, 100
5, 75959, Note_on_c, 3, 41, 0
5, 75960, Note_on_c, 3, 41, 100
5, 76079, Note_on_c, 3, 41, 0
5, 76080, Note_on_c, 3, 41, 100
5, 76319, Note_on_c, 3, 41, 0
5, 76320, Note_on_c, 3, 36, 100
5, 76499, Note_on_c, 3, 36, 0
5, 76500, Note_on_c, 3, 36, 100
5, 76619, Note_on_c, 3, 36, 0
5, 76620, Note_on_c, 3, 36, 100
5, 76679, Note_on_c, 3, 36, 0
5, 76680, Note_on_c, 3, 36, 100
5, 76739, Note_on_c, 3, 36, 0
5, 76740, Note_on_c, 3, 36, 100
5, 76799, Note_on_c, 3, 36, 0
5, 76800, Note_on_c, 3, 39, 100
5, 76919, Note_on_c, 3, 39, 0
5, 76920, Note_on_c, 3, 39, 100
5, 77039, Note_on_c, 3, 39, 0
5, 77040, Note_on_c, 3, 39, 100
5, 77099, Note_on_c, 3, 39, 0
5, 77100, Note_on_c, 3, 38, 100
5, 77159, Note_on_c, 3, 38, 0
5, 77160, Note_on_c, 3, 39, 100
5, 77219, Note_on_c, 3, 39, 0
5, 77220, Note_on_c, 3, 41, 100
5, 77279, Note_on_c, 3, 41, 0
5, 77280, Note_on_c, 3, 46, 100
5, 77459, Note_on_c, 3, 46, 0
5, 77460, Note_on_c, 3, 46, 100
5, 77579, Note_on_c, 3, 46, 0
5, 77580, Note_on_c, 3, 46, 100
5, 77639, Note_on_c, 3, 46, 0
5, 77640, Note_on_c, 3, 46, 100
5, 77699, Note_on_c, 3, 46, 0
5, 77700, Note_on_c, 3, 46, 100
5, 77759, Note_on_c, 3, 46, 0
5, 77760, Note_on_c, 3, 46, 100
5, 77879, Note_on_c, 3, 46, 0
5, 77880, Note_on_c, 3, 46, 100
5, 77999, Note_on_c, 3, 46, 0
5, 78000, Note_on_c, 3, 46, 100
5, 78119, Note_on_c, 3, 46, 0
5, 78120, Note_on_c, 3, 46, 100
5, 78179, Note_on_c, 3, 46, 0
5, 78180, Note_on_c, 3, 45, 100
5, 78239, Note_on_c, 3, 45, 0
5, 78240, Note_on_c, 3, 43, 100
5, 78419, Note_on_c, 3, 43, 0
5, 78420, Note_on_c, 3, 43, 100
5, 78539, Note_on_c, 3, 43, 0
5, 78540, Note_on_c, 3, 43, 100
5, 78599, Note_on_c, 3, 43, 0
5, 78600, Note_on_c, 3, 43, 100
5, 78659, Note_on_c, 3, 43, 0
5, 78660, Note_on_c, 3, 43, 100
5, 78719, Note_on_c, 3, 43, 0
5, 78720, Note_on_c, 3, 43, 100
5, 78839, Note_on_c, 3, 43, 0
5, 78840, Note_on_c, 3, 43, 100
5, 78959, Note_on_c, 3, 43, 0
5, 78960, Note_on_c, 3, 43, 100
5, 79079, Note_on_c, 3, 43, 0
5, 79080, Note_on_c, 3, 43, 100
5, 79139, Note_on_c, 3, 43, 0
5, 79140, Note_on_c, 3, 46, 100
5, 79199, Note_on_c, 3, 46, 0
5, 79200, Note_on_c, 3, 41, 100
5, 79379, Note_on_c, 3, 41, 0
5, 79380, Note_on_c, 3, 41, 100
5, 79499, Note_on_c, 3, 41, 0
5, 79500, Note_on_c, 3, 41, 100
5, 79559, Note_on_c, 3, 41, 0
5, 79560, Note_on_c, 3, 41, 100
5, 79619, Note_on_c, 3, 41, 0
5, 79620, Note_on_c, 3, 41, 100
5, 79679, Note_on_c, 3, 41, 0
5, 79680, Note_on_c, 3, 41, 100
5, 79799, Note_on_c, 3, 41, 0
5, 79800, Note_on_c, 3, 41, 100
5, 79919, Note_on_c, 3, 41, 0
5, 79920, Note_on_c, 3, 41, 100
5, 80159, Note_on_c, 3, 41, 0
5, 80160, Note_on_c, 3, 36, 100
5, 80339, Note_on_c, 3, 36, 0
5, 80340, Note_on_c, 3, 36, 100
5, 80459, Note_on_c, 3, 36, 0
5, 80460, Note_on_c, 3, 36, 100
5, 80519, Note_on_c, 3, 36, 0
5, 80520, Note_on_c, 3, 36, 100
5, 80579, Note_on_c, 3, 36, 0
5, 80580, Note_on_c, 3, 36, 100
5, 80639, Note_on_c, 3, 36, 0
5, 80640, Note_on_c, 3, 39, 100
5, 80759, Note_on_c, 3, 39, 0
5, 80760, Note_on_c, 3, 39, 100
5, 80879, Note_on_c, 3, 39, 0
5, 80880, Note_on_c, 3, 39, 100
5, 80939, Note_on_c, 3, 39, 0
5, 80940, Note_on_c, 3, 38, 100
5, 80999, Note_on_c, 3, 38, 0
5, 81000, Note_on_c, 3, 39, 100
5, 81059, Note_on_c, 3, 39, 0
5, 81060, Note_on_c, 3, 41, 100
5, 81119, Note_on_c, 3, 41, 0
5, 81120, Note_on_c, 3, 46, 100
5, 81299, Note_on_c, 3, 46, 0
5, 81300, Note_on_c, 3, 46, 100
5, 81419, Note_on_c, 3, 46, 0
5, 81420, Note_on_c, 3, 46, 100
5, 81479, Note_on_c, 3, 46, 0
5, 81480, Note_on_c, 3, 46, 100
5, 81539, Note_on_c, 3, 46, 0
5, 81540, Note_on_c, 3, 46, 100
5, 81599, Note_on_c, 3, 46, 0
5, 81600, Note_on_c, 3, 46, 100
5, 81719, Note_on_c, 3, 46, 0
5, 81720, Note_on_c, 3, 46, 100
5, 81839, Note_on_c, 3, 46, 0
5, 81840, Note_on_c, 3, 46, 100
5, 81959, Note_on_c, 3, 46, 0
5, 81960, Note_on_c, 3, 46, 100
5, 82019, Note_on_c, 3, 46, 0
5, 82020, Note_on_c, 3, 45, 100
5, 82079, Note_on_c, 3, 45, 0
5, 82080, Note_on_c, 3, 43, 100
5, 82259, Note_on_c, 3, 43, 0
5, 82260, Note_on_c, 3, 43, 100
5, 82379, Note_on_c, 3, 43, 0
5, 82380, Note_on_c, 3, 43, 100
5, 82439, Note_on_c, 3, 43, 0
5, 82440, Note_on_c, 3, 43, 100
5, 82499, Note_on_c, 3, 43, 0
5, 82500, Note_on_c, 3, 43, 100
5, 82559, Note_on_c, 3, 43, 0
5, 82560, Note_on_c, 3, 43, 100
5, 82679, Note_on_c, 3, 43, 0
5, 82680, Note_on_c, 3, 43, 100
5, 82799, Note_on_c, 3, 43, 0
5, 82800, Note_on_c, 3, 43, 100
5, 82919, Note_on_c, 3, 43, 0
5, 82920, Note_on_c, 3, 43, 100
5, 82979, Note_on_c, 3, 43, 0
5, 82980, Note_on_c, 3, 46, 100
5, 83039, Note_on_c, 3, 46, 0
5, 83040, Note_on_c, 3, 41, 100
5, 83219, Note_on_c, 3, 41, 0
5, 83220, Note_on_c, 3, 41, 100
5, 83339, Note_on_c, 3, 41, 0
5, 83340, Note_on_c, 3, 41, 100
5, 83399, Note_on_c, 3, 41, 0
5, 83400, Note_on_c, 3, 41, 100
5, 83459, Note_on_c, 3, 41, 0
5, 83460, Note_on_c, 3, 41, 100
5, 83519, Note_on_c, 3, 41, 0
5, 83520, Note_on_c, 3, 41, 100
5, 83639, Note_on_c, 3, 41, 0
5, 83640, Note_on_c, 3, 41, 100
5, 83759, Note_on_c, 3, 41, 0
5, 83760, Note_on_c, 3, 41, 100
5, 83999, Note_on_c, 3, 41, 0
5, 84000, Note_on_c, 3, 36, 100
5, 84179, Note_on_c, 3, 36, 0
5, 84180, Note_on_c, 3, 36, 100
5, 84299, Note_on_c, 3, 36, 0
5, 84300, Note_on_c, 3, 36, 100
5, 84359, Note_on_c, 3, 36, 0
5, 84360, Note_on_c, 3, 36, 100
5, 84419, Note_on_c, 3, 36, 0
5, 84420, Note_on_c, 3, 36, 100
5, 84479, Note_on_c, 3, 36, 0
5, 84480, Note_on_c, 3, 39, 100
5, 84599, Note_on_c, 3, 39, 0
5, 84600, Note_on_c, 3, 39, 100
5, 84719, Note_on_c, 3, 39, 0
5, 84720, Note_on_c, 3, 39, 100
5, 84779, Note_on_c, 3, 39, 0
5, 84780, Note_on_c, 3, 41, 100
5, 84839, Note_on_c, 3, 41, 0
5, 84840, Note_on_c, 3, 42, 100
5, 84899, Note_on_c, 3, 42, 0
5, 84900, Note_on_c, 3, 41, 100
5, 84959, Note_on_c, 3, 41, 0
5, 84960, Note_on_c, 3, 46, 100
5, 85139, Note_on_c, 3, 46, 0
5, 85140, Note_on_c, 3, 46, 100
5, 85259, Note_on_c, 3, 46, 0
5, 85260, Note_on_c, 3, 46, 100
5, 85319, Note_on_c, 3, 46, 0
5, 85320, Note_on_c, 3, 46, 100
5, 85379, Note_on_c, 3, 46, 0
5, 85380, Note_on_c, 3, 46, 100
5, 85439, Note_on_c, 3, 46, 0
5, 85440, Note_on_c, 3, 46, 100
5, 85559, Note_on_c, 3, 46, 0
5, 85560, Note_on_c, 3, 46, 100
5, 85679, Note_on_c, 3, 46, 0
5, 85680, Note_on_c, 3, 46, 100
5, 85799, Note_on_c, 3, 46, 0
5, 85800, Note_on_c, 3, 46, 100
5, 85859, Note_on_c, 3, 46, 0
5, 85860, Note_on_c, 3, 45, 100
5, 85919, Note_on_c, 3, 45, 0
5, 85920, Note_on_c, 3, 43, 100
5, 86099, Note_on_c, 3, 43, 0
5, 86100, Note_on_c, 3, 43, 100
5, 86219, Note_on_c, 3, 43, 0
5, 86220, Note_on_c, 3, 43, 100
5, 86279, Note_on_c, 3, 43, 0
5, 86280, Note_on_c, 3, 43, 100
5, 86339, Note_on_c, 3, 43, 0
5, 86340, Note_on_c, 3, 43, 100
5, 86399, Note_on_c, 3, 43, 0
5, 86400, Note_on_c, 3, 43, 100
5, 86519, Note_on_c, 3, 43, 0
5, 86520, Note_on_c, 3, 43, 100
5, 86639, Note_on_c, 3, 43, 0
5, 86640, Note_on_c, 3, 43, 100
5, 86759, Note_on_c, 3, 43, 0
5, 86760, Note_on_c, 3, 43, 100
5, 86819, Note_on_c, 3, 43, 0
5, 86820, Note_on_c, 3, 46, 100
5, 86879, Note_on_c, 3, 46, 0
5, 86880, Note_on_c, 3, 41, 100
5, 87059, Note_on_c, 3, 41, 0
5, 87060, Note_on_c, 3, 41, 100
5, 87179, Note_on_c, 3, 41, 0
5, 87180, Note_on_c, 3, 41, 100
5, 87239, Note_on_c, 3, 41, 0
5, 87240, Note_on_c, 3, 41, 100
5, 87299, Note_on_c, 3, 41, 0
5, 87300, Note_on_c, 3, 41, 100
5, 87359, Note_on_c, 3, 41, 0
5, 87360, Note_on_c, 3, 41, 100
5, 87479, Note_on_c, 3, 41, 0
5, 87480, Note_on_c, 3, 41, 100
5, 87599, Note_on_c, 3, 41, 0
5, 87600, Note_on_c, 3, 41, 100
5, 87839, Note_on_c, 3, 41, 0
5, 87840, Note_on_c, 3, 36, 100
5, 88019, Note_on_c, 3, 36, 0
5, 88020, Note_on_c, 3, 36, 100
5, 88139, Note_on_c, 3, 36, 0
5, 88140, Note_on_c, 3, 36, 100
5, 88199, Note_on_c, 3, 36, 0
5, 88200, Note_on_c, 3, 36, 100
5, 88259, Note_on_c, 3, 36, 0
5, 88260, Note_on_c, 3, 36, 100
5, 88319, Note_on_c, 3, 36, 0
5, 88320, Note_on_c, 3, 39, 100
5, 88439, Note_on_c, 3, 39, 0
5, 88440, Note_on_c, 3, 39, 100
5, 88559, Note_on_c, 3, 39, 0
5, 88560, Note_on_c, 3, 39, 100
5, 88619, Note_on_c, 3, 39, 0
5, 88620, Note_on_c, 3, 41, 100
5, 88679, Note_on_c, 3, 41, 0
5, 88680, Note_on_c, 3, 42, 100
5, 88739, Note_on_c, 3, 42, 0
5, 88740, Note_on_c, 3, 41, 100
5, 88799, Note_on_c, 3, 41, 0
5, 88800, Control_c, 3, 7, 100
5, 88800, Note_on_c, 3, 46, 100
5, 88838, Control_c, 3, 7, 99
5, 88876, Control_c, 3, 7, 98
5, 88915, Control_c, 3, 7, 97
5, 88953, Control_c, 3, 7, 96
5, 88979, Note_on_c, 3, 46, 0
5, 88980, Note_on_c, 3, 46, 100
5, 88991, Control_c, 3, 7, 95
5, 89030, Control_c, 3, 7, 94
5, 89068, Control_c, 3, 7, 93
5, 89099, Note_on_c, 3, 46, 0
5, 89100, Note_on_c, 3, 46, 100
5, 89107, Control_c, 3, 7, 92
5, 89145, Control_c, 3, 7, 91
5, 89159, Note_on_c, 3, 46, 0
5, 89160, Note_on_c, 3, 46, 100
5, 89183, Control_c, 3, 7, 90
5, 89219, Note_on_c, 3, 46, 0
5, 89220, Note_on_c, 3, 46, 100
5, 89222, Control_c, 3, 7, 89
5, 89260, Control_c, 3, 7, 88
5, 89279, Note_on_c, 3, 46, 0
5, 89280, Note_on_c, 3, 46, 100
5, 89299, Control_c, 3, 7, 87
5, 89337, Control_c, 3, 7, 86
5, 89375, Control_c, 3, 7, 85
5, 89399, Note_on_c, 3, 46, 0
5, 89400, Note_on_c, 3, 46, 100
5, 89414, Control_c, 3, 7, 84
5, 89452, Control_c, 3, 7, 83
5, 89491, Control_c, 3, 7, 82
5, 89519, Note_on_c, 3, 46, 0
5, 89520, Note_on_c, 3, 46, 100
5, 89529, Control_c, 3, 7, 81
5, 89567, Control_c, 3, 7, 80
5, 89606, Control_c, 3, 7, 79
5, 89639, Note_on_c, 3, 46, 0
5, 89640, Note_on_c, 3, 46, 100
5, 89644, Control_c, 3, 7, 78
5, 89682, Control_c, 3, 7, 77
5, 89699, Note_on_c, 3, 46, 0
5, 89700, Note_on_c, 3, 45, 100
5, 89721, Control_c, 3, 7, 76
5, 89759, Note_on_c, 3, 45, 0
5, 89759, Control_c, 3, 7, 75
5, 89760, Note_on_c, 3, 43, 100
5, 89798, Control_c, 3, 7, 74
5, 89836, Control_c, 3, 7, 73
5, 89874, Control_c, 3, 7, 72
5, 89913, Control_c, 3, 7, 71
5, 89939, Note_on_c, 3, 43, 0
5, 89940, Note_on_c, 3, 43, 100
5, 89951, Control_c, 3, 7, 70
5, 89990, Control_c, 3, 7, 69
5, 90028, Control_c, 3, 7, 68
5, 90059, Note_on_c, 3, 43, 0
5, 90060, Note_on_c, 3, 43, 100
5, 90066, Control_c, 3, 7, 67
5, 90105, Control_c, 3, 7, 66
5, 90119, Note_on_c, 3, 43, 0
5, 90120, Note_on_c, 3, 43, 100
5, 90143, Control_c, 3, 7, 65
5, 90179, Note_on_c, 3, 43, 0
5, 90180, Note_on_c, 3, 43, 100
5, 90182, Control_c, 3, 7, 64
5, 90220, Control_c, 3, 7, 63
5, 90239, Note_on_c, 3, 43, 0
5, 90240, Note_on_c, 3, 43, 100
5, 90258, Control_c, 3, 7, 62
5, 90297, Control_c, 3, 7, 61
5, 90335, Control_c, 3, 7, 60
5, 90359, Note_on_c, 3, 43, 0
5, 90360, Note_on_c, 3, 43, 100
5, 90373, Control_c, 3, 7, 59
5, 90412, Control_c, 3, 7, 58
5, 90450, Control_c, 3, 7, 57
5, 90479, Note_on_c, 3, 43, 0
5, 90480, Note_on_c, 3, 43, 100
5, 90489, Control_c, 3, 7, 56
5, 90527, Control_c, 3, 7, 55
5, 90565, Control_c, 3, 7, 54
5, 90599, Note_on_c, 3, 43, 0
5, 90600, Note_on_c, 3, 43, 100
5, 90604, Control_c, 3, 7, 53
5, 90642, Control_c, 3, 7, 52
5, 90659, Note_on_c, 3, 43, 0
5, 90660, Note_on_c, 3, 46, 100
5, 90681, Control_c, 3, 7, 51
5, 90719, Note_on_c, 3, 46, 0
5, 90719, Control_c, 3, 7, 50
5, 90720, Note_on_c, 3, 41, 100
5, 90757, Control_c, 3, 7, 49
5, 90796, Control_c, 3, 7, 48
5, 90834, Control_c, 3, 7, 47
5, 90873, Control_c, 3, 7, 46
5, 90899, Note_on_c, 3, 41, 0
5, 90900, Note_on_c, 3, 41, 100
5, 90911, Control_c, 3, 7, 45
5, 90949, Control_c, 3, 7, 44
5, 90988, Control_c, 3, 7, 43
5, 91019, Note_on_c, 3, 41, 0
5, 91020, Note_on_c, 3, 41, 100
5, 91026, Control_c, 3, 7, 42
5, 91065, Control_c, 3, 7, 41
5, 91079, Note_on_c, 3, 41, 0
5, 91080, Note_on_c, 3, 41, 100
5, 91103, Control_c, 3, 7, 40
5, 91139, Note_on_c, 3, 41, 0
5, 91140, Note_on_c, 3, 41, 100
5, 91141, Control_c, 3, 7, 39
5, 91180, Control_c, 3, 7, 38
5, 91199, Note_on_c, 3, 41, 0
5, 91200, Note_on_c, 3, 41, 100
5, 91218, Control_c, 3, 7, 37
5, 91256, Control_c, 3, 7, 36
5, 91295, Control_c, 3, 7, 35
5, 91319, Note_on_c, 3, 41, 0
5, 91320, Note_on_c, 3, 41, 100
5, 91333, Control_c, 3, 7, 34
5, 91372, Control_c, 3, 7, 33
5, 91410, Control_c, 3, 7, 32
5, 91439, Note_on_c, 3, 41, 0
5, 91440, Note_on_c, 3, 41, 100
5, 91448, Control_c, 3, 7, 31
5, 91487, Control_c, 3, 7, 30
5, 91525, Control_c, 3, 7, 29
5, 91564, Control_c, 3, 7, 28
5, 91602, Control_c, 3, 7, 27
5, 91640, Control_c, 3, 7, 26
5, 91679, Note_on_c, 3, 41, 0
5, 91679, Control_c, 3, 7, 25
5, 91680, Note_on_c, 3, 36, 100
5, 91717, Control_c, 3, 7, 24
5, 91756, Control_c, 3, 7, 23
5, 91794, Control_c, 3, 7, 22
5, 91832, Control_c, 3, 7, 21
5, 91859, Note_on_c, 3, 36, 0
5, 91860, Note_on_c, 3, 36, 100
5, 91871, Control_c, 3, 7, 20
5, 91909, Control_c, 3, 7, 19
5, 91947, Control_c, 3, 7, 18
5, 91979, Note_on_c, 3, 36, 0
5, 91980, Note_on_c, 3, 36, 100
5, 91986, Control_c, 3, 7, 17
5, 92024, Control_c, 3, 7, 16
5, 92039, Note_on_c, 3, 36, 0
5, 92040, Note_on_c, 3, 36, 100
5, 92063, Control_c, 3, 7, 15
5, 92099, Note_on_c, 3, 36, 0
5, 92100, Note_on_c, 3, 36, 100
5, 92101, Control_c, 3, 7, 14
5, 92139, Control_c, 3, 7, 13
5, 92159, Note_on_c, 3, 36, 0
5, 92160, Note_on_c, 3, 39, 100
5, 92178, Control_c, 3, 7, 12
5, 92216, Control_c, 3, 7, 11
5, 92255, Control_c, 3, 7, 10
5, 92279, Note_on_c, 3, 39, 0
5, 92280, Note_on_c, 3, 39, 100
5, 92293, Control_c, 3, 7, 9
5, 92331, Control_c, 3, 7, 8
5, 92370, Control_c, 3, 7, 7
5, 92399, Note_on_c, 3, 39, 0
5, 92400, Note_on_c, 3, 39, 100
5, 92408, Control_c, 3, 7, 6
5, 92447, Control_c, 3, 7, 5
5, 92459, Note_on_c, 3, 39, 0
5, 92460, Note_on_c, 3, 41, 100
5, 92485, Control_c, 3, 7, 4
5, 92519, Note_on_c, 3, 41, 0
5, 92520, Note_on_c, 3, 42, 100
5, 92523, Control_c, 3, 7, 3
5, 92562, Control_c, 3, 7, 2
5, 92579, Note_on_c, 3, 42, 0
5, 92580, Note_on_c, 3, 41, 100
5, 92600, Control_c, 3, 7, 1
5, 92639, Note_on_c, 3, 41, 0
5, 92639, Control_c, 3, 7, 0
5, 92639, End_track
6, 0, Start_track
6, 0, MIDI_port, 0
6, 0, Title_t, "Drums"
6, 0, Control_c, 9, 7, 120
6, 300, Note_on_c, 9, 38, 100
6, 314, Note_on_c, 9, 38, 0
6, 360, Note_on_c, 9, 38, 100
6, 374, Note_on_c, 9, 38, 0
6, 420, Note_on_c, 9, 38, 100
6, 434, Note_on_c, 9, 38, 0
6, 480, Note_on_c, 9, 42, 50
6, 480, Note_on_c, 9, 35, 100
6, 494, Note_on_c, 9, 35, 0
6, 494, Note_on_c, 9, 42, 0
6, 540, Note_on_c, 9, 42, 50
6, 554, Note_on_c, 9, 42, 0
6, 600, Note_on_c, 9, 42, 50
6, 600, Note_on_c, 9, 38, 100
6, 614, Note_on_c, 9, 38, 0
6, 614, Note_on_c, 9, 42, 0
6, 660, Note_on_c, 9, 42, 50
6, 660, Note_on_c, 9, 35, 100
6, 674, Note_on_c, 9, 35, 0
6, 674, Note_on_c, 9, 42, 0
6, 720, Note_on_c, 9, 42, 50
6, 734, Note_on_c, 9, 42, 0
6, 780, Note_on_c, 9, 42, 50
6, 780, Note_on_c, 9, 35, 100
6, 794, Note_on_c, 9, 35, 0
6, 794, Note_on_c, 9, 42, 0
6, 840, Note_on_c, 9, 43, 100
6, 840, Note_on_c, 9, 42, 50
6, 854, Note_on_c, 9, 42, 0
6, 854, Note_on_c, 9, 43, 0
6, 900, Note_on_c, 9, 43, 100
6, 900, Note_on_c, 9, 42, 50
6, 914, Note_on_c, 9, 42, 0
6, 914, Note_on_c, 9, 43, 0
6, 960, Note_on_c, 9, 42, 50
6, 960, Note_on_c, 9, 35, 100
6, 974, Note_on_c, 9, 35, 0
6, 974, Note_on_c, 9, 42, 0
6, 1020, Note_on_c, 9, 42, 50
6, 1020, Note_on_c, 9, 35, 100
6, 1034, Note_on_c, 9, 35, 0
6, 1034, Note_on_c, 9, 42, 0
6, 1080, Note_on_c, 9, 42, 50
6, 1080, Note_on_c, 9, 38, 100
6, 1094, Note_on_c, 9, 38, 0
6, 1094, Note_on_c, 9, 42, 0
6, 1140, Note_on_c, 9, 42, 50
6, 1154, Note_on_c, 9, 42, 0
6, 1200, Note_on_c, 9, 42, 50
6, 1200, Note_on_c, 9, 35, 100
6, 1214, Note_on_c, 9, 35, 0
6, 1214, Note_on_c, 9, 42, 0
6, 1260, Note_on_c, 9, 45, 100
6, 1260, Note_on_c, 9, 42, 50
6, 1274, Note_on_c, 9, 42, 0
6, 1274, Note_on_c, 9, 45, 0
6, 1320, Note_on_c, 9, 43, 100
6, 1320, Note_on_c, 9, 42, 50
6, 1334, Note_on_c, 9, 42, 0
6, 1334, Note_on_c, 9, 43, 0
6, 1380, Note_on_c, 9, 41, 100
6, 1380, Note_on_c, 9, 42, 50
6, 1394, Note_on_c, 9, 42, 0
6, 1394, Note_on_c, 9, 41, 0
6, 1440, Note_on_c, 9, 42, 50
6, 1440, Note_on_c, 9, 35, 100
6, 1454, Note_on_c, 9, 35, 0
6, 1454, Note_on_c, 9, 42, 0
6, 1500, Note_on_c, 9, 42, 50
6, 1514, Note_on_c, 9, 42, 0
6, 1560, Note_on_c, 9, 42, 50
6, 1560, Note_on_c, 9, 38, 100
6, 1574, Note_on_c, 9, 38, 0
6, 1574, Note_on_c, 9, 42, 0
6, 1620, Note_on_c, 9, 42, 50
6, 1620, Note_on_c, 9, 35, 100
6, 1634, Note_on_c, 9, 35, 0
6, 1634, Note_on_c, 9, 42, 0
6, 1680, Note_on_c, 9, 42, 50
6, 1694, Note_on_c, 9, 42, 0
6, 1740, Note_on_c, 9, 42, 50
6, 1740, Note_on_c, 9, 35, 100
6, 1754, Note_on_c, 9, 35, 0
6, 1754, Note_on_c, 9, 42, 0
6, 1800, Note_on_c, 9, 43, 100
6, 1800, Note_on_c, 9, 42, 50
6, 1814, Note_on_c, 9, 42, 0
6, 1814, Note_on_c, 9, 43, 0
6, 1860, Note_on_c, 9, 43, 100
6, 1860, Note_on_c, 9, 42, 50
6, 1874, Note_on_c, 9, 42, 0
6, 1874, Note_on_c, 9, 43, 0
6, 1920, Note_on_c, 9, 42, 50
6, 1920, Note_on_c, 9, 35, 100
6, 1934, Note_on_c, 9, 35, 0
6, 1934, Note_on_c, 9, 42, 0
6, 1980, Note_on_c, 9, 42, 50
6, 1980, Note_on_c, 9, 35, 100
6, 1994, Note_on_c, 9, 35, 0
6, 1994, Note_on_c, 9, 42, 0
6, 2040, Note_on_c, 9, 42, 50
6, 2040, Note_on_c, 9, 38, 100
6, 2054, Note_on_c, 9, 38, 0
6, 2054, Note_on_c, 9, 42, 0
6, 2100, Note_on_c, 9, 42, 50
6, 2114, Note_on_c, 9, 42, 0
6, 2160, Note_on_c, 9, 42, 50
6, 2160, Note_on_c, 9, 35, 100
6, 2174, Note_on_c, 9, 35, 0
6, 2174, Note_on_c, 9, 42, 0
6, 2220, Note_on_c, 9, 45, 100
6, 2220, Note_on_c, 9, 42, 50
6, 2234, Note_on_c, 9, 42, 0
6, 2234, Note_on_c, 9, 45, 0
6, 2280, Note_on_c, 9, 43, 100
6, 2280, Note_on_c, 9, 42, 50
6, 2294, Note_on_c, 9, 42, 0
6, 2294, Note_on_c, 9, 43, 0
6, 2340, Note_on_c, 9, 41, 100
6, 2340, Note_on_c, 9, 42, 50
6, 2354, Note_on_c, 9, 42, 0
6, 2354, Note_on_c, 9, 41, 0
6, 2400, Note_on_c, 9, 42, 50
6, 2400, Note_on_c, 9, 35, 100
6, 2414, Note_on_c, 9, 35, 0
6, 2414, Note_on_c, 9, 42, 0
6, 2460, Note_on_c, 9, 42, 50
6, 2474, Note_on_c, 9, 42, 0
6, 2520, Note_on_c, 9, 42, 50
6, 2520, Note_on_c, 9, 38, 100
6, 2534, Note_on_c, 9, 38, 0
6, 2534, Note_on_c, 9, 42, 0
6, 2580, Note_on_c, 9, 42, 50
6, 2580, Note_on_c, 9, 35, 100
6, 2594, Note_on_c, 9, 35, 0
6, 2594, Note_on_c, 9, 42, 0
6, 2640, Note_on_c, 9, 42, 50
6, 2654, Note_on_c, 9, 42, 0
6, 2700, Note_on_c, 9, 42, 50
6, 2700, Note_on_c, 9, 35, 100
6, 2714, Note_on_c, 9, 35, 0
6, 2714, Note_on_c, 9, 42, 0
6, 2760, Note_on_c, 9, 43, 100
6, 2760, Note_on_c, 9, 42, 50
6, 2774, Note_on_c, 9, 42, 0
6, 2774, Note_on_c, 9, 43, 0
6, 2820, Note_on_c, 9, 43, 100
6, 2820, Note_on_c, 9, 42, 50
6, 2834, Note_on_c, 9, 42, 0
6, 2834, Note_on_c, 9, 43, 0
6, 2880, Note_on_c, 9, 42, 50
6, 2880, Note_on_c, 9, 35, 100
6, 2894, Note_on_c, 9, 35, 0
6, 2894, Note_on_c, 9, 42, 0
6, 2940, Note_on_c, 9, 42, 50
6, 2940, Note_on_c, 9, 35, 100
6, 2954, Note_on_c, 9, 35, 0
6, 2954, Note_on_c, 9, 42, 0
6, 3000, Note_on_c, 9, 42, 50
6, 3000, Note_on_c, 9, 38, 100
6, 3014, Note_on_c, 9, 38, 0
6, 3014, Note_on_c, 9, 42, 0
6, 3060, Note_on_c, 9, 42, 50
6, 3074, Note_on_c, 9, 42, 0
6, 3120, Note_on_c, 9, 42, 50
6, 3120, Note_on_c, 9, 35, 100
6, 3134, Note_on_c, 9, 35, 0
6, 3134, Note_on_c, 9, 42, 0
6, 3180, Note_on_c, 9, 45, 100
6, 3180, Note_on_c, 9, 42, 50
6, 3194, Note_on_c, 9, 42, 0
6, 3194, Note_on_c, 9, 45, 0
6, 3240, Note_on_c, 9, 43, 100
6, 3240, Note_on_c, 9, 42, 50
6, 3254, Note_on_c, 9, 42, 0
6, 3254, Note_on_c, 9, 43, 0
6, 3300, Note_on_c, 9, 41, 100
6, 3300, Note_on_c, 9, 42, 50
6, 3314, Note_on_c, 9, 42, 0
6, 3314, Note_on_c, 9, 41, 0
6, 3360, Note_on_c, 9, 42, 50
6, 3360, Note_on_c, 9, 35, 100
6, 3374, Note_on_c, 9, 35, 0
6, 3374, Note_on_c, 9, 42, 0
6, 3420, Note_on_c, 9, 42, 50
6, 3434, Note_on_c, 9, 42, 0
6, 3480, Note_on_c, 9, 42, 50
6, 3480, Note_on_c, 9, 38, 100
6, 3494, Note_on_c, 9, 38, 0
6, 3494, Note_on_c, 9, 42, 0
6, 3540, Note_on_c, 9, 42, 50
6, 3540, Note_on_c, 9, 35, 100
6, 3554, Note_on_c, 9, 35, 0
6, 3554, Note_on_c, 9, 42, 0
6, 3600, Note_on_c, 9, 42, 50
6, 3614, Note_on_c, 9, 42, 0
6, 3660, Note_on_c, 9, 42, 50
6, 3660, Note_on_c, 9, 35, 100
6, 3674, Note_on_c, 9, 35, 0
6, 3674, Note_on_c, 9, 42, 0
6, 3720, Note_on_c, 9, 43, 100
6, 3720, Note_on_c, 9, 42, 50
6, 3734, Note_on_c, 9, 42, 0
6, 3734, Note_on_c, 9, 43, 0
6, 3780, Note_on_c, 9, 43, 100
6, 3780, Note_on_c, 9, 42, 50
6, 3794, Note_on_c, 9, 42, 0
6, 3794, Note_on_c, 9, 43, 0
6, 3840, Note_on_c, 9, 42, 50
6, 3840, Note_on_c, 9, 35, 100
6, 3854, Note_on_c, 9, 35, 0
6, 3854, Note_on_c, 9, 42, 0
6, 3900, Note_on_c, 9, 42, 50
6, 3900, Note_on_c, 9, 35, 100
6, 3914, Note_on_c, 9, 35, 0
6, 3914, Note_on_c, 9, 42, 0
6, 3960, Note_on_c, 9, 42, 50
6, 3960, Note_on_c, 9, 38, 100
6, 3974, Note_on_c, 9, 38, 0
6, 3974, Note_on_c, 9, 42, 0
6, 4020, Note_on_c, 9, 42, 50
6, 4034, Note_on_c, 9, 42, 0
6, 4080, Note_on_c, 9, 42, 50
6, 4080, Note_on_c, 9, 35, 100
6, 4094, Note_on_c, 9, 35, 0
6, 4094, Note_on_c, 9, 42, 0
6, 4140, Note_on_c, 9, 45, 100
6, 4140, Note_on_c, 9, 42, 50
6, 4154, Note_on_c, 9, 42, 0
6, 4154, Note_on_c, 9, 45, 0
6, 4200, Note_on_c, 9, 43, 100
6, 4200, Note_on_c, 9, 42, 50
6, 4214, Note_on_c, 9, 42, 0
6, 4214, Note_on_c, 9, 43, 0
6, 4260, Note_on_c, 9, 41, 100
6, 4260, Note_on_c, 9, 42, 50
6, 4274, Note_on_c, 9, 42, 0
6, 4274, Note_on_c, 9, 41, 0
6, 4320, Note_on_c, 9, 42, 50
6, 4320, Note_on_c, 9, 35, 100
6, 4334, Note_on_c, 9, 35, 0
6, 4334, Note_on_c, 9, 42, 0
6, 4380, Note_on_c, 9, 42, 50
6, 4394, Note_on_c, 9, 42, 0
6, 4440, Note_on_c, 9, 42, 50
6, 4440, Note_on_c, 9, 38, 100
6, 4454, Note_on_c, 9, 38, 0
6, 4454, Note_on_c, 9, 42, 0
6, 4500, Note_on_c, 9, 42, 50
6, 4500, Note_on_c, 9, 35, 100
6, 4514, Note_on_c, 9, 35, 0
6, 4514, Note_on_c, 9, 42, 0
6, 4560, Note_on_c, 9, 42, 50
6, 4574, Note_on_c, 9, 42, 0
6, 4620, Note_on_c, 9, 42, 50
6, 4620, Note_on_c, 9, 35, 100
6, 4634, Note_on_c, 9, 35, 0
6, 4634, Note_on_c, 9, 42, 0
6, 4680, Note_on_c, 9, 43, 100
6, 4680, Note_on_c, 9, 42, 50
6, 4694, Note_on_c, 9, 42, 0
6, 4694, Note_on_c, 9, 43, 0
6, 4740, Note_on_c, 9, 43, 100
6, 4740, Note_on_c, 9, 42, 50
6, 4754, Note_on_c, 9, 42, 0
6, 4754, Note_on_c, 9, 43, 0
6, 4800, Note_on_c, 9, 42, 50
6, 4800, Note_on_c, 9, 35, 100
6, 4814, Note_on_c, 9, 35, 0
6, 4814, Note_on_c, 9, 42, 0
6, 4860, Note_on_c, 9, 42, 50
6, 4860, Note_on_c, 9, 35, 100
6, 4874, Note_on_c, 9, 35, 0
6, 4874, Note_on_c, 9, 42, 0
6, 4920, Note_on_c, 9, 42, 50
6, 4920, Note_on_c, 9, 38, 100
6, 4934, Note_on_c, 9, 38, 0
6, 4934, Note_on_c, 9, 42, 0
6, 4980, Note_on_c, 9, 42, 50
6, 4994, Note_on_c, 9, 42, 0
6, 5040, Note_on_c, 9, 42, 50
6, 5040, Note_on_c, 9, 35, 100
6, 5054, Note_on_c, 9, 35, 0
6, 5054, Note_on_c, 9, 42, 0
6, 5100, Note_on_c, 9, 45, 100
6, 5100, Note_on_c, 9, 42, 50
6, 5114, Note_on_c, 9, 42, 0
6, 5114, Note_on_c, 9, 45, 0
6, 5160, Note_on_c, 9, 43, 100
6, 5160, Note_on_c, 9, 42, 50
6, 5174, Note_on_c, 9, 42, 0
6, 5174, Note_on_c, 9, 43, 0
6, 5220, Note_on_c, 9, 41, 100
6, 5220, Note_on_c, 9, 42, 50
6, 5234, Note_on_c, 9, 42, 0
6, 5234, Note_on_c, 9, 41, 0
6, 5280, Note_on_c, 9, 42, 50
6, 5280, Note_on_c, 9, 35, 100
6, 5294, Note_on_c, 9, 35, 0
6, 5294, Note_on_c, 9, 42, 0
6, 5340, Note_on_c, 9, 42, 50
6, 5354, Note_on_c, 9, 42, 0
6, 5400, Note_on_c, 9, 42, 50
6, 5400, Note_on_c, 9, 38, 100
6, 5414, Note_on_c, 9, 38, 0
6, 5414, Note_on_c, 9, 42, 0
6, 5460, Note_on_c, 9, 42, 50
6, 5460, Note_on_c, 9, 35, 100
6, 5474, Note_on_c, 9, 35, 0
6, 5474, Note_on_c, 9, 42, 0
6, 5520, Note_on_c, 9, 42, 50
6, 5534, Note_on_c, 9, 42, 0
6, 5580, Note_on_c, 9, 42, 50
6, 5580, Note_on_c, 9, 35, 100
6, 5594, Note_on_c, 9, 35, 0
6, 5594, Note_on_c, 9, 42, 0
6, 5640, Note_on_c, 9, 43, 100
6, 5640, Note_on_c, 9, 42, 50
6, 5654, Note_on_c, 9, 42, 0
6, 5654, Note_on_c, 9, 43, 0
6, 5700, Note_on_c, 9, 43, 100
6, 5700, Note_on_c, 9, 42, 50
6, 5714, Note_on_c, 9, 42, 0
6, 5714, Note_on_c, 9, 43, 0
6, 5760, Note_on_c, 9, 42, 50
6, 5760, Note_on_c, 9, 35, 100
6, 5774, Note_on_c, 9, 35, 0
6, 5774, Note_on_c, 9, 42, 0
6, 5820, Note_on_c, 9, 42, 50
6, 5820, Note_on_c, 9, 35, 100
6, 5834, Note_on_c, 9, 35, 0
6, 5834, Note_on_c, 9, 42, 0
6, 5880, Note_on_c, 9, 42, 50
6, 5880, Note_on_c, 9, 38, 100
6, 5894, Note_on_c, 9, 38, 0
6, 5894, Note_on_c, 9, 42, 0
6, 5940, Note_on_c, 9, 42, 50
6, 5954, Note_on_c, 9, 42, 0
6, 6000, Note_on_c, 9, 42, 50
6, 6000, Note_on_c, 9, 35, 100
6, 6014, Note_on_c, 9, 35, 0
6, 6014, Note_on_c, 9, 42, 0
6, 6060, Note_on_c, 9, 45, 100
6, 6060, Note_on_c, 9, 42, 50
6, 6074, Note_on_c, 9, 42, 0
6, 6074, Note_on_c, 9, 45, 0
6, 6120, Note_on_c, 9, 43, 100
6, 6120, Note_on_c, 9, 42, 50
6, 6134, Note_on_c, 9, 42, 0
6, 6134, Note_on_c, 9, 43, 0
6, 6180, Note_on_c, 9, 41, 100
6, 6180, Note_on_c, 9, 42, 50
6, 6194, Note_on_c, 9, 42, 0
6, 6194, Note_on_c, 9, 41, 0
6, 6240, Note_on_c, 9, 42, 50
6, 6240, Note_on_c, 9, 35, 100
6, 6254, Note_on_c, 9, 35, 0
6, 6254, Note_on_c, 9, 42, 0
6, 6300, Note_on_c, 9, 42, 50
6, 6314, Note_on_c, 9, 42, 0
6, 6360, Note_on_c, 9, 42, 50
6, 6360, Note_on_c, 9, 38, 100
6, 6374, Note_on_c, 9, 38, 0
6, 6374, Note_on_c, 9, 42, 0
6, 6420, Note_on_c, 9, 42, 50
6, 6420, Note_on_c, 9, 35, 100
6, 6434, Note_on_c, 9, 35, 0
6, 6434, Note_on_c, 9, 42, 0
6, 6480, Note_on_c, 9, 42, 50
6, 6494, Note_on_c, 9, 42, 0
6, 6540, Note_on_c, 9, 42, 50
6, 6540, Note_on_c, 9, 35, 100
6, 6554, Note_on_c, 9, 35, 0
6, 6554, Note_on_c, 9, 42, 0
6, 6600, Note_on_c, 9, 43, 100
6, 6600, Note_on_c, 9, 42, 50
6, 6614, Note_on_c, 9, 42, 0
6, 6614, Note_on_c, 9, 43, 0
6, 6660, Note_on_c, 9, 43, 100
6, 6660, Note_on_c, 9, 42, 50
6, 6674, Note_on_c, 9, 42, 0
6, 6674, Note_on_c, 9, 43, 0
6, 6720, Note_on_c, 9, 42, 50
6, 6720, Note_on_c, 9, 35, 100
6, 6734, Note_on_c, 9, 35, 0
6, 6734, Note_on_c, 9, 42, 0
6, 6780, Note_on_c, 9, 42, 50
6, 6780, Note_on_c, 9, 35, 100
6, 6794, Note_on_c, 9, 35, 0
6, 6794, Note_on_c, 9, 42, 0
6, 6840, Note_on_c, 9, 42, 50
6, 6840, Note_on_c, 9, 38, 100
6, 6854, Note_on_c, 9, 38, 0
6, 6854, Note_on_c, 9, 42, 0
6, 6900, Note_on_c, 9, 42, 50
6, 6914, Note_on_c, 9, 42, 0
6, 6960, Note_on_c, 9, 42, 50
6, 6960, Note_on_c, 9, 35, 100
6, 6974, Note_on_c, 9, 35, 0
6, 6974, Note_on_c, 9, 42, 0
6, 7020, Note_on_c, 9, 45, 100
6, 7020, Note_on_c, 9, 42, 50
6, 7034, Note_on_c, 9, 42, 0
6, 7034, Note_on_c, 9, 45, 0
6, 7080, Note_on_c, 9, 43, 100
6, 7080, Note_on_c, 9, 42, 50
6, 7094, Note_on_c, 9, 42, 0
6, 7094, Note_on_c, 9, 43, 0
6, 7140, Note_on_c, 9, 41, 100
6, 7140, Note_on_c, 9, 42, 50
6, 7154, Note_on_c, 9, 42, 0
6, 7154, Note_on_c, 9, 41, 0
6, 7200, Note_on_c, 9, 42, 50
6, 7200, Note_on_c, 9, 35, 100
6, 7214, Note_on_c, 9, 35, 0
6, 7214, Note_on_c, 9, 42, 0
6, 7260, Note_on_c, 9, 42, 50
6, 7274, Note_on_c, 9, 42, 0
6, 7320, Note_on_c, 9, 42, 50
6, 7320, Note_on_c, 9, 38, 100
6, 7334, Note_on_c, 9, 38, 0
6, 7334, Note_on_c, 9, 42, 0
6, 7380, Note_on_c, 9, 42, 50
6, 7380, Note_on_c, 9, 35, 100
6, 7394, Note_on_c, 9, 35, 0
6, 7394, Note_on_c, 9, 42, 0
6, 7440, Note_on_c, 9, 42, 50
6, 7454, Note_on_c, 9, 42, 0
6, 7500, Note_on_c, 9, 42, 50
6, 7500, Note_on_c, 9, 35, 100
6, 7514, Note_on_c, 9, 35, 0
6, 7514, Note_on_c, 9, 42, 0
6, 7560, Note_on_c, 9, 43, 100
6, 7560, Note_on_c, 9, 42, 50
6, 7574, Note_on_c, 9, 42, 0
6, 7574, Note_on_c, 9, 43, 0
6, 7620, Note_on_c, 9, 43, 100
6, 7620, Note_on_c, 9, 42, 50
6, 7634, Note_on_c, 9, 42, 0
6, 7634, Note_on_c, 9, 43, 0
6, 7680, Note_on_c, 9, 42, 50
6, 7680, Note_on_c, 9, 35, 100
6, 7694, Note_on_c, 9, 35, 0
6, 7694, Note_on_c, 9, 42, 0
6, 7740, Note_on_c, 9, 42, 50
6, 7740, Note_on_c, 9, 35, 100
6, 7754, Note_on_c, 9, 35, 0
6, 7754, Note_on_c, 9, 42, 0
6, 7800, Note_on_c, 9, 42, 50
6, 7800, Note_on_c, 9, 38, 100
6, 7814, Note_on_c, 9, 38, 0
6, 7814, Note_on_c, 9, 42, 0
6, 7860, Note_on_c, 9, 42, 50
6, 7874, Note_on_c, 9, 42, 0
6, 7920, Note_on_c, 9, 42, 50
6, 7920, Note_on_c, 9, 35, 100
6, 7934, Note_on_c, 9, 35, 0
6, 7934, Note_on_c, 9, 42, 0
6, 7980, Note_on_c, 9, 45, 100
6, 7980, Note_on_c, 9, 42, 50
6, 7994, Note_on_c, 9, 42, 0
6, 7994, Note_on_c, 9, 45, 0
6, 8040, Note_on_c, 9, 43, 100
6, 8040, Note_on_c, 9, 42, 50
6, 8054, Note_on_c, 9, 42, 0
6, 8054, Note_on_c, 9, 43, 0
6, 8100, Note_on_c, 9, 41, 100
6, 8100, Note_on_c, 9, 42, 50
6, 8114, Note_on_c, 9, 42, 0
6, 8114, Note_on_c, 9, 41, 0
6, 8160, Note_on_c, 9, 42, 50
6, 8160, Note_on_c, 9, 35, 100
6, 8174, Note_on_c, 9, 35, 0
6, 8174, Note_on_c, 9, 42, 0
6, 8220, Note_on_c, 9, 42, 50
6, 8234, Note_on_c, 9, 42, 0
6, 8280, Note_on_c, 9, 42, 50
6, 8280, Note_on_c, 9, 38, 100
6, 8294, Note_on_c, 9, 38, 0
6, 8294, Note_on_c, 9, 42, 0
6, 8340, Note_on_c, 9, 42, 50
6, 8340, Note_on_c, 9, 35, 100
6, 8354, Note_on_c, 9, 35, 0
6, 8354, Note_on_c, 9, 42, 0
6, 8400, Note_on_c, 9, 42, 50
6, 8414, Note_on_c, 9, 42, 0
6, 8460, Note_on_c, 9, 42, 50
6, 8460, Note_on_c, 9, 35, 100
6, 8474, Note_on_c, 9, 35, 0
6, 8474, Note_on_c, 9, 42, 0
6, 8520, Note_on_c, 9, 42, 50
6, 8520, Note_on_c, 9, 38, 100
6, 8534, Note_on_c, 9, 38, 0
6, 8534, Note_on_c, 9, 42, 0
6, 8580, Note_on_c, 9, 42, 50
6, 8594, Note_on_c, 9, 42, 0
6, 8640, Note_on_c, 9, 42, 50
6, 8640, Note_on_c, 9, 35, 100
6, 8654, Note_on_c, 9, 35, 0
6, 8654, Note_on_c, 9, 42, 0
6, 8700, Note_on_c, 9, 42, 50
6, 8700, Note_on_c, 9, 35, 100
6, 8714, Note_on_c, 9, 35, 0
6, 8714, Note_on_c, 9, 42, 0
6, 8760, Note_on_c, 9, 42, 50
6, 8760, Note_on_c, 9, 38, 100
6, 8774, Note_on_c, 9, 38, 0
6, 8774, Note_on_c, 9, 42, 0
6, 8820, Note_on_c, 9, 42, 50
6, 8834, Note_on_c, 9, 42, 0
6, 8880, Note_on_c, 9, 42, 50
6, 8880, Note_on_c, 9, 35, 100
6, 8894, Note_on_c, 9, 35, 0
6, 8894, Note_on_c, 9, 42, 0
6, 8940, Note_on_c, 9, 42, 50
6, 8940, Note_on_c, 9, 35, 100
6, 8954, Note_on_c, 9, 35, 0
6, 8954, Note_on_c, 9, 42, 0
6, 9000, Note_on_c, 9, 42, 50
6, 9000, Note_on_c, 9, 38, 100
6, 9014, Note_on_c, 9, 38, 0
6, 9014, Note_on_c, 9, 42, 0
6, 9060, Note_on_c, 9, 42, 50
6, 9074, Note_on_c, 9, 42, 0
6, 9120, Note_on_c, 9, 42, 50
6, 9120, Note_on_c, 9, 35, 100
6, 9134, Note_on_c, 9, 35, 0
6, 9134, Note_on_c, 9, 42, 0
6, 9180, Note_on_c, 9, 42, 50
6, 9194, Note_on_c, 9, 42, 0
6, 9240, Note_on_c, 9, 42, 50
6, 9240, Note_on_c, 9, 38, 100
6, 9254, Note_on_c, 9, 38, 0
6, 9254, Note_on_c, 9, 42, 0
6, 9300, Note_on_c, 9, 42, 50
6, 9300, Note_on_c, 9, 35, 100
6, 9314, Note_on_c, 9, 35, 0
6, 9314, Note_on_c, 9, 42, 0
6, 9360, Note_on_c, 9, 42, 50
6, 9374, Note_on_c, 9, 42, 0
6, 9420, Note_on_c, 9, 42, 50
6, 9420, Note_on_c, 9, 35, 100
6, 9434, Note_on_c, 9, 35, 0
6, 9434, Note_on_c, 9, 42, 0
6, 9480, Note_on_c, 9, 42, 50
6, 9480, Note_on_c, 9, 38, 100
6, 9494, Note_on_c, 9, 38, 0
6, 9494, Note_on_c, 9, 42, 0
6, 9540, Note_on_c, 9, 42, 50
6, 9554, Note_on_c, 9, 42, 0
6, 9600, Note_on_c, 9, 42, 50
6, 9600, Note_on_c, 9, 35, 100
6, 9614, Note_on_c, 9, 35, 0
6, 9614, Note_on_c, 9, 42, 0
6, 9660, Note_on_c, 9, 42, 50
6, 9660, Note_on_c, 9, 35, 100
6, 9674, Note_on_c, 9, 35, 0
6, 9674, Note_on_c, 9, 42, 0
6, 9720, Note_on_c, 9, 42, 50
6, 9720, Note_on_c, 9, 38, 100
6, 9734, Note_on_c, 9, 38, 0
6, 9734, Note_on_c, 9, 42, 0
6, 9780, Note_on_c, 9, 42, 50
6, 9794, Note_on_c, 9, 42, 0
6, 9840, Note_on_c, 9, 42, 50
6, 9840, Note_on_c, 9, 35, 100
6, 9854, Note_on_c, 9, 35, 0
6, 9854, Note_on_c, 9, 42, 0
6, 9900, Note_on_c, 9, 42, 50
6, 9900, Note_on_c, 9, 35, 100
6, 9914, Note_on_c, 9, 35, 0
6, 9914, Note_on_c, 9, 42, 0
6, 9960, Note_on_c, 9, 42, 50
6, 9960, Note_on_c, 9, 38, 100
6, 9974, Note_on_c, 9, 38, 0
6, 9974, Note_on_c, 9, 42, 0
6, 10020, Note_on_c, 9, 42, 50
6, 10034, Note_on_c, 9, 42, 0
6, 10080, Note_on_c, 9, 42, 50
6, 10080, Note_on_c, 9, 35, 100
6, 10094, Note_on_c, 9, 35, 0
6, 10094, Note_on_c, 9, 42, 0
6, 10140, Note_on_c, 9, 42, 50
6, 10154, Note_on_c, 9, 42, 0
6, 10200, Note_on_c, 9, 42, 50
6, 10200, Note_on_c, 9, 38, 100
6, 10214, Note_on_c, 9, 38, 0
6, 10214, Note_on_c, 9, 42, 0
6, 10260, Note_on_c, 9, 42, 50
6, 10260, Note_on_c, 9, 35, 100
6, 10274, Note_on_c, 9, 35, 0
6, 10274, Note_on_c, 9, 42, 0
6, 10320, Note_on_c, 9, 42, 50
6, 10334, Note_on_c, 9, 42, 0
6, 10380, Note_on_c, 9, 42, 50
6, 10380, Note_on_c, 9, 35, 100
6, 10394, Note_on_c, 9, 35, 0
6, 10394, Note_on_c, 9, 42, 0
6, 10440, Note_on_c, 9, 42, 50
6, 10440, Note_on_c, 9, 38, 100
6, 10454, Note_on_c, 9, 38, 0
6, 10454, Note_on_c, 9, 42, 0
6, 10500, Note_on_c, 9, 42, 50
6, 10514, Note_on_c, 9, 42, 0
6, 10560, Note_on_c, 9, 42, 50
6, 10560, Note_on_c, 9, 35, 100
6, 10574, Note_on_c, 9, 35, 0
6, 10574, Note_on_c, 9, 42, 0
6, 10620, Note_on_c, 9, 42, 50
6, 10620, Note_on_c, 9, 35, 100
6, 10634, Note_on_c, 9, 35, 0
6, 10634, Note_on_c, 9, 42, 0
6, 10680, Note_on_c, 9, 42, 50
6, 10680, Note_on_c, 9, 38, 100
6, 10694, Note_on_c, 9, 38, 0
6, 10694, Note_on_c, 9, 42, 0
6, 10740, Note_on_c, 9, 42, 50
6, 10754, Note_on_c, 9, 42, 0
6, 10800, Note_on_c, 9, 42, 50
6, 10800, Note_on_c, 9, 35, 100
6, 10814, Note_on_c, 9, 35, 0
6, 10814, Note_on_c, 9, 42, 0
6, 10860, Note_on_c, 9, 42, 50
6, 10860, Note_on_c, 9, 35, 100
6, 10874, Note_on_c, 9, 35, 0
6, 10874, Note_on_c, 9, 42, 0
6, 10920, Note_on_c, 9, 42, 50
6, 10920, Note_on_c, 9, 38, 100
6, 10934, Note_on_c, 9, 38, 0
6, 10934, Note_on_c, 9, 42, 0
6, 10980, Note_on_c, 9, 42, 50
6, 10994, Note_on_c, 9, 42, 0
6, 11040, Note_on_c, 9, 42, 50
6, 11040, Note_on_c, 9, 35, 100
6, 11054, Note_on_c, 9, 35, 0
6, 11054, Note_on_c, 9, 42, 0
6, 11100, Note_on_c, 9, 42, 50
6, 11114, Note_on_c, 9, 42, 0
6, 11160, Note_on_c, 9, 42, 50
6, 11160, Note_on_c, 9, 38, 100
6, 11174, Note_on_c, 9, 38, 0
6, 11174, Note_on_c, 9, 42, 0
6, 11220, Note_on_c, 9, 42, 50
6, 11220, Note_on_c, 9, 35, 100
6, 11234, Note_on_c, 9, 35, 0
6, 11234, Note_on_c, 9, 42, 0
6, 11280, Note_on_c, 9, 42, 50
6, 11294, Note_on_c, 9, 42, 0
6, 11340, Note_on_c, 9, 42, 50
6, 11340, Note_on_c, 9, 35, 100
6, 11354, Note_on_c, 9, 35, 0
6, 11354, Note_on_c, 9, 42, 0
6, 11400, Note_on_c, 9, 42, 50
6, 11400, Note_on_c, 9, 38, 100
6, 11414, Note_on_c, 9, 38, 0
6, 11414, Note_on_c, 9, 42, 0
6, 11460, Note_on_c, 9, 42, 50
6, 11474, Note_on_c, 9, 42, 0
6, 11520, Note_on_c, 9, 42, 50
6, 11520, Note_on_c, 9, 35, 100
6, 11534, Note_on_c, 9, 35, 0
6, 11534, Note_on_c, 9, 42, 0
6, 11580, Note_on_c, 9, 42, 50
6, 11580, Note_on_c, 9, 35, 100
6, 11594, Note_on_c, 9, 35, 0
6, 11594, Note_on_c, 9, 42, 0
6, 11640, Note_on_c, 9, 42, 50
6, 11640, Note_on_c, 9, 38, 100
6, 11654, Note_on_c, 9, 38, 0
6, 11654, Note_on_c, 9, 42, 0
6, 11700, Note_on_c, 9, 42, 50
6, 11714, Note_on_c, 9, 42, 0
6, 11760, Note_on_c, 9, 42, 50
6, 11760, Note_on_c, 9, 35, 100
6, 11774, Note_on_c, 9, 35, 0
6, 11774, Note_on_c, 9, 42, 0
6, 11820, Note_on_c, 9, 42, 50
6, 11820, Note_on_c, 9, 35, 100
6, 11834, Note_on_c, 9, 35, 0
6, 11834, Note_on_c, 9, 42, 0
6, 11880, Note_on_c, 9, 42, 50
6, 11880, Note_on_c, 9, 38, 100
6, 11894, Note_on_c, 9, 38, 0
6, 11894, Note_on_c, 9, 42, 0
6, 11940, Note_on_c, 9, 42, 50
6, 11954, Note_on_c, 9, 42, 0
6, 12000, Note_on_c, 9, 42, 50
6, 12000, Note_on_c, 9, 35, 100
6, 12014, Note_on_c, 9, 35, 0
6, 12014, Note_on_c, 9, 42, 0
6, 12060, Note_on_c, 9, 42, 50
6, 12074, Note_on_c, 9, 42, 0
6, 12120, Note_on_c, 9, 42, 50
6, 12120, Note_on_c, 9, 38, 100
6, 12134, Note_on_c, 9, 38, 0
6, 12134, Note_on_c, 9, 42, 0
6, 12180, Note_on_c, 9, 42, 50
6, 12180, Note_on_c, 9, 35, 100
6, 12194, Note_on_c, 9, 35, 0
6, 12194, Note_on_c, 9, 42, 0
6, 12240, Note_on_c, 9, 42, 50
6, 12254, Note_on_c, 9, 42, 0
6, 12300, Note_on_c, 9, 42, 50
6, 12300, Note_on_c, 9, 35, 100
6, 12314, Note_on_c, 9, 35, 0
6, 12314, Note_on_c, 9, 42, 0
6, 12360, Note_on_c, 9, 42, 50
6, 12360, Note_on_c, 9, 38, 100
6, 12374, Note_on_c, 9, 38, 0
6, 12374, Note_on_c, 9, 42, 0
6, 12420, Note_on_c, 9, 42, 50
6, 12434, Note_on_c, 9, 42, 0
6, 12480, Note_on_c, 9, 42, 50
6, 12480, Note_on_c, 9, 35, 100
6, 12494, Note_on_c, 9, 35, 0
6, 12494, Note_on_c, 9, 42, 0
6, 12540, Note_on_c, 9, 42, 50
6, 12540, Note_on_c, 9, 35, 100
6, 12554, Note_on_c, 9, 35, 0
6, 12554, Note_on_c, 9, 42, 0
6, 12600, Note_on_c, 9, 42, 50
6, 12600, Note_on_c, 9, 38, 100
6, 12614, Note_on_c, 9, 38, 0
6, 12614, Note_on_c, 9, 42, 0
6, 12660, Note_on_c, 9, 42, 50
6, 12674, Note_on_c, 9, 42, 0
6, 12720, Note_on_c, 9, 42, 50
6, 12720, Note_on_c, 9, 35, 100
6, 12734, Note_on_c, 9, 35, 0
6, 12734, Note_on_c, 9, 42, 0
6, 12780, Note_on_c, 9, 42, 50
6, 12780, Note_on_c, 9, 35, 100
6, 12794, Note_on_c, 9, 35, 0
6, 12794, Note_on_c, 9, 42, 0
6, 12840, Note_on_c, 9, 42, 50
6, 12840, Note_on_c, 9, 38, 100
6, 12854, Note_on_c, 9, 38, 0
6, 12854, Note_on_c, 9, 42, 0
6, 12900, Note_on_c, 9, 42, 50
6, 12914, Note_on_c, 9, 42, 0
6, 12960, Note_on_c, 9, 42, 50
6, 12960, Note_on_c, 9, 35, 100
6, 12974, Note_on_c, 9, 35, 0
6, 12974, Note_on_c, 9, 42, 0
6, 13020, Note_on_c, 9, 42, 50
6, 13034, Note_on_c, 9, 42, 0
6, 13080, Note_on_c, 9, 42, 50
6, 13080, Note_on_c, 9, 38, 100
6, 13094, Note_on_c, 9, 38, 0
6, 13094, Note_on_c, 9, 42, 0
6, 13140, Note_on_c, 9, 42, 50
6, 13140, Note_on_c, 9, 35, 100
6, 13154, Note_on_c, 9, 35, 0
6, 13154, Note_on_c, 9, 42, 0
6, 13200, Note_on_c, 9, 42, 50
6, 13214, Note_on_c, 9, 42, 0
6, 13260, Note_on_c, 9, 42, 50
6, 13260, Note_on_c, 9, 35, 100
6, 13274, Note_on_c, 9, 35, 0
6, 13274, Note_on_c, 9, 42, 0
6, 13320, Note_on_c, 9, 42, 50
6, 13320, Note_on_c, 9, 38, 100
6, 13334, Note_on_c, 9, 38, 0
6, 13334, Note_on_c, 9, 42, 0
6, 13380, Note_on_c, 9, 42, 50
6, 13394, Note_on_c, 9, 42, 0
6, 13440, Note_on_c, 9, 42, 50
6, 13440, Note_on_c, 9, 35, 100
6, 13454, Note_on_c, 9, 35, 0
6, 13454, Note_on_c, 9, 42, 0
6, 13500, Note_on_c, 9, 42, 50
6, 13500, Note_on_c, 9, 35, 100
6, 13514, Note_on_c, 9, 35, 0
6, 13514, Note_on_c, 9, 42, 0
6, 13560, Note_on_c, 9, 42, 50
6, 13560, Note_on_c, 9, 38, 100
6, 13574, Note_on_c, 9, 38, 0
6, 13574, Note_on_c, 9, 42, 0
6, 13620, Note_on_c, 9, 42, 50
6, 13634, Note_on_c, 9, 42, 0
6, 13680, Note_on_c, 9, 42, 50
6, 13680, Note_on_c, 9, 35, 100
6, 13694, Note_on_c, 9, 35, 0
6, 13694, Note_on_c, 9, 42, 0
6, 13740, Note_on_c, 9, 42, 50
6, 13740, Note_on_c, 9, 35, 100
6, 13754, Note_on_c, 9, 35, 0
6, 13754, Note_on_c, 9, 42, 0
6, 13800, Note_on_c, 9, 42, 50
6, 13800, Note_on_c, 9, 38, 100
6, 13814, Note_on_c, 9, 38, 0
6, 13814, Note_on_c, 9, 42, 0
6, 13860, Note_on_c, 9, 42, 50
6, 13874, Note_on_c, 9, 42, 0
6, 13920, Note_on_c, 9, 42, 50
6, 13920, Note_on_c, 9, 35, 100
6, 13934, Note_on_c, 9, 35, 0
6, 13934, Note_on_c, 9, 42, 0
6, 13980, Note_on_c, 9, 42, 50
6, 13994, Note_on_c, 9, 42, 0
6, 14040, Note_on_c, 9, 42, 50
6, 14040, Note_on_c, 9, 38, 100
6, 14054, Note_on_c, 9, 38, 0
6, 14054, Note_on_c, 9, 42, 0
6, 14100, Note_on_c, 9, 42, 50
6, 14100, Note_on_c, 9, 35, 100
6, 14114, Note_on_c, 9, 35, 0
6, 14114, Note_on_c, 9, 42, 0
6, 14160, Note_on_c, 9, 42, 50
6, 14174, Note_on_c, 9, 42, 0
6, 14220, Note_on_c, 9, 42, 50
6, 14220, Note_on_c, 9, 35, 100
6, 14234, Note_on_c, 9, 35, 0
6, 14234, Note_on_c, 9, 42, 0
6, 14280, Note_on_c, 9, 42, 50
6, 14280, Note_on_c, 9, 38, 100
6, 14294, Note_on_c, 9, 38, 0
6, 14294, Note_on_c, 9, 42, 0
6, 14340, Note_on_c, 9, 42, 50
6, 14354, Note_on_c, 9, 42, 0
6, 14400, Note_on_c, 9, 42, 50
6, 14400, Note_on_c, 9, 35, 100
6, 14414, Note_on_c, 9, 35, 0
6, 14414, Note_on_c, 9, 42, 0
6, 14460, Note_on_c, 9, 42, 50
6, 14460, Note_on_c, 9, 35, 100
6, 14474, Note_on_c, 9, 35, 0
6, 14474, Note_on_c, 9, 42, 0
6, 14520, Note_on_c, 9, 42, 50
6, 14520, Note_on_c, 9, 38, 100
6, 14534, Note_on_c, 9, 38, 0
6, 14534, Note_on_c, 9, 42, 0
6, 14580, Note_on_c, 9, 42, 50
6, 14594, Note_on_c, 9, 42, 0
6, 14640, Note_on_c, 9, 42, 50
6, 14640, Note_on_c, 9, 35, 100
6, 14654, Note_on_c, 9, 35, 0
6, 14654, Note_on_c, 9, 42, 0
6, 14700, Note_on_c, 9, 42, 50
6, 14700, Note_on_c, 9, 35, 100
6, 14714, Note_on_c, 9, 35, 0
6, 14714, Note_on_c, 9, 42, 0
6, 14760, Note_on_c, 9, 42, 50
6, 14760, Note_on_c, 9, 38, 100
6, 14774, Note_on_c, 9, 38, 0
6, 14774, Note_on_c, 9, 42, 0
6, 14820, Note_on_c, 9, 42, 50
6, 14834, Note_on_c, 9, 42, 0
6, 14880, Note_on_c, 9, 42, 50
6, 14880, Note_on_c, 9, 35, 100
6, 14894, Note_on_c, 9, 35, 0
6, 14894, Note_on_c, 9, 42, 0
6, 14940, Note_on_c, 9, 42, 50
6, 14954, Note_on_c, 9, 42, 0
6, 15000, Note_on_c, 9, 42, 50
6, 15000, Note_on_c, 9, 38, 100
6, 15014, Note_on_c, 9, 38, 0
6, 15014, Note_on_c, 9, 42, 0
6, 15060, Note_on_c, 9, 42, 50
6, 15060, Note_on_c, 9, 35, 100
6, 15074, Note_on_c, 9, 35, 0
6, 15074, Note_on_c, 9, 42, 0
6, 15120, Note_on_c, 9, 42, 50
6, 15134, Note_on_c, 9, 42, 0
6, 15180, Note_on_c, 9, 42, 50
6, 15180, Note_on_c, 9, 35, 100
6, 15194, Note_on_c, 9, 35, 0
6, 15194, Note_on_c, 9, 42, 0
6, 15240, Note_on_c, 9, 42, 50
6, 15240, Note_on_c, 9, 38, 100
6, 15254, Note_on_c, 9, 38, 0
6, 15254, Note_on_c, 9, 42, 0
6, 15300, Note_on_c, 9, 42, 50
6, 15314, Note_on_c, 9, 42, 0
6, 15360, Note_on_c, 9, 42, 50
6, 15360, Note_on_c, 9, 35, 100
6, 15374, Note_on_c, 9, 35, 0
6, 15374, Note_on_c, 9, 42, 0
6, 15420, Note_on_c, 9, 42, 50
6, 15420, Note_on_c, 9, 35, 100
6, 15434, Note_on_c, 9, 35, 0
6, 15434, Note_on_c, 9, 42, 0
6, 15480, Note_on_c, 9, 42, 50
6, 15480, Note_on_c, 9, 38, 100
6, 15494, Note_on_c, 9, 38, 0
6, 15494, Note_on_c, 9, 42, 0
6, 15540, Note_on_c, 9, 42, 50
6, 15554, Note_on_c, 9, 42, 0
6, 15600, Note_on_c, 9, 42, 50
6, 15600, Note_on_c, 9, 35, 100
6, 15614, Note_on_c, 9, 35, 0
6, 15614, Note_on_c, 9, 42, 0
6, 15660, Note_on_c, 9, 42, 50
6, 15660, Note_on_c, 9, 35, 100
6, 15674, Note_on_c, 9, 35, 0
6, 15674, Note_on_c, 9, 42, 0
6, 15720, Note_on_c, 9, 42, 50
6, 15720, Note_on_c, 9, 38, 100
6, 15734, Note_on_c, 9, 38, 0
6, 15734, Note_on_c, 9, 42, 0
6, 15780, Note_on_c, 9, 42, 50
6, 15794, Note_on_c, 9, 42, 0
6, 15840, Note_on_c, 9, 42, 50
6, 15840, Note_on_c, 9, 35, 100
6, 15854, Note_on_c, 9, 35, 0
6, 15854, Note_on_c, 9, 42, 0
6, 15900, Note_on_c, 9, 42, 50
6, 15914, Note_on_c, 9, 42, 0
6, 15960, Note_on_c, 9, 42, 50
6, 15960, Note_on_c, 9, 38, 100
6, 15974, Note_on_c, 9, 38, 0
6, 15974, Note_on_c, 9, 42, 0
6, 16020, Note_on_c, 9, 42, 50
6, 16020, Note_on_c, 9, 35, 100
6, 16034, Note_on_c, 9, 35, 0
6, 16034, Note_on_c, 9, 42, 0
6, 16080, Note_on_c, 9, 42, 50
6, 16094, Note_on_c, 9, 42, 0
6, 16140, Note_on_c, 9, 42, 50
6, 16140, Note_on_c, 9, 35, 100
6, 16154, Note_on_c, 9, 35, 0
6, 16154, Note_on_c, 9, 42, 0
6, 16200, Note_on_c, 9, 42, 50
6, 16200, Note_on_c, 9, 38, 100
6, 16214, Note_on_c, 9, 38, 0
6, 16214, Note_on_c, 9, 42, 0
6, 16260, Note_on_c, 9, 42, 50
6, 16274, Note_on_c, 9, 42, 0
6, 16320, Note_on_c, 9, 42, 50
6, 16320, Note_on_c, 9, 35, 100
6, 16334, Note_on_c, 9, 35, 0
6, 16334, Note_on_c, 9, 42, 0
6, 16380, Note_on_c, 9, 42, 50
6, 16380, Note_on_c, 9, 35, 100
6, 16394, Note_on_c, 9, 35, 0
6, 16394, Note_on_c, 9, 42, 0
6, 16440, Note_on_c, 9, 42, 50
6, 16440, Note_on_c, 9, 38, 100
6, 16454, Note_on_c, 9, 38, 0
6, 16454, Note_on_c, 9, 42, 0
6, 16500, Note_on_c, 9, 42, 50
6, 16514, Note_on_c, 9, 42, 0
6, 16560, Note_on_c, 9, 42, 50
6, 16560, Note_on_c, 9, 35, 100
6, 16574, Note_on_c, 9, 35, 0
6, 16574, Note_on_c, 9, 42, 0
6, 16620, Note_on_c, 9, 42, 50
6, 16620, Note_on_c, 9, 35, 100
6, 16634, Note_on_c, 9, 35, 0
6, 16634, Note_on_c, 9, 42, 0
6, 16680, Note_on_c, 9, 42, 50
6, 16680, Note_on_c, 9, 38, 100
6, 16694, Note_on_c, 9, 38, 0
6, 16694, Note_on_c, 9, 42, 0
6, 16740, Note_on_c, 9, 42, 50
6, 16754, Note_on_c, 9, 42, 0
6, 16800, Note_on_c, 9, 42, 50
6, 16800, Note_on_c, 9, 35, 100
6, 16814, Note_on_c, 9, 35, 0
6, 16814, Note_on_c, 9, 42, 0
6, 16860, Note_on_c, 9, 42, 50
6, 16874, Note_on_c, 9, 42, 0
6, 16920, Note_on_c, 9, 42, 50
6, 16920, Note_on_c, 9, 38, 100
6, 16934, Note_on_c, 9, 38, 0
6, 16934, Note_on_c, 9, 42, 0
6, 16980, Note_on_c, 9, 42, 50
6, 16980, Note_on_c, 9, 35, 100
6, 16994, Note_on_c, 9, 35, 0
6, 16994, Note_on_c, 9, 42, 0
6, 17040, Note_on_c, 9, 42, 50
6, 17054, Note_on_c, 9, 42, 0
6, 17100, Note_on_c, 9, 42, 50
6, 17100, Note_on_c, 9, 35, 100
6, 17114, Note_on_c, 9, 35, 0
6, 17114, Note_on_c, 9, 42, 0
6, 17160, Note_on_c, 9, 42, 50
6, 17160, Note_on_c, 9, 38, 100
6, 17174, Note_on_c, 9, 38, 0
6, 17174, Note_on_c, 9, 42, 0
6, 17220, Note_on_c, 9, 42, 50
6, 17234, Note_on_c, 9, 42, 0
6, 17280, Note_on_c, 9, 42, 50
6, 17280, Note_on_c, 9, 35, 100
6, 17294, Note_on_c, 9, 35, 0
6, 17294, Note_on_c, 9, 42, 0
6, 17340, Note_on_c, 9, 42, 50
6, 17340, Note_on_c, 9, 35, 100
6, 17354, Note_on_c, 9, 35, 0
6, 17354, Note_on_c, 9, 42, 0
6, 17400, Note_on_c, 9, 42, 50
6, 17400, Note_on_c, 9, 38, 100
6, 17414, Note_on_c, 9, 38, 0
6, 17414, Note_on_c, 9, 42, 0
6, 17460, Note_on_c, 9, 42, 50
6, 17474, Note_on_c, 9, 42, 0
6, 17520, Note_on_c, 9, 42, 50
6, 17520, Note_on_c, 9, 35, 100
6, 17534, Note_on_c, 9, 35, 0
6, 17534, Note_on_c, 9, 42, 0
6, 17580, Note_on_c, 9, 42, 50
6, 17580, Note_on_c, 9, 35, 100
6, 17594, Note_on_c, 9, 35, 0
6, 17594, Note_on_c, 9, 42, 0
6, 17640, Note_on_c, 9, 42, 50
6, 17640, Note_on_c, 9, 38, 100
6, 17654, Note_on_c, 9, 38, 0
6, 17654, Note_on_c, 9, 42, 0
6, 17700, Note_on_c, 9, 42, 50
6, 17714, Note_on_c, 9, 42, 0
6, 17760, Note_on_c, 9, 42, 50
6, 17760, Note_on_c, 9, 35, 100
6, 17774, Note_on_c, 9, 35, 0
6, 17774, Note_on_c, 9, 42, 0
6, 17820, Note_on_c, 9, 42, 50
6, 17834, Note_on_c, 9, 42, 0
6, 17880, Note_on_c, 9, 42, 50
6, 17880, Note_on_c, 9, 38, 100
6, 17894, Note_on_c, 9, 38, 0
6, 17894, Note_on_c, 9, 42, 0
6, 17940, Note_on_c, 9, 42, 50
6, 17940, Note_on_c, 9, 35, 100
6, 17954, Note_on_c, 9, 35, 0
6, 17954, Note_on_c, 9, 42, 0
6, 18000, Note_on_c, 9, 42, 50
6, 18014, Note_on_c, 9, 42, 0
6, 18060, Note_on_c, 9, 42, 50
6, 18060, Note_on_c, 9, 35, 100
6, 18074, Note_on_c, 9, 35, 0
6, 18074, Note_on_c, 9, 42, 0
6, 18120, Note_on_c, 9, 42, 50
6, 18120, Note_on_c, 9, 38, 100
6, 18134, Note_on_c, 9, 38, 0
6, 18134, Note_on_c, 9, 42, 0
6, 18180, Note_on_c, 9, 42, 50
6, 18194, Note_on_c, 9, 42, 0
6, 18240, Note_on_c, 9, 42, 50
6, 18240, Note_on_c, 9, 35, 100
6, 18254, Note_on_c, 9, 35, 0
6, 18254, Note_on_c, 9, 42, 0
6, 18300, Note_on_c, 9, 42, 50
6, 18300, Note_on_c, 9, 35, 100
6, 18314, Note_on_c, 9, 35, 0
6, 18314, Note_on_c, 9, 42, 0
6, 18360, Note_on_c, 9, 42, 50
6, 18360, Note_on_c, 9, 38, 100
6, 18374, Note_on_c, 9, 38, 0
6, 18374, Note_on_c, 9, 42, 0
6, 18420, Note_on_c, 9, 42, 50
6, 18434, Note_on_c, 9, 42, 0
6, 18480, Note_on_c, 9, 42, 50
6, 18480, Note_on_c, 9, 35, 100
6, 18494, Note_on_c, 9, 35, 0
6, 18494, Note_on_c, 9, 42, 0
6, 18540, Note_on_c, 9, 42, 50
6, 18540, Note_on_c, 9, 35, 100
6, 18554, Note_on_c, 9, 35, 0
6, 18554, Note_on_c, 9, 42, 0
6, 18600, Note_on_c, 9, 42, 50
6, 18600, Note_on_c, 9, 38, 100
6, 18614, Note_on_c, 9, 38, 0
6, 18614, Note_on_c, 9, 42, 0
6, 18660, Note_on_c, 9, 42, 50
6, 18674, Note_on_c, 9, 42, 0
6, 18720, Note_on_c, 9, 42, 50
6, 18720, Note_on_c, 9, 35, 100
6, 18734, Note_on_c, 9, 35, 0
6, 18734, Note_on_c, 9, 42, 0
6, 18780, Note_on_c, 9, 42, 50
6, 18794, Note_on_c, 9, 42, 0
6, 18840, Note_on_c, 9, 42, 50
6, 18840, Note_on_c, 9, 38, 100
6, 18854, Note_on_c, 9, 38, 0
6, 18854, Note_on_c, 9, 42, 0
6, 18900, Note_on_c, 9, 42, 50
6, 18900, Note_on_c, 9, 35, 100
6, 18914, Note_on_c, 9, 35, 0
6, 18914, Note_on_c, 9, 42, 0
6, 18960, Note_on_c, 9, 42, 50
6, 18974, Note_on_c, 9, 42, 0
6, 19020, Note_on_c, 9, 42, 50
6, 19020, Note_on_c, 9, 35, 100
6, 19034, Note_on_c, 9, 35, 0
6, 19034, Note_on_c, 9, 42, 0
6, 19080, Note_on_c, 9, 42, 50
6, 19080, Note_on_c, 9, 38, 100
6, 19094, Note_on_c, 9, 38, 0
6, 19094, Note_on_c, 9, 42, 0
6, 19140, Note_on_c, 9, 42, 50
6, 19154, Note_on_c, 9, 42, 0
6, 19200, Note_on_c, 9, 42, 50
6, 19200, Note_on_c, 9, 35, 100
6, 19214, Note_on_c, 9, 35, 0
6, 19214, Note_on_c, 9, 42, 0
6, 19260, Note_on_c, 9, 42, 50
6, 19260, Note_on_c, 9, 35, 100
6, 19274, Note_on_c, 9, 35, 0
6, 19274, Note_on_c, 9, 42, 0
6, 19320, Note_on_c, 9, 42, 50
6, 19320, Note_on_c, 9, 38, 100
6, 19334, Note_on_c, 9, 38, 0
6, 19334, Note_on_c, 9, 42, 0
6, 19380, Note_on_c, 9, 48, 100
6, 19380, Note_on_c, 9, 38, 100
6, 19380, Note_on_c, 9, 42, 50
6, 19394, Note_on_c, 9, 42, 0
6, 19394, Note_on_c, 9, 38, 0
6, 19394, Note_on_c, 9, 48, 0
6, 19440, Note_on_c, 9, 47, 100
6, 19440, Note_on_c, 9, 45, 100
6, 19440, Note_on_c, 9, 42, 50
6, 19440, Note_on_c, 9, 35, 100
6, 19454, Note_on_c, 9, 35, 0
6, 19454, Note_on_c, 9, 47, 0
6, 19454, Note_on_c, 9, 45, 0
6, 19454, Note_on_c, 9, 42, 0
6, 19500, Note_on_c, 9, 40, 100
6, 19500, Note_on_c, 9, 38, 100
6, 19500, Note_on_c, 9, 42, 50
6, 19500, Note_on_c, 9, 35, 100
6, 19514, Note_on_c, 9, 35, 0
6, 19514, Note_on_c, 9, 40, 0
6, 19514, Note_on_c, 9, 38, 0
6, 19514, Note_on_c, 9, 42, 0
6, 19560, Note_on_c, 9, 40, 100
6, 19560, Note_on_c, 9, 38, 100
6, 19560, Note_on_c, 9, 42, 50
6, 19574, Note_on_c, 9, 42, 0
6, 19574, Note_on_c, 9, 38, 0
6, 19574, Note_on_c, 9, 40, 0
6, 19620, Note_on_c, 9, 40, 100
6, 19620, Note_on_c, 9, 38, 100
6, 19620, Note_on_c, 9, 42, 50
6, 19634, Note_on_c, 9, 42, 0
6, 19634, Note_on_c, 9, 38, 0
6, 19634, Note_on_c, 9, 40, 0
6, 19680, Note_on_c, 9, 42, 50
6, 19680, Note_on_c, 9, 35, 100
6, 19694, Note_on_c, 9, 35, 0
6, 19694, Note_on_c, 9, 42, 0
6, 19740, Note_on_c, 9, 42, 50
6, 19754, Note_on_c, 9, 42, 0
6, 19800, Note_on_c, 9, 42, 50
6, 19800, Note_on_c, 9, 38, 100
6, 19814, Note_on_c, 9, 38, 0
6, 19814, Note_on_c, 9, 42, 0
6, 19860, Note_on_c, 9, 42, 50
6, 19860, Note_on_c, 9, 35, 100
6, 19874, Note_on_c, 9, 35, 0
6, 19874, Note_on_c, 9, 42, 0
6, 19920, Note_on_c, 9, 42, 50
6, 19934, Note_on_c, 9, 42, 0
6, 19980, Note_on_c, 9, 42, 50
6, 19980, Note_on_c, 9, 35, 100
6, 19994, Note_on_c, 9, 35, 0
6, 19994, Note_on_c, 9, 42, 0
6, 20040, Note_on_c, 9, 42, 50
6, 20040, Note_on_c, 9, 38, 100
6, 20054, Note_on_c, 9, 38, 0
6, 20054, Note_on_c, 9, 42, 0
6, 20100, Note_on_c, 9, 42, 50
6, 20114, Note_on_c, 9, 42, 0
6, 20160, Note_on_c, 9, 42, 50
6, 20160, Note_on_c, 9, 35, 100
6, 20174, Note_on_c, 9, 35, 0
6, 20174, Note_on_c, 9, 42, 0
6, 20220, Note_on_c, 9, 42, 50
6, 20220, Note_on_c, 9, 35, 100
6, 20234, Note_on_c, 9, 35, 0
6, 20234, Note_on_c, 9, 42, 0
6, 20280, Note_on_c, 9, 42, 50
6, 20280, Note_on_c, 9, 38, 100
6, 20294, Note_on_c, 9, 38, 0
6, 20294, Note_on_c, 9, 42, 0
6, 20340, Note_on_c, 9, 42, 50
6, 20354, Note_on_c, 9, 42, 0
6, 20400, Note_on_c, 9, 42, 50
6, 20400, Note_on_c, 9, 35, 100
6, 20414, Note_on_c, 9, 35, 0
6, 20414, Note_on_c, 9, 42, 0
6, 20460, Note_on_c, 9, 42, 50
6, 20460, Note_on_c, 9, 35, 100
6, 20474, Note_on_c, 9, 35, 0
6, 20474, Note_on_c, 9, 42, 0
6, 20520, Note_on_c, 9, 42, 50
6, 20520, Note_on_c, 9, 38, 100
6, 20534, Note_on_c, 9, 38, 0
6, 20534, Note_on_c, 9, 42, 0
6, 20580, Note_on_c, 9, 42, 50
6, 20594, Note_on_c, 9, 42, 0
6, 20640, Note_on_c, 9, 42, 50
6, 20640, Note_on_c, 9, 35, 100
6, 20654, Note_on_c, 9, 35, 0
6, 20654, Note_on_c, 9, 42, 0
6, 20700, Note_on_c, 9, 42, 50
6, 20714, Note_on_c, 9, 42, 0
6, 20760, Note_on_c, 9, 42, 50
6, 20760, Note_on_c, 9, 38, 100
6, 20774, Note_on_c, 9, 38, 0
6, 20774, Note_on_c, 9, 42, 0
6, 20820, Note_on_c, 9, 42, 50
6, 20820, Note_on_c, 9, 35, 100
6, 20834, Note_on_c, 9, 35, 0
6, 20834, Note_on_c, 9, 42, 0
6, 20880, Note_on_c, 9, 42, 50
6, 20894, Note_on_c, 9, 42, 0
6, 20940, Note_on_c, 9, 42, 50
6, 20940, Note_on_c, 9, 35, 100
6, 20954, Note_on_c, 9, 35, 0
6, 20954, Note_on_c, 9, 42, 0
6, 21000, Note_on_c, 9, 42, 50
6, 21000, Note_on_c, 9, 38, 100
6, 21014, Note_on_c, 9, 38, 0
6, 21014, Note_on_c, 9, 42, 0
6, 21060, Note_on_c, 9, 42, 50
6, 21074, Note_on_c, 9, 42, 0
6, 21120, Note_on_c, 9, 42, 50
6, 21120, Note_on_c, 9, 35, 100
6, 21134, Note_on_c, 9, 35, 0
6, 21134, Note_on_c, 9, 42, 0
6, 21180, Note_on_c, 9, 42, 50
6, 21180, Note_on_c, 9, 35, 100
6, 21194, Note_on_c, 9, 35, 0
6, 21194, Note_on_c, 9, 42, 0
6, 21240, Note_on_c, 9, 42, 50
6, 21240, Note_on_c, 9, 38, 100
6, 21254, Note_on_c, 9, 38, 0
6, 21254, Note_on_c, 9, 42, 0
6, 21300, Note_on_c, 9, 42, 50
6, 21314, Note_on_c, 9, 42, 0
6, 21360, Note_on_c, 9, 42, 50
6, 21360, Note_on_c, 9, 35, 100
6, 21374, Note_on_c, 9, 35, 0
6, 21374, Note_on_c, 9, 42, 0
6, 21420, Note_on_c, 9, 42, 50
6, 21420, Note_on_c, 9, 35, 100
6, 21434, Note_on_c, 9, 35, 0
6, 21434, Note_on_c, 9, 42, 0
6, 21480, Note_on_c, 9, 42, 50
6, 21480, Note_on_c, 9, 38, 100
6, 21494, Note_on_c, 9, 38, 0
6, 21494, Note_on_c, 9, 42, 0
6, 21540, Note_on_c, 9, 42, 50
6, 21554, Note_on_c, 9, 42, 0
6, 21600, Note_on_c, 9, 42, 50
6, 21600, Note_on_c, 9, 35, 100
6, 21614, Note_on_c, 9, 35, 0
6, 21614, Note_on_c, 9, 42, 0
6, 21660, Note_on_c, 9, 42, 50
6, 21674, Note_on_c, 9, 42, 0
6, 21720, Note_on_c, 9, 42, 50
6, 21720, Note_on_c, 9, 38, 100
6, 21734, Note_on_c, 9, 38, 0
6, 21734, Note_on_c, 9, 42, 0
6, 21780, Note_on_c, 9, 42, 50
6, 21780, Note_on_c, 9, 35, 100
6, 21794, Note_on_c, 9, 35, 0
6, 21794, Note_on_c, 9, 42, 0
6, 21840, Note_on_c, 9, 42, 50
6, 21854, Note_on_c, 9, 42, 0
6, 21900, Note_on_c, 9, 42, 50
6, 21900, Note_on_c, 9, 35, 100
6, 21914, Note_on_c, 9, 35, 0
6, 21914, Note_on_c, 9, 42, 0
6, 21960, Note_on_c, 9, 42, 50
6, 21960, Note_on_c, 9, 38, 100
6, 21974, Note_on_c, 9, 38, 0
6, 21974, Note_on_c, 9, 42, 0
6, 22020, Note_on_c, 9, 42, 50
6, 22034, Note_on_c, 9, 42, 0
6, 22080, Note_on_c, 9, 42, 50
6, 22080, Note_on_c, 9, 35, 100
6, 22094, Note_on_c, 9, 35, 0
6, 22094, Note_on_c, 9, 42, 0
6, 22140, Note_on_c, 9, 42, 50
6, 22140, Note_on_c, 9, 35, 100
6, 22154, Note_on_c, 9, 35, 0
6, 22154, Note_on_c, 9, 42, 0
6, 22200, Note_on_c, 9, 42, 50
6, 22200, Note_on_c, 9, 38, 100
6, 22214, Note_on_c, 9, 38, 0
6, 22214, Note_on_c, 9, 42, 0
6, 22260, Note_on_c, 9, 42, 50
6, 22274, Note_on_c, 9, 42, 0
6, 22320, Note_on_c, 9, 42, 50
6, 22320, Note_on_c, 9, 35, 100
6, 22334, Note_on_c, 9, 35, 0
6, 22334, Note_on_c, 9, 42, 0
6, 22380, Note_on_c, 9, 42, 50
6, 22380, Note_on_c, 9, 35, 100
6, 22394, Note_on_c, 9, 35, 0
6, 22394, Note_on_c, 9, 42, 0
6, 22440, Note_on_c, 9, 42, 50
6, 22440, Note_on_c, 9, 38, 100
6, 22454, Note_on_c, 9, 38, 0
6, 22454, Note_on_c, 9, 42, 0
6, 22500, Note_on_c, 9, 42, 50
6, 22514, Note_on_c, 9, 42, 0
6, 22560, Note_on_c, 9, 42, 50
6, 22560, Note_on_c, 9, 35, 100
6, 22574, Note_on_c, 9, 35, 0
6, 22574, Note_on_c, 9, 42, 0
6, 22620, Note_on_c, 9, 42, 50
6, 22634, Note_on_c, 9, 42, 0
6, 22680, Note_on_c, 9, 42, 50
6, 22680, Note_on_c, 9, 38, 100
6, 22694, Note_on_c, 9, 38, 0
6, 22694, Note_on_c, 9, 42, 0
6, 22740, Note_on_c, 9, 42, 50
6, 22740, Note_on_c, 9, 35, 100
6, 22754, Note_on_c, 9, 35, 0
6, 22754, Note_on_c, 9, 42, 0
6, 22800, Note_on_c, 9, 42, 50
6, 22814, Note_on_c, 9, 42, 0
6, 22860, Note_on_c, 9, 42, 50
6, 22860, Note_on_c, 9, 35, 100
6, 22874, Note_on_c, 9, 35, 0
6, 22874, Note_on_c, 9, 42, 0
6, 22920, Note_on_c, 9, 42, 50
6, 22920, Note_on_c, 9, 38, 100
6, 22934, Note_on_c, 9, 38, 0
6, 22934, Note_on_c, 9, 42, 0
6, 22980, Note_on_c, 9, 42, 50
6, 22994, Note_on_c, 9, 42, 0
6, 23040, Note_on_c, 9, 42, 50
6, 23040, Note_on_c, 9, 35, 100
6, 23054, Note_on_c, 9, 35, 0
6, 23054, Note_on_c, 9, 42, 0
6, 23100, Note_on_c, 9, 42, 50
6, 23100, Note_on_c, 9, 35, 100
6, 23114, Note_on_c, 9, 35, 0
6, 23114, Note_on_c, 9, 42, 0
6, 23160, Note_on_c, 9, 42, 50
6, 23160, Note_on_c, 9, 38, 100
6, 23174, Note_on_c, 9, 38, 0
6, 23174, Note_on_c, 9, 42, 0
6, 23220, Note_on_c, 9, 42, 50
6, 23234, Note_on_c, 9, 42, 0
6, 23280, Note_on_c, 9, 42, 50
6, 23280, Note_on_c, 9, 35, 100
6, 23294, Note_on_c, 9, 35, 0
6, 23294, Note_on_c, 9, 42, 0
6, 23340, Note_on_c, 9, 42, 50
6, 23340, Note_on_c, 9, 35, 100
6, 23354, Note_on_c, 9, 35, 0
6, 23354, Note_on_c, 9, 42, 0
6, 23400, Note_on_c, 9, 55, 100
6, 23400, Note_on_c, 9, 42, 50
6, 23400, Note_on_c, 9, 38, 100
6, 23414, Note_on_c, 9, 38, 0
6, 23414, Note_on_c, 9, 42, 0
6, 23414, Note_on_c, 9, 55, 0
6, 23460, Note_on_c, 9, 42, 50
6, 23474, Note_on_c, 9, 42, 0
6, 23520, Note_on_c, 9, 42, 50
6, 23520, Note_on_c, 9, 35, 100
6, 23534, Note_on_c, 9, 35, 0
6, 23534, Note_on_c, 9, 42, 0
6, 23580, Note_on_c, 9, 42, 50
6, 23594, Note_on_c, 9, 42, 0
6, 23640, Note_on_c, 9, 42, 50
6, 23640, Note_on_c, 9, 38, 100
6, 23654, Note_on_c, 9, 38, 0
6, 23654, Note_on_c, 9, 42, 0
6, 23700, Note_on_c, 9, 42, 50
6, 23700, Note_on_c, 9, 35, 100
6, 23714, Note_on_c, 9, 35, 0
6, 23714, Note_on_c, 9, 42, 0
6, 23760, Note_on_c, 9, 42, 50
6, 23774, Note_on_c, 9, 42, 0
6, 23820, Note_on_c, 9, 42, 50
6, 23820, Note_on_c, 9, 35, 100
6, 23834, Note_on_c, 9, 35, 0
6, 23834, Note_on_c, 9, 42, 0
6, 23880, Note_on_c, 9, 42, 50
6, 23880, Note_on_c, 9, 38, 100
6, 23894, Note_on_c, 9, 38, 0
6, 23894, Note_on_c, 9, 42, 0
6, 23940, Note_on_c, 9, 42, 50
6, 23954, Note_on_c, 9, 42, 0
6, 24000, Note_on_c, 9, 42, 50
6, 24000, Note_on_c, 9, 35, 100
6, 24014, Note_on_c, 9, 35, 0
6, 24014, Note_on_c, 9, 42, 0
6, 24060, Note_on_c, 9, 42, 50
6, 24060, Note_on_c, 9, 35, 100
6, 24074, Note_on_c, 9, 35, 0
6, 24074, Note_on_c, 9, 42, 0
6, 24120, Note_on_c, 9, 42, 50
6, 24120, Note_on_c, 9, 38, 100
6, 24134, Note_on_c, 9, 38, 0
6, 24134, Note_on_c, 9, 42, 0
6, 24180, Note_on_c, 9, 42, 50
6, 24194, Note_on_c, 9, 42, 0
6, 24240, Note_on_c, 9, 42, 50
6, 24240, Note_on_c, 9, 35, 100
6, 24254, Note_on_c, 9, 35, 0
6, 24254, Note_on_c, 9, 42, 0
6, 24300, Note_on_c, 9, 42, 50
6, 24300, Note_on_c, 9, 35, 100
6, 24314, Note_on_c, 9, 35, 0
6, 24314, Note_on_c, 9, 42, 0
6, 24360, Note_on_c, 9, 42, 50
6, 24360, Note_on_c, 9, 38, 100
6, 24374, Note_on_c, 9, 38, 0
6, 24374, Note_on_c, 9, 42, 0
6, 24420, Note_on_c, 9, 42, 50
6, 24434, Note_on_c, 9, 42, 0
6, 24480, Note_on_c, 9, 42, 50
6, 24480, Note_on_c, 9, 35, 100
6, 24494, Note_on_c, 9, 35, 0
6, 24494, Note_on_c, 9, 42, 0
6, 24540, Note_on_c, 9, 42, 50
6, 24554, Note_on_c, 9, 42, 0
6, 24600, Note_on_c, 9, 42, 50
6, 24600, Note_on_c, 9, 38, 100
6, 24614, Note_on_c, 9, 38, 0
6, 24614, Note_on_c, 9, 42, 0
6, 24660, Note_on_c, 9, 42, 50
6, 24660, Note_on_c, 9, 35, 100
6, 24674, Note_on_c, 9, 35, 0
6, 24674, Note_on_c, 9, 42, 0
6, 24720, Note_on_c, 9, 42, 50
6, 24734, Note_on_c, 9, 42, 0
6, 24780, Note_on_c, 9, 42, 50
6, 24780, Note_on_c, 9, 35, 100
6, 24794, Note_on_c, 9, 35, 0
6, 24794, Note_on_c, 9, 42, 0
6, 24840, Note_on_c, 9, 42, 50
6, 24840, Note_on_c, 9, 38, 100
6, 24854, Note_on_c, 9, 38, 0
6, 24854, Note_on_c, 9, 42, 0
6, 24900, Note_on_c, 9, 42, 50
6, 24914, Note_on_c, 9, 42, 0
6, 24960, Note_on_c, 9, 42, 50
6, 24960, Note_on_c, 9, 35, 100
6, 24974, Note_on_c, 9, 35, 0
6, 24974, Note_on_c, 9, 42, 0
6, 25020, Note_on_c, 9, 42, 50
6, 25020, Note_on_c, 9, 35, 100
6, 25034, Note_on_c, 9, 35, 0
6, 25034, Note_on_c, 9, 42, 0
6, 25080, Note_on_c, 9, 42, 50
6, 25080, Note_on_c, 9, 38, 100
6, 25094, Note_on_c, 9, 38, 0
6, 25094, Note_on_c, 9, 42, 0
6, 25140, Note_on_c, 9, 42, 50
6, 25154, Note_on_c, 9, 42, 0
6, 25200, Note_on_c, 9, 42, 50
6, 25200, Note_on_c, 9, 35, 100
6, 25214, Note_on_c, 9, 35, 0
6, 25214, Note_on_c, 9, 42, 0
6, 25260, Note_on_c, 9, 42, 50
6, 25260, Note_on_c, 9, 35, 100
6, 25274, Note_on_c, 9, 35, 0
6, 25274, Note_on_c, 9, 42, 0
6, 25320, Note_on_c, 9, 42, 50
6, 25320, Note_on_c, 9, 38, 100
6, 25334, Note_on_c, 9, 38, 0
6, 25334, Note_on_c, 9, 42, 0
6, 25380, Note_on_c, 9, 42, 50
6, 25394, Note_on_c, 9, 42, 0
6, 25440, Note_on_c, 9, 42, 50
6, 25440, Note_on_c, 9, 35, 100
6, 25454, Note_on_c, 9, 35, 0
6, 25454, Note_on_c, 9, 42, 0
6, 25500, Note_on_c, 9, 42, 50
6, 25514, Note_on_c, 9, 42, 0
6, 25560, Note_on_c, 9, 42, 50
6, 25560, Note_on_c, 9, 38, 100
6, 25574, Note_on_c, 9, 38, 0
6, 25574, Note_on_c, 9, 42, 0
6, 25620, Note_on_c, 9, 42, 50
6, 25620, Note_on_c, 9, 35, 100
6, 25634, Note_on_c, 9, 35, 0
6, 25634, Note_on_c, 9, 42, 0
6, 25680, Note_on_c, 9, 42, 50
6, 25694, Note_on_c, 9, 42, 0
6, 25740, Note_on_c, 9, 42, 50
6, 25740, Note_on_c, 9, 35, 100
6, 25754, Note_on_c, 9, 35, 0
6, 25754, Note_on_c, 9, 42, 0
6, 25800, Note_on_c, 9, 42, 50
6, 25800, Note_on_c, 9, 38, 100
6, 25814, Note_on_c, 9, 38, 0
6, 25814, Note_on_c, 9, 42, 0
6, 25860, Note_on_c, 9, 42, 50
6, 25874, Note_on_c, 9, 42, 0
6, 25920, Note_on_c, 9, 42, 50
6, 25920, Note_on_c, 9, 35, 100
6, 25934, Note_on_c, 9, 35, 0
6, 25934, Note_on_c, 9, 42, 0
6, 25980, Note_on_c, 9, 42, 50
6, 25980, Note_on_c, 9, 35, 100
6, 25994, Note_on_c, 9, 35, 0
6, 25994, Note_on_c, 9, 42, 0
6, 26040, Note_on_c, 9, 42, 50
6, 26040, Note_on_c, 9, 38, 100
6, 26054, Note_on_c, 9, 38, 0
6, 26054, Note_on_c, 9, 42, 0
6, 26100, Note_on_c, 9, 42, 50
6, 26114, Note_on_c, 9, 42, 0
6, 26160, Note_on_c, 9, 42, 50
6, 26160, Note_on_c, 9, 35, 100
6, 26174, Note_on_c, 9, 35, 0
6, 26174, Note_on_c, 9, 42, 0
6, 26220, Note_on_c, 9, 42, 50
6, 26220, Note_on_c, 9, 35, 100
6, 26234, Note_on_c, 9, 35, 0
6, 26234, Note_on_c, 9, 42, 0
6, 26280, Note_on_c, 9, 42, 50
6, 26280, Note_on_c, 9, 38, 100
6, 26294, Note_on_c, 9, 38, 0
6, 26294, Note_on_c, 9, 42, 0
6, 26340, Note_on_c, 9, 42, 50
6, 26354, Note_on_c, 9, 42, 0
6, 26400, Note_on_c, 9, 42, 50
6, 26400, Note_on_c, 9, 35, 100
6, 26414, Note_on_c, 9, 35, 0
6, 26414, Note_on_c, 9, 42, 0
6, 26460, Note_on_c, 9, 42, 50
6, 26474, Note_on_c, 9, 42, 0
6, 26520, Note_on_c, 9, 42, 50
6, 26520, Note_on_c, 9, 38, 100
6, 26534, Note_on_c, 9, 38, 0
6, 26534, Note_on_c, 9, 42, 0
6, 26580, Note_on_c, 9, 42, 50
6, 26580, Note_on_c, 9, 35, 100
6, 26594, Note_on_c, 9, 35, 0
6, 26594, Note_on_c, 9, 42, 0
6, 26640, Note_on_c, 9, 42, 50
6, 26654, Note_on_c, 9, 42, 0
6, 26700, Note_on_c, 9, 42, 50
6, 26700, Note_on_c, 9, 35, 100
6, 26714, Note_on_c, 9, 35, 0
6, 26714, Note_on_c, 9, 42, 0
6, 26760, Note_on_c, 9, 42, 50
6, 26760, Note_on_c, 9, 38, 100
6, 26774, Note_on_c, 9, 38, 0
6, 26774, Note_on_c, 9, 42, 0
6, 26820, Note_on_c, 9, 42, 50
6, 26834, Note_on_c, 9, 42, 0
6, 26880, Note_on_c, 9, 42, 50
6, 26880, Note_on_c, 9, 35, 100
6, 26894, Note_on_c, 9, 35, 0
6, 26894, Note_on_c, 9, 42, 0
6, 26940, Note_on_c, 9, 42, 50
6, 26940, Note_on_c, 9, 35, 100
6, 26954, Note_on_c, 9, 35, 0
6, 26954, Note_on_c, 9, 42, 0
6, 27000, Note_on_c, 9, 42, 50
6, 27000, Note_on_c, 9, 38, 100
6, 27014, Note_on_c, 9, 38, 0
6, 27014, Note_on_c, 9, 42, 0
6, 27060, Note_on_c, 9, 42, 50
6, 27074, Note_on_c, 9, 42, 0
6, 27120, Note_on_c, 9, 42, 50
6, 27120, Note_on_c, 9, 35, 100
6, 27134, Note_on_c, 9, 35, 0
6, 27134, Note_on_c, 9, 42, 0
6, 27180, Note_on_c, 9, 50, 100
6, 27180, Note_on_c, 9, 48, 100
6, 27180, Note_on_c, 9, 42, 50
6, 27180, Note_on_c, 9, 35, 100
6, 27194, Note_on_c, 9, 35, 0
6, 27194, Note_on_c, 9, 50, 0
6, 27194, Note_on_c, 9, 48, 0
6, 27194, Note_on_c, 9, 42, 0
6, 27240, Note_on_c, 9, 47, 100
6, 27240, Note_on_c, 9, 48, 100
6, 27240, Note_on_c, 9, 42, 50
6, 27254, Note_on_c, 9, 42, 0
6, 27254, Note_on_c, 9, 48, 0
6, 27254, Note_on_c, 9, 47, 0
6, 27300, Note_on_c, 9, 47, 100
6, 27300, Note_on_c, 9, 45, 100
6, 27300, Note_on_c, 9, 42, 50
6, 27314, Note_on_c, 9, 42, 0
6, 27314, Note_on_c, 9, 45, 0
6, 27314, Note_on_c, 9, 47, 0
6, 27360, Note_on_c, 9, 49, 100
6, 27360, Note_on_c, 9, 42, 50
6, 27360, Note_on_c, 9, 35, 100
6, 27374, Note_on_c, 9, 35, 0
6, 27374, Note_on_c, 9, 42, 0
6, 27374, Note_on_c, 9, 49, 0
6, 27420, Note_on_c, 9, 42, 50
6, 27434, Note_on_c, 9, 42, 0
6, 27480, Note_on_c, 9, 42, 50
6, 27480, Note_on_c, 9, 38, 100
6, 27494, Note_on_c, 9, 38, 0
6, 27494, Note_on_c, 9, 42, 0
6, 27540, Note_on_c, 9, 42, 50
6, 27540, Note_on_c, 9, 35, 100
6, 27554, Note_on_c, 9, 35, 0
6, 27554, Note_on_c, 9, 42, 0
6, 27600, Note_on_c, 9, 42, 50
6, 27614, Note_on_c, 9, 42, 0
6, 27660, Note_on_c, 9, 42, 50
6, 27660, Note_on_c, 9, 35, 100
6, 27674, Note_on_c, 9, 35, 0
6, 27674, Note_on_c, 9, 42, 0
6, 27720, Note_on_c, 9, 43, 100
6, 27720, Note_on_c, 9, 42, 50
6, 27734, Note_on_c, 9, 42, 0
6, 27734, Note_on_c, 9, 43, 0
6, 27780, Note_on_c, 9, 43, 100
6, 27780, Note_on_c, 9, 42, 50
6, 27794, Note_on_c, 9, 42, 0
6, 27794, Note_on_c, 9, 43, 0
6, 27840, Note_on_c, 9, 42, 50
6, 27840, Note_on_c, 9, 35, 100
6, 27854, Note_on_c, 9, 35, 0
6, 27854, Note_on_c, 9, 42, 0
6, 27900, Note_on_c, 9, 42, 50
6, 27900, Note_on_c, 9, 35, 100
6, 27914, Note_on_c, 9, 35, 0
6, 27914, Note_on_c, 9, 42, 0
6, 27960, Note_on_c, 9, 42, 50
6, 27960, Note_on_c, 9, 38, 100
6, 27974, Note_on_c, 9, 38, 0
6, 27974, Note_on_c, 9, 42, 0
6, 28020, Note_on_c, 9, 42, 50
6, 28034, Note_on_c, 9, 42, 0
6, 28080, Note_on_c, 9, 42, 50
6, 28080, Note_on_c, 9, 35, 100
6, 28094, Note_on_c, 9, 35, 0
6, 28094, Note_on_c, 9, 42, 0
6, 28140, Note_on_c, 9, 45, 100
6, 28140, Note_on_c, 9, 42, 50
6, 28154, Note_on_c, 9, 42, 0
6, 28154, Note_on_c, 9, 45, 0
6, 28200, Note_on_c, 9, 43, 100
6, 28200, Note_on_c, 9, 42, 50
6, 28214, Note_on_c, 9, 42, 0
6, 28214, Note_on_c, 9, 43, 0
6, 28260, Note_on_c, 9, 41, 100
6, 28260, Note_on_c, 9, 42, 50
6, 28274, Note_on_c, 9, 42, 0
6, 28274, Note_on_c, 9, 41, 0
6, 28320, Note_on_c, 9, 42, 50
6, 28320, Note_on_c, 9, 35, 100
6, 28334, Note_on_c, 9, 35, 0
6, 28334, Note_on_c, 9, 42, 0
6, 28380, Note_on_c, 9, 42, 50
6, 28394, Note_on_c, 9, 42, 0
6, 28440, Note_on_c, 9, 42, 50
6, 28440, Note_on_c, 9, 38, 100
6, 28454, Note_on_c, 9, 38, 0
6, 28454, Note_on_c, 9, 42, 0
6, 28500, Note_on_c, 9, 42, 50
6, 28500, Note_on_c, 9, 35, 100
6, 28514, Note_on_c, 9, 35, 0
6, 28514, Note_on_c, 9, 42, 0
6, 28560, Note_on_c, 9, 42, 50
6, 28574, Note_on_c, 9, 42, 0
6, 28620, Note_on_c, 9, 42, 50
6, 28620, Note_on_c, 9, 35, 100
6, 28634, Note_on_c, 9, 35, 0
6, 28634, Note_on_c, 9, 42, 0
6, 28680, Note_on_c, 9, 43, 100
6, 28680, Note_on_c, 9, 42, 50
6, 28694, Note_on_c, 9, 42, 0
6, 28694, Note_on_c, 9, 43, 0
6, 28740, Note_on_c, 9, 43, 100
6, 28740, Note_on_c, 9, 42, 50
6, 28754, Note_on_c, 9, 42, 0
6, 28754, Note_on_c, 9, 43, 0
6, 28800, Note_on_c, 9, 42, 50
6, 28800, Note_on_c, 9, 35, 100
6, 28814, Note_on_c, 9, 35, 0
6, 28814, Note_on_c, 9, 42, 0
6, 28860, Note_on_c, 9, 42, 50
6, 28860, Note_on_c, 9, 35, 100
6, 28874, Note_on_c, 9, 35, 0
6, 28874, Note_on_c, 9, 42, 0
6, 28920, Note_on_c, 9, 42, 50
6, 28920, Note_on_c, 9, 38, 100
6, 28934, Note_on_c, 9, 38, 0
6, 28934, Note_on_c, 9, 42, 0
6, 28980, Note_on_c, 9, 42, 50
6, 28994, Note_on_c, 9, 42, 0
6, 29040, Note_on_c, 9, 42, 50
6, 29040, Note_on_c, 9, 35, 100
6, 29054, Note_on_c, 9, 35, 0
6, 29054, Note_on_c, 9, 42, 0
6, 29100, Note_on_c, 9, 45, 100
6, 29100, Note_on_c, 9, 42, 50
6, 29114, Note_on_c, 9, 42, 0
6, 29114, Note_on_c, 9, 45, 0
6, 29160, Note_on_c, 9, 43, 100
6, 29160, Note_on_c, 9, 42, 50
6, 29174, Note_on_c, 9, 42, 0
6, 29174, Note_on_c, 9, 43, 0
6, 29220, Note_on_c, 9, 41, 100
6, 29220, Note_on_c, 9, 42, 50
6, 29234, Note_on_c, 9, 42, 0
6, 29234, Note_on_c, 9, 41, 0
6, 29280, Note_on_c, 9, 42, 50
6, 29280, Note_on_c, 9, 35, 100
6, 29294, Note_on_c, 9, 35, 0
6, 29294, Note_on_c, 9, 42, 0
6, 29340, Note_on_c, 9, 42, 50
6, 29354, Note_on_c, 9, 42, 0
6, 29400, Note_on_c, 9, 42, 50
6, 29400, Note_on_c, 9, 38, 100
6, 29414, Note_on_c, 9, 38, 0
6, 29414, Note_on_c, 9, 42, 0
6, 29460, Note_on_c, 9, 42, 50
6, 29460, Note_on_c, 9, 35, 100
6, 29474, Note_on_c, 9, 35, 0
6, 29474, Note_on_c, 9, 42, 0
6, 29520, Note_on_c, 9, 42, 50
6, 29534, Note_on_c, 9, 42, 0
6, 29580, Note_on_c, 9, 42, 50
6, 29580, Note_on_c, 9, 35, 100
6, 29594, Note_on_c, 9, 35, 0
6, 29594, Note_on_c, 9, 42, 0
6, 29640, Note_on_c, 9, 43, 100
6, 29640, Note_on_c, 9, 42, 50
6, 29654, Note_on_c, 9, 42, 0
6, 29654, Note_on_c, 9, 43, 0
6, 29700, Note_on_c, 9, 43, 100
6, 29700, Note_on_c, 9, 42, 50
6, 29714, Note_on_c, 9, 42, 0
6, 29714, Note_on_c, 9, 43, 0
6, 29760, Note_on_c, 9, 42, 50
6, 29760, Note_on_c, 9, 35, 100
6, 29774, Note_on_c, 9, 35, 0
6, 29774, Note_on_c, 9, 42, 0
6, 29820, Note_on_c, 9, 42, 50
6, 29820, Note_on_c, 9, 35, 100
6, 29834, Note_on_c, 9, 35, 0
6, 29834, Note_on_c, 9, 42, 0
6, 29880, Note_on_c, 9, 42, 50
6, 29880, Note_on_c, 9, 38, 100
6, 29894, Note_on_c, 9, 38, 0
6, 29894, Note_on_c, 9, 42, 0
6, 29940, Note_on_c, 9, 42, 50
6, 29954, Note_on_c, 9, 42, 0
6, 30000, Note_on_c, 9, 42, 50
6, 30000, Note_on_c, 9, 35, 100
6, 30014, Note_on_c, 9, 35, 0
6, 30014, Note_on_c, 9, 42, 0
6, 30060, Note_on_c, 9, 45, 100
6, 30060, Note_on_c, 9, 42, 50
6, 30074, Note_on_c, 9, 42, 0
6, 30074, Note_on_c, 9, 45, 0
6, 30120, Note_on_c, 9, 43, 100
6, 30120, Note_on_c, 9, 42, 50
6, 30134, Note_on_c, 9, 42, 0
6, 30134, Note_on_c, 9, 43, 0
6, 30180, Note_on_c, 9, 41, 100
6, 30180, Note_on_c, 9, 42, 50
6, 30194, Note_on_c, 9, 42, 0
6, 30194, Note_on_c, 9, 41, 0
6, 30240, Note_on_c, 9, 42, 50
6, 30240, Note_on_c, 9, 35, 100
6, 30254, Note_on_c, 9, 35, 0
6, 30254, Note_on_c, 9, 42, 0
6, 30300, Note_on_c, 9, 42, 50
6, 30314, Note_on_c, 9, 42, 0
6, 30360, Note_on_c, 9, 42, 50
6, 30360, Note_on_c, 9, 38, 100
6, 30374, Note_on_c, 9, 38, 0
6, 30374, Note_on_c, 9, 42, 0
6, 30420, Note_on_c, 9, 42, 50
6, 30420, Note_on_c, 9, 35, 100
6, 30434, Note_on_c, 9, 35, 0
6, 30434, Note_on_c, 9, 42, 0
6, 30480, Note_on_c, 9, 42, 50
6, 30494, Note_on_c, 9, 42, 0
6, 30540, Note_on_c, 9, 42, 50
6, 30540, Note_on_c, 9, 35, 100
6, 30554, Note_on_c, 9, 35, 0
6, 30554, Note_on_c, 9, 42, 0
6, 30600, Note_on_c, 9, 43, 100
6, 30600, Note_on_c, 9, 42, 50
6, 30614, Note_on_c, 9, 42, 0
6, 30614, Note_on_c, 9, 43, 0
6, 30660, Note_on_c, 9, 43, 100
6, 30660, Note_on_c, 9, 42, 50
6, 30674, Note_on_c, 9, 42, 0
6, 30674, Note_on_c, 9, 43, 0
6, 30720, Note_on_c, 9, 42, 50
6, 30720, Note_on_c, 9, 35, 100
6, 30734, Note_on_c, 9, 35, 0
6, 30734, Note_on_c, 9, 42, 0
6, 30780, Note_on_c, 9, 42, 50
6, 30780, Note_on_c, 9, 35, 100
6, 30794, Note_on_c, 9, 35, 0
6, 30794, Note_on_c, 9, 42, 0
6, 30840, Note_on_c, 9, 42, 50
6, 30840, Note_on_c, 9, 38, 100
6, 30854, Note_on_c, 9, 38, 0
6, 30854, Note_on_c, 9, 42, 0
6, 30900, Note_on_c, 9, 42, 50
6, 30914, Note_on_c, 9, 42, 0
6, 30960, Note_on_c, 9, 42, 50
6, 30960, Note_on_c, 9, 35, 100
6, 30974, Note_on_c, 9, 35, 0
6, 30974, Note_on_c, 9, 42, 0
6, 31020, Note_on_c, 9, 45, 100
6, 31020, Note_on_c, 9, 42, 50
6, 31034, Note_on_c, 9, 42, 0
6, 31034, Note_on_c, 9, 45, 0
6, 31080, Note_on_c, 9, 43, 100
6, 31080, Note_on_c, 9, 42, 50
6, 31094, Note_on_c, 9, 42, 0
6, 31094, Note_on_c, 9, 43, 0
6, 31140, Note_on_c, 9, 41, 100
6, 31140, Note_on_c, 9, 42, 50
6, 31154, Note_on_c, 9, 42, 0
6, 31154, Note_on_c, 9, 41, 0
6, 31200, Note_on_c, 9, 42, 50
6, 31200, Note_on_c, 9, 35, 100
6, 31214, Note_on_c, 9, 35, 0
6, 31214, Note_on_c, 9, 42, 0
6, 31260, Note_on_c, 9, 42, 50
6, 31274, Note_on_c, 9, 42, 0
6, 31320, Note_on_c, 9, 42, 50
6, 31320, Note_on_c, 9, 38, 100
6, 31334, Note_on_c, 9, 38, 0
6, 31334, Note_on_c, 9, 42, 0
6, 31380, Note_on_c, 9, 42, 50
6, 31380, Note_on_c, 9, 35, 100
6, 31394, Note_on_c, 9, 35, 0
6, 31394, Note_on_c, 9, 42, 0
6, 31440, Note_on_c, 9, 42, 50
6, 31454, Note_on_c, 9, 42, 0
6, 31500, Note_on_c, 9, 42, 50
6, 31500, Note_on_c, 9, 35, 100
6, 31514, Note_on_c, 9, 35, 0
6, 31514, Note_on_c, 9, 42, 0
6, 31560, Note_on_c, 9, 42, 50
6, 31560, Note_on_c, 9, 38, 100
6, 31574, Note_on_c, 9, 38, 0
6, 31574, Note_on_c, 9, 42, 0
6, 31620, Note_on_c, 9, 42, 50
6, 31634, Note_on_c, 9, 42, 0
6, 31680, Note_on_c, 9, 42, 50
6, 31680, Note_on_c, 9, 35, 100
6, 31694, Note_on_c, 9, 35, 0
6, 31694, Note_on_c, 9, 42, 0
6, 31740, Note_on_c, 9, 42, 50
6, 31740, Note_on_c, 9, 35, 100
6, 31754, Note_on_c, 9, 35, 0
6, 31754, Note_on_c, 9, 42, 0
6, 31800, Note_on_c, 9, 42, 50
6, 31800, Note_on_c, 9, 38, 100
6, 31814, Note_on_c, 9, 38, 0
6, 31814, Note_on_c, 9, 42, 0
6, 31860, Note_on_c, 9, 42, 50
6, 31874, Note_on_c, 9, 42, 0
6, 31920, Note_on_c, 9, 42, 50
6, 31920, Note_on_c, 9, 35, 100
6, 31934, Note_on_c, 9, 35, 0
6, 31934, Note_on_c, 9, 42, 0
6, 31980, Note_on_c, 9, 42, 50
6, 31980, Note_on_c, 9, 35, 100
6, 31994, Note_on_c, 9, 35, 0
6, 31994, Note_on_c, 9, 42, 0
6, 32040, Note_on_c, 9, 42, 50
6, 32040, Note_on_c, 9, 38, 100
6, 32054, Note_on_c, 9, 38, 0
6, 32054, Note_on_c, 9, 42, 0
6, 32100, Note_on_c, 9, 42, 50
6, 32114, Note_on_c, 9, 42, 0
6, 32160, Note_on_c, 9, 42, 50
6, 32160, Note_on_c, 9, 35, 100
6, 32174, Note_on_c, 9, 35, 0
6, 32174, Note_on_c, 9, 42, 0
6, 32220, Note_on_c, 9, 42, 50
6, 32234, Note_on_c, 9, 42, 0
6, 32280, Note_on_c, 9, 42, 50
6, 32280, Note_on_c, 9, 38, 100
6, 32294, Note_on_c, 9, 38, 0
6, 32294, Note_on_c, 9, 42, 0
6, 32340, Note_on_c, 9, 42, 50
6, 32340, Note_on_c, 9, 35, 100
6, 32354, Note_on_c, 9, 35, 0
6, 32354, Note_on_c, 9, 42, 0
6, 32400, Note_on_c, 9, 42, 50
6, 32414, Note_on_c, 9, 42, 0
6, 32460, Note_on_c, 9, 42, 50
6, 32460, Note_on_c, 9, 35, 100
6, 32474, Note_on_c, 9, 35, 0
6, 32474, Note_on_c, 9, 42, 0
6, 32520, Note_on_c, 9, 42, 50
6, 32520, Note_on_c, 9, 38, 100
6, 32534, Note_on_c, 9, 38, 0
6, 32534, Note_on_c, 9, 42, 0
6, 32580, Note_on_c, 9, 42, 50
6, 32594, Note_on_c, 9, 42, 0
6, 32640, Note_on_c, 9, 42, 50
6, 32640, Note_on_c, 9, 35, 100
6, 32654, Note_on_c, 9, 35, 0
6, 32654, Note_on_c, 9, 42, 0
6, 32700, Note_on_c, 9, 42, 50
6, 32700, Note_on_c, 9, 35, 100
6, 32714, Note_on_c, 9, 35, 0
6, 32714, Note_on_c, 9, 42, 0
6, 32760, Note_on_c, 9, 42, 50
6, 32760, Note_on_c, 9, 38, 100
6, 32774, Note_on_c, 9, 38, 0
6, 32774, Note_on_c, 9, 42, 0
6, 32820, Note_on_c, 9, 42, 50
6, 32834, Note_on_c, 9, 42, 0
6, 32880, Note_on_c, 9, 42, 50
6, 32880, Note_on_c, 9, 35, 100
6, 32894, Note_on_c, 9, 35, 0
6, 32894, Note_on_c, 9, 42, 0
6, 32940, Note_on_c, 9, 42, 50
6, 32940, Note_on_c, 9, 35, 100
6, 32954, Note_on_c, 9, 35, 0
6, 32954, Note_on_c, 9, 42, 0
6, 33000, Note_on_c, 9, 42, 50
6, 33000, Note_on_c, 9, 38, 100
6, 33014, Note_on_c, 9, 38, 0
6, 33014, Note_on_c, 9, 42, 0
6, 33060, Note_on_c, 9, 42, 50
6, 33074, Note_on_c, 9, 42, 0
6, 33120, Note_on_c, 9, 42, 50
6, 33120, Note_on_c, 9, 35, 100
6, 33134, Note_on_c, 9, 35, 0
6, 33134, Note_on_c, 9, 42, 0
6, 33180, Note_on_c, 9, 42, 50
6, 33194, Note_on_c, 9, 42, 0
6, 33240, Note_on_c, 9, 42, 50
6, 33240, Note_on_c, 9, 38, 100
6, 33254, Note_on_c, 9, 38, 0
6, 33254, Note_on_c, 9, 42, 0
6, 33300, Note_on_c, 9, 42, 50
6, 33300, Note_on_c, 9, 35, 100
6, 33314, Note_on_c, 9, 35, 0
6, 33314, Note_on_c, 9, 42, 0
6, 33360, Note_on_c, 9, 42, 50
6, 33374, Note_on_c, 9, 42, 0
6, 33420, Note_on_c, 9, 42, 50
6, 33420, Note_on_c, 9, 35, 100
6, 33434, Note_on_c, 9, 35, 0
6, 33434, Note_on_c, 9, 42, 0
6, 33480, Note_on_c, 9, 42, 50
6, 33480, Note_on_c, 9, 38, 100
6, 33494, Note_on_c, 9, 38, 0
6, 33494, Note_on_c, 9, 42, 0
6, 33540, Note_on_c, 9, 42, 50
6, 33554, Note_on_c, 9, 42, 0
6, 33600, Note_on_c, 9, 42, 50
6, 33600, Note_on_c, 9, 35, 100
6, 33614, Note_on_c, 9, 35, 0
6, 33614, Note_on_c, 9, 42, 0
6, 33660, Note_on_c, 9, 42, 50
6, 33660, Note_on_c, 9, 35, 100
6, 33674, Note_on_c, 9, 35, 0
6, 33674, Note_on_c, 9, 42, 0
6, 33720, Note_on_c, 9, 42, 50
6, 33720, Note_on_c, 9, 38, 100
6, 33734, Note_on_c, 9, 38, 0
6, 33734, Note_on_c, 9, 42, 0
6, 33780, Note_on_c, 9, 42, 50
6, 33794, Note_on_c, 9, 42, 0
6, 33840, Note_on_c, 9, 42, 50
6, 33840, Note_on_c, 9, 35, 100
6, 33854, Note_on_c, 9, 35, 0
6, 33854, Note_on_c, 9, 42, 0
6, 33900, Note_on_c, 9, 42, 50
6, 33900, Note_on_c, 9, 35, 100
6, 33914, Note_on_c, 9, 35, 0
6, 33914, Note_on_c, 9, 42, 0
6, 33960, Note_on_c, 9, 42, 50
6, 33960, Note_on_c, 9, 38, 100
6, 33974, Note_on_c, 9, 38, 0
6, 33974, Note_on_c, 9, 42, 0
6, 34020, Note_on_c, 9, 42, 50
6, 34034, Note_on_c, 9, 42, 0
6, 34080, Note_on_c, 9, 42, 50
6, 34080, Note_on_c, 9, 35, 100
6, 34094, Note_on_c, 9, 35, 0
6, 34094, Note_on_c, 9, 42, 0
6, 34140, Note_on_c, 9, 42, 50
6, 34154, Note_on_c, 9, 42, 0
6, 34200, Note_on_c, 9, 42, 50
6, 34200, Note_on_c, 9, 38, 100
6, 34214, Note_on_c, 9, 38, 0
6, 34214, Note_on_c, 9, 42, 0
6, 34260, Note_on_c, 9, 42, 50
6, 34260, Note_on_c, 9, 35, 100
6, 34274, Note_on_c, 9, 35, 0
6, 34274, Note_on_c, 9, 42, 0
6, 34320, Note_on_c, 9, 42, 50
6, 34334, Note_on_c, 9, 42, 0
6, 34380, Note_on_c, 9, 42, 50
6, 34380, Note_on_c, 9, 35, 100
6, 34394, Note_on_c, 9, 35, 0
6, 34394, Note_on_c, 9, 42, 0
6, 34440, Note_on_c, 9, 42, 50
6, 34440, Note_on_c, 9, 38, 100
6, 34454, Note_on_c, 9, 38, 0
6, 34454, Note_on_c, 9, 42, 0
6, 34500, Note_on_c, 9, 42, 50
6, 34514, Note_on_c, 9, 42, 0
6, 34560, Note_on_c, 9, 42, 50
6, 34560, Note_on_c, 9, 35, 100
6, 34574, Note_on_c, 9, 35, 0
6, 34574, Note_on_c, 9, 42, 0
6, 34620, Note_on_c, 9, 42, 50
6, 34620, Note_on_c, 9, 35, 100
6, 34634, Note_on_c, 9, 35, 0
6, 34634, Note_on_c, 9, 42, 0
6, 34680, Note_on_c, 9, 42, 50
6, 34680, Note_on_c, 9, 38, 100
6, 34694, Note_on_c, 9, 38, 0
6, 34694, Note_on_c, 9, 42, 0
6, 34740, Note_on_c, 9, 42, 50
6, 34754, Note_on_c, 9, 42, 0
6, 34800, Note_on_c, 9, 42, 50
6, 34800, Note_on_c, 9, 35, 100
6, 34814, Note_on_c, 9, 35, 0
6, 34814, Note_on_c, 9, 42, 0
6, 34860, Note_on_c, 9, 42, 50
6, 34860, Note_on_c, 9, 35, 100
6, 34874, Note_on_c, 9, 35, 0
6, 34874, Note_on_c, 9, 42, 0
6, 34920, Note_on_c, 9, 42, 50
6, 34920, Note_on_c, 9, 38, 100
6, 34934, Note_on_c, 9, 38, 0
6, 34934, Note_on_c, 9, 42, 0
6, 34980, Note_on_c, 9, 42, 50
6, 34994, Note_on_c, 9, 42, 0
6, 35040, Note_on_c, 9, 42, 50
6, 35040, Note_on_c, 9, 35, 100
6, 35054, Note_on_c, 9, 35, 0
6, 35054, Note_on_c, 9, 42, 0
6, 35100, Note_on_c, 9, 42, 50
6, 35114, Note_on_c, 9, 42, 0
6, 35160, Note_on_c, 9, 42, 50
6, 35160, Note_on_c, 9, 38, 100
6, 35174, Note_on_c, 9, 38, 0
6, 35174, Note_on_c, 9, 42, 0
6, 35220, Note_on_c, 9, 42, 50
6, 35220, Note_on_c, 9, 35, 100
6, 35234, Note_on_c, 9, 35, 0
6, 35234, Note_on_c, 9, 42, 0
6, 35280, Note_on_c, 9, 42, 50
6, 35294, Note_on_c, 9, 42, 0
6, 35340, Note_on_c, 9, 42, 50
6, 35340, Note_on_c, 9, 35, 100
6, 35354, Note_on_c, 9, 35, 0
6, 35354, Note_on_c, 9, 42, 0
6, 35400, Note_on_c, 9, 42, 50
6, 35400, Note_on_c, 9, 38, 100
6, 35414, Note_on_c, 9, 38, 0
6, 35414, Note_on_c, 9, 42, 0
6, 35460, Note_on_c, 9, 42, 50
6, 35474, Note_on_c, 9, 42, 0
6, 35520, Note_on_c, 9, 42, 50
6, 35520, Note_on_c, 9, 35, 100
6, 35534, Note_on_c, 9, 35, 0
6, 35534, Note_on_c, 9, 42, 0
6, 35580, Note_on_c, 9, 42, 50
6, 35580, Note_on_c, 9, 35, 100
6, 35594, Note_on_c, 9, 35, 0
6, 35594, Note_on_c, 9, 42, 0
6, 35640, Note_on_c, 9, 42, 50
6, 35640, Note_on_c, 9, 38, 100
6, 35654, Note_on_c, 9, 38, 0
6, 35654, Note_on_c, 9, 42, 0
6, 35700, Note_on_c, 9, 42, 50
6, 35714, Note_on_c, 9, 42, 0
6, 35760, Note_on_c, 9, 42, 50
6, 35760, Note_on_c, 9, 35, 100
6, 35774, Note_on_c, 9, 35, 0
6, 35774, Note_on_c, 9, 42, 0
6, 35820, Note_on_c, 9, 42, 50
6, 35820, Note_on_c, 9, 35, 100
6, 35834, Note_on_c, 9, 35, 0
6, 35834, Note_on_c, 9, 42, 0
6, 35880, Note_on_c, 9, 42, 50
6, 35880, Note_on_c, 9, 38, 100
6, 35894, Note_on_c, 9, 38, 0
6, 35894, Note_on_c, 9, 42, 0
6, 35940, Note_on_c, 9, 42, 50
6, 35954, Note_on_c, 9, 42, 0
6, 36000, Note_on_c, 9, 42, 50
6, 36000, Note_on_c, 9, 35, 100
6, 36014, Note_on_c, 9, 35, 0
6, 36014, Note_on_c, 9, 42, 0
6, 36060, Note_on_c, 9, 42, 50
6, 36074, Note_on_c, 9, 42, 0
6, 36120, Note_on_c, 9, 42, 50
6, 36120, Note_on_c, 9, 38, 100
6, 36134, Note_on_c, 9, 38, 0
6, 36134, Note_on_c, 9, 42, 0
6, 36180, Note_on_c, 9, 42, 50
6, 36180, Note_on_c, 9, 35, 100
6, 36194, Note_on_c, 9, 35, 0
6, 36194, Note_on_c, 9, 42, 0
6, 36240, Note_on_c, 9, 42, 50
6, 36254, Note_on_c, 9, 42, 0
6, 36300, Note_on_c, 9, 42, 50
6, 36300, Note_on_c, 9, 35, 100
6, 36314, Note_on_c, 9, 35, 0
6, 36314, Note_on_c, 9, 42, 0
6, 36360, Note_on_c, 9, 42, 50
6, 36360, Note_on_c, 9, 38, 100
6, 36374, Note_on_c, 9, 38, 0
6, 36374, Note_on_c, 9, 42, 0
6, 36420, Note_on_c, 9, 42, 50
6, 36434, Note_on_c, 9, 42, 0
6, 36480, Note_on_c, 9, 42, 50
6, 36480, Note_on_c, 9, 35, 100
6, 36494, Note_on_c, 9, 35, 0
6, 36494, Note_on_c, 9, 42, 0
6, 36540, Note_on_c, 9, 42, 50
6, 36540, Note_on_c, 9, 35, 100
6, 36554, Note_on_c, 9, 35, 0
6, 36554, Note_on_c, 9, 42, 0
6, 36600, Note_on_c, 9, 42, 50
6, 36600, Note_on_c, 9, 38, 100
6, 36614, Note_on_c, 9, 38, 0
6, 36614, Note_on_c, 9, 42, 0
6, 36660, Note_on_c, 9, 42, 50
6, 36674, Note_on_c, 9, 42, 0
6, 36720, Note_on_c, 9, 42, 50
6, 36720, Note_on_c, 9, 35, 100
6, 36734, Note_on_c, 9, 35, 0
6, 36734, Note_on_c, 9, 42, 0
6, 36780, Note_on_c, 9, 42, 50
6, 36780, Note_on_c, 9, 35, 100
6, 36794, Note_on_c, 9, 35, 0
6, 36794, Note_on_c, 9, 42, 0
6, 36840, Note_on_c, 9, 42, 50
6, 36840, Note_on_c, 9, 38, 100
6, 36854, Note_on_c, 9, 38, 0
6, 36854, Note_on_c, 9, 42, 0
6, 36900, Note_on_c, 9, 42, 50
6, 36914, Note_on_c, 9, 42, 0
6, 36960, Note_on_c, 9, 42, 50
6, 36960, Note_on_c, 9, 35, 100
6, 36974, Note_on_c, 9, 35, 0
6, 36974, Note_on_c, 9, 42, 0
6, 37020, Note_on_c, 9, 42, 50
6, 37034, Note_on_c, 9, 42, 0
6, 37080, Note_on_c, 9, 42, 50
6, 37080, Note_on_c, 9, 38, 100
6, 37094, Note_on_c, 9, 38, 0
6, 37094, Note_on_c, 9, 42, 0
6, 37140, Note_on_c, 9, 42, 50
6, 37140, Note_on_c, 9, 35, 100
6, 37154, Note_on_c, 9, 35, 0
6, 37154, Note_on_c, 9, 42, 0
6, 37200, Note_on_c, 9, 42, 50
6, 37214, Note_on_c, 9, 42, 0
6, 37260, Note_on_c, 9, 42, 50
6, 37260, Note_on_c, 9, 35, 100
6, 37274, Note_on_c, 9, 35, 0
6, 37274, Note_on_c, 9, 42, 0
6, 37320, Note_on_c, 9, 42, 50
6, 37320, Note_on_c, 9, 38, 100
6, 37334, Note_on_c, 9, 38, 0
6, 37334, Note_on_c, 9, 42, 0
6, 37380, Note_on_c, 9, 42, 50
6, 37394, Note_on_c, 9, 42, 0
6, 37440, Note_on_c, 9, 42, 50
6, 37440, Note_on_c, 9, 35, 100
6, 37454, Note_on_c, 9, 35, 0
6, 37454, Note_on_c, 9, 42, 0
6, 37500, Note_on_c, 9, 42, 50
6, 37500, Note_on_c, 9, 35, 100
6, 37514, Note_on_c, 9, 35, 0
6, 37514, Note_on_c, 9, 42, 0
6, 37560, Note_on_c, 9, 42, 50
6, 37560, Note_on_c, 9, 38, 100
6, 37574, Note_on_c, 9, 38, 0
6, 37574, Note_on_c, 9, 42, 0
6, 37620, Note_on_c, 9, 42, 50
6, 37634, Note_on_c, 9, 42, 0
6, 37680, Note_on_c, 9, 42, 50
6, 37680, Note_on_c, 9, 35, 100
6, 37694, Note_on_c, 9, 35, 0
6, 37694, Note_on_c, 9, 42, 0
6, 37740, Note_on_c, 9, 42, 50
6, 37740, Note_on_c, 9, 35, 100
6, 37754, Note_on_c, 9, 35, 0
6, 37754, Note_on_c, 9, 42, 0
6, 37800, Note_on_c, 9, 42, 50
6, 37800, Note_on_c, 9, 38, 100
6, 37814, Note_on_c, 9, 38, 0
6, 37814, Note_on_c, 9, 42, 0
6, 37860, Note_on_c, 9, 42, 50
6, 37874, Note_on_c, 9, 42, 0
6, 37920, Note_on_c, 9, 42, 50
6, 37920, Note_on_c, 9, 35, 100
6, 37934, Note_on_c, 9, 35, 0
6, 37934, Note_on_c, 9, 42, 0
6, 37980, Note_on_c, 9, 42, 50
6, 37994, Note_on_c, 9, 42, 0
6, 38040, Note_on_c, 9, 42, 50
6, 38040, Note_on_c, 9, 38, 100
6, 38054, Note_on_c, 9, 38, 0
6, 38054, Note_on_c, 9, 42, 0
6, 38100, Note_on_c, 9, 42, 50
6, 38100, Note_on_c, 9, 35, 100
6, 38114, Note_on_c, 9, 35, 0
6, 38114, Note_on_c, 9, 42, 0
6, 38160, Note_on_c, 9, 42, 50
6, 38174, Note_on_c, 9, 42, 0
6, 38220, Note_on_c, 9, 42, 50
6, 38220, Note_on_c, 9, 35, 100
6, 38234, Note_on_c, 9, 35, 0
6, 38234, Note_on_c, 9, 42, 0
6, 38280, Note_on_c, 9, 42, 50
6, 38280, Note_on_c, 9, 38, 100
6, 38294, Note_on_c, 9, 38, 0
6, 38294, Note_on_c, 9, 42, 0
6, 38340, Note_on_c, 9, 42, 50
6, 38354, Note_on_c, 9, 42, 0
6, 38400, Note_on_c, 9, 42, 50
6, 38400, Note_on_c, 9, 35, 100
6, 38414, Note_on_c, 9, 35, 0
6, 38414, Note_on_c, 9, 42, 0
6, 38460, Note_on_c, 9, 42, 50
6, 38460, Note_on_c, 9, 35, 100
6, 38474, Note_on_c, 9, 35, 0
6, 38474, Note_on_c, 9, 42, 0
6, 38520, Note_on_c, 9, 42, 50
6, 38520, Note_on_c, 9, 38, 100
6, 38534, Note_on_c, 9, 38, 0
6, 38534, Note_on_c, 9, 42, 0
6, 38580, Note_on_c, 9, 42, 50
6, 38594, Note_on_c, 9, 42, 0
6, 38640, Note_on_c, 9, 42, 50
6, 38640, Note_on_c, 9, 35, 100
6, 38654, Note_on_c, 9, 35, 0
6, 38654, Note_on_c, 9, 42, 0
6, 38700, Note_on_c, 9, 42, 50
6, 38700, Note_on_c, 9, 35, 100
6, 38714, Note_on_c, 9, 35, 0
6, 38714, Note_on_c, 9, 42, 0
6, 38760, Note_on_c, 9, 42, 50
6, 38760, Note_on_c, 9, 38, 100
6, 38774, Note_on_c, 9, 38, 0
6, 38774, Note_on_c, 9, 42, 0
6, 38820, Note_on_c, 9, 42, 50
6, 38834, Note_on_c, 9, 42, 0
6, 38880, Note_on_c, 9, 42, 50
6, 38880, Note_on_c, 9, 35, 100
6, 38894, Note_on_c, 9, 35, 0
6, 38894, Note_on_c, 9, 42, 0
6, 38940, Note_on_c, 9, 42, 50
6, 38954, Note_on_c, 9, 42, 0
6, 39000, Note_on_c, 9, 42, 50
6, 39000, Note_on_c, 9, 38, 100
6, 39014, Note_on_c, 9, 38, 0
6, 39014, Note_on_c, 9, 42, 0
6, 39060, Note_on_c, 9, 42, 50
6, 39060, Note_on_c, 9, 35, 100
6, 39074, Note_on_c, 9, 35, 0
6, 39074, Note_on_c, 9, 42, 0
6, 39120, Note_on_c, 9, 42, 50
6, 39134, Note_on_c, 9, 42, 0
6, 39180, Note_on_c, 9, 42, 50
6, 39180, Note_on_c, 9, 35, 100
6, 39194, Note_on_c, 9, 35, 0
6, 39194, Note_on_c, 9, 42, 0
6, 39240, Note_on_c, 9, 42, 50
6, 39240, Note_on_c, 9, 38, 100
6, 39254, Note_on_c, 9, 38, 0
6, 39254, Note_on_c, 9, 42, 0
6, 39300, Note_on_c, 9, 42, 50
6, 39314, Note_on_c, 9, 42, 0
6, 39360, Note_on_c, 9, 42, 50
6, 39360, Note_on_c, 9, 35, 100
6, 39374, Note_on_c, 9, 35, 0
6, 39374, Note_on_c, 9, 42, 0
6, 39420, Note_on_c, 9, 42, 50
6, 39420, Note_on_c, 9, 35, 100
6, 39434, Note_on_c, 9, 35, 0
6, 39434, Note_on_c, 9, 42, 0
6, 39480, Note_on_c, 9, 42, 50
6, 39480, Note_on_c, 9, 38, 100
6, 39494, Note_on_c, 9, 38, 0
6, 39494, Note_on_c, 9, 42, 0
6, 39540, Note_on_c, 9, 42, 50
6, 39554, Note_on_c, 9, 42, 0
6, 39600, Note_on_c, 9, 42, 50
6, 39600, Note_on_c, 9, 35, 100
6, 39614, Note_on_c, 9, 35, 0
6, 39614, Note_on_c, 9, 42, 0
6, 39660, Note_on_c, 9, 42, 50
6, 39660, Note_on_c, 9, 35, 100
6, 39674, Note_on_c, 9, 35, 0
6, 39674, Note_on_c, 9, 42, 0
6, 39720, Note_on_c, 9, 42, 50
6, 39720, Note_on_c, 9, 38, 100
6, 39734, Note_on_c, 9, 38, 0
6, 39734, Note_on_c, 9, 42, 0
6, 39780, Note_on_c, 9, 42, 50
6, 39794, Note_on_c, 9, 42, 0
6, 39840, Note_on_c, 9, 42, 50
6, 39840, Note_on_c, 9, 35, 100
6, 39854, Note_on_c, 9, 35, 0
6, 39854, Note_on_c, 9, 42, 0
6, 39900, Note_on_c, 9, 42, 50
6, 39914, Note_on_c, 9, 42, 0
6, 39960, Note_on_c, 9, 42, 50
6, 39960, Note_on_c, 9, 38, 100
6, 39974, Note_on_c, 9, 38, 0
6, 39974, Note_on_c, 9, 42, 0
6, 40020, Note_on_c, 9, 42, 50
6, 40020, Note_on_c, 9, 35, 100
6, 40034, Note_on_c, 9, 35, 0
6, 40034, Note_on_c, 9, 42, 0
6, 40080, Note_on_c, 9, 42, 50
6, 40094, Note_on_c, 9, 42, 0
6, 40140, Note_on_c, 9, 42, 50
6, 40140, Note_on_c, 9, 35, 100
6, 40154, Note_on_c, 9, 35, 0
6, 40154, Note_on_c, 9, 42, 0
6, 40200, Note_on_c, 9, 42, 50
6, 40200, Note_on_c, 9, 38, 100
6, 40214, Note_on_c, 9, 38, 0
6, 40214, Note_on_c, 9, 42, 0
6, 40260, Note_on_c, 9, 42, 50
6, 40274, Note_on_c, 9, 42, 0
6, 40320, Note_on_c, 9, 42, 50
6, 40320, Note_on_c, 9, 35, 100
6, 40334, Note_on_c, 9, 35, 0
6, 40334, Note_on_c, 9, 42, 0
6, 40380, Note_on_c, 9, 42, 50
6, 40380, Note_on_c, 9, 35, 100
6, 40394, Note_on_c, 9, 35, 0
6, 40394, Note_on_c, 9, 42, 0
6, 40440, Note_on_c, 9, 42, 50
6, 40440, Note_on_c, 9, 38, 100
6, 40454, Note_on_c, 9, 38, 0
6, 40454, Note_on_c, 9, 42, 0
6, 40500, Note_on_c, 9, 42, 50
6, 40514, Note_on_c, 9, 42, 0
6, 40560, Note_on_c, 9, 42, 50
6, 40560, Note_on_c, 9, 35, 100
6, 40574, Note_on_c, 9, 35, 0
6, 40574, Note_on_c, 9, 42, 0
6, 40620, Note_on_c, 9, 42, 50
6, 40620, Note_on_c, 9, 35, 100
6, 40634, Note_on_c, 9, 35, 0
6, 40634, Note_on_c, 9, 42, 0
6, 40680, Note_on_c, 9, 42, 50
6, 40680, Note_on_c, 9, 38, 100
6, 40694, Note_on_c, 9, 38, 0
6, 40694, Note_on_c, 9, 42, 0
6, 40740, Note_on_c, 9, 42, 50
6, 40754, Note_on_c, 9, 42, 0
6, 40800, Note_on_c, 9, 42, 50
6, 40800, Note_on_c, 9, 35, 100
6, 40814, Note_on_c, 9, 35, 0
6, 40814, Note_on_c, 9, 42, 0
6, 40860, Note_on_c, 9, 42, 50
6, 40874, Note_on_c, 9, 42, 0
6, 40920, Note_on_c, 9, 42, 50
6, 40920, Note_on_c, 9, 38, 100
6, 40934, Note_on_c, 9, 38, 0
6, 40934, Note_on_c, 9, 42, 0
6, 40980, Note_on_c, 9, 42, 50
6, 40980, Note_on_c, 9, 35, 100
6, 40994, Note_on_c, 9, 35, 0
6, 40994, Note_on_c, 9, 42, 0
6, 41040, Note_on_c, 9, 42, 50
6, 41054, Note_on_c, 9, 42, 0
6, 41100, Note_on_c, 9, 42, 50
6, 41100, Note_on_c, 9, 35, 100
6, 41114, Note_on_c, 9, 35, 0
6, 41114, Note_on_c, 9, 42, 0
6, 41160, Note_on_c, 9, 42, 50
6, 41160, Note_on_c, 9, 38, 100
6, 41174, Note_on_c, 9, 38, 0
6, 41174, Note_on_c, 9, 42, 0
6, 41220, Note_on_c, 9, 42, 50
6, 41234, Note_on_c, 9, 42, 0
6, 41280, Note_on_c, 9, 42, 50
6, 41280, Note_on_c, 9, 35, 100
6, 41294, Note_on_c, 9, 35, 0
6, 41294, Note_on_c, 9, 42, 0
6, 41340, Note_on_c, 9, 42, 50
6, 41340, Note_on_c, 9, 35, 100
6, 41354, Note_on_c, 9, 35, 0
6, 41354, Note_on_c, 9, 42, 0
6, 41400, Note_on_c, 9, 42, 50
6, 41400, Note_on_c, 9, 38, 100
6, 41414, Note_on_c, 9, 38, 0
6, 41414, Note_on_c, 9, 42, 0
6, 41460, Note_on_c, 9, 42, 50
6, 41474, Note_on_c, 9, 42, 0
6, 41520, Note_on_c, 9, 42, 50
6, 41520, Note_on_c, 9, 35, 100
6, 41534, Note_on_c, 9, 35, 0
6, 41534, Note_on_c, 9, 42, 0
6, 41580, Note_on_c, 9, 42, 50
6, 41580, Note_on_c, 9, 35, 100
6, 41594, Note_on_c, 9, 35, 0
6, 41594, Note_on_c, 9, 42, 0
6, 41640, Note_on_c, 9, 42, 50
6, 41640, Note_on_c, 9, 38, 100
6, 41654, Note_on_c, 9, 38, 0
6, 41654, Note_on_c, 9, 42, 0
6, 41700, Note_on_c, 9, 42, 50
6, 41714, Note_on_c, 9, 42, 0
6, 41760, Note_on_c, 9, 42, 50
6, 41760, Note_on_c, 9, 35, 100
6, 41774, Note_on_c, 9, 35, 0
6, 41774, Note_on_c, 9, 42, 0
6, 41820, Note_on_c, 9, 42, 50
6, 41834, Note_on_c, 9, 42, 0
6, 41880, Note_on_c, 9, 42, 50
6, 41880, Note_on_c, 9, 38, 100
6, 41894, Note_on_c, 9, 38, 0
6, 41894, Note_on_c, 9, 42, 0
6, 41940, Note_on_c, 9, 42, 50
6, 41940, Note_on_c, 9, 35, 100
6, 41954, Note_on_c, 9, 35, 0
6, 41954, Note_on_c, 9, 42, 0
6, 42000, Note_on_c, 9, 42, 50
6, 42014, Note_on_c, 9, 42, 0
6, 42060, Note_on_c, 9, 42, 50
6, 42060, Note_on_c, 9, 35, 100
6, 42074, Note_on_c, 9, 35, 0
6, 42074, Note_on_c, 9, 42, 0
6, 42120, Note_on_c, 9, 42, 50
6, 42120, Note_on_c, 9, 38, 100
6, 42134, Note_on_c, 9, 38, 0
6, 42134, Note_on_c, 9, 42, 0
6, 42180, Note_on_c, 9, 42, 50
6, 42194, Note_on_c, 9, 42, 0
6, 42240, Note_on_c, 9, 42, 50
6, 42240, Note_on_c, 9, 35, 100
6, 42254, Note_on_c, 9, 35, 0
6, 42254, Note_on_c, 9, 42, 0
6, 42300, Note_on_c, 9, 42, 50
6, 42300, Note_on_c, 9, 35, 100
6, 42314, Note_on_c, 9, 35, 0
6, 42314, Note_on_c, 9, 42, 0
6, 42360, Note_on_c, 9, 42, 50
6, 42360, Note_on_c, 9, 38, 100
6, 42374, Note_on_c, 9, 38, 0
6, 42374, Note_on_c, 9, 42, 0
6, 42420, Note_on_c, 9, 48, 100
6, 42420, Note_on_c, 9, 38, 100
6, 42420, Note_on_c, 9, 42, 50
6, 42434, Note_on_c, 9, 42, 0
6, 42434, Note_on_c, 9, 38, 0
6, 42434, Note_on_c, 9, 48, 0
6, 42480, Note_on_c, 9, 47, 100
6, 42480, Note_on_c, 9, 45, 100
6, 42480, Note_on_c, 9, 42, 50
6, 42480, Note_on_c, 9, 35, 100
6, 42494, Note_on_c, 9, 35, 0
6, 42494, Note_on_c, 9, 47, 0
6, 42494, Note_on_c, 9, 45, 0
6, 42494, Note_on_c, 9, 42, 0
6, 42540, Note_on_c, 9, 40, 100
6, 42540, Note_on_c, 9, 38, 100
6, 42540, Note_on_c, 9, 42, 50
6, 42540, Note_on_c, 9, 35, 100
6, 42554, Note_on_c, 9, 35, 0
6, 42554, Note_on_c, 9, 40, 0
6, 42554, Note_on_c, 9, 38, 0
6, 42554, Note_on_c, 9, 42, 0
6, 42600, Note_on_c, 9, 40, 100
6, 42600, Note_on_c, 9, 38, 100
6, 42600, Note_on_c, 9, 42, 50
6, 42614, Note_on_c, 9, 42, 0
6, 42614, Note_on_c, 9, 38, 0
6, 42614, Note_on_c, 9, 40, 0
6, 42660, Note_on_c, 9, 40, 100
6, 42660, Note_on_c, 9, 38, 100
6, 42660, Note_on_c, 9, 42, 50
6, 42674, Note_on_c, 9, 42, 0
6, 42674, Note_on_c, 9, 38, 0
6, 42674, Note_on_c, 9, 40, 0
6, 42720, Note_on_c, 9, 42, 50
6, 42720, Note_on_c, 9, 35, 100
6, 42734, Note_on_c, 9, 35, 0
6, 42734, Note_on_c, 9, 42, 0
6, 42780, Note_on_c, 9, 42, 50
6, 42794, Note_on_c, 9, 42, 0
6, 42840, Note_on_c, 9, 42, 50
6, 42840, Note_on_c, 9, 38, 100
6, 42854, Note_on_c, 9, 38, 0
6, 42854, Note_on_c, 9, 42, 0
6, 42900, Note_on_c, 9, 42, 50
6, 42900, Note_on_c, 9, 35, 100
6, 42914, Note_on_c, 9, 35, 0
6, 42914, Note_on_c, 9, 42, 0
6, 42960, Note_on_c, 9, 42, 50
6, 42974, Note_on_c, 9, 42, 0
6, 43020, Note_on_c, 9, 42, 50
6, 43020, Note_on_c, 9, 35, 100
6, 43034, Note_on_c, 9, 35, 0
6, 43034, Note_on_c, 9, 42, 0
6, 43080, Note_on_c, 9, 42, 50
6, 43080, Note_on_c, 9, 38, 100
6, 43094, Note_on_c, 9, 38, 0
6, 43094, Note_on_c, 9, 42, 0
6, 43140, Note_on_c, 9, 42, 50
6, 43154, Note_on_c, 9, 42, 0
6, 43200, Note_on_c, 9, 42, 50
6, 43200, Note_on_c, 9, 35, 100
6, 43214, Note_on_c, 9, 35, 0
6, 43214, Note_on_c, 9, 42, 0
6, 43260, Note_on_c, 9, 42, 50
6, 43260, Note_on_c, 9, 35, 100
6, 43274, Note_on_c, 9, 35, 0
6, 43274, Note_on_c, 9, 42, 0
6, 43320, Note_on_c, 9, 42, 50
6, 43320, Note_on_c, 9, 38, 100
6, 43334, Note_on_c, 9, 38, 0
6, 43334, Note_on_c, 9, 42, 0
6, 43380, Note_on_c, 9, 42, 50
6, 43394, Note_on_c, 9, 42, 0
6, 43440, Note_on_c, 9, 42, 50
6, 43440, Note_on_c, 9, 35, 100
6, 43454, Note_on_c, 9, 35, 0
6, 43454, Note_on_c, 9, 42, 0
6, 43500, Note_on_c, 9, 42, 50
6, 43500, Note_on_c, 9, 35, 100
6, 43514, Note_on_c, 9, 35, 0
6, 43514, Note_on_c, 9, 42, 0
6, 43560, Note_on_c, 9, 42, 50
6, 43560, Note_on_c, 9, 38, 100
6, 43574, Note_on_c, 9, 38, 0
6, 43574, Note_on_c, 9, 42, 0
6, 43620, Note_on_c, 9, 42, 50
6, 43634, Note_on_c, 9, 42, 0
6, 43680, Note_on_c, 9, 42, 50
6, 43680, Note_on_c, 9, 35, 100
6, 43694, Note_on_c, 9, 35, 0
6, 43694, Note_on_c, 9, 42, 0
6, 43740, Note_on_c, 9, 42, 50
6, 43754, Note_on_c, 9, 42, 0
6, 43800, Note_on_c, 9, 42, 50
6, 43800, Note_on_c, 9, 38, 100
6, 43814, Note_on_c, 9, 38, 0
6, 43814, Note_on_c, 9, 42, 0
6, 43860, Note_on_c, 9, 42, 50
6, 43860, Note_on_c, 9, 35, 100
6, 43874, Note_on_c, 9, 35, 0
6, 43874, Note_on_c, 9, 42, 0
6, 43920, Note_on_c, 9, 42, 50
6, 43934, Note_on_c, 9, 42, 0
6, 43980, Note_on_c, 9, 42, 50
6, 43980, Note_on_c, 9, 35, 100
6, 43994, Note_on_c, 9, 35, 0
6, 43994, Note_on_c, 9, 42, 0
6, 44040, Note_on_c, 9, 42, 50
6, 44040, Note_on_c, 9, 38, 100
6, 44054, Note_on_c, 9, 38, 0
6, 44054, Note_on_c, 9, 42, 0
6, 44100, Note_on_c, 9, 42, 50
6, 44114, Note_on_c, 9, 42, 0
6, 44160, Note_on_c, 9, 42, 50
6, 44160, Note_on_c, 9, 35, 100
6, 44174, Note_on_c, 9, 35, 0
6, 44174, Note_on_c, 9, 42, 0
6, 44220, Note_on_c, 9, 42, 50
6, 44220, Note_on_c, 9, 35, 100
6, 44234, Note_on_c, 9, 35, 0
6, 44234, Note_on_c, 9, 42, 0
6, 44280, Note_on_c, 9, 42, 50
6, 44280, Note_on_c, 9, 38, 100
6, 44294, Note_on_c, 9, 38, 0
6, 44294, Note_on_c, 9, 42, 0
6, 44340, Note_on_c, 9, 42, 50
6, 44354, Note_on_c, 9, 42, 0
6, 44400, Note_on_c, 9, 42, 50
6, 44400, Note_on_c, 9, 35, 100
6, 44414, Note_on_c, 9, 35, 0
6, 44414, Note_on_c, 9, 42, 0
6, 44460, Note_on_c, 9, 42, 50
6, 44460, Note_on_c, 9, 35, 100
6, 44474, Note_on_c, 9, 35, 0
6, 44474, Note_on_c, 9, 42, 0
6, 44520, Note_on_c, 9, 42, 50
6, 44520, Note_on_c, 9, 38, 100
6, 44534, Note_on_c, 9, 38, 0
6, 44534, Note_on_c, 9, 42, 0
6, 44580, Note_on_c, 9, 42, 50
6, 44594, Note_on_c, 9, 42, 0
6, 44640, Note_on_c, 9, 42, 50
6, 44640, Note_on_c, 9, 35, 100
6, 44654, Note_on_c, 9, 35, 0
6, 44654, Note_on_c, 9, 42, 0
6, 44700, Note_on_c, 9, 42, 50
6, 44714, Note_on_c, 9, 42, 0
6, 44760, Note_on_c, 9, 42, 50
6, 44760, Note_on_c, 9, 38, 100
6, 44774, Note_on_c, 9, 38, 0
6, 44774, Note_on_c, 9, 42, 0
6, 44820, Note_on_c, 9, 42, 50
6, 44820, Note_on_c, 9, 35, 100
6, 44834, Note_on_c, 9, 35, 0
6, 44834, Note_on_c, 9, 42, 0
6, 44880, Note_on_c, 9, 42, 50
6, 44894, Note_on_c, 9, 42, 0
6, 44940, Note_on_c, 9, 42, 50
6, 44940, Note_on_c, 9, 35, 100
6, 44954, Note_on_c, 9, 35, 0
6, 44954, Note_on_c, 9, 42, 0
6, 45000, Note_on_c, 9, 42, 50
6, 45000, Note_on_c, 9, 38, 100
6, 45014, Note_on_c, 9, 38, 0
6, 45014, Note_on_c, 9, 42, 0
6, 45060, Note_on_c, 9, 42, 50
6, 45074, Note_on_c, 9, 42, 0
6, 45120, Note_on_c, 9, 42, 50
6, 45120, Note_on_c, 9, 35, 100
6, 45134, Note_on_c, 9, 35, 0
6, 45134, Note_on_c, 9, 42, 0
6, 45180, Note_on_c, 9, 42, 50
6, 45180, Note_on_c, 9, 35, 100
6, 45194, Note_on_c, 9, 35, 0
6, 45194, Note_on_c, 9, 42, 0
6, 45240, Note_on_c, 9, 42, 50
6, 45240, Note_on_c, 9, 38, 100
6, 45254, Note_on_c, 9, 38, 0
6, 45254, Note_on_c, 9, 42, 0
6, 45300, Note_on_c, 9, 42, 50
6, 45314, Note_on_c, 9, 42, 0
6, 45360, Note_on_c, 9, 42, 50
6, 45360, Note_on_c, 9, 35, 100
6, 45374, Note_on_c, 9, 35, 0
6, 45374, Note_on_c, 9, 42, 0
6, 45420, Note_on_c, 9, 42, 50
6, 45420, Note_on_c, 9, 35, 100
6, 45434, Note_on_c, 9, 35, 0
6, 45434, Note_on_c, 9, 42, 0
6, 45480, Note_on_c, 9, 42, 50
6, 45480, Note_on_c, 9, 38, 100
6, 45494, Note_on_c, 9, 38, 0
6, 45494, Note_on_c, 9, 42, 0
6, 45540, Note_on_c, 9, 42, 50
6, 45554, Note_on_c, 9, 42, 0
6, 45600, Note_on_c, 9, 42, 50
6, 45600, Note_on_c, 9, 35, 100
6, 45614, Note_on_c, 9, 35, 0
6, 45614, Note_on_c, 9, 42, 0
6, 45660, Note_on_c, 9, 42, 50
6, 45674, Note_on_c, 9, 42, 0
6, 45720, Note_on_c, 9, 42, 50
6, 45720, Note_on_c, 9, 38, 100
6, 45734, Note_on_c, 9, 38, 0
6, 45734, Note_on_c, 9, 42, 0
6, 45780, Note_on_c, 9, 42, 50
6, 45780, Note_on_c, 9, 35, 100
6, 45794, Note_on_c, 9, 35, 0
6, 45794, Note_on_c, 9, 42, 0
6, 45840, Note_on_c, 9, 42, 50
6, 45854, Note_on_c, 9, 42, 0
6, 45900, Note_on_c, 9, 42, 50
6, 45900, Note_on_c, 9, 35, 100
6, 45914, Note_on_c, 9, 35, 0
6, 45914, Note_on_c, 9, 42, 0
6, 45960, Note_on_c, 9, 42, 50
6, 45960, Note_on_c, 9, 38, 100
6, 45974, Note_on_c, 9, 38, 0
6, 45974, Note_on_c, 9, 42, 0
6, 46020, Note_on_c, 9, 42, 50
6, 46034, Note_on_c, 9, 42, 0
6, 46080, Note_on_c, 9, 42, 50
6, 46080, Note_on_c, 9, 35, 100
6, 46094, Note_on_c, 9, 35, 0
6, 46094, Note_on_c, 9, 42, 0
6, 46140, Note_on_c, 9, 42, 50
6, 46140, Note_on_c, 9, 35, 100
6, 46154, Note_on_c, 9, 35, 0
6, 46154, Note_on_c, 9, 42, 0
6, 46200, Note_on_c, 9, 42, 50
6, 46200, Note_on_c, 9, 38, 100
6, 46214, Note_on_c, 9, 38, 0
6, 46214, Note_on_c, 9, 42, 0
6, 46260, Note_on_c, 9, 42, 50
6, 46274, Note_on_c, 9, 42, 0
6, 46320, Note_on_c, 9, 42, 50
6, 46320, Note_on_c, 9, 35, 100
6, 46334, Note_on_c, 9, 35, 0
6, 46334, Note_on_c, 9, 42, 0
6, 46380, Note_on_c, 9, 42, 50
6, 46380, Note_on_c, 9, 35, 100
6, 46394, Note_on_c, 9, 35, 0
6, 46394, Note_on_c, 9, 42, 0
6, 46440, Note_on_c, 9, 55, 100
6, 46440, Note_on_c, 9, 42, 50
6, 46440, Note_on_c, 9, 38, 100
6, 46454, Note_on_c, 9, 38, 0
6, 46454, Note_on_c, 9, 42, 0
6, 46454, Note_on_c, 9, 55, 0
6, 46500, Note_on_c, 9, 42, 50
6, 46514, Note_on_c, 9, 42, 0
6, 46560, Note_on_c, 9, 42, 50
6, 46560, Note_on_c, 9, 35, 100
6, 46574, Note_on_c, 9, 35, 0
6, 46574, Note_on_c, 9, 42, 0
6, 46620, Note_on_c, 9, 42, 50
6, 46634, Note_on_c, 9, 42, 0
6, 46680, Note_on_c, 9, 42, 50
6, 46680, Note_on_c, 9, 38, 100
6, 46694, Note_on_c, 9, 38, 0
6, 46694, Note_on_c, 9, 42, 0
6, 46740, Note_on_c, 9, 42, 50
6, 46740, Note_on_c, 9, 35, 100
6, 46754, Note_on_c, 9, 35, 0
6, 46754, Note_on_c, 9, 42, 0
6, 46800, Note_on_c, 9, 42, 50
6, 46814, Note_on_c, 9, 42, 0
6, 46860, Note_on_c, 9, 42, 50
6, 46860, Note_on_c, 9, 35, 100
6, 46874, Note_on_c, 9, 35, 0
6, 46874, Note_on_c, 9, 42, 0
6, 46920, Note_on_c, 9, 42, 50
6, 46920, Note_on_c, 9, 38, 100
6, 46934, Note_on_c, 9, 38, 0
6, 46934, Note_on_c, 9, 42, 0
6, 46980, Note_on_c, 9, 42, 50
6, 46994, Note_on_c, 9, 42, 0
6, 47040, Note_on_c, 9, 42, 50
6, 47040, Note_on_c, 9, 35, 100
6, 47054, Note_on_c, 9, 35, 0
6, 47054, Note_on_c, 9, 42, 0
6, 47100, Note_on_c, 9, 42, 50
6, 47100, Note_on_c, 9, 35, 100
6, 47114, Note_on_c, 9, 35, 0
6, 47114, Note_on_c, 9, 42, 0
6, 47160, Note_on_c, 9, 42, 50
6, 47160, Note_on_c, 9, 38, 100
6, 47174, Note_on_c, 9, 38, 0
6, 47174, Note_on_c, 9, 42, 0
6, 47220, Note_on_c, 9, 42, 50
6, 47234, Note_on_c, 9, 42, 0
6, 47280, Note_on_c, 9, 42, 50
6, 47280, Note_on_c, 9, 35, 100
6, 47294, Note_on_c, 9, 35, 0
6, 47294, Note_on_c, 9, 42, 0
6, 47340, Note_on_c, 9, 42, 50
6, 47340, Note_on_c, 9, 35, 100
6, 47354, Note_on_c, 9, 35, 0
6, 47354, Note_on_c, 9, 42, 0
6, 47400, Note_on_c, 9, 42, 50
6, 47400, Note_on_c, 9, 38, 100
6, 47414, Note_on_c, 9, 38, 0
6, 47414, Note_on_c, 9, 42, 0
6, 47460, Note_on_c, 9, 42, 50
6, 47474, Note_on_c, 9, 42, 0
6, 47520, Note_on_c, 9, 42, 50
6, 47520, Note_on_c, 9, 35, 100
6, 47534, Note_on_c, 9, 35, 0
6, 47534, Note_on_c, 9, 42, 0
6, 47580, Note_on_c, 9, 42, 50
6, 47594, Note_on_c, 9, 42, 0
6, 47640, Note_on_c, 9, 42, 50
6, 47640, Note_on_c, 9, 38, 100
6, 47654, Note_on_c, 9, 38, 0
6, 47654, Note_on_c, 9, 42, 0
6, 47700, Note_on_c, 9, 42, 50
6, 47700, Note_on_c, 9, 35, 100
6, 47714, Note_on_c, 9, 35, 0
6, 47714, Note_on_c, 9, 42, 0
6, 47760, Note_on_c, 9, 42, 50
6, 47774, Note_on_c, 9, 42, 0
6, 47820, Note_on_c, 9, 42, 50
6, 47820, Note_on_c, 9, 35, 100
6, 47834, Note_on_c, 9, 35, 0
6, 47834, Note_on_c, 9, 42, 0
6, 47880, Note_on_c, 9, 42, 50
6, 47880, Note_on_c, 9, 38, 100
6, 47894, Note_on_c, 9, 38, 0
6, 47894, Note_on_c, 9, 42, 0
6, 47940, Note_on_c, 9, 42, 50
6, 47954, Note_on_c, 9, 42, 0
6, 48000, Note_on_c, 9, 42, 50
6, 48000, Note_on_c, 9, 35, 100
6, 48014, Note_on_c, 9, 35, 0
6, 48014, Note_on_c, 9, 42, 0
6, 48060, Note_on_c, 9, 42, 50
6, 48060, Note_on_c, 9, 35, 100
6, 48074, Note_on_c, 9, 35, 0
6, 48074, Note_on_c, 9, 42, 0
6, 48120, Note_on_c, 9, 42, 50
6, 48120, Note_on_c, 9, 38, 100
6, 48134, Note_on_c, 9, 38, 0
6, 48134, Note_on_c, 9, 42, 0
6, 48180, Note_on_c, 9, 42, 50
6, 48194, Note_on_c, 9, 42, 0
6, 48240, Note_on_c, 9, 42, 50
6, 48240, Note_on_c, 9, 35, 100
6, 48254, Note_on_c, 9, 35, 0
6, 48254, Note_on_c, 9, 42, 0
6, 48300, Note_on_c, 9, 42, 50
6, 48300, Note_on_c, 9, 35, 100
6, 48314, Note_on_c, 9, 35, 0
6, 48314, Note_on_c, 9, 42, 0
6, 48360, Note_on_c, 9, 42, 50
6, 48360, Note_on_c, 9, 38, 100
6, 48374, Note_on_c, 9, 38, 0
6, 48374, Note_on_c, 9, 42, 0
6, 48420, Note_on_c, 9, 42, 50
6, 48434, Note_on_c, 9, 42, 0
6, 48480, Note_on_c, 9, 42, 50
6, 48480, Note_on_c, 9, 35, 100
6, 48494, Note_on_c, 9, 35, 0
6, 48494, Note_on_c, 9, 42, 0
6, 48540, Note_on_c, 9, 42, 50
6, 48554, Note_on_c, 9, 42, 0
6, 48600, Note_on_c, 9, 42, 50
6, 48600, Note_on_c, 9, 38, 100
6, 48614, Note_on_c, 9, 38, 0
6, 48614, Note_on_c, 9, 42, 0
6, 48660, Note_on_c, 9, 42, 50
6, 48660, Note_on_c, 9, 35, 100
6, 48674, Note_on_c, 9, 35, 0
6, 48674, Note_on_c, 9, 42, 0
6, 48720, Note_on_c, 9, 42, 50
6, 48734, Note_on_c, 9, 42, 0
6, 48780, Note_on_c, 9, 42, 50
6, 48780, Note_on_c, 9, 35, 100
6, 48794, Note_on_c, 9, 35, 0
6, 48794, Note_on_c, 9, 42, 0
6, 48840, Note_on_c, 9, 42, 50
6, 48840, Note_on_c, 9, 38, 100
6, 48854, Note_on_c, 9, 38, 0
6, 48854, Note_on_c, 9, 42, 0
6, 48900, Note_on_c, 9, 42, 50
6, 48914, Note_on_c, 9, 42, 0
6, 48960, Note_on_c, 9, 42, 50
6, 48960, Note_on_c, 9, 35, 100
6, 48974, Note_on_c, 9, 35, 0
6, 48974, Note_on_c, 9, 42, 0
6, 49020, Note_on_c, 9, 42, 50
6, 49020, Note_on_c, 9, 35, 100
6, 49034, Note_on_c, 9, 35, 0
6, 49034, Note_on_c, 9, 42, 0
6, 49080, Note_on_c, 9, 42, 50
6, 49080, Note_on_c, 9, 38, 100
6, 49094, Note_on_c, 9, 38, 0
6, 49094, Note_on_c, 9, 42, 0
6, 49140, Note_on_c, 9, 42, 50
6, 49154, Note_on_c, 9, 42, 0
6, 49200, Note_on_c, 9, 42, 50
6, 49200, Note_on_c, 9, 35, 100
6, 49214, Note_on_c, 9, 35, 0
6, 49214, Note_on_c, 9, 42, 0
6, 49260, Note_on_c, 9, 42, 50
6, 49260, Note_on_c, 9, 35, 100
6, 49274, Note_on_c, 9, 35, 0
6, 49274, Note_on_c, 9, 42, 0
6, 49320, Note_on_c, 9, 42, 50
6, 49320, Note_on_c, 9, 38, 100
6, 49334, Note_on_c, 9, 38, 0
6, 49334, Note_on_c, 9, 42, 0
6, 49380, Note_on_c, 9, 42, 50
6, 49394, Note_on_c, 9, 42, 0
6, 49440, Note_on_c, 9, 42, 50
6, 49440, Note_on_c, 9, 35, 100
6, 49454, Note_on_c, 9, 35, 0
6, 49454, Note_on_c, 9, 42, 0
6, 49500, Note_on_c, 9, 42, 50
6, 49514, Note_on_c, 9, 42, 0
6, 49560, Note_on_c, 9, 42, 50
6, 49560, Note_on_c, 9, 38, 100
6, 49574, Note_on_c, 9, 38, 0
6, 49574, Note_on_c, 9, 42, 0
6, 49620, Note_on_c, 9, 42, 50
6, 49620, Note_on_c, 9, 35, 100
6, 49634, Note_on_c, 9, 35, 0
6, 49634, Note_on_c, 9, 42, 0
6, 49680, Note_on_c, 9, 42, 50
6, 49694, Note_on_c, 9, 42, 0
6, 49740, Note_on_c, 9, 42, 50
6, 49740, Note_on_c, 9, 35, 100
6, 49754, Note_on_c, 9, 35, 0
6, 49754, Note_on_c, 9, 42, 0
6, 49800, Note_on_c, 9, 42, 50
6, 49800, Note_on_c, 9, 38, 100
6, 49814, Note_on_c, 9, 38, 0
6, 49814, Note_on_c, 9, 42, 0
6, 49860, Note_on_c, 9, 42, 50
6, 49874, Note_on_c, 9, 42, 0
6, 49920, Note_on_c, 9, 42, 50
6, 49920, Note_on_c, 9, 35, 100
6, 49934, Note_on_c, 9, 35, 0
6, 49934, Note_on_c, 9, 42, 0
6, 49980, Note_on_c, 9, 42, 50
6, 49980, Note_on_c, 9, 35, 100
6, 49994, Note_on_c, 9, 35, 0
6, 49994, Note_on_c, 9, 42, 0
6, 50040, Note_on_c, 9, 42, 50
6, 50040, Note_on_c, 9, 38, 100
6, 50054, Note_on_c, 9, 38, 0
6, 50054, Note_on_c, 9, 42, 0
6, 50100, Note_on_c, 9, 42, 50
6, 50114, Note_on_c, 9, 42, 0
6, 50160, Note_on_c, 9, 42, 50
6, 50160, Note_on_c, 9, 35, 100
6, 50174, Note_on_c, 9, 35, 0
6, 50174, Note_on_c, 9, 42, 0
6, 50220, Note_on_c, 9, 50, 100
6, 50220, Note_on_c, 9, 48, 100
6, 50220, Note_on_c, 9, 42, 50
6, 50220, Note_on_c, 9, 35, 100
6, 50234, Note_on_c, 9, 35, 0
6, 50234, Note_on_c, 9, 50, 0
6, 50234, Note_on_c, 9, 48, 0
6, 50234, Note_on_c, 9, 42, 0
6, 50280, Note_on_c, 9, 47, 100
6, 50280, Note_on_c, 9, 48, 100
6, 50280, Note_on_c, 9, 42, 50
6, 50294, Note_on_c, 9, 42, 0
6, 50294, Note_on_c, 9, 48, 0
6, 50294, Note_on_c, 9, 47, 0
6, 50340, Note_on_c, 9, 47, 100
6, 50340, Note_on_c, 9, 45, 100
6, 50340, Note_on_c, 9, 42, 50
6, 50354, Note_on_c, 9, 42, 0
6, 50354, Note_on_c, 9, 45, 0
6, 50354, Note_on_c, 9, 47, 0
6, 50400, Note_on_c, 9, 49, 100
6, 50400, Note_on_c, 9, 42, 50
6, 50400, Note_on_c, 9, 35, 100
6, 50414, Note_on_c, 9, 35, 0
6, 50414, Note_on_c, 9, 42, 0
6, 50414, Note_on_c, 9, 49, 0
6, 50460, Note_on_c, 9, 42, 50
6, 50474, Note_on_c, 9, 42, 0
6, 50520, Note_on_c, 9, 42, 50
6, 50520, Note_on_c, 9, 38, 100
6, 50534, Note_on_c, 9, 38, 0
6, 50534, Note_on_c, 9, 42, 0
6, 50580, Note_on_c, 9, 42, 50
6, 50580, Note_on_c, 9, 35, 100
6, 50594, Note_on_c, 9, 35, 0
6, 50594, Note_on_c, 9, 42, 0
6, 50640, Note_on_c, 9, 42, 50
6, 50654, Note_on_c, 9, 42, 0
6, 50700, Note_on_c, 9, 42, 50
6, 50700, Note_on_c, 9, 35, 100
6, 50714, Note_on_c, 9, 35, 0
6, 50714, Note_on_c, 9, 42, 0
6, 50760, Note_on_c, 9, 43, 100
6, 50760, Note_on_c, 9, 42, 50
6, 50774, Note_on_c, 9, 42, 0
6, 50774, Note_on_c, 9, 43, 0
6, 50820, Note_on_c, 9, 43, 100
6, 50820, Note_on_c, 9, 42, 50
6, 50834, Note_on_c, 9, 42, 0
6, 50834, Note_on_c, 9, 43, 0
6, 50880, Note_on_c, 9, 42, 50
6, 50880, Note_on_c, 9, 35, 100
6, 50894, Note_on_c, 9, 35, 0
6, 50894, Note_on_c, 9, 42, 0
6, 50940, Note_on_c, 9, 42, 50
6, 50940, Note_on_c, 9, 35, 100
6, 50954, Note_on_c, 9, 35, 0
6, 50954, Note_on_c, 9, 42, 0
6, 51000, Note_on_c, 9, 42, 50
6, 51000, Note_on_c, 9, 38, 100
6, 51014, Note_on_c, 9, 38, 0
6, 51014, Note_on_c, 9, 42, 0
6, 51060, Note_on_c, 9, 42, 50
6, 51074, Note_on_c, 9, 42, 0
6, 51120, Note_on_c, 9, 42, 50
6, 51120, Note_on_c, 9, 35, 100
6, 51134, Note_on_c, 9, 35, 0
6, 51134, Note_on_c, 9, 42, 0
6, 51180, Note_on_c, 9, 45, 100
6, 51180, Note_on_c, 9, 42, 50
6, 51194, Note_on_c, 9, 42, 0
6, 51194, Note_on_c, 9, 45, 0
6, 51240, Note_on_c, 9, 43, 100
6, 51240, Note_on_c, 9, 42, 50
6, 51254, Note_on_c, 9, 42, 0
6, 51254, Note_on_c, 9, 43, 0
6, 51300, Note_on_c, 9, 41, 100
6, 51300, Note_on_c, 9, 42, 50
6, 51314, Note_on_c, 9, 42, 0
6, 51314, Note_on_c, 9, 41, 0
6, 51360, Note_on_c, 9, 42, 50
6, 51360, Note_on_c, 9, 35, 100
6, 51374, Note_on_c, 9, 35, 0
6, 51374, Note_on_c, 9, 42, 0
6, 51420, Note_on_c, 9, 42, 50
6, 51434, Note_on_c, 9, 42, 0
6, 51480, Note_on_c, 9, 42, 50
6, 51480, Note_on_c, 9, 38, 100
6, 51494, Note_on_c, 9, 38, 0
6, 51494, Note_on_c, 9, 42, 0
6, 51540, Note_on_c, 9, 42, 50
6, 51540, Note_on_c, 9, 35, 100
6, 51554, Note_on_c, 9, 35, 0
6, 51554, Note_on_c, 9, 42, 0
6, 51600, Note_on_c, 9, 42, 50
6, 51614, Note_on_c, 9, 42, 0
6, 51660, Note_on_c, 9, 42, 50
6, 51660, Note_on_c, 9, 35, 100
6, 51674, Note_on_c, 9, 35, 0
6, 51674, Note_on_c, 9, 42, 0
6, 51720, Note_on_c, 9, 43, 100
6, 51720, Note_on_c, 9, 42, 50
6, 51734, Note_on_c, 9, 42, 0
6, 51734, Note_on_c, 9, 43, 0
6, 51780, Note_on_c, 9, 43, 100
6, 51780, Note_on_c, 9, 42, 50
6, 51794, Note_on_c, 9, 42, 0
6, 51794, Note_on_c, 9, 43, 0
6, 51840, Note_on_c, 9, 42, 50
6, 51840, Note_on_c, 9, 35, 100
6, 51854, Note_on_c, 9, 35, 0
6, 51854, Note_on_c, 9, 42, 0
6, 51900, Note_on_c, 9, 42, 50
6, 51900, Note_on_c, 9, 35, 100
6, 51914, Note_on_c, 9, 35, 0
6, 51914, Note_on_c, 9, 42, 0
6, 51960, Note_on_c, 9, 42, 50
6, 51960, Note_on_c, 9, 38, 100
6, 51974, Note_on_c, 9, 38, 0
6, 51974, Note_on_c, 9, 42, 0
6, 52020, Note_on_c, 9, 42, 50
6, 52034, Note_on_c, 9, 42, 0
6, 52080, Note_on_c, 9, 42, 50
6, 52080, Note_on_c, 9, 35, 100
6, 52094, Note_on_c, 9, 35, 0
6, 52094, Note_on_c, 9, 42, 0
6, 52140, Note_on_c, 9, 45, 100
6, 52140, Note_on_c, 9, 42, 50
6, 52154, Note_on_c, 9, 42, 0
6, 52154, Note_on_c, 9, 45, 0
6, 52200, Note_on_c, 9, 43, 100
6, 52200, Note_on_c, 9, 42, 50
6, 52214, Note_on_c, 9, 42, 0
6, 52214, Note_on_c, 9, 43, 0
6, 52260, Note_on_c, 9, 41, 100
6, 52260, Note_on_c, 9, 42, 50
6, 52274, Note_on_c, 9, 42, 0
6, 52274, Note_on_c, 9, 41, 0
6, 52320, Note_on_c, 9, 42, 50
6, 52320, Note_on_c, 9, 35, 100
6, 52334, Note_on_c, 9, 35, 0
6, 52334, Note_on_c, 9, 42, 0
6, 52380, Note_on_c, 9, 42, 50
6, 52394, Note_on_c, 9, 42, 0
6, 52440, Note_on_c, 9, 42, 50
6, 52440, Note_on_c, 9, 38, 100
6, 52454, Note_on_c, 9, 38, 0
6, 52454, Note_on_c, 9, 42, 0
6, 52500, Note_on_c, 9, 42, 50
6, 52500, Note_on_c, 9, 35, 100
6, 52514, Note_on_c, 9, 35, 0
6, 52514, Note_on_c, 9, 42, 0
6, 52560, Note_on_c, 9, 42, 50
6, 52574, Note_on_c, 9, 42, 0
6, 52620, Note_on_c, 9, 42, 50
6, 52620, Note_on_c, 9, 35, 100
6, 52634, Note_on_c, 9, 35, 0
6, 52634, Note_on_c, 9, 42, 0
6, 52680, Note_on_c, 9, 43, 100
6, 52680, Note_on_c, 9, 42, 50
6, 52694, Note_on_c, 9, 42, 0
6, 52694, Note_on_c, 9, 43, 0
6, 52740, Note_on_c, 9, 43, 100
6, 52740, Note_on_c, 9, 42, 50
6, 52754, Note_on_c, 9, 42, 0
6, 52754, Note_on_c, 9, 43, 0
6, 52800, Note_on_c, 9, 42, 50
6, 52800, Note_on_c, 9, 35, 100
6, 52814, Note_on_c, 9, 35, 0
6, 52814, Note_on_c, 9, 42, 0
6, 52860, Note_on_c, 9, 42, 50
6, 52860, Note_on_c, 9, 35, 100
6, 52874, Note_on_c, 9, 35, 0
6, 52874, Note_on_c, 9, 42, 0
6, 52920, Note_on_c, 9, 42, 50
6, 52920, Note_on_c, 9, 38, 100
6, 52934, Note_on_c, 9, 38, 0
6, 52934, Note_on_c, 9, 42, 0
6, 52980, Note_on_c, 9, 42, 50
6, 52994, Note_on_c, 9, 42, 0
6, 53040, Note_on_c, 9, 42, 50
6, 53040, Note_on_c, 9, 35, 100
6, 53054, Note_on_c, 9, 35, 0
6, 53054, Note_on_c, 9, 42, 0
6, 53100, Note_on_c, 9, 45, 100
6, 53100, Note_on_c, 9, 42, 50
6, 53114, Note_on_c, 9, 42, 0
6, 53114, Note_on_c, 9, 45, 0
6, 53160, Note_on_c, 9, 43, 100
6, 53160, Note_on_c, 9, 42, 50
6, 53174, Note_on_c, 9, 42, 0
6, 53174, Note_on_c, 9, 43, 0
6, 53220, Note_on_c, 9, 41, 100
6, 53220, Note_on_c, 9, 42, 50
6, 53234, Note_on_c, 9, 42, 0
6, 53234, Note_on_c, 9, 41, 0
6, 53280, Note_on_c, 9, 42, 50
6, 53280, Note_on_c, 9, 35, 100
6, 53294, Note_on_c, 9, 35, 0
6, 53294, Note_on_c, 9, 42, 0
6, 53340, Note_on_c, 9, 42, 50
6, 53354, Note_on_c, 9, 42, 0
6, 53400, Note_on_c, 9, 42, 50
6, 53400, Note_on_c, 9, 38, 100
6, 53414, Note_on_c, 9, 38, 0
6, 53414, Note_on_c, 9, 42, 0
6, 53460, Note_on_c, 9, 42, 50
6, 53460, Note_on_c, 9, 35, 100
6, 53474, Note_on_c, 9, 35, 0
6, 53474, Note_on_c, 9, 42, 0
6, 53520, Note_on_c, 9, 42, 50
6, 53534, Note_on_c, 9, 42, 0
6, 53580, Note_on_c, 9, 42, 50
6, 53580, Note_on_c, 9, 35, 100
6, 53594, Note_on_c, 9, 35, 0
6, 53594, Note_on_c, 9, 42, 0
6, 53640, Note_on_c, 9, 43, 100
6, 53640, Note_on_c, 9, 42, 50
6, 53654, Note_on_c, 9, 42, 0
6, 53654, Note_on_c, 9, 43, 0
6, 53700, Note_on_c, 9, 43, 100
6, 53700, Note_on_c, 9, 42, 50
6, 53714, Note_on_c, 9, 42, 0
6, 53714, Note_on_c, 9, 43, 0
6, 53760, Note_on_c, 9, 42, 50
6, 53760, Note_on_c, 9, 35, 100
6, 53774, Note_on_c, 9, 35, 0
6, 53774, Note_on_c, 9, 42, 0
6, 53820, Note_on_c, 9, 42, 50
6, 53820, Note_on_c, 9, 35, 100
6, 53834, Note_on_c, 9, 35, 0
6, 53834, Note_on_c, 9, 42, 0
6, 53880, Note_on_c, 9, 42, 50
6, 53880, Note_on_c, 9, 38, 100
6, 53894, Note_on_c, 9, 38, 0
6, 53894, Note_on_c, 9, 42, 0
6, 53940, Note_on_c, 9, 42, 50
6, 53954, Note_on_c, 9, 42, 0
6, 54000, Note_on_c, 9, 42, 50
6, 54000, Note_on_c, 9, 35, 100
6, 54014, Note_on_c, 9, 35, 0
6, 54014, Note_on_c, 9, 42, 0
6, 54060, Note_on_c, 9, 45, 100
6, 54060, Note_on_c, 9, 42, 50
6, 54074, Note_on_c, 9, 42, 0
6, 54074, Note_on_c, 9, 45, 0
6, 54120, Note_on_c, 9, 43, 100
6, 54120, Note_on_c, 9, 42, 50
6, 54134, Note_on_c, 9, 42, 0
6, 54134, Note_on_c, 9, 43, 0
6, 54180, Note_on_c, 9, 41, 100
6, 54180, Note_on_c, 9, 42, 50
6, 54194, Note_on_c, 9, 42, 0
6, 54194, Note_on_c, 9, 41, 0
6, 54240, Note_on_c, 9, 42, 50
6, 54240, Note_on_c, 9, 35, 100
6, 54254, Note_on_c, 9, 35, 0
6, 54254, Note_on_c, 9, 42, 0
6, 54300, Note_on_c, 9, 42, 50
6, 54314, Note_on_c, 9, 42, 0
6, 54360, Note_on_c, 9, 42, 50
6, 54360, Note_on_c, 9, 38, 100
6, 54374, Note_on_c, 9, 38, 0
6, 54374, Note_on_c, 9, 42, 0
6, 54420, Note_on_c, 9, 42, 50
6, 54420, Note_on_c, 9, 35, 100
6, 54434, Note_on_c, 9, 35, 0
6, 54434, Note_on_c, 9, 42, 0
6, 54480, Note_on_c, 9, 42, 50
6, 54494, Note_on_c, 9, 42, 0
6, 54540, Note_on_c, 9, 42, 50
6, 54540, Note_on_c, 9, 35, 100
6, 54554, Note_on_c, 9, 35, 0
6, 54554, Note_on_c, 9, 42, 0
6, 54600, Note_on_c, 9, 42, 50
6, 54600, Note_on_c, 9, 38, 100
6, 54614, Note_on_c, 9, 38, 0
6, 54614, Note_on_c, 9, 42, 0
6, 54660, Note_on_c, 9, 42, 50
6, 54674, Note_on_c, 9, 42, 0
6, 54720, Note_on_c, 9, 42, 50
6, 54720, Note_on_c, 9, 35, 100
6, 54734, Note_on_c, 9, 35, 0
6, 54734, Note_on_c, 9, 42, 0
6, 54780, Note_on_c, 9, 42, 50
6, 54780, Note_on_c, 9, 35, 100
6, 54794, Note_on_c, 9, 35, 0
6, 54794, Note_on_c, 9, 42, 0
6, 54840, Note_on_c, 9, 42, 50
6, 54840, Note_on_c, 9, 38, 100
6, 54854, Note_on_c, 9, 38, 0
6, 54854, Note_on_c, 9, 42, 0
6, 54900, Note_on_c, 9, 42, 50
6, 54914, Note_on_c, 9, 42, 0
6, 54960, Note_on_c, 9, 42, 50
6, 54960, Note_on_c, 9, 35, 100
6, 54974, Note_on_c, 9, 35, 0
6, 54974, Note_on_c, 9, 42, 0
6, 55020, Note_on_c, 9, 42, 50
6, 55020, Note_on_c, 9, 35, 100
6, 55034, Note_on_c, 9, 35, 0
6, 55034, Note_on_c, 9, 42, 0
6, 55080, Note_on_c, 9, 42, 50
6, 55080, Note_on_c, 9, 38, 100
6, 55094, Note_on_c, 9, 38, 0
6, 55094, Note_on_c, 9, 42, 0
6, 55140, Note_on_c, 9, 42, 50
6, 55154, Note_on_c, 9, 42, 0
6, 55200, Note_on_c, 9, 42, 50
6, 55200, Note_on_c, 9, 35, 100
6, 55214, Note_on_c, 9, 35, 0
6, 55214, Note_on_c, 9, 42, 0
6, 55260, Note_on_c, 9, 42, 50
6, 55274, Note_on_c, 9, 42, 0
6, 55320, Note_on_c, 9, 42, 50
6, 55320, Note_on_c, 9, 38, 100
6, 55334, Note_on_c, 9, 38, 0
6, 55334, Note_on_c, 9, 42, 0
6, 55380, Note_on_c, 9, 42, 50
6, 55380, Note_on_c, 9, 35, 100
6, 55394, Note_on_c, 9, 35, 0
6, 55394, Note_on_c, 9, 42, 0
6, 55440, Note_on_c, 9, 42, 50
6, 55454, Note_on_c, 9, 42, 0
6, 55500, Note_on_c, 9, 42, 50
6, 55500, Note_on_c, 9, 35, 100
6, 55514, Note_on_c, 9, 35, 0
6, 55514, Note_on_c, 9, 42, 0
6, 55560, Note_on_c, 9, 42, 50
6, 55560, Note_on_c, 9, 38, 100
6, 55574, Note_on_c, 9, 38, 0
6, 55574, Note_on_c, 9, 42, 0
6, 55620, Note_on_c, 9, 42, 50
6, 55634, Note_on_c, 9, 42, 0
6, 55680, Note_on_c, 9, 42, 50
6, 55680, Note_on_c, 9, 35, 100
6, 55694, Note_on_c, 9, 35, 0
6, 55694, Note_on_c, 9, 42, 0
6, 55740, Note_on_c, 9, 42, 50
6, 55740, Note_on_c, 9, 35, 100
6, 55754, Note_on_c, 9, 35, 0
6, 55754, Note_on_c, 9, 42, 0
6, 55800, Note_on_c, 9, 42, 50
6, 55800, Note_on_c, 9, 38, 100
6, 55814, Note_on_c, 9, 38, 0
6, 55814, Note_on_c, 9, 42, 0
6, 55860, Note_on_c, 9, 42, 50
6, 55874, Note_on_c, 9, 42, 0
6, 55920, Note_on_c, 9, 42, 50
6, 55920, Note_on_c, 9, 35, 100
6, 55934, Note_on_c, 9, 35, 0
6, 55934, Note_on_c, 9, 42, 0
6, 55980, Note_on_c, 9, 42, 50
6, 55980, Note_on_c, 9, 35, 100
6, 55994, Note_on_c, 9, 35, 0
6, 55994, Note_on_c, 9, 42, 0
6, 56040, Note_on_c, 9, 42, 50
6, 56040, Note_on_c, 9, 38, 100
6, 56054, Note_on_c, 9, 38, 0
6, 56054, Note_on_c, 9, 42, 0
6, 56100, Note_on_c, 9, 42, 50
6, 56114, Note_on_c, 9, 42, 0
6, 56160, Note_on_c, 9, 42, 50
6, 56160, Note_on_c, 9, 35, 100
6, 56174, Note_on_c, 9, 35, 0
6, 56174, Note_on_c, 9, 42, 0
6, 56220, Note_on_c, 9, 42, 50
6, 56234, Note_on_c, 9, 42, 0
6, 56280, Note_on_c, 9, 42, 50
6, 56280, Note_on_c, 9, 38, 100
6, 56294, Note_on_c, 9, 38, 0
6, 56294, Note_on_c, 9, 42, 0
6, 56340, Note_on_c, 9, 42, 50
6, 56340, Note_on_c, 9, 35, 100
6, 56354, Note_on_c, 9, 35, 0
6, 56354, Note_on_c, 9, 42, 0
6, 56400, Note_on_c, 9, 42, 50
6, 56414, Note_on_c, 9, 42, 0
6, 56460, Note_on_c, 9, 42, 50
6, 56460, Note_on_c, 9, 35, 100
6, 56474, Note_on_c, 9, 35, 0
6, 56474, Note_on_c, 9, 42, 0
6, 56520, Note_on_c, 9, 42, 50
6, 56520, Note_on_c, 9, 38, 100
6, 56534, Note_on_c, 9, 38, 0
6, 56534, Note_on_c, 9, 42, 0
6, 56580, Note_on_c, 9, 42, 50
6, 56594, Note_on_c, 9, 42, 0
6, 56640, Note_on_c, 9, 42, 50
6, 56640, Note_on_c, 9, 35, 100
6, 56654, Note_on_c, 9, 35, 0
6, 56654, Note_on_c, 9, 42, 0
6, 56700, Note_on_c, 9, 42, 50
6, 56700, Note_on_c, 9, 35, 100
6, 56714, Note_on_c, 9, 35, 0
6, 56714, Note_on_c, 9, 42, 0
6, 56760, Note_on_c, 9, 42, 50
6, 56760, Note_on_c, 9, 38, 100
6, 56774, Note_on_c, 9, 38, 0
6, 56774, Note_on_c, 9, 42, 0
6, 56820, Note_on_c, 9, 42, 50
6, 56834, Note_on_c, 9, 42, 0
6, 56880, Note_on_c, 9, 42, 50
6, 56880, Note_on_c, 9, 35, 100
6, 56894, Note_on_c, 9, 35, 0
6, 56894, Note_on_c, 9, 42, 0
6, 56940, Note_on_c, 9, 42, 50
6, 56940, Note_on_c, 9, 35, 100
6, 56954, Note_on_c, 9, 35, 0
6, 56954, Note_on_c, 9, 42, 0
6, 57000, Note_on_c, 9, 42, 50
6, 57000, Note_on_c, 9, 38, 100
6, 57014, Note_on_c, 9, 38, 0
6, 57014, Note_on_c, 9, 42, 0
6, 57060, Note_on_c, 9, 42, 50
6, 57074, Note_on_c, 9, 42, 0
6, 57120, Note_on_c, 9, 42, 50
6, 57120, Note_on_c, 9, 35, 100
6, 57134, Note_on_c, 9, 35, 0
6, 57134, Note_on_c, 9, 42, 0
6, 57180, Note_on_c, 9, 42, 50
6, 57194, Note_on_c, 9, 42, 0
6, 57240, Note_on_c, 9, 42, 50
6, 57240, Note_on_c, 9, 38, 100
6, 57254, Note_on_c, 9, 38, 0
6, 57254, Note_on_c, 9, 42, 0
6, 57300, Note_on_c, 9, 42, 50
6, 57300, Note_on_c, 9, 35, 100
6, 57314, Note_on_c, 9, 35, 0
6, 57314, Note_on_c, 9, 42, 0
6, 57360, Note_on_c, 9, 42, 50
6, 57374, Note_on_c, 9, 42, 0
6, 57420, Note_on_c, 9, 42, 50
6, 57420, Note_on_c, 9, 35, 100
6, 57434, Note_on_c, 9, 35, 0
6, 57434, Note_on_c, 9, 42, 0
6, 57480, Note_on_c, 9, 42, 50
6, 57480, Note_on_c, 9, 38, 100
6, 57494, Note_on_c, 9, 38, 0
6, 57494, Note_on_c, 9, 42, 0
6, 57540, Note_on_c, 9, 42, 50
6, 57554, Note_on_c, 9, 42, 0
6, 57600, Note_on_c, 9, 42, 50
6, 57600, Note_on_c, 9, 35, 100
6, 57614, Note_on_c, 9, 35, 0
6, 57614, Note_on_c, 9, 42, 0
6, 57660, Note_on_c, 9, 42, 50
6, 57660, Note_on_c, 9, 35, 100
6, 57674, Note_on_c, 9, 35, 0
6, 57674, Note_on_c, 9, 42, 0
6, 57720, Note_on_c, 9, 42, 50
6, 57720, Note_on_c, 9, 38, 100
6, 57734, Note_on_c, 9, 38, 0
6, 57734, Note_on_c, 9, 42, 0
6, 57780, Note_on_c, 9, 42, 50
6, 57794, Note_on_c, 9, 42, 0
6, 57840, Note_on_c, 9, 41, 100
6, 57840, Note_on_c, 9, 42, 50
6, 57854, Note_on_c, 9, 42, 0
6, 57854, Note_on_c, 9, 41, 0
6, 57900, Note_on_c, 9, 41, 100
6, 57900, Note_on_c, 9, 42, 50
6, 57914, Note_on_c, 9, 42, 0
6, 57914, Note_on_c, 9, 41, 0
6, 57960, Note_on_c, 9, 55, 100
6, 57960, Note_on_c, 9, 49, 100
6, 57960, Note_on_c, 9, 42, 50
6, 57974, Note_on_c, 9, 42, 0
6, 57974, Note_on_c, 9, 49, 0
6, 57974, Note_on_c, 9, 55, 0
6, 58020, Note_on_c, 9, 42, 50
6, 58034, Note_on_c, 9, 42, 0
6, 58080, Note_on_c, 9, 42, 50
6, 58080, Note_on_c, 9, 35, 100
6, 58094, Note_on_c, 9, 35, 0
6, 58094, Note_on_c, 9, 42, 0
6, 58140, Note_on_c, 9, 42, 50
6, 58154, Note_on_c, 9, 42, 0
6, 58200, Note_on_c, 9, 42, 50
6, 58200, Note_on_c, 9, 38, 100
6, 58214, Note_on_c, 9, 38, 0
6, 58214, Note_on_c, 9, 42, 0
6, 58260, Note_on_c, 9, 42, 50
6, 58260, Note_on_c, 9, 35, 100
6, 58274, Note_on_c, 9, 35, 0
6, 58274, Note_on_c, 9, 42, 0
6, 58320, Note_on_c, 9, 42, 50
6, 58334, Note_on_c, 9, 42, 0
6, 58380, Note_on_c, 9, 42, 50
6, 58380, Note_on_c, 9, 35, 100
6, 58394, Note_on_c, 9, 35, 0
6, 58394, Note_on_c, 9, 42, 0
6, 58440, Note_on_c, 9, 42, 50
6, 58440, Note_on_c, 9, 38, 100
6, 58454, Note_on_c, 9, 38, 0
6, 58454, Note_on_c, 9, 42, 0
6, 58500, Note_on_c, 9, 42, 50
6, 58514, Note_on_c, 9, 42, 0
6, 58560, Note_on_c, 9, 42, 50
6, 58560, Note_on_c, 9, 35, 100
6, 58574, Note_on_c, 9, 35, 0
6, 58574, Note_on_c, 9, 42, 0
6, 58620, Note_on_c, 9, 42, 50
6, 58620, Note_on_c, 9, 35, 100
6, 58634, Note_on_c, 9, 35, 0
6, 58634, Note_on_c, 9, 42, 0
6, 58680, Note_on_c, 9, 42, 50
6, 58680, Note_on_c, 9, 38, 100
6, 58694, Note_on_c, 9, 38, 0
6, 58694, Note_on_c, 9, 42, 0
6, 58740, Note_on_c, 9, 42, 50
6, 58754, Note_on_c, 9, 42, 0
6, 58800, Note_on_c, 9, 42, 50
6, 58800, Note_on_c, 9, 35, 100
6, 58814, Note_on_c, 9, 35, 0
6, 58814, Note_on_c, 9, 42, 0
6, 58860, Note_on_c, 9, 42, 50
6, 58860, Note_on_c, 9, 35, 100
6, 58874, Note_on_c, 9, 35, 0
6, 58874, Note_on_c, 9, 42, 0
6, 58920, Note_on_c, 9, 42, 50
6, 58920, Note_on_c, 9, 38, 100
6, 58934, Note_on_c, 9, 38, 0
6, 58934, Note_on_c, 9, 42, 0
6, 58980, Note_on_c, 9, 42, 50
6, 58994, Note_on_c, 9, 42, 0
6, 59040, Note_on_c, 9, 42, 50
6, 59040, Note_on_c, 9, 35, 100
6, 59054, Note_on_c, 9, 35, 0
6, 59054, Note_on_c, 9, 42, 0
6, 59100, Note_on_c, 9, 42, 50
6, 59114, Note_on_c, 9, 42, 0
6, 59160, Note_on_c, 9, 42, 50
6, 59160, Note_on_c, 9, 38, 100
6, 59174, Note_on_c, 9, 38, 0
6, 59174, Note_on_c, 9, 42, 0
6, 59220, Note_on_c, 9, 42, 50
6, 59220, Note_on_c, 9, 35, 100
6, 59234, Note_on_c, 9, 35, 0
6, 59234, Note_on_c, 9, 42, 0
6, 59280, Note_on_c, 9, 42, 50
6, 59294, Note_on_c, 9, 42, 0
6, 59340, Note_on_c, 9, 42, 50
6, 59340, Note_on_c, 9, 35, 100
6, 59354, Note_on_c, 9, 35, 0
6, 59354, Note_on_c, 9, 42, 0
6, 59400, Note_on_c, 9, 42, 50
6, 59400, Note_on_c, 9, 38, 100
6, 59414, Note_on_c, 9, 38, 0
6, 59414, Note_on_c, 9, 42, 0
6, 59460, Note_on_c, 9, 42, 50
6, 59474, Note_on_c, 9, 42, 0
6, 59520, Note_on_c, 9, 42, 50
6, 59520, Note_on_c, 9, 35, 100
6, 59534, Note_on_c, 9, 35, 0
6, 59534, Note_on_c, 9, 42, 0
6, 59580, Note_on_c, 9, 42, 50
6, 59580, Note_on_c, 9, 35, 100
6, 59594, Note_on_c, 9, 35, 0
6, 59594, Note_on_c, 9, 42, 0
6, 59640, Note_on_c, 9, 42, 50
6, 59640, Note_on_c, 9, 38, 100
6, 59654, Note_on_c, 9, 38, 0
6, 59654, Note_on_c, 9, 42, 0
6, 59700, Note_on_c, 9, 42, 50
6, 59714, Note_on_c, 9, 42, 0
6, 59760, Note_on_c, 9, 42, 50
6, 59760, Note_on_c, 9, 35, 100
6, 59774, Note_on_c, 9, 35, 0
6, 59774, Note_on_c, 9, 42, 0
6, 59820, Note_on_c, 9, 42, 50
6, 59820, Note_on_c, 9, 35, 100
6, 59834, Note_on_c, 9, 35, 0
6, 59834, Note_on_c, 9, 42, 0
6, 59880, Note_on_c, 9, 42, 50
6, 59880, Note_on_c, 9, 38, 100
6, 59894, Note_on_c, 9, 38, 0
6, 59894, Note_on_c, 9, 42, 0
6, 59940, Note_on_c, 9, 42, 50
6, 59954, Note_on_c, 9, 42, 0
6, 60000, Note_on_c, 9, 42, 50
6, 60000, Note_on_c, 9, 35, 100
6, 60014, Note_on_c, 9, 35, 0
6, 60014, Note_on_c, 9, 42, 0
6, 60060, Note_on_c, 9, 42, 50
6, 60074, Note_on_c, 9, 42, 0
6, 60120, Note_on_c, 9, 42, 50
6, 60120, Note_on_c, 9, 38, 100
6, 60134, Note_on_c, 9, 38, 0
6, 60134, Note_on_c, 9, 42, 0
6, 60180, Note_on_c, 9, 42, 50
6, 60180, Note_on_c, 9, 35, 100
6, 60194, Note_on_c, 9, 35, 0
6, 60194, Note_on_c, 9, 42, 0
6, 60240, Note_on_c, 9, 42, 50
6, 60254, Note_on_c, 9, 42, 0
6, 60300, Note_on_c, 9, 42, 50
6, 60300, Note_on_c, 9, 35, 100
6, 60314, Note_on_c, 9, 35, 0
6, 60314, Note_on_c, 9, 42, 0
6, 60360, Note_on_c, 9, 42, 50
6, 60360, Note_on_c, 9, 38, 100
6, 60374, Note_on_c, 9, 38, 0
6, 60374, Note_on_c, 9, 42, 0
6, 60420, Note_on_c, 9, 42, 50
6, 60434, Note_on_c, 9, 42, 0
6, 60480, Note_on_c, 9, 42, 50
6, 60480, Note_on_c, 9, 35, 100
6, 60494, Note_on_c, 9, 35, 0
6, 60494, Note_on_c, 9, 42, 0
6, 60540, Note_on_c, 9, 38, 100
6, 60540, Note_on_c, 9, 42, 50
6, 60540, Note_on_c, 9, 35, 100
6, 60554, Note_on_c, 9, 35, 0
6, 60554, Note_on_c, 9, 42, 0
6, 60554, Note_on_c, 9, 38, 0
6, 60600, Note_on_c, 9, 42, 50
6, 60600, Note_on_c, 9, 38, 100
6, 60614, Note_on_c, 9, 38, 0
6, 60614, Note_on_c, 9, 42, 0
6, 60660, Note_on_c, 9, 42, 50
6, 60674, Note_on_c, 9, 42, 0
6, 60720, Note_on_c, 9, 42, 50
6, 60720, Note_on_c, 9, 35, 100
6, 60734, Note_on_c, 9, 35, 0
6, 60734, Note_on_c, 9, 42, 0
6, 60780, Note_on_c, 9, 38, 100
6, 60780, Note_on_c, 9, 42, 50
6, 60780, Note_on_c, 9, 35, 100
6, 60794, Note_on_c, 9, 35, 0
6, 60794, Note_on_c, 9, 42, 0
6, 60794, Note_on_c, 9, 38, 0
6, 60840, Note_on_c, 9, 42, 50
6, 60840, Note_on_c, 9, 38, 100
6, 60854, Note_on_c, 9, 38, 0
6, 60854, Note_on_c, 9, 42, 0
6, 60900, Note_on_c, 9, 47, 100
6, 60900, Note_on_c, 9, 42, 50
6, 60914, Note_on_c, 9, 42, 0
6, 60914, Note_on_c, 9, 47, 0
6, 60960, Note_on_c, 9, 48, 100
6, 60960, Note_on_c, 9, 42, 50
6, 60960, Note_on_c, 9, 35, 100
6, 60974, Note_on_c, 9, 35, 0
6, 60974, Note_on_c, 9, 42, 0
6, 60974, Note_on_c, 9, 48, 0
6, 61020, Note_on_c, 9, 48, 100
6, 61020, Note_on_c, 9, 42, 50
6, 61034, Note_on_c, 9, 42, 0
6, 61034, Note_on_c, 9, 48, 0
6, 61080, Note_on_c, 9, 45, 100
6, 61080, Note_on_c, 9, 42, 50
6, 61094, Note_on_c, 9, 42, 0
6, 61094, Note_on_c, 9, 45, 0
6, 61140, Note_on_c, 9, 47, 100
6, 61140, Note_on_c, 9, 42, 50
6, 61140, Note_on_c, 9, 35, 100
6, 61154, Note_on_c, 9, 35, 0
6, 61154, Note_on_c, 9, 42, 0
6, 61154, Note_on_c, 9, 47, 0
6, 61200, Note_on_c, 9, 42, 50
6, 61214, Note_on_c, 9, 42, 0
6, 61260, Note_on_c, 9, 38, 100
6, 61260, Note_on_c, 9, 42, 50
6, 61260, Note_on_c, 9, 35, 100
6, 61274, Note_on_c, 9, 35, 0
6, 61274, Note_on_c, 9, 42, 0
6, 61274, Note_on_c, 9, 38, 0
6, 61320, Note_on_c, 9, 47, 100
6, 61320, Note_on_c, 9, 42, 50
6, 61334, Note_on_c, 9, 42, 0
6, 61334, Note_on_c, 9, 47, 0
6, 61380, Note_on_c, 9, 45, 100
6, 61380, Note_on_c, 9, 42, 50
6, 61394, Note_on_c, 9, 42, 0
6, 61394, Note_on_c, 9, 45, 0
6, 61440, Note_on_c, 9, 45, 100
6, 61440, Note_on_c, 9, 42, 50
6, 61440, Note_on_c, 9, 35, 100
6, 61454, Note_on_c, 9, 35, 0
6, 61454, Note_on_c, 9, 42, 0
6, 61454, Note_on_c, 9, 45, 0
6, 61500, Note_on_c, 9, 45, 100
6, 61500, Note_on_c, 9, 42, 50
6, 61500, Note_on_c, 9, 35, 100
6, 61514, Note_on_c, 9, 35, 0
6, 61514, Note_on_c, 9, 42, 0
6, 61514, Note_on_c, 9, 45, 0
6, 61560, Note_on_c, 9, 42, 50
6, 61574, Note_on_c, 9, 42, 0
6, 61620, Note_on_c, 9, 48, 100
6, 61620, Note_on_c, 9, 42, 50
6, 61634, Note_on_c, 9, 42, 0
6, 61634, Note_on_c, 9, 48, 0
6, 61680, Note_on_c, 9, 48, 100
6, 61680, Note_on_c, 9, 42, 50
6, 61694, Note_on_c, 9, 42, 0
6, 61694, Note_on_c, 9, 48, 0
6, 61740, Note_on_c, 9, 38, 100
6, 61740, Note_on_c, 9, 45, 100
6, 61740, Note_on_c, 9, 42, 50
6, 61754, Note_on_c, 9, 42, 0
6, 61754, Note_on_c, 9, 45, 0
6, 61754, Note_on_c, 9, 38, 0
6, 61800, Note_on_c, 9, 38, 100
6, 61800, Note_on_c, 9, 43, 100
6, 61800, Note_on_c, 9, 49, 100
6, 61800, Note_on_c, 9, 42, 50
6, 61814, Note_on_c, 9, 42, 0
6, 61814, Note_on_c, 9, 38, 0
6, 61814, Note_on_c, 9, 43, 0
6, 61814, Note_on_c, 9, 49, 0
6, 61860, Note_on_c, 9, 38, 100
6, 61860, Note_on_c, 9, 41, 100
6, 61860, Note_on_c, 9, 42, 50
6, 61874, Note_on_c, 9, 42, 0
6, 61874, Note_on_c, 9, 41, 0
6, 61874, Note_on_c, 9, 38, 0
6, 61920, Note_on_c, 9, 42, 50
6, 61920, Note_on_c, 9, 35, 100
6, 61934, Note_on_c, 9, 35, 0
6, 61934, Note_on_c, 9, 42, 0
6, 61980, Note_on_c, 9, 42, 50
6, 61994, Note_on_c, 9, 42, 0
6, 62040, Note_on_c, 9, 42, 50
6, 62040, Note_on_c, 9, 38, 100
6, 62054, Note_on_c, 9, 38, 0
6, 62054, Note_on_c, 9, 42, 0
6, 62100, Note_on_c, 9, 42, 50
6, 62100, Note_on_c, 9, 35, 100
6, 62114, Note_on_c, 9, 35, 0
6, 62114, Note_on_c, 9, 42, 0
6, 62160, Note_on_c, 9, 42, 50
6, 62174, Note_on_c, 9, 42, 0
6, 62220, Note_on_c, 9, 42, 50
6, 62220, Note_on_c, 9, 35, 100
6, 62234, Note_on_c, 9, 35, 0
6, 62234, Note_on_c, 9, 42, 0
6, 62280, Note_on_c, 9, 42, 50
6, 62280, Note_on_c, 9, 38, 100
6, 62294, Note_on_c, 9, 38, 0
6, 62294, Note_on_c, 9, 42, 0
6, 62340, Note_on_c, 9, 42, 50
6, 62354, Note_on_c, 9, 42, 0
6, 62400, Note_on_c, 9, 42, 50
6, 62400, Note_on_c, 9, 35, 100
6, 62414, Note_on_c, 9, 35, 0
6, 62414, Note_on_c, 9, 42, 0
6, 62460, Note_on_c, 9, 42, 50
6, 62460, Note_on_c, 9, 35, 100
6, 62474, Note_on_c, 9, 35, 0
6, 62474, Note_on_c, 9, 42, 0
6, 62520, Note_on_c, 9, 42, 50
6, 62520, Note_on_c, 9, 38, 100
6, 62534, Note_on_c, 9, 38, 0
6, 62534, Note_on_c, 9, 42, 0
6, 62580, Note_on_c, 9, 42, 50
6, 62594, Note_on_c, 9, 42, 0
6, 62640, Note_on_c, 9, 42, 50
6, 62640, Note_on_c, 9, 35, 100
6, 62654, Note_on_c, 9, 35, 0
6, 62654, Note_on_c, 9, 42, 0
6, 62700, Note_on_c, 9, 42, 50
6, 62700, Note_on_c, 9, 35, 100
6, 62714, Note_on_c, 9, 35, 0
6, 62714, Note_on_c, 9, 42, 0
6, 62760, Note_on_c, 9, 42, 50
6, 62760, Note_on_c, 9, 38, 100
6, 62774, Note_on_c, 9, 38, 0
6, 62774, Note_on_c, 9, 42, 0
6, 62820, Note_on_c, 9, 42, 50
6, 62834, Note_on_c, 9, 42, 0
6, 62880, Note_on_c, 9, 42, 50
6, 62880, Note_on_c, 9, 35, 100
6, 62894, Note_on_c, 9, 35, 0
6, 62894, Note_on_c, 9, 42, 0
6, 62940, Note_on_c, 9, 42, 50
6, 62954, Note_on_c, 9, 42, 0
6, 63000, Note_on_c, 9, 42, 50
6, 63000, Note_on_c, 9, 38, 100
6, 63014, Note_on_c, 9, 38, 0
6, 63014, Note_on_c, 9, 42, 0
6, 63060, Note_on_c, 9, 42, 50
6, 63060, Note_on_c, 9, 35, 100
6, 63074, Note_on_c, 9, 35, 0
6, 63074, Note_on_c, 9, 42, 0
6, 63120, Note_on_c, 9, 42, 50
6, 63134, Note_on_c, 9, 42, 0
6, 63180, Note_on_c, 9, 42, 50
6, 63180, Note_on_c, 9, 35, 100
6, 63194, Note_on_c, 9, 35, 0
6, 63194, Note_on_c, 9, 42, 0
6, 63240, Note_on_c, 9, 42, 50
6, 63240, Note_on_c, 9, 38, 100
6, 63254, Note_on_c, 9, 38, 0
6, 63254, Note_on_c, 9, 42, 0
6, 63300, Note_on_c, 9, 42, 50
6, 63314, Note_on_c, 9, 42, 0
6, 63360, Note_on_c, 9, 42, 50
6, 63360, Note_on_c, 9, 35, 100
6, 63374, Note_on_c, 9, 35, 0
6, 63374, Note_on_c, 9, 42, 0
6, 63420, Note_on_c, 9, 42, 50
6, 63420, Note_on_c, 9, 35, 100
6, 63434, Note_on_c, 9, 35, 0
6, 63434, Note_on_c, 9, 42, 0
6, 63480, Note_on_c, 9, 42, 50
6, 63480, Note_on_c, 9, 38, 100
6, 63494, Note_on_c, 9, 38, 0
6, 63494, Note_on_c, 9, 42, 0
6, 63540, Note_on_c, 9, 42, 50
6, 63554, Note_on_c, 9, 42, 0
6, 63600, Note_on_c, 9, 42, 50
6, 63600, Note_on_c, 9, 35, 100
6, 63614, Note_on_c, 9, 35, 0
6, 63614, Note_on_c, 9, 42, 0
6, 63660, Note_on_c, 9, 42, 50
6, 63660, Note_on_c, 9, 35, 100
6, 63674, Note_on_c, 9, 35, 0
6, 63674, Note_on_c, 9, 42, 0
6, 63720, Note_on_c, 9, 42, 50
6, 63720, Note_on_c, 9, 38, 100
6, 63734, Note_on_c, 9, 38, 0
6, 63734, Note_on_c, 9, 42, 0
6, 63780, Note_on_c, 9, 42, 50
6, 63794, Note_on_c, 9, 42, 0
6, 63840, Note_on_c, 9, 42, 50
6, 63840, Note_on_c, 9, 35, 100
6, 63854, Note_on_c, 9, 35, 0
6, 63854, Note_on_c, 9, 42, 0
6, 63900, Note_on_c, 9, 42, 50
6, 63914, Note_on_c, 9, 42, 0
6, 63960, Note_on_c, 9, 42, 50
6, 63960, Note_on_c, 9, 38, 100
6, 63974, Note_on_c, 9, 38, 0
6, 63974, Note_on_c, 9, 42, 0
6, 64020, Note_on_c, 9, 42, 50
6, 64020, Note_on_c, 9, 35, 100
6, 64034, Note_on_c, 9, 35, 0
6, 64034, Note_on_c, 9, 42, 0
6, 64080, Note_on_c, 9, 42, 50
6, 64094, Note_on_c, 9, 42, 0
6, 64140, Note_on_c, 9, 42, 50
6, 64140, Note_on_c, 9, 35, 100
6, 64154, Note_on_c, 9, 35, 0
6, 64154, Note_on_c, 9, 42, 0
6, 64200, Note_on_c, 9, 42, 50
6, 64200, Note_on_c, 9, 38, 100
6, 64214, Note_on_c, 9, 38, 0
6, 64214, Note_on_c, 9, 42, 0
6, 64260, Note_on_c, 9, 42, 50
6, 64274, Note_on_c, 9, 42, 0
6, 64320, Note_on_c, 9, 42, 50
6, 64320, Note_on_c, 9, 35, 100
6, 64334, Note_on_c, 9, 35, 0
6, 64334, Note_on_c, 9, 42, 0
6, 64380, Note_on_c, 9, 42, 50
6, 64380, Note_on_c, 9, 35, 100
6, 64394, Note_on_c, 9, 35, 0
6, 64394, Note_on_c, 9, 42, 0
6, 64440, Note_on_c, 9, 42, 50
6, 64440, Note_on_c, 9, 38, 100
6, 64454, Note_on_c, 9, 38, 0
6, 64454, Note_on_c, 9, 42, 0
6, 64500, Note_on_c, 9, 42, 50
6, 64514, Note_on_c, 9, 42, 0
6, 64560, Note_on_c, 9, 42, 50
6, 64560, Note_on_c, 9, 35, 100
6, 64574, Note_on_c, 9, 35, 0
6, 64574, Note_on_c, 9, 42, 0
6, 64620, Note_on_c, 9, 42, 50
6, 64620, Note_on_c, 9, 35, 100
6, 64634, Note_on_c, 9, 35, 0
6, 64634, Note_on_c, 9, 42, 0
6, 64680, Note_on_c, 9, 42, 50
6, 64680, Note_on_c, 9, 38, 100
6, 64694, Note_on_c, 9, 38, 0
6, 64694, Note_on_c, 9, 42, 0
6, 64740, Note_on_c, 9, 42, 50
6, 64754, Note_on_c, 9, 42, 0
6, 64800, Note_on_c, 9, 42, 50
6, 64800, Note_on_c, 9, 35, 100
6, 64814, Note_on_c, 9, 35, 0
6, 64814, Note_on_c, 9, 42, 0
6, 64860, Note_on_c, 9, 42, 50
6, 64874, Note_on_c, 9, 42, 0
6, 64920, Note_on_c, 9, 42, 50
6, 64920, Note_on_c, 9, 38, 100
6, 64934, Note_on_c, 9, 38, 0
6, 64934, Note_on_c, 9, 42, 0
6, 64980, Note_on_c, 9, 42, 50
6, 64980, Note_on_c, 9, 35, 100
6, 64994, Note_on_c, 9, 35, 0
6, 64994, Note_on_c, 9, 42, 0
6, 65040, Note_on_c, 9, 42, 50
6, 65054, Note_on_c, 9, 42, 0
6, 65100, Note_on_c, 9, 42, 50
6, 65100, Note_on_c, 9, 35, 100
6, 65114, Note_on_c, 9, 35, 0
6, 65114, Note_on_c, 9, 42, 0
6, 65160, Note_on_c, 9, 42, 50
6, 65160, Note_on_c, 9, 38, 100
6, 65174, Note_on_c, 9, 38, 0
6, 65174, Note_on_c, 9, 42, 0
6, 65220, Note_on_c, 9, 42, 50
6, 65234, Note_on_c, 9, 42, 0
6, 65280, Note_on_c, 9, 42, 50
6, 65280, Note_on_c, 9, 35, 100
6, 65294, Note_on_c, 9, 35, 0
6, 65294, Note_on_c, 9, 42, 0
6, 65340, Note_on_c, 9, 42, 50
6, 65340, Note_on_c, 9, 35, 100
6, 65354, Note_on_c, 9, 35, 0
6, 65354, Note_on_c, 9, 42, 0
6, 65400, Note_on_c, 9, 42, 50
6, 65400, Note_on_c, 9, 38, 100
6, 65414, Note_on_c, 9, 38, 0
6, 65414, Note_on_c, 9, 42, 0
6, 65460, Note_on_c, 9, 42, 50
6, 65474, Note_on_c, 9, 42, 0
6, 65520, Note_on_c, 9, 42, 50
6, 65520, Note_on_c, 9, 35, 100
6, 65534, Note_on_c, 9, 35, 0
6, 65534, Note_on_c, 9, 42, 0
6, 65580, Note_on_c, 9, 42, 50
6, 65580, Note_on_c, 9, 35, 100
6, 65594, Note_on_c, 9, 35, 0
6, 65594, Note_on_c, 9, 42, 0
6, 65640, Note_on_c, 9, 55, 100
6, 65640, Note_on_c, 9, 42, 50
6, 65640, Note_on_c, 9, 38, 100
6, 65654, Note_on_c, 9, 38, 0
6, 65654, Note_on_c, 9, 42, 0
6, 65654, Note_on_c, 9, 55, 0
6, 65700, Note_on_c, 9, 42, 50
6, 65714, Note_on_c, 9, 42, 0
6, 65760, Note_on_c, 9, 42, 50
6, 65760, Note_on_c, 9, 35, 100
6, 65774, Note_on_c, 9, 35, 0
6, 65774, Note_on_c, 9, 42, 0
6, 65820, Note_on_c, 9, 42, 50
6, 65834, Note_on_c, 9, 42, 0
6, 65880, Note_on_c, 9, 42, 50
6, 65880, Note_on_c, 9, 38, 100
6, 65894, Note_on_c, 9, 38, 0
6, 65894, Note_on_c, 9, 42, 0
6, 65940, Note_on_c, 9, 42, 50
6, 65940, Note_on_c, 9, 35, 100
6, 65954, Note_on_c, 9, 35, 0
6, 65954, Note_on_c, 9, 42, 0
6, 66000, Note_on_c, 9, 42, 50
6, 66014, Note_on_c, 9, 42, 0
6, 66060, Note_on_c, 9, 42, 50
6, 66060, Note_on_c, 9, 35, 100
6, 66074, Note_on_c, 9, 35, 0
6, 66074, Note_on_c, 9, 42, 0
6, 66120, Note_on_c, 9, 42, 50
6, 66120, Note_on_c, 9, 38, 100
6, 66134, Note_on_c, 9, 38, 0
6, 66134, Note_on_c, 9, 42, 0
6, 66180, Note_on_c, 9, 42, 50
6, 66194, Note_on_c, 9, 42, 0
6, 66240, Note_on_c, 9, 42, 50
6, 66240, Note_on_c, 9, 35, 100
6, 66254, Note_on_c, 9, 35, 0
6, 66254, Note_on_c, 9, 42, 0
6, 66300, Note_on_c, 9, 42, 50
6, 66300, Note_on_c, 9, 35, 100
6, 66314, Note_on_c, 9, 35, 0
6, 66314, Note_on_c, 9, 42, 0
6, 66360, Note_on_c, 9, 42, 50
6, 66360, Note_on_c, 9, 38, 100
6, 66374, Note_on_c, 9, 38, 0
6, 66374, Note_on_c, 9, 42, 0
6, 66420, Note_on_c, 9, 42, 50
6, 66434, Note_on_c, 9, 42, 0
6, 66480, Note_on_c, 9, 42, 50
6, 66480, Note_on_c, 9, 35, 100
6, 66494, Note_on_c, 9, 35, 0
6, 66494, Note_on_c, 9, 42, 0
6, 66540, Note_on_c, 9, 42, 50
6, 66540, Note_on_c, 9, 35, 100
6, 66554, Note_on_c, 9, 35, 0
6, 66554, Note_on_c, 9, 42, 0
6, 66600, Note_on_c, 9, 42, 50
6, 66600, Note_on_c, 9, 38, 100
6, 66614, Note_on_c, 9, 38, 0
6, 66614, Note_on_c, 9, 42, 0
6, 66660, Note_on_c, 9, 42, 50
6, 66674, Note_on_c, 9, 42, 0
6, 66720, Note_on_c, 9, 42, 50
6, 66720, Note_on_c, 9, 35, 100
6, 66734, Note_on_c, 9, 35, 0
6, 66734, Note_on_c, 9, 42, 0
6, 66780, Note_on_c, 9, 42, 50
6, 66794, Note_on_c, 9, 42, 0
6, 66840, Note_on_c, 9, 42, 50
6, 66840, Note_on_c, 9, 38, 100
6, 66854, Note_on_c, 9, 38, 0
6, 66854, Note_on_c, 9, 42, 0
6, 66900, Note_on_c, 9, 42, 50
6, 66900, Note_on_c, 9, 35, 100
6, 66914, Note_on_c, 9, 35, 0
6, 66914, Note_on_c, 9, 42, 0
6, 66960, Note_on_c, 9, 42, 50
6, 66974, Note_on_c, 9, 42, 0
6, 67020, Note_on_c, 9, 42, 50
6, 67020, Note_on_c, 9, 35, 100
6, 67034, Note_on_c, 9, 35, 0
6, 67034, Note_on_c, 9, 42, 0
6, 67080, Note_on_c, 9, 42, 50
6, 67080, Note_on_c, 9, 38, 100
6, 67094, Note_on_c, 9, 38, 0
6, 67094, Note_on_c, 9, 42, 0
6, 67140, Note_on_c, 9, 42, 50
6, 67154, Note_on_c, 9, 42, 0
6, 67200, Note_on_c, 9, 42, 50
6, 67200, Note_on_c, 9, 35, 100
6, 67214, Note_on_c, 9, 35, 0
6, 67214, Note_on_c, 9, 42, 0
6, 67260, Note_on_c, 9, 42, 50
6, 67260, Note_on_c, 9, 35, 100
6, 67274, Note_on_c, 9, 35, 0
6, 67274, Note_on_c, 9, 42, 0
6, 67320, Note_on_c, 9, 42, 50
6, 67320, Note_on_c, 9, 38, 100
6, 67334, Note_on_c, 9, 38, 0
6, 67334, Note_on_c, 9, 42, 0
6, 67380, Note_on_c, 9, 42, 50
6, 67394, Note_on_c, 9, 42, 0
6, 67440, Note_on_c, 9, 42, 50
6, 67440, Note_on_c, 9, 35, 100
6, 67454, Note_on_c, 9, 35, 0
6, 67454, Note_on_c, 9, 42, 0
6, 67500, Note_on_c, 9, 42, 50
6, 67500, Note_on_c, 9, 35, 100
6, 67514, Note_on_c, 9, 35, 0
6, 67514, Note_on_c, 9, 42, 0
6, 67560, Note_on_c, 9, 42, 50
6, 67560, Note_on_c, 9, 38, 100
6, 67574, Note_on_c, 9, 38, 0
6, 67574, Note_on_c, 9, 42, 0
6, 67620, Note_on_c, 9, 42, 50
6, 67634, Note_on_c, 9, 42, 0
6, 67680, Note_on_c, 9, 42, 50
6, 67680, Note_on_c, 9, 35, 100
6, 67694, Note_on_c, 9, 35, 0
6, 67694, Note_on_c, 9, 42, 0
6, 67740, Note_on_c, 9, 42, 50
6, 67754, Note_on_c, 9, 42, 0
6, 67800, Note_on_c, 9, 42, 50
6, 67800, Note_on_c, 9, 38, 100
6, 67814, Note_on_c, 9, 38, 0
6, 67814, Note_on_c, 9, 42, 0
6, 67860, Note_on_c, 9, 42, 50
6, 67860, Note_on_c, 9, 35, 100
6, 67874, Note_on_c, 9, 35, 0
6, 67874, Note_on_c, 9, 42, 0
6, 67920, Note_on_c, 9, 42, 50
6, 67934, Note_on_c, 9, 42, 0
6, 67980, Note_on_c, 9, 42, 50
6, 67980, Note_on_c, 9, 35, 100
6, 67994, Note_on_c, 9, 35, 0
6, 67994, Note_on_c, 9, 42, 0
6, 68040, Note_on_c, 9, 42, 50
6, 68040, Note_on_c, 9, 38, 100
6, 68054, Note_on_c, 9, 38, 0
6, 68054, Note_on_c, 9, 42, 0
6, 68100, Note_on_c, 9, 42, 50
6, 68114, Note_on_c, 9, 42, 0
6, 68160, Note_on_c, 9, 42, 50
6, 68160, Note_on_c, 9, 35, 100
6, 68174, Note_on_c, 9, 35, 0
6, 68174, Note_on_c, 9, 42, 0
6, 68220, Note_on_c, 9, 42, 50
6, 68220, Note_on_c, 9, 35, 100
6, 68234, Note_on_c, 9, 35, 0
6, 68234, Note_on_c, 9, 42, 0
6, 68280, Note_on_c, 9, 42, 50
6, 68280, Note_on_c, 9, 38, 100
6, 68294, Note_on_c, 9, 38, 0
6, 68294, Note_on_c, 9, 42, 0
6, 68340, Note_on_c, 9, 42, 50
6, 68354, Note_on_c, 9, 42, 0
6, 68400, Note_on_c, 9, 42, 50
6, 68400, Note_on_c, 9, 35, 100
6, 68414, Note_on_c, 9, 35, 0
6, 68414, Note_on_c, 9, 42, 0
6, 68460, Note_on_c, 9, 42, 50
6, 68460, Note_on_c, 9, 35, 100
6, 68474, Note_on_c, 9, 35, 0
6, 68474, Note_on_c, 9, 42, 0
6, 68520, Note_on_c, 9, 42, 50
6, 68520, Note_on_c, 9, 38, 100
6, 68534, Note_on_c, 9, 38, 0
6, 68534, Note_on_c, 9, 42, 0
6, 68580, Note_on_c, 9, 42, 50
6, 68594, Note_on_c, 9, 42, 0
6, 68640, Note_on_c, 9, 42, 50
6, 68640, Note_on_c, 9, 35, 100
6, 68654, Note_on_c, 9, 35, 0
6, 68654, Note_on_c, 9, 42, 0
6, 68700, Note_on_c, 9, 42, 50
6, 68714, Note_on_c, 9, 42, 0
6, 68760, Note_on_c, 9, 42, 50
6, 68760, Note_on_c, 9, 38, 100
6, 68774, Note_on_c, 9, 38, 0
6, 68774, Note_on_c, 9, 42, 0
6, 68820, Note_on_c, 9, 42, 50
6, 68820, Note_on_c, 9, 35, 100
6, 68834, Note_on_c, 9, 35, 0
6, 68834, Note_on_c, 9, 42, 0
6, 68880, Note_on_c, 9, 42, 50
6, 68894, Note_on_c, 9, 42, 0
6, 68940, Note_on_c, 9, 42, 50
6, 68940, Note_on_c, 9, 35, 100
6, 68954, Note_on_c, 9, 35, 0
6, 68954, Note_on_c, 9, 42, 0
6, 69000, Note_on_c, 9, 42, 50
6, 69000, Note_on_c, 9, 38, 100
6, 69014, Note_on_c, 9, 38, 0
6, 69014, Note_on_c, 9, 42, 0
6, 69060, Note_on_c, 9, 42, 50
6, 69074, Note_on_c, 9, 42, 0
6, 69120, Note_on_c, 9, 42, 50
6, 69120, Note_on_c, 9, 35, 100
6, 69134, Note_on_c, 9, 35, 0
6, 69134, Note_on_c, 9, 42, 0
6, 69180, Note_on_c, 9, 42, 50
6, 69180, Note_on_c, 9, 35, 100
6, 69194, Note_on_c, 9, 35, 0
6, 69194, Note_on_c, 9, 42, 0
6, 69240, Note_on_c, 9, 42, 50
6, 69240, Note_on_c, 9, 38, 100
6, 69254, Note_on_c, 9, 38, 0
6, 69254, Note_on_c, 9, 42, 0
6, 69300, Note_on_c, 9, 42, 50
6, 69314, Note_on_c, 9, 42, 0
6, 69360, Note_on_c, 9, 42, 50
6, 69360, Note_on_c, 9, 35, 100
6, 69374, Note_on_c, 9, 35, 0
6, 69374, Note_on_c, 9, 42, 0
6, 69420, Note_on_c, 9, 50, 100
6, 69420, Note_on_c, 9, 48, 100
6, 69420, Note_on_c, 9, 42, 50
6, 69420, Note_on_c, 9, 35, 100
6, 69434, Note_on_c, 9, 35, 0
6, 69434, Note_on_c, 9, 50, 0
6, 69434, Note_on_c, 9, 48, 0
6, 69434, Note_on_c, 9, 42, 0
6, 69480, Note_on_c, 9, 47, 100
6, 69480, Note_on_c, 9, 48, 100
6, 69480, Note_on_c, 9, 42, 50
6, 69494, Note_on_c, 9, 42, 0
6, 69494, Note_on_c, 9, 48, 0
6, 69494, Note_on_c, 9, 47, 0
6, 69540, Note_on_c, 9, 47, 100
6, 69540, Note_on_c, 9, 45, 100
6, 69540, Note_on_c, 9, 42, 50
6, 69554, Note_on_c, 9, 42, 0
6, 69554, Note_on_c, 9, 45, 0
6, 69554, Note_on_c, 9, 47, 0
6, 69600, Note_on_c, 9, 49, 100
6, 69600, Note_on_c, 9, 42, 50
6, 69600, Note_on_c, 9, 35, 100
6, 69614, Note_on_c, 9, 35, 0
6, 69614, Note_on_c, 9, 42, 0
6, 69614, Note_on_c, 9, 49, 0
6, 69660, Note_on_c, 9, 42, 50
6, 69674, Note_on_c, 9, 42, 0
6, 69720, Note_on_c, 9, 42, 50
6, 69720, Note_on_c, 9, 38, 100
6, 69734, Note_on_c, 9, 38, 0
6, 69734, Note_on_c, 9, 42, 0
6, 69780, Note_on_c, 9, 42, 50
6, 69780, Note_on_c, 9, 35, 100
6, 69794, Note_on_c, 9, 35, 0
6, 69794, Note_on_c, 9, 42, 0
6, 69840, Note_on_c, 9, 42, 50
6, 69854, Note_on_c, 9, 42, 0
6, 69900, Note_on_c, 9, 42, 50
6, 69900, Note_on_c, 9, 35, 100
6, 69914, Note_on_c, 9, 35, 0
6, 69914, Note_on_c, 9, 42, 0
6, 69960, Note_on_c, 9, 43, 100
6, 69960, Note_on_c, 9, 42, 50
6, 69974, Note_on_c, 9, 42, 0
6, 69974, Note_on_c, 9, 43, 0
6, 70020, Note_on_c, 9, 43, 100
6, 70020, Note_on_c, 9, 42, 50
6, 70034, Note_on_c, 9, 42, 0
6, 70034, Note_on_c, 9, 43, 0
6, 70080, Note_on_c, 9, 42, 50
6, 70080, Note_on_c, 9, 35, 100
6, 70094, Note_on_c, 9, 35, 0
6, 70094, Note_on_c, 9, 42, 0
6, 70140, Note_on_c, 9, 42, 50
6, 70140, Note_on_c, 9, 35, 100
6, 70154, Note_on_c, 9, 35, 0
6, 70154, Note_on_c, 9, 42, 0
6, 70200, Note_on_c, 9, 42, 50
6, 70200, Note_on_c, 9, 38, 100
6, 70214, Note_on_c, 9, 38, 0
6, 70214, Note_on_c, 9, 42, 0
6, 70260, Note_on_c, 9, 42, 50
6, 70274, Note_on_c, 9, 42, 0
6, 70320, Note_on_c, 9, 42, 50
6, 70320, Note_on_c, 9, 35, 100
6, 70334, Note_on_c, 9, 35, 0
6, 70334, Note_on_c, 9, 42, 0
6, 70380, Note_on_c, 9, 45, 100
6, 70380, Note_on_c, 9, 42, 50
6, 70394, Note_on_c, 9, 42, 0
6, 70394, Note_on_c, 9, 45, 0
6, 70440, Note_on_c, 9, 43, 100
6, 70440, Note_on_c, 9, 42, 50
6, 70454, Note_on_c, 9, 42, 0
6, 70454, Note_on_c, 9, 43, 0
6, 70500, Note_on_c, 9, 41, 100
6, 70500, Note_on_c, 9, 42, 50
6, 70514, Note_on_c, 9, 42, 0
6, 70514, Note_on_c, 9, 41, 0
6, 70560, Note_on_c, 9, 42, 50
6, 70560, Note_on_c, 9, 35, 100
6, 70574, Note_on_c, 9, 35, 0
6, 70574, Note_on_c, 9, 42, 0
6, 70620, Note_on_c, 9, 42, 50
6, 70634, Note_on_c, 9, 42, 0
6, 70680, Note_on_c, 9, 42, 50
6, 70680, Note_on_c, 9, 38, 100
6, 70694, Note_on_c, 9, 38, 0
6, 70694, Note_on_c, 9, 42, 0
6, 70740, Note_on_c, 9, 42, 50
6, 70740, Note_on_c, 9, 35, 100
6, 70754, Note_on_c, 9, 35, 0
6, 70754, Note_on_c, 9, 42, 0
6, 70800, Note_on_c, 9, 42, 50
6, 70814, Note_on_c, 9, 42, 0
6, 70860, Note_on_c, 9, 42, 50
6, 70860, Note_on_c, 9, 35, 100
6, 70874, Note_on_c, 9, 35, 0
6, 70874, Note_on_c, 9, 42, 0
6, 70920, Note_on_c, 9, 43, 100
6, 70920, Note_on_c, 9, 42, 50
6, 70934, Note_on_c, 9, 42, 0
6, 70934, Note_on_c, 9, 43, 0
6, 70980, Note_on_c, 9, 43, 100
6, 70980, Note_on_c, 9, 42, 50
6, 70994, Note_on_c, 9, 42, 0
6, 70994, Note_on_c, 9, 43, 0
6, 71040, Note_on_c, 9, 42, 50
6, 71040, Note_on_c, 9, 35, 100
6, 71054, Note_on_c, 9, 35, 0
6, 71054, Note_on_c, 9, 42, 0
6, 71100, Note_on_c, 9, 42, 50
6, 71100, Note_on_c, 9, 35, 100
6, 71114, Note_on_c, 9, 35, 0
6, 71114, Note_on_c, 9, 42, 0
6, 71160, Note_on_c, 9, 42, 50
6, 71160, Note_on_c, 9, 38, 100
6, 71174, Note_on_c, 9, 38, 0
6, 71174, Note_on_c, 9, 42, 0
6, 71220, Note_on_c, 9, 42, 50
6, 71234, Note_on_c, 9, 42, 0
6, 71280, Note_on_c, 9, 42, 50
6, 71280, Note_on_c, 9, 35, 100
6, 71294, Note_on_c, 9, 35, 0
6, 71294, Note_on_c, 9, 42, 0
6, 71340, Note_on_c, 9, 45, 100
6, 71340, Note_on_c, 9, 42, 50
6, 71354, Note_on_c, 9, 42, 0
6, 71354, Note_on_c, 9, 45, 0
6, 71400, Note_on_c, 9, 43, 100
6, 71400, Note_on_c, 9, 42, 50
6, 71414, Note_on_c, 9, 42, 0
6, 71414, Note_on_c, 9, 43, 0
6, 71460, Note_on_c, 9, 41, 100
6, 71460, Note_on_c, 9, 42, 50
6, 71474, Note_on_c, 9, 42, 0
6, 71474, Note_on_c, 9, 41, 0
6, 71520, Note_on_c, 9, 42, 50
6, 71520, Note_on_c, 9, 35, 100
6, 71534, Note_on_c, 9, 35, 0
6, 71534, Note_on_c, 9, 42, 0
6, 71580, Note_on_c, 9, 42, 50
6, 71594, Note_on_c, 9, 42, 0
6, 71640, Note_on_c, 9, 42, 50
6, 71640, Note_on_c, 9, 38, 100
6, 71654, Note_on_c, 9, 38, 0
6, 71654, Note_on_c, 9, 42, 0
6, 71700, Note_on_c, 9, 42, 50
6, 71700, Note_on_c, 9, 35, 100
6, 71714, Note_on_c, 9, 35, 0
6, 71714, Note_on_c, 9, 42, 0
6, 71760, Note_on_c, 9, 42, 50
6, 71774, Note_on_c, 9, 42, 0
6, 71820, Note_on_c, 9, 42, 50
6, 71820, Note_on_c, 9, 35, 100
6, 71834, Note_on_c, 9, 35, 0
6, 71834, Note_on_c, 9, 42, 0
6, 71880, Note_on_c, 9, 43, 100
6, 71880, Note_on_c, 9, 42, 50
6, 71894, Note_on_c, 9, 42, 0
6, 71894, Note_on_c, 9, 43, 0
6, 71940, Note_on_c, 9, 43, 100
6, 71940, Note_on_c, 9, 42, 50
6, 71954, Note_on_c, 9, 42, 0
6, 71954, Note_on_c, 9, 43, 0
6, 72000, Note_on_c, 9, 42, 50
6, 72000, Note_on_c, 9, 35, 100
6, 72014, Note_on_c, 9, 35, 0
6, 72014, Note_on_c, 9, 42, 0
6, 72060, Note_on_c, 9, 42, 50
6, 72060, Note_on_c, 9, 35, 100
6, 72074, Note_on_c, 9, 35, 0
6, 72074, Note_on_c, 9, 42, 0
6, 72120, Note_on_c, 9, 42, 50
6, 72120, Note_on_c, 9, 38, 100
6, 72134, Note_on_c, 9, 38, 0
6, 72134, Note_on_c, 9, 42, 0
6, 72180, Note_on_c, 9, 42, 50
6, 72194, Note_on_c, 9, 42, 0
6, 72240, Note_on_c, 9, 42, 50
6, 72240, Note_on_c, 9, 35, 100
6, 72254, Note_on_c, 9, 35, 0
6, 72254, Note_on_c, 9, 42, 0
6, 72300, Note_on_c, 9, 45, 100
6, 72300, Note_on_c, 9, 42, 50
6, 72314, Note_on_c, 9, 42, 0
6, 72314, Note_on_c, 9, 45, 0
6, 72360, Note_on_c, 9, 43, 100
6, 72360, Note_on_c, 9, 42, 50
6, 72374, Note_on_c, 9, 42, 0
6, 72374, Note_on_c, 9, 43, 0
6, 72420, Note_on_c, 9, 41, 100
6, 72420, Note_on_c, 9, 42, 50
6, 72434, Note_on_c, 9, 42, 0
6, 72434, Note_on_c, 9, 41, 0
6, 72480, Note_on_c, 9, 42, 50
6, 72480, Note_on_c, 9, 35, 100
6, 72494, Note_on_c, 9, 35, 0
6, 72494, Note_on_c, 9, 42, 0
6, 72540, Note_on_c, 9, 42, 50
6, 72554, Note_on_c, 9, 42, 0
6, 72600, Note_on_c, 9, 42, 50
6, 72600, Note_on_c, 9, 38, 100
6, 72614, Note_on_c, 9, 38, 0
6, 72614, Note_on_c, 9, 42, 0
6, 72660, Note_on_c, 9, 42, 50
6, 72660, Note_on_c, 9, 35, 100
6, 72674, Note_on_c, 9, 35, 0
6, 72674, Note_on_c, 9, 42, 0
6, 72720, Note_on_c, 9, 42, 50
6, 72734, Note_on_c, 9, 42, 0
6, 72780, Note_on_c, 9, 42, 50
6, 72780, Note_on_c, 9, 35, 100
6, 72794, Note_on_c, 9, 35, 0
6, 72794, Note_on_c, 9, 42, 0
6, 72840, Note_on_c, 9, 43, 100
6, 72840, Note_on_c, 9, 42, 50
6, 72854, Note_on_c, 9, 42, 0
6, 72854, Note_on_c, 9, 43, 0
6, 72900, Note_on_c, 9, 43, 100
6, 72900, Note_on_c, 9, 42, 50
6, 72914, Note_on_c, 9, 42, 0
6, 72914, Note_on_c, 9, 43, 0
6, 72960, Note_on_c, 9, 42, 50
6, 72960, Note_on_c, 9, 35, 100
6, 72974, Note_on_c, 9, 35, 0
6, 72974, Note_on_c, 9, 42, 0
6, 73020, Note_on_c, 9, 42, 50
6, 73020, Note_on_c, 9, 35, 100
6, 73034, Note_on_c, 9, 35, 0
6, 73034, Note_on_c, 9, 42, 0
6, 73080, Note_on_c, 9, 42, 50
6, 73080, Note_on_c, 9, 38, 100
6, 73094, Note_on_c, 9, 38, 0
6, 73094, Note_on_c, 9, 42, 0
6, 73140, Note_on_c, 9, 42, 50
6, 73154, Note_on_c, 9, 42, 0
6, 73200, Note_on_c, 9, 42, 50
6, 73200, Note_on_c, 9, 35, 100
6, 73214, Note_on_c, 9, 35, 0
6, 73214, Note_on_c, 9, 42, 0
6, 73260, Note_on_c, 9, 45, 100
6, 73260, Note_on_c, 9, 42, 50
6, 73274, Note_on_c, 9, 42, 0
6, 73274, Note_on_c, 9, 45, 0
6, 73320, Note_on_c, 9, 43, 100
6, 73320, Note_on_c, 9, 42, 50
6, 73334, Note_on_c, 9, 42, 0
6, 73334, Note_on_c, 9, 43, 0
6, 73380, Note_on_c, 9, 41, 100
6, 73380, Note_on_c, 9, 42, 50
6, 73394, Note_on_c, 9, 42, 0
6, 73394, Note_on_c, 9, 41, 0
6, 73440, Note_on_c, 9, 35, 100
6, 73440, Note_on_c, 9, 41, 100
6, 73440, Note_on_c, 9, 55, 100
6, 73440, Note_on_c, 9, 42, 50
6, 73454, Note_on_c, 9, 42, 0
6, 73454, Note_on_c, 9, 35, 0
6, 73454, Note_on_c, 9, 41, 0
6, 73454, Note_on_c, 9, 55, 0
6, 73500, Note_on_c, 9, 42, 50
6, 73514, Note_on_c, 9, 42, 0
6, 73560, Note_on_c, 9, 42, 50
6, 73574, Note_on_c, 9, 42, 0
6, 73620, Note_on_c, 9, 41, 100
6, 73620, Note_on_c, 9, 42, 50
6, 73634, Note_on_c, 9, 42, 0
6, 73634, Note_on_c, 9, 41, 0
6, 73680, Note_on_c, 9, 42, 50
6, 73694, Note_on_c, 9, 42, 0
6, 73740, Note_on_c, 9, 45, 100
6, 73740, Note_on_c, 9, 42, 50
6, 73754, Note_on_c, 9, 42, 0
6, 73754, Note_on_c, 9, 45, 0
6, 73800, Note_on_c, 9, 43, 100
6, 73800, Note_on_c, 9, 42, 50
6, 73814, Note_on_c, 9, 42, 0
6, 73814, Note_on_c, 9, 43, 0
6, 73860, Note_on_c, 9, 41, 100
6, 73860, Note_on_c, 9, 42, 50
6, 73874, Note_on_c, 9, 42, 0
6, 73874, Note_on_c, 9, 41, 0
6, 73890, Note_on_c, 9, 38, 100
6, 73904, Note_on_c, 9, 38, 0
6, 73920, Note_on_c, 9, 38, 100
6, 73920, Note_on_c, 9, 42, 50
6, 73934, Note_on_c, 9, 42, 0
6, 73934, Note_on_c, 9, 38, 0
6, 73980, Note_on_c, 9, 42, 50
6, 73994, Note_on_c, 9, 42, 0
6, 74040, Note_on_c, 9, 38, 100
6, 74040, Note_on_c, 9, 41, 100
6, 74040, Note_on_c, 9, 42, 50
6, 74054, Note_on_c, 9, 42, 0
6, 74054, Note_on_c, 9, 41, 0
6, 74054, Note_on_c, 9, 38, 0
6, 74100, Note_on_c, 9, 42, 50
6, 74114, Note_on_c, 9, 42, 0
6, 74160, Note_on_c, 9, 47, 100
6, 74160, Note_on_c, 9, 42, 50
6, 74174, Note_on_c, 9, 42, 0
6, 74174, Note_on_c, 9, 47, 0
6, 74220, Note_on_c, 9, 48, 100
6, 74220, Note_on_c, 9, 42, 50
6, 74234, Note_on_c, 9, 42, 0
6, 74234, Note_on_c, 9, 48, 0
6, 74280, Note_on_c, 9, 50, 100
6, 74280, Note_on_c, 9, 49, 100
6, 74280, Note_on_c, 9, 42, 50
6, 74294, Note_on_c, 9, 42, 0
6, 74294, Note_on_c, 9, 49, 0
6, 74294, Note_on_c, 9, 50, 0
6, 74340, Note_on_c, 9, 42, 50
6, 74354, Note_on_c, 9, 42, 0
6, 74400, Note_on_c, 9, 50, 100
6, 74400, Note_on_c, 9, 42, 50
6, 74414, Note_on_c, 9, 42, 0
6, 74414, Note_on_c, 9, 50, 0
6, 74460, Note_on_c, 9, 50, 100
6, 74460, Note_on_c, 9, 42, 50
6, 74474, Note_on_c, 9, 42, 0
6, 74474, Note_on_c, 9, 50, 0
6, 74520, Note_on_c, 9, 48, 100
6, 74520, Note_on_c, 9, 42, 50
6, 74534, Note_on_c, 9, 42, 0
6, 74534, Note_on_c, 9, 48, 0
6, 74580, Note_on_c, 9, 53, 100
6, 74580, Note_on_c, 9, 42, 50
6, 74594, Note_on_c, 9, 42, 0
6, 74594, Note_on_c, 9, 53, 0
6, 74640, Note_on_c, 9, 42, 50
6, 74654, Note_on_c, 9, 42, 0
6, 74700, Note_on_c, 9, 50, 100
6, 74700, Note_on_c, 9, 42, 50
6, 74714, Note_on_c, 9, 42, 0
6, 74714, Note_on_c, 9, 50, 0
6, 74760, Note_on_c, 9, 48, 100
6, 74760, Note_on_c, 9, 42, 50
6, 74774, Note_on_c, 9, 42, 0
6, 74774, Note_on_c, 9, 48, 0
6, 74820, Note_on_c, 9, 47, 100
6, 74820, Note_on_c, 9, 42, 50
6, 74834, Note_on_c, 9, 42, 0
6, 74834, Note_on_c, 9, 47, 0
6, 74880, Note_on_c, 9, 45, 100
6, 74880, Note_on_c, 9, 42, 50
6, 74894, Note_on_c, 9, 42, 0
6, 74894, Note_on_c, 9, 45, 0
6, 74940, Note_on_c, 9, 45, 100
6, 74940, Note_on_c, 9, 42, 50
6, 74954, Note_on_c, 9, 42, 0
6, 74954, Note_on_c, 9, 45, 0
6, 75000, Note_on_c, 9, 55, 100
6, 75000, Note_on_c, 9, 47, 100
6, 75000, Note_on_c, 9, 42, 50
6, 75014, Note_on_c, 9, 42, 0
6, 75014, Note_on_c, 9, 47, 0
6, 75014, Note_on_c, 9, 55, 0
6, 75060, Note_on_c, 9, 42, 50
6, 75074, Note_on_c, 9, 42, 0
6, 75120, Note_on_c, 9, 47, 100
6, 75120, Note_on_c, 9, 42, 50
6, 75134, Note_on_c, 9, 42, 0
6, 75134, Note_on_c, 9, 47, 0
6, 75180, Note_on_c, 9, 47, 100
6, 75180, Note_on_c, 9, 42, 50
6, 75194, Note_on_c, 9, 42, 0
6, 75194, Note_on_c, 9, 47, 0
6, 75240, Note_on_c, 9, 49, 100
6, 75240, Note_on_c, 9, 43, 100
6, 75240, Note_on_c, 9, 42, 50
6, 75254, Note_on_c, 9, 42, 0
6, 75254, Note_on_c, 9, 43, 0
6, 75254, Note_on_c, 9, 49, 0
6, 75300, Note_on_c, 9, 42, 50
6, 75314, Note_on_c, 9, 42, 0
6, 75330, Note_on_c, 9, 38, 100
6, 75344, Note_on_c, 9, 38, 0
6, 75360, Note_on_c, 9, 38, 100
6, 75360, Note_on_c, 9, 42, 50
6, 75374, Note_on_c, 9, 42, 0
6, 75374, Note_on_c, 9, 38, 0
6, 75420, Note_on_c, 9, 42, 50
6, 75434, Note_on_c, 9, 42, 0
6, 75480, Note_on_c, 9, 42, 50
6, 75480, Note_on_c, 9, 38, 100
6, 75494, Note_on_c, 9, 38, 0
6, 75494, Note_on_c, 9, 42, 0
6, 75540, Note_on_c, 9, 42, 50
6, 75554, Note_on_c, 9, 42, 0
6, 75600, Note_on_c, 9, 43, 100
6, 75600, Note_on_c, 9, 42, 50
6, 75614, Note_on_c, 9, 42, 0
6, 75614, Note_on_c, 9, 43, 0
6, 75660, Note_on_c, 9, 43, 100
6, 75660, Note_on_c, 9, 42, 50
6, 75674, Note_on_c, 9, 42, 0
6, 75674, Note_on_c, 9, 43, 0
6, 75720, Note_on_c, 9, 45, 100
6, 75720, Note_on_c, 9, 43, 100
6, 75720, Note_on_c, 9, 42, 50
6, 75734, Note_on_c, 9, 42, 0
6, 75734, Note_on_c, 9, 43, 0
6, 75734, Note_on_c, 9, 45, 0
6, 75780, Note_on_c, 9, 42, 50
6, 75794, Note_on_c, 9, 42, 0
6, 75810, Note_on_c, 9, 45, 100
6, 75824, Note_on_c, 9, 45, 0
6, 75825, Note_on_c, 9, 45, 100
6, 75839, Note_on_c, 9, 45, 0
6, 75840, Note_on_c, 9, 48, 100
6, 75840, Note_on_c, 9, 42, 50
6, 75854, Note_on_c, 9, 42, 0
6, 75854, Note_on_c, 9, 48, 0
6, 75900, Note_on_c, 9, 48, 100
6, 75900, Note_on_c, 9, 42, 50
6, 75914, Note_on_c, 9, 42, 0
6, 75914, Note_on_c, 9, 48, 0
6, 75960, Note_on_c, 9, 47, 100
6, 75960, Note_on_c, 9, 48, 100
6, 75960, Note_on_c, 9, 42, 50
6, 75974, Note_on_c, 9, 42, 0
6, 75974, Note_on_c, 9, 48, 0
6, 75974, Note_on_c, 9, 47, 0
6, 76020, Note_on_c, 9, 42, 50
6, 76034, Note_on_c, 9, 42, 0
6, 76080, Note_on_c, 9, 47, 100
6, 76080, Note_on_c, 9, 42, 50
6, 76094, Note_on_c, 9, 42, 0
6, 76094, Note_on_c, 9, 47, 0
6, 76140, Note_on_c, 9, 47, 100
6, 76140, Note_on_c, 9, 42, 50
6, 76154, Note_on_c, 9, 42, 0
6, 76154, Note_on_c, 9, 47, 0
6, 76200, Note_on_c, 9, 47, 100
6, 76200, Note_on_c, 9, 43, 100
6, 76200, Note_on_c, 9, 42, 50
6, 76214, Note_on_c, 9, 42, 0
6, 76214, Note_on_c, 9, 43, 0
6, 76214, Note_on_c, 9, 47, 0
6, 76260, Note_on_c, 9, 42, 50
6, 76274, Note_on_c, 9, 42, 0
6, 76320, Note_on_c, 9, 45, 100
6, 76320, Note_on_c, 9, 42, 50
6, 76334, Note_on_c, 9, 42, 0
6, 76334, Note_on_c, 9, 45, 0
6, 76380, Note_on_c, 9, 45, 100
6, 76380, Note_on_c, 9, 42, 50
6, 76394, Note_on_c, 9, 42, 0
6, 76394, Note_on_c, 9, 45, 0
6, 76440, Note_on_c, 9, 47, 100
6, 76440, Note_on_c, 9, 42, 50
6, 76454, Note_on_c, 9, 42, 0
6, 76454, Note_on_c, 9, 47, 0
6, 76470, Note_on_c, 9, 47, 100
6, 76484, Note_on_c, 9, 47, 0
6, 76500, Note_on_c, 9, 47, 100
6, 76500, Note_on_c, 9, 42, 50
6, 76514, Note_on_c, 9, 42, 0
6, 76514, Note_on_c, 9, 47, 0
6, 76560, Note_on_c, 9, 53, 100
6, 76560, Note_on_c, 9, 48, 100
6, 76560, Note_on_c, 9, 42, 50
6, 76574, Note_on_c, 9, 42, 0
6, 76574, Note_on_c, 9, 48, 0
6, 76574, Note_on_c, 9, 53, 0
6, 76620, Note_on_c, 9, 42, 50
6, 76634, Note_on_c, 9, 42, 0
6, 76680, Note_on_c, 9, 48, 100
6, 76680, Note_on_c, 9, 42, 50
6, 76694, Note_on_c, 9, 42, 0
6, 76694, Note_on_c, 9, 48, 0
6, 76740, Note_on_c, 9, 48, 100
6, 76740, Note_on_c, 9, 42, 50
6, 76754, Note_on_c, 9, 42, 0
6, 76754, Note_on_c, 9, 48, 0
6, 76770, Note_on_c, 9, 48, 100
6, 76784, Note_on_c, 9, 48, 0
6, 76800, Note_on_c, 9, 47, 100
6, 76800, Note_on_c, 9, 42, 50
6, 76814, Note_on_c, 9, 42, 0
6, 76814, Note_on_c, 9, 47, 0
6, 76860, Note_on_c, 9, 47, 100
6, 76860, Note_on_c, 9, 42, 50
6, 76874, Note_on_c, 9, 42, 0
6, 76874, Note_on_c, 9, 47, 0
6, 76920, Note_on_c, 9, 45, 100
6, 76920, Note_on_c, 9, 42, 50
6, 76934, Note_on_c, 9, 42, 0
6, 76934, Note_on_c, 9, 45, 0
6, 76950, Note_on_c, 9, 45, 100
6, 76964, Note_on_c, 9, 45, 0
6, 76980, Note_on_c, 9, 45, 100
6, 76980, Note_on_c, 9, 42, 50
6, 76994, Note_on_c, 9, 42, 0
6, 76994, Note_on_c, 9, 45, 0
6, 77040, Note_on_c, 9, 43, 100
6, 77040, Note_on_c, 9, 42, 50
6, 77054, Note_on_c, 9, 42, 0
6, 77054, Note_on_c, 9, 43, 0
6, 77100, Note_on_c, 9, 43, 100
6, 77100, Note_on_c, 9, 42, 50
6, 77114, Note_on_c, 9, 42, 0
6, 77114, Note_on_c, 9, 43, 0
6, 77160, Note_on_c, 9, 41, 100
6, 77160, Note_on_c, 9, 42, 50
6, 77174, Note_on_c, 9, 42, 0
6, 77174, Note_on_c, 9, 41, 0
6, 77220, Note_on_c, 9, 55, 100
6, 77234, Note_on_c, 9, 55, 0
6, 77280, Note_on_c, 9, 36, 100
6, 77280, Note_on_c, 9, 38, 100
6, 77280, Note_on_c, 9, 55, 100
6, 77280, Note_on_c, 9, 42, 50
6, 77294, Note_on_c, 9, 42, 0
6, 77294, Note_on_c, 9, 36, 0
6, 77294, Note_on_c, 9, 38, 0
6, 77294, Note_on_c, 9, 55, 0
6, 77340, Note_on_c, 9, 42, 50
6, 77354, Note_on_c, 9, 42, 0
6, 77400, Note_on_c, 9, 42, 50
6, 77414, Note_on_c, 9, 42, 0
6, 77460, Note_on_c, 9, 38, 100
6, 77460, Note_on_c, 9, 36, 100
6, 77460, Note_on_c, 9, 42, 50
6, 77474, Note_on_c, 9, 42, 0
6, 77474, Note_on_c, 9, 36, 0
6, 77474, Note_on_c, 9, 38, 0
6, 77520, Note_on_c, 9, 42, 50
6, 77534, Note_on_c, 9, 42, 0
6, 77580, Note_on_c, 9, 48, 100
6, 77580, Note_on_c, 9, 45, 100
6, 77580, Note_on_c, 9, 42, 50
6, 77594, Note_on_c, 9, 42, 0
6, 77594, Note_on_c, 9, 45, 0
6, 77594, Note_on_c, 9, 48, 0
6, 77640, Note_on_c, 9, 47, 100
6, 77640, Note_on_c, 9, 45, 100
6, 77640, Note_on_c, 9, 42, 50
6, 77654, Note_on_c, 9, 42, 0
6, 77654, Note_on_c, 9, 45, 0
6, 77654, Note_on_c, 9, 47, 0
6, 77700, Note_on_c, 9, 60, 100
6, 77700, Note_on_c, 9, 42, 50
6, 77714, Note_on_c, 9, 42, 0
6, 77714, Note_on_c, 9, 60, 0
6, 77715, Note_on_c, 9, 60, 100
6, 77729, Note_on_c, 9, 60, 0
6, 77730, Note_on_c, 9, 60, 100
6, 77744, Note_on_c, 9, 60, 0
6, 77745, Note_on_c, 9, 60, 100
6, 77759, Note_on_c, 9, 60, 0
6, 77760, Note_on_c, 9, 61, 100
6, 77760, Note_on_c, 9, 60, 100
6, 77760, Note_on_c, 9, 42, 50
6, 77774, Note_on_c, 9, 42, 0
6, 77774, Note_on_c, 9, 60, 0
6, 77774, Note_on_c, 9, 61, 0
6, 77820, Note_on_c, 9, 42, 50
6, 77834, Note_on_c, 9, 42, 0
6, 77880, Note_on_c, 9, 61, 100
6, 77880, Note_on_c, 9, 60, 100
6, 77880, Note_on_c, 9, 42, 50
6, 77894, Note_on_c, 9, 42, 0
6, 77894, Note_on_c, 9, 60, 0
6, 77894, Note_on_c, 9, 61, 0
6, 77940, Note_on_c, 9, 42, 50
6, 77954, Note_on_c, 9, 42, 0
6, 78000, Note_on_c, 9, 60, 100
6, 78000, Note_on_c, 9, 61, 100
6, 78000, Note_on_c, 9, 42, 50
6, 78014, Note_on_c, 9, 42, 0
6, 78014, Note_on_c, 9, 61, 0
6, 78014, Note_on_c, 9, 60, 0
6, 78060, Note_on_c, 9, 42, 50
6, 78074, Note_on_c, 9, 42, 0
6, 78120, Note_on_c, 9, 49, 100
6, 78120, Note_on_c, 9, 42, 50
6, 78134, Note_on_c, 9, 42, 0
6, 78134, Note_on_c, 9, 49, 0
6, 78180, Note_on_c, 9, 50, 100
6, 78180, Note_on_c, 9, 48, 100
6, 78180, Note_on_c, 9, 42, 50
6, 78194, Note_on_c, 9, 42, 0
6, 78194, Note_on_c, 9, 48, 0
6, 78194, Note_on_c, 9, 50, 0
6, 78240, Note_on_c, 9, 50, 100
6, 78240, Note_on_c, 9, 42, 50
6, 78254, Note_on_c, 9, 42, 0
6, 78254, Note_on_c, 9, 50, 0
6, 78300, Note_on_c, 9, 42, 50
6, 78314, Note_on_c, 9, 42, 0
6, 78360, Note_on_c, 9, 50, 100
6, 78360, Note_on_c, 9, 48, 100
6, 78360, Note_on_c, 9, 42, 50
6, 78374, Note_on_c, 9, 42, 0
6, 78374, Note_on_c, 9, 48, 0
6, 78374, Note_on_c, 9, 50, 0
6, 78420, Note_on_c, 9, 47, 100
6, 78420, Note_on_c, 9, 50, 100
6, 78420, Note_on_c, 9, 42, 50
6, 78434, Note_on_c, 9, 42, 0
6, 78434, Note_on_c, 9, 50, 0
6, 78434, Note_on_c, 9, 47, 0
6, 78480, Note_on_c, 9, 45, 100
6, 78480, Note_on_c, 9, 50, 100
6, 78480, Note_on_c, 9, 42, 50
6, 78494, Note_on_c, 9, 42, 0
6, 78494, Note_on_c, 9, 50, 0
6, 78494, Note_on_c, 9, 45, 0
6, 78540, Note_on_c, 9, 43, 100
6, 78540, Note_on_c, 9, 50, 100
6, 78540, Note_on_c, 9, 42, 50
6, 78554, Note_on_c, 9, 42, 0
6, 78554, Note_on_c, 9, 50, 0
6, 78554, Note_on_c, 9, 43, 0
6, 78600, Note_on_c, 9, 50, 100
6, 78600, Note_on_c, 9, 41, 100
6, 78600, Note_on_c, 9, 42, 50
6, 78614, Note_on_c, 9, 42, 0
6, 78614, Note_on_c, 9, 41, 0
6, 78614, Note_on_c, 9, 50, 0
6, 78660, Note_on_c, 9, 43, 100
6, 78660, Note_on_c, 9, 50, 100
6, 78660, Note_on_c, 9, 42, 50
6, 78674, Note_on_c, 9, 42, 0
6, 78674, Note_on_c, 9, 50, 0
6, 78674, Note_on_c, 9, 43, 0
6, 78720, Note_on_c, 9, 45, 100
6, 78720, Note_on_c, 9, 42, 50
6, 78734, Note_on_c, 9, 42, 0
6, 78734, Note_on_c, 9, 45, 0
6, 78780, Note_on_c, 9, 45, 100
6, 78780, Note_on_c, 9, 42, 50
6, 78794, Note_on_c, 9, 42, 0
6, 78794, Note_on_c, 9, 45, 0
6, 78840, Note_on_c, 9, 47, 100
6, 78840, Note_on_c, 9, 42, 50
6, 78854, Note_on_c, 9, 42, 0
6, 78854, Note_on_c, 9, 47, 0
6, 78900, Note_on_c, 9, 42, 50
6, 78914, Note_on_c, 9, 42, 0
6, 78960, Note_on_c, 9, 47, 100
6, 78960, Note_on_c, 9, 42, 50
6, 78974, Note_on_c, 9, 42, 0
6, 78974, Note_on_c, 9, 47, 0
6, 79020, Note_on_c, 9, 47, 100
6, 79020, Note_on_c, 9, 42, 50
6, 79034, Note_on_c, 9, 42, 0
6, 79034, Note_on_c, 9, 47, 0
6, 79080, Note_on_c, 9, 49, 100
6, 79080, Note_on_c, 9, 43, 100
6, 79080, Note_on_c, 9, 42, 50
6, 79094, Note_on_c, 9, 42, 0
6, 79094, Note_on_c, 9, 43, 0
6, 79094, Note_on_c, 9, 49, 0
6, 79140, Note_on_c, 9, 42, 50
6, 79154, Note_on_c, 9, 42, 0
6, 79170, Note_on_c, 9, 38, 100
6, 79184, Note_on_c, 9, 38, 0
6, 79200, Note_on_c, 9, 38, 100
6, 79200, Note_on_c, 9, 42, 50
6, 79214, Note_on_c, 9, 42, 0
6, 79214, Note_on_c, 9, 38, 0
6, 79260, Note_on_c, 9, 42, 50
6, 79274, Note_on_c, 9, 42, 0
6, 79320, Note_on_c, 9, 42, 50
6, 79334, Note_on_c, 9, 42, 0
6, 79380, Note_on_c, 9, 38, 100
6, 79380, Note_on_c, 9, 42, 50
6, 79394, Note_on_c, 9, 42, 0
6, 79394, Note_on_c, 9, 38, 0
6, 79440, Note_on_c, 9, 42, 50
6, 79454, Note_on_c, 9, 42, 0
6, 79500, Note_on_c, 9, 42, 50
6, 79514, Note_on_c, 9, 42, 0
6, 79560, Note_on_c, 9, 40, 100
6, 79560, Note_on_c, 9, 38, 100
6, 79560, Note_on_c, 9, 42, 50
6, 79574, Note_on_c, 9, 42, 0
6, 79574, Note_on_c, 9, 38, 0
6, 79574, Note_on_c, 9, 40, 0
6, 79620, Note_on_c, 9, 40, 100
6, 79620, Note_on_c, 9, 38, 100
6, 79620, Note_on_c, 9, 42, 50
6, 79634, Note_on_c, 9, 42, 0
6, 79634, Note_on_c, 9, 38, 0
6, 79634, Note_on_c, 9, 40, 0
6, 79680, Note_on_c, 9, 38, 100
6, 79680, Note_on_c, 9, 40, 100
6, 79680, Note_on_c, 9, 42, 50
6, 79694, Note_on_c, 9, 42, 0
6, 79694, Note_on_c, 9, 40, 0
6, 79694, Note_on_c, 9, 38, 0
6, 79740, Note_on_c, 9, 42, 50
6, 79754, Note_on_c, 9, 42, 0
6, 79800, Note_on_c, 9, 50, 100
6, 79800, Note_on_c, 9, 42, 50
6, 79814, Note_on_c, 9, 42, 0
6, 79814, Note_on_c, 9, 50, 0
6, 79860, Note_on_c, 9, 50, 100
6, 79860, Note_on_c, 9, 42, 50
6, 79874, Note_on_c, 9, 42, 0
6, 79874, Note_on_c, 9, 50, 0
6, 79920, Note_on_c, 9, 47, 100
6, 79920, Note_on_c, 9, 48, 100
6, 79920, Note_on_c, 9, 42, 50
6, 79934, Note_on_c, 9, 42, 0
6, 79934, Note_on_c, 9, 48, 0
6, 79934, Note_on_c, 9, 47, 0
6, 79980, Note_on_c, 9, 42, 50
6, 79994, Note_on_c, 9, 42, 0
6, 80040, Note_on_c, 9, 45, 100
6, 80040, Note_on_c, 9, 47, 100
6, 80040, Note_on_c, 9, 42, 50
6, 80054, Note_on_c, 9, 42, 0
6, 80054, Note_on_c, 9, 47, 0
6, 80054, Note_on_c, 9, 45, 0
6, 80100, Note_on_c, 9, 42, 50
6, 80114, Note_on_c, 9, 42, 0
6, 80160, Note_on_c, 9, 46, 100
6, 80160, Note_on_c, 9, 41, 100
6, 80160, Note_on_c, 9, 43, 100
6, 80160, Note_on_c, 9, 42, 50
6, 80174, Note_on_c, 9, 42, 0
6, 80174, Note_on_c, 9, 46, 0
6, 80174, Note_on_c, 9, 41, 0
6, 80174, Note_on_c, 9, 43, 0
6, 80220, Note_on_c, 9, 40, 100
6, 80220, Note_on_c, 9, 38, 100
6, 80220, Note_on_c, 9, 42, 50
6, 80234, Note_on_c, 9, 42, 0
6, 80234, Note_on_c, 9, 38, 0
6, 80234, Note_on_c, 9, 40, 0
6, 80280, Note_on_c, 9, 40, 100
6, 80280, Note_on_c, 9, 38, 100
6, 80280, Note_on_c, 9, 42, 50
6, 80294, Note_on_c, 9, 42, 0
6, 80294, Note_on_c, 9, 38, 0
6, 80294, Note_on_c, 9, 40, 0
6, 80340, Note_on_c, 9, 38, 100
6, 80340, Note_on_c, 9, 40, 100
6, 80340, Note_on_c, 9, 42, 50
6, 80354, Note_on_c, 9, 42, 0
6, 80354, Note_on_c, 9, 40, 0
6, 80354, Note_on_c, 9, 38, 0
6, 80400, Note_on_c, 9, 46, 100
6, 80400, Note_on_c, 9, 40, 100
6, 80400, Note_on_c, 9, 42, 50
6, 80414, Note_on_c, 9, 42, 0
6, 80414, Note_on_c, 9, 40, 0
6, 80414, Note_on_c, 9, 46, 0
6, 80415, Note_on_c, 9, 40, 80
6, 80429, Note_on_c, 9, 40, 0
6, 80430, Note_on_c, 9, 40, 80
6, 80444, Note_on_c, 9, 40, 0
6, 80445, Note_on_c, 9, 40, 80
6, 80459, Note_on_c, 9, 40, 0
6, 80460, Note_on_c, 9, 40, 80
6, 80460, Note_on_c, 9, 42, 50
6, 80474, Note_on_c, 9, 42, 0
6, 80474, Note_on_c, 9, 40, 0
6, 80475, Note_on_c, 9, 40, 80
6, 80489, Note_on_c, 9, 40, 0
6, 80490, Note_on_c, 9, 40, 80
6, 80504, Note_on_c, 9, 40, 0
6, 80505, Note_on_c, 9, 40, 80
6, 80519, Note_on_c, 9, 40, 0
6, 80520, Note_on_c, 9, 40, 80
6, 80520, Note_on_c, 9, 42, 50
6, 80534, Note_on_c, 9, 42, 0
6, 80534, Note_on_c, 9, 40, 0
6, 80535, Note_on_c, 9, 40, 80
6, 80549, Note_on_c, 9, 40, 0
6, 80550, Note_on_c, 9, 40, 80
6, 80564, Note_on_c, 9, 40, 0
6, 80565, Note_on_c, 9, 40, 80
6, 80579, Note_on_c, 9, 40, 0
6, 80580, Note_on_c, 9, 40, 80
6, 80580, Note_on_c, 9, 42, 50
6, 80594, Note_on_c, 9, 42, 0
6, 80594, Note_on_c, 9, 40, 0
6, 80595, Note_on_c, 9, 40, 80
6, 80609, Note_on_c, 9, 40, 0
6, 80610, Note_on_c, 9, 40, 80
6, 80624, Note_on_c, 9, 40, 0
6, 80625, Note_on_c, 9, 40, 80
6, 80639, Note_on_c, 9, 40, 0
6, 80640, Note_on_c, 9, 46, 80
6, 80640, Note_on_c, 9, 40, 100
6, 80640, Note_on_c, 9, 42, 50
6, 80654, Note_on_c, 9, 42, 0
6, 80654, Note_on_c, 9, 40, 0
6, 80654, Note_on_c, 9, 46, 0
6, 80655, Note_on_c, 9, 40, 80
6, 80669, Note_on_c, 9, 40, 0
6, 80670, Note_on_c, 9, 40, 80
6, 80684, Note_on_c, 9, 40, 0
6, 80685, Note_on_c, 9, 40, 80
6, 80699, Note_on_c, 9, 40, 0
6, 80700, Note_on_c, 9, 40, 80
6, 80700, Note_on_c, 9, 42, 50
6, 80714, Note_on_c, 9, 42, 0
6, 80714, Note_on_c, 9, 40, 0
6, 80715, Note_on_c, 9, 40, 80
6, 80729, Note_on_c, 9, 40, 0
6, 80730, Note_on_c, 9, 40, 80
6, 80744, Note_on_c, 9, 40, 0
6, 80745, Note_on_c, 9, 40, 80
6, 80759, Note_on_c, 9, 40, 0
6, 80760, Note_on_c, 9, 40, 80
6, 80760, Note_on_c, 9, 42, 50
6, 80774, Note_on_c, 9, 42, 0
6, 80774, Note_on_c, 9, 40, 0
6, 80775, Note_on_c, 9, 40, 80
6, 80789, Note_on_c, 9, 40, 0
6, 80790, Note_on_c, 9, 40, 80
6, 80804, Note_on_c, 9, 40, 0
6, 80805, Note_on_c, 9, 40, 80
6, 80819, Note_on_c, 9, 40, 0
6, 80820, Note_on_c, 9, 40, 80
6, 80820, Note_on_c, 9, 42, 50
6, 80834, Note_on_c, 9, 42, 0
6, 80834, Note_on_c, 9, 40, 0
6, 80835, Note_on_c, 9, 40, 80
6, 80849, Note_on_c, 9, 40, 0
6, 80850, Note_on_c, 9, 40, 80
6, 80864, Note_on_c, 9, 40, 0
6, 80865, Note_on_c, 9, 40, 80
6, 80879, Note_on_c, 9, 40, 0
6, 80880, Note_on_c, 9, 46, 100
6, 80880, Note_on_c, 9, 40, 80
6, 80880, Note_on_c, 9, 42, 50
6, 80894, Note_on_c, 9, 42, 0
6, 80894, Note_on_c, 9, 40, 0
6, 80894, Note_on_c, 9, 46, 0
6, 80895, Note_on_c, 9, 40, 80
6, 80909, Note_on_c, 9, 40, 0
6, 80910, Note_on_c, 9, 40, 80
6, 80924, Note_on_c, 9, 40, 0
6, 80925, Note_on_c, 9, 40, 80
6, 80939, Note_on_c, 9, 40, 0
6, 80940, Note_on_c, 9, 40, 80
6, 80940, Note_on_c, 9, 42, 50
6, 80954, Note_on_c, 9, 42, 0
6, 80954, Note_on_c, 9, 40, 0
6, 80955, Note_on_c, 9, 40, 80
6, 80969, Note_on_c, 9, 40, 0
6, 80970, Note_on_c, 9, 40, 80
6, 80984, Note_on_c, 9, 40, 0
6, 80985, Note_on_c, 9, 40, 80
6, 80999, Note_on_c, 9, 40, 0
6, 81000, Note_on_c, 9, 40, 80
6, 81000, Note_on_c, 9, 42, 50
6, 81014, Note_on_c, 9, 42, 0
6, 81014, Note_on_c, 9, 40, 0
6, 81015, Note_on_c, 9, 40, 80
6, 81029, Note_on_c, 9, 40, 0
6, 81030, Note_on_c, 9, 40, 80
6, 81044, Note_on_c, 9, 40, 0
6, 81045, Note_on_c, 9, 40, 80
6, 81059, Note_on_c, 9, 40, 0
6, 81060, Note_on_c, 9, 40, 80
6, 81060, Note_on_c, 9, 55, 100
6, 81074, Note_on_c, 9, 55, 0
6, 81074, Note_on_c, 9, 40, 0
6, 81075, Note_on_c, 9, 40, 80
6, 81089, Note_on_c, 9, 40, 0
6, 81090, Note_on_c, 9, 40, 80
6, 81104, Note_on_c, 9, 40, 0
6, 81105, Note_on_c, 9, 40, 80
6, 81119, Note_on_c, 9, 40, 0
6, 81120, Note_on_c, 9, 42, 50
6, 81120, Note_on_c, 9, 35, 100
6, 81134, Note_on_c, 9, 35, 0
6, 81134, Note_on_c, 9, 42, 0
6, 81180, Note_on_c, 9, 42, 50
6, 81194, Note_on_c, 9, 42, 0
6, 81240, Note_on_c, 9, 42, 50
6, 81240, Note_on_c, 9, 38, 100
6, 81254, Note_on_c, 9, 38, 0
6, 81254, Note_on_c, 9, 42, 0
6, 81300, Note_on_c, 9, 42, 50
6, 81300, Note_on_c, 9, 35, 100
6, 81314, Note_on_c, 9, 35, 0
6, 81314, Note_on_c, 9, 42, 0
6, 81360, Note_on_c, 9, 42, 50
6, 81374, Note_on_c, 9, 42, 0
6, 81420, Note_on_c, 9, 42, 50
6, 81420, Note_on_c, 9, 35, 100
6, 81434, Note_on_c, 9, 35, 0
6, 81434, Note_on_c, 9, 42, 0
6, 81480, Note_on_c, 9, 42, 50
6, 81480, Note_on_c, 9, 38, 100
6, 81494, Note_on_c, 9, 38, 0
6, 81494, Note_on_c, 9, 42, 0
6, 81540, Note_on_c, 9, 42, 50
6, 81554, Note_on_c, 9, 42, 0
6, 81600, Note_on_c, 9, 42, 50
6, 81600, Note_on_c, 9, 35, 100
6, 81614, Note_on_c, 9, 35, 0
6, 81614, Note_on_c, 9, 42, 0
6, 81660, Note_on_c, 9, 42, 50
6, 81660, Note_on_c, 9, 35, 100
6, 81674, Note_on_c, 9, 35, 0
6, 81674, Note_on_c, 9, 42, 0
6, 81720, Note_on_c, 9, 42, 50
6, 81720, Note_on_c, 9, 38, 100
6, 81734, Note_on_c, 9, 38, 0
6, 81734, Note_on_c, 9, 42, 0
6, 81780, Note_on_c, 9, 42, 50
6, 81794, Note_on_c, 9, 42, 0
6, 81840, Note_on_c, 9, 42, 50
6, 81840, Note_on_c, 9, 35, 100
6, 81854, Note_on_c, 9, 35, 0
6, 81854, Note_on_c, 9, 42, 0
6, 81900, Note_on_c, 9, 42, 50
6, 81900, Note_on_c, 9, 35, 100
6, 81914, Note_on_c, 9, 35, 0
6, 81914, Note_on_c, 9, 42, 0
6, 81960, Note_on_c, 9, 42, 50
6, 81960, Note_on_c, 9, 38, 100
6, 81974, Note_on_c, 9, 38, 0
6, 81974, Note_on_c, 9, 42, 0
6, 82020, Note_on_c, 9, 42, 50
6, 82034, Note_on_c, 9, 42, 0
6, 82080, Note_on_c, 9, 42, 50
6, 82080, Note_on_c, 9, 35, 100
6, 82094, Note_on_c, 9, 35, 0
6, 82094, Note_on_c, 9, 42, 0
6, 82140, Note_on_c, 9, 42, 50
6, 82154, Note_on_c, 9, 42, 0
6, 82200, Note_on_c, 9, 42, 50
6, 82200, Note_on_c, 9, 38, 100
6, 82214, Note_on_c, 9, 38, 0
6, 82214, Note_on_c, 9, 42, 0
6, 82260, Note_on_c, 9, 42, 50
6, 82260, Note_on_c, 9, 35, 100
6, 82274, Note_on_c, 9, 35, 0
6, 82274, Note_on_c, 9, 42, 0
6, 82320, Note_on_c, 9, 42, 50
6, 82334, Note_on_c, 9, 42, 0
6, 82380, Note_on_c, 9, 42, 50
6, 82380, Note_on_c, 9, 35, 100
6, 82394, Note_on_c, 9, 35, 0
6, 82394, Note_on_c, 9, 42, 0
6, 82440, Note_on_c, 9, 42, 50
6, 82440, Note_on_c, 9, 38, 100
6, 82454, Note_on_c, 9, 38, 0
6, 82454, Note_on_c, 9, 42, 0
6, 82500, Note_on_c, 9, 42, 50
6, 82514, Note_on_c, 9, 42, 0
6, 82560, Note_on_c, 9, 42, 50
6, 82560, Note_on_c, 9, 35, 100
6, 82574, Note_on_c, 9, 35, 0
6, 82574, Note_on_c, 9, 42, 0
6, 82620, Note_on_c, 9, 42, 50
6, 82620, Note_on_c, 9, 35, 100
6, 82634, Note_on_c, 9, 35, 0
6, 82634, Note_on_c, 9, 42, 0
6, 82680, Note_on_c, 9, 42, 50
6, 82680, Note_on_c, 9, 38, 100
6, 82694, Note_on_c, 9, 38, 0
6, 82694, Note_on_c, 9, 42, 0
6, 82740, Note_on_c, 9, 42, 50
6, 82754, Note_on_c, 9, 42, 0
6, 82800, Note_on_c, 9, 42, 50
6, 82800, Note_on_c, 9, 35, 100
6, 82814, Note_on_c, 9, 35, 0
6, 82814, Note_on_c, 9, 42, 0
6, 82860, Note_on_c, 9, 42, 50
6, 82860, Note_on_c, 9, 35, 100
6, 82874, Note_on_c, 9, 35, 0
6, 82874, Note_on_c, 9, 42, 0
6, 82920, Note_on_c, 9, 42, 50
6, 82920, Note_on_c, 9, 38, 100
6, 82934, Note_on_c, 9, 38, 0
6, 82934, Note_on_c, 9, 42, 0
6, 82980, Note_on_c, 9, 42, 50
6, 82994, Note_on_c, 9, 42, 0
6, 83040, Note_on_c, 9, 42, 50
6, 83040, Note_on_c, 9, 35, 100
6, 83054, Note_on_c, 9, 35, 0
6, 83054, Note_on_c, 9, 42, 0
6, 83100, Note_on_c, 9, 42, 50
6, 83114, Note_on_c, 9, 42, 0
6, 83160, Note_on_c, 9, 42, 50
6, 83160, Note_on_c, 9, 38, 100
6, 83174, Note_on_c, 9, 38, 0
6, 83174, Note_on_c, 9, 42, 0
6, 83220, Note_on_c, 9, 42, 50
6, 83220, Note_on_c, 9, 35, 100
6, 83234, Note_on_c, 9, 35, 0
6, 83234, Note_on_c, 9, 42, 0
6, 83280, Note_on_c, 9, 42, 50
6, 83294, Note_on_c, 9, 42, 0
6, 83340, Note_on_c, 9, 42, 50
6, 83340, Note_on_c, 9, 35, 100
6, 83354, Note_on_c, 9, 35, 0
6, 83354, Note_on_c, 9, 42, 0
6, 83400, Note_on_c, 9, 42, 50
6, 83400, Note_on_c, 9, 38, 100
6, 83414, Note_on_c, 9, 38, 0
6, 83414, Note_on_c, 9, 42, 0
6, 83460, Note_on_c, 9, 42, 50
6, 83474, Note_on_c, 9, 42, 0
6, 83520, Note_on_c, 9, 42, 50
6, 83520, Note_on_c, 9, 35, 100
6, 83534, Note_on_c, 9, 35, 0
6, 83534, Note_on_c, 9, 42, 0
6, 83580, Note_on_c, 9, 42, 50
6, 83580, Note_on_c, 9, 35, 100
6, 83594, Note_on_c, 9, 35, 0
6, 83594, Note_on_c, 9, 42, 0
6, 83640, Note_on_c, 9, 42, 50
6, 83640, Note_on_c, 9, 38, 100
6, 83654, Note_on_c, 9, 38, 0
6, 83654, Note_on_c, 9, 42, 0
6, 83700, Note_on_c, 9, 42, 50
6, 83714, Note_on_c, 9, 42, 0
6, 83760, Note_on_c, 9, 42, 50
6, 83760, Note_on_c, 9, 35, 100
6, 83774, Note_on_c, 9, 35, 0
6, 83774, Note_on_c, 9, 42, 0
6, 83820, Note_on_c, 9, 42, 50
6, 83820, Note_on_c, 9, 35, 100
6, 83834, Note_on_c, 9, 35, 0
6, 83834, Note_on_c, 9, 42, 0
6, 83880, Note_on_c, 9, 42, 50
6, 83880, Note_on_c, 9, 38, 100
6, 83894, Note_on_c, 9, 38, 0
6, 83894, Note_on_c, 9, 42, 0
6, 83940, Note_on_c, 9, 42, 50
6, 83954, Note_on_c, 9, 42, 0
6, 84000, Note_on_c, 9, 42, 50
6, 84000, Note_on_c, 9, 35, 100
6, 84014, Note_on_c, 9, 35, 0
6, 84014, Note_on_c, 9, 42, 0
6, 84060, Note_on_c, 9, 42, 50
6, 84074, Note_on_c, 9, 42, 0
6, 84120, Note_on_c, 9, 42, 50
6, 84120, Note_on_c, 9, 38, 100
6, 84134, Note_on_c, 9, 38, 0
6, 84134, Note_on_c, 9, 42, 0
6, 84180, Note_on_c, 9, 42, 50
6, 84180, Note_on_c, 9, 35, 100
6, 84194, Note_on_c, 9, 35, 0
6, 84194, Note_on_c, 9, 42, 0
6, 84240, Note_on_c, 9, 42, 50
6, 84254, Note_on_c, 9, 42, 0
6, 84300, Note_on_c, 9, 42, 50
6, 84300, Note_on_c, 9, 35, 100
6, 84314, Note_on_c, 9, 35, 0
6, 84314, Note_on_c, 9, 42, 0
6, 84360, Note_on_c, 9, 42, 50
6, 84360, Note_on_c, 9, 38, 100
6, 84374, Note_on_c, 9, 38, 0
6, 84374, Note_on_c, 9, 42, 0
6, 84420, Note_on_c, 9, 42, 50
6, 84434, Note_on_c, 9, 42, 0
6, 84480, Note_on_c, 9, 42, 50
6, 84480, Note_on_c, 9, 35, 100
6, 84494, Note_on_c, 9, 35, 0
6, 84494, Note_on_c, 9, 42, 0
6, 84540, Note_on_c, 9, 42, 50
6, 84540, Note_on_c, 9, 35, 100
6, 84554, Note_on_c, 9, 35, 0
6, 84554, Note_on_c, 9, 42, 0
6, 84600, Note_on_c, 9, 42, 50
6, 84600, Note_on_c, 9, 38, 100
6, 84614, Note_on_c, 9, 38, 0
6, 84614, Note_on_c, 9, 42, 0
6, 84660, Note_on_c, 9, 42, 50
6, 84674, Note_on_c, 9, 42, 0
6, 84720, Note_on_c, 9, 42, 50
6, 84720, Note_on_c, 9, 35, 100
6, 84734, Note_on_c, 9, 35, 0
6, 84734, Note_on_c, 9, 42, 0
6, 84780, Note_on_c, 9, 42, 50
6, 84780, Note_on_c, 9, 35, 100
6, 84794, Note_on_c, 9, 35, 0
6, 84794, Note_on_c, 9, 42, 0
6, 84840, Note_on_c, 9, 42, 50
6, 84840, Note_on_c, 9, 38, 100
6, 84854, Note_on_c, 9, 38, 0
6, 84854, Note_on_c, 9, 42, 0
6, 84900, Note_on_c, 9, 42, 50
6, 84914, Note_on_c, 9, 42, 0
6, 84960, Note_on_c, 9, 42, 50
6, 84960, Note_on_c, 9, 35, 100
6, 84974, Note_on_c, 9, 35, 0
6, 84974, Note_on_c, 9, 42, 0
6, 85020, Note_on_c, 9, 42, 50
6, 85034, Note_on_c, 9, 42, 0
6, 85080, Note_on_c, 9, 42, 50
6, 85080, Note_on_c, 9, 38, 100
6, 85094, Note_on_c, 9, 38, 0
6, 85094, Note_on_c, 9, 42, 0
6, 85140, Note_on_c, 9, 42, 50
6, 85140, Note_on_c, 9, 35, 100
6, 85154, Note_on_c, 9, 35, 0
6, 85154, Note_on_c, 9, 42, 0
6, 85200, Note_on_c, 9, 42, 50
6, 85214, Note_on_c, 9, 42, 0
6, 85260, Note_on_c, 9, 42, 50
6, 85260, Note_on_c, 9, 35, 100
6, 85274, Note_on_c, 9, 35, 0
6, 85274, Note_on_c, 9, 42, 0
6, 85320, Note_on_c, 9, 43, 100
6, 85320, Note_on_c, 9, 42, 50
6, 85334, Note_on_c, 9, 42, 0
6, 85334, Note_on_c, 9, 43, 0
6, 85380, Note_on_c, 9, 43, 100
6, 85380, Note_on_c, 9, 42, 50
6, 85394, Note_on_c, 9, 42, 0
6, 85394, Note_on_c, 9, 43, 0
6, 85440, Note_on_c, 9, 42, 50
6, 85440, Note_on_c, 9, 35, 100
6, 85454, Note_on_c, 9, 35, 0
6, 85454, Note_on_c, 9, 42, 0
6, 85500, Note_on_c, 9, 42, 50
6, 85500, Note_on_c, 9, 35, 100
6, 85514, Note_on_c, 9, 35, 0
6, 85514, Note_on_c, 9, 42, 0
6, 85560, Note_on_c, 9, 42, 50
6, 85560, Note_on_c, 9, 38, 100
6, 85574, Note_on_c, 9, 38, 0
6, 85574, Note_on_c, 9, 42, 0
6, 85620, Note_on_c, 9, 42, 50
6, 85634, Note_on_c, 9, 42, 0
6, 85680, Note_on_c, 9, 42, 50
6, 85680, Note_on_c, 9, 35, 100
6, 85694, Note_on_c, 9, 35, 0
6, 85694, Note_on_c, 9, 42, 0
6, 85740, Note_on_c, 9, 45, 100
6, 85740, Note_on_c, 9, 42, 50
6, 85754, Note_on_c, 9, 42, 0
6, 85754, Note_on_c, 9, 45, 0
6, 85800, Note_on_c, 9, 43, 100
6, 85800, Note_on_c, 9, 42, 50
6, 85814, Note_on_c, 9, 42, 0
6, 85814, Note_on_c, 9, 43, 0
6, 85860, Note_on_c, 9, 41, 100
6, 85860, Note_on_c, 9, 42, 50
6, 85874, Note_on_c, 9, 42, 0
6, 85874, Note_on_c, 9, 41, 0
6, 85920, Note_on_c, 9, 42, 50
6, 85920, Note_on_c, 9, 35, 100
6, 85934, Note_on_c, 9, 35, 0
6, 85934, Note_on_c, 9, 42, 0
6, 85980, Note_on_c, 9, 42, 50
6, 85994, Note_on_c, 9, 42, 0
6, 86040, Note_on_c, 9, 42, 50
6, 86040, Note_on_c, 9, 38, 100
6, 86054, Note_on_c, 9, 38, 0
6, 86054, Note_on_c, 9, 42, 0
6, 86100, Note_on_c, 9, 42, 50
6, 86100, Note_on_c, 9, 35, 100
6, 86114, Note_on_c, 9, 35, 0
6, 86114, Note_on_c, 9, 42, 0
6, 86160, Note_on_c, 9, 42, 50
6, 86174, Note_on_c, 9, 42, 0
6, 86220, Note_on_c, 9, 42, 50
6, 86220, Note_on_c, 9, 35, 100
6, 86234, Note_on_c, 9, 35, 0
6, 86234, Note_on_c, 9, 42, 0
6, 86280, Note_on_c, 9, 43, 100
6, 86280, Note_on_c, 9, 42, 50
6, 86294, Note_on_c, 9, 42, 0
6, 86294, Note_on_c, 9, 43, 0
6, 86340, Note_on_c, 9, 43, 100
6, 86340, Note_on_c, 9, 42, 50
6, 86354, Note_on_c, 9, 42, 0
6, 86354, Note_on_c, 9, 43, 0
6, 86400, Note_on_c, 9, 42, 50
6, 86400, Note_on_c, 9, 35, 100
6, 86414, Note_on_c, 9, 35, 0
6, 86414, Note_on_c, 9, 42, 0
6, 86460, Note_on_c, 9, 42, 50
6, 86460, Note_on_c, 9, 35, 100
6, 86474, Note_on_c, 9, 35, 0
6, 86474, Note_on_c, 9, 42, 0
6, 86520, Note_on_c, 9, 42, 50
6, 86520, Note_on_c, 9, 38, 100
6, 86534, Note_on_c, 9, 38, 0
6, 86534, Note_on_c, 9, 42, 0
6, 86580, Note_on_c, 9, 42, 50
6, 86594, Note_on_c, 9, 42, 0
6, 86640, Note_on_c, 9, 42, 50
6, 86640, Note_on_c, 9, 35, 100
6, 86654, Note_on_c, 9, 35, 0
6, 86654, Note_on_c, 9, 42, 0
6, 86700, Note_on_c, 9, 45, 100
6, 86700, Note_on_c, 9, 42, 50
6, 86714, Note_on_c, 9, 42, 0
6, 86714, Note_on_c, 9, 45, 0
6, 86760, Note_on_c, 9, 43, 100
6, 86760, Note_on_c, 9, 42, 50
6, 86774, Note_on_c, 9, 42, 0
6, 86774, Note_on_c, 9, 43, 0
6, 86820, Note_on_c, 9, 41, 100
6, 86820, Note_on_c, 9, 42, 50
6, 86834, Note_on_c, 9, 42, 0
6, 86834, Note_on_c, 9, 41, 0
6, 86880, Note_on_c, 9, 42, 50
6, 86880, Note_on_c, 9, 35, 100
6, 86894, Note_on_c, 9, 35, 0
6, 86894, Note_on_c, 9, 42, 0
6, 86940, Note_on_c, 9, 42, 50
6, 86954, Note_on_c, 9, 42, 0
6, 87000, Note_on_c, 9, 42, 50
6, 87000, Note_on_c, 9, 38, 100
6, 87014, Note_on_c, 9, 38, 0
6, 87014, Note_on_c, 9, 42, 0
6, 87060, Note_on_c, 9, 42, 50
6, 87060, Note_on_c, 9, 35, 100
6, 87074, Note_on_c, 9, 35, 0
6, 87074, Note_on_c, 9, 42, 0
6, 87120, Note_on_c, 9, 42, 50
6, 87134, Note_on_c, 9, 42, 0
6, 87180, Note_on_c, 9, 42, 50
6, 87180, Note_on_c, 9, 35, 100
6, 87194, Note_on_c, 9, 35, 0
6, 87194, Note_on_c, 9, 42, 0
6, 87240, Note_on_c, 9, 43, 100
6, 87240, Note_on_c, 9, 42, 50
6, 87254, Note_on_c, 9, 42, 0
6, 87254, Note_on_c, 9, 43, 0
6, 87300, Note_on_c, 9, 43, 100
6, 87300, Note_on_c, 9, 42, 50
6, 87314, Note_on_c, 9, 42, 0
6, 87314, Note_on_c, 9, 43, 0
6, 87360, Note_on_c, 9, 42, 50
6, 87360, Note_on_c, 9, 35, 100
6, 87374, Note_on_c, 9, 35, 0
6, 87374, Note_on_c, 9, 42, 0
6, 87420, Note_on_c, 9, 42, 50
6, 87420, Note_on_c, 9, 35, 100
6, 87434, Note_on_c, 9, 35, 0
6, 87434, Note_on_c, 9, 42, 0
6, 87480, Note_on_c, 9, 42, 50
6, 87480, Note_on_c, 9, 38, 100
6, 87494, Note_on_c, 9, 38, 0
6, 87494, Note_on_c, 9, 42, 0
6, 87540, Note_on_c, 9, 42, 50
6, 87554, Note_on_c, 9, 42, 0
6, 87600, Note_on_c, 9, 42, 50
6, 87600, Note_on_c, 9, 35, 100
6, 87614, Note_on_c, 9, 35, 0
6, 87614, Note_on_c, 9, 42, 0
6, 87660, Note_on_c, 9, 45, 100
6, 87660, Note_on_c, 9, 42, 50
6, 87674, Note_on_c, 9, 42, 0
6, 87674, Note_on_c, 9, 45, 0
6, 87720, Note_on_c, 9, 43, 100
6, 87720, Note_on_c, 9, 42, 50
6, 87734, Note_on_c, 9, 42, 0
6, 87734, Note_on_c, 9, 43, 0
6, 87780, Note_on_c, 9, 41, 100
6, 87780, Note_on_c, 9, 42, 50
6, 87794, Note_on_c, 9, 42, 0
6, 87794, Note_on_c, 9, 41, 0
6, 87840, Note_on_c, 9, 42, 50
6, 87840, Note_on_c, 9, 35, 100
6, 87854, Note_on_c, 9, 35, 0
6, 87854, Note_on_c, 9, 42, 0
6, 87900, Note_on_c, 9, 42, 50
6, 87914, Note_on_c, 9, 42, 0
6, 87960, Note_on_c, 9, 42, 50
6, 87960, Note_on_c, 9, 38, 100
6, 87974, Note_on_c, 9, 38, 0
6, 87974, Note_on_c, 9, 42, 0
6, 88020, Note_on_c, 9, 42, 50
6, 88020, Note_on_c, 9, 35, 100
6, 88034, Note_on_c, 9, 35, 0
6, 88034, Note_on_c, 9, 42, 0
6, 88080, Note_on_c, 9, 42, 50
6, 88094, Note_on_c, 9, 42, 0
6, 88140, Note_on_c, 9, 42, 50
6, 88140, Note_on_c, 9, 35, 100
6, 88154, Note_on_c, 9, 35, 0
6, 88154, Note_on_c, 9, 42, 0
6, 88200, Note_on_c, 9, 43, 100
6, 88200, Note_on_c, 9, 42, 50
6, 88214, Note_on_c, 9, 42, 0
6, 88214, Note_on_c, 9, 43, 0
6, 88260, Note_on_c, 9, 43, 100
6, 88260, Note_on_c, 9, 42, 50
6, 88274, Note_on_c, 9, 42, 0
6, 88274, Note_on_c, 9, 43, 0
6, 88320, Note_on_c, 9, 42, 50
6, 88320, Note_on_c, 9, 35, 100
6, 88334, Note_on_c, 9, 35, 0
6, 88334, Note_on_c, 9, 42, 0
6, 88380, Note_on_c, 9, 42, 50
6, 88380, Note_on_c, 9, 35, 100
6, 88394, Note_on_c, 9, 35, 0
6, 88394, Note_on_c, 9, 42, 0
6, 88440, Note_on_c, 9, 42, 50
6, 88440, Note_on_c, 9, 38, 100
6, 88454, Note_on_c, 9, 38, 0
6, 88454, Note_on_c, 9, 42, 0
6, 88500, Note_on_c, 9, 42, 50
6, 88514, Note_on_c, 9, 42, 0
6, 88560, Note_on_c, 9, 42, 50
6, 88560, Note_on_c, 9, 35, 100
6, 88574, Note_on_c, 9, 35, 0
6, 88574, Note_on_c, 9, 42, 0
6, 88620, Note_on_c, 9, 45, 100
6, 88620, Note_on_c, 9, 42, 50
6, 88634, Note_on_c, 9, 42, 0
6, 88634, Note_on_c, 9, 45, 0
6, 88680, Note_on_c, 9, 43, 100
6, 88680, Note_on_c, 9, 42, 50
6, 88694, Note_on_c, 9, 42, 0
6, 88694, Note_on_c, 9, 43, 0
6, 88740, Note_on_c, 9, 41, 100
6, 88740, Note_on_c, 9, 42, 50
6, 88754, Note_on_c, 9, 42, 0
6, 88754, Note_on_c, 9, 41, 0
6, 88800, Control_c, 9, 7, 120
6, 88800, Control_c, 9, 7, 100
6, 88800, Note_on_c, 9, 42, 50
6, 88800, Note_on_c, 9, 35, 100
6, 88814, Note_on_c, 9, 35, 0
6, 88814, Note_on_c, 9, 42, 0
6, 88831, Control_c, 9, 7, 119
6, 88838, Control_c, 9, 7, 99
6, 88860, Note_on_c, 9, 42, 50
6, 88863, Control_c, 9, 7, 118
6, 88874, Note_on_c, 9, 42, 0
6, 88876, Control_c, 9, 7, 98
6, 88895, Control_c, 9, 7, 117
6, 88915, Control_c, 9, 7, 97
6, 88920, Note_on_c, 9, 42, 50
6, 88920, Note_on_c, 9, 38, 100
6, 88927, Control_c, 9, 7, 116
6, 88934, Note_on_c, 9, 38, 0
6, 88934, Note_on_c, 9, 42, 0
6, 88953, Control_c, 9, 7, 96
6, 88959, Control_c, 9, 7, 115
6, 88980, Note_on_c, 9, 42, 50
6, 88980, Note_on_c, 9, 35, 100
6, 88991, Control_c, 9, 7, 114
6, 88991, Control_c, 9, 7, 95
6, 88994, Note_on_c, 9, 35, 0
6, 88994, Note_on_c, 9, 42, 0
6, 89023, Control_c, 9, 7, 113
6, 89030, Control_c, 9, 7, 94
6, 89040, Note_on_c, 9, 42, 50
6, 89054, Note_on_c, 9, 42, 0
6, 89055, Control_c, 9, 7, 112
6, 89068, Control_c, 9, 7, 93
6, 89087, Control_c, 9, 7, 111
6, 89100, Note_on_c, 9, 42, 50
6, 89100, Note_on_c, 9, 35, 100
6, 89107, Control_c, 9, 7, 92
6, 89114, Note_on_c, 9, 35, 0
6, 89114, Note_on_c, 9, 42, 0
6, 89119, Control_c, 9, 7, 110
6, 89145, Control_c, 9, 7, 91
6, 89151, Control_c, 9, 7, 109
6, 89160, Note_on_c, 9, 43, 100
6, 89160, Note_on_c, 9, 42, 50
6, 89174, Note_on_c, 9, 42, 0
6, 89174, Note_on_c, 9, 43, 0
6, 89183, Control_c, 9, 7, 108
6, 89183, Control_c, 9, 7, 90
6, 89215, Control_c, 9, 7, 107
6, 89220, Note_on_c, 9, 43, 100
6, 89220, Note_on_c, 9, 42, 50
6, 89222, Control_c, 9, 7, 89
6, 89234, Note_on_c, 9, 42, 0
6, 89234, Note_on_c, 9, 43, 0
6, 89247, Control_c, 9, 7, 106
6, 89260, Control_c, 9, 7, 88
6, 89279, Control_c, 9, 7, 105
6, 89280, Note_on_c, 9, 42, 50
6, 89280, Note_on_c, 9, 35, 100
6, 89294, Note_on_c, 9, 35, 0
6, 89294, Note_on_c, 9, 42, 0
6, 89299, Control_c, 9, 7, 87
6, 89311, Control_c, 9, 7, 104
6, 89337, Control_c, 9, 7, 86
6, 89340, Note_on_c, 9, 42, 50
6, 89340, Note_on_c, 9, 35, 100
6, 89343, Control_c, 9, 7, 103
6, 89354, Note_on_c, 9, 35, 0
6, 89354, Note_on_c, 9, 42, 0
6, 89375, Control_c, 9, 7, 102
6, 89375, Control_c, 9, 7, 85
6, 89400, Note_on_c, 9, 42, 50
6, 89400, Note_on_c, 9, 38, 100
6, 89407, Control_c, 9, 7, 101
6, 89414, Note_on_c, 9, 38, 0
6, 89414, Note_on_c, 9, 42, 0
6, 89414, Control_c, 9, 7, 84
6, 89439, Control_c, 9, 7, 100
6, 89452, Control_c, 9, 7, 83
6, 89460, Note_on_c, 9, 42, 50
6, 89471, Control_c, 9, 7, 99
6, 89474, Note_on_c, 9, 42, 0
6, 89491, Control_c, 9, 7, 82
6, 89503, Control_c, 9, 7, 98
6, 89520, Note_on_c, 9, 42, 50
6, 89520, Note_on_c, 9, 35, 100
6, 89529, Control_c, 9, 7, 81
6, 89534, Note_on_c, 9, 35, 0
6, 89534, Note_on_c, 9, 42, 0
6, 89535, Control_c, 9, 7, 97
6, 89567, Control_c, 9, 7, 96
6, 89567, Control_c, 9, 7, 80
6, 89580, Note_on_c, 9, 45, 100
6, 89580, Note_on_c, 9, 42, 50
6, 89594, Note_on_c, 9, 42, 0
6, 89594, Note_on_c, 9, 45, 0
6, 89599, Control_c, 9, 7, 95
6, 89606, Control_c, 9, 7, 79
6, 89631, Control_c, 9, 7, 94
6, 89640, Note_on_c, 9, 43, 100
6, 89640, Note_on_c, 9, 42, 50
6, 89644, Control_c, 9, 7, 78
6, 89654, Note_on_c, 9, 42, 0
6, 89654, Note_on_c, 9, 43, 0
6, 89663, Control_c, 9, 7, 93
6, 89682, Control_c, 9, 7, 77
6, 89695, Control_c, 9, 7, 92
6, 89700, Note_on_c, 9, 41, 100
6, 89700, Note_on_c, 9, 42, 50
6, 89714, Note_on_c, 9, 42, 0
6, 89714, Note_on_c, 9, 41, 0
6, 89721, Control_c, 9, 7, 76
6, 89727, Control_c, 9, 7, 91
6, 89759, Control_c, 9, 7, 90
6, 89759, Control_c, 9, 7, 75
6, 89760, Note_on_c, 9, 42, 50
6, 89760, Note_on_c, 9, 35, 100
6, 89774, Note_on_c, 9, 35, 0
6, 89774, Note_on_c, 9, 42, 0
6, 89791, Control_c, 9, 7, 89
6, 89798, Control_c, 9, 7, 74
6, 89820, Note_on_c, 9, 42, 50
6, 89823, Control_c, 9, 7, 88
6, 89834, Note_on_c, 9, 42, 0
6, 89836, Control_c, 9, 7, 73
6, 89855, Control_c, 9, 7, 87
6, 89874, Control_c, 9, 7, 72
6, 89880, Note_on_c, 9, 42, 50
6, 89880, Note_on_c, 9, 38, 100
6, 89887, Control_c, 9, 7, 86
6, 89894, Note_on_c, 9, 38, 0
6, 89894, Note_on_c, 9, 42, 0
6, 89913, Control_c, 9, 7, 71
6, 89919, Control_c, 9, 7, 85
6, 89940, Note_on_c, 9, 42, 50
6, 89940, Note_on_c, 9, 35, 100
6, 89951, Control_c, 9, 7, 84
6, 89951, Control_c, 9, 7, 70
6, 89954, Note_on_c, 9, 35, 0
6, 89954, Note_on_c, 9, 42, 0
6, 89983, Control_c, 9, 7, 83
6, 89990, Control_c, 9, 7, 69
6, 90000, Note_on_c, 9, 42, 50
6, 90014, Note_on_c, 9, 42, 0
6, 90015, Control_c, 9, 7, 82
6, 90028, Control_c, 9, 7, 68
6, 90047, Control_c, 9, 7, 81
6, 90060, Note_on_c, 9, 42, 50
6, 90060, Note_on_c, 9, 35, 100
6, 90066, Control_c, 9, 7, 67
6, 90074, Note_on_c, 9, 35, 0
6, 90074, Note_on_c, 9, 42, 0
6, 90079, Control_c, 9, 7, 80
6, 90105, Control_c, 9, 7, 66
6, 90111, Control_c, 9, 7, 79
6, 90120, Note_on_c, 9, 43, 100
6, 90120, Note_on_c, 9, 42, 50
6, 90134, Note_on_c, 9, 42, 0
6, 90134, Note_on_c, 9, 43, 0
6, 90143, Control_c, 9, 7, 78
6, 90143, Control_c, 9, 7, 65
6, 90175, Control_c, 9, 7, 77
6, 90180, Note_on_c, 9, 43, 100
6, 90180, Note_on_c, 9, 42, 50
6, 90182, Control_c, 9, 7, 64
6, 90194, Note_on_c, 9, 42, 0
6, 90194, Note_on_c, 9, 43, 0
6, 90207, Control_c, 9, 7, 76
6, 90220, Control_c, 9, 7, 63
6, 90239, Control_c, 9, 7, 75
6, 90240, Note_on_c, 9, 42, 50
6, 90240, Note_on_c, 9, 35, 100
6, 90254, Note_on_c, 9, 35, 0
6, 90254, Note_on_c, 9, 42, 0
6, 90258, Control_c, 9, 7, 62
6, 90271, Control_c, 9, 7, 74
6, 90297, Control_c, 9, 7, 61
6, 90300, Note_on_c, 9, 42, 50
6, 90300, Note_on_c, 9, 35, 100
6, 90303, Control_c, 9, 7, 73
6, 90314, Note_on_c, 9, 35, 0
6, 90314, Note_on_c, 9, 42, 0
6, 90335, Control_c, 9, 7, 72
6, 90335, Control_c, 9, 7, 60
6, 90360, Note_on_c, 9, 42, 50
6, 90360, Note_on_c, 9, 38, 100
6, 90367, Control_c, 9, 7, 71
6, 90373, Control_c, 9, 7, 59
6, 90374, Note_on_c, 9, 38, 0
6, 90374, Note_on_c, 9, 42, 0
6, 90399, Control_c, 9, 7, 70
6, 90412, Control_c, 9, 7, 58
6, 90420, Note_on_c, 9, 42, 50
6, 90431, Control_c, 9, 7, 69
6, 90434, Note_on_c, 9, 42, 0
6, 90450, Control_c, 9, 7, 57
6, 90463, Control_c, 9, 7, 68
6, 90480, Note_on_c, 9, 42, 50
6, 90480, Note_on_c, 9, 35, 100
6, 90489, Control_c, 9, 7, 56
6, 90494, Note_on_c, 9, 35, 0
6, 90494, Note_on_c, 9, 42, 0
6, 90495, Control_c, 9, 7, 67
6, 90527, Control_c, 9, 7, 66
6, 90527, Control_c, 9, 7, 55
6, 90540, Note_on_c, 9, 45, 100
6, 90540, Note_on_c, 9, 42, 50
6, 90554, Note_on_c, 9, 42, 0
6, 90554, Note_on_c, 9, 45, 0
6, 90559, Control_c, 9, 7, 65
6, 90565, Control_c, 9, 7, 54
6, 90591, Control_c, 9, 7, 64
6, 90600, Note_on_c, 9, 43, 100
6, 90600, Note_on_c, 9, 42, 50
6, 90604, Control_c, 9, 7, 53
6, 90614, Note_on_c, 9, 42, 0
6, 90614, Note_on_c, 9, 43, 0
6, 90623, Control_c, 9, 7, 63
6, 90642, Control_c, 9, 7, 52
6, 90655, Control_c, 9, 7, 62
6, 90660, Note_on_c, 9, 41, 100
6, 90660, Note_on_c, 9, 42, 50
6, 90674, Note_on_c, 9, 42, 0
6, 90674, Note_on_c, 9, 41, 0
6, 90681, Control_c, 9, 7, 51
6, 90687, Control_c, 9, 7, 61
6, 90719, Control_c, 9, 7, 60
6, 90719, Control_c, 9, 7, 50
6, 90720, Note_on_c, 9, 42, 50
6, 90720, Note_on_c, 9, 35, 100
6, 90734, Note_on_c, 9, 35, 0
6, 90734, Note_on_c, 9, 42, 0
6, 90751, Control_c, 9, 7, 59
6, 90757, Control_c, 9, 7, 49
6, 90780, Note_on_c, 9, 42, 50
6, 90783, Control_c, 9, 7, 58
6, 90794, Note_on_c, 9, 42, 0
6, 90796, Control_c, 9, 7, 48
6, 90815, Control_c, 9, 7, 57
6, 90834, Control_c, 9, 7, 47
6, 90840, Note_on_c, 9, 42, 50
6, 90840, Note_on_c, 9, 38, 100
6, 90847, Control_c, 9, 7, 56
6, 90854, Note_on_c, 9, 38, 0
6, 90854, Note_on_c, 9, 42, 0
6, 90873, Control_c, 9, 7, 46
6, 90879, Control_c, 9, 7, 55
6, 90900, Note_on_c, 9, 42, 50
6, 90900, Note_on_c, 9, 35, 100
6, 90911, Control_c, 9, 7, 54
6, 90911, Control_c, 9, 7, 45
6, 90914, Note_on_c, 9, 35, 0
6, 90914, Note_on_c, 9, 42, 0
6, 90943, Control_c, 9, 7, 53
6, 90949, Control_c, 9, 7, 44
6, 90960, Note_on_c, 9, 42, 50
6, 90974, Note_on_c, 9, 42, 0
6, 90975, Control_c, 9, 7, 52
6, 90988, Control_c, 9, 7, 43
6, 91007, Control_c, 9, 7, 51
6, 91020, Note_on_c, 9, 42, 50
6, 91020, Note_on_c, 9, 35, 100
6, 91026, Control_c, 9, 7, 42
6, 91034, Note_on_c, 9, 35, 0
6, 91034, Note_on_c, 9, 42, 0
6, 91039, Control_c, 9, 7, 50
6, 91065, Control_c, 9, 7, 41
6, 91071, Control_c, 9, 7, 49
6, 91080, Note_on_c, 9, 43, 100
6, 91080, Note_on_c, 9, 42, 50
6, 91094, Note_on_c, 9, 42, 0
6, 91094, Note_on_c, 9, 43, 0
6, 91103, Control_c, 9, 7, 48
6, 91103, Control_c, 9, 7, 40
6, 91135, Control_c, 9, 7, 47
6, 91140, Note_on_c, 9, 43, 100
6, 91140, Note_on_c, 9, 42, 50
6, 91141, Control_c, 9, 7, 39
6, 91154, Note_on_c, 9, 42, 0
6, 91154, Note_on_c, 9, 43, 0
6, 91167, Control_c, 9, 7, 46
6, 91180, Control_c, 9, 7, 38
6, 91199, Control_c, 9, 7, 45
6, 91200, Note_on_c, 9, 42, 50
6, 91200, Note_on_c, 9, 35, 100
6, 91214, Note_on_c, 9, 35, 0
6, 91214, Note_on_c, 9, 42, 0
6, 91218, Control_c, 9, 7, 37
6, 91231, Control_c, 9, 7, 44
6, 91256, Control_c, 9, 7, 36
6, 91260, Note_on_c, 9, 42, 50
6, 91260, Note_on_c, 9, 35, 100
6, 91263, Control_c, 9, 7, 43
6, 91274, Note_on_c, 9, 35, 0
6, 91274, Note_on_c, 9, 42, 0
6, 91295, Control_c, 9, 7, 42
6, 91295, Control_c, 9, 7, 35
6, 91320, Note_on_c, 9, 42, 50
6, 91320, Note_on_c, 9, 38, 100
6, 91327, Control_c, 9, 7, 41
6, 91333, Control_c, 9, 7, 34
6, 91334, Note_on_c, 9, 38, 0
6, 91334, Note_on_c, 9, 42, 0
6, 91359, Control_c, 9, 7, 40
6, 91372, Control_c, 9, 7, 33
6, 91380, Note_on_c, 9, 42, 50
6, 91391, Control_c, 9, 7, 39
6, 91394, Note_on_c, 9, 42, 0
6, 91410, Control_c, 9, 7, 32
6, 91423, Control_c, 9, 7, 38
6, 91440, Note_on_c, 9, 42, 50
6, 91440, Note_on_c, 9, 35, 100
6, 91448, Control_c, 9, 7, 31
6, 91454, Note_on_c, 9, 35, 0
6, 91454, Note_on_c, 9, 42, 0
6, 91455, Control_c, 9, 7, 37
6, 91487, Control_c, 9, 7, 36
6, 91487, Control_c, 9, 7, 30
6, 91500, Note_on_c, 9, 45, 100
6, 91500, Note_on_c, 9, 42, 50
6, 91514, Note_on_c, 9, 42, 0
6, 91514, Note_on_c, 9, 45, 0
6, 91519, Control_c, 9, 7, 35
6, 91525, Control_c, 9, 7, 29
6, 91551, Control_c, 9, 7, 34
6, 91560, Note_on_c, 9, 43, 100
6, 91560, Note_on_c, 9, 42, 50
6, 91564, Control_c, 9, 7, 28
6, 91574, Note_on_c, 9, 42, 0
6, 91574, Note_on_c, 9, 43, 0
6, 91583, Control_c, 9, 7, 33
6, 91602, Control_c, 9, 7, 27
6, 91615, Control_c, 9, 7, 32
6, 91620, Note_on_c, 9, 41, 100
6, 91620, Note_on_c, 9, 42, 50
6, 91634, Note_on_c, 9, 42, 0
6, 91634, Note_on_c, 9, 41, 0
6, 91640, Control_c, 9, 7, 26
6, 91647, Control_c, 9, 7, 31
6, 91679, Control_c, 9, 7, 30
6, 91679, Control_c, 9, 7, 25
6, 91680, Note_on_c, 9, 42, 50
6, 91680, Note_on_c, 9, 35, 100
6, 91694, Note_on_c, 9, 35, 0
6, 91694, Note_on_c, 9, 42, 0
6, 91711, Control_c, 9, 7, 29
6, 91717, Control_c, 9, 7, 24
6, 91740, Note_on_c, 9, 42, 50
6, 91743, Control_c, 9, 7, 28
6, 91754, Note_on_c, 9, 42, 0
6, 91756, Control_c, 9, 7, 23
6, 91775, Control_c, 9, 7, 27
6, 91794, Control_c, 9, 7, 22
6, 91800, Note_on_c, 9, 42, 50
6, 91800, Note_on_c, 9, 38, 100
6, 91807, Control_c, 9, 7, 26
6, 91814, Note_on_c, 9, 38, 0
6, 91814, Note_on_c, 9, 42, 0
6, 91832, Control_c, 9, 7, 21
6, 91839, Control_c, 9, 7, 25
6, 91860, Note_on_c, 9, 42, 50
6, 91860, Note_on_c, 9, 35, 100
6, 91871, Control_c, 9, 7, 24
6, 91871, Control_c, 9, 7, 20
6, 91874, Note_on_c, 9, 35, 0
6, 91874, Note_on_c, 9, 42, 0
6, 91903, Control_c, 9, 7, 23
6, 91909, Control_c, 9, 7, 19
6, 91920, Note_on_c, 9, 42, 50
6, 91934, Note_on_c, 9, 42, 0
6, 91935, Control_c, 9, 7, 22
6, 91947, Control_c, 9, 7, 18
6, 91967, Control_c, 9, 7, 21
6, 91980, Note_on_c, 9, 42, 50
6, 91980, Note_on_c, 9, 35, 100
6, 91986, Control_c, 9, 7, 17
6, 91994, Note_on_c, 9, 35, 0
6, 91994, Note_on_c, 9, 42, 0
6, 91999, Control_c, 9, 7, 20
6, 92024, Control_c, 9, 7, 16
6, 92031, Control_c, 9, 7, 19
6, 92040, Note_on_c, 9, 43, 100
6, 92040, Note_on_c, 9, 42, 50
6, 92054, Note_on_c, 9, 42, 0
6, 92054, Note_on_c, 9, 43, 0
6, 92063, Control_c, 9, 7, 18
6, 92063, Control_c, 9, 7, 15
6, 92095, Control_c, 9, 7, 17
6, 92100, Note_on_c, 9, 43, 100
6, 92100, Note_on_c, 9, 42, 50
6, 92101, Control_c, 9, 7, 14
6, 92114, Note_on_c, 9, 42, 0
6, 92114, Note_on_c, 9, 43, 0
6, 92127, Control_c, 9, 7, 16
6, 92139, Control_c, 9, 7, 13
6, 92159, Control_c, 9, 7, 15
6, 92160, Note_on_c, 9, 42, 50
6, 92160, Note_on_c, 9, 35, 100
6, 92174, Note_on_c, 9, 35, 0
6, 92174, Note_on_c, 9, 42, 0
6, 92178, Control_c, 9, 7, 12
6, 92191, Control_c, 9, 7, 14
6, 92216, Control_c, 9, 7, 11
6, 92220, Note_on_c, 9, 42, 50
6, 92220, Note_on_c, 9, 35, 100
6, 92223, Control_c, 9, 7, 13
6, 92234, Note_on_c, 9, 35, 0
6, 92234, Note_on_c, 9, 42, 0
6, 92255, Control_c, 9, 7, 12
6, 92255, Control_c, 9, 7, 10
6, 92280, Note_on_c, 9, 42, 50
6, 92280, Note_on_c, 9, 38, 100
6, 92287, Control_c, 9, 7, 11
6, 92293, Control_c, 9, 7, 9
6, 92294, Note_on_c, 9, 38, 0
6, 92294, Note_on_c, 9, 42, 0
6, 92319, Control_c, 9, 7, 10
6, 92331, Control_c, 9, 7, 8
6, 92340, Note_on_c, 9, 42, 50
6, 92351, Control_c, 9, 7, 9
6, 92354, Note_on_c, 9, 42, 0
6, 92370, Control_c, 9, 7, 7
6, 92383, Control_c, 9, 7, 8
6, 92400, Note_on_c, 9, 42, 50
6, 92400, Note_on_c, 9, 35, 100
6, 92408, Control_c, 9, 7, 6
6, 92414, Note_on_c, 9, 35, 0
6, 92414, Note_on_c, 9, 42, 0
6, 92415, Control_c, 9, 7, 7
6, 92447, Control_c, 9, 7, 6
6, 92447, Control_c, 9, 7, 5
6, 92460, Note_on_c, 9, 45, 100
6, 92460, Note_on_c, 9, 42, 50
6, 92474, Note_on_c, 9, 42, 0
6, 92474, Note_on_c, 9, 45, 0
6, 92479, Control_c, 9, 7, 5
6, 92485, Control_c, 9, 7, 4
6, 92511, Control_c, 9, 7, 4
6, 92520, Note_on_c, 9, 43, 100
6, 92520, Note_on_c, 9, 42, 50
6, 92523, Control_c, 9, 7, 3
6, 92534, Note_on_c, 9, 42, 0
6, 92534, Note_on_c, 9, 43, 0
6, 92543, Control_c, 9, 7, 3
6, 92562, Control_c, 9, 7, 2
6, 92575, Control_c, 9, 7, 2
6, 92580, Note_on_c, 9, 41, 100
6, 92580, Note_on_c, 9, 42, 50
6, 92594, Note_on_c, 9, 42, 0
6, 92594, Note_on_c, 9, 41, 0
6, 92600, Control_c, 9, 7, 1
6, 92607, Control_c, 9, 7, 1
6, 92639, Control_c, 9, 7, 0
6, 92639, Control_c, 9, 7, 0
6, 92639, End_track
7, 0, Start_track
7, 0, MIDI_port, 0
7, 0, Title_t, "Synth"
7, 0, Program_c, 5, 87
7, 0, Control_c, 5, 7, 115
7, 480, Note_on_c, 5, 70, 100
7, 480, Note_on_c, 5, 70, 100
7, 480, Note_on_c, 5, 65, 100
7, 569, Note_on_c, 5, 65, 0
7, 569, Note_on_c, 5, 70, 0
7, 569, Note_on_c, 5, 70, 0
7, 660, Note_on_c, 5, 67, 100
7, 660, Note_on_c, 5, 72, 100
7, 839, Note_on_c, 5, 72, 0
7, 839, Note_on_c, 5, 67, 0
7, 960, Note_on_c, 5, 70, 100
7, 960, Note_on_c, 5, 65, 100
7, 1049, Note_on_c, 5, 65, 0
7, 1049, Note_on_c, 5, 70, 0
7, 1080, Note_on_c, 5, 70, 100
7, 1080, Note_on_c, 5, 65, 100
7, 1169, Note_on_c, 5, 65, 0
7, 1169, Note_on_c, 5, 70, 0
7, 1200, Note_on_c, 5, 72, 100
7, 1200, Note_on_c, 5, 67, 100
7, 1319, Note_on_c, 5, 67, 0
7, 1319, Note_on_c, 5, 72, 0
7, 1440, Note_on_c, 5, 70, 100
7, 1440, Note_on_c, 5, 65, 100
7, 1529, Note_on_c, 5, 65, 0
7, 1529, Note_on_c, 5, 70, 0
7, 1620, Note_on_c, 5, 67, 100
7, 1620, Note_on_c, 5, 72, 100
7, 1799, Note_on_c, 5, 72, 0
7, 1799, Note_on_c, 5, 67, 0
7, 1920, Note_on_c, 5, 70, 100
7, 1920, Note_on_c, 5, 65, 100
7, 2009, Note_on_c, 5, 65, 0
7, 2009, Note_on_c, 5, 70, 0
7, 2040, Note_on_c, 5, 70, 100
7, 2040, Note_on_c, 5, 65, 100
7, 2129, Note_on_c, 5, 65, 0
7, 2129, Note_on_c, 5, 70, 0
7, 2160, Note_on_c, 5, 72, 100
7, 2160, Note_on_c, 5, 67, 100
7, 2279, Note_on_c, 5, 67, 0
7, 2279, Note_on_c, 5, 72, 0
7, 2400, Note_on_c, 5, 70, 100
7, 2400, Note_on_c, 5, 65, 100
7, 2489, Note_on_c, 5, 65, 0
7, 2489, Note_on_c, 5, 70, 0
7, 2580, Note_on_c, 5, 67, 100
7, 2580, Note_on_c, 5, 72, 100
7, 2759, Note_on_c, 5, 72, 0
7, 2759, Note_on_c, 5, 67, 0
7, 2880, Note_on_c, 5, 70, 100
7, 2880, Note_on_c, 5, 65, 100
7, 2969, Note_on_c, 5, 65, 0
7, 2969, Note_on_c, 5, 70, 0
7, 3000, Note_on_c, 5, 70, 100
7, 3000, Note_on_c, 5, 65, 100
7, 3089, Note_on_c, 5, 65, 0
7, 3089, Note_on_c, 5, 70, 0
7, 3120, Note_on_c, 5, 65, 100
7, 3120, Note_on_c, 5, 72, 100
7, 3239, Note_on_c, 5, 72, 0
7, 3239, Note_on_c, 5, 65, 0
7, 3240, Note_on_c, 5, 74, 90
7, 3240, Note_on_c, 5, 65, 90
7, 3359, Note_on_c, 5, 65, 0
7, 3359, Note_on_c, 5, 74, 0
7, 3360, Note_on_c, 5, 67, 90
7, 3360, Note_on_c, 5, 70, 90
7, 3360, Note_on_c, 5, 75, 90
7, 3539, Note_on_c, 5, 75, 0
7, 3539, Note_on_c, 5, 70, 0
7, 3539, Note_on_c, 5, 67, 0
7, 3540, Note_on_c, 5, 65, 90
7, 3540, Note_on_c, 5, 74, 90
7, 3679, Note_on_c, 5, 74, 0
7, 3679, Note_on_c, 5, 65, 0
7, 3680, Note_on_c, 5, 63, 90
7, 3680, Note_on_c, 5, 72, 90
7, 3759, Note_on_c, 5, 72, 0
7, 3759, Note_on_c, 5, 63, 0
7, 3760, Note_on_c, 5, 63, 90
7, 3760, Note_on_c, 5, 70, 90
7, 3839, Note_on_c, 5, 70, 0
7, 3839, Note_on_c, 5, 63, 0
7, 3840, Note_on_c, 5, 63, 90
7, 3840, Note_on_c, 5, 67, 90
7, 4019, Note_on_c, 5, 67, 0
7, 4019, Note_on_c, 5, 63, 0
7, 4020, Note_on_c, 5, 63, 90
7, 4020, Note_on_c, 5, 65, 90
7, 4319, Note_on_c, 5, 65, 0
7, 4319, Note_on_c, 5, 63, 0
7, 4320, Note_on_c, 5, 70, 100
7, 4320, Note_on_c, 5, 70, 100
7, 4320, Note_on_c, 5, 65, 100
7, 4409, Note_on_c, 5, 65, 0
7, 4409, Note_on_c, 5, 70, 0
7, 4409, Note_on_c, 5, 70, 0
7, 4500, Note_on_c, 5, 67, 100
7, 4500, Note_on_c, 5, 72, 100
7, 4679, Note_on_c, 5, 72, 0
7, 4679, Note_on_c, 5, 67, 0
7, 4800, Note_on_c, 5, 70, 100
7, 4800, Note_on_c, 5, 65, 100
7, 4889, Note_on_c, 5, 65, 0
7, 4889, Note_on_c, 5, 70, 0
7, 4920, Note_on_c, 5, 70, 100
7, 4920, Note_on_c, 5, 65, 100
7, 5009, Note_on_c, 5, 65, 0
7, 5009, Note_on_c, 5, 70, 0
7, 5040, Note_on_c, 5, 72, 100
7, 5040, Note_on_c, 5, 67, 100
7, 5159, Note_on_c, 5, 67, 0
7, 5159, Note_on_c, 5, 72, 0
7, 5280, Note_on_c, 5, 70, 100
7, 5280, Note_on_c, 5, 65, 100
7, 5369, Note_on_c, 5, 65, 0
7, 5369, Note_on_c, 5, 70, 0
7, 5460, Note_on_c, 5, 67, 100
7, 5460, Note_on_c, 5, 72, 100
7, 5639, Note_on_c, 5, 72, 0
7, 5639, Note_on_c, 5, 67, 0
7, 5760, Note_on_c, 5, 70, 100
7, 5760, Note_on_c, 5, 65, 100
7, 5849, Note_on_c, 5, 65, 0
7, 5849, Note_on_c, 5, 70, 0
7, 5880, Note_on_c, 5, 70, 100
7, 5880, Note_on_c, 5, 65, 100
7, 5969, Note_on_c, 5, 65, 0
7, 5969, Note_on_c, 5, 70, 0
7, 6000, Note_on_c, 5, 72, 100
7, 6000, Note_on_c, 5, 67, 100
7, 6119, Note_on_c, 5, 67, 0
7, 6119, Note_on_c, 5, 72, 0
7, 6240, Note_on_c, 5, 70, 100
7, 6240, Note_on_c, 5, 65, 100
7, 6329, Note_on_c, 5, 65, 0
7, 6329, Note_on_c, 5, 70, 0
7, 6420, Note_on_c, 5, 67, 100
7, 6420, Note_on_c, 5, 72, 100
7, 6599, Note_on_c, 5, 72, 0
7, 6599, Note_on_c, 5, 67, 0
7, 6720, Note_on_c, 5, 70, 100
7, 6720, Note_on_c, 5, 65, 100
7, 6809, Note_on_c, 5, 65, 0
7, 6809, Note_on_c, 5, 70, 0
7, 6840, Note_on_c, 5, 70, 100
7, 6840, Note_on_c, 5, 65, 100
7, 6929, Note_on_c, 5, 65, 0
7, 6929, Note_on_c, 5, 70, 0
7, 6960, Note_on_c, 5, 65, 100
7, 6960, Note_on_c, 5, 72, 100
7, 7079, Note_on_c, 5, 72, 0
7, 7079, Note_on_c, 5, 65, 0
7, 7080, Note_on_c, 5, 74, 90
7, 7080, Note_on_c, 5, 65, 90
7, 7199, Note_on_c, 5, 65, 0
7, 7199, Note_on_c, 5, 74, 0
7, 7200, Note_on_c, 5, 67, 90
7, 7200, Note_on_c, 5, 70, 90
7, 7200, Note_on_c, 5, 75, 90
7, 7379, Note_on_c, 5, 75, 0
7, 7379, Note_on_c, 5, 70, 0
7, 7379, Note_on_c, 5, 67, 0
7, 7380, Note_on_c, 5, 65, 90
7, 7380, Note_on_c, 5, 74, 90
7, 7519, Note_on_c, 5, 74, 0
7, 7519, Note_on_c, 5, 65, 0
7, 7520, Note_on_c, 5, 63, 90
7, 7520, Note_on_c, 5, 72, 90
7, 7599, Note_on_c, 5, 72, 0
7, 7599, Note_on_c, 5, 63, 0
7, 7600, Note_on_c, 5, 63, 90
7, 7600, Note_on_c, 5, 70, 90
7, 7679, Note_on_c, 5, 70, 0
7, 7679, Note_on_c, 5, 63, 0
7, 7680, Note_on_c, 5, 63, 90
7, 7680, Note_on_c, 5, 67, 90
7, 7859, Note_on_c, 5, 67, 0
7, 7859, Note_on_c, 5, 63, 0
7, 7860, Note_on_c, 5, 63, 90
7, 7860, Note_on_c, 5, 65, 90
7, 8159, Note_on_c, 5, 65, 0
7, 8159, Note_on_c, 5, 63, 0
7, 27360, Note_on_c, 5, 70, 100
7, 27360, Note_on_c, 5, 70, 100
7, 27360, Note_on_c, 5, 65, 100
7, 27449, Note_on_c, 5, 65, 0
7, 27449, Note_on_c, 5, 70, 0
7, 27449, Note_on_c, 5, 70, 0
7, 27540, Note_on_c, 5, 67, 100
7, 27540, Note_on_c, 5, 72, 100
7, 27719, Note_on_c, 5, 72, 0
7, 27719, Note_on_c, 5, 67, 0
7, 27840, Note_on_c, 5, 70, 100
7, 27840, Note_on_c, 5, 65, 100
7, 27929, Note_on_c, 5, 65, 0
7, 27929, Note_on_c, 5, 70, 0
7, 27960, Note_on_c, 5, 70, 100
7, 27960, Note_on_c, 5, 65, 100
7, 28049, Note_on_c, 5, 65, 0
7, 28049, Note_on_c, 5, 70, 0
7, 28080, Note_on_c, 5, 72, 100
7, 28080, Note_on_c, 5, 67, 100
7, 28199, Note_on_c, 5, 67, 0
7, 28199, Note_on_c, 5, 72, 0
7, 28320, Note_on_c, 5, 70, 100
7, 28320, Note_on_c, 5, 65, 100
7, 28409, Note_on_c, 5, 65, 0
7, 28409, Note_on_c, 5, 70, 0
7, 28500, Note_on_c, 5, 67, 100
7, 28500, Note_on_c, 5, 72, 100
7, 28679, Note_on_c, 5, 72, 0
7, 28679, Note_on_c, 5, 67, 0
7, 28800, Note_on_c, 5, 70, 100
7, 28800, Note_on_c, 5, 65, 100
7, 28889, Note_on_c, 5, 65, 0
7, 28889, Note_on_c, 5, 70, 0
7, 28920, Note_on_c, 5, 70, 100
7, 28920, Note_on_c, 5, 65, 100
7, 29009, Note_on_c, 5, 65, 0
7, 29009, Note_on_c, 5, 70, 0
7, 29040, Note_on_c, 5, 72, 100
7, 29040, Note_on_c, 5, 67, 100
7, 29159, Note_on_c, 5, 67, 0
7, 29159, Note_on_c, 5, 72, 0
7, 29280, Note_on_c, 5, 70, 100
7, 29280, Note_on_c, 5, 65, 100
7, 29369, Note_on_c, 5, 65, 0
7, 29369, Note_on_c, 5, 70, 0
7, 29460, Note_on_c, 5, 67, 100
7, 29460, Note_on_c, 5, 72, 100
7, 29639, Note_on_c, 5, 72, 0
7, 29639, Note_on_c, 5, 67, 0
7, 29760, Note_on_c, 5, 70, 100
7, 29760, Note_on_c, 5, 65, 100
7, 29849, Note_on_c, 5, 65, 0
7, 29849, Note_on_c, 5, 70, 0
7, 29880, Note_on_c, 5, 70, 100
7, 29880, Note_on_c, 5, 65, 100
7, 29969, Note_on_c, 5, 65, 0
7, 29969, Note_on_c, 5, 70, 0
7, 30000, Note_on_c, 5, 65, 100
7, 30000, Note_on_c, 5, 72, 100
7, 30119, Note_on_c, 5, 72, 0
7, 30119, Note_on_c, 5, 65, 0
7, 30120, Note_on_c, 5, 74, 90
7, 30120, Note_on_c, 5, 65, 90
7, 30239, Note_on_c, 5, 65, 0
7, 30239, Note_on_c, 5, 74, 0
7, 30240, Note_on_c, 5, 67, 90
7, 30240, Note_on_c, 5, 70, 90
7, 30240, Note_on_c, 5, 75, 90
7, 30419, Note_on_c, 5, 75, 0
7, 30419, Note_on_c, 5, 70, 0
7, 30419, Note_on_c, 5, 67, 0
7, 30420, Note_on_c, 5, 65, 90
7, 30420, Note_on_c, 5, 74, 90
7, 30559, Note_on_c, 5, 74, 0
7, 30559, Note_on_c, 5, 65, 0
7, 30560, Note_on_c, 5, 63, 90
7, 30560, Note_on_c, 5, 72, 90
7, 30639, Note_on_c, 5, 72, 0
7, 30639, Note_on_c, 5, 63, 0
7, 30640, Note_on_c, 5, 63, 90
7, 30640, Note_on_c, 5, 70, 90
7, 30719, Note_on_c, 5, 70, 0
7, 30719, Note_on_c, 5, 63, 0
7, 30720, Note_on_c, 5, 63, 90
7, 30720, Note_on_c, 5, 67, 90
7, 30899, Note_on_c, 5, 67, 0
7, 30899, Note_on_c, 5, 63, 0
7, 30900, Note_on_c, 5, 63, 90
7, 30900, Note_on_c, 5, 65, 90
7, 31199, Note_on_c, 5, 65, 0
7, 31199, Note_on_c, 5, 63, 0
7, 50400, Note_on_c, 5, 70, 100
7, 50400, Note_on_c, 5, 70, 100
7, 50400, Note_on_c, 5, 65, 100
7, 50489, Note_on_c, 5, 65, 0
7, 50489, Note_on_c, 5, 70, 0
7, 50489, Note_on_c, 5, 70, 0
7, 50580, Note_on_c, 5, 67, 100
7, 50580, Note_on_c, 5, 72, 100
7, 50759, Note_on_c, 5, 72, 0
7, 50759, Note_on_c, 5, 67, 0
7, 50880, Note_on_c, 5, 70, 100
7, 50880, Note_on_c, 5, 65, 100
7, 50969, Note_on_c, 5, 65, 0
7, 50969, Note_on_c, 5, 70, 0
7, 51000, Note_on_c, 5, 70, 100
7, 51000, Note_on_c, 5, 65, 100
7, 51089, Note_on_c, 5, 65, 0
7, 51089, Note_on_c, 5, 70, 0
7, 51120, Note_on_c, 5, 72, 100
7, 51120, Note_on_c, 5, 67, 100
7, 51239, Note_on_c, 5, 67, 0
7, 51239, Note_on_c, 5, 72, 0
7, 51360, Note_on_c, 5, 70, 100
7, 51360, Note_on_c, 5, 65, 100
7, 51449, Note_on_c, 5, 65, 0
7, 51449, Note_on_c, 5, 70, 0
7, 51540, Note_on_c, 5, 67, 100
7, 51540, Note_on_c, 5, 72, 100
7, 51719, Note_on_c, 5, 72, 0
7, 51719, Note_on_c, 5, 67, 0
7, 51840, Note_on_c, 5, 70, 100
7, 51840, Note_on_c, 5, 65, 100
7, 51929, Note_on_c, 5, 65, 0
7, 51929, Note_on_c, 5, 70, 0
7, 51960, Note_on_c, 5, 70, 100
7, 51960, Note_on_c, 5, 65, 100
7, 52049, Note_on_c, 5, 65, 0
7, 52049, Note_on_c, 5, 70, 0
7, 52080, Note_on_c, 5, 72, 100
7, 52080, Note_on_c, 5, 67, 100
7, 52199, Note_on_c, 5, 67, 0
7, 52199, Note_on_c, 5, 72, 0
7, 52320, Note_on_c, 5, 70, 100
7, 52320, Note_on_c, 5, 65, 100
7, 52409, Note_on_c, 5, 65, 0
7, 52409, Note_on_c, 5, 70, 0
7, 52500, Note_on_c, 5, 67, 100
7, 52500, Note_on_c, 5, 72, 100
7, 52679, Note_on_c, 5, 72, 0
7, 52679, Note_on_c, 5, 67, 0
7, 52800, Note_on_c, 5, 70, 100
7, 52800, Note_on_c, 5, 65, 100
7, 52889, Note_on_c, 5, 65, 0
7, 52889, Note_on_c, 5, 70, 0
7, 52920, Note_on_c, 5, 70, 100
7, 52920, Note_on_c, 5, 65, 100
7, 53009, Note_on_c, 5, 65, 0
7, 53009, Note_on_c, 5, 70, 0
7, 53040, Note_on_c, 5, 65, 100
7, 53040, Note_on_c, 5, 72, 100
7, 53159, Note_on_c, 5, 72, 0
7, 53159, Note_on_c, 5, 65, 0
7, 53160, Note_on_c, 5, 74, 90
7, 53160, Note_on_c, 5, 65, 90
7, 53279, Note_on_c, 5, 65, 0
7, 53279, Note_on_c, 5, 74, 0
7, 53280, Note_on_c, 5, 67, 90
7, 53280, Note_on_c, 5, 70, 90
7, 53280, Note_on_c, 5, 75, 90
7, 53459, Note_on_c, 5, 75, 0
7, 53459, Note_on_c, 5, 70, 0
7, 53459, Note_on_c, 5, 67, 0
7, 53460, Note_on_c, 5, 65, 90
7, 53460, Note_on_c, 5, 74, 90
7, 53599, Note_on_c, 5, 74, 0
7, 53599, Note_on_c, 5, 65, 0
7, 53600, Note_on_c, 5, 63, 90
7, 53600, Note_on_c, 5, 72, 90
7, 53679, Note_on_c, 5, 72, 0
7, 53679, Note_on_c, 5, 63, 0
7, 53680, Note_on_c, 5, 63, 90
7, 53680, Note_on_c, 5, 70, 90
7, 53759, Note_on_c, 5, 70, 0
7, 53759, Note_on_c, 5, 63, 0
7, 53760, Note_on_c, 5, 63, 90
7, 53760, Note_on_c, 5, 67, 90
7, 53939, Note_on_c, 5, 67, 0
7, 53939, Note_on_c, 5, 63, 0
7, 53940, Note_on_c, 5, 63, 90
7, 53940, Note_on_c, 5, 65, 90
7, 54239, Note_on_c, 5, 65, 0
7, 54239, Note_on_c, 5, 63, 0
7, 69600, Note_on_c, 5, 70, 100
7, 69600, Note_on_c, 5, 70, 100
7, 69600, Note_on_c, 5, 65, 100
7, 69689, Note_on_c, 5, 65, 0
7, 69689, Note_on_c, 5, 70, 0
7, 69689, Note_on_c, 5, 70, 0
7, 69780, Note_on_c, 5, 67, 100
7, 69780, Note_on_c, 5, 72, 100
7, 69959, Note_on_c, 5, 72, 0
7, 69959, Note_on_c, 5, 67, 0
7, 70080, Note_on_c, 5, 70, 100
7, 70080, Note_on_c, 5, 65, 100
7, 70169, Note_on_c, 5, 65, 0
7, 70169, Note_on_c, 5, 70, 0
7, 70200, Note_on_c, 5, 70, 100
7, 70200, Note_on_c, 5, 65, 100
7, 70289, Note_on_c, 5, 65, 0
7, 70289, Note_on_c, 5, 70, 0
7, 70320, Note_on_c, 5, 72, 100
7, 70320, Note_on_c, 5, 67, 100
7, 70439, Note_on_c, 5, 67, 0
7, 70439, Note_on_c, 5, 72, 0
7, 70560, Note_on_c, 5, 70, 100
7, 70560, Note_on_c, 5, 65, 100
7, 70649, Note_on_c, 5, 65, 0
7, 70649, Note_on_c, 5, 70, 0
7, 70740, Note_on_c, 5, 67, 100
7, 70740, Note_on_c, 5, 72, 100
7, 70919, Note_on_c, 5, 72, 0
7, 70919, Note_on_c, 5, 67, 0
7, 71040, Note_on_c, 5, 70, 100
7, 71040, Note_on_c, 5, 65, 100
7, 71129, Note_on_c, 5, 65, 0
7, 71129, Note_on_c, 5, 70, 0
7, 71160, Note_on_c, 5, 70, 100
7, 71160, Note_on_c, 5, 65, 100
7, 71249, Note_on_c, 5, 65, 0
7, 71249, Note_on_c, 5, 70, 0
7, 71280, Note_on_c, 5, 72, 100
7, 71280, Note_on_c, 5, 67, 100
7, 71399, Note_on_c, 5, 67, 0
7, 71399, Note_on_c, 5, 72, 0
7, 71520, Note_on_c, 5, 70, 100
7, 71520, Note_on_c, 5, 65, 100
7, 71609, Note_on_c, 5, 65, 0
7, 71609, Note_on_c, 5, 70, 0
7, 71700, Note_on_c, 5, 67, 100
7, 71700, Note_on_c, 5, 72, 100
7, 71879, Note_on_c, 5, 72, 0
7, 71879, Note_on_c, 5, 67, 0
7, 72000, Note_on_c, 5, 70, 100
7, 72000, Note_on_c, 5, 65, 100
7, 72089, Note_on_c, 5, 65, 0
7, 72089, Note_on_c, 5, 70, 0
7, 72120, Note_on_c, 5, 70, 100
7, 72120, Note_on_c, 5, 65, 100
7, 72209, Note_on_c, 5, 65, 0
7, 72209, Note_on_c, 5, 70, 0
7, 72240, Note_on_c, 5, 65, 100
7, 72240, Note_on_c, 5, 72, 100
7, 72359, Note_on_c, 5, 72, 0
7, 72359, Note_on_c, 5, 65, 0
7, 72360, Note_on_c, 5, 74, 90
7, 72360, Note_on_c, 5, 65, 90
7, 72479, Note_on_c, 5, 65, 0
7, 72479, Note_on_c, 5, 74, 0
7, 73440, Note_on_c, 5, 70, 75
7, 73440, Note_on_c, 5, 70, 75
7, 73440, Note_on_c, 5, 65, 75
7, 73529, Note_on_c, 5, 65, 0
7, 73529, Note_on_c, 5, 70, 0
7, 73529, Note_on_c, 5, 70, 0
7, 73620, Note_on_c, 5, 67, 75
7, 73620, Note_on_c, 5, 72, 75
7, 73799, Note_on_c, 5, 72, 0
7, 73799, Note_on_c, 5, 67, 0
7, 73920, Note_on_c, 5, 70, 75
7, 73920, Note_on_c, 5, 65, 75
7, 74009, Note_on_c, 5, 65, 0
7, 74009, Note_on_c, 5, 70, 0
7, 74040, Note_on_c, 5, 70, 75
7, 74040, Note_on_c, 5, 65, 75
7, 74129, Note_on_c, 5, 65, 0
7, 74129, Note_on_c, 5, 70, 0
7, 74160, Note_on_c, 5, 72, 75
7, 74160, Note_on_c, 5, 67, 75
7, 74279, Note_on_c, 5, 67, 0
7, 74279, Note_on_c, 5, 72, 0
7, 74400, Note_on_c, 5, 70, 75
7, 74400, Note_on_c, 5, 65, 75
7, 74489, Note_on_c, 5, 65, 0
7, 74489, Note_on_c, 5, 70, 0
7, 74580, Note_on_c, 5, 67, 75
7, 74580, Note_on_c, 5, 72, 75
7, 74759, Note_on_c, 5, 72, 0
7, 74759, Note_on_c, 5, 67, 0
7, 74880, Note_on_c, 5, 70, 75
7, 74880, Note_on_c, 5, 65, 75
7, 74969, Note_on_c, 5, 65, 0
7, 74969, Note_on_c, 5, 70, 0
7, 75000, Note_on_c, 5, 70, 75
7, 75000, Note_on_c, 5, 65, 75
7, 75089, Note_on_c, 5, 65, 0
7, 75089, Note_on_c, 5, 70, 0
7, 75120, Note_on_c, 5, 72, 75
7, 75120, Note_on_c, 5, 67, 75
7, 75239, Note_on_c, 5, 67, 0
7, 75239, Note_on_c, 5, 72, 0
7, 75360, Note_on_c, 5, 70, 75
7, 75360, Note_on_c, 5, 65, 75
7, 75449, Note_on_c, 5, 65, 0
7, 75449, Note_on_c, 5, 70, 0
7, 75540, Note_on_c, 5, 67, 75
7, 75540, Note_on_c, 5, 72, 75
7, 75719, Note_on_c, 5, 72, 0
7, 75719, Note_on_c, 5, 67, 0
7, 77280, Note_on_c, 5, 70, 75
7, 77280, Note_on_c, 5, 70, 75
7, 77280, Note_on_c, 5, 65, 75
7, 77369, Note_on_c, 5, 65, 0
7, 77369, Note_on_c, 5, 70, 0
7, 77369, Note_on_c, 5, 70, 0
7, 77460, Note_on_c, 5, 67, 75
7, 77460, Note_on_c, 5, 72, 75
7, 77639, Note_on_c, 5, 72, 0
7, 77639, Note_on_c, 5, 67, 0
7, 77760, Note_on_c, 5, 70, 75
7, 77760, Note_on_c, 5, 65, 75
7, 77849, Note_on_c, 5, 65, 0
7, 77849, Note_on_c, 5, 70, 0
7, 77880, Note_on_c, 5, 70, 75
7, 77880, Note_on_c, 5, 65, 75
7, 77969, Note_on_c, 5, 65, 0
7, 77969, Note_on_c, 5, 70, 0
7, 78000, Note_on_c, 5, 72, 75
7, 78000, Note_on_c, 5, 67, 75
7, 78119, Note_on_c, 5, 67, 0
7, 78119, Note_on_c, 5, 72, 0
7, 78240, Note_on_c, 5, 70, 75
7, 78240, Note_on_c, 5, 65, 75
7, 78329, Note_on_c, 5, 65, 0
7, 78329, Note_on_c, 5, 70, 0
7, 78420, Note_on_c, 5, 67, 75
7, 78420, Note_on_c, 5, 72, 75
7, 78599, Note_on_c, 5, 72, 0
7, 78599, Note_on_c, 5, 67, 0
7, 78720, Note_on_c, 5, 70, 75
7, 78720, Note_on_c, 5, 65, 75
7, 78809, Note_on_c, 5, 65, 0
7, 78809, Note_on_c, 5, 70, 0
7, 78840, Note_on_c, 5, 70, 75
7, 78840, Note_on_c, 5, 65, 75
7, 78929, Note_on_c, 5, 65, 0
7, 78929, Note_on_c, 5, 70, 0
7, 78960, Note_on_c, 5, 72, 75
7, 78960, Note_on_c, 5, 67, 75
7, 79079, Note_on_c, 5, 67, 0
7, 79079, Note_on_c, 5, 72, 0
7, 79200, Note_on_c, 5, 70, 75
7, 79200, Note_on_c, 5, 65, 75
7, 79289, Note_on_c, 5, 65, 0
7, 79289, Note_on_c, 5, 70, 0
7, 79380, Note_on_c, 5, 67, 75
7, 79380, Note_on_c, 5, 72, 75
7, 79559, Note_on_c, 5, 72, 0
7, 79559, Note_on_c, 5, 67, 0
7, 84960, Note_on_c, 5, 70, 100
7, 84960, Note_on_c, 5, 70, 100
7, 84960, Note_on_c, 5, 65, 100
7, 85049, Note_on_c, 5, 65, 0
7, 85049, Note_on_c, 5, 70, 0
7, 85049, Note_on_c, 5, 70, 0
7, 85140, Note_on_c, 5, 67, 100
7, 85140, Note_on_c, 5, 72, 100
7, 85319, Note_on_c, 5, 72, 0
7, 85319, Note_on_c, 5, 67, 0
7, 85440, Note_on_c, 5, 70, 100
7, 85440, Note_on_c, 5, 65, 100
7, 85529, Note_on_c, 5, 65, 0
7, 85529, Note_on_c, 5, 70, 0
7, 85560, Note_on_c, 5, 70, 100
7, 85560, Note_on_c, 5, 65, 100
7, 85649, Note_on_c, 5, 65, 0
7, 85649, Note_on_c, 5, 70, 0
7, 85680, Note_on_c, 5, 72, 100
7, 85680, Note_on_c, 5, 67, 100
7, 85799, Note_on_c, 5, 67, 0
7, 85799, Note_on_c, 5, 72, 0
7, 85920, Note_on_c, 5, 70, 100
7, 85920, Note_on_c, 5, 65, 100
7, 86009, Note_on_c, 5, 65, 0
7, 86009, Note_on_c, 5, 70, 0
7, 86100, Note_on_c, 5, 67, 100
7, 86100, Note_on_c, 5, 72, 100
7, 86279, Note_on_c, 5, 72, 0
7, 86279, Note_on_c, 5, 67, 0
7, 86400, Note_on_c, 5, 70, 100
7, 86400, Note_on_c, 5, 65, 100
7, 86489, Note_on_c, 5, 65, 0
7, 86489, Note_on_c, 5, 70, 0
7, 86520, Note_on_c, 5, 70, 100
7, 86520, Note_on_c, 5, 65, 100
7, 86609, Note_on_c, 5, 65, 0
7, 86609, Note_on_c, 5, 70, 0
7, 86640, Note_on_c, 5, 72, 100
7, 86640, Note_on_c, 5, 67, 100
7, 86759, Note_on_c, 5, 67, 0
7, 86759, Note_on_c, 5, 72, 0
7, 86880, Note_on_c, 5, 70, 100
7, 86880, Note_on_c, 5, 65, 100
7, 86969, Note_on_c, 5, 65, 0
7, 86969, Note_on_c, 5, 70, 0
7, 87060, Note_on_c, 5, 67, 100
7, 87060, Note_on_c, 5, 72, 100
7, 87239, Note_on_c, 5, 72, 0
7, 87239, Note_on_c, 5, 67, 0
7, 87360, Note_on_c, 5, 70, 100
7, 87360, Note_on_c, 5, 65, 100
7, 87449, Note_on_c, 5, 65, 0
7, 87449, Note_on_c, 5, 70, 0
7, 87480, Note_on_c, 5, 70, 100
7, 87480, Note_on_c, 5, 65, 100
7, 87569, Note_on_c, 5, 65, 0
7, 87569, Note_on_c, 5, 70, 0
7, 87600, Note_on_c, 5, 65, 100
7, 87600, Note_on_c, 5, 72, 100
7, 87719, Note_on_c, 5, 72, 0
7, 87719, Note_on_c, 5, 65, 0
7, 87720, Note_on_c, 5, 74, 90
7, 87720, Note_on_c, 5, 65, 90
7, 87839, Note_on_c, 5, 65, 0
7, 87839, Note_on_c, 5, 74, 0
7, 87840, Note_on_c, 5, 67, 90
7, 87840, Note_on_c, 5, 70, 90
7, 87840, Note_on_c, 5, 75, 90
7, 88019, Note_on_c, 5, 75, 0
7, 88019, Note_on_c, 5, 70, 0
7, 88019, Note_on_c, 5, 67, 0
7, 88020, Note_on_c, 5, 65, 90
7, 88020, Note_on_c, 5, 74, 90
7, 88159, Note_on_c, 5, 74, 0
7, 88159, Note_on_c, 5, 65, 0
7, 88160, Note_on_c, 5, 63, 90
7, 88160, Note_on_c, 5, 72, 90
7, 88239, Note_on_c, 5, 72, 0
7, 88239, Note_on_c, 5, 63, 0
7, 88240, Note_on_c, 5, 63, 90
7, 88240, Note_on_c, 5, 70, 90
7, 88319, Note_on_c, 5, 70, 0
7, 88319, Note_on_c, 5, 63, 0
7, 88320, Note_on_c, 5, 63, 90
7, 88320, Note_on_c, 5, 67, 90
7, 88499, Note_on_c, 5, 67, 0
7, 88499, Note_on_c, 5, 63, 0
7, 88500, Note_on_c, 5, 63, 90
7, 88500, Note_on_c, 5, 65, 90
7, 88799, Note_on_c, 5, 65, 0
7, 88799, Note_on_c, 5, 63, 0
7, 88800, Control_c, 5, 7, 115
7, 88800, Note_on_c, 5, 70, 100
7, 88800, Note_on_c, 5, 70, 100
7, 88800, Note_on_c, 5, 65, 100
7, 88833, Control_c, 5, 7, 114
7, 88866, Control_c, 5, 7, 113
7, 88889, Note_on_c, 5, 65, 0
7, 88889, Note_on_c, 5, 70, 0
7, 88889, Note_on_c, 5, 70, 0
7, 88900, Control_c, 5, 7, 112
7, 88933, Control_c, 5, 7, 111
7, 88966, Control_c, 5, 7, 110
7, 88980, Note_on_c, 5, 67, 100
7, 88980, Note_on_c, 5, 72, 100
7, 89000, Control_c, 5, 7, 109
7, 89033, Control_c, 5, 7, 108
7, 89067, Control_c, 5, 7, 107
7, 89100, Control_c, 5, 7, 106
7, 89133, Control_c, 5, 7, 105
7, 89159, Note_on_c, 5, 72, 0
7, 89159, Note_on_c, 5, 67, 0
7, 89167, Control_c, 5, 7, 104
7, 89200, Control_c, 5, 7, 103
7, 89233, Control_c, 5, 7, 102
7, 89267, Control_c, 5, 7, 101
7, 89280, Note_on_c, 5, 70, 100
7, 89280, Note_on_c, 5, 65, 100
7, 89300, Control_c, 5, 7, 100
7, 89334, Control_c, 5, 7, 99
7, 89367, Control_c, 5, 7, 98
7, 89369, Note_on_c, 5, 65, 0
7, 89369, Note_on_c, 5, 70, 0
7, 89400, Control_c, 5, 7, 97
7, 89400, Note_on_c, 5, 70, 100
7, 89400, Note_on_c, 5, 65, 100
7, 89434, Control_c, 5, 7, 96
7, 89467, Control_c, 5, 7, 95
7, 89489, Note_on_c, 5, 65, 0
7, 89489, Note_on_c, 5, 70, 0
7, 89501, Control_c, 5, 7, 94
7, 89520, Note_on_c, 5, 72, 100
7, 89520, Note_on_c, 5, 67, 100
7, 89534, Control_c, 5, 7, 93
7, 89567, Control_c, 5, 7, 92
7, 89601, Control_c, 5, 7, 91
7, 89634, Control_c, 5, 7, 90
7, 89639, Note_on_c, 5, 67, 0
7, 89639, Note_on_c, 5, 72, 0
7, 89667, Control_c, 5, 7, 89
7, 89701, Control_c, 5, 7, 88
7, 89734, Control_c, 5, 7, 87
7, 89760, Note_on_c, 5, 70, 100
7, 89760, Note_on_c, 5, 65, 100
7, 89768, Control_c, 5, 7, 86
7, 89801, Control_c, 5, 7, 85
7, 89834, Control_c, 5, 7, 84
7, 89849, Note_on_c, 5, 65, 0
7, 89849, Note_on_c, 5, 70, 0
7, 89868, Control_c, 5, 7, 83
7, 89901, Control_c, 5, 7, 82
7, 89935, Control_c, 5, 7, 81
7, 89940, Note_on_c, 5, 67, 100
7, 89940, Note_on_c, 5, 72, 100
7, 89968, Control_c, 5, 7, 80
7, 90001, Control_c, 5, 7, 79
7, 90035, Control_c, 5, 7, 78
7, 90068, Control_c, 5, 7, 77
7, 90101, Control_c, 5, 7, 76
7, 90119, Note_on_c, 5, 72, 0
7, 90119, Note_on_c, 5, 67, 0
7, 90135, Control_c, 5, 7, 75
7, 90168, Control_c, 5, 7, 74
7, 90202, Control_c, 5, 7, 73
7, 90235, Control_c, 5, 7, 72
7, 90240, Note_on_c, 5, 70, 100
7, 90240, Note_on_c, 5, 65, 100
7, 90268, Control_c, 5, 7, 71
7, 90302, Control_c, 5, 7, 70
7, 90329, Note_on_c, 5, 65, 0
7, 90329, Note_on_c, 5, 70, 0
7, 90335, Control_c, 5, 7, 69
7, 90360, Note_on_c, 5, 70, 100
7, 90360, Note_on_c, 5, 65, 100
7, 90368, Control_c, 5, 7, 68
7, 90402, Control_c, 5, 7, 67
7, 90435, Control_c, 5, 7, 66
7, 90449, Note_on_c, 5, 65, 0
7, 90449, Note_on_c, 5, 70, 0
7, 90469, Control_c, 5, 7, 65
7, 90480, Note_on_c, 5, 72, 100
7, 90480, Note_on_c, 5, 67, 100
7, 90502, Control_c, 5, 7, 64
7, 90535, Control_c, 5, 7, 63
7, 90569, Control_c, 5, 7, 62
7, 90599, Note_on_c, 5, 67, 0
7, 90599, Note_on_c, 5, 72, 0
7, 90602, Control_c, 5, 7, 61
7, 90636, Control_c, 5, 7, 60
7, 90669, Control_c, 5, 7, 59
7, 90702, Control_c, 5, 7, 58
7, 90720, Note_on_c, 5, 70, 100
7, 90720, Note_on_c, 5, 65, 100
7, 90736, Control_c, 5, 7, 57
7, 90769, Control_c, 5, 7, 56
7, 90802, Control_c, 5, 7, 55
7, 90809, Note_on_c, 5, 65, 0
7, 90809, Note_on_c, 5, 70, 0
7, 90836, Control_c, 5, 7, 54
7, 90869, Control_c, 5, 7, 53
7, 90900, Note_on_c, 5, 67, 100
7, 90900, Note_on_c, 5, 72, 100
7, 90903, Control_c, 5, 7, 52
7, 90936, Control_c, 5, 7, 51
7, 90969, Control_c, 5, 7, 50
7, 91003, Control_c, 5, 7, 49
7, 91036, Control_c, 5, 7, 48
7, 91070, Control_c, 5, 7, 47
7, 91079, Note_on_c, 5, 72, 0
7, 91079, Note_on_c, 5, 67, 0
7, 91103, Control_c, 5, 7, 46
7, 91136, Control_c, 5, 7, 45
7, 91170, Control_c, 5, 7, 44
7, 91200, Note_on_c, 5, 70, 100
7, 91200, Note_on_c, 5, 65, 100
7, 91203, Control_c, 5, 7, 43
7, 91236, Control_c, 5, 7, 42
7, 91270, Control_c, 5, 7, 41
7, 91289, Note_on_c, 5, 65, 0
7, 91289, Note_on_c, 5, 70, 0
7, 91303, Control_c, 5, 7, 40
7, 91320, Note_on_c, 5, 70, 100
7, 91320, Note_on_c, 5, 65, 100
7, 91337, Control_c, 5, 7, 39
7, 91370, Control_c, 5, 7, 38
7, 91403, Control_c, 5, 7, 37
7, 91409, Note_on_c, 5, 65, 0
7, 91409, Note_on_c, 5, 70, 0
7, 91437, Control_c, 5, 7, 36
7, 91440, Note_on_c, 5, 65, 100
7, 91440, Note_on_c, 5, 72, 100
7, 91470, Control_c, 5, 7, 35
7, 91503, Control_c, 5, 7, 34
7, 91537, Control_c, 5, 7, 33
7, 91559, Note_on_c, 5, 72, 0
7, 91559, Note_on_c, 5, 65, 0
7, 91560, Note_on_c, 5, 74, 90
7, 91560, Note_on_c, 5, 65, 90
7, 91570, Control_c, 5, 7, 32
7, 91604, Control_c, 5, 7, 31
7, 91637, Control_c, 5, 7, 30
7, 91670, Control_c, 5, 7, 29
7, 91679, Note_on_c, 5, 65, 0
7, 91679, Note_on_c, 5, 74, 0
7, 91680, Note_on_c, 5, 67, 90
7, 91680, Note_on_c, 5, 70, 90
7, 91680, Note_on_c, 5, 75, 90
7, 91704, Control_c, 5, 7, 28
7, 91737, Control_c, 5, 7, 27
7, 91771, Control_c, 5, 7, 26
7, 91804, Control_c, 5, 7, 25
7, 91837, Control_c, 5, 7, 24
7, 91859, Note_on_c, 5, 75, 0
7, 91859, Note_on_c, 5, 70, 0
7, 91859, Note_on_c, 5, 67, 0
7, 91860, Note_on_c, 5, 65, 90
7, 91860, Note_on_c, 5, 74, 90
7, 91871, Control_c, 5, 7, 23
7, 91904, Control_c, 5, 7, 22
7, 91937, Control_c, 5, 7, 21
7, 91971, Control_c, 5, 7, 20
7, 91999, Note_on_c, 5, 74, 0
7, 91999, Note_on_c, 5, 65, 0
7, 92000, Note_on_c, 5, 63, 90
7, 92000, Note_on_c, 5, 72, 90
7, 92004, Control_c, 5, 7, 19
7, 92038, Control_c, 5, 7, 18
7, 92071, Control_c, 5, 7, 17
7, 92079, Note_on_c, 5, 72, 0
7, 92079, Note_on_c, 5, 63, 0
7, 92080, Note_on_c, 5, 63, 90
7, 92080, Note_on_c, 5, 70, 90
7, 92104, Control_c, 5, 7, 16
7, 92138, Control_c, 5, 7, 15
7, 92159, Note_on_c, 5, 70, 0
7, 92159, Note_on_c, 5, 63, 0
7, 92160, Note_on_c, 5, 63, 90
7, 92160, Note_on_c, 5, 67, 90
7, 92171, Control_c, 5, 7, 14
7, 92205, Control_c, 5, 7, 13
7, 92238, Control_c, 5, 7, 12
7, 92271, Control_c, 5, 7, 11
7, 92305, Control_c, 5, 7, 10
7, 92338, Control_c, 5, 7, 9
7, 92339, Note_on_c, 5, 67, 0
7, 92339, Note_on_c, 5, 63, 0
7, 92340, Note_on_c, 5, 63, 90
7, 92340, Note_on_c, 5, 65, 90
7, 92371, Control_c, 5, 7, 8
7, 92405, Control_c, 5, 7, 7
7, 92438, Control_c, 5, 7, 6
7, 92472, Control_c, 5, 7, 5
7, 92505, Control_c, 5, 7, 4
7, 92538, Control_c, 5, 7, 3
7, 92572, Control_c, 5, 7, 2
7, 92605, Control_c, 5, 7, 1
7, 92639, Note_on_c, 5, 65, 0
7, 92639, Note_on_c, 5, 63, 0
7, 92639, Control_c, 5, 7, 0
7, 92639, End_track
8, 0, Start_track
8, 0, MIDI_port, 0
8, 0, Title_t, "Vocal Echo"
8, 0, Program_c, 6, 87
8, 0, Control_c, 6, 7, 80
8, 7980, Note_on_c, 6, 74, 100
8, 8039, Note_on_c, 6, 74, 0
8, 8040, Note_on_c, 6, 74, 100
8, 8099, Note_on_c, 6, 74, 0
8, 8100, Note_on_c, 6, 74, 100
8, 8159, Note_on_c, 6, 74, 0
8, 8160, Note_on_c, 6, 77, 100
8, 8399, Note_on_c, 6, 77, 0
8, 8400, Note_on_c, 6, 74, 100
8, 8579, Note_on_c, 6, 74, 0
8, 8580, Note_on_c, 6, 74, 100
8, 8759, Note_on_c, 6, 74, 0
8, 8760, Note_on_c, 6, 74, 100
8, 8819, Note_on_c, 6, 74, 0
8, 8820, Note_on_c, 6, 72, 100
8, 8879, Note_on_c, 6, 72, 0
8, 8880, Note_on_c, 6, 70, 100
8, 8999, Note_on_c, 6, 70, 0
8, 9000, Note_on_c, 6, 72, 100
8, 9119, Note_on_c, 6, 72, 0
8, 9120, Note_on_c, 6, 72, 100
8, 9179, Note_on_c, 6, 72, 0
8, 9180, Note_on_c, 6, 70, 100
8, 9299, Note_on_c, 6, 70, 0
8, 9300, Note_on_c, 6, 70, 100
8, 9359, Note_on_c, 6, 70, 0
8, 9360, Note_on_c, 6, 70, 100
8, 9479, Note_on_c, 6, 70, 0
8, 9480, Note_on_c, 6, 67, 100
8, 9599, Note_on_c, 6, 67, 0
8, 10080, Note_on_c, 6, 72, 100
8, 10199, Note_on_c, 6, 72, 0
8, 10200, Note_on_c, 6, 70, 100
8, 10259, Note_on_c, 6, 70, 0
8, 10260, Note_on_c, 6, 72, 100
8, 10379, Note_on_c, 6, 72, 0
8, 10380, Note_on_c, 6, 70, 100
8, 10499, Note_on_c, 6, 70, 0
8, 10500, Note_on_c, 6, 72, 100
8, 10619, Note_on_c, 6, 72, 0
8, 10620, Note_on_c, 6, 72, 100
8, 10739, Note_on_c, 6, 72, 0
8, 10740, Note_on_c, 6, 74, 100
8, 10919, Note_on_c, 6, 74, 0
8, 10920, Note_on_c, 6, 72, 100
8, 10979, Note_on_c, 6, 72, 0
8, 10980, Note_on_c, 6, 70, 100
8, 11039, Note_on_c, 6, 70, 0
8, 11040, Note_on_c, 6, 72, 100
8, 11219, Note_on_c, 6, 72, 0
8, 11220, Note_on_c, 6, 70, 100
8, 11399, Note_on_c, 6, 70, 0
8, 12000, Note_on_c, 6, 77, 100
8, 12119, Note_on_c, 6, 77, 0
8, 12120, Note_on_c, 6, 74, 100
8, 12179, Note_on_c, 6, 74, 0
8, 12180, Note_on_c, 6, 74, 100
8, 12299, Note_on_c, 6, 74, 0
8, 12300, Note_on_c, 6, 72, 100
8, 12419, Note_on_c, 6, 72, 0
8, 12420, Note_on_c, 6, 70, 100
8, 12479, Note_on_c, 6, 70, 0
8, 12480, Note_on_c, 6, 74, 100
8, 12839, Note_on_c, 6, 74, 0
8, 12840, Note_on_c, 6, 72, 100
8, 12899, Note_on_c, 6, 72, 0
8, 12900, Note_on_c, 6, 70, 100
8, 12959, Note_on_c, 6, 70, 0
8, 12960, Note_on_c, 6, 72, 100
8, 13019, Note_on_c, 6, 72, 0
8, 13020, Note_on_c, 6, 70, 100
8, 13139, Note_on_c, 6, 70, 0
8, 13140, Note_on_c, 6, 70, 100
8, 13199, Note_on_c, 6, 70, 0
8, 13200, Note_on_c, 6, 70, 100
8, 13259, Note_on_c, 6, 70, 0
8, 13260, Note_on_c, 6, 67, 100
8, 13439, Note_on_c, 6, 67, 0
8, 13920, Note_on_c, 6, 72, 100
8, 13979, Note_on_c, 6, 72, 0
8, 13980, Note_on_c, 6, 70, 100
8, 14099, Note_on_c, 6, 70, 0
8, 14100, Note_on_c, 6, 72, 100
8, 14219, Note_on_c, 6, 72, 0
8, 14220, Note_on_c, 6, 70, 100
8, 14339, Note_on_c, 6, 70, 0
8, 14340, Note_on_c, 6, 72, 100
8, 14459, Note_on_c, 6, 72, 0
8, 14460, Note_on_c, 6, 70, 100
8, 14579, Note_on_c, 6, 70, 0
8, 14580, Note_on_c, 6, 74, 100
8, 14759, Note_on_c, 6, 74, 0
8, 14760, Note_on_c, 6, 72, 100
8, 14819, Note_on_c, 6, 72, 0
8, 14820, Note_on_c, 6, 72, 100
8, 14939, Note_on_c, 6, 72, 0
8, 14940, Note_on_c, 6, 70, 100
8, 15059, Note_on_c, 6, 70, 0
8, 15060, Note_on_c, 6, 70, 100
8, 15239, Note_on_c, 6, 70, 0
8, 15540, Note_on_c, 6, 70, 100
8, 15719, Note_on_c, 6, 70, 0
8, 15900, Note_on_c, 6, 74, 100
8, 15989, Note_on_c, 6, 74, 0
8, 16020, Note_on_c, 6, 74, 100
8, 16169, Note_on_c, 6, 74, 0
8, 16380, Note_on_c, 6, 74, 100
8, 16469, Note_on_c, 6, 74, 0
8, 16500, Note_on_c, 6, 74, 100
8, 16649, Note_on_c, 6, 74, 0
8, 16740, Note_on_c, 6, 67, 100
8, 16799, Note_on_c, 6, 67, 0
8, 16800, Note_on_c, 6, 72, 100
8, 16859, Note_on_c, 6, 72, 0
8, 16860, Note_on_c, 6, 72, 100
8, 16919, Note_on_c, 6, 72, 0
8, 16920, Note_on_c, 6, 70, 100
8, 16979, Note_on_c, 6, 70, 0
8, 16980, Note_on_c, 6, 72, 100
8, 17159, Note_on_c, 6, 72, 0
8, 17160, Note_on_c, 6, 72, 100
8, 17279, Note_on_c, 6, 72, 0
8, 17280, Note_on_c, 6, 72, 100
8, 17399, Note_on_c, 6, 72, 0
8, 17400, Note_on_c, 6, 72, 100
8, 17459, Note_on_c, 6, 72, 0
8, 17460, Note_on_c, 6, 74, 100
8, 17639, Note_on_c, 6, 74, 0
8, 17700, Note_on_c, 6, 70, 100
8, 17759, Note_on_c, 6, 70, 0
8, 17760, Note_on_c, 6, 72, 100
8, 17879, Note_on_c, 6, 72, 0
8, 17880, Note_on_c, 6, 70, 100
8, 17939, Note_on_c, 6, 70, 0
8, 17940, Note_on_c, 6, 72, 100
8, 18119, Note_on_c, 6, 72, 0
8, 18180, Note_on_c, 6, 70, 100
8, 18239, Note_on_c, 6, 70, 0
8, 18240, Note_on_c, 6, 72, 100
8, 18359, Note_on_c, 6, 72, 0
8, 18360, Note_on_c, 6, 70, 100
8, 18419, Note_on_c, 6, 70, 0
8, 18420, Note_on_c, 6, 74, 100
8, 18659, Note_on_c, 6, 74, 0
8, 18660, Note_on_c, 6, 74, 100
8, 18719, Note_on_c, 6, 74, 0
8, 18720, Note_on_c, 6, 74, 100
8, 18779, Note_on_c, 6, 74, 0
8, 18780, Note_on_c, 6, 74, 100
8, 18839, Note_on_c, 6, 74, 0
8, 18840, Note_on_c, 6, 74, 100
8, 18899, Note_on_c, 6, 74, 0
8, 18900, Note_on_c, 6, 72, 100
8, 19019, Note_on_c, 6, 72, 0
8, 19020, Note_on_c, 6, 72, 100
8, 19079, Note_on_c, 6, 72, 0
8, 19080, Note_on_c, 6, 72, 100
8, 19139, Note_on_c, 6, 72, 0
8, 19140, Note_on_c, 6, 67, 100
8, 19199, Note_on_c, 6, 67, 0
8, 19200, Note_on_c, 6, 70, 100
8, 19379, Note_on_c, 6, 70, 0
8, 19380, Note_on_c, 6, 70, 100
8, 19499, Note_on_c, 6, 70, 0
8, 19500, Note_on_c, 6, 67, 100
8, 19679, Note_on_c, 6, 67, 0
8, 19680, Note_on_c, 6, 74, 100
8, 19799, Note_on_c, 6, 74, 0
8, 19860, Note_on_c, 6, 74, 100
8, 20039, Note_on_c, 6, 74, 0
8, 20100, Note_on_c, 6, 74, 100
8, 20279, Note_on_c, 6, 74, 0
8, 20280, Note_on_c, 6, 74, 100
8, 20399, Note_on_c, 6, 74, 0
8, 20400, Note_on_c, 6, 74, 100
8, 20519, Note_on_c, 6, 74, 0
8, 20640, Note_on_c, 6, 75, 100
8, 20759, Note_on_c, 6, 75, 0
8, 20760, Note_on_c, 6, 75, 100
8, 20819, Note_on_c, 6, 75, 0
8, 20820, Note_on_c, 6, 75, 100
8, 20999, Note_on_c, 6, 75, 0
8, 21000, Note_on_c, 6, 75, 100
8, 21059, Note_on_c, 6, 75, 0
8, 21060, Note_on_c, 6, 75, 100
8, 21179, Note_on_c, 6, 75, 0
8, 21180, Note_on_c, 6, 75, 100
8, 21299, Note_on_c, 6, 75, 0
8, 21300, Note_on_c, 6, 75, 100
8, 21359, Note_on_c, 6, 75, 0
8, 21360, Note_on_c, 6, 75, 100
8, 21479, Note_on_c, 6, 75, 0
8, 21600, Note_on_c, 6, 75, 100
8, 21719, Note_on_c, 6, 75, 0
8, 21720, Note_on_c, 6, 75, 100
8, 21779, Note_on_c, 6, 75, 0
8, 21780, Note_on_c, 6, 75, 100
8, 21899, Note_on_c, 6, 75, 0
8, 21900, Note_on_c, 6, 75, 100
8, 21959, Note_on_c, 6, 75, 0
8, 21960, Note_on_c, 6, 75, 100
8, 22019, Note_on_c, 6, 75, 0
8, 22020, Note_on_c, 6, 75, 100
8, 22199, Note_on_c, 6, 75, 0
8, 22200, Note_on_c, 6, 75, 100
8, 22319, Note_on_c, 6, 75, 0
8, 22320, Note_on_c, 6, 77, 100
8, 22439, Note_on_c, 6, 77, 0
8, 22560, Note_on_c, 6, 75, 100
8, 22619, Note_on_c, 6, 75, 0
8, 22620, Note_on_c, 6, 75, 100
8, 22679, Note_on_c, 6, 75, 0
8, 22680, Note_on_c, 6, 75, 100
8, 22739, Note_on_c, 6, 75, 0
8, 22740, Note_on_c, 6, 75, 100
8, 22859, Note_on_c, 6, 75, 0
8, 22860, Note_on_c, 6, 75, 100
8, 22919, Note_on_c, 6, 75, 0
8, 22920, Note_on_c, 6, 75, 100
8, 22979, Note_on_c, 6, 75, 0
8, 22980, Note_on_c, 6, 75, 100
8, 23039, Note_on_c, 6, 75, 0
8, 23040, Note_on_c, 6, 75, 100
8, 23159, Note_on_c, 6, 75, 0
8, 23160, Note_on_c, 6, 74, 100
8, 23279, Note_on_c, 6, 74, 0
8, 23280, Note_on_c, 6, 74, 100
8, 23399, Note_on_c, 6, 74, 0
8, 23520, Note_on_c, 6, 74, 100
8, 23639, Note_on_c, 6, 74, 0
8, 23700, Note_on_c, 6, 74, 100
8, 23879, Note_on_c, 6, 74, 0
8, 23880, Note_on_c, 6, 74, 100
8, 23940, Note_on_c, 6, 74, 0
8, 23940, Note_on_c, 6, 74, 100
8, 24119, Note_on_c, 6, 74, 0
8, 24120, Note_on_c, 6, 74, 100
8, 24239, Note_on_c, 6, 74, 0
8, 24240, Note_on_c, 6, 74, 100
8, 24359, Note_on_c, 6, 74, 0
8, 24480, Note_on_c, 6, 75, 100
8, 24660, Note_on_c, 6, 75, 0
8, 24660, Note_on_c, 6, 75, 100
8, 24839, Note_on_c, 6, 75, 0
8, 24840, Note_on_c, 6, 75, 100
8, 24899, Note_on_c, 6, 75, 0
8, 24900, Note_on_c, 6, 75, 100
8, 24960, Note_on_c, 6, 75, 0
8, 24960, Note_on_c, 6, 75, 100
8, 25020, Note_on_c, 6, 75, 0
8, 25020, Note_on_c, 6, 75, 100
8, 25080, Note_on_c, 6, 75, 0
8, 25080, Note_on_c, 6, 75, 100
8, 25200, Note_on_c, 6, 75, 0
8, 25200, Note_on_c, 6, 75, 100
8, 25319, Note_on_c, 6, 75, 0
8, 25440, Note_on_c, 6, 75, 100
8, 25500, Note_on_c, 6, 75, 0
8, 25500, Note_on_c, 6, 75, 100
8, 25619, Note_on_c, 6, 75, 0
8, 25620, Note_on_c, 6, 75, 100
8, 25800, Note_on_c, 6, 75, 0
8, 25800, Note_on_c, 6, 75, 100
8, 25859, Note_on_c, 6, 75, 0
8, 25860, Note_on_c, 6, 75, 100
8, 26039, Note_on_c, 6, 75, 0
8, 26040, Note_on_c, 6, 75, 100
8, 26159, Note_on_c, 6, 75, 0
8, 26160, Note_on_c, 6, 77, 100
8, 26279, Note_on_c, 6, 77, 0
8, 26400, Note_on_c, 6, 75, 100
8, 26459, Note_on_c, 6, 75, 0
8, 26460, Note_on_c, 6, 75, 100
8, 26519, Note_on_c, 6, 75, 0
8, 26520, Note_on_c, 6, 75, 100
8, 26579, Note_on_c, 6, 75, 0
8, 26580, Note_on_c, 6, 75, 100
8, 26699, Note_on_c, 6, 75, 0
8, 26700, Note_on_c, 6, 75, 100
8, 26759, Note_on_c, 6, 75, 0
8, 26760, Note_on_c, 6, 75, 100
8, 26819, Note_on_c, 6, 75, 0
8, 26820, Note_on_c, 6, 75, 100
8, 26879, Note_on_c, 6, 75, 0
8, 26880, Note_on_c, 6, 75, 100
8, 26999, Note_on_c, 6, 75, 0
8, 27000, Note_on_c, 6, 74, 100
8, 27119, Note_on_c, 6, 74, 0
8, 27120, Note_on_c, 6, 74, 100
8, 27239, Note_on_c, 6, 74, 0
8, 31020, Note_on_c, 6, 74, 100
8, 31079, Note_on_c, 6, 74, 0
8, 31080, Note_on_c, 6, 74, 100
8, 31199, Note_on_c, 6, 74, 0
8, 31200, Note_on_c, 6, 77, 100
8, 31319, Note_on_c, 6, 77, 0
8, 31320, Note_on_c, 6, 74, 100
8, 31379, Note_on_c, 6, 74, 0
8, 31380, Note_on_c, 6, 74, 100
8, 31589, Note_on_c, 6, 74, 0
8, 31620, Note_on_c, 6, 74, 100
8, 31799, Note_on_c, 6, 74, 0
8, 31800, Note_on_c, 6, 74, 100
8, 31859, Note_on_c, 6, 74, 0
8, 31860, Note_on_c, 6, 72, 100
8, 31919, Note_on_c, 6, 72, 0
8, 31920, Note_on_c, 6, 70, 100
8, 32039, Note_on_c, 6, 70, 0
8, 32040, Note_on_c, 6, 72, 100
8, 32159, Note_on_c, 6, 72, 0
8, 32160, Note_on_c, 6, 72, 100
8, 32219, Note_on_c, 6, 72, 0
8, 32220, Note_on_c, 6, 70, 100
8, 32339, Note_on_c, 6, 70, 0
8, 32340, Note_on_c, 6, 70, 100
8, 32399, Note_on_c, 6, 70, 0
8, 32400, Note_on_c, 6, 70, 100
8, 32519, Note_on_c, 6, 70, 0
8, 32520, Note_on_c, 6, 67, 100
8, 32639, Note_on_c, 6, 67, 0
8, 33120, Note_on_c, 6, 72, 100
8, 33239, Note_on_c, 6, 72, 0
8, 33240, Note_on_c, 6, 70, 100
8, 33299, Note_on_c, 6, 70, 0
8, 33300, Note_on_c, 6, 72, 100
8, 33419, Note_on_c, 6, 72, 0
8, 33420, Note_on_c, 6, 70, 100
8, 33479, Note_on_c, 6, 70, 0
8, 33480, Note_on_c, 6, 70, 100
8, 33539, Note_on_c, 6, 70, 0
8, 33540, Note_on_c, 6, 72, 100
8, 33659, Note_on_c, 6, 72, 0
8, 33660, Note_on_c, 6, 72, 100
8, 33779, Note_on_c, 6, 72, 0
8, 33780, Note_on_c, 6, 74, 100
8, 33959, Note_on_c, 6, 74, 0
8, 33960, Note_on_c, 6, 72, 100
8, 34079, Note_on_c, 6, 72, 0
8, 34080, Note_on_c, 6, 72, 100
8, 34259, Note_on_c, 6, 72, 0
8, 34260, Note_on_c, 6, 70, 100
8, 34319, Note_on_c, 6, 70, 0
8, 34320, Note_on_c, 6, 70, 100
8, 34439, Note_on_c, 6, 70, 0
8, 34920, Note_on_c, 6, 74, 100
8, 35039, Note_on_c, 6, 74, 0
8, 35040, Note_on_c, 6, 77, 100
8, 35159, Note_on_c, 6, 77, 0
8, 35160, Note_on_c, 6, 74, 100
8, 35219, Note_on_c, 6, 74, 0
8, 35220, Note_on_c, 6, 74, 100
8, 35339, Note_on_c, 6, 74, 0
8, 35340, Note_on_c, 6, 72, 100
8, 35519, Note_on_c, 6, 72, 0
8, 35520, Note_on_c, 6, 74, 100
8, 35879, Note_on_c, 6, 74, 0
8, 35880, Note_on_c, 6, 72, 100
8, 35939, Note_on_c, 6, 72, 0
8, 35940, Note_on_c, 6, 70, 100
8, 35999, Note_on_c, 6, 70, 0
8, 36000, Note_on_c, 6, 72, 100
8, 36059, Note_on_c, 6, 72, 0
8, 36060, Note_on_c, 6, 70, 100
8, 36179, Note_on_c, 6, 70, 0
8, 36180, Note_on_c, 6, 70, 100
8, 36239, Note_on_c, 6, 70, 0
8, 36240, Note_on_c, 6, 70, 100
8, 36299, Note_on_c, 6, 70, 0
8, 36300, Note_on_c, 6, 67, 100
8, 36479, Note_on_c, 6, 67, 0
8, 36960, Note_on_c, 6, 72, 100
8, 37019, Note_on_c, 6, 72, 0
8, 37020, Note_on_c, 6, 70, 100
8, 37139, Note_on_c, 6, 70, 0
8, 37140, Note_on_c, 6, 72, 100
8, 37259, Note_on_c, 6, 72, 0
8, 37260, Note_on_c, 6, 70, 100
8, 37379, Note_on_c, 6, 70, 0
8, 37380, Note_on_c, 6, 72, 100
8, 37499, Note_on_c, 6, 72, 0
8, 37500, Note_on_c, 6, 70, 100
8, 37559, Note_on_c, 6, 70, 0
8, 37560, Note_on_c, 6, 70, 100
8, 37619, Note_on_c, 6, 70, 0
8, 37620, Note_on_c, 6, 74, 100
8, 37799, Note_on_c, 6, 74, 0
8, 37800, Note_on_c, 6, 72, 100
8, 37859, Note_on_c, 6, 72, 0
8, 37860, Note_on_c, 6, 72, 100
8, 37919, Note_on_c, 6, 72, 0
8, 37920, Note_on_c, 6, 72, 100
8, 37979, Note_on_c, 6, 72, 0
8, 37980, Note_on_c, 6, 70, 100
8, 38099, Note_on_c, 6, 70, 0
8, 38100, Note_on_c, 6, 70, 100
8, 38219, Note_on_c, 6, 70, 0
8, 38220, Note_on_c, 6, 67, 100
8, 38399, Note_on_c, 6, 67, 0
8, 38580, Note_on_c, 6, 70, 100
8, 38759, Note_on_c, 6, 70, 0
8, 38940, Note_on_c, 6, 74, 100
8, 39029, Note_on_c, 6, 74, 0
8, 39060, Note_on_c, 6, 74, 100
8, 39209, Note_on_c, 6, 74, 0
8, 39420, Note_on_c, 6, 74, 100
8, 39509, Note_on_c, 6, 74, 0
8, 39540, Note_on_c, 6, 74, 100
8, 39689, Note_on_c, 6, 74, 0
8, 39780, Note_on_c, 6, 67, 100
8, 39839, Note_on_c, 6, 67, 0
8, 39840, Note_on_c, 6, 72, 100
8, 39899, Note_on_c, 6, 72, 0
8, 39900, Note_on_c, 6, 72, 100
8, 39959, Note_on_c, 6, 72, 0
8, 39960, Note_on_c, 6, 70, 100
8, 40019, Note_on_c, 6, 70, 0
8, 40020, Note_on_c, 6, 72, 100
8, 40199, Note_on_c, 6, 72, 0
8, 40200, Note_on_c, 6, 72, 100
8, 40319, Note_on_c, 6, 72, 0
8, 40320, Note_on_c, 6, 72, 100
8, 40439, Note_on_c, 6, 72, 0
8, 40440, Note_on_c, 6, 72, 100
8, 40499, Note_on_c, 6, 72, 0
8, 40500, Note_on_c, 6, 74, 100
8, 40679, Note_on_c, 6, 74, 0
8, 40740, Note_on_c, 6, 70, 100
8, 40799, Note_on_c, 6, 70, 0
8, 40800, Note_on_c, 6, 72, 100
8, 40919, Note_on_c, 6, 72, 0
8, 40920, Note_on_c, 6, 70, 100
8, 40979, Note_on_c, 6, 70, 0
8, 40980, Note_on_c, 6, 72, 100
8, 41159, Note_on_c, 6, 72, 0
8, 41220, Note_on_c, 6, 70, 100
8, 41279, Note_on_c, 6, 70, 0
8, 41280, Note_on_c, 6, 72, 100
8, 41399, Note_on_c, 6, 72, 0
8, 41400, Note_on_c, 6, 70, 100
8, 41459, Note_on_c, 6, 70, 0
8, 41460, Note_on_c, 6, 74, 100
8, 41699, Note_on_c, 6, 74, 0
8, 41700, Note_on_c, 6, 74, 100
8, 41759, Note_on_c, 6, 74, 0
8, 41760, Note_on_c, 6, 74, 100
8, 41819, Note_on_c, 6, 74, 0
8, 41820, Note_on_c, 6, 74, 100
8, 41879, Note_on_c, 6, 74, 0
8, 41880, Note_on_c, 6, 74, 100
8, 41939, Note_on_c, 6, 74, 0
8, 41940, Note_on_c, 6, 72, 100
8, 42059, Note_on_c, 6, 72, 0
8, 42060, Note_on_c, 6, 72, 100
8, 42119, Note_on_c, 6, 72, 0
8, 42120, Note_on_c, 6, 72, 100
8, 42179, Note_on_c, 6, 72, 0
8, 42180, Note_on_c, 6, 67, 100
8, 42239, Note_on_c, 6, 67, 0
8, 42240, Note_on_c, 6, 70, 100
8, 42419, Note_on_c, 6, 70, 0
8, 42420, Note_on_c, 6, 70, 100
8, 42539, Note_on_c, 6, 70, 0
8, 42540, Note_on_c, 6, 67, 100
8, 42719, Note_on_c, 6, 67, 0
8, 42720, Note_on_c, 6, 74, 100
8, 42839, Note_on_c, 6, 74, 0
8, 42900, Note_on_c, 6, 74, 100
8, 43079, Note_on_c, 6, 74, 0
8, 43140, Note_on_c, 6, 74, 100
8, 43319, Note_on_c, 6, 74, 0
8, 43320, Note_on_c, 6, 74, 100
8, 43439, Note_on_c, 6, 74, 0
8, 43440, Note_on_c, 6, 74, 100
8, 43559, Note_on_c, 6, 74, 0
8, 43680, Note_on_c, 6, 75, 100
8, 43799, Note_on_c, 6, 75, 0
8, 43800, Note_on_c, 6, 75, 100
8, 43859, Note_on_c, 6, 75, 0
8, 43860, Note_on_c, 6, 75, 100
8, 44039, Note_on_c, 6, 75, 0
8, 44040, Note_on_c, 6, 75, 100
8, 44099, Note_on_c, 6, 75, 0
8, 44100, Note_on_c, 6, 75, 100
8, 44219, Note_on_c, 6, 75, 0
8, 44220, Note_on_c, 6, 75, 100
8, 44339, Note_on_c, 6, 75, 0
8, 44340, Note_on_c, 6, 75, 100
8, 44399, Note_on_c, 6, 75, 0
8, 44400, Note_on_c, 6, 75, 100
8, 44519, Note_on_c, 6, 75, 0
8, 44640, Note_on_c, 6, 75, 100
8, 44759, Note_on_c, 6, 75, 0
8, 44760, Note_on_c, 6, 75, 100
8, 44819, Note_on_c, 6, 75, 0
8, 44820, Note_on_c, 6, 75, 100
8, 44939, Note_on_c, 6, 75, 0
8, 44940, Note_on_c, 6, 75, 100
8, 44999, Note_on_c, 6, 75, 0
8, 45000, Note_on_c, 6, 75, 100
8, 45059, Note_on_c, 6, 75, 0
8, 45060, Note_on_c, 6, 75, 100
8, 45239, Note_on_c, 6, 75, 0
8, 45240, Note_on_c, 6, 75, 100
8, 45359, Note_on_c, 6, 75, 0
8, 45360, Note_on_c, 6, 77, 100
8, 45479, Note_on_c, 6, 77, 0
8, 45600, Note_on_c, 6, 75, 100
8, 45659, Note_on_c, 6, 75, 0
8, 45660, Note_on_c, 6, 75, 100
8, 45719, Note_on_c, 6, 75, 0
8, 45720, Note_on_c, 6, 75, 100
8, 45779, Note_on_c, 6, 75, 0
8, 45780, Note_on_c, 6, 75, 100
8, 45899, Note_on_c, 6, 75, 0
8, 45900, Note_on_c, 6, 75, 100
8, 45959, Note_on_c, 6, 75, 0
8, 45960, Note_on_c, 6, 75, 100
8, 46019, Note_on_c, 6, 75, 0
8, 46020, Note_on_c, 6, 75, 100
8, 46079, Note_on_c, 6, 75, 0
8, 46080, Note_on_c, 6, 75, 100
8, 46199, Note_on_c, 6, 75, 0
8, 46200, Note_on_c, 6, 74, 100
8, 46319, Note_on_c, 6, 74, 0
8, 46320, Note_on_c, 6, 74, 100
8, 46439, Note_on_c, 6, 74, 0
8, 46560, Note_on_c, 6, 74, 100
8, 46679, Note_on_c, 6, 74, 0
8, 46740, Note_on_c, 6, 74, 100
8, 46919, Note_on_c, 6, 74, 0
8, 46920, Note_on_c, 6, 74, 100
8, 46980, Note_on_c, 6, 74, 0
8, 46980, Note_on_c, 6, 74, 100
8, 47159, Note_on_c, 6, 74, 0
8, 47160, Note_on_c, 6, 74, 100
8, 47279, Note_on_c, 6, 74, 0
8, 47280, Note_on_c, 6, 74, 100
8, 47399, Note_on_c, 6, 74, 0
8, 47520, Note_on_c, 6, 75, 100
8, 47700, Note_on_c, 6, 75, 0
8, 47700, Note_on_c, 6, 75, 100
8, 47879, Note_on_c, 6, 75, 0
8, 47880, Note_on_c, 6, 75, 100
8, 47939, Note_on_c, 6, 75, 0
8, 47940, Note_on_c, 6, 75, 100
8, 48000, Note_on_c, 6, 75, 0
8, 48000, Note_on_c, 6, 75, 100
8, 48060, Note_on_c, 6, 75, 0
8, 48060, Note_on_c, 6, 75, 100
8, 48120, Note_on_c, 6, 75, 0
8, 48120, Note_on_c, 6, 75, 100
8, 48240, Note_on_c, 6, 75, 0
8, 48240, Note_on_c, 6, 75, 100
8, 48359, Note_on_c, 6, 75, 0
8, 48480, Note_on_c, 6, 75, 100
8, 48540, Note_on_c, 6, 75, 0
8, 48540, Note_on_c, 6, 75, 100
8, 48659, Note_on_c, 6, 75, 0
8, 48660, Note_on_c, 6, 75, 100
8, 48840, Note_on_c, 6, 75, 0
8, 48840, Note_on_c, 6, 75, 100
8, 48899, Note_on_c, 6, 75, 0
8, 48900, Note_on_c, 6, 75, 100
8, 49079, Note_on_c, 6, 75, 0
8, 49080, Note_on_c, 6, 75, 100
8, 49199, Note_on_c, 6, 75, 0
8, 49200, Note_on_c, 6, 77, 100
8, 49319, Note_on_c, 6, 77, 0
8, 49440, Note_on_c, 6, 75, 100
8, 49499, Note_on_c, 6, 75, 0
8, 49500, Note_on_c, 6, 75, 100
8, 49559, Note_on_c, 6, 75, 0
8, 49560, Note_on_c, 6, 75, 100
8, 49619, Note_on_c, 6, 75, 0
8, 49620, Note_on_c, 6, 75, 100
8, 49739, Note_on_c, 6, 75, 0
8, 49740, Note_on_c, 6, 75, 100
8, 49799, Note_on_c, 6, 75, 0
8, 49800, Note_on_c, 6, 75, 100
8, 49859, Note_on_c, 6, 75, 0
8, 49860, Note_on_c, 6, 75, 100
8, 49919, Note_on_c, 6, 75, 0
8, 49920, Note_on_c, 6, 75, 100
8, 50039, Note_on_c, 6, 75, 0
8, 50040, Note_on_c, 6, 74, 100
8, 50159, Note_on_c, 6, 74, 0
8, 50160, Note_on_c, 6, 74, 100
8, 50279, Note_on_c, 6, 74, 0
8, 54540, Note_on_c, 6, 74, 100
8, 54659, Note_on_c, 6, 74, 0
8, 54660, Note_on_c, 6, 77, 100
8, 54719, Note_on_c, 6, 77, 0
8, 54720, Note_on_c, 6, 79, 100
8, 54839, Note_on_c, 6, 79, 0
8, 54840, Note_on_c, 6, 77, 100
8, 54899, Note_on_c, 6, 77, 0
8, 54900, Note_on_c, 6, 74, 100
8, 55019, Note_on_c, 6, 74, 0
8, 55020, Note_on_c, 6, 70, 100
8, 55079, Note_on_c, 6, 70, 0
8, 55080, Note_on_c, 6, 70, 100
8, 55139, Note_on_c, 6, 70, 0
8, 55140, Note_on_c, 6, 72, 100
8, 55379, Note_on_c, 6, 72, 0
8, 55380, Note_on_c, 6, 74, 100
8, 55439, Note_on_c, 6, 74, 0
8, 55440, Note_on_c, 6, 74, 100
8, 55499, Note_on_c, 6, 74, 0
8, 55500, Note_on_c, 6, 72, 100
8, 55679, Note_on_c, 6, 72, 0
8, 56400, Note_on_c, 6, 67, 100
8, 56459, Note_on_c, 6, 67, 0
8, 56460, Note_on_c, 6, 70, 100
8, 56579, Note_on_c, 6, 70, 0
8, 56580, Note_on_c, 6, 70, 100
8, 56819, Note_on_c, 6, 70, 0
8, 56820, Note_on_c, 6, 72, 100
8, 56939, Note_on_c, 6, 72, 0
8, 56940, Note_on_c, 6, 74, 100
8, 57059, Note_on_c, 6, 74, 0
8, 57060, Note_on_c, 6, 74, 100
8, 57179, Note_on_c, 6, 74, 0
8, 57180, Note_on_c, 6, 74, 100
8, 57359, Note_on_c, 6, 74, 0
8, 58440, Note_on_c, 6, 74, 100
8, 58499, Note_on_c, 6, 74, 0
8, 58500, Note_on_c, 6, 77, 100
8, 58559, Note_on_c, 6, 77, 0
8, 58560, Note_on_c, 6, 79, 100
8, 58679, Note_on_c, 6, 79, 0
8, 58680, Note_on_c, 6, 77, 100
8, 58739, Note_on_c, 6, 77, 0
8, 58740, Note_on_c, 6, 74, 100
8, 58859, Note_on_c, 6, 74, 0
8, 58860, Note_on_c, 6, 72, 100
8, 58919, Note_on_c, 6, 72, 0
8, 58920, Note_on_c, 6, 70, 100
8, 58979, Note_on_c, 6, 70, 0
8, 58980, Note_on_c, 6, 72, 100
8, 59219, Note_on_c, 6, 72, 0
8, 59220, Note_on_c, 6, 74, 100
8, 59279, Note_on_c, 6, 74, 0
8, 59280, Note_on_c, 6, 74, 100
8, 59339, Note_on_c, 6, 74, 0
8, 59340, Note_on_c, 6, 72, 100
8, 59519, Note_on_c, 6, 72, 0
8, 60120, Note_on_c, 6, 67, 100
8, 60179, Note_on_c, 6, 67, 0
8, 60180, Note_on_c, 6, 70, 100
8, 60239, Note_on_c, 6, 70, 0
8, 60240, Note_on_c, 6, 70, 100
8, 60359, Note_on_c, 6, 70, 0
8, 60540, Note_on_c, 6, 67, 100
8, 60599, Note_on_c, 6, 67, 0
8, 60600, Note_on_c, 6, 70, 100
8, 60719, Note_on_c, 6, 70, 0
8, 60720, Note_on_c, 6, 70, 100
8, 60839, Note_on_c, 6, 70, 0
8, 60840, Note_on_c, 6, 70, 100
8, 60959, Note_on_c, 6, 70, 0
8, 60960, Note_on_c, 6, 74, 100
8, 61019, Note_on_c, 6, 74, 0
8, 61020, Note_on_c, 6, 72, 100
8, 61139, Note_on_c, 6, 72, 0
8, 61140, Note_on_c, 6, 70, 100
8, 61199, Note_on_c, 6, 70, 0
8, 61200, Note_on_c, 6, 70, 100
8, 61379, Note_on_c, 6, 70, 0
8, 61380, Note_on_c, 6, 79, 100
8, 61499, Note_on_c, 6, 79, 0
8, 61500, Note_on_c, 6, 77, 100
8, 61559, Note_on_c, 6, 77, 0
8, 61560, Note_on_c, 6, 74, 100
8, 61619, Note_on_c, 6, 74, 0
8, 61620, Note_on_c, 6, 77, 100
8, 61739, Note_on_c, 6, 77, 0
8, 61740, Note_on_c, 6, 74, 100
8, 61919, Note_on_c, 6, 74, 0
8, 61920, Note_on_c, 6, 74, 100
8, 62039, Note_on_c, 6, 74, 0
8, 62100, Note_on_c, 6, 74, 100
8, 62279, Note_on_c, 6, 74, 0
8, 62340, Note_on_c, 6, 74, 100
8, 62519, Note_on_c, 6, 74, 0
8, 62520, Note_on_c, 6, 74, 100
8, 62639, Note_on_c, 6, 74, 0
8, 62640, Note_on_c, 6, 74, 100
8, 62759, Note_on_c, 6, 74, 0
8, 62880, Note_on_c, 6, 75, 100
8, 62999, Note_on_c, 6, 75, 0
8, 63000, Note_on_c, 6, 75, 100
8, 63059, Note_on_c, 6, 75, 0
8, 63060, Note_on_c, 6, 75, 100
8, 63239, Note_on_c, 6, 75, 0
8, 63240, Note_on_c, 6, 75, 100
8, 63299, Note_on_c, 6, 75, 0
8, 63300, Note_on_c, 6, 75, 100
8, 63419, Note_on_c, 6, 75, 0
8, 63420, Note_on_c, 6, 75, 100
8, 63539, Note_on_c, 6, 75, 0
8, 63540, Note_on_c, 6, 75, 100
8, 63599, Note_on_c, 6, 75, 0
8, 63600, Note_on_c, 6, 75, 100
8, 63719, Note_on_c, 6, 75, 0
8, 63840, Note_on_c, 6, 75, 100
8, 63959, Note_on_c, 6, 75, 0
8, 63960, Note_on_c, 6, 75, 100
8, 64019, Note_on_c, 6, 75, 0
8, 64020, Note_on_c, 6, 75, 100
8, 64139, Note_on_c, 6, 75, 0
8, 64140, Note_on_c, 6, 75, 100
8, 64199, Note_on_c, 6, 75, 0
8, 64200, Note_on_c, 6, 75, 100
8, 64259, Note_on_c, 6, 75, 0
8, 64260, Note_on_c, 6, 75, 100
8, 64439, Note_on_c, 6, 75, 0
8, 64440, Note_on_c, 6, 75, 100
8, 64559, Note_on_c, 6, 75, 0
8, 64560, Note_on_c, 6, 77, 100
8, 64679, Note_on_c, 6, 77, 0
8, 64800, Note_on_c, 6, 75, 100
8, 64859, Note_on_c, 6, 75, 0
8, 64860, Note_on_c, 6, 75, 100
8, 64919, Note_on_c, 6, 75, 0
8, 64920, Note_on_c, 6, 75, 100
8, 64979, Note_on_c, 6, 75, 0
8, 64980, Note_on_c, 6, 75, 100
8, 65099, Note_on_c, 6, 75, 0
8, 65100, Note_on_c, 6, 75, 100
8, 65159, Note_on_c, 6, 75, 0
8, 65160, Note_on_c, 6, 75, 100
8, 65219, Note_on_c, 6, 75, 0
8, 65220, Note_on_c, 6, 75, 100
8, 65279, Note_on_c, 6, 75, 0
8, 65280, Note_on_c, 6, 75, 100
8, 65399, Note_on_c, 6, 75, 0
8, 65400, Note_on_c, 6, 74, 100
8, 65519, Note_on_c, 6, 74, 0
8, 65520, Note_on_c, 6, 74, 100
8, 65639, Note_on_c, 6, 74, 0
8, 65760, Note_on_c, 6, 74, 100
8, 65879, Note_on_c, 6, 74, 0
8, 65940, Note_on_c, 6, 74, 100
8, 66119, Note_on_c, 6, 74, 0
8, 66120, Note_on_c, 6, 74, 100
8, 66180, Note_on_c, 6, 74, 0
8, 66180, Note_on_c, 6, 74, 100
8, 66359, Note_on_c, 6, 74, 0
8, 66360, Note_on_c, 6, 74, 100
8, 66479, Note_on_c, 6, 74, 0
8, 66480, Note_on_c, 6, 74, 100
8, 66599, Note_on_c, 6, 74, 0
8, 66720, Note_on_c, 6, 75, 100
8, 66900, Note_on_c, 6, 75, 0
8, 66900, Note_on_c, 6, 75, 100
8, 67079, Note_on_c, 6, 75, 0
8, 67080, Note_on_c, 6, 75, 100
8, 67139, Note_on_c, 6, 75, 0
8, 67140, Note_on_c, 6, 75, 100
8, 67200, Note_on_c, 6, 75, 0
8, 67200, Note_on_c, 6, 75, 100
8, 67260, Note_on_c, 6, 75, 0
8, 67260, Note_on_c, 6, 75, 100
8, 67320, Note_on_c, 6, 75, 0
8, 67320, Note_on_c, 6, 75, 100
8, 67440, Note_on_c, 6, 75, 0
8, 67440, Note_on_c, 6, 75, 100
8, 67559, Note_on_c, 6, 75, 0
8, 67680, Note_on_c, 6, 75, 100
8, 67740, Note_on_c, 6, 75, 0
8, 67740, Note_on_c, 6, 75, 100
8, 67859, Note_on_c, 6, 75, 0
8, 67860, Note_on_c, 6, 75, 100
8, 68040, Note_on_c, 6, 75, 0
8, 68040, Note_on_c, 6, 75, 100
8, 68099, Note_on_c, 6, 75, 0
8, 68100, Note_on_c, 6, 75, 100
8, 68279, Note_on_c, 6, 75, 0
8, 68280, Note_on_c, 6, 75, 100
8, 68399, Note_on_c, 6, 75, 0
8, 68400, Note_on_c, 6, 77, 100
8, 68519, Note_on_c, 6, 77, 0
8, 68640, Note_on_c, 6, 75, 100
8, 68699, Note_on_c, 6, 75, 0
8, 68700, Note_on_c, 6, 75, 100
8, 68759, Note_on_c, 6, 75, 0
8, 68760, Note_on_c, 6, 75, 100
8, 68819, Note_on_c, 6, 75, 0
8, 68820, Note_on_c, 6, 75, 100
8, 68939, Note_on_c, 6, 75, 0
8, 68940, Note_on_c, 6, 75, 100
8, 68999, Note_on_c, 6, 75, 0
8, 69000, Note_on_c, 6, 75, 100
8, 69059, Note_on_c, 6, 75, 0
8, 69060, Note_on_c, 6, 75, 100
8, 69119, Note_on_c, 6, 75, 0
8, 69120, Note_on_c, 6, 75, 100
8, 69239, Note_on_c, 6, 75, 0
8, 69240, Note_on_c, 6, 74, 100
8, 69359, Note_on_c, 6, 74, 0
8, 69360, Note_on_c, 6, 74, 100
8, 69479, Note_on_c, 6, 74, 0
8, 72480, Note_on_c, 6, 75, 100
8, 72539, Note_on_c, 6, 75, 0
8, 72540, Note_on_c, 6, 75, 100
8, 72599, Note_on_c, 6, 75, 0
8, 72600, Note_on_c, 6, 75, 100
8, 72659, Note_on_c, 6, 75, 0
8, 72660, Note_on_c, 6, 75, 100
8, 72779, Note_on_c, 6, 75, 0
8, 72780, Note_on_c, 6, 75, 100
8, 72839, Note_on_c, 6, 75, 0
8, 72840, Note_on_c, 6, 75, 100
8, 72899, Note_on_c, 6, 75, 0
8, 72900, Note_on_c, 6, 75, 100
8, 72959, Note_on_c, 6, 75, 0
8, 72960, Note_on_c, 6, 75, 100
8, 73079, Note_on_c, 6, 75, 0
8, 73080, Note_on_c, 6, 74, 100
8, 73199, Note_on_c, 6, 74, 0
8, 73200, Note_on_c, 6, 74, 100
8, 73319, Note_on_c, 6, 74, 0
8, 81000, Note_on_c, 6, 74, 100
8, 81059, Note_on_c, 6, 74, 0
8, 81060, Note_on_c, 6, 77, 100
8, 81179, Note_on_c, 6, 77, 0
8, 81180, Note_on_c, 6, 74, 100
8, 81299, Note_on_c, 6, 74, 0
8, 81300, Note_on_c, 6, 74, 100
8, 81479, Note_on_c, 6, 74, 0
8, 81480, Note_on_c, 6, 72, 100
8, 81539, Note_on_c, 6, 72, 0
8, 81540, Note_on_c, 6, 72, 100
8, 81659, Note_on_c, 6, 72, 0
8, 81660, Note_on_c, 6, 70, 100
8, 81779, Note_on_c, 6, 70, 0
8, 81780, Note_on_c, 6, 74, 100
8, 81959, Note_on_c, 6, 74, 0
8, 82080, Note_on_c, 6, 72, 100
8, 82199, Note_on_c, 6, 72, 0
8, 82200, Note_on_c, 6, 70, 100
8, 82259, Note_on_c, 6, 70, 0
8, 82260, Note_on_c, 6, 74, 100
8, 82379, Note_on_c, 6, 74, 0
8, 82380, Note_on_c, 6, 72, 100
8, 82499, Note_on_c, 6, 72, 0
8, 82500, Note_on_c, 6, 70, 100
8, 82559, Note_on_c, 6, 70, 0
8, 82560, Note_on_c, 6, 72, 100
8, 82739, Note_on_c, 6, 72, 0
8, 82740, Note_on_c, 6, 70, 100
8, 82919, Note_on_c, 6, 70, 0
8, 83040, Note_on_c, 6, 72, 100
8, 83159, Note_on_c, 6, 72, 0
8, 83160, Note_on_c, 6, 70, 100
8, 83219, Note_on_c, 6, 70, 0
8, 83220, Note_on_c, 6, 72, 100
8, 83399, Note_on_c, 6, 72, 0
8, 83400, Note_on_c, 6, 72, 100
8, 83519, Note_on_c, 6, 72, 0
8, 83520, Note_on_c, 6, 72, 100
8, 83639, Note_on_c, 6, 72, 0
8, 83640, Note_on_c, 6, 70, 100
8, 83699, Note_on_c, 6, 70, 0
8, 83700, Note_on_c, 6, 74, 100
8, 83879, Note_on_c, 6, 74, 0
8, 84000, Note_on_c, 6, 74, 100
8, 84059, Note_on_c, 6, 74, 0
8, 84060, Note_on_c, 6, 74, 100
8, 84179, Note_on_c, 6, 74, 0
8, 84180, Note_on_c, 6, 74, 100
8, 84359, Note_on_c, 6, 74, 0
8, 84360, Note_on_c, 6, 72, 100
8, 84419, Note_on_c, 6, 72, 0
8, 84420, Note_on_c, 6, 70, 100
8, 84479, Note_on_c, 6, 70, 0
8, 84480, Note_on_c, 6, 70, 100
8, 84659, Note_on_c, 6, 70, 0
8, 84660, Note_on_c, 6, 70, 100
8, 84839, Note_on_c, 6, 70, 0
8, 84839, End_track
9, 0, Start_track
9, 0, MIDI_port, 0
9, 0, Title_t, "Vocal Back"
9, 0, Program_c, 7, 85
9, 0, Control_c, 7, 7, 85
9, 15900, Note_on_c, 7, 74, 100
9, 15989, Note_on_c, 7, 74, 0
9, 16020, Note_on_c, 7, 74, 100
9, 16169, Note_on_c, 7, 74, 0
9, 16380, Note_on_c, 7, 74, 100
9, 16469, Note_on_c, 7, 74, 0
9, 16500, Note_on_c, 7, 74, 100
9, 16649, Note_on_c, 7, 74, 0
9, 17700, Note_on_c, 7, 70, 100
9, 17759, Note_on_c, 7, 70, 0
9, 17760, Note_on_c, 7, 72, 100
9, 17879, Note_on_c, 7, 72, 0
9, 17880, Note_on_c, 7, 70, 100
9, 17939, Note_on_c, 7, 70, 0
9, 17940, Note_on_c, 7, 72, 100
9, 18119, Note_on_c, 7, 72, 0
9, 18180, Note_on_c, 7, 70, 100
9, 18239, Note_on_c, 7, 70, 0
9, 18240, Note_on_c, 7, 72, 100
9, 18359, Note_on_c, 7, 72, 0
9, 18360, Note_on_c, 7, 70, 100
9, 18419, Note_on_c, 7, 70, 0
9, 18420, Note_on_c, 7, 74, 100
9, 18659, Note_on_c, 7, 74, 0
9, 19680, Note_on_c, 7, 65, 100
9, 19799, Note_on_c, 7, 65, 0
9, 19860, Note_on_c, 7, 65, 100
9, 20039, Note_on_c, 7, 65, 0
9, 20100, Note_on_c, 7, 65, 100
9, 20279, Note_on_c, 7, 65, 0
9, 20280, Note_on_c, 7, 65, 100
9, 20399, Note_on_c, 7, 65, 0
9, 20400, Note_on_c, 7, 65, 100
9, 20519, Note_on_c, 7, 65, 0
9, 20640, Note_on_c, 7, 67, 100
9, 20759, Note_on_c, 7, 67, 0
9, 20760, Note_on_c, 7, 67, 100
9, 20819, Note_on_c, 7, 67, 0
9, 20820, Note_on_c, 7, 67, 100
9, 20999, Note_on_c, 7, 67, 0
9, 21000, Note_on_c, 7, 67, 100
9, 21059, Note_on_c, 7, 67, 0
9, 21060, Note_on_c, 7, 67, 100
9, 21179, Note_on_c, 7, 67, 0
9, 21180, Note_on_c, 7, 67, 100
9, 21299, Note_on_c, 7, 67, 0
9, 21300, Note_on_c, 7, 67, 100
9, 21359, Note_on_c, 7, 67, 0
9, 21360, Note_on_c, 7, 67, 100
9, 21479, Note_on_c, 7, 67, 0
9, 21600, Note_on_c, 7, 68, 100
9, 21719, Note_on_c, 7, 68, 0
9, 21720, Note_on_c, 7, 68, 100
9, 21779, Note_on_c, 7, 68, 0
9, 21780, Note_on_c, 7, 68, 100
9, 21899, Note_on_c, 7, 68, 0
9, 21900, Note_on_c, 7, 68, 100
9, 21959, Note_on_c, 7, 68, 0
9, 21960, Note_on_c, 7, 68, 100
9, 22019, Note_on_c, 7, 68, 0
9, 22020, Note_on_c, 7, 68, 100
9, 22199, Note_on_c, 7, 68, 0
9, 22200, Note_on_c, 7, 68, 100
9, 22319, Note_on_c, 7, 68, 0
9, 22320, Note_on_c, 7, 68, 100
9, 22439, Note_on_c, 7, 68, 0
9, 22560, Note_on_c, 7, 67, 100
9, 22619, Note_on_c, 7, 67, 0
9, 22620, Note_on_c, 7, 67, 100
9, 22679, Note_on_c, 7, 67, 0
9, 22680, Note_on_c, 7, 67, 100
9, 22739, Note_on_c, 7, 67, 0
9, 22740, Note_on_c, 7, 67, 100
9, 22859, Note_on_c, 7, 67, 0
9, 22860, Note_on_c, 7, 67, 100
9, 22919, Note_on_c, 7, 67, 0
9, 22920, Note_on_c, 7, 67, 100
9, 22979, Note_on_c, 7, 67, 0
9, 22980, Note_on_c, 7, 67, 100
9, 23039, Note_on_c, 7, 67, 0
9, 23040, Note_on_c, 7, 67, 100
9, 23159, Note_on_c, 7, 67, 0
9, 23160, Note_on_c, 7, 65, 100
9, 23279, Note_on_c, 7, 65, 0
9, 23280, Note_on_c, 7, 65, 100
9, 23399, Note_on_c, 7, 65, 0
9, 23520, Note_on_c, 7, 65, 100
9, 23639, Note_on_c, 7, 65, 0
9, 23700, Note_on_c, 7, 65, 100
9, 23879, Note_on_c, 7, 65, 0
9, 23880, Note_on_c, 7, 65, 100
9, 23940, Note_on_c, 7, 65, 0
9, 23940, Note_on_c, 7, 65, 100
9, 24119, Note_on_c, 7, 65, 0
9, 24120, Note_on_c, 7, 65, 100
9, 24239, Note_on_c, 7, 65, 0
9, 24240, Note_on_c, 7, 65, 100
9, 24359, Note_on_c, 7, 65, 0
9, 24480, Note_on_c, 7, 67, 100
9, 24660, Note_on_c, 7, 67, 0
9, 24660, Note_on_c, 7, 67, 100
9, 24839, Note_on_c, 7, 67, 0
9, 24840, Note_on_c, 7, 67, 100
9, 24899, Note_on_c, 7, 67, 0
9, 24900, Note_on_c, 7, 67, 100
9, 24960, Note_on_c, 7, 67, 0
9, 24960, Note_on_c, 7, 67, 100
9, 25020, Note_on_c, 7, 67, 0
9, 25020, Note_on_c, 7, 67, 100
9, 25080, Note_on_c, 7, 67, 0
9, 25080, Note_on_c, 7, 67, 100
9, 25200, Note_on_c, 7, 67, 0
9, 25200, Note_on_c, 7, 67, 100
9, 25319, Note_on_c, 7, 67, 0
9, 25440, Note_on_c, 7, 68, 100
9, 25500, Note_on_c, 7, 68, 0
9, 25500, Note_on_c, 7, 68, 100
9, 25619, Note_on_c, 7, 68, 0
9, 25620, Note_on_c, 7, 68, 100
9, 25800, Note_on_c, 7, 68, 0
9, 25800, Note_on_c, 7, 68, 100
9, 25859, Note_on_c, 7, 68, 0
9, 25860, Note_on_c, 7, 68, 100
9, 26039, Note_on_c, 7, 68, 0
9, 26040, Note_on_c, 7, 68, 100
9, 26159, Note_on_c, 7, 68, 0
9, 26160, Note_on_c, 7, 68, 100
9, 26279, Note_on_c, 7, 68, 0
9, 26400, Note_on_c, 7, 67, 100
9, 26459, Note_on_c, 7, 67, 0
9, 26460, Note_on_c, 7, 67, 100
9, 26519, Note_on_c, 7, 67, 0
9, 26520, Note_on_c, 7, 67, 100
9, 26579, Note_on_c, 7, 67, 0
9, 26580, Note_on_c, 7, 67, 100
9, 26699, Note_on_c, 7, 67, 0
9, 26700, Note_on_c, 7, 67, 100
9, 26759, Note_on_c, 7, 67, 0
9, 26760, Note_on_c, 7, 67, 100
9, 26819, Note_on_c, 7, 67, 0
9, 26820, Note_on_c, 7, 67, 100
9, 26879, Note_on_c, 7, 67, 0
9, 26880, Note_on_c, 7, 67, 100
9, 26999, Note_on_c, 7, 67, 0
9, 27000, Note_on_c, 7, 65, 100
9, 27119, Note_on_c, 7, 65, 0
9, 27120, Note_on_c, 7, 65, 100
9, 27239, Note_on_c, 7, 65, 0
9, 38940, Note_on_c, 7, 74, 100
9, 39029, Note_on_c, 7, 74, 0
9, 39060, Note_on_c, 7, 74, 100
9, 39209, Note_on_c, 7, 74, 0
9, 39420, Note_on_c, 7, 74, 100
9, 39509, Note_on_c, 7, 74, 0
9, 39540, Note_on_c, 7, 74, 100
9, 39689, Note_on_c, 7, 74, 0
9, 40740, Note_on_c, 7, 70, 100
9, 40799, Note_on_c, 7, 70, 0
9, 40800, Note_on_c, 7, 72, 100
9, 40919, Note_on_c, 7, 72, 0
9, 40920, Note_on_c, 7, 70, 100
9, 40979, Note_on_c, 7, 70, 0
9, 40980, Note_on_c, 7, 72, 100
9, 41159, Note_on_c, 7, 72, 0
9, 41220, Note_on_c, 7, 70, 100
9, 41279, Note_on_c, 7, 70, 0
9, 41280, Note_on_c, 7, 72, 100
9, 41399, Note_on_c, 7, 72, 0
9, 41400, Note_on_c, 7, 70, 100
9, 41459, Note_on_c, 7, 70, 0
9, 41460, Note_on_c, 7, 74, 100
9, 41699, Note_on_c, 7, 74, 0
9, 42720, Note_on_c, 7, 65, 100
9, 42839, Note_on_c, 7, 65, 0
9, 42900, Note_on_c, 7, 65, 100
9, 43079, Note_on_c, 7, 65, 0
9, 43140, Note_on_c, 7, 65, 100
9, 43319, Note_on_c, 7, 65, 0
9, 43320, Note_on_c, 7, 65, 100
9, 43439, Note_on_c, 7, 65, 0
9, 43440, Note_on_c, 7, 65, 100
9, 43559, Note_on_c, 7, 65, 0
9, 43680, Note_on_c, 7, 67, 100
9, 43799, Note_on_c, 7, 67, 0
9, 43800, Note_on_c, 7, 67, 100
9, 43859, Note_on_c, 7, 67, 0
9, 43860, Note_on_c, 7, 67, 100
9, 44039, Note_on_c, 7, 67, 0
9, 44040, Note_on_c, 7, 67, 100
9, 44099, Note_on_c, 7, 67, 0
9, 44100, Note_on_c, 7, 67, 100
9, 44219, Note_on_c, 7, 67, 0
9, 44220, Note_on_c, 7, 67, 100
9, 44339, Note_on_c, 7, 67, 0
9, 44340, Note_on_c, 7, 67, 100
9, 44399, Note_on_c, 7, 67, 0
9, 44400, Note_on_c, 7, 67, 100
9, 44519, Note_on_c, 7, 67, 0
9, 44640, Note_on_c, 7, 68, 100
9, 44759, Note_on_c, 7, 68, 0
9, 44760, Note_on_c, 7, 68, 100
9, 44819, Note_on_c, 7, 68, 0
9, 44820, Note_on_c, 7, 68, 100
9, 44939, Note_on_c, 7, 68, 0
9, 44940, Note_on_c, 7, 68, 100
9, 44999, Note_on_c, 7, 68, 0
9, 45000, Note_on_c, 7, 68, 100
9, 45059, Note_on_c, 7, 68, 0
9, 45060, Note_on_c, 7, 68, 100
9, 45239, Note_on_c, 7, 68, 0
9, 45240, Note_on_c, 7, 68, 100
9, 45359, Note_on_c, 7, 68, 0
9, 45360, Note_on_c, 7, 68, 100
9, 45479, Note_on_c, 7, 68, 0
9, 45600, Note_on_c, 7, 67, 100
9, 45659, Note_on_c, 7, 67, 0
9, 45660, Note_on_c, 7, 67, 100
9, 45719, Note_on_c, 7, 67, 0
9, 45720, Note_on_c, 7, 67, 100
9, 45779, Note_on_c, 7, 67, 0
9, 45780, Note_on_c, 7, 67, 100
9, 45899, Note_on_c, 7, 67, 0
9, 45900, Note_on_c, 7, 67, 100
9, 45959, Note_on_c, 7, 67, 0
9, 45960, Note_on_c, 7, 67, 100
9, 46019, Note_on_c, 7, 67, 0
9, 46020, Note_on_c, 7, 67, 100
9, 46079, Note_on_c, 7, 67, 0
9, 46080, Note_on_c, 7, 67, 100
9, 46199, Note_on_c, 7, 67, 0
9, 46200, Note_on_c, 7, 65, 100
9, 46319, Note_on_c, 7, 65, 0
9, 46320, Note_on_c, 7, 65, 100
9, 46439, Note_on_c, 7, 65, 0
9, 46560, Note_on_c, 7, 65, 100
9, 46679, Note_on_c, 7, 65, 0
9, 46740, Note_on_c, 7, 65, 100
9, 46919, Note_on_c, 7, 65, 0
9, 46920, Note_on_c, 7, 65, 100
9, 46980, Note_on_c, 7, 65, 0
9, 46980, Note_on_c, 7, 65, 100
9, 47159, Note_on_c, 7, 65, 0
9, 47160, Note_on_c, 7, 65, 100
9, 47279, Note_on_c, 7, 65, 0
9, 47280, Note_on_c, 7, 65, 100
9, 47399, Note_on_c, 7, 65, 0
9, 47520, Note_on_c, 7, 67, 100
9, 47700, Note_on_c, 7, 67, 0
9, 47700, Note_on_c, 7, 67, 100
9, 47879, Note_on_c, 7, 67, 0
9, 47880, Note_on_c, 7, 67, 100
9, 47939, Note_on_c, 7, 67, 0
9, 47940, Note_on_c, 7, 67, 100
9, 48000, Note_on_c, 7, 67, 0
9, 48000, Note_on_c, 7, 67, 100
9, 48060, Note_on_c, 7, 67, 0
9, 48060, Note_on_c, 7, 67, 100
9, 48120, Note_on_c, 7, 67, 0
9, 48120, Note_on_c, 7, 67, 100
9, 48240, Note_on_c, 7, 67, 0
9, 48240, Note_on_c, 7, 67, 100
9, 48359, Note_on_c, 7, 67, 0
9, 48480, Note_on_c, 7, 68, 100
9, 48540, Note_on_c, 7, 68, 0
9, 48540, Note_on_c, 7, 68, 100
9, 48659, Note_on_c, 7, 68, 0
9, 48660, Note_on_c, 7, 68, 100
9, 48840, Note_on_c, 7, 68, 0
9, 48840, Note_on_c, 7, 68, 100
9, 48899, Note_on_c, 7, 68, 0
9, 48900, Note_on_c, 7, 68, 100
9, 49079, Note_on_c, 7, 68, 0
9, 49080, Note_on_c, 7, 68, 100
9, 49199, Note_on_c, 7, 68, 0
9, 49200, Note_on_c, 7, 68, 100
9, 49319, Note_on_c, 7, 68, 0
9, 49440, Note_on_c, 7, 67, 100
9, 49499, Note_on_c, 7, 67, 0
9, 49500, Note_on_c, 7, 67, 100
9, 49559, Note_on_c, 7, 67, 0
9, 49560, Note_on_c, 7, 67, 100
9, 49619, Note_on_c, 7, 67, 0
9, 49620, Note_on_c, 7, 67, 100
9, 49739, Note_on_c, 7, 67, 0
9, 49740, Note_on_c, 7, 67, 100
9, 49799, Note_on_c, 7, 67, 0
9, 49800, Note_on_c, 7, 67, 100
9, 49859, Note_on_c, 7, 67, 0
9, 49860, Note_on_c, 7, 67, 100
9, 49919, Note_on_c, 7, 67, 0
9, 49920, Note_on_c, 7, 67, 100
9, 50039, Note_on_c, 7, 67, 0
9, 50040, Note_on_c, 7, 65, 100
9, 50159, Note_on_c, 7, 65, 0
9, 50160, Note_on_c, 7, 65, 100
9, 50279, Note_on_c, 7, 65, 0
9, 61920, Note_on_c, 7, 65, 100
9, 62039, Note_on_c, 7, 65, 0
9, 62100, Note_on_c, 7, 65, 100
9, 62279, Note_on_c, 7, 65, 0
9, 62340, Note_on_c, 7, 65, 100
9, 62519, Note_on_c, 7, 65, 0
9, 62520, Note_on_c, 7, 65, 100
9, 62639, Note_on_c, 7, 65, 0
9, 62640, Note_on_c, 7, 65, 100
9, 62759, Note_on_c, 7, 65, 0
9, 62880, Note_on_c, 7, 67, 100
9, 62999, Note_on_c, 7, 67, 0
9, 63000, Note_on_c, 7, 67, 100
9, 63059, Note_on_c, 7, 67, 0
9, 63060, Note_on_c, 7, 67, 100
9, 63239, Note_on_c, 7, 67, 0
9, 63240, Note_on_c, 7, 67, 100
9, 63299, Note_on_c, 7, 67, 0
9, 63300, Note_on_c, 7, 67, 100
9, 63419, Note_on_c, 7, 67, 0
9, 63420, Note_on_c, 7, 67, 100
9, 63539, Note_on_c, 7, 67, 0
9, 63540, Note_on_c, 7, 67, 100
9, 63599, Note_on_c, 7, 67, 0
9, 63600, Note_on_c, 7, 67, 100
9, 63719, Note_on_c, 7, 67, 0
9, 63840, Note_on_c, 7, 68, 100
9, 63959, Note_on_c, 7, 68, 0
9, 63960, Note_on_c, 7, 68, 100
9, 64019, Note_on_c, 7, 68, 0
9, 64020, Note_on_c, 7, 68, 100
9, 64139, Note_on_c, 7, 68, 0
9, 64140, Note_on_c, 7, 68, 100
9, 64199, Note_on_c, 7, 68, 0
9, 64200, Note_on_c, 7, 68, 100
9, 64259, Note_on_c, 7, 68, 0
9, 64260, Note_on_c, 7, 68, 100
9, 64439, Note_on_c, 7, 68, 0
9, 64440, Note_on_c, 7, 68, 100
9, 64559, Note_on_c, 7, 68, 0
9, 64560, Note_on_c, 7, 68, 100
9, 64679, Note_on_c, 7, 68, 0
9, 64800, Note_on_c, 7, 67, 100
9, 64859, Note_on_c, 7, 67, 0
9, 64860, Note_on_c, 7, 67, 100
9, 64919, Note_on_c, 7, 67, 0
9, 64920, Note_on_c, 7, 67, 100
9, 64979, Note_on_c, 7, 67, 0
9, 64980, Note_on_c, 7, 67, 100
9, 65099, Note_on_c, 7, 67, 0
9, 65100, Note_on_c, 7, 67, 100
9, 65159, Note_on_c, 7, 67, 0
9, 65160, Note_on_c, 7, 67, 100
9, 65219, Note_on_c, 7, 67, 0
9, 65220, Note_on_c, 7, 67, 100
9, 65279, Note_on_c, 7, 67, 0
9, 65280, Note_on_c, 7, 67, 100
9, 65399, Note_on_c, 7, 67, 0
9, 65400, Note_on_c, 7, 65, 100
9, 65519, Note_on_c, 7, 65, 0
9, 65520, Note_on_c, 7, 65, 100
9, 65639, Note_on_c, 7, 65, 0
9, 65760, Note_on_c, 7, 65, 100
9, 65879, Note_on_c, 7, 65, 0
9, 65940, Note_on_c, 7, 65, 100
9, 66119, Note_on_c, 7, 65, 0
9, 66120, Note_on_c, 7, 65, 100
9, 66180, Note_on_c, 7, 65, 0
9, 66180, Note_on_c, 7, 65, 100
9, 66359, Note_on_c, 7, 65, 0
9, 66360, Note_on_c, 7, 65, 100
9, 66479, Note_on_c, 7, 65, 0
9, 66480, Note_on_c, 7, 65, 100
9, 66599, Note_on_c, 7, 65, 0
9, 66720, Note_on_c, 7, 67, 100
9, 66900, Note_on_c, 7, 67, 0
9, 66900, Note_on_c, 7, 67, 100
9, 67079, Note_on_c, 7, 67, 0
9, 67080, Note_on_c, 7, 67, 100
9, 67139, Note_on_c, 7, 67, 0
9, 67140, Note_on_c, 7, 67, 100
9, 67200, Note_on_c, 7, 67, 0
9, 67200, Note_on_c, 7, 67, 100
9, 67260, Note_on_c, 7, 67, 0
9, 67260, Note_on_c, 7, 67, 100
9, 67320, Note_on_c, 7, 67, 0
9, 67320, Note_on_c, 7, 67, 100
9, 67440, Note_on_c, 7, 67, 0
9, 67440, Note_on_c, 7, 67, 100
9, 67559, Note_on_c, 7, 67, 0
9, 67680, Note_on_c, 7, 68, 100
9, 67740, Note_on_c, 7, 68, 0
9, 67740, Note_on_c, 7, 68, 100
9, 67859, Note_on_c, 7, 68, 0
9, 67860, Note_on_c, 7, 68, 100
9, 68040, Note_on_c, 7, 68, 0
9, 68040, Note_on_c, 7, 68, 100
9, 68099, Note_on_c, 7, 68, 0
9, 68100, Note_on_c, 7, 68, 100
9, 68279, Note_on_c, 7, 68, 0
9, 68280, Note_on_c, 7, 68, 100
9, 68399, Note_on_c, 7, 68, 0
9, 68400, Note_on_c, 7, 68, 100
9, 68519, Note_on_c, 7, 68, 0
9, 68640, Note_on_c, 7, 67, 100
9, 68699, Note_on_c, 7, 67, 0
9, 68700, Note_on_c, 7, 67, 100
9, 68759, Note_on_c, 7, 67, 0
9, 68760, Note_on_c, 7, 67, 100
9, 68819, Note_on_c, 7, 67, 0
9, 68820, Note_on_c, 7, 67, 100
9, 68939, Note_on_c, 7, 67, 0
9, 68940, Note_on_c, 7, 67, 100
9, 68999, Note_on_c, 7, 67, 0
9, 69000, Note_on_c, 7, 67, 100
9, 69059, Note_on_c, 7, 67, 0
9, 69060, Note_on_c, 7, 67, 100
9, 69119, Note_on_c, 7, 67, 0
9, 69120, Note_on_c, 7, 67, 100
9, 69239, Note_on_c, 7, 67, 0
9, 69240, Note_on_c, 7, 65, 100
9, 69359, Note_on_c, 7, 65, 0
9, 69360, Note_on_c, 7, 65, 100
9, 69479, Note_on_c, 7, 65, 0
9, 69479, End_track
0, 0, End_of_file
