0, 0, Header, 1, 2, 960
1, 0, Start_track
1, 0, Control_c, 0, 101, 0
1, 0, Control_c, 0, 100, 0
1, 0, Control_c, 0, 6, 12
1, 0, Control_c, 0, 38, 0
1, 0, Control_c, 1, 101, 0
1, 0, Control_c, 1, 100, 0
1, 0, Control_c, 1, 6, 12
1, 0, Control_c, 1, 38, 0
1, 0, Control_c, 2, 101, 0
1, 0, Control_c, 2, 100, 0
1, 0, Control_c, 2, 6, 12
1, 0, Control_c, 2, 38, 0
1, 0, Control_c, 3, 101, 0
1, 0, Control_c, 3, 100, 0
1, 0, Control_c, 3, 6, 12
1, 0, Control_c, 3, 38, 0
1, 0, Control_c, 4, 101, 0
1, 0, Control_c, 4, 100, 0
1, 0, Control_c, 4, 6, 12
1, 0, Control_c, 4, 38, 0
1, 0, Control_c, 5, 101, 0
1, 0, Control_c, 5, 100, 0
1, 0, Control_c, 5, 6, 12
1, 0, Control_c, 5, 38, 0
1, 0, Control_c, 6, 101, 0
1, 0, Control_c, 6, 100, 0
1, 0, Control_c, 6, 6, 12
1, 0, Control_c, 6, 38, 0
1, 0, Control_c, 7, 101, 0
1, 0, Control_c, 7, 100, 0
1, 0, Control_c, 7, 6, 12
1, 0, Control_c, 7, 38, 0
1, 0, Control_c, 8, 101, 0
1, 0, Control_c, 8, 100, 0
1, 0, Control_c, 8, 6, 12
1, 0, Control_c, 8, 38, 0
1, 0, Control_c, 9, 101, 0
1, 0, Control_c, 9, 100, 0
1, 0, Control_c, 9, 6, 12
1, 0, Control_c, 9, 38, 0
1, 0, Control_c, 10, 101, 0
1, 0, Control_c, 10, 100, 0
1, 0, Control_c, 10, 6, 12
1, 0, Control_c, 10, 38, 0
1, 0, Control_c, 11, 101, 0
1, 0, Control_c, 11, 100, 0
1, 0, Control_c, 11, 6, 12
1, 0, Control_c, 11, 38, 0
1, 0, Control_c, 12, 101, 0
1, 0, Control_c, 12, 100, 0
1, 0, Control_c, 12, 6, 12
1, 0, Control_c, 12, 38, 0
1, 0, Control_c, 13, 101, 0
1, 0, Control_c, 13, 100, 0
1, 0, Control_c, 13, 6, 12
1, 0, Control_c, 13, 38, 0
1, 0, Control_c, 14, 101, 0
1, 0, Control_c, 14, 100, 0
1, 0, Control_c, 14, 6, 12
1, 0, Control_c, 14, 38, 0
1, 0, Control_c, 15, 101, 0
1, 0, Control_c, 15, 100, 0
1, 0, Control_c, 15, 6, 12
1, 0, Control_c, 15, 38, 0
1, 0, Time_signature, 4, 2, 24, 8
1, 0, Tempo, 612244
1, 0, End_track
2, 0, Start_track
2, 0, Pitch_bend_c, 0, 8192
2, 0, Control_c, 0, 7, 103
2, 0, Control_c, 0, 10, 63
2, 0, Control_c, 0, 93, 0
2, 0, Control_c, 0, 91, 0
2, 0, Control_c, 0, 95, 0
2, 0, Control_c, 0, 92, 0
2, 0, Control_c, 0, 11, 127
2, 0, Program_c, 0, 24
2, 0, Control_c, 1, 7, 103
2, 0, Control_c, 1, 10, 63
2, 0, Control_c, 1, 93, 0
2, 0, Control_c, 1, 91, 0
2, 0, Control_c, 1, 95, 0
2, 0, Control_c, 1, 92, 0
2, 0, Control_c, 1, 11, 127
2, 0, Program_c, 1, 24
2, 3360, Note_on_c, 0, 61, 95
2, 3360, Note_on_c, 0, 45, 95
2, 3840, Note_off_c, 0, 61, 95
2, 3840, Note_off_c, 0, 45, 95
2, 3840, Note_on_c, 0, 64, 95
2, 3840, Note_on_c, 0, 64, 95
2, 4320, Note_off_c, 0, 64, 95
2, 4320, Note_off_c, 0, 64, 95
2, 4320, Note_on_c, 0, 61, 95
2, 4320, Note_on_c, 0, 55, 95
2, 4800, Note_off_c, 0, 61, 95
2, 4800, Note_off_c, 0, 55, 95
2, 4800, Note_on_c, 0, 64, 95
2, 4800, Note_on_c, 0, 64, 95
2, 4800, Note_on_c, 0, 61, 95
2, 4800, Note_on_c, 0, 55, 95
2, 5760, Note_off_c, 0, 64, 95
2, 5760, Note_off_c, 0, 64, 95
2, 5760, Note_off_c, 0, 61, 95
2, 5760, Note_off_c, 0, 55, 95
2, 5760, Note_on_c, 0, 64, 95
2, 5760, Note_on_c, 0, 61, 95
2, 5760, Note_on_c, 0, 55, 47
2, 6240, Note_off_c, 0, 64, 95
2, 6240, Note_off_c, 0, 61, 95
2, 6240, Note_off_c, 0, 55, 47
2, 6240, Note_on_c, 0, 64, 95
2, 6240, Note_on_c, 0, 64, 95
2, 6720, Note_off_c, 0, 64, 95
2, 6720, Note_off_c, 0, 64, 95
2, 6720, Note_on_c, 0, 64, 95
2, 6720, Note_on_c, 0, 64, 95
2, 6720, Note_on_c, 0, 61, 95
2, 6720, Note_on_c, 0, 55, 95
2, 7200, Note_off_c, 0, 64, 95
2, 7200, Note_off_c, 0, 64, 95
2, 7200, Note_off_c, 0, 61, 95
2, 7200, Note_off_c, 0, 55, 95
2, 7200, Note_on_c, 0, 45, 95
2, 7680, Note_off_c, 0, 45, 95
2, 7680, Note_on_c, 0, 63, 95
2, 7680, Note_on_c, 0, 60, 95
2, 7680, Note_on_c, 0, 54, 95
2, 8160, Note_off_c, 0, 63, 95
2, 8160, Note_off_c, 0, 60, 95
2, 8160, Note_off_c, 0, 54, 95
2, 8160, Note_on_c, 0, 64, 95
2, 8160, Note_on_c, 0, 63, 95
2, 8640, Note_off_c, 0, 64, 95
2, 8640, Note_off_c, 0, 63, 95
2, 8640, Note_on_c, 0, 63, 95
2, 8640, Note_on_c, 0, 60, 95
2, 8640, Note_on_c, 0, 54, 95
2, 9120, Note_off_c, 0, 63, 95
2, 9120, Note_off_c, 0, 60, 95
2, 9120, Note_off_c, 0, 54, 95
2, 9120, Note_on_c, 0, 45, 95
2, 9600, Note_off_c, 0, 45, 95
2, 9600, Note_on_c, 0, 62, 95
2, 9600, Note_on_c, 0, 59, 95
2, 10080, Note_off_c, 0, 62, 95
2, 10080, Note_off_c, 0, 59, 95
2, 10080, Note_on_c, 0, 64, 95
2, 10080, Note_on_c, 0, 62, 95
2, 10560, Note_off_c, 0, 64, 95
2, 10560, Note_off_c, 0, 62, 95
2, 10560, Note_on_c, 0, 62, 95
2, 10560, Note_on_c, 0, 59, 95
2, 11040, Note_off_c, 0, 62, 95
2, 11040, Note_off_c, 0, 59, 95
2, 11040, Note_on_c, 0, 45, 95
2, 11520, Note_off_c, 0, 45, 95
2, 11520, Note_on_c, 0, 61, 95
2, 11520, Note_on_c, 0, 57, 95
2, 12000, Note_off_c, 0, 61, 95
2, 12000, Note_off_c, 0, 57, 95
2, 12000, Note_on_c, 0, 69, 95
2, 12000, Note_on_c, 0, 61, 95
2, 12480, Note_off_c, 0, 69, 95
2, 12480, Note_off_c, 0, 61, 95
2, 12480, Note_on_c, 0, 40, 95
2, 12960, Note_off_c, 0, 40, 95
2, 12960, Note_on_c, 0, 40, 95
2, 13320, Note_on_c, 1, 50, 95
2, 13440, Note_off_c, 0, 40, 95
2, 13440, Note_off_c, 1, 50, 95
2, 13440, Note_on_c, 1, 51, 95
2, 13920, Note_off_c, 1, 51, 95
2, 13920, Note_on_c, 0, 59, 95
2, 14400, Note_off_c, 0, 59, 95
2, 14400, Note_on_c, 0, 58, 95
2, 14400, Note_on_c, 0, 47, 95
2, 14880, Note_off_c, 0, 58, 95
2, 14880, Note_off_c, 0, 47, 95
2, 14880, Note_on_c, 0, 57, 95
2, 14880, Note_on_c, 0, 45, 95
2, 15360, Note_off_c, 0, 57, 95
2, 15360, Note_off_c, 0, 45, 95
2, 15360, Note_on_c, 0, 57, 95
2, 15360, Note_on_c, 0, 45, 95
2, 15840, Note_off_c, 0, 57, 95
2, 15840, Note_off_c, 0, 45, 95
2, 15840, Note_on_c, 0, 45, 95
2, 16320, Note_off_c, 0, 45, 95
2, 16320, Note_on_c, 0, 69, 95
2, 16320, Note_on_c, 0, 61, 95
2, 16800, Note_off_c, 0, 69, 95
2, 16800, Note_off_c, 0, 61, 95
2, 16800, Note_on_c, 0, 69, 95
2, 16800, Note_on_c, 0, 61, 95
2, 17280, Note_off_c, 0, 69, 95
2, 17280, Note_off_c, 0, 61, 95
2, 17280, Note_on_c, 0, 45, 95
2, 17760, Note_off_c, 0, 45, 95
2, 17760, Note_on_c, 0, 69, 95
2, 17760, Note_on_c, 0, 61, 95
2, 17760, Note_on_c, 0, 57, 95
2, 18240, Note_off_c, 0, 69, 95
2, 18240, Note_off_c, 0, 61, 95
2, 18240, Note_off_c, 0, 57, 95
2, 18240, Note_on_c, 0, 64, 95
2, 18240, Note_on_c, 0, 59, 95
2, 18240, Note_on_c, 0, 55, 95
2, 18289, Note_off_c, 0, 64, 95
2, 18289, Note_off_c, 0, 59, 95
2, 18289, Note_off_c, 0, 55, 95
2, 18720, Note_on_c, 0, 45, 95
2, 19200, Note_off_c, 0, 45, 95
2, 19200, Note_on_c, 0, 64, 95
2, 19200, Note_on_c, 0, 61, 95
2, 19680, Note_off_c, 0, 64, 95
2, 19680, Note_off_c, 0, 61, 95
2, 19680, Note_on_c, 0, 64, 95
2, 19680, Note_on_c, 0, 64, 95
2, 20160, Note_off_c, 0, 64, 95
2, 20160, Note_off_c, 0, 64, 95
2, 20160, Note_on_c, 0, 64, 95
2, 20160, Note_on_c, 0, 61, 95
2, 20160, Note_on_c, 0, 55, 95
2, 20640, Note_off_c, 0, 64, 95
2, 20640, Note_off_c, 0, 61, 95
2, 20640, Note_off_c, 0, 55, 95
2, 20640, Note_on_c, 0, 45, 95
2, 21120, Note_off_c, 0, 45, 95
2, 21120, Note_on_c, 0, 64, 95
2, 21120, Note_on_c, 0, 61, 95
2, 21600, Note_off_c, 0, 64, 95
2, 21600, Note_off_c, 0, 61, 95
2, 21600, Note_on_c, 0, 64, 95
2, 22080, Note_off_c, 0, 64, 95
2, 22560, Note_on_c, 0, 44, 95
2, 23040, Note_off_c, 0, 44, 95
2, 23040, Note_on_c, 0, 64, 95
2, 23040, Note_on_c, 0, 59, 95
2, 23520, Note_off_c, 0, 64, 95
2, 23520, Note_off_c, 0, 59, 95
2, 23520, Note_on_c, 0, 68, 95
2, 23520, Note_on_c, 0, 64, 95
2, 24000, Note_off_c, 0, 68, 95
2, 24000, Note_off_c, 0, 64, 95
2, 24000, Note_on_c, 0, 64, 95
2, 24000, Note_on_c, 0, 44, 95
2, 24480, Note_off_c, 0, 64, 95
2, 24480, Note_off_c, 0, 44, 95
2, 24480, Note_on_c, 0, 64, 95
2, 24480, Note_on_c, 0, 59, 95
2, 24960, Note_off_c, 0, 64, 95
2, 24960, Note_off_c, 0, 59, 95
2, 24960, Note_on_c, 0, 68, 95
2, 24960, Note_on_c, 0, 64, 95
2, 24960, Note_on_c, 0, 44, 95
2, 25440, Note_off_c, 0, 68, 95
2, 25440, Note_off_c, 0, 64, 95
2, 25440, Note_off_c, 0, 44, 95
2, 25440, Note_on_c, 0, 64, 95
2, 25440, Note_on_c, 0, 59, 95
2, 25920, Note_off_c, 0, 64, 95
2, 25920, Note_off_c, 0, 59, 95
2, 25920, Note_on_c, 1, 44, 95
2, 26040, Pitch_bend_c, 1, 7936
2, 26160, Pitch_bend_c, 1, 7552
2, 26280, Pitch_bend_c, 1, 7168
2, 26400, Pitch_bend_c, 1, 6784
2, 26400, Pitch_bend_c, 1, 8192
2, 26400, Note_off_c, 1, 44, 95
2, 26400, Note_on_c, 0, 42, 95
2, 26880, Note_off_c, 0, 42, 95
2, 26880, Note_on_c, 0, 42, 95
2, 27360, Note_off_c, 0, 42, 95
2, 27360, Note_on_c, 0, 57, 95
2, 27840, Note_off_c, 0, 57, 95
2, 27840, Note_on_c, 0, 66, 95
2, 27840, Note_on_c, 0, 62, 95
2, 27840, Note_on_c, 0, 42, 95
2, 28320, Note_off_c, 0, 66, 95
2, 28320, Note_off_c, 0, 62, 95
2, 28320, Note_off_c, 0, 42, 95
2, 28320, Note_on_c, 0, 62, 95
2, 28800, Note_off_c, 0, 62, 95
2, 28800, Note_on_c, 0, 42, 95
2, 29280, Note_off_c, 0, 42, 95
2, 29280, Note_on_c, 0, 62, 95
2, 29280, Note_on_c, 0, 57, 95
2, 29760, Note_off_c, 0, 62, 95
2, 29760, Note_off_c, 0, 57, 95
2, 29760, Note_on_c, 0, 42, 95
2, 30240, Note_off_c, 0, 42, 95
2, 30240, Note_on_c, 0, 62, 95
2, 30240, Note_on_c, 0, 57, 95
2, 30720, Note_off_c, 0, 62, 95
2, 30720, Note_off_c, 0, 57, 95
2, 30720, Note_on_c, 0, 42, 95
2, 31200, Note_off_c, 0, 42, 95
2, 31200, Note_on_c, 0, 62, 95
2, 31200, Note_on_c, 0, 57, 95
2, 31680, Note_off_c, 0, 62, 95
2, 31680, Note_off_c, 0, 57, 95
2, 31680, Note_on_c, 0, 42, 95
2, 32160, Note_off_c, 0, 42, 95
2, 32160, Note_on_c, 0, 62, 95
2, 32160, Note_on_c, 0, 57, 95
2, 32640, Note_off_c, 0, 62, 95
2, 32640, Note_off_c, 0, 57, 95
2, 32640, Note_on_c, 0, 42, 95
2, 33120, Note_off_c, 0, 42, 95
2, 33120, Note_on_c, 0, 62, 95
2, 33120, Note_on_c, 0, 57, 95
2, 33600, Note_off_c, 0, 62, 95
2, 33600, Note_off_c, 0, 57, 95
2, 33600, Note_on_c, 0, 42, 95
2, 34080, Note_off_c, 0, 42, 95
2, 34080, Note_on_c, 0, 57, 95
2, 34560, Note_off_c, 0, 57, 95
2, 34560, Note_on_c, 0, 45, 95
2, 35040, Note_off_c, 0, 45, 95
2, 35040, Note_on_c, 0, 69, 95
2, 35520, Note_off_c, 0, 69, 95
2, 35520, Note_on_c, 0, 45, 95
2, 36000, Note_off_c, 0, 45, 95
2, 36000, Note_on_c, 0, 61, 95
2, 36480, Note_off_c, 0, 61, 95
2, 36480, Note_on_c, 0, 45, 95
2, 36960, Note_off_c, 0, 45, 95
2, 36960, Note_on_c, 0, 57, 95
2, 37440, Note_off_c, 0, 57, 95
2, 37440, Note_on_c, 0, 40, 95
2, 37760, Note_off_c, 0, 40, 95
2, 38080, Note_on_c, 0, 55, 95
2, 38240, Note_off_c, 0, 55, 95
2, 38240, Note_on_c, 0, 56, 70
2, 38400, Note_off_c, 0, 56, 70
2, 38400, Note_on_c, 0, 64, 95
2, 38400, Note_on_c, 0, 56, 47
2, 38400, Note_on_c, 0, 40, 47
2, 38880, Note_off_c, 0, 64, 95
2, 38880, Note_off_c, 0, 56, 47
2, 38880, Note_off_c, 0, 40, 47
2, 38880, Note_on_c, 0, 59, 95
2, 39360, Note_off_c, 0, 59, 95
2, 39360, Note_on_c, 0, 62, 95
2, 39360, Note_on_c, 0, 40, 95
2, 39840, Note_off_c, 0, 62, 95
2, 39840, Note_off_c, 0, 40, 95
2, 39840, Note_on_c, 0, 64, 95
2, 40320, Note_on_c, 0, 40, 95
2, 40800, Note_off_c, 0, 64, 95
2, 40800, Note_off_c, 0, 40, 95
2, 40800, Note_on_c, 0, 62, 95
2, 41280, Note_off_c, 0, 62, 95
2, 41280, Note_on_c, 0, 40, 95
2, 41760, Note_off_c, 0, 40, 95
2, 41760, Note_on_c, 0, 57, 95
2, 42240, Note_off_c, 0, 57, 95
2, 42240, Note_on_c, 0, 45, 95
2, 42720, Note_off_c, 0, 45, 95
2, 42720, Note_on_c, 0, 61, 95
2, 43200, Note_off_c, 0, 61, 95
2, 43200, Note_on_c, 0, 69, 95
2, 43200, Note_on_c, 0, 45, 95
2, 43680, Note_off_c, 0, 69, 95
2, 43680, Note_off_c, 0, 45, 95
2, 43680, Note_on_c, 0, 40, 95
2, 44040, Note_on_c, 1, 55, 95
2, 44160, Note_off_c, 0, 40, 95
2, 44160, Note_off_c, 1, 55, 95
2, 44160, Note_on_c, 1, 56, 95
2, 44640, Note_off_c, 1, 56, 95
2, 44640, Note_on_c, 0, 64, 95
2, 45120, Note_off_c, 0, 64, 95
2, 45120, Note_on_c, 0, 62, 95
2, 45120, Note_on_c, 0, 52, 95
2, 45600, Note_off_c, 0, 62, 95
2, 45600, Note_off_c, 0, 52, 95
2, 45600, Note_on_c, 0, 61, 95
2, 45600, Note_on_c, 0, 45, 47
2, 46080, Note_off_c, 0, 61, 95
2, 46080, Note_off_c, 0, 45, 47
2, 46080, Note_on_c, 0, 57, 95
2, 46080, Note_on_c, 0, 45, 95
2, 46560, Note_off_c, 0, 57, 95
2, 46560, Note_off_c, 0, 45, 95
2, 46560, Note_on_c, 0, 45, 95
2, 47040, Note_off_c, 0, 45, 95
2, 47040, Note_on_c, 0, 69, 95
2, 47040, Note_on_c, 0, 61, 95
2, 47520, Note_off_c, 0, 69, 95
2, 47520, Note_off_c, 0, 61, 95
2, 47520, Note_on_c, 0, 69, 95
2, 47520, Note_on_c, 0, 61, 95
2, 48000, Note_off_c, 0, 69, 95
2, 48000, Note_off_c, 0, 61, 95
2, 48000, Note_on_c, 0, 45, 95
2, 48480, Note_off_c, 0, 45, 95
2, 48480, Note_on_c, 0, 69, 95
2, 48480, Note_on_c, 0, 61, 95
2, 48960, Note_off_c, 0, 69, 95
2, 48960, Note_off_c, 0, 61, 95
2, 48960, Note_on_c, 0, 45, 95
2, 49440, Note_off_c, 0, 45, 95
2, 49440, Note_on_c, 0, 45, 47
2, 49920, Note_off_c, 0, 45, 47
2, 49920, Note_on_c, 0, 45, 95
2, 50400, Note_off_c, 0, 45, 95
2, 50400, Note_on_c, 0, 64, 95
2, 50400, Note_on_c, 0, 61, 95
2, 50880, Note_off_c, 0, 64, 95
2, 50880, Note_off_c, 0, 61, 95
2, 50880, Note_on_c, 0, 64, 95
2, 50880, Note_on_c, 0, 64, 95
2, 50880, Note_on_c, 0, 61, 95
2, 51360, Note_off_c, 0, 64, 95
2, 51360, Note_off_c, 0, 64, 95
2, 51360, Note_off_c, 0, 61, 95
2, 51360, Note_on_c, 0, 45, 95
2, 51840, Note_off_c, 0, 45, 95
2, 51840, Note_on_c, 0, 64, 95
2, 51840, Note_on_c, 0, 61, 95
2, 52320, Note_off_c, 0, 64, 95
2, 52320, Note_off_c, 0, 61, 95
2, 52320, Note_on_c, 0, 64, 95
2, 52320, Note_on_c, 0, 64, 95
2, 52320, Note_on_c, 0, 61, 95
2, 52800, Note_off_c, 0, 64, 95
2, 52800, Note_off_c, 0, 64, 95
2, 52800, Note_off_c, 0, 61, 95
2, 52800, Note_on_c, 0, 45, 95
2, 53280, Note_off_c, 0, 45, 95
2, 53280, Note_on_c, 0, 44, 95
2, 53760, Note_off_c, 0, 44, 95
2, 53760, Note_on_c, 0, 64, 47
2, 53760, Note_on_c, 0, 59, 95
2, 54240, Note_off_c, 0, 64, 47
2, 54240, Note_off_c, 0, 59, 95
2, 54240, Note_on_c, 0, 68, 95
2, 54240, Note_on_c, 0, 64, 95
2, 54240, Note_on_c, 0, 59, 95
2, 54720, Note_off_c, 0, 68, 95
2, 54720, Note_off_c, 0, 64, 95
2, 54720, Note_off_c, 0, 59, 95
2, 55200, Note_on_c, 0, 64, 95
2, 55200, Note_on_c, 0, 59, 95
2, 55680, Note_off_c, 0, 64, 95
2, 55680, Note_off_c, 0, 59, 95
2, 55680, Note_on_c, 0, 68, 95
2, 55680, Note_on_c, 0, 64, 95
2, 56160, Note_off_c, 0, 68, 95
2, 56160, Note_off_c, 0, 64, 95
2, 56160, Note_on_c, 0, 64, 95
2, 56160, Note_on_c, 0, 59, 95
2, 57120, Note_off_c, 0, 64, 95
2, 57120, Note_off_c, 0, 59, 95
2, 57120, Note_on_c, 0, 42, 95
2, 58080, Note_off_c, 0, 42, 95
2, 58080, Note_on_c, 0, 62, 95
2, 58080, Note_on_c, 0, 57, 95
2, 58560, Note_off_c, 0, 62, 95
2, 58560, Note_off_c, 0, 57, 95
2, 58560, Note_on_c, 0, 66, 95
2, 58560, Note_on_c, 0, 62, 95
2, 59040, Note_off_c, 0, 66, 95
2, 59040, Note_off_c, 0, 62, 95
2, 59040, Note_on_c, 0, 62, 95
2, 59520, Note_off_c, 0, 62, 95
2, 59520, Note_on_c, 0, 42, 95
2, 60000, Note_off_c, 0, 42, 95
2, 60000, Note_on_c, 0, 66, 47
2, 60000, Note_on_c, 0, 62, 47
2, 60480, Note_off_c, 0, 66, 47
2, 60480, Note_off_c, 0, 62, 47
2, 60480, Note_on_c, 0, 66, 95
2, 60480, Note_on_c, 0, 62, 95
2, 60960, Note_off_c, 0, 66, 95
2, 60960, Note_off_c, 0, 62, 95
2, 60960, Note_on_c, 0, 57, 95
2, 61440, Note_off_c, 0, 57, 95
2, 61440, Note_on_c, 0, 57, 47
2, 61440, Note_on_c, 0, 42, 95
2, 61920, Note_off_c, 0, 57, 47
2, 61920, Note_off_c, 0, 42, 95
2, 61920, Note_on_c, 0, 62, 95
2, 61920, Note_on_c, 0, 57, 95
2, 62400, Note_off_c, 0, 62, 95
2, 62400, Note_off_c, 0, 57, 95
2, 62400, Note_on_c, 0, 66, 95
2, 62400, Note_on_c, 0, 62, 95
2, 62880, Note_off_c, 0, 66, 95
2, 62880, Note_off_c, 0, 62, 95
2, 62880, Note_on_c, 0, 62, 95
2, 62880, Note_on_c, 0, 57, 95
2, 63840, Note_off_c, 0, 62, 95
2, 63840, Note_off_c, 0, 57, 95
2, 63840, Note_on_c, 0, 66, 95
2, 63840, Note_on_c, 0, 62, 95
2, 64320, Note_off_c, 0, 66, 95
2, 64320, Note_off_c, 0, 62, 95
2, 64320, Note_on_c, 0, 62, 95
2, 64320, Note_on_c, 0, 57, 95
2, 64800, Note_off_c, 0, 62, 95
2, 64800, Note_off_c, 0, 57, 95
2, 64800, Note_on_c, 0, 57, 95
2, 64800, Note_on_c, 0, 52, 95
2, 64800, Note_on_c, 0, 45, 95
2, 65760, Note_off_c, 0, 57, 95
2, 65760, Note_off_c, 0, 52, 95
2, 65760, Note_off_c, 0, 45, 95
2, 65760, Note_on_c, 0, 61, 95
2, 66240, Note_off_c, 0, 61, 95
2, 66240, Note_on_c, 0, 69, 95
2, 66720, Note_off_c, 0, 69, 95
2, 66720, Note_on_c, 0, 61, 95
2, 67200, Note_on_c, 0, 45, 47
2, 67680, Note_off_c, 0, 61, 95
2, 67680, Note_off_c, 0, 45, 47
2, 67680, Note_on_c, 0, 57, 95
2, 68160, Note_off_c, 0, 57, 95
2, 68640, Note_on_c, 0, 40, 95
2, 69120, Note_off_c, 0, 40, 95
2, 69120, Note_on_c, 0, 56, 95
2, 69600, Note_off_c, 0, 56, 95
2, 69600, Note_on_c, 0, 64, 95
2, 70080, Note_off_c, 0, 64, 95
2, 70080, Note_on_c, 0, 62, 95
2, 70560, Note_off_c, 0, 62, 95
2, 70560, Note_on_c, 0, 64, 95
2, 71040, Note_off_c, 0, 64, 95
2, 71040, Note_on_c, 0, 62, 95
2, 71520, Note_off_c, 0, 62, 95
2, 71520, Note_on_c, 0, 56, 95
2, 72000, Note_off_c, 0, 56, 95
2, 72000, Note_on_c, 0, 62, 95
2, 72480, Note_off_c, 0, 62, 95
2, 72480, Note_on_c, 0, 57, 95
2, 72960, Note_off_c, 0, 57, 95
2, 72960, Note_on_c, 0, 57, 47
2, 72960, Note_on_c, 0, 45, 95
2, 73440, Note_off_c, 0, 57, 47
2, 73440, Note_off_c, 0, 45, 95
2, 73440, Note_on_c, 0, 61, 95
2, 73440, Note_on_c, 0, 57, 95
2, 73920, Note_off_c, 0, 61, 95
2, 73920, Note_off_c, 0, 57, 95
2, 73920, Note_on_c, 0, 69, 95
2, 73920, Note_on_c, 0, 61, 95
2, 74400, Note_off_c, 0, 69, 95
2, 74400, Note_off_c, 0, 61, 95
2, 74400, Note_on_c, 0, 40, 95
2, 74760, Note_on_c, 1, 55, 95
2, 74880, Note_off_c, 0, 40, 95
2, 74880, Note_off_c, 1, 55, 95
2, 74880, Note_on_c, 1, 56, 95
2, 75360, Note_off_c, 1, 56, 95
2, 75360, Note_on_c, 0, 64, 95
2, 75840, Note_off_c, 0, 64, 95
2, 75840, Note_on_c, 0, 62, 95
2, 76320, Note_off_c, 0, 62, 95
2, 76320, Note_on_c, 0, 61, 95
2, 76800, Note_off_c, 0, 61, 95
2, 76800, Note_on_c, 0, 57, 95
2, 77280, Note_off_c, 0, 57, 95
2, 77280, Note_on_c, 0, 45, 95
2, 77760, Note_off_c, 0, 45, 95
2, 77760, Note_on_c, 0, 69, 95
2, 77760, Note_on_c, 0, 61, 95
2, 77760, Note_on_c, 0, 57, 95
2, 78240, Note_off_c, 0, 69, 95
2, 78240, Note_off_c, 0, 61, 95
2, 78240, Note_off_c, 0, 57, 95
2, 78240, Note_on_c, 0, 69, 95
2, 78240, Note_on_c, 0, 61, 95
2, 78240, Note_on_c, 0, 57, 95
2, 78720, Note_off_c, 0, 69, 95
2, 78720, Note_off_c, 0, 61, 95
2, 78720, Note_off_c, 0, 57, 95
2, 78720, Note_on_c, 0, 45, 95
2, 79200, Note_off_c, 0, 45, 95
2, 79200, Note_on_c, 0, 69, 95
2, 79200, Note_on_c, 0, 61, 95
2, 79680, Note_off_c, 0, 69, 95
2, 79680, Note_off_c, 0, 61, 95
2, 80160, Note_on_c, 0, 61, 95
2, 80160, Note_on_c, 0, 57, 95
2, 80640, Note_off_c, 0, 61, 95
2, 80640, Note_off_c, 0, 57, 95
2, 80640, Note_on_c, 0, 45, 95
2, 81120, Note_off_c, 0, 45, 95
2, 81120, Note_on_c, 0, 64, 95
2, 81120, Note_on_c, 0, 64, 95
2, 81120, Note_on_c, 0, 61, 95
2, 81120, Note_on_c, 0, 55, 95
2, 81600, Note_off_c, 0, 64, 95
2, 81600, Note_off_c, 0, 64, 95
2, 81600, Note_off_c, 0, 61, 95
2, 81600, Note_off_c, 0, 55, 95
2, 81600, Note_on_c, 0, 64, 95
2, 81600, Note_on_c, 0, 64, 95
2, 81600, Note_on_c, 0, 61, 95
2, 81600, Note_on_c, 0, 55, 95
2, 82080, Note_off_c, 0, 64, 95
2, 82080, Note_off_c, 0, 64, 95
2, 82080, Note_off_c, 0, 61, 95
2, 82080, Note_off_c, 0, 55, 95
2, 82080, Note_on_c, 0, 64, 95
2, 82080, Note_on_c, 0, 64, 95
2, 82080, Note_on_c, 0, 61, 95
2, 82080, Note_on_c, 0, 55, 95
2, 82560, Note_off_c, 0, 64, 95
2, 82560, Note_off_c, 0, 64, 95
2, 82560, Note_off_c, 0, 61, 95
2, 82560, Note_off_c, 0, 55, 95
2, 82560, Note_on_c, 0, 64, 95
2, 82560, Note_on_c, 0, 64, 95
2, 82560, Note_on_c, 0, 61, 95
2, 82560, Note_on_c, 0, 55, 95
2, 83040, Note_off_c, 0, 64, 95
2, 83040, Note_off_c, 0, 64, 95
2, 83040, Note_off_c, 0, 61, 95
2, 83040, Note_off_c, 0, 55, 95
2, 83040, Note_on_c, 0, 64, 95
2, 83040, Note_on_c, 0, 64, 95
2, 83040, Note_on_c, 0, 61, 95
2, 83040, Note_on_c, 0, 55, 95
2, 83520, Note_off_c, 0, 64, 95
2, 83520, Note_off_c, 0, 64, 95
2, 83520, Note_off_c, 0, 61, 95
2, 83520, Note_off_c, 0, 55, 95
2, 83520, Note_on_c, 0, 45, 95
2, 84000, Note_off_c, 0, 45, 95
2, 84000, Note_on_c, 0, 64, 95
2, 84000, Note_on_c, 0, 59, 95
2, 84000, Note_on_c, 0, 55, 95
2, 84049, Note_off_c, 0, 64, 95
2, 84049, Note_off_c, 0, 59, 95
2, 84049, Note_off_c, 0, 55, 95
2, 84480, Note_on_c, 0, 44, 95
2, 84960, Note_off_c, 0, 44, 95
2, 84960, Note_on_c, 0, 64, 95
2, 84960, Note_on_c, 0, 59, 95
2, 85440, Note_off_c, 0, 64, 95
2, 85440, Note_off_c, 0, 59, 95
2, 85440, Note_on_c, 0, 68, 95
2, 85440, Note_on_c, 0, 64, 95
2, 85440, Note_on_c, 0, 59, 95
2, 85920, Note_off_c, 0, 68, 95
2, 85920, Note_off_c, 0, 64, 95
2, 85920, Note_off_c, 0, 59, 95
2, 85920, Note_on_c, 0, 64, 95
2, 85920, Note_on_c, 0, 59, 95
2, 86880, Note_off_c, 0, 64, 95
2, 86880, Note_off_c, 0, 59, 95
2, 86880, Note_on_c, 0, 64, 95
2, 86880, Note_on_c, 0, 59, 95
2, 87360, Note_off_c, 0, 64, 95
2, 87360, Note_off_c, 0, 59, 95
2, 87360, Note_on_c, 1, 44, 95
2, 87480, Pitch_bend_c, 1, 7936
2, 87600, Pitch_bend_c, 1, 7552
2, 87720, Pitch_bend_c, 1, 7168
2, 87840, Pitch_bend_c, 1, 6784
2, 87840, Pitch_bend_c, 1, 8192
2, 87840, Note_off_c, 1, 44, 95
2, 87840, Note_on_c, 0, 42, 95
2, 88320, Note_off_c, 0, 42, 95
2, 88320, Note_on_c, 0, 42, 95
2, 88800, Note_off_c, 0, 42, 95
2, 88800, Note_on_c, 0, 62, 95
2, 88800, Note_on_c, 0, 57, 95
2, 89280, Note_off_c, 0, 62, 95
2, 89280, Note_off_c, 0, 57, 95
2, 89280, Note_on_c, 0, 66, 95
2, 89280, Note_on_c, 0, 62, 95
2, 89760, Note_off_c, 0, 66, 95
2, 89760, Note_off_c, 0, 62, 95
2, 89760, Note_on_c, 0, 64, 95
2, 89760, Note_on_c, 0, 59, 95
2, 89760, Note_on_c, 0, 55, 95
2, 89809, Note_off_c, 0, 64, 95
2, 89809, Note_off_c, 0, 59, 95
2, 89809, Note_off_c, 0, 55, 95
2, 90240, Note_on_c, 0, 42, 95
2, 90720, Note_off_c, 0, 42, 95
2, 90720, Note_on_c, 0, 62, 95
2, 90720, Note_on_c, 0, 57, 95
2, 91200, Note_off_c, 0, 62, 95
2, 91200, Note_off_c, 0, 57, 95
2, 91200, Note_on_c, 0, 66, 95
2, 91200, Note_on_c, 0, 62, 95
2, 91680, Note_off_c, 0, 66, 95
2, 91680, Note_off_c, 0, 62, 95
2, 91680, Note_on_c, 0, 62, 95
2, 91680, Note_on_c, 0, 57, 95
2, 92160, Note_off_c, 0, 62, 95
2, 92160, Note_off_c, 0, 57, 95
2, 92160, Note_on_c, 0, 62, 47
2, 92480, Note_off_c, 0, 62, 47
2, 92480, Note_on_c, 0, 61, 70
2, 92800, Note_off_c, 0, 61, 70
2, 92800, Note_on_c, 0, 57, 95
2, 93120, Note_off_c, 0, 57, 95
2, 93120, Note_on_c, 0, 66, 95
2, 93120, Note_on_c, 0, 62, 95
2, 93120, Note_on_c, 0, 57, 95
2, 93600, Note_off_c, 0, 66, 95
2, 93600, Note_off_c, 0, 62, 95
2, 93600, Note_off_c, 0, 57, 95
2, 93600, Note_on_c, 0, 62, 95
2, 93600, Note_on_c, 0, 57, 95
2, 94560, Note_off_c, 0, 62, 95
2, 94560, Note_off_c, 0, 57, 95
2, 94560, Note_on_c, 0, 66, 95
2, 94560, Note_on_c, 0, 62, 95
2, 94560, Note_on_c, 0, 57, 95
2, 95520, Note_off_c, 0, 66, 95
2, 95520, Note_off_c, 0, 62, 95
2, 95520, Note_off_c, 0, 57, 95
2, 95520, Note_on_c, 0, 45, 95
2, 96000, Note_off_c, 0, 45, 95
2, 96000, Note_on_c, 0, 52, 95
2, 96000, Note_on_c, 0, 45, 95
2, 96480, Note_off_c, 0, 52, 95
2, 96480, Note_off_c, 0, 45, 95
2, 96480, Note_on_c, 0, 61, 95
2, 96480, Note_on_c, 0, 57, 47
2, 96960, Note_off_c, 0, 61, 95
2, 96960, Note_off_c, 0, 57, 47
2, 96960, Note_on_c, 0, 69, 95
2, 97440, Note_off_c, 0, 69, 95
2, 97440, Note_on_c, 0, 61, 95
2, 97920, Note_on_c, 0, 45, 95
2, 98400, Note_off_c, 0, 61, 95
2, 98400, Note_off_c, 0, 45, 95
2, 98400, Note_on_c, 0, 57, 95
2, 98880, Note_off_c, 0, 57, 95
2, 98880, Note_on_c, 0, 69, 95
2, 99360, Note_off_c, 0, 69, 95
2, 99360, Note_on_c, 0, 55, 95
2, 99360, Note_on_c, 0, 40, 95
2, 99840, Note_off_c, 0, 55, 95
2, 99840, Note_off_c, 0, 40, 95
2, 99840, Note_on_c, 0, 56, 95
2, 99840, Note_on_c, 0, 40, 47
2, 100320, Note_off_c, 0, 56, 95
2, 100320, Note_off_c, 0, 40, 47
2, 100320, Note_on_c, 0, 56, 95
2, 100800, Note_off_c, 0, 56, 95
2, 100800, Note_on_c, 0, 64, 95
2, 101120, Note_off_c, 0, 64, 95
2, 101120, Note_on_c, 0, 56, 95
2, 101440, Note_off_c, 0, 56, 95
2, 101440, Note_on_c, 0, 62, 95
2, 101760, Note_on_c, 0, 40, 47
2, 102240, Note_off_c, 0, 62, 95
2, 102240, Note_off_c, 0, 40, 47
2, 102240, Note_on_c, 0, 62, 95
2, 102240, Note_on_c, 0, 56, 95
2, 102720, Note_off_c, 0, 62, 95
2, 102720, Note_off_c, 0, 56, 95
2, 102720, Note_on_c, 0, 40, 95
2, 103200, Note_off_c, 0, 40, 95
2, 103200, Note_on_c, 0, 52, 95
2, 103200, Note_on_c, 0, 45, 95
2, 104160, Note_off_c, 0, 52, 95
2, 104160, Note_off_c, 0, 45, 95
2, 104160, Note_on_c, 0, 61, 95
2, 104640, Note_off_c, 0, 61, 95
2, 104640, Note_on_c, 0, 69, 95
2, 105120, Note_off_c, 0, 69, 95
2, 105120, Note_on_c, 0, 40, 95
2, 105480, Note_on_c, 1, 55, 95
2, 105600, Note_off_c, 0, 40, 95
2, 105600, Note_off_c, 1, 55, 95
2, 105600, Note_on_c, 1, 56, 95
2, 106080, Note_off_c, 1, 56, 95
2, 106080, Note_on_c, 0, 64, 95
2, 106560, Note_off_c, 0, 64, 95
2, 106560, Note_on_c, 0, 62, 95
2, 107040, Note_off_c, 0, 62, 95
2, 107040, Note_on_c, 0, 61, 95
2, 107520, Note_off_c, 0, 61, 95
2, 107520, Note_on_c, 0, 57, 95
2, 108000, Note_off_c, 0, 57, 95
2, 108000, Note_on_c, 0, 45, 95
2, 108480, Note_off_c, 0, 45, 95
2, 108480, Note_on_c, 0, 69, 95
2, 108960, Note_off_c, 0, 69, 95
2, 108960, Note_on_c, 0, 69, 95
2, 108960, Note_on_c, 0, 61, 95
2, 109920, Note_off_c, 0, 69, 95
2, 109920, Note_off_c, 0, 61, 95
2, 109920, Note_on_c, 0, 69, 95
2, 109920, Note_on_c, 0, 61, 95
2, 110400, Note_off_c, 0, 69, 95
2, 110400, Note_off_c, 0, 61, 95
2, 110400, Note_on_c, 0, 69, 95
2, 110400, Note_on_c, 0, 61, 95
2, 110880, Note_off_c, 0, 69, 95
2, 110880, Note_off_c, 0, 61, 95
2, 111360, Note_on_c, 0, 45, 95
2, 111840, Note_off_c, 0, 45, 95
2, 111840, Note_on_c, 0, 64, 95
2, 111840, Note_on_c, 0, 61, 95
2, 112320, Note_off_c, 0, 64, 95
2, 112320, Note_off_c, 0, 61, 95
2, 112320, Note_on_c, 0, 64, 95
2, 112320, Note_on_c, 0, 64, 95
2, 112320, Note_on_c, 0, 61, 95
2, 112800, Note_off_c, 0, 64, 95
2, 112800, Note_off_c, 0, 64, 95
2, 112800, Note_off_c, 0, 61, 95
2, 112800, Note_on_c, 0, 64, 95
2, 112800, Note_on_c, 0, 64, 95
2, 112800, Note_on_c, 0, 61, 95
2, 113280, Note_off_c, 0, 64, 95
2, 113280, Note_off_c, 0, 64, 95
2, 113280, Note_off_c, 0, 61, 95
2, 113280, Note_on_c, 0, 64, 95
2, 113280, Note_on_c, 0, 61, 95
2, 113760, Note_off_c, 0, 64, 95
2, 113760, Note_off_c, 0, 61, 95
2, 113760, Note_on_c, 0, 64, 95
2, 113760, Note_on_c, 0, 61, 95
2, 113760, Note_on_c, 0, 55, 95
2, 115200, Note_off_c, 0, 64, 95
2, 115200, Note_off_c, 0, 61, 95
2, 115200, Note_off_c, 0, 55, 95
2, 115200, Note_on_c, 0, 59, 95
2, 115200, Note_on_c, 0, 44, 95
2, 115680, Note_off_c, 0, 59, 95
2, 115680, Note_off_c, 0, 44, 95
2, 115680, Note_on_c, 0, 68, 95
2, 115680, Note_on_c, 0, 64, 95
2, 116640, Note_off_c, 0, 68, 95
2, 116640, Note_off_c, 0, 64, 95
2, 116640, Note_on_c, 0, 64, 95
2, 116640, Note_on_c, 0, 59, 95
2, 117120, Note_off_c, 0, 64, 95
2, 117120, Note_off_c, 0, 59, 95
2, 117120, Note_on_c, 0, 68, 95
2, 117120, Note_on_c, 0, 64, 95
2, 117120, Note_on_c, 0, 59, 95
2, 117600, Note_off_c, 0, 68, 95
2, 117600, Note_off_c, 0, 64, 95
2, 117600, Note_off_c, 0, 59, 95
2, 117600, Note_on_c, 0, 64, 95
2, 117600, Note_on_c, 0, 64, 95
2, 117600, Note_on_c, 0, 59, 95
2, 118560, Note_off_c, 0, 64, 95
2, 118560, Note_off_c, 0, 64, 95
2, 118560, Note_off_c, 0, 59, 95
2, 119040, Note_on_c, 0, 42, 95
2, 119520, Note_off_c, 0, 42, 95
2, 119520, Note_on_c, 0, 57, 95
2, 120000, Note_off_c, 0, 57, 95
2, 120000, Note_on_c, 0, 66, 95
2, 120000, Note_on_c, 0, 62, 95
2, 120480, Note_off_c, 0, 66, 95
2, 120480, Note_off_c, 0, 62, 95
2, 120480, Note_on_c, 0, 62, 95
2, 120480, Note_on_c, 0, 57, 95
2, 120960, Note_off_c, 0, 62, 95
2, 120960, Note_off_c, 0, 57, 95
2, 120960, Note_on_c, 0, 42, 95
2, 121440, Note_off_c, 0, 42, 95
2, 121440, Note_on_c, 0, 62, 95
2, 121440, Note_on_c, 0, 57, 95
2, 121920, Note_off_c, 0, 62, 95
2, 121920, Note_off_c, 0, 57, 95
2, 122400, Note_on_c, 0, 62, 95
2, 122400, Note_on_c, 0, 57, 95
2, 122880, Note_off_c, 0, 62, 95
2, 122880, Note_off_c, 0, 57, 95
2, 122880, Note_on_c, 0, 62, 47
2, 122880, Note_on_c, 0, 57, 47
2, 123200, Note_off_c, 0, 62, 47
2, 123200, Note_off_c, 0, 57, 47
2, 123520, Note_on_c, 0, 62, 95
2, 123520, Note_on_c, 0, 57, 95
2, 123840, Note_off_c, 0, 62, 95
2, 123840, Note_off_c, 0, 57, 95
2, 123840, Note_on_c, 0, 66, 95
2, 123840, Note_on_c, 0, 62, 95
2, 123840, Note_on_c, 0, 57, 95
2, 124320, Note_off_c, 0, 66, 95
2, 124320, Note_off_c, 0, 62, 95
2, 124320, Note_off_c, 0, 57, 95
2, 124320, Note_on_c, 0, 62, 95
2, 124320, Note_on_c, 0, 57, 95
2, 125280, Note_off_c, 0, 62, 95
2, 125280, Note_off_c, 0, 57, 95
2, 125280, Note_on_c, 0, 62, 95
2, 125280, Note_on_c, 0, 57, 95
2, 126240, Note_off_c, 0, 62, 95
2, 126240, Note_off_c, 0, 57, 95
2, 126240, Note_on_c, 0, 61, 95
2, 126240, Note_on_c, 0, 57, 95
2, 126720, Note_off_c, 0, 61, 95
2, 126720, Note_off_c, 0, 57, 95
2, 126720, Note_on_c, 0, 45, 95
2, 127200, Note_off_c, 0, 45, 95
2, 127200, Note_on_c, 0, 61, 95
2, 127200, Note_on_c, 0, 57, 95
2, 127680, Note_off_c, 0, 61, 95
2, 127680, Note_off_c, 0, 57, 95
2, 127680, Note_on_c, 0, 69, 95
2, 128160, Note_off_c, 0, 69, 95
2, 128160, Note_on_c, 0, 61, 95
2, 129120, Note_off_c, 0, 61, 95
2, 129120, Note_on_c, 0, 57, 95
2, 130080, Note_off_c, 0, 57, 95
2, 130080, Note_on_c, 0, 55, 95
2, 130080, Note_on_c, 0, 50, 95
2, 130560, Note_off_c, 0, 55, 95
2, 130560, Note_off_c, 0, 50, 95
2, 130560, Note_on_c, 0, 56, 95
2, 131040, Note_off_c, 0, 56, 95
2, 131040, Note_on_c, 0, 64, 95
2, 131520, Note_off_c, 0, 64, 95
2, 131520, Note_on_c, 0, 62, 95
2, 132000, Note_off_c, 0, 62, 95
2, 132000, Note_on_c, 0, 64, 95
2, 132480, Note_off_c, 0, 64, 95
2, 132480, Note_on_c, 0, 62, 95
2, 132800, Note_off_c, 0, 62, 95
2, 132800, Note_on_c, 0, 64, 95
2, 133120, Note_off_c, 0, 64, 95
2, 133120, Note_on_c, 0, 62, 95
2, 133440, Note_off_c, 0, 62, 95
2, 133440, Note_on_c, 0, 56, 95
2, 133920, Note_off_c, 0, 56, 95
2, 133920, Note_on_c, 0, 52, 95
2, 133920, Note_on_c, 0, 45, 95
2, 134400, Note_off_c, 0, 52, 95
2, 134400, Note_off_c, 0, 45, 95
2, 134400, Note_on_c, 0, 57, 47
2, 134400, Note_on_c, 0, 52, 47
2, 134400, Note_on_c, 0, 45, 47
2, 134880, Note_off_c, 0, 57, 47
2, 134880, Note_off_c, 0, 52, 47
2, 134880, Note_off_c, 0, 45, 47
2, 134880, Note_on_c, 0, 69, 95
2, 135360, Note_off_c, 0, 69, 95
2, 135360, Note_on_c, 0, 52, 95
2, 135360, Note_on_c, 0, 45, 95
2, 135720, Note_on_c, 1, 45, 95
2, 135840, Note_off_c, 0, 52, 95
2, 135840, Note_off_c, 0, 45, 95
2, 135840, Note_off_c, 1, 45, 95
2, 135840, Note_on_c, 1, 47, 95
2, 136200, Note_on_c, 1, 55, 95
2, 136320, Note_off_c, 1, 47, 95
2, 136320, Note_off_c, 1, 55, 95
2, 136320, Note_on_c, 1, 56, 95
2, 136800, Note_off_c, 1, 56, 95
2, 136800, Note_on_c, 0, 64, 95
2, 137280, Note_off_c, 0, 64, 95
2, 137280, Note_on_c, 0, 62, 95
2, 137640, Note_on_c, 1, 59, 95
2, 137760, Note_off_c, 0, 62, 95
2, 137760, Note_off_c, 1, 59, 95
2, 137760, Note_on_c, 1, 61, 95
2, 138240, Note_off_c, 1, 61, 95
2, 138240, Note_on_c, 0, 57, 95
2, 138720, Note_off_c, 0, 57, 95
2, 138720, Note_on_c, 0, 45, 95
2, 139200, Note_off_c, 0, 45, 95
2, 139200, Note_on_c, 0, 69, 95
2, 139200, Note_on_c, 0, 45, 95
2, 139680, Note_off_c, 0, 69, 95
2, 139680, Note_off_c, 0, 45, 95
2, 139680, Note_on_c, 0, 69, 95
2, 140160, Note_off_c, 0, 69, 95
2, 140160, Note_on_c, 0, 69, 95
2, 140160, Note_on_c, 0, 45, 47
2, 141120, Note_off_c, 0, 69, 95
2, 141120, Note_off_c, 0, 45, 47
2, 141120, Note_on_c, 0, 45, 47
2, 142080, Note_off_c, 0, 45, 47
2, 142080, Note_on_c, 0, 45, 95
2, 142129, Note_off_c, 0, 45, 95
2, 142560, Note_on_c, 0, 64, 95
2, 142560, Note_on_c, 0, 61, 95
2, 143040, Note_off_c, 0, 64, 95
2, 143040, Note_off_c, 0, 61, 95
2, 143040, Note_on_c, 0, 64, 95
2, 143040, Note_on_c, 0, 64, 95
2, 143040, Note_on_c, 0, 61, 95
2, 143520, Note_off_c, 0, 64, 95
2, 143520, Note_off_c, 0, 64, 95
2, 143520, Note_off_c, 0, 61, 95
2, 143520, Note_on_c, 0, 45, 95
2, 144000, Note_off_c, 0, 45, 95
2, 144000, Note_on_c, 0, 64, 95
2, 144000, Note_on_c, 0, 64, 95
2, 144000, Note_on_c, 0, 61, 95
2, 144480, Note_off_c, 0, 64, 95
2, 144480, Note_off_c, 0, 64, 95
2, 144480, Note_off_c, 0, 61, 95
2, 144480, Note_on_c, 0, 64, 95
2, 144480, Note_on_c, 0, 64, 95
2, 144480, Note_on_c, 0, 61, 95
2, 144960, Note_off_c, 0, 64, 95
2, 144960, Note_off_c, 0, 64, 95
2, 144960, Note_off_c, 0, 61, 95
2, 144960, Note_on_c, 0, 64, 95
2, 144960, Note_on_c, 0, 59, 95
2, 144960, Note_on_c, 0, 55, 95
2, 145009, Note_off_c, 0, 64, 95
2, 145009, Note_off_c, 0, 59, 95
2, 145009, Note_off_c, 0, 55, 95
2, 145440, Note_on_c, 0, 50, 47
2, 145440, Note_on_c, 0, 45, 47
2, 145920, Note_off_c, 0, 50, 47
2, 145920, Note_off_c, 0, 45, 47
2, 145920, Note_on_c, 0, 44, 95
2, 146400, Note_off_c, 0, 44, 95
2, 146400, Note_on_c, 0, 59, 95
2, 146880, Note_off_c, 0, 59, 95
2, 146880, Note_on_c, 0, 68, 95
2, 146880, Note_on_c, 0, 64, 95
2, 147360, Note_off_c, 0, 68, 95
2, 147360, Note_off_c, 0, 64, 95
2, 147360, Note_on_c, 0, 44, 95
2, 147840, Note_off_c, 0, 44, 95
2, 147840, Note_on_c, 0, 64, 95
2, 147840, Note_on_c, 0, 59, 95
2, 148320, Note_off_c, 0, 64, 95
2, 148320, Note_off_c, 0, 59, 95
2, 148320, Note_on_c, 0, 68, 95
2, 148320, Note_on_c, 0, 64, 95
2, 149280, Note_off_c, 0, 68, 95
2, 149280, Note_off_c, 0, 64, 95
2, 149280, Note_on_c, 0, 42, 95
2, 149760, Note_off_c, 0, 42, 95
2, 149760, Note_on_c, 0, 66, 95
2, 149760, Note_on_c, 0, 62, 95
2, 149760, Note_on_c, 0, 57, 95
2, 150240, Note_off_c, 0, 66, 95
2, 150240, Note_off_c, 0, 62, 95
2, 150240, Note_off_c, 0, 57, 95
2, 150720, Note_on_c, 0, 66, 95
2, 150720, Note_on_c, 0, 42, 95
2, 151200, Note_off_c, 0, 66, 95
2, 151200, Note_off_c, 0, 42, 95
2, 151200, Note_on_c, 0, 62, 95
2, 151680, Note_off_c, 0, 62, 95
2, 151680, Note_on_c, 0, 57, 95
2, 151680, Note_on_c, 0, 42, 95
2, 152160, Note_off_c, 0, 57, 95
2, 152160, Note_off_c, 0, 42, 95
2, 152160, Note_on_c, 0, 62, 95
2, 152640, Note_off_c, 0, 62, 95
2, 152640, Note_on_c, 0, 66, 95
2, 153120, Note_off_c, 0, 66, 95
2, 153120, Note_on_c, 0, 62, 95
2, 153600, Note_off_c, 0, 62, 95
2, 153600, Note_on_c, 0, 57, 95
2, 153600, Note_on_c, 0, 42, 95
2, 154080, Note_off_c, 0, 57, 95
2, 154080, Note_off_c, 0, 42, 95
2, 154080, Note_on_c, 0, 62, 95
2, 154080, Note_on_c, 0, 57, 95
2, 154560, Note_off_c, 0, 62, 95
2, 154560, Note_off_c, 0, 57, 95
2, 154560, Note_on_c, 0, 66, 95
2, 154560, Note_on_c, 0, 62, 95
2, 155040, Note_off_c, 0, 66, 95
2, 155040, Note_off_c, 0, 62, 95
2, 155040, Note_on_c, 0, 62, 95
2, 155040, Note_on_c, 0, 57, 95
2, 155520, Note_off_c, 0, 62, 95
2, 155520, Note_off_c, 0, 57, 95
2, 155520, Note_on_c, 0, 42, 95
2, 156000, Note_off_c, 0, 42, 95
2, 156000, Note_on_c, 0, 66, 95
2, 156000, Note_on_c, 0, 62, 95
2, 156000, Note_on_c, 0, 57, 95
2, 156960, Note_off_c, 0, 66, 95
2, 156960, Note_off_c, 0, 62, 95
2, 156960, Note_off_c, 0, 57, 95
2, 156960, Note_on_c, 0, 57, 95
2, 156960, Note_on_c, 0, 52, 95
2, 157440, Note_off_c, 0, 57, 95
2, 157440, Note_off_c, 0, 52, 95
2, 157440, Note_on_c, 0, 45, 95
2, 157920, Note_off_c, 0, 45, 95
2, 157920, Note_on_c, 0, 61, 95
2, 157920, Note_on_c, 0, 57, 95
2, 158400, Note_off_c, 0, 61, 95
2, 158400, Note_off_c, 0, 57, 95
2, 158400, Note_on_c, 0, 69, 95
2, 158880, Note_off_c, 0, 69, 95
2, 158880, Note_on_c, 0, 61, 95
2, 159360, Note_off_c, 0, 61, 95
2, 159360, Note_on_c, 0, 45, 95
2, 159840, Note_off_c, 0, 45, 95
2, 159840, Note_on_c, 0, 69, 47
2, 159840, Note_on_c, 0, 61, 47
2, 160320, Note_off_c, 0, 69, 47
2, 160320, Note_off_c, 0, 61, 47
2, 160320, Note_on_c, 0, 69, 95
2, 160320, Note_on_c, 0, 61, 95
2, 160800, Note_off_c, 0, 69, 95
2, 160800, Note_off_c, 0, 61, 95
2, 160800, Note_on_c, 0, 40, 95
2, 161160, Note_on_c, 1, 55, 95
2, 161280, Note_off_c, 0, 40, 95
2, 161280, Note_off_c, 1, 55, 95
2, 161280, Note_on_c, 1, 56, 95
2, 161760, Note_off_c, 1, 56, 95
2, 161760, Note_on_c, 0, 64, 95
2, 162240, Note_off_c, 0, 64, 95
2, 162240, Note_on_c, 0, 62, 95
2, 162720, Note_off_c, 0, 62, 95
2, 162720, Note_on_c, 0, 64, 95
2, 163680, Note_off_c, 0, 64, 95
2, 163680, Note_on_c, 0, 62, 95
2, 164160, Note_off_c, 0, 62, 95
2, 164160, Note_on_c, 0, 64, 95
2, 164640, Note_off_c, 0, 64, 95
2, 164640, Note_on_c, 0, 57, 95
2, 165120, Note_off_c, 0, 57, 95
2, 165120, Note_on_c, 0, 45, 47
2, 165600, Note_off_c, 0, 45, 47
2, 165600, Note_on_c, 0, 61, 95
2, 166080, Note_off_c, 0, 61, 95
2, 166080, Note_on_c, 0, 69, 95
2, 166080, Note_on_c, 0, 61, 95
2, 166560, Note_off_c, 0, 69, 95
2, 166560, Note_off_c, 0, 61, 95
2, 166560, Note_on_c, 0, 40, 95
2, 166920, Note_on_c, 1, 55, 95
2, 167040, Note_off_c, 0, 40, 95
2, 167040, Note_off_c, 1, 55, 95
2, 167040, Note_on_c, 1, 56, 95
2, 167520, Note_off_c, 1, 56, 95
2, 167520, Note_on_c, 0, 64, 95
2, 168000, Note_off_c, 0, 64, 95
2, 168000, Note_on_c, 0, 62, 95
2, 168480, Note_off_c, 0, 62, 95
2, 168480, Note_on_c, 0, 45, 95
2, 168960, Note_off_c, 0, 45, 95
2, 168960, Note_on_c, 0, 57, 95
2, 169440, Note_off_c, 0, 57, 95
2, 169440, Note_on_c, 0, 61, 95
2, 169920, Note_off_c, 0, 61, 95
2, 169920, Note_on_c, 0, 69, 95
2, 169920, Note_on_c, 0, 61, 95
2, 170400, Note_off_c, 0, 69, 95
2, 170400, Note_off_c, 0, 61, 95
2, 170400, Note_on_c, 0, 69, 95
2, 171360, Note_off_c, 0, 69, 95
2, 171360, Note_on_c, 0, 69, 95
2, 171840, Note_off_c, 0, 69, 95
2, 172320, Note_on_c, 0, 73, 95
2, 172320, Note_on_c, 0, 69, 95
2, 172800, Note_off_c, 0, 73, 95
2, 172800, Note_off_c, 0, 69, 95
2, 172800, Note_on_c, 0, 73, 95
2, 172800, Note_on_c, 0, 69, 95
2, 172800, Note_on_c, 0, 64, 95
2, 173120, Note_off_c, 0, 73, 95
2, 173120, Note_off_c, 0, 69, 95
2, 173120, Note_off_c, 0, 64, 95
2, 173120, Note_on_c, 0, 73, 95
2, 173120, Note_on_c, 0, 69, 95
2, 173440, Note_off_c, 0, 73, 95
2, 173440, Note_off_c, 0, 69, 95
2, 173440, Note_on_c, 0, 73, 95
2, 173440, Note_on_c, 0, 69, 95
2, 173440, Note_on_c, 0, 64, 95
2, 173760, Note_off_c, 0, 73, 95
2, 173760, Note_off_c, 0, 69, 95
2, 173760, Note_off_c, 0, 64, 95
2, 173760, Note_on_c, 0, 73, 95
2, 173760, Note_on_c, 0, 69, 95
2, 174240, Note_off_c, 0, 73, 95
2, 174240, Note_off_c, 0, 69, 95
2, 174240, Note_on_c, 0, 73, 95
2, 174240, Note_on_c, 0, 69, 95
2, 174240, Note_on_c, 0, 64, 95
2, 174720, Note_off_c, 0, 73, 95
2, 174720, Note_off_c, 0, 69, 95
2, 174720, Note_off_c, 0, 64, 95
2, 174720, Note_on_c, 0, 73, 95
2, 174720, Note_on_c, 0, 69, 95
2, 174720, Note_on_c, 0, 64, 95
2, 175200, Note_off_c, 0, 73, 95
2, 175200, Note_off_c, 0, 69, 95
2, 175200, Note_off_c, 0, 64, 95
2, 175200, Note_on_c, 0, 73, 95
2, 175200, Note_on_c, 0, 69, 95
2, 175680, Note_off_c, 0, 73, 95
2, 175680, Note_off_c, 0, 69, 95
2, 176160, Note_on_c, 0, 68, 47
2, 176400, Note_off_c, 0, 68, 47
2, 176400, Note_on_c, 0, 59, 95
2, 176640, Note_off_c, 0, 59, 95
2, 176640, Note_on_c, 0, 74, 95
2, 176640, Note_on_c, 0, 68, 95
2, 177120, Note_off_c, 0, 74, 95
2, 177120, Note_off_c, 0, 68, 95
2, 177120, Note_on_c, 0, 74, 95
2, 177120, Note_on_c, 0, 68, 95
2, 177120, Note_on_c, 0, 59, 95
2, 177920, Note_off_c, 0, 74, 95
2, 177920, Note_off_c, 0, 68, 95
2, 177920, Note_off_c, 0, 59, 95
2, 177920, Note_on_c, 0, 68, 95
2, 178240, Note_off_c, 0, 68, 95
2, 178240, Note_on_c, 0, 59, 95
2, 178560, Note_off_c, 0, 59, 95
2, 178560, Note_on_c, 0, 76, 95
2, 178560, Note_on_c, 0, 68, 95
2, 179040, Note_off_c, 0, 76, 95
2, 179040, Note_off_c, 0, 68, 95
2, 179040, Note_on_c, 0, 76, 95
2, 179040, Note_on_c, 0, 68, 95
2, 179520, Note_off_c, 0, 76, 95
2, 179520, Note_off_c, 0, 68, 95
2, 180000, Note_on_c, 1, 64, 95
2, 180120, Pitch_bend_c, 1, 8832
2, 180240, Pitch_bend_c, 1, 9600
2, 180240, Pitch_bend_c, 1, 8192
2, 180240, Note_off_c, 1, 64, 95
2, 180240, Note_on_c, 0, 66, 95
2, 180480, Note_off_c, 0, 66, 95
2, 180480, Note_on_c, 0, 69, 95
2, 180480, Note_on_c, 0, 66, 95
2, 180960, Note_off_c, 0, 69, 95
2, 180960, Note_off_c, 0, 66, 95
2, 180960, Note_on_c, 0, 55, 47
2, 181440, Note_off_c, 0, 55, 47
2, 181440, Pitch_bend_c, 1, 8192
2, 181440, Note_on_c, 1, 72, 95
2, 181440, Note_on_c, 0, 66, 95
2, 181560, Pitch_bend_c, 1, 8320
2, 181680, Pitch_bend_c, 1, 8448
2, 181680, Pitch_bend_c, 1, 8448
2, 181920, Pitch_bend_c, 1, 8448
2, 181920, Pitch_bend_c, 1, 8192
2, 181920, Note_off_c, 1, 72, 95
2, 181920, Note_off_c, 0, 66, 95
2, 181920, Pitch_bend_c, 1, 8192
2, 181920, Note_on_c, 1, 72, 95
2, 182040, Pitch_bend_c, 1, 8320
2, 182160, Pitch_bend_c, 1, 8448
2, 182160, Pitch_bend_c, 1, 8448
2, 182400, Pitch_bend_c, 1, 8448
2, 182400, Pitch_bend_c, 1, 8192
2, 182400, Note_off_c, 1, 72, 95
2, 182400, Note_on_c, 0, 69, 95
2, 182720, Note_off_c, 0, 69, 95
2, 182720, Note_on_c, 0, 66, 95
2, 183040, Note_off_c, 0, 66, 95
2, 183040, Note_on_c, 0, 69, 95
2, 183360, Note_off_c, 0, 69, 95
2, 183360, Pitch_bend_c, 1, 8192
2, 183360, Note_on_c, 1, 72, 95
2, 183480, Pitch_bend_c, 1, 8320
2, 183600, Pitch_bend_c, 1, 8448
2, 183600, Pitch_bend_c, 1, 8448
2, 183840, Pitch_bend_c, 1, 8448
2, 183840, Pitch_bend_c, 1, 8192
2, 183840, Note_off_c, 1, 72, 95
2, 183840, Pitch_bend_c, 1, 8192
2, 183840, Note_on_c, 1, 72, 95
2, 183960, Pitch_bend_c, 1, 8320
2, 184080, Pitch_bend_c, 1, 8448
2, 184080, Pitch_bend_c, 1, 8448
2, 184320, Pitch_bend_c, 1, 8448
2, 184320, Pitch_bend_c, 1, 8192
2, 184320, Note_off_c, 1, 72, 95
2, 184320, Note_on_c, 0, 69, 95
2, 184640, Note_off_c, 0, 69, 95
2, 184640, Note_on_c, 0, 66, 95
2, 184960, Note_off_c, 0, 66, 95
2, 184960, Pitch_bend_c, 1, 8192
2, 184960, Note_on_c, 1, 72, 95
2, 185040, Pitch_bend_c, 1, 8320
2, 185120, Pitch_bend_c, 1, 8448
2, 185120, Pitch_bend_c, 1, 8448
2, 185280, Pitch_bend_c, 1, 8448
2, 185280, Pitch_bend_c, 1, 8192
2, 185280, Note_off_c, 1, 72, 95
2, 185280, Note_on_c, 0, 69, 95
2, 185600, Note_off_c, 0, 69, 95
2, 185600, Note_on_c, 0, 66, 95
2, 185920, Note_off_c, 0, 66, 95
2, 185920, Note_on_c, 0, 69, 95
2, 186240, Note_off_c, 0, 69, 95
2, 186240, Note_on_c, 0, 69, 95
2, 186240, Note_on_c, 0, 66, 95
2, 186720, Note_off_c, 0, 69, 95
2, 186720, Note_off_c, 0, 66, 95
2, 186720, Note_on_c, 0, 69, 95
2, 186720, Note_on_c, 0, 66, 95
2, 187200, Note_off_c, 0, 69, 95
2, 187200, Note_off_c, 0, 66, 95
2, 188040, Note_on_c, 1, 63, 95
2, 188160, Note_off_c, 1, 63, 95
2, 188160, Note_on_c, 1, 64, 95
2, 188480, Note_off_c, 1, 64, 95
2, 188480, Note_on_c, 0, 67, 95
2, 188800, Note_off_c, 0, 67, 95
2, 188800, Note_on_c, 0, 67, 95
2, 189120, Note_off_c, 0, 67, 95
2, 189120, Note_on_c, 0, 67, 95
2, 189120, Note_on_c, 0, 64, 95
2, 189440, Note_off_c, 0, 67, 95
2, 189440, Note_off_c, 0, 64, 95
2, 189440, Note_on_c, 0, 67, 95
2, 189760, Note_off_c, 0, 67, 95
2, 189760, Note_on_c, 0, 67, 95
2, 190080, Note_off_c, 0, 67, 95
2, 190080, Note_on_c, 0, 67, 95
2, 190080, Note_on_c, 0, 64, 95
2, 190400, Note_off_c, 0, 67, 95
2, 190400, Note_off_c, 0, 64, 95
2, 190400, Note_on_c, 0, 67, 95
2, 190720, Note_off_c, 0, 67, 95
2, 190720, Note_on_c, 0, 67, 95
2, 191040, Note_off_c, 0, 67, 95
2, 191040, Note_on_c, 0, 67, 95
2, 191040, Note_on_c, 0, 64, 95
2, 191360, Note_off_c, 0, 67, 95
2, 191360, Note_off_c, 0, 64, 95
2, 191360, Note_on_c, 0, 67, 95
2, 191680, Note_off_c, 0, 67, 95
2, 191680, Note_on_c, 0, 67, 95
2, 192000, Note_off_c, 0, 67, 95
2, 192000, Note_on_c, 0, 68, 95
2, 192000, Note_on_c, 0, 64, 95
2, 192320, Note_off_c, 0, 68, 95
2, 192320, Note_off_c, 0, 64, 95
2, 192320, Note_on_c, 0, 62, 22
2, 192640, Note_off_c, 0, 62, 22
2, 192640, Note_on_c, 0, 68, 95
2, 192640, Note_on_c, 0, 64, 95
2, 192960, Note_off_c, 0, 68, 95
2, 192960, Note_off_c, 0, 64, 95
2, 192960, Note_on_c, 0, 68, 95
2, 192960, Note_on_c, 0, 64, 95
2, 193280, Note_off_c, 0, 68, 95
2, 193280, Note_off_c, 0, 64, 95
2, 193280, Note_on_c, 0, 68, 95
2, 193600, Note_off_c, 0, 68, 95
2, 193600, Note_on_c, 0, 68, 95
2, 193920, Note_off_c, 0, 68, 95
2, 193920, Note_on_c, 0, 68, 95
2, 193920, Note_on_c, 0, 64, 95
2, 194560, Note_off_c, 0, 68, 95
2, 194560, Note_off_c, 0, 64, 95
2, 194560, Note_on_c, 0, 68, 95
2, 194560, Note_on_c, 0, 64, 95
2, 195200, Note_off_c, 0, 68, 95
2, 195200, Note_off_c, 0, 64, 95
2, 195200, Note_on_c, 0, 64, 95
2, 195840, Note_off_c, 0, 64, 95
2, 195840, Note_on_c, 0, 69, 95
2, 195840, Note_on_c, 0, 64, 95
2, 196320, Note_off_c, 0, 69, 95
2, 196320, Note_off_c, 0, 64, 95
2, 196320, Note_on_c, 0, 69, 95
2, 196320, Note_on_c, 0, 64, 95
2, 196320, Note_on_c, 0, 50, 95
2, 196800, Note_off_c, 0, 69, 95
2, 196800, Note_off_c, 0, 64, 95
2, 196800, Note_off_c, 0, 50, 95
2, 197120, Note_on_c, 0, 55, 95
2, 197760, Note_off_c, 0, 55, 95
2, 197760, Note_on_c, 0, 59, 95
2, 198240, Note_off_c, 0, 59, 95
2, 198240, Note_on_c, 0, 64, 95
2, 198720, Note_off_c, 0, 64, 95
2, 198720, Note_on_c, 0, 62, 95
2, 199200, Note_off_c, 0, 62, 95
2, 199200, Note_on_c, 0, 61, 95
2, 199680, Note_off_c, 0, 61, 95
2, 199680, Note_on_c, 0, 57, 47
2, 199680, Note_on_c, 0, 52, 47
2, 199680, Note_on_c, 0, 45, 47
2, 200160, Note_off_c, 0, 57, 47
2, 200160, Note_off_c, 0, 52, 47
2, 200160, Note_off_c, 0, 45, 47
2, 200160, Note_on_c, 0, 57, 47
2, 200160, Note_on_c, 0, 52, 47
2, 200640, Note_off_c, 0, 57, 47
2, 200640, Note_off_c, 0, 52, 47
2, 200640, Note_on_c, 0, 69, 95
2, 201120, Note_off_c, 0, 69, 95
2, 201120, Note_on_c, 0, 69, 95
2, 201120, Note_on_c, 0, 61, 95
2, 202080, Note_off_c, 0, 69, 95
2, 202080, Note_off_c, 0, 61, 95
2, 202080, Note_on_c, 0, 69, 95
2, 202080, Note_on_c, 0, 61, 95
2, 203040, Note_off_c, 0, 69, 95
2, 203040, Note_off_c, 0, 61, 95
2, 203520, Note_on_c, 0, 64, 95
2, 203520, Note_on_c, 0, 61, 95
2, 204000, Note_off_c, 0, 64, 95
2, 204000, Note_off_c, 0, 61, 95
2, 204000, Note_on_c, 0, 64, 95
2, 204000, Note_on_c, 0, 64, 95
2, 204480, Note_off_c, 0, 64, 95
2, 204480, Note_off_c, 0, 64, 95
2, 204480, Note_on_c, 0, 64, 95
2, 204480, Note_on_c, 0, 61, 95
2, 204480, Note_on_c, 0, 55, 95
2, 204960, Note_off_c, 0, 64, 95
2, 204960, Note_off_c, 0, 61, 95
2, 204960, Note_off_c, 0, 55, 95
2, 204960, Note_on_c, 0, 45, 95
2, 205440, Note_off_c, 0, 45, 95
2, 205440, Note_on_c, 0, 64, 95
2, 205440, Note_on_c, 0, 61, 95
2, 205920, Note_off_c, 0, 64, 95
2, 205920, Note_off_c, 0, 61, 95
2, 205920, Note_on_c, 0, 64, 95
2, 206400, Note_off_c, 0, 64, 95
2, 206880, Note_on_c, 0, 44, 95
2, 207360, Note_off_c, 0, 44, 95
2, 207360, Note_on_c, 0, 64, 95
2, 207360, Note_on_c, 0, 59, 95
2, 207840, Note_off_c, 0, 64, 95
2, 207840, Note_off_c, 0, 59, 95
2, 207840, Note_on_c, 0, 68, 95
2, 207840, Note_on_c, 0, 64, 95
2, 208320, Note_off_c, 0, 68, 95
2, 208320, Note_off_c, 0, 64, 95
2, 208320, Note_on_c, 0, 64, 95
2, 208320, Note_on_c, 0, 44, 95
2, 208800, Note_off_c, 0, 64, 95
2, 208800, Note_off_c, 0, 44, 95
2, 208800, Note_on_c, 0, 64, 95
2, 208800, Note_on_c, 0, 59, 95
2, 209280, Note_off_c, 0, 64, 95
2, 209280, Note_off_c, 0, 59, 95
2, 209280, Note_on_c, 0, 68, 95
2, 209280, Note_on_c, 0, 64, 95
2, 209280, Note_on_c, 0, 44, 95
2, 209760, Note_off_c, 0, 68, 95
2, 209760, Note_off_c, 0, 64, 95
2, 209760, Note_off_c, 0, 44, 95
2, 209760, Note_on_c, 0, 64, 95
2, 209760, Note_on_c, 0, 59, 95
2, 210240, Note_off_c, 0, 64, 95
2, 210240, Note_off_c, 0, 59, 95
2, 210240, Note_on_c, 1, 44, 95
2, 210360, Pitch_bend_c, 1, 7936
2, 210480, Pitch_bend_c, 1, 7552
2, 210600, Pitch_bend_c, 1, 7168
2, 210720, Pitch_bend_c, 1, 6784
2, 210720, Pitch_bend_c, 1, 8192
2, 210720, Note_off_c, 1, 44, 95
2, 210720, Note_on_c, 0, 42, 95
2, 211200, Note_off_c, 0, 42, 95
2, 211200, Note_on_c, 0, 42, 95
2, 211680, Note_off_c, 0, 42, 95
2, 211680, Note_on_c, 0, 57, 95
2, 212160, Note_off_c, 0, 57, 95
2, 212160, Note_on_c, 0, 66, 95
2, 212160, Note_on_c, 0, 62, 95
2, 212160, Note_on_c, 0, 42, 95
2, 212640, Note_off_c, 0, 66, 95
2, 212640, Note_off_c, 0, 62, 95
2, 212640, Note_off_c, 0, 42, 95
2, 212640, Note_on_c, 0, 62, 95
2, 213120, Note_off_c, 0, 62, 95
2, 213120, Note_on_c, 0, 42, 95
2, 213600, Note_off_c, 0, 42, 95
2, 213600, Note_on_c, 0, 62, 95
2, 213600, Note_on_c, 0, 57, 95
2, 214080, Note_off_c, 0, 62, 95
2, 214080, Note_off_c, 0, 57, 95
2, 214080, Note_on_c, 0, 42, 95
2, 214560, Note_off_c, 0, 42, 95
2, 214560, Note_on_c, 0, 62, 95
2, 214560, Note_on_c, 0, 57, 95
2, 215040, Note_off_c, 0, 62, 95
2, 215040, Note_off_c, 0, 57, 95
2, 215040, Note_on_c, 0, 42, 95
2, 215520, Note_off_c, 0, 42, 95
2, 215520, Note_on_c, 0, 62, 95
2, 215520, Note_on_c, 0, 57, 95
2, 216000, Note_off_c, 0, 62, 95
2, 216000, Note_off_c, 0, 57, 95
2, 216000, Note_on_c, 0, 42, 95
2, 216480, Note_off_c, 0, 42, 95
2, 216480, Note_on_c, 0, 62, 95
2, 216480, Note_on_c, 0, 57, 95
2, 216960, Note_off_c, 0, 62, 95
2, 216960, Note_off_c, 0, 57, 95
2, 216960, Note_on_c, 0, 42, 95
2, 217440, Note_off_c, 0, 42, 95
2, 217440, Note_on_c, 0, 62, 95
2, 217440, Note_on_c, 0, 57, 95
2, 217920, Note_off_c, 0, 62, 95
2, 217920, Note_off_c, 0, 57, 95
2, 217920, Note_on_c, 0, 42, 95
2, 218400, Note_off_c, 0, 42, 95
2, 218400, Note_on_c, 0, 57, 95
2, 218880, Note_off_c, 0, 57, 95
2, 218880, Note_on_c, 0, 45, 95
2, 219360, Note_off_c, 0, 45, 95
2, 219360, Note_on_c, 0, 69, 95
2, 219840, Note_off_c, 0, 69, 95
2, 219840, Note_on_c, 0, 45, 95
2, 220320, Note_off_c, 0, 45, 95
2, 220320, Note_on_c, 0, 61, 95
2, 220800, Note_off_c, 0, 61, 95
2, 220800, Note_on_c, 0, 45, 95
2, 221280, Note_off_c, 0, 45, 95
2, 221280, Note_on_c, 0, 57, 95
2, 221760, Note_off_c, 0, 57, 95
2, 221760, Note_on_c, 0, 40, 95
2, 222080, Note_off_c, 0, 40, 95
2, 222400, Note_on_c, 0, 55, 95
2, 222560, Note_off_c, 0, 55, 95
2, 222560, Note_on_c, 0, 56, 70
2, 222720, Note_off_c, 0, 56, 70
2, 222720, Note_on_c, 0, 64, 95
2, 222720, Note_on_c, 0, 56, 47
2, 222720, Note_on_c, 0, 40, 47
2, 223200, Note_off_c, 0, 64, 95
2, 223200, Note_off_c, 0, 56, 47
2, 223200, Note_off_c, 0, 40, 47
2, 223200, Note_on_c, 0, 59, 95
2, 223680, Note_off_c, 0, 59, 95
2, 223680, Note_on_c, 0, 62, 95
2, 223680, Note_on_c, 0, 40, 95
2, 224160, Note_off_c, 0, 62, 95
2, 224160, Note_off_c, 0, 40, 95
2, 224160, Note_on_c, 0, 64, 95
2, 224640, Note_on_c, 0, 40, 95
2, 225120, Note_off_c, 0, 64, 95
2, 225120, Note_off_c, 0, 40, 95
2, 225120, Note_on_c, 0, 62, 95
2, 225600, Note_off_c, 0, 62, 95
2, 225600, Note_on_c, 0, 40, 95
2, 226080, Note_off_c, 0, 40, 95
2, 226080, Note_on_c, 0, 57, 95
2, 226560, Note_off_c, 0, 57, 95
2, 226560, Note_on_c, 0, 45, 95
2, 227040, Note_off_c, 0, 45, 95
2, 227040, Note_on_c, 0, 61, 95
2, 227520, Note_off_c, 0, 61, 95
2, 227520, Note_on_c, 0, 69, 95
2, 227520, Note_on_c, 0, 45, 95
2, 228000, Note_off_c, 0, 69, 95
2, 228000, Note_off_c, 0, 45, 95
2, 228000, Note_on_c, 0, 40, 95
2, 228360, Note_on_c, 1, 55, 95
2, 228480, Note_off_c, 0, 40, 95
2, 228480, Note_off_c, 1, 55, 95
2, 228480, Note_on_c, 1, 56, 95
2, 228960, Note_off_c, 1, 56, 95
2, 228960, Note_on_c, 0, 64, 95
2, 229440, Note_off_c, 0, 64, 95
2, 229440, Note_on_c, 0, 62, 95
2, 229440, Note_on_c, 0, 52, 95
2, 229920, Note_off_c, 0, 62, 95
2, 229920, Note_off_c, 0, 52, 95
2, 229920, Note_on_c, 0, 61, 95
2, 229920, Note_on_c, 0, 45, 47
2, 230400, Note_off_c, 0, 61, 95
2, 230400, Note_off_c, 0, 45, 47
2, 230400, Note_on_c, 0, 57, 95
2, 230400, Note_on_c, 0, 52, 95
2, 230880, Note_off_c, 0, 57, 95
2, 230880, Note_off_c, 0, 52, 95
2, 230880, Note_on_c, 0, 45, 95
2, 231360, Note_off_c, 0, 45, 95
2, 231360, Note_on_c, 0, 69, 95
2, 231360, Note_on_c, 0, 61, 95
2, 231360, Note_on_c, 0, 45, 95
2, 231840, Note_off_c, 0, 69, 95
2, 231840, Note_off_c, 0, 61, 95
2, 231840, Note_off_c, 0, 45, 95
2, 231840, Note_on_c, 0, 69, 95
2, 231840, Note_on_c, 0, 61, 95
2, 232320, Note_off_c, 0, 69, 95
2, 232320, Note_off_c, 0, 61, 95
2, 232320, Note_on_c, 0, 45, 95
2, 232800, Note_off_c, 0, 45, 95
2, 232800, Note_on_c, 0, 69, 95
2, 232800, Note_on_c, 0, 61, 95
2, 233280, Note_off_c, 0, 69, 95
2, 233280, Note_off_c, 0, 61, 95
2, 233280, Note_on_c, 0, 69, 95
2, 233280, Note_on_c, 0, 61, 95
2, 233280, Note_on_c, 0, 45, 95
2, 233760, Note_off_c, 0, 69, 95
2, 233760, Note_off_c, 0, 61, 95
2, 233760, Note_off_c, 0, 45, 95
2, 234240, Note_on_c, 0, 45, 95
2, 234720, Note_off_c, 0, 45, 95
2, 234720, Note_on_c, 0, 64, 95
2, 234720, Note_on_c, 0, 61, 95
2, 235200, Note_off_c, 0, 64, 95
2, 235200, Note_off_c, 0, 61, 95
2, 235200, Note_on_c, 0, 64, 95
2, 235200, Note_on_c, 0, 64, 95
2, 235200, Note_on_c, 0, 61, 95
2, 235200, Note_on_c, 0, 45, 95
2, 235680, Note_off_c, 0, 64, 95
2, 235680, Note_off_c, 0, 64, 95
2, 235680, Note_off_c, 0, 61, 95
2, 235680, Note_off_c, 0, 45, 95
2, 235680, Note_on_c, 0, 59, 95
2, 235680, Note_on_c, 0, 55, 95
2, 235729, Note_off_c, 0, 59, 95
2, 235729, Note_off_c, 0, 55, 95
2, 236160, Note_on_c, 0, 64, 95
2, 236160, Note_on_c, 0, 64, 95
2, 236160, Note_on_c, 0, 61, 95
2, 236160, Note_on_c, 0, 45, 95
2, 236640, Note_off_c, 0, 64, 95
2, 236640, Note_off_c, 0, 64, 95
2, 236640, Note_off_c, 0, 61, 95
2, 236640, Note_off_c, 0, 45, 95
2, 236640, Note_on_c, 0, 64, 95
2, 236640, Note_on_c, 0, 64, 95
2, 236640, Note_on_c, 0, 61, 95
2, 237120, Note_off_c, 0, 64, 95
2, 237120, Note_off_c, 0, 64, 95
2, 237120, Note_off_c, 0, 61, 95
2, 237120, Note_on_c, 0, 45, 95
2, 237600, Note_off_c, 0, 45, 95
2, 237600, Note_on_c, 0, 44, 95
2, 238080, Note_off_c, 0, 44, 95
2, 238080, Note_on_c, 0, 64, 95
2, 238080, Note_on_c, 0, 59, 95
2, 238560, Note_off_c, 0, 64, 95
2, 238560, Note_off_c, 0, 59, 95
2, 238560, Note_on_c, 0, 68, 95
2, 238560, Note_on_c, 0, 64, 95
2, 239040, Note_off_c, 0, 68, 95
2, 239040, Note_off_c, 0, 64, 95
2, 239040, Note_on_c, 0, 68, 95
2, 239040, Note_on_c, 0, 64, 95
2, 239040, Note_on_c, 0, 59, 95
2, 239040, Note_on_c, 0, 44, 95
2, 239520, Note_off_c, 0, 68, 95
2, 239520, Note_off_c, 0, 64, 95
2, 239520, Note_off_c, 0, 59, 95
2, 239520, Note_off_c, 0, 44, 95
2, 239520, Note_on_c, 0, 64, 95
2, 239520, Note_on_c, 0, 59, 95
2, 240000, Note_off_c, 0, 64, 95
2, 240000, Note_off_c, 0, 59, 95
2, 240000, Note_on_c, 0, 68, 95
2, 240000, Note_on_c, 0, 64, 95
2, 240000, Note_on_c, 0, 44, 95
2, 240480, Note_off_c, 0, 68, 95
2, 240480, Note_off_c, 0, 64, 95
2, 240480, Note_off_c, 0, 44, 95
2, 240480, Note_on_c, 0, 64, 95
2, 240480, Note_on_c, 0, 59, 95
2, 240960, Note_off_c, 0, 64, 95
2, 240960, Note_off_c, 0, 59, 95
2, 240960, Note_on_c, 0, 44, 95
2, 241440, Note_off_c, 0, 44, 95
2, 241440, Note_on_c, 0, 42, 95
2, 241920, Note_off_c, 0, 42, 95
2, 241920, Note_on_c, 0, 42, 47
2, 242400, Note_off_c, 0, 42, 47
2, 242400, Note_on_c, 0, 62, 95
2, 242400, Note_on_c, 0, 57, 95
2, 242880, Note_off_c, 0, 62, 95
2, 242880, Note_off_c, 0, 57, 95
2, 242880, Note_on_c, 0, 66, 95
2, 242880, Note_on_c, 0, 62, 95
2, 242880, Note_on_c, 0, 42, 95
2, 243360, Note_off_c, 0, 66, 95
2, 243360, Note_off_c, 0, 62, 95
2, 243360, Note_off_c, 0, 42, 95
2, 243360, Note_on_c, 0, 62, 95
2, 243360, Note_on_c, 0, 57, 95
2, 243840, Note_off_c, 0, 62, 95
2, 243840, Note_off_c, 0, 57, 95
2, 243840, Note_on_c, 0, 42, 95
2, 244320, Note_off_c, 0, 42, 95
2, 244320, Note_on_c, 0, 62, 95
2, 244320, Note_on_c, 0, 57, 95
2, 244800, Note_off_c, 0, 62, 95
2, 244800, Note_off_c, 0, 57, 95
2, 244800, Note_on_c, 0, 42, 95
2, 245280, Note_off_c, 0, 42, 95
2, 245280, Note_on_c, 0, 62, 95
2, 245280, Note_on_c, 0, 57, 95
2, 245760, Note_off_c, 0, 62, 95
2, 245760, Note_off_c, 0, 57, 95
2, 245760, Note_on_c, 0, 42, 95
2, 246240, Note_off_c, 0, 42, 95
2, 246240, Note_on_c, 0, 62, 95
2, 246240, Note_on_c, 0, 57, 95
2, 246720, Note_off_c, 0, 62, 95
2, 246720, Note_off_c, 0, 57, 95
2, 246720, Note_on_c, 0, 66, 95
2, 246720, Note_on_c, 0, 62, 95
2, 247200, Note_off_c, 0, 66, 95
2, 247200, Note_off_c, 0, 62, 95
2, 247200, Note_on_c, 0, 62, 95
2, 247200, Note_on_c, 0, 57, 95
2, 247680, Note_off_c, 0, 62, 95
2, 247680, Note_off_c, 0, 57, 95
2, 247680, Note_on_c, 0, 42, 95
2, 248160, Note_off_c, 0, 42, 95
2, 248160, Note_on_c, 0, 66, 95
2, 248160, Note_on_c, 0, 62, 95
2, 248160, Note_on_c, 0, 57, 95
2, 248640, Note_off_c, 0, 66, 95
2, 248640, Note_off_c, 0, 62, 95
2, 248640, Note_off_c, 0, 57, 95
2, 248640, Note_on_c, 0, 42, 95
2, 249120, Note_off_c, 0, 42, 95
2, 249120, Note_on_c, 0, 57, 95
2, 249120, Note_on_c, 0, 52, 47
2, 249600, Note_off_c, 0, 57, 95
2, 249600, Note_off_c, 0, 52, 47
2, 249600, Note_on_c, 0, 45, 95
2, 250080, Note_off_c, 0, 45, 95
2, 250080, Note_on_c, 0, 61, 95
2, 250560, Note_off_c, 0, 61, 95
2, 250560, Note_on_c, 0, 69, 95
2, 250560, Note_on_c, 0, 45, 95
2, 251040, Note_off_c, 0, 69, 95
2, 251040, Note_off_c, 0, 45, 95
2, 251040, Note_on_c, 0, 61, 95
2, 251520, Note_on_c, 0, 45, 95
2, 252000, Note_off_c, 0, 61, 95
2, 252000, Note_off_c, 0, 45, 95
2, 252000, Note_on_c, 0, 57, 95
2, 252480, Note_off_c, 0, 57, 95
2, 252480, Note_on_c, 0, 45, 95
2, 252960, Note_off_c, 0, 45, 95
2, 252960, Note_on_c, 0, 59, 95
2, 252960, Note_on_c, 0, 56, 95
2, 252960, Note_on_c, 0, 52, 95
2, 252960, Note_on_c, 0, 47, 95
2, 252960, Note_on_c, 0, 40, 95
2, 253440, Note_off_c, 0, 59, 95
2, 253440, Note_off_c, 0, 56, 95
2, 253440, Note_off_c, 0, 52, 95
2, 253440, Note_off_c, 0, 47, 95
2, 253440, Note_off_c, 0, 40, 95
2, 253440, Note_on_c, 0, 59, 47
2, 253440, Note_on_c, 0, 56, 47
2, 253440, Note_on_c, 0, 52, 47
2, 253440, Note_on_c, 0, 47, 47
2, 253440, Note_on_c, 0, 40, 47
2, 253920, Note_off_c, 0, 59, 47
2, 253920, Note_off_c, 0, 56, 47
2, 253920, Note_off_c, 0, 52, 47
2, 253920, Note_off_c, 0, 47, 47
2, 253920, Note_off_c, 0, 40, 47
2, 253920, Note_on_c, 0, 62, 95
2, 254880, Note_off_c, 0, 62, 95
2, 254880, Note_on_c, 0, 64, 95
2, 255840, Note_off_c, 0, 64, 95
2, 256800, Note_on_c, 0, 57, 95
2, 256800, Note_on_c, 0, 52, 95
2, 257280, Note_off_c, 0, 57, 95
2, 257280, Note_off_c, 0, 52, 95
2, 257280, Note_on_c, 0, 45, 95
2, 257760, Note_off_c, 0, 45, 95
2, 257760, Note_on_c, 0, 69, 95
2, 257760, Note_on_c, 0, 61, 95
2, 257760, Note_on_c, 0, 57, 95
2, 258240, Note_off_c, 0, 69, 95
2, 258240, Note_off_c, 0, 61, 95
2, 258240, Note_off_c, 0, 57, 95
2, 259200, Note_on_c, 0, 67, 95
2, 259680, Note_off_c, 0, 67, 95
2, 259680, Note_on_c, 0, 64, 95
2, 260160, Note_off_c, 0, 64, 95
2, 260160, Note_on_c, 0, 62, 95
2, 260640, Note_off_c, 0, 62, 95
2, 260640, Note_on_c, 0, 64, 95
2, 261120, Note_off_c, 0, 64, 95
2, 261120, Note_on_c, 0, 60, 95
2, 261440, Note_off_c, 0, 60, 95
2, 261440, Pitch_bend_c, 1, 8192
2, 261440, Note_on_c, 1, 60, 47
2, 261520, Pitch_bend_c, 1, 8320
2, 261600, Pitch_bend_c, 1, 8448
2, 261600, Pitch_bend_c, 1, 8448
2, 261760, Pitch_bend_c, 1, 8448
2, 261760, Pitch_bend_c, 1, 8192
2, 261760, Note_off_c, 1, 60, 47
2, 261760, Note_on_c, 0, 57, 95
2, 262080, Note_off_c, 0, 57, 95
2, 262080, Note_on_c, 0, 45, 47
2, 262080, Note_on_c, 0, 40, 47
2, 262560, Note_off_c, 0, 45, 47
2, 262560, Note_off_c, 0, 40, 47
2, 262560, Note_on_c, 0, 57, 95
2, 262560, Note_on_c, 0, 52, 95
2, 262560, Note_on_c, 0, 45, 95
2, 263040, Note_off_c, 0, 57, 95
2, 263040, Note_off_c, 0, 52, 95
2, 263040, Note_off_c, 0, 45, 95
2, 264000, Note_on_c, 0, 61, 95
2, 264000, Note_on_c, 0, 57, 95
2, 264000, Note_on_c, 0, 52, 95
2, 264000, Note_on_c, 0, 45, 95
2, 264960, Note_off_c, 0, 61, 95
2, 264960, Note_off_c, 0, 57, 95
2, 264960, Note_off_c, 0, 52, 95
2, 264960, Note_off_c, 0, 45, 95
2, 264960, Note_on_c, 0, 61, 47
2, 264960, Note_on_c, 0, 57, 47
2, 264960, Note_on_c, 0, 52, 47
2, 264960, Note_on_c, 0, 45, 47
2, 272640, Note_off_c, 0, 61, 47
2, 272640, Note_off_c, 0, 57, 47
2, 272640, Note_off_c, 0, 52, 47
2, 272640, Note_off_c, 0, 45, 47
2, 272640, End_track
0, 0, End_of_file
