0, 0, Header, 0, 1, 960
1, 0, Start_track
1, 0, Title_t, "Cuando me enamoro (Enrique Iglesias - Juan Luis Guerra)"
1, 0, Copyright_t, "www.elmidi.com - el sitio mas actualizado de música midi"
1, 0, Text_t, "PsmPlayer v3.80"
1, 0, System_exclusive, 5, 126, 127, 9, 1, 247
1, 0, Tempo, 468750
1, 0, Program_c, 0, 33
1, 0, Control_c, 0, 7, 127
1, 0, Program_c, 1, 89
1, 0, Control_c, 1, 7, 100
1, 0, Program_c, 2, 73
1, 0, Control_c, 2, 7, 48
1, 0, Program_c, 3, 24
1, 0, Control_c, 3, 7, 100
1, 0, Program_c, 4, 53
1, 0, Control_c, 4, 7, 100
1, 0, Program_c, 5, 27
1, 0, Control_c, 5, 7, 100
1, 0, Program_c, 6, 89
1, 0, Control_c, 6, 7, 100
1, 0, Program_c, 7, 24
1, 0, Control_c, 7, 7, 100
1, 0, Program_c, 8, 54
1, 0, Control_c, 8, 7, 100
1, 0, Program_c, 9, 0
1, 0, Control_c, 9, 7, 100
1, 0, Program_c, 10, 26
1, 0, Control_c, 10, 7, 100
1, 0, Time_signature, 2, 2, 24, 8
1, 0, Key_signature, 0, "major"
1, 0, Marker_t, "elmidi.com"
1, 0, Control_c, 1, 10, 119
1, 0, Control_c, 3, 10, 123
1, 0, Control_c, 4, 10, 13
1, 0, Control_c, 5, 10, 120
1, 0, Control_c, 6, 10, 12
1, 0, Control_c, 7, 10, 14
1, 0, Control_c, 8, 10, 127
1, 0, Control_c, 10, 10, 13
1, 0, Note_on_c, 9, 61, 105
1, 0, Lyric_t, "PsmPlayer v3.80"
1, 212, Note_off_c, 9, 61, 0
1, 488, Lyric_t, "\\Enrique Iglesias & Juan Luis Guerra"
1, 518, Note_on_c, 9, 60, 102
1, 518, Note_on_c, 9, 62, 105
1, 758, Note_off_c, 9, 62, 0
1, 782, Note_off_c, 9, 60, 0
1, 1074, Lyric_t, "\\*** Cuando me enamoro ***"
1, 1430, Note_on_c, 0, 27, 102
1, 1430, Note_on_c, 3, 61, 76
1, 1430, Note_on_c, 4, 63, 114
1, 1430, Note_on_c, 5, 58, 72
1, 1430, Note_on_c, 5, 65, 80
1, 1430, Note_on_c, 9, 36, 96
1, 1430, Note_on_c, 9, 42, 105
1, 1430, Note_on_c, 9, 70, 90
1, 1430, Note_on_c, 9, 60, 111
1, 1430, Note_on_c, 7, 61, 76
1, 1430, Note_on_c, 8, 51, 114
1, 1430, Note_on_c, 10, 58, 72
1, 1430, Note_on_c, 10, 65, 80
1, 1606, Lyric_t, "\\¡U"
1, 1622, Note_off_c, 9, 42, 0
1, 1643, Note_off_c, 9, 70, 0
1, 1646, Note_off_c, 9, 60, 0
1, 1670, Note_off_c, 9, 36, 0
1, 1910, Note_on_c, 3, 51, 46
1, 1910, Note_on_c, 5, 68, 80
1, 1910, Note_on_c, 9, 42, 59
1, 1910, Note_on_c, 9, 70, 78
1, 1910, Note_on_c, 9, 61, 82
1, 1910, Note_on_c, 7, 51, 46
1, 1910, Note_on_c, 10, 68, 80
1, 2014, Note_off_c, 9, 61, 0
1, 2039, Note_off_c, 5, 65, 0
1, 2039, Note_off_c, 10, 65, 0
1, 2045, Lyric_t, "."
1, 2046, Note_off_c, 9, 42, 0
1, 2105, Note_off_c, 9, 70, 0
1, 2390, Note_on_c, 3, 54, 50
1, 2390, Note_on_c, 5, 65, 68
1, 2390, Note_on_c, 9, 37, 105
1, 2390, Note_on_c, 9, 42, 105
1, 2390, Note_on_c, 9, 70, 90
1, 2390, Note_on_c, 9, 82, 82
1, 2390, Note_on_c, 7, 54, 50
1, 2390, Note_on_c, 10, 65, 68
1, 2517, Note_off_c, 5, 68, 0
1, 2517, Note_off_c, 10, 68, 0
1, 2530, Note_off_c, 0, 27, 0
1, 2539, Note_off_c, 9, 82, 0
1, 2587, Note_off_c, 9, 70, 0
1, 2619, Note_off_c, 9, 42, 0
1, 2664, Note_off_c, 9, 37, 0
1, 2765, Lyric_t, "."
1, 2870, Note_on_c, 0, 27, 99
1, 2870, Note_on_c, 3, 58, 68
1, 2870, Note_on_c, 5, 63, 68
1, 2870, Note_on_c, 9, 36, 99
1, 2870, Note_on_c, 9, 42, 80
1, 2870, Note_on_c, 9, 70, 99
1, 2870, Note_on_c, 9, 62, 90
1, 2870, Note_on_c, 7, 58, 68
1, 2870, Note_on_c, 10, 63, 68
1, 2882, Note_off_c, 3, 61, 0
1, 2882, Note_off_c, 7, 61, 0
1, 3017, Note_off_c, 0, 27, 0
1, 3041, Note_off_c, 9, 42, 0
1, 3069, Note_off_c, 9, 62, 0
1, 3097, Note_off_c, 9, 70, 0
1, 3116, Note_off_c, 9, 36, 0
1, 3350, Note_on_c, 0, 34, 90
1, 3350, Note_on_c, 9, 36, 93
1, 3350, Note_on_c, 9, 42, 102
1, 3350, Note_on_c, 9, 70, 76
1, 3452, Lyric_t, "."
1, 3538, Note_off_c, 9, 70, 0
1, 3577, Note_off_c, 9, 42, 0
1, 3590, Note_off_c, 9, 36, 0
1, 3830, Note_on_c, 3, 61, 76
1, 3830, Note_on_c, 5, 68, 74
1, 3830, Note_on_c, 9, 42, 70
1, 3830, Note_on_c, 9, 70, 64
1, 3830, Note_on_c, 9, 60, 93
1, 3830, Note_on_c, 7, 61, 76
1, 3830, Note_on_c, 10, 68, 74
1, 3848, Note_off_c, 5, 65, 0
1, 3848, Note_off_c, 10, 65, 0
1, 3961, Note_off_c, 5, 63, 0
1, 3961, Note_off_c, 10, 63, 0
1, 3996, Note_off_c, 9, 70, 0
1, 3999, Note_off_c, 9, 42, 0
1, 4035, Note_off_c, 9, 60, 0
1, 4242, Note_off_c, 4, 63, 0
1, 4242, Note_off_c, 8, 51, 0
1, 4310, Note_on_c, 5, 65, 74
1, 4310, Note_on_c, 9, 37, 99
1, 4310, Note_on_c, 9, 42, 105
1, 4310, Note_on_c, 9, 70, 102
1, 4310, Note_on_c, 10, 65, 74
1, 4311, Note_on_c, 4, 61, 114
1, 4311, Note_on_c, 8, 49, 114
1, 4369, Note_off_c, 0, 34, 0
1, 4428, Lyric_t, " u"
1, 4474, Note_off_c, 5, 68, 0
1, 4474, Note_off_c, 10, 68, 0
1, 4541, Note_off_c, 9, 42, 0
1, 4541, Note_off_c, 9, 70, 0
1, 4550, Note_off_c, 9, 37, 0
1, 4618, Note_off_c, 4, 61, 0
1, 4618, Note_off_c, 8, 49, 0
1, 4662, Lyric_t, "."
1, 4790, Note_on_c, 0, 34, 84
1, 4790, Note_on_c, 5, 61, 68
1, 4790, Note_on_c, 9, 36, 102
1, 4790, Note_on_c, 9, 42, 93
1, 4790, Note_on_c, 9, 82, 74
1, 4790, Note_on_c, 9, 70, 102
1, 4790, Note_on_c, 9, 61, 87
1, 4790, Note_on_c, 10, 61, 68
1, 4810, Note_on_c, 4, 58, 105
1, 4810, Note_on_c, 8, 46, 105
1, 4884, Lyric_t, "."
1, 4959, Note_off_c, 9, 82, 0
1, 4989, Note_off_c, 0, 34, 0
1, 4995, Note_off_c, 9, 61, 0
1, 5023, Note_off_c, 9, 42, 0
1, 5030, Note_off_c, 9, 36, 0
1, 5058, Note_off_c, 9, 70, 0
1, 5093, Note_off_c, 3, 54, 0
1, 5093, Note_off_c, 7, 54, 0
1, 5165, Note_off_c, 3, 51, 0
1, 5165, Note_off_c, 7, 51, 0
1, 5179, Lyric_t, "."
1, 5266, Note_off_c, 4, 58, 0
1, 5266, Note_off_c, 8, 46, 0
1, 5270, Note_on_c, 0, 27, 78
1, 5270, Note_on_c, 9, 42, 66
1, 5270, Note_on_c, 9, 70, 76
1, 5445, Note_off_c, 9, 70, 0
1, 5449, Note_off_c, 9, 42, 0
1, 5704, Lyric_t, ".!"
1, 5750, Note_on_c, 3, 51, 61
1, 5750, Note_on_c, 9, 42, 87
1, 5750, Note_on_c, 9, 70, 74
1, 5750, Note_on_c, 9, 62, 93
1, 5750, Note_on_c, 7, 51, 61
1, 5946, Note_off_c, 9, 70, 0
1, 5979, Note_off_c, 9, 42, 0
1, 5986, Note_off_c, 9, 62, 0
1, 6230, Note_on_c, 3, 54, 68
1, 6230, Note_on_c, 9, 37, 99
1, 6230, Note_on_c, 9, 42, 99
1, 6230, Note_on_c, 9, 70, 93
1, 6230, Note_on_c, 7, 54, 68
1, 6365, Note_off_c, 0, 27, 0
1, 6455, Note_off_c, 9, 42, 0
1, 6456, Note_off_c, 9, 70, 0
1, 6500, Note_off_c, 9, 37, 0
1, 6668, Note_off_c, 3, 61, 0
1, 6668, Note_off_c, 7, 61, 0
1, 6710, Note_on_c, 0, 27, 105
1, 6710, Note_on_c, 3, 63, 61
1, 6710, Note_on_c, 9, 36, 102
1, 6710, Note_on_c, 9, 42, 82
1, 6710, Note_on_c, 9, 70, 78
1, 6710, Note_on_c, 9, 62, 99
1, 6710, Note_on_c, 7, 63, 61
1, 6889, Note_off_c, 9, 70, 0
1, 6900, Note_off_c, 9, 42, 0
1, 6909, Note_off_c, 0, 27, 0
1, 6950, Note_off_c, 9, 36, 0
1, 6975, Note_off_c, 9, 62, 0
1, 7184, Note_on_c, 4, 63, 105
1, 7184, Note_on_c, 8, 51, 105
1, 7190, Note_on_c, 0, 34, 93
1, 7190, Note_on_c, 9, 36, 93
1, 7190, Note_on_c, 9, 42, 84
1, 7190, Note_on_c, 9, 70, 93
1, 7212, Note_off_c, 5, 58, 0
1, 7212, Note_off_c, 10, 58, 0
1, 7337, Lyric_t, "\\¡U"
1, 7399, Note_off_c, 9, 42, 0
1, 7400, Note_off_c, 9, 70, 0
1, 7430, Note_off_c, 9, 36, 0
1, 7470, Note_off_c, 3, 54, 0
1, 7470, Note_off_c, 7, 54, 0
1, 7659, Note_off_c, 4, 63, 0
1, 7659, Note_off_c, 8, 51, 0
1, 7670, Note_on_c, 3, 54, 64
1, 7670, Note_on_c, 5, 58, 74
1, 7670, Note_on_c, 9, 42, 76
1, 7670, Note_on_c, 9, 70, 76
1, 7670, Note_on_c, 9, 61, 78
1, 7670, Note_on_c, 7, 54, 64
1, 7670, Note_on_c, 10, 58, 74
1, 7696, Note_on_c, 4, 65, 102
1, 7696, Note_on_c, 8, 53, 102
1, 7711, Note_off_c, 5, 61, 0
1, 7711, Note_off_c, 10, 61, 0
1, 7817, Lyric_t, "."
1, 7826, Note_off_c, 9, 70, 0
1, 7843, Note_off_c, 9, 42, 0
1, 7910, Note_off_c, 9, 61, 0
1, 7921, Note_off_c, 5, 65, 0
1, 7921, Note_off_c, 10, 65, 0
1, 8032, Note_off_c, 0, 34, 0
1, 8147, Note_off_c, 4, 65, 0
1, 8147, Note_off_c, 8, 53, 0
1, 8150, Note_on_c, 0, 27, 93
1, 8150, Note_on_c, 5, 61, 87
1, 8150, Note_on_c, 9, 37, 105
1, 8150, Note_on_c, 9, 42, 105
1, 8150, Note_on_c, 9, 70, 102
1, 8150, Note_on_c, 9, 82, 78
1, 8150, Note_on_c, 10, 61, 87
1, 8180, Note_on_c, 4, 63, 108
1, 8180, Note_on_c, 8, 51, 108
1, 8221, Lyric_t, "."
1, 8314, Note_off_c, 9, 70, 0
1, 8314, Note_off_c, 9, 82, 0
1, 8390, Note_off_c, 9, 37, 0
1, 8390, Note_off_c, 9, 42, 0
1, 8450, Note_off_c, 3, 54, 0
1, 8450, Note_off_c, 7, 54, 0
1, 8511, Note_off_c, 0, 27, 0
1, 8601, Note_off_c, 4, 63, 0
1, 8601, Note_off_c, 8, 51, 0
1, 8630, Note_on_c, 0, 29, 84
1, 8630, Note_on_c, 3, 54, 48
1, 8630, Note_on_c, 9, 42, 76
1, 8630, Note_on_c, 9, 82, 87
1, 8630, Note_on_c, 9, 70, 82
1, 8630, Note_on_c, 9, 61, 76
1, 8630, Note_on_c, 7, 54, 48
1, 8659, Note_on_c, 4, 61, 105
1, 8659, Note_on_c, 8, 49, 105
1, 8662, Lyric_t, "."
1, 8799, Note_off_c, 9, 42, 0
1, 8814, Note_off_c, 9, 82, 0
1, 8822, Note_off_c, 9, 70, 0
1, 8883, Note_off_c, 9, 61, 0
1, 8898, Note_off_c, 0, 29, 0
1, 8948, Note_off_c, 3, 63, 0
1, 8948, Note_off_c, 7, 63, 0
1, 8952, Note_off_c, 3, 54, 0
1, 8952, Note_off_c, 7, 54, 0
1, 8959, Note_off_c, 5, 58, 0
1, 8959, Note_off_c, 10, 58, 0
1, 9046, Note_off_c, 4, 61, 0
1, 9046, Note_off_c, 8, 49, 0
1, 9059, Note_off_c, 5, 61, 0
1, 9059, Note_off_c, 10, 61, 0
1, 9110, Note_on_c, 0, 30, 93
1, 9110, Note_on_c, 3, 61, 82
1, 9110, Note_on_c, 5, 65, 82
1, 9110, Note_on_c, 5, 54, 76
1, 9110, Note_on_c, 9, 36, 96
1, 9110, Note_on_c, 9, 42, 99
1, 9110, Note_on_c, 9, 70, 93
1, 9110, Note_on_c, 9, 60, 82
1, 9110, Note_on_c, 7, 61, 82
1, 9110, Note_on_c, 10, 65, 82
1, 9110, Note_on_c, 10, 54, 76
1, 9126, Note_on_c, 4, 63, 108
1, 9126, Note_on_c, 8, 51, 108
1, 9199, Note_off_c, 3, 58, 0
1, 9199, Note_off_c, 7, 58, 0
1, 9305, Note_off_c, 9, 60, 0
1, 9344, Note_off_c, 9, 70, 0
1, 9345, Note_off_c, 9, 42, 0
1, 9350, Note_off_c, 9, 36, 0
1, 9370, Note_off_c, 3, 51, 0
1, 9370, Note_off_c, 7, 51, 0
1, 9590, Note_on_c, 3, 54, 68
1, 9590, Note_on_c, 5, 68, 76
1, 9590, Note_on_c, 9, 42, 72
1, 9590, Note_on_c, 9, 70, 76
1, 9590, Note_on_c, 9, 61, 72
1, 9590, Note_on_c, 7, 54, 68
1, 9590, Note_on_c, 10, 68, 76
1, 9711, Note_off_c, 5, 65, 0
1, 9711, Note_off_c, 10, 65, 0
1, 9755, Note_off_c, 9, 42, 0
1, 9756, Note_off_c, 9, 70, 0
1, 9944, Note_off_c, 9, 61, 0
1, 10067, Lyric_t, "."
1, 10070, Note_on_c, 3, 58, 55
1, 10070, Note_on_c, 5, 65, 66
1, 10070, Note_on_c, 9, 37, 105
1, 10070, Note_on_c, 9, 42, 105
1, 10070, Note_on_c, 9, 70, 102
1, 10070, Note_on_c, 7, 58, 55
1, 10070, Note_on_c, 10, 65, 66
1, 10216, Note_off_c, 0, 30, 0
1, 10282, Note_off_c, 9, 42, 0
1, 10297, Note_off_c, 9, 70, 0
1, 10344, Note_off_c, 9, 37, 0
1, 10410, Note_off_c, 3, 61, 0
1, 10410, Note_off_c, 7, 61, 0
1, 10504, Note_off_c, 5, 68, 0
1, 10504, Note_off_c, 10, 68, 0
1, 10550, Note_on_c, 0, 30, 80
1, 10550, Note_on_c, 3, 61, 66
1, 10550, Note_on_c, 5, 63, 72
1, 10550, Note_on_c, 9, 36, 99
1, 10550, Note_on_c, 9, 42, 87
1, 10550, Note_on_c, 9, 70, 93
1, 10550, Note_on_c, 9, 62, 82
1, 10550, Note_on_c, 7, 61, 66
1, 10550, Note_on_c, 10, 63, 72
1, 10740, Note_off_c, 9, 42, 0
1, 10749, Note_off_c, 9, 70, 0
1, 10774, Note_off_c, 0, 30, 0
1, 10790, Note_off_c, 9, 62, 0
1, 10796, Note_off_c, 9, 36, 0
1, 11030, Note_on_c, 0, 25, 84
1, 11030, Note_on_c, 9, 36, 93
1, 11030, Note_on_c, 9, 42, 93
1, 11030, Note_on_c, 9, 70, 82
1, 11253, Note_off_c, 9, 70, 0
1, 11259, Note_off_c, 9, 42, 0
1, 11270, Note_off_c, 9, 36, 0
1, 11510, Note_on_c, 3, 63, 62
1, 11510, Note_on_c, 5, 68, 74
1, 11510, Note_on_c, 9, 42, 80
1, 11510, Note_on_c, 9, 70, 72
1, 11510, Note_on_c, 9, 62, 99
1, 11510, Note_on_c, 7, 63, 62
1, 11510, Note_on_c, 10, 68, 74
1, 11526, Note_off_c, 5, 65, 0
1, 11526, Note_off_c, 10, 65, 0
1, 11617, Note_off_c, 5, 63, 0
1, 11617, Note_off_c, 10, 63, 0
1, 11657, Note_off_c, 9, 42, 0
1, 11672, Note_off_c, 9, 70, 0
1, 11712, Note_off_c, 3, 61, 0
1, 11712, Note_off_c, 7, 61, 0
1, 11851, Note_off_c, 9, 62, 0
1, 11944, Note_off_c, 4, 63, 0
1, 11944, Note_off_c, 8, 51, 0
1, 11990, Note_on_c, 5, 65, 55
1, 11990, Note_on_c, 9, 37, 99
1, 11990, Note_on_c, 9, 42, 102
1, 11990, Note_on_c, 9, 70, 99
1, 11990, Note_on_c, 9, 82, 84
1, 11990, Note_on_c, 10, 65, 55
1, 12022, Note_on_c, 4, 61, 114
1, 12022, Note_on_c, 8, 49, 114
1, 12090, Note_off_c, 0, 25, 0
1, 12145, Lyric_t, " u"
1, 12154, Note_off_c, 9, 82, 0
1, 12185, Note_off_c, 9, 42, 0
1, 12204, Note_off_c, 9, 70, 0
1, 12210, Note_off_c, 5, 68, 0
1, 12210, Note_off_c, 10, 68, 0
1, 12227, Note_off_c, 4, 61, 0
1, 12227, Note_off_c, 8, 49, 0
1, 12230, Note_off_c, 9, 37, 0
1, 12275, Note_off_c, 3, 54, 0
1, 12275, Note_off_c, 7, 54, 0
1, 12422, Lyric_t, "."
1, 12470, Note_on_c, 0, 25, 76
1, 12470, Note_on_c, 3, 54, 55
1, 12470, Note_on_c, 5, 61, 74
1, 12470, Note_on_c, 9, 36, 102
1, 12470, Note_on_c, 9, 42, 108
1, 12470, Note_on_c, 9, 70, 87
1, 12470, Note_on_c, 9, 60, 78
1, 12470, Note_on_c, 7, 54, 55
1, 12470, Note_on_c, 10, 61, 74
1, 12489, Note_on_c, 4, 58, 102
1, 12489, Note_on_c, 8, 46, 102
1, 12676, Lyric_t, "."
1, 12684, Note_off_c, 0, 25, 0
1, 12688, Note_off_c, 9, 70, 0
1, 12706, Note_off_c, 9, 42, 0
1, 12706, Note_off_c, 9, 60, 0
1, 12710, Note_off_c, 9, 36, 0
1, 12829, Note_off_c, 3, 58, 0
1, 12829, Note_off_c, 7, 58, 0
1, 12918, Lyric_t, "."
1, 12950, Note_on_c, 0, 30, 87
1, 12950, Note_on_c, 9, 42, 66
1, 12950, Note_on_c, 9, 70, 74
1, 13118, Note_off_c, 9, 70, 0
1, 13134, Note_off_c, 9, 42, 0
1, 13308, Note_off_c, 3, 54, 0
1, 13308, Note_off_c, 7, 54, 0
1, 13314, Note_off_c, 4, 58, 0
1, 13314, Note_off_c, 8, 46, 0
1, 13430, Note_on_c, 3, 54, 70
1, 13430, Note_on_c, 9, 42, 76
1, 13430, Note_on_c, 9, 70, 78
1, 13430, Note_on_c, 9, 62, 84
1, 13430, Note_on_c, 7, 54, 70
1, 13601, Note_off_c, 9, 70, 0
1, 13639, Note_off_c, 9, 42, 0
1, 13718, Note_off_c, 9, 62, 0
1, 13727, Lyric_t, ".!"
1, 13901, Note_off_c, 3, 63, 0
1, 13901, Note_off_c, 7, 63, 0
1, 13910, Note_on_c, 3, 56, 66
1, 13910, Note_on_c, 9, 37, 99
1, 13910, Note_on_c, 9, 42, 93
1, 13910, Note_on_c, 9, 82, 87
1, 13910, Note_on_c, 9, 70, 93
1, 13910, Note_on_c, 7, 56, 66
1, 14062, Note_off_c, 0, 30, 0
1, 14085, Note_off_c, 9, 82, 0
1, 14126, Note_off_c, 9, 42, 0
1, 14126, Note_off_c, 9, 70, 0
1, 14180, Note_off_c, 9, 37, 0
1, 14390, Note_on_c, 0, 30, 80
1, 14390, Note_on_c, 3, 61, 74
1, 14390, Note_on_c, 9, 36, 102
1, 14390, Note_on_c, 9, 42, 87
1, 14390, Note_on_c, 9, 70, 80
1, 14390, Note_on_c, 9, 60, 74
1, 14390, Note_on_c, 7, 61, 74
1, 14585, Note_off_c, 9, 42, 0
1, 14600, Note_off_c, 9, 70, 0
1, 14606, Note_off_c, 0, 30, 0
1, 14630, Note_off_c, 9, 36, 0
1, 14654, Note_off_c, 9, 60, 0
1, 14854, Note_on_c, 4, 63, 114
1, 14854, Note_on_c, 8, 51, 114
1, 14870, Note_on_c, 0, 25, 82
1, 14870, Note_on_c, 9, 36, 93
1, 14870, Note_on_c, 9, 42, 84
1, 14870, Note_on_c, 9, 70, 87
1, 15015, Lyric_t, "\\¡U"
1, 15039, Note_off_c, 3, 54, 0
1, 15039, Note_off_c, 7, 54, 0
1, 15049, Note_off_c, 9, 42, 0
1, 15095, Note_off_c, 9, 70, 0
1, 15110, Note_off_c, 9, 36, 0
1, 15279, Note_off_c, 4, 63, 0
1, 15279, Note_off_c, 8, 51, 0
1, 15292, Lyric_t, "."
1, 15333, Note_on_c, 4, 65, 84
1, 15333, Note_on_c, 8, 53, 84
1, 15350, Note_on_c, 3, 54, 68
1, 15350, Note_on_c, 9, 42, 78
1, 15350, Note_on_c, 9, 70, 78
1, 15350, Note_on_c, 9, 61, 78
1, 15350, Note_on_c, 7, 54, 68
1, 15506, Note_off_c, 9, 42, 0
1, 15534, Note_off_c, 3, 56, 0
1, 15534, Note_off_c, 7, 56, 0
1, 15555, Note_off_c, 9, 70, 0
1, 15590, Note_off_c, 9, 61, 0
1, 15702, Note_off_c, 0, 25, 0
1, 15807, Lyric_t, "."
1, 15830, Note_on_c, 0, 30, 93
1, 15830, Note_on_c, 3, 56, 58
1, 15830, Note_on_c, 9, 37, 105
1, 15830, Note_on_c, 9, 42, 105
1, 15830, Note_on_c, 9, 70, 93
1, 15830, Note_on_c, 7, 56, 58
1, 15841, Note_on_c, 4, 63, 108
1, 15841, Note_on_c, 8, 51, 108
1, 15848, Note_off_c, 4, 65, 0
1, 15848, Note_off_c, 8, 53, 0
1, 15926, Note_off_c, 5, 61, 0
1, 15926, Note_off_c, 10, 61, 0
1, 15977, Note_off_c, 5, 65, 0
1, 15977, Note_off_c, 10, 65, 0
1, 16020, Note_off_c, 9, 42, 0
1, 16044, Note_off_c, 9, 70, 0
1, 16148, Note_off_c, 9, 37, 0
1, 16267, Note_off_c, 4, 63, 0
1, 16267, Note_off_c, 8, 51, 0
1, 16275, Note_off_c, 5, 54, 0
1, 16275, Note_off_c, 10, 54, 0
1, 16310, Note_on_c, 9, 46, 102
1, 16310, Note_on_c, 9, 82, 74
1, 16310, Note_on_c, 9, 70, 99
1, 16310, Note_on_c, 9, 62, 96
1, 16323, Note_on_c, 4, 61, 108
1, 16323, Note_on_c, 8, 49, 108
1, 16484, Lyric_t, "."
1, 16493, Note_off_c, 9, 82, 0
1, 16507, Note_off_c, 9, 70, 0
1, 16550, Note_off_c, 9, 62, 0
1, 16567, Note_off_c, 9, 46, 0
1, 16601, Note_off_c, 0, 30, 0
1, 16672, Note_off_c, 3, 54, 0
1, 16672, Note_off_c, 7, 54, 0
1, 16714, Note_off_c, 3, 56, 0
1, 16714, Note_off_c, 7, 56, 0
1, 16716, Note_off_c, 4, 61, 0
1, 16716, Note_off_c, 8, 49, 0
1, 16790, Note_on_c, 0, 37, 87
1, 16790, Note_on_c, 3, 49, 66
1, 16790, Note_on_c, 5, 65, 82
1, 16790, Note_on_c, 9, 36, 96
1, 16790, Note_on_c, 9, 42, 105
1, 16790, Note_on_c, 9, 70, 90
1, 16790, Note_on_c, 9, 60, 111
1, 16790, Note_on_c, 7, 49, 66
1, 16790, Note_on_c, 10, 65, 82
1, 16826, Note_on_c, 4, 63, 108
1, 16826, Note_on_c, 8, 51, 108
1, 16982, Note_off_c, 9, 42, 0
1, 17003, Note_off_c, 9, 70, 0
1, 17006, Note_off_c, 9, 60, 0
1, 17030, Note_off_c, 9, 36, 0
1, 17142, Note_off_c, 3, 61, 0
1, 17142, Note_off_c, 7, 61, 0
1, 17270, Note_on_c, 3, 53, 59
1, 17270, Note_on_c, 5, 68, 76
1, 17270, Note_on_c, 9, 42, 59
1, 17270, Note_on_c, 9, 70, 78
1, 17270, Note_on_c, 9, 61, 82
1, 17270, Note_on_c, 7, 53, 59
1, 17270, Note_on_c, 10, 68, 76
1, 17374, Note_off_c, 9, 61, 0
1, 17406, Note_off_c, 9, 42, 0
1, 17465, Note_off_c, 9, 70, 0
1, 17604, Note_off_c, 5, 65, 0
1, 17604, Note_off_c, 10, 65, 0
1, 17750, Note_on_c, 3, 56, 54
1, 17750, Note_on_c, 5, 65, 61
1, 17750, Note_on_c, 9, 37, 105
1, 17750, Note_on_c, 9, 42, 105
1, 17750, Note_on_c, 9, 70, 90
1, 17750, Note_on_c, 9, 82, 82
1, 17750, Note_on_c, 7, 56, 54
1, 17750, Note_on_c, 10, 65, 61
1, 17820, Note_off_c, 5, 68, 0
1, 17820, Note_off_c, 10, 68, 0
1, 17876, Note_off_c, 0, 37, 0
1, 17899, Note_off_c, 9, 82, 0
1, 17947, Note_off_c, 9, 70, 0
1, 17973, Lyric_t, "."
1, 17979, Note_off_c, 9, 42, 0
1, 18024, Note_off_c, 9, 37, 0
1, 18230, Note_on_c, 0, 37, 102
1, 18230, Note_on_c, 5, 63, 80
1, 18230, Note_on_c, 9, 36, 99
1, 18230, Note_on_c, 9, 42, 80
1, 18230, Note_on_c, 9, 70, 99
1, 18230, Note_on_c, 9, 62, 90
1, 18230, Note_on_c, 10, 63, 80
1, 18401, Note_off_c, 9, 42, 0
1, 18429, Note_off_c, 9, 62, 0
1, 18448, Note_off_c, 0, 37, 0
1, 18457, Note_off_c, 9, 70, 0
1, 18476, Note_off_c, 9, 36, 0
1, 18710, Note_on_c, 0, 32, 84
1, 18710, Note_on_c, 9, 36, 93
1, 18710, Note_on_c, 9, 42, 102
1, 18710, Note_on_c, 9, 70, 76
1, 18898, Note_off_c, 9, 70, 0
1, 18937, Note_off_c, 9, 42, 0
1, 18950, Note_off_c, 9, 36, 0
1, 19190, Note_on_c, 3, 61, 59
1, 19190, Note_on_c, 5, 68, 76
1, 19190, Note_on_c, 9, 42, 70
1, 19190, Note_on_c, 9, 70, 64
1, 19190, Note_on_c, 9, 60, 93
1, 19190, Note_on_c, 7, 61, 59
1, 19190, Note_on_c, 10, 68, 76
1, 19254, Note_off_c, 5, 63, 0
1, 19254, Note_off_c, 10, 63, 0
1, 19356, Note_off_c, 9, 70, 0
1, 19359, Note_off_c, 9, 42, 0
1, 19395, Note_off_c, 9, 60, 0
1, 19670, Note_off_c, 0, 32, 0
1, 19670, Note_on_c, 0, 32, 87
1, 19670, Note_on_c, 9, 37, 99
1, 19670, Note_on_c, 9, 42, 105
1, 19670, Note_on_c, 9, 70, 102
1, 19673, Note_off_c, 0, 32, 0
1, 19684, Note_on_c, 4, 61, 114
1, 19684, Note_on_c, 8, 49, 114
1, 19718, Note_off_c, 4, 63, 0
1, 19718, Note_off_c, 8, 51, 0
1, 19858, Lyric_t, " u"
1, 19873, Note_off_c, 3, 49, 0
1, 19873, Note_off_c, 7, 49, 0
1, 19901, Note_off_c, 9, 42, 0
1, 19901, Note_off_c, 9, 70, 0
1, 19910, Note_off_c, 9, 37, 0
1, 19945, Note_off_c, 4, 61, 0
1, 19945, Note_off_c, 8, 49, 0
1, 19976, Note_off_c, 3, 53, 0
1, 19976, Note_off_c, 7, 53, 0
1, 20143, Lyric_t, "."
1, 20150, Note_on_c, 3, 49, 70
1, 20150, Note_on_c, 5, 61, 74
1, 20150, Note_on_c, 9, 36, 102
1, 20150, Note_on_c, 9, 42, 93
1, 20150, Note_on_c, 9, 82, 74
1, 20150, Note_on_c, 9, 70, 102
1, 20150, Note_on_c, 9, 61, 87
1, 20150, Note_on_c, 7, 49, 70
1, 20150, Note_on_c, 10, 61, 74
1, 20165, Note_on_c, 4, 56, 114
1, 20165, Note_on_c, 8, 44, 114
1, 20319, Note_off_c, 9, 82, 0
1, 20355, Note_off_c, 9, 61, 0
1, 20383, Note_off_c, 9, 42, 0
1, 20390, Note_off_c, 9, 36, 0
1, 20390, Note_off_c, 9, 70, 0
1, 20400, Lyric_t, "."
1, 20630, Note_on_c, 0, 25, 78
1, 20630, Note_on_c, 9, 42, 66
1, 20630, Note_on_c, 9, 70, 76
1, 20644, Lyric_t, "."
1, 20805, Note_off_c, 9, 70, 0
1, 20809, Note_off_c, 9, 42, 0
1, 20911, Note_off_c, 4, 56, 0
1, 20911, Note_off_c, 8, 44, 0
1, 21110, Note_on_c, 3, 53, 70
1, 21110, Note_on_c, 5, 56, 82
1, 21110, Note_on_c, 9, 42, 87
1, 21110, Note_on_c, 9, 70, 74
1, 21110, Note_on_c, 9, 62, 93
1, 21110, Note_on_c, 7, 53, 70
1, 21110, Note_on_c, 10, 56, 82
1, 21188, Note_off_c, 3, 56, 0
1, 21188, Note_off_c, 7, 56, 0
1, 21306, Note_off_c, 9, 70, 0
1, 21339, Note_off_c, 9, 42, 0
1, 21346, Note_off_c, 9, 62, 0
1, 21462, Lyric_t, ".!"
1, 21524, Note_off_c, 5, 61, 0
1, 21524, Note_off_c, 10, 61, 0
1, 21581, Note_off_c, 3, 61, 0
1, 21581, Note_off_c, 7, 61, 0
1, 21590, Note_on_c, 3, 56, 55
1, 21590, Note_on_c, 9, 37, 99
1, 21590, Note_on_c, 9, 42, 99
1, 21590, Note_on_c, 9, 70, 93
1, 21590, Note_on_c, 7, 56, 55
1, 21725, Note_off_c, 0, 25, 0
1, 21795, Note_off_c, 5, 68, 0
1, 21795, Note_off_c, 10, 68, 0
1, 21815, Note_off_c, 9, 42, 0
1, 21816, Note_off_c, 9, 70, 0
1, 21860, Note_off_c, 9, 37, 0
1, 22070, Note_on_c, 0, 25, 87
1, 22070, Note_on_c, 3, 61, 66
1, 22070, Note_on_c, 5, 61, 74
1, 22070, Note_on_c, 9, 36, 102
1, 22070, Note_on_c, 9, 42, 82
1, 22070, Note_on_c, 9, 70, 78
1, 22070, Note_on_c, 9, 62, 99
1, 22070, Note_on_c, 7, 61, 66
1, 22070, Note_on_c, 10, 61, 74
1, 22249, Note_off_c, 9, 70, 0
1, 22260, Note_off_c, 9, 42, 0
1, 22310, Note_off_c, 9, 36, 0
1, 22310, Note_off_c, 9, 62, 0
1, 22335, Note_off_c, 0, 25, 0
1, 22550, Note_on_c, 0, 32, 80
1, 22550, Note_on_c, 9, 36, 93
1, 22550, Note_on_c, 9, 42, 84
1, 22550, Note_on_c, 9, 70, 93
1, 22731, Note_off_c, 5, 65, 0
1, 22731, Note_off_c, 10, 65, 0
1, 22759, Note_off_c, 9, 42, 0
1, 22760, Note_off_c, 9, 70, 0
1, 22790, Note_off_c, 9, 36, 0
1, 23030, Note_on_c, 3, 63, 66
1, 23030, Note_on_c, 9, 42, 76
1, 23030, Note_on_c, 9, 70, 76
1, 23030, Note_on_c, 9, 61, 78
1, 23030, Note_on_c, 7, 63, 66
1, 23102, Note_off_c, 3, 61, 0
1, 23102, Note_off_c, 7, 61, 0
1, 23186, Note_off_c, 9, 70, 0
1, 23203, Note_off_c, 9, 42, 0
1, 23321, Note_off_c, 9, 61, 0
1, 23349, Note_off_c, 0, 32, 0
1, 23423, Note_off_c, 3, 53, 0
1, 23423, Note_off_c, 7, 53, 0
1, 23510, Note_on_c, 0, 32, 84
1, 23510, Note_on_c, 3, 53, 70
1, 23510, Note_on_c, 9, 37, 105
1, 23510, Note_on_c, 9, 42, 105
1, 23510, Note_on_c, 9, 70, 102
1, 23510, Note_on_c, 9, 82, 78
1, 23510, Note_on_c, 7, 53, 70
1, 23674, Note_off_c, 9, 70, 0
1, 23674, Note_off_c, 9, 82, 0
1, 23750, Note_off_c, 9, 42, 0
1, 23828, Note_off_c, 9, 37, 0
1, 23862, Note_off_c, 3, 56, 0
1, 23862, Note_off_c, 7, 56, 0
1, 23990, Note_on_c, 9, 42, 76
1, 23990, Note_on_c, 9, 82, 87
1, 23990, Note_on_c, 9, 70, 82
1, 23990, Note_on_c, 9, 61, 76
1, 24159, Note_off_c, 9, 42, 0
1, 24174, Note_off_c, 9, 82, 0
1, 24182, Note_off_c, 9, 70, 0
1, 24243, Note_off_c, 9, 61, 0
1, 24309, Note_off_c, 0, 32, 0
1, 24470, Note_on_c, 0, 25, 82
1, 24470, Note_on_c, 5, 65, 74
1, 24470, Note_on_c, 9, 36, 96
1, 24470, Note_on_c, 9, 42, 99
1, 24470, Note_on_c, 9, 70, 93
1, 24470, Note_on_c, 9, 60, 82
1, 24470, Note_on_c, 10, 65, 74
1, 24498, Note_on_c, 4, 63, 108
1, 24498, Note_on_c, 8, 51, 108
1, 24656, Lyric_t, "\\¡U"
1, 24665, Note_off_c, 9, 60, 0
1, 24704, Note_off_c, 9, 70, 0
1, 24705, Note_off_c, 9, 42, 0
1, 24710, Note_off_c, 9, 36, 0
1, 24916, Note_off_c, 3, 63, 0
1, 24916, Note_off_c, 7, 63, 0
1, 24941, Lyric_t, "."
1, 24950, Note_on_c, 3, 61, 49
1, 24950, Note_on_c, 5, 68, 70
1, 24950, Note_on_c, 9, 42, 72
1, 24950, Note_on_c, 9, 70, 76
1, 24950, Note_on_c, 9, 61, 72
1, 24950, Note_on_c, 7, 61, 49
1, 24950, Note_on_c, 10, 68, 70
1, 25115, Note_off_c, 9, 42, 0
1, 25116, Note_off_c, 9, 70, 0
1, 25143, Note_off_c, 5, 65, 0
1, 25143, Note_off_c, 10, 65, 0
1, 25304, Note_off_c, 9, 61, 0
1, 25345, Lyric_t, "."
1, 25422, Note_off_c, 5, 61, 0
1, 25422, Note_off_c, 10, 61, 0
1, 25430, Note_on_c, 3, 56, 61
1, 25430, Note_on_c, 5, 65, 58
1, 25430, Note_on_c, 9, 37, 105
1, 25430, Note_on_c, 9, 42, 105
1, 25430, Note_on_c, 9, 70, 102
1, 25430, Note_on_c, 7, 56, 61
1, 25430, Note_on_c, 10, 65, 58
1, 25601, Note_off_c, 3, 53, 0
1, 25601, Note_off_c, 7, 53, 0
1, 25642, Note_off_c, 9, 42, 0
1, 25657, Note_off_c, 9, 70, 0
1, 25658, Note_off_c, 0, 25, 0
1, 25704, Note_off_c, 9, 37, 0
1, 25910, Note_on_c, 0, 25, 93
1, 25910, Note_on_c, 3, 53, 59
1, 25910, Note_on_c, 5, 63, 68
1, 25910, Note_on_c, 9, 36, 99
1, 25910, Note_on_c, 9, 42, 87
1, 25910, Note_on_c, 9, 70, 93
1, 25910, Note_on_c, 9, 62, 82
1, 25910, Note_on_c, 7, 53, 59
1, 25910, Note_on_c, 10, 63, 68
1, 26047, Note_off_c, 5, 68, 0
1, 26047, Note_off_c, 10, 68, 0
1, 26059, Note_off_c, 0, 25, 0
1, 26100, Note_off_c, 9, 42, 0
1, 26109, Note_off_c, 9, 70, 0
1, 26150, Note_off_c, 9, 62, 0
1, 26156, Note_off_c, 9, 36, 0
1, 26390, Note_on_c, 0, 32, 87
1, 26390, Note_on_c, 9, 36, 93
1, 26390, Note_on_c, 9, 42, 93
1, 26390, Note_on_c, 9, 70, 82
1, 26514, Lyric_t, "."
1, 26613, Note_off_c, 9, 70, 0
1, 26619, Note_off_c, 9, 42, 0
1, 26630, Note_off_c, 9, 36, 0
1, 26737, Note_off_c, 3, 56, 0
1, 26737, Note_off_c, 7, 56, 0
1, 26870, Note_on_c, 3, 56, 70
1, 26870, Note_on_c, 5, 68, 80
1, 26870, Note_on_c, 9, 42, 80
1, 26870, Note_on_c, 9, 70, 72
1, 26870, Note_on_c, 9, 62, 99
1, 26870, Note_on_c, 7, 56, 70
1, 26870, Note_on_c, 10, 68, 80
1, 27017, Note_off_c, 9, 42, 0
1, 27032, Note_off_c, 9, 70, 0
1, 27211, Note_off_c, 9, 62, 0
1, 27268, Note_off_c, 5, 65, 0
1, 27268, Note_off_c, 10, 65, 0
1, 27284, Note_off_c, 5, 63, 0
1, 27284, Note_off_c, 10, 63, 0
1, 27302, Note_off_c, 4, 63, 0
1, 27302, Note_off_c, 8, 51, 0
1, 27350, Note_on_c, 4, 61, 102
1, 27350, Note_on_c, 5, 65, 61
1, 27350, Note_on_c, 9, 37, 99
1, 27350, Note_on_c, 9, 42, 102
1, 27350, Note_on_c, 9, 70, 99
1, 27350, Note_on_c, 9, 82, 84
1, 27350, Note_on_c, 8, 49, 102
1, 27350, Note_on_c, 10, 65, 61
1, 27472, Lyric_t, " u"
1, 27514, Note_off_c, 9, 82, 0
1, 27545, Note_off_c, 9, 42, 0
1, 27564, Note_off_c, 9, 70, 0
1, 27576, Note_off_c, 4, 61, 0
1, 27576, Note_off_c, 8, 49, 0
1, 27661, Note_off_c, 9, 37, 0
1, 27665, Note_off_c, 3, 61, 0
1, 27665, Note_off_c, 7, 61, 0
1, 27737, Lyric_t, "."
1, 27830, Note_on_c, 3, 61, 59
1, 27830, Note_on_c, 5, 61, 76
1, 27830, Note_on_c, 9, 36, 102
1, 27830, Note_on_c, 9, 42, 108
1, 27830, Note_on_c, 9, 70, 87
1, 27830, Note_on_c, 9, 60, 78
1, 27830, Note_on_c, 7, 61, 59
1, 27830, Note_on_c, 10, 61, 76
1, 27831, Note_on_c, 4, 56, 105
1, 27831, Note_on_c, 8, 44, 105
1, 27991, Lyric_t, "."
1, 28048, Note_off_c, 9, 70, 0
1, 28066, Note_off_c, 9, 42, 0
1, 28066, Note_off_c, 9, 60, 0
1, 28070, Note_off_c, 9, 36, 0
1, 28142, Note_off_c, 0, 32, 0
1, 28225, Lyric_t, "."
1, 28310, Note_on_c, 0, 25, 76
1, 28310, Note_on_c, 9, 42, 66
1, 28310, Note_on_c, 9, 70, 74
1, 28477, Note_off_c, 3, 49, 0
1, 28477, Note_off_c, 7, 49, 0
1, 28478, Note_off_c, 9, 70, 0
1, 28494, Note_off_c, 9, 42, 0
1, 28622, Note_off_c, 4, 56, 0
1, 28622, Note_off_c, 8, 44, 0
1, 28629, Note_off_c, 3, 53, 0
1, 28629, Note_off_c, 7, 53, 0
1, 28701, Note_off_c, 5, 56, 0
1, 28701, Note_off_c, 10, 56, 0
1, 28790, Note_on_c, 3, 49, 68
1, 28790, Note_on_c, 5, 56, 66
1, 28790, Note_on_c, 9, 42, 76
1, 28790, Note_on_c, 9, 70, 78
1, 28790, Note_on_c, 9, 62, 84
1, 28790, Note_on_c, 7, 49, 68
1, 28790, Note_on_c, 10, 56, 66
1, 28795, Lyric_t, ".!"
1, 28961, Note_off_c, 9, 70, 0
1, 28988, Note_off_c, 5, 61, 0
1, 28988, Note_off_c, 10, 61, 0
1, 28999, Note_off_c, 9, 42, 0
1, 29078, Note_off_c, 9, 62, 0
1, 29270, Note_on_c, 3, 53, 68
1, 29270, Note_on_c, 9, 37, 99
1, 29270, Note_on_c, 9, 42, 93
1, 29270, Note_on_c, 9, 82, 87
1, 29270, Note_on_c, 9, 70, 93
1, 29270, Note_on_c, 7, 53, 68
1, 29401, Note_off_c, 0, 25, 0
1, 29444, Note_off_c, 3, 56, 0
1, 29444, Note_off_c, 7, 56, 0
1, 29445, Note_off_c, 9, 82, 0
1, 29486, Note_off_c, 9, 42, 0
1, 29486, Note_off_c, 9, 70, 0
1, 29540, Note_off_c, 9, 37, 0
1, 29546, Note_off_c, 5, 68, 0
1, 29546, Note_off_c, 10, 68, 0
1, 29559, Note_off_c, 5, 65, 0
1, 29559, Note_off_c, 10, 65, 0
1, 29701, Note_off_c, 3, 61, 0
1, 29701, Note_off_c, 7, 61, 0
1, 29750, Note_on_c, 0, 25, 76
1, 29750, Note_on_c, 3, 56, 76
1, 29750, Note_on_c, 5, 61, 87
1, 29750, Note_on_c, 9, 36, 102
1, 29750, Note_on_c, 9, 42, 87
1, 29750, Note_on_c, 9, 70, 80
1, 29750, Note_on_c, 9, 60, 74
1, 29750, Note_on_c, 7, 56, 76
1, 29750, Note_on_c, 10, 61, 87
1, 29945, Note_off_c, 9, 42, 0
1, 29960, Note_off_c, 9, 70, 0
1, 29990, Note_off_c, 9, 36, 0
1, 30014, Note_off_c, 9, 60, 0
1, 30230, Note_on_c, 9, 36, 93
1, 30230, Note_on_c, 9, 42, 84
1, 30230, Note_on_c, 9, 70, 87
1, 30409, Note_off_c, 9, 42, 0
1, 30455, Note_off_c, 9, 70, 0
1, 30470, Note_off_c, 9, 36, 0
1, 30646, Note_off_c, 0, 25, 0
1, 30710, Note_on_c, 0, 25, 105
1, 30710, Note_on_c, 3, 63, 68
1, 30710, Note_on_c, 5, 63, 72
1, 30710, Note_on_c, 9, 42, 78
1, 30710, Note_on_c, 9, 70, 78
1, 30710, Note_on_c, 9, 61, 78
1, 30710, Note_on_c, 9, 42, 72
1, 30710, Note_on_c, 7, 63, 68
1, 30710, Note_on_c, 10, 63, 72
1, 30792, Note_off_c, 9, 42, 0
1, 30810, Note_off_c, 5, 61, 0
1, 30810, Note_off_c, 10, 61, 0
1, 30915, Note_off_c, 9, 70, 0
1, 30944, Note_off_c, 0, 25, 0
1, 30950, Note_on_c, 9, 42, 84
1, 31077, Note_off_c, 9, 61, 0
1, 31082, Note_off_c, 9, 42, 0
1, 31139, Note_off_c, 3, 56, 0
1, 31139, Note_off_c, 7, 56, 0
1, 31190, Note_on_c, 0, 32, 82
1, 31190, Note_on_c, 3, 61, 59
1, 31190, Note_on_c, 9, 37, 105
1, 31190, Note_on_c, 9, 42, 105
1, 31190, Note_on_c, 9, 70, 93
1, 31190, Note_on_c, 9, 42, 90
1, 31190, Note_on_c, 7, 61, 59
1, 31191, Note_on_c, 2, 73, 102
1, 31378, Lyric_t, "\\Si"
1, 31380, Note_off_c, 9, 42, 0
1, 31404, Note_off_c, 9, 70, 0
1, 31409, Note_off_c, 2, 73, 0
1, 31410, Note_off_c, 5, 56, 0
1, 31410, Note_off_c, 10, 56, 0
1, 31429, Note_off_c, 5, 63, 0
1, 31429, Note_off_c, 10, 63, 0
1, 31430, Note_off_c, 9, 37, 0
1, 31490, Note_off_c, 3, 63, 0
1, 31490, Note_off_c, 7, 63, 0
1, 31670, Note_on_c, 2, 73, 105
1, 31670, Note_on_c, 3, 56, 58
1, 31670, Note_on_c, 9, 46, 102
1, 31670, Note_on_c, 9, 82, 74
1, 31670, Note_on_c, 9, 70, 99
1, 31670, Note_on_c, 9, 62, 96
1, 31670, Note_on_c, 9, 46, 108
1, 31670, Note_on_c, 7, 56, 58
1, 31678, Note_off_c, 3, 49, 0
1, 31678, Note_off_c, 7, 49, 0
1, 31696, Note_off_c, 3, 53, 0
1, 31696, Note_off_c, 7, 53, 0
1, 31713, Note_off_c, 0, 32, 0
1, 31797, Note_off_c, 9, 46, 0
1, 31823, Lyric_t, " pu"
1, 31853, Note_off_c, 9, 82, 0
1, 31867, Note_off_c, 9, 70, 0
1, 31879, Note_off_c, 3, 61, 0
1, 31879, Note_off_c, 7, 61, 0
1, 31890, Note_off_c, 3, 56, 0
1, 31890, Note_off_c, 7, 56, 0
1, 31891, Note_off_c, 2, 73, 0
1, 31910, Note_off_c, 9, 62, 0
1, 32150, Note_on_c, 2, 73, 108
1, 32150, Note_on_c, 3, 61, 78
1, 32150, Note_on_c, 9, 36, 96
1, 32150, Note_on_c, 9, 42, 105
1, 32150, Note_on_c, 9, 70, 90
1, 32150, Note_on_c, 9, 60, 111
1, 32150, Note_on_c, 7, 61, 78
1, 32192, Lyric_t, "di"
1, 32236, Note_on_c, 0, 27, 99
1, 32342, Note_off_c, 9, 42, 0
1, 32363, Note_off_c, 9, 70, 0
1, 32366, Note_off_c, 9, 60, 0
1, 32390, Note_off_c, 9, 36, 0
1, 32578, Lyric_t, "e"
1, 32623, Note_off_c, 2, 73, 0
1, 32630, Note_on_c, 3, 51, 51
1, 32630, Note_on_c, 9, 42, 59
1, 32630, Note_on_c, 9, 70, 78
1, 32630, Note_on_c, 9, 61, 82
1, 32630, Note_on_c, 7, 51, 51
1, 32647, Note_on_c, 2, 66, 87
1, 32734, Note_off_c, 9, 61, 0
1, 32766, Note_off_c, 9, 42, 0
1, 32825, Note_off_c, 9, 70, 0
1, 32869, Note_off_c, 2, 66, 0
1, 33017, Lyric_t, "ra"
1, 33092, Note_on_c, 2, 75, 114
1, 33110, Note_on_c, 3, 54, 48
1, 33110, Note_on_c, 9, 37, 105
1, 33110, Note_on_c, 9, 42, 105
1, 33110, Note_on_c, 9, 70, 90
1, 33110, Note_on_c, 9, 82, 82
1, 33110, Note_on_c, 7, 54, 48
1, 33206, Note_off_c, 0, 27, 0
1, 33259, Note_off_c, 9, 82, 0
1, 33303, Note_off_c, 2, 75, 0
1, 33307, Note_off_c, 9, 70, 0
1, 33339, Note_off_c, 9, 42, 0
1, 33350, Note_off_c, 9, 37, 0
1, 33353, Lyric_t, " ba"
1, 33558, Note_on_c, 0, 27, 74
1, 33590, Note_off_c, 3, 61, 0
1, 33590, Note_off_c, 7, 61, 0
1, 33590, Note_on_c, 2, 73, 105
1, 33590, Note_on_c, 3, 63, 59
1, 33590, Note_on_c, 9, 36, 99
1, 33590, Note_on_c, 9, 42, 80
1, 33590, Note_on_c, 9, 70, 99
1, 33590, Note_on_c, 9, 62, 90
1, 33590, Note_on_c, 7, 63, 59
1, 33671, Lyric_t, "jar"
1, 33761, Note_off_c, 9, 42, 0
1, 33789, Note_off_c, 9, 62, 0
1, 33817, Note_off_c, 0, 27, 0
1, 33817, Note_off_c, 9, 70, 0
1, 33836, Note_off_c, 9, 36, 0
1, 34070, Note_on_c, 9, 36, 93
1, 34070, Note_on_c, 9, 42, 102
1, 34070, Note_on_c, 9, 70, 76
1, 34109, Note_on_c, 0, 34, 76
1, 34258, Note_off_c, 9, 70, 0
1, 34297, Note_off_c, 9, 42, 0
1, 34310, Note_off_c, 9, 36, 0
1, 34409, Note_off_c, 2, 73, 0
1, 34550, Note_on_c, 3, 61, 70
1, 34550, Note_on_c, 9, 42, 70
1, 34550, Note_on_c, 9, 70, 64
1, 34550, Note_on_c, 9, 60, 93
1, 34550, Note_on_c, 7, 61, 70
1, 34569, Note_on_c, 2, 66, 93
1, 34629, Note_off_c, 3, 54, 0
1, 34629, Note_off_c, 7, 54, 0
1, 34705, Lyric_t, "te"
1, 34716, Note_off_c, 9, 70, 0
1, 34719, Note_off_c, 9, 42, 0
1, 34755, Note_off_c, 9, 60, 0
1, 34874, Note_off_c, 2, 66, 0
1, 35023, Note_on_c, 2, 75, 87
1, 35030, Note_on_c, 3, 54, 66
1, 35030, Note_on_c, 9, 37, 99
1, 35030, Note_on_c, 9, 42, 105
1, 35030, Note_on_c, 9, 70, 102
1, 35030, Note_on_c, 7, 54, 66
1, 35060, Lyric_t, "\\U"
1, 35184, Note_off_c, 0, 34, 0
1, 35251, Note_off_c, 3, 63, 0
1, 35251, Note_off_c, 7, 63, 0
1, 35261, Note_off_c, 9, 42, 0
1, 35261, Note_off_c, 9, 70, 0
1, 35270, Note_off_c, 9, 37, 0
1, 35275, Note_off_c, 2, 75, 0
1, 35292, Lyric_t, "na"
1, 35391, Note_off_c, 3, 61, 0
1, 35391, Note_off_c, 7, 61, 0
1, 35498, Note_on_c, 2, 73, 102
1, 35510, Note_on_c, 3, 61, 64
1, 35510, Note_on_c, 9, 36, 102
1, 35510, Note_on_c, 9, 42, 93
1, 35510, Note_on_c, 9, 82, 74
1, 35510, Note_on_c, 9, 70, 102
1, 35510, Note_on_c, 9, 61, 87
1, 35510, Note_on_c, 7, 61, 64
1, 35523, Note_on_c, 0, 34, 64
1, 35618, Lyric_t, " es"
1, 35679, Note_off_c, 9, 82, 0
1, 35683, Note_off_c, 0, 34, 0
1, 35715, Note_off_c, 9, 61, 0
1, 35743, Note_off_c, 9, 42, 0
1, 35750, Note_off_c, 9, 36, 0
1, 35778, Note_off_c, 9, 70, 0
1, 35990, Note_on_c, 9, 42, 66
1, 35990, Note_on_c, 9, 70, 76
1, 36029, Note_on_c, 0, 27, 82
1, 36061, Lyric_t, "tre"
1, 36165, Note_off_c, 9, 70, 0
1, 36169, Note_off_c, 9, 42, 0
1, 36351, Note_off_c, 2, 73, 0
1, 36452, Note_on_c, 2, 66, 90
1, 36470, Note_on_c, 9, 42, 87
1, 36470, Note_on_c, 9, 70, 74
1, 36470, Note_on_c, 9, 62, 93
1, 36633, Lyric_t, "lla"
1, 36666, Note_off_c, 9, 70, 0
1, 36699, Note_off_c, 9, 42, 0
1, 36706, Note_off_c, 9, 62, 0
1, 36895, Note_off_c, 2, 66, 0
1, 36921, Note_on_c, 2, 75, 90
1, 36950, Note_on_c, 3, 56, 62
1, 36950, Note_on_c, 9, 37, 99
1, 36950, Note_on_c, 9, 42, 99
1, 36950, Note_on_c, 9, 70, 93
1, 36950, Note_on_c, 7, 56, 62
1, 37014, Note_off_c, 0, 27, 0
1, 37078, Lyric_t, " del"
1, 37117, Note_off_c, 3, 61, 0
1, 37117, Note_off_c, 7, 61, 0
1, 37175, Note_off_c, 9, 42, 0
1, 37176, Note_off_c, 9, 70, 0
1, 37220, Note_off_c, 9, 37, 0
1, 37291, Note_off_c, 2, 75, 0
1, 37409, Note_on_c, 2, 73, 108
1, 37430, Note_on_c, 3, 61, 74
1, 37430, Note_on_c, 9, 36, 102
1, 37430, Note_on_c, 9, 42, 82
1, 37430, Note_on_c, 9, 70, 78
1, 37430, Note_on_c, 9, 62, 99
1, 37430, Note_on_c, 7, 61, 74
1, 37431, Note_on_c, 0, 27, 99
1, 37454, Lyric_t, " Ci"
1, 37609, Note_off_c, 9, 70, 0
1, 37610, Note_off_c, 0, 27, 0
1, 37620, Note_off_c, 9, 42, 0
1, 37670, Note_off_c, 9, 36, 0
1, 37695, Note_off_c, 9, 62, 0
1, 37783, Note_off_c, 2, 73, 0
1, 37823, Lyric_t, "e"
1, 37900, Note_on_c, 2, 73, 90
1, 37902, Note_on_c, 0, 34, 84
1, 37910, Note_on_c, 9, 36, 93
1, 37910, Note_on_c, 9, 42, 84
1, 37910, Note_on_c, 9, 70, 93
1, 38049, Note_off_c, 3, 54, 0
1, 38049, Note_off_c, 7, 54, 0
1, 38119, Note_off_c, 9, 42, 0
1, 38120, Note_off_c, 9, 70, 0
1, 38129, Lyric_t, "l"
1, 38150, Note_off_c, 9, 36, 0
1, 38230, Note_off_c, 2, 73, 0
1, 38390, Note_on_c, 9, 42, 76
1, 38390, Note_on_c, 9, 70, 76
1, 38390, Note_on_c, 9, 61, 78
1, 38546, Note_off_c, 9, 70, 0
1, 38563, Note_off_c, 9, 42, 0
1, 38681, Note_off_c, 9, 61, 0
1, 38718, Note_off_c, 0, 34, 0
1, 38732, Lyric_t, "o"
1, 38846, Note_on_c, 0, 27, 74
1, 38870, Note_on_c, 3, 54, 29
1, 38870, Note_on_c, 9, 37, 105
1, 38870, Note_on_c, 9, 42, 105
1, 38870, Note_on_c, 9, 70, 102
1, 38870, Note_on_c, 9, 82, 78
1, 38870, Note_on_c, 7, 54, 29
1, 39026, Note_off_c, 3, 56, 0
1, 39026, Note_off_c, 7, 56, 0
1, 39034, Note_off_c, 9, 70, 0
1, 39034, Note_off_c, 9, 82, 0
1, 39110, Note_off_c, 9, 42, 0
1, 39188, Note_off_c, 9, 37, 0
1, 39219, Note_off_c, 0, 27, 0
1, 39327, Note_on_c, 0, 29, 72
1, 39332, Note_on_c, 2, 73, 114
1, 39350, Note_on_c, 9, 42, 76
1, 39350, Note_on_c, 9, 82, 87
1, 39350, Note_on_c, 9, 70, 82
1, 39350, Note_on_c, 9, 61, 76
1, 39433, Note_off_c, 3, 61, 0
1, 39433, Note_off_c, 7, 61, 0
1, 39509, Lyric_t, "\\Lo"
1, 39519, Note_off_c, 9, 42, 0
1, 39534, Note_off_c, 9, 82, 0
1, 39542, Note_off_c, 9, 70, 0
1, 39590, Note_off_c, 9, 61, 0
1, 39602, Note_off_c, 2, 73, 0
1, 39643, Note_off_c, 0, 29, 0
1, 39807, Note_on_c, 2, 73, 105
1, 39830, Note_on_c, 0, 30, 76
1, 39830, Note_on_c, 3, 61, 76
1, 39830, Note_on_c, 9, 36, 96
1, 39830, Note_on_c, 9, 42, 99
1, 39830, Note_on_c, 9, 70, 93
1, 39830, Note_on_c, 9, 60, 82
1, 39830, Note_on_c, 7, 61, 76
1, 39934, Lyric_t, " ha"
1, 39942, Note_off_c, 3, 54, 0
1, 39942, Note_off_c, 7, 54, 0
1, 40017, Note_off_c, 3, 51, 0
1, 40017, Note_off_c, 7, 51, 0
1, 40025, Note_off_c, 9, 60, 0
1, 40064, Note_off_c, 9, 70, 0
1, 40065, Note_off_c, 9, 42, 0
1, 40070, Note_off_c, 9, 36, 0
1, 40107, Note_off_c, 2, 73, 0
1, 40192, Lyric_t, "ri"
1, 40302, Note_on_c, 2, 66, 99
1, 40310, Note_on_c, 3, 54, 59
1, 40310, Note_on_c, 9, 42, 72
1, 40310, Note_on_c, 9, 70, 76
1, 40310, Note_on_c, 9, 61, 72
1, 40310, Note_on_c, 7, 54, 59
1, 40475, Note_off_c, 9, 42, 0
1, 40476, Note_off_c, 9, 70, 0
1, 40512, Lyric_t, "a"
1, 40550, Note_off_c, 9, 61, 0
1, 40591, Note_off_c, 2, 66, 0
1, 40772, Note_on_c, 2, 75, 114
1, 40790, Note_on_c, 3, 58, 48
1, 40790, Note_on_c, 9, 37, 105
1, 40790, Note_on_c, 9, 42, 105
1, 40790, Note_on_c, 9, 70, 102
1, 40790, Note_on_c, 7, 58, 48
1, 40839, Note_off_c, 0, 30, 0
1, 40841, Lyric_t, " sin"
1, 41002, Note_off_c, 9, 42, 0
1, 41017, Note_off_c, 9, 70, 0
1, 41064, Note_off_c, 9, 37, 0
1, 41125, Note_off_c, 2, 75, 0
1, 41218, Lyric_t, " pen"
1, 41265, Note_on_c, 0, 30, 82
1, 41270, Note_on_c, 3, 63, 62
1, 41270, Note_on_c, 9, 36, 99
1, 41270, Note_on_c, 9, 42, 87
1, 41270, Note_on_c, 9, 70, 93
1, 41270, Note_on_c, 9, 62, 82
1, 41270, Note_on_c, 7, 63, 62
1, 41271, Note_on_c, 2, 73, 105
1, 41460, Note_off_c, 9, 42, 0
1, 41469, Note_off_c, 9, 70, 0
1, 41510, Note_off_c, 9, 62, 0
1, 41516, Note_off_c, 9, 36, 0
1, 41522, Note_off_c, 0, 30, 0
1, 41528, Lyric_t, "sar"
1, 41750, Note_on_c, 9, 36, 93
1, 41750, Note_on_c, 9, 42, 93
1, 41750, Note_on_c, 9, 70, 82
1, 41768, Note_on_c, 0, 25, 82
1, 41973, Note_off_c, 9, 70, 0
1, 41979, Note_off_c, 9, 42, 0
1, 41990, Note_off_c, 9, 36, 0
1, 42029, Note_off_c, 3, 54, 0
1, 42029, Note_off_c, 7, 54, 0
1, 42049, Note_off_c, 2, 73, 0
1, 42230, Note_on_c, 3, 54, 66
1, 42230, Note_on_c, 9, 42, 80
1, 42230, Note_on_c, 9, 70, 72
1, 42230, Note_on_c, 9, 62, 99
1, 42230, Note_on_c, 7, 54, 66
1, 42284, Note_on_c, 2, 66, 99
1, 42356, Note_off_c, 3, 58, 0
1, 42356, Note_off_c, 7, 58, 0
1, 42367, Lyric_t, "lo"
1, 42377, Note_off_c, 9, 42, 0
1, 42392, Note_off_c, 9, 70, 0
1, 42571, Note_off_c, 9, 62, 0
1, 42632, Note_off_c, 2, 66, 0
1, 42682, Note_on_c, 2, 75, 99
1, 42685, Note_off_c, 3, 63, 0
1, 42685, Note_off_c, 7, 63, 0
1, 42710, Note_on_c, 3, 56, 58
1, 42710, Note_on_c, 9, 37, 99
1, 42710, Note_on_c, 9, 42, 102
1, 42710, Note_on_c, 9, 70, 99
1, 42710, Note_on_c, 9, 82, 84
1, 42710, Note_on_c, 7, 56, 58
1, 42769, Note_off_c, 3, 61, 0
1, 42769, Note_off_c, 7, 61, 0
1, 42837, Note_off_c, 0, 25, 0
1, 42874, Note_off_c, 9, 82, 0
1, 42882, Lyric_t, "\\Dos"
1, 42905, Note_off_c, 9, 42, 0
1, 42924, Note_off_c, 9, 70, 0
1, 43021, Note_off_c, 9, 37, 0
1, 43066, Note_off_c, 2, 75, 0
1, 43181, Note_on_c, 0, 25, 82
1, 43181, Note_on_c, 2, 73, 99
1, 43190, Note_on_c, 3, 61, 62
1, 43190, Note_on_c, 9, 36, 102
1, 43190, Note_on_c, 9, 42, 108
1, 43190, Note_on_c, 9, 70, 87
1, 43190, Note_on_c, 9, 60, 78
1, 43190, Note_on_c, 7, 61, 62
1, 43265, Lyric_t, " ve"
1, 43388, Note_off_c, 0, 25, 0
1, 43408, Note_off_c, 9, 70, 0
1, 43426, Note_off_c, 9, 42, 0
1, 43426, Note_off_c, 9, 60, 0
1, 43430, Note_off_c, 9, 36, 0
1, 43544, Note_off_c, 2, 73, 0
1, 43670, Note_on_c, 9, 42, 66
1, 43670, Note_on_c, 9, 70, 74
1, 43680, Note_on_c, 2, 73, 105
1, 43682, Note_on_c, 0, 30, 82
1, 43803, Lyric_t, "ce"
1, 43838, Note_off_c, 9, 70, 0
1, 43854, Note_off_c, 9, 42, 0
1, 44073, Note_off_c, 3, 54, 0
1, 44073, Note_off_c, 7, 54, 0
1, 44150, Note_on_c, 3, 54, 54
1, 44150, Note_on_c, 9, 42, 76
1, 44150, Note_on_c, 9, 70, 78
1, 44150, Note_on_c, 9, 62, 84
1, 44150, Note_on_c, 7, 54, 54
1, 44170, Note_off_c, 2, 73, 0
1, 44280, Note_off_c, 3, 56, 0
1, 44280, Note_off_c, 7, 56, 0
1, 44321, Note_off_c, 9, 70, 0
1, 44346, Lyric_t, "s"
1, 44359, Note_off_c, 9, 42, 0
1, 44438, Note_off_c, 9, 62, 0
1, 44630, Note_on_c, 3, 56, 59
1, 44630, Note_on_c, 9, 37, 99
1, 44630, Note_on_c, 9, 42, 93
1, 44630, Note_on_c, 9, 82, 87
1, 44630, Note_on_c, 9, 70, 93
1, 44630, Note_on_c, 7, 56, 59
1, 44791, Note_off_c, 3, 61, 0
1, 44791, Note_off_c, 7, 61, 0
1, 44805, Note_off_c, 0, 30, 0
1, 44805, Note_off_c, 9, 82, 0
1, 44846, Note_off_c, 9, 42, 0
1, 44846, Note_off_c, 9, 70, 0
1, 44900, Note_off_c, 9, 37, 0
1, 45110, Note_on_c, 3, 61, 66
1, 45110, Note_on_c, 9, 36, 102
1, 45110, Note_on_c, 9, 42, 87
1, 45110, Note_on_c, 9, 70, 80
1, 45110, Note_on_c, 9, 60, 74
1, 45110, Note_on_c, 7, 61, 66
1, 45125, Note_on_c, 0, 30, 80
1, 45305, Note_off_c, 9, 42, 0
1, 45320, Note_off_c, 9, 70, 0
1, 45350, Note_off_c, 9, 36, 0
1, 45350, Note_off_c, 9, 60, 0
1, 45351, Note_off_c, 0, 30, 0
1, 45566, Note_on_c, 2, 68, 105
1, 45590, Note_on_c, 9, 36, 93
1, 45590, Note_on_c, 9, 42, 84
1, 45590, Note_on_c, 9, 70, 87
1, 45604, Note_on_c, 0, 25, 76
1, 45750, Note_off_c, 2, 68, 0
1, 45751, Lyric_t, "\\Por"
1, 45769, Note_off_c, 9, 42, 0
1, 45815, Note_off_c, 9, 70, 0
1, 45830, Note_off_c, 9, 36, 0
1, 46022, Note_on_c, 2, 68, 93
1, 46070, Note_on_c, 9, 42, 78
1, 46070, Note_on_c, 9, 70, 78
1, 46070, Note_on_c, 9, 61, 78
1, 46160, Lyric_t, "que"
1, 46168, Note_off_c, 3, 56, 0
1, 46168, Note_off_c, 7, 56, 0
1, 46226, Note_off_c, 9, 42, 0
1, 46275, Note_off_c, 9, 70, 0
1, 46310, Note_off_c, 0, 25, 0
1, 46437, Note_off_c, 9, 61, 0
1, 46509, Note_off_c, 3, 61, 0
1, 46509, Note_off_c, 7, 61, 0
1, 46550, Note_on_c, 3, 56, 68
1, 46550, Note_on_c, 9, 37, 105
1, 46550, Note_on_c, 9, 42, 105
1, 46550, Note_on_c, 9, 70, 93
1, 46550, Note_on_c, 7, 56, 68
1, 46562, Note_on_c, 2, 66, 90
1, 46566, Note_off_c, 2, 68, 0
1, 46578, Note_on_c, 0, 25, 117
1, 46724, Lyric_t, " te"
1, 46740, Note_off_c, 9, 42, 0
1, 46752, Note_off_c, 2, 66, 0
1, 46764, Note_off_c, 9, 70, 0
1, 46868, Note_off_c, 9, 37, 0
1, 46980, Note_off_c, 0, 25, 0
1, 47026, Note_on_c, 2, 66, 93
1, 47030, Note_on_c, 3, 61, 72
1, 47030, Note_on_c, 9, 46, 102
1, 47030, Note_on_c, 9, 82, 74
1, 47030, Note_on_c, 9, 70, 99
1, 47030, Note_on_c, 9, 62, 96
1, 47030, Note_on_c, 7, 61, 72
1, 47154, Lyric_t, " qui"
1, 47213, Note_off_c, 3, 54, 0
1, 47213, Note_off_c, 7, 54, 0
1, 47213, Note_off_c, 9, 82, 0
1, 47227, Note_off_c, 9, 70, 0
1, 47270, Note_off_c, 9, 62, 0
1, 47287, Note_off_c, 9, 46, 0
1, 47440, Lyric_t, "e"
1, 47484, Note_off_c, 2, 66, 0
1, 47510, Note_on_c, 3, 49, 48
1, 47510, Note_on_c, 5, 65, 87
1, 47510, Note_on_c, 9, 36, 96
1, 47510, Note_on_c, 9, 42, 105
1, 47510, Note_on_c, 9, 70, 90
1, 47510, Note_on_c, 9, 60, 111
1, 47510, Note_on_c, 7, 49, 48
1, 47510, Note_on_c, 10, 65, 87
1, 47530, Note_on_c, 2, 65, 64
1, 47537, Note_on_c, 0, 25, 93
1, 47702, Note_off_c, 9, 42, 0
1, 47723, Note_off_c, 9, 70, 0
1, 47726, Note_off_c, 9, 60, 0
1, 47750, Note_off_c, 9, 36, 0
1, 47772, Lyric_t, "ro"
1, 47835, Note_off_c, 3, 56, 0
1, 47835, Note_off_c, 7, 56, 0
1, 47983, Note_off_c, 2, 65, 0
1, 47990, Note_on_c, 3, 53, 25
1, 47990, Note_on_c, 5, 68, 76
1, 47990, Note_on_c, 9, 42, 59
1, 47990, Note_on_c, 9, 70, 78
1, 47990, Note_on_c, 9, 61, 82
1, 47990, Note_on_c, 7, 53, 25
1, 47990, Note_on_c, 10, 68, 76
1, 48001, Note_on_c, 2, 73, 87
1, 48094, Note_off_c, 9, 61, 0
1, 48126, Note_off_c, 9, 42, 0
1, 48149, Lyric_t, " ¡he"
1, 48185, Note_off_c, 9, 70, 0
1, 48349, Note_off_c, 3, 61, 0
1, 48349, Note_off_c, 7, 61, 0
1, 48457, Lyric_t, "."
1, 48462, Note_off_c, 5, 65, 0
1, 48462, Note_off_c, 10, 65, 0
1, 48470, Note_on_c, 3, 56, 58
1, 48470, Note_on_c, 5, 65, 80
1, 48470, Note_on_c, 9, 37, 105
1, 48470, Note_on_c, 9, 42, 105
1, 48470, Note_on_c, 9, 70, 90
1, 48470, Note_on_c, 9, 82, 82
1, 48470, Note_on_c, 7, 56, 58
1, 48470, Note_on_c, 10, 65, 80
1, 48619, Note_off_c, 9, 82, 0
1, 48639, Note_off_c, 0, 25, 0
1, 48667, Note_off_c, 9, 70, 0
1, 48699, Note_off_c, 9, 42, 0
1, 48699, Lyric_t, "."
1, 48744, Note_off_c, 9, 37, 0
1, 48950, Note_on_c, 3, 61, 62
1, 48950, Note_on_c, 5, 63, 82
1, 48950, Note_on_c, 9, 36, 99
1, 48950, Note_on_c, 9, 42, 80
1, 48950, Note_on_c, 9, 70, 99
1, 48950, Note_on_c, 9, 62, 90
1, 48950, Note_on_c, 7, 61, 62
1, 48950, Note_on_c, 10, 63, 82
1, 48967, Note_on_c, 0, 25, 102
1, 48981, Note_off_c, 2, 73, 0
1, 49121, Note_off_c, 9, 42, 0
1, 49125, Note_off_c, 0, 25, 0
1, 49149, Note_off_c, 9, 62, 0
1, 49177, Note_off_c, 9, 70, 0
1, 49196, Note_off_c, 9, 36, 0
1, 49211, Note_off_c, 5, 65, 0
1, 49211, Note_off_c, 10, 65, 0
1, 49357, Lyric_t, "y!"
1, 49411, Note_off_c, 5, 68, 0
1, 49411, Note_off_c, 10, 68, 0
1, 49430, Note_on_c, 9, 36, 93
1, 49430, Note_on_c, 9, 42, 102
1, 49430, Note_on_c, 9, 70, 76
1, 49454, Note_off_c, 3, 49, 0
1, 49454, Note_off_c, 7, 49, 0
1, 49475, Note_on_c, 0, 32, 78
1, 49537, Note_off_c, 3, 53, 0
1, 49537, Note_off_c, 7, 53, 0
1, 49618, Note_off_c, 9, 70, 0
1, 49657, Note_off_c, 9, 42, 0
1, 49670, Note_off_c, 9, 36, 0
1, 49910, Note_on_c, 3, 49, 59
1, 49910, Note_on_c, 5, 68, 72
1, 49910, Note_on_c, 9, 42, 70
1, 49910, Note_on_c, 9, 70, 64
1, 49910, Note_on_c, 9, 60, 93
1, 49910, Note_on_c, 7, 49, 59
1, 49910, Note_on_c, 10, 68, 72
1, 50076, Note_off_c, 9, 70, 0
1, 50079, Note_off_c, 9, 42, 0
1, 50115, Note_off_c, 9, 60, 0
1, 50199, Note_off_c, 5, 63, 0
1, 50199, Note_off_c, 10, 63, 0
1, 50390, Note_on_c, 3, 53, 66
1, 50390, Note_on_c, 5, 63, 76
1, 50390, Note_on_c, 9, 37, 99
1, 50390, Note_on_c, 9, 42, 105
1, 50390, Note_on_c, 9, 70, 102
1, 50390, Note_on_c, 7, 53, 66
1, 50390, Note_on_c, 10, 63, 76
1, 50453, Note_off_c, 3, 56, 0
1, 50453, Note_off_c, 7, 56, 0
1, 50503, Note_off_c, 0, 32, 0
1, 50621, Note_off_c, 9, 42, 0
1, 50621, Note_off_c, 9, 70, 0
1, 50701, Note_off_c, 9, 37, 0
1, 50812, Note_off_c, 3, 61, 0
1, 50812, Note_off_c, 7, 61, 0
1, 50842, Note_off_c, 5, 63, 0
1, 50842, Note_off_c, 10, 63, 0
1, 50870, Note_on_c, 3, 63, 55
1, 50870, Note_on_c, 5, 61, 74
1, 50870, Note_on_c, 9, 36, 102
1, 50870, Note_on_c, 9, 42, 93
1, 50870, Note_on_c, 9, 82, 74
1, 50870, Note_on_c, 9, 70, 102
1, 50870, Note_on_c, 9, 61, 87
1, 50870, Note_on_c, 7, 63, 55
1, 50870, Note_on_c, 10, 61, 74
1, 50890, Note_on_c, 0, 32, 76
1, 51039, Note_off_c, 9, 82, 0
1, 51075, Note_off_c, 9, 61, 0
1, 51103, Note_off_c, 9, 42, 0
1, 51110, Note_off_c, 9, 36, 0
1, 51138, Note_off_c, 9, 70, 0
1, 51233, Note_off_c, 0, 32, 0
1, 51350, Note_on_c, 9, 42, 66
1, 51350, Note_on_c, 9, 70, 76
1, 51386, Note_on_c, 0, 25, 76
1, 51525, Note_off_c, 9, 70, 0
1, 51529, Note_off_c, 9, 42, 0
1, 51532, Note_off_c, 5, 68, 0
1, 51532, Note_off_c, 10, 68, 0
1, 51830, Note_on_c, 3, 56, 70
1, 51830, Note_on_c, 5, 68, 70
1, 51830, Note_on_c, 9, 42, 87
1, 51830, Note_on_c, 9, 70, 74
1, 51830, Note_on_c, 9, 62, 93
1, 51830, Note_on_c, 7, 56, 70
1, 51830, Note_on_c, 10, 68, 70
1, 51840, Note_off_c, 3, 53, 0
1, 51840, Note_off_c, 7, 53, 0
1, 52026, Note_off_c, 9, 70, 0
1, 52059, Note_off_c, 9, 42, 0
1, 52066, Note_off_c, 9, 62, 0
1, 52310, Note_on_c, 3, 53, 58
1, 52310, Note_on_c, 9, 37, 99
1, 52310, Note_on_c, 9, 42, 99
1, 52310, Note_on_c, 9, 70, 93
1, 52310, Note_on_c, 7, 53, 58
1, 52516, Note_off_c, 0, 25, 0
1, 52535, Note_off_c, 9, 42, 0
1, 52536, Note_off_c, 9, 70, 0
1, 52580, Note_off_c, 9, 37, 0
1, 52790, Note_on_c, 3, 61, 76
1, 52790, Note_on_c, 9, 36, 102
1, 52790, Note_on_c, 9, 42, 82
1, 52790, Note_on_c, 9, 70, 78
1, 52790, Note_on_c, 9, 62, 99
1, 52790, Note_on_c, 7, 61, 76
1, 52812, Note_off_c, 3, 63, 0
1, 52812, Note_off_c, 7, 63, 0
1, 52827, Note_on_c, 0, 25, 90
1, 52969, Note_off_c, 9, 70, 0
1, 52980, Note_off_c, 9, 42, 0
1, 53006, Note_off_c, 0, 25, 0
1, 53030, Note_off_c, 9, 36, 0
1, 53055, Note_off_c, 9, 62, 0
1, 53270, Note_on_c, 9, 36, 93
1, 53270, Note_on_c, 9, 42, 84
1, 53270, Note_on_c, 9, 70, 93
1, 53284, Note_on_c, 2, 68, 102
1, 53313, Note_on_c, 0, 32, 87
1, 53424, Note_off_c, 2, 68, 0
1, 53474, Lyric_t, "\\Y"
1, 53479, Note_off_c, 9, 42, 0
1, 53480, Note_off_c, 9, 70, 0
1, 53510, Note_off_c, 9, 36, 0
1, 53519, Note_off_c, 3, 53, 0
1, 53519, Note_off_c, 7, 53, 0
1, 53706, Lyric_t, " has"
1, 53742, Note_on_c, 2, 68, 105
1, 53750, Note_on_c, 3, 53, 64
1, 53750, Note_on_c, 9, 42, 76
1, 53750, Note_on_c, 9, 70, 76
1, 53750, Note_on_c, 9, 61, 78
1, 53750, Note_on_c, 7, 53, 64
1, 53906, Note_off_c, 9, 70, 0
1, 53923, Note_off_c, 9, 42, 0
1, 53973, Note_off_c, 3, 56, 0
1, 53973, Note_off_c, 7, 56, 0
1, 53990, Note_off_c, 9, 61, 0
1, 53996, Note_off_c, 0, 32, 0
1, 54002, Lyric_t, "ta"
1, 54145, Note_off_c, 3, 61, 0
1, 54145, Note_off_c, 7, 61, 0
1, 54214, Note_on_c, 0, 32, 90
1, 54228, Note_on_c, 2, 65, 66
1, 54230, Note_off_c, 2, 68, 0
1, 54230, Note_on_c, 3, 56, 70
1, 54230, Note_on_c, 9, 37, 105
1, 54230, Note_on_c, 9, 42, 105
1, 54230, Note_on_c, 9, 70, 102
1, 54230, Note_on_c, 9, 82, 78
1, 54230, Note_on_c, 7, 56, 70
1, 54322, Lyric_t, " un"
1, 54394, Note_off_c, 9, 70, 0
1, 54394, Note_off_c, 9, 82, 0
1, 54404, Note_off_c, 5, 61, 0
1, 54404, Note_off_c, 10, 61, 0
1, 54427, Note_off_c, 2, 65, 0
1, 54470, Note_off_c, 9, 42, 0
1, 54548, Note_off_c, 9, 37, 0
1, 54584, Lyric_t, " lu"
1, 54664, Note_off_c, 3, 49, 0
1, 54664, Note_off_c, 7, 49, 0
1, 54700, Note_off_c, 3, 53, 0
1, 54700, Note_off_c, 7, 53, 0
1, 54710, Note_on_c, 9, 42, 76
1, 54710, Note_on_c, 9, 82, 87
1, 54710, Note_on_c, 9, 70, 82
1, 54710, Note_on_c, 9, 61, 76
1, 54722, Note_on_c, 2, 65, 84
1, 54849, Lyric_t, "ce"
1, 54879, Note_off_c, 9, 42, 0
1, 54894, Note_off_c, 9, 82, 0
1, 54902, Note_off_c, 9, 70, 0
1, 54950, Note_off_c, 9, 61, 0
1, 54959, Note_off_c, 0, 32, 0
1, 55190, Note_on_c, 3, 51, 72
1, 55190, Note_on_c, 9, 36, 96
1, 55190, Note_on_c, 9, 42, 99
1, 55190, Note_on_c, 9, 70, 93
1, 55190, Note_on_c, 9, 60, 82
1, 55190, Note_on_c, 7, 51, 72
1, 55208, Note_on_c, 2, 63, 82
1, 55214, Note_on_c, 0, 32, 82
1, 55243, Note_off_c, 2, 65, 0
1, 55276, Note_off_c, 3, 56, 0
1, 55276, Note_off_c, 7, 56, 0
1, 55385, Note_off_c, 9, 60, 0
1, 55401, Lyric_t, "r"
1, 55424, Note_off_c, 9, 70, 0
1, 55425, Note_off_c, 9, 42, 0
1, 55430, Note_off_c, 9, 36, 0
1, 55670, Note_on_c, 3, 56, 58
1, 55670, Note_on_c, 5, 56, 72
1, 55670, Note_on_c, 9, 42, 72
1, 55670, Note_on_c, 9, 70, 76
1, 55670, Note_on_c, 9, 61, 72
1, 55670, Note_on_c, 7, 56, 58
1, 55670, Note_on_c, 10, 56, 72
1, 55835, Note_off_c, 9, 42, 0
1, 55836, Note_off_c, 9, 70, 0
1, 56024, Note_off_c, 9, 61, 0
1, 56038, Note_off_c, 5, 68, 0
1, 56038, Note_off_c, 10, 68, 0
1, 56150, Note_on_c, 3, 58, 32
1, 56150, Note_on_c, 5, 58, 64
1, 56150, Note_on_c, 9, 37, 105
1, 56150, Note_on_c, 9, 42, 105
1, 56150, Note_on_c, 9, 70, 102
1, 56150, Note_on_c, 7, 58, 32
1, 56150, Note_on_c, 10, 58, 64
1, 56168, Note_off_c, 2, 63, 0
1, 56253, Note_off_c, 0, 32, 0
1, 56326, Lyric_t, "o"
1, 56362, Note_off_c, 9, 42, 0
1, 56377, Note_off_c, 9, 70, 0
1, 56424, Note_off_c, 9, 37, 0
1, 56533, Lyric_t, "."
1, 56620, Note_on_c, 0, 32, 82
1, 56630, Note_on_c, 3, 60, 68
1, 56630, Note_on_c, 5, 60, 74
1, 56630, Note_on_c, 9, 36, 99
1, 56630, Note_on_c, 9, 42, 87
1, 56630, Note_on_c, 9, 70, 93
1, 56630, Note_on_c, 9, 62, 82
1, 56630, Note_on_c, 7, 60, 68
1, 56630, Note_on_c, 10, 60, 74
1, 56755, Note_off_c, 3, 58, 0
1, 56755, Note_off_c, 7, 58, 0
1, 56820, Note_off_c, 9, 42, 0
1, 56829, Note_off_c, 9, 70, 0
1, 56832, Note_off_c, 0, 32, 0
1, 56870, Note_off_c, 9, 62, 0
1, 56876, Note_off_c, 9, 36, 0
1, 57015, Lyric_t, "."
1, 57110, Note_on_c, 9, 36, 93
1, 57110, Note_on_c, 9, 42, 93
1, 57110, Note_on_c, 9, 70, 82
1, 57121, Note_on_c, 0, 27, 87
1, 57303, Note_off_c, 3, 56, 0
1, 57303, Note_off_c, 7, 56, 0
1, 57333, Note_off_c, 9, 70, 0
1, 57339, Note_off_c, 9, 42, 0
1, 57344, Note_off_c, 3, 51, 0
1, 57344, Note_off_c, 7, 51, 0
1, 57350, Note_off_c, 9, 36, 0
1, 57590, Note_on_c, 3, 51, 66
1, 57590, Note_on_c, 5, 63, 74
1, 57590, Note_on_c, 9, 42, 80
1, 57590, Note_on_c, 9, 70, 72
1, 57590, Note_on_c, 9, 62, 99
1, 57590, Note_on_c, 7, 51, 66
1, 57590, Note_on_c, 10, 63, 74
1, 57737, Note_off_c, 9, 42, 0
1, 57752, Note_off_c, 9, 70, 0
1, 57931, Note_off_c, 9, 62, 0
1, 58070, Note_on_c, 3, 56, 66
1, 58070, Note_on_c, 9, 37, 99
1, 58070, Note_on_c, 9, 42, 102
1, 58070, Note_on_c, 9, 70, 99
1, 58070, Note_on_c, 9, 82, 84
1, 58070, Note_on_c, 7, 56, 66
1, 58195, Note_off_c, 0, 27, 0
1, 58234, Note_off_c, 9, 82, 0
1, 58265, Note_off_c, 9, 42, 0
1, 58284, Note_off_c, 9, 70, 0
1, 58381, Note_off_c, 9, 37, 0
1, 58549, Note_on_c, 0, 27, 84
1, 58550, Note_on_c, 3, 63, 72
1, 58550, Note_on_c, 9, 36, 102
1, 58550, Note_on_c, 9, 42, 108
1, 58550, Note_on_c, 9, 70, 87
1, 58550, Note_on_c, 9, 60, 78
1, 58550, Note_on_c, 7, 63, 72
1, 58664, Note_off_c, 0, 27, 0
1, 58768, Note_off_c, 9, 70, 0
1, 58786, Note_off_c, 9, 42, 0
1, 58786, Note_off_c, 9, 60, 0
1, 58790, Note_off_c, 9, 36, 0
1, 59030, Note_on_c, 9, 42, 66
1, 59030, Note_on_c, 9, 70, 74
1, 59065, Note_on_c, 0, 32, 87
1, 59198, Note_off_c, 9, 70, 0
1, 59214, Note_off_c, 9, 42, 0
1, 59322, Note_off_c, 3, 51, 0
1, 59322, Note_off_c, 7, 51, 0
1, 59327, Note_off_c, 3, 56, 0
1, 59327, Note_off_c, 7, 56, 0
1, 59510, Note_on_c, 3, 51, 57
1, 59510, Note_on_c, 5, 68, 72
1, 59510, Note_on_c, 9, 42, 76
1, 59510, Note_on_c, 9, 70, 78
1, 59510, Note_on_c, 9, 62, 84
1, 59510, Note_on_c, 7, 51, 57
1, 59510, Note_on_c, 10, 68, 72
1, 59681, Note_off_c, 9, 70, 0
1, 59719, Note_off_c, 9, 42, 0
1, 59798, Note_off_c, 9, 62, 0
1, 59990, Note_on_c, 3, 56, 62
1, 59990, Note_on_c, 9, 37, 99
1, 59990, Note_on_c, 9, 42, 93
1, 59990, Note_on_c, 9, 82, 87
1, 59990, Note_on_c, 9, 70, 93
1, 59990, Note_on_c, 7, 56, 62
1, 60165, Note_off_c, 9, 82, 0
1, 60169, Note_off_c, 0, 32, 0
1, 60206, Note_off_c, 9, 42, 0
1, 60206, Note_off_c, 9, 70, 0
1, 60260, Note_off_c, 9, 37, 0
1, 60265, Note_off_c, 3, 60, 0
1, 60265, Note_off_c, 7, 60, 0
1, 60427, Note_off_c, 3, 63, 0
1, 60427, Note_off_c, 7, 63, 0
1, 60470, Note_on_c, 3, 58, 66
1, 60470, Note_on_c, 9, 36, 102
1, 60470, Note_on_c, 9, 42, 87
1, 60470, Note_on_c, 9, 70, 80
1, 60470, Note_on_c, 9, 60, 74
1, 60470, Note_on_c, 7, 58, 66
1, 60500, Note_on_c, 0, 32, 99
1, 60665, Note_off_c, 9, 42, 0
1, 60680, Note_off_c, 9, 70, 0
1, 60696, Note_off_c, 0, 32, 0
1, 60710, Note_off_c, 9, 36, 0
1, 60734, Note_off_c, 9, 60, 0
1, 60950, Note_on_c, 9, 36, 93
1, 60950, Note_on_c, 9, 42, 84
1, 60950, Note_on_c, 9, 70, 87
1, 60968, Note_on_c, 0, 27, 76
1, 61129, Note_off_c, 9, 42, 0
1, 61175, Note_off_c, 9, 70, 0
1, 61190, Note_off_c, 9, 36, 0
1, 61204, Note_off_c, 5, 56, 0
1, 61204, Note_off_c, 10, 56, 0
1, 61213, Note_off_c, 5, 58, 0
1, 61213, Note_off_c, 10, 58, 0
1, 61326, Note_off_c, 5, 60, 0
1, 61326, Note_off_c, 10, 60, 0
1, 61376, Note_off_c, 5, 68, 0
1, 61376, Note_off_c, 10, 68, 0
1, 61383, Note_off_c, 5, 63, 0
1, 61383, Note_off_c, 10, 63, 0
1, 61409, Note_off_c, 0, 27, 0
1, 61415, Note_on_c, 0, 30, 84
1, 61430, Note_on_c, 3, 60, 72
1, 61430, Note_on_c, 9, 42, 78
1, 61430, Note_on_c, 9, 70, 78
1, 61430, Note_on_c, 9, 61, 78
1, 61430, Note_on_c, 7, 60, 72
1, 61431, Note_on_c, 2, 73, 105
1, 61586, Note_off_c, 9, 42, 0
1, 61589, Note_off_c, 3, 58, 0
1, 61589, Note_off_c, 7, 58, 0
1, 61600, Note_off_c, 2, 73, 0
1, 61602, Lyric_t, "\\Y"
1, 61635, Note_off_c, 9, 70, 0
1, 61670, Note_off_c, 9, 61, 0
1, 61750, Note_off_c, 3, 56, 0
1, 61750, Note_off_c, 7, 56, 0
1, 61837, Note_off_c, 0, 30, 0
1, 61910, Note_on_c, 3, 56, 72
1, 61910, Note_on_c, 9, 37, 105
1, 61910, Note_on_c, 9, 42, 105
1, 61910, Note_on_c, 9, 70, 93
1, 61910, Note_on_c, 7, 56, 72
1, 61926, Note_on_c, 2, 73, 114
1, 61927, Note_on_c, 0, 32, 93
1, 62086, Lyric_t, " si"
1, 62096, Note_off_c, 2, 73, 0
1, 62100, Note_off_c, 9, 42, 0
1, 62124, Note_off_c, 9, 70, 0
1, 62228, Note_off_c, 9, 37, 0
1, 62368, Note_off_c, 0, 32, 0
1, 62390, Note_on_c, 2, 73, 114
1, 62390, Note_on_c, 3, 63, 72
1, 62390, Note_on_c, 9, 46, 102
1, 62390, Note_on_c, 9, 82, 74
1, 62390, Note_on_c, 9, 70, 99
1, 62390, Note_on_c, 9, 62, 96
1, 62390, Note_on_c, 7, 63, 72
1, 62402, Note_on_c, 0, 27, 80
1, 62500, Lyric_t, " tu"
1, 62573, Note_off_c, 9, 82, 0
1, 62580, Note_off_c, 2, 73, 0
1, 62587, Note_off_c, 9, 70, 0
1, 62607, Note_off_c, 3, 56, 0
1, 62607, Note_off_c, 7, 56, 0
1, 62630, Note_off_c, 9, 62, 0
1, 62647, Note_off_c, 9, 46, 0
1, 62653, Note_off_c, 3, 51, 0
1, 62653, Note_off_c, 7, 51, 0
1, 62739, Note_off_c, 3, 60, 0
1, 62739, Note_off_c, 7, 60, 0
1, 62785, Note_off_c, 3, 63, 0
1, 62785, Note_off_c, 7, 63, 0
1, 62804, Note_off_c, 0, 27, 0
1, 62851, Lyric_t, "vi"
1, 62870, Note_on_c, 3, 61, 78
1, 62870, Note_on_c, 9, 36, 96
1, 62870, Note_on_c, 9, 42, 105
1, 62870, Note_on_c, 9, 70, 90
1, 62870, Note_on_c, 9, 60, 111
1, 62870, Note_on_c, 7, 61, 78
1, 62889, Note_on_c, 2, 73, 108
1, 62956, Note_on_c, 0, 27, 99
1, 63062, Note_off_c, 9, 42, 0
1, 63083, Note_off_c, 9, 70, 0
1, 63086, Note_off_c, 9, 60, 0
1, 63110, Note_off_c, 9, 36, 0
1, 63177, Lyric_t, "e"
1, 63315, Note_off_c, 2, 73, 0
1, 63350, Note_on_c, 3, 51, 51
1, 63350, Note_on_c, 9, 42, 59
1, 63350, Note_on_c, 9, 70, 78
1, 63350, Note_on_c, 9, 61, 82
1, 63350, Note_on_c, 7, 51, 51
1, 63384, Note_on_c, 2, 66, 93
1, 63454, Note_off_c, 9, 61, 0
1, 63486, Note_off_c, 9, 42, 0
1, 63545, Note_off_c, 9, 70, 0
1, 63593, Lyric_t, "ra"
1, 63751, Note_off_c, 2, 66, 0
1, 63816, Note_on_c, 2, 75, 102
1, 63830, Note_on_c, 3, 54, 48
1, 63830, Note_on_c, 9, 37, 105
1, 63830, Note_on_c, 9, 42, 105
1, 63830, Note_on_c, 9, 70, 90
1, 63830, Note_on_c, 9, 82, 82
1, 63830, Note_on_c, 7, 54, 48
1, 63926, Note_off_c, 0, 27, 0
1, 63948, Lyric_t, " el"
1, 63979, Note_off_c, 9, 82, 0
1, 64027, Note_off_c, 9, 70, 0
1, 64059, Note_off_c, 9, 42, 0
1, 64104, Note_off_c, 9, 37, 0
1, 64110, Note_off_c, 2, 75, 0
1, 64180, Lyric_t, " na"
1, 64278, Note_on_c, 0, 27, 74
1, 64310, Note_off_c, 3, 61, 0
1, 64310, Note_off_c, 7, 61, 0
1, 64310, Note_on_c, 3, 63, 59
1, 64310, Note_on_c, 9, 36, 99
1, 64310, Note_on_c, 9, 42, 80
1, 64310, Note_on_c, 9, 70, 99
1, 64310, Note_on_c, 9, 62, 90
1, 64310, Note_on_c, 7, 63, 59
1, 64330, Note_on_c, 2, 73, 114
1, 64393, Lyric_t, "u"
1, 64481, Note_off_c, 9, 42, 0
1, 64509, Note_off_c, 9, 62, 0
1, 64537, Note_off_c, 0, 27, 0
1, 64537, Note_off_c, 9, 70, 0
1, 64556, Note_off_c, 9, 36, 0
1, 64603, Lyric_t, "fra"
1, 64790, Note_on_c, 9, 36, 93
1, 64790, Note_on_c, 9, 42, 102
1, 64790, Note_on_c, 9, 70, 76
1, 64829, Note_on_c, 0, 34, 76
1, 64978, Note_off_c, 9, 70, 0
1, 65017, Note_off_c, 9, 42, 0
1, 65030, Note_off_c, 9, 36, 0
1, 65192, Note_off_c, 2, 73, 0
1, 65270, Note_on_c, 3, 61, 70
1, 65270, Note_on_c, 9, 42, 70
1, 65270, Note_on_c, 9, 70, 64
1, 65270, Note_on_c, 9, 60, 93
1, 65270, Note_on_c, 7, 61, 70
1, 65304, Note_on_c, 2, 66, 93
1, 65321, Lyric_t, "gi"
1, 65349, Note_off_c, 3, 54, 0
1, 65349, Note_off_c, 7, 54, 0
1, 65436, Note_off_c, 9, 70, 0
1, 65439, Note_off_c, 9, 42, 0
1, 65475, Note_off_c, 9, 60, 0
1, 65571, Lyric_t, "o"
1, 65743, Note_off_c, 2, 66, 0
1, 65750, Note_on_c, 3, 54, 66
1, 65750, Note_on_c, 9, 37, 99
1, 65750, Note_on_c, 9, 42, 105
1, 65750, Note_on_c, 9, 70, 102
1, 65750, Note_on_c, 7, 54, 66
1, 65762, Note_on_c, 2, 75, 108
1, 65899, Lyric_t, "\\De"
1, 65904, Note_off_c, 0, 34, 0
1, 65971, Note_off_c, 3, 63, 0
1, 65971, Note_off_c, 7, 63, 0
1, 65981, Note_off_c, 9, 42, 0
1, 65981, Note_off_c, 9, 70, 0
1, 66061, Note_off_c, 9, 37, 0
1, 66111, Note_off_c, 3, 61, 0
1, 66111, Note_off_c, 7, 61, 0
1, 66125, Note_off_c, 2, 75, 0
1, 66207, Note_on_c, 2, 73, 102
1, 66230, Note_on_c, 3, 61, 64
1, 66230, Note_on_c, 9, 36, 102
1, 66230, Note_on_c, 9, 42, 93
1, 66230, Note_on_c, 9, 82, 74
1, 66230, Note_on_c, 9, 70, 102
1, 66230, Note_on_c, 9, 61, 87
1, 66230, Note_on_c, 7, 61, 64
1, 66243, Note_on_c, 0, 34, 64
1, 66274, Lyric_t, " un"
1, 66399, Note_off_c, 9, 82, 0
1, 66403, Note_off_c, 0, 34, 0
1, 66435, Note_off_c, 9, 61, 0
1, 66463, Note_off_c, 9, 42, 0
1, 66470, Note_off_c, 9, 36, 0
1, 66498, Note_off_c, 9, 70, 0
1, 66650, Note_off_c, 2, 73, 0
1, 66710, Note_on_c, 9, 42, 66
1, 66710, Note_on_c, 9, 70, 76
1, 66749, Note_on_c, 0, 27, 82
1, 66885, Note_off_c, 9, 70, 0
1, 66889, Note_off_c, 9, 42, 0
1, 67190, Note_on_c, 9, 42, 87
1, 67190, Note_on_c, 9, 70, 74
1, 67190, Note_on_c, 9, 62, 93
1, 67201, Note_on_c, 2, 73, 114
1, 67337, Lyric_t, " sen"
1, 67386, Note_off_c, 9, 70, 0
1, 67419, Note_off_c, 9, 42, 0
1, 67426, Note_off_c, 9, 62, 0
1, 67518, Note_off_c, 2, 73, 0
1, 67583, Lyric_t, "ti"
1, 67670, Note_on_c, 3, 56, 62
1, 67670, Note_on_c, 9, 37, 99
1, 67670, Note_on_c, 9, 42, 99
1, 67670, Note_on_c, 9, 70, 93
1, 67670, Note_on_c, 7, 56, 62
1, 67710, Note_on_c, 2, 73, 114
1, 67734, Note_off_c, 0, 27, 0
1, 67837, Note_off_c, 3, 61, 0
1, 67837, Note_off_c, 7, 61, 0
1, 67866, Lyric_t, "mi"
1, 67895, Note_off_c, 9, 42, 0
1, 67896, Note_off_c, 9, 70, 0
1, 67940, Note_off_c, 9, 37, 0
1, 67976, Note_off_c, 2, 73, 0
1, 68102, Lyric_t, "en"
1, 68150, Note_on_c, 3, 61, 74
1, 68150, Note_on_c, 9, 36, 102
1, 68150, Note_on_c, 9, 42, 82
1, 68150, Note_on_c, 9, 70, 78
1, 68150, Note_on_c, 9, 62, 99
1, 68150, Note_on_c, 7, 61, 74
1, 68151, Note_on_c, 0, 27, 99
1, 68173, Note_on_c, 2, 73, 102
1, 68329, Note_off_c, 9, 70, 0
1, 68330, Note_off_c, 0, 27, 0
1, 68340, Note_off_c, 9, 42, 0
1, 68390, Note_off_c, 9, 36, 0
1, 68415, Note_off_c, 9, 62, 0
1, 68568, Note_off_c, 2, 73, 0
1, 68622, Note_on_c, 0, 34, 84
1, 68630, Note_on_c, 9, 36, 93
1, 68630, Note_on_c, 9, 42, 84
1, 68630, Note_on_c, 9, 70, 93
1, 68738, Lyric_t, "t"
1, 68769, Note_off_c, 3, 54, 0
1, 68769, Note_off_c, 7, 54, 0
1, 68839, Note_off_c, 9, 42, 0
1, 68840, Note_off_c, 9, 70, 0
1, 68870, Note_off_c, 9, 36, 0
1, 69110, Note_on_c, 9, 42, 76
1, 69110, Note_on_c, 9, 70, 76
1, 69110, Note_on_c, 9, 61, 78
1, 69266, Note_off_c, 9, 70, 0
1, 69283, Note_off_c, 9, 42, 0
1, 69350, Note_off_c, 9, 61, 0
1, 69357, Lyric_t, "o"
1, 69438, Note_off_c, 0, 34, 0
1, 69566, Note_on_c, 0, 27, 74
1, 69590, Note_on_c, 3, 54, 29
1, 69590, Note_on_c, 9, 37, 105
1, 69590, Note_on_c, 9, 42, 105
1, 69590, Note_on_c, 9, 70, 102
1, 69590, Note_on_c, 9, 82, 78
1, 69590, Note_on_c, 7, 54, 29
1, 69746, Note_off_c, 3, 56, 0
1, 69746, Note_off_c, 7, 56, 0
1, 69754, Note_off_c, 9, 70, 0
1, 69754, Note_off_c, 9, 82, 0
1, 69830, Note_off_c, 9, 42, 0
1, 69908, Note_off_c, 9, 37, 0
1, 69939, Note_off_c, 0, 27, 0
1, 70047, Note_on_c, 0, 29, 72
1, 70063, Note_on_c, 2, 73, 114
1, 70070, Note_on_c, 9, 42, 76
1, 70070, Note_on_c, 9, 82, 87
1, 70070, Note_on_c, 9, 70, 82
1, 70070, Note_on_c, 9, 61, 76
1, 70153, Note_off_c, 3, 61, 0
1, 70153, Note_off_c, 7, 61, 0
1, 70237, Lyric_t, "\\Se"
1, 70239, Note_off_c, 9, 42, 0
1, 70244, Note_off_c, 2, 73, 0
1, 70254, Note_off_c, 9, 82, 0
1, 70262, Note_off_c, 9, 70, 0
1, 70323, Note_off_c, 9, 61, 0
1, 70363, Note_off_c, 0, 29, 0
1, 70550, Note_on_c, 0, 30, 76
1, 70550, Note_on_c, 3, 61, 76
1, 70550, Note_on_c, 9, 36, 96
1, 70550, Note_on_c, 9, 42, 99
1, 70550, Note_on_c, 9, 70, 93
1, 70550, Note_on_c, 9, 60, 82
1, 70550, Note_on_c, 7, 61, 76
1, 70562, Note_on_c, 2, 73, 105
1, 70660, Lyric_t, "ri"
1, 70662, Note_off_c, 3, 54, 0
1, 70662, Note_off_c, 7, 54, 0
1, 70737, Note_off_c, 3, 51, 0
1, 70737, Note_off_c, 7, 51, 0
1, 70745, Note_off_c, 9, 60, 0
1, 70784, Note_off_c, 9, 70, 0
1, 70785, Note_off_c, 9, 42, 0
1, 70790, Note_off_c, 9, 36, 0
1, 71009, Note_off_c, 2, 73, 0
1, 71030, Note_on_c, 3, 54, 59
1, 71030, Note_on_c, 9, 42, 72
1, 71030, Note_on_c, 9, 70, 76
1, 71030, Note_on_c, 9, 61, 72
1, 71030, Note_on_c, 7, 54, 59
1, 71050, Note_on_c, 2, 66, 99
1, 71128, Lyric_t, "a"
1, 71195, Note_off_c, 9, 42, 0
1, 71196, Note_off_c, 9, 70, 0
1, 71270, Note_off_c, 9, 61, 0
1, 71339, Lyric_t, " un"
1, 71492, Note_on_c, 2, 75, 87
1, 71499, Note_off_c, 2, 66, 0
1, 71510, Note_on_c, 3, 58, 48
1, 71510, Note_on_c, 9, 37, 105
1, 71510, Note_on_c, 9, 42, 105
1, 71510, Note_on_c, 9, 70, 102
1, 71510, Note_on_c, 7, 58, 48
1, 71559, Note_off_c, 0, 30, 0
1, 71663, Lyric_t, " ve"
1, 71722, Note_off_c, 9, 42, 0
1, 71737, Note_off_c, 9, 70, 0
1, 71784, Note_off_c, 9, 37, 0
1, 71929, Note_off_c, 2, 75, 0
1, 71985, Note_on_c, 0, 30, 82
1, 71987, Note_on_c, 2, 73, 114
1, 71990, Note_on_c, 3, 63, 62
1, 71990, Note_on_c, 9, 36, 99
1, 71990, Note_on_c, 9, 42, 87
1, 71990, Note_on_c, 9, 70, 93
1, 71990, Note_on_c, 9, 62, 82
1, 71990, Note_on_c, 7, 63, 62
1, 72180, Note_off_c, 9, 42, 0
1, 72189, Note_off_c, 9, 70, 0
1, 72215, Lyric_t, "le"
1, 72230, Note_off_c, 9, 62, 0
1, 72236, Note_off_c, 9, 36, 0
1, 72242, Note_off_c, 0, 30, 0
1, 72470, Note_on_c, 9, 36, 93
1, 72470, Note_on_c, 9, 42, 93
1, 72470, Note_on_c, 9, 70, 82
1, 72488, Note_on_c, 0, 25, 82
1, 72693, Note_off_c, 9, 70, 0
1, 72699, Note_off_c, 9, 42, 0
1, 72710, Note_off_c, 9, 36, 0
1, 72749, Note_off_c, 3, 54, 0
1, 72749, Note_off_c, 7, 54, 0
1, 72894, Note_off_c, 2, 73, 0
1, 72940, Note_on_c, 2, 66, 90
1, 72950, Note_on_c, 3, 54, 66
1, 72950, Note_on_c, 9, 42, 80
1, 72950, Note_on_c, 9, 70, 72
1, 72950, Note_on_c, 9, 62, 99
1, 72950, Note_on_c, 7, 54, 66
1, 73046, Lyric_t, "ro"
1, 73076, Note_off_c, 3, 58, 0
1, 73076, Note_off_c, 7, 58, 0
1, 73097, Note_off_c, 9, 42, 0
1, 73112, Note_off_c, 9, 70, 0
1, 73291, Note_off_c, 9, 62, 0
1, 73347, Lyric_t, " en"
1, 73405, Note_off_c, 3, 63, 0
1, 73405, Note_off_c, 7, 63, 0
1, 73421, Note_on_c, 2, 75, 87
1, 73430, Note_on_c, 3, 56, 58
1, 73430, Note_on_c, 9, 37, 99
1, 73430, Note_on_c, 9, 42, 102
1, 73430, Note_on_c, 9, 70, 99
1, 73430, Note_on_c, 9, 82, 84
1, 73430, Note_on_c, 7, 56, 58
1, 73460, Note_off_c, 2, 66, 0
1, 73489, Note_off_c, 3, 61, 0
1, 73489, Note_off_c, 7, 61, 0
1, 73557, Note_off_c, 0, 25, 0
1, 73594, Note_off_c, 9, 82, 0
1, 73625, Note_off_c, 9, 42, 0
1, 73644, Note_off_c, 9, 70, 0
1, 73670, Note_off_c, 9, 37, 0
1, 73692, Lyric_t, " la"
1, 73894, Note_on_c, 2, 73, 108
1, 73901, Note_on_c, 0, 25, 82
1, 73910, Note_on_c, 3, 61, 62
1, 73910, Note_on_c, 9, 36, 102
1, 73910, Note_on_c, 9, 42, 108
1, 73910, Note_on_c, 9, 70, 87
1, 73910, Note_on_c, 9, 60, 78
1, 73910, Note_on_c, 7, 61, 62
1, 73922, Note_off_c, 2, 75, 0
1, 74075, Lyric_t, " is"
1, 74108, Note_off_c, 0, 25, 0
1, 74128, Note_off_c, 9, 70, 0
1, 74146, Note_off_c, 9, 42, 0
1, 74146, Note_off_c, 9, 60, 0
1, 74150, Note_off_c, 9, 36, 0
1, 74322, Note_off_c, 2, 73, 0
1, 74390, Note_on_c, 9, 42, 66
1, 74390, Note_on_c, 9, 70, 74
1, 74402, Note_on_c, 0, 30, 82
1, 74558, Note_off_c, 9, 70, 0
1, 74574, Note_off_c, 9, 42, 0
1, 74793, Note_off_c, 3, 54, 0
1, 74793, Note_off_c, 7, 54, 0
1, 74870, Note_on_c, 3, 54, 54
1, 74870, Note_on_c, 9, 42, 76
1, 74870, Note_on_c, 9, 70, 78
1, 74870, Note_on_c, 9, 62, 84
1, 74870, Note_on_c, 7, 54, 54
1, 74884, Note_on_c, 2, 73, 102
1, 75000, Note_off_c, 3, 56, 0
1, 75000, Note_off_c, 7, 56, 0
1, 75041, Note_off_c, 9, 70, 0
1, 75079, Note_off_c, 9, 42, 0
1, 75158, Note_off_c, 9, 62, 0
1, 75195, Lyric_t, "la"
1, 75350, Note_on_c, 3, 56, 59
1, 75350, Note_on_c, 9, 37, 99
1, 75350, Note_on_c, 9, 42, 93
1, 75350, Note_on_c, 9, 82, 87
1, 75350, Note_on_c, 9, 70, 93
1, 75350, Note_on_c, 7, 56, 59
1, 75387, Note_off_c, 2, 73, 0
1, 75511, Note_off_c, 3, 61, 0
1, 75511, Note_off_c, 7, 61, 0
1, 75525, Note_off_c, 0, 30, 0
1, 75525, Note_off_c, 9, 82, 0
1, 75566, Note_off_c, 9, 42, 0
1, 75566, Note_off_c, 9, 70, 0
1, 75620, Note_off_c, 9, 37, 0
1, 75830, Note_on_c, 3, 61, 66
1, 75830, Note_on_c, 9, 36, 102
1, 75830, Note_on_c, 9, 42, 87
1, 75830, Note_on_c, 9, 70, 80
1, 75830, Note_on_c, 9, 60, 74
1, 75830, Note_on_c, 7, 61, 66
1, 75845, Note_on_c, 0, 30, 80
1, 76025, Note_off_c, 9, 42, 0
1, 76040, Note_off_c, 9, 70, 0
1, 76070, Note_off_c, 9, 36, 0
1, 76070, Note_off_c, 9, 60, 0
1, 76071, Note_off_c, 0, 30, 0
1, 76280, Note_on_c, 2, 68, 90
1, 76310, Note_on_c, 9, 36, 93
1, 76310, Note_on_c, 9, 42, 84
1, 76310, Note_on_c, 9, 70, 87
1, 76324, Note_on_c, 0, 25, 76
1, 76482, Lyric_t, "\\De"
1, 76489, Note_off_c, 9, 42, 0
1, 76535, Note_off_c, 9, 70, 0
1, 76543, Note_off_c, 2, 68, 0
1, 76550, Note_off_c, 9, 36, 0
1, 76761, Note_on_c, 2, 68, 102
1, 76790, Note_on_c, 9, 42, 78
1, 76790, Note_on_c, 9, 70, 78
1, 76790, Note_on_c, 9, 61, 78
1, 76888, Note_off_c, 3, 56, 0
1, 76888, Note_off_c, 7, 56, 0
1, 76908, Lyric_t, " tus"
1, 76946, Note_off_c, 9, 42, 0
1, 76995, Note_off_c, 9, 70, 0
1, 77030, Note_off_c, 0, 25, 0
1, 77157, Note_off_c, 9, 61, 0
1, 77228, Note_off_c, 2, 68, 0
1, 77229, Note_off_c, 3, 61, 0
1, 77229, Note_off_c, 7, 61, 0
1, 77269, Note_on_c, 2, 66, 82
1, 77270, Note_on_c, 3, 56, 68
1, 77270, Note_on_c, 9, 37, 105
1, 77270, Note_on_c, 9, 42, 105
1, 77270, Note_on_c, 9, 70, 93
1, 77270, Note_on_c, 7, 56, 68
1, 77298, Note_on_c, 0, 25, 117
1, 77444, Lyric_t, " de"
1, 77460, Note_off_c, 9, 42, 0
1, 77484, Note_off_c, 9, 70, 0
1, 77510, Note_off_c, 9, 37, 0
1, 77517, Note_off_c, 2, 66, 0
1, 77700, Note_off_c, 0, 25, 0
1, 77748, Note_on_c, 2, 66, 99
1, 77750, Note_on_c, 3, 61, 72
1, 77750, Note_on_c, 9, 46, 102
1, 77750, Note_on_c, 9, 82, 74
1, 77750, Note_on_c, 9, 70, 99
1, 77750, Note_on_c, 9, 62, 96
1, 77750, Note_on_c, 7, 61, 72
1, 77870, Lyric_t, "se"
1, 77933, Note_off_c, 3, 54, 0
1, 77933, Note_off_c, 7, 54, 0
1, 77933, Note_off_c, 9, 82, 0
1, 77947, Note_off_c, 9, 70, 0
1, 77990, Note_off_c, 9, 62, 0
1, 78007, Note_off_c, 9, 46, 0
1, 78215, Note_off_c, 2, 66, 0
1, 78221, Note_on_c, 2, 65, 78
1, 78230, Note_on_c, 3, 49, 48
1, 78230, Note_on_c, 5, 65, 87
1, 78230, Note_on_c, 9, 36, 96
1, 78230, Note_on_c, 9, 42, 105
1, 78230, Note_on_c, 9, 70, 90
1, 78230, Note_on_c, 9, 60, 111
1, 78230, Note_on_c, 7, 49, 48
1, 78230, Note_on_c, 10, 65, 87
1, 78257, Note_on_c, 0, 25, 93
1, 78356, Lyric_t, "o"
1, 78422, Note_off_c, 9, 42, 0
1, 78443, Note_off_c, 9, 70, 0
1, 78446, Note_off_c, 9, 60, 0
1, 78470, Note_off_c, 9, 36, 0
1, 78555, Note_off_c, 3, 56, 0
1, 78555, Note_off_c, 7, 56, 0
1, 78644, Lyric_t, "."
1, 78710, Note_on_c, 3, 53, 25
1, 78710, Note_on_c, 5, 68, 76
1, 78710, Note_on_c, 9, 42, 59
1, 78710, Note_on_c, 9, 70, 78
1, 78710, Note_on_c, 9, 61, 82
1, 78710, Note_on_c, 7, 53, 25
1, 78710, Note_on_c, 10, 68, 76
1, 78814, Note_off_c, 9, 61, 0
1, 78846, Note_off_c, 9, 42, 0
1, 78875, Lyric_t, "."
1, 78905, Note_off_c, 9, 70, 0
1, 78943, Note_off_c, 2, 65, 0
1, 79069, Note_off_c, 3, 61, 0
1, 79069, Note_off_c, 7, 61, 0
1, 79182, Note_off_c, 5, 65, 0
1, 79182, Note_off_c, 10, 65, 0
1, 79190, Note_on_c, 3, 56, 58
1, 79190, Note_on_c, 5, 65, 80
1, 79190, Note_on_c, 9, 37, 105
1, 79190, Note_on_c, 9, 42, 105
1, 79190, Note_on_c, 9, 70, 90
1, 79190, Note_on_c, 9, 82, 82
1, 79190, Note_on_c, 7, 56, 58
1, 79190, Note_on_c, 10, 65, 80
1, 79339, Note_off_c, 9, 82, 0
1, 79359, Note_off_c, 0, 25, 0
1, 79387, Note_off_c, 9, 70, 0
1, 79419, Note_off_c, 9, 42, 0
1, 79464, Note_off_c, 9, 37, 0
1, 79616, Lyric_t, "s"
1, 79670, Note_on_c, 3, 61, 62
1, 79670, Note_on_c, 5, 63, 82
1, 79670, Note_on_c, 9, 36, 99
1, 79670, Note_on_c, 9, 42, 80
1, 79670, Note_on_c, 9, 70, 99
1, 79670, Note_on_c, 9, 62, 90
1, 79670, Note_on_c, 7, 61, 62
1, 79670, Note_on_c, 10, 63, 82
1, 79687, Note_on_c, 0, 25, 102
1, 79841, Note_off_c, 9, 42, 0
1, 79845, Note_off_c, 0, 25, 0
1, 79869, Note_off_c, 9, 62, 0
1, 79897, Note_off_c, 9, 70, 0
1, 79916, Note_off_c, 9, 36, 0
1, 79931, Note_off_c, 5, 65, 0
1, 79931, Note_off_c, 10, 65, 0
1, 80131, Note_off_c, 5, 68, 0
1, 80131, Note_off_c, 10, 68, 0
1, 80150, Note_on_c, 9, 36, 93
1, 80150, Note_on_c, 9, 42, 102
1, 80150, Note_on_c, 9, 70, 76
1, 80174, Note_off_c, 3, 49, 0
1, 80174, Note_off_c, 7, 49, 0
1, 80195, Note_on_c, 0, 32, 78
1, 80257, Note_off_c, 3, 53, 0
1, 80257, Note_off_c, 7, 53, 0
1, 80338, Note_off_c, 9, 70, 0
1, 80377, Note_off_c, 9, 42, 0
1, 80390, Note_off_c, 9, 36, 0
1, 80630, Note_on_c, 3, 49, 59
1, 80630, Note_on_c, 5, 68, 72
1, 80630, Note_on_c, 9, 42, 70
1, 80630, Note_on_c, 9, 70, 64
1, 80630, Note_on_c, 9, 60, 93
1, 80630, Note_on_c, 7, 49, 59
1, 80630, Note_on_c, 10, 68, 72
1, 80796, Note_off_c, 9, 70, 0
1, 80799, Note_off_c, 9, 42, 0
1, 80835, Note_off_c, 9, 60, 0
1, 80919, Note_off_c, 5, 63, 0
1, 80919, Note_off_c, 10, 63, 0
1, 81110, Note_on_c, 3, 53, 66
1, 81110, Note_on_c, 5, 63, 76
1, 81110, Note_on_c, 9, 37, 99
1, 81110, Note_on_c, 9, 42, 105
1, 81110, Note_on_c, 9, 70, 102
1, 81110, Note_on_c, 7, 53, 66
1, 81110, Note_on_c, 10, 63, 76
1, 81173, Note_off_c, 3, 56, 0
1, 81173, Note_off_c, 7, 56, 0
1, 81223, Note_off_c, 0, 32, 0
1, 81341, Note_off_c, 9, 42, 0
1, 81341, Note_off_c, 9, 70, 0
1, 81421, Note_off_c, 9, 37, 0
1, 81532, Note_off_c, 3, 61, 0
1, 81532, Note_off_c, 7, 61, 0
1, 81562, Note_off_c, 5, 63, 0
1, 81562, Note_off_c, 10, 63, 0
1, 81590, Note_on_c, 3, 63, 55
1, 81590, Note_on_c, 5, 61, 74
1, 81590, Note_on_c, 9, 36, 102
1, 81590, Note_on_c, 9, 42, 93
1, 81590, Note_on_c, 9, 82, 74
1, 81590, Note_on_c, 9, 70, 102
1, 81590, Note_on_c, 9, 61, 87
1, 81590, Note_on_c, 7, 63, 55
1, 81590, Note_on_c, 10, 61, 74
1, 81610, Note_on_c, 0, 32, 76
1, 81759, Note_off_c, 9, 82, 0
1, 81795, Note_off_c, 9, 61, 0
1, 81823, Note_off_c, 9, 42, 0
1, 81830, Note_off_c, 9, 36, 0
1, 81858, Note_off_c, 9, 70, 0
1, 81953, Note_off_c, 0, 32, 0
1, 82070, Note_on_c, 9, 42, 66
1, 82070, Note_on_c, 9, 70, 76
1, 82106, Note_on_c, 0, 25, 76
1, 82245, Note_off_c, 9, 70, 0
1, 82249, Note_off_c, 9, 42, 0
1, 82252, Note_off_c, 5, 68, 0
1, 82252, Note_off_c, 10, 68, 0
1, 82550, Note_on_c, 3, 56, 70
1, 82550, Note_on_c, 5, 68, 70
1, 82550, Note_on_c, 9, 42, 87
1, 82550, Note_on_c, 9, 70, 74
1, 82550, Note_on_c, 9, 62, 93
1, 82550, Note_on_c, 7, 56, 70
1, 82550, Note_on_c, 10, 68, 70
1, 82560, Note_off_c, 3, 53, 0
1, 82560, Note_off_c, 7, 53, 0
1, 82746, Note_off_c, 9, 70, 0
1, 82779, Note_off_c, 9, 42, 0
1, 82786, Note_off_c, 9, 62, 0
1, 83030, Note_on_c, 3, 53, 58
1, 83030, Note_on_c, 9, 37, 99
1, 83030, Note_on_c, 9, 42, 99
1, 83030, Note_on_c, 9, 70, 93
1, 83030, Note_on_c, 7, 53, 58
1, 83236, Note_off_c, 0, 25, 0
1, 83255, Note_off_c, 9, 42, 0
1, 83256, Note_off_c, 9, 70, 0
1, 83300, Note_off_c, 9, 37, 0
1, 83510, Note_on_c, 3, 61, 76
1, 83510, Note_on_c, 9, 36, 102
1, 83510, Note_on_c, 9, 42, 82
1, 83510, Note_on_c, 9, 70, 78
1, 83510, Note_on_c, 9, 62, 99
1, 83510, Note_on_c, 7, 61, 76
1, 83532, Note_off_c, 3, 63, 0
1, 83532, Note_off_c, 7, 63, 0
1, 83547, Note_on_c, 0, 25, 90
1, 83689, Note_off_c, 9, 70, 0
1, 83700, Note_off_c, 9, 42, 0
1, 83726, Note_off_c, 0, 25, 0
1, 83750, Note_off_c, 9, 36, 0
1, 83775, Note_off_c, 9, 62, 0
1, 83990, Note_on_c, 9, 36, 93
1, 83990, Note_on_c, 9, 42, 84
1, 83990, Note_on_c, 9, 70, 93
1, 84002, Note_on_c, 2, 65, 82
1, 84033, Note_on_c, 0, 32, 87
1, 84199, Note_off_c, 9, 42, 0
1, 84200, Note_off_c, 9, 70, 0
1, 84223, Lyric_t, "\\De"
1, 84230, Note_off_c, 9, 36, 0
1, 84239, Note_off_c, 3, 53, 0
1, 84239, Note_off_c, 7, 53, 0
1, 84470, Note_on_c, 3, 53, 64
1, 84470, Note_on_c, 9, 42, 76
1, 84470, Note_on_c, 9, 70, 76
1, 84470, Note_on_c, 9, 61, 78
1, 84470, Note_on_c, 7, 53, 64
1, 84626, Note_off_c, 9, 70, 0
1, 84643, Note_off_c, 9, 42, 0
1, 84691, Note_on_c, 2, 68, 80
1, 84693, Note_off_c, 3, 56, 0
1, 84693, Note_off_c, 7, 56, 0
1, 84710, Note_off_c, 9, 61, 0
1, 84716, Note_off_c, 0, 32, 0
1, 84732, Note_off_c, 2, 65, 0
1, 84865, Note_off_c, 3, 61, 0
1, 84865, Note_off_c, 7, 61, 0
1, 84904, Lyric_t, " tus"
1, 84934, Note_on_c, 0, 32, 90
1, 84950, Note_on_c, 3, 56, 70
1, 84950, Note_on_c, 9, 37, 105
1, 84950, Note_on_c, 9, 42, 105
1, 84950, Note_on_c, 9, 70, 102
1, 84950, Note_on_c, 9, 82, 78
1, 84950, Note_on_c, 7, 56, 70
1, 85114, Note_off_c, 9, 70, 0
1, 85114, Note_off_c, 9, 82, 0
1, 85124, Note_off_c, 5, 61, 0
1, 85124, Note_off_c, 10, 61, 0
1, 85190, Note_off_c, 9, 42, 0
1, 85268, Note_off_c, 9, 37, 0
1, 85384, Note_off_c, 3, 49, 0
1, 85384, Note_off_c, 7, 49, 0
1, 85384, Note_off_c, 2, 68, 0
1, 85390, Note_on_c, 2, 65, 80
1, 85420, Note_off_c, 3, 53, 0
1, 85420, Note_off_c, 7, 53, 0
1, 85430, Note_on_c, 9, 42, 76
1, 85430, Note_on_c, 9, 82, 87
1, 85430, Note_on_c, 9, 70, 82
1, 85430, Note_on_c, 9, 61, 76
1, 85563, Lyric_t, " de"
1, 85599, Note_off_c, 9, 42, 0
1, 85614, Note_off_c, 9, 82, 0
1, 85622, Note_off_c, 9, 70, 0
1, 85670, Note_off_c, 9, 61, 0
1, 85679, Note_off_c, 0, 32, 0
1, 85900, Note_off_c, 2, 65, 0
1, 85910, Note_on_c, 3, 51, 72
1, 85910, Note_on_c, 9, 36, 96
1, 85910, Note_on_c, 9, 42, 99
1, 85910, Note_on_c, 9, 70, 93
1, 85910, Note_on_c, 9, 60, 82
1, 85910, Note_on_c, 7, 51, 72
1, 85934, Note_on_c, 0, 32, 82
1, 85996, Note_off_c, 3, 56, 0
1, 85996, Note_off_c, 7, 56, 0
1, 86105, Note_off_c, 9, 60, 0
1, 86144, Note_off_c, 9, 70, 0
1, 86145, Note_off_c, 9, 42, 0
1, 86150, Note_off_c, 9, 36, 0
1, 86388, Note_on_c, 2, 65, 93
1, 86390, Note_on_c, 3, 56, 58
1, 86390, Note_on_c, 5, 56, 72
1, 86390, Note_on_c, 9, 42, 72
1, 86390, Note_on_c, 9, 70, 76
1, 86390, Note_on_c, 9, 61, 72
1, 86390, Note_on_c, 7, 56, 58
1, 86390, Note_on_c, 10, 56, 72
1, 86555, Note_off_c, 9, 42, 0
1, 86556, Note_off_c, 9, 70, 0
1, 86570, Lyric_t, "se"
1, 86744, Note_off_c, 9, 61, 0
1, 86758, Note_off_c, 5, 68, 0
1, 86758, Note_off_c, 10, 68, 0
1, 86866, Note_off_c, 2, 65, 0
1, 86870, Note_on_c, 2, 63, 82
1, 86870, Note_on_c, 3, 58, 32
1, 86870, Note_on_c, 5, 58, 64
1, 86870, Note_on_c, 9, 37, 105
1, 86870, Note_on_c, 9, 42, 105
1, 86870, Note_on_c, 9, 70, 102
1, 86870, Note_on_c, 7, 58, 32
1, 86870, Note_on_c, 10, 58, 64
1, 86973, Note_off_c, 0, 32, 0
1, 87082, Note_off_c, 9, 42, 0
1, 87097, Note_off_c, 9, 70, 0
1, 87103, Lyric_t, "o"
1, 87144, Note_off_c, 9, 37, 0
1, 87340, Note_on_c, 0, 32, 82
1, 87350, Note_on_c, 3, 60, 68
1, 87350, Note_on_c, 5, 60, 74
1, 87350, Note_on_c, 9, 36, 99
1, 87350, Note_on_c, 9, 42, 87
1, 87350, Note_on_c, 9, 70, 93
1, 87350, Note_on_c, 9, 62, 82
1, 87350, Note_on_c, 7, 60, 68
1, 87350, Note_on_c, 10, 60, 74
1, 87448, Lyric_t, "."
1, 87475, Note_off_c, 3, 58, 0
1, 87475, Note_off_c, 7, 58, 0
1, 87540, Note_off_c, 9, 42, 0
1, 87549, Note_off_c, 9, 70, 0
1, 87552, Note_off_c, 0, 32, 0
1, 87590, Note_off_c, 9, 62, 0
1, 87596, Note_off_c, 9, 36, 0
1, 87830, Note_on_c, 9, 36, 93
1, 87830, Note_on_c, 9, 42, 93
1, 87830, Note_on_c, 9, 70, 82
1, 87841, Note_on_c, 0, 27, 87
1, 87895, Lyric_t, "."
1, 88023, Note_off_c, 3, 56, 0
1, 88023, Note_off_c, 7, 56, 0
1, 88053, Note_off_c, 9, 70, 0
1, 88059, Note_off_c, 9, 42, 0
1, 88064, Note_off_c, 3, 51, 0
1, 88064, Note_off_c, 7, 51, 0
1, 88070, Note_off_c, 9, 36, 0
1, 88310, Note_on_c, 3, 51, 66
1, 88310, Note_on_c, 5, 63, 74
1, 88310, Note_on_c, 9, 42, 80
1, 88310, Note_on_c, 9, 70, 72
1, 88310, Note_on_c, 9, 62, 99
1, 88310, Note_on_c, 7, 51, 66
1, 88310, Note_on_c, 10, 63, 74
1, 88457, Note_off_c, 9, 42, 0
1, 88472, Note_off_c, 9, 70, 0
1, 88651, Note_off_c, 9, 62, 0
1, 88790, Note_on_c, 3, 56, 66
1, 88790, Note_on_c, 9, 37, 99
1, 88790, Note_on_c, 9, 42, 102
1, 88790, Note_on_c, 9, 70, 99
1, 88790, Note_on_c, 9, 82, 84
1, 88790, Note_on_c, 7, 56, 66
1, 88915, Note_off_c, 0, 27, 0
1, 88920, Note_off_c, 2, 63, 0
1, 88954, Note_off_c, 9, 82, 0
1, 88985, Note_off_c, 9, 42, 0
1, 89004, Note_off_c, 9, 70, 0
1, 89101, Note_off_c, 9, 37, 0
1, 89269, Note_on_c, 0, 27, 84
1, 89270, Note_on_c, 3, 63, 72
1, 89270, Note_on_c, 9, 36, 102
1, 89270, Note_on_c, 9, 42, 108
1, 89270, Note_on_c, 9, 70, 87
1, 89270, Note_on_c, 9, 60, 78
1, 89270, Note_on_c, 7, 63, 72
1, 89372, Lyric_t, "s"
1, 89384, Note_off_c, 0, 27, 0
1, 89488, Note_off_c, 9, 70, 0
1, 89506, Note_off_c, 9, 42, 0
1, 89506, Note_off_c, 9, 60, 0
1, 89510, Note_off_c, 9, 36, 0
1, 89750, Note_on_c, 9, 42, 66
1, 89750, Note_on_c, 9, 70, 74
1, 89785, Note_on_c, 0, 32, 87
1, 89918, Note_off_c, 9, 70, 0
1, 89934, Note_off_c, 9, 42, 0
1, 90042, Note_off_c, 3, 51, 0
1, 90042, Note_off_c, 7, 51, 0
1, 90047, Note_off_c, 3, 56, 0
1, 90047, Note_off_c, 7, 56, 0
1, 90230, Note_on_c, 3, 51, 57
1, 90230, Note_on_c, 5, 68, 72
1, 90230, Note_on_c, 9, 42, 76
1, 90230, Note_on_c, 9, 70, 78
1, 90230, Note_on_c, 9, 62, 84
1, 90230, Note_on_c, 7, 51, 57
1, 90230, Note_on_c, 10, 68, 72
1, 90401, Note_off_c, 9, 70, 0
1, 90439, Note_off_c, 9, 42, 0
1, 90518, Note_off_c, 9, 62, 0
1, 90710, Note_on_c, 3, 56, 62
1, 90710, Note_on_c, 9, 37, 99
1, 90710, Note_on_c, 9, 42, 93
1, 90710, Note_on_c, 9, 82, 87
1, 90710, Note_on_c, 9, 70, 93
1, 90710, Note_on_c, 7, 56, 62
1, 90885, Note_off_c, 9, 82, 0
1, 90889, Note_off_c, 0, 32, 0
1, 90926, Note_off_c, 9, 42, 0
1, 90926, Note_off_c, 9, 70, 0
1, 90980, Note_off_c, 9, 37, 0
1, 90985, Note_off_c, 3, 60, 0
1, 90985, Note_off_c, 7, 60, 0
1, 91147, Note_off_c, 3, 63, 0
1, 91147, Note_off_c, 7, 63, 0
1, 91190, Note_on_c, 3, 58, 66
1, 91190, Note_on_c, 9, 36, 102
1, 91190, Note_on_c, 9, 42, 87
1, 91190, Note_on_c, 9, 70, 80
1, 91190, Note_on_c, 9, 60, 74
1, 91190, Note_on_c, 7, 58, 66
1, 91220, Note_on_c, 0, 32, 99
1, 91385, Note_off_c, 9, 42, 0
1, 91400, Note_off_c, 9, 70, 0
1, 91416, Note_off_c, 0, 32, 0
1, 91430, Note_off_c, 9, 36, 0
1, 91454, Note_off_c, 9, 60, 0
1, 91670, Note_on_c, 2, 70, 78
1, 91670, Note_on_c, 9, 36, 93
1, 91670, Note_on_c, 9, 42, 84
1, 91670, Note_on_c, 9, 70, 87
1, 91688, Note_on_c, 0, 27, 76
1, 91849, Note_off_c, 9, 42, 0
1, 91890, Note_off_c, 2, 70, 0
1, 91895, Note_off_c, 9, 70, 0
1, 91907, Lyric_t, "\\Pe"
1, 91910, Note_off_c, 9, 36, 0
1, 91924, Note_off_c, 5, 56, 0
1, 91924, Note_off_c, 10, 56, 0
1, 91933, Note_off_c, 5, 58, 0
1, 91933, Note_off_c, 10, 58, 0
1, 92046, Note_off_c, 5, 60, 0
1, 92046, Note_off_c, 10, 60, 0
1, 92096, Note_off_c, 5, 68, 0
1, 92096, Note_off_c, 10, 68, 0
1, 92103, Note_off_c, 5, 63, 0
1, 92103, Note_off_c, 10, 63, 0
1, 92129, Note_off_c, 0, 27, 0
1, 92135, Note_on_c, 0, 30, 84
1, 92150, Note_on_c, 3, 60, 72
1, 92150, Note_on_c, 9, 42, 78
1, 92150, Note_on_c, 9, 70, 78
1, 92150, Note_on_c, 9, 61, 78
1, 92150, Note_on_c, 9, 42, 99
1, 92150, Note_on_c, 7, 60, 72
1, 92151, Note_on_c, 2, 70, 84
1, 92249, Note_off_c, 9, 42, 0
1, 92278, Lyric_t, "ro"
1, 92309, Note_off_c, 3, 58, 0
1, 92309, Note_off_c, 7, 58, 0
1, 92355, Note_off_c, 9, 70, 0
1, 92380, Note_off_c, 2, 70, 0
1, 92390, Note_off_c, 9, 61, 0
1, 92390, Note_on_c, 9, 42, 105
1, 92470, Note_off_c, 3, 56, 0
1, 92470, Note_off_c, 7, 56, 0
1, 92507, Note_off_c, 9, 42, 0
1, 92557, Note_off_c, 0, 30, 0
1, 92630, Note_on_c, 3, 56, 72
1, 92630, Note_on_c, 9, 37, 105
1, 92630, Note_on_c, 9, 42, 105
1, 92630, Note_on_c, 9, 70, 93
1, 92630, Note_on_c, 9, 42, 117
1, 92630, Note_on_c, 7, 56, 72
1, 92647, Note_on_c, 0, 32, 93
1, 92648, Note_on_c, 2, 72, 72
1, 92777, Note_off_c, 9, 42, 0
1, 92830, Lyric_t, " por"
1, 92844, Note_off_c, 9, 70, 0
1, 92948, Note_off_c, 9, 37, 0
1, 93088, Note_off_c, 0, 32, 0
1, 93110, Note_off_c, 2, 72, 0
1, 93110, Note_on_c, 3, 63, 72
1, 93110, Note_on_c, 9, 46, 102
1, 93110, Note_on_c, 9, 82, 74
1, 93110, Note_on_c, 9, 70, 99
1, 93110, Note_on_c, 9, 62, 96
1, 93110, Note_on_c, 9, 46, 114
1, 93110, Note_on_c, 7, 63, 72
1, 93122, Note_on_c, 0, 27, 80
1, 93128, Note_on_c, 2, 73, 102
1, 93253, Note_off_c, 9, 46, 0
1, 93293, Note_off_c, 9, 82, 0
1, 93307, Note_off_c, 9, 70, 0
1, 93318, Lyric_t, " den"
1, 93327, Note_off_c, 3, 56, 0
1, 93327, Note_off_c, 7, 56, 0
1, 93350, Note_off_c, 9, 62, 0
1, 93373, Note_off_c, 3, 51, 0
1, 93373, Note_off_c, 7, 51, 0
1, 93459, Note_off_c, 3, 60, 0
1, 93459, Note_off_c, 7, 60, 0
1, 93505, Note_off_c, 3, 63, 0
1, 93505, Note_off_c, 7, 63, 0
1, 93524, Note_off_c, 0, 27, 0
1, 93590, Note_on_c, 0, 34, 93
1, 93590, Note_on_c, 3, 56, 80
1, 93590, Note_on_c, 5, 61, 114
1, 93590, Note_on_c, 9, 36, 96
1, 93590, Note_on_c, 9, 42, 105
1, 93590, Note_on_c, 9, 70, 90
1, 93590, Note_on_c, 9, 60, 111
1, 93590, Note_on_c, 9, 51, 117
1, 93590, Note_on_c, 7, 56, 80
1, 93590, Note_on_c, 10, 61, 114
1, 93782, Note_off_c, 9, 42, 0
1, 93791, Note_off_c, 2, 73, 0
1, 93803, Note_off_c, 9, 70, 0
1, 93806, Note_off_c, 9, 60, 0
1, 93830, Note_off_c, 9, 36, 0
1, 93830, Note_off_c, 9, 51, 0
1, 94070, Note_on_c, 3, 58, 44
1, 94070, Note_on_c, 5, 53, 80
1, 94070, Note_on_c, 9, 42, 59
1, 94070, Note_on_c, 9, 70, 78
1, 94070, Note_on_c, 9, 61, 82
1, 94070, Note_on_c, 7, 58, 44
1, 94070, Note_on_c, 10, 53, 80
1, 94097, Note_on_c, 2, 73, 114
1, 94174, Note_off_c, 9, 61, 0
1, 94206, Note_off_c, 9, 42, 0
1, 94265, Note_off_c, 9, 70, 0
1, 94290, Note_off_c, 2, 73, 0
1, 94461, Lyric_t, "tro"
1, 94550, Note_on_c, 5, 56, 76
1, 94550, Note_on_c, 9, 37, 105
1, 94550, Note_on_c, 9, 42, 105
1, 94550, Note_on_c, 9, 70, 90
1, 94550, Note_on_c, 9, 82, 82
1, 94550, Note_on_c, 10, 56, 76
1, 94691, Note_off_c, 0, 34, 0
1, 94699, Note_off_c, 9, 82, 0
1, 94747, Note_off_c, 9, 70, 0
1, 94779, Note_off_c, 9, 42, 0
1, 94824, Note_off_c, 9, 37, 0
1, 95030, Note_on_c, 0, 34, 80
1, 95030, Note_on_c, 3, 61, 76
1, 95030, Note_on_c, 5, 58, 76
1, 95030, Note_on_c, 9, 36, 99
1, 95030, Note_on_c, 9, 42, 80
1, 95030, Note_on_c, 9, 70, 99
1, 95030, Note_on_c, 9, 62, 90
1, 95030, Note_on_c, 7, 61, 76
1, 95030, Note_on_c, 10, 58, 76
1, 95054, Note_on_c, 2, 73, 105
1, 95201, Note_off_c, 9, 42, 0
1, 95221, Note_off_c, 2, 73, 0
1, 95226, Note_off_c, 0, 34, 0
1, 95229, Note_off_c, 9, 62, 0
1, 95247, Lyric_t, "\\En"
1, 95257, Note_off_c, 9, 70, 0
1, 95276, Note_off_c, 9, 36, 0
1, 95510, Note_on_c, 0, 29, 90
1, 95510, Note_on_c, 9, 36, 93
1, 95510, Note_on_c, 9, 42, 102
1, 95510, Note_on_c, 9, 70, 76
1, 95521, Note_on_c, 2, 73, 108
1, 95528, Lyric_t, "ti"
1, 95698, Note_off_c, 9, 70, 0
1, 95737, Note_off_c, 9, 42, 0
1, 95750, Note_off_c, 9, 36, 0
1, 95786, Lyric_t, "en"
1, 95811, Note_off_c, 3, 56, 0
1, 95811, Note_off_c, 7, 56, 0
1, 95839, Note_off_c, 3, 58, 0
1, 95839, Note_off_c, 7, 58, 0
1, 95920, Note_off_c, 2, 73, 0
1, 95964, Note_on_c, 2, 72, 80
1, 95990, Note_on_c, 3, 58, 74
1, 95990, Note_on_c, 9, 42, 70
1, 95990, Note_on_c, 9, 70, 64
1, 95990, Note_on_c, 9, 60, 93
1, 95990, Note_on_c, 7, 58, 74
1, 96137, Lyric_t, "de"
1, 96156, Note_off_c, 9, 70, 0
1, 96159, Note_off_c, 9, 42, 0
1, 96195, Note_off_c, 9, 60, 0
1, 96264, Note_off_c, 2, 72, 0
1, 96368, Note_off_c, 5, 53, 0
1, 96368, Note_off_c, 10, 53, 0
1, 96465, Note_on_c, 2, 73, 102
1, 96470, Note_on_c, 5, 53, 72
1, 96470, Note_on_c, 9, 37, 99
1, 96470, Note_on_c, 9, 42, 105
1, 96470, Note_on_c, 9, 70, 102
1, 96470, Note_on_c, 10, 53, 72
1, 96627, Lyric_t, " que"
1, 96685, Note_off_c, 0, 29, 0
1, 96701, Note_off_c, 9, 42, 0
1, 96701, Note_off_c, 9, 70, 0
1, 96781, Note_off_c, 9, 37, 0
1, 96871, Note_off_c, 2, 73, 0
1, 96950, Note_on_c, 0, 29, 87
1, 96950, Note_on_c, 3, 65, 74
1, 96950, Note_on_c, 5, 65, 74
1, 96950, Note_on_c, 9, 36, 102
1, 96950, Note_on_c, 9, 42, 93
1, 96950, Note_on_c, 9, 82, 74
1, 96950, Note_on_c, 9, 70, 102
1, 96950, Note_on_c, 9, 61, 87
1, 96950, Note_on_c, 7, 65, 74
1, 96950, Note_on_c, 10, 65, 74
1, 96951, Note_on_c, 2, 72, 80
1, 97050, Lyric_t, " no"
1, 97119, Note_off_c, 9, 82, 0
1, 97155, Note_off_c, 9, 61, 0
1, 97162, Note_off_c, 0, 29, 0
1, 97162, Note_off_c, 2, 72, 0
1, 97183, Note_off_c, 9, 42, 0
1, 97190, Note_off_c, 9, 36, 0
1, 97218, Note_off_c, 9, 70, 0
1, 97430, Note_on_c, 0, 34, 99
1, 97430, Note_on_c, 9, 42, 66
1, 97430, Note_on_c, 9, 70, 76
1, 97445, Note_on_c, 2, 73, 105
1, 97481, Lyric_t, " pu"
1, 97605, Note_off_c, 9, 70, 0
1, 97609, Note_off_c, 9, 42, 0
1, 97677, Note_off_c, 5, 53, 0
1, 97677, Note_off_c, 10, 53, 0
1, 97727, Note_off_c, 3, 58, 0
1, 97727, Note_off_c, 7, 58, 0
1, 97798, Lyric_t, "e"
1, 97899, Note_off_c, 2, 73, 0
1, 97910, Note_on_c, 3, 58, 74
1, 97910, Note_on_c, 5, 53, 93
1, 97910, Note_on_c, 9, 42, 87
1, 97910, Note_on_c, 9, 70, 74
1, 97910, Note_on_c, 9, 62, 93
1, 97910, Note_on_c, 7, 58, 74
1, 97910, Note_on_c, 10, 53, 93
1, 97916, Note_on_c, 2, 72, 80
1, 98008, Note_off_c, 5, 56, 0
1, 98008, Note_off_c, 10, 56, 0
1, 98106, Note_off_c, 9, 70, 0
1, 98139, Note_off_c, 9, 42, 0
1, 98146, Note_off_c, 9, 62, 0
1, 98167, Note_off_c, 2, 72, 0
1, 98168, Lyric_t, "do"
1, 98320, Note_off_c, 5, 58, 0
1, 98320, Note_off_c, 10, 58, 0
1, 98390, Note_on_c, 9, 37, 99
1, 98390, Note_on_c, 9, 42, 99
1, 98390, Note_on_c, 9, 70, 93
1, 98409, Note_on_c, 2, 70, 93
1, 98426, Note_off_c, 5, 61, 0
1, 98426, Note_off_c, 10, 61, 0
1, 98586, Note_off_c, 0, 34, 0
1, 98615, Note_off_c, 9, 42, 0
1, 98616, Note_off_c, 9, 70, 0
1, 98616, Note_off_c, 2, 70, 0
1, 98629, Lyric_t, "\\Y"
1, 98660, Note_off_c, 9, 37, 0
1, 98745, Note_off_c, 3, 61, 0
1, 98745, Note_off_c, 7, 61, 0
1, 98777, Note_off_c, 3, 65, 0
1, 98777, Note_off_c, 7, 65, 0
1, 98788, Note_off_c, 5, 65, 0
1, 98788, Note_off_c, 10, 65, 0
1, 98851, Lyric_t, " a"
1, 98870, Note_on_c, 0, 34, 76
1, 98870, Note_on_c, 3, 61, 82
1, 98870, Note_on_c, 5, 56, 87
1, 98870, Note_on_c, 9, 36, 102
1, 98870, Note_on_c, 9, 42, 82
1, 98870, Note_on_c, 9, 70, 78
1, 98870, Note_on_c, 9, 62, 99
1, 98870, Note_on_c, 7, 61, 82
1, 98870, Note_on_c, 10, 56, 87
1, 98890, Note_on_c, 2, 70, 93
1, 99049, Note_off_c, 9, 70, 0
1, 99060, Note_off_c, 9, 42, 0
1, 99083, Note_off_c, 2, 70, 0
1, 99110, Note_off_c, 9, 36, 0
1, 99135, Note_off_c, 9, 62, 0
1, 99143, Note_off_c, 0, 34, 0
1, 99189, Lyric_t, " ve"
1, 99350, Note_on_c, 0, 34, 82
1, 99350, Note_on_c, 9, 36, 93
1, 99350, Note_on_c, 9, 42, 84
1, 99350, Note_on_c, 9, 70, 93
1, 99366, Note_on_c, 2, 70, 93
1, 99559, Note_off_c, 9, 42, 0
1, 99560, Note_off_c, 9, 70, 0
1, 99563, Lyric_t, "ces"
1, 99590, Note_off_c, 9, 36, 0
1, 99830, Note_on_c, 3, 63, 74
1, 99830, Note_on_c, 5, 58, 99
1, 99830, Note_on_c, 9, 42, 76
1, 99830, Note_on_c, 9, 70, 76
1, 99830, Note_on_c, 9, 61, 78
1, 99830, Note_on_c, 7, 63, 74
1, 99830, Note_on_c, 10, 58, 99
1, 99986, Note_off_c, 9, 70, 0
1, 100003, Note_off_c, 9, 42, 0
1, 100010, Note_off_c, 3, 58, 0
1, 100010, Note_off_c, 7, 58, 0
1, 100121, Note_off_c, 9, 61, 0
1, 100260, Note_off_c, 0, 34, 0
1, 100301, Note_on_c, 2, 72, 87
1, 100310, Note_on_c, 0, 32, 80
1, 100310, Note_on_c, 3, 58, 70
1, 100310, Note_on_c, 9, 37, 105
1, 100310, Note_on_c, 9, 42, 105
1, 100310, Note_on_c, 9, 70, 102
1, 100310, Note_on_c, 9, 82, 78
1, 100310, Note_on_c, 7, 58, 70
1, 100344, Note_off_c, 2, 70, 0
1, 100471, Lyric_t, " me"
1, 100474, Note_off_c, 9, 70, 0
1, 100474, Note_off_c, 9, 82, 0
1, 100550, Note_off_c, 9, 37, 0
1, 100550, Note_off_c, 9, 42, 0
1, 100589, Note_off_c, 3, 61, 0
1, 100589, Note_off_c, 7, 61, 0
1, 100698, Note_off_c, 3, 63, 0
1, 100698, Note_off_c, 7, 63, 0
1, 100778, Note_on_c, 2, 73, 102
1, 100790, Note_on_c, 3, 61, 74
1, 100790, Note_on_c, 5, 61, 114
1, 100790, Note_on_c, 9, 42, 76
1, 100790, Note_on_c, 9, 82, 87
1, 100790, Note_on_c, 9, 70, 82
1, 100790, Note_on_c, 9, 61, 76
1, 100790, Note_on_c, 7, 61, 74
1, 100790, Note_on_c, 10, 61, 114
1, 100815, Note_off_c, 2, 72, 0
1, 100834, Note_off_c, 5, 58, 0
1, 100834, Note_off_c, 10, 58, 0
1, 100959, Note_off_c, 9, 42, 0
1, 100968, Lyric_t, " pi"
1, 100974, Note_off_c, 9, 82, 0
1, 100982, Note_off_c, 9, 70, 0
1, 101043, Note_off_c, 9, 61, 0
1, 101048, Note_off_c, 3, 58, 0
1, 101048, Note_off_c, 7, 58, 0
1, 101105, Note_off_c, 5, 53, 0
1, 101105, Note_off_c, 10, 53, 0
1, 101222, Note_off_c, 0, 32, 0
1, 101270, Note_on_c, 0, 30, 78
1, 101270, Note_on_c, 3, 54, 74
1, 101270, Note_on_c, 9, 36, 96
1, 101270, Note_on_c, 9, 42, 99
1, 101270, Note_on_c, 9, 70, 93
1, 101270, Note_on_c, 9, 60, 82
1, 101270, Note_on_c, 7, 54, 74
1, 101275, Lyric_t, "er"
1, 101465, Note_off_c, 9, 60, 0
1, 101504, Note_off_c, 9, 70, 0
1, 101505, Note_off_c, 9, 42, 0
1, 101510, Note_off_c, 9, 36, 0
1, 101588, Note_off_c, 2, 73, 0
1, 101748, Note_on_c, 2, 73, 105
1, 101750, Note_on_c, 3, 56, 76
1, 101750, Note_on_c, 5, 54, 99
1, 101750, Note_on_c, 9, 42, 72
1, 101750, Note_on_c, 9, 70, 76
1, 101750, Note_on_c, 9, 61, 72
1, 101750, Note_on_c, 7, 56, 76
1, 101750, Note_on_c, 10, 54, 99
1, 101827, Lyric_t, "d"
1, 101915, Note_off_c, 9, 42, 0
1, 101916, Note_off_c, 9, 70, 0
1, 101926, Note_off_c, 5, 56, 0
1, 101926, Note_off_c, 10, 56, 0
1, 102104, Note_off_c, 9, 61, 0
1, 102115, Note_off_c, 2, 73, 0
1, 102230, Note_on_c, 3, 58, 66
1, 102230, Note_on_c, 5, 56, 87
1, 102230, Note_on_c, 9, 37, 105
1, 102230, Note_on_c, 9, 42, 105
1, 102230, Note_on_c, 9, 70, 102
1, 102230, Note_on_c, 7, 58, 66
1, 102230, Note_on_c, 10, 56, 87
1, 102309, Note_off_c, 3, 56, 0
1, 102309, Note_off_c, 7, 56, 0
1, 102337, Note_off_c, 0, 30, 0
1, 102408, Note_off_c, 3, 61, 0
1, 102408, Note_off_c, 7, 61, 0
1, 102442, Note_off_c, 9, 42, 0
1, 102457, Note_off_c, 9, 70, 0
1, 102469, Lyric_t, "o"
1, 102504, Note_off_c, 9, 37, 0
1, 102710, Note_on_c, 0, 30, 82
1, 102710, Note_on_c, 3, 61, 78
1, 102710, Note_on_c, 5, 63, 72
1, 102710, Note_on_c, 9, 36, 99
1, 102710, Note_on_c, 9, 42, 87
1, 102710, Note_on_c, 9, 70, 93
1, 102710, Note_on_c, 9, 62, 82
1, 102710, Note_on_c, 7, 61, 78
1, 102710, Note_on_c, 10, 63, 72
1, 102900, Note_off_c, 9, 42, 0
1, 102909, Note_off_c, 9, 70, 0
1, 102950, Note_off_c, 9, 62, 0
1, 102956, Note_off_c, 9, 36, 0
1, 102972, Note_off_c, 0, 30, 0
1, 103190, Note_on_c, 0, 25, 78
1, 103190, Note_on_c, 9, 36, 93
1, 103190, Note_on_c, 9, 42, 93
1, 103190, Note_on_c, 9, 70, 82
1, 103413, Note_off_c, 9, 70, 0
1, 103419, Note_off_c, 9, 42, 0
1, 103430, Note_off_c, 9, 36, 0
1, 103440, Note_off_c, 3, 58, 0
1, 103440, Note_off_c, 7, 58, 0
1, 103510, Note_off_c, 5, 54, 0
1, 103510, Note_off_c, 10, 54, 0
1, 103670, Note_on_c, 3, 58, 72
1, 103670, Note_on_c, 5, 54, 99
1, 103670, Note_on_c, 9, 42, 80
1, 103670, Note_on_c, 9, 70, 72
1, 103670, Note_on_c, 9, 62, 99
1, 103670, Note_on_c, 7, 58, 72
1, 103670, Note_on_c, 10, 54, 99
1, 103817, Note_off_c, 9, 42, 0
1, 103832, Note_off_c, 9, 70, 0
1, 103882, Note_off_c, 5, 56, 0
1, 103882, Note_off_c, 10, 56, 0
1, 104011, Note_off_c, 9, 62, 0
1, 104116, Note_off_c, 5, 61, 0
1, 104116, Note_off_c, 10, 61, 0
1, 104150, Note_on_c, 3, 63, 68
1, 104150, Note_on_c, 5, 56, 76
1, 104150, Note_on_c, 9, 37, 99
1, 104150, Note_on_c, 9, 42, 102
1, 104150, Note_on_c, 9, 70, 99
1, 104150, Note_on_c, 9, 82, 84
1, 104150, Note_on_c, 7, 63, 68
1, 104150, Note_on_c, 10, 56, 76
1, 104201, Note_off_c, 5, 63, 0
1, 104201, Note_off_c, 10, 63, 0
1, 104237, Note_off_c, 3, 61, 0
1, 104237, Note_off_c, 7, 61, 0
1, 104314, Note_off_c, 9, 82, 0
1, 104345, Note_off_c, 9, 42, 0
1, 104364, Note_off_c, 9, 70, 0
1, 104390, Note_off_c, 9, 37, 0
1, 104397, Note_off_c, 0, 25, 0
1, 104630, Note_on_c, 0, 25, 74
1, 104630, Note_on_c, 3, 61, 90
1, 104630, Note_on_c, 5, 61, 90
1, 104630, Note_on_c, 9, 36, 102
1, 104630, Note_on_c, 9, 42, 108
1, 104630, Note_on_c, 9, 70, 87
1, 104630, Note_on_c, 9, 60, 78
1, 104630, Note_on_c, 7, 61, 90
1, 104630, Note_on_c, 10, 61, 90
1, 104848, Note_off_c, 9, 70, 0
1, 104866, Note_off_c, 9, 42, 0
1, 104866, Note_off_c, 9, 60, 0
1, 104870, Note_off_c, 9, 36, 0
1, 105092, Note_off_c, 0, 25, 0
1, 105110, Note_on_c, 0, 30, 93
1, 105110, Note_on_c, 9, 42, 66
1, 105110, Note_on_c, 9, 70, 74
1, 105278, Note_off_c, 9, 70, 0
1, 105294, Note_off_c, 9, 42, 0
1, 105301, Note_off_c, 3, 58, 0
1, 105301, Note_off_c, 7, 58, 0
1, 105511, Note_off_c, 3, 63, 0
1, 105511, Note_off_c, 7, 63, 0
1, 105554, Note_off_c, 5, 54, 0
1, 105554, Note_off_c, 10, 54, 0
1, 105590, Note_on_c, 3, 58, 72
1, 105590, Note_on_c, 9, 42, 76
1, 105590, Note_on_c, 9, 70, 78
1, 105590, Note_on_c, 9, 62, 84
1, 105590, Note_on_c, 9, 46, 102
1, 105590, Note_on_c, 7, 58, 72
1, 105761, Note_off_c, 9, 70, 0
1, 105768, Note_off_c, 3, 61, 0
1, 105768, Note_off_c, 7, 61, 0
1, 105799, Note_off_c, 9, 42, 0
1, 105830, Note_off_c, 9, 46, 0
1, 105878, Note_off_c, 9, 62, 0
1, 105885, Note_off_c, 0, 30, 0
1, 106070, Note_on_c, 0, 30, 90
1, 106070, Note_on_c, 3, 61, 62
1, 106070, Note_on_c, 5, 54, 93
1, 106070, Note_on_c, 9, 37, 99
1, 106070, Note_on_c, 9, 42, 93
1, 106070, Note_on_c, 9, 82, 87
1, 106070, Note_on_c, 9, 70, 93
1, 106070, Note_on_c, 7, 61, 62
1, 106070, Note_on_c, 10, 54, 93
1, 106119, Note_on_c, 2, 73, 108
1, 106245, Note_off_c, 9, 82, 0
1, 106283, Note_off_c, 2, 73, 0
1, 106286, Note_off_c, 9, 42, 0
1, 106286, Note_off_c, 9, 70, 0
1, 106309, Lyric_t, "\\Cu"
1, 106340, Note_off_c, 9, 37, 0
1, 106351, Note_off_c, 0, 30, 0
1, 106392, Note_off_c, 5, 56, 0
1, 106392, Note_off_c, 10, 56, 0
1, 106502, Lyric_t, "an"
1, 106550, Note_on_c, 0, 30, 87
1, 106550, Note_on_c, 9, 36, 102
1, 106550, Note_on_c, 9, 42, 87
1, 106550, Note_on_c, 9, 70, 80
1, 106550, Note_on_c, 9, 60, 74
1, 106550, Note_on_c, 9, 46, 108
1, 106588, Note_on_c, 2, 73, 108
1, 106728, Note_off_c, 3, 58, 0
1, 106728, Note_off_c, 7, 58, 0
1, 106745, Note_off_c, 9, 42, 0
1, 106760, Note_off_c, 9, 70, 0
1, 106763, Lyric_t, "do"
1, 106773, Note_off_c, 2, 73, 0
1, 106790, Note_off_c, 9, 36, 0
1, 106790, Note_off_c, 9, 46, 0
1, 106814, Note_off_c, 9, 60, 0
1, 106833, Note_off_c, 0, 30, 0
1, 107030, Note_on_c, 0, 30, 102
1, 107030, Note_on_c, 3, 58, 70
1, 107030, Note_on_c, 5, 56, 99
1, 107030, Note_on_c, 9, 36, 93
1, 107030, Note_on_c, 9, 42, 84
1, 107030, Note_on_c, 9, 70, 87
1, 107030, Note_on_c, 7, 58, 70
1, 107030, Note_on_c, 10, 56, 99
1, 107034, Note_off_c, 5, 61, 0
1, 107034, Note_off_c, 10, 61, 0
1, 107054, Note_on_c, 2, 73, 114
1, 107101, Lyric_t, " me"
1, 107209, Note_off_c, 9, 42, 0
1, 107255, Note_off_c, 9, 70, 0
1, 107270, Note_off_c, 9, 36, 0
1, 107419, Lyric_t, " e"
1, 107433, Note_off_c, 3, 54, 0
1, 107433, Note_off_c, 7, 54, 0
1, 107436, Note_off_c, 3, 58, 0
1, 107436, Note_off_c, 7, 58, 0
1, 107493, Note_off_c, 2, 73, 0
1, 107501, Note_on_c, 2, 75, 105
1, 107507, Note_off_c, 0, 30, 0
1, 107510, Note_on_c, 0, 30, 87
1, 107510, Note_on_c, 3, 56, 87
1, 107510, Note_on_c, 9, 42, 78
1, 107510, Note_on_c, 9, 70, 78
1, 107510, Note_on_c, 9, 61, 78
1, 107510, Note_on_c, 9, 45, 96
1, 107510, Note_on_c, 7, 56, 87
1, 107655, Note_off_c, 9, 45, 0
1, 107666, Note_off_c, 9, 42, 0
1, 107715, Note_off_c, 9, 70, 0
1, 107737, Lyric_t, "na"
1, 107750, Note_off_c, 9, 61, 0
1, 107750, Note_on_c, 9, 41, 102
1, 107874, Note_off_c, 9, 41, 0
1, 107944, Note_off_c, 2, 75, 0
1, 107959, Note_on_c, 2, 77, 90
1, 107962, Note_off_c, 0, 30, 0
1, 107990, Note_on_c, 0, 32, 105
1, 107990, Note_on_c, 3, 58, 72
1, 107990, Note_on_c, 5, 61, 90
1, 107990, Note_on_c, 9, 37, 105
1, 107990, Note_on_c, 9, 42, 105
1, 107990, Note_on_c, 9, 70, 93
1, 107990, Note_on_c, 9, 43, 114
1, 107990, Note_on_c, 7, 58, 72
1, 107990, Note_on_c, 10, 61, 90
1, 108093, Note_off_c, 9, 43, 0
1, 108116, Lyric_t, "mo"
1, 108180, Note_off_c, 9, 42, 0
1, 108204, Note_off_c, 9, 70, 0
1, 108308, Note_off_c, 9, 37, 0
1, 108377, Note_off_c, 5, 54, 0
1, 108377, Note_off_c, 10, 54, 0
1, 108383, Note_off_c, 0, 32, 0
1, 108391, Note_off_c, 2, 77, 0
1, 108440, Note_off_c, 3, 61, 0
1, 108440, Note_off_c, 7, 61, 0
1, 108470, Note_on_c, 0, 37, 93
1, 108470, Note_on_c, 3, 63, 82
1, 108470, Note_on_c, 9, 46, 102
1, 108470, Note_on_c, 9, 82, 74
1, 108470, Note_on_c, 9, 70, 99
1, 108470, Note_on_c, 9, 62, 96
1, 108470, Note_on_c, 7, 63, 82
1, 108482, Note_on_c, 2, 77, 84
1, 108584, Note_off_c, 5, 61, 0
1, 108584, Note_off_c, 10, 61, 0
1, 108609, Note_off_c, 5, 56, 0
1, 108609, Note_off_c, 10, 56, 0
1, 108653, Note_off_c, 9, 82, 0
1, 108656, Lyric_t, "r"
1, 108667, Note_off_c, 9, 70, 0
1, 108710, Note_off_c, 9, 62, 0
1, 108727, Note_off_c, 9, 46, 0
1, 108746, Note_off_c, 3, 58, 0
1, 108746, Note_off_c, 7, 58, 0
1, 108804, Note_off_c, 3, 56, 0
1, 108804, Note_off_c, 7, 56, 0
1, 108854, Note_off_c, 2, 77, 0
1, 108884, Lyric_t, "o"
1, 108950, Note_on_c, 0, 25, 105
1, 108950, Note_on_c, 1, 56, 58
1, 108950, Note_on_c, 3, 61, 99
1, 108950, Note_on_c, 5, 61, 90
1, 108950, Note_on_c, 6, 56, 58
1, 108950, Note_on_c, 9, 36, 84
1, 108950, Note_on_c, 9, 49, 114
1, 108950, Note_on_c, 9, 70, 90
1, 108950, Note_on_c, 9, 60, 111
1, 108950, Note_on_c, 9, 51, 93
1, 108950, Note_on_c, 7, 61, 99
1, 108950, Note_on_c, 10, 61, 90
1, 108966, Note_off_c, 3, 63, 0
1, 108966, Note_off_c, 7, 63, 0
1, 108995, Note_off_c, 0, 37, 0
1, 109089, Lyric_t, "."
1, 109163, Note_off_c, 9, 70, 0
1, 109166, Note_off_c, 9, 60, 0
1, 109190, Note_off_c, 9, 36, 0
1, 109190, Note_off_c, 9, 49, 0
1, 109190, Note_off_c, 9, 51, 0
1, 109221, Control_c, 5, 64, 127
1, 109221, Control_c, 10, 64, 127
1, 109430, Note_on_c, 3, 49, 76
1, 109430, Note_on_c, 9, 70, 78
1, 109430, Note_on_c, 9, 61, 82
1, 109430, Note_on_c, 9, 51, 45
1, 109430, Note_on_c, 7, 49, 76
1, 109534, Note_off_c, 9, 61, 0
1, 109625, Note_off_c, 9, 70, 0
1, 109636, Note_off_c, 9, 51, 0
1, 109811, Lyric_t, "."
1, 109910, Note_on_c, 3, 56, 72
1, 109910, Note_on_c, 5, 49, 70
1, 109910, Note_on_c, 9, 38, 87
1, 109910, Note_on_c, 9, 70, 90
1, 109910, Note_on_c, 9, 82, 82
1, 109910, Note_on_c, 9, 51, 80
1, 109910, Note_on_c, 7, 56, 72
1, 109910, Note_on_c, 10, 49, 70
1, 110028, Note_off_c, 0, 25, 0
1, 110059, Note_off_c, 9, 82, 0
1, 110107, Note_off_c, 9, 70, 0
1, 110150, Note_off_c, 9, 38, 0
1, 110228, Note_off_c, 9, 51, 0
1, 110234, Note_off_c, 3, 61, 0
1, 110234, Note_off_c, 7, 61, 0
1, 110332, Note_off_c, 5, 61, 0
1, 110332, Note_off_c, 10, 61, 0
1, 110390, Note_on_c, 0, 25, 105
1, 110390, Note_on_c, 3, 63, 90
1, 110390, Note_on_c, 5, 63, 93
1, 110390, Note_on_c, 9, 36, 78
1, 110390, Note_on_c, 9, 70, 99
1, 110390, Note_on_c, 9, 62, 90
1, 110390, Note_on_c, 9, 51, 74
1, 110390, Note_on_c, 7, 63, 90
1, 110390, Note_on_c, 10, 63, 93
1, 110401, Note_on_c, 2, 68, 102
1, 110589, Note_off_c, 9, 62, 0
1, 110617, Note_off_c, 9, 70, 0
1, 110630, Note_off_c, 0, 25, 0
1, 110630, Note_off_c, 9, 36, 0
1, 110630, Note_off_c, 9, 51, 0
1, 110652, Lyric_t, "\\A"
1, 110848, Note_on_c, 2, 80, 93
1, 110855, Note_off_c, 2, 68, 0
1, 110870, Note_on_c, 0, 32, 99
1, 110870, Note_on_c, 9, 36, 84
1, 110870, Note_on_c, 9, 70, 76
1, 110870, Note_on_c, 9, 51, 68
1, 110990, Lyric_t, " ve"
1, 111058, Note_off_c, 9, 70, 0
1, 111098, Note_off_c, 3, 49, 0
1, 111098, Note_off_c, 7, 49, 0
1, 111110, Note_off_c, 9, 36, 0
1, 111170, Note_off_c, 9, 51, 0
1, 111232, Note_off_c, 3, 56, 0
1, 111232, Note_off_c, 7, 56, 0
1, 111243, Note_off_c, 2, 80, 0
1, 111350, Note_on_c, 3, 49, 76
1, 111350, Note_on_c, 5, 56, 74
1, 111350, Note_on_c, 9, 70, 64
1, 111350, Note_on_c, 9, 60, 93
1, 111350, Note_on_c, 9, 51, 66
1, 111350, Note_on_c, 7, 49, 76
1, 111350, Note_on_c, 10, 56, 74
1, 111373, Note_on_c, 2, 78, 108
1, 111515, Lyric_t, "ces"
1, 111516, Note_off_c, 9, 70, 0
1, 111547, Note_off_c, 9, 51, 0
1, 111555, Note_off_c, 9, 60, 0
1, 111647, Note_off_c, 2, 78, 0
1, 111830, Note_on_c, 3, 56, 76
1, 111830, Note_on_c, 9, 38, 87
1, 111830, Note_on_c, 9, 70, 102
1, 111830, Note_on_c, 9, 51, 99
1, 111830, Note_on_c, 7, 56, 76
1, 111876, Note_on_c, 2, 78, 105
1, 111942, Lyric_t, " de"
1, 111969, Note_off_c, 0, 32, 0
1, 112061, Note_off_c, 9, 70, 0
1, 112070, Note_off_c, 9, 38, 0
1, 112070, Note_off_c, 9, 51, 0
1, 112161, Note_off_c, 5, 63, 0
1, 112161, Note_off_c, 10, 63, 0
1, 112231, Note_off_c, 3, 63, 0
1, 112231, Note_off_c, 7, 63, 0
1, 112246, Note_off_c, 2, 78, 0
1, 112310, Note_on_c, 0, 32, 102
1, 112310, Note_on_c, 2, 77, 80
1, 112310, Note_on_c, 3, 65, 82
1, 112310, Note_on_c, 5, 65, 82
1, 112310, Note_on_c, 9, 36, 93
1, 112310, Note_on_c, 9, 82, 74
1, 112310, Note_on_c, 9, 70, 102
1, 112310, Note_on_c, 9, 61, 87
1, 112310, Note_on_c, 9, 51, 57
1, 112310, Note_on_c, 7, 65, 82
1, 112310, Note_on_c, 10, 65, 82
1, 112313, Note_off_c, 5, 49, 0
1, 112313, Note_off_c, 10, 49, 0
1, 112406, Note_off_c, 5, 56, 0
1, 112406, Note_off_c, 10, 56, 0
1, 112457, Lyric_t, "ses"
1, 112479, Note_off_c, 9, 82, 0
1, 112515, Note_off_c, 9, 61, 0
1, 112539, Note_off_c, 0, 32, 0
1, 112539, Note_off_c, 9, 51, 0
1, 112550, Note_off_c, 9, 36, 0
1, 112550, Note_off_c, 9, 70, 0
1, 112565, Note_off_c, 2, 77, 0
1, 112786, Note_on_c, 2, 77, 84
1, 112790, Note_on_c, 0, 25, 102
1, 112790, Note_on_c, 1, 61, 62
1, 112790, Note_on_c, 6, 61, 62
1, 112790, Note_on_c, 9, 70, 76
1, 112790, Note_on_c, 9, 51, 87
1, 112892, Lyric_t, "pe"
1, 112965, Note_off_c, 9, 70, 0
1, 113030, Note_off_c, 9, 51, 0
1, 113069, Note_off_c, 3, 49, 0
1, 113069, Note_off_c, 7, 49, 0
1, 113128, Note_off_c, 3, 56, 0
1, 113128, Note_off_c, 7, 56, 0
1, 113270, Note_on_c, 3, 49, 72
1, 113270, Note_on_c, 5, 49, 68
1, 113270, Note_on_c, 9, 70, 74
1, 113270, Note_on_c, 9, 62, 93
1, 113270, Note_on_c, 9, 51, 62
1, 113270, Note_on_c, 7, 49, 72
1, 113270, Note_on_c, 10, 49, 68
1, 113280, Note_on_c, 2, 75, 87
1, 113298, Note_off_c, 2, 77, 0
1, 113415, Lyric_t, "ro"
1, 113466, Note_off_c, 9, 70, 0
1, 113473, Note_off_c, 9, 51, 0
1, 113506, Note_off_c, 9, 62, 0
1, 113524, Note_off_c, 2, 75, 0
1, 113750, Note_on_c, 3, 56, 76
1, 113750, Note_on_c, 5, 56, 72
1, 113750, Note_on_c, 9, 38, 90
1, 113750, Note_on_c, 9, 70, 93
1, 113750, Note_on_c, 9, 51, 93
1, 113750, Note_on_c, 7, 56, 76
1, 113750, Note_on_c, 10, 56, 72
1, 113766, Note_on_c, 2, 73, 102
1, 113858, Lyric_t, "\\Cu"
1, 113963, Note_off_c, 2, 73, 0
1, 113976, Note_off_c, 9, 70, 0
1, 113990, Note_off_c, 9, 38, 0
1, 113990, Note_off_c, 9, 51, 0
1, 114028, Note_off_c, 0, 25, 0
1, 114059, Lyric_t, "an"
1, 114107, Note_off_c, 5, 65, 0
1, 114107, Note_off_c, 10, 65, 0
1, 114228, Note_off_c, 3, 65, 0
1, 114228, Note_off_c, 7, 65, 0
1, 114230, Note_on_c, 0, 25, 102
1, 114230, Note_on_c, 3, 63, 87
1, 114230, Note_on_c, 5, 63, 99
1, 114230, Note_on_c, 9, 36, 78
1, 114230, Note_on_c, 9, 70, 78
1, 114230, Note_on_c, 9, 62, 99
1, 114230, Note_on_c, 9, 51, 72
1, 114230, Note_on_c, 7, 63, 87
1, 114230, Note_on_c, 10, 63, 99
1, 114254, Note_on_c, 2, 73, 108
1, 114348, Lyric_t, "do"
1, 114409, Note_off_c, 9, 70, 0
1, 114466, Note_off_c, 2, 73, 0
1, 114470, Note_off_c, 9, 36, 0
1, 114470, Note_off_c, 9, 62, 0
1, 114478, Note_off_c, 9, 51, 0
1, 114503, Note_off_c, 0, 25, 0
1, 114710, Note_on_c, 0, 32, 99
1, 114710, Note_on_c, 9, 36, 87
1, 114710, Note_on_c, 9, 70, 93
1, 114710, Note_on_c, 9, 51, 80
1, 114734, Lyric_t, " me"
1, 114740, Note_on_c, 2, 73, 105
1, 114894, Note_off_c, 3, 49, 0
1, 114894, Note_off_c, 7, 49, 0
1, 114900, Note_off_c, 5, 49, 0
1, 114900, Note_off_c, 10, 49, 0
1, 114919, Note_off_c, 5, 56, 0
1, 114919, Note_off_c, 10, 56, 0
1, 114920, Note_off_c, 9, 70, 0
1, 114950, Note_off_c, 9, 36, 0
1, 114950, Note_off_c, 9, 51, 0
1, 114974, Note_off_c, 3, 56, 0
1, 114974, Note_off_c, 7, 56, 0
1, 115048, Lyric_t, " e"
1, 115185, Note_on_c, 2, 75, 99
1, 115190, Note_on_c, 3, 49, 72
1, 115190, Note_on_c, 9, 70, 76
1, 115190, Note_on_c, 9, 61, 78
1, 115190, Note_on_c, 9, 51, 72
1, 115190, Note_on_c, 7, 49, 72
1, 115205, Note_off_c, 2, 73, 0
1, 115346, Note_off_c, 9, 70, 0
1, 115386, Lyric_t, "na"
1, 115400, Note_off_c, 9, 51, 0
1, 115481, Note_off_c, 9, 61, 0
1, 115518, Note_off_c, 0, 32, 0
1, 115615, Note_off_c, 2, 75, 0
1, 115667, Note_on_c, 2, 77, 99
1, 115670, Note_on_c, 0, 32, 105
1, 115670, Note_on_c, 3, 56, 84
1, 115670, Note_on_c, 5, 56, 87
1, 115670, Note_on_c, 9, 38, 93
1, 115670, Note_on_c, 9, 70, 102
1, 115670, Note_on_c, 9, 82, 78
1, 115670, Note_on_c, 9, 51, 102
1, 115670, Note_on_c, 7, 56, 84
1, 115670, Note_on_c, 10, 56, 87
1, 115805, Lyric_t, "mo"
1, 115834, Note_off_c, 9, 70, 0
1, 115834, Note_off_c, 9, 82, 0
1, 115910, Note_off_c, 9, 38, 0
1, 115994, Note_off_c, 9, 51, 0
1, 116047, Note_off_c, 3, 63, 0
1, 116047, Note_off_c, 7, 63, 0
1, 116073, Note_off_c, 2, 77, 0
1, 116150, Note_on_c, 3, 61, 87
1, 116150, Note_on_c, 9, 82, 87
1, 116150, Note_on_c, 9, 70, 82
1, 116150, Note_on_c, 9, 61, 76
1, 116150, Note_on_c, 9, 51, 66
1, 116150, Note_on_c, 7, 61, 87
1, 116179, Note_on_c, 2, 77, 96
1, 116248, Lyric_t, "r"
1, 116334, Note_off_c, 9, 82, 0
1, 116342, Note_off_c, 9, 70, 0
1, 116347, Note_off_c, 9, 51, 0
1, 116403, Note_off_c, 9, 61, 0
1, 116462, Note_off_c, 5, 56, 0
1, 116462, Note_off_c, 10, 56, 0
1, 116491, Note_off_c, 3, 61, 0
1, 116491, Note_off_c, 7, 61, 0
1, 116528, Note_off_c, 0, 32, 0
1, 116543, Lyric_t, "o"
1, 116560, Note_off_c, 5, 63, 0
1, 116560, Note_off_c, 10, 63, 0
1, 116630, Note_off_c, 2, 77, 0
1, 116630, Note_on_c, 0, 25, 99
1, 116630, Note_on_c, 3, 61, 90
1, 116630, Note_on_c, 5, 61, 90
1, 116630, Note_on_c, 5, 49, 50
1, 116630, Note_on_c, 9, 36, 84
1, 116630, Note_on_c, 9, 70, 93
1, 116630, Note_on_c, 9, 60, 82
1, 116630, Note_on_c, 9, 51, 99
1, 116630, Note_on_c, 7, 61, 90
1, 116630, Note_on_c, 10, 61, 90
1, 116630, Note_on_c, 10, 49, 50
1, 116765, Lyric_t, "."
1, 116819, Note_off_c, 3, 49, 0
1, 116819, Note_off_c, 7, 49, 0
1, 116825, Note_off_c, 9, 60, 0
1, 116864, Note_off_c, 9, 70, 0
1, 116870, Note_off_c, 9, 36, 0
1, 116870, Note_off_c, 9, 51, 0
1, 116908, Note_off_c, 3, 56, 0
1, 116908, Note_off_c, 7, 56, 0
1, 117110, Note_on_c, 3, 49, 82
1, 117110, Note_on_c, 9, 70, 76
1, 117110, Note_on_c, 9, 61, 72
1, 117110, Note_on_c, 9, 51, 61
1, 117110, Note_on_c, 7, 49, 82
1, 117276, Note_off_c, 9, 70, 0
1, 117313, Note_off_c, 9, 51, 0
1, 117318, Lyric_t, "."
1, 117464, Note_off_c, 9, 61, 0
1, 117590, Note_on_c, 3, 56, 72
1, 117590, Note_on_c, 5, 56, 76
1, 117590, Note_on_c, 9, 38, 84
1, 117590, Note_on_c, 9, 70, 102
1, 117590, Note_on_c, 9, 51, 93
1, 117590, Note_on_c, 7, 56, 72
1, 117590, Note_on_c, 10, 56, 76
1, 117735, Note_off_c, 0, 25, 0
1, 117817, Note_off_c, 9, 70, 0
1, 117830, Note_off_c, 9, 38, 0
1, 117830, Note_off_c, 9, 51, 0
1, 117904, Note_off_c, 3, 61, 0
1, 117904, Note_off_c, 7, 61, 0
1, 117955, Note_off_c, 5, 61, 0
1, 117955, Note_off_c, 10, 61, 0
1, 118070, Note_on_c, 0, 25, 99
1, 118070, Note_on_c, 3, 63, 90
1, 118070, Note_on_c, 5, 63, 99
1, 118070, Note_on_c, 9, 36, 93
1, 118070, Note_on_c, 9, 70, 93
1, 118070, Note_on_c, 9, 62, 82
1, 118070, Note_on_c, 9, 51, 78
1, 118070, Note_on_c, 7, 63, 90
1, 118070, Note_on_c, 10, 63, 99
1, 118269, Note_off_c, 9, 70, 0
1, 118310, Note_off_c, 9, 36, 0
1, 118310, Note_off_c, 9, 62, 0
1, 118310, Note_off_c, 9, 51, 0
1, 118325, Note_off_c, 0, 25, 0
1, 118326, Control_c, 5, 64, 0
1, 118326, Control_c, 10, 64, 0
1, 118516, Control_c, 5, 64, 127
1, 118516, Control_c, 10, 64, 127
1, 118550, Note_on_c, 0, 32, 99
1, 118550, Note_on_c, 9, 36, 84
1, 118550, Note_on_c, 9, 70, 82
1, 118550, Note_on_c, 9, 51, 72
1, 118567, Note_on_c, 2, 80, 108
1, 118707, Lyric_t, "\\Cu"
1, 118710, Note_off_c, 5, 49, 0
1, 118710, Note_off_c, 10, 49, 0
1, 118726, Note_off_c, 3, 49, 0
1, 118726, Note_off_c, 7, 49, 0
1, 118773, Note_off_c, 9, 70, 0
1, 118790, Note_off_c, 9, 36, 0
1, 118824, Note_off_c, 9, 51, 0
1, 118876, Note_off_c, 5, 56, 0
1, 118876, Note_off_c, 10, 56, 0
1, 118881, Note_off_c, 3, 56, 0
1, 118881, Note_off_c, 7, 56, 0
1, 118945, Lyric_t, "an"
1, 118984, Note_off_c, 2, 80, 0
1, 118995, Note_on_c, 2, 78, 76
1, 119030, Note_on_c, 3, 49, 76
1, 119030, Note_on_c, 5, 49, 76
1, 119030, Note_on_c, 9, 70, 72
1, 119030, Note_on_c, 9, 62, 99
1, 119030, Note_on_c, 9, 51, 74
1, 119030, Note_on_c, 7, 49, 76
1, 119030, Note_on_c, 10, 49, 76
1, 119185, Lyric_t, "do"
1, 119192, Note_off_c, 9, 70, 0
1, 119270, Note_off_c, 9, 62, 0
1, 119315, Note_off_c, 9, 51, 0
1, 119319, Note_off_c, 2, 78, 0
1, 119509, Note_on_c, 2, 78, 102
1, 119510, Note_on_c, 3, 56, 76
1, 119510, Note_on_c, 9, 38, 84
1, 119510, Note_on_c, 9, 70, 99
1, 119510, Note_on_c, 9, 82, 84
1, 119510, Note_on_c, 9, 51, 93
1, 119510, Note_on_c, 7, 56, 76
1, 119581, Lyric_t, " me"
1, 119674, Note_off_c, 9, 82, 0
1, 119724, Note_off_c, 9, 70, 0
1, 119733, Note_off_c, 0, 32, 0
1, 119750, Note_off_c, 9, 38, 0
1, 119750, Note_off_c, 9, 51, 0
1, 119851, Note_off_c, 3, 63, 0
1, 119851, Note_off_c, 7, 63, 0
1, 119982, Note_on_c, 2, 77, 80
1, 119990, Note_off_c, 2, 78, 0
1, 119990, Note_on_c, 0, 32, 99
1, 119990, Note_on_c, 3, 65, 84
1, 119990, Note_on_c, 5, 65, 82
1, 119990, Note_on_c, 9, 36, 102
1, 119990, Note_on_c, 9, 70, 87
1, 119990, Note_on_c, 9, 60, 78
1, 119990, Note_on_c, 9, 51, 76
1, 119990, Note_on_c, 7, 65, 84
1, 119990, Note_on_c, 10, 65, 82
1, 120021, Note_off_c, 5, 63, 0
1, 120021, Note_off_c, 10, 63, 0
1, 120116, Lyric_t, "nos"
1, 120208, Note_off_c, 0, 32, 0
1, 120208, Note_off_c, 9, 70, 0
1, 120226, Note_off_c, 9, 60, 0
1, 120230, Note_off_c, 9, 36, 0
1, 120243, Note_off_c, 9, 51, 0
1, 120265, Note_off_c, 2, 77, 0
1, 120435, Note_on_c, 2, 77, 90
1, 120470, Note_on_c, 0, 25, 102
1, 120470, Note_on_c, 9, 70, 74
1, 120470, Note_on_c, 9, 51, 90
1, 120543, Lyric_t, " me"
1, 120631, Note_off_c, 3, 49, 0
1, 120631, Note_off_c, 7, 49, 0
1, 120638, Note_off_c, 9, 70, 0
1, 120710, Note_off_c, 9, 51, 0
1, 120713, Note_off_c, 3, 56, 0
1, 120713, Note_off_c, 7, 56, 0
1, 120902, Note_off_c, 2, 77, 0
1, 120924, Note_on_c, 2, 75, 84
1, 120947, Lyric_t, " lo"
1, 120950, Note_on_c, 3, 49, 74
1, 120950, Note_on_c, 5, 56, 70
1, 120950, Note_on_c, 9, 70, 78
1, 120950, Note_on_c, 9, 62, 84
1, 120950, Note_on_c, 9, 51, 74
1, 120950, Note_on_c, 7, 49, 74
1, 120950, Note_on_c, 10, 56, 70
1, 121121, Note_off_c, 9, 70, 0
1, 121167, Lyric_t, " es"
1, 121170, Note_off_c, 9, 51, 0
1, 121190, Note_off_c, 9, 62, 0
1, 121215, Note_off_c, 2, 75, 0
1, 121420, Note_on_c, 2, 75, 76
1, 121430, Note_on_c, 3, 56, 76
1, 121430, Note_on_c, 9, 38, 99
1, 121430, Note_on_c, 9, 82, 87
1, 121430, Note_on_c, 9, 70, 93
1, 121430, Note_on_c, 9, 51, 99
1, 121430, Note_on_c, 7, 56, 76
1, 121493, Lyric_t, "pe"
1, 121605, Note_off_c, 9, 82, 0
1, 121643, Note_off_c, 0, 25, 0
1, 121646, Note_off_c, 9, 70, 0
1, 121654, Note_off_c, 5, 65, 0
1, 121654, Note_off_c, 10, 65, 0
1, 121670, Note_off_c, 9, 38, 0
1, 121722, Note_off_c, 9, 51, 0
1, 121855, Note_off_c, 2, 75, 0
1, 121858, Note_off_c, 3, 65, 0
1, 121858, Note_off_c, 7, 65, 0
1, 121891, Note_on_c, 2, 73, 87
1, 121910, Note_on_c, 0, 25, 90
1, 121910, Note_on_c, 3, 63, 99
1, 121910, Note_on_c, 5, 63, 80
1, 121910, Note_on_c, 9, 36, 84
1, 121910, Note_on_c, 9, 70, 80
1, 121910, Note_on_c, 9, 60, 74
1, 121910, Note_on_c, 9, 51, 80
1, 121910, Note_on_c, 7, 63, 99
1, 121910, Note_on_c, 10, 63, 80
1, 121997, Lyric_t, "ro"
1, 122107, Note_off_c, 5, 56, 0
1, 122107, Note_off_c, 10, 56, 0
1, 122120, Note_off_c, 9, 70, 0
1, 122143, Note_off_c, 9, 51, 0
1, 122150, Note_off_c, 9, 36, 0
1, 122150, Note_off_c, 9, 60, 0
1, 122161, Note_off_c, 0, 25, 0
1, 122202, Note_off_c, 2, 73, 0
1, 122386, Note_on_c, 2, 73, 93
1, 122390, Note_on_c, 0, 25, 93
1, 122390, Note_on_c, 9, 36, 87
1, 122390, Note_on_c, 9, 70, 87
1, 122390, Note_on_c, 9, 51, 87
1, 122434, Lyric_t, "\\Me"
1, 122447, Note_off_c, 3, 49, 0
1, 122447, Note_off_c, 7, 49, 0
1, 122574, Note_off_c, 3, 56, 0
1, 122574, Note_off_c, 7, 56, 0
1, 122615, Note_off_c, 9, 70, 0
1, 122630, Note_off_c, 9, 36, 0
1, 122664, Note_off_c, 9, 51, 0
1, 122779, Lyric_t, " e"
1, 122796, Note_off_c, 2, 73, 0
1, 122826, Note_off_c, 5, 63, 0
1, 122826, Note_off_c, 10, 63, 0
1, 122833, Note_on_c, 2, 75, 105
1, 122870, Note_on_c, 3, 49, 78
1, 122870, Note_on_c, 5, 61, 90
1, 122870, Note_on_c, 9, 70, 78
1, 122870, Note_on_c, 9, 61, 78
1, 122870, Note_on_c, 9, 51, 80
1, 122870, Note_on_c, 7, 49, 78
1, 122870, Note_on_c, 10, 61, 90
1, 123048, Lyric_t, "na"
1, 123075, Note_off_c, 9, 70, 0
1, 123108, Note_off_c, 9, 51, 0
1, 123110, Note_off_c, 9, 61, 0
1, 123164, Note_off_c, 2, 75, 0
1, 123215, Note_off_c, 0, 25, 0
1, 123350, Note_on_c, 0, 25, 82
1, 123350, Note_on_c, 3, 56, 93
1, 123350, Note_on_c, 5, 56, 76
1, 123350, Note_on_c, 9, 38, 93
1, 123350, Note_on_c, 9, 70, 93
1, 123350, Note_on_c, 9, 51, 99
1, 123350, Note_on_c, 7, 56, 93
1, 123350, Note_on_c, 10, 56, 76
1, 123351, Note_on_c, 2, 75, 108
1, 123360, Note_off_c, 5, 49, 0
1, 123360, Note_off_c, 10, 49, 0
1, 123526, Lyric_t, "mo"
1, 123564, Note_off_c, 9, 70, 0
1, 123590, Note_off_c, 9, 38, 0
1, 123682, Note_off_c, 9, 51, 0
1, 123729, Note_off_c, 3, 63, 0
1, 123729, Note_off_c, 7, 63, 0
1, 123775, Note_off_c, 2, 75, 0
1, 123788, Note_on_c, 2, 72, 87
1, 123813, Note_off_c, 0, 25, 0
1, 123830, Note_on_c, 0, 27, 76
1, 123830, Note_on_c, 3, 61, 90
1, 123830, Note_on_c, 9, 82, 74
1, 123830, Note_on_c, 9, 70, 99
1, 123830, Note_on_c, 9, 62, 96
1, 123830, Note_on_c, 9, 51, 76
1, 123830, Note_on_c, 7, 61, 90
1, 123950, Lyric_t, "r"
1, 124013, Note_off_c, 9, 82, 0
1, 124027, Note_off_c, 9, 70, 0
1, 124046, Note_off_c, 9, 51, 0
1, 124110, Note_off_c, 9, 62, 0
1, 124180, Note_off_c, 1, 61, 0
1, 124180, Note_off_c, 6, 61, 0
1, 124226, Note_off_c, 5, 61, 0
1, 124226, Note_off_c, 10, 61, 0
1, 124238, Control_c, 5, 64, 0
1, 124238, Control_c, 10, 64, 0
1, 124240, Note_off_c, 3, 49, 0
1, 124240, Note_off_c, 7, 49, 0
1, 124310, Note_on_c, 0, 32, 93
1, 124310, Note_on_c, 1, 60, 72
1, 124310, Note_on_c, 3, 60, 80
1, 124310, Note_on_c, 5, 60, 93
1, 124310, Note_on_c, 6, 60, 72
1, 124310, Note_on_c, 9, 36, 84
1, 124310, Note_on_c, 9, 70, 90
1, 124310, Note_on_c, 9, 60, 111
1, 124310, Note_on_c, 9, 51, 93
1, 124310, Note_on_c, 7, 60, 80
1, 124310, Note_on_c, 10, 60, 93
1, 124311, Note_off_c, 0, 27, 0
1, 124313, Note_off_c, 3, 61, 0
1, 124313, Note_off_c, 7, 61, 0
1, 124373, Note_off_c, 2, 72, 0
1, 124430, Control_c, 5, 64, 127
1, 124430, Control_c, 10, 64, 127
1, 124437, Note_off_c, 5, 56, 0
1, 124437, Note_off_c, 10, 56, 0
1, 124487, Note_off_c, 3, 56, 0
1, 124487, Note_off_c, 7, 56, 0
1, 124523, Note_off_c, 9, 70, 0
1, 124526, Note_off_c, 9, 60, 0
1, 124550, Note_off_c, 9, 36, 0
1, 124550, Note_off_c, 9, 51, 0
1, 124551, Lyric_t, "o"
1, 124790, Note_on_c, 3, 56, 74
1, 124790, Note_on_c, 9, 70, 78
1, 124790, Note_on_c, 9, 61, 82
1, 124790, Note_on_c, 9, 51, 45
1, 124790, Note_on_c, 7, 56, 74
1, 124795, Lyric_t, "."
1, 124894, Note_off_c, 9, 61, 0
1, 124985, Note_off_c, 9, 70, 0
1, 124996, Note_off_c, 9, 51, 0
1, 125270, Note_on_c, 5, 56, 74
1, 125270, Note_on_c, 9, 38, 87
1, 125270, Note_on_c, 9, 70, 90
1, 125270, Note_on_c, 9, 82, 82
1, 125270, Note_on_c, 9, 51, 80
1, 125270, Note_on_c, 10, 56, 74
1, 125419, Note_off_c, 9, 82, 0
1, 125448, Note_off_c, 0, 32, 0
1, 125467, Note_off_c, 9, 70, 0
1, 125510, Note_off_c, 9, 38, 0
1, 125588, Note_off_c, 9, 51, 0
1, 125632, Note_off_c, 5, 60, 0
1, 125632, Note_off_c, 10, 60, 0
1, 125735, Lyric_t, "."
1, 125750, Note_on_c, 0, 32, 105
1, 125750, Note_on_c, 3, 61, 78
1, 125750, Note_on_c, 5, 61, 80
1, 125750, Note_on_c, 9, 36, 78
1, 125750, Note_on_c, 9, 70, 99
1, 125750, Note_on_c, 9, 62, 90
1, 125750, Note_on_c, 9, 51, 74
1, 125750, Note_on_c, 7, 61, 78
1, 125750, Note_on_c, 10, 61, 80
1, 125769, Note_off_c, 3, 60, 0
1, 125769, Note_off_c, 7, 60, 0
1, 125949, Note_off_c, 9, 62, 0
1, 125977, Note_off_c, 9, 70, 0
1, 125990, Note_off_c, 9, 36, 0
1, 126026, Note_off_c, 9, 51, 0
1, 126109, Note_off_c, 0, 32, 0
1, 126230, Note_on_c, 0, 27, 93
1, 126230, Note_on_c, 9, 36, 84
1, 126230, Note_on_c, 9, 70, 76
1, 126230, Note_on_c, 9, 51, 68
1, 126290, Note_off_c, 3, 56, 0
1, 126290, Note_off_c, 7, 56, 0
1, 126383, Note_off_c, 5, 56, 0
1, 126383, Note_off_c, 10, 56, 0
1, 126418, Note_off_c, 9, 70, 0
1, 126470, Note_off_c, 9, 36, 0
1, 126530, Note_off_c, 9, 51, 0
1, 126710, Note_on_c, 3, 56, 87
1, 126710, Note_on_c, 5, 56, 84
1, 126710, Note_on_c, 9, 70, 64
1, 126710, Note_on_c, 9, 60, 93
1, 126710, Note_on_c, 9, 51, 66
1, 126710, Note_on_c, 7, 56, 87
1, 126710, Note_on_c, 10, 56, 84
1, 126876, Note_off_c, 9, 70, 0
1, 126907, Note_off_c, 9, 51, 0
1, 126915, Note_off_c, 9, 60, 0
1, 127190, Note_on_c, 9, 38, 87
1, 127190, Note_on_c, 9, 70, 102
1, 127190, Note_on_c, 9, 51, 99
1, 127392, Note_off_c, 5, 61, 0
1, 127392, Note_off_c, 10, 61, 0
1, 127410, Note_off_c, 0, 27, 0
1, 127421, Note_off_c, 9, 70, 0
1, 127430, Note_off_c, 9, 38, 0
1, 127559, Note_off_c, 9, 51, 0
1, 127586, Note_off_c, 3, 61, 0
1, 127586, Note_off_c, 7, 61, 0
1, 127670, Note_on_c, 0, 27, 93
1, 127670, Note_on_c, 3, 60, 93
1, 127670, Note_on_c, 5, 60, 99
1, 127670, Note_on_c, 9, 36, 93
1, 127670, Note_on_c, 9, 82, 74
1, 127670, Note_on_c, 9, 70, 102
1, 127670, Note_on_c, 9, 61, 87
1, 127670, Note_on_c, 9, 51, 57
1, 127670, Note_on_c, 7, 60, 93
1, 127670, Note_on_c, 10, 60, 99
1, 127839, Note_off_c, 9, 82, 0
1, 127873, Note_off_c, 0, 27, 0
1, 127875, Note_off_c, 9, 61, 0
1, 127899, Note_off_c, 9, 51, 0
1, 127910, Note_off_c, 9, 36, 0
1, 127938, Note_off_c, 9, 70, 0
1, 127962, Control_c, 5, 64, 0
1, 127962, Control_c, 10, 64, 0
1, 128150, Note_on_c, 0, 32, 99
1, 128150, Note_on_c, 9, 70, 76
1, 128150, Note_on_c, 9, 51, 87
1, 128152, Control_c, 5, 64, 127
1, 128152, Control_c, 10, 64, 127
1, 128325, Note_off_c, 9, 70, 0
1, 128390, Note_off_c, 5, 56, 0
1, 128390, Note_off_c, 10, 56, 0
1, 128390, Note_off_c, 9, 51, 0
1, 128419, Note_off_c, 3, 56, 0
1, 128419, Note_off_c, 7, 56, 0
1, 128630, Note_on_c, 3, 56, 70
1, 128630, Note_on_c, 5, 56, 72
1, 128630, Note_on_c, 9, 70, 74
1, 128630, Note_on_c, 9, 62, 93
1, 128630, Note_on_c, 9, 51, 62
1, 128630, Note_on_c, 7, 56, 70
1, 128630, Note_on_c, 10, 56, 72
1, 128826, Note_off_c, 9, 70, 0
1, 128833, Note_off_c, 9, 51, 0
1, 128866, Note_off_c, 9, 62, 0
1, 129087, Note_on_c, 2, 72, 93
1, 129110, Note_on_c, 9, 38, 90
1, 129110, Note_on_c, 9, 70, 93
1, 129110, Note_on_c, 9, 51, 93
1, 129230, Lyric_t, "\\Se"
1, 129336, Note_off_c, 9, 70, 0
1, 129350, Note_off_c, 9, 38, 0
1, 129350, Note_off_c, 9, 51, 0
1, 129389, Note_off_c, 5, 60, 0
1, 129389, Note_off_c, 10, 60, 0
1, 129479, Note_off_c, 3, 60, 0
1, 129479, Note_off_c, 7, 60, 0
1, 129569, Note_on_c, 2, 73, 99
1, 129589, Note_off_c, 2, 72, 0
1, 129590, Note_on_c, 0, 27, 93
1, 129590, Note_on_c, 3, 61, 82
1, 129590, Note_on_c, 5, 61, 72
1, 129590, Note_on_c, 9, 36, 78
1, 129590, Note_on_c, 9, 70, 78
1, 129590, Note_on_c, 9, 62, 99
1, 129590, Note_on_c, 9, 51, 72
1, 129590, Note_on_c, 7, 61, 82
1, 129590, Note_on_c, 10, 61, 72
1, 129632, Note_off_c, 0, 32, 0
1, 129702, Lyric_t, " de"
1, 129769, Note_off_c, 9, 70, 0
1, 129770, Note_off_c, 0, 27, 0
1, 129807, Note_off_c, 2, 73, 0
1, 129830, Note_off_c, 9, 36, 0
1, 129830, Note_off_c, 9, 62, 0
1, 129838, Note_off_c, 9, 51, 0
1, 129924, Note_off_c, 5, 56, 0
1, 129924, Note_off_c, 10, 56, 0
1, 129981, Lyric_t, "ti"
1, 130070, Note_on_c, 0, 27, 87
1, 130070, Note_on_c, 9, 36, 87
1, 130070, Note_on_c, 9, 70, 93
1, 130070, Note_on_c, 9, 51, 80
1, 130094, Note_on_c, 2, 73, 108
1, 130252, Lyric_t, "e"
1, 130280, Note_off_c, 9, 70, 0
1, 130284, Note_off_c, 3, 56, 0
1, 130284, Note_off_c, 7, 56, 0
1, 130310, Note_off_c, 9, 36, 0
1, 130360, Note_off_c, 9, 51, 0
1, 130511, Note_off_c, 2, 73, 0
1, 130541, Note_on_c, 2, 75, 108
1, 130550, Note_on_c, 3, 56, 74
1, 130550, Note_on_c, 5, 56, 72
1, 130550, Note_on_c, 9, 70, 76
1, 130550, Note_on_c, 9, 61, 78
1, 130550, Note_on_c, 9, 51, 72
1, 130550, Note_on_c, 7, 56, 74
1, 130550, Note_on_c, 10, 56, 72
1, 130623, Lyric_t, "ne"
1, 130706, Note_off_c, 9, 70, 0
1, 130760, Note_off_c, 9, 51, 0
1, 130768, Note_off_c, 2, 75, 0
1, 130841, Note_off_c, 9, 61, 0
1, 130853, Lyric_t, " el"
1, 130971, Note_off_c, 0, 27, 0
1, 131030, Note_on_c, 0, 32, 105
1, 131030, Note_on_c, 9, 38, 93
1, 131030, Note_on_c, 9, 70, 102
1, 131030, Note_on_c, 9, 82, 78
1, 131030, Note_on_c, 9, 51, 102
1, 131031, Note_on_c, 2, 75, 108
1, 131142, Lyric_t, " ti"
1, 131194, Note_off_c, 9, 70, 0
1, 131194, Note_off_c, 9, 82, 0
1, 131251, Note_off_c, 5, 61, 0
1, 131251, Note_off_c, 10, 61, 0
1, 131270, Note_off_c, 9, 38, 0
1, 131354, Note_off_c, 9, 51, 0
1, 131429, Lyric_t, "e"
1, 131470, Note_off_c, 3, 61, 0
1, 131470, Note_off_c, 7, 61, 0
1, 131510, Note_on_c, 3, 60, 96
1, 131510, Note_on_c, 5, 60, 84
1, 131510, Note_on_c, 9, 82, 87
1, 131510, Note_on_c, 9, 70, 82
1, 131510, Note_on_c, 9, 61, 76
1, 131510, Note_on_c, 9, 51, 66
1, 131510, Note_on_c, 7, 60, 96
1, 131510, Note_on_c, 10, 60, 84
1, 131694, Note_off_c, 9, 82, 0
1, 131702, Note_off_c, 9, 70, 0
1, 131707, Note_off_c, 9, 51, 0
1, 131745, Note_off_c, 5, 56, 0
1, 131745, Note_off_c, 10, 56, 0
1, 131763, Note_off_c, 9, 61, 0
1, 131831, Lyric_t, "m"
1, 131918, Control_c, 5, 64, 0
1, 131918, Control_c, 10, 64, 0
1, 131990, Note_on_c, 9, 36, 84
1, 131990, Note_on_c, 9, 70, 93
1, 131990, Note_on_c, 9, 60, 82
1, 131990, Note_on_c, 9, 51, 99
1, 132071, Control_c, 5, 64, 127
1, 132071, Control_c, 10, 64, 127
1, 132185, Note_off_c, 9, 60, 0
1, 132224, Note_off_c, 9, 70, 0
1, 132230, Note_off_c, 9, 36, 0
1, 132230, Note_off_c, 9, 51, 0
1, 132232, Note_off_c, 2, 75, 0
1, 132259, Note_off_c, 3, 56, 0
1, 132259, Note_off_c, 7, 56, 0
1, 132444, Note_on_c, 2, 75, 114
1, 132449, Lyric_t, "p"
1, 132470, Note_on_c, 3, 56, 74
1, 132470, Note_on_c, 5, 56, 68
1, 132470, Note_on_c, 9, 70, 76
1, 132470, Note_on_c, 9, 61, 72
1, 132470, Note_on_c, 9, 51, 61
1, 132470, Note_on_c, 7, 56, 74
1, 132470, Note_on_c, 10, 56, 68
1, 132636, Note_off_c, 9, 70, 0
1, 132673, Note_off_c, 9, 51, 0
1, 132824, Note_off_c, 9, 61, 0
1, 132928, Note_off_c, 5, 60, 0
1, 132928, Note_off_c, 10, 60, 0
1, 132950, Note_on_c, 9, 38, 84
1, 132950, Note_on_c, 9, 70, 102
1, 132950, Note_on_c, 9, 51, 93
1, 133006, Note_off_c, 0, 32, 0
1, 133177, Note_off_c, 9, 70, 0
1, 133190, Note_off_c, 9, 38, 0
1, 133190, Note_off_c, 9, 51, 0
1, 133209, Note_off_c, 2, 75, 0
1, 133329, Note_off_c, 3, 60, 0
1, 133329, Note_off_c, 7, 60, 0
1, 133360, Lyric_t, "o"
1, 133430, Note_on_c, 0, 32, 99
1, 133430, Note_on_c, 3, 61, 84
1, 133430, Note_on_c, 5, 61, 76
1, 133430, Note_on_c, 9, 36, 93
1, 133430, Note_on_c, 9, 70, 93
1, 133430, Note_on_c, 9, 62, 82
1, 133430, Note_on_c, 9, 51, 78
1, 133430, Note_on_c, 7, 61, 84
1, 133430, Note_on_c, 10, 61, 76
1, 133558, Lyric_t, "."
1, 133629, Note_off_c, 9, 70, 0
1, 133670, Note_off_c, 9, 36, 0
1, 133670, Note_off_c, 9, 62, 0
1, 133670, Note_off_c, 9, 51, 0
1, 133713, Note_off_c, 0, 32, 0
1, 133910, Note_on_c, 0, 27, 82
1, 133910, Note_on_c, 9, 36, 84
1, 133910, Note_on_c, 9, 70, 82
1, 133910, Note_on_c, 9, 51, 72
1, 134133, Note_off_c, 9, 70, 0
1, 134150, Note_off_c, 9, 36, 0
1, 134184, Note_off_c, 9, 51, 0
1, 134212, Note_off_c, 3, 56, 0
1, 134212, Note_off_c, 7, 56, 0
1, 134244, Lyric_t, "."
1, 134335, Note_off_c, 5, 61, 0
1, 134335, Note_off_c, 10, 61, 0
1, 134390, Note_on_c, 3, 56, 74
1, 134390, Note_on_c, 5, 63, 80
1, 134390, Note_on_c, 9, 70, 72
1, 134390, Note_on_c, 9, 62, 99
1, 134390, Note_on_c, 9, 51, 74
1, 134390, Note_on_c, 7, 56, 74
1, 134390, Note_on_c, 10, 63, 80
1, 134552, Note_off_c, 9, 70, 0
1, 134630, Note_off_c, 9, 62, 0
1, 134675, Note_off_c, 9, 51, 0
1, 134767, Note_off_c, 5, 56, 0
1, 134767, Note_off_c, 10, 56, 0
1, 134870, Note_on_c, 9, 38, 84
1, 134870, Note_on_c, 9, 70, 99
1, 134870, Note_on_c, 9, 82, 84
1, 134870, Note_on_c, 9, 51, 93
1, 134988, Note_off_c, 0, 27, 0
1, 135034, Note_off_c, 9, 82, 0
1, 135084, Note_off_c, 9, 70, 0
1, 135110, Note_off_c, 9, 38, 0
1, 135213, Note_off_c, 9, 51, 0
1, 135294, Note_off_c, 5, 63, 0
1, 135294, Note_off_c, 10, 63, 0
1, 135318, Note_off_c, 3, 61, 0
1, 135318, Note_off_c, 7, 61, 0
1, 135350, Note_on_c, 0, 27, 93
1, 135350, Note_on_c, 3, 60, 87
1, 135350, Note_on_c, 5, 60, 82
1, 135350, Note_on_c, 9, 36, 102
1, 135350, Note_on_c, 9, 70, 87
1, 135350, Note_on_c, 9, 60, 78
1, 135350, Note_on_c, 9, 51, 76
1, 135350, Note_on_c, 7, 60, 87
1, 135350, Note_on_c, 10, 60, 82
1, 135553, Note_off_c, 0, 27, 0
1, 135568, Note_off_c, 9, 70, 0
1, 135586, Note_off_c, 9, 60, 0
1, 135590, Note_off_c, 9, 36, 0
1, 135603, Note_off_c, 9, 51, 0
1, 135640, Control_c, 5, 64, 0
1, 135640, Control_c, 10, 64, 0
1, 135796, Control_c, 5, 64, 127
1, 135796, Control_c, 10, 64, 127
1, 135830, Note_on_c, 0, 32, 102
1, 135830, Note_on_c, 9, 70, 74
1, 135830, Note_on_c, 9, 51, 90
1, 135998, Note_off_c, 9, 70, 0
1, 136152, Note_off_c, 9, 51, 0
1, 136178, Note_off_c, 3, 56, 0
1, 136178, Note_off_c, 7, 56, 0
1, 136310, Note_on_c, 3, 56, 70
1, 136310, Note_on_c, 5, 56, 74
1, 136310, Note_on_c, 9, 70, 78
1, 136310, Note_on_c, 9, 62, 84
1, 136310, Note_on_c, 9, 51, 74
1, 136310, Note_on_c, 7, 56, 70
1, 136310, Note_on_c, 10, 56, 74
1, 136333, Note_on_c, 2, 72, 96
1, 136477, Lyric_t, "\\Me"
1, 136481, Note_off_c, 9, 70, 0
1, 136530, Note_off_c, 9, 51, 0
1, 136550, Note_off_c, 9, 62, 0
1, 136568, Note_off_c, 2, 72, 0
1, 136670, Note_off_c, 5, 60, 0
1, 136670, Note_off_c, 10, 60, 0
1, 136785, Lyric_t, " vi"
1, 136790, Note_on_c, 9, 38, 99
1, 136790, Note_on_c, 9, 82, 87
1, 136790, Note_on_c, 9, 70, 93
1, 136790, Note_on_c, 9, 51, 99
1, 136819, Note_on_c, 2, 72, 93
1, 136965, Note_off_c, 9, 82, 0
1, 137005, Lyric_t, "e"
1, 137006, Note_off_c, 9, 70, 0
1, 137028, Note_off_c, 0, 32, 0
1, 137030, Note_off_c, 9, 38, 0
1, 137030, Note_off_c, 9, 51, 0
1, 137076, Note_off_c, 2, 72, 0
1, 137222, Note_off_c, 3, 60, 0
1, 137222, Note_off_c, 7, 60, 0
1, 137270, Note_on_c, 0, 32, 108
1, 137270, Note_on_c, 3, 61, 102
1, 137270, Note_on_c, 5, 60, 84
1, 137270, Note_on_c, 9, 36, 84
1, 137270, Note_on_c, 9, 70, 80
1, 137270, Note_on_c, 9, 60, 74
1, 137270, Note_on_c, 9, 51, 80
1, 137270, Note_on_c, 7, 61, 102
1, 137270, Note_on_c, 10, 60, 84
1, 137300, Lyric_t, "ne"
1, 137303, Note_on_c, 2, 72, 102
1, 137480, Note_off_c, 9, 70, 0
1, 137503, Note_off_c, 9, 51, 0
1, 137510, Note_off_c, 9, 36, 0
1, 137510, Note_off_c, 9, 60, 0
1, 137522, Note_off_c, 5, 56, 0
1, 137522, Note_off_c, 10, 56, 0
1, 137566, Note_off_c, 2, 72, 0
1, 137597, Lyric_t, " el"
1, 137655, Note_off_c, 0, 32, 0
1, 137750, Note_on_c, 0, 27, 99
1, 137750, Note_on_c, 9, 36, 87
1, 137750, Note_on_c, 9, 70, 87
1, 137750, Note_on_c, 9, 51, 87
1, 137799, Note_on_c, 2, 72, 102
1, 137824, Note_off_c, 3, 56, 0
1, 137824, Note_off_c, 7, 56, 0
1, 137895, Lyric_t, " al"
1, 137975, Note_off_c, 9, 70, 0
1, 137990, Note_off_c, 9, 36, 0
1, 138024, Note_off_c, 9, 51, 0
1, 138230, Note_on_c, 3, 56, 80
1, 138230, Note_on_c, 5, 56, 68
1, 138230, Note_on_c, 9, 70, 78
1, 138230, Note_on_c, 9, 61, 78
1, 138230, Note_on_c, 9, 51, 80
1, 138230, Note_on_c, 7, 56, 80
1, 138230, Note_on_c, 10, 56, 68
1, 138435, Note_off_c, 9, 70, 0
1, 138468, Note_off_c, 9, 51, 0
1, 138470, Note_off_c, 9, 61, 0
1, 138508, Note_off_c, 5, 60, 0
1, 138508, Note_off_c, 10, 60, 0
1, 138547, Note_off_c, 0, 27, 0
1, 138578, Note_off_c, 3, 61, 0
1, 138578, Note_off_c, 7, 61, 0
1, 138614, Note_off_c, 2, 72, 0
1, 138696, Note_on_c, 2, 73, 108
1, 138710, Note_on_c, 0, 32, 105
1, 138710, Note_on_c, 3, 60, 96
1, 138710, Note_on_c, 5, 60, 84
1, 138710, Note_on_c, 9, 38, 93
1, 138710, Note_on_c, 9, 70, 93
1, 138710, Note_on_c, 9, 51, 99
1, 138710, Note_on_c, 7, 60, 96
1, 138710, Note_on_c, 10, 60, 84
1, 138738, Lyric_t, "ma"
1, 138924, Note_off_c, 9, 70, 0
1, 138950, Note_off_c, 9, 38, 0
1, 138950, Note_off_c, 9, 51, 0
1, 138974, Note_off_c, 2, 73, 0
1, 139033, Lyric_t, " al"
1, 139086, Note_off_c, 5, 56, 0
1, 139086, Note_off_c, 10, 56, 0
1, 139149, Note_off_c, 5, 60, 0
1, 139149, Note_off_c, 10, 60, 0
1, 139178, Note_on_c, 2, 73, 99
1, 139190, Note_on_c, 0, 27, 93
1, 139190, Note_on_c, 3, 61, 102
1, 139190, Note_on_c, 5, 61, 102
1, 139190, Note_on_c, 9, 82, 74
1, 139190, Note_on_c, 9, 70, 99
1, 139190, Note_on_c, 9, 62, 96
1, 139190, Note_on_c, 9, 51, 76
1, 139190, Note_on_c, 7, 61, 102
1, 139190, Note_on_c, 10, 61, 102
1, 139229, Note_off_c, 3, 60, 0
1, 139229, Note_off_c, 7, 60, 0
1, 139280, Note_off_c, 0, 32, 0
1, 139341, Note_off_c, 3, 56, 0
1, 139341, Note_off_c, 7, 56, 0
1, 139373, Note_off_c, 9, 82, 0
1, 139387, Note_off_c, 9, 70, 0
1, 139406, Note_off_c, 9, 51, 0
1, 139430, Note_off_c, 9, 62, 0
1, 139467, Note_off_c, 0, 27, 0
1, 139521, Control_c, 5, 64, 0
1, 139521, Control_c, 10, 64, 0
1, 139614, Lyric_t, " cu"
1, 139632, Note_off_c, 1, 60, 0
1, 139632, Note_off_c, 6, 60, 0
1, 139670, Note_on_c, 0, 27, 102
1, 139670, Note_on_c, 1, 54, 49
1, 139670, Note_on_c, 1, 58, 61
1, 139670, Note_on_c, 6, 54, 49
1, 139670, Note_on_c, 6, 58, 61
1, 139670, Note_on_c, 9, 36, 84
1, 139670, Note_on_c, 9, 70, 90
1, 139670, Note_on_c, 9, 60, 111
1, 139670, Note_on_c, 9, 51, 93
1, 139713, Control_c, 5, 64, 127
1, 139713, Control_c, 10, 64, 127
1, 139720, Note_off_c, 1, 56, 0
1, 139720, Note_off_c, 6, 56, 0
1, 139832, Note_off_c, 2, 73, 0
1, 139854, Lyric_t, "er"
1, 139883, Note_off_c, 9, 70, 0
1, 139886, Note_off_c, 9, 60, 0
1, 139910, Note_off_c, 9, 36, 0
1, 139959, Note_off_c, 9, 51, 0
1, 140091, Note_on_c, 2, 73, 105
1, 140150, Note_on_c, 3, 51, 72
1, 140150, Note_on_c, 5, 51, 74
1, 140150, Note_on_c, 9, 70, 78
1, 140150, Note_on_c, 9, 61, 82
1, 140150, Note_on_c, 9, 51, 45
1, 140150, Note_on_c, 7, 51, 72
1, 140150, Note_on_c, 10, 51, 74
1, 140254, Note_off_c, 9, 61, 0
1, 140268, Lyric_t, "p"
1, 140345, Note_off_c, 9, 70, 0
1, 140356, Note_off_c, 9, 51, 0
1, 140630, Note_on_c, 3, 54, 76
1, 140630, Note_on_c, 5, 54, 68
1, 140630, Note_on_c, 9, 38, 87
1, 140630, Note_on_c, 9, 70, 90
1, 140630, Note_on_c, 9, 82, 82
1, 140630, Note_on_c, 9, 51, 80
1, 140630, Note_on_c, 7, 54, 76
1, 140630, Note_on_c, 10, 54, 68
1, 140779, Note_off_c, 9, 82, 0
1, 140782, Note_off_c, 0, 27, 0
1, 140827, Note_off_c, 9, 70, 0
1, 140870, Note_off_c, 9, 38, 0
1, 140870, Note_off_c, 9, 51, 0
1, 140942, Note_off_c, 2, 73, 0
1, 140985, Note_off_c, 5, 61, 0
1, 140985, Note_off_c, 10, 61, 0
1, 141007, Note_off_c, 3, 61, 0
1, 141007, Note_off_c, 7, 61, 0
1, 141110, Note_on_c, 0, 27, 99
1, 141110, Note_on_c, 3, 63, 72
1, 141110, Note_on_c, 5, 58, 78
1, 141110, Note_on_c, 9, 36, 78
1, 141110, Note_on_c, 9, 70, 99
1, 141110, Note_on_c, 9, 62, 90
1, 141110, Note_on_c, 9, 51, 74
1, 141110, Note_on_c, 7, 63, 72
1, 141110, Note_on_c, 10, 58, 78
1, 141128, Lyric_t, "o"
1, 141309, Note_off_c, 9, 62, 0
1, 141337, Note_off_c, 9, 70, 0
1, 141350, Note_off_c, 9, 36, 0
1, 141350, Note_off_c, 9, 51, 0
1, 141353, Lyric_t, "."
1, 141364, Note_off_c, 0, 27, 0
1, 141590, Note_on_c, 0, 34, 90
1, 141590, Note_on_c, 9, 36, 84
1, 141590, Note_on_c, 9, 70, 76
1, 141590, Note_on_c, 9, 51, 68
1, 141778, Note_off_c, 9, 70, 0
1, 141801, Note_off_c, 3, 54, 0
1, 141801, Note_off_c, 7, 54, 0
1, 141830, Note_off_c, 9, 36, 0
1, 141830, Note_off_c, 9, 51, 0
1, 141876, Note_off_c, 3, 51, 0
1, 141876, Note_off_c, 7, 51, 0
1, 142070, Note_on_c, 3, 51, 74
1, 142070, Note_on_c, 5, 61, 105
1, 142070, Note_on_c, 9, 70, 64
1, 142070, Note_on_c, 9, 60, 93
1, 142070, Note_on_c, 9, 51, 66
1, 142070, Note_on_c, 7, 51, 74
1, 142070, Note_on_c, 10, 61, 105
1, 142236, Note_off_c, 9, 70, 0
1, 142267, Note_off_c, 9, 51, 0
1, 142275, Note_off_c, 9, 60, 0
1, 142382, Note_off_c, 5, 54, 0
1, 142382, Note_off_c, 10, 54, 0
1, 142400, Lyric_t, "."
1, 142463, Note_off_c, 5, 51, 0
1, 142463, Note_off_c, 10, 51, 0
1, 142550, Note_on_c, 3, 54, 64
1, 142550, Note_on_c, 9, 38, 87
1, 142550, Note_on_c, 9, 70, 102
1, 142550, Note_on_c, 9, 51, 99
1, 142550, Note_on_c, 7, 54, 64
1, 142733, Note_off_c, 0, 34, 0
1, 142781, Note_off_c, 9, 70, 0
1, 142790, Note_off_c, 9, 38, 0
1, 142790, Note_on_c, 5, 51, 66
1, 142790, Note_on_c, 10, 51, 66
1, 142919, Note_off_c, 9, 51, 0
1, 142925, Note_off_c, 5, 61, 0
1, 142925, Note_off_c, 10, 61, 0
1, 143030, Note_on_c, 0, 34, 90
1, 143030, Note_on_c, 3, 58, 52
1, 143030, Note_on_c, 5, 63, 72
1, 143030, Note_on_c, 9, 36, 93
1, 143030, Note_on_c, 9, 82, 74
1, 143030, Note_on_c, 9, 70, 102
1, 143030, Note_on_c, 9, 61, 87
1, 143030, Note_on_c, 9, 51, 57
1, 143030, Note_on_c, 7, 58, 52
1, 143030, Note_on_c, 10, 63, 72
1, 143152, Note_off_c, 3, 63, 0
1, 143152, Note_off_c, 7, 63, 0
1, 143199, Note_off_c, 9, 82, 0
1, 143235, Note_off_c, 9, 61, 0
1, 143248, Note_off_c, 0, 34, 0
1, 143259, Note_off_c, 9, 51, 0
1, 143270, Note_off_c, 9, 36, 0
1, 143298, Note_off_c, 9, 70, 0
1, 143510, Note_on_c, 0, 27, 99
1, 143510, Note_on_c, 3, 61, 80
1, 143510, Note_on_c, 9, 70, 76
1, 143510, Note_on_c, 9, 51, 87
1, 143510, Note_on_c, 7, 61, 80
1, 143685, Note_off_c, 9, 70, 0
1, 143750, Note_off_c, 9, 51, 0
1, 143815, Note_off_c, 3, 51, 0
1, 143815, Note_off_c, 7, 51, 0
1, 143846, Note_off_c, 3, 54, 0
1, 143846, Note_off_c, 7, 54, 0
1, 143990, Note_on_c, 3, 51, 70
1, 143990, Note_on_c, 5, 54, 76
1, 143990, Note_on_c, 9, 70, 74
1, 143990, Note_on_c, 9, 62, 93
1, 143990, Note_on_c, 9, 51, 62
1, 143990, Note_on_c, 7, 51, 70
1, 143990, Note_on_c, 10, 54, 76
1, 144179, Note_off_c, 5, 58, 0
1, 144179, Note_off_c, 10, 58, 0
1, 144186, Note_off_c, 9, 70, 0
1, 144193, Note_off_c, 9, 51, 0
1, 144226, Note_off_c, 9, 62, 0
1, 144338, Note_off_c, 5, 63, 0
1, 144338, Note_off_c, 10, 63, 0
1, 144470, Note_on_c, 3, 54, 76
1, 144470, Note_on_c, 9, 38, 90
1, 144470, Note_on_c, 9, 70, 93
1, 144470, Note_on_c, 9, 51, 93
1, 144470, Note_on_c, 7, 54, 76
1, 144696, Note_off_c, 9, 70, 0
1, 144710, Note_off_c, 9, 38, 0
1, 144710, Note_off_c, 9, 51, 0
1, 144752, Note_off_c, 0, 27, 0
1, 144801, Note_off_c, 3, 61, 0
1, 144801, Note_off_c, 7, 61, 0
1, 144950, Note_on_c, 0, 27, 74
1, 144950, Note_on_c, 3, 63, 70
1, 144950, Note_on_c, 5, 58, 76
1, 144950, Note_on_c, 9, 36, 78
1, 144950, Note_on_c, 9, 70, 78
1, 144950, Note_on_c, 9, 62, 99
1, 144950, Note_on_c, 9, 51, 72
1, 144950, Note_on_c, 7, 63, 70
1, 144950, Note_on_c, 10, 58, 76
1, 145129, Note_off_c, 9, 70, 0
1, 145190, Note_off_c, 9, 36, 0
1, 145190, Note_off_c, 9, 62, 0
1, 145198, Note_off_c, 9, 51, 0
1, 145304, Note_off_c, 0, 27, 0
1, 145430, Note_on_c, 0, 34, 99
1, 145430, Note_on_c, 9, 36, 87
1, 145430, Note_on_c, 9, 70, 93
1, 145430, Note_on_c, 9, 51, 80
1, 145584, Note_off_c, 3, 51, 0
1, 145584, Note_off_c, 7, 51, 0
1, 145640, Note_off_c, 9, 70, 0
1, 145646, Note_off_c, 3, 54, 0
1, 145646, Note_off_c, 7, 54, 0
1, 145670, Note_off_c, 9, 36, 0
1, 145720, Note_off_c, 9, 51, 0
1, 145860, Note_off_c, 5, 58, 0
1, 145860, Note_off_c, 10, 58, 0
1, 145910, Note_on_c, 3, 51, 68
1, 145910, Note_on_c, 5, 61, 84
1, 145910, Note_on_c, 9, 70, 76
1, 145910, Note_on_c, 9, 61, 78
1, 145910, Note_on_c, 9, 51, 72
1, 145910, Note_on_c, 7, 51, 68
1, 145910, Note_on_c, 10, 61, 84
1, 146066, Note_off_c, 9, 70, 0
1, 146120, Note_off_c, 9, 51, 0
1, 146201, Note_off_c, 9, 61, 0
1, 146263, Note_off_c, 5, 54, 0
1, 146263, Note_off_c, 10, 54, 0
1, 146294, Note_off_c, 5, 51, 0
1, 146294, Note_off_c, 10, 51, 0
1, 146311, Note_off_c, 0, 34, 0
1, 146342, Note_off_c, 3, 58, 0
1, 146342, Note_off_c, 7, 58, 0
1, 146390, Note_on_c, 0, 27, 93
1, 146390, Note_on_c, 3, 54, 72
1, 146390, Note_on_c, 5, 51, 43
1, 146390, Note_on_c, 9, 38, 93
1, 146390, Note_on_c, 9, 70, 102
1, 146390, Note_on_c, 9, 82, 78
1, 146390, Note_on_c, 9, 51, 102
1, 146390, Note_on_c, 7, 54, 72
1, 146390, Note_on_c, 10, 51, 43
1, 146404, Note_on_c, 2, 73, 105
1, 146554, Note_off_c, 9, 70, 0
1, 146554, Note_off_c, 9, 82, 0
1, 146605, Note_off_c, 2, 73, 0
1, 146615, Lyric_t, "\\Son"
1, 146630, Note_off_c, 9, 38, 0
1, 146630, Note_off_c, 9, 51, 0
1, 146661, Note_off_c, 5, 61, 0
1, 146661, Note_off_c, 10, 61, 0
1, 146669, Note_off_c, 3, 63, 0
1, 146669, Note_off_c, 7, 63, 0
1, 146759, Note_off_c, 0, 27, 0
1, 146805, Note_off_c, 3, 51, 0
1, 146805, Note_off_c, 7, 51, 0
1, 146870, Note_on_c, 0, 29, 99
1, 146870, Note_on_c, 3, 61, 102
1, 146870, Note_on_c, 5, 61, 80
1, 146870, Note_on_c, 9, 82, 87
1, 146870, Note_on_c, 9, 70, 82
1, 146870, Note_on_c, 9, 61, 76
1, 146870, Note_on_c, 9, 51, 66
1, 146870, Note_on_c, 7, 61, 102
1, 146870, Note_on_c, 10, 61, 80
1, 146890, Note_on_c, 2, 73, 114
1, 147054, Note_off_c, 9, 82, 0
1, 147057, Note_off_c, 5, 51, 0
1, 147057, Note_off_c, 10, 51, 0
1, 147062, Note_off_c, 9, 70, 0
1, 147067, Note_off_c, 9, 51, 0
1, 147068, Lyric_t, "ri"
1, 147110, Note_off_c, 9, 61, 0
1, 147122, Control_c, 5, 64, 0
1, 147122, Control_c, 10, 64, 0
1, 147220, Note_off_c, 0, 29, 0
1, 147316, Control_c, 5, 64, 127
1, 147316, Control_c, 10, 64, 127
1, 147350, Note_on_c, 0, 30, 102
1, 147350, Note_on_c, 9, 36, 84
1, 147350, Note_on_c, 9, 70, 93
1, 147350, Note_on_c, 9, 60, 82
1, 147350, Note_on_c, 9, 51, 99
1, 147545, Note_off_c, 9, 60, 0
1, 147584, Note_off_c, 9, 70, 0
1, 147590, Note_off_c, 9, 36, 0
1, 147590, Note_off_c, 9, 51, 0
1, 147666, Note_off_c, 3, 54, 0
1, 147666, Note_off_c, 7, 54, 0
1, 147793, Note_on_c, 2, 70, 90
1, 147830, Note_on_c, 3, 54, 76
1, 147830, Note_on_c, 5, 54, 74
1, 147830, Note_on_c, 9, 70, 76
1, 147830, Note_on_c, 9, 61, 72
1, 147830, Note_on_c, 9, 51, 61
1, 147830, Note_on_c, 7, 54, 76
1, 147830, Note_on_c, 10, 54, 74
1, 147841, Note_off_c, 2, 73, 0
1, 147996, Note_off_c, 9, 70, 0
1, 148033, Note_off_c, 9, 51, 0
1, 148184, Note_off_c, 9, 61, 0
1, 148310, Note_on_c, 3, 58, 64
1, 148310, Note_on_c, 9, 38, 84
1, 148310, Note_on_c, 9, 70, 102
1, 148310, Note_on_c, 9, 51, 93
1, 148310, Note_on_c, 7, 58, 64
1, 148346, Note_off_c, 5, 61, 0
1, 148346, Note_off_c, 10, 61, 0
1, 148359, Note_off_c, 2, 70, 0
1, 148456, Note_off_c, 0, 30, 0
1, 148527, Lyric_t, "o"
1, 148537, Note_off_c, 9, 70, 0
1, 148550, Note_off_c, 3, 61, 0
1, 148550, Note_off_c, 7, 61, 0
1, 148550, Note_off_c, 9, 38, 0
1, 148636, Note_off_c, 9, 51, 0
1, 148790, Note_on_c, 0, 30, 99
1, 148790, Note_on_c, 3, 63, 78
1, 148790, Note_on_c, 5, 63, 76
1, 148790, Note_on_c, 9, 36, 93
1, 148790, Note_on_c, 9, 70, 93
1, 148790, Note_on_c, 9, 62, 82
1, 148790, Note_on_c, 9, 51, 78
1, 148790, Note_on_c, 7, 63, 78
1, 148790, Note_on_c, 10, 63, 76
1, 148989, Note_off_c, 9, 70, 0
1, 149030, Note_off_c, 9, 36, 0
1, 149030, Note_off_c, 9, 62, 0
1, 149030, Note_off_c, 9, 51, 0
1, 149045, Note_off_c, 0, 30, 0
1, 149270, Note_off_c, 5, 54, 0
1, 149270, Note_off_c, 10, 54, 0
1, 149270, Note_on_c, 0, 25, 93
1, 149270, Note_on_c, 9, 36, 84
1, 149270, Note_on_c, 9, 70, 82
1, 149270, Note_on_c, 9, 51, 72
1, 149399, Note_off_c, 3, 54, 0
1, 149399, Note_off_c, 7, 54, 0
1, 149493, Note_off_c, 9, 70, 0
1, 149510, Note_off_c, 9, 36, 0
1, 149544, Note_off_c, 9, 51, 0
1, 149750, Note_on_c, 3, 54, 76
1, 149750, Note_on_c, 5, 54, 74
1, 149750, Note_on_c, 9, 70, 72
1, 149750, Note_on_c, 9, 62, 99
1, 149750, Note_on_c, 9, 51, 74
1, 149750, Note_on_c, 7, 54, 76
1, 149750, Note_on_c, 10, 54, 74
1, 149912, Note_off_c, 9, 70, 0
1, 149951, Note_off_c, 3, 58, 0
1, 149951, Note_off_c, 7, 58, 0
1, 149990, Note_off_c, 9, 62, 0
1, 150035, Note_off_c, 9, 51, 0
1, 150230, Note_on_c, 3, 58, 74
1, 150230, Note_on_c, 9, 38, 84
1, 150230, Note_on_c, 9, 70, 99
1, 150230, Note_on_c, 9, 82, 84
1, 150230, Note_on_c, 9, 51, 93
1, 150230, Note_on_c, 7, 58, 74
1, 150293, Note_off_c, 3, 63, 0
1, 150293, Note_off_c, 7, 63, 0
1, 150394, Note_off_c, 9, 82, 0
1, 150444, Note_off_c, 9, 70, 0
1, 150470, Note_off_c, 9, 38, 0
1, 150470, Note_off_c, 9, 51, 0
1, 150482, Note_off_c, 0, 25, 0
1, 150654, Note_off_c, 5, 63, 0
1, 150654, Note_off_c, 10, 63, 0
1, 150710, Note_on_c, 0, 25, 90
1, 150710, Note_on_c, 3, 61, 80
1, 150710, Note_on_c, 5, 58, 82
1, 150710, Note_on_c, 9, 36, 102
1, 150710, Note_on_c, 9, 70, 87
1, 150710, Note_on_c, 9, 60, 78
1, 150710, Note_on_c, 9, 51, 76
1, 150710, Note_on_c, 7, 61, 80
1, 150710, Note_on_c, 10, 58, 82
1, 150928, Note_off_c, 9, 70, 0
1, 150937, Note_off_c, 0, 25, 0
1, 150946, Note_off_c, 9, 60, 0
1, 150950, Note_off_c, 9, 36, 0
1, 150963, Note_off_c, 9, 51, 0
1, 151161, Note_off_c, 5, 54, 0
1, 151161, Note_off_c, 10, 54, 0
1, 151190, Note_on_c, 0, 30, 99
1, 151190, Note_on_c, 9, 70, 74
1, 151190, Note_on_c, 9, 51, 90
1, 151358, Note_off_c, 9, 70, 0
1, 151430, Note_off_c, 9, 51, 0
1, 151430, Note_on_c, 5, 54, 48
1, 151430, Note_on_c, 10, 54, 48
1, 151440, Note_off_c, 3, 54, 0
1, 151440, Note_off_c, 7, 54, 0
1, 151670, Note_on_c, 3, 54, 74
1, 151670, Note_on_c, 5, 61, 82
1, 151670, Note_on_c, 9, 70, 78
1, 151670, Note_on_c, 9, 62, 84
1, 151670, Note_on_c, 9, 51, 74
1, 151670, Note_on_c, 7, 54, 74
1, 151670, Note_on_c, 10, 61, 82
1, 151786, Note_off_c, 3, 58, 0
1, 151786, Note_off_c, 7, 58, 0
1, 151841, Note_off_c, 9, 70, 0
1, 151850, Note_off_c, 5, 58, 0
1, 151850, Note_off_c, 10, 58, 0
1, 151874, Control_c, 1, 64, 102
1, 151874, Control_c, 6, 64, 102
1, 151890, Note_off_c, 9, 51, 0
1, 151910, Note_off_c, 9, 62, 0
1, 151953, Control_c, 1, 64, 51
1, 151953, Control_c, 6, 64, 51
1, 151980, Note_off_c, 5, 54, 0
1, 151980, Note_off_c, 10, 54, 0
1, 151989, Control_c, 1, 64, 0
1, 151989, Control_c, 6, 64, 0
1, 152051, Note_off_c, 3, 61, 0
1, 152051, Note_off_c, 7, 61, 0
1, 152150, Note_on_c, 3, 58, 80
1, 152150, Note_on_c, 9, 38, 99
1, 152150, Note_on_c, 9, 82, 87
1, 152150, Note_on_c, 9, 70, 93
1, 152150, Note_on_c, 9, 51, 99
1, 152150, Note_on_c, 7, 58, 80
1, 152188, Note_on_c, 2, 73, 114
1, 152325, Note_off_c, 9, 82, 0
1, 152346, Note_off_c, 0, 30, 0
1, 152366, Note_off_c, 9, 70, 0
1, 152390, Note_off_c, 9, 38, 0
1, 152390, Note_off_c, 9, 51, 0
1, 152393, Lyric_t, " cu"
1, 152397, Note_off_c, 2, 73, 0
1, 152404, Note_off_c, 5, 61, 0
1, 152404, Note_off_c, 10, 61, 0
1, 152609, Lyric_t, "an"
1, 152630, Note_on_c, 0, 30, 87
1, 152630, Note_on_c, 3, 61, 80
1, 152630, Note_on_c, 5, 61, 84
1, 152630, Note_on_c, 9, 36, 84
1, 152630, Note_on_c, 9, 70, 80
1, 152630, Note_on_c, 9, 60, 74
1, 152630, Note_on_c, 9, 51, 80
1, 152630, Note_on_c, 7, 61, 80
1, 152630, Note_on_c, 10, 61, 84
1, 152641, Note_on_c, 2, 73, 114
1, 152831, Note_off_c, 2, 73, 0
1, 152840, Note_off_c, 9, 70, 0
1, 152863, Note_off_c, 9, 51, 0
1, 152865, Lyric_t, "do"
1, 152870, Note_off_c, 3, 58, 0
1, 152870, Note_off_c, 7, 58, 0
1, 152870, Note_off_c, 9, 36, 0
1, 152894, Note_off_c, 9, 60, 0
1, 152961, Note_off_c, 3, 61, 0
1, 152961, Note_off_c, 7, 61, 0
1, 153038, Note_off_c, 0, 30, 0
1, 153093, Note_on_c, 2, 73, 108
1, 153110, Note_on_c, 0, 25, 102
1, 153110, Note_on_c, 3, 61, 90
1, 153110, Note_on_c, 5, 54, 70
1, 153110, Note_on_c, 9, 36, 87
1, 153110, Note_on_c, 9, 70, 87
1, 153110, Note_on_c, 9, 51, 87
1, 153110, Note_on_c, 7, 61, 90
1, 153110, Note_on_c, 10, 54, 70
1, 153191, Lyric_t, " me"
1, 153335, Note_off_c, 9, 70, 0
1, 153350, Note_off_c, 9, 36, 0
1, 153384, Note_off_c, 9, 51, 0
1, 153388, Note_off_c, 3, 54, 0
1, 153388, Note_off_c, 7, 54, 0
1, 153479, Note_off_c, 5, 61, 0
1, 153479, Note_off_c, 10, 61, 0
1, 153510, Note_off_c, 0, 25, 0
1, 153554, Lyric_t, " e"
1, 153590, Note_on_c, 0, 30, 90
1, 153590, Note_on_c, 3, 54, 82
1, 153590, Note_on_c, 5, 63, 76
1, 153590, Note_on_c, 9, 70, 78
1, 153590, Note_on_c, 9, 61, 78
1, 153590, Note_on_c, 9, 51, 80
1, 153590, Note_on_c, 7, 54, 82
1, 153590, Note_on_c, 10, 63, 76
1, 153592, Note_off_c, 2, 73, 0
1, 153600, Note_on_c, 2, 68, 87
1, 153795, Note_off_c, 9, 70, 0
1, 153828, Note_off_c, 9, 51, 0
1, 153830, Note_off_c, 9, 61, 0
1, 153860, Lyric_t, "na"
1, 153876, Note_off_c, 5, 54, 0
1, 153876, Note_off_c, 10, 54, 0
1, 153897, Note_off_c, 0, 30, 0
1, 154069, Note_on_c, 2, 70, 87
1, 154070, Note_on_c, 0, 30, 102
1, 154070, Note_on_c, 3, 58, 72
1, 154070, Control_c, 5, 64, 0
1, 154070, Note_on_c, 5, 54, 76
1, 154070, Note_on_c, 9, 38, 93
1, 154070, Note_on_c, 9, 70, 93
1, 154070, Note_on_c, 9, 51, 99
1, 154070, Note_on_c, 7, 58, 72
1, 154070, Control_c, 10, 64, 0
1, 154070, Note_on_c, 10, 54, 76
1, 154099, Note_off_c, 3, 61, 0
1, 154099, Note_off_c, 7, 61, 0
1, 154108, Note_off_c, 2, 68, 0
1, 154262, Lyric_t, "mo"
1, 154284, Note_off_c, 9, 70, 0
1, 154310, Note_off_c, 9, 38, 0
1, 154402, Note_off_c, 9, 51, 0
1, 154502, Note_off_c, 0, 30, 0
1, 154546, Note_on_c, 2, 68, 105
1, 154550, Note_on_c, 0, 32, 108
1, 154550, Note_on_c, 3, 61, 84
1, 154550, Note_on_c, 9, 51, 108
1, 154550, Note_on_c, 9, 82, 74
1, 154550, Note_on_c, 9, 70, 99
1, 154550, Note_on_c, 9, 62, 96
1, 154550, Note_on_c, 9, 51, 76
1, 154550, Note_on_c, 7, 61, 84
1, 154551, Note_off_c, 2, 70, 0
1, 154675, Note_off_c, 5, 63, 0
1, 154675, Note_off_c, 10, 63, 0
1, 154682, Note_off_c, 3, 58, 0
1, 154682, Note_off_c, 7, 58, 0
1, 154703, Note_off_c, 5, 54, 0
1, 154703, Note_off_c, 10, 54, 0
1, 154733, Note_off_c, 9, 82, 0
1, 154738, Lyric_t, "r"
1, 154747, Note_off_c, 3, 54, 0
1, 154747, Note_off_c, 7, 54, 0
1, 154747, Note_off_c, 9, 70, 0
1, 154754, Note_off_c, 9, 51, 0
1, 154790, Note_off_c, 9, 62, 0
1, 154809, Note_off_c, 1, 54, 0
1, 154809, Note_off_c, 6, 54, 0
1, 154831, Note_off_c, 1, 58, 0
1, 154831, Note_off_c, 6, 58, 0
1, 154991, Note_off_c, 3, 61, 0
1, 154991, Note_off_c, 7, 61, 0
1, 155030, Note_on_c, 0, 37, 87
1, 155030, Note_on_c, 3, 49, 66
1, 155030, Note_on_c, 5, 65, 82
1, 155030, Note_on_c, 9, 36, 84
1, 155030, Note_on_c, 9, 49, 114
1, 155030, Note_on_c, 9, 70, 93
1, 155030, Note_on_c, 9, 60, 82
1, 155030, Note_on_c, 9, 51, 99
1, 155030, Note_on_c, 7, 49, 66
1, 155030, Note_on_c, 10, 65, 82
1, 155040, Note_off_c, 0, 32, 0
1, 155066, Note_on_c, 4, 63, 108
1, 155066, Note_on_c, 8, 51, 108
1, 155091, Note_off_c, 2, 68, 0
1, 155153, Note_off_c, 9, 49, 0
1, 155225, Note_off_c, 9, 60, 0
1, 155264, Note_off_c, 9, 70, 0
1, 155270, Note_off_c, 9, 36, 0
1, 155397, Note_off_c, 9, 51, 0
1, 155510, Note_on_c, 3, 53, 59
1, 155510, Note_on_c, 5, 68, 76
1, 155510, Note_on_c, 9, 70, 76
1, 155510, Note_on_c, 9, 61, 72
1, 155510, Note_on_c, 9, 51, 61
1, 155510, Note_on_c, 7, 53, 59
1, 155510, Note_on_c, 10, 68, 76
1, 155544, Lyric_t, "o"
1, 155676, Note_off_c, 9, 70, 0
1, 155713, Note_off_c, 9, 51, 0
1, 155750, Note_off_c, 9, 61, 0
1, 155760, Lyric_t, "."
1, 155844, Note_off_c, 5, 65, 0
1, 155844, Note_off_c, 10, 65, 0
1, 155990, Note_on_c, 3, 56, 54
1, 155990, Note_on_c, 5, 65, 61
1, 155990, Note_on_c, 9, 38, 84
1, 155990, Note_on_c, 9, 70, 102
1, 155990, Note_on_c, 9, 51, 93
1, 155990, Note_on_c, 7, 56, 54
1, 155990, Note_on_c, 10, 65, 61
1, 156060, Note_off_c, 5, 68, 0
1, 156060, Note_off_c, 10, 68, 0
1, 156116, Note_off_c, 0, 37, 0
1, 156217, Note_off_c, 9, 70, 0
1, 156230, Note_off_c, 9, 38, 0
1, 156316, Note_off_c, 9, 51, 0
1, 156470, Note_on_c, 0, 37, 102
1, 156470, Note_on_c, 5, 63, 80
1, 156470, Note_on_c, 9, 36, 93
1, 156470, Note_on_c, 9, 70, 93
1, 156470, Note_on_c, 9, 62, 82
1, 156470, Note_on_c, 9, 51, 78
1, 156470, Note_on_c, 10, 63, 80
1, 156642, Lyric_t, "."
1, 156669, Note_off_c, 9, 70, 0
1, 156688, Note_off_c, 0, 37, 0
1, 156710, Note_off_c, 9, 36, 0
1, 156710, Note_off_c, 9, 62, 0
1, 156768, Note_off_c, 9, 51, 0
1, 156950, Note_on_c, 0, 32, 84
1, 156950, Note_on_c, 9, 36, 84
1, 156950, Note_on_c, 9, 70, 82
1, 156950, Note_on_c, 9, 51, 72
1, 157173, Note_off_c, 9, 70, 0
1, 157190, Note_off_c, 9, 36, 0
1, 157224, Note_off_c, 9, 51, 0
1, 157430, Note_on_c, 3, 61, 59
1, 157430, Note_on_c, 5, 68, 76
1, 157430, Note_on_c, 9, 70, 72
1, 157430, Note_on_c, 9, 62, 99
1, 157430, Note_on_c, 9, 51, 74
1, 157430, Note_on_c, 7, 61, 59
1, 157430, Note_on_c, 10, 68, 76
1, 157494, Note_off_c, 5, 63, 0
1, 157494, Note_off_c, 10, 63, 0
1, 157592, Note_off_c, 9, 70, 0
1, 157670, Note_off_c, 9, 62, 0
1, 157715, Note_off_c, 9, 51, 0
1, 157910, Note_off_c, 0, 32, 0
1, 157910, Note_on_c, 0, 32, 87
1, 157910, Note_on_c, 9, 38, 84
1, 157910, Note_on_c, 9, 70, 99
1, 157910, Note_on_c, 9, 82, 84
1, 157910, Note_on_c, 9, 51, 93
1, 157913, Note_off_c, 0, 32, 0
1, 157924, Note_on_c, 4, 61, 114
1, 157924, Note_on_c, 8, 49, 114
1, 157958, Note_off_c, 4, 63, 0
1, 157958, Note_off_c, 8, 51, 0
1, 158074, Note_off_c, 9, 82, 0
1, 158113, Note_off_c, 3, 49, 0
1, 158113, Note_off_c, 7, 49, 0
1, 158124, Note_off_c, 9, 70, 0
1, 158150, Note_off_c, 9, 38, 0
1, 158150, Note_off_c, 9, 51, 0
1, 158185, Note_off_c, 4, 61, 0
1, 158185, Note_off_c, 8, 49, 0
1, 158216, Note_off_c, 3, 53, 0
1, 158216, Note_off_c, 7, 53, 0
1, 158390, Note_on_c, 3, 49, 70
1, 158390, Note_on_c, 5, 61, 74
1, 158390, Note_on_c, 9, 36, 102
1, 158390, Note_on_c, 9, 70, 87
1, 158390, Note_on_c, 9, 60, 78
1, 158390, Note_on_c, 9, 51, 76
1, 158390, Note_on_c, 7, 49, 70
1, 158390, Note_on_c, 10, 61, 74
1, 158405, Note_on_c, 4, 56, 114
1, 158405, Note_on_c, 8, 44, 114
1, 158608, Note_off_c, 9, 70, 0
1, 158626, Note_off_c, 9, 60, 0
1, 158630, Note_off_c, 9, 36, 0
1, 158643, Note_off_c, 9, 51, 0
1, 158870, Note_on_c, 0, 25, 78
1, 158870, Note_on_c, 9, 70, 74
1, 158870, Note_on_c, 9, 51, 90
1, 159038, Note_off_c, 9, 70, 0
1, 159110, Note_off_c, 9, 51, 0
1, 159151, Note_off_c, 4, 56, 0
1, 159151, Note_off_c, 8, 44, 0
1, 159350, Note_on_c, 3, 53, 70
1, 159350, Note_on_c, 5, 56, 82
1, 159350, Note_on_c, 9, 70, 78
1, 159350, Note_on_c, 9, 62, 84
1, 159350, Note_on_c, 9, 51, 74
1, 159350, Note_on_c, 7, 53, 70
1, 159350, Note_on_c, 10, 56, 82
1, 159428, Note_off_c, 3, 56, 0
1, 159428, Note_off_c, 7, 56, 0
1, 159521, Note_off_c, 9, 70, 0
1, 159570, Note_off_c, 9, 51, 0
1, 159638, Note_off_c, 9, 62, 0
1, 159764, Note_off_c, 5, 61, 0
1, 159764, Note_off_c, 10, 61, 0
1, 159821, Note_off_c, 3, 61, 0
1, 159821, Note_off_c, 7, 61, 0
1, 159830, Note_on_c, 3, 56, 55
1, 159830, Note_on_c, 9, 38, 99
1, 159830, Note_on_c, 9, 82, 87
1, 159830, Note_on_c, 9, 70, 93
1, 159830, Note_on_c, 9, 51, 99
1, 159830, Note_on_c, 7, 56, 55
1, 159965, Note_off_c, 0, 25, 0
1, 160005, Note_off_c, 9, 82, 0
1, 160035, Note_off_c, 5, 68, 0
1, 160035, Note_off_c, 10, 68, 0
1, 160046, Note_off_c, 9, 70, 0
1, 160070, Note_off_c, 9, 38, 0
1, 160122, Note_off_c, 9, 51, 0
1, 160310, Note_on_c, 0, 25, 87
1, 160310, Note_on_c, 3, 61, 66
1, 160310, Note_on_c, 5, 61, 74
1, 160310, Note_on_c, 9, 36, 84
1, 160310, Note_on_c, 9, 70, 80
1, 160310, Note_on_c, 9, 60, 74
1, 160310, Note_on_c, 9, 51, 80
1, 160310, Note_on_c, 7, 61, 66
1, 160310, Note_on_c, 10, 61, 74
1, 160520, Note_off_c, 9, 70, 0
1, 160543, Note_off_c, 9, 51, 0
1, 160550, Note_off_c, 9, 36, 0
1, 160574, Note_off_c, 9, 60, 0
1, 160575, Note_off_c, 0, 25, 0
1, 160790, Note_on_c, 0, 32, 80
1, 160790, Note_on_c, 9, 36, 87
1, 160790, Note_on_c, 9, 70, 87
1, 160790, Note_on_c, 9, 51, 87
1, 160971, Note_off_c, 5, 65, 0
1, 160971, Note_off_c, 10, 65, 0
1, 161015, Note_off_c, 9, 70, 0
1, 161030, Note_off_c, 9, 36, 0
1, 161064, Note_off_c, 9, 51, 0
1, 161270, Note_on_c, 3, 63, 66
1, 161270, Note_on_c, 9, 43, 93
1, 161270, Note_on_c, 9, 70, 78
1, 161270, Note_on_c, 9, 61, 78
1, 161270, Note_on_c, 9, 51, 80
1, 161270, Note_on_c, 7, 63, 66
1, 161342, Note_off_c, 3, 61, 0
1, 161342, Note_off_c, 7, 61, 0
1, 161475, Note_off_c, 9, 70, 0
1, 161508, Note_off_c, 9, 51, 0
1, 161510, Note_off_c, 9, 43, 0
1, 161510, Note_off_c, 9, 61, 0
1, 161589, Note_off_c, 0, 32, 0
1, 161663, Note_off_c, 3, 53, 0
1, 161663, Note_off_c, 7, 53, 0
1, 161750, Note_on_c, 0, 32, 84
1, 161750, Note_on_c, 3, 53, 70
1, 161750, Note_on_c, 9, 38, 93
1, 161750, Note_on_c, 9, 40, 105
1, 161750, Note_on_c, 9, 70, 93
1, 161750, Note_on_c, 9, 51, 99
1, 161750, Note_on_c, 7, 53, 70
1, 161959, Note_off_c, 9, 40, 0
1, 161964, Note_off_c, 9, 70, 0
1, 161990, Note_off_c, 9, 38, 0
1, 162082, Note_off_c, 9, 51, 0
1, 162102, Note_off_c, 3, 56, 0
1, 162102, Note_off_c, 7, 56, 0
1, 162230, Note_on_c, 9, 82, 74
1, 162230, Note_on_c, 9, 70, 99
1, 162230, Note_on_c, 9, 62, 96
1, 162230, Note_on_c, 9, 51, 76
1, 162413, Note_off_c, 9, 82, 0
1, 162427, Note_off_c, 9, 70, 0
1, 162446, Note_off_c, 9, 51, 0
1, 162510, Note_off_c, 9, 62, 0
1, 162549, Note_off_c, 0, 32, 0
1, 162710, Note_off_c, 3, 49, 0
1, 162710, Note_off_c, 7, 49, 0
1, 162710, Note_off_c, 5, 56, 0
1, 162710, Note_off_c, 10, 56, 0
1, 162710, Note_off_c, 5, 61, 0
1, 162710, Note_off_c, 10, 61, 0
1, 162710, Note_off_c, 3, 63, 0
1, 162710, Note_off_c, 7, 63, 0
1, 162710, Note_off_c, 3, 53, 0
1, 162710, Note_off_c, 7, 53, 0
1, 162710, Note_on_c, 0, 27, 102
1, 162710, Note_on_c, 3, 61, 76
1, 162710, Note_on_c, 4, 63, 114
1, 162710, Note_on_c, 5, 58, 72
1, 162710, Note_on_c, 5, 65, 80
1, 162710, Note_on_c, 9, 36, 84
1, 162710, Note_on_c, 9, 49, 114
1, 162710, Note_on_c, 9, 70, 90
1, 162710, Note_on_c, 9, 60, 111
1, 162710, Note_on_c, 9, 51, 93
1, 162710, Note_on_c, 7, 61, 76
1, 162710, Note_on_c, 8, 51, 114
1, 162710, Note_on_c, 10, 58, 72
1, 162710, Note_on_c, 10, 65, 80
1, 162882, Lyric_t, "\\¡U"
1, 162923, Note_off_c, 9, 70, 0
1, 162926, Note_off_c, 9, 60, 0
1, 162928, Note_off_c, 9, 49, 0
1, 162950, Note_off_c, 9, 36, 0
1, 162999, Note_off_c, 9, 51, 0
1, 163190, Note_on_c, 3, 51, 46
1, 163190, Note_on_c, 5, 68, 80
1, 163190, Note_on_c, 9, 70, 78
1, 163190, Note_on_c, 9, 61, 82
1, 163190, Note_on_c, 9, 51, 45
1, 163190, Note_on_c, 7, 51, 46
1, 163190, Note_on_c, 10, 68, 80
1, 163294, Note_off_c, 9, 61, 0
1, 163319, Note_off_c, 5, 65, 0
1, 163319, Note_off_c, 10, 65, 0
1, 163374, Lyric_t, "."
1, 163385, Note_off_c, 9, 70, 0
1, 163396, Note_off_c, 9, 51, 0
1, 163670, Note_on_c, 3, 54, 50
1, 163670, Note_on_c, 5, 65, 68
1, 163670, Note_on_c, 9, 38, 87
1, 163670, Note_on_c, 9, 70, 90
1, 163670, Note_on_c, 9, 82, 82
1, 163670, Note_on_c, 9, 51, 80
1, 163670, Note_on_c, 7, 54, 50
1, 163670, Note_on_c, 10, 65, 68
1, 163797, Note_off_c, 5, 68, 0
1, 163797, Note_off_c, 10, 68, 0
1, 163810, Note_off_c, 0, 27, 0
1, 163819, Note_off_c, 9, 82, 0
1, 163867, Note_off_c, 9, 70, 0
1, 163910, Note_off_c, 9, 38, 0
1, 163910, Note_off_c, 9, 51, 0
1, 163965, Lyric_t, "."
1, 164150, Note_on_c, 0, 27, 99
1, 164150, Note_on_c, 3, 58, 68
1, 164150, Note_on_c, 5, 63, 68
1, 164150, Note_on_c, 9, 36, 78
1, 164150, Note_on_c, 9, 70, 99
1, 164150, Note_on_c, 9, 62, 90
1, 164150, Note_on_c, 9, 51, 74
1, 164150, Note_on_c, 7, 58, 68
1, 164150, Note_on_c, 10, 63, 68
1, 164162, Note_off_c, 3, 61, 0
1, 164162, Note_off_c, 7, 61, 0
1, 164297, Note_off_c, 0, 27, 0
1, 164349, Note_off_c, 9, 62, 0
1, 164377, Note_off_c, 9, 70, 0
1, 164390, Note_off_c, 9, 36, 0
1, 164426, Note_off_c, 9, 51, 0
1, 164630, Note_on_c, 0, 34, 90
1, 164630, Note_on_c, 9, 36, 84
1, 164630, Note_on_c, 9, 70, 76
1, 164630, Note_on_c, 9, 51, 68
1, 164818, Note_off_c, 9, 70, 0
1, 164870, Note_off_c, 9, 36, 0
1, 164930, Note_off_c, 9, 51, 0
1, 165110, Note_on_c, 3, 61, 76
1, 165110, Note_on_c, 5, 68, 74
1, 165110, Note_on_c, 9, 70, 64
1, 165110, Note_on_c, 9, 60, 93
1, 165110, Note_on_c, 9, 51, 66
1, 165110, Note_on_c, 7, 61, 76
1, 165110, Note_on_c, 10, 68, 74
1, 165128, Note_off_c, 5, 65, 0
1, 165128, Note_off_c, 10, 65, 0
1, 165218, Lyric_t, "."
1, 165241, Note_off_c, 5, 63, 0
1, 165241, Note_off_c, 10, 63, 0
1, 165276, Note_off_c, 9, 70, 0
1, 165307, Note_off_c, 9, 51, 0
1, 165315, Note_off_c, 9, 60, 0
1, 165522, Note_off_c, 4, 63, 0
1, 165522, Note_off_c, 8, 51, 0
1, 165590, Note_on_c, 5, 65, 74
1, 165590, Note_on_c, 9, 38, 87
1, 165590, Note_on_c, 9, 70, 102
1, 165590, Note_on_c, 9, 51, 99
1, 165590, Note_on_c, 10, 65, 74
1, 165591, Note_on_c, 4, 61, 114
1, 165591, Note_on_c, 8, 49, 114
1, 165649, Note_off_c, 0, 34, 0
1, 165754, Note_off_c, 5, 68, 0
1, 165754, Note_off_c, 10, 68, 0
1, 165757, Lyric_t, " u"
1, 165821, Note_off_c, 9, 70, 0
1, 165830, Note_off_c, 9, 38, 0
1, 165830, Note_off_c, 9, 51, 0
1, 165898, Note_off_c, 4, 61, 0
1, 165898, Note_off_c, 8, 49, 0
1, 165997, Lyric_t, "."
1, 166070, Note_on_c, 0, 34, 84
1, 166070, Note_on_c, 5, 61, 68
1, 166070, Note_on_c, 9, 36, 93
1, 166070, Note_on_c, 9, 82, 74
1, 166070, Note_on_c, 9, 70, 102
1, 166070, Note_on_c, 9, 61, 87
1, 166070, Note_on_c, 9, 51, 57
1, 166070, Note_on_c, 10, 61, 68
1, 166090, Note_on_c, 4, 58, 105
1, 166090, Note_on_c, 8, 46, 105
1, 166188, Lyric_t, "."
1, 166239, Note_off_c, 9, 82, 0
1, 166269, Note_off_c, 0, 34, 0
1, 166275, Note_off_c, 9, 61, 0
1, 166299, Note_off_c, 9, 51, 0
1, 166310, Note_off_c, 9, 36, 0
1, 166338, Note_off_c, 9, 70, 0
1, 166373, Note_off_c, 3, 54, 0
1, 166373, Note_off_c, 7, 54, 0
1, 166397, Lyric_t, "."
1, 166445, Note_off_c, 3, 51, 0
1, 166445, Note_off_c, 7, 51, 0
1, 166546, Note_off_c, 4, 58, 0
1, 166546, Note_off_c, 8, 46, 0
1, 166550, Note_on_c, 0, 27, 78
1, 166550, Note_on_c, 9, 70, 76
1, 166550, Note_on_c, 9, 51, 87
1, 166725, Note_off_c, 9, 70, 0
1, 166906, Note_off_c, 9, 51, 0
1, 167030, Note_on_c, 3, 51, 61
1, 167030, Note_on_c, 9, 70, 74
1, 167030, Note_on_c, 9, 62, 93
1, 167030, Note_on_c, 9, 51, 62
1, 167030, Note_on_c, 7, 51, 61
1, 167226, Note_off_c, 9, 70, 0
1, 167233, Note_off_c, 9, 51, 0
1, 167266, Note_off_c, 9, 62, 0
1, 167327, Lyric_t, ".!"
1, 167510, Note_on_c, 3, 54, 68
1, 167510, Note_on_c, 9, 38, 90
1, 167510, Note_on_c, 9, 70, 93
1, 167510, Note_on_c, 9, 51, 93
1, 167510, Note_on_c, 7, 54, 68
1, 167645, Note_off_c, 0, 27, 0
1, 167736, Note_off_c, 9, 70, 0
1, 167750, Note_off_c, 9, 38, 0
1, 167836, Note_off_c, 9, 51, 0
1, 167948, Note_off_c, 3, 61, 0
1, 167948, Note_off_c, 7, 61, 0
1, 167990, Note_on_c, 0, 27, 105
1, 167990, Note_on_c, 3, 63, 61
1, 167990, Note_on_c, 9, 36, 78
1, 167990, Note_on_c, 9, 70, 78
1, 167990, Note_on_c, 9, 62, 99
1, 167990, Note_on_c, 9, 51, 72
1, 167990, Note_on_c, 7, 63, 61
1, 168169, Note_off_c, 9, 70, 0
1, 168189, Note_off_c, 0, 27, 0
1, 168230, Note_off_c, 9, 36, 0
1, 168230, Note_off_c, 9, 62, 0
1, 168238, Note_off_c, 9, 51, 0
1, 168464, Note_on_c, 4, 63, 105
1, 168464, Note_on_c, 8, 51, 105
1, 168470, Note_on_c, 0, 34, 93
1, 168470, Note_on_c, 9, 36, 87
1, 168470, Note_on_c, 9, 70, 93
1, 168470, Note_on_c, 9, 51, 80
1, 168492, Note_off_c, 5, 58, 0
1, 168492, Note_off_c, 10, 58, 0
1, 168666, Lyric_t, "\\¡U"
1, 168680, Note_off_c, 9, 70, 0
1, 168710, Note_off_c, 9, 36, 0
1, 168710, Note_off_c, 9, 51, 0
1, 168750, Note_off_c, 3, 54, 0
1, 168750, Note_off_c, 7, 54, 0
1, 168882, Lyric_t, "."
1, 168939, Note_off_c, 4, 63, 0
1, 168939, Note_off_c, 8, 51, 0
1, 168950, Note_on_c, 3, 54, 64
1, 168950, Note_on_c, 5, 58, 74
1, 168950, Note_on_c, 9, 70, 76
1, 168950, Note_on_c, 9, 61, 78
1, 168950, Note_on_c, 9, 51, 72
1, 168950, Note_on_c, 7, 54, 64
1, 168950, Note_on_c, 10, 58, 74
1, 168976, Note_on_c, 4, 65, 102
1, 168976, Note_on_c, 8, 53, 102
1, 168991, Note_off_c, 5, 61, 0
1, 168991, Note_off_c, 10, 61, 0
1, 169106, Note_off_c, 9, 70, 0
1, 169156, Lyric_t, "."
1, 169160, Note_off_c, 9, 51, 0
1, 169190, Note_off_c, 9, 61, 0
1, 169201, Note_off_c, 5, 65, 0
1, 169201, Note_off_c, 10, 65, 0
1, 169312, Note_off_c, 0, 34, 0
1, 169427, Note_off_c, 4, 65, 0
1, 169427, Note_off_c, 8, 53, 0
1, 169430, Note_on_c, 0, 27, 93
1, 169430, Note_on_c, 5, 61, 87
1, 169430, Note_on_c, 9, 38, 93
1, 169430, Note_on_c, 9, 70, 102
1, 169430, Note_on_c, 9, 82, 78
1, 169430, Note_on_c, 9, 51, 102
1, 169430, Note_on_c, 10, 61, 87
1, 169460, Note_on_c, 4, 63, 108
1, 169460, Note_on_c, 8, 51, 108
1, 169594, Note_off_c, 9, 70, 0
1, 169594, Note_off_c, 9, 82, 0
1, 169670, Note_off_c, 9, 38, 0
1, 169670, Note_off_c, 9, 51, 0
1, 169730, Note_off_c, 3, 54, 0
1, 169730, Note_off_c, 7, 54, 0
1, 169780, Lyric_t, "."
1, 169791, Note_off_c, 0, 27, 0
1, 169881, Note_off_c, 4, 63, 0
1, 169881, Note_off_c, 8, 51, 0
1, 169910, Note_on_c, 0, 29, 84
1, 169910, Note_on_c, 3, 54, 48
1, 169910, Note_on_c, 9, 82, 87
1, 169910, Note_on_c, 9, 70, 82
1, 169910, Note_on_c, 9, 61, 76
1, 169910, Note_on_c, 9, 51, 66
1, 169910, Note_on_c, 7, 54, 48
1, 169939, Note_on_c, 4, 61, 105
1, 169939, Note_on_c, 8, 49, 105
1, 170094, Note_off_c, 9, 82, 0
1, 170102, Note_off_c, 9, 70, 0
1, 170107, Note_off_c, 9, 51, 0
1, 170163, Note_off_c, 9, 61, 0
1, 170178, Note_off_c, 0, 29, 0
1, 170228, Note_off_c, 3, 63, 0
1, 170228, Note_off_c, 7, 63, 0
1, 170232, Note_off_c, 3, 54, 0
1, 170232, Note_off_c, 7, 54, 0
1, 170239, Note_off_c, 5, 58, 0
1, 170239, Note_off_c, 10, 58, 0
1, 170326, Note_off_c, 4, 61, 0
1, 170326, Note_off_c, 8, 49, 0
1, 170339, Note_off_c, 5, 61, 0
1, 170339, Note_off_c, 10, 61, 0
1, 170390, Note_on_c, 0, 30, 93
1, 170390, Note_on_c, 3, 61, 82
1, 170390, Note_on_c, 5, 65, 82
1, 170390, Note_on_c, 5, 54, 76
1, 170390, Note_on_c, 9, 36, 84
1, 170390, Note_on_c, 9, 70, 93
1, 170390, Note_on_c, 9, 60, 82
1, 170390, Note_on_c, 9, 51, 99
1, 170390, Note_on_c, 7, 61, 82
1, 170390, Note_on_c, 10, 65, 82
1, 170390, Note_on_c, 10, 54, 76
1, 170406, Note_on_c, 4, 63, 108
1, 170406, Note_on_c, 8, 51, 108
1, 170479, Note_off_c, 3, 58, 0
1, 170479, Note_off_c, 7, 58, 0
1, 170585, Note_off_c, 9, 60, 0
1, 170624, Note_off_c, 9, 70, 0
1, 170630, Note_off_c, 9, 36, 0
1, 170630, Note_off_c, 9, 51, 0
1, 170650, Note_off_c, 3, 51, 0
1, 170650, Note_off_c, 7, 51, 0
1, 170870, Note_on_c, 3, 54, 68
1, 170870, Note_on_c, 5, 68, 76
1, 170870, Note_on_c, 9, 70, 76
1, 170870, Note_on_c, 9, 61, 72
1, 170870, Note_on_c, 9, 51, 61
1, 170870, Note_on_c, 7, 54, 68
1, 170870, Note_on_c, 10, 68, 76
1, 170991, Note_off_c, 5, 65, 0
1, 170991, Note_off_c, 10, 65, 0
1, 171036, Note_off_c, 9, 70, 0
1, 171073, Note_off_c, 9, 51, 0
1, 171224, Note_off_c, 9, 61, 0
1, 171318, Lyric_t, "."
1, 171350, Note_on_c, 3, 58, 55
1, 171350, Note_on_c, 5, 65, 66
1, 171350, Note_on_c, 9, 38, 84
1, 171350, Note_on_c, 9, 70, 102
1, 171350, Note_on_c, 9, 51, 93
1, 171350, Note_on_c, 7, 58, 55
1, 171350, Note_on_c, 10, 65, 66
1, 171496, Note_off_c, 0, 30, 0
1, 171577, Note_off_c, 9, 70, 0
1, 171590, Note_off_c, 9, 38, 0
1, 171676, Note_off_c, 9, 51, 0
1, 171690, Note_off_c, 3, 61, 0
1, 171690, Note_off_c, 7, 61, 0
1, 171784, Note_off_c, 5, 68, 0
1, 171784, Note_off_c, 10, 68, 0
1, 171830, Note_on_c, 0, 30, 80
1, 171830, Note_on_c, 3, 61, 66
1, 171830, Note_on_c, 5, 63, 72
1, 171830, Note_on_c, 9, 36, 93
1, 171830, Note_on_c, 9, 70, 93
1, 171830, Note_on_c, 9, 62, 82
1, 171830, Note_on_c, 9, 51, 78
1, 171830, Note_on_c, 7, 61, 66
1, 171830, Note_on_c, 10, 63, 72
1, 172029, Note_off_c, 9, 70, 0
1, 172054, Note_off_c, 0, 30, 0
1, 172070, Note_off_c, 9, 36, 0
1, 172070, Note_off_c, 9, 62, 0
1, 172128, Note_off_c, 9, 51, 0
1, 172310, Note_on_c, 0, 25, 84
1, 172310, Note_on_c, 9, 36, 84
1, 172310, Note_on_c, 9, 70, 82
1, 172310, Note_on_c, 9, 51, 72
1, 172533, Note_off_c, 9, 70, 0
1, 172550, Note_off_c, 9, 36, 0
1, 172584, Note_off_c, 9, 51, 0
1, 172790, Note_on_c, 3, 63, 62
1, 172790, Note_on_c, 5, 68, 74
1, 172790, Note_on_c, 9, 70, 72
1, 172790, Note_on_c, 9, 62, 99
1, 172790, Note_on_c, 9, 51, 74
1, 172790, Note_on_c, 7, 63, 62
1, 172790, Note_on_c, 10, 68, 74
1, 172806, Note_off_c, 5, 65, 0
1, 172806, Note_off_c, 10, 65, 0
1, 172897, Note_off_c, 5, 63, 0
1, 172897, Note_off_c, 10, 63, 0
1, 172952, Note_off_c, 9, 70, 0
1, 172992, Note_off_c, 3, 61, 0
1, 172992, Note_off_c, 7, 61, 0
1, 173030, Note_off_c, 9, 62, 0
1, 173075, Note_off_c, 9, 51, 0
1, 173224, Note_off_c, 4, 63, 0
1, 173224, Note_off_c, 8, 51, 0
1, 173270, Note_on_c, 5, 65, 55
1, 173270, Note_on_c, 9, 38, 84
1, 173270, Note_on_c, 9, 70, 99
1, 173270, Note_on_c, 9, 82, 84
1, 173270, Note_on_c, 9, 51, 93
1, 173270, Note_on_c, 10, 65, 55
1, 173302, Note_on_c, 4, 61, 114
1, 173302, Note_on_c, 8, 49, 114
1, 173370, Note_off_c, 0, 25, 0
1, 173434, Note_off_c, 9, 82, 0
1, 173454, Lyric_t, " u"
1, 173484, Note_off_c, 9, 70, 0
1, 173490, Note_off_c, 5, 68, 0
1, 173490, Note_off_c, 10, 68, 0
1, 173507, Note_off_c, 4, 61, 0
1, 173507, Note_off_c, 8, 49, 0
1, 173510, Note_off_c, 9, 38, 0
1, 173510, Note_off_c, 9, 51, 0
1, 173555, Note_off_c, 3, 54, 0
1, 173555, Note_off_c, 7, 54, 0
1, 173721, Lyric_t, "."
1, 173750, Note_on_c, 0, 25, 76
1, 173750, Note_on_c, 3, 54, 55
1, 173750, Note_on_c, 5, 61, 74
1, 173750, Note_on_c, 9, 36, 102
1, 173750, Note_on_c, 9, 70, 87
1, 173750, Note_on_c, 9, 60, 78
1, 173750, Note_on_c, 9, 51, 76
1, 173750, Note_on_c, 7, 54, 55
1, 173750, Note_on_c, 10, 61, 74
1, 173769, Note_on_c, 4, 58, 102
1, 173769, Note_on_c, 8, 46, 102
1, 173963, Lyric_t, "."
1, 173964, Note_off_c, 0, 25, 0
1, 173968, Note_off_c, 9, 70, 0
1, 173986, Note_off_c, 9, 60, 0
1, 173990, Note_off_c, 9, 36, 0
1, 174003, Note_off_c, 9, 51, 0
1, 174109, Note_off_c, 3, 58, 0
1, 174109, Note_off_c, 7, 58, 0
1, 174230, Note_on_c, 0, 30, 87
1, 174230, Note_on_c, 9, 70, 74
1, 174230, Note_on_c, 9, 51, 90
1, 174398, Note_off_c, 9, 70, 0
1, 174470, Note_off_c, 9, 51, 0
1, 174510, Lyric_t, "."
1, 174588, Note_off_c, 3, 54, 0
1, 174588, Note_off_c, 7, 54, 0
1, 174594, Note_off_c, 4, 58, 0
1, 174594, Note_off_c, 8, 46, 0
1, 174710, Note_on_c, 3, 54, 70
1, 174710, Note_on_c, 9, 70, 78
1, 174710, Note_on_c, 9, 62, 84
1, 174710, Note_on_c, 9, 51, 74
1, 174710, Note_on_c, 7, 54, 70
1, 174881, Note_off_c, 9, 70, 0
1, 174930, Note_off_c, 9, 51, 0
1, 174998, Note_off_c, 9, 62, 0
1, 175169, Lyric_t, ".!"
1, 175181, Note_off_c, 3, 63, 0
1, 175181, Note_off_c, 7, 63, 0
1, 175190, Note_on_c, 3, 56, 66
1, 175190, Note_on_c, 9, 38, 99
1, 175190, Note_on_c, 9, 82, 87
1, 175190, Note_on_c, 9, 70, 93
1, 175190, Note_on_c, 9, 51, 99
1, 175190, Note_on_c, 7, 56, 66
1, 175342, Note_off_c, 0, 30, 0
1, 175365, Note_off_c, 9, 82, 0
1, 175406, Note_off_c, 9, 70, 0
1, 175430, Note_off_c, 9, 38, 0
1, 175482, Note_off_c, 9, 51, 0
1, 175670, Note_on_c, 0, 30, 80
1, 175670, Note_on_c, 3, 61, 74
1, 175670, Note_on_c, 9, 36, 84
1, 175670, Note_on_c, 9, 70, 80
1, 175670, Note_on_c, 9, 60, 74
1, 175670, Note_on_c, 9, 51, 80
1, 175670, Note_on_c, 7, 61, 74
1, 175880, Note_off_c, 9, 70, 0
1, 175886, Note_off_c, 0, 30, 0
1, 175903, Note_off_c, 9, 51, 0
1, 175910, Note_off_c, 9, 36, 0
1, 175934, Note_off_c, 9, 60, 0
1, 176134, Note_on_c, 4, 63, 114
1, 176134, Note_on_c, 8, 51, 114
1, 176150, Note_on_c, 0, 25, 82
1, 176150, Note_on_c, 9, 36, 87
1, 176150, Note_on_c, 9, 70, 87
1, 176150, Note_on_c, 9, 51, 87
1, 176305, Lyric_t, "\\¡U"
1, 176319, Note_off_c, 3, 54, 0
1, 176319, Note_off_c, 7, 54, 0
1, 176375, Note_off_c, 9, 70, 0
1, 176390, Note_off_c, 9, 36, 0
1, 176424, Note_off_c, 9, 51, 0
1, 176559, Note_off_c, 4, 63, 0
1, 176559, Note_off_c, 8, 51, 0
1, 176613, Note_on_c, 4, 65, 84
1, 176613, Note_on_c, 8, 53, 84
1, 176630, Note_on_c, 3, 54, 68
1, 176630, Note_on_c, 9, 70, 78
1, 176630, Note_on_c, 9, 61, 78
1, 176630, Note_on_c, 9, 51, 80
1, 176630, Note_on_c, 7, 54, 68
1, 176732, Lyric_t, "."
1, 176814, Note_off_c, 3, 56, 0
1, 176814, Note_off_c, 7, 56, 0
1, 176835, Note_off_c, 9, 70, 0
1, 176868, Note_off_c, 9, 51, 0
1, 176870, Note_off_c, 9, 61, 0
1, 176982, Note_off_c, 0, 25, 0
1, 177110, Note_on_c, 0, 30, 93
1, 177110, Note_on_c, 3, 56, 58
1, 177110, Note_on_c, 9, 38, 93
1, 177110, Note_on_c, 9, 70, 93
1, 177110, Note_on_c, 9, 51, 99
1, 177110, Note_on_c, 7, 56, 58
1, 177121, Note_on_c, 4, 63, 108
1, 177121, Note_on_c, 8, 51, 108
1, 177128, Note_off_c, 4, 65, 0
1, 177128, Note_off_c, 8, 53, 0
1, 177206, Note_off_c, 5, 61, 0
1, 177206, Note_off_c, 10, 61, 0
1, 177228, Lyric_t, "."
1, 177257, Note_off_c, 5, 65, 0
1, 177257, Note_off_c, 10, 65, 0
1, 177324, Note_off_c, 9, 70, 0
1, 177350, Note_off_c, 9, 38, 0
1, 177442, Note_off_c, 9, 51, 0
1, 177547, Note_off_c, 4, 63, 0
1, 177547, Note_off_c, 8, 51, 0
1, 177555, Note_off_c, 5, 54, 0
1, 177555, Note_off_c, 10, 54, 0
1, 177590, Note_on_c, 9, 82, 74
1, 177590, Note_on_c, 9, 70, 99
1, 177590, Note_on_c, 9, 62, 96
1, 177590, Note_on_c, 9, 51, 76
1, 177603, Note_on_c, 4, 61, 108
1, 177603, Note_on_c, 8, 49, 108
1, 177773, Note_off_c, 9, 82, 0
1, 177787, Note_off_c, 9, 70, 0
1, 177806, Note_off_c, 9, 51, 0
1, 177870, Note_off_c, 9, 62, 0
1, 177881, Note_off_c, 0, 30, 0
1, 177952, Note_off_c, 3, 54, 0
1, 177952, Note_off_c, 7, 54, 0
1, 177994, Note_off_c, 3, 56, 0
1, 177994, Note_off_c, 7, 56, 0
1, 177996, Note_off_c, 4, 61, 0
1, 177996, Note_off_c, 8, 49, 0
1, 178070, Note_on_c, 0, 37, 87
1, 178070, Note_on_c, 3, 49, 66
1, 178070, Note_on_c, 5, 65, 82
1, 178070, Note_on_c, 9, 36, 84
1, 178070, Note_on_c, 9, 70, 90
1, 178070, Note_on_c, 9, 60, 111
1, 178070, Note_on_c, 9, 51, 93
1, 178070, Note_on_c, 7, 49, 66
1, 178070, Note_on_c, 10, 65, 82
1, 178106, Note_on_c, 4, 63, 108
1, 178106, Note_on_c, 8, 51, 108
1, 178283, Note_off_c, 9, 70, 0
1, 178286, Note_off_c, 9, 60, 0
1, 178310, Note_off_c, 9, 36, 0
1, 178359, Note_off_c, 9, 51, 0
1, 178422, Note_off_c, 3, 61, 0
1, 178422, Note_off_c, 7, 61, 0
1, 178550, Note_on_c, 3, 53, 59
1, 178550, Note_on_c, 5, 68, 76
1, 178550, Note_on_c, 9, 70, 78
1, 178550, Note_on_c, 9, 61, 82
1, 178550, Note_on_c, 9, 51, 45
1, 178550, Note_on_c, 7, 53, 59
1, 178550, Note_on_c, 10, 68, 76
1, 178654, Note_off_c, 9, 61, 0
1, 178745, Note_off_c, 9, 70, 0
1, 178756, Note_off_c, 9, 51, 0
1, 178884, Note_off_c, 5, 65, 0
1, 178884, Note_off_c, 10, 65, 0
1, 179027, Lyric_t, "."
1, 179030, Note_on_c, 3, 56, 54
1, 179030, Note_on_c, 5, 65, 61
1, 179030, Note_on_c, 9, 38, 87
1, 179030, Note_on_c, 9, 70, 90
1, 179030, Note_on_c, 9, 82, 82
1, 179030, Note_on_c, 9, 51, 80
1, 179030, Note_on_c, 7, 56, 54
1, 179030, Note_on_c, 10, 65, 61
1, 179100, Note_off_c, 5, 68, 0
1, 179100, Note_off_c, 10, 68, 0
1, 179156, Note_off_c, 0, 37, 0
1, 179179, Note_off_c, 9, 82, 0
1, 179227, Note_off_c, 9, 70, 0
1, 179270, Note_off_c, 9, 38, 0
1, 179348, Note_off_c, 9, 51, 0
1, 179510, Note_on_c, 0, 37, 102
1, 179510, Note_on_c, 5, 63, 80
1, 179510, Note_on_c, 9, 36, 78
1, 179510, Note_on_c, 9, 70, 99
1, 179510, Note_on_c, 9, 62, 90
1, 179510, Note_on_c, 9, 51, 74
1, 179510, Note_on_c, 10, 63, 80
1, 179709, Note_off_c, 9, 62, 0
1, 179728, Note_off_c, 0, 37, 0
1, 179737, Note_off_c, 9, 70, 0
1, 179750, Note_off_c, 9, 36, 0
1, 179786, Note_off_c, 9, 51, 0
1, 179990, Note_on_c, 0, 32, 84
1, 179990, Note_on_c, 9, 36, 84
1, 179990, Note_on_c, 9, 70, 76
1, 179990, Note_on_c, 9, 51, 68
1, 180178, Note_off_c, 9, 70, 0
1, 180230, Note_off_c, 9, 36, 0
1, 180290, Note_off_c, 9, 51, 0
1, 180470, Note_on_c, 3, 61, 59
1, 180470, Note_on_c, 5, 68, 76
1, 180470, Note_on_c, 9, 70, 64
1, 180470, Note_on_c, 9, 60, 93
1, 180470, Note_on_c, 9, 51, 66
1, 180470, Note_on_c, 7, 61, 59
1, 180470, Note_on_c, 10, 68, 76
1, 180534, Note_off_c, 5, 63, 0
1, 180534, Note_off_c, 10, 63, 0
1, 180636, Note_off_c, 9, 70, 0
1, 180667, Note_off_c, 9, 51, 0
1, 180675, Note_off_c, 9, 60, 0
1, 180950, Note_off_c, 0, 32, 0
1, 180950, Note_on_c, 0, 32, 87
1, 180950, Note_on_c, 9, 38, 87
1, 180950, Note_on_c, 9, 70, 102
1, 180950, Note_on_c, 9, 51, 99
1, 180953, Note_off_c, 0, 32, 0
1, 180964, Note_on_c, 4, 61, 114
1, 180964, Note_on_c, 8, 49, 114
1, 180998, Note_off_c, 4, 63, 0
1, 180998, Note_off_c, 8, 51, 0
1, 181128, Lyric_t, " u"
1, 181153, Note_off_c, 3, 49, 0
1, 181153, Note_off_c, 7, 49, 0
1, 181181, Note_off_c, 9, 70, 0
1, 181190, Note_off_c, 9, 38, 0
1, 181190, Note_off_c, 9, 51, 0
1, 181225, Note_off_c, 4, 61, 0
1, 181225, Note_off_c, 8, 49, 0
1, 181256, Note_off_c, 3, 53, 0
1, 181256, Note_off_c, 7, 53, 0
1, 181351, Lyric_t, "."
1, 181430, Note_on_c, 3, 49, 70
1, 181430, Note_on_c, 5, 61, 74
1, 181430, Note_on_c, 9, 36, 93
1, 181430, Note_on_c, 9, 82, 74
1, 181430, Note_on_c, 9, 70, 102
1, 181430, Note_on_c, 9, 61, 87
1, 181430, Note_on_c, 9, 51, 57
1, 181430, Note_on_c, 7, 49, 70
1, 181430, Note_on_c, 10, 61, 74
1, 181445, Note_on_c, 4, 56, 114
1, 181445, Note_on_c, 8, 44, 114
1, 181558, Lyric_t, "."
1, 181599, Note_off_c, 9, 82, 0
1, 181635, Note_off_c, 9, 61, 0
1, 181659, Note_off_c, 9, 51, 0
1, 181670, Note_off_c, 9, 36, 0
1, 181698, Note_off_c, 9, 70, 0
1, 181770, Lyric_t, "."
1, 181910, Note_on_c, 0, 25, 78
1, 181910, Note_on_c, 9, 70, 76
1, 181910, Note_on_c, 9, 51, 87
1, 182010, Lyric_t, "."
1, 182085, Note_off_c, 9, 70, 0
1, 182150, Note_off_c, 9, 51, 0
1, 182191, Note_off_c, 4, 56, 0
1, 182191, Note_off_c, 8, 44, 0
1, 182390, Note_on_c, 3, 53, 70
1, 182390, Note_on_c, 5, 56, 82
1, 182390, Note_on_c, 9, 70, 74
1, 182390, Note_on_c, 9, 62, 93
1, 182390, Note_on_c, 9, 51, 62
1, 182390, Note_on_c, 7, 53, 70
1, 182390, Note_on_c, 10, 56, 82
1, 182468, Note_off_c, 3, 56, 0
1, 182468, Note_off_c, 7, 56, 0
1, 182586, Note_off_c, 9, 70, 0
1, 182593, Note_off_c, 9, 51, 0
1, 182626, Note_off_c, 9, 62, 0
1, 182804, Note_off_c, 5, 61, 0
1, 182804, Note_off_c, 10, 61, 0
1, 182861, Note_off_c, 3, 61, 0
1, 182861, Note_off_c, 7, 61, 0
1, 182870, Note_on_c, 3, 56, 55
1, 182870, Note_on_c, 9, 38, 90
1, 182870, Note_on_c, 9, 70, 93
1, 182870, Note_on_c, 9, 51, 93
1, 182870, Note_on_c, 7, 56, 55
1, 182896, Lyric_t, ".!"
1, 183005, Note_off_c, 0, 25, 0
1, 183075, Note_off_c, 5, 68, 0
1, 183075, Note_off_c, 10, 68, 0
1, 183096, Note_off_c, 9, 70, 0
1, 183110, Note_off_c, 9, 38, 0
1, 183196, Note_off_c, 9, 51, 0
1, 183350, Note_on_c, 0, 25, 87
1, 183350, Note_on_c, 3, 61, 66
1, 183350, Note_on_c, 5, 61, 74
1, 183350, Note_on_c, 9, 36, 78
1, 183350, Note_on_c, 9, 70, 78
1, 183350, Note_on_c, 9, 62, 99
1, 183350, Note_on_c, 9, 51, 72
1, 183350, Note_on_c, 7, 61, 66
1, 183350, Note_on_c, 10, 61, 74
1, 183529, Note_off_c, 9, 70, 0
1, 183590, Note_off_c, 9, 36, 0
1, 183590, Note_off_c, 9, 62, 0
1, 183598, Note_off_c, 9, 51, 0
1, 183615, Note_off_c, 0, 25, 0
1, 183830, Note_on_c, 0, 32, 80
1, 183830, Note_on_c, 9, 36, 87
1, 183830, Note_on_c, 9, 70, 93
1, 183830, Note_on_c, 9, 51, 80
1, 184011, Note_off_c, 5, 65, 0
1, 184011, Note_off_c, 10, 65, 0
1, 184040, Note_off_c, 9, 70, 0
1, 184070, Note_off_c, 9, 36, 0
1, 184120, Note_off_c, 9, 51, 0
1, 184310, Note_on_c, 3, 63, 66
1, 184310, Note_on_c, 9, 70, 76
1, 184310, Note_on_c, 9, 61, 78
1, 184310, Note_on_c, 9, 51, 72
1, 184310, Note_on_c, 7, 63, 66
1, 184382, Note_off_c, 3, 61, 0
1, 184382, Note_off_c, 7, 61, 0
1, 184466, Note_off_c, 9, 70, 0
1, 184520, Note_off_c, 9, 51, 0
1, 184601, Note_off_c, 9, 61, 0
1, 184629, Note_off_c, 0, 32, 0
1, 184703, Note_off_c, 3, 53, 0
1, 184703, Note_off_c, 7, 53, 0
1, 184790, Note_on_c, 0, 32, 84
1, 184790, Note_on_c, 3, 53, 70
1, 184790, Note_on_c, 9, 38, 93
1, 184790, Note_on_c, 9, 70, 102
1, 184790, Note_on_c, 9, 82, 78
1, 184790, Note_on_c, 9, 51, 102
1, 184790, Note_on_c, 7, 53, 70
1, 184954, Note_off_c, 9, 70, 0
1, 184954, Note_off_c, 9, 82, 0
1, 185030, Note_off_c, 9, 38, 0
1, 185114, Note_off_c, 9, 51, 0
1, 185142, Note_off_c, 3, 56, 0
1, 185142, Note_off_c, 7, 56, 0
1, 185270, Note_on_c, 9, 82, 87
1, 185270, Note_on_c, 9, 70, 82
1, 185270, Note_on_c, 9, 61, 76
1, 185270, Note_on_c, 9, 51, 66
1, 185454, Note_off_c, 9, 82, 0
1, 185462, Note_off_c, 9, 70, 0
1, 185467, Note_off_c, 9, 51, 0
1, 185523, Note_off_c, 9, 61, 0
1, 185589, Note_off_c, 0, 32, 0
1, 185750, Note_on_c, 0, 25, 82
1, 185750, Note_on_c, 5, 65, 74
1, 185750, Note_on_c, 9, 36, 84
1, 185750, Note_on_c, 9, 70, 93
1, 185750, Note_on_c, 9, 60, 82
1, 185750, Note_on_c, 9, 51, 99
1, 185750, Note_on_c, 10, 65, 74
1, 185778, Note_on_c, 4, 63, 108
1, 185778, Note_on_c, 8, 51, 108
1, 185901, Lyric_t, "\\¡U"
1, 185945, Note_off_c, 9, 60, 0
1, 185984, Note_off_c, 9, 70, 0
1, 185990, Note_off_c, 9, 36, 0
1, 186117, Note_off_c, 9, 51, 0
1, 186135, Lyric_t, "."
1, 186196, Note_off_c, 3, 63, 0
1, 186196, Note_off_c, 7, 63, 0
1, 186230, Note_on_c, 3, 61, 49
1, 186230, Note_on_c, 5, 68, 70
1, 186230, Note_on_c, 9, 70, 76
1, 186230, Note_on_c, 9, 61, 72
1, 186230, Note_on_c, 9, 51, 61
1, 186230, Note_on_c, 7, 61, 49
1, 186230, Note_on_c, 10, 68, 70
1, 186391, Lyric_t, "."
1, 186396, Note_off_c, 9, 70, 0
1, 186423, Note_off_c, 5, 65, 0
1, 186423, Note_off_c, 10, 65, 0
1, 186433, Note_off_c, 9, 51, 0
1, 186584, Note_off_c, 9, 61, 0
1, 186644, Lyric_t, "."
1, 186702, Note_off_c, 5, 61, 0
1, 186702, Note_off_c, 10, 61, 0
1, 186710, Note_on_c, 3, 56, 61
1, 186710, Note_on_c, 5, 65, 58
1, 186710, Note_on_c, 9, 38, 84
1, 186710, Note_on_c, 9, 70, 102
1, 186710, Note_on_c, 9, 51, 93
1, 186710, Note_on_c, 7, 56, 61
1, 186710, Note_on_c, 10, 65, 58
1, 186881, Note_off_c, 3, 53, 0
1, 186881, Note_off_c, 7, 53, 0
1, 186937, Note_off_c, 9, 70, 0
1, 186938, Note_off_c, 0, 25, 0
1, 186950, Note_off_c, 9, 38, 0
1, 187036, Note_off_c, 9, 51, 0
1, 187190, Note_on_c, 0, 25, 93
1, 187190, Note_on_c, 3, 53, 59
1, 187190, Note_on_c, 5, 63, 68
1, 187190, Note_on_c, 9, 36, 93
1, 187190, Note_on_c, 9, 70, 93
1, 187190, Note_on_c, 9, 62, 82
1, 187190, Note_on_c, 9, 51, 78
1, 187190, Note_on_c, 7, 53, 59
1, 187190, Note_on_c, 10, 63, 68
1, 187327, Note_off_c, 5, 68, 0
1, 187327, Note_off_c, 10, 68, 0
1, 187339, Note_off_c, 0, 25, 0
1, 187389, Note_off_c, 9, 70, 0
1, 187430, Note_off_c, 9, 36, 0
1, 187430, Note_off_c, 9, 62, 0
1, 187488, Note_off_c, 9, 51, 0
1, 187670, Note_on_c, 0, 32, 87
1, 187670, Note_on_c, 9, 36, 84
1, 187670, Note_on_c, 9, 70, 82
1, 187670, Note_on_c, 9, 51, 72
1, 187893, Note_off_c, 9, 70, 0
1, 187910, Note_off_c, 9, 36, 0
1, 187944, Note_off_c, 9, 51, 0
1, 188017, Note_off_c, 3, 56, 0
1, 188017, Note_off_c, 7, 56, 0
1, 188051, Lyric_t, "."
1, 188150, Note_on_c, 3, 56, 70
1, 188150, Note_on_c, 5, 68, 80
1, 188150, Note_on_c, 9, 70, 72
1, 188150, Note_on_c, 9, 62, 99
1, 188150, Note_on_c, 9, 51, 74
1, 188150, Note_on_c, 7, 56, 70
1, 188150, Note_on_c, 10, 68, 80
1, 188312, Note_off_c, 9, 70, 0
1, 188390, Note_off_c, 9, 62, 0
1, 188435, Note_off_c, 9, 51, 0
1, 188548, Note_off_c, 5, 65, 0
1, 188548, Note_off_c, 10, 65, 0
1, 188564, Note_off_c, 5, 63, 0
1, 188564, Note_off_c, 10, 63, 0
1, 188582, Note_off_c, 4, 63, 0
1, 188582, Note_off_c, 8, 51, 0
1, 188630, Note_on_c, 4, 61, 102
1, 188630, Note_on_c, 5, 65, 61
1, 188630, Note_on_c, 9, 38, 84
1, 188630, Note_on_c, 9, 70, 99
1, 188630, Note_on_c, 9, 82, 84
1, 188630, Note_on_c, 9, 51, 93
1, 188630, Note_on_c, 8, 49, 102
1, 188630, Note_on_c, 10, 65, 61
1, 188783, Lyric_t, " u"
1, 188794, Note_off_c, 9, 82, 0
1, 188844, Note_off_c, 9, 70, 0
1, 188856, Note_off_c, 4, 61, 0
1, 188856, Note_off_c, 8, 49, 0
1, 188870, Note_off_c, 9, 38, 0
1, 188870, Note_off_c, 9, 51, 0
1, 188945, Note_off_c, 3, 61, 0
1, 188945, Note_off_c, 7, 61, 0
1, 189003, Lyric_t, "."
1, 189110, Note_on_c, 3, 61, 59
1, 189110, Note_on_c, 5, 61, 76
1, 189110, Note_on_c, 9, 36, 102
1, 189110, Note_on_c, 9, 70, 87
1, 189110, Note_on_c, 9, 60, 78
1, 189110, Note_on_c, 9, 51, 76
1, 189110, Note_on_c, 7, 61, 59
1, 189110, Note_on_c, 10, 61, 76
1, 189111, Note_on_c, 4, 56, 105
1, 189111, Note_on_c, 8, 44, 105
1, 189193, Lyric_t, "."
1, 189328, Note_off_c, 9, 70, 0
1, 189346, Note_off_c, 9, 60, 0
1, 189350, Note_off_c, 9, 36, 0
1, 189363, Note_off_c, 9, 51, 0
1, 189422, Note_off_c, 0, 32, 0
1, 189481, Lyric_t, "."
1, 189590, Note_on_c, 0, 25, 76
1, 189590, Note_on_c, 9, 70, 74
1, 189590, Note_on_c, 9, 51, 90
1, 189743, Lyric_t, "."
1, 189757, Note_off_c, 3, 49, 0
1, 189757, Note_off_c, 7, 49, 0
1, 189758, Note_off_c, 9, 70, 0
1, 189830, Note_off_c, 9, 51, 0
1, 189902, Note_off_c, 4, 56, 0
1, 189902, Note_off_c, 8, 44, 0
1, 189909, Note_off_c, 3, 53, 0
1, 189909, Note_off_c, 7, 53, 0
1, 189981, Note_off_c, 5, 56, 0
1, 189981, Note_off_c, 10, 56, 0
1, 190070, Note_on_c, 3, 49, 68
1, 190070, Note_on_c, 5, 56, 66
1, 190070, Note_on_c, 9, 70, 78
1, 190070, Note_on_c, 9, 62, 84
1, 190070, Note_on_c, 9, 51, 74
1, 190070, Note_on_c, 7, 49, 68
1, 190070, Note_on_c, 10, 56, 66
1, 190241, Note_off_c, 9, 70, 0
1, 190268, Note_off_c, 5, 61, 0
1, 190268, Note_off_c, 10, 61, 0
1, 190290, Note_off_c, 9, 51, 0
1, 190358, Note_off_c, 9, 62, 0
1, 190531, Lyric_t, ".!"
1, 190550, Note_on_c, 3, 53, 68
1, 190550, Note_on_c, 9, 38, 99
1, 190550, Note_on_c, 9, 82, 87
1, 190550, Note_on_c, 9, 70, 93
1, 190550, Note_on_c, 9, 51, 99
1, 190550, Note_on_c, 7, 53, 68
1, 190681, Note_off_c, 0, 25, 0
1, 190724, Note_off_c, 3, 56, 0
1, 190724, Note_off_c, 7, 56, 0
1, 190725, Note_off_c, 9, 82, 0
1, 190766, Note_off_c, 9, 70, 0
1, 190790, Note_off_c, 9, 38, 0
1, 190790, Note_off_c, 9, 51, 0
1, 190826, Note_off_c, 5, 68, 0
1, 190826, Note_off_c, 10, 68, 0
1, 190839, Note_off_c, 5, 65, 0
1, 190839, Note_off_c, 10, 65, 0
1, 190981, Note_off_c, 3, 61, 0
1, 190981, Note_off_c, 7, 61, 0
1, 191030, Note_on_c, 0, 25, 76
1, 191030, Note_on_c, 3, 56, 76
1, 191030, Note_on_c, 5, 61, 87
1, 191030, Note_on_c, 9, 36, 84
1, 191030, Note_on_c, 9, 70, 80
1, 191030, Note_on_c, 9, 60, 74
1, 191030, Note_on_c, 9, 51, 80
1, 191030, Note_on_c, 7, 56, 76
1, 191030, Note_on_c, 10, 61, 87
1, 191240, Note_off_c, 9, 70, 0
1, 191263, Note_off_c, 9, 51, 0
1, 191270, Note_off_c, 9, 36, 0
1, 191294, Note_off_c, 9, 60, 0
1, 191510, Note_on_c, 9, 36, 87
1, 191510, Note_on_c, 9, 70, 87
1, 191510, Note_on_c, 9, 51, 87
1, 191735, Note_off_c, 9, 70, 0
1, 191750, Note_off_c, 9, 36, 0
1, 191784, Note_off_c, 9, 51, 0
1, 191926, Note_off_c, 0, 25, 0
1, 191990, Note_on_c, 0, 25, 105
1, 191990, Note_on_c, 3, 63, 68
1, 191990, Note_on_c, 5, 63, 72
1, 191990, Note_on_c, 9, 70, 78
1, 191990, Note_on_c, 9, 61, 78
1, 191990, Note_on_c, 9, 51, 80
1, 191990, Note_on_c, 9, 42, 72
1, 191990, Note_on_c, 7, 63, 68
1, 191990, Note_on_c, 10, 63, 72
1, 192072, Note_off_c, 9, 42, 0
1, 192090, Note_off_c, 5, 61, 0
1, 192090, Note_off_c, 10, 61, 0
1, 192195, Note_off_c, 9, 70, 0
1, 192224, Note_off_c, 0, 25, 0
1, 192228, Note_off_c, 9, 51, 0
1, 192230, Note_off_c, 9, 61, 0
1, 192230, Note_on_c, 9, 42, 84
1, 192362, Note_off_c, 9, 42, 0
1, 192419, Note_off_c, 3, 56, 0
1, 192419, Note_off_c, 7, 56, 0
1, 192470, Note_on_c, 0, 32, 82
1, 192470, Note_on_c, 3, 61, 59
1, 192470, Note_on_c, 9, 38, 93
1, 192470, Note_on_c, 9, 70, 93
1, 192470, Note_on_c, 9, 51, 99
1, 192470, Note_on_c, 9, 42, 90
1, 192470, Note_on_c, 7, 61, 59
1, 192471, Note_on_c, 2, 73, 102
1, 192650, Lyric_t, "\\Si"
1, 192669, Note_off_c, 9, 42, 0
1, 192684, Note_off_c, 9, 70, 0
1, 192689, Note_off_c, 2, 73, 0
1, 192690, Note_off_c, 5, 56, 0
1, 192690, Note_off_c, 10, 56, 0
1, 192709, Note_off_c, 5, 63, 0
1, 192709, Note_off_c, 10, 63, 0
1, 192710, Note_off_c, 9, 38, 0
1, 192710, Note_off_c, 9, 51, 0
1, 192770, Note_off_c, 3, 63, 0
1, 192770, Note_off_c, 7, 63, 0
1, 192950, Note_on_c, 2, 73, 105
1, 192950, Note_on_c, 3, 56, 58
1, 192950, Note_on_c, 9, 82, 74
1, 192950, Note_on_c, 9, 70, 99
1, 192950, Note_on_c, 9, 62, 96
1, 192950, Note_on_c, 9, 51, 76
1, 192950, Note_on_c, 9, 46, 108
1, 192950, Note_on_c, 7, 56, 58
1, 192958, Note_off_c, 3, 49, 0
1, 192958, Note_off_c, 7, 49, 0
1, 192976, Note_off_c, 3, 53, 0
1, 192976, Note_off_c, 7, 53, 0
1, 192993, Note_off_c, 0, 32, 0
1, 193077, Note_off_c, 9, 46, 0
1, 193078, Lyric_t, " la"
1, 193133, Note_off_c, 9, 82, 0
1, 193147, Note_off_c, 9, 70, 0
1, 193159, Note_off_c, 3, 61, 0
1, 193159, Note_off_c, 7, 61, 0
1, 193166, Note_off_c, 9, 51, 0
1, 193170, Note_off_c, 3, 56, 0
1, 193170, Note_off_c, 7, 56, 0
1, 193171, Note_off_c, 2, 73, 0
1, 193230, Note_off_c, 9, 62, 0
1, 193425, Note_on_c, 2, 73, 102
1, 193430, Note_on_c, 3, 61, 78
1, 193430, Note_on_c, 9, 36, 96
1, 193430, Note_on_c, 9, 42, 105
1, 193430, Note_on_c, 9, 70, 90
1, 193430, Note_on_c, 9, 60, 111
1, 193430, Note_on_c, 7, 61, 78
1, 193516, Note_on_c, 0, 27, 99
1, 193569, Lyric_t, " lu"
1, 193622, Note_off_c, 9, 42, 0
1, 193643, Note_off_c, 9, 70, 0
1, 193646, Note_off_c, 9, 60, 0
1, 193670, Note_off_c, 9, 36, 0
1, 193900, Note_off_c, 2, 73, 0
1, 193910, Note_on_c, 3, 51, 51
1, 193910, Note_on_c, 9, 42, 59
1, 193910, Note_on_c, 9, 70, 78
1, 193910, Note_on_c, 9, 61, 82
1, 193910, Note_on_c, 7, 51, 51
1, 193953, Note_on_c, 2, 66, 90
1, 194014, Note_off_c, 9, 61, 0
1, 194046, Note_off_c, 9, 42, 0
1, 194105, Note_off_c, 9, 70, 0
1, 194223, Lyric_t, "na"
1, 194274, Note_off_c, 2, 66, 0
1, 194385, Note_on_c, 2, 75, 99
1, 194390, Note_on_c, 3, 54, 48
1, 194390, Note_on_c, 9, 37, 105
1, 194390, Note_on_c, 9, 42, 105
1, 194390, Note_on_c, 9, 70, 90
1, 194390, Note_on_c, 9, 82, 82
1, 194390, Note_on_c, 7, 54, 48
1, 194486, Note_off_c, 0, 27, 0
1, 194539, Note_off_c, 9, 82, 0
1, 194564, Lyric_t, " se"
1, 194587, Note_off_c, 9, 70, 0
1, 194619, Note_off_c, 9, 42, 0
1, 194664, Note_off_c, 9, 37, 0
1, 194838, Note_on_c, 0, 27, 74
1, 194870, Note_off_c, 3, 61, 0
1, 194870, Note_off_c, 7, 61, 0
1, 194870, Note_on_c, 3, 63, 59
1, 194870, Note_on_c, 9, 36, 99
1, 194870, Note_on_c, 9, 42, 80
1, 194870, Note_on_c, 9, 70, 99
1, 194870, Note_on_c, 9, 62, 90
1, 194870, Note_on_c, 7, 63, 59
1, 194889, Note_off_c, 2, 75, 0
1, 194889, Note_on_c, 2, 73, 90
1, 195041, Note_off_c, 9, 42, 0
1, 195058, Lyric_t, "ri"
1, 195069, Note_off_c, 9, 62, 0
1, 195097, Note_off_c, 0, 27, 0
1, 195097, Note_off_c, 9, 70, 0
1, 195116, Note_off_c, 9, 36, 0
1, 195350, Note_on_c, 9, 36, 93
1, 195350, Note_on_c, 9, 42, 102
1, 195350, Note_on_c, 9, 70, 76
1, 195389, Note_on_c, 0, 34, 76
1, 195538, Note_off_c, 9, 70, 0
1, 195577, Note_off_c, 9, 42, 0
1, 195590, Note_off_c, 9, 36, 0
1, 195762, Note_off_c, 2, 73, 0
1, 195796, Note_on_c, 2, 66, 76
1, 195830, Note_on_c, 3, 61, 70
1, 195830, Note_on_c, 9, 42, 70
1, 195830, Note_on_c, 9, 70, 64
1, 195830, Note_on_c, 9, 60, 93
1, 195830, Note_on_c, 7, 61, 70
1, 195909, Note_off_c, 3, 54, 0
1, 195909, Note_off_c, 7, 54, 0
1, 195995, Lyric_t, "a"
1, 195996, Note_off_c, 9, 70, 0
1, 195999, Note_off_c, 9, 42, 0
1, 196035, Note_off_c, 9, 60, 0
1, 196298, Note_off_c, 2, 66, 0
1, 196300, Note_on_c, 2, 75, 87
1, 196310, Note_on_c, 3, 54, 66
1, 196310, Note_on_c, 9, 37, 99
1, 196310, Note_on_c, 9, 42, 105
1, 196310, Note_on_c, 9, 70, 102
1, 196310, Note_on_c, 7, 54, 66
1, 196464, Note_off_c, 0, 34, 0
1, 196471, Lyric_t, " tu"
1, 196531, Note_off_c, 3, 63, 0
1, 196531, Note_off_c, 7, 63, 0
1, 196541, Note_off_c, 9, 42, 0
1, 196541, Note_off_c, 9, 70, 0
1, 196621, Note_off_c, 9, 37, 0
1, 196671, Note_off_c, 3, 61, 0
1, 196671, Note_off_c, 7, 61, 0
1, 196770, Note_off_c, 2, 75, 0
1, 196790, Note_on_c, 2, 73, 93
1, 196790, Note_on_c, 3, 61, 64
1, 196790, Note_on_c, 9, 36, 102
1, 196790, Note_on_c, 9, 42, 93
1, 196790, Note_on_c, 9, 82, 74
1, 196790, Note_on_c, 9, 70, 102
1, 196790, Note_on_c, 9, 61, 87
1, 196790, Note_on_c, 7, 61, 64
1, 196803, Note_on_c, 0, 34, 64
1, 196912, Lyric_t, " pre"
1, 196959, Note_off_c, 9, 82, 0
1, 196963, Note_off_c, 0, 34, 0
1, 196995, Note_off_c, 9, 61, 0
1, 197023, Note_off_c, 9, 42, 0
1, 197030, Note_off_c, 9, 36, 0
1, 197058, Note_off_c, 9, 70, 0
1, 197270, Note_on_c, 9, 42, 66
1, 197270, Note_on_c, 9, 70, 76
1, 197309, Note_on_c, 0, 27, 82
1, 197445, Note_off_c, 9, 70, 0
1, 197449, Note_off_c, 9, 42, 0
1, 197562, Note_off_c, 2, 73, 0
1, 197711, Note_on_c, 2, 73, 102
1, 197729, Lyric_t, "mi"
1, 197750, Note_on_c, 9, 42, 87
1, 197750, Note_on_c, 9, 70, 74
1, 197750, Note_on_c, 9, 62, 93
1, 197946, Note_off_c, 9, 70, 0
1, 197979, Note_off_c, 9, 42, 0
1, 197986, Note_off_c, 9, 62, 0
1, 198095, Note_off_c, 2, 73, 0
1, 198230, Note_on_c, 3, 56, 62
1, 198230, Note_on_c, 9, 37, 99
1, 198230, Note_on_c, 9, 42, 99
1, 198230, Note_on_c, 9, 70, 93
1, 198230, Note_on_c, 7, 56, 62
1, 198294, Note_off_c, 0, 27, 0
1, 198397, Note_off_c, 3, 61, 0
1, 198397, Note_off_c, 7, 61, 0
1, 198455, Note_off_c, 9, 42, 0
1, 198456, Note_off_c, 9, 70, 0
1, 198500, Note_off_c, 9, 37, 0
1, 198601, Lyric_t, "o"
1, 198710, Note_on_c, 3, 61, 74
1, 198710, Note_on_c, 9, 36, 102
1, 198710, Note_on_c, 9, 42, 82
1, 198710, Note_on_c, 9, 70, 78
1, 198710, Note_on_c, 9, 62, 99
1, 198710, Note_on_c, 7, 61, 74
1, 198711, Note_on_c, 0, 27, 99
1, 198889, Note_off_c, 9, 70, 0
1, 198890, Note_off_c, 0, 27, 0
1, 198900, Note_off_c, 9, 42, 0
1, 198950, Note_off_c, 9, 36, 0
1, 198975, Note_off_c, 9, 62, 0
1, 199113, Note_on_c, 2, 73, 105
1, 199182, Note_on_c, 0, 34, 84
1, 199190, Note_on_c, 9, 36, 93
1, 199190, Note_on_c, 9, 42, 84
1, 199190, Note_on_c, 9, 70, 93
1, 199310, Lyric_t, "\\Yo"
1, 199329, Note_off_c, 3, 54, 0
1, 199329, Note_off_c, 7, 54, 0
1, 199399, Note_off_c, 9, 42, 0
1, 199400, Note_off_c, 9, 70, 0
1, 199430, Note_off_c, 9, 36, 0
1, 199444, Note_off_c, 2, 73, 0
1, 199655, Note_on_c, 2, 73, 108
1, 199670, Note_on_c, 9, 42, 76
1, 199670, Note_on_c, 9, 70, 76
1, 199670, Note_on_c, 9, 61, 78
1, 199803, Lyric_t, " ju"
1, 199826, Note_off_c, 9, 70, 0
1, 199843, Note_off_c, 9, 42, 0
1, 199910, Note_off_c, 9, 61, 0
1, 199958, Note_off_c, 2, 73, 0
1, 199998, Note_off_c, 0, 34, 0
1, 200126, Note_on_c, 0, 27, 74
1, 200147, Note_on_c, 2, 73, 87
1, 200150, Note_on_c, 3, 54, 29
1, 200150, Note_on_c, 9, 37, 105
1, 200150, Note_on_c, 9, 42, 105
1, 200150, Note_on_c, 9, 70, 102
1, 200150, Note_on_c, 9, 82, 78
1, 200150, Note_on_c, 7, 54, 29
1, 200306, Note_off_c, 3, 56, 0
1, 200306, Note_off_c, 7, 56, 0
1, 200314, Note_off_c, 9, 70, 0
1, 200314, Note_off_c, 9, 82, 0
1, 200315, Lyric_t, "ra"
1, 200390, Note_off_c, 9, 37, 0
1, 200390, Note_off_c, 9, 42, 0
1, 200457, Note_off_c, 2, 73, 0
1, 200499, Note_off_c, 0, 27, 0
1, 200607, Note_on_c, 0, 29, 72
1, 200630, Note_on_c, 9, 42, 76
1, 200630, Note_on_c, 9, 82, 87
1, 200630, Note_on_c, 9, 70, 82
1, 200630, Note_on_c, 9, 61, 76
1, 200646, Note_on_c, 2, 73, 93
1, 200713, Note_off_c, 3, 61, 0
1, 200713, Note_off_c, 7, 61, 0
1, 200777, Lyric_t, "ri"
1, 200799, Note_off_c, 9, 42, 0
1, 200814, Note_off_c, 9, 82, 0
1, 200822, Note_off_c, 9, 70, 0
1, 200883, Note_off_c, 9, 61, 0
1, 200923, Note_off_c, 0, 29, 0
1, 201110, Note_on_c, 0, 30, 76
1, 201110, Note_on_c, 3, 61, 76
1, 201110, Note_on_c, 9, 36, 96
1, 201110, Note_on_c, 9, 42, 99
1, 201110, Note_on_c, 9, 70, 93
1, 201110, Note_on_c, 9, 60, 82
1, 201110, Note_on_c, 7, 61, 76
1, 201222, Note_off_c, 3, 54, 0
1, 201222, Note_off_c, 7, 54, 0
1, 201297, Note_off_c, 3, 51, 0
1, 201297, Note_off_c, 7, 51, 0
1, 201305, Note_off_c, 9, 60, 0
1, 201344, Note_off_c, 9, 70, 0
1, 201345, Note_off_c, 9, 42, 0
1, 201350, Note_off_c, 9, 36, 0
1, 201578, Note_off_c, 2, 73, 0
1, 201590, Note_on_c, 2, 66, 74
1, 201590, Note_on_c, 3, 54, 59
1, 201590, Note_on_c, 9, 42, 72
1, 201590, Note_on_c, 9, 70, 76
1, 201590, Note_on_c, 9, 61, 72
1, 201590, Note_on_c, 7, 54, 59
1, 201755, Note_off_c, 9, 42, 0
1, 201756, Note_off_c, 9, 70, 0
1, 201801, Lyric_t, "a"
1, 201944, Note_off_c, 9, 61, 0
1, 201993, Note_off_c, 2, 66, 0
1, 202050, Note_on_c, 2, 75, 93
1, 202070, Note_on_c, 3, 58, 48
1, 202070, Note_on_c, 9, 37, 105
1, 202070, Note_on_c, 9, 42, 105
1, 202070, Note_on_c, 9, 70, 102
1, 202070, Note_on_c, 7, 58, 48
1, 202119, Note_off_c, 0, 30, 0
1, 202237, Lyric_t, " ha"
1, 202282, Note_off_c, 9, 42, 0
1, 202297, Note_off_c, 9, 70, 0
1, 202344, Note_off_c, 9, 37, 0
1, 202502, Note_off_c, 2, 75, 0
1, 202545, Note_on_c, 0, 30, 82
1, 202550, Note_on_c, 3, 63, 62
1, 202550, Note_on_c, 9, 36, 99
1, 202550, Note_on_c, 9, 42, 87
1, 202550, Note_on_c, 9, 70, 93
1, 202550, Note_on_c, 9, 62, 82
1, 202550, Note_on_c, 7, 63, 62
1, 202564, Note_on_c, 2, 73, 105
1, 202740, Note_off_c, 9, 42, 0
1, 202749, Note_off_c, 9, 70, 0
1, 202790, Note_off_c, 9, 62, 0
1, 202796, Note_off_c, 9, 36, 0
1, 202802, Note_off_c, 0, 30, 0
1, 203030, Note_on_c, 9, 36, 93
1, 203030, Note_on_c, 9, 42, 93
1, 203030, Note_on_c, 9, 70, 82
1, 203048, Note_on_c, 0, 25, 82
1, 203144, Lyric_t, "cer"
1, 203253, Note_off_c, 9, 70, 0
1, 203259, Note_off_c, 9, 42, 0
1, 203270, Note_off_c, 9, 36, 0
1, 203309, Note_off_c, 3, 54, 0
1, 203309, Note_off_c, 7, 54, 0
1, 203462, Note_off_c, 2, 73, 0
1, 203510, Note_on_c, 3, 54, 66
1, 203510, Note_on_c, 9, 42, 80
1, 203510, Note_on_c, 9, 70, 72
1, 203510, Note_on_c, 9, 62, 99
1, 203510, Note_on_c, 7, 54, 66
1, 203524, Note_on_c, 2, 66, 82
1, 203636, Note_off_c, 3, 58, 0
1, 203636, Note_off_c, 7, 58, 0
1, 203657, Note_off_c, 9, 42, 0
1, 203661, Lyric_t, "\\Cu"
1, 203672, Note_off_c, 9, 70, 0
1, 203851, Note_off_c, 9, 62, 0
1, 203944, Note_off_c, 2, 66, 0
1, 203965, Note_off_c, 3, 63, 0
1, 203965, Note_off_c, 7, 63, 0
1, 203969, Lyric_t, "al"
1, 203978, Note_on_c, 2, 75, 87
1, 203990, Note_on_c, 3, 56, 58
1, 203990, Note_on_c, 9, 37, 99
1, 203990, Note_on_c, 9, 42, 102
1, 203990, Note_on_c, 9, 70, 99
1, 203990, Note_on_c, 9, 82, 84
1, 203990, Note_on_c, 7, 56, 58
1, 204049, Note_off_c, 3, 61, 0
1, 204049, Note_off_c, 7, 61, 0
1, 204117, Note_off_c, 0, 25, 0
1, 204154, Note_off_c, 9, 82, 0
1, 204185, Note_off_c, 9, 42, 0
1, 204203, Lyric_t, "qui"
1, 204204, Note_off_c, 9, 70, 0
1, 204301, Note_off_c, 9, 37, 0
1, 204419, Note_off_c, 2, 75, 0
1, 204461, Note_on_c, 0, 25, 82
1, 204470, Note_on_c, 3, 61, 62
1, 204470, Note_on_c, 9, 36, 102
1, 204470, Note_on_c, 9, 42, 108
1, 204470, Note_on_c, 9, 70, 87
1, 204470, Note_on_c, 9, 60, 78
1, 204470, Note_on_c, 7, 61, 62
1, 204503, Note_on_c, 2, 73, 114
1, 204508, Lyric_t, "er"
1, 204668, Note_off_c, 0, 25, 0
1, 204688, Note_off_c, 9, 70, 0
1, 204706, Note_off_c, 9, 42, 0
1, 204706, Note_off_c, 9, 60, 0
1, 204710, Note_off_c, 9, 36, 0
1, 204894, Lyric_t, " co"
1, 204950, Note_on_c, 9, 42, 66
1, 204950, Note_on_c, 9, 70, 74
1, 204962, Note_on_c, 0, 30, 82
1, 205118, Note_off_c, 9, 70, 0
1, 205134, Note_off_c, 9, 42, 0
1, 205161, Note_off_c, 2, 73, 0
1, 205353, Note_off_c, 3, 54, 0
1, 205353, Note_off_c, 7, 54, 0
1, 205396, Note_on_c, 2, 73, 108
1, 205430, Note_on_c, 3, 54, 54
1, 205430, Note_on_c, 9, 42, 76
1, 205430, Note_on_c, 9, 70, 78
1, 205430, Note_on_c, 9, 62, 84
1, 205430, Note_on_c, 7, 54, 54
1, 205495, Lyric_t, "s"
1, 205560, Note_off_c, 3, 56, 0
1, 205560, Note_off_c, 7, 56, 0
1, 205601, Note_off_c, 9, 70, 0
1, 205639, Note_off_c, 9, 42, 0
1, 205718, Note_off_c, 9, 62, 0
1, 205859, Note_off_c, 2, 73, 0
1, 205910, Note_on_c, 3, 56, 59
1, 205910, Note_on_c, 9, 37, 99
1, 205910, Note_on_c, 9, 42, 93
1, 205910, Note_on_c, 9, 82, 87
1, 205910, Note_on_c, 9, 70, 93
1, 205910, Note_on_c, 7, 56, 59
1, 206071, Note_off_c, 3, 61, 0
1, 206071, Note_off_c, 7, 61, 0
1, 206085, Note_off_c, 0, 30, 0
1, 206085, Note_off_c, 9, 82, 0
1, 206126, Note_off_c, 9, 42, 0
1, 206126, Note_off_c, 9, 70, 0
1, 206180, Note_off_c, 9, 37, 0
1, 206356, Lyric_t, "a"
1, 206390, Note_on_c, 3, 61, 66
1, 206390, Note_on_c, 9, 36, 102
1, 206390, Note_on_c, 9, 42, 87
1, 206390, Note_on_c, 9, 70, 80
1, 206390, Note_on_c, 9, 60, 74
1, 206390, Note_on_c, 7, 61, 66
1, 206405, Note_on_c, 0, 30, 80
1, 206585, Note_off_c, 9, 42, 0
1, 206600, Note_off_c, 9, 70, 0
1, 206630, Note_off_c, 9, 36, 0
1, 206630, Note_off_c, 9, 60, 0
1, 206631, Note_off_c, 0, 30, 0
1, 206841, Note_on_c, 2, 66, 108
1, 206870, Note_on_c, 9, 36, 93
1, 206870, Note_on_c, 9, 42, 84
1, 206870, Note_on_c, 9, 70, 87
1, 206884, Note_on_c, 0, 25, 76
1, 207049, Note_off_c, 9, 42, 0
1, 207064, Lyric_t, "\\Por"
1, 207095, Note_off_c, 9, 70, 0
1, 207110, Note_off_c, 9, 36, 0
1, 207150, Note_off_c, 2, 66, 0
1, 207350, Note_on_c, 9, 42, 78
1, 207350, Note_on_c, 9, 70, 78
1, 207350, Note_on_c, 9, 61, 78
1, 207386, Note_on_c, 2, 68, 90
1, 207390, Note_on_c, 2, 66, 114
1, 207448, Note_off_c, 3, 56, 0
1, 207448, Note_off_c, 7, 56, 0
1, 207453, Note_off_c, 2, 68, 0
1, 207506, Note_off_c, 9, 42, 0
1, 207555, Note_off_c, 9, 70, 0
1, 207589, Lyric_t, " ser"
1, 207590, Note_off_c, 0, 25, 0
1, 207717, Note_off_c, 9, 61, 0
1, 207760, Note_off_c, 2, 66, 0
1, 207789, Note_off_c, 3, 61, 0
1, 207789, Note_off_c, 7, 61, 0
1, 207830, Note_on_c, 3, 56, 68
1, 207830, Note_on_c, 9, 37, 105
1, 207830, Note_on_c, 9, 42, 105
1, 207830, Note_on_c, 9, 70, 93
1, 207830, Note_on_c, 7, 56, 68
1, 207858, Note_on_c, 0, 25, 117
1, 207870, Note_on_c, 2, 66, 80
1, 208020, Note_off_c, 9, 42, 0
1, 208044, Note_off_c, 9, 70, 0
1, 208070, Note_off_c, 9, 37, 0
1, 208082, Lyric_t, " tu"
1, 208185, Note_off_c, 2, 66, 0
1, 208260, Note_off_c, 0, 25, 0
1, 208310, Note_on_c, 3, 61, 72
1, 208310, Note_on_c, 9, 46, 102
1, 208310, Note_on_c, 9, 82, 74
1, 208310, Note_on_c, 9, 70, 99
1, 208310, Note_on_c, 9, 62, 96
1, 208310, Note_on_c, 7, 61, 72
1, 208326, Note_on_c, 2, 66, 93
1, 208443, Lyric_t, " du"
1, 208493, Note_off_c, 3, 54, 0
1, 208493, Note_off_c, 7, 54, 0
1, 208493, Note_off_c, 9, 82, 0
1, 208507, Note_off_c, 9, 70, 0
1, 208550, Note_off_c, 9, 62, 0
1, 208567, Note_off_c, 9, 46, 0
1, 208720, Lyric_t, "e"
1, 208790, Note_on_c, 3, 49, 48
1, 208790, Note_on_c, 5, 65, 87
1, 208790, Note_on_c, 9, 36, 96
1, 208790, Note_on_c, 9, 42, 105
1, 208790, Note_on_c, 9, 70, 90
1, 208790, Note_on_c, 9, 60, 111
1, 208790, Note_on_c, 7, 49, 48
1, 208790, Note_on_c, 10, 65, 87
1, 208817, Note_on_c, 0, 25, 93
1, 208982, Note_off_c, 9, 42, 0
1, 209003, Note_off_c, 9, 70, 0
1, 209006, Note_off_c, 9, 60, 0
1, 209030, Note_off_c, 9, 36, 0
1, 209115, Note_off_c, 3, 56, 0
1, 209115, Note_off_c, 7, 56, 0
1, 209250, Note_off_c, 2, 66, 0
1, 209270, Note_on_c, 3, 53, 25
1, 209270, Note_on_c, 5, 68, 76
1, 209270, Note_on_c, 9, 42, 59
1, 209270, Note_on_c, 9, 70, 78
1, 209270, Note_on_c, 9, 61, 82
1, 209270, Note_on_c, 7, 53, 25
1, 209270, Note_on_c, 10, 68, 76
1, 209286, Note_on_c, 2, 65, 74
1, 209374, Note_off_c, 9, 61, 0
1, 209406, Note_off_c, 9, 42, 0
1, 209409, Lyric_t, "ñ"
1, 209465, Note_off_c, 9, 70, 0
1, 209608, Lyric_t, "o"
1, 209629, Note_off_c, 3, 61, 0
1, 209629, Note_off_c, 7, 61, 0
1, 209742, Note_off_c, 5, 65, 0
1, 209742, Note_off_c, 10, 65, 0
1, 209750, Note_on_c, 3, 56, 58
1, 209750, Note_on_c, 5, 65, 80
1, 209750, Note_on_c, 9, 37, 105
1, 209750, Note_on_c, 9, 42, 105
1, 209750, Note_on_c, 9, 70, 90
1, 209750, Note_on_c, 9, 82, 82
1, 209750, Note_on_c, 7, 56, 58
1, 209750, Note_on_c, 10, 65, 80
1, 209874, Lyric_t, "."
1, 209899, Note_off_c, 9, 82, 0
1, 209919, Note_off_c, 0, 25, 0
1, 209947, Note_off_c, 9, 70, 0
1, 209979, Note_off_c, 9, 42, 0
1, 210024, Note_off_c, 9, 37, 0
1, 210042, Note_off_c, 2, 65, 0
1, 210230, Note_on_c, 3, 61, 62
1, 210230, Note_on_c, 5, 63, 82
1, 210230, Note_on_c, 9, 36, 99
1, 210230, Note_on_c, 9, 42, 80
1, 210230, Note_on_c, 9, 70, 99
1, 210230, Note_on_c, 9, 62, 90
1, 210230, Note_on_c, 7, 61, 62
1, 210230, Note_on_c, 10, 63, 82
1, 210247, Note_on_c, 0, 25, 102
1, 210401, Note_off_c, 9, 42, 0
1, 210405, Note_off_c, 0, 25, 0
1, 210429, Note_off_c, 9, 62, 0
1, 210457, Note_off_c, 9, 70, 0
1, 210476, Note_off_c, 9, 36, 0
1, 210491, Note_off_c, 5, 65, 0
1, 210491, Note_off_c, 10, 65, 0
1, 210691, Note_off_c, 5, 68, 0
1, 210691, Note_off_c, 10, 68, 0
1, 210710, Note_on_c, 9, 36, 93
1, 210710, Note_on_c, 9, 42, 102
1, 210710, Note_on_c, 9, 70, 76
1, 210734, Note_off_c, 3, 49, 0
1, 210734, Note_off_c, 7, 49, 0
1, 210755, Note_on_c, 0, 32, 78
1, 210817, Note_off_c, 3, 53, 0
1, 210817, Note_off_c, 7, 53, 0
1, 210898, Note_off_c, 9, 70, 0
1, 210937, Note_off_c, 9, 42, 0
1, 210950, Note_off_c, 9, 36, 0
1, 211052, Lyric_t, "."
1, 211190, Note_on_c, 3, 49, 59
1, 211190, Note_on_c, 5, 68, 72
1, 211190, Note_on_c, 9, 42, 70
1, 211190, Note_on_c, 9, 70, 64
1, 211190, Note_on_c, 9, 60, 93
1, 211190, Note_on_c, 7, 49, 59
1, 211190, Note_on_c, 10, 68, 72
1, 211356, Note_off_c, 9, 70, 0
1, 211359, Note_off_c, 9, 42, 0
1, 211395, Note_off_c, 9, 60, 0
1, 211479, Note_off_c, 5, 63, 0
1, 211479, Note_off_c, 10, 63, 0
1, 211670, Note_on_c, 3, 53, 66
1, 211670, Note_on_c, 5, 63, 76
1, 211670, Note_on_c, 9, 37, 99
1, 211670, Note_on_c, 9, 42, 105
1, 211670, Note_on_c, 9, 70, 102
1, 211670, Note_on_c, 7, 53, 66
1, 211670, Note_on_c, 10, 63, 76
1, 211733, Note_off_c, 3, 56, 0
1, 211733, Note_off_c, 7, 56, 0
1, 211783, Note_off_c, 0, 32, 0
1, 211901, Note_off_c, 9, 42, 0
1, 211901, Note_off_c, 9, 70, 0
1, 211981, Note_off_c, 9, 37, 0
1, 212092, Note_off_c, 3, 61, 0
1, 212092, Note_off_c, 7, 61, 0
1, 212122, Note_off_c, 5, 63, 0
1, 212122, Note_off_c, 10, 63, 0
1, 212150, Note_on_c, 3, 63, 55
1, 212150, Note_on_c, 5, 61, 74
1, 212150, Note_on_c, 9, 36, 102
1, 212150, Note_on_c, 9, 42, 93
1, 212150, Note_on_c, 9, 82, 74
1, 212150, Note_on_c, 9, 70, 102
1, 212150, Note_on_c, 9, 61, 87
1, 212150, Note_on_c, 7, 63, 55
1, 212150, Note_on_c, 10, 61, 74
1, 212170, Note_on_c, 0, 32, 76
1, 212319, Note_off_c, 9, 82, 0
1, 212355, Note_off_c, 9, 61, 0
1, 212383, Note_off_c, 9, 42, 0
1, 212390, Note_off_c, 9, 36, 0
1, 212418, Note_off_c, 9, 70, 0
1, 212513, Note_off_c, 0, 32, 0
1, 212630, Note_on_c, 9, 42, 66
1, 212630, Note_on_c, 9, 70, 76
1, 212666, Note_on_c, 0, 25, 76
1, 212805, Note_off_c, 9, 70, 0
1, 212809, Note_off_c, 9, 42, 0
1, 212812, Note_off_c, 5, 68, 0
1, 212812, Note_off_c, 10, 68, 0
1, 213110, Note_on_c, 3, 56, 70
1, 213110, Note_on_c, 5, 68, 70
1, 213110, Note_on_c, 9, 42, 87
1, 213110, Note_on_c, 9, 70, 74
1, 213110, Note_on_c, 9, 62, 93
1, 213110, Note_on_c, 7, 56, 70
1, 213110, Note_on_c, 10, 68, 70
1, 213120, Note_off_c, 3, 53, 0
1, 213120, Note_off_c, 7, 53, 0
1, 213306, Note_off_c, 9, 70, 0
1, 213339, Note_off_c, 9, 42, 0
1, 213346, Note_off_c, 9, 62, 0
1, 213590, Note_on_c, 3, 53, 58
1, 213590, Note_on_c, 9, 37, 99
1, 213590, Note_on_c, 9, 42, 99
1, 213590, Note_on_c, 9, 70, 93
1, 213590, Note_on_c, 7, 53, 58
1, 213796, Note_off_c, 0, 25, 0
1, 213815, Note_off_c, 9, 42, 0
1, 213816, Note_off_c, 9, 70, 0
1, 213860, Note_off_c, 9, 37, 0
1, 214070, Note_on_c, 3, 61, 76
1, 214070, Note_on_c, 9, 36, 102
1, 214070, Note_on_c, 9, 42, 82
1, 214070, Note_on_c, 9, 70, 78
1, 214070, Note_on_c, 9, 62, 99
1, 214070, Note_on_c, 7, 61, 76
1, 214092, Note_off_c, 3, 63, 0
1, 214092, Note_off_c, 7, 63, 0
1, 214107, Note_on_c, 0, 25, 90
1, 214249, Note_off_c, 9, 70, 0
1, 214260, Note_off_c, 9, 42, 0
1, 214286, Note_off_c, 0, 25, 0
1, 214310, Note_off_c, 9, 36, 0
1, 214335, Note_off_c, 9, 62, 0
1, 214533, Note_on_c, 2, 65, 99
1, 214550, Note_on_c, 9, 36, 93
1, 214550, Note_on_c, 9, 42, 84
1, 214550, Note_on_c, 9, 70, 93
1, 214593, Note_on_c, 0, 32, 87
1, 214748, Lyric_t, "\\Por"
1, 214759, Note_off_c, 9, 42, 0
1, 214760, Note_off_c, 9, 70, 0
1, 214790, Note_off_c, 9, 36, 0
1, 214799, Note_off_c, 3, 53, 0
1, 214799, Note_off_c, 7, 53, 0
1, 215030, Note_on_c, 3, 53, 64
1, 215030, Note_on_c, 9, 42, 76
1, 215030, Note_on_c, 9, 70, 76
1, 215030, Note_on_c, 9, 61, 78
1, 215030, Note_on_c, 7, 53, 64
1, 215186, Note_off_c, 9, 70, 0
1, 215202, Note_on_c, 2, 68, 90
1, 215203, Note_off_c, 9, 42, 0
1, 215210, Note_off_c, 2, 65, 0
1, 215253, Note_off_c, 3, 56, 0
1, 215253, Note_off_c, 7, 56, 0
1, 215270, Note_off_c, 9, 61, 0
1, 215276, Note_off_c, 0, 32, 0
1, 215423, Lyric_t, " ser"
1, 215425, Note_off_c, 3, 61, 0
1, 215425, Note_off_c, 7, 61, 0
1, 215494, Note_on_c, 0, 32, 90
1, 215510, Note_on_c, 3, 56, 70
1, 215510, Note_on_c, 9, 37, 105
1, 215510, Note_on_c, 9, 42, 105
1, 215510, Note_on_c, 9, 70, 102
1, 215510, Note_on_c, 9, 82, 78
1, 215510, Note_on_c, 7, 56, 70
1, 215674, Note_off_c, 9, 70, 0
1, 215674, Note_off_c, 9, 82, 0
1, 215684, Note_off_c, 5, 61, 0
1, 215684, Note_off_c, 10, 61, 0
1, 215750, Note_off_c, 9, 42, 0
1, 215828, Note_off_c, 9, 37, 0
1, 215908, Note_off_c, 2, 68, 0
1, 215944, Note_off_c, 3, 49, 0
1, 215944, Note_off_c, 7, 49, 0
1, 215973, Note_on_c, 2, 65, 99
1, 215980, Note_off_c, 3, 53, 0
1, 215980, Note_off_c, 7, 53, 0
1, 215990, Note_on_c, 9, 42, 76
1, 215990, Note_on_c, 9, 82, 87
1, 215990, Note_on_c, 9, 70, 82
1, 215990, Note_on_c, 9, 61, 76
1, 216155, Lyric_t, " tu"
1, 216159, Note_off_c, 9, 42, 0
1, 216174, Note_off_c, 9, 82, 0
1, 216182, Note_off_c, 9, 70, 0
1, 216230, Note_off_c, 9, 61, 0
1, 216239, Note_off_c, 0, 32, 0
1, 216470, Note_on_c, 3, 51, 72
1, 216470, Note_on_c, 9, 36, 96
1, 216470, Note_on_c, 9, 42, 99
1, 216470, Note_on_c, 9, 70, 93
1, 216470, Note_on_c, 9, 60, 82
1, 216470, Note_on_c, 7, 51, 72
1, 216479, Note_off_c, 2, 65, 0
1, 216494, Note_on_c, 0, 32, 82
1, 216556, Note_off_c, 3, 56, 0
1, 216556, Note_off_c, 7, 56, 0
1, 216665, Note_off_c, 9, 60, 0
1, 216704, Note_off_c, 9, 70, 0
1, 216705, Note_off_c, 9, 42, 0
1, 216710, Note_off_c, 9, 36, 0
1, 216947, Note_on_c, 2, 65, 99
1, 216950, Note_on_c, 3, 56, 58
1, 216950, Note_on_c, 5, 56, 72
1, 216950, Note_on_c, 9, 42, 72
1, 216950, Note_on_c, 9, 70, 76
1, 216950, Note_on_c, 9, 61, 72
1, 216950, Note_on_c, 7, 56, 58
1, 216950, Note_on_c, 10, 56, 72
1, 217115, Note_off_c, 9, 42, 0
1, 217116, Note_off_c, 9, 70, 0
1, 217117, Lyric_t, " du"
1, 217304, Note_off_c, 9, 61, 0
1, 217318, Note_off_c, 5, 68, 0
1, 217318, Note_off_c, 10, 68, 0
1, 217430, Note_on_c, 3, 58, 32
1, 217430, Note_on_c, 5, 58, 64
1, 217430, Note_on_c, 9, 37, 105
1, 217430, Note_on_c, 9, 42, 105
1, 217430, Note_on_c, 9, 70, 102
1, 217430, Note_on_c, 7, 58, 32
1, 217430, Note_on_c, 10, 58, 64
1, 217444, Note_on_c, 2, 63, 99
1, 217480, Note_off_c, 2, 65, 0
1, 217495, Lyric_t, "e"
1, 217533, Note_off_c, 0, 32, 0
1, 217642, Note_off_c, 9, 42, 0
1, 217657, Note_off_c, 9, 70, 0
1, 217704, Note_off_c, 9, 37, 0
1, 217850, Lyric_t, "ñ"
1, 217900, Note_on_c, 0, 32, 82
1, 217910, Note_on_c, 3, 60, 68
1, 217910, Note_on_c, 5, 60, 74
1, 217910, Note_on_c, 9, 36, 99
1, 217910, Note_on_c, 9, 42, 87
1, 217910, Note_on_c, 9, 70, 93
1, 217910, Note_on_c, 9, 62, 82
1, 217910, Note_on_c, 7, 60, 68
1, 217910, Note_on_c, 10, 60, 74
1, 218035, Note_off_c, 3, 58, 0
1, 218035, Note_off_c, 7, 58, 0
1, 218100, Note_off_c, 9, 42, 0
1, 218109, Note_off_c, 9, 70, 0
1, 218112, Note_off_c, 0, 32, 0
1, 218150, Note_off_c, 9, 62, 0
1, 218156, Note_off_c, 9, 36, 0
1, 218383, Lyric_t, "o"
1, 218390, Note_on_c, 9, 36, 93
1, 218390, Note_on_c, 9, 42, 93
1, 218390, Note_on_c, 9, 70, 82
1, 218401, Note_on_c, 0, 27, 87
1, 218404, Note_off_c, 2, 63, 0
1, 218583, Note_off_c, 3, 56, 0
1, 218583, Note_off_c, 7, 56, 0
1, 218613, Note_off_c, 9, 70, 0
1, 218619, Note_off_c, 9, 42, 0
1, 218624, Note_off_c, 3, 51, 0
1, 218624, Note_off_c, 7, 51, 0
1, 218630, Note_off_c, 9, 36, 0
1, 218812, Lyric_t, "."
1, 218870, Note_on_c, 3, 51, 66
1, 218870, Note_on_c, 5, 63, 74
1, 218870, Note_on_c, 9, 42, 80
1, 218870, Note_on_c, 9, 70, 72
1, 218870, Note_on_c, 9, 62, 99
1, 218870, Note_on_c, 7, 51, 66
1, 218870, Note_on_c, 10, 63, 74
1, 219017, Note_off_c, 9, 42, 0
1, 219032, Note_off_c, 9, 70, 0
1, 219211, Note_off_c, 9, 62, 0
1, 219350, Note_on_c, 3, 56, 66
1, 219350, Note_on_c, 9, 37, 99
1, 219350, Note_on_c, 9, 42, 102
1, 219350, Note_on_c, 9, 70, 99
1, 219350, Note_on_c, 9, 82, 84
1, 219350, Note_on_c, 7, 56, 66
1, 219475, Note_off_c, 0, 27, 0
1, 219514, Note_off_c, 9, 82, 0
1, 219545, Note_off_c, 9, 42, 0
1, 219564, Note_off_c, 9, 70, 0
1, 219661, Note_off_c, 9, 37, 0
1, 219829, Note_on_c, 0, 27, 84
1, 219830, Note_on_c, 3, 63, 72
1, 219830, Note_on_c, 9, 36, 102
1, 219830, Note_on_c, 9, 42, 108
1, 219830, Note_on_c, 9, 70, 87
1, 219830, Note_on_c, 9, 60, 78
1, 219830, Note_on_c, 7, 63, 72
1, 219944, Note_off_c, 0, 27, 0
1, 220048, Note_off_c, 9, 70, 0
1, 220066, Note_off_c, 9, 42, 0
1, 220066, Note_off_c, 9, 60, 0
1, 220070, Note_off_c, 9, 36, 0
1, 220194, Lyric_t, "."
1, 220310, Note_on_c, 9, 42, 66
1, 220310, Note_on_c, 9, 70, 74
1, 220345, Note_on_c, 0, 32, 87
1, 220478, Note_off_c, 9, 70, 0
1, 220494, Note_off_c, 9, 42, 0
1, 220602, Note_off_c, 3, 51, 0
1, 220602, Note_off_c, 7, 51, 0
1, 220607, Note_off_c, 3, 56, 0
1, 220607, Note_off_c, 7, 56, 0
1, 220790, Note_on_c, 3, 51, 57
1, 220790, Note_on_c, 5, 68, 72
1, 220790, Note_on_c, 9, 42, 76
1, 220790, Note_on_c, 9, 70, 78
1, 220790, Note_on_c, 9, 62, 84
1, 220790, Note_on_c, 7, 51, 57
1, 220790, Note_on_c, 10, 68, 72
1, 220961, Note_off_c, 9, 70, 0
1, 220999, Note_off_c, 9, 42, 0
1, 221078, Note_off_c, 9, 62, 0
1, 221270, Note_on_c, 3, 56, 62
1, 221270, Note_on_c, 9, 37, 99
1, 221270, Note_on_c, 9, 42, 93
1, 221270, Note_on_c, 9, 82, 87
1, 221270, Note_on_c, 9, 70, 93
1, 221270, Note_on_c, 7, 56, 62
1, 221445, Note_off_c, 9, 82, 0
1, 221449, Note_off_c, 0, 32, 0
1, 221486, Note_off_c, 9, 42, 0
1, 221486, Note_off_c, 9, 70, 0
1, 221540, Note_off_c, 9, 37, 0
1, 221545, Note_off_c, 3, 60, 0
1, 221545, Note_off_c, 7, 60, 0
1, 221707, Note_off_c, 3, 63, 0
1, 221707, Note_off_c, 7, 63, 0
1, 221750, Note_on_c, 3, 58, 66
1, 221750, Note_on_c, 9, 36, 102
1, 221750, Note_on_c, 9, 42, 87
1, 221750, Note_on_c, 9, 70, 80
1, 221750, Note_on_c, 9, 60, 74
1, 221750, Note_on_c, 7, 58, 66
1, 221780, Note_on_c, 0, 32, 99
1, 221945, Note_off_c, 9, 42, 0
1, 221960, Note_off_c, 9, 70, 0
1, 221976, Note_off_c, 0, 32, 0
1, 221990, Note_off_c, 9, 36, 0
1, 222014, Note_off_c, 9, 60, 0
1, 222230, Note_on_c, 9, 36, 93
1, 222230, Note_on_c, 9, 42, 84
1, 222230, Note_on_c, 9, 70, 87
1, 222248, Note_on_c, 0, 27, 76
1, 222409, Note_off_c, 9, 42, 0
1, 222455, Note_off_c, 9, 70, 0
1, 222470, Note_off_c, 9, 36, 0
1, 222484, Note_off_c, 5, 56, 0
1, 222484, Note_off_c, 10, 56, 0
1, 222493, Note_off_c, 5, 58, 0
1, 222493, Note_off_c, 10, 58, 0
1, 222606, Note_off_c, 5, 60, 0
1, 222606, Note_off_c, 10, 60, 0
1, 222656, Note_off_c, 5, 68, 0
1, 222656, Note_off_c, 10, 68, 0
1, 222663, Note_off_c, 5, 63, 0
1, 222663, Note_off_c, 10, 63, 0
1, 222689, Note_off_c, 0, 27, 0
1, 222695, Note_on_c, 0, 30, 84
1, 222710, Note_on_c, 3, 60, 72
1, 222710, Note_on_c, 9, 42, 78
1, 222710, Note_on_c, 9, 70, 78
1, 222710, Note_on_c, 9, 61, 78
1, 222710, Note_on_c, 7, 60, 72
1, 222866, Note_off_c, 9, 42, 0
1, 222869, Note_off_c, 3, 58, 0
1, 222869, Note_off_c, 7, 58, 0
1, 222915, Note_off_c, 9, 70, 0
1, 222950, Note_off_c, 9, 61, 0
1, 223030, Note_off_c, 3, 56, 0
1, 223030, Note_off_c, 7, 56, 0
1, 223117, Note_off_c, 0, 30, 0
1, 223190, Note_on_c, 2, 73, 114
1, 223190, Note_on_c, 3, 56, 72
1, 223190, Note_on_c, 9, 37, 105
1, 223190, Note_on_c, 9, 42, 105
1, 223190, Note_on_c, 9, 70, 93
1, 223190, Note_on_c, 7, 56, 72
1, 223207, Note_on_c, 0, 32, 93
1, 223380, Note_off_c, 9, 42, 0
1, 223394, Lyric_t, "\\Y"
1, 223404, Note_off_c, 9, 70, 0
1, 223508, Note_off_c, 9, 37, 0
1, 223626, Note_on_c, 2, 75, 80
1, 223648, Note_off_c, 0, 32, 0
1, 223670, Note_on_c, 3, 63, 72
1, 223670, Note_on_c, 9, 46, 102
1, 223670, Note_on_c, 9, 82, 74
1, 223670, Note_on_c, 9, 70, 99
1, 223670, Note_on_c, 9, 62, 96
1, 223670, Note_on_c, 7, 63, 72
1, 223682, Note_on_c, 0, 27, 80
1, 223696, Note_off_c, 2, 73, 0
1, 223712, Lyric_t, " si"
1, 223853, Note_off_c, 9, 82, 0
1, 223867, Note_off_c, 9, 70, 0
1, 223887, Note_off_c, 3, 56, 0
1, 223887, Note_off_c, 7, 56, 0
1, 223910, Note_off_c, 9, 62, 0
1, 223927, Note_off_c, 9, 46, 0
1, 223933, Note_off_c, 3, 51, 0
1, 223933, Note_off_c, 7, 51, 0
1, 223967, Lyric_t, " en"
1, 223991, Note_off_c, 2, 75, 0
1, 224019, Note_off_c, 3, 60, 0
1, 224019, Note_off_c, 7, 60, 0
1, 224065, Note_off_c, 3, 63, 0
1, 224065, Note_off_c, 7, 63, 0
1, 224080, Note_on_c, 2, 77, 102
1, 224084, Note_off_c, 0, 27, 0
1, 224150, Note_on_c, 3, 61, 78
1, 224150, Note_on_c, 9, 36, 96
1, 224150, Note_on_c, 9, 42, 105
1, 224150, Note_on_c, 9, 70, 90
1, 224150, Note_on_c, 9, 60, 111
1, 224150, Note_on_c, 7, 61, 78
1, 224236, Note_on_c, 0, 27, 99
1, 224244, Lyric_t, " tus"
1, 224342, Note_off_c, 9, 42, 0
1, 224363, Note_off_c, 9, 70, 0
1, 224366, Note_off_c, 9, 60, 0
1, 224390, Note_off_c, 9, 36, 0
1, 224539, Lyric_t, " su"
1, 224541, Note_off_c, 2, 77, 0
1, 224606, Note_on_c, 2, 75, 105
1, 224630, Note_on_c, 3, 51, 51
1, 224630, Note_on_c, 9, 42, 59
1, 224630, Note_on_c, 9, 70, 78
1, 224630, Note_on_c, 9, 61, 82
1, 224630, Note_on_c, 7, 51, 51
1, 224734, Note_off_c, 9, 61, 0
1, 224766, Note_off_c, 9, 42, 0
1, 224791, Lyric_t, "e"
1, 224825, Note_off_c, 9, 70, 0
1, 224910, Note_off_c, 2, 75, 0
1, 225066, Lyric_t, "ños"
1, 225110, Note_on_c, 3, 54, 48
1, 225110, Note_on_c, 9, 37, 105
1, 225110, Note_on_c, 9, 42, 105
1, 225110, Note_on_c, 9, 70, 90
1, 225110, Note_on_c, 9, 82, 82
1, 225110, Note_on_c, 7, 54, 48
1, 225112, Note_on_c, 2, 73, 93
1, 225206, Note_off_c, 0, 27, 0
1, 225259, Note_off_c, 9, 82, 0
1, 225307, Note_off_c, 9, 70, 0
1, 225339, Note_off_c, 9, 42, 0
1, 225350, Note_off_c, 9, 37, 0
1, 225374, Lyric_t, " es"
1, 225381, Note_off_c, 2, 73, 0
1, 225558, Note_on_c, 0, 27, 74
1, 225590, Note_off_c, 3, 61, 0
1, 225590, Note_off_c, 7, 61, 0
1, 225590, Note_on_c, 3, 63, 59
1, 225590, Note_on_c, 9, 36, 99
1, 225590, Note_on_c, 9, 42, 80
1, 225590, Note_on_c, 9, 70, 99
1, 225590, Note_on_c, 9, 62, 90
1, 225590, Note_on_c, 7, 63, 59
1, 225609, Note_on_c, 2, 73, 105
1, 225749, Lyric_t, "cu"
1, 225761, Note_off_c, 9, 42, 0
1, 225789, Note_off_c, 9, 62, 0
1, 225817, Note_off_c, 0, 27, 0
1, 225817, Note_off_c, 9, 70, 0
1, 225836, Note_off_c, 9, 36, 0
1, 226070, Note_on_c, 9, 36, 93
1, 226070, Note_on_c, 9, 42, 102
1, 226070, Note_on_c, 9, 70, 76
1, 226109, Note_on_c, 0, 34, 76
1, 226258, Note_off_c, 9, 70, 0
1, 226290, Note_off_c, 2, 73, 0
1, 226297, Note_off_c, 9, 42, 0
1, 226310, Note_off_c, 9, 36, 0
1, 226506, Note_on_c, 2, 70, 102
1, 226550, Note_on_c, 3, 61, 70
1, 226550, Note_on_c, 9, 42, 70
1, 226550, Note_on_c, 9, 70, 64
1, 226550, Note_on_c, 9, 60, 93
1, 226550, Note_on_c, 7, 61, 70
1, 226629, Note_off_c, 3, 54, 0
1, 226629, Note_off_c, 7, 54, 0
1, 226668, Lyric_t, "chas"
1, 226716, Note_off_c, 9, 70, 0
1, 226719, Note_off_c, 9, 42, 0
1, 226727, Note_off_c, 2, 70, 0
1, 226755, Note_off_c, 9, 60, 0
1, 227013, Note_on_c, 2, 70, 99
1, 227030, Note_on_c, 3, 54, 66
1, 227030, Note_on_c, 9, 37, 99
1, 227030, Note_on_c, 9, 42, 105
1, 227030, Note_on_c, 9, 70, 102
1, 227030, Note_on_c, 7, 54, 66
1, 227184, Note_off_c, 0, 34, 0
1, 227208, Lyric_t, "\\El"
1, 227214, Note_off_c, 2, 70, 0
1, 227251, Note_off_c, 3, 63, 0
1, 227251, Note_off_c, 7, 63, 0
1, 227261, Note_off_c, 9, 42, 0
1, 227261, Note_off_c, 9, 70, 0
1, 227341, Note_off_c, 9, 37, 0
1, 227391, Note_off_c, 3, 61, 0
1, 227391, Note_off_c, 7, 61, 0
1, 227505, Note_on_c, 2, 70, 93
1, 227510, Note_on_c, 3, 61, 64
1, 227510, Note_on_c, 9, 36, 102
1, 227510, Note_on_c, 9, 42, 93
1, 227510, Note_on_c, 9, 82, 74
1, 227510, Note_on_c, 9, 70, 102
1, 227510, Note_on_c, 9, 61, 87
1, 227510, Note_on_c, 7, 61, 64
1, 227523, Note_on_c, 0, 34, 64
1, 227669, Lyric_t, " llan"
1, 227679, Note_off_c, 9, 82, 0
1, 227683, Note_off_c, 0, 34, 0
1, 227715, Note_off_c, 9, 61, 0
1, 227743, Note_off_c, 9, 42, 0
1, 227750, Note_off_c, 9, 36, 0
1, 227778, Note_off_c, 9, 70, 0
1, 227990, Note_on_c, 9, 42, 66
1, 227990, Note_on_c, 9, 70, 76
1, 228029, Note_on_c, 0, 27, 82
1, 228165, Note_off_c, 9, 70, 0
1, 228169, Note_off_c, 9, 42, 0
1, 228184, Note_off_c, 2, 70, 0
1, 228453, Note_on_c, 2, 68, 105
1, 228470, Note_on_c, 9, 42, 87
1, 228470, Note_on_c, 9, 70, 74
1, 228470, Note_on_c, 9, 62, 93
1, 228531, Lyric_t, "to"
1, 228666, Note_off_c, 9, 70, 0
1, 228699, Note_off_c, 9, 42, 0
1, 228706, Note_off_c, 9, 62, 0
1, 228904, Note_off_c, 2, 68, 0
1, 228950, Note_on_c, 3, 56, 62
1, 228950, Note_on_c, 9, 37, 99
1, 228950, Note_on_c, 9, 42, 99
1, 228950, Note_on_c, 9, 70, 93
1, 228950, Note_on_c, 7, 56, 62
1, 229014, Note_off_c, 0, 27, 0
1, 229117, Note_off_c, 3, 61, 0
1, 229117, Note_off_c, 7, 61, 0
1, 229175, Note_off_c, 9, 42, 0
1, 229176, Note_off_c, 9, 70, 0
1, 229220, Note_off_c, 9, 37, 0
1, 229430, Note_on_c, 2, 68, 114
1, 229430, Note_on_c, 3, 61, 74
1, 229430, Note_on_c, 9, 36, 102
1, 229430, Note_on_c, 9, 42, 82
1, 229430, Note_on_c, 9, 70, 78
1, 229430, Note_on_c, 9, 62, 99
1, 229430, Note_on_c, 7, 61, 74
1, 229431, Note_on_c, 0, 27, 99
1, 229600, Lyric_t, " de"
1, 229609, Note_off_c, 9, 70, 0
1, 229610, Note_off_c, 0, 27, 0
1, 229620, Note_off_c, 9, 42, 0
1, 229670, Note_off_c, 9, 36, 0
1, 229670, Note_off_c, 9, 62, 0
1, 229672, Note_off_c, 2, 68, 0
1, 229902, Note_on_c, 0, 34, 84
1, 229910, Note_on_c, 9, 36, 93
1, 229910, Note_on_c, 9, 42, 84
1, 229910, Note_on_c, 9, 70, 93
1, 229936, Note_on_c, 2, 68, 114
1, 230049, Note_off_c, 3, 54, 0
1, 230049, Note_off_c, 7, 54, 0
1, 230119, Note_off_c, 9, 42, 0
1, 230120, Note_off_c, 9, 70, 0
1, 230137, Lyric_t, " mis"
1, 230150, Note_off_c, 9, 36, 0
1, 230368, Note_off_c, 2, 68, 0
1, 230390, Note_on_c, 9, 42, 76
1, 230390, Note_on_c, 9, 70, 76
1, 230390, Note_on_c, 9, 61, 78
1, 230445, Note_on_c, 2, 68, 82
1, 230546, Note_off_c, 9, 70, 0
1, 230563, Note_off_c, 9, 42, 0
1, 230630, Note_off_c, 9, 61, 0
1, 230660, Lyric_t, " la"
1, 230718, Note_off_c, 0, 34, 0
1, 230726, Note_off_c, 2, 68, 0
1, 230846, Note_on_c, 0, 27, 74
1, 230867, Note_on_c, 2, 68, 105
1, 230870, Note_on_c, 3, 54, 29
1, 230870, Note_on_c, 9, 37, 105
1, 230870, Note_on_c, 9, 42, 105
1, 230870, Note_on_c, 9, 70, 102
1, 230870, Note_on_c, 9, 82, 78
1, 230870, Note_on_c, 7, 54, 29
1, 231026, Note_off_c, 3, 56, 0
1, 231026, Note_off_c, 7, 56, 0
1, 231034, Note_off_c, 9, 70, 0
1, 231034, Note_off_c, 9, 82, 0
1, 231103, Lyric_t, "men"
1, 231110, Note_off_c, 9, 42, 0
1, 231188, Note_off_c, 9, 37, 0
1, 231219, Note_off_c, 0, 27, 0
1, 231327, Note_on_c, 0, 29, 72
1, 231335, Note_on_c, 2, 70, 102
1, 231350, Note_on_c, 9, 42, 76
1, 231350, Note_on_c, 9, 82, 87
1, 231350, Note_on_c, 9, 70, 82
1, 231350, Note_on_c, 9, 61, 76
1, 231378, Note_off_c, 2, 68, 0
1, 231433, Note_off_c, 3, 61, 0
1, 231433, Note_off_c, 7, 61, 0
1, 231519, Note_off_c, 9, 42, 0
1, 231534, Note_off_c, 9, 82, 0
1, 231542, Note_off_c, 9, 70, 0
1, 231603, Note_off_c, 9, 61, 0
1, 231643, Note_off_c, 0, 29, 0
1, 231702, Note_off_c, 2, 70, 0
1, 231823, Lyric_t, "tos"
1, 231830, Note_on_c, 0, 30, 76
1, 231830, Note_on_c, 3, 61, 76
1, 231830, Note_on_c, 9, 36, 96
1, 231830, Note_on_c, 9, 42, 99
1, 231830, Note_on_c, 9, 70, 93
1, 231830, Note_on_c, 9, 60, 82
1, 231830, Note_on_c, 7, 61, 76
1, 231942, Note_off_c, 3, 54, 0
1, 231942, Note_off_c, 7, 54, 0
1, 232017, Note_off_c, 3, 51, 0
1, 232017, Note_off_c, 7, 51, 0
1, 232025, Note_off_c, 9, 60, 0
1, 232064, Note_off_c, 9, 70, 0
1, 232065, Note_off_c, 9, 42, 0
1, 232070, Note_off_c, 9, 36, 0
1, 232257, Note_on_c, 2, 73, 84
1, 232310, Note_on_c, 3, 54, 59
1, 232310, Note_on_c, 9, 42, 72
1, 232310, Note_on_c, 9, 70, 76
1, 232310, Note_on_c, 9, 61, 72
1, 232310, Note_on_c, 7, 54, 59
1, 232434, Lyric_t, "\\En"
1, 232475, Note_off_c, 9, 42, 0
1, 232476, Note_off_c, 9, 70, 0
1, 232490, Note_off_c, 2, 73, 0
1, 232490, Note_on_c, 2, 75, 78
1, 232664, Note_off_c, 9, 61, 0
1, 232701, Lyric_t, " tus"
1, 232718, Note_on_c, 2, 77, 84
1, 232790, Note_on_c, 3, 58, 48
1, 232790, Note_on_c, 9, 37, 105
1, 232790, Note_on_c, 9, 42, 105
1, 232790, Note_on_c, 9, 70, 102
1, 232790, Note_on_c, 7, 58, 48
1, 232804, Note_off_c, 2, 75, 0
1, 232839, Note_off_c, 0, 30, 0
1, 232892, Lyric_t, " su"
1, 233002, Note_off_c, 9, 42, 0
1, 233017, Note_off_c, 9, 70, 0
1, 233064, Note_off_c, 9, 37, 0
1, 233116, Note_off_c, 2, 77, 0
1, 233167, Lyric_t, "e"
1, 233241, Note_on_c, 2, 75, 105
1, 233265, Note_on_c, 0, 30, 82
1, 233270, Note_on_c, 3, 63, 62
1, 233270, Note_on_c, 9, 36, 99
1, 233270, Note_on_c, 9, 42, 87
1, 233270, Note_on_c, 9, 70, 93
1, 233270, Note_on_c, 9, 62, 82
1, 233270, Note_on_c, 7, 63, 62
1, 233423, Note_off_c, 2, 75, 0
1, 233460, Note_off_c, 9, 42, 0
1, 233469, Note_off_c, 9, 70, 0
1, 233476, Lyric_t, "ños"
1, 233510, Note_off_c, 9, 62, 0
1, 233516, Note_off_c, 9, 36, 0
1, 233522, Note_off_c, 0, 30, 0
1, 233529, Note_on_c, 2, 75, 102
1, 233699, Note_off_c, 2, 75, 0
1, 233750, Note_on_c, 9, 36, 93
1, 233750, Note_on_c, 9, 42, 93
1, 233750, Note_on_c, 9, 70, 82
1, 233762, Lyric_t, " no"
1, 233768, Note_on_c, 0, 25, 82
1, 233858, Note_on_c, 2, 75, 105
1, 233973, Note_off_c, 9, 70, 0
1, 233979, Note_off_c, 9, 42, 0
1, 233990, Note_off_c, 9, 36, 0
1, 234029, Note_off_c, 3, 54, 0
1, 234029, Note_off_c, 7, 54, 0
1, 234188, Lyric_t, " si"
1, 234215, Note_off_c, 2, 75, 0
1, 234230, Note_on_c, 3, 54, 66
1, 234230, Note_on_c, 9, 42, 80
1, 234230, Note_on_c, 9, 70, 72
1, 234230, Note_on_c, 9, 62, 99
1, 234230, Note_on_c, 7, 54, 66
1, 234249, Note_on_c, 2, 73, 99
1, 234356, Note_off_c, 3, 58, 0
1, 234356, Note_off_c, 7, 58, 0
1, 234377, Note_off_c, 9, 42, 0
1, 234392, Note_off_c, 9, 70, 0
1, 234470, Note_off_c, 9, 62, 0
1, 234496, Lyric_t, "gas"
1, 234518, Note_off_c, 2, 73, 0
1, 234685, Note_off_c, 3, 63, 0
1, 234685, Note_off_c, 7, 63, 0
1, 234710, Note_on_c, 3, 56, 58
1, 234710, Note_on_c, 9, 37, 99
1, 234710, Note_on_c, 9, 42, 102
1, 234710, Note_on_c, 9, 70, 99
1, 234710, Note_on_c, 9, 82, 84
1, 234710, Note_on_c, 7, 56, 58
1, 234712, Note_on_c, 2, 73, 105
1, 234769, Note_off_c, 3, 61, 0
1, 234769, Note_off_c, 7, 61, 0
1, 234837, Note_off_c, 0, 25, 0
1, 234874, Note_off_c, 9, 82, 0
1, 234882, Lyric_t, " dor"
1, 234905, Note_off_c, 9, 42, 0
1, 234924, Note_off_c, 9, 70, 0
1, 235021, Note_off_c, 9, 37, 0
1, 235022, Note_off_c, 2, 73, 0
1, 235181, Note_on_c, 0, 25, 82
1, 235190, Note_on_c, 3, 61, 62
1, 235190, Note_on_c, 9, 36, 102
1, 235190, Note_on_c, 9, 42, 108
1, 235190, Note_on_c, 9, 70, 87
1, 235190, Note_on_c, 9, 60, 78
1, 235190, Note_on_c, 7, 61, 62
1, 235223, Note_on_c, 2, 73, 105
1, 235355, Lyric_t, "mi"
1, 235388, Note_off_c, 0, 25, 0
1, 235408, Note_off_c, 9, 70, 0
1, 235426, Note_off_c, 9, 42, 0
1, 235426, Note_off_c, 9, 60, 0
1, 235430, Note_off_c, 9, 36, 0
1, 235670, Note_on_c, 9, 42, 66
1, 235670, Note_on_c, 9, 70, 74
1, 235682, Note_on_c, 0, 30, 82
1, 235838, Note_off_c, 9, 70, 0
1, 235854, Note_off_c, 9, 42, 0
1, 236073, Note_off_c, 3, 54, 0
1, 236073, Note_off_c, 7, 54, 0
1, 236150, Note_on_c, 3, 54, 54
1, 236150, Note_on_c, 9, 42, 76
1, 236150, Note_on_c, 9, 70, 78
1, 236150, Note_on_c, 9, 62, 84
1, 236150, Note_on_c, 7, 54, 54
1, 236169, Note_off_c, 2, 73, 0
1, 236186, Note_on_c, 2, 70, 82
1, 236280, Note_off_c, 3, 56, 0
1, 236280, Note_off_c, 7, 56, 0
1, 236321, Note_off_c, 9, 70, 0
1, 236359, Note_off_c, 9, 42, 0
1, 236390, Note_off_c, 9, 62, 0
1, 236404, Lyric_t, "da"
1, 236630, Note_on_c, 3, 56, 59
1, 236630, Note_on_c, 9, 37, 99
1, 236630, Note_on_c, 9, 42, 93
1, 236630, Note_on_c, 9, 82, 87
1, 236630, Note_on_c, 9, 70, 93
1, 236630, Note_on_c, 7, 56, 59
1, 236649, Note_off_c, 2, 70, 0
1, 236791, Note_off_c, 3, 61, 0
1, 236791, Note_off_c, 7, 61, 0
1, 236805, Note_off_c, 0, 30, 0
1, 236805, Note_off_c, 9, 82, 0
1, 236846, Note_off_c, 9, 42, 0
1, 236846, Note_off_c, 9, 70, 0
1, 236900, Note_off_c, 9, 37, 0
1, 237110, Note_on_c, 3, 61, 66
1, 237110, Note_on_c, 9, 36, 102
1, 237110, Note_on_c, 9, 42, 87
1, 237110, Note_on_c, 9, 70, 80
1, 237110, Note_on_c, 9, 60, 74
1, 237110, Note_on_c, 7, 61, 66
1, 237125, Note_on_c, 0, 30, 80
1, 237305, Note_off_c, 9, 42, 0
1, 237320, Note_off_c, 9, 70, 0
1, 237350, Note_off_c, 9, 36, 0
1, 237350, Note_off_c, 9, 60, 0
1, 237351, Note_off_c, 0, 30, 0
1, 237573, Note_on_c, 2, 68, 93
1, 237590, Note_on_c, 9, 36, 93
1, 237590, Note_on_c, 9, 42, 84
1, 237590, Note_on_c, 9, 70, 87
1, 237604, Note_on_c, 0, 25, 76
1, 237745, Lyric_t, "\\Que"
1, 237769, Note_off_c, 9, 42, 0
1, 237808, Note_off_c, 2, 68, 0
1, 237815, Note_off_c, 9, 70, 0
1, 237830, Note_off_c, 9, 36, 0
1, 237954, Lyric_t, " es"
1, 238070, Note_on_c, 2, 68, 99
1, 238070, Note_on_c, 9, 42, 78
1, 238070, Note_on_c, 9, 70, 78
1, 238070, Note_on_c, 9, 61, 78
1, 238168, Note_off_c, 3, 56, 0
1, 238168, Note_off_c, 7, 56, 0
1, 238226, Note_off_c, 9, 42, 0
1, 238242, Lyric_t, " ver"
1, 238275, Note_off_c, 9, 70, 0
1, 238310, Note_off_c, 0, 25, 0
1, 238437, Note_off_c, 9, 61, 0
1, 238509, Note_off_c, 3, 61, 0
1, 238509, Note_off_c, 7, 61, 0
1, 238518, Note_off_c, 2, 68, 0
1, 238533, Note_on_c, 2, 66, 90
1, 238550, Note_on_c, 3, 56, 68
1, 238550, Note_on_c, 9, 37, 105
1, 238550, Note_on_c, 9, 42, 105
1, 238550, Note_on_c, 9, 70, 93
1, 238550, Note_on_c, 7, 56, 68
1, 238578, Note_on_c, 0, 25, 117
1, 238713, Lyric_t, "da"
1, 238740, Note_off_c, 9, 42, 0
1, 238764, Note_off_c, 9, 70, 0
1, 238790, Note_off_c, 9, 37, 0
1, 238797, Note_off_c, 2, 66, 0
1, 238980, Note_off_c, 0, 25, 0
1, 238989, Note_on_c, 2, 66, 90
1, 239030, Note_on_c, 3, 61, 72
1, 239030, Note_on_c, 9, 46, 102
1, 239030, Note_on_c, 9, 82, 74
1, 239030, Note_on_c, 9, 70, 99
1, 239030, Note_on_c, 9, 62, 96
1, 239030, Note_on_c, 7, 61, 72
1, 239154, Lyric_t, "de"
1, 239213, Note_off_c, 3, 54, 0
1, 239213, Note_off_c, 7, 54, 0
1, 239213, Note_off_c, 9, 82, 0
1, 239227, Note_off_c, 9, 70, 0
1, 239270, Note_off_c, 9, 62, 0
1, 239287, Note_off_c, 9, 46, 0
1, 239471, Note_on_c, 2, 65, 93
1, 239478, Note_off_c, 2, 66, 0
1, 239510, Note_on_c, 3, 49, 48
1, 239510, Note_on_c, 5, 65, 87
1, 239510, Note_on_c, 9, 36, 96
1, 239510, Note_on_c, 9, 42, 105
1, 239510, Note_on_c, 9, 70, 90
1, 239510, Note_on_c, 9, 60, 111
1, 239510, Note_on_c, 7, 49, 48
1, 239510, Note_on_c, 10, 65, 87
1, 239537, Note_on_c, 0, 25, 93
1, 239634, Lyric_t, "ro"
1, 239702, Note_off_c, 9, 42, 0
1, 239723, Note_off_c, 9, 70, 0
1, 239726, Note_off_c, 9, 60, 0
1, 239750, Note_off_c, 9, 36, 0
1, 239835, Note_off_c, 3, 56, 0
1, 239835, Note_off_c, 7, 56, 0
1, 239944, Note_on_c, 2, 73, 105
1, 239990, Note_on_c, 3, 53, 25
1, 239990, Note_on_c, 5, 68, 76
1, 239990, Note_on_c, 9, 42, 59
1, 239990, Note_on_c, 9, 70, 78
1, 239990, Note_on_c, 9, 61, 82
1, 239990, Note_on_c, 7, 53, 25
1, 239990, Note_on_c, 10, 68, 76
1, 240052, Note_off_c, 2, 65, 0
1, 240094, Note_off_c, 9, 61, 0
1, 240126, Note_off_c, 9, 42, 0
1, 240147, Lyric_t, " ¡he"
1, 240185, Note_off_c, 9, 70, 0
1, 240349, Note_off_c, 3, 61, 0
1, 240349, Note_off_c, 7, 61, 0
1, 240400, Lyric_t, "."
1, 240462, Note_off_c, 5, 65, 0
1, 240462, Note_off_c, 10, 65, 0
1, 240470, Note_on_c, 3, 56, 58
1, 240470, Note_on_c, 5, 65, 80
1, 240470, Note_on_c, 9, 37, 105
1, 240470, Note_on_c, 9, 42, 105
1, 240470, Note_on_c, 9, 70, 90
1, 240470, Note_on_c, 9, 82, 82
1, 240470, Note_on_c, 7, 56, 58
1, 240470, Note_on_c, 10, 65, 80
1, 240619, Note_off_c, 9, 82, 0
1, 240639, Note_off_c, 0, 25, 0
1, 240654, Lyric_t, "."
1, 240667, Note_off_c, 9, 70, 0
1, 240699, Note_off_c, 9, 42, 0
1, 240744, Note_off_c, 9, 37, 0
1, 240774, Note_off_c, 2, 73, 0
1, 240950, Note_on_c, 3, 61, 62
1, 240950, Note_on_c, 5, 63, 82
1, 240950, Note_on_c, 9, 36, 99
1, 240950, Note_on_c, 9, 42, 80
1, 240950, Note_on_c, 9, 70, 99
1, 240950, Note_on_c, 9, 62, 90
1, 240950, Note_on_c, 7, 61, 62
1, 240950, Note_on_c, 10, 63, 82
1, 240967, Note_on_c, 0, 25, 102
1, 241121, Note_off_c, 9, 42, 0
1, 241125, Note_off_c, 0, 25, 0
1, 241149, Note_off_c, 9, 62, 0
1, 241177, Note_off_c, 9, 70, 0
1, 241196, Note_off_c, 9, 36, 0
1, 241211, Note_off_c, 5, 65, 0
1, 241211, Note_off_c, 10, 65, 0
1, 241411, Note_off_c, 5, 68, 0
1, 241411, Note_off_c, 10, 68, 0
1, 241430, Note_on_c, 9, 36, 93
1, 241430, Note_on_c, 9, 42, 102
1, 241430, Note_on_c, 9, 70, 76
1, 241454, Note_off_c, 3, 49, 0
1, 241454, Note_off_c, 7, 49, 0
1, 241454, Lyric_t, "y!"
1, 241475, Note_on_c, 0, 32, 78
1, 241537, Note_off_c, 3, 53, 0
1, 241537, Note_off_c, 7, 53, 0
1, 241618, Note_off_c, 9, 70, 0
1, 241657, Note_off_c, 9, 42, 0
1, 241670, Note_off_c, 9, 36, 0
1, 241910, Note_on_c, 3, 49, 59
1, 241910, Note_on_c, 5, 68, 72
1, 241910, Note_on_c, 9, 42, 70
1, 241910, Note_on_c, 9, 70, 64
1, 241910, Note_on_c, 9, 60, 93
1, 241910, Note_on_c, 7, 49, 59
1, 241910, Note_on_c, 10, 68, 72
1, 242076, Note_off_c, 9, 70, 0
1, 242079, Note_off_c, 9, 42, 0
1, 242115, Note_off_c, 9, 60, 0
1, 242199, Note_off_c, 5, 63, 0
1, 242199, Note_off_c, 10, 63, 0
1, 242390, Note_on_c, 3, 53, 66
1, 242390, Note_on_c, 5, 63, 76
1, 242390, Note_on_c, 9, 37, 99
1, 242390, Note_on_c, 9, 42, 105
1, 242390, Note_on_c, 9, 70, 102
1, 242390, Note_on_c, 7, 53, 66
1, 242390, Note_on_c, 10, 63, 76
1, 242453, Note_off_c, 3, 56, 0
1, 242453, Note_off_c, 7, 56, 0
1, 242503, Note_off_c, 0, 32, 0
1, 242621, Note_off_c, 9, 42, 0
1, 242621, Note_off_c, 9, 70, 0
1, 242701, Note_off_c, 9, 37, 0
1, 242812, Note_off_c, 3, 61, 0
1, 242812, Note_off_c, 7, 61, 0
1, 242842, Note_off_c, 5, 63, 0
1, 242842, Note_off_c, 10, 63, 0
1, 242870, Note_on_c, 3, 63, 55
1, 242870, Note_on_c, 5, 61, 74
1, 242870, Note_on_c, 9, 36, 102
1, 242870, Note_on_c, 9, 42, 93
1, 242870, Note_on_c, 9, 82, 74
1, 242870, Note_on_c, 9, 70, 102
1, 242870, Note_on_c, 9, 61, 87
1, 242870, Note_on_c, 7, 63, 55
1, 242870, Note_on_c, 10, 61, 74
1, 242890, Note_on_c, 0, 32, 76
1, 243039, Note_off_c, 9, 82, 0
1, 243075, Note_off_c, 9, 61, 0
1, 243103, Note_off_c, 9, 42, 0
1, 243110, Note_off_c, 9, 36, 0
1, 243138, Note_off_c, 9, 70, 0
1, 243233, Note_off_c, 0, 32, 0
1, 243350, Note_on_c, 9, 42, 66
1, 243350, Note_on_c, 9, 70, 76
1, 243386, Note_on_c, 0, 25, 76
1, 243525, Note_off_c, 9, 70, 0
1, 243529, Note_off_c, 9, 42, 0
1, 243532, Note_off_c, 5, 68, 0
1, 243532, Note_off_c, 10, 68, 0
1, 243830, Note_on_c, 3, 56, 70
1, 243830, Note_on_c, 5, 68, 70
1, 243830, Note_on_c, 9, 42, 87
1, 243830, Note_on_c, 9, 70, 74
1, 243830, Note_on_c, 9, 62, 93
1, 243830, Note_on_c, 7, 56, 70
1, 243830, Note_on_c, 10, 68, 70
1, 243840, Note_off_c, 3, 53, 0
1, 243840, Note_off_c, 7, 53, 0
1, 244026, Note_off_c, 9, 70, 0
1, 244059, Note_off_c, 9, 42, 0
1, 244066, Note_off_c, 9, 62, 0
1, 244310, Note_on_c, 3, 53, 58
1, 244310, Note_on_c, 9, 37, 99
1, 244310, Note_on_c, 9, 42, 99
1, 244310, Note_on_c, 9, 70, 93
1, 244310, Note_on_c, 7, 53, 58
1, 244516, Note_off_c, 0, 25, 0
1, 244535, Note_off_c, 9, 42, 0
1, 244536, Note_off_c, 9, 70, 0
1, 244580, Note_off_c, 9, 37, 0
1, 244790, Note_on_c, 3, 61, 76
1, 244790, Note_on_c, 9, 36, 102
1, 244790, Note_on_c, 9, 42, 82
1, 244790, Note_on_c, 9, 70, 78
1, 244790, Note_on_c, 9, 62, 99
1, 244790, Note_on_c, 7, 61, 76
1, 244812, Note_off_c, 3, 63, 0
1, 244812, Note_off_c, 7, 63, 0
1, 244827, Note_on_c, 0, 25, 90
1, 244969, Note_off_c, 9, 70, 0
1, 244980, Note_off_c, 9, 42, 0
1, 245006, Note_off_c, 0, 25, 0
1, 245030, Note_off_c, 9, 36, 0
1, 245055, Note_off_c, 9, 62, 0
1, 245270, Note_on_c, 9, 36, 93
1, 245270, Note_on_c, 9, 42, 84
1, 245270, Note_on_c, 9, 70, 93
1, 245313, Note_on_c, 0, 32, 87
1, 245479, Note_off_c, 9, 42, 0
1, 245480, Note_off_c, 9, 70, 0
1, 245510, Note_off_c, 9, 36, 0
1, 245519, Note_off_c, 3, 53, 0
1, 245519, Note_off_c, 7, 53, 0
1, 245740, Note_on_c, 2, 66, 108
1, 245750, Note_on_c, 3, 53, 64
1, 245750, Note_on_c, 9, 42, 76
1, 245750, Note_on_c, 9, 70, 76
1, 245750, Note_on_c, 9, 61, 78
1, 245750, Note_on_c, 7, 53, 64
1, 245906, Note_off_c, 9, 70, 0
1, 245915, Lyric_t, "\\No"
1, 245923, Note_off_c, 9, 42, 0
1, 245973, Note_off_c, 3, 56, 0
1, 245973, Note_off_c, 7, 56, 0
1, 245990, Note_off_c, 9, 61, 0
1, 245996, Note_off_c, 0, 32, 0
1, 246145, Note_off_c, 3, 61, 0
1, 246145, Note_off_c, 7, 61, 0
1, 246208, Note_on_c, 2, 65, 74
1, 246214, Note_on_c, 0, 32, 90
1, 246230, Note_on_c, 3, 56, 70
1, 246230, Note_on_c, 9, 37, 105
1, 246230, Note_on_c, 9, 42, 105
1, 246230, Note_on_c, 9, 70, 102
1, 246230, Note_on_c, 9, 82, 78
1, 246230, Note_on_c, 7, 56, 70
1, 246244, Note_off_c, 2, 66, 0
1, 246394, Note_off_c, 9, 70, 0
1, 246394, Note_off_c, 9, 82, 0
1, 246404, Note_off_c, 5, 61, 0
1, 246404, Note_off_c, 10, 61, 0
1, 246422, Lyric_t, " es"
1, 246470, Note_off_c, 9, 37, 0
1, 246470, Note_off_c, 9, 42, 0
1, 246482, Note_off_c, 2, 65, 0
1, 246664, Note_off_c, 3, 49, 0
1, 246664, Note_off_c, 7, 49, 0
1, 246700, Note_off_c, 3, 53, 0
1, 246700, Note_off_c, 7, 53, 0
1, 246707, Note_on_c, 2, 65, 93
1, 246710, Note_on_c, 9, 42, 76
1, 246710, Note_on_c, 9, 82, 87
1, 246710, Note_on_c, 9, 70, 82
1, 246710, Note_on_c, 9, 61, 76
1, 246732, Lyric_t, " un"
1, 246879, Note_off_c, 9, 42, 0
1, 246894, Note_off_c, 9, 82, 0
1, 246902, Note_off_c, 9, 70, 0
1, 246950, Note_off_c, 9, 61, 0
1, 246959, Note_off_c, 0, 32, 0
1, 247031, Lyric_t, " su"
1, 247190, Note_on_c, 3, 51, 72
1, 247190, Note_on_c, 9, 36, 96
1, 247190, Note_on_c, 9, 42, 99
1, 247190, Note_on_c, 9, 70, 93
1, 247190, Note_on_c, 9, 60, 82
1, 247190, Note_on_c, 7, 51, 72
1, 247206, Note_on_c, 2, 63, 90
1, 247214, Note_on_c, 0, 32, 82
1, 247242, Note_off_c, 2, 65, 0
1, 247276, Note_off_c, 3, 56, 0
1, 247276, Note_off_c, 7, 56, 0
1, 247316, Lyric_t, "e"
1, 247385, Note_off_c, 9, 60, 0
1, 247424, Note_off_c, 9, 70, 0
1, 247425, Note_off_c, 9, 42, 0
1, 247430, Note_off_c, 9, 36, 0
1, 247665, Note_on_c, 2, 72, 84
1, 247670, Note_on_c, 3, 56, 58
1, 247670, Note_on_c, 5, 56, 72
1, 247670, Note_on_c, 9, 42, 72
1, 247670, Note_on_c, 9, 70, 76
1, 247670, Note_on_c, 9, 61, 72
1, 247670, Note_on_c, 7, 56, 58
1, 247670, Note_on_c, 10, 56, 72
1, 247710, Note_off_c, 2, 63, 0
1, 247735, Lyric_t, "ño"
1, 247835, Note_off_c, 9, 42, 0
1, 247836, Note_off_c, 9, 70, 0
1, 247910, Note_off_c, 9, 61, 0
1, 248000, Lyric_t, " n"
1, 248038, Note_off_c, 5, 68, 0
1, 248038, Note_off_c, 10, 68, 0
1, 248150, Note_on_c, 3, 58, 32
1, 248150, Note_on_c, 5, 58, 64
1, 248150, Note_on_c, 9, 37, 105
1, 248150, Note_on_c, 9, 42, 105
1, 248150, Note_on_c, 9, 70, 102
1, 248150, Note_on_c, 7, 58, 32
1, 248150, Note_on_c, 10, 58, 64
1, 248253, Note_off_c, 0, 32, 0
1, 248274, Lyric_t, "o"
1, 248362, Note_off_c, 9, 42, 0
1, 248377, Note_off_c, 9, 70, 0
1, 248424, Note_off_c, 9, 37, 0
1, 248596, Lyric_t, "."
1, 248620, Note_on_c, 0, 32, 82
1, 248630, Note_on_c, 3, 60, 68
1, 248630, Note_on_c, 5, 60, 74
1, 248630, Note_on_c, 9, 36, 99
1, 248630, Note_on_c, 9, 42, 87
1, 248630, Note_on_c, 9, 70, 93
1, 248630, Note_on_c, 9, 62, 82
1, 248630, Note_on_c, 7, 60, 68
1, 248630, Note_on_c, 10, 60, 74
1, 248656, Note_off_c, 2, 72, 0
1, 248755, Note_off_c, 3, 58, 0
1, 248755, Note_off_c, 7, 58, 0
1, 248820, Note_off_c, 9, 42, 0
1, 248829, Note_off_c, 9, 70, 0
1, 248832, Note_off_c, 0, 32, 0
1, 248870, Note_off_c, 9, 62, 0
1, 248876, Note_off_c, 9, 36, 0
1, 249110, Note_on_c, 9, 36, 93
1, 249110, Note_on_c, 9, 42, 93
1, 249110, Note_on_c, 9, 70, 82
1, 249121, Note_on_c, 0, 27, 87
1, 249303, Note_off_c, 3, 56, 0
1, 249303, Note_off_c, 7, 56, 0
1, 249333, Note_off_c, 9, 70, 0
1, 249339, Note_off_c, 9, 42, 0
1, 249344, Note_off_c, 3, 51, 0
1, 249344, Note_off_c, 7, 51, 0
1, 249350, Note_off_c, 9, 36, 0
1, 249590, Note_on_c, 3, 51, 66
1, 249590, Note_on_c, 5, 63, 74
1, 249590, Note_on_c, 9, 42, 80
1, 249590, Note_on_c, 9, 70, 72
1, 249590, Note_on_c, 9, 62, 99
1, 249590, Note_on_c, 7, 51, 66
1, 249590, Note_on_c, 10, 63, 74
1, 249737, Note_off_c, 9, 42, 0
1, 249752, Note_off_c, 9, 70, 0
1, 249830, Note_off_c, 9, 62, 0
1, 249917, Lyric_t, "."
1, 250070, Note_on_c, 3, 56, 66
1, 250070, Note_on_c, 9, 37, 99
1, 250070, Note_on_c, 9, 42, 102
1, 250070, Note_on_c, 9, 70, 99
1, 250070, Note_on_c, 9, 82, 84
1, 250070, Note_on_c, 7, 56, 66
1, 250195, Note_off_c, 0, 27, 0
1, 250234, Note_off_c, 9, 82, 0
1, 250265, Note_off_c, 9, 42, 0
1, 250284, Note_off_c, 9, 70, 0
1, 250381, Note_off_c, 9, 37, 0
1, 250549, Note_on_c, 0, 27, 84
1, 250550, Note_on_c, 3, 63, 72
1, 250550, Note_on_c, 9, 36, 102
1, 250550, Note_on_c, 9, 42, 108
1, 250550, Note_on_c, 9, 70, 87
1, 250550, Note_on_c, 9, 60, 78
1, 250550, Note_on_c, 7, 63, 72
1, 250664, Note_off_c, 0, 27, 0
1, 250768, Note_off_c, 9, 70, 0
1, 250786, Note_off_c, 9, 42, 0
1, 250786, Note_off_c, 9, 60, 0
1, 250790, Note_off_c, 9, 36, 0
1, 251030, Note_on_c, 9, 42, 66
1, 251030, Note_on_c, 9, 70, 74
1, 251065, Note_on_c, 0, 32, 87
1, 251198, Note_off_c, 9, 70, 0
1, 251214, Note_off_c, 9, 42, 0
1, 251322, Note_off_c, 3, 51, 0
1, 251322, Note_off_c, 7, 51, 0
1, 251327, Note_off_c, 3, 56, 0
1, 251327, Note_off_c, 7, 56, 0
1, 251510, Note_on_c, 3, 51, 57
1, 251510, Note_on_c, 5, 68, 72
1, 251510, Note_on_c, 9, 42, 76
1, 251510, Note_on_c, 9, 70, 78
1, 251510, Note_on_c, 9, 62, 84
1, 251510, Note_on_c, 7, 51, 57
1, 251510, Note_on_c, 10, 68, 72
1, 251681, Note_off_c, 9, 70, 0
1, 251719, Note_off_c, 9, 42, 0
1, 251798, Note_off_c, 9, 62, 0
1, 251990, Note_on_c, 3, 56, 62
1, 251990, Note_on_c, 9, 37, 99
1, 251990, Note_on_c, 9, 42, 93
1, 251990, Note_on_c, 9, 82, 87
1, 251990, Note_on_c, 9, 70, 93
1, 251990, Note_on_c, 7, 56, 62
1, 252165, Note_off_c, 9, 82, 0
1, 252169, Note_off_c, 0, 32, 0
1, 252206, Note_off_c, 9, 42, 0
1, 252206, Note_off_c, 9, 70, 0
1, 252260, Note_off_c, 9, 37, 0
1, 252265, Note_off_c, 3, 60, 0
1, 252265, Note_off_c, 7, 60, 0
1, 252427, Note_off_c, 3, 63, 0
1, 252427, Note_off_c, 7, 63, 0
1, 252470, Note_on_c, 3, 58, 66
1, 252470, Note_on_c, 9, 36, 102
1, 252470, Note_on_c, 9, 42, 87
1, 252470, Note_on_c, 9, 70, 80
1, 252470, Note_on_c, 9, 60, 74
1, 252470, Note_on_c, 7, 58, 66
1, 252500, Note_on_c, 0, 32, 99
1, 252665, Note_off_c, 9, 42, 0
1, 252680, Note_off_c, 9, 70, 0
1, 252696, Note_off_c, 0, 32, 0
1, 252710, Note_off_c, 9, 36, 0
1, 252734, Note_off_c, 9, 60, 0
1, 252950, Note_on_c, 9, 36, 93
1, 252950, Note_on_c, 9, 42, 84
1, 252950, Note_on_c, 9, 70, 87
1, 252968, Note_on_c, 0, 27, 76
1, 253129, Note_off_c, 9, 42, 0
1, 253175, Note_off_c, 9, 70, 0
1, 253190, Note_off_c, 9, 36, 0
1, 253204, Note_off_c, 5, 56, 0
1, 253204, Note_off_c, 10, 56, 0
1, 253213, Note_off_c, 5, 58, 0
1, 253213, Note_off_c, 10, 58, 0
1, 253326, Note_off_c, 5, 60, 0
1, 253326, Note_off_c, 10, 60, 0
1, 253376, Note_off_c, 5, 68, 0
1, 253376, Note_off_c, 10, 68, 0
1, 253383, Note_off_c, 5, 63, 0
1, 253383, Note_off_c, 10, 63, 0
1, 253409, Note_off_c, 0, 27, 0
1, 253415, Note_on_c, 0, 30, 84
1, 253430, Note_on_c, 3, 60, 72
1, 253430, Note_on_c, 9, 42, 78
1, 253430, Note_on_c, 9, 70, 78
1, 253430, Note_on_c, 9, 61, 78
1, 253430, Note_on_c, 9, 42, 99
1, 253430, Note_on_c, 7, 60, 72
1, 253529, Note_off_c, 9, 42, 0
1, 253589, Note_off_c, 3, 58, 0
1, 253589, Note_off_c, 7, 58, 0
1, 253635, Note_off_c, 9, 70, 0
1, 253670, Note_off_c, 9, 61, 0
1, 253670, Note_on_c, 9, 42, 105
1, 253750, Note_off_c, 3, 56, 0
1, 253750, Note_off_c, 7, 56, 0
1, 253787, Note_off_c, 9, 42, 0
1, 253837, Note_off_c, 0, 30, 0
1, 253910, Note_on_c, 3, 56, 72
1, 253910, Note_on_c, 9, 37, 105
1, 253910, Note_on_c, 9, 42, 105
1, 253910, Note_on_c, 9, 70, 93
1, 253910, Note_on_c, 9, 42, 117
1, 253910, Note_on_c, 7, 56, 72
1, 253927, Note_on_c, 0, 32, 93
1, 253960, Note_on_c, 2, 72, 105
1, 254057, Note_off_c, 9, 42, 0
1, 254124, Note_off_c, 9, 70, 0
1, 254150, Note_off_c, 9, 37, 0
1, 254157, Lyric_t, "\\M"
1, 254361, Lyric_t, "e"
1, 254368, Note_off_c, 0, 32, 0
1, 254390, Note_on_c, 3, 63, 72
1, 254390, Note_on_c, 9, 46, 102
1, 254390, Note_on_c, 9, 82, 74
1, 254390, Note_on_c, 9, 70, 99
1, 254390, Note_on_c, 9, 62, 96
1, 254390, Note_on_c, 9, 46, 114
1, 254390, Note_on_c, 7, 63, 72
1, 254402, Note_on_c, 0, 27, 80
1, 254435, Note_on_c, 2, 73, 102
1, 254478, Note_off_c, 2, 72, 0
1, 254533, Note_off_c, 9, 46, 0
1, 254573, Note_off_c, 9, 82, 0
1, 254587, Note_off_c, 9, 70, 0
1, 254607, Note_off_c, 3, 56, 0
1, 254607, Note_off_c, 7, 56, 0
1, 254625, Lyric_t, " a"
1, 254630, Note_off_c, 9, 62, 0
1, 254653, Note_off_c, 3, 51, 0
1, 254653, Note_off_c, 7, 51, 0
1, 254739, Note_off_c, 3, 60, 0
1, 254739, Note_off_c, 7, 60, 0
1, 254785, Note_off_c, 3, 63, 0
1, 254785, Note_off_c, 7, 63, 0
1, 254804, Note_off_c, 0, 27, 0
1, 254870, Note_on_c, 0, 34, 93
1, 254870, Note_on_c, 3, 56, 80
1, 254870, Note_on_c, 5, 61, 114
1, 254870, Note_on_c, 9, 36, 96
1, 254870, Note_on_c, 9, 42, 105
1, 254870, Note_on_c, 9, 70, 90
1, 254870, Note_on_c, 9, 60, 111
1, 254870, Note_on_c, 9, 51, 117
1, 254870, Note_on_c, 7, 56, 80
1, 254870, Note_on_c, 10, 61, 114
1, 254890, Lyric_t, "le"
1, 255062, Note_off_c, 9, 42, 0
1, 255083, Note_off_c, 9, 70, 0
1, 255086, Note_off_c, 9, 60, 0
1, 255110, Note_off_c, 9, 36, 0
1, 255110, Note_off_c, 9, 51, 0
1, 255215, Note_off_c, 2, 73, 0
1, 255350, Note_on_c, 3, 58, 44
1, 255350, Note_on_c, 5, 53, 80
1, 255350, Note_on_c, 9, 42, 59
1, 255350, Note_on_c, 9, 70, 78
1, 255350, Note_on_c, 9, 61, 82
1, 255350, Note_on_c, 7, 58, 44
1, 255350, Note_on_c, 10, 53, 80
1, 255364, Note_on_c, 2, 70, 105
1, 255454, Note_off_c, 9, 61, 0
1, 255486, Note_off_c, 9, 42, 0
1, 255545, Note_off_c, 9, 70, 0
1, 255594, Note_off_c, 2, 70, 0
1, 255764, Lyric_t, "gro"
1, 255830, Note_on_c, 5, 56, 76
1, 255830, Note_on_c, 9, 37, 105
1, 255830, Note_on_c, 9, 42, 105
1, 255830, Note_on_c, 9, 70, 90
1, 255830, Note_on_c, 9, 82, 82
1, 255830, Note_on_c, 10, 56, 76
1, 255971, Note_off_c, 0, 34, 0
1, 255979, Note_off_c, 9, 82, 0
1, 256027, Note_off_c, 9, 70, 0
1, 256059, Note_off_c, 9, 42, 0
1, 256104, Note_off_c, 9, 37, 0
1, 256286, Note_on_c, 2, 73, 114
1, 256310, Note_on_c, 0, 34, 80
1, 256310, Note_on_c, 3, 61, 76
1, 256310, Note_on_c, 5, 58, 76
1, 256310, Note_on_c, 9, 36, 99
1, 256310, Note_on_c, 9, 42, 80
1, 256310, Note_on_c, 9, 70, 99
1, 256310, Note_on_c, 9, 62, 90
1, 256310, Note_on_c, 7, 61, 76
1, 256310, Note_on_c, 10, 58, 76
1, 256481, Note_off_c, 9, 42, 0
1, 256496, Lyric_t, " que"
1, 256506, Note_off_c, 0, 34, 0
1, 256509, Note_off_c, 9, 62, 0
1, 256521, Note_off_c, 2, 73, 0
1, 256537, Note_off_c, 9, 70, 0
1, 256556, Note_off_c, 9, 36, 0
1, 256750, Lyric_t, " a"
1, 256780, Note_on_c, 2, 73, 114
1, 256790, Note_on_c, 0, 29, 90
1, 256790, Note_on_c, 9, 36, 93
1, 256790, Note_on_c, 9, 42, 102
1, 256790, Note_on_c, 9, 70, 76
1, 256978, Note_off_c, 9, 70, 0
1, 257017, Note_off_c, 9, 42, 0
1, 257027, Lyric_t, " ve"
1, 257030, Note_off_c, 2, 73, 0
1, 257030, Note_off_c, 9, 36, 0
1, 257091, Note_off_c, 3, 56, 0
1, 257091, Note_off_c, 7, 56, 0
1, 257119, Note_off_c, 3, 58, 0
1, 257119, Note_off_c, 7, 58, 0
1, 257265, Note_on_c, 2, 73, 114
1, 257270, Note_on_c, 3, 58, 74
1, 257270, Note_on_c, 9, 42, 70
1, 257270, Note_on_c, 9, 70, 64
1, 257270, Note_on_c, 9, 60, 93
1, 257270, Note_on_c, 7, 58, 74
1, 257415, Lyric_t, "ces"
1, 257436, Note_off_c, 9, 70, 0
1, 257439, Note_off_c, 9, 42, 0
1, 257475, Note_off_c, 9, 60, 0
1, 257500, Note_off_c, 2, 73, 0
1, 257648, Note_off_c, 5, 53, 0
1, 257648, Note_off_c, 10, 53, 0
1, 257750, Note_on_c, 2, 73, 114
1, 257750, Note_on_c, 5, 53, 72
1, 257750, Note_on_c, 9, 37, 99
1, 257750, Note_on_c, 9, 42, 105
1, 257750, Note_on_c, 9, 70, 102
1, 257750, Note_on_c, 10, 53, 72
1, 257876, Lyric_t, "\\El"
1, 257965, Note_off_c, 0, 29, 0
1, 257981, Note_off_c, 9, 42, 0
1, 257981, Note_off_c, 9, 70, 0
1, 258061, Note_off_c, 9, 37, 0
1, 258143, Note_off_c, 2, 73, 0
1, 258201, Note_on_c, 2, 75, 105
1, 258230, Note_on_c, 0, 29, 87
1, 258230, Note_on_c, 3, 65, 74
1, 258230, Note_on_c, 5, 65, 74
1, 258230, Note_on_c, 9, 36, 102
1, 258230, Note_on_c, 9, 42, 93
1, 258230, Note_on_c, 9, 82, 74
1, 258230, Note_on_c, 9, 70, 102
1, 258230, Note_on_c, 9, 61, 87
1, 258230, Note_on_c, 7, 65, 74
1, 258230, Note_on_c, 10, 65, 74
1, 258317, Lyric_t, " fi"
1, 258399, Note_off_c, 9, 82, 0
1, 258435, Note_off_c, 9, 61, 0
1, 258442, Note_off_c, 0, 29, 0
1, 258463, Note_off_c, 9, 42, 0
1, 258470, Note_off_c, 9, 36, 0
1, 258498, Note_off_c, 9, 70, 0
1, 258603, Lyric_t, "nal"
1, 258630, Note_off_c, 2, 75, 0
1, 258676, Note_on_c, 2, 73, 102
1, 258710, Note_on_c, 0, 34, 99
1, 258710, Note_on_c, 9, 42, 66
1, 258710, Note_on_c, 9, 70, 76
1, 258885, Note_off_c, 9, 70, 0
1, 258889, Note_off_c, 9, 42, 0
1, 258957, Note_off_c, 5, 53, 0
1, 258957, Note_off_c, 10, 53, 0
1, 259007, Note_off_c, 3, 58, 0
1, 259007, Note_off_c, 7, 58, 0
1, 259065, Note_off_c, 2, 73, 0
1, 259170, Note_on_c, 2, 70, 102
1, 259190, Note_on_c, 3, 58, 74
1, 259190, Note_on_c, 5, 53, 93
1, 259190, Note_on_c, 9, 42, 87
1, 259190, Note_on_c, 9, 70, 74
1, 259190, Note_on_c, 9, 62, 93
1, 259190, Note_on_c, 7, 58, 74
1, 259190, Note_on_c, 10, 53, 93
1, 259288, Note_off_c, 5, 56, 0
1, 259288, Note_off_c, 10, 56, 0
1, 259379, Note_off_c, 2, 70, 0
1, 259386, Note_off_c, 9, 70, 0
1, 259419, Note_off_c, 9, 42, 0
1, 259426, Note_off_c, 9, 62, 0
1, 259513, Lyric_t, " no"
1, 259600, Note_off_c, 5, 58, 0
1, 259600, Note_off_c, 10, 58, 0
1, 259665, Note_on_c, 2, 70, 99
1, 259670, Note_on_c, 9, 37, 99
1, 259670, Note_on_c, 9, 42, 99
1, 259670, Note_on_c, 9, 70, 93
1, 259706, Note_off_c, 5, 61, 0
1, 259706, Note_off_c, 10, 61, 0
1, 259813, Lyric_t, " en"
1, 259850, Note_off_c, 2, 70, 0
1, 259866, Note_off_c, 0, 34, 0
1, 259895, Note_off_c, 9, 42, 0
1, 259896, Note_off_c, 9, 70, 0
1, 259940, Note_off_c, 9, 37, 0
1, 260025, Note_off_c, 3, 61, 0
1, 260025, Note_off_c, 7, 61, 0
1, 260045, Lyric_t, "cu"
1, 260057, Note_off_c, 3, 65, 0
1, 260057, Note_off_c, 7, 65, 0
1, 260068, Note_off_c, 5, 65, 0
1, 260068, Note_off_c, 10, 65, 0
1, 260126, Note_on_c, 2, 70, 99
1, 260150, Note_on_c, 0, 34, 76
1, 260150, Note_on_c, 3, 61, 82
1, 260150, Note_on_c, 5, 56, 87
1, 260150, Note_on_c, 9, 36, 102
1, 260150, Note_on_c, 9, 42, 82
1, 260150, Note_on_c, 9, 70, 78
1, 260150, Note_on_c, 9, 62, 99
1, 260150, Note_on_c, 7, 61, 82
1, 260150, Note_on_c, 10, 56, 87
1, 260324, Lyric_t, "en"
1, 260329, Note_off_c, 9, 70, 0
1, 260340, Note_off_c, 9, 42, 0
1, 260361, Note_off_c, 2, 70, 0
1, 260390, Note_off_c, 9, 36, 0
1, 260415, Note_off_c, 9, 62, 0
1, 260423, Note_off_c, 0, 34, 0
1, 260615, Note_on_c, 2, 70, 93
1, 260630, Note_on_c, 0, 34, 82
1, 260630, Note_on_c, 9, 36, 93
1, 260630, Note_on_c, 9, 42, 84
1, 260630, Note_on_c, 9, 70, 93
1, 260709, Lyric_t, "tre"
1, 260839, Note_off_c, 9, 42, 0
1, 260840, Note_off_c, 9, 70, 0
1, 260870, Note_off_c, 9, 36, 0
1, 261110, Note_on_c, 3, 63, 74
1, 261110, Note_on_c, 5, 58, 99
1, 261110, Note_on_c, 9, 42, 76
1, 261110, Note_on_c, 9, 70, 76
1, 261110, Note_on_c, 9, 61, 78
1, 261110, Note_on_c, 7, 63, 74
1, 261110, Note_on_c, 10, 58, 99
1, 261266, Note_off_c, 9, 70, 0
1, 261283, Note_off_c, 9, 42, 0
1, 261290, Note_off_c, 3, 58, 0
1, 261290, Note_off_c, 7, 58, 0
1, 261401, Note_off_c, 9, 61, 0
1, 261437, Lyric_t, "\\Su"
1, 261515, Note_on_c, 2, 72, 80
1, 261520, Note_off_c, 2, 70, 0
1, 261540, Note_off_c, 0, 34, 0
1, 261590, Note_on_c, 0, 32, 80
1, 261590, Note_on_c, 3, 58, 70
1, 261590, Note_on_c, 9, 37, 105
1, 261590, Note_on_c, 9, 42, 105
1, 261590, Note_on_c, 9, 70, 102
1, 261590, Note_on_c, 9, 82, 78
1, 261590, Note_on_c, 7, 58, 70
1, 261754, Note_off_c, 9, 70, 0
1, 261754, Note_off_c, 9, 82, 0
1, 261830, Note_off_c, 9, 37, 0
1, 261830, Note_off_c, 9, 42, 0
1, 261869, Note_off_c, 3, 61, 0
1, 261869, Note_off_c, 7, 61, 0
1, 261978, Note_off_c, 3, 63, 0
1, 261978, Note_off_c, 7, 63, 0
1, 262043, Note_on_c, 2, 73, 87
1, 262070, Note_on_c, 3, 61, 74
1, 262070, Note_on_c, 5, 61, 114
1, 262070, Note_on_c, 9, 42, 76
1, 262070, Note_on_c, 9, 82, 87
1, 262070, Note_on_c, 9, 70, 82
1, 262070, Note_on_c, 9, 61, 76
1, 262070, Note_on_c, 7, 61, 74
1, 262070, Note_on_c, 10, 61, 114
1, 262096, Note_off_c, 2, 72, 0
1, 262114, Note_off_c, 5, 58, 0
1, 262114, Note_off_c, 10, 58, 0
1, 262155, Lyric_t, " mo"
1, 262239, Note_off_c, 9, 42, 0
1, 262254, Note_off_c, 9, 82, 0
1, 262262, Note_off_c, 9, 70, 0
1, 262323, Note_off_c, 9, 61, 0
1, 262328, Note_off_c, 3, 58, 0
1, 262328, Note_off_c, 7, 58, 0
1, 262385, Note_off_c, 5, 53, 0
1, 262385, Note_off_c, 10, 53, 0
1, 262445, Lyric_t, "me"
1, 262502, Note_off_c, 0, 32, 0
1, 262550, Note_on_c, 0, 30, 78
1, 262550, Note_on_c, 3, 54, 74
1, 262550, Note_on_c, 9, 36, 96
1, 262550, Note_on_c, 9, 42, 99
1, 262550, Note_on_c, 9, 70, 93
1, 262550, Note_on_c, 9, 60, 82
1, 262550, Note_on_c, 7, 54, 74
1, 262745, Note_off_c, 9, 60, 0
1, 262784, Note_off_c, 9, 70, 0
1, 262785, Note_off_c, 9, 42, 0
1, 262790, Note_off_c, 9, 36, 0
1, 262842, Note_off_c, 2, 73, 0
1, 263005, Lyric_t, "n"
1, 263010, Note_on_c, 2, 73, 102
1, 263030, Note_on_c, 3, 56, 76
1, 263030, Note_on_c, 5, 54, 99
1, 263030, Note_on_c, 9, 42, 72
1, 263030, Note_on_c, 9, 70, 76
1, 263030, Note_on_c, 9, 61, 72
1, 263030, Note_on_c, 7, 56, 76
1, 263030, Note_on_c, 10, 54, 99
1, 263195, Note_off_c, 9, 42, 0
1, 263196, Note_off_c, 9, 70, 0
1, 263206, Note_off_c, 5, 56, 0
1, 263206, Note_off_c, 10, 56, 0
1, 263384, Note_off_c, 9, 61, 0
1, 263500, Note_off_c, 2, 73, 0
1, 263510, Note_on_c, 3, 58, 66
1, 263510, Note_on_c, 5, 56, 87
1, 263510, Note_on_c, 9, 37, 105
1, 263510, Note_on_c, 9, 42, 105
1, 263510, Note_on_c, 9, 70, 102
1, 263510, Note_on_c, 7, 58, 66
1, 263510, Note_on_c, 10, 56, 87
1, 263530, Lyric_t, "t"
1, 263589, Note_off_c, 3, 56, 0
1, 263589, Note_off_c, 7, 56, 0
1, 263617, Note_off_c, 0, 30, 0
1, 263688, Note_off_c, 3, 61, 0
1, 263688, Note_off_c, 7, 61, 0
1, 263722, Note_off_c, 9, 42, 0
1, 263737, Note_off_c, 9, 70, 0
1, 263784, Note_off_c, 9, 37, 0
1, 263990, Note_on_c, 0, 30, 82
1, 263990, Note_on_c, 3, 61, 78
1, 263990, Note_on_c, 5, 63, 72
1, 263990, Note_on_c, 9, 36, 99
1, 263990, Note_on_c, 9, 42, 87
1, 263990, Note_on_c, 9, 70, 93
1, 263990, Note_on_c, 9, 62, 82
1, 263990, Note_on_c, 7, 61, 78
1, 263990, Note_on_c, 10, 63, 72
1, 264180, Note_off_c, 9, 42, 0
1, 264189, Note_off_c, 9, 70, 0
1, 264230, Note_off_c, 9, 62, 0
1, 264236, Note_off_c, 9, 36, 0
1, 264252, Note_off_c, 0, 30, 0
1, 264461, Lyric_t, "o"
1, 264470, Note_on_c, 0, 25, 78
1, 264470, Note_on_c, 9, 36, 93
1, 264470, Note_on_c, 9, 42, 93
1, 264470, Note_on_c, 9, 70, 82
1, 264693, Note_off_c, 9, 70, 0
1, 264699, Note_off_c, 9, 42, 0
1, 264710, Note_off_c, 9, 36, 0
1, 264720, Note_off_c, 3, 58, 0
1, 264720, Note_off_c, 7, 58, 0
1, 264790, Note_off_c, 5, 54, 0
1, 264790, Note_off_c, 10, 54, 0
1, 264950, Note_on_c, 3, 58, 72
1, 264950, Note_on_c, 5, 54, 99
1, 264950, Note_on_c, 9, 42, 80
1, 264950, Note_on_c, 9, 70, 72
1, 264950, Note_on_c, 9, 62, 99
1, 264950, Note_on_c, 7, 58, 72
1, 264950, Note_on_c, 10, 54, 99
1, 265097, Note_off_c, 9, 42, 0
1, 265112, Note_off_c, 9, 70, 0
1, 265162, Note_off_c, 5, 56, 0
1, 265162, Note_off_c, 10, 56, 0
1, 265291, Note_off_c, 9, 62, 0
1, 265396, Note_off_c, 5, 61, 0
1, 265396, Note_off_c, 10, 61, 0
1, 265430, Note_on_c, 3, 63, 68
1, 265430, Note_on_c, 5, 56, 76
1, 265430, Note_on_c, 9, 37, 99
1, 265430, Note_on_c, 9, 42, 102
1, 265430, Note_on_c, 9, 70, 99
1, 265430, Note_on_c, 9, 82, 84
1, 265430, Note_on_c, 7, 63, 68
1, 265430, Note_on_c, 10, 56, 76
1, 265481, Note_off_c, 5, 63, 0
1, 265481, Note_off_c, 10, 63, 0
1, 265517, Note_off_c, 3, 61, 0
1, 265517, Note_off_c, 7, 61, 0
1, 265594, Note_off_c, 9, 82, 0
1, 265625, Note_off_c, 9, 42, 0
1, 265644, Note_off_c, 9, 70, 0
1, 265670, Note_off_c, 9, 37, 0
1, 265677, Note_off_c, 0, 25, 0
1, 265910, Note_on_c, 0, 25, 74
1, 265910, Note_on_c, 3, 61, 90
1, 265910, Note_on_c, 5, 61, 90
1, 265910, Note_on_c, 9, 36, 102
1, 265910, Note_on_c, 9, 42, 108
1, 265910, Note_on_c, 9, 70, 87
1, 265910, Note_on_c, 9, 60, 78
1, 265910, Note_on_c, 7, 61, 90
1, 265910, Note_on_c, 10, 61, 90
1, 266128, Note_off_c, 9, 70, 0
1, 266146, Note_off_c, 9, 42, 0
1, 266146, Note_off_c, 9, 60, 0
1, 266150, Note_off_c, 9, 36, 0
1, 266372, Note_off_c, 0, 25, 0
1, 266390, Note_on_c, 0, 30, 93
1, 266390, Note_on_c, 9, 42, 66
1, 266390, Note_on_c, 9, 70, 74
1, 266558, Note_off_c, 9, 70, 0
1, 266574, Note_off_c, 9, 42, 0
1, 266581, Note_off_c, 3, 58, 0
1, 266581, Note_off_c, 7, 58, 0
1, 266791, Note_off_c, 3, 63, 0
1, 266791, Note_off_c, 7, 63, 0
1, 266834, Note_off_c, 5, 54, 0
1, 266834, Note_off_c, 10, 54, 0
1, 266870, Note_on_c, 3, 58, 72
1, 266870, Note_on_c, 9, 42, 76
1, 266870, Note_on_c, 9, 70, 78
1, 266870, Note_on_c, 9, 62, 84
1, 266870, Note_on_c, 9, 46, 102
1, 266870, Note_on_c, 7, 58, 72
1, 267041, Note_off_c, 9, 70, 0
1, 267048, Note_off_c, 3, 61, 0
1, 267048, Note_off_c, 7, 61, 0
1, 267079, Note_off_c, 9, 42, 0
1, 267110, Note_off_c, 9, 46, 0
1, 267158, Note_off_c, 9, 62, 0
1, 267165, Note_off_c, 0, 30, 0
1, 267350, Note_on_c, 0, 30, 90
1, 267350, Note_on_c, 3, 61, 62
1, 267350, Note_on_c, 5, 54, 93
1, 267350, Note_on_c, 9, 37, 99
1, 267350, Note_on_c, 9, 42, 93
1, 267350, Note_on_c, 9, 82, 87
1, 267350, Note_on_c, 9, 70, 93
1, 267350, Note_on_c, 7, 61, 62
1, 267350, Note_on_c, 10, 54, 93
1, 267399, Note_on_c, 2, 73, 108
1, 267525, Note_off_c, 9, 82, 0
1, 267563, Note_off_c, 2, 73, 0
1, 267566, Note_off_c, 9, 42, 0
1, 267566, Note_off_c, 9, 70, 0
1, 267590, Note_off_c, 9, 37, 0
1, 267614, Lyric_t, "\\Cu"
1, 267631, Note_off_c, 0, 30, 0
1, 267672, Note_off_c, 5, 56, 0
1, 267672, Note_off_c, 10, 56, 0
1, 267807, Lyric_t, "an"
1, 267830, Note_on_c, 0, 30, 87
1, 267830, Note_on_c, 9, 36, 102
1, 267830, Note_on_c, 9, 42, 87
1, 267830, Note_on_c, 9, 70, 80
1, 267830, Note_on_c, 9, 60, 74
1, 267830, Note_on_c, 9, 46, 108
1, 267868, Note_on_c, 2, 73, 108
1, 268008, Note_off_c, 3, 58, 0
1, 268008, Note_off_c, 7, 58, 0
1, 268025, Note_off_c, 9, 42, 0
1, 268040, Note_off_c, 9, 70, 0
1, 268047, Lyric_t, "do"
1, 268053, Note_off_c, 2, 73, 0
1, 268070, Note_off_c, 9, 36, 0
1, 268070, Note_off_c, 9, 46, 0
1, 268094, Note_off_c, 9, 60, 0
1, 268113, Note_off_c, 0, 30, 0
1, 268310, Note_on_c, 0, 30, 102
1, 268310, Note_on_c, 3, 58, 70
1, 268310, Note_on_c, 5, 56, 99
1, 268310, Note_on_c, 9, 36, 93
1, 268310, Note_on_c, 9, 42, 84
1, 268310, Note_on_c, 9, 70, 87
1, 268310, Note_on_c, 7, 58, 70
1, 268310, Note_on_c, 10, 56, 99
1, 268314, Note_off_c, 5, 61, 0
1, 268314, Note_off_c, 10, 61, 0
1, 268334, Note_on_c, 2, 73, 114
1, 268365, Lyric_t, " me"
1, 268489, Note_off_c, 9, 42, 0
1, 268535, Note_off_c, 9, 70, 0
1, 268550, Note_off_c, 9, 36, 0
1, 268685, Lyric_t, " e"
1, 268713, Note_off_c, 3, 54, 0
1, 268713, Note_off_c, 7, 54, 0
1, 268716, Note_off_c, 3, 58, 0
1, 268716, Note_off_c, 7, 58, 0
1, 268773, Note_off_c, 2, 73, 0
1, 268781, Note_on_c, 2, 75, 105
1, 268787, Note_off_c, 0, 30, 0
1, 268790, Note_on_c, 0, 30, 87
1, 268790, Note_on_c, 3, 56, 87
1, 268790, Note_on_c, 9, 42, 78
1, 268790, Note_on_c, 9, 70, 78
1, 268790, Note_on_c, 9, 61, 78
1, 268790, Note_on_c, 9, 45, 96
1, 268790, Note_on_c, 7, 56, 87
1, 268935, Note_off_c, 9, 45, 0
1, 268946, Note_off_c, 9, 42, 0
1, 268995, Note_off_c, 9, 70, 0
1, 269029, Lyric_t, "na"
1, 269030, Note_off_c, 9, 61, 0
1, 269030, Note_on_c, 9, 41, 102
1, 269154, Note_off_c, 9, 41, 0
1, 269224, Note_off_c, 2, 75, 0
1, 269239, Note_on_c, 2, 77, 90
1, 269242, Note_off_c, 0, 30, 0
1, 269270, Note_on_c, 0, 32, 105
1, 269270, Note_on_c, 3, 58, 72
1, 269270, Note_on_c, 5, 61, 90
1, 269270, Note_on_c, 9, 37, 105
1, 269270, Note_on_c, 9, 42, 105
1, 269270, Note_on_c, 9, 70, 93
1, 269270, Note_on_c, 9, 43, 114
1, 269270, Note_on_c, 7, 58, 72
1, 269270, Note_on_c, 10, 61, 90
1, 269373, Note_off_c, 9, 43, 0
1, 269394, Lyric_t, "mo"
1, 269460, Note_off_c, 9, 42, 0
1, 269484, Note_off_c, 9, 70, 0
1, 269588, Note_off_c, 9, 37, 0
1, 269657, Note_off_c, 5, 54, 0
1, 269657, Note_off_c, 10, 54, 0
1, 269663, Note_off_c, 0, 32, 0
1, 269671, Note_off_c, 2, 77, 0
1, 269720, Note_off_c, 3, 61, 0
1, 269720, Note_off_c, 7, 61, 0
1, 269750, Note_on_c, 0, 37, 93
1, 269750, Note_on_c, 3, 63, 82
1, 269750, Note_on_c, 9, 46, 102
1, 269750, Note_on_c, 9, 82, 74
1, 269750, Note_on_c, 9, 70, 99
1, 269750, Note_on_c, 9, 62, 96
1, 269750, Note_on_c, 7, 63, 82
1, 269762, Note_on_c, 2, 77, 84
1, 269864, Note_off_c, 5, 61, 0
1, 269864, Note_off_c, 10, 61, 0
1, 269868, Lyric_t, "r"
1, 269889, Note_off_c, 5, 56, 0
1, 269889, Note_off_c, 10, 56, 0
1, 269933, Note_off_c, 9, 82, 0
1, 269947, Note_off_c, 9, 70, 0
1, 269990, Note_off_c, 9, 62, 0
1, 270007, Note_off_c, 9, 46, 0
1, 270026, Note_off_c, 3, 58, 0
1, 270026, Note_off_c, 7, 58, 0
1, 270080, Lyric_t, "o"
1, 270084, Note_off_c, 3, 56, 0
1, 270084, Note_off_c, 7, 56, 0
1, 270134, Note_off_c, 2, 77, 0
1, 270230, Note_on_c, 0, 25, 105
1, 270230, Note_on_c, 1, 56, 58
1, 270230, Note_on_c, 3, 61, 99
1, 270230, Note_on_c, 5, 61, 90
1, 270230, Note_on_c, 6, 56, 58
1, 270230, Note_on_c, 9, 36, 84
1, 270230, Note_on_c, 9, 49, 114
1, 270230, Note_on_c, 9, 70, 90
1, 270230, Note_on_c, 9, 60, 111
1, 270230, Note_on_c, 9, 51, 93
1, 270230, Note_on_c, 7, 61, 99
1, 270230, Note_on_c, 10, 61, 90
1, 270246, Note_off_c, 3, 63, 0
1, 270246, Note_off_c, 7, 63, 0
1, 270275, Note_off_c, 0, 37, 0
1, 270334, Lyric_t, "."
1, 270443, Note_off_c, 9, 70, 0
1, 270446, Note_off_c, 9, 60, 0
1, 270470, Note_off_c, 9, 36, 0
1, 270470, Note_off_c, 9, 49, 0
1, 270470, Note_off_c, 9, 51, 0
1, 270501, Control_c, 5, 64, 127
1, 270501, Control_c, 10, 64, 127
1, 270710, Note_on_c, 3, 49, 76
1, 270710, Note_on_c, 9, 70, 78
1, 270710, Note_on_c, 9, 61, 82
1, 270710, Note_on_c, 9, 51, 45
1, 270710, Note_on_c, 7, 49, 76
1, 270814, Note_off_c, 9, 61, 0
1, 270905, Note_off_c, 9, 70, 0
1, 270916, Note_off_c, 9, 51, 0
1, 271167, Lyric_t, "."
1, 271190, Note_on_c, 3, 56, 72
1, 271190, Note_on_c, 5, 49, 70
1, 271190, Note_on_c, 9, 38, 87
1, 271190, Note_on_c, 9, 70, 90
1, 271190, Note_on_c, 9, 82, 82
1, 271190, Note_on_c, 9, 51, 80
1, 271190, Note_on_c, 7, 56, 72
1, 271190, Note_on_c, 10, 49, 70
1, 271308, Note_off_c, 0, 25, 0
1, 271339, Note_off_c, 9, 82, 0
1, 271387, Note_off_c, 9, 70, 0
1, 271430, Note_off_c, 9, 38, 0
1, 271508, Note_off_c, 9, 51, 0
1, 271514, Note_off_c, 3, 61, 0
1, 271514, Note_off_c, 7, 61, 0
1, 271612, Note_off_c, 5, 61, 0
1, 271612, Note_off_c, 10, 61, 0
1, 271670, Note_on_c, 0, 25, 105
1, 271670, Note_on_c, 3, 63, 90
1, 271670, Note_on_c, 5, 63, 93
1, 271670, Note_on_c, 9, 36, 78
1, 271670, Note_on_c, 9, 70, 99
1, 271670, Note_on_c, 9, 62, 90
1, 271670, Note_on_c, 9, 51, 74
1, 271670, Note_on_c, 7, 63, 90
1, 271670, Note_on_c, 10, 63, 93
1, 271681, Note_on_c, 2, 68, 102
1, 271869, Note_off_c, 9, 62, 0
1, 271897, Note_off_c, 9, 70, 0
1, 271910, Note_off_c, 0, 25, 0
1, 271910, Note_off_c, 9, 36, 0
1, 271946, Note_off_c, 9, 51, 0
1, 271946, Lyric_t, "\\A"
1, 272128, Note_on_c, 2, 80, 93
1, 272135, Note_off_c, 2, 68, 0
1, 272150, Note_on_c, 0, 32, 99
1, 272150, Note_on_c, 9, 36, 84
1, 272150, Note_on_c, 9, 70, 76
1, 272150, Note_on_c, 9, 51, 68
1, 272287, Lyric_t, " ve"
1, 272338, Note_off_c, 9, 70, 0
1, 272378, Note_off_c, 3, 49, 0
1, 272378, Note_off_c, 7, 49, 0
1, 272390, Note_off_c, 9, 36, 0
1, 272450, Note_off_c, 9, 51, 0
1, 272512, Note_off_c, 3, 56, 0
1, 272512, Note_off_c, 7, 56, 0
1, 272523, Note_off_c, 2, 80, 0
1, 272630, Note_on_c, 3, 49, 76
1, 272630, Note_on_c, 5, 56, 74
1, 272630, Note_on_c, 9, 70, 64
1, 272630, Note_on_c, 9, 60, 93
1, 272630, Note_on_c, 9, 51, 66
1, 272630, Note_on_c, 7, 49, 76
1, 272630, Note_on_c, 10, 56, 74
1, 272653, Note_on_c, 2, 78, 108
1, 272717, Lyric_t, "ces"
1, 272796, Note_off_c, 9, 70, 0
1, 272827, Note_off_c, 9, 51, 0
1, 272835, Note_off_c, 9, 60, 0
1, 272927, Note_off_c, 2, 78, 0
1, 273110, Note_on_c, 3, 56, 76
1, 273110, Note_on_c, 9, 38, 87
1, 273110, Note_on_c, 9, 70, 102
1, 273110, Note_on_c, 9, 51, 99
1, 273110, Note_on_c, 7, 56, 76
1, 273156, Note_on_c, 2, 78, 105
1, 273189, Lyric_t, " de"
1, 273249, Note_off_c, 0, 32, 0
1, 273341, Note_off_c, 9, 70, 0
1, 273350, Note_off_c, 9, 38, 0
1, 273350, Note_off_c, 9, 51, 0
1, 273441, Note_off_c, 5, 63, 0
1, 273441, Note_off_c, 10, 63, 0
1, 273511, Note_off_c, 3, 63, 0
1, 273511, Note_off_c, 7, 63, 0
1, 273526, Note_off_c, 2, 78, 0
1, 273590, Note_on_c, 0, 32, 102
1, 273590, Note_on_c, 2, 77, 80
1, 273590, Note_on_c, 3, 65, 82
1, 273590, Note_on_c, 5, 65, 82
1, 273590, Note_on_c, 9, 36, 93
1, 273590, Note_on_c, 9, 82, 74
1, 273590, Note_on_c, 9, 70, 102
1, 273590, Note_on_c, 9, 61, 87
1, 273590, Note_on_c, 9, 51, 57
1, 273590, Note_on_c, 7, 65, 82
1, 273590, Note_on_c, 10, 65, 82
1, 273593, Note_off_c, 5, 49, 0
1, 273593, Note_off_c, 10, 49, 0
1, 273671, Lyric_t, "ses"
1, 273686, Note_off_c, 5, 56, 0
1, 273686, Note_off_c, 10, 56, 0
1, 273759, Note_off_c, 9, 82, 0
1, 273795, Note_off_c, 9, 61, 0
1, 273819, Note_off_c, 0, 32, 0
1, 273819, Note_off_c, 9, 51, 0
1, 273830, Note_off_c, 9, 36, 0
1, 273830, Note_off_c, 9, 70, 0
1, 273845, Note_off_c, 2, 77, 0
1, 274066, Note_on_c, 2, 77, 84
1, 274070, Note_on_c, 0, 25, 102
1, 274070, Note_on_c, 1, 61, 62
1, 274070, Note_on_c, 6, 61, 62
1, 274070, Note_on_c, 9, 70, 76
1, 274070, Note_on_c, 9, 51, 87
1, 274100, Lyric_t, "pe"
1, 274245, Note_off_c, 9, 70, 0
1, 274310, Note_off_c, 9, 51, 0
1, 274349, Note_off_c, 3, 49, 0
1, 274349, Note_off_c, 7, 49, 0
1, 274408, Note_off_c, 3, 56, 0
1, 274408, Note_off_c, 7, 56, 0
1, 274550, Note_on_c, 3, 49, 72
1, 274550, Note_on_c, 5, 49, 68
1, 274550, Note_on_c, 9, 70, 74
1, 274550, Note_on_c, 9, 62, 93
1, 274550, Note_on_c, 9, 51, 62
1, 274550, Note_on_c, 7, 49, 72
1, 274550, Note_on_c, 10, 49, 68
1, 274560, Note_on_c, 2, 75, 87
1, 274578, Note_off_c, 2, 77, 0
1, 274678, Lyric_t, "ro"
1, 274746, Note_off_c, 9, 70, 0
1, 274753, Note_off_c, 9, 51, 0
1, 274786, Note_off_c, 9, 62, 0
1, 274804, Note_off_c, 2, 75, 0
1, 275030, Note_on_c, 3, 56, 76
1, 275030, Note_on_c, 5, 56, 72
1, 275030, Note_on_c, 9, 38, 90
1, 275030, Note_on_c, 9, 70, 93
1, 275030, Note_on_c, 9, 51, 93
1, 275030, Note_on_c, 7, 56, 76
1, 275030, Note_on_c, 10, 56, 72
1, 275046, Note_on_c, 2, 73, 102
1, 275085, Lyric_t, "\\Cu"
1, 275243, Note_off_c, 2, 73, 0
1, 275256, Note_off_c, 9, 70, 0
1, 275270, Note_off_c, 9, 38, 0
1, 275270, Note_off_c, 9, 51, 0
1, 275308, Note_off_c, 0, 25, 0
1, 275337, Lyric_t, "an"
1, 275387, Note_off_c, 5, 65, 0
1, 275387, Note_off_c, 10, 65, 0
1, 275508, Note_off_c, 3, 65, 0
1, 275508, Note_off_c, 7, 65, 0
1, 275510, Note_on_c, 0, 25, 102
1, 275510, Note_on_c, 3, 63, 87
1, 275510, Note_on_c, 5, 63, 99
1, 275510, Note_on_c, 9, 36, 78
1, 275510, Note_on_c, 9, 70, 78
1, 275510, Note_on_c, 9, 62, 99
1, 275510, Note_on_c, 9, 51, 72
1, 275510, Note_on_c, 7, 63, 87
1, 275510, Note_on_c, 10, 63, 99
1, 275534, Note_on_c, 2, 73, 108
1, 275614, Lyric_t, "do"
1, 275689, Note_off_c, 9, 70, 0
1, 275746, Note_off_c, 2, 73, 0
1, 275750, Note_off_c, 9, 36, 0
1, 275750, Note_off_c, 9, 62, 0
1, 275758, Note_off_c, 9, 51, 0
1, 275783, Note_off_c, 0, 25, 0
1, 275990, Note_on_c, 0, 32, 99
1, 275990, Note_on_c, 9, 36, 87
1, 275990, Note_on_c, 9, 70, 93
1, 275990, Note_on_c, 9, 51, 80
1, 276012, Lyric_t, " me"
1, 276020, Note_on_c, 2, 73, 105
1, 276174, Note_off_c, 3, 49, 0
1, 276174, Note_off_c, 7, 49, 0
1, 276180, Note_off_c, 5, 49, 0
1, 276180, Note_off_c, 10, 49, 0
1, 276199, Note_off_c, 5, 56, 0
1, 276199, Note_off_c, 10, 56, 0
1, 276200, Note_off_c, 9, 70, 0
1, 276230, Note_off_c, 9, 36, 0
1, 276230, Note_off_c, 9, 51, 0
1, 276254, Note_off_c, 3, 56, 0
1, 276254, Note_off_c, 7, 56, 0
1, 276330, Lyric_t, " e"
1, 276465, Note_on_c, 2, 75, 99
1, 276470, Note_on_c, 3, 49, 72
1, 276470, Note_on_c, 9, 70, 76
1, 276470, Note_on_c, 9, 61, 78
1, 276470, Note_on_c, 9, 51, 72
1, 276470, Note_on_c, 7, 49, 72
1, 276485, Note_off_c, 2, 73, 0
1, 276603, Lyric_t, "na"
1, 276626, Note_off_c, 9, 70, 0
1, 276680, Note_off_c, 9, 51, 0
1, 276761, Note_off_c, 9, 61, 0
1, 276798, Note_off_c, 0, 32, 0
1, 276895, Note_off_c, 2, 75, 0
1, 276947, Note_on_c, 2, 77, 99
1, 276950, Note_on_c, 0, 32, 105
1, 276950, Note_on_c, 3, 56, 84
1, 276950, Note_on_c, 5, 56, 87
1, 276950, Note_on_c, 9, 38, 93
1, 276950, Note_on_c, 9, 70, 102
1, 276950, Note_on_c, 9, 82, 78
1, 276950, Note_on_c, 9, 51, 102
1, 276950, Note_on_c, 7, 56, 84
1, 276950, Note_on_c, 10, 56, 87
1, 276976, Lyric_t, "mo"
1, 277114, Note_off_c, 9, 70, 0
1, 277114, Note_off_c, 9, 82, 0
1, 277190, Note_off_c, 9, 38, 0
1, 277274, Note_off_c, 9, 51, 0
1, 277327, Note_off_c, 3, 63, 0
1, 277327, Note_off_c, 7, 63, 0
1, 277353, Note_off_c, 2, 77, 0
1, 277430, Note_on_c, 3, 61, 87
1, 277430, Note_on_c, 9, 82, 87
1, 277430, Note_on_c, 9, 70, 82
1, 277430, Note_on_c, 9, 61, 76
1, 277430, Note_on_c, 9, 51, 66
1, 277430, Note_on_c, 7, 61, 87
1, 277459, Note_on_c, 2, 77, 96
1, 277481, Lyric_t, "r"
1, 277614, Note_off_c, 9, 82, 0
1, 277622, Note_off_c, 9, 70, 0
1, 277627, Note_off_c, 9, 51, 0
1, 277683, Note_off_c, 9, 61, 0
1, 277690, Lyric_t, "o"
1, 277742, Note_off_c, 5, 56, 0
1, 277742, Note_off_c, 10, 56, 0
1, 277771, Note_off_c, 3, 61, 0
1, 277771, Note_off_c, 7, 61, 0
1, 277808, Note_off_c, 0, 32, 0
1, 277840, Note_off_c, 5, 63, 0
1, 277840, Note_off_c, 10, 63, 0
1, 277910, Note_off_c, 2, 77, 0
1, 277910, Note_on_c, 0, 25, 99
1, 277910, Note_on_c, 3, 61, 90
1, 277910, Note_on_c, 5, 61, 90
1, 277910, Note_on_c, 5, 49, 50
1, 277910, Note_on_c, 9, 36, 84
1, 277910, Note_on_c, 9, 70, 93
1, 277910, Note_on_c, 9, 60, 82
1, 277910, Note_on_c, 9, 51, 99
1, 277910, Note_on_c, 7, 61, 90
1, 277910, Note_on_c, 10, 61, 90
1, 277910, Note_on_c, 10, 49, 50
1, 277934, Lyric_t, "."
1, 278099, Note_off_c, 3, 49, 0
1, 278099, Note_off_c, 7, 49, 0
1, 278105, Note_off_c, 9, 60, 0
1, 278144, Note_off_c, 9, 70, 0
1, 278150, Note_off_c, 9, 36, 0
1, 278150, Note_off_c, 9, 51, 0
1, 278188, Note_off_c, 3, 56, 0
1, 278188, Note_off_c, 7, 56, 0
1, 278390, Note_on_c, 3, 49, 82
1, 278390, Note_on_c, 9, 70, 76
1, 278390, Note_on_c, 9, 61, 72
1, 278390, Note_on_c, 9, 51, 61
1, 278390, Note_on_c, 7, 49, 82
1, 278471, Lyric_t, "."
1, 278556, Note_off_c, 9, 70, 0
1, 278593, Note_off_c, 9, 51, 0
1, 278744, Note_off_c, 9, 61, 0
1, 278870, Note_on_c, 3, 56, 72
1, 278870, Note_on_c, 5, 56, 76
1, 278870, Note_on_c, 9, 38, 84
1, 278870, Note_on_c, 9, 70, 102
1, 278870, Note_on_c, 9, 51, 93
1, 278870, Note_on_c, 7, 56, 72
1, 278870, Note_on_c, 10, 56, 76
1, 279015, Note_off_c, 0, 25, 0
1, 279097, Note_off_c, 9, 70, 0
1, 279110, Note_off_c, 9, 38, 0
1, 279110, Note_off_c, 9, 51, 0
1, 279184, Note_off_c, 3, 61, 0
1, 279184, Note_off_c, 7, 61, 0
1, 279235, Note_off_c, 5, 61, 0
1, 279235, Note_off_c, 10, 61, 0
1, 279350, Note_on_c, 0, 25, 99
1, 279350, Note_on_c, 3, 63, 90
1, 279350, Note_on_c, 5, 63, 99
1, 279350, Note_on_c, 9, 36, 93
1, 279350, Note_on_c, 9, 70, 93
1, 279350, Note_on_c, 9, 62, 82
1, 279350, Note_on_c, 9, 51, 78
1, 279350, Note_on_c, 7, 63, 90
1, 279350, Note_on_c, 10, 63, 99
1, 279549, Note_off_c, 9, 70, 0
1, 279590, Note_off_c, 9, 36, 0
1, 279590, Note_off_c, 9, 62, 0
1, 279590, Note_off_c, 9, 51, 0
1, 279605, Note_off_c, 0, 25, 0
1, 279606, Control_c, 5, 64, 0
1, 279606, Control_c, 10, 64, 0
1, 279796, Control_c, 5, 64, 127
1, 279796, Control_c, 10, 64, 127
1, 279830, Note_on_c, 0, 32, 99
1, 279830, Note_on_c, 9, 36, 84
1, 279830, Note_on_c, 9, 70, 82
1, 279830, Note_on_c, 9, 51, 72
1, 279847, Note_on_c, 2, 80, 108
1, 279990, Note_off_c, 5, 49, 0
1, 279990, Note_off_c, 10, 49, 0
1, 279991, Lyric_t, "\\Cu"
1, 280006, Note_off_c, 3, 49, 0
1, 280006, Note_off_c, 7, 49, 0
1, 280053, Note_off_c, 9, 70, 0
1, 280070, Note_off_c, 9, 36, 0
1, 280104, Note_off_c, 9, 51, 0
1, 280156, Note_off_c, 5, 56, 0
1, 280156, Note_off_c, 10, 56, 0
1, 280161, Note_off_c, 3, 56, 0
1, 280161, Note_off_c, 7, 56, 0
1, 280190, Lyric_t, "an"
1, 280264, Note_off_c, 2, 80, 0
1, 280275, Note_on_c, 2, 78, 76
1, 280310, Note_on_c, 3, 49, 76
1, 280310, Note_on_c, 5, 49, 76
1, 280310, Note_on_c, 9, 70, 72
1, 280310, Note_on_c, 9, 62, 99
1, 280310, Note_on_c, 9, 51, 74
1, 280310, Note_on_c, 7, 49, 76
1, 280310, Note_on_c, 10, 49, 76
1, 280424, Lyric_t, "do"
1, 280472, Note_off_c, 9, 70, 0
1, 280550, Note_off_c, 9, 62, 0
1, 280595, Note_off_c, 9, 51, 0
1, 280599, Note_off_c, 2, 78, 0
1, 280789, Note_on_c, 2, 78, 102
1, 280790, Note_on_c, 3, 56, 76
1, 280790, Note_on_c, 9, 38, 84
1, 280790, Note_on_c, 9, 70, 99
1, 280790, Note_on_c, 9, 82, 84
1, 280790, Note_on_c, 9, 51, 93
1, 280790, Note_on_c, 7, 56, 76
1, 280851, Lyric_t, " me"
1, 280954, Note_off_c, 9, 82, 0
1, 281004, Note_off_c, 9, 70, 0
1, 281013, Note_off_c, 0, 32, 0
1, 281030, Note_off_c, 9, 38, 0
1, 281030, Note_off_c, 9, 51, 0
1, 281131, Note_off_c, 3, 63, 0
1, 281131, Note_off_c, 7, 63, 0
1, 281262, Note_on_c, 2, 77, 80
1, 281270, Note_off_c, 2, 78, 0
1, 281270, Note_on_c, 0, 32, 99
1, 281270, Note_on_c, 3, 65, 84
1, 281270, Note_on_c, 5, 65, 82
1, 281270, Note_on_c, 9, 36, 102
1, 281270, Note_on_c, 9, 70, 87
1, 281270, Note_on_c, 9, 60, 78
1, 281270, Note_on_c, 9, 51, 76
1, 281270, Note_on_c, 7, 65, 84
1, 281270, Note_on_c, 10, 65, 82
1, 281301, Note_off_c, 5, 63, 0
1, 281301, Note_off_c, 10, 63, 0
1, 281355, Lyric_t, "nos"
1, 281488, Note_off_c, 0, 32, 0
1, 281488, Note_off_c, 9, 70, 0
1, 281506, Note_off_c, 9, 60, 0
1, 281510, Note_off_c, 9, 36, 0
1, 281523, Note_off_c, 9, 51, 0
1, 281545, Note_off_c, 2, 77, 0
1, 281715, Note_on_c, 2, 77, 90
1, 281741, Lyric_t, " me"
1, 281750, Note_on_c, 0, 25, 102
1, 281750, Note_on_c, 9, 70, 74
1, 281750, Note_on_c, 9, 51, 90
1, 281911, Note_off_c, 3, 49, 0
1, 281911, Note_off_c, 7, 49, 0
1, 281918, Note_off_c, 9, 70, 0
1, 281990, Note_off_c, 9, 51, 0
1, 281993, Note_off_c, 3, 56, 0
1, 281993, Note_off_c, 7, 56, 0
1, 282112, Lyric_t, " lo"
1, 282182, Note_off_c, 2, 77, 0
1, 282204, Note_on_c, 2, 75, 84
1, 282230, Note_on_c, 3, 49, 74
1, 282230, Note_on_c, 5, 56, 70
1, 282230, Note_on_c, 9, 70, 78
1, 282230, Note_on_c, 9, 62, 84
1, 282230, Note_on_c, 9, 51, 74
1, 282230, Note_on_c, 7, 49, 74
1, 282230, Note_on_c, 10, 56, 70
1, 282354, Lyric_t, " es"
1, 282401, Note_off_c, 9, 70, 0
1, 282450, Note_off_c, 9, 51, 0
1, 282470, Note_off_c, 9, 62, 0
1, 282495, Note_off_c, 2, 75, 0
1, 282700, Note_on_c, 2, 75, 76
1, 282710, Note_on_c, 3, 56, 76
1, 282710, Note_on_c, 9, 38, 99
1, 282710, Note_on_c, 9, 82, 87
1, 282710, Note_on_c, 9, 70, 93
1, 282710, Note_on_c, 9, 51, 99
1, 282710, Note_on_c, 7, 56, 76
1, 282740, Lyric_t, "pe"
1, 282885, Note_off_c, 9, 82, 0
1, 282923, Note_off_c, 0, 25, 0
1, 282926, Note_off_c, 9, 70, 0
1, 282934, Note_off_c, 5, 65, 0
1, 282934, Note_off_c, 10, 65, 0
1, 282950, Note_off_c, 9, 38, 0
1, 283002, Note_off_c, 9, 51, 0
1, 283135, Note_off_c, 2, 75, 0
1, 283138, Note_off_c, 3, 65, 0
1, 283138, Note_off_c, 7, 65, 0
1, 283171, Note_on_c, 2, 73, 87
1, 283190, Note_on_c, 0, 25, 90
1, 283190, Note_on_c, 3, 63, 99
1, 283190, Note_on_c, 5, 63, 80
1, 283190, Note_on_c, 9, 36, 84
1, 283190, Note_on_c, 9, 70, 80
1, 283190, Note_on_c, 9, 60, 74
1, 283190, Note_on_c, 9, 51, 80
1, 283190, Note_on_c, 7, 63, 99
1, 283190, Note_on_c, 10, 63, 80
1, 283255, Lyric_t, "ro"
1, 283387, Note_off_c, 5, 56, 0
1, 283387, Note_off_c, 10, 56, 0
1, 283400, Note_off_c, 9, 70, 0
1, 283423, Note_off_c, 9, 51, 0
1, 283430, Note_off_c, 9, 36, 0
1, 283430, Note_off_c, 9, 60, 0
1, 283441, Note_off_c, 0, 25, 0
1, 283482, Note_off_c, 2, 73, 0
1, 283665, Lyric_t, "\\Me"
1, 283666, Note_on_c, 2, 73, 93
1, 283670, Note_on_c, 0, 25, 93
1, 283670, Note_on_c, 9, 36, 87
1, 283670, Note_on_c, 9, 70, 87
1, 283670, Note_on_c, 9, 51, 87
1, 283727, Note_off_c, 3, 49, 0
1, 283727, Note_off_c, 7, 49, 0
1, 283854, Note_off_c, 3, 56, 0
1, 283854, Note_off_c, 7, 56, 0
1, 283895, Note_off_c, 9, 70, 0
1, 283910, Note_off_c, 9, 36, 0
1, 283910, Note_off_c, 9, 51, 0
1, 283940, Lyric_t, " e"
1, 284076, Note_off_c, 2, 73, 0
1, 284106, Note_off_c, 5, 63, 0
1, 284106, Note_off_c, 10, 63, 0
1, 284113, Note_on_c, 2, 75, 105
1, 284150, Note_on_c, 3, 49, 78
1, 284150, Note_on_c, 5, 61, 90
1, 284150, Note_on_c, 9, 70, 78
1, 284150, Note_on_c, 9, 61, 78
1, 284150, Note_on_c, 9, 51, 80
1, 284150, Note_on_c, 7, 49, 78
1, 284150, Note_on_c, 10, 61, 90
1, 284207, Lyric_t, "na"
1, 284355, Note_off_c, 9, 70, 0
1, 284388, Note_off_c, 9, 51, 0
1, 284390, Note_off_c, 9, 61, 0
1, 284444, Note_off_c, 2, 75, 0
1, 284495, Note_off_c, 0, 25, 0
1, 284582, Lyric_t, "mo"
1, 284630, Note_on_c, 0, 25, 82
1, 284630, Note_on_c, 3, 56, 93
1, 284630, Note_on_c, 5, 56, 76
1, 284630, Note_on_c, 9, 38, 93
1, 284630, Note_on_c, 9, 70, 93
1, 284630, Note_on_c, 9, 51, 99
1, 284630, Note_on_c, 7, 56, 93
1, 284630, Note_on_c, 10, 56, 76
1, 284631, Note_on_c, 2, 75, 108
1, 284640, Note_off_c, 5, 49, 0
1, 284640, Note_off_c, 10, 49, 0
1, 284844, Note_off_c, 9, 70, 0
1, 284870, Note_off_c, 9, 38, 0
1, 284962, Note_off_c, 9, 51, 0
1, 285009, Note_off_c, 3, 63, 0
1, 285009, Note_off_c, 7, 63, 0
1, 285055, Note_off_c, 2, 75, 0
1, 285068, Note_on_c, 2, 72, 87
1, 285093, Note_off_c, 0, 25, 0
1, 285110, Note_on_c, 0, 27, 76
1, 285110, Note_on_c, 3, 61, 90
1, 285110, Note_on_c, 9, 82, 74
1, 285110, Note_on_c, 9, 70, 99
1, 285110, Note_on_c, 9, 62, 96
1, 285110, Note_on_c, 9, 51, 76
1, 285110, Note_on_c, 7, 61, 90
1, 285193, Lyric_t, "r"
1, 285293, Note_off_c, 9, 82, 0
1, 285307, Note_off_c, 9, 70, 0
1, 285326, Note_off_c, 9, 51, 0
1, 285390, Note_off_c, 9, 62, 0
1, 285417, Lyric_t, "o"
1, 285460, Note_off_c, 1, 61, 0
1, 285460, Note_off_c, 6, 61, 0
1, 285506, Note_off_c, 5, 61, 0
1, 285506, Note_off_c, 10, 61, 0
1, 285518, Control_c, 5, 64, 0
1, 285518, Control_c, 10, 64, 0
1, 285520, Note_off_c, 3, 49, 0
1, 285520, Note_off_c, 7, 49, 0
1, 285590, Note_on_c, 0, 32, 93
1, 285590, Note_on_c, 1, 60, 72
1, 285590, Note_on_c, 3, 60, 80
1, 285590, Note_on_c, 5, 60, 93
1, 285590, Note_on_c, 6, 60, 72
1, 285590, Note_on_c, 9, 36, 84
1, 285590, Note_on_c, 9, 70, 90
1, 285590, Note_on_c, 9, 60, 111
1, 285590, Note_on_c, 9, 51, 93
1, 285590, Note_on_c, 7, 60, 80
1, 285590, Note_on_c, 10, 60, 93
1, 285591, Note_off_c, 0, 27, 0
1, 285593, Note_off_c, 3, 61, 0
1, 285593, Note_off_c, 7, 61, 0
1, 285653, Note_off_c, 2, 72, 0
1, 285669, Lyric_t, "."
1, 285710, Control_c, 5, 64, 127
1, 285710, Control_c, 10, 64, 127
1, 285717, Note_off_c, 5, 56, 0
1, 285717, Note_off_c, 10, 56, 0
1, 285767, Note_off_c, 3, 56, 0
1, 285767, Note_off_c, 7, 56, 0
1, 285803, Note_off_c, 9, 70, 0
1, 285806, Note_off_c, 9, 60, 0
1, 285830, Note_off_c, 9, 36, 0
1, 285879, Note_off_c, 9, 51, 0
1, 286070, Note_on_c, 3, 56, 74
1, 286070, Note_on_c, 9, 70, 78
1, 286070, Note_on_c, 9, 61, 82
1, 286070, Note_on_c, 9, 51, 45
1, 286070, Note_on_c, 7, 56, 74
1, 286174, Note_off_c, 9, 61, 0
1, 286265, Note_off_c, 9, 70, 0
1, 286276, Note_off_c, 9, 51, 0
1, 286550, Note_on_c, 5, 56, 74
1, 286550, Note_on_c, 9, 38, 87
1, 286550, Note_on_c, 9, 70, 90
1, 286550, Note_on_c, 9, 82, 82
1, 286550, Note_on_c, 9, 51, 80
1, 286550, Note_on_c, 10, 56, 74
1, 286555, Lyric_t, "."
1, 286699, Note_off_c, 9, 82, 0
1, 286728, Note_off_c, 0, 32, 0
1, 286747, Note_off_c, 9, 70, 0
1, 286790, Note_off_c, 9, 38, 0
1, 286868, Note_off_c, 9, 51, 0
1, 286912, Note_off_c, 5, 60, 0
1, 286912, Note_off_c, 10, 60, 0
1, 287030, Note_on_c, 0, 32, 105
1, 287030, Note_on_c, 3, 61, 78
1, 287030, Note_on_c, 5, 61, 80
1, 287030, Note_on_c, 9, 36, 78
1, 287030, Note_on_c, 9, 70, 99
1, 287030, Note_on_c, 9, 62, 90
1, 287030, Note_on_c, 9, 51, 74
1, 287030, Note_on_c, 7, 61, 78
1, 287030, Note_on_c, 10, 61, 80
1, 287049, Note_off_c, 3, 60, 0
1, 287049, Note_off_c, 7, 60, 0
1, 287229, Note_off_c, 9, 62, 0
1, 287257, Note_off_c, 9, 70, 0
1, 287270, Note_off_c, 9, 36, 0
1, 287306, Note_off_c, 9, 51, 0
1, 287389, Note_off_c, 0, 32, 0
1, 287510, Note_on_c, 0, 27, 93
1, 287510, Note_on_c, 9, 36, 84
1, 287510, Note_on_c, 9, 70, 76
1, 287510, Note_on_c, 9, 51, 68
1, 287570, Note_off_c, 3, 56, 0
1, 287570, Note_off_c, 7, 56, 0
1, 287663, Note_off_c, 5, 56, 0
1, 287663, Note_off_c, 10, 56, 0
1, 287698, Note_off_c, 9, 70, 0
1, 287750, Note_off_c, 9, 36, 0
1, 287810, Note_off_c, 9, 51, 0
1, 287990, Note_on_c, 3, 56, 87
1, 287990, Note_on_c, 5, 56, 84
1, 287990, Note_on_c, 9, 70, 64
1, 287990, Note_on_c, 9, 60, 93
1, 287990, Note_on_c, 9, 51, 66
1, 287990, Note_on_c, 7, 56, 87
1, 287990, Note_on_c, 10, 56, 84
1, 288156, Note_off_c, 9, 70, 0
1, 288187, Note_off_c, 9, 51, 0
1, 288195, Note_off_c, 9, 60, 0
1, 288470, Note_on_c, 9, 38, 87
1, 288470, Note_on_c, 9, 70, 102
1, 288470, Note_on_c, 9, 51, 99
1, 288672, Note_off_c, 5, 61, 0
1, 288672, Note_off_c, 10, 61, 0
1, 288690, Note_off_c, 0, 27, 0
1, 288701, Note_off_c, 9, 70, 0
1, 288710, Note_off_c, 9, 38, 0
1, 288839, Note_off_c, 9, 51, 0
1, 288866, Note_off_c, 3, 61, 0
1, 288866, Note_off_c, 7, 61, 0
1, 288950, Note_on_c, 0, 27, 93
1, 288950, Note_on_c, 3, 60, 93
1, 288950, Note_on_c, 5, 60, 99
1, 288950, Note_on_c, 9, 36, 93
1, 288950, Note_on_c, 9, 82, 74
1, 288950, Note_on_c, 9, 70, 102
1, 288950, Note_on_c, 9, 61, 87
1, 288950, Note_on_c, 9, 51, 57
1, 288950, Note_on_c, 7, 60, 93
1, 288950, Note_on_c, 10, 60, 99
1, 289119, Note_off_c, 9, 82, 0
1, 289153, Note_off_c, 0, 27, 0
1, 289155, Note_off_c, 9, 61, 0
1, 289179, Note_off_c, 9, 51, 0
1, 289190, Note_off_c, 9, 36, 0
1, 289218, Note_off_c, 9, 70, 0
1, 289242, Control_c, 5, 64, 0
1, 289242, Control_c, 10, 64, 0
1, 289430, Note_on_c, 0, 32, 99
1, 289430, Note_on_c, 9, 70, 76
1, 289430, Note_on_c, 9, 51, 87
1, 289432, Control_c, 5, 64, 127
1, 289432, Control_c, 10, 64, 127
1, 289605, Note_off_c, 9, 70, 0
1, 289670, Note_off_c, 5, 56, 0
1, 289670, Note_off_c, 10, 56, 0
1, 289670, Note_off_c, 9, 51, 0
1, 289699, Note_off_c, 3, 56, 0
1, 289699, Note_off_c, 7, 56, 0
1, 289910, Note_on_c, 3, 56, 70
1, 289910, Note_on_c, 5, 56, 72
1, 289910, Note_on_c, 9, 70, 74
1, 289910, Note_on_c, 9, 62, 93
1, 289910, Note_on_c, 9, 51, 62
1, 289910, Note_on_c, 7, 56, 70
1, 289910, Note_on_c, 10, 56, 72
1, 290106, Note_off_c, 9, 70, 0
1, 290113, Note_off_c, 9, 51, 0
1, 290146, Note_off_c, 9, 62, 0
1, 290367, Note_on_c, 2, 72, 93
1, 290390, Note_on_c, 9, 38, 90
1, 290390, Note_on_c, 9, 70, 93
1, 290390, Note_on_c, 9, 51, 93
1, 290555, Lyric_t, "\\Se"
1, 290616, Note_off_c, 9, 70, 0
1, 290630, Note_off_c, 9, 38, 0
1, 290630, Note_off_c, 9, 51, 0
1, 290669, Note_off_c, 5, 60, 0
1, 290669, Note_off_c, 10, 60, 0
1, 290759, Note_off_c, 3, 60, 0
1, 290759, Note_off_c, 7, 60, 0
1, 290849, Note_on_c, 2, 73, 99
1, 290869, Note_off_c, 2, 72, 0
1, 290870, Note_on_c, 0, 27, 93
1, 290870, Note_on_c, 3, 61, 82
1, 290870, Note_on_c, 5, 61, 72
1, 290870, Note_on_c, 9, 36, 78
1, 290870, Note_on_c, 9, 70, 78
1, 290870, Note_on_c, 9, 62, 99
1, 290870, Note_on_c, 9, 51, 72
1, 290870, Note_on_c, 7, 61, 82
1, 290870, Note_on_c, 10, 61, 72
1, 290912, Note_off_c, 0, 32, 0
1, 290970, Lyric_t, " de"
1, 291049, Note_off_c, 9, 70, 0
1, 291050, Note_off_c, 0, 27, 0
1, 291087, Note_off_c, 2, 73, 0
1, 291110, Note_off_c, 9, 36, 0
1, 291110, Note_off_c, 9, 62, 0
1, 291118, Note_off_c, 9, 51, 0
1, 291204, Note_off_c, 5, 56, 0
1, 291204, Note_off_c, 10, 56, 0
1, 291257, Lyric_t, "ti"
1, 291350, Note_on_c, 0, 27, 87
1, 291350, Note_on_c, 9, 36, 87
1, 291350, Note_on_c, 9, 70, 93
1, 291350, Note_on_c, 9, 51, 80
1, 291374, Note_on_c, 2, 73, 108
1, 291501, Lyric_t, "e"
1, 291560, Note_off_c, 9, 70, 0
1, 291564, Note_off_c, 3, 56, 0
1, 291564, Note_off_c, 7, 56, 0
1, 291590, Note_off_c, 9, 36, 0
1, 291640, Note_off_c, 9, 51, 0
1, 291791, Note_off_c, 2, 73, 0
1, 291821, Note_on_c, 2, 75, 108
1, 291830, Note_on_c, 3, 56, 74
1, 291830, Note_on_c, 5, 56, 72
1, 291830, Note_on_c, 9, 70, 76
1, 291830, Note_on_c, 9, 61, 78
1, 291830, Note_on_c, 9, 51, 72
1, 291830, Note_on_c, 7, 56, 74
1, 291830, Note_on_c, 10, 56, 72
1, 291899, Lyric_t, "ne"
1, 291986, Note_off_c, 9, 70, 0
1, 292040, Note_off_c, 9, 51, 0
1, 292048, Note_off_c, 2, 75, 0
1, 292070, Note_off_c, 9, 61, 0
1, 292112, Lyric_t, " el"
1, 292251, Note_off_c, 0, 27, 0
1, 292310, Note_on_c, 0, 32, 105
1, 292310, Note_on_c, 9, 38, 93
1, 292310, Note_on_c, 9, 70, 102
1, 292310, Note_on_c, 9, 82, 78
1, 292310, Note_on_c, 9, 51, 102
1, 292311, Note_on_c, 2, 75, 108
1, 292387, Lyric_t, " ti"
1, 292474, Note_off_c, 9, 70, 0
1, 292474, Note_off_c, 9, 82, 0
1, 292531, Note_off_c, 5, 61, 0
1, 292531, Note_off_c, 10, 61, 0
1, 292550, Note_off_c, 9, 38, 0
1, 292634, Note_off_c, 9, 51, 0
1, 292750, Note_off_c, 3, 61, 0
1, 292750, Note_off_c, 7, 61, 0
1, 292761, Lyric_t, "em"
1, 292790, Note_on_c, 3, 60, 96
1, 292790, Note_on_c, 5, 60, 84
1, 292790, Note_on_c, 9, 82, 87
1, 292790, Note_on_c, 9, 70, 82
1, 292790, Note_on_c, 9, 61, 76
1, 292790, Note_on_c, 9, 51, 66
1, 292790, Note_on_c, 7, 60, 96
1, 292790, Note_on_c, 10, 60, 84
1, 292974, Note_off_c, 9, 82, 0
1, 292982, Note_off_c, 9, 70, 0
1, 292987, Note_off_c, 9, 51, 0
1, 293025, Note_off_c, 5, 56, 0
1, 293025, Note_off_c, 10, 56, 0
1, 293043, Note_off_c, 9, 61, 0
1, 293198, Control_c, 5, 64, 0
1, 293198, Control_c, 10, 64, 0
1, 293270, Note_on_c, 9, 36, 84
1, 293270, Note_on_c, 9, 70, 93
1, 293270, Note_on_c, 9, 60, 82
1, 293270, Note_on_c, 9, 51, 99
1, 293351, Control_c, 5, 64, 127
1, 293351, Control_c, 10, 64, 127
1, 293465, Note_off_c, 9, 60, 0
1, 293504, Note_off_c, 9, 70, 0
1, 293510, Note_off_c, 9, 36, 0
1, 293510, Note_off_c, 9, 51, 0
1, 293512, Note_off_c, 2, 75, 0
1, 293539, Note_off_c, 3, 56, 0
1, 293539, Note_off_c, 7, 56, 0
1, 293724, Note_on_c, 2, 75, 114
1, 293750, Note_on_c, 3, 56, 74
1, 293750, Note_on_c, 5, 56, 68
1, 293750, Note_on_c, 9, 70, 76
1, 293750, Note_on_c, 9, 61, 72
1, 293750, Note_on_c, 9, 51, 61
1, 293750, Note_on_c, 7, 56, 74
1, 293750, Note_on_c, 10, 56, 68
1, 293852, Lyric_t, "p"
1, 293916, Note_off_c, 9, 70, 0
1, 293953, Note_off_c, 9, 51, 0
1, 293990, Note_off_c, 9, 61, 0
1, 294051, Lyric_t, "o"
1, 294208, Note_off_c, 5, 60, 0
1, 294208, Note_off_c, 10, 60, 0
1, 294230, Note_on_c, 9, 38, 84
1, 294230, Note_on_c, 9, 70, 102
1, 294230, Note_on_c, 9, 51, 93
1, 294286, Note_off_c, 0, 32, 0
1, 294352, Lyric_t, "."
1, 294457, Note_off_c, 9, 70, 0
1, 294470, Note_off_c, 9, 38, 0
1, 294470, Note_off_c, 9, 51, 0
1, 294489, Note_off_c, 2, 75, 0
1, 294609, Note_off_c, 3, 60, 0
1, 294609, Note_off_c, 7, 60, 0
1, 294710, Note_on_c, 0, 32, 99
1, 294710, Note_on_c, 3, 61, 84
1, 294710, Note_on_c, 5, 61, 76
1, 294710, Note_on_c, 9, 36, 93
1, 294710, Note_on_c, 9, 70, 93
1, 294710, Note_on_c, 9, 62, 82
1, 294710, Note_on_c, 9, 51, 78
1, 294710, Note_on_c, 7, 61, 84
1, 294710, Note_on_c, 10, 61, 76
1, 294909, Note_off_c, 9, 70, 0
1, 294950, Note_off_c, 9, 36, 0
1, 294950, Note_off_c, 9, 62, 0
1, 294950, Note_off_c, 9, 51, 0
1, 294993, Note_off_c, 0, 32, 0
1, 295190, Note_on_c, 0, 27, 82
1, 295190, Note_on_c, 9, 36, 84
1, 295190, Note_on_c, 9, 70, 82
1, 295190, Note_on_c, 9, 51, 72
1, 295413, Note_off_c, 9, 70, 0
1, 295430, Note_off_c, 9, 36, 0
1, 295464, Note_off_c, 9, 51, 0
1, 295492, Note_off_c, 3, 56, 0
1, 295492, Note_off_c, 7, 56, 0
1, 295530, Lyric_t, "."
1, 295615, Note_off_c, 5, 61, 0
1, 295615, Note_off_c, 10, 61, 0
1, 295670, Note_on_c, 3, 56, 74
1, 295670, Note_on_c, 5, 63, 80
1, 295670, Note_on_c, 9, 70, 72
1, 295670, Note_on_c, 9, 62, 99
1, 295670, Note_on_c, 9, 51, 74
1, 295670, Note_on_c, 7, 56, 74
1, 295670, Note_on_c, 10, 63, 80
1, 295832, Note_off_c, 9, 70, 0
1, 295910, Note_off_c, 9, 62, 0
1, 295955, Note_off_c, 9, 51, 0
1, 296047, Note_off_c, 5, 56, 0
1, 296047, Note_off_c, 10, 56, 0
1, 296150, Note_on_c, 9, 38, 84
1, 296150, Note_on_c, 9, 70, 99
1, 296150, Note_on_c, 9, 82, 84
1, 296150, Note_on_c, 9, 51, 93
1, 296268, Note_off_c, 0, 27, 0
1, 296314, Note_off_c, 9, 82, 0
1, 296364, Note_off_c, 9, 70, 0
1, 296390, Note_off_c, 9, 38, 0
1, 296493, Note_off_c, 9, 51, 0
1, 296574, Note_off_c, 5, 63, 0
1, 296574, Note_off_c, 10, 63, 0
1, 296598, Note_off_c, 3, 61, 0
1, 296598, Note_off_c, 7, 61, 0
1, 296630, Note_on_c, 0, 27, 93
1, 296630, Note_on_c, 3, 60, 87
1, 296630, Note_on_c, 5, 60, 82
1, 296630, Note_on_c, 9, 36, 102
1, 296630, Note_on_c, 9, 70, 87
1, 296630, Note_on_c, 9, 60, 78
1, 296630, Note_on_c, 9, 51, 76
1, 296630, Note_on_c, 7, 60, 87
1, 296630, Note_on_c, 10, 60, 82
1, 296833, Note_off_c, 0, 27, 0
1, 296848, Note_off_c, 9, 70, 0
1, 296866, Note_off_c, 9, 60, 0
1, 296870, Note_off_c, 9, 36, 0
1, 296883, Note_off_c, 9, 51, 0
1, 296920, Control_c, 5, 64, 0
1, 296920, Control_c, 10, 64, 0
1, 297076, Control_c, 5, 64, 127
1, 297076, Control_c, 10, 64, 127
1, 297110, Note_on_c, 0, 32, 102
1, 297110, Note_on_c, 9, 70, 74
1, 297110, Note_on_c, 9, 51, 90
1, 297278, Note_off_c, 9, 70, 0
1, 297432, Note_off_c, 9, 51, 0
1, 297458, Note_off_c, 3, 56, 0
1, 297458, Note_off_c, 7, 56, 0
1, 297590, Note_on_c, 3, 56, 70
1, 297590, Note_on_c, 5, 56, 74
1, 297590, Note_on_c, 9, 70, 78
1, 297590, Note_on_c, 9, 62, 84
1, 297590, Note_on_c, 9, 51, 74
1, 297590, Note_on_c, 7, 56, 70
1, 297590, Note_on_c, 10, 56, 74
1, 297613, Note_on_c, 2, 72, 96
1, 297761, Note_off_c, 9, 70, 0
1, 297782, Lyric_t, "\\Me"
1, 297810, Note_off_c, 9, 51, 0
1, 297830, Note_off_c, 9, 62, 0
1, 297848, Note_off_c, 2, 72, 0
1, 297950, Note_off_c, 5, 60, 0
1, 297950, Note_off_c, 10, 60, 0
1, 298070, Note_on_c, 9, 38, 99
1, 298070, Note_on_c, 9, 82, 87
1, 298070, Note_on_c, 9, 70, 93
1, 298070, Note_on_c, 9, 51, 99
1, 298080, Lyric_t, " vi"
1, 298099, Note_on_c, 2, 72, 93
1, 298245, Note_off_c, 9, 82, 0
1, 298286, Note_off_c, 9, 70, 0
1, 298308, Note_off_c, 0, 32, 0
1, 298310, Note_off_c, 9, 38, 0
1, 298310, Note_off_c, 9, 51, 0
1, 298336, Lyric_t, "e"
1, 298356, Note_off_c, 2, 72, 0
1, 298502, Note_off_c, 3, 60, 0
1, 298502, Note_off_c, 7, 60, 0
1, 298550, Note_on_c, 0, 32, 108
1, 298550, Note_on_c, 3, 61, 102
1, 298550, Note_on_c, 5, 60, 84
1, 298550, Note_on_c, 9, 36, 84
1, 298550, Note_on_c, 9, 70, 80
1, 298550, Note_on_c, 9, 60, 74
1, 298550, Note_on_c, 9, 51, 80
1, 298550, Note_on_c, 7, 61, 102
1, 298550, Note_on_c, 10, 60, 84
1, 298583, Note_on_c, 2, 72, 102
1, 298646, Lyric_t, "ne"
1, 298760, Note_off_c, 9, 70, 0
1, 298783, Note_off_c, 9, 51, 0
1, 298790, Note_off_c, 9, 36, 0
1, 298790, Note_off_c, 9, 60, 0
1, 298802, Note_off_c, 5, 56, 0
1, 298802, Note_off_c, 10, 56, 0
1, 298846, Note_off_c, 2, 72, 0
1, 298935, Note_off_c, 0, 32, 0
1, 298978, Lyric_t, " el"
1, 299030, Note_on_c, 0, 27, 99
1, 299030, Note_on_c, 9, 36, 87
1, 299030, Note_on_c, 9, 70, 87
1, 299030, Note_on_c, 9, 51, 87
1, 299079, Note_on_c, 2, 72, 102
1, 299104, Note_off_c, 3, 56, 0
1, 299104, Note_off_c, 7, 56, 0
1, 299243, Lyric_t, " al"
1, 299255, Note_off_c, 9, 70, 0
1, 299270, Note_off_c, 9, 36, 0
1, 299304, Note_off_c, 9, 51, 0
1, 299510, Note_on_c, 3, 56, 80
1, 299510, Note_on_c, 5, 56, 68
1, 299510, Note_on_c, 9, 70, 78
1, 299510, Note_on_c, 9, 61, 78
1, 299510, Note_on_c, 9, 51, 80
1, 299510, Note_on_c, 7, 56, 80
1, 299510, Note_on_c, 10, 56, 68
1, 299715, Note_off_c, 9, 70, 0
1, 299748, Note_off_c, 9, 51, 0
1, 299750, Note_off_c, 9, 61, 0
1, 299788, Note_off_c, 5, 60, 0
1, 299788, Note_off_c, 10, 60, 0
1, 299827, Note_off_c, 0, 27, 0
1, 299858, Note_off_c, 3, 61, 0
1, 299858, Note_off_c, 7, 61, 0
1, 299894, Note_off_c, 2, 72, 0
1, 299976, Note_on_c, 2, 73, 108
1, 299990, Note_on_c, 0, 32, 105
1, 299990, Note_on_c, 3, 60, 96
1, 299990, Note_on_c, 5, 60, 84
1, 299990, Note_on_c, 9, 38, 93
1, 299990, Note_on_c, 9, 70, 93
1, 299990, Note_on_c, 9, 51, 99
1, 299990, Note_on_c, 7, 60, 96
1, 299990, Note_on_c, 10, 60, 84
1, 300030, Lyric_t, "ma"
1, 300204, Note_off_c, 9, 70, 0
1, 300230, Note_off_c, 9, 38, 0
1, 300230, Note_off_c, 9, 51, 0
1, 300254, Note_off_c, 2, 73, 0
1, 300317, Lyric_t, " al"
1, 300366, Note_off_c, 5, 56, 0
1, 300366, Note_off_c, 10, 56, 0
1, 300429, Note_off_c, 5, 60, 0
1, 300429, Note_off_c, 10, 60, 0
1, 300458, Note_on_c, 2, 73, 99
1, 300470, Note_on_c, 0, 27, 93
1, 300470, Note_on_c, 3, 61, 102
1, 300470, Note_on_c, 5, 61, 102
1, 300470, Note_on_c, 9, 82, 74
1, 300470, Note_on_c, 9, 70, 99
1, 300470, Note_on_c, 9, 62, 96
1, 300470, Note_on_c, 9, 51, 76
1, 300470, Note_on_c, 7, 61, 102
1, 300470, Note_on_c, 10, 61, 102
1, 300509, Note_off_c, 3, 60, 0
1, 300509, Note_off_c, 7, 60, 0
1, 300560, Note_off_c, 0, 32, 0
1, 300621, Note_off_c, 3, 56, 0
1, 300621, Note_off_c, 7, 56, 0
1, 300653, Note_off_c, 9, 82, 0
1, 300667, Note_off_c, 9, 70, 0
1, 300686, Note_off_c, 9, 51, 0
1, 300710, Note_off_c, 9, 62, 0
1, 300747, Note_off_c, 0, 27, 0
1, 300801, Control_c, 5, 64, 0
1, 300801, Control_c, 10, 64, 0
1, 300912, Note_off_c, 1, 60, 0
1, 300912, Note_off_c, 6, 60, 0
1, 300950, Note_on_c, 0, 27, 102
1, 300950, Note_on_c, 1, 54, 49
1, 300950, Note_on_c, 1, 58, 61
1, 300950, Note_on_c, 6, 54, 49
1, 300950, Note_on_c, 6, 58, 61
1, 300950, Note_on_c, 9, 36, 84
1, 300950, Note_on_c, 9, 70, 90
1, 300950, Note_on_c, 9, 60, 111
1, 300950, Note_on_c, 9, 51, 93
1, 300993, Control_c, 5, 64, 127
1, 300993, Control_c, 10, 64, 127
1, 301000, Note_off_c, 1, 56, 0
1, 301000, Note_off_c, 6, 56, 0
1, 301005, Lyric_t, " cu"
1, 301112, Note_off_c, 2, 73, 0
1, 301163, Note_off_c, 9, 70, 0
1, 301166, Note_off_c, 9, 60, 0
1, 301190, Note_off_c, 9, 36, 0
1, 301239, Note_off_c, 9, 51, 0
1, 301271, Lyric_t, "er"
1, 301371, Note_on_c, 2, 73, 105
1, 301430, Note_on_c, 3, 51, 72
1, 301430, Note_on_c, 5, 51, 74
1, 301430, Note_on_c, 9, 70, 78
1, 301430, Note_on_c, 9, 61, 82
1, 301430, Note_on_c, 9, 51, 45
1, 301430, Note_on_c, 7, 51, 72
1, 301430, Note_on_c, 10, 51, 74
1, 301534, Note_off_c, 9, 61, 0
1, 301591, Lyric_t, "p"
1, 301625, Note_off_c, 9, 70, 0
1, 301636, Note_off_c, 9, 51, 0
1, 301903, Lyric_t, "o"
1, 301910, Note_on_c, 3, 54, 76
1, 301910, Note_on_c, 5, 54, 68
1, 301910, Note_on_c, 9, 38, 87
1, 301910, Note_on_c, 9, 70, 90
1, 301910, Note_on_c, 9, 82, 82
1, 301910, Note_on_c, 9, 51, 80
1, 301910, Note_on_c, 7, 54, 76
1, 301910, Note_on_c, 10, 54, 68
1, 302059, Note_off_c, 9, 82, 0
1, 302062, Note_off_c, 0, 27, 0
1, 302107, Note_off_c, 9, 70, 0
1, 302150, Note_off_c, 9, 38, 0
1, 302150, Note_off_c, 9, 51, 0
1, 302170, Lyric_t, "."
1, 302222, Note_off_c, 2, 73, 0
1, 302265, Note_off_c, 5, 61, 0
1, 302265, Note_off_c, 10, 61, 0
1, 302287, Note_off_c, 3, 61, 0
1, 302287, Note_off_c, 7, 61, 0
1, 302390, Note_on_c, 0, 27, 99
1, 302390, Note_on_c, 3, 63, 72
1, 302390, Note_on_c, 5, 58, 78
1, 302390, Note_on_c, 9, 36, 78
1, 302390, Note_on_c, 9, 70, 99
1, 302390, Note_on_c, 9, 62, 90
1, 302390, Note_on_c, 9, 51, 74
1, 302390, Note_on_c, 7, 63, 72
1, 302390, Note_on_c, 10, 58, 78
1, 302589, Note_off_c, 9, 62, 0
1, 302617, Note_off_c, 9, 70, 0
1, 302630, Note_off_c, 9, 36, 0
1, 302630, Note_off_c, 9, 51, 0
1, 302644, Note_off_c, 0, 27, 0
1, 302870, Note_on_c, 0, 34, 90
1, 302870, Note_on_c, 9, 36, 84
1, 302870, Note_on_c, 9, 70, 76
1, 302870, Note_on_c, 9, 51, 68
1, 303058, Note_off_c, 9, 70, 0
1, 303081, Note_off_c, 3, 54, 0
1, 303081, Note_off_c, 7, 54, 0
1, 303110, Note_off_c, 9, 36, 0
1, 303110, Note_off_c, 9, 51, 0
1, 303122, Lyric_t, "."
1, 303156, Note_off_c, 3, 51, 0
1, 303156, Note_off_c, 7, 51, 0
1, 303350, Note_on_c, 3, 51, 74
1, 303350, Note_on_c, 5, 61, 105
1, 303350, Note_on_c, 9, 70, 64
1, 303350, Note_on_c, 9, 60, 93
1, 303350, Note_on_c, 9, 51, 66
1, 303350, Note_on_c, 7, 51, 74
1, 303350, Note_on_c, 10, 61, 105
1, 303516, Note_off_c, 9, 70, 0
1, 303547, Note_off_c, 9, 51, 0
1, 303555, Note_off_c, 9, 60, 0
1, 303662, Note_off_c, 5, 54, 0
1, 303662, Note_off_c, 10, 54, 0
1, 303743, Note_off_c, 5, 51, 0
1, 303743, Note_off_c, 10, 51, 0
1, 303830, Note_on_c, 3, 54, 64
1, 303830, Note_on_c, 9, 38, 87
1, 303830, Note_on_c, 9, 70, 102
1, 303830, Note_on_c, 9, 51, 99
1, 303830, Note_on_c, 7, 54, 64
1, 304013, Note_off_c, 0, 34, 0
1, 304061, Note_off_c, 9, 70, 0
1, 304070, Note_off_c, 9, 38, 0
1, 304070, Note_on_c, 5, 51, 66
1, 304070, Note_on_c, 10, 51, 66
1, 304199, Note_off_c, 9, 51, 0
1, 304205, Note_off_c, 5, 61, 0
1, 304205, Note_off_c, 10, 61, 0
1, 304310, Note_on_c, 0, 34, 90
1, 304310, Note_on_c, 3, 58, 52
1, 304310, Note_on_c, 5, 63, 72
1, 304310, Note_on_c, 9, 36, 93
1, 304310, Note_on_c, 9, 82, 74
1, 304310, Note_on_c, 9, 70, 102
1, 304310, Note_on_c, 9, 61, 87
1, 304310, Note_on_c, 9, 51, 57
1, 304310, Note_on_c, 7, 58, 52
1, 304310, Note_on_c, 10, 63, 72
1, 304432, Note_off_c, 3, 63, 0
1, 304432, Note_off_c, 7, 63, 0
1, 304479, Note_off_c, 9, 82, 0
1, 304515, Note_off_c, 9, 61, 0
1, 304528, Note_off_c, 0, 34, 0
1, 304539, Note_off_c, 9, 51, 0
1, 304550, Note_off_c, 9, 36, 0
1, 304578, Note_off_c, 9, 70, 0
1, 304790, Note_on_c, 0, 27, 99
1, 304790, Note_on_c, 3, 61, 80
1, 304790, Note_on_c, 9, 70, 76
1, 304790, Note_on_c, 9, 51, 87
1, 304790, Note_on_c, 7, 61, 80
1, 304965, Note_off_c, 9, 70, 0
1, 305030, Note_off_c, 9, 51, 0
1, 305095, Note_off_c, 3, 51, 0
1, 305095, Note_off_c, 7, 51, 0
1, 305126, Note_off_c, 3, 54, 0
1, 305126, Note_off_c, 7, 54, 0
1, 305270, Note_on_c, 3, 51, 70
1, 305270, Note_on_c, 5, 54, 76
1, 305270, Note_on_c, 9, 70, 74
1, 305270, Note_on_c, 9, 62, 93
1, 305270, Note_on_c, 9, 51, 62
1, 305270, Note_on_c, 7, 51, 70
1, 305270, Note_on_c, 10, 54, 76
1, 305459, Note_off_c, 5, 58, 0
1, 305459, Note_off_c, 10, 58, 0
1, 305466, Note_off_c, 9, 70, 0
1, 305473, Note_off_c, 9, 51, 0
1, 305506, Note_off_c, 9, 62, 0
1, 305618, Note_off_c, 5, 63, 0
1, 305618, Note_off_c, 10, 63, 0
1, 305750, Note_on_c, 3, 54, 76
1, 305750, Note_on_c, 9, 38, 90
1, 305750, Note_on_c, 9, 70, 93
1, 305750, Note_on_c, 9, 51, 93
1, 305750, Note_on_c, 7, 54, 76
1, 305976, Note_off_c, 9, 70, 0
1, 305990, Note_off_c, 9, 38, 0
1, 305990, Note_off_c, 9, 51, 0
1, 306032, Note_off_c, 0, 27, 0
1, 306081, Note_off_c, 3, 61, 0
1, 306081, Note_off_c, 7, 61, 0
1, 306230, Note_on_c, 0, 27, 74
1, 306230, Note_on_c, 3, 63, 70
1, 306230, Note_on_c, 5, 58, 76
1, 306230, Note_on_c, 9, 36, 78
1, 306230, Note_on_c, 9, 70, 78
1, 306230, Note_on_c, 9, 62, 99
1, 306230, Note_on_c, 9, 51, 72
1, 306230, Note_on_c, 7, 63, 70
1, 306230, Note_on_c, 10, 58, 76
1, 306409, Note_off_c, 9, 70, 0
1, 306470, Note_off_c, 9, 36, 0
1, 306470, Note_off_c, 9, 62, 0
1, 306478, Note_off_c, 9, 51, 0
1, 306584, Note_off_c, 0, 27, 0
1, 306710, Note_on_c, 0, 34, 99
1, 306710, Note_on_c, 9, 36, 87
1, 306710, Note_on_c, 9, 70, 93
1, 306710, Note_on_c, 9, 51, 80
1, 306864, Note_off_c, 3, 51, 0
1, 306864, Note_off_c, 7, 51, 0
1, 306920, Note_off_c, 9, 70, 0
1, 306926, Note_off_c, 3, 54, 0
1, 306926, Note_off_c, 7, 54, 0
1, 306950, Note_off_c, 9, 36, 0
1, 307000, Note_off_c, 9, 51, 0
1, 307140, Note_off_c, 5, 58, 0
1, 307140, Note_off_c, 10, 58, 0
1, 307190, Note_on_c, 3, 51, 68
1, 307190, Note_on_c, 5, 61, 84
1, 307190, Note_on_c, 9, 70, 76
1, 307190, Note_on_c, 9, 61, 78
1, 307190, Note_on_c, 9, 51, 72
1, 307190, Note_on_c, 7, 51, 68
1, 307190, Note_on_c, 10, 61, 84
1, 307346, Note_off_c, 9, 70, 0
1, 307400, Note_off_c, 9, 51, 0
1, 307481, Note_off_c, 9, 61, 0
1, 307543, Note_off_c, 5, 54, 0
1, 307543, Note_off_c, 10, 54, 0
1, 307574, Note_off_c, 5, 51, 0
1, 307574, Note_off_c, 10, 51, 0
1, 307591, Note_off_c, 0, 34, 0
1, 307622, Note_off_c, 3, 58, 0
1, 307622, Note_off_c, 7, 58, 0
1, 307670, Note_on_c, 0, 27, 93
1, 307670, Note_on_c, 3, 54, 72
1, 307670, Note_on_c, 5, 51, 43
1, 307670, Note_on_c, 9, 38, 93
1, 307670, Note_on_c, 9, 70, 102
1, 307670, Note_on_c, 9, 82, 78
1, 307670, Note_on_c, 9, 51, 102
1, 307670, Note_on_c, 7, 54, 72
1, 307670, Note_on_c, 10, 51, 43
1, 307684, Note_on_c, 2, 73, 105
1, 307834, Note_off_c, 9, 70, 0
1, 307834, Note_off_c, 9, 82, 0
1, 307885, Note_off_c, 2, 73, 0
1, 307893, Lyric_t, "\\Son"
1, 307910, Note_off_c, 9, 38, 0
1, 307910, Note_off_c, 9, 51, 0
1, 307941, Note_off_c, 5, 61, 0
1, 307941, Note_off_c, 10, 61, 0
1, 307949, Note_off_c, 3, 63, 0
1, 307949, Note_off_c, 7, 63, 0
1, 308039, Note_off_c, 0, 27, 0
1, 308085, Note_off_c, 3, 51, 0
1, 308085, Note_off_c, 7, 51, 0
1, 308150, Note_on_c, 0, 29, 99
1, 308150, Note_on_c, 3, 61, 102
1, 308150, Note_on_c, 5, 61, 80
1, 308150, Note_on_c, 9, 82, 87
1, 308150, Note_on_c, 9, 70, 82
1, 308150, Note_on_c, 9, 61, 76
1, 308150, Note_on_c, 9, 51, 66
1, 308150, Note_on_c, 7, 61, 102
1, 308150, Note_on_c, 10, 61, 80
1, 308170, Note_on_c, 2, 73, 114
1, 308256, Lyric_t, "r"
1, 308334, Note_off_c, 9, 82, 0
1, 308337, Note_off_c, 5, 51, 0
1, 308337, Note_off_c, 10, 51, 0
1, 308342, Note_off_c, 9, 70, 0
1, 308347, Note_off_c, 9, 51, 0
1, 308390, Note_off_c, 9, 61, 0
1, 308402, Control_c, 5, 64, 0
1, 308402, Control_c, 10, 64, 0
1, 308500, Note_off_c, 0, 29, 0
1, 308596, Control_c, 5, 64, 127
1, 308596, Control_c, 10, 64, 127
1, 308609, Lyric_t, "i"
1, 308630, Note_on_c, 0, 30, 102
1, 308630, Note_on_c, 9, 36, 84
1, 308630, Note_on_c, 9, 70, 93
1, 308630, Note_on_c, 9, 60, 82
1, 308630, Note_on_c, 9, 51, 99
1, 308825, Note_off_c, 9, 60, 0
1, 308864, Note_off_c, 9, 70, 0
1, 308870, Note_off_c, 9, 36, 0
1, 308870, Note_off_c, 9, 51, 0
1, 308946, Note_off_c, 3, 54, 0
1, 308946, Note_off_c, 7, 54, 0
1, 309073, Note_on_c, 2, 70, 90
1, 309110, Note_on_c, 3, 54, 76
1, 309110, Note_on_c, 5, 54, 74
1, 309110, Note_on_c, 9, 70, 76
1, 309110, Note_on_c, 9, 61, 72
1, 309110, Note_on_c, 9, 51, 61
1, 309110, Note_on_c, 7, 54, 76
1, 309110, Note_on_c, 10, 54, 74
1, 309121, Note_off_c, 2, 73, 0
1, 309276, Note_off_c, 9, 70, 0
1, 309313, Note_off_c, 9, 51, 0
1, 309464, Note_off_c, 9, 61, 0
1, 309590, Note_on_c, 3, 58, 64
1, 309590, Note_on_c, 9, 38, 84
1, 309590, Note_on_c, 9, 70, 102
1, 309590, Note_on_c, 9, 51, 93
1, 309590, Note_on_c, 7, 58, 64
1, 309626, Note_off_c, 5, 61, 0
1, 309626, Note_off_c, 10, 61, 0
1, 309639, Note_off_c, 2, 70, 0
1, 309736, Note_off_c, 0, 30, 0
1, 309817, Note_off_c, 9, 70, 0
1, 309830, Note_off_c, 3, 61, 0
1, 309830, Note_off_c, 7, 61, 0
1, 309830, Note_off_c, 9, 38, 0
1, 309916, Note_off_c, 9, 51, 0
1, 310070, Note_on_c, 0, 30, 99
1, 310070, Note_on_c, 3, 63, 78
1, 310070, Note_on_c, 5, 63, 76
1, 310070, Note_on_c, 9, 36, 93
1, 310070, Note_on_c, 9, 70, 93
1, 310070, Note_on_c, 9, 62, 82
1, 310070, Note_on_c, 9, 51, 78
1, 310070, Note_on_c, 7, 63, 78
1, 310070, Note_on_c, 10, 63, 76
1, 310269, Note_off_c, 9, 70, 0
1, 310310, Note_off_c, 9, 36, 0
1, 310310, Note_off_c, 9, 62, 0
1, 310310, Note_off_c, 9, 51, 0
1, 310325, Note_off_c, 0, 30, 0
1, 310447, Lyric_t, "o"
1, 310550, Note_off_c, 5, 54, 0
1, 310550, Note_off_c, 10, 54, 0
1, 310550, Note_on_c, 0, 25, 93
1, 310550, Note_on_c, 9, 36, 84
1, 310550, Note_on_c, 9, 70, 82
1, 310550, Note_on_c, 9, 51, 72
1, 310679, Note_off_c, 3, 54, 0
1, 310679, Note_off_c, 7, 54, 0
1, 310773, Note_off_c, 9, 70, 0
1, 310790, Note_off_c, 9, 36, 0
1, 310824, Note_off_c, 9, 51, 0
1, 311030, Note_on_c, 3, 54, 76
1, 311030, Note_on_c, 5, 54, 74
1, 311030, Note_on_c, 9, 70, 72
1, 311030, Note_on_c, 9, 62, 99
1, 311030, Note_on_c, 9, 51, 74
1, 311030, Note_on_c, 7, 54, 76
1, 311030, Note_on_c, 10, 54, 74
1, 311192, Note_off_c, 9, 70, 0
1, 311231, Note_off_c, 3, 58, 0
1, 311231, Note_off_c, 7, 58, 0
1, 311270, Note_off_c, 9, 62, 0
1, 311315, Note_off_c, 9, 51, 0
1, 311510, Note_on_c, 3, 58, 74
1, 311510, Note_on_c, 9, 38, 84
1, 311510, Note_on_c, 9, 70, 99
1, 311510, Note_on_c, 9, 82, 84
1, 311510, Note_on_c, 9, 51, 93
1, 311510, Note_on_c, 7, 58, 74
1, 311573, Note_off_c, 3, 63, 0
1, 311573, Note_off_c, 7, 63, 0
1, 311674, Note_off_c, 9, 82, 0
1, 311724, Note_off_c, 9, 70, 0
1, 311750, Note_off_c, 9, 38, 0
1, 311750, Note_off_c, 9, 51, 0
1, 311762, Note_off_c, 0, 25, 0
1, 311934, Note_off_c, 5, 63, 0
1, 311934, Note_off_c, 10, 63, 0
1, 311990, Note_on_c, 0, 25, 90
1, 311990, Note_on_c, 3, 61, 80
1, 311990, Note_on_c, 5, 58, 82
1, 311990, Note_on_c, 9, 36, 102
1, 311990, Note_on_c, 9, 70, 87
1, 311990, Note_on_c, 9, 60, 78
1, 311990, Note_on_c, 9, 51, 76
1, 311990, Note_on_c, 7, 61, 80
1, 311990, Note_on_c, 10, 58, 82
1, 312208, Note_off_c, 9, 70, 0
1, 312217, Note_off_c, 0, 25, 0
1, 312226, Note_off_c, 9, 60, 0
1, 312230, Note_off_c, 9, 36, 0
1, 312243, Note_off_c, 9, 51, 0
1, 312441, Note_off_c, 5, 54, 0
1, 312441, Note_off_c, 10, 54, 0
1, 312470, Note_on_c, 0, 30, 99
1, 312470, Note_on_c, 9, 70, 74
1, 312470, Note_on_c, 9, 51, 90
1, 312638, Note_off_c, 9, 70, 0
1, 312710, Note_off_c, 9, 51, 0
1, 312710, Note_on_c, 5, 54, 48
1, 312710, Note_on_c, 10, 54, 48
1, 312720, Note_off_c, 3, 54, 0
1, 312720, Note_off_c, 7, 54, 0
1, 312950, Note_on_c, 3, 54, 74
1, 312950, Note_on_c, 5, 61, 82
1, 312950, Note_on_c, 9, 70, 78
1, 312950, Note_on_c, 9, 62, 84
1, 312950, Note_on_c, 9, 51, 74
1, 312950, Note_on_c, 7, 54, 74
1, 312950, Note_on_c, 10, 61, 82
1, 313066, Note_off_c, 3, 58, 0
1, 313066, Note_off_c, 7, 58, 0
1, 313121, Note_off_c, 9, 70, 0
1, 313130, Note_off_c, 5, 58, 0
1, 313130, Note_off_c, 10, 58, 0
1, 313154, Control_c, 1, 64, 102
1, 313154, Control_c, 6, 64, 102
1, 313170, Note_off_c, 9, 51, 0
1, 313190, Note_off_c, 9, 62, 0
1, 313233, Control_c, 1, 64, 51
1, 313233, Control_c, 6, 64, 51
1, 313260, Note_off_c, 5, 54, 0
1, 313260, Note_off_c, 10, 54, 0
1, 313269, Control_c, 1, 64, 0
1, 313269, Control_c, 6, 64, 0
1, 313331, Note_off_c, 3, 61, 0
1, 313331, Note_off_c, 7, 61, 0
1, 313430, Note_on_c, 3, 58, 80
1, 313430, Note_on_c, 9, 38, 99
1, 313430, Note_on_c, 9, 82, 87
1, 313430, Note_on_c, 9, 70, 93
1, 313430, Note_on_c, 9, 51, 99
1, 313430, Note_on_c, 7, 58, 80
1, 313468, Note_on_c, 2, 73, 114
1, 313605, Note_off_c, 9, 82, 0
1, 313616, Lyric_t, " cu"
1, 313626, Note_off_c, 0, 30, 0
1, 313646, Note_off_c, 9, 70, 0
1, 313670, Note_off_c, 9, 38, 0
1, 313670, Note_off_c, 9, 51, 0
1, 313677, Note_off_c, 2, 73, 0
1, 313684, Note_off_c, 5, 61, 0
1, 313684, Note_off_c, 10, 61, 0
1, 313827, Lyric_t, "an"
1, 313910, Note_on_c, 0, 30, 87
1, 313910, Note_on_c, 3, 61, 80
1, 313910, Note_on_c, 5, 61, 84
1, 313910, Note_on_c, 9, 36, 84
1, 313910, Note_on_c, 9, 70, 80
1, 313910, Note_on_c, 9, 60, 74
1, 313910, Note_on_c, 9, 51, 80
1, 313910, Note_on_c, 7, 61, 80
1, 313910, Note_on_c, 10, 61, 84
1, 313921, Note_on_c, 2, 73, 114
1, 314059, Lyric_t, "do"
1, 314111, Note_off_c, 2, 73, 0
1, 314120, Note_off_c, 9, 70, 0
1, 314143, Note_off_c, 9, 51, 0
1, 314150, Note_off_c, 3, 58, 0
1, 314150, Note_off_c, 7, 58, 0
1, 314150, Note_off_c, 9, 36, 0
1, 314174, Note_off_c, 9, 60, 0
1, 314241, Note_off_c, 3, 61, 0
1, 314241, Note_off_c, 7, 61, 0
1, 314318, Note_off_c, 0, 30, 0
1, 314373, Note_on_c, 2, 73, 108
1, 314390, Note_on_c, 0, 25, 102
1, 314390, Note_on_c, 3, 61, 90
1, 314390, Note_on_c, 5, 54, 70
1, 314390, Note_on_c, 9, 36, 87
1, 314390, Note_on_c, 9, 70, 87
1, 314390, Note_on_c, 9, 51, 87
1, 314390, Note_on_c, 7, 61, 90
1, 314390, Note_on_c, 10, 54, 70
1, 314422, Lyric_t, " me"
1, 314615, Note_off_c, 9, 70, 0
1, 314630, Note_off_c, 9, 36, 0
1, 314664, Note_off_c, 9, 51, 0
1, 314668, Note_off_c, 3, 54, 0
1, 314668, Note_off_c, 7, 54, 0
1, 314756, Lyric_t, " e"
1, 314759, Note_off_c, 5, 61, 0
1, 314759, Note_off_c, 10, 61, 0
1, 314790, Note_off_c, 0, 25, 0
1, 314870, Note_on_c, 0, 30, 90
1, 314870, Note_on_c, 3, 54, 82
1, 314870, Note_on_c, 5, 63, 76
1, 314870, Note_on_c, 9, 70, 78
1, 314870, Note_on_c, 9, 61, 78
1, 314870, Note_on_c, 9, 51, 80
1, 314870, Note_on_c, 7, 54, 82
1, 314870, Note_on_c, 10, 63, 76
1, 314872, Note_off_c, 2, 73, 0
1, 314880, Note_on_c, 2, 68, 87
1, 315066, Lyric_t, "na"
1, 315075, Note_off_c, 9, 70, 0
1, 315108, Note_off_c, 9, 51, 0
1, 315110, Note_off_c, 9, 61, 0
1, 315156, Note_off_c, 5, 54, 0
1, 315156, Note_off_c, 10, 54, 0
1, 315177, Note_off_c, 0, 30, 0
1, 315349, Note_on_c, 2, 70, 87
1, 315350, Note_on_c, 0, 30, 102
1, 315350, Note_on_c, 3, 58, 72
1, 315350, Control_c, 5, 64, 0
1, 315350, Note_on_c, 5, 54, 76
1, 315350, Note_on_c, 9, 38, 93
1, 315350, Note_on_c, 9, 70, 93
1, 315350, Note_on_c, 9, 51, 99
1, 315350, Note_on_c, 7, 58, 72
1, 315350, Control_c, 10, 64, 0
1, 315350, Note_on_c, 10, 54, 76
1, 315379, Note_off_c, 3, 61, 0
1, 315379, Note_off_c, 7, 61, 0
1, 315388, Note_off_c, 2, 68, 0
1, 315505, Lyric_t, "mo"
1, 315564, Note_off_c, 9, 70, 0
1, 315590, Note_off_c, 9, 38, 0
1, 315682, Note_off_c, 9, 51, 0
1, 315782, Note_off_c, 0, 30, 0
1, 315826, Note_on_c, 2, 68, 105
1, 315830, Note_on_c, 0, 32, 108
1, 315830, Note_on_c, 3, 61, 84
1, 315830, Note_on_c, 9, 51, 108
1, 315830, Note_on_c, 9, 82, 74
1, 315830, Note_on_c, 9, 70, 99
1, 315830, Note_on_c, 9, 62, 96
1, 315830, Note_on_c, 9, 51, 76
1, 315830, Note_on_c, 7, 61, 84
1, 315831, Note_off_c, 2, 70, 0
1, 315955, Note_off_c, 5, 63, 0
1, 315955, Note_off_c, 10, 63, 0
1, 315962, Note_off_c, 3, 58, 0
1, 315962, Note_off_c, 7, 58, 0
1, 315983, Note_off_c, 5, 54, 0
1, 315983, Note_off_c, 10, 54, 0
1, 316013, Note_off_c, 9, 82, 0
1, 316020, Lyric_t, "r"
1, 316027, Note_off_c, 3, 54, 0
1, 316027, Note_off_c, 7, 54, 0
1, 316027, Note_off_c, 9, 70, 0
1, 316034, Note_off_c, 9, 51, 0
1, 316070, Note_off_c, 9, 62, 0
1, 316089, Note_off_c, 1, 54, 0
1, 316089, Note_off_c, 6, 54, 0
1, 316111, Note_off_c, 1, 58, 0
1, 316111, Note_off_c, 6, 58, 0
1, 316271, Note_off_c, 3, 61, 0
1, 316271, Note_off_c, 7, 61, 0
1, 316310, Note_on_c, 0, 25, 105
1, 316310, Note_on_c, 1, 56, 58
1, 316310, Note_on_c, 3, 61, 99
1, 316310, Note_on_c, 5, 61, 90
1, 316310, Note_on_c, 6, 56, 58
1, 316310, Note_on_c, 9, 36, 84
1, 316310, Note_on_c, 9, 49, 114
1, 316310, Note_on_c, 9, 49, 114
1, 316310, Note_on_c, 9, 70, 90
1, 316310, Note_on_c, 9, 60, 111
1, 316310, Note_on_c, 9, 51, 93
1, 316310, Note_on_c, 7, 61, 99
1, 316310, Note_on_c, 10, 61, 90
1, 316320, Note_off_c, 0, 32, 0
1, 316371, Note_off_c, 2, 68, 0
1, 316433, Note_off_c, 9, 49, 0
1, 316523, Note_off_c, 9, 70, 0
1, 316526, Note_off_c, 9, 60, 0
1, 316550, Note_off_c, 9, 36, 0
1, 316550, Note_off_c, 9, 51, 0
1, 316581, Control_c, 5, 64, 127
1, 316581, Control_c, 10, 64, 127
1, 316790, Note_on_c, 3, 49, 76
1, 316790, Note_on_c, 9, 70, 78
1, 316790, Note_on_c, 9, 61, 82
1, 316790, Note_on_c, 9, 51, 45
1, 316790, Note_on_c, 7, 49, 76
1, 316894, Note_off_c, 9, 61, 0
1, 316985, Note_off_c, 9, 70, 0
1, 316996, Note_off_c, 9, 51, 0
1, 317066, Lyric_t, "o"
1, 317270, Note_on_c, 3, 56, 72
1, 317270, Note_on_c, 5, 49, 70
1, 317270, Note_on_c, 9, 38, 87
1, 317270, Note_on_c, 9, 70, 90
1, 317270, Note_on_c, 9, 82, 82
1, 317270, Note_on_c, 9, 51, 80
1, 317270, Note_on_c, 7, 56, 72
1, 317270, Note_on_c, 10, 49, 70
1, 317388, Note_off_c, 0, 25, 0
1, 317419, Note_off_c, 9, 82, 0
1, 317467, Note_off_c, 9, 70, 0
1, 317510, Note_off_c, 9, 38, 0
1, 317588, Note_off_c, 9, 51, 0
1, 317594, Note_off_c, 3, 61, 0
1, 317594, Note_off_c, 7, 61, 0
1, 317692, Note_off_c, 5, 61, 0
1, 317692, Note_off_c, 10, 61, 0
1, 317750, Note_on_c, 0, 25, 105
1, 317750, Note_on_c, 3, 63, 90
1, 317750, Note_on_c, 5, 63, 93
1, 317750, Note_on_c, 9, 36, 78
1, 317750, Note_on_c, 9, 70, 99
1, 317750, Note_on_c, 9, 62, 90
1, 317750, Note_on_c, 9, 51, 74
1, 317750, Note_on_c, 7, 63, 90
1, 317750, Note_on_c, 10, 63, 93
1, 317761, Note_on_c, 2, 68, 102
1, 317949, Note_off_c, 9, 62, 0
1, 317977, Note_off_c, 9, 70, 0
1, 317990, Note_off_c, 0, 25, 0
1, 317990, Note_off_c, 9, 36, 0
1, 318026, Note_off_c, 9, 51, 0
1, 318205, Lyric_t, "\\A"
1, 318208, Note_on_c, 2, 80, 93
1, 318215, Note_off_c, 2, 68, 0
1, 318230, Note_on_c, 0, 32, 99
1, 318230, Note_on_c, 9, 36, 84
1, 318230, Note_on_c, 9, 70, 76
1, 318230, Note_on_c, 9, 51, 68
1, 318416, Lyric_t, " ve"
1, 318418, Note_off_c, 9, 70, 0
1, 318458, Note_off_c, 3, 49, 0
1, 318458, Note_off_c, 7, 49, 0
1, 318470, Note_off_c, 9, 36, 0
1, 318530, Note_off_c, 9, 51, 0
1, 318592, Note_off_c, 3, 56, 0
1, 318592, Note_off_c, 7, 56, 0
1, 318603, Note_off_c, 2, 80, 0
1, 318710, Note_on_c, 3, 49, 76
1, 318710, Note_on_c, 5, 56, 74
1, 318710, Note_on_c, 9, 70, 64
1, 318710, Note_on_c, 9, 60, 93
1, 318710, Note_on_c, 9, 51, 66
1, 318710, Note_on_c, 7, 49, 76
1, 318710, Note_on_c, 10, 56, 74
1, 318733, Note_on_c, 2, 78, 108
1, 318771, Lyric_t, "ces"
1, 318876, Note_off_c, 9, 70, 0
1, 318907, Note_off_c, 9, 51, 0
1, 318915, Note_off_c, 9, 60, 0
1, 319007, Note_off_c, 2, 78, 0
1, 319190, Note_on_c, 3, 56, 76
1, 319190, Note_on_c, 9, 38, 87
1, 319190, Note_on_c, 9, 70, 102
1, 319190, Note_on_c, 9, 51, 99
1, 319190, Note_on_c, 7, 56, 76
1, 319236, Note_on_c, 2, 78, 105
1, 319261, Lyric_t, " de"
1, 319329, Note_off_c, 0, 32, 0
1, 319421, Note_off_c, 9, 70, 0
1, 319430, Note_off_c, 9, 38, 0
1, 319430, Note_off_c, 9, 51, 0
1, 319521, Note_off_c, 5, 63, 0
1, 319521, Note_off_c, 10, 63, 0
1, 319591, Note_off_c, 3, 63, 0
1, 319591, Note_off_c, 7, 63, 0
1, 319606, Note_off_c, 2, 78, 0
1, 319670, Note_on_c, 0, 32, 102
1, 319670, Note_on_c, 2, 77, 80
1, 319670, Note_on_c, 3, 65, 82
1, 319670, Note_on_c, 5, 65, 82
1, 319670, Note_on_c, 9, 36, 93
1, 319670, Note_on_c, 9, 82, 74
1, 319670, Note_on_c, 9, 70, 102
1, 319670, Note_on_c, 9, 61, 87
1, 319670, Note_on_c, 9, 51, 57
1, 319670, Note_on_c, 7, 65, 82
1, 319670, Note_on_c, 10, 65, 82
1, 319673, Note_off_c, 5, 49, 0
1, 319673, Note_off_c, 10, 49, 0
1, 319766, Note_off_c, 5, 56, 0
1, 319766, Note_off_c, 10, 56, 0
1, 319766, Lyric_t, "ses"
1, 319839, Note_off_c, 9, 82, 0
1, 319875, Note_off_c, 9, 61, 0
1, 319899, Note_off_c, 0, 32, 0
1, 319899, Note_off_c, 9, 51, 0
1, 319910, Note_off_c, 9, 36, 0
1, 319910, Note_off_c, 9, 70, 0
1, 319925, Note_off_c, 2, 77, 0
1, 320146, Note_on_c, 2, 77, 84
1, 320150, Note_on_c, 0, 25, 102
1, 320150, Note_on_c, 1, 61, 62
1, 320150, Note_on_c, 6, 61, 62
1, 320150, Note_on_c, 9, 70, 76
1, 320150, Note_on_c, 9, 51, 87
1, 320217, Lyric_t, "pe"
1, 320325, Note_off_c, 9, 70, 0
1, 320390, Note_off_c, 9, 51, 0
1, 320429, Note_off_c, 3, 49, 0
1, 320429, Note_off_c, 7, 49, 0
1, 320488, Note_off_c, 3, 56, 0
1, 320488, Note_off_c, 7, 56, 0
1, 320630, Note_on_c, 3, 49, 72
1, 320630, Note_on_c, 5, 49, 68
1, 320630, Note_on_c, 9, 70, 74
1, 320630, Note_on_c, 9, 62, 93
1, 320630, Note_on_c, 9, 51, 62
1, 320630, Note_on_c, 7, 49, 72
1, 320630, Note_on_c, 10, 49, 68
1, 320640, Note_on_c, 2, 75, 87
1, 320658, Note_off_c, 2, 77, 0
1, 320767, Lyric_t, "ro"
1, 320826, Note_off_c, 9, 70, 0
1, 320833, Note_off_c, 9, 51, 0
1, 320866, Note_off_c, 9, 62, 0
1, 320884, Note_off_c, 2, 75, 0
1, 321110, Note_on_c, 3, 56, 76
1, 321110, Note_on_c, 5, 56, 72
1, 321110, Note_on_c, 9, 38, 90
1, 321110, Note_on_c, 9, 70, 93
1, 321110, Note_on_c, 9, 51, 93
1, 321110, Note_on_c, 7, 56, 76
1, 321110, Note_on_c, 10, 56, 72
1, 321126, Note_on_c, 2, 73, 102
1, 321163, Lyric_t, "\\Cu"
1, 321323, Note_off_c, 2, 73, 0
1, 321336, Note_off_c, 9, 70, 0
1, 321350, Note_off_c, 9, 38, 0
1, 321350, Note_off_c, 9, 51, 0
1, 321388, Note_off_c, 0, 25, 0
1, 321398, Lyric_t, "an"
1, 321467, Note_off_c, 5, 65, 0
1, 321467, Note_off_c, 10, 65, 0
1, 321588, Note_off_c, 3, 65, 0
1, 321588, Note_off_c, 7, 65, 0
1, 321590, Note_on_c, 0, 25, 102
1, 321590, Note_on_c, 3, 63, 87
1, 321590, Note_on_c, 5, 63, 99
1, 321590, Note_on_c, 9, 36, 78
1, 321590, Note_on_c, 9, 70, 78
1, 321590, Note_on_c, 9, 62, 99
1, 321590, Note_on_c, 9, 51, 72
1, 321590, Note_on_c, 7, 63, 87
1, 321590, Note_on_c, 10, 63, 99
1, 321614, Note_on_c, 2, 73, 108
1, 321661, Lyric_t, "do"
1, 321769, Note_off_c, 9, 70, 0
1, 321826, Note_off_c, 2, 73, 0
1, 321830, Note_off_c, 9, 36, 0
1, 321830, Note_off_c, 9, 62, 0
1, 321838, Note_off_c, 9, 51, 0
1, 321863, Note_off_c, 0, 25, 0
1, 322065, Lyric_t, " me"
1, 322070, Note_on_c, 0, 32, 99
1, 322070, Note_on_c, 9, 36, 87
1, 322070, Note_on_c, 9, 70, 93
1, 322070, Note_on_c, 9, 51, 80
1, 322100, Note_on_c, 2, 73, 105
1, 322254, Note_off_c, 3, 49, 0
1, 322254, Note_off_c, 7, 49, 0
1, 322260, Note_off_c, 5, 49, 0
1, 322260, Note_off_c, 10, 49, 0
1, 322279, Note_off_c, 5, 56, 0
1, 322279, Note_off_c, 10, 56, 0
1, 322280, Note_off_c, 9, 70, 0
1, 322310, Note_off_c, 9, 36, 0
1, 322310, Note_off_c, 9, 51, 0
1, 322334, Note_off_c, 3, 56, 0
1, 322334, Note_off_c, 7, 56, 0
1, 322363, Lyric_t, " e"
1, 322545, Note_on_c, 2, 75, 99
1, 322550, Note_on_c, 3, 49, 72
1, 322550, Note_on_c, 9, 70, 76
1, 322550, Note_on_c, 9, 61, 78
1, 322550, Note_on_c, 9, 51, 72
1, 322550, Note_on_c, 7, 49, 72
1, 322565, Note_off_c, 2, 73, 0
1, 322660, Lyric_t, "na"
1, 322706, Note_off_c, 9, 70, 0
1, 322760, Note_off_c, 9, 51, 0
1, 322841, Note_off_c, 9, 61, 0
1, 322878, Note_off_c, 0, 32, 0
1, 322975, Note_off_c, 2, 75, 0
1, 323027, Note_on_c, 2, 77, 99
1, 323030, Note_on_c, 0, 32, 105
1, 323030, Note_on_c, 3, 56, 84
1, 323030, Note_on_c, 5, 56, 87
1, 323030, Note_on_c, 9, 38, 93
1, 323030, Note_on_c, 9, 70, 102
1, 323030, Note_on_c, 9, 82, 78
1, 323030, Note_on_c, 9, 51, 102
1, 323030, Note_on_c, 7, 56, 84
1, 323030, Note_on_c, 10, 56, 87
1, 323087, Lyric_t, "mo"
1, 323194, Note_off_c, 9, 70, 0
1, 323194, Note_off_c, 9, 82, 0
1, 323270, Note_off_c, 9, 38, 0
1, 323354, Note_off_c, 9, 51, 0
1, 323407, Note_off_c, 3, 63, 0
1, 323407, Note_off_c, 7, 63, 0
1, 323433, Note_off_c, 2, 77, 0
1, 323510, Note_on_c, 3, 61, 87
1, 323510, Note_on_c, 9, 82, 87
1, 323510, Note_on_c, 9, 70, 82
1, 323510, Note_on_c, 9, 61, 76
1, 323510, Note_on_c, 9, 51, 66
1, 323510, Note_on_c, 7, 61, 87
1, 323539, Note_on_c, 2, 77, 96
1, 323694, Note_off_c, 9, 82, 0
1, 323702, Note_off_c, 9, 70, 0
1, 323707, Note_off_c, 9, 51, 0
1, 323710, Lyric_t, "r"
1, 323763, Note_off_c, 9, 61, 0
1, 323822, Note_off_c, 5, 56, 0
1, 323822, Note_off_c, 10, 56, 0
1, 323851, Note_off_c, 3, 61, 0
1, 323851, Note_off_c, 7, 61, 0
1, 323888, Note_off_c, 0, 32, 0
1, 323920, Note_off_c, 5, 63, 0
1, 323920, Note_off_c, 10, 63, 0
1, 323990, Note_off_c, 2, 77, 0
1, 323990, Note_on_c, 0, 25, 99
1, 323990, Note_on_c, 3, 61, 90
1, 323990, Note_on_c, 5, 61, 90
1, 323990, Note_on_c, 5, 49, 50
1, 323990, Note_on_c, 9, 36, 84
1, 323990, Note_on_c, 9, 70, 93
1, 323990, Note_on_c, 9, 60, 82
1, 323990, Note_on_c, 9, 51, 99
1, 323990, Note_on_c, 7, 61, 90
1, 323990, Note_on_c, 10, 61, 90
1, 323990, Note_on_c, 10, 49, 50
1, 324179, Note_off_c, 3, 49, 0
1, 324179, Note_off_c, 7, 49, 0
1, 324185, Note_off_c, 9, 60, 0
1, 324224, Note_off_c, 9, 70, 0
1, 324230, Note_off_c, 9, 36, 0
1, 324230, Note_off_c, 9, 51, 0
1, 324268, Note_off_c, 3, 56, 0
1, 324268, Note_off_c, 7, 56, 0
1, 324470, Note_on_c, 3, 49, 82
1, 324470, Note_on_c, 9, 70, 76
1, 324470, Note_on_c, 9, 61, 72
1, 324470, Note_on_c, 9, 51, 61
1, 324470, Note_on_c, 7, 49, 82
1, 324636, Note_off_c, 9, 70, 0
1, 324673, Note_off_c, 9, 51, 0
1, 324710, Note_off_c, 9, 61, 0
1, 324802, Lyric_t, "o"
1, 324950, Note_on_c, 3, 56, 72
1, 324950, Note_on_c, 5, 56, 76
1, 324950, Note_on_c, 9, 38, 84
1, 324950, Note_on_c, 9, 70, 102
1, 324950, Note_on_c, 9, 51, 93
1, 324950, Note_on_c, 7, 56, 72
1, 324950, Note_on_c, 10, 56, 76
1, 325095, Note_off_c, 0, 25, 0
1, 325177, Note_off_c, 9, 70, 0
1, 325190, Note_off_c, 9, 38, 0
1, 325190, Note_off_c, 9, 51, 0
1, 325264, Note_off_c, 3, 61, 0
1, 325264, Note_off_c, 7, 61, 0
1, 325315, Note_off_c, 5, 61, 0
1, 325315, Note_off_c, 10, 61, 0
1, 325430, Note_on_c, 0, 25, 99
1, 325430, Note_on_c, 3, 63, 90
1, 325430, Note_on_c, 5, 63, 99
1, 325430, Note_on_c, 9, 36, 93
1, 325430, Note_on_c, 9, 70, 93
1, 325430, Note_on_c, 9, 62, 82
1, 325430, Note_on_c, 9, 51, 78
1, 325430, Note_on_c, 7, 63, 90
1, 325430, Note_on_c, 10, 63, 99
1, 325629, Note_off_c, 9, 70, 0
1, 325670, Note_off_c, 9, 36, 0
1, 325670, Note_off_c, 9, 62, 0
1, 325670, Note_off_c, 9, 51, 0
1, 325685, Note_off_c, 0, 25, 0
1, 325686, Control_c, 5, 64, 0
1, 325686, Control_c, 10, 64, 0
1, 325876, Control_c, 5, 64, 127
1, 325876, Control_c, 10, 64, 127
1, 325910, Note_on_c, 0, 32, 99
1, 325910, Note_on_c, 9, 36, 84
1, 325910, Note_on_c, 9, 70, 82
1, 325910, Note_on_c, 9, 51, 72
1, 325927, Note_on_c, 2, 80, 108
1, 326070, Note_off_c, 5, 49, 0
1, 326070, Note_off_c, 10, 49, 0
1, 326080, Lyric_t, "\\Cu"
1, 326086, Note_off_c, 3, 49, 0
1, 326086, Note_off_c, 7, 49, 0
1, 326133, Note_off_c, 9, 70, 0
1, 326150, Note_off_c, 9, 36, 0
1, 326184, Note_off_c, 9, 51, 0
1, 326236, Note_off_c, 5, 56, 0
1, 326236, Note_off_c, 10, 56, 0
1, 326241, Note_off_c, 3, 56, 0
1, 326241, Note_off_c, 7, 56, 0
1, 326334, Lyric_t, "an"
1, 326344, Note_off_c, 2, 80, 0
1, 326355, Note_on_c, 2, 78, 76
1, 326390, Note_on_c, 3, 49, 76
1, 326390, Note_on_c, 5, 49, 76
1, 326390, Note_on_c, 9, 70, 72
1, 326390, Note_on_c, 9, 62, 99
1, 326390, Note_on_c, 9, 51, 74
1, 326390, Note_on_c, 7, 49, 76
1, 326390, Note_on_c, 10, 49, 76
1, 326545, Lyric_t, "do"
1, 326552, Note_off_c, 9, 70, 0
1, 326630, Note_off_c, 9, 62, 0
1, 326675, Note_off_c, 9, 51, 0
1, 326679, Note_off_c, 2, 78, 0
1, 326869, Note_on_c, 2, 78, 102
1, 326870, Note_on_c, 3, 56, 76
1, 326870, Note_on_c, 9, 38, 84
1, 326870, Note_on_c, 9, 70, 99
1, 326870, Note_on_c, 9, 82, 84
1, 326870, Note_on_c, 9, 51, 93
1, 326870, Note_on_c, 7, 56, 76
1, 326918, Lyric_t, " me"
1, 327034, Note_off_c, 9, 82, 0
1, 327084, Note_off_c, 9, 70, 0
1, 327093, Note_off_c, 0, 32, 0
1, 327110, Note_off_c, 9, 38, 0
1, 327110, Note_off_c, 9, 51, 0
1, 327211, Note_off_c, 3, 63, 0
1, 327211, Note_off_c, 7, 63, 0
1, 327342, Note_on_c, 2, 77, 80
1, 327350, Note_off_c, 2, 78, 0
1, 327350, Note_on_c, 0, 32, 99
1, 327350, Note_on_c, 3, 65, 84
1, 327350, Note_on_c, 5, 65, 82
1, 327350, Note_on_c, 9, 36, 102
1, 327350, Note_on_c, 9, 70, 87
1, 327350, Note_on_c, 9, 60, 78
1, 327350, Note_on_c, 9, 51, 76
1, 327350, Note_on_c, 7, 65, 84
1, 327350, Note_on_c, 10, 65, 82
1, 327381, Note_off_c, 5, 63, 0
1, 327381, Note_off_c, 10, 63, 0
1, 327489, Lyric_t, "nos"
1, 327568, Note_off_c, 0, 32, 0
1, 327568, Note_off_c, 9, 70, 0
1, 327586, Note_off_c, 9, 60, 0
1, 327590, Note_off_c, 9, 36, 0
1, 327603, Note_off_c, 9, 51, 0
1, 327625, Note_off_c, 2, 77, 0
1, 327795, Note_on_c, 2, 77, 90
1, 327830, Note_on_c, 0, 25, 102
1, 327830, Note_on_c, 9, 70, 74
1, 327830, Note_on_c, 9, 51, 90
1, 327907, Lyric_t, " me"
1, 327991, Note_off_c, 3, 49, 0
1, 327991, Note_off_c, 7, 49, 0
1, 327998, Note_off_c, 9, 70, 0
1, 328070, Note_off_c, 9, 51, 0
1, 328073, Note_off_c, 3, 56, 0
1, 328073, Note_off_c, 7, 56, 0
1, 328262, Note_off_c, 2, 77, 0
1, 328270, Lyric_t, " lo"
1, 328284, Note_on_c, 2, 75, 84
1, 328310, Note_on_c, 3, 49, 74
1, 328310, Note_on_c, 5, 56, 70
1, 328310, Note_on_c, 9, 70, 78
1, 328310, Note_on_c, 9, 62, 84
1, 328310, Note_on_c, 9, 51, 74
1, 328310, Note_on_c, 7, 49, 74
1, 328310, Note_on_c, 10, 56, 70
1, 328481, Note_off_c, 9, 70, 0
1, 328530, Note_off_c, 9, 51, 0
1, 328550, Note_off_c, 9, 62, 0
1, 328557, Lyric_t, " es"
1, 328575, Note_off_c, 2, 75, 0
1, 328780, Note_on_c, 2, 75, 76
1, 328790, Note_on_c, 3, 56, 76
1, 328790, Note_on_c, 9, 38, 99
1, 328790, Note_on_c, 9, 82, 87
1, 328790, Note_on_c, 9, 70, 93
1, 328790, Note_on_c, 9, 51, 99
1, 328790, Note_on_c, 7, 56, 76
1, 328875, Lyric_t, "pe"
1, 328965, Note_off_c, 9, 82, 0
1, 329003, Note_off_c, 0, 25, 0
1, 329006, Note_off_c, 9, 70, 0
1, 329014, Note_off_c, 5, 65, 0
1, 329014, Note_off_c, 10, 65, 0
1, 329030, Note_off_c, 9, 38, 0
1, 329082, Note_off_c, 9, 51, 0
1, 329215, Note_off_c, 2, 75, 0
1, 329218, Note_off_c, 3, 65, 0
1, 329218, Note_off_c, 7, 65, 0
1, 329251, Note_on_c, 2, 73, 87
1, 329270, Note_on_c, 0, 25, 90
1, 329270, Note_on_c, 3, 63, 99
1, 329270, Note_on_c, 5, 63, 80
1, 329270, Note_on_c, 9, 36, 84
1, 329270, Note_on_c, 9, 70, 80
1, 329270, Note_on_c, 9, 60, 74
1, 329270, Note_on_c, 9, 51, 80
1, 329270, Note_on_c, 7, 63, 99
1, 329270, Note_on_c, 10, 63, 80
1, 329357, Lyric_t, "ro"
1, 329467, Note_off_c, 5, 56, 0
1, 329467, Note_off_c, 10, 56, 0
1, 329480, Note_off_c, 9, 70, 0
1, 329503, Note_off_c, 9, 51, 0
1, 329510, Note_off_c, 9, 36, 0
1, 329510, Note_off_c, 9, 60, 0
1, 329521, Note_off_c, 0, 25, 0
1, 329562, Note_off_c, 2, 73, 0
1, 329746, Note_on_c, 2, 73, 93
1, 329750, Note_on_c, 0, 25, 93
1, 329750, Note_on_c, 9, 36, 87
1, 329750, Note_on_c, 9, 70, 87
1, 329750, Note_on_c, 9, 51, 87
1, 329786, Lyric_t, "\\Me"
1, 329807, Note_off_c, 3, 49, 0
1, 329807, Note_off_c, 7, 49, 0
1, 329934, Note_off_c, 3, 56, 0
1, 329934, Note_off_c, 7, 56, 0
1, 329975, Note_off_c, 9, 70, 0
1, 329990, Note_off_c, 9, 36, 0
1, 330024, Note_off_c, 9, 51, 0
1, 330071, Lyric_t, " e"
1, 330156, Note_off_c, 2, 73, 0
1, 330186, Note_off_c, 5, 63, 0
1, 330186, Note_off_c, 10, 63, 0
1, 330193, Note_on_c, 2, 75, 105
1, 330230, Note_on_c, 3, 49, 78
1, 330230, Note_on_c, 5, 61, 90
1, 330230, Note_on_c, 9, 70, 78
1, 330230, Note_on_c, 9, 61, 78
1, 330230, Note_on_c, 9, 51, 80
1, 330230, Note_on_c, 7, 49, 78
1, 330230, Note_on_c, 10, 61, 90
1, 330379, Lyric_t, "na"
1, 330435, Note_off_c, 9, 70, 0
1, 330468, Note_off_c, 9, 51, 0
1, 330470, Note_off_c, 9, 61, 0
1, 330524, Note_off_c, 2, 75, 0
1, 330575, Note_off_c, 0, 25, 0
1, 330707, Lyric_t, "mo"
1, 330710, Note_on_c, 0, 25, 82
1, 330710, Note_on_c, 3, 56, 93
1, 330710, Note_on_c, 5, 56, 76
1, 330710, Note_on_c, 9, 38, 93
1, 330710, Note_on_c, 9, 70, 93
1, 330710, Note_on_c, 9, 51, 99
1, 330710, Note_on_c, 7, 56, 93
1, 330710, Note_on_c, 10, 56, 76
1, 330711, Note_on_c, 2, 75, 108
1, 330720, Note_off_c, 5, 49, 0
1, 330720, Note_off_c, 10, 49, 0
1, 330924, Note_off_c, 9, 70, 0
1, 330950, Note_off_c, 9, 38, 0
1, 331042, Note_off_c, 9, 51, 0
1, 331089, Note_off_c, 3, 63, 0
1, 331089, Note_off_c, 7, 63, 0
1, 331135, Note_off_c, 2, 75, 0
1, 331148, Note_on_c, 2, 72, 87
1, 331173, Note_off_c, 0, 25, 0
1, 331190, Note_on_c, 0, 27, 76
1, 331190, Note_on_c, 3, 61, 90
1, 331190, Note_on_c, 9, 82, 74
1, 331190, Note_on_c, 9, 70, 99
1, 331190, Note_on_c, 9, 62, 96
1, 331190, Note_on_c, 9, 51, 76
1, 331190, Note_on_c, 7, 61, 90
1, 331275, Lyric_t, "r"
1, 331373, Note_off_c, 9, 82, 0
1, 331387, Note_off_c, 9, 70, 0
1, 331406, Note_off_c, 9, 51, 0
1, 331470, Note_off_c, 9, 62, 0
1, 331528, Lyric_t, "o"
1, 331540, Note_off_c, 1, 61, 0
1, 331540, Note_off_c, 6, 61, 0
1, 331586, Note_off_c, 5, 61, 0
1, 331586, Note_off_c, 10, 61, 0
1, 331598, Control_c, 5, 64, 0
1, 331598, Control_c, 10, 64, 0
1, 331600, Note_off_c, 3, 49, 0
1, 331600, Note_off_c, 7, 49, 0
1, 331670, Note_on_c, 0, 32, 93
1, 331670, Note_on_c, 1, 60, 72
1, 331670, Note_on_c, 3, 60, 80
1, 331670, Note_on_c, 5, 60, 93
1, 331670, Note_on_c, 6, 60, 72
1, 331670, Note_on_c, 9, 36, 84
1, 331670, Note_on_c, 9, 70, 90
1, 331670, Note_on_c, 9, 60, 111
1, 331670, Note_on_c, 9, 51, 93
1, 331670, Note_on_c, 7, 60, 80
1, 331670, Note_on_c, 10, 60, 93
1, 331671, Note_off_c, 0, 27, 0
1, 331673, Note_off_c, 3, 61, 0
1, 331673, Note_off_c, 7, 61, 0
1, 331733, Note_off_c, 2, 72, 0
1, 331790, Control_c, 5, 64, 127
1, 331790, Control_c, 10, 64, 127
1, 331797, Note_off_c, 5, 56, 0
1, 331797, Note_off_c, 10, 56, 0
1, 331815, Lyric_t, "."
1, 331847, Note_off_c, 3, 56, 0
1, 331847, Note_off_c, 7, 56, 0
1, 331883, Note_off_c, 9, 70, 0
1, 331886, Note_off_c, 9, 60, 0
1, 331910, Note_off_c, 9, 36, 0
1, 331959, Note_off_c, 9, 51, 0
1, 332150, Note_on_c, 3, 56, 74
1, 332150, Note_on_c, 9, 70, 78
1, 332150, Note_on_c, 9, 61, 82
1, 332150, Note_on_c, 9, 51, 45
1, 332150, Note_on_c, 7, 56, 74
1, 332254, Note_off_c, 9, 61, 0
1, 332345, Note_off_c, 9, 70, 0
1, 332356, Note_off_c, 9, 51, 0
1, 332630, Note_on_c, 5, 56, 74
1, 332630, Note_on_c, 9, 38, 87
1, 332630, Note_on_c, 9, 70, 90
1, 332630, Note_on_c, 9, 82, 82
1, 332630, Note_on_c, 9, 51, 80
1, 332630, Note_on_c, 10, 56, 74
1, 332779, Note_off_c, 9, 82, 0
1, 332808, Note_off_c, 0, 32, 0
1, 332827, Note_off_c, 9, 70, 0
1, 332870, Note_off_c, 9, 38, 0
1, 332948, Note_off_c, 9, 51, 0
1, 332992, Note_off_c, 5, 60, 0
1, 332992, Note_off_c, 10, 60, 0
1, 333110, Note_on_c, 0, 32, 105
1, 333110, Note_on_c, 3, 61, 78
1, 333110, Note_on_c, 5, 61, 80
1, 333110, Note_on_c, 9, 36, 78
1, 333110, Note_on_c, 9, 70, 99
1, 333110, Note_on_c, 9, 62, 90
1, 333110, Note_on_c, 9, 51, 74
1, 333110, Note_on_c, 7, 61, 78
1, 333110, Note_on_c, 10, 61, 80
1, 333129, Note_off_c, 3, 60, 0
1, 333129, Note_off_c, 7, 60, 0
1, 333154, Lyric_t, "."
1, 333309, Note_off_c, 9, 62, 0
1, 333337, Note_off_c, 9, 70, 0
1, 333350, Note_off_c, 9, 36, 0
1, 333386, Note_off_c, 9, 51, 0
1, 333469, Note_off_c, 0, 32, 0
1, 333590, Note_on_c, 0, 27, 93
1, 333590, Note_on_c, 9, 36, 84
1, 333590, Note_on_c, 9, 70, 76
1, 333590, Note_on_c, 9, 51, 68
1, 333650, Note_off_c, 3, 56, 0
1, 333650, Note_off_c, 7, 56, 0
1, 333743, Note_off_c, 5, 56, 0
1, 333743, Note_off_c, 10, 56, 0
1, 333778, Note_off_c, 9, 70, 0
1, 333830, Note_off_c, 9, 36, 0
1, 333890, Note_off_c, 9, 51, 0
1, 334070, Note_on_c, 3, 56, 87
1, 334070, Note_on_c, 5, 56, 84
1, 334070, Note_on_c, 9, 70, 64
1, 334070, Note_on_c, 9, 60, 93
1, 334070, Note_on_c, 9, 51, 66
1, 334070, Note_on_c, 7, 56, 87
1, 334070, Note_on_c, 10, 56, 84
1, 334236, Note_off_c, 9, 70, 0
1, 334267, Note_off_c, 9, 51, 0
1, 334275, Note_off_c, 9, 60, 0
1, 334550, Note_on_c, 9, 38, 87
1, 334550, Note_on_c, 9, 70, 102
1, 334550, Note_on_c, 9, 51, 99
1, 334752, Note_off_c, 5, 61, 0
1, 334752, Note_off_c, 10, 61, 0
1, 334770, Note_off_c, 0, 27, 0
1, 334781, Note_off_c, 9, 70, 0
1, 334790, Note_off_c, 9, 38, 0
1, 334919, Note_off_c, 9, 51, 0
1, 334946, Note_off_c, 3, 61, 0
1, 334946, Note_off_c, 7, 61, 0
1, 335030, Note_on_c, 0, 27, 93
1, 335030, Note_on_c, 3, 60, 93
1, 335030, Note_on_c, 5, 60, 99
1, 335030, Note_on_c, 9, 36, 93
1, 335030, Note_on_c, 9, 82, 74
1, 335030, Note_on_c, 9, 70, 102
1, 335030, Note_on_c, 9, 61, 87
1, 335030, Note_on_c, 9, 51, 57
1, 335030, Note_on_c, 7, 60, 93
1, 335030, Note_on_c, 10, 60, 99
1, 335199, Note_off_c, 9, 82, 0
1, 335233, Note_off_c, 0, 27, 0
1, 335235, Note_off_c, 9, 61, 0
1, 335259, Note_off_c, 9, 51, 0
1, 335270, Note_off_c, 9, 36, 0
1, 335298, Note_off_c, 9, 70, 0
1, 335322, Control_c, 5, 64, 0
1, 335322, Control_c, 10, 64, 0
1, 335510, Note_on_c, 0, 32, 99
1, 335510, Note_on_c, 9, 70, 76
1, 335510, Note_on_c, 9, 51, 87
1, 335512, Control_c, 5, 64, 127
1, 335512, Control_c, 10, 64, 127
1, 335685, Note_off_c, 9, 70, 0
1, 335750, Note_off_c, 5, 56, 0
1, 335750, Note_off_c, 10, 56, 0
1, 335750, Note_off_c, 9, 51, 0
1, 335779, Note_off_c, 3, 56, 0
1, 335779, Note_off_c, 7, 56, 0
1, 335990, Note_on_c, 3, 56, 70
1, 335990, Note_on_c, 5, 56, 72
1, 335990, Note_on_c, 9, 70, 74
1, 335990, Note_on_c, 9, 62, 93
1, 335990, Note_on_c, 9, 51, 62
1, 335990, Note_on_c, 7, 56, 70
1, 335990, Note_on_c, 10, 56, 72
1, 336186, Note_off_c, 9, 70, 0
1, 336193, Note_off_c, 9, 51, 0
1, 336226, Note_off_c, 9, 62, 0
1, 336447, Note_on_c, 2, 72, 93
1, 336470, Note_on_c, 9, 38, 90
1, 336470, Note_on_c, 9, 70, 93
1, 336470, Note_on_c, 9, 51, 93
1, 336625, Lyric_t, "\\Se"
1, 336696, Note_off_c, 9, 70, 0
1, 336710, Note_off_c, 9, 38, 0
1, 336710, Note_off_c, 9, 51, 0
1, 336749, Note_off_c, 5, 60, 0
1, 336749, Note_off_c, 10, 60, 0
1, 336839, Note_off_c, 3, 60, 0
1, 336839, Note_off_c, 7, 60, 0
1, 336929, Note_on_c, 2, 73, 99
1, 336949, Note_off_c, 2, 72, 0
1, 336950, Note_on_c, 0, 27, 93
1, 336950, Note_on_c, 3, 61, 82
1, 336950, Note_on_c, 5, 61, 72
1, 336950, Note_on_c, 9, 36, 78
1, 336950, Note_on_c, 9, 70, 78
1, 336950, Note_on_c, 9, 62, 99
1, 336950, Note_on_c, 9, 51, 72
1, 336950, Note_on_c, 7, 61, 82
1, 336950, Note_on_c, 10, 61, 72
1, 336992, Note_off_c, 0, 32, 0
1, 337064, Lyric_t, " de"
1, 337129, Note_off_c, 9, 70, 0
1, 337130, Note_off_c, 0, 27, 0
1, 337167, Note_off_c, 2, 73, 0
1, 337190, Note_off_c, 9, 36, 0
1, 337190, Note_off_c, 9, 62, 0
1, 337198, Note_off_c, 9, 51, 0
1, 337284, Note_off_c, 5, 56, 0
1, 337284, Note_off_c, 10, 56, 0
1, 337310, Lyric_t, "ti"
1, 337430, Note_on_c, 0, 27, 87
1, 337430, Note_on_c, 9, 36, 87
1, 337430, Note_on_c, 9, 70, 93
1, 337430, Note_on_c, 9, 51, 80
1, 337454, Note_on_c, 2, 73, 108
1, 337546, Lyric_t, "e"
1, 337640, Note_off_c, 9, 70, 0
1, 337644, Note_off_c, 3, 56, 0
1, 337644, Note_off_c, 7, 56, 0
1, 337670, Note_off_c, 9, 36, 0
1, 337720, Note_off_c, 9, 51, 0
1, 337871, Note_off_c, 2, 73, 0
1, 337887, Lyric_t, "ne"
1, 337901, Note_on_c, 2, 75, 108
1, 337910, Note_on_c, 3, 56, 74
1, 337910, Note_on_c, 5, 56, 72
1, 337910, Note_on_c, 9, 70, 76
1, 337910, Note_on_c, 9, 61, 78
1, 337910, Note_on_c, 9, 51, 72
1, 337910, Note_on_c, 7, 56, 74
1, 337910, Note_on_c, 10, 56, 72
1, 338066, Note_off_c, 9, 70, 0
1, 338098, Lyric_t, " el"
1, 338120, Note_off_c, 9, 51, 0
1, 338128, Note_off_c, 2, 75, 0
1, 338201, Note_off_c, 9, 61, 0
1, 338331, Note_off_c, 0, 27, 0
1, 338390, Note_on_c, 0, 32, 105
1, 338390, Note_on_c, 9, 38, 93
1, 338390, Note_on_c, 9, 70, 102
1, 338390, Note_on_c, 9, 82, 78
1, 338390, Note_on_c, 9, 51, 102
1, 338391, Note_on_c, 2, 75, 108
1, 338418, Lyric_t, " ti"
1, 338554, Note_off_c, 9, 70, 0
1, 338554, Note_off_c, 9, 82, 0
1, 338611, Note_off_c, 5, 61, 0
1, 338611, Note_off_c, 10, 61, 0
1, 338630, Note_off_c, 9, 38, 0
1, 338714, Note_off_c, 9, 51, 0
1, 338830, Note_off_c, 3, 61, 0
1, 338830, Note_off_c, 7, 61, 0
1, 338836, Lyric_t, "em"
1, 338870, Note_on_c, 3, 60, 96
1, 338870, Note_on_c, 5, 60, 84
1, 338870, Note_on_c, 9, 82, 87
1, 338870, Note_on_c, 9, 70, 82
1, 338870, Note_on_c, 9, 61, 76
1, 338870, Note_on_c, 9, 51, 66
1, 338870, Note_on_c, 7, 60, 96
1, 338870, Note_on_c, 10, 60, 84
1, 339054, Note_off_c, 9, 82, 0
1, 339062, Note_off_c, 9, 70, 0
1, 339067, Note_off_c, 9, 51, 0
1, 339105, Note_off_c, 5, 56, 0
1, 339105, Note_off_c, 10, 56, 0
1, 339123, Note_off_c, 9, 61, 0
1, 339278, Control_c, 5, 64, 0
1, 339278, Control_c, 10, 64, 0
1, 339350, Note_on_c, 9, 36, 84
1, 339350, Note_on_c, 9, 70, 93
1, 339350, Note_on_c, 9, 60, 82
1, 339350, Note_on_c, 9, 51, 99
1, 339431, Control_c, 5, 64, 127
1, 339431, Control_c, 10, 64, 127
1, 339545, Note_off_c, 9, 60, 0
1, 339584, Note_off_c, 9, 70, 0
1, 339590, Note_off_c, 9, 36, 0
1, 339590, Note_off_c, 9, 51, 0
1, 339592, Note_off_c, 2, 75, 0
1, 339619, Note_off_c, 3, 56, 0
1, 339619, Note_off_c, 7, 56, 0
1, 339804, Note_on_c, 2, 75, 114
1, 339830, Note_on_c, 3, 56, 74
1, 339830, Note_on_c, 5, 56, 68
1, 339830, Note_on_c, 9, 70, 76
1, 339830, Note_on_c, 9, 61, 72
1, 339830, Note_on_c, 9, 51, 61
1, 339830, Note_on_c, 7, 56, 74
1, 339830, Note_on_c, 10, 56, 68
1, 339917, Lyric_t, "p"
1, 339996, Note_off_c, 9, 70, 0
1, 340033, Note_off_c, 9, 51, 0
1, 340070, Note_off_c, 9, 61, 0
1, 340139, Lyric_t, "o"
1, 340288, Note_off_c, 5, 60, 0
1, 340288, Note_off_c, 10, 60, 0
1, 340310, Note_on_c, 9, 38, 84
1, 340310, Note_on_c, 9, 70, 102
1, 340310, Note_on_c, 9, 51, 93
1, 340366, Note_off_c, 0, 32, 0
1, 340385, Lyric_t, "."
1, 340537, Note_off_c, 9, 70, 0
1, 340550, Note_off_c, 9, 38, 0
1, 340550, Note_off_c, 9, 51, 0
1, 340569, Note_off_c, 2, 75, 0
1, 340689, Note_off_c, 3, 60, 0
1, 340689, Note_off_c, 7, 60, 0
1, 340790, Note_on_c, 0, 32, 99
1, 340790, Note_on_c, 3, 61, 84
1, 340790, Note_on_c, 5, 61, 76
1, 340790, Note_on_c, 9, 36, 93
1, 340790, Note_on_c, 9, 70, 93
1, 340790, Note_on_c, 9, 62, 82
1, 340790, Note_on_c, 9, 51, 78
1, 340790, Note_on_c, 7, 61, 84
1, 340790, Note_on_c, 10, 61, 76
1, 340989, Note_off_c, 9, 70, 0
1, 341030, Note_off_c, 9, 36, 0
1, 341030, Note_off_c, 9, 62, 0
1, 341030, Note_off_c, 9, 51, 0
1, 341073, Note_off_c, 0, 32, 0
1, 341270, Note_on_c, 0, 27, 82
1, 341270, Note_on_c, 9, 36, 84
1, 341270, Note_on_c, 9, 70, 82
1, 341270, Note_on_c, 9, 51, 72
1, 341493, Note_off_c, 9, 70, 0
1, 341510, Note_off_c, 9, 36, 0
1, 341544, Note_off_c, 9, 51, 0
1, 341572, Note_off_c, 3, 56, 0
1, 341572, Note_off_c, 7, 56, 0
1, 341695, Note_off_c, 5, 61, 0
1, 341695, Note_off_c, 10, 61, 0
1, 341750, Note_on_c, 3, 56, 74
1, 341750, Note_on_c, 5, 63, 80
1, 341750, Note_on_c, 9, 70, 72
1, 341750, Note_on_c, 9, 62, 99
1, 341750, Note_on_c, 9, 51, 74
1, 341750, Note_on_c, 7, 56, 74
1, 341750, Note_on_c, 10, 63, 80
1, 341825, Lyric_t, "."
1, 341912, Note_off_c, 9, 70, 0
1, 341990, Note_off_c, 9, 62, 0
1, 342035, Note_off_c, 9, 51, 0
1, 342127, Note_off_c, 5, 56, 0
1, 342127, Note_off_c, 10, 56, 0
1, 342230, Note_on_c, 9, 38, 84
1, 342230, Note_on_c, 9, 70, 99
1, 342230, Note_on_c, 9, 82, 84
1, 342230, Note_on_c, 9, 51, 93
1, 342348, Note_off_c, 0, 27, 0
1, 342394, Note_off_c, 9, 82, 0
1, 342444, Note_off_c, 9, 70, 0
1, 342470, Note_off_c, 9, 38, 0
1, 342573, Note_off_c, 9, 51, 0
1, 342654, Note_off_c, 5, 63, 0
1, 342654, Note_off_c, 10, 63, 0
1, 342678, Note_off_c, 3, 61, 0
1, 342678, Note_off_c, 7, 61, 0
1, 342710, Note_on_c, 0, 27, 93
1, 342710, Note_on_c, 3, 60, 87
1, 342710, Note_on_c, 5, 60, 82
1, 342710, Note_on_c, 9, 36, 102
1, 342710, Note_on_c, 9, 70, 87
1, 342710, Note_on_c, 9, 60, 78
1, 342710, Note_on_c, 9, 51, 76
1, 342710, Note_on_c, 7, 60, 87
1, 342710, Note_on_c, 10, 60, 82
1, 342913, Note_off_c, 0, 27, 0
1, 342928, Note_off_c, 9, 70, 0
1, 342946, Note_off_c, 9, 60, 0
1, 342950, Note_off_c, 9, 36, 0
1, 342963, Note_off_c, 9, 51, 0
1, 343000, Control_c, 5, 64, 0
1, 343000, Control_c, 10, 64, 0
1, 343156, Control_c, 5, 64, 127
1, 343156, Control_c, 10, 64, 127
1, 343190, Note_on_c, 0, 32, 102
1, 343190, Note_on_c, 9, 70, 74
1, 343190, Note_on_c, 9, 51, 90
1, 343358, Note_off_c, 9, 70, 0
1, 343512, Note_off_c, 9, 51, 0
1, 343538, Note_off_c, 3, 56, 0
1, 343538, Note_off_c, 7, 56, 0
1, 343670, Note_on_c, 3, 56, 70
1, 343670, Note_on_c, 5, 56, 74
1, 343670, Note_on_c, 9, 70, 78
1, 343670, Note_on_c, 9, 62, 84
1, 343670, Note_on_c, 9, 51, 74
1, 343670, Note_on_c, 7, 56, 70
1, 343670, Note_on_c, 10, 56, 74
1, 343693, Note_on_c, 2, 72, 96
1, 343841, Note_off_c, 9, 70, 0
1, 343885, Lyric_t, "\\Me"
1, 343890, Note_off_c, 9, 51, 0
1, 343910, Note_off_c, 9, 62, 0
1, 343928, Note_off_c, 2, 72, 0
1, 344030, Note_off_c, 5, 60, 0
1, 344030, Note_off_c, 10, 60, 0
1, 344150, Note_on_c, 9, 38, 99
1, 344150, Note_on_c, 9, 82, 87
1, 344150, Note_on_c, 9, 70, 93
1, 344150, Note_on_c, 9, 51, 99
1, 344174, Lyric_t, " vi"
1, 344179, Note_on_c, 2, 72, 93
1, 344325, Note_off_c, 9, 82, 0
1, 344366, Note_off_c, 9, 70, 0
1, 344388, Note_off_c, 0, 32, 0
1, 344390, Note_off_c, 9, 38, 0
1, 344390, Note_off_c, 9, 51, 0
1, 344418, Lyric_t, "e"
1, 344436, Note_off_c, 2, 72, 0
1, 344582, Note_off_c, 3, 60, 0
1, 344582, Note_off_c, 7, 60, 0
1, 344630, Note_on_c, 0, 32, 108
1, 344630, Note_on_c, 3, 61, 102
1, 344630, Note_on_c, 5, 60, 84
1, 344630, Note_on_c, 9, 36, 84
1, 344630, Note_on_c, 9, 70, 80
1, 344630, Note_on_c, 9, 60, 74
1, 344630, Note_on_c, 9, 51, 80
1, 344630, Note_on_c, 7, 61, 102
1, 344630, Note_on_c, 10, 60, 84
1, 344663, Note_on_c, 2, 72, 102
1, 344748, Lyric_t, "ne"
1, 344840, Note_off_c, 9, 70, 0
1, 344863, Note_off_c, 9, 51, 0
1, 344870, Note_off_c, 9, 36, 0
1, 344870, Note_off_c, 9, 60, 0
1, 344882, Note_off_c, 5, 56, 0
1, 344882, Note_off_c, 10, 56, 0
1, 344926, Note_off_c, 2, 72, 0
1, 345015, Note_off_c, 0, 32, 0
1, 345046, Lyric_t, " el"
1, 345110, Note_on_c, 0, 27, 99
1, 345110, Note_on_c, 9, 36, 87
1, 345110, Note_on_c, 9, 70, 87
1, 345110, Note_on_c, 9, 51, 87
1, 345159, Note_on_c, 2, 72, 102
1, 345184, Note_off_c, 3, 56, 0
1, 345184, Note_off_c, 7, 56, 0
1, 345321, Lyric_t, " al"
1, 345335, Note_off_c, 9, 70, 0
1, 345350, Note_off_c, 9, 36, 0
1, 345384, Note_off_c, 9, 51, 0
1, 345590, Note_on_c, 3, 56, 80
1, 345590, Note_on_c, 5, 56, 68
1, 345590, Note_on_c, 9, 70, 78
1, 345590, Note_on_c, 9, 61, 78
1, 345590, Note_on_c, 9, 51, 80
1, 345590, Note_on_c, 7, 56, 80
1, 345590, Note_on_c, 10, 56, 68
1, 345795, Note_off_c, 9, 70, 0
1, 345828, Note_off_c, 9, 51, 0
1, 345830, Note_off_c, 9, 61, 0
1, 345868, Note_off_c, 5, 60, 0
1, 345868, Note_off_c, 10, 60, 0
1, 345907, Note_off_c, 0, 27, 0
1, 345938, Note_off_c, 3, 61, 0
1, 345938, Note_off_c, 7, 61, 0
1, 345974, Note_off_c, 2, 72, 0
1, 346056, Note_on_c, 2, 73, 108
1, 346070, Note_on_c, 0, 32, 105
1, 346070, Note_on_c, 3, 60, 96
1, 346070, Note_on_c, 5, 60, 84
1, 346070, Note_on_c, 9, 38, 93
1, 346070, Note_on_c, 9, 70, 93
1, 346070, Note_on_c, 9, 51, 99
1, 346070, Note_on_c, 7, 60, 96
1, 346070, Note_on_c, 10, 60, 84
1, 346108, Lyric_t, "ma"
1, 346284, Note_off_c, 9, 70, 0
1, 346310, Note_off_c, 9, 38, 0
1, 346310, Note_off_c, 9, 51, 0
1, 346334, Note_off_c, 2, 73, 0
1, 346383, Lyric_t, " al"
1, 346446, Note_off_c, 5, 56, 0
1, 346446, Note_off_c, 10, 56, 0
1, 346509, Note_off_c, 5, 60, 0
1, 346509, Note_off_c, 10, 60, 0
1, 346538, Note_on_c, 2, 73, 99
1, 346550, Note_on_c, 0, 27, 93
1, 346550, Note_on_c, 3, 61, 102
1, 346550, Note_on_c, 5, 61, 102
1, 346550, Note_on_c, 9, 82, 74
1, 346550, Note_on_c, 9, 70, 99
1, 346550, Note_on_c, 9, 62, 96
1, 346550, Note_on_c, 9, 51, 76
1, 346550, Note_on_c, 7, 61, 102
1, 346550, Note_on_c, 10, 61, 102
1, 346589, Note_off_c, 3, 60, 0
1, 346589, Note_off_c, 7, 60, 0
1, 346640, Note_off_c, 0, 32, 0
1, 346701, Note_off_c, 3, 56, 0
1, 346701, Note_off_c, 7, 56, 0
1, 346733, Note_off_c, 9, 82, 0
1, 346747, Note_off_c, 9, 70, 0
1, 346766, Note_off_c, 9, 51, 0
1, 346790, Note_off_c, 9, 62, 0
1, 346827, Note_off_c, 0, 27, 0
1, 346881, Control_c, 5, 64, 0
1, 346881, Control_c, 10, 64, 0
1, 346992, Note_off_c, 1, 60, 0
1, 346992, Note_off_c, 6, 60, 0
1, 347027, Lyric_t, " cu"
1, 347030, Note_on_c, 0, 27, 102
1, 347030, Note_on_c, 1, 54, 49
1, 347030, Note_on_c, 1, 58, 61
1, 347030, Note_on_c, 6, 54, 49
1, 347030, Note_on_c, 6, 58, 61
1, 347030, Note_on_c, 9, 36, 84
1, 347030, Note_on_c, 9, 70, 90
1, 347030, Note_on_c, 9, 60, 111
1, 347030, Note_on_c, 9, 51, 93
1, 347073, Control_c, 5, 64, 127
1, 347073, Control_c, 10, 64, 127
1, 347080, Note_off_c, 1, 56, 0
1, 347080, Note_off_c, 6, 56, 0
1, 347192, Note_off_c, 2, 73, 0
1, 347243, Note_off_c, 9, 70, 0
1, 347246, Note_off_c, 9, 60, 0
1, 347270, Note_off_c, 9, 36, 0
1, 347319, Note_off_c, 9, 51, 0
1, 347351, Lyric_t, "er"
1, 347451, Note_on_c, 2, 73, 105
1, 347510, Note_on_c, 3, 51, 72
1, 347510, Note_on_c, 5, 51, 74
1, 347510, Note_on_c, 9, 70, 78
1, 347510, Note_on_c, 9, 61, 82
1, 347510, Note_on_c, 9, 51, 45
1, 347510, Note_on_c, 7, 51, 72
1, 347510, Note_on_c, 10, 51, 74
1, 347614, Note_off_c, 9, 61, 0
1, 347659, Lyric_t, "p"
1, 347705, Note_off_c, 9, 70, 0
1, 347716, Note_off_c, 9, 51, 0
1, 347915, Lyric_t, "o"
1, 347990, Note_on_c, 3, 54, 76
1, 347990, Note_on_c, 5, 54, 68
1, 347990, Note_on_c, 9, 38, 87
1, 347990, Note_on_c, 9, 70, 90
1, 347990, Note_on_c, 9, 82, 82
1, 347990, Note_on_c, 9, 51, 80
1, 347990, Note_on_c, 7, 54, 76
1, 347990, Note_on_c, 10, 54, 68
1, 348139, Note_off_c, 9, 82, 0
1, 348142, Note_off_c, 0, 27, 0
1, 348172, Lyric_t, "."
1, 348187, Note_off_c, 9, 70, 0
1, 348230, Note_off_c, 9, 38, 0
1, 348230, Note_off_c, 9, 51, 0
1, 348302, Note_off_c, 2, 73, 0
1, 348345, Note_off_c, 5, 61, 0
1, 348345, Note_off_c, 10, 61, 0
1, 348367, Note_off_c, 3, 61, 0
1, 348367, Note_off_c, 7, 61, 0
1, 348470, Note_on_c, 0, 27, 99
1, 348470, Note_on_c, 3, 63, 72
1, 348470, Note_on_c, 5, 58, 78
1, 348470, Note_on_c, 9, 36, 78
1, 348470, Note_on_c, 9, 70, 99
1, 348470, Note_on_c, 9, 62, 90
1, 348470, Note_on_c, 9, 51, 74
1, 348470, Note_on_c, 7, 63, 72
1, 348470, Note_on_c, 10, 58, 78
1, 348669, Note_off_c, 9, 62, 0
1, 348697, Note_off_c, 9, 70, 0
1, 348710, Note_off_c, 9, 36, 0
1, 348710, Note_off_c, 9, 51, 0
1, 348724, Note_off_c, 0, 27, 0
1, 348950, Note_on_c, 0, 34, 90
1, 348950, Note_on_c, 9, 36, 84
1, 348950, Note_on_c, 9, 70, 76
1, 348950, Note_on_c, 9, 51, 68
1, 349138, Note_off_c, 9, 70, 0
1, 349161, Note_off_c, 3, 54, 0
1, 349161, Note_off_c, 7, 54, 0
1, 349190, Note_off_c, 9, 36, 0
1, 349190, Note_off_c, 9, 51, 0
1, 349236, Note_off_c, 3, 51, 0
1, 349236, Note_off_c, 7, 51, 0
1, 349329, Lyric_t, "."
1, 349430, Note_on_c, 3, 51, 74
1, 349430, Note_on_c, 5, 61, 105
1, 349430, Note_on_c, 9, 70, 64
1, 349430, Note_on_c, 9, 60, 93
1, 349430, Note_on_c, 9, 51, 66
1, 349430, Note_on_c, 7, 51, 74
1, 349430, Note_on_c, 10, 61, 105
1, 349596, Note_off_c, 9, 70, 0
1, 349627, Note_off_c, 9, 51, 0
1, 349635, Note_off_c, 9, 60, 0
1, 349742, Note_off_c, 5, 54, 0
1, 349742, Note_off_c, 10, 54, 0
1, 349823, Note_off_c, 5, 51, 0
1, 349823, Note_off_c, 10, 51, 0
1, 349910, Note_on_c, 3, 54, 64
1, 349910, Note_on_c, 9, 38, 87
1, 349910, Note_on_c, 9, 70, 102
1, 349910, Note_on_c, 9, 51, 99
1, 349910, Note_on_c, 7, 54, 64
1, 350093, Note_off_c, 0, 34, 0
1, 350141, Note_off_c, 9, 70, 0
1, 350150, Note_off_c, 9, 38, 0
1, 350150, Note_on_c, 5, 51, 66
1, 350150, Note_on_c, 10, 51, 66
1, 350279, Note_off_c, 9, 51, 0
1, 350285, Note_off_c, 5, 61, 0
1, 350285, Note_off_c, 10, 61, 0
1, 350390, Note_on_c, 0, 34, 90
1, 350390, Note_on_c, 3, 58, 52
1, 350390, Note_on_c, 5, 63, 72
1, 350390, Note_on_c, 9, 36, 93
1, 350390, Note_on_c, 9, 82, 74
1, 350390, Note_on_c, 9, 70, 102
1, 350390, Note_on_c, 9, 61, 87
1, 350390, Note_on_c, 9, 51, 57
1, 350390, Note_on_c, 7, 58, 52
1, 350390, Note_on_c, 10, 63, 72
1, 350512, Note_off_c, 3, 63, 0
1, 350512, Note_off_c, 7, 63, 0
1, 350559, Note_off_c, 9, 82, 0
1, 350595, Note_off_c, 9, 61, 0
1, 350608, Note_off_c, 0, 34, 0
1, 350619, Note_off_c, 9, 51, 0
1, 350630, Note_off_c, 9, 36, 0
1, 350658, Note_off_c, 9, 70, 0
1, 350870, Note_on_c, 0, 27, 99
1, 350870, Note_on_c, 3, 61, 80
1, 350870, Note_on_c, 9, 70, 76
1, 350870, Note_on_c, 9, 51, 87
1, 350870, Note_on_c, 7, 61, 80
1, 351045, Note_off_c, 9, 70, 0
1, 351110, Note_off_c, 9, 51, 0
1, 351175, Note_off_c, 3, 51, 0
1, 351175, Note_off_c, 7, 51, 0
1, 351206, Note_off_c, 3, 54, 0
1, 351206, Note_off_c, 7, 54, 0
1, 351350, Note_on_c, 3, 51, 70
1, 351350, Note_on_c, 5, 54, 76
1, 351350, Note_on_c, 9, 70, 74
1, 351350, Note_on_c, 9, 62, 93
1, 351350, Note_on_c, 9, 51, 62
1, 351350, Note_on_c, 7, 51, 70
1, 351350, Note_on_c, 10, 54, 76
1, 351539, Note_off_c, 5, 58, 0
1, 351539, Note_off_c, 10, 58, 0
1, 351546, Note_off_c, 9, 70, 0
1, 351553, Note_off_c, 9, 51, 0
1, 351586, Note_off_c, 9, 62, 0
1, 351698, Note_off_c, 5, 63, 0
1, 351698, Note_off_c, 10, 63, 0
1, 351830, Note_on_c, 3, 54, 76
1, 351830, Note_on_c, 9, 38, 90
1, 351830, Note_on_c, 9, 70, 93
1, 351830, Note_on_c, 9, 51, 93
1, 351830, Note_on_c, 7, 54, 76
1, 352056, Note_off_c, 9, 70, 0
1, 352070, Note_off_c, 9, 38, 0
1, 352070, Note_off_c, 9, 51, 0
1, 352112, Note_off_c, 0, 27, 0
1, 352161, Note_off_c, 3, 61, 0
1, 352161, Note_off_c, 7, 61, 0
1, 352310, Note_on_c, 0, 27, 74
1, 352310, Note_on_c, 3, 63, 70
1, 352310, Note_on_c, 5, 58, 76
1, 352310, Note_on_c, 9, 36, 78
1, 352310, Note_on_c, 9, 70, 78
1, 352310, Note_on_c, 9, 62, 99
1, 352310, Note_on_c, 9, 51, 72
1, 352310, Note_on_c, 7, 63, 70
1, 352310, Note_on_c, 10, 58, 76
1, 352489, Note_off_c, 9, 70, 0
1, 352550, Note_off_c, 9, 36, 0
1, 352550, Note_off_c, 9, 62, 0
1, 352558, Note_off_c, 9, 51, 0
1, 352664, Note_off_c, 0, 27, 0
1, 352790, Note_on_c, 0, 34, 99
1, 352790, Note_on_c, 9, 36, 87
1, 352790, Note_on_c, 9, 70, 93
1, 352790, Note_on_c, 9, 51, 80
1, 352944, Note_off_c, 3, 51, 0
1, 352944, Note_off_c, 7, 51, 0
1, 353000, Note_off_c, 9, 70, 0
1, 353006, Note_off_c, 3, 54, 0
1, 353006, Note_off_c, 7, 54, 0
1, 353030, Note_off_c, 9, 36, 0
1, 353080, Note_off_c, 9, 51, 0
1, 353220, Note_off_c, 5, 58, 0
1, 353220, Note_off_c, 10, 58, 0
1, 353270, Note_on_c, 3, 51, 68
1, 353270, Note_on_c, 5, 61, 84
1, 353270, Note_on_c, 9, 70, 76
1, 353270, Note_on_c, 9, 61, 78
1, 353270, Note_on_c, 9, 51, 72
1, 353270, Note_on_c, 7, 51, 68
1, 353270, Note_on_c, 10, 61, 84
1, 353426, Note_off_c, 9, 70, 0
1, 353480, Note_off_c, 9, 51, 0
1, 353561, Note_off_c, 9, 61, 0
1, 353623, Note_off_c, 5, 54, 0
1, 353623, Note_off_c, 10, 54, 0
1, 353654, Note_off_c, 5, 51, 0
1, 353654, Note_off_c, 10, 51, 0
1, 353671, Note_off_c, 0, 34, 0
1, 353702, Note_off_c, 3, 58, 0
1, 353702, Note_off_c, 7, 58, 0
1, 353750, Note_on_c, 0, 27, 93
1, 353750, Note_on_c, 3, 54, 72
1, 353750, Note_on_c, 5, 51, 43
1, 353750, Note_on_c, 9, 38, 93
1, 353750, Note_on_c, 9, 70, 102
1, 353750, Note_on_c, 9, 82, 78
1, 353750, Note_on_c, 9, 51, 102
1, 353750, Note_on_c, 7, 54, 72
1, 353750, Note_on_c, 10, 51, 43
1, 353764, Note_on_c, 2, 73, 105
1, 353914, Note_off_c, 9, 70, 0
1, 353914, Note_off_c, 9, 82, 0
1, 353952, Lyric_t, "\\Son"
1, 353965, Note_off_c, 2, 73, 0
1, 353990, Note_off_c, 9, 38, 0
1, 353990, Note_off_c, 9, 51, 0
1, 354021, Note_off_c, 5, 61, 0
1, 354021, Note_off_c, 10, 61, 0
1, 354029, Note_off_c, 3, 63, 0
1, 354029, Note_off_c, 7, 63, 0
1, 354119, Note_off_c, 0, 27, 0
1, 354165, Note_off_c, 3, 51, 0
1, 354165, Note_off_c, 7, 51, 0
1, 354230, Note_on_c, 0, 29, 99
1, 354230, Note_on_c, 3, 61, 102
1, 354230, Note_on_c, 5, 61, 80
1, 354230, Note_on_c, 9, 82, 87
1, 354230, Note_on_c, 9, 70, 82
1, 354230, Note_on_c, 9, 61, 76
1, 354230, Note_on_c, 9, 51, 66
1, 354230, Note_on_c, 7, 61, 102
1, 354230, Note_on_c, 10, 61, 80
1, 354250, Note_on_c, 2, 73, 114
1, 354293, Lyric_t, "r"
1, 354414, Note_off_c, 9, 82, 0
1, 354417, Note_off_c, 5, 51, 0
1, 354417, Note_off_c, 10, 51, 0
1, 354422, Note_off_c, 9, 70, 0
1, 354427, Note_off_c, 9, 51, 0
1, 354470, Note_off_c, 9, 61, 0
1, 354482, Control_c, 5, 64, 0
1, 354482, Control_c, 10, 64, 0
1, 354580, Note_off_c, 0, 29, 0
1, 354676, Control_c, 5, 64, 127
1, 354676, Control_c, 10, 64, 127
1, 354710, Note_on_c, 0, 30, 102
1, 354710, Note_on_c, 9, 36, 84
1, 354710, Note_on_c, 9, 70, 93
1, 354710, Note_on_c, 9, 60, 82
1, 354710, Note_on_c, 9, 51, 99
1, 354838, Lyric_t, "i"
1, 354905, Note_off_c, 9, 60, 0
1, 354944, Note_off_c, 9, 70, 0
1, 354950, Note_off_c, 9, 36, 0
1, 354950, Note_off_c, 9, 51, 0
1, 355026, Note_off_c, 3, 54, 0
1, 355026, Note_off_c, 7, 54, 0
1, 355153, Note_on_c, 2, 70, 90
1, 355190, Note_on_c, 3, 54, 76
1, 355190, Note_on_c, 5, 54, 74
1, 355190, Note_on_c, 9, 70, 76
1, 355190, Note_on_c, 9, 61, 72
1, 355190, Note_on_c, 9, 51, 61
1, 355190, Note_on_c, 7, 54, 76
1, 355190, Note_on_c, 10, 54, 74
1, 355201, Note_off_c, 2, 73, 0
1, 355356, Note_off_c, 9, 70, 0
1, 355393, Note_off_c, 9, 51, 0
1, 355544, Note_off_c, 9, 61, 0
1, 355670, Note_on_c, 3, 58, 64
1, 355670, Note_on_c, 9, 38, 84
1, 355670, Note_on_c, 9, 70, 102
1, 355670, Note_on_c, 9, 51, 93
1, 355670, Note_on_c, 7, 58, 64
1, 355706, Note_off_c, 5, 61, 0
1, 355706, Note_off_c, 10, 61, 0
1, 355719, Note_off_c, 2, 70, 0
1, 355816, Note_off_c, 0, 30, 0
1, 355897, Note_off_c, 9, 70, 0
1, 355910, Note_off_c, 3, 61, 0
1, 355910, Note_off_c, 7, 61, 0
1, 355910, Note_off_c, 9, 38, 0
1, 355996, Note_off_c, 9, 51, 0
1, 356150, Note_on_c, 0, 30, 99
1, 356150, Note_on_c, 3, 63, 78
1, 356150, Note_on_c, 5, 63, 76
1, 356150, Note_on_c, 9, 36, 93
1, 356150, Note_on_c, 9, 70, 93
1, 356150, Note_on_c, 9, 62, 82
1, 356150, Note_on_c, 9, 51, 78
1, 356150, Note_on_c, 7, 63, 78
1, 356150, Note_on_c, 10, 63, 76
1, 356349, Note_off_c, 9, 70, 0
1, 356390, Note_off_c, 9, 36, 0
1, 356390, Note_off_c, 9, 62, 0
1, 356390, Note_off_c, 9, 51, 0
1, 356405, Note_off_c, 0, 30, 0
1, 356629, Lyric_t, "o"
1, 356630, Note_off_c, 5, 54, 0
1, 356630, Note_off_c, 10, 54, 0
1, 356630, Note_on_c, 0, 25, 93
1, 356630, Note_on_c, 9, 36, 84
1, 356630, Note_on_c, 9, 70, 82
1, 356630, Note_on_c, 9, 51, 72
1, 356759, Note_off_c, 3, 54, 0
1, 356759, Note_off_c, 7, 54, 0
1, 356853, Note_off_c, 9, 70, 0
1, 356870, Note_off_c, 9, 36, 0
1, 356904, Note_off_c, 9, 51, 0
1, 357110, Note_on_c, 3, 54, 76
1, 357110, Note_on_c, 5, 54, 74
1, 357110, Note_on_c, 9, 70, 72
1, 357110, Note_on_c, 9, 62, 99
1, 357110, Note_on_c, 9, 51, 74
1, 357110, Note_on_c, 7, 54, 76
1, 357110, Note_on_c, 10, 54, 74
1, 357272, Note_off_c, 9, 70, 0
1, 357311, Note_off_c, 3, 58, 0
1, 357311, Note_off_c, 7, 58, 0
1, 357350, Note_off_c, 9, 62, 0
1, 357395, Note_off_c, 9, 51, 0
1, 357590, Note_on_c, 3, 58, 74
1, 357590, Note_on_c, 9, 38, 84
1, 357590, Note_on_c, 9, 70, 99
1, 357590, Note_on_c, 9, 82, 84
1, 357590, Note_on_c, 9, 51, 93
1, 357590, Note_on_c, 7, 58, 74
1, 357653, Note_off_c, 3, 63, 0
1, 357653, Note_off_c, 7, 63, 0
1, 357754, Note_off_c, 9, 82, 0
1, 357804, Note_off_c, 9, 70, 0
1, 357830, Note_off_c, 9, 38, 0
1, 357830, Note_off_c, 9, 51, 0
1, 357842, Note_off_c, 0, 25, 0
1, 358014, Note_off_c, 5, 63, 0
1, 358014, Note_off_c, 10, 63, 0
1, 358070, Note_on_c, 0, 25, 90
1, 358070, Note_on_c, 3, 61, 80
1, 358070, Note_on_c, 5, 58, 82
1, 358070, Note_on_c, 9, 36, 102
1, 358070, Note_on_c, 9, 70, 87
1, 358070, Note_on_c, 9, 60, 78
1, 358070, Note_on_c, 9, 51, 76
1, 358070, Note_on_c, 7, 61, 80
1, 358070, Note_on_c, 10, 58, 82
1, 358288, Note_off_c, 9, 70, 0
1, 358297, Note_off_c, 0, 25, 0
1, 358306, Note_off_c, 9, 60, 0
1, 358310, Note_off_c, 9, 36, 0
1, 358323, Note_off_c, 9, 51, 0
1, 358521, Note_off_c, 5, 54, 0
1, 358521, Note_off_c, 10, 54, 0
1, 358550, Note_on_c, 0, 30, 99
1, 358550, Note_on_c, 9, 70, 74
1, 358550, Note_on_c, 9, 51, 90
1, 358718, Note_off_c, 9, 70, 0
1, 358790, Note_off_c, 9, 51, 0
1, 358790, Note_on_c, 5, 54, 48
1, 358790, Note_on_c, 10, 54, 48
1, 358800, Note_off_c, 3, 54, 0
1, 358800, Note_off_c, 7, 54, 0
1, 359030, Note_on_c, 3, 54, 74
1, 359030, Note_on_c, 5, 61, 82
1, 359030, Note_on_c, 9, 70, 78
1, 359030, Note_on_c, 9, 62, 84
1, 359030, Note_on_c, 9, 51, 74
1, 359030, Note_on_c, 7, 54, 74
1, 359030, Note_on_c, 10, 61, 82
1, 359146, Note_off_c, 3, 58, 0
1, 359146, Note_off_c, 7, 58, 0
1, 359201, Note_off_c, 9, 70, 0
1, 359210, Note_off_c, 5, 58, 0
1, 359210, Note_off_c, 10, 58, 0
1, 359234, Control_c, 1, 64, 102
1, 359234, Control_c, 6, 64, 102
1, 359250, Note_off_c, 9, 51, 0
1, 359270, Note_off_c, 9, 62, 0
1, 359313, Control_c, 1, 64, 51
1, 359313, Control_c, 6, 64, 51
1, 359340, Note_off_c, 5, 54, 0
1, 359340, Note_off_c, 10, 54, 0
1, 359349, Control_c, 1, 64, 0
1, 359349, Control_c, 6, 64, 0
1, 359411, Note_off_c, 3, 61, 0
1, 359411, Note_off_c, 7, 61, 0
1, 359510, Note_on_c, 3, 58, 80
1, 359510, Note_on_c, 9, 38, 99
1, 359510, Note_on_c, 9, 82, 87
1, 359510, Note_on_c, 9, 70, 93
1, 359510, Note_on_c, 9, 51, 99
1, 359510, Note_on_c, 7, 58, 80
1, 359548, Note_on_c, 2, 73, 114
1, 359685, Note_off_c, 9, 82, 0
1, 359706, Note_off_c, 0, 30, 0
1, 359718, Lyric_t, " cu"
1, 359726, Note_off_c, 9, 70, 0
1, 359750, Note_off_c, 9, 38, 0
1, 359750, Note_off_c, 9, 51, 0
1, 359757, Note_off_c, 2, 73, 0
1, 359764, Note_off_c, 5, 61, 0
1, 359764, Note_off_c, 10, 61, 0
1, 359963, Lyric_t, "an"
1, 359990, Note_on_c, 0, 30, 87
1, 359990, Note_on_c, 3, 61, 80
1, 359990, Note_on_c, 5, 61, 84
1, 359990, Note_on_c, 9, 36, 84
1, 359990, Note_on_c, 9, 70, 80
1, 359990, Note_on_c, 9, 60, 74
1, 359990, Note_on_c, 9, 51, 80
1, 359990, Note_on_c, 7, 61, 80
1, 359990, Note_on_c, 10, 61, 84
1, 360001, Note_on_c, 2, 73, 114
1, 360191, Note_off_c, 2, 73, 0
1, 360200, Note_off_c, 9, 70, 0
1, 360215, Lyric_t, "do"
1, 360223, Note_off_c, 9, 51, 0
1, 360230, Note_off_c, 3, 58, 0
1, 360230, Note_off_c, 7, 58, 0
1, 360230, Note_off_c, 9, 36, 0
1, 360254, Note_off_c, 9, 60, 0
1, 360321, Note_off_c, 3, 61, 0
1, 360321, Note_off_c, 7, 61, 0
1, 360398, Note_off_c, 0, 30, 0
1, 360453, Note_on_c, 2, 73, 108
1, 360470, Note_on_c, 0, 25, 102
1, 360470, Note_on_c, 3, 61, 90
1, 360470, Note_on_c, 5, 54, 70
1, 360470, Note_on_c, 9, 36, 87
1, 360470, Note_on_c, 9, 70, 87
1, 360470, Note_on_c, 9, 51, 87
1, 360470, Note_on_c, 7, 61, 90
1, 360470, Note_on_c, 10, 54, 70
1, 360543, Lyric_t, " me"
1, 360695, Note_off_c, 9, 70, 0
1, 360710, Note_off_c, 9, 36, 0
1, 360744, Note_off_c, 9, 51, 0
1, 360748, Note_off_c, 3, 54, 0
1, 360748, Note_off_c, 7, 54, 0
1, 360839, Note_off_c, 5, 61, 0
1, 360839, Note_off_c, 10, 61, 0
1, 360853, Lyric_t, " e"
1, 360870, Note_off_c, 0, 25, 0
1, 360950, Note_on_c, 0, 30, 90
1, 360950, Note_on_c, 3, 54, 82
1, 360950, Note_on_c, 5, 63, 76
1, 360950, Note_on_c, 9, 70, 78
1, 360950, Note_on_c, 9, 61, 78
1, 360950, Note_on_c, 9, 51, 80
1, 360950, Note_on_c, 7, 54, 82
1, 360950, Note_on_c, 10, 63, 76
1, 360952, Note_off_c, 2, 73, 0
1, 360960, Note_on_c, 2, 68, 87
1, 361155, Note_off_c, 9, 70, 0
1, 361188, Note_off_c, 9, 51, 0
1, 361190, Note_off_c, 9, 61, 0
1, 361208, Lyric_t, "na"
1, 361236, Note_off_c, 5, 54, 0
1, 361236, Note_off_c, 10, 54, 0
1, 361257, Note_off_c, 0, 30, 0
1, 361429, Note_on_c, 2, 70, 87
1, 361430, Note_on_c, 0, 30, 102
1, 361430, Note_on_c, 3, 58, 72
1, 361430, Control_c, 5, 64, 0
1, 361430, Note_on_c, 5, 54, 76
1, 361430, Note_on_c, 9, 38, 93
1, 361430, Note_on_c, 9, 70, 93
1, 361430, Note_on_c, 9, 51, 99
1, 361430, Note_on_c, 7, 58, 72
1, 361430, Control_c, 10, 64, 0
1, 361430, Note_on_c, 10, 54, 76
1, 361459, Note_off_c, 3, 61, 0
1, 361459, Note_off_c, 7, 61, 0
1, 361468, Note_off_c, 2, 68, 0
1, 361614, Lyric_t, "mo"
1, 361644, Note_off_c, 9, 70, 0
1, 361670, Note_off_c, 9, 38, 0
1, 361762, Note_off_c, 9, 51, 0
1, 361862, Note_off_c, 0, 30, 0
1, 361906, Note_on_c, 2, 68, 105
1, 361910, Note_on_c, 0, 32, 108
1, 361910, Note_on_c, 3, 61, 84
1, 361910, Note_on_c, 9, 51, 108
1, 361910, Note_on_c, 9, 82, 74
1, 361910, Note_on_c, 9, 70, 99
1, 361910, Note_on_c, 9, 62, 96
1, 361910, Note_on_c, 9, 51, 76
1, 361910, Note_on_c, 7, 61, 84
1, 361911, Note_off_c, 2, 70, 0
1, 362035, Note_off_c, 5, 63, 0
1, 362035, Note_off_c, 10, 63, 0
1, 362042, Note_off_c, 3, 58, 0
1, 362042, Note_off_c, 7, 58, 0
1, 362063, Note_off_c, 5, 54, 0
1, 362063, Note_off_c, 10, 54, 0
1, 362093, Note_off_c, 9, 82, 0
1, 362107, Note_off_c, 3, 54, 0
1, 362107, Note_off_c, 7, 54, 0
1, 362107, Note_off_c, 9, 70, 0
1, 362114, Note_off_c, 9, 51, 0
1, 362150, Note_off_c, 9, 62, 0
1, 362151, Lyric_t, "r"
1, 362169, Note_off_c, 1, 54, 0
1, 362169, Note_off_c, 6, 54, 0
1, 362191, Note_off_c, 1, 58, 0
1, 362191, Note_off_c, 6, 58, 0
1, 362351, Note_off_c, 3, 61, 0
1, 362351, Note_off_c, 7, 61, 0
1, 362390, Note_on_c, 0, 37, 87
1, 362390, Note_on_c, 3, 49, 66
1, 362390, Note_on_c, 5, 65, 82
1, 362390, Note_on_c, 9, 36, 84
1, 362390, Note_on_c, 9, 49, 114
1, 362390, Note_on_c, 9, 70, 93
1, 362390, Note_on_c, 9, 60, 82
1, 362390, Note_on_c, 9, 51, 99
1, 362390, Note_on_c, 7, 49, 66
1, 362390, Note_on_c, 10, 65, 82
1, 362400, Note_off_c, 0, 32, 0
1, 362426, Note_on_c, 4, 63, 108
1, 362426, Note_on_c, 8, 51, 108
1, 362451, Note_off_c, 2, 68, 0
1, 362451, Lyric_t, "o"
1, 362513, Note_off_c, 9, 49, 0
1, 362585, Note_off_c, 9, 60, 0
1, 362624, Note_off_c, 9, 70, 0
1, 362630, Note_off_c, 9, 36, 0
1, 362757, Note_off_c, 9, 51, 0
1, 362845, Lyric_t, "."
1, 362870, Note_on_c, 3, 53, 59
1, 362870, Note_on_c, 5, 68, 76
1, 362870, Note_on_c, 9, 70, 76
1, 362870, Note_on_c, 9, 61, 72
1, 362870, Note_on_c, 9, 51, 61
1, 362870, Note_on_c, 7, 53, 59
1, 362870, Note_on_c, 10, 68, 76
1, 363036, Note_off_c, 9, 70, 0
1, 363073, Note_off_c, 9, 51, 0
1, 363110, Note_off_c, 9, 61, 0
1, 363204, Note_off_c, 5, 65, 0
1, 363204, Note_off_c, 10, 65, 0
1, 363350, Note_on_c, 3, 56, 54
1, 363350, Note_on_c, 5, 65, 61
1, 363350, Note_on_c, 9, 38, 84
1, 363350, Note_on_c, 9, 70, 102
1, 363350, Note_on_c, 9, 51, 93
1, 363350, Note_on_c, 7, 56, 54
1, 363350, Note_on_c, 10, 65, 61
1, 363420, Note_off_c, 5, 68, 0
1, 363420, Note_off_c, 10, 68, 0
1, 363476, Note_off_c, 0, 37, 0
1, 363577, Note_off_c, 9, 70, 0
1, 363590, Note_off_c, 9, 38, 0
1, 363676, Note_off_c, 9, 51, 0
1, 363830, Note_on_c, 0, 37, 102
1, 363830, Note_on_c, 5, 63, 80
1, 363830, Note_on_c, 9, 36, 93
1, 363830, Note_on_c, 9, 70, 93
1, 363830, Note_on_c, 9, 62, 82
1, 363830, Note_on_c, 9, 51, 78
1, 363830, Note_on_c, 10, 63, 80
1, 364029, Note_off_c, 9, 70, 0
1, 364048, Note_off_c, 0, 37, 0
1, 364070, Note_off_c, 9, 36, 0
1, 364070, Note_off_c, 9, 62, 0
1, 364128, Note_off_c, 9, 51, 0
1, 364293, Lyric_t, "."
1, 364310, Note_on_c, 0, 32, 84
1, 364310, Note_on_c, 9, 36, 84
1, 364310, Note_on_c, 9, 70, 82
1, 364310, Note_on_c, 9, 51, 72
1, 364533, Note_off_c, 9, 70, 0
1, 364550, Note_off_c, 9, 36, 0
1, 364584, Note_off_c, 9, 51, 0
1, 364790, Note_on_c, 3, 61, 59
1, 364790, Note_on_c, 5, 68, 76
1, 364790, Note_on_c, 9, 70, 72
1, 364790, Note_on_c, 9, 62, 99
1, 364790, Note_on_c, 9, 51, 74
1, 364790, Note_on_c, 7, 61, 59
1, 364790, Note_on_c, 10, 68, 76
1, 364854, Note_off_c, 5, 63, 0
1, 364854, Note_off_c, 10, 63, 0
1, 364952, Note_off_c, 9, 70, 0
1, 365030, Note_off_c, 9, 62, 0
1, 365075, Note_off_c, 9, 51, 0
1, 365270, Note_off_c, 0, 32, 0
1, 365270, Note_on_c, 0, 32, 87
1, 365270, Note_on_c, 9, 38, 84
1, 365270, Note_on_c, 9, 70, 99
1, 365270, Note_on_c, 9, 82, 84
1, 365270, Note_on_c, 9, 51, 93
1, 365273, Note_off_c, 0, 32, 0
1, 365284, Note_on_c, 4, 61, 114
1, 365284, Note_on_c, 8, 49, 114
1, 365318, Note_off_c, 4, 63, 0
1, 365318, Note_off_c, 8, 51, 0
1, 365434, Note_off_c, 9, 82, 0
1, 365473, Note_off_c, 3, 49, 0
1, 365473, Note_off_c, 7, 49, 0
1, 365484, Note_off_c, 9, 70, 0
1, 365510, Note_off_c, 9, 38, 0
1, 365510, Note_off_c, 9, 51, 0
1, 365545, Note_off_c, 4, 61, 0
1, 365545, Note_off_c, 8, 49, 0
1, 365576, Note_off_c, 3, 53, 0
1, 365576, Note_off_c, 7, 53, 0
1, 365750, Note_on_c, 3, 49, 70
1, 365750, Note_on_c, 5, 61, 74
1, 365750, Note_on_c, 9, 36, 102
1, 365750, Note_on_c, 9, 70, 87
1, 365750, Note_on_c, 9, 60, 78
1, 365750, Note_on_c, 9, 51, 76
1, 365750, Note_on_c, 7, 49, 70
1, 365750, Note_on_c, 10, 61, 74
1, 365765, Note_on_c, 4, 56, 114
1, 365765, Note_on_c, 8, 44, 114
1, 365968, Note_off_c, 9, 70, 0
1, 365986, Note_off_c, 9, 60, 0
1, 365990, Note_off_c, 9, 36, 0
1, 366003, Note_off_c, 9, 51, 0
1, 366230, Note_on_c, 0, 25, 78
1, 366230, Note_on_c, 9, 70, 74
1, 366230, Note_on_c, 9, 51, 90
1, 366398, Note_off_c, 9, 70, 0
1, 366470, Note_off_c, 9, 51, 0
1, 366511, Note_off_c, 4, 56, 0
1, 366511, Note_off_c, 8, 44, 0
1, 366557, Lyric_t, "\\-"
1, 366710, Note_on_c, 3, 53, 70
1, 366710, Note_on_c, 5, 56, 82
1, 366710, Note_on_c, 9, 70, 78
1, 366710, Note_on_c, 9, 62, 84
1, 366710, Note_on_c, 9, 51, 74
1, 366710, Note_on_c, 7, 53, 70
1, 366710, Note_on_c, 10, 56, 82
1, 366788, Note_off_c, 3, 56, 0
1, 366788, Note_off_c, 7, 56, 0
1, 366881, Note_off_c, 9, 70, 0
1, 366930, Note_off_c, 9, 51, 0
1, 366998, Note_off_c, 9, 62, 0
1, 367124, Note_off_c, 5, 61, 0
1, 367124, Note_off_c, 10, 61, 0
1, 367181, Note_off_c, 3, 61, 0
1, 367181, Note_off_c, 7, 61, 0
1, 367190, Note_on_c, 3, 56, 55
1, 367190, Note_on_c, 9, 38, 99
1, 367190, Note_on_c, 9, 82, 87
1, 367190, Note_on_c, 9, 70, 93
1, 367190, Note_on_c, 9, 51, 99
1, 367190, Note_on_c, 7, 56, 55
1, 367325, Note_off_c, 0, 25, 0
1, 367365, Note_off_c, 9, 82, 0
1, 367395, Note_off_c, 5, 68, 0
1, 367395, Note_off_c, 10, 68, 0
1, 367406, Note_off_c, 9, 70, 0
1, 367430, Note_off_c, 9, 38, 0
1, 367482, Note_off_c, 9, 51, 0
1, 367670, Note_on_c, 0, 25, 87
1, 367670, Note_on_c, 3, 61, 66
1, 367670, Note_on_c, 5, 61, 74
1, 367670, Note_on_c, 9, 36, 84
1, 367670, Note_on_c, 9, 70, 80
1, 367670, Note_on_c, 9, 60, 74
1, 367670, Note_on_c, 9, 51, 80
1, 367670, Note_on_c, 7, 61, 66
1, 367670, Note_on_c, 10, 61, 74
1, 367880, Note_off_c, 9, 70, 0
1, 367903, Note_off_c, 9, 51, 0
1, 367910, Note_off_c, 9, 36, 0
1, 367934, Note_off_c, 9, 60, 0
1, 367935, Note_off_c, 0, 25, 0
1, 368150, Note_on_c, 0, 32, 80
1, 368150, Note_on_c, 9, 36, 87
1, 368150, Note_on_c, 9, 70, 87
1, 368150, Note_on_c, 9, 51, 87
1, 368331, Note_off_c, 5, 65, 0
1, 368331, Note_off_c, 10, 65, 0
1, 368375, Note_off_c, 9, 70, 0
1, 368390, Note_off_c, 9, 36, 0
1, 368424, Note_off_c, 9, 51, 0
1, 368630, Note_on_c, 3, 63, 66
1, 368630, Note_on_c, 9, 43, 93
1, 368630, Note_on_c, 9, 70, 78
1, 368630, Note_on_c, 9, 61, 78
1, 368630, Note_on_c, 9, 51, 80
1, 368630, Note_on_c, 7, 63, 66
1, 368702, Note_off_c, 3, 61, 0
1, 368702, Note_off_c, 7, 61, 0
1, 368824, Lyric_t, "\\Sincronizado por"
1, 368835, Note_off_c, 9, 70, 0
1, 368868, Note_off_c, 9, 51, 0
1, 368870, Note_off_c, 9, 43, 0
1, 368870, Note_off_c, 9, 61, 0
1, 368949, Note_off_c, 0, 32, 0
1, 369023, Note_off_c, 3, 53, 0
1, 369023, Note_off_c, 7, 53, 0
1, 369110, Note_on_c, 0, 32, 84
1, 369110, Note_on_c, 3, 53, 70
1, 369110, Note_on_c, 9, 38, 93
1, 369110, Note_on_c, 9, 40, 105
1, 369110, Note_on_c, 9, 70, 93
1, 369110, Note_on_c, 9, 51, 99
1, 369110, Note_on_c, 7, 53, 70
1, 369319, Note_off_c, 9, 40, 0
1, 369324, Note_off_c, 9, 70, 0
1, 369350, Note_off_c, 9, 38, 0
1, 369442, Note_off_c, 9, 51, 0
1, 369462, Note_off_c, 3, 56, 0
1, 369462, Note_off_c, 7, 56, 0
1, 369590, Note_on_c, 9, 82, 74
1, 369590, Note_on_c, 9, 70, 99
1, 369590, Note_on_c, 9, 62, 96
1, 369590, Note_on_c, 9, 51, 76
1, 369773, Note_off_c, 9, 82, 0
1, 369787, Note_off_c, 9, 70, 0
1, 369806, Note_off_c, 9, 51, 0
1, 369870, Note_off_c, 9, 62, 0
1, 369909, Note_off_c, 0, 32, 0
1, 370029, Note_on_c, 1, 58, 72
1, 370029, Note_on_c, 6, 58, 72
1, 370031, Note_on_c, 1, 63, 64
1, 370031, Note_on_c, 6, 63, 64
1, 370070, Note_off_c, 3, 49, 0
1, 370070, Note_off_c, 7, 49, 0
1, 370070, Note_off_c, 5, 56, 0
1, 370070, Note_off_c, 10, 56, 0
1, 370070, Note_off_c, 5, 61, 0
1, 370070, Note_off_c, 10, 61, 0
1, 370070, Note_off_c, 3, 63, 0
1, 370070, Note_off_c, 7, 63, 0
1, 370070, Note_off_c, 3, 53, 0
1, 370070, Note_off_c, 7, 53, 0
1, 370070, Note_on_c, 0, 27, 102
1, 370070, Note_on_c, 3, 61, 76
1, 370070, Note_on_c, 4, 63, 114
1, 370070, Note_on_c, 5, 58, 72
1, 370070, Note_on_c, 5, 65, 80
1, 370070, Note_on_c, 9, 36, 84
1, 370070, Note_on_c, 9, 49, 114
1, 370070, Note_on_c, 9, 70, 90
1, 370070, Note_on_c, 9, 60, 111
1, 370070, Note_on_c, 9, 51, 93
1, 370070, Note_on_c, 7, 61, 76
1, 370070, Note_on_c, 8, 51, 114
1, 370070, Note_on_c, 10, 58, 72
1, 370070, Note_on_c, 10, 65, 80
1, 370283, Note_off_c, 9, 70, 0
1, 370286, Note_off_c, 9, 60, 0
1, 370288, Note_off_c, 9, 49, 0
1, 370310, Note_off_c, 9, 36, 0
1, 370359, Note_off_c, 9, 51, 0
1, 370550, Note_on_c, 3, 51, 46
1, 370550, Note_on_c, 5, 68, 80
1, 370550, Note_on_c, 9, 70, 78
1, 370550, Note_on_c, 9, 61, 82
1, 370550, Note_on_c, 9, 51, 45
1, 370550, Note_on_c, 7, 51, 46
1, 370550, Note_on_c, 10, 68, 80
1, 370654, Note_off_c, 9, 61, 0
1, 370679, Note_off_c, 5, 65, 0
1, 370679, Note_off_c, 10, 65, 0
1, 370745, Note_off_c, 9, 70, 0
1, 370756, Note_off_c, 9, 51, 0
1, 371030, Note_on_c, 3, 54, 50
1, 371030, Note_on_c, 5, 65, 68
1, 371030, Note_on_c, 9, 38, 87
1, 371030, Note_on_c, 9, 70, 90
1, 371030, Note_on_c, 9, 82, 82
1, 371030, Note_on_c, 9, 51, 80
1, 371030, Note_on_c, 7, 54, 50
1, 371030, Note_on_c, 10, 65, 68
1, 371157, Note_off_c, 5, 68, 0
1, 371157, Note_off_c, 10, 68, 0
1, 371170, Note_off_c, 0, 27, 0
1, 371179, Note_off_c, 9, 82, 0
1, 371227, Note_off_c, 9, 70, 0
1, 371228, Lyric_t, "\\Ramon"
1, 371270, Note_off_c, 9, 38, 0
1, 371348, Note_off_c, 9, 51, 0
1, 371510, Note_on_c, 0, 27, 99
1, 371510, Note_on_c, 3, 58, 68
1, 371510, Note_on_c, 5, 63, 68
1, 371510, Note_on_c, 9, 36, 78
1, 371510, Note_on_c, 9, 70, 99
1, 371510, Note_on_c, 9, 62, 90
1, 371510, Note_on_c, 9, 51, 74
1, 371510, Note_on_c, 7, 58, 68
1, 371510, Note_on_c, 10, 63, 68
1, 371522, Note_off_c, 3, 61, 0
1, 371522, Note_off_c, 7, 61, 0
1, 371657, Note_off_c, 0, 27, 0
1, 371709, Note_off_c, 9, 62, 0
1, 371737, Note_off_c, 9, 70, 0
1, 371750, Note_off_c, 9, 36, 0
1, 371786, Note_off_c, 9, 51, 0
1, 371990, Note_on_c, 0, 34, 90
1, 371990, Note_on_c, 9, 36, 84
1, 371990, Note_on_c, 9, 70, 76
1, 371990, Note_on_c, 9, 51, 68
1, 372178, Note_off_c, 9, 70, 0
1, 372230, Note_off_c, 9, 36, 0
1, 372290, Note_off_c, 9, 51, 0
1, 372470, Note_on_c, 3, 61, 76
1, 372470, Note_on_c, 5, 68, 74
1, 372470, Note_on_c, 9, 70, 64
1, 372470, Note_on_c, 9, 60, 93
1, 372470, Note_on_c, 9, 51, 66
1, 372470, Note_on_c, 7, 61, 76
1, 372470, Note_on_c, 10, 68, 74
1, 372488, Note_off_c, 5, 65, 0
1, 372488, Note_off_c, 10, 65, 0
1, 372601, Note_off_c, 5, 63, 0
1, 372601, Note_off_c, 10, 63, 0
1, 372636, Note_off_c, 9, 70, 0
1, 372667, Note_off_c, 9, 51, 0
1, 372675, Note_off_c, 9, 60, 0
1, 372882, Note_off_c, 4, 63, 0
1, 372882, Note_off_c, 8, 51, 0
1, 372950, Note_on_c, 5, 65, 74
1, 372950, Note_on_c, 9, 38, 87
1, 372950, Note_on_c, 9, 70, 102
1, 372950, Note_on_c, 9, 51, 99
1, 372950, Note_on_c, 10, 65, 74
1, 372951, Note_on_c, 4, 61, 114
1, 372951, Note_on_c, 8, 49, 114
1, 373009, Note_off_c, 0, 34, 0
1, 373114, Note_off_c, 5, 68, 0
1, 373114, Note_off_c, 10, 68, 0
1, 373181, Note_off_c, 9, 70, 0
1, 373190, Note_off_c, 9, 38, 0
1, 373190, Note_off_c, 9, 51, 0
1, 373258, Note_off_c, 4, 61, 0
1, 373258, Note_off_c, 8, 49, 0
1, 373430, Note_on_c, 0, 34, 84
1, 373430, Note_on_c, 5, 61, 68
1, 373430, Note_on_c, 9, 36, 93
1, 373430, Note_on_c, 9, 82, 74
1, 373430, Note_on_c, 9, 70, 102
1, 373430, Note_on_c, 9, 61, 87
1, 373430, Note_on_c, 9, 51, 57
1, 373430, Note_on_c, 10, 61, 68
1, 373450, Note_on_c, 4, 58, 105
1, 373450, Note_on_c, 8, 46, 105
1, 373599, Note_off_c, 9, 82, 0
1, 373629, Note_off_c, 0, 34, 0
1, 373635, Note_off_c, 9, 61, 0
1, 373659, Note_off_c, 9, 51, 0
1, 373670, Note_off_c, 9, 36, 0
1, 373698, Note_off_c, 9, 70, 0
1, 373733, Note_off_c, 3, 54, 0
1, 373733, Note_off_c, 7, 54, 0
1, 373805, Note_off_c, 3, 51, 0
1, 373805, Note_off_c, 7, 51, 0
1, 373906, Note_off_c, 4, 58, 0
1, 373906, Note_off_c, 8, 46, 0
1, 373910, Note_on_c, 0, 27, 78
1, 373910, Note_on_c, 9, 70, 76
1, 373910, Note_on_c, 9, 51, 87
1, 374014, Lyric_t, " Corujo"
1, 374085, Note_off_c, 9, 70, 0
1, 374266, Note_off_c, 9, 51, 0
1, 374390, Note_on_c, 3, 51, 61
1, 374390, Note_on_c, 9, 70, 74
1, 374390, Note_on_c, 9, 62, 93
1, 374390, Note_on_c, 9, 51, 62
1, 374390, Note_on_c, 7, 51, 61
1, 374586, Note_off_c, 9, 70, 0
1, 374593, Note_off_c, 9, 51, 0
1, 374626, Note_off_c, 9, 62, 0
1, 374870, Note_on_c, 3, 54, 68
1, 374870, Note_on_c, 9, 38, 90
1, 374870, Note_on_c, 9, 70, 93
1, 374870, Note_on_c, 9, 51, 93
1, 374870, Note_on_c, 7, 54, 68
1, 375005, Note_off_c, 0, 27, 0
1, 375096, Note_off_c, 9, 70, 0
1, 375110, Note_off_c, 9, 38, 0
1, 375196, Note_off_c, 9, 51, 0
1, 375308, Note_off_c, 3, 61, 0
1, 375308, Note_off_c, 7, 61, 0
1, 375350, Note_on_c, 0, 27, 105
1, 375350, Note_on_c, 3, 63, 61
1, 375350, Note_on_c, 9, 36, 78
1, 375350, Note_on_c, 9, 70, 78
1, 375350, Note_on_c, 9, 62, 99
1, 375350, Note_on_c, 9, 51, 72
1, 375350, Note_on_c, 7, 63, 61
1, 375529, Note_off_c, 9, 70, 0
1, 375549, Note_off_c, 0, 27, 0
1, 375590, Note_off_c, 9, 36, 0
1, 375590, Note_off_c, 9, 62, 0
1, 375598, Note_off_c, 9, 51, 0
1, 375824, Note_on_c, 4, 63, 105
1, 375824, Note_on_c, 8, 51, 105
1, 375830, Note_on_c, 0, 34, 93
1, 375830, Note_on_c, 9, 36, 87
1, 375830, Note_on_c, 9, 70, 93
1, 375830, Note_on_c, 9, 51, 80
1, 375852, Note_off_c, 5, 58, 0
1, 375852, Note_off_c, 10, 58, 0
1, 376040, Note_off_c, 9, 70, 0
1, 376070, Note_off_c, 9, 36, 0
1, 376070, Note_off_c, 9, 51, 0
1, 376110, Note_off_c, 3, 54, 0
1, 376110, Note_off_c, 7, 54, 0
1, 376299, Note_off_c, 4, 63, 0
1, 376299, Note_off_c, 8, 51, 0
1, 376310, Note_on_c, 3, 54, 64
1, 376310, Note_on_c, 5, 58, 74
1, 376310, Note_on_c, 9, 70, 76
1, 376310, Note_on_c, 9, 61, 78
1, 376310, Note_on_c, 9, 51, 72
1, 376310, Note_on_c, 7, 54, 64
1, 376310, Note_on_c, 10, 58, 74
1, 376336, Note_on_c, 4, 65, 102
1, 376336, Note_on_c, 8, 53, 102
1, 376351, Note_off_c, 5, 61, 0
1, 376351, Note_off_c, 10, 61, 0
1, 376466, Note_off_c, 9, 70, 0
1, 376520, Note_off_c, 9, 51, 0
1, 376550, Note_off_c, 9, 61, 0
1, 376561, Note_off_c, 5, 65, 0
1, 376561, Note_off_c, 10, 65, 0
1, 376672, Note_off_c, 0, 34, 0
1, 376787, Note_off_c, 4, 65, 0
1, 376787, Note_off_c, 8, 53, 0
1, 376790, Note_on_c, 0, 27, 93
1, 376790, Note_on_c, 5, 61, 87
1, 376790, Note_on_c, 9, 38, 93
1, 376790, Note_on_c, 9, 70, 102
1, 376790, Note_on_c, 9, 82, 78
1, 376790, Note_on_c, 9, 51, 102
1, 376790, Note_on_c, 10, 61, 87
1, 376820, Note_on_c, 4, 63, 108
1, 376820, Note_on_c, 8, 51, 108
1, 376954, Note_off_c, 9, 70, 0
1, 376954, Note_off_c, 9, 82, 0
1, 377030, Note_off_c, 9, 38, 0
1, 377030, Note_off_c, 9, 51, 0
1, 377090, Note_off_c, 3, 54, 0
1, 377090, Note_off_c, 7, 54, 0
1, 377151, Note_off_c, 0, 27, 0
1, 377241, Note_off_c, 4, 63, 0
1, 377241, Note_off_c, 8, 51, 0
1, 377270, Note_on_c, 0, 29, 84
1, 377270, Note_on_c, 3, 54, 48
1, 377270, Note_on_c, 9, 82, 87
1, 377270, Note_on_c, 9, 70, 82
1, 377270, Note_on_c, 9, 61, 76
1, 377270, Note_on_c, 9, 51, 66
1, 377270, Note_on_c, 7, 54, 48
1, 377299, Note_on_c, 4, 61, 105
1, 377299, Note_on_c, 8, 49, 105
1, 377454, Note_off_c, 9, 82, 0
1, 377462, Note_off_c, 9, 70, 0
1, 377467, Note_off_c, 9, 51, 0
1, 377523, Note_off_c, 9, 61, 0
1, 377538, Note_off_c, 0, 29, 0
1, 377588, Note_off_c, 3, 63, 0
1, 377588, Note_off_c, 7, 63, 0
1, 377592, Note_off_c, 3, 54, 0
1, 377592, Note_off_c, 7, 54, 0
1, 377599, Note_off_c, 5, 58, 0
1, 377599, Note_off_c, 10, 58, 0
1, 377682, Note_on_c, 1, 61, 61
1, 377682, Note_on_c, 6, 61, 61
1, 377686, Note_off_c, 4, 61, 0
1, 377686, Note_off_c, 8, 49, 0
1, 377699, Note_off_c, 5, 61, 0
1, 377699, Note_off_c, 10, 61, 0
1, 377704, Note_on_c, 1, 54, 55
1, 377704, Note_on_c, 6, 54, 55
1, 377709, Note_off_c, 1, 63, 0
1, 377709, Note_off_c, 6, 63, 0
1, 377750, Note_on_c, 0, 30, 93
1, 377750, Note_on_c, 3, 61, 82
1, 377750, Note_on_c, 5, 65, 82
1, 377750, Note_on_c, 5, 54, 76
1, 377750, Note_on_c, 9, 36, 84
1, 377750, Note_on_c, 9, 70, 93
1, 377750, Note_on_c, 9, 60, 82
1, 377750, Note_on_c, 9, 51, 99
1, 377750, Note_on_c, 7, 61, 82
1, 377750, Note_on_c, 10, 65, 82
1, 377750, Note_on_c, 10, 54, 76
1, 377766, Note_on_c, 4, 63, 108
1, 377766, Note_on_c, 8, 51, 108
1, 377839, Note_off_c, 3, 58, 0
1, 377839, Note_off_c, 7, 58, 0
1, 377945, Note_off_c, 9, 60, 0
1, 377984, Note_off_c, 9, 70, 0
1, 377990, Note_off_c, 9, 36, 0
1, 377990, Note_off_c, 9, 51, 0
1, 378010, Note_off_c, 3, 51, 0
1, 378010, Note_off_c, 7, 51, 0
1, 378230, Note_on_c, 3, 54, 68
1, 378230, Note_on_c, 5, 68, 76
1, 378230, Note_on_c, 9, 70, 76
1, 378230, Note_on_c, 9, 61, 72
1, 378230, Note_on_c, 9, 51, 61
1, 378230, Note_on_c, 7, 54, 68
1, 378230, Note_on_c, 10, 68, 76
1, 378351, Note_off_c, 5, 65, 0
1, 378351, Note_off_c, 10, 65, 0
1, 378396, Note_off_c, 9, 70, 0
1, 378433, Note_off_c, 9, 51, 0
1, 378584, Note_off_c, 9, 61, 0
1, 378710, Note_on_c, 3, 58, 55
1, 378710, Note_on_c, 5, 65, 66
1, 378710, Note_on_c, 9, 38, 84
1, 378710, Note_on_c, 9, 70, 102
1, 378710, Note_on_c, 9, 51, 93
1, 378710, Note_on_c, 7, 58, 55
1, 378710, Note_on_c, 10, 65, 66
1, 378856, Note_off_c, 0, 30, 0
1, 378937, Note_off_c, 9, 70, 0
1, 378950, Note_off_c, 9, 38, 0
1, 379036, Note_off_c, 9, 51, 0
1, 379050, Note_off_c, 3, 61, 0
1, 379050, Note_off_c, 7, 61, 0
1, 379144, Note_off_c, 5, 68, 0
1, 379144, Note_off_c, 10, 68, 0
1, 379190, Note_on_c, 0, 30, 80
1, 379190, Note_on_c, 3, 61, 66
1, 379190, Note_on_c, 5, 63, 72
1, 379190, Note_on_c, 9, 36, 93
1, 379190, Note_on_c, 9, 70, 93
1, 379190, Note_on_c, 9, 62, 82
1, 379190, Note_on_c, 9, 51, 78
1, 379190, Note_on_c, 7, 61, 66
1, 379190, Note_on_c, 10, 63, 72
1, 379389, Note_off_c, 9, 70, 0
1, 379414, Note_off_c, 0, 30, 0
1, 379430, Note_off_c, 9, 36, 0
1, 379430, Note_off_c, 9, 62, 0
1, 379488, Note_off_c, 9, 51, 0
1, 379670, Note_on_c, 0, 25, 84
1, 379670, Note_on_c, 9, 36, 84
1, 379670, Note_on_c, 9, 70, 82
1, 379670, Note_on_c, 9, 51, 72
1, 379755, Lyric_t, "\\Para"
1, 379893, Note_off_c, 9, 70, 0
1, 379910, Note_off_c, 9, 36, 0
1, 379944, Note_off_c, 9, 51, 0
1, 380150, Note_on_c, 3, 63, 62
1, 380150, Note_on_c, 5, 68, 74
1, 380150, Note_on_c, 9, 70, 72
1, 380150, Note_on_c, 9, 62, 99
1, 380150, Note_on_c, 9, 51, 74
1, 380150, Note_on_c, 7, 63, 62
1, 380150, Note_on_c, 10, 68, 74
1, 380166, Note_off_c, 5, 65, 0
1, 380166, Note_off_c, 10, 65, 0
1, 380257, Note_off_c, 5, 63, 0
1, 380257, Note_off_c, 10, 63, 0
1, 380312, Note_off_c, 9, 70, 0
1, 380352, Note_off_c, 3, 61, 0
1, 380352, Note_off_c, 7, 61, 0
1, 380390, Note_off_c, 9, 62, 0
1, 380435, Note_off_c, 9, 51, 0
1, 380584, Note_off_c, 4, 63, 0
1, 380584, Note_off_c, 8, 51, 0
1, 380630, Note_on_c, 5, 65, 55
1, 380630, Note_on_c, 9, 38, 84
1, 380630, Note_on_c, 9, 70, 99
1, 380630, Note_on_c, 9, 82, 84
1, 380630, Note_on_c, 9, 51, 93
1, 380630, Note_on_c, 10, 65, 55
1, 380662, Note_on_c, 4, 61, 114
1, 380662, Note_on_c, 8, 49, 114
1, 380730, Note_off_c, 0, 25, 0
1, 380794, Note_off_c, 9, 82, 0
1, 380844, Note_off_c, 9, 70, 0
1, 380850, Note_off_c, 5, 68, 0
1, 380850, Note_off_c, 10, 68, 0
1, 380867, Note_off_c, 4, 61, 0
1, 380867, Note_off_c, 8, 49, 0
1, 380870, Note_off_c, 9, 38, 0
1, 380870, Note_off_c, 9, 51, 0
1, 380915, Note_off_c, 3, 54, 0
1, 380915, Note_off_c, 7, 54, 0
1, 381110, Note_on_c, 0, 25, 76
1, 381110, Note_on_c, 3, 54, 55
1, 381110, Note_on_c, 5, 61, 74
1, 381110, Note_on_c, 9, 36, 102
1, 381110, Note_on_c, 9, 70, 87
1, 381110, Note_on_c, 9, 60, 78
1, 381110, Note_on_c, 9, 51, 76
1, 381110, Note_on_c, 7, 54, 55
1, 381110, Note_on_c, 10, 61, 74
1, 381129, Note_on_c, 4, 58, 102
1, 381129, Note_on_c, 8, 46, 102
1, 381324, Note_off_c, 0, 25, 0
1, 381328, Note_off_c, 9, 70, 0
1, 381346, Note_off_c, 9, 60, 0
1, 381350, Note_off_c, 9, 36, 0
1, 381363, Note_off_c, 9, 51, 0
1, 381469, Note_off_c, 3, 58, 0
1, 381469, Note_off_c, 7, 58, 0
1, 381590, Note_on_c, 0, 30, 87
1, 381590, Note_on_c, 9, 70, 74
1, 381590, Note_on_c, 9, 51, 90
1, 381758, Note_off_c, 9, 70, 0
1, 381912, Note_off_c, 9, 51, 0
1, 381948, Note_off_c, 3, 54, 0
1, 381948, Note_off_c, 7, 54, 0
1, 381954, Note_off_c, 4, 58, 0
1, 381954, Note_off_c, 8, 46, 0
1, 382070, Note_on_c, 3, 54, 70
1, 382070, Note_on_c, 9, 70, 78
1, 382070, Note_on_c, 9, 62, 84
1, 382070, Note_on_c, 9, 51, 74
1, 382070, Note_on_c, 7, 54, 70
1, 382241, Note_off_c, 9, 70, 0
1, 382290, Note_off_c, 9, 51, 0
1, 382358, Note_off_c, 9, 62, 0
1, 382541, Note_off_c, 3, 63, 0
1, 382541, Note_off_c, 7, 63, 0
1, 382550, Note_on_c, 3, 56, 66
1, 382550, Note_on_c, 9, 38, 99
1, 382550, Note_on_c, 9, 82, 87
1, 382550, Note_on_c, 9, 70, 93
1, 382550, Note_on_c, 9, 51, 99
1, 382550, Note_on_c, 7, 56, 66
1, 382702, Note_off_c, 0, 30, 0
1, 382725, Note_off_c, 9, 82, 0
1, 382766, Note_off_c, 9, 70, 0
1, 382790, Note_off_c, 9, 38, 0
1, 382842, Note_off_c, 9, 51, 0
1, 382984, Lyric_t, " Midis"
1, 383030, Note_on_c, 0, 30, 80
1, 383030, Note_on_c, 3, 61, 74
1, 383030, Note_on_c, 9, 36, 84
1, 383030, Note_on_c, 9, 70, 80
1, 383030, Note_on_c, 9, 60, 74
1, 383030, Note_on_c, 9, 51, 80
1, 383030, Note_on_c, 7, 61, 74
1, 383240, Note_off_c, 9, 70, 0
1, 383246, Note_off_c, 0, 30, 0
1, 383263, Note_off_c, 9, 51, 0
1, 383270, Note_off_c, 9, 36, 0
1, 383294, Note_off_c, 9, 60, 0
1, 383494, Note_on_c, 4, 63, 114
1, 383494, Note_on_c, 8, 51, 114
1, 383510, Note_on_c, 0, 25, 82
1, 383510, Note_on_c, 9, 36, 87
1, 383510, Note_on_c, 9, 70, 87
1, 383510, Note_on_c, 9, 51, 87
1, 383679, Note_off_c, 3, 54, 0
1, 383679, Note_off_c, 7, 54, 0
1, 383735, Note_off_c, 9, 70, 0
1, 383750, Note_off_c, 9, 36, 0
1, 383784, Note_off_c, 9, 51, 0
1, 383919, Note_off_c, 4, 63, 0
1, 383919, Note_off_c, 8, 51, 0
1, 383973, Note_on_c, 4, 65, 84
1, 383973, Note_on_c, 8, 53, 84
1, 383990, Note_on_c, 3, 54, 68
1, 383990, Note_on_c, 9, 45, 102
1, 383990, Note_on_c, 9, 70, 78
1, 383990, Note_on_c, 9, 61, 78
1, 383990, Note_on_c, 9, 51, 80
1, 383990, Note_on_c, 7, 54, 68
1, 384174, Note_off_c, 3, 56, 0
1, 384174, Note_off_c, 7, 56, 0
1, 384195, Note_off_c, 9, 70, 0
1, 384228, Note_off_c, 9, 51, 0
1, 384230, Note_off_c, 9, 45, 0
1, 384230, Note_off_c, 9, 61, 0
1, 384342, Note_off_c, 0, 25, 0
1, 384470, Note_on_c, 0, 30, 93
1, 384470, Note_on_c, 3, 56, 58
1, 384470, Note_on_c, 9, 38, 93
1, 384470, Note_on_c, 9, 43, 117
1, 384470, Note_on_c, 9, 70, 93
1, 384470, Note_on_c, 9, 51, 99
1, 384470, Note_on_c, 7, 56, 58
1, 384481, Note_on_c, 4, 63, 108
1, 384481, Note_on_c, 8, 51, 108
1, 384488, Note_off_c, 4, 65, 0
1, 384488, Note_off_c, 8, 53, 0
1, 384566, Note_off_c, 5, 61, 0
1, 384566, Note_off_c, 10, 61, 0
1, 384617, Note_off_c, 5, 65, 0
1, 384617, Note_off_c, 10, 65, 0
1, 384652, Note_off_c, 1, 54, 0
1, 384652, Note_off_c, 6, 54, 0
1, 384684, Note_off_c, 9, 70, 0
1, 384691, Note_off_c, 9, 43, 0
1, 384710, Note_off_c, 9, 38, 0
1, 384802, Note_off_c, 9, 51, 0
1, 384907, Note_off_c, 4, 63, 0
1, 384907, Note_off_c, 8, 51, 0
1, 384915, Note_off_c, 5, 54, 0
1, 384915, Note_off_c, 10, 54, 0
1, 384950, Note_on_c, 9, 82, 74
1, 384950, Note_on_c, 9, 70, 99
1, 384950, Note_on_c, 9, 62, 96
1, 384950, Note_on_c, 9, 51, 76
1, 384963, Note_on_c, 4, 61, 108
1, 384963, Note_on_c, 8, 49, 108
1, 385133, Note_off_c, 9, 82, 0
1, 385147, Note_off_c, 9, 70, 0
1, 385166, Note_off_c, 9, 51, 0
1, 385230, Note_off_c, 9, 62, 0
1, 385241, Note_off_c, 0, 30, 0
1, 385312, Note_off_c, 3, 54, 0
1, 385312, Note_off_c, 7, 54, 0
1, 385329, Note_off_c, 1, 58, 0
1, 385329, Note_off_c, 6, 58, 0
1, 385354, Note_off_c, 3, 56, 0
1, 385354, Note_off_c, 7, 56, 0
1, 385356, Note_off_c, 4, 61, 0
1, 385356, Note_off_c, 8, 49, 0
1, 385391, Note_on_c, 1, 49, 70
1, 385391, Note_on_c, 6, 49, 70
1, 385398, Note_on_c, 1, 56, 57
1, 385398, Note_on_c, 6, 56, 57
1, 385430, Note_on_c, 0, 25, 99
1, 385430, Note_on_c, 9, 49, 114
1, 385430, Note_on_c, 9, 36, 111
1, 385670, Note_off_c, 9, 49, 0
1, 385670, Note_off_c, 9, 36, 0
1, 385782, Note_off_c, 3, 61, 0
1, 385782, Note_off_c, 7, 61, 0
1, 386902, Lyric_t, "Robin"
1, 388703, Note_off_c, 1, 49, 0
1, 388703, Note_off_c, 6, 49, 0
1, 388794, Note_off_c, 1, 61, 0
1, 388794, Note_off_c, 6, 61, 0
1, 388828, Note_off_c, 1, 56, 0
1, 388828, Note_off_c, 6, 56, 0
1, 389832, Note_off_c, 0, 25, 0
1, 389832, End_track
0, 0, End_of_file
