0, 0, Header, 0, 1, 96
1, 0, Start_track
1, 0, Title_t, "Daniel"
1, 0, Copyright_t, "(C)1993 Music Sales Ltd."
1, 0, Time_signature, 4, 2, 24, 8
1, 0, Tempo, 500000
1, 0, System_exclusive, 5, 126, 127, 9, 1, 247
1, 103, Program_c, 1, 35
1, 104, Control_c, 1, 7, 76
1, 104, Control_c, 1, 10, 64
1, 104, Control_c, 1, 11, 127
1, 105, Control_c, 1, 91, 20
1, 105, Control_c, 1, 93, 60
1, 108, Program_c, 2, 0
1, 109, Control_c, 2, 7, 127
1, 109, Control_c, 2, 10, 54
1, 109, Control_c, 2, 11, 127
1, 110, Control_c, 2, 91, 87
1, 110, Control_c, 2, 93, 0
1, 113, Program_c, 3, 0
1, 114, Control_c, 3, 7, 127
1, 114, Control_c, 3, 10, 74
1, 114, Control_c, 3, 11, 127
1, 115, Control_c, 3, 91, 85
1, 115, Control_c, 3, 93, 0
1, 118, Program_c, 4, 49
1, 119, Control_c, 4, 7, 95
1, 119, Control_c, 4, 10, 114
1, 119, Control_c, 4, 11, 127
1, 120, Control_c, 4, 91, 110
1, 120, Control_c, 4, 93, 0
1, 123, Program_c, 5, 49
1, 124, Control_c, 5, 7, 70
1, 124, Control_c, 5, 10, 14
1, 124, Control_c, 5, 11, 127
1, 125, Control_c, 5, 91, 100
1, 125, Control_c, 5, 93, 0
1, 128, Program_c, 6, 24
1, 129, Control_c, 6, 7, 110
1, 129, Control_c, 6, 10, 84
1, 129, Control_c, 6, 11, 127
1, 130, Control_c, 6, 91, 80
1, 130, Control_c, 6, 93, 0
1, 144, Control_c, 9, 7, 70
1, 144, Control_c, 9, 11, 127
1, 145, Control_c, 9, 91, 100
1, 145, Control_c, 9, 93, 0
1, 384, Time_signature, 4, 2, 24, 8
1, 384, Note_on_c, 9, 42, 108
1, 443, Note_off_c, 9, 42, 108
1, 480, Note_on_c, 9, 42, 73
1, 502, Note_off_c, 9, 42, 73
1, 575, Note_on_c, 9, 42, 82
1, 597, Note_off_c, 9, 42, 82
1, 671, Note_on_c, 9, 42, 71
1, 690, Note_off_c, 9, 42, 71
1, 765, Note_on_c, 4, 48, 52
1, 767, Control_c, 2, 64, 127
1, 768, Note_on_c, 2, 48, 57
1, 768, Note_on_c, 2, 52, 63
1, 768, Note_on_c, 2, 55, 63
1, 768, Note_on_c, 1, 36, 58
1, 768, Note_on_c, 5, 67, 63
1, 768, Note_on_c, 9, 36, 93
1, 768, Note_on_c, 9, 46, 102
1, 769, Note_on_c, 5, 76, 63
1, 791, Note_off_c, 9, 46, 102
1, 863, Note_off_c, 9, 36, 93
1, 864, Note_on_c, 9, 44, 73
1, 866, Note_off_c, 2, 48, 57
1, 884, Note_off_c, 9, 44, 73
1, 886, Note_off_c, 2, 55, 63
1, 887, Note_off_c, 2, 52, 63
1, 911, Note_on_c, 2, 48, 54
1, 912, Note_on_c, 9, 36, 41
1, 941, Note_off_c, 9, 36, 41
1, 959, Note_on_c, 2, 55, 66
1, 960, Note_on_c, 2, 52, 66
1, 960, Note_on_c, 9, 38, 93
1, 961, Note_on_c, 9, 42, 96
1, 962, Note_on_c, 3, 72, 79
1, 984, Note_off_c, 3, 72, 79
1, 992, Note_off_c, 9, 42, 96
1, 1008, Note_on_c, 3, 72, 70
1, 1034, Note_off_c, 3, 72, 70
1, 1052, Note_off_c, 9, 38, 93
1, 1055, Note_on_c, 3, 72, 62
1, 1057, Note_on_c, 9, 42, 87
1, 1076, Note_off_c, 3, 72, 62
1, 1082, Note_off_c, 2, 52, 66
1, 1084, Note_off_c, 2, 55, 66
1, 1086, Note_off_c, 9, 42, 87
1, 1097, Note_off_c, 2, 48, 54
1, 1102, Note_on_c, 3, 72, 73
1, 1104, Note_on_c, 9, 36, 48
1, 1112, Note_off_c, 1, 36, 58
1, 1118, Note_off_c, 9, 36, 48
1, 1152, Note_on_c, 2, 55, 46
1, 1153, Note_on_c, 2, 52, 46
1, 1153, Note_on_c, 9, 36, 87
1, 1153, Note_on_c, 9, 46, 102
1, 1154, Note_on_c, 2, 48, 40
1, 1154, Note_on_c, 1, 36, 60
1, 1175, Control_c, 2, 64, 0
1, 1178, Note_off_c, 3, 72, 73
1, 1194, Note_off_c, 9, 46, 102
1, 1198, Note_on_c, 3, 72, 79
1, 1210, Control_c, 2, 64, 127
1, 1218, Note_off_c, 3, 72, 79
1, 1245, Note_off_c, 9, 36, 87
1, 1248, Note_on_c, 3, 72, 75
1, 1248, Note_on_c, 9, 44, 73
1, 1256, Note_off_c, 2, 52, 46
1, 1259, Note_off_c, 2, 55, 46
1, 1261, Note_off_c, 2, 48, 40
1, 1271, Note_off_c, 3, 72, 75
1, 1273, Note_off_c, 9, 44, 73
1, 1296, Note_on_c, 3, 72, 80
1, 1296, Note_on_c, 9, 36, 62
1, 1321, Note_off_c, 9, 36, 62
1, 1343, Note_on_c, 2, 48, 46
1, 1343, Note_on_c, 2, 55, 50
1, 1344, Note_on_c, 9, 38, 102
1, 1344, Note_on_c, 2, 52, 51
1, 1344, Note_on_c, 9, 42, 102
1, 1378, Note_off_c, 9, 42, 102
1, 1392, Note_on_c, 3, 71, 78
1, 1421, Note_off_c, 2, 52, 51
1, 1425, Note_off_c, 3, 72, 80
1, 1429, Note_off_c, 9, 38, 102
1, 1433, Note_off_c, 2, 55, 50
1, 1438, Note_on_c, 3, 69, 74
1, 1439, Note_off_c, 2, 48, 46
1, 1439, Note_off_c, 3, 71, 78
1, 1440, Note_on_c, 9, 42, 87
1, 1462, Note_off_c, 9, 42, 87
1, 1486, Note_on_c, 3, 65, 64
1, 1488, Note_on_c, 9, 36, 50
1, 1491, Note_off_c, 3, 69, 74
1, 1505, Note_off_c, 9, 36, 50
1, 1512, Note_off_c, 5, 76, 63
1, 1512, Note_off_c, 5, 67, 63
1, 1520, Note_on_c, 5, 69, 38
1, 1523, Note_on_c, 5, 74, 45
1, 1526, Note_off_c, 4, 48, 52
1, 1529, Note_off_c, 1, 36, 60
1, 1530, Note_on_c, 4, 50, 57
1, 1535, Note_on_c, 1, 38, 74
1, 1536, Note_on_c, 9, 46, 96
1, 1536, Note_on_c, 9, 36, 82
1, 1537, Note_on_c, 2, 53, 52
1, 1537, Note_on_c, 2, 57, 62
1, 1538, Note_on_c, 2, 50, 42
1, 1556, Control_c, 2, 64, 0
1, 1557, Note_off_c, 9, 46, 96
1, 1590, Control_c, 2, 64, 127
1, 1632, Note_on_c, 9, 42, 69
1, 1634, Note_off_c, 9, 36, 82
1, 1647, Note_off_c, 2, 50, 42
1, 1660, Note_off_c, 9, 42, 69
1, 1667, Note_off_c, 2, 57, 62
1, 1673, Note_off_c, 2, 53, 52
1, 1679, Note_on_c, 2, 50, 61
1, 1679, Note_on_c, 9, 36, 64
1, 1707, Note_off_c, 9, 36, 64
1, 1728, Note_on_c, 2, 57, 62
1, 1728, Note_on_c, 9, 38, 96
1, 1729, Note_on_c, 2, 53, 46
1, 1729, Note_on_c, 9, 44, 93
1, 1735, Control_c, 2, 64, 0
1, 1754, Note_off_c, 9, 44, 93
1, 1767, Control_c, 2, 64, 127
1, 1790, Note_off_c, 2, 50, 61
1, 1796, Note_off_c, 2, 57, 62
1, 1805, Note_off_c, 2, 53, 46
1, 1813, Note_off_c, 9, 38, 96
1, 1823, Note_on_c, 9, 42, 82
1, 1859, Note_off_c, 9, 42, 82
1, 1873, Note_on_c, 9, 36, 53
1, 1884, Note_off_c, 9, 36, 53
1, 1913, Note_off_c, 3, 65, 64
1, 1916, Note_on_c, 1, 26, 85
1, 1917, Note_off_c, 1, 38, 74
1, 1918, Note_on_c, 2, 50, 77
1, 1921, Note_on_c, 2, 38, 59
1, 1921, Note_on_c, 9, 42, 102
1, 1921, Note_on_c, 9, 36, 93
1, 1952, Note_off_c, 9, 42, 102
1, 1957, Note_off_c, 9, 36, 93
1, 1961, Note_off_c, 2, 38, 59
1, 1961, Control_c, 2, 64, 0
1, 1967, Note_on_c, 2, 52, 82
1, 1967, Note_on_c, 2, 40, 67
1, 1968, Note_on_c, 1, 28, 87
1, 1968, Note_on_c, 9, 38, 93
1, 1970, Note_off_c, 2, 50, 77
1, 1998, Note_off_c, 1, 26, 85
1, 2004, Control_c, 2, 64, 127
1, 2016, Note_on_c, 9, 42, 93
1, 2018, Note_off_c, 9, 38, 93
1, 2051, Note_off_c, 2, 52, 82
1, 2053, Note_off_c, 9, 42, 93
1, 2060, Note_off_c, 2, 40, 67
1, 2061, Note_off_c, 1, 28, 87
1, 2062, Note_on_c, 1, 29, 85
1, 2063, Note_on_c, 2, 53, 91
1, 2063, Note_on_c, 2, 41, 71
1, 2063, Note_on_c, 9, 38, 108
1, 2069, Control_c, 2, 64, 0
1, 2103, Control_c, 2, 64, 127
1, 2112, Note_on_c, 9, 42, 93
1, 2117, Note_off_c, 9, 38, 108
1, 2151, Note_off_c, 2, 53, 91
1, 2155, Note_off_c, 2, 41, 71
1, 2158, Note_on_c, 2, 54, 83
1, 2158, Note_off_c, 9, 42, 93
1, 2159, Note_on_c, 2, 42, 67
1, 2159, Note_on_c, 9, 38, 99
1, 2161, Control_c, 2, 64, 0
1, 2164, Note_on_c, 1, 30, 89
1, 2182, Note_off_c, 4, 50, 57
1, 2188, Note_off_c, 1, 29, 85
1, 2196, Control_c, 2, 64, 127
1, 2205, Note_on_c, 4, 54, 64
1, 2207, Note_on_c, 9, 42, 93
1, 2211, Note_off_c, 9, 38, 99
1, 2238, Note_off_c, 9, 42, 93
1, 2242, Note_off_c, 2, 54, 83
1, 2246, Note_off_c, 2, 42, 67
1, 2255, Note_on_c, 9, 36, 82
1, 2261, Note_off_c, 1, 30, 89
1, 2269, Note_off_c, 9, 36, 82
1, 2273, Note_off_c, 5, 74, 45
1, 2280, Note_off_c, 5, 69, 38
1, 2293, Note_on_c, 5, 67, 61
1, 2294, Note_on_c, 5, 74, 53
1, 2302, Note_on_c, 2, 55, 71
1, 2303, Note_on_c, 2, 43, 58
1, 2303, Note_on_c, 4, 55, 61
1, 2303, Note_on_c, 9, 36, 102
1, 2304, Note_on_c, 1, 31, 87
1, 2304, Note_on_c, 9, 46, 93
1, 2311, Note_off_c, 4, 54, 64
1, 2317, Control_c, 2, 64, 0
1, 2332, Note_off_c, 9, 46, 93
1, 2358, Control_c, 2, 64, 127
1, 2395, Note_off_c, 9, 36, 102
1, 2398, Note_on_c, 3, 71, 80
1, 2398, Note_on_c, 3, 67, 66
1, 2399, Note_on_c, 9, 42, 82
1, 2417, Note_off_c, 3, 71, 80
1, 2423, Note_off_c, 9, 42, 82
1, 2424, Note_off_c, 3, 67, 66
1, 2432, Note_off_c, 2, 43, 58
1, 2437, Note_off_c, 2, 55, 71
1, 2446, Note_on_c, 3, 71, 73
1, 2447, Note_on_c, 3, 67, 52
1, 2447, Note_on_c, 9, 36, 53
1, 2462, Note_off_c, 3, 67, 52
1, 2467, Note_off_c, 3, 71, 73
1, 2473, Note_off_c, 9, 36, 53
1, 2494, Note_on_c, 3, 71, 91
1, 2494, Note_on_c, 3, 67, 76
1, 2495, Note_on_c, 2, 55, 72
1, 2496, Note_on_c, 2, 43, 50
1, 2496, Note_on_c, 9, 42, 102
1, 2496, Note_on_c, 9, 38, 102
1, 2518, Control_c, 2, 64, 0
1, 2543, Note_off_c, 9, 42, 102
1, 2557, Control_c, 2, 64, 127
1, 2575, Note_off_c, 9, 38, 102
1, 2577, Note_off_c, 3, 71, 91
1, 2586, Note_off_c, 3, 67, 76
1, 2591, Note_on_c, 9, 42, 87
1, 2592, Note_on_c, 3, 72, 84
1, 2592, Note_on_c, 3, 69, 67
1, 2615, Note_off_c, 2, 55, 72
1, 2624, Note_off_c, 9, 42, 87
1, 2626, Note_off_c, 2, 43, 50
1, 2639, Note_on_c, 9, 36, 60
1, 2640, Note_off_c, 3, 69, 67
1, 2640, Note_off_c, 1, 31, 87
1, 2640, Note_on_c, 3, 71, 81
1, 2640, Note_on_c, 3, 74, 90
1, 2643, Note_off_c, 3, 72, 84
1, 2655, Note_off_c, 9, 36, 60
1, 2683, Note_off_c, 4, 55, 61
1, 2685, Note_on_c, 4, 59, 60
1, 2688, Note_on_c, 2, 55, 58
1, 2688, Note_on_c, 1, 31, 87
1, 2688, Note_on_c, 9, 36, 90
1, 2688, Note_on_c, 9, 42, 105
1, 2689, Note_on_c, 2, 43, 44
1, 2709, Control_c, 2, 64, 0
1, 2736, Note_off_c, 3, 74, 90
1, 2736, Note_off_c, 3, 71, 81
1, 2736, Note_on_c, 3, 67, 82
1, 2736, Note_on_c, 3, 71, 96
1, 2736, Note_off_c, 9, 42, 105
1, 2748, Control_c, 2, 64, 127
1, 2782, Note_off_c, 9, 36, 90
1, 2784, Note_on_c, 9, 42, 93
1, 2801, Note_off_c, 2, 55, 58
1, 2811, Note_off_c, 2, 43, 44
1, 2837, Note_off_c, 9, 42, 93
1, 2854, Note_off_c, 3, 67, 82
1, 2855, Note_off_c, 3, 71, 96
1, 2879, Note_on_c, 2, 43, 47
1, 2879, Note_on_c, 2, 55, 56
1, 2879, Note_on_c, 9, 38, 102
1, 2880, Note_on_c, 3, 69, 88
1, 2880, Note_on_c, 9, 42, 93
1, 2900, Control_c, 2, 64, 0
1, 2911, Note_off_c, 9, 42, 93
1, 2934, Control_c, 2, 64, 127
1, 2957, Note_off_c, 9, 38, 102
1, 2974, Note_on_c, 3, 67, 89
1, 2974, Note_on_c, 9, 42, 90
1, 2975, Note_off_c, 2, 55, 56
1, 2975, Note_off_c, 2, 43, 47
1, 2985, Note_off_c, 3, 69, 88
1, 2992, Note_off_c, 9, 42, 90
1, 3023, Note_on_c, 9, 36, 63
1, 3035, Note_off_c, 9, 36, 63
1, 3056, Note_off_c, 5, 67, 61
1, 3066, Note_on_c, 5, 68, 61
1, 3067, Note_on_c, 5, 76, 63
1, 3069, Note_on_c, 4, 62, 57
1, 3070, Note_on_c, 2, 56, 51
1, 3071, Note_on_c, 2, 62, 63
1, 3071, Note_off_c, 4, 59, 60
1, 3071, Note_on_c, 9, 36, 102
1, 3071, Note_on_c, 2, 52, 60
1, 3071, Note_on_c, 9, 46, 93
1, 3072, Note_on_c, 3, 76, 99
1, 3072, Note_on_c, 1, 28, 87
1, 3076, Note_off_c, 5, 74, 53
1, 3077, Note_off_c, 1, 31, 87
1, 3089, Control_c, 2, 64, 0
1, 3089, Note_off_c, 9, 46, 93
1, 3096, Note_off_c, 3, 67, 89
1, 3117, Note_on_c, 3, 77, 88
1, 3126, Control_c, 2, 64, 127
1, 3135, Note_off_c, 3, 76, 99
1, 3143, Note_off_c, 9, 36, 102
1, 3165, Note_on_c, 3, 76, 91
1, 3167, Note_on_c, 9, 42, 87
1, 3173, Note_off_c, 3, 77, 88
1, 3176, Note_off_c, 2, 62, 63
1, 3187, Note_off_c, 2, 56, 51
1, 3191, Note_off_c, 9, 42, 87
1, 3199, Note_off_c, 2, 52, 60
1, 3213, Note_on_c, 3, 74, 101
1, 3215, Note_on_c, 9, 36, 93
1, 3218, Note_off_c, 3, 76, 91
1, 3246, Note_off_c, 9, 36, 93
1, 3253, Note_off_c, 1, 28, 87
1, 3261, Note_on_c, 1, 32, 68
1, 3263, Note_on_c, 2, 56, 52
1, 3263, Note_on_c, 2, 62, 72
1, 3263, Note_on_c, 9, 38, 102
1, 3264, Note_on_c, 9, 42, 93
1, 3264, Note_on_c, 2, 52, 50
1, 3282, Note_off_c, 9, 42, 93
1, 3285, Control_c, 2, 64, 0
1, 3292, Note_off_c, 9, 38, 102
1, 3310, Note_on_c, 3, 76, 89
1, 3312, Note_on_c, 9, 42, 62
1, 3317, Note_off_c, 3, 74, 101
1, 3319, Note_off_c, 9, 42, 62
1, 3321, Control_c, 2, 64, 127
1, 3354, Note_off_c, 2, 56, 52
1, 3354, Note_on_c, 5, 74, 79
1, 3357, Note_off_c, 5, 76, 63
1, 3358, Note_on_c, 3, 74, 95
1, 3360, Note_on_c, 9, 42, 82
1, 3363, Note_off_c, 3, 76, 89
1, 3369, Note_off_c, 9, 42, 82
1, 3371, Note_off_c, 2, 62, 72
1, 3398, Note_off_c, 2, 52, 50
1, 3401, Note_off_c, 3, 74, 95
1, 3405, Note_on_c, 3, 72, 85
1, 3406, Note_on_c, 3, 69, 64
1, 3407, Note_on_c, 9, 46, 96
1, 3414, Note_off_c, 9, 46, 96
1, 3442, Note_on_c, 5, 69, 61
1, 3443, Note_off_c, 5, 68, 61
1, 3444, Note_on_c, 5, 72, 63
1, 3445, Note_off_c, 5, 74, 79
1, 3453, Note_on_c, 4, 60, 55
1, 3455, Note_on_c, 1, 33, 74
1, 3455, Note_off_c, 4, 62, 57
1, 3456, Note_on_c, 9, 36, 102
1, 3456, Note_on_c, 2, 52, 50
1, 3456, Note_on_c, 9, 42, 102
1, 3457, Note_on_c, 2, 60, 67
1, 3457, Note_on_c, 2, 57, 49
1, 3467, Note_off_c, 1, 32, 68
1, 3472, Note_off_c, 9, 42, 102
1, 3473, Control_c, 2, 64, 0
1, 3502, Note_on_c, 9, 42, 36
1, 3510, Control_c, 2, 64, 127
1, 3513, Note_off_c, 9, 42, 36
1, 3533, Note_off_c, 2, 57, 49
1, 3552, Note_on_c, 9, 42, 82
1, 3561, Note_off_c, 9, 42, 82
1, 3566, Note_off_c, 2, 52, 50
1, 3582, Note_off_c, 3, 69, 64
1, 3584, Note_off_c, 3, 72, 85
1, 3600, Note_on_c, 9, 42, 11
1, 3601, Note_on_c, 3, 72, 77
1, 3602, Note_off_c, 9, 42, 11
1, 3608, Note_off_c, 9, 36, 102
1, 3643, Note_off_c, 4, 60, 55
1, 3644, Note_on_c, 4, 59, 59
1, 3647, Note_on_c, 2, 55, 62
1, 3647, Note_off_c, 3, 72, 77
1, 3647, Note_on_c, 1, 31, 82
1, 3647, Note_on_c, 9, 38, 105
1, 3648, Note_on_c, 2, 43, 47
1, 3648, Note_on_c, 9, 42, 96
1, 3649, Note_on_c, 3, 74, 88
1, 3660, Note_off_c, 1, 33, 74
1, 3664, Control_c, 2, 64, 0
1, 3665, Note_off_c, 2, 60, 67
1, 3673, Note_off_c, 9, 42, 96
1, 3697, Note_on_c, 3, 72, 89
1, 3701, Note_off_c, 3, 74, 88
1, 3711, Control_c, 2, 64, 127
1, 3721, Note_off_c, 9, 38, 105
1, 3736, Note_on_c, 5, 67, 58
1, 3739, Note_on_c, 5, 71, 64
1, 3740, Note_off_c, 5, 72, 63
1, 3741, Note_off_c, 5, 69, 61
1, 3745, Note_on_c, 9, 42, 93
1, 3746, Note_on_c, 3, 71, 92
1, 3752, Note_off_c, 2, 43, 47
1, 3760, Note_off_c, 3, 72, 89
1, 3768, Note_off_c, 9, 42, 93
1, 3792, Note_on_c, 9, 36, 73
1, 3807, Note_off_c, 9, 36, 73
1, 3834, Note_on_c, 4, 57, 64
1, 3835, Note_on_c, 5, 69, 58
1, 3836, Note_on_c, 5, 65, 53
1, 3837, Note_off_c, 3, 71, 92
1, 3838, Note_on_c, 2, 53, 59
1, 3839, Note_on_c, 2, 41, 45
1, 3839, Note_off_c, 5, 71, 64
1, 3839, Note_on_c, 3, 69, 81
1, 3839, Note_on_c, 1, 29, 74
1, 3840, Note_off_c, 5, 67, 58
1, 3841, Note_off_c, 4, 59, 59
1, 3841, Note_on_c, 9, 36, 93
1, 3841, Note_on_c, 9, 42, 93
1, 3846, Note_off_c, 2, 55, 62
1, 3849, Note_off_c, 1, 31, 82
1, 3854, Control_c, 2, 64, 0
1, 3866, Note_off_c, 9, 42, 93
1, 3904, Control_c, 2, 64, 127
1, 3917, Note_off_c, 9, 36, 93
1, 3936, Note_on_c, 9, 42, 87
1, 3953, Note_off_c, 2, 53, 59
1, 3953, Note_off_c, 9, 42, 87
1, 3969, Note_off_c, 2, 41, 45
1, 4017, Note_off_c, 3, 69, 81
1, 4030, Note_on_c, 2, 53, 58
1, 4031, Note_on_c, 3, 69, 73
1, 4031, Note_on_c, 2, 41, 46
1, 4032, Note_on_c, 3, 72, 88
1, 4033, Note_on_c, 9, 38, 102
1, 4033, Note_on_c, 9, 42, 105
1, 4051, Control_c, 2, 64, 0
1, 4054, Note_off_c, 9, 42, 105
1, 4060, Note_off_c, 3, 72, 88
1, 4065, Note_off_c, 3, 69, 73
1, 4079, Note_on_c, 3, 69, 69
1, 4079, Note_on_c, 3, 72, 74
1, 4080, Note_on_c, 9, 42, 61
1, 4086, Control_c, 2, 64, 127
1, 4090, Note_off_c, 9, 42, 61
1, 4099, Note_off_c, 3, 69, 69
1, 4101, Note_off_c, 3, 72, 74
1, 4105, Note_off_c, 1, 29, 74
1, 4106, Note_off_c, 9, 38, 102
1, 4125, Note_on_c, 3, 69, 78
1, 4126, Note_on_c, 3, 72, 86
1, 4126, Note_on_c, 1, 29, 61
1, 4128, Note_on_c, 9, 42, 87
1, 4139, Note_off_c, 9, 42, 87
1, 4162, Note_off_c, 2, 53, 58
1, 4163, Note_off_c, 2, 41, 46
1, 4174, Note_on_c, 3, 71, 79
1, 4174, Note_on_c, 3, 74, 91
1, 4174, Note_off_c, 3, 69, 78
1, 4176, Note_off_c, 3, 72, 86
1, 4176, Note_on_c, 9, 46, 99
1, 4186, Note_off_c, 9, 46, 99
1, 4219, Note_off_c, 4, 57, 64
1, 4221, Note_off_c, 5, 69, 58
1, 4221, Note_on_c, 2, 55, 65
1, 4221, Note_on_c, 4, 59, 57
1, 4221, Note_on_c, 5, 71, 58
1, 4222, Note_on_c, 2, 43, 57
1, 4223, Note_off_c, 5, 65, 53
1, 4223, Note_on_c, 5, 67, 56
1, 4223, Note_on_c, 1, 31, 68
1, 4224, Note_off_c, 1, 29, 61
1, 4225, Note_on_c, 9, 36, 96
1, 4240, Control_c, 2, 64, 0
1, 4271, Note_on_c, 9, 42, 61
1, 4278, Note_off_c, 9, 42, 61
1, 4281, Control_c, 2, 64, 127
1, 4282, Note_off_c, 3, 71, 79
1, 4319, Note_off_c, 9, 36, 96
1, 4320, Note_on_c, 9, 42, 73
1, 4321, Note_on_c, 3, 71, 88
1, 4332, Note_off_c, 9, 42, 73
1, 4334, Note_off_c, 2, 55, 65
1, 4335, Note_off_c, 3, 74, 91
1, 4339, Note_off_c, 2, 43, 57
1, 4365, Note_off_c, 3, 71, 88
1, 4367, Note_on_c, 3, 69, 76
1, 4368, Note_on_c, 9, 36, 93
1, 4406, Note_off_c, 9, 36, 93
1, 4413, Note_on_c, 2, 55, 70
1, 4414, Note_on_c, 2, 43, 47
1, 4415, Note_on_c, 3, 71, 90
1, 4417, Note_on_c, 9, 38, 102
1, 4417, Note_on_c, 9, 42, 96
1, 4418, Note_off_c, 3, 69, 76
1, 4424, Control_c, 2, 64, 0
1, 4440, Note_off_c, 9, 42, 96
1, 4459, Control_c, 2, 64, 127
1, 4462, Note_on_c, 3, 69, 82
1, 4464, Note_off_c, 3, 71, 90
1, 4482, Note_off_c, 9, 38, 102
1, 4509, Note_off_c, 3, 69, 82
1, 4509, Note_on_c, 3, 67, 81
1, 4512, Note_on_c, 9, 42, 87
1, 4527, Note_off_c, 9, 42, 87
1, 4536, Note_off_c, 2, 43, 47
1, 4546, Note_off_c, 2, 55, 70
1, 4559, Note_on_c, 3, 64, 74
1, 4559, Note_on_c, 9, 36, 76
1, 4560, Note_off_c, 3, 67, 81
1, 4560, Note_on_c, 3, 69, 81
1, 4561, Note_on_c, 3, 60, 71
1, 4571, Note_off_c, 9, 36, 76
1, 4581, Control_c, 2, 64, 0
1, 4587, Note_off_c, 5, 67, 56
1, 4598, Note_on_c, 5, 69, 23
1, 4599, Note_on_c, 5, 72, 64
1, 4601, Note_on_c, 4, 60, 64
1, 4601, Note_on_c, 5, 64, 56
1, 4604, Note_off_c, 5, 71, 58
1, 4606, Note_on_c, 2, 45, 63
1, 4606, Note_on_c, 2, 57, 68
1, 4607, Note_on_c, 9, 36, 87
1, 4608, Note_off_c, 1, 31, 68
1, 4608, Note_on_c, 1, 33, 68
1, 4608, Note_on_c, 9, 42, 93
1, 4609, Control_c, 2, 64, 127
1, 4611, Note_off_c, 4, 59, 57
1, 4628, Note_off_c, 9, 42, 93
1, 4629, Note_off_c, 2, 57, 68
1, 4631, Note_off_c, 2, 45, 63
1, 4654, Note_on_c, 2, 57, 59
1, 4655, Note_on_c, 2, 45, 42
1, 4671, Note_off_c, 2, 45, 42
1, 4672, Note_off_c, 2, 57, 59
1, 4702, Note_on_c, 2, 45, 53
1, 4702, Note_on_c, 2, 57, 55
1, 4706, Note_on_c, 9, 42, 90
1, 4712, Note_off_c, 9, 36, 87
1, 4716, Note_off_c, 2, 57, 55
1, 4716, Note_off_c, 2, 45, 53
1, 4721, Note_off_c, 9, 42, 90
1, 4748, Note_on_c, 2, 45, 57
1, 4748, Note_on_c, 2, 57, 70
1, 4752, Note_on_c, 9, 36, 69
1, 4761, Note_off_c, 2, 45, 57
1, 4768, Note_off_c, 2, 57, 70
1, 4774, Note_off_c, 9, 36, 69
1, 4785, Control_c, 2, 64, 0
1, 4796, Note_on_c, 2, 45, 56
1, 4796, Note_on_c, 2, 57, 65
1, 4800, Note_on_c, 9, 38, 99
1, 4801, Note_on_c, 9, 42, 99
1, 4816, Control_c, 2, 64, 127
1, 4820, Note_off_c, 9, 42, 99
1, 4840, Note_off_c, 2, 57, 65
1, 4844, Note_on_c, 2, 55, 65
1, 4867, Note_off_c, 9, 38, 99
1, 4891, Note_on_c, 5, 74, 64
1, 4895, Note_off_c, 2, 45, 56
1, 4897, Note_on_c, 9, 42, 87
1, 4898, Note_off_c, 5, 72, 64
1, 4910, Note_off_c, 9, 42, 87
1, 4933, Note_off_c, 2, 55, 65
1, 4938, Note_on_c, 2, 57, 74
1, 4939, Note_on_c, 2, 45, 43
1, 4944, Note_on_c, 9, 36, 76
1, 4952, Control_c, 2, 64, 0
1, 4956, Note_off_c, 9, 36, 76
1, 4984, Control_c, 2, 64, 127
1, 4989, Note_off_c, 5, 74, 64
1, 4990, Note_on_c, 5, 76, 63
1, 4992, Note_on_c, 9, 36, 99
1, 4992, Note_on_c, 9, 46, 99
1, 5006, Note_off_c, 9, 46, 99
1, 5016, Note_off_c, 9, 36, 99
1, 5037, Note_on_c, 2, 55, 67
1, 5039, Note_off_c, 2, 45, 43
1, 5044, Note_off_c, 2, 57, 74
1, 5085, Note_on_c, 2, 45, 56
1, 5085, Note_on_c, 2, 57, 73
1, 5087, Note_on_c, 9, 42, 73
1, 5088, Note_off_c, 3, 60, 71
1, 5088, Note_off_c, 3, 69, 81
1, 5088, Note_off_c, 3, 64, 74
1, 5088, Control_c, 2, 64, 0
1, 5090, Note_off_c, 2, 55, 67
1, 5096, Note_off_c, 9, 42, 73
1, 5128, Control_c, 2, 64, 127
1, 5134, Note_on_c, 9, 36, 87
1, 5155, Note_off_c, 9, 36, 87
1, 5173, Note_off_c, 5, 76, 63
1, 5175, Note_on_c, 5, 79, 64
1, 5182, Note_on_c, 3, 71, 88
1, 5183, Note_on_c, 9, 38, 102
1, 5183, Note_on_c, 9, 42, 93
1, 5190, Note_off_c, 2, 45, 56
1, 5191, Note_off_c, 2, 57, 73
1, 5199, Note_off_c, 9, 42, 93
1, 5242, Note_off_c, 9, 38, 102
1, 5272, Note_off_c, 3, 71, 88
1, 5276, Note_on_c, 1, 28, 78
1, 5277, Note_on_c, 4, 59, 64
1, 5278, Note_on_c, 9, 42, 93
1, 5280, Note_on_c, 3, 72, 94
1, 5280, Note_off_c, 1, 33, 68
1, 5281, Note_off_c, 4, 60, 64
1, 5292, Note_off_c, 9, 42, 93
1, 5326, Note_on_c, 9, 36, 76
1, 5335, Note_off_c, 9, 36, 76
1, 5359, Note_off_c, 5, 64, 56
1, 5361, Note_on_c, 5, 72, 61
1, 5363, Note_on_c, 5, 81, 61
1, 5364, Note_off_c, 5, 69, 23
1, 5367, Note_off_c, 5, 79, 64
1, 5371, Note_off_c, 4, 59, 64
1, 5372, Note_on_c, 1, 29, 64
1, 5373, Note_off_c, 3, 72, 94
1, 5373, Note_on_c, 4, 57, 62
1, 5374, Note_on_c, 9, 36, 102
1, 5374, Note_on_c, 2, 53, 66
1, 5374, Note_on_c, 9, 42, 96
1, 5375, Note_on_c, 2, 41, 57
1, 5376, Note_on_c, 3, 71, 74
1, 5376, Note_on_c, 3, 74, 92
1, 5379, Note_off_c, 1, 28, 78
1, 5395, Note_off_c, 9, 42, 96
1, 5399, Control_c, 2, 64, 0
1, 5408, Note_off_c, 9, 36, 102
1, 5415, Note_off_c, 3, 71, 74
1, 5421, Note_off_c, 3, 74, 92
1, 5424, Note_on_c, 3, 76, 98
1, 5425, Note_on_c, 3, 72, 76
1, 5437, Control_c, 2, 64, 127
1, 5471, Note_on_c, 9, 42, 93
1, 5484, Note_off_c, 9, 42, 93
1, 5487, Note_off_c, 3, 72, 76
1, 5494, Note_off_c, 2, 53, 66
1, 5502, Note_off_c, 2, 41, 57
1, 5520, Note_on_c, 3, 69, 79
1, 5520, Note_on_c, 3, 72, 89
1, 5528, Note_off_c, 3, 76, 98
1, 5566, Note_on_c, 9, 38, 90
1, 5566, Note_off_c, 3, 69, 79
1, 5567, Note_on_c, 2, 41, 52
1, 5567, Note_on_c, 2, 53, 64
1, 5567, Note_on_c, 9, 42, 90
1, 5582, Control_c, 2, 64, 0
1, 5583, Note_off_c, 9, 42, 90
1, 5606, Note_off_c, 3, 72, 89
1, 5615, Control_c, 2, 64, 127
1, 5616, Note_on_c, 3, 65, 68
1, 5616, Note_on_c, 3, 69, 81
1, 5637, Note_off_c, 9, 38, 90
1, 5663, Note_on_c, 9, 42, 87
1, 5674, Note_off_c, 9, 42, 87
1, 5693, Note_off_c, 2, 53, 64
1, 5693, Note_off_c, 2, 41, 52
1, 5710, Note_on_c, 9, 36, 67
1, 5723, Note_off_c, 9, 36, 67
1, 5741, Note_off_c, 3, 65, 68
1, 5743, Note_off_c, 3, 69, 81
1, 5754, Note_off_c, 1, 29, 64
1, 5759, Note_on_c, 9, 36, 105
1, 5759, Note_on_c, 2, 53, 60
1, 5759, Note_on_c, 9, 42, 102
1, 5760, Note_on_c, 2, 41, 46
1, 5761, Note_on_c, 1, 29, 70
1, 5772, Note_off_c, 9, 42, 102
1, 5773, Control_c, 2, 64, 0
1, 5808, Note_on_c, 3, 77, 69
1, 5808, Note_on_c, 3, 81, 61
1, 5810, Control_c, 2, 64, 127
1, 5838, Note_off_c, 9, 36, 105
1, 5856, Note_off_c, 3, 77, 69
1, 5856, Note_on_c, 3, 79, 90
1, 5856, Note_on_c, 9, 42, 93
1, 5857, Note_on_c, 3, 76, 70
1, 5863, Note_off_c, 3, 81, 61
1, 5870, Note_off_c, 9, 42, 93
1, 5886, Note_off_c, 2, 41, 46
1, 5887, Note_off_c, 2, 53, 60
1, 5904, Note_on_c, 3, 74, 81
1, 5904, Note_on_c, 9, 36, 79
1, 5907, Note_on_c, 3, 77, 87
1, 5916, Note_off_c, 3, 76, 70
1, 5925, Note_off_c, 3, 79, 90
1, 5937, Note_off_c, 9, 36, 79
1, 5948, Control_c, 2, 64, 0
1, 5952, Note_on_c, 2, 41, 61
1, 5952, Note_on_c, 2, 53, 70
1, 5952, Note_on_c, 9, 38, 93
1, 5953, Note_on_c, 9, 42, 99
1, 5967, Note_off_c, 9, 42, 99
1, 5976, Control_c, 2, 64, 127
1, 5982, Note_off_c, 3, 74, 81
1, 6001, Note_on_c, 3, 76, 82
1, 6002, Note_on_c, 3, 72, 57
1, 6003, Note_off_c, 3, 77, 87
1, 6006, Control_c, 2, 64, 0
1, 6028, Note_off_c, 9, 38, 93
1, 6038, Note_off_c, 1, 29, 70
1, 6043, Control_c, 2, 64, 127
1, 6049, Note_on_c, 9, 42, 102
1, 6049, Note_on_c, 1, 29, 82
1, 6063, Note_off_c, 9, 42, 102
1, 6096, Note_off_c, 2, 53, 70
1, 6096, Note_off_c, 2, 41, 61
1, 6096, Note_on_c, 2, 54, 75
1, 6096, Note_on_c, 2, 42, 55
1, 6096, Note_on_c, 9, 36, 69
1, 6097, Note_on_c, 1, 30, 85
1, 6108, Note_off_c, 1, 29, 82
1, 6108, Note_off_c, 9, 36, 69
1, 6110, Control_c, 2, 64, 0
1, 6126, Note_off_c, 3, 72, 57
1, 6129, Note_on_c, 5, 79, 82
1, 6130, Note_on_c, 5, 71, 58
1, 6134, Note_off_c, 5, 72, 61
1, 6136, Note_off_c, 5, 81, 61
1, 6139, Note_on_c, 4, 55, 59
1, 6142, Note_on_c, 3, 74, 74
1, 6142, Note_on_c, 3, 71, 57
1, 6143, Note_off_c, 4, 57, 62
1, 6144, Note_off_c, 3, 76, 82
1, 6144, Note_off_c, 2, 42, 55
1, 6144, Note_off_c, 2, 54, 75
1, 6144, Note_on_c, 2, 55, 78
1, 6144, Note_on_c, 1, 31, 54
1, 6145, Note_on_c, 2, 43, 62
1, 6145, Note_off_c, 1, 30, 85
1, 6145, Note_on_c, 9, 36, 90
1, 6145, Note_on_c, 9, 51, 102
1, 6153, Control_c, 2, 64, 127
1, 6189, Note_off_c, 3, 71, 57
1, 6207, Note_off_c, 9, 51, 102
1, 6240, Note_on_c, 9, 51, 102
1, 6253, Note_off_c, 3, 74, 74
1, 6288, Note_on_c, 3, 67, 91
1, 6291, Note_off_c, 9, 51, 102
1, 6298, Note_off_c, 2, 43, 62
1, 6310, Note_off_c, 2, 55, 78
1, 6335, Note_on_c, 2, 55, 74
1, 6337, Note_on_c, 2, 43, 54
1, 6338, Note_on_c, 9, 51, 105
1, 6347, Control_c, 2, 64, 0
1, 6352, Note_off_c, 3, 67, 91
1, 6382, Control_c, 2, 64, 127
1, 6384, Note_on_c, 3, 67, 74
1, 6386, Note_off_c, 9, 51, 105
1, 6407, Note_off_c, 3, 67, 74
1, 6432, Note_on_c, 3, 67, 85
1, 6433, Note_on_c, 9, 51, 99
1, 6453, Note_off_c, 3, 67, 85
1, 6466, Note_off_c, 2, 43, 54
1, 6470, Note_off_c, 2, 55, 74
1, 6480, Note_on_c, 3, 69, 79
1, 6481, Note_on_c, 3, 77, 96
1, 6487, Note_off_c, 9, 51, 99
1, 6489, Note_off_c, 9, 36, 90
1, 6494, Note_off_c, 1, 31, 54
1, 6521, Note_on_c, 5, 77, 87
1, 6524, Note_off_c, 5, 79, 82
1, 6526, Note_on_c, 1, 31, 87
1, 6529, Note_on_c, 2, 43, 46
1, 6529, Note_on_c, 2, 55, 69
1, 6529, Note_on_c, 9, 36, 93
1, 6529, Note_on_c, 9, 51, 102
1, 6543, Control_c, 2, 64, 0
1, 6568, Note_off_c, 9, 51, 102
1, 6576, Note_off_c, 3, 77, 96
1, 6576, Note_off_c, 3, 69, 79
1, 6578, Note_on_c, 3, 67, 74
1, 6579, Note_on_c, 3, 76, 89
1, 6580, Control_c, 2, 64, 127
1, 6624, Note_on_c, 9, 51, 99
1, 6643, Note_off_c, 2, 55, 69
1, 6646, Note_off_c, 3, 67, 74
1, 6648, Note_off_c, 2, 43, 46
1, 6661, Note_off_c, 9, 51, 99
1, 6672, Note_off_c, 3, 76, 89
1, 6672, Note_on_c, 3, 72, 89
1, 6673, Note_on_c, 3, 64, 77
1, 6710, Note_off_c, 9, 36, 93
1, 6719, Note_on_c, 2, 55, 64
1, 6720, Note_on_c, 2, 43, 54
1, 6720, Note_on_c, 9, 51, 93
1, 6734, Note_off_c, 9, 51, 93
1, 6734, Control_c, 2, 64, 0
1, 6759, Note_off_c, 1, 31, 87
1, 6766, Control_c, 2, 64, 127
1, 6768, Note_on_c, 9, 45, 87
1, 6787, Note_off_c, 2, 43, 54
1, 6800, Note_off_c, 9, 45, 87
1, 6814, Note_on_c, 1, 31, 89
1, 6815, Note_on_c, 9, 43, 102
1, 6815, Note_on_c, 9, 41, 79
1, 6816, Note_off_c, 3, 64, 77
1, 6816, Note_off_c, 3, 72, 89
1, 6816, Note_on_c, 3, 65, 68
1, 6816, Note_on_c, 3, 74, 94
1, 6819, Note_off_c, 2, 55, 64
1, 6819, Note_off_c, 9, 41, 79
1, 6841, Note_off_c, 9, 43, 102
1, 6862, Note_on_c, 1, 35, 82
1, 6863, Note_off_c, 1, 31, 89
1, 6863, Note_on_c, 9, 41, 87
1, 6879, Note_off_c, 9, 41, 87
1, 6903, Note_off_c, 3, 65, 68
1, 6907, Note_off_c, 4, 55, 59
1, 6907, Note_off_c, 5, 71, 58
1, 6908, Note_on_c, 5, 72, 71
1, 6908, Note_off_c, 3, 74, 94
1, 6909, Note_on_c, 2, 55, 64
1, 6909, Note_on_c, 4, 60, 54
1, 6910, Note_on_c, 5, 76, 76
1, 6910, Note_on_c, 1, 36, 74
1, 6911, Note_on_c, 2, 48, 56
1, 6911, Note_on_c, 2, 52, 67
1, 6911, Note_on_c, 9, 36, 96
1, 6911, Note_on_c, 9, 51, 93
1, 6912, Note_on_c, 3, 64, 75
1, 6912, Note_on_c, 3, 72, 85
1, 6912, Note_off_c, 1, 35, 82
1, 6913, Control_c, 2, 64, 0
1, 6913, Note_on_c, 6, 48, 71
1, 6916, Note_off_c, 5, 77, 87
1, 6948, Note_off_c, 9, 51, 93
1, 6952, Control_c, 2, 64, 127
1, 6960, Note_on_c, 6, 55, 61
1, 7007, Note_on_c, 6, 60, 58
1, 7008, Note_on_c, 9, 51, 99
1, 7024, Note_off_c, 2, 55, 64
1, 7025, Note_off_c, 9, 36, 96
1, 7027, Note_off_c, 2, 52, 67
1, 7032, Note_off_c, 2, 48, 56
1, 7056, Note_on_c, 9, 36, 76
1, 7056, Note_on_c, 6, 64, 53
1, 7056, Note_on_c, 2, 48, 55
1, 7056, Note_on_c, 2, 55, 64
1, 7057, Note_on_c, 2, 52, 53
1, 7065, Note_off_c, 9, 51, 99
1, 7067, Note_off_c, 2, 48, 55
1, 7070, Note_off_c, 2, 52, 53
1, 7075, Note_off_c, 2, 55, 64
1, 7081, Note_off_c, 3, 64, 75
1, 7084, Note_off_c, 3, 72, 85
1, 7085, Note_off_c, 9, 36, 76
1, 7102, Control_c, 2, 64, 0
1, 7103, Note_on_c, 2, 48, 55
1, 7103, Note_on_c, 2, 55, 56
1, 7103, Note_on_c, 9, 38, 102
1, 7103, Note_on_c, 6, 67, 73
1, 7104, Note_off_c, 6, 64, 53
1, 7104, Note_on_c, 9, 51, 99
1, 7105, Note_on_c, 2, 52, 44
1, 7136, Control_c, 2, 64, 127
1, 7151, Note_off_c, 6, 67, 73
1, 7152, Note_off_c, 6, 60, 58
1, 7152, Note_on_c, 6, 64, 64
1, 7157, Note_off_c, 9, 51, 99
1, 7179, Note_off_c, 2, 48, 55
1, 7185, Note_off_c, 9, 38, 102
1, 7191, Note_off_c, 6, 48, 71
1, 7199, Note_on_c, 2, 43, 44
1, 7199, Note_on_c, 9, 51, 102
1, 7200, Note_on_c, 6, 60, 71
1, 7202, Note_off_c, 6, 55, 61
1, 7207, Note_off_c, 2, 55, 56
1, 7208, Note_off_c, 2, 52, 44
1, 7244, Note_off_c, 6, 64, 64
1, 7246, Note_off_c, 9, 51, 102
1, 7247, Note_on_c, 6, 55, 56
1, 7248, Note_on_c, 9, 36, 34
1, 7261, Note_off_c, 9, 36, 34
1, 7285, Note_off_c, 1, 36, 74
1, 7293, Note_on_c, 1, 36, 41
1, 7294, Note_on_c, 2, 55, 61
1, 7294, Note_on_c, 2, 52, 50
1, 7295, Note_off_c, 2, 43, 44
1, 7295, Note_on_c, 2, 48, 49
1, 7296, Note_on_c, 9, 51, 102
1, 7297, Note_on_c, 9, 36, 93
1, 7297, Note_on_c, 6, 48, 64
1, 7299, Note_off_c, 6, 60, 71
1, 7300, Control_c, 2, 64, 0
1, 7301, Note_off_c, 6, 55, 56
1, 7339, Control_c, 2, 64, 127
1, 7343, Note_on_c, 6, 55, 58
1, 7344, Note_off_c, 9, 51, 102
1, 7386, Note_on_c, 4, 67, 76
1, 7387, Note_off_c, 4, 60, 54
1, 7389, Note_on_c, 3, 76, 94
1, 7389, Note_on_c, 3, 67, 75
1, 7391, Note_on_c, 9, 51, 93
1, 7392, Note_on_c, 6, 60, 66
1, 7396, Note_off_c, 2, 52, 50
1, 7398, Note_off_c, 2, 48, 49
1, 7402, Note_off_c, 9, 36, 93
1, 7403, Note_off_c, 2, 55, 61
1, 7439, Note_on_c, 6, 64, 56
1, 7439, Note_on_c, 9, 36, 73
1, 7447, Note_off_c, 9, 51, 93
1, 7460, Note_off_c, 9, 36, 73
1, 7464, Control_c, 2, 64, 0
1, 7477, Note_off_c, 3, 67, 75
1, 7483, Note_off_c, 4, 67, 76
1, 7485, Note_on_c, 4, 65, 58
1, 7485, Note_off_c, 6, 64, 56
1, 7487, Note_on_c, 9, 38, 93
1, 7487, Note_on_c, 6, 67, 79
1, 7487, Note_on_c, 9, 36, 71
1, 7488, Note_on_c, 3, 65, 77
1, 7488, Note_on_c, 3, 74, 95
1, 7488, Note_on_c, 9, 51, 99
1, 7496, Note_off_c, 3, 76, 94
1, 7511, Note_off_c, 9, 36, 71
1, 7519, Note_off_c, 6, 60, 66
1, 7533, Note_off_c, 6, 67, 79
1, 7535, Note_on_c, 6, 64, 52
1, 7536, Note_on_c, 3, 64, 67
1, 7536, Note_on_c, 3, 72, 87
1, 7536, Note_off_c, 9, 51, 99
1, 7537, Note_off_c, 3, 65, 77
1, 7538, Note_off_c, 3, 74, 95
1, 7578, Note_on_c, 4, 64, 60
1, 7579, Note_off_c, 4, 65, 58
1, 7582, Note_off_c, 6, 55, 58
1, 7583, Note_on_c, 9, 51, 96
1, 7584, Note_on_c, 6, 60, 69
1, 7584, Note_off_c, 9, 38, 93
1, 7585, Note_on_c, 1, 28, 74
1, 7586, Note_off_c, 6, 48, 64
1, 7593, Note_off_c, 6, 64, 52
1, 7604, Note_off_c, 1, 36, 41
1, 7619, Note_off_c, 9, 51, 96
1, 7631, Note_on_c, 9, 36, 64
1, 7631, Note_on_c, 6, 55, 53
1, 7646, Note_off_c, 9, 36, 64
1, 7648, Note_off_c, 6, 55, 53
1, 7660, Note_off_c, 5, 72, 71
1, 7665, Note_off_c, 5, 76, 76
1, 7673, Note_on_c, 5, 72, 58
1, 7675, Note_off_c, 4, 64, 60
1, 7676, Note_on_c, 5, 69, 71
1, 7678, Note_on_c, 2, 53, 52
1, 7678, Note_on_c, 4, 65, 72
1, 7679, Note_on_c, 2, 60, 53
1, 7679, Note_on_c, 2, 57, 34
1, 7679, Note_on_c, 9, 36, 87
1, 7680, Note_on_c, 9, 49, 76
1, 7680, Note_on_c, 6, 53, 69
1, 7681, Note_off_c, 3, 64, 67
1, 7681, Note_on_c, 1, 29, 66
1, 7683, Note_off_c, 6, 60, 69
1, 7684, Control_c, 2, 64, 127
1, 7687, Note_off_c, 1, 28, 74
1, 7690, Note_off_c, 3, 72, 87
1, 7717, Note_off_c, 9, 49, 76
1, 7729, Note_on_c, 6, 60, 50
1, 7762, Note_off_c, 2, 60, 53
1, 7764, Note_off_c, 2, 57, 34
1, 7773, Note_off_c, 2, 53, 52
1, 7775, Note_on_c, 3, 69, 68
1, 7775, Note_on_c, 9, 51, 79
1, 7776, Note_on_c, 6, 65, 50
1, 7786, Note_off_c, 9, 36, 87
1, 7817, Note_off_c, 9, 51, 79
1, 7822, Note_on_c, 3, 72, 78
1, 7823, Note_on_c, 9, 36, 82
1, 7824, Note_on_c, 6, 69, 61
1, 7826, Note_off_c, 3, 69, 68
1, 7849, Note_off_c, 9, 36, 82
1, 7871, Note_on_c, 2, 53, 40
1, 7871, Note_on_c, 2, 57, 46
1, 7871, Note_on_c, 2, 60, 59
1, 7872, Note_on_c, 9, 51, 99
1, 7872, Note_on_c, 9, 38, 99
1, 7872, Note_on_c, 6, 72, 84
1, 7874, Note_off_c, 6, 69, 61
1, 7889, Control_c, 2, 64, 0
1, 7916, Note_off_c, 6, 65, 50
1, 7917, Note_off_c, 6, 72, 84
1, 7920, Note_off_c, 9, 51, 99
1, 7921, Note_on_c, 6, 69, 56
1, 7922, Control_c, 2, 64, 127
1, 7948, Note_off_c, 9, 38, 99
1, 7954, Note_off_c, 2, 60, 59
1, 7955, Note_off_c, 2, 57, 46
1, 7963, Note_off_c, 6, 60, 50
1, 7965, Note_off_c, 2, 53, 40
1, 7967, Note_on_c, 3, 74, 85
1, 7968, Note_on_c, 9, 51, 99
1, 7969, Note_on_c, 6, 65, 76
1, 7970, Note_off_c, 3, 72, 78
1, 7974, Note_off_c, 6, 53, 69
1, 8015, Note_on_c, 6, 60, 53
1, 8015, Note_on_c, 9, 36, 71
1, 8018, Note_off_c, 9, 51, 99
1, 8030, Note_off_c, 9, 36, 71
1, 8038, Note_off_c, 1, 29, 66
1, 8040, Note_off_c, 6, 69, 56
1, 8058, Note_off_c, 6, 65, 76
1, 8060, Note_on_c, 2, 57, 40
1, 8060, Note_on_c, 2, 60, 53
1, 8061, Note_on_c, 2, 53, 48
1, 8062, Note_on_c, 1, 29, 68
1, 8062, Note_on_c, 6, 53, 62
1, 8063, Note_off_c, 6, 60, 53
1, 8063, Note_on_c, 3, 72, 73
1, 8064, Note_on_c, 9, 36, 93
1, 8064, Note_on_c, 9, 51, 99
1, 8067, Control_c, 2, 64, 0
1, 8071, Note_off_c, 3, 74, 85
1, 8106, Control_c, 2, 64, 127
1, 8110, Note_on_c, 3, 69, 62
1, 8110, Note_on_c, 6, 60, 58
1, 8111, Note_off_c, 3, 72, 73
1, 8115, Note_off_c, 9, 51, 99
1, 8143, Note_off_c, 9, 36, 93
1, 8159, Note_on_c, 6, 65, 63
1, 8160, Note_on_c, 9, 51, 105
1, 8161, Note_off_c, 2, 57, 40
1, 8162, Note_off_c, 2, 60, 53
1, 8171, Note_off_c, 2, 53, 48
1, 8206, Note_on_c, 6, 69, 52
1, 8207, Note_on_c, 9, 36, 69
1, 8218, Note_off_c, 9, 51, 105
1, 8222, Note_off_c, 5, 72, 58
1, 8233, Note_off_c, 9, 36, 69
1, 8234, Note_off_c, 3, 69, 62
1, 8244, Note_off_c, 4, 65, 72
1, 8249, Note_on_c, 4, 64, 78
1, 8251, Note_off_c, 6, 69, 52
1, 8253, Note_on_c, 2, 57, 38
1, 8254, Note_on_c, 2, 60, 62
1, 8254, Note_on_c, 6, 72, 73
1, 8254, Note_on_c, 2, 53, 40
1, 8255, Note_on_c, 9, 38, 96
1, 8256, Note_on_c, 9, 51, 96
1, 8256, Control_c, 2, 64, 0
1, 8258, Note_on_c, 5, 77, 67
1, 8271, Note_off_c, 6, 65, 63
1, 8298, Note_off_c, 6, 72, 73
1, 8299, Control_c, 2, 64, 127
1, 8302, Note_on_c, 6, 69, 62
1, 8303, Note_off_c, 9, 51, 96
1, 8304, Note_on_c, 3, 69, 71
1, 8327, Note_off_c, 2, 53, 40
1, 8331, Note_off_c, 2, 60, 62
1, 8333, Note_off_c, 6, 69, 62
1, 8334, Note_off_c, 2, 57, 38
1, 8338, Note_off_c, 6, 60, 58
1, 8345, Note_on_c, 4, 62, 74
1, 8345, Note_off_c, 9, 38, 96
1, 8350, Note_off_c, 4, 64, 78
1, 8350, Note_on_c, 6, 65, 67
1, 8351, Note_on_c, 9, 51, 99
1, 8352, Note_on_c, 3, 72, 79
1, 8354, Note_on_c, 1, 38, 47
1, 8357, Note_off_c, 3, 69, 71
1, 8363, Note_off_c, 6, 53, 62
1, 8370, Note_off_c, 1, 29, 68
1, 8396, Note_off_c, 6, 65, 67
1, 8398, Note_on_c, 6, 60, 42
1, 8408, Note_off_c, 9, 51, 99
1, 8414, Note_off_c, 6, 60, 42
1, 8430, Note_on_c, 5, 72, 42
1, 8432, Note_off_c, 5, 69, 71
1, 8433, Note_on_c, 5, 76, 58
1, 8435, Note_off_c, 5, 77, 67
1, 8436, Note_off_c, 4, 62, 74
1, 8440, Note_on_c, 4, 64, 70
1, 8444, Note_on_c, 2, 55, 61
1, 8447, Note_on_c, 1, 36, 70
1, 8447, Note_on_c, 6, 48, 69
1, 8448, Note_on_c, 2, 48, 51
1, 8448, Note_on_c, 2, 52, 53
1, 8448, Note_on_c, 9, 51, 93
1, 8448, Note_on_c, 9, 36, 99
1, 8451, Control_c, 2, 64, 0
1, 8454, Note_off_c, 1, 38, 47
1, 8468, Note_off_c, 3, 72, 79
1, 8491, Control_c, 2, 64, 127
1, 8495, Note_on_c, 6, 55, 62
1, 8506, Note_off_c, 9, 51, 93
1, 8519, Note_off_c, 2, 52, 53
1, 8523, Note_off_c, 2, 55, 61
1, 8542, Note_on_c, 3, 76, 86
1, 8542, Note_on_c, 3, 67, 70
1, 8544, Note_on_c, 6, 60, 67
1, 8544, Note_on_c, 9, 51, 69
1, 8551, Note_off_c, 2, 48, 51
1, 8555, Note_off_c, 9, 51, 69
1, 8565, Note_off_c, 9, 36, 99
1, 8591, Note_on_c, 9, 51, 76
1, 8591, Note_on_c, 6, 64, 62
1, 8596, Note_off_c, 6, 48, 69
1, 8599, Note_off_c, 6, 60, 67
1, 8599, Note_off_c, 9, 51, 76
1, 8600, Note_off_c, 6, 55, 62
1, 8635, Control_c, 2, 64, 0
1, 8636, Note_off_c, 3, 76, 86
1, 8636, Note_off_c, 3, 67, 70
1, 8637, Note_on_c, 3, 72, 90
1, 8639, Note_on_c, 3, 64, 63
1, 8639, Note_on_c, 6, 67, 64
1, 8640, Note_on_c, 2, 55, 64
1, 8640, Note_on_c, 9, 51, 105
1, 8640, Note_on_c, 2, 48, 50
1, 8640, Note_on_c, 9, 38, 102
1, 8641, Note_on_c, 2, 52, 51
1, 8643, Note_off_c, 6, 64, 62
1, 8677, Control_c, 2, 64, 127
1, 8681, Note_off_c, 3, 64, 63
1, 8683, Note_off_c, 6, 67, 64
1, 8685, Note_off_c, 3, 72, 90
1, 8686, Note_on_c, 3, 65, 72
1, 8686, Note_on_c, 3, 74, 87
1, 8687, Note_on_c, 6, 64, 56
1, 8694, Note_off_c, 9, 51, 105
1, 8729, Note_off_c, 2, 55, 64
1, 8732, Note_off_c, 9, 38, 102
1, 8733, Note_off_c, 2, 52, 51
1, 8735, Note_on_c, 6, 60, 64
1, 8736, Note_on_c, 9, 51, 87
1, 8742, Note_off_c, 6, 64, 56
1, 8749, Note_off_c, 2, 48, 50
1, 8774, Note_off_c, 3, 74, 87
1, 8777, Note_off_c, 3, 65, 72
1, 8783, Note_off_c, 9, 51, 87
1, 8783, Note_on_c, 9, 36, 69
1, 8783, Note_on_c, 6, 55, 48
1, 8784, Note_on_c, 3, 64, 70
1, 8784, Note_on_c, 3, 72, 83
1, 8799, Note_off_c, 9, 36, 69
1, 8802, Note_off_c, 1, 36, 70
1, 8811, Control_c, 2, 64, 0
1, 8828, Note_on_c, 1, 36, 72
1, 8830, Note_off_c, 6, 60, 64
1, 8830, Note_off_c, 6, 55, 48
1, 8830, Note_on_c, 6, 48, 61
1, 8831, Note_on_c, 9, 51, 105
1, 8831, Note_on_c, 9, 36, 96
1, 8832, Note_on_c, 2, 48, 53
1, 8832, Note_on_c, 2, 55, 57
1, 8832, Note_on_c, 2, 52, 46
1, 8845, Control_c, 2, 64, 127
1, 8879, Note_on_c, 6, 55, 56
1, 8881, Note_off_c, 2, 48, 53
1, 8888, Note_off_c, 9, 51, 105
1, 8901, Note_off_c, 2, 55, 57
1, 8905, Control_c, 2, 64, 0
1, 8914, Note_off_c, 2, 52, 46
1, 8920, Note_on_c, 4, 67, 70
1, 8924, Note_off_c, 4, 64, 70
1, 8925, Note_on_c, 3, 67, 76
1, 8925, Note_on_c, 3, 76, 85
1, 8927, Note_on_c, 9, 51, 93
1, 8927, Note_on_c, 6, 60, 73
1, 8928, Note_on_c, 2, 48, 69
1, 8932, Note_off_c, 9, 36, 96
1, 8933, Note_off_c, 3, 72, 83
1, 8935, Note_off_c, 3, 64, 70
1, 8953, Control_c, 2, 64, 127
1, 8974, Note_on_c, 6, 64, 58
1, 8975, Note_on_c, 9, 36, 63
1, 8992, Note_off_c, 9, 51, 93
1, 9006, Note_off_c, 5, 76, 58
1, 9009, Note_off_c, 9, 36, 63
1, 9011, Note_on_c, 5, 77, 73
1, 9016, Note_on_c, 4, 65, 74
1, 9020, Note_off_c, 6, 64, 58
1, 9021, Note_on_c, 3, 65, 80
1, 9021, Note_on_c, 3, 74, 90
1, 9023, Note_on_c, 9, 38, 102
1, 9023, Note_on_c, 2, 50, 67
1, 9023, Note_on_c, 9, 51, 99
1, 9024, Note_on_c, 6, 67, 76
1, 9028, Note_off_c, 3, 67, 76
1, 9028, Note_off_c, 4, 67, 70
1, 9029, Note_off_c, 3, 76, 85
1, 9046, Note_off_c, 2, 48, 69
1, 9047, Note_off_c, 6, 60, 73
1, 9061, Note_off_c, 3, 74, 90
1, 9062, Note_off_c, 6, 67, 76
1, 9070, Note_off_c, 3, 65, 80
1, 9071, Note_on_c, 6, 64, 58
1, 9071, Note_off_c, 9, 51, 99
1, 9072, Note_on_c, 3, 64, 60
1, 9072, Note_on_c, 3, 72, 75
1, 9112, Note_on_c, 4, 64, 72
1, 9115, Note_off_c, 6, 55, 56
1, 9116, Note_off_c, 9, 38, 102
1, 9116, Note_on_c, 5, 79, 69
1, 9117, Note_off_c, 6, 48, 61
1, 9117, Note_on_c, 2, 52, 64
1, 9117, Note_on_c, 1, 28, 85
1, 9117, Note_off_c, 5, 77, 73
1, 9118, Note_off_c, 4, 65, 74
1, 9118, Note_on_c, 9, 51, 102
1, 9119, Note_on_c, 6, 60, 69
1, 9121, Note_off_c, 2, 50, 67
1, 9124, Note_off_c, 6, 64, 58
1, 9126, Note_off_c, 1, 36, 72
1, 9166, Note_on_c, 6, 55, 53
1, 9166, Note_on_c, 9, 36, 63
1, 9167, Note_off_c, 2, 52, 64
1, 9177, Note_off_c, 9, 51, 102
1, 9181, Note_off_c, 6, 55, 53
1, 9182, Note_off_c, 9, 36, 63
1, 9197, Control_c, 2, 64, 0
1, 9205, Note_off_c, 5, 72, 42
1, 9206, Note_off_c, 5, 79, 69
1, 9209, Note_on_c, 4, 65, 58
1, 9210, Note_on_c, 5, 81, 63
1, 9211, Note_on_c, 5, 77, 50
1, 9211, Note_off_c, 3, 72, 75
1, 9211, Note_off_c, 3, 64, 60
1, 9212, Note_off_c, 4, 64, 72
1, 9213, Note_on_c, 1, 29, 68
1, 9215, Note_on_c, 9, 51, 102
1, 9215, Note_on_c, 9, 36, 93
1, 9215, Note_on_c, 6, 53, 73
1, 9216, Note_on_c, 2, 53, 57
1, 9216, Note_on_c, 2, 57, 53
1, 9216, Note_on_c, 2, 60, 64
1, 9217, Note_off_c, 1, 28, 85
1, 9219, Note_on_c, 3, 72, 91
1, 9222, Note_off_c, 6, 60, 69
1, 9243, Control_c, 2, 64, 127
1, 9263, Note_on_c, 6, 60, 53
1, 9271, Note_off_c, 9, 51, 102
1, 9296, Note_off_c, 2, 57, 53
1, 9302, Note_off_c, 2, 60, 64
1, 9308, Note_off_c, 3, 72, 91
1, 9311, Note_on_c, 3, 74, 89
1, 9311, Note_on_c, 6, 65, 63
1, 9312, Note_on_c, 9, 51, 102
1, 9316, Note_off_c, 9, 36, 93
1, 9320, Note_off_c, 2, 53, 57
1, 9358, Note_on_c, 3, 69, 77
1, 9359, Note_on_c, 3, 65, 66
1, 9359, Note_on_c, 9, 36, 82
1, 9359, Note_on_c, 6, 69, 62
1, 9370, Note_off_c, 9, 51, 102
1, 9371, Note_off_c, 3, 74, 89
1, 9386, Note_off_c, 9, 36, 82
1, 9402, Note_off_c, 6, 69, 62
1, 9403, Note_on_c, 2, 53, 50
1, 9403, Note_on_c, 2, 57, 54
1, 9404, Note_on_c, 2, 60, 61
1, 9404, Control_c, 2, 64, 0
1, 9407, Note_on_c, 6, 72, 73
1, 9408, Note_on_c, 9, 38, 102
1, 9408, Note_on_c, 9, 51, 99
1, 9422, Note_off_c, 6, 65, 63
1, 9437, Note_off_c, 3, 65, 66
1, 9439, Control_c, 2, 64, 127
1, 9444, Note_off_c, 3, 69, 77
1, 9452, Note_off_c, 9, 51, 99
1, 9452, Note_off_c, 6, 72, 73
1, 9456, Note_on_c, 6, 69, 52
1, 9457, Note_on_c, 3, 65, 78
1, 9457, Note_on_c, 3, 69, 66
1, 9485, Note_off_c, 6, 60, 53
1, 9494, Note_off_c, 9, 38, 102
1, 9497, Note_off_c, 3, 65, 78
1, 9502, Note_off_c, 3, 69, 66
1, 9502, Note_on_c, 3, 67, 72
1, 9503, Note_on_c, 3, 64, 74
1, 9503, Note_on_c, 9, 51, 102
1, 9504, Note_on_c, 6, 65, 69
1, 9505, Note_off_c, 6, 53, 73
1, 9519, Note_off_c, 6, 69, 52
1, 9520, Note_off_c, 2, 60, 61
1, 9524, Note_off_c, 2, 57, 54
1, 9530, Note_off_c, 2, 53, 50
1, 9547, Note_off_c, 3, 64, 74
1, 9550, Note_on_c, 3, 65, 73
1, 9550, Note_on_c, 3, 69, 78
1, 9550, Note_off_c, 9, 51, 102
1, 9551, Note_on_c, 9, 36, 69
1, 9552, Note_off_c, 3, 67, 72
1, 9552, Note_on_c, 6, 60, 51
1, 9565, Note_off_c, 9, 36, 69
1, 9571, Note_off_c, 1, 29, 68
1, 9594, Note_off_c, 6, 65, 69
1, 9596, Note_on_c, 1, 29, 70
1, 9599, Note_on_c, 6, 53, 64
1, 9599, Note_on_c, 9, 51, 99
1, 9599, Note_off_c, 6, 60, 51
1, 9600, Note_on_c, 2, 53, 53
1, 9600, Note_on_c, 2, 57, 55
1, 9600, Note_on_c, 2, 60, 55
1, 9600, Note_on_c, 9, 36, 93
1, 9619, Control_c, 2, 64, 0
1, 9647, Note_on_c, 6, 60, 58
1, 9651, Note_off_c, 9, 51, 99
1, 9665, Control_c, 2, 64, 127
1, 9672, Note_off_c, 2, 57, 55
1, 9690, Note_off_c, 2, 60, 55
1, 9695, Note_off_c, 2, 53, 53
1, 9695, Note_on_c, 6, 65, 61
1, 9696, Note_on_c, 9, 51, 99
1, 9702, Note_off_c, 9, 36, 93
1, 9742, Note_on_c, 6, 69, 56
1, 9744, Note_on_c, 9, 36, 79
1, 9749, Note_off_c, 3, 65, 73
1, 9752, Note_off_c, 3, 69, 78
1, 9752, Note_off_c, 9, 51, 99
1, 9764, Note_off_c, 9, 36, 79
1, 9787, Note_off_c, 4, 65, 58
1, 9787, Note_off_c, 6, 69, 56
1, 9789, Note_on_c, 4, 64, 66
1, 9791, Note_on_c, 6, 72, 63
1, 9791, Note_on_c, 2, 60, 63
1, 9792, Note_on_c, 2, 53, 51
1, 9792, Note_on_c, 2, 57, 54
1, 9792, Note_on_c, 9, 38, 105
1, 9793, Note_on_c, 9, 51, 99
1, 9805, Note_off_c, 6, 65, 61
1, 9810, Control_c, 2, 64, 0
1, 9834, Note_off_c, 6, 72, 63
1, 9839, Note_off_c, 9, 51, 99
1, 9839, Note_on_c, 6, 69, 51
1, 9840, Note_on_c, 3, 69, 72
1, 9842, Control_c, 2, 64, 127
1, 9872, Note_off_c, 2, 53, 51
1, 9873, Note_off_c, 2, 57, 54
1, 9886, Note_on_c, 4, 62, 68
1, 9887, Note_off_c, 4, 64, 66
1, 9888, Note_on_c, 3, 72, 85
1, 9888, Note_on_c, 6, 65, 63
1, 9889, Note_on_c, 1, 38, 53
1, 9889, Note_on_c, 9, 51, 99
1, 9889, Note_off_c, 6, 69, 51
1, 9892, Note_off_c, 9, 38, 105
1, 9894, Note_off_c, 3, 69, 72
1, 9899, Note_off_c, 6, 60, 58
1, 9903, Note_off_c, 1, 29, 70
1, 9911, Note_off_c, 6, 53, 64
1, 9928, Note_off_c, 2, 60, 63
1, 9935, Note_on_c, 3, 67, 66
1, 9935, Note_on_c, 3, 76, 81
1, 9936, Note_off_c, 3, 72, 85
1, 9936, Note_on_c, 6, 60, 56
1, 9940, Note_off_c, 9, 51, 99
1, 9940, Note_off_c, 6, 65, 63
1, 9965, Note_off_c, 6, 60, 56
1, 9978, Note_off_c, 5, 81, 63
1, 9978, Note_on_c, 5, 79, 58
1, 9981, Note_on_c, 4, 64, 60
1, 9982, Note_on_c, 5, 76, 67
1, 9982, Note_on_c, 2, 55, 59
1, 9983, Note_on_c, 1, 36, 70
1, 9983, Note_off_c, 4, 62, 68
1, 9984, Note_on_c, 2, 48, 44
1, 9984, Note_on_c, 9, 51, 102
1, 9985, Note_on_c, 2, 52, 40
1, 9985, Note_on_c, 9, 36, 84
1, 9986, Note_on_c, 6, 48, 67
1, 9991, Note_off_c, 1, 38, 53
1, 9991, Note_off_c, 5, 77, 50
1, 10001, Control_c, 2, 64, 0
1, 10029, Note_off_c, 9, 51, 102
1, 10031, Note_on_c, 6, 55, 45
1, 10044, Control_c, 2, 64, 127
1, 10079, Note_on_c, 6, 60, 60
1, 10080, Note_off_c, 3, 76, 81
1, 10080, Note_off_c, 3, 67, 66
1, 10080, Note_on_c, 9, 51, 99
1, 10088, Note_off_c, 2, 55, 59
1, 10103, Note_off_c, 2, 52, 40
1, 10103, Note_off_c, 9, 36, 84
1, 10105, Note_off_c, 2, 48, 44
1, 10128, Note_on_c, 6, 64, 53
1, 10129, Note_off_c, 9, 51, 99
1, 10170, Note_off_c, 6, 64, 53
1, 10173, Note_on_c, 2, 55, 65
1, 10175, Note_on_c, 2, 52, 36
1, 10175, Note_on_c, 3, 64, 68
1, 10176, Note_on_c, 6, 67, 73
1, 10176, Note_on_c, 3, 72, 83
1, 10176, Note_on_c, 2, 48, 40
1, 10177, Note_on_c, 9, 38, 96
1, 10177, Note_on_c, 9, 51, 90
1, 10187, Control_c, 2, 64, 0
1, 10189, Note_off_c, 6, 60, 60
1, 10215, Note_off_c, 6, 67, 73
1, 10217, Note_off_c, 3, 64, 68
1, 10219, Note_off_c, 3, 72, 83
1, 10220, Control_c, 2, 64, 127
1, 10222, Note_off_c, 9, 51, 90
1, 10223, Note_on_c, 3, 65, 63
1, 10223, Note_on_c, 3, 74, 87
1, 10223, Note_on_c, 6, 64, 56
1, 10267, Note_off_c, 6, 48, 67
1, 10269, Note_off_c, 9, 38, 96
1, 10269, Note_off_c, 6, 55, 45
1, 10272, Note_on_c, 6, 60, 67
1, 10273, Note_on_c, 9, 51, 93
1, 10281, Note_off_c, 6, 64, 56
1, 10286, Note_off_c, 2, 48, 40
1, 10291, Note_off_c, 2, 55, 65
1, 10298, Note_off_c, 2, 52, 36
1, 10310, Note_off_c, 3, 65, 63
1, 10311, Note_off_c, 3, 74, 87
1, 10317, Note_on_c, 3, 64, 71
1, 10317, Note_on_c, 6, 55, 47
1, 10318, Note_on_c, 3, 72, 82
1, 10320, Note_off_c, 9, 51, 93
1, 10326, Note_off_c, 1, 36, 70
1, 10362, Note_on_c, 1, 36, 72
1, 10364, Note_on_c, 2, 52, 37
1, 10365, Note_on_c, 2, 55, 61
1, 10366, Note_on_c, 2, 48, 54
1, 10366, Note_on_c, 6, 48, 63
1, 10368, Note_on_c, 9, 36, 93
1, 10368, Note_off_c, 6, 55, 47
1, 10368, Note_off_c, 6, 60, 67
1, 10369, Note_on_c, 9, 51, 93
1, 10372, Control_c, 2, 64, 0
1, 10406, Control_c, 2, 64, 127
1, 10412, Note_off_c, 9, 51, 93
1, 10415, Note_on_c, 6, 55, 61
1, 10447, Note_off_c, 2, 48, 54
1, 10449, Note_off_c, 2, 52, 37
1, 10463, Note_on_c, 9, 51, 102
1, 10463, Note_on_c, 3, 67, 66
1, 10463, Note_on_c, 3, 76, 87
1, 10464, Note_on_c, 6, 60, 69
1, 10466, Note_off_c, 3, 72, 82
1, 10468, Note_off_c, 9, 36, 93
1, 10471, Note_off_c, 3, 64, 71
1, 10486, Note_off_c, 2, 55, 61
1, 10511, Note_on_c, 6, 64, 56
1, 10511, Note_on_c, 9, 36, 82
1, 10512, Note_off_c, 3, 76, 87
1, 10512, Note_off_c, 3, 67, 66
1, 10512, Note_on_c, 3, 65, 72
1, 10512, Note_on_c, 3, 74, 94
1, 10514, Note_off_c, 9, 51, 102
1, 10543, Note_off_c, 9, 36, 82
1, 10554, Note_on_c, 4, 62, 64
1, 10555, Note_off_c, 4, 64, 60
1, 10556, Note_off_c, 6, 64, 56
1, 10557, Note_on_c, 2, 47, 69
1, 10557, Note_on_c, 2, 59, 87
1, 10558, Note_on_c, 1, 35, 72
1, 10559, Note_on_c, 9, 38, 99
1, 10559, Note_on_c, 9, 51, 108
1, 10560, Note_off_c, 1, 36, 72
1, 10560, Note_on_c, 5, 77, 82
1, 10561, Note_on_c, 6, 67, 82
1, 10562, Note_on_c, 5, 74, 69
1, 10564, Note_off_c, 5, 76, 67
1, 10568, Note_off_c, 5, 79, 58
1, 10572, Control_c, 2, 64, 0
1, 10590, Note_off_c, 9, 38, 99
1, 10593, Note_off_c, 6, 60, 69
1, 10596, Note_off_c, 3, 74, 94
1, 10598, Note_off_c, 3, 65, 72
1, 10599, Note_off_c, 9, 51, 108
1, 10602, Note_off_c, 6, 67, 82
1, 10606, Control_c, 2, 64, 127
1, 10607, Note_on_c, 9, 36, 63
1, 10608, Note_on_c, 3, 64, 73
1, 10608, Note_on_c, 3, 72, 85
1, 10608, Note_on_c, 6, 64, 58
1, 10629, Note_off_c, 9, 36, 63
1, 10651, Note_off_c, 3, 64, 73
1, 10652, Note_off_c, 6, 55, 61
1, 10654, Note_off_c, 3, 72, 85
1, 10656, Note_on_c, 3, 65, 70
1, 10656, Note_on_c, 3, 74, 97
1, 10656, Note_on_c, 9, 51, 108
1, 10656, Note_on_c, 6, 62, 73
1, 10656, Note_on_c, 9, 38, 96
1, 10662, Note_off_c, 6, 64, 58
1, 10670, Note_off_c, 6, 48, 63
1, 10682, Note_off_c, 9, 51, 108
1, 10685, Note_off_c, 9, 38, 96
1, 10704, Note_on_c, 6, 59, 50
1, 10704, Note_on_c, 9, 36, 73
1, 10707, Note_off_c, 6, 62, 73
1, 10709, Note_off_c, 3, 65, 70
1, 10718, Note_off_c, 3, 74, 97
1, 10722, Note_off_c, 9, 36, 73
1, 10730, Note_off_c, 6, 59, 50
1, 10734, Note_off_c, 2, 47, 69
1, 10736, Note_off_c, 5, 74, 69
1, 10737, Note_off_c, 5, 77, 82
1, 10746, Note_on_c, 4, 64, 61
1, 10747, Note_off_c, 4, 62, 64
1, 10748, Note_on_c, 5, 72, 67
1, 10750, Note_on_c, 1, 33, 60
1, 10750, Note_on_c, 5, 76, 69
1, 10751, Note_on_c, 2, 52, 66
1, 10752, Note_on_c, 3, 64, 80
1, 10752, Note_off_c, 1, 35, 72
1, 10752, Note_on_c, 9, 36, 93
1, 10752, Note_on_c, 3, 72, 98
1, 10752, Note_on_c, 9, 49, 105
1, 10752, Note_on_c, 6, 45, 82
1, 10753, Note_on_c, 2, 48, 56
1, 10754, Note_on_c, 2, 45, 48
1, 10770, Note_off_c, 2, 59, 87
1, 10777, Control_c, 2, 64, 0
1, 10795, Note_off_c, 9, 49, 105
1, 10796, Note_off_c, 3, 64, 80
1, 10797, Note_on_c, 3, 69, 87
1, 10797, Note_on_c, 3, 64, 75
1, 10801, Note_on_c, 6, 52, 60
1, 10820, Note_off_c, 3, 72, 98
1, 10829, Control_c, 2, 64, 127
1, 10847, Note_off_c, 9, 36, 93
1, 10848, Note_on_c, 9, 51, 76
1, 10849, Note_on_c, 6, 57, 67
1, 10855, Note_off_c, 2, 48, 56
1, 10872, Note_off_c, 2, 45, 48
1, 10876, Note_off_c, 2, 52, 66
1, 10877, Note_off_c, 9, 51, 76
1, 10895, Note_on_c, 9, 36, 69
1, 10896, Note_on_c, 6, 60, 62
1, 10915, Note_off_c, 9, 36, 69
1, 10940, Note_off_c, 6, 60, 62
1, 10943, Note_on_c, 2, 52, 67
1, 10943, Note_on_c, 9, 38, 105
1, 10943, Note_on_c, 9, 51, 96
1, 10944, Note_on_c, 2, 45, 45
1, 10944, Note_on_c, 2, 48, 49
1, 10944, Note_on_c, 6, 64, 87
1, 10965, Control_c, 2, 64, 0
1, 10982, Note_off_c, 6, 57, 67
1, 10984, Note_off_c, 6, 64, 87
1, 10992, Note_on_c, 6, 60, 67
1, 10993, Note_off_c, 9, 51, 96
1, 11002, Control_c, 2, 64, 127
1, 11027, Note_off_c, 6, 52, 60
1, 11036, Note_off_c, 6, 45, 82
1, 11040, Note_on_c, 6, 57, 73
1, 11041, Note_on_c, 9, 51, 96
1, 11050, Note_off_c, 9, 38, 105
1, 11055, Note_off_c, 6, 60, 67
1, 11060, Note_off_c, 3, 69, 87
1, 11075, Note_off_c, 2, 48, 49
1, 11076, Note_off_c, 2, 52, 67
1, 11086, Note_off_c, 2, 45, 45
1, 11087, Note_on_c, 3, 69, 86
1, 11087, Note_on_c, 6, 52, 56
1, 11088, Note_on_c, 9, 36, 45
1, 11090, Note_off_c, 3, 64, 75
1, 11091, Note_off_c, 9, 51, 96
1, 11103, Note_off_c, 9, 36, 45
1, 11115, Note_off_c, 6, 57, 73
1, 11122, Note_off_c, 1, 33, 60
1, 11135, Note_on_c, 2, 48, 43
1, 11135, Note_on_c, 2, 52, 62
1, 11135, Note_on_c, 6, 45, 69
1, 11136, Note_off_c, 3, 69, 86
1, 11136, Note_on_c, 3, 76, 90
1, 11136, Note_on_c, 1, 33, 76
1, 11136, Note_off_c, 6, 52, 56
1, 11137, Note_on_c, 2, 45, 42
1, 11137, Note_on_c, 9, 36, 93
1, 11137, Note_on_c, 9, 51, 99
1, 11150, Control_c, 2, 64, 0
1, 11168, Note_off_c, 3, 76, 90
1, 11183, Note_on_c, 3, 76, 89
1, 11184, Control_c, 2, 64, 127
1, 11184, Note_on_c, 6, 52, 67
1, 11189, Note_off_c, 9, 51, 99
1, 11232, Note_on_c, 6, 57, 64
1, 11233, Note_on_c, 9, 51, 93
1, 11241, Note_off_c, 9, 36, 93
1, 11278, Note_on_c, 3, 74, 95
1, 11279, Note_on_c, 9, 36, 73
1, 11280, Note_on_c, 6, 60, 53
1, 11283, Note_off_c, 9, 51, 93
1, 11288, Note_off_c, 3, 76, 89
1, 11298, Note_off_c, 9, 36, 73
1, 11304, Note_off_c, 6, 57, 64
1, 11313, Note_off_c, 2, 45, 42
1, 11316, Note_off_c, 6, 60, 53
1, 11316, Note_off_c, 6, 52, 67
1, 11316, Note_off_c, 6, 45, 69
1, 11321, Note_off_c, 1, 33, 76
1, 11324, Note_off_c, 2, 48, 43
1, 11324, Note_off_c, 5, 76, 69
1, 11325, Note_on_c, 1, 31, 72
1, 11327, Note_on_c, 9, 38, 99
1, 11327, Note_on_c, 9, 51, 102
1, 11328, Note_on_c, 6, 43, 69
1, 11328, Note_on_c, 2, 55, 76
1, 11329, Note_on_c, 2, 43, 56
1, 11331, Note_on_c, 5, 79, 66
1, 11332, Note_off_c, 5, 72, 67
1, 11332, Note_on_c, 5, 74, 67
1, 11343, Control_c, 2, 64, 0
1, 11350, Note_off_c, 2, 52, 62
1, 11372, Note_off_c, 9, 51, 102
1, 11376, Note_on_c, 3, 72, 89
1, 11377, Note_on_c, 6, 50, 67
1, 11380, Control_c, 2, 64, 127
1, 11383, Note_off_c, 3, 74, 95
1, 11415, Note_on_c, 4, 67, 64
1, 11423, Note_off_c, 3, 72, 89
1, 11424, Note_on_c, 3, 74, 95
1, 11424, Note_on_c, 9, 51, 96
1, 11424, Note_off_c, 9, 38, 99
1, 11425, Note_off_c, 4, 64, 61
1, 11425, Note_on_c, 6, 55, 64
1, 11427, Note_off_c, 2, 43, 56
1, 11472, Note_on_c, 6, 59, 53
1, 11473, Note_off_c, 9, 51, 96
1, 11496, Note_off_c, 6, 55, 64
1, 11507, Note_off_c, 6, 59, 53
1, 11508, Note_off_c, 6, 50, 67
1, 11508, Note_off_c, 6, 43, 69
1, 11511, Note_off_c, 5, 74, 67
1, 11513, Note_on_c, 4, 65, 66
1, 11514, Note_on_c, 5, 72, 63
1, 11515, Note_off_c, 4, 67, 64
1, 11516, Note_on_c, 1, 29, 78
1, 11517, Note_on_c, 3, 72, 92
1, 11517, Note_on_c, 3, 69, 73
1, 11518, Note_off_c, 5, 79, 66
1, 11518, Note_on_c, 9, 36, 102
1, 11519, Note_on_c, 2, 45, 34
1, 11519, Note_on_c, 2, 48, 48
1, 11519, Note_on_c, 9, 49, 105
1, 11519, Note_on_c, 6, 41, 76
1, 11520, Note_on_c, 5, 81, 53
1, 11521, Note_on_c, 2, 41, 50
1, 11523, Note_off_c, 1, 31, 72
1, 11529, Control_c, 2, 64, 0
1, 11529, Note_off_c, 3, 74, 95
1, 11563, Note_off_c, 9, 49, 105
1, 11566, Note_off_c, 2, 55, 76
1, 11568, Note_on_c, 6, 48, 58
1, 11581, Note_off_c, 3, 69, 73
1, 11597, Control_c, 2, 64, 127
1, 11614, Note_on_c, 9, 51, 87
1, 11615, Note_on_c, 6, 53, 62
1, 11616, Note_on_c, 3, 65, 67
1, 11616, Note_on_c, 3, 69, 78
1, 11620, Note_off_c, 3, 72, 92
1, 11630, Note_off_c, 2, 41, 50
1, 11635, Note_off_c, 9, 36, 102
1, 11642, Note_off_c, 2, 45, 34
1, 11646, Note_off_c, 2, 48, 48
1, 11649, Note_off_c, 9, 51, 87
1, 11663, Note_on_c, 6, 57, 56
1, 11700, Note_off_c, 6, 57, 56
1, 11710, Note_on_c, 2, 48, 65
1, 11711, Note_on_c, 9, 38, 102
1, 11712, Note_on_c, 2, 41, 38
1, 11712, Note_on_c, 2, 45, 32
1, 11712, Note_on_c, 9, 51, 99
1, 11712, Note_on_c, 6, 60, 87
1, 11728, Control_c, 2, 64, 0
1, 11751, Note_off_c, 6, 60, 87
1, 11760, Note_on_c, 6, 57, 60
1, 11762, Note_off_c, 9, 51, 99
1, 11764, Control_c, 2, 64, 127
1, 11769, Note_off_c, 6, 53, 62
1, 11803, Note_off_c, 4, 65, 66
1, 11805, Note_off_c, 9, 38, 102
1, 11805, Note_on_c, 4, 67, 73
1, 11807, Note_off_c, 3, 69, 78
1, 11808, Note_off_c, 2, 45, 32
1, 11808, Note_off_c, 2, 41, 38
1, 11808, Note_off_c, 2, 48, 65
1, 11808, Note_on_c, 9, 51, 102
1, 11808, Note_on_c, 6, 53, 76
1, 11810, Note_off_c, 3, 65, 67
1, 11815, Note_off_c, 6, 57, 60
1, 11819, Note_off_c, 6, 48, 58
1, 11846, Note_off_c, 9, 51, 102
1, 11852, Note_off_c, 6, 41, 76
1, 11855, Note_on_c, 6, 48, 64
1, 11855, Note_on_c, 9, 36, 76
1, 11870, Note_off_c, 9, 36, 76
1, 11883, Note_off_c, 1, 29, 78
1, 11892, Note_off_c, 5, 81, 53
1, 11896, Note_off_c, 5, 72, 63
1, 11898, Control_c, 2, 64, 0
1, 11900, Note_on_c, 2, 41, 61
1, 11901, Note_on_c, 4, 68, 72
1, 11902, Note_on_c, 3, 84, 105
1, 11902, Note_on_c, 1, 29, 70
1, 11903, Note_on_c, 6, 41, 69
1, 11903, Note_on_c, 9, 53, 99
1, 11903, Note_on_c, 9, 36, 93
1, 11904, Note_on_c, 5, 77, 80
1, 11904, Note_on_c, 5, 68, 80
1, 11904, Note_off_c, 6, 53, 76
1, 11905, Note_off_c, 6, 48, 64
1, 11913, Note_off_c, 4, 67, 73
1, 11926, Note_off_c, 9, 36, 93
1, 11951, Note_on_c, 6, 48, 62
1, 11990, Note_off_c, 9, 53, 99
1, 11995, Note_on_c, 2, 44, 66
1, 12000, Note_on_c, 3, 80, 101
1, 12000, Note_on_c, 6, 53, 69
1, 12000, Note_on_c, 9, 59, 87
1, 12014, Note_off_c, 3, 84, 105
1, 12015, Note_off_c, 2, 41, 61
1, 12047, Note_on_c, 6, 56, 82
1, 12082, Note_off_c, 9, 59, 87
1, 12083, Note_off_c, 6, 53, 69
1, 12092, Note_on_c, 2, 48, 74
1, 12092, Note_off_c, 6, 56, 82
1, 12094, Note_on_c, 3, 77, 99
1, 12095, Note_on_c, 9, 53, 82
1, 12096, Note_on_c, 9, 52, 79
1, 12096, Note_on_c, 6, 60, 69
1, 12100, Note_off_c, 3, 80, 101
1, 12127, Note_off_c, 2, 44, 66
1, 12132, Note_off_c, 9, 52, 79
1, 12133, Note_off_c, 9, 53, 82
1, 12135, Note_off_c, 6, 60, 69
1, 12144, Note_on_c, 6, 56, 82
1, 12187, Note_on_c, 2, 53, 72
1, 12189, Note_on_c, 3, 72, 93
1, 12189, Note_off_c, 6, 56, 82
1, 12190, Note_on_c, 1, 38, 68
1, 12192, Note_off_c, 1, 29, 70
1, 12192, Note_on_c, 6, 53, 76
1, 12193, Note_on_c, 9, 51, 105
1, 12195, Control_c, 2, 64, 127
1, 12203, Note_off_c, 2, 48, 74
1, 12207, Note_off_c, 3, 77, 99
1, 12207, Note_off_c, 6, 48, 62
1, 12214, Note_off_c, 9, 51, 105
1, 12240, Note_on_c, 6, 48, 73
1, 12244, Note_off_c, 6, 41, 69
1, 12246, Note_off_c, 6, 53, 76
1, 12248, Note_off_c, 2, 53, 72
1, 12258, Note_off_c, 6, 48, 73
1, 12268, Note_off_c, 3, 72, 93
1, 12276, Note_off_c, 5, 77, 80
1, 12281, Note_on_c, 5, 76, 62
1, 12282, Note_on_c, 4, 67, 61
1, 12283, Note_off_c, 4, 68, 72
1, 12283, Note_on_c, 5, 67, 63
1, 12285, Note_on_c, 1, 36, 76
1, 12286, Note_on_c, 3, 76, 87
1, 12286, Note_on_c, 2, 55, 67
1, 12286, Note_off_c, 5, 68, 80
1, 12287, Note_on_c, 2, 48, 37
1, 12287, Note_on_c, 2, 52, 63
1, 12287, Note_on_c, 3, 72, 72
1, 12289, Note_on_c, 9, 36, 99
1, 12289, Note_off_c, 1, 38, 68
1, 12289, Note_on_c, 9, 51, 93
1, 12290, Note_on_c, 6, 48, 73
1, 12303, Control_c, 2, 64, 0
1, 12335, Note_off_c, 9, 51, 93
1, 12337, Note_on_c, 6, 55, 64
1, 12349, Control_c, 2, 64, 127
1, 12384, Note_off_c, 9, 36, 99
1, 12385, Note_on_c, 9, 51, 84
1, 12385, Note_on_c, 6, 60, 69
1, 12401, Note_off_c, 2, 52, 63
1, 12426, Note_off_c, 2, 55, 67
1, 12432, Note_on_c, 9, 36, 87
1, 12433, Note_on_c, 6, 64, 82
1, 12435, Note_off_c, 9, 51, 84
1, 12461, Note_off_c, 9, 36, 87
1, 12473, Note_off_c, 6, 64, 82
1, 12478, Note_on_c, 2, 55, 67
1, 12478, Note_on_c, 1, 31, 80
1, 12479, Note_on_c, 2, 43, 52
1, 12480, Note_off_c, 6, 55, 64
1, 12480, Note_off_c, 6, 48, 73
1, 12480, Note_on_c, 9, 38, 105
1, 12480, Note_on_c, 6, 67, 76
1, 12481, Note_off_c, 2, 48, 37
1, 12481, Note_on_c, 9, 51, 102
1, 12485, Control_c, 2, 64, 0
1, 12486, Note_off_c, 6, 60, 69
1, 12487, Note_off_c, 1, 36, 76
1, 12519, Note_off_c, 6, 67, 76
1, 12527, Note_on_c, 6, 64, 76
1, 12534, Note_off_c, 9, 51, 102
1, 12542, Control_c, 2, 64, 127
1, 12568, Note_off_c, 2, 43, 52
1, 12573, Note_on_c, 2, 56, 70
1, 12573, Note_off_c, 9, 38, 105
1, 12574, Note_on_c, 2, 44, 53
1, 12574, Note_on_c, 1, 32, 68
1, 12574, Note_off_c, 6, 64, 76
1, 12576, Note_on_c, 9, 51, 87
1, 12576, Note_on_c, 6, 60, 73
1, 12580, Note_off_c, 1, 31, 80
1, 12585, Note_off_c, 2, 55, 67
1, 12610, Note_off_c, 3, 72, 72
1, 12623, Note_on_c, 9, 36, 56
1, 12623, Note_on_c, 6, 56, 56
1, 12626, Note_off_c, 9, 51, 87
1, 12627, Note_off_c, 6, 60, 73
1, 12640, Note_off_c, 9, 36, 56
1, 12646, Note_off_c, 6, 56, 56
1, 12648, Note_off_c, 5, 67, 63
1, 12648, Note_off_c, 5, 76, 62
1, 12656, Control_c, 2, 64, 0
1, 12663, Note_off_c, 2, 44, 53
1, 12667, Note_off_c, 4, 67, 61
1, 12669, Note_on_c, 4, 69, 57
1, 12670, Note_on_c, 1, 33, 63
1, 12670, Note_on_c, 2, 45, 52
1, 12671, Note_on_c, 2, 57, 68
1, 12671, Note_on_c, 9, 36, 87
1, 12671, Note_on_c, 6, 45, 69
1, 12672, Note_on_c, 9, 51, 99
1, 12672, Note_on_c, 5, 69, 50
1, 12676, Note_on_c, 5, 73, 82
1, 12677, Note_off_c, 1, 32, 68
1, 12685, Note_off_c, 2, 56, 70
1, 12686, Note_off_c, 3, 76, 87
1, 12720, Note_on_c, 3, 76, 89
1, 12720, Note_on_c, 6, 52, 56
1, 12730, Note_off_c, 9, 51, 99
1, 12742, Note_off_c, 3, 76, 89
1, 12756, Control_c, 2, 64, 127
1, 12767, Note_on_c, 9, 51, 102
1, 12768, Note_on_c, 3, 76, 86
1, 12768, Note_on_c, 6, 57, 69
1, 12787, Note_off_c, 3, 76, 86
1, 12793, Note_off_c, 9, 36, 87
1, 12803, Note_off_c, 2, 45, 52
1, 12815, Note_on_c, 3, 76, 87
1, 12815, Note_on_c, 9, 36, 50
1, 12816, Note_on_c, 6, 61, 87
1, 12833, Note_off_c, 9, 51, 102
1, 12834, Note_off_c, 6, 57, 69
1, 12842, Note_off_c, 9, 36, 50
1, 12855, Note_off_c, 2, 57, 68
1, 12862, Note_on_c, 2, 55, 62
1, 12863, Note_on_c, 9, 38, 108
1, 12863, Note_on_c, 9, 51, 99
1, 12864, Note_on_c, 2, 45, 50
1, 12864, Note_on_c, 2, 49, 51
1, 12864, Note_on_c, 6, 64, 69
1, 12866, Note_off_c, 6, 61, 87
1, 12870, Control_c, 2, 64, 0
1, 12872, Note_off_c, 6, 52, 56
1, 12907, Note_on_c, 6, 52, 11
1, 12909, Note_on_c, 3, 77, 92
1, 12912, Note_off_c, 3, 76, 87
1, 12912, Note_on_c, 6, 61, 87
1, 12912, Note_off_c, 6, 64, 69
1, 12916, Control_c, 2, 64, 127
1, 12916, Note_off_c, 9, 51, 99
1, 12951, Note_off_c, 9, 38, 108
1, 12952, Note_off_c, 6, 52, 11
1, 12957, Note_on_c, 3, 79, 99
1, 12957, Note_on_c, 4, 67, 51
1, 12959, Note_off_c, 2, 55, 62
1, 12959, Note_on_c, 9, 51, 102
1, 12959, Note_on_c, 1, 37, 59
1, 12959, Note_on_c, 6, 57, 73
1, 12960, Note_off_c, 3, 77, 92
1, 12960, Note_off_c, 4, 69, 57
1, 12961, Note_off_c, 2, 49, 51
1, 12975, Note_off_c, 1, 33, 63
1, 12978, Note_off_c, 6, 45, 69
1, 12980, Note_off_c, 2, 45, 50
1, 12999, Note_off_c, 5, 69, 50
1, 13006, Note_on_c, 9, 36, 63
1, 13007, Note_on_c, 6, 52, 56
1, 13009, Note_off_c, 5, 73, 82
1, 13014, Note_off_c, 9, 51, 102
1, 13020, Note_off_c, 9, 36, 63
1, 13026, Note_off_c, 6, 52, 56
1, 13033, Note_off_c, 6, 61, 87
1, 13040, Note_off_c, 6, 57, 73
1, 13052, Note_off_c, 4, 67, 51
1, 13053, Note_on_c, 4, 65, 57
1, 13054, Note_on_c, 2, 50, 45
1, 13055, Note_on_c, 2, 53, 47
1, 13055, Note_on_c, 2, 57, 57
1, 13055, Note_on_c, 1, 38, 72
1, 13055, Note_on_c, 9, 51, 105
1, 13055, Note_on_c, 9, 36, 90
1, 13055, Note_on_c, 5, 74, 66
1, 13056, Note_off_c, 3, 79, 99
1, 13056, Note_on_c, 3, 74, 98
1, 13056, Note_on_c, 6, 50, 69
1, 13056, Note_on_c, 5, 69, 61
1, 13060, Note_off_c, 1, 37, 59
1, 13063, Control_c, 2, 64, 0
1, 13104, Note_on_c, 6, 57, 52
1, 13107, Control_c, 2, 64, 127
1, 13115, Note_off_c, 9, 51, 105
1, 13149, Note_off_c, 2, 57, 57
1, 13151, Note_on_c, 6, 62, 67
1, 13152, Note_on_c, 9, 51, 82
1, 13153, Note_off_c, 2, 53, 47
1, 13164, Note_off_c, 2, 50, 45
1, 13165, Note_off_c, 9, 36, 90
1, 13199, Note_on_c, 6, 65, 82
1, 13200, Note_off_c, 3, 74, 98
1, 13200, Note_on_c, 3, 72, 91
1, 13200, Note_on_c, 9, 36, 56
1, 13211, Note_off_c, 9, 51, 82
1, 13230, Note_off_c, 9, 36, 56
1, 13232, Note_off_c, 6, 65, 82
1, 13246, Note_on_c, 2, 57, 57
1, 13247, Note_on_c, 2, 50, 41
1, 13247, Note_on_c, 6, 69, 76
1, 13248, Note_on_c, 2, 53, 44
1, 13248, Note_on_c, 9, 38, 99
1, 13248, Note_on_c, 9, 51, 102
1, 13259, Control_c, 2, 64, 0
1, 13281, Note_off_c, 6, 62, 67
1, 13296, Note_off_c, 3, 72, 91
1, 13296, Note_on_c, 3, 74, 97
1, 13297, Note_on_c, 6, 65, 82
1, 13297, Note_off_c, 6, 69, 76
1, 13302, Control_c, 2, 64, 127
1, 13303, Note_off_c, 6, 57, 52
1, 13305, Note_off_c, 9, 51, 102
1, 13327, Note_off_c, 2, 53, 44
1, 13339, Note_off_c, 6, 65, 82
1, 13343, Note_on_c, 1, 29, 80
1, 13344, Note_off_c, 3, 74, 97
1, 13344, Note_on_c, 3, 72, 85
1, 13344, Note_on_c, 6, 62, 71
1, 13344, Note_off_c, 2, 57, 57
1, 13344, Note_on_c, 9, 51, 93
1, 13348, Note_off_c, 9, 38, 99
1, 13350, Note_off_c, 2, 50, 41
1, 13360, Note_off_c, 1, 38, 72
1, 13362, Note_off_c, 6, 50, 69
1, 13379, Note_off_c, 5, 69, 61
1, 13391, Note_on_c, 9, 36, 58
1, 13392, Note_on_c, 6, 57, 61
1, 13394, Note_off_c, 5, 74, 66
1, 13395, Note_off_c, 6, 62, 71
1, 13399, Note_off_c, 9, 51, 93
1, 13408, Note_off_c, 6, 57, 61
1, 13409, Note_off_c, 9, 36, 58
1, 13428, Note_on_c, 6, 43, 66
1, 13428, Note_on_c, 5, 67, 52
1, 13430, Note_on_c, 5, 74, 62
1, 13431, Note_off_c, 4, 65, 57
1, 13432, Note_on_c, 4, 67, 60
1, 13436, Note_on_c, 2, 55, 55
1, 13438, Note_on_c, 1, 31, 72
1, 13438, Note_on_c, 2, 43, 58
1, 13438, Note_on_c, 6, 50, 68
1, 13440, Note_off_c, 3, 72, 85
1, 13440, Note_on_c, 3, 67, 73
1, 13440, Note_on_c, 3, 71, 94
1, 13440, Control_c, 2, 64, 0
1, 13440, Note_on_c, 9, 36, 87
1, 13440, Note_on_c, 9, 51, 102
1, 13445, Note_off_c, 1, 29, 80
1, 13450, Note_on_c, 6, 55, 69
1, 13462, Note_on_c, 6, 59, 71
1, 13477, Control_c, 2, 64, 127
1, 13494, Note_off_c, 2, 43, 58
1, 13495, Note_off_c, 2, 55, 55
1, 13495, Note_off_c, 9, 51, 102
1, 13533, Note_on_c, 2, 55, 77
1, 13534, Note_on_c, 2, 43, 57
1, 13535, Note_on_c, 9, 51, 87
1, 13540, Note_off_c, 9, 36, 87
1, 13542, Control_c, 2, 64, 0
1, 13572, Control_c, 2, 64, 127
1, 13584, Note_on_c, 9, 36, 69
1, 13595, Note_off_c, 9, 51, 87
1, 13613, Control_c, 2, 64, 0
1, 13622, Note_off_c, 9, 36, 69
1, 13628, Note_on_c, 2, 57, 73
1, 13628, Note_on_c, 2, 45, 59
1, 13630, Note_on_c, 1, 33, 85
1, 13632, Note_on_c, 9, 38, 93
1, 13632, Note_on_c, 9, 49, 93
1, 13637, Note_off_c, 2, 55, 77
1, 13637, Note_off_c, 2, 43, 57
1, 13638, Note_off_c, 1, 31, 72
1, 13646, Control_c, 2, 64, 127
1, 13646, Note_off_c, 9, 49, 93
1, 13660, Note_off_c, 9, 38, 93
1, 13679, Note_on_c, 9, 43, 102
1, 13710, Control_c, 2, 64, 0
1, 13719, Note_off_c, 9, 43, 102
1, 13722, Note_on_c, 4, 65, 68
1, 13723, Note_off_c, 4, 67, 60
1, 13725, Note_on_c, 2, 59, 73
1, 13726, Note_on_c, 2, 47, 68
1, 13726, Note_on_c, 1, 35, 74
1, 13727, Note_off_c, 2, 45, 59
1, 13727, Note_on_c, 9, 41, 105
1, 13728, Note_off_c, 3, 71, 94
1, 13728, Note_off_c, 3, 67, 73
1, 13732, Note_off_c, 1, 33, 85
1, 13733, Note_off_c, 2, 57, 73
1, 13745, Control_c, 2, 64, 127
1, 13782, Note_off_c, 6, 43, 66
1, 13783, Note_off_c, 5, 74, 62
1, 13784, Note_off_c, 5, 67, 52
1, 13786, Note_off_c, 6, 59, 71
1, 13786, Note_off_c, 6, 55, 69
1, 13786, Note_off_c, 6, 50, 68
1, 13793, Control_c, 2, 64, 0
1, 13800, Note_off_c, 9, 41, 105
1, 13801, Note_off_c, 2, 47, 68
1, 13806, Note_off_c, 2, 59, 73
1, 13818, Note_on_c, 4, 64, 57
1, 13822, Note_on_c, 1, 36, 58
1, 13823, Note_on_c, 9, 42, 73
1, 13824, Control_c, 2, 64, 127
1, 13824, Note_on_c, 2, 48, 57
1, 13824, Note_on_c, 2, 52, 63
1, 13824, Note_on_c, 2, 55, 63
1, 13824, Note_on_c, 5, 67, 63
1, 13825, Note_off_c, 4, 65, 68
1, 13825, Note_on_c, 9, 36, 73
1, 13825, Note_on_c, 5, 76, 63
1, 13830, Note_off_c, 1, 35, 74
1, 13847, Note_off_c, 9, 42, 73
1, 13872, Note_on_c, 9, 42, 41
1, 13886, Note_off_c, 9, 42, 41
1, 13920, Note_on_c, 9, 42, 28
1, 13922, Note_off_c, 2, 48, 57
1, 13934, Note_off_c, 9, 42, 28
1, 13942, Note_off_c, 2, 55, 63
1, 13943, Note_off_c, 2, 52, 63
1, 13967, Note_on_c, 2, 48, 54
1, 13967, Note_on_c, 9, 42, 27
1, 13984, Note_off_c, 9, 42, 27
1, 13984, Note_off_c, 9, 36, 73
1, 14015, Note_on_c, 2, 55, 66
1, 14016, Note_on_c, 9, 46, 76
1, 14016, Note_on_c, 9, 38, 87
1, 14016, Note_on_c, 2, 52, 66
1, 14018, Note_on_c, 3, 72, 79
1, 14040, Note_off_c, 3, 72, 79
1, 14040, Note_off_c, 9, 46, 76
1, 14064, Note_on_c, 3, 72, 70
1, 14090, Note_off_c, 3, 72, 70
1, 14111, Note_on_c, 3, 72, 62
1, 14112, Note_off_c, 9, 38, 87
1, 14113, Note_on_c, 9, 42, 64
1, 14132, Note_off_c, 3, 72, 62
1, 14133, Note_off_c, 9, 42, 64
1, 14138, Note_off_c, 2, 52, 66
1, 14140, Note_off_c, 2, 55, 66
1, 14153, Note_off_c, 2, 48, 54
1, 14158, Note_on_c, 3, 72, 73
1, 14161, Note_on_c, 9, 42, 17
1, 14170, Note_off_c, 9, 42, 17
1, 14198, Note_off_c, 1, 36, 58
1, 14201, Note_on_c, 4, 60, 57
1, 14207, Note_on_c, 1, 36, 87
1, 14208, Note_on_c, 2, 55, 46
1, 14208, Note_on_c, 9, 36, 82
1, 14208, Note_on_c, 9, 42, 69
1, 14209, Note_on_c, 2, 52, 46
1, 14210, Note_on_c, 2, 48, 40
1, 14227, Note_off_c, 9, 42, 69
1, 14231, Control_c, 2, 64, 0
1, 14234, Note_off_c, 3, 72, 73
1, 14254, Note_on_c, 3, 72, 79
1, 14255, Note_on_c, 9, 42, 40
1, 14266, Control_c, 2, 64, 127
1, 14268, Note_off_c, 9, 42, 40
1, 14274, Note_off_c, 3, 72, 79
1, 14303, Note_on_c, 9, 42, 47
1, 14304, Note_on_c, 3, 72, 75
1, 14312, Note_off_c, 2, 52, 46
1, 14313, Note_off_c, 9, 36, 82
1, 14315, Note_off_c, 2, 55, 46
1, 14317, Note_off_c, 2, 48, 40
1, 14325, Note_off_c, 9, 42, 47
1, 14327, Note_off_c, 3, 72, 75
1, 14351, Note_on_c, 9, 36, 61
1, 14352, Note_on_c, 3, 72, 80
1, 14352, Note_on_c, 9, 42, 53
1, 14372, Note_off_c, 9, 42, 53
1, 14376, Note_off_c, 9, 36, 61
1, 14399, Note_on_c, 9, 38, 93
1, 14399, Note_on_c, 2, 48, 46
1, 14399, Note_on_c, 2, 55, 50
1, 14399, Note_on_c, 9, 46, 82
1, 14400, Note_on_c, 2, 52, 51
1, 14428, Note_off_c, 9, 46, 82
1, 14448, Note_on_c, 3, 71, 78
1, 14472, Note_off_c, 9, 38, 93
1, 14473, Note_off_c, 1, 36, 87
1, 14477, Note_off_c, 2, 52, 51
1, 14481, Note_off_c, 3, 72, 80
1, 14489, Note_off_c, 2, 55, 50
1, 14494, Note_on_c, 3, 69, 74
1, 14495, Note_off_c, 2, 48, 46
1, 14495, Note_on_c, 1, 36, 70
1, 14495, Note_off_c, 3, 71, 78
1, 14496, Note_on_c, 9, 42, 87
1, 14513, Note_off_c, 9, 42, 87
1, 14542, Note_on_c, 3, 65, 64
1, 14545, Note_on_c, 9, 42, 11
1, 14546, Note_off_c, 9, 42, 11
1, 14547, Note_off_c, 3, 69, 74
1, 14567, Note_on_c, 6, 50, 50
1, 14568, Note_off_c, 5, 76, 63
1, 14568, Note_off_c, 5, 67, 63
1, 14576, Note_on_c, 5, 69, 38
1, 14579, Note_on_c, 5, 74, 45
1, 14581, Note_on_c, 6, 57, 53
1, 14587, Note_off_c, 4, 60, 57
1, 14587, Note_off_c, 4, 64, 57
1, 14589, Note_on_c, 4, 65, 57
1, 14590, Note_on_c, 4, 62, 56
1, 14591, Note_on_c, 1, 38, 64
1, 14591, Note_on_c, 9, 42, 93
1, 14592, Note_on_c, 9, 36, 93
1, 14593, Note_on_c, 2, 53, 52
1, 14593, Note_on_c, 2, 57, 62
1, 14593, Note_off_c, 1, 36, 70
1, 14594, Note_on_c, 2, 50, 42
1, 14596, Note_on_c, 6, 65, 55
1, 14597, Note_on_c, 6, 60, 50
1, 14612, Control_c, 2, 64, 0
1, 14613, Note_off_c, 9, 42, 93
1, 14639, Note_on_c, 9, 42, 51
1, 14646, Control_c, 2, 64, 127
1, 14651, Note_off_c, 9, 42, 51
1, 14687, Note_on_c, 9, 42, 73
1, 14702, Note_off_c, 9, 42, 73
1, 14703, Note_off_c, 2, 50, 42
1, 14723, Note_off_c, 2, 57, 62
1, 14729, Note_off_c, 2, 53, 52
1, 14735, Note_on_c, 2, 50, 61
1, 14736, Note_on_c, 9, 42, 11
1, 14745, Note_off_c, 9, 42, 11
1, 14746, Note_off_c, 9, 36, 93
1, 14783, Note_on_c, 9, 46, 76
1, 14784, Note_on_c, 9, 38, 99
1, 14784, Note_on_c, 2, 57, 62
1, 14785, Note_on_c, 2, 53, 46
1, 14791, Control_c, 2, 64, 0
1, 14812, Note_off_c, 9, 46, 76
1, 14823, Control_c, 2, 64, 127
1, 14846, Note_off_c, 2, 50, 61
1, 14851, Note_off_c, 9, 38, 99
1, 14852, Note_off_c, 2, 57, 62
1, 14861, Note_off_c, 2, 53, 46
1, 14868, Note_off_c, 6, 65, 55
1, 14880, Note_on_c, 9, 42, 87
1, 14908, Note_off_c, 9, 42, 87
1, 14920, Note_off_c, 1, 38, 64
1, 14927, Note_on_c, 9, 36, 53
1, 14927, Note_on_c, 6, 67, 64
1, 14928, Note_on_c, 1, 38, 81
1, 14939, Note_off_c, 9, 36, 53
1, 14969, Note_off_c, 3, 65, 64
1, 14971, Note_on_c, 6, 69, 61
1, 14974, Note_on_c, 2, 50, 77
1, 14975, Note_on_c, 9, 36, 93
1, 14976, Note_on_c, 9, 42, 87
1, 14977, Note_on_c, 2, 38, 59
1, 14977, Note_on_c, 1, 26, 76
1, 14979, Note_off_c, 6, 67, 64
1, 14992, Note_off_c, 1, 38, 81
1, 14999, Note_off_c, 9, 42, 87
1, 15017, Note_off_c, 2, 38, 59
1, 15017, Control_c, 2, 64, 0
1, 15023, Note_on_c, 2, 52, 82
1, 15023, Note_on_c, 2, 40, 67
1, 15024, Note_off_c, 1, 26, 76
1, 15024, Note_on_c, 1, 28, 87
1, 15024, Note_on_c, 9, 38, 112
1, 15024, Note_on_c, 9, 42, 103
1, 15026, Note_off_c, 2, 50, 77
1, 15037, Note_off_c, 9, 42, 103
1, 15060, Control_c, 2, 64, 127
1, 15072, Note_off_c, 9, 38, 112
1, 15083, Note_off_c, 9, 36, 93
1, 15107, Note_off_c, 2, 52, 82
1, 15111, Note_off_c, 1, 28, 87
1, 15116, Note_off_c, 2, 40, 67
1, 15119, Note_on_c, 2, 53, 91
1, 15119, Note_on_c, 2, 41, 71
1, 15119, Note_on_c, 9, 42, 84
1, 15120, Note_on_c, 1, 29, 89
1, 15120, Note_on_c, 9, 38, 105
1, 15125, Control_c, 2, 64, 0
1, 15159, Control_c, 2, 64, 127
1, 15167, Note_off_c, 9, 42, 84
1, 15170, Note_off_c, 9, 38, 105
1, 15172, Note_off_c, 6, 69, 61
1, 15207, Note_off_c, 2, 53, 91
1, 15208, Note_off_c, 1, 29, 89
1, 15211, Note_off_c, 2, 41, 71
1, 15213, Note_on_c, 4, 66, 64
1, 15214, Note_on_c, 2, 54, 83
1, 15215, Note_on_c, 2, 42, 67
1, 15216, Note_on_c, 9, 38, 99
1, 15216, Note_on_c, 9, 42, 105
1, 15217, Control_c, 2, 64, 0
1, 15219, Note_on_c, 1, 30, 70
1, 15221, Note_on_c, 6, 72, 69
1, 15234, Note_off_c, 4, 65, 57
1, 15250, Note_off_c, 9, 42, 105
1, 15252, Control_c, 2, 64, 127
1, 15264, Note_on_c, 6, 76, 87
1, 15266, Note_off_c, 9, 38, 99
1, 15269, Note_off_c, 6, 72, 69
1, 15298, Note_off_c, 2, 54, 83
1, 15302, Note_off_c, 2, 42, 67
1, 15308, Note_on_c, 6, 72, 67
1, 15310, Note_on_c, 9, 36, 79
1, 15315, Note_off_c, 6, 60, 50
1, 15316, Note_off_c, 6, 76, 87
1, 15319, Note_off_c, 1, 30, 70
1, 15322, Note_off_c, 9, 36, 79
1, 15329, Note_off_c, 5, 74, 45
1, 15329, Note_off_c, 6, 50, 50
1, 15329, Note_off_c, 6, 57, 53
1, 15336, Note_off_c, 5, 69, 38
1, 15344, Note_off_c, 4, 66, 64
1, 15346, Note_on_c, 6, 53, 56
1, 15349, Note_on_c, 5, 67, 61
1, 15350, Note_on_c, 5, 74, 53
1, 15351, Note_on_c, 4, 67, 68
1, 15351, Note_off_c, 6, 72, 67
1, 15351, Note_on_c, 6, 74, 63
1, 15356, Note_on_c, 6, 55, 56
1, 15358, Note_on_c, 2, 55, 71
1, 15359, Note_on_c, 2, 43, 58
1, 15359, Note_on_c, 9, 36, 93
1, 15359, Note_on_c, 9, 42, 99
1, 15360, Note_on_c, 1, 31, 64
1, 15373, Control_c, 2, 64, 0
1, 15373, Note_on_c, 6, 59, 53
1, 15377, Note_off_c, 9, 42, 99
1, 15406, Note_on_c, 9, 42, 53
1, 15414, Control_c, 2, 64, 127
1, 15415, Note_off_c, 9, 42, 53
1, 15454, Note_on_c, 3, 71, 80
1, 15454, Note_on_c, 3, 67, 66
1, 15454, Note_on_c, 9, 42, 87
1, 15467, Note_off_c, 9, 42, 87
1, 15473, Note_off_c, 3, 71, 80
1, 15480, Note_off_c, 3, 67, 66
1, 15488, Note_off_c, 2, 43, 58
1, 15493, Note_off_c, 2, 55, 71
1, 15502, Note_on_c, 3, 71, 73
1, 15502, Note_on_c, 9, 42, 55
1, 15503, Note_on_c, 3, 67, 52
1, 15512, Note_off_c, 9, 42, 55
1, 15515, Note_off_c, 9, 36, 93
1, 15518, Note_off_c, 3, 67, 52
1, 15523, Note_off_c, 3, 71, 73
1, 15550, Note_on_c, 3, 71, 91
1, 15550, Note_on_c, 9, 46, 79
1, 15550, Note_on_c, 3, 67, 76
1, 15550, Note_on_c, 9, 38, 93
1, 15551, Note_on_c, 2, 55, 72
1, 15552, Note_on_c, 2, 43, 50
1, 15572, Note_off_c, 9, 46, 79
1, 15572, Note_off_c, 6, 53, 56
1, 15573, Note_off_c, 6, 59, 53
1, 15574, Control_c, 2, 64, 0
1, 15576, Note_off_c, 6, 74, 63
1, 15580, Note_off_c, 6, 55, 56
1, 15613, Control_c, 2, 64, 127
1, 15622, Note_off_c, 9, 38, 93
1, 15633, Note_off_c, 3, 71, 91
1, 15642, Note_off_c, 3, 67, 76
1, 15647, Note_on_c, 9, 42, 87
1, 15648, Note_on_c, 3, 72, 84
1, 15648, Note_on_c, 3, 69, 67
1, 15665, Note_off_c, 9, 42, 87
1, 15671, Note_off_c, 2, 55, 72
1, 15682, Note_off_c, 2, 43, 50
1, 15696, Note_off_c, 3, 69, 67
1, 15696, Note_off_c, 1, 31, 64
1, 15696, Note_on_c, 3, 71, 81
1, 15696, Note_on_c, 3, 74, 90
1, 15696, Note_on_c, 9, 42, 11
1, 15699, Note_off_c, 3, 72, 84
1, 15699, Note_off_c, 9, 42, 11
1, 15743, Note_on_c, 9, 42, 96
1, 15744, Note_on_c, 2, 55, 58
1, 15744, Note_on_c, 9, 36, 108
1, 15744, Note_on_c, 1, 31, 70
1, 15745, Note_on_c, 2, 43, 44
1, 15762, Note_off_c, 9, 42, 96
1, 15765, Control_c, 2, 64, 0
1, 15791, Note_on_c, 9, 42, 64
1, 15792, Note_off_c, 3, 74, 90
1, 15792, Note_off_c, 3, 71, 81
1, 15792, Note_on_c, 3, 67, 82
1, 15792, Note_on_c, 3, 71, 96
1, 15801, Note_off_c, 9, 42, 64
1, 15804, Control_c, 2, 64, 127
1, 15828, Note_off_c, 9, 36, 108
1, 15840, Note_on_c, 9, 42, 69
1, 15848, Note_off_c, 9, 42, 69
1, 15857, Note_off_c, 2, 55, 58
1, 15867, Note_off_c, 2, 43, 44
1, 15887, Note_on_c, 9, 42, 76
1, 15899, Note_off_c, 9, 42, 76
1, 15910, Note_off_c, 3, 67, 82
1, 15911, Note_off_c, 3, 71, 96
1, 15934, Note_on_c, 9, 46, 79
1, 15935, Note_on_c, 2, 43, 47
1, 15935, Note_on_c, 2, 55, 56
1, 15935, Note_on_c, 9, 38, 99
1, 15936, Note_on_c, 3, 69, 88
1, 15956, Control_c, 2, 64, 0
1, 15956, Note_off_c, 9, 46, 79
1, 15958, Note_off_c, 9, 38, 99
1, 15990, Control_c, 2, 64, 127
1, 16030, Note_on_c, 3, 67, 89
1, 16031, Note_off_c, 2, 55, 56
1, 16031, Note_off_c, 2, 43, 47
1, 16031, Note_on_c, 9, 42, 87
1, 16032, Note_off_c, 1, 31, 70
1, 16032, Note_on_c, 1, 29, 64
1, 16041, Note_off_c, 3, 69, 88
1, 16054, Note_off_c, 9, 42, 87
1, 16079, Note_on_c, 9, 36, 73
1, 16091, Note_off_c, 9, 36, 73
1, 16112, Note_off_c, 5, 67, 61
1, 16122, Note_on_c, 5, 68, 61
1, 16123, Note_on_c, 5, 76, 63
1, 16125, Note_on_c, 4, 68, 55
1, 16125, Note_on_c, 4, 64, 66
1, 16126, Note_on_c, 2, 56, 51
1, 16127, Note_on_c, 2, 62, 63
1, 16127, Note_on_c, 2, 52, 60
1, 16127, Note_on_c, 9, 36, 105
1, 16128, Note_on_c, 3, 76, 99
1, 16128, Note_off_c, 1, 29, 64
1, 16128, Note_on_c, 1, 28, 60
1, 16128, Note_on_c, 9, 42, 99
1, 16129, Note_off_c, 4, 67, 68
1, 16131, Note_off_c, 4, 62, 56
1, 16132, Note_off_c, 5, 74, 53
1, 16145, Control_c, 2, 64, 0
1, 16150, Note_off_c, 9, 42, 99
1, 16152, Note_off_c, 3, 67, 89
1, 16173, Note_on_c, 3, 77, 88
1, 16176, Note_on_c, 9, 42, 42
1, 16182, Control_c, 2, 64, 127
1, 16184, Note_off_c, 9, 42, 42
1, 16191, Note_off_c, 3, 76, 99
1, 16214, Note_off_c, 9, 36, 105
1, 16221, Note_on_c, 3, 76, 91
1, 16223, Note_on_c, 9, 42, 82
1, 16229, Note_off_c, 3, 77, 88
1, 16232, Note_off_c, 2, 62, 63
1, 16234, Note_off_c, 9, 42, 82
1, 16243, Note_off_c, 2, 56, 51
1, 16255, Note_off_c, 2, 52, 60
1, 16269, Note_on_c, 3, 74, 101
1, 16271, Note_on_c, 9, 42, 87
1, 16271, Note_on_c, 9, 36, 99
1, 16274, Note_off_c, 3, 76, 91
1, 16291, Note_off_c, 9, 42, 87
1, 16294, Note_off_c, 9, 36, 99
1, 16319, Note_on_c, 2, 56, 52
1, 16319, Note_on_c, 2, 62, 72
1, 16319, Note_off_c, 1, 28, 60
1, 16320, Note_on_c, 1, 32, 93
1, 16320, Note_on_c, 9, 46, 87
1, 16320, Note_on_c, 2, 52, 50
1, 16320, Note_on_c, 9, 38, 96
1, 16341, Control_c, 2, 64, 0
1, 16345, Note_off_c, 9, 46, 87
1, 16366, Note_on_c, 3, 76, 89
1, 16369, Note_on_c, 9, 42, 62
1, 16373, Note_off_c, 3, 74, 101
1, 16376, Note_off_c, 9, 38, 96
1, 16377, Control_c, 2, 64, 127
1, 16383, Note_off_c, 9, 42, 62
1, 16410, Note_off_c, 2, 56, 52
1, 16410, Note_on_c, 5, 74, 79
1, 16413, Note_off_c, 5, 76, 63
1, 16414, Note_on_c, 3, 74, 95
1, 16416, Note_on_c, 9, 42, 76
1, 16419, Note_off_c, 3, 76, 89
1, 16427, Note_off_c, 2, 62, 72
1, 16428, Note_off_c, 9, 42, 76
1, 16454, Note_off_c, 2, 52, 50
1, 16457, Note_off_c, 3, 74, 95
1, 16461, Note_on_c, 3, 72, 85
1, 16462, Note_on_c, 3, 69, 64
1, 16464, Note_on_c, 9, 36, 69
1, 16464, Note_on_c, 9, 42, 82
1, 16475, Note_off_c, 9, 42, 82
1, 16476, Note_off_c, 9, 36, 69
1, 16498, Note_on_c, 5, 69, 61
1, 16499, Note_off_c, 5, 68, 61
1, 16500, Note_on_c, 5, 72, 63
1, 16501, Note_off_c, 5, 74, 79
1, 16502, Note_off_c, 4, 64, 66
1, 16507, Note_off_c, 4, 68, 55
1, 16509, Note_on_c, 4, 60, 44
1, 16509, Note_on_c, 4, 69, 70
1, 16512, Note_off_c, 1, 32, 93
1, 16512, Note_on_c, 1, 33, 80
1, 16512, Note_on_c, 2, 52, 50
1, 16512, Note_on_c, 9, 42, 99
1, 16512, Note_on_c, 9, 36, 105
1, 16513, Note_on_c, 2, 60, 67
1, 16513, Note_on_c, 2, 57, 49
1, 16529, Control_c, 2, 64, 0
1, 16532, Note_off_c, 9, 42, 99
1, 16549, Note_off_c, 9, 36, 105
1, 16559, Note_on_c, 9, 42, 41
1, 16566, Control_c, 2, 64, 127
1, 16573, Note_off_c, 9, 42, 41
1, 16589, Note_off_c, 2, 57, 49
1, 16607, Note_on_c, 9, 42, 51
1, 16621, Note_off_c, 9, 42, 51
1, 16622, Note_off_c, 2, 52, 50
1, 16638, Note_off_c, 3, 69, 64
1, 16640, Note_off_c, 3, 72, 85
1, 16655, Note_on_c, 9, 36, 93
1, 16655, Note_on_c, 9, 42, 61
1, 16657, Note_on_c, 3, 72, 77
1, 16674, Note_off_c, 9, 42, 61
1, 16678, Note_off_c, 9, 36, 93
1, 16699, Note_off_c, 4, 60, 44
1, 16701, Note_on_c, 4, 62, 66
1, 16703, Note_on_c, 2, 55, 62
1, 16703, Note_off_c, 3, 72, 77
1, 16703, Note_on_c, 4, 67, 70
1, 16703, Note_on_c, 9, 38, 102
1, 16704, Note_on_c, 2, 43, 47
1, 16704, Note_on_c, 1, 31, 76
1, 16704, Note_on_c, 9, 46, 82
1, 16705, Note_on_c, 3, 74, 88
1, 16707, Note_off_c, 1, 33, 80
1, 16720, Control_c, 2, 64, 0
1, 16721, Note_off_c, 2, 60, 67
1, 16722, Note_off_c, 4, 69, 70
1, 16726, Note_off_c, 9, 46, 82
1, 16747, Note_off_c, 9, 38, 102
1, 16753, Note_on_c, 3, 72, 89
1, 16753, Note_on_c, 9, 42, 26
1, 16757, Note_off_c, 3, 74, 88
1, 16759, Note_off_c, 9, 42, 26
1, 16767, Control_c, 2, 64, 127
1, 16792, Note_on_c, 5, 67, 58
1, 16795, Note_on_c, 5, 71, 64
1, 16796, Note_off_c, 5, 72, 63
1, 16797, Note_off_c, 5, 69, 61
1, 16800, Note_on_c, 9, 42, 76
1, 16802, Note_on_c, 3, 71, 92
1, 16808, Note_off_c, 2, 43, 47
1, 16816, Note_off_c, 3, 72, 89
1, 16817, Note_off_c, 9, 42, 76
1, 16862, Note_off_c, 1, 31, 76
1, 16889, Note_on_c, 4, 65, 59
1, 16889, Note_on_c, 4, 60, 61
1, 16891, Note_off_c, 4, 67, 70
1, 16891, Note_on_c, 5, 69, 58
1, 16892, Note_on_c, 5, 65, 53
1, 16893, Note_off_c, 3, 71, 92
1, 16894, Note_on_c, 2, 53, 59
1, 16894, Note_on_c, 1, 29, 80
1, 16895, Note_on_c, 2, 41, 45
1, 16895, Note_off_c, 5, 71, 64
1, 16895, Note_on_c, 3, 69, 81
1, 16896, Note_on_c, 9, 36, 102
1, 16896, Note_off_c, 5, 67, 58
1, 16896, Note_off_c, 4, 62, 66
1, 16896, Note_on_c, 9, 42, 93
1, 16902, Note_off_c, 2, 55, 62
1, 16910, Control_c, 2, 64, 0
1, 16918, Note_off_c, 9, 42, 93
1, 16933, Note_off_c, 9, 36, 102
1, 16945, Note_on_c, 9, 42, 34
1, 16954, Note_off_c, 9, 42, 34
1, 16960, Control_c, 2, 64, 127
1, 16993, Note_on_c, 9, 42, 51
1, 17000, Note_off_c, 9, 42, 51
1, 17009, Note_off_c, 2, 53, 59
1, 17025, Note_off_c, 2, 41, 45
1, 17039, Note_on_c, 9, 36, 99
1, 17040, Note_on_c, 9, 42, 79
1, 17054, Note_off_c, 9, 42, 79
1, 17058, Note_off_c, 9, 36, 99
1, 17073, Note_off_c, 3, 69, 81
1, 17086, Note_on_c, 2, 53, 58
1, 17087, Note_on_c, 3, 69, 73
1, 17087, Note_on_c, 2, 41, 46
1, 17087, Note_on_c, 9, 46, 87
1, 17088, Note_on_c, 3, 72, 88
1, 17088, Note_on_c, 9, 38, 99
1, 17090, Note_on_c, 9, 36, 11
1, 17099, Note_off_c, 9, 36, 11
1, 17107, Control_c, 2, 64, 0
1, 17107, Note_off_c, 9, 46, 87
1, 17114, Note_off_c, 9, 38, 99
1, 17116, Note_off_c, 3, 72, 88
1, 17121, Note_off_c, 3, 69, 73
1, 17135, Note_on_c, 3, 69, 69
1, 17135, Note_on_c, 3, 72, 74
1, 17142, Control_c, 2, 64, 127
1, 17155, Note_off_c, 3, 69, 69
1, 17157, Note_off_c, 3, 72, 74
1, 17181, Note_on_c, 3, 69, 78
1, 17182, Note_on_c, 3, 72, 86
1, 17184, Note_on_c, 9, 42, 69
1, 17194, Note_off_c, 9, 42, 69
1, 17218, Note_off_c, 2, 53, 58
1, 17219, Note_off_c, 2, 41, 46
1, 17230, Note_on_c, 3, 71, 79
1, 17230, Note_on_c, 3, 74, 91
1, 17230, Note_off_c, 3, 69, 78
1, 17230, Note_on_c, 9, 36, 71
1, 17232, Note_off_c, 3, 72, 86
1, 17240, Note_off_c, 9, 36, 71
1, 17275, Note_off_c, 4, 60, 61
1, 17275, Note_off_c, 4, 65, 59
1, 17275, Note_on_c, 4, 62, 57
1, 17276, Note_on_c, 1, 31, 61
1, 17276, Note_on_c, 4, 67, 64
1, 17277, Note_off_c, 5, 69, 58
1, 17277, Note_on_c, 2, 55, 65
1, 17277, Note_on_c, 5, 71, 58
1, 17278, Note_on_c, 2, 43, 57
1, 17279, Note_off_c, 5, 65, 53
1, 17279, Note_on_c, 5, 67, 56
1, 17279, Note_on_c, 9, 36, 93
1, 17280, Note_on_c, 9, 42, 87
1, 17282, Note_off_c, 1, 29, 80
1, 17296, Control_c, 2, 64, 0
1, 17301, Note_off_c, 9, 42, 87
1, 17327, Note_on_c, 9, 42, 47
1, 17337, Control_c, 2, 64, 127
1, 17338, Note_off_c, 3, 71, 79
1, 17338, Note_off_c, 9, 42, 47
1, 17373, Note_off_c, 9, 36, 93
1, 17375, Note_on_c, 9, 42, 82
1, 17377, Note_on_c, 3, 71, 88
1, 17389, Note_off_c, 9, 42, 82
1, 17390, Note_off_c, 2, 55, 65
1, 17391, Note_off_c, 3, 74, 91
1, 17395, Note_off_c, 2, 43, 57
1, 17421, Note_off_c, 3, 71, 88
1, 17422, Note_on_c, 9, 36, 82
1, 17423, Note_on_c, 3, 69, 76
1, 17424, Note_on_c, 9, 42, 64
1, 17439, Note_off_c, 9, 42, 64
1, 17451, Note_off_c, 9, 36, 82
1, 17469, Note_on_c, 2, 55, 70
1, 17470, Note_on_c, 2, 43, 47
1, 17471, Note_on_c, 3, 71, 90
1, 17472, Note_on_c, 9, 46, 79
1, 17472, Note_on_c, 9, 38, 96
1, 17474, Note_off_c, 3, 69, 76
1, 17480, Control_c, 2, 64, 0
1, 17491, Note_off_c, 9, 46, 79
1, 17502, Note_off_c, 9, 38, 96
1, 17515, Control_c, 2, 64, 127
1, 17518, Note_on_c, 3, 69, 82
1, 17520, Note_off_c, 3, 71, 90
1, 17520, Note_on_c, 9, 42, 53
1, 17529, Note_off_c, 9, 42, 53
1, 17553, Note_off_c, 1, 31, 61
1, 17565, Note_off_c, 3, 69, 82
1, 17565, Note_on_c, 3, 67, 81
1, 17566, Note_on_c, 1, 31, 74
1, 17569, Note_on_c, 9, 42, 87
1, 17585, Note_off_c, 9, 42, 87
1, 17592, Note_off_c, 2, 43, 47
1, 17602, Note_off_c, 2, 55, 70
1, 17615, Note_on_c, 3, 64, 74
1, 17616, Note_off_c, 3, 67, 81
1, 17616, Note_on_c, 3, 69, 81
1, 17616, Note_on_c, 9, 42, 32
1, 17617, Note_on_c, 3, 60, 71
1, 17623, Note_off_c, 9, 42, 32
1, 17637, Control_c, 2, 64, 0
1, 17643, Note_off_c, 5, 67, 56
1, 17654, Note_on_c, 5, 69, 23
1, 17655, Note_on_c, 5, 72, 64
1, 17657, Note_on_c, 5, 64, 56
1, 17658, Note_off_c, 4, 67, 64
1, 17660, Note_off_c, 5, 71, 58
1, 17661, Note_on_c, 1, 33, 74
1, 17661, Note_on_c, 4, 57, 60
1, 17661, Note_on_c, 4, 69, 60
1, 17662, Note_on_c, 2, 45, 63
1, 17662, Note_on_c, 2, 57, 68
1, 17662, Note_off_c, 4, 62, 57
1, 17663, Note_off_c, 1, 31, 74
1, 17664, Note_on_c, 9, 36, 105
1, 17664, Note_on_c, 9, 42, 93
1, 17665, Control_c, 2, 64, 127
1, 17684, Note_off_c, 9, 42, 93
1, 17685, Note_off_c, 2, 57, 68
1, 17687, Note_off_c, 2, 45, 63
1, 17710, Note_on_c, 2, 57, 59
1, 17711, Note_on_c, 2, 45, 42
1, 17712, Note_on_c, 9, 42, 50
1, 17723, Note_off_c, 9, 42, 50
1, 17727, Note_off_c, 2, 45, 42
1, 17728, Note_off_c, 2, 57, 59
1, 17758, Note_on_c, 2, 45, 53
1, 17758, Note_on_c, 2, 57, 55
1, 17760, Note_on_c, 9, 42, 58
1, 17771, Note_off_c, 9, 42, 58
1, 17772, Note_off_c, 2, 57, 55
1, 17772, Note_off_c, 2, 45, 53
1, 17777, Note_off_c, 9, 36, 105
1, 17804, Note_on_c, 2, 45, 57
1, 17804, Note_on_c, 2, 57, 70
1, 17807, Note_on_c, 9, 42, 69
1, 17807, Note_on_c, 9, 36, 73
1, 17817, Note_off_c, 2, 45, 57
1, 17824, Note_off_c, 2, 57, 70
1, 17826, Note_off_c, 9, 42, 69
1, 17832, Note_off_c, 9, 36, 73
1, 17841, Control_c, 2, 64, 0
1, 17852, Note_on_c, 2, 45, 56
1, 17852, Note_on_c, 2, 57, 65
1, 17855, Note_on_c, 9, 46, 82
1, 17856, Note_on_c, 9, 38, 105
1, 17872, Control_c, 2, 64, 127
1, 17878, Note_off_c, 9, 46, 82
1, 17896, Note_off_c, 2, 57, 65
1, 17897, Note_off_c, 9, 38, 105
1, 17900, Note_on_c, 2, 55, 65
1, 17903, Note_on_c, 9, 42, 38
1, 17915, Note_off_c, 9, 42, 38
1, 17947, Note_on_c, 5, 74, 64
1, 17951, Note_off_c, 2, 45, 56
1, 17951, Note_on_c, 9, 42, 69
1, 17954, Note_off_c, 5, 72, 64
1, 17964, Note_off_c, 9, 42, 69
1, 17980, Note_on_c, 6, 45, 62
1, 17989, Note_off_c, 2, 55, 65
1, 17994, Note_on_c, 2, 57, 74
1, 17995, Note_on_c, 2, 45, 43
1, 18000, Note_on_c, 9, 42, 40
1, 18006, Note_on_c, 6, 55, 51
1, 18007, Note_off_c, 9, 42, 40
1, 18008, Control_c, 2, 64, 0
1, 18008, Note_on_c, 6, 60, 64
1, 18023, Note_on_c, 6, 64, 64
1, 18037, Note_on_c, 6, 71, 79
1, 18040, Control_c, 2, 64, 127
1, 18043, Note_off_c, 4, 57, 60
1, 18045, Note_on_c, 4, 60, 68
1, 18045, Note_off_c, 5, 74, 64
1, 18046, Note_on_c, 5, 76, 63
1, 18048, Note_on_c, 9, 42, 96
1, 18049, Note_on_c, 9, 36, 96
1, 18069, Note_off_c, 9, 42, 96
1, 18079, Note_off_c, 6, 64, 64
1, 18093, Note_on_c, 2, 55, 67
1, 18095, Note_off_c, 2, 45, 43
1, 18095, Note_on_c, 9, 42, 56
1, 18100, Note_off_c, 2, 57, 74
1, 18103, Note_off_c, 9, 36, 96
1, 18106, Note_on_c, 6, 72, 66
1, 18107, Note_off_c, 6, 71, 79
1, 18107, Note_off_c, 6, 60, 64
1, 18107, Note_off_c, 9, 42, 56
1, 18141, Note_on_c, 2, 45, 56
1, 18141, Note_on_c, 2, 57, 73
1, 18143, Note_on_c, 9, 42, 61
1, 18144, Note_off_c, 3, 60, 71
1, 18144, Note_off_c, 3, 69, 81
1, 18144, Note_off_c, 3, 64, 74
1, 18144, Control_c, 2, 64, 0
1, 18146, Note_off_c, 2, 55, 67
1, 18153, Note_off_c, 9, 42, 61
1, 18168, Note_on_c, 6, 71, 73
1, 18177, Note_off_c, 6, 72, 66
1, 18184, Control_c, 2, 64, 127
1, 18191, Note_on_c, 9, 42, 79
1, 18191, Note_on_c, 9, 36, 96
1, 18208, Note_off_c, 9, 42, 79
1, 18213, Note_off_c, 9, 36, 96
1, 18222, Note_on_c, 6, 67, 53
1, 18226, Note_off_c, 6, 71, 73
1, 18229, Note_off_c, 5, 76, 63
1, 18231, Note_on_c, 5, 79, 64
1, 18238, Note_on_c, 3, 71, 88
1, 18239, Note_on_c, 9, 38, 93
1, 18240, Note_on_c, 9, 46, 87
1, 18246, Note_off_c, 2, 45, 56
1, 18247, Note_off_c, 2, 57, 73
1, 18256, Note_off_c, 9, 46, 87
1, 18266, Note_off_c, 9, 38, 93
1, 18287, Note_on_c, 9, 42, 53
1, 18295, Note_off_c, 9, 42, 53
1, 18297, Note_on_c, 6, 69, 56
1, 18305, Note_off_c, 6, 67, 53
1, 18328, Note_off_c, 3, 71, 88
1, 18333, Note_on_c, 1, 28, 72
1, 18335, Note_on_c, 9, 42, 102
1, 18336, Note_on_c, 3, 72, 94
1, 18342, Note_off_c, 1, 33, 74
1, 18353, Note_off_c, 9, 42, 102
1, 18359, Note_on_c, 6, 64, 47
1, 18360, Note_off_c, 6, 69, 56
1, 18382, Note_on_c, 9, 42, 30
1, 18392, Note_off_c, 9, 42, 30
1, 18415, Note_off_c, 5, 64, 56
1, 18417, Note_on_c, 5, 72, 61
1, 18419, Note_on_c, 5, 81, 61
1, 18420, Note_off_c, 5, 69, 23
1, 18423, Note_on_c, 4, 65, 74
1, 18423, Note_off_c, 5, 79, 64
1, 18427, Note_off_c, 6, 55, 51
1, 18428, Note_on_c, 1, 29, 61
1, 18429, Note_off_c, 3, 72, 94
1, 18430, Note_on_c, 2, 53, 66
1, 18430, Note_off_c, 6, 64, 47
1, 18431, Note_on_c, 2, 41, 57
1, 18431, Note_on_c, 9, 36, 93
1, 18432, Note_on_c, 3, 71, 74
1, 18432, Note_on_c, 3, 74, 92
1, 18432, Note_on_c, 9, 51, 62
1, 18432, Note_on_c, 9, 50, 67
1, 18434, Note_off_c, 6, 45, 62
1, 18440, Note_off_c, 9, 50, 67
1, 18441, Note_off_c, 1, 28, 72
1, 18441, Note_off_c, 9, 51, 62
1, 18442, Note_off_c, 4, 60, 68
1, 18453, Note_off_c, 9, 36, 93
1, 18455, Control_c, 2, 64, 0
1, 18471, Note_off_c, 3, 71, 74
1, 18477, Note_off_c, 3, 74, 92
1, 18480, Note_on_c, 3, 76, 98
1, 18480, Note_on_c, 9, 42, 53
1, 18481, Note_on_c, 3, 72, 76
1, 18487, Note_off_c, 9, 42, 53
1, 18493, Control_c, 2, 64, 127
1, 18528, Note_on_c, 9, 42, 50
1, 18537, Note_off_c, 9, 42, 50
1, 18543, Note_off_c, 3, 72, 76
1, 18550, Note_off_c, 2, 53, 66
1, 18558, Note_off_c, 2, 41, 57
1, 18576, Note_on_c, 3, 69, 79
1, 18576, Note_on_c, 3, 72, 89
1, 18576, Note_on_c, 9, 42, 11
1, 18578, Note_off_c, 9, 42, 11
1, 18584, Note_off_c, 3, 76, 98
1, 18622, Note_off_c, 3, 69, 79
1, 18623, Note_on_c, 2, 41, 52
1, 18623, Note_on_c, 2, 53, 64
1, 18623, Note_on_c, 9, 38, 99
1, 18623, Note_on_c, 9, 42, 82
1, 18638, Control_c, 2, 64, 0
1, 18640, Note_off_c, 9, 42, 82
1, 18662, Note_off_c, 3, 72, 89
1, 18669, Note_off_c, 9, 38, 99
1, 18670, Note_on_c, 9, 42, 55
1, 18671, Control_c, 2, 64, 127
1, 18672, Note_on_c, 3, 65, 68
1, 18672, Note_on_c, 3, 69, 81
1, 18680, Note_off_c, 9, 42, 55
1, 18718, Note_on_c, 9, 42, 76
1, 18731, Note_off_c, 9, 42, 76
1, 18749, Note_off_c, 2, 53, 64
1, 18749, Note_off_c, 2, 41, 52
1, 18766, Note_on_c, 9, 36, 29
1, 18768, Note_on_c, 9, 42, 11
1, 18769, Note_off_c, 9, 42, 11
1, 18776, Note_off_c, 9, 36, 29
1, 18797, Note_off_c, 3, 65, 68
1, 18799, Note_off_c, 3, 69, 81
1, 18807, Note_off_c, 1, 29, 61
1, 18815, Note_on_c, 2, 53, 60
1, 18815, Note_on_c, 9, 36, 102
1, 18816, Note_on_c, 2, 41, 46
1, 18816, Note_on_c, 9, 42, 87
1, 18817, Note_on_c, 1, 29, 74
1, 18829, Control_c, 2, 64, 0
1, 18834, Note_off_c, 9, 42, 87
1, 18846, Note_off_c, 9, 36, 102
1, 18863, Note_on_c, 9, 42, 62
1, 18864, Note_on_c, 3, 77, 69
1, 18864, Note_on_c, 3, 81, 61
1, 18866, Control_c, 2, 64, 127
1, 18875, Note_off_c, 9, 42, 62
1, 18911, Note_on_c, 9, 42, 67
1, 18912, Note_off_c, 3, 77, 69
1, 18912, Note_on_c, 3, 79, 90
1, 18913, Note_on_c, 3, 76, 70
1, 18919, Note_off_c, 3, 81, 61
1, 18925, Note_off_c, 9, 42, 67
1, 18942, Note_off_c, 2, 41, 46
1, 18943, Note_off_c, 2, 53, 60
1, 18959, Note_on_c, 9, 38, 105
1, 18959, Note_on_c, 9, 46, 82
1, 18960, Note_on_c, 3, 74, 81
1, 18963, Note_on_c, 3, 77, 87
1, 18972, Note_off_c, 3, 76, 70
1, 18976, Note_off_c, 9, 46, 82
1, 18981, Note_off_c, 3, 79, 90
1, 18990, Note_off_c, 9, 38, 105
1, 19004, Control_c, 2, 64, 0
1, 19007, Note_on_c, 9, 42, 57
1, 19008, Note_on_c, 2, 41, 61
1, 19008, Note_on_c, 2, 53, 70
1, 19021, Note_off_c, 9, 42, 57
1, 19032, Control_c, 2, 64, 127
1, 19038, Note_off_c, 3, 74, 81
1, 19055, Note_on_c, 9, 38, 82
1, 19055, Note_on_c, 9, 46, 87
1, 19057, Note_on_c, 3, 76, 82
1, 19058, Note_on_c, 3, 72, 57
1, 19059, Note_off_c, 3, 77, 87
1, 19062, Control_c, 2, 64, 0
1, 19078, Note_off_c, 9, 46, 87
1, 19079, Note_off_c, 9, 38, 82
1, 19099, Control_c, 2, 64, 127
1, 19104, Note_on_c, 9, 42, 56
1, 19117, Note_off_c, 9, 42, 56
1, 19152, Note_off_c, 2, 53, 70
1, 19152, Note_off_c, 2, 41, 61
1, 19152, Note_on_c, 2, 54, 75
1, 19152, Note_on_c, 9, 36, 93
1, 19152, Note_on_c, 2, 42, 55
1, 19152, Note_on_c, 9, 42, 82
1, 19153, Note_on_c, 1, 30, 87
1, 19156, Note_off_c, 1, 29, 74
1, 19163, Note_off_c, 9, 36, 93
1, 19164, Note_off_c, 9, 42, 82
1, 19166, Control_c, 2, 64, 0
1, 19182, Note_off_c, 3, 72, 57
1, 19185, Note_on_c, 5, 79, 82
1, 19186, Note_on_c, 5, 71, 58
1, 19190, Note_off_c, 5, 72, 61
1, 19192, Note_off_c, 5, 81, 61
1, 19195, Note_off_c, 4, 65, 74
1, 19195, Note_off_c, 4, 69, 60
1, 19197, Note_on_c, 4, 67, 60
1, 19197, Note_on_c, 4, 62, 68
1, 19198, Note_on_c, 3, 74, 74
1, 19198, Note_on_c, 3, 71, 57
1, 19200, Note_off_c, 3, 76, 82
1, 19200, Note_off_c, 2, 42, 55
1, 19200, Note_off_c, 2, 54, 75
1, 19200, Note_on_c, 2, 55, 78
1, 19200, Note_on_c, 9, 36, 105
1, 19200, Note_on_c, 9, 42, 99
1, 19201, Note_on_c, 2, 43, 62
1, 19201, Note_on_c, 1, 31, 64
1, 19202, Note_off_c, 1, 30, 87
1, 19209, Control_c, 2, 64, 127
1, 19216, Note_off_c, 9, 42, 99
1, 19220, Note_off_c, 9, 36, 105
1, 19245, Note_off_c, 3, 71, 57
1, 19247, Note_on_c, 9, 42, 45
1, 19257, Note_off_c, 9, 42, 45
1, 19295, Note_on_c, 9, 42, 76
1, 19308, Note_off_c, 9, 42, 76
1, 19309, Note_off_c, 3, 74, 74
1, 19342, Note_on_c, 9, 42, 68
1, 19344, Note_on_c, 3, 67, 91
1, 19352, Note_off_c, 9, 42, 68
1, 19354, Note_off_c, 2, 43, 62
1, 19366, Note_off_c, 2, 55, 78
1, 19390, Note_on_c, 9, 46, 99
1, 19391, Note_on_c, 9, 38, 102
1, 19391, Note_on_c, 2, 55, 74
1, 19393, Note_on_c, 2, 43, 54
1, 19403, Control_c, 2, 64, 0
1, 19405, Note_off_c, 9, 38, 102
1, 19405, Note_off_c, 9, 46, 99
1, 19408, Note_off_c, 3, 67, 91
1, 19438, Control_c, 2, 64, 127
1, 19440, Note_on_c, 3, 67, 74
1, 19463, Note_off_c, 3, 67, 74
1, 19487, Note_on_c, 9, 42, 87
1, 19488, Note_on_c, 3, 67, 85
1, 19501, Note_off_c, 9, 42, 87
1, 19509, Note_off_c, 3, 67, 85
1, 19522, Note_off_c, 2, 43, 54
1, 19526, Note_off_c, 2, 55, 74
1, 19533, Note_on_c, 9, 36, 50
1, 19536, Note_on_c, 3, 69, 79
1, 19537, Note_on_c, 3, 77, 96
1, 19542, Note_off_c, 9, 36, 50
1, 19560, Note_off_c, 1, 31, 64
1, 19562, Note_off_c, 4, 67, 60
1, 19576, Note_on_c, 4, 65, 66
1, 19577, Note_on_c, 5, 77, 87
1, 19580, Note_off_c, 5, 79, 82
1, 19582, Note_on_c, 9, 42, 99
1, 19582, Note_on_c, 9, 36, 102
1, 19584, Note_on_c, 1, 31, 78
1, 19585, Note_on_c, 2, 43, 46
1, 19585, Note_on_c, 2, 55, 69
1, 19592, Note_off_c, 9, 42, 99
1, 19594, Note_off_c, 9, 36, 102
1, 19599, Control_c, 2, 64, 0
1, 19631, Note_on_c, 9, 48, 73
1, 19632, Note_off_c, 3, 77, 96
1, 19632, Note_off_c, 3, 69, 79
1, 19634, Note_on_c, 3, 67, 74
1, 19635, Note_on_c, 3, 76, 89
1, 19635, Note_off_c, 9, 48, 73
1, 19636, Control_c, 2, 64, 127
1, 19657, Note_on_c, 9, 48, 93
1, 19663, Note_off_c, 9, 48, 93
1, 19679, Note_on_c, 9, 48, 108
1, 19686, Note_off_c, 9, 48, 108
1, 19699, Note_off_c, 2, 55, 69
1, 19702, Note_off_c, 3, 67, 74
1, 19704, Note_off_c, 2, 43, 46
1, 19726, Note_on_c, 9, 48, 82
1, 19728, Note_off_c, 3, 76, 89
1, 19728, Note_on_c, 3, 72, 89
1, 19729, Note_on_c, 3, 64, 77
1, 19730, Note_off_c, 9, 48, 82
1, 19752, Note_on_c, 9, 47, 108
1, 19759, Note_off_c, 9, 47, 108
1, 19774, Note_on_c, 9, 47, 102
1, 19774, Note_on_c, 9, 45, 61
1, 19775, Note_on_c, 2, 55, 64
1, 19776, Note_on_c, 2, 43, 54
1, 19779, Note_off_c, 9, 45, 61
1, 19781, Note_off_c, 9, 47, 102
1, 19790, Control_c, 2, 64, 0
1, 19822, Control_c, 2, 64, 127
1, 19823, Note_on_c, 9, 45, 82
1, 19828, Note_off_c, 9, 45, 82
1, 19843, Note_off_c, 2, 43, 54
1, 19845, Note_on_c, 9, 43, 105
1, 19851, Note_off_c, 9, 43, 105
1, 19860, Note_on_c, 9, 43, 87
1, 19864, Note_off_c, 9, 43, 87
1, 19871, Note_on_c, 9, 41, 112
1, 19872, Note_off_c, 3, 64, 77
1, 19872, Note_off_c, 3, 72, 89
1, 19872, Note_on_c, 3, 65, 68
1, 19872, Note_on_c, 3, 74, 94
1, 19875, Note_off_c, 2, 55, 64
1, 19883, Note_off_c, 9, 41, 112
1, 19918, Note_off_c, 1, 31, 78
1, 19919, Note_on_c, 9, 41, 108
1, 19919, Note_on_c, 1, 35, 82
1, 19928, Note_off_c, 9, 41, 108
1, 19949, Note_off_c, 4, 62, 68
1, 19959, Note_off_c, 3, 65, 68
1, 19963, Note_off_c, 4, 65, 66
1, 19963, Note_off_c, 5, 71, 58
1, 19964, Note_on_c, 5, 72, 71
1, 19964, Note_off_c, 3, 74, 94
1, 19965, Note_on_c, 2, 55, 64
1, 19965, Note_on_c, 4, 60, 52
1, 19966, Note_on_c, 5, 76, 76
1, 19966, Note_on_c, 4, 64, 54
1, 19967, Note_on_c, 2, 48, 56
1, 19967, Note_on_c, 2, 52, 67
1, 19967, Note_on_c, 1, 36, 55
1, 19968, Note_on_c, 3, 64, 75
1, 19968, Note_on_c, 3, 72, 85
1, 19968, Note_on_c, 9, 36, 112
1, 19969, Control_c, 2, 64, 0
1, 19969, Note_on_c, 9, 49, 96
1, 19969, Note_on_c, 6, 48, 71
1, 19972, Note_off_c, 5, 77, 87
1, 19976, Note_off_c, 1, 35, 82
1, 19979, Note_off_c, 9, 49, 96
1, 20008, Control_c, 2, 64, 127
1, 20016, Note_on_c, 6, 55, 61
1, 20052, Note_off_c, 9, 36, 112
1, 20063, Note_on_c, 6, 60, 58
1, 20064, Note_on_c, 9, 51, 87
1, 20073, Note_off_c, 9, 51, 87
1, 20080, Note_off_c, 2, 55, 64
1, 20083, Note_off_c, 2, 52, 67
1, 20088, Note_off_c, 2, 48, 56
1, 20112, Note_on_c, 6, 64, 53
1, 20112, Note_on_c, 2, 48, 55
1, 20112, Note_on_c, 2, 55, 64
1, 20112, Note_on_c, 9, 36, 96
1, 20113, Note_on_c, 2, 52, 53
1, 20123, Note_off_c, 2, 48, 55
1, 20126, Note_off_c, 2, 52, 53
1, 20127, Note_off_c, 9, 36, 96
1, 20131, Note_off_c, 2, 55, 64
1, 20137, Note_off_c, 3, 64, 75
1, 20140, Note_off_c, 3, 72, 85
1, 20158, Control_c, 2, 64, 0
1, 20159, Note_on_c, 2, 48, 55
1, 20159, Note_on_c, 2, 55, 56
1, 20159, Note_on_c, 6, 67, 73
1, 20160, Note_on_c, 9, 38, 99
1, 20160, Note_off_c, 6, 64, 53
1, 20160, Note_on_c, 9, 51, 105
1, 20161, Note_on_c, 2, 52, 44
1, 20185, Note_off_c, 9, 51, 105
1, 20192, Control_c, 2, 64, 127
1, 20207, Note_off_c, 6, 67, 73
1, 20208, Note_off_c, 6, 60, 58
1, 20208, Note_on_c, 6, 64, 64
1, 20229, Note_off_c, 9, 38, 99
1, 20235, Note_off_c, 2, 48, 55
1, 20247, Note_off_c, 6, 48, 71
1, 20255, Note_on_c, 2, 43, 44
1, 20255, Note_on_c, 9, 51, 105
1, 20256, Note_on_c, 6, 60, 71
1, 20258, Note_off_c, 6, 55, 61
1, 20263, Note_off_c, 2, 55, 56
1, 20264, Note_off_c, 2, 52, 44
1, 20280, Note_off_c, 9, 51, 105
1, 20300, Note_off_c, 6, 64, 64
1, 20303, Note_on_c, 9, 36, 73
1, 20303, Note_on_c, 6, 55, 56
1, 20315, Note_off_c, 9, 36, 73
1, 20350, Note_on_c, 2, 55, 61
1, 20350, Note_on_c, 2, 52, 50
1, 20351, Note_off_c, 2, 43, 44
1, 20351, Note_on_c, 2, 48, 49
1, 20351, Note_on_c, 9, 36, 99
1, 20351, Note_on_c, 9, 51, 102
1, 20353, Note_on_c, 6, 48, 64
1, 20355, Note_off_c, 6, 60, 71
1, 20356, Control_c, 2, 64, 0
1, 20357, Note_off_c, 6, 55, 56
1, 20366, Note_off_c, 9, 51, 102
1, 20370, Note_off_c, 9, 36, 99
1, 20395, Control_c, 2, 64, 127
1, 20399, Note_on_c, 6, 55, 58
1, 20400, Note_on_c, 9, 36, 11
1, 20402, Note_on_c, 9, 51, 19
1, 20402, Note_off_c, 9, 36, 11
1, 20407, Note_off_c, 9, 51, 19
1, 20443, Note_off_c, 4, 64, 54
1, 20445, Note_on_c, 3, 76, 94
1, 20445, Note_on_c, 3, 67, 75
1, 20445, Note_on_c, 4, 67, 70
1, 20447, Note_on_c, 9, 51, 105
1, 20448, Note_on_c, 6, 60, 66
1, 20452, Note_off_c, 2, 52, 50
1, 20454, Note_off_c, 2, 48, 49
1, 20459, Note_off_c, 2, 55, 61
1, 20472, Note_off_c, 9, 51, 105
1, 20494, Note_on_c, 9, 36, 93
1, 20495, Note_on_c, 6, 64, 56
1, 20511, Note_off_c, 9, 36, 93
1, 20520, Control_c, 2, 64, 0
1, 20533, Note_off_c, 3, 67, 75
1, 20539, Note_off_c, 4, 67, 70
1, 20539, Note_on_c, 4, 65, 72
1, 20541, Note_off_c, 6, 64, 56
1, 20543, Note_on_c, 9, 51, 102
1, 20543, Note_on_c, 9, 38, 93
1, 20543, Note_on_c, 6, 67, 79
1, 20544, Note_on_c, 3, 65, 77
1, 20544, Note_on_c, 3, 74, 95
1, 20552, Note_off_c, 3, 76, 94
1, 20566, Note_off_c, 9, 38, 93
1, 20568, Note_off_c, 9, 51, 102
1, 20575, Note_off_c, 6, 60, 66
1, 20589, Note_off_c, 6, 67, 79
1, 20591, Note_on_c, 6, 64, 52
1, 20592, Note_on_c, 3, 64, 67
1, 20592, Note_on_c, 3, 72, 87
1, 20593, Note_off_c, 3, 65, 77
1, 20594, Note_off_c, 3, 74, 95
1, 20633, Note_off_c, 1, 36, 55
1, 20635, Note_on_c, 4, 64, 66
1, 20636, Note_on_c, 1, 28, 70
1, 20638, Note_off_c, 6, 55, 58
1, 20639, Note_on_c, 9, 51, 108
1, 20639, Note_off_c, 4, 65, 72
1, 20640, Note_on_c, 6, 60, 69
1, 20642, Note_off_c, 6, 48, 64
1, 20649, Note_off_c, 6, 64, 52
1, 20665, Note_off_c, 9, 51, 108
1, 20687, Note_on_c, 6, 55, 53
1, 20687, Note_on_c, 9, 36, 82
1, 20702, Note_off_c, 9, 36, 82
1, 20704, Note_off_c, 6, 55, 53
1, 20716, Note_off_c, 5, 72, 71
1, 20721, Note_off_c, 4, 60, 52
1, 20721, Note_off_c, 5, 76, 76
1, 20729, Note_on_c, 5, 72, 58
1, 20732, Note_on_c, 5, 69, 71
1, 20733, Note_on_c, 1, 29, 58
1, 20733, Note_on_c, 4, 65, 63
1, 20734, Note_on_c, 2, 53, 52
1, 20734, Note_on_c, 4, 60, 68
1, 20735, Note_on_c, 2, 60, 53
1, 20735, Note_on_c, 9, 36, 102
1, 20735, Note_on_c, 2, 57, 34
1, 20735, Note_on_c, 9, 51, 108
1, 20736, Note_on_c, 6, 53, 69
1, 20737, Note_off_c, 3, 64, 67
1, 20739, Note_off_c, 6, 60, 69
1, 20740, Control_c, 2, 64, 127
1, 20740, Note_off_c, 4, 64, 66
1, 20745, Note_off_c, 1, 28, 70
1, 20746, Note_off_c, 3, 72, 87
1, 20770, Note_off_c, 9, 51, 108
1, 20785, Note_on_c, 6, 60, 50
1, 20812, Note_off_c, 9, 36, 102
1, 20818, Note_off_c, 2, 60, 53
1, 20820, Note_off_c, 2, 57, 34
1, 20829, Note_off_c, 2, 53, 52
1, 20830, Note_on_c, 9, 51, 93
1, 20831, Note_on_c, 3, 69, 68
1, 20832, Note_on_c, 6, 65, 50
1, 20878, Note_on_c, 3, 72, 78
1, 20879, Note_on_c, 9, 36, 79
1, 20880, Note_on_c, 6, 69, 61
1, 20882, Note_off_c, 3, 69, 68
1, 20887, Note_off_c, 9, 51, 93
1, 20899, Note_off_c, 9, 36, 79
1, 20927, Note_on_c, 2, 53, 40
1, 20927, Note_on_c, 2, 57, 46
1, 20927, Note_on_c, 2, 60, 59
1, 20927, Note_on_c, 9, 51, 99
1, 20928, Note_on_c, 9, 38, 93
1, 20928, Note_on_c, 6, 72, 84
1, 20930, Note_off_c, 6, 69, 61
1, 20945, Control_c, 2, 64, 0
1, 20972, Note_off_c, 6, 65, 50
1, 20973, Note_off_c, 6, 72, 84
1, 20977, Note_on_c, 6, 69, 56
1, 20978, Control_c, 2, 64, 127
1, 20980, Note_off_c, 9, 51, 99
1, 21008, Note_off_c, 9, 38, 93
1, 21010, Note_off_c, 2, 60, 59
1, 21011, Note_off_c, 2, 57, 46
1, 21019, Note_off_c, 6, 60, 50
1, 21021, Note_off_c, 2, 53, 40
1, 21023, Note_on_c, 3, 74, 85
1, 21023, Note_on_c, 9, 51, 102
1, 21025, Note_on_c, 6, 65, 76
1, 21026, Note_off_c, 3, 72, 78
1, 21030, Note_off_c, 6, 53, 69
1, 21070, Note_on_c, 9, 36, 73
1, 21071, Note_on_c, 6, 60, 53
1, 21074, Note_off_c, 9, 51, 102
1, 21085, Note_off_c, 9, 36, 73
1, 21096, Note_off_c, 6, 69, 56
1, 21106, Note_off_c, 1, 29, 58
1, 21114, Note_off_c, 6, 65, 76
1, 21116, Note_on_c, 2, 57, 40
1, 21116, Note_on_c, 2, 60, 53
1, 21117, Note_on_c, 2, 53, 48
1, 21118, Note_on_c, 6, 53, 62
1, 21119, Note_on_c, 9, 51, 99
1, 21119, Note_off_c, 6, 60, 53
1, 21119, Note_on_c, 3, 72, 73
1, 21119, Note_on_c, 9, 36, 99
1, 21120, Note_on_c, 1, 29, 59
1, 21123, Control_c, 2, 64, 0
1, 21127, Note_off_c, 3, 74, 85
1, 21158, Note_off_c, 9, 51, 99
1, 21162, Control_c, 2, 64, 127
1, 21166, Note_on_c, 3, 69, 62
1, 21166, Note_on_c, 6, 60, 58
1, 21167, Note_off_c, 3, 72, 73
1, 21202, Note_off_c, 9, 36, 99
1, 21214, Note_on_c, 9, 51, 99
1, 21215, Note_on_c, 6, 65, 63
1, 21217, Note_off_c, 2, 57, 40
1, 21218, Note_off_c, 2, 60, 53
1, 21227, Note_off_c, 2, 53, 48
1, 21259, Note_off_c, 9, 51, 99
1, 21262, Note_on_c, 9, 36, 82
1, 21262, Note_on_c, 6, 69, 52
1, 21278, Note_off_c, 5, 72, 58
1, 21290, Note_off_c, 3, 69, 62
1, 21292, Note_off_c, 9, 36, 82
1, 21307, Note_off_c, 6, 69, 52
1, 21309, Note_on_c, 2, 57, 38
1, 21309, Note_on_c, 4, 64, 74
1, 21310, Note_on_c, 2, 60, 62
1, 21310, Note_on_c, 6, 72, 73
1, 21310, Note_on_c, 2, 53, 40
1, 21311, Note_on_c, 9, 51, 105
1, 21311, Note_on_c, 9, 38, 96
1, 21312, Control_c, 2, 64, 0
1, 21314, Note_on_c, 5, 77, 67
1, 21318, Note_off_c, 4, 65, 63
1, 21327, Note_off_c, 6, 65, 63
1, 21349, Note_off_c, 9, 51, 105
1, 21354, Note_off_c, 6, 72, 73
1, 21355, Control_c, 2, 64, 127
1, 21358, Note_on_c, 6, 69, 62
1, 21360, Note_on_c, 3, 69, 71
1, 21367, Note_off_c, 9, 38, 96
1, 21383, Note_off_c, 2, 53, 40
1, 21387, Note_off_c, 2, 60, 62
1, 21389, Note_off_c, 6, 69, 62
1, 21390, Note_off_c, 2, 57, 38
1, 21394, Note_off_c, 6, 60, 58
1, 21403, Note_off_c, 4, 64, 74
1, 21405, Note_on_c, 4, 62, 68
1, 21406, Note_on_c, 6, 65, 67
1, 21407, Note_on_c, 9, 51, 108
1, 21408, Note_on_c, 3, 72, 79
1, 21408, Note_on_c, 1, 35, 63
1, 21413, Note_off_c, 3, 69, 71
1, 21418, Note_off_c, 1, 29, 59
1, 21419, Note_off_c, 6, 53, 62
1, 21432, Note_off_c, 9, 51, 108
1, 21452, Note_off_c, 6, 65, 67
1, 21454, Note_on_c, 6, 60, 42
1, 21455, Note_on_c, 9, 36, 87
1, 21468, Note_off_c, 9, 36, 87
1, 21470, Note_off_c, 6, 60, 42
1, 21486, Note_on_c, 5, 72, 42
1, 21488, Note_off_c, 5, 69, 71
1, 21489, Note_on_c, 5, 76, 58
1, 21491, Note_off_c, 5, 77, 67
1, 21496, Note_off_c, 1, 35, 63
1, 21499, Note_off_c, 4, 62, 68
1, 21500, Note_on_c, 2, 55, 61
1, 21501, Note_on_c, 4, 64, 72
1, 21502, Note_on_c, 1, 36, 61
1, 21503, Note_on_c, 9, 36, 99
1, 21503, Note_on_c, 6, 48, 69
1, 21503, Note_on_c, 9, 51, 102
1, 21504, Note_on_c, 2, 48, 51
1, 21504, Note_on_c, 2, 52, 53
1, 21507, Control_c, 2, 64, 0
1, 21524, Note_off_c, 3, 72, 79
1, 21536, Note_off_c, 9, 51, 102
1, 21547, Control_c, 2, 64, 127
1, 21551, Note_on_c, 6, 55, 62
1, 21575, Note_off_c, 2, 52, 53
1, 21579, Note_off_c, 2, 55, 61
1, 21595, Note_off_c, 9, 36, 99
1, 21598, Note_on_c, 3, 76, 86
1, 21598, Note_on_c, 3, 67, 70
1, 21598, Note_on_c, 9, 51, 99
1, 21600, Note_on_c, 6, 60, 67
1, 21607, Note_off_c, 2, 48, 51
1, 21626, Note_off_c, 9, 51, 99
1, 21646, Note_on_c, 9, 36, 87
1, 21647, Note_on_c, 6, 64, 62
1, 21652, Note_off_c, 6, 48, 69
1, 21655, Note_off_c, 6, 60, 67
1, 21656, Note_off_c, 6, 55, 62
1, 21663, Note_off_c, 9, 36, 87
1, 21691, Control_c, 2, 64, 0
1, 21692, Note_off_c, 3, 76, 86
1, 21692, Note_off_c, 3, 67, 70
1, 21693, Note_on_c, 3, 72, 90
1, 21694, Note_on_c, 9, 51, 99
1, 21695, Note_on_c, 3, 64, 63
1, 21695, Note_on_c, 9, 38, 93
1, 21695, Note_on_c, 6, 67, 64
1, 21696, Note_on_c, 2, 55, 64
1, 21696, Note_on_c, 2, 48, 50
1, 21697, Note_on_c, 2, 52, 51
1, 21699, Note_off_c, 6, 64, 62
1, 21722, Note_off_c, 9, 51, 99
1, 21733, Control_c, 2, 64, 127
1, 21737, Note_off_c, 3, 64, 63
1, 21739, Note_off_c, 6, 67, 64
1, 21741, Note_off_c, 3, 72, 90
1, 21742, Note_on_c, 3, 65, 72
1, 21742, Note_on_c, 3, 74, 87
1, 21743, Note_on_c, 6, 64, 56
1, 21767, Note_off_c, 9, 38, 93
1, 21785, Note_off_c, 2, 55, 64
1, 21789, Note_off_c, 2, 52, 51
1, 21790, Note_on_c, 9, 51, 99
1, 21791, Note_on_c, 6, 60, 64
1, 21798, Note_off_c, 6, 64, 56
1, 21805, Note_off_c, 2, 48, 50
1, 21815, Note_off_c, 9, 51, 99
1, 21830, Note_off_c, 3, 74, 87
1, 21833, Note_off_c, 3, 65, 72
1, 21838, Note_on_c, 9, 36, 79
1, 21839, Note_on_c, 6, 55, 48
1, 21840, Note_on_c, 3, 64, 70
1, 21840, Note_on_c, 3, 72, 83
1, 21851, Note_off_c, 9, 36, 79
1, 21859, Note_off_c, 4, 60, 68
1, 21864, Note_off_c, 1, 36, 61
1, 21867, Control_c, 2, 64, 0
1, 21885, Note_on_c, 1, 36, 55
1, 21885, Note_on_c, 4, 60, 53
1, 21886, Note_off_c, 6, 60, 64
1, 21886, Note_off_c, 6, 55, 48
1, 21886, Note_on_c, 6, 48, 61
1, 21887, Note_on_c, 9, 36, 102
1, 21887, Note_on_c, 9, 51, 99
1, 21888, Note_on_c, 2, 48, 53
1, 21888, Note_on_c, 2, 55, 57
1, 21888, Note_on_c, 2, 52, 46
1, 21901, Control_c, 2, 64, 127
1, 21929, Note_off_c, 9, 51, 99
1, 21935, Note_on_c, 6, 55, 56
1, 21937, Note_off_c, 2, 48, 53
1, 21957, Note_off_c, 2, 55, 57
1, 21961, Control_c, 2, 64, 0
1, 21970, Note_off_c, 2, 52, 46
1, 21979, Note_off_c, 4, 64, 72
1, 21979, Note_on_c, 4, 67, 76
1, 21981, Note_on_c, 3, 67, 76
1, 21981, Note_on_c, 3, 76, 85
1, 21983, Note_on_c, 9, 51, 108
1, 21983, Note_on_c, 6, 60, 73
1, 21984, Note_on_c, 2, 48, 69
1, 21986, Note_off_c, 9, 36, 102
1, 21989, Note_off_c, 3, 72, 83
1, 21991, Note_off_c, 3, 64, 70
1, 22009, Control_c, 2, 64, 127
1, 22012, Note_off_c, 9, 51, 108
1, 22030, Note_on_c, 6, 64, 58
1, 22031, Note_on_c, 9, 36, 82
1, 22053, Note_off_c, 9, 36, 82
1, 22062, Note_off_c, 5, 76, 58
1, 22067, Note_on_c, 5, 77, 73
1, 22074, Note_on_c, 4, 65, 74
1, 22076, Note_off_c, 6, 64, 58
1, 22077, Note_on_c, 3, 65, 80
1, 22077, Note_on_c, 3, 74, 90
1, 22079, Note_on_c, 2, 50, 67
1, 22079, Note_on_c, 9, 38, 87
1, 22080, Note_on_c, 9, 51, 93
1, 22080, Note_on_c, 6, 67, 76
1, 22084, Note_off_c, 4, 67, 76
1, 22084, Note_off_c, 3, 67, 76
1, 22085, Note_off_c, 3, 76, 85
1, 22102, Note_off_c, 2, 48, 69
1, 22102, Note_off_c, 9, 38, 87
1, 22103, Note_off_c, 6, 60, 73
1, 22105, Note_off_c, 9, 51, 93
1, 22117, Note_off_c, 3, 74, 90
1, 22118, Note_off_c, 6, 67, 76
1, 22126, Note_off_c, 3, 65, 80
1, 22127, Note_on_c, 6, 64, 58
1, 22127, Note_on_c, 9, 36, 93
1, 22128, Note_on_c, 3, 64, 60
1, 22128, Note_on_c, 3, 72, 75
1, 22148, Note_off_c, 9, 36, 93
1, 22158, Note_off_c, 1, 36, 55
1, 22171, Note_on_c, 4, 64, 78
1, 22171, Note_off_c, 6, 55, 56
1, 22172, Note_on_c, 5, 79, 69
1, 22173, Note_off_c, 6, 48, 61
1, 22173, Note_on_c, 2, 52, 64
1, 22173, Note_off_c, 5, 77, 73
1, 22174, Note_on_c, 1, 36, 62
1, 22175, Note_on_c, 9, 38, 99
1, 22175, Note_on_c, 9, 51, 99
1, 22175, Note_on_c, 6, 60, 69
1, 22177, Note_off_c, 2, 50, 67
1, 22178, Note_off_c, 4, 65, 74
1, 22180, Note_off_c, 6, 64, 58
1, 22203, Note_off_c, 9, 38, 99
1, 22208, Note_off_c, 9, 51, 99
1, 22222, Note_on_c, 1, 28, 68
1, 22222, Note_on_c, 6, 55, 53
1, 22223, Note_off_c, 2, 52, 64
1, 22223, Note_on_c, 9, 36, 79
1, 22225, Note_off_c, 1, 36, 62
1, 22237, Note_off_c, 6, 55, 53
1, 22238, Note_off_c, 9, 36, 79
1, 22253, Control_c, 2, 64, 0
1, 22261, Note_off_c, 5, 72, 42
1, 22262, Note_off_c, 5, 79, 69
1, 22266, Note_on_c, 4, 65, 74
1, 22266, Note_on_c, 5, 81, 63
1, 22267, Note_on_c, 5, 77, 50
1, 22267, Note_off_c, 3, 72, 75
1, 22267, Note_off_c, 3, 64, 60
1, 22269, Note_on_c, 1, 29, 70
1, 22270, Note_on_c, 9, 36, 99
1, 22271, Note_on_c, 9, 51, 99
1, 22271, Note_on_c, 6, 53, 73
1, 22272, Note_on_c, 2, 53, 57
1, 22272, Note_on_c, 2, 57, 53
1, 22272, Note_on_c, 2, 60, 64
1, 22275, Note_on_c, 3, 72, 91
1, 22275, Note_off_c, 4, 64, 78
1, 22278, Note_off_c, 6, 60, 69
1, 22278, Note_off_c, 1, 28, 68
1, 22299, Control_c, 2, 64, 127
1, 22319, Note_on_c, 6, 60, 53
1, 22320, Note_off_c, 9, 51, 99
1, 22352, Note_off_c, 2, 57, 53
1, 22358, Note_off_c, 2, 60, 64
1, 22364, Note_off_c, 3, 72, 91
1, 22365, Note_off_c, 9, 36, 99
1, 22367, Note_on_c, 3, 74, 89
1, 22367, Note_on_c, 9, 51, 99
1, 22367, Note_on_c, 6, 65, 63
1, 22376, Note_off_c, 2, 53, 57
1, 22401, Note_off_c, 9, 51, 99
1, 22414, Note_on_c, 3, 69, 77
1, 22415, Note_on_c, 9, 36, 87
1, 22415, Note_on_c, 3, 65, 66
1, 22415, Note_on_c, 6, 69, 62
1, 22427, Note_off_c, 3, 74, 89
1, 22436, Note_off_c, 9, 36, 87
1, 22458, Note_off_c, 6, 69, 62
1, 22459, Note_on_c, 2, 53, 50
1, 22459, Note_on_c, 2, 57, 54
1, 22460, Note_on_c, 2, 60, 61
1, 22460, Control_c, 2, 64, 0
1, 22463, Note_on_c, 6, 72, 73
1, 22464, Note_on_c, 9, 38, 90
1, 22464, Note_on_c, 9, 51, 99
1, 22478, Note_off_c, 6, 65, 63
1, 22493, Note_off_c, 3, 65, 66
1, 22495, Control_c, 2, 64, 127
1, 22500, Note_off_c, 3, 69, 77
1, 22508, Note_off_c, 6, 72, 73
1, 22512, Note_off_c, 9, 51, 99
1, 22512, Note_on_c, 6, 69, 52
1, 22513, Note_on_c, 3, 65, 78
1, 22513, Note_on_c, 3, 69, 66
1, 22536, Note_off_c, 9, 38, 90
1, 22541, Note_off_c, 6, 60, 53
1, 22553, Note_off_c, 3, 65, 78
1, 22558, Note_off_c, 3, 69, 66
1, 22558, Note_on_c, 3, 67, 72
1, 22559, Note_on_c, 3, 64, 74
1, 22560, Note_on_c, 6, 65, 69
1, 22561, Note_on_c, 9, 51, 102
1, 22561, Note_off_c, 6, 53, 73
1, 22575, Note_off_c, 6, 69, 52
1, 22576, Note_off_c, 2, 60, 61
1, 22580, Note_off_c, 2, 57, 54
1, 22586, Note_off_c, 2, 53, 50
1, 22593, Note_off_c, 9, 51, 102
1, 22603, Note_off_c, 3, 64, 74
1, 22606, Note_on_c, 3, 65, 73
1, 22606, Note_on_c, 3, 69, 78
1, 22607, Note_on_c, 9, 36, 67
1, 22608, Note_off_c, 3, 67, 72
1, 22608, Note_on_c, 6, 60, 51
1, 22617, Note_off_c, 9, 36, 67
1, 22628, Note_off_c, 4, 60, 53
1, 22650, Note_off_c, 6, 65, 69
1, 22650, Note_off_c, 1, 29, 70
1, 22653, Note_on_c, 4, 60, 70
1, 22655, Note_on_c, 6, 53, 64
1, 22655, Note_off_c, 6, 60, 51
1, 22656, Note_on_c, 2, 53, 53
1, 22656, Note_on_c, 2, 57, 55
1, 22656, Note_on_c, 2, 60, 55
1, 22656, Note_on_c, 9, 36, 99
1, 22656, Note_on_c, 9, 51, 105
1, 22658, Note_on_c, 1, 29, 62
1, 22675, Control_c, 2, 64, 0
1, 22703, Note_on_c, 6, 60, 58
1, 22706, Note_off_c, 9, 51, 105
1, 22721, Control_c, 2, 64, 127
1, 22728, Note_off_c, 2, 57, 55
1, 22743, Note_off_c, 9, 36, 99
1, 22746, Note_off_c, 2, 60, 55
1, 22751, Note_off_c, 2, 53, 53
1, 22751, Note_on_c, 9, 51, 99
1, 22751, Note_on_c, 6, 65, 61
1, 22784, Note_off_c, 9, 51, 99
1, 22798, Note_on_c, 9, 36, 87
1, 22798, Note_on_c, 6, 69, 56
1, 22805, Note_off_c, 3, 65, 73
1, 22808, Note_off_c, 3, 69, 78
1, 22824, Note_off_c, 9, 36, 87
1, 22843, Note_off_c, 4, 65, 74
1, 22843, Note_off_c, 6, 69, 56
1, 22845, Note_on_c, 4, 64, 85
1, 22847, Note_on_c, 6, 72, 63
1, 22847, Note_on_c, 2, 60, 63
1, 22848, Note_on_c, 2, 53, 51
1, 22848, Note_on_c, 2, 57, 54
1, 22848, Note_on_c, 9, 38, 102
1, 22848, Note_on_c, 9, 51, 96
1, 22861, Note_off_c, 6, 65, 61
1, 22866, Control_c, 2, 64, 0
1, 22890, Note_off_c, 6, 72, 63
1, 22894, Note_off_c, 9, 51, 96
1, 22895, Note_on_c, 6, 69, 51
1, 22896, Note_on_c, 3, 69, 72
1, 22898, Control_c, 2, 64, 127
1, 22915, Note_off_c, 9, 38, 102
1, 22922, Note_off_c, 1, 29, 62
1, 22928, Note_off_c, 2, 53, 51
1, 22929, Note_off_c, 2, 57, 54
1, 22939, Note_off_c, 4, 64, 85
1, 22939, Note_on_c, 4, 62, 78
1, 22943, Note_on_c, 1, 29, 85
1, 22943, Note_on_c, 9, 51, 105
1, 22944, Note_on_c, 3, 72, 85
1, 22944, Note_on_c, 6, 65, 63
1, 22945, Note_off_c, 6, 69, 51
1, 22950, Note_off_c, 3, 69, 72
1, 22955, Note_off_c, 6, 60, 58
1, 22967, Note_off_c, 6, 53, 64
1, 22984, Note_off_c, 2, 60, 63
1, 22990, Note_off_c, 9, 51, 105
1, 22991, Note_on_c, 1, 38, 61
1, 22991, Note_on_c, 9, 36, 82
1, 22991, Note_on_c, 3, 67, 66
1, 22991, Note_on_c, 3, 76, 81
1, 22992, Note_off_c, 3, 72, 85
1, 22992, Note_on_c, 6, 60, 56
1, 22996, Note_off_c, 6, 65, 63
1, 23002, Note_off_c, 9, 36, 82
1, 23021, Note_off_c, 6, 60, 56
1, 23029, Note_off_c, 1, 29, 85
1, 23033, Note_on_c, 4, 64, 68
1, 23034, Note_off_c, 5, 81, 63
1, 23034, Note_on_c, 5, 79, 58
1, 23038, Note_off_c, 4, 62, 78
1, 23038, Note_on_c, 5, 76, 67
1, 23038, Note_on_c, 2, 55, 59
1, 23039, Note_on_c, 1, 36, 74
1, 23039, Note_on_c, 9, 36, 99
1, 23040, Note_on_c, 9, 51, 105
1, 23040, Note_on_c, 2, 48, 44
1, 23041, Note_on_c, 2, 52, 40
1, 23042, Note_on_c, 6, 48, 67
1, 23047, Note_off_c, 5, 77, 50
1, 23052, Note_off_c, 1, 38, 61
1, 23057, Control_c, 2, 64, 0
1, 23086, Note_off_c, 9, 51, 105
1, 23087, Note_on_c, 6, 55, 45
1, 23100, Control_c, 2, 64, 127
1, 23135, Note_on_c, 9, 51, 105
1, 23135, Note_on_c, 6, 60, 60
1, 23136, Note_off_c, 3, 76, 81
1, 23136, Note_off_c, 3, 67, 66
1, 23141, Note_off_c, 9, 36, 99
1, 23144, Note_off_c, 2, 55, 59
1, 23159, Note_off_c, 2, 52, 40
1, 23161, Note_off_c, 2, 48, 44
1, 23183, Note_on_c, 9, 36, 87
1, 23184, Note_on_c, 6, 64, 53
1, 23192, Note_off_c, 9, 51, 105
1, 23209, Note_off_c, 9, 36, 87
1, 23226, Note_off_c, 6, 64, 53
1, 23229, Note_on_c, 2, 55, 65
1, 23231, Note_on_c, 2, 52, 36
1, 23231, Note_on_c, 3, 64, 68
1, 23231, Note_on_c, 9, 38, 99
1, 23232, Note_on_c, 6, 67, 73
1, 23232, Note_on_c, 3, 72, 83
1, 23232, Note_on_c, 2, 48, 40
1, 23232, Note_on_c, 9, 51, 105
1, 23243, Control_c, 2, 64, 0
1, 23245, Note_off_c, 6, 60, 60
1, 23267, Note_off_c, 9, 51, 105
1, 23271, Note_off_c, 6, 67, 73
1, 23273, Note_off_c, 3, 64, 68
1, 23275, Note_off_c, 3, 72, 83
1, 23276, Control_c, 2, 64, 127
1, 23279, Note_on_c, 3, 65, 63
1, 23279, Note_on_c, 3, 74, 87
1, 23279, Note_on_c, 6, 64, 56
1, 23310, Note_off_c, 9, 38, 99
1, 23323, Note_off_c, 6, 48, 67
1, 23325, Note_off_c, 6, 55, 45
1, 23328, Note_on_c, 6, 60, 67
1, 23328, Note_on_c, 9, 51, 108
1, 23337, Note_off_c, 6, 64, 56
1, 23342, Note_off_c, 2, 48, 40
1, 23347, Note_off_c, 2, 55, 65
1, 23354, Note_off_c, 2, 52, 36
1, 23366, Note_off_c, 3, 65, 63
1, 23367, Note_off_c, 3, 74, 87
1, 23370, Note_off_c, 9, 51, 108
1, 23373, Note_on_c, 3, 64, 71
1, 23373, Note_on_c, 6, 55, 47
1, 23374, Note_on_c, 3, 72, 82
1, 23376, Note_on_c, 9, 36, 82
1, 23391, Note_off_c, 9, 36, 82
1, 23420, Note_on_c, 2, 52, 37
1, 23421, Note_on_c, 2, 55, 61
1, 23422, Note_on_c, 2, 48, 54
1, 23422, Note_on_c, 6, 48, 63
1, 23423, Note_on_c, 9, 49, 87
1, 23423, Note_on_c, 9, 36, 99
1, 23424, Note_off_c, 6, 55, 47
1, 23424, Note_off_c, 6, 60, 67
1, 23428, Control_c, 2, 64, 0
1, 23447, Note_off_c, 9, 49, 87
1, 23462, Control_c, 2, 64, 127
1, 23471, Note_on_c, 6, 55, 61
1, 23503, Note_off_c, 2, 48, 54
1, 23505, Note_off_c, 2, 52, 37
1, 23519, Note_on_c, 3, 67, 66
1, 23519, Note_on_c, 3, 76, 87
1, 23520, Note_off_c, 9, 36, 99
1, 23520, Note_on_c, 6, 60, 69
1, 23520, Note_on_c, 9, 51, 63
1, 23522, Note_off_c, 3, 72, 82
1, 23527, Note_off_c, 3, 64, 71
1, 23537, Note_off_c, 9, 51, 63
1, 23542, Note_off_c, 2, 55, 61
1, 23567, Note_on_c, 6, 64, 56
1, 23567, Note_on_c, 9, 36, 87
1, 23568, Note_off_c, 3, 76, 87
1, 23568, Note_off_c, 3, 67, 66
1, 23568, Note_on_c, 3, 65, 72
1, 23568, Note_on_c, 3, 74, 94
1, 23583, Note_off_c, 4, 60, 70
1, 23590, Note_off_c, 9, 36, 87
1, 23612, Note_off_c, 6, 64, 56
1, 23613, Note_on_c, 2, 47, 69
1, 23613, Note_on_c, 2, 59, 87
1, 23613, Note_on_c, 1, 35, 63
1, 23613, Note_on_c, 4, 59, 72
1, 23614, Note_on_c, 4, 62, 74
1, 23616, Note_on_c, 5, 77, 82
1, 23616, Note_off_c, 4, 64, 68
1, 23617, Note_on_c, 9, 51, 99
1, 23617, Note_on_c, 6, 67, 82
1, 23617, Note_on_c, 9, 38, 93
1, 23618, Note_on_c, 5, 74, 69
1, 23620, Note_off_c, 1, 36, 74
1, 23620, Note_off_c, 5, 76, 67
1, 23624, Note_off_c, 5, 79, 58
1, 23628, Control_c, 2, 64, 0
1, 23649, Note_off_c, 6, 60, 69
1, 23652, Note_off_c, 3, 74, 94
1, 23654, Note_off_c, 3, 65, 72
1, 23658, Note_off_c, 6, 67, 82
1, 23660, Note_off_c, 9, 51, 99
1, 23662, Control_c, 2, 64, 127
1, 23664, Note_on_c, 3, 64, 73
1, 23664, Note_on_c, 3, 72, 85
1, 23664, Note_on_c, 6, 64, 58
1, 23684, Note_off_c, 9, 38, 93
1, 23707, Note_off_c, 3, 64, 73
1, 23708, Note_off_c, 6, 55, 61
1, 23710, Note_off_c, 3, 72, 85
1, 23711, Note_on_c, 9, 51, 102
1, 23712, Note_on_c, 3, 65, 70
1, 23712, Note_on_c, 3, 74, 97
1, 23712, Note_on_c, 6, 62, 73
1, 23718, Note_off_c, 6, 64, 58
1, 23726, Note_off_c, 6, 48, 63
1, 23740, Note_off_c, 9, 51, 102
1, 23758, Note_on_c, 9, 36, 87
1, 23760, Note_on_c, 6, 59, 50
1, 23763, Note_off_c, 6, 62, 73
1, 23765, Note_off_c, 3, 65, 70
1, 23774, Note_off_c, 3, 74, 97
1, 23775, Note_off_c, 9, 36, 87
1, 23786, Note_off_c, 6, 59, 50
1, 23790, Note_off_c, 2, 47, 69
1, 23792, Note_off_c, 5, 74, 69
1, 23793, Note_off_c, 5, 77, 82
1, 23803, Note_off_c, 4, 62, 74
1, 23803, Note_off_c, 4, 59, 72
1, 23804, Note_on_c, 5, 72, 67
1, 23805, Note_on_c, 1, 33, 66
1, 23805, Note_on_c, 4, 57, 78
1, 23806, Note_on_c, 4, 64, 74
1, 23806, Note_on_c, 5, 76, 69
1, 23807, Note_on_c, 2, 52, 66
1, 23807, Note_on_c, 9, 36, 108
1, 23807, Note_on_c, 9, 49, 96
1, 23808, Note_on_c, 3, 64, 80
1, 23808, Note_on_c, 3, 72, 98
1, 23808, Note_on_c, 6, 45, 82
1, 23809, Note_on_c, 2, 48, 56
1, 23810, Note_on_c, 2, 45, 48
1, 23812, Note_off_c, 1, 35, 63
1, 23826, Note_off_c, 2, 59, 87
1, 23833, Control_c, 2, 64, 0
1, 23852, Note_off_c, 3, 64, 80
1, 23852, Note_off_c, 9, 49, 96
1, 23853, Note_on_c, 3, 69, 87
1, 23853, Note_on_c, 3, 64, 75
1, 23857, Note_on_c, 6, 52, 60
1, 23876, Note_off_c, 3, 72, 98
1, 23885, Control_c, 2, 64, 127
1, 23904, Note_on_c, 9, 51, 93
1, 23905, Note_on_c, 6, 57, 67
1, 23911, Note_off_c, 2, 48, 56
1, 23913, Note_off_c, 9, 36, 108
1, 23928, Note_off_c, 2, 45, 48
1, 23932, Note_off_c, 2, 52, 66
1, 23952, Note_on_c, 9, 36, 73
1, 23952, Note_on_c, 6, 60, 62
1, 23961, Note_off_c, 9, 51, 93
1, 23977, Note_off_c, 9, 36, 73
1, 23996, Note_off_c, 6, 60, 62
1, 23999, Note_on_c, 2, 52, 67
1, 24000, Note_on_c, 2, 45, 45
1, 24000, Note_on_c, 2, 48, 49
1, 24000, Note_on_c, 9, 51, 102
1, 24000, Note_on_c, 9, 38, 90
1, 24000, Note_on_c, 6, 64, 87
1, 24021, Control_c, 2, 64, 0
1, 24038, Note_off_c, 6, 57, 67
1, 24040, Note_off_c, 6, 64, 87
1, 24048, Note_on_c, 6, 60, 67
1, 24055, Note_off_c, 9, 51, 102
1, 24058, Control_c, 2, 64, 127
1, 24083, Note_off_c, 6, 52, 60
1, 24088, Note_off_c, 9, 38, 90
1, 24092, Note_off_c, 6, 45, 82
1, 24095, Note_on_c, 9, 51, 102
1, 24096, Note_on_c, 6, 57, 73
1, 24111, Note_off_c, 6, 60, 67
1, 24116, Note_off_c, 3, 69, 87
1, 24131, Note_off_c, 2, 48, 49
1, 24132, Note_off_c, 2, 52, 67
1, 24142, Note_off_c, 2, 45, 45
1, 24142, Note_on_c, 9, 36, 76
1, 24143, Note_on_c, 3, 69, 86
1, 24143, Note_on_c, 6, 52, 56
1, 24146, Note_off_c, 3, 64, 75
1, 24149, Note_off_c, 9, 51, 102
1, 24156, Note_off_c, 9, 36, 76
1, 24171, Note_off_c, 6, 57, 73
1, 24175, Note_off_c, 1, 33, 66
1, 24191, Note_on_c, 9, 51, 102
1, 24191, Note_on_c, 2, 48, 43
1, 24191, Note_on_c, 2, 52, 62
1, 24191, Note_on_c, 9, 36, 93
1, 24191, Note_on_c, 6, 45, 69
1, 24192, Note_off_c, 3, 69, 86
1, 24192, Note_on_c, 3, 76, 90
1, 24192, Note_on_c, 1, 33, 74
1, 24192, Note_off_c, 6, 52, 56
1, 24193, Note_on_c, 2, 45, 42
1, 24206, Control_c, 2, 64, 0
1, 24224, Note_off_c, 3, 76, 90
1, 24239, Note_on_c, 3, 76, 89
1, 24240, Control_c, 2, 64, 127
1, 24240, Note_off_c, 9, 51, 102
1, 24240, Note_on_c, 6, 52, 67
1, 24287, Note_on_c, 9, 51, 99
1, 24288, Note_on_c, 6, 57, 64
1, 24305, Note_off_c, 9, 36, 93
1, 24334, Note_on_c, 3, 74, 95
1, 24335, Note_on_c, 9, 36, 93
1, 24336, Note_on_c, 6, 60, 53
1, 24344, Note_off_c, 3, 76, 89
1, 24350, Note_off_c, 9, 51, 99
1, 24360, Note_off_c, 6, 57, 64
1, 24364, Note_off_c, 9, 36, 93
1, 24369, Note_off_c, 2, 45, 42
1, 24371, Note_off_c, 1, 33, 74
1, 24372, Note_off_c, 6, 60, 53
1, 24372, Note_off_c, 6, 52, 67
1, 24372, Note_off_c, 6, 45, 69
1, 24379, Note_off_c, 4, 64, 74
1, 24379, Note_off_c, 4, 57, 78
1, 24380, Note_off_c, 2, 48, 43
1, 24380, Note_off_c, 5, 76, 69
1, 24381, Note_on_c, 4, 67, 80
1, 24382, Note_on_c, 4, 55, 74
1, 24384, Note_on_c, 1, 31, 73
1, 24384, Note_on_c, 6, 43, 69
1, 24384, Note_on_c, 9, 51, 96
1, 24384, Note_on_c, 2, 55, 76
1, 24384, Note_on_c, 9, 38, 99
1, 24385, Note_on_c, 2, 43, 56
1, 24387, Note_on_c, 5, 79, 66
1, 24388, Note_off_c, 5, 72, 67
1, 24388, Note_on_c, 5, 74, 67
1, 24399, Control_c, 2, 64, 0
1, 24406, Note_off_c, 2, 52, 62
1, 24432, Note_on_c, 3, 72, 89
1, 24433, Note_on_c, 6, 50, 67
1, 24436, Note_off_c, 9, 51, 96
1, 24436, Control_c, 2, 64, 127
1, 24439, Note_off_c, 3, 74, 95
1, 24462, Note_off_c, 9, 38, 99
1, 24479, Note_off_c, 3, 72, 89
1, 24480, Note_on_c, 3, 74, 95
1, 24480, Note_on_c, 9, 51, 99
1, 24481, Note_on_c, 6, 55, 64
1, 24483, Note_off_c, 2, 43, 56
1, 24527, Note_on_c, 9, 36, 73
1, 24528, Note_on_c, 6, 59, 53
1, 24530, Note_off_c, 9, 51, 99
1, 24542, Note_off_c, 9, 36, 73
1, 24552, Note_off_c, 6, 55, 64
1, 24563, Note_off_c, 6, 59, 53
1, 24564, Note_off_c, 6, 50, 67
1, 24564, Note_off_c, 6, 43, 69
1, 24567, Note_off_c, 5, 74, 67
1, 24570, Note_on_c, 5, 72, 63
1, 24571, Note_off_c, 4, 55, 74
1, 24571, Note_off_c, 4, 67, 80
1, 24571, Note_on_c, 4, 60, 70
1, 24571, Note_on_c, 4, 65, 91
1, 24573, Note_on_c, 3, 72, 92
1, 24573, Note_on_c, 3, 69, 73
1, 24574, Note_off_c, 5, 79, 66
1, 24575, Note_on_c, 2, 45, 34
1, 24575, Note_on_c, 2, 48, 48
1, 24575, Note_on_c, 6, 41, 76
1, 24576, Note_off_c, 1, 31, 73
1, 24576, Note_on_c, 1, 29, 73
1, 24576, Note_on_c, 5, 81, 53
1, 24576, Note_on_c, 9, 36, 99
1, 24577, Note_on_c, 9, 51, 108
1, 24577, Note_on_c, 2, 41, 50
1, 24585, Control_c, 2, 64, 0
1, 24585, Note_off_c, 3, 74, 95
1, 24622, Note_off_c, 2, 55, 76
1, 24624, Note_on_c, 6, 48, 58
1, 24632, Note_off_c, 9, 51, 108
1, 24637, Note_off_c, 3, 69, 73
1, 24653, Control_c, 2, 64, 127
1, 24671, Note_on_c, 6, 53, 62
1, 24672, Note_on_c, 3, 65, 67
1, 24672, Note_on_c, 3, 69, 78
1, 24672, Note_on_c, 9, 51, 93
1, 24676, Note_off_c, 3, 72, 92
1, 24682, Note_off_c, 9, 36, 99
1, 24686, Note_off_c, 2, 41, 50
1, 24698, Note_off_c, 2, 45, 34
1, 24702, Note_off_c, 2, 48, 48
1, 24719, Note_on_c, 6, 57, 56
1, 24719, Note_on_c, 9, 36, 87
1, 24734, Note_off_c, 9, 51, 93
1, 24744, Note_off_c, 9, 36, 87
1, 24756, Note_off_c, 6, 57, 56
1, 24766, Note_on_c, 2, 48, 65
1, 24768, Note_on_c, 2, 41, 38
1, 24768, Note_on_c, 2, 45, 32
1, 24768, Note_on_c, 6, 60, 87
1, 24769, Note_on_c, 9, 51, 99
1, 24769, Note_on_c, 9, 38, 99
1, 24784, Control_c, 2, 64, 0
1, 24807, Note_off_c, 6, 60, 87
1, 24808, Note_off_c, 9, 51, 99
1, 24816, Note_on_c, 6, 57, 60
1, 24820, Control_c, 2, 64, 127
1, 24825, Note_off_c, 6, 53, 62
1, 24842, Note_off_c, 9, 38, 99
1, 24863, Note_off_c, 3, 69, 78
1, 24864, Note_off_c, 2, 45, 32
1, 24864, Note_off_c, 2, 41, 38
1, 24864, Note_off_c, 2, 48, 65
1, 24864, Note_on_c, 9, 51, 87
1, 24864, Note_on_c, 6, 53, 76
1, 24866, Note_off_c, 3, 65, 67
1, 24871, Note_off_c, 6, 57, 60
1, 24875, Note_off_c, 6, 48, 58
1, 24902, Note_off_c, 9, 51, 87
1, 24908, Note_off_c, 6, 41, 76
1, 24911, Note_on_c, 6, 48, 64
1, 24911, Note_on_c, 9, 36, 79
1, 24926, Note_off_c, 9, 36, 79
1, 24930, Note_off_c, 1, 29, 73
1, 24948, Note_off_c, 5, 81, 53
1, 24952, Note_off_c, 5, 72, 63
1, 24954, Control_c, 2, 64, 0
1, 24955, Note_off_c, 4, 65, 91
1, 24956, Note_on_c, 2, 41, 61
1, 24957, Note_on_c, 1, 29, 91
1, 24957, Note_on_c, 4, 68, 70
1, 24958, Note_on_c, 3, 84, 105
1, 24959, Note_on_c, 9, 36, 99
1, 24959, Note_on_c, 6, 41, 69
1, 24959, Note_on_c, 9, 49, 108
1, 24960, Note_on_c, 5, 77, 80
1, 24960, Note_on_c, 5, 68, 80
1, 24960, Note_off_c, 6, 53, 76
1, 24961, Note_off_c, 6, 48, 64
1, 25007, Note_on_c, 6, 48, 62
1, 25011, Note_off_c, 9, 49, 108
1, 25017, Note_off_c, 9, 36, 99
1, 25051, Note_on_c, 2, 44, 66
1, 25053, Note_on_c, 1, 32, 72
1, 25055, Note_on_c, 9, 47, 87
1, 25056, Note_on_c, 3, 80, 101
1, 25056, Note_on_c, 6, 53, 69
1, 25056, Note_on_c, 9, 45, 102
1, 25060, Note_off_c, 1, 29, 91
1, 25064, Note_off_c, 9, 45, 102
1, 25065, Note_off_c, 9, 47, 87
1, 25070, Note_off_c, 3, 84, 105
1, 25071, Note_off_c, 2, 41, 61
1, 25103, Note_on_c, 6, 56, 82
1, 25139, Note_off_c, 6, 53, 69
1, 25148, Note_on_c, 2, 48, 74
1, 25148, Note_off_c, 6, 56, 82
1, 25149, Note_on_c, 1, 36, 89
1, 25150, Note_on_c, 3, 77, 99
1, 25150, Note_on_c, 9, 45, 102
1, 25150, Note_on_c, 9, 43, 102
1, 25152, Note_on_c, 6, 60, 69
1, 25156, Note_off_c, 3, 80, 101
1, 25156, Note_off_c, 1, 32, 72
1, 25160, Note_off_c, 9, 43, 102
1, 25161, Note_off_c, 9, 45, 102
1, 25183, Note_off_c, 2, 44, 66
1, 25191, Note_off_c, 6, 60, 69
1, 25200, Note_on_c, 6, 56, 82
1, 25242, Note_off_c, 1, 36, 89
1, 25243, Note_on_c, 2, 53, 72
1, 25245, Note_on_c, 3, 72, 93
1, 25245, Note_on_c, 1, 41, 78
1, 25245, Note_off_c, 6, 56, 82
1, 25246, Note_on_c, 9, 43, 87
1, 25246, Note_on_c, 9, 41, 102
1, 25248, Note_on_c, 6, 53, 76
1, 25251, Control_c, 2, 64, 127
1, 25257, Note_off_c, 9, 43, 87
1, 25257, Note_off_c, 9, 41, 102
1, 25259, Note_off_c, 2, 48, 74
1, 25263, Note_off_c, 3, 77, 99
1, 25263, Note_off_c, 6, 48, 62
1, 25296, Note_on_c, 9, 49, 81
1, 25296, Note_on_c, 6, 48, 73
1, 25297, Note_off_c, 9, 49, 81
1, 25300, Note_off_c, 6, 41, 69
1, 25302, Note_off_c, 6, 53, 76
1, 25304, Note_off_c, 2, 53, 72
1, 25314, Note_off_c, 6, 48, 73
1, 25324, Note_off_c, 3, 72, 93
1, 25332, Note_off_c, 5, 77, 80
1, 25337, Note_on_c, 5, 76, 62
1, 25339, Note_on_c, 5, 67, 63
1, 25341, Note_on_c, 4, 67, 64
1, 25341, Note_off_c, 4, 68, 70
1, 25342, Note_on_c, 3, 76, 87
1, 25342, Note_on_c, 2, 55, 67
1, 25342, Note_off_c, 5, 68, 80
1, 25343, Note_on_c, 2, 48, 37
1, 25343, Note_on_c, 2, 52, 63
1, 25343, Note_on_c, 3, 72, 72
1, 25343, Note_on_c, 1, 36, 82
1, 25344, Note_on_c, 9, 49, 105
1, 25344, Note_on_c, 9, 36, 99
1, 25346, Note_on_c, 6, 48, 73
1, 25353, Note_off_c, 1, 41, 78
1, 25359, Control_c, 2, 64, 0
1, 25373, Note_off_c, 9, 49, 105
1, 25393, Note_on_c, 6, 55, 64
1, 25405, Control_c, 2, 64, 127
1, 25433, Note_off_c, 9, 36, 99
1, 25441, Note_on_c, 6, 60, 69
1, 25442, Note_on_c, 9, 51, 87
1, 25457, Note_off_c, 2, 52, 63
1, 25482, Note_off_c, 2, 55, 67
1, 25489, Note_on_c, 9, 36, 87
1, 25489, Note_on_c, 6, 64, 82
1, 25491, Note_off_c, 9, 51, 87
1, 25510, Note_off_c, 9, 36, 87
1, 25529, Note_off_c, 6, 64, 82
1, 25533, Note_on_c, 1, 31, 87
1, 25534, Note_on_c, 2, 55, 67
1, 25535, Note_on_c, 2, 43, 52
1, 25536, Note_off_c, 1, 36, 82
1, 25536, Note_off_c, 6, 55, 64
1, 25536, Note_off_c, 6, 48, 73
1, 25536, Note_on_c, 9, 51, 99
1, 25536, Note_on_c, 6, 67, 76
1, 25537, Note_off_c, 2, 48, 37
1, 25537, Note_on_c, 9, 38, 99
1, 25541, Control_c, 2, 64, 0
1, 25542, Note_off_c, 6, 60, 69
1, 25575, Note_off_c, 6, 67, 76
1, 25583, Note_on_c, 6, 64, 76
1, 25593, Note_off_c, 9, 51, 99
1, 25598, Control_c, 2, 64, 127
1, 25614, Note_off_c, 9, 38, 99
1, 25624, Note_off_c, 2, 43, 52
1, 25629, Note_on_c, 2, 56, 70
1, 25630, Note_on_c, 2, 44, 53
1, 25630, Note_on_c, 1, 32, 85
1, 25630, Note_off_c, 6, 64, 76
1, 25631, Note_on_c, 9, 51, 102
1, 25632, Note_on_c, 6, 60, 73
1, 25641, Note_off_c, 2, 55, 67
1, 25643, Note_off_c, 1, 31, 87
1, 25666, Note_off_c, 3, 72, 72
1, 25675, Note_off_c, 9, 51, 102
1, 25678, Note_on_c, 9, 36, 63
1, 25679, Note_on_c, 6, 56, 56
1, 25683, Note_off_c, 6, 60, 73
1, 25691, Note_off_c, 9, 36, 63
1, 25699, Note_off_c, 4, 60, 70
1, 25702, Note_off_c, 6, 56, 56
1, 25704, Note_off_c, 5, 67, 63
1, 25704, Note_off_c, 5, 76, 62
1, 25712, Control_c, 2, 64, 0
1, 25719, Note_off_c, 2, 44, 53
1, 25723, Note_off_c, 4, 67, 64
1, 25725, Note_on_c, 1, 33, 85
1, 25725, Note_on_c, 4, 61, 65
1, 25725, Note_on_c, 4, 69, 65
1, 25726, Note_on_c, 2, 45, 52
1, 25726, Note_off_c, 1, 32, 85
1, 25727, Note_on_c, 2, 57, 68
1, 25727, Note_on_c, 9, 36, 96
1, 25727, Note_on_c, 9, 51, 102
1, 25727, Note_on_c, 6, 45, 69
1, 25728, Note_on_c, 5, 69, 50
1, 25732, Note_on_c, 5, 73, 82
1, 25741, Note_off_c, 2, 56, 70
1, 25742, Note_off_c, 3, 76, 87
1, 25776, Note_on_c, 3, 76, 89
1, 25776, Note_on_c, 6, 52, 56
1, 25782, Note_off_c, 9, 51, 102
1, 25798, Note_off_c, 3, 76, 89
1, 25812, Control_c, 2, 64, 127
1, 25823, Note_on_c, 9, 51, 99
1, 25824, Note_on_c, 3, 76, 86
1, 25824, Note_on_c, 6, 57, 69
1, 25827, Note_off_c, 9, 36, 96
1, 25843, Note_off_c, 3, 76, 86
1, 25859, Note_off_c, 2, 45, 52
1, 25870, Note_on_c, 9, 36, 82
1, 25871, Note_on_c, 3, 76, 87
1, 25872, Note_on_c, 6, 61, 87
1, 25872, Note_off_c, 9, 51, 99
1, 25890, Note_off_c, 6, 57, 69
1, 25900, Note_off_c, 9, 36, 82
1, 25911, Note_off_c, 2, 57, 68
1, 25914, Note_on_c, 4, 64, 68
1, 25915, Note_off_c, 4, 61, 65
1, 25918, Note_on_c, 2, 55, 62
1, 25918, Note_on_c, 9, 38, 96
1, 25919, Note_on_c, 9, 51, 112
1, 25920, Note_on_c, 2, 45, 50
1, 25920, Note_on_c, 2, 49, 51
1, 25920, Note_on_c, 6, 64, 69
1, 25922, Note_off_c, 6, 61, 87
1, 25926, Control_c, 2, 64, 0
1, 25928, Note_off_c, 6, 52, 56
1, 25963, Note_on_c, 6, 52, 11
1, 25965, Note_on_c, 3, 77, 92
1, 25968, Note_off_c, 3, 76, 87
1, 25968, Note_on_c, 6, 61, 87
1, 25968, Note_off_c, 9, 51, 112
1, 25968, Note_off_c, 6, 64, 69
1, 25972, Control_c, 2, 64, 127
1, 25997, Note_off_c, 1, 33, 85
1, 26006, Note_off_c, 9, 38, 96
1, 26008, Note_off_c, 6, 52, 11
1, 26013, Note_on_c, 3, 79, 99
1, 26013, Note_on_c, 1, 33, 80
1, 26014, Note_on_c, 9, 51, 99
1, 26015, Note_off_c, 2, 55, 62
1, 26015, Note_on_c, 6, 57, 73
1, 26016, Note_off_c, 3, 77, 92
1, 26017, Note_off_c, 2, 49, 51
1, 26034, Note_off_c, 6, 45, 69
1, 26036, Note_off_c, 2, 45, 50
1, 26053, Note_off_c, 9, 51, 99
1, 26055, Note_off_c, 5, 69, 50
1, 26062, Note_on_c, 9, 36, 69
1, 26063, Note_on_c, 6, 52, 56
1, 26065, Note_off_c, 5, 73, 82
1, 26078, Note_off_c, 9, 36, 69
1, 26082, Note_off_c, 6, 52, 56
1, 26089, Note_off_c, 6, 61, 87
1, 26096, Note_off_c, 6, 57, 73
1, 26107, Note_off_c, 4, 64, 68
1, 26107, Note_off_c, 1, 33, 80
1, 26109, Note_on_c, 4, 62, 70
1, 26109, Note_on_c, 1, 38, 74
1, 26110, Note_on_c, 2, 50, 45
1, 26110, Note_on_c, 9, 49, 90
1, 26111, Note_on_c, 2, 53, 47
1, 26111, Note_on_c, 2, 57, 57
1, 26111, Note_on_c, 9, 36, 96
1, 26111, Note_on_c, 5, 74, 66
1, 26112, Note_off_c, 3, 79, 99
1, 26112, Note_on_c, 3, 74, 98
1, 26112, Note_on_c, 6, 50, 69
1, 26112, Note_on_c, 5, 69, 61
1, 26119, Control_c, 2, 64, 0
1, 26156, Note_off_c, 9, 49, 90
1, 26160, Note_on_c, 6, 57, 52
1, 26163, Control_c, 2, 64, 127
1, 26205, Note_off_c, 2, 57, 57
1, 26206, Note_on_c, 9, 51, 82
1, 26207, Note_on_c, 6, 62, 67
1, 26208, Note_off_c, 9, 36, 96
1, 26209, Note_off_c, 2, 53, 47
1, 26220, Note_off_c, 2, 50, 45
1, 26243, Note_off_c, 9, 51, 82
1, 26254, Note_on_c, 9, 36, 73
1, 26255, Note_on_c, 6, 65, 82
1, 26256, Note_off_c, 3, 74, 98
1, 26256, Note_on_c, 3, 72, 91
1, 26288, Note_off_c, 6, 65, 82
1, 26290, Note_off_c, 9, 36, 73
1, 26302, Note_on_c, 2, 57, 57
1, 26303, Note_on_c, 2, 50, 41
1, 26303, Note_on_c, 6, 69, 76
1, 26304, Note_on_c, 2, 53, 44
1, 26304, Note_on_c, 9, 38, 93
1, 26304, Note_on_c, 9, 51, 99
1, 26315, Control_c, 2, 64, 0
1, 26337, Note_off_c, 6, 62, 67
1, 26352, Note_off_c, 3, 72, 91
1, 26352, Note_on_c, 3, 74, 97
1, 26353, Note_on_c, 6, 65, 82
1, 26353, Note_off_c, 6, 69, 76
1, 26357, Note_off_c, 9, 51, 99
1, 26358, Control_c, 2, 64, 127
1, 26359, Note_off_c, 6, 57, 52
1, 26383, Note_off_c, 2, 53, 44
1, 26395, Note_off_c, 6, 65, 82
1, 26399, Note_on_c, 1, 29, 85
1, 26399, Note_off_c, 9, 38, 93
1, 26400, Note_off_c, 3, 74, 97
1, 26400, Note_on_c, 3, 72, 85
1, 26400, Note_on_c, 6, 62, 71
1, 26400, Note_off_c, 2, 57, 57
1, 26401, Note_on_c, 9, 51, 99
1, 26406, Note_off_c, 2, 50, 41
1, 26416, Note_off_c, 1, 38, 74
1, 26418, Note_off_c, 6, 50, 69
1, 26435, Note_off_c, 5, 69, 61
1, 26448, Note_on_c, 6, 57, 61
1, 26448, Note_on_c, 9, 36, 38
1, 26450, Note_off_c, 5, 74, 66
1, 26451, Note_off_c, 6, 62, 71
1, 26457, Note_off_c, 9, 51, 99
1, 26462, Note_off_c, 9, 36, 38
1, 26464, Note_off_c, 6, 57, 61
1, 26484, Note_on_c, 6, 43, 66
1, 26484, Note_on_c, 5, 67, 52
1, 26486, Note_on_c, 5, 74, 62
1, 26490, Note_on_c, 4, 67, 62
1, 26491, Note_off_c, 4, 69, 65
1, 26492, Note_on_c, 2, 55, 55
1, 26494, Note_on_c, 2, 43, 58
1, 26494, Note_on_c, 1, 31, 70
1, 26494, Note_on_c, 6, 50, 68
1, 26496, Note_off_c, 3, 72, 85
1, 26496, Note_on_c, 3, 67, 73
1, 26496, Note_on_c, 3, 71, 94
1, 26496, Control_c, 2, 64, 0
1, 26497, Note_on_c, 9, 51, 90
1, 26497, Note_on_c, 9, 36, 90
1, 26506, Note_on_c, 6, 55, 69
1, 26507, Note_off_c, 1, 29, 85
1, 26518, Note_on_c, 6, 59, 71
1, 26533, Control_c, 2, 64, 127
1, 26550, Note_off_c, 2, 43, 58
1, 26551, Note_off_c, 2, 55, 55
1, 26551, Note_off_c, 9, 51, 90
1, 26589, Note_on_c, 2, 55, 77
1, 26590, Note_on_c, 2, 43, 57
1, 26591, Note_off_c, 9, 36, 90
1, 26593, Note_on_c, 9, 51, 99
1, 26598, Control_c, 2, 64, 0
1, 26628, Control_c, 2, 64, 127
1, 26641, Note_on_c, 9, 36, 82
1, 26652, Note_off_c, 9, 51, 99
1, 26668, Note_off_c, 9, 36, 82
1, 26669, Control_c, 2, 64, 0
1, 26684, Note_on_c, 2, 57, 73
1, 26684, Note_on_c, 2, 45, 59
1, 26685, Note_on_c, 1, 33, 72
1, 26686, Note_off_c, 1, 31, 70
1, 26689, Note_on_c, 9, 51, 93
1, 26689, Note_on_c, 9, 38, 93
1, 26693, Note_off_c, 2, 55, 77
1, 26693, Note_off_c, 2, 43, 57
1, 26702, Control_c, 2, 64, 127
1, 26715, Note_off_c, 9, 51, 93
1, 26736, Note_on_c, 9, 51, 61
1, 26744, Note_off_c, 9, 51, 61
1, 26766, Control_c, 2, 64, 0
1, 26776, Note_on_c, 4, 65, 64
1, 26781, Note_on_c, 2, 59, 73
1, 26782, Note_on_c, 2, 47, 68
1, 26782, Note_on_c, 1, 35, 72
1, 26782, Note_off_c, 9, 38, 93
1, 26783, Note_off_c, 2, 45, 59
1, 26784, Note_off_c, 3, 71, 94
1, 26784, Note_off_c, 3, 67, 73
1, 26785, Note_on_c, 9, 51, 102
1, 26786, Note_off_c, 4, 67, 62
1, 26789, Note_off_c, 2, 57, 73
1, 26792, Note_off_c, 1, 33, 72
1, 26801, Control_c, 2, 64, 127
1, 26822, Note_off_c, 9, 51, 102
1, 26838, Note_off_c, 6, 43, 66
1, 26839, Note_off_c, 5, 74, 62
1, 26840, Note_off_c, 5, 67, 52
1, 26842, Note_off_c, 6, 59, 71
1, 26842, Note_off_c, 6, 55, 69
1, 26842, Note_off_c, 6, 50, 68
1, 26849, Control_c, 2, 64, 0
1, 26857, Note_off_c, 2, 47, 68
1, 26862, Note_off_c, 2, 59, 73
1, 26867, Note_off_c, 4, 62, 70
1, 26877, Note_on_c, 4, 60, 55
1, 26878, Note_off_c, 1, 35, 72
1, 26878, Note_on_c, 1, 36, 68
1, 26878, Note_on_c, 4, 64, 59
1, 26880, Control_c, 2, 64, 127
1, 26880, Note_on_c, 2, 48, 57
1, 26880, Note_on_c, 2, 52, 63
1, 26880, Note_on_c, 2, 55, 63
1, 26880, Note_on_c, 5, 67, 63
1, 26880, Note_off_c, 4, 65, 64
1, 26880, Note_on_c, 9, 42, 87
1, 26881, Note_on_c, 9, 36, 69
1, 26881, Note_on_c, 5, 76, 63
1, 26898, Note_off_c, 9, 42, 87
1, 26927, Note_on_c, 9, 42, 56
1, 26938, Note_off_c, 9, 42, 56
1, 26975, Note_on_c, 9, 42, 76
1, 26978, Note_off_c, 2, 48, 57
1, 26984, Note_off_c, 9, 42, 76
1, 26998, Note_off_c, 2, 55, 63
1, 26999, Note_off_c, 2, 52, 63
1, 27022, Note_on_c, 9, 42, 69
1, 27023, Note_on_c, 2, 48, 54
1, 27031, Note_off_c, 9, 42, 69
1, 27035, Note_off_c, 9, 36, 69
1, 27071, Note_on_c, 2, 55, 66
1, 27071, Note_on_c, 9, 38, 96
1, 27071, Note_on_c, 9, 46, 99
1, 27072, Note_on_c, 2, 52, 66
1, 27074, Note_on_c, 3, 72, 79
1, 27085, Note_off_c, 9, 46, 99
1, 27096, Note_off_c, 3, 72, 79
1, 27120, Note_on_c, 3, 72, 70
1, 27120, Note_on_c, 9, 42, 42
1, 27125, Note_off_c, 9, 42, 42
1, 27146, Note_off_c, 3, 72, 70
1, 27153, Note_off_c, 9, 38, 96
1, 27167, Note_on_c, 9, 42, 69
1, 27167, Note_on_c, 3, 72, 62
1, 27174, Note_off_c, 9, 42, 69
1, 27188, Note_off_c, 3, 72, 62
1, 27194, Note_off_c, 2, 52, 66
1, 27196, Note_off_c, 2, 55, 66
1, 27209, Note_off_c, 2, 48, 54
1, 27214, Note_on_c, 3, 72, 73
1, 27215, Note_on_c, 9, 36, 93
1, 27215, Note_on_c, 9, 42, 82
1, 27222, Note_off_c, 9, 42, 82
1, 27225, Note_off_c, 9, 36, 93
1, 27234, Note_off_c, 1, 36, 68
1, 27263, Note_on_c, 1, 36, 72
1, 27263, Note_on_c, 9, 36, 105
1, 27263, Note_on_c, 9, 42, 105
1, 27264, Note_on_c, 2, 55, 46
1, 27265, Note_on_c, 2, 52, 46
1, 27266, Note_on_c, 2, 48, 40
1, 27279, Note_off_c, 9, 42, 105
1, 27287, Control_c, 2, 64, 0
1, 27290, Note_off_c, 3, 72, 73
1, 27310, Note_on_c, 3, 72, 79
1, 27311, Note_on_c, 9, 42, 69
1, 27319, Note_off_c, 9, 42, 69
1, 27322, Control_c, 2, 64, 127
1, 27330, Note_off_c, 3, 72, 79
1, 27359, Note_on_c, 9, 42, 76
1, 27360, Note_on_c, 3, 72, 75
1, 27366, Note_off_c, 9, 36, 105
1, 27366, Note_off_c, 9, 42, 76
1, 27368, Note_off_c, 2, 52, 46
1, 27371, Note_off_c, 2, 55, 46
1, 27373, Note_off_c, 2, 48, 40
1, 27383, Note_off_c, 3, 72, 75
1, 27407, Note_on_c, 9, 42, 79
1, 27408, Note_on_c, 3, 72, 80
1, 27408, Note_on_c, 9, 36, 79
1, 27416, Note_off_c, 9, 42, 79
1, 27420, Note_off_c, 9, 36, 79
1, 27452, Note_on_c, 4, 55, 76
1, 27455, Note_on_c, 2, 48, 46
1, 27455, Note_on_c, 2, 55, 50
1, 27455, Note_on_c, 9, 38, 102
1, 27456, Note_on_c, 9, 46, 99
1, 27456, Note_on_c, 2, 52, 51
1, 27466, Note_off_c, 9, 46, 99
1, 27478, Note_off_c, 9, 38, 102
1, 27504, Note_on_c, 3, 71, 78
1, 27504, Note_on_c, 9, 42, 82
1, 27511, Note_off_c, 9, 42, 82
1, 27523, Note_off_c, 1, 36, 72
1, 27533, Note_off_c, 2, 52, 51
1, 27537, Note_off_c, 3, 72, 80
1, 27545, Note_off_c, 2, 55, 50
1, 27550, Note_on_c, 3, 69, 74
1, 27551, Note_off_c, 2, 48, 46
1, 27551, Note_on_c, 1, 36, 64
1, 27551, Note_on_c, 9, 38, 93
1, 27551, Note_off_c, 3, 71, 78
1, 27552, Note_on_c, 9, 42, 87
1, 27562, Note_off_c, 9, 42, 87
1, 27574, Note_off_c, 9, 38, 93
1, 27598, Note_on_c, 3, 65, 64
1, 27599, Note_on_c, 9, 42, 61
1, 27603, Note_off_c, 3, 69, 74
1, 27607, Note_off_c, 9, 42, 61
1, 27623, Note_on_c, 6, 50, 50
1, 27624, Note_off_c, 5, 76, 63
1, 27624, Note_off_c, 5, 67, 63
1, 27632, Note_on_c, 5, 69, 38
1, 27635, Note_on_c, 5, 74, 45
1, 27637, Note_on_c, 6, 57, 53
1, 27643, Note_off_c, 4, 55, 76
1, 27643, Note_off_c, 4, 64, 59
1, 27643, Note_off_c, 4, 60, 55
1, 27643, Note_off_c, 1, 36, 64
1, 27644, Note_on_c, 1, 38, 72
1, 27645, Note_on_c, 4, 62, 76
1, 27645, Note_on_c, 4, 65, 61
1, 27647, Note_on_c, 4, 57, 61
1, 27647, Note_on_c, 9, 42, 87
1, 27648, Note_on_c, 9, 36, 99
1, 27649, Note_on_c, 2, 53, 52
1, 27649, Note_on_c, 2, 57, 62
1, 27650, Note_on_c, 2, 50, 42
1, 27652, Note_on_c, 6, 65, 55
1, 27653, Note_on_c, 6, 60, 50
1, 27662, Note_off_c, 9, 42, 87
1, 27668, Control_c, 2, 64, 0
1, 27681, Note_off_c, 9, 36, 99
1, 27695, Note_on_c, 9, 42, 42
1, 27702, Control_c, 2, 64, 127
1, 27705, Note_off_c, 9, 42, 42
1, 27743, Note_on_c, 9, 42, 25
1, 27749, Note_off_c, 9, 42, 25
1, 27759, Note_off_c, 2, 50, 42
1, 27779, Note_off_c, 2, 57, 62
1, 27785, Note_off_c, 2, 53, 52
1, 27791, Note_on_c, 2, 50, 61
1, 27791, Note_on_c, 9, 42, 67
1, 27792, Note_on_c, 9, 36, 93
1, 27801, Note_off_c, 9, 42, 67
1, 27807, Note_off_c, 9, 36, 93
1, 27840, Note_on_c, 2, 57, 62
1, 27840, Note_on_c, 9, 38, 105
1, 27840, Note_on_c, 9, 46, 96
1, 27841, Note_on_c, 2, 53, 46
1, 27847, Control_c, 2, 64, 0
1, 27852, Note_off_c, 9, 46, 96
1, 27866, Note_off_c, 9, 38, 105
1, 27879, Control_c, 2, 64, 127
1, 27889, Note_on_c, 9, 42, 52
1, 27896, Note_off_c, 9, 42, 52
1, 27902, Note_off_c, 2, 50, 61
1, 27908, Note_off_c, 2, 57, 62
1, 27917, Note_off_c, 2, 53, 46
1, 27924, Note_off_c, 6, 65, 55
1, 27925, Note_off_c, 1, 38, 72
1, 27934, Note_on_c, 1, 38, 60
1, 27938, Note_on_c, 9, 42, 11
1, 27939, Note_off_c, 9, 42, 11
1, 27983, Note_on_c, 6, 67, 64
1, 27984, Note_on_c, 9, 36, 99
1, 27984, Note_on_c, 9, 42, 79
1, 27994, Note_off_c, 9, 42, 79
1, 27996, Note_off_c, 9, 36, 99
1, 28025, Note_off_c, 3, 65, 64
1, 28027, Note_on_c, 6, 69, 61
1, 28030, Note_on_c, 1, 26, 80
1, 28030, Note_on_c, 2, 50, 77
1, 28032, Note_on_c, 9, 36, 99
1, 28032, Note_on_c, 9, 42, 96
1, 28033, Note_on_c, 2, 38, 59
1, 28035, Note_off_c, 1, 38, 60
1, 28035, Note_off_c, 6, 67, 64
1, 28046, Note_off_c, 9, 42, 96
1, 28050, Note_off_c, 9, 36, 99
1, 28073, Note_off_c, 2, 38, 59
1, 28073, Control_c, 2, 64, 0
1, 28079, Note_on_c, 2, 52, 82
1, 28079, Note_on_c, 1, 28, 85
1, 28079, Note_on_c, 2, 40, 67
1, 28079, Note_on_c, 9, 42, 71
1, 28082, Note_off_c, 2, 50, 77
1, 28088, Note_off_c, 9, 42, 71
1, 28094, Note_off_c, 1, 26, 80
1, 28116, Control_c, 2, 64, 127
1, 28127, Note_on_c, 9, 42, 76
1, 28135, Note_off_c, 9, 42, 76
1, 28163, Note_off_c, 2, 52, 82
1, 28172, Note_off_c, 2, 40, 67
1, 28173, Note_on_c, 1, 29, 82
1, 28174, Note_off_c, 1, 28, 85
1, 28175, Note_on_c, 2, 53, 91
1, 28175, Note_on_c, 9, 38, 108
1, 28175, Note_on_c, 2, 41, 71
1, 28175, Note_on_c, 9, 42, 96
1, 28181, Control_c, 2, 64, 0
1, 28186, Note_off_c, 9, 42, 96
1, 28193, Note_off_c, 9, 38, 108
1, 28215, Control_c, 2, 64, 127
1, 28219, Note_off_c, 4, 65, 61
1, 28221, Note_on_c, 4, 69, 81
1, 28223, Note_on_c, 9, 42, 82
1, 28228, Note_off_c, 6, 69, 61
1, 28231, Note_off_c, 9, 42, 82
1, 28263, Note_off_c, 2, 53, 91
1, 28267, Note_off_c, 2, 41, 71
1, 28270, Note_on_c, 2, 54, 83
1, 28270, Note_on_c, 9, 38, 108
1, 28271, Note_on_c, 9, 42, 93
1, 28271, Note_on_c, 2, 42, 67
1, 28273, Control_c, 2, 64, 0
1, 28274, Note_on_c, 1, 30, 89
1, 28277, Note_on_c, 6, 72, 69
1, 28281, Note_off_c, 9, 42, 93
1, 28289, Note_off_c, 9, 38, 108
1, 28295, Note_off_c, 1, 29, 82
1, 28308, Control_c, 2, 64, 127
1, 28315, Note_off_c, 4, 62, 76
1, 28319, Note_on_c, 9, 42, 73
1, 28320, Note_on_c, 6, 76, 87
1, 28325, Note_off_c, 6, 72, 69
1, 28326, Note_off_c, 9, 42, 73
1, 28354, Note_off_c, 2, 54, 83
1, 28358, Note_off_c, 2, 42, 67
1, 28364, Note_on_c, 6, 72, 67
1, 28366, Note_on_c, 9, 36, 84
1, 28367, Note_on_c, 9, 42, 82
1, 28371, Note_off_c, 6, 60, 50
1, 28372, Note_off_c, 6, 76, 87
1, 28374, Note_off_c, 9, 42, 82
1, 28378, Note_off_c, 9, 36, 84
1, 28385, Note_off_c, 5, 74, 45
1, 28385, Note_off_c, 6, 50, 50
1, 28385, Note_off_c, 6, 57, 53
1, 28392, Note_off_c, 5, 69, 38
1, 28402, Note_on_c, 6, 53, 56
1, 28405, Note_on_c, 5, 67, 61
1, 28406, Note_on_c, 5, 74, 53
1, 28407, Note_off_c, 6, 72, 67
1, 28407, Note_on_c, 6, 74, 63
1, 28408, Note_off_c, 4, 57, 61
1, 28411, Note_off_c, 4, 69, 81
1, 28412, Note_on_c, 6, 55, 56
1, 28413, Note_on_c, 4, 62, 54
1, 28414, Note_on_c, 4, 67, 82
1, 28414, Note_on_c, 4, 55, 70
1, 28414, Note_on_c, 2, 55, 71
1, 28415, Note_on_c, 2, 43, 58
1, 28415, Note_on_c, 9, 42, 99
1, 28415, Note_on_c, 9, 36, 105
1, 28416, Note_off_c, 1, 30, 89
1, 28416, Note_on_c, 1, 31, 80
1, 28429, Control_c, 2, 64, 0
1, 28429, Note_on_c, 6, 59, 53
1, 28430, Note_off_c, 9, 42, 99
1, 28446, Note_off_c, 9, 36, 105
1, 28463, Note_on_c, 9, 42, 62
1, 28470, Control_c, 2, 64, 127
1, 28471, Note_off_c, 9, 42, 62
1, 28510, Note_on_c, 3, 71, 80
1, 28510, Note_on_c, 3, 67, 66
1, 28511, Note_on_c, 9, 42, 69
1, 28520, Note_off_c, 9, 42, 69
1, 28529, Note_off_c, 3, 71, 80
1, 28536, Note_off_c, 3, 67, 66
1, 28544, Note_off_c, 2, 43, 58
1, 28549, Note_off_c, 2, 55, 71
1, 28558, Note_on_c, 3, 71, 73
1, 28559, Note_on_c, 3, 67, 52
1, 28559, Note_on_c, 9, 36, 93
1, 28559, Note_on_c, 9, 42, 87
1, 28569, Note_off_c, 9, 42, 87
1, 28574, Note_off_c, 3, 67, 52
1, 28575, Note_off_c, 9, 36, 93
1, 28579, Note_off_c, 3, 71, 73
1, 28606, Note_on_c, 3, 71, 91
1, 28606, Note_on_c, 3, 67, 76
1, 28607, Note_on_c, 2, 55, 72
1, 28607, Note_on_c, 9, 38, 99
1, 28607, Note_on_c, 9, 46, 93
1, 28608, Note_on_c, 2, 43, 50
1, 28620, Note_off_c, 9, 46, 93
1, 28628, Note_off_c, 6, 53, 56
1, 28629, Note_off_c, 6, 59, 53
1, 28630, Control_c, 2, 64, 0
1, 28631, Note_off_c, 9, 38, 99
1, 28632, Note_off_c, 6, 74, 63
1, 28636, Note_off_c, 6, 55, 56
1, 28656, Note_on_c, 9, 42, 62
1, 28664, Note_off_c, 9, 42, 62
1, 28669, Control_c, 2, 64, 127
1, 28689, Note_off_c, 3, 71, 91
1, 28698, Note_off_c, 3, 67, 76
1, 28704, Note_on_c, 3, 72, 84
1, 28704, Note_on_c, 3, 69, 67
1, 28705, Note_on_c, 9, 42, 87
1, 28713, Note_off_c, 9, 42, 87
1, 28727, Note_off_c, 2, 55, 72
1, 28738, Note_off_c, 2, 43, 50
1, 28750, Note_on_c, 9, 36, 67
1, 28752, Note_off_c, 3, 69, 67
1, 28752, Note_off_c, 1, 31, 80
1, 28752, Note_on_c, 9, 42, 87
1, 28752, Note_on_c, 3, 71, 81
1, 28752, Note_on_c, 3, 74, 90
1, 28755, Note_off_c, 3, 72, 84
1, 28762, Note_off_c, 9, 42, 87
1, 28764, Note_off_c, 9, 36, 67
1, 28800, Note_on_c, 2, 55, 58
1, 28800, Note_on_c, 1, 31, 80
1, 28800, Note_on_c, 9, 36, 105
1, 28800, Note_on_c, 9, 42, 102
1, 28801, Note_on_c, 2, 43, 44
1, 28816, Note_off_c, 9, 42, 102
1, 28821, Control_c, 2, 64, 0
1, 28823, Note_off_c, 9, 36, 105
1, 28847, Note_on_c, 9, 42, 82
1, 28848, Note_off_c, 3, 74, 90
1, 28848, Note_off_c, 3, 71, 81
1, 28848, Note_on_c, 3, 67, 82
1, 28848, Note_on_c, 3, 71, 96
1, 28857, Note_off_c, 9, 42, 82
1, 28860, Control_c, 2, 64, 127
1, 28896, Note_on_c, 9, 42, 69
1, 28904, Note_off_c, 9, 42, 69
1, 28913, Note_off_c, 2, 55, 58
1, 28923, Note_off_c, 2, 43, 44
1, 28943, Note_on_c, 9, 36, 96
1, 28943, Note_on_c, 9, 42, 82
1, 28953, Note_off_c, 9, 42, 82
1, 28960, Note_off_c, 9, 36, 96
1, 28966, Note_off_c, 3, 67, 82
1, 28967, Note_off_c, 3, 71, 96
1, 28987, Note_off_c, 4, 67, 82
1, 28987, Note_off_c, 4, 62, 54
1, 28987, Note_on_c, 4, 65, 87
1, 28991, Note_on_c, 2, 43, 47
1, 28991, Note_on_c, 2, 55, 56
1, 28991, Note_on_c, 9, 38, 93
1, 28992, Note_on_c, 3, 69, 88
1, 28992, Note_on_c, 9, 46, 93
1, 29004, Note_off_c, 9, 46, 93
1, 29011, Note_off_c, 9, 38, 93
1, 29012, Control_c, 2, 64, 0
1, 29040, Note_on_c, 9, 42, 73
1, 29046, Control_c, 2, 64, 127
1, 29049, Note_off_c, 9, 42, 73
1, 29086, Note_on_c, 3, 67, 89
1, 29087, Note_off_c, 2, 55, 56
1, 29087, Note_off_c, 2, 43, 47
1, 29088, Note_off_c, 1, 31, 80
1, 29089, Note_on_c, 1, 38, 98
1, 29089, Note_on_c, 9, 38, 93
1, 29089, Note_on_c, 9, 42, 82
1, 29097, Note_off_c, 3, 69, 88
1, 29097, Note_off_c, 9, 42, 82
1, 29104, Note_off_c, 9, 38, 93
1, 29135, Note_on_c, 9, 42, 64
1, 29143, Note_off_c, 9, 42, 64
1, 29168, Note_off_c, 5, 67, 61
1, 29178, Note_on_c, 5, 68, 61
1, 29179, Note_off_c, 4, 55, 70
1, 29179, Note_on_c, 5, 76, 63
1, 29181, Note_on_c, 4, 64, 87
1, 29181, Note_on_c, 4, 56, 66
1, 29182, Note_on_c, 1, 40, 76
1, 29182, Note_on_c, 2, 56, 51
1, 29183, Note_on_c, 2, 62, 63
1, 29183, Note_on_c, 2, 52, 60
1, 29184, Note_on_c, 3, 76, 99
1, 29184, Note_off_c, 1, 38, 98
1, 29184, Note_on_c, 9, 42, 99
1, 29184, Note_off_c, 4, 65, 87
1, 29184, Note_on_c, 9, 36, 102
1, 29188, Note_off_c, 5, 74, 53
1, 29198, Note_off_c, 9, 42, 99
1, 29201, Control_c, 2, 64, 0
1, 29206, Note_off_c, 9, 36, 102
1, 29208, Note_off_c, 3, 67, 89
1, 29229, Note_on_c, 3, 77, 88
1, 29231, Note_on_c, 9, 42, 56
1, 29238, Control_c, 2, 64, 127
1, 29240, Note_off_c, 9, 42, 56
1, 29247, Note_off_c, 3, 76, 99
1, 29277, Note_on_c, 3, 76, 91
1, 29279, Note_on_c, 9, 42, 82
1, 29285, Note_off_c, 3, 77, 88
1, 29288, Note_off_c, 2, 62, 63
1, 29288, Note_off_c, 9, 42, 82
1, 29299, Note_off_c, 2, 56, 51
1, 29311, Note_off_c, 2, 52, 60
1, 29325, Note_on_c, 3, 74, 101
1, 29326, Note_on_c, 9, 36, 93
1, 29327, Note_on_c, 9, 42, 93
1, 29330, Note_off_c, 3, 76, 91
1, 29336, Note_off_c, 9, 42, 93
1, 29343, Note_off_c, 9, 36, 93
1, 29371, Note_off_c, 4, 64, 87
1, 29373, Note_on_c, 4, 68, 72
1, 29375, Note_on_c, 2, 56, 52
1, 29375, Note_on_c, 2, 62, 72
1, 29375, Note_on_c, 9, 38, 102
1, 29376, Note_on_c, 1, 32, 87
1, 29376, Note_on_c, 9, 42, 90
1, 29376, Note_on_c, 2, 52, 50
1, 29387, Note_off_c, 1, 40, 76
1, 29388, Note_off_c, 9, 42, 90
1, 29397, Control_c, 2, 64, 0
1, 29398, Note_off_c, 9, 38, 102
1, 29422, Note_on_c, 3, 76, 89
1, 29423, Note_on_c, 9, 42, 82
1, 29429, Note_off_c, 3, 74, 101
1, 29432, Note_off_c, 9, 42, 82
1, 29433, Control_c, 2, 64, 127
1, 29466, Note_off_c, 2, 56, 52
1, 29466, Note_on_c, 5, 74, 79
1, 29469, Note_off_c, 5, 76, 63
1, 29470, Note_on_c, 3, 74, 95
1, 29471, Note_on_c, 9, 42, 82
1, 29475, Note_off_c, 3, 76, 89
1, 29480, Note_off_c, 9, 42, 82
1, 29483, Note_off_c, 2, 62, 72
1, 29510, Note_off_c, 2, 52, 50
1, 29513, Note_off_c, 3, 74, 95
1, 29517, Note_on_c, 3, 72, 85
1, 29518, Note_on_c, 3, 69, 64
1, 29518, Note_on_c, 9, 36, 87
1, 29519, Note_on_c, 9, 42, 82
1, 29527, Note_off_c, 9, 42, 82
1, 29530, Note_off_c, 9, 36, 87
1, 29554, Note_on_c, 5, 69, 61
1, 29555, Note_off_c, 5, 68, 61
1, 29556, Note_on_c, 5, 72, 63
1, 29557, Note_off_c, 5, 74, 79
1, 29563, Note_off_c, 4, 68, 72
1, 29563, Note_off_c, 4, 56, 66
1, 29565, Note_on_c, 4, 69, 85
1, 29565, Note_on_c, 4, 60, 64
1, 29567, Note_on_c, 9, 42, 99
1, 29567, Note_on_c, 9, 36, 102
1, 29568, Note_off_c, 1, 32, 87
1, 29568, Note_on_c, 1, 33, 89
1, 29568, Note_on_c, 2, 52, 50
1, 29569, Note_on_c, 2, 60, 67
1, 29569, Note_on_c, 2, 57, 49
1, 29580, Note_off_c, 9, 42, 99
1, 29585, Control_c, 2, 64, 0
1, 29586, Note_off_c, 9, 36, 102
1, 29615, Note_on_c, 9, 42, 63
1, 29622, Control_c, 2, 64, 127
1, 29623, Note_off_c, 9, 42, 63
1, 29645, Note_off_c, 2, 57, 49
1, 29663, Note_on_c, 9, 42, 69
1, 29671, Note_off_c, 9, 42, 69
1, 29678, Note_off_c, 2, 52, 50
1, 29694, Note_off_c, 3, 69, 64
1, 29696, Note_off_c, 3, 72, 85
1, 29711, Note_on_c, 9, 36, 99
1, 29711, Note_on_c, 9, 42, 96
1, 29713, Note_on_c, 3, 72, 77
1, 29721, Note_off_c, 9, 42, 96
1, 29728, Note_off_c, 9, 36, 99
1, 29755, Note_off_c, 4, 60, 64
1, 29755, Note_off_c, 4, 69, 85
1, 29757, Note_on_c, 4, 62, 84
1, 29757, Note_on_c, 4, 67, 84
1, 29758, Note_on_c, 1, 31, 89
1, 29759, Note_on_c, 2, 55, 62
1, 29759, Note_on_c, 9, 38, 96
1, 29759, Note_off_c, 3, 72, 77
1, 29760, Note_on_c, 2, 43, 47
1, 29760, Note_on_c, 9, 46, 99
1, 29761, Note_on_c, 3, 74, 88
1, 29772, Note_off_c, 9, 46, 99
1, 29776, Control_c, 2, 64, 0
1, 29777, Note_off_c, 2, 60, 67
1, 29779, Note_off_c, 9, 38, 96
1, 29791, Note_off_c, 1, 33, 89
1, 29808, Note_on_c, 9, 46, 69
1, 29809, Note_on_c, 3, 72, 89
1, 29812, Note_off_c, 9, 46, 69
1, 29813, Note_off_c, 3, 74, 88
1, 29823, Control_c, 2, 64, 127
1, 29848, Note_on_c, 5, 67, 58
1, 29851, Note_on_c, 5, 71, 64
1, 29852, Note_off_c, 5, 72, 63
1, 29853, Note_off_c, 5, 69, 61
1, 29856, Note_on_c, 9, 38, 102
1, 29856, Note_on_c, 9, 46, 87
1, 29858, Note_on_c, 3, 71, 92
1, 29861, Note_off_c, 9, 46, 87
1, 29864, Note_off_c, 2, 43, 47
1, 29872, Note_off_c, 3, 72, 89
1, 29873, Note_off_c, 9, 38, 102
1, 29903, Note_on_c, 9, 42, 82
1, 29910, Note_off_c, 9, 42, 82
1, 29947, Note_off_c, 4, 62, 84
1, 29947, Note_on_c, 5, 69, 58
1, 29948, Note_on_c, 5, 65, 53
1, 29949, Note_off_c, 3, 71, 92
1, 29949, Note_off_c, 4, 67, 84
1, 29949, Note_on_c, 4, 60, 69
1, 29950, Note_on_c, 2, 53, 59
1, 29950, Note_on_c, 1, 29, 80
1, 29950, Note_on_c, 4, 65, 70
1, 29951, Note_on_c, 2, 41, 45
1, 29951, Note_off_c, 5, 71, 64
1, 29951, Note_on_c, 3, 69, 81
1, 29952, Note_off_c, 5, 67, 58
1, 29952, Note_on_c, 9, 42, 99
1, 29953, Note_on_c, 9, 36, 99
1, 29957, Note_off_c, 1, 31, 89
1, 29958, Note_off_c, 2, 55, 62
1, 29966, Control_c, 2, 64, 0
1, 29967, Note_off_c, 9, 42, 99
1, 29974, Note_off_c, 9, 36, 99
1, 29999, Note_on_c, 9, 42, 53
1, 30009, Note_off_c, 9, 42, 53
1, 30016, Control_c, 2, 64, 127
1, 30048, Note_on_c, 9, 42, 76
1, 30056, Note_off_c, 9, 42, 76
1, 30065, Note_off_c, 2, 53, 59
1, 30081, Note_off_c, 2, 41, 45
1, 30095, Note_on_c, 9, 36, 87
1, 30096, Note_on_c, 9, 42, 87
1, 30105, Note_off_c, 9, 42, 87
1, 30109, Note_off_c, 9, 36, 87
1, 30129, Note_off_c, 3, 69, 81
1, 30142, Note_on_c, 2, 53, 58
1, 30143, Note_on_c, 3, 69, 73
1, 30143, Note_on_c, 2, 41, 46
1, 30144, Note_on_c, 3, 72, 88
1, 30144, Note_on_c, 9, 38, 105
1, 30145, Note_on_c, 9, 42, 99
1, 30159, Note_off_c, 9, 42, 99
1, 30163, Control_c, 2, 64, 0
1, 30167, Note_off_c, 9, 38, 105
1, 30172, Note_off_c, 3, 72, 88
1, 30177, Note_off_c, 3, 69, 73
1, 30191, Note_on_c, 3, 69, 69
1, 30191, Note_on_c, 3, 72, 74
1, 30191, Note_on_c, 9, 42, 73
1, 30198, Control_c, 2, 64, 127
1, 30200, Note_off_c, 9, 42, 73
1, 30211, Note_off_c, 3, 69, 69
1, 30213, Note_off_c, 3, 72, 74
1, 30230, Note_off_c, 1, 29, 80
1, 30237, Note_on_c, 3, 69, 78
1, 30238, Note_on_c, 3, 72, 86
1, 30239, Note_on_c, 9, 42, 79
1, 30240, Note_on_c, 1, 29, 87
1, 30249, Note_off_c, 9, 42, 79
1, 30274, Note_off_c, 2, 53, 58
1, 30275, Note_off_c, 2, 41, 46
1, 30286, Note_on_c, 3, 71, 79
1, 30286, Note_on_c, 3, 74, 91
1, 30286, Note_off_c, 3, 69, 78
1, 30287, Note_on_c, 9, 36, 79
1, 30288, Note_off_c, 3, 72, 86
1, 30288, Note_on_c, 9, 42, 79
1, 30296, Note_off_c, 9, 42, 79
1, 30297, Note_off_c, 9, 36, 79
1, 30329, Note_off_c, 4, 65, 70
1, 30333, Note_off_c, 5, 69, 58
1, 30333, Note_on_c, 2, 55, 65
1, 30333, Note_on_c, 4, 67, 72
1, 30333, Note_on_c, 4, 59, 57
1, 30333, Note_on_c, 5, 71, 58
1, 30334, Note_off_c, 4, 60, 69
1, 30334, Note_on_c, 2, 43, 57
1, 30335, Note_off_c, 5, 65, 53
1, 30335, Note_on_c, 5, 67, 56
1, 30336, Note_off_c, 1, 29, 87
1, 30336, Note_on_c, 1, 31, 70
1, 30337, Note_on_c, 9, 36, 99
1, 30337, Note_on_c, 9, 42, 102
1, 30350, Note_off_c, 9, 42, 102
1, 30352, Control_c, 2, 64, 0
1, 30352, Note_off_c, 9, 36, 99
1, 30383, Note_on_c, 9, 42, 67
1, 30391, Note_off_c, 9, 42, 67
1, 30393, Control_c, 2, 64, 127
1, 30394, Note_off_c, 3, 71, 79
1, 30432, Note_on_c, 9, 42, 87
1, 30433, Note_on_c, 3, 71, 88
1, 30441, Note_off_c, 9, 42, 87
1, 30446, Note_off_c, 2, 55, 65
1, 30447, Note_off_c, 3, 74, 91
1, 30451, Note_off_c, 2, 43, 57
1, 30477, Note_off_c, 3, 71, 88
1, 30479, Note_on_c, 3, 69, 76
1, 30481, Note_on_c, 9, 42, 64
1, 30487, Note_off_c, 9, 42, 64
1, 30525, Note_on_c, 2, 55, 70
1, 30526, Note_on_c, 2, 43, 47
1, 30527, Note_on_c, 3, 71, 90
1, 30528, Note_on_c, 9, 38, 108
1, 30529, Note_on_c, 9, 42, 99
1, 30530, Note_off_c, 3, 69, 76
1, 30536, Control_c, 2, 64, 0
1, 30542, Note_off_c, 9, 42, 99
1, 30555, Note_off_c, 9, 38, 108
1, 30571, Control_c, 2, 64, 127
1, 30574, Note_on_c, 3, 69, 82
1, 30576, Note_off_c, 3, 71, 90
1, 30576, Note_on_c, 9, 42, 64
1, 30586, Note_off_c, 9, 42, 64
1, 30609, Note_off_c, 1, 31, 70
1, 30621, Note_off_c, 3, 69, 82
1, 30621, Note_on_c, 3, 67, 81
1, 30623, Note_on_c, 9, 42, 82
1, 30624, Note_on_c, 1, 31, 76
1, 30633, Note_off_c, 9, 42, 82
1, 30648, Note_off_c, 2, 43, 47
1, 30658, Note_off_c, 2, 55, 70
1, 30671, Note_on_c, 3, 64, 74
1, 30671, Note_on_c, 9, 36, 90
1, 30671, Note_on_c, 9, 42, 87
1, 30672, Note_off_c, 3, 67, 81
1, 30672, Note_on_c, 3, 69, 81
1, 30673, Note_on_c, 3, 60, 71
1, 30680, Note_off_c, 9, 42, 87
1, 30681, Note_off_c, 9, 36, 90
1, 30693, Control_c, 2, 64, 0
1, 30699, Note_off_c, 5, 67, 56
1, 30710, Note_on_c, 5, 69, 23
1, 30711, Note_on_c, 5, 72, 64
1, 30713, Note_on_c, 5, 64, 56
1, 30715, Note_off_c, 4, 59, 57
1, 30715, Note_off_c, 4, 67, 72
1, 30716, Note_off_c, 5, 71, 58
1, 30717, Note_on_c, 4, 60, 60
1, 30717, Note_on_c, 4, 69, 78
1, 30718, Note_on_c, 2, 45, 63
1, 30718, Note_on_c, 2, 57, 68
1, 30720, Note_off_c, 1, 31, 76
1, 30720, Note_on_c, 1, 33, 76
1, 30720, Note_on_c, 9, 36, 99
1, 30720, Note_on_c, 9, 42, 108
1, 30721, Control_c, 2, 64, 127
1, 30734, Note_off_c, 9, 42, 108
1, 30741, Note_off_c, 2, 57, 68
1, 30742, Note_off_c, 9, 36, 99
1, 30743, Note_off_c, 2, 45, 63
1, 30766, Note_on_c, 2, 57, 59
1, 30767, Note_on_c, 2, 45, 42
1, 30767, Note_on_c, 9, 42, 62
1, 30778, Note_off_c, 9, 42, 62
1, 30783, Note_off_c, 2, 45, 42
1, 30784, Note_off_c, 2, 57, 59
1, 30814, Note_on_c, 2, 45, 53
1, 30814, Note_on_c, 2, 57, 55
1, 30816, Note_on_c, 9, 42, 73
1, 30825, Note_off_c, 9, 42, 73
1, 30828, Note_off_c, 2, 57, 55
1, 30828, Note_off_c, 2, 45, 53
1, 30860, Note_on_c, 2, 45, 57
1, 30860, Note_on_c, 2, 57, 70
1, 30864, Note_on_c, 9, 42, 42
1, 30869, Note_off_c, 9, 42, 42
1, 30873, Note_off_c, 2, 45, 57
1, 30880, Note_off_c, 2, 57, 70
1, 30897, Control_c, 2, 64, 0
1, 30908, Note_on_c, 2, 45, 56
1, 30908, Note_on_c, 2, 57, 65
1, 30911, Note_on_c, 9, 42, 102
1, 30911, Note_on_c, 9, 38, 105
1, 30926, Note_off_c, 9, 42, 102
1, 30928, Control_c, 2, 64, 127
1, 30935, Note_off_c, 9, 38, 105
1, 30952, Note_off_c, 2, 57, 65
1, 30956, Note_on_c, 2, 55, 65
1, 30959, Note_on_c, 9, 42, 82
1, 30970, Note_off_c, 9, 42, 82
1, 31003, Note_on_c, 5, 74, 64
1, 31007, Note_off_c, 2, 45, 56
1, 31007, Note_on_c, 9, 42, 87
1, 31010, Note_off_c, 5, 72, 64
1, 31018, Note_off_c, 9, 42, 87
1, 31036, Note_on_c, 6, 45, 62
1, 31045, Note_off_c, 2, 55, 65
1, 31050, Note_on_c, 2, 57, 74
1, 31051, Note_off_c, 4, 60, 60
1, 31051, Note_on_c, 2, 45, 43
1, 31053, Note_off_c, 1, 33, 76
1, 31055, Note_on_c, 9, 36, 93
1, 31055, Note_on_c, 9, 42, 87
1, 31056, Note_on_c, 1, 33, 74
1, 31057, Note_on_c, 4, 60, 70
1, 31062, Note_on_c, 6, 55, 51
1, 31064, Control_c, 2, 64, 0
1, 31064, Note_on_c, 6, 60, 64
1, 31065, Note_off_c, 9, 42, 87
1, 31067, Note_off_c, 9, 36, 93
1, 31079, Note_on_c, 6, 64, 64
1, 31093, Note_on_c, 6, 71, 79
1, 31096, Control_c, 2, 64, 127
1, 31101, Note_off_c, 5, 74, 64
1, 31102, Note_on_c, 5, 76, 63
1, 31103, Note_on_c, 9, 42, 99
1, 31103, Note_on_c, 9, 36, 96
1, 31118, Note_off_c, 9, 42, 99
1, 31122, Note_off_c, 9, 36, 96
1, 31135, Note_off_c, 6, 64, 64
1, 31149, Note_on_c, 2, 55, 67
1, 31151, Note_off_c, 2, 45, 43
1, 31151, Note_on_c, 9, 42, 76
1, 31156, Note_off_c, 2, 57, 74
1, 31160, Note_off_c, 9, 42, 76
1, 31162, Note_on_c, 6, 72, 66
1, 31163, Note_off_c, 6, 71, 79
1, 31163, Note_off_c, 6, 60, 64
1, 31197, Note_on_c, 2, 45, 56
1, 31197, Note_on_c, 2, 57, 73
1, 31199, Note_on_c, 9, 42, 73
1, 31200, Note_off_c, 3, 60, 71
1, 31200, Note_off_c, 3, 69, 81
1, 31200, Note_off_c, 3, 64, 74
1, 31200, Control_c, 2, 64, 0
1, 31202, Note_off_c, 2, 55, 67
1, 31208, Note_off_c, 9, 42, 73
1, 31224, Note_on_c, 6, 71, 73
1, 31233, Note_off_c, 6, 72, 66
1, 31240, Control_c, 2, 64, 127
1, 31246, Note_on_c, 9, 42, 82
1, 31255, Note_off_c, 9, 42, 82
1, 31278, Note_on_c, 6, 67, 53
1, 31282, Note_off_c, 6, 71, 73
1, 31285, Note_off_c, 5, 76, 63
1, 31287, Note_on_c, 5, 79, 64
1, 31294, Note_on_c, 3, 71, 88
1, 31295, Note_on_c, 9, 42, 93
1, 31296, Note_on_c, 9, 38, 93
1, 31302, Note_off_c, 2, 45, 56
1, 31303, Note_off_c, 2, 57, 73
1, 31309, Note_off_c, 9, 42, 93
1, 31316, Note_off_c, 9, 38, 93
1, 31343, Note_on_c, 9, 42, 82
1, 31352, Note_off_c, 9, 42, 82
1, 31353, Note_on_c, 6, 69, 56
1, 31361, Note_off_c, 6, 67, 53
1, 31379, Note_off_c, 1, 33, 74
1, 31384, Note_off_c, 3, 71, 88
1, 31392, Note_on_c, 3, 72, 94
1, 31392, Note_on_c, 9, 42, 99
1, 31392, Note_on_c, 9, 38, 99
1, 31393, Note_on_c, 1, 28, 61
1, 31401, Note_off_c, 9, 42, 99
1, 31411, Note_off_c, 9, 38, 99
1, 31415, Note_on_c, 6, 64, 47
1, 31416, Note_off_c, 6, 69, 56
1, 31438, Note_on_c, 9, 42, 82
1, 31447, Note_off_c, 9, 42, 82
1, 31471, Note_off_c, 5, 64, 56
1, 31473, Note_on_c, 5, 72, 61
1, 31475, Note_on_c, 5, 81, 61
1, 31476, Note_off_c, 5, 69, 23
1, 31479, Note_off_c, 5, 79, 64
1, 31483, Note_off_c, 4, 60, 70
1, 31483, Note_off_c, 6, 55, 51
1, 31485, Note_off_c, 3, 72, 94
1, 31485, Note_on_c, 4, 65, 76
1, 31486, Note_on_c, 2, 53, 66
1, 31486, Note_off_c, 6, 64, 47
1, 31487, Note_on_c, 2, 41, 57
1, 31488, Note_on_c, 3, 71, 74
1, 31488, Note_on_c, 3, 74, 92
1, 31488, Note_on_c, 9, 36, 102
1, 31488, Note_on_c, 1, 29, 53
1, 31488, Note_on_c, 9, 49, 93
1, 31490, Note_off_c, 6, 45, 62
1, 31496, Note_off_c, 1, 28, 61
1, 31500, Note_off_c, 9, 49, 93
1, 31506, Note_off_c, 9, 36, 102
1, 31511, Control_c, 2, 64, 0
1, 31527, Note_off_c, 3, 71, 74
1, 31533, Note_off_c, 3, 74, 92
1, 31536, Note_on_c, 3, 76, 98
1, 31537, Note_on_c, 9, 42, 69
1, 31537, Note_on_c, 3, 72, 76
1, 31545, Note_off_c, 9, 42, 69
1, 31549, Control_c, 2, 64, 127
1, 31585, Note_on_c, 9, 42, 73
1, 31592, Note_off_c, 9, 42, 73
1, 31599, Note_off_c, 3, 72, 76
1, 31606, Note_off_c, 2, 53, 66
1, 31614, Note_off_c, 2, 41, 57
1, 31632, Note_on_c, 3, 69, 79
1, 31632, Note_on_c, 3, 72, 89
1, 31632, Note_on_c, 9, 42, 76
1, 31640, Note_off_c, 9, 42, 76
1, 31640, Note_off_c, 3, 76, 98
1, 31678, Note_off_c, 3, 69, 79
1, 31679, Note_on_c, 2, 41, 52
1, 31679, Note_on_c, 2, 53, 64
1, 31680, Note_on_c, 9, 42, 96
1, 31680, Note_on_c, 9, 38, 102
1, 31694, Control_c, 2, 64, 0
1, 31694, Note_off_c, 9, 42, 96
1, 31718, Note_off_c, 3, 72, 89
1, 31726, Note_on_c, 9, 42, 73
1, 31727, Control_c, 2, 64, 127
1, 31728, Note_on_c, 3, 65, 68
1, 31728, Note_on_c, 3, 69, 81
1, 31736, Note_off_c, 9, 38, 102
1, 31736, Note_off_c, 9, 42, 73
1, 31775, Note_on_c, 9, 42, 82
1, 31784, Note_off_c, 9, 42, 82
1, 31805, Note_off_c, 2, 53, 64
1, 31805, Note_off_c, 2, 41, 52
1, 31823, Note_on_c, 9, 42, 82
1, 31823, Note_on_c, 9, 36, 79
1, 31832, Note_off_c, 9, 42, 82
1, 31833, Note_off_c, 9, 36, 79
1, 31845, Note_off_c, 1, 29, 53
1, 31853, Note_off_c, 3, 65, 68
1, 31855, Note_off_c, 3, 69, 81
1, 31870, Note_on_c, 1, 29, 78
1, 31871, Note_on_c, 2, 53, 60
1, 31872, Note_on_c, 2, 41, 46
1, 31872, Note_on_c, 9, 36, 105
1, 31872, Note_on_c, 9, 42, 102
1, 31885, Control_c, 2, 64, 0
1, 31886, Note_off_c, 9, 42, 102
1, 31896, Note_off_c, 9, 36, 105
1, 31918, Note_on_c, 9, 42, 71
1, 31920, Note_on_c, 3, 77, 69
1, 31920, Note_on_c, 3, 81, 61
1, 31922, Control_c, 2, 64, 127
1, 31931, Note_off_c, 9, 42, 71
1, 31967, Note_on_c, 9, 42, 79
1, 31968, Note_off_c, 3, 77, 69
1, 31968, Note_on_c, 3, 79, 90
1, 31969, Note_on_c, 3, 76, 70
1, 31975, Note_off_c, 3, 81, 61
1, 31977, Note_off_c, 9, 42, 79
1, 31998, Note_off_c, 2, 41, 46
1, 31999, Note_off_c, 2, 53, 60
1, 32016, Note_on_c, 3, 74, 81
1, 32016, Note_on_c, 9, 38, 96
1, 32016, Note_on_c, 9, 42, 96
1, 32019, Note_on_c, 3, 77, 87
1, 32028, Note_off_c, 3, 76, 70
1, 32030, Note_off_c, 9, 42, 96
1, 32037, Note_off_c, 3, 79, 90
1, 32042, Note_off_c, 9, 38, 96
1, 32059, Note_off_c, 4, 65, 76
1, 32060, Control_c, 2, 64, 0
1, 32061, Note_on_c, 4, 60, 76
1, 32063, Note_on_c, 9, 42, 67
1, 32064, Note_on_c, 2, 41, 61
1, 32064, Note_on_c, 2, 53, 70
1, 32072, Note_off_c, 9, 42, 67
1, 32088, Control_c, 2, 64, 127
1, 32094, Note_off_c, 3, 74, 81
1, 32111, Note_on_c, 9, 42, 93
1, 32111, Note_on_c, 9, 38, 99
1, 32113, Note_on_c, 3, 76, 82
1, 32114, Note_on_c, 3, 72, 57
1, 32115, Note_off_c, 3, 77, 87
1, 32118, Control_c, 2, 64, 0
1, 32126, Note_off_c, 9, 42, 93
1, 32136, Note_off_c, 9, 38, 99
1, 32155, Control_c, 2, 64, 127
1, 32159, Note_on_c, 9, 42, 73
1, 32170, Note_off_c, 9, 42, 73
1, 32207, Note_on_c, 1, 30, 87
1, 32208, Note_off_c, 2, 53, 70
1, 32208, Note_off_c, 2, 41, 61
1, 32208, Note_on_c, 2, 54, 75
1, 32208, Note_on_c, 9, 36, 99
1, 32208, Note_on_c, 2, 42, 55
1, 32219, Note_off_c, 9, 36, 99
1, 32220, Note_off_c, 1, 29, 78
1, 32222, Control_c, 2, 64, 0
1, 32238, Note_off_c, 3, 72, 57
1, 32241, Note_on_c, 5, 79, 82
1, 32242, Note_on_c, 5, 71, 58
1, 32246, Note_off_c, 5, 72, 61
1, 32248, Note_off_c, 5, 81, 61
1, 32251, Note_off_c, 4, 60, 76
1, 32251, Note_off_c, 4, 69, 78
1, 32253, Note_on_c, 4, 62, 61
1, 32254, Note_on_c, 3, 74, 74
1, 32254, Note_on_c, 3, 71, 57
1, 32254, Note_on_c, 4, 67, 87
1, 32255, Note_on_c, 9, 36, 108
1, 32255, Note_on_c, 1, 31, 80
1, 32255, Note_on_c, 9, 49, 108
1, 32256, Note_off_c, 3, 76, 82
1, 32256, Note_off_c, 2, 42, 55
1, 32256, Note_off_c, 2, 54, 75
1, 32256, Note_on_c, 2, 55, 78
1, 32257, Note_on_c, 2, 43, 62
1, 32263, Note_off_c, 1, 30, 87
1, 32265, Control_c, 2, 64, 127
1, 32280, Note_off_c, 9, 49, 108
1, 32301, Note_off_c, 3, 71, 57
1, 32322, Note_off_c, 9, 36, 108
1, 32353, Note_on_c, 9, 42, 93
1, 32365, Note_off_c, 9, 42, 93
1, 32365, Note_off_c, 3, 74, 74
1, 32399, Note_on_c, 9, 42, 79
1, 32400, Note_on_c, 3, 67, 91
1, 32407, Note_off_c, 9, 42, 79
1, 32410, Note_off_c, 2, 43, 62
1, 32422, Note_off_c, 2, 55, 78
1, 32447, Note_on_c, 2, 55, 74
1, 32447, Note_on_c, 9, 38, 99
1, 32448, Note_on_c, 9, 42, 105
1, 32449, Note_on_c, 2, 43, 54
1, 32459, Control_c, 2, 64, 0
1, 32463, Note_off_c, 9, 42, 105
1, 32464, Note_off_c, 3, 67, 91
1, 32474, Note_off_c, 9, 38, 99
1, 32494, Note_on_c, 9, 42, 67
1, 32494, Control_c, 2, 64, 127
1, 32496, Note_on_c, 3, 67, 74
1, 32500, Note_off_c, 9, 42, 67
1, 32519, Note_off_c, 3, 67, 74
1, 32542, Note_on_c, 9, 42, 93
1, 32544, Note_on_c, 3, 67, 85
1, 32551, Note_off_c, 9, 42, 93
1, 32565, Note_off_c, 3, 67, 85
1, 32578, Note_off_c, 2, 43, 54
1, 32582, Note_off_c, 2, 55, 74
1, 32590, Note_on_c, 9, 42, 93
1, 32590, Note_on_c, 9, 36, 93
1, 32592, Note_on_c, 3, 69, 79
1, 32593, Note_on_c, 3, 77, 96
1, 32598, Note_off_c, 9, 42, 93
1, 32599, Note_off_c, 9, 36, 93
1, 32607, Note_off_c, 1, 31, 80
1, 32634, Note_on_c, 4, 65, 89
1, 32635, Note_off_c, 4, 67, 87
1, 32636, Note_off_c, 5, 79, 82
1, 32638, Note_on_c, 1, 31, 87
1, 32638, Note_on_c, 9, 36, 96
1, 32638, Note_on_c, 9, 49, 108
1, 32640, Note_on_c, 5, 74, 87
1, 32641, Note_on_c, 2, 43, 46
1, 32641, Note_on_c, 2, 55, 69
1, 32646, Note_off_c, 9, 49, 108
1, 32649, Note_off_c, 9, 36, 96
1, 32655, Control_c, 2, 64, 0
1, 32685, Note_on_c, 9, 48, 90
1, 32688, Note_off_c, 3, 77, 96
1, 32688, Note_off_c, 3, 69, 79
1, 32690, Note_on_c, 3, 67, 74
1, 32691, Note_on_c, 3, 76, 89
1, 32692, Control_c, 2, 64, 127
1, 32693, Note_off_c, 9, 48, 90
1, 32700, Note_on_c, 9, 48, 108
1, 32707, Note_off_c, 9, 48, 108
1, 32712, Note_on_c, 9, 48, 102
1, 32720, Note_off_c, 9, 48, 102
1, 32735, Note_on_c, 9, 48, 96
1, 32740, Note_off_c, 9, 48, 96
1, 32748, Note_on_c, 9, 47, 105
1, 32754, Note_off_c, 9, 47, 105
1, 32755, Note_off_c, 2, 55, 69
1, 32758, Note_off_c, 3, 67, 74
1, 32760, Note_on_c, 9, 47, 116
1, 32760, Note_off_c, 2, 43, 46
1, 32766, Note_off_c, 9, 47, 116
1, 32782, Note_on_c, 9, 47, 87
1, 32784, Note_off_c, 3, 76, 89
1, 32784, Note_on_c, 3, 72, 89
1, 32785, Note_on_c, 3, 64, 77
1, 32786, Note_off_c, 9, 47, 87
1, 32807, Note_on_c, 9, 47, 87
1, 32813, Note_off_c, 9, 47, 87
1, 32820, Note_on_c, 9, 45, 61
1, 32825, Note_off_c, 9, 45, 61
1, 32830, Note_on_c, 9, 45, 99
1, 32831, Note_on_c, 2, 55, 64
1, 32832, Note_on_c, 2, 43, 54
1, 32838, Note_off_c, 9, 45, 99
1, 32846, Control_c, 2, 64, 0
1, 32854, Note_on_c, 9, 45, 102
1, 32860, Note_off_c, 9, 45, 102
1, 32878, Control_c, 2, 64, 127
1, 32899, Note_off_c, 2, 43, 54
1, 32902, Note_on_c, 9, 43, 112
1, 32910, Note_off_c, 9, 43, 112
1, 32926, Note_on_c, 1, 35, 74
1, 32926, Note_on_c, 9, 43, 105
1, 32928, Note_off_c, 3, 64, 77
1, 32928, Note_off_c, 3, 72, 89
1, 32928, Note_on_c, 3, 65, 68
1, 32928, Note_on_c, 3, 74, 94
1, 32928, Note_off_c, 1, 31, 87
1, 32931, Note_off_c, 2, 55, 64
1, 32934, Note_off_c, 9, 43, 105
1, 32974, Note_on_c, 9, 41, 105
1, 32982, Note_off_c, 9, 41, 105
1, 33015, Note_off_c, 3, 65, 68
1, 33019, Note_off_c, 4, 65, 89
1, 33019, Note_off_c, 4, 62, 61
1, 33019, Note_off_c, 5, 71, 58
1, 33020, Note_on_c, 5, 72, 71
1, 33020, Note_off_c, 3, 74, 94
1, 33021, Note_on_c, 2, 55, 64
1, 33021, Note_on_c, 4, 64, 64
1, 33022, Note_on_c, 1, 36, 68
1, 33022, Note_on_c, 4, 60, 53
1, 33022, Note_on_c, 9, 36, 108
1, 33022, Note_on_c, 9, 51, 112
1, 33023, Note_on_c, 2, 48, 56
1, 33023, Note_on_c, 2, 52, 67
1, 33024, Note_on_c, 3, 64, 75
1, 33024, Note_on_c, 3, 72, 85
1, 33024, Note_on_c, 5, 67, 76
1, 33025, Control_c, 2, 64, 0
1, 33027, Note_off_c, 1, 35, 74
1, 33034, Note_off_c, 5, 74, 87
1, 33047, Note_off_c, 9, 51, 112
1, 33064, Control_c, 2, 64, 127
1, 33095, Note_off_c, 9, 36, 108
1, 33118, Note_on_c, 9, 51, 99
1, 33136, Note_off_c, 2, 55, 64
1, 33139, Note_off_c, 2, 52, 67
1, 33144, Note_off_c, 2, 48, 56
1, 33146, Note_off_c, 9, 51, 99
1, 33166, Note_on_c, 9, 36, 105
1, 33168, Note_on_c, 2, 48, 60
1, 33168, Note_on_c, 2, 55, 60
1, 33169, Note_on_c, 2, 52, 60
1, 33179, Note_off_c, 2, 48, 60
1, 33182, Note_off_c, 2, 52, 60
1, 33187, Note_off_c, 2, 55, 60
1, 33187, Note_off_c, 9, 36, 105
1, 33193, Note_off_c, 3, 64, 75
1, 33196, Note_off_c, 3, 72, 85
1, 33214, Control_c, 2, 64, 0
1, 33214, Note_on_c, 9, 51, 93
1, 33215, Note_on_c, 2, 48, 64
1, 33215, Note_on_c, 9, 38, 105
1, 33215, Note_on_c, 2, 55, 64
1, 33217, Note_on_c, 2, 52, 64
1, 33241, Note_off_c, 9, 51, 93
1, 33248, Control_c, 2, 64, 127
1, 33267, Note_off_c, 9, 38, 105
1, 33291, Note_off_c, 2, 48, 64
1, 33311, Note_on_c, 9, 51, 99
1, 33311, Note_on_c, 2, 43, 73
1, 33319, Note_off_c, 2, 55, 64
1, 33320, Note_off_c, 2, 52, 64
1, 33339, Note_off_c, 9, 51, 99
1, 33359, Note_on_c, 9, 36, 99
1, 33372, Note_off_c, 9, 36, 99
1, 33403, Note_off_c, 4, 60, 53
1, 33403, Note_off_c, 4, 64, 64
1, 33406, Note_on_c, 2, 55, 70
1, 33406, Note_on_c, 2, 52, 70
1, 33407, Note_off_c, 2, 43, 73
1, 33407, Note_on_c, 2, 48, 70
1, 33408, Note_on_c, 9, 55, 108
1, 33408, Note_on_c, 9, 36, 102
1, 33412, Control_c, 2, 64, 0
1, 33432, Note_off_c, 9, 36, 102
1, 33451, Control_c, 2, 64, 127
1, 33454, Note_off_c, 9, 55, 108
1, 33456, Note_off_c, 2, 48, 70
1, 33456, Note_off_c, 2, 52, 70
1, 33456, Note_off_c, 2, 55, 70
1, 33504, Note_off_c, 5, 67, 76
1, 33504, Note_off_c, 5, 72, 71
1, 33576, Control_c, 2, 64, 0
1, 33628, Note_off_c, 1, 36, 68
1, 34176, End_track
0, 0, End_of_file
