0, 0, Header, 1, 16, 480
1, 0, Start_track
1, 0, Title_t, "Danny Boy"
1, 0, Text_t, "Elvis Presley"
1, 0, SMPTE_offset, 96, 0, 3, 0, 0
1, 0, MIDI_port, 0
1, 0, System_exclusive, 5, 126, 127, 9, 1, 247
1, 0, MIDI_port, 0
1, 0, System_exclusive, 10, 65, 16, 66, 18, 64, 0, 127, 0, 65, 247
1, 0, MIDI_port, 0
1, 0, Time_signature, 4, 2, 24, 8
1, 0, Key_signature, -3, "major"
1, 0, Tempo, 800000
1, 0, End_track
2, 0, Start_track
2, 0, MIDI_port, 0
2, 0, Title_t, "Bass   "
2, 0, Control_c, 1, 123, 0
2, 0, Control_c, 1, 64, 0
2, 485, Control_c, 1, 0, 0
2, 486, Control_c, 1, 32, 0
2, 487, Program_c, 1, 33
2, 488, Control_c, 1, 7, 100
2, 488, Control_c, 1, 10, 64
2, 500, Control_c, 1, 10, 64
2, 5760, Note_on_c, 1, 36, 80
2, 6387, Note_on_c, 1, 36, 0
2, 6560, Note_on_c, 1, 36, 80
2, 6685, Note_on_c, 1, 36, 0
2, 6720, Note_on_c, 1, 36, 80
2, 7347, Note_on_c, 1, 36, 0
2, 7520, Note_on_c, 1, 36, 80
2, 7675, Note_on_c, 1, 36, 0
2, 7680, Note_on_c, 1, 36, 80
2, 8605, Note_on_c, 1, 36, 0
2, 8640, Note_on_c, 1, 36, 80
2, 9267, Note_on_c, 1, 36, 0
2, 9440, Note_on_c, 1, 36, 80
2, 9592, Note_on_c, 1, 36, 0
2, 9600, Note_on_c, 1, 41, 80
2, 9975, Note_on_c, 1, 41, 0
2, 10080, Note_on_c, 1, 36, 80
2, 10455, Note_on_c, 1, 36, 0
2, 10560, Note_on_c, 1, 38, 80
2, 10935, Note_on_c, 1, 38, 0
2, 11040, Note_on_c, 1, 40, 80
2, 11512, Note_on_c, 1, 40, 0
2, 11520, Note_on_c, 1, 38, 80
2, 12147, Note_on_c, 1, 38, 0
2, 12320, Note_on_c, 1, 38, 80
2, 12472, Note_on_c, 1, 38, 0
2, 12480, Note_on_c, 1, 31, 80
2, 13405, Note_on_c, 1, 31, 0
2, 13440, Note_on_c, 1, 40, 80
2, 13815, Note_on_c, 1, 40, 0
2, 13920, Note_on_c, 1, 36, 80
2, 14295, Note_on_c, 1, 36, 0
2, 14400, Note_on_c, 1, 38, 80
2, 14775, Note_on_c, 1, 38, 0
2, 14880, Note_on_c, 1, 39, 80
2, 15352, Note_on_c, 1, 39, 0
2, 15360, Note_on_c, 1, 33, 80
2, 15987, Note_on_c, 1, 33, 0
2, 16160, Note_on_c, 1, 33, 80
2, 16285, Note_on_c, 1, 33, 0
2, 16320, Note_on_c, 1, 33, 80
2, 16947, Note_on_c, 1, 33, 0
2, 17120, Note_on_c, 1, 33, 80
2, 17275, Note_on_c, 1, 33, 0
2, 17280, Note_on_c, 1, 38, 80
2, 18205, Note_on_c, 1, 38, 0
2, 18240, Note_on_c, 1, 38, 80
2, 19165, Note_on_c, 1, 38, 0
2, 19200, Note_on_c, 1, 38, 80
2, 19827, Note_on_c, 1, 38, 0
2, 20000, Note_on_c, 1, 38, 80
2, 20152, Note_on_c, 1, 38, 0
2, 20160, Note_on_c, 1, 31, 80
2, 21085, Note_on_c, 1, 31, 0
2, 21120, Note_on_c, 1, 36, 80
2, 21747, Note_on_c, 1, 36, 0
2, 21920, Note_on_c, 1, 36, 80
2, 22045, Note_on_c, 1, 36, 0
2, 22080, Note_on_c, 1, 31, 80
2, 22707, Note_on_c, 1, 31, 0
2, 22880, Note_on_c, 1, 36, 80
2, 23035, Note_on_c, 1, 36, 0
2, 23040, Note_on_c, 1, 36, 80
2, 23965, Note_on_c, 1, 36, 0
2, 24000, Note_on_c, 1, 36, 80
2, 24925, Note_on_c, 1, 36, 0
2, 24960, Note_on_c, 1, 41, 80
2, 25587, Note_on_c, 1, 41, 0
2, 25760, Note_on_c, 1, 41, 80
2, 25885, Note_on_c, 1, 41, 0
2, 25920, Note_on_c, 1, 36, 80
2, 26547, Note_on_c, 1, 36, 0
2, 26720, Note_on_c, 1, 41, 80
2, 26875, Note_on_c, 1, 41, 0
2, 26880, Note_on_c, 1, 38, 80
2, 27805, Note_on_c, 1, 38, 0
2, 27840, Note_on_c, 1, 31, 80
2, 28765, Note_on_c, 1, 31, 0
2, 28800, Note_on_c, 1, 40, 80
2, 29725, Note_on_c, 1, 40, 0
2, 29760, Note_on_c, 1, 33, 80
2, 30387, Note_on_c, 1, 33, 0
2, 30560, Note_on_c, 1, 33, 80
2, 30712, Note_on_c, 1, 33, 0
2, 30720, Note_on_c, 1, 38, 80
2, 31347, Note_on_c, 1, 38, 0
2, 31520, Note_on_c, 1, 38, 80
2, 31672, Note_on_c, 1, 38, 0
2, 31680, Note_on_c, 1, 31, 80
2, 32605, Note_on_c, 1, 31, 0
2, 32640, Note_on_c, 1, 36, 80
2, 33267, Note_on_c, 1, 36, 0
2, 33440, Note_on_c, 1, 36, 80
2, 33592, Note_on_c, 1, 36, 0
2, 33600, Note_on_c, 1, 41, 80
2, 34227, Note_on_c, 1, 41, 0
2, 34400, Note_on_c, 1, 41, 80
2, 34552, Note_on_c, 1, 41, 0
2, 34560, Note_on_c, 1, 36, 80
2, 35485, Note_on_c, 1, 36, 0
2, 35520, Note_on_c, 1, 31, 80
2, 36147, Note_on_c, 1, 31, 0
2, 36320, Note_on_c, 1, 31, 80
2, 36472, Note_on_c, 1, 31, 0
2, 36480, Note_on_c, 1, 36, 80
2, 37107, Note_on_c, 1, 36, 0
2, 37280, Note_on_c, 1, 36, 80
2, 37405, Note_on_c, 1, 36, 0
2, 37440, Note_on_c, 1, 31, 80
2, 38067, Note_on_c, 1, 31, 0
2, 38240, Note_on_c, 1, 36, 80
2, 38395, Note_on_c, 1, 36, 0
2, 38400, Note_on_c, 1, 41, 80
2, 39027, Note_on_c, 1, 41, 0
2, 39200, Note_on_c, 1, 41, 80
2, 39352, Note_on_c, 1, 41, 0
2, 39360, Note_on_c, 1, 31, 80
2, 40285, Note_on_c, 1, 31, 0
2, 40320, Note_on_c, 1, 36, 80
2, 40947, Note_on_c, 1, 36, 0
2, 41120, Note_on_c, 1, 36, 80
2, 41272, Note_on_c, 1, 36, 0
2, 41280, Note_on_c, 1, 33, 80
2, 41907, Note_on_c, 1, 33, 0
2, 42080, Note_on_c, 1, 33, 80
2, 42232, Note_on_c, 1, 33, 0
2, 42240, Note_on_c, 1, 38, 80
2, 43165, Note_on_c, 1, 38, 0
2, 43200, Note_on_c, 1, 31, 80
2, 44125, Note_on_c, 1, 31, 0
2, 44160, Note_on_c, 1, 33, 80
2, 44535, Note_on_c, 1, 33, 0
2, 44640, Note_on_c, 1, 28, 80
2, 45015, Note_on_c, 1, 28, 0
2, 45120, Note_on_c, 1, 29, 80
2, 45495, Note_on_c, 1, 29, 0
2, 45600, Note_on_c, 1, 32, 80
2, 46072, Note_on_c, 1, 32, 0
2, 46080, Note_on_c, 1, 41, 80
2, 46707, Note_on_c, 1, 41, 0
2, 46880, Note_on_c, 1, 41, 80
2, 47032, Note_on_c, 1, 41, 0
2, 47040, Note_on_c, 1, 33, 80
2, 47965, Note_on_c, 1, 33, 0
2, 48000, Note_on_c, 1, 38, 80
2, 48925, Note_on_c, 1, 38, 0
2, 48960, Note_on_c, 1, 38, 80
2, 49587, Note_on_c, 1, 38, 0
2, 49760, Note_on_c, 1, 38, 80
2, 49912, Note_on_c, 1, 38, 0
2, 49920, Note_on_c, 1, 38, 80
2, 50845, Note_on_c, 1, 38, 0
2, 50880, Note_on_c, 1, 31, 80
2, 51507, Note_on_c, 1, 31, 0
2, 51680, Note_on_c, 1, 31, 80
2, 51832, Note_on_c, 1, 31, 0
2, 51840, Note_on_c, 1, 36, 80
2, 52215, Note_on_c, 1, 36, 0
2, 52320, Note_on_c, 1, 31, 80
2, 52695, Note_on_c, 1, 31, 0
2, 52800, Note_on_c, 1, 33, 80
2, 53175, Note_on_c, 1, 33, 0
2, 53280, Note_on_c, 1, 35, 80
2, 53752, Note_on_c, 1, 35, 0
2, 53760, Note_on_c, 1, 41, 80
2, 54387, Note_on_c, 1, 41, 0
2, 54560, Note_on_c, 1, 41, 80
2, 54712, Note_on_c, 1, 41, 0
2, 54720, Note_on_c, 1, 30, 80
2, 55645, Note_on_c, 1, 30, 0
2, 55680, Note_on_c, 1, 36, 80
2, 56055, Note_on_c, 1, 36, 0
2, 56160, Note_on_c, 1, 35, 80
2, 56535, Note_on_c, 1, 35, 0
2, 56640, Note_on_c, 1, 33, 80
2, 57015, Note_on_c, 1, 33, 0
2, 57120, Note_on_c, 1, 31, 80
2, 57495, Note_on_c, 1, 31, 0
2, 57600, Note_on_c, 1, 30, 80
2, 58525, Note_on_c, 1, 30, 0
2, 58560, Note_on_c, 1, 41, 80
2, 59485, Note_on_c, 1, 41, 0
2, 59520, Note_on_c, 1, 40, 80
2, 60147, Note_on_c, 1, 40, 0
2, 60320, Note_on_c, 1, 40, 80
2, 60472, Note_on_c, 1, 40, 0
2, 60480, Note_on_c, 1, 33, 80
2, 61107, Note_on_c, 1, 33, 0
2, 61280, Note_on_c, 1, 33, 80
2, 61432, Note_on_c, 1, 33, 0
2, 61440, Note_on_c, 1, 38, 80
2, 62365, Note_on_c, 1, 38, 0
2, 62400, Note_on_c, 1, 31, 80
2, 63027, Note_on_c, 1, 31, 0
2, 63200, Note_on_c, 1, 31, 80
2, 63352, Note_on_c, 1, 31, 0
2, 63360, Note_on_c, 1, 36, 80
2, 64285, Note_on_c, 1, 36, 0
2, 64320, Note_on_c, 1, 41, 80
2, 64947, Note_on_c, 1, 41, 0
2, 65120, Note_on_c, 1, 41, 80
2, 65272, Note_on_c, 1, 41, 0
2, 65280, Note_on_c, 1, 36, 80
2, 66205, Note_on_c, 1, 36, 0
2, 66240, Note_on_c, 1, 31, 80
2, 66867, Note_on_c, 1, 31, 0
2, 67040, Note_on_c, 1, 31, 80
2, 67192, Note_on_c, 1, 31, 0
2, 67200, Note_on_c, 1, 36, 80
2, 67575, Note_on_c, 1, 36, 0
2, 67680, Note_on_c, 1, 33, 80
2, 68055, Note_on_c, 1, 33, 0
2, 68160, Note_on_c, 1, 35, 80
2, 68535, Note_on_c, 1, 35, 0
2, 68640, Note_on_c, 1, 35, 80
2, 69112, Note_on_c, 1, 35, 0
2, 69120, Note_on_c, 1, 36, 80
2, 69747, Note_on_c, 1, 36, 0
2, 69920, Note_on_c, 1, 36, 80
2, 70072, Note_on_c, 1, 36, 0
2, 70080, Note_on_c, 1, 36, 80
2, 70707, Note_on_c, 1, 36, 0
2, 70880, Note_on_c, 1, 36, 80
2, 71032, Note_on_c, 1, 36, 0
2, 71040, Note_on_c, 1, 41, 80
2, 71415, Note_on_c, 1, 41, 0
2, 71520, Note_on_c, 1, 38, 80
2, 71895, Note_on_c, 1, 38, 0
2, 72000, Note_on_c, 1, 40, 80
2, 72375, Note_on_c, 1, 40, 0
2, 72480, Note_on_c, 1, 40, 80
2, 72952, Note_on_c, 1, 40, 0
2, 72960, Note_on_c, 1, 38, 80
2, 73885, Note_on_c, 1, 38, 0
2, 73920, Note_on_c, 1, 31, 80
2, 74547, Note_on_c, 1, 31, 0
2, 74720, Note_on_c, 1, 31, 80
2, 74872, Note_on_c, 1, 31, 0
2, 74880, Note_on_c, 1, 40, 80
2, 75255, Note_on_c, 1, 40, 0
2, 75360, Note_on_c, 1, 36, 80
2, 75735, Note_on_c, 1, 36, 0
2, 75840, Note_on_c, 1, 38, 80
2, 76215, Note_on_c, 1, 38, 0
2, 76320, Note_on_c, 1, 39, 80
2, 76792, Note_on_c, 1, 39, 0
2, 76800, Note_on_c, 1, 33, 80
2, 77427, Note_on_c, 1, 33, 0
2, 77600, Note_on_c, 1, 33, 80
2, 77725, Note_on_c, 1, 33, 0
2, 77760, Note_on_c, 1, 28, 80
2, 78387, Note_on_c, 1, 28, 0
2, 78560, Note_on_c, 1, 33, 80
2, 78715, Note_on_c, 1, 33, 0
2, 78720, Note_on_c, 1, 38, 80
2, 79347, Note_on_c, 1, 38, 0
2, 79520, Note_on_c, 1, 38, 80
2, 79672, Note_on_c, 1, 38, 0
2, 79680, Note_on_c, 1, 38, 80
2, 80307, Note_on_c, 1, 38, 0
2, 80480, Note_on_c, 1, 38, 80
2, 80632, Note_on_c, 1, 38, 0
2, 80640, Note_on_c, 1, 38, 80
2, 81267, Note_on_c, 1, 38, 0
2, 81440, Note_on_c, 1, 38, 80
2, 81592, Note_on_c, 1, 38, 0
2, 81600, Note_on_c, 1, 31, 80
2, 82525, Note_on_c, 1, 31, 0
2, 82560, Note_on_c, 1, 36, 80
2, 83187, Note_on_c, 1, 36, 0
2, 83360, Note_on_c, 1, 36, 80
2, 83485, Note_on_c, 1, 36, 0
2, 83520, Note_on_c, 1, 36, 80
2, 84147, Note_on_c, 1, 36, 0
2, 84320, Note_on_c, 1, 36, 80
2, 84475, Note_on_c, 1, 36, 0
2, 84480, Note_on_c, 1, 36, 80
2, 85405, Note_on_c, 1, 36, 0
2, 85440, Note_on_c, 1, 36, 80
2, 86067, Note_on_c, 1, 36, 0
2, 86240, Note_on_c, 1, 36, 80
2, 86392, Note_on_c, 1, 36, 0
2, 86400, Note_on_c, 1, 41, 80
2, 87027, Note_on_c, 1, 41, 0
2, 87200, Note_on_c, 1, 41, 80
2, 87325, Note_on_c, 1, 41, 0
2, 87360, Note_on_c, 1, 36, 80
2, 87987, Note_on_c, 1, 36, 0
2, 88160, Note_on_c, 1, 41, 80
2, 88315, Note_on_c, 1, 41, 0
2, 88320, Note_on_c, 1, 38, 80
2, 88947, Note_on_c, 1, 38, 0
2, 89120, Note_on_c, 1, 38, 80
2, 89272, Note_on_c, 1, 38, 0
2, 89280, Note_on_c, 1, 31, 80
2, 89907, Note_on_c, 1, 31, 0
2, 90080, Note_on_c, 1, 31, 80
2, 90232, Note_on_c, 1, 31, 0
2, 90240, Note_on_c, 1, 40, 80
2, 90867, Note_on_c, 1, 40, 0
2, 91040, Note_on_c, 1, 40, 80
2, 91192, Note_on_c, 1, 40, 0
2, 91200, Note_on_c, 1, 33, 80
2, 92125, Note_on_c, 1, 33, 0
2, 92160, Note_on_c, 1, 38, 80
2, 92787, Note_on_c, 1, 38, 0
2, 92960, Note_on_c, 1, 38, 80
2, 93112, Note_on_c, 1, 38, 0
2, 93120, Note_on_c, 1, 31, 80
2, 94045, Note_on_c, 1, 31, 0
2, 94080, Note_on_c, 1, 36, 80
2, 95005, Note_on_c, 1, 36, 0
2, 95040, Note_on_c, 1, 41, 80
2, 95965, Note_on_c, 1, 41, 0
2, 96000, Note_on_c, 1, 36, 80
2, 96925, Note_on_c, 1, 36, 0
2, 96960, Note_on_c, 1, 31, 80
2, 97885, Note_on_c, 1, 31, 0
2, 97920, Note_on_c, 1, 36, 80
2, 98547, Note_on_c, 1, 36, 0
2, 98720, Note_on_c, 1, 36, 80
2, 98845, Note_on_c, 1, 36, 0
2, 98880, Note_on_c, 1, 36, 80
2, 99507, Note_on_c, 1, 36, 0
2, 99680, Note_on_c, 1, 36, 80
2, 99835, Note_on_c, 1, 36, 0
2, 99840, Note_on_c, 1, 41, 80
2, 100765, Note_on_c, 1, 41, 0
2, 100800, Note_on_c, 1, 31, 80
2, 101427, Note_on_c, 1, 31, 0
2, 101600, Note_on_c, 1, 31, 80
2, 101752, Note_on_c, 1, 31, 0
2, 101760, Note_on_c, 1, 36, 80
2, 102387, Note_on_c, 1, 36, 0
2, 102560, Note_on_c, 1, 36, 80
2, 102712, Note_on_c, 1, 36, 0
2, 102720, Note_on_c, 1, 33, 80
2, 103645, Note_on_c, 1, 33, 0
2, 103680, Note_on_c, 1, 38, 80
2, 104307, Note_on_c, 1, 38, 0
2, 104480, Note_on_c, 1, 38, 80
2, 104632, Note_on_c, 1, 38, 0
2, 104640, Note_on_c, 1, 31, 80
2, 105565, Note_on_c, 1, 31, 0
2, 105600, Note_on_c, 1, 33, 80
2, 105975, Note_on_c, 1, 33, 0
2, 106080, Note_on_c, 1, 28, 80
2, 106455, Note_on_c, 1, 28, 0
2, 106560, Note_on_c, 1, 29, 80
2, 106935, Note_on_c, 1, 29, 0
2, 107040, Note_on_c, 1, 32, 80
2, 107512, Note_on_c, 1, 32, 0
2, 107520, Note_on_c, 1, 41, 80
2, 108445, Note_on_c, 1, 41, 0
2, 108480, Note_on_c, 1, 33, 80
2, 109405, Note_on_c, 1, 33, 0
2, 109440, Note_on_c, 1, 38, 80
2, 110067, Note_on_c, 1, 38, 0
2, 110240, Note_on_c, 1, 38, 80
2, 110392, Note_on_c, 1, 38, 0
2, 110400, Note_on_c, 1, 38, 80
2, 111325, Note_on_c, 1, 38, 0
2, 111360, Note_on_c, 1, 38, 80
2, 112285, Note_on_c, 1, 38, 0
2, 112320, Note_on_c, 1, 31, 80
2, 112947, Note_on_c, 1, 31, 0
2, 113120, Note_on_c, 1, 31, 80
2, 113272, Note_on_c, 1, 31, 0
2, 113280, Note_on_c, 1, 36, 80
2, 113655, Note_on_c, 1, 36, 0
2, 113760, Note_on_c, 1, 33, 80
2, 114135, Note_on_c, 1, 33, 0
2, 114240, Note_on_c, 1, 34, 80
2, 114615, Note_on_c, 1, 34, 0
2, 114720, Note_on_c, 1, 35, 80
2, 115192, Note_on_c, 1, 35, 0
2, 115200, Note_on_c, 1, 41, 80
2, 116125, Note_on_c, 1, 41, 0
2, 116160, Note_on_c, 1, 30, 80
2, 117085, Note_on_c, 1, 30, 0
2, 117120, Note_on_c, 1, 36, 80
2, 117495, Note_on_c, 1, 36, 0
2, 117600, Note_on_c, 1, 35, 80
2, 117975, Note_on_c, 1, 35, 0
2, 118080, Note_on_c, 1, 33, 80
2, 118455, Note_on_c, 1, 33, 0
2, 118560, Note_on_c, 1, 31, 80
2, 118935, Note_on_c, 1, 31, 0
2, 119040, Note_on_c, 1, 30, 80
2, 119667, Note_on_c, 1, 30, 0
2, 119840, Note_on_c, 1, 30, 80
2, 119992, Note_on_c, 1, 30, 0
2, 120000, Note_on_c, 1, 41, 80
2, 120627, Note_on_c, 1, 41, 0
2, 120800, Note_on_c, 1, 41, 80
2, 120952, Note_on_c, 1, 41, 0
2, 120960, Note_on_c, 1, 40, 80
2, 121885, Note_on_c, 1, 40, 0
2, 121920, Note_on_c, 1, 33, 80
2, 122845, Note_on_c, 1, 33, 0
2, 122880, Note_on_c, 1, 38, 80
2, 123805, Note_on_c, 1, 38, 0
2, 123840, Note_on_c, 1, 31, 80
2, 124467, Note_on_c, 1, 31, 0
2, 124640, Note_on_c, 1, 31, 80
2, 124792, Note_on_c, 1, 31, 0
2, 124800, Note_on_c, 1, 36, 80
2, 125725, Note_on_c, 1, 36, 0
2, 125760, Note_on_c, 1, 41, 80
2, 126387, Note_on_c, 1, 41, 0
2, 126560, Note_on_c, 1, 41, 80
2, 126712, Note_on_c, 1, 41, 0
2, 126720, Note_on_c, 1, 36, 80
2, 127347, Note_on_c, 1, 36, 0
2, 127520, Note_on_c, 1, 36, 80
2, 127672, Note_on_c, 1, 36, 0
2, 127680, Note_on_c, 1, 31, 80
2, 128605, Note_on_c, 1, 31, 0
2, 128640, Note_on_c, 1, 36, 80
2, 129267, Note_on_c, 1, 36, 0
2, 129440, Note_on_c, 1, 36, 80
2, 129565, Note_on_c, 1, 36, 0
2, 129600, Note_on_c, 1, 31, 80
2, 130227, Note_on_c, 1, 31, 0
2, 130400, Note_on_c, 1, 36, 80
2, 130555, Note_on_c, 1, 36, 0
2, 130560, Note_on_c, 1, 36, 80
2, 131485, Note_on_c, 1, 36, 0
2, 131520, Note_on_c, 1, 36, 80
2, 132445, Note_on_c, 1, 36, 0
2, 132480, Note_on_c, 1, 41, 80
2, 132855, Note_on_c, 1, 41, 0
2, 132960, Note_on_c, 1, 36, 80
2, 133335, Note_on_c, 1, 36, 0
2, 133440, Note_on_c, 1, 38, 80
2, 133815, Note_on_c, 1, 38, 0
2, 133920, Note_on_c, 1, 40, 80
2, 134392, Note_on_c, 1, 40, 0
2, 134400, Note_on_c, 1, 38, 80
2, 135027, Note_on_c, 1, 38, 0
2, 135200, Note_on_c, 1, 38, 80
2, 135352, Note_on_c, 1, 38, 0
2, 135360, Note_on_c, 1, 31, 80
2, 136285, Note_on_c, 1, 31, 0
2, 136320, Note_on_c, 1, 40, 80
2, 136695, Note_on_c, 1, 40, 0
2, 136800, Note_on_c, 1, 35, 80
2, 137175, Note_on_c, 1, 35, 0
2, 137280, Note_on_c, 1, 36, 80
2, 137655, Note_on_c, 1, 36, 0
2, 137760, Note_on_c, 1, 39, 80
2, 138232, Note_on_c, 1, 39, 0
2, 138240, Note_on_c, 1, 33, 80
2, 138867, Note_on_c, 1, 33, 0
2, 139040, Note_on_c, 1, 33, 80
2, 139165, Note_on_c, 1, 33, 0
2, 139200, Note_on_c, 1, 28, 80
2, 139827, Note_on_c, 1, 28, 0
2, 140000, Note_on_c, 1, 33, 80
2, 140155, Note_on_c, 1, 33, 0
2, 140160, Note_on_c, 1, 38, 80
2, 140787, Note_on_c, 1, 38, 0
2, 140960, Note_on_c, 1, 38, 80
2, 141112, Note_on_c, 1, 38, 0
2, 141120, Note_on_c, 1, 38, 80
2, 141747, Note_on_c, 1, 38, 0
2, 141920, Note_on_c, 1, 38, 80
2, 142072, Note_on_c, 1, 38, 0
2, 142080, Note_on_c, 1, 38, 80
2, 143005, Note_on_c, 1, 38, 0
2, 143040, Note_on_c, 1, 31, 80
2, 143667, Note_on_c, 1, 31, 0
2, 143840, Note_on_c, 1, 31, 80
2, 143992, Note_on_c, 1, 31, 0
2, 144000, Note_on_c, 1, 36, 80
2, 144375, Note_on_c, 1, 36, 0
2, 144480, Note_on_c, 1, 31, 80
2, 144855, Note_on_c, 1, 31, 0
2, 144960, Note_on_c, 1, 33, 80
2, 145335, Note_on_c, 1, 33, 0
2, 145440, Note_on_c, 1, 35, 80
2, 145912, Note_on_c, 1, 35, 0
2, 145920, Note_on_c, 1, 36, 80
2, 146845, Note_on_c, 1, 36, 0
2, 146880, Note_on_c, 1, 36, 80
2, 147507, Note_on_c, 1, 36, 0
2, 147680, Note_on_c, 1, 36, 80
2, 147832, Note_on_c, 1, 36, 0
2, 147840, Note_on_c, 1, 41, 80
2, 148467, Note_on_c, 1, 41, 0
2, 148640, Note_on_c, 1, 41, 80
2, 148765, Note_on_c, 1, 41, 0
2, 148800, Note_on_c, 1, 36, 80
2, 149427, Note_on_c, 1, 36, 0
2, 149600, Note_on_c, 1, 41, 80
2, 149755, Note_on_c, 1, 41, 0
2, 149760, Note_on_c, 1, 38, 80
2, 150387, Note_on_c, 1, 38, 0
2, 150560, Note_on_c, 1, 38, 80
2, 150712, Note_on_c, 1, 38, 0
2, 150720, Note_on_c, 1, 31, 80
2, 151347, Note_on_c, 1, 31, 0
2, 151520, Note_on_c, 1, 31, 80
2, 151672, Note_on_c, 1, 31, 0
2, 151680, Note_on_c, 1, 40, 80
2, 152605, Note_on_c, 1, 40, 0
2, 152640, Note_on_c, 1, 33, 80
2, 153565, Note_on_c, 1, 33, 0
2, 153600, Note_on_c, 1, 38, 80
2, 154525, Note_on_c, 1, 38, 0
2, 154560, Note_on_c, 1, 31, 80
2, 155485, Note_on_c, 1, 31, 0
2, 155520, Note_on_c, 1, 36, 80
2, 156147, Note_on_c, 1, 36, 0
2, 156320, Note_on_c, 1, 36, 80
2, 156472, Note_on_c, 1, 36, 0
2, 156480, Note_on_c, 1, 41, 80
2, 157107, Note_on_c, 1, 41, 0
2, 157280, Note_on_c, 1, 41, 80
2, 157432, Note_on_c, 1, 41, 0
2, 157440, Note_on_c, 1, 36, 80
2, 158365, Note_on_c, 1, 36, 0
2, 158400, Note_on_c, 1, 31, 80
2, 159325, Note_on_c, 1, 31, 0
2, 159360, Note_on_c, 1, 36, 80
2, 159987, Note_on_c, 1, 36, 0
2, 160160, Note_on_c, 1, 36, 80
2, 160285, Note_on_c, 1, 36, 0
2, 160320, Note_on_c, 1, 36, 80
2, 160947, Note_on_c, 1, 36, 0
2, 161120, Note_on_c, 1, 36, 80
2, 161275, Note_on_c, 1, 36, 0
2, 161280, Note_on_c, 1, 41, 80
2, 162205, Note_on_c, 1, 41, 0
2, 162240, Note_on_c, 1, 31, 80
2, 163165, Note_on_c, 1, 31, 0
2, 163200, Note_on_c, 1, 36, 80
2, 164125, Note_on_c, 1, 36, 0
2, 164160, Note_on_c, 1, 33, 80
2, 165085, Note_on_c, 1, 33, 0
2, 165120, Note_on_c, 1, 38, 80
2, 165747, Note_on_c, 1, 38, 0
2, 165920, Note_on_c, 1, 38, 80
2, 166072, Note_on_c, 1, 38, 0
2, 166080, Note_on_c, 1, 31, 80
2, 166707, Note_on_c, 1, 31, 0
2, 166880, Note_on_c, 1, 31, 80
2, 167032, Note_on_c, 1, 31, 0
2, 167040, Note_on_c, 1, 33, 80
2, 167415, Note_on_c, 1, 33, 0
2, 167520, Note_on_c, 1, 28, 80
2, 167895, Note_on_c, 1, 28, 0
2, 168000, Note_on_c, 1, 29, 80
2, 168375, Note_on_c, 1, 29, 0
2, 168480, Note_on_c, 1, 32, 80
2, 168952, Note_on_c, 1, 32, 0
2, 168960, Note_on_c, 1, 41, 80
2, 169587, Note_on_c, 1, 41, 0
2, 169760, Note_on_c, 1, 41, 80
2, 169912, Note_on_c, 1, 41, 0
2, 169920, Note_on_c, 1, 33, 80
2, 170547, Note_on_c, 1, 33, 0
2, 170720, Note_on_c, 1, 33, 80
2, 170872, Note_on_c, 1, 33, 0
2, 170880, Note_on_c, 1, 38, 80
2, 171507, Note_on_c, 1, 38, 0
2, 171680, Note_on_c, 1, 38, 80
2, 171832, Note_on_c, 1, 38, 0
2, 171840, Note_on_c, 1, 38, 80
2, 172765, Note_on_c, 1, 38, 0
2, 172800, Note_on_c, 1, 38, 80
2, 173427, Note_on_c, 1, 38, 0
2, 173600, Note_on_c, 1, 38, 80
2, 173752, Note_on_c, 1, 38, 0
2, 173760, Note_on_c, 1, 31, 80
2, 174685, Note_on_c, 1, 31, 0
2, 174720, Note_on_c, 1, 36, 80
2, 175095, Note_on_c, 1, 36, 0
2, 175200, Note_on_c, 1, 31, 80
2, 175575, Note_on_c, 1, 31, 0
2, 175680, Note_on_c, 1, 33, 80
2, 176055, Note_on_c, 1, 33, 0
2, 176160, Note_on_c, 1, 35, 80
2, 176632, Note_on_c, 1, 35, 0
2, 176640, Note_on_c, 1, 41, 80
2, 177267, Note_on_c, 1, 41, 0
2, 177440, Note_on_c, 1, 41, 80
2, 177592, Note_on_c, 1, 41, 0
2, 177600, Note_on_c, 1, 30, 80
2, 178227, Note_on_c, 1, 30, 0
2, 178400, Note_on_c, 1, 30, 80
2, 178552, Note_on_c, 1, 30, 0
2, 178560, Note_on_c, 1, 36, 80
2, 178935, Note_on_c, 1, 36, 0
2, 179040, Note_on_c, 1, 35, 80
2, 179415, Note_on_c, 1, 35, 0
2, 179520, Note_on_c, 1, 33, 80
2, 179895, Note_on_c, 1, 33, 0
2, 180000, Note_on_c, 1, 31, 80
2, 180375, Note_on_c, 1, 31, 0
2, 180480, Note_on_c, 1, 30, 80
2, 181107, Note_on_c, 1, 30, 0
2, 181280, Note_on_c, 1, 30, 80
2, 181432, Note_on_c, 1, 30, 0
2, 181440, Note_on_c, 1, 41, 80
2, 182365, Note_on_c, 1, 41, 0
2, 182400, Note_on_c, 1, 40, 80
2, 183325, Note_on_c, 1, 40, 0
2, 183360, Note_on_c, 1, 33, 80
2, 184285, Note_on_c, 1, 33, 0
2, 184320, Note_on_c, 1, 38, 80
2, 185245, Note_on_c, 1, 38, 0
2, 185280, Note_on_c, 1, 31, 80
2, 186205, Note_on_c, 1, 31, 0
2, 186240, Note_on_c, 1, 36, 80
2, 186867, Note_on_c, 1, 36, 0
2, 187040, Note_on_c, 1, 36, 80
2, 187192, Note_on_c, 1, 36, 0
2, 187200, Note_on_c, 1, 41, 80
2, 187827, Note_on_c, 1, 41, 0
2, 188000, Note_on_c, 1, 41, 80
2, 188152, Note_on_c, 1, 41, 0
2, 188160, Note_on_c, 1, 36, 80
2, 188787, Note_on_c, 1, 36, 0
2, 188960, Note_on_c, 1, 36, 80
2, 189112, Note_on_c, 1, 36, 0
2, 189120, Note_on_c, 1, 31, 80
2, 190045, Note_on_c, 1, 31, 0
2, 190080, Note_on_c, 1, 48, 80
2, 190455, Note_on_c, 1, 48, 0
2, 190560, Note_on_c, 1, 45, 80
2, 190935, Note_on_c, 1, 45, 0
2, 191040, Note_on_c, 1, 43, 80
2, 191415, Note_on_c, 1, 43, 0
2, 191520, Note_on_c, 1, 40, 80
2, 191895, Note_on_c, 1, 40, 0
2, 192000, Note_on_c, 1, 36, 80
2, 192252, Note_on_c, 1, 36, 0
2, 192960, Note_on_c, 1, 48, 90
2, 193900, Note_on_c, 1, 48, 0
2, 193900, End_track
3, 0, Start_track
3, 0, MIDI_port, 0
3, 0, Title_t, "Bass   "
3, 0, Control_c, 2, 123, 0
3, 0, Control_c, 2, 64, 0
3, 492, Program_c, 2, 32
3, 493, Control_c, 2, 7, 100
3, 493, Control_c, 2, 10, 64
3, 500, Control_c, 2, 10, 64
3, 5760, Note_on_c, 2, 36, 80
3, 6387, Note_on_c, 2, 36, 0
3, 6560, Note_on_c, 2, 36, 80
3, 6685, Note_on_c, 2, 36, 0
3, 6720, Note_on_c, 2, 36, 80
3, 7347, Note_on_c, 2, 36, 0
3, 7520, Note_on_c, 2, 36, 80
3, 7675, Note_on_c, 2, 36, 0
3, 7680, Note_on_c, 2, 36, 80
3, 8605, Note_on_c, 2, 36, 0
3, 8640, Note_on_c, 2, 36, 80
3, 9267, Note_on_c, 2, 36, 0
3, 9440, Note_on_c, 2, 36, 80
3, 9592, Note_on_c, 2, 36, 0
3, 9600, Note_on_c, 2, 41, 80
3, 9975, Note_on_c, 2, 41, 0
3, 10080, Note_on_c, 2, 36, 80
3, 10455, Note_on_c, 2, 36, 0
3, 10560, Note_on_c, 2, 38, 80
3, 10935, Note_on_c, 2, 38, 0
3, 11040, Note_on_c, 2, 40, 80
3, 11512, Note_on_c, 2, 40, 0
3, 11520, Note_on_c, 2, 38, 80
3, 12147, Note_on_c, 2, 38, 0
3, 12320, Note_on_c, 2, 38, 80
3, 12472, Note_on_c, 2, 38, 0
3, 12480, Note_on_c, 2, 31, 80
3, 13405, Note_on_c, 2, 31, 0
3, 13440, Note_on_c, 2, 40, 80
3, 13815, Note_on_c, 2, 40, 0
3, 13920, Note_on_c, 2, 36, 80
3, 14295, Note_on_c, 2, 36, 0
3, 14400, Note_on_c, 2, 38, 80
3, 14775, Note_on_c, 2, 38, 0
3, 14880, Note_on_c, 2, 39, 80
3, 15352, Note_on_c, 2, 39, 0
3, 15360, Note_on_c, 2, 33, 80
3, 15987, Note_on_c, 2, 33, 0
3, 16160, Note_on_c, 2, 33, 80
3, 16285, Note_on_c, 2, 33, 0
3, 16320, Note_on_c, 2, 33, 80
3, 16947, Note_on_c, 2, 33, 0
3, 17120, Note_on_c, 2, 33, 80
3, 17275, Note_on_c, 2, 33, 0
3, 17280, Note_on_c, 2, 38, 80
3, 18205, Note_on_c, 2, 38, 0
3, 18240, Note_on_c, 2, 38, 80
3, 19165, Note_on_c, 2, 38, 0
3, 19200, Note_on_c, 2, 38, 80
3, 19827, Note_on_c, 2, 38, 0
3, 20000, Note_on_c, 2, 38, 80
3, 20152, Note_on_c, 2, 38, 0
3, 20160, Note_on_c, 2, 31, 80
3, 21085, Note_on_c, 2, 31, 0
3, 21120, Note_on_c, 2, 36, 80
3, 21747, Note_on_c, 2, 36, 0
3, 21920, Note_on_c, 2, 36, 80
3, 22045, Note_on_c, 2, 36, 0
3, 22080, Note_on_c, 2, 31, 80
3, 22707, Note_on_c, 2, 31, 0
3, 22880, Note_on_c, 2, 36, 80
3, 23035, Note_on_c, 2, 36, 0
3, 23040, Note_on_c, 2, 36, 80
3, 23965, Note_on_c, 2, 36, 0
3, 24000, Note_on_c, 2, 36, 80
3, 24925, Note_on_c, 2, 36, 0
3, 24960, Note_on_c, 2, 41, 80
3, 25587, Note_on_c, 2, 41, 0
3, 25760, Note_on_c, 2, 41, 80
3, 25885, Note_on_c, 2, 41, 0
3, 25920, Note_on_c, 2, 36, 80
3, 26547, Note_on_c, 2, 36, 0
3, 26720, Note_on_c, 2, 41, 80
3, 26875, Note_on_c, 2, 41, 0
3, 26880, Note_on_c, 2, 38, 80
3, 27805, Note_on_c, 2, 38, 0
3, 27840, Note_on_c, 2, 31, 80
3, 28765, Note_on_c, 2, 31, 0
3, 28800, Note_on_c, 2, 40, 80
3, 29725, Note_on_c, 2, 40, 0
3, 29760, Note_on_c, 2, 33, 80
3, 30387, Note_on_c, 2, 33, 0
3, 30560, Note_on_c, 2, 33, 80
3, 30712, Note_on_c, 2, 33, 0
3, 30720, Note_on_c, 2, 38, 80
3, 31347, Note_on_c, 2, 38, 0
3, 31520, Note_on_c, 2, 38, 80
3, 31672, Note_on_c, 2, 38, 0
3, 31680, Note_on_c, 2, 31, 80
3, 32605, Note_on_c, 2, 31, 0
3, 32640, Note_on_c, 2, 36, 80
3, 33267, Note_on_c, 2, 36, 0
3, 33440, Note_on_c, 2, 36, 80
3, 33592, Note_on_c, 2, 36, 0
3, 33600, Note_on_c, 2, 41, 80
3, 34227, Note_on_c, 2, 41, 0
3, 34400, Note_on_c, 2, 41, 80
3, 34552, Note_on_c, 2, 41, 0
3, 34560, Note_on_c, 2, 36, 80
3, 35485, Note_on_c, 2, 36, 0
3, 35520, Note_on_c, 2, 31, 80
3, 36147, Note_on_c, 2, 31, 0
3, 36320, Note_on_c, 2, 31, 80
3, 36472, Note_on_c, 2, 31, 0
3, 36480, Note_on_c, 2, 36, 80
3, 37107, Note_on_c, 2, 36, 0
3, 37280, Note_on_c, 2, 36, 80
3, 37405, Note_on_c, 2, 36, 0
3, 37440, Note_on_c, 2, 31, 80
3, 38067, Note_on_c, 2, 31, 0
3, 38240, Note_on_c, 2, 36, 80
3, 38395, Note_on_c, 2, 36, 0
3, 38400, Note_on_c, 2, 41, 80
3, 39027, Note_on_c, 2, 41, 0
3, 39200, Note_on_c, 2, 41, 80
3, 39352, Note_on_c, 2, 41, 0
3, 39360, Note_on_c, 2, 31, 80
3, 40285, Note_on_c, 2, 31, 0
3, 40320, Note_on_c, 2, 36, 80
3, 40947, Note_on_c, 2, 36, 0
3, 41120, Note_on_c, 2, 36, 80
3, 41272, Note_on_c, 2, 36, 0
3, 41280, Note_on_c, 2, 33, 80
3, 41907, Note_on_c, 2, 33, 0
3, 42080, Note_on_c, 2, 33, 80
3, 42232, Note_on_c, 2, 33, 0
3, 42240, Note_on_c, 2, 38, 80
3, 43165, Note_on_c, 2, 38, 0
3, 43200, Note_on_c, 2, 31, 80
3, 44125, Note_on_c, 2, 31, 0
3, 44160, Note_on_c, 2, 33, 80
3, 44535, Note_on_c, 2, 33, 0
3, 44640, Note_on_c, 2, 28, 80
3, 45015, Note_on_c, 2, 28, 0
3, 45120, Note_on_c, 2, 29, 80
3, 45495, Note_on_c, 2, 29, 0
3, 45600, Note_on_c, 2, 32, 80
3, 46072, Note_on_c, 2, 32, 0
3, 46080, Note_on_c, 2, 41, 80
3, 46707, Note_on_c, 2, 41, 0
3, 46880, Note_on_c, 2, 41, 80
3, 47032, Note_on_c, 2, 41, 0
3, 47040, Note_on_c, 2, 33, 80
3, 47965, Note_on_c, 2, 33, 0
3, 48000, Note_on_c, 2, 38, 80
3, 48925, Note_on_c, 2, 38, 0
3, 48960, Note_on_c, 2, 38, 80
3, 49587, Note_on_c, 2, 38, 0
3, 49760, Note_on_c, 2, 38, 80
3, 49912, Note_on_c, 2, 38, 0
3, 49920, Note_on_c, 2, 38, 80
3, 50845, Note_on_c, 2, 38, 0
3, 50880, Note_on_c, 2, 31, 80
3, 51507, Note_on_c, 2, 31, 0
3, 51680, Note_on_c, 2, 31, 80
3, 51832, Note_on_c, 2, 31, 0
3, 51840, Note_on_c, 2, 36, 80
3, 52215, Note_on_c, 2, 36, 0
3, 52320, Note_on_c, 2, 31, 80
3, 52695, Note_on_c, 2, 31, 0
3, 52800, Note_on_c, 2, 33, 80
3, 53175, Note_on_c, 2, 33, 0
3, 53280, Note_on_c, 2, 35, 80
3, 53752, Note_on_c, 2, 35, 0
3, 53760, Note_on_c, 2, 41, 80
3, 54387, Note_on_c, 2, 41, 0
3, 54560, Note_on_c, 2, 41, 80
3, 54712, Note_on_c, 2, 41, 0
3, 54720, Note_on_c, 2, 30, 80
3, 55645, Note_on_c, 2, 30, 0
3, 55680, Note_on_c, 2, 36, 80
3, 56055, Note_on_c, 2, 36, 0
3, 56160, Note_on_c, 2, 35, 80
3, 56535, Note_on_c, 2, 35, 0
3, 56640, Note_on_c, 2, 33, 80
3, 57015, Note_on_c, 2, 33, 0
3, 57120, Note_on_c, 2, 31, 80
3, 57495, Note_on_c, 2, 31, 0
3, 57600, Note_on_c, 2, 30, 80
3, 58525, Note_on_c, 2, 30, 0
3, 58560, Note_on_c, 2, 41, 80
3, 59485, Note_on_c, 2, 41, 0
3, 59520, Note_on_c, 2, 40, 80
3, 60147, Note_on_c, 2, 40, 0
3, 60320, Note_on_c, 2, 40, 80
3, 60472, Note_on_c, 2, 40, 0
3, 60480, Note_on_c, 2, 33, 80
3, 61107, Note_on_c, 2, 33, 0
3, 61280, Note_on_c, 2, 33, 80
3, 61432, Note_on_c, 2, 33, 0
3, 61440, Note_on_c, 2, 38, 80
3, 62365, Note_on_c, 2, 38, 0
3, 62400, Note_on_c, 2, 31, 80
3, 63027, Note_on_c, 2, 31, 0
3, 63200, Note_on_c, 2, 31, 80
3, 63352, Note_on_c, 2, 31, 0
3, 63360, Note_on_c, 2, 36, 80
3, 64285, Note_on_c, 2, 36, 0
3, 64320, Note_on_c, 2, 41, 80
3, 64947, Note_on_c, 2, 41, 0
3, 65120, Note_on_c, 2, 41, 80
3, 65272, Note_on_c, 2, 41, 0
3, 65280, Note_on_c, 2, 36, 80
3, 66205, Note_on_c, 2, 36, 0
3, 66240, Note_on_c, 2, 31, 80
3, 66867, Note_on_c, 2, 31, 0
3, 67040, Note_on_c, 2, 31, 80
3, 67192, Note_on_c, 2, 31, 0
3, 67200, Note_on_c, 2, 36, 80
3, 67575, Note_on_c, 2, 36, 0
3, 67680, Note_on_c, 2, 33, 80
3, 68055, Note_on_c, 2, 33, 0
3, 68160, Note_on_c, 2, 35, 80
3, 68535, Note_on_c, 2, 35, 0
3, 68640, Note_on_c, 2, 35, 80
3, 69112, Note_on_c, 2, 35, 0
3, 69120, Note_on_c, 2, 36, 80
3, 69747, Note_on_c, 2, 36, 0
3, 69920, Note_on_c, 2, 36, 80
3, 70072, Note_on_c, 2, 36, 0
3, 70080, Note_on_c, 2, 36, 80
3, 70707, Note_on_c, 2, 36, 0
3, 70880, Note_on_c, 2, 36, 80
3, 71032, Note_on_c, 2, 36, 0
3, 71040, Note_on_c, 2, 41, 80
3, 71415, Note_on_c, 2, 41, 0
3, 71520, Note_on_c, 2, 38, 80
3, 71895, Note_on_c, 2, 38, 0
3, 72000, Note_on_c, 2, 40, 80
3, 72375, Note_on_c, 2, 40, 0
3, 72480, Note_on_c, 2, 40, 80
3, 72952, Note_on_c, 2, 40, 0
3, 72960, Note_on_c, 2, 38, 80
3, 73885, Note_on_c, 2, 38, 0
3, 73920, Note_on_c, 2, 31, 80
3, 74547, Note_on_c, 2, 31, 0
3, 74720, Note_on_c, 2, 31, 80
3, 74872, Note_on_c, 2, 31, 0
3, 74880, Note_on_c, 2, 40, 80
3, 75255, Note_on_c, 2, 40, 0
3, 75360, Note_on_c, 2, 36, 80
3, 75735, Note_on_c, 2, 36, 0
3, 75840, Note_on_c, 2, 38, 80
3, 76215, Note_on_c, 2, 38, 0
3, 76320, Note_on_c, 2, 39, 80
3, 76792, Note_on_c, 2, 39, 0
3, 76800, Note_on_c, 2, 33, 80
3, 77427, Note_on_c, 2, 33, 0
3, 77600, Note_on_c, 2, 33, 80
3, 77725, Note_on_c, 2, 33, 0
3, 77760, Note_on_c, 2, 28, 80
3, 78387, Note_on_c, 2, 28, 0
3, 78560, Note_on_c, 2, 33, 80
3, 78715, Note_on_c, 2, 33, 0
3, 78720, Note_on_c, 2, 38, 80
3, 79347, Note_on_c, 2, 38, 0
3, 79520, Note_on_c, 2, 38, 80
3, 79672, Note_on_c, 2, 38, 0
3, 79680, Note_on_c, 2, 38, 80
3, 80307, Note_on_c, 2, 38, 0
3, 80480, Note_on_c, 2, 38, 80
3, 80632, Note_on_c, 2, 38, 0
3, 80640, Note_on_c, 2, 38, 80
3, 81267, Note_on_c, 2, 38, 0
3, 81440, Note_on_c, 2, 38, 80
3, 81592, Note_on_c, 2, 38, 0
3, 81600, Note_on_c, 2, 31, 80
3, 82525, Note_on_c, 2, 31, 0
3, 82560, Note_on_c, 2, 36, 80
3, 83187, Note_on_c, 2, 36, 0
3, 83360, Note_on_c, 2, 36, 80
3, 83485, Note_on_c, 2, 36, 0
3, 83520, Note_on_c, 2, 36, 80
3, 84147, Note_on_c, 2, 36, 0
3, 84320, Note_on_c, 2, 36, 80
3, 84475, Note_on_c, 2, 36, 0
3, 84480, Note_on_c, 2, 36, 80
3, 85405, Note_on_c, 2, 36, 0
3, 85440, Note_on_c, 2, 36, 80
3, 86067, Note_on_c, 2, 36, 0
3, 86240, Note_on_c, 2, 36, 80
3, 86392, Note_on_c, 2, 36, 0
3, 86400, Note_on_c, 2, 41, 80
3, 87027, Note_on_c, 2, 41, 0
3, 87200, Note_on_c, 2, 41, 80
3, 87325, Note_on_c, 2, 41, 0
3, 87360, Note_on_c, 2, 36, 80
3, 87987, Note_on_c, 2, 36, 0
3, 88160, Note_on_c, 2, 41, 80
3, 88315, Note_on_c, 2, 41, 0
3, 88320, Note_on_c, 2, 38, 80
3, 88947, Note_on_c, 2, 38, 0
3, 89120, Note_on_c, 2, 38, 80
3, 89272, Note_on_c, 2, 38, 0
3, 89280, Note_on_c, 2, 31, 80
3, 89907, Note_on_c, 2, 31, 0
3, 90080, Note_on_c, 2, 31, 80
3, 90232, Note_on_c, 2, 31, 0
3, 90240, Note_on_c, 2, 40, 80
3, 90867, Note_on_c, 2, 40, 0
3, 91040, Note_on_c, 2, 40, 80
3, 91192, Note_on_c, 2, 40, 0
3, 91200, Note_on_c, 2, 33, 80
3, 92125, Note_on_c, 2, 33, 0
3, 92160, Note_on_c, 2, 38, 80
3, 92787, Note_on_c, 2, 38, 0
3, 92960, Note_on_c, 2, 38, 80
3, 93112, Note_on_c, 2, 38, 0
3, 93120, Note_on_c, 2, 31, 80
3, 94045, Note_on_c, 2, 31, 0
3, 94080, Note_on_c, 2, 36, 80
3, 95005, Note_on_c, 2, 36, 0
3, 95040, Note_on_c, 2, 41, 80
3, 95965, Note_on_c, 2, 41, 0
3, 96000, Note_on_c, 2, 36, 80
3, 96925, Note_on_c, 2, 36, 0
3, 96960, Note_on_c, 2, 31, 80
3, 97885, Note_on_c, 2, 31, 0
3, 97920, Note_on_c, 2, 36, 80
3, 98547, Note_on_c, 2, 36, 0
3, 98720, Note_on_c, 2, 36, 80
3, 98845, Note_on_c, 2, 36, 0
3, 98880, Note_on_c, 2, 36, 80
3, 99507, Note_on_c, 2, 36, 0
3, 99680, Note_on_c, 2, 36, 80
3, 99835, Note_on_c, 2, 36, 0
3, 99840, Note_on_c, 2, 41, 80
3, 100765, Note_on_c, 2, 41, 0
3, 100800, Note_on_c, 2, 31, 80
3, 101427, Note_on_c, 2, 31, 0
3, 101600, Note_on_c, 2, 31, 80
3, 101752, Note_on_c, 2, 31, 0
3, 101760, Note_on_c, 2, 36, 80
3, 102387, Note_on_c, 2, 36, 0
3, 102560, Note_on_c, 2, 36, 80
3, 102712, Note_on_c, 2, 36, 0
3, 102720, Note_on_c, 2, 33, 80
3, 103645, Note_on_c, 2, 33, 0
3, 103680, Note_on_c, 2, 38, 80
3, 104307, Note_on_c, 2, 38, 0
3, 104480, Note_on_c, 2, 38, 80
3, 104632, Note_on_c, 2, 38, 0
3, 104640, Note_on_c, 2, 31, 80
3, 105565, Note_on_c, 2, 31, 0
3, 105600, Note_on_c, 2, 33, 80
3, 105975, Note_on_c, 2, 33, 0
3, 106080, Note_on_c, 2, 28, 80
3, 106455, Note_on_c, 2, 28, 0
3, 106560, Note_on_c, 2, 29, 80
3, 106935, Note_on_c, 2, 29, 0
3, 107040, Note_on_c, 2, 32, 80
3, 107512, Note_on_c, 2, 32, 0
3, 107520, Note_on_c, 2, 41, 80
3, 108445, Note_on_c, 2, 41, 0
3, 108480, Note_on_c, 2, 33, 80
3, 109405, Note_on_c, 2, 33, 0
3, 109440, Note_on_c, 2, 38, 80
3, 110067, Note_on_c, 2, 38, 0
3, 110240, Note_on_c, 2, 38, 80
3, 110392, Note_on_c, 2, 38, 0
3, 110400, Note_on_c, 2, 38, 80
3, 111325, Note_on_c, 2, 38, 0
3, 111360, Note_on_c, 2, 38, 80
3, 112285, Note_on_c, 2, 38, 0
3, 112320, Note_on_c, 2, 31, 80
3, 112947, Note_on_c, 2, 31, 0
3, 113120, Note_on_c, 2, 31, 80
3, 113272, Note_on_c, 2, 31, 0
3, 113280, Note_on_c, 2, 36, 80
3, 113655, Note_on_c, 2, 36, 0
3, 113760, Note_on_c, 2, 33, 80
3, 114135, Note_on_c, 2, 33, 0
3, 114240, Note_on_c, 2, 34, 80
3, 114615, Note_on_c, 2, 34, 0
3, 114720, Note_on_c, 2, 35, 80
3, 115192, Note_on_c, 2, 35, 0
3, 115200, Note_on_c, 2, 41, 80
3, 116125, Note_on_c, 2, 41, 0
3, 116160, Note_on_c, 2, 30, 80
3, 117085, Note_on_c, 2, 30, 0
3, 117120, Note_on_c, 2, 36, 80
3, 117495, Note_on_c, 2, 36, 0
3, 117600, Note_on_c, 2, 35, 80
3, 117975, Note_on_c, 2, 35, 0
3, 118080, Note_on_c, 2, 33, 80
3, 118455, Note_on_c, 2, 33, 0
3, 118560, Note_on_c, 2, 31, 80
3, 118935, Note_on_c, 2, 31, 0
3, 119040, Note_on_c, 2, 30, 80
3, 119667, Note_on_c, 2, 30, 0
3, 119840, Note_on_c, 2, 30, 80
3, 119992, Note_on_c, 2, 30, 0
3, 120000, Note_on_c, 2, 41, 80
3, 120627, Note_on_c, 2, 41, 0
3, 120800, Note_on_c, 2, 41, 80
3, 120952, Note_on_c, 2, 41, 0
3, 120960, Note_on_c, 2, 40, 80
3, 121885, Note_on_c, 2, 40, 0
3, 121920, Note_on_c, 2, 33, 80
3, 122845, Note_on_c, 2, 33, 0
3, 122880, Note_on_c, 2, 38, 80
3, 123805, Note_on_c, 2, 38, 0
3, 123840, Note_on_c, 2, 31, 80
3, 124467, Note_on_c, 2, 31, 0
3, 124640, Note_on_c, 2, 31, 80
3, 124792, Note_on_c, 2, 31, 0
3, 124800, Note_on_c, 2, 36, 80
3, 125725, Note_on_c, 2, 36, 0
3, 125760, Note_on_c, 2, 41, 80
3, 126387, Note_on_c, 2, 41, 0
3, 126560, Note_on_c, 2, 41, 80
3, 126712, Note_on_c, 2, 41, 0
3, 126720, Note_on_c, 2, 36, 80
3, 127347, Note_on_c, 2, 36, 0
3, 127520, Note_on_c, 2, 36, 80
3, 127672, Note_on_c, 2, 36, 0
3, 127680, Note_on_c, 2, 31, 80
3, 128605, Note_on_c, 2, 31, 0
3, 128640, Note_on_c, 2, 36, 80
3, 129267, Note_on_c, 2, 36, 0
3, 129440, Note_on_c, 2, 36, 80
3, 129565, Note_on_c, 2, 36, 0
3, 129600, Note_on_c, 2, 31, 80
3, 130227, Note_on_c, 2, 31, 0
3, 130400, Note_on_c, 2, 36, 80
3, 130555, Note_on_c, 2, 36, 0
3, 130560, Note_on_c, 2, 36, 80
3, 131485, Note_on_c, 2, 36, 0
3, 131520, Note_on_c, 2, 36, 80
3, 132445, Note_on_c, 2, 36, 0
3, 132480, Note_on_c, 2, 41, 80
3, 132855, Note_on_c, 2, 41, 0
3, 132960, Note_on_c, 2, 36, 80
3, 133335, Note_on_c, 2, 36, 0
3, 133440, Note_on_c, 2, 38, 80
3, 133815, Note_on_c, 2, 38, 0
3, 133920, Note_on_c, 2, 40, 80
3, 134392, Note_on_c, 2, 40, 0
3, 134400, Note_on_c, 2, 38, 80
3, 135027, Note_on_c, 2, 38, 0
3, 135200, Note_on_c, 2, 38, 80
3, 135352, Note_on_c, 2, 38, 0
3, 135360, Note_on_c, 2, 31, 80
3, 136285, Note_on_c, 2, 31, 0
3, 136320, Note_on_c, 2, 40, 80
3, 136695, Note_on_c, 2, 40, 0
3, 136800, Note_on_c, 2, 35, 80
3, 137175, Note_on_c, 2, 35, 0
3, 137280, Note_on_c, 2, 36, 80
3, 137655, Note_on_c, 2, 36, 0
3, 137760, Note_on_c, 2, 39, 80
3, 138232, Note_on_c, 2, 39, 0
3, 138240, Note_on_c, 2, 33, 80
3, 138867, Note_on_c, 2, 33, 0
3, 139040, Note_on_c, 2, 33, 80
3, 139165, Note_on_c, 2, 33, 0
3, 139200, Note_on_c, 2, 28, 80
3, 139827, Note_on_c, 2, 28, 0
3, 140000, Note_on_c, 2, 33, 80
3, 140155, Note_on_c, 2, 33, 0
3, 140160, Note_on_c, 2, 38, 80
3, 140787, Note_on_c, 2, 38, 0
3, 140960, Note_on_c, 2, 38, 80
3, 141112, Note_on_c, 2, 38, 0
3, 141120, Note_on_c, 2, 38, 80
3, 141747, Note_on_c, 2, 38, 0
3, 141920, Note_on_c, 2, 38, 80
3, 142072, Note_on_c, 2, 38, 0
3, 142080, Note_on_c, 2, 38, 80
3, 143005, Note_on_c, 2, 38, 0
3, 143040, Note_on_c, 2, 31, 80
3, 143667, Note_on_c, 2, 31, 0
3, 143840, Note_on_c, 2, 31, 80
3, 143992, Note_on_c, 2, 31, 0
3, 144000, Note_on_c, 2, 36, 80
3, 144375, Note_on_c, 2, 36, 0
3, 144480, Note_on_c, 2, 31, 80
3, 144855, Note_on_c, 2, 31, 0
3, 144960, Note_on_c, 2, 33, 80
3, 145335, Note_on_c, 2, 33, 0
3, 145440, Note_on_c, 2, 35, 80
3, 145912, Note_on_c, 2, 35, 0
3, 145920, Note_on_c, 2, 36, 80
3, 146845, Note_on_c, 2, 36, 0
3, 146880, Note_on_c, 2, 36, 80
3, 147507, Note_on_c, 2, 36, 0
3, 147680, Note_on_c, 2, 36, 80
3, 147832, Note_on_c, 2, 36, 0
3, 147840, Note_on_c, 2, 41, 80
3, 148467, Note_on_c, 2, 41, 0
3, 148640, Note_on_c, 2, 41, 80
3, 148765, Note_on_c, 2, 41, 0
3, 148800, Note_on_c, 2, 36, 80
3, 149427, Note_on_c, 2, 36, 0
3, 149600, Note_on_c, 2, 41, 80
3, 149755, Note_on_c, 2, 41, 0
3, 149760, Note_on_c, 2, 38, 80
3, 150387, Note_on_c, 2, 38, 0
3, 150560, Note_on_c, 2, 38, 80
3, 150712, Note_on_c, 2, 38, 0
3, 150720, Note_on_c, 2, 31, 80
3, 151347, Note_on_c, 2, 31, 0
3, 151520, Note_on_c, 2, 31, 80
3, 151672, Note_on_c, 2, 31, 0
3, 151680, Note_on_c, 2, 40, 80
3, 152605, Note_on_c, 2, 40, 0
3, 152640, Note_on_c, 2, 33, 80
3, 153565, Note_on_c, 2, 33, 0
3, 153600, Note_on_c, 2, 38, 80
3, 154525, Note_on_c, 2, 38, 0
3, 154560, Note_on_c, 2, 31, 80
3, 155485, Note_on_c, 2, 31, 0
3, 155520, Note_on_c, 2, 36, 80
3, 156147, Note_on_c, 2, 36, 0
3, 156320, Note_on_c, 2, 36, 80
3, 156472, Note_on_c, 2, 36, 0
3, 156480, Note_on_c, 2, 41, 80
3, 157107, Note_on_c, 2, 41, 0
3, 157280, Note_on_c, 2, 41, 80
3, 157432, Note_on_c, 2, 41, 0
3, 157440, Note_on_c, 2, 36, 80
3, 158365, Note_on_c, 2, 36, 0
3, 158400, Note_on_c, 2, 31, 80
3, 159325, Note_on_c, 2, 31, 0
3, 159360, Note_on_c, 2, 36, 80
3, 159987, Note_on_c, 2, 36, 0
3, 160160, Note_on_c, 2, 36, 80
3, 160285, Note_on_c, 2, 36, 0
3, 160320, Note_on_c, 2, 36, 80
3, 160947, Note_on_c, 2, 36, 0
3, 161120, Note_on_c, 2, 36, 80
3, 161275, Note_on_c, 2, 36, 0
3, 161280, Note_on_c, 2, 41, 80
3, 162205, Note_on_c, 2, 41, 0
3, 162240, Note_on_c, 2, 31, 80
3, 163165, Note_on_c, 2, 31, 0
3, 163200, Note_on_c, 2, 36, 80
3, 164125, Note_on_c, 2, 36, 0
3, 164160, Note_on_c, 2, 33, 80
3, 165085, Note_on_c, 2, 33, 0
3, 165120, Note_on_c, 2, 38, 80
3, 165747, Note_on_c, 2, 38, 0
3, 165920, Note_on_c, 2, 38, 80
3, 166072, Note_on_c, 2, 38, 0
3, 166080, Note_on_c, 2, 31, 80
3, 166707, Note_on_c, 2, 31, 0
3, 166880, Note_on_c, 2, 31, 80
3, 167032, Note_on_c, 2, 31, 0
3, 167040, Note_on_c, 2, 33, 80
3, 167415, Note_on_c, 2, 33, 0
3, 167520, Note_on_c, 2, 28, 80
3, 167895, Note_on_c, 2, 28, 0
3, 168000, Note_on_c, 2, 29, 80
3, 168375, Note_on_c, 2, 29, 0
3, 168480, Note_on_c, 2, 32, 80
3, 168952, Note_on_c, 2, 32, 0
3, 168960, Note_on_c, 2, 41, 80
3, 169587, Note_on_c, 2, 41, 0
3, 169760, Note_on_c, 2, 41, 80
3, 169912, Note_on_c, 2, 41, 0
3, 169920, Note_on_c, 2, 33, 80
3, 170547, Note_on_c, 2, 33, 0
3, 170720, Note_on_c, 2, 33, 80
3, 170872, Note_on_c, 2, 33, 0
3, 170880, Note_on_c, 2, 38, 80
3, 171507, Note_on_c, 2, 38, 0
3, 171680, Note_on_c, 2, 38, 80
3, 171832, Note_on_c, 2, 38, 0
3, 171840, Note_on_c, 2, 38, 80
3, 172765, Note_on_c, 2, 38, 0
3, 172800, Note_on_c, 2, 38, 80
3, 173427, Note_on_c, 2, 38, 0
3, 173600, Note_on_c, 2, 38, 80
3, 173752, Note_on_c, 2, 38, 0
3, 173760, Note_on_c, 2, 31, 80
3, 174685, Note_on_c, 2, 31, 0
3, 174720, Note_on_c, 2, 36, 80
3, 175095, Note_on_c, 2, 36, 0
3, 175200, Note_on_c, 2, 31, 80
3, 175575, Note_on_c, 2, 31, 0
3, 175680, Note_on_c, 2, 33, 80
3, 176055, Note_on_c, 2, 33, 0
3, 176160, Note_on_c, 2, 35, 80
3, 176632, Note_on_c, 2, 35, 0
3, 176640, Note_on_c, 2, 41, 80
3, 177267, Note_on_c, 2, 41, 0
3, 177440, Note_on_c, 2, 41, 80
3, 177592, Note_on_c, 2, 41, 0
3, 177600, Note_on_c, 2, 30, 80
3, 178227, Note_on_c, 2, 30, 0
3, 178400, Note_on_c, 2, 30, 80
3, 178552, Note_on_c, 2, 30, 0
3, 178560, Note_on_c, 2, 36, 80
3, 178935, Note_on_c, 2, 36, 0
3, 179040, Note_on_c, 2, 35, 80
3, 179415, Note_on_c, 2, 35, 0
3, 179520, Note_on_c, 2, 33, 80
3, 179895, Note_on_c, 2, 33, 0
3, 180000, Note_on_c, 2, 31, 80
3, 180375, Note_on_c, 2, 31, 0
3, 180480, Note_on_c, 2, 30, 80
3, 181107, Note_on_c, 2, 30, 0
3, 181280, Note_on_c, 2, 30, 80
3, 181432, Note_on_c, 2, 30, 0
3, 181440, Note_on_c, 2, 41, 80
3, 182365, Note_on_c, 2, 41, 0
3, 182400, Note_on_c, 2, 40, 80
3, 183325, Note_on_c, 2, 40, 0
3, 183360, Note_on_c, 2, 33, 80
3, 184285, Note_on_c, 2, 33, 0
3, 184320, Note_on_c, 2, 38, 80
3, 185245, Note_on_c, 2, 38, 0
3, 185280, Note_on_c, 2, 31, 80
3, 186205, Note_on_c, 2, 31, 0
3, 186240, Note_on_c, 2, 36, 80
3, 186867, Note_on_c, 2, 36, 0
3, 187040, Note_on_c, 2, 36, 80
3, 187192, Note_on_c, 2, 36, 0
3, 187200, Note_on_c, 2, 41, 80
3, 187827, Note_on_c, 2, 41, 0
3, 188000, Note_on_c, 2, 41, 80
3, 188152, Note_on_c, 2, 41, 0
3, 188160, Note_on_c, 2, 36, 80
3, 188787, Note_on_c, 2, 36, 0
3, 188960, Note_on_c, 2, 36, 80
3, 189112, Note_on_c, 2, 36, 0
3, 189120, Note_on_c, 2, 31, 80
3, 190045, Note_on_c, 2, 31, 0
3, 190080, Note_on_c, 2, 48, 80
3, 190455, Note_on_c, 2, 48, 0
3, 190560, Note_on_c, 2, 45, 80
3, 190935, Note_on_c, 2, 45, 0
3, 191040, Note_on_c, 2, 43, 80
3, 191415, Note_on_c, 2, 43, 0
3, 191520, Note_on_c, 2, 40, 80
3, 191895, Note_on_c, 2, 40, 0
3, 192000, Note_on_c, 2, 36, 80
3, 192252, Note_on_c, 2, 36, 0
3, 192960, Note_on_c, 2, 48, 90
3, 193900, Note_on_c, 2, 48, 0
3, 193900, End_track
4, 0, Start_track
4, 0, MIDI_port, 0
4, 0, Title_t, "Melody  "
4, 0, Control_c, 3, 123, 0
4, 497, Program_c, 3, 89
4, 498, Control_c, 3, 7, 50
4, 498, Control_c, 3, 10, 64
4, 525, Control_c, 3, 10, 64
4, 4300, Note_on_c, 3, 59, 122
4, 4300, Lyric_t, "Oh "
4, 4785, Note_on_c, 3, 59, 0
4, 4800, Note_on_c, 3, 60, 109
4, 4800, Lyric_t, "Dan"
4, 5285, Note_on_c, 3, 60, 0
4, 5290, Note_on_c, 3, 62, 107
4, 5290, Lyric_t, "ny "
4, 5765, Note_on_c, 3, 62, 0
4, 5782, Note_on_c, 3, 64, 111
4, 5782, Lyric_t, "boy "
4, 7367, Note_on_c, 3, 64, 0
4, 7420, Note_on_c, 3, 62, 107
4, 7420, Lyric_t, "the "
4, 7710, Note_on_c, 3, 64, 122
4, 7710, Lyric_t, "pipes "
4, 7710, Lyric_t, "\015"
4, 7727, Note_on_c, 3, 62, 0
4, 8310, Note_on_c, 3, 64, 0
4, 8320, Note_on_c, 3, 69, 115
4, 8320, Lyric_t, "the "
4, 8647, Note_on_c, 3, 67, 102
4, 8647, Lyric_t, "pipes "
4, 8665, Note_on_c, 3, 69, 0
4, 9300, Note_on_c, 3, 64, 100
4, 9300, Lyric_t, "are "
4, 9322, Note_on_c, 3, 67, 0
4, 9650, Note_on_c, 3, 62, 107
4, 9650, Lyric_t, "cal"
4, 9660, Note_on_c, 3, 64, 0
4, 10095, Note_on_c, 3, 62, 0
4, 10100, Note_on_c, 3, 60, 105
4, 10425, Note_on_c, 3, 60, 0
4, 10447, Note_on_c, 3, 57, 113
4, 10447, Lyric_t, "lin "
4, 10447, Lyric_t, "\015"
4, 12275, Note_on_c, 3, 57, 0
4, 12282, Note_on_c, 3, 60, 120
4, 12282, Lyric_t, "From "
4, 12527, Note_on_c, 3, 60, 0
4, 12540, Note_on_c, 3, 64, 125
4, 12540, Lyric_t, "glen "
4, 12975, Note_on_c, 3, 64, 0
4, 12980, Note_on_c, 3, 65, 115
4, 12980, Lyric_t, "to "
4, 13487, Note_on_c, 3, 67, 100
4, 13487, Lyric_t, "glen "
4, 13487, Lyric_t, "\015"
4, 13495, Note_on_c, 3, 65, 0
4, 14807, Note_on_c, 3, 67, 0
4, 14882, Note_on_c, 3, 69, 118
4, 14882, Lyric_t, "and "
4, 15367, Note_on_c, 3, 69, 0
4, 15367, Note_on_c, 3, 67, 118
4, 15367, Lyric_t, "down "
4, 15970, Note_on_c, 3, 64, 105
4, 15970, Lyric_t, "the "
4, 15982, Note_on_c, 3, 67, 0
4, 16315, Note_on_c, 3, 64, 0
4, 16320, Note_on_c, 3, 60, 105
4, 16320, Lyric_t, "moun"
4, 16790, Note_on_c, 3, 64, 100
4, 16790, Lyric_t, "tain "
4, 16815, Note_on_c, 3, 60, 0
4, 17105, Note_on_c, 3, 64, 0
4, 17122, Note_on_c, 3, 62, 102
4, 17122, Lyric_t, "side "
4, 17122, Lyric_t, "\015"
4, 19617, Note_on_c, 3, 62, 0
4, 19700, Note_on_c, 3, 59, 120
4, 19700, Lyric_t, "The "
4, 20202, Note_on_c, 3, 60, 115
4, 20202, Lyric_t, "summers "
4, 20212, Note_on_c, 3, 59, 0
4, 20790, Note_on_c, 3, 60, 0
4, 20800, Note_on_c, 3, 62, 107
4, 20800, Lyric_t, "are "
4, 21112, Note_on_c, 3, 62, 0
4, 21142, Note_on_c, 3, 64, 109
4, 21142, Lyric_t, "gone "
4, 21142, Lyric_t, "\015"
4, 22762, Note_on_c, 3, 64, 0
4, 22787, Note_on_c, 3, 62, 111
4, 22787, Lyric_t, "and "
4, 23042, Note_on_c, 3, 62, 0
4, 23060, Note_on_c, 3, 64, 120
4, 23060, Lyric_t, "all "
4, 23542, Note_on_c, 3, 69, 115
4, 23542, Lyric_t, "the "
4, 23565, Note_on_c, 3, 64, 0
4, 23982, Note_on_c, 3, 67, 111
4, 23982, Lyric_t, "ro"
4, 23997, Note_on_c, 3, 69, 0
4, 24680, Note_on_c, 3, 64, 109
4, 24680, Lyric_t, "ses "
4, 24695, Note_on_c, 3, 67, 0
4, 25002, Note_on_c, 3, 62, 109
4, 25002, Lyric_t, "are "
4, 25007, Note_on_c, 3, 64, 0
4, 25437, Note_on_c, 3, 62, 0
4, 25440, Note_on_c, 3, 60, 96
4, 25440, Lyric_t, "dy"
4, 25782, Note_on_c, 3, 57, 100
4, 25782, Lyric_t, "in "
4, 25782, Lyric_t, "\015"
4, 25785, Note_on_c, 3, 60, 0
4, 27387, Note_on_c, 3, 57, 0
4, 27400, Note_on_c, 3, 59, 105
4, 27400, Lyric_t, "tis "
4, 27865, Note_on_c, 3, 59, 0
4, 27867, Note_on_c, 3, 60, 102
4, 27867, Lyric_t, "you "
4, 28452, Note_on_c, 3, 60, 0
4, 28462, Note_on_c, 3, 62, 105
4, 28462, Lyric_t, "tis "
4, 28777, Note_on_c, 3, 62, 0
4, 28807, Note_on_c, 3, 64, 107
4, 28807, Lyric_t, "you "
4, 28807, Lyric_t, "\015"
4, 30122, Note_on_c, 3, 64, 0
4, 30242, Note_on_c, 3, 65, 111
4, 30242, Lyric_t, "must "
4, 30727, Note_on_c, 3, 65, 0
4, 30760, Note_on_c, 3, 64, 109
4, 30760, Lyric_t, "go "
4, 31382, Note_on_c, 3, 62, 105
4, 31382, Lyric_t, "and "
4, 31392, Note_on_c, 3, 64, 0
4, 31710, Note_on_c, 3, 60, 94
4, 31710, Lyric_t, "i "
4, 31717, Note_on_c, 3, 62, 0
4, 32175, Note_on_c, 3, 60, 0
4, 32180, Note_on_c, 3, 62, 105
4, 32180, Lyric_t, "must "
4, 32527, Note_on_c, 3, 60, 115
4, 32527, Lyric_t, "bye "
4, 32527, Lyric_t, "\015"
4, 32527, Lyric_t, "\012"
4, 32535, Note_on_c, 3, 62, 0
4, 34632, Note_on_c, 3, 60, 0
4, 35067, Note_on_c, 3, 67, 122
4, 35067, Lyric_t, "But "
4, 35560, Note_on_c, 3, 67, 0
4, 35562, Note_on_c, 3, 69, 120
4, 35562, Lyric_t, "come "
4, 36115, Note_on_c, 3, 69, 0
4, 36140, Note_on_c, 3, 71, 125
4, 36140, Lyric_t, "ye "
4, 36502, Note_on_c, 3, 72, 122
4, 36502, Lyric_t, "back "
4, 36502, Lyric_t, "\015"
4, 36512, Note_on_c, 3, 71, 0
4, 38057, Note_on_c, 3, 72, 0
4, 38100, Note_on_c, 3, 71, 113
4, 38100, Lyric_t, "when "
4, 38335, Note_on_c, 3, 71, 0
4, 38422, Note_on_c, 3, 71, 115
4, 38422, Lyric_t, "sum"
4, 39000, Note_on_c, 3, 69, 102
4, 39000, Lyric_t, "mer`s "
4, 39017, Note_on_c, 3, 71, 0
4, 39350, Note_on_c, 3, 67, 111
4, 39350, Lyric_t, "in "
4, 39355, Note_on_c, 3, 69, 0
4, 39930, Note_on_c, 3, 67, 0
4, 39980, Note_on_c, 3, 69, 105
4, 39980, Lyric_t, "the "
4, 40340, Note_on_c, 3, 67, 111
4, 40340, Lyric_t, "val"
4, 40375, Note_on_c, 3, 69, 0
4, 40822, Note_on_c, 3, 64, 92
4, 40845, Note_on_c, 3, 67, 0
4, 41142, Note_on_c, 3, 60, 100
4, 41142, Lyric_t, "ley "
4, 41142, Lyric_t, "\015"
4, 41182, Note_on_c, 3, 64, 0
4, 42490, Note_on_c, 3, 60, 0
4, 42720, Note_on_c, 3, 67, 115
4, 42720, Lyric_t, "And "
4, 43220, Note_on_c, 3, 69, 107
4, 43220, Lyric_t, "all "
4, 43235, Note_on_c, 3, 67, 0
4, 43675, Note_on_c, 3, 69, 0
4, 43690, Note_on_c, 3, 71, 122
4, 43690, Lyric_t, "the "
4, 44180, Note_on_c, 3, 72, 120
4, 44180, Lyric_t, "land "
4, 44180, Lyric_t, "\015"
4, 44185, Note_on_c, 3, 71, 0
4, 45635, Note_on_c, 3, 72, 0
4, 45640, Note_on_c, 3, 71, 107
4, 45640, Lyric_t, "is "
4, 46012, Note_on_c, 3, 71, 0
4, 46100, Note_on_c, 3, 71, 111
4, 46100, Lyric_t, "hushed "
4, 46727, Note_on_c, 3, 69, 118
4, 46727, Lyric_t, "and "
4, 46732, Note_on_c, 3, 71, 0
4, 47062, Note_on_c, 3, 67, 109
4, 47062, Lyric_t, "white "
4, 47072, Note_on_c, 3, 69, 0
4, 47650, Note_on_c, 3, 64, 105
4, 47650, Lyric_t, "with "
4, 47670, Note_on_c, 3, 67, 0
4, 48020, Note_on_c, 3, 62, 107
4, 48020, Lyric_t, "snow "
4, 48020, Lyric_t, "\015"
4, 48025, Note_on_c, 3, 64, 0
4, 50387, Note_on_c, 3, 62, 0
4, 50390, Note_on_c, 3, 67, 122
4, 50390, Lyric_t, "And "
4, 50782, Note_on_c, 3, 67, 0
4, 50880, Note_on_c, 3, 67, 118
4, 50880, Lyric_t, "I`ll "
4, 51432, Note_on_c, 3, 67, 0
4, 51540, Note_on_c, 3, 67, 125
4, 51540, Lyric_t, "be "
4, 51800, Note_on_c, 3, 67, 0
4, 51860, Note_on_c, 3, 76, 118
4, 51860, Lyric_t, "here "
4, 51860, Lyric_t, "\015"
4, 53395, Note_on_c, 3, 76, 0
4, 53447, Note_on_c, 3, 74, 100
4, 53447, Lyric_t, "in "
4, 53702, Note_on_c, 3, 74, 0
4, 53787, Note_on_c, 3, 74, 107
4, 53787, Lyric_t, "sun"
4, 54280, Note_on_c, 3, 72, 105
4, 54280, Lyric_t, "shine "
4, 54302, Note_on_c, 3, 74, 0
4, 54735, Note_on_c, 3, 72, 0
4, 54740, Note_on_c, 3, 69, 100
4, 54740, Lyric_t, "or "
4, 55367, Note_on_c, 3, 69, 0
4, 55370, Note_on_c, 3, 72, 118
4, 55370, Lyric_t, "in "
4, 55720, Note_on_c, 3, 67, 102
4, 55720, Lyric_t, "the "
4, 55737, Note_on_c, 3, 72, 0
4, 56182, Note_on_c, 3, 64, 102
4, 56182, Lyric_t, "sha"
4, 56212, Note_on_c, 3, 67, 0
4, 56650, Note_on_c, 3, 60, 86
4, 56650, Lyric_t, "dows "
4, 56650, Lyric_t, "\015"
4, 56667, Note_on_c, 3, 64, 0
4, 58057, Note_on_c, 3, 60, 0
4, 58090, Note_on_c, 3, 59, 92
4, 58090, Lyric_t, "Oh "
4, 58562, Note_on_c, 3, 60, 100
4, 58562, Lyric_t, "Dan"
4, 58575, Note_on_c, 3, 59, 0
4, 59067, Note_on_c, 3, 60, 0
4, 59070, Note_on_c, 3, 62, 107
4, 59070, Lyric_t, "ny "
4, 59502, Note_on_c, 3, 62, 0
4, 59530, Note_on_c, 3, 64, 118
4, 59530, Lyric_t, "boy, "
4, 59530, Lyric_t, "\015"
4, 60150, Note_on_c, 3, 64, 0
4, 60167, Note_on_c, 3, 69, 118
4, 60167, Lyric_t, "Oh "
4, 60502, Note_on_c, 3, 69, 0
4, 60502, Note_on_c, 3, 67, 94
4, 60502, Lyric_t, "Dan"
4, 61120, Note_on_c, 3, 64, 105
4, 61120, Lyric_t, "ny "
4, 61127, Note_on_c, 3, 67, 0
4, 61467, Note_on_c, 3, 62, 100
4, 61467, Lyric_t, "boy "
4, 61467, Lyric_t, "\015"
4, 61480, Note_on_c, 3, 64, 0
4, 61927, Note_on_c, 3, 60, 88
4, 61927, Lyric_t, "I "
4, 61942, Note_on_c, 3, 62, 0
4, 62447, Note_on_c, 3, 57, 105
4, 62447, Lyric_t, "love "
4, 62472, Note_on_c, 3, 60, 0
4, 62992, Note_on_c, 3, 57, 0
4, 63000, Note_on_c, 3, 59, 109
4, 63000, Lyric_t, "you "
4, 63347, Note_on_c, 3, 60, 105
4, 63347, Lyric_t, "so. "
4, 63347, Lyric_t, "\015"
4, 63355, Note_on_c, 3, 59, 0
4, 65432, Note_on_c, 3, 60, 0
4, 65787, Note_on_c, 3, 59, 109
4, 66250, Note_on_c, 3, 60, 105
4, 66260, Note_on_c, 3, 59, 0
4, 66742, Note_on_c, 3, 60, 0
4, 66747, Note_on_c, 3, 62, 105
4, 67222, Note_on_c, 3, 64, 111
4, 67252, Note_on_c, 3, 62, 0
4, 68807, Note_on_c, 3, 64, 0
4, 68860, Note_on_c, 3, 62, 107
4, 69150, Note_on_c, 3, 64, 122
4, 69167, Note_on_c, 3, 62, 0
4, 69750, Note_on_c, 3, 64, 0
4, 69760, Note_on_c, 3, 69, 115
4, 70087, Note_on_c, 3, 67, 102
4, 70105, Note_on_c, 3, 69, 0
4, 70740, Note_on_c, 3, 64, 100
4, 70762, Note_on_c, 3, 67, 0
4, 71090, Note_on_c, 3, 62, 107
4, 71100, Note_on_c, 3, 64, 0
4, 71535, Note_on_c, 3, 62, 0
4, 71540, Note_on_c, 3, 60, 105
4, 71865, Note_on_c, 3, 60, 0
4, 71887, Note_on_c, 3, 57, 113
4, 73715, Note_on_c, 3, 57, 0
4, 73722, Note_on_c, 3, 60, 120
4, 73967, Note_on_c, 3, 60, 0
4, 73980, Note_on_c, 3, 64, 125
4, 74415, Note_on_c, 3, 64, 0
4, 74420, Note_on_c, 3, 65, 115
4, 74927, Note_on_c, 3, 67, 100
4, 74935, Note_on_c, 3, 65, 0
4, 76247, Note_on_c, 3, 67, 0
4, 76322, Note_on_c, 3, 69, 118
4, 76807, Note_on_c, 3, 69, 0
4, 76807, Note_on_c, 3, 67, 118
4, 77410, Note_on_c, 3, 64, 105
4, 77422, Note_on_c, 3, 67, 0
4, 77755, Note_on_c, 3, 64, 0
4, 77760, Note_on_c, 3, 60, 105
4, 78230, Note_on_c, 3, 64, 100
4, 78255, Note_on_c, 3, 60, 0
4, 78545, Note_on_c, 3, 64, 0
4, 78562, Note_on_c, 3, 62, 102
4, 81057, Note_on_c, 3, 62, 0
4, 81140, Note_on_c, 3, 59, 120
4, 81642, Note_on_c, 3, 60, 115
4, 81652, Note_on_c, 3, 59, 0
4, 82230, Note_on_c, 3, 60, 0
4, 82240, Note_on_c, 3, 62, 107
4, 82552, Note_on_c, 3, 62, 0
4, 82582, Note_on_c, 3, 64, 109
4, 84202, Note_on_c, 3, 64, 0
4, 84227, Note_on_c, 3, 62, 111
4, 84482, Note_on_c, 3, 62, 0
4, 84500, Note_on_c, 3, 64, 120
4, 84982, Note_on_c, 3, 69, 115
4, 85005, Note_on_c, 3, 64, 0
4, 85422, Note_on_c, 3, 67, 111
4, 85437, Note_on_c, 3, 69, 0
4, 86120, Note_on_c, 3, 64, 109
4, 86135, Note_on_c, 3, 67, 0
4, 86442, Note_on_c, 3, 62, 109
4, 86447, Note_on_c, 3, 64, 0
4, 86877, Note_on_c, 3, 62, 0
4, 86880, Note_on_c, 3, 60, 96
4, 87222, Note_on_c, 3, 57, 100
4, 87225, Note_on_c, 3, 60, 0
4, 88827, Note_on_c, 3, 57, 0
4, 88840, Note_on_c, 3, 59, 105
4, 89305, Note_on_c, 3, 59, 0
4, 89307, Note_on_c, 3, 60, 102
4, 89892, Note_on_c, 3, 60, 0
4, 89902, Note_on_c, 3, 62, 105
4, 90217, Note_on_c, 3, 62, 0
4, 90247, Note_on_c, 3, 64, 107
4, 91562, Note_on_c, 3, 64, 0
4, 91682, Note_on_c, 3, 65, 111
4, 92167, Note_on_c, 3, 65, 0
4, 92200, Note_on_c, 3, 64, 109
4, 92822, Note_on_c, 3, 62, 105
4, 92832, Note_on_c, 3, 64, 0
4, 93150, Note_on_c, 3, 60, 94
4, 93157, Note_on_c, 3, 62, 0
4, 93615, Note_on_c, 3, 60, 0
4, 93620, Note_on_c, 3, 62, 105
4, 93967, Note_on_c, 3, 60, 115
4, 93975, Note_on_c, 3, 62, 0
4, 96072, Note_on_c, 3, 60, 0
4, 96507, Note_on_c, 3, 67, 122
4, 97000, Note_on_c, 3, 67, 0
4, 97002, Note_on_c, 3, 69, 120
4, 97555, Note_on_c, 3, 69, 0
4, 97580, Note_on_c, 3, 71, 125
4, 97942, Note_on_c, 3, 72, 122
4, 97952, Note_on_c, 3, 71, 0
4, 99497, Note_on_c, 3, 72, 0
4, 99540, Note_on_c, 3, 71, 113
4, 99775, Note_on_c, 3, 71, 0
4, 99862, Note_on_c, 3, 71, 115
4, 100440, Note_on_c, 3, 69, 102
4, 100457, Note_on_c, 3, 71, 0
4, 100790, Note_on_c, 3, 67, 111
4, 100795, Note_on_c, 3, 69, 0
4, 101370, Note_on_c, 3, 67, 0
4, 101420, Note_on_c, 3, 69, 105
4, 101780, Note_on_c, 3, 67, 111
4, 101815, Note_on_c, 3, 69, 0
4, 102262, Note_on_c, 3, 64, 92
4, 102285, Note_on_c, 3, 67, 0
4, 102582, Note_on_c, 3, 60, 100
4, 102622, Note_on_c, 3, 64, 0
4, 103930, Note_on_c, 3, 60, 0
4, 104160, Note_on_c, 3, 67, 115
4, 104660, Note_on_c, 3, 69, 107
4, 104675, Note_on_c, 3, 67, 0
4, 105115, Note_on_c, 3, 69, 0
4, 105130, Note_on_c, 3, 71, 122
4, 105620, Note_on_c, 3, 72, 120
4, 105625, Note_on_c, 3, 71, 0
4, 107075, Note_on_c, 3, 72, 0
4, 107080, Note_on_c, 3, 71, 107
4, 107452, Note_on_c, 3, 71, 0
4, 107540, Note_on_c, 3, 71, 111
4, 108167, Note_on_c, 3, 69, 118
4, 108172, Note_on_c, 3, 71, 0
4, 108502, Note_on_c, 3, 67, 109
4, 108512, Note_on_c, 3, 69, 0
4, 109090, Note_on_c, 3, 64, 105
4, 109110, Note_on_c, 3, 67, 0
4, 109460, Note_on_c, 3, 62, 107
4, 109465, Note_on_c, 3, 64, 0
4, 111827, Note_on_c, 3, 62, 0
4, 111830, Note_on_c, 3, 67, 122
4, 112222, Note_on_c, 3, 67, 0
4, 112320, Note_on_c, 3, 67, 118
4, 112872, Note_on_c, 3, 67, 0
4, 112980, Note_on_c, 3, 67, 125
4, 113240, Note_on_c, 3, 67, 0
4, 113300, Note_on_c, 3, 76, 118
4, 114835, Note_on_c, 3, 76, 0
4, 114887, Note_on_c, 3, 74, 100
4, 115142, Note_on_c, 3, 74, 0
4, 115227, Note_on_c, 3, 74, 107
4, 115720, Note_on_c, 3, 72, 105
4, 115742, Note_on_c, 3, 74, 0
4, 116175, Note_on_c, 3, 72, 0
4, 116180, Note_on_c, 3, 69, 100
4, 116807, Note_on_c, 3, 69, 0
4, 116810, Note_on_c, 3, 72, 118
4, 117160, Note_on_c, 3, 67, 102
4, 117177, Note_on_c, 3, 72, 0
4, 117622, Note_on_c, 3, 64, 102
4, 117652, Note_on_c, 3, 67, 0
4, 118090, Note_on_c, 3, 60, 86
4, 118107, Note_on_c, 3, 64, 0
4, 119497, Note_on_c, 3, 60, 0
4, 119530, Note_on_c, 3, 59, 92
4, 120002, Note_on_c, 3, 60, 100
4, 120015, Note_on_c, 3, 59, 0
4, 120507, Note_on_c, 3, 60, 0
4, 120510, Note_on_c, 3, 62, 107
4, 120942, Note_on_c, 3, 62, 0
4, 120970, Note_on_c, 3, 64, 118
4, 121590, Note_on_c, 3, 64, 0
4, 121607, Note_on_c, 3, 69, 118
4, 121942, Note_on_c, 3, 69, 0
4, 121942, Note_on_c, 3, 67, 94
4, 122560, Note_on_c, 3, 64, 105
4, 122567, Note_on_c, 3, 67, 0
4, 122907, Note_on_c, 3, 62, 100
4, 122920, Note_on_c, 3, 64, 0
4, 123367, Note_on_c, 3, 60, 88
4, 123382, Note_on_c, 3, 62, 0
4, 123887, Note_on_c, 3, 57, 105
4, 123912, Note_on_c, 3, 60, 0
4, 124432, Note_on_c, 3, 57, 0
4, 124440, Note_on_c, 3, 59, 109
4, 124787, Note_on_c, 3, 60, 105
4, 124787, Lyric_t, " "
4, 124787, Lyric_t, "\015"
4, 124795, Note_on_c, 3, 59, 0
4, 126872, Note_on_c, 3, 60, 0
4, 127227, Note_on_c, 3, 59, 109
4, 127227, Lyric_t, "But "
4, 127690, Note_on_c, 3, 60, 105
4, 127690, Lyric_t, "if "
4, 127700, Note_on_c, 3, 59, 0
4, 128182, Note_on_c, 3, 60, 0
4, 128187, Note_on_c, 3, 62, 105
4, 128187, Lyric_t, "you "
4, 128662, Note_on_c, 3, 64, 111
4, 128662, Lyric_t, "come "
4, 128662, Lyric_t, "\015"
4, 128692, Note_on_c, 3, 62, 0
4, 130247, Note_on_c, 3, 64, 0
4, 130300, Note_on_c, 3, 62, 107
4, 130300, Lyric_t, "and "
4, 130590, Note_on_c, 3, 64, 122
4, 130590, Lyric_t, "all "
4, 130607, Note_on_c, 3, 62, 0
4, 131190, Note_on_c, 3, 64, 0
4, 131200, Note_on_c, 3, 69, 115
4, 131200, Lyric_t, "the "
4, 131527, Note_on_c, 3, 67, 102
4, 131527, Lyric_t, "flo"
4, 131545, Note_on_c, 3, 69, 0
4, 132180, Note_on_c, 3, 64, 100
4, 132180, Lyric_t, "wers "
4, 132202, Note_on_c, 3, 67, 0
4, 132530, Note_on_c, 3, 62, 107
4, 132530, Lyric_t, "are "
4, 132540, Note_on_c, 3, 64, 0
4, 132975, Note_on_c, 3, 62, 0
4, 132980, Note_on_c, 3, 60, 105
4, 132980, Lyric_t, "dy"
4, 133305, Note_on_c, 3, 60, 0
4, 133327, Note_on_c, 3, 57, 113
4, 133327, Lyric_t, "in "
4, 133327, Lyric_t, "\015"
4, 135155, Note_on_c, 3, 57, 0
4, 135162, Note_on_c, 3, 60, 120
4, 135162, Lyric_t, "And "
4, 135407, Note_on_c, 3, 60, 0
4, 135420, Note_on_c, 3, 64, 125
4, 135420, Lyric_t, "I "
4, 135855, Note_on_c, 3, 64, 0
4, 135860, Note_on_c, 3, 65, 115
4, 135860, Lyric_t, "am "
4, 136367, Note_on_c, 3, 67, 100
4, 136367, Lyric_t, "dead "
4, 136367, Lyric_t, "\015"
4, 136375, Note_on_c, 3, 65, 0
4, 137687, Note_on_c, 3, 67, 0
4, 137762, Note_on_c, 3, 69, 118
4, 137762, Lyric_t, "as "
4, 138247, Note_on_c, 3, 69, 0
4, 138247, Note_on_c, 3, 67, 118
4, 138247, Lyric_t, "dead "
4, 138850, Note_on_c, 3, 64, 105
4, 138850, Lyric_t, "I "
4, 138862, Note_on_c, 3, 67, 0
4, 139195, Note_on_c, 3, 64, 0
4, 139200, Note_on_c, 3, 60, 105
4, 139200, Lyric_t, "may "
4, 139670, Note_on_c, 3, 64, 100
4, 139670, Lyric_t, "will "
4, 139695, Note_on_c, 3, 60, 0
4, 139985, Note_on_c, 3, 64, 0
4, 140002, Note_on_c, 3, 62, 102
4, 140002, Lyric_t, "be "
4, 140002, Lyric_t, "\015"
4, 142497, Note_on_c, 3, 62, 0
4, 142580, Note_on_c, 3, 59, 120
4, 142580, Lyric_t, "You`ll "
4, 143082, Note_on_c, 3, 60, 115
4, 143082, Lyric_t, "come "
4, 143092, Note_on_c, 3, 59, 0
4, 143670, Note_on_c, 3, 60, 0
4, 143680, Note_on_c, 3, 62, 107
4, 143680, Lyric_t, "and "
4, 143992, Note_on_c, 3, 62, 0
4, 144022, Note_on_c, 3, 64, 109
4, 144022, Lyric_t, "find "
4, 144022, Lyric_t, "\015"
4, 145642, Note_on_c, 3, 64, 0
4, 145667, Note_on_c, 3, 62, 111
4, 145667, Lyric_t, "the "
4, 145922, Note_on_c, 3, 62, 0
4, 145940, Note_on_c, 3, 64, 120
4, 145940, Lyric_t, "place "
4, 146422, Note_on_c, 3, 69, 115
4, 146422, Lyric_t, "where "
4, 146445, Note_on_c, 3, 64, 0
4, 146862, Note_on_c, 3, 67, 111
4, 146862, Lyric_t, "I "
4, 146877, Note_on_c, 3, 69, 0
4, 147560, Note_on_c, 3, 64, 109
4, 147560, Lyric_t, "am "
4, 147575, Note_on_c, 3, 67, 0
4, 147882, Note_on_c, 3, 62, 109
4, 147882, Lyric_t, "ly"
4, 147887, Note_on_c, 3, 64, 0
4, 148317, Note_on_c, 3, 62, 0
4, 148320, Note_on_c, 3, 60, 96
4, 148662, Note_on_c, 3, 57, 100
4, 148662, Lyric_t, "in "
4, 148662, Lyric_t, "\015"
4, 148665, Note_on_c, 3, 60, 0
4, 150267, Note_on_c, 3, 57, 0
4, 150280, Note_on_c, 3, 59, 105
4, 150280, Lyric_t, "And "
4, 150745, Note_on_c, 3, 59, 0
4, 150747, Note_on_c, 3, 60, 102
4, 150747, Lyric_t, "kneel "
4, 151332, Note_on_c, 3, 60, 0
4, 151342, Note_on_c, 3, 62, 105
4, 151342, Lyric_t, "and "
4, 151657, Note_on_c, 3, 62, 0
4, 151687, Note_on_c, 3, 64, 107
4, 151687, Lyric_t, "say "
4, 151687, Lyric_t, "\015"
4, 153002, Note_on_c, 3, 64, 0
4, 153122, Note_on_c, 3, 65, 111
4, 153122, Lyric_t, "an "
4, 153607, Note_on_c, 3, 65, 0
4, 153640, Note_on_c, 3, 64, 109
4, 153640, Lyric_t, "a"
4, 154262, Note_on_c, 3, 62, 105
4, 154262, Lyric_t, "ve "
4, 154272, Note_on_c, 3, 64, 0
4, 154590, Note_on_c, 3, 60, 94
4, 154590, Lyric_t, "then "
4, 154597, Note_on_c, 3, 62, 0
4, 155055, Note_on_c, 3, 60, 0
4, 155060, Note_on_c, 3, 62, 105
4, 155060, Lyric_t, "for "
4, 155407, Note_on_c, 3, 60, 115
4, 155407, Lyric_t, "me "
4, 155407, Lyric_t, "\015"
4, 155407, Lyric_t, "\012"
4, 155415, Note_on_c, 3, 62, 0
4, 157512, Note_on_c, 3, 60, 0
4, 157947, Note_on_c, 3, 67, 122
4, 157947, Lyric_t, "And "
4, 158440, Note_on_c, 3, 67, 0
4, 158442, Note_on_c, 3, 69, 120
4, 158442, Lyric_t, "i "
4, 158995, Note_on_c, 3, 69, 0
4, 159020, Note_on_c, 3, 71, 125
4, 159020, Lyric_t, "shall "
4, 159382, Note_on_c, 3, 72, 122
4, 159382, Lyric_t, "feel "
4, 159382, Lyric_t, "\015"
4, 159392, Note_on_c, 3, 71, 0
4, 160937, Note_on_c, 3, 72, 0
4, 160980, Note_on_c, 3, 71, 113
4, 160980, Lyric_t, "Oh "
4, 161215, Note_on_c, 3, 71, 0
4, 161302, Note_on_c, 3, 71, 115
4, 161302, Lyric_t, "soft "
4, 161880, Note_on_c, 3, 69, 102
4, 161880, Lyric_t, "you "
4, 161897, Note_on_c, 3, 71, 0
4, 162230, Note_on_c, 3, 67, 111
4, 162230, Lyric_t, "tread "
4, 162235, Note_on_c, 3, 69, 0
4, 162810, Note_on_c, 3, 67, 0
4, 162860, Note_on_c, 3, 69, 105
4, 162860, Lyric_t, "a"
4, 163220, Note_on_c, 3, 67, 111
4, 163220, Lyric_t, "bo"
4, 163255, Note_on_c, 3, 69, 0
4, 163702, Note_on_c, 3, 64, 92
4, 163702, Lyric_t, "ve "
4, 163725, Note_on_c, 3, 67, 0
4, 164022, Note_on_c, 3, 60, 100
4, 164022, Lyric_t, "me "
4, 164022, Lyric_t, "\015"
4, 164062, Note_on_c, 3, 64, 0
4, 165370, Note_on_c, 3, 60, 0
4, 165600, Note_on_c, 3, 67, 115
4, 165600, Lyric_t, "And "
4, 166100, Note_on_c, 3, 69, 107
4, 166100, Lyric_t, "then "
4, 166115, Note_on_c, 3, 67, 0
4, 166555, Note_on_c, 3, 69, 0
4, 166570, Note_on_c, 3, 71, 122
4, 166570, Lyric_t, "my "
4, 167060, Note_on_c, 3, 72, 120
4, 167060, Lyric_t, "grave "
4, 167060, Lyric_t, "\015"
4, 167065, Note_on_c, 3, 71, 0
4, 168515, Note_on_c, 3, 72, 0
4, 168520, Note_on_c, 3, 71, 107
4, 168520, Lyric_t, "will "
4, 168892, Note_on_c, 3, 71, 0
4, 168980, Note_on_c, 3, 71, 111
4, 168980, Lyric_t, "ri"
4, 169607, Note_on_c, 3, 69, 118
4, 169607, Lyric_t, "cher "
4, 169612, Note_on_c, 3, 71, 0
4, 169942, Note_on_c, 3, 67, 109
4, 169942, Lyric_t, "swee"
4, 169952, Note_on_c, 3, 69, 0
4, 170530, Note_on_c, 3, 64, 105
4, 170530, Lyric_t, "ter "
4, 170550, Note_on_c, 3, 67, 0
4, 170900, Note_on_c, 3, 62, 107
4, 170900, Lyric_t, "be "
4, 170900, Lyric_t, "\015"
4, 170905, Note_on_c, 3, 64, 0
4, 173267, Note_on_c, 3, 62, 0
4, 173270, Note_on_c, 3, 67, 122
4, 173270, Lyric_t, "For "
4, 173662, Note_on_c, 3, 67, 0
4, 173760, Note_on_c, 3, 67, 118
4, 173760, Lyric_t, "you "
4, 174312, Note_on_c, 3, 67, 0
4, 174420, Note_on_c, 3, 67, 125
4, 174420, Lyric_t, "will "
4, 174680, Note_on_c, 3, 67, 0
4, 174740, Note_on_c, 3, 76, 118
4, 174740, Lyric_t, "bend "
4, 174740, Lyric_t, "\015"
4, 176275, Note_on_c, 3, 76, 0
4, 176327, Note_on_c, 3, 74, 100
4, 176327, Lyric_t, "and "
4, 176582, Note_on_c, 3, 74, 0
4, 176667, Note_on_c, 3, 74, 107
4, 176667, Lyric_t, "tell "
4, 177160, Note_on_c, 3, 72, 105
4, 177160, Lyric_t, "me "
4, 177182, Note_on_c, 3, 74, 0
4, 177615, Note_on_c, 3, 72, 0
4, 177620, Note_on_c, 3, 69, 100
4, 177620, Lyric_t, "that "
4, 178247, Note_on_c, 3, 69, 0
4, 178250, Note_on_c, 3, 72, 118
4, 178250, Lyric_t, "you "
4, 178600, Note_on_c, 3, 67, 102
4, 178600, Lyric_t, "lo"
4, 178617, Note_on_c, 3, 72, 0
4, 179062, Note_on_c, 3, 64, 102
4, 179062, Lyric_t, "ve "
4, 179092, Note_on_c, 3, 67, 0
4, 179530, Note_on_c, 3, 60, 86
4, 179530, Lyric_t, "me "
4, 179530, Lyric_t, "\015"
4, 179547, Note_on_c, 3, 64, 0
4, 180937, Note_on_c, 3, 60, 0
4, 180970, Note_on_c, 3, 59, 92
4, 180970, Lyric_t, "And "
4, 181442, Note_on_c, 3, 60, 100
4, 181442, Lyric_t, "I "
4, 181455, Note_on_c, 3, 59, 0
4, 181947, Note_on_c, 3, 60, 0
4, 181950, Note_on_c, 3, 62, 107
4, 181950, Lyric_t, "shall "
4, 182382, Note_on_c, 3, 62, 0
4, 182410, Note_on_c, 3, 64, 118
4, 182410, Lyric_t, "rest "
4, 182410, Lyric_t, "\015"
4, 183030, Note_on_c, 3, 64, 0
4, 183047, Note_on_c, 3, 69, 118
4, 183047, Lyric_t, "in "
4, 183382, Note_on_c, 3, 69, 0
4, 183382, Note_on_c, 3, 67, 94
4, 183382, Lyric_t, "peace "
4, 184000, Note_on_c, 3, 64, 105
4, 184000, Lyric_t, "un"
4, 184007, Note_on_c, 3, 67, 0
4, 184347, Note_on_c, 3, 62, 100
4, 184347, Lyric_t, "til "
4, 184360, Note_on_c, 3, 64, 0
4, 184807, Note_on_c, 3, 60, 88
4, 184807, Lyric_t, "you "
4, 184822, Note_on_c, 3, 62, 0
4, 185327, Note_on_c, 3, 57, 105
4, 185327, Lyric_t, "come "
4, 185352, Note_on_c, 3, 60, 0
4, 185872, Note_on_c, 3, 57, 0
4, 185880, Note_on_c, 3, 59, 109
4, 185880, Lyric_t, "to "
4, 185920, Note_on_c, 3, 59, 102
4, 185920, Lyric_t, "me "
4, 185920, Lyric_t, "\015"
4, 186227, Note_on_c, 3, 60, 105
4, 186235, Note_on_c, 3, 59, 0
4, 186272, Note_on_c, 3, 59, 0
4, 188312, Note_on_c, 3, 60, 0
4, 188667, Note_on_c, 3, 59, 99
4, 189130, Note_on_c, 3, 60, 85
4, 189140, Note_on_c, 3, 59, 0
4, 189622, Note_on_c, 3, 60, 0
4, 189627, Note_on_c, 3, 62, 75
4, 190107, Note_on_c, 3, 64, 65
4, 190132, Note_on_c, 3, 62, 0
4, 193002, Note_on_c, 3, 64, 0
4, 193002, End_track
5, 0, Start_track
5, 0, MIDI_port, 0
5, 0, Title_t, "Piano   "
5, 0, Control_c, 4, 123, 0
5, 0, Control_c, 4, 64, 0
5, 500, Control_c, 4, 0, 0
5, 501, Control_c, 4, 32, 0
5, 502, Program_c, 4, 0
5, 503, Control_c, 4, 7, 85
5, 503, Control_c, 4, 10, 64
5, 537, Control_c, 4, 10, 64
5, 5760, Note_on_c, 4, 48, 80
5, 6012, Note_on_c, 4, 48, 0
5, 6080, Note_on_c, 4, 67, 80
5, 6080, Note_on_c, 4, 64, 80
5, 6080, Note_on_c, 4, 60, 80
5, 6205, Note_on_c, 4, 60, 0
5, 6205, Note_on_c, 4, 64, 0
5, 6205, Note_on_c, 4, 67, 0
5, 6240, Note_on_c, 4, 52, 80
5, 6492, Note_on_c, 4, 52, 0
5, 6560, Note_on_c, 4, 67, 80
5, 6560, Note_on_c, 4, 64, 80
5, 6560, Note_on_c, 4, 60, 80
5, 6685, Note_on_c, 4, 60, 0
5, 6685, Note_on_c, 4, 64, 0
5, 6685, Note_on_c, 4, 67, 0
5, 6720, Note_on_c, 4, 55, 80
5, 6972, Note_on_c, 4, 55, 0
5, 7040, Note_on_c, 4, 67, 80
5, 7040, Note_on_c, 4, 64, 80
5, 7040, Note_on_c, 4, 60, 80
5, 7165, Note_on_c, 4, 60, 0
5, 7165, Note_on_c, 4, 64, 0
5, 7165, Note_on_c, 4, 67, 0
5, 7200, Note_on_c, 4, 48, 80
5, 7452, Note_on_c, 4, 48, 0
5, 7520, Note_on_c, 4, 67, 80
5, 7520, Note_on_c, 4, 64, 80
5, 7520, Note_on_c, 4, 60, 80
5, 7675, Note_on_c, 4, 60, 0
5, 7675, Note_on_c, 4, 64, 0
5, 7675, Note_on_c, 4, 67, 0
5, 7680, Note_on_c, 4, 60, 80
5, 7932, Note_on_c, 4, 60, 0
5, 8000, Note_on_c, 4, 64, 80
5, 8000, Note_on_c, 4, 67, 80
5, 8000, Note_on_c, 4, 72, 80
5, 8125, Note_on_c, 4, 72, 0
5, 8125, Note_on_c, 4, 67, 0
5, 8125, Note_on_c, 4, 64, 0
5, 8160, Note_on_c, 4, 55, 80
5, 8412, Note_on_c, 4, 55, 0
5, 8480, Note_on_c, 4, 60, 80
5, 8480, Note_on_c, 4, 64, 80
5, 8480, Note_on_c, 4, 67, 80
5, 8605, Note_on_c, 4, 67, 0
5, 8605, Note_on_c, 4, 64, 0
5, 8605, Note_on_c, 4, 60, 0
5, 8640, Note_on_c, 4, 62, 80
5, 8892, Note_on_c, 4, 62, 0
5, 8960, Note_on_c, 4, 64, 80
5, 8960, Note_on_c, 4, 67, 80
5, 8960, Note_on_c, 4, 74, 80
5, 9085, Note_on_c, 4, 74, 0
5, 9085, Note_on_c, 4, 67, 0
5, 9085, Note_on_c, 4, 64, 0
5, 9120, Note_on_c, 4, 55, 80
5, 9372, Note_on_c, 4, 55, 0
5, 9440, Note_on_c, 4, 62, 80
5, 9440, Note_on_c, 4, 64, 80
5, 9440, Note_on_c, 4, 67, 80
5, 9565, Note_on_c, 4, 67, 0
5, 9565, Note_on_c, 4, 64, 0
5, 9565, Note_on_c, 4, 62, 0
5, 9600, Note_on_c, 4, 41, 80
5, 9852, Note_on_c, 4, 41, 0
5, 9920, Note_on_c, 4, 60, 80
5, 9920, Note_on_c, 4, 57, 80
5, 9920, Note_on_c, 4, 53, 80
5, 10045, Note_on_c, 4, 53, 0
5, 10045, Note_on_c, 4, 57, 0
5, 10045, Note_on_c, 4, 60, 0
5, 10080, Note_on_c, 4, 45, 80
5, 10332, Note_on_c, 4, 45, 0
5, 10400, Note_on_c, 4, 60, 80
5, 10400, Note_on_c, 4, 57, 80
5, 10400, Note_on_c, 4, 53, 80
5, 10525, Note_on_c, 4, 53, 0
5, 10525, Note_on_c, 4, 57, 0
5, 10525, Note_on_c, 4, 60, 0
5, 10560, Note_on_c, 4, 48, 80
5, 10812, Note_on_c, 4, 48, 0
5, 10880, Note_on_c, 4, 60, 80
5, 10880, Note_on_c, 4, 57, 80
5, 10880, Note_on_c, 4, 53, 80
5, 11005, Note_on_c, 4, 53, 0
5, 11005, Note_on_c, 4, 57, 0
5, 11005, Note_on_c, 4, 60, 0
5, 11040, Note_on_c, 4, 41, 80
5, 11292, Note_on_c, 4, 41, 0
5, 11360, Note_on_c, 4, 60, 80
5, 11360, Note_on_c, 4, 57, 80
5, 11360, Note_on_c, 4, 53, 80
5, 11515, Note_on_c, 4, 53, 0
5, 11515, Note_on_c, 4, 57, 0
5, 11515, Note_on_c, 4, 60, 0
5, 11520, Note_on_c, 4, 62, 80
5, 11520, Note_on_c, 4, 60, 80
5, 11520, Note_on_c, 4, 57, 80
5, 11520, Note_on_c, 4, 65, 80
5, 11772, Note_on_c, 4, 65, 0
5, 11772, Note_on_c, 4, 62, 0
5, 11772, Note_on_c, 4, 60, 0
5, 11772, Note_on_c, 4, 57, 0
5, 12480, Note_on_c, 4, 57, 80
5, 12732, Note_on_c, 4, 57, 0
5, 12800, Note_on_c, 4, 59, 80
5, 12800, Note_on_c, 4, 62, 80
5, 12800, Note_on_c, 4, 69, 80
5, 12925, Note_on_c, 4, 69, 0
5, 12925, Note_on_c, 4, 62, 0
5, 12925, Note_on_c, 4, 59, 0
5, 12960, Note_on_c, 4, 50, 80
5, 13212, Note_on_c, 4, 50, 0
5, 13280, Note_on_c, 4, 57, 80
5, 13280, Note_on_c, 4, 59, 80
5, 13280, Note_on_c, 4, 62, 80
5, 13405, Note_on_c, 4, 62, 0
5, 13405, Note_on_c, 4, 59, 0
5, 13405, Note_on_c, 4, 57, 0
5, 13440, Note_on_c, 4, 52, 80
5, 13692, Note_on_c, 4, 52, 0
5, 13760, Note_on_c, 4, 55, 80
5, 13760, Note_on_c, 4, 59, 80
5, 13760, Note_on_c, 4, 64, 80
5, 13885, Note_on_c, 4, 64, 0
5, 13885, Note_on_c, 4, 59, 0
5, 13885, Note_on_c, 4, 55, 0
5, 13920, Note_on_c, 4, 47, 80
5, 14172, Note_on_c, 4, 47, 0
5, 14240, Note_on_c, 4, 59, 80
5, 14240, Note_on_c, 4, 55, 80
5, 14240, Note_on_c, 4, 52, 80
5, 14365, Note_on_c, 4, 52, 0
5, 14365, Note_on_c, 4, 55, 0
5, 14365, Note_on_c, 4, 59, 0
5, 14400, Note_on_c, 4, 43, 80
5, 14652, Note_on_c, 4, 43, 0
5, 14720, Note_on_c, 4, 47, 80
5, 14720, Note_on_c, 4, 52, 80
5, 14720, Note_on_c, 4, 55, 80
5, 14845, Note_on_c, 4, 55, 0
5, 14845, Note_on_c, 4, 52, 0
5, 14845, Note_on_c, 4, 47, 0
5, 14880, Note_on_c, 4, 40, 80
5, 15132, Note_on_c, 4, 40, 0
5, 15200, Note_on_c, 4, 59, 80
5, 15200, Note_on_c, 4, 55, 80
5, 15200, Note_on_c, 4, 52, 80
5, 15355, Note_on_c, 4, 52, 0
5, 15355, Note_on_c, 4, 55, 0
5, 15355, Note_on_c, 4, 59, 0
5, 15360, Note_on_c, 4, 45, 80
5, 15612, Note_on_c, 4, 45, 0
5, 15680, Note_on_c, 4, 64, 80
5, 15680, Note_on_c, 4, 60, 80
5, 15680, Note_on_c, 4, 57, 80
5, 15805, Note_on_c, 4, 57, 0
5, 15805, Note_on_c, 4, 60, 0
5, 15805, Note_on_c, 4, 64, 0
5, 15840, Note_on_c, 4, 48, 80
5, 16092, Note_on_c, 4, 48, 0
5, 16160, Note_on_c, 4, 64, 80
5, 16160, Note_on_c, 4, 60, 80
5, 16160, Note_on_c, 4, 57, 80
5, 16285, Note_on_c, 4, 57, 0
5, 16285, Note_on_c, 4, 60, 0
5, 16285, Note_on_c, 4, 64, 0
5, 16320, Note_on_c, 4, 52, 80
5, 16572, Note_on_c, 4, 52, 0
5, 16640, Note_on_c, 4, 64, 80
5, 16640, Note_on_c, 4, 60, 80
5, 16640, Note_on_c, 4, 57, 80
5, 16765, Note_on_c, 4, 57, 0
5, 16765, Note_on_c, 4, 60, 0
5, 16765, Note_on_c, 4, 64, 0
5, 16800, Note_on_c, 4, 45, 80
5, 17052, Note_on_c, 4, 45, 0
5, 17120, Note_on_c, 4, 64, 80
5, 17120, Note_on_c, 4, 60, 80
5, 17120, Note_on_c, 4, 57, 80
5, 17275, Note_on_c, 4, 57, 0
5, 17275, Note_on_c, 4, 60, 0
5, 17275, Note_on_c, 4, 64, 0
5, 17280, Note_on_c, 4, 64, 80
5, 17280, Note_on_c, 4, 60, 80
5, 17280, Note_on_c, 4, 59, 80
5, 17280, Note_on_c, 4, 66, 80
5, 17532, Note_on_c, 4, 66, 0
5, 17532, Note_on_c, 4, 64, 0
5, 17532, Note_on_c, 4, 60, 0
5, 17532, Note_on_c, 4, 59, 0
5, 18240, Note_on_c, 4, 64, 80
5, 18492, Note_on_c, 4, 64, 0
5, 18560, Note_on_c, 4, 66, 80
5, 18560, Note_on_c, 4, 70, 80
5, 18560, Note_on_c, 4, 76, 80
5, 18685, Note_on_c, 4, 76, 0
5, 18685, Note_on_c, 4, 70, 0
5, 18685, Note_on_c, 4, 66, 0
5, 18720, Note_on_c, 4, 58, 80
5, 18972, Note_on_c, 4, 58, 0
5, 19040, Note_on_c, 4, 64, 80
5, 19040, Note_on_c, 4, 66, 80
5, 19040, Note_on_c, 4, 70, 80
5, 19165, Note_on_c, 4, 70, 0
5, 19165, Note_on_c, 4, 66, 0
5, 19165, Note_on_c, 4, 64, 0
5, 19200, Note_on_c, 4, 62, 80
5, 19200, Note_on_c, 4, 60, 80
5, 19200, Note_on_c, 4, 57, 80
5, 19200, Note_on_c, 4, 65, 80
5, 19452, Note_on_c, 4, 65, 0
5, 19452, Note_on_c, 4, 62, 0
5, 19452, Note_on_c, 4, 60, 0
5, 19452, Note_on_c, 4, 57, 0
5, 20160, Note_on_c, 4, 57, 80
5, 20412, Note_on_c, 4, 57, 0
5, 20480, Note_on_c, 4, 59, 80
5, 20480, Note_on_c, 4, 62, 80
5, 20480, Note_on_c, 4, 69, 80
5, 20605, Note_on_c, 4, 69, 0
5, 20605, Note_on_c, 4, 62, 0
5, 20605, Note_on_c, 4, 59, 0
5, 20640, Note_on_c, 4, 50, 80
5, 20892, Note_on_c, 4, 50, 0
5, 20960, Note_on_c, 4, 57, 80
5, 20960, Note_on_c, 4, 59, 80
5, 20960, Note_on_c, 4, 62, 80
5, 21085, Note_on_c, 4, 62, 0
5, 21085, Note_on_c, 4, 59, 0
5, 21085, Note_on_c, 4, 57, 0
5, 21120, Note_on_c, 4, 48, 80
5, 21372, Note_on_c, 4, 48, 0
5, 21440, Note_on_c, 4, 67, 80
5, 21440, Note_on_c, 4, 64, 80
5, 21440, Note_on_c, 4, 60, 80
5, 21565, Note_on_c, 4, 60, 0
5, 21565, Note_on_c, 4, 64, 0
5, 21565, Note_on_c, 4, 67, 0
5, 21600, Note_on_c, 4, 52, 80
5, 21852, Note_on_c, 4, 52, 0
5, 21920, Note_on_c, 4, 67, 80
5, 21920, Note_on_c, 4, 64, 80
5, 21920, Note_on_c, 4, 60, 80
5, 22045, Note_on_c, 4, 60, 0
5, 22045, Note_on_c, 4, 64, 0
5, 22045, Note_on_c, 4, 67, 0
5, 22080, Note_on_c, 4, 55, 80
5, 22332, Note_on_c, 4, 55, 0
5, 22400, Note_on_c, 4, 67, 80
5, 22400, Note_on_c, 4, 64, 80
5, 22400, Note_on_c, 4, 60, 80
5, 22525, Note_on_c, 4, 60, 0
5, 22525, Note_on_c, 4, 64, 0
5, 22525, Note_on_c, 4, 67, 0
5, 22560, Note_on_c, 4, 48, 80
5, 22812, Note_on_c, 4, 48, 0
5, 22880, Note_on_c, 4, 67, 80
5, 22880, Note_on_c, 4, 64, 80
5, 22880, Note_on_c, 4, 60, 80
5, 23035, Note_on_c, 4, 60, 0
5, 23035, Note_on_c, 4, 64, 0
5, 23035, Note_on_c, 4, 67, 0
5, 23040, Note_on_c, 4, 62, 80
5, 23040, Note_on_c, 4, 59, 80
5, 23040, Note_on_c, 4, 55, 80
5, 23040, Note_on_c, 4, 64, 80
5, 23292, Note_on_c, 4, 64, 0
5, 23292, Note_on_c, 4, 62, 0
5, 23292, Note_on_c, 4, 59, 0
5, 23292, Note_on_c, 4, 55, 0
5, 24000, Note_on_c, 4, 62, 80
5, 24252, Note_on_c, 4, 62, 0
5, 24320, Note_on_c, 4, 64, 80
5, 24320, Note_on_c, 4, 67, 80
5, 24320, Note_on_c, 4, 74, 80
5, 24445, Note_on_c, 4, 74, 0
5, 24445, Note_on_c, 4, 67, 0
5, 24445, Note_on_c, 4, 64, 0
5, 24480, Note_on_c, 4, 55, 80
5, 24732, Note_on_c, 4, 55, 0
5, 24800, Note_on_c, 4, 62, 80
5, 24800, Note_on_c, 4, 64, 80
5, 24800, Note_on_c, 4, 67, 80
5, 24925, Note_on_c, 4, 67, 0
5, 24925, Note_on_c, 4, 64, 0
5, 24925, Note_on_c, 4, 62, 0
5, 24960, Note_on_c, 4, 53, 80
5, 25212, Note_on_c, 4, 53, 0
5, 25280, Note_on_c, 4, 57, 80
5, 25280, Note_on_c, 4, 60, 80
5, 25280, Note_on_c, 4, 67, 80
5, 25405, Note_on_c, 4, 67, 0
5, 25405, Note_on_c, 4, 60, 0
5, 25405, Note_on_c, 4, 57, 0
5, 25440, Note_on_c, 4, 48, 80
5, 25692, Note_on_c, 4, 48, 0
5, 25760, Note_on_c, 4, 60, 80
5, 25760, Note_on_c, 4, 57, 80
5, 25760, Note_on_c, 4, 53, 80
5, 25885, Note_on_c, 4, 53, 0
5, 25885, Note_on_c, 4, 57, 0
5, 25885, Note_on_c, 4, 60, 0
5, 25920, Note_on_c, 4, 45, 80
5, 26172, Note_on_c, 4, 45, 0
5, 26240, Note_on_c, 4, 48, 80
5, 26240, Note_on_c, 4, 53, 80
5, 26240, Note_on_c, 4, 57, 80
5, 26365, Note_on_c, 4, 57, 0
5, 26365, Note_on_c, 4, 53, 0
5, 26365, Note_on_c, 4, 48, 0
5, 26400, Note_on_c, 4, 41, 80
5, 26652, Note_on_c, 4, 41, 0
5, 26720, Note_on_c, 4, 60, 80
5, 26720, Note_on_c, 4, 57, 80
5, 26720, Note_on_c, 4, 53, 80
5, 26875, Note_on_c, 4, 53, 0
5, 26875, Note_on_c, 4, 57, 0
5, 26875, Note_on_c, 4, 60, 0
5, 26880, Note_on_c, 4, 62, 80
5, 26880, Note_on_c, 4, 60, 80
5, 26880, Note_on_c, 4, 57, 80
5, 26880, Note_on_c, 4, 65, 80
5, 27132, Note_on_c, 4, 65, 0
5, 27132, Note_on_c, 4, 62, 0
5, 27132, Note_on_c, 4, 60, 0
5, 27132, Note_on_c, 4, 57, 0
5, 27840, Note_on_c, 4, 57, 80
5, 28092, Note_on_c, 4, 57, 0
5, 28160, Note_on_c, 4, 59, 80
5, 28160, Note_on_c, 4, 62, 80
5, 28160, Note_on_c, 4, 69, 80
5, 28285, Note_on_c, 4, 69, 0
5, 28285, Note_on_c, 4, 62, 0
5, 28285, Note_on_c, 4, 59, 0
5, 28320, Note_on_c, 4, 50, 80
5, 28572, Note_on_c, 4, 50, 0
5, 28640, Note_on_c, 4, 57, 80
5, 28640, Note_on_c, 4, 59, 80
5, 28640, Note_on_c, 4, 62, 80
5, 28765, Note_on_c, 4, 62, 0
5, 28765, Note_on_c, 4, 59, 0
5, 28765, Note_on_c, 4, 57, 0
5, 28800, Note_on_c, 4, 64, 80
5, 28800, Note_on_c, 4, 62, 80
5, 28800, Note_on_c, 4, 59, 80
5, 28800, Note_on_c, 4, 67, 80
5, 29052, Note_on_c, 4, 67, 0
5, 29052, Note_on_c, 4, 64, 0
5, 29052, Note_on_c, 4, 62, 0
5, 29052, Note_on_c, 4, 59, 0
5, 29760, Note_on_c, 4, 58, 80
5, 30012, Note_on_c, 4, 58, 0
5, 30080, Note_on_c, 4, 61, 80
5, 30080, Note_on_c, 4, 64, 80
5, 30080, Note_on_c, 4, 70, 80
5, 30205, Note_on_c, 4, 70, 0
5, 30205, Note_on_c, 4, 64, 0
5, 30205, Note_on_c, 4, 61, 0
5, 30240, Note_on_c, 4, 52, 80
5, 30492, Note_on_c, 4, 52, 0
5, 30560, Note_on_c, 4, 58, 80
5, 30560, Note_on_c, 4, 61, 80
5, 30560, Note_on_c, 4, 64, 80
5, 30685, Note_on_c, 4, 64, 0
5, 30685, Note_on_c, 4, 61, 0
5, 30685, Note_on_c, 4, 58, 0
5, 30720, Note_on_c, 4, 62, 80
5, 30720, Note_on_c, 4, 60, 80
5, 30720, Note_on_c, 4, 57, 80
5, 30720, Note_on_c, 4, 65, 80
5, 30972, Note_on_c, 4, 65, 0
5, 30972, Note_on_c, 4, 62, 0
5, 30972, Note_on_c, 4, 60, 0
5, 30972, Note_on_c, 4, 57, 0
5, 31680, Note_on_c, 4, 65, 80
5, 31680, Note_on_c, 4, 62, 80
5, 31680, Note_on_c, 4, 59, 80
5, 31680, Note_on_c, 4, 69, 80
5, 31932, Note_on_c, 4, 69, 0
5, 31932, Note_on_c, 4, 65, 0
5, 31932, Note_on_c, 4, 62, 0
5, 31932, Note_on_c, 4, 59, 0
5, 32640, Note_on_c, 4, 64, 80
5, 32640, Note_on_c, 4, 60, 80
5, 32640, Note_on_c, 4, 57, 80
5, 32640, Note_on_c, 4, 67, 80
5, 32892, Note_on_c, 4, 67, 0
5, 32892, Note_on_c, 4, 64, 0
5, 32892, Note_on_c, 4, 60, 0
5, 32892, Note_on_c, 4, 57, 0
5, 33600, Note_on_c, 4, 63, 80
5, 33600, Note_on_c, 4, 60, 80
5, 33600, Note_on_c, 4, 57, 80
5, 33600, Note_on_c, 4, 67, 80
5, 33852, Note_on_c, 4, 67, 0
5, 33852, Note_on_c, 4, 63, 0
5, 33852, Note_on_c, 4, 60, 0
5, 33852, Note_on_c, 4, 57, 0
5, 34560, Note_on_c, 4, 60, 80
5, 34812, Note_on_c, 4, 60, 0
5, 34880, Note_on_c, 4, 64, 80
5, 34880, Note_on_c, 4, 67, 80
5, 34880, Note_on_c, 4, 72, 80
5, 35005, Note_on_c, 4, 72, 0
5, 35005, Note_on_c, 4, 67, 0
5, 35005, Note_on_c, 4, 64, 0
5, 35040, Note_on_c, 4, 55, 80
5, 35292, Note_on_c, 4, 55, 0
5, 35360, Note_on_c, 4, 60, 80
5, 35360, Note_on_c, 4, 64, 80
5, 35360, Note_on_c, 4, 67, 80
5, 35485, Note_on_c, 4, 67, 0
5, 35485, Note_on_c, 4, 64, 0
5, 35485, Note_on_c, 4, 60, 0
5, 35520, Note_on_c, 4, 57, 80
5, 35772, Note_on_c, 4, 57, 0
5, 35840, Note_on_c, 4, 59, 80
5, 35840, Note_on_c, 4, 62, 80
5, 35840, Note_on_c, 4, 69, 80
5, 35965, Note_on_c, 4, 69, 0
5, 35965, Note_on_c, 4, 62, 0
5, 35965, Note_on_c, 4, 59, 0
5, 36000, Note_on_c, 4, 50, 80
5, 36252, Note_on_c, 4, 50, 0
5, 36320, Note_on_c, 4, 57, 80
5, 36320, Note_on_c, 4, 59, 80
5, 36320, Note_on_c, 4, 62, 80
5, 36445, Note_on_c, 4, 62, 0
5, 36445, Note_on_c, 4, 59, 0
5, 36445, Note_on_c, 4, 57, 0
5, 36480, Note_on_c, 4, 60, 80
5, 36732, Note_on_c, 4, 60, 0
5, 36800, Note_on_c, 4, 64, 80
5, 36800, Note_on_c, 4, 67, 80
5, 36800, Note_on_c, 4, 72, 80
5, 36925, Note_on_c, 4, 72, 0
5, 36925, Note_on_c, 4, 67, 0
5, 36925, Note_on_c, 4, 64, 0
5, 36960, Note_on_c, 4, 55, 80
5, 37212, Note_on_c, 4, 55, 0
5, 37280, Note_on_c, 4, 67, 80
5, 37280, Note_on_c, 4, 64, 80
5, 37280, Note_on_c, 4, 60, 80
5, 37405, Note_on_c, 4, 60, 0
5, 37405, Note_on_c, 4, 64, 0
5, 37405, Note_on_c, 4, 67, 0
5, 37440, Note_on_c, 4, 52, 80
5, 37692, Note_on_c, 4, 52, 0
5, 37760, Note_on_c, 4, 55, 80
5, 37760, Note_on_c, 4, 60, 80
5, 37760, Note_on_c, 4, 64, 80
5, 37885, Note_on_c, 4, 64, 0
5, 37885, Note_on_c, 4, 60, 0
5, 37885, Note_on_c, 4, 55, 0
5, 37920, Note_on_c, 4, 48, 80
5, 38172, Note_on_c, 4, 48, 0
5, 38240, Note_on_c, 4, 67, 80
5, 38240, Note_on_c, 4, 64, 80
5, 38240, Note_on_c, 4, 60, 80
5, 38395, Note_on_c, 4, 60, 0
5, 38395, Note_on_c, 4, 64, 0
5, 38395, Note_on_c, 4, 67, 0
5, 38400, Note_on_c, 4, 53, 80
5, 38652, Note_on_c, 4, 53, 0
5, 38720, Note_on_c, 4, 57, 80
5, 38720, Note_on_c, 4, 60, 80
5, 38720, Note_on_c, 4, 65, 80
5, 38845, Note_on_c, 4, 65, 0
5, 38845, Note_on_c, 4, 60, 0
5, 38845, Note_on_c, 4, 57, 0
5, 38880, Note_on_c, 4, 48, 80
5, 39132, Note_on_c, 4, 48, 0
5, 39200, Note_on_c, 4, 53, 80
5, 39200, Note_on_c, 4, 57, 80
5, 39200, Note_on_c, 4, 60, 80
5, 39325, Note_on_c, 4, 60, 0
5, 39325, Note_on_c, 4, 57, 0
5, 39325, Note_on_c, 4, 53, 0
5, 39360, Note_on_c, 4, 65, 80
5, 39360, Note_on_c, 4, 62, 80
5, 39360, Note_on_c, 4, 59, 80
5, 39360, Note_on_c, 4, 69, 80
5, 39612, Note_on_c, 4, 69, 0
5, 39612, Note_on_c, 4, 65, 0
5, 39612, Note_on_c, 4, 62, 0
5, 39612, Note_on_c, 4, 59, 0
5, 40320, Note_on_c, 4, 60, 80
5, 40320, Note_on_c, 4, 57, 80
5, 40320, Note_on_c, 4, 55, 80
5, 40320, Note_on_c, 4, 64, 80
5, 40572, Note_on_c, 4, 64, 0
5, 40572, Note_on_c, 4, 60, 0
5, 40572, Note_on_c, 4, 57, 0
5, 40572, Note_on_c, 4, 55, 0
5, 41280, Note_on_c, 4, 60, 80
5, 41280, Note_on_c, 4, 57, 80
5, 41280, Note_on_c, 4, 55, 80
5, 41280, Note_on_c, 4, 64, 80
5, 41532, Note_on_c, 4, 64, 0
5, 41532, Note_on_c, 4, 60, 0
5, 41532, Note_on_c, 4, 57, 0
5, 41532, Note_on_c, 4, 55, 0
5, 42240, Note_on_c, 4, 62, 80
5, 42240, Note_on_c, 4, 60, 80
5, 42240, Note_on_c, 4, 57, 80
5, 42240, Note_on_c, 4, 65, 80
5, 42492, Note_on_c, 4, 65, 0
5, 42492, Note_on_c, 4, 62, 0
5, 42492, Note_on_c, 4, 60, 0
5, 42492, Note_on_c, 4, 57, 0
5, 43200, Note_on_c, 4, 57, 80
5, 43452, Note_on_c, 4, 57, 0
5, 43520, Note_on_c, 4, 59, 80
5, 43520, Note_on_c, 4, 62, 80
5, 43520, Note_on_c, 4, 69, 80
5, 43645, Note_on_c, 4, 69, 0
5, 43645, Note_on_c, 4, 62, 0
5, 43645, Note_on_c, 4, 59, 0
5, 43680, Note_on_c, 4, 50, 80
5, 43932, Note_on_c, 4, 50, 0
5, 44000, Note_on_c, 4, 57, 80
5, 44000, Note_on_c, 4, 59, 80
5, 44000, Note_on_c, 4, 62, 80
5, 44125, Note_on_c, 4, 62, 0
5, 44125, Note_on_c, 4, 59, 0
5, 44125, Note_on_c, 4, 57, 0
5, 44160, Note_on_c, 4, 45, 80
5, 44412, Note_on_c, 4, 45, 0
5, 44480, Note_on_c, 4, 64, 80
5, 44480, Note_on_c, 4, 60, 80
5, 44480, Note_on_c, 4, 57, 80
5, 44605, Note_on_c, 4, 57, 0
5, 44605, Note_on_c, 4, 60, 0
5, 44605, Note_on_c, 4, 64, 0
5, 44640, Note_on_c, 4, 48, 80
5, 44892, Note_on_c, 4, 48, 0
5, 44960, Note_on_c, 4, 64, 80
5, 44960, Note_on_c, 4, 60, 80
5, 44960, Note_on_c, 4, 57, 80
5, 45085, Note_on_c, 4, 57, 0
5, 45085, Note_on_c, 4, 60, 0
5, 45085, Note_on_c, 4, 64, 0
5, 45120, Note_on_c, 4, 52, 80
5, 45372, Note_on_c, 4, 52, 0
5, 45440, Note_on_c, 4, 64, 80
5, 45440, Note_on_c, 4, 60, 80
5, 45440, Note_on_c, 4, 57, 80
5, 45565, Note_on_c, 4, 57, 0
5, 45565, Note_on_c, 4, 60, 0
5, 45565, Note_on_c, 4, 64, 0
5, 45600, Note_on_c, 4, 45, 80
5, 45852, Note_on_c, 4, 45, 0
5, 45920, Note_on_c, 4, 64, 80
5, 45920, Note_on_c, 4, 60, 80
5, 45920, Note_on_c, 4, 57, 80
5, 46075, Note_on_c, 4, 57, 0
5, 46075, Note_on_c, 4, 60, 0
5, 46075, Note_on_c, 4, 64, 0
5, 46080, Note_on_c, 4, 53, 80
5, 46332, Note_on_c, 4, 53, 0
5, 46400, Note_on_c, 4, 57, 80
5, 46400, Note_on_c, 4, 60, 80
5, 46400, Note_on_c, 4, 67, 80
5, 46525, Note_on_c, 4, 67, 0
5, 46525, Note_on_c, 4, 60, 0
5, 46525, Note_on_c, 4, 57, 0
5, 46560, Note_on_c, 4, 48, 80
5, 46812, Note_on_c, 4, 48, 0
5, 46880, Note_on_c, 4, 53, 80
5, 46880, Note_on_c, 4, 57, 80
5, 46880, Note_on_c, 4, 60, 80
5, 47005, Note_on_c, 4, 60, 0
5, 47005, Note_on_c, 4, 57, 0
5, 47005, Note_on_c, 4, 53, 0
5, 47040, Note_on_c, 4, 60, 80
5, 47040, Note_on_c, 4, 57, 80
5, 47040, Note_on_c, 4, 55, 80
5, 47040, Note_on_c, 4, 64, 80
5, 47292, Note_on_c, 4, 64, 0
5, 47292, Note_on_c, 4, 60, 0
5, 47292, Note_on_c, 4, 57, 0
5, 47292, Note_on_c, 4, 55, 0
5, 48000, Note_on_c, 4, 64, 80
5, 48000, Note_on_c, 4, 60, 80
5, 48000, Note_on_c, 4, 59, 80
5, 48000, Note_on_c, 4, 66, 80
5, 48252, Note_on_c, 4, 66, 0
5, 48252, Note_on_c, 4, 64, 0
5, 48252, Note_on_c, 4, 60, 0
5, 48252, Note_on_c, 4, 59, 0
5, 48960, Note_on_c, 4, 64, 80
5, 48960, Note_on_c, 4, 60, 80
5, 48960, Note_on_c, 4, 58, 80
5, 48960, Note_on_c, 4, 66, 80
5, 49212, Note_on_c, 4, 66, 0
5, 49212, Note_on_c, 4, 64, 0
5, 49212, Note_on_c, 4, 60, 0
5, 49212, Note_on_c, 4, 58, 0
5, 49920, Note_on_c, 4, 62, 80
5, 49920, Note_on_c, 4, 60, 80
5, 49920, Note_on_c, 4, 57, 80
5, 49920, Note_on_c, 4, 65, 80
5, 50172, Note_on_c, 4, 65, 0
5, 50172, Note_on_c, 4, 62, 0
5, 50172, Note_on_c, 4, 60, 0
5, 50172, Note_on_c, 4, 57, 0
5, 50880, Note_on_c, 4, 57, 80
5, 51132, Note_on_c, 4, 57, 0
5, 51200, Note_on_c, 4, 59, 80
5, 51200, Note_on_c, 4, 62, 80
5, 51200, Note_on_c, 4, 69, 80
5, 51325, Note_on_c, 4, 69, 0
5, 51325, Note_on_c, 4, 62, 0
5, 51325, Note_on_c, 4, 59, 0
5, 51360, Note_on_c, 4, 50, 80
5, 51612, Note_on_c, 4, 50, 0
5, 51680, Note_on_c, 4, 57, 80
5, 51680, Note_on_c, 4, 59, 80
5, 51680, Note_on_c, 4, 62, 80
5, 51805, Note_on_c, 4, 62, 0
5, 51805, Note_on_c, 4, 59, 0
5, 51805, Note_on_c, 4, 57, 0
5, 51840, Note_on_c, 4, 48, 80
5, 52092, Note_on_c, 4, 48, 0
5, 52160, Note_on_c, 4, 67, 80
5, 52160, Note_on_c, 4, 64, 80
5, 52160, Note_on_c, 4, 62, 80
5, 52285, Note_on_c, 4, 62, 0
5, 52285, Note_on_c, 4, 64, 0
5, 52285, Note_on_c, 4, 67, 0
5, 52320, Note_on_c, 4, 52, 80
5, 52572, Note_on_c, 4, 52, 0
5, 52640, Note_on_c, 4, 67, 80
5, 52640, Note_on_c, 4, 64, 80
5, 52640, Note_on_c, 4, 62, 80
5, 52765, Note_on_c, 4, 62, 0
5, 52765, Note_on_c, 4, 64, 0
5, 52765, Note_on_c, 4, 67, 0
5, 52800, Note_on_c, 4, 55, 80
5, 53052, Note_on_c, 4, 55, 0
5, 53120, Note_on_c, 4, 67, 80
5, 53120, Note_on_c, 4, 64, 80
5, 53120, Note_on_c, 4, 62, 80
5, 53245, Note_on_c, 4, 62, 0
5, 53245, Note_on_c, 4, 64, 0
5, 53245, Note_on_c, 4, 67, 0
5, 53280, Note_on_c, 4, 48, 80
5, 53532, Note_on_c, 4, 48, 0
5, 53600, Note_on_c, 4, 67, 80
5, 53600, Note_on_c, 4, 64, 80
5, 53600, Note_on_c, 4, 62, 80
5, 53755, Note_on_c, 4, 62, 0
5, 53755, Note_on_c, 4, 64, 0
5, 53755, Note_on_c, 4, 67, 0
5, 53760, Note_on_c, 4, 62, 80
5, 53760, Note_on_c, 4, 60, 80
5, 53760, Note_on_c, 4, 57, 80
5, 53760, Note_on_c, 4, 65, 80
5, 54012, Note_on_c, 4, 65, 0
5, 54012, Note_on_c, 4, 62, 0
5, 54012, Note_on_c, 4, 60, 0
5, 54012, Note_on_c, 4, 57, 0
5, 54720, Note_on_c, 4, 63, 80
5, 54720, Note_on_c, 4, 60, 80
5, 54720, Note_on_c, 4, 57, 80
5, 54720, Note_on_c, 4, 66, 80
5, 54972, Note_on_c, 4, 66, 0
5, 54972, Note_on_c, 4, 63, 0
5, 54972, Note_on_c, 4, 60, 0
5, 54972, Note_on_c, 4, 57, 0
5, 55680, Note_on_c, 4, 60, 80
5, 55932, Note_on_c, 4, 60, 0
5, 56000, Note_on_c, 4, 64, 80
5, 56000, Note_on_c, 4, 67, 80
5, 56000, Note_on_c, 4, 72, 80
5, 56125, Note_on_c, 4, 72, 0
5, 56125, Note_on_c, 4, 67, 0
5, 56125, Note_on_c, 4, 64, 0
5, 56160, Note_on_c, 4, 60, 80
5, 56160, Note_on_c, 4, 55, 80
5, 56160, Note_on_c, 4, 52, 80
5, 56412, Note_on_c, 4, 52, 0
5, 56412, Note_on_c, 4, 55, 0
5, 56412, Note_on_c, 4, 60, 0
5, 56640, Note_on_c, 4, 60, 80
5, 56640, Note_on_c, 4, 57, 80
5, 56640, Note_on_c, 4, 52, 80
5, 56892, Note_on_c, 4, 52, 0
5, 56892, Note_on_c, 4, 57, 0
5, 56892, Note_on_c, 4, 60, 0
5, 57120, Note_on_c, 4, 57, 80
5, 57372, Note_on_c, 4, 57, 0
5, 57440, Note_on_c, 4, 60, 80
5, 57440, Note_on_c, 4, 64, 80
5, 57440, Note_on_c, 4, 69, 80
5, 57565, Note_on_c, 4, 69, 0
5, 57565, Note_on_c, 4, 64, 0
5, 57565, Note_on_c, 4, 60, 0
5, 57600, Note_on_c, 4, 64, 80
5, 57600, Note_on_c, 4, 60, 80
5, 57600, Note_on_c, 4, 57, 80
5, 57600, Note_on_c, 4, 66, 80
5, 57852, Note_on_c, 4, 66, 0
5, 57852, Note_on_c, 4, 64, 0
5, 57852, Note_on_c, 4, 60, 0
5, 57852, Note_on_c, 4, 57, 0
5, 58560, Note_on_c, 4, 53, 80
5, 58812, Note_on_c, 4, 53, 0
5, 58880, Note_on_c, 4, 56, 80
5, 58880, Note_on_c, 4, 60, 80
5, 58880, Note_on_c, 4, 65, 80
5, 59005, Note_on_c, 4, 65, 0
5, 59005, Note_on_c, 4, 60, 0
5, 59005, Note_on_c, 4, 56, 0
5, 59040, Note_on_c, 4, 48, 80
5, 59292, Note_on_c, 4, 48, 0
5, 59360, Note_on_c, 4, 53, 80
5, 59360, Note_on_c, 4, 56, 80
5, 59360, Note_on_c, 4, 60, 80
5, 59485, Note_on_c, 4, 60, 0
5, 59485, Note_on_c, 4, 56, 0
5, 59485, Note_on_c, 4, 53, 0
5, 59520, Note_on_c, 4, 52, 80
5, 59772, Note_on_c, 4, 52, 0
5, 59840, Note_on_c, 4, 55, 80
5, 59840, Note_on_c, 4, 59, 80
5, 59840, Note_on_c, 4, 64, 80
5, 59965, Note_on_c, 4, 64, 0
5, 59965, Note_on_c, 4, 59, 0
5, 59965, Note_on_c, 4, 55, 0
5, 60000, Note_on_c, 4, 47, 80
5, 60252, Note_on_c, 4, 47, 0
5, 60320, Note_on_c, 4, 52, 80
5, 60320, Note_on_c, 4, 55, 80
5, 60320, Note_on_c, 4, 59, 80
5, 60445, Note_on_c, 4, 59, 0
5, 60445, Note_on_c, 4, 55, 0
5, 60445, Note_on_c, 4, 52, 0
5, 60480, Note_on_c, 4, 57, 80
5, 60732, Note_on_c, 4, 57, 0
5, 60800, Note_on_c, 4, 60, 80
5, 60800, Note_on_c, 4, 64, 80
5, 60800, Note_on_c, 4, 69, 80
5, 60925, Note_on_c, 4, 69, 0
5, 60925, Note_on_c, 4, 64, 0
5, 60925, Note_on_c, 4, 60, 0
5, 60960, Note_on_c, 4, 52, 80
5, 61212, Note_on_c, 4, 52, 0
5, 61280, Note_on_c, 4, 57, 80
5, 61280, Note_on_c, 4, 60, 80
5, 61280, Note_on_c, 4, 64, 80
5, 61405, Note_on_c, 4, 64, 0
5, 61405, Note_on_c, 4, 60, 0
5, 61405, Note_on_c, 4, 57, 0
5, 61440, Note_on_c, 4, 62, 80
5, 61692, Note_on_c, 4, 62, 0
5, 61760, Note_on_c, 4, 65, 80
5, 61760, Note_on_c, 4, 69, 80
5, 61760, Note_on_c, 4, 74, 80
5, 61885, Note_on_c, 4, 74, 0
5, 61885, Note_on_c, 4, 69, 0
5, 61885, Note_on_c, 4, 65, 0
5, 61920, Note_on_c, 4, 57, 80
5, 62172, Note_on_c, 4, 57, 0
5, 62240, Note_on_c, 4, 62, 80
5, 62240, Note_on_c, 4, 65, 80
5, 62240, Note_on_c, 4, 69, 80
5, 62365, Note_on_c, 4, 69, 0
5, 62365, Note_on_c, 4, 65, 0
5, 62365, Note_on_c, 4, 62, 0
5, 62400, Note_on_c, 4, 65, 80
5, 62400, Note_on_c, 4, 62, 80
5, 62400, Note_on_c, 4, 59, 80
5, 62400, Note_on_c, 4, 69, 80
5, 62652, Note_on_c, 4, 69, 0
5, 62652, Note_on_c, 4, 65, 0
5, 62652, Note_on_c, 4, 62, 0
5, 62652, Note_on_c, 4, 59, 0
5, 63360, Note_on_c, 4, 60, 80
5, 63360, Note_on_c, 4, 57, 80
5, 63360, Note_on_c, 4, 55, 80
5, 63360, Note_on_c, 4, 64, 80
5, 63612, Note_on_c, 4, 64, 0
5, 63612, Note_on_c, 4, 60, 0
5, 63612, Note_on_c, 4, 57, 0
5, 63612, Note_on_c, 4, 55, 0
5, 64320, Note_on_c, 4, 53, 80
5, 64572, Note_on_c, 4, 53, 0
5, 64640, Note_on_c, 4, 57, 80
5, 64640, Note_on_c, 4, 60, 80
5, 64640, Note_on_c, 4, 65, 80
5, 64765, Note_on_c, 4, 65, 0
5, 64765, Note_on_c, 4, 60, 0
5, 64765, Note_on_c, 4, 57, 0
5, 64800, Note_on_c, 4, 48, 80
5, 65052, Note_on_c, 4, 48, 0
5, 65120, Note_on_c, 4, 53, 80
5, 65120, Note_on_c, 4, 57, 80
5, 65120, Note_on_c, 4, 60, 80
5, 65245, Note_on_c, 4, 60, 0
5, 65245, Note_on_c, 4, 57, 0
5, 65245, Note_on_c, 4, 53, 0
5, 65280, Note_on_c, 4, 60, 80
5, 65532, Note_on_c, 4, 60, 0
5, 65600, Note_on_c, 4, 64, 80
5, 65600, Note_on_c, 4, 67, 80
5, 65600, Note_on_c, 4, 72, 80
5, 65725, Note_on_c, 4, 72, 0
5, 65725, Note_on_c, 4, 67, 0
5, 65725, Note_on_c, 4, 64, 0
5, 65760, Note_on_c, 4, 55, 80
5, 66012, Note_on_c, 4, 55, 0
5, 66080, Note_on_c, 4, 60, 80
5, 66080, Note_on_c, 4, 64, 80
5, 66080, Note_on_c, 4, 67, 80
5, 66205, Note_on_c, 4, 67, 0
5, 66205, Note_on_c, 4, 64, 0
5, 66205, Note_on_c, 4, 60, 0
5, 66240, Note_on_c, 4, 65, 80
5, 66240, Note_on_c, 4, 62, 80
5, 66240, Note_on_c, 4, 59, 80
5, 66240, Note_on_c, 4, 69, 80
5, 66492, Note_on_c, 4, 69, 0
5, 66492, Note_on_c, 4, 65, 0
5, 66492, Note_on_c, 4, 62, 0
5, 66492, Note_on_c, 4, 59, 0
5, 67200, Note_on_c, 4, 48, 80
5, 67452, Note_on_c, 4, 48, 0
5, 67520, Note_on_c, 4, 67, 80
5, 67520, Note_on_c, 4, 64, 80
5, 67520, Note_on_c, 4, 60, 80
5, 67645, Note_on_c, 4, 60, 0
5, 67645, Note_on_c, 4, 64, 0
5, 67645, Note_on_c, 4, 67, 0
5, 67680, Note_on_c, 4, 52, 80
5, 67932, Note_on_c, 4, 52, 0
5, 68000, Note_on_c, 4, 67, 80
5, 68000, Note_on_c, 4, 64, 80
5, 68000, Note_on_c, 4, 60, 80
5, 68125, Note_on_c, 4, 60, 0
5, 68125, Note_on_c, 4, 64, 0
5, 68125, Note_on_c, 4, 67, 0
5, 68160, Note_on_c, 4, 55, 80
5, 68412, Note_on_c, 4, 55, 0
5, 68480, Note_on_c, 4, 67, 80
5, 68480, Note_on_c, 4, 64, 80
5, 68480, Note_on_c, 4, 60, 80
5, 68605, Note_on_c, 4, 60, 0
5, 68605, Note_on_c, 4, 64, 0
5, 68605, Note_on_c, 4, 67, 0
5, 68640, Note_on_c, 4, 48, 80
5, 68892, Note_on_c, 4, 48, 0
5, 68960, Note_on_c, 4, 67, 80
5, 68960, Note_on_c, 4, 64, 80
5, 68960, Note_on_c, 4, 60, 80
5, 69115, Note_on_c, 4, 60, 0
5, 69115, Note_on_c, 4, 64, 0
5, 69115, Note_on_c, 4, 67, 0
5, 69120, Note_on_c, 4, 60, 80
5, 69120, Note_on_c, 4, 57, 80
5, 69120, Note_on_c, 4, 55, 80
5, 69120, Note_on_c, 4, 64, 80
5, 69372, Note_on_c, 4, 64, 0
5, 69372, Note_on_c, 4, 60, 0
5, 69372, Note_on_c, 4, 57, 0
5, 69372, Note_on_c, 4, 55, 0
5, 70080, Note_on_c, 4, 62, 80
5, 70332, Note_on_c, 4, 62, 0
5, 70400, Note_on_c, 4, 64, 80
5, 70400, Note_on_c, 4, 67, 80
5, 70400, Note_on_c, 4, 74, 80
5, 70525, Note_on_c, 4, 74, 0
5, 70525, Note_on_c, 4, 67, 0
5, 70525, Note_on_c, 4, 64, 0
5, 70560, Note_on_c, 4, 55, 80
5, 70812, Note_on_c, 4, 55, 0
5, 70880, Note_on_c, 4, 62, 80
5, 70880, Note_on_c, 4, 64, 80
5, 70880, Note_on_c, 4, 67, 80
5, 71005, Note_on_c, 4, 67, 0
5, 71005, Note_on_c, 4, 64, 0
5, 71005, Note_on_c, 4, 62, 0
5, 71040, Note_on_c, 4, 41, 80
5, 71292, Note_on_c, 4, 41, 0
5, 71360, Note_on_c, 4, 60, 80
5, 71360, Note_on_c, 4, 57, 80
5, 71360, Note_on_c, 4, 53, 80
5, 71485, Note_on_c, 4, 53, 0
5, 71485, Note_on_c, 4, 57, 0
5, 71485, Note_on_c, 4, 60, 0
5, 71520, Note_on_c, 4, 45, 80
5, 71772, Note_on_c, 4, 45, 0
5, 71840, Note_on_c, 4, 60, 80
5, 71840, Note_on_c, 4, 57, 80
5, 71840, Note_on_c, 4, 53, 80
5, 71965, Note_on_c, 4, 53, 0
5, 71965, Note_on_c, 4, 57, 0
5, 71965, Note_on_c, 4, 60, 0
5, 72000, Note_on_c, 4, 48, 80
5, 72252, Note_on_c, 4, 48, 0
5, 72320, Note_on_c, 4, 60, 80
5, 72320, Note_on_c, 4, 57, 80
5, 72320, Note_on_c, 4, 53, 80
5, 72445, Note_on_c, 4, 53, 0
5, 72445, Note_on_c, 4, 57, 0
5, 72445, Note_on_c, 4, 60, 0
5, 72480, Note_on_c, 4, 41, 80
5, 72732, Note_on_c, 4, 41, 0
5, 72800, Note_on_c, 4, 60, 80
5, 72800, Note_on_c, 4, 57, 80
5, 72800, Note_on_c, 4, 53, 80
5, 72955, Note_on_c, 4, 53, 0
5, 72955, Note_on_c, 4, 57, 0
5, 72955, Note_on_c, 4, 60, 0
5, 72960, Note_on_c, 4, 62, 80
5, 73212, Note_on_c, 4, 62, 0
5, 73280, Note_on_c, 4, 65, 80
5, 73280, Note_on_c, 4, 69, 80
5, 73280, Note_on_c, 4, 74, 80
5, 73405, Note_on_c, 4, 74, 0
5, 73405, Note_on_c, 4, 69, 0
5, 73405, Note_on_c, 4, 65, 0
5, 73440, Note_on_c, 4, 57, 80
5, 73692, Note_on_c, 4, 57, 0
5, 73760, Note_on_c, 4, 62, 80
5, 73760, Note_on_c, 4, 65, 80
5, 73760, Note_on_c, 4, 69, 80
5, 73885, Note_on_c, 4, 69, 0
5, 73885, Note_on_c, 4, 65, 0
5, 73885, Note_on_c, 4, 62, 0
5, 73920, Note_on_c, 4, 65, 80
5, 73920, Note_on_c, 4, 62, 80
5, 73920, Note_on_c, 4, 59, 80
5, 73920, Note_on_c, 4, 69, 80
5, 74172, Note_on_c, 4, 69, 0
5, 74172, Note_on_c, 4, 65, 0
5, 74172, Note_on_c, 4, 62, 0
5, 74172, Note_on_c, 4, 59, 0
5, 74880, Note_on_c, 4, 52, 80
5, 75132, Note_on_c, 4, 52, 0
5, 75200, Note_on_c, 4, 55, 80
5, 75200, Note_on_c, 4, 59, 80
5, 75200, Note_on_c, 4, 64, 80
5, 75325, Note_on_c, 4, 64, 0
5, 75325, Note_on_c, 4, 59, 0
5, 75325, Note_on_c, 4, 55, 0
5, 75360, Note_on_c, 4, 47, 80
5, 75612, Note_on_c, 4, 47, 0
5, 75680, Note_on_c, 4, 59, 80
5, 75680, Note_on_c, 4, 55, 80
5, 75680, Note_on_c, 4, 52, 80
5, 75805, Note_on_c, 4, 52, 0
5, 75805, Note_on_c, 4, 55, 0
5, 75805, Note_on_c, 4, 59, 0
5, 75840, Note_on_c, 4, 43, 80
5, 76092, Note_on_c, 4, 43, 0
5, 76160, Note_on_c, 4, 47, 80
5, 76160, Note_on_c, 4, 52, 80
5, 76160, Note_on_c, 4, 55, 80
5, 76285, Note_on_c, 4, 55, 0
5, 76285, Note_on_c, 4, 52, 0
5, 76285, Note_on_c, 4, 47, 0
5, 76320, Note_on_c, 4, 40, 80
5, 76572, Note_on_c, 4, 40, 0
5, 76640, Note_on_c, 4, 59, 80
5, 76640, Note_on_c, 4, 55, 80
5, 76640, Note_on_c, 4, 52, 80
5, 76795, Note_on_c, 4, 52, 0
5, 76795, Note_on_c, 4, 55, 0
5, 76795, Note_on_c, 4, 59, 0
5, 76800, Note_on_c, 4, 45, 80
5, 77052, Note_on_c, 4, 45, 0
5, 77120, Note_on_c, 4, 64, 80
5, 77120, Note_on_c, 4, 60, 80
5, 77120, Note_on_c, 4, 57, 80
5, 77245, Note_on_c, 4, 57, 0
5, 77245, Note_on_c, 4, 60, 0
5, 77245, Note_on_c, 4, 64, 0
5, 77280, Note_on_c, 4, 48, 80
5, 77532, Note_on_c, 4, 48, 0
5, 77600, Note_on_c, 4, 64, 80
5, 77600, Note_on_c, 4, 60, 80
5, 77600, Note_on_c, 4, 57, 80
5, 77725, Note_on_c, 4, 57, 0
5, 77725, Note_on_c, 4, 60, 0
5, 77725, Note_on_c, 4, 64, 0
5, 77760, Note_on_c, 4, 52, 80
5, 78012, Note_on_c, 4, 52, 0
5, 78080, Note_on_c, 4, 64, 80
5, 78080, Note_on_c, 4, 60, 80
5, 78080, Note_on_c, 4, 57, 80
5, 78205, Note_on_c, 4, 57, 0
5, 78205, Note_on_c, 4, 60, 0
5, 78205, Note_on_c, 4, 64, 0
5, 78240, Note_on_c, 4, 45, 80
5, 78492, Note_on_c, 4, 45, 0
5, 78560, Note_on_c, 4, 64, 80
5, 78560, Note_on_c, 4, 60, 80
5, 78560, Note_on_c, 4, 57, 80
5, 78715, Note_on_c, 4, 57, 0
5, 78715, Note_on_c, 4, 60, 0
5, 78715, Note_on_c, 4, 64, 0
5, 78720, Note_on_c, 4, 64, 80
5, 78972, Note_on_c, 4, 64, 0
5, 79040, Note_on_c, 4, 66, 80
5, 79040, Note_on_c, 4, 69, 80
5, 79040, Note_on_c, 4, 76, 80
5, 79165, Note_on_c, 4, 76, 0
5, 79165, Note_on_c, 4, 69, 0
5, 79165, Note_on_c, 4, 66, 0
5, 79200, Note_on_c, 4, 57, 80
5, 79452, Note_on_c, 4, 57, 0
5, 79520, Note_on_c, 4, 64, 80
5, 79520, Note_on_c, 4, 66, 80
5, 79520, Note_on_c, 4, 69, 80
5, 79645, Note_on_c, 4, 69, 0
5, 79645, Note_on_c, 4, 66, 0
5, 79645, Note_on_c, 4, 64, 0
5, 79680, Note_on_c, 4, 64, 80
5, 79680, Note_on_c, 4, 60, 80
5, 79680, Note_on_c, 4, 58, 80
5, 79680, Note_on_c, 4, 66, 80
5, 79932, Note_on_c, 4, 66, 0
5, 79932, Note_on_c, 4, 64, 0
5, 79932, Note_on_c, 4, 60, 0
5, 79932, Note_on_c, 4, 58, 0
5, 80640, Note_on_c, 4, 62, 80
5, 80892, Note_on_c, 4, 62, 0
5, 80960, Note_on_c, 4, 65, 80
5, 80960, Note_on_c, 4, 69, 80
5, 80960, Note_on_c, 4, 74, 80
5, 81085, Note_on_c, 4, 74, 0
5, 81085, Note_on_c, 4, 69, 0
5, 81085, Note_on_c, 4, 65, 0
5, 81120, Note_on_c, 4, 57, 80
5, 81372, Note_on_c, 4, 57, 0
5, 81440, Note_on_c, 4, 62, 80
5, 81440, Note_on_c, 4, 65, 80
5, 81440, Note_on_c, 4, 69, 80
5, 81565, Note_on_c, 4, 69, 0
5, 81565, Note_on_c, 4, 65, 0
5, 81565, Note_on_c, 4, 62, 0
5, 81600, Note_on_c, 4, 57, 80
5, 81852, Note_on_c, 4, 57, 0
5, 81920, Note_on_c, 4, 59, 80
5, 81920, Note_on_c, 4, 62, 80
5, 81920, Note_on_c, 4, 69, 80
5, 82045, Note_on_c, 4, 69, 0
5, 82045, Note_on_c, 4, 62, 0
5, 82045, Note_on_c, 4, 59, 0
5, 82080, Note_on_c, 4, 50, 80
5, 82332, Note_on_c, 4, 50, 0
5, 82400, Note_on_c, 4, 57, 80
5, 82400, Note_on_c, 4, 59, 80
5, 82400, Note_on_c, 4, 62, 80
5, 82525, Note_on_c, 4, 62, 0
5, 82525, Note_on_c, 4, 59, 0
5, 82525, Note_on_c, 4, 57, 0
5, 82560, Note_on_c, 4, 48, 80
5, 82812, Note_on_c, 4, 48, 0
5, 82880, Note_on_c, 4, 67, 80
5, 82880, Note_on_c, 4, 64, 80
5, 82880, Note_on_c, 4, 60, 80
5, 83005, Note_on_c, 4, 60, 0
5, 83005, Note_on_c, 4, 64, 0
5, 83005, Note_on_c, 4, 67, 0
5, 83040, Note_on_c, 4, 52, 80
5, 83292, Note_on_c, 4, 52, 0
5, 83360, Note_on_c, 4, 67, 80
5, 83360, Note_on_c, 4, 64, 80
5, 83360, Note_on_c, 4, 60, 80
5, 83485, Note_on_c, 4, 60, 0
5, 83485, Note_on_c, 4, 64, 0
5, 83485, Note_on_c, 4, 67, 0
5, 83520, Note_on_c, 4, 55, 80
5, 83772, Note_on_c, 4, 55, 0
5, 83840, Note_on_c, 4, 67, 80
5, 83840, Note_on_c, 4, 64, 80
5, 83840, Note_on_c, 4, 60, 80
5, 83965, Note_on_c, 4, 60, 0
5, 83965, Note_on_c, 4, 64, 0
5, 83965, Note_on_c, 4, 67, 0
5, 84000, Note_on_c, 4, 48, 80
5, 84252, Note_on_c, 4, 48, 0
5, 84320, Note_on_c, 4, 67, 80
5, 84320, Note_on_c, 4, 64, 80
5, 84320, Note_on_c, 4, 60, 80
5, 84475, Note_on_c, 4, 60, 0
5, 84475, Note_on_c, 4, 64, 0
5, 84475, Note_on_c, 4, 67, 0
5, 84480, Note_on_c, 4, 64, 80
5, 84480, Note_on_c, 4, 62, 80
5, 84480, Note_on_c, 4, 59, 80
5, 84480, Note_on_c, 4, 67, 80
5, 84732, Note_on_c, 4, 67, 0
5, 84732, Note_on_c, 4, 64, 0
5, 84732, Note_on_c, 4, 62, 0
5, 84732, Note_on_c, 4, 59, 0
5, 85440, Note_on_c, 4, 62, 80
5, 85440, Note_on_c, 4, 58, 80
5, 85440, Note_on_c, 4, 55, 80
5, 85440, Note_on_c, 4, 64, 80
5, 85692, Note_on_c, 4, 64, 0
5, 85692, Note_on_c, 4, 62, 0
5, 85692, Note_on_c, 4, 58, 0
5, 85692, Note_on_c, 4, 55, 0
5, 86400, Note_on_c, 4, 53, 80
5, 86652, Note_on_c, 4, 53, 0
5, 86720, Note_on_c, 4, 57, 80
5, 86720, Note_on_c, 4, 60, 80
5, 86720, Note_on_c, 4, 67, 80
5, 86845, Note_on_c, 4, 67, 0
5, 86845, Note_on_c, 4, 60, 0
5, 86845, Note_on_c, 4, 57, 0
5, 86880, Note_on_c, 4, 48, 80
5, 87132, Note_on_c, 4, 48, 0
5, 87200, Note_on_c, 4, 60, 80
5, 87200, Note_on_c, 4, 57, 80
5, 87200, Note_on_c, 4, 53, 80
5, 87325, Note_on_c, 4, 53, 0
5, 87325, Note_on_c, 4, 57, 0
5, 87325, Note_on_c, 4, 60, 0
5, 87360, Note_on_c, 4, 45, 80
5, 87612, Note_on_c, 4, 45, 0
5, 87680, Note_on_c, 4, 48, 80
5, 87680, Note_on_c, 4, 53, 80
5, 87680, Note_on_c, 4, 57, 80
5, 87805, Note_on_c, 4, 57, 0
5, 87805, Note_on_c, 4, 53, 0
5, 87805, Note_on_c, 4, 48, 0
5, 87840, Note_on_c, 4, 41, 80
5, 88092, Note_on_c, 4, 41, 0
5, 88160, Note_on_c, 4, 60, 80
5, 88160, Note_on_c, 4, 57, 80
5, 88160, Note_on_c, 4, 53, 80
5, 88315, Note_on_c, 4, 53, 0
5, 88315, Note_on_c, 4, 57, 0
5, 88315, Note_on_c, 4, 60, 0
5, 88320, Note_on_c, 4, 62, 80
5, 88572, Note_on_c, 4, 62, 0
5, 88640, Note_on_c, 4, 65, 80
5, 88640, Note_on_c, 4, 69, 80
5, 88640, Note_on_c, 4, 74, 80
5, 88765, Note_on_c, 4, 74, 0
5, 88765, Note_on_c, 4, 69, 0
5, 88765, Note_on_c, 4, 65, 0
5, 88800, Note_on_c, 4, 57, 80
5, 89052, Note_on_c, 4, 57, 0
5, 89120, Note_on_c, 4, 62, 80
5, 89120, Note_on_c, 4, 65, 80
5, 89120, Note_on_c, 4, 69, 80
5, 89245, Note_on_c, 4, 69, 0
5, 89245, Note_on_c, 4, 65, 0
5, 89245, Note_on_c, 4, 62, 0
5, 89280, Note_on_c, 4, 57, 80
5, 89532, Note_on_c, 4, 57, 0
5, 89600, Note_on_c, 4, 59, 80
5, 89600, Note_on_c, 4, 62, 80
5, 89600, Note_on_c, 4, 69, 80
5, 89725, Note_on_c, 4, 69, 0
5, 89725, Note_on_c, 4, 62, 0
5, 89725, Note_on_c, 4, 59, 0
5, 89760, Note_on_c, 4, 50, 80
5, 90012, Note_on_c, 4, 50, 0
5, 90080, Note_on_c, 4, 57, 80
5, 90080, Note_on_c, 4, 59, 80
5, 90080, Note_on_c, 4, 62, 80
5, 90205, Note_on_c, 4, 62, 0
5, 90205, Note_on_c, 4, 59, 0
5, 90205, Note_on_c, 4, 57, 0
5, 90240, Note_on_c, 4, 52, 80
5, 90492, Note_on_c, 4, 52, 0
5, 90560, Note_on_c, 4, 55, 80
5, 90560, Note_on_c, 4, 59, 80
5, 90560, Note_on_c, 4, 64, 80
5, 90685, Note_on_c, 4, 64, 0
5, 90685, Note_on_c, 4, 59, 0
5, 90685, Note_on_c, 4, 55, 0
5, 90720, Note_on_c, 4, 47, 80
5, 90972, Note_on_c, 4, 47, 0
5, 91040, Note_on_c, 4, 52, 80
5, 91040, Note_on_c, 4, 55, 80
5, 91040, Note_on_c, 4, 59, 80
5, 91165, Note_on_c, 4, 59, 0
5, 91165, Note_on_c, 4, 55, 0
5, 91165, Note_on_c, 4, 52, 0
5, 91200, Note_on_c, 4, 58, 80
5, 91452, Note_on_c, 4, 58, 0
5, 91520, Note_on_c, 4, 61, 80
5, 91520, Note_on_c, 4, 64, 80
5, 91520, Note_on_c, 4, 70, 80
5, 91645, Note_on_c, 4, 70, 0
5, 91645, Note_on_c, 4, 64, 0
5, 91645, Note_on_c, 4, 61, 0
5, 91680, Note_on_c, 4, 52, 80
5, 91932, Note_on_c, 4, 52, 0
5, 92000, Note_on_c, 4, 58, 80
5, 92000, Note_on_c, 4, 61, 80
5, 92000, Note_on_c, 4, 64, 80
5, 92125, Note_on_c, 4, 64, 0
5, 92125, Note_on_c, 4, 61, 0
5, 92125, Note_on_c, 4, 58, 0
5, 92160, Note_on_c, 4, 62, 80
5, 92160, Note_on_c, 4, 60, 80
5, 92160, Note_on_c, 4, 57, 80
5, 92160, Note_on_c, 4, 65, 80
5, 92412, Note_on_c, 4, 65, 0
5, 92412, Note_on_c, 4, 62, 0
5, 92412, Note_on_c, 4, 60, 0
5, 92412, Note_on_c, 4, 57, 0
5, 93120, Note_on_c, 4, 57, 80
5, 93372, Note_on_c, 4, 57, 0
5, 93440, Note_on_c, 4, 59, 80
5, 93440, Note_on_c, 4, 62, 80
5, 93440, Note_on_c, 4, 69, 80
5, 93565, Note_on_c, 4, 69, 0
5, 93565, Note_on_c, 4, 62, 0
5, 93565, Note_on_c, 4, 59, 0
5, 93600, Note_on_c, 4, 50, 80
5, 93852, Note_on_c, 4, 50, 0
5, 93920, Note_on_c, 4, 57, 80
5, 93920, Note_on_c, 4, 59, 80
5, 93920, Note_on_c, 4, 62, 80
5, 94045, Note_on_c, 4, 62, 0
5, 94045, Note_on_c, 4, 59, 0
5, 94045, Note_on_c, 4, 57, 0
5, 94080, Note_on_c, 4, 60, 80
5, 94080, Note_on_c, 4, 57, 80
5, 94080, Note_on_c, 4, 55, 80
5, 94080, Note_on_c, 4, 64, 80
5, 94332, Note_on_c, 4, 64, 0
5, 94332, Note_on_c, 4, 60, 0
5, 94332, Note_on_c, 4, 57, 0
5, 94332, Note_on_c, 4, 55, 0
5, 95040, Note_on_c, 4, 63, 80
5, 95040, Note_on_c, 4, 60, 80
5, 95040, Note_on_c, 4, 57, 80
5, 95040, Note_on_c, 4, 67, 80
5, 95292, Note_on_c, 4, 67, 0
5, 95292, Note_on_c, 4, 63, 0
5, 95292, Note_on_c, 4, 60, 0
5, 95292, Note_on_c, 4, 57, 0
5, 96000, Note_on_c, 4, 60, 80
5, 96000, Note_on_c, 4, 57, 80
5, 96000, Note_on_c, 4, 55, 80
5, 96000, Note_on_c, 4, 64, 80
5, 96252, Note_on_c, 4, 64, 0
5, 96252, Note_on_c, 4, 60, 0
5, 96252, Note_on_c, 4, 57, 0
5, 96252, Note_on_c, 4, 55, 0
5, 96960, Note_on_c, 4, 57, 80
5, 97212, Note_on_c, 4, 57, 0
5, 97280, Note_on_c, 4, 59, 80
5, 97280, Note_on_c, 4, 62, 80
5, 97280, Note_on_c, 4, 69, 80
5, 97405, Note_on_c, 4, 69, 0
5, 97405, Note_on_c, 4, 62, 0
5, 97405, Note_on_c, 4, 59, 0
5, 97440, Note_on_c, 4, 50, 80
5, 97692, Note_on_c, 4, 50, 0
5, 97760, Note_on_c, 4, 57, 80
5, 97760, Note_on_c, 4, 59, 80
5, 97760, Note_on_c, 4, 62, 80
5, 97885, Note_on_c, 4, 62, 0
5, 97885, Note_on_c, 4, 59, 0
5, 97885, Note_on_c, 4, 57, 0
5, 97920, Note_on_c, 4, 48, 80
5, 98172, Note_on_c, 4, 48, 0
5, 98240, Note_on_c, 4, 67, 80
5, 98240, Note_on_c, 4, 64, 80
5, 98240, Note_on_c, 4, 60, 80
5, 98365, Note_on_c, 4, 60, 0
5, 98365, Note_on_c, 4, 64, 0
5, 98365, Note_on_c, 4, 67, 0
5, 98400, Note_on_c, 4, 52, 80
5, 98652, Note_on_c, 4, 52, 0
5, 98720, Note_on_c, 4, 67, 80
5, 98720, Note_on_c, 4, 64, 80
5, 98720, Note_on_c, 4, 60, 80
5, 98845, Note_on_c, 4, 60, 0
5, 98845, Note_on_c, 4, 64, 0
5, 98845, Note_on_c, 4, 67, 0
5, 98880, Note_on_c, 4, 55, 80
5, 99132, Note_on_c, 4, 55, 0
5, 99200, Note_on_c, 4, 67, 80
5, 99200, Note_on_c, 4, 64, 80
5, 99200, Note_on_c, 4, 60, 80
5, 99325, Note_on_c, 4, 60, 0
5, 99325, Note_on_c, 4, 64, 0
5, 99325, Note_on_c, 4, 67, 0
5, 99360, Note_on_c, 4, 48, 80
5, 99612, Note_on_c, 4, 48, 0
5, 99680, Note_on_c, 4, 67, 80
5, 99680, Note_on_c, 4, 64, 80
5, 99680, Note_on_c, 4, 60, 80
5, 99835, Note_on_c, 4, 60, 0
5, 99835, Note_on_c, 4, 64, 0
5, 99835, Note_on_c, 4, 67, 0
5, 99840, Note_on_c, 4, 62, 80
5, 99840, Note_on_c, 4, 60, 80
5, 99840, Note_on_c, 4, 57, 80
5, 99840, Note_on_c, 4, 65, 80
5, 100092, Note_on_c, 4, 65, 0
5, 100092, Note_on_c, 4, 62, 0
5, 100092, Note_on_c, 4, 60, 0
5, 100092, Note_on_c, 4, 57, 0
5, 100800, Note_on_c, 4, 65, 80
5, 100800, Note_on_c, 4, 62, 80
5, 100800, Note_on_c, 4, 59, 80
5, 100800, Note_on_c, 4, 69, 80
5, 101052, Note_on_c, 4, 69, 0
5, 101052, Note_on_c, 4, 65, 0
5, 101052, Note_on_c, 4, 62, 0
5, 101052, Note_on_c, 4, 59, 0
5, 101760, Note_on_c, 4, 60, 80
5, 101760, Note_on_c, 4, 57, 80
5, 101760, Note_on_c, 4, 55, 80
5, 101760, Note_on_c, 4, 64, 80
5, 102012, Note_on_c, 4, 64, 0
5, 102012, Note_on_c, 4, 60, 0
5, 102012, Note_on_c, 4, 57, 0
5, 102012, Note_on_c, 4, 55, 0
5, 102720, Note_on_c, 4, 60, 80
5, 102720, Note_on_c, 4, 57, 80
5, 102720, Note_on_c, 4, 55, 80
5, 102720, Note_on_c, 4, 64, 80
5, 102972, Note_on_c, 4, 64, 0
5, 102972, Note_on_c, 4, 60, 0
5, 102972, Note_on_c, 4, 57, 0
5, 102972, Note_on_c, 4, 55, 0
5, 103680, Note_on_c, 4, 62, 80
5, 103680, Note_on_c, 4, 60, 80
5, 103680, Note_on_c, 4, 57, 80
5, 103680, Note_on_c, 4, 65, 80
5, 103932, Note_on_c, 4, 65, 0
5, 103932, Note_on_c, 4, 62, 0
5, 103932, Note_on_c, 4, 60, 0
5, 103932, Note_on_c, 4, 57, 0
5, 104640, Note_on_c, 4, 59, 80
5, 104640, Note_on_c, 4, 57, 80
5, 104640, Note_on_c, 4, 53, 80
5, 104640, Note_on_c, 4, 62, 80
5, 104892, Note_on_c, 4, 62, 0
5, 104892, Note_on_c, 4, 59, 0
5, 104892, Note_on_c, 4, 57, 0
5, 104892, Note_on_c, 4, 53, 0
5, 105600, Note_on_c, 4, 57, 80
5, 105852, Note_on_c, 4, 57, 0
5, 105920, Note_on_c, 4, 60, 80
5, 105920, Note_on_c, 4, 64, 80
5, 105920, Note_on_c, 4, 69, 80
5, 106045, Note_on_c, 4, 69, 0
5, 106045, Note_on_c, 4, 64, 0
5, 106045, Note_on_c, 4, 60, 0
5, 106080, Note_on_c, 4, 52, 80
5, 106332, Note_on_c, 4, 52, 0
5, 106400, Note_on_c, 4, 64, 80
5, 106400, Note_on_c, 4, 60, 80
5, 106400, Note_on_c, 4, 57, 80
5, 106525, Note_on_c, 4, 57, 0
5, 106525, Note_on_c, 4, 60, 0
5, 106525, Note_on_c, 4, 64, 0
5, 106560, Note_on_c, 4, 48, 80
5, 106812, Note_on_c, 4, 48, 0
5, 106880, Note_on_c, 4, 52, 80
5, 106880, Note_on_c, 4, 57, 80
5, 106880, Note_on_c, 4, 60, 80
5, 107005, Note_on_c, 4, 60, 0
5, 107005, Note_on_c, 4, 57, 0
5, 107005, Note_on_c, 4, 52, 0
5, 107040, Note_on_c, 4, 45, 80
5, 107292, Note_on_c, 4, 45, 0
5, 107360, Note_on_c, 4, 64, 80
5, 107360, Note_on_c, 4, 60, 80
5, 107360, Note_on_c, 4, 57, 80
5, 107515, Note_on_c, 4, 57, 0
5, 107515, Note_on_c, 4, 60, 0
5, 107515, Note_on_c, 4, 64, 0
5, 107520, Note_on_c, 4, 53, 80
5, 107772, Note_on_c, 4, 53, 0
5, 107840, Note_on_c, 4, 57, 80
5, 107840, Note_on_c, 4, 60, 80
5, 107840, Note_on_c, 4, 67, 80
5, 107965, Note_on_c, 4, 67, 0
5, 107965, Note_on_c, 4, 60, 0
5, 107965, Note_on_c, 4, 57, 0
5, 108000, Note_on_c, 4, 48, 80
5, 108252, Note_on_c, 4, 48, 0
5, 108320, Note_on_c, 4, 53, 80
5, 108320, Note_on_c, 4, 57, 80
5, 108320, Note_on_c, 4, 60, 80
5, 108445, Note_on_c, 4, 60, 0
5, 108445, Note_on_c, 4, 57, 0
5, 108445, Note_on_c, 4, 53, 0
5, 108480, Note_on_c, 4, 57, 80
5, 108732, Note_on_c, 4, 57, 0
5, 108800, Note_on_c, 4, 60, 80
5, 108800, Note_on_c, 4, 64, 80
5, 108800, Note_on_c, 4, 69, 80
5, 108925, Note_on_c, 4, 69, 0
5, 108925, Note_on_c, 4, 64, 0
5, 108925, Note_on_c, 4, 60, 0
5, 108960, Note_on_c, 4, 52, 80
5, 109212, Note_on_c, 4, 52, 0
5, 109280, Note_on_c, 4, 57, 80
5, 109280, Note_on_c, 4, 60, 80
5, 109280, Note_on_c, 4, 64, 80
5, 109405, Note_on_c, 4, 64, 0
5, 109405, Note_on_c, 4, 60, 0
5, 109405, Note_on_c, 4, 57, 0
5, 109440, Note_on_c, 4, 64, 80
5, 109440, Note_on_c, 4, 60, 80
5, 109440, Note_on_c, 4, 59, 80
5, 109440, Note_on_c, 4, 66, 80
5, 109692, Note_on_c, 4, 66, 0
5, 109692, Note_on_c, 4, 64, 0
5, 109692, Note_on_c, 4, 60, 0
5, 109692, Note_on_c, 4, 59, 0
5, 110400, Note_on_c, 4, 64, 80
5, 110400, Note_on_c, 4, 60, 80
5, 110400, Note_on_c, 4, 58, 80
5, 110400, Note_on_c, 4, 66, 80
5, 110652, Note_on_c, 4, 66, 0
5, 110652, Note_on_c, 4, 64, 0
5, 110652, Note_on_c, 4, 60, 0
5, 110652, Note_on_c, 4, 58, 0
5, 111360, Note_on_c, 4, 62, 80
5, 111612, Note_on_c, 4, 62, 0
5, 111680, Note_on_c, 4, 65, 80
5, 111680, Note_on_c, 4, 69, 80
5, 111680, Note_on_c, 4, 74, 80
5, 111805, Note_on_c, 4, 74, 0
5, 111805, Note_on_c, 4, 69, 0
5, 111805, Note_on_c, 4, 65, 0
5, 111840, Note_on_c, 4, 57, 80
5, 112092, Note_on_c, 4, 57, 0
5, 112160, Note_on_c, 4, 62, 80
5, 112160, Note_on_c, 4, 65, 80
5, 112160, Note_on_c, 4, 69, 80
5, 112285, Note_on_c, 4, 69, 0
5, 112285, Note_on_c, 4, 65, 0
5, 112285, Note_on_c, 4, 62, 0
5, 112320, Note_on_c, 4, 57, 80
5, 112572, Note_on_c, 4, 57, 0
5, 112640, Note_on_c, 4, 59, 80
5, 112640, Note_on_c, 4, 62, 80
5, 112640, Note_on_c, 4, 69, 80
5, 112765, Note_on_c, 4, 69, 0
5, 112765, Note_on_c, 4, 62, 0
5, 112765, Note_on_c, 4, 59, 0
5, 112800, Note_on_c, 4, 50, 80
5, 113052, Note_on_c, 4, 50, 0
5, 113120, Note_on_c, 4, 57, 80
5, 113120, Note_on_c, 4, 59, 80
5, 113120, Note_on_c, 4, 62, 80
5, 113245, Note_on_c, 4, 62, 0
5, 113245, Note_on_c, 4, 59, 0
5, 113245, Note_on_c, 4, 57, 0
5, 113280, Note_on_c, 4, 62, 80
5, 113532, Note_on_c, 4, 62, 0
5, 113600, Note_on_c, 4, 64, 80
5, 113600, Note_on_c, 4, 67, 80
5, 113600, Note_on_c, 4, 74, 80
5, 113725, Note_on_c, 4, 74, 0
5, 113725, Note_on_c, 4, 67, 0
5, 113725, Note_on_c, 4, 64, 0
5, 113760, Note_on_c, 4, 55, 80
5, 114012, Note_on_c, 4, 55, 0
5, 114080, Note_on_c, 4, 67, 80
5, 114080, Note_on_c, 4, 64, 80
5, 114080, Note_on_c, 4, 62, 80
5, 114205, Note_on_c, 4, 62, 0
5, 114205, Note_on_c, 4, 64, 0
5, 114205, Note_on_c, 4, 67, 0
5, 114240, Note_on_c, 4, 52, 80
5, 114492, Note_on_c, 4, 52, 0
5, 114560, Note_on_c, 4, 55, 80
5, 114560, Note_on_c, 4, 62, 80
5, 114560, Note_on_c, 4, 64, 80
5, 114685, Note_on_c, 4, 64, 0
5, 114685, Note_on_c, 4, 62, 0
5, 114685, Note_on_c, 4, 55, 0
5, 114720, Note_on_c, 4, 48, 80
5, 114972, Note_on_c, 4, 48, 0
5, 115040, Note_on_c, 4, 67, 80
5, 115040, Note_on_c, 4, 64, 80
5, 115040, Note_on_c, 4, 62, 80
5, 115195, Note_on_c, 4, 62, 0
5, 115195, Note_on_c, 4, 64, 0
5, 115195, Note_on_c, 4, 67, 0
5, 115200, Note_on_c, 4, 62, 80
5, 115200, Note_on_c, 4, 60, 80
5, 115200, Note_on_c, 4, 57, 80
5, 115200, Note_on_c, 4, 65, 80
5, 115452, Note_on_c, 4, 65, 0
5, 115452, Note_on_c, 4, 62, 0
5, 115452, Note_on_c, 4, 60, 0
5, 115452, Note_on_c, 4, 57, 0
5, 116160, Note_on_c, 4, 63, 80
5, 116160, Note_on_c, 4, 60, 80
5, 116160, Note_on_c, 4, 57, 80
5, 116160, Note_on_c, 4, 66, 80
5, 116412, Note_on_c, 4, 66, 0
5, 116412, Note_on_c, 4, 63, 0
5, 116412, Note_on_c, 4, 60, 0
5, 116412, Note_on_c, 4, 57, 0
5, 117120, Note_on_c, 4, 60, 80
5, 117120, Note_on_c, 4, 57, 80
5, 117120, Note_on_c, 4, 55, 80
5, 117120, Note_on_c, 4, 64, 80
5, 117372, Note_on_c, 4, 64, 0
5, 117372, Note_on_c, 4, 60, 0
5, 117372, Note_on_c, 4, 57, 0
5, 117372, Note_on_c, 4, 55, 0
5, 117600, Note_on_c, 4, 60, 80
5, 117852, Note_on_c, 4, 60, 0
5, 117920, Note_on_c, 4, 64, 80
5, 117920, Note_on_c, 4, 67, 80
5, 117920, Note_on_c, 4, 72, 80
5, 118045, Note_on_c, 4, 72, 0
5, 118045, Note_on_c, 4, 67, 0
5, 118045, Note_on_c, 4, 64, 0
5, 118080, Note_on_c, 4, 57, 80
5, 118332, Note_on_c, 4, 57, 0
5, 118400, Note_on_c, 4, 60, 80
5, 118400, Note_on_c, 4, 64, 80
5, 118400, Note_on_c, 4, 69, 80
5, 118525, Note_on_c, 4, 69, 0
5, 118525, Note_on_c, 4, 64, 0
5, 118525, Note_on_c, 4, 60, 0
5, 118560, Note_on_c, 4, 60, 80
5, 118560, Note_on_c, 4, 57, 80
5, 118560, Note_on_c, 4, 52, 80
5, 118812, Note_on_c, 4, 52, 0
5, 118812, Note_on_c, 4, 57, 0
5, 118812, Note_on_c, 4, 60, 0
5, 119040, Note_on_c, 4, 64, 80
5, 119292, Note_on_c, 4, 64, 0
5, 119360, Note_on_c, 4, 66, 80
5, 119360, Note_on_c, 4, 69, 80
5, 119360, Note_on_c, 4, 76, 80
5, 119485, Note_on_c, 4, 76, 0
5, 119485, Note_on_c, 4, 69, 0
5, 119485, Note_on_c, 4, 66, 0
5, 119520, Note_on_c, 4, 57, 80
5, 119772, Note_on_c, 4, 57, 0
5, 119840, Note_on_c, 4, 64, 80
5, 119840, Note_on_c, 4, 66, 80
5, 119840, Note_on_c, 4, 69, 80
5, 119965, Note_on_c, 4, 69, 0
5, 119965, Note_on_c, 4, 66, 0
5, 119965, Note_on_c, 4, 64, 0
5, 120000, Note_on_c, 4, 62, 80
5, 120000, Note_on_c, 4, 60, 80
5, 120000, Note_on_c, 4, 56, 80
5, 120000, Note_on_c, 4, 65, 80
5, 120252, Note_on_c, 4, 65, 0
5, 120252, Note_on_c, 4, 62, 0
5, 120252, Note_on_c, 4, 60, 0
5, 120252, Note_on_c, 4, 56, 0
5, 120960, Note_on_c, 4, 62, 80
5, 120960, Note_on_c, 4, 59, 80
5, 120960, Note_on_c, 4, 55, 80
5, 120960, Note_on_c, 4, 64, 80
5, 121212, Note_on_c, 4, 64, 0
5, 121212, Note_on_c, 4, 62, 0
5, 121212, Note_on_c, 4, 59, 0
5, 121212, Note_on_c, 4, 55, 0
5, 121920, Note_on_c, 4, 60, 80
5, 121920, Note_on_c, 4, 57, 80
5, 121920, Note_on_c, 4, 55, 80
5, 121920, Note_on_c, 4, 64, 80
5, 122172, Note_on_c, 4, 64, 0
5, 122172, Note_on_c, 4, 60, 0
5, 122172, Note_on_c, 4, 57, 0
5, 122172, Note_on_c, 4, 55, 0
5, 122880, Note_on_c, 4, 62, 80
5, 123132, Note_on_c, 4, 62, 0
5, 123200, Note_on_c, 4, 65, 80
5, 123200, Note_on_c, 4, 69, 80
5, 123200, Note_on_c, 4, 74, 80
5, 123325, Note_on_c, 4, 74, 0
5, 123325, Note_on_c, 4, 69, 0
5, 123325, Note_on_c, 4, 65, 0
5, 123360, Note_on_c, 4, 57, 80
5, 123612, Note_on_c, 4, 57, 0
5, 123680, Note_on_c, 4, 62, 80
5, 123680, Note_on_c, 4, 65, 80
5, 123680, Note_on_c, 4, 69, 80
5, 123805, Note_on_c, 4, 69, 0
5, 123805, Note_on_c, 4, 65, 0
5, 123805, Note_on_c, 4, 62, 0
5, 123840, Note_on_c, 4, 57, 80
5, 124092, Note_on_c, 4, 57, 0
5, 124160, Note_on_c, 4, 59, 80
5, 124160, Note_on_c, 4, 62, 80
5, 124160, Note_on_c, 4, 69, 80
5, 124285, Note_on_c, 4, 69, 0
5, 124285, Note_on_c, 4, 62, 0
5, 124285, Note_on_c, 4, 59, 0
5, 124320, Note_on_c, 4, 50, 80
5, 124572, Note_on_c, 4, 50, 0
5, 124640, Note_on_c, 4, 57, 80
5, 124640, Note_on_c, 4, 59, 80
5, 124640, Note_on_c, 4, 62, 80
5, 124765, Note_on_c, 4, 62, 0
5, 124765, Note_on_c, 4, 59, 0
5, 124765, Note_on_c, 4, 57, 0
5, 124800, Note_on_c, 4, 64, 80
5, 124800, Note_on_c, 4, 60, 80
5, 124800, Note_on_c, 4, 57, 80
5, 124800, Note_on_c, 4, 67, 80
5, 125052, Note_on_c, 4, 67, 0
5, 125052, Note_on_c, 4, 64, 0
5, 125052, Note_on_c, 4, 60, 0
5, 125052, Note_on_c, 4, 57, 0
5, 125760, Note_on_c, 4, 53, 80
5, 126012, Note_on_c, 4, 53, 0
5, 126080, Note_on_c, 4, 57, 80
5, 126080, Note_on_c, 4, 60, 80
5, 126080, Note_on_c, 4, 65, 80
5, 126205, Note_on_c, 4, 65, 0
5, 126205, Note_on_c, 4, 60, 0
5, 126205, Note_on_c, 4, 57, 0
5, 126240, Note_on_c, 4, 48, 80
5, 126492, Note_on_c, 4, 48, 0
5, 126560, Note_on_c, 4, 53, 80
5, 126560, Note_on_c, 4, 57, 80
5, 126560, Note_on_c, 4, 60, 80
5, 126685, Note_on_c, 4, 60, 0
5, 126685, Note_on_c, 4, 57, 0
5, 126685, Note_on_c, 4, 53, 0
5, 126720, Note_on_c, 4, 60, 80
5, 126972, Note_on_c, 4, 60, 0
5, 127040, Note_on_c, 4, 64, 80
5, 127040, Note_on_c, 4, 67, 80
5, 127040, Note_on_c, 4, 72, 80
5, 127165, Note_on_c, 4, 72, 0
5, 127165, Note_on_c, 4, 67, 0
5, 127165, Note_on_c, 4, 64, 0
5, 127200, Note_on_c, 4, 55, 80
5, 127452, Note_on_c, 4, 55, 0
5, 127520, Note_on_c, 4, 60, 80
5, 127520, Note_on_c, 4, 64, 80
5, 127520, Note_on_c, 4, 67, 80
5, 127645, Note_on_c, 4, 67, 0
5, 127645, Note_on_c, 4, 64, 0
5, 127645, Note_on_c, 4, 60, 0
5, 127680, Note_on_c, 4, 65, 80
5, 127680, Note_on_c, 4, 62, 80
5, 127680, Note_on_c, 4, 59, 80
5, 127680, Note_on_c, 4, 69, 80
5, 127932, Note_on_c, 4, 69, 0
5, 127932, Note_on_c, 4, 65, 0
5, 127932, Note_on_c, 4, 62, 0
5, 127932, Note_on_c, 4, 59, 0
5, 128640, Note_on_c, 4, 60, 80
5, 128892, Note_on_c, 4, 60, 0
5, 128960, Note_on_c, 4, 64, 80
5, 128960, Note_on_c, 4, 67, 80
5, 128960, Note_on_c, 4, 74, 80
5, 129085, Note_on_c, 4, 74, 0
5, 129085, Note_on_c, 4, 67, 0
5, 129085, Note_on_c, 4, 64, 0
5, 129120, Note_on_c, 4, 55, 80
5, 129372, Note_on_c, 4, 55, 0
5, 129440, Note_on_c, 4, 67, 80
5, 129440, Note_on_c, 4, 64, 80
5, 129440, Note_on_c, 4, 60, 80
5, 129565, Note_on_c, 4, 60, 0
5, 129565, Note_on_c, 4, 64, 0
5, 129565, Note_on_c, 4, 67, 0
5, 129600, Note_on_c, 4, 52, 80
5, 129852, Note_on_c, 4, 52, 0
5, 129920, Note_on_c, 4, 55, 80
5, 129920, Note_on_c, 4, 60, 80
5, 129920, Note_on_c, 4, 64, 80
5, 130045, Note_on_c, 4, 64, 0
5, 130045, Note_on_c, 4, 60, 0
5, 130045, Note_on_c, 4, 55, 0
5, 130080, Note_on_c, 4, 48, 80
5, 130332, Note_on_c, 4, 48, 0
5, 130400, Note_on_c, 4, 67, 80
5, 130400, Note_on_c, 4, 64, 80
5, 130400, Note_on_c, 4, 60, 80
5, 130555, Note_on_c, 4, 60, 0
5, 130555, Note_on_c, 4, 64, 0
5, 130555, Note_on_c, 4, 67, 0
5, 130560, Note_on_c, 4, 60, 80
5, 130560, Note_on_c, 4, 57, 80
5, 130560, Note_on_c, 4, 55, 80
5, 130560, Note_on_c, 4, 64, 80
5, 130812, Note_on_c, 4, 64, 0
5, 130812, Note_on_c, 4, 60, 0
5, 130812, Note_on_c, 4, 57, 0
5, 130812, Note_on_c, 4, 55, 0
5, 131520, Note_on_c, 4, 62, 80
5, 131520, Note_on_c, 4, 58, 80
5, 131520, Note_on_c, 4, 55, 80
5, 131520, Note_on_c, 4, 64, 80
5, 131772, Note_on_c, 4, 64, 0
5, 131772, Note_on_c, 4, 62, 0
5, 131772, Note_on_c, 4, 58, 0
5, 131772, Note_on_c, 4, 55, 0
5, 132480, Note_on_c, 4, 41, 80
5, 132732, Note_on_c, 4, 41, 0
5, 132800, Note_on_c, 4, 60, 80
5, 132800, Note_on_c, 4, 57, 80
5, 132800, Note_on_c, 4, 53, 80
5, 132925, Note_on_c, 4, 53, 0
5, 132925, Note_on_c, 4, 57, 0
5, 132925, Note_on_c, 4, 60, 0
5, 132960, Note_on_c, 4, 45, 80
5, 133212, Note_on_c, 4, 45, 0
5, 133280, Note_on_c, 4, 60, 80
5, 133280, Note_on_c, 4, 57, 80
5, 133280, Note_on_c, 4, 53, 80
5, 133405, Note_on_c, 4, 53, 0
5, 133405, Note_on_c, 4, 57, 0
5, 133405, Note_on_c, 4, 60, 0
5, 133440, Note_on_c, 4, 48, 80
5, 133692, Note_on_c, 4, 48, 0
5, 133760, Note_on_c, 4, 60, 80
5, 133760, Note_on_c, 4, 57, 80
5, 133760, Note_on_c, 4, 53, 80
5, 133885, Note_on_c, 4, 53, 0
5, 133885, Note_on_c, 4, 57, 0
5, 133885, Note_on_c, 4, 60, 0
5, 133920, Note_on_c, 4, 41, 80
5, 134172, Note_on_c, 4, 41, 0
5, 134240, Note_on_c, 4, 60, 80
5, 134240, Note_on_c, 4, 57, 80
5, 134240, Note_on_c, 4, 53, 80
5, 134395, Note_on_c, 4, 53, 0
5, 134395, Note_on_c, 4, 57, 0
5, 134395, Note_on_c, 4, 60, 0
5, 134400, Note_on_c, 4, 62, 80
5, 134652, Note_on_c, 4, 62, 0
5, 134720, Note_on_c, 4, 65, 80
5, 134720, Note_on_c, 4, 69, 80
5, 134720, Note_on_c, 4, 74, 80
5, 134845, Note_on_c, 4, 74, 0
5, 134845, Note_on_c, 4, 69, 0
5, 134845, Note_on_c, 4, 65, 0
5, 134880, Note_on_c, 4, 57, 80
5, 135132, Note_on_c, 4, 57, 0
5, 135200, Note_on_c, 4, 62, 80
5, 135200, Note_on_c, 4, 65, 80
5, 135200, Note_on_c, 4, 69, 80
5, 135325, Note_on_c, 4, 69, 0
5, 135325, Note_on_c, 4, 65, 0
5, 135325, Note_on_c, 4, 62, 0
5, 135360, Note_on_c, 4, 57, 80
5, 135612, Note_on_c, 4, 57, 0
5, 135680, Note_on_c, 4, 59, 80
5, 135680, Note_on_c, 4, 62, 80
5, 135680, Note_on_c, 4, 69, 80
5, 135805, Note_on_c, 4, 69, 0
5, 135805, Note_on_c, 4, 62, 0
5, 135805, Note_on_c, 4, 59, 0
5, 135840, Note_on_c, 4, 50, 80
5, 136092, Note_on_c, 4, 50, 0
5, 136160, Note_on_c, 4, 57, 80
5, 136160, Note_on_c, 4, 59, 80
5, 136160, Note_on_c, 4, 62, 80
5, 136285, Note_on_c, 4, 62, 0
5, 136285, Note_on_c, 4, 59, 0
5, 136285, Note_on_c, 4, 57, 0
5, 136320, Note_on_c, 4, 52, 80
5, 136572, Note_on_c, 4, 52, 0
5, 136640, Note_on_c, 4, 55, 80
5, 136640, Note_on_c, 4, 59, 80
5, 136640, Note_on_c, 4, 64, 80
5, 136765, Note_on_c, 4, 64, 0
5, 136765, Note_on_c, 4, 59, 0
5, 136765, Note_on_c, 4, 55, 0
5, 136800, Note_on_c, 4, 47, 80
5, 137052, Note_on_c, 4, 47, 0
5, 137120, Note_on_c, 4, 59, 80
5, 137120, Note_on_c, 4, 55, 80
5, 137120, Note_on_c, 4, 52, 80
5, 137245, Note_on_c, 4, 52, 0
5, 137245, Note_on_c, 4, 55, 0
5, 137245, Note_on_c, 4, 59, 0
5, 137280, Note_on_c, 4, 43, 80
5, 137532, Note_on_c, 4, 43, 0
5, 137600, Note_on_c, 4, 47, 80
5, 137600, Note_on_c, 4, 52, 80
5, 137600, Note_on_c, 4, 55, 80
5, 137725, Note_on_c, 4, 55, 0
5, 137725, Note_on_c, 4, 52, 0
5, 137725, Note_on_c, 4, 47, 0
5, 137760, Note_on_c, 4, 40, 80
5, 138012, Note_on_c, 4, 40, 0
5, 138080, Note_on_c, 4, 59, 80
5, 138080, Note_on_c, 4, 55, 80
5, 138080, Note_on_c, 4, 52, 80
5, 138235, Note_on_c, 4, 52, 0
5, 138235, Note_on_c, 4, 55, 0
5, 138235, Note_on_c, 4, 59, 0
5, 138240, Note_on_c, 4, 57, 80
5, 138492, Note_on_c, 4, 57, 0
5, 138560, Note_on_c, 4, 60, 80
5, 138560, Note_on_c, 4, 64, 80
5, 138560, Note_on_c, 4, 69, 80
5, 138685, Note_on_c, 4, 69, 0
5, 138685, Note_on_c, 4, 64, 0
5, 138685, Note_on_c, 4, 60, 0
5, 138720, Note_on_c, 4, 52, 80
5, 138972, Note_on_c, 4, 52, 0
5, 139040, Note_on_c, 4, 64, 80
5, 139040, Note_on_c, 4, 60, 80
5, 139040, Note_on_c, 4, 57, 80
5, 139165, Note_on_c, 4, 57, 0
5, 139165, Note_on_c, 4, 60, 0
5, 139165, Note_on_c, 4, 64, 0
5, 139200, Note_on_c, 4, 48, 80
5, 139452, Note_on_c, 4, 48, 0
5, 139520, Note_on_c, 4, 52, 80
5, 139520, Note_on_c, 4, 57, 80
5, 139520, Note_on_c, 4, 60, 80
5, 139645, Note_on_c, 4, 60, 0
5, 139645, Note_on_c, 4, 57, 0
5, 139645, Note_on_c, 4, 52, 0
5, 139680, Note_on_c, 4, 45, 80
5, 139932, Note_on_c, 4, 45, 0
5, 140000, Note_on_c, 4, 64, 80
5, 140000, Note_on_c, 4, 60, 80
5, 140000, Note_on_c, 4, 57, 80
5, 140155, Note_on_c, 4, 57, 0
5, 140155, Note_on_c, 4, 60, 0
5, 140155, Note_on_c, 4, 64, 0
5, 140160, Note_on_c, 4, 64, 80
5, 140160, Note_on_c, 4, 60, 80
5, 140160, Note_on_c, 4, 59, 80
5, 140160, Note_on_c, 4, 66, 80
5, 140412, Note_on_c, 4, 66, 0
5, 140412, Note_on_c, 4, 64, 0
5, 140412, Note_on_c, 4, 60, 0
5, 140412, Note_on_c, 4, 59, 0
5, 141120, Note_on_c, 4, 64, 80
5, 141372, Note_on_c, 4, 64, 0
5, 141440, Note_on_c, 4, 66, 80
5, 141440, Note_on_c, 4, 70, 80
5, 141440, Note_on_c, 4, 76, 80
5, 141565, Note_on_c, 4, 76, 0
5, 141565, Note_on_c, 4, 70, 0
5, 141565, Note_on_c, 4, 66, 0
5, 141600, Note_on_c, 4, 58, 80
5, 141852, Note_on_c, 4, 58, 0
5, 141920, Note_on_c, 4, 64, 80
5, 141920, Note_on_c, 4, 66, 80
5, 141920, Note_on_c, 4, 70, 80
5, 142045, Note_on_c, 4, 70, 0
5, 142045, Note_on_c, 4, 66, 0
5, 142045, Note_on_c, 4, 64, 0
5, 142080, Note_on_c, 4, 62, 80
5, 142080, Note_on_c, 4, 60, 80
5, 142080, Note_on_c, 4, 57, 80
5, 142080, Note_on_c, 4, 65, 80
5, 142332, Note_on_c, 4, 65, 0
5, 142332, Note_on_c, 4, 62, 0
5, 142332, Note_on_c, 4, 60, 0
5, 142332, Note_on_c, 4, 57, 0
5, 143040, Note_on_c, 4, 59, 80
5, 143040, Note_on_c, 4, 57, 80
5, 143040, Note_on_c, 4, 53, 80
5, 143040, Note_on_c, 4, 62, 80
5, 143292, Note_on_c, 4, 62, 0
5, 143292, Note_on_c, 4, 59, 0
5, 143292, Note_on_c, 4, 57, 0
5, 143292, Note_on_c, 4, 53, 0
5, 144000, Note_on_c, 4, 60, 80
5, 144252, Note_on_c, 4, 60, 0
5, 144320, Note_on_c, 4, 64, 80
5, 144320, Note_on_c, 4, 67, 80
5, 144320, Note_on_c, 4, 74, 80
5, 144445, Note_on_c, 4, 74, 0
5, 144445, Note_on_c, 4, 67, 0
5, 144445, Note_on_c, 4, 64, 0
5, 144480, Note_on_c, 4, 55, 80
5, 144732, Note_on_c, 4, 55, 0
5, 144800, Note_on_c, 4, 67, 80
5, 144800, Note_on_c, 4, 64, 80
5, 144800, Note_on_c, 4, 60, 80
5, 144925, Note_on_c, 4, 60, 0
5, 144925, Note_on_c, 4, 64, 0
5, 144925, Note_on_c, 4, 67, 0
5, 144960, Note_on_c, 4, 52, 80
5, 145212, Note_on_c, 4, 52, 0
5, 145280, Note_on_c, 4, 55, 80
5, 145280, Note_on_c, 4, 60, 80
5, 145280, Note_on_c, 4, 64, 80
5, 145405, Note_on_c, 4, 64, 0
5, 145405, Note_on_c, 4, 60, 0
5, 145405, Note_on_c, 4, 55, 0
5, 145440, Note_on_c, 4, 48, 80
5, 145692, Note_on_c, 4, 48, 0
5, 145760, Note_on_c, 4, 67, 80
5, 145760, Note_on_c, 4, 64, 80
5, 145760, Note_on_c, 4, 60, 80
5, 145915, Note_on_c, 4, 60, 0
5, 145915, Note_on_c, 4, 64, 0
5, 145915, Note_on_c, 4, 67, 0
5, 145920, Note_on_c, 4, 60, 80
5, 146172, Note_on_c, 4, 60, 0
5, 146240, Note_on_c, 4, 64, 80
5, 146240, Note_on_c, 4, 67, 80
5, 146240, Note_on_c, 4, 74, 80
5, 146365, Note_on_c, 4, 74, 0
5, 146365, Note_on_c, 4, 67, 0
5, 146365, Note_on_c, 4, 64, 0
5, 146400, Note_on_c, 4, 55, 80
5, 146652, Note_on_c, 4, 55, 0
5, 146720, Note_on_c, 4, 60, 80
5, 146720, Note_on_c, 4, 64, 80
5, 146720, Note_on_c, 4, 67, 80
5, 146845, Note_on_c, 4, 67, 0
5, 146845, Note_on_c, 4, 64, 0
5, 146845, Note_on_c, 4, 60, 0
5, 146880, Note_on_c, 4, 62, 80
5, 147132, Note_on_c, 4, 62, 0
5, 147200, Note_on_c, 4, 64, 80
5, 147200, Note_on_c, 4, 67, 80
5, 147200, Note_on_c, 4, 74, 80
5, 147325, Note_on_c, 4, 74, 0
5, 147325, Note_on_c, 4, 67, 0
5, 147325, Note_on_c, 4, 64, 0
5, 147360, Note_on_c, 4, 55, 80
5, 147612, Note_on_c, 4, 55, 0
5, 147680, Note_on_c, 4, 62, 80
5, 147680, Note_on_c, 4, 64, 80
5, 147680, Note_on_c, 4, 67, 80
5, 147805, Note_on_c, 4, 67, 0
5, 147805, Note_on_c, 4, 64, 0
5, 147805, Note_on_c, 4, 62, 0
5, 147840, Note_on_c, 4, 41, 80
5, 148092, Note_on_c, 4, 41, 0
5, 148160, Note_on_c, 4, 60, 80
5, 148160, Note_on_c, 4, 57, 80
5, 148160, Note_on_c, 4, 53, 80
5, 148285, Note_on_c, 4, 53, 0
5, 148285, Note_on_c, 4, 57, 0
5, 148285, Note_on_c, 4, 60, 0
5, 148320, Note_on_c, 4, 45, 80
5, 148572, Note_on_c, 4, 45, 0
5, 148640, Note_on_c, 4, 60, 80
5, 148640, Note_on_c, 4, 57, 80
5, 148640, Note_on_c, 4, 53, 80
5, 148765, Note_on_c, 4, 53, 0
5, 148765, Note_on_c, 4, 57, 0
5, 148765, Note_on_c, 4, 60, 0
5, 148800, Note_on_c, 4, 48, 80
5, 149052, Note_on_c, 4, 48, 0
5, 149120, Note_on_c, 4, 60, 80
5, 149120, Note_on_c, 4, 57, 80
5, 149120, Note_on_c, 4, 53, 80
5, 149245, Note_on_c, 4, 53, 0
5, 149245, Note_on_c, 4, 57, 0
5, 149245, Note_on_c, 4, 60, 0
5, 149280, Note_on_c, 4, 41, 80
5, 149532, Note_on_c, 4, 41, 0
5, 149600, Note_on_c, 4, 60, 80
5, 149600, Note_on_c, 4, 57, 80
5, 149600, Note_on_c, 4, 53, 80
5, 149755, Note_on_c, 4, 53, 0
5, 149755, Note_on_c, 4, 57, 0
5, 149755, Note_on_c, 4, 60, 0
5, 149760, Note_on_c, 4, 62, 80
5, 149760, Note_on_c, 4, 60, 80
5, 149760, Note_on_c, 4, 57, 80
5, 149760, Note_on_c, 4, 65, 80
5, 150012, Note_on_c, 4, 65, 0
5, 150012, Note_on_c, 4, 62, 0
5, 150012, Note_on_c, 4, 60, 0
5, 150012, Note_on_c, 4, 57, 0
5, 150720, Note_on_c, 4, 57, 80
5, 150972, Note_on_c, 4, 57, 0
5, 151040, Note_on_c, 4, 59, 80
5, 151040, Note_on_c, 4, 62, 80
5, 151040, Note_on_c, 4, 69, 80
5, 151165, Note_on_c, 4, 69, 0
5, 151165, Note_on_c, 4, 62, 0
5, 151165, Note_on_c, 4, 59, 0
5, 151200, Note_on_c, 4, 50, 80
5, 151452, Note_on_c, 4, 50, 0
5, 151520, Note_on_c, 4, 57, 80
5, 151520, Note_on_c, 4, 59, 80
5, 151520, Note_on_c, 4, 62, 80
5, 151645, Note_on_c, 4, 62, 0
5, 151645, Note_on_c, 4, 59, 0
5, 151645, Note_on_c, 4, 57, 0
5, 151680, Note_on_c, 4, 52, 80
5, 151932, Note_on_c, 4, 52, 0
5, 152000, Note_on_c, 4, 55, 80
5, 152000, Note_on_c, 4, 59, 80
5, 152000, Note_on_c, 4, 64, 80
5, 152125, Note_on_c, 4, 64, 0
5, 152125, Note_on_c, 4, 59, 0
5, 152125, Note_on_c, 4, 55, 0
5, 152160, Note_on_c, 4, 47, 80
5, 152412, Note_on_c, 4, 47, 0
5, 152480, Note_on_c, 4, 52, 80
5, 152480, Note_on_c, 4, 55, 80
5, 152480, Note_on_c, 4, 59, 80
5, 152605, Note_on_c, 4, 59, 0
5, 152605, Note_on_c, 4, 55, 0
5, 152605, Note_on_c, 4, 52, 0
5, 152640, Note_on_c, 4, 61, 80
5, 152640, Note_on_c, 4, 58, 80
5, 152640, Note_on_c, 4, 55, 80
5, 152640, Note_on_c, 4, 64, 80
5, 152892, Note_on_c, 4, 64, 0
5, 152892, Note_on_c, 4, 61, 0
5, 152892, Note_on_c, 4, 58, 0
5, 152892, Note_on_c, 4, 55, 0
5, 153600, Note_on_c, 4, 62, 80
5, 153852, Note_on_c, 4, 62, 0
5, 153920, Note_on_c, 4, 65, 80
5, 153920, Note_on_c, 4, 69, 80
5, 153920, Note_on_c, 4, 74, 80
5, 154045, Note_on_c, 4, 74, 0
5, 154045, Note_on_c, 4, 69, 0
5, 154045, Note_on_c, 4, 65, 0
5, 154080, Note_on_c, 4, 57, 80
5, 154332, Note_on_c, 4, 57, 0
5, 154400, Note_on_c, 4, 62, 80
5, 154400, Note_on_c, 4, 65, 80
5, 154400, Note_on_c, 4, 69, 80
5, 154525, Note_on_c, 4, 69, 0
5, 154525, Note_on_c, 4, 65, 0
5, 154525, Note_on_c, 4, 62, 0
5, 154560, Note_on_c, 4, 65, 80
5, 154560, Note_on_c, 4, 62, 80
5, 154560, Note_on_c, 4, 59, 80
5, 154560, Note_on_c, 4, 69, 80
5, 154812, Note_on_c, 4, 69, 0
5, 154812, Note_on_c, 4, 65, 0
5, 154812, Note_on_c, 4, 62, 0
5, 154812, Note_on_c, 4, 59, 0
5, 155520, Note_on_c, 4, 60, 80
5, 155520, Note_on_c, 4, 57, 80
5, 155520, Note_on_c, 4, 55, 80
5, 155520, Note_on_c, 4, 64, 80
5, 155772, Note_on_c, 4, 64, 0
5, 155772, Note_on_c, 4, 60, 0
5, 155772, Note_on_c, 4, 57, 0
5, 155772, Note_on_c, 4, 55, 0
5, 156480, Note_on_c, 4, 63, 80
5, 156480, Note_on_c, 4, 60, 80
5, 156480, Note_on_c, 4, 57, 80
5, 156480, Note_on_c, 4, 67, 80
5, 156732, Note_on_c, 4, 67, 0
5, 156732, Note_on_c, 4, 63, 0
5, 156732, Note_on_c, 4, 60, 0
5, 156732, Note_on_c, 4, 57, 0
5, 157440, Note_on_c, 4, 60, 80
5, 157692, Note_on_c, 4, 60, 0
5, 157760, Note_on_c, 4, 64, 80
5, 157760, Note_on_c, 4, 67, 80
5, 157760, Note_on_c, 4, 72, 80
5, 157885, Note_on_c, 4, 72, 0
5, 157885, Note_on_c, 4, 67, 0
5, 157885, Note_on_c, 4, 64, 0
5, 157920, Note_on_c, 4, 55, 80
5, 158172, Note_on_c, 4, 55, 0
5, 158240, Note_on_c, 4, 60, 80
5, 158240, Note_on_c, 4, 64, 80
5, 158240, Note_on_c, 4, 67, 80
5, 158365, Note_on_c, 4, 67, 0
5, 158365, Note_on_c, 4, 64, 0
5, 158365, Note_on_c, 4, 60, 0
5, 158400, Note_on_c, 4, 57, 80
5, 158652, Note_on_c, 4, 57, 0
5, 158720, Note_on_c, 4, 59, 80
5, 158720, Note_on_c, 4, 62, 80
5, 158720, Note_on_c, 4, 69, 80
5, 158845, Note_on_c, 4, 69, 0
5, 158845, Note_on_c, 4, 62, 0
5, 158845, Note_on_c, 4, 59, 0
5, 158880, Note_on_c, 4, 50, 80
5, 159132, Note_on_c, 4, 50, 0
5, 159200, Note_on_c, 4, 57, 80
5, 159200, Note_on_c, 4, 59, 80
5, 159200, Note_on_c, 4, 62, 80
5, 159325, Note_on_c, 4, 62, 0
5, 159325, Note_on_c, 4, 59, 0
5, 159325, Note_on_c, 4, 57, 0
5, 159360, Note_on_c, 4, 60, 80
5, 159612, Note_on_c, 4, 60, 0
5, 159680, Note_on_c, 4, 64, 80
5, 159680, Note_on_c, 4, 67, 80
5, 159680, Note_on_c, 4, 72, 80
5, 159805, Note_on_c, 4, 72, 0
5, 159805, Note_on_c, 4, 67, 0
5, 159805, Note_on_c, 4, 64, 0
5, 159840, Note_on_c, 4, 55, 80
5, 160092, Note_on_c, 4, 55, 0
5, 160160, Note_on_c, 4, 67, 80
5, 160160, Note_on_c, 4, 64, 80
5, 160160, Note_on_c, 4, 60, 80
5, 160285, Note_on_c, 4, 60, 0
5, 160285, Note_on_c, 4, 64, 0
5, 160285, Note_on_c, 4, 67, 0
5, 160320, Note_on_c, 4, 52, 80
5, 160572, Note_on_c, 4, 52, 0
5, 160640, Note_on_c, 4, 55, 80
5, 160640, Note_on_c, 4, 60, 80
5, 160640, Note_on_c, 4, 64, 80
5, 160765, Note_on_c, 4, 64, 0
5, 160765, Note_on_c, 4, 60, 0
5, 160765, Note_on_c, 4, 55, 0
5, 160800, Note_on_c, 4, 48, 80
5, 161052, Note_on_c, 4, 48, 0
5, 161120, Note_on_c, 4, 67, 80
5, 161120, Note_on_c, 4, 64, 80
5, 161120, Note_on_c, 4, 60, 80
5, 161275, Note_on_c, 4, 60, 0
5, 161275, Note_on_c, 4, 64, 0
5, 161275, Note_on_c, 4, 67, 0
5, 161280, Note_on_c, 4, 62, 80
5, 161280, Note_on_c, 4, 60, 80
5, 161280, Note_on_c, 4, 57, 80
5, 161280, Note_on_c, 4, 65, 80
5, 161532, Note_on_c, 4, 65, 0
5, 161532, Note_on_c, 4, 62, 0
5, 161532, Note_on_c, 4, 60, 0
5, 161532, Note_on_c, 4, 57, 0
5, 162240, Note_on_c, 4, 57, 80
5, 162492, Note_on_c, 4, 57, 0
5, 162560, Note_on_c, 4, 59, 80
5, 162560, Note_on_c, 4, 62, 80
5, 162560, Note_on_c, 4, 69, 80
5, 162685, Note_on_c, 4, 69, 0
5, 162685, Note_on_c, 4, 62, 0
5, 162685, Note_on_c, 4, 59, 0
5, 162720, Note_on_c, 4, 50, 80
5, 162972, Note_on_c, 4, 50, 0
5, 163040, Note_on_c, 4, 57, 80
5, 163040, Note_on_c, 4, 59, 80
5, 163040, Note_on_c, 4, 62, 80
5, 163165, Note_on_c, 4, 62, 0
5, 163165, Note_on_c, 4, 59, 0
5, 163165, Note_on_c, 4, 57, 0
5, 163200, Note_on_c, 4, 60, 80
5, 163452, Note_on_c, 4, 60, 0
5, 163520, Note_on_c, 4, 64, 80
5, 163520, Note_on_c, 4, 67, 80
5, 163520, Note_on_c, 4, 72, 80
5, 163645, Note_on_c, 4, 72, 0
5, 163645, Note_on_c, 4, 67, 0
5, 163645, Note_on_c, 4, 64, 0
5, 163680, Note_on_c, 4, 55, 80
5, 163932, Note_on_c, 4, 55, 0
5, 164000, Note_on_c, 4, 60, 80
5, 164000, Note_on_c, 4, 64, 80
5, 164000, Note_on_c, 4, 67, 80
5, 164125, Note_on_c, 4, 67, 0
5, 164125, Note_on_c, 4, 64, 0
5, 164125, Note_on_c, 4, 60, 0
5, 164160, Note_on_c, 4, 57, 80
5, 164412, Note_on_c, 4, 57, 0
5, 164480, Note_on_c, 4, 60, 80
5, 164480, Note_on_c, 4, 64, 80
5, 164480, Note_on_c, 4, 69, 80
5, 164605, Note_on_c, 4, 69, 0
5, 164605, Note_on_c, 4, 64, 0
5, 164605, Note_on_c, 4, 60, 0
5, 164640, Note_on_c, 4, 52, 80
5, 164892, Note_on_c, 4, 52, 0
5, 164960, Note_on_c, 4, 57, 80
5, 164960, Note_on_c, 4, 60, 80
5, 164960, Note_on_c, 4, 64, 80
5, 165085, Note_on_c, 4, 64, 0
5, 165085, Note_on_c, 4, 60, 0
5, 165085, Note_on_c, 4, 57, 0
5, 165120, Note_on_c, 4, 62, 80
5, 165372, Note_on_c, 4, 62, 0
5, 165440, Note_on_c, 4, 65, 80
5, 165440, Note_on_c, 4, 69, 80
5, 165440, Note_on_c, 4, 74, 80
5, 165565, Note_on_c, 4, 74, 0
5, 165565, Note_on_c, 4, 69, 0
5, 165565, Note_on_c, 4, 65, 0
5, 165600, Note_on_c, 4, 57, 80
5, 165852, Note_on_c, 4, 57, 0
5, 165920, Note_on_c, 4, 62, 80
5, 165920, Note_on_c, 4, 65, 80
5, 165920, Note_on_c, 4, 69, 80
5, 166045, Note_on_c, 4, 69, 0
5, 166045, Note_on_c, 4, 65, 0
5, 166045, Note_on_c, 4, 62, 0
5, 166080, Note_on_c, 4, 59, 80
5, 166080, Note_on_c, 4, 57, 80
5, 166080, Note_on_c, 4, 53, 80
5, 166080, Note_on_c, 4, 62, 80
5, 166332, Note_on_c, 4, 62, 0
5, 166332, Note_on_c, 4, 59, 0
5, 166332, Note_on_c, 4, 57, 0
5, 166332, Note_on_c, 4, 53, 0
5, 167040, Note_on_c, 4, 45, 80
5, 167292, Note_on_c, 4, 45, 0
5, 167360, Note_on_c, 4, 64, 80
5, 167360, Note_on_c, 4, 60, 80
5, 167360, Note_on_c, 4, 57, 80
5, 167485, Note_on_c, 4, 57, 0
5, 167485, Note_on_c, 4, 60, 0
5, 167485, Note_on_c, 4, 64, 0
5, 167520, Note_on_c, 4, 48, 80
5, 167772, Note_on_c, 4, 48, 0
5, 167840, Note_on_c, 4, 64, 80
5, 167840, Note_on_c, 4, 60, 80
5, 167840, Note_on_c, 4, 57, 80
5, 167965, Note_on_c, 4, 57, 0
5, 167965, Note_on_c, 4, 60, 0
5, 167965, Note_on_c, 4, 64, 0
5, 168000, Note_on_c, 4, 52, 80
5, 168252, Note_on_c, 4, 52, 0
5, 168320, Note_on_c, 4, 64, 80
5, 168320, Note_on_c, 4, 60, 80
5, 168320, Note_on_c, 4, 57, 80
5, 168445, Note_on_c, 4, 57, 0
5, 168445, Note_on_c, 4, 60, 0
5, 168445, Note_on_c, 4, 64, 0
5, 168480, Note_on_c, 4, 45, 80
5, 168732, Note_on_c, 4, 45, 0
5, 168800, Note_on_c, 4, 64, 80
5, 168800, Note_on_c, 4, 60, 80
5, 168800, Note_on_c, 4, 57, 80
5, 168955, Note_on_c, 4, 57, 0
5, 168955, Note_on_c, 4, 60, 0
5, 168955, Note_on_c, 4, 64, 0
5, 168960, Note_on_c, 4, 53, 80
5, 169212, Note_on_c, 4, 53, 0
5, 169280, Note_on_c, 4, 57, 80
5, 169280, Note_on_c, 4, 60, 80
5, 169280, Note_on_c, 4, 67, 80
5, 169405, Note_on_c, 4, 67, 0
5, 169405, Note_on_c, 4, 60, 0
5, 169405, Note_on_c, 4, 57, 0
5, 169440, Note_on_c, 4, 48, 80
5, 169692, Note_on_c, 4, 48, 0
5, 169760, Note_on_c, 4, 53, 80
5, 169760, Note_on_c, 4, 57, 80
5, 169760, Note_on_c, 4, 60, 80
5, 169885, Note_on_c, 4, 60, 0
5, 169885, Note_on_c, 4, 57, 0
5, 169885, Note_on_c, 4, 53, 0
5, 169920, Note_on_c, 4, 60, 80
5, 169920, Note_on_c, 4, 57, 80
5, 169920, Note_on_c, 4, 55, 80
5, 169920, Note_on_c, 4, 64, 80
5, 170172, Note_on_c, 4, 64, 0
5, 170172, Note_on_c, 4, 60, 0
5, 170172, Note_on_c, 4, 57, 0
5, 170172, Note_on_c, 4, 55, 0
5, 170880, Note_on_c, 4, 64, 80
5, 171132, Note_on_c, 4, 64, 0
5, 171200, Note_on_c, 4, 66, 80
5, 171200, Note_on_c, 4, 69, 80
5, 171200, Note_on_c, 4, 76, 80
5, 171325, Note_on_c, 4, 76, 0
5, 171325, Note_on_c, 4, 69, 0
5, 171325, Note_on_c, 4, 66, 0
5, 171360, Note_on_c, 4, 57, 80
5, 171612, Note_on_c, 4, 57, 0
5, 171680, Note_on_c, 4, 64, 80
5, 171680, Note_on_c, 4, 66, 80
5, 171680, Note_on_c, 4, 69, 80
5, 171805, Note_on_c, 4, 69, 0
5, 171805, Note_on_c, 4, 66, 0
5, 171805, Note_on_c, 4, 64, 0
5, 171840, Note_on_c, 4, 64, 80
5, 171840, Note_on_c, 4, 60, 80
5, 171840, Note_on_c, 4, 58, 80
5, 171840, Note_on_c, 4, 66, 80
5, 172092, Note_on_c, 4, 66, 0
5, 172092, Note_on_c, 4, 64, 0
5, 172092, Note_on_c, 4, 60, 0
5, 172092, Note_on_c, 4, 58, 0
5, 172800, Note_on_c, 4, 62, 80
5, 173052, Note_on_c, 4, 62, 0
5, 173120, Note_on_c, 4, 65, 80
5, 173120, Note_on_c, 4, 69, 80
5, 173120, Note_on_c, 4, 74, 80
5, 173245, Note_on_c, 4, 74, 0
5, 173245, Note_on_c, 4, 69, 0
5, 173245, Note_on_c, 4, 65, 0
5, 173280, Note_on_c, 4, 57, 80
5, 173532, Note_on_c, 4, 57, 0
5, 173600, Note_on_c, 4, 62, 80
5, 173600, Note_on_c, 4, 65, 80
5, 173600, Note_on_c, 4, 69, 80
5, 173725, Note_on_c, 4, 69, 0
5, 173725, Note_on_c, 4, 65, 0
5, 173725, Note_on_c, 4, 62, 0
5, 173760, Note_on_c, 4, 57, 80
5, 174012, Note_on_c, 4, 57, 0
5, 174080, Note_on_c, 4, 59, 80
5, 174080, Note_on_c, 4, 62, 80
5, 174080, Note_on_c, 4, 69, 80
5, 174205, Note_on_c, 4, 69, 0
5, 174205, Note_on_c, 4, 62, 0
5, 174205, Note_on_c, 4, 59, 0
5, 174240, Note_on_c, 4, 50, 80
5, 174492, Note_on_c, 4, 50, 0
5, 174560, Note_on_c, 4, 57, 80
5, 174560, Note_on_c, 4, 59, 80
5, 174560, Note_on_c, 4, 62, 80
5, 174685, Note_on_c, 4, 62, 0
5, 174685, Note_on_c, 4, 59, 0
5, 174685, Note_on_c, 4, 57, 0
5, 174720, Note_on_c, 4, 62, 80
5, 174972, Note_on_c, 4, 62, 0
5, 175040, Note_on_c, 4, 64, 80
5, 175040, Note_on_c, 4, 67, 80
5, 175040, Note_on_c, 4, 74, 80
5, 175165, Note_on_c, 4, 74, 0
5, 175165, Note_on_c, 4, 67, 0
5, 175165, Note_on_c, 4, 64, 0
5, 175200, Note_on_c, 4, 55, 80
5, 175452, Note_on_c, 4, 55, 0
5, 175520, Note_on_c, 4, 67, 80
5, 175520, Note_on_c, 4, 64, 80
5, 175520, Note_on_c, 4, 62, 80
5, 175645, Note_on_c, 4, 62, 0
5, 175645, Note_on_c, 4, 64, 0
5, 175645, Note_on_c, 4, 67, 0
5, 175680, Note_on_c, 4, 52, 80
5, 175932, Note_on_c, 4, 52, 0
5, 176000, Note_on_c, 4, 55, 80
5, 176000, Note_on_c, 4, 62, 80
5, 176000, Note_on_c, 4, 64, 80
5, 176125, Note_on_c, 4, 64, 0
5, 176125, Note_on_c, 4, 62, 0
5, 176125, Note_on_c, 4, 55, 0
5, 176160, Note_on_c, 4, 48, 80
5, 176412, Note_on_c, 4, 48, 0
5, 176480, Note_on_c, 4, 67, 80
5, 176480, Note_on_c, 4, 64, 80
5, 176480, Note_on_c, 4, 62, 80
5, 176635, Note_on_c, 4, 62, 0
5, 176635, Note_on_c, 4, 64, 0
5, 176635, Note_on_c, 4, 67, 0
5, 176640, Note_on_c, 4, 53, 80
5, 176892, Note_on_c, 4, 53, 0
5, 176960, Note_on_c, 4, 57, 80
5, 176960, Note_on_c, 4, 60, 80
5, 176960, Note_on_c, 4, 65, 80
5, 177085, Note_on_c, 4, 65, 0
5, 177085, Note_on_c, 4, 60, 0
5, 177085, Note_on_c, 4, 57, 0
5, 177120, Note_on_c, 4, 48, 80
5, 177372, Note_on_c, 4, 48, 0
5, 177440, Note_on_c, 4, 53, 80
5, 177440, Note_on_c, 4, 57, 80
5, 177440, Note_on_c, 4, 60, 80
5, 177565, Note_on_c, 4, 60, 0
5, 177565, Note_on_c, 4, 57, 0
5, 177565, Note_on_c, 4, 53, 0
5, 177600, Note_on_c, 4, 63, 80
5, 177600, Note_on_c, 4, 60, 80
5, 177600, Note_on_c, 4, 57, 80
5, 177600, Note_on_c, 4, 66, 80
5, 177852, Note_on_c, 4, 66, 0
5, 177852, Note_on_c, 4, 63, 0
5, 177852, Note_on_c, 4, 60, 0
5, 177852, Note_on_c, 4, 57, 0
5, 178560, Note_on_c, 4, 60, 80
5, 178560, Note_on_c, 4, 57, 80
5, 178560, Note_on_c, 4, 55, 80
5, 178560, Note_on_c, 4, 64, 80
5, 178812, Note_on_c, 4, 64, 0
5, 178812, Note_on_c, 4, 60, 0
5, 178812, Note_on_c, 4, 57, 0
5, 178812, Note_on_c, 4, 55, 0
5, 179040, Note_on_c, 4, 60, 80
5, 179292, Note_on_c, 4, 60, 0
5, 179360, Note_on_c, 4, 64, 80
5, 179360, Note_on_c, 4, 67, 80
5, 179360, Note_on_c, 4, 72, 80
5, 179485, Note_on_c, 4, 72, 0
5, 179485, Note_on_c, 4, 67, 0
5, 179485, Note_on_c, 4, 64, 0
5, 179520, Note_on_c, 4, 60, 80
5, 179520, Note_on_c, 4, 57, 80
5, 179520, Note_on_c, 4, 52, 80
5, 179772, Note_on_c, 4, 52, 0
5, 179772, Note_on_c, 4, 57, 0
5, 179772, Note_on_c, 4, 60, 0
5, 180000, Note_on_c, 4, 57, 80
5, 180252, Note_on_c, 4, 57, 0
5, 180320, Note_on_c, 4, 60, 80
5, 180320, Note_on_c, 4, 64, 80
5, 180320, Note_on_c, 4, 69, 80
5, 180445, Note_on_c, 4, 69, 0
5, 180445, Note_on_c, 4, 64, 0
5, 180445, Note_on_c, 4, 60, 0
5, 180480, Note_on_c, 4, 64, 80
5, 180732, Note_on_c, 4, 64, 0
5, 180800, Note_on_c, 4, 66, 80
5, 180800, Note_on_c, 4, 69, 80
5, 180800, Note_on_c, 4, 76, 80
5, 180925, Note_on_c, 4, 76, 0
5, 180925, Note_on_c, 4, 69, 0
5, 180925, Note_on_c, 4, 66, 0
5, 180960, Note_on_c, 4, 57, 80
5, 181212, Note_on_c, 4, 57, 0
5, 181280, Note_on_c, 4, 64, 80
5, 181280, Note_on_c, 4, 66, 80
5, 181280, Note_on_c, 4, 69, 80
5, 181405, Note_on_c, 4, 69, 0
5, 181405, Note_on_c, 4, 66, 0
5, 181405, Note_on_c, 4, 64, 0
5, 181440, Note_on_c, 4, 53, 80
5, 181692, Note_on_c, 4, 53, 0
5, 181760, Note_on_c, 4, 56, 80
5, 181760, Note_on_c, 4, 60, 80
5, 181760, Note_on_c, 4, 65, 80
5, 181885, Note_on_c, 4, 65, 0
5, 181885, Note_on_c, 4, 60, 0
5, 181885, Note_on_c, 4, 56, 0
5, 181920, Note_on_c, 4, 48, 80
5, 182172, Note_on_c, 4, 48, 0
5, 182240, Note_on_c, 4, 53, 80
5, 182240, Note_on_c, 4, 56, 80
5, 182240, Note_on_c, 4, 60, 80
5, 182365, Note_on_c, 4, 60, 0
5, 182365, Note_on_c, 4, 56, 0
5, 182365, Note_on_c, 4, 53, 0
5, 182400, Note_on_c, 4, 52, 80
5, 182652, Note_on_c, 4, 52, 0
5, 182720, Note_on_c, 4, 55, 80
5, 182720, Note_on_c, 4, 59, 80
5, 182720, Note_on_c, 4, 64, 80
5, 182845, Note_on_c, 4, 64, 0
5, 182845, Note_on_c, 4, 59, 0
5, 182845, Note_on_c, 4, 55, 0
5, 182880, Note_on_c, 4, 47, 80
5, 183132, Note_on_c, 4, 47, 0
5, 183200, Note_on_c, 4, 52, 80
5, 183200, Note_on_c, 4, 55, 80
5, 183200, Note_on_c, 4, 59, 80
5, 183325, Note_on_c, 4, 59, 0
5, 183325, Note_on_c, 4, 55, 0
5, 183325, Note_on_c, 4, 52, 0
5, 183360, Note_on_c, 4, 57, 80
5, 183612, Note_on_c, 4, 57, 0
5, 183680, Note_on_c, 4, 60, 80
5, 183680, Note_on_c, 4, 64, 80
5, 183680, Note_on_c, 4, 69, 80
5, 183805, Note_on_c, 4, 69, 0
5, 183805, Note_on_c, 4, 64, 0
5, 183805, Note_on_c, 4, 60, 0
5, 183840, Note_on_c, 4, 52, 80
5, 184092, Note_on_c, 4, 52, 0
5, 184160, Note_on_c, 4, 57, 80
5, 184160, Note_on_c, 4, 60, 80
5, 184160, Note_on_c, 4, 64, 80
5, 184285, Note_on_c, 4, 64, 0
5, 184285, Note_on_c, 4, 60, 0
5, 184285, Note_on_c, 4, 57, 0
5, 184320, Note_on_c, 4, 62, 80
5, 184320, Note_on_c, 4, 60, 80
5, 184320, Note_on_c, 4, 57, 80
5, 184320, Note_on_c, 4, 65, 80
5, 184572, Note_on_c, 4, 65, 0
5, 184572, Note_on_c, 4, 62, 0
5, 184572, Note_on_c, 4, 60, 0
5, 184572, Note_on_c, 4, 57, 0
5, 185280, Note_on_c, 4, 59, 80
5, 185280, Note_on_c, 4, 57, 80
5, 185280, Note_on_c, 4, 53, 80
5, 185280, Note_on_c, 4, 62, 80
5, 185532, Note_on_c, 4, 62, 0
5, 185532, Note_on_c, 4, 59, 0
5, 185532, Note_on_c, 4, 57, 0
5, 185532, Note_on_c, 4, 53, 0
5, 186240, Note_on_c, 4, 60, 80
5, 186492, Note_on_c, 4, 60, 0
5, 186560, Note_on_c, 4, 64, 80
5, 186560, Note_on_c, 4, 67, 80
5, 186560, Note_on_c, 4, 72, 80
5, 186685, Note_on_c, 4, 72, 0
5, 186685, Note_on_c, 4, 67, 0
5, 186685, Note_on_c, 4, 64, 0
5, 186720, Note_on_c, 4, 55, 80
5, 186972, Note_on_c, 4, 55, 0
5, 187040, Note_on_c, 4, 60, 80
5, 187040, Note_on_c, 4, 64, 80
5, 187040, Note_on_c, 4, 67, 80
5, 187165, Note_on_c, 4, 67, 0
5, 187165, Note_on_c, 4, 64, 0
5, 187165, Note_on_c, 4, 60, 0
5, 187200, Note_on_c, 4, 62, 80
5, 187200, Note_on_c, 4, 60, 80
5, 187200, Note_on_c, 4, 57, 80
5, 187200, Note_on_c, 4, 65, 80
5, 187452, Note_on_c, 4, 65, 0
5, 187452, Note_on_c, 4, 62, 0
5, 187452, Note_on_c, 4, 60, 0
5, 187452, Note_on_c, 4, 57, 0
5, 188160, Note_on_c, 4, 64, 80
5, 188160, Note_on_c, 4, 60, 80
5, 188160, Note_on_c, 4, 57, 80
5, 188160, Note_on_c, 4, 67, 80
5, 188412, Note_on_c, 4, 67, 0
5, 188412, Note_on_c, 4, 64, 0
5, 188412, Note_on_c, 4, 60, 0
5, 188412, Note_on_c, 4, 57, 0
5, 189120, Note_on_c, 4, 57, 80
5, 189372, Note_on_c, 4, 57, 0
5, 189440, Note_on_c, 4, 59, 80
5, 189440, Note_on_c, 4, 62, 80
5, 189440, Note_on_c, 4, 69, 80
5, 189565, Note_on_c, 4, 69, 0
5, 189565, Note_on_c, 4, 62, 0
5, 189565, Note_on_c, 4, 59, 0
5, 189600, Note_on_c, 4, 50, 80
5, 189852, Note_on_c, 4, 50, 0
5, 189920, Note_on_c, 4, 57, 80
5, 189920, Note_on_c, 4, 59, 80
5, 189920, Note_on_c, 4, 62, 80
5, 190045, Note_on_c, 4, 62, 0
5, 190045, Note_on_c, 4, 59, 0
5, 190045, Note_on_c, 4, 57, 0
5, 190080, Note_on_c, 4, 74, 80
5, 190080, Note_on_c, 4, 62, 80
5, 190455, Note_on_c, 4, 62, 0
5, 190455, Note_on_c, 4, 74, 0
5, 190560, Note_on_c, 4, 69, 80
5, 190560, Note_on_c, 4, 57, 80
5, 190935, Note_on_c, 4, 57, 0
5, 190935, Note_on_c, 4, 69, 0
5, 191040, Note_on_c, 4, 67, 80
5, 191040, Note_on_c, 4, 55, 80
5, 191415, Note_on_c, 4, 55, 0
5, 191415, Note_on_c, 4, 67, 0
5, 191520, Note_on_c, 4, 64, 80
5, 191520, Note_on_c, 4, 52, 80
5, 191895, Note_on_c, 4, 52, 0
5, 191895, Note_on_c, 4, 64, 0
5, 192000, Note_on_c, 4, 62, 80
5, 192000, Note_on_c, 4, 48, 80
5, 192375, Note_on_c, 4, 48, 0
5, 192752, Note_on_c, 4, 62, 0
5, 192960, Note_on_c, 4, 74, 80
5, 192960, Note_on_c, 4, 67, 80
5, 192960, Note_on_c, 4, 64, 80
5, 192960, Note_on_c, 4, 62, 80
5, 193900, Note_on_c, 4, 62, 0
5, 193900, Note_on_c, 4, 74, 0
5, 193900, Note_on_c, 4, 67, 0
5, 193900, Note_on_c, 4, 64, 0
5, 193920, Control_c, 4, 64, 0
5, 193920, End_track
6, 0, Start_track
6, 0, MIDI_port, 0
6, 0, Title_t, "Guitar"
6, 0, Control_c, 5, 123, 0
6, 0, Control_c, 5, 64, 0
6, 505, Control_c, 5, 0, 0
6, 506, Control_c, 5, 32, 0
6, 507, Program_c, 5, 28
6, 508, Control_c, 5, 7, 77
6, 508, Control_c, 5, 10, 64
6, 550, Control_c, 5, 10, 64
6, 5760, Note_on_c, 5, 55, 40
6, 5760, Note_on_c, 5, 52, 40
6, 5760, Note_on_c, 5, 48, 40
6, 6135, Note_on_c, 5, 48, 0
6, 6512, Note_on_c, 5, 52, 0
6, 6512, Note_on_c, 5, 55, 0
6, 6720, Note_on_c, 5, 55, 40
6, 6720, Note_on_c, 5, 52, 45
6, 6720, Note_on_c, 5, 48, 40
6, 7095, Note_on_c, 5, 48, 0
6, 7472, Note_on_c, 5, 52, 0
6, 7472, Note_on_c, 5, 55, 0
6, 7680, Note_on_c, 5, 55, 40
6, 7680, Note_on_c, 5, 52, 40
6, 7680, Note_on_c, 5, 48, 40
6, 8055, Note_on_c, 5, 48, 0
6, 8432, Note_on_c, 5, 52, 0
6, 8432, Note_on_c, 5, 55, 0
6, 8640, Note_on_c, 5, 55, 40
6, 8640, Note_on_c, 5, 52, 40
6, 8640, Note_on_c, 5, 48, 40
6, 9015, Note_on_c, 5, 48, 0
6, 9392, Note_on_c, 5, 52, 0
6, 9392, Note_on_c, 5, 55, 0
6, 9600, Note_on_c, 5, 48, 40
6, 9600, Note_on_c, 5, 45, 40
6, 9600, Note_on_c, 5, 41, 40
6, 9975, Note_on_c, 5, 41, 0
6, 10352, Note_on_c, 5, 45, 0
6, 10352, Note_on_c, 5, 48, 0
6, 10560, Note_on_c, 5, 48, 40
6, 10560, Note_on_c, 5, 45, 45
6, 10560, Note_on_c, 5, 41, 40
6, 10935, Note_on_c, 5, 41, 0
6, 11312, Note_on_c, 5, 45, 0
6, 11312, Note_on_c, 5, 48, 0
6, 11520, Note_on_c, 5, 57, 40
6, 11520, Note_on_c, 5, 53, 40
6, 11520, Note_on_c, 5, 50, 40
6, 11895, Note_on_c, 5, 50, 0
6, 12272, Note_on_c, 5, 53, 0
6, 12272, Note_on_c, 5, 57, 0
6, 12480, Note_on_c, 5, 50, 40
6, 12480, Note_on_c, 5, 47, 40
6, 12480, Note_on_c, 5, 43, 40
6, 12855, Note_on_c, 5, 43, 0
6, 13232, Note_on_c, 5, 47, 0
6, 13232, Note_on_c, 5, 50, 0
6, 13440, Note_on_c, 5, 47, 40
6, 13440, Note_on_c, 5, 43, 40
6, 13440, Note_on_c, 5, 40, 40
6, 13815, Note_on_c, 5, 40, 0
6, 14192, Note_on_c, 5, 43, 0
6, 14192, Note_on_c, 5, 47, 0
6, 14400, Note_on_c, 5, 47, 40
6, 14400, Note_on_c, 5, 43, 45
6, 14400, Note_on_c, 5, 40, 40
6, 14775, Note_on_c, 5, 40, 0
6, 15152, Note_on_c, 5, 43, 0
6, 15152, Note_on_c, 5, 47, 0
6, 15360, Note_on_c, 5, 52, 40
6, 15360, Note_on_c, 5, 48, 40
6, 15360, Note_on_c, 5, 45, 40
6, 15735, Note_on_c, 5, 45, 0
6, 16112, Note_on_c, 5, 48, 0
6, 16112, Note_on_c, 5, 52, 0
6, 16320, Note_on_c, 5, 52, 40
6, 16320, Note_on_c, 5, 48, 45
6, 16320, Note_on_c, 5, 45, 40
6, 16695, Note_on_c, 5, 45, 0
6, 17072, Note_on_c, 5, 48, 0
6, 17072, Note_on_c, 5, 52, 0
6, 17280, Note_on_c, 5, 57, 40
6, 17280, Note_on_c, 5, 54, 40
6, 17280, Note_on_c, 5, 50, 40
6, 17655, Note_on_c, 5, 50, 0
6, 18032, Note_on_c, 5, 54, 0
6, 18032, Note_on_c, 5, 57, 0
6, 18240, Note_on_c, 5, 58, 40
6, 18240, Note_on_c, 5, 54, 40
6, 18240, Note_on_c, 5, 50, 40
6, 18615, Note_on_c, 5, 50, 0
6, 18992, Note_on_c, 5, 54, 0
6, 18992, Note_on_c, 5, 58, 0
6, 19200, Note_on_c, 5, 57, 40
6, 19200, Note_on_c, 5, 53, 40
6, 19200, Note_on_c, 5, 50, 40
6, 19575, Note_on_c, 5, 50, 0
6, 19952, Note_on_c, 5, 53, 0
6, 19952, Note_on_c, 5, 57, 0
6, 20160, Note_on_c, 5, 50, 40
6, 20160, Note_on_c, 5, 47, 40
6, 20160, Note_on_c, 5, 43, 40
6, 20535, Note_on_c, 5, 43, 0
6, 20912, Note_on_c, 5, 47, 0
6, 20912, Note_on_c, 5, 50, 0
6, 21120, Note_on_c, 5, 55, 40
6, 21120, Note_on_c, 5, 52, 40
6, 21120, Note_on_c, 5, 48, 40
6, 21495, Note_on_c, 5, 48, 0
6, 21872, Note_on_c, 5, 52, 0
6, 21872, Note_on_c, 5, 55, 0
6, 22080, Note_on_c, 5, 55, 40
6, 22080, Note_on_c, 5, 52, 45
6, 22080, Note_on_c, 5, 48, 40
6, 22455, Note_on_c, 5, 48, 0
6, 22832, Note_on_c, 5, 52, 0
6, 22832, Note_on_c, 5, 55, 0
6, 23040, Note_on_c, 5, 55, 40
6, 23040, Note_on_c, 5, 52, 40
6, 23040, Note_on_c, 5, 48, 40
6, 23415, Note_on_c, 5, 48, 0
6, 23792, Note_on_c, 5, 52, 0
6, 23792, Note_on_c, 5, 55, 0
6, 24000, Note_on_c, 5, 55, 40
6, 24000, Note_on_c, 5, 52, 40
6, 24000, Note_on_c, 5, 48, 40
6, 24375, Note_on_c, 5, 48, 0
6, 24752, Note_on_c, 5, 52, 0
6, 24752, Note_on_c, 5, 55, 0
6, 24960, Note_on_c, 5, 48, 40
6, 24960, Note_on_c, 5, 45, 40
6, 24960, Note_on_c, 5, 41, 40
6, 25335, Note_on_c, 5, 41, 0
6, 25712, Note_on_c, 5, 45, 0
6, 25712, Note_on_c, 5, 48, 0
6, 25920, Note_on_c, 5, 48, 40
6, 25920, Note_on_c, 5, 45, 45
6, 25920, Note_on_c, 5, 41, 40
6, 26295, Note_on_c, 5, 41, 0
6, 26672, Note_on_c, 5, 45, 0
6, 26672, Note_on_c, 5, 48, 0
6, 26880, Note_on_c, 5, 57, 40
6, 26880, Note_on_c, 5, 53, 40
6, 26880, Note_on_c, 5, 50, 40
6, 27255, Note_on_c, 5, 50, 0
6, 27632, Note_on_c, 5, 53, 0
6, 27632, Note_on_c, 5, 57, 0
6, 27840, Note_on_c, 5, 50, 40
6, 27840, Note_on_c, 5, 47, 40
6, 27840, Note_on_c, 5, 43, 40
6, 28215, Note_on_c, 5, 43, 0
6, 28592, Note_on_c, 5, 47, 0
6, 28592, Note_on_c, 5, 50, 0
6, 28800, Note_on_c, 5, 47, 40
6, 28800, Note_on_c, 5, 43, 40
6, 28800, Note_on_c, 5, 40, 40
6, 29175, Note_on_c, 5, 40, 0
6, 29552, Note_on_c, 5, 43, 0
6, 29552, Note_on_c, 5, 47, 0
6, 29760, Note_on_c, 5, 52, 40
6, 29760, Note_on_c, 5, 49, 40
6, 29760, Note_on_c, 5, 45, 40
6, 30135, Note_on_c, 5, 45, 0
6, 30512, Note_on_c, 5, 49, 0
6, 30512, Note_on_c, 5, 52, 0
6, 30720, Note_on_c, 5, 57, 40
6, 30720, Note_on_c, 5, 53, 40
6, 30720, Note_on_c, 5, 50, 40
6, 31095, Note_on_c, 5, 50, 0
6, 31472, Note_on_c, 5, 53, 0
6, 31472, Note_on_c, 5, 57, 0
6, 31680, Note_on_c, 5, 50, 40
6, 31680, Note_on_c, 5, 47, 40
6, 31680, Note_on_c, 5, 43, 40
6, 32055, Note_on_c, 5, 43, 0
6, 32432, Note_on_c, 5, 47, 0
6, 32432, Note_on_c, 5, 50, 0
6, 32640, Note_on_c, 5, 55, 40
6, 32640, Note_on_c, 5, 52, 40
6, 32640, Note_on_c, 5, 48, 40
6, 33015, Note_on_c, 5, 48, 0
6, 33392, Note_on_c, 5, 52, 0
6, 33392, Note_on_c, 5, 55, 0
6, 33600, Note_on_c, 5, 48, 40
6, 33600, Note_on_c, 5, 45, 40
6, 33600, Note_on_c, 5, 41, 40
6, 33975, Note_on_c, 5, 41, 0
6, 34352, Note_on_c, 5, 45, 0
6, 34352, Note_on_c, 5, 48, 0
6, 34560, Note_on_c, 5, 55, 40
6, 34560, Note_on_c, 5, 52, 40
6, 34560, Note_on_c, 5, 48, 40
6, 34935, Note_on_c, 5, 48, 0
6, 35312, Note_on_c, 5, 52, 0
6, 35312, Note_on_c, 5, 55, 0
6, 35520, Note_on_c, 5, 50, 40
6, 35520, Note_on_c, 5, 47, 40
6, 35520, Note_on_c, 5, 43, 40
6, 35895, Note_on_c, 5, 43, 0
6, 36272, Note_on_c, 5, 47, 0
6, 36272, Note_on_c, 5, 50, 0
6, 36480, Note_on_c, 5, 55, 40
6, 36480, Note_on_c, 5, 52, 40
6, 36480, Note_on_c, 5, 48, 40
6, 36855, Note_on_c, 5, 48, 0
6, 37232, Note_on_c, 5, 52, 0
6, 37232, Note_on_c, 5, 55, 0
6, 37440, Note_on_c, 5, 55, 40
6, 37440, Note_on_c, 5, 52, 45
6, 37440, Note_on_c, 5, 48, 40
6, 37815, Note_on_c, 5, 48, 0
6, 38192, Note_on_c, 5, 52, 0
6, 38192, Note_on_c, 5, 55, 0
6, 38400, Note_on_c, 5, 48, 40
6, 38400, Note_on_c, 5, 45, 40
6, 38400, Note_on_c, 5, 41, 40
6, 38775, Note_on_c, 5, 41, 0
6, 39152, Note_on_c, 5, 45, 0
6, 39152, Note_on_c, 5, 48, 0
6, 39360, Note_on_c, 5, 50, 40
6, 39360, Note_on_c, 5, 47, 40
6, 39360, Note_on_c, 5, 43, 40
6, 39735, Note_on_c, 5, 43, 0
6, 40112, Note_on_c, 5, 47, 0
6, 40112, Note_on_c, 5, 50, 0
6, 40320, Note_on_c, 5, 55, 40
6, 40320, Note_on_c, 5, 52, 40
6, 40320, Note_on_c, 5, 48, 40
6, 40695, Note_on_c, 5, 48, 0
6, 41072, Note_on_c, 5, 52, 0
6, 41072, Note_on_c, 5, 55, 0
6, 41280, Note_on_c, 5, 52, 40
6, 41280, Note_on_c, 5, 48, 40
6, 41280, Note_on_c, 5, 45, 40
6, 41655, Note_on_c, 5, 45, 0
6, 42032, Note_on_c, 5, 48, 0
6, 42032, Note_on_c, 5, 52, 0
6, 42240, Note_on_c, 5, 57, 40
6, 42240, Note_on_c, 5, 53, 40
6, 42240, Note_on_c, 5, 50, 40
6, 42615, Note_on_c, 5, 50, 0
6, 42992, Note_on_c, 5, 53, 0
6, 42992, Note_on_c, 5, 57, 0
6, 43200, Note_on_c, 5, 50, 40
6, 43200, Note_on_c, 5, 47, 40
6, 43200, Note_on_c, 5, 43, 40
6, 43575, Note_on_c, 5, 43, 0
6, 43952, Note_on_c, 5, 47, 0
6, 43952, Note_on_c, 5, 50, 0
6, 44160, Note_on_c, 5, 52, 40
6, 44160, Note_on_c, 5, 48, 40
6, 44160, Note_on_c, 5, 45, 40
6, 44535, Note_on_c, 5, 45, 0
6, 44912, Note_on_c, 5, 48, 0
6, 44912, Note_on_c, 5, 52, 0
6, 45120, Note_on_c, 5, 52, 40
6, 45120, Note_on_c, 5, 48, 45
6, 45120, Note_on_c, 5, 45, 40
6, 45495, Note_on_c, 5, 45, 0
6, 45872, Note_on_c, 5, 48, 0
6, 45872, Note_on_c, 5, 52, 0
6, 46080, Note_on_c, 5, 48, 40
6, 46080, Note_on_c, 5, 45, 40
6, 46080, Note_on_c, 5, 41, 40
6, 46455, Note_on_c, 5, 41, 0
6, 46832, Note_on_c, 5, 45, 0
6, 46832, Note_on_c, 5, 48, 0
6, 47040, Note_on_c, 5, 52, 40
6, 47040, Note_on_c, 5, 48, 40
6, 47040, Note_on_c, 5, 45, 40
6, 47415, Note_on_c, 5, 45, 0
6, 47792, Note_on_c, 5, 48, 0
6, 47792, Note_on_c, 5, 52, 0
6, 48000, Note_on_c, 5, 57, 40
6, 48000, Note_on_c, 5, 54, 40
6, 48000, Note_on_c, 5, 50, 40
6, 48375, Note_on_c, 5, 50, 0
6, 48752, Note_on_c, 5, 54, 0
6, 48752, Note_on_c, 5, 57, 0
6, 48960, Note_on_c, 5, 58, 40
6, 48960, Note_on_c, 5, 54, 40
6, 48960, Note_on_c, 5, 50, 40
6, 49335, Note_on_c, 5, 50, 0
6, 49712, Note_on_c, 5, 54, 0
6, 49712, Note_on_c, 5, 58, 0
6, 49920, Note_on_c, 5, 57, 40
6, 49920, Note_on_c, 5, 53, 40
6, 49920, Note_on_c, 5, 50, 40
6, 50295, Note_on_c, 5, 50, 0
6, 50672, Note_on_c, 5, 53, 0
6, 50672, Note_on_c, 5, 57, 0
6, 50880, Note_on_c, 5, 50, 40
6, 50880, Note_on_c, 5, 47, 40
6, 50880, Note_on_c, 5, 43, 40
6, 51255, Note_on_c, 5, 43, 0
6, 51632, Note_on_c, 5, 47, 0
6, 51632, Note_on_c, 5, 50, 0
6, 51840, Note_on_c, 5, 55, 40
6, 51840, Note_on_c, 5, 52, 40
6, 51840, Note_on_c, 5, 48, 40
6, 52215, Note_on_c, 5, 48, 0
6, 52592, Note_on_c, 5, 52, 0
6, 52592, Note_on_c, 5, 55, 0
6, 52800, Note_on_c, 5, 55, 40
6, 52800, Note_on_c, 5, 52, 45
6, 52800, Note_on_c, 5, 48, 40
6, 53175, Note_on_c, 5, 48, 0
6, 53552, Note_on_c, 5, 52, 0
6, 53552, Note_on_c, 5, 55, 0
6, 53760, Note_on_c, 5, 48, 40
6, 53760, Note_on_c, 5, 45, 40
6, 53760, Note_on_c, 5, 41, 40
6, 54135, Note_on_c, 5, 41, 0
6, 54512, Note_on_c, 5, 45, 0
6, 54512, Note_on_c, 5, 48, 0
6, 54720, Note_on_c, 5, 48, 40
6, 54720, Note_on_c, 5, 45, 40
6, 54720, Note_on_c, 5, 42, 40
6, 55095, Note_on_c, 5, 42, 0
6, 55472, Note_on_c, 5, 45, 0
6, 55472, Note_on_c, 5, 48, 0
6, 55680, Note_on_c, 5, 55, 40
6, 55680, Note_on_c, 5, 52, 40
6, 55680, Note_on_c, 5, 48, 40
6, 56055, Note_on_c, 5, 48, 0
6, 56152, Note_on_c, 5, 52, 0
6, 56152, Note_on_c, 5, 55, 0
6, 56160, Note_on_c, 5, 55, 40
6, 56160, Note_on_c, 5, 52, 40
6, 56160, Note_on_c, 5, 47, 40
6, 56535, Note_on_c, 5, 47, 0
6, 56632, Note_on_c, 5, 52, 0
6, 56632, Note_on_c, 5, 55, 0
6, 56640, Note_on_c, 5, 52, 40
6, 56640, Note_on_c, 5, 48, 40
6, 56640, Note_on_c, 5, 45, 40
6, 57015, Note_on_c, 5, 45, 0
6, 57112, Note_on_c, 5, 48, 0
6, 57112, Note_on_c, 5, 52, 0
6, 57120, Note_on_c, 5, 52, 40
6, 57120, Note_on_c, 5, 48, 40
6, 57120, Note_on_c, 5, 43, 40
6, 57495, Note_on_c, 5, 43, 0
6, 57592, Note_on_c, 5, 48, 0
6, 57592, Note_on_c, 5, 52, 0
6, 57600, Note_on_c, 5, 57, 40
6, 57600, Note_on_c, 5, 54, 40
6, 57600, Note_on_c, 5, 42, 40
6, 57975, Note_on_c, 5, 42, 0
6, 58352, Note_on_c, 5, 54, 0
6, 58352, Note_on_c, 5, 57, 0
6, 58560, Note_on_c, 5, 48, 40
6, 58560, Note_on_c, 5, 44, 40
6, 58560, Note_on_c, 5, 41, 40
6, 58935, Note_on_c, 5, 41, 0
6, 59312, Note_on_c, 5, 44, 0
6, 59312, Note_on_c, 5, 48, 0
6, 59520, Note_on_c, 5, 47, 40
6, 59520, Note_on_c, 5, 43, 40
6, 59520, Note_on_c, 5, 40, 40
6, 59895, Note_on_c, 5, 40, 0
6, 60272, Note_on_c, 5, 43, 0
6, 60272, Note_on_c, 5, 47, 0
6, 60480, Note_on_c, 5, 52, 40
6, 60480, Note_on_c, 5, 48, 40
6, 60480, Note_on_c, 5, 45, 40
6, 60855, Note_on_c, 5, 45, 0
6, 61232, Note_on_c, 5, 48, 0
6, 61232, Note_on_c, 5, 52, 0
6, 61440, Note_on_c, 5, 57, 40
6, 61440, Note_on_c, 5, 53, 40
6, 61440, Note_on_c, 5, 50, 40
6, 61815, Note_on_c, 5, 50, 0
6, 62192, Note_on_c, 5, 53, 0
6, 62192, Note_on_c, 5, 57, 0
6, 62400, Note_on_c, 5, 50, 40
6, 62400, Note_on_c, 5, 47, 40
6, 62400, Note_on_c, 5, 43, 40
6, 62775, Note_on_c, 5, 43, 0
6, 63152, Note_on_c, 5, 47, 0
6, 63152, Note_on_c, 5, 50, 0
6, 63360, Note_on_c, 5, 55, 40
6, 63360, Note_on_c, 5, 52, 40
6, 63360, Note_on_c, 5, 48, 40
6, 63735, Note_on_c, 5, 48, 0
6, 64112, Note_on_c, 5, 52, 0
6, 64112, Note_on_c, 5, 55, 0
6, 64320, Note_on_c, 5, 48, 40
6, 64320, Note_on_c, 5, 45, 40
6, 64320, Note_on_c, 5, 41, 40
6, 64695, Note_on_c, 5, 41, 0
6, 65072, Note_on_c, 5, 45, 0
6, 65072, Note_on_c, 5, 48, 0
6, 65280, Note_on_c, 5, 55, 40
6, 65280, Note_on_c, 5, 52, 40
6, 65280, Note_on_c, 5, 48, 40
6, 65655, Note_on_c, 5, 48, 0
6, 66032, Note_on_c, 5, 52, 0
6, 66032, Note_on_c, 5, 55, 0
6, 66240, Note_on_c, 5, 50, 40
6, 66240, Note_on_c, 5, 47, 40
6, 66240, Note_on_c, 5, 43, 40
6, 66615, Note_on_c, 5, 43, 0
6, 66992, Note_on_c, 5, 47, 0
6, 66992, Note_on_c, 5, 50, 0
6, 67200, Note_on_c, 5, 55, 40
6, 67200, Note_on_c, 5, 52, 40
6, 67200, Note_on_c, 5, 48, 40
6, 67575, Note_on_c, 5, 48, 0
6, 67952, Note_on_c, 5, 52, 0
6, 67952, Note_on_c, 5, 55, 0
6, 68160, Note_on_c, 5, 55, 40
6, 68160, Note_on_c, 5, 52, 45
6, 68160, Note_on_c, 5, 48, 40
6, 68535, Note_on_c, 5, 48, 0
6, 68912, Note_on_c, 5, 52, 0
6, 68912, Note_on_c, 5, 55, 0
6, 69120, Note_on_c, 5, 55, 40
6, 69120, Note_on_c, 5, 52, 40
6, 69120, Note_on_c, 5, 48, 40
6, 69495, Note_on_c, 5, 48, 0
6, 69872, Note_on_c, 5, 52, 0
6, 69872, Note_on_c, 5, 55, 0
6, 70080, Note_on_c, 5, 55, 40
6, 70080, Note_on_c, 5, 52, 40
6, 70080, Note_on_c, 5, 48, 40
6, 70455, Note_on_c, 5, 48, 0
6, 70832, Note_on_c, 5, 52, 0
6, 70832, Note_on_c, 5, 55, 0
6, 71040, Note_on_c, 5, 48, 40
6, 71040, Note_on_c, 5, 45, 40
6, 71040, Note_on_c, 5, 41, 40
6, 71415, Note_on_c, 5, 41, 0
6, 71792, Note_on_c, 5, 45, 0
6, 71792, Note_on_c, 5, 48, 0
6, 72000, Note_on_c, 5, 48, 40
6, 72000, Note_on_c, 5, 45, 45
6, 72000, Note_on_c, 5, 41, 40
6, 72375, Note_on_c, 5, 41, 0
6, 72752, Note_on_c, 5, 45, 0
6, 72752, Note_on_c, 5, 48, 0
6, 72960, Note_on_c, 5, 57, 40
6, 72960, Note_on_c, 5, 53, 40
6, 72960, Note_on_c, 5, 50, 40
6, 73335, Note_on_c, 5, 50, 0
6, 73712, Note_on_c, 5, 53, 0
6, 73712, Note_on_c, 5, 57, 0
6, 73920, Note_on_c, 5, 50, 40
6, 73920, Note_on_c, 5, 47, 40
6, 73920, Note_on_c, 5, 43, 40
6, 74295, Note_on_c, 5, 43, 0
6, 74672, Note_on_c, 5, 47, 0
6, 74672, Note_on_c, 5, 50, 0
6, 74880, Note_on_c, 5, 47, 40
6, 74880, Note_on_c, 5, 43, 40
6, 74880, Note_on_c, 5, 40, 40
6, 75255, Note_on_c, 5, 40, 0
6, 75632, Note_on_c, 5, 43, 0
6, 75632, Note_on_c, 5, 47, 0
6, 75840, Note_on_c, 5, 47, 40
6, 75840, Note_on_c, 5, 43, 45
6, 75840, Note_on_c, 5, 40, 40
6, 76215, Note_on_c, 5, 40, 0
6, 76592, Note_on_c, 5, 43, 0
6, 76592, Note_on_c, 5, 47, 0
6, 76800, Note_on_c, 5, 52, 40
6, 76800, Note_on_c, 5, 48, 40
6, 76800, Note_on_c, 5, 45, 40
6, 77175, Note_on_c, 5, 45, 0
6, 77552, Note_on_c, 5, 48, 0
6, 77552, Note_on_c, 5, 52, 0
6, 77760, Note_on_c, 5, 52, 40
6, 77760, Note_on_c, 5, 48, 45
6, 77760, Note_on_c, 5, 45, 40
6, 78135, Note_on_c, 5, 45, 0
6, 78512, Note_on_c, 5, 48, 0
6, 78512, Note_on_c, 5, 52, 0
6, 78720, Note_on_c, 5, 57, 40
6, 78720, Note_on_c, 5, 54, 40
6, 78720, Note_on_c, 5, 50, 40
6, 79095, Note_on_c, 5, 50, 0
6, 79472, Note_on_c, 5, 54, 0
6, 79472, Note_on_c, 5, 57, 0
6, 79680, Note_on_c, 5, 58, 40
6, 79680, Note_on_c, 5, 54, 40
6, 79680, Note_on_c, 5, 50, 40
6, 80055, Note_on_c, 5, 50, 0
6, 80432, Note_on_c, 5, 54, 0
6, 80432, Note_on_c, 5, 58, 0
6, 80640, Note_on_c, 5, 57, 40
6, 80640, Note_on_c, 5, 53, 40
6, 80640, Note_on_c, 5, 50, 40
6, 81015, Note_on_c, 5, 50, 0
6, 81392, Note_on_c, 5, 53, 0
6, 81392, Note_on_c, 5, 57, 0
6, 81600, Note_on_c, 5, 50, 40
6, 81600, Note_on_c, 5, 47, 40
6, 81600, Note_on_c, 5, 43, 40
6, 81975, Note_on_c, 5, 43, 0
6, 82352, Note_on_c, 5, 47, 0
6, 82352, Note_on_c, 5, 50, 0
6, 82560, Note_on_c, 5, 55, 40
6, 82560, Note_on_c, 5, 52, 40
6, 82560, Note_on_c, 5, 48, 40
6, 82935, Note_on_c, 5, 48, 0
6, 83312, Note_on_c, 5, 52, 0
6, 83312, Note_on_c, 5, 55, 0
6, 83520, Note_on_c, 5, 55, 40
6, 83520, Note_on_c, 5, 52, 45
6, 83520, Note_on_c, 5, 48, 40
6, 83895, Note_on_c, 5, 48, 0
6, 84272, Note_on_c, 5, 52, 0
6, 84272, Note_on_c, 5, 55, 0
6, 84480, Note_on_c, 5, 55, 40
6, 84480, Note_on_c, 5, 52, 40
6, 84480, Note_on_c, 5, 48, 40
6, 84855, Note_on_c, 5, 48, 0
6, 85232, Note_on_c, 5, 52, 0
6, 85232, Note_on_c, 5, 55, 0
6, 85440, Note_on_c, 5, 55, 40
6, 85440, Note_on_c, 5, 52, 40
6, 85440, Note_on_c, 5, 48, 40
6, 85815, Note_on_c, 5, 48, 0
6, 86192, Note_on_c, 5, 52, 0
6, 86192, Note_on_c, 5, 55, 0
6, 86400, Note_on_c, 5, 48, 40
6, 86400, Note_on_c, 5, 45, 40
6, 86400, Note_on_c, 5, 41, 40
6, 86775, Note_on_c, 5, 41, 0
6, 87152, Note_on_c, 5, 45, 0
6, 87152, Note_on_c, 5, 48, 0
6, 87360, Note_on_c, 5, 48, 40
6, 87360, Note_on_c, 5, 45, 45
6, 87360, Note_on_c, 5, 41, 40
6, 87735, Note_on_c, 5, 41, 0
6, 88112, Note_on_c, 5, 45, 0
6, 88112, Note_on_c, 5, 48, 0
6, 88320, Note_on_c, 5, 57, 40
6, 88320, Note_on_c, 5, 53, 40
6, 88320, Note_on_c, 5, 50, 40
6, 88695, Note_on_c, 5, 50, 0
6, 89072, Note_on_c, 5, 53, 0
6, 89072, Note_on_c, 5, 57, 0
6, 89280, Note_on_c, 5, 50, 40
6, 89280, Note_on_c, 5, 47, 40
6, 89280, Note_on_c, 5, 43, 40
6, 89655, Note_on_c, 5, 43, 0
6, 90032, Note_on_c, 5, 47, 0
6, 90032, Note_on_c, 5, 50, 0
6, 90240, Note_on_c, 5, 47, 40
6, 90240, Note_on_c, 5, 43, 40
6, 90240, Note_on_c, 5, 40, 40
6, 90615, Note_on_c, 5, 40, 0
6, 90992, Note_on_c, 5, 43, 0
6, 90992, Note_on_c, 5, 47, 0
6, 91200, Note_on_c, 5, 52, 40
6, 91200, Note_on_c, 5, 49, 40
6, 91200, Note_on_c, 5, 45, 40
6, 91575, Note_on_c, 5, 45, 0
6, 91952, Note_on_c, 5, 49, 0
6, 91952, Note_on_c, 5, 52, 0
6, 92160, Note_on_c, 5, 57, 40
6, 92160, Note_on_c, 5, 53, 40
6, 92160, Note_on_c, 5, 50, 40
6, 92535, Note_on_c, 5, 50, 0
6, 92912, Note_on_c, 5, 53, 0
6, 92912, Note_on_c, 5, 57, 0
6, 93120, Note_on_c, 5, 50, 40
6, 93120, Note_on_c, 5, 47, 40
6, 93120, Note_on_c, 5, 43, 40
6, 93495, Note_on_c, 5, 43, 0
6, 93872, Note_on_c, 5, 47, 0
6, 93872, Note_on_c, 5, 50, 0
6, 94080, Note_on_c, 5, 55, 40
6, 94080, Note_on_c, 5, 52, 40
6, 94080, Note_on_c, 5, 48, 40
6, 94455, Note_on_c, 5, 48, 0
6, 94832, Note_on_c, 5, 52, 0
6, 94832, Note_on_c, 5, 55, 0
6, 95040, Note_on_c, 5, 48, 40
6, 95040, Note_on_c, 5, 45, 40
6, 95040, Note_on_c, 5, 41, 40
6, 95415, Note_on_c, 5, 41, 0
6, 95792, Note_on_c, 5, 45, 0
6, 95792, Note_on_c, 5, 48, 0
6, 96000, Note_on_c, 5, 55, 40
6, 96000, Note_on_c, 5, 52, 40
6, 96000, Note_on_c, 5, 48, 40
6, 96375, Note_on_c, 5, 48, 0
6, 96752, Note_on_c, 5, 52, 0
6, 96752, Note_on_c, 5, 55, 0
6, 96960, Note_on_c, 5, 50, 40
6, 96960, Note_on_c, 5, 47, 40
6, 96960, Note_on_c, 5, 43, 40
6, 97335, Note_on_c, 5, 43, 0
6, 97712, Note_on_c, 5, 47, 0
6, 97712, Note_on_c, 5, 50, 0
6, 97920, Note_on_c, 5, 55, 40
6, 97920, Note_on_c, 5, 52, 40
6, 97920, Note_on_c, 5, 48, 40
6, 98295, Note_on_c, 5, 48, 0
6, 98672, Note_on_c, 5, 52, 0
6, 98672, Note_on_c, 5, 55, 0
6, 98880, Note_on_c, 5, 55, 40
6, 98880, Note_on_c, 5, 52, 45
6, 98880, Note_on_c, 5, 48, 40
6, 99255, Note_on_c, 5, 48, 0
6, 99632, Note_on_c, 5, 52, 0
6, 99632, Note_on_c, 5, 55, 0
6, 99840, Note_on_c, 5, 48, 40
6, 99840, Note_on_c, 5, 45, 40
6, 99840, Note_on_c, 5, 41, 40
6, 100215, Note_on_c, 5, 41, 0
6, 100592, Note_on_c, 5, 45, 0
6, 100592, Note_on_c, 5, 48, 0
6, 100800, Note_on_c, 5, 50, 40
6, 100800, Note_on_c, 5, 47, 40
6, 100800, Note_on_c, 5, 43, 40
6, 101175, Note_on_c, 5, 43, 0
6, 101552, Note_on_c, 5, 47, 0
6, 101552, Note_on_c, 5, 50, 0
6, 101760, Note_on_c, 5, 55, 40
6, 101760, Note_on_c, 5, 52, 40
6, 101760, Note_on_c, 5, 48, 40
6, 102135, Note_on_c, 5, 48, 0
6, 102512, Note_on_c, 5, 52, 0
6, 102512, Note_on_c, 5, 55, 0
6, 102720, Note_on_c, 5, 52, 40
6, 102720, Note_on_c, 5, 48, 40
6, 102720, Note_on_c, 5, 45, 40
6, 103095, Note_on_c, 5, 45, 0
6, 103472, Note_on_c, 5, 48, 0
6, 103472, Note_on_c, 5, 52, 0
6, 103680, Note_on_c, 5, 57, 40
6, 103680, Note_on_c, 5, 53, 40
6, 103680, Note_on_c, 5, 50, 40
6, 104055, Note_on_c, 5, 50, 0
6, 104432, Note_on_c, 5, 53, 0
6, 104432, Note_on_c, 5, 57, 0
6, 104640, Note_on_c, 5, 50, 40
6, 104640, Note_on_c, 5, 47, 40
6, 104640, Note_on_c, 5, 43, 40
6, 105015, Note_on_c, 5, 43, 0
6, 105392, Note_on_c, 5, 47, 0
6, 105392, Note_on_c, 5, 50, 0
6, 105600, Note_on_c, 5, 52, 40
6, 105600, Note_on_c, 5, 48, 40
6, 105600, Note_on_c, 5, 45, 40
6, 105975, Note_on_c, 5, 45, 0
6, 106352, Note_on_c, 5, 48, 0
6, 106352, Note_on_c, 5, 52, 0
6, 106560, Note_on_c, 5, 52, 40
6, 106560, Note_on_c, 5, 48, 45
6, 106560, Note_on_c, 5, 45, 40
6, 106935, Note_on_c, 5, 45, 0
6, 107312, Note_on_c, 5, 48, 0
6, 107312, Note_on_c, 5, 52, 0
6, 107520, Note_on_c, 5, 48, 40
6, 107520, Note_on_c, 5, 45, 40
6, 107520, Note_on_c, 5, 41, 40
6, 107895, Note_on_c, 5, 41, 0
6, 108272, Note_on_c, 5, 45, 0
6, 108272, Note_on_c, 5, 48, 0
6, 108480, Note_on_c, 5, 52, 40
6, 108480, Note_on_c, 5, 48, 40
6, 108480, Note_on_c, 5, 45, 40
6, 108855, Note_on_c, 5, 45, 0
6, 109232, Note_on_c, 5, 48, 0
6, 109232, Note_on_c, 5, 52, 0
6, 109440, Note_on_c, 5, 57, 40
6, 109440, Note_on_c, 5, 54, 40
6, 109440, Note_on_c, 5, 50, 40
6, 109815, Note_on_c, 5, 50, 0
6, 110192, Note_on_c, 5, 54, 0
6, 110192, Note_on_c, 5, 57, 0
6, 110400, Note_on_c, 5, 58, 40
6, 110400, Note_on_c, 5, 54, 40
6, 110400, Note_on_c, 5, 50, 40
6, 110775, Note_on_c, 5, 50, 0
6, 111152, Note_on_c, 5, 54, 0
6, 111152, Note_on_c, 5, 58, 0
6, 111360, Note_on_c, 5, 57, 40
6, 111360, Note_on_c, 5, 53, 40
6, 111360, Note_on_c, 5, 50, 40
6, 111735, Note_on_c, 5, 50, 0
6, 112112, Note_on_c, 5, 53, 0
6, 112112, Note_on_c, 5, 57, 0
6, 112320, Note_on_c, 5, 50, 40
6, 112320, Note_on_c, 5, 47, 40
6, 112320, Note_on_c, 5, 43, 40
6, 112695, Note_on_c, 5, 43, 0
6, 113072, Note_on_c, 5, 47, 0
6, 113072, Note_on_c, 5, 50, 0
6, 113280, Note_on_c, 5, 55, 40
6, 113280, Note_on_c, 5, 52, 40
6, 113280, Note_on_c, 5, 48, 40
6, 113655, Note_on_c, 5, 48, 0
6, 114032, Note_on_c, 5, 52, 0
6, 114032, Note_on_c, 5, 55, 0
6, 114240, Note_on_c, 5, 55, 40
6, 114240, Note_on_c, 5, 52, 45
6, 114240, Note_on_c, 5, 48, 40
6, 114615, Note_on_c, 5, 48, 0
6, 114992, Note_on_c, 5, 52, 0
6, 114992, Note_on_c, 5, 55, 0
6, 115200, Note_on_c, 5, 48, 40
6, 115200, Note_on_c, 5, 45, 40
6, 115200, Note_on_c, 5, 41, 40
6, 115575, Note_on_c, 5, 41, 0
6, 115952, Note_on_c, 5, 45, 0
6, 115952, Note_on_c, 5, 48, 0
6, 116160, Note_on_c, 5, 48, 40
6, 116160, Note_on_c, 5, 45, 40
6, 116160, Note_on_c, 5, 42, 40
6, 116535, Note_on_c, 5, 42, 0
6, 116912, Note_on_c, 5, 45, 0
6, 116912, Note_on_c, 5, 48, 0
6, 117120, Note_on_c, 5, 55, 40
6, 117120, Note_on_c, 5, 52, 40
6, 117120, Note_on_c, 5, 48, 40
6, 117495, Note_on_c, 5, 48, 0
6, 117592, Note_on_c, 5, 52, 0
6, 117592, Note_on_c, 5, 55, 0
6, 117600, Note_on_c, 5, 55, 40
6, 117600, Note_on_c, 5, 52, 40
6, 117600, Note_on_c, 5, 47, 40
6, 117975, Note_on_c, 5, 47, 0
6, 118072, Note_on_c, 5, 52, 0
6, 118072, Note_on_c, 5, 55, 0
6, 118080, Note_on_c, 5, 52, 40
6, 118080, Note_on_c, 5, 48, 40
6, 118080, Note_on_c, 5, 45, 40
6, 118455, Note_on_c, 5, 45, 0
6, 118552, Note_on_c, 5, 48, 0
6, 118552, Note_on_c, 5, 52, 0
6, 118560, Note_on_c, 5, 52, 40
6, 118560, Note_on_c, 5, 48, 40
6, 118560, Note_on_c, 5, 43, 40
6, 118935, Note_on_c, 5, 43, 0
6, 119032, Note_on_c, 5, 48, 0
6, 119032, Note_on_c, 5, 52, 0
6, 119040, Note_on_c, 5, 57, 40
6, 119040, Note_on_c, 5, 54, 40
6, 119040, Note_on_c, 5, 42, 40
6, 119415, Note_on_c, 5, 42, 0
6, 119792, Note_on_c, 5, 54, 0
6, 119792, Note_on_c, 5, 57, 0
6, 120000, Note_on_c, 5, 48, 40
6, 120000, Note_on_c, 5, 44, 40
6, 120000, Note_on_c, 5, 41, 40
6, 120375, Note_on_c, 5, 41, 0
6, 120752, Note_on_c, 5, 44, 0
6, 120752, Note_on_c, 5, 48, 0
6, 120960, Note_on_c, 5, 47, 40
6, 120960, Note_on_c, 5, 43, 40
6, 120960, Note_on_c, 5, 40, 40
6, 121335, Note_on_c, 5, 40, 0
6, 121712, Note_on_c, 5, 43, 0
6, 121712, Note_on_c, 5, 47, 0
6, 121920, Note_on_c, 5, 52, 40
6, 121920, Note_on_c, 5, 48, 40
6, 121920, Note_on_c, 5, 45, 40
6, 122295, Note_on_c, 5, 45, 0
6, 122672, Note_on_c, 5, 48, 0
6, 122672, Note_on_c, 5, 52, 0
6, 122880, Note_on_c, 5, 57, 40
6, 122880, Note_on_c, 5, 53, 40
6, 122880, Note_on_c, 5, 50, 40
6, 123255, Note_on_c, 5, 50, 0
6, 123632, Note_on_c, 5, 53, 0
6, 123632, Note_on_c, 5, 57, 0
6, 123840, Note_on_c, 5, 50, 40
6, 123840, Note_on_c, 5, 47, 40
6, 123840, Note_on_c, 5, 43, 40
6, 124215, Note_on_c, 5, 43, 0
6, 124592, Note_on_c, 5, 47, 0
6, 124592, Note_on_c, 5, 50, 0
6, 124800, Note_on_c, 5, 55, 40
6, 124800, Note_on_c, 5, 52, 40
6, 124800, Note_on_c, 5, 48, 40
6, 125175, Note_on_c, 5, 48, 0
6, 125552, Note_on_c, 5, 52, 0
6, 125552, Note_on_c, 5, 55, 0
6, 125760, Note_on_c, 5, 48, 40
6, 125760, Note_on_c, 5, 45, 40
6, 125760, Note_on_c, 5, 41, 40
6, 126135, Note_on_c, 5, 41, 0
6, 126512, Note_on_c, 5, 45, 0
6, 126512, Note_on_c, 5, 48, 0
6, 126720, Note_on_c, 5, 55, 40
6, 126720, Note_on_c, 5, 52, 40
6, 126720, Note_on_c, 5, 48, 40
6, 127095, Note_on_c, 5, 48, 0
6, 127472, Note_on_c, 5, 52, 0
6, 127472, Note_on_c, 5, 55, 0
6, 127680, Note_on_c, 5, 50, 40
6, 127680, Note_on_c, 5, 47, 40
6, 127680, Note_on_c, 5, 43, 40
6, 128055, Note_on_c, 5, 43, 0
6, 128432, Note_on_c, 5, 47, 0
6, 128432, Note_on_c, 5, 50, 0
6, 128640, Note_on_c, 5, 55, 40
6, 128640, Note_on_c, 5, 52, 40
6, 128640, Note_on_c, 5, 48, 40
6, 129015, Note_on_c, 5, 48, 0
6, 129392, Note_on_c, 5, 52, 0
6, 129392, Note_on_c, 5, 55, 0
6, 129600, Note_on_c, 5, 55, 40
6, 129600, Note_on_c, 5, 52, 45
6, 129600, Note_on_c, 5, 48, 40
6, 129975, Note_on_c, 5, 48, 0
6, 130352, Note_on_c, 5, 52, 0
6, 130352, Note_on_c, 5, 55, 0
6, 130560, Note_on_c, 5, 55, 40
6, 130560, Note_on_c, 5, 52, 40
6, 130560, Note_on_c, 5, 48, 40
6, 130935, Note_on_c, 5, 48, 0
6, 131312, Note_on_c, 5, 52, 0
6, 131312, Note_on_c, 5, 55, 0
6, 131520, Note_on_c, 5, 55, 40
6, 131520, Note_on_c, 5, 52, 40
6, 131520, Note_on_c, 5, 48, 40
6, 131895, Note_on_c, 5, 48, 0
6, 132272, Note_on_c, 5, 52, 0
6, 132272, Note_on_c, 5, 55, 0
6, 132480, Note_on_c, 5, 48, 40
6, 132480, Note_on_c, 5, 45, 40
6, 132480, Note_on_c, 5, 41, 40
6, 132855, Note_on_c, 5, 41, 0
6, 133232, Note_on_c, 5, 45, 0
6, 133232, Note_on_c, 5, 48, 0
6, 133440, Note_on_c, 5, 48, 40
6, 133440, Note_on_c, 5, 45, 45
6, 133440, Note_on_c, 5, 41, 40
6, 133815, Note_on_c, 5, 41, 0
6, 134192, Note_on_c, 5, 45, 0
6, 134192, Note_on_c, 5, 48, 0
6, 134400, Note_on_c, 5, 57, 40
6, 134400, Note_on_c, 5, 53, 40
6, 134400, Note_on_c, 5, 50, 40
6, 134775, Note_on_c, 5, 50, 0
6, 135152, Note_on_c, 5, 53, 0
6, 135152, Note_on_c, 5, 57, 0
6, 135360, Note_on_c, 5, 50, 40
6, 135360, Note_on_c, 5, 47, 40
6, 135360, Note_on_c, 5, 43, 40
6, 135735, Note_on_c, 5, 43, 0
6, 136112, Note_on_c, 5, 47, 0
6, 136112, Note_on_c, 5, 50, 0
6, 136320, Note_on_c, 5, 47, 40
6, 136320, Note_on_c, 5, 43, 40
6, 136320, Note_on_c, 5, 40, 40
6, 136695, Note_on_c, 5, 40, 0
6, 137072, Note_on_c, 5, 43, 0
6, 137072, Note_on_c, 5, 47, 0
6, 137280, Note_on_c, 5, 47, 40
6, 137280, Note_on_c, 5, 43, 45
6, 137280, Note_on_c, 5, 40, 40
6, 137655, Note_on_c, 5, 40, 0
6, 138032, Note_on_c, 5, 43, 0
6, 138032, Note_on_c, 5, 47, 0
6, 138240, Note_on_c, 5, 52, 40
6, 138240, Note_on_c, 5, 48, 40
6, 138240, Note_on_c, 5, 45, 40
6, 138615, Note_on_c, 5, 45, 0
6, 138992, Note_on_c, 5, 48, 0
6, 138992, Note_on_c, 5, 52, 0
6, 139200, Note_on_c, 5, 52, 40
6, 139200, Note_on_c, 5, 48, 45
6, 139200, Note_on_c, 5, 45, 40
6, 139575, Note_on_c, 5, 45, 0
6, 139952, Note_on_c, 5, 48, 0
6, 139952, Note_on_c, 5, 52, 0
6, 140160, Note_on_c, 5, 57, 40
6, 140160, Note_on_c, 5, 54, 40
6, 140160, Note_on_c, 5, 50, 40
6, 140535, Note_on_c, 5, 50, 0
6, 140912, Note_on_c, 5, 54, 0
6, 140912, Note_on_c, 5, 57, 0
6, 141120, Note_on_c, 5, 58, 40
6, 141120, Note_on_c, 5, 54, 40
6, 141120, Note_on_c, 5, 50, 40
6, 141495, Note_on_c, 5, 50, 0
6, 141872, Note_on_c, 5, 54, 0
6, 141872, Note_on_c, 5, 58, 0
6, 142080, Note_on_c, 5, 57, 40
6, 142080, Note_on_c, 5, 53, 40
6, 142080, Note_on_c, 5, 50, 40
6, 142455, Note_on_c, 5, 50, 0
6, 142832, Note_on_c, 5, 53, 0
6, 142832, Note_on_c, 5, 57, 0
6, 143040, Note_on_c, 5, 50, 40
6, 143040, Note_on_c, 5, 47, 40
6, 143040, Note_on_c, 5, 43, 40
6, 143415, Note_on_c, 5, 43, 0
6, 143792, Note_on_c, 5, 47, 0
6, 143792, Note_on_c, 5, 50, 0
6, 144000, Note_on_c, 5, 55, 40
6, 144000, Note_on_c, 5, 52, 40
6, 144000, Note_on_c, 5, 48, 40
6, 144375, Note_on_c, 5, 48, 0
6, 144752, Note_on_c, 5, 52, 0
6, 144752, Note_on_c, 5, 55, 0
6, 144960, Note_on_c, 5, 55, 40
6, 144960, Note_on_c, 5, 52, 45
6, 144960, Note_on_c, 5, 48, 40
6, 145335, Note_on_c, 5, 48, 0
6, 145712, Note_on_c, 5, 52, 0
6, 145712, Note_on_c, 5, 55, 0
6, 145920, Note_on_c, 5, 55, 40
6, 145920, Note_on_c, 5, 52, 40
6, 145920, Note_on_c, 5, 48, 40
6, 146295, Note_on_c, 5, 48, 0
6, 146672, Note_on_c, 5, 52, 0
6, 146672, Note_on_c, 5, 55, 0
6, 146880, Note_on_c, 5, 55, 40
6, 146880, Note_on_c, 5, 52, 40
6, 146880, Note_on_c, 5, 48, 40
6, 147255, Note_on_c, 5, 48, 0
6, 147632, Note_on_c, 5, 52, 0
6, 147632, Note_on_c, 5, 55, 0
6, 147840, Note_on_c, 5, 48, 40
6, 147840, Note_on_c, 5, 45, 40
6, 147840, Note_on_c, 5, 41, 40
6, 148215, Note_on_c, 5, 41, 0
6, 148592, Note_on_c, 5, 45, 0
6, 148592, Note_on_c, 5, 48, 0
6, 148800, Note_on_c, 5, 48, 40
6, 148800, Note_on_c, 5, 45, 45
6, 148800, Note_on_c, 5, 41, 40
6, 149175, Note_on_c, 5, 41, 0
6, 149552, Note_on_c, 5, 45, 0
6, 149552, Note_on_c, 5, 48, 0
6, 149760, Note_on_c, 5, 57, 40
6, 149760, Note_on_c, 5, 53, 40
6, 149760, Note_on_c, 5, 50, 40
6, 150135, Note_on_c, 5, 50, 0
6, 150512, Note_on_c, 5, 53, 0
6, 150512, Note_on_c, 5, 57, 0
6, 150720, Note_on_c, 5, 50, 40
6, 150720, Note_on_c, 5, 47, 40
6, 150720, Note_on_c, 5, 43, 40
6, 151095, Note_on_c, 5, 43, 0
6, 151472, Note_on_c, 5, 47, 0
6, 151472, Note_on_c, 5, 50, 0
6, 151680, Note_on_c, 5, 47, 40
6, 151680, Note_on_c, 5, 43, 40
6, 151680, Note_on_c, 5, 40, 40
6, 152055, Note_on_c, 5, 40, 0
6, 152432, Note_on_c, 5, 43, 0
6, 152432, Note_on_c, 5, 47, 0
6, 152640, Note_on_c, 5, 52, 40
6, 152640, Note_on_c, 5, 49, 40
6, 152640, Note_on_c, 5, 45, 40
6, 153015, Note_on_c, 5, 45, 0
6, 153392, Note_on_c, 5, 49, 0
6, 153392, Note_on_c, 5, 52, 0
6, 153600, Note_on_c, 5, 57, 40
6, 153600, Note_on_c, 5, 53, 40
6, 153600, Note_on_c, 5, 50, 40
6, 153975, Note_on_c, 5, 50, 0
6, 154352, Note_on_c, 5, 53, 0
6, 154352, Note_on_c, 5, 57, 0
6, 154560, Note_on_c, 5, 50, 40
6, 154560, Note_on_c, 5, 47, 40
6, 154560, Note_on_c, 5, 43, 40
6, 154935, Note_on_c, 5, 43, 0
6, 155312, Note_on_c, 5, 47, 0
6, 155312, Note_on_c, 5, 50, 0
6, 155520, Note_on_c, 5, 55, 40
6, 155520, Note_on_c, 5, 52, 40
6, 155520, Note_on_c, 5, 48, 40
6, 155895, Note_on_c, 5, 48, 0
6, 156272, Note_on_c, 5, 52, 0
6, 156272, Note_on_c, 5, 55, 0
6, 156480, Note_on_c, 5, 48, 40
6, 156480, Note_on_c, 5, 45, 40
6, 156480, Note_on_c, 5, 41, 40
6, 156855, Note_on_c, 5, 41, 0
6, 157232, Note_on_c, 5, 45, 0
6, 157232, Note_on_c, 5, 48, 0
6, 157440, Note_on_c, 5, 55, 40
6, 157440, Note_on_c, 5, 52, 40
6, 157440, Note_on_c, 5, 48, 40
6, 157815, Note_on_c, 5, 48, 0
6, 158192, Note_on_c, 5, 52, 0
6, 158192, Note_on_c, 5, 55, 0
6, 158400, Note_on_c, 5, 50, 40
6, 158400, Note_on_c, 5, 47, 40
6, 158400, Note_on_c, 5, 43, 40
6, 158775, Note_on_c, 5, 43, 0
6, 159152, Note_on_c, 5, 47, 0
6, 159152, Note_on_c, 5, 50, 0
6, 159360, Note_on_c, 5, 55, 40
6, 159360, Note_on_c, 5, 52, 40
6, 159360, Note_on_c, 5, 48, 40
6, 159735, Note_on_c, 5, 48, 0
6, 160112, Note_on_c, 5, 52, 0
6, 160112, Note_on_c, 5, 55, 0
6, 160320, Note_on_c, 5, 55, 40
6, 160320, Note_on_c, 5, 52, 45
6, 160320, Note_on_c, 5, 48, 40
6, 160695, Note_on_c, 5, 48, 0
6, 161072, Note_on_c, 5, 52, 0
6, 161072, Note_on_c, 5, 55, 0
6, 161280, Note_on_c, 5, 48, 40
6, 161280, Note_on_c, 5, 45, 40
6, 161280, Note_on_c, 5, 41, 40
6, 161655, Note_on_c, 5, 41, 0
6, 162032, Note_on_c, 5, 45, 0
6, 162032, Note_on_c, 5, 48, 0
6, 162240, Note_on_c, 5, 50, 40
6, 162240, Note_on_c, 5, 47, 40
6, 162240, Note_on_c, 5, 43, 40
6, 162615, Note_on_c, 5, 43, 0
6, 162992, Note_on_c, 5, 47, 0
6, 162992, Note_on_c, 5, 50, 0
6, 163200, Note_on_c, 5, 55, 40
6, 163200, Note_on_c, 5, 52, 40
6, 163200, Note_on_c, 5, 48, 40
6, 163575, Note_on_c, 5, 48, 0
6, 163952, Note_on_c, 5, 52, 0
6, 163952, Note_on_c, 5, 55, 0
6, 164160, Note_on_c, 5, 52, 40
6, 164160, Note_on_c, 5, 48, 40
6, 164160, Note_on_c, 5, 45, 40
6, 164535, Note_on_c, 5, 45, 0
6, 164912, Note_on_c, 5, 48, 0
6, 164912, Note_on_c, 5, 52, 0
6, 165120, Note_on_c, 5, 57, 40
6, 165120, Note_on_c, 5, 53, 40
6, 165120, Note_on_c, 5, 50, 40
6, 165495, Note_on_c, 5, 50, 0
6, 165872, Note_on_c, 5, 53, 0
6, 165872, Note_on_c, 5, 57, 0
6, 166080, Note_on_c, 5, 50, 40
6, 166080, Note_on_c, 5, 47, 40
6, 166080, Note_on_c, 5, 43, 40
6, 166455, Note_on_c, 5, 43, 0
6, 166832, Note_on_c, 5, 47, 0
6, 166832, Note_on_c, 5, 50, 0
6, 167040, Note_on_c, 5, 52, 40
6, 167040, Note_on_c, 5, 48, 40
6, 167040, Note_on_c, 5, 45, 40
6, 167415, Note_on_c, 5, 45, 0
6, 167792, Note_on_c, 5, 48, 0
6, 167792, Note_on_c, 5, 52, 0
6, 168000, Note_on_c, 5, 52, 40
6, 168000, Note_on_c, 5, 48, 45
6, 168000, Note_on_c, 5, 45, 40
6, 168375, Note_on_c, 5, 45, 0
6, 168752, Note_on_c, 5, 48, 0
6, 168752, Note_on_c, 5, 52, 0
6, 168960, Note_on_c, 5, 48, 40
6, 168960, Note_on_c, 5, 45, 40
6, 168960, Note_on_c, 5, 41, 40
6, 169335, Note_on_c, 5, 41, 0
6, 169712, Note_on_c, 5, 45, 0
6, 169712, Note_on_c, 5, 48, 0
6, 169920, Note_on_c, 5, 52, 40
6, 169920, Note_on_c, 5, 48, 40
6, 169920, Note_on_c, 5, 45, 40
6, 170295, Note_on_c, 5, 45, 0
6, 170672, Note_on_c, 5, 48, 0
6, 170672, Note_on_c, 5, 52, 0
6, 170880, Note_on_c, 5, 57, 40
6, 170880, Note_on_c, 5, 54, 40
6, 170880, Note_on_c, 5, 50, 40
6, 171255, Note_on_c, 5, 50, 0
6, 171632, Note_on_c, 5, 54, 0
6, 171632, Note_on_c, 5, 57, 0
6, 171840, Note_on_c, 5, 58, 40
6, 171840, Note_on_c, 5, 54, 40
6, 171840, Note_on_c, 5, 50, 40
6, 172215, Note_on_c, 5, 50, 0
6, 172592, Note_on_c, 5, 54, 0
6, 172592, Note_on_c, 5, 58, 0
6, 172800, Note_on_c, 5, 57, 40
6, 172800, Note_on_c, 5, 53, 40
6, 172800, Note_on_c, 5, 50, 40
6, 173175, Note_on_c, 5, 50, 0
6, 173552, Note_on_c, 5, 53, 0
6, 173552, Note_on_c, 5, 57, 0
6, 173760, Note_on_c, 5, 50, 40
6, 173760, Note_on_c, 5, 47, 40
6, 173760, Note_on_c, 5, 43, 40
6, 174135, Note_on_c, 5, 43, 0
6, 174512, Note_on_c, 5, 47, 0
6, 174512, Note_on_c, 5, 50, 0
6, 174720, Note_on_c, 5, 55, 40
6, 174720, Note_on_c, 5, 52, 40
6, 174720, Note_on_c, 5, 48, 40
6, 175095, Note_on_c, 5, 48, 0
6, 175472, Note_on_c, 5, 52, 0
6, 175472, Note_on_c, 5, 55, 0
6, 175680, Note_on_c, 5, 55, 40
6, 175680, Note_on_c, 5, 52, 45
6, 175680, Note_on_c, 5, 48, 40
6, 176055, Note_on_c, 5, 48, 0
6, 176432, Note_on_c, 5, 52, 0
6, 176432, Note_on_c, 5, 55, 0
6, 176640, Note_on_c, 5, 48, 40
6, 176640, Note_on_c, 5, 45, 40
6, 176640, Note_on_c, 5, 41, 40
6, 177015, Note_on_c, 5, 41, 0
6, 177392, Note_on_c, 5, 45, 0
6, 177392, Note_on_c, 5, 48, 0
6, 177600, Note_on_c, 5, 48, 40
6, 177600, Note_on_c, 5, 45, 40
6, 177600, Note_on_c, 5, 42, 40
6, 177975, Note_on_c, 5, 42, 0
6, 178352, Note_on_c, 5, 45, 0
6, 178352, Note_on_c, 5, 48, 0
6, 178560, Note_on_c, 5, 55, 40
6, 178560, Note_on_c, 5, 52, 40
6, 178560, Note_on_c, 5, 48, 40
6, 178935, Note_on_c, 5, 48, 0
6, 179032, Note_on_c, 5, 52, 0
6, 179032, Note_on_c, 5, 55, 0
6, 179040, Note_on_c, 5, 55, 40
6, 179040, Note_on_c, 5, 52, 40
6, 179040, Note_on_c, 5, 47, 40
6, 179415, Note_on_c, 5, 47, 0
6, 179512, Note_on_c, 5, 52, 0
6, 179512, Note_on_c, 5, 55, 0
6, 179520, Note_on_c, 5, 52, 40
6, 179520, Note_on_c, 5, 48, 40
6, 179520, Note_on_c, 5, 45, 40
6, 179895, Note_on_c, 5, 45, 0
6, 179992, Note_on_c, 5, 48, 0
6, 179992, Note_on_c, 5, 52, 0
6, 180000, Note_on_c, 5, 52, 40
6, 180000, Note_on_c, 5, 48, 40
6, 180000, Note_on_c, 5, 43, 40
6, 180375, Note_on_c, 5, 43, 0
6, 180472, Note_on_c, 5, 48, 0
6, 180472, Note_on_c, 5, 52, 0
6, 180480, Note_on_c, 5, 57, 40
6, 180480, Note_on_c, 5, 54, 40
6, 180480, Note_on_c, 5, 42, 40
6, 180855, Note_on_c, 5, 42, 0
6, 181232, Note_on_c, 5, 54, 0
6, 181232, Note_on_c, 5, 57, 0
6, 181440, Note_on_c, 5, 48, 40
6, 181440, Note_on_c, 5, 44, 40
6, 181440, Note_on_c, 5, 41, 40
6, 181815, Note_on_c, 5, 41, 0
6, 182192, Note_on_c, 5, 44, 0
6, 182192, Note_on_c, 5, 48, 0
6, 182400, Note_on_c, 5, 47, 40
6, 182400, Note_on_c, 5, 43, 40
6, 182400, Note_on_c, 5, 40, 40
6, 182775, Note_on_c, 5, 40, 0
6, 183152, Note_on_c, 5, 43, 0
6, 183152, Note_on_c, 5, 47, 0
6, 183360, Note_on_c, 5, 52, 40
6, 183360, Note_on_c, 5, 48, 40
6, 183360, Note_on_c, 5, 45, 40
6, 183735, Note_on_c, 5, 45, 0
6, 184112, Note_on_c, 5, 48, 0
6, 184112, Note_on_c, 5, 52, 0
6, 184320, Note_on_c, 5, 57, 40
6, 184320, Note_on_c, 5, 53, 40
6, 184320, Note_on_c, 5, 50, 40
6, 184695, Note_on_c, 5, 50, 0
6, 185072, Note_on_c, 5, 53, 0
6, 185072, Note_on_c, 5, 57, 0
6, 185280, Note_on_c, 5, 50, 40
6, 185280, Note_on_c, 5, 47, 40
6, 185280, Note_on_c, 5, 43, 40
6, 185655, Note_on_c, 5, 43, 0
6, 186032, Note_on_c, 5, 47, 0
6, 186032, Note_on_c, 5, 50, 0
6, 186240, Note_on_c, 5, 55, 40
6, 186240, Note_on_c, 5, 52, 40
6, 186240, Note_on_c, 5, 48, 40
6, 186615, Note_on_c, 5, 48, 0
6, 186992, Note_on_c, 5, 52, 0
6, 186992, Note_on_c, 5, 55, 0
6, 187200, Note_on_c, 5, 48, 40
6, 187200, Note_on_c, 5, 45, 40
6, 187200, Note_on_c, 5, 41, 40
6, 187575, Note_on_c, 5, 41, 0
6, 187952, Note_on_c, 5, 45, 0
6, 187952, Note_on_c, 5, 48, 0
6, 188160, Note_on_c, 5, 55, 40
6, 188160, Note_on_c, 5, 52, 40
6, 188160, Note_on_c, 5, 48, 40
6, 188535, Note_on_c, 5, 48, 0
6, 188912, Note_on_c, 5, 52, 0
6, 188912, Note_on_c, 5, 55, 0
6, 189120, Note_on_c, 5, 50, 40
6, 189120, Note_on_c, 5, 47, 40
6, 189120, Note_on_c, 5, 43, 40
6, 189495, Note_on_c, 5, 43, 0
6, 189872, Note_on_c, 5, 47, 0
6, 189872, Note_on_c, 5, 50, 0
6, 190080, Note_on_c, 5, 55, 40
6, 190080, Note_on_c, 5, 52, 40
6, 190080, Note_on_c, 5, 48, 40
6, 190455, Note_on_c, 5, 48, 0
6, 190832, Note_on_c, 5, 52, 0
6, 190832, Note_on_c, 5, 55, 0
6, 191040, Note_on_c, 5, 55, 40
6, 191040, Note_on_c, 5, 52, 45
6, 191040, Note_on_c, 5, 48, 40
6, 191415, Note_on_c, 5, 48, 0
6, 191792, Note_on_c, 5, 52, 0
6, 191792, Note_on_c, 5, 55, 0
6, 192000, Note_on_c, 5, 55, 40
6, 192000, Note_on_c, 5, 52, 40
6, 192000, Note_on_c, 5, 48, 40
6, 192285, Note_on_c, 5, 52, 0
6, 192285, Note_on_c, 5, 55, 0
6, 192412, Note_on_c, 5, 48, 0
6, 192960, Note_on_c, 5, 55, 40
6, 192960, Note_on_c, 5, 52, 40
6, 192960, Note_on_c, 5, 48, 40
6, 193335, Note_on_c, 5, 48, 0
6, 193335, Note_on_c, 5, 52, 0
6, 193335, Note_on_c, 5, 55, 0
6, 193920, Control_c, 5, 64, 0
6, 193920, End_track
7, 0, Start_track
7, 0, MIDI_port, 0
7, 0, Title_t, "Guitar "
7, 0, Control_c, 6, 123, 0
7, 0, Control_c, 6, 64, 0
7, 510, Control_c, 6, 0, 0
7, 511, Control_c, 6, 32, 0
7, 512, Program_c, 6, 24
7, 513, Control_c, 6, 7, 85
7, 513, Control_c, 6, 10, 64
7, 562, Control_c, 6, 10, 64
7, 5760, Note_on_c, 6, 48, 80
7, 6135, Note_on_c, 6, 48, 0
7, 6240, Note_on_c, 6, 67, 80
7, 6240, Note_on_c, 6, 64, 80
7, 6240, Note_on_c, 6, 60, 80
7, 6615, Note_on_c, 6, 60, 0
7, 6615, Note_on_c, 6, 64, 0
7, 6615, Note_on_c, 6, 67, 0
7, 6720, Note_on_c, 6, 43, 80
7, 7095, Note_on_c, 6, 43, 0
7, 7200, Note_on_c, 6, 67, 80
7, 7200, Note_on_c, 6, 64, 80
7, 7200, Note_on_c, 6, 60, 80
7, 7655, Note_on_c, 6, 60, 0
7, 7655, Note_on_c, 6, 64, 0
7, 7655, Note_on_c, 6, 67, 0
7, 8160, Note_on_c, 6, 60, 80
7, 8160, Note_on_c, 6, 57, 80
7, 8160, Note_on_c, 6, 55, 80
7, 8160, Note_on_c, 6, 64, 80
7, 8535, Note_on_c, 6, 64, 0
7, 8535, Note_on_c, 6, 60, 0
7, 8535, Note_on_c, 6, 57, 0
7, 8535, Note_on_c, 6, 55, 0
7, 9120, Note_on_c, 6, 62, 80
7, 9120, Note_on_c, 6, 58, 80
7, 9120, Note_on_c, 6, 55, 80
7, 9120, Note_on_c, 6, 64, 80
7, 9495, Note_on_c, 6, 64, 0
7, 9495, Note_on_c, 6, 62, 0
7, 9495, Note_on_c, 6, 58, 0
7, 9495, Note_on_c, 6, 55, 0
7, 9600, Note_on_c, 6, 41, 80
7, 9975, Note_on_c, 6, 41, 0
7, 10080, Note_on_c, 6, 60, 80
7, 10080, Note_on_c, 6, 57, 80
7, 10080, Note_on_c, 6, 53, 80
7, 10455, Note_on_c, 6, 53, 0
7, 10455, Note_on_c, 6, 57, 0
7, 10455, Note_on_c, 6, 60, 0
7, 10560, Note_on_c, 6, 36, 80
7, 10935, Note_on_c, 6, 36, 0
7, 11040, Note_on_c, 6, 60, 80
7, 11040, Note_on_c, 6, 57, 80
7, 11040, Note_on_c, 6, 53, 80
7, 11495, Note_on_c, 6, 53, 0
7, 11495, Note_on_c, 6, 57, 0
7, 11495, Note_on_c, 6, 60, 0
7, 12000, Note_on_c, 6, 62, 80
7, 12000, Note_on_c, 6, 60, 80
7, 12000, Note_on_c, 6, 57, 80
7, 12000, Note_on_c, 6, 65, 80
7, 12375, Note_on_c, 6, 65, 0
7, 12375, Note_on_c, 6, 62, 0
7, 12375, Note_on_c, 6, 60, 0
7, 12375, Note_on_c, 6, 57, 0
7, 12960, Note_on_c, 6, 59, 80
7, 12960, Note_on_c, 6, 57, 80
7, 12960, Note_on_c, 6, 53, 80
7, 12960, Note_on_c, 6, 62, 80
7, 13335, Note_on_c, 6, 62, 0
7, 13335, Note_on_c, 6, 59, 0
7, 13335, Note_on_c, 6, 57, 0
7, 13335, Note_on_c, 6, 53, 0
7, 13440, Note_on_c, 6, 40, 80
7, 13815, Note_on_c, 6, 40, 0
7, 13920, Note_on_c, 6, 59, 80
7, 13920, Note_on_c, 6, 55, 80
7, 13920, Note_on_c, 6, 52, 80
7, 14295, Note_on_c, 6, 52, 0
7, 14295, Note_on_c, 6, 55, 0
7, 14295, Note_on_c, 6, 59, 0
7, 14400, Note_on_c, 6, 35, 80
7, 14775, Note_on_c, 6, 35, 0
7, 14880, Note_on_c, 6, 59, 80
7, 14880, Note_on_c, 6, 55, 80
7, 14880, Note_on_c, 6, 52, 80
7, 15335, Note_on_c, 6, 52, 0
7, 15335, Note_on_c, 6, 55, 0
7, 15335, Note_on_c, 6, 59, 0
7, 15360, Note_on_c, 6, 45, 80
7, 15735, Note_on_c, 6, 45, 0
7, 15840, Note_on_c, 6, 64, 80
7, 15840, Note_on_c, 6, 60, 80
7, 15840, Note_on_c, 6, 57, 80
7, 16215, Note_on_c, 6, 57, 0
7, 16215, Note_on_c, 6, 60, 0
7, 16215, Note_on_c, 6, 64, 0
7, 16320, Note_on_c, 6, 40, 80
7, 16695, Note_on_c, 6, 40, 0
7, 16800, Note_on_c, 6, 64, 80
7, 16800, Note_on_c, 6, 60, 80
7, 16800, Note_on_c, 6, 57, 80
7, 17255, Note_on_c, 6, 57, 0
7, 17255, Note_on_c, 6, 60, 0
7, 17255, Note_on_c, 6, 64, 0
7, 17760, Note_on_c, 6, 64, 80
7, 17760, Note_on_c, 6, 60, 80
7, 17760, Note_on_c, 6, 59, 80
7, 17760, Note_on_c, 6, 66, 80
7, 18135, Note_on_c, 6, 66, 0
7, 18135, Note_on_c, 6, 64, 0
7, 18135, Note_on_c, 6, 60, 0
7, 18135, Note_on_c, 6, 59, 0
7, 18720, Note_on_c, 6, 64, 80
7, 18720, Note_on_c, 6, 60, 80
7, 18720, Note_on_c, 6, 58, 80
7, 18720, Note_on_c, 6, 66, 80
7, 19095, Note_on_c, 6, 66, 0
7, 19095, Note_on_c, 6, 64, 0
7, 19095, Note_on_c, 6, 60, 0
7, 19095, Note_on_c, 6, 58, 0
7, 19680, Note_on_c, 6, 62, 80
7, 19680, Note_on_c, 6, 60, 80
7, 19680, Note_on_c, 6, 57, 80
7, 19680, Note_on_c, 6, 65, 80
7, 20055, Note_on_c, 6, 65, 0
7, 20055, Note_on_c, 6, 62, 0
7, 20055, Note_on_c, 6, 60, 0
7, 20055, Note_on_c, 6, 57, 0
7, 20640, Note_on_c, 6, 65, 80
7, 20640, Note_on_c, 6, 62, 80
7, 20640, Note_on_c, 6, 59, 80
7, 20640, Note_on_c, 6, 69, 80
7, 21015, Note_on_c, 6, 69, 0
7, 21015, Note_on_c, 6, 65, 0
7, 21015, Note_on_c, 6, 62, 0
7, 21015, Note_on_c, 6, 59, 0
7, 21120, Note_on_c, 6, 48, 80
7, 21495, Note_on_c, 6, 48, 0
7, 21600, Note_on_c, 6, 67, 80
7, 21600, Note_on_c, 6, 64, 80
7, 21600, Note_on_c, 6, 60, 80
7, 21975, Note_on_c, 6, 60, 0
7, 21975, Note_on_c, 6, 64, 0
7, 21975, Note_on_c, 6, 67, 0
7, 22080, Note_on_c, 6, 43, 80
7, 22455, Note_on_c, 6, 43, 0
7, 22560, Note_on_c, 6, 67, 80
7, 22560, Note_on_c, 6, 64, 80
7, 22560, Note_on_c, 6, 60, 80
7, 23015, Note_on_c, 6, 60, 0
7, 23015, Note_on_c, 6, 64, 0
7, 23015, Note_on_c, 6, 67, 0
7, 23520, Note_on_c, 6, 64, 80
7, 23520, Note_on_c, 6, 62, 80
7, 23520, Note_on_c, 6, 59, 80
7, 23520, Note_on_c, 6, 67, 80
7, 23895, Note_on_c, 6, 67, 0
7, 23895, Note_on_c, 6, 64, 0
7, 23895, Note_on_c, 6, 62, 0
7, 23895, Note_on_c, 6, 59, 0
7, 24480, Note_on_c, 6, 64, 80
7, 24480, Note_on_c, 6, 62, 80
7, 24480, Note_on_c, 6, 58, 80
7, 24480, Note_on_c, 6, 67, 80
7, 24855, Note_on_c, 6, 67, 0
7, 24855, Note_on_c, 6, 64, 0
7, 24855, Note_on_c, 6, 62, 0
7, 24855, Note_on_c, 6, 58, 0
7, 24960, Note_on_c, 6, 41, 80
7, 25335, Note_on_c, 6, 41, 0
7, 25440, Note_on_c, 6, 60, 80
7, 25440, Note_on_c, 6, 57, 80
7, 25440, Note_on_c, 6, 53, 80
7, 25815, Note_on_c, 6, 53, 0
7, 25815, Note_on_c, 6, 57, 0
7, 25815, Note_on_c, 6, 60, 0
7, 25920, Note_on_c, 6, 36, 80
7, 26295, Note_on_c, 6, 36, 0
7, 26400, Note_on_c, 6, 60, 80
7, 26400, Note_on_c, 6, 57, 80
7, 26400, Note_on_c, 6, 53, 80
7, 26855, Note_on_c, 6, 53, 0
7, 26855, Note_on_c, 6, 57, 0
7, 26855, Note_on_c, 6, 60, 0
7, 27360, Note_on_c, 6, 62, 80
7, 27360, Note_on_c, 6, 60, 80
7, 27360, Note_on_c, 6, 57, 80
7, 27360, Note_on_c, 6, 65, 80
7, 27735, Note_on_c, 6, 65, 0
7, 27735, Note_on_c, 6, 62, 0
7, 27735, Note_on_c, 6, 60, 0
7, 27735, Note_on_c, 6, 57, 0
7, 28320, Note_on_c, 6, 65, 80
7, 28320, Note_on_c, 6, 62, 80
7, 28320, Note_on_c, 6, 59, 80
7, 28320, Note_on_c, 6, 69, 80
7, 28695, Note_on_c, 6, 69, 0
7, 28695, Note_on_c, 6, 65, 0
7, 28695, Note_on_c, 6, 62, 0
7, 28695, Note_on_c, 6, 59, 0
7, 29280, Note_on_c, 6, 62, 80
7, 29280, Note_on_c, 6, 59, 80
7, 29280, Note_on_c, 6, 55, 80
7, 29280, Note_on_c, 6, 64, 80
7, 29655, Note_on_c, 6, 64, 0
7, 29655, Note_on_c, 6, 62, 0
7, 29655, Note_on_c, 6, 59, 0
7, 29655, Note_on_c, 6, 55, 0
7, 30240, Note_on_c, 6, 61, 80
7, 30240, Note_on_c, 6, 58, 80
7, 30240, Note_on_c, 6, 55, 80
7, 30240, Note_on_c, 6, 64, 80
7, 30615, Note_on_c, 6, 64, 0
7, 30615, Note_on_c, 6, 61, 0
7, 30615, Note_on_c, 6, 58, 0
7, 30615, Note_on_c, 6, 55, 0
7, 31200, Note_on_c, 6, 62, 80
7, 31200, Note_on_c, 6, 60, 80
7, 31200, Note_on_c, 6, 57, 80
7, 31200, Note_on_c, 6, 65, 80
7, 31575, Note_on_c, 6, 65, 0
7, 31575, Note_on_c, 6, 62, 0
7, 31575, Note_on_c, 6, 60, 0
7, 31575, Note_on_c, 6, 57, 0
7, 32160, Note_on_c, 6, 65, 80
7, 32160, Note_on_c, 6, 62, 80
7, 32160, Note_on_c, 6, 59, 80
7, 32160, Note_on_c, 6, 69, 80
7, 32535, Note_on_c, 6, 69, 0
7, 32535, Note_on_c, 6, 65, 0
7, 32535, Note_on_c, 6, 62, 0
7, 32535, Note_on_c, 6, 59, 0
7, 33120, Note_on_c, 6, 64, 80
7, 33120, Note_on_c, 6, 60, 80
7, 33120, Note_on_c, 6, 57, 80
7, 33120, Note_on_c, 6, 67, 80
7, 33495, Note_on_c, 6, 67, 0
7, 33495, Note_on_c, 6, 64, 0
7, 33495, Note_on_c, 6, 60, 0
7, 33495, Note_on_c, 6, 57, 0
7, 34080, Note_on_c, 6, 63, 80
7, 34080, Note_on_c, 6, 60, 80
7, 34080, Note_on_c, 6, 57, 80
7, 34080, Note_on_c, 6, 67, 80
7, 34455, Note_on_c, 6, 67, 0
7, 34455, Note_on_c, 6, 63, 0
7, 34455, Note_on_c, 6, 60, 0
7, 34455, Note_on_c, 6, 57, 0
7, 35040, Note_on_c, 6, 60, 80
7, 35040, Note_on_c, 6, 57, 80
7, 35040, Note_on_c, 6, 55, 80
7, 35040, Note_on_c, 6, 64, 80
7, 35415, Note_on_c, 6, 64, 0
7, 35415, Note_on_c, 6, 60, 0
7, 35415, Note_on_c, 6, 57, 0
7, 35415, Note_on_c, 6, 55, 0
7, 36000, Note_on_c, 6, 65, 80
7, 36000, Note_on_c, 6, 64, 80
7, 36000, Note_on_c, 6, 59, 80
7, 36000, Note_on_c, 6, 69, 80
7, 36375, Note_on_c, 6, 69, 0
7, 36375, Note_on_c, 6, 65, 0
7, 36375, Note_on_c, 6, 64, 0
7, 36375, Note_on_c, 6, 59, 0
7, 36480, Note_on_c, 6, 48, 80
7, 36855, Note_on_c, 6, 48, 0
7, 36960, Note_on_c, 6, 67, 80
7, 36960, Note_on_c, 6, 64, 80
7, 36960, Note_on_c, 6, 60, 80
7, 37335, Note_on_c, 6, 60, 0
7, 37335, Note_on_c, 6, 64, 0
7, 37335, Note_on_c, 6, 67, 0
7, 37440, Note_on_c, 6, 43, 80
7, 37815, Note_on_c, 6, 43, 0
7, 37920, Note_on_c, 6, 67, 80
7, 37920, Note_on_c, 6, 64, 80
7, 37920, Note_on_c, 6, 60, 80
7, 38375, Note_on_c, 6, 60, 0
7, 38375, Note_on_c, 6, 64, 0
7, 38375, Note_on_c, 6, 67, 0
7, 38880, Note_on_c, 6, 62, 80
7, 38880, Note_on_c, 6, 60, 80
7, 38880, Note_on_c, 6, 57, 80
7, 38880, Note_on_c, 6, 65, 80
7, 39255, Note_on_c, 6, 65, 0
7, 39255, Note_on_c, 6, 62, 0
7, 39255, Note_on_c, 6, 60, 0
7, 39255, Note_on_c, 6, 57, 0
7, 39840, Note_on_c, 6, 59, 80
7, 39840, Note_on_c, 6, 57, 80
7, 39840, Note_on_c, 6, 53, 80
7, 39840, Note_on_c, 6, 62, 80
7, 40215, Note_on_c, 6, 62, 0
7, 40215, Note_on_c, 6, 59, 0
7, 40215, Note_on_c, 6, 57, 0
7, 40215, Note_on_c, 6, 53, 0
7, 40800, Note_on_c, 6, 60, 80
7, 40800, Note_on_c, 6, 57, 80
7, 40800, Note_on_c, 6, 55, 80
7, 40800, Note_on_c, 6, 64, 80
7, 41175, Note_on_c, 6, 64, 0
7, 41175, Note_on_c, 6, 60, 0
7, 41175, Note_on_c, 6, 57, 0
7, 41175, Note_on_c, 6, 55, 0
7, 41760, Note_on_c, 6, 60, 80
7, 41760, Note_on_c, 6, 57, 80
7, 41760, Note_on_c, 6, 55, 80
7, 41760, Note_on_c, 6, 64, 80
7, 42135, Note_on_c, 6, 64, 0
7, 42135, Note_on_c, 6, 60, 0
7, 42135, Note_on_c, 6, 57, 0
7, 42135, Note_on_c, 6, 55, 0
7, 42720, Note_on_c, 6, 62, 80
7, 42720, Note_on_c, 6, 60, 80
7, 42720, Note_on_c, 6, 57, 80
7, 42720, Note_on_c, 6, 65, 80
7, 43095, Note_on_c, 6, 65, 0
7, 43095, Note_on_c, 6, 62, 0
7, 43095, Note_on_c, 6, 60, 0
7, 43095, Note_on_c, 6, 57, 0
7, 43680, Note_on_c, 6, 65, 80
7, 43680, Note_on_c, 6, 62, 80
7, 43680, Note_on_c, 6, 59, 80
7, 43680, Note_on_c, 6, 69, 80
7, 44055, Note_on_c, 6, 69, 0
7, 44055, Note_on_c, 6, 65, 0
7, 44055, Note_on_c, 6, 62, 0
7, 44055, Note_on_c, 6, 59, 0
7, 44160, Note_on_c, 6, 45, 80
7, 44535, Note_on_c, 6, 45, 0
7, 44640, Note_on_c, 6, 64, 80
7, 44640, Note_on_c, 6, 60, 80
7, 44640, Note_on_c, 6, 57, 80
7, 45015, Note_on_c, 6, 57, 0
7, 45015, Note_on_c, 6, 60, 0
7, 45015, Note_on_c, 6, 64, 0
7, 45120, Note_on_c, 6, 40, 80
7, 45495, Note_on_c, 6, 40, 0
7, 45600, Note_on_c, 6, 64, 80
7, 45600, Note_on_c, 6, 60, 80
7, 45600, Note_on_c, 6, 57, 80
7, 46055, Note_on_c, 6, 57, 0
7, 46055, Note_on_c, 6, 60, 0
7, 46055, Note_on_c, 6, 64, 0
7, 46560, Note_on_c, 6, 64, 80
7, 46560, Note_on_c, 6, 60, 80
7, 46560, Note_on_c, 6, 57, 80
7, 46560, Note_on_c, 6, 67, 80
7, 46935, Note_on_c, 6, 67, 0
7, 46935, Note_on_c, 6, 64, 0
7, 46935, Note_on_c, 6, 60, 0
7, 46935, Note_on_c, 6, 57, 0
7, 47520, Note_on_c, 6, 60, 80
7, 47520, Note_on_c, 6, 57, 80
7, 47520, Note_on_c, 6, 55, 80
7, 47520, Note_on_c, 6, 64, 80
7, 47895, Note_on_c, 6, 64, 0
7, 47895, Note_on_c, 6, 60, 0
7, 47895, Note_on_c, 6, 57, 0
7, 47895, Note_on_c, 6, 55, 0
7, 48480, Note_on_c, 6, 64, 80
7, 48480, Note_on_c, 6, 60, 80
7, 48480, Note_on_c, 6, 59, 80
7, 48480, Note_on_c, 6, 66, 80
7, 48855, Note_on_c, 6, 66, 0
7, 48855, Note_on_c, 6, 64, 0
7, 48855, Note_on_c, 6, 60, 0
7, 48855, Note_on_c, 6, 59, 0
7, 49440, Note_on_c, 6, 64, 80
7, 49440, Note_on_c, 6, 60, 80
7, 49440, Note_on_c, 6, 58, 80
7, 49440, Note_on_c, 6, 66, 80
7, 49815, Note_on_c, 6, 66, 0
7, 49815, Note_on_c, 6, 64, 0
7, 49815, Note_on_c, 6, 60, 0
7, 49815, Note_on_c, 6, 58, 0
7, 50400, Note_on_c, 6, 62, 80
7, 50400, Note_on_c, 6, 60, 80
7, 50400, Note_on_c, 6, 57, 80
7, 50400, Note_on_c, 6, 65, 80
7, 50775, Note_on_c, 6, 65, 0
7, 50775, Note_on_c, 6, 62, 0
7, 50775, Note_on_c, 6, 60, 0
7, 50775, Note_on_c, 6, 57, 0
7, 51360, Note_on_c, 6, 65, 80
7, 51360, Note_on_c, 6, 62, 80
7, 51360, Note_on_c, 6, 59, 80
7, 51360, Note_on_c, 6, 69, 80
7, 51735, Note_on_c, 6, 69, 0
7, 51735, Note_on_c, 6, 65, 0
7, 51735, Note_on_c, 6, 62, 0
7, 51735, Note_on_c, 6, 59, 0
7, 51840, Note_on_c, 6, 48, 80
7, 52215, Note_on_c, 6, 48, 0
7, 52320, Note_on_c, 6, 67, 80
7, 52320, Note_on_c, 6, 64, 80
7, 52320, Note_on_c, 6, 62, 80
7, 52695, Note_on_c, 6, 62, 0
7, 52695, Note_on_c, 6, 64, 0
7, 52695, Note_on_c, 6, 67, 0
7, 52800, Note_on_c, 6, 43, 80
7, 53175, Note_on_c, 6, 43, 0
7, 53280, Note_on_c, 6, 67, 80
7, 53280, Note_on_c, 6, 64, 80
7, 53280, Note_on_c, 6, 62, 80
7, 53735, Note_on_c, 6, 62, 0
7, 53735, Note_on_c, 6, 64, 0
7, 53735, Note_on_c, 6, 67, 0
7, 54240, Note_on_c, 6, 62, 80
7, 54240, Note_on_c, 6, 60, 80
7, 54240, Note_on_c, 6, 57, 80
7, 54240, Note_on_c, 6, 65, 80
7, 54615, Note_on_c, 6, 65, 0
7, 54615, Note_on_c, 6, 62, 0
7, 54615, Note_on_c, 6, 60, 0
7, 54615, Note_on_c, 6, 57, 0
7, 55200, Note_on_c, 6, 63, 80
7, 55200, Note_on_c, 6, 60, 80
7, 55200, Note_on_c, 6, 57, 80
7, 55200, Note_on_c, 6, 66, 80
7, 55575, Note_on_c, 6, 66, 0
7, 55575, Note_on_c, 6, 63, 0
7, 55575, Note_on_c, 6, 60, 0
7, 55575, Note_on_c, 6, 57, 0
7, 58080, Note_on_c, 6, 64, 80
7, 58080, Note_on_c, 6, 60, 80
7, 58080, Note_on_c, 6, 57, 80
7, 58080, Note_on_c, 6, 66, 80
7, 58455, Note_on_c, 6, 66, 0
7, 58455, Note_on_c, 6, 64, 0
7, 58455, Note_on_c, 6, 60, 0
7, 58455, Note_on_c, 6, 57, 0
7, 59040, Note_on_c, 6, 62, 80
7, 59040, Note_on_c, 6, 60, 80
7, 59040, Note_on_c, 6, 56, 80
7, 59040, Note_on_c, 6, 65, 80
7, 59415, Note_on_c, 6, 65, 0
7, 59415, Note_on_c, 6, 62, 0
7, 59415, Note_on_c, 6, 60, 0
7, 59415, Note_on_c, 6, 56, 0
7, 60000, Note_on_c, 6, 62, 80
7, 60000, Note_on_c, 6, 59, 80
7, 60000, Note_on_c, 6, 55, 80
7, 60000, Note_on_c, 6, 64, 80
7, 60375, Note_on_c, 6, 64, 0
7, 60375, Note_on_c, 6, 62, 0
7, 60375, Note_on_c, 6, 59, 0
7, 60375, Note_on_c, 6, 55, 0
7, 60960, Note_on_c, 6, 60, 80
7, 60960, Note_on_c, 6, 57, 80
7, 60960, Note_on_c, 6, 55, 80
7, 60960, Note_on_c, 6, 64, 80
7, 61335, Note_on_c, 6, 64, 0
7, 61335, Note_on_c, 6, 60, 0
7, 61335, Note_on_c, 6, 57, 0
7, 61335, Note_on_c, 6, 55, 0
7, 61920, Note_on_c, 6, 62, 80
7, 61920, Note_on_c, 6, 60, 80
7, 61920, Note_on_c, 6, 57, 80
7, 61920, Note_on_c, 6, 65, 80
7, 62295, Note_on_c, 6, 65, 0
7, 62295, Note_on_c, 6, 62, 0
7, 62295, Note_on_c, 6, 60, 0
7, 62295, Note_on_c, 6, 57, 0
7, 62880, Note_on_c, 6, 65, 80
7, 62880, Note_on_c, 6, 62, 80
7, 62880, Note_on_c, 6, 59, 80
7, 62880, Note_on_c, 6, 69, 80
7, 63255, Note_on_c, 6, 69, 0
7, 63255, Note_on_c, 6, 65, 0
7, 63255, Note_on_c, 6, 62, 0
7, 63255, Note_on_c, 6, 59, 0
7, 63840, Note_on_c, 6, 64, 80
7, 63840, Note_on_c, 6, 60, 80
7, 63840, Note_on_c, 6, 57, 80
7, 63840, Note_on_c, 6, 67, 80
7, 64215, Note_on_c, 6, 67, 0
7, 64215, Note_on_c, 6, 64, 0
7, 64215, Note_on_c, 6, 60, 0
7, 64215, Note_on_c, 6, 57, 0
7, 64800, Note_on_c, 6, 62, 80
7, 64800, Note_on_c, 6, 60, 80
7, 64800, Note_on_c, 6, 57, 80
7, 64800, Note_on_c, 6, 65, 80
7, 65175, Note_on_c, 6, 65, 0
7, 65175, Note_on_c, 6, 62, 0
7, 65175, Note_on_c, 6, 60, 0
7, 65175, Note_on_c, 6, 57, 0
7, 65760, Note_on_c, 6, 60, 80
7, 65760, Note_on_c, 6, 57, 80
7, 65760, Note_on_c, 6, 55, 80
7, 65760, Note_on_c, 6, 64, 80
7, 66135, Note_on_c, 6, 64, 0
7, 66135, Note_on_c, 6, 60, 0
7, 66135, Note_on_c, 6, 57, 0
7, 66135, Note_on_c, 6, 55, 0
7, 66720, Note_on_c, 6, 65, 80
7, 66720, Note_on_c, 6, 62, 80
7, 66720, Note_on_c, 6, 59, 80
7, 66720, Note_on_c, 6, 69, 80
7, 67095, Note_on_c, 6, 69, 0
7, 67095, Note_on_c, 6, 65, 0
7, 67095, Note_on_c, 6, 62, 0
7, 67095, Note_on_c, 6, 59, 0
7, 67200, Note_on_c, 6, 48, 80
7, 67575, Note_on_c, 6, 48, 0
7, 67680, Note_on_c, 6, 67, 80
7, 67680, Note_on_c, 6, 64, 80
7, 67680, Note_on_c, 6, 60, 80
7, 68055, Note_on_c, 6, 60, 0
7, 68055, Note_on_c, 6, 64, 0
7, 68055, Note_on_c, 6, 67, 0
7, 68160, Note_on_c, 6, 43, 80
7, 68535, Note_on_c, 6, 43, 0
7, 68640, Note_on_c, 6, 67, 80
7, 68640, Note_on_c, 6, 64, 80
7, 68640, Note_on_c, 6, 60, 80
7, 69095, Note_on_c, 6, 60, 0
7, 69095, Note_on_c, 6, 64, 0
7, 69095, Note_on_c, 6, 67, 0
7, 69600, Note_on_c, 6, 64, 80
7, 69600, Note_on_c, 6, 60, 80
7, 69600, Note_on_c, 6, 57, 80
7, 69600, Note_on_c, 6, 67, 80
7, 69975, Note_on_c, 6, 67, 0
7, 69975, Note_on_c, 6, 64, 0
7, 69975, Note_on_c, 6, 60, 0
7, 69975, Note_on_c, 6, 57, 0
7, 70560, Note_on_c, 6, 64, 80
7, 70560, Note_on_c, 6, 62, 80
7, 70560, Note_on_c, 6, 58, 80
7, 70560, Note_on_c, 6, 67, 80
7, 70935, Note_on_c, 6, 67, 0
7, 70935, Note_on_c, 6, 64, 0
7, 70935, Note_on_c, 6, 62, 0
7, 70935, Note_on_c, 6, 58, 0
7, 71040, Note_on_c, 6, 41, 80
7, 71415, Note_on_c, 6, 41, 0
7, 71520, Note_on_c, 6, 60, 80
7, 71520, Note_on_c, 6, 57, 80
7, 71520, Note_on_c, 6, 53, 80
7, 71895, Note_on_c, 6, 53, 0
7, 71895, Note_on_c, 6, 57, 0
7, 71895, Note_on_c, 6, 60, 0
7, 72000, Note_on_c, 6, 36, 80
7, 72375, Note_on_c, 6, 36, 0
7, 72480, Note_on_c, 6, 60, 80
7, 72480, Note_on_c, 6, 57, 80
7, 72480, Note_on_c, 6, 53, 80
7, 72935, Note_on_c, 6, 53, 0
7, 72935, Note_on_c, 6, 57, 0
7, 72935, Note_on_c, 6, 60, 0
7, 73440, Note_on_c, 6, 62, 80
7, 73440, Note_on_c, 6, 60, 80
7, 73440, Note_on_c, 6, 57, 80
7, 73440, Note_on_c, 6, 65, 80
7, 73815, Note_on_c, 6, 65, 0
7, 73815, Note_on_c, 6, 62, 0
7, 73815, Note_on_c, 6, 60, 0
7, 73815, Note_on_c, 6, 57, 0
7, 74400, Note_on_c, 6, 65, 80
7, 74400, Note_on_c, 6, 62, 80
7, 74400, Note_on_c, 6, 59, 80
7, 74400, Note_on_c, 6, 69, 80
7, 74775, Note_on_c, 6, 69, 0
7, 74775, Note_on_c, 6, 65, 0
7, 74775, Note_on_c, 6, 62, 0
7, 74775, Note_on_c, 6, 59, 0
7, 74880, Note_on_c, 6, 40, 80
7, 75255, Note_on_c, 6, 40, 0
7, 75360, Note_on_c, 6, 59, 80
7, 75360, Note_on_c, 6, 55, 80
7, 75360, Note_on_c, 6, 52, 80
7, 75735, Note_on_c, 6, 52, 0
7, 75735, Note_on_c, 6, 55, 0
7, 75735, Note_on_c, 6, 59, 0
7, 75840, Note_on_c, 6, 35, 80
7, 76215, Note_on_c, 6, 35, 0
7, 76320, Note_on_c, 6, 59, 80
7, 76320, Note_on_c, 6, 55, 80
7, 76320, Note_on_c, 6, 52, 80
7, 76775, Note_on_c, 6, 52, 0
7, 76775, Note_on_c, 6, 55, 0
7, 76775, Note_on_c, 6, 59, 0
7, 76800, Note_on_c, 6, 45, 80
7, 77175, Note_on_c, 6, 45, 0
7, 77280, Note_on_c, 6, 64, 80
7, 77280, Note_on_c, 6, 60, 80
7, 77280, Note_on_c, 6, 57, 80
7, 77655, Note_on_c, 6, 57, 0
7, 77655, Note_on_c, 6, 60, 0
7, 77655, Note_on_c, 6, 64, 0
7, 77760, Note_on_c, 6, 40, 80
7, 78135, Note_on_c, 6, 40, 0
7, 78240, Note_on_c, 6, 64, 80
7, 78240, Note_on_c, 6, 60, 80
7, 78240, Note_on_c, 6, 57, 80
7, 78695, Note_on_c, 6, 57, 0
7, 78695, Note_on_c, 6, 60, 0
7, 78695, Note_on_c, 6, 64, 0
7, 79200, Note_on_c, 6, 64, 80
7, 79200, Note_on_c, 6, 60, 80
7, 79200, Note_on_c, 6, 59, 80
7, 79200, Note_on_c, 6, 66, 80
7, 79575, Note_on_c, 6, 66, 0
7, 79575, Note_on_c, 6, 64, 0
7, 79575, Note_on_c, 6, 60, 0
7, 79575, Note_on_c, 6, 59, 0
7, 80160, Note_on_c, 6, 64, 80
7, 80160, Note_on_c, 6, 60, 80
7, 80160, Note_on_c, 6, 58, 80
7, 80160, Note_on_c, 6, 66, 80
7, 80535, Note_on_c, 6, 66, 0
7, 80535, Note_on_c, 6, 64, 0
7, 80535, Note_on_c, 6, 60, 0
7, 80535, Note_on_c, 6, 58, 0
7, 81120, Note_on_c, 6, 62, 80
7, 81120, Note_on_c, 6, 60, 80
7, 81120, Note_on_c, 6, 57, 80
7, 81120, Note_on_c, 6, 65, 80
7, 81495, Note_on_c, 6, 65, 0
7, 81495, Note_on_c, 6, 62, 0
7, 81495, Note_on_c, 6, 60, 0
7, 81495, Note_on_c, 6, 57, 0
7, 82080, Note_on_c, 6, 59, 80
7, 82080, Note_on_c, 6, 57, 80
7, 82080, Note_on_c, 6, 53, 80
7, 82080, Note_on_c, 6, 62, 80
7, 82455, Note_on_c, 6, 62, 0
7, 82455, Note_on_c, 6, 59, 0
7, 82455, Note_on_c, 6, 57, 0
7, 82455, Note_on_c, 6, 53, 0
7, 82560, Note_on_c, 6, 48, 80
7, 82935, Note_on_c, 6, 48, 0
7, 83040, Note_on_c, 6, 67, 80
7, 83040, Note_on_c, 6, 64, 80
7, 83040, Note_on_c, 6, 60, 80
7, 83415, Note_on_c, 6, 60, 0
7, 83415, Note_on_c, 6, 64, 0
7, 83415, Note_on_c, 6, 67, 0
7, 83520, Note_on_c, 6, 43, 80
7, 83895, Note_on_c, 6, 43, 0
7, 84000, Note_on_c, 6, 67, 80
7, 84000, Note_on_c, 6, 64, 80
7, 84000, Note_on_c, 6, 60, 80
7, 84455, Note_on_c, 6, 60, 0
7, 84455, Note_on_c, 6, 64, 0
7, 84455, Note_on_c, 6, 67, 0
7, 84960, Note_on_c, 6, 62, 80
7, 84960, Note_on_c, 6, 59, 80
7, 84960, Note_on_c, 6, 55, 80
7, 84960, Note_on_c, 6, 64, 80
7, 85335, Note_on_c, 6, 64, 0
7, 85335, Note_on_c, 6, 62, 0
7, 85335, Note_on_c, 6, 59, 0
7, 85335, Note_on_c, 6, 55, 0
7, 85920, Note_on_c, 6, 62, 80
7, 85920, Note_on_c, 6, 58, 80
7, 85920, Note_on_c, 6, 55, 80
7, 85920, Note_on_c, 6, 64, 80
7, 86295, Note_on_c, 6, 64, 0
7, 86295, Note_on_c, 6, 62, 0
7, 86295, Note_on_c, 6, 58, 0
7, 86295, Note_on_c, 6, 55, 0
7, 86400, Note_on_c, 6, 41, 80
7, 86775, Note_on_c, 6, 41, 0
7, 86880, Note_on_c, 6, 60, 80
7, 86880, Note_on_c, 6, 57, 80
7, 86880, Note_on_c, 6, 53, 80
7, 87255, Note_on_c, 6, 53, 0
7, 87255, Note_on_c, 6, 57, 0
7, 87255, Note_on_c, 6, 60, 0
7, 87360, Note_on_c, 6, 36, 80
7, 87735, Note_on_c, 6, 36, 0
7, 87840, Note_on_c, 6, 60, 80
7, 87840, Note_on_c, 6, 57, 80
7, 87840, Note_on_c, 6, 53, 80
7, 88295, Note_on_c, 6, 53, 0
7, 88295, Note_on_c, 6, 57, 0
7, 88295, Note_on_c, 6, 60, 0
7, 88800, Note_on_c, 6, 62, 80
7, 88800, Note_on_c, 6, 60, 80
7, 88800, Note_on_c, 6, 57, 80
7, 88800, Note_on_c, 6, 65, 80
7, 89175, Note_on_c, 6, 65, 0
7, 89175, Note_on_c, 6, 62, 0
7, 89175, Note_on_c, 6, 60, 0
7, 89175, Note_on_c, 6, 57, 0
7, 89760, Note_on_c, 6, 65, 80
7, 89760, Note_on_c, 6, 62, 80
7, 89760, Note_on_c, 6, 59, 80
7, 89760, Note_on_c, 6, 69, 80
7, 90135, Note_on_c, 6, 69, 0
7, 90135, Note_on_c, 6, 65, 0
7, 90135, Note_on_c, 6, 62, 0
7, 90135, Note_on_c, 6, 59, 0
7, 90720, Note_on_c, 6, 62, 80
7, 90720, Note_on_c, 6, 59, 80
7, 90720, Note_on_c, 6, 55, 80
7, 90720, Note_on_c, 6, 64, 80
7, 91095, Note_on_c, 6, 64, 0
7, 91095, Note_on_c, 6, 62, 0
7, 91095, Note_on_c, 6, 59, 0
7, 91095, Note_on_c, 6, 55, 0
7, 91680, Note_on_c, 6, 61, 80
7, 91680, Note_on_c, 6, 58, 80
7, 91680, Note_on_c, 6, 55, 80
7, 91680, Note_on_c, 6, 64, 80
7, 92055, Note_on_c, 6, 64, 0
7, 92055, Note_on_c, 6, 61, 0
7, 92055, Note_on_c, 6, 58, 0
7, 92055, Note_on_c, 6, 55, 0
7, 92640, Note_on_c, 6, 62, 80
7, 92640, Note_on_c, 6, 60, 80
7, 92640, Note_on_c, 6, 57, 80
7, 92640, Note_on_c, 6, 65, 80
7, 93015, Note_on_c, 6, 65, 0
7, 93015, Note_on_c, 6, 62, 0
7, 93015, Note_on_c, 6, 60, 0
7, 93015, Note_on_c, 6, 57, 0
7, 93600, Note_on_c, 6, 65, 80
7, 93600, Note_on_c, 6, 62, 80
7, 93600, Note_on_c, 6, 59, 80
7, 93600, Note_on_c, 6, 69, 80
7, 93975, Note_on_c, 6, 69, 0
7, 93975, Note_on_c, 6, 65, 0
7, 93975, Note_on_c, 6, 62, 0
7, 93975, Note_on_c, 6, 59, 0
7, 94560, Note_on_c, 6, 60, 80
7, 94560, Note_on_c, 6, 57, 80
7, 94560, Note_on_c, 6, 55, 80
7, 94560, Note_on_c, 6, 64, 80
7, 94935, Note_on_c, 6, 64, 0
7, 94935, Note_on_c, 6, 60, 0
7, 94935, Note_on_c, 6, 57, 0
7, 94935, Note_on_c, 6, 55, 0
7, 95520, Note_on_c, 6, 63, 80
7, 95520, Note_on_c, 6, 60, 80
7, 95520, Note_on_c, 6, 57, 80
7, 95520, Note_on_c, 6, 67, 80
7, 95895, Note_on_c, 6, 67, 0
7, 95895, Note_on_c, 6, 63, 0
7, 95895, Note_on_c, 6, 60, 0
7, 95895, Note_on_c, 6, 57, 0
7, 96480, Note_on_c, 6, 60, 80
7, 96480, Note_on_c, 6, 57, 80
7, 96480, Note_on_c, 6, 55, 80
7, 96480, Note_on_c, 6, 64, 80
7, 96855, Note_on_c, 6, 64, 0
7, 96855, Note_on_c, 6, 60, 0
7, 96855, Note_on_c, 6, 57, 0
7, 96855, Note_on_c, 6, 55, 0
7, 97440, Note_on_c, 6, 59, 80
7, 97440, Note_on_c, 6, 57, 80
7, 97440, Note_on_c, 6, 53, 80
7, 97440, Note_on_c, 6, 64, 80
7, 97815, Note_on_c, 6, 64, 0
7, 97815, Note_on_c, 6, 59, 0
7, 97815, Note_on_c, 6, 57, 0
7, 97815, Note_on_c, 6, 53, 0
7, 97920, Note_on_c, 6, 48, 80
7, 98295, Note_on_c, 6, 48, 0
7, 98400, Note_on_c, 6, 67, 80
7, 98400, Note_on_c, 6, 64, 80
7, 98400, Note_on_c, 6, 60, 80
7, 98775, Note_on_c, 6, 60, 0
7, 98775, Note_on_c, 6, 64, 0
7, 98775, Note_on_c, 6, 67, 0
7, 98880, Note_on_c, 6, 43, 80
7, 99255, Note_on_c, 6, 43, 0
7, 99360, Note_on_c, 6, 67, 80
7, 99360, Note_on_c, 6, 64, 80
7, 99360, Note_on_c, 6, 60, 80
7, 99815, Note_on_c, 6, 60, 0
7, 99815, Note_on_c, 6, 64, 0
7, 99815, Note_on_c, 6, 67, 0
7, 100320, Note_on_c, 6, 62, 80
7, 100320, Note_on_c, 6, 60, 80
7, 100320, Note_on_c, 6, 57, 80
7, 100320, Note_on_c, 6, 65, 80
7, 100695, Note_on_c, 6, 65, 0
7, 100695, Note_on_c, 6, 62, 0
7, 100695, Note_on_c, 6, 60, 0
7, 100695, Note_on_c, 6, 57, 0
7, 101280, Note_on_c, 6, 65, 80
7, 101280, Note_on_c, 6, 62, 80
7, 101280, Note_on_c, 6, 59, 80
7, 101280, Note_on_c, 6, 69, 80
7, 101655, Note_on_c, 6, 69, 0
7, 101655, Note_on_c, 6, 65, 0
7, 101655, Note_on_c, 6, 62, 0
7, 101655, Note_on_c, 6, 59, 0
7, 102240, Note_on_c, 6, 60, 80
7, 102240, Note_on_c, 6, 57, 80
7, 102240, Note_on_c, 6, 55, 80
7, 102240, Note_on_c, 6, 64, 80
7, 102615, Note_on_c, 6, 64, 0
7, 102615, Note_on_c, 6, 60, 0
7, 102615, Note_on_c, 6, 57, 0
7, 102615, Note_on_c, 6, 55, 0
7, 103200, Note_on_c, 6, 60, 80
7, 103200, Note_on_c, 6, 57, 80
7, 103200, Note_on_c, 6, 55, 80
7, 103200, Note_on_c, 6, 64, 80
7, 103575, Note_on_c, 6, 64, 0
7, 103575, Note_on_c, 6, 60, 0
7, 103575, Note_on_c, 6, 57, 0
7, 103575, Note_on_c, 6, 55, 0
7, 104160, Note_on_c, 6, 62, 80
7, 104160, Note_on_c, 6, 60, 80
7, 104160, Note_on_c, 6, 57, 80
7, 104160, Note_on_c, 6, 65, 80
7, 104535, Note_on_c, 6, 65, 0
7, 104535, Note_on_c, 6, 62, 0
7, 104535, Note_on_c, 6, 60, 0
7, 104535, Note_on_c, 6, 57, 0
7, 105120, Note_on_c, 6, 65, 80
7, 105120, Note_on_c, 6, 62, 80
7, 105120, Note_on_c, 6, 59, 80
7, 105120, Note_on_c, 6, 69, 80
7, 105495, Note_on_c, 6, 69, 0
7, 105495, Note_on_c, 6, 65, 0
7, 105495, Note_on_c, 6, 62, 0
7, 105495, Note_on_c, 6, 59, 0
7, 105600, Note_on_c, 6, 45, 80
7, 105975, Note_on_c, 6, 45, 0
7, 106080, Note_on_c, 6, 64, 80
7, 106080, Note_on_c, 6, 60, 80
7, 106080, Note_on_c, 6, 57, 80
7, 106455, Note_on_c, 6, 57, 0
7, 106455, Note_on_c, 6, 60, 0
7, 106455, Note_on_c, 6, 64, 0
7, 106560, Note_on_c, 6, 40, 80
7, 106935, Note_on_c, 6, 40, 0
7, 107040, Note_on_c, 6, 64, 80
7, 107040, Note_on_c, 6, 60, 80
7, 107040, Note_on_c, 6, 57, 80
7, 107495, Note_on_c, 6, 57, 0
7, 107495, Note_on_c, 6, 60, 0
7, 107495, Note_on_c, 6, 64, 0
7, 108000, Note_on_c, 6, 64, 80
7, 108000, Note_on_c, 6, 60, 80
7, 108000, Note_on_c, 6, 57, 80
7, 108000, Note_on_c, 6, 67, 80
7, 108375, Note_on_c, 6, 67, 0
7, 108375, Note_on_c, 6, 64, 0
7, 108375, Note_on_c, 6, 60, 0
7, 108375, Note_on_c, 6, 57, 0
7, 108960, Note_on_c, 6, 60, 80
7, 108960, Note_on_c, 6, 57, 80
7, 108960, Note_on_c, 6, 55, 80
7, 108960, Note_on_c, 6, 64, 80
7, 109335, Note_on_c, 6, 64, 0
7, 109335, Note_on_c, 6, 60, 0
7, 109335, Note_on_c, 6, 57, 0
7, 109335, Note_on_c, 6, 55, 0
7, 109920, Note_on_c, 6, 64, 80
7, 109920, Note_on_c, 6, 60, 80
7, 109920, Note_on_c, 6, 59, 80
7, 109920, Note_on_c, 6, 66, 80
7, 110295, Note_on_c, 6, 66, 0
7, 110295, Note_on_c, 6, 64, 0
7, 110295, Note_on_c, 6, 60, 0
7, 110295, Note_on_c, 6, 59, 0
7, 110880, Note_on_c, 6, 64, 80
7, 110880, Note_on_c, 6, 60, 80
7, 110880, Note_on_c, 6, 58, 80
7, 110880, Note_on_c, 6, 66, 80
7, 111255, Note_on_c, 6, 66, 0
7, 111255, Note_on_c, 6, 64, 0
7, 111255, Note_on_c, 6, 60, 0
7, 111255, Note_on_c, 6, 58, 0
7, 111840, Note_on_c, 6, 62, 80
7, 111840, Note_on_c, 6, 60, 80
7, 111840, Note_on_c, 6, 57, 80
7, 111840, Note_on_c, 6, 65, 80
7, 112215, Note_on_c, 6, 65, 0
7, 112215, Note_on_c, 6, 62, 0
7, 112215, Note_on_c, 6, 60, 0
7, 112215, Note_on_c, 6, 57, 0
7, 112800, Note_on_c, 6, 65, 80
7, 112800, Note_on_c, 6, 62, 80
7, 112800, Note_on_c, 6, 59, 80
7, 112800, Note_on_c, 6, 69, 80
7, 113175, Note_on_c, 6, 69, 0
7, 113175, Note_on_c, 6, 65, 0
7, 113175, Note_on_c, 6, 62, 0
7, 113175, Note_on_c, 6, 59, 0
7, 113280, Note_on_c, 6, 48, 80
7, 113655, Note_on_c, 6, 48, 0
7, 113760, Note_on_c, 6, 67, 80
7, 113760, Note_on_c, 6, 64, 80
7, 113760, Note_on_c, 6, 62, 80
7, 114135, Note_on_c, 6, 62, 0
7, 114135, Note_on_c, 6, 64, 0
7, 114135, Note_on_c, 6, 67, 0
7, 114240, Note_on_c, 6, 43, 80
7, 114615, Note_on_c, 6, 43, 0
7, 114720, Note_on_c, 6, 67, 80
7, 114720, Note_on_c, 6, 64, 80
7, 114720, Note_on_c, 6, 62, 80
7, 115175, Note_on_c, 6, 62, 0
7, 115175, Note_on_c, 6, 64, 0
7, 115175, Note_on_c, 6, 67, 0
7, 115680, Note_on_c, 6, 62, 80
7, 115680, Note_on_c, 6, 60, 80
7, 115680, Note_on_c, 6, 57, 80
7, 115680, Note_on_c, 6, 65, 80
7, 116055, Note_on_c, 6, 65, 0
7, 116055, Note_on_c, 6, 62, 0
7, 116055, Note_on_c, 6, 60, 0
7, 116055, Note_on_c, 6, 57, 0
7, 116640, Note_on_c, 6, 63, 80
7, 116640, Note_on_c, 6, 60, 80
7, 116640, Note_on_c, 6, 57, 80
7, 116640, Note_on_c, 6, 66, 80
7, 117015, Note_on_c, 6, 66, 0
7, 117015, Note_on_c, 6, 63, 0
7, 117015, Note_on_c, 6, 60, 0
7, 117015, Note_on_c, 6, 57, 0
7, 119520, Note_on_c, 6, 64, 80
7, 119520, Note_on_c, 6, 60, 80
7, 119520, Note_on_c, 6, 57, 80
7, 119520, Note_on_c, 6, 66, 80
7, 119895, Note_on_c, 6, 66, 0
7, 119895, Note_on_c, 6, 64, 0
7, 119895, Note_on_c, 6, 60, 0
7, 119895, Note_on_c, 6, 57, 0
7, 120480, Note_on_c, 6, 62, 80
7, 120480, Note_on_c, 6, 60, 80
7, 120480, Note_on_c, 6, 56, 80
7, 120480, Note_on_c, 6, 65, 80
7, 120855, Note_on_c, 6, 65, 0
7, 120855, Note_on_c, 6, 62, 0
7, 120855, Note_on_c, 6, 60, 0
7, 120855, Note_on_c, 6, 56, 0
7, 121440, Note_on_c, 6, 64, 80
7, 121440, Note_on_c, 6, 62, 80
7, 121440, Note_on_c, 6, 59, 80
7, 121440, Note_on_c, 6, 67, 80
7, 121815, Note_on_c, 6, 67, 0
7, 121815, Note_on_c, 6, 64, 0
7, 121815, Note_on_c, 6, 62, 0
7, 121815, Note_on_c, 6, 59, 0
7, 122400, Note_on_c, 6, 60, 80
7, 122400, Note_on_c, 6, 57, 80
7, 122400, Note_on_c, 6, 55, 80
7, 122400, Note_on_c, 6, 64, 80
7, 122775, Note_on_c, 6, 64, 0
7, 122775, Note_on_c, 6, 60, 0
7, 122775, Note_on_c, 6, 57, 0
7, 122775, Note_on_c, 6, 55, 0
7, 123360, Note_on_c, 6, 62, 80
7, 123360, Note_on_c, 6, 60, 80
7, 123360, Note_on_c, 6, 57, 80
7, 123360, Note_on_c, 6, 65, 80
7, 123735, Note_on_c, 6, 65, 0
7, 123735, Note_on_c, 6, 62, 0
7, 123735, Note_on_c, 6, 60, 0
7, 123735, Note_on_c, 6, 57, 0
7, 124320, Note_on_c, 6, 65, 80
7, 124320, Note_on_c, 6, 62, 80
7, 124320, Note_on_c, 6, 59, 80
7, 124320, Note_on_c, 6, 69, 80
7, 124695, Note_on_c, 6, 69, 0
7, 124695, Note_on_c, 6, 65, 0
7, 124695, Note_on_c, 6, 62, 0
7, 124695, Note_on_c, 6, 59, 0
7, 125280, Note_on_c, 6, 60, 80
7, 125280, Note_on_c, 6, 57, 80
7, 125280, Note_on_c, 6, 55, 80
7, 125280, Note_on_c, 6, 64, 80
7, 125655, Note_on_c, 6, 64, 0
7, 125655, Note_on_c, 6, 60, 0
7, 125655, Note_on_c, 6, 57, 0
7, 125655, Note_on_c, 6, 55, 0
7, 126240, Note_on_c, 6, 62, 80
7, 126240, Note_on_c, 6, 60, 80
7, 126240, Note_on_c, 6, 57, 80
7, 126240, Note_on_c, 6, 65, 80
7, 126615, Note_on_c, 6, 65, 0
7, 126615, Note_on_c, 6, 62, 0
7, 126615, Note_on_c, 6, 60, 0
7, 126615, Note_on_c, 6, 57, 0
7, 127200, Note_on_c, 6, 60, 80
7, 127200, Note_on_c, 6, 57, 80
7, 127200, Note_on_c, 6, 55, 80
7, 127200, Note_on_c, 6, 64, 80
7, 127575, Note_on_c, 6, 64, 0
7, 127575, Note_on_c, 6, 60, 0
7, 127575, Note_on_c, 6, 57, 0
7, 127575, Note_on_c, 6, 55, 0
7, 128160, Note_on_c, 6, 65, 80
7, 128160, Note_on_c, 6, 62, 80
7, 128160, Note_on_c, 6, 59, 80
7, 128160, Note_on_c, 6, 69, 80
7, 128535, Note_on_c, 6, 69, 0
7, 128535, Note_on_c, 6, 65, 0
7, 128535, Note_on_c, 6, 62, 0
7, 128535, Note_on_c, 6, 59, 0
7, 128640, Note_on_c, 6, 48, 80
7, 129015, Note_on_c, 6, 48, 0
7, 129120, Note_on_c, 6, 67, 80
7, 129120, Note_on_c, 6, 64, 80
7, 129120, Note_on_c, 6, 60, 80
7, 129495, Note_on_c, 6, 60, 0
7, 129495, Note_on_c, 6, 64, 0
7, 129495, Note_on_c, 6, 67, 0
7, 129600, Note_on_c, 6, 43, 80
7, 129975, Note_on_c, 6, 43, 0
7, 130080, Note_on_c, 6, 67, 80
7, 130080, Note_on_c, 6, 64, 80
7, 130080, Note_on_c, 6, 60, 80
7, 130535, Note_on_c, 6, 60, 0
7, 130535, Note_on_c, 6, 64, 0
7, 130535, Note_on_c, 6, 67, 0
7, 131040, Note_on_c, 6, 60, 80
7, 131040, Note_on_c, 6, 57, 80
7, 131040, Note_on_c, 6, 55, 80
7, 131040, Note_on_c, 6, 64, 80
7, 131415, Note_on_c, 6, 64, 0
7, 131415, Note_on_c, 6, 60, 0
7, 131415, Note_on_c, 6, 57, 0
7, 131415, Note_on_c, 6, 55, 0
7, 132000, Note_on_c, 6, 62, 80
7, 132000, Note_on_c, 6, 58, 80
7, 132000, Note_on_c, 6, 55, 80
7, 132000, Note_on_c, 6, 64, 80
7, 132375, Note_on_c, 6, 64, 0
7, 132375, Note_on_c, 6, 62, 0
7, 132375, Note_on_c, 6, 58, 0
7, 132375, Note_on_c, 6, 55, 0
7, 132480, Note_on_c, 6, 41, 80
7, 132855, Note_on_c, 6, 41, 0
7, 132960, Note_on_c, 6, 60, 80
7, 132960, Note_on_c, 6, 57, 80
7, 132960, Note_on_c, 6, 53, 80
7, 133335, Note_on_c, 6, 53, 0
7, 133335, Note_on_c, 6, 57, 0
7, 133335, Note_on_c, 6, 60, 0
7, 133440, Note_on_c, 6, 36, 80
7, 133815, Note_on_c, 6, 36, 0
7, 133920, Note_on_c, 6, 60, 80
7, 133920, Note_on_c, 6, 57, 80
7, 133920, Note_on_c, 6, 53, 80
7, 134375, Note_on_c, 6, 53, 0
7, 134375, Note_on_c, 6, 57, 0
7, 134375, Note_on_c, 6, 60, 0
7, 134880, Note_on_c, 6, 62, 80
7, 134880, Note_on_c, 6, 60, 80
7, 134880, Note_on_c, 6, 57, 80
7, 134880, Note_on_c, 6, 65, 80
7, 135255, Note_on_c, 6, 65, 0
7, 135255, Note_on_c, 6, 62, 0
7, 135255, Note_on_c, 6, 60, 0
7, 135255, Note_on_c, 6, 57, 0
7, 135840, Note_on_c, 6, 59, 80
7, 135840, Note_on_c, 6, 57, 80
7, 135840, Note_on_c, 6, 53, 80
7, 135840, Note_on_c, 6, 62, 80
7, 136215, Note_on_c, 6, 62, 0
7, 136215, Note_on_c, 6, 59, 0
7, 136215, Note_on_c, 6, 57, 0
7, 136215, Note_on_c, 6, 53, 0
7, 136320, Note_on_c, 6, 40, 80
7, 136695, Note_on_c, 6, 40, 0
7, 136800, Note_on_c, 6, 59, 80
7, 136800, Note_on_c, 6, 55, 80
7, 136800, Note_on_c, 6, 52, 80
7, 137175, Note_on_c, 6, 52, 0
7, 137175, Note_on_c, 6, 55, 0
7, 137175, Note_on_c, 6, 59, 0
7, 137280, Note_on_c, 6, 35, 80
7, 137655, Note_on_c, 6, 35, 0
7, 137760, Note_on_c, 6, 59, 80
7, 137760, Note_on_c, 6, 55, 80
7, 137760, Note_on_c, 6, 52, 80
7, 138215, Note_on_c, 6, 52, 0
7, 138215, Note_on_c, 6, 55, 0
7, 138215, Note_on_c, 6, 59, 0
7, 138240, Note_on_c, 6, 45, 80
7, 138615, Note_on_c, 6, 45, 0
7, 138720, Note_on_c, 6, 64, 80
7, 138720, Note_on_c, 6, 60, 80
7, 138720, Note_on_c, 6, 57, 80
7, 139095, Note_on_c, 6, 57, 0
7, 139095, Note_on_c, 6, 60, 0
7, 139095, Note_on_c, 6, 64, 0
7, 139200, Note_on_c, 6, 40, 80
7, 139575, Note_on_c, 6, 40, 0
7, 139680, Note_on_c, 6, 64, 80
7, 139680, Note_on_c, 6, 60, 80
7, 139680, Note_on_c, 6, 57, 80
7, 140135, Note_on_c, 6, 57, 0
7, 140135, Note_on_c, 6, 60, 0
7, 140135, Note_on_c, 6, 64, 0
7, 140640, Note_on_c, 6, 64, 80
7, 140640, Note_on_c, 6, 60, 80
7, 140640, Note_on_c, 6, 59, 80
7, 140640, Note_on_c, 6, 66, 80
7, 141015, Note_on_c, 6, 66, 0
7, 141015, Note_on_c, 6, 64, 0
7, 141015, Note_on_c, 6, 60, 0
7, 141015, Note_on_c, 6, 59, 0
7, 141600, Note_on_c, 6, 64, 80
7, 141600, Note_on_c, 6, 60, 80
7, 141600, Note_on_c, 6, 58, 80
7, 141600, Note_on_c, 6, 66, 80
7, 141975, Note_on_c, 6, 66, 0
7, 141975, Note_on_c, 6, 64, 0
7, 141975, Note_on_c, 6, 60, 0
7, 141975, Note_on_c, 6, 58, 0
7, 142560, Note_on_c, 6, 62, 80
7, 142560, Note_on_c, 6, 60, 80
7, 142560, Note_on_c, 6, 57, 80
7, 142560, Note_on_c, 6, 65, 80
7, 142935, Note_on_c, 6, 65, 0
7, 142935, Note_on_c, 6, 62, 0
7, 142935, Note_on_c, 6, 60, 0
7, 142935, Note_on_c, 6, 57, 0
7, 143520, Note_on_c, 6, 65, 80
7, 143520, Note_on_c, 6, 62, 80
7, 143520, Note_on_c, 6, 59, 80
7, 143520, Note_on_c, 6, 69, 80
7, 143895, Note_on_c, 6, 69, 0
7, 143895, Note_on_c, 6, 65, 0
7, 143895, Note_on_c, 6, 62, 0
7, 143895, Note_on_c, 6, 59, 0
7, 144000, Note_on_c, 6, 48, 80
7, 144375, Note_on_c, 6, 48, 0
7, 144480, Note_on_c, 6, 67, 80
7, 144480, Note_on_c, 6, 64, 80
7, 144480, Note_on_c, 6, 60, 80
7, 144855, Note_on_c, 6, 60, 0
7, 144855, Note_on_c, 6, 64, 0
7, 144855, Note_on_c, 6, 67, 0
7, 144960, Note_on_c, 6, 43, 80
7, 145335, Note_on_c, 6, 43, 0
7, 145440, Note_on_c, 6, 67, 80
7, 145440, Note_on_c, 6, 64, 80
7, 145440, Note_on_c, 6, 60, 80
7, 145895, Note_on_c, 6, 60, 0
7, 145895, Note_on_c, 6, 64, 0
7, 145895, Note_on_c, 6, 67, 0
7, 146400, Note_on_c, 6, 62, 80
7, 146400, Note_on_c, 6, 59, 80
7, 146400, Note_on_c, 6, 55, 80
7, 146400, Note_on_c, 6, 64, 80
7, 146775, Note_on_c, 6, 64, 0
7, 146775, Note_on_c, 6, 62, 0
7, 146775, Note_on_c, 6, 59, 0
7, 146775, Note_on_c, 6, 55, 0
7, 147360, Note_on_c, 6, 62, 80
7, 147360, Note_on_c, 6, 58, 80
7, 147360, Note_on_c, 6, 55, 80
7, 147360, Note_on_c, 6, 64, 80
7, 147735, Note_on_c, 6, 64, 0
7, 147735, Note_on_c, 6, 62, 0
7, 147735, Note_on_c, 6, 58, 0
7, 147735, Note_on_c, 6, 55, 0
7, 147840, Note_on_c, 6, 41, 80
7, 148215, Note_on_c, 6, 41, 0
7, 148320, Note_on_c, 6, 60, 80
7, 148320, Note_on_c, 6, 57, 80
7, 148320, Note_on_c, 6, 53, 80
7, 148695, Note_on_c, 6, 53, 0
7, 148695, Note_on_c, 6, 57, 0
7, 148695, Note_on_c, 6, 60, 0
7, 148800, Note_on_c, 6, 36, 80
7, 149175, Note_on_c, 6, 36, 0
7, 149280, Note_on_c, 6, 60, 80
7, 149280, Note_on_c, 6, 57, 80
7, 149280, Note_on_c, 6, 53, 80
7, 149735, Note_on_c, 6, 53, 0
7, 149735, Note_on_c, 6, 57, 0
7, 149735, Note_on_c, 6, 60, 0
7, 150240, Note_on_c, 6, 62, 80
7, 150240, Note_on_c, 6, 60, 80
7, 150240, Note_on_c, 6, 57, 80
7, 150240, Note_on_c, 6, 65, 80
7, 150615, Note_on_c, 6, 65, 0
7, 150615, Note_on_c, 6, 62, 0
7, 150615, Note_on_c, 6, 60, 0
7, 150615, Note_on_c, 6, 57, 0
7, 151200, Note_on_c, 6, 65, 80
7, 151200, Note_on_c, 6, 62, 80
7, 151200, Note_on_c, 6, 59, 80
7, 151200, Note_on_c, 6, 69, 80
7, 151575, Note_on_c, 6, 69, 0
7, 151575, Note_on_c, 6, 65, 0
7, 151575, Note_on_c, 6, 62, 0
7, 151575, Note_on_c, 6, 59, 0
7, 152160, Note_on_c, 6, 62, 80
7, 152160, Note_on_c, 6, 59, 80
7, 152160, Note_on_c, 6, 55, 80
7, 152160, Note_on_c, 6, 64, 80
7, 152535, Note_on_c, 6, 64, 0
7, 152535, Note_on_c, 6, 62, 0
7, 152535, Note_on_c, 6, 59, 0
7, 152535, Note_on_c, 6, 55, 0
7, 153120, Note_on_c, 6, 61, 80
7, 153120, Note_on_c, 6, 58, 80
7, 153120, Note_on_c, 6, 55, 80
7, 153120, Note_on_c, 6, 64, 80
7, 153495, Note_on_c, 6, 64, 0
7, 153495, Note_on_c, 6, 61, 0
7, 153495, Note_on_c, 6, 58, 0
7, 153495, Note_on_c, 6, 55, 0
7, 154080, Note_on_c, 6, 62, 80
7, 154080, Note_on_c, 6, 60, 80
7, 154080, Note_on_c, 6, 57, 80
7, 154080, Note_on_c, 6, 65, 80
7, 154455, Note_on_c, 6, 65, 0
7, 154455, Note_on_c, 6, 62, 0
7, 154455, Note_on_c, 6, 60, 0
7, 154455, Note_on_c, 6, 57, 0
7, 155040, Note_on_c, 6, 59, 80
7, 155040, Note_on_c, 6, 57, 80
7, 155040, Note_on_c, 6, 53, 80
7, 155040, Note_on_c, 6, 62, 80
7, 155415, Note_on_c, 6, 62, 0
7, 155415, Note_on_c, 6, 59, 0
7, 155415, Note_on_c, 6, 57, 0
7, 155415, Note_on_c, 6, 53, 0
7, 156000, Note_on_c, 6, 60, 80
7, 156000, Note_on_c, 6, 57, 80
7, 156000, Note_on_c, 6, 55, 80
7, 156000, Note_on_c, 6, 64, 80
7, 156375, Note_on_c, 6, 64, 0
7, 156375, Note_on_c, 6, 60, 0
7, 156375, Note_on_c, 6, 57, 0
7, 156375, Note_on_c, 6, 55, 0
7, 156960, Note_on_c, 6, 63, 80
7, 156960, Note_on_c, 6, 60, 80
7, 156960, Note_on_c, 6, 57, 80
7, 156960, Note_on_c, 6, 67, 80
7, 157335, Note_on_c, 6, 67, 0
7, 157335, Note_on_c, 6, 63, 0
7, 157335, Note_on_c, 6, 60, 0
7, 157335, Note_on_c, 6, 57, 0
7, 157920, Note_on_c, 6, 60, 80
7, 157920, Note_on_c, 6, 57, 80
7, 157920, Note_on_c, 6, 55, 80
7, 157920, Note_on_c, 6, 64, 80
7, 158295, Note_on_c, 6, 64, 0
7, 158295, Note_on_c, 6, 60, 0
7, 158295, Note_on_c, 6, 57, 0
7, 158295, Note_on_c, 6, 55, 0
7, 158880, Note_on_c, 6, 65, 80
7, 158880, Note_on_c, 6, 64, 80
7, 158880, Note_on_c, 6, 59, 80
7, 158880, Note_on_c, 6, 69, 80
7, 159255, Note_on_c, 6, 69, 0
7, 159255, Note_on_c, 6, 65, 0
7, 159255, Note_on_c, 6, 64, 0
7, 159255, Note_on_c, 6, 59, 0
7, 159360, Note_on_c, 6, 48, 80
7, 159735, Note_on_c, 6, 48, 0
7, 159840, Note_on_c, 6, 67, 80
7, 159840, Note_on_c, 6, 64, 80
7, 159840, Note_on_c, 6, 60, 80
7, 160215, Note_on_c, 6, 60, 0
7, 160215, Note_on_c, 6, 64, 0
7, 160215, Note_on_c, 6, 67, 0
7, 160320, Note_on_c, 6, 43, 80
7, 160695, Note_on_c, 6, 43, 0
7, 160800, Note_on_c, 6, 67, 80
7, 160800, Note_on_c, 6, 64, 80
7, 160800, Note_on_c, 6, 60, 80
7, 161255, Note_on_c, 6, 60, 0
7, 161255, Note_on_c, 6, 64, 0
7, 161255, Note_on_c, 6, 67, 0
7, 161760, Note_on_c, 6, 62, 80
7, 161760, Note_on_c, 6, 60, 80
7, 161760, Note_on_c, 6, 57, 80
7, 161760, Note_on_c, 6, 65, 80
7, 162135, Note_on_c, 6, 65, 0
7, 162135, Note_on_c, 6, 62, 0
7, 162135, Note_on_c, 6, 60, 0
7, 162135, Note_on_c, 6, 57, 0
7, 162720, Note_on_c, 6, 65, 80
7, 162720, Note_on_c, 6, 62, 80
7, 162720, Note_on_c, 6, 59, 80
7, 162720, Note_on_c, 6, 69, 80
7, 163095, Note_on_c, 6, 69, 0
7, 163095, Note_on_c, 6, 65, 0
7, 163095, Note_on_c, 6, 62, 0
7, 163095, Note_on_c, 6, 59, 0
7, 163680, Note_on_c, 6, 60, 80
7, 163680, Note_on_c, 6, 57, 80
7, 163680, Note_on_c, 6, 55, 80
7, 163680, Note_on_c, 6, 64, 80
7, 164055, Note_on_c, 6, 64, 0
7, 164055, Note_on_c, 6, 60, 0
7, 164055, Note_on_c, 6, 57, 0
7, 164055, Note_on_c, 6, 55, 0
7, 164640, Note_on_c, 6, 60, 80
7, 164640, Note_on_c, 6, 57, 80
7, 164640, Note_on_c, 6, 55, 80
7, 164640, Note_on_c, 6, 64, 80
7, 165015, Note_on_c, 6, 64, 0
7, 165015, Note_on_c, 6, 60, 0
7, 165015, Note_on_c, 6, 57, 0
7, 165015, Note_on_c, 6, 55, 0
7, 165600, Note_on_c, 6, 62, 80
7, 165600, Note_on_c, 6, 60, 80
7, 165600, Note_on_c, 6, 57, 80
7, 165600, Note_on_c, 6, 65, 80
7, 165975, Note_on_c, 6, 65, 0
7, 165975, Note_on_c, 6, 62, 0
7, 165975, Note_on_c, 6, 60, 0
7, 165975, Note_on_c, 6, 57, 0
7, 166560, Note_on_c, 6, 65, 80
7, 166560, Note_on_c, 6, 62, 80
7, 166560, Note_on_c, 6, 59, 80
7, 166560, Note_on_c, 6, 69, 80
7, 166935, Note_on_c, 6, 69, 0
7, 166935, Note_on_c, 6, 65, 0
7, 166935, Note_on_c, 6, 62, 0
7, 166935, Note_on_c, 6, 59, 0
7, 167040, Note_on_c, 6, 45, 80
7, 167415, Note_on_c, 6, 45, 0
7, 167520, Note_on_c, 6, 64, 80
7, 167520, Note_on_c, 6, 60, 80
7, 167520, Note_on_c, 6, 57, 80
7, 167895, Note_on_c, 6, 57, 0
7, 167895, Note_on_c, 6, 60, 0
7, 167895, Note_on_c, 6, 64, 0
7, 168000, Note_on_c, 6, 40, 80
7, 168375, Note_on_c, 6, 40, 0
7, 168480, Note_on_c, 6, 64, 80
7, 168480, Note_on_c, 6, 60, 80
7, 168480, Note_on_c, 6, 57, 80
7, 168935, Note_on_c, 6, 57, 0
7, 168935, Note_on_c, 6, 60, 0
7, 168935, Note_on_c, 6, 64, 0
7, 169440, Note_on_c, 6, 64, 80
7, 169440, Note_on_c, 6, 60, 80
7, 169440, Note_on_c, 6, 57, 80
7, 169440, Note_on_c, 6, 67, 80
7, 169815, Note_on_c, 6, 67, 0
7, 169815, Note_on_c, 6, 64, 0
7, 169815, Note_on_c, 6, 60, 0
7, 169815, Note_on_c, 6, 57, 0
7, 170400, Note_on_c, 6, 60, 80
7, 170400, Note_on_c, 6, 57, 80
7, 170400, Note_on_c, 6, 55, 80
7, 170400, Note_on_c, 6, 64, 80
7, 170775, Note_on_c, 6, 64, 0
7, 170775, Note_on_c, 6, 60, 0
7, 170775, Note_on_c, 6, 57, 0
7, 170775, Note_on_c, 6, 55, 0
7, 171360, Note_on_c, 6, 64, 80
7, 171360, Note_on_c, 6, 60, 80
7, 171360, Note_on_c, 6, 59, 80
7, 171360, Note_on_c, 6, 66, 80
7, 171735, Note_on_c, 6, 66, 0
7, 171735, Note_on_c, 6, 64, 0
7, 171735, Note_on_c, 6, 60, 0
7, 171735, Note_on_c, 6, 59, 0
7, 172320, Note_on_c, 6, 64, 80
7, 172320, Note_on_c, 6, 60, 80
7, 172320, Note_on_c, 6, 58, 80
7, 172320, Note_on_c, 6, 66, 80
7, 172695, Note_on_c, 6, 66, 0
7, 172695, Note_on_c, 6, 64, 0
7, 172695, Note_on_c, 6, 60, 0
7, 172695, Note_on_c, 6, 58, 0
7, 173280, Note_on_c, 6, 62, 80
7, 173280, Note_on_c, 6, 60, 80
7, 173280, Note_on_c, 6, 57, 80
7, 173280, Note_on_c, 6, 65, 80
7, 173655, Note_on_c, 6, 65, 0
7, 173655, Note_on_c, 6, 62, 0
7, 173655, Note_on_c, 6, 60, 0
7, 173655, Note_on_c, 6, 57, 0
7, 174240, Note_on_c, 6, 65, 80
7, 174240, Note_on_c, 6, 62, 80
7, 174240, Note_on_c, 6, 59, 80
7, 174240, Note_on_c, 6, 69, 80
7, 174615, Note_on_c, 6, 69, 0
7, 174615, Note_on_c, 6, 65, 0
7, 174615, Note_on_c, 6, 62, 0
7, 174615, Note_on_c, 6, 59, 0
7, 174720, Note_on_c, 6, 48, 80
7, 175095, Note_on_c, 6, 48, 0
7, 175200, Note_on_c, 6, 67, 80
7, 175200, Note_on_c, 6, 64, 80
7, 175200, Note_on_c, 6, 62, 80
7, 175575, Note_on_c, 6, 62, 0
7, 175575, Note_on_c, 6, 64, 0
7, 175575, Note_on_c, 6, 67, 0
7, 175680, Note_on_c, 6, 43, 80
7, 176055, Note_on_c, 6, 43, 0
7, 176160, Note_on_c, 6, 67, 80
7, 176160, Note_on_c, 6, 64, 80
7, 176160, Note_on_c, 6, 62, 80
7, 176615, Note_on_c, 6, 62, 0
7, 176615, Note_on_c, 6, 64, 0
7, 176615, Note_on_c, 6, 67, 0
7, 177120, Note_on_c, 6, 62, 80
7, 177120, Note_on_c, 6, 60, 80
7, 177120, Note_on_c, 6, 57, 80
7, 177120, Note_on_c, 6, 65, 80
7, 177495, Note_on_c, 6, 65, 0
7, 177495, Note_on_c, 6, 62, 0
7, 177495, Note_on_c, 6, 60, 0
7, 177495, Note_on_c, 6, 57, 0
7, 178080, Note_on_c, 6, 63, 80
7, 178080, Note_on_c, 6, 60, 80
7, 178080, Note_on_c, 6, 57, 80
7, 178080, Note_on_c, 6, 66, 80
7, 178455, Note_on_c, 6, 66, 0
7, 178455, Note_on_c, 6, 63, 0
7, 178455, Note_on_c, 6, 60, 0
7, 178455, Note_on_c, 6, 57, 0
7, 180960, Note_on_c, 6, 64, 80
7, 180960, Note_on_c, 6, 60, 80
7, 180960, Note_on_c, 6, 57, 80
7, 180960, Note_on_c, 6, 66, 80
7, 181335, Note_on_c, 6, 66, 0
7, 181335, Note_on_c, 6, 64, 0
7, 181335, Note_on_c, 6, 60, 0
7, 181335, Note_on_c, 6, 57, 0
7, 181920, Note_on_c, 6, 62, 80
7, 181920, Note_on_c, 6, 60, 80
7, 181920, Note_on_c, 6, 56, 80
7, 181920, Note_on_c, 6, 65, 80
7, 182295, Note_on_c, 6, 65, 0
7, 182295, Note_on_c, 6, 62, 0
7, 182295, Note_on_c, 6, 60, 0
7, 182295, Note_on_c, 6, 56, 0
7, 182880, Note_on_c, 6, 62, 80
7, 182880, Note_on_c, 6, 59, 80
7, 182880, Note_on_c, 6, 55, 80
7, 182880, Note_on_c, 6, 64, 80
7, 183255, Note_on_c, 6, 64, 0
7, 183255, Note_on_c, 6, 62, 0
7, 183255, Note_on_c, 6, 59, 0
7, 183255, Note_on_c, 6, 55, 0
7, 183840, Note_on_c, 6, 60, 80
7, 183840, Note_on_c, 6, 57, 80
7, 183840, Note_on_c, 6, 55, 80
7, 183840, Note_on_c, 6, 64, 80
7, 184215, Note_on_c, 6, 64, 0
7, 184215, Note_on_c, 6, 60, 0
7, 184215, Note_on_c, 6, 57, 0
7, 184215, Note_on_c, 6, 55, 0
7, 184800, Note_on_c, 6, 62, 80
7, 184800, Note_on_c, 6, 60, 80
7, 184800, Note_on_c, 6, 57, 80
7, 184800, Note_on_c, 6, 65, 80
7, 185175, Note_on_c, 6, 65, 0
7, 185175, Note_on_c, 6, 62, 0
7, 185175, Note_on_c, 6, 60, 0
7, 185175, Note_on_c, 6, 57, 0
7, 185760, Note_on_c, 6, 65, 80
7, 185760, Note_on_c, 6, 62, 80
7, 185760, Note_on_c, 6, 59, 80
7, 185760, Note_on_c, 6, 69, 80
7, 186135, Note_on_c, 6, 69, 0
7, 186135, Note_on_c, 6, 65, 0
7, 186135, Note_on_c, 6, 62, 0
7, 186135, Note_on_c, 6, 59, 0
7, 186720, Note_on_c, 6, 64, 80
7, 186720, Note_on_c, 6, 60, 80
7, 186720, Note_on_c, 6, 57, 80
7, 186720, Note_on_c, 6, 67, 80
7, 187095, Note_on_c, 6, 67, 0
7, 187095, Note_on_c, 6, 64, 0
7, 187095, Note_on_c, 6, 60, 0
7, 187095, Note_on_c, 6, 57, 0
7, 187680, Note_on_c, 6, 62, 80
7, 187680, Note_on_c, 6, 60, 80
7, 187680, Note_on_c, 6, 57, 80
7, 187680, Note_on_c, 6, 65, 80
7, 188055, Note_on_c, 6, 65, 0
7, 188055, Note_on_c, 6, 62, 0
7, 188055, Note_on_c, 6, 60, 0
7, 188055, Note_on_c, 6, 57, 0
7, 188640, Note_on_c, 6, 60, 80
7, 188640, Note_on_c, 6, 57, 80
7, 188640, Note_on_c, 6, 55, 80
7, 188640, Note_on_c, 6, 64, 80
7, 189015, Note_on_c, 6, 64, 0
7, 189015, Note_on_c, 6, 60, 0
7, 189015, Note_on_c, 6, 57, 0
7, 189015, Note_on_c, 6, 55, 0
7, 189600, Note_on_c, 6, 65, 80
7, 189600, Note_on_c, 6, 62, 80
7, 189600, Note_on_c, 6, 59, 80
7, 189600, Note_on_c, 6, 69, 80
7, 189975, Note_on_c, 6, 69, 0
7, 189975, Note_on_c, 6, 65, 0
7, 189975, Note_on_c, 6, 62, 0
7, 189975, Note_on_c, 6, 59, 0
7, 190080, Note_on_c, 6, 62, 80
7, 190455, Note_on_c, 6, 62, 0
7, 190560, Note_on_c, 6, 57, 80
7, 190935, Note_on_c, 6, 57, 0
7, 191040, Note_on_c, 6, 55, 80
7, 191415, Note_on_c, 6, 55, 0
7, 191520, Note_on_c, 6, 52, 80
7, 191895, Note_on_c, 6, 52, 0
7, 192000, Note_on_c, 6, 48, 80
7, 193885, Note_on_c, 6, 48, 0
7, 193920, Control_c, 6, 64, 0
7, 193920, End_track
8, 0, Start_track
8, 0, MIDI_port, 0
8, 0, Title_t, "Guitar "
8, 0, Control_c, 7, 123, 0
8, 0, Control_c, 7, 64, 0
8, 517, Program_c, 7, 25
8, 518, Control_c, 7, 7, 85
8, 518, Control_c, 7, 10, 64
8, 562, Control_c, 7, 10, 64
8, 5760, Note_on_c, 7, 48, 80
8, 6135, Note_on_c, 7, 48, 0
8, 6240, Note_on_c, 7, 67, 80
8, 6240, Note_on_c, 7, 64, 80
8, 6240, Note_on_c, 7, 60, 80
8, 6615, Note_on_c, 7, 60, 0
8, 6615, Note_on_c, 7, 64, 0
8, 6615, Note_on_c, 7, 67, 0
8, 6720, Note_on_c, 7, 43, 80
8, 7095, Note_on_c, 7, 43, 0
8, 7200, Note_on_c, 7, 67, 80
8, 7200, Note_on_c, 7, 64, 80
8, 7200, Note_on_c, 7, 60, 80
8, 7655, Note_on_c, 7, 60, 0
8, 7655, Note_on_c, 7, 64, 0
8, 7655, Note_on_c, 7, 67, 0
8, 8160, Note_on_c, 7, 60, 80
8, 8160, Note_on_c, 7, 57, 80
8, 8160, Note_on_c, 7, 55, 80
8, 8160, Note_on_c, 7, 64, 80
8, 8535, Note_on_c, 7, 64, 0
8, 8535, Note_on_c, 7, 60, 0
8, 8535, Note_on_c, 7, 57, 0
8, 8535, Note_on_c, 7, 55, 0
8, 9120, Note_on_c, 7, 62, 80
8, 9120, Note_on_c, 7, 58, 80
8, 9120, Note_on_c, 7, 55, 80
8, 9120, Note_on_c, 7, 64, 80
8, 9495, Note_on_c, 7, 64, 0
8, 9495, Note_on_c, 7, 62, 0
8, 9495, Note_on_c, 7, 58, 0
8, 9495, Note_on_c, 7, 55, 0
8, 9600, Note_on_c, 7, 41, 80
8, 9975, Note_on_c, 7, 41, 0
8, 10080, Note_on_c, 7, 60, 80
8, 10080, Note_on_c, 7, 57, 80
8, 10080, Note_on_c, 7, 53, 80
8, 10455, Note_on_c, 7, 53, 0
8, 10455, Note_on_c, 7, 57, 0
8, 10455, Note_on_c, 7, 60, 0
8, 10560, Note_on_c, 7, 36, 80
8, 10935, Note_on_c, 7, 36, 0
8, 11040, Note_on_c, 7, 60, 80
8, 11040, Note_on_c, 7, 57, 80
8, 11040, Note_on_c, 7, 53, 80
8, 11495, Note_on_c, 7, 53, 0
8, 11495, Note_on_c, 7, 57, 0
8, 11495, Note_on_c, 7, 60, 0
8, 12000, Note_on_c, 7, 62, 80
8, 12000, Note_on_c, 7, 60, 80
8, 12000, Note_on_c, 7, 57, 80
8, 12000, Note_on_c, 7, 65, 80
8, 12375, Note_on_c, 7, 65, 0
8, 12375, Note_on_c, 7, 62, 0
8, 12375, Note_on_c, 7, 60, 0
8, 12375, Note_on_c, 7, 57, 0
8, 12960, Note_on_c, 7, 59, 80
8, 12960, Note_on_c, 7, 57, 80
8, 12960, Note_on_c, 7, 53, 80
8, 12960, Note_on_c, 7, 62, 80
8, 13335, Note_on_c, 7, 62, 0
8, 13335, Note_on_c, 7, 59, 0
8, 13335, Note_on_c, 7, 57, 0
8, 13335, Note_on_c, 7, 53, 0
8, 13440, Note_on_c, 7, 40, 80
8, 13815, Note_on_c, 7, 40, 0
8, 13920, Note_on_c, 7, 59, 80
8, 13920, Note_on_c, 7, 55, 80
8, 13920, Note_on_c, 7, 52, 80
8, 14295, Note_on_c, 7, 52, 0
8, 14295, Note_on_c, 7, 55, 0
8, 14295, Note_on_c, 7, 59, 0
8, 14400, Note_on_c, 7, 35, 80
8, 14775, Note_on_c, 7, 35, 0
8, 14880, Note_on_c, 7, 59, 80
8, 14880, Note_on_c, 7, 55, 80
8, 14880, Note_on_c, 7, 52, 80
8, 15335, Note_on_c, 7, 52, 0
8, 15335, Note_on_c, 7, 55, 0
8, 15335, Note_on_c, 7, 59, 0
8, 15360, Note_on_c, 7, 45, 80
8, 15735, Note_on_c, 7, 45, 0
8, 15840, Note_on_c, 7, 64, 80
8, 15840, Note_on_c, 7, 60, 80
8, 15840, Note_on_c, 7, 57, 80
8, 16215, Note_on_c, 7, 57, 0
8, 16215, Note_on_c, 7, 60, 0
8, 16215, Note_on_c, 7, 64, 0
8, 16320, Note_on_c, 7, 40, 80
8, 16695, Note_on_c, 7, 40, 0
8, 16800, Note_on_c, 7, 64, 80
8, 16800, Note_on_c, 7, 60, 80
8, 16800, Note_on_c, 7, 57, 80
8, 17255, Note_on_c, 7, 57, 0
8, 17255, Note_on_c, 7, 60, 0
8, 17255, Note_on_c, 7, 64, 0
8, 17760, Note_on_c, 7, 64, 80
8, 17760, Note_on_c, 7, 60, 80
8, 17760, Note_on_c, 7, 59, 80
8, 17760, Note_on_c, 7, 66, 80
8, 18135, Note_on_c, 7, 66, 0
8, 18135, Note_on_c, 7, 64, 0
8, 18135, Note_on_c, 7, 60, 0
8, 18135, Note_on_c, 7, 59, 0
8, 18720, Note_on_c, 7, 64, 80
8, 18720, Note_on_c, 7, 60, 80
8, 18720, Note_on_c, 7, 58, 80
8, 18720, Note_on_c, 7, 66, 80
8, 19095, Note_on_c, 7, 66, 0
8, 19095, Note_on_c, 7, 64, 0
8, 19095, Note_on_c, 7, 60, 0
8, 19095, Note_on_c, 7, 58, 0
8, 19680, Note_on_c, 7, 62, 80
8, 19680, Note_on_c, 7, 60, 80
8, 19680, Note_on_c, 7, 57, 80
8, 19680, Note_on_c, 7, 65, 80
8, 20055, Note_on_c, 7, 65, 0
8, 20055, Note_on_c, 7, 62, 0
8, 20055, Note_on_c, 7, 60, 0
8, 20055, Note_on_c, 7, 57, 0
8, 20640, Note_on_c, 7, 65, 80
8, 20640, Note_on_c, 7, 62, 80
8, 20640, Note_on_c, 7, 59, 80
8, 20640, Note_on_c, 7, 69, 80
8, 21015, Note_on_c, 7, 69, 0
8, 21015, Note_on_c, 7, 65, 0
8, 21015, Note_on_c, 7, 62, 0
8, 21015, Note_on_c, 7, 59, 0
8, 21120, Note_on_c, 7, 48, 80
8, 21495, Note_on_c, 7, 48, 0
8, 21600, Note_on_c, 7, 67, 80
8, 21600, Note_on_c, 7, 64, 80
8, 21600, Note_on_c, 7, 60, 80
8, 21975, Note_on_c, 7, 60, 0
8, 21975, Note_on_c, 7, 64, 0
8, 21975, Note_on_c, 7, 67, 0
8, 22080, Note_on_c, 7, 43, 80
8, 22455, Note_on_c, 7, 43, 0
8, 22560, Note_on_c, 7, 67, 80
8, 22560, Note_on_c, 7, 64, 80
8, 22560, Note_on_c, 7, 60, 80
8, 23015, Note_on_c, 7, 60, 0
8, 23015, Note_on_c, 7, 64, 0
8, 23015, Note_on_c, 7, 67, 0
8, 23520, Note_on_c, 7, 64, 80
8, 23520, Note_on_c, 7, 62, 80
8, 23520, Note_on_c, 7, 59, 80
8, 23520, Note_on_c, 7, 67, 80
8, 23895, Note_on_c, 7, 67, 0
8, 23895, Note_on_c, 7, 64, 0
8, 23895, Note_on_c, 7, 62, 0
8, 23895, Note_on_c, 7, 59, 0
8, 24480, Note_on_c, 7, 64, 80
8, 24480, Note_on_c, 7, 62, 80
8, 24480, Note_on_c, 7, 58, 80
8, 24480, Note_on_c, 7, 67, 80
8, 24855, Note_on_c, 7, 67, 0
8, 24855, Note_on_c, 7, 64, 0
8, 24855, Note_on_c, 7, 62, 0
8, 24855, Note_on_c, 7, 58, 0
8, 24960, Note_on_c, 7, 41, 80
8, 25335, Note_on_c, 7, 41, 0
8, 25440, Note_on_c, 7, 60, 80
8, 25440, Note_on_c, 7, 57, 80
8, 25440, Note_on_c, 7, 53, 80
8, 25815, Note_on_c, 7, 53, 0
8, 25815, Note_on_c, 7, 57, 0
8, 25815, Note_on_c, 7, 60, 0
8, 25920, Note_on_c, 7, 36, 80
8, 26295, Note_on_c, 7, 36, 0
8, 26400, Note_on_c, 7, 60, 80
8, 26400, Note_on_c, 7, 57, 80
8, 26400, Note_on_c, 7, 53, 80
8, 26855, Note_on_c, 7, 53, 0
8, 26855, Note_on_c, 7, 57, 0
8, 26855, Note_on_c, 7, 60, 0
8, 27360, Note_on_c, 7, 62, 80
8, 27360, Note_on_c, 7, 60, 80
8, 27360, Note_on_c, 7, 57, 80
8, 27360, Note_on_c, 7, 65, 80
8, 27735, Note_on_c, 7, 65, 0
8, 27735, Note_on_c, 7, 62, 0
8, 27735, Note_on_c, 7, 60, 0
8, 27735, Note_on_c, 7, 57, 0
8, 28320, Note_on_c, 7, 65, 80
8, 28320, Note_on_c, 7, 62, 80
8, 28320, Note_on_c, 7, 59, 80
8, 28320, Note_on_c, 7, 69, 80
8, 28695, Note_on_c, 7, 69, 0
8, 28695, Note_on_c, 7, 65, 0
8, 28695, Note_on_c, 7, 62, 0
8, 28695, Note_on_c, 7, 59, 0
8, 29280, Note_on_c, 7, 62, 80
8, 29280, Note_on_c, 7, 59, 80
8, 29280, Note_on_c, 7, 55, 80
8, 29280, Note_on_c, 7, 64, 80
8, 29655, Note_on_c, 7, 64, 0
8, 29655, Note_on_c, 7, 62, 0
8, 29655, Note_on_c, 7, 59, 0
8, 29655, Note_on_c, 7, 55, 0
8, 30240, Note_on_c, 7, 61, 80
8, 30240, Note_on_c, 7, 58, 80
8, 30240, Note_on_c, 7, 55, 80
8, 30240, Note_on_c, 7, 64, 80
8, 30615, Note_on_c, 7, 64, 0
8, 30615, Note_on_c, 7, 61, 0
8, 30615, Note_on_c, 7, 58, 0
8, 30615, Note_on_c, 7, 55, 0
8, 31200, Note_on_c, 7, 62, 80
8, 31200, Note_on_c, 7, 60, 80
8, 31200, Note_on_c, 7, 57, 80
8, 31200, Note_on_c, 7, 65, 80
8, 31575, Note_on_c, 7, 65, 0
8, 31575, Note_on_c, 7, 62, 0
8, 31575, Note_on_c, 7, 60, 0
8, 31575, Note_on_c, 7, 57, 0
8, 32160, Note_on_c, 7, 65, 80
8, 32160, Note_on_c, 7, 62, 80
8, 32160, Note_on_c, 7, 59, 80
8, 32160, Note_on_c, 7, 69, 80
8, 32535, Note_on_c, 7, 69, 0
8, 32535, Note_on_c, 7, 65, 0
8, 32535, Note_on_c, 7, 62, 0
8, 32535, Note_on_c, 7, 59, 0
8, 33120, Note_on_c, 7, 64, 80
8, 33120, Note_on_c, 7, 60, 80
8, 33120, Note_on_c, 7, 57, 80
8, 33120, Note_on_c, 7, 67, 80
8, 33495, Note_on_c, 7, 67, 0
8, 33495, Note_on_c, 7, 64, 0
8, 33495, Note_on_c, 7, 60, 0
8, 33495, Note_on_c, 7, 57, 0
8, 34080, Note_on_c, 7, 63, 80
8, 34080, Note_on_c, 7, 60, 80
8, 34080, Note_on_c, 7, 57, 80
8, 34080, Note_on_c, 7, 67, 80
8, 34455, Note_on_c, 7, 67, 0
8, 34455, Note_on_c, 7, 63, 0
8, 34455, Note_on_c, 7, 60, 0
8, 34455, Note_on_c, 7, 57, 0
8, 35040, Note_on_c, 7, 60, 80
8, 35040, Note_on_c, 7, 57, 80
8, 35040, Note_on_c, 7, 55, 80
8, 35040, Note_on_c, 7, 64, 80
8, 35415, Note_on_c, 7, 64, 0
8, 35415, Note_on_c, 7, 60, 0
8, 35415, Note_on_c, 7, 57, 0
8, 35415, Note_on_c, 7, 55, 0
8, 36000, Note_on_c, 7, 65, 80
8, 36000, Note_on_c, 7, 64, 80
8, 36000, Note_on_c, 7, 59, 80
8, 36000, Note_on_c, 7, 69, 80
8, 36375, Note_on_c, 7, 69, 0
8, 36375, Note_on_c, 7, 65, 0
8, 36375, Note_on_c, 7, 64, 0
8, 36375, Note_on_c, 7, 59, 0
8, 36480, Note_on_c, 7, 48, 80
8, 36855, Note_on_c, 7, 48, 0
8, 36960, Note_on_c, 7, 67, 80
8, 36960, Note_on_c, 7, 64, 80
8, 36960, Note_on_c, 7, 60, 80
8, 37335, Note_on_c, 7, 60, 0
8, 37335, Note_on_c, 7, 64, 0
8, 37335, Note_on_c, 7, 67, 0
8, 37440, Note_on_c, 7, 43, 80
8, 37815, Note_on_c, 7, 43, 0
8, 37920, Note_on_c, 7, 67, 80
8, 37920, Note_on_c, 7, 64, 80
8, 37920, Note_on_c, 7, 60, 80
8, 38375, Note_on_c, 7, 60, 0
8, 38375, Note_on_c, 7, 64, 0
8, 38375, Note_on_c, 7, 67, 0
8, 38880, Note_on_c, 7, 62, 80
8, 38880, Note_on_c, 7, 60, 80
8, 38880, Note_on_c, 7, 57, 80
8, 38880, Note_on_c, 7, 65, 80
8, 39255, Note_on_c, 7, 65, 0
8, 39255, Note_on_c, 7, 62, 0
8, 39255, Note_on_c, 7, 60, 0
8, 39255, Note_on_c, 7, 57, 0
8, 39840, Note_on_c, 7, 59, 80
8, 39840, Note_on_c, 7, 57, 80
8, 39840, Note_on_c, 7, 53, 80
8, 39840, Note_on_c, 7, 62, 80
8, 40215, Note_on_c, 7, 62, 0
8, 40215, Note_on_c, 7, 59, 0
8, 40215, Note_on_c, 7, 57, 0
8, 40215, Note_on_c, 7, 53, 0
8, 40800, Note_on_c, 7, 60, 80
8, 40800, Note_on_c, 7, 57, 80
8, 40800, Note_on_c, 7, 55, 80
8, 40800, Note_on_c, 7, 64, 80
8, 41175, Note_on_c, 7, 64, 0
8, 41175, Note_on_c, 7, 60, 0
8, 41175, Note_on_c, 7, 57, 0
8, 41175, Note_on_c, 7, 55, 0
8, 41760, Note_on_c, 7, 60, 80
8, 41760, Note_on_c, 7, 57, 80
8, 41760, Note_on_c, 7, 55, 80
8, 41760, Note_on_c, 7, 64, 80
8, 42135, Note_on_c, 7, 64, 0
8, 42135, Note_on_c, 7, 60, 0
8, 42135, Note_on_c, 7, 57, 0
8, 42135, Note_on_c, 7, 55, 0
8, 42720, Note_on_c, 7, 62, 80
8, 42720, Note_on_c, 7, 60, 80
8, 42720, Note_on_c, 7, 57, 80
8, 42720, Note_on_c, 7, 65, 80
8, 43095, Note_on_c, 7, 65, 0
8, 43095, Note_on_c, 7, 62, 0
8, 43095, Note_on_c, 7, 60, 0
8, 43095, Note_on_c, 7, 57, 0
8, 43680, Note_on_c, 7, 65, 80
8, 43680, Note_on_c, 7, 62, 80
8, 43680, Note_on_c, 7, 59, 80
8, 43680, Note_on_c, 7, 69, 80
8, 44055, Note_on_c, 7, 69, 0
8, 44055, Note_on_c, 7, 65, 0
8, 44055, Note_on_c, 7, 62, 0
8, 44055, Note_on_c, 7, 59, 0
8, 44160, Note_on_c, 7, 45, 80
8, 44535, Note_on_c, 7, 45, 0
8, 44640, Note_on_c, 7, 64, 80
8, 44640, Note_on_c, 7, 60, 80
8, 44640, Note_on_c, 7, 57, 80
8, 45015, Note_on_c, 7, 57, 0
8, 45015, Note_on_c, 7, 60, 0
8, 45015, Note_on_c, 7, 64, 0
8, 45120, Note_on_c, 7, 40, 80
8, 45495, Note_on_c, 7, 40, 0
8, 45600, Note_on_c, 7, 64, 80
8, 45600, Note_on_c, 7, 60, 80
8, 45600, Note_on_c, 7, 57, 80
8, 46055, Note_on_c, 7, 57, 0
8, 46055, Note_on_c, 7, 60, 0
8, 46055, Note_on_c, 7, 64, 0
8, 46560, Note_on_c, 7, 64, 80
8, 46560, Note_on_c, 7, 60, 80
8, 46560, Note_on_c, 7, 57, 80
8, 46560, Note_on_c, 7, 67, 80
8, 46935, Note_on_c, 7, 67, 0
8, 46935, Note_on_c, 7, 64, 0
8, 46935, Note_on_c, 7, 60, 0
8, 46935, Note_on_c, 7, 57, 0
8, 47520, Note_on_c, 7, 60, 80
8, 47520, Note_on_c, 7, 57, 80
8, 47520, Note_on_c, 7, 55, 80
8, 47520, Note_on_c, 7, 64, 80
8, 47895, Note_on_c, 7, 64, 0
8, 47895, Note_on_c, 7, 60, 0
8, 47895, Note_on_c, 7, 57, 0
8, 47895, Note_on_c, 7, 55, 0
8, 48480, Note_on_c, 7, 64, 80
8, 48480, Note_on_c, 7, 60, 80
8, 48480, Note_on_c, 7, 59, 80
8, 48480, Note_on_c, 7, 66, 80
8, 48855, Note_on_c, 7, 66, 0
8, 48855, Note_on_c, 7, 64, 0
8, 48855, Note_on_c, 7, 60, 0
8, 48855, Note_on_c, 7, 59, 0
8, 49440, Note_on_c, 7, 64, 80
8, 49440, Note_on_c, 7, 60, 80
8, 49440, Note_on_c, 7, 58, 80
8, 49440, Note_on_c, 7, 66, 80
8, 49815, Note_on_c, 7, 66, 0
8, 49815, Note_on_c, 7, 64, 0
8, 49815, Note_on_c, 7, 60, 0
8, 49815, Note_on_c, 7, 58, 0
8, 50400, Note_on_c, 7, 62, 80
8, 50400, Note_on_c, 7, 60, 80
8, 50400, Note_on_c, 7, 57, 80
8, 50400, Note_on_c, 7, 65, 80
8, 50775, Note_on_c, 7, 65, 0
8, 50775, Note_on_c, 7, 62, 0
8, 50775, Note_on_c, 7, 60, 0
8, 50775, Note_on_c, 7, 57, 0
8, 51360, Note_on_c, 7, 65, 80
8, 51360, Note_on_c, 7, 62, 80
8, 51360, Note_on_c, 7, 59, 80
8, 51360, Note_on_c, 7, 69, 80
8, 51735, Note_on_c, 7, 69, 0
8, 51735, Note_on_c, 7, 65, 0
8, 51735, Note_on_c, 7, 62, 0
8, 51735, Note_on_c, 7, 59, 0
8, 51840, Note_on_c, 7, 48, 80
8, 52215, Note_on_c, 7, 48, 0
8, 52320, Note_on_c, 7, 67, 80
8, 52320, Note_on_c, 7, 64, 80
8, 52320, Note_on_c, 7, 62, 80
8, 52695, Note_on_c, 7, 62, 0
8, 52695, Note_on_c, 7, 64, 0
8, 52695, Note_on_c, 7, 67, 0
8, 52800, Note_on_c, 7, 43, 80
8, 53175, Note_on_c, 7, 43, 0
8, 53280, Note_on_c, 7, 67, 80
8, 53280, Note_on_c, 7, 64, 80
8, 53280, Note_on_c, 7, 62, 80
8, 53735, Note_on_c, 7, 62, 0
8, 53735, Note_on_c, 7, 64, 0
8, 53735, Note_on_c, 7, 67, 0
8, 54240, Note_on_c, 7, 62, 80
8, 54240, Note_on_c, 7, 60, 80
8, 54240, Note_on_c, 7, 57, 80
8, 54240, Note_on_c, 7, 65, 80
8, 54615, Note_on_c, 7, 65, 0
8, 54615, Note_on_c, 7, 62, 0
8, 54615, Note_on_c, 7, 60, 0
8, 54615, Note_on_c, 7, 57, 0
8, 55200, Note_on_c, 7, 63, 80
8, 55200, Note_on_c, 7, 60, 80
8, 55200, Note_on_c, 7, 57, 80
8, 55200, Note_on_c, 7, 66, 80
8, 55575, Note_on_c, 7, 66, 0
8, 55575, Note_on_c, 7, 63, 0
8, 55575, Note_on_c, 7, 60, 0
8, 55575, Note_on_c, 7, 57, 0
8, 58080, Note_on_c, 7, 64, 80
8, 58080, Note_on_c, 7, 60, 80
8, 58080, Note_on_c, 7, 57, 80
8, 58080, Note_on_c, 7, 66, 80
8, 58455, Note_on_c, 7, 66, 0
8, 58455, Note_on_c, 7, 64, 0
8, 58455, Note_on_c, 7, 60, 0
8, 58455, Note_on_c, 7, 57, 0
8, 59040, Note_on_c, 7, 62, 80
8, 59040, Note_on_c, 7, 60, 80
8, 59040, Note_on_c, 7, 56, 80
8, 59040, Note_on_c, 7, 65, 80
8, 59415, Note_on_c, 7, 65, 0
8, 59415, Note_on_c, 7, 62, 0
8, 59415, Note_on_c, 7, 60, 0
8, 59415, Note_on_c, 7, 56, 0
8, 60000, Note_on_c, 7, 62, 80
8, 60000, Note_on_c, 7, 59, 80
8, 60000, Note_on_c, 7, 55, 80
8, 60000, Note_on_c, 7, 64, 80
8, 60375, Note_on_c, 7, 64, 0
8, 60375, Note_on_c, 7, 62, 0
8, 60375, Note_on_c, 7, 59, 0
8, 60375, Note_on_c, 7, 55, 0
8, 60960, Note_on_c, 7, 60, 80
8, 60960, Note_on_c, 7, 57, 80
8, 60960, Note_on_c, 7, 55, 80
8, 60960, Note_on_c, 7, 64, 80
8, 61335, Note_on_c, 7, 64, 0
8, 61335, Note_on_c, 7, 60, 0
8, 61335, Note_on_c, 7, 57, 0
8, 61335, Note_on_c, 7, 55, 0
8, 61920, Note_on_c, 7, 62, 80
8, 61920, Note_on_c, 7, 60, 80
8, 61920, Note_on_c, 7, 57, 80
8, 61920, Note_on_c, 7, 65, 80
8, 62295, Note_on_c, 7, 65, 0
8, 62295, Note_on_c, 7, 62, 0
8, 62295, Note_on_c, 7, 60, 0
8, 62295, Note_on_c, 7, 57, 0
8, 62880, Note_on_c, 7, 65, 80
8, 62880, Note_on_c, 7, 62, 80
8, 62880, Note_on_c, 7, 59, 80
8, 62880, Note_on_c, 7, 69, 80
8, 63255, Note_on_c, 7, 69, 0
8, 63255, Note_on_c, 7, 65, 0
8, 63255, Note_on_c, 7, 62, 0
8, 63255, Note_on_c, 7, 59, 0
8, 63840, Note_on_c, 7, 64, 80
8, 63840, Note_on_c, 7, 60, 80
8, 63840, Note_on_c, 7, 57, 80
8, 63840, Note_on_c, 7, 67, 80
8, 64215, Note_on_c, 7, 67, 0
8, 64215, Note_on_c, 7, 64, 0
8, 64215, Note_on_c, 7, 60, 0
8, 64215, Note_on_c, 7, 57, 0
8, 64800, Note_on_c, 7, 62, 80
8, 64800, Note_on_c, 7, 60, 80
8, 64800, Note_on_c, 7, 57, 80
8, 64800, Note_on_c, 7, 65, 80
8, 65175, Note_on_c, 7, 65, 0
8, 65175, Note_on_c, 7, 62, 0
8, 65175, Note_on_c, 7, 60, 0
8, 65175, Note_on_c, 7, 57, 0
8, 65760, Note_on_c, 7, 60, 80
8, 65760, Note_on_c, 7, 57, 80
8, 65760, Note_on_c, 7, 55, 80
8, 65760, Note_on_c, 7, 64, 80
8, 66135, Note_on_c, 7, 64, 0
8, 66135, Note_on_c, 7, 60, 0
8, 66135, Note_on_c, 7, 57, 0
8, 66135, Note_on_c, 7, 55, 0
8, 66720, Note_on_c, 7, 65, 80
8, 66720, Note_on_c, 7, 62, 80
8, 66720, Note_on_c, 7, 59, 80
8, 66720, Note_on_c, 7, 69, 80
8, 67095, Note_on_c, 7, 69, 0
8, 67095, Note_on_c, 7, 65, 0
8, 67095, Note_on_c, 7, 62, 0
8, 67095, Note_on_c, 7, 59, 0
8, 67200, Note_on_c, 7, 48, 80
8, 67575, Note_on_c, 7, 48, 0
8, 67680, Note_on_c, 7, 67, 80
8, 67680, Note_on_c, 7, 64, 80
8, 67680, Note_on_c, 7, 60, 80
8, 68055, Note_on_c, 7, 60, 0
8, 68055, Note_on_c, 7, 64, 0
8, 68055, Note_on_c, 7, 67, 0
8, 68160, Note_on_c, 7, 43, 80
8, 68535, Note_on_c, 7, 43, 0
8, 68640, Note_on_c, 7, 67, 80
8, 68640, Note_on_c, 7, 64, 80
8, 68640, Note_on_c, 7, 60, 80
8, 69095, Note_on_c, 7, 60, 0
8, 69095, Note_on_c, 7, 64, 0
8, 69095, Note_on_c, 7, 67, 0
8, 69600, Note_on_c, 7, 64, 80
8, 69600, Note_on_c, 7, 60, 80
8, 69600, Note_on_c, 7, 57, 80
8, 69600, Note_on_c, 7, 67, 80
8, 69975, Note_on_c, 7, 67, 0
8, 69975, Note_on_c, 7, 64, 0
8, 69975, Note_on_c, 7, 60, 0
8, 69975, Note_on_c, 7, 57, 0
8, 70560, Note_on_c, 7, 64, 80
8, 70560, Note_on_c, 7, 62, 80
8, 70560, Note_on_c, 7, 58, 80
8, 70560, Note_on_c, 7, 67, 80
8, 70935, Note_on_c, 7, 67, 0
8, 70935, Note_on_c, 7, 64, 0
8, 70935, Note_on_c, 7, 62, 0
8, 70935, Note_on_c, 7, 58, 0
8, 71040, Note_on_c, 7, 41, 80
8, 71415, Note_on_c, 7, 41, 0
8, 71520, Note_on_c, 7, 60, 80
8, 71520, Note_on_c, 7, 57, 80
8, 71520, Note_on_c, 7, 53, 80
8, 71895, Note_on_c, 7, 53, 0
8, 71895, Note_on_c, 7, 57, 0
8, 71895, Note_on_c, 7, 60, 0
8, 72000, Note_on_c, 7, 36, 80
8, 72375, Note_on_c, 7, 36, 0
8, 72480, Note_on_c, 7, 60, 80
8, 72480, Note_on_c, 7, 57, 80
8, 72480, Note_on_c, 7, 53, 80
8, 72935, Note_on_c, 7, 53, 0
8, 72935, Note_on_c, 7, 57, 0
8, 72935, Note_on_c, 7, 60, 0
8, 73440, Note_on_c, 7, 62, 80
8, 73440, Note_on_c, 7, 60, 80
8, 73440, Note_on_c, 7, 57, 80
8, 73440, Note_on_c, 7, 65, 80
8, 73815, Note_on_c, 7, 65, 0
8, 73815, Note_on_c, 7, 62, 0
8, 73815, Note_on_c, 7, 60, 0
8, 73815, Note_on_c, 7, 57, 0
8, 74400, Note_on_c, 7, 65, 80
8, 74400, Note_on_c, 7, 62, 80
8, 74400, Note_on_c, 7, 59, 80
8, 74400, Note_on_c, 7, 69, 80
8, 74775, Note_on_c, 7, 69, 0
8, 74775, Note_on_c, 7, 65, 0
8, 74775, Note_on_c, 7, 62, 0
8, 74775, Note_on_c, 7, 59, 0
8, 74880, Note_on_c, 7, 40, 80
8, 75255, Note_on_c, 7, 40, 0
8, 75360, Note_on_c, 7, 59, 80
8, 75360, Note_on_c, 7, 55, 80
8, 75360, Note_on_c, 7, 52, 80
8, 75735, Note_on_c, 7, 52, 0
8, 75735, Note_on_c, 7, 55, 0
8, 75735, Note_on_c, 7, 59, 0
8, 75840, Note_on_c, 7, 35, 80
8, 76215, Note_on_c, 7, 35, 0
8, 76320, Note_on_c, 7, 59, 80
8, 76320, Note_on_c, 7, 55, 80
8, 76320, Note_on_c, 7, 52, 80
8, 76775, Note_on_c, 7, 52, 0
8, 76775, Note_on_c, 7, 55, 0
8, 76775, Note_on_c, 7, 59, 0
8, 76800, Note_on_c, 7, 45, 80
8, 77175, Note_on_c, 7, 45, 0
8, 77280, Note_on_c, 7, 64, 80
8, 77280, Note_on_c, 7, 60, 80
8, 77280, Note_on_c, 7, 57, 80
8, 77655, Note_on_c, 7, 57, 0
8, 77655, Note_on_c, 7, 60, 0
8, 77655, Note_on_c, 7, 64, 0
8, 77760, Note_on_c, 7, 40, 80
8, 78135, Note_on_c, 7, 40, 0
8, 78240, Note_on_c, 7, 64, 80
8, 78240, Note_on_c, 7, 60, 80
8, 78240, Note_on_c, 7, 57, 80
8, 78695, Note_on_c, 7, 57, 0
8, 78695, Note_on_c, 7, 60, 0
8, 78695, Note_on_c, 7, 64, 0
8, 79200, Note_on_c, 7, 64, 80
8, 79200, Note_on_c, 7, 60, 80
8, 79200, Note_on_c, 7, 59, 80
8, 79200, Note_on_c, 7, 66, 80
8, 79575, Note_on_c, 7, 66, 0
8, 79575, Note_on_c, 7, 64, 0
8, 79575, Note_on_c, 7, 60, 0
8, 79575, Note_on_c, 7, 59, 0
8, 80160, Note_on_c, 7, 64, 80
8, 80160, Note_on_c, 7, 60, 80
8, 80160, Note_on_c, 7, 58, 80
8, 80160, Note_on_c, 7, 66, 80
8, 80535, Note_on_c, 7, 66, 0
8, 80535, Note_on_c, 7, 64, 0
8, 80535, Note_on_c, 7, 60, 0
8, 80535, Note_on_c, 7, 58, 0
8, 81120, Note_on_c, 7, 62, 80
8, 81120, Note_on_c, 7, 60, 80
8, 81120, Note_on_c, 7, 57, 80
8, 81120, Note_on_c, 7, 65, 80
8, 81495, Note_on_c, 7, 65, 0
8, 81495, Note_on_c, 7, 62, 0
8, 81495, Note_on_c, 7, 60, 0
8, 81495, Note_on_c, 7, 57, 0
8, 82080, Note_on_c, 7, 59, 80
8, 82080, Note_on_c, 7, 57, 80
8, 82080, Note_on_c, 7, 53, 80
8, 82080, Note_on_c, 7, 62, 80
8, 82455, Note_on_c, 7, 62, 0
8, 82455, Note_on_c, 7, 59, 0
8, 82455, Note_on_c, 7, 57, 0
8, 82455, Note_on_c, 7, 53, 0
8, 82560, Note_on_c, 7, 48, 80
8, 82935, Note_on_c, 7, 48, 0
8, 83040, Note_on_c, 7, 67, 80
8, 83040, Note_on_c, 7, 64, 80
8, 83040, Note_on_c, 7, 60, 80
8, 83415, Note_on_c, 7, 60, 0
8, 83415, Note_on_c, 7, 64, 0
8, 83415, Note_on_c, 7, 67, 0
8, 83520, Note_on_c, 7, 43, 80
8, 83895, Note_on_c, 7, 43, 0
8, 84000, Note_on_c, 7, 67, 80
8, 84000, Note_on_c, 7, 64, 80
8, 84000, Note_on_c, 7, 60, 80
8, 84455, Note_on_c, 7, 60, 0
8, 84455, Note_on_c, 7, 64, 0
8, 84455, Note_on_c, 7, 67, 0
8, 84960, Note_on_c, 7, 62, 80
8, 84960, Note_on_c, 7, 59, 80
8, 84960, Note_on_c, 7, 55, 80
8, 84960, Note_on_c, 7, 64, 80
8, 85335, Note_on_c, 7, 64, 0
8, 85335, Note_on_c, 7, 62, 0
8, 85335, Note_on_c, 7, 59, 0
8, 85335, Note_on_c, 7, 55, 0
8, 85920, Note_on_c, 7, 62, 80
8, 85920, Note_on_c, 7, 58, 80
8, 85920, Note_on_c, 7, 55, 80
8, 85920, Note_on_c, 7, 64, 80
8, 86295, Note_on_c, 7, 64, 0
8, 86295, Note_on_c, 7, 62, 0
8, 86295, Note_on_c, 7, 58, 0
8, 86295, Note_on_c, 7, 55, 0
8, 86400, Note_on_c, 7, 41, 80
8, 86775, Note_on_c, 7, 41, 0
8, 86880, Note_on_c, 7, 60, 80
8, 86880, Note_on_c, 7, 57, 80
8, 86880, Note_on_c, 7, 53, 80
8, 87255, Note_on_c, 7, 53, 0
8, 87255, Note_on_c, 7, 57, 0
8, 87255, Note_on_c, 7, 60, 0
8, 87360, Note_on_c, 7, 36, 80
8, 87735, Note_on_c, 7, 36, 0
8, 87840, Note_on_c, 7, 60, 80
8, 87840, Note_on_c, 7, 57, 80
8, 87840, Note_on_c, 7, 53, 80
8, 88295, Note_on_c, 7, 53, 0
8, 88295, Note_on_c, 7, 57, 0
8, 88295, Note_on_c, 7, 60, 0
8, 88800, Note_on_c, 7, 62, 80
8, 88800, Note_on_c, 7, 60, 80
8, 88800, Note_on_c, 7, 57, 80
8, 88800, Note_on_c, 7, 65, 80
8, 89175, Note_on_c, 7, 65, 0
8, 89175, Note_on_c, 7, 62, 0
8, 89175, Note_on_c, 7, 60, 0
8, 89175, Note_on_c, 7, 57, 0
8, 89760, Note_on_c, 7, 65, 80
8, 89760, Note_on_c, 7, 62, 80
8, 89760, Note_on_c, 7, 59, 80
8, 89760, Note_on_c, 7, 69, 80
8, 90135, Note_on_c, 7, 69, 0
8, 90135, Note_on_c, 7, 65, 0
8, 90135, Note_on_c, 7, 62, 0
8, 90135, Note_on_c, 7, 59, 0
8, 90720, Note_on_c, 7, 62, 80
8, 90720, Note_on_c, 7, 59, 80
8, 90720, Note_on_c, 7, 55, 80
8, 90720, Note_on_c, 7, 64, 80
8, 91095, Note_on_c, 7, 64, 0
8, 91095, Note_on_c, 7, 62, 0
8, 91095, Note_on_c, 7, 59, 0
8, 91095, Note_on_c, 7, 55, 0
8, 91680, Note_on_c, 7, 61, 80
8, 91680, Note_on_c, 7, 58, 80
8, 91680, Note_on_c, 7, 55, 80
8, 91680, Note_on_c, 7, 64, 80
8, 92055, Note_on_c, 7, 64, 0
8, 92055, Note_on_c, 7, 61, 0
8, 92055, Note_on_c, 7, 58, 0
8, 92055, Note_on_c, 7, 55, 0
8, 92640, Note_on_c, 7, 62, 80
8, 92640, Note_on_c, 7, 60, 80
8, 92640, Note_on_c, 7, 57, 80
8, 92640, Note_on_c, 7, 65, 80
8, 93015, Note_on_c, 7, 65, 0
8, 93015, Note_on_c, 7, 62, 0
8, 93015, Note_on_c, 7, 60, 0
8, 93015, Note_on_c, 7, 57, 0
8, 93600, Note_on_c, 7, 65, 80
8, 93600, Note_on_c, 7, 62, 80
8, 93600, Note_on_c, 7, 59, 80
8, 93600, Note_on_c, 7, 69, 80
8, 93975, Note_on_c, 7, 69, 0
8, 93975, Note_on_c, 7, 65, 0
8, 93975, Note_on_c, 7, 62, 0
8, 93975, Note_on_c, 7, 59, 0
8, 94560, Note_on_c, 7, 60, 80
8, 94560, Note_on_c, 7, 57, 80
8, 94560, Note_on_c, 7, 55, 80
8, 94560, Note_on_c, 7, 64, 80
8, 94935, Note_on_c, 7, 64, 0
8, 94935, Note_on_c, 7, 60, 0
8, 94935, Note_on_c, 7, 57, 0
8, 94935, Note_on_c, 7, 55, 0
8, 95520, Note_on_c, 7, 63, 80
8, 95520, Note_on_c, 7, 60, 80
8, 95520, Note_on_c, 7, 57, 80
8, 95520, Note_on_c, 7, 67, 80
8, 95895, Note_on_c, 7, 67, 0
8, 95895, Note_on_c, 7, 63, 0
8, 95895, Note_on_c, 7, 60, 0
8, 95895, Note_on_c, 7, 57, 0
8, 96480, Note_on_c, 7, 60, 80
8, 96480, Note_on_c, 7, 57, 80
8, 96480, Note_on_c, 7, 55, 80
8, 96480, Note_on_c, 7, 64, 80
8, 96855, Note_on_c, 7, 64, 0
8, 96855, Note_on_c, 7, 60, 0
8, 96855, Note_on_c, 7, 57, 0
8, 96855, Note_on_c, 7, 55, 0
8, 97440, Note_on_c, 7, 59, 80
8, 97440, Note_on_c, 7, 57, 80
8, 97440, Note_on_c, 7, 53, 80
8, 97440, Note_on_c, 7, 64, 80
8, 97815, Note_on_c, 7, 64, 0
8, 97815, Note_on_c, 7, 59, 0
8, 97815, Note_on_c, 7, 57, 0
8, 97815, Note_on_c, 7, 53, 0
8, 97920, Note_on_c, 7, 48, 80
8, 98295, Note_on_c, 7, 48, 0
8, 98400, Note_on_c, 7, 67, 80
8, 98400, Note_on_c, 7, 64, 80
8, 98400, Note_on_c, 7, 60, 80
8, 98775, Note_on_c, 7, 60, 0
8, 98775, Note_on_c, 7, 64, 0
8, 98775, Note_on_c, 7, 67, 0
8, 98880, Note_on_c, 7, 43, 80
8, 99255, Note_on_c, 7, 43, 0
8, 99360, Note_on_c, 7, 67, 80
8, 99360, Note_on_c, 7, 64, 80
8, 99360, Note_on_c, 7, 60, 80
8, 99815, Note_on_c, 7, 60, 0
8, 99815, Note_on_c, 7, 64, 0
8, 99815, Note_on_c, 7, 67, 0
8, 100320, Note_on_c, 7, 62, 80
8, 100320, Note_on_c, 7, 60, 80
8, 100320, Note_on_c, 7, 57, 80
8, 100320, Note_on_c, 7, 65, 80
8, 100695, Note_on_c, 7, 65, 0
8, 100695, Note_on_c, 7, 62, 0
8, 100695, Note_on_c, 7, 60, 0
8, 100695, Note_on_c, 7, 57, 0
8, 101280, Note_on_c, 7, 65, 80
8, 101280, Note_on_c, 7, 62, 80
8, 101280, Note_on_c, 7, 59, 80
8, 101280, Note_on_c, 7, 69, 80
8, 101655, Note_on_c, 7, 69, 0
8, 101655, Note_on_c, 7, 65, 0
8, 101655, Note_on_c, 7, 62, 0
8, 101655, Note_on_c, 7, 59, 0
8, 102240, Note_on_c, 7, 60, 80
8, 102240, Note_on_c, 7, 57, 80
8, 102240, Note_on_c, 7, 55, 80
8, 102240, Note_on_c, 7, 64, 80
8, 102615, Note_on_c, 7, 64, 0
8, 102615, Note_on_c, 7, 60, 0
8, 102615, Note_on_c, 7, 57, 0
8, 102615, Note_on_c, 7, 55, 0
8, 103200, Note_on_c, 7, 60, 80
8, 103200, Note_on_c, 7, 57, 80
8, 103200, Note_on_c, 7, 55, 80
8, 103200, Note_on_c, 7, 64, 80
8, 103575, Note_on_c, 7, 64, 0
8, 103575, Note_on_c, 7, 60, 0
8, 103575, Note_on_c, 7, 57, 0
8, 103575, Note_on_c, 7, 55, 0
8, 104160, Note_on_c, 7, 62, 80
8, 104160, Note_on_c, 7, 60, 80
8, 104160, Note_on_c, 7, 57, 80
8, 104160, Note_on_c, 7, 65, 80
8, 104535, Note_on_c, 7, 65, 0
8, 104535, Note_on_c, 7, 62, 0
8, 104535, Note_on_c, 7, 60, 0
8, 104535, Note_on_c, 7, 57, 0
8, 105120, Note_on_c, 7, 65, 80
8, 105120, Note_on_c, 7, 62, 80
8, 105120, Note_on_c, 7, 59, 80
8, 105120, Note_on_c, 7, 69, 80
8, 105495, Note_on_c, 7, 69, 0
8, 105495, Note_on_c, 7, 65, 0
8, 105495, Note_on_c, 7, 62, 0
8, 105495, Note_on_c, 7, 59, 0
8, 105600, Note_on_c, 7, 45, 80
8, 105975, Note_on_c, 7, 45, 0
8, 106080, Note_on_c, 7, 64, 80
8, 106080, Note_on_c, 7, 60, 80
8, 106080, Note_on_c, 7, 57, 80
8, 106455, Note_on_c, 7, 57, 0
8, 106455, Note_on_c, 7, 60, 0
8, 106455, Note_on_c, 7, 64, 0
8, 106560, Note_on_c, 7, 40, 80
8, 106935, Note_on_c, 7, 40, 0
8, 107040, Note_on_c, 7, 64, 80
8, 107040, Note_on_c, 7, 60, 80
8, 107040, Note_on_c, 7, 57, 80
8, 107495, Note_on_c, 7, 57, 0
8, 107495, Note_on_c, 7, 60, 0
8, 107495, Note_on_c, 7, 64, 0
8, 108000, Note_on_c, 7, 64, 80
8, 108000, Note_on_c, 7, 60, 80
8, 108000, Note_on_c, 7, 57, 80
8, 108000, Note_on_c, 7, 67, 80
8, 108375, Note_on_c, 7, 67, 0
8, 108375, Note_on_c, 7, 64, 0
8, 108375, Note_on_c, 7, 60, 0
8, 108375, Note_on_c, 7, 57, 0
8, 108960, Note_on_c, 7, 60, 80
8, 108960, Note_on_c, 7, 57, 80
8, 108960, Note_on_c, 7, 55, 80
8, 108960, Note_on_c, 7, 64, 80
8, 109335, Note_on_c, 7, 64, 0
8, 109335, Note_on_c, 7, 60, 0
8, 109335, Note_on_c, 7, 57, 0
8, 109335, Note_on_c, 7, 55, 0
8, 109920, Note_on_c, 7, 64, 80
8, 109920, Note_on_c, 7, 60, 80
8, 109920, Note_on_c, 7, 59, 80
8, 109920, Note_on_c, 7, 66, 80
8, 110295, Note_on_c, 7, 66, 0
8, 110295, Note_on_c, 7, 64, 0
8, 110295, Note_on_c, 7, 60, 0
8, 110295, Note_on_c, 7, 59, 0
8, 110880, Note_on_c, 7, 64, 80
8, 110880, Note_on_c, 7, 60, 80
8, 110880, Note_on_c, 7, 58, 80
8, 110880, Note_on_c, 7, 66, 80
8, 111255, Note_on_c, 7, 66, 0
8, 111255, Note_on_c, 7, 64, 0
8, 111255, Note_on_c, 7, 60, 0
8, 111255, Note_on_c, 7, 58, 0
8, 111840, Note_on_c, 7, 62, 80
8, 111840, Note_on_c, 7, 60, 80
8, 111840, Note_on_c, 7, 57, 80
8, 111840, Note_on_c, 7, 65, 80
8, 112215, Note_on_c, 7, 65, 0
8, 112215, Note_on_c, 7, 62, 0
8, 112215, Note_on_c, 7, 60, 0
8, 112215, Note_on_c, 7, 57, 0
8, 112800, Note_on_c, 7, 65, 80
8, 112800, Note_on_c, 7, 62, 80
8, 112800, Note_on_c, 7, 59, 80
8, 112800, Note_on_c, 7, 69, 80
8, 113175, Note_on_c, 7, 69, 0
8, 113175, Note_on_c, 7, 65, 0
8, 113175, Note_on_c, 7, 62, 0
8, 113175, Note_on_c, 7, 59, 0
8, 113280, Note_on_c, 7, 48, 80
8, 113655, Note_on_c, 7, 48, 0
8, 113760, Note_on_c, 7, 67, 80
8, 113760, Note_on_c, 7, 64, 80
8, 113760, Note_on_c, 7, 62, 80
8, 114135, Note_on_c, 7, 62, 0
8, 114135, Note_on_c, 7, 64, 0
8, 114135, Note_on_c, 7, 67, 0
8, 114240, Note_on_c, 7, 43, 80
8, 114615, Note_on_c, 7, 43, 0
8, 114720, Note_on_c, 7, 67, 80
8, 114720, Note_on_c, 7, 64, 80
8, 114720, Note_on_c, 7, 62, 80
8, 115175, Note_on_c, 7, 62, 0
8, 115175, Note_on_c, 7, 64, 0
8, 115175, Note_on_c, 7, 67, 0
8, 115680, Note_on_c, 7, 62, 80
8, 115680, Note_on_c, 7, 60, 80
8, 115680, Note_on_c, 7, 57, 80
8, 115680, Note_on_c, 7, 65, 80
8, 116055, Note_on_c, 7, 65, 0
8, 116055, Note_on_c, 7, 62, 0
8, 116055, Note_on_c, 7, 60, 0
8, 116055, Note_on_c, 7, 57, 0
8, 116640, Note_on_c, 7, 63, 80
8, 116640, Note_on_c, 7, 60, 80
8, 116640, Note_on_c, 7, 57, 80
8, 116640, Note_on_c, 7, 66, 80
8, 117015, Note_on_c, 7, 66, 0
8, 117015, Note_on_c, 7, 63, 0
8, 117015, Note_on_c, 7, 60, 0
8, 117015, Note_on_c, 7, 57, 0
8, 119520, Note_on_c, 7, 64, 80
8, 119520, Note_on_c, 7, 60, 80
8, 119520, Note_on_c, 7, 57, 80
8, 119520, Note_on_c, 7, 66, 80
8, 119895, Note_on_c, 7, 66, 0
8, 119895, Note_on_c, 7, 64, 0
8, 119895, Note_on_c, 7, 60, 0
8, 119895, Note_on_c, 7, 57, 0
8, 120480, Note_on_c, 7, 62, 80
8, 120480, Note_on_c, 7, 60, 80
8, 120480, Note_on_c, 7, 56, 80
8, 120480, Note_on_c, 7, 65, 80
8, 120855, Note_on_c, 7, 65, 0
8, 120855, Note_on_c, 7, 62, 0
8, 120855, Note_on_c, 7, 60, 0
8, 120855, Note_on_c, 7, 56, 0
8, 121440, Note_on_c, 7, 64, 80
8, 121440, Note_on_c, 7, 62, 80
8, 121440, Note_on_c, 7, 59, 80
8, 121440, Note_on_c, 7, 67, 80
8, 121815, Note_on_c, 7, 67, 0
8, 121815, Note_on_c, 7, 64, 0
8, 121815, Note_on_c, 7, 62, 0
8, 121815, Note_on_c, 7, 59, 0
8, 122400, Note_on_c, 7, 60, 80
8, 122400, Note_on_c, 7, 57, 80
8, 122400, Note_on_c, 7, 55, 80
8, 122400, Note_on_c, 7, 64, 80
8, 122775, Note_on_c, 7, 64, 0
8, 122775, Note_on_c, 7, 60, 0
8, 122775, Note_on_c, 7, 57, 0
8, 122775, Note_on_c, 7, 55, 0
8, 123360, Note_on_c, 7, 62, 80
8, 123360, Note_on_c, 7, 60, 80
8, 123360, Note_on_c, 7, 57, 80
8, 123360, Note_on_c, 7, 65, 80
8, 123735, Note_on_c, 7, 65, 0
8, 123735, Note_on_c, 7, 62, 0
8, 123735, Note_on_c, 7, 60, 0
8, 123735, Note_on_c, 7, 57, 0
8, 124320, Note_on_c, 7, 65, 80
8, 124320, Note_on_c, 7, 62, 80
8, 124320, Note_on_c, 7, 59, 80
8, 124320, Note_on_c, 7, 69, 80
8, 124695, Note_on_c, 7, 69, 0
8, 124695, Note_on_c, 7, 65, 0
8, 124695, Note_on_c, 7, 62, 0
8, 124695, Note_on_c, 7, 59, 0
8, 125280, Note_on_c, 7, 60, 80
8, 125280, Note_on_c, 7, 57, 80
8, 125280, Note_on_c, 7, 55, 80
8, 125280, Note_on_c, 7, 64, 80
8, 125655, Note_on_c, 7, 64, 0
8, 125655, Note_on_c, 7, 60, 0
8, 125655, Note_on_c, 7, 57, 0
8, 125655, Note_on_c, 7, 55, 0
8, 126240, Note_on_c, 7, 62, 80
8, 126240, Note_on_c, 7, 60, 80
8, 126240, Note_on_c, 7, 57, 80
8, 126240, Note_on_c, 7, 65, 80
8, 126615, Note_on_c, 7, 65, 0
8, 126615, Note_on_c, 7, 62, 0
8, 126615, Note_on_c, 7, 60, 0
8, 126615, Note_on_c, 7, 57, 0
8, 127200, Note_on_c, 7, 60, 80
8, 127200, Note_on_c, 7, 57, 80
8, 127200, Note_on_c, 7, 55, 80
8, 127200, Note_on_c, 7, 64, 80
8, 127575, Note_on_c, 7, 64, 0
8, 127575, Note_on_c, 7, 60, 0
8, 127575, Note_on_c, 7, 57, 0
8, 127575, Note_on_c, 7, 55, 0
8, 128160, Note_on_c, 7, 65, 80
8, 128160, Note_on_c, 7, 62, 80
8, 128160, Note_on_c, 7, 59, 80
8, 128160, Note_on_c, 7, 69, 80
8, 128535, Note_on_c, 7, 69, 0
8, 128535, Note_on_c, 7, 65, 0
8, 128535, Note_on_c, 7, 62, 0
8, 128535, Note_on_c, 7, 59, 0
8, 128640, Note_on_c, 7, 48, 80
8, 129015, Note_on_c, 7, 48, 0
8, 129120, Note_on_c, 7, 67, 80
8, 129120, Note_on_c, 7, 64, 80
8, 129120, Note_on_c, 7, 60, 80
8, 129495, Note_on_c, 7, 60, 0
8, 129495, Note_on_c, 7, 64, 0
8, 129495, Note_on_c, 7, 67, 0
8, 129600, Note_on_c, 7, 43, 80
8, 129975, Note_on_c, 7, 43, 0
8, 130080, Note_on_c, 7, 67, 80
8, 130080, Note_on_c, 7, 64, 80
8, 130080, Note_on_c, 7, 60, 80
8, 130535, Note_on_c, 7, 60, 0
8, 130535, Note_on_c, 7, 64, 0
8, 130535, Note_on_c, 7, 67, 0
8, 131040, Note_on_c, 7, 60, 80
8, 131040, Note_on_c, 7, 57, 80
8, 131040, Note_on_c, 7, 55, 80
8, 131040, Note_on_c, 7, 64, 80
8, 131415, Note_on_c, 7, 64, 0
8, 131415, Note_on_c, 7, 60, 0
8, 131415, Note_on_c, 7, 57, 0
8, 131415, Note_on_c, 7, 55, 0
8, 132000, Note_on_c, 7, 62, 80
8, 132000, Note_on_c, 7, 58, 80
8, 132000, Note_on_c, 7, 55, 80
8, 132000, Note_on_c, 7, 64, 80
8, 132375, Note_on_c, 7, 64, 0
8, 132375, Note_on_c, 7, 62, 0
8, 132375, Note_on_c, 7, 58, 0
8, 132375, Note_on_c, 7, 55, 0
8, 132480, Note_on_c, 7, 41, 80
8, 132855, Note_on_c, 7, 41, 0
8, 132960, Note_on_c, 7, 60, 80
8, 132960, Note_on_c, 7, 57, 80
8, 132960, Note_on_c, 7, 53, 80
8, 133335, Note_on_c, 7, 53, 0
8, 133335, Note_on_c, 7, 57, 0
8, 133335, Note_on_c, 7, 60, 0
8, 133440, Note_on_c, 7, 36, 80
8, 133815, Note_on_c, 7, 36, 0
8, 133920, Note_on_c, 7, 60, 80
8, 133920, Note_on_c, 7, 57, 80
8, 133920, Note_on_c, 7, 53, 80
8, 134375, Note_on_c, 7, 53, 0
8, 134375, Note_on_c, 7, 57, 0
8, 134375, Note_on_c, 7, 60, 0
8, 134880, Note_on_c, 7, 62, 80
8, 134880, Note_on_c, 7, 60, 80
8, 134880, Note_on_c, 7, 57, 80
8, 134880, Note_on_c, 7, 65, 80
8, 135255, Note_on_c, 7, 65, 0
8, 135255, Note_on_c, 7, 62, 0
8, 135255, Note_on_c, 7, 60, 0
8, 135255, Note_on_c, 7, 57, 0
8, 135840, Note_on_c, 7, 59, 80
8, 135840, Note_on_c, 7, 57, 80
8, 135840, Note_on_c, 7, 53, 80
8, 135840, Note_on_c, 7, 62, 80
8, 136215, Note_on_c, 7, 62, 0
8, 136215, Note_on_c, 7, 59, 0
8, 136215, Note_on_c, 7, 57, 0
8, 136215, Note_on_c, 7, 53, 0
8, 136320, Note_on_c, 7, 40, 80
8, 136695, Note_on_c, 7, 40, 0
8, 136800, Note_on_c, 7, 59, 80
8, 136800, Note_on_c, 7, 55, 80
8, 136800, Note_on_c, 7, 52, 80
8, 137175, Note_on_c, 7, 52, 0
8, 137175, Note_on_c, 7, 55, 0
8, 137175, Note_on_c, 7, 59, 0
8, 137280, Note_on_c, 7, 35, 80
8, 137655, Note_on_c, 7, 35, 0
8, 137760, Note_on_c, 7, 59, 80
8, 137760, Note_on_c, 7, 55, 80
8, 137760, Note_on_c, 7, 52, 80
8, 138215, Note_on_c, 7, 52, 0
8, 138215, Note_on_c, 7, 55, 0
8, 138215, Note_on_c, 7, 59, 0
8, 138240, Note_on_c, 7, 45, 80
8, 138615, Note_on_c, 7, 45, 0
8, 138720, Note_on_c, 7, 64, 80
8, 138720, Note_on_c, 7, 60, 80
8, 138720, Note_on_c, 7, 57, 80
8, 139095, Note_on_c, 7, 57, 0
8, 139095, Note_on_c, 7, 60, 0
8, 139095, Note_on_c, 7, 64, 0
8, 139200, Note_on_c, 7, 40, 80
8, 139575, Note_on_c, 7, 40, 0
8, 139680, Note_on_c, 7, 64, 80
8, 139680, Note_on_c, 7, 60, 80
8, 139680, Note_on_c, 7, 57, 80
8, 140135, Note_on_c, 7, 57, 0
8, 140135, Note_on_c, 7, 60, 0
8, 140135, Note_on_c, 7, 64, 0
8, 140640, Note_on_c, 7, 64, 80
8, 140640, Note_on_c, 7, 60, 80
8, 140640, Note_on_c, 7, 59, 80
8, 140640, Note_on_c, 7, 66, 80
8, 141015, Note_on_c, 7, 66, 0
8, 141015, Note_on_c, 7, 64, 0
8, 141015, Note_on_c, 7, 60, 0
8, 141015, Note_on_c, 7, 59, 0
8, 141600, Note_on_c, 7, 64, 80
8, 141600, Note_on_c, 7, 60, 80
8, 141600, Note_on_c, 7, 58, 80
8, 141600, Note_on_c, 7, 66, 80
8, 141975, Note_on_c, 7, 66, 0
8, 141975, Note_on_c, 7, 64, 0
8, 141975, Note_on_c, 7, 60, 0
8, 141975, Note_on_c, 7, 58, 0
8, 142560, Note_on_c, 7, 62, 80
8, 142560, Note_on_c, 7, 60, 80
8, 142560, Note_on_c, 7, 57, 80
8, 142560, Note_on_c, 7, 65, 80
8, 142935, Note_on_c, 7, 65, 0
8, 142935, Note_on_c, 7, 62, 0
8, 142935, Note_on_c, 7, 60, 0
8, 142935, Note_on_c, 7, 57, 0
8, 143520, Note_on_c, 7, 65, 80
8, 143520, Note_on_c, 7, 62, 80
8, 143520, Note_on_c, 7, 59, 80
8, 143520, Note_on_c, 7, 69, 80
8, 143895, Note_on_c, 7, 69, 0
8, 143895, Note_on_c, 7, 65, 0
8, 143895, Note_on_c, 7, 62, 0
8, 143895, Note_on_c, 7, 59, 0
8, 144000, Note_on_c, 7, 48, 80
8, 144375, Note_on_c, 7, 48, 0
8, 144480, Note_on_c, 7, 67, 80
8, 144480, Note_on_c, 7, 64, 80
8, 144480, Note_on_c, 7, 60, 80
8, 144855, Note_on_c, 7, 60, 0
8, 144855, Note_on_c, 7, 64, 0
8, 144855, Note_on_c, 7, 67, 0
8, 144960, Note_on_c, 7, 43, 80
8, 145335, Note_on_c, 7, 43, 0
8, 145440, Note_on_c, 7, 67, 80
8, 145440, Note_on_c, 7, 64, 80
8, 145440, Note_on_c, 7, 60, 80
8, 145895, Note_on_c, 7, 60, 0
8, 145895, Note_on_c, 7, 64, 0
8, 145895, Note_on_c, 7, 67, 0
8, 146400, Note_on_c, 7, 62, 80
8, 146400, Note_on_c, 7, 59, 80
8, 146400, Note_on_c, 7, 55, 80
8, 146400, Note_on_c, 7, 64, 80
8, 146775, Note_on_c, 7, 64, 0
8, 146775, Note_on_c, 7, 62, 0
8, 146775, Note_on_c, 7, 59, 0
8, 146775, Note_on_c, 7, 55, 0
8, 147360, Note_on_c, 7, 62, 80
8, 147360, Note_on_c, 7, 58, 80
8, 147360, Note_on_c, 7, 55, 80
8, 147360, Note_on_c, 7, 64, 80
8, 147735, Note_on_c, 7, 64, 0
8, 147735, Note_on_c, 7, 62, 0
8, 147735, Note_on_c, 7, 58, 0
8, 147735, Note_on_c, 7, 55, 0
8, 147840, Note_on_c, 7, 41, 80
8, 148215, Note_on_c, 7, 41, 0
8, 148320, Note_on_c, 7, 60, 80
8, 148320, Note_on_c, 7, 57, 80
8, 148320, Note_on_c, 7, 53, 80
8, 148695, Note_on_c, 7, 53, 0
8, 148695, Note_on_c, 7, 57, 0
8, 148695, Note_on_c, 7, 60, 0
8, 148800, Note_on_c, 7, 36, 80
8, 149175, Note_on_c, 7, 36, 0
8, 149280, Note_on_c, 7, 60, 80
8, 149280, Note_on_c, 7, 57, 80
8, 149280, Note_on_c, 7, 53, 80
8, 149735, Note_on_c, 7, 53, 0
8, 149735, Note_on_c, 7, 57, 0
8, 149735, Note_on_c, 7, 60, 0
8, 150240, Note_on_c, 7, 62, 80
8, 150240, Note_on_c, 7, 60, 80
8, 150240, Note_on_c, 7, 57, 80
8, 150240, Note_on_c, 7, 65, 80
8, 150615, Note_on_c, 7, 65, 0
8, 150615, Note_on_c, 7, 62, 0
8, 150615, Note_on_c, 7, 60, 0
8, 150615, Note_on_c, 7, 57, 0
8, 151200, Note_on_c, 7, 65, 80
8, 151200, Note_on_c, 7, 62, 80
8, 151200, Note_on_c, 7, 59, 80
8, 151200, Note_on_c, 7, 69, 80
8, 151575, Note_on_c, 7, 69, 0
8, 151575, Note_on_c, 7, 65, 0
8, 151575, Note_on_c, 7, 62, 0
8, 151575, Note_on_c, 7, 59, 0
8, 152160, Note_on_c, 7, 62, 80
8, 152160, Note_on_c, 7, 59, 80
8, 152160, Note_on_c, 7, 55, 80
8, 152160, Note_on_c, 7, 64, 80
8, 152535, Note_on_c, 7, 64, 0
8, 152535, Note_on_c, 7, 62, 0
8, 152535, Note_on_c, 7, 59, 0
8, 152535, Note_on_c, 7, 55, 0
8, 153120, Note_on_c, 7, 61, 80
8, 153120, Note_on_c, 7, 58, 80
8, 153120, Note_on_c, 7, 55, 80
8, 153120, Note_on_c, 7, 64, 80
8, 153495, Note_on_c, 7, 64, 0
8, 153495, Note_on_c, 7, 61, 0
8, 153495, Note_on_c, 7, 58, 0
8, 153495, Note_on_c, 7, 55, 0
8, 154080, Note_on_c, 7, 62, 80
8, 154080, Note_on_c, 7, 60, 80
8, 154080, Note_on_c, 7, 57, 80
8, 154080, Note_on_c, 7, 65, 80
8, 154455, Note_on_c, 7, 65, 0
8, 154455, Note_on_c, 7, 62, 0
8, 154455, Note_on_c, 7, 60, 0
8, 154455, Note_on_c, 7, 57, 0
8, 155040, Note_on_c, 7, 59, 80
8, 155040, Note_on_c, 7, 57, 80
8, 155040, Note_on_c, 7, 53, 80
8, 155040, Note_on_c, 7, 62, 80
8, 155415, Note_on_c, 7, 62, 0
8, 155415, Note_on_c, 7, 59, 0
8, 155415, Note_on_c, 7, 57, 0
8, 155415, Note_on_c, 7, 53, 0
8, 156000, Note_on_c, 7, 60, 80
8, 156000, Note_on_c, 7, 57, 80
8, 156000, Note_on_c, 7, 55, 80
8, 156000, Note_on_c, 7, 64, 80
8, 156375, Note_on_c, 7, 64, 0
8, 156375, Note_on_c, 7, 60, 0
8, 156375, Note_on_c, 7, 57, 0
8, 156375, Note_on_c, 7, 55, 0
8, 156960, Note_on_c, 7, 63, 80
8, 156960, Note_on_c, 7, 60, 80
8, 156960, Note_on_c, 7, 57, 80
8, 156960, Note_on_c, 7, 67, 80
8, 157335, Note_on_c, 7, 67, 0
8, 157335, Note_on_c, 7, 63, 0
8, 157335, Note_on_c, 7, 60, 0
8, 157335, Note_on_c, 7, 57, 0
8, 157920, Note_on_c, 7, 60, 80
8, 157920, Note_on_c, 7, 57, 80
8, 157920, Note_on_c, 7, 55, 80
8, 157920, Note_on_c, 7, 64, 80
8, 158295, Note_on_c, 7, 64, 0
8, 158295, Note_on_c, 7, 60, 0
8, 158295, Note_on_c, 7, 57, 0
8, 158295, Note_on_c, 7, 55, 0
8, 158880, Note_on_c, 7, 65, 80
8, 158880, Note_on_c, 7, 64, 80
8, 158880, Note_on_c, 7, 59, 80
8, 158880, Note_on_c, 7, 69, 80
8, 159255, Note_on_c, 7, 69, 0
8, 159255, Note_on_c, 7, 65, 0
8, 159255, Note_on_c, 7, 64, 0
8, 159255, Note_on_c, 7, 59, 0
8, 159360, Note_on_c, 7, 48, 80
8, 159735, Note_on_c, 7, 48, 0
8, 159840, Note_on_c, 7, 67, 80
8, 159840, Note_on_c, 7, 64, 80
8, 159840, Note_on_c, 7, 60, 80
8, 160215, Note_on_c, 7, 60, 0
8, 160215, Note_on_c, 7, 64, 0
8, 160215, Note_on_c, 7, 67, 0
8, 160320, Note_on_c, 7, 43, 80
8, 160695, Note_on_c, 7, 43, 0
8, 160800, Note_on_c, 7, 67, 80
8, 160800, Note_on_c, 7, 64, 80
8, 160800, Note_on_c, 7, 60, 80
8, 161255, Note_on_c, 7, 60, 0
8, 161255, Note_on_c, 7, 64, 0
8, 161255, Note_on_c, 7, 67, 0
8, 161760, Note_on_c, 7, 62, 80
8, 161760, Note_on_c, 7, 60, 80
8, 161760, Note_on_c, 7, 57, 80
8, 161760, Note_on_c, 7, 65, 80
8, 162135, Note_on_c, 7, 65, 0
8, 162135, Note_on_c, 7, 62, 0
8, 162135, Note_on_c, 7, 60, 0
8, 162135, Note_on_c, 7, 57, 0
8, 162720, Note_on_c, 7, 65, 80
8, 162720, Note_on_c, 7, 62, 80
8, 162720, Note_on_c, 7, 59, 80
8, 162720, Note_on_c, 7, 69, 80
8, 163095, Note_on_c, 7, 69, 0
8, 163095, Note_on_c, 7, 65, 0
8, 163095, Note_on_c, 7, 62, 0
8, 163095, Note_on_c, 7, 59, 0
8, 163680, Note_on_c, 7, 60, 80
8, 163680, Note_on_c, 7, 57, 80
8, 163680, Note_on_c, 7, 55, 80
8, 163680, Note_on_c, 7, 64, 80
8, 164055, Note_on_c, 7, 64, 0
8, 164055, Note_on_c, 7, 60, 0
8, 164055, Note_on_c, 7, 57, 0
8, 164055, Note_on_c, 7, 55, 0
8, 164640, Note_on_c, 7, 60, 80
8, 164640, Note_on_c, 7, 57, 80
8, 164640, Note_on_c, 7, 55, 80
8, 164640, Note_on_c, 7, 64, 80
8, 165015, Note_on_c, 7, 64, 0
8, 165015, Note_on_c, 7, 60, 0
8, 165015, Note_on_c, 7, 57, 0
8, 165015, Note_on_c, 7, 55, 0
8, 165600, Note_on_c, 7, 62, 80
8, 165600, Note_on_c, 7, 60, 80
8, 165600, Note_on_c, 7, 57, 80
8, 165600, Note_on_c, 7, 65, 80
8, 165975, Note_on_c, 7, 65, 0
8, 165975, Note_on_c, 7, 62, 0
8, 165975, Note_on_c, 7, 60, 0
8, 165975, Note_on_c, 7, 57, 0
8, 166560, Note_on_c, 7, 65, 80
8, 166560, Note_on_c, 7, 62, 80
8, 166560, Note_on_c, 7, 59, 80
8, 166560, Note_on_c, 7, 69, 80
8, 166935, Note_on_c, 7, 69, 0
8, 166935, Note_on_c, 7, 65, 0
8, 166935, Note_on_c, 7, 62, 0
8, 166935, Note_on_c, 7, 59, 0
8, 167040, Note_on_c, 7, 45, 80
8, 167415, Note_on_c, 7, 45, 0
8, 167520, Note_on_c, 7, 64, 80
8, 167520, Note_on_c, 7, 60, 80
8, 167520, Note_on_c, 7, 57, 80
8, 167895, Note_on_c, 7, 57, 0
8, 167895, Note_on_c, 7, 60, 0
8, 167895, Note_on_c, 7, 64, 0
8, 168000, Note_on_c, 7, 40, 80
8, 168375, Note_on_c, 7, 40, 0
8, 168480, Note_on_c, 7, 64, 80
8, 168480, Note_on_c, 7, 60, 80
8, 168480, Note_on_c, 7, 57, 80
8, 168935, Note_on_c, 7, 57, 0
8, 168935, Note_on_c, 7, 60, 0
8, 168935, Note_on_c, 7, 64, 0
8, 169440, Note_on_c, 7, 64, 80
8, 169440, Note_on_c, 7, 60, 80
8, 169440, Note_on_c, 7, 57, 80
8, 169440, Note_on_c, 7, 67, 80
8, 169815, Note_on_c, 7, 67, 0
8, 169815, Note_on_c, 7, 64, 0
8, 169815, Note_on_c, 7, 60, 0
8, 169815, Note_on_c, 7, 57, 0
8, 170400, Note_on_c, 7, 60, 80
8, 170400, Note_on_c, 7, 57, 80
8, 170400, Note_on_c, 7, 55, 80
8, 170400, Note_on_c, 7, 64, 80
8, 170775, Note_on_c, 7, 64, 0
8, 170775, Note_on_c, 7, 60, 0
8, 170775, Note_on_c, 7, 57, 0
8, 170775, Note_on_c, 7, 55, 0
8, 171360, Note_on_c, 7, 64, 80
8, 171360, Note_on_c, 7, 60, 80
8, 171360, Note_on_c, 7, 59, 80
8, 171360, Note_on_c, 7, 66, 80
8, 171735, Note_on_c, 7, 66, 0
8, 171735, Note_on_c, 7, 64, 0
8, 171735, Note_on_c, 7, 60, 0
8, 171735, Note_on_c, 7, 59, 0
8, 172320, Note_on_c, 7, 64, 80
8, 172320, Note_on_c, 7, 60, 80
8, 172320, Note_on_c, 7, 58, 80
8, 172320, Note_on_c, 7, 66, 80
8, 172695, Note_on_c, 7, 66, 0
8, 172695, Note_on_c, 7, 64, 0
8, 172695, Note_on_c, 7, 60, 0
8, 172695, Note_on_c, 7, 58, 0
8, 173280, Note_on_c, 7, 62, 80
8, 173280, Note_on_c, 7, 60, 80
8, 173280, Note_on_c, 7, 57, 80
8, 173280, Note_on_c, 7, 65, 80
8, 173655, Note_on_c, 7, 65, 0
8, 173655, Note_on_c, 7, 62, 0
8, 173655, Note_on_c, 7, 60, 0
8, 173655, Note_on_c, 7, 57, 0
8, 174240, Note_on_c, 7, 65, 80
8, 174240, Note_on_c, 7, 62, 80
8, 174240, Note_on_c, 7, 59, 80
8, 174240, Note_on_c, 7, 69, 80
8, 174615, Note_on_c, 7, 69, 0
8, 174615, Note_on_c, 7, 65, 0
8, 174615, Note_on_c, 7, 62, 0
8, 174615, Note_on_c, 7, 59, 0
8, 174720, Note_on_c, 7, 48, 80
8, 175095, Note_on_c, 7, 48, 0
8, 175200, Note_on_c, 7, 67, 80
8, 175200, Note_on_c, 7, 64, 80
8, 175200, Note_on_c, 7, 62, 80
8, 175575, Note_on_c, 7, 62, 0
8, 175575, Note_on_c, 7, 64, 0
8, 175575, Note_on_c, 7, 67, 0
8, 175680, Note_on_c, 7, 43, 80
8, 176055, Note_on_c, 7, 43, 0
8, 176160, Note_on_c, 7, 67, 80
8, 176160, Note_on_c, 7, 64, 80
8, 176160, Note_on_c, 7, 62, 80
8, 176615, Note_on_c, 7, 62, 0
8, 176615, Note_on_c, 7, 64, 0
8, 176615, Note_on_c, 7, 67, 0
8, 177120, Note_on_c, 7, 62, 80
8, 177120, Note_on_c, 7, 60, 80
8, 177120, Note_on_c, 7, 57, 80
8, 177120, Note_on_c, 7, 65, 80
8, 177495, Note_on_c, 7, 65, 0
8, 177495, Note_on_c, 7, 62, 0
8, 177495, Note_on_c, 7, 60, 0
8, 177495, Note_on_c, 7, 57, 0
8, 178080, Note_on_c, 7, 63, 80
8, 178080, Note_on_c, 7, 60, 80
8, 178080, Note_on_c, 7, 57, 80
8, 178080, Note_on_c, 7, 66, 80
8, 178455, Note_on_c, 7, 66, 0
8, 178455, Note_on_c, 7, 63, 0
8, 178455, Note_on_c, 7, 60, 0
8, 178455, Note_on_c, 7, 57, 0
8, 180960, Note_on_c, 7, 64, 80
8, 180960, Note_on_c, 7, 60, 80
8, 180960, Note_on_c, 7, 57, 80
8, 180960, Note_on_c, 7, 66, 80
8, 181335, Note_on_c, 7, 66, 0
8, 181335, Note_on_c, 7, 64, 0
8, 181335, Note_on_c, 7, 60, 0
8, 181335, Note_on_c, 7, 57, 0
8, 181920, Note_on_c, 7, 62, 80
8, 181920, Note_on_c, 7, 60, 80
8, 181920, Note_on_c, 7, 56, 80
8, 181920, Note_on_c, 7, 65, 80
8, 182295, Note_on_c, 7, 65, 0
8, 182295, Note_on_c, 7, 62, 0
8, 182295, Note_on_c, 7, 60, 0
8, 182295, Note_on_c, 7, 56, 0
8, 182880, Note_on_c, 7, 62, 80
8, 182880, Note_on_c, 7, 59, 80
8, 182880, Note_on_c, 7, 55, 80
8, 182880, Note_on_c, 7, 64, 80
8, 183255, Note_on_c, 7, 64, 0
8, 183255, Note_on_c, 7, 62, 0
8, 183255, Note_on_c, 7, 59, 0
8, 183255, Note_on_c, 7, 55, 0
8, 183840, Note_on_c, 7, 60, 80
8, 183840, Note_on_c, 7, 57, 80
8, 183840, Note_on_c, 7, 55, 80
8, 183840, Note_on_c, 7, 64, 80
8, 184215, Note_on_c, 7, 64, 0
8, 184215, Note_on_c, 7, 60, 0
8, 184215, Note_on_c, 7, 57, 0
8, 184215, Note_on_c, 7, 55, 0
8, 184800, Note_on_c, 7, 62, 80
8, 184800, Note_on_c, 7, 60, 80
8, 184800, Note_on_c, 7, 57, 80
8, 184800, Note_on_c, 7, 65, 80
8, 185175, Note_on_c, 7, 65, 0
8, 185175, Note_on_c, 7, 62, 0
8, 185175, Note_on_c, 7, 60, 0
8, 185175, Note_on_c, 7, 57, 0
8, 185760, Note_on_c, 7, 65, 80
8, 185760, Note_on_c, 7, 62, 80
8, 185760, Note_on_c, 7, 59, 80
8, 185760, Note_on_c, 7, 69, 80
8, 186135, Note_on_c, 7, 69, 0
8, 186135, Note_on_c, 7, 65, 0
8, 186135, Note_on_c, 7, 62, 0
8, 186135, Note_on_c, 7, 59, 0
8, 186720, Note_on_c, 7, 64, 80
8, 186720, Note_on_c, 7, 60, 80
8, 186720, Note_on_c, 7, 57, 80
8, 186720, Note_on_c, 7, 67, 80
8, 187095, Note_on_c, 7, 67, 0
8, 187095, Note_on_c, 7, 64, 0
8, 187095, Note_on_c, 7, 60, 0
8, 187095, Note_on_c, 7, 57, 0
8, 187680, Note_on_c, 7, 62, 80
8, 187680, Note_on_c, 7, 60, 80
8, 187680, Note_on_c, 7, 57, 80
8, 187680, Note_on_c, 7, 65, 80
8, 188055, Note_on_c, 7, 65, 0
8, 188055, Note_on_c, 7, 62, 0
8, 188055, Note_on_c, 7, 60, 0
8, 188055, Note_on_c, 7, 57, 0
8, 188640, Note_on_c, 7, 60, 80
8, 188640, Note_on_c, 7, 57, 80
8, 188640, Note_on_c, 7, 55, 80
8, 188640, Note_on_c, 7, 64, 80
8, 189015, Note_on_c, 7, 64, 0
8, 189015, Note_on_c, 7, 60, 0
8, 189015, Note_on_c, 7, 57, 0
8, 189015, Note_on_c, 7, 55, 0
8, 189600, Note_on_c, 7, 65, 80
8, 189600, Note_on_c, 7, 62, 80
8, 189600, Note_on_c, 7, 59, 80
8, 189600, Note_on_c, 7, 69, 80
8, 189975, Note_on_c, 7, 69, 0
8, 189975, Note_on_c, 7, 65, 0
8, 189975, Note_on_c, 7, 62, 0
8, 189975, Note_on_c, 7, 59, 0
8, 190080, Note_on_c, 7, 62, 80
8, 190455, Note_on_c, 7, 62, 0
8, 190560, Note_on_c, 7, 57, 80
8, 190935, Note_on_c, 7, 57, 0
8, 191040, Note_on_c, 7, 55, 80
8, 191415, Note_on_c, 7, 55, 0
8, 191520, Note_on_c, 7, 52, 80
8, 191895, Note_on_c, 7, 52, 0
8, 192000, Note_on_c, 7, 48, 80
8, 193885, Note_on_c, 7, 48, 0
8, 193920, Control_c, 7, 64, 0
8, 193920, End_track
9, 0, Start_track
9, 0, MIDI_port, 0
9, 0, Title_t, "Drums  "
9, 0, Control_c, 9, 123, 0
9, 525, Control_c, 9, 0, 0
9, 526, Control_c, 9, 32, 0
9, 527, Program_c, 9, 0
9, 528, Control_c, 9, 7, 80
9, 528, Control_c, 9, 10, 64
9, 600, Control_c, 9, 10, 64
9, 1920, Note_on_c, 9, 37, 49
9, 2392, Note_on_c, 9, 37, 0
9, 2880, Note_on_c, 9, 37, 49
9, 3352, Note_on_c, 9, 37, 0
9, 3840, Note_on_c, 9, 37, 29
9, 4312, Note_on_c, 9, 37, 0
9, 4320, Note_on_c, 9, 37, 49
9, 4792, Note_on_c, 9, 37, 0
9, 4800, Note_on_c, 9, 37, 29
9, 5272, Note_on_c, 9, 37, 0
9, 5280, Note_on_c, 9, 37, 49
9, 5752, Note_on_c, 9, 37, 0
9, 5760, Note_on_c, 9, 35, 45
9, 5760, Note_on_c, 9, 42, 55
9, 5760, Note_on_c, 9, 49, 45
9, 5855, Note_on_c, 9, 49, 0
9, 5855, Note_on_c, 9, 42, 0
9, 5855, Note_on_c, 9, 35, 0
9, 6080, Note_on_c, 9, 42, 35
9, 6175, Note_on_c, 9, 42, 0
9, 6240, Note_on_c, 9, 42, 55
9, 6240, Note_on_c, 9, 37, 55
9, 6335, Note_on_c, 9, 37, 0
9, 6335, Note_on_c, 9, 42, 0
9, 6560, Note_on_c, 9, 35, 35
9, 6560, Note_on_c, 9, 42, 35
9, 6655, Note_on_c, 9, 42, 0
9, 6655, Note_on_c, 9, 35, 0
9, 6720, Note_on_c, 9, 35, 45
9, 6720, Note_on_c, 9, 42, 55
9, 6815, Note_on_c, 9, 42, 0
9, 6815, Note_on_c, 9, 35, 0
9, 7040, Note_on_c, 9, 42, 35
9, 7135, Note_on_c, 9, 42, 0
9, 7200, Note_on_c, 9, 42, 55
9, 7200, Note_on_c, 9, 37, 55
9, 7295, Note_on_c, 9, 37, 0
9, 7295, Note_on_c, 9, 42, 0
9, 7520, Note_on_c, 9, 35, 35
9, 7520, Note_on_c, 9, 42, 35
9, 7615, Note_on_c, 9, 42, 0
9, 7615, Note_on_c, 9, 35, 0
9, 7680, Note_on_c, 9, 35, 45
9, 7680, Note_on_c, 9, 42, 55
9, 7775, Note_on_c, 9, 42, 0
9, 7775, Note_on_c, 9, 35, 0
9, 8000, Note_on_c, 9, 42, 35
9, 8095, Note_on_c, 9, 42, 0
9, 8160, Note_on_c, 9, 42, 55
9, 8160, Note_on_c, 9, 37, 55
9, 8255, Note_on_c, 9, 37, 0
9, 8255, Note_on_c, 9, 42, 0
9, 8480, Note_on_c, 9, 35, 35
9, 8480, Note_on_c, 9, 42, 35
9, 8575, Note_on_c, 9, 42, 0
9, 8575, Note_on_c, 9, 35, 0
9, 8640, Note_on_c, 9, 35, 45
9, 8640, Note_on_c, 9, 42, 55
9, 8735, Note_on_c, 9, 42, 0
9, 8735, Note_on_c, 9, 35, 0
9, 8960, Note_on_c, 9, 42, 35
9, 9055, Note_on_c, 9, 42, 0
9, 9120, Note_on_c, 9, 42, 55
9, 9120, Note_on_c, 9, 37, 55
9, 9215, Note_on_c, 9, 37, 0
9, 9215, Note_on_c, 9, 42, 0
9, 9440, Note_on_c, 9, 35, 35
9, 9440, Note_on_c, 9, 42, 35
9, 9535, Note_on_c, 9, 42, 0
9, 9535, Note_on_c, 9, 35, 0
9, 9600, Note_on_c, 9, 35, 45
9, 9600, Note_on_c, 9, 42, 55
9, 9695, Note_on_c, 9, 42, 0
9, 9695, Note_on_c, 9, 35, 0
9, 9920, Note_on_c, 9, 42, 25
9, 10015, Note_on_c, 9, 42, 0
9, 10080, Note_on_c, 9, 42, 55
9, 10080, Note_on_c, 9, 37, 55
9, 10175, Note_on_c, 9, 37, 0
9, 10175, Note_on_c, 9, 42, 0
9, 10400, Note_on_c, 9, 35, 35
9, 10400, Note_on_c, 9, 42, 25
9, 10495, Note_on_c, 9, 42, 0
9, 10495, Note_on_c, 9, 35, 0
9, 10560, Note_on_c, 9, 35, 45
9, 10560, Note_on_c, 9, 42, 55
9, 10655, Note_on_c, 9, 42, 0
9, 10655, Note_on_c, 9, 35, 0
9, 10880, Note_on_c, 9, 42, 25
9, 10975, Note_on_c, 9, 42, 0
9, 11040, Note_on_c, 9, 42, 55
9, 11040, Note_on_c, 9, 37, 55
9, 11135, Note_on_c, 9, 37, 0
9, 11135, Note_on_c, 9, 42, 0
9, 11360, Note_on_c, 9, 35, 35
9, 11360, Note_on_c, 9, 42, 25
9, 11455, Note_on_c, 9, 42, 0
9, 11455, Note_on_c, 9, 35, 0
9, 11520, Note_on_c, 9, 35, 45
9, 11520, Note_on_c, 9, 42, 55
9, 11615, Note_on_c, 9, 42, 0
9, 11615, Note_on_c, 9, 35, 0
9, 11840, Note_on_c, 9, 42, 25
9, 11935, Note_on_c, 9, 42, 0
9, 12000, Note_on_c, 9, 42, 55
9, 12000, Note_on_c, 9, 37, 55
9, 12095, Note_on_c, 9, 37, 0
9, 12095, Note_on_c, 9, 42, 0
9, 12320, Note_on_c, 9, 35, 35
9, 12320, Note_on_c, 9, 42, 25
9, 12415, Note_on_c, 9, 42, 0
9, 12415, Note_on_c, 9, 35, 0
9, 12480, Note_on_c, 9, 35, 45
9, 12480, Note_on_c, 9, 42, 55
9, 12575, Note_on_c, 9, 42, 0
9, 12575, Note_on_c, 9, 35, 0
9, 12800, Note_on_c, 9, 42, 25
9, 12895, Note_on_c, 9, 42, 0
9, 12960, Note_on_c, 9, 42, 55
9, 12960, Note_on_c, 9, 37, 55
9, 13055, Note_on_c, 9, 37, 0
9, 13055, Note_on_c, 9, 42, 0
9, 13280, Note_on_c, 9, 35, 35
9, 13280, Note_on_c, 9, 42, 25
9, 13375, Note_on_c, 9, 42, 0
9, 13375, Note_on_c, 9, 35, 0
9, 13440, Note_on_c, 9, 35, 45
9, 13440, Note_on_c, 9, 42, 55
9, 13535, Note_on_c, 9, 42, 0
9, 13535, Note_on_c, 9, 35, 0
9, 13760, Note_on_c, 9, 42, 35
9, 13855, Note_on_c, 9, 42, 0
9, 13920, Note_on_c, 9, 42, 55
9, 13920, Note_on_c, 9, 37, 37
9, 14015, Note_on_c, 9, 37, 0
9, 14015, Note_on_c, 9, 42, 0
9, 14240, Note_on_c, 9, 35, 19
9, 14240, Note_on_c, 9, 42, 35
9, 14335, Note_on_c, 9, 42, 0
9, 14335, Note_on_c, 9, 35, 0
9, 14400, Note_on_c, 9, 35, 45
9, 14400, Note_on_c, 9, 42, 55
9, 14495, Note_on_c, 9, 42, 0
9, 14495, Note_on_c, 9, 35, 0
9, 14720, Note_on_c, 9, 42, 35
9, 14815, Note_on_c, 9, 42, 0
9, 14880, Note_on_c, 9, 42, 55
9, 14880, Note_on_c, 9, 37, 55
9, 14975, Note_on_c, 9, 37, 0
9, 14975, Note_on_c, 9, 42, 0
9, 15200, Note_on_c, 9, 35, 35
9, 15200, Note_on_c, 9, 46, 55
9, 15295, Note_on_c, 9, 46, 0
9, 15295, Note_on_c, 9, 35, 0
9, 15360, Note_on_c, 9, 35, 45
9, 15360, Note_on_c, 9, 42, 55
9, 15455, Note_on_c, 9, 42, 0
9, 15455, Note_on_c, 9, 35, 0
9, 15680, Note_on_c, 9, 42, 25
9, 15775, Note_on_c, 9, 42, 0
9, 15840, Note_on_c, 9, 42, 55
9, 15840, Note_on_c, 9, 37, 55
9, 15935, Note_on_c, 9, 37, 0
9, 15935, Note_on_c, 9, 42, 0
9, 16160, Note_on_c, 9, 35, 35
9, 16160, Note_on_c, 9, 42, 25
9, 16255, Note_on_c, 9, 42, 0
9, 16255, Note_on_c, 9, 35, 0
9, 16320, Note_on_c, 9, 35, 45
9, 16320, Note_on_c, 9, 42, 55
9, 16415, Note_on_c, 9, 42, 0
9, 16415, Note_on_c, 9, 35, 0
9, 16640, Note_on_c, 9, 42, 25
9, 16735, Note_on_c, 9, 42, 0
9, 16800, Note_on_c, 9, 42, 55
9, 16800, Note_on_c, 9, 37, 55
9, 16895, Note_on_c, 9, 37, 0
9, 16895, Note_on_c, 9, 42, 0
9, 17120, Note_on_c, 9, 35, 35
9, 17120, Note_on_c, 9, 42, 25
9, 17215, Note_on_c, 9, 42, 0
9, 17215, Note_on_c, 9, 35, 0
9, 17280, Note_on_c, 9, 35, 45
9, 17280, Note_on_c, 9, 42, 55
9, 17375, Note_on_c, 9, 42, 0
9, 17375, Note_on_c, 9, 35, 0
9, 17600, Note_on_c, 9, 42, 35
9, 17695, Note_on_c, 9, 42, 0
9, 17760, Note_on_c, 9, 42, 55
9, 17760, Note_on_c, 9, 37, 55
9, 17855, Note_on_c, 9, 37, 0
9, 17855, Note_on_c, 9, 42, 0
9, 18080, Note_on_c, 9, 35, 35
9, 18080, Note_on_c, 9, 42, 35
9, 18175, Note_on_c, 9, 42, 0
9, 18175, Note_on_c, 9, 35, 0
9, 18240, Note_on_c, 9, 35, 45
9, 18240, Note_on_c, 9, 42, 55
9, 18335, Note_on_c, 9, 42, 0
9, 18335, Note_on_c, 9, 35, 0
9, 18560, Note_on_c, 9, 42, 35
9, 18655, Note_on_c, 9, 42, 0
9, 18720, Note_on_c, 9, 42, 55
9, 18720, Note_on_c, 9, 37, 55
9, 18815, Note_on_c, 9, 37, 0
9, 18815, Note_on_c, 9, 42, 0
9, 18880, Note_on_c, 9, 46, 45
9, 18975, Note_on_c, 9, 46, 0
9, 19040, Note_on_c, 9, 35, 35
9, 19040, Note_on_c, 9, 42, 35
9, 19135, Note_on_c, 9, 42, 0
9, 19135, Note_on_c, 9, 35, 0
9, 19200, Note_on_c, 9, 35, 45
9, 19200, Note_on_c, 9, 42, 55
9, 19295, Note_on_c, 9, 42, 0
9, 19295, Note_on_c, 9, 35, 0
9, 19520, Note_on_c, 9, 42, 35
9, 19615, Note_on_c, 9, 42, 0
9, 19680, Note_on_c, 9, 42, 55
9, 19680, Note_on_c, 9, 37, 55
9, 19775, Note_on_c, 9, 37, 0
9, 19775, Note_on_c, 9, 42, 0
9, 20000, Note_on_c, 9, 35, 35
9, 20000, Note_on_c, 9, 42, 35
9, 20095, Note_on_c, 9, 42, 0
9, 20095, Note_on_c, 9, 35, 0
9, 20160, Note_on_c, 9, 35, 45
9, 20160, Note_on_c, 9, 42, 55
9, 20255, Note_on_c, 9, 42, 0
9, 20255, Note_on_c, 9, 35, 0
9, 20480, Note_on_c, 9, 42, 35
9, 20575, Note_on_c, 9, 42, 0
9, 20640, Note_on_c, 9, 42, 55
9, 20640, Note_on_c, 9, 37, 55
9, 20735, Note_on_c, 9, 37, 0
9, 20735, Note_on_c, 9, 42, 0
9, 20960, Note_on_c, 9, 35, 35
9, 20960, Note_on_c, 9, 46, 55
9, 21055, Note_on_c, 9, 46, 0
9, 21055, Note_on_c, 9, 35, 0
9, 21120, Note_on_c, 9, 35, 45
9, 21120, Note_on_c, 9, 42, 55
9, 21215, Note_on_c, 9, 42, 0
9, 21215, Note_on_c, 9, 35, 0
9, 21440, Note_on_c, 9, 42, 35
9, 21535, Note_on_c, 9, 42, 0
9, 21600, Note_on_c, 9, 42, 55
9, 21600, Note_on_c, 9, 37, 55
9, 21695, Note_on_c, 9, 37, 0
9, 21695, Note_on_c, 9, 42, 0
9, 21920, Note_on_c, 9, 35, 35
9, 21920, Note_on_c, 9, 42, 55
9, 22015, Note_on_c, 9, 42, 0
9, 22015, Note_on_c, 9, 35, 0
9, 22080, Note_on_c, 9, 35, 45
9, 22080, Note_on_c, 9, 42, 55
9, 22175, Note_on_c, 9, 42, 0
9, 22175, Note_on_c, 9, 35, 0
9, 22400, Note_on_c, 9, 42, 35
9, 22495, Note_on_c, 9, 42, 0
9, 22560, Note_on_c, 9, 42, 55
9, 22560, Note_on_c, 9, 37, 55
9, 22655, Note_on_c, 9, 37, 0
9, 22655, Note_on_c, 9, 42, 0
9, 22880, Note_on_c, 9, 35, 35
9, 22880, Note_on_c, 9, 46, 55
9, 22975, Note_on_c, 9, 46, 0
9, 22975, Note_on_c, 9, 35, 0
9, 23040, Note_on_c, 9, 35, 45
9, 23040, Note_on_c, 9, 42, 55
9, 23135, Note_on_c, 9, 42, 0
9, 23135, Note_on_c, 9, 35, 0
9, 23360, Note_on_c, 9, 42, 25
9, 23455, Note_on_c, 9, 42, 0
9, 23520, Note_on_c, 9, 42, 55
9, 23520, Note_on_c, 9, 37, 55
9, 23615, Note_on_c, 9, 37, 0
9, 23615, Note_on_c, 9, 42, 0
9, 23840, Note_on_c, 9, 35, 35
9, 23840, Note_on_c, 9, 42, 25
9, 23935, Note_on_c, 9, 42, 0
9, 23935, Note_on_c, 9, 35, 0
9, 24000, Note_on_c, 9, 35, 45
9, 24000, Note_on_c, 9, 42, 55
9, 24095, Note_on_c, 9, 42, 0
9, 24095, Note_on_c, 9, 35, 0
9, 24160, Note_on_c, 9, 42, 25
9, 24255, Note_on_c, 9, 42, 0
9, 24320, Note_on_c, 9, 42, 25
9, 24415, Note_on_c, 9, 42, 0
9, 24480, Note_on_c, 9, 42, 55
9, 24480, Note_on_c, 9, 37, 55
9, 24575, Note_on_c, 9, 37, 0
9, 24575, Note_on_c, 9, 42, 0
9, 24800, Note_on_c, 9, 35, 35
9, 24800, Note_on_c, 9, 42, 25
9, 24895, Note_on_c, 9, 42, 0
9, 24895, Note_on_c, 9, 35, 0
9, 24960, Note_on_c, 9, 35, 45
9, 24960, Note_on_c, 9, 42, 55
9, 25055, Note_on_c, 9, 42, 0
9, 25055, Note_on_c, 9, 35, 0
9, 25280, Note_on_c, 9, 42, 35
9, 25375, Note_on_c, 9, 42, 0
9, 25440, Note_on_c, 9, 42, 55
9, 25440, Note_on_c, 9, 37, 55
9, 25535, Note_on_c, 9, 37, 0
9, 25535, Note_on_c, 9, 42, 0
9, 25760, Note_on_c, 9, 35, 35
9, 25760, Note_on_c, 9, 42, 35
9, 25855, Note_on_c, 9, 42, 0
9, 25855, Note_on_c, 9, 35, 0
9, 25920, Note_on_c, 9, 35, 45
9, 25920, Note_on_c, 9, 42, 55
9, 26015, Note_on_c, 9, 42, 0
9, 26015, Note_on_c, 9, 35, 0
9, 26240, Note_on_c, 9, 42, 35
9, 26335, Note_on_c, 9, 42, 0
9, 26400, Note_on_c, 9, 42, 55
9, 26400, Note_on_c, 9, 37, 55
9, 26495, Note_on_c, 9, 37, 0
9, 26495, Note_on_c, 9, 42, 0
9, 26560, Note_on_c, 9, 46, 45
9, 26655, Note_on_c, 9, 46, 0
9, 26720, Note_on_c, 9, 35, 35
9, 26720, Note_on_c, 9, 42, 35
9, 26815, Note_on_c, 9, 42, 0
9, 26815, Note_on_c, 9, 35, 0
9, 26880, Note_on_c, 9, 35, 45
9, 26880, Note_on_c, 9, 42, 55
9, 26975, Note_on_c, 9, 42, 0
9, 26975, Note_on_c, 9, 35, 0
9, 27200, Note_on_c, 9, 42, 25
9, 27295, Note_on_c, 9, 42, 0
9, 27360, Note_on_c, 9, 42, 55
9, 27360, Note_on_c, 9, 37, 55
9, 27455, Note_on_c, 9, 37, 0
9, 27455, Note_on_c, 9, 42, 0
9, 27680, Note_on_c, 9, 35, 35
9, 27680, Note_on_c, 9, 42, 25
9, 27775, Note_on_c, 9, 42, 0
9, 27775, Note_on_c, 9, 35, 0
9, 27840, Note_on_c, 9, 35, 45
9, 27840, Note_on_c, 9, 42, 55
9, 27935, Note_on_c, 9, 42, 0
9, 27935, Note_on_c, 9, 35, 0
9, 28000, Note_on_c, 9, 42, 25
9, 28095, Note_on_c, 9, 42, 0
9, 28160, Note_on_c, 9, 42, 25
9, 28255, Note_on_c, 9, 42, 0
9, 28320, Note_on_c, 9, 42, 55
9, 28320, Note_on_c, 9, 37, 55
9, 28415, Note_on_c, 9, 37, 0
9, 28415, Note_on_c, 9, 42, 0
9, 28640, Note_on_c, 9, 35, 35
9, 28640, Note_on_c, 9, 42, 25
9, 28735, Note_on_c, 9, 42, 0
9, 28735, Note_on_c, 9, 35, 0
9, 28800, Note_on_c, 9, 35, 45
9, 28800, Note_on_c, 9, 42, 55
9, 28895, Note_on_c, 9, 42, 0
9, 28895, Note_on_c, 9, 35, 0
9, 29120, Note_on_c, 9, 42, 25
9, 29215, Note_on_c, 9, 42, 0
9, 29280, Note_on_c, 9, 42, 55
9, 29280, Note_on_c, 9, 37, 55
9, 29375, Note_on_c, 9, 37, 0
9, 29375, Note_on_c, 9, 42, 0
9, 29600, Note_on_c, 9, 35, 35
9, 29600, Note_on_c, 9, 42, 25
9, 29695, Note_on_c, 9, 42, 0
9, 29695, Note_on_c, 9, 35, 0
9, 29760, Note_on_c, 9, 35, 45
9, 29760, Note_on_c, 9, 42, 55
9, 29855, Note_on_c, 9, 42, 0
9, 29855, Note_on_c, 9, 35, 0
9, 29920, Note_on_c, 9, 42, 25
9, 30015, Note_on_c, 9, 42, 0
9, 30080, Note_on_c, 9, 42, 25
9, 30175, Note_on_c, 9, 42, 0
9, 30240, Note_on_c, 9, 42, 55
9, 30240, Note_on_c, 9, 37, 55
9, 30335, Note_on_c, 9, 37, 0
9, 30335, Note_on_c, 9, 42, 0
9, 30560, Note_on_c, 9, 35, 35
9, 30560, Note_on_c, 9, 42, 25
9, 30655, Note_on_c, 9, 42, 0
9, 30655, Note_on_c, 9, 35, 0
9, 30720, Note_on_c, 9, 35, 45
9, 30720, Note_on_c, 9, 42, 55
9, 30815, Note_on_c, 9, 42, 0
9, 30815, Note_on_c, 9, 35, 0
9, 31040, Note_on_c, 9, 42, 25
9, 31135, Note_on_c, 9, 42, 0
9, 31200, Note_on_c, 9, 42, 55
9, 31200, Note_on_c, 9, 37, 55
9, 31295, Note_on_c, 9, 37, 0
9, 31295, Note_on_c, 9, 42, 0
9, 31520, Note_on_c, 9, 35, 35
9, 31520, Note_on_c, 9, 42, 25
9, 31615, Note_on_c, 9, 42, 0
9, 31615, Note_on_c, 9, 35, 0
9, 31680, Note_on_c, 9, 35, 45
9, 31680, Note_on_c, 9, 42, 55
9, 31775, Note_on_c, 9, 42, 0
9, 31775, Note_on_c, 9, 35, 0
9, 32000, Note_on_c, 9, 42, 25
9, 32095, Note_on_c, 9, 42, 0
9, 32160, Note_on_c, 9, 42, 55
9, 32160, Note_on_c, 9, 37, 55
9, 32255, Note_on_c, 9, 37, 0
9, 32255, Note_on_c, 9, 42, 0
9, 32480, Note_on_c, 9, 35, 35
9, 32480, Note_on_c, 9, 42, 25
9, 32575, Note_on_c, 9, 42, 0
9, 32575, Note_on_c, 9, 35, 0
9, 32640, Note_on_c, 9, 35, 45
9, 32640, Note_on_c, 9, 42, 55
9, 32735, Note_on_c, 9, 42, 0
9, 32735, Note_on_c, 9, 35, 0
9, 32960, Note_on_c, 9, 42, 35
9, 33055, Note_on_c, 9, 42, 0
9, 33120, Note_on_c, 9, 42, 55
9, 33120, Note_on_c, 9, 37, 55
9, 33215, Note_on_c, 9, 37, 0
9, 33215, Note_on_c, 9, 42, 0
9, 33440, Note_on_c, 9, 35, 35
9, 33440, Note_on_c, 9, 42, 55
9, 33535, Note_on_c, 9, 42, 0
9, 33535, Note_on_c, 9, 35, 0
9, 33600, Note_on_c, 9, 35, 45
9, 33600, Note_on_c, 9, 42, 55
9, 33695, Note_on_c, 9, 42, 0
9, 33695, Note_on_c, 9, 35, 0
9, 33920, Note_on_c, 9, 42, 35
9, 34015, Note_on_c, 9, 42, 0
9, 34080, Note_on_c, 9, 42, 55
9, 34080, Note_on_c, 9, 37, 55
9, 34175, Note_on_c, 9, 37, 0
9, 34175, Note_on_c, 9, 42, 0
9, 34400, Note_on_c, 9, 35, 35
9, 34400, Note_on_c, 9, 42, 35
9, 34495, Note_on_c, 9, 42, 0
9, 34495, Note_on_c, 9, 35, 0
9, 34560, Note_on_c, 9, 35, 55
9, 34560, Note_on_c, 9, 49, 55
9, 34655, Note_on_c, 9, 49, 0
9, 34655, Note_on_c, 9, 35, 0
9, 34720, Note_on_c, 9, 42, 15
9, 34815, Note_on_c, 9, 42, 0
9, 34880, Note_on_c, 9, 42, 25
9, 34975, Note_on_c, 9, 42, 0
9, 35040, Note_on_c, 9, 42, 45
9, 35135, Note_on_c, 9, 42, 0
9, 35200, Note_on_c, 9, 42, 25
9, 35295, Note_on_c, 9, 42, 0
9, 35360, Note_on_c, 9, 42, 55
9, 35455, Note_on_c, 9, 42, 0
9, 35520, Note_on_c, 9, 38, 25
9, 35520, Note_on_c, 9, 42, 55
9, 35615, Note_on_c, 9, 42, 0
9, 35615, Note_on_c, 9, 38, 0
9, 35680, Note_on_c, 9, 38, 45
9, 35680, Note_on_c, 9, 42, 55
9, 35775, Note_on_c, 9, 42, 0
9, 35775, Note_on_c, 9, 38, 0
9, 35840, Note_on_c, 9, 38, 65
9, 35840, Note_on_c, 9, 42, 65
9, 35935, Note_on_c, 9, 42, 0
9, 35935, Note_on_c, 9, 38, 0
9, 36000, Note_on_c, 9, 38, 65
9, 36000, Note_on_c, 9, 42, 65
9, 36095, Note_on_c, 9, 42, 0
9, 36095, Note_on_c, 9, 38, 0
9, 36320, Note_on_c, 9, 35, 35
9, 36320, Note_on_c, 9, 38, 55
9, 36415, Note_on_c, 9, 38, 0
9, 36415, Note_on_c, 9, 35, 0
9, 36480, Note_on_c, 9, 35, 45
9, 36480, Note_on_c, 9, 42, 55
9, 36480, Note_on_c, 9, 49, 45
9, 36575, Note_on_c, 9, 49, 0
9, 36575, Note_on_c, 9, 42, 0
9, 36575, Note_on_c, 9, 35, 0
9, 36800, Note_on_c, 9, 42, 35
9, 36895, Note_on_c, 9, 42, 0
9, 36960, Note_on_c, 9, 42, 55
9, 36960, Note_on_c, 9, 37, 55
9, 37055, Note_on_c, 9, 37, 0
9, 37055, Note_on_c, 9, 42, 0
9, 37280, Note_on_c, 9, 35, 35
9, 37280, Note_on_c, 9, 42, 35
9, 37375, Note_on_c, 9, 42, 0
9, 37375, Note_on_c, 9, 35, 0
9, 37440, Note_on_c, 9, 35, 45
9, 37440, Note_on_c, 9, 42, 55
9, 37535, Note_on_c, 9, 42, 0
9, 37535, Note_on_c, 9, 35, 0
9, 37760, Note_on_c, 9, 42, 35
9, 37855, Note_on_c, 9, 42, 0
9, 37920, Note_on_c, 9, 42, 55
9, 37920, Note_on_c, 9, 37, 55
9, 38015, Note_on_c, 9, 37, 0
9, 38015, Note_on_c, 9, 42, 0
9, 38240, Note_on_c, 9, 35, 35
9, 38240, Note_on_c, 9, 46, 19
9, 38335, Note_on_c, 9, 46, 0
9, 38335, Note_on_c, 9, 35, 0
9, 38400, Note_on_c, 9, 35, 45
9, 38400, Note_on_c, 9, 42, 55
9, 38495, Note_on_c, 9, 42, 0
9, 38495, Note_on_c, 9, 35, 0
9, 38720, Note_on_c, 9, 42, 25
9, 38815, Note_on_c, 9, 42, 0
9, 38880, Note_on_c, 9, 42, 55
9, 38880, Note_on_c, 9, 37, 55
9, 38975, Note_on_c, 9, 37, 0
9, 38975, Note_on_c, 9, 42, 0
9, 39200, Note_on_c, 9, 35, 35
9, 39200, Note_on_c, 9, 42, 25
9, 39295, Note_on_c, 9, 42, 0
9, 39295, Note_on_c, 9, 35, 0
9, 39360, Note_on_c, 9, 35, 45
9, 39360, Note_on_c, 9, 42, 55
9, 39455, Note_on_c, 9, 42, 0
9, 39455, Note_on_c, 9, 35, 0
9, 39520, Note_on_c, 9, 42, 25
9, 39615, Note_on_c, 9, 42, 0
9, 39680, Note_on_c, 9, 42, 25
9, 39775, Note_on_c, 9, 42, 0
9, 39840, Note_on_c, 9, 42, 55
9, 39840, Note_on_c, 9, 37, 55
9, 39935, Note_on_c, 9, 37, 0
9, 39935, Note_on_c, 9, 42, 0
9, 40160, Note_on_c, 9, 35, 35
9, 40160, Note_on_c, 9, 42, 25
9, 40255, Note_on_c, 9, 42, 0
9, 40255, Note_on_c, 9, 35, 0
9, 40320, Note_on_c, 9, 35, 45
9, 40320, Note_on_c, 9, 42, 55
9, 40415, Note_on_c, 9, 42, 0
9, 40415, Note_on_c, 9, 35, 0
9, 40640, Note_on_c, 9, 42, 25
9, 40735, Note_on_c, 9, 42, 0
9, 40800, Note_on_c, 9, 42, 55
9, 40800, Note_on_c, 9, 37, 55
9, 40895, Note_on_c, 9, 37, 0
9, 40895, Note_on_c, 9, 42, 0
9, 41120, Note_on_c, 9, 35, 35
9, 41120, Note_on_c, 9, 42, 25
9, 41215, Note_on_c, 9, 42, 0
9, 41215, Note_on_c, 9, 35, 0
9, 41280, Note_on_c, 9, 35, 45
9, 41280, Note_on_c, 9, 42, 55
9, 41375, Note_on_c, 9, 42, 0
9, 41375, Note_on_c, 9, 35, 0
9, 41600, Note_on_c, 9, 42, 25
9, 41695, Note_on_c, 9, 42, 0
9, 41760, Note_on_c, 9, 42, 55
9, 41760, Note_on_c, 9, 37, 55
9, 41855, Note_on_c, 9, 37, 0
9, 41855, Note_on_c, 9, 42, 0
9, 42080, Note_on_c, 9, 35, 35
9, 42080, Note_on_c, 9, 42, 25
9, 42175, Note_on_c, 9, 42, 0
9, 42175, Note_on_c, 9, 35, 0
9, 42240, Note_on_c, 9, 35, 45
9, 42240, Note_on_c, 9, 42, 55
9, 42335, Note_on_c, 9, 42, 0
9, 42335, Note_on_c, 9, 35, 0
9, 42560, Note_on_c, 9, 42, 25
9, 42655, Note_on_c, 9, 42, 0
9, 42720, Note_on_c, 9, 42, 55
9, 42720, Note_on_c, 9, 37, 55
9, 42815, Note_on_c, 9, 37, 0
9, 42815, Note_on_c, 9, 42, 0
9, 43040, Note_on_c, 9, 35, 35
9, 43040, Note_on_c, 9, 42, 25
9, 43135, Note_on_c, 9, 42, 0
9, 43135, Note_on_c, 9, 35, 0
9, 43200, Note_on_c, 9, 35, 45
9, 43200, Note_on_c, 9, 42, 55
9, 43295, Note_on_c, 9, 42, 0
9, 43295, Note_on_c, 9, 35, 0
9, 43520, Note_on_c, 9, 42, 25
9, 43615, Note_on_c, 9, 42, 0
9, 43680, Note_on_c, 9, 42, 55
9, 43680, Note_on_c, 9, 37, 55
9, 43775, Note_on_c, 9, 37, 0
9, 43775, Note_on_c, 9, 42, 0
9, 44000, Note_on_c, 9, 35, 35
9, 44000, Note_on_c, 9, 42, 25
9, 44095, Note_on_c, 9, 42, 0
9, 44095, Note_on_c, 9, 35, 0
9, 44160, Note_on_c, 9, 35, 45
9, 44160, Note_on_c, 9, 42, 55
9, 44255, Note_on_c, 9, 42, 0
9, 44255, Note_on_c, 9, 35, 0
9, 44480, Note_on_c, 9, 42, 35
9, 44575, Note_on_c, 9, 42, 0
9, 44640, Note_on_c, 9, 42, 55
9, 44640, Note_on_c, 9, 37, 37
9, 44735, Note_on_c, 9, 37, 0
9, 44735, Note_on_c, 9, 42, 0
9, 44960, Note_on_c, 9, 35, 35
9, 44960, Note_on_c, 9, 42, 35
9, 45055, Note_on_c, 9, 42, 0
9, 45055, Note_on_c, 9, 35, 0
9, 45120, Note_on_c, 9, 35, 45
9, 45120, Note_on_c, 9, 42, 55
9, 45215, Note_on_c, 9, 42, 0
9, 45215, Note_on_c, 9, 35, 0
9, 45440, Note_on_c, 9, 42, 35
9, 45535, Note_on_c, 9, 42, 0
9, 45600, Note_on_c, 9, 42, 55
9, 45600, Note_on_c, 9, 37, 55
9, 45695, Note_on_c, 9, 37, 0
9, 45695, Note_on_c, 9, 42, 0
9, 45920, Note_on_c, 9, 35, 35
9, 45920, Note_on_c, 9, 42, 35
9, 46015, Note_on_c, 9, 42, 0
9, 46015, Note_on_c, 9, 35, 0
9, 46080, Note_on_c, 9, 35, 45
9, 46080, Note_on_c, 9, 42, 55
9, 46175, Note_on_c, 9, 42, 0
9, 46175, Note_on_c, 9, 35, 0
9, 46400, Note_on_c, 9, 42, 35
9, 46495, Note_on_c, 9, 42, 0
9, 46560, Note_on_c, 9, 42, 55
9, 46560, Note_on_c, 9, 37, 55
9, 46655, Note_on_c, 9, 37, 0
9, 46655, Note_on_c, 9, 42, 0
9, 46880, Note_on_c, 9, 35, 35
9, 46880, Note_on_c, 9, 42, 35
9, 46975, Note_on_c, 9, 42, 0
9, 46975, Note_on_c, 9, 35, 0
9, 47040, Note_on_c, 9, 35, 45
9, 47040, Note_on_c, 9, 42, 55
9, 47135, Note_on_c, 9, 42, 0
9, 47135, Note_on_c, 9, 35, 0
9, 47360, Note_on_c, 9, 42, 35
9, 47455, Note_on_c, 9, 42, 0
9, 47520, Note_on_c, 9, 42, 55
9, 47520, Note_on_c, 9, 37, 55
9, 47615, Note_on_c, 9, 37, 0
9, 47615, Note_on_c, 9, 42, 0
9, 47840, Note_on_c, 9, 35, 35
9, 47840, Note_on_c, 9, 46, 45
9, 47935, Note_on_c, 9, 46, 0
9, 47935, Note_on_c, 9, 35, 0
9, 48000, Note_on_c, 9, 35, 45
9, 48000, Note_on_c, 9, 42, 55
9, 48095, Note_on_c, 9, 42, 0
9, 48095, Note_on_c, 9, 35, 0
9, 48320, Note_on_c, 9, 42, 35
9, 48415, Note_on_c, 9, 42, 0
9, 48480, Note_on_c, 9, 42, 55
9, 48480, Note_on_c, 9, 37, 37
9, 48575, Note_on_c, 9, 37, 0
9, 48575, Note_on_c, 9, 42, 0
9, 48800, Note_on_c, 9, 35, 35
9, 48800, Note_on_c, 9, 42, 35
9, 48895, Note_on_c, 9, 42, 0
9, 48895, Note_on_c, 9, 35, 0
9, 48960, Note_on_c, 9, 35, 45
9, 48960, Note_on_c, 9, 42, 55
9, 49055, Note_on_c, 9, 42, 0
9, 49055, Note_on_c, 9, 35, 0
9, 49280, Note_on_c, 9, 42, 35
9, 49375, Note_on_c, 9, 42, 0
9, 49440, Note_on_c, 9, 42, 55
9, 49440, Note_on_c, 9, 37, 55
9, 49535, Note_on_c, 9, 37, 0
9, 49535, Note_on_c, 9, 42, 0
9, 49760, Note_on_c, 9, 35, 35
9, 49760, Note_on_c, 9, 42, 35
9, 49855, Note_on_c, 9, 42, 0
9, 49855, Note_on_c, 9, 35, 0
9, 49920, Note_on_c, 9, 35, 45
9, 49920, Note_on_c, 9, 42, 55
9, 50015, Note_on_c, 9, 42, 0
9, 50015, Note_on_c, 9, 35, 0
9, 50240, Note_on_c, 9, 42, 35
9, 50335, Note_on_c, 9, 42, 0
9, 50400, Note_on_c, 9, 42, 55
9, 50400, Note_on_c, 9, 37, 55
9, 50495, Note_on_c, 9, 37, 0
9, 50495, Note_on_c, 9, 42, 0
9, 50720, Note_on_c, 9, 35, 35
9, 50720, Note_on_c, 9, 42, 55
9, 50815, Note_on_c, 9, 42, 0
9, 50815, Note_on_c, 9, 35, 0
9, 50880, Note_on_c, 9, 35, 45
9, 50880, Note_on_c, 9, 42, 55
9, 50975, Note_on_c, 9, 42, 0
9, 50975, Note_on_c, 9, 35, 0
9, 51200, Note_on_c, 9, 42, 35
9, 51295, Note_on_c, 9, 42, 0
9, 51360, Note_on_c, 9, 42, 55
9, 51360, Note_on_c, 9, 37, 55
9, 51455, Note_on_c, 9, 37, 0
9, 51455, Note_on_c, 9, 42, 0
9, 51680, Note_on_c, 9, 35, 35
9, 51680, Note_on_c, 9, 42, 35
9, 51775, Note_on_c, 9, 42, 0
9, 51775, Note_on_c, 9, 35, 0
9, 51840, Note_on_c, 9, 35, 45
9, 51840, Note_on_c, 9, 42, 55
9, 51935, Note_on_c, 9, 42, 0
9, 51935, Note_on_c, 9, 35, 0
9, 52160, Note_on_c, 9, 42, 35
9, 52255, Note_on_c, 9, 42, 0
9, 52320, Note_on_c, 9, 42, 55
9, 52320, Note_on_c, 9, 37, 55
9, 52415, Note_on_c, 9, 37, 0
9, 52415, Note_on_c, 9, 42, 0
9, 52640, Note_on_c, 9, 35, 35
9, 52640, Note_on_c, 9, 42, 35
9, 52735, Note_on_c, 9, 42, 0
9, 52735, Note_on_c, 9, 35, 0
9, 52800, Note_on_c, 9, 35, 45
9, 52800, Note_on_c, 9, 42, 55
9, 52895, Note_on_c, 9, 42, 0
9, 52895, Note_on_c, 9, 35, 0
9, 53120, Note_on_c, 9, 42, 35
9, 53215, Note_on_c, 9, 42, 0
9, 53280, Note_on_c, 9, 42, 55
9, 53280, Note_on_c, 9, 37, 55
9, 53375, Note_on_c, 9, 37, 0
9, 53375, Note_on_c, 9, 42, 0
9, 53600, Note_on_c, 9, 35, 35
9, 53600, Note_on_c, 9, 42, 35
9, 53695, Note_on_c, 9, 42, 0
9, 53695, Note_on_c, 9, 35, 0
9, 53760, Note_on_c, 9, 35, 45
9, 53760, Note_on_c, 9, 42, 55
9, 53855, Note_on_c, 9, 42, 0
9, 53855, Note_on_c, 9, 35, 0
9, 54080, Note_on_c, 9, 42, 35
9, 54175, Note_on_c, 9, 42, 0
9, 54240, Note_on_c, 9, 42, 55
9, 54240, Note_on_c, 9, 37, 55
9, 54335, Note_on_c, 9, 37, 0
9, 54335, Note_on_c, 9, 42, 0
9, 54560, Note_on_c, 9, 35, 35
9, 54560, Note_on_c, 9, 42, 35
9, 54655, Note_on_c, 9, 42, 0
9, 54655, Note_on_c, 9, 35, 0
9, 54720, Note_on_c, 9, 35, 45
9, 54720, Note_on_c, 9, 42, 55
9, 54815, Note_on_c, 9, 42, 0
9, 54815, Note_on_c, 9, 35, 0
9, 55040, Note_on_c, 9, 42, 35
9, 55135, Note_on_c, 9, 42, 0
9, 55200, Note_on_c, 9, 42, 55
9, 55200, Note_on_c, 9, 37, 55
9, 55295, Note_on_c, 9, 37, 0
9, 55295, Note_on_c, 9, 42, 0
9, 55360, Note_on_c, 9, 46, 45
9, 55455, Note_on_c, 9, 46, 0
9, 55520, Note_on_c, 9, 35, 35
9, 55520, Note_on_c, 9, 42, 35
9, 55615, Note_on_c, 9, 42, 0
9, 55615, Note_on_c, 9, 35, 0
9, 55680, Note_on_c, 9, 35, 45
9, 55680, Note_on_c, 9, 42, 55
9, 55775, Note_on_c, 9, 42, 0
9, 55775, Note_on_c, 9, 35, 0
9, 56000, Note_on_c, 9, 42, 35
9, 56095, Note_on_c, 9, 42, 0
9, 56160, Note_on_c, 9, 42, 55
9, 56160, Note_on_c, 9, 37, 55
9, 56255, Note_on_c, 9, 37, 0
9, 56255, Note_on_c, 9, 42, 0
9, 56480, Note_on_c, 9, 35, 35
9, 56480, Note_on_c, 9, 42, 35
9, 56575, Note_on_c, 9, 42, 0
9, 56575, Note_on_c, 9, 35, 0
9, 56640, Note_on_c, 9, 35, 45
9, 56640, Note_on_c, 9, 42, 55
9, 56735, Note_on_c, 9, 42, 0
9, 56735, Note_on_c, 9, 35, 0
9, 56960, Note_on_c, 9, 42, 35
9, 57055, Note_on_c, 9, 42, 0
9, 57120, Note_on_c, 9, 42, 55
9, 57120, Note_on_c, 9, 37, 55
9, 57215, Note_on_c, 9, 37, 0
9, 57215, Note_on_c, 9, 42, 0
9, 57440, Note_on_c, 9, 35, 35
9, 57440, Note_on_c, 9, 46, 45
9, 57535, Note_on_c, 9, 46, 0
9, 57535, Note_on_c, 9, 35, 0
9, 57600, Note_on_c, 9, 35, 45
9, 57600, Note_on_c, 9, 42, 55
9, 57695, Note_on_c, 9, 42, 0
9, 57695, Note_on_c, 9, 35, 0
9, 57920, Note_on_c, 9, 42, 35
9, 58015, Note_on_c, 9, 42, 0
9, 58080, Note_on_c, 9, 42, 55
9, 58080, Note_on_c, 9, 37, 55
9, 58175, Note_on_c, 9, 37, 0
9, 58175, Note_on_c, 9, 42, 0
9, 58400, Note_on_c, 9, 35, 35
9, 58400, Note_on_c, 9, 42, 35
9, 58495, Note_on_c, 9, 42, 0
9, 58495, Note_on_c, 9, 35, 0
9, 58560, Note_on_c, 9, 35, 45
9, 58560, Note_on_c, 9, 42, 55
9, 58655, Note_on_c, 9, 42, 0
9, 58655, Note_on_c, 9, 35, 0
9, 58880, Note_on_c, 9, 42, 35
9, 58975, Note_on_c, 9, 42, 0
9, 59040, Note_on_c, 9, 42, 55
9, 59040, Note_on_c, 9, 37, 55
9, 59135, Note_on_c, 9, 37, 0
9, 59135, Note_on_c, 9, 42, 0
9, 59200, Note_on_c, 9, 46, 45
9, 59295, Note_on_c, 9, 46, 0
9, 59360, Note_on_c, 9, 35, 35
9, 59360, Note_on_c, 9, 42, 35
9, 59455, Note_on_c, 9, 42, 0
9, 59455, Note_on_c, 9, 35, 0
9, 59520, Note_on_c, 9, 35, 45
9, 59520, Note_on_c, 9, 42, 55
9, 59615, Note_on_c, 9, 42, 0
9, 59615, Note_on_c, 9, 35, 0
9, 59840, Note_on_c, 9, 42, 25
9, 59935, Note_on_c, 9, 42, 0
9, 60000, Note_on_c, 9, 42, 55
9, 60000, Note_on_c, 9, 37, 55
9, 60095, Note_on_c, 9, 37, 0
9, 60095, Note_on_c, 9, 42, 0
9, 60320, Note_on_c, 9, 35, 35
9, 60320, Note_on_c, 9, 42, 25
9, 60415, Note_on_c, 9, 42, 0
9, 60415, Note_on_c, 9, 35, 0
9, 60480, Note_on_c, 9, 35, 45
9, 60480, Note_on_c, 9, 42, 55
9, 60575, Note_on_c, 9, 42, 0
9, 60575, Note_on_c, 9, 35, 0
9, 60640, Note_on_c, 9, 42, 25
9, 60735, Note_on_c, 9, 42, 0
9, 60800, Note_on_c, 9, 42, 25
9, 60895, Note_on_c, 9, 42, 0
9, 60960, Note_on_c, 9, 42, 55
9, 60960, Note_on_c, 9, 37, 55
9, 61055, Note_on_c, 9, 37, 0
9, 61055, Note_on_c, 9, 42, 0
9, 61280, Note_on_c, 9, 35, 35
9, 61280, Note_on_c, 9, 42, 25
9, 61375, Note_on_c, 9, 42, 0
9, 61375, Note_on_c, 9, 35, 0
9, 61440, Note_on_c, 9, 35, 45
9, 61440, Note_on_c, 9, 42, 55
9, 61535, Note_on_c, 9, 42, 0
9, 61535, Note_on_c, 9, 35, 0
9, 61760, Note_on_c, 9, 42, 25
9, 61855, Note_on_c, 9, 42, 0
9, 61920, Note_on_c, 9, 42, 55
9, 61920, Note_on_c, 9, 37, 55
9, 62015, Note_on_c, 9, 37, 0
9, 62015, Note_on_c, 9, 42, 0
9, 62240, Note_on_c, 9, 35, 35
9, 62240, Note_on_c, 9, 42, 25
9, 62335, Note_on_c, 9, 42, 0
9, 62335, Note_on_c, 9, 35, 0
9, 62400, Note_on_c, 9, 35, 45
9, 62400, Note_on_c, 9, 42, 55
9, 62495, Note_on_c, 9, 42, 0
9, 62495, Note_on_c, 9, 35, 0
9, 62720, Note_on_c, 9, 42, 25
9, 62815, Note_on_c, 9, 42, 0
9, 62880, Note_on_c, 9, 42, 55
9, 62880, Note_on_c, 9, 37, 55
9, 62975, Note_on_c, 9, 37, 0
9, 62975, Note_on_c, 9, 42, 0
9, 63200, Note_on_c, 9, 35, 35
9, 63200, Note_on_c, 9, 42, 25
9, 63295, Note_on_c, 9, 42, 0
9, 63295, Note_on_c, 9, 35, 0
9, 63360, Note_on_c, 9, 35, 45
9, 63360, Note_on_c, 9, 42, 55
9, 63455, Note_on_c, 9, 42, 0
9, 63455, Note_on_c, 9, 35, 0
9, 63680, Note_on_c, 9, 42, 35
9, 63775, Note_on_c, 9, 42, 0
9, 63840, Note_on_c, 9, 42, 55
9, 63840, Note_on_c, 9, 37, 55
9, 63935, Note_on_c, 9, 37, 0
9, 63935, Note_on_c, 9, 42, 0
9, 64160, Note_on_c, 9, 35, 35
9, 64160, Note_on_c, 9, 42, 35
9, 64255, Note_on_c, 9, 42, 0
9, 64255, Note_on_c, 9, 35, 0
9, 64320, Note_on_c, 9, 35, 45
9, 64320, Note_on_c, 9, 42, 55
9, 64415, Note_on_c, 9, 42, 0
9, 64415, Note_on_c, 9, 35, 0
9, 64640, Note_on_c, 9, 42, 35
9, 64735, Note_on_c, 9, 42, 0
9, 64800, Note_on_c, 9, 42, 55
9, 64800, Note_on_c, 9, 37, 55
9, 64895, Note_on_c, 9, 37, 0
9, 64895, Note_on_c, 9, 42, 0
9, 64960, Note_on_c, 9, 46, 45
9, 65055, Note_on_c, 9, 46, 0
9, 65120, Note_on_c, 9, 35, 35
9, 65120, Note_on_c, 9, 42, 35
9, 65215, Note_on_c, 9, 42, 0
9, 65215, Note_on_c, 9, 35, 0
9, 65280, Note_on_c, 9, 35, 55
9, 65280, Note_on_c, 9, 49, 55
9, 65375, Note_on_c, 9, 49, 0
9, 65375, Note_on_c, 9, 35, 0
9, 65440, Note_on_c, 9, 42, 15
9, 65535, Note_on_c, 9, 42, 0
9, 65600, Note_on_c, 9, 42, 25
9, 65695, Note_on_c, 9, 42, 0
9, 65760, Note_on_c, 9, 42, 45
9, 65855, Note_on_c, 9, 42, 0
9, 65920, Note_on_c, 9, 42, 25
9, 66015, Note_on_c, 9, 42, 0
9, 66080, Note_on_c, 9, 42, 55
9, 66175, Note_on_c, 9, 42, 0
9, 66240, Note_on_c, 9, 38, 25
9, 66240, Note_on_c, 9, 42, 55
9, 66335, Note_on_c, 9, 42, 0
9, 66335, Note_on_c, 9, 38, 0
9, 66400, Note_on_c, 9, 38, 45
9, 66400, Note_on_c, 9, 42, 55
9, 66495, Note_on_c, 9, 42, 0
9, 66495, Note_on_c, 9, 38, 0
9, 66560, Note_on_c, 9, 38, 65
9, 66560, Note_on_c, 9, 42, 65
9, 66655, Note_on_c, 9, 42, 0
9, 66655, Note_on_c, 9, 38, 0
9, 66720, Note_on_c, 9, 38, 65
9, 66720, Note_on_c, 9, 42, 65
9, 66815, Note_on_c, 9, 42, 0
9, 66815, Note_on_c, 9, 38, 0
9, 67040, Note_on_c, 9, 35, 35
9, 67040, Note_on_c, 9, 38, 55
9, 67135, Note_on_c, 9, 38, 0
9, 67135, Note_on_c, 9, 35, 0
9, 67200, Note_on_c, 9, 35, 45
9, 67200, Note_on_c, 9, 51, 55
9, 67200, Note_on_c, 9, 49, 45
9, 67295, Note_on_c, 9, 49, 0
9, 67295, Note_on_c, 9, 51, 0
9, 67295, Note_on_c, 9, 35, 0
9, 67520, Note_on_c, 9, 51, 25
9, 67615, Note_on_c, 9, 51, 0
9, 67680, Note_on_c, 9, 38, 55
9, 67680, Note_on_c, 9, 51, 55
9, 67775, Note_on_c, 9, 51, 0
9, 67775, Note_on_c, 9, 38, 0
9, 68000, Note_on_c, 9, 35, 35
9, 68000, Note_on_c, 9, 51, 25
9, 68095, Note_on_c, 9, 51, 0
9, 68095, Note_on_c, 9, 35, 0
9, 68160, Note_on_c, 9, 35, 45
9, 68160, Note_on_c, 9, 51, 55
9, 68255, Note_on_c, 9, 51, 0
9, 68255, Note_on_c, 9, 35, 0
9, 68480, Note_on_c, 9, 51, 25
9, 68575, Note_on_c, 9, 51, 0
9, 68640, Note_on_c, 9, 38, 60
9, 68640, Note_on_c, 9, 51, 55
9, 68735, Note_on_c, 9, 51, 0
9, 68735, Note_on_c, 9, 38, 0
9, 68960, Note_on_c, 9, 35, 35
9, 68960, Note_on_c, 9, 51, 25
9, 69055, Note_on_c, 9, 51, 0
9, 69055, Note_on_c, 9, 35, 0
9, 69120, Note_on_c, 9, 35, 45
9, 69120, Note_on_c, 9, 51, 55
9, 69215, Note_on_c, 9, 51, 0
9, 69215, Note_on_c, 9, 35, 0
9, 69440, Note_on_c, 9, 51, 25
9, 69535, Note_on_c, 9, 51, 0
9, 69600, Note_on_c, 9, 38, 55
9, 69600, Note_on_c, 9, 51, 55
9, 69695, Note_on_c, 9, 51, 0
9, 69695, Note_on_c, 9, 38, 0
9, 69920, Note_on_c, 9, 35, 35
9, 69920, Note_on_c, 9, 51, 25
9, 70015, Note_on_c, 9, 51, 0
9, 70015, Note_on_c, 9, 35, 0
9, 70080, Note_on_c, 9, 35, 45
9, 70080, Note_on_c, 9, 51, 55
9, 70175, Note_on_c, 9, 51, 0
9, 70175, Note_on_c, 9, 35, 0
9, 70400, Note_on_c, 9, 51, 25
9, 70495, Note_on_c, 9, 51, 0
9, 70560, Note_on_c, 9, 38, 60
9, 70560, Note_on_c, 9, 51, 55
9, 70655, Note_on_c, 9, 51, 0
9, 70655, Note_on_c, 9, 38, 0
9, 70880, Note_on_c, 9, 35, 35
9, 70880, Note_on_c, 9, 38, 25
9, 70880, Note_on_c, 9, 51, 25
9, 70975, Note_on_c, 9, 51, 0
9, 70975, Note_on_c, 9, 38, 0
9, 70975, Note_on_c, 9, 35, 0
9, 71040, Note_on_c, 9, 35, 45
9, 71040, Note_on_c, 9, 51, 55
9, 71135, Note_on_c, 9, 51, 0
9, 71135, Note_on_c, 9, 35, 0
9, 71360, Note_on_c, 9, 51, 25
9, 71455, Note_on_c, 9, 51, 0
9, 71520, Note_on_c, 9, 38, 55
9, 71520, Note_on_c, 9, 51, 55
9, 71615, Note_on_c, 9, 51, 0
9, 71615, Note_on_c, 9, 38, 0
9, 71680, Note_on_c, 9, 46, 25
9, 71775, Note_on_c, 9, 46, 0
9, 71840, Note_on_c, 9, 35, 35
9, 71840, Note_on_c, 9, 42, 5
9, 71840, Note_on_c, 9, 51, 25
9, 71935, Note_on_c, 9, 51, 0
9, 71935, Note_on_c, 9, 42, 0
9, 71935, Note_on_c, 9, 35, 0
9, 72000, Note_on_c, 9, 35, 45
9, 72000, Note_on_c, 9, 51, 55
9, 72095, Note_on_c, 9, 51, 0
9, 72095, Note_on_c, 9, 35, 0
9, 72320, Note_on_c, 9, 51, 25
9, 72415, Note_on_c, 9, 51, 0
9, 72480, Note_on_c, 9, 38, 60
9, 72480, Note_on_c, 9, 51, 55
9, 72575, Note_on_c, 9, 51, 0
9, 72575, Note_on_c, 9, 38, 0
9, 72800, Note_on_c, 9, 35, 35
9, 72800, Note_on_c, 9, 51, 25
9, 72895, Note_on_c, 9, 51, 0
9, 72895, Note_on_c, 9, 35, 0
9, 72960, Note_on_c, 9, 35, 45
9, 72960, Note_on_c, 9, 51, 55
9, 73055, Note_on_c, 9, 51, 0
9, 73055, Note_on_c, 9, 35, 0
9, 73280, Note_on_c, 9, 51, 25
9, 73375, Note_on_c, 9, 51, 0
9, 73440, Note_on_c, 9, 38, 55
9, 73440, Note_on_c, 9, 51, 55
9, 73535, Note_on_c, 9, 51, 0
9, 73535, Note_on_c, 9, 38, 0
9, 73600, Note_on_c, 9, 51, 15
9, 73695, Note_on_c, 9, 51, 0
9, 73760, Note_on_c, 9, 35, 35
9, 73760, Note_on_c, 9, 38, 25
9, 73760, Note_on_c, 9, 51, 55
9, 73855, Note_on_c, 9, 51, 0
9, 73855, Note_on_c, 9, 38, 0
9, 73855, Note_on_c, 9, 35, 0
9, 73920, Note_on_c, 9, 35, 45
9, 73920, Note_on_c, 9, 51, 55
9, 74015, Note_on_c, 9, 51, 0
9, 74015, Note_on_c, 9, 35, 0
9, 74240, Note_on_c, 9, 51, 25
9, 74335, Note_on_c, 9, 51, 0
9, 74400, Note_on_c, 9, 38, 60
9, 74400, Note_on_c, 9, 51, 55
9, 74495, Note_on_c, 9, 51, 0
9, 74495, Note_on_c, 9, 38, 0
9, 74720, Note_on_c, 9, 35, 35
9, 74720, Note_on_c, 9, 38, 25
9, 74720, Note_on_c, 9, 51, 25
9, 74815, Note_on_c, 9, 51, 0
9, 74815, Note_on_c, 9, 38, 0
9, 74815, Note_on_c, 9, 35, 0
9, 74880, Note_on_c, 9, 35, 45
9, 74880, Note_on_c, 9, 51, 55
9, 74975, Note_on_c, 9, 51, 0
9, 74975, Note_on_c, 9, 35, 0
9, 75200, Note_on_c, 9, 51, 25
9, 75295, Note_on_c, 9, 51, 0
9, 75360, Note_on_c, 9, 38, 55
9, 75360, Note_on_c, 9, 51, 55
9, 75455, Note_on_c, 9, 51, 0
9, 75455, Note_on_c, 9, 38, 0
9, 75680, Note_on_c, 9, 35, 35
9, 75680, Note_on_c, 9, 51, 25
9, 75775, Note_on_c, 9, 51, 0
9, 75775, Note_on_c, 9, 35, 0
9, 75840, Note_on_c, 9, 35, 45
9, 75840, Note_on_c, 9, 51, 55
9, 75935, Note_on_c, 9, 51, 0
9, 75935, Note_on_c, 9, 35, 0
9, 76160, Note_on_c, 9, 51, 25
9, 76255, Note_on_c, 9, 51, 0
9, 76320, Note_on_c, 9, 38, 60
9, 76320, Note_on_c, 9, 51, 55
9, 76415, Note_on_c, 9, 51, 0
9, 76415, Note_on_c, 9, 38, 0
9, 76640, Note_on_c, 9, 35, 35
9, 76640, Note_on_c, 9, 51, 25
9, 76735, Note_on_c, 9, 51, 0
9, 76735, Note_on_c, 9, 35, 0
9, 76800, Note_on_c, 9, 35, 45
9, 76800, Note_on_c, 9, 51, 55
9, 76895, Note_on_c, 9, 51, 0
9, 76895, Note_on_c, 9, 35, 0
9, 77120, Note_on_c, 9, 51, 25
9, 77215, Note_on_c, 9, 51, 0
9, 77280, Note_on_c, 9, 38, 55
9, 77280, Note_on_c, 9, 51, 55
9, 77375, Note_on_c, 9, 51, 0
9, 77375, Note_on_c, 9, 38, 0
9, 77440, Note_on_c, 9, 51, 15
9, 77535, Note_on_c, 9, 51, 0
9, 77600, Note_on_c, 9, 35, 35
9, 77600, Note_on_c, 9, 51, 55
9, 77695, Note_on_c, 9, 51, 0
9, 77695, Note_on_c, 9, 35, 0
9, 77760, Note_on_c, 9, 35, 45
9, 77760, Note_on_c, 9, 51, 55
9, 77855, Note_on_c, 9, 51, 0
9, 77855, Note_on_c, 9, 35, 0
9, 78080, Note_on_c, 9, 51, 25
9, 78175, Note_on_c, 9, 51, 0
9, 78240, Note_on_c, 9, 38, 60
9, 78240, Note_on_c, 9, 51, 55
9, 78335, Note_on_c, 9, 51, 0
9, 78335, Note_on_c, 9, 38, 0
9, 78560, Note_on_c, 9, 35, 35
9, 78560, Note_on_c, 9, 38, 25
9, 78560, Note_on_c, 9, 51, 25
9, 78655, Note_on_c, 9, 51, 0
9, 78655, Note_on_c, 9, 38, 0
9, 78655, Note_on_c, 9, 35, 0
9, 78720, Note_on_c, 9, 35, 45
9, 78720, Note_on_c, 9, 51, 55
9, 78815, Note_on_c, 9, 51, 0
9, 78815, Note_on_c, 9, 35, 0
9, 79040, Note_on_c, 9, 51, 25
9, 79135, Note_on_c, 9, 51, 0
9, 79200, Note_on_c, 9, 38, 55
9, 79200, Note_on_c, 9, 51, 55
9, 79295, Note_on_c, 9, 51, 0
9, 79295, Note_on_c, 9, 38, 0
9, 79520, Note_on_c, 9, 35, 35
9, 79520, Note_on_c, 9, 51, 25
9, 79615, Note_on_c, 9, 51, 0
9, 79615, Note_on_c, 9, 35, 0
9, 79680, Note_on_c, 9, 35, 45
9, 79680, Note_on_c, 9, 51, 55
9, 79775, Note_on_c, 9, 51, 0
9, 79775, Note_on_c, 9, 35, 0
9, 80000, Note_on_c, 9, 51, 25
9, 80095, Note_on_c, 9, 51, 0
9, 80160, Note_on_c, 9, 38, 60
9, 80160, Note_on_c, 9, 51, 55
9, 80255, Note_on_c, 9, 51, 0
9, 80255, Note_on_c, 9, 38, 0
9, 80480, Note_on_c, 9, 35, 35
9, 80480, Note_on_c, 9, 51, 25
9, 80575, Note_on_c, 9, 51, 0
9, 80575, Note_on_c, 9, 35, 0
9, 80640, Note_on_c, 9, 35, 45
9, 80640, Note_on_c, 9, 51, 55
9, 80735, Note_on_c, 9, 51, 0
9, 80735, Note_on_c, 9, 35, 0
9, 80960, Note_on_c, 9, 51, 25
9, 81055, Note_on_c, 9, 51, 0
9, 81120, Note_on_c, 9, 38, 55
9, 81120, Note_on_c, 9, 51, 55
9, 81215, Note_on_c, 9, 51, 0
9, 81215, Note_on_c, 9, 38, 0
9, 81440, Note_on_c, 9, 35, 35
9, 81440, Note_on_c, 9, 51, 25
9, 81535, Note_on_c, 9, 51, 0
9, 81535, Note_on_c, 9, 35, 0
9, 81600, Note_on_c, 9, 35, 45
9, 81600, Note_on_c, 9, 51, 55
9, 81695, Note_on_c, 9, 51, 0
9, 81695, Note_on_c, 9, 35, 0
9, 81920, Note_on_c, 9, 51, 25
9, 82015, Note_on_c, 9, 51, 0
9, 82080, Note_on_c, 9, 38, 60
9, 82080, Note_on_c, 9, 51, 55
9, 82175, Note_on_c, 9, 51, 0
9, 82175, Note_on_c, 9, 38, 0
9, 82400, Note_on_c, 9, 35, 35
9, 82400, Note_on_c, 9, 51, 25
9, 82495, Note_on_c, 9, 51, 0
9, 82495, Note_on_c, 9, 35, 0
9, 82560, Note_on_c, 9, 35, 45
9, 82560, Note_on_c, 9, 51, 55
9, 82655, Note_on_c, 9, 51, 0
9, 82655, Note_on_c, 9, 35, 0
9, 82880, Note_on_c, 9, 51, 25
9, 82975, Note_on_c, 9, 51, 0
9, 83040, Note_on_c, 9, 38, 55
9, 83040, Note_on_c, 9, 51, 55
9, 83135, Note_on_c, 9, 51, 0
9, 83135, Note_on_c, 9, 38, 0
9, 83360, Note_on_c, 9, 35, 35
9, 83360, Note_on_c, 9, 51, 25
9, 83455, Note_on_c, 9, 51, 0
9, 83455, Note_on_c, 9, 35, 0
9, 83520, Note_on_c, 9, 35, 45
9, 83520, Note_on_c, 9, 51, 55
9, 83615, Note_on_c, 9, 51, 0
9, 83615, Note_on_c, 9, 35, 0
9, 83840, Note_on_c, 9, 51, 25
9, 83935, Note_on_c, 9, 51, 0
9, 84000, Note_on_c, 9, 38, 60
9, 84000, Note_on_c, 9, 51, 55
9, 84095, Note_on_c, 9, 51, 0
9, 84095, Note_on_c, 9, 38, 0
9, 84320, Note_on_c, 9, 35, 35
9, 84320, Note_on_c, 9, 51, 25
9, 84415, Note_on_c, 9, 51, 0
9, 84415, Note_on_c, 9, 35, 0
9, 84480, Note_on_c, 9, 35, 45
9, 84480, Note_on_c, 9, 51, 55
9, 84575, Note_on_c, 9, 51, 0
9, 84575, Note_on_c, 9, 35, 0
9, 84640, Note_on_c, 9, 51, 15
9, 84735, Note_on_c, 9, 51, 0
9, 84800, Note_on_c, 9, 51, 25
9, 84895, Note_on_c, 9, 51, 0
9, 84960, Note_on_c, 9, 38, 55
9, 84960, Note_on_c, 9, 51, 55
9, 85055, Note_on_c, 9, 51, 0
9, 85055, Note_on_c, 9, 38, 0
9, 85120, Note_on_c, 9, 51, 15
9, 85215, Note_on_c, 9, 51, 0
9, 85280, Note_on_c, 9, 35, 35
9, 85280, Note_on_c, 9, 38, 25
9, 85280, Note_on_c, 9, 51, 25
9, 85375, Note_on_c, 9, 51, 0
9, 85375, Note_on_c, 9, 38, 0
9, 85375, Note_on_c, 9, 35, 0
9, 85440, Note_on_c, 9, 35, 45
9, 85440, Note_on_c, 9, 51, 55
9, 85535, Note_on_c, 9, 51, 0
9, 85535, Note_on_c, 9, 35, 0
9, 85760, Note_on_c, 9, 51, 25
9, 85855, Note_on_c, 9, 51, 0
9, 85920, Note_on_c, 9, 38, 60
9, 85920, Note_on_c, 9, 51, 55
9, 86015, Note_on_c, 9, 51, 0
9, 86015, Note_on_c, 9, 38, 0
9, 86240, Note_on_c, 9, 35, 35
9, 86240, Note_on_c, 9, 38, 25
9, 86240, Note_on_c, 9, 51, 25
9, 86335, Note_on_c, 9, 51, 0
9, 86335, Note_on_c, 9, 38, 0
9, 86335, Note_on_c, 9, 35, 0
9, 86400, Note_on_c, 9, 35, 45
9, 86400, Note_on_c, 9, 51, 55
9, 86495, Note_on_c, 9, 51, 0
9, 86495, Note_on_c, 9, 35, 0
9, 86720, Note_on_c, 9, 51, 25
9, 86815, Note_on_c, 9, 51, 0
9, 86880, Note_on_c, 9, 38, 55
9, 86880, Note_on_c, 9, 51, 55
9, 86975, Note_on_c, 9, 51, 0
9, 86975, Note_on_c, 9, 38, 0
9, 87200, Note_on_c, 9, 35, 35
9, 87200, Note_on_c, 9, 38, 25
9, 87200, Note_on_c, 9, 51, 25
9, 87295, Note_on_c, 9, 51, 0
9, 87295, Note_on_c, 9, 38, 0
9, 87295, Note_on_c, 9, 35, 0
9, 87360, Note_on_c, 9, 35, 45
9, 87360, Note_on_c, 9, 51, 55
9, 87455, Note_on_c, 9, 51, 0
9, 87455, Note_on_c, 9, 35, 0
9, 87680, Note_on_c, 9, 51, 25
9, 87775, Note_on_c, 9, 51, 0
9, 87840, Note_on_c, 9, 38, 60
9, 87840, Note_on_c, 9, 51, 55
9, 87935, Note_on_c, 9, 51, 0
9, 87935, Note_on_c, 9, 38, 0
9, 88160, Note_on_c, 9, 35, 35
9, 88160, Note_on_c, 9, 38, 25
9, 88160, Note_on_c, 9, 51, 25
9, 88255, Note_on_c, 9, 51, 0
9, 88255, Note_on_c, 9, 38, 0
9, 88255, Note_on_c, 9, 35, 0
9, 88320, Note_on_c, 9, 35, 45
9, 88320, Note_on_c, 9, 51, 55
9, 88415, Note_on_c, 9, 51, 0
9, 88415, Note_on_c, 9, 35, 0
9, 88640, Note_on_c, 9, 51, 25
9, 88735, Note_on_c, 9, 51, 0
9, 88800, Note_on_c, 9, 38, 55
9, 88800, Note_on_c, 9, 51, 55
9, 88895, Note_on_c, 9, 51, 0
9, 88895, Note_on_c, 9, 38, 0
9, 89120, Note_on_c, 9, 35, 35
9, 89120, Note_on_c, 9, 51, 25
9, 89215, Note_on_c, 9, 51, 0
9, 89215, Note_on_c, 9, 35, 0
9, 89280, Note_on_c, 9, 35, 45
9, 89280, Note_on_c, 9, 51, 55
9, 89375, Note_on_c, 9, 51, 0
9, 89375, Note_on_c, 9, 35, 0
9, 89600, Note_on_c, 9, 51, 25
9, 89695, Note_on_c, 9, 51, 0
9, 89760, Note_on_c, 9, 38, 60
9, 89760, Note_on_c, 9, 51, 55
9, 89855, Note_on_c, 9, 51, 0
9, 89855, Note_on_c, 9, 38, 0
9, 90080, Note_on_c, 9, 35, 35
9, 90080, Note_on_c, 9, 51, 25
9, 90175, Note_on_c, 9, 51, 0
9, 90175, Note_on_c, 9, 35, 0
9, 90240, Note_on_c, 9, 35, 45
9, 90240, Note_on_c, 9, 51, 55
9, 90335, Note_on_c, 9, 51, 0
9, 90335, Note_on_c, 9, 35, 0
9, 90560, Note_on_c, 9, 51, 25
9, 90655, Note_on_c, 9, 51, 0
9, 90720, Note_on_c, 9, 38, 55
9, 90720, Note_on_c, 9, 51, 55
9, 90815, Note_on_c, 9, 51, 0
9, 90815, Note_on_c, 9, 38, 0
9, 91040, Note_on_c, 9, 35, 35
9, 91040, Note_on_c, 9, 38, 25
9, 91040, Note_on_c, 9, 51, 25
9, 91135, Note_on_c, 9, 51, 0
9, 91135, Note_on_c, 9, 38, 0
9, 91135, Note_on_c, 9, 35, 0
9, 91200, Note_on_c, 9, 35, 45
9, 91200, Note_on_c, 9, 51, 55
9, 91295, Note_on_c, 9, 51, 0
9, 91295, Note_on_c, 9, 35, 0
9, 91520, Note_on_c, 9, 51, 25
9, 91615, Note_on_c, 9, 51, 0
9, 91680, Note_on_c, 9, 38, 60
9, 91680, Note_on_c, 9, 51, 55
9, 91775, Note_on_c, 9, 51, 0
9, 91775, Note_on_c, 9, 38, 0
9, 92000, Note_on_c, 9, 35, 35
9, 92000, Note_on_c, 9, 38, 25
9, 92000, Note_on_c, 9, 51, 25
9, 92095, Note_on_c, 9, 51, 0
9, 92095, Note_on_c, 9, 38, 0
9, 92095, Note_on_c, 9, 35, 0
9, 92160, Note_on_c, 9, 35, 45
9, 92160, Note_on_c, 9, 51, 55
9, 92255, Note_on_c, 9, 51, 0
9, 92255, Note_on_c, 9, 35, 0
9, 92480, Note_on_c, 9, 51, 25
9, 92575, Note_on_c, 9, 51, 0
9, 92640, Note_on_c, 9, 38, 55
9, 92640, Note_on_c, 9, 51, 55
9, 92735, Note_on_c, 9, 51, 0
9, 92735, Note_on_c, 9, 38, 0
9, 92960, Note_on_c, 9, 35, 35
9, 92960, Note_on_c, 9, 38, 25
9, 92960, Note_on_c, 9, 51, 25
9, 93055, Note_on_c, 9, 51, 0
9, 93055, Note_on_c, 9, 38, 0
9, 93055, Note_on_c, 9, 35, 0
9, 93120, Note_on_c, 9, 35, 45
9, 93120, Note_on_c, 9, 51, 55
9, 93215, Note_on_c, 9, 51, 0
9, 93215, Note_on_c, 9, 35, 0
9, 93440, Note_on_c, 9, 51, 25
9, 93535, Note_on_c, 9, 51, 0
9, 93600, Note_on_c, 9, 38, 60
9, 93600, Note_on_c, 9, 51, 55
9, 93695, Note_on_c, 9, 51, 0
9, 93695, Note_on_c, 9, 38, 0
9, 93920, Note_on_c, 9, 35, 35
9, 93920, Note_on_c, 9, 38, 25
9, 93920, Note_on_c, 9, 51, 25
9, 94015, Note_on_c, 9, 51, 0
9, 94015, Note_on_c, 9, 38, 0
9, 94015, Note_on_c, 9, 35, 0
9, 94080, Note_on_c, 9, 35, 45
9, 94080, Note_on_c, 9, 51, 55
9, 94175, Note_on_c, 9, 51, 0
9, 94175, Note_on_c, 9, 35, 0
9, 94240, Note_on_c, 9, 51, 15
9, 94335, Note_on_c, 9, 51, 0
9, 94400, Note_on_c, 9, 51, 25
9, 94495, Note_on_c, 9, 51, 0
9, 94560, Note_on_c, 9, 38, 55
9, 94560, Note_on_c, 9, 51, 55
9, 94655, Note_on_c, 9, 51, 0
9, 94655, Note_on_c, 9, 38, 0
9, 94720, Note_on_c, 9, 51, 15
9, 94815, Note_on_c, 9, 51, 0
9, 94880, Note_on_c, 9, 35, 35
9, 94880, Note_on_c, 9, 38, 25
9, 94880, Note_on_c, 9, 51, 25
9, 94975, Note_on_c, 9, 51, 0
9, 94975, Note_on_c, 9, 38, 0
9, 94975, Note_on_c, 9, 35, 0
9, 95040, Note_on_c, 9, 35, 45
9, 95040, Note_on_c, 9, 51, 55
9, 95135, Note_on_c, 9, 51, 0
9, 95135, Note_on_c, 9, 35, 0
9, 95360, Note_on_c, 9, 51, 19
9, 95455, Note_on_c, 9, 51, 0
9, 95520, Note_on_c, 9, 38, 60
9, 95520, Note_on_c, 9, 51, 55
9, 95615, Note_on_c, 9, 51, 0
9, 95615, Note_on_c, 9, 38, 0
9, 95840, Note_on_c, 9, 35, 35
9, 95840, Note_on_c, 9, 38, 25
9, 95840, Note_on_c, 9, 51, 25
9, 95935, Note_on_c, 9, 51, 0
9, 95935, Note_on_c, 9, 38, 0
9, 95935, Note_on_c, 9, 35, 0
9, 96000, Note_on_c, 9, 35, 55
9, 96000, Note_on_c, 9, 46, 55
9, 96095, Note_on_c, 9, 46, 0
9, 96095, Note_on_c, 9, 35, 0
9, 96320, Note_on_c, 9, 35, 55
9, 96415, Note_on_c, 9, 35, 0
9, 96480, Note_on_c, 9, 35, 65
9, 96480, Note_on_c, 9, 45, 25
9, 96480, Note_on_c, 9, 48, 65
9, 96575, Note_on_c, 9, 48, 0
9, 96575, Note_on_c, 9, 45, 0
9, 96575, Note_on_c, 9, 35, 0
9, 96640, Note_on_c, 9, 48, 35
9, 96735, Note_on_c, 9, 48, 0
9, 96800, Note_on_c, 9, 45, 65
9, 96895, Note_on_c, 9, 45, 0
9, 96960, Note_on_c, 9, 45, 25
9, 96960, Note_on_c, 9, 48, 65
9, 97055, Note_on_c, 9, 48, 0
9, 97055, Note_on_c, 9, 45, 0
9, 97120, Note_on_c, 9, 48, 35
9, 97215, Note_on_c, 9, 48, 0
9, 97280, Note_on_c, 9, 45, 65
9, 97375, Note_on_c, 9, 45, 0
9, 97440, Note_on_c, 9, 41, 25
9, 97440, Note_on_c, 9, 45, 65
9, 97535, Note_on_c, 9, 45, 0
9, 97535, Note_on_c, 9, 41, 0
9, 97600, Note_on_c, 9, 45, 35
9, 97695, Note_on_c, 9, 45, 0
9, 97760, Note_on_c, 9, 41, 65
9, 97855, Note_on_c, 9, 41, 0
9, 97920, Note_on_c, 9, 35, 45
9, 97920, Note_on_c, 9, 51, 55
9, 97920, Note_on_c, 9, 49, 45
9, 98015, Note_on_c, 9, 49, 0
9, 98015, Note_on_c, 9, 51, 0
9, 98015, Note_on_c, 9, 35, 0
9, 98240, Note_on_c, 9, 51, 25
9, 98335, Note_on_c, 9, 51, 0
9, 98400, Note_on_c, 9, 38, 55
9, 98400, Note_on_c, 9, 51, 55
9, 98495, Note_on_c, 9, 51, 0
9, 98495, Note_on_c, 9, 38, 0
9, 98720, Note_on_c, 9, 35, 35
9, 98720, Note_on_c, 9, 51, 25
9, 98815, Note_on_c, 9, 51, 0
9, 98815, Note_on_c, 9, 35, 0
9, 98880, Note_on_c, 9, 35, 45
9, 98880, Note_on_c, 9, 51, 55
9, 98975, Note_on_c, 9, 51, 0
9, 98975, Note_on_c, 9, 35, 0
9, 99200, Note_on_c, 9, 51, 25
9, 99295, Note_on_c, 9, 51, 0
9, 99360, Note_on_c, 9, 38, 60
9, 99360, Note_on_c, 9, 51, 55
9, 99455, Note_on_c, 9, 51, 0
9, 99455, Note_on_c, 9, 38, 0
9, 99680, Note_on_c, 9, 35, 35
9, 99680, Note_on_c, 9, 51, 25
9, 99775, Note_on_c, 9, 51, 0
9, 99775, Note_on_c, 9, 35, 0
9, 99840, Note_on_c, 9, 35, 45
9, 99840, Note_on_c, 9, 51, 55
9, 99935, Note_on_c, 9, 51, 0
9, 99935, Note_on_c, 9, 35, 0
9, 100160, Note_on_c, 9, 51, 25
9, 100255, Note_on_c, 9, 51, 0
9, 100320, Note_on_c, 9, 38, 55
9, 100320, Note_on_c, 9, 51, 55
9, 100415, Note_on_c, 9, 51, 0
9, 100415, Note_on_c, 9, 38, 0
9, 100480, Note_on_c, 9, 46, 25
9, 100575, Note_on_c, 9, 46, 0
9, 100640, Note_on_c, 9, 35, 35
9, 100640, Note_on_c, 9, 42, 5
9, 100640, Note_on_c, 9, 51, 25
9, 100735, Note_on_c, 9, 51, 0
9, 100735, Note_on_c, 9, 42, 0
9, 100735, Note_on_c, 9, 35, 0
9, 100800, Note_on_c, 9, 35, 45
9, 100800, Note_on_c, 9, 51, 55
9, 100895, Note_on_c, 9, 51, 0
9, 100895, Note_on_c, 9, 35, 0
9, 101120, Note_on_c, 9, 51, 25
9, 101215, Note_on_c, 9, 51, 0
9, 101280, Note_on_c, 9, 38, 60
9, 101280, Note_on_c, 9, 51, 55
9, 101375, Note_on_c, 9, 51, 0
9, 101375, Note_on_c, 9, 38, 0
9, 101600, Note_on_c, 9, 35, 35
9, 101600, Note_on_c, 9, 51, 25
9, 101695, Note_on_c, 9, 51, 0
9, 101695, Note_on_c, 9, 35, 0
9, 101760, Note_on_c, 9, 35, 45
9, 101760, Note_on_c, 9, 51, 55
9, 101855, Note_on_c, 9, 51, 0
9, 101855, Note_on_c, 9, 35, 0
9, 101920, Note_on_c, 9, 51, 15
9, 102015, Note_on_c, 9, 51, 0
9, 102080, Note_on_c, 9, 51, 25
9, 102175, Note_on_c, 9, 51, 0
9, 102240, Note_on_c, 9, 38, 55
9, 102240, Note_on_c, 9, 51, 55
9, 102335, Note_on_c, 9, 51, 0
9, 102335, Note_on_c, 9, 38, 0
9, 102400, Note_on_c, 9, 51, 15
9, 102495, Note_on_c, 9, 51, 0
9, 102560, Note_on_c, 9, 35, 35
9, 102560, Note_on_c, 9, 38, 25
9, 102560, Note_on_c, 9, 51, 25
9, 102655, Note_on_c, 9, 51, 0
9, 102655, Note_on_c, 9, 38, 0
9, 102655, Note_on_c, 9, 35, 0
9, 102720, Note_on_c, 9, 35, 45
9, 102720, Note_on_c, 9, 51, 55
9, 102815, Note_on_c, 9, 51, 0
9, 102815, Note_on_c, 9, 35, 0
9, 103040, Note_on_c, 9, 51, 19
9, 103135, Note_on_c, 9, 51, 0
9, 103200, Note_on_c, 9, 38, 60
9, 103200, Note_on_c, 9, 51, 55
9, 103295, Note_on_c, 9, 51, 0
9, 103295, Note_on_c, 9, 38, 0
9, 103520, Note_on_c, 9, 35, 35
9, 103520, Note_on_c, 9, 38, 25
9, 103520, Note_on_c, 9, 51, 25
9, 103615, Note_on_c, 9, 51, 0
9, 103615, Note_on_c, 9, 38, 0
9, 103615, Note_on_c, 9, 35, 0
9, 103680, Note_on_c, 9, 35, 45
9, 103680, Note_on_c, 9, 51, 55
9, 103775, Note_on_c, 9, 51, 0
9, 103775, Note_on_c, 9, 35, 0
9, 104000, Note_on_c, 9, 51, 25
9, 104095, Note_on_c, 9, 51, 0
9, 104160, Note_on_c, 9, 38, 55
9, 104160, Note_on_c, 9, 51, 55
9, 104255, Note_on_c, 9, 51, 0
9, 104255, Note_on_c, 9, 38, 0
9, 104480, Note_on_c, 9, 35, 35
9, 104480, Note_on_c, 9, 38, 25
9, 104480, Note_on_c, 9, 51, 25
9, 104575, Note_on_c, 9, 51, 0
9, 104575, Note_on_c, 9, 38, 0
9, 104575, Note_on_c, 9, 35, 0
9, 104640, Note_on_c, 9, 35, 45
9, 104640, Note_on_c, 9, 51, 55
9, 104735, Note_on_c, 9, 51, 0
9, 104735, Note_on_c, 9, 35, 0
9, 104960, Note_on_c, 9, 51, 25
9, 105055, Note_on_c, 9, 51, 0
9, 105120, Note_on_c, 9, 38, 60
9, 105120, Note_on_c, 9, 51, 55
9, 105215, Note_on_c, 9, 51, 0
9, 105215, Note_on_c, 9, 38, 0
9, 105440, Note_on_c, 9, 35, 35
9, 105440, Note_on_c, 9, 38, 25
9, 105440, Note_on_c, 9, 51, 25
9, 105535, Note_on_c, 9, 51, 0
9, 105535, Note_on_c, 9, 38, 0
9, 105535, Note_on_c, 9, 35, 0
9, 105600, Note_on_c, 9, 35, 45
9, 105600, Note_on_c, 9, 51, 55
9, 105695, Note_on_c, 9, 51, 0
9, 105695, Note_on_c, 9, 35, 0
9, 105920, Note_on_c, 9, 51, 25
9, 106015, Note_on_c, 9, 51, 0
9, 106080, Note_on_c, 9, 38, 55
9, 106080, Note_on_c, 9, 51, 55
9, 106175, Note_on_c, 9, 51, 0
9, 106175, Note_on_c, 9, 38, 0
9, 106240, Note_on_c, 9, 46, 25
9, 106335, Note_on_c, 9, 46, 0
9, 106400, Note_on_c, 9, 35, 35
9, 106400, Note_on_c, 9, 42, 5
9, 106400, Note_on_c, 9, 51, 25
9, 106495, Note_on_c, 9, 51, 0
9, 106495, Note_on_c, 9, 42, 0
9, 106495, Note_on_c, 9, 35, 0
9, 106560, Note_on_c, 9, 35, 45
9, 106560, Note_on_c, 9, 51, 55
9, 106655, Note_on_c, 9, 51, 0
9, 106655, Note_on_c, 9, 35, 0
9, 106880, Note_on_c, 9, 51, 25
9, 106975, Note_on_c, 9, 51, 0
9, 107040, Note_on_c, 9, 38, 60
9, 107040, Note_on_c, 9, 51, 55
9, 107135, Note_on_c, 9, 51, 0
9, 107135, Note_on_c, 9, 38, 0
9, 107360, Note_on_c, 9, 35, 35
9, 107360, Note_on_c, 9, 51, 25
9, 107455, Note_on_c, 9, 51, 0
9, 107455, Note_on_c, 9, 35, 0
9, 107520, Note_on_c, 9, 35, 45
9, 107520, Note_on_c, 9, 51, 55
9, 107615, Note_on_c, 9, 51, 0
9, 107615, Note_on_c, 9, 35, 0
9, 107840, Note_on_c, 9, 51, 25
9, 107935, Note_on_c, 9, 51, 0
9, 108000, Note_on_c, 9, 38, 55
9, 108000, Note_on_c, 9, 51, 55
9, 108095, Note_on_c, 9, 51, 0
9, 108095, Note_on_c, 9, 38, 0
9, 108160, Note_on_c, 9, 46, 25
9, 108255, Note_on_c, 9, 46, 0
9, 108320, Note_on_c, 9, 35, 35
9, 108320, Note_on_c, 9, 42, 5
9, 108320, Note_on_c, 9, 51, 25
9, 108415, Note_on_c, 9, 51, 0
9, 108415, Note_on_c, 9, 42, 0
9, 108415, Note_on_c, 9, 35, 0
9, 108480, Note_on_c, 9, 35, 45
9, 108480, Note_on_c, 9, 51, 55
9, 108575, Note_on_c, 9, 51, 0
9, 108575, Note_on_c, 9, 35, 0
9, 108800, Note_on_c, 9, 51, 25
9, 108895, Note_on_c, 9, 51, 0
9, 108960, Note_on_c, 9, 38, 60
9, 108960, Note_on_c, 9, 51, 55
9, 109055, Note_on_c, 9, 51, 0
9, 109055, Note_on_c, 9, 38, 0
9, 109280, Note_on_c, 9, 35, 35
9, 109280, Note_on_c, 9, 51, 25
9, 109375, Note_on_c, 9, 51, 0
9, 109375, Note_on_c, 9, 35, 0
9, 109440, Note_on_c, 9, 35, 45
9, 109440, Note_on_c, 9, 51, 55
9, 109535, Note_on_c, 9, 51, 0
9, 109535, Note_on_c, 9, 35, 0
9, 109760, Note_on_c, 9, 51, 25
9, 109855, Note_on_c, 9, 51, 0
9, 109920, Note_on_c, 9, 38, 55
9, 109920, Note_on_c, 9, 51, 55
9, 110015, Note_on_c, 9, 51, 0
9, 110015, Note_on_c, 9, 38, 0
9, 110240, Note_on_c, 9, 35, 35
9, 110240, Note_on_c, 9, 51, 25
9, 110335, Note_on_c, 9, 51, 0
9, 110335, Note_on_c, 9, 35, 0
9, 110400, Note_on_c, 9, 35, 45
9, 110400, Note_on_c, 9, 51, 55
9, 110495, Note_on_c, 9, 51, 0
9, 110495, Note_on_c, 9, 35, 0
9, 110720, Note_on_c, 9, 51, 25
9, 110815, Note_on_c, 9, 51, 0
9, 110880, Note_on_c, 9, 38, 60
9, 110880, Note_on_c, 9, 51, 55
9, 110975, Note_on_c, 9, 51, 0
9, 110975, Note_on_c, 9, 38, 0
9, 111200, Note_on_c, 9, 35, 35
9, 111200, Note_on_c, 9, 38, 25
9, 111200, Note_on_c, 9, 51, 25
9, 111295, Note_on_c, 9, 51, 0
9, 111295, Note_on_c, 9, 38, 0
9, 111295, Note_on_c, 9, 35, 0
9, 111360, Note_on_c, 9, 35, 45
9, 111360, Note_on_c, 9, 51, 55
9, 111455, Note_on_c, 9, 51, 0
9, 111455, Note_on_c, 9, 35, 0
9, 111520, Note_on_c, 9, 51, 15
9, 111615, Note_on_c, 9, 51, 0
9, 111680, Note_on_c, 9, 51, 25
9, 111775, Note_on_c, 9, 51, 0
9, 111840, Note_on_c, 9, 38, 55
9, 111840, Note_on_c, 9, 51, 55
9, 111935, Note_on_c, 9, 51, 0
9, 111935, Note_on_c, 9, 38, 0
9, 112160, Note_on_c, 9, 35, 35
9, 112160, Note_on_c, 9, 51, 25
9, 112255, Note_on_c, 9, 51, 0
9, 112255, Note_on_c, 9, 35, 0
9, 112320, Note_on_c, 9, 35, 45
9, 112320, Note_on_c, 9, 51, 55
9, 112415, Note_on_c, 9, 51, 0
9, 112415, Note_on_c, 9, 35, 0
9, 112640, Note_on_c, 9, 51, 25
9, 112735, Note_on_c, 9, 51, 0
9, 112800, Note_on_c, 9, 38, 60
9, 112800, Note_on_c, 9, 51, 55
9, 112895, Note_on_c, 9, 51, 0
9, 112895, Note_on_c, 9, 38, 0
9, 113120, Note_on_c, 9, 35, 35
9, 113120, Note_on_c, 9, 38, 25
9, 113120, Note_on_c, 9, 51, 25
9, 113215, Note_on_c, 9, 51, 0
9, 113215, Note_on_c, 9, 38, 0
9, 113215, Note_on_c, 9, 35, 0
9, 113280, Note_on_c, 9, 35, 45
9, 113280, Note_on_c, 9, 51, 55
9, 113375, Note_on_c, 9, 51, 0
9, 113375, Note_on_c, 9, 35, 0
9, 113600, Note_on_c, 9, 51, 25
9, 113695, Note_on_c, 9, 51, 0
9, 113760, Note_on_c, 9, 38, 55
9, 113760, Note_on_c, 9, 51, 55
9, 113855, Note_on_c, 9, 51, 0
9, 113855, Note_on_c, 9, 38, 0
9, 113920, Note_on_c, 9, 51, 15
9, 114015, Note_on_c, 9, 51, 0
9, 114080, Note_on_c, 9, 35, 35
9, 114080, Note_on_c, 9, 38, 25
9, 114080, Note_on_c, 9, 51, 55
9, 114175, Note_on_c, 9, 51, 0
9, 114175, Note_on_c, 9, 38, 0
9, 114175, Note_on_c, 9, 35, 0
9, 114240, Note_on_c, 9, 35, 45
9, 114240, Note_on_c, 9, 51, 55
9, 114335, Note_on_c, 9, 51, 0
9, 114335, Note_on_c, 9, 35, 0
9, 114560, Note_on_c, 9, 51, 25
9, 114655, Note_on_c, 9, 51, 0
9, 114720, Note_on_c, 9, 38, 60
9, 114720, Note_on_c, 9, 51, 55
9, 114815, Note_on_c, 9, 51, 0
9, 114815, Note_on_c, 9, 38, 0
9, 115040, Note_on_c, 9, 35, 35
9, 115040, Note_on_c, 9, 38, 25
9, 115040, Note_on_c, 9, 51, 25
9, 115135, Note_on_c, 9, 51, 0
9, 115135, Note_on_c, 9, 38, 0
9, 115135, Note_on_c, 9, 35, 0
9, 115200, Note_on_c, 9, 35, 45
9, 115200, Note_on_c, 9, 51, 55
9, 115295, Note_on_c, 9, 51, 0
9, 115295, Note_on_c, 9, 35, 0
9, 115520, Note_on_c, 9, 51, 25
9, 115615, Note_on_c, 9, 51, 0
9, 115680, Note_on_c, 9, 38, 55
9, 115680, Note_on_c, 9, 51, 55
9, 115775, Note_on_c, 9, 51, 0
9, 115775, Note_on_c, 9, 38, 0
9, 115840, Note_on_c, 9, 46, 25
9, 115935, Note_on_c, 9, 46, 0
9, 116000, Note_on_c, 9, 35, 35
9, 116000, Note_on_c, 9, 42, 5
9, 116000, Note_on_c, 9, 51, 25
9, 116095, Note_on_c, 9, 51, 0
9, 116095, Note_on_c, 9, 42, 0
9, 116095, Note_on_c, 9, 35, 0
9, 116160, Note_on_c, 9, 35, 45
9, 116160, Note_on_c, 9, 51, 55
9, 116255, Note_on_c, 9, 51, 0
9, 116255, Note_on_c, 9, 35, 0
9, 116480, Note_on_c, 9, 51, 25
9, 116575, Note_on_c, 9, 51, 0
9, 116640, Note_on_c, 9, 38, 60
9, 116640, Note_on_c, 9, 51, 55
9, 116735, Note_on_c, 9, 51, 0
9, 116735, Note_on_c, 9, 38, 0
9, 116960, Note_on_c, 9, 35, 35
9, 116960, Note_on_c, 9, 51, 25
9, 117055, Note_on_c, 9, 51, 0
9, 117055, Note_on_c, 9, 35, 0
9, 117120, Note_on_c, 9, 35, 45
9, 117120, Note_on_c, 9, 51, 55
9, 117215, Note_on_c, 9, 51, 0
9, 117215, Note_on_c, 9, 35, 0
9, 117440, Note_on_c, 9, 51, 25
9, 117535, Note_on_c, 9, 51, 0
9, 117600, Note_on_c, 9, 38, 55
9, 117600, Note_on_c, 9, 51, 55
9, 117695, Note_on_c, 9, 51, 0
9, 117695, Note_on_c, 9, 38, 0
9, 117920, Note_on_c, 9, 35, 35
9, 117920, Note_on_c, 9, 51, 25
9, 118015, Note_on_c, 9, 51, 0
9, 118015, Note_on_c, 9, 35, 0
9, 118080, Note_on_c, 9, 35, 45
9, 118080, Note_on_c, 9, 51, 55
9, 118175, Note_on_c, 9, 51, 0
9, 118175, Note_on_c, 9, 35, 0
9, 118400, Note_on_c, 9, 51, 25
9, 118495, Note_on_c, 9, 51, 0
9, 118560, Note_on_c, 9, 38, 60
9, 118560, Note_on_c, 9, 51, 55
9, 118655, Note_on_c, 9, 51, 0
9, 118655, Note_on_c, 9, 38, 0
9, 118880, Note_on_c, 9, 35, 35
9, 118880, Note_on_c, 9, 38, 25
9, 118880, Note_on_c, 9, 51, 25
9, 118975, Note_on_c, 9, 51, 0
9, 118975, Note_on_c, 9, 38, 0
9, 118975, Note_on_c, 9, 35, 0
9, 119040, Note_on_c, 9, 35, 45
9, 119040, Note_on_c, 9, 51, 55
9, 119135, Note_on_c, 9, 51, 0
9, 119135, Note_on_c, 9, 35, 0
9, 119360, Note_on_c, 9, 51, 25
9, 119455, Note_on_c, 9, 51, 0
9, 119520, Note_on_c, 9, 38, 55
9, 119520, Note_on_c, 9, 51, 55
9, 119615, Note_on_c, 9, 51, 0
9, 119615, Note_on_c, 9, 38, 0
9, 119840, Note_on_c, 9, 35, 35
9, 119840, Note_on_c, 9, 38, 25
9, 119840, Note_on_c, 9, 51, 25
9, 119935, Note_on_c, 9, 51, 0
9, 119935, Note_on_c, 9, 38, 0
9, 119935, Note_on_c, 9, 35, 0
9, 120000, Note_on_c, 9, 35, 45
9, 120000, Note_on_c, 9, 51, 55
9, 120095, Note_on_c, 9, 51, 0
9, 120095, Note_on_c, 9, 35, 0
9, 120320, Note_on_c, 9, 51, 25
9, 120415, Note_on_c, 9, 51, 0
9, 120480, Note_on_c, 9, 38, 60
9, 120480, Note_on_c, 9, 51, 55
9, 120575, Note_on_c, 9, 51, 0
9, 120575, Note_on_c, 9, 38, 0
9, 120800, Note_on_c, 9, 35, 35
9, 120800, Note_on_c, 9, 38, 25
9, 120800, Note_on_c, 9, 51, 25
9, 120895, Note_on_c, 9, 51, 0
9, 120895, Note_on_c, 9, 38, 0
9, 120895, Note_on_c, 9, 35, 0
9, 120960, Note_on_c, 9, 35, 45
9, 120960, Note_on_c, 9, 51, 55
9, 121055, Note_on_c, 9, 51, 0
9, 121055, Note_on_c, 9, 35, 0
9, 121280, Note_on_c, 9, 51, 25
9, 121375, Note_on_c, 9, 51, 0
9, 121440, Note_on_c, 9, 38, 55
9, 121440, Note_on_c, 9, 51, 55
9, 121535, Note_on_c, 9, 51, 0
9, 121535, Note_on_c, 9, 38, 0
9, 121760, Note_on_c, 9, 35, 35
9, 121760, Note_on_c, 9, 51, 25
9, 121855, Note_on_c, 9, 51, 0
9, 121855, Note_on_c, 9, 35, 0
9, 121920, Note_on_c, 9, 35, 45
9, 121920, Note_on_c, 9, 51, 55
9, 122015, Note_on_c, 9, 51, 0
9, 122015, Note_on_c, 9, 35, 0
9, 122240, Note_on_c, 9, 51, 25
9, 122335, Note_on_c, 9, 51, 0
9, 122400, Note_on_c, 9, 38, 60
9, 122400, Note_on_c, 9, 51, 55
9, 122495, Note_on_c, 9, 51, 0
9, 122495, Note_on_c, 9, 38, 0
9, 122720, Note_on_c, 9, 35, 35
9, 122720, Note_on_c, 9, 51, 25
9, 122815, Note_on_c, 9, 51, 0
9, 122815, Note_on_c, 9, 35, 0
9, 122880, Note_on_c, 9, 35, 45
9, 122880, Note_on_c, 9, 51, 55
9, 122975, Note_on_c, 9, 51, 0
9, 122975, Note_on_c, 9, 35, 0
9, 123200, Note_on_c, 9, 51, 25
9, 123295, Note_on_c, 9, 51, 0
9, 123360, Note_on_c, 9, 38, 55
9, 123360, Note_on_c, 9, 51, 55
9, 123455, Note_on_c, 9, 51, 0
9, 123455, Note_on_c, 9, 38, 0
9, 123680, Note_on_c, 9, 35, 35
9, 123680, Note_on_c, 9, 38, 25
9, 123680, Note_on_c, 9, 51, 25
9, 123775, Note_on_c, 9, 51, 0
9, 123775, Note_on_c, 9, 38, 0
9, 123775, Note_on_c, 9, 35, 0
9, 123840, Note_on_c, 9, 35, 45
9, 123840, Note_on_c, 9, 51, 55
9, 123935, Note_on_c, 9, 51, 0
9, 123935, Note_on_c, 9, 35, 0
9, 124160, Note_on_c, 9, 51, 25
9, 124255, Note_on_c, 9, 51, 0
9, 124320, Note_on_c, 9, 38, 60
9, 124320, Note_on_c, 9, 51, 55
9, 124415, Note_on_c, 9, 51, 0
9, 124415, Note_on_c, 9, 38, 0
9, 124640, Note_on_c, 9, 35, 35
9, 124640, Note_on_c, 9, 38, 25
9, 124640, Note_on_c, 9, 51, 25
9, 124735, Note_on_c, 9, 51, 0
9, 124735, Note_on_c, 9, 38, 0
9, 124735, Note_on_c, 9, 35, 0
9, 124800, Note_on_c, 9, 35, 45
9, 124800, Note_on_c, 9, 51, 55
9, 124895, Note_on_c, 9, 51, 0
9, 124895, Note_on_c, 9, 35, 0
9, 125120, Note_on_c, 9, 51, 25
9, 125215, Note_on_c, 9, 51, 0
9, 125280, Note_on_c, 9, 38, 55
9, 125280, Note_on_c, 9, 51, 55
9, 125375, Note_on_c, 9, 51, 0
9, 125375, Note_on_c, 9, 38, 0
9, 125600, Note_on_c, 9, 35, 35
9, 125600, Note_on_c, 9, 38, 25
9, 125600, Note_on_c, 9, 51, 25
9, 125695, Note_on_c, 9, 51, 0
9, 125695, Note_on_c, 9, 38, 0
9, 125695, Note_on_c, 9, 35, 0
9, 125760, Note_on_c, 9, 35, 45
9, 125760, Note_on_c, 9, 51, 55
9, 125855, Note_on_c, 9, 51, 0
9, 125855, Note_on_c, 9, 35, 0
9, 126080, Note_on_c, 9, 51, 25
9, 126175, Note_on_c, 9, 51, 0
9, 126240, Note_on_c, 9, 38, 60
9, 126240, Note_on_c, 9, 51, 55
9, 126335, Note_on_c, 9, 51, 0
9, 126335, Note_on_c, 9, 38, 0
9, 126560, Note_on_c, 9, 35, 35
9, 126560, Note_on_c, 9, 38, 25
9, 126560, Note_on_c, 9, 51, 25
9, 126655, Note_on_c, 9, 51, 0
9, 126655, Note_on_c, 9, 38, 0
9, 126655, Note_on_c, 9, 35, 0
9, 126720, Note_on_c, 9, 38, 65
9, 126815, Note_on_c, 9, 38, 0
9, 126880, Note_on_c, 9, 38, 25
9, 126975, Note_on_c, 9, 38, 0
9, 127040, Note_on_c, 9, 38, 5
9, 127135, Note_on_c, 9, 38, 0
9, 127200, Note_on_c, 9, 38, 55
9, 127295, Note_on_c, 9, 38, 0
9, 127360, Note_on_c, 9, 38, 5
9, 127455, Note_on_c, 9, 38, 0
9, 127520, Note_on_c, 9, 41, 65
9, 127615, Note_on_c, 9, 41, 0
9, 127680, Note_on_c, 9, 38, 5
9, 127775, Note_on_c, 9, 38, 0
9, 127840, Note_on_c, 9, 38, 45
9, 127935, Note_on_c, 9, 38, 0
9, 128000, Note_on_c, 9, 45, 65
9, 128095, Note_on_c, 9, 45, 0
9, 128160, Note_on_c, 9, 38, 25
9, 128255, Note_on_c, 9, 38, 0
9, 128320, Note_on_c, 9, 38, 45
9, 128415, Note_on_c, 9, 38, 0
9, 128480, Note_on_c, 9, 41, 80
9, 128575, Note_on_c, 9, 41, 0
9, 128640, Note_on_c, 9, 35, 45
9, 128640, Note_on_c, 9, 42, 55
9, 128640, Note_on_c, 9, 49, 45
9, 128735, Note_on_c, 9, 49, 0
9, 128735, Note_on_c, 9, 42, 0
9, 128735, Note_on_c, 9, 35, 0
9, 128960, Note_on_c, 9, 42, 35
9, 129055, Note_on_c, 9, 42, 0
9, 129120, Note_on_c, 9, 42, 55
9, 129120, Note_on_c, 9, 37, 55
9, 129215, Note_on_c, 9, 37, 0
9, 129215, Note_on_c, 9, 42, 0
9, 129440, Note_on_c, 9, 35, 35
9, 129440, Note_on_c, 9, 42, 35
9, 129535, Note_on_c, 9, 42, 0
9, 129535, Note_on_c, 9, 35, 0
9, 129600, Note_on_c, 9, 35, 45
9, 129600, Note_on_c, 9, 42, 55
9, 129695, Note_on_c, 9, 42, 0
9, 129695, Note_on_c, 9, 35, 0
9, 129920, Note_on_c, 9, 42, 35
9, 130015, Note_on_c, 9, 42, 0
9, 130080, Note_on_c, 9, 42, 55
9, 130080, Note_on_c, 9, 37, 55
9, 130175, Note_on_c, 9, 37, 0
9, 130175, Note_on_c, 9, 42, 0
9, 130400, Note_on_c, 9, 35, 35
9, 130400, Note_on_c, 9, 46, 19
9, 130495, Note_on_c, 9, 46, 0
9, 130495, Note_on_c, 9, 35, 0
9, 130560, Note_on_c, 9, 35, 45
9, 130560, Note_on_c, 9, 42, 55
9, 130655, Note_on_c, 9, 42, 0
9, 130655, Note_on_c, 9, 35, 0
9, 130880, Note_on_c, 9, 42, 35
9, 130975, Note_on_c, 9, 42, 0
9, 131040, Note_on_c, 9, 42, 55
9, 131040, Note_on_c, 9, 37, 37
9, 131135, Note_on_c, 9, 37, 0
9, 131135, Note_on_c, 9, 42, 0
9, 131360, Note_on_c, 9, 35, 35
9, 131360, Note_on_c, 9, 42, 55
9, 131455, Note_on_c, 9, 42, 0
9, 131455, Note_on_c, 9, 35, 0
9, 131520, Note_on_c, 9, 35, 45
9, 131520, Note_on_c, 9, 42, 55
9, 131615, Note_on_c, 9, 42, 0
9, 131615, Note_on_c, 9, 35, 0
9, 131840, Note_on_c, 9, 42, 35
9, 131935, Note_on_c, 9, 42, 0
9, 132000, Note_on_c, 9, 42, 55
9, 132000, Note_on_c, 9, 37, 55
9, 132095, Note_on_c, 9, 37, 0
9, 132095, Note_on_c, 9, 42, 0
9, 132320, Note_on_c, 9, 35, 35
9, 132320, Note_on_c, 9, 42, 35
9, 132415, Note_on_c, 9, 42, 0
9, 132415, Note_on_c, 9, 35, 0
9, 132480, Note_on_c, 9, 35, 45
9, 132480, Note_on_c, 9, 42, 55
9, 132575, Note_on_c, 9, 42, 0
9, 132575, Note_on_c, 9, 35, 0
9, 132800, Note_on_c, 9, 42, 25
9, 132895, Note_on_c, 9, 42, 0
9, 132960, Note_on_c, 9, 42, 55
9, 132960, Note_on_c, 9, 37, 55
9, 133055, Note_on_c, 9, 37, 0
9, 133055, Note_on_c, 9, 42, 0
9, 133280, Note_on_c, 9, 35, 35
9, 133280, Note_on_c, 9, 42, 25
9, 133375, Note_on_c, 9, 42, 0
9, 133375, Note_on_c, 9, 35, 0
9, 133440, Note_on_c, 9, 35, 45
9, 133440, Note_on_c, 9, 42, 55
9, 133535, Note_on_c, 9, 42, 0
9, 133535, Note_on_c, 9, 35, 0
9, 133600, Note_on_c, 9, 42, 25
9, 133695, Note_on_c, 9, 42, 0
9, 133760, Note_on_c, 9, 42, 25
9, 133855, Note_on_c, 9, 42, 0
9, 133920, Note_on_c, 9, 42, 55
9, 133920, Note_on_c, 9, 37, 55
9, 134015, Note_on_c, 9, 37, 0
9, 134015, Note_on_c, 9, 42, 0
9, 134240, Note_on_c, 9, 35, 35
9, 134240, Note_on_c, 9, 42, 25
9, 134335, Note_on_c, 9, 42, 0
9, 134335, Note_on_c, 9, 35, 0
9, 134400, Note_on_c, 9, 35, 45
9, 134400, Note_on_c, 9, 42, 55
9, 134495, Note_on_c, 9, 42, 0
9, 134495, Note_on_c, 9, 35, 0
9, 134720, Note_on_c, 9, 42, 35
9, 134815, Note_on_c, 9, 42, 0
9, 134880, Note_on_c, 9, 42, 55
9, 134880, Note_on_c, 9, 37, 55
9, 134975, Note_on_c, 9, 37, 0
9, 134975, Note_on_c, 9, 42, 0
9, 135200, Note_on_c, 9, 35, 35
9, 135200, Note_on_c, 9, 42, 55
9, 135295, Note_on_c, 9, 42, 0
9, 135295, Note_on_c, 9, 35, 0
9, 135360, Note_on_c, 9, 35, 45
9, 135360, Note_on_c, 9, 42, 55
9, 135455, Note_on_c, 9, 42, 0
9, 135455, Note_on_c, 9, 35, 0
9, 135680, Note_on_c, 9, 42, 35
9, 135775, Note_on_c, 9, 42, 0
9, 135840, Note_on_c, 9, 42, 55
9, 135840, Note_on_c, 9, 37, 55
9, 135935, Note_on_c, 9, 37, 0
9, 135935, Note_on_c, 9, 42, 0
9, 136160, Note_on_c, 9, 35, 35
9, 136160, Note_on_c, 9, 42, 35
9, 136255, Note_on_c, 9, 42, 0
9, 136255, Note_on_c, 9, 35, 0
9, 136320, Note_on_c, 9, 35, 45
9, 136320, Note_on_c, 9, 42, 55
9, 136415, Note_on_c, 9, 42, 0
9, 136415, Note_on_c, 9, 35, 0
9, 136640, Note_on_c, 9, 42, 25
9, 136735, Note_on_c, 9, 42, 0
9, 136800, Note_on_c, 9, 42, 55
9, 136800, Note_on_c, 9, 37, 55
9, 136895, Note_on_c, 9, 37, 0
9, 136895, Note_on_c, 9, 42, 0
9, 137120, Note_on_c, 9, 35, 35
9, 137120, Note_on_c, 9, 42, 25
9, 137215, Note_on_c, 9, 42, 0
9, 137215, Note_on_c, 9, 35, 0
9, 137280, Note_on_c, 9, 35, 45
9, 137280, Note_on_c, 9, 42, 55
9, 137375, Note_on_c, 9, 42, 0
9, 137375, Note_on_c, 9, 35, 0
9, 137600, Note_on_c, 9, 42, 25
9, 137695, Note_on_c, 9, 42, 0
9, 137760, Note_on_c, 9, 42, 55
9, 137760, Note_on_c, 9, 37, 55
9, 137855, Note_on_c, 9, 37, 0
9, 137855, Note_on_c, 9, 42, 0
9, 138080, Note_on_c, 9, 35, 35
9, 138080, Note_on_c, 9, 42, 25
9, 138175, Note_on_c, 9, 42, 0
9, 138175, Note_on_c, 9, 35, 0
9, 138240, Note_on_c, 9, 35, 45
9, 138240, Note_on_c, 9, 42, 55
9, 138335, Note_on_c, 9, 42, 0
9, 138335, Note_on_c, 9, 35, 0
9, 138560, Note_on_c, 9, 42, 35
9, 138655, Note_on_c, 9, 42, 0
9, 138720, Note_on_c, 9, 42, 55
9, 138720, Note_on_c, 9, 37, 55
9, 138815, Note_on_c, 9, 37, 0
9, 138815, Note_on_c, 9, 42, 0
9, 139040, Note_on_c, 9, 35, 35
9, 139040, Note_on_c, 9, 42, 35
9, 139135, Note_on_c, 9, 42, 0
9, 139135, Note_on_c, 9, 35, 0
9, 139200, Note_on_c, 9, 35, 45
9, 139200, Note_on_c, 9, 42, 55
9, 139295, Note_on_c, 9, 42, 0
9, 139295, Note_on_c, 9, 35, 0
9, 139520, Note_on_c, 9, 42, 35
9, 139615, Note_on_c, 9, 42, 0
9, 139680, Note_on_c, 9, 42, 55
9, 139680, Note_on_c, 9, 37, 55
9, 139775, Note_on_c, 9, 37, 0
9, 139775, Note_on_c, 9, 42, 0
9, 139840, Note_on_c, 9, 46, 45
9, 139935, Note_on_c, 9, 46, 0
9, 140000, Note_on_c, 9, 35, 35
9, 140000, Note_on_c, 9, 42, 35
9, 140095, Note_on_c, 9, 42, 0
9, 140095, Note_on_c, 9, 35, 0
9, 140160, Note_on_c, 9, 35, 45
9, 140160, Note_on_c, 9, 42, 55
9, 140255, Note_on_c, 9, 42, 0
9, 140255, Note_on_c, 9, 35, 0
9, 140480, Note_on_c, 9, 42, 35
9, 140575, Note_on_c, 9, 42, 0
9, 140640, Note_on_c, 9, 42, 55
9, 140640, Note_on_c, 9, 37, 37
9, 140735, Note_on_c, 9, 37, 0
9, 140735, Note_on_c, 9, 42, 0
9, 140960, Note_on_c, 9, 35, 35
9, 140960, Note_on_c, 9, 42, 55
9, 141055, Note_on_c, 9, 42, 0
9, 141055, Note_on_c, 9, 35, 0
9, 141120, Note_on_c, 9, 35, 45
9, 141120, Note_on_c, 9, 42, 55
9, 141215, Note_on_c, 9, 42, 0
9, 141215, Note_on_c, 9, 35, 0
9, 141440, Note_on_c, 9, 42, 35
9, 141535, Note_on_c, 9, 42, 0
9, 141600, Note_on_c, 9, 42, 55
9, 141600, Note_on_c, 9, 37, 55
9, 141695, Note_on_c, 9, 37, 0
9, 141695, Note_on_c, 9, 42, 0
9, 141920, Note_on_c, 9, 35, 35
9, 141920, Note_on_c, 9, 42, 35
9, 142015, Note_on_c, 9, 42, 0
9, 142015, Note_on_c, 9, 35, 0
9, 142080, Note_on_c, 9, 35, 45
9, 142080, Note_on_c, 9, 42, 55
9, 142175, Note_on_c, 9, 42, 0
9, 142175, Note_on_c, 9, 35, 0
9, 142400, Note_on_c, 9, 42, 25
9, 142495, Note_on_c, 9, 42, 0
9, 142560, Note_on_c, 9, 42, 55
9, 142560, Note_on_c, 9, 37, 55
9, 142655, Note_on_c, 9, 37, 0
9, 142655, Note_on_c, 9, 42, 0
9, 142880, Note_on_c, 9, 35, 35
9, 142880, Note_on_c, 9, 42, 25
9, 142975, Note_on_c, 9, 42, 0
9, 142975, Note_on_c, 9, 35, 0
9, 143040, Note_on_c, 9, 35, 45
9, 143040, Note_on_c, 9, 42, 55
9, 143135, Note_on_c, 9, 42, 0
9, 143135, Note_on_c, 9, 35, 0
9, 143200, Note_on_c, 9, 42, 25
9, 143295, Note_on_c, 9, 42, 0
9, 143360, Note_on_c, 9, 42, 25
9, 143455, Note_on_c, 9, 42, 0
9, 143520, Note_on_c, 9, 42, 55
9, 143520, Note_on_c, 9, 37, 55
9, 143615, Note_on_c, 9, 37, 0
9, 143615, Note_on_c, 9, 42, 0
9, 143840, Note_on_c, 9, 35, 35
9, 143840, Note_on_c, 9, 42, 25
9, 143935, Note_on_c, 9, 42, 0
9, 143935, Note_on_c, 9, 35, 0
9, 144000, Note_on_c, 9, 35, 45
9, 144000, Note_on_c, 9, 42, 55
9, 144095, Note_on_c, 9, 42, 0
9, 144095, Note_on_c, 9, 35, 0
9, 144320, Note_on_c, 9, 42, 35
9, 144415, Note_on_c, 9, 42, 0
9, 144480, Note_on_c, 9, 42, 55
9, 144480, Note_on_c, 9, 37, 55
9, 144575, Note_on_c, 9, 37, 0
9, 144575, Note_on_c, 9, 42, 0
9, 144800, Note_on_c, 9, 35, 35
9, 144800, Note_on_c, 9, 42, 55
9, 144895, Note_on_c, 9, 42, 0
9, 144895, Note_on_c, 9, 35, 0
9, 144960, Note_on_c, 9, 35, 45
9, 144960, Note_on_c, 9, 42, 55
9, 145055, Note_on_c, 9, 42, 0
9, 145055, Note_on_c, 9, 35, 0
9, 145280, Note_on_c, 9, 42, 35
9, 145375, Note_on_c, 9, 42, 0
9, 145440, Note_on_c, 9, 42, 55
9, 145440, Note_on_c, 9, 37, 55
9, 145535, Note_on_c, 9, 37, 0
9, 145535, Note_on_c, 9, 42, 0
9, 145760, Note_on_c, 9, 35, 35
9, 145760, Note_on_c, 9, 46, 55
9, 145855, Note_on_c, 9, 46, 0
9, 145855, Note_on_c, 9, 35, 0
9, 145920, Note_on_c, 9, 35, 45
9, 145920, Note_on_c, 9, 42, 55
9, 146015, Note_on_c, 9, 42, 0
9, 146015, Note_on_c, 9, 35, 0
9, 146240, Note_on_c, 9, 42, 35
9, 146335, Note_on_c, 9, 42, 0
9, 146400, Note_on_c, 9, 42, 55
9, 146400, Note_on_c, 9, 37, 55
9, 146495, Note_on_c, 9, 37, 0
9, 146495, Note_on_c, 9, 42, 0
9, 146720, Note_on_c, 9, 35, 35
9, 146720, Note_on_c, 9, 42, 35
9, 146815, Note_on_c, 9, 42, 0
9, 146815, Note_on_c, 9, 35, 0
9, 146880, Note_on_c, 9, 35, 45
9, 146880, Note_on_c, 9, 42, 55
9, 146975, Note_on_c, 9, 42, 0
9, 146975, Note_on_c, 9, 35, 0
9, 147200, Note_on_c, 9, 42, 35
9, 147295, Note_on_c, 9, 42, 0
9, 147360, Note_on_c, 9, 42, 55
9, 147360, Note_on_c, 9, 37, 55
9, 147455, Note_on_c, 9, 37, 0
9, 147455, Note_on_c, 9, 42, 0
9, 147520, Note_on_c, 9, 46, 45
9, 147615, Note_on_c, 9, 46, 0
9, 147680, Note_on_c, 9, 35, 35
9, 147680, Note_on_c, 9, 42, 35
9, 147775, Note_on_c, 9, 42, 0
9, 147775, Note_on_c, 9, 35, 0
9, 147840, Note_on_c, 9, 35, 45
9, 147840, Note_on_c, 9, 42, 55
9, 147935, Note_on_c, 9, 42, 0
9, 147935, Note_on_c, 9, 35, 0
9, 148160, Note_on_c, 9, 42, 25
9, 148255, Note_on_c, 9, 42, 0
9, 148320, Note_on_c, 9, 42, 55
9, 148320, Note_on_c, 9, 37, 55
9, 148415, Note_on_c, 9, 37, 0
9, 148415, Note_on_c, 9, 42, 0
9, 148640, Note_on_c, 9, 35, 35
9, 148640, Note_on_c, 9, 42, 25
9, 148735, Note_on_c, 9, 42, 0
9, 148735, Note_on_c, 9, 35, 0
9, 148800, Note_on_c, 9, 35, 45
9, 148800, Note_on_c, 9, 42, 55
9, 148895, Note_on_c, 9, 42, 0
9, 148895, Note_on_c, 9, 35, 0
9, 148960, Note_on_c, 9, 42, 25
9, 149055, Note_on_c, 9, 42, 0
9, 149120, Note_on_c, 9, 42, 25
9, 149215, Note_on_c, 9, 42, 0
9, 149280, Note_on_c, 9, 42, 55
9, 149280, Note_on_c, 9, 37, 55
9, 149375, Note_on_c, 9, 37, 0
9, 149375, Note_on_c, 9, 42, 0
9, 149600, Note_on_c, 9, 35, 35
9, 149600, Note_on_c, 9, 42, 25
9, 149695, Note_on_c, 9, 42, 0
9, 149695, Note_on_c, 9, 35, 0
9, 149760, Note_on_c, 9, 35, 45
9, 149760, Note_on_c, 9, 42, 55
9, 149855, Note_on_c, 9, 42, 0
9, 149855, Note_on_c, 9, 35, 0
9, 150080, Note_on_c, 9, 42, 25
9, 150175, Note_on_c, 9, 42, 0
9, 150240, Note_on_c, 9, 42, 55
9, 150240, Note_on_c, 9, 37, 55
9, 150335, Note_on_c, 9, 37, 0
9, 150335, Note_on_c, 9, 42, 0
9, 150560, Note_on_c, 9, 35, 35
9, 150560, Note_on_c, 9, 42, 25
9, 150655, Note_on_c, 9, 42, 0
9, 150655, Note_on_c, 9, 35, 0
9, 150720, Note_on_c, 9, 35, 45
9, 150720, Note_on_c, 9, 42, 55
9, 150815, Note_on_c, 9, 42, 0
9, 150815, Note_on_c, 9, 35, 0
9, 150880, Note_on_c, 9, 42, 25
9, 150975, Note_on_c, 9, 42, 0
9, 151040, Note_on_c, 9, 42, 25
9, 151135, Note_on_c, 9, 42, 0
9, 151200, Note_on_c, 9, 42, 55
9, 151200, Note_on_c, 9, 37, 55
9, 151295, Note_on_c, 9, 37, 0
9, 151295, Note_on_c, 9, 42, 0
9, 151520, Note_on_c, 9, 35, 35
9, 151520, Note_on_c, 9, 42, 25
9, 151615, Note_on_c, 9, 42, 0
9, 151615, Note_on_c, 9, 35, 0
9, 151680, Note_on_c, 9, 35, 45
9, 151680, Note_on_c, 9, 42, 55
9, 151775, Note_on_c, 9, 42, 0
9, 151775, Note_on_c, 9, 35, 0
9, 152000, Note_on_c, 9, 42, 35
9, 152095, Note_on_c, 9, 42, 0
9, 152160, Note_on_c, 9, 42, 55
9, 152160, Note_on_c, 9, 37, 37
9, 152255, Note_on_c, 9, 37, 0
9, 152255, Note_on_c, 9, 42, 0
9, 152480, Note_on_c, 9, 35, 35
9, 152480, Note_on_c, 9, 42, 35
9, 152575, Note_on_c, 9, 42, 0
9, 152575, Note_on_c, 9, 35, 0
9, 152640, Note_on_c, 9, 35, 45
9, 152640, Note_on_c, 9, 42, 55
9, 152735, Note_on_c, 9, 42, 0
9, 152735, Note_on_c, 9, 35, 0
9, 152960, Note_on_c, 9, 42, 35
9, 153055, Note_on_c, 9, 42, 0
9, 153120, Note_on_c, 9, 42, 55
9, 153120, Note_on_c, 9, 37, 55
9, 153215, Note_on_c, 9, 37, 0
9, 153215, Note_on_c, 9, 42, 0
9, 153440, Note_on_c, 9, 35, 35
9, 153440, Note_on_c, 9, 42, 35
9, 153535, Note_on_c, 9, 42, 0
9, 153535, Note_on_c, 9, 35, 0
9, 153600, Note_on_c, 9, 35, 45
9, 153600, Note_on_c, 9, 42, 55
9, 153695, Note_on_c, 9, 42, 0
9, 153695, Note_on_c, 9, 35, 0
9, 153920, Note_on_c, 9, 42, 35
9, 154015, Note_on_c, 9, 42, 0
9, 154080, Note_on_c, 9, 42, 55
9, 154080, Note_on_c, 9, 37, 55
9, 154175, Note_on_c, 9, 37, 0
9, 154175, Note_on_c, 9, 42, 0
9, 154400, Note_on_c, 9, 35, 35
9, 154400, Note_on_c, 9, 42, 35
9, 154495, Note_on_c, 9, 42, 0
9, 154495, Note_on_c, 9, 35, 0
9, 154560, Note_on_c, 9, 35, 45
9, 154560, Note_on_c, 9, 42, 55
9, 154655, Note_on_c, 9, 42, 0
9, 154655, Note_on_c, 9, 35, 0
9, 154880, Note_on_c, 9, 42, 35
9, 154975, Note_on_c, 9, 42, 0
9, 155040, Note_on_c, 9, 42, 55
9, 155040, Note_on_c, 9, 37, 55
9, 155135, Note_on_c, 9, 37, 0
9, 155135, Note_on_c, 9, 42, 0
9, 155200, Note_on_c, 9, 46, 45
9, 155295, Note_on_c, 9, 46, 0
9, 155360, Note_on_c, 9, 35, 35
9, 155360, Note_on_c, 9, 42, 35
9, 155455, Note_on_c, 9, 42, 0
9, 155455, Note_on_c, 9, 35, 0
9, 155520, Note_on_c, 9, 35, 45
9, 155520, Note_on_c, 9, 42, 55
9, 155615, Note_on_c, 9, 42, 0
9, 155615, Note_on_c, 9, 35, 0
9, 155840, Note_on_c, 9, 42, 35
9, 155935, Note_on_c, 9, 42, 0
9, 156000, Note_on_c, 9, 42, 55
9, 156000, Note_on_c, 9, 37, 55
9, 156095, Note_on_c, 9, 37, 0
9, 156095, Note_on_c, 9, 42, 0
9, 156320, Note_on_c, 9, 35, 35
9, 156320, Note_on_c, 9, 42, 35
9, 156415, Note_on_c, 9, 42, 0
9, 156415, Note_on_c, 9, 35, 0
9, 156480, Note_on_c, 9, 35, 45
9, 156480, Note_on_c, 9, 42, 55
9, 156575, Note_on_c, 9, 42, 0
9, 156575, Note_on_c, 9, 35, 0
9, 156800, Note_on_c, 9, 42, 35
9, 156895, Note_on_c, 9, 42, 0
9, 156960, Note_on_c, 9, 42, 55
9, 156960, Note_on_c, 9, 37, 55
9, 157055, Note_on_c, 9, 37, 0
9, 157055, Note_on_c, 9, 42, 0
9, 157120, Note_on_c, 9, 46, 45
9, 157215, Note_on_c, 9, 46, 0
9, 157280, Note_on_c, 9, 35, 35
9, 157280, Note_on_c, 9, 42, 35
9, 157375, Note_on_c, 9, 42, 0
9, 157375, Note_on_c, 9, 35, 0
9, 157440, Note_on_c, 9, 38, 65
9, 157535, Note_on_c, 9, 38, 0
9, 157600, Note_on_c, 9, 38, 25
9, 157695, Note_on_c, 9, 38, 0
9, 157760, Note_on_c, 9, 38, 5
9, 157855, Note_on_c, 9, 38, 0
9, 157920, Note_on_c, 9, 38, 55
9, 158015, Note_on_c, 9, 38, 0
9, 158080, Note_on_c, 9, 38, 5
9, 158175, Note_on_c, 9, 38, 0
9, 158240, Note_on_c, 9, 41, 65
9, 158335, Note_on_c, 9, 41, 0
9, 158400, Note_on_c, 9, 38, 5
9, 158495, Note_on_c, 9, 38, 0
9, 158560, Note_on_c, 9, 38, 45
9, 158655, Note_on_c, 9, 38, 0
9, 158720, Note_on_c, 9, 45, 65
9, 158815, Note_on_c, 9, 45, 0
9, 158880, Note_on_c, 9, 38, 25
9, 158975, Note_on_c, 9, 38, 0
9, 159040, Note_on_c, 9, 38, 45
9, 159135, Note_on_c, 9, 38, 0
9, 159200, Note_on_c, 9, 41, 80
9, 159295, Note_on_c, 9, 41, 0
9, 159360, Note_on_c, 9, 35, 45
9, 159360, Note_on_c, 9, 42, 55
9, 159360, Note_on_c, 9, 49, 45
9, 159455, Note_on_c, 9, 49, 0
9, 159455, Note_on_c, 9, 42, 0
9, 159455, Note_on_c, 9, 35, 0
9, 159680, Note_on_c, 9, 42, 35
9, 159775, Note_on_c, 9, 42, 0
9, 159840, Note_on_c, 9, 42, 55
9, 159840, Note_on_c, 9, 37, 55
9, 159935, Note_on_c, 9, 37, 0
9, 159935, Note_on_c, 9, 42, 0
9, 160160, Note_on_c, 9, 35, 35
9, 160160, Note_on_c, 9, 42, 35
9, 160255, Note_on_c, 9, 42, 0
9, 160255, Note_on_c, 9, 35, 0
9, 160320, Note_on_c, 9, 35, 45
9, 160320, Note_on_c, 9, 42, 55
9, 160415, Note_on_c, 9, 42, 0
9, 160415, Note_on_c, 9, 35, 0
9, 160640, Note_on_c, 9, 42, 35
9, 160735, Note_on_c, 9, 42, 0
9, 160800, Note_on_c, 9, 42, 55
9, 160800, Note_on_c, 9, 37, 55
9, 160895, Note_on_c, 9, 37, 0
9, 160895, Note_on_c, 9, 42, 0
9, 161120, Note_on_c, 9, 35, 35
9, 161120, Note_on_c, 9, 42, 35
9, 161215, Note_on_c, 9, 42, 0
9, 161215, Note_on_c, 9, 35, 0
9, 161280, Note_on_c, 9, 35, 45
9, 161280, Note_on_c, 9, 42, 55
9, 161375, Note_on_c, 9, 42, 0
9, 161375, Note_on_c, 9, 35, 0
9, 161600, Note_on_c, 9, 42, 35
9, 161695, Note_on_c, 9, 42, 0
9, 161760, Note_on_c, 9, 42, 55
9, 161760, Note_on_c, 9, 37, 55
9, 161855, Note_on_c, 9, 37, 0
9, 161855, Note_on_c, 9, 42, 0
9, 162080, Note_on_c, 9, 35, 35
9, 162080, Note_on_c, 9, 42, 35
9, 162175, Note_on_c, 9, 42, 0
9, 162175, Note_on_c, 9, 35, 0
9, 162240, Note_on_c, 9, 35, 45
9, 162240, Note_on_c, 9, 42, 55
9, 162335, Note_on_c, 9, 42, 0
9, 162335, Note_on_c, 9, 35, 0
9, 162560, Note_on_c, 9, 42, 35
9, 162655, Note_on_c, 9, 42, 0
9, 162720, Note_on_c, 9, 42, 55
9, 162720, Note_on_c, 9, 37, 55
9, 162815, Note_on_c, 9, 37, 0
9, 162815, Note_on_c, 9, 42, 0
9, 162880, Note_on_c, 9, 46, 45
9, 162975, Note_on_c, 9, 46, 0
9, 163040, Note_on_c, 9, 35, 35
9, 163040, Note_on_c, 9, 42, 35
9, 163135, Note_on_c, 9, 42, 0
9, 163135, Note_on_c, 9, 35, 0
9, 163200, Note_on_c, 9, 35, 45
9, 163200, Note_on_c, 9, 42, 55
9, 163295, Note_on_c, 9, 42, 0
9, 163295, Note_on_c, 9, 35, 0
9, 163520, Note_on_c, 9, 42, 25
9, 163615, Note_on_c, 9, 42, 0
9, 163680, Note_on_c, 9, 42, 55
9, 163680, Note_on_c, 9, 37, 55
9, 163775, Note_on_c, 9, 37, 0
9, 163775, Note_on_c, 9, 42, 0
9, 164000, Note_on_c, 9, 35, 35
9, 164000, Note_on_c, 9, 42, 25
9, 164095, Note_on_c, 9, 42, 0
9, 164095, Note_on_c, 9, 35, 0
9, 164160, Note_on_c, 9, 35, 45
9, 164160, Note_on_c, 9, 42, 55
9, 164255, Note_on_c, 9, 42, 0
9, 164255, Note_on_c, 9, 35, 0
9, 164480, Note_on_c, 9, 42, 25
9, 164575, Note_on_c, 9, 42, 0
9, 164640, Note_on_c, 9, 42, 55
9, 164640, Note_on_c, 9, 37, 55
9, 164735, Note_on_c, 9, 37, 0
9, 164735, Note_on_c, 9, 42, 0
9, 164960, Note_on_c, 9, 35, 35
9, 164960, Note_on_c, 9, 42, 25
9, 165055, Note_on_c, 9, 42, 0
9, 165055, Note_on_c, 9, 35, 0
9, 165120, Note_on_c, 9, 35, 45
9, 165120, Note_on_c, 9, 42, 55
9, 165215, Note_on_c, 9, 42, 0
9, 165215, Note_on_c, 9, 35, 0
9, 165440, Note_on_c, 9, 42, 25
9, 165535, Note_on_c, 9, 42, 0
9, 165600, Note_on_c, 9, 42, 55
9, 165600, Note_on_c, 9, 37, 55
9, 165695, Note_on_c, 9, 37, 0
9, 165695, Note_on_c, 9, 42, 0
9, 165920, Note_on_c, 9, 35, 35
9, 165920, Note_on_c, 9, 42, 25
9, 166015, Note_on_c, 9, 42, 0
9, 166015, Note_on_c, 9, 35, 0
9, 166080, Note_on_c, 9, 35, 45
9, 166080, Note_on_c, 9, 42, 55
9, 166175, Note_on_c, 9, 42, 0
9, 166175, Note_on_c, 9, 35, 0
9, 166400, Note_on_c, 9, 42, 25
9, 166495, Note_on_c, 9, 42, 0
9, 166560, Note_on_c, 9, 42, 55
9, 166560, Note_on_c, 9, 37, 55
9, 166655, Note_on_c, 9, 37, 0
9, 166655, Note_on_c, 9, 42, 0
9, 166880, Note_on_c, 9, 35, 35
9, 166880, Note_on_c, 9, 42, 25
9, 166975, Note_on_c, 9, 42, 0
9, 166975, Note_on_c, 9, 35, 0
9, 167040, Note_on_c, 9, 35, 45
9, 167040, Note_on_c, 9, 42, 55
9, 167135, Note_on_c, 9, 42, 0
9, 167135, Note_on_c, 9, 35, 0
9, 167360, Note_on_c, 9, 42, 35
9, 167455, Note_on_c, 9, 42, 0
9, 167520, Note_on_c, 9, 42, 55
9, 167520, Note_on_c, 9, 37, 55
9, 167615, Note_on_c, 9, 37, 0
9, 167615, Note_on_c, 9, 42, 0
9, 167840, Note_on_c, 9, 35, 35
9, 167840, Note_on_c, 9, 42, 35
9, 167935, Note_on_c, 9, 42, 0
9, 167935, Note_on_c, 9, 35, 0
9, 168000, Note_on_c, 9, 35, 45
9, 168000, Note_on_c, 9, 42, 55
9, 168095, Note_on_c, 9, 42, 0
9, 168095, Note_on_c, 9, 35, 0
9, 168320, Note_on_c, 9, 42, 35
9, 168415, Note_on_c, 9, 42, 0
9, 168480, Note_on_c, 9, 42, 55
9, 168480, Note_on_c, 9, 37, 55
9, 168575, Note_on_c, 9, 37, 0
9, 168575, Note_on_c, 9, 42, 0
9, 168800, Note_on_c, 9, 35, 35
9, 168800, Note_on_c, 9, 46, 45
9, 168895, Note_on_c, 9, 46, 0
9, 168895, Note_on_c, 9, 35, 0
9, 168960, Note_on_c, 9, 35, 45
9, 168960, Note_on_c, 9, 42, 55
9, 169055, Note_on_c, 9, 42, 0
9, 169055, Note_on_c, 9, 35, 0
9, 169280, Note_on_c, 9, 42, 35
9, 169375, Note_on_c, 9, 42, 0
9, 169440, Note_on_c, 9, 42, 55
9, 169440, Note_on_c, 9, 37, 55
9, 169535, Note_on_c, 9, 37, 0
9, 169535, Note_on_c, 9, 42, 0
9, 169760, Note_on_c, 9, 35, 35
9, 169760, Note_on_c, 9, 42, 35
9, 169855, Note_on_c, 9, 42, 0
9, 169855, Note_on_c, 9, 35, 0
9, 169920, Note_on_c, 9, 35, 45
9, 169920, Note_on_c, 9, 42, 55
9, 170015, Note_on_c, 9, 42, 0
9, 170015, Note_on_c, 9, 35, 0
9, 170240, Note_on_c, 9, 42, 35
9, 170335, Note_on_c, 9, 42, 0
9, 170400, Note_on_c, 9, 42, 55
9, 170400, Note_on_c, 9, 37, 55
9, 170495, Note_on_c, 9, 37, 0
9, 170495, Note_on_c, 9, 42, 0
9, 170560, Note_on_c, 9, 46, 45
9, 170655, Note_on_c, 9, 46, 0
9, 170720, Note_on_c, 9, 35, 35
9, 170720, Note_on_c, 9, 42, 35
9, 170815, Note_on_c, 9, 42, 0
9, 170815, Note_on_c, 9, 35, 0
9, 170880, Note_on_c, 9, 35, 45
9, 170880, Note_on_c, 9, 42, 55
9, 170975, Note_on_c, 9, 42, 0
9, 170975, Note_on_c, 9, 35, 0
9, 171200, Note_on_c, 9, 42, 25
9, 171295, Note_on_c, 9, 42, 0
9, 171360, Note_on_c, 9, 42, 55
9, 171360, Note_on_c, 9, 37, 55
9, 171455, Note_on_c, 9, 37, 0
9, 171455, Note_on_c, 9, 42, 0
9, 171680, Note_on_c, 9, 35, 35
9, 171680, Note_on_c, 9, 42, 25
9, 171775, Note_on_c, 9, 42, 0
9, 171775, Note_on_c, 9, 35, 0
9, 171840, Note_on_c, 9, 35, 45
9, 171840, Note_on_c, 9, 42, 55
9, 171935, Note_on_c, 9, 42, 0
9, 171935, Note_on_c, 9, 35, 0
9, 172000, Note_on_c, 9, 42, 25
9, 172095, Note_on_c, 9, 42, 0
9, 172160, Note_on_c, 9, 42, 25
9, 172255, Note_on_c, 9, 42, 0
9, 172320, Note_on_c, 9, 42, 55
9, 172320, Note_on_c, 9, 37, 55
9, 172415, Note_on_c, 9, 37, 0
9, 172415, Note_on_c, 9, 42, 0
9, 172640, Note_on_c, 9, 35, 35
9, 172640, Note_on_c, 9, 42, 25
9, 172735, Note_on_c, 9, 42, 0
9, 172735, Note_on_c, 9, 35, 0
9, 172800, Note_on_c, 9, 35, 45
9, 172800, Note_on_c, 9, 42, 55
9, 172895, Note_on_c, 9, 42, 0
9, 172895, Note_on_c, 9, 35, 0
9, 173120, Note_on_c, 9, 42, 35
9, 173215, Note_on_c, 9, 42, 0
9, 173280, Note_on_c, 9, 42, 55
9, 173280, Note_on_c, 9, 37, 55
9, 173375, Note_on_c, 9, 37, 0
9, 173375, Note_on_c, 9, 42, 0
9, 173600, Note_on_c, 9, 35, 35
9, 173600, Note_on_c, 9, 42, 35
9, 173695, Note_on_c, 9, 42, 0
9, 173695, Note_on_c, 9, 35, 0
9, 173760, Note_on_c, 9, 35, 45
9, 173760, Note_on_c, 9, 42, 55
9, 173855, Note_on_c, 9, 42, 0
9, 173855, Note_on_c, 9, 35, 0
9, 174080, Note_on_c, 9, 42, 35
9, 174175, Note_on_c, 9, 42, 0
9, 174240, Note_on_c, 9, 42, 55
9, 174240, Note_on_c, 9, 37, 55
9, 174335, Note_on_c, 9, 37, 0
9, 174335, Note_on_c, 9, 42, 0
9, 174400, Note_on_c, 9, 46, 45
9, 174495, Note_on_c, 9, 46, 0
9, 174560, Note_on_c, 9, 35, 35
9, 174560, Note_on_c, 9, 42, 35
9, 174655, Note_on_c, 9, 42, 0
9, 174655, Note_on_c, 9, 35, 0
9, 174720, Note_on_c, 9, 35, 45
9, 174720, Note_on_c, 9, 42, 55
9, 174815, Note_on_c, 9, 42, 0
9, 174815, Note_on_c, 9, 35, 0
9, 175040, Note_on_c, 9, 42, 25
9, 175135, Note_on_c, 9, 42, 0
9, 175200, Note_on_c, 9, 42, 55
9, 175200, Note_on_c, 9, 37, 55
9, 175295, Note_on_c, 9, 37, 0
9, 175295, Note_on_c, 9, 42, 0
9, 175520, Note_on_c, 9, 35, 35
9, 175520, Note_on_c, 9, 42, 25
9, 175615, Note_on_c, 9, 42, 0
9, 175615, Note_on_c, 9, 35, 0
9, 175680, Note_on_c, 9, 35, 45
9, 175680, Note_on_c, 9, 42, 55
9, 175775, Note_on_c, 9, 42, 0
9, 175775, Note_on_c, 9, 35, 0
9, 176000, Note_on_c, 9, 42, 25
9, 176095, Note_on_c, 9, 42, 0
9, 176160, Note_on_c, 9, 42, 55
9, 176160, Note_on_c, 9, 37, 55
9, 176255, Note_on_c, 9, 37, 0
9, 176255, Note_on_c, 9, 42, 0
9, 176480, Note_on_c, 9, 35, 35
9, 176480, Note_on_c, 9, 42, 25
9, 176575, Note_on_c, 9, 42, 0
9, 176575, Note_on_c, 9, 35, 0
9, 176640, Note_on_c, 9, 35, 45
9, 176640, Note_on_c, 9, 42, 55
9, 176735, Note_on_c, 9, 42, 0
9, 176735, Note_on_c, 9, 35, 0
9, 176960, Note_on_c, 9, 42, 25
9, 177055, Note_on_c, 9, 42, 0
9, 177120, Note_on_c, 9, 42, 55
9, 177120, Note_on_c, 9, 37, 55
9, 177215, Note_on_c, 9, 37, 0
9, 177215, Note_on_c, 9, 42, 0
9, 177440, Note_on_c, 9, 35, 35
9, 177440, Note_on_c, 9, 42, 25
9, 177535, Note_on_c, 9, 42, 0
9, 177535, Note_on_c, 9, 35, 0
9, 177600, Note_on_c, 9, 35, 45
9, 177600, Note_on_c, 9, 42, 55
9, 177695, Note_on_c, 9, 42, 0
9, 177695, Note_on_c, 9, 35, 0
9, 177760, Note_on_c, 9, 42, 25
9, 177855, Note_on_c, 9, 42, 0
9, 177920, Note_on_c, 9, 42, 25
9, 178015, Note_on_c, 9, 42, 0
9, 178080, Note_on_c, 9, 42, 55
9, 178080, Note_on_c, 9, 37, 55
9, 178175, Note_on_c, 9, 37, 0
9, 178175, Note_on_c, 9, 42, 0
9, 178400, Note_on_c, 9, 35, 35
9, 178400, Note_on_c, 9, 42, 25
9, 178495, Note_on_c, 9, 42, 0
9, 178495, Note_on_c, 9, 35, 0
9, 178560, Note_on_c, 9, 35, 45
9, 178560, Note_on_c, 9, 42, 55
9, 178655, Note_on_c, 9, 42, 0
9, 178655, Note_on_c, 9, 35, 0
9, 178880, Note_on_c, 9, 42, 25
9, 178975, Note_on_c, 9, 42, 0
9, 179040, Note_on_c, 9, 42, 55
9, 179040, Note_on_c, 9, 37, 55
9, 179135, Note_on_c, 9, 37, 0
9, 179135, Note_on_c, 9, 42, 0
9, 179360, Note_on_c, 9, 35, 35
9, 179360, Note_on_c, 9, 42, 25
9, 179455, Note_on_c, 9, 42, 0
9, 179455, Note_on_c, 9, 35, 0
9, 179520, Note_on_c, 9, 35, 45
9, 179520, Note_on_c, 9, 42, 55
9, 179615, Note_on_c, 9, 42, 0
9, 179615, Note_on_c, 9, 35, 0
9, 179840, Note_on_c, 9, 42, 25
9, 179935, Note_on_c, 9, 42, 0
9, 180000, Note_on_c, 9, 42, 55
9, 180000, Note_on_c, 9, 37, 55
9, 180095, Note_on_c, 9, 37, 0
9, 180095, Note_on_c, 9, 42, 0
9, 180320, Note_on_c, 9, 35, 35
9, 180320, Note_on_c, 9, 42, 25
9, 180415, Note_on_c, 9, 42, 0
9, 180415, Note_on_c, 9, 35, 0
9, 180480, Note_on_c, 9, 35, 45
9, 180480, Note_on_c, 9, 42, 55
9, 180575, Note_on_c, 9, 42, 0
9, 180575, Note_on_c, 9, 35, 0
9, 180800, Note_on_c, 9, 42, 25
9, 180895, Note_on_c, 9, 42, 0
9, 180960, Note_on_c, 9, 42, 55
9, 180960, Note_on_c, 9, 37, 55
9, 181055, Note_on_c, 9, 37, 0
9, 181055, Note_on_c, 9, 42, 0
9, 181280, Note_on_c, 9, 35, 35
9, 181280, Note_on_c, 9, 42, 25
9, 181375, Note_on_c, 9, 42, 0
9, 181375, Note_on_c, 9, 35, 0
9, 181440, Note_on_c, 9, 35, 45
9, 181440, Note_on_c, 9, 42, 55
9, 181535, Note_on_c, 9, 42, 0
9, 181535, Note_on_c, 9, 35, 0
9, 181600, Note_on_c, 9, 42, 25
9, 181695, Note_on_c, 9, 42, 0
9, 181760, Note_on_c, 9, 42, 25
9, 181855, Note_on_c, 9, 42, 0
9, 181920, Note_on_c, 9, 42, 55
9, 181920, Note_on_c, 9, 37, 55
9, 182015, Note_on_c, 9, 37, 0
9, 182015, Note_on_c, 9, 42, 0
9, 182240, Note_on_c, 9, 35, 35
9, 182240, Note_on_c, 9, 42, 25
9, 182335, Note_on_c, 9, 42, 0
9, 182335, Note_on_c, 9, 35, 0
9, 182400, Note_on_c, 9, 35, 45
9, 182400, Note_on_c, 9, 42, 55
9, 182495, Note_on_c, 9, 42, 0
9, 182495, Note_on_c, 9, 35, 0
9, 182720, Note_on_c, 9, 42, 25
9, 182815, Note_on_c, 9, 42, 0
9, 182880, Note_on_c, 9, 42, 55
9, 182880, Note_on_c, 9, 37, 55
9, 182975, Note_on_c, 9, 37, 0
9, 182975, Note_on_c, 9, 42, 0
9, 183200, Note_on_c, 9, 35, 35
9, 183200, Note_on_c, 9, 42, 25
9, 183295, Note_on_c, 9, 42, 0
9, 183295, Note_on_c, 9, 35, 0
9, 183360, Note_on_c, 9, 35, 45
9, 183360, Note_on_c, 9, 42, 55
9, 183455, Note_on_c, 9, 42, 0
9, 183455, Note_on_c, 9, 35, 0
9, 183520, Note_on_c, 9, 42, 25
9, 183615, Note_on_c, 9, 42, 0
9, 183680, Note_on_c, 9, 42, 25
9, 183775, Note_on_c, 9, 42, 0
9, 183840, Note_on_c, 9, 42, 55
9, 183840, Note_on_c, 9, 37, 55
9, 183935, Note_on_c, 9, 37, 0
9, 183935, Note_on_c, 9, 42, 0
9, 184160, Note_on_c, 9, 35, 35
9, 184160, Note_on_c, 9, 42, 25
9, 184255, Note_on_c, 9, 42, 0
9, 184255, Note_on_c, 9, 35, 0
9, 184320, Note_on_c, 9, 35, 45
9, 184320, Note_on_c, 9, 42, 55
9, 184415, Note_on_c, 9, 42, 0
9, 184415, Note_on_c, 9, 35, 0
9, 184640, Note_on_c, 9, 42, 25
9, 184735, Note_on_c, 9, 42, 0
9, 184800, Note_on_c, 9, 42, 55
9, 184800, Note_on_c, 9, 37, 55
9, 184895, Note_on_c, 9, 37, 0
9, 184895, Note_on_c, 9, 42, 0
9, 185120, Note_on_c, 9, 35, 35
9, 185120, Note_on_c, 9, 42, 25
9, 185215, Note_on_c, 9, 42, 0
9, 185215, Note_on_c, 9, 35, 0
9, 185280, Note_on_c, 9, 35, 45
9, 185280, Note_on_c, 9, 42, 55
9, 185375, Note_on_c, 9, 42, 0
9, 185375, Note_on_c, 9, 35, 0
9, 185440, Note_on_c, 9, 42, 25
9, 185535, Note_on_c, 9, 42, 0
9, 185600, Note_on_c, 9, 42, 25
9, 185695, Note_on_c, 9, 42, 0
9, 185760, Note_on_c, 9, 42, 55
9, 185760, Note_on_c, 9, 37, 55
9, 185855, Note_on_c, 9, 37, 0
9, 185855, Note_on_c, 9, 42, 0
9, 186080, Note_on_c, 9, 35, 35
9, 186080, Note_on_c, 9, 42, 25
9, 186175, Note_on_c, 9, 42, 0
9, 186175, Note_on_c, 9, 35, 0
9, 186240, Note_on_c, 9, 35, 45
9, 186240, Note_on_c, 9, 42, 55
9, 186335, Note_on_c, 9, 42, 0
9, 186335, Note_on_c, 9, 35, 0
9, 186560, Note_on_c, 9, 42, 35
9, 186655, Note_on_c, 9, 42, 0
9, 186720, Note_on_c, 9, 42, 55
9, 186720, Note_on_c, 9, 37, 37
9, 186815, Note_on_c, 9, 37, 0
9, 186815, Note_on_c, 9, 42, 0
9, 187040, Note_on_c, 9, 35, 35
9, 187040, Note_on_c, 9, 42, 35
9, 187135, Note_on_c, 9, 42, 0
9, 187135, Note_on_c, 9, 35, 0
9, 187200, Note_on_c, 9, 35, 45
9, 187200, Note_on_c, 9, 42, 55
9, 187295, Note_on_c, 9, 42, 0
9, 187295, Note_on_c, 9, 35, 0
9, 187520, Note_on_c, 9, 42, 35
9, 187615, Note_on_c, 9, 42, 0
9, 187680, Note_on_c, 9, 42, 55
9, 187680, Note_on_c, 9, 37, 55
9, 187775, Note_on_c, 9, 37, 0
9, 187775, Note_on_c, 9, 42, 0
9, 188000, Note_on_c, 9, 35, 35
9, 188000, Note_on_c, 9, 42, 35
9, 188095, Note_on_c, 9, 42, 0
9, 188095, Note_on_c, 9, 35, 0
9, 188160, Note_on_c, 9, 35, 55
9, 188160, Note_on_c, 9, 46, 55
9, 188255, Note_on_c, 9, 46, 0
9, 188255, Note_on_c, 9, 35, 0
9, 188480, Note_on_c, 9, 35, 55
9, 188575, Note_on_c, 9, 35, 0
9, 188640, Note_on_c, 9, 35, 65
9, 188640, Note_on_c, 9, 45, 25
9, 188640, Note_on_c, 9, 48, 65
9, 188735, Note_on_c, 9, 48, 0
9, 188735, Note_on_c, 9, 45, 0
9, 188735, Note_on_c, 9, 35, 0
9, 188800, Note_on_c, 9, 48, 35
9, 188895, Note_on_c, 9, 48, 0
9, 188960, Note_on_c, 9, 45, 65
9, 189055, Note_on_c, 9, 45, 0
9, 189120, Note_on_c, 9, 45, 25
9, 189120, Note_on_c, 9, 48, 65
9, 189215, Note_on_c, 9, 48, 0
9, 189215, Note_on_c, 9, 45, 0
9, 189280, Note_on_c, 9, 48, 35
9, 189375, Note_on_c, 9, 48, 0
9, 189440, Note_on_c, 9, 45, 65
9, 189535, Note_on_c, 9, 45, 0
9, 189600, Note_on_c, 9, 41, 25
9, 189600, Note_on_c, 9, 45, 65
9, 189695, Note_on_c, 9, 45, 0
9, 189695, Note_on_c, 9, 41, 0
9, 189760, Note_on_c, 9, 45, 35
9, 189855, Note_on_c, 9, 45, 0
9, 189920, Note_on_c, 9, 41, 65
9, 190015, Note_on_c, 9, 41, 0
9, 190080, Note_on_c, 9, 35, 45
9, 190080, Note_on_c, 9, 42, 55
9, 190175, Note_on_c, 9, 42, 0
9, 190175, Note_on_c, 9, 35, 0
9, 190400, Note_on_c, 9, 42, 25
9, 190495, Note_on_c, 9, 42, 0
9, 190560, Note_on_c, 9, 42, 55
9, 190560, Note_on_c, 9, 37, 55
9, 190655, Note_on_c, 9, 37, 0
9, 190655, Note_on_c, 9, 42, 0
9, 190880, Note_on_c, 9, 35, 35
9, 190880, Note_on_c, 9, 42, 25
9, 190975, Note_on_c, 9, 42, 0
9, 190975, Note_on_c, 9, 35, 0
9, 191040, Note_on_c, 9, 35, 45
9, 191040, Note_on_c, 9, 42, 55
9, 191135, Note_on_c, 9, 42, 0
9, 191135, Note_on_c, 9, 35, 0
9, 191360, Note_on_c, 9, 42, 25
9, 191455, Note_on_c, 9, 42, 0
9, 191520, Note_on_c, 9, 38, 55
9, 191615, Note_on_c, 9, 38, 0
9, 191680, Note_on_c, 9, 45, 55
9, 191775, Note_on_c, 9, 45, 0
9, 191840, Note_on_c, 9, 41, 65
9, 191935, Note_on_c, 9, 41, 0
9, 192000, Note_on_c, 9, 38, 65
9, 192095, Note_on_c, 9, 38, 0
9, 192320, Note_on_c, 9, 35, 45
9, 192415, Note_on_c, 9, 35, 0
9, 192480, Note_on_c, 9, 35, 45
9, 192480, Note_on_c, 9, 46, 35
9, 192480, Note_on_c, 9, 51, 55
9, 192575, Note_on_c, 9, 51, 0
9, 192575, Note_on_c, 9, 46, 0
9, 192575, Note_on_c, 9, 35, 0
9, 192960, Note_on_c, 9, 35, 65
9, 192960, Note_on_c, 9, 49, 55
9, 193055, Note_on_c, 9, 49, 0
9, 193055, Note_on_c, 9, 35, 0
9, 193055, End_track
10, 0, Start_track
10, 0, MIDI_port, 0
10, 0, Title_t, "Dick"
10, 0, End_track
11, 0, Start_track
11, 0, MIDI_port, 0
11, 0, Title_t, "Anderson"
11, 0, End_track
12, 0, Start_track
12, 0, MIDI_port, 0
12, 0, Title_t, "djcc@c2i2.com"
12, 0, End_track
13, 0, Start_track
13, 0, MIDI_port, 0
13, 532, Program_c, 10, 60
13, 533, Control_c, 10, 7, 50
13, 65813, Control_c, 10, 7, 50
13, 66250, Note_on_c, 10, 60, 70
13, 66742, Note_on_c, 10, 60, 0
13, 66747, Note_on_c, 10, 62, 70
13, 67222, Note_on_c, 10, 64, 76
13, 67252, Note_on_c, 10, 62, 0
13, 68807, Note_on_c, 10, 64, 0
13, 68860, Note_on_c, 10, 62, 72
13, 69150, Note_on_c, 10, 64, 87
13, 69167, Note_on_c, 10, 62, 0
13, 69750, Note_on_c, 10, 64, 0
13, 69760, Note_on_c, 10, 69, 80
13, 70087, Note_on_c, 10, 67, 67
13, 70105, Note_on_c, 10, 69, 0
13, 70740, Note_on_c, 10, 64, 65
13, 70762, Note_on_c, 10, 67, 0
13, 71090, Note_on_c, 10, 62, 72
13, 71100, Note_on_c, 10, 64, 0
13, 71535, Note_on_c, 10, 62, 0
13, 71540, Note_on_c, 10, 60, 70
13, 71865, Note_on_c, 10, 60, 0
13, 71887, Note_on_c, 10, 57, 78
13, 73715, Note_on_c, 10, 57, 0
13, 73722, Note_on_c, 10, 60, 85
13, 73967, Note_on_c, 10, 60, 0
13, 73980, Note_on_c, 10, 64, 90
13, 74415, Note_on_c, 10, 64, 0
13, 74420, Note_on_c, 10, 65, 80
13, 74927, Note_on_c, 10, 67, 65
13, 74935, Note_on_c, 10, 65, 0
13, 76247, Note_on_c, 10, 67, 0
13, 76322, Note_on_c, 10, 69, 83
13, 76807, Note_on_c, 10, 69, 0
13, 76807, Note_on_c, 10, 67, 83
13, 77410, Note_on_c, 10, 64, 70
13, 77422, Note_on_c, 10, 67, 0
13, 77755, Note_on_c, 10, 64, 0
13, 77760, Note_on_c, 10, 60, 70
13, 78230, Note_on_c, 10, 64, 65
13, 78255, Note_on_c, 10, 60, 0
13, 78545, Note_on_c, 10, 64, 0
13, 78562, Note_on_c, 10, 62, 67
13, 81057, Note_on_c, 10, 62, 0
13, 81140, Note_on_c, 10, 59, 85
13, 81642, Note_on_c, 10, 60, 80
13, 81652, Note_on_c, 10, 59, 0
13, 82230, Note_on_c, 10, 60, 0
13, 82240, Note_on_c, 10, 62, 72
13, 82552, Note_on_c, 10, 62, 0
13, 82582, Note_on_c, 10, 64, 74
13, 84202, Note_on_c, 10, 64, 0
13, 84227, Note_on_c, 10, 62, 76
13, 84482, Note_on_c, 10, 62, 0
13, 84500, Note_on_c, 10, 64, 85
13, 84982, Note_on_c, 10, 69, 80
13, 85005, Note_on_c, 10, 64, 0
13, 85422, Note_on_c, 10, 67, 76
13, 85437, Note_on_c, 10, 69, 0
13, 86120, Note_on_c, 10, 64, 74
13, 86135, Note_on_c, 10, 67, 0
13, 86442, Note_on_c, 10, 62, 74
13, 86447, Note_on_c, 10, 64, 0
13, 86877, Note_on_c, 10, 62, 0
13, 86880, Note_on_c, 10, 60, 61
13, 87222, Note_on_c, 10, 57, 65
13, 87225, Note_on_c, 10, 60, 0
13, 88827, Note_on_c, 10, 57, 0
13, 88840, Note_on_c, 10, 59, 70
13, 89305, Note_on_c, 10, 59, 0
13, 89307, Note_on_c, 10, 60, 67
13, 89892, Note_on_c, 10, 60, 0
13, 89902, Note_on_c, 10, 62, 70
13, 90217, Note_on_c, 10, 62, 0
13, 90247, Note_on_c, 10, 64, 72
13, 91562, Note_on_c, 10, 64, 0
13, 91682, Note_on_c, 10, 65, 76
13, 92167, Note_on_c, 10, 65, 0
13, 92200, Note_on_c, 10, 64, 74
13, 92822, Note_on_c, 10, 62, 70
13, 92832, Note_on_c, 10, 64, 0
13, 93150, Note_on_c, 10, 60, 59
13, 93157, Note_on_c, 10, 62, 0
13, 93615, Note_on_c, 10, 60, 0
13, 93620, Note_on_c, 10, 62, 70
13, 93967, Note_on_c, 10, 60, 80
13, 93975, Note_on_c, 10, 62, 0
13, 96072, Note_on_c, 10, 60, 0
13, 96507, Note_on_c, 10, 67, 87
13, 97000, Note_on_c, 10, 67, 0
13, 97002, Note_on_c, 10, 69, 85
13, 97555, Note_on_c, 10, 69, 0
13, 97580, Note_on_c, 10, 71, 90
13, 97942, Note_on_c, 10, 72, 87
13, 97952, Note_on_c, 10, 71, 0
13, 99497, Note_on_c, 10, 72, 0
13, 99540, Note_on_c, 10, 71, 78
13, 99775, Note_on_c, 10, 71, 0
13, 99862, Note_on_c, 10, 71, 80
13, 100440, Note_on_c, 10, 69, 67
13, 100457, Note_on_c, 10, 71, 0
13, 100790, Note_on_c, 10, 67, 76
13, 100795, Note_on_c, 10, 69, 0
13, 101370, Note_on_c, 10, 67, 0
13, 101420, Note_on_c, 10, 69, 70
13, 101780, Note_on_c, 10, 67, 76
13, 101815, Note_on_c, 10, 69, 0
13, 102262, Note_on_c, 10, 64, 57
13, 102285, Note_on_c, 10, 67, 0
13, 102582, Note_on_c, 10, 60, 65
13, 102622, Note_on_c, 10, 64, 0
13, 103930, Note_on_c, 10, 60, 0
13, 104160, Note_on_c, 10, 67, 80
13, 104660, Note_on_c, 10, 69, 72
13, 104675, Note_on_c, 10, 67, 0
13, 105115, Note_on_c, 10, 69, 0
13, 105130, Note_on_c, 10, 71, 87
13, 105620, Note_on_c, 10, 72, 85
13, 105625, Note_on_c, 10, 71, 0
13, 107075, Note_on_c, 10, 72, 0
13, 107080, Note_on_c, 10, 71, 72
13, 107452, Note_on_c, 10, 71, 0
13, 107540, Note_on_c, 10, 71, 76
13, 108167, Note_on_c, 10, 69, 83
13, 108172, Note_on_c, 10, 71, 0
13, 108502, Note_on_c, 10, 67, 74
13, 108512, Note_on_c, 10, 69, 0
13, 109090, Note_on_c, 10, 64, 70
13, 109110, Note_on_c, 10, 67, 0
13, 109460, Note_on_c, 10, 62, 72
13, 109465, Note_on_c, 10, 64, 0
13, 111827, Note_on_c, 10, 62, 0
13, 111830, Note_on_c, 10, 67, 87
13, 112222, Note_on_c, 10, 67, 0
13, 112320, Note_on_c, 10, 67, 83
13, 112872, Note_on_c, 10, 67, 0
13, 112980, Note_on_c, 10, 67, 90
13, 113240, Note_on_c, 10, 67, 0
13, 113300, Note_on_c, 10, 76, 83
13, 114835, Note_on_c, 10, 76, 0
13, 114887, Note_on_c, 10, 74, 65
13, 115142, Note_on_c, 10, 74, 0
13, 115227, Note_on_c, 10, 74, 72
13, 115720, Note_on_c, 10, 72, 70
13, 115742, Note_on_c, 10, 74, 0
13, 116175, Note_on_c, 10, 72, 0
13, 116180, Note_on_c, 10, 69, 65
13, 116807, Note_on_c, 10, 69, 0
13, 116810, Note_on_c, 10, 72, 83
13, 117160, Note_on_c, 10, 67, 67
13, 117177, Note_on_c, 10, 72, 0
13, 117622, Note_on_c, 10, 64, 67
13, 117652, Note_on_c, 10, 67, 0
13, 118090, Note_on_c, 10, 60, 51
13, 118107, Note_on_c, 10, 64, 0
13, 119497, Note_on_c, 10, 60, 0
13, 119530, Note_on_c, 10, 59, 57
13, 120002, Note_on_c, 10, 60, 65
13, 120015, Note_on_c, 10, 59, 0
13, 120507, Note_on_c, 10, 60, 0
13, 120510, Note_on_c, 10, 62, 72
13, 120942, Note_on_c, 10, 62, 0
13, 120970, Note_on_c, 10, 64, 83
13, 121590, Note_on_c, 10, 64, 0
13, 121607, Note_on_c, 10, 69, 83
13, 121942, Note_on_c, 10, 69, 0
13, 121942, Note_on_c, 10, 67, 59
13, 122560, Note_on_c, 10, 64, 70
13, 122567, Note_on_c, 10, 67, 0
13, 122907, Note_on_c, 10, 62, 65
13, 122920, Note_on_c, 10, 64, 0
13, 123367, Note_on_c, 10, 60, 53
13, 123382, Note_on_c, 10, 62, 0
13, 123887, Note_on_c, 10, 57, 70
13, 123912, Note_on_c, 10, 60, 0
13, 124432, Note_on_c, 10, 57, 0
13, 124440, Note_on_c, 10, 59, 74
13, 124787, Note_on_c, 10, 60, 70
13, 124787, Lyric_t, " "
13, 124787, Lyric_t, "\015"
13, 124795, Note_on_c, 10, 59, 0
13, 126872, Note_on_c, 10, 60, 0
13, 126872, End_track
14, 0, Start_track
14, 0, MIDI_port, 0
14, 537, Program_c, 11, 67
14, 538, Control_c, 11, 7, 50
14, 65813, Control_c, 11, 7, 50
14, 66250, Note_on_c, 11, 60, 70
14, 66742, Note_on_c, 11, 60, 0
14, 66747, Note_on_c, 11, 62, 70
14, 67222, Note_on_c, 11, 64, 76
14, 67252, Note_on_c, 11, 62, 0
14, 68807, Note_on_c, 11, 64, 0
14, 68860, Note_on_c, 11, 62, 72
14, 69150, Note_on_c, 11, 64, 87
14, 69167, Note_on_c, 11, 62, 0
14, 69750, Note_on_c, 11, 64, 0
14, 69760, Note_on_c, 11, 69, 80
14, 70087, Note_on_c, 11, 67, 67
14, 70105, Note_on_c, 11, 69, 0
14, 70740, Note_on_c, 11, 64, 65
14, 70762, Note_on_c, 11, 67, 0
14, 71090, Note_on_c, 11, 62, 72
14, 71100, Note_on_c, 11, 64, 0
14, 71535, Note_on_c, 11, 62, 0
14, 71540, Note_on_c, 11, 60, 70
14, 71865, Note_on_c, 11, 60, 0
14, 71887, Note_on_c, 11, 57, 78
14, 73715, Note_on_c, 11, 57, 0
14, 73722, Note_on_c, 11, 60, 85
14, 73967, Note_on_c, 11, 60, 0
14, 73980, Note_on_c, 11, 64, 90
14, 74415, Note_on_c, 11, 64, 0
14, 74420, Note_on_c, 11, 65, 80
14, 74927, Note_on_c, 11, 67, 65
14, 74935, Note_on_c, 11, 65, 0
14, 76247, Note_on_c, 11, 67, 0
14, 76322, Note_on_c, 11, 69, 83
14, 76807, Note_on_c, 11, 69, 0
14, 76807, Note_on_c, 11, 67, 83
14, 77410, Note_on_c, 11, 64, 70
14, 77422, Note_on_c, 11, 67, 0
14, 77755, Note_on_c, 11, 64, 0
14, 77760, Note_on_c, 11, 60, 70
14, 78230, Note_on_c, 11, 64, 65
14, 78255, Note_on_c, 11, 60, 0
14, 78545, Note_on_c, 11, 64, 0
14, 78562, Note_on_c, 11, 62, 67
14, 81057, Note_on_c, 11, 62, 0
14, 81140, Note_on_c, 11, 59, 85
14, 81642, Note_on_c, 11, 60, 80
14, 81652, Note_on_c, 11, 59, 0
14, 82230, Note_on_c, 11, 60, 0
14, 82240, Note_on_c, 11, 62, 72
14, 82552, Note_on_c, 11, 62, 0
14, 82582, Note_on_c, 11, 64, 74
14, 84202, Note_on_c, 11, 64, 0
14, 84227, Note_on_c, 11, 62, 76
14, 84482, Note_on_c, 11, 62, 0
14, 84500, Note_on_c, 11, 64, 85
14, 84982, Note_on_c, 11, 69, 80
14, 85005, Note_on_c, 11, 64, 0
14, 85422, Note_on_c, 11, 67, 76
14, 85437, Note_on_c, 11, 69, 0
14, 86120, Note_on_c, 11, 64, 74
14, 86135, Note_on_c, 11, 67, 0
14, 86442, Note_on_c, 11, 62, 74
14, 86447, Note_on_c, 11, 64, 0
14, 86877, Note_on_c, 11, 62, 0
14, 86880, Note_on_c, 11, 60, 61
14, 87222, Note_on_c, 11, 57, 65
14, 87225, Note_on_c, 11, 60, 0
14, 88827, Note_on_c, 11, 57, 0
14, 88840, Note_on_c, 11, 59, 70
14, 89305, Note_on_c, 11, 59, 0
14, 89307, Note_on_c, 11, 60, 67
14, 89892, Note_on_c, 11, 60, 0
14, 89902, Note_on_c, 11, 62, 70
14, 90217, Note_on_c, 11, 62, 0
14, 90247, Note_on_c, 11, 64, 72
14, 91562, Note_on_c, 11, 64, 0
14, 91682, Note_on_c, 11, 65, 76
14, 92167, Note_on_c, 11, 65, 0
14, 92200, Note_on_c, 11, 64, 74
14, 92822, Note_on_c, 11, 62, 70
14, 92832, Note_on_c, 11, 64, 0
14, 93150, Note_on_c, 11, 60, 59
14, 93157, Note_on_c, 11, 62, 0
14, 93615, Note_on_c, 11, 60, 0
14, 93620, Note_on_c, 11, 62, 70
14, 93967, Note_on_c, 11, 60, 80
14, 93975, Note_on_c, 11, 62, 0
14, 96072, Note_on_c, 11, 60, 0
14, 96507, Note_on_c, 11, 67, 87
14, 97000, Note_on_c, 11, 67, 0
14, 97002, Note_on_c, 11, 69, 85
14, 97555, Note_on_c, 11, 69, 0
14, 97580, Note_on_c, 11, 71, 90
14, 97942, Note_on_c, 11, 72, 87
14, 97952, Note_on_c, 11, 71, 0
14, 99497, Note_on_c, 11, 72, 0
14, 99540, Note_on_c, 11, 71, 78
14, 99775, Note_on_c, 11, 71, 0
14, 99862, Note_on_c, 11, 71, 80
14, 100440, Note_on_c, 11, 69, 67
14, 100457, Note_on_c, 11, 71, 0
14, 100790, Note_on_c, 11, 67, 76
14, 100795, Note_on_c, 11, 69, 0
14, 101370, Note_on_c, 11, 67, 0
14, 101420, Note_on_c, 11, 69, 70
14, 101780, Note_on_c, 11, 67, 76
14, 101815, Note_on_c, 11, 69, 0
14, 102262, Note_on_c, 11, 64, 57
14, 102285, Note_on_c, 11, 67, 0
14, 102582, Note_on_c, 11, 60, 65
14, 102622, Note_on_c, 11, 64, 0
14, 103930, Note_on_c, 11, 60, 0
14, 104160, Note_on_c, 11, 67, 80
14, 104660, Note_on_c, 11, 69, 72
14, 104675, Note_on_c, 11, 67, 0
14, 105115, Note_on_c, 11, 69, 0
14, 105130, Note_on_c, 11, 71, 87
14, 105620, Note_on_c, 11, 72, 85
14, 105625, Note_on_c, 11, 71, 0
14, 107075, Note_on_c, 11, 72, 0
14, 107080, Note_on_c, 11, 71, 72
14, 107452, Note_on_c, 11, 71, 0
14, 107540, Note_on_c, 11, 71, 76
14, 108167, Note_on_c, 11, 69, 83
14, 108172, Note_on_c, 11, 71, 0
14, 108502, Note_on_c, 11, 67, 74
14, 108512, Note_on_c, 11, 69, 0
14, 109090, Note_on_c, 11, 64, 70
14, 109110, Note_on_c, 11, 67, 0
14, 109460, Note_on_c, 11, 62, 72
14, 109465, Note_on_c, 11, 64, 0
14, 111827, Note_on_c, 11, 62, 0
14, 111830, Note_on_c, 11, 67, 87
14, 112222, Note_on_c, 11, 67, 0
14, 112320, Note_on_c, 11, 67, 83
14, 112872, Note_on_c, 11, 67, 0
14, 112980, Note_on_c, 11, 67, 90
14, 113240, Note_on_c, 11, 67, 0
14, 113300, Note_on_c, 11, 76, 83
14, 114835, Note_on_c, 11, 76, 0
14, 114887, Note_on_c, 11, 74, 65
14, 115142, Note_on_c, 11, 74, 0
14, 115227, Note_on_c, 11, 74, 72
14, 115720, Note_on_c, 11, 72, 70
14, 115742, Note_on_c, 11, 74, 0
14, 116175, Note_on_c, 11, 72, 0
14, 116180, Note_on_c, 11, 69, 65
14, 116807, Note_on_c, 11, 69, 0
14, 116810, Note_on_c, 11, 72, 83
14, 117160, Note_on_c, 11, 67, 67
14, 117177, Note_on_c, 11, 72, 0
14, 117622, Note_on_c, 11, 64, 67
14, 117652, Note_on_c, 11, 67, 0
14, 118090, Note_on_c, 11, 60, 51
14, 118107, Note_on_c, 11, 64, 0
14, 119497, Note_on_c, 11, 60, 0
14, 119530, Note_on_c, 11, 59, 57
14, 120002, Note_on_c, 11, 60, 65
14, 120015, Note_on_c, 11, 59, 0
14, 120507, Note_on_c, 11, 60, 0
14, 120510, Note_on_c, 11, 62, 72
14, 120942, Note_on_c, 11, 62, 0
14, 120970, Note_on_c, 11, 64, 83
14, 121590, Note_on_c, 11, 64, 0
14, 121607, Note_on_c, 11, 69, 83
14, 121942, Note_on_c, 11, 69, 0
14, 121942, Note_on_c, 11, 67, 59
14, 122560, Note_on_c, 11, 64, 70
14, 122567, Note_on_c, 11, 67, 0
14, 122907, Note_on_c, 11, 62, 65
14, 122920, Note_on_c, 11, 64, 0
14, 123367, Note_on_c, 11, 60, 53
14, 123382, Note_on_c, 11, 62, 0
14, 123887, Note_on_c, 11, 57, 70
14, 123912, Note_on_c, 11, 60, 0
14, 124432, Note_on_c, 11, 57, 0
14, 124440, Note_on_c, 11, 59, 74
14, 124787, Note_on_c, 11, 60, 70
14, 124787, Lyric_t, " "
14, 124787, Lyric_t, "\015"
14, 124795, Note_on_c, 11, 59, 0
14, 126872, Note_on_c, 11, 60, 0
14, 126872, End_track
15, 0, Start_track
15, 0, MIDI_port, 0
15, 542, Program_c, 12, 59
15, 543, Control_c, 12, 7, 50
15, 65813, Control_c, 12, 7, 50
15, 66250, Note_on_c, 12, 60, 70
15, 66742, Note_on_c, 12, 60, 0
15, 66747, Note_on_c, 12, 62, 70
15, 67222, Note_on_c, 12, 64, 76
15, 67252, Note_on_c, 12, 62, 0
15, 68807, Note_on_c, 12, 64, 0
15, 68860, Note_on_c, 12, 62, 72
15, 69150, Note_on_c, 12, 64, 87
15, 69167, Note_on_c, 12, 62, 0
15, 69750, Note_on_c, 12, 64, 0
15, 69760, Note_on_c, 12, 69, 80
15, 70087, Note_on_c, 12, 67, 67
15, 70105, Note_on_c, 12, 69, 0
15, 70740, Note_on_c, 12, 64, 65
15, 70762, Note_on_c, 12, 67, 0
15, 71090, Note_on_c, 12, 62, 72
15, 71100, Note_on_c, 12, 64, 0
15, 71535, Note_on_c, 12, 62, 0
15, 71540, Note_on_c, 12, 60, 70
15, 71865, Note_on_c, 12, 60, 0
15, 71887, Note_on_c, 12, 57, 78
15, 73715, Note_on_c, 12, 57, 0
15, 73722, Note_on_c, 12, 60, 85
15, 73967, Note_on_c, 12, 60, 0
15, 73980, Note_on_c, 12, 64, 90
15, 74415, Note_on_c, 12, 64, 0
15, 74420, Note_on_c, 12, 65, 80
15, 74927, Note_on_c, 12, 67, 65
15, 74935, Note_on_c, 12, 65, 0
15, 76247, Note_on_c, 12, 67, 0
15, 76322, Note_on_c, 12, 69, 83
15, 76807, Note_on_c, 12, 69, 0
15, 76807, Note_on_c, 12, 67, 83
15, 77410, Note_on_c, 12, 64, 70
15, 77422, Note_on_c, 12, 67, 0
15, 77755, Note_on_c, 12, 64, 0
15, 77760, Note_on_c, 12, 60, 70
15, 78230, Note_on_c, 12, 64, 65
15, 78255, Note_on_c, 12, 60, 0
15, 78545, Note_on_c, 12, 64, 0
15, 78562, Note_on_c, 12, 62, 67
15, 81057, Note_on_c, 12, 62, 0
15, 81140, Note_on_c, 12, 59, 85
15, 81642, Note_on_c, 12, 60, 80
15, 81652, Note_on_c, 12, 59, 0
15, 82230, Note_on_c, 12, 60, 0
15, 82240, Note_on_c, 12, 62, 72
15, 82552, Note_on_c, 12, 62, 0
15, 82582, Note_on_c, 12, 64, 74
15, 84202, Note_on_c, 12, 64, 0
15, 84227, Note_on_c, 12, 62, 76
15, 84482, Note_on_c, 12, 62, 0
15, 84500, Note_on_c, 12, 64, 85
15, 84982, Note_on_c, 12, 69, 80
15, 85005, Note_on_c, 12, 64, 0
15, 85422, Note_on_c, 12, 67, 76
15, 85437, Note_on_c, 12, 69, 0
15, 86120, Note_on_c, 12, 64, 74
15, 86135, Note_on_c, 12, 67, 0
15, 86442, Note_on_c, 12, 62, 74
15, 86447, Note_on_c, 12, 64, 0
15, 86877, Note_on_c, 12, 62, 0
15, 86880, Note_on_c, 12, 60, 61
15, 87222, Note_on_c, 12, 57, 65
15, 87225, Note_on_c, 12, 60, 0
15, 88827, Note_on_c, 12, 57, 0
15, 88840, Note_on_c, 12, 59, 70
15, 89305, Note_on_c, 12, 59, 0
15, 89307, Note_on_c, 12, 60, 67
15, 89892, Note_on_c, 12, 60, 0
15, 89902, Note_on_c, 12, 62, 70
15, 90217, Note_on_c, 12, 62, 0
15, 90247, Note_on_c, 12, 64, 72
15, 91562, Note_on_c, 12, 64, 0
15, 91682, Note_on_c, 12, 65, 76
15, 92167, Note_on_c, 12, 65, 0
15, 92200, Note_on_c, 12, 64, 74
15, 92822, Note_on_c, 12, 62, 70
15, 92832, Note_on_c, 12, 64, 0
15, 93150, Note_on_c, 12, 60, 59
15, 93157, Note_on_c, 12, 62, 0
15, 93615, Note_on_c, 12, 60, 0
15, 93620, Note_on_c, 12, 62, 70
15, 93967, Note_on_c, 12, 60, 80
15, 93975, Note_on_c, 12, 62, 0
15, 96072, Note_on_c, 12, 60, 0
15, 96507, Note_on_c, 12, 67, 87
15, 97000, Note_on_c, 12, 67, 0
15, 97002, Note_on_c, 12, 69, 85
15, 97555, Note_on_c, 12, 69, 0
15, 97580, Note_on_c, 12, 71, 90
15, 97942, Note_on_c, 12, 72, 87
15, 97952, Note_on_c, 12, 71, 0
15, 99497, Note_on_c, 12, 72, 0
15, 99540, Note_on_c, 12, 71, 78
15, 99775, Note_on_c, 12, 71, 0
15, 99862, Note_on_c, 12, 71, 80
15, 100440, Note_on_c, 12, 69, 67
15, 100457, Note_on_c, 12, 71, 0
15, 100790, Note_on_c, 12, 67, 76
15, 100795, Note_on_c, 12, 69, 0
15, 101370, Note_on_c, 12, 67, 0
15, 101420, Note_on_c, 12, 69, 70
15, 101780, Note_on_c, 12, 67, 76
15, 101815, Note_on_c, 12, 69, 0
15, 102262, Note_on_c, 12, 64, 57
15, 102285, Note_on_c, 12, 67, 0
15, 102582, Note_on_c, 12, 60, 65
15, 102622, Note_on_c, 12, 64, 0
15, 103930, Note_on_c, 12, 60, 0
15, 104160, Note_on_c, 12, 67, 80
15, 104660, Note_on_c, 12, 69, 72
15, 104675, Note_on_c, 12, 67, 0
15, 105115, Note_on_c, 12, 69, 0
15, 105130, Note_on_c, 12, 71, 87
15, 105620, Note_on_c, 12, 72, 85
15, 105625, Note_on_c, 12, 71, 0
15, 107075, Note_on_c, 12, 72, 0
15, 107080, Note_on_c, 12, 71, 72
15, 107452, Note_on_c, 12, 71, 0
15, 107540, Note_on_c, 12, 71, 76
15, 108167, Note_on_c, 12, 69, 83
15, 108172, Note_on_c, 12, 71, 0
15, 108502, Note_on_c, 12, 67, 74
15, 108512, Note_on_c, 12, 69, 0
15, 109090, Note_on_c, 12, 64, 70
15, 109110, Note_on_c, 12, 67, 0
15, 109460, Note_on_c, 12, 62, 72
15, 109465, Note_on_c, 12, 64, 0
15, 111827, Note_on_c, 12, 62, 0
15, 111830, Note_on_c, 12, 67, 87
15, 112222, Note_on_c, 12, 67, 0
15, 112320, Note_on_c, 12, 67, 83
15, 112872, Note_on_c, 12, 67, 0
15, 112980, Note_on_c, 12, 67, 90
15, 113240, Note_on_c, 12, 67, 0
15, 113300, Note_on_c, 12, 76, 83
15, 114835, Note_on_c, 12, 76, 0
15, 114887, Note_on_c, 12, 74, 65
15, 115142, Note_on_c, 12, 74, 0
15, 115227, Note_on_c, 12, 74, 72
15, 115720, Note_on_c, 12, 72, 70
15, 115742, Note_on_c, 12, 74, 0
15, 116175, Note_on_c, 12, 72, 0
15, 116180, Note_on_c, 12, 69, 65
15, 116807, Note_on_c, 12, 69, 0
15, 116810, Note_on_c, 12, 72, 83
15, 117160, Note_on_c, 12, 67, 67
15, 117177, Note_on_c, 12, 72, 0
15, 117622, Note_on_c, 12, 64, 67
15, 117652, Note_on_c, 12, 67, 0
15, 118090, Note_on_c, 12, 60, 51
15, 118107, Note_on_c, 12, 64, 0
15, 119497, Note_on_c, 12, 60, 0
15, 119530, Note_on_c, 12, 59, 57
15, 120002, Note_on_c, 12, 60, 65
15, 120015, Note_on_c, 12, 59, 0
15, 120507, Note_on_c, 12, 60, 0
15, 120510, Note_on_c, 12, 62, 72
15, 120942, Note_on_c, 12, 62, 0
15, 120970, Note_on_c, 12, 64, 83
15, 121590, Note_on_c, 12, 64, 0
15, 121607, Note_on_c, 12, 69, 83
15, 121942, Note_on_c, 12, 69, 0
15, 121942, Note_on_c, 12, 67, 59
15, 122560, Note_on_c, 12, 64, 70
15, 122567, Note_on_c, 12, 67, 0
15, 122907, Note_on_c, 12, 62, 65
15, 122920, Note_on_c, 12, 64, 0
15, 123367, Note_on_c, 12, 60, 53
15, 123382, Note_on_c, 12, 62, 0
15, 123887, Note_on_c, 12, 57, 70
15, 123912, Note_on_c, 12, 60, 0
15, 124432, Note_on_c, 12, 57, 0
15, 124440, Note_on_c, 12, 59, 74
15, 124787, Note_on_c, 12, 60, 70
15, 124787, Lyric_t, " "
15, 124787, Lyric_t, "\015"
15, 124795, Note_on_c, 12, 59, 0
15, 126872, Note_on_c, 12, 60, 0
15, 126872, End_track
16, 0, Start_track
16, 0, MIDI_port, 0
16, 547, Program_c, 13, 48
16, 548, Control_c, 13, 7, 50
16, 65813, Control_c, 13, 7, 50
16, 65813, Control_c, 13, 93, 50
16, 66250, Note_on_c, 13, 60, 81
16, 66742, Note_on_c, 13, 60, 0
16, 66747, Note_on_c, 13, 62, 81
16, 67222, Note_on_c, 13, 64, 87
16, 67252, Note_on_c, 13, 62, 0
16, 68807, Note_on_c, 13, 64, 0
16, 68860, Note_on_c, 13, 62, 83
16, 69150, Note_on_c, 13, 64, 98
16, 69167, Note_on_c, 13, 62, 0
16, 69750, Note_on_c, 13, 64, 0
16, 69760, Note_on_c, 13, 69, 91
16, 70087, Note_on_c, 13, 67, 78
16, 70105, Note_on_c, 13, 69, 0
16, 70740, Note_on_c, 13, 64, 76
16, 70762, Note_on_c, 13, 67, 0
16, 71090, Note_on_c, 13, 62, 83
16, 71100, Note_on_c, 13, 64, 0
16, 71535, Note_on_c, 13, 62, 0
16, 71540, Note_on_c, 13, 60, 81
16, 71865, Note_on_c, 13, 60, 0
16, 71887, Note_on_c, 13, 57, 89
16, 73715, Note_on_c, 13, 57, 0
16, 73722, Note_on_c, 13, 60, 96
16, 73967, Note_on_c, 13, 60, 0
16, 73980, Note_on_c, 13, 64, 101
16, 74415, Note_on_c, 13, 64, 0
16, 74420, Note_on_c, 13, 65, 91
16, 74927, Note_on_c, 13, 67, 76
16, 74935, Note_on_c, 13, 65, 0
16, 76247, Note_on_c, 13, 67, 0
16, 76322, Note_on_c, 13, 69, 94
16, 76807, Note_on_c, 13, 69, 0
16, 76807, Note_on_c, 13, 67, 94
16, 77410, Note_on_c, 13, 64, 81
16, 77422, Note_on_c, 13, 67, 0
16, 77755, Note_on_c, 13, 64, 0
16, 77760, Note_on_c, 13, 60, 81
16, 78230, Note_on_c, 13, 64, 76
16, 78255, Note_on_c, 13, 60, 0
16, 78545, Note_on_c, 13, 64, 0
16, 78562, Note_on_c, 13, 62, 78
16, 81057, Note_on_c, 13, 62, 0
16, 81140, Note_on_c, 13, 59, 96
16, 81642, Note_on_c, 13, 60, 91
16, 81652, Note_on_c, 13, 59, 0
16, 82230, Note_on_c, 13, 60, 0
16, 82240, Note_on_c, 13, 62, 83
16, 82552, Note_on_c, 13, 62, 0
16, 82582, Note_on_c, 13, 64, 85
16, 84202, Note_on_c, 13, 64, 0
16, 84227, Note_on_c, 13, 62, 87
16, 84482, Note_on_c, 13, 62, 0
16, 84500, Note_on_c, 13, 64, 96
16, 84982, Note_on_c, 13, 69, 91
16, 85005, Note_on_c, 13, 64, 0
16, 85422, Note_on_c, 13, 67, 87
16, 85437, Note_on_c, 13, 69, 0
16, 86120, Note_on_c, 13, 64, 85
16, 86135, Note_on_c, 13, 67, 0
16, 86442, Note_on_c, 13, 62, 85
16, 86447, Note_on_c, 13, 64, 0
16, 86877, Note_on_c, 13, 62, 0
16, 86880, Note_on_c, 13, 60, 72
16, 87222, Note_on_c, 13, 57, 76
16, 87225, Note_on_c, 13, 60, 0
16, 88827, Note_on_c, 13, 57, 0
16, 88840, Note_on_c, 13, 59, 81
16, 89305, Note_on_c, 13, 59, 0
16, 89307, Note_on_c, 13, 60, 78
16, 89892, Note_on_c, 13, 60, 0
16, 89902, Note_on_c, 13, 62, 81
16, 90217, Note_on_c, 13, 62, 0
16, 90247, Note_on_c, 13, 64, 83
16, 91562, Note_on_c, 13, 64, 0
16, 91682, Note_on_c, 13, 65, 87
16, 92167, Note_on_c, 13, 65, 0
16, 92200, Note_on_c, 13, 64, 85
16, 92822, Note_on_c, 13, 62, 81
16, 92832, Note_on_c, 13, 64, 0
16, 93150, Note_on_c, 13, 60, 70
16, 93157, Note_on_c, 13, 62, 0
16, 93615, Note_on_c, 13, 60, 0
16, 93620, Note_on_c, 13, 62, 81
16, 93967, Note_on_c, 13, 60, 91
16, 93975, Note_on_c, 13, 62, 0
16, 96072, Note_on_c, 13, 60, 0
16, 96507, Note_on_c, 13, 67, 98
16, 97000, Note_on_c, 13, 67, 0
16, 97002, Note_on_c, 13, 69, 96
16, 97555, Note_on_c, 13, 69, 0
16, 97580, Note_on_c, 13, 71, 101
16, 97942, Note_on_c, 13, 72, 98
16, 97952, Note_on_c, 13, 71, 0
16, 99497, Note_on_c, 13, 72, 0
16, 99540, Note_on_c, 13, 71, 89
16, 99775, Note_on_c, 13, 71, 0
16, 99862, Note_on_c, 13, 71, 91
16, 100440, Note_on_c, 13, 69, 78
16, 100457, Note_on_c, 13, 71, 0
16, 100790, Note_on_c, 13, 67, 87
16, 100795, Note_on_c, 13, 69, 0
16, 101370, Note_on_c, 13, 67, 0
16, 101420, Note_on_c, 13, 69, 81
16, 101780, Note_on_c, 13, 67, 87
16, 101815, Note_on_c, 13, 69, 0
16, 102262, Note_on_c, 13, 64, 68
16, 102285, Note_on_c, 13, 67, 0
16, 102582, Note_on_c, 13, 60, 76
16, 102622, Note_on_c, 13, 64, 0
16, 103930, Note_on_c, 13, 60, 0
16, 104160, Note_on_c, 13, 67, 91
16, 104660, Note_on_c, 13, 69, 83
16, 104675, Note_on_c, 13, 67, 0
16, 105115, Note_on_c, 13, 69, 0
16, 105130, Note_on_c, 13, 71, 98
16, 105620, Note_on_c, 13, 72, 96
16, 105625, Note_on_c, 13, 71, 0
16, 107075, Note_on_c, 13, 72, 0
16, 107080, Note_on_c, 13, 71, 83
16, 107452, Note_on_c, 13, 71, 0
16, 107540, Note_on_c, 13, 71, 87
16, 108167, Note_on_c, 13, 69, 94
16, 108172, Note_on_c, 13, 71, 0
16, 108502, Note_on_c, 13, 67, 85
16, 108512, Note_on_c, 13, 69, 0
16, 109090, Note_on_c, 13, 64, 81
16, 109110, Note_on_c, 13, 67, 0
16, 109460, Note_on_c, 13, 62, 83
16, 109465, Note_on_c, 13, 64, 0
16, 111827, Note_on_c, 13, 62, 0
16, 111830, Note_on_c, 13, 67, 98
16, 112222, Note_on_c, 13, 67, 0
16, 112320, Note_on_c, 13, 67, 94
16, 112872, Note_on_c, 13, 67, 0
16, 112980, Note_on_c, 13, 67, 101
16, 113240, Note_on_c, 13, 67, 0
16, 113300, Note_on_c, 13, 76, 94
16, 114835, Note_on_c, 13, 76, 0
16, 114887, Note_on_c, 13, 74, 76
16, 115142, Note_on_c, 13, 74, 0
16, 115227, Note_on_c, 13, 74, 83
16, 115720, Note_on_c, 13, 72, 81
16, 115742, Note_on_c, 13, 74, 0
16, 116175, Note_on_c, 13, 72, 0
16, 116180, Note_on_c, 13, 69, 76
16, 116807, Note_on_c, 13, 69, 0
16, 116810, Note_on_c, 13, 72, 94
16, 117160, Note_on_c, 13, 67, 78
16, 117177, Note_on_c, 13, 72, 0
16, 117622, Note_on_c, 13, 64, 78
16, 117652, Note_on_c, 13, 67, 0
16, 118090, Note_on_c, 13, 60, 62
16, 118107, Note_on_c, 13, 64, 0
16, 119497, Note_on_c, 13, 60, 0
16, 119530, Note_on_c, 13, 59, 68
16, 120002, Note_on_c, 13, 60, 76
16, 120015, Note_on_c, 13, 59, 0
16, 120507, Note_on_c, 13, 60, 0
16, 120510, Note_on_c, 13, 62, 83
16, 120942, Note_on_c, 13, 62, 0
16, 120970, Note_on_c, 13, 64, 94
16, 121590, Note_on_c, 13, 64, 0
16, 121607, Note_on_c, 13, 69, 94
16, 121942, Note_on_c, 13, 69, 0
16, 121942, Note_on_c, 13, 67, 70
16, 122560, Note_on_c, 13, 64, 81
16, 122567, Note_on_c, 13, 67, 0
16, 122907, Note_on_c, 13, 62, 76
16, 122920, Note_on_c, 13, 64, 0
16, 123367, Note_on_c, 13, 60, 64
16, 123382, Note_on_c, 13, 62, 0
16, 123887, Note_on_c, 13, 57, 81
16, 123912, Note_on_c, 13, 60, 0
16, 124432, Note_on_c, 13, 57, 0
16, 124440, Note_on_c, 13, 59, 85
16, 124787, Note_on_c, 13, 60, 81
16, 124787, Lyric_t, " "
16, 124787, Lyric_t, "\015"
16, 124795, Note_on_c, 13, 59, 0
16, 126872, Note_on_c, 13, 60, 0
16, 126872, End_track
0, 0, End_of_file
