0, 0, Header, 1, 19, 480
1, 0, Start_track
1, 0, SMPTE_offset, 0, 0, 0, 0, 0
1, 0, Tempo, 250000
1, 0, Time_signature, 4, 2, 24, 8
1, 0, Key_signature, 0, "major"
1, 1920, Tempo, 697674
1, 3840, Tempo, 697674
1, 5760, Tempo, 681818
1, 6720, Tempo, 674157
1, 9600, Tempo, 674157
1, 26880, Tempo, 659340
1, 28800, Tempo, 681818
1, 30720, Tempo, 666666
1, 36480, Tempo, 681818
1, 39360, Tempo, 666666
1, 40320, Tempo, 674157
1, 49920, Tempo, 652173
1, 51840, Tempo, 666666
1, 53760, Tempo, 652173
1, 55680, Tempo, 674157
1, 73920, Tempo, 1333333
1, 74880, Tempo, 681818
1, 78720, Tempo, 689655
1, 80640, Tempo, 681818
1, 90240, Tempo, 659340
1, 97920, Tempo, 674157
1, 103680, Tempo, 652173
1, 108480, Tempo, 491803
1, 111360, Tempo, 697674
1, 113280, Tempo, 666666
1, 120960, Tempo, 681818
1, 126720, Tempo, 666666
1, 132480, Tempo, 697674
1, 134400, Tempo, 681818
1, 140160, Tempo, 674157
1, 147840, Tempo, 681818
1, 147840, End_track
2, 0, Start_track
2, 0, Title_t, "Drums C"
2, 0, MIDI_port, 0
2, 0, Channel_prefix, 9
2, 0, Control_c, 9, 7, 89
2, 0, Control_c, 9, 10, 64
2, 0, Program_c, 9, 1
2, 1920, Note_on_c, 9, 59, 80
2, 1920, Note_on_c, 9, 35, 100
2, 2160, Note_off_c, 9, 35, 0
2, 2160, Note_off_c, 9, 59, 0
2, 2400, Note_on_c, 9, 35, 100
2, 2400, Note_on_c, 9, 40, 80
2, 2400, Note_on_c, 9, 59, 80
2, 2640, Note_off_c, 9, 59, 0
2, 2640, Note_off_c, 9, 40, 0
2, 2640, Note_off_c, 9, 35, 0
2, 2880, Note_on_c, 9, 35, 100
2, 2880, Note_on_c, 9, 59, 80
2, 3120, Note_off_c, 9, 59, 0
2, 3120, Note_off_c, 9, 35, 0
2, 3360, Note_on_c, 9, 35, 100
2, 3360, Note_on_c, 9, 40, 80
2, 3360, Note_on_c, 9, 59, 80
2, 3600, Note_off_c, 9, 59, 0
2, 3600, Note_off_c, 9, 40, 0
2, 3600, Note_off_c, 9, 35, 0
2, 3840, Note_on_c, 9, 35, 100
2, 3840, Note_on_c, 9, 59, 80
2, 4080, Note_off_c, 9, 59, 0
2, 4080, Note_off_c, 9, 35, 0
2, 4320, Note_on_c, 9, 35, 100
2, 4320, Note_on_c, 9, 40, 80
2, 4320, Note_on_c, 9, 59, 80
2, 4560, Note_off_c, 9, 59, 0
2, 4560, Note_off_c, 9, 40, 0
2, 4560, Note_off_c, 9, 35, 0
2, 4650, Note_on_c, 9, 35, 100
2, 4770, Note_off_c, 9, 35, 0
2, 4800, Note_on_c, 9, 35, 100
2, 4800, Note_on_c, 9, 59, 80
2, 5040, Note_off_c, 9, 59, 0
2, 5040, Note_off_c, 9, 35, 0
2, 5280, Note_on_c, 9, 35, 100
2, 5280, Note_on_c, 9, 40, 80
2, 5280, Note_on_c, 9, 59, 80
2, 5520, Note_off_c, 9, 59, 0
2, 5520, Note_off_c, 9, 40, 0
2, 5520, Note_off_c, 9, 35, 0
2, 5760, Note_on_c, 9, 59, 80
2, 5760, Note_on_c, 9, 35, 100
2, 6000, Note_off_c, 9, 35, 0
2, 6000, Note_off_c, 9, 59, 0
2, 6240, Note_on_c, 9, 59, 80
2, 6240, Note_on_c, 9, 35, 100
2, 6240, Note_on_c, 9, 40, 80
2, 6480, Note_off_c, 9, 40, 0
2, 6480, Note_off_c, 9, 35, 0
2, 6480, Note_off_c, 9, 59, 0
2, 6720, Note_on_c, 9, 59, 80
2, 6720, Note_on_c, 9, 35, 100
2, 6960, Note_off_c, 9, 35, 0
2, 6960, Note_off_c, 9, 59, 0
2, 7200, Note_on_c, 9, 59, 80
2, 7200, Note_on_c, 9, 35, 100
2, 7200, Note_on_c, 9, 40, 80
2, 7440, Note_off_c, 9, 40, 0
2, 7440, Note_off_c, 9, 35, 0
2, 7440, Note_off_c, 9, 59, 0
2, 7530, Note_on_c, 9, 35, 100
2, 7650, Note_off_c, 9, 35, 0
2, 7680, Note_on_c, 9, 59, 80
2, 7680, Note_on_c, 9, 35, 100
2, 7920, Note_off_c, 9, 35, 0
2, 7920, Note_off_c, 9, 59, 0
2, 8160, Note_on_c, 9, 59, 80
2, 8160, Note_on_c, 9, 35, 100
2, 8160, Note_on_c, 9, 40, 80
2, 8400, Note_off_c, 9, 40, 0
2, 8400, Note_off_c, 9, 35, 0
2, 8400, Note_off_c, 9, 59, 0
2, 8640, Note_on_c, 9, 59, 80
2, 8640, Note_on_c, 9, 35, 100
2, 8880, Note_off_c, 9, 35, 0
2, 8880, Note_off_c, 9, 59, 0
2, 9120, Note_on_c, 9, 59, 80
2, 9120, Note_on_c, 9, 35, 100
2, 9120, Note_on_c, 9, 40, 80
2, 9360, Note_off_c, 9, 40, 0
2, 9360, Note_off_c, 9, 35, 0
2, 9360, Note_off_c, 9, 59, 0
2, 9450, Note_on_c, 9, 35, 100
2, 9570, Note_off_c, 9, 35, 0
2, 9600, Note_on_c, 9, 59, 80
2, 9600, Note_on_c, 9, 35, 100
2, 9840, Note_off_c, 9, 35, 0
2, 9840, Note_off_c, 9, 59, 0
2, 10080, Note_on_c, 9, 59, 80
2, 10080, Note_on_c, 9, 35, 100
2, 10080, Note_on_c, 9, 40, 80
2, 10320, Note_off_c, 9, 40, 0
2, 10320, Note_off_c, 9, 35, 0
2, 10320, Note_off_c, 9, 59, 0
2, 10560, Note_on_c, 9, 59, 80
2, 10560, Note_on_c, 9, 35, 100
2, 10800, Note_off_c, 9, 35, 0
2, 10800, Note_off_c, 9, 59, 0
2, 11040, Note_on_c, 9, 59, 80
2, 11040, Note_on_c, 9, 35, 100
2, 11040, Note_on_c, 9, 40, 80
2, 11280, Note_off_c, 9, 40, 0
2, 11280, Note_off_c, 9, 35, 0
2, 11280, Note_off_c, 9, 59, 0
2, 11370, Note_on_c, 9, 35, 100
2, 11490, Note_off_c, 9, 35, 0
2, 11520, Note_on_c, 9, 59, 80
2, 11520, Note_on_c, 9, 35, 100
2, 11760, Note_off_c, 9, 35, 0
2, 11760, Note_off_c, 9, 59, 0
2, 12000, Note_on_c, 9, 59, 80
2, 12000, Note_on_c, 9, 35, 100
2, 12000, Note_on_c, 9, 40, 80
2, 12240, Note_off_c, 9, 40, 0
2, 12240, Note_off_c, 9, 35, 0
2, 12240, Note_off_c, 9, 59, 0
2, 12480, Note_on_c, 9, 59, 80
2, 12480, Note_on_c, 9, 35, 100
2, 12720, Note_off_c, 9, 35, 0
2, 12720, Note_off_c, 9, 59, 0
2, 12960, Note_on_c, 9, 59, 80
2, 12960, Note_on_c, 9, 35, 100
2, 12960, Note_on_c, 9, 40, 80
2, 13200, Note_off_c, 9, 40, 0
2, 13200, Note_off_c, 9, 35, 0
2, 13200, Note_off_c, 9, 59, 0
2, 13290, Note_on_c, 9, 35, 100
2, 13410, Note_off_c, 9, 35, 0
2, 13440, Note_on_c, 9, 59, 80
2, 13440, Note_on_c, 9, 35, 100
2, 13680, Note_off_c, 9, 35, 0
2, 13680, Note_off_c, 9, 59, 0
2, 13920, Note_on_c, 9, 59, 80
2, 13920, Note_on_c, 9, 35, 100
2, 13920, Note_on_c, 9, 40, 80
2, 14160, Note_off_c, 9, 40, 0
2, 14160, Note_off_c, 9, 35, 0
2, 14160, Note_off_c, 9, 59, 0
2, 14400, Note_on_c, 9, 59, 80
2, 14400, Note_on_c, 9, 35, 100
2, 14640, Note_off_c, 9, 35, 0
2, 14640, Note_off_c, 9, 59, 0
2, 14880, Note_on_c, 9, 59, 80
2, 14880, Note_on_c, 9, 35, 100
2, 14880, Note_on_c, 9, 40, 80
2, 15120, Note_off_c, 9, 40, 0
2, 15120, Note_off_c, 9, 35, 0
2, 15120, Note_off_c, 9, 59, 0
2, 15210, Note_on_c, 9, 35, 100
2, 15330, Note_off_c, 9, 35, 0
2, 15360, Note_on_c, 9, 59, 80
2, 15360, Note_on_c, 9, 35, 100
2, 15600, Note_off_c, 9, 35, 0
2, 15600, Note_off_c, 9, 59, 0
2, 15840, Note_on_c, 9, 59, 80
2, 15840, Note_on_c, 9, 35, 100
2, 15840, Note_on_c, 9, 40, 80
2, 16080, Note_off_c, 9, 40, 0
2, 16080, Note_off_c, 9, 35, 0
2, 16080, Note_off_c, 9, 59, 0
2, 16320, Note_on_c, 9, 59, 80
2, 16320, Note_on_c, 9, 35, 100
2, 16560, Note_off_c, 9, 35, 0
2, 16560, Note_off_c, 9, 59, 0
2, 16800, Note_on_c, 9, 59, 80
2, 16800, Note_on_c, 9, 35, 100
2, 16800, Note_on_c, 9, 40, 80
2, 17040, Note_off_c, 9, 40, 0
2, 17040, Note_off_c, 9, 35, 0
2, 17040, Note_off_c, 9, 59, 0
2, 17130, Note_on_c, 9, 35, 100
2, 17250, Note_off_c, 9, 35, 0
2, 17280, Note_on_c, 9, 59, 80
2, 17280, Note_on_c, 9, 35, 100
2, 17520, Note_off_c, 9, 35, 0
2, 17520, Note_off_c, 9, 59, 0
2, 17760, Note_on_c, 9, 59, 80
2, 17760, Note_on_c, 9, 35, 100
2, 17760, Note_on_c, 9, 40, 80
2, 18000, Note_off_c, 9, 40, 0
2, 18000, Note_off_c, 9, 35, 0
2, 18000, Note_off_c, 9, 59, 0
2, 18240, Note_on_c, 9, 59, 80
2, 18240, Note_on_c, 9, 35, 100
2, 18480, Note_off_c, 9, 35, 0
2, 18480, Note_off_c, 9, 59, 0
2, 18720, Note_on_c, 9, 59, 80
2, 18720, Note_on_c, 9, 35, 100
2, 18720, Note_on_c, 9, 40, 80
2, 18960, Note_off_c, 9, 40, 0
2, 18960, Note_off_c, 9, 35, 0
2, 18960, Note_off_c, 9, 59, 0
2, 19050, Note_on_c, 9, 35, 100
2, 19170, Note_off_c, 9, 35, 0
2, 19200, Note_on_c, 9, 59, 80
2, 19200, Note_on_c, 9, 35, 100
2, 19440, Note_off_c, 9, 35, 0
2, 19440, Note_off_c, 9, 59, 0
2, 19680, Note_on_c, 9, 59, 80
2, 19680, Note_on_c, 9, 35, 100
2, 19680, Note_on_c, 9, 40, 80
2, 19920, Note_off_c, 9, 40, 0
2, 19920, Note_off_c, 9, 35, 0
2, 19920, Note_off_c, 9, 59, 0
2, 20160, Note_on_c, 9, 35, 100
2, 20160, Note_on_c, 9, 59, 80
2, 20160, Note_on_c, 9, 46, 70
2, 20400, Note_off_c, 9, 35, 0
2, 21000, Note_off_c, 9, 59, 0
2, 21120, Note_off_c, 9, 46, 0
2, 21120, Note_on_c, 9, 59, 80
2, 21120, Note_on_c, 9, 35, 100
2, 21360, Note_off_c, 9, 35, 0
2, 21360, Note_off_c, 9, 59, 0
2, 21600, Note_on_c, 9, 59, 80
2, 21600, Note_on_c, 9, 35, 100
2, 21600, Note_on_c, 9, 40, 80
2, 21840, Note_off_c, 9, 40, 0
2, 21840, Note_off_c, 9, 35, 0
2, 21840, Note_off_c, 9, 59, 0
2, 22080, Note_on_c, 9, 59, 80
2, 22080, Note_on_c, 9, 35, 100
2, 22320, Note_off_c, 9, 35, 0
2, 22320, Note_off_c, 9, 59, 0
2, 22560, Note_on_c, 9, 59, 80
2, 22560, Note_on_c, 9, 35, 100
2, 22560, Note_on_c, 9, 40, 80
2, 22800, Note_off_c, 9, 40, 0
2, 22800, Note_off_c, 9, 35, 0
2, 22800, Note_off_c, 9, 59, 0
2, 22890, Note_on_c, 9, 35, 100
2, 23010, Note_off_c, 9, 35, 0
2, 23040, Note_on_c, 9, 59, 80
2, 23040, Note_on_c, 9, 35, 100
2, 23280, Note_off_c, 9, 35, 0
2, 23280, Note_off_c, 9, 59, 0
2, 23520, Note_on_c, 9, 59, 80
2, 23520, Note_on_c, 9, 35, 100
2, 23520, Note_on_c, 9, 40, 80
2, 23760, Note_off_c, 9, 40, 0
2, 23760, Note_off_c, 9, 35, 0
2, 23760, Note_off_c, 9, 59, 0
2, 24000, Note_on_c, 9, 35, 100
2, 24000, Note_on_c, 9, 59, 80
2, 24000, Note_on_c, 9, 46, 70
2, 24240, Note_off_c, 9, 35, 0
2, 24840, Note_off_c, 9, 59, 0
2, 24960, Note_off_c, 9, 46, 0
2, 24960, Note_on_c, 9, 59, 80
2, 24960, Note_on_c, 9, 35, 100
2, 25200, Note_off_c, 9, 35, 0
2, 25200, Note_off_c, 9, 59, 0
2, 25440, Note_on_c, 9, 59, 80
2, 25440, Note_on_c, 9, 35, 100
2, 25440, Note_on_c, 9, 40, 80
2, 25680, Note_off_c, 9, 40, 0
2, 25680, Note_off_c, 9, 35, 0
2, 25680, Note_off_c, 9, 59, 0
2, 25920, Note_on_c, 9, 59, 80
2, 25920, Note_on_c, 9, 35, 100
2, 26160, Note_off_c, 9, 35, 0
2, 26160, Note_off_c, 9, 59, 0
2, 26400, Note_on_c, 9, 59, 80
2, 26400, Note_on_c, 9, 35, 100
2, 26400, Note_on_c, 9, 40, 80
2, 26640, Note_off_c, 9, 40, 0
2, 26640, Note_off_c, 9, 35, 0
2, 26640, Note_off_c, 9, 59, 0
2, 26880, Note_on_c, 9, 59, 80
2, 26880, Note_on_c, 9, 35, 100
2, 27120, Note_off_c, 9, 35, 0
2, 27840, Note_off_c, 9, 59, 0
2, 27840, Note_on_c, 9, 51, 17
2, 27900, Note_on_c, 9, 59, 20
2, 27960, Note_off_c, 9, 51, 0
2, 27960, Note_on_c, 9, 51, 22
2, 28020, Note_off_c, 9, 59, 0
2, 28020, Note_on_c, 9, 59, 25
2, 28080, Note_off_c, 9, 51, 0
2, 28080, Note_on_c, 9, 51, 27
2, 28140, Note_off_c, 9, 59, 0
2, 28140, Note_on_c, 9, 59, 30
2, 28200, Note_off_c, 9, 51, 0
2, 28200, Note_on_c, 9, 51, 31
2, 28260, Note_off_c, 9, 59, 0
2, 28260, Note_on_c, 9, 59, 35
2, 28320, Note_off_c, 9, 51, 0
2, 28320, Note_on_c, 9, 51, 36
2, 28380, Note_off_c, 9, 59, 0
2, 28380, Note_on_c, 9, 59, 40
2, 28440, Note_off_c, 9, 51, 0
2, 28440, Note_on_c, 9, 51, 41
2, 28500, Note_off_c, 9, 59, 0
2, 28500, Note_on_c, 9, 59, 44
2, 28560, Note_off_c, 9, 51, 0
2, 28560, Note_on_c, 9, 51, 46
2, 28620, Note_off_c, 9, 59, 0
2, 28620, Note_on_c, 9, 59, 49
2, 28680, Note_off_c, 9, 51, 0
2, 28680, Note_on_c, 9, 51, 51
2, 28740, Note_off_c, 9, 59, 0
2, 28800, Note_off_c, 9, 51, 0
2, 28800, Note_on_c, 9, 59, 80
2, 28800, Note_on_c, 9, 35, 100
2, 29040, Note_off_c, 9, 35, 0
2, 29040, Note_off_c, 9, 59, 0
2, 29280, Note_on_c, 9, 59, 80
2, 29280, Note_on_c, 9, 35, 100
2, 29280, Note_on_c, 9, 40, 80
2, 29520, Note_off_c, 9, 40, 0
2, 29520, Note_off_c, 9, 35, 0
2, 29520, Note_off_c, 9, 59, 0
2, 29760, Note_on_c, 9, 59, 80
2, 29760, Note_on_c, 9, 35, 100
2, 30000, Note_off_c, 9, 35, 0
2, 30000, Note_off_c, 9, 59, 0
2, 30240, Note_on_c, 9, 59, 80
2, 30240, Note_on_c, 9, 35, 100
2, 30240, Note_on_c, 9, 40, 80
2, 30480, Note_off_c, 9, 40, 0
2, 30480, Note_off_c, 9, 35, 0
2, 30480, Note_off_c, 9, 59, 0
2, 30570, Note_on_c, 9, 35, 100
2, 30690, Note_off_c, 9, 35, 0
2, 30720, Note_on_c, 9, 59, 80
2, 30720, Note_on_c, 9, 35, 100
2, 30960, Note_off_c, 9, 35, 0
2, 30960, Note_off_c, 9, 59, 0
2, 31200, Note_on_c, 9, 59, 80
2, 31200, Note_on_c, 9, 35, 100
2, 31200, Note_on_c, 9, 40, 80
2, 31440, Note_off_c, 9, 40, 0
2, 31440, Note_off_c, 9, 35, 0
2, 31440, Note_off_c, 9, 59, 0
2, 31680, Note_on_c, 9, 59, 80
2, 31680, Note_on_c, 9, 35, 100
2, 31920, Note_off_c, 9, 35, 0
2, 31920, Note_off_c, 9, 59, 0
2, 32160, Note_on_c, 9, 59, 80
2, 32160, Note_on_c, 9, 35, 100
2, 32160, Note_on_c, 9, 40, 80
2, 32400, Note_off_c, 9, 40, 0
2, 32400, Note_off_c, 9, 35, 0
2, 32400, Note_off_c, 9, 59, 0
2, 32490, Note_on_c, 9, 35, 100
2, 32610, Note_off_c, 9, 35, 0
2, 32640, Note_on_c, 9, 59, 80
2, 32640, Note_on_c, 9, 35, 100
2, 32880, Note_off_c, 9, 35, 0
2, 32880, Note_off_c, 9, 59, 0
2, 33120, Note_on_c, 9, 59, 80
2, 33120, Note_on_c, 9, 35, 100
2, 33120, Note_on_c, 9, 40, 80
2, 33360, Note_off_c, 9, 40, 0
2, 33360, Note_off_c, 9, 35, 0
2, 33360, Note_off_c, 9, 59, 0
2, 33600, Note_on_c, 9, 59, 80
2, 33600, Note_on_c, 9, 35, 100
2, 33840, Note_off_c, 9, 35, 0
2, 33840, Note_off_c, 9, 59, 0
2, 34080, Note_on_c, 9, 59, 80
2, 34080, Note_on_c, 9, 35, 100
2, 34080, Note_on_c, 9, 40, 80
2, 34320, Note_off_c, 9, 40, 0
2, 34320, Note_off_c, 9, 35, 0
2, 34320, Note_off_c, 9, 59, 0
2, 34410, Note_on_c, 9, 35, 100
2, 34530, Note_off_c, 9, 35, 0
2, 34560, Note_on_c, 9, 59, 80
2, 34560, Note_on_c, 9, 35, 100
2, 34800, Note_off_c, 9, 35, 0
2, 34800, Note_off_c, 9, 59, 0
2, 35040, Note_on_c, 9, 59, 80
2, 35040, Note_on_c, 9, 35, 100
2, 35040, Note_on_c, 9, 40, 80
2, 35280, Note_off_c, 9, 40, 0
2, 35280, Note_off_c, 9, 35, 0
2, 35280, Note_off_c, 9, 59, 0
2, 35520, Note_on_c, 9, 59, 80
2, 35520, Note_on_c, 9, 35, 100
2, 35760, Note_off_c, 9, 35, 0
2, 35760, Note_off_c, 9, 59, 0
2, 36000, Note_on_c, 9, 59, 80
2, 36000, Note_on_c, 9, 35, 100
2, 36000, Note_on_c, 9, 40, 80
2, 36240, Note_off_c, 9, 40, 0
2, 36240, Note_off_c, 9, 35, 0
2, 36240, Note_off_c, 9, 59, 0
2, 36330, Note_on_c, 9, 35, 100
2, 36450, Note_off_c, 9, 35, 0
2, 36480, Note_on_c, 9, 59, 80
2, 36480, Note_on_c, 9, 35, 100
2, 36720, Note_off_c, 9, 35, 0
2, 36720, Note_off_c, 9, 59, 0
2, 36960, Note_on_c, 9, 59, 80
2, 36960, Note_on_c, 9, 35, 100
2, 36960, Note_on_c, 9, 40, 80
2, 37200, Note_off_c, 9, 40, 0
2, 37200, Note_off_c, 9, 35, 0
2, 37200, Note_off_c, 9, 59, 0
2, 37440, Note_on_c, 9, 59, 80
2, 37440, Note_on_c, 9, 35, 100
2, 37680, Note_off_c, 9, 35, 0
2, 37680, Note_off_c, 9, 59, 0
2, 37920, Note_on_c, 9, 59, 80
2, 37920, Note_on_c, 9, 35, 100
2, 37920, Note_on_c, 9, 40, 80
2, 38160, Note_off_c, 9, 40, 0
2, 38160, Note_off_c, 9, 35, 0
2, 38160, Note_off_c, 9, 59, 0
2, 38250, Note_on_c, 9, 35, 100
2, 38370, Note_off_c, 9, 35, 0
2, 38400, Note_on_c, 9, 59, 80
2, 38400, Note_on_c, 9, 35, 100
2, 38640, Note_off_c, 9, 35, 0
2, 38640, Note_off_c, 9, 59, 0
2, 38880, Note_on_c, 9, 59, 80
2, 38880, Note_on_c, 9, 35, 100
2, 38880, Note_on_c, 9, 40, 80
2, 39120, Note_off_c, 9, 40, 0
2, 39120, Note_off_c, 9, 35, 0
2, 39120, Note_off_c, 9, 59, 0
2, 39360, Note_on_c, 9, 59, 80
2, 39360, Note_on_c, 9, 35, 100
2, 39600, Note_off_c, 9, 35, 0
2, 39600, Note_off_c, 9, 59, 0
2, 39840, Note_on_c, 9, 59, 80
2, 39840, Note_on_c, 9, 35, 100
2, 39840, Note_on_c, 9, 40, 80
2, 40080, Note_off_c, 9, 40, 0
2, 40080, Note_off_c, 9, 35, 0
2, 40080, Note_off_c, 9, 59, 0
2, 40170, Note_on_c, 9, 35, 100
2, 40290, Note_off_c, 9, 35, 0
2, 40320, Note_on_c, 9, 59, 80
2, 40320, Note_on_c, 9, 35, 100
2, 40560, Note_off_c, 9, 35, 0
2, 40560, Note_off_c, 9, 59, 0
2, 40800, Note_on_c, 9, 59, 80
2, 40800, Note_on_c, 9, 35, 100
2, 40800, Note_on_c, 9, 40, 80
2, 41040, Note_off_c, 9, 40, 0
2, 41040, Note_off_c, 9, 35, 0
2, 41040, Note_off_c, 9, 59, 0
2, 41280, Note_on_c, 9, 59, 80
2, 41280, Note_on_c, 9, 35, 100
2, 41520, Note_off_c, 9, 35, 0
2, 41520, Note_off_c, 9, 59, 0
2, 41760, Note_on_c, 9, 59, 80
2, 41760, Note_on_c, 9, 35, 100
2, 41760, Note_on_c, 9, 40, 80
2, 42000, Note_off_c, 9, 40, 0
2, 42000, Note_off_c, 9, 35, 0
2, 42000, Note_off_c, 9, 59, 0
2, 42090, Note_on_c, 9, 35, 100
2, 42210, Note_off_c, 9, 35, 0
2, 42240, Note_on_c, 9, 59, 80
2, 42240, Note_on_c, 9, 35, 100
2, 42480, Note_off_c, 9, 35, 0
2, 42480, Note_off_c, 9, 59, 0
2, 42720, Note_on_c, 9, 59, 80
2, 42720, Note_on_c, 9, 35, 100
2, 42720, Note_on_c, 9, 40, 80
2, 42960, Note_off_c, 9, 40, 0
2, 42960, Note_off_c, 9, 35, 0
2, 42960, Note_off_c, 9, 59, 0
2, 43200, Note_on_c, 9, 59, 80
2, 43200, Note_on_c, 9, 35, 100
2, 43440, Note_off_c, 9, 35, 0
2, 43440, Note_off_c, 9, 59, 0
2, 43680, Note_on_c, 9, 59, 80
2, 43680, Note_on_c, 9, 35, 100
2, 43680, Note_on_c, 9, 40, 80
2, 43920, Note_off_c, 9, 40, 0
2, 43920, Note_off_c, 9, 35, 0
2, 43920, Note_off_c, 9, 59, 0
2, 44010, Note_on_c, 9, 35, 100
2, 44130, Note_off_c, 9, 35, 0
2, 44160, Note_on_c, 9, 59, 80
2, 44160, Note_on_c, 9, 35, 100
2, 44400, Note_off_c, 9, 35, 0
2, 44400, Note_off_c, 9, 59, 0
2, 44640, Note_on_c, 9, 59, 80
2, 44640, Note_on_c, 9, 35, 100
2, 44640, Note_on_c, 9, 40, 80
2, 44880, Note_off_c, 9, 40, 0
2, 44880, Note_off_c, 9, 35, 0
2, 44880, Note_off_c, 9, 59, 0
2, 45120, Note_on_c, 9, 59, 80
2, 45120, Note_on_c, 9, 35, 100
2, 45360, Note_off_c, 9, 35, 0
2, 45360, Note_off_c, 9, 59, 0
2, 45600, Note_on_c, 9, 59, 80
2, 45600, Note_on_c, 9, 35, 100
2, 45600, Note_on_c, 9, 40, 80
2, 45840, Note_off_c, 9, 40, 0
2, 45840, Note_off_c, 9, 35, 0
2, 45840, Note_off_c, 9, 59, 0
2, 45930, Note_on_c, 9, 35, 100
2, 46050, Note_off_c, 9, 35, 0
2, 46080, Note_on_c, 9, 35, 100
2, 46080, Note_on_c, 9, 59, 80
2, 46320, Note_off_c, 9, 59, 0
2, 46320, Note_off_c, 9, 35, 0
2, 46560, Note_on_c, 9, 59, 80
2, 46560, Note_on_c, 9, 35, 100
2, 46560, Note_on_c, 9, 40, 80
2, 46800, Note_off_c, 9, 40, 0
2, 46800, Note_off_c, 9, 35, 0
2, 46800, Note_off_c, 9, 59, 0
2, 46890, Note_on_c, 9, 35, 100
2, 47010, Note_off_c, 9, 35, 0
2, 47040, Note_on_c, 9, 35, 100
2, 47040, Note_on_c, 9, 59, 80
2, 47040, Note_on_c, 9, 46, 80
2, 47280, Note_off_c, 9, 59, 80
2, 47280, Note_off_c, 9, 35, 0
2, 48000, Note_off_c, 9, 46, 80
2, 48000, Note_on_c, 9, 35, 100
2, 48000, Note_on_c, 9, 59, 80
2, 48240, Note_off_c, 9, 59, 0
2, 48240, Note_off_c, 9, 35, 0
2, 48480, Note_on_c, 9, 59, 80
2, 48480, Note_on_c, 9, 35, 100
2, 48480, Note_on_c, 9, 40, 80
2, 48720, Note_off_c, 9, 40, 0
2, 48720, Note_off_c, 9, 35, 0
2, 48720, Note_off_c, 9, 59, 0
2, 48960, Note_on_c, 9, 59, 80
2, 48960, Note_on_c, 9, 35, 100
2, 49200, Note_off_c, 9, 35, 0
2, 49200, Note_off_c, 9, 59, 0
2, 49440, Note_on_c, 9, 59, 80
2, 49440, Note_on_c, 9, 35, 100
2, 49440, Note_on_c, 9, 40, 80
2, 49680, Note_off_c, 9, 40, 0
2, 49680, Note_off_c, 9, 35, 0
2, 49680, Note_off_c, 9, 59, 0
2, 49800, Note_on_c, 9, 35, 100
2, 49920, Note_off_c, 9, 35, 0
2, 49920, Note_on_c, 9, 59, 80
2, 49920, Note_on_c, 9, 35, 100
2, 50160, Note_off_c, 9, 35, 0
2, 50160, Note_off_c, 9, 59, 0
2, 50400, Note_on_c, 9, 59, 80
2, 50400, Note_on_c, 9, 35, 100
2, 50400, Note_on_c, 9, 40, 80
2, 50640, Note_off_c, 9, 40, 0
2, 50640, Note_off_c, 9, 35, 0
2, 50640, Note_off_c, 9, 59, 0
2, 50760, Note_on_c, 9, 35, 100
2, 50880, Note_off_c, 9, 35, 0
2, 50880, Note_on_c, 9, 35, 100
2, 50880, Note_on_c, 9, 59, 80
2, 50880, Note_on_c, 9, 46, 80
2, 51120, Note_off_c, 9, 59, 80
2, 51120, Note_off_c, 9, 35, 0
2, 51840, Note_off_c, 9, 46, 80
2, 51840, Note_on_c, 9, 59, 80
2, 51840, Note_on_c, 9, 35, 100
2, 52080, Note_off_c, 9, 35, 0
2, 52080, Note_off_c, 9, 59, 0
2, 52320, Note_on_c, 9, 59, 80
2, 52320, Note_on_c, 9, 35, 100
2, 52320, Note_on_c, 9, 40, 80
2, 52560, Note_off_c, 9, 40, 0
2, 52560, Note_off_c, 9, 35, 0
2, 52560, Note_off_c, 9, 59, 0
2, 52800, Note_on_c, 9, 59, 80
2, 52800, Note_on_c, 9, 35, 100
2, 53040, Note_off_c, 9, 35, 0
2, 53040, Note_off_c, 9, 59, 0
2, 53280, Note_on_c, 9, 59, 80
2, 53280, Note_on_c, 9, 35, 100
2, 53280, Note_on_c, 9, 40, 80
2, 53520, Note_off_c, 9, 40, 0
2, 53520, Note_off_c, 9, 35, 0
2, 53520, Note_off_c, 9, 59, 0
2, 53640, Note_on_c, 9, 35, 100
2, 53760, Note_off_c, 9, 35, 0
2, 53760, Note_on_c, 9, 59, 80
2, 53760, Note_on_c, 9, 35, 100
2, 53760, Note_on_c, 9, 46, 80
2, 54000, Note_off_c, 9, 35, 0
2, 54720, Note_off_c, 9, 59, 0
2, 54720, Note_off_c, 9, 46, 0
2, 54720, Note_on_c, 9, 51, 12
2, 54780, Note_on_c, 9, 46, 15
2, 54840, Note_off_c, 9, 51, 0
2, 54840, Note_on_c, 9, 51, 17
2, 54900, Note_off_c, 9, 46, 0
2, 54900, Note_on_c, 9, 46, 18
2, 54960, Note_off_c, 9, 51, 0
2, 54960, Note_on_c, 9, 51, 22
2, 55020, Note_off_c, 9, 46, 0
2, 55020, Note_on_c, 9, 46, 23
2, 55080, Note_off_c, 9, 51, 0
2, 55080, Note_on_c, 9, 51, 25
2, 55140, Note_off_c, 9, 46, 0
2, 55140, Note_on_c, 9, 46, 28
2, 55200, Note_off_c, 9, 51, 0
2, 55200, Note_on_c, 9, 51, 30
2, 55260, Note_off_c, 9, 46, 0
2, 55260, Note_on_c, 9, 46, 31
2, 55320, Note_off_c, 9, 51, 0
2, 55320, Note_on_c, 9, 51, 35
2, 55380, Note_off_c, 9, 46, 0
2, 55380, Note_on_c, 9, 46, 36
2, 55440, Note_off_c, 9, 51, 0
2, 55440, Note_on_c, 9, 51, 38
2, 55500, Note_off_c, 9, 46, 0
2, 55500, Note_on_c, 9, 46, 41
2, 55560, Note_off_c, 9, 51, 0
2, 55560, Note_on_c, 9, 51, 43
2, 55620, Note_off_c, 9, 46, 0
2, 55620, Note_on_c, 9, 46, 44
2, 55680, Note_off_c, 9, 51, 0
2, 55680, Note_on_c, 9, 59, 80
2, 55680, Note_on_c, 9, 35, 100
2, 55740, Note_off_c, 9, 46, 0
2, 55920, Note_off_c, 9, 59, 0
2, 55920, Note_off_c, 9, 35, 0
2, 56160, Note_on_c, 9, 59, 80
2, 56160, Note_on_c, 9, 35, 100
2, 56160, Note_on_c, 9, 40, 80
2, 56400, Note_off_c, 9, 40, 0
2, 56400, Note_off_c, 9, 35, 0
2, 56400, Note_off_c, 9, 59, 0
2, 56640, Note_on_c, 9, 59, 80
2, 56640, Note_on_c, 9, 35, 100
2, 56880, Note_off_c, 9, 35, 0
2, 56880, Note_off_c, 9, 59, 0
2, 57120, Note_on_c, 9, 59, 80
2, 57120, Note_on_c, 9, 35, 100
2, 57120, Note_on_c, 9, 40, 80
2, 57360, Note_off_c, 9, 40, 0
2, 57360, Note_off_c, 9, 35, 0
2, 57360, Note_off_c, 9, 59, 0
2, 57600, Note_on_c, 9, 59, 80
2, 57600, Note_on_c, 9, 35, 100
2, 57840, Note_off_c, 9, 35, 0
2, 57840, Note_off_c, 9, 59, 0
2, 58080, Note_on_c, 9, 59, 80
2, 58080, Note_on_c, 9, 35, 100
2, 58080, Note_on_c, 9, 40, 80
2, 58320, Note_off_c, 9, 40, 0
2, 58320, Note_off_c, 9, 35, 0
2, 58320, Note_off_c, 9, 59, 0
2, 58560, Note_on_c, 9, 59, 80
2, 58560, Note_on_c, 9, 35, 100
2, 58800, Note_off_c, 9, 35, 0
2, 58800, Note_off_c, 9, 59, 0
2, 59040, Note_on_c, 9, 59, 80
2, 59040, Note_on_c, 9, 35, 100
2, 59040, Note_on_c, 9, 40, 80
2, 59280, Note_off_c, 9, 40, 0
2, 59280, Note_off_c, 9, 35, 0
2, 59280, Note_off_c, 9, 59, 0
2, 59520, Note_on_c, 9, 35, 100
2, 59520, Note_on_c, 9, 59, 80
2, 59760, Note_off_c, 9, 59, 0
2, 59760, Note_off_c, 9, 35, 0
2, 60000, Note_on_c, 9, 59, 80
2, 60000, Note_on_c, 9, 35, 100
2, 60000, Note_on_c, 9, 40, 80
2, 60240, Note_off_c, 9, 40, 0
2, 60240, Note_off_c, 9, 35, 0
2, 60240, Note_off_c, 9, 59, 0
2, 60480, Note_on_c, 9, 59, 80
2, 60480, Note_on_c, 9, 35, 100
2, 60720, Note_off_c, 9, 35, 0
2, 60720, Note_off_c, 9, 59, 0
2, 60960, Note_on_c, 9, 59, 80
2, 60960, Note_on_c, 9, 35, 100
2, 60960, Note_on_c, 9, 40, 80
2, 61200, Note_off_c, 9, 40, 0
2, 61200, Note_off_c, 9, 35, 0
2, 61200, Note_off_c, 9, 59, 0
2, 61440, Note_on_c, 9, 59, 80
2, 61440, Note_on_c, 9, 35, 100
2, 61680, Note_off_c, 9, 35, 0
2, 61680, Note_off_c, 9, 59, 0
2, 61920, Note_on_c, 9, 59, 80
2, 61920, Note_on_c, 9, 35, 100
2, 61920, Note_on_c, 9, 40, 80
2, 62160, Note_off_c, 9, 40, 0
2, 62160, Note_off_c, 9, 35, 0
2, 62160, Note_off_c, 9, 59, 0
2, 62400, Note_on_c, 9, 59, 80
2, 62400, Note_on_c, 9, 35, 100
2, 62640, Note_off_c, 9, 35, 0
2, 62640, Note_off_c, 9, 59, 0
2, 62880, Note_on_c, 9, 59, 80
2, 62880, Note_on_c, 9, 35, 100
2, 62880, Note_on_c, 9, 40, 80
2, 63120, Note_off_c, 9, 40, 0
2, 63120, Note_off_c, 9, 35, 0
2, 63120, Note_off_c, 9, 59, 0
2, 63180, Note_on_c, 9, 35, 100
2, 63298, Note_off_c, 9, 35, 0
2, 63360, Note_on_c, 9, 35, 100
2, 63360, Note_on_c, 9, 59, 80
2, 63360, Note_on_c, 9, 46, 70
2, 63360, Note_on_c, 9, 49, 50
2, 63600, Note_off_c, 9, 49, 0
2, 63600, Note_off_c, 9, 46, 0
2, 63600, Note_off_c, 9, 59, 0
2, 63600, Note_off_c, 9, 35, 0
2, 63840, Note_on_c, 9, 59, 80
2, 63840, Note_on_c, 9, 35, 100
2, 63840, Note_on_c, 9, 40, 80
2, 63840, Note_on_c, 9, 46, 70
2, 64080, Note_off_c, 9, 46, 0
2, 64080, Note_off_c, 9, 40, 0
2, 64080, Note_off_c, 9, 35, 0
2, 64080, Note_off_c, 9, 59, 0
2, 64320, Note_on_c, 9, 59, 80
2, 64320, Note_on_c, 9, 35, 100
2, 64320, Note_on_c, 9, 46, 70
2, 64560, Note_off_c, 9, 46, 0
2, 64560, Note_off_c, 9, 35, 0
2, 64560, Note_off_c, 9, 59, 0
2, 64800, Note_on_c, 9, 59, 80
2, 64800, Note_on_c, 9, 35, 100
2, 64800, Note_on_c, 9, 40, 80
2, 64800, Note_on_c, 9, 46, 70
2, 65040, Note_off_c, 9, 46, 0
2, 65040, Note_off_c, 9, 40, 0
2, 65040, Note_off_c, 9, 35, 0
2, 65040, Note_off_c, 9, 59, 0
2, 65280, Note_on_c, 9, 59, 80
2, 65280, Note_on_c, 9, 35, 100
2, 65280, Note_on_c, 9, 46, 70
2, 65520, Note_off_c, 9, 46, 0
2, 65520, Note_off_c, 9, 35, 0
2, 65520, Note_off_c, 9, 59, 0
2, 65760, Note_on_c, 9, 59, 80
2, 65760, Note_on_c, 9, 35, 100
2, 65760, Note_on_c, 9, 40, 80
2, 65760, Note_on_c, 9, 46, 70
2, 66000, Note_off_c, 9, 46, 0
2, 66000, Note_off_c, 9, 40, 0
2, 66000, Note_off_c, 9, 35, 0
2, 66000, Note_off_c, 9, 59, 0
2, 66240, Note_on_c, 9, 59, 80
2, 66240, Note_on_c, 9, 35, 100
2, 66240, Note_on_c, 9, 46, 70
2, 66480, Note_off_c, 9, 46, 0
2, 66480, Note_off_c, 9, 35, 0
2, 66480, Note_off_c, 9, 59, 0
2, 66720, Note_on_c, 9, 59, 80
2, 66720, Note_on_c, 9, 35, 100
2, 66720, Note_on_c, 9, 40, 80
2, 66720, Note_on_c, 9, 46, 70
2, 66960, Note_off_c, 9, 46, 0
2, 66960, Note_off_c, 9, 40, 0
2, 66960, Note_off_c, 9, 35, 0
2, 66960, Note_off_c, 9, 59, 0
2, 67020, Note_on_c, 9, 35, 100
2, 67138, Note_off_c, 9, 35, 0
2, 67200, Note_on_c, 9, 46, 70
2, 67200, Note_on_c, 9, 35, 100
2, 67200, Note_on_c, 9, 59, 80
2, 67440, Note_off_c, 9, 59, 0
2, 67440, Note_off_c, 9, 35, 0
2, 67440, Note_off_c, 9, 46, 0
2, 67680, Note_on_c, 9, 59, 80
2, 67680, Note_on_c, 9, 35, 100
2, 67680, Note_on_c, 9, 40, 80
2, 67680, Note_on_c, 9, 46, 70
2, 67920, Note_off_c, 9, 46, 0
2, 67920, Note_off_c, 9, 40, 0
2, 67920, Note_off_c, 9, 35, 0
2, 67920, Note_off_c, 9, 59, 0
2, 68160, Note_on_c, 9, 59, 80
2, 68160, Note_on_c, 9, 35, 100
2, 68160, Note_on_c, 9, 46, 70
2, 68400, Note_off_c, 9, 46, 0
2, 68400, Note_off_c, 9, 35, 0
2, 68400, Note_off_c, 9, 59, 0
2, 68640, Note_on_c, 9, 59, 80
2, 68640, Note_on_c, 9, 35, 100
2, 68640, Note_on_c, 9, 40, 80
2, 68640, Note_on_c, 9, 46, 70
2, 68880, Note_off_c, 9, 46, 0
2, 68880, Note_off_c, 9, 40, 0
2, 68880, Note_off_c, 9, 35, 0
2, 68880, Note_off_c, 9, 59, 0
2, 69120, Note_on_c, 9, 59, 80
2, 69120, Note_on_c, 9, 35, 100
2, 69120, Note_on_c, 9, 46, 60
2, 69360, Note_off_c, 9, 46, 0
2, 69360, Note_off_c, 9, 35, 0
2, 69360, Note_off_c, 9, 59, 0
2, 69600, Note_on_c, 9, 59, 80
2, 69600, Note_on_c, 9, 35, 100
2, 69600, Note_on_c, 9, 40, 80
2, 69600, Note_on_c, 9, 46, 70
2, 69840, Note_off_c, 9, 46, 0
2, 69840, Note_off_c, 9, 40, 0
2, 69840, Note_off_c, 9, 35, 0
2, 69840, Note_off_c, 9, 59, 0
2, 69900, Note_on_c, 9, 35, 100
2, 70018, Note_off_c, 9, 35, 0
2, 70080, Note_on_c, 9, 59, 80
2, 70080, Note_on_c, 9, 35, 100
2, 70080, Note_on_c, 9, 46, 70
2, 70320, Note_off_c, 9, 46, 0
2, 70320, Note_off_c, 9, 35, 0
2, 70320, Note_off_c, 9, 59, 0
2, 70560, Note_on_c, 9, 59, 80
2, 70560, Note_on_c, 9, 35, 100
2, 70560, Note_on_c, 9, 40, 80
2, 70560, Note_on_c, 9, 46, 70
2, 70800, Note_off_c, 9, 46, 0
2, 70800, Note_off_c, 9, 40, 0
2, 70800, Note_off_c, 9, 35, 0
2, 70800, Note_off_c, 9, 59, 0
2, 71040, Note_on_c, 9, 35, 100
2, 71040, Note_on_c, 9, 59, 80
2, 71040, Note_on_c, 9, 46, 60
2, 71280, Note_off_c, 9, 46, 0
2, 71280, Note_off_c, 9, 59, 0
2, 71280, Note_off_c, 9, 35, 0
2, 71520, Note_on_c, 9, 59, 80
2, 71520, Note_on_c, 9, 35, 100
2, 71520, Note_on_c, 9, 40, 80
2, 71520, Note_on_c, 9, 46, 60
2, 71760, Note_off_c, 9, 46, 0
2, 71760, Note_off_c, 9, 40, 0
2, 71760, Note_off_c, 9, 35, 0
2, 71760, Note_off_c, 9, 59, 0
2, 72000, Note_on_c, 9, 59, 80
2, 72000, Note_on_c, 9, 35, 100
2, 72000, Note_on_c, 9, 46, 60
2, 72240, Note_off_c, 9, 46, 0
2, 72240, Note_off_c, 9, 35, 0
2, 72240, Note_off_c, 9, 59, 0
2, 72480, Note_on_c, 9, 59, 80
2, 72480, Note_on_c, 9, 35, 100
2, 72480, Note_on_c, 9, 40, 80
2, 72720, Note_off_c, 9, 40, 0
2, 72720, Note_off_c, 9, 35, 0
2, 72720, Note_off_c, 9, 59, 0
2, 72960, Note_on_c, 9, 59, 80
2, 72960, Note_on_c, 9, 35, 100
2, 72960, Note_on_c, 9, 46, 60
2, 73200, Note_off_c, 9, 46, 0
2, 73200, Note_off_c, 9, 35, 0
2, 73200, Note_off_c, 9, 59, 0
2, 73260, Note_on_c, 9, 38, 80
2, 73440, Note_on_c, 9, 35, 100
2, 73440, Note_on_c, 9, 59, 80
2, 73440, Note_on_c, 9, 46, 60
2, 73500, Note_off_c, 9, 38, 0
2, 73680, Note_off_c, 9, 35, 0
2, 73680, Note_off_c, 9, 59, 0
2, 73680, Note_off_c, 9, 46, 0
2, 73740, Note_on_c, 9, 40, 100
2, 73920, Note_on_c, 9, 59, 80
2, 73920, Note_on_c, 9, 35, 80
2, 73920, Note_on_c, 9, 46, 60
2, 73980, Note_off_c, 9, 40, 0
2, 74155, Note_off_c, 9, 46, 0
2, 74160, Note_off_c, 9, 59, 0
2, 74160, Note_off_c, 9, 35, 0
2, 74400, Note_on_c, 9, 46, 15
2, 74430, Note_off_c, 9, 46, 0
2, 74430, Note_on_c, 9, 51, 18
2, 74460, Note_off_c, 9, 51, 0
2, 74460, Note_on_c, 9, 46, 22
2, 74490, Note_off_c, 9, 46, 0
2, 74490, Note_on_c, 9, 51, 25
2, 74520, Note_off_c, 9, 51, 0
2, 74520, Note_on_c, 9, 46, 28
2, 74550, Note_off_c, 9, 46, 0
2, 74550, Note_on_c, 9, 51, 33
2, 74580, Note_off_c, 9, 51, 0
2, 74580, Note_on_c, 9, 46, 36
2, 74610, Note_off_c, 9, 46, 0
2, 74610, Note_on_c, 9, 51, 40
2, 74640, Note_off_c, 9, 51, 0
2, 74640, Note_on_c, 9, 46, 43
2, 74670, Note_off_c, 9, 46, 0
2, 74670, Note_on_c, 9, 51, 46
2, 74700, Note_off_c, 9, 51, 0
2, 74700, Note_on_c, 9, 46, 49
2, 74730, Note_off_c, 9, 46, 0
2, 74730, Note_on_c, 9, 51, 53
2, 74760, Note_off_c, 9, 51, 0
2, 74760, Note_on_c, 9, 46, 57
2, 74790, Note_off_c, 9, 46, 0
2, 74790, Note_on_c, 9, 51, 61
2, 74820, Note_off_c, 9, 51, 0
2, 74820, Note_on_c, 9, 46, 64
2, 74850, Note_off_c, 9, 46, 0
2, 74850, Note_on_c, 9, 51, 67
2, 74880, Note_off_c, 9, 51, 0
2, 74880, Note_on_c, 9, 59, 80
2, 74880, Note_on_c, 9, 35, 100
2, 75120, Note_off_c, 9, 35, 0
2, 75120, Note_off_c, 9, 59, 0
2, 75360, Note_on_c, 9, 59, 80
2, 75360, Note_on_c, 9, 35, 100
2, 75360, Note_on_c, 9, 40, 80
2, 75600, Note_off_c, 9, 40, 0
2, 75600, Note_off_c, 9, 35, 0
2, 75600, Note_off_c, 9, 59, 0
2, 75840, Note_on_c, 9, 59, 80
2, 75840, Note_on_c, 9, 35, 100
2, 76080, Note_off_c, 9, 35, 0
2, 76080, Note_off_c, 9, 59, 0
2, 76320, Note_on_c, 9, 59, 80
2, 76320, Note_on_c, 9, 35, 100
2, 76320, Note_on_c, 9, 40, 80
2, 76560, Note_off_c, 9, 40, 0
2, 76560, Note_off_c, 9, 35, 0
2, 76560, Note_off_c, 9, 59, 0
2, 76800, Note_on_c, 9, 40, 80
2, 76800, Note_on_c, 9, 35, 100
2, 76800, Note_on_c, 9, 59, 80
2, 77040, Note_off_c, 9, 35, 0
2, 77040, Note_off_c, 9, 40, 0
2, 77216, Note_off_c, 9, 59, 0
2, 77280, Note_on_c, 9, 46, 5
2, 77310, Note_off_c, 9, 46, 0
2, 77340, Note_on_c, 9, 46, 7
2, 77370, Note_off_c, 9, 46, 0
2, 77400, Note_on_c, 9, 46, 9
2, 77430, Note_off_c, 9, 46, 0
2, 77460, Note_on_c, 9, 46, 10
2, 77490, Note_off_c, 9, 46, 0
2, 77520, Note_on_c, 9, 46, 12
2, 77550, Note_off_c, 9, 46, 0
2, 77580, Note_on_c, 9, 46, 14
2, 77610, Note_off_c, 9, 46, 0
2, 77640, Note_on_c, 9, 46, 15
2, 77670, Note_off_c, 9, 46, 0
2, 77700, Note_on_c, 9, 46, 17
2, 77730, Note_off_c, 9, 46, 0
2, 77760, Note_on_c, 9, 46, 17
2, 77790, Note_off_c, 9, 46, 0
2, 77820, Note_on_c, 9, 46, 18
2, 77850, Note_off_c, 9, 46, 0
2, 77880, Note_on_c, 9, 46, 20
2, 77910, Note_off_c, 9, 46, 0
2, 77940, Note_on_c, 9, 46, 22
2, 77970, Note_off_c, 9, 46, 0
2, 78000, Note_on_c, 9, 46, 23
2, 78030, Note_off_c, 9, 46, 0
2, 78060, Note_on_c, 9, 46, 25
2, 78090, Note_off_c, 9, 46, 0
2, 78120, Note_on_c, 9, 46, 27
2, 78150, Note_off_c, 9, 46, 0
2, 78180, Note_on_c, 9, 46, 28
2, 78210, Note_off_c, 9, 46, 0
2, 78240, Note_on_c, 9, 46, 30
2, 78270, Note_off_c, 9, 46, 0
2, 78300, Note_on_c, 9, 46, 31
2, 78330, Note_off_c, 9, 46, 0
2, 78360, Note_on_c, 9, 46, 33
2, 78390, Note_off_c, 9, 46, 0
2, 78420, Note_on_c, 9, 46, 35
2, 78450, Note_off_c, 9, 46, 0
2, 78480, Note_on_c, 9, 46, 35
2, 78510, Note_off_c, 9, 46, 0
2, 78540, Note_on_c, 9, 46, 36
2, 78570, Note_off_c, 9, 46, 0
2, 78600, Note_on_c, 9, 46, 38
2, 78630, Note_off_c, 9, 46, 0
2, 78660, Note_on_c, 9, 46, 40
2, 78690, Note_off_c, 9, 46, 0
2, 78720, Note_on_c, 9, 59, 80
2, 78720, Note_on_c, 9, 35, 100
2, 78960, Note_off_c, 9, 35, 0
2, 78960, Note_off_c, 9, 59, 0
2, 79200, Note_on_c, 9, 59, 80
2, 79200, Note_on_c, 9, 35, 100
2, 79200, Note_on_c, 9, 40, 80
2, 79440, Note_off_c, 9, 40, 0
2, 79440, Note_off_c, 9, 35, 0
2, 79440, Note_off_c, 9, 59, 0
2, 79680, Note_on_c, 9, 59, 80
2, 79680, Note_on_c, 9, 35, 100
2, 79920, Note_off_c, 9, 35, 0
2, 79920, Note_off_c, 9, 59, 0
2, 80160, Note_on_c, 9, 59, 80
2, 80160, Note_on_c, 9, 35, 100
2, 80160, Note_on_c, 9, 40, 80
2, 80400, Note_off_c, 9, 40, 0
2, 80400, Note_off_c, 9, 35, 0
2, 80400, Note_off_c, 9, 59, 0
2, 80640, Note_on_c, 9, 35, 100
2, 80640, Note_on_c, 9, 59, 80
2, 80880, Note_off_c, 9, 59, 0
2, 80880, Note_off_c, 9, 35, 0
2, 81120, Note_on_c, 9, 59, 80
2, 81120, Note_on_c, 9, 35, 100
2, 81120, Note_on_c, 9, 40, 80
2, 81360, Note_off_c, 9, 40, 0
2, 81360, Note_off_c, 9, 35, 0
2, 81360, Note_off_c, 9, 59, 0
2, 81420, Note_on_c, 9, 35, 100
2, 81538, Note_off_c, 9, 35, 0
2, 81600, Note_on_c, 9, 59, 80
2, 81600, Note_on_c, 9, 35, 100
2, 81840, Note_off_c, 9, 35, 0
2, 81840, Note_off_c, 9, 59, 0
2, 82080, Note_on_c, 9, 59, 80
2, 82080, Note_on_c, 9, 35, 100
2, 82080, Note_on_c, 9, 40, 80
2, 82320, Note_off_c, 9, 40, 0
2, 82320, Note_off_c, 9, 35, 0
2, 82320, Note_off_c, 9, 59, 0
2, 82560, Note_on_c, 9, 35, 100
2, 82560, Note_on_c, 9, 59, 80
2, 82800, Note_off_c, 9, 59, 0
2, 82800, Note_off_c, 9, 35, 0
2, 83040, Note_on_c, 9, 59, 80
2, 83040, Note_on_c, 9, 35, 100
2, 83040, Note_on_c, 9, 40, 80
2, 83280, Note_off_c, 9, 40, 0
2, 83280, Note_off_c, 9, 35, 0
2, 83280, Note_off_c, 9, 59, 0
2, 83520, Note_on_c, 9, 59, 80
2, 83520, Note_on_c, 9, 35, 100
2, 83760, Note_off_c, 9, 35, 0
2, 83760, Note_off_c, 9, 59, 0
2, 84000, Note_on_c, 9, 59, 80
2, 84000, Note_on_c, 9, 35, 100
2, 84000, Note_on_c, 9, 40, 80
2, 84240, Note_off_c, 9, 40, 0
2, 84240, Note_off_c, 9, 35, 0
2, 84240, Note_off_c, 9, 59, 0
2, 84480, Note_on_c, 9, 35, 100
2, 84480, Note_on_c, 9, 59, 80
2, 84720, Note_off_c, 9, 59, 0
2, 84720, Note_off_c, 9, 35, 0
2, 84960, Note_on_c, 9, 59, 80
2, 84960, Note_on_c, 9, 35, 100
2, 84960, Note_on_c, 9, 40, 80
2, 85200, Note_off_c, 9, 40, 0
2, 85200, Note_off_c, 9, 35, 0
2, 85200, Note_off_c, 9, 59, 0
2, 85260, Note_on_c, 9, 35, 100
2, 85378, Note_off_c, 9, 35, 0
2, 85440, Note_on_c, 9, 59, 80
2, 85440, Note_on_c, 9, 35, 100
2, 85680, Note_off_c, 9, 35, 0
2, 85680, Note_off_c, 9, 59, 0
2, 85920, Note_on_c, 9, 59, 80
2, 85920, Note_on_c, 9, 35, 100
2, 85920, Note_on_c, 9, 40, 80
2, 86160, Note_off_c, 9, 40, 0
2, 86160, Note_off_c, 9, 35, 0
2, 86160, Note_off_c, 9, 59, 0
2, 86400, Note_on_c, 9, 35, 100
2, 86400, Note_on_c, 9, 59, 80
2, 86400, Note_on_c, 9, 51, 100
2, 86400, Note_on_c, 9, 46, 100
2, 86640, Note_off_c, 9, 46, 0
2, 86640, Note_off_c, 9, 51, 0
2, 86640, Note_off_c, 9, 59, 0
2, 86640, Note_off_c, 9, 35, 0
2, 86880, Note_on_c, 9, 59, 80
2, 86880, Note_on_c, 9, 35, 100
2, 86880, Note_on_c, 9, 40, 80
2, 87120, Note_off_c, 9, 40, 0
2, 87120, Note_off_c, 9, 35, 0
2, 87120, Note_off_c, 9, 59, 0
2, 87360, Note_on_c, 9, 59, 80
2, 87360, Note_on_c, 9, 35, 100
2, 87600, Note_off_c, 9, 35, 0
2, 87600, Note_off_c, 9, 59, 0
2, 87840, Note_on_c, 9, 59, 80
2, 87840, Note_on_c, 9, 35, 100
2, 87840, Note_on_c, 9, 40, 80
2, 88080, Note_off_c, 9, 40, 0
2, 88080, Note_off_c, 9, 35, 0
2, 88080, Note_off_c, 9, 59, 0
2, 88320, Note_on_c, 9, 35, 100
2, 88320, Note_on_c, 9, 59, 80
2, 88560, Note_off_c, 9, 59, 0
2, 88560, Note_off_c, 9, 35, 0
2, 88800, Note_on_c, 9, 59, 80
2, 88800, Note_on_c, 9, 35, 100
2, 88800, Note_on_c, 9, 40, 80
2, 89040, Note_off_c, 9, 40, 0
2, 89040, Note_off_c, 9, 35, 0
2, 89040, Note_off_c, 9, 59, 0
2, 89100, Note_on_c, 9, 35, 100
2, 89218, Note_off_c, 9, 35, 0
2, 89280, Note_on_c, 9, 59, 80
2, 89280, Note_on_c, 9, 35, 100
2, 89520, Note_off_c, 9, 35, 0
2, 89520, Note_off_c, 9, 59, 0
2, 89760, Note_on_c, 9, 59, 80
2, 89760, Note_on_c, 9, 35, 100
2, 89760, Note_on_c, 9, 40, 80
2, 90000, Note_off_c, 9, 40, 0
2, 90000, Note_off_c, 9, 35, 0
2, 90000, Note_off_c, 9, 59, 0
2, 90240, Note_on_c, 9, 35, 100
2, 90240, Note_on_c, 9, 59, 80
2, 90480, Note_off_c, 9, 59, 0
2, 90480, Note_off_c, 9, 35, 0
2, 90720, Note_on_c, 9, 59, 80
2, 90720, Note_on_c, 9, 35, 100
2, 90720, Note_on_c, 9, 40, 80
2, 90960, Note_off_c, 9, 40, 0
2, 90960, Note_off_c, 9, 35, 0
2, 90960, Note_off_c, 9, 59, 0
2, 91200, Note_on_c, 9, 59, 80
2, 91200, Note_on_c, 9, 35, 100
2, 91440, Note_off_c, 9, 35, 0
2, 91440, Note_off_c, 9, 59, 0
2, 91680, Note_on_c, 9, 59, 80
2, 91680, Note_on_c, 9, 35, 100
2, 91680, Note_on_c, 9, 40, 80
2, 91920, Note_off_c, 9, 40, 0
2, 91920, Note_off_c, 9, 35, 0
2, 91920, Note_off_c, 9, 59, 0
2, 91980, Note_on_c, 9, 35, 100
2, 92098, Note_off_c, 9, 35, 0
2, 92160, Note_on_c, 9, 35, 100
2, 92160, Note_on_c, 9, 59, 80
2, 92400, Note_off_c, 9, 59, 0
2, 92400, Note_off_c, 9, 35, 0
2, 92640, Note_on_c, 9, 59, 80
2, 92640, Note_on_c, 9, 35, 100
2, 92640, Note_on_c, 9, 40, 80
2, 92880, Note_off_c, 9, 40, 0
2, 92880, Note_off_c, 9, 35, 0
2, 92880, Note_off_c, 9, 59, 0
2, 93120, Note_on_c, 9, 59, 80
2, 93120, Note_on_c, 9, 35, 100
2, 93360, Note_off_c, 9, 35, 0
2, 93360, Note_off_c, 9, 59, 0
2, 93600, Note_on_c, 9, 59, 80
2, 93600, Note_on_c, 9, 35, 100
2, 93600, Note_on_c, 9, 40, 80
2, 93840, Note_off_c, 9, 40, 0
2, 93840, Note_off_c, 9, 35, 0
2, 93840, Note_off_c, 9, 59, 0
2, 93900, Note_on_c, 9, 35, 100
2, 94018, Note_off_c, 9, 35, 0
2, 94080, Note_on_c, 9, 59, 80
2, 94080, Note_on_c, 9, 35, 100
2, 94320, Note_off_c, 9, 35, 0
2, 94320, Note_off_c, 9, 59, 0
2, 94560, Note_on_c, 9, 59, 80
2, 94560, Note_on_c, 9, 35, 100
2, 94560, Note_on_c, 9, 40, 80
2, 94800, Note_off_c, 9, 40, 0
2, 94800, Note_off_c, 9, 35, 0
2, 94800, Note_off_c, 9, 59, 0
2, 95040, Note_on_c, 9, 59, 80
2, 95040, Note_on_c, 9, 35, 100
2, 95280, Note_off_c, 9, 35, 0
2, 95280, Note_off_c, 9, 59, 0
2, 95520, Note_on_c, 9, 59, 80
2, 95520, Note_on_c, 9, 35, 100
2, 95520, Note_on_c, 9, 40, 80
2, 95760, Note_off_c, 9, 40, 0
2, 95760, Note_off_c, 9, 35, 0
2, 95760, Note_off_c, 9, 59, 0
2, 96000, Note_on_c, 9, 35, 100
2, 96000, Note_on_c, 9, 59, 80
2, 96240, Note_off_c, 9, 59, 0
2, 96240, Note_off_c, 9, 35, 0
2, 96480, Note_on_c, 9, 59, 80
2, 96480, Note_on_c, 9, 35, 100
2, 96480, Note_on_c, 9, 40, 80
2, 96720, Note_off_c, 9, 40, 0
2, 96720, Note_off_c, 9, 35, 0
2, 96720, Note_off_c, 9, 59, 0
2, 96780, Note_on_c, 9, 35, 100
2, 96898, Note_off_c, 9, 35, 0
2, 96960, Note_on_c, 9, 59, 80
2, 96960, Note_on_c, 9, 35, 100
2, 97200, Note_off_c, 9, 35, 0
2, 97200, Note_off_c, 9, 59, 0
2, 97440, Note_on_c, 9, 59, 80
2, 97440, Note_on_c, 9, 35, 100
2, 97440, Note_on_c, 9, 40, 80
2, 97680, Note_off_c, 9, 40, 0
2, 97680, Note_off_c, 9, 35, 0
2, 97680, Note_off_c, 9, 59, 0
2, 97920, Note_on_c, 9, 59, 80
2, 97920, Note_on_c, 9, 35, 100
2, 98160, Note_off_c, 9, 35, 0
2, 98160, Note_off_c, 9, 59, 0
2, 98400, Note_on_c, 9, 59, 80
2, 98400, Note_on_c, 9, 35, 100
2, 98400, Note_on_c, 9, 40, 80
2, 98640, Note_off_c, 9, 40, 0
2, 98640, Note_off_c, 9, 35, 0
2, 98640, Note_off_c, 9, 59, 0
2, 98880, Note_on_c, 9, 59, 80
2, 98880, Note_on_c, 9, 35, 100
2, 99120, Note_off_c, 9, 35, 0
2, 99120, Note_off_c, 9, 59, 0
2, 99360, Note_on_c, 9, 59, 80
2, 99360, Note_on_c, 9, 35, 100
2, 99360, Note_on_c, 9, 40, 80
2, 99600, Note_off_c, 9, 40, 0
2, 99600, Note_off_c, 9, 35, 0
2, 99600, Note_off_c, 9, 59, 0
2, 99840, Note_on_c, 9, 35, 100
2, 99840, Note_on_c, 9, 59, 80
2, 100080, Note_off_c, 9, 59, 0
2, 100080, Note_off_c, 9, 35, 0
2, 100320, Note_on_c, 9, 59, 80
2, 100320, Note_on_c, 9, 35, 100
2, 100320, Note_on_c, 9, 40, 80
2, 100560, Note_off_c, 9, 40, 0
2, 100560, Note_off_c, 9, 35, 0
2, 100560, Note_off_c, 9, 59, 0
2, 100620, Note_on_c, 9, 35, 100
2, 100738, Note_off_c, 9, 35, 0
2, 100800, Note_on_c, 9, 59, 80
2, 100800, Note_on_c, 9, 35, 100
2, 101040, Note_off_c, 9, 35, 0
2, 101040, Note_off_c, 9, 59, 0
2, 101280, Note_on_c, 9, 59, 80
2, 101280, Note_on_c, 9, 35, 100
2, 101280, Note_on_c, 9, 40, 60
2, 101520, Note_off_c, 9, 40, 0
2, 101520, Note_off_c, 9, 35, 0
2, 101520, Note_off_c, 9, 59, 0
2, 101760, Note_on_c, 9, 35, 100
2, 101760, Note_on_c, 9, 59, 80
2, 102000, Note_off_c, 9, 59, 0
2, 102000, Note_off_c, 9, 35, 0
2, 102240, Note_on_c, 9, 59, 80
2, 102240, Note_on_c, 9, 35, 100
2, 102240, Note_on_c, 9, 40, 80
2, 102480, Note_off_c, 9, 40, 0
2, 102480, Note_off_c, 9, 35, 0
2, 102480, Note_off_c, 9, 59, 0
2, 102540, Note_on_c, 9, 35, 100
2, 102658, Note_off_c, 9, 35, 0
2, 102720, Note_on_c, 9, 59, 80
2, 102720, Note_on_c, 9, 35, 100
2, 102960, Note_off_c, 9, 35, 0
2, 102960, Note_off_c, 9, 59, 0
2, 103200, Note_on_c, 9, 59, 80
2, 103200, Note_on_c, 9, 35, 100
2, 103200, Note_on_c, 9, 40, 80
2, 103440, Note_off_c, 9, 40, 0
2, 103440, Note_off_c, 9, 35, 0
2, 103440, Note_off_c, 9, 59, 0
2, 103680, Note_on_c, 9, 59, 80
2, 103680, Note_on_c, 9, 35, 100
2, 103920, Note_off_c, 9, 35, 0
2, 103920, Note_off_c, 9, 59, 0
2, 104160, Note_on_c, 9, 59, 80
2, 104160, Note_on_c, 9, 35, 100
2, 104160, Note_on_c, 9, 40, 80
2, 104400, Note_off_c, 9, 40, 0
2, 104400, Note_off_c, 9, 35, 0
2, 104400, Note_off_c, 9, 59, 0
2, 104460, Note_on_c, 9, 35, 100
2, 104578, Note_off_c, 9, 35, 0
2, 104640, Note_on_c, 9, 59, 80
2, 104640, Note_on_c, 9, 35, 100
2, 104880, Note_off_c, 9, 35, 0
2, 104880, Note_off_c, 9, 59, 0
2, 105120, Note_on_c, 9, 59, 80
2, 105120, Note_on_c, 9, 35, 100
2, 105120, Note_on_c, 9, 40, 80
2, 105360, Note_off_c, 9, 40, 0
2, 105360, Note_off_c, 9, 35, 0
2, 105360, Note_off_c, 9, 59, 0
2, 105600, Note_on_c, 9, 35, 100
2, 105600, Note_on_c, 9, 59, 80
2, 105840, Note_off_c, 9, 59, 0
2, 105840, Note_off_c, 9, 35, 0
2, 106080, Note_on_c, 9, 59, 80
2, 106080, Note_on_c, 9, 35, 100
2, 106080, Note_on_c, 9, 40, 80
2, 106320, Note_off_c, 9, 40, 0
2, 106320, Note_off_c, 9, 35, 0
2, 106320, Note_off_c, 9, 59, 0
2, 106380, Note_on_c, 9, 35, 100
2, 106498, Note_off_c, 9, 35, 0
2, 106560, Note_on_c, 9, 59, 80
2, 106560, Note_on_c, 9, 35, 100
2, 106800, Note_off_c, 9, 35, 0
2, 106800, Note_off_c, 9, 59, 0
2, 107040, Note_on_c, 9, 59, 80
2, 107040, Note_on_c, 9, 35, 100
2, 107040, Note_on_c, 9, 40, 80
2, 107280, Note_off_c, 9, 40, 0
2, 107280, Note_off_c, 9, 35, 0
2, 107280, Note_off_c, 9, 59, 0
2, 107520, Note_on_c, 9, 40, 80
2, 107520, Note_on_c, 9, 35, 100
2, 107520, Note_on_c, 9, 59, 80
2, 107760, Note_off_c, 9, 59, 0
2, 107760, Note_off_c, 9, 35, 0
2, 107760, Note_off_c, 9, 40, 0
2, 108480, Note_on_c, 9, 35, 95
2, 108480, Note_on_c, 9, 59, 95
2, 108480, Note_on_c, 9, 49, 95
2, 108480, Note_on_c, 9, 46, 95
2, 108720, Note_off_c, 9, 46, 0
2, 108720, Note_off_c, 9, 49, 0
2, 108720, Note_off_c, 9, 59, 0
2, 108720, Note_off_c, 9, 35, 0
2, 109196, Note_on_c, 9, 59, 7
2, 109226, Note_off_c, 9, 59, 0
2, 109256, Note_on_c, 9, 59, 9
2, 109286, Note_off_c, 9, 59, 0
2, 109316, Note_on_c, 9, 59, 9
2, 109346, Note_off_c, 9, 59, 0
2, 109376, Note_on_c, 9, 59, 10
2, 109406, Note_off_c, 9, 59, 0
2, 109436, Note_on_c, 9, 59, 10
2, 109466, Note_off_c, 9, 59, 0
2, 109496, Note_on_c, 9, 59, 12
2, 109526, Note_off_c, 9, 59, 0
2, 109556, Note_on_c, 9, 59, 12
2, 109586, Note_off_c, 9, 59, 0
2, 109616, Note_on_c, 9, 59, 14
2, 109646, Note_off_c, 9, 59, 0
2, 109676, Note_on_c, 9, 59, 14
2, 109706, Note_off_c, 9, 59, 0
2, 109736, Note_on_c, 9, 59, 15
2, 109766, Note_off_c, 9, 59, 0
2, 109796, Note_on_c, 9, 59, 17
2, 109826, Note_off_c, 9, 59, 0
2, 109856, Note_on_c, 9, 59, 17
2, 109886, Note_off_c, 9, 59, 0
2, 109920, Note_on_c, 9, 59, 18
2, 109950, Note_off_c, 9, 59, 0
2, 109980, Note_on_c, 9, 59, 18
2, 110010, Note_off_c, 9, 59, 0
2, 110040, Note_on_c, 9, 59, 20
2, 110070, Note_off_c, 9, 59, 0
2, 110100, Note_on_c, 9, 59, 20
2, 110130, Note_off_c, 9, 59, 0
2, 110160, Note_on_c, 9, 59, 22
2, 110190, Note_off_c, 9, 59, 0
2, 110220, Note_on_c, 9, 59, 22
2, 110250, Note_off_c, 9, 59, 0
2, 110280, Note_on_c, 9, 59, 23
2, 110310, Note_off_c, 9, 59, 0
2, 110340, Note_on_c, 9, 59, 25
2, 110370, Note_off_c, 9, 59, 0
2, 110400, Note_on_c, 9, 59, 25
2, 110430, Note_off_c, 9, 59, 0
2, 110460, Note_on_c, 9, 59, 27
2, 110490, Note_off_c, 9, 59, 0
2, 110520, Note_on_c, 9, 59, 27
2, 110550, Note_off_c, 9, 59, 0
2, 110580, Note_on_c, 9, 59, 28
2, 110610, Note_off_c, 9, 59, 0
2, 110640, Note_on_c, 9, 59, 28
2, 110670, Note_off_c, 9, 59, 0
2, 110700, Note_on_c, 9, 59, 30
2, 110730, Note_off_c, 9, 59, 0
2, 110760, Note_on_c, 9, 59, 30
2, 110790, Note_off_c, 9, 59, 0
2, 110820, Note_on_c, 9, 59, 31
2, 110850, Note_off_c, 9, 59, 0
2, 110880, Note_on_c, 9, 59, 33
2, 110910, Note_off_c, 9, 59, 0
2, 110940, Note_on_c, 9, 59, 33
2, 110970, Note_off_c, 9, 59, 0
2, 111000, Note_on_c, 9, 59, 35
2, 111030, Note_off_c, 9, 59, 0
2, 111060, Note_on_c, 9, 59, 35
2, 111090, Note_off_c, 9, 59, 0
2, 111120, Note_on_c, 9, 59, 36
2, 111150, Note_off_c, 9, 59, 0
2, 111180, Note_on_c, 9, 59, 36
2, 111210, Note_off_c, 9, 59, 0
2, 111240, Note_on_c, 9, 59, 38
2, 111270, Note_off_c, 9, 59, 0
2, 111300, Note_on_c, 9, 59, 38
2, 111330, Note_off_c, 9, 59, 0
2, 111360, Note_on_c, 9, 35, 100
2, 111360, Note_on_c, 9, 59, 80
2, 111360, Note_on_c, 9, 49, 60
2, 111600, Note_off_c, 9, 49, 0
2, 111600, Note_off_c, 9, 59, 0
2, 111600, Note_off_c, 9, 35, 0
2, 111840, Note_on_c, 9, 59, 80
2, 111840, Note_on_c, 9, 35, 100
2, 111840, Note_on_c, 9, 40, 80
2, 112080, Note_off_c, 9, 40, 0
2, 112080, Note_off_c, 9, 35, 0
2, 112080, Note_off_c, 9, 59, 0
2, 112320, Note_on_c, 9, 59, 80
2, 112320, Note_on_c, 9, 35, 100
2, 112560, Note_off_c, 9, 35, 0
2, 112560, Note_off_c, 9, 59, 0
2, 112800, Note_on_c, 9, 59, 80
2, 112800, Note_on_c, 9, 35, 100
2, 112800, Note_on_c, 9, 40, 80
2, 113040, Note_off_c, 9, 40, 0
2, 113040, Note_off_c, 9, 35, 0
2, 113040, Note_off_c, 9, 59, 0
2, 113280, Note_on_c, 9, 59, 80
2, 113280, Note_on_c, 9, 35, 100
2, 113520, Note_off_c, 9, 35, 0
2, 113520, Note_off_c, 9, 59, 0
2, 113760, Note_on_c, 9, 59, 80
2, 113760, Note_on_c, 9, 35, 100
2, 113760, Note_on_c, 9, 40, 80
2, 114000, Note_off_c, 9, 40, 0
2, 114000, Note_off_c, 9, 35, 0
2, 114000, Note_off_c, 9, 59, 0
2, 114060, Note_on_c, 9, 35, 100
2, 114178, Note_off_c, 9, 35, 0
2, 114240, Note_on_c, 9, 59, 80
2, 114240, Note_on_c, 9, 35, 100
2, 114480, Note_off_c, 9, 35, 0
2, 114480, Note_off_c, 9, 59, 0
2, 114720, Note_on_c, 9, 59, 80
2, 114720, Note_on_c, 9, 35, 100
2, 114720, Note_on_c, 9, 40, 80
2, 114960, Note_off_c, 9, 40, 0
2, 114960, Note_off_c, 9, 35, 0
2, 114960, Note_off_c, 9, 59, 0
2, 115200, Note_on_c, 9, 35, 100
2, 115200, Note_on_c, 9, 59, 80
2, 115440, Note_off_c, 9, 59, 0
2, 115440, Note_off_c, 9, 35, 0
2, 115680, Note_on_c, 9, 59, 80
2, 115680, Note_on_c, 9, 35, 100
2, 115680, Note_on_c, 9, 40, 80
2, 115920, Note_off_c, 9, 40, 0
2, 115920, Note_off_c, 9, 35, 0
2, 115920, Note_off_c, 9, 59, 0
2, 116160, Note_on_c, 9, 59, 80
2, 116160, Note_on_c, 9, 35, 100
2, 116400, Note_off_c, 9, 35, 0
2, 116400, Note_off_c, 9, 59, 0
2, 116640, Note_on_c, 9, 59, 80
2, 116640, Note_on_c, 9, 35, 100
2, 116640, Note_on_c, 9, 40, 80
2, 116880, Note_off_c, 9, 40, 0
2, 116880, Note_off_c, 9, 35, 0
2, 116880, Note_off_c, 9, 59, 0
2, 116940, Note_on_c, 9, 35, 100
2, 117058, Note_off_c, 9, 35, 0
2, 117120, Note_on_c, 9, 59, 80
2, 117120, Note_on_c, 9, 35, 100
2, 117360, Note_off_c, 9, 35, 0
2, 117360, Note_off_c, 9, 59, 0
2, 117600, Note_on_c, 9, 59, 80
2, 117600, Note_on_c, 9, 35, 100
2, 117600, Note_on_c, 9, 40, 80
2, 117840, Note_off_c, 9, 40, 0
2, 117840, Note_off_c, 9, 35, 0
2, 117840, Note_off_c, 9, 59, 0
2, 118080, Note_on_c, 9, 59, 80
2, 118080, Note_on_c, 9, 35, 100
2, 118320, Note_off_c, 9, 35, 0
2, 118320, Note_off_c, 9, 59, 0
2, 118560, Note_on_c, 9, 59, 80
2, 118560, Note_on_c, 9, 35, 100
2, 118560, Note_on_c, 9, 40, 80
2, 118800, Note_off_c, 9, 40, 0
2, 118800, Note_off_c, 9, 35, 0
2, 118800, Note_off_c, 9, 59, 0
2, 119040, Note_on_c, 9, 35, 100
2, 119040, Note_on_c, 9, 59, 80
2, 119280, Note_off_c, 9, 59, 0
2, 119280, Note_off_c, 9, 35, 0
2, 119520, Note_on_c, 9, 59, 80
2, 119520, Note_on_c, 9, 35, 100
2, 119520, Note_on_c, 9, 40, 80
2, 119760, Note_off_c, 9, 40, 0
2, 119760, Note_off_c, 9, 35, 0
2, 119760, Note_off_c, 9, 59, 0
2, 120000, Note_on_c, 9, 59, 80
2, 120000, Note_on_c, 9, 35, 100
2, 120240, Note_off_c, 9, 35, 0
2, 120240, Note_off_c, 9, 59, 0
2, 120480, Note_on_c, 9, 59, 80
2, 120480, Note_on_c, 9, 35, 100
2, 120480, Note_on_c, 9, 40, 80
2, 120720, Note_off_c, 9, 40, 0
2, 120720, Note_off_c, 9, 35, 0
2, 120720, Note_off_c, 9, 59, 0
2, 120780, Note_on_c, 9, 35, 100
2, 120898, Note_off_c, 9, 35, 0
2, 120960, Note_on_c, 9, 59, 80
2, 120960, Note_on_c, 9, 35, 100
2, 121200, Note_off_c, 9, 35, 0
2, 121200, Note_off_c, 9, 59, 0
2, 121440, Note_on_c, 9, 59, 80
2, 121440, Note_on_c, 9, 35, 100
2, 121440, Note_on_c, 9, 40, 80
2, 121680, Note_off_c, 9, 40, 0
2, 121680, Note_off_c, 9, 35, 0
2, 121680, Note_off_c, 9, 59, 0
2, 121920, Note_on_c, 9, 59, 80
2, 121920, Note_on_c, 9, 35, 100
2, 122160, Note_off_c, 9, 35, 0
2, 122160, Note_off_c, 9, 59, 0
2, 122400, Note_on_c, 9, 59, 80
2, 122400, Note_on_c, 9, 35, 100
2, 122400, Note_on_c, 9, 40, 80
2, 122640, Note_off_c, 9, 40, 0
2, 122640, Note_off_c, 9, 35, 0
2, 122640, Note_off_c, 9, 59, 0
2, 122700, Note_on_c, 9, 35, 100
2, 122818, Note_off_c, 9, 35, 0
2, 122880, Note_on_c, 9, 35, 100
2, 122880, Note_on_c, 9, 59, 80
2, 123120, Note_off_c, 9, 59, 0
2, 123120, Note_off_c, 9, 35, 0
2, 123360, Note_on_c, 9, 59, 80
2, 123360, Note_on_c, 9, 35, 100
2, 123360, Note_on_c, 9, 40, 80
2, 123600, Note_off_c, 9, 40, 0
2, 123600, Note_off_c, 9, 35, 0
2, 123600, Note_off_c, 9, 59, 0
2, 123840, Note_on_c, 9, 59, 80
2, 123840, Note_on_c, 9, 35, 100
2, 124080, Note_off_c, 9, 35, 0
2, 124080, Note_off_c, 9, 59, 0
2, 124320, Note_on_c, 9, 59, 80
2, 124320, Note_on_c, 9, 35, 100
2, 124320, Note_on_c, 9, 40, 80
2, 124560, Note_off_c, 9, 40, 0
2, 124560, Note_off_c, 9, 35, 0
2, 124560, Note_off_c, 9, 59, 0
2, 124620, Note_on_c, 9, 35, 100
2, 124738, Note_off_c, 9, 35, 0
2, 124800, Note_on_c, 9, 59, 80
2, 124800, Note_on_c, 9, 35, 100
2, 125040, Note_off_c, 9, 35, 0
2, 125040, Note_off_c, 9, 59, 0
2, 125280, Note_on_c, 9, 59, 80
2, 125280, Note_on_c, 9, 35, 100
2, 125280, Note_on_c, 9, 40, 80
2, 125520, Note_off_c, 9, 40, 0
2, 125520, Note_off_c, 9, 35, 0
2, 125520, Note_off_c, 9, 59, 0
2, 125760, Note_on_c, 9, 59, 80
2, 125760, Note_on_c, 9, 35, 100
2, 126000, Note_off_c, 9, 35, 0
2, 126000, Note_off_c, 9, 59, 0
2, 126240, Note_on_c, 9, 59, 80
2, 126240, Note_on_c, 9, 35, 100
2, 126240, Note_on_c, 9, 40, 80
2, 126480, Note_off_c, 9, 40, 0
2, 126480, Note_off_c, 9, 35, 0
2, 126480, Note_off_c, 9, 59, 0
2, 126540, Note_on_c, 9, 35, 100
2, 126658, Note_off_c, 9, 35, 0
2, 126720, Note_on_c, 9, 35, 100
2, 126720, Note_on_c, 9, 59, 80
2, 126960, Note_off_c, 9, 59, 0
2, 126960, Note_off_c, 9, 35, 0
2, 127200, Note_on_c, 9, 59, 80
2, 127200, Note_on_c, 9, 35, 100
2, 127200, Note_on_c, 9, 40, 80
2, 127440, Note_off_c, 9, 40, 0
2, 127440, Note_off_c, 9, 35, 0
2, 127440, Note_off_c, 9, 59, 0
2, 127680, Note_on_c, 9, 59, 80
2, 127680, Note_on_c, 9, 35, 100
2, 127920, Note_off_c, 9, 35, 0
2, 127920, Note_off_c, 9, 59, 0
2, 128160, Note_on_c, 9, 59, 80
2, 128160, Note_on_c, 9, 35, 100
2, 128160, Note_on_c, 9, 40, 80
2, 128400, Note_off_c, 9, 40, 0
2, 128400, Note_off_c, 9, 35, 0
2, 128400, Note_off_c, 9, 59, 0
2, 128460, Note_on_c, 9, 35, 100
2, 128578, Note_off_c, 9, 35, 0
2, 128640, Note_on_c, 9, 59, 80
2, 128640, Note_on_c, 9, 35, 100
2, 128880, Note_off_c, 9, 35, 0
2, 128880, Note_off_c, 9, 59, 0
2, 129120, Note_on_c, 9, 59, 80
2, 129120, Note_on_c, 9, 35, 100
2, 129120, Note_on_c, 9, 40, 80
2, 129360, Note_off_c, 9, 40, 0
2, 129360, Note_off_c, 9, 35, 0
2, 129360, Note_off_c, 9, 59, 0
2, 129600, Note_on_c, 9, 59, 80
2, 129600, Note_on_c, 9, 35, 100
2, 129600, Note_on_c, 9, 46, 80
2, 129840, Note_off_c, 9, 46, 0
2, 129840, Note_off_c, 9, 35, 0
2, 129840, Note_off_c, 9, 59, 0
2, 129897, Note_on_c, 9, 59, 14
2, 129927, Note_off_c, 9, 59, 0
2, 129957, Note_on_c, 9, 59, 17
2, 129987, Note_off_c, 9, 59, 0
2, 130017, Note_on_c, 9, 59, 18
2, 130047, Note_off_c, 9, 59, 0
2, 130077, Note_on_c, 9, 59, 20
2, 130107, Note_off_c, 9, 59, 0
2, 130137, Note_on_c, 9, 59, 23
2, 130167, Note_off_c, 9, 59, 0
2, 130197, Note_on_c, 9, 59, 25
2, 130227, Note_off_c, 9, 59, 0
2, 130257, Note_on_c, 9, 59, 27
2, 130287, Note_off_c, 9, 59, 0
2, 130317, Note_on_c, 9, 59, 30
2, 130347, Note_off_c, 9, 59, 0
2, 130377, Note_on_c, 9, 59, 31
2, 130407, Note_off_c, 9, 59, 0
2, 130437, Note_on_c, 9, 59, 33
2, 130467, Note_off_c, 9, 59, 0
2, 130560, Note_on_c, 9, 59, 80
2, 130560, Note_on_c, 9, 35, 100
2, 130800, Note_off_c, 9, 35, 0
2, 130800, Note_off_c, 9, 59, 0
2, 131040, Note_on_c, 9, 59, 80
2, 131040, Note_on_c, 9, 35, 100
2, 131040, Note_on_c, 9, 40, 80
2, 131280, Note_off_c, 9, 40, 0
2, 131280, Note_off_c, 9, 35, 0
2, 131280, Note_off_c, 9, 59, 0
2, 131520, Note_on_c, 9, 59, 80
2, 131520, Note_on_c, 9, 35, 100
2, 131760, Note_off_c, 9, 35, 0
2, 131760, Note_off_c, 9, 59, 0
2, 132000, Note_on_c, 9, 59, 80
2, 132000, Note_on_c, 9, 35, 100
2, 132000, Note_on_c, 9, 40, 80
2, 132240, Note_off_c, 9, 40, 0
2, 132240, Note_off_c, 9, 35, 0
2, 132240, Note_off_c, 9, 59, 0
2, 132300, Note_on_c, 9, 35, 100
2, 132418, Note_off_c, 9, 35, 0
2, 132480, Note_on_c, 9, 35, 100
2, 132480, Note_on_c, 9, 59, 80
2, 132720, Note_off_c, 9, 59, 0
2, 132720, Note_off_c, 9, 35, 0
2, 132960, Note_on_c, 9, 59, 80
2, 132960, Note_on_c, 9, 35, 100
2, 132960, Note_on_c, 9, 40, 80
2, 133200, Note_off_c, 9, 40, 0
2, 133200, Note_off_c, 9, 35, 0
2, 133200, Note_off_c, 9, 59, 0
2, 133440, Note_on_c, 9, 59, 80
2, 133440, Note_on_c, 9, 35, 100
2, 133440, Note_on_c, 9, 46, 80
2, 133680, Note_off_c, 9, 46, 0
2, 133680, Note_off_c, 9, 35, 0
2, 133680, Note_off_c, 9, 59, 0
2, 133737, Note_on_c, 9, 59, 14
2, 133767, Note_off_c, 9, 59, 0
2, 133797, Note_on_c, 9, 59, 17
2, 133827, Note_off_c, 9, 59, 0
2, 133857, Note_on_c, 9, 59, 18
2, 133887, Note_off_c, 9, 59, 0
2, 133917, Note_on_c, 9, 59, 20
2, 133947, Note_off_c, 9, 59, 0
2, 133977, Note_on_c, 9, 59, 23
2, 134007, Note_off_c, 9, 59, 0
2, 134037, Note_on_c, 9, 59, 25
2, 134067, Note_off_c, 9, 59, 0
2, 134097, Note_on_c, 9, 59, 27
2, 134127, Note_off_c, 9, 59, 0
2, 134157, Note_on_c, 9, 59, 30
2, 134187, Note_off_c, 9, 59, 0
2, 134217, Note_on_c, 9, 59, 31
2, 134247, Note_off_c, 9, 59, 0
2, 134277, Note_on_c, 9, 59, 33
2, 134307, Note_off_c, 9, 59, 0
2, 134400, Note_on_c, 9, 35, 100
2, 134400, Note_on_c, 9, 59, 80
2, 134640, Note_off_c, 9, 59, 0
2, 134640, Note_off_c, 9, 35, 0
2, 134880, Note_on_c, 9, 59, 80
2, 134880, Note_on_c, 9, 35, 100
2, 134880, Note_on_c, 9, 40, 80
2, 135120, Note_off_c, 9, 40, 0
2, 135120, Note_off_c, 9, 35, 0
2, 135120, Note_off_c, 9, 59, 0
2, 135360, Note_on_c, 9, 59, 80
2, 135360, Note_on_c, 9, 35, 100
2, 135600, Note_off_c, 9, 35, 0
2, 135600, Note_off_c, 9, 59, 0
2, 135840, Note_on_c, 9, 59, 80
2, 135840, Note_on_c, 9, 35, 100
2, 135840, Note_on_c, 9, 40, 80
2, 136080, Note_off_c, 9, 40, 0
2, 136080, Note_off_c, 9, 35, 0
2, 136080, Note_off_c, 9, 59, 0
2, 136140, Note_on_c, 9, 35, 100
2, 136258, Note_off_c, 9, 35, 0
2, 136320, Note_on_c, 9, 35, 100
2, 136320, Note_on_c, 9, 59, 80
2, 136560, Note_off_c, 9, 59, 0
2, 136560, Note_off_c, 9, 35, 0
2, 136798, Note_on_c, 9, 59, 15
2, 136828, Note_off_c, 9, 59, 0
2, 136858, Note_on_c, 9, 59, 15
2, 136888, Note_off_c, 9, 59, 0
2, 136918, Note_on_c, 9, 59, 17
2, 136948, Note_off_c, 9, 59, 0
2, 136978, Note_on_c, 9, 59, 18
2, 137008, Note_off_c, 9, 59, 0
2, 137038, Note_on_c, 9, 59, 18
2, 137068, Note_off_c, 9, 59, 0
2, 137098, Note_on_c, 9, 59, 20
2, 137128, Note_off_c, 9, 59, 0
2, 137158, Note_on_c, 9, 59, 20
2, 137188, Note_off_c, 9, 59, 0
2, 137218, Note_on_c, 9, 59, 22
2, 137248, Note_off_c, 9, 59, 0
2, 137278, Note_on_c, 9, 59, 22
2, 137308, Note_off_c, 9, 59, 0
2, 137338, Note_on_c, 9, 59, 23
2, 137368, Note_off_c, 9, 59, 0
2, 137396, Note_on_c, 9, 59, 23
2, 137426, Note_off_c, 9, 59, 0
2, 137456, Note_on_c, 9, 59, 25
2, 137486, Note_off_c, 9, 59, 0
2, 137516, Note_on_c, 9, 59, 27
2, 137546, Note_off_c, 9, 59, 0
2, 137576, Note_on_c, 9, 59, 27
2, 137606, Note_off_c, 9, 59, 0
2, 137636, Note_on_c, 9, 59, 7
2, 137646, Note_on_c, 9, 46, 7
2, 137666, Note_off_c, 9, 59, 0
2, 137676, Note_off_c, 9, 46, 0
2, 137696, Note_on_c, 9, 59, 10
2, 137700, Note_on_c, 9, 46, 10
2, 137726, Note_off_c, 9, 59, 0
2, 137730, Note_off_c, 9, 46, 0
2, 137756, Note_on_c, 9, 59, 12
2, 137760, Note_on_c, 9, 46, 14
2, 137786, Note_off_c, 9, 59, 0
2, 137790, Note_off_c, 9, 46, 0
2, 137816, Note_on_c, 9, 59, 15
2, 137820, Note_on_c, 9, 46, 15
2, 137846, Note_off_c, 9, 59, 0
2, 137850, Note_off_c, 9, 46, 0
2, 137876, Note_on_c, 9, 59, 18
2, 137880, Note_on_c, 9, 46, 18
2, 137906, Note_off_c, 9, 59, 0
2, 137910, Note_off_c, 9, 46, 0
2, 137936, Note_on_c, 9, 59, 22
2, 137940, Note_on_c, 9, 46, 22
2, 137966, Note_off_c, 9, 59, 0
2, 137970, Note_off_c, 9, 46, 0
2, 138000, Note_on_c, 9, 46, 23
2, 138030, Note_off_c, 9, 46, 0
2, 138060, Note_on_c, 9, 46, 27
2, 138090, Note_off_c, 9, 46, 0
2, 138120, Note_on_c, 9, 46, 30
2, 138150, Note_off_c, 9, 46, 0
2, 138180, Note_on_c, 9, 46, 31
2, 138210, Note_off_c, 9, 46, 0
2, 138240, Note_on_c, 9, 35, 100
2, 138240, Note_on_c, 9, 59, 80
2, 138240, Note_on_c, 9, 46, 60
2, 138480, Note_off_c, 9, 46, 0
2, 138480, Note_off_c, 9, 59, 0
2, 138480, Note_off_c, 9, 35, 0
2, 138720, Note_on_c, 9, 59, 80
2, 138720, Note_on_c, 9, 35, 100
2, 138720, Note_on_c, 9, 40, 80
2, 138960, Note_off_c, 9, 40, 0
2, 138960, Note_off_c, 9, 35, 0
2, 138960, Note_off_c, 9, 59, 0
2, 139200, Note_on_c, 9, 59, 80
2, 139200, Note_on_c, 9, 35, 100
2, 139440, Note_off_c, 9, 35, 0
2, 139440, Note_off_c, 9, 59, 0
2, 139680, Note_on_c, 9, 59, 80
2, 139680, Note_on_c, 9, 35, 100
2, 139680, Note_on_c, 9, 40, 80
2, 139920, Note_off_c, 9, 40, 0
2, 139920, Note_off_c, 9, 35, 0
2, 139920, Note_off_c, 9, 59, 0
2, 140160, Note_on_c, 9, 35, 100
2, 140160, Note_on_c, 9, 59, 80
2, 140400, Note_off_c, 9, 59, 0
2, 140400, Note_off_c, 9, 35, 0
2, 140640, Note_on_c, 9, 59, 80
2, 140640, Note_on_c, 9, 35, 100
2, 140640, Note_on_c, 9, 40, 80
2, 140880, Note_off_c, 9, 40, 0
2, 140880, Note_off_c, 9, 35, 0
2, 140880, Note_off_c, 9, 59, 0
2, 140940, Note_on_c, 9, 35, 100
2, 141058, Note_off_c, 9, 35, 0
2, 141120, Note_on_c, 9, 59, 80
2, 141120, Note_on_c, 9, 35, 100
2, 141360, Note_off_c, 9, 35, 0
2, 141360, Note_off_c, 9, 59, 0
2, 141600, Note_on_c, 9, 59, 80
2, 141600, Note_on_c, 9, 35, 100
2, 141600, Note_on_c, 9, 40, 80
2, 141840, Note_off_c, 9, 40, 0
2, 141840, Note_off_c, 9, 35, 0
2, 141840, Note_off_c, 9, 59, 0
2, 142080, Note_on_c, 9, 59, 80
2, 142080, Note_on_c, 9, 35, 100
2, 142320, Note_off_c, 9, 35, 0
2, 142320, Note_off_c, 9, 59, 0
2, 142560, Note_on_c, 9, 59, 80
2, 142560, Note_on_c, 9, 35, 100
2, 142560, Note_on_c, 9, 40, 80
2, 142800, Note_off_c, 9, 40, 0
2, 142800, Note_off_c, 9, 35, 0
2, 142800, Note_off_c, 9, 59, 0
2, 142860, Note_on_c, 9, 35, 100
2, 142978, Note_off_c, 9, 35, 0
2, 143040, Note_on_c, 9, 59, 80
2, 143040, Note_on_c, 9, 35, 100
2, 143280, Note_off_c, 9, 35, 0
2, 143280, Note_off_c, 9, 59, 0
2, 143520, Note_on_c, 9, 59, 80
2, 143520, Note_on_c, 9, 35, 100
2, 143520, Note_on_c, 9, 40, 80
2, 143760, Note_off_c, 9, 40, 0
2, 143760, Note_off_c, 9, 35, 0
2, 143760, Note_off_c, 9, 59, 0
2, 144000, Note_on_c, 9, 35, 100
2, 144000, Note_on_c, 9, 59, 80
2, 144240, Note_off_c, 9, 59, 0
2, 144240, Note_off_c, 9, 35, 0
2, 144480, Note_on_c, 9, 59, 80
2, 144480, Note_on_c, 9, 35, 100
2, 144480, Note_on_c, 9, 40, 80
2, 144720, Note_off_c, 9, 40, 0
2, 144720, Note_off_c, 9, 35, 0
2, 144720, Note_off_c, 9, 59, 0
2, 144960, Note_on_c, 9, 59, 80
2, 144960, Note_on_c, 9, 35, 100
2, 145200, Note_off_c, 9, 35, 0
2, 145200, Note_off_c, 9, 59, 0
2, 145440, Note_on_c, 9, 59, 80
2, 145440, Note_on_c, 9, 35, 100
2, 145440, Note_on_c, 9, 40, 80
2, 145680, Note_off_c, 9, 40, 0
2, 145680, Note_off_c, 9, 35, 0
2, 145680, Note_off_c, 9, 59, 0
2, 145740, Note_on_c, 9, 35, 100
2, 145858, Note_off_c, 9, 35, 0
2, 145920, Note_on_c, 9, 59, 80
2, 145920, Note_on_c, 9, 35, 100
2, 146160, Note_off_c, 9, 35, 0
2, 146160, Note_off_c, 9, 59, 0
2, 146400, Note_on_c, 9, 59, 80
2, 146400, Note_on_c, 9, 35, 100
2, 146400, Note_on_c, 9, 40, 80
2, 146640, Note_off_c, 9, 40, 0
2, 146640, Note_off_c, 9, 35, 0
2, 146640, Note_off_c, 9, 59, 0
2, 146880, Note_on_c, 9, 59, 80
2, 146880, Note_on_c, 9, 35, 100
2, 147120, Note_off_c, 9, 35, 0
2, 147120, Note_off_c, 9, 59, 0
2, 147360, Note_on_c, 9, 59, 80
2, 147360, Note_on_c, 9, 35, 100
2, 147360, Note_on_c, 9, 40, 80
2, 147600, Note_off_c, 9, 40, 0
2, 147600, Note_off_c, 9, 35, 0
2, 147600, Note_off_c, 9, 59, 0
2, 147660, Note_on_c, 9, 35, 100
2, 147778, Note_off_c, 9, 35, 0
2, 147840, Note_on_c, 9, 35, 100
2, 147840, Note_on_c, 9, 59, 80
2, 148080, Note_off_c, 9, 59, 0
2, 148080, Note_off_c, 9, 35, 0
2, 148320, Note_on_c, 9, 59, 80
2, 148320, Note_on_c, 9, 35, 100
2, 148320, Note_on_c, 9, 40, 80
2, 148560, Note_off_c, 9, 40, 0
2, 148560, Note_off_c, 9, 35, 0
2, 148560, Note_off_c, 9, 59, 0
2, 148800, Note_on_c, 9, 59, 80
2, 148800, Note_on_c, 9, 35, 100
2, 149040, Note_off_c, 9, 35, 0
2, 149040, Note_off_c, 9, 59, 0
2, 149280, Note_on_c, 9, 59, 80
2, 149280, Note_on_c, 9, 35, 100
2, 149280, Note_on_c, 9, 40, 80
2, 149520, Note_off_c, 9, 40, 0
2, 149520, Note_off_c, 9, 35, 0
2, 149520, Note_off_c, 9, 59, 0
2, 149580, Note_on_c, 9, 35, 100
2, 149698, Note_off_c, 9, 35, 0
2, 149760, Note_on_c, 9, 35, 100
2, 149760, Note_on_c, 9, 59, 80
2, 150000, Note_off_c, 9, 59, 0
2, 150000, Note_off_c, 9, 35, 0
2, 150240, Note_on_c, 9, 59, 80
2, 150240, Note_on_c, 9, 35, 100
2, 150240, Note_on_c, 9, 40, 80
2, 150480, Note_off_c, 9, 40, 0
2, 150480, Note_off_c, 9, 35, 0
2, 150480, Note_off_c, 9, 59, 0
2, 150720, Note_on_c, 9, 59, 80
2, 150720, Note_on_c, 9, 35, 100
2, 150960, Note_off_c, 9, 35, 0
2, 150960, Note_off_c, 9, 59, 0
2, 151200, Note_on_c, 9, 59, 80
2, 151200, Note_on_c, 9, 35, 100
2, 151200, Note_on_c, 9, 40, 80
2, 151440, Note_off_c, 9, 40, 0
2, 151440, Note_off_c, 9, 35, 0
2, 151440, Note_off_c, 9, 59, 0
2, 151500, Note_on_c, 9, 35, 100
2, 151618, Note_off_c, 9, 35, 0
2, 151680, Note_on_c, 9, 35, 100
2, 151680, Note_on_c, 9, 59, 80
2, 151920, Note_off_c, 9, 59, 0
2, 151920, Note_off_c, 9, 35, 0
2, 152160, Note_on_c, 9, 59, 80
2, 152160, Note_on_c, 9, 35, 100
2, 152160, Note_on_c, 9, 40, 80
2, 152400, Note_off_c, 9, 40, 0
2, 152400, Note_off_c, 9, 35, 0
2, 152400, Note_off_c, 9, 59, 0
2, 152640, Note_on_c, 9, 59, 80
2, 152640, Note_on_c, 9, 35, 100
2, 152880, Note_off_c, 9, 35, 0
2, 152880, Note_off_c, 9, 59, 0
2, 153120, Note_on_c, 9, 59, 80
2, 153120, Note_on_c, 9, 35, 100
2, 153120, Note_on_c, 9, 40, 80
2, 153360, Note_off_c, 9, 40, 0
2, 153360, Note_off_c, 9, 35, 0
2, 153360, Note_off_c, 9, 59, 0
2, 153420, Note_on_c, 9, 35, 100
2, 153538, Note_off_c, 9, 35, 0
2, 153600, Note_on_c, 9, 35, 100
2, 153600, Note_on_c, 9, 59, 80
2, 153840, Note_off_c, 9, 59, 0
2, 153840, Note_off_c, 9, 35, 0
2, 154080, Note_on_c, 9, 59, 80
2, 154080, Note_on_c, 9, 35, 100
2, 154080, Note_on_c, 9, 40, 80
2, 154320, Note_off_c, 9, 40, 0
2, 154320, Note_off_c, 9, 35, 0
2, 154320, Note_off_c, 9, 59, 0
2, 154560, Note_on_c, 9, 59, 80
2, 154560, Note_on_c, 9, 35, 100
2, 154800, Note_off_c, 9, 35, 0
2, 154800, Note_off_c, 9, 59, 0
2, 155040, Note_on_c, 9, 59, 80
2, 155040, Note_on_c, 9, 35, 100
2, 155040, Note_on_c, 9, 40, 80
2, 155280, Note_off_c, 9, 40, 0
2, 155280, Note_off_c, 9, 35, 0
2, 155280, Note_off_c, 9, 59, 0
2, 155340, Note_on_c, 9, 35, 100
2, 155458, Note_off_c, 9, 35, 0
2, 155520, Note_on_c, 9, 35, 100
2, 155520, Note_on_c, 9, 59, 80
2, 155760, Note_off_c, 9, 59, 0
2, 155760, Note_off_c, 9, 35, 0
2, 156000, Note_on_c, 9, 59, 80
2, 156000, Note_on_c, 9, 35, 100
2, 156000, Note_on_c, 9, 40, 80
2, 156240, Note_off_c, 9, 40, 0
2, 156240, Note_off_c, 9, 35, 0
2, 156240, Note_off_c, 9, 59, 0
2, 156480, Note_on_c, 9, 59, 80
2, 156480, Note_on_c, 9, 35, 100
2, 156720, Note_off_c, 9, 35, 0
2, 156720, Note_off_c, 9, 59, 0
2, 156960, Note_on_c, 9, 59, 80
2, 156960, Note_on_c, 9, 35, 100
2, 156960, Note_on_c, 9, 40, 80
2, 157200, Note_off_c, 9, 40, 0
2, 157200, Note_off_c, 9, 35, 0
2, 157200, Note_off_c, 9, 59, 0
2, 157260, Note_on_c, 9, 35, 100
2, 157378, Note_off_c, 9, 35, 0
2, 157440, Note_on_c, 9, 35, 100
2, 157440, Note_on_c, 9, 59, 80
2, 157680, Note_off_c, 9, 59, 0
2, 157680, Note_off_c, 9, 35, 0
2, 157920, Note_on_c, 9, 59, 80
2, 157920, Note_on_c, 9, 35, 100
2, 157920, Note_on_c, 9, 40, 80
2, 158160, Note_off_c, 9, 40, 0
2, 158160, Note_off_c, 9, 35, 0
2, 158160, Note_off_c, 9, 59, 0
2, 158400, Note_on_c, 9, 59, 80
2, 158400, Note_on_c, 9, 35, 100
2, 158640, Note_off_c, 9, 35, 0
2, 158640, Note_off_c, 9, 59, 0
2, 158880, Note_on_c, 9, 59, 80
2, 158880, Note_on_c, 9, 35, 100
2, 158880, Note_on_c, 9, 40, 80
2, 159120, Note_off_c, 9, 40, 0
2, 159120, Note_off_c, 9, 35, 0
2, 159120, Note_off_c, 9, 59, 0
2, 159180, Note_on_c, 9, 35, 100
2, 159298, Note_off_c, 9, 35, 0
2, 159360, Note_on_c, 9, 35, 100
2, 159360, Note_on_c, 9, 59, 80
2, 159600, Note_off_c, 9, 59, 0
2, 159600, Note_off_c, 9, 35, 0
2, 159840, Note_on_c, 9, 59, 80
2, 159840, Note_on_c, 9, 35, 100
2, 159840, Note_on_c, 9, 40, 80
2, 160080, Note_off_c, 9, 40, 0
2, 160080, Note_off_c, 9, 35, 0
2, 160080, Note_off_c, 9, 59, 0
2, 160320, Note_on_c, 9, 59, 80
2, 160320, Note_on_c, 9, 35, 100
2, 160560, Note_off_c, 9, 35, 0
2, 160560, Note_off_c, 9, 59, 0
2, 160800, Note_on_c, 9, 59, 80
2, 160800, Note_on_c, 9, 35, 100
2, 160800, Note_on_c, 9, 40, 80
2, 161040, Note_off_c, 9, 40, 0
2, 161040, Note_off_c, 9, 35, 0
2, 161040, Note_off_c, 9, 59, 0
2, 161100, Note_on_c, 9, 35, 100
2, 161218, Note_off_c, 9, 35, 0
2, 161280, Note_on_c, 9, 35, 100
2, 161280, Note_on_c, 9, 59, 80
2, 161520, Note_off_c, 9, 59, 0
2, 161520, Note_off_c, 9, 35, 0
2, 161760, Note_on_c, 9, 40, 92
2, 161760, Note_on_c, 9, 35, 92
2, 161760, Note_on_c, 9, 59, 92
2, 162000, Note_off_c, 9, 59, 0
2, 162000, Note_off_c, 9, 35, 0
2, 162000, Note_off_c, 9, 40, 0
2, 162240, Note_on_c, 9, 59, 87
2, 162240, Note_on_c, 9, 35, 87
2, 162480, Note_off_c, 9, 35, 0
2, 162480, Note_off_c, 9, 59, 0
2, 162720, Note_on_c, 9, 59, 80
2, 162720, Note_on_c, 9, 35, 80
2, 162720, Note_on_c, 9, 40, 80
2, 162960, Note_off_c, 9, 40, 0
2, 162960, Note_off_c, 9, 35, 0
2, 162960, Note_off_c, 9, 59, 0
2, 163020, Note_on_c, 9, 35, 77
2, 163138, Note_off_c, 9, 35, 0
2, 163200, Note_on_c, 9, 35, 75
2, 163200, Note_on_c, 9, 59, 75
2, 163440, Note_off_c, 9, 59, 0
2, 163440, Note_off_c, 9, 35, 0
2, 163680, Note_on_c, 9, 59, 69
2, 163680, Note_on_c, 9, 35, 69
2, 163680, Note_on_c, 9, 40, 69
2, 163920, Note_off_c, 9, 40, 0
2, 163920, Note_off_c, 9, 35, 0
2, 163920, Note_off_c, 9, 59, 0
2, 164160, Note_on_c, 9, 59, 64
2, 164160, Note_on_c, 9, 35, 64
2, 164400, Note_off_c, 9, 35, 0
2, 164400, Note_off_c, 9, 59, 0
2, 164640, Note_on_c, 9, 59, 57
2, 164640, Note_on_c, 9, 35, 57
2, 164640, Note_on_c, 9, 40, 57
2, 164880, Note_off_c, 9, 40, 0
2, 164880, Note_off_c, 9, 35, 0
2, 164880, Note_off_c, 9, 59, 0
2, 164940, Note_on_c, 9, 35, 54
2, 165058, Note_off_c, 9, 35, 0
2, 165120, Note_on_c, 9, 35, 51
2, 165120, Note_on_c, 9, 59, 51
2, 165360, Note_off_c, 9, 59, 0
2, 165360, Note_off_c, 9, 35, 0
2, 165600, Note_on_c, 9, 59, 46
2, 165600, Note_on_c, 9, 35, 46
2, 165600, Note_on_c, 9, 40, 46
2, 165840, Note_off_c, 9, 40, 0
2, 165840, Note_off_c, 9, 35, 0
2, 165840, Note_off_c, 9, 59, 0
2, 166080, Note_on_c, 9, 59, 40
2, 166080, Note_on_c, 9, 35, 40
2, 166320, Note_off_c, 9, 35, 0
2, 166320, Note_off_c, 9, 59, 0
2, 166560, Note_on_c, 9, 59, 35
2, 166560, Note_on_c, 9, 35, 35
2, 166560, Note_on_c, 9, 40, 35
2, 166800, Note_off_c, 9, 40, 0
2, 166800, Note_off_c, 9, 35, 0
2, 166800, Note_off_c, 9, 59, 0
2, 166860, Note_on_c, 9, 35, 31
2, 166978, Note_off_c, 9, 35, 0
2, 167040, Note_on_c, 9, 35, 28
2, 167040, Note_on_c, 9, 59, 28
2, 167280, Note_off_c, 9, 59, 0
2, 167280, Note_off_c, 9, 35, 0
2, 167520, Note_on_c, 9, 59, 23
2, 167520, Note_on_c, 9, 35, 23
2, 167520, Note_on_c, 9, 40, 23
2, 167760, Note_off_c, 9, 40, 0
2, 167760, Note_off_c, 9, 35, 0
2, 167760, Note_off_c, 9, 59, 0
2, 168000, Note_on_c, 9, 59, 17
2, 168000, Note_on_c, 9, 35, 17
2, 168240, Note_off_c, 9, 35, 0
2, 168240, Note_off_c, 9, 59, 0
2, 168480, Note_on_c, 9, 59, 12
2, 168480, Note_on_c, 9, 35, 12
2, 168480, Note_on_c, 9, 40, 12
2, 168720, Note_off_c, 9, 40, 0
2, 168720, Note_off_c, 9, 35, 0
2, 168720, Note_off_c, 9, 59, 0
2, 168780, Note_on_c, 9, 35, 9
2, 168898, Note_off_c, 9, 35, 0
2, 168898, End_track
3, 0, Start_track
3, 0, Title_t, "Bass R"
3, 0, MIDI_port, 0
3, 0, Channel_prefix, 0
3, 0, Control_c, 0, 7, 99
3, 0, Control_c, 0, 10, 79
3, 0, Program_c, 0, 32
3, 360, Note_on_c, 0, 45, 53
3, 720, Note_on_c, 0, 44, 66
3, 749, Note_off_c, 0, 45, 0
3, 1080, Note_on_c, 0, 43, 79
3, 1110, Note_off_c, 0, 44, 0
3, 1440, Note_on_c, 0, 41, 93
3, 1470, Note_off_c, 0, 43, 0
3, 1920, Note_on_c, 0, 38, 100
3, 1949, Note_off_c, 0, 41, 0
3, 2880, Note_off_c, 0, 38, 0
3, 2880, Note_on_c, 0, 36, 100
3, 3840, Note_off_c, 0, 36, 0
3, 3840, Note_on_c, 0, 34, 100
3, 4800, Note_off_c, 0, 34, 0
3, 4800, Note_on_c, 0, 33, 100
3, 4980, Note_on_c, 0, 45, 48
3, 5100, Note_off_c, 0, 33, 0
3, 5130, Note_on_c, 0, 44, 64
3, 5160, Note_off_c, 0, 45, 0
3, 5280, Note_on_c, 0, 43, 79
3, 5310, Note_off_c, 0, 44, 0
3, 5430, Note_on_c, 0, 41, 90
3, 5460, Note_off_c, 0, 43, 0
3, 5580, Note_on_c, 0, 40, 103
3, 5610, Note_off_c, 0, 41, 0
3, 5760, Note_off_c, 0, 40, 0
3, 5760, Note_on_c, 0, 38, 100
3, 6720, Note_off_c, 0, 38, 0
3, 6720, Note_on_c, 0, 36, 100
3, 7680, Note_off_c, 0, 36, 0
3, 7680, Note_on_c, 0, 34, 100
3, 8640, Note_off_c, 0, 34, 0
3, 8640, Note_on_c, 0, 33, 100
3, 8820, Note_on_c, 0, 45, 48
3, 8880, Note_off_c, 0, 33, 0
3, 8970, Note_on_c, 0, 44, 64
3, 9000, Note_off_c, 0, 45, 0
3, 9120, Note_on_c, 0, 43, 79
3, 9150, Note_off_c, 0, 44, 0
3, 9270, Note_on_c, 0, 41, 90
3, 9300, Note_off_c, 0, 43, 0
3, 9420, Note_on_c, 0, 40, 103
3, 9450, Note_off_c, 0, 41, 0
3, 9600, Note_off_c, 0, 40, 0
3, 9600, Note_on_c, 0, 38, 100
3, 10560, Note_off_c, 0, 38, 0
3, 10560, Note_on_c, 0, 36, 100
3, 11520, Note_off_c, 0, 36, 0
3, 11520, Note_on_c, 0, 34, 100
3, 12480, Note_off_c, 0, 34, 0
3, 12480, Note_on_c, 0, 33, 100
3, 12660, Note_on_c, 0, 45, 48
3, 12780, Note_off_c, 0, 33, 0
3, 12810, Note_on_c, 0, 44, 64
3, 12840, Note_off_c, 0, 45, 0
3, 12960, Note_on_c, 0, 43, 79
3, 12990, Note_off_c, 0, 44, 0
3, 13110, Note_on_c, 0, 41, 90
3, 13140, Note_off_c, 0, 43, 0
3, 13260, Note_on_c, 0, 40, 103
3, 13290, Note_off_c, 0, 41, 0
3, 13440, Note_off_c, 0, 40, 0
3, 13440, Note_on_c, 0, 38, 100
3, 14400, Note_off_c, 0, 38, 0
3, 14400, Note_on_c, 0, 36, 100
3, 15360, Note_off_c, 0, 36, 0
3, 15360, Note_on_c, 0, 34, 100
3, 16320, Note_off_c, 0, 34, 0
3, 16320, Note_on_c, 0, 33, 100
3, 16950, Note_on_c, 0, 36, 90
3, 16972, Note_off_c, 0, 33, 0
3, 17100, Note_on_c, 0, 37, 103
3, 17130, Note_off_c, 0, 36, 0
3, 17280, Note_off_c, 0, 37, 0
3, 17280, Note_on_c, 0, 38, 100
3, 18240, Note_off_c, 0, 38, 0
3, 18240, Note_on_c, 0, 41, 100
3, 19200, Note_off_c, 0, 41, 0
3, 19200, Note_on_c, 0, 44, 100
3, 19498, Note_off_c, 0, 44, 0
3, 19500, Note_on_c, 0, 40, 100
3, 19680, Note_on_c, 0, 44, 100
3, 19735, Note_off_c, 0, 40, 0
3, 20160, Note_on_c, 0, 45, 100
3, 20214, Note_off_c, 0, 44, 0
3, 21120, Note_off_c, 0, 45, 0
3, 21120, Note_on_c, 0, 38, 100
3, 22080, Note_off_c, 0, 38, 0
3, 22080, Note_on_c, 0, 41, 100
3, 23040, Note_off_c, 0, 41, 0
3, 23040, Note_on_c, 0, 44, 100
3, 23338, Note_off_c, 0, 44, 0
3, 23340, Note_on_c, 0, 40, 100
3, 23520, Note_on_c, 0, 44, 100
3, 23575, Note_off_c, 0, 40, 0
3, 24000, Note_on_c, 0, 45, 100
3, 24054, Note_off_c, 0, 44, 0
3, 24960, Note_off_c, 0, 45, 0
3, 24960, Note_on_c, 0, 38, 100
3, 25920, Note_off_c, 0, 38, 0
3, 25920, Note_on_c, 0, 36, 100
3, 26880, Note_off_c, 0, 36, 0
3, 26880, Note_on_c, 0, 43, 100
3, 28138, Note_off_c, 0, 43, 0
3, 28170, Note_on_c, 0, 45, 64
3, 28320, Note_on_c, 0, 44, 79
3, 28350, Note_off_c, 0, 45, 0
3, 28470, Note_on_c, 0, 43, 90
3, 28500, Note_off_c, 0, 44, 0
3, 28620, Note_on_c, 0, 41, 103
3, 28650, Note_off_c, 0, 43, 0
3, 28800, Note_off_c, 0, 41, 0
3, 28800, Note_on_c, 0, 38, 100
3, 29760, Note_off_c, 0, 38, 0
3, 29760, Note_on_c, 0, 36, 100
3, 30720, Note_off_c, 0, 36, 0
3, 30720, Note_on_c, 0, 34, 100
3, 31680, Note_off_c, 0, 34, 0
3, 31680, Note_on_c, 0, 33, 100
3, 32010, Note_on_c, 0, 45, 64
3, 32100, Note_off_c, 0, 33, 0
3, 32160, Note_on_c, 0, 44, 79
3, 32190, Note_off_c, 0, 45, 0
3, 32310, Note_on_c, 0, 43, 90
3, 32340, Note_off_c, 0, 44, 0
3, 32460, Note_on_c, 0, 41, 103
3, 32490, Note_off_c, 0, 43, 0
3, 32640, Note_off_c, 0, 41, 0
3, 32640, Note_on_c, 0, 38, 100
3, 33600, Note_off_c, 0, 38, 0
3, 33600, Note_on_c, 0, 36, 100
3, 34560, Note_off_c, 0, 36, 0
3, 34560, Note_on_c, 0, 34, 100
3, 35520, Note_off_c, 0, 34, 0
3, 35520, Note_on_c, 0, 33, 100
3, 36172, Note_off_c, 0, 33, 0
3, 36180, Note_on_c, 0, 38, 79
3, 36300, Note_on_c, 0, 41, 100
3, 36360, Note_off_c, 0, 38, 0
3, 36480, Note_off_c, 0, 41, 0
3, 36480, Note_on_c, 0, 38, 100
3, 37440, Note_off_c, 0, 38, 0
3, 37440, Note_on_c, 0, 36, 100
3, 38400, Note_off_c, 0, 36, 0
3, 38400, Note_on_c, 0, 34, 100
3, 39360, Note_off_c, 0, 34, 0
3, 39360, Note_on_c, 0, 33, 100
3, 40012, Note_off_c, 0, 33, 0
3, 40020, Note_on_c, 0, 38, 79
3, 40140, Note_on_c, 0, 41, 100
3, 40200, Note_off_c, 0, 38, 0
3, 40320, Note_off_c, 0, 41, 0
3, 40320, Note_on_c, 0, 38, 100
3, 41280, Note_off_c, 0, 38, 0
3, 41280, Note_on_c, 0, 36, 100
3, 42240, Note_off_c, 0, 36, 0
3, 42240, Note_on_c, 0, 34, 100
3, 43200, Note_off_c, 0, 34, 0
3, 43200, Note_on_c, 0, 33, 100
3, 43852, Note_off_c, 0, 33, 0
3, 43860, Note_on_c, 0, 38, 79
3, 43980, Note_on_c, 0, 41, 100
3, 44040, Note_off_c, 0, 38, 0
3, 44160, Note_off_c, 0, 41, 0
3, 44160, Note_on_c, 0, 38, 100
3, 45120, Note_off_c, 0, 38, 0
3, 45120, Note_on_c, 0, 41, 100
3, 46080, Note_off_c, 0, 41, 0
3, 46080, Note_on_c, 0, 44, 100
3, 46378, Note_off_c, 0, 44, 0
3, 46380, Note_on_c, 0, 40, 100
3, 46560, Note_on_c, 0, 44, 100
3, 46615, Note_off_c, 0, 40, 0
3, 47040, Note_on_c, 0, 45, 100
3, 47094, Note_off_c, 0, 44, 0
3, 48000, Note_off_c, 0, 45, 0
3, 48000, Note_on_c, 0, 38, 100
3, 48960, Note_off_c, 0, 38, 0
3, 48960, Note_on_c, 0, 41, 100
3, 49920, Note_off_c, 0, 41, 0
3, 49920, Note_on_c, 0, 44, 100
3, 50218, Note_off_c, 0, 44, 0
3, 50220, Note_on_c, 0, 40, 100
3, 50400, Note_on_c, 0, 44, 100
3, 50455, Note_off_c, 0, 40, 0
3, 50880, Note_on_c, 0, 45, 100
3, 50934, Note_off_c, 0, 44, 0
3, 51840, Note_off_c, 0, 45, 0
3, 51840, Note_on_c, 0, 38, 100
3, 52800, Note_off_c, 0, 38, 0
3, 52800, Note_on_c, 0, 36, 100
3, 53760, Note_off_c, 0, 36, 0
3, 53760, Note_on_c, 0, 43, 100
3, 55018, Note_off_c, 0, 43, 0
3, 55050, Note_on_c, 0, 45, 64
3, 55200, Note_on_c, 0, 44, 79
3, 55230, Note_off_c, 0, 45, 0
3, 55350, Note_on_c, 0, 43, 90
3, 55380, Note_off_c, 0, 44, 0
3, 55500, Note_on_c, 0, 41, 103
3, 55530, Note_off_c, 0, 43, 0
3, 55680, Note_off_c, 0, 41, 0
3, 55680, Note_on_c, 0, 38, 100
3, 56640, Note_off_c, 0, 38, 0
3, 56640, Note_on_c, 0, 36, 100
3, 57600, Note_off_c, 0, 36, 0
3, 57600, Note_on_c, 0, 34, 100
3, 58560, Note_off_c, 0, 34, 0
3, 58560, Note_on_c, 0, 33, 100
3, 58890, Note_on_c, 0, 45, 64
3, 58980, Note_off_c, 0, 33, 0
3, 59040, Note_on_c, 0, 44, 79
3, 59070, Note_off_c, 0, 45, 0
3, 59190, Note_on_c, 0, 43, 90
3, 59220, Note_off_c, 0, 44, 0
3, 59340, Note_on_c, 0, 41, 103
3, 59370, Note_off_c, 0, 43, 0
3, 59520, Note_off_c, 0, 41, 0
3, 59520, Note_on_c, 0, 38, 100
3, 60480, Note_off_c, 0, 38, 0
3, 60480, Note_on_c, 0, 36, 100
3, 61440, Note_off_c, 0, 36, 0
3, 61440, Note_on_c, 0, 34, 100
3, 62400, Note_off_c, 0, 34, 0
3, 62400, Note_on_c, 0, 33, 100
3, 63360, Note_off_c, 0, 33, 0
3, 63360, Note_on_c, 0, 34, 100
3, 63840, Note_off_c, 0, 34, 0
3, 63840, Note_on_c, 0, 34, 100
3, 64320, Note_off_c, 0, 34, 0
3, 64320, Note_on_c, 0, 34, 100
3, 64800, Note_off_c, 0, 34, 0
3, 64800, Note_on_c, 0, 34, 100
3, 65280, Note_off_c, 0, 34, 0
3, 65280, Note_on_c, 0, 29, 100
3, 65760, Note_off_c, 0, 29, 0
3, 65760, Note_on_c, 0, 29, 100
3, 66240, Note_off_c, 0, 29, 0
3, 66240, Note_on_c, 0, 29, 100
3, 66720, Note_off_c, 0, 29, 0
3, 66720, Note_on_c, 0, 29, 100
3, 67020, Note_off_c, 0, 29, 0
3, 67050, Note_on_c, 0, 36, 100
3, 67170, Note_off_c, 0, 36, 0
3, 67200, Note_on_c, 0, 34, 100
3, 67680, Note_off_c, 0, 34, 0
3, 67680, Note_on_c, 0, 34, 100
3, 68160, Note_off_c, 0, 34, 0
3, 68160, Note_on_c, 0, 34, 100
3, 68640, Note_off_c, 0, 34, 0
3, 68640, Note_on_c, 0, 34, 100
3, 69120, Note_off_c, 0, 34, 0
3, 69120, Note_on_c, 0, 29, 100
3, 69600, Note_off_c, 0, 29, 0
3, 69600, Note_on_c, 0, 29, 100
3, 70080, Note_off_c, 0, 29, 0
3, 70080, Note_on_c, 0, 29, 100
3, 70560, Note_off_c, 0, 29, 0
3, 70560, Note_on_c, 0, 29, 100
3, 71040, Note_off_c, 0, 29, 0
3, 71040, Note_on_c, 0, 33, 100
3, 71520, Note_off_c, 0, 33, 0
3, 71520, Note_on_c, 0, 33, 100
3, 72000, Note_off_c, 0, 33, 0
3, 72000, Note_on_c, 0, 33, 100
3, 72480, Note_off_c, 0, 33, 0
3, 72480, Note_on_c, 0, 33, 100
3, 72960, Note_off_c, 0, 33, 0
3, 72960, Note_on_c, 0, 34, 100
3, 73920, Note_off_c, 0, 34, 0
3, 73920, Note_on_c, 0, 31, 100
3, 74880, Note_off_c, 0, 31, 0
3, 74880, Note_on_c, 0, 38, 74
3, 75840, Note_off_c, 0, 38, 0
3, 75840, Note_on_c, 0, 36, 100
3, 76800, Note_off_c, 0, 36, 0
3, 76800, Note_on_c, 0, 31, 100
3, 77760, Note_off_c, 0, 31, 0
3, 78090, Note_on_c, 0, 45, 64
3, 78240, Note_on_c, 0, 44, 79
3, 78270, Note_off_c, 0, 45, 0
3, 78390, Note_on_c, 0, 43, 90
3, 78420, Note_off_c, 0, 44, 0
3, 78540, Note_on_c, 0, 41, 103
3, 78570, Note_off_c, 0, 43, 0
3, 78720, Note_off_c, 0, 41, 0
3, 78720, Note_on_c, 0, 38, 100
3, 79680, Note_off_c, 0, 38, 0
3, 79680, Note_on_c, 0, 36, 100
3, 80640, Note_off_c, 0, 36, 0
3, 80640, Note_on_c, 0, 34, 100
3, 81600, Note_off_c, 0, 34, 0
3, 81600, Note_on_c, 0, 33, 100
3, 81780, Note_on_c, 0, 45, 48
3, 81930, Note_on_c, 0, 44, 64
3, 81960, Note_off_c, 0, 45, 0
3, 81960, Note_off_c, 0, 33, 0
3, 82080, Note_on_c, 0, 43, 79
3, 82110, Note_off_c, 0, 44, 0
3, 82230, Note_on_c, 0, 41, 90
3, 82260, Note_off_c, 0, 43, 0
3, 82380, Note_on_c, 0, 40, 103
3, 82410, Note_off_c, 0, 41, 0
3, 82560, Note_off_c, 0, 40, 0
3, 82560, Note_on_c, 0, 38, 100
3, 83520, Note_off_c, 0, 38, 0
3, 83520, Note_on_c, 0, 36, 100
3, 84480, Note_off_c, 0, 36, 0
3, 84480, Note_on_c, 0, 34, 100
3, 85440, Note_off_c, 0, 34, 0
3, 85440, Note_on_c, 0, 33, 100
3, 85620, Note_on_c, 0, 45, 48
3, 85740, Note_off_c, 0, 33, 0
3, 85770, Note_on_c, 0, 44, 64
3, 85800, Note_off_c, 0, 45, 0
3, 85920, Note_on_c, 0, 43, 79
3, 85950, Note_off_c, 0, 44, 0
3, 86070, Note_on_c, 0, 41, 90
3, 86100, Note_off_c, 0, 43, 0
3, 86220, Note_on_c, 0, 40, 103
3, 86250, Note_off_c, 0, 41, 0
3, 86400, Note_off_c, 0, 40, 0
3, 86400, Note_on_c, 0, 38, 100
3, 87360, Note_off_c, 0, 38, 0
3, 87360, Note_on_c, 0, 36, 100
3, 88320, Note_off_c, 0, 36, 0
3, 88320, Note_on_c, 0, 34, 100
3, 89280, Note_off_c, 0, 34, 0
3, 89280, Note_on_c, 0, 33, 100
3, 89460, Note_on_c, 0, 45, 48
3, 89580, Note_off_c, 0, 33, 0
3, 89610, Note_on_c, 0, 44, 64
3, 89640, Note_off_c, 0, 45, 0
3, 89760, Note_on_c, 0, 43, 79
3, 89790, Note_off_c, 0, 44, 0
3, 89910, Note_on_c, 0, 41, 90
3, 89940, Note_off_c, 0, 43, 0
3, 90060, Note_on_c, 0, 40, 103
3, 90090, Note_off_c, 0, 41, 0
3, 90240, Note_off_c, 0, 40, 0
3, 90240, Note_on_c, 0, 38, 100
3, 91200, Note_off_c, 0, 38, 0
3, 91200, Note_on_c, 0, 36, 100
3, 92160, Note_off_c, 0, 36, 0
3, 92160, Note_on_c, 0, 34, 100
3, 93120, Note_off_c, 0, 34, 0
3, 93120, Note_on_c, 0, 33, 100
3, 93300, Note_on_c, 0, 45, 48
3, 93450, Note_on_c, 0, 44, 64
3, 93480, Note_off_c, 0, 45, 0
3, 93480, Note_off_c, 0, 33, 0
3, 93600, Note_on_c, 0, 43, 79
3, 93630, Note_off_c, 0, 44, 0
3, 93750, Note_on_c, 0, 41, 90
3, 93780, Note_off_c, 0, 43, 0
3, 93900, Note_on_c, 0, 40, 103
3, 93930, Note_off_c, 0, 41, 0
3, 94080, Note_off_c, 0, 40, 0
3, 94080, Note_on_c, 0, 38, 100
3, 95040, Note_off_c, 0, 38, 0
3, 95040, Note_on_c, 0, 36, 100
3, 96000, Note_off_c, 0, 36, 0
3, 96000, Note_on_c, 0, 34, 100
3, 96960, Note_off_c, 0, 34, 0
3, 96960, Note_on_c, 0, 33, 100
3, 97140, Note_on_c, 0, 45, 48
3, 97290, Note_on_c, 0, 44, 64
3, 97320, Note_off_c, 0, 45, 0
3, 97380, Note_off_c, 0, 33, 0
3, 97440, Note_on_c, 0, 43, 79
3, 97470, Note_off_c, 0, 44, 0
3, 97590, Note_on_c, 0, 41, 90
3, 97620, Note_off_c, 0, 43, 0
3, 97740, Note_on_c, 0, 40, 103
3, 97770, Note_off_c, 0, 41, 0
3, 97920, Note_off_c, 0, 40, 0
3, 97920, Note_on_c, 0, 38, 100
3, 98880, Note_off_c, 0, 38, 0
3, 98880, Note_on_c, 0, 41, 100
3, 99840, Note_off_c, 0, 41, 0
3, 99840, Note_on_c, 0, 44, 100
3, 100138, Note_off_c, 0, 44, 0
3, 100140, Note_on_c, 0, 40, 100
3, 100320, Note_on_c, 0, 44, 100
3, 100375, Note_off_c, 0, 40, 0
3, 100800, Note_on_c, 0, 45, 100
3, 100854, Note_off_c, 0, 44, 0
3, 101760, Note_off_c, 0, 45, 0
3, 101760, Note_on_c, 0, 38, 100
3, 102720, Note_off_c, 0, 38, 0
3, 102720, Note_on_c, 0, 41, 100
3, 103680, Note_off_c, 0, 41, 0
3, 103680, Note_on_c, 0, 44, 100
3, 103978, Note_off_c, 0, 44, 0
3, 103980, Note_on_c, 0, 40, 100
3, 104160, Note_on_c, 0, 44, 100
3, 104215, Note_off_c, 0, 40, 0
3, 104640, Note_on_c, 0, 45, 100
3, 104694, Note_off_c, 0, 44, 0
3, 105600, Note_off_c, 0, 45, 0
3, 105600, Note_on_c, 0, 38, 100
3, 106560, Note_off_c, 0, 38, 0
3, 106560, Note_on_c, 0, 36, 100
3, 107520, Note_off_c, 0, 36, 0
3, 107520, Note_on_c, 0, 31, 67
3, 108480, Note_off_c, 0, 31, 0
3, 108480, Note_on_c, 0, 34, 100
3, 110580, Note_on_c, 0, 45, 64
3, 110698, Note_off_c, 0, 34, 0
3, 110760, Note_on_c, 0, 44, 79
3, 110820, Note_off_c, 0, 45, 0
3, 111000, Note_off_c, 0, 44, 0
3, 111000, Note_on_c, 0, 43, 90
3, 111188, Note_on_c, 0, 41, 103
3, 111240, Note_off_c, 0, 43, 0
3, 111360, Note_on_c, 0, 38, 100
3, 111422, Note_off_c, 0, 41, 0
3, 112320, Note_off_c, 0, 38, 0
3, 112320, Note_on_c, 0, 36, 100
3, 113280, Note_off_c, 0, 36, 0
3, 113280, Note_on_c, 0, 34, 100
3, 114240, Note_off_c, 0, 34, 0
3, 114240, Note_on_c, 0, 33, 100
3, 114420, Note_on_c, 0, 45, 48
3, 114570, Note_on_c, 0, 44, 64
3, 114600, Note_off_c, 0, 45, 0
3, 114660, Note_off_c, 0, 33, 0
3, 114720, Note_on_c, 0, 43, 79
3, 114750, Note_off_c, 0, 44, 0
3, 114870, Note_on_c, 0, 41, 90
3, 114900, Note_off_c, 0, 43, 0
3, 115020, Note_on_c, 0, 40, 103
3, 115050, Note_off_c, 0, 41, 0
3, 115200, Note_off_c, 0, 40, 0
3, 115200, Note_on_c, 0, 38, 100
3, 116160, Note_off_c, 0, 38, 0
3, 116160, Note_on_c, 0, 36, 100
3, 117120, Note_off_c, 0, 36, 0
3, 117120, Note_on_c, 0, 34, 100
3, 118080, Note_off_c, 0, 34, 0
3, 118080, Note_on_c, 0, 33, 100
3, 118260, Note_on_c, 0, 45, 48
3, 118410, Note_on_c, 0, 44, 64
3, 118440, Note_off_c, 0, 45, 0
3, 118440, Note_off_c, 0, 33, 0
3, 118560, Note_on_c, 0, 43, 79
3, 118590, Note_off_c, 0, 44, 0
3, 118710, Note_on_c, 0, 41, 90
3, 118740, Note_off_c, 0, 43, 0
3, 118860, Note_on_c, 0, 40, 103
3, 118890, Note_off_c, 0, 41, 0
3, 119040, Note_off_c, 0, 40, 0
3, 119040, Note_on_c, 0, 38, 100
3, 120000, Note_off_c, 0, 38, 0
3, 120000, Note_on_c, 0, 36, 100
3, 120960, Note_off_c, 0, 36, 0
3, 120960, Note_on_c, 0, 34, 100
3, 121920, Note_off_c, 0, 34, 0
3, 121920, Note_on_c, 0, 33, 100
3, 122550, Note_on_c, 0, 36, 67
3, 122580, Note_off_c, 0, 33, 0
3, 122700, Note_on_c, 0, 37, 84
3, 122730, Note_off_c, 0, 36, 0
3, 122880, Note_off_c, 0, 37, 0
3, 122880, Note_on_c, 0, 38, 100
3, 123840, Note_off_c, 0, 38, 0
3, 123840, Note_on_c, 0, 36, 100
3, 124800, Note_off_c, 0, 36, 0
3, 124800, Note_on_c, 0, 34, 100
3, 125760, Note_off_c, 0, 34, 0
3, 125760, Note_on_c, 0, 33, 100
3, 126390, Note_on_c, 0, 36, 90
3, 126412, Note_off_c, 0, 33, 0
3, 126540, Note_on_c, 0, 37, 103
3, 126570, Note_off_c, 0, 36, 0
3, 126720, Note_off_c, 0, 37, 0
3, 126720, Note_on_c, 0, 38, 100
3, 127680, Note_off_c, 0, 38, 0
3, 127680, Note_on_c, 0, 41, 100
3, 128640, Note_off_c, 0, 41, 0
3, 128640, Note_on_c, 0, 44, 100
3, 128938, Note_off_c, 0, 44, 0
3, 128940, Note_on_c, 0, 40, 100
3, 129120, Note_on_c, 0, 44, 100
3, 129175, Note_off_c, 0, 40, 0
3, 129600, Note_on_c, 0, 45, 100
3, 129654, Note_off_c, 0, 44, 0
3, 130560, Note_off_c, 0, 45, 0
3, 130560, Note_on_c, 0, 38, 100
3, 131520, Note_off_c, 0, 38, 0
3, 131520, Note_on_c, 0, 41, 100
3, 132480, Note_off_c, 0, 41, 0
3, 132480, Note_on_c, 0, 44, 100
3, 132778, Note_off_c, 0, 44, 0
3, 132780, Note_on_c, 0, 40, 100
3, 132960, Note_on_c, 0, 44, 100
3, 133015, Note_off_c, 0, 40, 0
3, 133440, Note_on_c, 0, 45, 100
3, 133494, Note_off_c, 0, 44, 0
3, 134400, Note_off_c, 0, 45, 0
3, 134400, Note_on_c, 0, 38, 100
3, 135360, Note_off_c, 0, 38, 0
3, 135360, Note_on_c, 0, 36, 100
3, 136320, Note_off_c, 0, 36, 0
3, 136320, Note_on_c, 0, 43, 100
3, 137578, Note_off_c, 0, 43, 0
3, 137610, Note_on_c, 0, 45, 64
3, 137760, Note_on_c, 0, 44, 79
3, 137790, Note_off_c, 0, 45, 0
3, 137910, Note_on_c, 0, 43, 90
3, 137940, Note_off_c, 0, 44, 0
3, 138060, Note_on_c, 0, 41, 103
3, 138090, Note_off_c, 0, 43, 0
3, 138240, Note_off_c, 0, 41, 0
3, 138240, Note_on_c, 0, 38, 100
3, 139200, Note_off_c, 0, 38, 0
3, 139200, Note_on_c, 0, 36, 100
3, 140160, Note_off_c, 0, 36, 0
3, 140160, Note_on_c, 0, 34, 100
3, 141120, Note_off_c, 0, 34, 0
3, 141120, Note_on_c, 0, 33, 100
3, 141300, Note_on_c, 0, 45, 48
3, 141450, Note_on_c, 0, 44, 64
3, 141480, Note_off_c, 0, 45, 0
3, 141480, Note_off_c, 0, 33, 0
3, 141600, Note_on_c, 0, 43, 79
3, 141630, Note_off_c, 0, 44, 0
3, 141750, Note_on_c, 0, 41, 90
3, 141780, Note_off_c, 0, 43, 0
3, 141900, Note_on_c, 0, 40, 103
3, 141930, Note_off_c, 0, 41, 0
3, 142080, Note_off_c, 0, 40, 0
3, 142080, Note_on_c, 0, 38, 114
3, 142320, Note_off_c, 0, 38, 0
3, 142380, Note_on_c, 0, 38, 85
3, 142860, Note_off_c, 0, 38, 0
3, 143040, Note_on_c, 0, 36, 100
3, 144000, Note_off_c, 0, 36, 0
3, 144000, Note_on_c, 0, 34, 100
3, 144960, Note_off_c, 0, 34, 0
3, 144960, Note_on_c, 0, 33, 100
3, 145140, Note_on_c, 0, 45, 48
3, 145290, Note_on_c, 0, 44, 64
3, 145320, Note_off_c, 0, 45, 0
3, 145320, Note_off_c, 0, 33, 0
3, 145440, Note_on_c, 0, 43, 79
3, 145470, Note_off_c, 0, 44, 0
3, 145590, Note_on_c, 0, 41, 90
3, 145620, Note_off_c, 0, 43, 0
3, 145740, Note_on_c, 0, 40, 103
3, 145770, Note_off_c, 0, 41, 0
3, 145920, Note_off_c, 0, 40, 0
3, 145920, Note_on_c, 0, 38, 100
3, 146880, Note_off_c, 0, 38, 0
3, 146880, Note_on_c, 0, 36, 100
3, 147840, Note_off_c, 0, 36, 0
3, 147840, Note_on_c, 0, 34, 100
3, 148800, Note_off_c, 0, 34, 0
3, 148800, Note_on_c, 0, 33, 100
3, 148980, Note_on_c, 0, 45, 48
3, 149130, Note_on_c, 0, 44, 64
3, 149160, Note_off_c, 0, 45, 0
3, 149160, Note_off_c, 0, 33, 0
3, 149280, Note_on_c, 0, 43, 79
3, 149310, Note_off_c, 0, 44, 0
3, 149430, Note_on_c, 0, 41, 90
3, 149460, Note_off_c, 0, 43, 0
3, 149580, Note_on_c, 0, 40, 103
3, 149610, Note_off_c, 0, 41, 0
3, 149760, Note_off_c, 0, 40, 0
3, 149760, Note_on_c, 0, 38, 100
3, 150240, Note_off_c, 0, 38, 0
3, 150240, Note_on_c, 0, 38, 84
3, 150720, Note_off_c, 0, 38, 0
3, 150720, Note_on_c, 0, 36, 100
3, 151200, Note_off_c, 0, 36, 0
3, 151200, Note_on_c, 0, 36, 79
3, 151680, Note_off_c, 0, 36, 0
3, 151680, Note_on_c, 0, 34, 100
3, 152160, Note_off_c, 0, 34, 0
3, 152160, Note_on_c, 0, 34, 72
3, 152640, Note_off_c, 0, 34, 0
3, 152640, Note_on_c, 0, 33, 100
3, 152820, Note_on_c, 0, 45, 48
3, 152970, Note_on_c, 0, 44, 64
3, 153000, Note_off_c, 0, 45, 0
3, 153000, Note_off_c, 0, 33, 0
3, 153120, Note_on_c, 0, 43, 79
3, 153150, Note_off_c, 0, 44, 0
3, 153270, Note_on_c, 0, 41, 90
3, 153300, Note_off_c, 0, 43, 0
3, 153420, Note_on_c, 0, 40, 103
3, 153450, Note_off_c, 0, 41, 0
3, 153600, Note_off_c, 0, 40, 0
3, 153600, Note_on_c, 0, 38, 100
3, 154080, Note_off_c, 0, 38, 0
3, 154080, Note_on_c, 0, 38, 84
3, 154560, Note_off_c, 0, 38, 0
3, 154560, Note_on_c, 0, 36, 100
3, 155040, Note_off_c, 0, 36, 0
3, 155040, Note_on_c, 0, 36, 79
3, 155520, Note_off_c, 0, 36, 0
3, 155520, Note_on_c, 0, 34, 100
3, 156000, Note_off_c, 0, 34, 0
3, 156000, Note_on_c, 0, 34, 72
3, 156480, Note_off_c, 0, 34, 0
3, 156480, Note_on_c, 0, 33, 100
3, 156660, Note_on_c, 0, 45, 48
3, 156810, Note_on_c, 0, 44, 64
3, 156840, Note_off_c, 0, 45, 0
3, 156840, Note_off_c, 0, 33, 0
3, 156960, Note_on_c, 0, 43, 79
3, 156990, Note_off_c, 0, 44, 0
3, 157110, Note_on_c, 0, 41, 90
3, 157140, Note_off_c, 0, 43, 0
3, 157260, Note_on_c, 0, 40, 103
3, 157290, Note_off_c, 0, 41, 0
3, 157440, Note_off_c, 0, 40, 0
3, 157440, Note_on_c, 0, 38, 100
3, 157920, Note_off_c, 0, 38, 0
3, 157920, Note_on_c, 0, 38, 84
3, 158400, Note_off_c, 0, 38, 0
3, 158400, Note_on_c, 0, 36, 100
3, 158880, Note_off_c, 0, 36, 0
3, 158880, Note_on_c, 0, 36, 79
3, 159360, Note_off_c, 0, 36, 0
3, 159360, Note_on_c, 0, 34, 100
3, 159840, Note_off_c, 0, 34, 0
3, 159840, Note_on_c, 0, 34, 72
3, 160320, Note_off_c, 0, 34, 0
3, 160320, Note_on_c, 0, 33, 100
3, 160500, Note_on_c, 0, 45, 48
3, 160650, Note_on_c, 0, 44, 64
3, 160680, Note_off_c, 0, 45, 0
3, 160680, Note_off_c, 0, 33, 0
3, 160800, Note_on_c, 0, 43, 79
3, 160830, Note_off_c, 0, 44, 0
3, 160950, Note_on_c, 0, 41, 90
3, 160980, Note_off_c, 0, 43, 0
3, 161100, Note_on_c, 0, 40, 103
3, 161130, Note_off_c, 0, 41, 0
3, 161280, Note_off_c, 0, 40, 0
3, 161280, Note_on_c, 0, 38, 100
3, 161760, Note_off_c, 0, 38, 0
3, 161760, Note_on_c, 0, 38, 84
3, 162240, Note_off_c, 0, 38, 0
3, 162240, Note_on_c, 0, 36, 100
3, 162720, Note_off_c, 0, 36, 0
3, 162720, Note_on_c, 0, 36, 79
3, 163200, Note_off_c, 0, 36, 0
3, 163200, Note_on_c, 0, 34, 100
3, 163680, Note_off_c, 0, 34, 0
3, 163680, Note_on_c, 0, 34, 72
3, 164160, Note_off_c, 0, 34, 0
3, 164160, Note_on_c, 0, 33, 100
3, 164340, Note_on_c, 0, 45, 48
3, 164490, Note_on_c, 0, 44, 64
3, 164520, Note_off_c, 0, 45, 0
3, 164520, Note_off_c, 0, 33, 0
3, 164640, Note_on_c, 0, 43, 79
3, 164670, Note_off_c, 0, 44, 0
3, 164790, Note_on_c, 0, 41, 90
3, 164820, Note_off_c, 0, 43, 0
3, 164940, Note_on_c, 0, 40, 93
3, 164970, Note_off_c, 0, 41, 0
3, 165120, Note_off_c, 0, 40, 0
3, 165120, Note_on_c, 0, 38, 90
3, 165600, Note_off_c, 0, 38, 0
3, 165600, Note_on_c, 0, 38, 79
3, 166080, Note_off_c, 0, 38, 0
3, 166080, Note_on_c, 0, 36, 67
3, 166560, Note_off_c, 0, 36, 0
3, 166560, Note_on_c, 0, 36, 56
3, 167040, Note_off_c, 0, 36, 0
3, 167040, Note_on_c, 0, 34, 44
3, 167520, Note_off_c, 0, 34, 0
3, 167520, Note_on_c, 0, 34, 35
3, 168000, Note_off_c, 0, 34, 0
3, 168000, Note_on_c, 0, 33, 23
3, 168180, Note_on_c, 0, 45, 18
3, 168330, Note_on_c, 0, 44, 15
3, 168360, Note_off_c, 0, 45, 0
3, 168360, Note_off_c, 0, 33, 0
3, 168480, Note_on_c, 0, 43, 12
3, 168510, Note_off_c, 0, 44, 0
3, 168630, Note_on_c, 0, 41, 9
3, 168660, Note_off_c, 0, 43, 0
3, 168780, Note_on_c, 0, 40, 5
3, 168810, Note_off_c, 0, 41, 0
3, 168960, Note_off_c, 0, 40, 0
3, 168960, End_track
4, 0, Start_track
4, 0, Title_t, "Flute L"
4, 0, MIDI_port, 0
4, 0, Channel_prefix, 1
4, 0, Control_c, 1, 7, 124
4, 0, Control_c, 1, 10, 34
4, 0, Program_c, 1, 72
4, 4752, Control_c, 1, 11, 77
4, 4872, Control_c, 1, 11, 84
4, 4992, Control_c, 1, 11, 92
4, 5040, Note_on_c, 1, 57, 72
4, 5112, Control_c, 1, 11, 98
4, 5232, Control_c, 1, 11, 106
4, 5280, Note_on_c, 1, 60, 82
4, 5310, Note_off_c, 1, 57, 0
4, 5352, Control_c, 1, 11, 114
4, 5520, Note_on_c, 1, 64, 92
4, 5550, Note_off_c, 1, 60, 0
4, 5760, Note_on_c, 1, 67, 100
4, 5760, Note_on_c, 1, 67, 101
4, 5790, Note_off_c, 1, 64, 0
4, 6420, Note_on_c, 1, 65, 87
4, 6480, Note_off_c, 1, 67, 0
4, 6480, Note_off_c, 1, 67, 0
4, 6660, Note_off_c, 1, 65, 0
4, 6660, Note_on_c, 1, 65, 110
4, 7440, Note_on_c, 1, 64, 72
4, 7470, Note_off_c, 1, 65, 0
4, 7680, Note_off_c, 1, 64, 0
4, 7680, Note_on_c, 1, 64, 100
4, 8400, Note_on_c, 1, 60, 85
4, 8460, Note_off_c, 1, 64, 0
4, 8640, Note_off_c, 1, 60, 0
4, 8640, Note_on_c, 1, 60, 100
4, 9360, Note_on_c, 1, 64, 100
4, 9390, Note_off_c, 1, 60, 0
4, 9594, Control_c, 1, 11, 116
4, 9600, Note_off_c, 1, 64, 0
4, 9600, Note_on_c, 1, 57, 100
4, 9714, Control_c, 1, 11, 111
4, 9834, Control_c, 1, 11, 106
4, 9954, Control_c, 1, 11, 101
4, 10074, Control_c, 1, 11, 97
4, 10194, Control_c, 1, 11, 92
4, 10314, Control_c, 1, 11, 87
4, 10434, Control_c, 1, 11, 82
4, 10554, Control_c, 1, 11, 77
4, 10674, Control_c, 1, 11, 72
4, 10794, Control_c, 1, 11, 67
4, 10914, Control_c, 1, 11, 62
4, 11034, Control_c, 1, 11, 56
4, 11154, Control_c, 1, 11, 51
4, 11274, Control_c, 1, 11, 46
4, 11394, Control_c, 1, 11, 41
4, 11514, Control_c, 1, 11, 36
4, 11520, Note_off_c, 1, 57, 0
4, 31632, Control_c, 1, 11, 77
4, 31752, Control_c, 1, 11, 84
4, 31872, Control_c, 1, 11, 92
4, 31920, Note_on_c, 1, 57, 72
4, 31992, Control_c, 1, 11, 98
4, 32112, Control_c, 1, 11, 106
4, 32160, Note_on_c, 1, 60, 82
4, 32190, Note_off_c, 1, 57, 0
4, 32232, Control_c, 1, 11, 114
4, 32400, Note_on_c, 1, 64, 92
4, 32430, Note_off_c, 1, 60, 0
4, 32640, Note_on_c, 1, 67, 100
4, 32640, Note_on_c, 1, 67, 101
4, 32670, Note_off_c, 1, 64, 0
4, 33300, Note_on_c, 1, 65, 87
4, 33360, Note_off_c, 1, 67, 0
4, 33360, Note_off_c, 1, 67, 0
4, 33540, Note_off_c, 1, 65, 0
4, 33540, Note_on_c, 1, 65, 110
4, 34320, Note_on_c, 1, 64, 72
4, 34350, Note_off_c, 1, 65, 0
4, 34560, Note_off_c, 1, 64, 0
4, 34560, Note_on_c, 1, 64, 100
4, 35280, Note_on_c, 1, 60, 85
4, 35340, Note_off_c, 1, 64, 0
4, 35520, Note_off_c, 1, 60, 0
4, 35520, Note_on_c, 1, 60, 100
4, 36240, Note_on_c, 1, 64, 100
4, 36270, Note_off_c, 1, 60, 0
4, 36474, Control_c, 1, 11, 116
4, 36480, Note_off_c, 1, 64, 0
4, 36480, Note_on_c, 1, 57, 100
4, 36594, Control_c, 1, 11, 111
4, 36714, Control_c, 1, 11, 106
4, 36834, Control_c, 1, 11, 101
4, 36954, Control_c, 1, 11, 97
4, 37074, Control_c, 1, 11, 92
4, 37194, Control_c, 1, 11, 87
4, 37314, Control_c, 1, 11, 82
4, 37434, Control_c, 1, 11, 77
4, 37554, Control_c, 1, 11, 72
4, 37674, Control_c, 1, 11, 67
4, 37794, Control_c, 1, 11, 62
4, 37914, Control_c, 1, 11, 56
4, 38034, Control_c, 1, 11, 51
4, 38154, Control_c, 1, 11, 46
4, 38274, Control_c, 1, 11, 41
4, 38394, Control_c, 1, 11, 36
4, 38400, Note_off_c, 1, 57, 0
4, 40344, Control_c, 1, 11, 41
4, 40464, Control_c, 1, 11, 72
4, 40584, Control_c, 1, 11, 105
4, 40800, Note_on_c, 1, 67, 101
4, 41070, Note_on_c, 1, 65, 108
4, 41100, Note_off_c, 1, 67, 0
4, 41280, Note_on_c, 1, 62, 87
4, 41280, Note_on_c, 1, 62, 87
4, 41310, Note_off_c, 1, 65, 0
4, 41400, Control_c, 1, 11, 90
4, 41520, Control_c, 1, 11, 84
4, 41640, Control_c, 1, 11, 77
4, 41760, Note_off_c, 1, 62, 0
4, 41760, Control_c, 1, 11, 71
4, 41880, Control_c, 1, 11, 64
4, 42000, Control_c, 1, 11, 57
4, 42120, Control_c, 1, 11, 51
4, 42210, Note_off_c, 1, 62, 0
4, 44184, Control_c, 1, 11, 41
4, 44304, Control_c, 1, 11, 72
4, 44424, Control_c, 1, 11, 105
4, 44640, Note_on_c, 1, 67, 101
4, 44910, Note_on_c, 1, 65, 108
4, 44940, Note_off_c, 1, 67, 0
4, 45120, Note_on_c, 1, 62, 87
4, 45120, Note_on_c, 1, 62, 87
4, 45150, Note_off_c, 1, 65, 0
4, 45240, Control_c, 1, 11, 90
4, 45360, Control_c, 1, 11, 84
4, 45480, Control_c, 1, 11, 77
4, 45600, Note_off_c, 1, 62, 0
4, 45600, Control_c, 1, 11, 71
4, 45720, Control_c, 1, 11, 64
4, 45840, Control_c, 1, 11, 57
4, 45960, Control_c, 1, 11, 51
4, 46050, Note_off_c, 1, 62, 0
4, 58512, Control_c, 1, 11, 77
4, 58632, Control_c, 1, 11, 84
4, 58752, Control_c, 1, 11, 92
4, 58800, Note_on_c, 1, 57, 72
4, 58872, Control_c, 1, 11, 98
4, 58992, Control_c, 1, 11, 106
4, 59040, Note_on_c, 1, 60, 82
4, 59070, Note_off_c, 1, 57, 0
4, 59112, Control_c, 1, 11, 114
4, 59280, Note_on_c, 1, 64, 92
4, 59310, Note_off_c, 1, 60, 0
4, 59520, Note_on_c, 1, 67, 100
4, 59520, Note_on_c, 1, 67, 101
4, 59550, Note_off_c, 1, 64, 0
4, 60180, Note_on_c, 1, 65, 87
4, 60240, Note_off_c, 1, 67, 0
4, 60240, Note_off_c, 1, 67, 0
4, 60420, Note_off_c, 1, 65, 0
4, 60420, Note_on_c, 1, 65, 110
4, 61200, Note_on_c, 1, 64, 72
4, 61230, Note_off_c, 1, 65, 0
4, 61440, Note_off_c, 1, 64, 0
4, 61440, Note_on_c, 1, 64, 100
4, 62340, Note_on_c, 1, 60, 80
4, 62346, Control_c, 1, 11, 114
4, 62370, Note_off_c, 1, 64, 0
4, 62466, Control_c, 1, 11, 111
4, 62586, Control_c, 1, 11, 108
4, 62706, Control_c, 1, 11, 105
4, 62826, Control_c, 1, 11, 101
4, 62946, Control_c, 1, 11, 98
4, 63066, Control_c, 1, 11, 95
4, 63186, Control_c, 1, 11, 92
4, 63300, Note_off_c, 1, 60, 0
4, 63306, Control_c, 1, 11, 88
4, 81552, Control_c, 1, 11, 77
4, 81672, Control_c, 1, 11, 84
4, 81792, Control_c, 1, 11, 92
4, 81840, Note_on_c, 1, 57, 72
4, 81912, Control_c, 1, 11, 98
4, 82032, Control_c, 1, 11, 106
4, 82080, Note_on_c, 1, 60, 82
4, 82110, Note_off_c, 1, 57, 0
4, 82152, Control_c, 1, 11, 114
4, 82320, Note_on_c, 1, 64, 92
4, 82350, Note_off_c, 1, 60, 0
4, 82560, Note_on_c, 1, 67, 100
4, 82560, Note_on_c, 1, 67, 101
4, 82590, Note_off_c, 1, 64, 0
4, 83220, Note_on_c, 1, 65, 87
4, 83280, Note_off_c, 1, 67, 0
4, 83280, Note_off_c, 1, 67, 0
4, 83460, Note_off_c, 1, 65, 0
4, 83460, Note_on_c, 1, 65, 110
4, 84240, Note_on_c, 1, 64, 72
4, 84270, Note_off_c, 1, 65, 0
4, 84480, Note_off_c, 1, 64, 0
4, 84480, Note_on_c, 1, 64, 100
4, 85200, Note_on_c, 1, 60, 85
4, 85260, Note_off_c, 1, 64, 0
4, 85440, Note_off_c, 1, 60, 0
4, 85440, Note_on_c, 1, 60, 100
4, 86160, Note_on_c, 1, 64, 100
4, 86190, Note_off_c, 1, 60, 0
4, 86394, Control_c, 1, 11, 116
4, 86400, Note_off_c, 1, 64, 0
4, 86400, Note_on_c, 1, 57, 80
4, 86472, Control_c, 1, 11, 113
4, 86592, Control_c, 1, 11, 110
4, 86712, Control_c, 1, 11, 105
4, 86832, Control_c, 1, 11, 100
4, 86952, Control_c, 1, 11, 95
4, 87072, Control_c, 1, 11, 90
4, 87192, Control_c, 1, 11, 87
4, 87312, Control_c, 1, 11, 82
4, 87432, Control_c, 1, 11, 77
4, 87552, Control_c, 1, 11, 72
4, 87672, Control_c, 1, 11, 67
4, 87792, Control_c, 1, 11, 62
4, 87912, Control_c, 1, 11, 59
4, 88032, Control_c, 1, 11, 54
4, 88152, Control_c, 1, 11, 49
4, 88272, Control_c, 1, 11, 44
4, 88320, Note_off_c, 1, 57, 0
4, 91987, Control_c, 1, 11, 66
4, 92107, Control_c, 1, 11, 77
4, 92227, Control_c, 1, 11, 88
4, 92347, Control_c, 1, 11, 100
4, 92467, Control_c, 1, 11, 111
4, 93360, Note_on_c, 1, 62, 61
4, 93570, Note_on_c, 1, 60, 61
4, 93600, Note_off_c, 1, 62, 0
4, 94020, Note_on_c, 1, 62, 61
4, 94080, Note_off_c, 1, 60, 0
4, 94098, Control_c, 1, 11, 106
4, 94218, Control_c, 1, 11, 101
4, 94338, Control_c, 1, 11, 95
4, 94458, Control_c, 1, 11, 90
4, 94578, Control_c, 1, 11, 84
4, 94698, Control_c, 1, 11, 77
4, 94818, Control_c, 1, 11, 72
4, 94938, Control_c, 1, 11, 66
4, 95058, Control_c, 1, 11, 61
4, 95178, Control_c, 1, 11, 54
4, 95298, Control_c, 1, 11, 48
4, 95418, Control_c, 1, 11, 43
4, 95520, Note_off_c, 1, 62, 0
4, 95538, Control_c, 1, 11, 36
4, 95754, Control_c, 1, 11, 40
4, 95874, Control_c, 1, 11, 59
4, 95994, Control_c, 1, 11, 79
4, 96000, Note_on_c, 1, 65, 111
4, 96114, Control_c, 1, 11, 98
4, 96630, Note_off_c, 1, 65, 0
4, 96630, Note_on_c, 1, 67, 90
4, 96780, Note_off_c, 1, 67, 0
4, 96780, Note_on_c, 1, 65, 71
4, 96918, Control_c, 1, 11, 97
4, 96960, Note_off_c, 1, 65, 0
4, 96960, Note_on_c, 1, 64, 111
4, 97038, Control_c, 1, 11, 92
4, 97158, Control_c, 1, 11, 87
4, 97278, Control_c, 1, 11, 82
4, 97398, Control_c, 1, 11, 77
4, 97518, Control_c, 1, 11, 72
4, 97638, Control_c, 1, 11, 67
4, 97758, Control_c, 1, 11, 62
4, 97878, Control_c, 1, 11, 56
4, 97998, Control_c, 1, 11, 51
4, 98118, Control_c, 1, 11, 46
4, 98238, Control_c, 1, 11, 41
4, 98400, Note_off_c, 1, 64, 0
4, 99756, Control_c, 1, 11, 56
4, 99876, Control_c, 1, 11, 103
4, 101850, Control_c, 1, 11, 114
4, 102510, Note_on_c, 1, 67, 57
4, 102660, Note_on_c, 1, 65, 57
4, 102690, Note_off_c, 1, 67, 0
4, 102834, Control_c, 1, 11, 90
4, 102954, Control_c, 1, 11, 84
4, 103074, Control_c, 1, 11, 77
4, 103194, Control_c, 1, 11, 71
4, 103314, Control_c, 1, 11, 64
4, 103434, Control_c, 1, 11, 56
4, 103554, Control_c, 1, 11, 49
4, 103674, Control_c, 1, 11, 43
4, 103680, Note_off_c, 1, 65, 0
4, 104052, Control_c, 1, 11, 106
4, 104400, Note_on_c, 1, 65, 57
4, 104640, Note_off_c, 1, 65, 0
4, 104640, Note_on_c, 1, 64, 44
4, 104802, Control_c, 1, 11, 116
4, 104922, Control_c, 1, 11, 105
4, 105042, Control_c, 1, 11, 92
4, 105162, Control_c, 1, 11, 79
4, 105282, Control_c, 1, 11, 67
4, 105402, Control_c, 1, 11, 54
4, 105522, Control_c, 1, 11, 41
4, 105600, Note_off_c, 1, 64, 0
4, 106260, Control_c, 1, 11, 119
4, 106560, Note_on_c, 1, 64, 57
4, 107040, Note_off_c, 1, 64, 0
4, 107040, Note_on_c, 1, 62, 31
4, 108366, Control_c, 1, 11, 110
4, 108486, Control_c, 1, 11, 106
4, 108606, Control_c, 1, 11, 101
4, 108726, Control_c, 1, 11, 97
4, 108846, Control_c, 1, 11, 92
4, 108966, Control_c, 1, 11, 87
4, 109086, Control_c, 1, 11, 82
4, 109206, Control_c, 1, 11, 77
4, 109326, Control_c, 1, 11, 72
4, 109446, Control_c, 1, 11, 67
4, 109566, Control_c, 1, 11, 62
4, 109686, Control_c, 1, 11, 57
4, 109806, Control_c, 1, 11, 53
4, 109926, Control_c, 1, 11, 48
4, 110046, Control_c, 1, 11, 43
4, 110166, Control_c, 1, 11, 38
4, 110400, Note_off_c, 1, 62, 0
4, 114192, Control_c, 1, 11, 77
4, 114312, Control_c, 1, 11, 84
4, 114432, Control_c, 1, 11, 92
4, 114480, Note_on_c, 1, 57, 43
4, 114552, Control_c, 1, 11, 98
4, 114672, Control_c, 1, 11, 106
4, 114720, Note_on_c, 1, 60, 82
4, 114750, Note_off_c, 1, 57, 0
4, 114792, Control_c, 1, 11, 114
4, 114960, Note_on_c, 1, 64, 92
4, 114990, Note_off_c, 1, 60, 0
4, 115080, Note_on_c, 1, 65, 51
4, 115110, Note_off_c, 1, 64, 0
4, 115140, Note_on_c, 1, 66, 66
4, 115170, Note_off_c, 1, 65, 0
4, 115200, Note_on_c, 1, 67, 100
4, 115230, Note_off_c, 1, 66, 0
4, 115860, Note_on_c, 1, 65, 87
4, 115890, Note_off_c, 1, 67, 0
4, 116100, Note_off_c, 1, 65, 0
4, 116100, Note_on_c, 1, 65, 110
4, 116880, Note_on_c, 1, 64, 72
4, 116910, Note_off_c, 1, 65, 0
4, 117120, Note_off_c, 1, 64, 0
4, 117120, Note_on_c, 1, 64, 100
4, 117840, Note_on_c, 1, 60, 85
4, 117900, Note_off_c, 1, 64, 0
4, 118080, Note_off_c, 1, 60, 0
4, 118080, Note_on_c, 1, 60, 100
4, 118800, Note_on_c, 1, 64, 100
4, 118830, Note_off_c, 1, 60, 0
4, 119034, Control_c, 1, 11, 116
4, 119040, Note_off_c, 1, 64, 0
4, 119040, Note_on_c, 1, 57, 100
4, 119154, Control_c, 1, 11, 111
4, 119274, Control_c, 1, 11, 106
4, 119394, Control_c, 1, 11, 101
4, 119514, Control_c, 1, 11, 97
4, 119634, Control_c, 1, 11, 92
4, 119754, Control_c, 1, 11, 87
4, 119874, Control_c, 1, 11, 82
4, 119994, Control_c, 1, 11, 77
4, 120114, Control_c, 1, 11, 72
4, 120234, Control_c, 1, 11, 67
4, 120354, Control_c, 1, 11, 62
4, 120474, Control_c, 1, 11, 56
4, 120594, Control_c, 1, 11, 51
4, 120714, Control_c, 1, 11, 46
4, 120834, Control_c, 1, 11, 41
4, 120954, Control_c, 1, 11, 36
4, 120960, Note_off_c, 1, 57, 0
4, 141072, Control_c, 1, 11, 77
4, 141192, Control_c, 1, 11, 84
4, 141312, Control_c, 1, 11, 92
4, 141360, Note_on_c, 1, 57, 72
4, 141432, Control_c, 1, 11, 98
4, 141552, Control_c, 1, 11, 106
4, 141600, Note_on_c, 1, 60, 82
4, 141630, Note_off_c, 1, 57, 0
4, 141672, Control_c, 1, 11, 114
4, 141840, Note_on_c, 1, 64, 92
4, 141870, Note_off_c, 1, 60, 0
4, 142080, Note_on_c, 1, 67, 100
4, 142080, Note_on_c, 1, 67, 101
4, 142110, Note_off_c, 1, 64, 0
4, 142740, Note_on_c, 1, 65, 87
4, 142800, Note_off_c, 1, 67, 0
4, 142800, Note_off_c, 1, 67, 0
4, 142980, Note_off_c, 1, 65, 0
4, 142980, Note_on_c, 1, 65, 110
4, 143760, Note_on_c, 1, 64, 72
4, 143790, Note_off_c, 1, 65, 0
4, 144000, Note_off_c, 1, 64, 0
4, 144000, Note_on_c, 1, 64, 100
4, 144720, Note_on_c, 1, 60, 85
4, 144780, Note_off_c, 1, 64, 0
4, 144960, Note_off_c, 1, 60, 0
4, 144960, Note_on_c, 1, 60, 100
4, 145680, Note_on_c, 1, 64, 100
4, 145710, Note_off_c, 1, 60, 0
4, 145914, Control_c, 1, 11, 116
4, 145920, Note_off_c, 1, 64, 0
4, 145920, Note_on_c, 1, 57, 100
4, 145920, Note_on_c, 1, 57, 80
4, 146034, Control_c, 1, 11, 111
4, 146034, Control_c, 1, 11, 111
4, 146154, Control_c, 1, 11, 106
4, 146274, Control_c, 1, 11, 101
4, 146394, Control_c, 1, 11, 97
4, 146514, Control_c, 1, 11, 92
4, 146634, Control_c, 1, 11, 87
4, 146754, Control_c, 1, 11, 82
4, 146834, Control_c, 1, 11, 79
4, 146954, Control_c, 1, 11, 80
4, 147074, Control_c, 1, 11, 84
4, 147194, Control_c, 1, 11, 87
4, 147314, Control_c, 1, 11, 90
4, 147434, Control_c, 1, 11, 92
4, 147554, Control_c, 1, 11, 95
4, 147674, Control_c, 1, 11, 98
4, 147794, Control_c, 1, 11, 101
4, 147840, Note_off_c, 1, 57, 0
4, 147840, Note_off_c, 1, 57, 0
4, 148752, Control_c, 1, 11, 77
4, 148872, Control_c, 1, 11, 84
4, 148992, Control_c, 1, 11, 92
4, 149040, Note_on_c, 1, 57, 72
4, 149112, Control_c, 1, 11, 98
4, 149232, Control_c, 1, 11, 106
4, 149280, Note_on_c, 1, 60, 82
4, 149310, Note_off_c, 1, 57, 0
4, 149352, Control_c, 1, 11, 114
4, 149520, Note_on_c, 1, 64, 92
4, 149550, Note_off_c, 1, 60, 0
4, 149760, Note_on_c, 1, 67, 100
4, 149760, Note_on_c, 1, 67, 101
4, 149790, Note_off_c, 1, 64, 0
4, 150420, Note_on_c, 1, 65, 87
4, 150480, Note_off_c, 1, 67, 0
4, 150480, Note_off_c, 1, 67, 0
4, 150660, Note_off_c, 1, 65, 0
4, 150660, Note_on_c, 1, 65, 110
4, 151440, Note_on_c, 1, 64, 72
4, 151470, Note_off_c, 1, 65, 0
4, 151680, Note_off_c, 1, 64, 0
4, 151680, Note_on_c, 1, 64, 100
4, 152640, Note_off_c, 1, 64, 0
4, 152640, Note_on_c, 1, 65, 100
4, 152940, Note_off_c, 1, 65, 0
4, 152940, Note_on_c, 1, 67, 100
4, 153240, Note_off_c, 1, 67, 0
4, 153240, Note_on_c, 1, 69, 84
4, 153600, Note_off_c, 1, 69, 0
4, 153600, Note_on_c, 1, 69, 100
4, 153882, Control_c, 1, 11, 116
4, 154002, Control_c, 1, 11, 113
4, 154122, Control_c, 1, 11, 110
4, 154242, Control_c, 1, 11, 105
4, 154362, Control_c, 1, 11, 101
4, 154482, Control_c, 1, 11, 97
4, 154602, Control_c, 1, 11, 93
4, 154722, Control_c, 1, 11, 88
4, 154842, Control_c, 1, 11, 85
4, 154962, Control_c, 1, 11, 80
4, 155082, Control_c, 1, 11, 77
4, 155202, Control_c, 1, 11, 72
4, 155322, Control_c, 1, 11, 69
4, 155411, Control_c, 1, 11, 66
4, 155456, Note_off_c, 1, 69, 0
4, 155510, Control_c, 1, 11, 116
4, 155520, Note_on_c, 1, 69, 85
4, 156120, Note_on_c, 1, 67, 84
4, 156172, Note_off_c, 1, 69, 0
4, 156300, Note_on_c, 1, 65, 67
4, 156356, Note_off_c, 1, 67, 0
4, 156480, Note_on_c, 1, 67, 84
4, 156536, Note_off_c, 1, 65, 0
4, 157440, Note_off_c, 1, 67, 0
4, 164112, Control_c, 1, 11, 77
4, 164232, Control_c, 1, 11, 84
4, 164352, Control_c, 1, 11, 92
4, 164400, Note_on_c, 1, 57, 38
4, 164472, Control_c, 1, 11, 98
4, 164592, Control_c, 1, 11, 106
4, 164640, Note_on_c, 1, 60, 56
4, 164670, Note_off_c, 1, 57, 0
4, 164712, Control_c, 1, 11, 114
4, 164880, Note_on_c, 1, 64, 72
4, 164910, Note_off_c, 1, 60, 0
4, 165120, Note_on_c, 1, 67, 88
4, 165120, Note_on_c, 1, 67, 88
4, 165150, Note_off_c, 1, 64, 0
4, 165780, Note_on_c, 1, 65, 72
4, 165840, Note_off_c, 1, 67, 0
4, 165840, Note_off_c, 1, 67, 0
4, 165900, Note_off_c, 1, 65, 0
4, 165900, Note_on_c, 1, 67, 69
4, 166020, Note_off_c, 1, 67, 0
4, 166020, Note_on_c, 1, 65, 66
4, 167040, Note_off_c, 1, 65, 0
4, 167040, Note_on_c, 1, 67, 51
4, 167160, Note_on_c, 1, 65, 48
4, 167220, Note_off_c, 1, 67, 0
4, 167280, Note_on_c, 1, 67, 44
4, 167340, Note_off_c, 1, 65, 0
4, 167580, Note_off_c, 1, 67, 0
4, 167640, Note_on_c, 1, 65, 35
4, 168000, Note_on_c, 1, 69, 30
4, 168060, Note_off_c, 1, 65, 0
4, 168180, Note_off_c, 1, 69, 0
4, 168180, Note_on_c, 1, 67, 14
4, 168954, Control_c, 1, 11, 116
4, 168960, Note_off_c, 1, 67, 0
4, 168960, End_track
5, 0, Start_track
5, 0, Title_t, "Flute R"
5, 0, MIDI_port, 0
5, 0, Channel_prefix, 2
5, 0, Control_c, 2, 7, 124
5, 0, Control_c, 2, 10, 94
5, 0, Program_c, 2, 79
5, 4752, Control_c, 2, 11, 77
5, 4872, Control_c, 2, 11, 84
5, 4992, Control_c, 2, 11, 92
5, 5040, Note_on_c, 2, 62, 72
5, 5112, Control_c, 2, 11, 98
5, 5232, Control_c, 2, 11, 106
5, 5280, Note_on_c, 2, 65, 82
5, 5310, Note_off_c, 2, 62, 0
5, 5352, Control_c, 2, 11, 114
5, 5520, Note_on_c, 2, 69, 92
5, 5550, Note_off_c, 2, 65, 0
5, 5760, Note_on_c, 2, 72, 101
5, 5790, Note_off_c, 2, 69, 0
5, 6420, Note_on_c, 2, 70, 87
5, 6480, Note_off_c, 2, 72, 0
5, 6660, Note_off_c, 2, 70, 0
5, 6660, Note_on_c, 2, 70, 110
5, 7440, Note_on_c, 2, 69, 72
5, 7470, Note_off_c, 2, 70, 0
5, 7680, Note_off_c, 2, 69, 0
5, 7680, Note_on_c, 2, 69, 100
5, 8400, Note_on_c, 2, 65, 85
5, 8460, Note_off_c, 2, 69, 0
5, 8640, Note_off_c, 2, 65, 0
5, 8640, Note_on_c, 2, 65, 100
5, 9360, Note_on_c, 2, 69, 100
5, 9390, Note_off_c, 2, 65, 0
5, 9594, Control_c, 2, 11, 116
5, 9600, Note_off_c, 2, 69, 0
5, 9600, Note_on_c, 2, 62, 100
5, 9714, Control_c, 2, 11, 111
5, 9834, Control_c, 2, 11, 106
5, 9954, Control_c, 2, 11, 101
5, 10074, Control_c, 2, 11, 97
5, 10194, Control_c, 2, 11, 92
5, 10314, Control_c, 2, 11, 87
5, 10434, Control_c, 2, 11, 82
5, 10554, Control_c, 2, 11, 77
5, 10674, Control_c, 2, 11, 72
5, 10794, Control_c, 2, 11, 67
5, 10914, Control_c, 2, 11, 62
5, 11034, Control_c, 2, 11, 56
5, 11154, Control_c, 2, 11, 51
5, 11274, Control_c, 2, 11, 46
5, 11394, Control_c, 2, 11, 41
5, 11514, Control_c, 2, 11, 36
5, 11520, Note_off_c, 2, 62, 0
5, 31632, Control_c, 2, 11, 77
5, 31752, Control_c, 2, 11, 84
5, 31872, Control_c, 2, 11, 92
5, 31920, Note_on_c, 2, 62, 72
5, 31992, Control_c, 2, 11, 98
5, 32112, Control_c, 2, 11, 106
5, 32160, Note_on_c, 2, 65, 82
5, 32190, Note_off_c, 2, 62, 0
5, 32232, Control_c, 2, 11, 114
5, 32400, Note_on_c, 2, 69, 92
5, 32430, Note_off_c, 2, 65, 0
5, 32640, Note_on_c, 2, 72, 101
5, 32670, Note_off_c, 2, 69, 0
5, 33300, Note_on_c, 2, 70, 87
5, 33360, Note_off_c, 2, 72, 0
5, 33540, Note_off_c, 2, 70, 0
5, 33540, Note_on_c, 2, 70, 110
5, 34320, Note_on_c, 2, 69, 72
5, 34350, Note_off_c, 2, 70, 0
5, 34560, Note_off_c, 2, 69, 0
5, 34560, Note_on_c, 2, 69, 100
5, 35280, Note_on_c, 2, 65, 85
5, 35340, Note_off_c, 2, 69, 0
5, 35520, Note_off_c, 2, 65, 0
5, 35520, Note_on_c, 2, 65, 100
5, 36240, Note_on_c, 2, 69, 100
5, 36270, Note_off_c, 2, 65, 0
5, 36474, Control_c, 2, 11, 116
5, 36480, Note_off_c, 2, 69, 0
5, 36480, Note_on_c, 2, 62, 100
5, 36594, Control_c, 2, 11, 111
5, 36714, Control_c, 2, 11, 106
5, 36834, Control_c, 2, 11, 101
5, 36954, Control_c, 2, 11, 97
5, 37074, Control_c, 2, 11, 92
5, 37194, Control_c, 2, 11, 87
5, 37314, Control_c, 2, 11, 82
5, 37434, Control_c, 2, 11, 77
5, 37554, Control_c, 2, 11, 72
5, 37674, Control_c, 2, 11, 67
5, 37794, Control_c, 2, 11, 62
5, 37914, Control_c, 2, 11, 56
5, 38034, Control_c, 2, 11, 51
5, 38154, Control_c, 2, 11, 46
5, 38274, Control_c, 2, 11, 41
5, 38394, Control_c, 2, 11, 36
5, 38400, Note_off_c, 2, 62, 0
5, 40344, Control_c, 2, 11, 41
5, 40464, Control_c, 2, 11, 72
5, 40584, Control_c, 2, 11, 105
5, 40800, Note_on_c, 2, 67, 72
5, 41070, Note_on_c, 2, 65, 67
5, 41100, Note_off_c, 2, 67, 0
5, 41280, Note_on_c, 2, 62, 64
5, 41310, Note_off_c, 2, 65, 0
5, 41400, Control_c, 2, 11, 90
5, 41520, Control_c, 2, 11, 84
5, 41640, Control_c, 2, 11, 77
5, 41760, Control_c, 2, 11, 71
5, 41880, Control_c, 2, 11, 64
5, 42000, Control_c, 2, 11, 57
5, 42120, Control_c, 2, 11, 51
5, 42720, Note_off_c, 2, 62, 0
5, 44184, Control_c, 2, 11, 41
5, 44304, Control_c, 2, 11, 72
5, 44424, Control_c, 2, 11, 105
5, 44640, Note_on_c, 2, 67, 95
5, 44910, Note_on_c, 2, 65, 87
5, 44940, Note_off_c, 2, 67, 0
5, 45120, Note_on_c, 2, 62, 80
5, 45150, Note_off_c, 2, 65, 0
5, 45240, Control_c, 2, 11, 90
5, 45360, Control_c, 2, 11, 84
5, 45480, Control_c, 2, 11, 77
5, 45600, Control_c, 2, 11, 71
5, 45720, Control_c, 2, 11, 64
5, 45840, Control_c, 2, 11, 57
5, 45960, Control_c, 2, 11, 51
5, 46050, Note_off_c, 2, 62, 0
5, 58512, Control_c, 2, 11, 77
5, 58632, Control_c, 2, 11, 84
5, 58752, Control_c, 2, 11, 92
5, 58800, Note_on_c, 2, 62, 72
5, 58872, Control_c, 2, 11, 98
5, 58992, Control_c, 2, 11, 106
5, 59040, Note_on_c, 2, 65, 82
5, 59070, Note_off_c, 2, 62, 0
5, 59112, Control_c, 2, 11, 114
5, 59280, Note_on_c, 2, 69, 92
5, 59310, Note_off_c, 2, 65, 0
5, 59520, Note_on_c, 2, 72, 101
5, 59550, Note_off_c, 2, 69, 0
5, 60180, Note_on_c, 2, 70, 87
5, 60240, Note_off_c, 2, 72, 0
5, 60420, Note_off_c, 2, 70, 0
5, 60420, Note_on_c, 2, 70, 110
5, 61200, Note_on_c, 2, 69, 72
5, 61230, Note_off_c, 2, 70, 0
5, 61440, Note_off_c, 2, 69, 0
5, 61440, Note_on_c, 2, 69, 100
5, 62400, Note_off_c, 2, 69, 0
5, 62400, Note_on_c, 2, 67, 84
5, 63210, Note_off_c, 2, 67, 0
5, 63354, Control_c, 2, 11, 116
5, 114192, Control_c, 2, 11, 77
5, 114312, Control_c, 2, 11, 84
5, 114432, Control_c, 2, 11, 92
5, 114480, Note_on_c, 2, 62, 72
5, 114552, Control_c, 2, 11, 98
5, 114672, Control_c, 2, 11, 106
5, 114720, Note_on_c, 2, 65, 82
5, 114750, Note_off_c, 2, 62, 0
5, 114792, Control_c, 2, 11, 114
5, 114960, Note_on_c, 2, 69, 92
5, 114990, Note_off_c, 2, 65, 0
5, 115200, Note_on_c, 2, 72, 101
5, 115230, Note_off_c, 2, 69, 0
5, 115860, Note_on_c, 2, 70, 87
5, 115920, Note_off_c, 2, 72, 0
5, 116100, Note_off_c, 2, 70, 0
5, 116100, Note_on_c, 2, 70, 110
5, 116880, Note_on_c, 2, 69, 72
5, 116910, Note_off_c, 2, 70, 0
5, 117120, Note_off_c, 2, 69, 0
5, 117120, Note_on_c, 2, 69, 100
5, 117840, Note_on_c, 2, 65, 85
5, 117900, Note_off_c, 2, 69, 0
5, 118080, Note_off_c, 2, 65, 0
5, 118080, Note_on_c, 2, 65, 100
5, 118800, Note_on_c, 2, 69, 100
5, 118830, Note_off_c, 2, 65, 0
5, 119034, Control_c, 2, 11, 116
5, 119040, Note_off_c, 2, 69, 0
5, 119040, Note_on_c, 2, 62, 100
5, 119154, Control_c, 2, 11, 111
5, 119274, Control_c, 2, 11, 106
5, 119394, Control_c, 2, 11, 101
5, 119514, Control_c, 2, 11, 97
5, 119634, Control_c, 2, 11, 92
5, 119754, Control_c, 2, 11, 87
5, 119874, Control_c, 2, 11, 82
5, 119994, Control_c, 2, 11, 77
5, 120114, Control_c, 2, 11, 72
5, 120234, Control_c, 2, 11, 67
5, 120354, Control_c, 2, 11, 62
5, 120474, Control_c, 2, 11, 56
5, 120594, Control_c, 2, 11, 51
5, 120714, Control_c, 2, 11, 46
5, 120834, Control_c, 2, 11, 41
5, 120954, Control_c, 2, 11, 36
5, 120960, Note_off_c, 2, 62, 0
5, 122904, Control_c, 2, 11, 41
5, 123024, Control_c, 2, 11, 72
5, 123144, Control_c, 2, 11, 105
5, 123360, Note_on_c, 2, 67, 72
5, 123630, Note_on_c, 2, 65, 67
5, 123660, Note_off_c, 2, 67, 0
5, 123840, Note_on_c, 2, 62, 64
5, 123870, Note_off_c, 2, 65, 0
5, 123960, Control_c, 2, 11, 90
5, 124080, Control_c, 2, 11, 84
5, 124200, Control_c, 2, 11, 77
5, 124320, Control_c, 2, 11, 71
5, 124440, Control_c, 2, 11, 64
5, 124560, Control_c, 2, 11, 57
5, 124680, Control_c, 2, 11, 51
5, 125280, Note_off_c, 2, 62, 0
5, 141072, Control_c, 2, 11, 77
5, 141192, Control_c, 2, 11, 84
5, 141312, Control_c, 2, 11, 92
5, 141360, Note_on_c, 2, 62, 72
5, 141432, Control_c, 2, 11, 98
5, 141552, Control_c, 2, 11, 106
5, 141600, Note_on_c, 2, 65, 82
5, 141630, Note_off_c, 2, 62, 0
5, 141672, Control_c, 2, 11, 114
5, 141840, Note_on_c, 2, 69, 92
5, 141870, Note_off_c, 2, 65, 0
5, 142080, Note_on_c, 2, 72, 101
5, 142110, Note_off_c, 2, 69, 0
5, 142740, Note_on_c, 2, 70, 87
5, 142800, Note_off_c, 2, 72, 0
5, 142980, Note_off_c, 2, 70, 0
5, 142980, Note_on_c, 2, 70, 110
5, 143760, Note_on_c, 2, 69, 72
5, 143790, Note_off_c, 2, 70, 0
5, 144000, Note_off_c, 2, 69, 0
5, 144000, Note_on_c, 2, 69, 100
5, 144720, Note_on_c, 2, 65, 85
5, 144780, Note_off_c, 2, 69, 0
5, 144960, Note_off_c, 2, 65, 0
5, 144960, Note_on_c, 2, 65, 100
5, 145680, Note_on_c, 2, 69, 100
5, 145710, Note_off_c, 2, 65, 0
5, 145914, Control_c, 2, 11, 116
5, 145920, Note_off_c, 2, 69, 0
5, 145920, Note_on_c, 2, 62, 100
5, 146028, Control_c, 2, 11, 114
5, 146148, Control_c, 2, 11, 113
5, 146268, Control_c, 2, 11, 111
5, 146388, Control_c, 2, 11, 108
5, 146508, Control_c, 2, 11, 106
5, 146628, Control_c, 2, 11, 103
5, 146748, Control_c, 2, 11, 101
5, 146868, Control_c, 2, 11, 98
5, 146988, Control_c, 2, 11, 97
5, 147108, Control_c, 2, 11, 93
5, 147228, Control_c, 2, 11, 92
5, 147348, Control_c, 2, 11, 88
5, 147468, Control_c, 2, 11, 87
5, 147588, Control_c, 2, 11, 85
5, 147708, Control_c, 2, 11, 82
5, 147828, Control_c, 2, 11, 80
5, 147948, Control_c, 2, 11, 77
5, 148068, Control_c, 2, 11, 75
5, 148188, Control_c, 2, 11, 72
5, 148308, Control_c, 2, 11, 71
5, 148428, Control_c, 2, 11, 67
5, 148548, Control_c, 2, 11, 66
5, 148668, Control_c, 2, 11, 62
5, 148788, Control_c, 2, 11, 61
5, 148908, Control_c, 2, 11, 59
5, 149028, Control_c, 2, 11, 56
5, 149148, Control_c, 2, 11, 54
5, 149189, Control_c, 2, 11, 54
5, 149216, Note_off_c, 2, 62, 0
5, 149309, Control_c, 2, 11, 85
5, 149340, Note_on_c, 2, 65, 82
5, 149580, Note_on_c, 2, 69, 92
5, 149610, Note_off_c, 2, 65, 0
5, 149760, Note_on_c, 2, 72, 101
5, 149850, Note_off_c, 2, 69, 0
5, 150420, Note_on_c, 2, 70, 87
5, 150480, Note_off_c, 2, 72, 0
5, 150660, Note_off_c, 2, 70, 0
5, 150660, Note_on_c, 2, 70, 110
5, 151440, Note_on_c, 2, 69, 72
5, 151470, Note_off_c, 2, 70, 0
5, 151680, Note_off_c, 2, 69, 0
5, 151680, Note_on_c, 2, 69, 100
5, 152400, Note_on_c, 2, 65, 85
5, 152460, Note_off_c, 2, 69, 0
5, 152640, Note_off_c, 2, 65, 0
5, 152640, Note_on_c, 2, 65, 100
5, 153120, Note_off_c, 2, 65, 0
5, 153120, Note_on_c, 2, 69, 100
5, 153594, Control_c, 2, 11, 116
5, 153600, Note_off_c, 2, 69, 0
5, 153600, Note_on_c, 2, 62, 100
5, 153714, Control_c, 2, 11, 111
5, 153834, Control_c, 2, 11, 106
5, 153954, Control_c, 2, 11, 101
5, 154074, Control_c, 2, 11, 97
5, 154194, Control_c, 2, 11, 92
5, 154314, Control_c, 2, 11, 87
5, 154434, Control_c, 2, 11, 82
5, 154554, Control_c, 2, 11, 77
5, 154674, Control_c, 2, 11, 72
5, 154794, Control_c, 2, 11, 67
5, 154914, Control_c, 2, 11, 62
5, 155034, Control_c, 2, 11, 56
5, 155154, Control_c, 2, 11, 51
5, 155274, Control_c, 2, 11, 46
5, 155394, Control_c, 2, 11, 41
5, 155514, Control_c, 2, 11, 36
5, 155520, Note_off_c, 2, 62, 0
5, 155520, End_track
6, 0, Start_track
6, 0, Title_t, "Acc Guitar L"
6, 0, MIDI_port, 0
6, 0, Channel_prefix, 3
6, 0, Control_c, 3, 7, 54
6, 0, Control_c, 3, 10, 34
6, 0, Program_c, 3, 24
6, 1920, Note_on_c, 3, 57, 80
6, 1925, Note_on_c, 3, 62, 84
6, 1930, Note_on_c, 3, 65, 85
6, 2760, Note_off_c, 3, 57, 0
6, 2765, Note_off_c, 3, 62, 0
6, 2770, Note_off_c, 3, 65, 0
6, 2880, Note_on_c, 3, 57, 77
6, 2890, Note_on_c, 3, 60, 80
6, 2900, Note_on_c, 3, 65, 82
6, 3720, Note_off_c, 3, 57, 0
6, 3730, Note_off_c, 3, 60, 0
6, 3740, Note_off_c, 3, 65, 0
6, 3840, Note_on_c, 3, 58, 87
6, 3850, Note_on_c, 3, 62, 90
6, 3860, Note_on_c, 3, 65, 93
6, 4680, Note_off_c, 3, 58, 0
6, 4690, Note_off_c, 3, 62, 0
6, 4700, Note_off_c, 3, 65, 0
6, 4800, Note_on_c, 3, 57, 72
6, 4820, Note_on_c, 3, 61, 80
6, 4840, Note_on_c, 3, 64, 88
6, 5640, Note_off_c, 3, 57, 0
6, 5660, Note_off_c, 3, 61, 0
6, 5680, Note_off_c, 3, 64, 0
6, 5760, Note_on_c, 3, 57, 90
6, 5765, Note_on_c, 3, 62, 93
6, 5770, Note_on_c, 3, 65, 95
6, 6240, Note_on_c, 3, 57, 100
6, 6245, Note_on_c, 3, 62, 100
6, 6250, Note_on_c, 3, 65, 100
6, 6300, Note_off_c, 3, 62, 0
6, 6300, Note_off_c, 3, 57, 0
6, 6306, Note_off_c, 3, 65, 0
6, 6354, Note_off_c, 3, 57, 0
6, 6354, Note_off_c, 3, 62, 0
6, 6360, Note_off_c, 3, 65, 0
6, 6720, Note_on_c, 3, 57, 100
6, 6730, Note_on_c, 3, 60, 100
6, 6740, Note_on_c, 3, 65, 100
6, 7146, Note_off_c, 3, 57, 0
6, 7200, Note_on_c, 3, 57, 100
6, 7202, Note_off_c, 3, 65, 0
6, 7204, Note_off_c, 3, 60, 0
6, 7205, Note_on_c, 3, 60, 100
6, 7210, Note_on_c, 3, 65, 100
6, 7314, Note_off_c, 3, 57, 0
6, 7314, Note_off_c, 3, 60, 0
6, 7320, Note_off_c, 3, 65, 0
6, 7680, Note_on_c, 3, 58, 100
6, 7690, Note_on_c, 3, 62, 100
6, 7700, Note_on_c, 3, 65, 100
6, 8154, Note_off_c, 3, 58, 0
6, 8160, Note_off_c, 3, 62, 0
6, 8160, Note_on_c, 3, 58, 87
6, 8165, Note_on_c, 3, 62, 90
6, 8170, Note_on_c, 3, 65, 93
6, 8172, Note_off_c, 3, 65, 0
6, 8274, Note_off_c, 3, 58, 0
6, 8274, Note_off_c, 3, 62, 0
6, 8280, Note_off_c, 3, 65, 0
6, 8640, Note_on_c, 3, 57, 90
6, 8660, Note_on_c, 3, 61, 95
6, 8680, Note_on_c, 3, 64, 98
6, 9090, Note_off_c, 3, 57, 0
6, 9108, Note_off_c, 3, 61, 0
6, 9120, Note_on_c, 3, 57, 88
6, 9125, Note_on_c, 3, 61, 92
6, 9126, Note_off_c, 3, 64, 0
6, 9130, Note_on_c, 3, 64, 97
6, 9234, Note_off_c, 3, 57, 0
6, 9234, Note_off_c, 3, 61, 0
6, 9240, Note_off_c, 3, 64, 0
6, 9600, Note_on_c, 3, 57, 84
6, 9610, Note_on_c, 3, 62, 87
6, 9620, Note_on_c, 3, 65, 90
6, 10440, Note_off_c, 3, 57, 0
6, 10450, Note_off_c, 3, 62, 0
6, 10460, Note_off_c, 3, 65, 0
6, 10560, Note_on_c, 3, 57, 93
6, 10580, Note_on_c, 3, 65, 100
6, 11400, Note_off_c, 3, 57, 0
6, 11420, Note_off_c, 3, 65, 0
6, 11520, Note_on_c, 3, 58, 87
6, 11530, Note_on_c, 3, 62, 93
6, 11540, Note_on_c, 3, 65, 100
6, 12360, Note_off_c, 3, 58, 0
6, 12370, Note_off_c, 3, 62, 0
6, 12380, Note_off_c, 3, 65, 0
6, 12480, Note_on_c, 3, 57, 87
6, 12500, Note_on_c, 3, 61, 93
6, 12520, Note_on_c, 3, 64, 100
6, 13320, Note_off_c, 3, 57, 0
6, 13340, Note_off_c, 3, 61, 0
6, 13360, Note_off_c, 3, 64, 0
6, 13440, Note_on_c, 3, 57, 84
6, 13450, Note_on_c, 3, 62, 87
6, 13460, Note_on_c, 3, 65, 90
6, 14220, Note_on_c, 3, 53, 41
6, 14250, Note_on_c, 3, 57, 46
6, 14280, Note_off_c, 3, 57, 0
6, 14280, Note_on_c, 3, 60, 51
6, 14290, Note_off_c, 3, 62, 0
6, 14300, Note_off_c, 3, 65, 0
6, 14400, Note_off_c, 3, 57, 0
6, 14400, Note_on_c, 3, 57, 72
6, 14420, Note_on_c, 3, 65, 75
6, 15240, Note_off_c, 3, 57, 0
6, 15260, Note_off_c, 3, 65, 0
6, 15360, Note_off_c, 3, 53, 0
6, 15360, Note_off_c, 3, 60, 0
6, 15360, Note_on_c, 3, 58, 77
6, 15370, Note_on_c, 3, 62, 80
6, 15380, Note_on_c, 3, 65, 84
6, 16200, Note_off_c, 3, 58, 0
6, 16210, Note_off_c, 3, 62, 0
6, 16220, Note_off_c, 3, 65, 0
6, 16320, Note_on_c, 3, 57, 80
6, 16340, Note_on_c, 3, 61, 84
6, 16360, Note_on_c, 3, 64, 88
6, 17160, Note_off_c, 3, 57, 0
6, 17180, Note_off_c, 3, 61, 0
6, 17200, Note_off_c, 3, 64, 0
6, 17280, Note_on_c, 3, 57, 84
6, 17290, Note_on_c, 3, 62, 87
6, 17300, Note_on_c, 3, 65, 90
6, 18120, Note_off_c, 3, 57, 0
6, 18130, Note_off_c, 3, 62, 0
6, 18140, Note_off_c, 3, 65, 0
6, 18240, Note_on_c, 3, 57, 93
6, 18246, Note_on_c, 3, 60, 87
6, 18260, Note_on_c, 3, 65, 100
6, 19080, Note_off_c, 3, 57, 0
6, 19086, Note_off_c, 3, 60, 0
6, 19100, Note_off_c, 3, 65, 0
6, 19200, Note_on_c, 3, 59, 87
6, 19210, Note_on_c, 3, 64, 93
6, 19220, Note_on_c, 3, 68, 80
6, 20040, Note_off_c, 3, 59, 0
6, 20050, Note_off_c, 3, 64, 0
6, 20060, Note_off_c, 3, 68, 0
6, 20160, Note_on_c, 3, 57, 88
6, 20171, Note_on_c, 3, 61, 93
6, 20189, Note_on_c, 3, 69, 103
6, 21000, Note_off_c, 3, 57, 0
6, 21011, Note_off_c, 3, 61, 0
6, 21029, Note_off_c, 3, 69, 0
6, 21120, Note_on_c, 3, 57, 84
6, 21130, Note_on_c, 3, 62, 87
6, 21140, Note_on_c, 3, 65, 90
6, 21960, Note_off_c, 3, 57, 0
6, 21970, Note_off_c, 3, 62, 0
6, 21980, Note_off_c, 3, 65, 0
6, 22080, Note_on_c, 3, 57, 93
6, 22086, Note_on_c, 3, 60, 87
6, 22100, Note_on_c, 3, 65, 100
6, 22920, Note_off_c, 3, 57, 0
6, 22926, Note_off_c, 3, 60, 0
6, 22940, Note_off_c, 3, 65, 0
6, 23040, Note_on_c, 3, 56, 87
6, 23050, Note_on_c, 3, 59, 93
6, 23060, Note_on_c, 3, 64, 100
6, 23880, Note_off_c, 3, 56, 0
6, 23890, Note_off_c, 3, 59, 0
6, 23900, Note_off_c, 3, 64, 0
6, 24000, Note_on_c, 3, 57, 87
6, 24010, Note_on_c, 3, 61, 93
6, 24025, Note_on_c, 3, 64, 100
6, 24840, Note_off_c, 3, 57, 0
6, 24850, Note_off_c, 3, 61, 0
6, 24865, Note_off_c, 3, 64, 0
6, 24960, Note_on_c, 3, 57, 84
6, 24970, Note_on_c, 3, 62, 87
6, 24980, Note_on_c, 3, 65, 90
6, 25800, Note_off_c, 3, 57, 0
6, 25810, Note_off_c, 3, 62, 0
6, 25820, Note_off_c, 3, 65, 0
6, 25920, Note_on_c, 3, 57, 93
6, 25926, Note_on_c, 3, 60, 87
6, 25940, Note_on_c, 3, 65, 100
6, 26760, Note_off_c, 3, 57, 0
6, 26766, Note_off_c, 3, 60, 0
6, 26780, Note_off_c, 3, 65, 0
6, 26880, Note_on_c, 3, 55, 93
6, 26886, Note_on_c, 3, 59, 87
6, 26900, Note_on_c, 3, 62, 100
6, 28709, Note_off_c, 3, 55, 0
6, 28718, Note_off_c, 3, 59, 0
6, 28727, Note_off_c, 3, 62, 0
6, 28800, Note_on_c, 3, 57, 93
6, 28811, Note_on_c, 3, 62, 97
6, 28821, Note_on_c, 3, 65, 100
6, 29640, Note_off_c, 3, 57, 0
6, 29651, Note_off_c, 3, 62, 0
6, 29661, Note_off_c, 3, 65, 0
6, 29760, Note_on_c, 3, 57, 85
6, 29780, Note_on_c, 3, 60, 93
6, 29800, Note_on_c, 3, 65, 103
6, 30600, Note_off_c, 3, 57, 0
6, 30620, Note_off_c, 3, 60, 0
6, 30640, Note_off_c, 3, 65, 0
6, 30720, Note_on_c, 3, 58, 87
6, 30740, Note_on_c, 3, 62, 95
6, 30760, Note_on_c, 3, 65, 103
6, 31560, Note_off_c, 3, 58, 0
6, 31580, Note_off_c, 3, 62, 0
6, 31600, Note_off_c, 3, 65, 0
6, 31680, Note_on_c, 3, 57, 87
6, 31700, Note_on_c, 3, 61, 93
6, 31720, Note_on_c, 3, 64, 100
6, 32520, Note_off_c, 3, 57, 0
6, 32540, Note_off_c, 3, 61, 0
6, 32560, Note_off_c, 3, 64, 0
6, 32640, Note_on_c, 3, 57, 93
6, 32651, Note_on_c, 3, 62, 97
6, 32661, Note_on_c, 3, 65, 100
6, 33480, Note_off_c, 3, 57, 0
6, 33491, Note_off_c, 3, 62, 0
6, 33501, Note_off_c, 3, 65, 0
6, 33600, Note_on_c, 3, 57, 85
6, 33620, Note_on_c, 3, 60, 93
6, 33640, Note_on_c, 3, 65, 103
6, 34440, Note_off_c, 3, 57, 0
6, 34460, Note_off_c, 3, 60, 0
6, 34480, Note_off_c, 3, 65, 0
6, 34560, Note_on_c, 3, 58, 87
6, 34580, Note_on_c, 3, 62, 95
6, 34600, Note_on_c, 3, 65, 103
6, 35400, Note_off_c, 3, 58, 0
6, 35420, Note_off_c, 3, 62, 0
6, 35440, Note_off_c, 3, 65, 0
6, 35520, Note_on_c, 3, 57, 87
6, 35540, Note_on_c, 3, 61, 93
6, 35560, Note_on_c, 3, 64, 100
6, 36360, Note_off_c, 3, 57, 0
6, 36380, Note_off_c, 3, 61, 0
6, 36400, Note_off_c, 3, 64, 0
6, 36480, Note_on_c, 3, 57, 93
6, 36491, Note_on_c, 3, 62, 97
6, 36501, Note_on_c, 3, 65, 100
6, 37320, Note_off_c, 3, 57, 0
6, 37331, Note_off_c, 3, 62, 0
6, 37341, Note_off_c, 3, 65, 0
6, 37440, Note_on_c, 3, 57, 85
6, 37460, Note_on_c, 3, 60, 93
6, 37480, Note_on_c, 3, 65, 103
6, 38280, Note_off_c, 3, 57, 0
6, 38300, Note_off_c, 3, 60, 0
6, 38320, Note_off_c, 3, 65, 0
6, 38400, Note_on_c, 3, 58, 87
6, 38420, Note_on_c, 3, 62, 95
6, 38440, Note_on_c, 3, 65, 103
6, 39240, Note_off_c, 3, 58, 0
6, 39260, Note_off_c, 3, 62, 0
6, 39280, Note_off_c, 3, 65, 0
6, 39360, Note_on_c, 3, 57, 87
6, 39380, Note_on_c, 3, 61, 93
6, 39400, Note_on_c, 3, 64, 100
6, 40200, Note_off_c, 3, 57, 0
6, 40220, Note_off_c, 3, 61, 0
6, 40240, Note_off_c, 3, 64, 0
6, 40320, Note_on_c, 3, 57, 93
6, 40331, Note_on_c, 3, 62, 97
6, 40341, Note_on_c, 3, 65, 100
6, 41160, Note_off_c, 3, 57, 0
6, 41171, Note_off_c, 3, 62, 0
6, 41181, Note_off_c, 3, 65, 0
6, 41280, Note_on_c, 3, 57, 85
6, 41300, Note_on_c, 3, 60, 93
6, 41320, Note_on_c, 3, 65, 103
6, 42120, Note_off_c, 3, 57, 0
6, 42140, Note_off_c, 3, 60, 0
6, 42160, Note_off_c, 3, 65, 0
6, 42240, Note_on_c, 3, 58, 87
6, 42260, Note_on_c, 3, 62, 95
6, 42280, Note_on_c, 3, 65, 103
6, 43080, Note_off_c, 3, 58, 0
6, 43100, Note_off_c, 3, 62, 0
6, 43120, Note_off_c, 3, 65, 0
6, 43200, Note_on_c, 3, 57, 87
6, 43220, Note_on_c, 3, 61, 93
6, 43240, Note_on_c, 3, 64, 100
6, 44040, Note_off_c, 3, 57, 0
6, 44060, Note_off_c, 3, 61, 0
6, 44080, Note_off_c, 3, 64, 0
6, 47520, Note_on_c, 3, 57, 75
6, 47525, Note_on_c, 3, 61, 79
6, 47530, Note_on_c, 3, 64, 84
6, 47543, Note_on_c, 3, 69, 92
6, 47705, Note_off_c, 3, 69, 0
6, 47802, Note_off_c, 3, 64, 0
6, 47808, Note_off_c, 3, 61, 0
6, 47880, Note_off_c, 3, 57, 0
6, 55680, Note_on_c, 3, 57, 66
6, 55691, Note_on_c, 3, 62, 67
6, 55701, Note_on_c, 3, 65, 71
6, 56118, Note_off_c, 3, 57, 0
6, 56124, Note_off_c, 3, 62, 0
6, 56136, Note_off_c, 3, 65, 0
6, 56160, Note_on_c, 3, 57, 93
6, 56171, Note_on_c, 3, 62, 97
6, 56175, Note_on_c, 3, 65, 97
6, 56175, Note_on_c, 3, 69, 97
6, 56268, Note_off_c, 3, 57, 0
6, 56274, Note_off_c, 3, 62, 0
6, 56280, Note_off_c, 3, 65, 0
6, 56280, Note_off_c, 3, 69, 0
6, 56640, Note_on_c, 3, 57, 64
6, 56660, Note_on_c, 3, 60, 72
6, 56680, Note_on_c, 3, 65, 80
6, 57078, Note_off_c, 3, 57, 0
6, 57096, Note_off_c, 3, 60, 0
6, 57114, Note_off_c, 3, 65, 0
6, 57120, Note_on_c, 3, 57, 93
6, 57131, Note_on_c, 3, 60, 97
6, 57135, Note_on_c, 3, 65, 98
6, 57135, Note_on_c, 3, 69, 98
6, 57228, Note_off_c, 3, 57, 0
6, 57234, Note_off_c, 3, 60, 0
6, 57240, Note_off_c, 3, 65, 0
6, 57240, Note_off_c, 3, 69, 0
6, 57600, Note_on_c, 3, 58, 72
6, 57620, Note_on_c, 3, 62, 82
6, 57640, Note_on_c, 3, 65, 90
6, 58032, Note_off_c, 3, 58, 0
6, 58050, Note_off_c, 3, 62, 0
6, 58068, Note_off_c, 3, 65, 0
6, 58080, Note_on_c, 3, 58, 88
6, 58091, Note_on_c, 3, 62, 95
6, 58095, Note_on_c, 3, 65, 97
6, 58095, Note_on_c, 3, 70, 97
6, 58188, Note_off_c, 3, 58, 0
6, 58194, Note_off_c, 3, 62, 0
6, 58200, Note_off_c, 3, 65, 0
6, 58200, Note_off_c, 3, 70, 0
6, 58560, Note_on_c, 3, 57, 69
6, 58580, Note_on_c, 3, 61, 74
6, 58600, Note_on_c, 3, 64, 80
6, 58992, Note_off_c, 3, 57, 0
6, 59010, Note_off_c, 3, 61, 0
6, 59028, Note_off_c, 3, 64, 0
6, 59040, Note_on_c, 3, 57, 93
6, 59051, Note_on_c, 3, 61, 98
6, 59055, Note_on_c, 3, 64, 100
6, 59055, Note_on_c, 3, 69, 100
6, 59148, Note_off_c, 3, 57, 0
6, 59154, Note_off_c, 3, 61, 0
6, 59160, Note_off_c, 3, 64, 0
6, 59160, Note_off_c, 3, 69, 0
6, 59520, Note_on_c, 3, 57, 74
6, 59531, Note_on_c, 3, 62, 77
6, 59541, Note_on_c, 3, 65, 82
6, 59958, Note_off_c, 3, 57, 0
6, 59964, Note_off_c, 3, 62, 0
6, 59976, Note_off_c, 3, 65, 0
6, 60000, Note_on_c, 3, 57, 93
6, 60011, Note_on_c, 3, 62, 98
6, 60015, Note_on_c, 3, 65, 98
6, 60015, Note_on_c, 3, 69, 98
6, 60108, Note_off_c, 3, 57, 0
6, 60114, Note_off_c, 3, 62, 0
6, 60120, Note_off_c, 3, 65, 0
6, 60120, Note_off_c, 3, 69, 0
6, 60480, Note_on_c, 3, 57, 64
6, 60500, Note_on_c, 3, 60, 72
6, 60520, Note_on_c, 3, 65, 82
6, 60918, Note_off_c, 3, 57, 0
6, 60936, Note_off_c, 3, 60, 0
6, 60954, Note_off_c, 3, 65, 0
6, 60960, Note_on_c, 3, 57, 95
6, 60971, Note_on_c, 3, 60, 103
6, 60975, Note_on_c, 3, 65, 106
6, 60975, Note_on_c, 3, 69, 106
6, 61068, Note_off_c, 3, 57, 0
6, 61074, Note_off_c, 3, 60, 0
6, 61080, Note_off_c, 3, 65, 0
6, 61080, Note_off_c, 3, 69, 0
6, 61440, Note_on_c, 3, 58, 77
6, 61460, Note_on_c, 3, 62, 82
6, 61480, Note_on_c, 3, 65, 87
6, 61872, Note_off_c, 3, 58, 0
6, 61890, Note_off_c, 3, 62, 0
6, 61908, Note_off_c, 3, 65, 0
6, 61920, Note_on_c, 3, 58, 87
6, 61931, Note_on_c, 3, 62, 90
6, 61935, Note_on_c, 3, 65, 92
6, 61935, Note_on_c, 3, 70, 92
6, 62028, Note_off_c, 3, 58, 0
6, 62034, Note_off_c, 3, 62, 0
6, 62040, Note_off_c, 3, 65, 0
6, 62040, Note_off_c, 3, 70, 0
6, 62400, Note_on_c, 3, 57, 77
6, 62420, Note_on_c, 3, 61, 85
6, 62440, Note_on_c, 3, 64, 93
6, 62832, Note_off_c, 3, 57, 0
6, 62850, Note_off_c, 3, 61, 0
6, 62868, Note_off_c, 3, 64, 0
6, 62880, Note_on_c, 3, 57, 98
6, 62891, Note_on_c, 3, 61, 101
6, 62895, Note_on_c, 3, 64, 103
6, 62895, Note_on_c, 3, 69, 103
6, 62988, Note_off_c, 3, 57, 0
6, 62994, Note_off_c, 3, 61, 0
6, 63000, Note_off_c, 3, 64, 0
6, 63000, Note_off_c, 3, 69, 0
6, 63360, Note_on_c, 3, 58, 77
6, 63371, Note_on_c, 3, 62, 80
6, 63381, Note_on_c, 3, 65, 85
6, 63798, Note_off_c, 3, 58, 0
6, 63804, Note_off_c, 3, 62, 0
6, 63816, Note_off_c, 3, 65, 0
6, 63840, Note_on_c, 3, 58, 84
6, 63851, Note_on_c, 3, 62, 87
6, 63855, Note_on_c, 3, 65, 88
6, 64266, Note_off_c, 3, 58, 0
6, 64272, Note_off_c, 3, 62, 0
6, 64278, Note_off_c, 3, 65, 0
6, 64320, Note_on_c, 3, 58, 82
6, 64340, Note_on_c, 3, 62, 87
6, 64360, Note_on_c, 3, 65, 92
6, 64758, Note_off_c, 3, 58, 0
6, 64776, Note_off_c, 3, 62, 0
6, 64794, Note_off_c, 3, 65, 0
6, 64800, Note_on_c, 3, 58, 85
6, 64811, Note_on_c, 3, 62, 88
6, 64815, Note_on_c, 3, 65, 90
6, 65226, Note_off_c, 3, 58, 0
6, 65232, Note_off_c, 3, 62, 0
6, 65238, Note_off_c, 3, 65, 0
6, 65280, Note_on_c, 3, 57, 75
6, 65300, Note_on_c, 3, 60, 80
6, 65320, Note_on_c, 3, 65, 85
6, 65718, Note_off_c, 3, 57, 0
6, 65736, Note_off_c, 3, 60, 0
6, 65754, Note_off_c, 3, 65, 0
6, 65760, Note_on_c, 3, 57, 92
6, 65771, Note_on_c, 3, 60, 92
6, 65775, Note_on_c, 3, 65, 92
6, 65775, Note_on_c, 3, 69, 92
6, 66204, Note_off_c, 3, 57, 0
6, 66210, Note_off_c, 3, 60, 0
6, 66210, Note_on_c, 3, 57, 97
6, 66216, Note_off_c, 3, 65, 0
6, 66216, Note_off_c, 3, 69, 0
6, 66230, Note_on_c, 3, 60, 97
6, 66250, Note_on_c, 3, 65, 97
6, 66648, Note_off_c, 3, 57, 0
6, 66666, Note_off_c, 3, 60, 0
6, 66684, Note_off_c, 3, 65, 0
6, 66690, Note_on_c, 3, 57, 101
6, 66701, Note_on_c, 3, 60, 101
6, 66705, Note_on_c, 3, 65, 101
6, 66705, Note_on_c, 3, 69, 101
6, 67134, Note_off_c, 3, 57, 0
6, 67140, Note_off_c, 3, 60, 0
6, 67146, Note_off_c, 3, 65, 0
6, 67146, Note_off_c, 3, 69, 0
6, 67200, Note_on_c, 3, 58, 93
6, 67211, Note_on_c, 3, 62, 93
6, 67221, Note_on_c, 3, 65, 93
6, 67638, Note_off_c, 3, 58, 0
6, 67644, Note_off_c, 3, 62, 0
6, 67656, Note_off_c, 3, 65, 0
6, 67680, Note_on_c, 3, 58, 93
6, 67691, Note_on_c, 3, 62, 93
6, 67695, Note_on_c, 3, 65, 93
6, 68106, Note_off_c, 3, 58, 0
6, 68112, Note_off_c, 3, 62, 0
6, 68118, Note_off_c, 3, 65, 0
6, 68160, Note_on_c, 3, 58, 93
6, 68180, Note_on_c, 3, 62, 93
6, 68200, Note_on_c, 3, 65, 93
6, 68598, Note_off_c, 3, 58, 0
6, 68616, Note_off_c, 3, 62, 0
6, 68634, Note_off_c, 3, 65, 0
6, 68640, Note_on_c, 3, 58, 93
6, 68651, Note_on_c, 3, 62, 93
6, 68655, Note_on_c, 3, 65, 93
6, 69066, Note_off_c, 3, 58, 0
6, 69072, Note_off_c, 3, 62, 0
6, 69078, Note_off_c, 3, 65, 0
6, 69120, Note_on_c, 3, 69, 85
6, 69140, Note_on_c, 3, 60, 85
6, 69160, Note_on_c, 3, 65, 85
6, 69558, Note_off_c, 3, 69, 0
6, 69576, Note_off_c, 3, 60, 0
6, 69594, Note_off_c, 3, 65, 0
6, 69600, Note_on_c, 3, 57, 92
6, 69611, Note_on_c, 3, 60, 92
6, 69615, Note_on_c, 3, 65, 92
6, 69615, Note_on_c, 3, 69, 92
6, 70044, Note_off_c, 3, 57, 0
6, 70050, Note_off_c, 3, 60, 0
6, 70050, Note_on_c, 3, 57, 97
6, 70056, Note_off_c, 3, 65, 0
6, 70056, Note_off_c, 3, 69, 0
6, 70070, Note_on_c, 3, 60, 97
6, 70090, Note_on_c, 3, 65, 97
6, 70488, Note_off_c, 3, 57, 0
6, 70506, Note_off_c, 3, 60, 0
6, 70524, Note_off_c, 3, 65, 0
6, 70530, Note_on_c, 3, 57, 101
6, 70541, Note_on_c, 3, 60, 101
6, 70545, Note_on_c, 3, 65, 101
6, 70545, Note_on_c, 3, 69, 101
6, 70974, Note_off_c, 3, 57, 0
6, 70980, Note_off_c, 3, 60, 0
6, 70986, Note_off_c, 3, 65, 0
6, 70986, Note_off_c, 3, 69, 0
6, 71040, Note_on_c, 3, 69, 79
6, 71050, Note_on_c, 3, 60, 84
6, 71060, Note_on_c, 3, 64, 88
6, 71256, Note_off_c, 3, 69, 0
6, 71310, Note_off_c, 3, 60, 0
6, 71310, Note_off_c, 3, 64, 0
6, 71520, Note_on_c, 3, 69, 80
6, 71530, Note_on_c, 3, 60, 82
6, 71540, Note_on_c, 3, 64, 85
6, 71736, Note_off_c, 3, 69, 0
6, 71790, Note_off_c, 3, 60, 0
6, 71790, Note_off_c, 3, 64, 0
6, 72000, Note_on_c, 3, 69, 85
6, 72010, Note_on_c, 3, 60, 88
6, 72020, Note_on_c, 3, 64, 92
6, 72216, Note_off_c, 3, 69, 0
6, 72270, Note_off_c, 3, 60, 0
6, 72270, Note_off_c, 3, 64, 0
6, 72480, Note_on_c, 3, 69, 74
6, 72490, Note_on_c, 3, 72, 79
6, 72500, Note_on_c, 3, 64, 84
6, 72500, Note_on_c, 3, 76, 84
6, 72696, Note_off_c, 3, 69, 0
6, 72722, Note_off_c, 3, 76, 0
6, 72750, Note_off_c, 3, 72, 0
6, 72750, Note_off_c, 3, 64, 0
6, 72960, Note_on_c, 3, 70, 74
6, 72970, Note_on_c, 3, 62, 77
6, 72980, Note_on_c, 3, 65, 82
6, 73176, Note_off_c, 3, 70, 0
6, 73230, Note_off_c, 3, 62, 0
6, 73230, Note_off_c, 3, 65, 0
6, 73440, Note_on_c, 3, 74, 79
6, 73450, Note_on_c, 3, 65, 82
6, 73460, Note_on_c, 3, 70, 87
6, 73656, Note_off_c, 3, 74, 0
6, 73710, Note_off_c, 3, 65, 0
6, 73710, Note_off_c, 3, 70, 0
6, 73930, Note_on_c, 3, 62, 80
6, 73940, Note_on_c, 3, 67, 84
6, 73952, Note_on_c, 3, 71, 77
6, 74672, Note_off_c, 3, 67, 0
6, 74674, Note_off_c, 3, 62, 0
6, 74680, Note_on_c, 3, 59, 40
6, 74690, Note_on_c, 3, 62, 36
6, 74702, Note_on_c, 3, 67, 33
6, 74772, Note_off_c, 3, 59, 0
6, 74802, Note_off_c, 3, 62, 0
6, 74802, Note_off_c, 3, 67, 0
6, 74852, Note_off_c, 3, 71, 0
6, 111360, Note_on_c, 3, 57, 79
6, 111360, Note_on_c, 3, 62, 79
6, 111365, Note_on_c, 3, 65, 79
6, 111370, Note_on_c, 3, 69, 80
6, 111798, Note_off_c, 3, 62, 0
6, 111798, Note_off_c, 3, 57, 0
6, 111803, Note_off_c, 3, 65, 0
6, 111808, Note_off_c, 3, 69, 0
6, 111840, Note_on_c, 3, 57, 84
6, 111840, Note_on_c, 3, 62, 84
6, 111845, Note_on_c, 3, 65, 85
6, 111850, Note_on_c, 3, 69, 87
6, 112008, Note_off_c, 3, 65, 0
6, 112008, Note_off_c, 3, 62, 0
6, 112008, Note_off_c, 3, 57, 0
6, 112014, Note_off_c, 3, 69, 0
6, 112320, Note_on_c, 3, 60, 75
6, 112320, Note_on_c, 3, 57, 75
6, 112325, Note_on_c, 3, 65, 79
6, 112330, Note_on_c, 3, 69, 80
6, 112758, Note_off_c, 3, 57, 0
6, 112758, Note_off_c, 3, 60, 0
6, 112763, Note_off_c, 3, 65, 0
6, 112768, Note_off_c, 3, 69, 0
6, 112800, Note_on_c, 3, 60, 80
6, 112800, Note_on_c, 3, 57, 80
6, 112805, Note_on_c, 3, 65, 84
6, 112810, Note_on_c, 3, 69, 85
6, 112968, Note_off_c, 3, 65, 0
6, 112968, Note_off_c, 3, 57, 0
6, 112968, Note_off_c, 3, 60, 0
6, 112974, Note_off_c, 3, 69, 0
6, 113280, Note_on_c, 3, 58, 75
6, 113280, Note_on_c, 3, 62, 75
6, 113285, Note_on_c, 3, 65, 79
6, 113290, Note_on_c, 3, 70, 80
6, 113718, Note_off_c, 3, 62, 0
6, 113718, Note_off_c, 3, 58, 0
6, 113723, Note_off_c, 3, 65, 0
6, 113728, Note_off_c, 3, 70, 0
6, 113760, Note_on_c, 3, 58, 80
6, 113760, Note_on_c, 3, 62, 80
6, 113765, Note_on_c, 3, 65, 84
6, 113770, Note_on_c, 3, 70, 85
6, 113928, Note_off_c, 3, 65, 0
6, 113928, Note_off_c, 3, 62, 0
6, 113928, Note_off_c, 3, 58, 0
6, 113934, Note_off_c, 3, 70, 0
6, 114240, Note_on_c, 3, 57, 75
6, 114240, Note_on_c, 3, 61, 75
6, 114245, Note_on_c, 3, 64, 79
6, 114250, Note_on_c, 3, 69, 80
6, 114678, Note_off_c, 3, 61, 0
6, 114678, Note_off_c, 3, 57, 0
6, 114683, Note_off_c, 3, 64, 0
6, 114688, Note_off_c, 3, 69, 0
6, 114720, Note_on_c, 3, 57, 80
6, 114720, Note_on_c, 3, 61, 80
6, 114725, Note_on_c, 3, 64, 84
6, 114730, Note_on_c, 3, 69, 85
6, 114888, Note_off_c, 3, 64, 0
6, 114888, Note_off_c, 3, 61, 0
6, 114888, Note_off_c, 3, 57, 0
6, 114894, Note_off_c, 3, 69, 0
6, 115200, Note_on_c, 3, 57, 79
6, 115200, Note_on_c, 3, 62, 79
6, 115205, Note_on_c, 3, 65, 79
6, 115210, Note_on_c, 3, 69, 80
6, 115638, Note_off_c, 3, 62, 0
6, 115638, Note_off_c, 3, 57, 0
6, 115643, Note_off_c, 3, 65, 0
6, 115648, Note_off_c, 3, 69, 0
6, 115680, Note_on_c, 3, 57, 84
6, 115680, Note_on_c, 3, 62, 84
6, 115685, Note_on_c, 3, 65, 85
6, 115690, Note_on_c, 3, 69, 87
6, 115848, Note_off_c, 3, 65, 0
6, 115848, Note_off_c, 3, 62, 0
6, 115848, Note_off_c, 3, 57, 0
6, 115854, Note_off_c, 3, 69, 0
6, 116160, Note_on_c, 3, 57, 75
6, 116160, Note_on_c, 3, 60, 75
6, 116340, Note_on_c, 3, 65, 100
6, 116345, Note_on_c, 3, 69, 101
6, 116370, Note_off_c, 3, 60, 0
6, 116545, Note_off_c, 3, 65, 0
6, 116551, Note_off_c, 3, 69, 0
6, 116598, Note_off_c, 3, 57, 0
6, 116640, Note_on_c, 3, 60, 80
6, 116640, Note_on_c, 3, 57, 80
6, 116645, Note_on_c, 3, 65, 84
6, 116650, Note_on_c, 3, 69, 85
6, 116808, Note_off_c, 3, 65, 0
6, 116808, Note_off_c, 3, 57, 0
6, 116808, Note_off_c, 3, 60, 0
6, 116814, Note_off_c, 3, 69, 0
6, 117120, Note_on_c, 3, 58, 75
6, 117120, Note_on_c, 3, 62, 75
6, 117125, Note_on_c, 3, 65, 79
6, 117130, Note_on_c, 3, 70, 80
6, 117558, Note_off_c, 3, 62, 0
6, 117558, Note_off_c, 3, 58, 0
6, 117563, Note_off_c, 3, 65, 0
6, 117568, Note_off_c, 3, 70, 0
6, 117600, Note_on_c, 3, 58, 80
6, 117600, Note_on_c, 3, 62, 80
6, 117605, Note_on_c, 3, 65, 84
6, 117610, Note_on_c, 3, 70, 85
6, 117768, Note_off_c, 3, 65, 0
6, 117768, Note_off_c, 3, 62, 0
6, 117768, Note_off_c, 3, 58, 0
6, 117774, Note_off_c, 3, 70, 0
6, 118080, Note_on_c, 3, 57, 75
6, 118080, Note_on_c, 3, 61, 75
6, 118085, Note_on_c, 3, 64, 79
6, 118090, Note_on_c, 3, 69, 80
6, 118518, Note_off_c, 3, 61, 0
6, 118518, Note_off_c, 3, 57, 0
6, 118523, Note_off_c, 3, 64, 0
6, 118528, Note_off_c, 3, 69, 0
6, 118560, Note_on_c, 3, 57, 80
6, 118560, Note_on_c, 3, 61, 80
6, 118565, Note_on_c, 3, 64, 84
6, 118570, Note_on_c, 3, 69, 85
6, 118728, Note_off_c, 3, 64, 0
6, 118728, Note_off_c, 3, 61, 0
6, 118728, Note_off_c, 3, 57, 0
6, 118734, Note_off_c, 3, 69, 0
6, 119040, Note_on_c, 3, 57, 79
6, 119040, Note_on_c, 3, 62, 79
6, 119045, Note_on_c, 3, 65, 79
6, 119050, Note_on_c, 3, 69, 80
6, 119478, Note_off_c, 3, 62, 0
6, 119478, Note_off_c, 3, 57, 0
6, 119483, Note_off_c, 3, 65, 0
6, 119488, Note_off_c, 3, 69, 0
6, 119520, Note_on_c, 3, 57, 84
6, 119520, Note_on_c, 3, 62, 84
6, 119525, Note_on_c, 3, 65, 85
6, 119530, Note_on_c, 3, 69, 87
6, 119688, Note_off_c, 3, 65, 0
6, 119688, Note_off_c, 3, 62, 0
6, 119688, Note_off_c, 3, 57, 0
6, 119694, Note_off_c, 3, 69, 0
6, 120000, Note_on_c, 3, 60, 75
6, 120000, Note_on_c, 3, 57, 75
6, 120005, Note_on_c, 3, 65, 79
6, 120010, Note_on_c, 3, 69, 80
6, 120438, Note_off_c, 3, 57, 0
6, 120438, Note_off_c, 3, 60, 0
6, 120443, Note_off_c, 3, 65, 0
6, 120448, Note_off_c, 3, 69, 0
6, 120480, Note_on_c, 3, 60, 80
6, 120480, Note_on_c, 3, 57, 80
6, 120485, Note_on_c, 3, 65, 84
6, 120490, Note_on_c, 3, 69, 85
6, 120648, Note_off_c, 3, 65, 0
6, 120648, Note_off_c, 3, 57, 0
6, 120648, Note_off_c, 3, 60, 0
6, 120654, Note_off_c, 3, 69, 0
6, 120960, Note_on_c, 3, 58, 75
6, 120960, Note_on_c, 3, 62, 75
6, 120965, Note_on_c, 3, 65, 79
6, 120970, Note_on_c, 3, 70, 80
6, 121398, Note_off_c, 3, 62, 0
6, 121398, Note_off_c, 3, 58, 0
6, 121403, Note_off_c, 3, 65, 0
6, 121408, Note_off_c, 3, 70, 0
6, 121440, Note_on_c, 3, 58, 80
6, 121440, Note_on_c, 3, 62, 80
6, 121445, Note_on_c, 3, 65, 84
6, 121450, Note_on_c, 3, 70, 85
6, 121608, Note_off_c, 3, 65, 0
6, 121608, Note_off_c, 3, 62, 0
6, 121608, Note_off_c, 3, 58, 0
6, 121614, Note_off_c, 3, 70, 0
6, 121920, Note_on_c, 3, 57, 75
6, 121920, Note_on_c, 3, 61, 75
6, 121925, Note_on_c, 3, 64, 79
6, 121930, Note_on_c, 3, 69, 80
6, 122358, Note_off_c, 3, 61, 0
6, 122358, Note_off_c, 3, 57, 0
6, 122363, Note_off_c, 3, 64, 0
6, 122368, Note_off_c, 3, 69, 0
6, 122400, Note_on_c, 3, 57, 80
6, 122400, Note_on_c, 3, 61, 80
6, 122405, Note_on_c, 3, 64, 84
6, 122410, Note_on_c, 3, 69, 85
6, 122568, Note_off_c, 3, 64, 0
6, 122568, Note_off_c, 3, 61, 0
6, 122568, Note_off_c, 3, 57, 0
6, 122574, Note_off_c, 3, 69, 0
6, 122880, Note_on_c, 3, 57, 79
6, 122880, Note_on_c, 3, 62, 79
6, 122885, Note_on_c, 3, 65, 79
6, 122890, Note_on_c, 3, 69, 80
6, 123318, Note_off_c, 3, 62, 0
6, 123318, Note_off_c, 3, 57, 0
6, 123323, Note_off_c, 3, 65, 0
6, 123328, Note_off_c, 3, 69, 0
6, 123360, Note_on_c, 3, 57, 84
6, 123360, Note_on_c, 3, 62, 84
6, 123365, Note_on_c, 3, 65, 85
6, 123370, Note_on_c, 3, 69, 87
6, 123528, Note_off_c, 3, 65, 0
6, 123528, Note_off_c, 3, 62, 0
6, 123528, Note_off_c, 3, 57, 0
6, 123534, Note_off_c, 3, 69, 0
6, 123840, Note_on_c, 3, 60, 75
6, 123840, Note_on_c, 3, 57, 75
6, 123845, Note_on_c, 3, 65, 79
6, 123850, Note_on_c, 3, 69, 80
6, 124278, Note_off_c, 3, 57, 0
6, 124278, Note_off_c, 3, 60, 0
6, 124283, Note_off_c, 3, 65, 0
6, 124288, Note_off_c, 3, 69, 0
6, 124320, Note_on_c, 3, 60, 80
6, 124320, Note_on_c, 3, 57, 80
6, 124325, Note_on_c, 3, 65, 84
6, 124330, Note_on_c, 3, 69, 85
6, 124488, Note_off_c, 3, 65, 0
6, 124488, Note_off_c, 3, 57, 0
6, 124488, Note_off_c, 3, 60, 0
6, 124494, Note_off_c, 3, 69, 0
6, 124800, Note_on_c, 3, 58, 75
6, 124800, Note_on_c, 3, 62, 75
6, 124805, Note_on_c, 3, 65, 79
6, 124810, Note_on_c, 3, 70, 80
6, 125238, Note_off_c, 3, 62, 0
6, 125238, Note_off_c, 3, 58, 0
6, 125243, Note_off_c, 3, 65, 0
6, 125248, Note_off_c, 3, 70, 0
6, 125280, Note_on_c, 3, 58, 80
6, 125280, Note_on_c, 3, 62, 80
6, 125285, Note_on_c, 3, 65, 84
6, 125290, Note_on_c, 3, 70, 85
6, 125448, Note_off_c, 3, 65, 0
6, 125448, Note_off_c, 3, 62, 0
6, 125448, Note_off_c, 3, 58, 0
6, 125454, Note_off_c, 3, 70, 0
6, 125760, Note_on_c, 3, 57, 75
6, 125760, Note_on_c, 3, 61, 75
6, 125765, Note_on_c, 3, 64, 79
6, 125770, Note_on_c, 3, 69, 80
6, 126198, Note_off_c, 3, 61, 0
6, 126198, Note_off_c, 3, 57, 0
6, 126203, Note_off_c, 3, 64, 0
6, 126208, Note_off_c, 3, 69, 0
6, 126240, Note_on_c, 3, 57, 80
6, 126240, Note_on_c, 3, 61, 80
6, 126245, Note_on_c, 3, 64, 84
6, 126250, Note_on_c, 3, 69, 85
6, 126408, Note_off_c, 3, 64, 0
6, 126408, Note_off_c, 3, 61, 0
6, 126408, Note_off_c, 3, 57, 0
6, 126414, Note_off_c, 3, 69, 0
6, 126720, Note_on_c, 3, 57, 84
6, 126730, Note_on_c, 3, 62, 87
6, 126740, Note_on_c, 3, 65, 90
6, 127560, Note_off_c, 3, 57, 0
6, 127570, Note_off_c, 3, 62, 0
6, 127580, Note_off_c, 3, 65, 0
6, 127680, Note_on_c, 3, 57, 93
6, 127686, Note_on_c, 3, 60, 87
6, 127700, Note_on_c, 3, 65, 100
6, 128520, Note_off_c, 3, 57, 0
6, 128526, Note_off_c, 3, 60, 0
6, 128540, Note_off_c, 3, 65, 0
6, 128640, Note_on_c, 3, 59, 87
6, 128650, Note_on_c, 3, 64, 93
6, 128660, Note_on_c, 3, 68, 80
6, 129480, Note_off_c, 3, 59, 0
6, 129490, Note_off_c, 3, 64, 0
6, 129500, Note_off_c, 3, 68, 0
6, 129600, Note_on_c, 3, 57, 88
6, 129611, Note_on_c, 3, 61, 93
6, 129629, Note_on_c, 3, 69, 103
6, 130440, Note_off_c, 3, 57, 0
6, 130451, Note_off_c, 3, 61, 0
6, 130469, Note_off_c, 3, 69, 0
6, 130560, Note_on_c, 3, 57, 84
6, 130570, Note_on_c, 3, 62, 87
6, 130580, Note_on_c, 3, 65, 90
6, 131400, Note_off_c, 3, 57, 0
6, 131410, Note_off_c, 3, 62, 0
6, 131420, Note_off_c, 3, 65, 0
6, 131520, Note_on_c, 3, 57, 93
6, 131526, Note_on_c, 3, 60, 87
6, 131540, Note_on_c, 3, 65, 100
6, 132360, Note_off_c, 3, 57, 0
6, 132366, Note_off_c, 3, 60, 0
6, 132380, Note_off_c, 3, 65, 0
6, 132480, Note_on_c, 3, 56, 87
6, 132490, Note_on_c, 3, 59, 93
6, 132500, Note_on_c, 3, 64, 100
6, 133320, Note_off_c, 3, 56, 0
6, 133330, Note_off_c, 3, 59, 0
6, 133340, Note_off_c, 3, 64, 0
6, 133440, Note_on_c, 3, 57, 87
6, 133450, Note_on_c, 3, 61, 93
6, 133465, Note_on_c, 3, 64, 100
6, 134280, Note_off_c, 3, 57, 0
6, 134290, Note_off_c, 3, 61, 0
6, 134305, Note_off_c, 3, 64, 0
6, 134400, Note_on_c, 3, 57, 84
6, 134410, Note_on_c, 3, 62, 87
6, 134420, Note_on_c, 3, 65, 90
6, 135240, Note_off_c, 3, 57, 0
6, 135250, Note_off_c, 3, 62, 0
6, 135260, Note_off_c, 3, 65, 0
6, 135360, Note_on_c, 3, 57, 93
6, 135366, Note_on_c, 3, 60, 87
6, 135380, Note_on_c, 3, 65, 100
6, 136200, Note_off_c, 3, 57, 0
6, 136206, Note_off_c, 3, 60, 0
6, 136220, Note_off_c, 3, 65, 0
6, 136320, Note_on_c, 3, 55, 93
6, 136326, Note_on_c, 3, 59, 87
6, 136340, Note_on_c, 3, 62, 100
6, 138149, Note_off_c, 3, 55, 0
6, 138158, Note_off_c, 3, 59, 0
6, 138167, Note_off_c, 3, 62, 0
6, 138240, Note_on_c, 3, 57, 79
6, 138240, Note_on_c, 3, 62, 79
6, 138245, Note_on_c, 3, 65, 79
6, 138250, Note_on_c, 3, 69, 80
6, 138678, Note_off_c, 3, 62, 0
6, 138678, Note_off_c, 3, 57, 0
6, 138683, Note_off_c, 3, 65, 0
6, 138688, Note_off_c, 3, 69, 0
6, 138720, Note_on_c, 3, 57, 84
6, 138720, Note_on_c, 3, 62, 84
6, 138725, Note_on_c, 3, 65, 85
6, 138730, Note_on_c, 3, 69, 87
6, 138888, Note_off_c, 3, 65, 0
6, 138888, Note_off_c, 3, 62, 0
6, 138888, Note_off_c, 3, 57, 0
6, 138894, Note_off_c, 3, 69, 0
6, 139200, Note_on_c, 3, 60, 75
6, 139200, Note_on_c, 3, 57, 75
6, 139205, Note_on_c, 3, 65, 79
6, 139210, Note_on_c, 3, 69, 80
6, 139638, Note_off_c, 3, 57, 0
6, 139638, Note_off_c, 3, 60, 0
6, 139643, Note_off_c, 3, 65, 0
6, 139648, Note_off_c, 3, 69, 0
6, 139680, Note_on_c, 3, 60, 80
6, 139680, Note_on_c, 3, 57, 80
6, 139685, Note_on_c, 3, 65, 84
6, 139690, Note_on_c, 3, 69, 85
6, 139848, Note_off_c, 3, 65, 0
6, 139848, Note_off_c, 3, 57, 0
6, 139848, Note_off_c, 3, 60, 0
6, 139854, Note_off_c, 3, 69, 0
6, 140160, Note_on_c, 3, 58, 75
6, 140160, Note_on_c, 3, 62, 75
6, 140165, Note_on_c, 3, 65, 79
6, 140170, Note_on_c, 3, 70, 80
6, 140598, Note_off_c, 3, 62, 0
6, 140598, Note_off_c, 3, 58, 0
6, 140603, Note_off_c, 3, 65, 0
6, 140608, Note_off_c, 3, 70, 0
6, 140640, Note_on_c, 3, 58, 80
6, 140640, Note_on_c, 3, 62, 80
6, 140645, Note_on_c, 3, 65, 84
6, 140650, Note_on_c, 3, 70, 85
6, 140808, Note_off_c, 3, 65, 0
6, 140808, Note_off_c, 3, 62, 0
6, 140808, Note_off_c, 3, 58, 0
6, 140814, Note_off_c, 3, 70, 0
6, 141120, Note_on_c, 3, 57, 75
6, 141120, Note_on_c, 3, 61, 75
6, 141125, Note_on_c, 3, 64, 79
6, 141130, Note_on_c, 3, 69, 80
6, 141558, Note_off_c, 3, 61, 0
6, 141558, Note_off_c, 3, 57, 0
6, 141563, Note_off_c, 3, 64, 0
6, 141568, Note_off_c, 3, 69, 0
6, 141600, Note_on_c, 3, 57, 80
6, 141600, Note_on_c, 3, 61, 80
6, 141605, Note_on_c, 3, 64, 84
6, 141610, Note_on_c, 3, 69, 85
6, 141768, Note_off_c, 3, 64, 0
6, 141768, Note_off_c, 3, 61, 0
6, 141768, Note_off_c, 3, 57, 0
6, 141774, Note_off_c, 3, 69, 0
6, 142080, Note_on_c, 3, 57, 79
6, 142080, Note_on_c, 3, 62, 79
6, 142085, Note_on_c, 3, 65, 79
6, 142090, Note_on_c, 3, 69, 80
6, 142518, Note_off_c, 3, 62, 0
6, 142518, Note_off_c, 3, 57, 0
6, 142523, Note_off_c, 3, 65, 0
6, 142528, Note_off_c, 3, 69, 0
6, 142560, Note_on_c, 3, 57, 84
6, 142560, Note_on_c, 3, 62, 84
6, 142565, Note_on_c, 3, 65, 85
6, 142570, Note_on_c, 3, 69, 87
6, 142728, Note_off_c, 3, 65, 0
6, 142728, Note_off_c, 3, 62, 0
6, 142728, Note_off_c, 3, 57, 0
6, 142734, Note_off_c, 3, 69, 0
6, 143040, Note_on_c, 3, 57, 75
6, 143040, Note_on_c, 3, 60, 75
6, 143220, Note_on_c, 3, 65, 100
6, 143225, Note_on_c, 3, 69, 101
6, 143250, Note_off_c, 3, 60, 0
6, 143425, Note_off_c, 3, 65, 0
6, 143431, Note_off_c, 3, 69, 0
6, 143478, Note_off_c, 3, 57, 0
6, 143520, Note_on_c, 3, 60, 80
6, 143520, Note_on_c, 3, 57, 80
6, 143525, Note_on_c, 3, 65, 84
6, 143530, Note_on_c, 3, 69, 85
6, 143688, Note_off_c, 3, 65, 0
6, 143688, Note_off_c, 3, 57, 0
6, 143688, Note_off_c, 3, 60, 0
6, 143694, Note_off_c, 3, 69, 0
6, 144000, Note_on_c, 3, 58, 75
6, 144000, Note_on_c, 3, 62, 75
6, 144005, Note_on_c, 3, 65, 79
6, 144010, Note_on_c, 3, 70, 80
6, 144438, Note_off_c, 3, 62, 0
6, 144438, Note_off_c, 3, 58, 0
6, 144443, Note_off_c, 3, 65, 0
6, 144448, Note_off_c, 3, 70, 0
6, 144480, Note_on_c, 3, 58, 80
6, 144480, Note_on_c, 3, 62, 80
6, 144485, Note_on_c, 3, 65, 84
6, 144490, Note_on_c, 3, 70, 85
6, 144648, Note_off_c, 3, 65, 0
6, 144648, Note_off_c, 3, 62, 0
6, 144648, Note_off_c, 3, 58, 0
6, 144654, Note_off_c, 3, 70, 0
6, 144960, Note_on_c, 3, 57, 75
6, 144960, Note_on_c, 3, 61, 75
6, 144965, Note_on_c, 3, 64, 79
6, 144970, Note_on_c, 3, 69, 80
6, 145398, Note_off_c, 3, 61, 0
6, 145398, Note_off_c, 3, 57, 0
6, 145403, Note_off_c, 3, 64, 0
6, 145408, Note_off_c, 3, 69, 0
6, 145440, Note_on_c, 3, 57, 80
6, 145440, Note_on_c, 3, 61, 80
6, 145445, Note_on_c, 3, 64, 84
6, 145450, Note_on_c, 3, 69, 85
6, 145608, Note_off_c, 3, 64, 0
6, 145608, Note_off_c, 3, 61, 0
6, 145608, Note_off_c, 3, 57, 0
6, 145614, Note_off_c, 3, 69, 0
6, 145920, Note_on_c, 3, 57, 79
6, 145920, Note_on_c, 3, 62, 79
6, 145925, Note_on_c, 3, 65, 79
6, 145930, Note_on_c, 3, 69, 80
6, 146358, Note_off_c, 3, 62, 0
6, 146358, Note_off_c, 3, 57, 0
6, 146363, Note_off_c, 3, 65, 0
6, 146368, Note_off_c, 3, 69, 0
6, 146400, Note_on_c, 3, 57, 84
6, 146400, Note_on_c, 3, 62, 84
6, 146405, Note_on_c, 3, 65, 85
6, 146410, Note_on_c, 3, 69, 87
6, 146568, Note_off_c, 3, 65, 0
6, 146568, Note_off_c, 3, 62, 0
6, 146568, Note_off_c, 3, 57, 0
6, 146574, Note_off_c, 3, 69, 0
6, 146880, Note_on_c, 3, 60, 75
6, 146880, Note_on_c, 3, 57, 75
6, 146885, Note_on_c, 3, 65, 79
6, 146890, Note_on_c, 3, 69, 80
6, 147318, Note_off_c, 3, 57, 0
6, 147318, Note_off_c, 3, 60, 0
6, 147323, Note_off_c, 3, 65, 0
6, 147328, Note_off_c, 3, 69, 0
6, 147360, Note_on_c, 3, 60, 80
6, 147360, Note_on_c, 3, 57, 80
6, 147365, Note_on_c, 3, 65, 84
6, 147370, Note_on_c, 3, 69, 85
6, 147528, Note_off_c, 3, 65, 0
6, 147528, Note_off_c, 3, 57, 0
6, 147528, Note_off_c, 3, 60, 0
6, 147534, Note_off_c, 3, 69, 0
6, 147840, Note_on_c, 3, 58, 75
6, 147840, Note_on_c, 3, 62, 75
6, 147845, Note_on_c, 3, 65, 79
6, 147850, Note_on_c, 3, 70, 80
6, 148278, Note_off_c, 3, 62, 0
6, 148278, Note_off_c, 3, 58, 0
6, 148283, Note_off_c, 3, 65, 0
6, 148288, Note_off_c, 3, 70, 0
6, 148320, Note_on_c, 3, 58, 80
6, 148320, Note_on_c, 3, 62, 80
6, 148325, Note_on_c, 3, 65, 84
6, 148330, Note_on_c, 3, 70, 85
6, 148488, Note_off_c, 3, 65, 0
6, 148488, Note_off_c, 3, 62, 0
6, 148488, Note_off_c, 3, 58, 0
6, 148494, Note_off_c, 3, 70, 0
6, 148800, Note_on_c, 3, 57, 75
6, 148800, Note_on_c, 3, 61, 75
6, 148805, Note_on_c, 3, 64, 79
6, 148810, Note_on_c, 3, 69, 80
6, 149238, Note_off_c, 3, 61, 0
6, 149238, Note_off_c, 3, 57, 0
6, 149243, Note_off_c, 3, 64, 0
6, 149248, Note_off_c, 3, 69, 0
6, 149280, Note_on_c, 3, 57, 80
6, 149280, Note_on_c, 3, 61, 80
6, 149285, Note_on_c, 3, 64, 84
6, 149290, Note_on_c, 3, 69, 85
6, 149448, Note_off_c, 3, 64, 0
6, 149448, Note_off_c, 3, 61, 0
6, 149448, Note_off_c, 3, 57, 0
6, 149454, Note_off_c, 3, 69, 0
6, 149760, Note_on_c, 3, 57, 79
6, 149760, Note_on_c, 3, 62, 79
6, 149765, Note_on_c, 3, 65, 79
6, 149770, Note_on_c, 3, 69, 80
6, 150198, Note_off_c, 3, 62, 0
6, 150198, Note_off_c, 3, 57, 0
6, 150203, Note_off_c, 3, 65, 0
6, 150208, Note_off_c, 3, 69, 0
6, 150240, Note_on_c, 3, 57, 84
6, 150240, Note_on_c, 3, 62, 84
6, 150245, Note_on_c, 3, 65, 85
6, 150250, Note_on_c, 3, 69, 87
6, 150408, Note_off_c, 3, 65, 0
6, 150408, Note_off_c, 3, 62, 0
6, 150408, Note_off_c, 3, 57, 0
6, 150414, Note_off_c, 3, 69, 0
6, 150720, Note_on_c, 3, 60, 75
6, 150720, Note_on_c, 3, 57, 75
6, 150725, Note_on_c, 3, 65, 79
6, 150730, Note_on_c, 3, 69, 80
6, 151158, Note_off_c, 3, 57, 0
6, 151158, Note_off_c, 3, 60, 0
6, 151163, Note_off_c, 3, 65, 0
6, 151168, Note_off_c, 3, 69, 0
6, 151200, Note_on_c, 3, 60, 80
6, 151200, Note_on_c, 3, 57, 80
6, 151205, Note_on_c, 3, 65, 84
6, 151210, Note_on_c, 3, 69, 85
6, 151368, Note_off_c, 3, 65, 0
6, 151368, Note_off_c, 3, 57, 0
6, 151368, Note_off_c, 3, 60, 0
6, 151374, Note_off_c, 3, 69, 0
6, 151680, Note_on_c, 3, 58, 75
6, 151680, Note_on_c, 3, 62, 75
6, 151685, Note_on_c, 3, 65, 79
6, 151690, Note_on_c, 3, 70, 80
6, 152118, Note_off_c, 3, 62, 0
6, 152118, Note_off_c, 3, 58, 0
6, 152123, Note_off_c, 3, 65, 0
6, 152128, Note_off_c, 3, 70, 0
6, 152160, Note_on_c, 3, 58, 80
6, 152160, Note_on_c, 3, 62, 80
6, 152165, Note_on_c, 3, 65, 84
6, 152170, Note_on_c, 3, 70, 85
6, 152328, Note_off_c, 3, 65, 0
6, 152328, Note_off_c, 3, 62, 0
6, 152328, Note_off_c, 3, 58, 0
6, 152334, Note_off_c, 3, 70, 0
6, 152640, Note_on_c, 3, 57, 75
6, 152640, Note_on_c, 3, 61, 75
6, 152645, Note_on_c, 3, 64, 79
6, 152650, Note_on_c, 3, 69, 80
6, 153078, Note_off_c, 3, 61, 0
6, 153078, Note_off_c, 3, 57, 0
6, 153083, Note_off_c, 3, 64, 0
6, 153088, Note_off_c, 3, 69, 0
6, 153120, Note_on_c, 3, 57, 80
6, 153120, Note_on_c, 3, 61, 80
6, 153125, Note_on_c, 3, 64, 84
6, 153130, Note_on_c, 3, 69, 85
6, 153288, Note_off_c, 3, 64, 0
6, 153288, Note_off_c, 3, 61, 0
6, 153288, Note_off_c, 3, 57, 0
6, 153294, Note_off_c, 3, 69, 0
6, 153600, Note_on_c, 3, 57, 79
6, 153600, Note_on_c, 3, 62, 79
6, 153605, Note_on_c, 3, 65, 79
6, 153610, Note_on_c, 3, 69, 80
6, 154038, Note_off_c, 3, 62, 0
6, 154038, Note_off_c, 3, 57, 0
6, 154043, Note_off_c, 3, 65, 0
6, 154048, Note_off_c, 3, 69, 0
6, 154080, Note_on_c, 3, 57, 84
6, 154080, Note_on_c, 3, 62, 84
6, 154085, Note_on_c, 3, 65, 85
6, 154090, Note_on_c, 3, 69, 87
6, 154248, Note_off_c, 3, 65, 0
6, 154248, Note_off_c, 3, 62, 0
6, 154248, Note_off_c, 3, 57, 0
6, 154254, Note_off_c, 3, 69, 0
6, 154560, Note_on_c, 3, 60, 75
6, 154560, Note_on_c, 3, 57, 75
6, 154565, Note_on_c, 3, 65, 79
6, 154570, Note_on_c, 3, 69, 80
6, 154998, Note_off_c, 3, 57, 0
6, 154998, Note_off_c, 3, 60, 0
6, 155003, Note_off_c, 3, 65, 0
6, 155008, Note_off_c, 3, 69, 0
6, 155040, Note_on_c, 3, 60, 80
6, 155040, Note_on_c, 3, 57, 80
6, 155045, Note_on_c, 3, 65, 84
6, 155050, Note_on_c, 3, 69, 85
6, 155208, Note_off_c, 3, 65, 0
6, 155208, Note_off_c, 3, 57, 0
6, 155208, Note_off_c, 3, 60, 0
6, 155214, Note_off_c, 3, 69, 0
6, 155520, Note_on_c, 3, 58, 75
6, 155520, Note_on_c, 3, 62, 75
6, 155525, Note_on_c, 3, 65, 79
6, 155530, Note_on_c, 3, 70, 80
6, 155958, Note_off_c, 3, 62, 0
6, 155958, Note_off_c, 3, 58, 0
6, 155963, Note_off_c, 3, 65, 0
6, 155968, Note_off_c, 3, 70, 0
6, 156000, Note_on_c, 3, 58, 80
6, 156000, Note_on_c, 3, 62, 80
6, 156005, Note_on_c, 3, 65, 84
6, 156010, Note_on_c, 3, 70, 85
6, 156168, Note_off_c, 3, 65, 0
6, 156168, Note_off_c, 3, 62, 0
6, 156168, Note_off_c, 3, 58, 0
6, 156174, Note_off_c, 3, 70, 0
6, 156480, Note_on_c, 3, 57, 75
6, 156480, Note_on_c, 3, 61, 75
6, 156485, Note_on_c, 3, 64, 79
6, 156490, Note_on_c, 3, 69, 80
6, 156918, Note_off_c, 3, 61, 0
6, 156918, Note_off_c, 3, 57, 0
6, 156923, Note_off_c, 3, 64, 0
6, 156928, Note_off_c, 3, 69, 0
6, 156960, Note_on_c, 3, 57, 80
6, 156960, Note_on_c, 3, 61, 80
6, 156965, Note_on_c, 3, 64, 84
6, 156970, Note_on_c, 3, 69, 85
6, 157128, Note_off_c, 3, 64, 0
6, 157128, Note_off_c, 3, 61, 0
6, 157128, Note_off_c, 3, 57, 0
6, 157134, Note_off_c, 3, 69, 0
6, 157440, Note_on_c, 3, 57, 79
6, 157440, Note_on_c, 3, 62, 79
6, 157445, Note_on_c, 3, 65, 79
6, 157450, Note_on_c, 3, 69, 80
6, 157878, Note_off_c, 3, 62, 0
6, 157878, Note_off_c, 3, 57, 0
6, 157883, Note_off_c, 3, 65, 0
6, 157888, Note_off_c, 3, 69, 0
6, 157920, Note_on_c, 3, 57, 84
6, 157920, Note_on_c, 3, 62, 84
6, 157925, Note_on_c, 3, 65, 85
6, 157930, Note_on_c, 3, 69, 87
6, 158088, Note_off_c, 3, 65, 0
6, 158088, Note_off_c, 3, 62, 0
6, 158088, Note_off_c, 3, 57, 0
6, 158094, Note_off_c, 3, 69, 0
6, 158400, Note_on_c, 3, 60, 75
6, 158400, Note_on_c, 3, 57, 75
6, 158405, Note_on_c, 3, 65, 79
6, 158410, Note_on_c, 3, 69, 80
6, 158838, Note_off_c, 3, 57, 0
6, 158838, Note_off_c, 3, 60, 0
6, 158843, Note_off_c, 3, 65, 0
6, 158848, Note_off_c, 3, 69, 0
6, 158880, Note_on_c, 3, 60, 80
6, 158880, Note_on_c, 3, 57, 80
6, 158885, Note_on_c, 3, 65, 84
6, 158890, Note_on_c, 3, 69, 85
6, 159048, Note_off_c, 3, 65, 0
6, 159048, Note_off_c, 3, 57, 0
6, 159048, Note_off_c, 3, 60, 0
6, 159054, Note_off_c, 3, 69, 0
6, 159360, Note_on_c, 3, 58, 75
6, 159360, Note_on_c, 3, 62, 75
6, 159365, Note_on_c, 3, 65, 79
6, 159370, Note_on_c, 3, 70, 80
6, 159798, Note_off_c, 3, 62, 0
6, 159798, Note_off_c, 3, 58, 0
6, 159803, Note_off_c, 3, 65, 0
6, 159808, Note_off_c, 3, 70, 0
6, 159840, Note_on_c, 3, 58, 80
6, 159840, Note_on_c, 3, 62, 80
6, 159845, Note_on_c, 3, 65, 84
6, 159850, Note_on_c, 3, 70, 85
6, 160008, Note_off_c, 3, 65, 0
6, 160008, Note_off_c, 3, 62, 0
6, 160008, Note_off_c, 3, 58, 0
6, 160014, Note_off_c, 3, 70, 0
6, 160320, Note_on_c, 3, 57, 75
6, 160320, Note_on_c, 3, 61, 75
6, 160325, Note_on_c, 3, 64, 79
6, 160330, Note_on_c, 3, 69, 80
6, 160758, Note_off_c, 3, 61, 0
6, 160758, Note_off_c, 3, 57, 0
6, 160763, Note_off_c, 3, 64, 0
6, 160768, Note_off_c, 3, 69, 0
6, 160800, Note_on_c, 3, 57, 80
6, 160800, Note_on_c, 3, 61, 80
6, 160805, Note_on_c, 3, 64, 84
6, 160810, Note_on_c, 3, 69, 85
6, 160968, Note_off_c, 3, 64, 0
6, 160968, Note_off_c, 3, 61, 0
6, 160968, Note_off_c, 3, 57, 0
6, 160974, Note_off_c, 3, 69, 0
6, 161280, Note_on_c, 3, 62, 75
6, 161280, Note_on_c, 3, 57, 75
6, 161285, Note_on_c, 3, 65, 75
6, 161290, Note_on_c, 3, 69, 75
6, 161718, Note_off_c, 3, 57, 0
6, 161718, Note_off_c, 3, 62, 0
6, 161723, Note_off_c, 3, 65, 0
6, 161728, Note_off_c, 3, 69, 0
6, 161760, Note_on_c, 3, 57, 71
6, 161760, Note_on_c, 3, 62, 71
6, 161765, Note_on_c, 3, 65, 71
6, 161770, Note_on_c, 3, 69, 71
6, 161928, Note_off_c, 3, 65, 0
6, 161928, Note_off_c, 3, 62, 0
6, 161928, Note_off_c, 3, 57, 0
6, 161934, Note_off_c, 3, 69, 0
6, 162240, Note_on_c, 3, 60, 66
6, 162240, Note_on_c, 3, 57, 66
6, 162245, Note_on_c, 3, 65, 66
6, 162250, Note_on_c, 3, 69, 66
6, 162678, Note_off_c, 3, 57, 0
6, 162678, Note_off_c, 3, 60, 0
6, 162683, Note_off_c, 3, 65, 0
6, 162688, Note_off_c, 3, 69, 0
6, 162720, Note_on_c, 3, 60, 62
6, 162720, Note_on_c, 3, 57, 62
6, 162725, Note_on_c, 3, 65, 61
6, 162730, Note_on_c, 3, 69, 61
6, 162888, Note_off_c, 3, 65, 0
6, 162888, Note_off_c, 3, 57, 0
6, 162888, Note_off_c, 3, 60, 0
6, 162894, Note_off_c, 3, 69, 0
6, 163200, Note_on_c, 3, 58, 57
6, 163200, Note_on_c, 3, 62, 57
6, 163205, Note_on_c, 3, 65, 57
6, 163210, Note_on_c, 3, 70, 57
6, 163638, Note_off_c, 3, 62, 0
6, 163638, Note_off_c, 3, 58, 0
6, 163643, Note_off_c, 3, 65, 0
6, 163648, Note_off_c, 3, 70, 0
6, 163680, Note_on_c, 3, 58, 53
6, 163680, Note_on_c, 3, 62, 53
6, 163685, Note_on_c, 3, 65, 53
6, 163690, Note_on_c, 3, 70, 53
6, 163848, Note_off_c, 3, 65, 0
6, 163848, Note_off_c, 3, 62, 0
6, 163848, Note_off_c, 3, 58, 0
6, 163854, Note_off_c, 3, 70, 0
6, 164160, Note_on_c, 3, 57, 48
6, 164160, Note_on_c, 3, 61, 48
6, 164165, Note_on_c, 3, 64, 48
6, 164170, Note_on_c, 3, 69, 48
6, 164598, Note_off_c, 3, 61, 0
6, 164598, Note_off_c, 3, 57, 0
6, 164603, Note_off_c, 3, 64, 0
6, 164608, Note_off_c, 3, 69, 0
6, 164640, Note_on_c, 3, 57, 43
6, 164640, Note_on_c, 3, 61, 43
6, 164645, Note_on_c, 3, 64, 43
6, 164650, Note_on_c, 3, 69, 43
6, 164808, Note_off_c, 3, 64, 0
6, 164808, Note_off_c, 3, 61, 0
6, 164808, Note_off_c, 3, 57, 0
6, 164814, Note_off_c, 3, 69, 0
6, 165120, Note_on_c, 3, 57, 38
6, 165120, Note_on_c, 3, 62, 38
6, 165125, Note_on_c, 3, 65, 38
6, 165130, Note_on_c, 3, 69, 38
6, 165558, Note_off_c, 3, 62, 0
6, 165558, Note_off_c, 3, 57, 0
6, 165563, Note_off_c, 3, 65, 0
6, 165568, Note_off_c, 3, 69, 0
6, 165600, Note_on_c, 3, 57, 33
6, 165600, Note_on_c, 3, 62, 33
6, 165605, Note_on_c, 3, 65, 33
6, 165610, Note_on_c, 3, 69, 33
6, 165768, Note_off_c, 3, 65, 0
6, 165768, Note_off_c, 3, 62, 0
6, 165768, Note_off_c, 3, 57, 0
6, 165774, Note_off_c, 3, 69, 0
6, 166080, Note_on_c, 3, 60, 30
6, 166080, Note_on_c, 3, 57, 30
6, 166085, Note_on_c, 3, 65, 30
6, 166090, Note_on_c, 3, 69, 30
6, 166518, Note_off_c, 3, 57, 0
6, 166518, Note_off_c, 3, 60, 0
6, 166523, Note_off_c, 3, 65, 0
6, 166528, Note_off_c, 3, 69, 0
6, 166560, Note_on_c, 3, 60, 25
6, 166560, Note_on_c, 3, 57, 25
6, 166565, Note_on_c, 3, 65, 25
6, 166570, Note_on_c, 3, 69, 25
6, 166728, Note_off_c, 3, 65, 0
6, 166728, Note_off_c, 3, 57, 0
6, 166728, Note_off_c, 3, 60, 0
6, 166734, Note_off_c, 3, 69, 0
6, 167040, Note_on_c, 3, 58, 20
6, 167040, Note_on_c, 3, 62, 20
6, 167045, Note_on_c, 3, 65, 20
6, 167050, Note_on_c, 3, 70, 20
6, 167478, Note_off_c, 3, 62, 0
6, 167478, Note_off_c, 3, 58, 0
6, 167483, Note_off_c, 3, 65, 0
6, 167488, Note_off_c, 3, 70, 0
6, 167520, Note_on_c, 3, 58, 15
6, 167520, Note_on_c, 3, 62, 15
6, 167525, Note_on_c, 3, 65, 15
6, 167530, Note_on_c, 3, 70, 15
6, 167688, Note_off_c, 3, 65, 0
6, 167688, Note_off_c, 3, 62, 0
6, 167688, Note_off_c, 3, 58, 0
6, 167694, Note_off_c, 3, 70, 0
6, 168000, Note_on_c, 3, 57, 10
6, 168000, Note_on_c, 3, 61, 10
6, 168005, Note_on_c, 3, 64, 10
6, 168010, Note_on_c, 3, 69, 10
6, 168438, Note_off_c, 3, 61, 0
6, 168438, Note_off_c, 3, 57, 0
6, 168443, Note_off_c, 3, 64, 0
6, 168448, Note_off_c, 3, 69, 0
6, 168480, Note_on_c, 3, 57, 5
6, 168480, Note_on_c, 3, 61, 5
6, 168485, Note_on_c, 3, 64, 5
6, 168490, Note_on_c, 3, 69, 5
6, 168648, Note_off_c, 3, 64, 0
6, 168648, Note_off_c, 3, 61, 0
6, 168648, Note_off_c, 3, 57, 0
6, 168654, Note_off_c, 3, 69, 0
6, 168654, End_track
7, 0, Start_track
7, 0, Title_t, "Acc Guitar R"
7, 0, MIDI_port, 0
7, 0, Channel_prefix, 4
7, 0, Control_c, 4, 7, 69
7, 0, Control_c, 4, 10, 94
7, 0, Program_c, 4, 24
7, 3840, Note_on_c, 4, 41, 51
7, 3870, Note_on_c, 4, 46, 56
7, 3990, Note_on_c, 4, 50, 74
7, 4110, Note_off_c, 4, 46, 0
7, 4170, Note_on_c, 4, 58, 101
7, 4230, Note_off_c, 4, 50, 0
7, 4470, Note_on_c, 4, 50, 95
7, 4620, Note_on_c, 4, 46, 85
7, 4650, Note_off_c, 4, 58, 0
7, 4710, Note_off_c, 4, 50, 0
7, 4800, Note_off_c, 4, 41, 0
7, 4800, Note_on_c, 4, 45, 80
7, 4860, Note_off_c, 4, 46, 0
7, 5760, Note_off_c, 4, 45, 0
7, 5760, Note_on_c, 4, 45, 46
7, 5770, Note_on_c, 4, 50, 48
7, 5780, Note_on_c, 4, 53, 51
7, 6636, Note_off_c, 4, 45, 0
7, 6690, Note_off_c, 4, 50, 0
7, 6690, Note_off_c, 4, 53, 0
7, 6720, Note_on_c, 4, 45, 46
7, 6730, Note_on_c, 4, 48, 48
7, 6740, Note_on_c, 4, 53, 51
7, 7596, Note_off_c, 4, 45, 0
7, 7650, Note_off_c, 4, 48, 0
7, 7650, Note_off_c, 4, 53, 0
7, 7680, Note_on_c, 4, 41, 84
7, 7830, Note_on_c, 4, 46, 69
7, 7980, Note_on_c, 4, 50, 93
7, 8070, Note_off_c, 4, 46, 0
7, 8160, Note_on_c, 4, 53, 82
7, 8220, Note_off_c, 4, 50, 0
7, 8310, Note_on_c, 4, 50, 98
7, 8400, Note_off_c, 4, 53, 0
7, 8460, Note_on_c, 4, 46, 92
7, 8550, Note_off_c, 4, 50, 0
7, 8640, Note_off_c, 4, 41, 0
7, 8640, Note_on_c, 4, 45, 82
7, 8700, Note_off_c, 4, 46, 0
7, 9600, Note_off_c, 4, 45, 0
7, 9600, Note_on_c, 4, 45, 46
7, 9610, Note_on_c, 4, 50, 48
7, 9620, Note_on_c, 4, 53, 51
7, 10476, Note_off_c, 4, 45, 0
7, 10530, Note_off_c, 4, 50, 0
7, 10530, Note_off_c, 4, 53, 0
7, 10560, Note_on_c, 4, 45, 46
7, 10570, Note_on_c, 4, 48, 48
7, 10580, Note_on_c, 4, 53, 51
7, 11436, Note_off_c, 4, 45, 0
7, 11490, Note_off_c, 4, 48, 0
7, 11490, Note_off_c, 4, 53, 0
7, 11520, Note_on_c, 4, 41, 62
7, 11670, Note_on_c, 4, 46, 72
7, 11820, Note_on_c, 4, 50, 84
7, 11910, Note_off_c, 4, 46, 0
7, 12000, Note_on_c, 4, 53, 84
7, 12060, Note_off_c, 4, 50, 0
7, 12150, Note_on_c, 4, 50, 79
7, 12240, Note_off_c, 4, 53, 0
7, 12300, Note_on_c, 4, 46, 74
7, 12390, Note_off_c, 4, 50, 0
7, 12480, Note_off_c, 4, 41, 0
7, 12480, Note_on_c, 4, 45, 67
7, 12540, Note_off_c, 4, 46, 0
7, 13440, Note_off_c, 4, 45, 0
7, 13440, Note_on_c, 4, 45, 46
7, 13450, Note_on_c, 4, 50, 48
7, 13460, Note_on_c, 4, 53, 51
7, 13980, Note_on_c, 4, 58, 67
7, 14000, Note_off_c, 4, 58, 0
7, 14000, Note_on_c, 4, 57, 82
7, 14370, Note_off_c, 4, 53, 0
7, 14370, Note_off_c, 4, 50, 0
7, 14880, Note_on_c, 4, 53, 69
7, 14885, Note_on_c, 4, 60, 72
7, 15105, Note_off_c, 4, 60, 0
7, 15110, Note_off_c, 4, 53, 0
7, 15330, Note_off_c, 4, 45, 0
7, 15350, Note_off_c, 4, 57, 0
7, 15360, Note_on_c, 4, 41, 49
7, 15510, Note_on_c, 4, 46, 57
7, 15660, Note_on_c, 4, 50, 67
7, 15750, Note_off_c, 4, 46, 0
7, 15840, Note_on_c, 4, 53, 84
7, 15900, Note_off_c, 4, 50, 0
7, 15990, Note_on_c, 4, 50, 79
7, 16080, Note_off_c, 4, 53, 0
7, 16140, Note_on_c, 4, 46, 74
7, 16230, Note_off_c, 4, 50, 0
7, 16320, Note_off_c, 4, 41, 0
7, 16320, Note_on_c, 4, 45, 67
7, 16380, Note_off_c, 4, 46, 0
7, 17280, Note_off_c, 4, 45, 0
7, 17300, Note_on_c, 4, 53, 51
7, 17310, Note_on_c, 4, 50, 48
7, 18240, Note_off_c, 4, 50, 0
7, 18240, Note_on_c, 4, 60, 66
7, 18720, Note_off_c, 4, 60, 0
7, 18730, Note_on_c, 4, 60, 77
7, 18740, Note_on_c, 4, 65, 82
7, 18960, Note_off_c, 4, 65, 0
7, 18960, Note_off_c, 4, 60, 0
7, 19172, Note_off_c, 4, 53, 0
7, 19200, Note_on_c, 4, 64, 87
7, 19350, Note_on_c, 4, 59, 67
7, 19440, Note_off_c, 4, 64, 0
7, 19500, Note_on_c, 4, 56, 110
7, 19650, Note_off_c, 4, 59, 0
7, 19680, Note_on_c, 4, 52, 56
7, 19830, Note_off_c, 4, 56, 0
7, 19830, Note_on_c, 4, 57, 79
7, 20010, Note_on_c, 4, 64, 90
7, 21060, Note_off_c, 4, 52, 0
7, 21060, Note_off_c, 4, 57, 0
7, 21090, Note_off_c, 4, 64, 0
7, 21600, Note_on_c, 4, 57, 46
7, 21610, Note_on_c, 4, 62, 48
7, 21620, Note_on_c, 4, 65, 51
7, 21816, Note_off_c, 4, 57, 0
7, 21870, Note_off_c, 4, 62, 0
7, 21870, Note_off_c, 4, 65, 0
7, 22560, Note_on_c, 4, 57, 46
7, 22570, Note_on_c, 4, 60, 48
7, 22580, Note_on_c, 4, 65, 51
7, 22776, Note_off_c, 4, 57, 0
7, 22830, Note_off_c, 4, 60, 0
7, 22830, Note_off_c, 4, 65, 0
7, 23040, Note_on_c, 4, 64, 87
7, 23190, Note_on_c, 4, 59, 67
7, 23280, Note_off_c, 4, 64, 0
7, 23340, Note_on_c, 4, 56, 110
7, 23490, Note_off_c, 4, 59, 0
7, 23520, Note_on_c, 4, 52, 56
7, 23670, Note_off_c, 4, 56, 0
7, 23670, Note_on_c, 4, 57, 79
7, 23850, Note_on_c, 4, 64, 90
7, 24900, Note_off_c, 4, 52, 0
7, 24900, Note_off_c, 4, 57, 0
7, 24930, Note_off_c, 4, 64, 0
7, 25440, Note_on_c, 4, 57, 46
7, 25450, Note_on_c, 4, 62, 48
7, 25460, Note_on_c, 4, 65, 51
7, 25656, Note_off_c, 4, 57, 0
7, 25710, Note_off_c, 4, 62, 0
7, 25710, Note_off_c, 4, 65, 0
7, 26400, Note_on_c, 4, 57, 46
7, 26410, Note_on_c, 4, 60, 48
7, 26420, Note_on_c, 4, 65, 51
7, 26616, Note_off_c, 4, 57, 0
7, 26670, Note_off_c, 4, 60, 0
7, 26670, Note_off_c, 4, 65, 0
7, 26880, Note_on_c, 4, 55, 69
7, 26890, Note_on_c, 4, 59, 72
7, 26900, Note_on_c, 4, 67, 75
7, 28740, Note_off_c, 4, 55, 0
7, 28764, Note_off_c, 4, 59, 0
7, 28764, Note_off_c, 4, 67, 0
7, 29280, Note_on_c, 4, 57, 59
7, 29290, Note_on_c, 4, 62, 61
7, 29300, Note_on_c, 4, 65, 62
7, 29496, Note_off_c, 4, 57, 0
7, 29550, Note_off_c, 4, 62, 0
7, 29550, Note_off_c, 4, 65, 0
7, 30240, Note_on_c, 4, 57, 61
7, 30250, Note_on_c, 4, 60, 64
7, 30260, Note_on_c, 4, 65, 66
7, 30456, Note_off_c, 4, 57, 0
7, 30510, Note_off_c, 4, 60, 0
7, 30510, Note_off_c, 4, 65, 0
7, 30720, Note_on_c, 4, 53, 66
7, 30750, Note_on_c, 4, 58, 69
7, 30870, Note_on_c, 4, 62, 82
7, 30990, Note_off_c, 4, 58, 0
7, 31050, Note_on_c, 4, 65, 101
7, 31110, Note_off_c, 4, 62, 0
7, 31350, Note_on_c, 4, 62, 95
7, 31500, Note_on_c, 4, 58, 85
7, 31590, Note_off_c, 4, 65, 0
7, 31590, Note_off_c, 4, 62, 0
7, 31680, Note_off_c, 4, 53, 0
7, 31680, Note_on_c, 4, 57, 72
7, 31740, Note_off_c, 4, 58, 0
7, 32640, Note_off_c, 4, 57, 0
7, 33120, Note_on_c, 4, 57, 59
7, 33130, Note_on_c, 4, 62, 61
7, 33140, Note_on_c, 4, 65, 62
7, 33336, Note_off_c, 4, 57, 0
7, 33390, Note_off_c, 4, 62, 0
7, 33390, Note_off_c, 4, 65, 0
7, 34080, Note_on_c, 4, 57, 61
7, 34090, Note_on_c, 4, 60, 64
7, 34100, Note_on_c, 4, 65, 66
7, 34296, Note_off_c, 4, 57, 0
7, 34350, Note_off_c, 4, 60, 0
7, 34350, Note_off_c, 4, 65, 0
7, 35040, Note_on_c, 4, 58, 53
7, 35050, Note_on_c, 4, 62, 54
7, 35060, Note_on_c, 4, 65, 57
7, 35256, Note_off_c, 4, 58, 0
7, 35310, Note_off_c, 4, 62, 0
7, 35310, Note_off_c, 4, 65, 0
7, 36000, Note_on_c, 4, 57, 48
7, 36010, Note_on_c, 4, 61, 49
7, 36020, Note_on_c, 4, 64, 53
7, 36216, Note_off_c, 4, 57, 0
7, 36270, Note_off_c, 4, 61, 0
7, 36270, Note_off_c, 4, 64, 0
7, 36960, Note_on_c, 4, 57, 59
7, 36970, Note_on_c, 4, 62, 61
7, 36980, Note_on_c, 4, 65, 62
7, 37176, Note_off_c, 4, 57, 0
7, 37230, Note_off_c, 4, 62, 0
7, 37230, Note_off_c, 4, 65, 0
7, 37920, Note_on_c, 4, 57, 61
7, 37930, Note_on_c, 4, 60, 64
7, 37940, Note_on_c, 4, 65, 66
7, 38136, Note_off_c, 4, 57, 0
7, 38190, Note_off_c, 4, 60, 0
7, 38190, Note_off_c, 4, 65, 0
7, 38400, Note_on_c, 4, 53, 66
7, 38430, Note_on_c, 4, 58, 69
7, 38550, Note_on_c, 4, 62, 82
7, 38670, Note_off_c, 4, 58, 0
7, 38730, Note_on_c, 4, 65, 101
7, 38790, Note_off_c, 4, 62, 0
7, 39030, Note_on_c, 4, 62, 95
7, 39180, Note_on_c, 4, 58, 85
7, 39270, Note_off_c, 4, 65, 0
7, 39270, Note_off_c, 4, 62, 0
7, 39360, Note_off_c, 4, 53, 0
7, 39360, Note_on_c, 4, 57, 72
7, 39420, Note_off_c, 4, 58, 0
7, 40320, Note_off_c, 4, 57, 0
7, 40800, Note_on_c, 4, 57, 51
7, 40810, Note_on_c, 4, 62, 53
7, 40820, Note_on_c, 4, 65, 53
7, 41016, Note_off_c, 4, 57, 0
7, 41063, Note_off_c, 4, 62, 0
7, 41070, Note_off_c, 4, 65, 0
7, 41760, Note_on_c, 4, 57, 57
7, 41770, Note_on_c, 4, 60, 59
7, 41780, Note_on_c, 4, 65, 59
7, 41976, Note_off_c, 4, 57, 0
7, 42030, Note_off_c, 4, 60, 0
7, 42030, Note_off_c, 4, 65, 0
7, 42720, Note_on_c, 4, 58, 49
7, 42730, Note_on_c, 4, 62, 49
7, 42740, Note_on_c, 4, 65, 51
7, 42936, Note_off_c, 4, 58, 0
7, 42990, Note_off_c, 4, 62, 0
7, 42990, Note_off_c, 4, 65, 0
7, 43680, Note_on_c, 4, 57, 48
7, 43690, Note_on_c, 4, 61, 49
7, 43700, Note_on_c, 4, 64, 53
7, 43896, Note_off_c, 4, 57, 0
7, 43950, Note_off_c, 4, 61, 0
7, 43950, Note_off_c, 4, 64, 0
7, 44180, Note_on_c, 4, 53, 51
7, 44190, Note_on_c, 4, 62, 48
7, 45120, Note_off_c, 4, 62, 0
7, 45120, Note_on_c, 4, 60, 66
7, 45600, Note_off_c, 4, 60, 0
7, 45610, Note_on_c, 4, 60, 77
7, 45620, Note_on_c, 4, 65, 82
7, 45840, Note_off_c, 4, 65, 0
7, 45840, Note_off_c, 4, 60, 0
7, 46052, Note_off_c, 4, 53, 0
7, 46080, Note_on_c, 4, 64, 87
7, 46230, Note_on_c, 4, 59, 67
7, 46320, Note_off_c, 4, 64, 0
7, 46380, Note_on_c, 4, 56, 110
7, 46530, Note_off_c, 4, 59, 0
7, 46560, Note_on_c, 4, 52, 56
7, 46710, Note_off_c, 4, 56, 0
7, 46710, Note_on_c, 4, 57, 79
7, 46890, Note_on_c, 4, 64, 90
7, 47940, Note_off_c, 4, 52, 0
7, 47940, Note_off_c, 4, 57, 0
7, 47970, Note_off_c, 4, 64, 0
7, 48480, Note_on_c, 4, 57, 46
7, 48490, Note_on_c, 4, 62, 48
7, 48500, Note_on_c, 4, 65, 51
7, 48696, Note_off_c, 4, 57, 0
7, 48750, Note_off_c, 4, 62, 0
7, 48750, Note_off_c, 4, 65, 0
7, 49440, Note_on_c, 4, 57, 46
7, 49450, Note_on_c, 4, 60, 48
7, 49460, Note_on_c, 4, 65, 51
7, 49656, Note_off_c, 4, 57, 0
7, 49710, Note_off_c, 4, 60, 0
7, 49710, Note_off_c, 4, 65, 0
7, 49920, Note_on_c, 4, 64, 87
7, 50070, Note_on_c, 4, 59, 67
7, 50160, Note_off_c, 4, 64, 0
7, 50220, Note_on_c, 4, 56, 110
7, 50370, Note_off_c, 4, 59, 0
7, 50400, Note_on_c, 4, 52, 56
7, 50550, Note_off_c, 4, 56, 0
7, 50550, Note_on_c, 4, 57, 79
7, 50730, Note_on_c, 4, 64, 90
7, 51780, Note_off_c, 4, 52, 0
7, 51780, Note_off_c, 4, 57, 0
7, 51810, Note_off_c, 4, 64, 0
7, 52320, Note_on_c, 4, 57, 46
7, 52330, Note_on_c, 4, 62, 48
7, 52340, Note_on_c, 4, 65, 51
7, 52536, Note_off_c, 4, 57, 0
7, 52590, Note_off_c, 4, 62, 0
7, 52590, Note_off_c, 4, 65, 0
7, 53280, Note_on_c, 4, 57, 46
7, 53290, Note_on_c, 4, 60, 48
7, 53300, Note_on_c, 4, 65, 51
7, 53496, Note_off_c, 4, 57, 0
7, 53550, Note_off_c, 4, 60, 0
7, 53550, Note_off_c, 4, 65, 0
7, 53760, Note_on_c, 4, 55, 69
7, 53770, Note_on_c, 4, 59, 72
7, 53780, Note_on_c, 4, 67, 75
7, 55620, Note_off_c, 4, 55, 0
7, 55644, Note_off_c, 4, 59, 0
7, 55644, Note_off_c, 4, 67, 0
7, 56160, Note_on_c, 4, 57, 59
7, 56170, Note_on_c, 4, 62, 61
7, 56180, Note_on_c, 4, 65, 62
7, 56376, Note_off_c, 4, 57, 0
7, 56430, Note_off_c, 4, 62, 0
7, 56430, Note_off_c, 4, 65, 0
7, 57120, Note_on_c, 4, 57, 61
7, 57130, Note_on_c, 4, 60, 64
7, 57140, Note_on_c, 4, 65, 66
7, 57336, Note_off_c, 4, 57, 0
7, 57390, Note_off_c, 4, 60, 0
7, 57390, Note_off_c, 4, 65, 0
7, 57600, Note_on_c, 4, 53, 66
7, 57630, Note_on_c, 4, 58, 69
7, 57750, Note_on_c, 4, 62, 82
7, 57870, Note_off_c, 4, 58, 0
7, 57930, Note_on_c, 4, 65, 101
7, 57990, Note_off_c, 4, 62, 0
7, 58230, Note_on_c, 4, 62, 95
7, 58380, Note_on_c, 4, 58, 85
7, 58470, Note_off_c, 4, 65, 0
7, 58470, Note_off_c, 4, 62, 0
7, 58560, Note_off_c, 4, 53, 0
7, 58560, Note_on_c, 4, 57, 72
7, 58620, Note_off_c, 4, 58, 0
7, 59520, Note_off_c, 4, 57, 0
7, 60000, Note_on_c, 4, 57, 59
7, 60010, Note_on_c, 4, 62, 61
7, 60020, Note_on_c, 4, 65, 62
7, 60216, Note_off_c, 4, 57, 0
7, 60270, Note_off_c, 4, 62, 0
7, 60270, Note_off_c, 4, 65, 0
7, 60960, Note_on_c, 4, 57, 61
7, 60970, Note_on_c, 4, 60, 64
7, 60980, Note_on_c, 4, 65, 66
7, 61176, Note_off_c, 4, 57, 0
7, 61230, Note_off_c, 4, 60, 0
7, 61230, Note_off_c, 4, 65, 0
7, 61440, Note_on_c, 4, 53, 66
7, 61470, Note_on_c, 4, 58, 69
7, 61590, Note_on_c, 4, 62, 82
7, 61710, Note_off_c, 4, 58, 0
7, 61770, Note_on_c, 4, 65, 101
7, 61830, Note_off_c, 4, 62, 0
7, 62070, Note_on_c, 4, 62, 95
7, 62220, Note_on_c, 4, 58, 85
7, 62310, Note_off_c, 4, 65, 0
7, 62310, Note_off_c, 4, 62, 0
7, 62400, Note_off_c, 4, 53, 0
7, 62400, Note_off_c, 4, 58, 0
7, 62400, Note_on_c, 4, 57, 85
7, 63300, Note_off_c, 4, 57, 0
7, 63360, Note_on_c, 4, 58, 61
7, 63370, Note_on_c, 4, 62, 64
7, 63380, Note_on_c, 4, 65, 66
7, 63576, Note_off_c, 4, 58, 0
7, 63630, Note_off_c, 4, 62, 0
7, 63630, Note_off_c, 4, 65, 0
7, 63840, Note_on_c, 4, 58, 61
7, 63850, Note_on_c, 4, 62, 64
7, 63860, Note_on_c, 4, 65, 66
7, 64056, Note_off_c, 4, 58, 0
7, 64110, Note_off_c, 4, 62, 0
7, 64110, Note_off_c, 4, 65, 0
7, 64320, Note_on_c, 4, 58, 69
7, 64330, Note_on_c, 4, 62, 71
7, 64340, Note_on_c, 4, 65, 72
7, 64536, Note_off_c, 4, 58, 0
7, 64590, Note_off_c, 4, 62, 0
7, 64590, Note_off_c, 4, 65, 0
7, 64800, Note_on_c, 4, 58, 79
7, 64810, Note_on_c, 4, 62, 80
7, 64820, Note_on_c, 4, 65, 82
7, 65016, Note_off_c, 4, 58, 0
7, 65070, Note_off_c, 4, 62, 0
7, 65070, Note_off_c, 4, 65, 0
7, 65280, Note_on_c, 4, 57, 85
7, 65290, Note_on_c, 4, 60, 88
7, 65300, Note_on_c, 4, 65, 93
7, 65496, Note_off_c, 4, 57, 0
7, 65550, Note_off_c, 4, 60, 0
7, 65582, Note_off_c, 4, 65, 0
7, 65760, Note_on_c, 4, 57, 85
7, 65770, Note_on_c, 4, 60, 88
7, 65780, Note_on_c, 4, 65, 93
7, 65785, Note_on_c, 4, 72, 93
7, 66030, Note_off_c, 4, 65, 0
7, 66030, Note_off_c, 4, 60, 0
7, 66035, Note_off_c, 4, 72, 0
7, 66120, Note_off_c, 4, 57, 0
7, 66240, Note_on_c, 4, 57, 85
7, 66250, Note_on_c, 4, 60, 88
7, 66260, Note_on_c, 4, 65, 93
7, 66268, Note_on_c, 4, 72, 93
7, 66420, Note_off_c, 4, 57, 0
7, 66510, Note_off_c, 4, 60, 0
7, 66518, Note_off_c, 4, 72, 0
7, 66602, Note_off_c, 4, 65, 0
7, 66720, Note_on_c, 4, 57, 85
7, 66730, Note_on_c, 4, 60, 88
7, 66740, Note_on_c, 4, 65, 93
7, 66744, Note_on_c, 4, 72, 93
7, 66990, Note_off_c, 4, 65, 0
7, 66990, Note_off_c, 4, 60, 0
7, 66994, Note_off_c, 4, 72, 0
7, 67140, Note_off_c, 4, 57, 0
7, 67200, Note_on_c, 4, 58, 61
7, 67210, Note_on_c, 4, 62, 64
7, 67220, Note_on_c, 4, 65, 66
7, 67416, Note_off_c, 4, 58, 0
7, 67470, Note_off_c, 4, 62, 0
7, 67470, Note_off_c, 4, 65, 0
7, 67680, Note_on_c, 4, 58, 61
7, 67690, Note_on_c, 4, 62, 64
7, 67700, Note_on_c, 4, 65, 66
7, 67896, Note_off_c, 4, 58, 0
7, 67950, Note_off_c, 4, 62, 0
7, 67950, Note_off_c, 4, 65, 0
7, 68160, Note_on_c, 4, 58, 69
7, 68170, Note_on_c, 4, 62, 71
7, 68180, Note_on_c, 4, 65, 72
7, 68376, Note_off_c, 4, 58, 0
7, 68430, Note_off_c, 4, 62, 0
7, 68430, Note_off_c, 4, 65, 0
7, 68640, Note_on_c, 4, 58, 79
7, 68650, Note_on_c, 4, 62, 80
7, 68660, Note_on_c, 4, 65, 82
7, 68856, Note_off_c, 4, 58, 0
7, 68910, Note_off_c, 4, 62, 0
7, 68910, Note_off_c, 4, 65, 0
7, 69120, Note_on_c, 4, 57, 85
7, 69130, Note_on_c, 4, 60, 88
7, 69140, Note_on_c, 4, 65, 93
7, 69336, Note_off_c, 4, 57, 0
7, 69390, Note_off_c, 4, 60, 0
7, 69422, Note_off_c, 4, 65, 0
7, 69600, Note_on_c, 4, 57, 85
7, 69610, Note_on_c, 4, 60, 88
7, 69620, Note_on_c, 4, 65, 93
7, 69625, Note_on_c, 4, 72, 93
7, 69870, Note_off_c, 4, 65, 0
7, 69870, Note_off_c, 4, 60, 0
7, 69875, Note_off_c, 4, 72, 0
7, 69960, Note_off_c, 4, 57, 0
7, 70080, Note_on_c, 4, 57, 85
7, 70090, Note_on_c, 4, 60, 88
7, 70100, Note_on_c, 4, 65, 93
7, 70108, Note_on_c, 4, 72, 93
7, 70260, Note_off_c, 4, 57, 0
7, 70350, Note_off_c, 4, 60, 0
7, 70358, Note_off_c, 4, 72, 0
7, 70442, Note_off_c, 4, 65, 0
7, 70560, Note_on_c, 4, 57, 85
7, 70570, Note_on_c, 4, 60, 88
7, 70580, Note_on_c, 4, 65, 93
7, 70584, Note_on_c, 4, 72, 93
7, 70830, Note_off_c, 4, 65, 0
7, 70830, Note_off_c, 4, 60, 0
7, 70834, Note_off_c, 4, 72, 0
7, 70980, Note_off_c, 4, 57, 0
7, 71040, Note_on_c, 4, 57, 79
7, 71050, Note_on_c, 4, 60, 84
7, 71060, Note_on_c, 4, 64, 88
7, 71256, Note_off_c, 4, 57, 0
7, 71310, Note_off_c, 4, 60, 0
7, 71310, Note_off_c, 4, 64, 0
7, 71520, Note_on_c, 4, 57, 80
7, 71530, Note_on_c, 4, 60, 82
7, 71540, Note_on_c, 4, 64, 85
7, 71736, Note_off_c, 4, 57, 0
7, 71790, Note_off_c, 4, 60, 0
7, 71790, Note_off_c, 4, 64, 0
7, 72000, Note_on_c, 4, 57, 85
7, 72010, Note_on_c, 4, 60, 88
7, 72020, Note_on_c, 4, 64, 92
7, 72216, Note_off_c, 4, 57, 0
7, 72270, Note_off_c, 4, 60, 0
7, 72270, Note_off_c, 4, 64, 0
7, 72300, Note_on_c, 4, 60, 85
7, 72310, Note_on_c, 4, 64, 90
7, 72320, Note_on_c, 4, 69, 97
7, 72414, Note_off_c, 4, 64, 0
7, 72420, Note_off_c, 4, 60, 0
7, 72480, Note_on_c, 4, 57, 113
7, 72482, Note_off_c, 4, 69, 0
7, 72490, Note_on_c, 4, 60, 114
7, 72500, Note_on_c, 4, 64, 118
7, 72500, Note_on_c, 4, 69, 118
7, 72696, Note_off_c, 4, 57, 0
7, 72722, Note_off_c, 4, 69, 0
7, 72750, Note_off_c, 4, 60, 0
7, 72750, Note_off_c, 4, 64, 0
7, 72780, Note_on_c, 4, 69, 97
7, 72960, Note_off_c, 4, 69, 0
7, 72960, Note_on_c, 4, 58, 74
7, 72970, Note_on_c, 4, 62, 77
7, 72980, Note_on_c, 4, 65, 82
7, 73176, Note_off_c, 4, 58, 0
7, 73230, Note_off_c, 4, 62, 0
7, 73230, Note_off_c, 4, 65, 0
7, 73440, Note_on_c, 4, 62, 79
7, 73450, Note_on_c, 4, 65, 82
7, 73460, Note_on_c, 4, 70, 87
7, 73656, Note_off_c, 4, 62, 0
7, 73710, Note_off_c, 4, 65, 0
7, 73710, Note_off_c, 4, 70, 0
7, 73920, Note_on_c, 4, 59, 77
7, 73930, Note_on_c, 4, 62, 80
7, 73940, Note_on_c, 4, 67, 84
7, 74820, Note_off_c, 4, 59, 0
7, 74822, Note_off_c, 4, 67, 0
7, 74824, Note_off_c, 4, 62, 0
7, 79200, Note_on_c, 4, 57, 59
7, 79210, Note_on_c, 4, 62, 61
7, 79220, Note_on_c, 4, 65, 62
7, 79416, Note_off_c, 4, 57, 0
7, 79470, Note_off_c, 4, 62, 0
7, 79470, Note_off_c, 4, 65, 0
7, 80160, Note_on_c, 4, 57, 71
7, 80170, Note_on_c, 4, 60, 74
7, 80180, Note_on_c, 4, 65, 77
7, 80376, Note_off_c, 4, 57, 0
7, 80430, Note_off_c, 4, 60, 0
7, 80430, Note_off_c, 4, 65, 0
7, 80640, Note_on_c, 4, 53, 66
7, 80670, Note_on_c, 4, 58, 69
7, 80790, Note_on_c, 4, 62, 82
7, 80910, Note_off_c, 4, 58, 0
7, 80970, Note_on_c, 4, 65, 101
7, 81030, Note_off_c, 4, 62, 0
7, 81270, Note_on_c, 4, 62, 95
7, 81420, Note_on_c, 4, 58, 85
7, 81510, Note_off_c, 4, 65, 0
7, 81510, Note_off_c, 4, 62, 0
7, 81600, Note_off_c, 4, 53, 0
7, 81600, Note_on_c, 4, 57, 72
7, 81660, Note_off_c, 4, 58, 0
7, 82560, Note_off_c, 4, 57, 0
7, 83040, Note_on_c, 4, 57, 59
7, 83050, Note_on_c, 4, 62, 61
7, 83060, Note_on_c, 4, 65, 62
7, 83256, Note_off_c, 4, 57, 0
7, 83310, Note_off_c, 4, 62, 0
7, 83310, Note_off_c, 4, 65, 0
7, 84000, Note_on_c, 4, 57, 61
7, 84010, Note_on_c, 4, 60, 64
7, 84020, Note_on_c, 4, 65, 66
7, 84216, Note_off_c, 4, 57, 0
7, 84270, Note_off_c, 4, 60, 0
7, 84270, Note_off_c, 4, 65, 0
7, 84480, Note_on_c, 4, 53, 66
7, 84510, Note_on_c, 4, 58, 69
7, 84630, Note_on_c, 4, 62, 82
7, 84750, Note_off_c, 4, 58, 0
7, 84810, Note_on_c, 4, 65, 101
7, 84870, Note_off_c, 4, 62, 0
7, 85110, Note_on_c, 4, 62, 95
7, 85260, Note_on_c, 4, 58, 85
7, 85350, Note_off_c, 4, 65, 0
7, 85350, Note_off_c, 4, 62, 0
7, 85440, Note_off_c, 4, 53, 0
7, 85440, Note_on_c, 4, 57, 72
7, 85500, Note_off_c, 4, 58, 0
7, 86400, Note_off_c, 4, 57, 0
7, 86880, Note_on_c, 4, 57, 59
7, 86890, Note_on_c, 4, 62, 61
7, 86900, Note_on_c, 4, 65, 62
7, 87096, Note_off_c, 4, 57, 0
7, 87150, Note_off_c, 4, 62, 0
7, 87150, Note_off_c, 4, 65, 0
7, 87840, Note_on_c, 4, 57, 61
7, 87850, Note_on_c, 4, 60, 64
7, 87860, Note_on_c, 4, 65, 66
7, 88056, Note_off_c, 4, 57, 0
7, 88110, Note_off_c, 4, 60, 0
7, 88110, Note_off_c, 4, 65, 0
7, 88320, Note_on_c, 4, 53, 66
7, 88350, Note_on_c, 4, 58, 69
7, 88470, Note_on_c, 4, 62, 82
7, 88590, Note_off_c, 4, 58, 0
7, 88650, Note_on_c, 4, 65, 101
7, 88710, Note_off_c, 4, 62, 0
7, 88950, Note_on_c, 4, 62, 95
7, 89100, Note_on_c, 4, 58, 85
7, 89190, Note_off_c, 4, 65, 0
7, 89190, Note_off_c, 4, 62, 0
7, 89280, Note_off_c, 4, 53, 0
7, 89280, Note_on_c, 4, 57, 72
7, 89340, Note_off_c, 4, 58, 0
7, 90240, Note_off_c, 4, 57, 0
7, 90720, Note_on_c, 4, 57, 51
7, 90730, Note_on_c, 4, 62, 53
7, 90740, Note_on_c, 4, 65, 53
7, 90936, Note_off_c, 4, 57, 0
7, 90983, Note_off_c, 4, 62, 0
7, 90990, Note_off_c, 4, 65, 0
7, 91680, Note_on_c, 4, 57, 57
7, 91690, Note_on_c, 4, 60, 59
7, 91700, Note_on_c, 4, 65, 59
7, 91896, Note_off_c, 4, 57, 0
7, 91950, Note_off_c, 4, 60, 0
7, 91950, Note_off_c, 4, 65, 0
7, 92160, Note_on_c, 4, 53, 66
7, 92190, Note_on_c, 4, 58, 69
7, 92310, Note_on_c, 4, 62, 82
7, 92430, Note_off_c, 4, 58, 0
7, 92490, Note_on_c, 4, 65, 101
7, 92550, Note_off_c, 4, 62, 0
7, 92790, Note_on_c, 4, 62, 95
7, 92940, Note_on_c, 4, 58, 85
7, 93030, Note_off_c, 4, 65, 0
7, 93030, Note_off_c, 4, 62, 0
7, 93120, Note_off_c, 4, 53, 0
7, 93120, Note_on_c, 4, 57, 72
7, 93180, Note_off_c, 4, 58, 0
7, 94080, Note_off_c, 4, 57, 0
7, 94560, Note_on_c, 4, 57, 51
7, 94570, Note_on_c, 4, 62, 53
7, 94580, Note_on_c, 4, 65, 53
7, 94776, Note_off_c, 4, 57, 0
7, 94823, Note_off_c, 4, 62, 0
7, 94830, Note_off_c, 4, 65, 0
7, 95520, Note_on_c, 4, 57, 57
7, 95530, Note_on_c, 4, 60, 59
7, 95540, Note_on_c, 4, 65, 59
7, 95736, Note_off_c, 4, 57, 0
7, 95790, Note_off_c, 4, 60, 0
7, 95790, Note_off_c, 4, 65, 0
7, 96000, Note_on_c, 4, 53, 66
7, 96030, Note_on_c, 4, 58, 69
7, 96150, Note_on_c, 4, 62, 82
7, 96270, Note_off_c, 4, 58, 0
7, 96330, Note_on_c, 4, 65, 101
7, 96390, Note_off_c, 4, 62, 0
7, 96630, Note_on_c, 4, 62, 95
7, 96780, Note_on_c, 4, 58, 85
7, 96870, Note_off_c, 4, 65, 0
7, 96870, Note_off_c, 4, 62, 0
7, 96960, Note_off_c, 4, 53, 0
7, 96960, Note_on_c, 4, 57, 72
7, 97020, Note_off_c, 4, 58, 0
7, 97920, Note_off_c, 4, 57, 0
7, 98400, Note_on_c, 4, 57, 74
7, 98410, Note_on_c, 4, 62, 75
7, 98420, Note_on_c, 4, 65, 77
7, 98698, Note_off_c, 4, 57, 0
7, 98707, Note_off_c, 4, 62, 0
7, 98716, Note_off_c, 4, 65, 0
7, 99360, Note_on_c, 4, 57, 84
7, 99366, Note_on_c, 4, 60, 84
7, 99380, Note_on_c, 4, 65, 85
7, 99658, Note_off_c, 4, 57, 0
7, 99667, Note_off_c, 4, 60, 0
7, 99676, Note_off_c, 4, 65, 0
7, 100320, Note_on_c, 4, 59, 79
7, 100330, Note_on_c, 4, 64, 80
7, 100340, Note_on_c, 4, 68, 82
7, 100618, Note_off_c, 4, 59, 0
7, 100627, Note_off_c, 4, 64, 0
7, 100636, Note_off_c, 4, 68, 0
7, 101280, Note_on_c, 4, 57, 77
7, 101291, Note_on_c, 4, 61, 79
7, 101309, Note_on_c, 4, 69, 84
7, 101578, Note_off_c, 4, 57, 0
7, 101587, Note_off_c, 4, 61, 0
7, 101606, Note_off_c, 4, 69, 0
7, 101780, Note_on_c, 4, 53, 51
7, 101790, Note_on_c, 4, 50, 48
7, 102720, Note_off_c, 4, 50, 0
7, 102720, Note_on_c, 4, 60, 66
7, 103200, Note_off_c, 4, 60, 0
7, 103210, Note_on_c, 4, 60, 77
7, 103220, Note_on_c, 4, 65, 82
7, 103440, Note_off_c, 4, 65, 0
7, 103440, Note_off_c, 4, 60, 0
7, 103652, Note_off_c, 4, 53, 0
7, 103680, Note_on_c, 4, 64, 100
7, 103830, Note_on_c, 4, 59, 95
7, 103920, Note_off_c, 4, 64, 0
7, 103980, Note_on_c, 4, 56, 126
7, 104130, Note_off_c, 4, 59, 0
7, 104160, Note_on_c, 4, 52, 93
7, 104310, Note_off_c, 4, 56, 0
7, 104310, Note_on_c, 4, 57, 108
7, 104490, Note_on_c, 4, 64, 103
7, 104490, Note_on_c, 4, 64, 103
7, 105540, Note_off_c, 4, 52, 0
7, 105540, Note_off_c, 4, 57, 0
7, 105570, Note_off_c, 4, 64, 0
7, 105570, Note_off_c, 4, 64, 0
7, 106080, Note_on_c, 4, 57, 71
7, 106090, Note_on_c, 4, 62, 71
7, 106100, Note_on_c, 4, 65, 72
7, 106296, Note_off_c, 4, 57, 0
7, 106350, Note_off_c, 4, 62, 0
7, 106350, Note_off_c, 4, 65, 0
7, 107040, Note_on_c, 4, 57, 66
7, 107050, Note_on_c, 4, 60, 67
7, 107060, Note_on_c, 4, 65, 69
7, 107256, Note_off_c, 4, 57, 0
7, 107310, Note_off_c, 4, 60, 0
7, 107310, Note_off_c, 4, 65, 0
7, 107520, Note_on_c, 4, 55, 69
7, 107530, Note_on_c, 4, 59, 72
7, 107540, Note_on_c, 4, 67, 75
7, 108480, Note_on_c, 4, 58, 72
7, 108481, Note_off_c, 4, 59, 0
7, 108482, Note_off_c, 4, 67, 0
7, 110400, Note_off_c, 4, 55, 0
7, 110400, Note_off_c, 4, 58, 0
7, 111840, Note_on_c, 4, 57, 59
7, 111850, Note_on_c, 4, 62, 61
7, 111860, Note_on_c, 4, 65, 62
7, 112056, Note_off_c, 4, 57, 0
7, 112110, Note_off_c, 4, 62, 0
7, 112110, Note_off_c, 4, 65, 0
7, 112800, Note_on_c, 4, 57, 71
7, 112810, Note_on_c, 4, 60, 74
7, 112820, Note_on_c, 4, 65, 77
7, 113016, Note_off_c, 4, 57, 0
7, 113070, Note_off_c, 4, 60, 0
7, 113070, Note_off_c, 4, 65, 0
7, 113280, Note_on_c, 4, 53, 66
7, 113310, Note_on_c, 4, 58, 69
7, 113430, Note_on_c, 4, 62, 82
7, 113550, Note_off_c, 4, 58, 0
7, 113610, Note_on_c, 4, 65, 101
7, 113670, Note_off_c, 4, 62, 0
7, 113910, Note_on_c, 4, 62, 95
7, 114060, Note_on_c, 4, 58, 85
7, 114150, Note_off_c, 4, 65, 0
7, 114150, Note_off_c, 4, 62, 0
7, 114240, Note_off_c, 4, 53, 0
7, 114240, Note_on_c, 4, 57, 72
7, 114300, Note_off_c, 4, 58, 0
7, 115200, Note_off_c, 4, 57, 0
7, 119520, Note_on_c, 4, 57, 69
7, 119530, Note_on_c, 4, 62, 71
7, 119540, Note_on_c, 4, 65, 72
7, 119550, Note_on_c, 4, 69, 74
7, 119736, Note_off_c, 4, 57, 0
7, 119766, Note_off_c, 4, 69, 0
7, 119790, Note_off_c, 4, 62, 0
7, 119790, Note_off_c, 4, 65, 0
7, 120480, Note_on_c, 4, 57, 71
7, 120490, Note_on_c, 4, 60, 74
7, 120500, Note_on_c, 4, 65, 77
7, 120696, Note_off_c, 4, 57, 0
7, 120750, Note_off_c, 4, 60, 0
7, 120750, Note_off_c, 4, 65, 0
7, 120960, Note_on_c, 4, 53, 66
7, 120990, Note_on_c, 4, 58, 69
7, 121110, Note_on_c, 4, 62, 82
7, 121230, Note_off_c, 4, 58, 0
7, 121290, Note_on_c, 4, 65, 101
7, 121350, Note_off_c, 4, 62, 0
7, 121590, Note_on_c, 4, 62, 95
7, 121740, Note_on_c, 4, 58, 85
7, 121830, Note_off_c, 4, 65, 0
7, 121830, Note_off_c, 4, 62, 0
7, 121920, Note_off_c, 4, 53, 0
7, 121920, Note_on_c, 4, 57, 72
7, 121980, Note_off_c, 4, 58, 0
7, 122880, Note_off_c, 4, 57, 0
7, 123360, Note_on_c, 4, 57, 69
7, 123370, Note_on_c, 4, 62, 71
7, 123380, Note_on_c, 4, 65, 72
7, 123390, Note_on_c, 4, 69, 74
7, 123576, Note_off_c, 4, 57, 0
7, 123606, Note_off_c, 4, 69, 0
7, 123630, Note_off_c, 4, 62, 0
7, 123630, Note_off_c, 4, 65, 0
7, 124320, Note_on_c, 4, 57, 71
7, 124330, Note_on_c, 4, 60, 74
7, 124340, Note_on_c, 4, 65, 77
7, 124536, Note_off_c, 4, 57, 0
7, 124590, Note_off_c, 4, 60, 0
7, 124590, Note_off_c, 4, 65, 0
7, 124800, Note_on_c, 4, 53, 66
7, 124830, Note_on_c, 4, 58, 69
7, 124950, Note_on_c, 4, 62, 82
7, 125070, Note_off_c, 4, 58, 0
7, 125130, Note_on_c, 4, 65, 101
7, 125190, Note_off_c, 4, 62, 0
7, 125430, Note_on_c, 4, 62, 95
7, 125580, Note_on_c, 4, 58, 85
7, 125670, Note_off_c, 4, 65, 0
7, 125670, Note_off_c, 4, 62, 0
7, 125760, Note_off_c, 4, 53, 0
7, 125760, Note_on_c, 4, 57, 72
7, 125820, Note_off_c, 4, 58, 0
7, 126030, Note_off_c, 4, 57, 0
7, 126030, Note_on_c, 4, 50, 85
7, 126240, Note_on_c, 4, 53, 85
7, 126270, Note_off_c, 4, 50, 0
7, 126480, Note_off_c, 4, 53, 0
7, 126480, Note_on_c, 4, 52, 85
7, 126720, Note_off_c, 4, 52, 0
7, 127200, Note_on_c, 4, 57, 69
7, 127210, Note_on_c, 4, 62, 71
7, 127220, Note_on_c, 4, 65, 72
7, 127230, Note_on_c, 4, 69, 74
7, 127416, Note_off_c, 4, 57, 0
7, 127446, Note_off_c, 4, 69, 0
7, 127470, Note_off_c, 4, 62, 0
7, 127470, Note_off_c, 4, 65, 0
7, 128160, Note_on_c, 4, 57, 71
7, 128170, Note_on_c, 4, 60, 74
7, 128180, Note_on_c, 4, 65, 77
7, 128376, Note_off_c, 4, 57, 0
7, 128430, Note_off_c, 4, 60, 0
7, 128430, Note_off_c, 4, 65, 0
7, 128640, Note_on_c, 4, 64, 116
7, 128790, Note_on_c, 4, 59, 97
7, 128880, Note_off_c, 4, 64, 0
7, 128940, Note_on_c, 4, 56, 116
7, 129090, Note_off_c, 4, 59, 0
7, 129120, Note_on_c, 4, 52, 64
7, 129270, Note_off_c, 4, 56, 0
7, 129270, Note_on_c, 4, 57, 90
7, 129450, Note_on_c, 4, 64, 119
7, 130500, Note_off_c, 4, 52, 0
7, 130500, Note_off_c, 4, 57, 0
7, 130530, Note_off_c, 4, 64, 0
7, 131040, Note_on_c, 4, 57, 97
7, 131050, Note_on_c, 4, 62, 101
7, 131060, Note_on_c, 4, 65, 105
7, 131070, Note_on_c, 4, 69, 110
7, 131256, Note_off_c, 4, 57, 0
7, 131286, Note_off_c, 4, 69, 0
7, 131310, Note_off_c, 4, 62, 0
7, 131310, Note_off_c, 4, 65, 0
7, 132000, Note_on_c, 4, 57, 71
7, 132010, Note_on_c, 4, 60, 74
7, 132020, Note_on_c, 4, 65, 77
7, 132216, Note_off_c, 4, 57, 0
7, 132270, Note_off_c, 4, 60, 0
7, 132270, Note_off_c, 4, 65, 0
7, 132480, Note_on_c, 4, 64, 108
7, 132630, Note_on_c, 4, 59, 95
7, 132720, Note_off_c, 4, 64, 0
7, 132780, Note_on_c, 4, 56, 110
7, 132930, Note_off_c, 4, 59, 0
7, 132960, Note_on_c, 4, 52, 87
7, 133110, Note_off_c, 4, 56, 0
7, 133110, Note_on_c, 4, 57, 98
7, 133290, Note_on_c, 4, 64, 119
7, 134340, Note_off_c, 4, 52, 0
7, 134340, Note_off_c, 4, 57, 0
7, 134370, Note_off_c, 4, 64, 0
7, 134880, Note_on_c, 4, 57, 105
7, 134890, Note_on_c, 4, 62, 108
7, 134900, Note_on_c, 4, 65, 111
7, 135096, Note_off_c, 4, 57, 0
7, 135150, Note_off_c, 4, 62, 0
7, 135150, Note_off_c, 4, 65, 0
7, 135840, Note_on_c, 4, 57, 111
7, 135850, Note_on_c, 4, 60, 114
7, 135860, Note_on_c, 4, 65, 118
7, 136056, Note_off_c, 4, 57, 0
7, 136110, Note_off_c, 4, 60, 0
7, 136110, Note_off_c, 4, 65, 0
7, 136320, Note_on_c, 4, 55, 69
7, 136330, Note_on_c, 4, 59, 72
7, 136340, Note_on_c, 4, 67, 75
7, 138180, Note_off_c, 4, 55, 0
7, 138204, Note_off_c, 4, 59, 0
7, 138204, Note_off_c, 4, 67, 0
7, 138720, Note_on_c, 4, 57, 59
7, 138730, Note_on_c, 4, 62, 61
7, 138740, Note_on_c, 4, 65, 62
7, 138936, Note_off_c, 4, 57, 0
7, 138990, Note_off_c, 4, 62, 0
7, 138990, Note_off_c, 4, 65, 0
7, 139680, Note_on_c, 4, 57, 71
7, 139690, Note_on_c, 4, 60, 74
7, 139700, Note_on_c, 4, 65, 77
7, 139896, Note_off_c, 4, 57, 0
7, 139950, Note_off_c, 4, 60, 0
7, 139950, Note_off_c, 4, 65, 0
7, 140160, Note_on_c, 4, 53, 66
7, 140190, Note_on_c, 4, 58, 69
7, 140310, Note_on_c, 4, 62, 82
7, 140430, Note_off_c, 4, 58, 0
7, 140490, Note_on_c, 4, 65, 101
7, 140550, Note_off_c, 4, 62, 0
7, 140790, Note_on_c, 4, 62, 95
7, 140940, Note_on_c, 4, 58, 85
7, 141030, Note_off_c, 4, 65, 0
7, 141030, Note_off_c, 4, 62, 0
7, 141120, Note_off_c, 4, 53, 0
7, 141120, Note_on_c, 4, 57, 72
7, 141180, Note_off_c, 4, 58, 0
7, 142080, Note_off_c, 4, 57, 0
7, 142560, Note_on_c, 4, 57, 90
7, 142565, Note_on_c, 4, 62, 95
7, 142575, Note_on_c, 4, 65, 101
7, 142580, Note_on_c, 4, 69, 101
7, 142686, Note_off_c, 4, 57, 0
7, 142709, Note_off_c, 4, 62, 0
7, 142735, Note_off_c, 4, 65, 0
7, 142740, Note_off_c, 4, 69, 0
7, 143520, Note_on_c, 4, 57, 71
7, 143530, Note_on_c, 4, 60, 74
7, 143540, Note_on_c, 4, 65, 77
7, 143736, Note_off_c, 4, 57, 0
7, 143790, Note_off_c, 4, 60, 0
7, 143790, Note_off_c, 4, 65, 0
7, 144000, Note_on_c, 4, 53, 66
7, 144030, Note_on_c, 4, 58, 69
7, 144150, Note_on_c, 4, 62, 82
7, 144270, Note_off_c, 4, 58, 0
7, 144330, Note_on_c, 4, 65, 101
7, 144390, Note_off_c, 4, 62, 0
7, 144630, Note_on_c, 4, 62, 95
7, 144780, Note_on_c, 4, 58, 85
7, 144870, Note_off_c, 4, 65, 0
7, 144870, Note_off_c, 4, 62, 0
7, 144960, Note_off_c, 4, 53, 0
7, 144960, Note_on_c, 4, 57, 72
7, 145020, Note_off_c, 4, 58, 0
7, 145920, Note_off_c, 4, 57, 0
7, 146400, Note_on_c, 4, 57, 59
7, 146410, Note_on_c, 4, 62, 61
7, 146420, Note_on_c, 4, 65, 62
7, 146616, Note_off_c, 4, 57, 0
7, 146670, Note_off_c, 4, 62, 0
7, 146670, Note_off_c, 4, 65, 0
7, 147360, Note_on_c, 4, 57, 71
7, 147370, Note_on_c, 4, 60, 74
7, 147380, Note_on_c, 4, 65, 77
7, 147576, Note_off_c, 4, 57, 0
7, 147630, Note_off_c, 4, 60, 0
7, 147630, Note_off_c, 4, 65, 0
7, 147840, Note_on_c, 4, 53, 66
7, 147870, Note_on_c, 4, 58, 69
7, 147990, Note_on_c, 4, 62, 82
7, 148110, Note_off_c, 4, 58, 0
7, 148170, Note_on_c, 4, 65, 101
7, 148230, Note_off_c, 4, 62, 0
7, 148470, Note_on_c, 4, 62, 95
7, 148620, Note_on_c, 4, 58, 85
7, 148710, Note_off_c, 4, 65, 0
7, 148710, Note_off_c, 4, 62, 0
7, 148800, Note_off_c, 4, 53, 0
7, 148800, Note_on_c, 4, 57, 72
7, 148860, Note_off_c, 4, 58, 0
7, 149760, Note_off_c, 4, 57, 0
7, 154080, Note_on_c, 4, 57, 59
7, 154090, Note_on_c, 4, 62, 61
7, 154100, Note_on_c, 4, 65, 62
7, 154296, Note_off_c, 4, 57, 0
7, 154350, Note_off_c, 4, 62, 0
7, 154350, Note_off_c, 4, 65, 0
7, 155040, Note_on_c, 4, 57, 71
7, 155050, Note_on_c, 4, 60, 74
7, 155060, Note_on_c, 4, 65, 77
7, 155256, Note_off_c, 4, 57, 0
7, 155310, Note_off_c, 4, 60, 0
7, 155310, Note_off_c, 4, 65, 0
7, 155520, Note_on_c, 4, 53, 66
7, 155550, Note_on_c, 4, 58, 69
7, 155670, Note_on_c, 4, 62, 82
7, 155790, Note_off_c, 4, 58, 0
7, 155850, Note_on_c, 4, 65, 101
7, 155910, Note_off_c, 4, 62, 0
7, 156150, Note_on_c, 4, 62, 95
7, 156300, Note_on_c, 4, 58, 85
7, 156390, Note_off_c, 4, 65, 0
7, 156390, Note_off_c, 4, 62, 0
7, 156480, Note_off_c, 4, 53, 0
7, 156480, Note_on_c, 4, 57, 106
7, 156540, Note_off_c, 4, 58, 0
7, 156780, Note_on_c, 4, 62, 93
7, 156840, Note_off_c, 4, 57, 0
7, 156990, Note_on_c, 4, 65, 100
7, 157020, Note_off_c, 4, 62, 0
7, 157230, Note_off_c, 4, 65, 0
7, 157260, Note_on_c, 4, 64, 110
7, 157500, Note_off_c, 4, 64, 0
7, 157920, Note_on_c, 4, 57, 90
7, 157925, Note_on_c, 4, 62, 95
7, 157935, Note_on_c, 4, 65, 101
7, 157940, Note_on_c, 4, 69, 101
7, 158046, Note_off_c, 4, 57, 0
7, 158069, Note_off_c, 4, 62, 0
7, 158095, Note_off_c, 4, 65, 0
7, 158100, Note_off_c, 4, 69, 0
7, 158880, Note_on_c, 4, 57, 71
7, 158890, Note_on_c, 4, 60, 74
7, 158900, Note_on_c, 4, 65, 77
7, 159096, Note_off_c, 4, 57, 0
7, 159150, Note_off_c, 4, 60, 0
7, 159150, Note_off_c, 4, 65, 0
7, 159360, Note_on_c, 4, 53, 66
7, 159390, Note_on_c, 4, 58, 69
7, 159510, Note_on_c, 4, 62, 82
7, 159630, Note_off_c, 4, 58, 0
7, 159690, Note_on_c, 4, 65, 101
7, 159750, Note_off_c, 4, 62, 0
7, 159990, Note_on_c, 4, 62, 95
7, 160140, Note_on_c, 4, 58, 85
7, 160230, Note_off_c, 4, 65, 0
7, 160230, Note_off_c, 4, 62, 0
7, 160320, Note_off_c, 4, 53, 0
7, 160320, Note_on_c, 4, 57, 72
7, 160380, Note_off_c, 4, 58, 0
7, 161280, Note_off_c, 4, 57, 0
7, 161760, Note_on_c, 4, 57, 59
7, 161770, Note_on_c, 4, 62, 61
7, 161780, Note_on_c, 4, 65, 62
7, 161976, Note_off_c, 4, 57, 0
7, 162030, Note_off_c, 4, 62, 0
7, 162030, Note_off_c, 4, 65, 0
7, 162720, Note_on_c, 4, 57, 71
7, 162730, Note_on_c, 4, 60, 74
7, 162740, Note_on_c, 4, 65, 77
7, 162936, Note_off_c, 4, 57, 0
7, 162990, Note_off_c, 4, 60, 0
7, 162990, Note_off_c, 4, 65, 0
7, 163200, Note_on_c, 4, 53, 66
7, 163230, Note_on_c, 4, 58, 69
7, 163350, Note_on_c, 4, 62, 82
7, 163470, Note_off_c, 4, 58, 0
7, 163530, Note_on_c, 4, 65, 101
7, 163590, Note_off_c, 4, 62, 0
7, 163830, Note_on_c, 4, 62, 95
7, 163980, Note_on_c, 4, 58, 85
7, 164070, Note_off_c, 4, 65, 0
7, 164070, Note_off_c, 4, 62, 0
7, 164160, Note_off_c, 4, 53, 0
7, 164160, Note_on_c, 4, 57, 72
7, 164220, Note_off_c, 4, 58, 0
7, 165120, Note_off_c, 4, 57, 0
7, 165600, Note_on_c, 4, 57, 53
7, 165610, Note_on_c, 4, 62, 53
7, 165620, Note_on_c, 4, 65, 53
7, 165816, Note_off_c, 4, 57, 0
7, 165870, Note_off_c, 4, 62, 0
7, 165870, Note_off_c, 4, 65, 0
7, 166560, Note_on_c, 4, 57, 38
7, 166570, Note_on_c, 4, 60, 38
7, 166580, Note_on_c, 4, 65, 38
7, 166776, Note_off_c, 4, 57, 0
7, 166830, Note_off_c, 4, 60, 0
7, 166830, Note_off_c, 4, 65, 0
7, 167040, Note_on_c, 4, 53, 31
7, 167070, Note_on_c, 4, 58, 31
7, 167190, Note_on_c, 4, 62, 30
7, 167310, Note_off_c, 4, 58, 0
7, 167370, Note_on_c, 4, 65, 27
7, 167430, Note_off_c, 4, 62, 0
7, 167670, Note_on_c, 4, 62, 22
7, 167820, Note_on_c, 4, 58, 20
7, 167910, Note_off_c, 4, 65, 0
7, 167910, Note_off_c, 4, 62, 0
7, 168000, Note_off_c, 4, 53, 0
7, 168000, Note_on_c, 4, 57, 17
7, 168060, Note_off_c, 4, 58, 0
7, 168300, Note_on_c, 4, 62, 14
7, 168360, Note_off_c, 4, 57, 0
7, 168510, Note_on_c, 4, 65, 10
7, 168540, Note_off_c, 4, 62, 0
7, 168750, Note_off_c, 4, 65, 0
7, 168750, End_track
8, 0, Start_track
8, 0, Title_t, "Piano L "
8, 0, MIDI_port, 0
8, 0, Channel_prefix, 5
8, 0, Control_c, 5, 7, 79
8, 0, Control_c, 5, 10, 44
8, 0, Program_c, 5, 0
8, 14340, Note_on_c, 5, 36, 72
8, 14340, Note_on_c, 5, 65, 72
8, 14340, Note_on_c, 5, 65, 72
8, 15360, Note_off_c, 5, 65, 0
8, 15360, Note_off_c, 5, 65, 0
8, 15360, Note_on_c, 5, 34, 90
8, 15390, Note_off_c, 5, 36, 0
8, 16320, Note_on_c, 5, 33, 106
8, 16380, Note_off_c, 5, 34, 0
8, 17280, Note_off_c, 5, 33, 0
8, 29280, Note_on_c, 5, 65, 100
8, 29280, Note_on_c, 5, 62, 97
8, 29280, Note_on_c, 5, 57, 93
8, 29760, Note_off_c, 5, 57, 0
8, 29760, Note_off_c, 5, 62, 0
8, 29760, Note_off_c, 5, 65, 0
8, 29910, Note_on_c, 5, 65, 74
8, 29910, Note_on_c, 5, 60, 74
8, 29910, Note_on_c, 5, 57, 74
8, 30198, Note_off_c, 5, 60, 0
8, 30198, Note_off_c, 5, 65, 0
8, 30204, Note_off_c, 5, 57, 0
8, 30240, Note_on_c, 5, 69, 85
8, 30240, Note_on_c, 5, 60, 93
8, 30240, Note_on_c, 5, 65, 103
8, 30678, Note_off_c, 5, 65, 0
8, 30678, Note_off_c, 5, 60, 0
8, 30684, Note_off_c, 5, 69, 0
8, 31200, Note_on_c, 5, 58, 85
8, 31200, Note_on_c, 5, 65, 85
8, 31200, Note_on_c, 5, 62, 85
8, 31530, Note_off_c, 5, 62, 0
8, 31530, Note_off_c, 5, 65, 0
8, 31530, Note_off_c, 5, 58, 0
8, 31530, Note_on_c, 5, 57, 110
8, 31530, Note_on_c, 5, 64, 110
8, 31530, Note_on_c, 5, 61, 110
8, 32586, Note_off_c, 5, 61, 0
8, 32586, Note_off_c, 5, 64, 0
8, 32586, Note_off_c, 5, 57, 0
8, 33120, Note_on_c, 5, 65, 100
8, 33120, Note_on_c, 5, 62, 97
8, 33120, Note_on_c, 5, 57, 93
8, 33600, Note_off_c, 5, 57, 0
8, 33600, Note_off_c, 5, 62, 0
8, 33600, Note_off_c, 5, 65, 0
8, 33627, Note_on_c, 5, 57, 69
8, 33627, Note_on_c, 5, 62, 69
8, 33627, Note_on_c, 5, 65, 69
8, 33672, Note_off_c, 5, 65, 0
8, 33672, Note_off_c, 5, 62, 0
8, 33672, Note_off_c, 5, 57, 0
8, 34076, Note_on_c, 5, 65, 103
8, 34076, Note_on_c, 5, 60, 93
8, 34076, Note_on_c, 5, 57, 85
8, 34364, Note_off_c, 5, 60, 0
8, 34364, Note_off_c, 5, 65, 0
8, 34370, Note_off_c, 5, 57, 0
8, 34560, Note_on_c, 5, 58, 84
8, 34560, Note_on_c, 5, 65, 84
8, 34560, Note_on_c, 5, 62, 84
8, 34890, Note_off_c, 5, 62, 0
8, 34890, Note_off_c, 5, 65, 0
8, 34890, Note_off_c, 5, 58, 0
8, 35040, Note_on_c, 5, 62, 95
8, 35040, Note_on_c, 5, 65, 103
8, 35040, Note_on_c, 5, 58, 87
8, 35370, Note_off_c, 5, 58, 0
8, 35370, Note_off_c, 5, 65, 0
8, 35370, Note_off_c, 5, 62, 0
8, 35520, Note_on_c, 5, 64, 79
8, 35520, Note_on_c, 5, 61, 79
8, 35520, Note_on_c, 5, 69, 79
8, 35986, Note_off_c, 5, 69, 0
8, 35986, Note_off_c, 5, 61, 0
8, 35986, Note_off_c, 5, 64, 0
8, 36000, Note_on_c, 5, 57, 95
8, 36000, Note_on_c, 5, 61, 95
8, 36000, Note_on_c, 5, 64, 100
8, 36466, Note_off_c, 5, 64, 0
8, 36466, Note_off_c, 5, 61, 0
8, 36466, Note_off_c, 5, 57, 0
8, 36480, Note_on_c, 5, 50, 79
8, 37440, Note_off_c, 5, 50, 0
8, 37440, Note_on_c, 5, 48, 79
8, 38400, Note_off_c, 5, 48, 0
8, 38400, Note_on_c, 5, 46, 79
8, 39360, Note_off_c, 5, 46, 0
8, 39360, Note_on_c, 5, 45, 79
8, 39660, Note_on_c, 5, 62, 118
8, 39840, Note_off_c, 5, 62, 0
8, 39840, Note_on_c, 5, 65, 119
8, 39840, Note_on_c, 5, 68, 100
8, 40080, Note_off_c, 5, 68, 0
8, 40140, Note_on_c, 5, 64, 123
8, 40200, Note_off_c, 5, 65, 0
8, 40320, Note_off_c, 5, 45, 0
8, 40320, Note_on_c, 5, 62, 124
8, 40380, Note_off_c, 5, 64, 0
8, 40800, Note_off_c, 5, 62, 0
8, 41280, Note_on_c, 5, 60, 74
8, 41280, Note_on_c, 5, 57, 74
8, 41280, Note_on_c, 5, 65, 74
8, 41610, Note_off_c, 5, 65, 0
8, 41610, Note_off_c, 5, 57, 0
8, 41610, Note_off_c, 5, 60, 0
8, 41760, Note_on_c, 5, 60, 95
8, 41760, Note_on_c, 5, 65, 103
8, 41760, Note_on_c, 5, 69, 87
8, 41760, Note_on_c, 5, 60, 95
8, 41760, Note_on_c, 5, 65, 95
8, 41760, Note_on_c, 5, 69, 95
8, 42090, Note_off_c, 5, 69, 0
8, 42090, Note_off_c, 5, 65, 0
8, 42090, Note_off_c, 5, 60, 0
8, 42090, Note_off_c, 5, 69, 0
8, 42090, Note_off_c, 5, 65, 0
8, 42090, Note_off_c, 5, 60, 0
8, 42720, Note_on_c, 5, 62, 95
8, 42720, Note_on_c, 5, 65, 103
8, 42720, Note_on_c, 5, 58, 87
8, 43050, Note_off_c, 5, 58, 0
8, 43050, Note_off_c, 5, 65, 0
8, 43050, Note_off_c, 5, 62, 0
8, 43170, Note_on_c, 5, 57, 87
8, 43500, Note_on_c, 5, 62, 118
8, 43680, Note_off_c, 5, 62, 0
8, 43680, Note_on_c, 5, 65, 119
8, 43680, Note_on_c, 5, 68, 100
8, 43920, Note_off_c, 5, 68, 0
8, 43980, Note_on_c, 5, 64, 123
8, 44040, Note_off_c, 5, 65, 0
8, 44160, Note_on_c, 5, 62, 124
8, 44220, Note_off_c, 5, 64, 0
8, 44226, Note_off_c, 5, 57, 0
8, 44640, Note_off_c, 5, 62, 0
8, 48480, Note_on_c, 5, 57, 53
8, 48490, Note_on_c, 5, 62, 53
8, 48500, Note_on_c, 5, 65, 54
8, 48696, Note_off_c, 5, 57, 0
8, 48750, Note_off_c, 5, 62, 0
8, 48750, Note_off_c, 5, 65, 0
8, 49440, Note_on_c, 5, 57, 95
8, 49450, Note_on_c, 5, 60, 95
8, 49460, Note_on_c, 5, 65, 95
8, 49656, Note_off_c, 5, 57, 0
8, 49710, Note_off_c, 5, 60, 0
8, 49710, Note_off_c, 5, 65, 0
8, 49920, Note_on_c, 5, 64, 77
8, 50070, Note_on_c, 5, 59, 84
8, 50160, Note_off_c, 5, 64, 0
8, 50220, Note_on_c, 5, 56, 90
8, 50370, Note_off_c, 5, 59, 0
8, 50400, Note_on_c, 5, 52, 98
8, 50550, Note_off_c, 5, 56, 0
8, 50580, Note_on_c, 5, 59, 105
8, 50700, Note_on_c, 5, 56, 111
8, 50734, Note_off_c, 5, 59, 0
8, 50854, Note_off_c, 5, 56, 0
8, 50880, Note_on_c, 5, 57, 106
8, 50934, Note_off_c, 5, 52, 0
8, 51840, Note_off_c, 5, 57, 0
8, 52320, Note_on_c, 5, 65, 66
8, 52320, Note_on_c, 5, 62, 66
8, 52320, Note_on_c, 5, 57, 66
8, 52536, Note_off_c, 5, 57, 0
8, 52570, Note_off_c, 5, 65, 0
8, 52580, Note_off_c, 5, 62, 0
8, 52800, Note_on_c, 5, 60, 71
8, 52800, Note_on_c, 5, 57, 71
8, 52800, Note_on_c, 5, 53, 71
8, 53016, Note_off_c, 5, 57, 0
8, 53060, Note_off_c, 5, 60, 0
8, 53280, Note_on_c, 5, 57, 101
8, 53290, Note_on_c, 5, 60, 105
8, 53300, Note_on_c, 5, 65, 108
8, 53496, Note_off_c, 5, 57, 0
8, 53550, Note_off_c, 5, 60, 0
8, 53550, Note_off_c, 5, 65, 0
8, 53640, Note_off_c, 5, 53, 0
8, 53760, Note_on_c, 5, 67, 90
8, 53760, Note_on_c, 5, 55, 90
8, 53770, Note_on_c, 5, 59, 92
8, 55620, Note_off_c, 5, 55, 0
8, 55624, Note_off_c, 5, 67, 0
8, 55644, Note_off_c, 5, 59, 0
8, 55707, Note_on_c, 5, 65, 80
8, 55707, Note_on_c, 5, 62, 60
8, 55707, Note_on_c, 5, 57, 120
8, 56112, Note_off_c, 5, 57, 0
8, 56112, Note_off_c, 5, 62, 0
8, 56112, Note_off_c, 5, 65, 0
8, 56160, Note_on_c, 5, 65, 100
8, 56160, Note_on_c, 5, 57, 93
8, 56160, Note_on_c, 5, 62, 120
8, 56565, Note_off_c, 5, 62, 0
8, 56580, Note_off_c, 5, 57, 0
8, 56580, Note_off_c, 5, 65, 0
8, 56636, Note_on_c, 5, 57, 77
8, 56636, Note_on_c, 5, 65, 77
8, 56636, Note_on_c, 5, 60, 120
8, 56924, Note_off_c, 5, 65, 0
8, 56930, Note_off_c, 5, 57, 0
8, 56930, Note_off_c, 5, 60, 0
8, 57116, Note_on_c, 5, 65, 103
8, 57116, Note_on_c, 5, 60, 93
8, 57116, Note_on_c, 5, 57, 85
8, 57404, Note_off_c, 5, 60, 0
8, 57404, Note_off_c, 5, 65, 0
8, 57410, Note_off_c, 5, 57, 0
8, 57600, Note_on_c, 5, 65, 80
8, 57600, Note_on_c, 5, 62, 80
8, 57600, Note_on_c, 5, 58, 120
8, 57930, Note_off_c, 5, 58, 0
8, 57930, Note_off_c, 5, 62, 0
8, 57930, Note_off_c, 5, 65, 0
8, 58080, Note_on_c, 5, 62, 95
8, 58080, Note_on_c, 5, 65, 103
8, 58080, Note_on_c, 5, 58, 87
8, 58080, Note_on_c, 5, 53, 120
8, 58410, Note_off_c, 5, 53, 0
8, 58410, Note_off_c, 5, 58, 0
8, 58410, Note_off_c, 5, 65, 0
8, 58410, Note_off_c, 5, 62, 0
8, 58410, Note_on_c, 5, 57, 120
8, 58560, Note_on_c, 5, 69, 79
8, 58560, Note_on_c, 5, 64, 79
8, 58560, Note_on_c, 5, 61, 79
8, 58740, Note_off_c, 5, 57, 0
8, 58800, Note_off_c, 5, 64, 0
8, 58860, Note_off_c, 5, 61, 0
8, 58860, Note_on_c, 5, 62, 108
8, 59026, Note_off_c, 5, 69, 0
8, 59040, Note_on_c, 5, 65, 108
8, 59130, Note_off_c, 5, 62, 0
8, 59310, Note_off_c, 5, 65, 0
8, 59340, Note_on_c, 5, 64, 108
8, 59610, Note_off_c, 5, 64, 0
8, 61440, Note_on_c, 5, 62, 82
8, 61440, Note_on_c, 5, 65, 87
8, 61440, Note_on_c, 5, 46, 60
8, 61868, Note_off_c, 5, 65, 0
8, 61870, Note_off_c, 5, 62, 0
8, 61920, Note_on_c, 5, 65, 92
8, 61920, Note_on_c, 5, 62, 90
8, 61920, Note_on_c, 5, 70, 92
8, 62010, Note_off_c, 5, 46, 0
8, 62023, Note_off_c, 5, 62, 0
8, 62025, Note_off_c, 5, 65, 0
8, 62025, Note_off_c, 5, 70, 0
8, 62400, Note_on_c, 5, 61, 85
8, 62400, Note_on_c, 5, 64, 93
8, 62400, Note_on_c, 5, 45, 60
8, 62828, Note_off_c, 5, 64, 0
8, 62830, Note_off_c, 5, 61, 0
8, 62880, Note_on_c, 5, 64, 103
8, 62880, Note_on_c, 5, 61, 101
8, 62880, Note_on_c, 5, 69, 103
8, 62970, Note_off_c, 5, 45, 0
8, 62983, Note_off_c, 5, 61, 0
8, 62985, Note_off_c, 5, 64, 0
8, 63150, Note_off_c, 5, 69, 0
8, 63360, Note_on_c, 5, 58, 77
8, 63360, Note_on_c, 5, 62, 80
8, 63360, Note_on_c, 5, 65, 85
8, 63793, Note_off_c, 5, 62, 0
8, 63795, Note_off_c, 5, 65, 0
8, 63798, Note_off_c, 5, 58, 0
8, 63840, Note_on_c, 5, 58, 84
8, 63840, Note_on_c, 5, 65, 88
8, 63840, Note_on_c, 5, 62, 87
8, 64261, Note_off_c, 5, 62, 0
8, 64263, Note_off_c, 5, 65, 0
8, 64266, Note_off_c, 5, 58, 0
8, 64320, Note_on_c, 5, 58, 82
8, 64320, Note_on_c, 5, 65, 92
8, 64320, Note_on_c, 5, 62, 87
8, 64754, Note_off_c, 5, 65, 0
8, 64756, Note_off_c, 5, 62, 0
8, 64758, Note_off_c, 5, 58, 0
8, 64800, Note_on_c, 5, 58, 85
8, 64800, Note_on_c, 5, 62, 88
8, 64800, Note_on_c, 5, 65, 90
8, 65221, Note_off_c, 5, 62, 0
8, 65223, Note_off_c, 5, 65, 0
8, 65226, Note_off_c, 5, 58, 0
8, 65280, Note_on_c, 5, 57, 75
8, 65280, Note_on_c, 5, 60, 80
8, 65280, Note_on_c, 5, 65, 85
8, 65714, Note_off_c, 5, 65, 0
8, 65716, Note_off_c, 5, 60, 0
8, 65718, Note_off_c, 5, 57, 0
8, 65760, Note_on_c, 5, 65, 85
8, 65760, Note_on_c, 5, 60, 80
8, 65760, Note_on_c, 5, 57, 75
8, 66194, Note_off_c, 5, 65, 0
8, 66196, Note_off_c, 5, 60, 0
8, 66198, Note_off_c, 5, 57, 0
8, 66210, Note_on_c, 5, 65, 103
8, 66210, Note_on_c, 5, 60, 103
8, 66210, Note_on_c, 5, 57, 103
8, 66360, Note_off_c, 5, 60, 0
8, 66360, Note_off_c, 5, 65, 0
8, 66366, Note_off_c, 5, 57, 0
8, 66540, Note_on_c, 5, 65, 121
8, 66540, Note_on_c, 5, 60, 121
8, 66540, Note_on_c, 5, 69, 121
8, 66690, Note_off_c, 5, 60, 0
8, 66690, Note_off_c, 5, 65, 0
8, 66696, Note_off_c, 5, 69, 0
8, 66870, Note_on_c, 5, 57, 103
8, 66870, Note_on_c, 5, 60, 103
8, 66870, Note_on_c, 5, 65, 103
8, 67170, Note_off_c, 5, 65, 0
8, 67170, Note_off_c, 5, 60, 0
8, 67176, Note_off_c, 5, 57, 0
8, 67200, Note_on_c, 5, 58, 77
8, 67200, Note_on_c, 5, 62, 80
8, 67200, Note_on_c, 5, 65, 85
8, 67633, Note_off_c, 5, 62, 0
8, 67635, Note_off_c, 5, 65, 0
8, 67638, Note_off_c, 5, 58, 0
8, 67680, Note_on_c, 5, 58, 84
8, 67680, Note_on_c, 5, 65, 88
8, 67680, Note_on_c, 5, 62, 87
8, 68101, Note_off_c, 5, 62, 0
8, 68103, Note_off_c, 5, 65, 0
8, 68106, Note_off_c, 5, 58, 0
8, 68160, Note_on_c, 5, 58, 82
8, 68160, Note_on_c, 5, 65, 92
8, 68160, Note_on_c, 5, 62, 87
8, 68594, Note_off_c, 5, 65, 0
8, 68596, Note_off_c, 5, 62, 0
8, 68598, Note_off_c, 5, 58, 0
8, 68640, Note_on_c, 5, 58, 85
8, 68640, Note_on_c, 5, 62, 88
8, 68640, Note_on_c, 5, 65, 90
8, 69061, Note_off_c, 5, 62, 0
8, 69063, Note_off_c, 5, 65, 0
8, 69066, Note_off_c, 5, 58, 0
8, 69120, Note_on_c, 5, 57, 75
8, 69120, Note_on_c, 5, 60, 80
8, 69120, Note_on_c, 5, 65, 85
8, 69554, Note_off_c, 5, 65, 0
8, 69556, Note_off_c, 5, 60, 0
8, 69558, Note_off_c, 5, 57, 0
8, 69600, Note_on_c, 5, 65, 85
8, 69600, Note_on_c, 5, 60, 80
8, 69600, Note_on_c, 5, 57, 75
8, 70034, Note_off_c, 5, 65, 0
8, 70036, Note_off_c, 5, 60, 0
8, 70038, Note_off_c, 5, 57, 0
8, 70050, Note_on_c, 5, 69, 113
8, 70050, Note_on_c, 5, 65, 113
8, 70200, Note_off_c, 5, 65, 0
8, 70206, Note_off_c, 5, 69, 0
8, 70380, Note_on_c, 5, 65, 121
8, 70380, Note_on_c, 5, 60, 121
8, 70530, Note_off_c, 5, 60, 0
8, 70530, Note_off_c, 5, 65, 0
8, 70710, Note_on_c, 5, 60, 103
8, 70710, Note_on_c, 5, 57, 103
8, 71520, Note_off_c, 5, 60, 0
8, 71526, Note_off_c, 5, 57, 0
8, 72000, Note_on_c, 5, 64, 121
8, 72150, Note_off_c, 5, 64, 0
8, 72150, Note_on_c, 5, 62, 121
8, 72270, Note_on_c, 5, 64, 121
8, 72300, Note_off_c, 5, 62, 0
8, 72930, Note_off_c, 5, 64, 0
8, 72960, Note_on_c, 5, 70, 103
8, 72960, Note_on_c, 5, 65, 103
8, 72970, Note_on_c, 5, 62, 103
8, 73176, Note_off_c, 5, 70, 0
8, 73210, Note_off_c, 5, 65, 0
8, 73230, Note_off_c, 5, 62, 0
8, 73440, Note_on_c, 5, 74, 100
8, 73440, Note_on_c, 5, 70, 100
8, 73450, Note_on_c, 5, 65, 100
8, 73656, Note_off_c, 5, 74, 0
8, 73690, Note_off_c, 5, 70, 0
8, 73710, Note_off_c, 5, 65, 0
8, 73920, Note_on_c, 5, 67, 84
8, 73920, Note_on_c, 5, 62, 80
8, 73920, Note_on_c, 5, 71, 77
8, 74680, Note_on_c, 5, 55, 40
8, 74772, Note_off_c, 5, 55, 0
8, 74814, Note_off_c, 5, 62, 0
8, 74820, Note_off_c, 5, 71, 0
8, 74832, Note_off_c, 5, 67, 0
8, 75360, Note_on_c, 5, 57, 80
8, 75360, Note_on_c, 5, 62, 80
8, 75360, Note_on_c, 5, 65, 80
8, 75576, Note_off_c, 5, 57, 0
8, 75610, Note_off_c, 5, 65, 0
8, 75620, Note_off_c, 5, 62, 0
8, 75840, Note_on_c, 5, 60, 95
8, 75840, Note_on_c, 5, 57, 95
8, 75840, Note_on_c, 5, 48, 60
8, 76056, Note_off_c, 5, 57, 0
8, 76100, Note_off_c, 5, 60, 0
8, 76320, Note_on_c, 5, 57, 85
8, 76320, Note_on_c, 5, 65, 99
8, 76330, Note_on_c, 5, 60, 87
8, 76536, Note_off_c, 5, 57, 0
8, 76570, Note_off_c, 5, 65, 0
8, 76590, Note_off_c, 5, 60, 0
8, 76680, Note_off_c, 5, 48, 0
8, 76800, Note_on_c, 5, 67, 90
8, 76800, Note_on_c, 5, 55, 90
8, 76810, Note_on_c, 5, 59, 92
8, 78660, Note_off_c, 5, 55, 0
8, 78664, Note_off_c, 5, 67, 0
8, 78684, Note_off_c, 5, 59, 0
8, 78720, Note_on_c, 5, 57, 100
8, 79200, Note_on_c, 5, 65, 100
8, 79200, Note_on_c, 5, 62, 97
8, 79650, Note_off_c, 5, 57, 0
8, 79677, Note_on_c, 5, 60, 69
8, 79677, Note_on_c, 5, 57, 69
8, 79677, Note_on_c, 5, 65, 69
8, 79680, Note_off_c, 5, 65, 0
8, 79680, Note_off_c, 5, 62, 0
8, 79680, Note_on_c, 5, 48, 69
8, 79794, Note_off_c, 5, 60, 0
8, 79794, Note_off_c, 5, 57, 0
8, 79794, Note_off_c, 5, 65, 0
8, 80136, Note_off_c, 5, 48, 0
8, 80156, Note_on_c, 5, 60, 93
8, 80156, Note_on_c, 5, 57, 85
8, 80156, Note_on_c, 5, 65, 103
8, 80444, Note_off_c, 5, 60, 0
8, 80450, Note_off_c, 5, 57, 0
8, 80582, Note_off_c, 5, 65, 0
8, 80640, Note_on_c, 5, 58, 84
8, 80640, Note_on_c, 5, 65, 84
8, 80640, Note_on_c, 5, 62, 84
8, 80970, Note_off_c, 5, 62, 0
8, 80970, Note_off_c, 5, 65, 0
8, 80970, Note_off_c, 5, 58, 0
8, 81090, Note_on_c, 5, 62, 80
8, 81090, Note_on_c, 5, 65, 80
8, 81090, Note_on_c, 5, 58, 80
8, 81420, Note_off_c, 5, 58, 0
8, 81420, Note_off_c, 5, 65, 0
8, 81420, Note_off_c, 5, 62, 0
8, 81420, Note_on_c, 5, 64, 82
8, 81420, Note_on_c, 5, 57, 82
8, 81886, Note_off_c, 5, 57, 0
8, 81886, Note_off_c, 5, 64, 0
8, 81900, Note_on_c, 5, 65, 82
8, 81900, Note_on_c, 5, 62, 82
8, 82050, Note_off_c, 5, 65, 0
8, 82080, Note_off_c, 5, 62, 0
8, 82080, Note_on_c, 5, 69, 110
8, 82080, Note_on_c, 5, 65, 110
8, 82320, Note_off_c, 5, 65, 0
8, 82320, Note_off_c, 5, 69, 0
8, 82380, Note_on_c, 5, 64, 90
8, 82380, Note_on_c, 5, 67, 90
8, 82620, Note_off_c, 5, 67, 0
8, 82620, Note_off_c, 5, 64, 0
8, 83040, Note_on_c, 5, 65, 100
8, 83040, Note_on_c, 5, 62, 97
8, 83040, Note_on_c, 5, 57, 93
8, 83520, Note_off_c, 5, 57, 0
8, 83520, Note_off_c, 5, 62, 0
8, 83520, Note_off_c, 5, 65, 0
8, 83547, Note_on_c, 5, 57, 69
8, 83547, Note_on_c, 5, 62, 69
8, 83547, Note_on_c, 5, 65, 69
8, 83592, Note_off_c, 5, 65, 0
8, 83592, Note_off_c, 5, 62, 0
8, 83592, Note_off_c, 5, 57, 0
8, 83996, Note_on_c, 5, 65, 103
8, 83996, Note_on_c, 5, 60, 93
8, 83996, Note_on_c, 5, 57, 85
8, 84284, Note_off_c, 5, 60, 0
8, 84284, Note_off_c, 5, 65, 0
8, 84290, Note_off_c, 5, 57, 0
8, 84480, Note_on_c, 5, 58, 84
8, 84480, Note_on_c, 5, 65, 84
8, 84480, Note_on_c, 5, 62, 84
8, 84810, Note_off_c, 5, 62, 0
8, 84810, Note_off_c, 5, 65, 0
8, 84810, Note_off_c, 5, 58, 0
8, 84960, Note_on_c, 5, 62, 95
8, 84960, Note_on_c, 5, 65, 103
8, 84960, Note_on_c, 5, 58, 87
8, 85290, Note_off_c, 5, 58, 0
8, 85290, Note_off_c, 5, 65, 0
8, 85290, Note_off_c, 5, 62, 0
8, 85440, Note_on_c, 5, 64, 79
8, 85440, Note_on_c, 5, 61, 79
8, 85440, Note_on_c, 5, 69, 79
8, 85906, Note_off_c, 5, 69, 0
8, 85906, Note_off_c, 5, 61, 0
8, 85906, Note_off_c, 5, 64, 0
8, 85920, Note_on_c, 5, 57, 95
8, 85920, Note_on_c, 5, 61, 95
8, 85920, Note_on_c, 5, 64, 100
8, 86386, Note_off_c, 5, 64, 0
8, 86386, Note_off_c, 5, 61, 0
8, 86386, Note_off_c, 5, 57, 0
8, 86400, Note_on_c, 5, 62, 79
8, 87360, Note_off_c, 5, 62, 0
8, 87360, Note_on_c, 5, 60, 79
8, 88320, Note_off_c, 5, 60, 0
8, 88320, Note_on_c, 5, 58, 79
8, 89280, Note_off_c, 5, 58, 0
8, 89280, Note_on_c, 5, 57, 79
8, 89580, Note_on_c, 5, 62, 118
8, 89760, Note_off_c, 5, 62, 0
8, 89760, Note_on_c, 5, 65, 119
8, 89760, Note_on_c, 5, 68, 100
8, 90000, Note_off_c, 5, 68, 0
8, 90060, Note_on_c, 5, 64, 123
8, 90120, Note_off_c, 5, 65, 0
8, 90240, Note_off_c, 5, 57, 0
8, 90240, Note_on_c, 5, 62, 124
8, 90300, Note_off_c, 5, 64, 0
8, 90720, Note_off_c, 5, 62, 0
8, 91200, Note_on_c, 5, 60, 74
8, 91200, Note_on_c, 5, 57, 74
8, 91200, Note_on_c, 5, 65, 74
8, 91530, Note_off_c, 5, 65, 0
8, 91530, Note_off_c, 5, 57, 0
8, 91530, Note_off_c, 5, 60, 0
8, 91680, Note_on_c, 5, 60, 95
8, 91680, Note_on_c, 5, 65, 103
8, 91680, Note_on_c, 5, 69, 87
8, 91680, Note_on_c, 5, 60, 95
8, 91680, Note_on_c, 5, 65, 95
8, 91680, Note_on_c, 5, 69, 95
8, 92010, Note_off_c, 5, 69, 0
8, 92010, Note_off_c, 5, 65, 0
8, 92010, Note_off_c, 5, 60, 0
8, 92010, Note_off_c, 5, 69, 0
8, 92010, Note_off_c, 5, 65, 0
8, 92010, Note_off_c, 5, 60, 0
8, 92640, Note_on_c, 5, 62, 95
8, 92640, Note_on_c, 5, 65, 103
8, 92640, Note_on_c, 5, 58, 87
8, 92970, Note_off_c, 5, 58, 0
8, 92970, Note_off_c, 5, 65, 0
8, 92970, Note_off_c, 5, 62, 0
8, 93090, Note_on_c, 5, 57, 87
8, 94146, Note_off_c, 5, 57, 0
8, 95040, Note_on_c, 5, 60, 74
8, 95040, Note_on_c, 5, 57, 74
8, 95040, Note_on_c, 5, 65, 74
8, 95370, Note_off_c, 5, 65, 0
8, 95370, Note_off_c, 5, 57, 0
8, 95370, Note_off_c, 5, 60, 0
8, 95520, Note_on_c, 5, 60, 95
8, 95520, Note_on_c, 5, 65, 103
8, 95520, Note_on_c, 5, 69, 87
8, 95520, Note_on_c, 5, 60, 95
8, 95520, Note_on_c, 5, 65, 95
8, 95520, Note_on_c, 5, 69, 95
8, 95850, Note_off_c, 5, 69, 0
8, 95850, Note_off_c, 5, 65, 0
8, 95850, Note_off_c, 5, 60, 0
8, 95850, Note_off_c, 5, 69, 0
8, 95850, Note_off_c, 5, 65, 0
8, 95850, Note_off_c, 5, 60, 0
8, 96480, Note_on_c, 5, 62, 95
8, 96480, Note_on_c, 5, 65, 103
8, 96480, Note_on_c, 5, 58, 87
8, 96810, Note_off_c, 5, 58, 0
8, 96810, Note_off_c, 5, 65, 0
8, 96810, Note_off_c, 5, 62, 0
8, 96930, Note_on_c, 5, 57, 87
8, 97260, Note_on_c, 5, 62, 118
8, 97440, Note_off_c, 5, 62, 0
8, 97440, Note_on_c, 5, 65, 119
8, 97440, Note_on_c, 5, 68, 100
8, 97680, Note_off_c, 5, 68, 0
8, 97740, Note_on_c, 5, 64, 123
8, 97800, Note_off_c, 5, 65, 0
8, 97920, Note_on_c, 5, 62, 93
8, 97920, Note_on_c, 5, 65, 93
8, 97980, Note_off_c, 5, 64, 0
8, 97986, Note_off_c, 5, 57, 0
8, 98310, Note_off_c, 5, 62, 0
8, 98310, Note_off_c, 5, 65, 0
8, 98400, Note_on_c, 5, 65, 92
8, 98400, Note_on_c, 5, 62, 92
8, 98730, Note_off_c, 5, 62, 0
8, 98730, Note_off_c, 5, 65, 0
8, 98880, Note_on_c, 5, 57, 95
8, 98880, Note_on_c, 5, 65, 95
8, 98880, Note_on_c, 5, 60, 95
8, 98880, Note_on_c, 5, 69, 95
8, 99210, Note_off_c, 5, 69, 0
8, 99210, Note_off_c, 5, 65, 0
8, 99210, Note_off_c, 5, 57, 0
8, 99270, Note_off_c, 5, 60, 0
8, 99360, Note_on_c, 5, 60, 97
8, 99360, Note_on_c, 5, 65, 97
8, 99360, Note_on_c, 5, 69, 97
8, 99360, Note_on_c, 5, 60, 97
8, 99360, Note_on_c, 5, 65, 97
8, 99360, Note_on_c, 5, 69, 97
8, 99690, Note_off_c, 5, 69, 0
8, 99690, Note_off_c, 5, 65, 0
8, 99690, Note_off_c, 5, 60, 0
8, 99690, Note_off_c, 5, 69, 0
8, 99690, Note_off_c, 5, 65, 0
8, 99690, Note_off_c, 5, 60, 0
8, 99840, Note_on_c, 5, 56, 100
8, 100138, Note_off_c, 5, 56, 0
8, 100140, Note_on_c, 5, 52, 84
8, 100320, Note_on_c, 5, 56, 100
8, 100375, Note_off_c, 5, 52, 0
8, 100800, Note_on_c, 5, 57, 100
8, 100854, Note_off_c, 5, 56, 0
8, 101760, Note_off_c, 5, 57, 0
8, 101760, Note_on_c, 5, 65, 87
8, 101760, Note_on_c, 5, 62, 87
8, 102150, Note_off_c, 5, 62, 0
8, 102150, Note_off_c, 5, 65, 0
8, 102240, Note_on_c, 5, 62, 97
8, 102240, Note_on_c, 5, 65, 97
8, 102570, Note_off_c, 5, 65, 0
8, 102570, Note_off_c, 5, 62, 0
8, 102720, Note_on_c, 5, 69, 88
8, 102720, Note_on_c, 5, 60, 88
8, 102720, Note_on_c, 5, 65, 88
8, 103050, Note_off_c, 5, 65, 0
8, 103050, Note_off_c, 5, 69, 0
8, 103110, Note_off_c, 5, 60, 0
8, 103200, Note_on_c, 5, 60, 88
8, 103200, Note_on_c, 5, 65, 88
8, 103200, Note_on_c, 5, 69, 88
8, 103200, Note_on_c, 5, 60, 88
8, 103200, Note_on_c, 5, 65, 88
8, 103200, Note_on_c, 5, 69, 88
8, 103530, Note_off_c, 5, 69, 0
8, 103530, Note_off_c, 5, 65, 0
8, 103530, Note_off_c, 5, 60, 0
8, 103530, Note_off_c, 5, 69, 0
8, 103530, Note_off_c, 5, 65, 0
8, 103530, Note_off_c, 5, 60, 0
8, 103680, Note_on_c, 5, 56, 100
8, 103978, Note_off_c, 5, 56, 0
8, 103980, Note_on_c, 5, 52, 100
8, 104160, Note_on_c, 5, 56, 100
8, 104215, Note_off_c, 5, 52, 0
8, 104640, Note_on_c, 5, 57, 100
8, 104694, Note_off_c, 5, 56, 0
8, 105600, Note_off_c, 5, 57, 0
8, 111840, Note_on_c, 5, 65, 100
8, 111840, Note_on_c, 5, 62, 97
8, 111840, Note_on_c, 5, 57, 93
8, 112320, Note_off_c, 5, 57, 0
8, 112320, Note_off_c, 5, 62, 0
8, 112320, Note_off_c, 5, 65, 0
8, 112470, Note_on_c, 5, 65, 74
8, 112470, Note_on_c, 5, 60, 74
8, 112470, Note_on_c, 5, 57, 74
8, 112758, Note_off_c, 5, 60, 0
8, 112758, Note_off_c, 5, 65, 0
8, 112764, Note_off_c, 5, 57, 0
8, 112800, Note_on_c, 5, 69, 85
8, 112800, Note_on_c, 5, 60, 93
8, 112800, Note_on_c, 5, 65, 103
8, 113238, Note_off_c, 5, 65, 0
8, 113238, Note_off_c, 5, 60, 0
8, 113244, Note_off_c, 5, 69, 0
8, 113430, Note_on_c, 5, 62, 85
8, 113430, Note_on_c, 5, 70, 85
8, 113430, Note_on_c, 5, 65, 85
8, 113604, Note_off_c, 5, 65, 0
8, 113604, Note_off_c, 5, 70, 0
8, 113664, Note_off_c, 5, 62, 0
8, 113760, Note_on_c, 5, 62, 106
8, 113760, Note_on_c, 5, 65, 106
8, 113760, Note_on_c, 5, 58, 106
8, 114090, Note_off_c, 5, 58, 0
8, 114090, Note_off_c, 5, 65, 0
8, 114090, Note_off_c, 5, 62, 0
8, 114090, Note_on_c, 5, 57, 110
8, 114090, Note_on_c, 5, 64, 110
8, 114090, Note_on_c, 5, 61, 110
8, 115146, Note_off_c, 5, 61, 0
8, 115146, Note_off_c, 5, 64, 0
8, 115146, Note_off_c, 5, 57, 0
8, 115680, Note_on_c, 5, 65, 100
8, 115680, Note_on_c, 5, 62, 97
8, 115680, Note_on_c, 5, 57, 93
8, 116160, Note_off_c, 5, 57, 0
8, 116160, Note_off_c, 5, 62, 0
8, 116160, Note_off_c, 5, 65, 0
8, 116187, Note_on_c, 5, 57, 69
8, 116187, Note_on_c, 5, 62, 69
8, 116187, Note_on_c, 5, 65, 69
8, 116232, Note_off_c, 5, 65, 0
8, 116232, Note_off_c, 5, 62, 0
8, 116232, Note_off_c, 5, 57, 0
8, 116636, Note_on_c, 5, 65, 103
8, 116636, Note_on_c, 5, 60, 93
8, 116636, Note_on_c, 5, 57, 85
8, 116924, Note_off_c, 5, 60, 0
8, 116924, Note_off_c, 5, 65, 0
8, 116930, Note_off_c, 5, 57, 0
8, 117120, Note_on_c, 5, 58, 84
8, 117120, Note_on_c, 5, 65, 84
8, 117120, Note_on_c, 5, 62, 84
8, 117450, Note_off_c, 5, 62, 0
8, 117450, Note_off_c, 5, 65, 0
8, 117450, Note_off_c, 5, 58, 0
8, 117600, Note_on_c, 5, 62, 95
8, 117600, Note_on_c, 5, 65, 103
8, 117600, Note_on_c, 5, 58, 87
8, 117930, Note_off_c, 5, 58, 0
8, 117930, Note_off_c, 5, 65, 0
8, 117930, Note_off_c, 5, 62, 0
8, 118080, Note_on_c, 5, 64, 79
8, 118080, Note_on_c, 5, 61, 79
8, 118080, Note_on_c, 5, 69, 79
8, 118546, Note_off_c, 5, 69, 0
8, 118546, Note_off_c, 5, 61, 0
8, 118546, Note_off_c, 5, 64, 0
8, 118560, Note_on_c, 5, 57, 95
8, 118560, Note_on_c, 5, 61, 95
8, 118560, Note_on_c, 5, 64, 100
8, 119026, Note_off_c, 5, 64, 0
8, 119026, Note_off_c, 5, 61, 0
8, 119026, Note_off_c, 5, 57, 0
8, 119040, Note_on_c, 5, 62, 79
8, 119040, Note_on_c, 5, 65, 79
8, 120000, Note_off_c, 5, 65, 0
8, 120000, Note_off_c, 5, 62, 0
8, 120000, Note_on_c, 5, 48, 79
8, 120960, Note_off_c, 5, 48, 0
8, 120960, Note_on_c, 5, 46, 79
8, 121920, Note_off_c, 5, 46, 0
8, 121920, Note_on_c, 5, 45, 79
8, 122220, Note_on_c, 5, 62, 118
8, 122400, Note_off_c, 5, 62, 0
8, 122400, Note_on_c, 5, 65, 119
8, 122400, Note_on_c, 5, 68, 100
8, 122640, Note_off_c, 5, 68, 0
8, 122700, Note_on_c, 5, 64, 123
8, 122760, Note_off_c, 5, 65, 0
8, 122880, Note_off_c, 5, 45, 0
8, 122880, Note_on_c, 5, 62, 124
8, 122940, Note_off_c, 5, 64, 0
8, 123360, Note_off_c, 5, 62, 0
8, 123840, Note_on_c, 5, 60, 74
8, 123840, Note_on_c, 5, 57, 74
8, 123840, Note_on_c, 5, 65, 74
8, 124170, Note_off_c, 5, 65, 0
8, 124170, Note_off_c, 5, 57, 0
8, 124170, Note_off_c, 5, 60, 0
8, 124320, Note_on_c, 5, 60, 95
8, 124320, Note_on_c, 5, 65, 103
8, 124320, Note_on_c, 5, 69, 87
8, 124320, Note_on_c, 5, 60, 95
8, 124320, Note_on_c, 5, 65, 95
8, 124320, Note_on_c, 5, 69, 95
8, 124650, Note_off_c, 5, 69, 0
8, 124650, Note_off_c, 5, 65, 0
8, 124650, Note_off_c, 5, 60, 0
8, 124650, Note_off_c, 5, 69, 0
8, 124650, Note_off_c, 5, 65, 0
8, 124650, Note_off_c, 5, 60, 0
8, 125280, Note_on_c, 5, 62, 95
8, 125280, Note_on_c, 5, 65, 103
8, 125280, Note_on_c, 5, 58, 87
8, 125610, Note_off_c, 5, 58, 0
8, 125610, Note_off_c, 5, 65, 0
8, 125610, Note_off_c, 5, 62, 0
8, 125730, Note_on_c, 5, 57, 87
8, 126060, Note_on_c, 5, 62, 118
8, 126240, Note_off_c, 5, 62, 0
8, 126240, Note_on_c, 5, 65, 119
8, 126240, Note_on_c, 5, 68, 100
8, 126480, Note_off_c, 5, 68, 0
8, 126540, Note_on_c, 5, 64, 123
8, 126600, Note_off_c, 5, 65, 0
8, 126720, Note_on_c, 5, 62, 124
8, 126780, Note_off_c, 5, 64, 0
8, 126786, Note_off_c, 5, 57, 0
8, 127200, Note_off_c, 5, 62, 0
8, 138720, Note_on_c, 5, 65, 100
8, 138720, Note_on_c, 5, 62, 97
8, 138720, Note_on_c, 5, 57, 93
8, 139200, Note_off_c, 5, 57, 0
8, 139200, Note_off_c, 5, 62, 0
8, 139200, Note_off_c, 5, 65, 0
8, 139350, Note_on_c, 5, 65, 74
8, 139350, Note_on_c, 5, 60, 74
8, 139350, Note_on_c, 5, 57, 74
8, 139638, Note_off_c, 5, 60, 0
8, 139638, Note_off_c, 5, 65, 0
8, 139644, Note_off_c, 5, 57, 0
8, 139680, Note_on_c, 5, 69, 85
8, 139680, Note_on_c, 5, 60, 93
8, 139680, Note_on_c, 5, 65, 103
8, 140118, Note_off_c, 5, 65, 0
8, 140118, Note_off_c, 5, 60, 0
8, 140124, Note_off_c, 5, 69, 0
8, 140160, Note_on_c, 5, 62, 85
8, 140160, Note_on_c, 5, 70, 85
8, 140160, Note_on_c, 5, 65, 85
8, 140430, Note_off_c, 5, 65, 0
8, 140430, Note_off_c, 5, 70, 0
8, 140490, Note_off_c, 5, 62, 0
8, 140640, Note_on_c, 5, 62, 106
8, 140640, Note_on_c, 5, 65, 106
8, 140640, Note_on_c, 5, 58, 106
8, 140970, Note_off_c, 5, 58, 0
8, 140970, Note_off_c, 5, 65, 0
8, 140970, Note_off_c, 5, 62, 0
8, 140970, Note_on_c, 5, 57, 110
8, 140970, Note_on_c, 5, 61, 110
8, 140970, Note_on_c, 5, 64, 110
8, 141360, Note_off_c, 5, 64, 0
8, 141360, Note_off_c, 5, 61, 0
8, 141420, Note_on_c, 5, 62, 118
8, 141600, Note_off_c, 5, 62, 0
8, 141600, Note_on_c, 5, 65, 119
8, 141600, Note_on_c, 5, 68, 100
8, 141840, Note_off_c, 5, 68, 0
8, 141900, Note_on_c, 5, 64, 123
8, 141960, Note_off_c, 5, 65, 0
8, 142026, Note_off_c, 5, 57, 0
8, 142080, Note_on_c, 5, 62, 97
8, 142140, Note_off_c, 5, 64, 0
8, 142560, Note_off_c, 5, 62, 0
8, 142560, Note_on_c, 5, 65, 100
8, 142560, Note_on_c, 5, 62, 97
8, 142560, Note_on_c, 5, 57, 93
8, 143040, Note_off_c, 5, 57, 0
8, 143040, Note_off_c, 5, 62, 0
8, 143040, Note_off_c, 5, 65, 0
8, 143040, Note_on_c, 5, 60, 93
8, 143490, Note_off_c, 5, 60, 0
8, 143516, Note_on_c, 5, 65, 103
8, 143516, Note_on_c, 5, 60, 93
8, 143516, Note_on_c, 5, 57, 85
8, 143804, Note_off_c, 5, 60, 0
8, 143804, Note_off_c, 5, 65, 0
8, 143810, Note_off_c, 5, 57, 0
8, 144000, Note_on_c, 5, 58, 84
8, 144000, Note_on_c, 5, 65, 84
8, 144000, Note_on_c, 5, 62, 84
8, 144330, Note_off_c, 5, 62, 0
8, 144330, Note_off_c, 5, 65, 0
8, 144330, Note_off_c, 5, 58, 0
8, 144480, Note_on_c, 5, 62, 95
8, 144480, Note_on_c, 5, 65, 103
8, 144480, Note_on_c, 5, 58, 87
8, 144810, Note_off_c, 5, 58, 0
8, 144810, Note_off_c, 5, 65, 0
8, 144810, Note_off_c, 5, 62, 0
8, 144960, Note_on_c, 5, 64, 79
8, 144960, Note_on_c, 5, 61, 79
8, 144960, Note_on_c, 5, 69, 79
8, 145426, Note_off_c, 5, 69, 0
8, 145426, Note_off_c, 5, 61, 0
8, 145426, Note_off_c, 5, 64, 0
8, 145440, Note_on_c, 5, 57, 95
8, 145440, Note_on_c, 5, 61, 95
8, 145440, Note_on_c, 5, 64, 100
8, 145906, Note_off_c, 5, 64, 0
8, 145906, Note_off_c, 5, 61, 0
8, 145906, Note_off_c, 5, 57, 0
8, 145920, Note_on_c, 5, 57, 90
8, 145920, Note_on_c, 5, 62, 90
8, 145920, Note_on_c, 5, 65, 90
8, 146358, Note_off_c, 5, 65, 0
8, 146358, Note_off_c, 5, 62, 0
8, 146358, Note_off_c, 5, 57, 0
8, 146400, Note_on_c, 5, 57, 90
8, 146400, Note_on_c, 5, 62, 90
8, 146400, Note_on_c, 5, 65, 90
8, 146838, Note_off_c, 5, 65, 0
8, 146838, Note_off_c, 5, 62, 0
8, 146838, Note_off_c, 5, 57, 0
8, 146880, Note_on_c, 5, 65, 90
8, 146880, Note_on_c, 5, 57, 90
8, 146880, Note_on_c, 5, 60, 90
8, 147318, Note_off_c, 5, 60, 0
8, 147318, Note_off_c, 5, 57, 0
8, 147318, Note_off_c, 5, 65, 0
8, 147360, Note_on_c, 5, 60, 90
8, 147360, Note_on_c, 5, 57, 90
8, 147360, Note_on_c, 5, 65, 90
8, 147798, Note_off_c, 5, 65, 0
8, 147798, Note_off_c, 5, 57, 0
8, 147798, Note_off_c, 5, 60, 0
8, 147840, Note_on_c, 5, 65, 90
8, 147840, Note_on_c, 5, 58, 90
8, 147840, Note_on_c, 5, 62, 90
8, 148278, Note_off_c, 5, 62, 0
8, 148278, Note_off_c, 5, 58, 0
8, 148278, Note_off_c, 5, 65, 0
8, 148320, Note_on_c, 5, 65, 90
8, 148320, Note_on_c, 5, 58, 90
8, 148320, Note_on_c, 5, 62, 90
8, 148758, Note_off_c, 5, 62, 0
8, 148758, Note_off_c, 5, 58, 0
8, 148758, Note_off_c, 5, 65, 0
8, 148800, Note_on_c, 5, 57, 90
8, 148800, Note_on_c, 5, 64, 90
8, 148800, Note_on_c, 5, 61, 90
8, 149238, Note_off_c, 5, 61, 0
8, 149238, Note_off_c, 5, 64, 0
8, 149238, Note_off_c, 5, 57, 0
8, 149280, Note_on_c, 5, 57, 90
8, 149280, Note_on_c, 5, 64, 90
8, 149280, Note_on_c, 5, 61, 90
8, 149718, Note_off_c, 5, 61, 0
8, 149718, Note_off_c, 5, 64, 0
8, 149718, Note_off_c, 5, 57, 0
8, 149760, Note_on_c, 5, 57, 90
8, 149760, Note_on_c, 5, 62, 90
8, 149760, Note_on_c, 5, 65, 90
8, 150198, Note_off_c, 5, 65, 0
8, 150198, Note_off_c, 5, 62, 0
8, 150198, Note_off_c, 5, 57, 0
8, 150240, Note_on_c, 5, 57, 90
8, 150240, Note_on_c, 5, 62, 90
8, 150240, Note_on_c, 5, 65, 90
8, 150678, Note_off_c, 5, 65, 0
8, 150678, Note_off_c, 5, 62, 0
8, 150678, Note_off_c, 5, 57, 0
8, 150720, Note_on_c, 5, 65, 90
8, 150720, Note_on_c, 5, 57, 90
8, 150720, Note_on_c, 5, 60, 90
8, 151158, Note_off_c, 5, 60, 0
8, 151158, Note_off_c, 5, 57, 0
8, 151158, Note_off_c, 5, 65, 0
8, 151200, Note_on_c, 5, 60, 90
8, 151200, Note_on_c, 5, 57, 90
8, 151200, Note_on_c, 5, 65, 90
8, 151638, Note_off_c, 5, 65, 0
8, 151638, Note_off_c, 5, 57, 0
8, 151638, Note_off_c, 5, 60, 0
8, 151680, Note_on_c, 5, 65, 90
8, 151680, Note_on_c, 5, 58, 90
8, 151680, Note_on_c, 5, 62, 90
8, 152118, Note_off_c, 5, 62, 0
8, 152118, Note_off_c, 5, 58, 0
8, 152118, Note_off_c, 5, 65, 0
8, 152160, Note_on_c, 5, 65, 90
8, 152160, Note_on_c, 5, 58, 90
8, 152160, Note_on_c, 5, 62, 90
8, 152598, Note_off_c, 5, 62, 0
8, 152598, Note_off_c, 5, 58, 0
8, 152598, Note_off_c, 5, 65, 0
8, 152640, Note_on_c, 5, 57, 90
8, 152640, Note_on_c, 5, 64, 90
8, 152640, Note_on_c, 5, 61, 90
8, 153078, Note_off_c, 5, 61, 0
8, 153078, Note_off_c, 5, 64, 0
8, 153078, Note_off_c, 5, 57, 0
8, 153120, Note_on_c, 5, 57, 90
8, 153120, Note_on_c, 5, 64, 90
8, 153120, Note_on_c, 5, 61, 90
8, 153558, Note_off_c, 5, 61, 0
8, 153558, Note_off_c, 5, 64, 0
8, 153558, Note_off_c, 5, 57, 0
8, 153600, Note_on_c, 5, 57, 90
8, 153600, Note_on_c, 5, 62, 90
8, 153600, Note_on_c, 5, 65, 90
8, 154038, Note_off_c, 5, 65, 0
8, 154038, Note_off_c, 5, 62, 0
8, 154038, Note_off_c, 5, 57, 0
8, 154080, Note_on_c, 5, 57, 90
8, 154080, Note_on_c, 5, 62, 90
8, 154080, Note_on_c, 5, 65, 90
8, 154518, Note_off_c, 5, 65, 0
8, 154518, Note_off_c, 5, 62, 0
8, 154518, Note_off_c, 5, 57, 0
8, 154560, Note_on_c, 5, 65, 90
8, 154560, Note_on_c, 5, 57, 90
8, 154560, Note_on_c, 5, 60, 90
8, 154998, Note_off_c, 5, 60, 0
8, 154998, Note_off_c, 5, 57, 0
8, 154998, Note_off_c, 5, 65, 0
8, 155040, Note_on_c, 5, 60, 90
8, 155040, Note_on_c, 5, 57, 90
8, 155040, Note_on_c, 5, 65, 90
8, 155478, Note_off_c, 5, 65, 0
8, 155478, Note_off_c, 5, 57, 0
8, 155478, Note_off_c, 5, 60, 0
8, 155520, Note_on_c, 5, 65, 90
8, 155520, Note_on_c, 5, 58, 90
8, 155520, Note_on_c, 5, 62, 90
8, 155958, Note_off_c, 5, 62, 0
8, 155958, Note_off_c, 5, 58, 0
8, 155958, Note_off_c, 5, 65, 0
8, 156000, Note_on_c, 5, 65, 90
8, 156000, Note_on_c, 5, 58, 90
8, 156000, Note_on_c, 5, 62, 90
8, 156438, Note_off_c, 5, 62, 0
8, 156438, Note_off_c, 5, 58, 0
8, 156438, Note_off_c, 5, 65, 0
8, 156480, Note_on_c, 5, 57, 90
8, 156480, Note_on_c, 5, 64, 90
8, 156480, Note_on_c, 5, 61, 90
8, 156918, Note_off_c, 5, 61, 0
8, 156918, Note_off_c, 5, 64, 0
8, 156918, Note_off_c, 5, 57, 0
8, 156960, Note_on_c, 5, 57, 90
8, 156960, Note_on_c, 5, 64, 90
8, 156960, Note_on_c, 5, 61, 90
8, 157398, Note_off_c, 5, 61, 0
8, 157398, Note_off_c, 5, 64, 0
8, 157398, Note_off_c, 5, 57, 0
8, 157440, Note_on_c, 5, 57, 90
8, 157440, Note_on_c, 5, 62, 90
8, 157440, Note_on_c, 5, 65, 90
8, 157878, Note_off_c, 5, 65, 0
8, 157878, Note_off_c, 5, 62, 0
8, 157878, Note_off_c, 5, 57, 0
8, 157920, Note_on_c, 5, 57, 90
8, 157920, Note_on_c, 5, 62, 90
8, 157920, Note_on_c, 5, 65, 90
8, 158358, Note_off_c, 5, 65, 0
8, 158358, Note_off_c, 5, 62, 0
8, 158358, Note_off_c, 5, 57, 0
8, 158400, Note_on_c, 5, 65, 90
8, 158400, Note_on_c, 5, 57, 90
8, 158400, Note_on_c, 5, 60, 90
8, 158838, Note_off_c, 5, 60, 0
8, 158838, Note_off_c, 5, 57, 0
8, 158838, Note_off_c, 5, 65, 0
8, 158880, Note_on_c, 5, 60, 90
8, 158880, Note_on_c, 5, 57, 90
8, 158880, Note_on_c, 5, 65, 90
8, 159318, Note_off_c, 5, 65, 0
8, 159318, Note_off_c, 5, 57, 0
8, 159318, Note_off_c, 5, 60, 0
8, 159360, Note_on_c, 5, 65, 90
8, 159360, Note_on_c, 5, 58, 90
8, 159360, Note_on_c, 5, 62, 90
8, 159798, Note_off_c, 5, 62, 0
8, 159798, Note_off_c, 5, 58, 0
8, 159798, Note_off_c, 5, 65, 0
8, 159840, Note_on_c, 5, 65, 90
8, 159840, Note_on_c, 5, 58, 90
8, 159840, Note_on_c, 5, 62, 90
8, 160278, Note_off_c, 5, 62, 0
8, 160278, Note_off_c, 5, 58, 0
8, 160278, Note_off_c, 5, 65, 0
8, 160320, Note_on_c, 5, 57, 90
8, 160320, Note_on_c, 5, 64, 90
8, 160320, Note_on_c, 5, 61, 90
8, 160758, Note_off_c, 5, 61, 0
8, 160758, Note_off_c, 5, 64, 0
8, 160758, Note_off_c, 5, 57, 0
8, 160800, Note_on_c, 5, 57, 90
8, 160800, Note_on_c, 5, 64, 90
8, 160800, Note_on_c, 5, 61, 90
8, 161238, Note_off_c, 5, 61, 0
8, 161238, Note_off_c, 5, 64, 0
8, 161238, Note_off_c, 5, 57, 0
8, 161280, Note_on_c, 5, 57, 90
8, 161280, Note_on_c, 5, 62, 90
8, 161280, Note_on_c, 5, 65, 90
8, 161718, Note_off_c, 5, 65, 0
8, 161718, Note_off_c, 5, 62, 0
8, 161718, Note_off_c, 5, 57, 0
8, 161760, Note_on_c, 5, 57, 90
8, 161760, Note_on_c, 5, 62, 90
8, 161760, Note_on_c, 5, 65, 90
8, 162198, Note_off_c, 5, 65, 0
8, 162198, Note_off_c, 5, 62, 0
8, 162198, Note_off_c, 5, 57, 0
8, 162240, Note_on_c, 5, 60, 93
8, 162240, Note_on_c, 5, 57, 93
8, 162240, Note_on_c, 5, 65, 93
8, 162678, Note_off_c, 5, 65, 0
8, 162678, Note_off_c, 5, 57, 0
8, 162678, Note_off_c, 5, 60, 0
8, 162720, Note_on_c, 5, 60, 87
8, 162720, Note_on_c, 5, 57, 87
8, 162720, Note_on_c, 5, 65, 87
8, 163158, Note_off_c, 5, 65, 0
8, 163158, Note_off_c, 5, 57, 0
8, 163158, Note_off_c, 5, 60, 0
8, 163200, Note_on_c, 5, 65, 80
8, 163200, Note_on_c, 5, 58, 80
8, 163200, Note_on_c, 5, 62, 80
8, 163638, Note_off_c, 5, 62, 0
8, 163638, Note_off_c, 5, 58, 0
8, 163638, Note_off_c, 5, 65, 0
8, 163680, Note_on_c, 5, 65, 75
8, 163680, Note_on_c, 5, 58, 75
8, 163680, Note_on_c, 5, 62, 75
8, 164118, Note_off_c, 5, 62, 0
8, 164118, Note_off_c, 5, 58, 0
8, 164118, Note_off_c, 5, 65, 0
8, 164160, Note_on_c, 5, 57, 69
8, 164160, Note_on_c, 5, 64, 69
8, 164160, Note_on_c, 5, 61, 69
8, 164598, Note_off_c, 5, 61, 0
8, 164598, Note_off_c, 5, 64, 0
8, 164598, Note_off_c, 5, 57, 0
8, 164640, Note_on_c, 5, 57, 62
8, 164640, Note_on_c, 5, 64, 62
8, 164640, Note_on_c, 5, 61, 62
8, 165078, Note_off_c, 5, 61, 0
8, 165078, Note_off_c, 5, 64, 0
8, 165078, Note_off_c, 5, 57, 0
8, 165120, Note_on_c, 5, 57, 56
8, 165120, Note_on_c, 5, 62, 56
8, 165120, Note_on_c, 5, 65, 56
8, 165558, Note_off_c, 5, 65, 0
8, 165558, Note_off_c, 5, 62, 0
8, 165558, Note_off_c, 5, 57, 0
8, 165600, Note_on_c, 5, 57, 49
8, 165600, Note_on_c, 5, 62, 49
8, 165600, Note_on_c, 5, 65, 49
8, 166038, Note_off_c, 5, 65, 0
8, 166038, Note_off_c, 5, 62, 0
8, 166038, Note_off_c, 5, 57, 0
8, 166080, Note_on_c, 5, 65, 44
8, 166080, Note_on_c, 5, 57, 44
8, 166080, Note_on_c, 5, 60, 44
8, 166518, Note_off_c, 5, 60, 0
8, 166518, Note_off_c, 5, 57, 0
8, 166518, Note_off_c, 5, 65, 0
8, 166560, Note_on_c, 5, 60, 38
8, 166560, Note_on_c, 5, 57, 38
8, 166560, Note_on_c, 5, 65, 38
8, 166998, Note_off_c, 5, 65, 0
8, 166998, Note_off_c, 5, 57, 0
8, 166998, Note_off_c, 5, 60, 0
8, 167040, Note_on_c, 5, 65, 31
8, 167040, Note_on_c, 5, 58, 31
8, 167040, Note_on_c, 5, 62, 31
8, 167478, Note_off_c, 5, 62, 0
8, 167478, Note_off_c, 5, 58, 0
8, 167478, Note_off_c, 5, 65, 0
8, 167520, Note_on_c, 5, 65, 25
8, 167520, Note_on_c, 5, 58, 25
8, 167520, Note_on_c, 5, 62, 25
8, 167958, Note_off_c, 5, 62, 0
8, 167958, Note_off_c, 5, 58, 0
8, 167958, Note_off_c, 5, 65, 0
8, 168000, Note_on_c, 5, 57, 18
8, 168000, Note_on_c, 5, 64, 18
8, 168000, Note_on_c, 5, 61, 18
8, 168438, Note_off_c, 5, 61, 0
8, 168438, Note_off_c, 5, 64, 0
8, 168438, Note_off_c, 5, 57, 0
8, 168480, Note_on_c, 5, 61, 9
8, 168480, Note_on_c, 5, 64, 9
8, 168480, Note_on_c, 5, 57, 9
8, 168918, Note_off_c, 5, 57, 0
8, 168918, Note_off_c, 5, 64, 0
8, 168918, Note_off_c, 5, 61, 0
8, 168918, End_track
9, 0, Start_track
9, 0, Title_t, "Mellotron C"
9, 0, MIDI_port, 0
9, 0, Channel_prefix, 6
9, 0, Control_c, 6, 7, 109
9, 0, Control_c, 6, 10, 64
9, 0, Program_c, 6, 49
9, 40320, Note_on_c, 6, 62, 100
9, 40320, Note_on_c, 6, 74, 70
9, 43200, Note_on_c, 6, 61, 80
9, 43200, Note_on_c, 6, 73, 60
9, 43230, Note_off_c, 6, 74, 0
9, 43230, Note_off_c, 6, 62, 0
9, 44160, Note_off_c, 6, 61, 0
9, 44160, Note_off_c, 6, 73, 0
9, 44160, Note_on_c, 6, 62, 90
9, 44160, Note_on_c, 6, 74, 60
9, 46080, Note_off_c, 6, 74, 0
9, 46080, Note_off_c, 6, 62, 0
9, 46080, Note_on_c, 6, 56, 110
9, 47040, Note_off_c, 6, 56, 0
9, 47040, Note_on_c, 6, 55, 100
9, 48000, Note_off_c, 6, 55, 0
9, 48000, Note_on_c, 6, 62, 80
9, 48000, Note_on_c, 6, 74, 60
9, 49920, Note_off_c, 6, 74, 0
9, 49920, Note_off_c, 6, 62, 0
9, 49920, Note_on_c, 6, 56, 100
9, 50400, Note_off_c, 6, 56, 0
9, 50400, Note_on_c, 6, 56, 100
9, 50880, Note_off_c, 6, 56, 0
9, 50880, Note_on_c, 6, 55, 100
9, 51803, Note_off_c, 6, 55, 0
9, 51840, Note_on_c, 6, 74, 67
9, 51840, Note_on_c, 6, 62, 67
9, 54750, Note_off_c, 6, 62, 0
9, 54750, Note_off_c, 6, 74, 0
9, 90240, Note_on_c, 6, 62, 100
9, 90240, Note_on_c, 6, 74, 70
9, 93120, Note_on_c, 6, 61, 80
9, 93120, Note_on_c, 6, 73, 60
9, 93150, Note_off_c, 6, 74, 0
9, 93150, Note_off_c, 6, 62, 0
9, 94080, Note_off_c, 6, 61, 0
9, 94080, Note_off_c, 6, 73, 0
9, 94080, Note_on_c, 6, 62, 100
9, 94080, Note_on_c, 6, 74, 70
9, 96960, Note_on_c, 6, 61, 80
9, 96960, Note_on_c, 6, 73, 60
9, 96990, Note_off_c, 6, 74, 0
9, 96990, Note_off_c, 6, 62, 0
9, 97920, Note_off_c, 6, 61, 0
9, 97920, Note_off_c, 6, 73, 0
9, 97920, Note_on_c, 6, 62, 90
9, 97920, Note_on_c, 6, 74, 60
9, 99840, Note_off_c, 6, 74, 0
9, 99840, Note_off_c, 6, 62, 0
9, 99840, Note_on_c, 6, 56, 110
9, 100800, Note_off_c, 6, 56, 0
9, 100800, Note_on_c, 6, 55, 100
9, 101760, Note_off_c, 6, 55, 0
9, 101760, Note_on_c, 6, 62, 90
9, 101760, Note_on_c, 6, 74, 60
9, 103680, Note_off_c, 6, 74, 0
9, 103680, Note_off_c, 6, 62, 0
9, 103680, Note_on_c, 6, 56, 110
9, 104640, Note_off_c, 6, 56, 0
9, 104640, Note_on_c, 6, 55, 100
9, 105600, Note_off_c, 6, 55, 0
9, 105600, Note_on_c, 6, 62, 67
9, 105600, Note_on_c, 6, 74, 67
9, 106560, Note_off_c, 6, 62, 0
9, 106560, Note_on_c, 6, 65, 67
9, 107520, Note_off_c, 6, 65, 0
9, 107520, Note_on_c, 6, 67, 67
9, 108480, Note_off_c, 6, 67, 0
9, 108480, Note_on_c, 6, 70, 67
9, 110400, Note_off_c, 6, 74, 0
9, 110400, Note_off_c, 6, 70, 0
9, 122880, Note_on_c, 6, 62, 100
9, 122880, Note_on_c, 6, 74, 70
9, 125760, Note_on_c, 6, 61, 80
9, 125760, Note_on_c, 6, 73, 60
9, 125790, Note_off_c, 6, 74, 0
9, 125790, Note_off_c, 6, 62, 0
9, 126720, Note_off_c, 6, 61, 0
9, 126720, Note_off_c, 6, 73, 0
9, 126720, Note_on_c, 6, 62, 90
9, 126720, Note_on_c, 6, 74, 60
9, 128640, Note_off_c, 6, 74, 0
9, 128640, Note_off_c, 6, 62, 0
9, 128640, Note_on_c, 6, 56, 110
9, 129600, Note_off_c, 6, 56, 0
9, 129600, Note_on_c, 6, 55, 100
9, 130560, Note_off_c, 6, 55, 0
9, 130560, Note_on_c, 6, 62, 80
9, 130560, Note_on_c, 6, 74, 60
9, 132480, Note_off_c, 6, 74, 0
9, 132480, Note_off_c, 6, 62, 0
9, 132480, Note_on_c, 6, 56, 100
9, 132960, Note_off_c, 6, 56, 0
9, 132960, Note_on_c, 6, 56, 100
9, 133440, Note_off_c, 6, 56, 0
9, 133440, Note_on_c, 6, 55, 100
9, 134363, Note_off_c, 6, 55, 0
9, 134400, Note_on_c, 6, 74, 67
9, 134400, Note_on_c, 6, 62, 67
9, 137310, Note_off_c, 6, 62, 0
9, 137310, Note_off_c, 6, 74, 0
9, 145920, Note_on_c, 6, 62, 100
9, 145920, Note_on_c, 6, 74, 70
9, 148800, Note_on_c, 6, 61, 80
9, 148800, Note_on_c, 6, 73, 60
9, 148830, Note_off_c, 6, 74, 0
9, 148830, Note_off_c, 6, 62, 0
9, 149760, Note_off_c, 6, 61, 0
9, 149760, Note_off_c, 6, 73, 0
9, 149760, Note_on_c, 6, 62, 100
9, 149760, Note_on_c, 6, 74, 70
9, 152640, Note_on_c, 6, 61, 80
9, 152640, Note_on_c, 6, 73, 60
9, 152670, Note_off_c, 6, 74, 0
9, 152670, Note_off_c, 6, 62, 0
9, 153600, Note_off_c, 6, 61, 0
9, 153600, Note_off_c, 6, 73, 0
9, 153600, Note_on_c, 6, 62, 100
9, 153600, Note_on_c, 6, 74, 70
9, 156480, Note_on_c, 6, 61, 80
9, 156480, Note_on_c, 6, 73, 60
9, 156510, Note_off_c, 6, 74, 0
9, 156510, Note_off_c, 6, 62, 0
9, 157440, Note_off_c, 6, 61, 0
9, 157440, Note_off_c, 6, 73, 0
9, 157440, Note_on_c, 6, 62, 100
9, 157440, Note_on_c, 6, 74, 70
9, 160320, Note_on_c, 6, 73, 72
9, 160320, Note_on_c, 6, 61, 72
9, 160350, Note_off_c, 6, 74, 0
9, 160350, Note_off_c, 6, 62, 0
9, 161280, Note_off_c, 6, 73, 0
9, 161280, Note_off_c, 6, 61, 0
9, 161280, Note_on_c, 6, 62, 66
9, 161280, Note_on_c, 6, 74, 66
9, 164160, Note_on_c, 6, 61, 44
9, 164160, Note_on_c, 6, 73, 44
9, 164190, Note_off_c, 6, 74, 0
9, 164190, Note_off_c, 6, 62, 0
9, 165120, Note_off_c, 6, 61, 0
9, 165120, Note_off_c, 6, 73, 0
9, 165120, Note_on_c, 6, 62, 38
9, 165120, Note_on_c, 6, 74, 38
9, 168000, Note_on_c, 6, 73, 10
9, 168000, Note_on_c, 6, 61, 10
9, 168030, Note_off_c, 6, 74, 0
9, 168030, Note_off_c, 6, 62, 0
9, 168960, Note_off_c, 6, 73, 0
9, 168960, Note_off_c, 6, 61, 0
9, 168960, End_track
10, 0, Start_track
10, 0, Title_t, "Flute Solo C"
10, 0, MIDI_port, 0
10, 0, Channel_prefix, 7
10, 0, Control_c, 7, 7, 124
10, 0, Control_c, 7, 10, 64
10, 0, Program_c, 7, 72
10, 86232, Control_c, 7, 11, 110
10, 86352, Control_c, 7, 11, 113
10, 86880, Note_on_c, 7, 74, 80
10, 86970, Note_off_c, 7, 74, 0
10, 86970, Note_on_c, 7, 74, 85
10, 87060, Note_off_c, 7, 74, 0
10, 87060, Note_on_c, 7, 74, 90
10, 87120, Note_on_c, 7, 77, 116
10, 87150, Note_off_c, 7, 74, 0
10, 87240, Note_on_c, 7, 74, 100
10, 87270, Note_off_c, 7, 77, 0
10, 87360, Note_off_c, 7, 74, 0
10, 87600, Note_on_c, 7, 74, 82
10, 87690, Note_off_c, 7, 74, 0
10, 87690, Note_on_c, 7, 74, 59
10, 87810, Note_off_c, 7, 74, 0
10, 87810, Note_on_c, 7, 74, 90
10, 87900, Note_on_c, 7, 79, 118
10, 87930, Note_off_c, 7, 74, 0
10, 88020, Note_off_c, 7, 79, 0
10, 88020, Note_on_c, 7, 77, 100
10, 88200, Note_off_c, 7, 77, 0
10, 88500, Note_on_c, 7, 74, 72
10, 88590, Note_off_c, 7, 74, 0
10, 88590, Note_on_c, 7, 74, 59
10, 88710, Note_off_c, 7, 74, 0
10, 88710, Note_on_c, 7, 74, 75
10, 88800, Note_off_c, 7, 74, 0
10, 88800, Note_on_c, 7, 81, 93
10, 88920, Note_on_c, 7, 79, 79
10, 88950, Note_off_c, 7, 81, 0
10, 89040, Note_on_c, 7, 77, 88
10, 89070, Note_off_c, 7, 79, 0
10, 89250, Note_on_c, 7, 79, 61
10, 89280, Note_off_c, 7, 77, 0
10, 90000, Note_off_c, 7, 79, 0
10, 90060, Note_on_c, 7, 81, 84
10, 90210, Note_off_c, 7, 81, 0
10, 90210, Note_on_c, 7, 77, 100
10, 90330, Note_on_c, 7, 74, 80
10, 90360, Note_off_c, 7, 77, 0
10, 90510, Note_off_c, 7, 74, 0
10, 90540, Note_on_c, 7, 81, 79
10, 90690, Note_off_c, 7, 81, 0
10, 90690, Note_on_c, 7, 77, 100
10, 90810, Note_on_c, 7, 74, 75
10, 90840, Note_off_c, 7, 77, 0
10, 90990, Note_off_c, 7, 74, 0
10, 91020, Note_on_c, 7, 81, 79
10, 91170, Note_off_c, 7, 81, 0
10, 91170, Note_on_c, 7, 77, 100
10, 91290, Note_on_c, 7, 74, 85
10, 91320, Note_off_c, 7, 77, 0
10, 91470, Note_off_c, 7, 74, 0
10, 91500, Note_on_c, 7, 81, 84
10, 91650, Note_off_c, 7, 81, 0
10, 91650, Note_on_c, 7, 77, 100
10, 91770, Note_on_c, 7, 74, 88
10, 91800, Note_off_c, 7, 77, 0
10, 92070, Note_on_c, 7, 73, 62
10, 92130, Note_off_c, 7, 74, 0
10, 92430, Note_on_c, 7, 74, 82
10, 92490, Note_off_c, 7, 73, 0
10, 92760, Note_on_c, 7, 76, 69
10, 92790, Note_off_c, 7, 74, 0
10, 92910, Note_on_c, 7, 73, 77
10, 92940, Note_off_c, 7, 76, 0
10, 93090, Note_on_c, 7, 69, 62
10, 93180, Note_off_c, 7, 73, 0
10, 93900, Note_on_c, 7, 81, 79
10, 93930, Note_off_c, 7, 69, 0
10, 94050, Note_off_c, 7, 81, 0
10, 94050, Note_on_c, 7, 77, 100
10, 94170, Note_on_c, 7, 74, 80
10, 94200, Note_off_c, 7, 77, 0
10, 94350, Note_off_c, 7, 74, 0
10, 94380, Note_on_c, 7, 81, 79
10, 94530, Note_off_c, 7, 81, 0
10, 94530, Note_on_c, 7, 77, 100
10, 94650, Note_on_c, 7, 74, 75
10, 94680, Note_off_c, 7, 77, 0
10, 94830, Note_off_c, 7, 74, 0
10, 94860, Note_on_c, 7, 81, 79
10, 95010, Note_off_c, 7, 81, 0
10, 95010, Note_on_c, 7, 77, 100
10, 95130, Note_on_c, 7, 74, 85
10, 95160, Note_off_c, 7, 77, 0
10, 95310, Note_off_c, 7, 74, 0
10, 95340, Note_on_c, 7, 81, 84
10, 95490, Note_off_c, 7, 81, 0
10, 95490, Note_on_c, 7, 77, 100
10, 95610, Note_on_c, 7, 74, 88
10, 95640, Note_off_c, 7, 77, 0
10, 95910, Note_on_c, 7, 73, 62
10, 95970, Note_off_c, 7, 74, 0
10, 96270, Note_on_c, 7, 74, 82
10, 96330, Note_off_c, 7, 73, 0
10, 96600, Note_on_c, 7, 76, 69
10, 96630, Note_off_c, 7, 74, 0
10, 96750, Note_on_c, 7, 73, 77
10, 96780, Note_off_c, 7, 76, 0
10, 96930, Note_on_c, 7, 69, 62
10, 97020, Note_off_c, 7, 73, 0
10, 97710, Note_off_c, 7, 69, 0
10, 97740, Note_on_c, 7, 69, 87
10, 97920, Note_off_c, 7, 69, 0
10, 97920, Note_on_c, 7, 74, 95
10, 98520, Note_off_c, 7, 74, 0
10, 98520, Note_on_c, 7, 73, 84
10, 98640, Note_on_c, 7, 74, 116
10, 98640, Note_on_c, 7, 74, 103
10, 98670, Note_off_c, 7, 73, 0
10, 98760, Note_off_c, 7, 74, 0
10, 98760, Note_on_c, 7, 75, 31
10, 98778, Note_off_c, 7, 74, 0
10, 98800, Note_on_c, 7, 76, 38
10, 98820, Note_off_c, 7, 75, 0
10, 98840, Note_on_c, 7, 77, 100
10, 98860, Note_off_c, 7, 76, 0
10, 99362, Note_off_c, 7, 77, 0
10, 99480, Note_on_c, 7, 74, 64
10, 99600, Note_on_c, 7, 77, 90
10, 99618, Note_off_c, 7, 74, 0
10, 99700, Note_on_c, 7, 78, 48
10, 99720, Note_off_c, 7, 77, 0
10, 99740, Note_on_c, 7, 79, 66
10, 99769, Note_off_c, 7, 78, 0
10, 99800, Note_on_c, 7, 80, 103
10, 99809, Note_off_c, 7, 79, 0
10, 100310, Note_off_c, 7, 80, 0
10, 100380, Note_on_c, 7, 80, 103
10, 100500, Note_off_c, 7, 80, 0
10, 100540, Note_on_c, 7, 80, 103
10, 100684, Note_off_c, 7, 80, 0
10, 100760, Note_on_c, 7, 76, 103
10, 101462, Note_off_c, 7, 76, 0
10, 101760, Note_on_c, 7, 74, 95
10, 102360, Note_off_c, 7, 74, 0
10, 102360, Note_on_c, 7, 73, 84
10, 102480, Note_on_c, 7, 74, 116
10, 102480, Note_on_c, 7, 74, 103
10, 102510, Note_off_c, 7, 73, 0
10, 102600, Note_off_c, 7, 74, 0
10, 102600, Note_on_c, 7, 75, 31
10, 102618, Note_off_c, 7, 74, 0
10, 102640, Note_on_c, 7, 76, 38
10, 102660, Note_off_c, 7, 75, 0
10, 102680, Note_on_c, 7, 77, 100
10, 102700, Note_off_c, 7, 76, 0
10, 103202, Note_off_c, 7, 77, 0
10, 103320, Note_on_c, 7, 74, 64
10, 103440, Note_on_c, 7, 77, 90
10, 103458, Note_off_c, 7, 74, 0
10, 103540, Note_on_c, 7, 78, 48
10, 103560, Note_off_c, 7, 77, 0
10, 103580, Note_on_c, 7, 79, 66
10, 103609, Note_off_c, 7, 78, 0
10, 103640, Note_on_c, 7, 80, 103
10, 103649, Note_off_c, 7, 79, 0
10, 104150, Note_off_c, 7, 80, 0
10, 104220, Note_on_c, 7, 80, 103
10, 104340, Note_off_c, 7, 80, 0
10, 104380, Note_on_c, 7, 80, 103
10, 104524, Note_off_c, 7, 80, 0
10, 104600, Note_on_c, 7, 76, 103
10, 105122, Note_off_c, 7, 76, 0
10, 105420, Note_on_c, 7, 81, 79
10, 105570, Note_off_c, 7, 81, 0
10, 105570, Note_on_c, 7, 77, 100
10, 105690, Note_on_c, 7, 74, 80
10, 105720, Note_off_c, 7, 77, 0
10, 105870, Note_off_c, 7, 74, 0
10, 105900, Note_on_c, 7, 81, 79
10, 106050, Note_off_c, 7, 81, 0
10, 106050, Note_on_c, 7, 77, 100
10, 106170, Note_on_c, 7, 74, 75
10, 106200, Note_off_c, 7, 77, 0
10, 106350, Note_off_c, 7, 74, 0
10, 106380, Note_on_c, 7, 81, 79
10, 106530, Note_off_c, 7, 81, 0
10, 106530, Note_on_c, 7, 77, 100
10, 106650, Note_on_c, 7, 74, 85
10, 106680, Note_off_c, 7, 77, 0
10, 106830, Note_off_c, 7, 74, 0
10, 106860, Note_on_c, 7, 81, 84
10, 107010, Note_off_c, 7, 81, 0
10, 107010, Note_on_c, 7, 77, 100
10, 107130, Note_on_c, 7, 74, 88
10, 107160, Note_off_c, 7, 77, 0
10, 107280, Note_off_c, 7, 74, 0
10, 107340, Note_on_c, 7, 81, 84
10, 107520, Note_off_c, 7, 81, 0
10, 107520, Note_on_c, 7, 77, 75
10, 107700, Note_off_c, 7, 77, 0
10, 107820, Note_on_c, 7, 74, 66
10, 108420, Note_on_c, 7, 86, 66
10, 108540, Note_off_c, 7, 74, 0
10, 109440, Note_off_c, 7, 86, 0
10, 109650, Note_on_c, 7, 84, 101
10, 109740, Note_on_c, 7, 81, 92
10, 109800, Note_off_c, 7, 84, 0
10, 109830, Note_on_c, 7, 77, 80
10, 109890, Note_off_c, 7, 81, 0
10, 109920, Note_on_c, 7, 74, 69
10, 109980, Note_off_c, 7, 77, 0
10, 110880, Note_off_c, 7, 74, 0
10, 145980, Note_on_c, 7, 74, 108
10, 146034, Control_c, 7, 11, 111
10, 146034, Control_c, 7, 11, 111
10, 146070, Note_off_c, 7, 74, 0
10, 146070, Note_on_c, 7, 74, 92
10, 146154, Control_c, 7, 11, 106
10, 146160, Note_off_c, 7, 74, 0
10, 146160, Note_on_c, 7, 74, 106
10, 146220, Note_off_c, 7, 74, 0
10, 146220, Note_on_c, 7, 74, 95
10, 146274, Control_c, 7, 11, 101
10, 146340, Note_off_c, 7, 74, 0
10, 146394, Control_c, 7, 11, 97
10, 146400, Note_on_c, 7, 77, 116
10, 146514, Control_c, 7, 11, 92
10, 146580, Note_off_c, 7, 77, 0
10, 146634, Control_c, 7, 11, 87
10, 146640, Note_on_c, 7, 74, 100
10, 146754, Control_c, 7, 11, 82
10, 146760, Note_off_c, 7, 74, 0
10, 146834, Control_c, 7, 11, 79
10, 146880, Note_on_c, 7, 79, 116
10, 146954, Control_c, 7, 11, 80
10, 147060, Note_off_c, 7, 79, 0
10, 147074, Control_c, 7, 11, 84
10, 147120, Note_on_c, 7, 74, 84
10, 147194, Control_c, 7, 11, 87
10, 147301, Note_off_c, 7, 74, 0
10, 147314, Control_c, 7, 11, 90
10, 147360, Note_on_c, 7, 86, 88
10, 147434, Control_c, 7, 11, 92
10, 147554, Control_c, 7, 11, 95
10, 147674, Control_c, 7, 11, 98
10, 147794, Control_c, 7, 11, 101
10, 147960, Note_off_c, 7, 86, 0
10, 147960, Note_on_c, 7, 84, 77
10, 148020, Note_on_c, 7, 83, 74
10, 148062, Note_off_c, 7, 84, 0
10, 148080, Note_on_c, 7, 81, 69
10, 148122, Note_off_c, 7, 83, 0
10, 148140, Note_on_c, 7, 79, 66
10, 148182, Note_off_c, 7, 81, 0
10, 148200, Note_on_c, 7, 77, 62
10, 148242, Note_off_c, 7, 79, 0
10, 148260, Note_on_c, 7, 76, 57
10, 148302, Note_off_c, 7, 77, 0
10, 148320, Note_on_c, 7, 74, 71
10, 148362, Note_off_c, 7, 76, 0
10, 148776, Control_c, 7, 11, 119
10, 148800, Note_off_c, 7, 74, 0
10, 148800, Note_on_c, 7, 77, 88
10, 148896, Control_c, 7, 11, 111
10, 149016, Control_c, 7, 11, 101
10, 149136, Control_c, 7, 11, 93
10, 149256, Control_c, 7, 11, 84
10, 149376, Control_c, 7, 11, 75
10, 149496, Control_c, 7, 11, 66
10, 149616, Control_c, 7, 11, 57
10, 149760, Note_off_c, 7, 77, 0
10, 149808, Control_c, 7, 11, 67
10, 149928, Control_c, 7, 11, 87
10, 150000, Note_on_c, 7, 86, 62
10, 150048, Control_c, 7, 11, 108
10, 150720, Note_off_c, 7, 86, 0
10, 150720, Note_on_c, 7, 74, 90
10, 150960, Note_off_c, 7, 74, 0
10, 150960, Note_on_c, 7, 77, 77
10, 151379, Note_off_c, 7, 77, 0
10, 153660, Note_on_c, 7, 74, 80
10, 153714, Control_c, 7, 11, 111
10, 153714, Control_c, 7, 11, 111
10, 153750, Note_off_c, 7, 74, 0
10, 153750, Note_on_c, 7, 74, 64
10, 153834, Control_c, 7, 11, 106
10, 153840, Note_off_c, 7, 74, 0
10, 153840, Note_on_c, 7, 74, 90
10, 153900, Note_off_c, 7, 74, 0
10, 153900, Note_on_c, 7, 74, 80
10, 153954, Control_c, 7, 11, 101
10, 154020, Note_off_c, 7, 74, 0
10, 154074, Control_c, 7, 11, 97
10, 154080, Note_on_c, 7, 77, 116
10, 154194, Control_c, 7, 11, 92
10, 154260, Note_off_c, 7, 77, 0
10, 154260, Note_on_c, 7, 74, 95
10, 154314, Control_c, 7, 11, 87
10, 154434, Control_c, 7, 11, 82
10, 154440, Note_off_c, 7, 74, 0
10, 154500, Note_on_c, 7, 86, 103
10, 154514, Control_c, 7, 11, 79
10, 154634, Control_c, 7, 11, 80
10, 154754, Control_c, 7, 11, 84
10, 154874, Control_c, 7, 11, 87
10, 154994, Control_c, 7, 11, 90
10, 155114, Control_c, 7, 11, 92
10, 155160, Note_off_c, 7, 86, 0
10, 155160, Note_on_c, 7, 84, 92
10, 155220, Note_off_c, 7, 84, 0
10, 155220, Note_on_c, 7, 83, 87
10, 155234, Control_c, 7, 11, 95
10, 155280, Note_off_c, 7, 83, 0
10, 155280, Note_on_c, 7, 81, 82
10, 155340, Note_off_c, 7, 81, 0
10, 155340, Note_on_c, 7, 79, 75
10, 155354, Control_c, 7, 11, 98
10, 155400, Note_off_c, 7, 79, 0
10, 155400, Note_on_c, 7, 77, 71
10, 155460, Note_off_c, 7, 77, 0
10, 155460, Note_on_c, 7, 76, 66
10, 155474, Control_c, 7, 11, 101
10, 155520, Note_off_c, 7, 76, 0
10, 155520, Note_on_c, 7, 74, 90
10, 156060, Note_off_c, 7, 74, 0
10, 156180, Note_on_c, 7, 81, 92
10, 156300, Note_off_c, 7, 81, 0
10, 156330, Note_on_c, 7, 81, 69
10, 156390, Note_off_c, 7, 81, 0
10, 156420, Note_on_c, 7, 81, 90
10, 156480, Note_off_c, 7, 81, 0
10, 157440, Note_on_c, 7, 86, 92
10, 157560, Note_off_c, 7, 86, 0
10, 157560, Note_on_c, 7, 87, 97
10, 157620, Note_off_c, 7, 87, 0
10, 157680, Note_on_c, 7, 81, 118
10, 157710, Note_off_c, 7, 81, 0
10, 157710, Note_on_c, 7, 79, 92
10, 157830, Note_off_c, 7, 79, 0
10, 157890, Note_on_c, 7, 81, 113
10, 158010, Note_off_c, 7, 81, 0
10, 158130, Note_on_c, 7, 86, 43
10, 158220, Note_on_c, 7, 84, 64
10, 158250, Note_off_c, 7, 86, 0
10, 158280, Note_off_c, 7, 84, 0
10, 158280, Note_on_c, 7, 83, 77
10, 158340, Note_off_c, 7, 83, 0
10, 158340, Note_on_c, 7, 81, 119
10, 158400, Note_off_c, 7, 81, 0
10, 158400, Note_on_c, 7, 79, 92
10, 158520, Note_off_c, 7, 79, 0
10, 158640, Note_on_c, 7, 81, 92
10, 158790, Note_off_c, 7, 81, 0
10, 158820, Note_on_c, 7, 86, 74
10, 158880, Note_on_c, 7, 81, 92
10, 158910, Note_off_c, 7, 86, 0
10, 159000, Note_off_c, 7, 81, 0
10, 159000, Note_on_c, 7, 74, 92
10, 159120, Note_off_c, 7, 74, 0
10, 160080, Note_on_c, 7, 74, 92
10, 160200, Note_off_c, 7, 74, 0
10, 160200, Note_on_c, 7, 74, 92
10, 160320, Note_off_c, 7, 74, 0
10, 160320, Note_on_c, 7, 77, 105
10, 160800, Note_off_c, 7, 77, 0
10, 160800, Note_on_c, 7, 74, 72
10, 160941, Note_off_c, 7, 74, 0
10, 160950, Note_on_c, 7, 74, 101
10, 161091, Note_off_c, 7, 74, 0
10, 161100, Note_on_c, 7, 74, 92
10, 161241, Note_off_c, 7, 74, 0
10, 161250, Note_on_c, 7, 74, 74
10, 162240, Note_off_c, 7, 74, 0
10, 162240, Note_on_c, 7, 86, 92
10, 162300, Note_off_c, 7, 86, 0
10, 162360, Note_on_c, 7, 86, 92
10, 162420, Note_off_c, 7, 86, 0
10, 162480, Note_on_c, 7, 86, 92
10, 162540, Note_off_c, 7, 86, 0
10, 162600, Note_on_c, 7, 86, 92
10, 162660, Note_off_c, 7, 86, 0
10, 162690, Note_on_c, 7, 86, 59
10, 162750, Note_off_c, 7, 86, 0
10, 162780, Note_on_c, 7, 86, 66
10, 162840, Note_off_c, 7, 86, 0
10, 162840, Note_on_c, 7, 86, 71
10, 162900, Note_off_c, 7, 86, 0
10, 162900, Note_on_c, 7, 86, 75
10, 162960, Note_off_c, 7, 86, 0
10, 162960, Note_on_c, 7, 86, 80
10, 163020, Note_off_c, 7, 86, 0
10, 163080, Note_on_c, 7, 86, 88
10, 163680, Note_off_c, 7, 86, 0
10, 163800, Note_on_c, 7, 89, 101
10, 163860, Note_off_c, 7, 89, 0
10, 163860, Note_on_c, 7, 86, 85
10, 164040, Note_off_c, 7, 86, 0
10, 164130, Note_on_c, 7, 81, 92
10, 164310, Note_off_c, 7, 81, 0
10, 164340, Note_on_c, 7, 84, 62
10, 164580, Note_off_c, 7, 84, 0
10, 164910, Note_on_c, 7, 79, 50
10, 165120, Note_on_c, 7, 81, 92
10, 165150, Note_off_c, 7, 79, 0
10, 165300, Note_off_c, 7, 81, 0
10, 165330, Note_on_c, 7, 79, 74
10, 165420, Note_off_c, 7, 79, 0
10, 165450, Note_on_c, 7, 81, 67
10, 165540, Note_off_c, 7, 81, 0
10, 165750, Note_on_c, 7, 81, 54
10, 165930, Note_off_c, 7, 81, 0
10, 165960, Note_on_c, 7, 79, 44
10, 166050, Note_off_c, 7, 79, 0
10, 166080, Note_on_c, 7, 81, 38
10, 166170, Note_off_c, 7, 81, 0
10, 166440, Note_on_c, 7, 81, 22
10, 166620, Note_off_c, 7, 81, 0
10, 166650, Note_on_c, 7, 79, 12
10, 166740, Note_off_c, 7, 79, 0
10, 166770, Note_on_c, 7, 81, 7
10, 166860, Note_off_c, 7, 81, 0
10, 166860, End_track
11, 0, Start_track
11, 0, Title_t, "Ray 1"
11, 0, MIDI_port, 0
11, 0, Channel_prefix, 8
11, 0, Control_c, 8, 7, 109
11, 0, Control_c, 8, 10, 54
11, 0, Program_c, 8, 60
11, 10110, Control_c, 8, 11, 72
11, 10230, Control_c, 8, 11, 93
11, 10320, Note_on_c, 8, 69, 95
11, 10350, Control_c, 8, 11, 114
11, 10530, Note_on_c, 8, 65, 114
11, 10530, Note_on_c, 8, 65, 114
11, 10560, Note_off_c, 8, 69, 0
11, 10800, Note_off_c, 8, 65, 0
11, 10800, Note_on_c, 8, 62, 71
11, 10830, Note_off_c, 8, 65, 0
11, 11490, Note_off_c, 8, 62, 0
11, 11490, Note_on_c, 8, 65, 100
11, 11670, Note_on_c, 8, 67, 84
11, 11694, Note_off_c, 8, 65, 0
11, 11820, Note_on_c, 8, 65, 90
11, 11874, Note_off_c, 8, 67, 0
11, 12150, Note_off_c, 8, 65, 0
11, 12180, Note_on_c, 8, 67, 79
11, 12300, Note_off_c, 8, 67, 0
11, 12300, Note_on_c, 8, 64, 97
11, 12300, Note_on_c, 8, 64, 100
11, 12624, Note_off_c, 8, 64, 0
11, 12660, Note_off_c, 8, 64, 0
11, 13290, Note_on_c, 8, 69, 69
11, 13530, Note_off_c, 8, 69, 0
11, 13530, Note_on_c, 8, 65, 87
11, 13854, Control_c, 8, 11, 118
11, 13860, Note_off_c, 8, 65, 0
11, 13860, Note_on_c, 8, 62, 80
11, 13974, Control_c, 8, 11, 113
11, 14094, Control_c, 8, 11, 108
11, 14214, Control_c, 8, 11, 103
11, 14334, Control_c, 8, 11, 98
11, 14454, Control_c, 8, 11, 93
11, 14574, Control_c, 8, 11, 88
11, 14694, Control_c, 8, 11, 84
11, 14814, Control_c, 8, 11, 79
11, 14934, Control_c, 8, 11, 74
11, 15054, Control_c, 8, 11, 69
11, 15138, Control_c, 8, 11, 69
11, 15180, Note_off_c, 8, 62, 0
11, 15240, Note_on_c, 8, 62, 100
11, 15258, Control_c, 8, 11, 101
11, 15360, Note_on_c, 8, 65, 100
11, 15390, Note_off_c, 8, 62, 0
11, 15564, Note_off_c, 8, 65, 0
11, 15570, Note_on_c, 8, 67, 100
11, 15930, Note_off_c, 8, 67, 0
11, 15990, Note_on_c, 8, 65, 82
11, 16080, Note_on_c, 8, 67, 92
11, 16110, Note_off_c, 8, 65, 0
11, 16290, Note_on_c, 8, 64, 100
11, 16320, Note_off_c, 8, 67, 0
11, 16680, Note_off_c, 8, 64, 0
11, 17280, Note_on_c, 8, 62, 100
11, 17520, Note_off_c, 8, 62, 0
11, 17520, Note_on_c, 8, 62, 84
11, 17760, Note_off_c, 8, 62, 0
11, 17760, Note_on_c, 8, 62, 67
11, 17970, Note_off_c, 8, 62, 0
11, 18000, Note_on_c, 8, 65, 113
11, 18240, Note_off_c, 8, 65, 0
11, 18552, Control_c, 8, 11, 123
11, 18870, Note_on_c, 8, 65, 71
11, 19110, Note_off_c, 8, 65, 0
11, 19170, Note_on_c, 8, 68, 97
11, 19410, Note_off_c, 8, 68, 0
11, 19410, Note_on_c, 8, 68, 84
11, 19650, Note_off_c, 8, 68, 0
11, 19770, Note_on_c, 8, 68, 84
11, 19890, Note_off_c, 8, 68, 0
11, 19890, Note_on_c, 8, 68, 101
11, 20040, Note_off_c, 8, 68, 0
11, 20070, Note_on_c, 8, 64, 80
11, 20400, Note_off_c, 8, 64, 0
11, 21120, Note_on_c, 8, 62, 100
11, 21360, Note_off_c, 8, 62, 0
11, 21360, Note_on_c, 8, 62, 85
11, 21600, Note_off_c, 8, 62, 0
11, 21600, Note_on_c, 8, 62, 67
11, 21840, Note_on_c, 8, 65, 105
11, 21870, Note_off_c, 8, 62, 0
11, 22110, Note_off_c, 8, 65, 0
11, 22710, Note_on_c, 8, 65, 71
11, 23010, Note_on_c, 8, 68, 100
11, 23040, Note_off_c, 8, 65, 0
11, 23166, Note_off_c, 8, 68, 0
11, 23190, Note_on_c, 8, 68, 100
11, 23346, Note_off_c, 8, 68, 0
11, 23370, Note_on_c, 8, 68, 100
11, 23580, Note_off_c, 8, 68, 0
11, 23730, Note_on_c, 8, 68, 98
11, 23910, Note_off_c, 8, 68, 0
11, 23910, Note_on_c, 8, 64, 80
11, 24270, Note_off_c, 8, 64, 0
11, 24690, Note_on_c, 8, 69, 100
11, 24900, Note_on_c, 8, 65, 90
11, 24960, Note_off_c, 8, 69, 0
11, 25170, Note_off_c, 8, 65, 0
11, 25170, Note_on_c, 8, 62, 77
11, 25500, Note_off_c, 8, 62, 0
11, 25710, Note_on_c, 8, 69, 100
11, 25920, Note_on_c, 8, 65, 90
11, 25980, Note_off_c, 8, 69, 0
11, 26190, Note_off_c, 8, 65, 0
11, 26190, Note_on_c, 8, 62, 77
11, 26520, Note_off_c, 8, 62, 0
11, 26640, Note_on_c, 8, 69, 100
11, 26850, Note_on_c, 8, 65, 90
11, 26910, Note_off_c, 8, 69, 0
11, 27072, Control_c, 8, 11, 127
11, 27120, Note_off_c, 8, 65, 0
11, 27120, Note_on_c, 8, 62, 77
11, 27192, Control_c, 8, 11, 121
11, 27312, Control_c, 8, 11, 114
11, 27432, Control_c, 8, 11, 108
11, 27552, Control_c, 8, 11, 101
11, 27672, Control_c, 8, 11, 93
11, 27792, Control_c, 8, 11, 87
11, 27912, Control_c, 8, 11, 80
11, 28032, Control_c, 8, 11, 74
11, 28152, Control_c, 8, 11, 66
11, 28272, Control_c, 8, 11, 59
11, 28392, Control_c, 8, 11, 53
11, 28500, Note_off_c, 8, 62, 0
11, 28512, Control_c, 8, 11, 46
11, 36990, Control_c, 8, 11, 72
11, 37110, Control_c, 8, 11, 93
11, 37200, Note_on_c, 8, 62, 95
11, 37230, Control_c, 8, 11, 114
11, 37410, Note_on_c, 8, 65, 114
11, 37410, Note_on_c, 8, 65, 114
11, 37440, Note_off_c, 8, 62, 0
11, 37680, Note_off_c, 8, 65, 0
11, 37680, Note_on_c, 8, 62, 95
11, 37710, Note_off_c, 8, 65, 0
11, 38370, Note_off_c, 8, 62, 0
11, 38370, Note_on_c, 8, 65, 113
11, 38610, Note_off_c, 8, 65, 0
11, 38790, Note_on_c, 8, 65, 105
11, 39120, Note_off_c, 8, 65, 0
11, 39180, Note_on_c, 8, 64, 93
11, 39180, Note_on_c, 8, 64, 93
11, 39504, Note_off_c, 8, 64, 0
11, 39540, Note_off_c, 8, 64, 0
11, 40110, Note_on_c, 8, 69, 90
11, 40290, Note_on_c, 8, 65, 116
11, 40350, Note_off_c, 8, 69, 0
11, 40560, Note_on_c, 8, 62, 111
11, 40620, Note_off_c, 8, 65, 0
11, 40734, Control_c, 8, 11, 118
11, 40854, Control_c, 8, 11, 113
11, 40974, Control_c, 8, 11, 108
11, 41094, Control_c, 8, 11, 103
11, 41214, Control_c, 8, 11, 98
11, 41334, Control_c, 8, 11, 93
11, 41454, Control_c, 8, 11, 88
11, 41574, Control_c, 8, 11, 84
11, 41694, Control_c, 8, 11, 79
11, 41814, Control_c, 8, 11, 74
11, 41880, Note_off_c, 8, 62, 0
11, 41928, Control_c, 8, 11, 79
11, 42048, Control_c, 8, 11, 108
11, 42090, Control_c, 8, 11, 124
11, 42120, Note_on_c, 8, 62, 100
11, 42120, Note_on_c, 8, 62, 100
11, 42240, Note_on_c, 8, 65, 100
11, 42270, Note_off_c, 8, 62, 0
11, 42270, Note_off_c, 8, 62, 0
11, 42444, Note_off_c, 8, 65, 0
11, 42450, Note_on_c, 8, 67, 100
11, 42810, Note_off_c, 8, 67, 0
11, 42840, Note_on_c, 8, 65, 108
11, 42960, Note_off_c, 8, 65, 0
11, 42960, Note_on_c, 8, 67, 97
11, 43170, Note_on_c, 8, 64, 116
11, 43200, Note_off_c, 8, 67, 0
11, 43560, Note_off_c, 8, 64, 0
11, 44160, Note_on_c, 8, 62, 103
11, 44370, Note_off_c, 8, 62, 0
11, 44400, Note_on_c, 8, 62, 101
11, 44640, Note_off_c, 8, 62, 0
11, 44640, Note_on_c, 8, 62, 87
11, 44850, Note_off_c, 8, 62, 0
11, 44880, Note_on_c, 8, 65, 119
11, 45120, Note_off_c, 8, 65, 0
11, 45432, Control_c, 8, 11, 123
11, 45750, Note_on_c, 8, 65, 108
11, 45990, Note_off_c, 8, 65, 0
11, 46050, Note_on_c, 8, 68, 124
11, 46290, Note_off_c, 8, 68, 0
11, 46290, Note_on_c, 8, 68, 101
11, 46530, Note_off_c, 8, 68, 0
11, 46650, Note_on_c, 8, 68, 118
11, 46770, Note_off_c, 8, 68, 0
11, 46770, Note_on_c, 8, 68, 101
11, 46920, Note_off_c, 8, 68, 0
11, 46950, Note_on_c, 8, 64, 98
11, 47280, Note_off_c, 8, 64, 0
11, 48000, Note_on_c, 8, 62, 113
11, 48360, Note_off_c, 8, 62, 0
11, 48480, Note_on_c, 8, 62, 93
11, 48900, Note_off_c, 8, 62, 0
11, 48960, Note_on_c, 8, 65, 105
11, 49170, Note_off_c, 8, 65, 0
11, 49200, Note_on_c, 8, 65, 90
11, 49410, Note_off_c, 8, 65, 0
11, 49590, Note_on_c, 8, 65, 71
11, 49890, Note_on_c, 8, 68, 100
11, 49920, Note_off_c, 8, 65, 0
11, 50046, Note_off_c, 8, 68, 0
11, 50070, Note_on_c, 8, 68, 100
11, 50226, Note_off_c, 8, 68, 0
11, 50340, Note_on_c, 8, 68, 100
11, 50730, Note_off_c, 8, 68, 0
11, 50790, Note_on_c, 8, 64, 106
11, 51150, Note_off_c, 8, 64, 0
11, 51570, Note_on_c, 8, 69, 100
11, 51780, Note_on_c, 8, 65, 90
11, 51840, Note_off_c, 8, 69, 0
11, 52050, Note_off_c, 8, 65, 0
11, 52050, Note_on_c, 8, 62, 77
11, 52380, Note_off_c, 8, 62, 0
11, 52590, Note_on_c, 8, 69, 100
11, 52800, Note_on_c, 8, 65, 90
11, 52860, Note_off_c, 8, 69, 0
11, 53070, Note_off_c, 8, 65, 0
11, 53070, Note_on_c, 8, 62, 77
11, 53400, Note_off_c, 8, 62, 0
11, 53520, Note_on_c, 8, 69, 100
11, 53730, Note_on_c, 8, 65, 90
11, 53790, Note_off_c, 8, 69, 0
11, 53952, Control_c, 8, 11, 127
11, 54000, Note_off_c, 8, 65, 0
11, 54000, Note_on_c, 8, 62, 77
11, 54072, Control_c, 8, 11, 121
11, 54192, Control_c, 8, 11, 114
11, 54312, Control_c, 8, 11, 108
11, 54432, Control_c, 8, 11, 101
11, 54552, Control_c, 8, 11, 93
11, 54672, Control_c, 8, 11, 87
11, 54792, Control_c, 8, 11, 80
11, 54912, Control_c, 8, 11, 74
11, 55032, Control_c, 8, 11, 66
11, 55152, Control_c, 8, 11, 59
11, 55272, Control_c, 8, 11, 53
11, 55380, Note_off_c, 8, 62, 0
11, 55392, Control_c, 8, 11, 46
11, 62136, Control_c, 8, 11, 54
11, 62256, Control_c, 8, 11, 64
11, 62376, Control_c, 8, 11, 75
11, 62496, Control_c, 8, 11, 85
11, 62616, Control_c, 8, 11, 97
11, 62736, Control_c, 8, 11, 106
11, 62856, Control_c, 8, 11, 118
11, 62976, Control_c, 8, 11, 127
11, 63360, Note_on_c, 8, 62, 93
11, 63750, Note_off_c, 8, 62, 0
11, 63840, Note_on_c, 8, 65, 106
11, 64200, Note_off_c, 8, 65, 0
11, 64260, Note_on_c, 8, 65, 93
11, 64620, Note_off_c, 8, 65, 0
11, 64950, Note_on_c, 8, 62, 95
11, 65100, Note_on_c, 8, 65, 110
11, 65130, Note_off_c, 8, 62, 0
11, 65280, Note_off_c, 8, 65, 0
11, 65280, Note_on_c, 8, 72, 127
11, 65520, Note_on_c, 8, 69, 113
11, 65550, Note_off_c, 8, 72, 0
11, 66210, Note_off_c, 8, 69, 0
11, 66570, Note_on_c, 8, 69, 119
11, 66690, Note_on_c, 8, 67, 113
11, 66720, Note_off_c, 8, 69, 0
11, 66900, Note_off_c, 8, 67, 0
11, 66900, Note_on_c, 8, 65, 103
11, 67200, Note_on_c, 8, 62, 116
11, 67230, Note_off_c, 8, 65, 0
11, 67590, Note_off_c, 8, 62, 0
11, 67680, Note_on_c, 8, 65, 116
11, 67980, Note_off_c, 8, 65, 0
11, 68100, Note_on_c, 8, 62, 101
11, 68280, Note_on_c, 8, 65, 127
11, 68310, Note_off_c, 8, 62, 0
11, 68490, Note_off_c, 8, 65, 0
11, 68790, Note_on_c, 8, 62, 95
11, 68940, Note_on_c, 8, 65, 110
11, 68970, Note_off_c, 8, 62, 0
11, 69120, Note_off_c, 8, 65, 0
11, 69120, Note_on_c, 8, 72, 127
11, 69360, Note_on_c, 8, 69, 113
11, 69390, Note_off_c, 8, 72, 0
11, 70170, Note_off_c, 8, 69, 0
11, 70650, Note_on_c, 8, 69, 97
11, 70800, Note_on_c, 8, 72, 110
11, 70830, Note_off_c, 8, 69, 0
11, 70980, Note_off_c, 8, 72, 0
11, 71010, Note_on_c, 8, 76, 127
11, 71640, Note_on_c, 8, 74, 121
11, 71670, Note_off_c, 8, 76, 0
11, 71760, Note_on_c, 8, 72, 111
11, 71820, Note_off_c, 8, 74, 0
11, 71910, Note_on_c, 8, 69, 100
11, 71940, Note_off_c, 8, 72, 0
11, 72690, Note_off_c, 8, 69, 0
11, 72930, Note_on_c, 8, 62, 103
11, 73170, Note_on_c, 8, 60, 92
11, 73230, Note_off_c, 8, 62, 0
11, 73380, Note_off_c, 8, 60, 0
11, 73410, Note_on_c, 8, 62, 114
11, 73650, Note_on_c, 8, 60, 95
11, 73710, Note_off_c, 8, 62, 0
11, 73860, Note_off_c, 8, 60, 0
11, 73890, Note_on_c, 8, 62, 90
11, 73908, Control_c, 8, 11, 127
11, 74028, Control_c, 8, 11, 123
11, 74148, Control_c, 8, 11, 118
11, 74268, Control_c, 8, 11, 113
11, 74388, Control_c, 8, 11, 108
11, 74508, Control_c, 8, 11, 103
11, 74628, Control_c, 8, 11, 98
11, 74748, Control_c, 8, 11, 93
11, 74802, Control_c, 8, 11, 98
11, 74820, Note_off_c, 8, 62, 0
11, 74838, Control_c, 8, 11, 127
11, 74850, Note_on_c, 8, 69, 113
11, 74970, Note_on_c, 8, 65, 103
11, 75000, Note_off_c, 8, 69, 0
11, 75240, Note_on_c, 8, 62, 88
11, 75270, Note_off_c, 8, 65, 0
11, 75720, Note_off_c, 8, 62, 0
11, 75720, Note_on_c, 8, 69, 97
11, 75900, Note_on_c, 8, 65, 100
11, 75900, Note_on_c, 8, 65, 119
11, 75930, Note_off_c, 8, 69, 0
11, 76170, Note_off_c, 8, 65, 0
11, 76170, Note_off_c, 8, 65, 0
11, 76170, Note_on_c, 8, 62, 84
11, 76560, Note_on_c, 8, 69, 116
11, 76590, Note_off_c, 8, 62, 0
11, 76770, Note_on_c, 8, 65, 103
11, 76830, Note_off_c, 8, 69, 0
11, 76992, Control_c, 8, 11, 127
11, 77010, Note_on_c, 8, 62, 90
11, 77040, Note_off_c, 8, 65, 0
11, 77112, Control_c, 8, 11, 121
11, 77232, Control_c, 8, 11, 114
11, 77352, Control_c, 8, 11, 108
11, 77472, Control_c, 8, 11, 101
11, 77592, Control_c, 8, 11, 93
11, 77712, Control_c, 8, 11, 87
11, 77832, Control_c, 8, 11, 80
11, 77952, Control_c, 8, 11, 74
11, 78072, Control_c, 8, 11, 66
11, 78192, Control_c, 8, 11, 59
11, 78312, Control_c, 8, 11, 53
11, 78432, Control_c, 8, 11, 46
11, 78510, Note_off_c, 8, 62, 0
11, 119550, Control_c, 8, 11, 72
11, 119670, Control_c, 8, 11, 93
11, 119760, Note_on_c, 8, 62, 95
11, 119790, Control_c, 8, 11, 114
11, 119970, Note_on_c, 8, 65, 114
11, 119970, Note_on_c, 8, 65, 114
11, 120000, Note_off_c, 8, 62, 0
11, 120240, Note_off_c, 8, 65, 0
11, 120240, Note_on_c, 8, 62, 95
11, 120270, Note_off_c, 8, 65, 0
11, 120660, Note_off_c, 8, 62, 0
11, 120720, Note_on_c, 8, 62, 90
11, 120930, Note_on_c, 8, 65, 123
11, 120960, Note_off_c, 8, 62, 0
11, 121170, Note_off_c, 8, 65, 0
11, 121170, Note_on_c, 8, 67, 113
11, 121530, Note_off_c, 8, 67, 0
11, 121590, Note_on_c, 8, 65, 106
11, 121710, Note_on_c, 8, 67, 92
11, 121740, Note_off_c, 8, 65, 0
11, 121860, Note_off_c, 8, 67, 0
11, 121860, Note_on_c, 8, 64, 105
11, 122250, Note_off_c, 8, 64, 0
11, 122670, Note_on_c, 8, 69, 90
11, 122850, Note_on_c, 8, 65, 116
11, 122910, Note_off_c, 8, 69, 0
11, 123120, Note_on_c, 8, 62, 111
11, 123180, Note_off_c, 8, 65, 0
11, 123294, Control_c, 8, 11, 118
11, 123414, Control_c, 8, 11, 113
11, 123534, Control_c, 8, 11, 108
11, 123654, Control_c, 8, 11, 103
11, 123774, Control_c, 8, 11, 98
11, 123894, Control_c, 8, 11, 93
11, 124014, Control_c, 8, 11, 88
11, 124134, Control_c, 8, 11, 84
11, 124254, Control_c, 8, 11, 79
11, 124374, Control_c, 8, 11, 74
11, 124440, Note_off_c, 8, 62, 0
11, 124488, Control_c, 8, 11, 79
11, 124608, Control_c, 8, 11, 108
11, 124650, Control_c, 8, 11, 124
11, 124680, Note_on_c, 8, 62, 100
11, 124680, Note_on_c, 8, 62, 100
11, 124800, Note_on_c, 8, 65, 100
11, 124830, Note_off_c, 8, 62, 0
11, 124830, Note_off_c, 8, 62, 0
11, 125004, Note_off_c, 8, 65, 0
11, 125010, Note_on_c, 8, 67, 100
11, 125370, Note_off_c, 8, 67, 0
11, 125400, Note_on_c, 8, 65, 108
11, 125520, Note_off_c, 8, 65, 0
11, 125520, Note_on_c, 8, 67, 97
11, 125730, Note_on_c, 8, 64, 116
11, 125760, Note_off_c, 8, 67, 0
11, 126120, Note_off_c, 8, 64, 0
11, 126720, Note_on_c, 8, 62, 103
11, 126870, Note_off_c, 8, 62, 0
11, 126990, Note_on_c, 8, 62, 118
11, 127170, Note_off_c, 8, 62, 0
11, 127200, Note_on_c, 8, 62, 98
11, 127440, Note_off_c, 8, 62, 0
11, 127440, Note_on_c, 8, 65, 119
11, 127710, Note_off_c, 8, 65, 0
11, 127992, Control_c, 8, 11, 123
11, 128370, Note_on_c, 8, 65, 108
11, 128610, Note_off_c, 8, 65, 0
11, 128610, Note_on_c, 8, 68, 124
11, 128850, Note_off_c, 8, 68, 0
11, 128850, Note_on_c, 8, 68, 101
11, 129090, Note_off_c, 8, 68, 0
11, 129090, Note_on_c, 8, 68, 85
11, 129390, Note_off_c, 8, 68, 0
11, 129420, Note_on_c, 8, 64, 119
11, 129750, Note_off_c, 8, 64, 0
11, 130560, Note_on_c, 8, 62, 113
11, 130920, Note_off_c, 8, 62, 0
11, 131040, Note_on_c, 8, 62, 93
11, 131460, Note_off_c, 8, 62, 0
11, 131520, Note_on_c, 8, 65, 126
11, 131730, Note_off_c, 8, 65, 0
11, 131790, Note_on_c, 8, 65, 110
11, 132000, Note_off_c, 8, 65, 0
11, 132240, Note_on_c, 8, 65, 100
11, 132480, Note_on_c, 8, 68, 127
11, 132510, Note_off_c, 8, 65, 0
11, 132750, Note_off_c, 8, 68, 0
11, 132780, Note_on_c, 8, 65, 103
11, 132930, Note_on_c, 8, 68, 113
11, 132936, Note_off_c, 8, 65, 0
11, 133320, Note_off_c, 8, 68, 0
11, 133350, Note_on_c, 8, 64, 106
11, 133710, Note_off_c, 8, 64, 0
11, 134130, Note_on_c, 8, 69, 100
11, 134340, Note_on_c, 8, 65, 90
11, 134400, Note_off_c, 8, 69, 0
11, 134610, Note_off_c, 8, 65, 0
11, 134610, Note_on_c, 8, 62, 77
11, 134940, Note_off_c, 8, 62, 0
11, 135150, Note_on_c, 8, 69, 100
11, 135360, Note_on_c, 8, 65, 90
11, 135420, Note_off_c, 8, 69, 0
11, 135630, Note_off_c, 8, 65, 0
11, 135630, Note_on_c, 8, 62, 77
11, 135960, Note_off_c, 8, 62, 0
11, 136080, Note_on_c, 8, 69, 100
11, 136290, Note_on_c, 8, 65, 90
11, 136350, Note_off_c, 8, 69, 0
11, 136512, Control_c, 8, 11, 127
11, 136530, Note_on_c, 8, 62, 77
11, 136560, Note_off_c, 8, 65, 0
11, 136632, Control_c, 8, 11, 121
11, 136752, Control_c, 8, 11, 114
11, 136872, Control_c, 8, 11, 108
11, 136992, Control_c, 8, 11, 101
11, 137112, Control_c, 8, 11, 93
11, 137232, Control_c, 8, 11, 87
11, 137352, Control_c, 8, 11, 80
11, 137472, Control_c, 8, 11, 74
11, 137592, Control_c, 8, 11, 66
11, 137712, Control_c, 8, 11, 59
11, 137832, Control_c, 8, 11, 53
11, 137910, Note_off_c, 8, 62, 0
11, 137952, Control_c, 8, 11, 46
11, 156750, Control_c, 8, 11, 51
11, 156870, Control_c, 8, 11, 64
11, 156990, Control_c, 8, 11, 79
11, 158250, Control_c, 8, 11, 80
11, 158370, Control_c, 8, 11, 87
11, 158490, Control_c, 8, 11, 95
11, 158610, Control_c, 8, 11, 103
11, 159090, Note_on_c, 8, 69, 100
11, 159300, Note_on_c, 8, 65, 90
11, 159360, Note_off_c, 8, 69, 0
11, 159570, Note_off_c, 8, 65, 0
11, 159570, Note_on_c, 8, 62, 77
11, 159900, Note_off_c, 8, 62, 0
11, 160110, Note_on_c, 8, 69, 100
11, 160320, Note_on_c, 8, 65, 90
11, 160380, Note_off_c, 8, 69, 0
11, 160590, Note_off_c, 8, 65, 0
11, 160590, Note_on_c, 8, 62, 77
11, 160920, Note_off_c, 8, 62, 0
11, 161040, Note_on_c, 8, 69, 100
11, 161250, Note_on_c, 8, 65, 90
11, 161310, Note_off_c, 8, 69, 0
11, 161490, Note_on_c, 8, 62, 77
11, 161520, Note_off_c, 8, 65, 0
11, 162072, Control_c, 8, 11, 93
11, 162192, Control_c, 8, 11, 87
11, 162312, Control_c, 8, 11, 80
11, 162432, Control_c, 8, 11, 74
11, 162552, Control_c, 8, 11, 66
11, 162672, Control_c, 8, 11, 59
11, 162792, Control_c, 8, 11, 53
11, 162870, Note_off_c, 8, 62, 0
11, 162912, Control_c, 8, 11, 46
11, 163206, Control_c, 8, 11, 41
11, 163326, Control_c, 8, 11, 61
11, 163446, Control_c, 8, 11, 82
11, 163566, Control_c, 8, 11, 103
11, 163686, Control_c, 8, 11, 124
11, 163686, End_track
12, 0, Start_track
12, 0, Title_t, "Ray 2"
12, 0, MIDI_port, 0
12, 0, Channel_prefix, 10
12, 0, Control_c, 10, 7, 89
12, 0, Control_c, 10, 10, 64
12, 0, Program_c, 10, 44
12, 10110, Control_c, 10, 11, 72
12, 10230, Control_c, 10, 11, 93
12, 10320, Note_on_c, 10, 69, 95
12, 10350, Control_c, 10, 11, 114
12, 10530, Note_on_c, 10, 65, 114
12, 10530, Note_on_c, 10, 65, 114
12, 10560, Note_off_c, 10, 69, 0
12, 10800, Note_off_c, 10, 65, 0
12, 10800, Note_on_c, 10, 62, 71
12, 10830, Note_off_c, 10, 65, 0
12, 11490, Note_off_c, 10, 62, 0
12, 11490, Note_on_c, 10, 65, 100
12, 11670, Note_on_c, 10, 67, 84
12, 11694, Note_off_c, 10, 65, 0
12, 11820, Note_on_c, 10, 65, 90
12, 11874, Note_off_c, 10, 67, 0
12, 12150, Note_off_c, 10, 65, 0
12, 12180, Note_on_c, 10, 67, 79
12, 12300, Note_off_c, 10, 67, 0
12, 12300, Note_on_c, 10, 64, 97
12, 12300, Note_on_c, 10, 64, 100
12, 12624, Note_off_c, 10, 64, 0
12, 12660, Note_off_c, 10, 64, 0
12, 13290, Note_on_c, 10, 69, 69
12, 13530, Note_off_c, 10, 69, 0
12, 13530, Note_on_c, 10, 65, 87
12, 13854, Control_c, 10, 11, 118
12, 13860, Note_off_c, 10, 65, 0
12, 13860, Note_on_c, 10, 62, 80
12, 13974, Control_c, 10, 11, 113
12, 14094, Control_c, 10, 11, 108
12, 14214, Control_c, 10, 11, 103
12, 14334, Control_c, 10, 11, 98
12, 14454, Control_c, 10, 11, 93
12, 14574, Control_c, 10, 11, 88
12, 14694, Control_c, 10, 11, 84
12, 14814, Control_c, 10, 11, 79
12, 14934, Control_c, 10, 11, 74
12, 15054, Control_c, 10, 11, 69
12, 15138, Control_c, 10, 11, 69
12, 15180, Note_off_c, 10, 62, 0
12, 15240, Note_on_c, 10, 62, 100
12, 15258, Control_c, 10, 11, 101
12, 15360, Note_on_c, 10, 65, 100
12, 15390, Note_off_c, 10, 62, 0
12, 15564, Note_off_c, 10, 65, 0
12, 15570, Note_on_c, 10, 67, 100
12, 15930, Note_off_c, 10, 67, 0
12, 15990, Note_on_c, 10, 65, 82
12, 16080, Note_on_c, 10, 67, 92
12, 16110, Note_off_c, 10, 65, 0
12, 16290, Note_on_c, 10, 64, 100
12, 16320, Note_off_c, 10, 67, 0
12, 16680, Note_off_c, 10, 64, 0
12, 17280, Note_on_c, 10, 62, 100
12, 17520, Note_off_c, 10, 62, 0
12, 17520, Note_on_c, 10, 62, 84
12, 17760, Note_off_c, 10, 62, 0
12, 17760, Note_on_c, 10, 62, 67
12, 17970, Note_off_c, 10, 62, 0
12, 18000, Note_on_c, 10, 65, 113
12, 18240, Note_off_c, 10, 65, 0
12, 18552, Control_c, 10, 11, 123
12, 18870, Note_on_c, 10, 65, 71
12, 19110, Note_off_c, 10, 65, 0
12, 19170, Note_on_c, 10, 68, 97
12, 19410, Note_off_c, 10, 68, 0
12, 19410, Note_on_c, 10, 68, 84
12, 19650, Note_off_c, 10, 68, 0
12, 19770, Note_on_c, 10, 68, 84
12, 19890, Note_off_c, 10, 68, 0
12, 19890, Note_on_c, 10, 68, 101
12, 20040, Note_off_c, 10, 68, 0
12, 20070, Note_on_c, 10, 64, 80
12, 20400, Note_off_c, 10, 64, 0
12, 21120, Note_on_c, 10, 62, 100
12, 21360, Note_off_c, 10, 62, 0
12, 21360, Note_on_c, 10, 62, 85
12, 21600, Note_off_c, 10, 62, 0
12, 21600, Note_on_c, 10, 62, 67
12, 21840, Note_on_c, 10, 65, 105
12, 21870, Note_off_c, 10, 62, 0
12, 22110, Note_off_c, 10, 65, 0
12, 22710, Note_on_c, 10, 65, 71
12, 23010, Note_on_c, 10, 68, 100
12, 23040, Note_off_c, 10, 65, 0
12, 23166, Note_off_c, 10, 68, 0
12, 23190, Note_on_c, 10, 68, 100
12, 23346, Note_off_c, 10, 68, 0
12, 23370, Note_on_c, 10, 68, 100
12, 23580, Note_off_c, 10, 68, 0
12, 23730, Note_on_c, 10, 68, 98
12, 23910, Note_off_c, 10, 68, 0
12, 23910, Note_on_c, 10, 64, 80
12, 24270, Note_off_c, 10, 64, 0
12, 24690, Note_on_c, 10, 69, 100
12, 24900, Note_on_c, 10, 65, 90
12, 24960, Note_off_c, 10, 69, 0
12, 25170, Note_off_c, 10, 65, 0
12, 25170, Note_on_c, 10, 62, 77
12, 25500, Note_off_c, 10, 62, 0
12, 25710, Note_on_c, 10, 69, 100
12, 25920, Note_on_c, 10, 65, 90
12, 25980, Note_off_c, 10, 69, 0
12, 26190, Note_off_c, 10, 65, 0
12, 26190, Note_on_c, 10, 62, 77
12, 26520, Note_off_c, 10, 62, 0
12, 26640, Note_on_c, 10, 69, 100
12, 26850, Note_on_c, 10, 65, 90
12, 26910, Note_off_c, 10, 69, 0
12, 27072, Control_c, 10, 11, 127
12, 27120, Note_off_c, 10, 65, 0
12, 27120, Note_on_c, 10, 62, 77
12, 27192, Control_c, 10, 11, 121
12, 27312, Control_c, 10, 11, 114
12, 27432, Control_c, 10, 11, 108
12, 27552, Control_c, 10, 11, 101
12, 27672, Control_c, 10, 11, 93
12, 27792, Control_c, 10, 11, 87
12, 27912, Control_c, 10, 11, 80
12, 28032, Control_c, 10, 11, 74
12, 28152, Control_c, 10, 11, 66
12, 28272, Control_c, 10, 11, 59
12, 28392, Control_c, 10, 11, 53
12, 28500, Note_off_c, 10, 62, 0
12, 28512, Control_c, 10, 11, 46
12, 36990, Control_c, 10, 11, 72
12, 37110, Control_c, 10, 11, 93
12, 37200, Note_on_c, 10, 62, 95
12, 37230, Control_c, 10, 11, 114
12, 37410, Note_on_c, 10, 65, 114
12, 37410, Note_on_c, 10, 65, 114
12, 37440, Note_off_c, 10, 62, 0
12, 37680, Note_off_c, 10, 65, 0
12, 37680, Note_on_c, 10, 62, 95
12, 37710, Note_off_c, 10, 65, 0
12, 38370, Note_off_c, 10, 62, 0
12, 38370, Note_on_c, 10, 65, 113
12, 38610, Note_off_c, 10, 65, 0
12, 38790, Note_on_c, 10, 65, 105
12, 39120, Note_off_c, 10, 65, 0
12, 39180, Note_on_c, 10, 64, 93
12, 39180, Note_on_c, 10, 64, 93
12, 39504, Note_off_c, 10, 64, 0
12, 39540, Note_off_c, 10, 64, 0
12, 40110, Note_on_c, 10, 69, 90
12, 40290, Note_on_c, 10, 65, 116
12, 40350, Note_off_c, 10, 69, 0
12, 40560, Note_on_c, 10, 62, 111
12, 40620, Note_off_c, 10, 65, 0
12, 40734, Control_c, 10, 11, 118
12, 40854, Control_c, 10, 11, 113
12, 40974, Control_c, 10, 11, 108
12, 41094, Control_c, 10, 11, 103
12, 41214, Control_c, 10, 11, 98
12, 41334, Control_c, 10, 11, 93
12, 41454, Control_c, 10, 11, 88
12, 41574, Control_c, 10, 11, 84
12, 41694, Control_c, 10, 11, 79
12, 41814, Control_c, 10, 11, 74
12, 41880, Note_off_c, 10, 62, 0
12, 41928, Control_c, 10, 11, 79
12, 42048, Control_c, 10, 11, 108
12, 42090, Control_c, 10, 11, 124
12, 42120, Note_on_c, 10, 62, 100
12, 42120, Note_on_c, 10, 62, 100
12, 42240, Note_on_c, 10, 65, 100
12, 42270, Note_off_c, 10, 62, 0
12, 42270, Note_off_c, 10, 62, 0
12, 42444, Note_off_c, 10, 65, 0
12, 42450, Note_on_c, 10, 67, 100
12, 42810, Note_off_c, 10, 67, 0
12, 42840, Note_on_c, 10, 65, 108
12, 42960, Note_off_c, 10, 65, 0
12, 42960, Note_on_c, 10, 67, 97
12, 43170, Note_on_c, 10, 64, 116
12, 43200, Note_off_c, 10, 67, 0
12, 43560, Note_off_c, 10, 64, 0
12, 44160, Note_on_c, 10, 62, 103
12, 44370, Note_off_c, 10, 62, 0
12, 44400, Note_on_c, 10, 62, 101
12, 44640, Note_off_c, 10, 62, 0
12, 44640, Note_on_c, 10, 62, 87
12, 44850, Note_off_c, 10, 62, 0
12, 44880, Note_on_c, 10, 65, 119
12, 45120, Note_off_c, 10, 65, 0
12, 45432, Control_c, 10, 11, 123
12, 45750, Note_on_c, 10, 65, 108
12, 45990, Note_off_c, 10, 65, 0
12, 46050, Note_on_c, 10, 68, 124
12, 46290, Note_off_c, 10, 68, 0
12, 46290, Note_on_c, 10, 68, 101
12, 46530, Note_off_c, 10, 68, 0
12, 46650, Note_on_c, 10, 68, 118
12, 46770, Note_off_c, 10, 68, 0
12, 46770, Note_on_c, 10, 68, 101
12, 46920, Note_off_c, 10, 68, 0
12, 46950, Note_on_c, 10, 64, 98
12, 47280, Note_off_c, 10, 64, 0
12, 48000, Note_on_c, 10, 62, 113
12, 48360, Note_off_c, 10, 62, 0
12, 48480, Note_on_c, 10, 62, 93
12, 48900, Note_off_c, 10, 62, 0
12, 48960, Note_on_c, 10, 65, 105
12, 49170, Note_off_c, 10, 65, 0
12, 49200, Note_on_c, 10, 65, 90
12, 49410, Note_off_c, 10, 65, 0
12, 49590, Note_on_c, 10, 65, 71
12, 49890, Note_on_c, 10, 68, 100
12, 49920, Note_off_c, 10, 65, 0
12, 50046, Note_off_c, 10, 68, 0
12, 50070, Note_on_c, 10, 68, 100
12, 50226, Note_off_c, 10, 68, 0
12, 50340, Note_on_c, 10, 68, 100
12, 50730, Note_off_c, 10, 68, 0
12, 50790, Note_on_c, 10, 64, 106
12, 51150, Note_off_c, 10, 64, 0
12, 51570, Note_on_c, 10, 69, 100
12, 51780, Note_on_c, 10, 65, 90
12, 51840, Note_off_c, 10, 69, 0
12, 52050, Note_off_c, 10, 65, 0
12, 52050, Note_on_c, 10, 62, 77
12, 52380, Note_off_c, 10, 62, 0
12, 52590, Note_on_c, 10, 69, 100
12, 52800, Note_on_c, 10, 65, 90
12, 52860, Note_off_c, 10, 69, 0
12, 53070, Note_off_c, 10, 65, 0
12, 53070, Note_on_c, 10, 62, 77
12, 53400, Note_off_c, 10, 62, 0
12, 53520, Note_on_c, 10, 69, 100
12, 53730, Note_on_c, 10, 65, 90
12, 53790, Note_off_c, 10, 69, 0
12, 53952, Control_c, 10, 11, 127
12, 54000, Note_off_c, 10, 65, 0
12, 54000, Note_on_c, 10, 62, 77
12, 54072, Control_c, 10, 11, 121
12, 54192, Control_c, 10, 11, 114
12, 54312, Control_c, 10, 11, 108
12, 54432, Control_c, 10, 11, 101
12, 54552, Control_c, 10, 11, 93
12, 54672, Control_c, 10, 11, 87
12, 54792, Control_c, 10, 11, 80
12, 54912, Control_c, 10, 11, 74
12, 55032, Control_c, 10, 11, 66
12, 55152, Control_c, 10, 11, 59
12, 55272, Control_c, 10, 11, 53
12, 55380, Note_off_c, 10, 62, 0
12, 55392, Control_c, 10, 11, 46
12, 62136, Control_c, 10, 11, 54
12, 62256, Control_c, 10, 11, 64
12, 62376, Control_c, 10, 11, 75
12, 62496, Control_c, 10, 11, 85
12, 62616, Control_c, 10, 11, 97
12, 62736, Control_c, 10, 11, 106
12, 62856, Control_c, 10, 11, 118
12, 62976, Control_c, 10, 11, 127
12, 63360, Note_on_c, 10, 62, 93
12, 63750, Note_off_c, 10, 62, 0
12, 63840, Note_on_c, 10, 65, 106
12, 64200, Note_off_c, 10, 65, 0
12, 64260, Note_on_c, 10, 65, 93
12, 64620, Note_off_c, 10, 65, 0
12, 64950, Note_on_c, 10, 62, 95
12, 65100, Note_on_c, 10, 65, 110
12, 65130, Note_off_c, 10, 62, 0
12, 65280, Note_off_c, 10, 65, 0
12, 65280, Note_on_c, 10, 72, 127
12, 65520, Note_on_c, 10, 69, 113
12, 65550, Note_off_c, 10, 72, 0
12, 66210, Note_off_c, 10, 69, 0
12, 66570, Note_on_c, 10, 69, 119
12, 66690, Note_on_c, 10, 67, 113
12, 66720, Note_off_c, 10, 69, 0
12, 66900, Note_off_c, 10, 67, 0
12, 66900, Note_on_c, 10, 65, 103
12, 67200, Note_on_c, 10, 62, 116
12, 67230, Note_off_c, 10, 65, 0
12, 67590, Note_off_c, 10, 62, 0
12, 67680, Note_on_c, 10, 65, 116
12, 67980, Note_off_c, 10, 65, 0
12, 68100, Note_on_c, 10, 62, 101
12, 68280, Note_on_c, 10, 65, 127
12, 68310, Note_off_c, 10, 62, 0
12, 68490, Note_off_c, 10, 65, 0
12, 68790, Note_on_c, 10, 62, 95
12, 68940, Note_on_c, 10, 65, 110
12, 68970, Note_off_c, 10, 62, 0
12, 69120, Note_off_c, 10, 65, 0
12, 69120, Note_on_c, 10, 72, 127
12, 69360, Note_on_c, 10, 69, 113
12, 69390, Note_off_c, 10, 72, 0
12, 70170, Note_off_c, 10, 69, 0
12, 70650, Note_on_c, 10, 69, 97
12, 70800, Note_on_c, 10, 72, 110
12, 70830, Note_off_c, 10, 69, 0
12, 70980, Note_off_c, 10, 72, 0
12, 71010, Note_on_c, 10, 76, 127
12, 71640, Note_on_c, 10, 74, 121
12, 71670, Note_off_c, 10, 76, 0
12, 71760, Note_on_c, 10, 72, 111
12, 71820, Note_off_c, 10, 74, 0
12, 71910, Note_on_c, 10, 69, 100
12, 71940, Note_off_c, 10, 72, 0
12, 72690, Note_off_c, 10, 69, 0
12, 72930, Note_on_c, 10, 62, 106
12, 73170, Note_on_c, 10, 60, 100
12, 73230, Note_off_c, 10, 62, 0
12, 73380, Note_off_c, 10, 60, 0
12, 73410, Note_on_c, 10, 62, 114
12, 73650, Note_on_c, 10, 60, 95
12, 73710, Note_off_c, 10, 62, 0
12, 73860, Note_off_c, 10, 60, 0
12, 73890, Note_on_c, 10, 62, 71
12, 73908, Control_c, 10, 11, 127
12, 74028, Control_c, 10, 11, 123
12, 74148, Control_c, 10, 11, 118
12, 74268, Control_c, 10, 11, 113
12, 74388, Control_c, 10, 11, 108
12, 74508, Control_c, 10, 11, 103
12, 74628, Control_c, 10, 11, 98
12, 74748, Control_c, 10, 11, 93
12, 74802, Control_c, 10, 11, 98
12, 74820, Note_off_c, 10, 62, 0
12, 74838, Control_c, 10, 11, 127
12, 74850, Note_on_c, 10, 69, 113
12, 74970, Note_on_c, 10, 65, 103
12, 75000, Note_off_c, 10, 69, 0
12, 75240, Note_on_c, 10, 62, 88
12, 75270, Note_off_c, 10, 65, 0
12, 75720, Note_off_c, 10, 62, 0
12, 75780, Note_on_c, 10, 69, 110
12, 75900, Note_on_c, 10, 65, 100
12, 75930, Note_off_c, 10, 69, 0
12, 76170, Note_off_c, 10, 65, 0
12, 76170, Note_on_c, 10, 62, 84
12, 76560, Note_on_c, 10, 69, 116
12, 76590, Note_off_c, 10, 62, 0
12, 76770, Note_on_c, 10, 65, 103
12, 76830, Note_off_c, 10, 69, 0
12, 76992, Control_c, 10, 11, 127
12, 77010, Note_on_c, 10, 62, 90
12, 77040, Note_off_c, 10, 65, 0
12, 77112, Control_c, 10, 11, 121
12, 77232, Control_c, 10, 11, 114
12, 77352, Control_c, 10, 11, 108
12, 77472, Control_c, 10, 11, 101
12, 77592, Control_c, 10, 11, 93
12, 77712, Control_c, 10, 11, 87
12, 77832, Control_c, 10, 11, 80
12, 77952, Control_c, 10, 11, 74
12, 78072, Control_c, 10, 11, 66
12, 78192, Control_c, 10, 11, 59
12, 78312, Control_c, 10, 11, 53
12, 78432, Control_c, 10, 11, 46
12, 78510, Note_off_c, 10, 62, 0
12, 119550, Control_c, 10, 11, 72
12, 119670, Control_c, 10, 11, 93
12, 119760, Note_on_c, 10, 62, 95
12, 119790, Control_c, 10, 11, 114
12, 119970, Note_on_c, 10, 65, 114
12, 119970, Note_on_c, 10, 65, 114
12, 120000, Note_off_c, 10, 62, 0
12, 120240, Note_off_c, 10, 65, 0
12, 120240, Note_on_c, 10, 62, 95
12, 120270, Note_off_c, 10, 65, 0
12, 120660, Note_off_c, 10, 62, 0
12, 120720, Note_on_c, 10, 62, 90
12, 120930, Note_on_c, 10, 65, 123
12, 120960, Note_off_c, 10, 62, 0
12, 121170, Note_off_c, 10, 65, 0
12, 121170, Note_on_c, 10, 67, 113
12, 121530, Note_off_c, 10, 67, 0
12, 121590, Note_on_c, 10, 65, 106
12, 121710, Note_on_c, 10, 67, 92
12, 121740, Note_off_c, 10, 65, 0
12, 121860, Note_off_c, 10, 67, 0
12, 121860, Note_on_c, 10, 64, 105
12, 122250, Note_off_c, 10, 64, 0
12, 122670, Note_on_c, 10, 69, 90
12, 122850, Note_on_c, 10, 65, 116
12, 122910, Note_off_c, 10, 69, 0
12, 123120, Note_on_c, 10, 62, 111
12, 123180, Note_off_c, 10, 65, 0
12, 123294, Control_c, 10, 11, 118
12, 123414, Control_c, 10, 11, 113
12, 123534, Control_c, 10, 11, 108
12, 123654, Control_c, 10, 11, 103
12, 123774, Control_c, 10, 11, 98
12, 123894, Control_c, 10, 11, 93
12, 124014, Control_c, 10, 11, 88
12, 124134, Control_c, 10, 11, 84
12, 124254, Control_c, 10, 11, 79
12, 124374, Control_c, 10, 11, 74
12, 124440, Note_off_c, 10, 62, 0
12, 124488, Control_c, 10, 11, 79
12, 124608, Control_c, 10, 11, 108
12, 124650, Control_c, 10, 11, 124
12, 124680, Note_on_c, 10, 62, 100
12, 124680, Note_on_c, 10, 62, 100
12, 124800, Note_on_c, 10, 65, 100
12, 124830, Note_off_c, 10, 62, 0
12, 124830, Note_off_c, 10, 62, 0
12, 125004, Note_off_c, 10, 65, 0
12, 125010, Note_on_c, 10, 67, 100
12, 125370, Note_off_c, 10, 67, 0
12, 125400, Note_on_c, 10, 65, 108
12, 125520, Note_off_c, 10, 65, 0
12, 125520, Note_on_c, 10, 67, 97
12, 125730, Note_on_c, 10, 64, 116
12, 125760, Note_off_c, 10, 67, 0
12, 126120, Note_off_c, 10, 64, 0
12, 126720, Note_on_c, 10, 62, 103
12, 126870, Note_off_c, 10, 62, 0
12, 126990, Note_on_c, 10, 62, 118
12, 127170, Note_off_c, 10, 62, 0
12, 127200, Note_on_c, 10, 62, 98
12, 127440, Note_off_c, 10, 62, 0
12, 127440, Note_on_c, 10, 65, 119
12, 127710, Note_off_c, 10, 65, 0
12, 127992, Control_c, 10, 11, 123
12, 128370, Note_on_c, 10, 65, 108
12, 128610, Note_off_c, 10, 65, 0
12, 128610, Note_on_c, 10, 68, 124
12, 128850, Note_off_c, 10, 68, 0
12, 128850, Note_on_c, 10, 68, 101
12, 129090, Note_off_c, 10, 68, 0
12, 129090, Note_on_c, 10, 68, 85
12, 129390, Note_off_c, 10, 68, 0
12, 129420, Note_on_c, 10, 64, 119
12, 129750, Note_off_c, 10, 64, 0
12, 130560, Note_on_c, 10, 62, 113
12, 130920, Note_off_c, 10, 62, 0
12, 131040, Note_on_c, 10, 62, 93
12, 131460, Note_off_c, 10, 62, 0
12, 131520, Note_on_c, 10, 65, 126
12, 131730, Note_off_c, 10, 65, 0
12, 131790, Note_on_c, 10, 65, 110
12, 132000, Note_off_c, 10, 65, 0
12, 132240, Note_on_c, 10, 65, 100
12, 132480, Note_on_c, 10, 68, 127
12, 132510, Note_off_c, 10, 65, 0
12, 132750, Note_off_c, 10, 68, 0
12, 132780, Note_on_c, 10, 65, 103
12, 132930, Note_on_c, 10, 68, 113
12, 132936, Note_off_c, 10, 65, 0
12, 133320, Note_off_c, 10, 68, 0
12, 133350, Note_on_c, 10, 64, 106
12, 133710, Note_off_c, 10, 64, 0
12, 134130, Note_on_c, 10, 69, 100
12, 134340, Note_on_c, 10, 65, 90
12, 134400, Note_off_c, 10, 69, 0
12, 134610, Note_off_c, 10, 65, 0
12, 134610, Note_on_c, 10, 62, 77
12, 134940, Note_off_c, 10, 62, 0
12, 135150, Note_on_c, 10, 69, 100
12, 135360, Note_on_c, 10, 65, 90
12, 135420, Note_off_c, 10, 69, 0
12, 135630, Note_off_c, 10, 65, 0
12, 135630, Note_on_c, 10, 62, 77
12, 135960, Note_off_c, 10, 62, 0
12, 136080, Note_on_c, 10, 69, 100
12, 136290, Note_on_c, 10, 65, 90
12, 136350, Note_off_c, 10, 69, 0
12, 136512, Control_c, 10, 11, 127
12, 136530, Note_on_c, 10, 62, 77
12, 136560, Note_off_c, 10, 65, 0
12, 136632, Control_c, 10, 11, 121
12, 136752, Control_c, 10, 11, 114
12, 136872, Control_c, 10, 11, 108
12, 136992, Control_c, 10, 11, 101
12, 137112, Control_c, 10, 11, 93
12, 137232, Control_c, 10, 11, 87
12, 137352, Control_c, 10, 11, 80
12, 137472, Control_c, 10, 11, 74
12, 137592, Control_c, 10, 11, 66
12, 137712, Control_c, 10, 11, 59
12, 137832, Control_c, 10, 11, 53
12, 137910, Note_off_c, 10, 62, 0
12, 137952, Control_c, 10, 11, 46
12, 156750, Control_c, 10, 11, 51
12, 156870, Control_c, 10, 11, 64
12, 156990, Control_c, 10, 11, 79
12, 158250, Control_c, 10, 11, 80
12, 158370, Control_c, 10, 11, 87
12, 158490, Control_c, 10, 11, 95
12, 158610, Control_c, 10, 11, 103
12, 159090, Note_on_c, 10, 69, 100
12, 159300, Note_on_c, 10, 65, 90
12, 159360, Note_off_c, 10, 69, 0
12, 159570, Note_off_c, 10, 65, 0
12, 159570, Note_on_c, 10, 62, 77
12, 159900, Note_off_c, 10, 62, 0
12, 160110, Note_on_c, 10, 69, 100
12, 160320, Note_on_c, 10, 65, 90
12, 160380, Note_off_c, 10, 69, 0
12, 160590, Note_off_c, 10, 65, 0
12, 160590, Note_on_c, 10, 62, 77
12, 160920, Note_off_c, 10, 62, 0
12, 161040, Note_on_c, 10, 69, 100
12, 161250, Note_on_c, 10, 65, 90
12, 161310, Note_off_c, 10, 69, 0
12, 161490, Note_on_c, 10, 62, 77
12, 161520, Note_off_c, 10, 65, 0
12, 162072, Control_c, 10, 11, 93
12, 162192, Control_c, 10, 11, 87
12, 162312, Control_c, 10, 11, 80
12, 162432, Control_c, 10, 11, 74
12, 162552, Control_c, 10, 11, 66
12, 162672, Control_c, 10, 11, 59
12, 162792, Control_c, 10, 11, 53
12, 162870, Note_off_c, 10, 62, 0
12, 162912, Control_c, 10, 11, 46
12, 163206, Control_c, 10, 11, 41
12, 163326, Control_c, 10, 11, 61
12, 163446, Control_c, 10, 11, 82
12, 163566, Control_c, 10, 11, 103
12, 163686, Control_c, 10, 11, 124
12, 163686, End_track
13, 0, Start_track
13, 0, Title_t, "Dear Diary"
13, 0, MIDI_port, 5
13, 0, End_track
14, 0, Start_track
14, 0, Title_t, "by Ray Thomas"
14, 0, MIDI_port, 0
14, 0, End_track
15, 0, Start_track
15, 0, Title_t, "The Moody Blues 1969"
15, 0, MIDI_port, 0
15, 0, End_track
16, 0, Start_track
16, 0, Title_t, "sequenced by Alex\225F"
16, 0, MIDI_port, 0
16, 0, End_track
17, 0, Start_track
17, 0, Title_t, "Moscow, Russia"
17, 0, MIDI_port, 0
17, 0, End_track
18, 0, Start_track
18, 0, Title_t, "08 January 2001"
18, 0, MIDI_port, 0
18, 0, End_track
19, 0, Start_track
19, 0, Title_t, "http://britishinvasion.front.ru"
19, 0, MIDI_port, 0
19, 0, End_track
0, 0, End_of_file
