0, 0, Header, 1, 10, 480
1, 0, Start_track
1, 0, Tempo, 441176
1, 0, Title_t, ""
1, 0, Time_signature, 4, 2, 6, 187
1, 0, End_track
2, 0, Start_track
2, 0, Title_t, "Saxo"
2, 0, Control_c, 11, 100, 0
2, 0, Control_c, 11, 101, 0
2, 0, Control_c, 11, 6, 8
2, 0, Pitch_bend_c, 11, 8192
2, 0, Control_c, 12, 100, 0
2, 0, Control_c, 12, 101, 0
2, 0, Control_c, 12, 6, 8
2, 0, Pitch_bend_c, 12, 8192
2, 0, Program_c, 11, 65
2, 0, Program_c, 12, 65
2, 0, Control_c, 11, 7, 127
2, 0, Control_c, 12, 7, 127
2, 0, Control_c, 11, 10, 72
2, 0, Control_c, 12, 10, 72
2, 0, Control_c, 11, 93, 0
2, 0, Control_c, 12, 93, 0
2, 0, Control_c, 11, 91, 0
2, 0, Control_c, 12, 91, 0
2, 0, Control_c, 11, 92, 0
2, 0, Control_c, 12, 92, 0
2, 0, Control_c, 11, 95, 0
2, 0, Control_c, 12, 95, 0
2, 82560, Control_c, 11, 7, 10
2, 82560, Control_c, 12, 7, 10
2, 82560, Note_on_c, 11, 68, 95
2, 82680, Control_c, 11, 7, 20
2, 82680, Control_c, 12, 7, 20
2, 82800, Control_c, 11, 7, 30
2, 82800, Control_c, 12, 7, 30
2, 82920, Control_c, 11, 7, 39
2, 82920, Control_c, 12, 7, 39
2, 83040, Control_c, 11, 7, 49
2, 83040, Control_c, 12, 7, 49
2, 83160, Control_c, 11, 7, 59
2, 83160, Control_c, 12, 7, 59
2, 83280, Control_c, 11, 7, 69
2, 83280, Control_c, 12, 7, 69
2, 83400, Control_c, 11, 7, 79
2, 83400, Control_c, 12, 7, 79
2, 83520, Control_c, 11, 7, 89
2, 83520, Control_c, 12, 7, 89
2, 83640, Control_c, 11, 7, 98
2, 83640, Control_c, 12, 7, 98
2, 83760, Control_c, 11, 7, 108
2, 83760, Control_c, 12, 7, 108
2, 83880, Control_c, 11, 7, 118
2, 83880, Control_c, 12, 7, 118
2, 84000, Control_c, 11, 7, 127
2, 84000, Control_c, 12, 7, 127
2, 85200, Note_off_c, 11, 68, 80
2, 85200, Note_on_c, 11, 61, 95
2, 85680, Note_off_c, 11, 61, 80
2, 85680, Note_on_c, 11, 66, 95
2, 85920, Note_off_c, 11, 66, 80
2, 85920, Note_on_c, 11, 64, 95
2, 86160, Note_off_c, 11, 64, 80
2, 86160, Note_on_c, 11, 63, 95
2, 86400, Note_off_c, 11, 63, 80
2, 86400, Note_on_c, 11, 61, 95
2, 86640, Note_off_c, 11, 61, 80
2, 86640, Note_on_c, 11, 63, 95
2, 87600, Note_off_c, 11, 63, 80
2, 87600, Note_on_c, 12, 56, 95
2, 87600, Pitch_bend_c, 12, 8192
2, 87664, Pitch_bend_c, 12, 8320
2, 87680, Pitch_bend_c, 12, 8832
2, 87696, Pitch_bend_c, 12, 9472
2, 87712, Pitch_bend_c, 12, 9984
2, 87728, Pitch_bend_c, 12, 10240
2, 87840, Note_off_c, 12, 56, 80
2, 87840, Pitch_bend_c, 12, 8192
2, 87840, Note_on_c, 11, 54, 95
2, 88080, Note_off_c, 11, 54, 80
2, 88080, Note_on_c, 11, 56, 95
2, 89280, Note_off_c, 11, 56, 80
2, 90720, Note_on_c, 11, 58, 95
2, 90960, Note_off_c, 11, 58, 80
2, 90960, Note_on_c, 11, 59, 95
2, 91200, Note_off_c, 11, 59, 80
2, 91440, Note_on_c, 11, 63, 95
2, 91680, Note_off_c, 11, 63, 80
2, 91920, Note_on_c, 11, 68, 95
2, 92400, Note_off_c, 11, 68, 80
2, 92400, Note_on_c, 12, 68, 95
2, 92400, Pitch_bend_c, 12, 8192
2, 92480, Pitch_bend_c, 12, 8832
2, 92496, Pitch_bend_c, 12, 9600
2, 92512, Pitch_bend_c, 12, 10240
2, 92880, Note_off_c, 12, 68, 80
2, 92880, Pitch_bend_c, 12, 8192
2, 92880, Note_on_c, 11, 68, 95
2, 93360, Note_off_c, 11, 68, 80
2, 93360, Note_on_c, 11, 66, 95
2, 93840, Note_off_c, 11, 66, 80
2, 93840, Note_on_c, 11, 63, 95
2, 94080, Note_off_c, 11, 63, 80
2, 94080, Note_on_c, 11, 61, 79
2, 94320, Note_off_c, 11, 61, 80
2, 94320, Note_on_c, 11, 63, 95
2, 95280, Note_off_c, 11, 63, 80
2, 95280, Note_on_c, 11, 63, 95
2, 95520, Note_off_c, 11, 63, 80
2, 95520, Note_on_c, 11, 66, 95
2, 95760, Note_off_c, 11, 66, 80
2, 95760, Note_on_c, 11, 68, 95
2, 96240, Note_off_c, 11, 68, 80
2, 96240, Note_on_c, 11, 70, 95
2, 96720, Note_off_c, 11, 70, 80
2, 96720, Note_on_c, 11, 71, 95
2, 97200, Note_off_c, 11, 71, 80
2, 97200, Note_on_c, 11, 73, 95
2, 97440, Note_off_c, 11, 73, 80
2, 97440, Note_on_c, 11, 75, 95
2, 97680, Note_off_c, 11, 75, 80
2, 97680, Note_on_c, 11, 76, 95
2, 98160, Note_off_c, 11, 76, 80
2, 99120, Note_on_c, 11, 73, 95
2, 99360, Note_off_c, 11, 73, 80
2, 99360, Note_on_c, 11, 75, 95
2, 99600, Note_off_c, 11, 75, 80
2, 99600, Note_on_c, 11, 76, 95
2, 100080, Note_off_c, 11, 76, 80
2, 100080, Note_on_c, 11, 78, 95
2, 100320, Note_off_c, 11, 78, 80
2, 100320, Note_on_c, 11, 76, 95
2, 100560, Note_off_c, 11, 76, 80
2, 100560, Note_on_c, 11, 75, 95
2, 101040, Note_off_c, 11, 75, 80
2, 101040, Note_on_c, 11, 71, 95
2, 101280, Note_off_c, 11, 71, 80
2, 101280, Note_on_c, 11, 73, 79
2, 101400, Note_off_c, 11, 73, 80
2, 101400, Note_on_c, 11, 76, 95
2, 101520, Note_off_c, 11, 76, 80
2, 101520, Note_on_c, 11, 73, 95
2, 102000, Note_off_c, 11, 73, 80
2, 102000, Note_on_c, 11, 71, 95
2, 102240, Note_off_c, 11, 71, 80
2, 102240, Note_on_c, 11, 68, 95
2, 102480, Note_off_c, 11, 68, 80
2, 102480, Note_on_c, 11, 66, 95
2, 102960, Note_off_c, 11, 66, 80
2, 102960, Note_on_c, 11, 64, 95
2, 103200, Note_off_c, 11, 64, 80
2, 103200, Note_on_c, 11, 63, 95
2, 103440, Note_off_c, 11, 63, 80
2, 103440, Note_on_c, 11, 64, 95
2, 103920, Note_off_c, 11, 64, 80
2, 105840, Note_on_c, 11, 71, 95
2, 106080, Note_off_c, 11, 71, 80
2, 106080, Note_on_c, 11, 69, 95
2, 106320, Note_off_c, 11, 69, 80
2, 106320, Note_on_c, 11, 68, 95
2, 106800, Note_off_c, 11, 68, 80
2, 106800, Note_on_c, 11, 66, 95
2, 107280, Note_off_c, 11, 66, 80
2, 107280, Note_on_c, 12, 69, 95
2, 107280, Pitch_bend_c, 12, 8192
2, 107296, Pitch_bend_c, 12, 8320
2, 107312, Pitch_bend_c, 12, 8448
2, 107344, Pitch_bend_c, 12, 8576
2, 107360, Pitch_bend_c, 12, 8704
2, 107376, Pitch_bend_c, 12, 9472
2, 107392, Pitch_bend_c, 12, 10240
2, 107760, Note_off_c, 12, 69, 80
2, 107760, Pitch_bend_c, 12, 8192
2, 107760, Note_on_c, 11, 73, 95
2, 108000, Note_off_c, 11, 73, 80
2, 108000, Note_on_c, 11, 75, 95
2, 108240, Note_off_c, 11, 75, 80
2, 108240, Note_on_c, 11, 76, 95
2, 108480, Note_off_c, 11, 76, 80
2, 108720, Note_on_c, 11, 61, 95
2, 108960, Note_off_c, 11, 61, 80
2, 108960, Note_on_c, 11, 63, 95
2, 109200, Note_off_c, 11, 63, 80
2, 109200, Note_on_c, 11, 64, 95
2, 109680, Note_off_c, 11, 64, 80
2, 110640, Note_on_c, 11, 64, 95
2, 110880, Note_off_c, 11, 64, 80
2, 110880, Note_on_c, 11, 66, 95
2, 111120, Note_off_c, 11, 66, 80
2, 111120, Note_on_c, 12, 66, 95
2, 111120, Pitch_bend_c, 12, 8192
2, 111232, Pitch_bend_c, 12, 8832
2, 111248, Pitch_bend_c, 12, 9344
2, 111264, Pitch_bend_c, 12, 9984
2, 111280, Pitch_bend_c, 12, 10240
2, 111600, Note_off_c, 12, 66, 80
2, 111600, Pitch_bend_c, 12, 8192
2, 111600, Note_on_c, 11, 69, 95
2, 111840, Note_off_c, 11, 69, 80
2, 111840, Note_on_c, 11, 68, 95
2, 112080, Note_off_c, 11, 68, 80
2, 112080, Note_on_c, 11, 66, 95
2, 112560, Note_off_c, 11, 66, 80
2, 112560, Note_on_c, 11, 64, 95
2, 112800, Note_off_c, 11, 64, 80
2, 112800, Note_on_c, 11, 63, 95
2, 113040, Note_off_c, 11, 63, 80
2, 113040, Note_on_c, 11, 61, 95
2, 113280, Note_off_c, 11, 61, 80
2, 127920, Note_on_c, 11, 71, 95
2, 128160, Note_off_c, 11, 71, 80
2, 128160, Note_on_c, 11, 69, 95
2, 128400, Note_off_c, 11, 69, 80
2, 128400, Note_on_c, 11, 68, 95
2, 128640, Note_off_c, 11, 68, 80
2, 128640, Note_on_c, 11, 66, 95
2, 128880, Note_off_c, 11, 66, 80
2, 128880, Note_on_c, 11, 68, 95
2, 129840, Note_off_c, 11, 68, 80
2, 129840, Note_on_c, 11, 63, 95
2, 130080, Note_off_c, 11, 63, 80
2, 130080, Note_on_c, 11, 59, 95
2, 130320, Note_off_c, 11, 59, 80
2, 130320, Note_on_c, 11, 61, 95
2, 131520, Note_off_c, 11, 61, 80
2, 131760, Note_on_c, 11, 63, 95
2, 132000, Note_off_c, 11, 63, 80
2, 132000, Note_on_c, 11, 64, 95
2, 132240, Note_off_c, 11, 64, 80
2, 132240, Note_on_c, 11, 66, 95
2, 132720, Note_off_c, 11, 66, 80
2, 132720, Note_on_c, 11, 68, 95
2, 132960, Note_off_c, 11, 68, 80
2, 133200, Note_on_c, 11, 56, 95
2, 133680, Note_off_c, 11, 56, 80
2, 133680, Note_on_c, 12, 62, 95
2, 133680, Pitch_bend_c, 12, 8192
2, 133776, Pitch_bend_c, 12, 8832
2, 133792, Pitch_bend_c, 12, 9728
2, 133808, Pitch_bend_c, 12, 10240
2, 133920, Note_off_c, 12, 62, 80
2, 133920, Pitch_bend_c, 12, 8192
2, 133920, Note_on_c, 11, 63, 95
2, 134160, Note_off_c, 11, 63, 80
2, 134160, Note_on_c, 11, 61, 95
2, 134400, Note_off_c, 11, 61, 80
2, 134400, Note_on_c, 11, 59, 95
2, 134640, Note_off_c, 11, 59, 80
2, 134640, Note_on_c, 11, 61, 79
2, 135120, Note_off_c, 11, 61, 80
2, 136800, Note_on_c, 11, 73, 95
2, 137040, Note_off_c, 11, 73, 80
2, 137040, Note_on_c, 11, 71, 95
2, 137280, Note_off_c, 11, 71, 80
2, 137520, Note_on_c, 11, 69, 95
2, 137760, Note_off_c, 11, 69, 80
2, 138000, Note_on_c, 11, 68, 95
2, 138720, Note_off_c, 11, 68, 80
2, 138720, Note_on_c, 11, 66, 95
2, 138960, Note_off_c, 11, 66, 80
2, 138960, Note_on_c, 11, 71, 95
2, 139200, Note_off_c, 11, 71, 80
2, 139440, Note_on_c, 11, 69, 95
2, 139680, Note_off_c, 11, 69, 80
2, 139920, Note_on_c, 11, 68, 95
2, 140160, Note_off_c, 11, 68, 80
2, 140160, Note_on_c, 11, 66, 95
2, 140400, Note_off_c, 11, 66, 80
2, 140400, Note_on_c, 11, 68, 95
2, 141120, Note_off_c, 11, 68, 80
2, 141360, Note_on_c, 11, 63, 95
2, 141600, Note_off_c, 11, 63, 80
2, 141600, Note_on_c, 11, 59, 95
2, 141840, Note_off_c, 11, 59, 80
2, 141840, Note_on_c, 11, 61, 95
2, 142320, Note_off_c, 11, 61, 80
2, 142320, Note_on_c, 11, 63, 95
2, 142800, Note_off_c, 11, 63, 80
2, 142800, Note_on_c, 11, 64, 95
2, 143280, Note_off_c, 11, 64, 80
2, 143280, Note_on_c, 12, 64, 95
2, 143280, Pitch_bend_c, 12, 8192
2, 143296, Pitch_bend_c, 12, 8448
2, 143312, Pitch_bend_c, 12, 8704
2, 143328, Pitch_bend_c, 12, 8960
2, 143344, Pitch_bend_c, 12, 9216
2, 143360, Pitch_bend_c, 12, 9600
2, 143376, Pitch_bend_c, 12, 9856
2, 143392, Pitch_bend_c, 12, 10112
2, 143408, Pitch_bend_c, 12, 10240
2, 143520, Note_off_c, 12, 64, 80
2, 143520, Pitch_bend_c, 12, 8192
2, 143520, Note_on_c, 11, 68, 95
2, 143760, Note_off_c, 11, 68, 80
2, 143760, Note_on_c, 11, 68, 95
2, 144000, Note_off_c, 11, 68, 80
2, 144000, Note_on_c, 11, 68, 95
2, 146640, Note_off_c, 11, 68, 80
2, 146640, Note_on_c, 11, 61, 95
2, 147120, Note_off_c, 11, 61, 80
2, 147120, Note_on_c, 11, 66, 95
2, 147360, Note_off_c, 11, 66, 80
2, 147360, Note_on_c, 11, 64, 95
2, 147600, Note_off_c, 11, 64, 80
2, 147600, Note_on_c, 11, 63, 95
2, 147840, Note_off_c, 11, 63, 80
2, 147840, Note_on_c, 11, 61, 95
2, 148080, Note_off_c, 11, 61, 80
2, 148080, Note_on_c, 11, 63, 95
2, 149040, Note_off_c, 11, 63, 80
2, 149040, Note_on_c, 12, 56, 95
2, 149040, Pitch_bend_c, 12, 8192
2, 149104, Pitch_bend_c, 12, 8320
2, 149120, Pitch_bend_c, 12, 8832
2, 149136, Pitch_bend_c, 12, 9472
2, 149152, Pitch_bend_c, 12, 9984
2, 149168, Pitch_bend_c, 12, 10240
2, 149280, Note_off_c, 12, 56, 80
2, 149280, Pitch_bend_c, 12, 8192
2, 149280, Note_on_c, 11, 54, 95
2, 149520, Note_off_c, 11, 54, 80
2, 149520, Note_on_c, 11, 56, 95
2, 150720, Note_off_c, 11, 56, 80
2, 152160, Note_on_c, 11, 58, 95
2, 152400, Note_off_c, 11, 58, 80
2, 152400, Note_on_c, 11, 59, 95
2, 152640, Note_off_c, 11, 59, 80
2, 152880, Note_on_c, 11, 63, 95
2, 153120, Note_off_c, 11, 63, 80
2, 153360, Note_on_c, 11, 68, 95
2, 153840, Note_off_c, 11, 68, 80
2, 153840, Note_on_c, 12, 68, 95
2, 153840, Pitch_bend_c, 12, 8192
2, 153920, Pitch_bend_c, 12, 8832
2, 153936, Pitch_bend_c, 12, 9600
2, 153952, Pitch_bend_c, 12, 10240
2, 154320, Note_off_c, 12, 68, 80
2, 154320, Pitch_bend_c, 12, 8192
2, 154320, Note_on_c, 11, 68, 95
2, 154800, Note_off_c, 11, 68, 80
2, 154800, Note_on_c, 11, 66, 95
2, 155280, Note_off_c, 11, 66, 80
2, 155280, Note_on_c, 11, 63, 95
2, 155520, Note_off_c, 11, 63, 80
2, 155520, Note_on_c, 11, 61, 79
2, 155760, Note_off_c, 11, 61, 80
2, 155760, Note_on_c, 11, 63, 95
2, 156720, Note_off_c, 11, 63, 80
2, 156720, Note_on_c, 11, 63, 95
2, 156960, Note_off_c, 11, 63, 80
2, 156960, Note_on_c, 11, 66, 95
2, 157200, Note_off_c, 11, 66, 80
2, 157200, Note_on_c, 11, 68, 95
2, 157680, Note_off_c, 11, 68, 80
2, 157680, Note_on_c, 11, 70, 95
2, 158160, Note_off_c, 11, 70, 80
2, 158160, Note_on_c, 11, 71, 95
2, 158640, Note_off_c, 11, 71, 80
2, 158640, Note_on_c, 11, 73, 95
2, 158880, Note_off_c, 11, 73, 80
2, 158880, Note_on_c, 11, 75, 95
2, 159120, Note_off_c, 11, 75, 80
2, 159120, Note_on_c, 11, 76, 95
2, 159600, Note_off_c, 11, 76, 80
2, 160560, Note_on_c, 11, 73, 95
2, 160800, Note_off_c, 11, 73, 80
2, 160800, Note_on_c, 11, 75, 95
2, 161040, Note_off_c, 11, 75, 80
2, 161040, Note_on_c, 11, 76, 95
2, 161520, Note_off_c, 11, 76, 80
2, 161520, Note_on_c, 11, 78, 95
2, 161760, Note_off_c, 11, 78, 80
2, 161760, Note_on_c, 11, 76, 95
2, 162000, Note_off_c, 11, 76, 80
2, 162000, Note_on_c, 11, 75, 95
2, 162480, Note_off_c, 11, 75, 80
2, 162480, Note_on_c, 11, 71, 95
2, 162720, Note_off_c, 11, 71, 80
2, 162720, Note_on_c, 11, 73, 79
2, 162840, Note_off_c, 11, 73, 80
2, 162840, Note_on_c, 11, 76, 95
2, 162960, Note_off_c, 11, 76, 80
2, 162960, Note_on_c, 11, 73, 95
2, 163440, Note_off_c, 11, 73, 80
2, 163440, Note_on_c, 11, 71, 95
2, 163680, Note_off_c, 11, 71, 80
2, 163680, Note_on_c, 11, 68, 95
2, 163920, Note_off_c, 11, 68, 80
2, 163920, Note_on_c, 11, 66, 95
2, 164400, Note_off_c, 11, 66, 80
2, 164400, Note_on_c, 11, 64, 95
2, 164640, Note_off_c, 11, 64, 80
2, 164640, Note_on_c, 11, 63, 95
2, 164880, Note_off_c, 11, 63, 80
2, 164880, Note_on_c, 11, 64, 95
2, 165360, Note_off_c, 11, 64, 80
2, 167280, Note_on_c, 11, 71, 95
2, 167520, Note_off_c, 11, 71, 80
2, 167520, Note_on_c, 11, 69, 95
2, 167760, Note_off_c, 11, 69, 80
2, 167760, Note_on_c, 11, 68, 95
2, 168240, Note_off_c, 11, 68, 80
2, 168240, Note_on_c, 11, 66, 95
2, 168720, Note_off_c, 11, 66, 80
2, 168720, Note_on_c, 11, 71, 95
2, 169200, Note_off_c, 11, 71, 80
2, 169200, Note_on_c, 11, 73, 95
2, 169440, Note_off_c, 11, 73, 80
2, 169440, Note_on_c, 11, 75, 95
2, 169680, Note_off_c, 11, 75, 80
2, 169680, Note_on_c, 11, 76, 95
2, 169920, Note_off_c, 11, 76, 80
2, 170160, Note_on_c, 11, 61, 95
2, 170400, Note_off_c, 11, 61, 80
2, 170400, Note_on_c, 11, 63, 95
2, 170640, Note_off_c, 11, 63, 80
2, 170640, Note_on_c, 11, 64, 95
2, 171120, Note_off_c, 11, 64, 80
2, 172080, Note_on_c, 11, 64, 95
2, 172320, Note_off_c, 11, 64, 80
2, 172320, Note_on_c, 11, 66, 95
2, 172560, Note_off_c, 11, 66, 80
2, 172560, Note_on_c, 11, 68, 95
2, 173040, Note_off_c, 11, 68, 80
2, 173040, Note_on_c, 11, 69, 95
2, 173280, Note_off_c, 11, 69, 80
2, 173280, Note_on_c, 11, 68, 95
2, 173520, Note_off_c, 11, 68, 80
2, 173520, Note_on_c, 11, 66, 95
2, 174000, Note_off_c, 11, 66, 80
2, 220080, Note_on_c, 11, 68, 95
2, 220320, Note_off_c, 11, 68, 80
2, 220320, Note_on_c, 11, 71, 95
2, 220560, Note_off_c, 11, 71, 80
2, 220560, Note_on_c, 11, 73, 95
2, 221040, Note_off_c, 11, 73, 80
2, 222000, Note_on_c, 11, 73, 95
2, 222240, Note_off_c, 11, 73, 80
2, 222240, Note_on_c, 11, 75, 95
2, 222480, Note_off_c, 11, 75, 80
2, 222480, Note_on_c, 11, 76, 95
2, 222960, Note_off_c, 11, 76, 80
2, 222960, Note_on_c, 11, 78, 95
2, 223200, Note_off_c, 11, 78, 80
2, 223200, Note_on_c, 11, 76, 95
2, 223440, Note_off_c, 11, 76, 80
2, 223440, Note_on_c, 11, 75, 95
2, 223920, Note_off_c, 11, 75, 80
2, 223920, Note_on_c, 11, 71, 95
2, 224160, Note_off_c, 11, 71, 80
2, 224160, Note_on_c, 11, 73, 79
2, 224280, Note_off_c, 11, 73, 80
2, 224280, Note_on_c, 11, 76, 95
2, 224400, Note_off_c, 11, 76, 80
2, 224400, Note_on_c, 11, 73, 95
2, 224880, Note_off_c, 11, 73, 80
2, 224880, Note_on_c, 11, 71, 95
2, 225120, Note_off_c, 11, 71, 80
2, 225120, Note_on_c, 11, 68, 95
2, 225360, Note_off_c, 11, 68, 80
2, 225360, Note_on_c, 11, 66, 95
2, 225840, Note_off_c, 11, 66, 80
2, 225840, Note_on_c, 11, 64, 95
2, 226080, Note_off_c, 11, 64, 80
2, 226080, Note_on_c, 11, 63, 95
2, 226320, Note_off_c, 11, 63, 80
2, 226320, Note_on_c, 11, 64, 95
2, 226800, Note_off_c, 11, 64, 80
2, 228720, Note_on_c, 11, 71, 95
2, 228960, Note_off_c, 11, 71, 80
2, 228960, Note_on_c, 11, 69, 95
2, 229200, Note_off_c, 11, 69, 80
2, 229200, Note_on_c, 11, 68, 95
2, 229680, Note_off_c, 11, 68, 80
2, 229680, Note_on_c, 11, 66, 95
2, 230160, Note_off_c, 11, 66, 80
2, 230160, Note_on_c, 11, 71, 95
2, 230640, Note_off_c, 11, 71, 80
2, 230640, Note_on_c, 11, 73, 95
2, 230880, Note_off_c, 11, 73, 80
2, 230880, Note_on_c, 11, 75, 95
2, 231120, Note_off_c, 11, 75, 80
2, 231120, Note_on_c, 11, 76, 95
2, 231360, Note_off_c, 11, 76, 80
2, 231600, Note_on_c, 11, 61, 95
2, 231840, Note_off_c, 11, 61, 80
2, 231840, Note_on_c, 11, 63, 95
2, 232080, Note_off_c, 11, 63, 80
2, 232080, Note_on_c, 11, 64, 95
2, 232560, Note_off_c, 11, 64, 80
2, 233520, Note_on_c, 11, 64, 95
2, 233760, Note_off_c, 11, 64, 80
2, 233760, Note_on_c, 11, 66, 95
2, 234000, Note_off_c, 11, 66, 80
2, 234000, Note_on_c, 11, 68, 95
2, 234480, Note_off_c, 11, 68, 80
2, 234480, Note_on_c, 11, 69, 95
2, 234720, Note_off_c, 11, 69, 80
2, 234720, Note_on_c, 11, 68, 95
2, 234960, Note_off_c, 11, 68, 80
2, 234960, Note_on_c, 11, 66, 95
2, 235440, Note_off_c, 11, 66, 80
2, 235440, Note_on_c, 11, 64, 95
2, 235680, Note_off_c, 11, 64, 80
2, 235680, Note_on_c, 11, 63, 95
2, 235920, Note_off_c, 11, 63, 80
2, 235920, Note_on_c, 11, 61, 95
2, 236160, Note_off_c, 11, 61, 80
2, 243120, Note_on_c, 11, 71, 95
2, 243120, Note_on_c, 11, 66, 95
2, 243120, Note_on_c, 11, 63, 95
2, 243360, Note_off_c, 11, 71, 80
2, 243360, Note_off_c, 11, 66, 80
2, 243360, Note_off_c, 11, 63, 80
2, 243360, Note_on_c, 11, 71, 95
2, 243360, Note_on_c, 11, 66, 95
2, 243360, Note_on_c, 11, 63, 95
2, 243600, Note_off_c, 11, 71, 80
2, 243600, Note_off_c, 11, 66, 80
2, 243600, Note_off_c, 11, 63, 80
2, 243600, Note_on_c, 11, 73, 95
2, 243600, Note_on_c, 11, 68, 95
2, 243600, Note_on_c, 11, 64, 95
2, 243840, Note_off_c, 11, 73, 80
2, 243840, Note_off_c, 11, 68, 80
2, 243840, Note_off_c, 11, 64, 80
2, 249600, Note_on_c, 11, 68, 95
2, 250320, Note_off_c, 11, 68, 80
2, 250320, Note_on_c, 11, 66, 95
2, 251520, Note_off_c, 11, 66, 80
2, 258480, Note_on_c, 11, 71, 95
2, 258480, Note_on_c, 11, 66, 95
2, 258480, Note_on_c, 11, 63, 95
2, 258720, Note_off_c, 11, 71, 80
2, 258720, Note_off_c, 11, 66, 80
2, 258720, Note_off_c, 11, 63, 80
2, 258720, Note_on_c, 11, 71, 95
2, 258720, Note_on_c, 11, 66, 95
2, 258720, Note_on_c, 11, 63, 95
2, 258960, Note_off_c, 11, 71, 80
2, 258960, Note_off_c, 11, 66, 80
2, 258960, Note_off_c, 11, 63, 80
2, 258960, Note_on_c, 11, 73, 95
2, 258960, Note_on_c, 11, 68, 95
2, 258960, Note_on_c, 11, 64, 95
2, 259200, Note_off_c, 11, 73, 80
2, 259200, Note_off_c, 11, 68, 80
2, 259200, Note_off_c, 11, 64, 80
2, 264960, Note_on_c, 11, 68, 95
2, 265680, Note_off_c, 11, 68, 80
2, 265680, Note_on_c, 11, 66, 95
2, 266160, Note_off_c, 11, 66, 80
2, 266160, Note_on_c, 11, 71, 95
2, 266400, Note_off_c, 11, 71, 80
2, 266400, Note_on_c, 11, 69, 95
2, 266640, Note_off_c, 11, 69, 80
2, 266640, Note_on_c, 11, 68, 95
2, 266880, Note_off_c, 11, 68, 80
2, 266880, Note_on_c, 11, 66, 95
2, 267120, Note_off_c, 11, 66, 80
2, 267120, Note_on_c, 11, 68, 95
2, 268080, Note_off_c, 11, 68, 80
2, 268080, Note_on_c, 11, 63, 95
2, 268320, Note_off_c, 11, 63, 80
2, 268320, Note_on_c, 11, 59, 95
2, 268560, Note_off_c, 11, 59, 80
2, 268560, Note_on_c, 11, 61, 95
2, 269760, Note_off_c, 11, 61, 80
2, 270000, Note_on_c, 11, 63, 95
2, 270240, Note_off_c, 11, 63, 80
2, 270240, Note_on_c, 11, 64, 95
2, 270480, Note_off_c, 11, 64, 80
2, 270480, Note_on_c, 11, 66, 95
2, 270960, Note_off_c, 11, 66, 80
2, 270960, Note_on_c, 11, 68, 95
2, 271200, Note_off_c, 11, 68, 80
2, 271440, Note_on_c, 11, 56, 95
2, 271920, Note_off_c, 11, 56, 80
2, 271920, Note_on_c, 12, 62, 95
2, 271920, Pitch_bend_c, 12, 8192
2, 272016, Pitch_bend_c, 12, 8832
2, 272032, Pitch_bend_c, 12, 9728
2, 272048, Pitch_bend_c, 12, 10240
2, 272160, Note_off_c, 12, 62, 80
2, 272160, Pitch_bend_c, 12, 8192
2, 272160, Note_on_c, 11, 63, 95
2, 272400, Note_off_c, 11, 63, 80
2, 272400, Note_on_c, 11, 61, 95
2, 272640, Note_off_c, 11, 61, 80
2, 272640, Note_on_c, 11, 59, 95
2, 272880, Note_off_c, 11, 59, 80
2, 272880, Note_on_c, 11, 61, 79
2, 273360, Note_off_c, 11, 61, 80
2, 275040, Note_on_c, 11, 73, 95
2, 275280, Note_off_c, 11, 73, 80
2, 275280, Note_on_c, 11, 71, 95
2, 275520, Note_off_c, 11, 71, 80
2, 275760, Note_on_c, 11, 69, 95
2, 276000, Note_off_c, 11, 69, 80
2, 276240, Note_on_c, 11, 68, 95
2, 276960, Note_off_c, 11, 68, 80
2, 276960, Note_on_c, 11, 66, 95
2, 277200, Note_off_c, 11, 66, 80
2, 277200, Note_on_c, 11, 71, 95
2, 277440, Note_off_c, 11, 71, 80
2, 277680, Note_on_c, 11, 69, 95
2, 277920, Note_off_c, 11, 69, 80
2, 278160, Note_on_c, 11, 68, 95
2, 278400, Note_off_c, 11, 68, 80
2, 278400, Note_on_c, 11, 66, 95
2, 278640, Note_off_c, 11, 66, 80
2, 278640, Note_on_c, 11, 68, 95
2, 279360, Note_off_c, 11, 68, 80
2, 279600, Note_on_c, 11, 63, 95
2, 279840, Note_off_c, 11, 63, 80
2, 279840, Note_on_c, 11, 59, 95
2, 280080, Note_off_c, 11, 59, 80
2, 280080, Note_on_c, 11, 61, 95
2, 280560, Note_off_c, 11, 61, 80
2, 280560, Note_on_c, 11, 63, 95
2, 281040, Note_off_c, 11, 63, 80
2, 281040, Note_on_c, 11, 64, 95
2, 281520, Note_off_c, 11, 64, 80
2, 281520, Note_on_c, 12, 64, 95
2, 281520, Pitch_bend_c, 12, 8192
2, 281536, Pitch_bend_c, 12, 8448
2, 281552, Pitch_bend_c, 12, 8704
2, 281568, Pitch_bend_c, 12, 8960
2, 281584, Pitch_bend_c, 12, 9216
2, 281600, Pitch_bend_c, 12, 9600
2, 281616, Pitch_bend_c, 12, 9856
2, 281632, Pitch_bend_c, 12, 10112
2, 281648, Pitch_bend_c, 12, 10240
2, 281760, Note_off_c, 12, 64, 80
2, 281760, Pitch_bend_c, 12, 8192
2, 281760, Note_on_c, 11, 68, 95
2, 282000, Note_off_c, 11, 68, 80
2, 282000, Note_on_c, 11, 68, 95
2, 282240, Note_off_c, 11, 68, 80
2, 282240, Note_on_c, 11, 68, 95
2, 284880, Note_off_c, 11, 68, 80
2, 284880, Note_on_c, 11, 61, 95
2, 285360, Note_off_c, 11, 61, 80
2, 285360, Note_on_c, 11, 66, 95
2, 285600, Note_off_c, 11, 66, 80
2, 285600, Note_on_c, 11, 64, 95
2, 285840, Note_off_c, 11, 64, 80
2, 285840, Note_on_c, 11, 63, 95
2, 286080, Note_off_c, 11, 63, 80
2, 286080, Note_on_c, 11, 61, 95
2, 286320, Note_off_c, 11, 61, 80
2, 286320, Note_on_c, 11, 63, 95
2, 287280, Note_off_c, 11, 63, 80
2, 287280, Note_on_c, 12, 56, 95
2, 287280, Pitch_bend_c, 12, 8192
2, 287344, Pitch_bend_c, 12, 8320
2, 287360, Pitch_bend_c, 12, 8832
2, 287376, Pitch_bend_c, 12, 9472
2, 287392, Pitch_bend_c, 12, 9984
2, 287408, Pitch_bend_c, 12, 10240
2, 287520, Note_off_c, 12, 56, 80
2, 287520, Pitch_bend_c, 12, 8192
2, 287520, Note_on_c, 11, 54, 95
2, 287760, Note_off_c, 11, 54, 80
2, 287760, Note_on_c, 11, 56, 95
2, 288960, Note_off_c, 11, 56, 80
2, 290400, Note_on_c, 11, 58, 95
2, 290640, Note_off_c, 11, 58, 80
2, 290640, Note_on_c, 11, 59, 95
2, 290880, Note_off_c, 11, 59, 80
2, 291120, Note_on_c, 11, 63, 95
2, 291360, Note_off_c, 11, 63, 80
2, 291600, Note_on_c, 11, 68, 95
2, 292080, Note_off_c, 11, 68, 80
2, 292080, Note_on_c, 12, 68, 95
2, 292080, Pitch_bend_c, 12, 8192
2, 292160, Pitch_bend_c, 12, 8832
2, 292176, Pitch_bend_c, 12, 9600
2, 292192, Pitch_bend_c, 12, 10240
2, 292560, Note_off_c, 12, 68, 80
2, 292560, Pitch_bend_c, 12, 8192
2, 292560, Note_on_c, 11, 68, 95
2, 293040, Note_off_c, 11, 68, 80
2, 293040, Note_on_c, 11, 66, 95
2, 293520, Note_off_c, 11, 66, 80
2, 293520, Note_on_c, 11, 63, 95
2, 293760, Note_off_c, 11, 63, 80
2, 293760, Note_on_c, 11, 61, 79
2, 294000, Note_off_c, 11, 61, 80
2, 294000, Note_on_c, 11, 63, 95
2, 294960, Note_off_c, 11, 63, 80
2, 294960, Note_on_c, 11, 63, 95
2, 295200, Note_off_c, 11, 63, 80
2, 295200, Note_on_c, 11, 66, 95
2, 295440, Note_off_c, 11, 66, 80
2, 295440, Note_on_c, 11, 68, 95
2, 295920, Note_off_c, 11, 68, 80
2, 295920, Note_on_c, 11, 70, 95
2, 296400, Note_off_c, 11, 70, 80
2, 296400, Note_on_c, 11, 71, 95
2, 296880, Note_off_c, 11, 71, 80
2, 296880, Note_on_c, 11, 73, 95
2, 297120, Note_off_c, 11, 73, 80
2, 297120, Note_on_c, 11, 75, 95
2, 297360, Note_off_c, 11, 75, 80
2, 297360, Note_on_c, 11, 76, 95
2, 297840, Note_off_c, 11, 76, 80
2, 298800, Note_on_c, 11, 73, 95
2, 299040, Note_off_c, 11, 73, 80
2, 299040, Note_on_c, 11, 75, 95
2, 299280, Note_off_c, 11, 75, 80
2, 299280, Note_on_c, 11, 76, 95
2, 299760, Note_off_c, 11, 76, 80
2, 299760, Note_on_c, 11, 78, 95
2, 300000, Note_off_c, 11, 78, 80
2, 300000, Note_on_c, 11, 76, 95
2, 300240, Note_off_c, 11, 76, 80
2, 300240, Note_on_c, 11, 75, 95
2, 300720, Note_off_c, 11, 75, 80
2, 300720, Note_on_c, 11, 71, 95
2, 300960, Note_off_c, 11, 71, 80
2, 300960, Note_on_c, 11, 73, 79
2, 301080, Note_off_c, 11, 73, 80
2, 301080, Note_on_c, 11, 76, 95
2, 301200, Note_off_c, 11, 76, 80
2, 301200, Note_on_c, 11, 73, 95
2, 301680, Note_off_c, 11, 73, 80
2, 301680, Note_on_c, 11, 71, 95
2, 301920, Note_off_c, 11, 71, 80
2, 301920, Note_on_c, 11, 68, 95
2, 302160, Note_off_c, 11, 68, 80
2, 302160, Note_on_c, 11, 66, 95
2, 302640, Note_off_c, 11, 66, 80
2, 302640, Note_on_c, 11, 64, 95
2, 302880, Note_off_c, 11, 64, 80
2, 302880, Note_on_c, 11, 63, 95
2, 303120, Note_off_c, 11, 63, 80
2, 303120, Note_on_c, 11, 64, 95
2, 303600, Note_off_c, 11, 64, 80
2, 305520, Note_on_c, 11, 71, 95
2, 305760, Note_off_c, 11, 71, 80
2, 305760, Note_on_c, 11, 69, 95
2, 306000, Note_off_c, 11, 69, 80
2, 306000, Note_on_c, 11, 68, 95
2, 306480, Note_off_c, 11, 68, 80
2, 306480, Note_on_c, 11, 66, 95
2, 306960, Note_off_c, 11, 66, 80
2, 306960, Note_on_c, 11, 71, 95
2, 307440, Note_off_c, 11, 71, 80
2, 307440, Note_on_c, 11, 73, 95
2, 307680, Note_off_c, 11, 73, 80
2, 307680, Note_on_c, 11, 75, 95
2, 307920, Note_off_c, 11, 75, 80
2, 307920, Note_on_c, 11, 76, 95
2, 308160, Note_off_c, 11, 76, 80
2, 308400, Note_on_c, 11, 61, 95
2, 308640, Note_off_c, 11, 61, 80
2, 308640, Note_on_c, 11, 63, 95
2, 308880, Note_off_c, 11, 63, 80
2, 308880, Note_on_c, 11, 64, 95
2, 309360, Note_off_c, 11, 64, 80
2, 310320, Note_on_c, 11, 64, 95
2, 310560, Note_off_c, 11, 64, 80
2, 310560, Note_on_c, 11, 66, 95
2, 310800, Note_off_c, 11, 66, 80
2, 310800, Note_on_c, 11, 68, 95
2, 311280, Note_off_c, 11, 68, 80
2, 311280, Note_on_c, 11, 69, 95
2, 311520, Note_off_c, 11, 69, 80
2, 311520, Note_on_c, 11, 68, 95
2, 311760, Note_off_c, 11, 68, 80
2, 311760, Note_on_c, 11, 66, 95
2, 312240, Note_off_c, 11, 66, 80
2, 312240, Note_on_c, 11, 73, 95
2, 312480, Note_off_c, 11, 73, 80
2, 312480, Note_on_c, 11, 75, 95
2, 312720, Note_off_c, 11, 75, 80
2, 312720, Note_on_c, 11, 76, 95
2, 313200, Note_off_c, 11, 76, 80
2, 314160, Note_on_c, 11, 73, 95
2, 314400, Note_off_c, 11, 73, 80
2, 314400, Note_on_c, 11, 75, 95
2, 314640, Note_off_c, 11, 75, 80
2, 314640, Note_on_c, 11, 76, 95
2, 315120, Note_off_c, 11, 76, 80
2, 315120, Note_on_c, 11, 78, 95
2, 315360, Note_off_c, 11, 78, 80
2, 315360, Note_on_c, 11, 76, 95
2, 315600, Note_off_c, 11, 76, 80
2, 315600, Note_on_c, 11, 75, 95
2, 316080, Note_off_c, 11, 75, 80
2, 316080, Note_on_c, 11, 71, 95
2, 316320, Note_off_c, 11, 71, 80
2, 316320, Note_on_c, 11, 73, 79
2, 316440, Note_off_c, 11, 73, 80
2, 316440, Note_on_c, 11, 76, 95
2, 316560, Note_off_c, 11, 76, 80
2, 316560, Note_on_c, 11, 73, 95
2, 317040, Note_off_c, 11, 73, 80
2, 317040, Note_on_c, 11, 71, 95
2, 317280, Note_off_c, 11, 71, 80
2, 317280, Note_on_c, 11, 68, 95
2, 317520, Note_off_c, 11, 68, 80
2, 317520, Note_on_c, 11, 66, 95
2, 318000, Note_off_c, 11, 66, 80
2, 318000, Note_on_c, 11, 64, 95
2, 318240, Note_off_c, 11, 64, 80
2, 318240, Note_on_c, 11, 63, 95
2, 318480, Note_off_c, 11, 63, 80
2, 318480, Note_on_c, 11, 64, 95
2, 318960, Note_off_c, 11, 64, 80
2, 320880, Note_on_c, 11, 71, 95
2, 321120, Note_off_c, 11, 71, 80
2, 321120, Note_on_c, 11, 69, 95
2, 321360, Note_off_c, 11, 69, 80
2, 321360, Note_on_c, 11, 68, 95
2, 321840, Note_off_c, 11, 68, 80
2, 321840, Note_on_c, 11, 66, 95
2, 322320, Note_off_c, 11, 66, 80
2, 322320, Note_on_c, 11, 71, 95
2, 322800, Note_off_c, 11, 71, 80
2, 322800, Note_on_c, 11, 73, 95
2, 323040, Note_off_c, 11, 73, 80
2, 323040, Note_on_c, 11, 75, 95
2, 323280, Note_off_c, 11, 75, 80
2, 323280, Note_on_c, 11, 76, 95
2, 323520, Note_off_c, 11, 76, 80
2, 323760, Note_on_c, 11, 61, 95
2, 324000, Note_off_c, 11, 61, 80
2, 324000, Note_on_c, 11, 63, 95
2, 324240, Note_off_c, 11, 63, 80
2, 324240, Note_on_c, 11, 64, 95
2, 324720, Note_off_c, 11, 64, 80
2, 325680, Note_on_c, 11, 64, 95
2, 325920, Note_off_c, 11, 64, 80
2, 325920, Note_on_c, 11, 66, 95
2, 326160, Note_off_c, 11, 66, 80
2, 326160, Note_on_c, 11, 68, 95
2, 326640, Note_off_c, 11, 68, 80
2, 326640, Note_on_c, 11, 69, 95
2, 326880, Note_off_c, 11, 69, 80
2, 326880, Note_on_c, 11, 68, 95
2, 327120, Note_off_c, 11, 68, 80
2, 327120, Note_on_c, 11, 66, 95
2, 327600, Note_off_c, 11, 66, 80
2, 327600, Note_on_c, 11, 64, 95
2, 327840, Note_off_c, 11, 64, 80
2, 327840, Note_on_c, 11, 63, 95
2, 328080, Note_off_c, 11, 63, 80
2, 328080, Note_on_c, 11, 61, 95
2, 328320, Note_off_c, 11, 61, 80
2, 341520, Note_on_c, 12, 66, 63
2, 341520, Pitch_bend_c, 12, 8192
2, 341536, Pitch_bend_c, 12, 8448
2, 341552, Pitch_bend_c, 12, 8704
2, 341568, Pitch_bend_c, 12, 8960
2, 341584, Pitch_bend_c, 12, 9216
2, 341600, Pitch_bend_c, 12, 9472
2, 341616, Pitch_bend_c, 12, 9728
2, 341632, Pitch_bend_c, 12, 9984
2, 341648, Pitch_bend_c, 12, 10240
2, 342000, Note_off_c, 12, 66, 80
2, 342000, Pitch_bend_c, 12, 8192
2, 342000, Note_on_c, 11, 69, 63
2, 342240, Note_off_c, 11, 69, 80
2, 342240, Note_on_c, 11, 68, 63
2, 342480, Note_off_c, 11, 68, 80
2, 342480, Note_on_c, 11, 66, 63
2, 342960, Note_off_c, 11, 66, 80
2, 342960, Note_on_c, 11, 64, 63
2, 343200, Note_off_c, 11, 64, 80
2, 343200, Note_on_c, 11, 63, 63
2, 343440, Note_off_c, 11, 63, 80
2, 343440, Note_on_c, 11, 61, 63
2, 345600, Note_off_c, 11, 61, 80
2, 345600, End_track
3, 0, Start_track
3, 0, Title_t, "Guitarra"
3, 0, Control_c, 4, 100, 0
3, 0, Control_c, 4, 101, 0
3, 0, Control_c, 4, 6, 8
3, 0, Pitch_bend_c, 4, 8192
3, 0, Control_c, 5, 100, 0
3, 0, Control_c, 5, 101, 0
3, 0, Control_c, 5, 6, 8
3, 0, Pitch_bend_c, 5, 8192
3, 0, Program_c, 4, 25
3, 0, Program_c, 5, 25
3, 0, Control_c, 4, 7, 104
3, 0, Control_c, 5, 7, 104
3, 0, Control_c, 4, 10, 40
3, 0, Control_c, 5, 10, 40
3, 0, Control_c, 4, 93, 0
3, 0, Control_c, 5, 93, 0
3, 0, Control_c, 4, 91, 0
3, 0, Control_c, 5, 91, 0
3, 0, Control_c, 4, 92, 0
3, 0, Control_c, 5, 92, 0
3, 0, Control_c, 4, 95, 0
3, 0, Control_c, 5, 95, 0
3, 15120, Note_on_c, 4, 45, 63
3, 15360, Note_off_c, 4, 45, 80
3, 15360, Note_on_c, 4, 47, 95
3, 15600, Note_off_c, 4, 47, 80
3, 15600, Note_on_c, 4, 54, 95
3, 16560, Note_off_c, 4, 54, 80
3, 17280, Note_on_c, 4, 54, 95
3, 18000, Note_off_c, 4, 54, 80
3, 18000, Note_on_c, 4, 52, 95
3, 18960, Note_off_c, 4, 52, 80
3, 18960, Note_on_c, 4, 50, 95
3, 20640, Note_off_c, 4, 50, 80
3, 20880, Note_on_c, 4, 68, 79
3, 21000, Note_off_c, 4, 68, 80
3, 21000, Note_on_c, 4, 69, 95
3, 21120, Note_off_c, 4, 69, 80
3, 21120, Note_on_c, 4, 71, 79
3, 21480, Note_off_c, 4, 71, 80
3, 21480, Note_on_c, 4, 76, 79
3, 21840, Note_off_c, 4, 76, 80
3, 21840, Note_on_c, 4, 64, 79
3, 22080, Note_off_c, 4, 64, 80
3, 22080, Note_on_c, 4, 69, 79
3, 22440, Note_off_c, 4, 69, 80
3, 22440, Note_on_c, 4, 59, 63
3, 22800, Note_off_c, 4, 59, 80
3, 22800, Note_on_c, 4, 62, 63
3, 23040, Note_off_c, 4, 62, 80
3, 23040, Note_on_c, 4, 61, 63
3, 24960, Note_off_c, 4, 61, 80
3, 28800, Note_on_c, 4, 64, 63
3, 28800, Note_on_c, 4, 59, 63
3, 28800, Note_on_c, 4, 57, 63
3, 36480, Note_off_c, 4, 64, 80
3, 36480, Note_off_c, 4, 59, 80
3, 36480, Note_off_c, 4, 57, 80
3, 52080, Note_on_c, 4, 68, 63
3, 52320, Note_off_c, 4, 68, 80
3, 52320, Note_on_c, 4, 71, 79
3, 52560, Note_off_c, 4, 71, 80
3, 52560, Note_on_c, 4, 66, 63
3, 53040, Note_off_c, 4, 66, 80
3, 53040, Note_on_c, 4, 71, 63
3, 53520, Note_off_c, 4, 71, 80
3, 53520, Note_on_c, 4, 68, 63
3, 54000, Note_off_c, 4, 68, 80
3, 55920, Note_on_c, 4, 68, 63
3, 56160, Note_off_c, 4, 68, 80
3, 56160, Note_on_c, 4, 71, 79
3, 56400, Note_off_c, 4, 71, 80
3, 56400, Note_on_c, 4, 66, 63
3, 56880, Note_off_c, 4, 66, 80
3, 56880, Note_on_c, 4, 71, 63
3, 57360, Note_off_c, 4, 71, 80
3, 57360, Note_on_c, 4, 68, 63
3, 57840, Note_off_c, 4, 68, 80
3, 59760, Note_on_c, 4, 68, 63
3, 60000, Note_off_c, 4, 68, 80
3, 60000, Note_on_c, 4, 71, 79
3, 60240, Note_off_c, 4, 71, 80
3, 60240, Note_on_c, 4, 66, 63
3, 60720, Note_off_c, 4, 66, 80
3, 60720, Note_on_c, 4, 71, 63
3, 61200, Note_off_c, 4, 71, 80
3, 61200, Note_on_c, 4, 68, 63
3, 61680, Note_off_c, 4, 68, 80
3, 63600, Note_on_c, 4, 68, 63
3, 63840, Note_off_c, 4, 68, 80
3, 63840, Note_on_c, 4, 71, 79
3, 64080, Note_off_c, 4, 71, 80
3, 64080, Note_on_c, 4, 66, 63
3, 64560, Note_off_c, 4, 66, 80
3, 64560, Note_on_c, 4, 71, 63
3, 65040, Note_off_c, 4, 71, 80
3, 65040, Note_on_c, 4, 68, 63
3, 65520, Note_off_c, 4, 68, 80
3, 66480, Note_on_c, 4, 71, 95
3, 66720, Note_off_c, 4, 71, 80
3, 66720, Note_on_c, 4, 69, 95
3, 66960, Note_off_c, 4, 69, 80
3, 66960, Note_on_c, 4, 68, 95
3, 67200, Note_off_c, 4, 68, 80
3, 67200, Note_on_c, 4, 66, 95
3, 67440, Note_off_c, 4, 66, 80
3, 67440, Note_on_c, 4, 68, 95
3, 68400, Note_off_c, 4, 68, 80
3, 68400, Note_on_c, 4, 63, 95
3, 68640, Note_off_c, 4, 63, 80
3, 68640, Note_on_c, 4, 59, 95
3, 68880, Note_off_c, 4, 59, 80
3, 68880, Note_on_c, 4, 61, 95
3, 70080, Note_off_c, 4, 61, 80
3, 70320, Note_on_c, 4, 63, 95
3, 70560, Note_off_c, 4, 63, 80
3, 70560, Note_on_c, 4, 64, 95
3, 70800, Note_off_c, 4, 64, 80
3, 70800, Note_on_c, 4, 66, 95
3, 71280, Note_off_c, 4, 66, 80
3, 71280, Note_on_c, 4, 68, 95
3, 71520, Note_off_c, 4, 68, 80
3, 71760, Note_on_c, 4, 56, 95
3, 72240, Note_off_c, 4, 56, 80
3, 72240, Note_on_c, 5, 62, 95
3, 72240, Pitch_bend_c, 5, 8192
3, 72336, Pitch_bend_c, 5, 8832
3, 72352, Pitch_bend_c, 5, 9728
3, 72368, Pitch_bend_c, 5, 10240
3, 72480, Note_off_c, 5, 62, 80
3, 72480, Pitch_bend_c, 5, 8192
3, 72480, Note_on_c, 4, 63, 95
3, 72720, Note_off_c, 4, 63, 80
3, 72720, Note_on_c, 4, 61, 95
3, 72960, Note_off_c, 4, 61, 80
3, 72960, Note_on_c, 4, 59, 95
3, 73200, Note_off_c, 4, 59, 80
3, 73200, Note_on_c, 4, 61, 79
3, 73680, Note_off_c, 4, 61, 80
3, 75360, Note_on_c, 4, 73, 95
3, 75600, Note_off_c, 4, 73, 80
3, 75600, Note_on_c, 4, 71, 95
3, 75840, Note_off_c, 4, 71, 80
3, 76080, Note_on_c, 4, 69, 95
3, 76320, Note_off_c, 4, 69, 80
3, 76560, Note_on_c, 4, 68, 95
3, 77280, Note_off_c, 4, 68, 80
3, 77280, Note_on_c, 4, 66, 95
3, 77520, Note_off_c, 4, 66, 80
3, 77520, Note_on_c, 4, 71, 95
3, 77760, Note_off_c, 4, 71, 80
3, 78000, Note_on_c, 4, 69, 95
3, 78240, Note_off_c, 4, 69, 80
3, 78480, Note_on_c, 4, 68, 95
3, 78720, Note_off_c, 4, 68, 80
3, 78720, Note_on_c, 4, 66, 95
3, 78960, Note_off_c, 4, 66, 80
3, 78960, Note_on_c, 4, 68, 95
3, 79680, Note_off_c, 4, 68, 80
3, 79920, Note_on_c, 4, 63, 95
3, 80160, Note_off_c, 4, 63, 80
3, 80160, Note_on_c, 4, 59, 95
3, 80400, Note_off_c, 4, 59, 80
3, 80400, Note_on_c, 4, 61, 95
3, 80880, Note_off_c, 4, 61, 80
3, 80880, Note_on_c, 4, 63, 95
3, 81360, Note_off_c, 4, 63, 80
3, 81360, Note_on_c, 4, 64, 95
3, 81840, Note_off_c, 4, 64, 80
3, 81840, Note_on_c, 5, 64, 95
3, 81840, Pitch_bend_c, 5, 8192
3, 81856, Pitch_bend_c, 5, 8448
3, 81872, Pitch_bend_c, 5, 8704
3, 81888, Pitch_bend_c, 5, 8960
3, 81904, Pitch_bend_c, 5, 9216
3, 81920, Pitch_bend_c, 5, 9600
3, 81936, Pitch_bend_c, 5, 9856
3, 81952, Pitch_bend_c, 5, 10112
3, 81968, Pitch_bend_c, 5, 10240
3, 82080, Note_off_c, 5, 64, 80
3, 82080, Pitch_bend_c, 5, 8192
3, 82080, Note_on_c, 4, 68, 95
3, 82320, Note_off_c, 4, 68, 80
3, 82320, Note_on_c, 4, 68, 95
3, 84480, Note_off_c, 4, 68, 80
3, 97680, Note_on_c, 4, 68, 95
3, 97680, Note_on_c, 4, 64, 95
3, 97680, Note_on_c, 4, 61, 95
3, 97680, Note_on_c, 4, 57, 95
3, 98280, Note_off_c, 4, 68, 80
3, 98280, Note_off_c, 4, 64, 80
3, 98280, Note_off_c, 4, 61, 80
3, 98280, Note_off_c, 4, 57, 80
3, 98640, Note_on_c, 4, 66, 95
3, 98640, Note_on_c, 4, 63, 95
3, 98640, Note_on_c, 4, 59, 95
3, 99600, Note_off_c, 4, 66, 80
3, 99600, Note_off_c, 4, 63, 80
3, 99600, Note_off_c, 4, 59, 80
3, 99600, Note_on_c, 4, 68, 95
3, 99600, Note_on_c, 4, 64, 95
3, 99600, Note_on_c, 4, 61, 95
3, 100560, Note_off_c, 4, 68, 80
3, 100560, Note_off_c, 4, 64, 80
3, 100560, Note_off_c, 4, 61, 80
3, 100560, Note_on_c, 4, 66, 95
3, 100560, Note_on_c, 4, 63, 95
3, 100560, Note_on_c, 4, 59, 95
3, 101520, Note_off_c, 4, 66, 80
3, 101520, Note_off_c, 4, 63, 80
3, 101520, Note_off_c, 4, 59, 80
3, 101520, Note_on_c, 4, 68, 95
3, 101520, Note_on_c, 4, 64, 95
3, 101520, Note_on_c, 4, 57, 95
3, 102480, Note_off_c, 4, 68, 80
3, 102480, Note_off_c, 4, 64, 80
3, 102480, Note_off_c, 4, 57, 80
3, 102480, Note_on_c, 4, 66, 95
3, 102480, Note_on_c, 4, 63, 95
3, 102480, Note_on_c, 4, 59, 95
3, 103440, Note_off_c, 4, 66, 80
3, 103440, Note_off_c, 4, 63, 80
3, 103440, Note_off_c, 4, 59, 80
3, 103440, Note_on_c, 4, 61, 95
3, 103440, Note_on_c, 4, 56, 95
3, 103920, Note_off_c, 4, 61, 80
3, 103920, Note_off_c, 4, 56, 80
3, 103920, Note_on_c, 4, 68, 95
3, 103920, Note_on_c, 4, 64, 95
3, 103920, Note_on_c, 4, 61, 95
3, 104400, Note_off_c, 4, 68, 80
3, 104400, Note_off_c, 4, 64, 80
3, 104400, Note_off_c, 4, 61, 80
3, 104400, Note_on_c, 4, 66, 95
3, 104400, Note_on_c, 4, 63, 95
3, 104400, Note_on_c, 4, 59, 95
3, 104880, Note_off_c, 4, 66, 80
3, 104880, Note_on_c, 4, 71, 95
3, 105360, Note_off_c, 4, 63, 80
3, 105360, Note_off_c, 4, 59, 80
3, 105360, Note_off_c, 4, 71, 80
3, 105360, Note_on_c, 4, 68, 95
3, 105360, Note_on_c, 4, 64, 95
3, 105360, Note_on_c, 4, 61, 95
3, 105360, Note_on_c, 4, 57, 95
3, 106320, Note_off_c, 4, 68, 80
3, 106320, Note_off_c, 4, 64, 80
3, 106320, Note_off_c, 4, 61, 80
3, 106320, Note_off_c, 4, 57, 80
3, 106320, Note_on_c, 4, 66, 95
3, 106320, Note_on_c, 4, 63, 95
3, 106320, Note_on_c, 4, 59, 95
3, 107280, Note_off_c, 4, 66, 80
3, 107280, Note_off_c, 4, 63, 80
3, 107280, Note_off_c, 4, 59, 80
3, 107280, Note_on_c, 4, 66, 95
3, 107280, Note_on_c, 4, 63, 95
3, 107280, Note_on_c, 4, 59, 95
3, 108240, Note_off_c, 4, 66, 80
3, 108240, Note_off_c, 4, 63, 80
3, 108240, Note_off_c, 4, 59, 80
3, 108240, Note_on_c, 4, 68, 95
3, 108240, Note_on_c, 4, 64, 95
3, 108240, Note_on_c, 4, 61, 95
3, 108240, Note_on_c, 4, 57, 95
3, 109200, Note_off_c, 4, 68, 80
3, 109200, Note_off_c, 4, 64, 80
3, 109200, Note_off_c, 4, 61, 80
3, 109200, Note_off_c, 4, 57, 80
3, 109200, Note_on_c, 4, 68, 95
3, 109200, Note_on_c, 4, 64, 95
3, 109200, Note_on_c, 4, 61, 95
3, 110640, Note_off_c, 4, 68, 80
3, 110640, Note_off_c, 4, 64, 80
3, 110640, Note_off_c, 4, 61, 80
3, 110640, Note_on_c, 4, 64, 95
3, 110880, Note_off_c, 4, 64, 80
3, 110880, Note_on_c, 4, 66, 95
3, 111120, Note_off_c, 4, 66, 80
3, 111120, Note_on_c, 4, 68, 95
3, 111120, Note_on_c, 4, 64, 95
3, 111120, Note_on_c, 4, 61, 95
3, 111600, Note_off_c, 4, 68, 80
3, 111600, Note_on_c, 4, 69, 95
3, 111840, Note_off_c, 4, 69, 80
3, 111840, Note_on_c, 4, 68, 95
3, 112080, Note_off_c, 4, 64, 80
3, 112080, Note_off_c, 4, 61, 80
3, 112080, Note_off_c, 4, 68, 80
3, 112080, Note_on_c, 4, 66, 95
3, 112080, Note_on_c, 4, 59, 95
3, 112560, Note_off_c, 4, 66, 80
3, 112560, Note_off_c, 4, 59, 80
3, 112560, Note_on_c, 4, 64, 95
3, 112800, Note_off_c, 4, 64, 80
3, 112800, Note_on_c, 4, 63, 95
3, 113040, Note_off_c, 4, 63, 80
3, 113040, Note_on_c, 4, 64, 95
3, 113040, Note_on_c, 4, 61, 95
3, 113280, Note_off_c, 4, 64, 80
3, 113280, Note_off_c, 4, 61, 80
3, 113520, Note_on_c, 4, 68, 63
3, 113760, Note_off_c, 4, 68, 80
3, 113760, Note_on_c, 4, 71, 79
3, 114000, Note_off_c, 4, 71, 80
3, 114000, Note_on_c, 4, 66, 63
3, 114480, Note_off_c, 4, 66, 80
3, 114480, Note_on_c, 4, 71, 63
3, 114960, Note_off_c, 4, 71, 80
3, 114960, Note_on_c, 4, 68, 63
3, 115440, Note_off_c, 4, 68, 80
3, 117360, Note_on_c, 4, 68, 63
3, 117600, Note_off_c, 4, 68, 80
3, 117600, Note_on_c, 4, 71, 79
3, 117840, Note_off_c, 4, 71, 80
3, 117840, Note_on_c, 4, 66, 63
3, 118320, Note_off_c, 4, 66, 80
3, 118320, Note_on_c, 4, 71, 63
3, 118800, Note_off_c, 4, 71, 80
3, 118800, Note_on_c, 4, 68, 63
3, 119280, Note_off_c, 4, 68, 80
3, 121200, Note_on_c, 4, 68, 63
3, 121440, Note_off_c, 4, 68, 80
3, 121440, Note_on_c, 4, 71, 79
3, 121680, Note_off_c, 4, 71, 80
3, 121680, Note_on_c, 4, 66, 63
3, 122160, Note_off_c, 4, 66, 80
3, 122160, Note_on_c, 4, 71, 63
3, 122640, Note_off_c, 4, 71, 80
3, 122640, Note_on_c, 4, 68, 63
3, 123120, Note_off_c, 4, 68, 80
3, 125040, Note_on_c, 4, 68, 63
3, 125280, Note_off_c, 4, 68, 80
3, 125280, Note_on_c, 4, 71, 79
3, 125520, Note_off_c, 4, 71, 80
3, 125520, Note_on_c, 4, 66, 63
3, 126000, Note_off_c, 4, 66, 80
3, 126000, Note_on_c, 4, 71, 63
3, 126480, Note_off_c, 4, 71, 80
3, 126480, Note_on_c, 4, 68, 63
3, 126960, Note_off_c, 4, 68, 80
3, 128880, Note_on_c, 4, 68, 63
3, 129120, Note_off_c, 4, 68, 80
3, 129120, Note_on_c, 4, 71, 79
3, 129360, Note_off_c, 4, 71, 80
3, 129360, Note_on_c, 4, 66, 63
3, 129840, Note_off_c, 4, 66, 80
3, 129840, Note_on_c, 4, 71, 63
3, 130320, Note_off_c, 4, 71, 80
3, 130320, Note_on_c, 4, 68, 63
3, 130800, Note_off_c, 4, 68, 80
3, 132720, Note_on_c, 4, 68, 63
3, 132960, Note_off_c, 4, 68, 80
3, 132960, Note_on_c, 4, 71, 79
3, 133200, Note_off_c, 4, 71, 80
3, 133200, Note_on_c, 4, 66, 63
3, 133680, Note_off_c, 4, 66, 80
3, 133680, Note_on_c, 4, 71, 63
3, 134160, Note_off_c, 4, 71, 80
3, 134160, Note_on_c, 4, 68, 63
3, 134640, Note_off_c, 4, 68, 80
3, 136560, Note_on_c, 4, 68, 63
3, 136800, Note_off_c, 4, 68, 80
3, 136800, Note_on_c, 4, 71, 79
3, 137040, Note_off_c, 4, 71, 80
3, 137040, Note_on_c, 4, 66, 63
3, 137520, Note_off_c, 4, 66, 80
3, 137520, Note_on_c, 4, 71, 63
3, 138000, Note_off_c, 4, 71, 80
3, 138000, Note_on_c, 4, 68, 63
3, 138480, Note_off_c, 4, 68, 80
3, 140400, Note_on_c, 4, 68, 63
3, 140640, Note_off_c, 4, 68, 80
3, 140640, Note_on_c, 4, 71, 79
3, 140880, Note_off_c, 4, 71, 80
3, 140880, Note_on_c, 4, 66, 63
3, 141360, Note_off_c, 4, 66, 80
3, 141360, Note_on_c, 4, 71, 63
3, 141840, Note_off_c, 4, 71, 80
3, 141840, Note_on_c, 4, 68, 63
3, 142320, Note_off_c, 4, 68, 80
3, 159120, Note_on_c, 4, 68, 95
3, 159120, Note_on_c, 4, 64, 95
3, 159120, Note_on_c, 4, 61, 95
3, 159120, Note_on_c, 4, 57, 95
3, 159720, Note_off_c, 4, 68, 80
3, 159720, Note_off_c, 4, 64, 80
3, 159720, Note_off_c, 4, 61, 80
3, 159720, Note_off_c, 4, 57, 80
3, 160080, Note_on_c, 4, 66, 95
3, 160080, Note_on_c, 4, 63, 95
3, 160080, Note_on_c, 4, 59, 95
3, 161040, Note_off_c, 4, 66, 80
3, 161040, Note_off_c, 4, 63, 80
3, 161040, Note_off_c, 4, 59, 80
3, 161040, Note_on_c, 4, 68, 95
3, 161040, Note_on_c, 4, 64, 95
3, 161040, Note_on_c, 4, 61, 95
3, 162000, Note_off_c, 4, 68, 80
3, 162000, Note_off_c, 4, 64, 80
3, 162000, Note_off_c, 4, 61, 80
3, 162000, Note_on_c, 4, 66, 95
3, 162000, Note_on_c, 4, 63, 95
3, 162000, Note_on_c, 4, 59, 95
3, 162960, Note_off_c, 4, 66, 80
3, 162960, Note_off_c, 4, 63, 80
3, 162960, Note_off_c, 4, 59, 80
3, 162960, Note_on_c, 4, 68, 95
3, 162960, Note_on_c, 4, 64, 95
3, 162960, Note_on_c, 4, 57, 95
3, 163920, Note_off_c, 4, 68, 80
3, 163920, Note_off_c, 4, 64, 80
3, 163920, Note_off_c, 4, 57, 80
3, 163920, Note_on_c, 4, 66, 95
3, 163920, Note_on_c, 4, 63, 95
3, 163920, Note_on_c, 4, 59, 95
3, 164880, Note_off_c, 4, 66, 80
3, 164880, Note_off_c, 4, 63, 80
3, 164880, Note_off_c, 4, 59, 80
3, 164880, Note_on_c, 4, 61, 95
3, 164880, Note_on_c, 4, 56, 95
3, 165360, Note_off_c, 4, 61, 80
3, 165360, Note_off_c, 4, 56, 80
3, 165360, Note_on_c, 4, 68, 95
3, 165360, Note_on_c, 4, 64, 95
3, 165360, Note_on_c, 4, 61, 95
3, 165840, Note_off_c, 4, 68, 80
3, 165840, Note_off_c, 4, 64, 80
3, 165840, Note_off_c, 4, 61, 80
3, 165840, Note_on_c, 4, 66, 95
3, 165840, Note_on_c, 4, 63, 95
3, 165840, Note_on_c, 4, 59, 95
3, 166320, Note_off_c, 4, 66, 80
3, 166320, Note_on_c, 4, 71, 95
3, 166800, Note_off_c, 4, 63, 80
3, 166800, Note_off_c, 4, 59, 80
3, 166800, Note_off_c, 4, 71, 80
3, 166800, Note_on_c, 4, 68, 95
3, 166800, Note_on_c, 4, 64, 95
3, 166800, Note_on_c, 4, 61, 95
3, 166800, Note_on_c, 4, 57, 95
3, 167760, Note_off_c, 4, 68, 80
3, 167760, Note_off_c, 4, 64, 80
3, 167760, Note_off_c, 4, 61, 80
3, 167760, Note_off_c, 4, 57, 80
3, 167760, Note_on_c, 4, 66, 95
3, 167760, Note_on_c, 4, 63, 95
3, 167760, Note_on_c, 4, 59, 95
3, 168720, Note_off_c, 4, 66, 80
3, 168720, Note_off_c, 4, 63, 80
3, 168720, Note_off_c, 4, 59, 80
3, 168720, Note_on_c, 4, 66, 95
3, 168720, Note_on_c, 4, 63, 95
3, 168720, Note_on_c, 4, 59, 95
3, 169680, Note_off_c, 4, 66, 80
3, 169680, Note_off_c, 4, 63, 80
3, 169680, Note_off_c, 4, 59, 80
3, 169680, Note_on_c, 4, 68, 95
3, 169680, Note_on_c, 4, 64, 95
3, 169680, Note_on_c, 4, 61, 95
3, 169680, Note_on_c, 4, 57, 95
3, 170640, Note_off_c, 4, 68, 80
3, 170640, Note_off_c, 4, 64, 80
3, 170640, Note_off_c, 4, 61, 80
3, 170640, Note_off_c, 4, 57, 80
3, 170640, Note_on_c, 4, 68, 95
3, 170640, Note_on_c, 4, 64, 95
3, 170640, Note_on_c, 4, 61, 95
3, 172080, Note_off_c, 4, 68, 80
3, 172080, Note_off_c, 4, 64, 80
3, 172080, Note_off_c, 4, 61, 80
3, 172080, Note_on_c, 4, 64, 95
3, 172320, Note_off_c, 4, 64, 80
3, 172320, Note_on_c, 4, 66, 95
3, 172560, Note_off_c, 4, 66, 80
3, 172560, Note_on_c, 4, 68, 95
3, 172560, Note_on_c, 4, 64, 95
3, 172560, Note_on_c, 4, 61, 95
3, 173040, Note_off_c, 4, 68, 80
3, 173040, Note_on_c, 4, 69, 95
3, 173280, Note_off_c, 4, 69, 80
3, 173280, Note_on_c, 4, 68, 95
3, 173520, Note_off_c, 4, 64, 80
3, 173520, Note_off_c, 4, 61, 80
3, 173520, Note_off_c, 4, 68, 80
3, 173520, Note_on_c, 4, 66, 95
3, 173520, Note_on_c, 4, 59, 95
3, 174000, Note_off_c, 4, 66, 80
3, 174000, Note_off_c, 4, 59, 80
3, 220560, Note_on_c, 4, 68, 95
3, 220560, Note_on_c, 4, 64, 95
3, 220560, Note_on_c, 4, 61, 95
3, 220560, Note_on_c, 4, 57, 95
3, 221160, Note_off_c, 4, 68, 80
3, 221160, Note_off_c, 4, 64, 80
3, 221160, Note_off_c, 4, 61, 80
3, 221160, Note_off_c, 4, 57, 80
3, 221520, Note_on_c, 4, 66, 95
3, 221520, Note_on_c, 4, 63, 95
3, 221520, Note_on_c, 4, 59, 95
3, 222480, Note_off_c, 4, 66, 80
3, 222480, Note_off_c, 4, 63, 80
3, 222480, Note_off_c, 4, 59, 80
3, 222480, Note_on_c, 4, 68, 95
3, 222480, Note_on_c, 4, 64, 95
3, 222480, Note_on_c, 4, 61, 95
3, 223440, Note_off_c, 4, 68, 80
3, 223440, Note_off_c, 4, 64, 80
3, 223440, Note_off_c, 4, 61, 80
3, 223440, Note_on_c, 4, 66, 95
3, 223440, Note_on_c, 4, 63, 95
3, 223440, Note_on_c, 4, 59, 95
3, 224400, Note_off_c, 4, 66, 80
3, 224400, Note_off_c, 4, 63, 80
3, 224400, Note_off_c, 4, 59, 80
3, 224400, Note_on_c, 4, 68, 95
3, 224400, Note_on_c, 4, 64, 95
3, 224400, Note_on_c, 4, 57, 95
3, 225360, Note_off_c, 4, 68, 80
3, 225360, Note_off_c, 4, 64, 80
3, 225360, Note_off_c, 4, 57, 80
3, 225360, Note_on_c, 4, 66, 95
3, 225360, Note_on_c, 4, 63, 95
3, 225360, Note_on_c, 4, 59, 95
3, 226320, Note_off_c, 4, 66, 80
3, 226320, Note_off_c, 4, 63, 80
3, 226320, Note_off_c, 4, 59, 80
3, 226320, Note_on_c, 4, 61, 95
3, 226320, Note_on_c, 4, 56, 95
3, 226800, Note_off_c, 4, 61, 80
3, 226800, Note_off_c, 4, 56, 80
3, 226800, Note_on_c, 4, 68, 95
3, 226800, Note_on_c, 4, 64, 95
3, 226800, Note_on_c, 4, 61, 95
3, 227280, Note_off_c, 4, 68, 80
3, 227280, Note_off_c, 4, 64, 80
3, 227280, Note_off_c, 4, 61, 80
3, 227280, Note_on_c, 4, 66, 95
3, 227280, Note_on_c, 4, 63, 95
3, 227280, Note_on_c, 4, 59, 95
3, 227760, Note_off_c, 4, 66, 80
3, 227760, Note_on_c, 4, 71, 95
3, 228240, Note_off_c, 4, 63, 80
3, 228240, Note_off_c, 4, 59, 80
3, 228240, Note_off_c, 4, 71, 80
3, 228240, Note_on_c, 4, 68, 95
3, 228240, Note_on_c, 4, 64, 95
3, 228240, Note_on_c, 4, 61, 95
3, 228240, Note_on_c, 4, 57, 95
3, 229200, Note_off_c, 4, 68, 80
3, 229200, Note_off_c, 4, 64, 80
3, 229200, Note_off_c, 4, 61, 80
3, 229200, Note_off_c, 4, 57, 80
3, 229200, Note_on_c, 4, 66, 95
3, 229200, Note_on_c, 4, 63, 95
3, 229200, Note_on_c, 4, 59, 95
3, 230160, Note_off_c, 4, 66, 80
3, 230160, Note_off_c, 4, 63, 80
3, 230160, Note_off_c, 4, 59, 80
3, 230160, Note_on_c, 4, 66, 95
3, 230160, Note_on_c, 4, 63, 95
3, 230160, Note_on_c, 4, 59, 95
3, 231120, Note_off_c, 4, 66, 80
3, 231120, Note_off_c, 4, 63, 80
3, 231120, Note_off_c, 4, 59, 80
3, 231120, Note_on_c, 4, 68, 95
3, 231120, Note_on_c, 4, 64, 95
3, 231120, Note_on_c, 4, 61, 95
3, 231120, Note_on_c, 4, 57, 95
3, 232080, Note_off_c, 4, 68, 80
3, 232080, Note_off_c, 4, 64, 80
3, 232080, Note_off_c, 4, 61, 80
3, 232080, Note_off_c, 4, 57, 80
3, 232080, Note_on_c, 4, 68, 95
3, 232080, Note_on_c, 4, 64, 95
3, 232080, Note_on_c, 4, 61, 95
3, 233520, Note_off_c, 4, 68, 80
3, 233520, Note_off_c, 4, 64, 80
3, 233520, Note_off_c, 4, 61, 80
3, 233520, Note_on_c, 4, 64, 95
3, 233760, Note_off_c, 4, 64, 80
3, 233760, Note_on_c, 4, 66, 95
3, 234000, Note_off_c, 4, 66, 80
3, 234000, Note_on_c, 4, 68, 95
3, 234000, Note_on_c, 4, 64, 95
3, 234000, Note_on_c, 4, 61, 95
3, 234480, Note_off_c, 4, 68, 80
3, 234480, Note_on_c, 4, 69, 95
3, 234720, Note_off_c, 4, 69, 80
3, 234720, Note_on_c, 4, 68, 95
3, 234960, Note_off_c, 4, 64, 80
3, 234960, Note_off_c, 4, 61, 80
3, 234960, Note_off_c, 4, 68, 80
3, 234960, Note_on_c, 4, 66, 95
3, 234960, Note_on_c, 4, 59, 95
3, 235440, Note_off_c, 4, 66, 80
3, 235440, Note_off_c, 4, 59, 80
3, 235440, Note_on_c, 4, 64, 95
3, 235680, Note_off_c, 4, 64, 80
3, 235680, Note_on_c, 4, 63, 95
3, 235920, Note_off_c, 4, 63, 80
3, 235920, Note_on_c, 4, 64, 95
3, 235920, Note_on_c, 4, 61, 95
3, 236160, Note_off_c, 4, 64, 80
3, 236160, Note_off_c, 4, 61, 80
3, 297360, Note_on_c, 4, 68, 95
3, 297360, Note_on_c, 4, 64, 95
3, 297360, Note_on_c, 4, 61, 95
3, 297360, Note_on_c, 4, 57, 95
3, 297960, Note_off_c, 4, 68, 80
3, 297960, Note_off_c, 4, 64, 80
3, 297960, Note_off_c, 4, 61, 80
3, 297960, Note_off_c, 4, 57, 80
3, 298320, Note_on_c, 4, 66, 95
3, 298320, Note_on_c, 4, 63, 95
3, 298320, Note_on_c, 4, 59, 95
3, 299280, Note_off_c, 4, 66, 80
3, 299280, Note_off_c, 4, 63, 80
3, 299280, Note_off_c, 4, 59, 80
3, 299280, Note_on_c, 4, 68, 95
3, 299280, Note_on_c, 4, 64, 95
3, 299280, Note_on_c, 4, 61, 95
3, 300240, Note_off_c, 4, 68, 80
3, 300240, Note_off_c, 4, 64, 80
3, 300240, Note_off_c, 4, 61, 80
3, 300240, Note_on_c, 4, 66, 95
3, 300240, Note_on_c, 4, 63, 95
3, 300240, Note_on_c, 4, 59, 95
3, 301200, Note_off_c, 4, 66, 80
3, 301200, Note_off_c, 4, 63, 80
3, 301200, Note_off_c, 4, 59, 80
3, 301200, Note_on_c, 4, 68, 95
3, 301200, Note_on_c, 4, 64, 95
3, 301200, Note_on_c, 4, 57, 95
3, 302160, Note_off_c, 4, 68, 80
3, 302160, Note_off_c, 4, 64, 80
3, 302160, Note_off_c, 4, 57, 80
3, 302160, Note_on_c, 4, 66, 95
3, 302160, Note_on_c, 4, 63, 95
3, 302160, Note_on_c, 4, 59, 95
3, 303120, Note_off_c, 4, 66, 80
3, 303120, Note_off_c, 4, 63, 80
3, 303120, Note_off_c, 4, 59, 80
3, 303120, Note_on_c, 4, 61, 95
3, 303120, Note_on_c, 4, 56, 95
3, 303600, Note_off_c, 4, 61, 80
3, 303600, Note_off_c, 4, 56, 80
3, 303600, Note_on_c, 4, 68, 95
3, 303600, Note_on_c, 4, 64, 95
3, 303600, Note_on_c, 4, 61, 95
3, 304080, Note_off_c, 4, 68, 80
3, 304080, Note_off_c, 4, 64, 80
3, 304080, Note_off_c, 4, 61, 80
3, 304080, Note_on_c, 4, 66, 95
3, 304080, Note_on_c, 4, 63, 95
3, 304080, Note_on_c, 4, 59, 95
3, 304560, Note_off_c, 4, 66, 80
3, 304560, Note_on_c, 4, 71, 95
3, 305040, Note_off_c, 4, 63, 80
3, 305040, Note_off_c, 4, 59, 80
3, 305040, Note_off_c, 4, 71, 80
3, 305040, Note_on_c, 4, 68, 95
3, 305040, Note_on_c, 4, 64, 95
3, 305040, Note_on_c, 4, 61, 95
3, 305040, Note_on_c, 4, 57, 95
3, 306000, Note_off_c, 4, 68, 80
3, 306000, Note_off_c, 4, 64, 80
3, 306000, Note_off_c, 4, 61, 80
3, 306000, Note_off_c, 4, 57, 80
3, 306000, Note_on_c, 4, 66, 95
3, 306000, Note_on_c, 4, 63, 95
3, 306000, Note_on_c, 4, 59, 95
3, 306960, Note_off_c, 4, 66, 80
3, 306960, Note_off_c, 4, 63, 80
3, 306960, Note_off_c, 4, 59, 80
3, 306960, Note_on_c, 4, 66, 95
3, 306960, Note_on_c, 4, 63, 95
3, 306960, Note_on_c, 4, 59, 95
3, 307920, Note_off_c, 4, 66, 80
3, 307920, Note_off_c, 4, 63, 80
3, 307920, Note_off_c, 4, 59, 80
3, 307920, Note_on_c, 4, 68, 95
3, 307920, Note_on_c, 4, 64, 95
3, 307920, Note_on_c, 4, 61, 95
3, 307920, Note_on_c, 4, 57, 95
3, 308880, Note_off_c, 4, 68, 80
3, 308880, Note_off_c, 4, 64, 80
3, 308880, Note_off_c, 4, 61, 80
3, 308880, Note_off_c, 4, 57, 80
3, 308880, Note_on_c, 4, 68, 95
3, 308880, Note_on_c, 4, 64, 95
3, 308880, Note_on_c, 4, 61, 95
3, 310320, Note_off_c, 4, 68, 80
3, 310320, Note_off_c, 4, 64, 80
3, 310320, Note_off_c, 4, 61, 80
3, 310320, Note_on_c, 4, 64, 95
3, 310560, Note_off_c, 4, 64, 80
3, 310560, Note_on_c, 4, 66, 95
3, 310800, Note_off_c, 4, 66, 80
3, 310800, Note_on_c, 4, 68, 95
3, 310800, Note_on_c, 4, 64, 95
3, 310800, Note_on_c, 4, 61, 95
3, 311280, Note_off_c, 4, 68, 80
3, 311280, Note_on_c, 4, 69, 95
3, 311520, Note_off_c, 4, 69, 80
3, 311520, Note_on_c, 4, 68, 95
3, 311760, Note_off_c, 4, 64, 80
3, 311760, Note_off_c, 4, 61, 80
3, 311760, Note_off_c, 4, 68, 80
3, 311760, Note_on_c, 4, 66, 95
3, 311760, Note_on_c, 4, 59, 95
3, 312720, Note_off_c, 4, 66, 80
3, 312720, Note_off_c, 4, 59, 80
3, 312720, Note_on_c, 4, 68, 95
3, 312720, Note_on_c, 4, 64, 95
3, 312720, Note_on_c, 4, 61, 95
3, 312720, Note_on_c, 4, 57, 95
3, 313320, Note_off_c, 4, 68, 80
3, 313320, Note_off_c, 4, 64, 80
3, 313320, Note_off_c, 4, 61, 80
3, 313320, Note_off_c, 4, 57, 80
3, 313680, Note_on_c, 4, 66, 95
3, 313680, Note_on_c, 4, 63, 95
3, 313680, Note_on_c, 4, 59, 95
3, 314640, Note_off_c, 4, 66, 80
3, 314640, Note_off_c, 4, 63, 80
3, 314640, Note_off_c, 4, 59, 80
3, 314640, Note_on_c, 4, 68, 95
3, 314640, Note_on_c, 4, 64, 95
3, 314640, Note_on_c, 4, 61, 95
3, 315600, Note_off_c, 4, 68, 80
3, 315600, Note_off_c, 4, 64, 80
3, 315600, Note_off_c, 4, 61, 80
3, 315600, Note_on_c, 4, 66, 95
3, 315600, Note_on_c, 4, 63, 95
3, 315600, Note_on_c, 4, 59, 95
3, 316560, Note_off_c, 4, 66, 80
3, 316560, Note_off_c, 4, 63, 80
3, 316560, Note_off_c, 4, 59, 80
3, 316560, Note_on_c, 4, 68, 95
3, 316560, Note_on_c, 4, 64, 95
3, 316560, Note_on_c, 4, 57, 95
3, 317520, Note_off_c, 4, 68, 80
3, 317520, Note_off_c, 4, 64, 80
3, 317520, Note_off_c, 4, 57, 80
3, 317520, Note_on_c, 4, 66, 95
3, 317520, Note_on_c, 4, 63, 95
3, 317520, Note_on_c, 4, 59, 95
3, 318480, Note_off_c, 4, 66, 80
3, 318480, Note_off_c, 4, 63, 80
3, 318480, Note_off_c, 4, 59, 80
3, 318480, Note_on_c, 4, 61, 95
3, 318480, Note_on_c, 4, 56, 95
3, 318960, Note_off_c, 4, 61, 80
3, 318960, Note_off_c, 4, 56, 80
3, 318960, Note_on_c, 4, 68, 95
3, 318960, Note_on_c, 4, 64, 95
3, 318960, Note_on_c, 4, 61, 95
3, 319440, Note_off_c, 4, 68, 80
3, 319440, Note_off_c, 4, 64, 80
3, 319440, Note_off_c, 4, 61, 80
3, 319440, Note_on_c, 4, 66, 95
3, 319440, Note_on_c, 4, 63, 95
3, 319440, Note_on_c, 4, 59, 95
3, 319920, Note_off_c, 4, 66, 80
3, 319920, Note_on_c, 4, 71, 95
3, 320400, Note_off_c, 4, 63, 80
3, 320400, Note_off_c, 4, 59, 80
3, 320400, Note_off_c, 4, 71, 80
3, 320400, Note_on_c, 4, 68, 95
3, 320400, Note_on_c, 4, 64, 95
3, 320400, Note_on_c, 4, 61, 95
3, 320400, Note_on_c, 4, 57, 95
3, 321360, Note_off_c, 4, 68, 80
3, 321360, Note_off_c, 4, 64, 80
3, 321360, Note_off_c, 4, 61, 80
3, 321360, Note_off_c, 4, 57, 80
3, 321360, Note_on_c, 4, 66, 95
3, 321360, Note_on_c, 4, 63, 95
3, 321360, Note_on_c, 4, 59, 95
3, 322320, Note_off_c, 4, 66, 80
3, 322320, Note_off_c, 4, 63, 80
3, 322320, Note_off_c, 4, 59, 80
3, 322320, Note_on_c, 4, 66, 95
3, 322320, Note_on_c, 4, 63, 95
3, 322320, Note_on_c, 4, 59, 95
3, 323280, Note_off_c, 4, 66, 80
3, 323280, Note_off_c, 4, 63, 80
3, 323280, Note_off_c, 4, 59, 80
3, 323280, Note_on_c, 4, 68, 95
3, 323280, Note_on_c, 4, 64, 95
3, 323280, Note_on_c, 4, 61, 95
3, 323280, Note_on_c, 4, 57, 95
3, 324240, Note_off_c, 4, 68, 80
3, 324240, Note_off_c, 4, 64, 80
3, 324240, Note_off_c, 4, 61, 80
3, 324240, Note_off_c, 4, 57, 80
3, 324240, Note_on_c, 4, 68, 95
3, 324240, Note_on_c, 4, 64, 95
3, 324240, Note_on_c, 4, 61, 95
3, 325680, Note_off_c, 4, 68, 80
3, 325680, Note_off_c, 4, 64, 80
3, 325680, Note_off_c, 4, 61, 80
3, 325680, Note_on_c, 4, 64, 95
3, 325920, Note_off_c, 4, 64, 80
3, 325920, Note_on_c, 4, 66, 95
3, 326160, Note_off_c, 4, 66, 80
3, 326160, Note_on_c, 4, 68, 95
3, 326160, Note_on_c, 4, 64, 95
3, 326160, Note_on_c, 4, 61, 95
3, 326640, Note_off_c, 4, 68, 80
3, 326640, Note_on_c, 4, 69, 95
3, 326880, Note_off_c, 4, 69, 80
3, 326880, Note_on_c, 4, 68, 95
3, 327120, Note_off_c, 4, 64, 80
3, 327120, Note_off_c, 4, 61, 80
3, 327120, Note_off_c, 4, 68, 80
3, 327120, Note_on_c, 4, 66, 95
3, 327120, Note_on_c, 4, 59, 95
3, 327600, Note_off_c, 4, 66, 80
3, 327600, Note_off_c, 4, 59, 80
3, 327600, Note_on_c, 4, 64, 95
3, 327840, Note_off_c, 4, 64, 80
3, 327840, Note_on_c, 4, 63, 95
3, 328080, Note_off_c, 4, 63, 80
3, 328080, Note_on_c, 4, 64, 95
3, 328080, Note_on_c, 4, 61, 95
3, 328320, Note_off_c, 4, 64, 80
3, 328320, Note_off_c, 4, 61, 80
3, 328560, Note_on_c, 4, 68, 63
3, 328800, Note_off_c, 4, 68, 80
3, 328800, Note_on_c, 4, 71, 79
3, 329040, Note_off_c, 4, 71, 80
3, 329040, Note_on_c, 4, 66, 63
3, 329520, Note_off_c, 4, 66, 80
3, 329520, Note_on_c, 4, 71, 63
3, 330000, Note_off_c, 4, 71, 80
3, 330000, Note_on_c, 4, 68, 63
3, 330480, Note_off_c, 4, 68, 80
3, 332400, Note_on_c, 4, 68, 63
3, 332640, Note_off_c, 4, 68, 80
3, 332640, Note_on_c, 4, 71, 79
3, 332880, Note_off_c, 4, 71, 80
3, 332880, Note_on_c, 4, 66, 63
3, 333360, Note_off_c, 4, 66, 80
3, 333360, Note_on_c, 4, 71, 63
3, 333840, Note_off_c, 4, 71, 80
3, 333840, Note_on_c, 4, 68, 63
3, 334320, Note_off_c, 4, 68, 80
3, 336240, Note_on_c, 4, 68, 63
3, 336480, Note_off_c, 4, 68, 80
3, 336480, Note_on_c, 4, 71, 79
3, 336720, Note_off_c, 4, 71, 80
3, 336720, Note_on_c, 4, 66, 63
3, 337200, Note_off_c, 4, 66, 80
3, 337200, Note_on_c, 4, 71, 63
3, 337680, Note_off_c, 4, 71, 80
3, 337680, Note_on_c, 4, 68, 63
3, 338160, Note_off_c, 4, 68, 80
3, 339840, Control_c, 4, 7, 72
3, 339840, Control_c, 5, 7, 72
3, 340080, Note_on_c, 4, 68, 63
3, 340320, Note_off_c, 4, 68, 80
3, 340320, Note_on_c, 4, 71, 79
3, 340560, Note_off_c, 4, 71, 80
3, 340560, Note_on_c, 4, 66, 63
3, 341040, Note_off_c, 4, 66, 80
3, 341040, Note_on_c, 4, 71, 63
3, 341520, Note_off_c, 4, 71, 80
3, 341520, Note_on_c, 4, 68, 63
3, 342000, Note_off_c, 4, 68, 80
3, 343680, Control_c, 4, 7, 72
3, 343680, Control_c, 5, 7, 72
3, 343920, Note_on_c, 4, 68, 63
3, 344160, Note_off_c, 4, 68, 80
3, 344160, Note_on_c, 4, 71, 79
3, 344400, Note_off_c, 4, 71, 80
3, 344400, Note_on_c, 4, 66, 63
3, 344880, Note_off_c, 4, 66, 80
3, 344880, Note_on_c, 4, 71, 63
3, 345360, Note_off_c, 4, 71, 80
3, 345360, Note_on_c, 4, 68, 63
3, 345840, Note_off_c, 4, 68, 80
3, 347520, Control_c, 4, 7, 48
3, 347520, Control_c, 5, 7, 48
3, 347760, Note_on_c, 4, 68, 63
3, 348000, Note_off_c, 4, 68, 80
3, 348000, Note_on_c, 4, 71, 79
3, 348240, Note_off_c, 4, 71, 80
3, 348240, Note_on_c, 4, 66, 63
3, 348720, Note_off_c, 4, 66, 80
3, 348720, Note_on_c, 4, 71, 63
3, 349200, Note_off_c, 4, 71, 80
3, 349200, Note_on_c, 4, 80, 95
3, 349440, Control_c, 4, 7, 32
3, 349440, Control_c, 5, 7, 32
3, 349680, Note_off_c, 4, 80, 80
3, 349680, Note_on_c, 4, 76, 95
3, 349920, Note_off_c, 4, 76, 80
3, 349920, Note_on_c, 4, 73, 95
3, 350160, Note_off_c, 4, 73, 80
3, 350160, Note_on_c, 4, 78, 95
3, 350640, Note_off_c, 4, 78, 80
3, 350640, Note_on_c, 4, 71, 95
3, 350880, Note_off_c, 4, 71, 80
3, 350880, Note_on_c, 4, 68, 95
3, 351120, Note_off_c, 4, 68, 80
3, 351120, Note_on_c, 4, 73, 95
3, 351360, Control_c, 4, 7, 16
3, 351360, Control_c, 5, 7, 16
3, 351600, Note_off_c, 4, 73, 80
3, 351600, Note_on_c, 4, 68, 63
3, 351840, Note_off_c, 4, 68, 80
3, 351840, Note_on_c, 4, 71, 79
3, 352080, Note_off_c, 4, 71, 80
3, 352080, Control_c, 4, 7, 8
3, 352080, Control_c, 5, 7, 8
3, 352080, Note_on_c, 4, 66, 63
3, 352560, Note_off_c, 4, 66, 80
3, 352560, Note_on_c, 4, 71, 63
3, 353040, Note_off_c, 4, 71, 80
3, 353040, Note_on_c, 4, 68, 63
3, 353520, Note_off_c, 4, 68, 80
3, 353520, End_track
4, 0, Start_track
4, 0, Title_t, "Acordes"
4, 0, Control_c, 6, 100, 0
4, 0, Control_c, 6, 101, 0
4, 0, Control_c, 6, 6, 8
4, 0, Pitch_bend_c, 6, 8192
4, 0, Control_c, 7, 100, 0
4, 0, Control_c, 7, 101, 0
4, 0, Control_c, 7, 6, 8
4, 0, Pitch_bend_c, 7, 8192
4, 0, Program_c, 6, 5
4, 0, Program_c, 7, 5
4, 0, Control_c, 6, 7, 88
4, 0, Control_c, 7, 7, 88
4, 0, Control_c, 6, 10, 64
4, 0, Control_c, 7, 10, 64
4, 0, Control_c, 6, 93, 0
4, 0, Control_c, 7, 93, 0
4, 0, Control_c, 6, 91, 0
4, 0, Control_c, 7, 91, 0
4, 0, Control_c, 6, 92, 0
4, 0, Control_c, 7, 92, 0
4, 0, Control_c, 6, 95, 0
4, 0, Control_c, 7, 95, 0
4, 24960, Note_on_c, 6, 60, 63
4, 25440, Note_off_c, 6, 60, 80
4, 25440, Note_on_c, 6, 60, 63
4, 25680, Note_off_c, 6, 60, 80
4, 25680, Note_on_c, 6, 59, 63
4, 26160, Note_off_c, 6, 59, 80
4, 26160, Note_on_c, 6, 57, 63
4, 26640, Note_off_c, 6, 57, 80
4, 26640, Note_on_c, 6, 57, 63
4, 27120, Note_off_c, 6, 57, 80
4, 27120, Note_on_c, 6, 55, 63
4, 27600, Note_off_c, 6, 55, 80
4, 27600, Note_on_c, 6, 55, 63
4, 28080, Note_off_c, 6, 55, 80
4, 28080, Note_on_c, 6, 57, 63
4, 28800, Note_off_c, 6, 57, 80
4, 28800, Note_on_c, 6, 64, 95
4, 28800, Note_on_c, 6, 59, 95
4, 28800, Note_on_c, 6, 57, 95
4, 36480, Note_off_c, 6, 64, 80
4, 36480, Note_off_c, 6, 59, 80
4, 36480, Note_off_c, 6, 57, 80
4, 36720, Note_on_c, 6, 64, 95
4, 36720, Note_on_c, 6, 61, 95
4, 36720, Note_on_c, 6, 56, 95
4, 37200, Note_off_c, 6, 64, 80
4, 37200, Note_off_c, 6, 61, 80
4, 37200, Note_off_c, 6, 56, 80
4, 37200, Note_on_c, 6, 63, 95
4, 37200, Note_on_c, 6, 59, 95
4, 37200, Note_on_c, 6, 56, 95
4, 37680, Note_off_c, 6, 63, 80
4, 37680, Note_off_c, 6, 59, 80
4, 37680, Note_off_c, 6, 56, 80
4, 37680, Note_on_c, 6, 59, 95
4, 37680, Note_on_c, 6, 56, 95
4, 38160, Note_off_c, 6, 59, 80
4, 38160, Note_off_c, 6, 56, 80
4, 38160, Note_on_c, 6, 61, 95
4, 38160, Note_on_c, 6, 56, 95
4, 38160, Note_on_c, 6, 52, 95
4, 39120, Note_off_c, 6, 61, 80
4, 39120, Note_off_c, 6, 56, 80
4, 39120, Note_off_c, 6, 52, 80
4, 39120, Note_on_c, 6, 63, 95
4, 39120, Note_on_c, 6, 59, 95
4, 39120, Note_on_c, 6, 54, 95
4, 40320, Note_off_c, 6, 63, 80
4, 40320, Note_off_c, 6, 59, 80
4, 40320, Note_off_c, 6, 54, 80
4, 40560, Note_on_c, 6, 64, 95
4, 40560, Note_on_c, 6, 61, 95
4, 40560, Note_on_c, 6, 56, 95
4, 41040, Note_off_c, 6, 64, 80
4, 41040, Note_off_c, 6, 61, 80
4, 41040, Note_off_c, 6, 56, 80
4, 41040, Note_on_c, 6, 63, 95
4, 41040, Note_on_c, 6, 59, 95
4, 41040, Note_on_c, 6, 56, 95
4, 41520, Note_off_c, 6, 63, 80
4, 41520, Note_off_c, 6, 59, 80
4, 41520, Note_off_c, 6, 56, 80
4, 41520, Note_on_c, 6, 59, 95
4, 41520, Note_on_c, 6, 56, 95
4, 42000, Note_off_c, 6, 59, 80
4, 42000, Note_off_c, 6, 56, 80
4, 42000, Note_on_c, 6, 61, 95
4, 42000, Note_on_c, 6, 56, 95
4, 42000, Note_on_c, 6, 52, 95
4, 42960, Note_off_c, 6, 61, 80
4, 42960, Note_off_c, 6, 56, 80
4, 42960, Note_off_c, 6, 52, 80
4, 42960, Note_on_c, 6, 63, 95
4, 42960, Note_on_c, 6, 59, 95
4, 42960, Note_on_c, 6, 54, 95
4, 44160, Note_off_c, 6, 63, 80
4, 44160, Note_off_c, 6, 59, 80
4, 44160, Note_off_c, 6, 54, 80
4, 44400, Note_on_c, 6, 64, 95
4, 44400, Note_on_c, 6, 61, 95
4, 44400, Note_on_c, 6, 56, 95
4, 44880, Note_off_c, 6, 64, 80
4, 44880, Note_off_c, 6, 61, 80
4, 44880, Note_off_c, 6, 56, 80
4, 44880, Note_on_c, 6, 63, 95
4, 44880, Note_on_c, 6, 59, 95
4, 44880, Note_on_c, 6, 56, 95
4, 45360, Note_off_c, 6, 63, 80
4, 45360, Note_off_c, 6, 59, 80
4, 45360, Note_off_c, 6, 56, 80
4, 45360, Note_on_c, 6, 59, 95
4, 45360, Note_on_c, 6, 56, 95
4, 45840, Note_off_c, 6, 59, 80
4, 45840, Note_off_c, 6, 56, 80
4, 45840, Note_on_c, 6, 61, 95
4, 45840, Note_on_c, 6, 56, 95
4, 45840, Note_on_c, 6, 52, 95
4, 46800, Note_off_c, 6, 61, 80
4, 46800, Note_off_c, 6, 56, 80
4, 46800, Note_off_c, 6, 52, 80
4, 46800, Note_on_c, 6, 63, 95
4, 46800, Note_on_c, 6, 59, 95
4, 46800, Note_on_c, 6, 54, 95
4, 48000, Note_off_c, 6, 63, 80
4, 48000, Note_off_c, 6, 59, 80
4, 48000, Note_off_c, 6, 54, 80
4, 48240, Note_on_c, 6, 64, 95
4, 48240, Note_on_c, 6, 61, 95
4, 48240, Note_on_c, 6, 56, 95
4, 48720, Note_off_c, 6, 64, 80
4, 48720, Note_off_c, 6, 61, 80
4, 48720, Note_off_c, 6, 56, 80
4, 48720, Note_on_c, 6, 63, 95
4, 48720, Note_on_c, 6, 59, 95
4, 48720, Note_on_c, 6, 56, 95
4, 49200, Note_off_c, 6, 63, 80
4, 49200, Note_off_c, 6, 59, 80
4, 49200, Note_off_c, 6, 56, 80
4, 49200, Note_on_c, 6, 59, 95
4, 49200, Note_on_c, 6, 56, 95
4, 49680, Note_off_c, 6, 59, 80
4, 49680, Note_off_c, 6, 56, 80
4, 49680, Note_on_c, 6, 61, 95
4, 49680, Note_on_c, 6, 56, 95
4, 49680, Note_on_c, 6, 52, 95
4, 50640, Note_off_c, 6, 61, 80
4, 50640, Note_off_c, 6, 56, 80
4, 50640, Note_off_c, 6, 52, 80
4, 50640, Note_on_c, 6, 63, 95
4, 50640, Note_on_c, 6, 59, 95
4, 50640, Note_on_c, 6, 54, 95
4, 51840, Note_off_c, 6, 63, 80
4, 51840, Note_off_c, 6, 59, 80
4, 51840, Note_off_c, 6, 54, 80
4, 52080, Note_on_c, 6, 64, 95
4, 52080, Note_on_c, 6, 61, 95
4, 52080, Note_on_c, 6, 56, 95
4, 52560, Note_off_c, 6, 64, 80
4, 52560, Note_off_c, 6, 61, 80
4, 52560, Note_off_c, 6, 56, 80
4, 52560, Note_on_c, 6, 63, 95
4, 52560, Note_on_c, 6, 59, 95
4, 52560, Note_on_c, 6, 56, 95
4, 53040, Note_off_c, 6, 63, 80
4, 53040, Note_off_c, 6, 59, 80
4, 53040, Note_off_c, 6, 56, 80
4, 53040, Note_on_c, 6, 59, 95
4, 53040, Note_on_c, 6, 56, 95
4, 53520, Note_off_c, 6, 59, 80
4, 53520, Note_off_c, 6, 56, 80
4, 53520, Note_on_c, 6, 61, 95
4, 53520, Note_on_c, 6, 56, 95
4, 53520, Note_on_c, 6, 52, 95
4, 54480, Note_off_c, 6, 61, 80
4, 54480, Note_off_c, 6, 56, 80
4, 54480, Note_off_c, 6, 52, 80
4, 54480, Note_on_c, 6, 63, 95
4, 54480, Note_on_c, 6, 59, 95
4, 54480, Note_on_c, 6, 54, 95
4, 55680, Note_off_c, 6, 63, 80
4, 55680, Note_off_c, 6, 59, 80
4, 55680, Note_off_c, 6, 54, 80
4, 55920, Note_on_c, 6, 64, 95
4, 55920, Note_on_c, 6, 61, 95
4, 55920, Note_on_c, 6, 56, 95
4, 56400, Note_off_c, 6, 64, 80
4, 56400, Note_off_c, 6, 61, 80
4, 56400, Note_off_c, 6, 56, 80
4, 56400, Note_on_c, 6, 63, 95
4, 56400, Note_on_c, 6, 59, 95
4, 56400, Note_on_c, 6, 56, 95
4, 56880, Note_off_c, 6, 63, 80
4, 56880, Note_off_c, 6, 59, 80
4, 56880, Note_off_c, 6, 56, 80
4, 56880, Note_on_c, 6, 59, 95
4, 56880, Note_on_c, 6, 56, 95
4, 57360, Note_off_c, 6, 59, 80
4, 57360, Note_off_c, 6, 56, 80
4, 57360, Note_on_c, 6, 61, 95
4, 57360, Note_on_c, 6, 56, 95
4, 57360, Note_on_c, 6, 52, 95
4, 58320, Note_off_c, 6, 61, 80
4, 58320, Note_off_c, 6, 56, 80
4, 58320, Note_off_c, 6, 52, 80
4, 58320, Note_on_c, 6, 63, 95
4, 58320, Note_on_c, 6, 59, 95
4, 58320, Note_on_c, 6, 54, 95
4, 59520, Note_off_c, 6, 63, 80
4, 59520, Note_off_c, 6, 59, 80
4, 59520, Note_off_c, 6, 54, 80
4, 59760, Note_on_c, 6, 64, 95
4, 59760, Note_on_c, 6, 61, 95
4, 59760, Note_on_c, 6, 56, 95
4, 60240, Note_off_c, 6, 64, 80
4, 60240, Note_off_c, 6, 61, 80
4, 60240, Note_off_c, 6, 56, 80
4, 60240, Note_on_c, 6, 63, 95
4, 60240, Note_on_c, 6, 59, 95
4, 60240, Note_on_c, 6, 56, 95
4, 60720, Note_off_c, 6, 63, 80
4, 60720, Note_off_c, 6, 59, 80
4, 60720, Note_off_c, 6, 56, 80
4, 60720, Note_on_c, 6, 59, 95
4, 60720, Note_on_c, 6, 56, 95
4, 61200, Note_off_c, 6, 59, 80
4, 61200, Note_off_c, 6, 56, 80
4, 61200, Note_on_c, 6, 61, 95
4, 61200, Note_on_c, 6, 56, 95
4, 61200, Note_on_c, 6, 52, 95
4, 62160, Note_off_c, 6, 61, 80
4, 62160, Note_off_c, 6, 56, 80
4, 62160, Note_off_c, 6, 52, 80
4, 62160, Note_on_c, 6, 63, 95
4, 62160, Note_on_c, 6, 59, 95
4, 62160, Note_on_c, 6, 54, 95
4, 63360, Note_off_c, 6, 63, 80
4, 63360, Note_off_c, 6, 59, 80
4, 63360, Note_off_c, 6, 54, 80
4, 63600, Note_on_c, 6, 64, 95
4, 63600, Note_on_c, 6, 61, 95
4, 63600, Note_on_c, 6, 56, 95
4, 64080, Note_off_c, 6, 64, 80
4, 64080, Note_off_c, 6, 61, 80
4, 64080, Note_off_c, 6, 56, 80
4, 64080, Note_on_c, 6, 63, 95
4, 64080, Note_on_c, 6, 59, 95
4, 64080, Note_on_c, 6, 56, 95
4, 64560, Note_off_c, 6, 63, 80
4, 64560, Note_off_c, 6, 59, 80
4, 64560, Note_off_c, 6, 56, 80
4, 64560, Note_on_c, 6, 59, 95
4, 64560, Note_on_c, 6, 56, 95
4, 65040, Note_off_c, 6, 59, 80
4, 65040, Note_off_c, 6, 56, 80
4, 65040, Note_on_c, 6, 61, 95
4, 65040, Note_on_c, 6, 56, 95
4, 65040, Note_on_c, 6, 52, 95
4, 66000, Note_off_c, 6, 61, 80
4, 66000, Note_off_c, 6, 56, 80
4, 66000, Note_off_c, 6, 52, 80
4, 66000, Note_on_c, 6, 63, 95
4, 66000, Note_on_c, 6, 59, 95
4, 66000, Note_on_c, 6, 54, 95
4, 67200, Note_off_c, 6, 63, 80
4, 67200, Note_off_c, 6, 59, 80
4, 67200, Note_off_c, 6, 54, 80
4, 67440, Note_on_c, 6, 64, 95
4, 67440, Note_on_c, 6, 61, 95
4, 67440, Note_on_c, 6, 56, 95
4, 67920, Note_off_c, 6, 64, 80
4, 67920, Note_off_c, 6, 61, 80
4, 67920, Note_off_c, 6, 56, 80
4, 67920, Note_on_c, 6, 63, 95
4, 67920, Note_on_c, 6, 59, 95
4, 67920, Note_on_c, 6, 56, 95
4, 68400, Note_off_c, 6, 63, 80
4, 68400, Note_off_c, 6, 59, 80
4, 68400, Note_off_c, 6, 56, 80
4, 68400, Note_on_c, 6, 59, 95
4, 68400, Note_on_c, 6, 56, 95
4, 68880, Note_off_c, 6, 59, 80
4, 68880, Note_off_c, 6, 56, 80
4, 68880, Note_on_c, 6, 61, 95
4, 68880, Note_on_c, 6, 56, 95
4, 68880, Note_on_c, 6, 52, 95
4, 69840, Note_off_c, 6, 61, 80
4, 69840, Note_off_c, 6, 56, 80
4, 69840, Note_off_c, 6, 52, 80
4, 69840, Note_on_c, 6, 63, 95
4, 69840, Note_on_c, 6, 59, 95
4, 69840, Note_on_c, 6, 54, 95
4, 71040, Note_off_c, 6, 63, 80
4, 71040, Note_off_c, 6, 59, 80
4, 71040, Note_off_c, 6, 54, 80
4, 71280, Note_on_c, 6, 64, 95
4, 71280, Note_on_c, 6, 61, 95
4, 71280, Note_on_c, 6, 56, 95
4, 71760, Note_off_c, 6, 64, 80
4, 71760, Note_off_c, 6, 61, 80
4, 71760, Note_off_c, 6, 56, 80
4, 71760, Note_on_c, 6, 63, 95
4, 71760, Note_on_c, 6, 59, 95
4, 71760, Note_on_c, 6, 56, 95
4, 72240, Note_off_c, 6, 63, 80
4, 72240, Note_off_c, 6, 59, 80
4, 72240, Note_off_c, 6, 56, 80
4, 72240, Note_on_c, 6, 59, 95
4, 72240, Note_on_c, 6, 56, 95
4, 72720, Note_off_c, 6, 59, 80
4, 72720, Note_off_c, 6, 56, 80
4, 72720, Note_on_c, 6, 61, 95
4, 72720, Note_on_c, 6, 56, 95
4, 72720, Note_on_c, 6, 52, 95
4, 73680, Note_off_c, 6, 61, 80
4, 73680, Note_off_c, 6, 56, 80
4, 73680, Note_off_c, 6, 52, 80
4, 73680, Note_on_c, 6, 63, 95
4, 73680, Note_on_c, 6, 59, 95
4, 73680, Note_on_c, 6, 54, 95
4, 74880, Note_off_c, 6, 63, 80
4, 74880, Note_off_c, 6, 59, 80
4, 74880, Note_off_c, 6, 54, 80
4, 75120, Note_on_c, 6, 64, 95
4, 75120, Note_on_c, 6, 61, 95
4, 75120, Note_on_c, 6, 56, 95
4, 75600, Note_off_c, 6, 64, 80
4, 75600, Note_off_c, 6, 61, 80
4, 75600, Note_off_c, 6, 56, 80
4, 75600, Note_on_c, 6, 63, 95
4, 75600, Note_on_c, 6, 59, 95
4, 75600, Note_on_c, 6, 56, 95
4, 76080, Note_off_c, 6, 63, 80
4, 76080, Note_off_c, 6, 59, 80
4, 76080, Note_off_c, 6, 56, 80
4, 76080, Note_on_c, 6, 59, 95
4, 76080, Note_on_c, 6, 56, 95
4, 76560, Note_off_c, 6, 59, 80
4, 76560, Note_off_c, 6, 56, 80
4, 76560, Note_on_c, 6, 61, 95
4, 76560, Note_on_c, 6, 56, 95
4, 76560, Note_on_c, 6, 52, 95
4, 77520, Note_off_c, 6, 61, 80
4, 77520, Note_off_c, 6, 56, 80
4, 77520, Note_off_c, 6, 52, 80
4, 77520, Note_on_c, 6, 63, 95
4, 77520, Note_on_c, 6, 59, 95
4, 77520, Note_on_c, 6, 54, 95
4, 78720, Note_off_c, 6, 63, 80
4, 78720, Note_off_c, 6, 59, 80
4, 78720, Note_off_c, 6, 54, 80
4, 78960, Note_on_c, 6, 64, 95
4, 78960, Note_on_c, 6, 61, 95
4, 78960, Note_on_c, 6, 56, 95
4, 79440, Note_off_c, 6, 64, 80
4, 79440, Note_off_c, 6, 61, 80
4, 79440, Note_off_c, 6, 56, 80
4, 79440, Note_on_c, 6, 63, 95
4, 79440, Note_on_c, 6, 59, 95
4, 79440, Note_on_c, 6, 56, 95
4, 79920, Note_off_c, 6, 63, 80
4, 79920, Note_off_c, 6, 59, 80
4, 79920, Note_off_c, 6, 56, 80
4, 79920, Note_on_c, 6, 59, 95
4, 79920, Note_on_c, 6, 56, 95
4, 80400, Note_off_c, 6, 59, 80
4, 80400, Note_off_c, 6, 56, 80
4, 80400, Note_on_c, 6, 61, 95
4, 80400, Note_on_c, 6, 56, 95
4, 80400, Note_on_c, 6, 52, 95
4, 81360, Note_off_c, 6, 61, 80
4, 81360, Note_off_c, 6, 56, 80
4, 81360, Note_off_c, 6, 52, 80
4, 81360, Note_on_c, 6, 63, 95
4, 81360, Note_on_c, 6, 59, 95
4, 81360, Note_on_c, 6, 54, 95
4, 82560, Note_off_c, 6, 63, 80
4, 82560, Note_off_c, 6, 59, 80
4, 82560, Note_off_c, 6, 54, 80
4, 82800, Note_on_c, 6, 63, 95
4, 82800, Note_on_c, 6, 59, 95
4, 82800, Note_on_c, 6, 56, 95
4, 83280, Note_off_c, 6, 63, 80
4, 83280, Note_off_c, 6, 59, 80
4, 83280, Note_off_c, 6, 56, 80
4, 83280, Note_on_c, 6, 61, 95
4, 83280, Note_on_c, 6, 58, 95
4, 83280, Note_on_c, 6, 54, 95
4, 83760, Note_off_c, 6, 61, 80
4, 83760, Note_off_c, 6, 58, 80
4, 83760, Note_off_c, 6, 54, 80
4, 83760, Note_on_c, 6, 58, 95
4, 83760, Note_on_c, 6, 54, 95
4, 84240, Note_off_c, 6, 58, 80
4, 84240, Note_off_c, 6, 54, 80
4, 84240, Note_on_c, 6, 63, 95
4, 84240, Note_on_c, 6, 59, 95
4, 84240, Note_on_c, 6, 56, 95
4, 85200, Note_off_c, 6, 63, 80
4, 85200, Note_off_c, 6, 59, 80
4, 85200, Note_off_c, 6, 56, 80
4, 85200, Note_on_c, 6, 61, 95
4, 85200, Note_on_c, 6, 58, 95
4, 85200, Note_on_c, 6, 54, 95
4, 86400, Note_off_c, 6, 61, 80
4, 86400, Note_off_c, 6, 58, 80
4, 86400, Note_off_c, 6, 54, 80
4, 86640, Note_on_c, 6, 63, 95
4, 86640, Note_on_c, 6, 59, 95
4, 86640, Note_on_c, 6, 56, 95
4, 87120, Note_off_c, 6, 63, 80
4, 87120, Note_off_c, 6, 59, 80
4, 87120, Note_off_c, 6, 56, 80
4, 87120, Note_on_c, 6, 61, 95
4, 87120, Note_on_c, 6, 58, 95
4, 87120, Note_on_c, 6, 54, 95
4, 87600, Note_off_c, 6, 61, 80
4, 87600, Note_off_c, 6, 58, 80
4, 87600, Note_off_c, 6, 54, 80
4, 87600, Note_on_c, 6, 58, 95
4, 87600, Note_on_c, 6, 54, 95
4, 88080, Note_off_c, 6, 58, 80
4, 88080, Note_off_c, 6, 54, 80
4, 88080, Note_on_c, 6, 63, 95
4, 88080, Note_on_c, 6, 59, 95
4, 88080, Note_on_c, 6, 56, 95
4, 89040, Note_off_c, 6, 63, 80
4, 89040, Note_off_c, 6, 59, 80
4, 89040, Note_off_c, 6, 56, 80
4, 89040, Note_on_c, 6, 61, 95
4, 89040, Note_on_c, 6, 58, 95
4, 89040, Note_on_c, 6, 54, 95
4, 90240, Note_off_c, 6, 61, 80
4, 90240, Note_off_c, 6, 58, 80
4, 90240, Note_off_c, 6, 54, 80
4, 90480, Note_on_c, 6, 63, 95
4, 90480, Note_on_c, 6, 59, 95
4, 90480, Note_on_c, 6, 56, 95
4, 90960, Note_off_c, 6, 63, 80
4, 90960, Note_off_c, 6, 59, 80
4, 90960, Note_off_c, 6, 56, 80
4, 90960, Note_on_c, 6, 61, 95
4, 90960, Note_on_c, 6, 58, 95
4, 90960, Note_on_c, 6, 54, 95
4, 91440, Note_off_c, 6, 61, 80
4, 91440, Note_off_c, 6, 58, 80
4, 91440, Note_off_c, 6, 54, 80
4, 91440, Note_on_c, 6, 58, 95
4, 91440, Note_on_c, 6, 54, 95
4, 91920, Note_off_c, 6, 58, 80
4, 91920, Note_off_c, 6, 54, 80
4, 91920, Note_on_c, 6, 63, 95
4, 91920, Note_on_c, 6, 59, 95
4, 91920, Note_on_c, 6, 56, 95
4, 92880, Note_off_c, 6, 63, 80
4, 92880, Note_off_c, 6, 59, 80
4, 92880, Note_off_c, 6, 56, 80
4, 92880, Note_on_c, 6, 61, 95
4, 92880, Note_on_c, 6, 58, 95
4, 92880, Note_on_c, 6, 54, 95
4, 94080, Note_off_c, 6, 61, 80
4, 94080, Note_off_c, 6, 58, 80
4, 94080, Note_off_c, 6, 54, 80
4, 94320, Note_on_c, 6, 63, 95
4, 94320, Note_on_c, 6, 59, 95
4, 94320, Note_on_c, 6, 56, 95
4, 94800, Note_off_c, 6, 63, 80
4, 94800, Note_off_c, 6, 59, 80
4, 94800, Note_off_c, 6, 56, 80
4, 94800, Note_on_c, 6, 61, 95
4, 94800, Note_on_c, 6, 58, 95
4, 94800, Note_on_c, 6, 54, 95
4, 95280, Note_off_c, 6, 61, 80
4, 95280, Note_off_c, 6, 58, 80
4, 95280, Note_off_c, 6, 54, 80
4, 95280, Note_on_c, 6, 58, 95
4, 95280, Note_on_c, 6, 54, 95
4, 95760, Note_off_c, 6, 58, 80
4, 95760, Note_off_c, 6, 54, 80
4, 95760, Note_on_c, 6, 63, 95
4, 95760, Note_on_c, 6, 59, 95
4, 95760, Note_on_c, 6, 56, 95
4, 96720, Note_off_c, 6, 63, 80
4, 96720, Note_off_c, 6, 59, 80
4, 96720, Note_off_c, 6, 56, 80
4, 96720, Note_on_c, 6, 61, 95
4, 96720, Note_on_c, 6, 58, 95
4, 96720, Note_on_c, 6, 54, 95
4, 97680, Note_off_c, 6, 61, 80
4, 97680, Note_off_c, 6, 58, 80
4, 97680, Note_off_c, 6, 54, 80
4, 97680, Note_on_c, 6, 68, 95
4, 97680, Note_on_c, 6, 64, 95
4, 97680, Note_on_c, 6, 61, 95
4, 97680, Note_on_c, 6, 57, 95
4, 98160, Note_off_c, 6, 61, 80
4, 98160, Note_on_c, 6, 61, 95
4, 98280, Note_off_c, 6, 68, 80
4, 98280, Note_off_c, 6, 64, 80
4, 98280, Note_off_c, 6, 57, 80
4, 98280, Note_off_c, 6, 61, 80
4, 98640, Note_on_c, 6, 66, 95
4, 98640, Note_on_c, 6, 63, 95
4, 98640, Note_on_c, 6, 59, 95
4, 99120, Note_off_c, 6, 66, 80
4, 99120, Note_off_c, 6, 63, 80
4, 99120, Note_off_c, 6, 59, 80
4, 99120, Note_on_c, 6, 61, 95
4, 99360, Note_off_c, 6, 61, 80
4, 99360, Note_on_c, 6, 63, 95
4, 99600, Note_off_c, 6, 63, 80
4, 99600, Note_on_c, 6, 68, 95
4, 99600, Note_on_c, 6, 64, 95
4, 99600, Note_on_c, 6, 61, 95
4, 100080, Note_off_c, 6, 68, 80
4, 100080, Note_off_c, 6, 64, 80
4, 100080, Note_off_c, 6, 61, 80
4, 100080, Note_on_c, 6, 61, 95
4, 100200, Note_off_c, 6, 61, 80
4, 100560, Note_on_c, 6, 66, 95
4, 100560, Note_on_c, 6, 63, 95
4, 100560, Note_on_c, 6, 59, 95
4, 101040, Note_off_c, 6, 66, 80
4, 101040, Note_off_c, 6, 63, 80
4, 101040, Note_off_c, 6, 59, 80
4, 101040, Note_on_c, 6, 59, 95
4, 101160, Note_off_c, 6, 59, 80
4, 101520, Note_on_c, 6, 68, 95
4, 101520, Note_on_c, 6, 64, 95
4, 101520, Note_on_c, 6, 57, 95
4, 102000, Note_off_c, 6, 68, 80
4, 102000, Note_off_c, 6, 64, 80
4, 102000, Note_off_c, 6, 57, 80
4, 102000, Note_on_c, 6, 61, 95
4, 102240, Note_off_c, 6, 61, 80
4, 102480, Note_on_c, 6, 66, 95
4, 102480, Note_on_c, 6, 63, 95
4, 102480, Note_on_c, 6, 59, 95
4, 102960, Note_off_c, 6, 63, 80
4, 102960, Note_on_c, 6, 64, 95
4, 103200, Note_off_c, 6, 64, 80
4, 103200, Note_on_c, 6, 63, 95
4, 103440, Note_off_c, 6, 59, 80
4, 103440, Note_off_c, 6, 63, 80
4, 103440, Note_on_c, 6, 61, 95
4, 103440, Note_on_c, 6, 56, 95
4, 103680, Note_off_c, 6, 66, 80
4, 103920, Note_off_c, 6, 61, 80
4, 103920, Note_off_c, 6, 56, 80
4, 103920, Note_on_c, 6, 68, 95
4, 103920, Note_on_c, 6, 64, 95
4, 103920, Note_on_c, 6, 61, 95
4, 104400, Note_off_c, 6, 68, 80
4, 104400, Note_off_c, 6, 64, 80
4, 104400, Note_off_c, 6, 61, 80
4, 104400, Note_on_c, 6, 66, 95
4, 104400, Note_on_c, 6, 63, 95
4, 104400, Note_on_c, 6, 59, 95
4, 104880, Note_off_c, 6, 66, 80
4, 104880, Note_on_c, 6, 71, 95
4, 105360, Note_off_c, 6, 63, 80
4, 105360, Note_off_c, 6, 59, 80
4, 105360, Note_off_c, 6, 71, 80
4, 105360, Note_on_c, 6, 68, 95
4, 105360, Note_on_c, 6, 64, 95
4, 105360, Note_on_c, 6, 61, 95
4, 105360, Note_on_c, 6, 57, 95
4, 105840, Note_off_c, 6, 61, 80
4, 105840, Note_on_c, 6, 61, 95
4, 105960, Note_off_c, 6, 68, 80
4, 105960, Note_off_c, 6, 64, 80
4, 105960, Note_off_c, 6, 57, 80
4, 105960, Note_off_c, 6, 61, 80
4, 106320, Note_on_c, 6, 66, 95
4, 106320, Note_on_c, 6, 63, 95
4, 106320, Note_on_c, 6, 59, 95
4, 106800, Note_off_c, 6, 66, 80
4, 106800, Note_off_c, 6, 63, 80
4, 106800, Note_off_c, 6, 59, 80
4, 106800, Note_on_c, 6, 64, 95
4, 107040, Note_off_c, 6, 64, 80
4, 107280, Note_on_c, 6, 66, 95
4, 107280, Note_on_c, 6, 63, 95
4, 107280, Note_on_c, 6, 59, 95
4, 107760, Note_off_c, 6, 66, 80
4, 107760, Note_off_c, 6, 63, 80
4, 107760, Note_off_c, 6, 59, 80
4, 107760, Note_on_c, 6, 61, 95
4, 108000, Note_off_c, 6, 61, 80
4, 108000, Note_on_c, 6, 63, 95
4, 108240, Note_off_c, 6, 63, 80
4, 108240, Note_on_c, 6, 68, 95
4, 108240, Note_on_c, 6, 64, 95
4, 108240, Note_on_c, 6, 61, 95
4, 108240, Note_on_c, 6, 57, 95
4, 108720, Note_off_c, 6, 68, 80
4, 108720, Note_off_c, 6, 64, 80
4, 108720, Note_off_c, 6, 61, 80
4, 108720, Note_off_c, 6, 57, 80
4, 108720, Note_on_c, 6, 61, 95
4, 108960, Note_off_c, 6, 61, 80
4, 108960, Note_on_c, 6, 63, 95
4, 109200, Note_off_c, 6, 63, 80
4, 109200, Note_on_c, 6, 68, 95
4, 109200, Note_on_c, 6, 64, 95
4, 109200, Note_on_c, 6, 61, 95
4, 110400, Note_off_c, 6, 68, 80
4, 110400, Note_off_c, 6, 64, 80
4, 110400, Note_off_c, 6, 61, 80
4, 110640, Note_on_c, 6, 64, 95
4, 110880, Note_off_c, 6, 64, 80
4, 110880, Note_on_c, 6, 66, 95
4, 111120, Note_off_c, 6, 66, 80
4, 111120, Note_on_c, 6, 68, 95
4, 111120, Note_on_c, 6, 64, 95
4, 111120, Note_on_c, 6, 61, 95
4, 111600, Note_off_c, 6, 68, 80
4, 111600, Note_on_c, 6, 69, 95
4, 111840, Note_off_c, 6, 69, 80
4, 111840, Note_on_c, 6, 68, 95
4, 112080, Note_off_c, 6, 64, 80
4, 112080, Note_off_c, 6, 61, 80
4, 112080, Note_off_c, 6, 68, 80
4, 112080, Note_on_c, 6, 66, 95
4, 112080, Note_on_c, 6, 59, 95
4, 112560, Note_off_c, 6, 66, 80
4, 112560, Note_off_c, 6, 59, 80
4, 112560, Note_on_c, 6, 64, 95
4, 112800, Note_off_c, 6, 64, 80
4, 112800, Note_on_c, 6, 63, 95
4, 113040, Note_off_c, 6, 63, 80
4, 113040, Note_on_c, 6, 64, 95
4, 113040, Note_on_c, 6, 61, 95
4, 113520, Note_off_c, 6, 64, 80
4, 113520, Note_off_c, 6, 61, 80
4, 113520, Note_on_c, 6, 64, 95
4, 113520, Note_on_c, 6, 61, 95
4, 113520, Note_on_c, 6, 56, 95
4, 114000, Note_off_c, 6, 64, 80
4, 114000, Note_off_c, 6, 61, 80
4, 114000, Note_off_c, 6, 56, 80
4, 114000, Note_on_c, 6, 63, 95
4, 114000, Note_on_c, 6, 59, 95
4, 114000, Note_on_c, 6, 56, 95
4, 114480, Note_off_c, 6, 63, 80
4, 114480, Note_off_c, 6, 59, 80
4, 114480, Note_off_c, 6, 56, 80
4, 114480, Note_on_c, 6, 59, 95
4, 114480, Note_on_c, 6, 56, 95
4, 114960, Note_off_c, 6, 59, 80
4, 114960, Note_off_c, 6, 56, 80
4, 114960, Note_on_c, 6, 61, 95
4, 114960, Note_on_c, 6, 56, 95
4, 114960, Note_on_c, 6, 52, 95
4, 115920, Note_off_c, 6, 61, 80
4, 115920, Note_off_c, 6, 56, 80
4, 115920, Note_off_c, 6, 52, 80
4, 115920, Note_on_c, 6, 63, 95
4, 115920, Note_on_c, 6, 59, 95
4, 115920, Note_on_c, 6, 54, 95
4, 117120, Note_off_c, 6, 63, 80
4, 117120, Note_off_c, 6, 59, 80
4, 117120, Note_off_c, 6, 54, 80
4, 117360, Note_on_c, 6, 64, 95
4, 117360, Note_on_c, 6, 61, 95
4, 117360, Note_on_c, 6, 56, 95
4, 117840, Note_off_c, 6, 64, 80
4, 117840, Note_off_c, 6, 61, 80
4, 117840, Note_off_c, 6, 56, 80
4, 117840, Note_on_c, 6, 63, 95
4, 117840, Note_on_c, 6, 59, 95
4, 117840, Note_on_c, 6, 56, 95
4, 118320, Note_off_c, 6, 63, 80
4, 118320, Note_off_c, 6, 59, 80
4, 118320, Note_off_c, 6, 56, 80
4, 118320, Note_on_c, 6, 59, 95
4, 118320, Note_on_c, 6, 56, 95
4, 118800, Note_off_c, 6, 59, 80
4, 118800, Note_off_c, 6, 56, 80
4, 118800, Note_on_c, 6, 61, 95
4, 118800, Note_on_c, 6, 56, 95
4, 118800, Note_on_c, 6, 52, 95
4, 119760, Note_off_c, 6, 61, 80
4, 119760, Note_off_c, 6, 56, 80
4, 119760, Note_off_c, 6, 52, 80
4, 119760, Note_on_c, 6, 63, 95
4, 119760, Note_on_c, 6, 59, 95
4, 119760, Note_on_c, 6, 54, 95
4, 120960, Note_off_c, 6, 63, 80
4, 120960, Note_off_c, 6, 59, 80
4, 120960, Note_off_c, 6, 54, 80
4, 121200, Note_on_c, 6, 64, 95
4, 121200, Note_on_c, 6, 61, 95
4, 121200, Note_on_c, 6, 56, 95
4, 121680, Note_off_c, 6, 64, 80
4, 121680, Note_off_c, 6, 61, 80
4, 121680, Note_off_c, 6, 56, 80
4, 121680, Note_on_c, 6, 63, 95
4, 121680, Note_on_c, 6, 59, 95
4, 121680, Note_on_c, 6, 56, 95
4, 122160, Note_off_c, 6, 63, 80
4, 122160, Note_off_c, 6, 59, 80
4, 122160, Note_off_c, 6, 56, 80
4, 122160, Note_on_c, 6, 59, 95
4, 122160, Note_on_c, 6, 56, 95
4, 122640, Note_off_c, 6, 59, 80
4, 122640, Note_off_c, 6, 56, 80
4, 122640, Note_on_c, 6, 61, 95
4, 122640, Note_on_c, 6, 56, 95
4, 122640, Note_on_c, 6, 52, 95
4, 123600, Note_off_c, 6, 61, 80
4, 123600, Note_off_c, 6, 56, 80
4, 123600, Note_off_c, 6, 52, 80
4, 123600, Note_on_c, 6, 63, 95
4, 123600, Note_on_c, 6, 59, 95
4, 123600, Note_on_c, 6, 54, 95
4, 124800, Note_off_c, 6, 63, 80
4, 124800, Note_off_c, 6, 59, 80
4, 124800, Note_off_c, 6, 54, 80
4, 125040, Note_on_c, 6, 64, 95
4, 125040, Note_on_c, 6, 61, 95
4, 125040, Note_on_c, 6, 56, 95
4, 125520, Note_off_c, 6, 64, 80
4, 125520, Note_off_c, 6, 61, 80
4, 125520, Note_off_c, 6, 56, 80
4, 125520, Note_on_c, 6, 63, 95
4, 125520, Note_on_c, 6, 59, 95
4, 125520, Note_on_c, 6, 56, 95
4, 126000, Note_off_c, 6, 63, 80
4, 126000, Note_off_c, 6, 59, 80
4, 126000, Note_off_c, 6, 56, 80
4, 126000, Note_on_c, 6, 59, 95
4, 126000, Note_on_c, 6, 56, 95
4, 126480, Note_off_c, 6, 59, 80
4, 126480, Note_off_c, 6, 56, 80
4, 126480, Note_on_c, 6, 61, 95
4, 126480, Note_on_c, 6, 56, 95
4, 126480, Note_on_c, 6, 52, 95
4, 127440, Note_off_c, 6, 61, 80
4, 127440, Note_off_c, 6, 56, 80
4, 127440, Note_off_c, 6, 52, 80
4, 127440, Note_on_c, 6, 63, 95
4, 127440, Note_on_c, 6, 59, 95
4, 127440, Note_on_c, 6, 54, 95
4, 128640, Note_off_c, 6, 63, 80
4, 128640, Note_off_c, 6, 59, 80
4, 128640, Note_off_c, 6, 54, 80
4, 128880, Note_on_c, 6, 64, 95
4, 128880, Note_on_c, 6, 61, 95
4, 128880, Note_on_c, 6, 56, 95
4, 129360, Note_off_c, 6, 64, 80
4, 129360, Note_off_c, 6, 61, 80
4, 129360, Note_off_c, 6, 56, 80
4, 129360, Note_on_c, 6, 63, 95
4, 129360, Note_on_c, 6, 59, 95
4, 129360, Note_on_c, 6, 56, 95
4, 129840, Note_off_c, 6, 63, 80
4, 129840, Note_off_c, 6, 59, 80
4, 129840, Note_off_c, 6, 56, 80
4, 129840, Note_on_c, 6, 59, 95
4, 129840, Note_on_c, 6, 56, 95
4, 130320, Note_off_c, 6, 59, 80
4, 130320, Note_off_c, 6, 56, 80
4, 130320, Note_on_c, 6, 61, 95
4, 130320, Note_on_c, 6, 56, 95
4, 130320, Note_on_c, 6, 52, 95
4, 131280, Note_off_c, 6, 61, 80
4, 131280, Note_off_c, 6, 56, 80
4, 131280, Note_off_c, 6, 52, 80
4, 131280, Note_on_c, 6, 63, 95
4, 131280, Note_on_c, 6, 59, 95
4, 131280, Note_on_c, 6, 54, 95
4, 132480, Note_off_c, 6, 63, 80
4, 132480, Note_off_c, 6, 59, 80
4, 132480, Note_off_c, 6, 54, 80
4, 132720, Note_on_c, 6, 64, 95
4, 132720, Note_on_c, 6, 61, 95
4, 132720, Note_on_c, 6, 56, 95
4, 133200, Note_off_c, 6, 64, 80
4, 133200, Note_off_c, 6, 61, 80
4, 133200, Note_off_c, 6, 56, 80
4, 133200, Note_on_c, 6, 63, 95
4, 133200, Note_on_c, 6, 59, 95
4, 133200, Note_on_c, 6, 56, 95
4, 133680, Note_off_c, 6, 63, 80
4, 133680, Note_off_c, 6, 59, 80
4, 133680, Note_off_c, 6, 56, 80
4, 133680, Note_on_c, 6, 59, 95
4, 133680, Note_on_c, 6, 56, 95
4, 134160, Note_off_c, 6, 59, 80
4, 134160, Note_off_c, 6, 56, 80
4, 134160, Note_on_c, 6, 61, 95
4, 134160, Note_on_c, 6, 56, 95
4, 134160, Note_on_c, 6, 52, 95
4, 135120, Note_off_c, 6, 61, 80
4, 135120, Note_off_c, 6, 56, 80
4, 135120, Note_off_c, 6, 52, 80
4, 135120, Note_on_c, 6, 63, 95
4, 135120, Note_on_c, 6, 59, 95
4, 135120, Note_on_c, 6, 54, 95
4, 136320, Note_off_c, 6, 63, 80
4, 136320, Note_off_c, 6, 59, 80
4, 136320, Note_off_c, 6, 54, 80
4, 136560, Note_on_c, 6, 64, 95
4, 136560, Note_on_c, 6, 61, 95
4, 136560, Note_on_c, 6, 56, 95
4, 137040, Note_off_c, 6, 64, 80
4, 137040, Note_off_c, 6, 61, 80
4, 137040, Note_off_c, 6, 56, 80
4, 137040, Note_on_c, 6, 63, 95
4, 137040, Note_on_c, 6, 59, 95
4, 137040, Note_on_c, 6, 56, 95
4, 137520, Note_off_c, 6, 63, 80
4, 137520, Note_off_c, 6, 59, 80
4, 137520, Note_off_c, 6, 56, 80
4, 137520, Note_on_c, 6, 59, 95
4, 137520, Note_on_c, 6, 56, 95
4, 138000, Note_off_c, 6, 59, 80
4, 138000, Note_off_c, 6, 56, 80
4, 138000, Note_on_c, 6, 61, 95
4, 138000, Note_on_c, 6, 56, 95
4, 138000, Note_on_c, 6, 52, 95
4, 138960, Note_off_c, 6, 61, 80
4, 138960, Note_off_c, 6, 56, 80
4, 138960, Note_off_c, 6, 52, 80
4, 138960, Note_on_c, 6, 63, 95
4, 138960, Note_on_c, 6, 59, 95
4, 138960, Note_on_c, 6, 54, 95
4, 140160, Note_off_c, 6, 63, 80
4, 140160, Note_off_c, 6, 59, 80
4, 140160, Note_off_c, 6, 54, 80
4, 140400, Note_on_c, 6, 64, 95
4, 140400, Note_on_c, 6, 61, 95
4, 140400, Note_on_c, 6, 56, 95
4, 140880, Note_off_c, 6, 64, 80
4, 140880, Note_off_c, 6, 61, 80
4, 140880, Note_off_c, 6, 56, 80
4, 140880, Note_on_c, 6, 63, 95
4, 140880, Note_on_c, 6, 59, 95
4, 140880, Note_on_c, 6, 56, 95
4, 141360, Note_off_c, 6, 63, 80
4, 141360, Note_off_c, 6, 59, 80
4, 141360, Note_off_c, 6, 56, 80
4, 141360, Note_on_c, 6, 59, 95
4, 141360, Note_on_c, 6, 56, 95
4, 141840, Note_off_c, 6, 59, 80
4, 141840, Note_off_c, 6, 56, 80
4, 141840, Note_on_c, 6, 61, 95
4, 141840, Note_on_c, 6, 56, 95
4, 141840, Note_on_c, 6, 52, 95
4, 142800, Note_off_c, 6, 61, 80
4, 142800, Note_off_c, 6, 56, 80
4, 142800, Note_off_c, 6, 52, 80
4, 142800, Note_on_c, 6, 63, 95
4, 142800, Note_on_c, 6, 59, 95
4, 142800, Note_on_c, 6, 54, 95
4, 144000, Note_off_c, 6, 63, 80
4, 144000, Note_off_c, 6, 59, 80
4, 144000, Note_off_c, 6, 54, 80
4, 144240, Note_on_c, 6, 63, 95
4, 144240, Note_on_c, 6, 59, 95
4, 144240, Note_on_c, 6, 56, 95
4, 144720, Note_off_c, 6, 63, 80
4, 144720, Note_off_c, 6, 59, 80
4, 144720, Note_off_c, 6, 56, 80
4, 144720, Note_on_c, 6, 61, 95
4, 144720, Note_on_c, 6, 58, 95
4, 144720, Note_on_c, 6, 54, 95
4, 145200, Note_off_c, 6, 61, 80
4, 145200, Note_off_c, 6, 58, 80
4, 145200, Note_off_c, 6, 54, 80
4, 145200, Note_on_c, 6, 58, 95
4, 145200, Note_on_c, 6, 54, 95
4, 145680, Note_off_c, 6, 58, 80
4, 145680, Note_off_c, 6, 54, 80
4, 145680, Note_on_c, 6, 63, 95
4, 145680, Note_on_c, 6, 59, 95
4, 145680, Note_on_c, 6, 56, 95
4, 146640, Note_off_c, 6, 63, 80
4, 146640, Note_off_c, 6, 59, 80
4, 146640, Note_off_c, 6, 56, 80
4, 146640, Note_on_c, 6, 61, 95
4, 146640, Note_on_c, 6, 58, 95
4, 146640, Note_on_c, 6, 54, 95
4, 147840, Note_off_c, 6, 61, 80
4, 147840, Note_off_c, 6, 58, 80
4, 147840, Note_off_c, 6, 54, 80
4, 148080, Note_on_c, 6, 63, 95
4, 148080, Note_on_c, 6, 59, 95
4, 148080, Note_on_c, 6, 56, 95
4, 148560, Note_off_c, 6, 63, 80
4, 148560, Note_off_c, 6, 59, 80
4, 148560, Note_off_c, 6, 56, 80
4, 148560, Note_on_c, 6, 61, 95
4, 148560, Note_on_c, 6, 58, 95
4, 148560, Note_on_c, 6, 54, 95
4, 149040, Note_off_c, 6, 61, 80
4, 149040, Note_off_c, 6, 58, 80
4, 149040, Note_off_c, 6, 54, 80
4, 149040, Note_on_c, 6, 58, 95
4, 149040, Note_on_c, 6, 54, 95
4, 149520, Note_off_c, 6, 58, 80
4, 149520, Note_off_c, 6, 54, 80
4, 149520, Note_on_c, 6, 63, 95
4, 149520, Note_on_c, 6, 59, 95
4, 149520, Note_on_c, 6, 56, 95
4, 150480, Note_off_c, 6, 63, 80
4, 150480, Note_off_c, 6, 59, 80
4, 150480, Note_off_c, 6, 56, 80
4, 150480, Note_on_c, 6, 61, 95
4, 150480, Note_on_c, 6, 58, 95
4, 150480, Note_on_c, 6, 54, 95
4, 151680, Note_off_c, 6, 61, 80
4, 151680, Note_off_c, 6, 58, 80
4, 151680, Note_off_c, 6, 54, 80
4, 151920, Note_on_c, 6, 63, 95
4, 151920, Note_on_c, 6, 59, 95
4, 151920, Note_on_c, 6, 56, 95
4, 152400, Note_off_c, 6, 63, 80
4, 152400, Note_off_c, 6, 59, 80
4, 152400, Note_off_c, 6, 56, 80
4, 152400, Note_on_c, 6, 61, 95
4, 152400, Note_on_c, 6, 58, 95
4, 152400, Note_on_c, 6, 54, 95
4, 152880, Note_off_c, 6, 61, 80
4, 152880, Note_off_c, 6, 58, 80
4, 152880, Note_off_c, 6, 54, 80
4, 152880, Note_on_c, 6, 58, 95
4, 152880, Note_on_c, 6, 54, 95
4, 153360, Note_off_c, 6, 58, 80
4, 153360, Note_off_c, 6, 54, 80
4, 153360, Note_on_c, 6, 63, 95
4, 153360, Note_on_c, 6, 59, 95
4, 153360, Note_on_c, 6, 56, 95
4, 154320, Note_off_c, 6, 63, 80
4, 154320, Note_off_c, 6, 59, 80
4, 154320, Note_off_c, 6, 56, 80
4, 154320, Note_on_c, 6, 61, 95
4, 154320, Note_on_c, 6, 58, 95
4, 154320, Note_on_c, 6, 54, 95
4, 155520, Note_off_c, 6, 61, 80
4, 155520, Note_off_c, 6, 58, 80
4, 155520, Note_off_c, 6, 54, 80
4, 155760, Note_on_c, 6, 63, 95
4, 155760, Note_on_c, 6, 59, 95
4, 155760, Note_on_c, 6, 56, 95
4, 156240, Note_off_c, 6, 63, 80
4, 156240, Note_off_c, 6, 59, 80
4, 156240, Note_off_c, 6, 56, 80
4, 156240, Note_on_c, 6, 61, 95
4, 156240, Note_on_c, 6, 58, 95
4, 156240, Note_on_c, 6, 54, 95
4, 156720, Note_off_c, 6, 61, 80
4, 156720, Note_off_c, 6, 58, 80
4, 156720, Note_off_c, 6, 54, 80
4, 156720, Note_on_c, 6, 58, 95
4, 156720, Note_on_c, 6, 54, 95
4, 157200, Note_off_c, 6, 58, 80
4, 157200, Note_off_c, 6, 54, 80
4, 157200, Note_on_c, 6, 63, 95
4, 157200, Note_on_c, 6, 59, 95
4, 157200, Note_on_c, 6, 56, 95
4, 158160, Note_off_c, 6, 63, 80
4, 158160, Note_off_c, 6, 59, 80
4, 158160, Note_off_c, 6, 56, 80
4, 158160, Note_on_c, 6, 61, 95
4, 158160, Note_on_c, 6, 58, 95
4, 158160, Note_on_c, 6, 54, 95
4, 159120, Note_off_c, 6, 61, 80
4, 159120, Note_off_c, 6, 58, 80
4, 159120, Note_off_c, 6, 54, 80
4, 159120, Note_on_c, 6, 68, 95
4, 159120, Note_on_c, 6, 64, 95
4, 159120, Note_on_c, 6, 61, 95
4, 159120, Note_on_c, 6, 57, 95
4, 159600, Note_off_c, 6, 61, 80
4, 159600, Note_on_c, 6, 61, 95
4, 159720, Note_off_c, 6, 68, 80
4, 159720, Note_off_c, 6, 64, 80
4, 159720, Note_off_c, 6, 57, 80
4, 159720, Note_off_c, 6, 61, 80
4, 160080, Note_on_c, 6, 66, 95
4, 160080, Note_on_c, 6, 63, 95
4, 160080, Note_on_c, 6, 59, 95
4, 160560, Note_off_c, 6, 66, 80
4, 160560, Note_off_c, 6, 63, 80
4, 160560, Note_off_c, 6, 59, 80
4, 160560, Note_on_c, 6, 61, 95
4, 160800, Note_off_c, 6, 61, 80
4, 160800, Note_on_c, 6, 63, 95
4, 161040, Note_off_c, 6, 63, 80
4, 161040, Note_on_c, 6, 68, 95
4, 161040, Note_on_c, 6, 64, 95
4, 161040, Note_on_c, 6, 61, 95
4, 161520, Note_off_c, 6, 68, 80
4, 161520, Note_off_c, 6, 64, 80
4, 161520, Note_off_c, 6, 61, 80
4, 161520, Note_on_c, 6, 61, 95
4, 161640, Note_off_c, 6, 61, 80
4, 162000, Note_on_c, 6, 66, 95
4, 162000, Note_on_c, 6, 63, 95
4, 162000, Note_on_c, 6, 59, 95
4, 162480, Note_off_c, 6, 66, 80
4, 162480, Note_off_c, 6, 63, 80
4, 162480, Note_off_c, 6, 59, 80
4, 162480, Note_on_c, 6, 59, 95
4, 162600, Note_off_c, 6, 59, 80
4, 162960, Note_on_c, 6, 68, 95
4, 162960, Note_on_c, 6, 64, 95
4, 162960, Note_on_c, 6, 57, 95
4, 163440, Note_off_c, 6, 68, 80
4, 163440, Note_off_c, 6, 64, 80
4, 163440, Note_off_c, 6, 57, 80
4, 163440, Note_on_c, 6, 61, 95
4, 163680, Note_off_c, 6, 61, 80
4, 163920, Note_on_c, 6, 66, 95
4, 163920, Note_on_c, 6, 63, 95
4, 163920, Note_on_c, 6, 59, 95
4, 164400, Note_off_c, 6, 63, 80
4, 164400, Note_on_c, 6, 64, 95
4, 164640, Note_off_c, 6, 64, 80
4, 164640, Note_on_c, 6, 63, 95
4, 164880, Note_off_c, 6, 59, 80
4, 164880, Note_off_c, 6, 63, 80
4, 164880, Note_on_c, 6, 61, 95
4, 164880, Note_on_c, 6, 56, 95
4, 165120, Note_off_c, 6, 66, 80
4, 165360, Note_off_c, 6, 61, 80
4, 165360, Note_off_c, 6, 56, 80
4, 165360, Note_on_c, 6, 68, 95
4, 165360, Note_on_c, 6, 64, 95
4, 165360, Note_on_c, 6, 61, 95
4, 165840, Note_off_c, 6, 68, 80
4, 165840, Note_off_c, 6, 64, 80
4, 165840, Note_off_c, 6, 61, 80
4, 165840, Note_on_c, 6, 66, 95
4, 165840, Note_on_c, 6, 63, 95
4, 165840, Note_on_c, 6, 59, 95
4, 166320, Note_off_c, 6, 66, 80
4, 166320, Note_on_c, 6, 71, 95
4, 166800, Note_off_c, 6, 63, 80
4, 166800, Note_off_c, 6, 59, 80
4, 166800, Note_off_c, 6, 71, 80
4, 166800, Note_on_c, 6, 68, 95
4, 166800, Note_on_c, 6, 64, 95
4, 166800, Note_on_c, 6, 61, 95
4, 166800, Note_on_c, 6, 57, 95
4, 167280, Note_off_c, 6, 61, 80
4, 167280, Note_on_c, 6, 61, 95
4, 167400, Note_off_c, 6, 68, 80
4, 167400, Note_off_c, 6, 64, 80
4, 167400, Note_off_c, 6, 57, 80
4, 167400, Note_off_c, 6, 61, 80
4, 167760, Note_on_c, 6, 66, 95
4, 167760, Note_on_c, 6, 63, 95
4, 167760, Note_on_c, 6, 59, 95
4, 168240, Note_off_c, 6, 66, 80
4, 168240, Note_off_c, 6, 63, 80
4, 168240, Note_off_c, 6, 59, 80
4, 168240, Note_on_c, 6, 64, 95
4, 168480, Note_off_c, 6, 64, 80
4, 168720, Note_on_c, 6, 66, 95
4, 168720, Note_on_c, 6, 63, 95
4, 168720, Note_on_c, 6, 59, 95
4, 169200, Note_off_c, 6, 66, 80
4, 169200, Note_off_c, 6, 63, 80
4, 169200, Note_off_c, 6, 59, 80
4, 169200, Note_on_c, 6, 61, 95
4, 169440, Note_off_c, 6, 61, 80
4, 169440, Note_on_c, 6, 63, 95
4, 169680, Note_off_c, 6, 63, 80
4, 169680, Note_on_c, 6, 68, 95
4, 169680, Note_on_c, 6, 64, 95
4, 169680, Note_on_c, 6, 61, 95
4, 169680, Note_on_c, 6, 57, 95
4, 170160, Note_off_c, 6, 68, 80
4, 170160, Note_off_c, 6, 64, 80
4, 170160, Note_off_c, 6, 61, 80
4, 170160, Note_off_c, 6, 57, 80
4, 170160, Note_on_c, 6, 61, 95
4, 170400, Note_off_c, 6, 61, 80
4, 170400, Note_on_c, 6, 63, 95
4, 170640, Note_off_c, 6, 63, 80
4, 170640, Note_on_c, 6, 68, 95
4, 170640, Note_on_c, 6, 64, 95
4, 170640, Note_on_c, 6, 61, 95
4, 171840, Note_off_c, 6, 68, 80
4, 171840, Note_off_c, 6, 64, 80
4, 171840, Note_off_c, 6, 61, 80
4, 172080, Note_on_c, 6, 64, 95
4, 172320, Note_off_c, 6, 64, 80
4, 172320, Note_on_c, 6, 66, 95
4, 172560, Note_off_c, 6, 66, 80
4, 172560, Note_on_c, 6, 68, 95
4, 172560, Note_on_c, 6, 64, 95
4, 172560, Note_on_c, 6, 61, 95
4, 173040, Note_off_c, 6, 68, 80
4, 173040, Note_on_c, 6, 69, 95
4, 173280, Note_off_c, 6, 69, 80
4, 173280, Note_on_c, 6, 68, 95
4, 173520, Note_off_c, 6, 64, 80
4, 173520, Note_off_c, 6, 61, 80
4, 173520, Note_off_c, 6, 68, 80
4, 173520, Note_on_c, 6, 66, 95
4, 173520, Note_on_c, 6, 59, 95
4, 174000, Note_off_c, 6, 66, 80
4, 174000, Note_off_c, 6, 59, 80
4, 174960, Note_on_c, 6, 60, 95
4, 174960, Note_on_c, 6, 56, 95
4, 174960, Note_on_c, 6, 53, 95
4, 175440, Note_off_c, 6, 60, 80
4, 175440, Note_off_c, 6, 56, 80
4, 175440, Note_off_c, 6, 53, 80
4, 175440, Note_on_c, 6, 58, 95
4, 175440, Note_on_c, 6, 55, 95
4, 175440, Note_on_c, 6, 51, 95
4, 175920, Note_off_c, 6, 58, 80
4, 175920, Note_off_c, 6, 55, 80
4, 175920, Note_off_c, 6, 51, 80
4, 175920, Note_on_c, 6, 55, 95
4, 175920, Note_on_c, 6, 51, 95
4, 176400, Note_off_c, 6, 55, 80
4, 176400, Note_off_c, 6, 51, 80
4, 176400, Note_on_c, 6, 60, 95
4, 176400, Note_on_c, 6, 56, 95
4, 176400, Note_on_c, 6, 53, 95
4, 177360, Note_off_c, 6, 60, 80
4, 177360, Note_off_c, 6, 56, 80
4, 177360, Note_off_c, 6, 53, 80
4, 177360, Note_on_c, 6, 58, 95
4, 177360, Note_on_c, 6, 55, 95
4, 177360, Note_on_c, 6, 51, 95
4, 178560, Note_off_c, 6, 58, 80
4, 178560, Note_off_c, 6, 55, 80
4, 178560, Note_off_c, 6, 51, 80
4, 178800, Note_on_c, 6, 60, 95
4, 178800, Note_on_c, 6, 56, 95
4, 178800, Note_on_c, 6, 53, 95
4, 179280, Note_off_c, 6, 60, 80
4, 179280, Note_off_c, 6, 56, 80
4, 179280, Note_off_c, 6, 53, 80
4, 179280, Note_on_c, 6, 58, 95
4, 179280, Note_on_c, 6, 55, 95
4, 179280, Note_on_c, 6, 51, 95
4, 179760, Note_off_c, 6, 58, 80
4, 179760, Note_off_c, 6, 55, 80
4, 179760, Note_off_c, 6, 51, 80
4, 179760, Note_on_c, 6, 55, 95
4, 179760, Note_on_c, 6, 51, 95
4, 180240, Note_off_c, 6, 55, 80
4, 180240, Note_off_c, 6, 51, 80
4, 180240, Note_on_c, 6, 60, 95
4, 180240, Note_on_c, 6, 56, 95
4, 180240, Note_on_c, 6, 53, 95
4, 181200, Note_off_c, 6, 60, 80
4, 181200, Note_off_c, 6, 56, 80
4, 181200, Note_off_c, 6, 53, 80
4, 181200, Note_on_c, 6, 58, 95
4, 181200, Note_on_c, 6, 55, 95
4, 181200, Note_on_c, 6, 51, 95
4, 182400, Note_off_c, 6, 58, 80
4, 182400, Note_off_c, 6, 55, 80
4, 182400, Note_off_c, 6, 51, 80
4, 182640, Note_on_c, 6, 60, 95
4, 182640, Note_on_c, 6, 56, 95
4, 182640, Note_on_c, 6, 53, 95
4, 183120, Note_off_c, 6, 60, 80
4, 183120, Note_off_c, 6, 56, 80
4, 183120, Note_off_c, 6, 53, 80
4, 183120, Note_on_c, 6, 58, 95
4, 183120, Note_on_c, 6, 55, 95
4, 183120, Note_on_c, 6, 51, 95
4, 183600, Note_off_c, 6, 58, 80
4, 183600, Note_off_c, 6, 55, 80
4, 183600, Note_off_c, 6, 51, 80
4, 183600, Note_on_c, 6, 55, 95
4, 183600, Note_on_c, 6, 51, 95
4, 184080, Note_off_c, 6, 55, 80
4, 184080, Note_off_c, 6, 51, 80
4, 184080, Note_on_c, 6, 60, 95
4, 184080, Note_on_c, 6, 56, 95
4, 184080, Note_on_c, 6, 53, 95
4, 185040, Note_off_c, 6, 60, 80
4, 185040, Note_off_c, 6, 56, 80
4, 185040, Note_off_c, 6, 53, 80
4, 185040, Note_on_c, 6, 58, 95
4, 185040, Note_on_c, 6, 55, 95
4, 185040, Note_on_c, 6, 51, 95
4, 186240, Note_off_c, 6, 58, 80
4, 186240, Note_off_c, 6, 55, 80
4, 186240, Note_off_c, 6, 51, 80
4, 186480, Note_on_c, 6, 60, 95
4, 186480, Note_on_c, 6, 56, 95
4, 186480, Note_on_c, 6, 53, 95
4, 186960, Note_off_c, 6, 60, 80
4, 186960, Note_off_c, 6, 56, 80
4, 186960, Note_off_c, 6, 53, 80
4, 186960, Note_on_c, 6, 58, 95
4, 186960, Note_on_c, 6, 55, 95
4, 186960, Note_on_c, 6, 51, 95
4, 187440, Note_off_c, 6, 58, 80
4, 187440, Note_off_c, 6, 55, 80
4, 187440, Note_off_c, 6, 51, 80
4, 187440, Note_on_c, 6, 55, 95
4, 187440, Note_on_c, 6, 51, 95
4, 187920, Note_off_c, 6, 55, 80
4, 187920, Note_off_c, 6, 51, 80
4, 187920, Note_on_c, 6, 60, 95
4, 187920, Note_on_c, 6, 56, 95
4, 187920, Note_on_c, 6, 53, 95
4, 188880, Note_off_c, 6, 60, 80
4, 188880, Note_off_c, 6, 56, 80
4, 188880, Note_off_c, 6, 53, 80
4, 188880, Note_on_c, 6, 58, 95
4, 188880, Note_on_c, 6, 55, 95
4, 188880, Note_on_c, 6, 51, 95
4, 190080, Note_off_c, 6, 58, 80
4, 190080, Note_off_c, 6, 55, 80
4, 190080, Note_off_c, 6, 51, 80
4, 190320, Note_on_c, 6, 61, 95
4, 190320, Note_on_c, 6, 57, 95
4, 190320, Note_on_c, 6, 54, 95
4, 190800, Note_off_c, 6, 61, 80
4, 190800, Note_off_c, 6, 57, 80
4, 190800, Note_off_c, 6, 54, 80
4, 190800, Note_on_c, 6, 59, 95
4, 190800, Note_on_c, 6, 56, 95
4, 190800, Note_on_c, 6, 52, 95
4, 191280, Note_off_c, 6, 59, 80
4, 191280, Note_off_c, 6, 56, 80
4, 191280, Note_off_c, 6, 52, 80
4, 191280, Note_on_c, 6, 56, 95
4, 191280, Note_on_c, 6, 52, 95
4, 191760, Note_off_c, 6, 56, 80
4, 191760, Note_off_c, 6, 52, 80
4, 191760, Note_on_c, 6, 61, 95
4, 191760, Note_on_c, 6, 57, 95
4, 191760, Note_on_c, 6, 54, 95
4, 192720, Note_off_c, 6, 61, 80
4, 192720, Note_off_c, 6, 57, 80
4, 192720, Note_off_c, 6, 54, 80
4, 192720, Note_on_c, 6, 59, 95
4, 192720, Note_on_c, 6, 56, 95
4, 192720, Note_on_c, 6, 52, 95
4, 193920, Note_off_c, 6, 59, 80
4, 193920, Note_off_c, 6, 56, 80
4, 193920, Note_off_c, 6, 52, 80
4, 194160, Note_on_c, 6, 61, 95
4, 194160, Note_on_c, 6, 57, 95
4, 194160, Note_on_c, 6, 54, 95
4, 194640, Note_off_c, 6, 61, 80
4, 194640, Note_off_c, 6, 57, 80
4, 194640, Note_off_c, 6, 54, 80
4, 194640, Note_on_c, 6, 59, 95
4, 194640, Note_on_c, 6, 56, 95
4, 194640, Note_on_c, 6, 52, 95
4, 195120, Note_off_c, 6, 59, 80
4, 195120, Note_off_c, 6, 56, 80
4, 195120, Note_off_c, 6, 52, 80
4, 195120, Note_on_c, 6, 56, 95
4, 195120, Note_on_c, 6, 52, 95
4, 195600, Note_off_c, 6, 56, 80
4, 195600, Note_off_c, 6, 52, 80
4, 195600, Note_on_c, 6, 61, 95
4, 195600, Note_on_c, 6, 57, 95
4, 195600, Note_on_c, 6, 54, 95
4, 196560, Note_off_c, 6, 61, 80
4, 196560, Note_off_c, 6, 57, 80
4, 196560, Note_off_c, 6, 54, 80
4, 196560, Note_on_c, 6, 59, 95
4, 196560, Note_on_c, 6, 56, 95
4, 196560, Note_on_c, 6, 52, 95
4, 197760, Note_off_c, 6, 59, 80
4, 197760, Note_off_c, 6, 56, 80
4, 197760, Note_off_c, 6, 52, 80
4, 198000, Note_on_c, 6, 61, 95
4, 198000, Note_on_c, 6, 57, 95
4, 198000, Note_on_c, 6, 54, 95
4, 198480, Note_off_c, 6, 61, 80
4, 198480, Note_off_c, 6, 57, 80
4, 198480, Note_off_c, 6, 54, 80
4, 198480, Note_on_c, 6, 59, 95
4, 198480, Note_on_c, 6, 56, 95
4, 198480, Note_on_c, 6, 52, 95
4, 198960, Note_off_c, 6, 59, 80
4, 198960, Note_off_c, 6, 56, 80
4, 198960, Note_off_c, 6, 52, 80
4, 198960, Note_on_c, 6, 56, 95
4, 198960, Note_on_c, 6, 52, 95
4, 199440, Note_off_c, 6, 56, 80
4, 199440, Note_off_c, 6, 52, 80
4, 199440, Note_on_c, 6, 61, 95
4, 199440, Note_on_c, 6, 57, 95
4, 199440, Note_on_c, 6, 54, 95
4, 200400, Note_off_c, 6, 61, 80
4, 200400, Note_off_c, 6, 57, 80
4, 200400, Note_off_c, 6, 54, 80
4, 200400, Note_on_c, 6, 59, 95
4, 200400, Note_on_c, 6, 56, 95
4, 200400, Note_on_c, 6, 52, 95
4, 201600, Note_off_c, 6, 59, 80
4, 201600, Note_off_c, 6, 56, 80
4, 201600, Note_off_c, 6, 52, 80
4, 201840, Note_on_c, 6, 61, 95
4, 201840, Note_on_c, 6, 57, 95
4, 201840, Note_on_c, 6, 54, 95
4, 202320, Note_off_c, 6, 61, 80
4, 202320, Note_off_c, 6, 57, 80
4, 202320, Note_off_c, 6, 54, 80
4, 202320, Note_on_c, 6, 59, 95
4, 202320, Note_on_c, 6, 56, 95
4, 202320, Note_on_c, 6, 52, 95
4, 202800, Note_off_c, 6, 59, 80
4, 202800, Note_off_c, 6, 56, 80
4, 202800, Note_off_c, 6, 52, 80
4, 202800, Note_on_c, 6, 56, 95
4, 202800, Note_on_c, 6, 52, 95
4, 203280, Note_off_c, 6, 56, 80
4, 203280, Note_off_c, 6, 52, 80
4, 203280, Note_on_c, 6, 61, 95
4, 203280, Note_on_c, 6, 57, 95
4, 203280, Note_on_c, 6, 54, 95
4, 204240, Note_off_c, 6, 61, 80
4, 204240, Note_off_c, 6, 57, 80
4, 204240, Note_off_c, 6, 54, 80
4, 204240, Note_on_c, 6, 59, 95
4, 204240, Note_on_c, 6, 56, 95
4, 204240, Note_on_c, 6, 52, 95
4, 205440, Note_off_c, 6, 59, 80
4, 205440, Note_off_c, 6, 56, 80
4, 205440, Note_off_c, 6, 52, 80
4, 205680, Note_on_c, 6, 60, 95
4, 205680, Note_on_c, 6, 56, 95
4, 205680, Note_on_c, 6, 53, 95
4, 206160, Note_off_c, 6, 60, 80
4, 206160, Note_off_c, 6, 56, 80
4, 206160, Note_off_c, 6, 53, 80
4, 206160, Note_on_c, 6, 58, 95
4, 206160, Note_on_c, 6, 55, 95
4, 206160, Note_on_c, 6, 51, 95
4, 206640, Note_off_c, 6, 58, 80
4, 206640, Note_off_c, 6, 55, 80
4, 206640, Note_off_c, 6, 51, 80
4, 206640, Note_on_c, 6, 55, 95
4, 206640, Note_on_c, 6, 51, 95
4, 207120, Note_off_c, 6, 55, 80
4, 207120, Note_off_c, 6, 51, 80
4, 207120, Note_on_c, 6, 60, 95
4, 207120, Note_on_c, 6, 56, 95
4, 207120, Note_on_c, 6, 53, 95
4, 208080, Note_off_c, 6, 60, 80
4, 208080, Note_off_c, 6, 56, 80
4, 208080, Note_off_c, 6, 53, 80
4, 208080, Note_on_c, 6, 58, 95
4, 208080, Note_on_c, 6, 55, 95
4, 208080, Note_on_c, 6, 51, 95
4, 209280, Note_off_c, 6, 58, 80
4, 209280, Note_off_c, 6, 55, 80
4, 209280, Note_off_c, 6, 51, 80
4, 209520, Note_on_c, 6, 60, 95
4, 209520, Note_on_c, 6, 56, 95
4, 209520, Note_on_c, 6, 53, 95
4, 210000, Note_off_c, 6, 60, 80
4, 210000, Note_off_c, 6, 56, 80
4, 210000, Note_off_c, 6, 53, 80
4, 210000, Note_on_c, 6, 58, 95
4, 210000, Note_on_c, 6, 55, 95
4, 210000, Note_on_c, 6, 51, 95
4, 210480, Note_off_c, 6, 58, 80
4, 210480, Note_off_c, 6, 55, 80
4, 210480, Note_off_c, 6, 51, 80
4, 210480, Note_on_c, 6, 55, 95
4, 210480, Note_on_c, 6, 51, 95
4, 210960, Note_off_c, 6, 55, 80
4, 210960, Note_off_c, 6, 51, 80
4, 210960, Note_on_c, 6, 60, 95
4, 210960, Note_on_c, 6, 56, 95
4, 210960, Note_on_c, 6, 53, 95
4, 211920, Note_off_c, 6, 60, 80
4, 211920, Note_off_c, 6, 56, 80
4, 211920, Note_off_c, 6, 53, 80
4, 211920, Note_on_c, 6, 58, 95
4, 211920, Note_on_c, 6, 55, 95
4, 211920, Note_on_c, 6, 51, 95
4, 213120, Note_off_c, 6, 58, 80
4, 213120, Note_off_c, 6, 55, 80
4, 213120, Note_off_c, 6, 51, 80
4, 213360, Note_on_c, 6, 63, 95
4, 213360, Note_on_c, 6, 59, 95
4, 213360, Note_on_c, 6, 56, 95
4, 213840, Note_off_c, 6, 63, 80
4, 213840, Note_off_c, 6, 59, 80
4, 213840, Note_off_c, 6, 56, 80
4, 213840, Note_on_c, 6, 61, 95
4, 213840, Note_on_c, 6, 58, 95
4, 213840, Note_on_c, 6, 54, 95
4, 214320, Note_off_c, 6, 61, 80
4, 214320, Note_off_c, 6, 58, 80
4, 214320, Note_off_c, 6, 54, 80
4, 214320, Note_on_c, 6, 58, 95
4, 214320, Note_on_c, 6, 54, 95
4, 214800, Note_off_c, 6, 58, 80
4, 214800, Note_off_c, 6, 54, 80
4, 214800, Note_on_c, 6, 63, 95
4, 214800, Note_on_c, 6, 59, 95
4, 214800, Note_on_c, 6, 56, 95
4, 215760, Note_off_c, 6, 63, 80
4, 215760, Note_off_c, 6, 59, 80
4, 215760, Note_off_c, 6, 56, 80
4, 215760, Note_on_c, 6, 61, 95
4, 215760, Note_on_c, 6, 58, 95
4, 215760, Note_on_c, 6, 54, 95
4, 216960, Note_off_c, 6, 61, 80
4, 216960, Note_off_c, 6, 58, 80
4, 216960, Note_off_c, 6, 54, 80
4, 217200, Note_on_c, 6, 63, 95
4, 217200, Note_on_c, 6, 59, 95
4, 217200, Note_on_c, 6, 56, 95
4, 217680, Note_off_c, 6, 63, 80
4, 217680, Note_off_c, 6, 59, 80
4, 217680, Note_off_c, 6, 56, 80
4, 217680, Note_on_c, 6, 61, 95
4, 217680, Note_on_c, 6, 58, 95
4, 217680, Note_on_c, 6, 54, 95
4, 218160, Note_off_c, 6, 61, 80
4, 218160, Note_off_c, 6, 58, 80
4, 218160, Note_off_c, 6, 54, 80
4, 218160, Note_on_c, 6, 58, 95
4, 218160, Note_on_c, 6, 54, 95
4, 218640, Note_off_c, 6, 58, 80
4, 218640, Note_off_c, 6, 54, 80
4, 218640, Note_on_c, 6, 63, 95
4, 218640, Note_on_c, 6, 59, 95
4, 218640, Note_on_c, 6, 56, 95
4, 219600, Note_off_c, 6, 63, 80
4, 219600, Note_off_c, 6, 59, 80
4, 219600, Note_off_c, 6, 56, 80
4, 219600, Note_on_c, 6, 61, 95
4, 219600, Note_on_c, 6, 58, 95
4, 219600, Note_on_c, 6, 54, 95
4, 220560, Note_off_c, 6, 61, 80
4, 220560, Note_off_c, 6, 58, 80
4, 220560, Note_off_c, 6, 54, 80
4, 220560, Note_on_c, 6, 68, 95
4, 220560, Note_on_c, 6, 64, 95
4, 220560, Note_on_c, 6, 61, 95
4, 220560, Note_on_c, 6, 57, 95
4, 221040, Note_off_c, 6, 61, 80
4, 221040, Note_on_c, 6, 61, 95
4, 221160, Note_off_c, 6, 68, 80
4, 221160, Note_off_c, 6, 64, 80
4, 221160, Note_off_c, 6, 57, 80
4, 221160, Note_off_c, 6, 61, 80
4, 221520, Note_on_c, 6, 66, 95
4, 221520, Note_on_c, 6, 63, 95
4, 221520, Note_on_c, 6, 59, 95
4, 222000, Note_off_c, 6, 66, 80
4, 222000, Note_off_c, 6, 63, 80
4, 222000, Note_off_c, 6, 59, 80
4, 222000, Note_on_c, 6, 61, 95
4, 222240, Note_off_c, 6, 61, 80
4, 222240, Note_on_c, 6, 63, 95
4, 222480, Note_off_c, 6, 63, 80
4, 222480, Note_on_c, 6, 68, 95
4, 222480, Note_on_c, 6, 64, 95
4, 222480, Note_on_c, 6, 61, 95
4, 222960, Note_off_c, 6, 68, 80
4, 222960, Note_off_c, 6, 64, 80
4, 222960, Note_off_c, 6, 61, 80
4, 222960, Note_on_c, 6, 61, 95
4, 223080, Note_off_c, 6, 61, 80
4, 223440, Note_on_c, 6, 66, 95
4, 223440, Note_on_c, 6, 63, 95
4, 223440, Note_on_c, 6, 59, 95
4, 223920, Note_off_c, 6, 66, 80
4, 223920, Note_off_c, 6, 63, 80
4, 223920, Note_off_c, 6, 59, 80
4, 223920, Note_on_c, 6, 59, 95
4, 224040, Note_off_c, 6, 59, 80
4, 224400, Note_on_c, 6, 68, 95
4, 224400, Note_on_c, 6, 64, 95
4, 224400, Note_on_c, 6, 57, 95
4, 224880, Note_off_c, 6, 68, 80
4, 224880, Note_off_c, 6, 64, 80
4, 224880, Note_off_c, 6, 57, 80
4, 224880, Note_on_c, 6, 61, 95
4, 225120, Note_off_c, 6, 61, 80
4, 225360, Note_on_c, 6, 66, 95
4, 225360, Note_on_c, 6, 63, 95
4, 225360, Note_on_c, 6, 59, 95
4, 225840, Note_off_c, 6, 63, 80
4, 225840, Note_on_c, 6, 64, 95
4, 226080, Note_off_c, 6, 64, 80
4, 226080, Note_on_c, 6, 63, 95
4, 226320, Note_off_c, 6, 59, 80
4, 226320, Note_off_c, 6, 63, 80
4, 226320, Note_on_c, 6, 61, 95
4, 226320, Note_on_c, 6, 56, 95
4, 226560, Note_off_c, 6, 66, 80
4, 226800, Note_off_c, 6, 61, 80
4, 226800, Note_off_c, 6, 56, 80
4, 226800, Note_on_c, 6, 68, 95
4, 226800, Note_on_c, 6, 64, 95
4, 226800, Note_on_c, 6, 61, 95
4, 227280, Note_off_c, 6, 68, 80
4, 227280, Note_off_c, 6, 64, 80
4, 227280, Note_off_c, 6, 61, 80
4, 227280, Note_on_c, 6, 66, 95
4, 227280, Note_on_c, 6, 63, 95
4, 227280, Note_on_c, 6, 59, 95
4, 227760, Note_off_c, 6, 66, 80
4, 227760, Note_on_c, 6, 71, 95
4, 228240, Note_off_c, 6, 63, 80
4, 228240, Note_off_c, 6, 59, 80
4, 228240, Note_off_c, 6, 71, 80
4, 228240, Note_on_c, 6, 68, 95
4, 228240, Note_on_c, 6, 64, 95
4, 228240, Note_on_c, 6, 61, 95
4, 228240, Note_on_c, 6, 57, 95
4, 228720, Note_off_c, 6, 61, 80
4, 228720, Note_on_c, 6, 61, 95
4, 228840, Note_off_c, 6, 68, 80
4, 228840, Note_off_c, 6, 64, 80
4, 228840, Note_off_c, 6, 57, 80
4, 228840, Note_off_c, 6, 61, 80
4, 229200, Note_on_c, 6, 66, 95
4, 229200, Note_on_c, 6, 63, 95
4, 229200, Note_on_c, 6, 59, 95
4, 229680, Note_off_c, 6, 66, 80
4, 229680, Note_off_c, 6, 63, 80
4, 229680, Note_off_c, 6, 59, 80
4, 229680, Note_on_c, 6, 64, 95
4, 229920, Note_off_c, 6, 64, 80
4, 230160, Note_on_c, 6, 66, 95
4, 230160, Note_on_c, 6, 63, 95
4, 230160, Note_on_c, 6, 59, 95
4, 230640, Note_off_c, 6, 66, 80
4, 230640, Note_off_c, 6, 63, 80
4, 230640, Note_off_c, 6, 59, 80
4, 230640, Note_on_c, 6, 61, 95
4, 230880, Note_off_c, 6, 61, 80
4, 230880, Note_on_c, 6, 63, 95
4, 231120, Note_off_c, 6, 63, 80
4, 231120, Note_on_c, 6, 68, 95
4, 231120, Note_on_c, 6, 64, 95
4, 231120, Note_on_c, 6, 61, 95
4, 231120, Note_on_c, 6, 57, 95
4, 231600, Note_off_c, 6, 68, 80
4, 231600, Note_off_c, 6, 64, 80
4, 231600, Note_off_c, 6, 61, 80
4, 231600, Note_off_c, 6, 57, 80
4, 231600, Note_on_c, 6, 61, 95
4, 231840, Note_off_c, 6, 61, 80
4, 231840, Note_on_c, 6, 63, 95
4, 232080, Note_off_c, 6, 63, 80
4, 232080, Note_on_c, 6, 68, 95
4, 232080, Note_on_c, 6, 64, 95
4, 232080, Note_on_c, 6, 61, 95
4, 233280, Note_off_c, 6, 68, 80
4, 233280, Note_off_c, 6, 64, 80
4, 233280, Note_off_c, 6, 61, 80
4, 233520, Note_on_c, 6, 64, 95
4, 233760, Note_off_c, 6, 64, 80
4, 233760, Note_on_c, 6, 66, 95
4, 234000, Note_off_c, 6, 66, 80
4, 234000, Note_on_c, 6, 68, 95
4, 234000, Note_on_c, 6, 64, 95
4, 234000, Note_on_c, 6, 61, 95
4, 234480, Note_off_c, 6, 68, 80
4, 234480, Note_on_c, 6, 69, 95
4, 234720, Note_off_c, 6, 69, 80
4, 234720, Note_on_c, 6, 68, 95
4, 234960, Note_off_c, 6, 64, 80
4, 234960, Note_off_c, 6, 61, 80
4, 234960, Note_off_c, 6, 68, 80
4, 234960, Note_on_c, 6, 66, 95
4, 234960, Note_on_c, 6, 59, 95
4, 235440, Note_off_c, 6, 66, 80
4, 235440, Note_off_c, 6, 59, 80
4, 235440, Note_on_c, 6, 64, 95
4, 235680, Note_off_c, 6, 64, 80
4, 235680, Note_on_c, 6, 63, 95
4, 235920, Note_off_c, 6, 63, 80
4, 235920, Note_on_c, 6, 64, 95
4, 235920, Note_on_c, 6, 61, 95
4, 236160, Note_off_c, 6, 64, 80
4, 236160, Note_off_c, 6, 61, 80
4, 267120, Note_on_c, 6, 64, 95
4, 267120, Note_on_c, 6, 61, 95
4, 267120, Note_on_c, 6, 56, 95
4, 267600, Note_off_c, 6, 64, 80
4, 267600, Note_off_c, 6, 61, 80
4, 267600, Note_off_c, 6, 56, 80
4, 267600, Note_on_c, 6, 63, 95
4, 267600, Note_on_c, 6, 59, 95
4, 267600, Note_on_c, 6, 56, 95
4, 268080, Note_off_c, 6, 63, 80
4, 268080, Note_off_c, 6, 59, 80
4, 268080, Note_off_c, 6, 56, 80
4, 268080, Note_on_c, 6, 59, 95
4, 268080, Note_on_c, 6, 56, 95
4, 268560, Note_off_c, 6, 59, 80
4, 268560, Note_off_c, 6, 56, 80
4, 268560, Note_on_c, 6, 61, 95
4, 268560, Note_on_c, 6, 56, 95
4, 268560, Note_on_c, 6, 52, 95
4, 269520, Note_off_c, 6, 61, 80
4, 269520, Note_off_c, 6, 56, 80
4, 269520, Note_off_c, 6, 52, 80
4, 269520, Note_on_c, 6, 63, 95
4, 269520, Note_on_c, 6, 59, 95
4, 269520, Note_on_c, 6, 54, 95
4, 270720, Note_off_c, 6, 63, 80
4, 270720, Note_off_c, 6, 59, 80
4, 270720, Note_off_c, 6, 54, 80
4, 270960, Note_on_c, 6, 64, 95
4, 270960, Note_on_c, 6, 61, 95
4, 270960, Note_on_c, 6, 56, 95
4, 271440, Note_off_c, 6, 64, 80
4, 271440, Note_off_c, 6, 61, 80
4, 271440, Note_off_c, 6, 56, 80
4, 271440, Note_on_c, 6, 63, 95
4, 271440, Note_on_c, 6, 59, 95
4, 271440, Note_on_c, 6, 56, 95
4, 271920, Note_off_c, 6, 63, 80
4, 271920, Note_off_c, 6, 59, 80
4, 271920, Note_off_c, 6, 56, 80
4, 271920, Note_on_c, 6, 59, 95
4, 271920, Note_on_c, 6, 56, 95
4, 272400, Note_off_c, 6, 59, 80
4, 272400, Note_off_c, 6, 56, 80
4, 272400, Note_on_c, 6, 61, 95
4, 272400, Note_on_c, 6, 56, 95
4, 272400, Note_on_c, 6, 52, 95
4, 273360, Note_off_c, 6, 61, 80
4, 273360, Note_off_c, 6, 56, 80
4, 273360, Note_off_c, 6, 52, 80
4, 273360, Note_on_c, 6, 63, 95
4, 273360, Note_on_c, 6, 59, 95
4, 273360, Note_on_c, 6, 54, 95
4, 274560, Note_off_c, 6, 63, 80
4, 274560, Note_off_c, 6, 59, 80
4, 274560, Note_off_c, 6, 54, 80
4, 274800, Note_on_c, 6, 64, 95
4, 274800, Note_on_c, 6, 61, 95
4, 274800, Note_on_c, 6, 56, 95
4, 275280, Note_off_c, 6, 64, 80
4, 275280, Note_off_c, 6, 61, 80
4, 275280, Note_off_c, 6, 56, 80
4, 275280, Note_on_c, 6, 63, 95
4, 275280, Note_on_c, 6, 59, 95
4, 275280, Note_on_c, 6, 56, 95
4, 275760, Note_off_c, 6, 63, 80
4, 275760, Note_off_c, 6, 59, 80
4, 275760, Note_off_c, 6, 56, 80
4, 275760, Note_on_c, 6, 59, 95
4, 275760, Note_on_c, 6, 56, 95
4, 276240, Note_off_c, 6, 59, 80
4, 276240, Note_off_c, 6, 56, 80
4, 276240, Note_on_c, 6, 61, 95
4, 276240, Note_on_c, 6, 56, 95
4, 276240, Note_on_c, 6, 52, 95
4, 277200, Note_off_c, 6, 61, 80
4, 277200, Note_off_c, 6, 56, 80
4, 277200, Note_off_c, 6, 52, 80
4, 277200, Note_on_c, 6, 63, 95
4, 277200, Note_on_c, 6, 59, 95
4, 277200, Note_on_c, 6, 54, 95
4, 278400, Note_off_c, 6, 63, 80
4, 278400, Note_off_c, 6, 59, 80
4, 278400, Note_off_c, 6, 54, 80
4, 278640, Note_on_c, 6, 64, 95
4, 278640, Note_on_c, 6, 61, 95
4, 278640, Note_on_c, 6, 56, 95
4, 279120, Note_off_c, 6, 64, 80
4, 279120, Note_off_c, 6, 61, 80
4, 279120, Note_off_c, 6, 56, 80
4, 279120, Note_on_c, 6, 63, 95
4, 279120, Note_on_c, 6, 59, 95
4, 279120, Note_on_c, 6, 56, 95
4, 279600, Note_off_c, 6, 63, 80
4, 279600, Note_off_c, 6, 59, 80
4, 279600, Note_off_c, 6, 56, 80
4, 279600, Note_on_c, 6, 59, 95
4, 279600, Note_on_c, 6, 56, 95
4, 280080, Note_off_c, 6, 59, 80
4, 280080, Note_off_c, 6, 56, 80
4, 280080, Note_on_c, 6, 61, 95
4, 280080, Note_on_c, 6, 56, 95
4, 280080, Note_on_c, 6, 52, 95
4, 281040, Note_off_c, 6, 61, 80
4, 281040, Note_off_c, 6, 56, 80
4, 281040, Note_off_c, 6, 52, 80
4, 281040, Note_on_c, 6, 63, 95
4, 281040, Note_on_c, 6, 59, 95
4, 281040, Note_on_c, 6, 54, 95
4, 282240, Note_off_c, 6, 63, 80
4, 282240, Note_off_c, 6, 59, 80
4, 282240, Note_off_c, 6, 54, 80
4, 282480, Note_on_c, 6, 63, 95
4, 282480, Note_on_c, 6, 59, 95
4, 282480, Note_on_c, 6, 56, 95
4, 282960, Note_off_c, 6, 63, 80
4, 282960, Note_off_c, 6, 59, 80
4, 282960, Note_off_c, 6, 56, 80
4, 282960, Note_on_c, 6, 61, 95
4, 282960, Note_on_c, 6, 58, 95
4, 282960, Note_on_c, 6, 54, 95
4, 283440, Note_off_c, 6, 61, 80
4, 283440, Note_off_c, 6, 58, 80
4, 283440, Note_off_c, 6, 54, 80
4, 283440, Note_on_c, 6, 58, 95
4, 283440, Note_on_c, 6, 54, 95
4, 283920, Note_off_c, 6, 58, 80
4, 283920, Note_off_c, 6, 54, 80
4, 283920, Note_on_c, 6, 63, 95
4, 283920, Note_on_c, 6, 59, 95
4, 283920, Note_on_c, 6, 56, 95
4, 284880, Note_off_c, 6, 63, 80
4, 284880, Note_off_c, 6, 59, 80
4, 284880, Note_off_c, 6, 56, 80
4, 284880, Note_on_c, 6, 61, 95
4, 284880, Note_on_c, 6, 58, 95
4, 284880, Note_on_c, 6, 54, 95
4, 286080, Note_off_c, 6, 61, 80
4, 286080, Note_off_c, 6, 58, 80
4, 286080, Note_off_c, 6, 54, 80
4, 286320, Note_on_c, 6, 63, 95
4, 286320, Note_on_c, 6, 59, 95
4, 286320, Note_on_c, 6, 56, 95
4, 286800, Note_off_c, 6, 63, 80
4, 286800, Note_off_c, 6, 59, 80
4, 286800, Note_off_c, 6, 56, 80
4, 286800, Note_on_c, 6, 61, 95
4, 286800, Note_on_c, 6, 58, 95
4, 286800, Note_on_c, 6, 54, 95
4, 287280, Note_off_c, 6, 61, 80
4, 287280, Note_off_c, 6, 58, 80
4, 287280, Note_off_c, 6, 54, 80
4, 287280, Note_on_c, 6, 58, 95
4, 287280, Note_on_c, 6, 54, 95
4, 287760, Note_off_c, 6, 58, 80
4, 287760, Note_off_c, 6, 54, 80
4, 287760, Note_on_c, 6, 63, 95
4, 287760, Note_on_c, 6, 59, 95
4, 287760, Note_on_c, 6, 56, 95
4, 288720, Note_off_c, 6, 63, 80
4, 288720, Note_off_c, 6, 59, 80
4, 288720, Note_off_c, 6, 56, 80
4, 288720, Note_on_c, 6, 61, 95
4, 288720, Note_on_c, 6, 58, 95
4, 288720, Note_on_c, 6, 54, 95
4, 289920, Note_off_c, 6, 61, 80
4, 289920, Note_off_c, 6, 58, 80
4, 289920, Note_off_c, 6, 54, 80
4, 290160, Note_on_c, 6, 63, 95
4, 290160, Note_on_c, 6, 59, 95
4, 290160, Note_on_c, 6, 56, 95
4, 290640, Note_off_c, 6, 63, 80
4, 290640, Note_off_c, 6, 59, 80
4, 290640, Note_off_c, 6, 56, 80
4, 290640, Note_on_c, 6, 61, 95
4, 290640, Note_on_c, 6, 58, 95
4, 290640, Note_on_c, 6, 54, 95
4, 291120, Note_off_c, 6, 61, 80
4, 291120, Note_off_c, 6, 58, 80
4, 291120, Note_off_c, 6, 54, 80
4, 291120, Note_on_c, 6, 58, 95
4, 291120, Note_on_c, 6, 54, 95
4, 291600, Note_off_c, 6, 58, 80
4, 291600, Note_off_c, 6, 54, 80
4, 291600, Note_on_c, 6, 63, 95
4, 291600, Note_on_c, 6, 59, 95
4, 291600, Note_on_c, 6, 56, 95
4, 292560, Note_off_c, 6, 63, 80
4, 292560, Note_off_c, 6, 59, 80
4, 292560, Note_off_c, 6, 56, 80
4, 292560, Note_on_c, 6, 61, 95
4, 292560, Note_on_c, 6, 58, 95
4, 292560, Note_on_c, 6, 54, 95
4, 293760, Note_off_c, 6, 61, 80
4, 293760, Note_off_c, 6, 58, 80
4, 293760, Note_off_c, 6, 54, 80
4, 294000, Note_on_c, 6, 63, 95
4, 294000, Note_on_c, 6, 59, 95
4, 294000, Note_on_c, 6, 56, 95
4, 294480, Note_off_c, 6, 63, 80
4, 294480, Note_off_c, 6, 59, 80
4, 294480, Note_off_c, 6, 56, 80
4, 294480, Note_on_c, 6, 61, 95
4, 294480, Note_on_c, 6, 58, 95
4, 294480, Note_on_c, 6, 54, 95
4, 294960, Note_off_c, 6, 61, 80
4, 294960, Note_off_c, 6, 58, 80
4, 294960, Note_off_c, 6, 54, 80
4, 294960, Note_on_c, 6, 58, 95
4, 294960, Note_on_c, 6, 54, 95
4, 295440, Note_off_c, 6, 58, 80
4, 295440, Note_off_c, 6, 54, 80
4, 295440, Note_on_c, 6, 63, 95
4, 295440, Note_on_c, 6, 59, 95
4, 295440, Note_on_c, 6, 56, 95
4, 296400, Note_off_c, 6, 63, 80
4, 296400, Note_off_c, 6, 59, 80
4, 296400, Note_off_c, 6, 56, 80
4, 296400, Note_on_c, 6, 61, 95
4, 296400, Note_on_c, 6, 58, 95
4, 296400, Note_on_c, 6, 54, 95
4, 297360, Note_off_c, 6, 61, 80
4, 297360, Note_off_c, 6, 58, 80
4, 297360, Note_off_c, 6, 54, 80
4, 297360, Note_on_c, 6, 68, 95
4, 297360, Note_on_c, 6, 64, 95
4, 297360, Note_on_c, 6, 61, 95
4, 297360, Note_on_c, 6, 57, 95
4, 297840, Note_off_c, 6, 61, 80
4, 297840, Note_on_c, 6, 61, 95
4, 297960, Note_off_c, 6, 68, 80
4, 297960, Note_off_c, 6, 64, 80
4, 297960, Note_off_c, 6, 57, 80
4, 297960, Note_off_c, 6, 61, 80
4, 298320, Note_on_c, 6, 66, 95
4, 298320, Note_on_c, 6, 63, 95
4, 298320, Note_on_c, 6, 59, 95
4, 298800, Note_off_c, 6, 66, 80
4, 298800, Note_off_c, 6, 63, 80
4, 298800, Note_off_c, 6, 59, 80
4, 298800, Note_on_c, 6, 61, 95
4, 299040, Note_off_c, 6, 61, 80
4, 299040, Note_on_c, 6, 63, 95
4, 299280, Note_off_c, 6, 63, 80
4, 299280, Note_on_c, 6, 68, 95
4, 299280, Note_on_c, 6, 64, 95
4, 299280, Note_on_c, 6, 61, 95
4, 299760, Note_off_c, 6, 68, 80
4, 299760, Note_off_c, 6, 64, 80
4, 299760, Note_off_c, 6, 61, 80
4, 299760, Note_on_c, 6, 61, 95
4, 299880, Note_off_c, 6, 61, 80
4, 300240, Note_on_c, 6, 66, 95
4, 300240, Note_on_c, 6, 63, 95
4, 300240, Note_on_c, 6, 59, 95
4, 300720, Note_off_c, 6, 66, 80
4, 300720, Note_off_c, 6, 63, 80
4, 300720, Note_off_c, 6, 59, 80
4, 300720, Note_on_c, 6, 59, 95
4, 300840, Note_off_c, 6, 59, 80
4, 301200, Note_on_c, 6, 68, 95
4, 301200, Note_on_c, 6, 64, 95
4, 301200, Note_on_c, 6, 57, 95
4, 301680, Note_off_c, 6, 68, 80
4, 301680, Note_off_c, 6, 64, 80
4, 301680, Note_off_c, 6, 57, 80
4, 301680, Note_on_c, 6, 61, 95
4, 301920, Note_off_c, 6, 61, 80
4, 302160, Note_on_c, 6, 66, 95
4, 302160, Note_on_c, 6, 63, 95
4, 302160, Note_on_c, 6, 59, 95
4, 302640, Note_off_c, 6, 63, 80
4, 302640, Note_on_c, 6, 64, 95
4, 302880, Note_off_c, 6, 64, 80
4, 302880, Note_on_c, 6, 63, 95
4, 303120, Note_off_c, 6, 59, 80
4, 303120, Note_off_c, 6, 63, 80
4, 303120, Note_on_c, 6, 61, 95
4, 303120, Note_on_c, 6, 56, 95
4, 303360, Note_off_c, 6, 66, 80
4, 303600, Note_off_c, 6, 61, 80
4, 303600, Note_off_c, 6, 56, 80
4, 303600, Note_on_c, 6, 68, 95
4, 303600, Note_on_c, 6, 64, 95
4, 303600, Note_on_c, 6, 61, 95
4, 304080, Note_off_c, 6, 68, 80
4, 304080, Note_off_c, 6, 64, 80
4, 304080, Note_off_c, 6, 61, 80
4, 304080, Note_on_c, 6, 66, 95
4, 304080, Note_on_c, 6, 63, 95
4, 304080, Note_on_c, 6, 59, 95
4, 304560, Note_off_c, 6, 66, 80
4, 304560, Note_on_c, 6, 71, 95
4, 305040, Note_off_c, 6, 63, 80
4, 305040, Note_off_c, 6, 59, 80
4, 305040, Note_off_c, 6, 71, 80
4, 305040, Note_on_c, 6, 68, 95
4, 305040, Note_on_c, 6, 64, 95
4, 305040, Note_on_c, 6, 61, 95
4, 305040, Note_on_c, 6, 57, 95
4, 305520, Note_off_c, 6, 61, 80
4, 305520, Note_on_c, 6, 61, 95
4, 305640, Note_off_c, 6, 68, 80
4, 305640, Note_off_c, 6, 64, 80
4, 305640, Note_off_c, 6, 57, 80
4, 305640, Note_off_c, 6, 61, 80
4, 306000, Note_on_c, 6, 66, 95
4, 306000, Note_on_c, 6, 63, 95
4, 306000, Note_on_c, 6, 59, 95
4, 306480, Note_off_c, 6, 66, 80
4, 306480, Note_off_c, 6, 63, 80
4, 306480, Note_off_c, 6, 59, 80
4, 306480, Note_on_c, 6, 64, 95
4, 306720, Note_off_c, 6, 64, 80
4, 306960, Note_on_c, 6, 66, 95
4, 306960, Note_on_c, 6, 63, 95
4, 306960, Note_on_c, 6, 59, 95
4, 307440, Note_off_c, 6, 66, 80
4, 307440, Note_off_c, 6, 63, 80
4, 307440, Note_off_c, 6, 59, 80
4, 307440, Note_on_c, 6, 61, 95
4, 307680, Note_off_c, 6, 61, 80
4, 307680, Note_on_c, 6, 63, 95
4, 307920, Note_off_c, 6, 63, 80
4, 307920, Note_on_c, 6, 68, 95
4, 307920, Note_on_c, 6, 64, 95
4, 307920, Note_on_c, 6, 61, 95
4, 307920, Note_on_c, 6, 57, 95
4, 308400, Note_off_c, 6, 68, 80
4, 308400, Note_off_c, 6, 64, 80
4, 308400, Note_off_c, 6, 61, 80
4, 308400, Note_off_c, 6, 57, 80
4, 308400, Note_on_c, 6, 61, 95
4, 308640, Note_off_c, 6, 61, 80
4, 308640, Note_on_c, 6, 63, 95
4, 308880, Note_off_c, 6, 63, 80
4, 308880, Note_on_c, 6, 68, 95
4, 308880, Note_on_c, 6, 64, 95
4, 308880, Note_on_c, 6, 61, 95
4, 310080, Note_off_c, 6, 68, 80
4, 310080, Note_off_c, 6, 64, 80
4, 310080, Note_off_c, 6, 61, 80
4, 310320, Note_on_c, 6, 64, 95
4, 310560, Note_off_c, 6, 64, 80
4, 310560, Note_on_c, 6, 66, 95
4, 310800, Note_off_c, 6, 66, 80
4, 310800, Note_on_c, 6, 68, 95
4, 310800, Note_on_c, 6, 64, 95
4, 310800, Note_on_c, 6, 61, 95
4, 311280, Note_off_c, 6, 68, 80
4, 311280, Note_on_c, 6, 69, 95
4, 311520, Note_off_c, 6, 69, 80
4, 311520, Note_on_c, 6, 68, 95
4, 311760, Note_off_c, 6, 64, 80
4, 311760, Note_off_c, 6, 61, 80
4, 311760, Note_off_c, 6, 68, 80
4, 311760, Note_on_c, 6, 66, 95
4, 311760, Note_on_c, 6, 59, 95
4, 312240, Note_off_c, 6, 66, 80
4, 312240, Note_off_c, 6, 59, 80
4, 312720, Note_on_c, 6, 68, 95
4, 312720, Note_on_c, 6, 64, 95
4, 312720, Note_on_c, 6, 61, 95
4, 312720, Note_on_c, 6, 57, 95
4, 313200, Note_off_c, 6, 61, 80
4, 313200, Note_on_c, 6, 61, 95
4, 313320, Note_off_c, 6, 68, 80
4, 313320, Note_off_c, 6, 64, 80
4, 313320, Note_off_c, 6, 57, 80
4, 313320, Note_off_c, 6, 61, 80
4, 313680, Note_on_c, 6, 66, 95
4, 313680, Note_on_c, 6, 63, 95
4, 313680, Note_on_c, 6, 59, 95
4, 314160, Note_off_c, 6, 66, 80
4, 314160, Note_off_c, 6, 63, 80
4, 314160, Note_off_c, 6, 59, 80
4, 314160, Note_on_c, 6, 61, 95
4, 314400, Note_off_c, 6, 61, 80
4, 314400, Note_on_c, 6, 63, 95
4, 314640, Note_off_c, 6, 63, 80
4, 314640, Note_on_c, 6, 68, 95
4, 314640, Note_on_c, 6, 64, 95
4, 314640, Note_on_c, 6, 61, 95
4, 315120, Note_off_c, 6, 68, 80
4, 315120, Note_off_c, 6, 64, 80
4, 315120, Note_off_c, 6, 61, 80
4, 315120, Note_on_c, 6, 61, 95
4, 315240, Note_off_c, 6, 61, 80
4, 315600, Note_on_c, 6, 66, 95
4, 315600, Note_on_c, 6, 63, 95
4, 315600, Note_on_c, 6, 59, 95
4, 316080, Note_off_c, 6, 66, 80
4, 316080, Note_off_c, 6, 63, 80
4, 316080, Note_off_c, 6, 59, 80
4, 316080, Note_on_c, 6, 59, 95
4, 316200, Note_off_c, 6, 59, 80
4, 316560, Note_on_c, 6, 68, 95
4, 316560, Note_on_c, 6, 64, 95
4, 316560, Note_on_c, 6, 57, 95
4, 317040, Note_off_c, 6, 68, 80
4, 317040, Note_off_c, 6, 64, 80
4, 317040, Note_off_c, 6, 57, 80
4, 317040, Note_on_c, 6, 61, 95
4, 317280, Note_off_c, 6, 61, 80
4, 317520, Note_on_c, 6, 66, 95
4, 317520, Note_on_c, 6, 63, 95
4, 317520, Note_on_c, 6, 59, 95
4, 318000, Note_off_c, 6, 63, 80
4, 318000, Note_on_c, 6, 64, 95
4, 318240, Note_off_c, 6, 64, 80
4, 318240, Note_on_c, 6, 63, 95
4, 318480, Note_off_c, 6, 59, 80
4, 318480, Note_off_c, 6, 63, 80
4, 318480, Note_on_c, 6, 61, 95
4, 318480, Note_on_c, 6, 56, 95
4, 318720, Note_off_c, 6, 66, 80
4, 318960, Note_off_c, 6, 61, 80
4, 318960, Note_off_c, 6, 56, 80
4, 318960, Note_on_c, 6, 68, 95
4, 318960, Note_on_c, 6, 64, 95
4, 318960, Note_on_c, 6, 61, 95
4, 319440, Note_off_c, 6, 68, 80
4, 319440, Note_off_c, 6, 64, 80
4, 319440, Note_off_c, 6, 61, 80
4, 319440, Note_on_c, 6, 66, 95
4, 319440, Note_on_c, 6, 63, 95
4, 319440, Note_on_c, 6, 59, 95
4, 319920, Note_off_c, 6, 66, 80
4, 319920, Note_on_c, 6, 71, 95
4, 320400, Note_off_c, 6, 63, 80
4, 320400, Note_off_c, 6, 59, 80
4, 320400, Note_off_c, 6, 71, 80
4, 320400, Note_on_c, 6, 68, 95
4, 320400, Note_on_c, 6, 64, 95
4, 320400, Note_on_c, 6, 61, 95
4, 320400, Note_on_c, 6, 57, 95
4, 320880, Note_off_c, 6, 61, 80
4, 320880, Note_on_c, 6, 61, 95
4, 321000, Note_off_c, 6, 68, 80
4, 321000, Note_off_c, 6, 64, 80
4, 321000, Note_off_c, 6, 57, 80
4, 321000, Note_off_c, 6, 61, 80
4, 321360, Note_on_c, 6, 66, 95
4, 321360, Note_on_c, 6, 63, 95
4, 321360, Note_on_c, 6, 59, 95
4, 321840, Note_off_c, 6, 66, 80
4, 321840, Note_off_c, 6, 63, 80
4, 321840, Note_off_c, 6, 59, 80
4, 321840, Note_on_c, 6, 64, 95
4, 322080, Note_off_c, 6, 64, 80
4, 322320, Note_on_c, 6, 66, 95
4, 322320, Note_on_c, 6, 63, 95
4, 322320, Note_on_c, 6, 59, 95
4, 322800, Note_off_c, 6, 66, 80
4, 322800, Note_off_c, 6, 63, 80
4, 322800, Note_off_c, 6, 59, 80
4, 322800, Note_on_c, 6, 61, 95
4, 323040, Note_off_c, 6, 61, 80
4, 323040, Note_on_c, 6, 63, 95
4, 323280, Note_off_c, 6, 63, 80
4, 323280, Note_on_c, 6, 68, 95
4, 323280, Note_on_c, 6, 64, 95
4, 323280, Note_on_c, 6, 61, 95
4, 323280, Note_on_c, 6, 57, 95
4, 323760, Note_off_c, 6, 68, 80
4, 323760, Note_off_c, 6, 64, 80
4, 323760, Note_off_c, 6, 61, 80
4, 323760, Note_off_c, 6, 57, 80
4, 323760, Note_on_c, 6, 61, 95
4, 324000, Note_off_c, 6, 61, 80
4, 324000, Note_on_c, 6, 63, 95
4, 324240, Note_off_c, 6, 63, 80
4, 324240, Note_on_c, 6, 68, 95
4, 324240, Note_on_c, 6, 64, 95
4, 324240, Note_on_c, 6, 61, 95
4, 325440, Note_off_c, 6, 68, 80
4, 325440, Note_off_c, 6, 64, 80
4, 325440, Note_off_c, 6, 61, 80
4, 325680, Note_on_c, 6, 64, 95
4, 325920, Note_off_c, 6, 64, 80
4, 325920, Note_on_c, 6, 66, 95
4, 326160, Note_off_c, 6, 66, 80
4, 326160, Note_on_c, 6, 68, 95
4, 326160, Note_on_c, 6, 64, 95
4, 326160, Note_on_c, 6, 61, 95
4, 326640, Note_off_c, 6, 68, 80
4, 326640, Note_on_c, 6, 69, 95
4, 326880, Note_off_c, 6, 69, 80
4, 326880, Note_on_c, 6, 68, 95
4, 327120, Note_off_c, 6, 64, 80
4, 327120, Note_off_c, 6, 61, 80
4, 327120, Note_off_c, 6, 68, 80
4, 327120, Note_on_c, 6, 66, 95
4, 327120, Note_on_c, 6, 59, 95
4, 327600, Note_off_c, 6, 66, 80
4, 327600, Note_off_c, 6, 59, 80
4, 327600, Note_on_c, 6, 64, 95
4, 327840, Note_off_c, 6, 64, 80
4, 327840, Note_on_c, 6, 63, 95
4, 328080, Note_off_c, 6, 63, 80
4, 328080, Note_on_c, 6, 64, 95
4, 328080, Note_on_c, 6, 61, 95
4, 328560, Note_off_c, 6, 64, 80
4, 328560, Note_off_c, 6, 61, 80
4, 328560, Note_on_c, 6, 64, 95
4, 328560, Note_on_c, 6, 61, 95
4, 328560, Note_on_c, 6, 56, 95
4, 329040, Note_off_c, 6, 64, 80
4, 329040, Note_off_c, 6, 61, 80
4, 329040, Note_off_c, 6, 56, 80
4, 329040, Note_on_c, 6, 63, 95
4, 329040, Note_on_c, 6, 59, 95
4, 329040, Note_on_c, 6, 56, 95
4, 329520, Note_off_c, 6, 63, 80
4, 329520, Note_off_c, 6, 59, 80
4, 329520, Note_off_c, 6, 56, 80
4, 329520, Note_on_c, 6, 59, 95
4, 329520, Note_on_c, 6, 56, 95
4, 330000, Note_off_c, 6, 59, 80
4, 330000, Note_off_c, 6, 56, 80
4, 330000, Note_on_c, 6, 61, 95
4, 330000, Note_on_c, 6, 56, 95
4, 330000, Note_on_c, 6, 52, 95
4, 330960, Note_off_c, 6, 61, 80
4, 330960, Note_off_c, 6, 56, 80
4, 330960, Note_off_c, 6, 52, 80
4, 330960, Note_on_c, 6, 63, 95
4, 330960, Note_on_c, 6, 59, 95
4, 330960, Note_on_c, 6, 54, 95
4, 332400, Note_off_c, 6, 63, 80
4, 332400, Note_off_c, 6, 59, 80
4, 332400, Note_off_c, 6, 54, 80
4, 332400, Note_on_c, 6, 64, 95
4, 332400, Note_on_c, 6, 61, 95
4, 332400, Note_on_c, 6, 56, 95
4, 332880, Note_off_c, 6, 64, 80
4, 332880, Note_off_c, 6, 61, 80
4, 332880, Note_off_c, 6, 56, 80
4, 332880, Note_on_c, 6, 63, 95
4, 332880, Note_on_c, 6, 59, 95
4, 332880, Note_on_c, 6, 56, 95
4, 333360, Note_off_c, 6, 63, 80
4, 333360, Note_off_c, 6, 59, 80
4, 333360, Note_off_c, 6, 56, 80
4, 333360, Note_on_c, 6, 59, 95
4, 333360, Note_on_c, 6, 56, 95
4, 333840, Note_off_c, 6, 59, 80
4, 333840, Note_off_c, 6, 56, 80
4, 333840, Note_on_c, 6, 61, 95
4, 333840, Note_on_c, 6, 56, 95
4, 333840, Note_on_c, 6, 52, 95
4, 334800, Note_off_c, 6, 61, 80
4, 334800, Note_off_c, 6, 56, 80
4, 334800, Note_off_c, 6, 52, 80
4, 334800, Note_on_c, 6, 63, 95
4, 334800, Note_on_c, 6, 59, 95
4, 334800, Note_on_c, 6, 54, 95
4, 336240, Note_off_c, 6, 63, 80
4, 336240, Note_off_c, 6, 59, 80
4, 336240, Note_off_c, 6, 54, 80
4, 336240, Note_on_c, 6, 64, 95
4, 336240, Note_on_c, 6, 61, 95
4, 336240, Note_on_c, 6, 56, 95
4, 336720, Note_off_c, 6, 64, 80
4, 336720, Note_off_c, 6, 61, 80
4, 336720, Note_off_c, 6, 56, 80
4, 336720, Note_on_c, 6, 63, 95
4, 336720, Note_on_c, 6, 59, 95
4, 336720, Note_on_c, 6, 56, 95
4, 337200, Note_off_c, 6, 63, 80
4, 337200, Note_off_c, 6, 59, 80
4, 337200, Note_off_c, 6, 56, 80
4, 337200, Note_on_c, 6, 59, 95
4, 337200, Note_on_c, 6, 56, 95
4, 337680, Note_off_c, 6, 59, 80
4, 337680, Note_off_c, 6, 56, 80
4, 337680, Note_on_c, 6, 61, 95
4, 337680, Note_on_c, 6, 56, 95
4, 337680, Note_on_c, 6, 52, 95
4, 338640, Note_off_c, 6, 61, 80
4, 338640, Note_off_c, 6, 56, 80
4, 338640, Note_off_c, 6, 52, 80
4, 338640, Note_on_c, 6, 63, 95
4, 338640, Note_on_c, 6, 59, 95
4, 338640, Note_on_c, 6, 54, 95
4, 339840, Control_c, 6, 7, 80
4, 339840, Control_c, 7, 7, 80
4, 340080, Note_off_c, 6, 63, 80
4, 340080, Note_off_c, 6, 59, 80
4, 340080, Note_off_c, 6, 54, 80
4, 340080, Note_on_c, 6, 64, 95
4, 340080, Note_on_c, 6, 61, 95
4, 340080, Note_on_c, 6, 56, 95
4, 340560, Note_off_c, 6, 64, 80
4, 340560, Note_off_c, 6, 61, 80
4, 340560, Note_off_c, 6, 56, 80
4, 340560, Note_on_c, 6, 63, 95
4, 340560, Note_on_c, 6, 59, 95
4, 340560, Note_on_c, 6, 56, 95
4, 341040, Note_off_c, 6, 63, 80
4, 341040, Note_off_c, 6, 59, 80
4, 341040, Note_off_c, 6, 56, 80
4, 341040, Control_c, 6, 7, 64
4, 341040, Control_c, 7, 7, 64
4, 341040, Note_on_c, 6, 59, 95
4, 341040, Note_on_c, 6, 56, 95
4, 341520, Note_off_c, 6, 59, 80
4, 341520, Note_off_c, 6, 56, 80
4, 341520, Note_on_c, 6, 61, 95
4, 341520, Note_on_c, 6, 56, 95
4, 341520, Note_on_c, 6, 52, 95
4, 342480, Note_off_c, 6, 61, 80
4, 342480, Note_off_c, 6, 56, 80
4, 342480, Note_off_c, 6, 52, 80
4, 342480, Control_c, 6, 7, 64
4, 342480, Control_c, 7, 7, 64
4, 342480, Note_on_c, 6, 63, 95
4, 342480, Note_on_c, 6, 59, 95
4, 342480, Note_on_c, 6, 54, 95
4, 343680, Control_c, 6, 7, 80
4, 343680, Control_c, 7, 7, 80
4, 343920, Note_off_c, 6, 63, 80
4, 343920, Note_off_c, 6, 59, 80
4, 343920, Note_off_c, 6, 54, 80
4, 343920, Note_on_c, 6, 64, 95
4, 343920, Note_on_c, 6, 61, 95
4, 343920, Note_on_c, 6, 56, 95
4, 344400, Note_off_c, 6, 64, 80
4, 344400, Note_off_c, 6, 61, 80
4, 344400, Note_off_c, 6, 56, 80
4, 344400, Note_on_c, 6, 63, 95
4, 344400, Note_on_c, 6, 59, 95
4, 344400, Note_on_c, 6, 56, 95
4, 344880, Note_off_c, 6, 63, 80
4, 344880, Note_off_c, 6, 59, 80
4, 344880, Note_off_c, 6, 56, 80
4, 344880, Control_c, 6, 7, 72
4, 344880, Control_c, 7, 7, 72
4, 344880, Note_on_c, 6, 59, 95
4, 344880, Note_on_c, 6, 56, 95
4, 345360, Note_off_c, 6, 59, 80
4, 345360, Note_off_c, 6, 56, 80
4, 345360, Note_on_c, 6, 61, 95
4, 345360, Note_on_c, 6, 56, 95
4, 345360, Note_on_c, 6, 52, 95
4, 345600, Control_c, 6, 7, 64
4, 345600, Control_c, 7, 7, 64
4, 346320, Note_off_c, 6, 61, 80
4, 346320, Note_off_c, 6, 56, 80
4, 346320, Note_off_c, 6, 52, 80
4, 346320, Control_c, 6, 7, 56
4, 346320, Control_c, 7, 7, 56
4, 346320, Note_on_c, 6, 63, 95
4, 346320, Note_on_c, 6, 59, 95
4, 346320, Note_on_c, 6, 54, 95
4, 347520, Note_off_c, 6, 63, 80
4, 347520, Note_off_c, 6, 59, 80
4, 347520, Note_off_c, 6, 54, 80
4, 347520, Control_c, 6, 7, 48
4, 347520, Control_c, 7, 7, 48
4, 347760, Note_on_c, 6, 64, 95
4, 347760, Note_on_c, 6, 61, 95
4, 347760, Note_on_c, 6, 56, 95
4, 348240, Note_off_c, 6, 64, 80
4, 348240, Note_off_c, 6, 61, 80
4, 348240, Note_off_c, 6, 56, 80
4, 348240, Note_on_c, 6, 63, 95
4, 348240, Note_on_c, 6, 59, 95
4, 348240, Note_on_c, 6, 56, 95
4, 348720, Note_off_c, 6, 63, 80
4, 348720, Note_off_c, 6, 59, 80
4, 348720, Note_off_c, 6, 56, 80
4, 348720, Control_c, 6, 7, 40
4, 348720, Control_c, 7, 7, 40
4, 348720, Note_on_c, 6, 59, 95
4, 348720, Note_on_c, 6, 56, 95
4, 349200, Note_off_c, 6, 59, 80
4, 349200, Note_off_c, 6, 56, 80
4, 349200, Note_on_c, 6, 61, 95
4, 349200, Note_on_c, 6, 56, 95
4, 349200, Note_on_c, 6, 52, 95
4, 349440, Control_c, 6, 7, 32
4, 349440, Control_c, 7, 7, 32
4, 350160, Note_off_c, 6, 61, 80
4, 350160, Note_off_c, 6, 56, 80
4, 350160, Note_off_c, 6, 52, 80
4, 350160, Control_c, 6, 7, 24
4, 350160, Control_c, 7, 7, 24
4, 350160, Note_on_c, 6, 63, 95
4, 350160, Note_on_c, 6, 59, 95
4, 350160, Note_on_c, 6, 54, 95
4, 351360, Control_c, 6, 7, 16
4, 351360, Control_c, 7, 7, 16
4, 351600, Note_off_c, 6, 63, 80
4, 351600, Note_off_c, 6, 59, 80
4, 351600, Note_off_c, 6, 54, 80
4, 351600, Note_on_c, 6, 64, 95
4, 351600, Note_on_c, 6, 61, 95
4, 351600, Note_on_c, 6, 56, 95
4, 352080, Note_off_c, 6, 64, 80
4, 352080, Note_off_c, 6, 61, 80
4, 352080, Note_off_c, 6, 56, 80
4, 352080, Control_c, 6, 7, 8
4, 352080, Control_c, 7, 7, 8
4, 352080, Note_on_c, 6, 63, 95
4, 352080, Note_on_c, 6, 59, 95
4, 352080, Note_on_c, 6, 56, 95
4, 352560, Note_off_c, 6, 63, 80
4, 352560, Note_off_c, 6, 59, 80
4, 352560, Note_off_c, 6, 56, 80
4, 352560, Note_on_c, 6, 59, 95
4, 352560, Note_on_c, 6, 56, 95
4, 353040, Note_off_c, 6, 59, 80
4, 353040, Note_off_c, 6, 56, 80
4, 353040, Note_on_c, 6, 61, 95
4, 353040, Note_on_c, 6, 56, 95
4, 353040, Note_on_c, 6, 52, 95
4, 353280, Note_off_c, 6, 61, 80
4, 353280, Note_off_c, 6, 56, 80
4, 353280, Note_off_c, 6, 52, 80
4, 353280, End_track
5, 0, Start_track
5, 0, Title_t, "Clavs"
5, 0, Control_c, 8, 100, 0
5, 0, Control_c, 8, 101, 0
5, 0, Control_c, 8, 6, 8
5, 0, Pitch_bend_c, 8, 8192
5, 0, Control_c, 10, 100, 0
5, 0, Control_c, 10, 101, 0
5, 0, Control_c, 10, 6, 8
5, 0, Pitch_bend_c, 10, 8192
5, 0, Program_c, 8, 45
5, 0, Program_c, 10, 45
5, 0, Control_c, 8, 7, 72
5, 0, Control_c, 10, 7, 72
5, 0, Control_c, 8, 10, 96
5, 0, Control_c, 10, 10, 96
5, 0, Control_c, 8, 93, 0
5, 0, Control_c, 10, 93, 0
5, 0, Control_c, 8, 91, 0
5, 0, Control_c, 10, 91, 0
5, 0, Control_c, 8, 92, 0
5, 0, Control_c, 10, 92, 0
5, 0, Control_c, 8, 95, 0
5, 0, Control_c, 10, 95, 0
5, 24480, Note_on_c, 8, 64, 95
5, 24720, Note_off_c, 8, 64, 80
5, 24720, Note_on_c, 8, 66, 95
5, 24960, Note_off_c, 8, 66, 80
5, 24960, Note_on_c, 8, 67, 95
5, 25440, Note_off_c, 8, 67, 80
5, 25440, Note_on_c, 8, 67, 95
5, 25680, Note_off_c, 8, 67, 80
5, 25680, Note_on_c, 8, 66, 95
5, 26160, Note_off_c, 8, 66, 80
5, 26160, Note_on_c, 8, 64, 95
5, 26640, Note_off_c, 8, 64, 80
5, 26640, Note_on_c, 8, 64, 95
5, 27120, Note_off_c, 8, 64, 80
5, 27120, Note_on_c, 8, 62, 95
5, 27600, Note_off_c, 8, 62, 80
5, 27600, Note_on_c, 8, 62, 95
5, 28080, Note_off_c, 8, 62, 80
5, 28080, Note_on_c, 8, 64, 95
5, 28800, Note_off_c, 8, 64, 80
5, 36720, Note_on_c, 8, 64, 95
5, 36720, Note_on_c, 8, 61, 95
5, 36960, Note_off_c, 8, 64, 80
5, 36960, Note_off_c, 8, 61, 80
5, 37200, Note_on_c, 8, 63, 95
5, 37200, Note_on_c, 8, 59, 95
5, 37440, Note_off_c, 8, 63, 80
5, 37440, Note_off_c, 8, 59, 80
5, 37680, Note_on_c, 8, 63, 95
5, 37680, Note_on_c, 8, 59, 95
5, 37920, Note_off_c, 8, 63, 80
5, 37920, Note_off_c, 8, 59, 80
5, 38160, Note_on_c, 8, 64, 95
5, 38160, Note_on_c, 8, 61, 95
5, 38400, Note_off_c, 8, 64, 80
5, 38400, Note_off_c, 8, 61, 80
5, 38640, Note_on_c, 8, 64, 95
5, 38640, Note_on_c, 8, 61, 95
5, 38880, Note_off_c, 8, 64, 80
5, 38880, Note_off_c, 8, 61, 80
5, 39120, Note_on_c, 8, 68, 95
5, 39120, Note_on_c, 8, 63, 95
5, 39120, Note_on_c, 8, 59, 95
5, 39360, Note_off_c, 8, 68, 80
5, 39360, Note_off_c, 8, 63, 80
5, 39360, Note_off_c, 8, 59, 80
5, 39600, Note_on_c, 8, 63, 95
5, 39600, Note_on_c, 8, 59, 95
5, 39840, Note_off_c, 8, 63, 80
5, 39840, Note_off_c, 8, 59, 80
5, 40080, Note_on_c, 8, 64, 95
5, 40080, Note_on_c, 8, 61, 95
5, 40200, Note_off_c, 8, 64, 80
5, 40200, Note_off_c, 8, 61, 80
5, 40560, Note_on_c, 8, 64, 95
5, 40560, Note_on_c, 8, 61, 95
5, 40800, Note_off_c, 8, 64, 80
5, 40800, Note_off_c, 8, 61, 80
5, 41040, Note_on_c, 8, 63, 95
5, 41040, Note_on_c, 8, 59, 95
5, 41280, Note_off_c, 8, 63, 80
5, 41280, Note_off_c, 8, 59, 80
5, 41520, Note_on_c, 8, 63, 95
5, 41520, Note_on_c, 8, 59, 95
5, 41760, Note_off_c, 8, 63, 80
5, 41760, Note_off_c, 8, 59, 80
5, 42000, Note_on_c, 8, 68, 95
5, 42000, Note_on_c, 8, 61, 95
5, 42240, Note_off_c, 8, 68, 80
5, 42240, Note_off_c, 8, 61, 80
5, 42480, Note_on_c, 8, 68, 95
5, 42480, Note_on_c, 8, 61, 95
5, 42720, Note_off_c, 8, 68, 80
5, 42720, Note_off_c, 8, 61, 80
5, 42960, Note_on_c, 8, 66, 95
5, 42960, Note_on_c, 8, 63, 95
5, 42960, Note_on_c, 8, 59, 95
5, 43200, Note_off_c, 8, 66, 80
5, 43200, Note_off_c, 8, 63, 80
5, 43200, Note_off_c, 8, 59, 80
5, 43440, Note_on_c, 8, 63, 95
5, 43440, Note_on_c, 8, 59, 95
5, 43680, Note_off_c, 8, 63, 80
5, 43680, Note_off_c, 8, 59, 80
5, 43920, Note_on_c, 8, 64, 95
5, 43920, Note_on_c, 8, 61, 95
5, 44040, Note_off_c, 8, 64, 80
5, 44040, Note_off_c, 8, 61, 80
5, 44400, Note_on_c, 8, 64, 95
5, 44400, Note_on_c, 8, 61, 95
5, 44640, Note_off_c, 8, 64, 80
5, 44640, Note_off_c, 8, 61, 80
5, 44880, Note_on_c, 8, 63, 95
5, 44880, Note_on_c, 8, 59, 95
5, 45120, Note_off_c, 8, 63, 80
5, 45120, Note_off_c, 8, 59, 80
5, 45360, Note_on_c, 8, 63, 95
5, 45360, Note_on_c, 8, 59, 95
5, 45600, Note_off_c, 8, 63, 80
5, 45600, Note_off_c, 8, 59, 80
5, 45840, Note_on_c, 8, 64, 95
5, 45840, Note_on_c, 8, 61, 95
5, 46080, Note_off_c, 8, 64, 80
5, 46080, Note_off_c, 8, 61, 80
5, 46320, Note_on_c, 8, 64, 95
5, 46320, Note_on_c, 8, 61, 95
5, 46560, Note_off_c, 8, 64, 80
5, 46560, Note_off_c, 8, 61, 80
5, 46800, Note_on_c, 8, 68, 95
5, 46800, Note_on_c, 8, 63, 95
5, 46800, Note_on_c, 8, 59, 95
5, 47040, Note_off_c, 8, 68, 80
5, 47040, Note_off_c, 8, 63, 80
5, 47040, Note_off_c, 8, 59, 80
5, 47280, Note_on_c, 8, 63, 95
5, 47280, Note_on_c, 8, 59, 95
5, 47520, Note_off_c, 8, 63, 80
5, 47520, Note_off_c, 8, 59, 80
5, 47760, Note_on_c, 8, 64, 95
5, 47760, Note_on_c, 8, 61, 95
5, 47880, Note_off_c, 8, 64, 80
5, 47880, Note_off_c, 8, 61, 80
5, 48240, Note_on_c, 8, 64, 95
5, 48240, Note_on_c, 8, 61, 95
5, 48480, Note_off_c, 8, 64, 80
5, 48480, Note_off_c, 8, 61, 80
5, 48720, Note_on_c, 8, 63, 95
5, 48720, Note_on_c, 8, 59, 95
5, 48960, Note_off_c, 8, 63, 80
5, 48960, Note_off_c, 8, 59, 80
5, 49200, Note_on_c, 8, 63, 95
5, 49200, Note_on_c, 8, 59, 95
5, 49440, Note_off_c, 8, 63, 80
5, 49440, Note_off_c, 8, 59, 80
5, 49680, Note_on_c, 8, 68, 95
5, 49680, Note_on_c, 8, 61, 95
5, 49920, Note_off_c, 8, 68, 80
5, 49920, Note_off_c, 8, 61, 80
5, 50160, Note_on_c, 8, 68, 95
5, 50160, Note_on_c, 8, 61, 95
5, 50400, Note_off_c, 8, 68, 80
5, 50400, Note_off_c, 8, 61, 80
5, 50640, Note_on_c, 8, 66, 95
5, 50640, Note_on_c, 8, 63, 95
5, 50640, Note_on_c, 8, 59, 95
5, 50880, Note_off_c, 8, 66, 80
5, 50880, Note_off_c, 8, 63, 80
5, 50880, Note_off_c, 8, 59, 80
5, 51120, Note_on_c, 8, 63, 95
5, 51120, Note_on_c, 8, 59, 95
5, 51360, Note_off_c, 8, 63, 80
5, 51360, Note_off_c, 8, 59, 80
5, 51600, Note_on_c, 8, 64, 95
5, 51600, Note_on_c, 8, 61, 95
5, 51720, Note_off_c, 8, 64, 80
5, 51720, Note_off_c, 8, 61, 80
5, 52080, Note_on_c, 8, 64, 95
5, 52080, Note_on_c, 8, 61, 95
5, 52320, Note_off_c, 8, 64, 80
5, 52320, Note_off_c, 8, 61, 80
5, 52560, Note_on_c, 8, 63, 95
5, 52560, Note_on_c, 8, 59, 95
5, 52800, Note_off_c, 8, 63, 80
5, 52800, Note_off_c, 8, 59, 80
5, 53040, Note_on_c, 8, 63, 95
5, 53040, Note_on_c, 8, 59, 95
5, 53280, Note_off_c, 8, 63, 80
5, 53280, Note_off_c, 8, 59, 80
5, 53520, Note_on_c, 8, 64, 95
5, 53520, Note_on_c, 8, 61, 95
5, 53760, Note_off_c, 8, 64, 80
5, 53760, Note_off_c, 8, 61, 80
5, 54000, Note_on_c, 8, 64, 95
5, 54000, Note_on_c, 8, 61, 95
5, 54240, Note_off_c, 8, 64, 80
5, 54240, Note_off_c, 8, 61, 80
5, 54480, Note_on_c, 8, 68, 95
5, 54480, Note_on_c, 8, 63, 95
5, 54480, Note_on_c, 8, 59, 95
5, 54720, Note_off_c, 8, 68, 80
5, 54720, Note_off_c, 8, 63, 80
5, 54720, Note_off_c, 8, 59, 80
5, 54960, Note_on_c, 8, 63, 95
5, 54960, Note_on_c, 8, 59, 95
5, 55200, Note_off_c, 8, 63, 80
5, 55200, Note_off_c, 8, 59, 80
5, 55440, Note_on_c, 8, 64, 95
5, 55440, Note_on_c, 8, 61, 95
5, 55560, Note_off_c, 8, 64, 80
5, 55560, Note_off_c, 8, 61, 80
5, 55920, Note_on_c, 8, 64, 95
5, 55920, Note_on_c, 8, 61, 95
5, 56160, Note_off_c, 8, 64, 80
5, 56160, Note_off_c, 8, 61, 80
5, 56400, Note_on_c, 8, 63, 95
5, 56400, Note_on_c, 8, 59, 95
5, 56640, Note_off_c, 8, 63, 80
5, 56640, Note_off_c, 8, 59, 80
5, 56880, Note_on_c, 8, 63, 95
5, 56880, Note_on_c, 8, 59, 95
5, 57120, Note_off_c, 8, 63, 80
5, 57120, Note_off_c, 8, 59, 80
5, 57360, Note_on_c, 8, 68, 95
5, 57360, Note_on_c, 8, 61, 95
5, 57600, Note_off_c, 8, 68, 80
5, 57600, Note_off_c, 8, 61, 80
5, 57840, Note_on_c, 8, 68, 95
5, 57840, Note_on_c, 8, 61, 95
5, 58080, Note_off_c, 8, 68, 80
5, 58080, Note_off_c, 8, 61, 80
5, 58320, Note_on_c, 8, 66, 95
5, 58320, Note_on_c, 8, 63, 95
5, 58320, Note_on_c, 8, 59, 95
5, 58560, Note_off_c, 8, 66, 80
5, 58560, Note_off_c, 8, 63, 80
5, 58560, Note_off_c, 8, 59, 80
5, 58800, Note_on_c, 8, 63, 95
5, 58800, Note_on_c, 8, 59, 95
5, 59040, Note_off_c, 8, 63, 80
5, 59040, Note_off_c, 8, 59, 80
5, 59280, Note_on_c, 8, 64, 95
5, 59280, Note_on_c, 8, 61, 95
5, 59400, Note_off_c, 8, 64, 80
5, 59400, Note_off_c, 8, 61, 80
5, 59760, Note_on_c, 8, 64, 95
5, 59760, Note_on_c, 8, 61, 95
5, 60000, Note_off_c, 8, 64, 80
5, 60000, Note_off_c, 8, 61, 80
5, 60240, Note_on_c, 8, 63, 95
5, 60240, Note_on_c, 8, 59, 95
5, 60480, Note_off_c, 8, 63, 80
5, 60480, Note_off_c, 8, 59, 80
5, 60720, Note_on_c, 8, 63, 95
5, 60720, Note_on_c, 8, 59, 95
5, 60960, Note_off_c, 8, 63, 80
5, 60960, Note_off_c, 8, 59, 80
5, 61200, Note_on_c, 8, 64, 95
5, 61200, Note_on_c, 8, 61, 95
5, 61440, Note_off_c, 8, 64, 80
5, 61440, Note_off_c, 8, 61, 80
5, 61680, Note_on_c, 8, 64, 95
5, 61680, Note_on_c, 8, 61, 95
5, 61920, Note_off_c, 8, 64, 80
5, 61920, Note_off_c, 8, 61, 80
5, 62160, Note_on_c, 8, 68, 95
5, 62160, Note_on_c, 8, 63, 95
5, 62160, Note_on_c, 8, 59, 95
5, 62400, Note_off_c, 8, 68, 80
5, 62400, Note_off_c, 8, 63, 80
5, 62400, Note_off_c, 8, 59, 80
5, 62640, Note_on_c, 8, 63, 95
5, 62640, Note_on_c, 8, 59, 95
5, 62880, Note_off_c, 8, 63, 80
5, 62880, Note_off_c, 8, 59, 80
5, 63120, Note_on_c, 8, 64, 95
5, 63120, Note_on_c, 8, 61, 95
5, 63240, Note_off_c, 8, 64, 80
5, 63240, Note_off_c, 8, 61, 80
5, 63600, Note_on_c, 8, 64, 95
5, 63600, Note_on_c, 8, 61, 95
5, 63840, Note_off_c, 8, 64, 80
5, 63840, Note_off_c, 8, 61, 80
5, 64080, Note_on_c, 8, 63, 95
5, 64080, Note_on_c, 8, 59, 95
5, 64320, Note_off_c, 8, 63, 80
5, 64320, Note_off_c, 8, 59, 80
5, 64560, Note_on_c, 8, 63, 95
5, 64560, Note_on_c, 8, 59, 95
5, 64800, Note_off_c, 8, 63, 80
5, 64800, Note_off_c, 8, 59, 80
5, 65040, Note_on_c, 8, 68, 95
5, 65040, Note_on_c, 8, 61, 95
5, 65280, Note_off_c, 8, 68, 80
5, 65280, Note_off_c, 8, 61, 80
5, 65520, Note_on_c, 8, 68, 95
5, 65520, Note_on_c, 8, 61, 95
5, 65760, Note_off_c, 8, 68, 80
5, 65760, Note_off_c, 8, 61, 80
5, 66000, Note_on_c, 8, 66, 95
5, 66000, Note_on_c, 8, 63, 95
5, 66000, Note_on_c, 8, 59, 95
5, 66240, Note_off_c, 8, 66, 80
5, 66240, Note_off_c, 8, 63, 80
5, 66240, Note_off_c, 8, 59, 80
5, 66480, Note_on_c, 8, 63, 95
5, 66480, Note_on_c, 8, 59, 95
5, 66720, Note_off_c, 8, 63, 80
5, 66720, Note_off_c, 8, 59, 80
5, 66960, Note_on_c, 8, 64, 95
5, 66960, Note_on_c, 8, 61, 95
5, 67080, Note_off_c, 8, 64, 80
5, 67080, Note_off_c, 8, 61, 80
5, 67440, Note_on_c, 8, 64, 95
5, 67440, Note_on_c, 8, 61, 95
5, 67680, Note_off_c, 8, 64, 80
5, 67680, Note_off_c, 8, 61, 80
5, 67920, Note_on_c, 8, 63, 95
5, 67920, Note_on_c, 8, 59, 95
5, 68160, Note_off_c, 8, 63, 80
5, 68160, Note_off_c, 8, 59, 80
5, 68400, Note_on_c, 8, 63, 95
5, 68400, Note_on_c, 8, 59, 95
5, 68640, Note_off_c, 8, 63, 80
5, 68640, Note_off_c, 8, 59, 80
5, 68880, Note_on_c, 8, 64, 95
5, 68880, Note_on_c, 8, 61, 95
5, 69120, Note_off_c, 8, 64, 80
5, 69120, Note_off_c, 8, 61, 80
5, 69360, Note_on_c, 8, 64, 95
5, 69360, Note_on_c, 8, 61, 95
5, 69600, Note_off_c, 8, 64, 80
5, 69600, Note_off_c, 8, 61, 80
5, 69840, Note_on_c, 8, 68, 95
5, 69840, Note_on_c, 8, 63, 95
5, 69840, Note_on_c, 8, 59, 95
5, 70080, Note_off_c, 8, 68, 80
5, 70080, Note_off_c, 8, 63, 80
5, 70080, Note_off_c, 8, 59, 80
5, 70320, Note_on_c, 8, 63, 95
5, 70320, Note_on_c, 8, 59, 95
5, 70560, Note_off_c, 8, 63, 80
5, 70560, Note_off_c, 8, 59, 80
5, 70800, Note_on_c, 8, 64, 95
5, 70800, Note_on_c, 8, 61, 95
5, 70920, Note_off_c, 8, 64, 80
5, 70920, Note_off_c, 8, 61, 80
5, 71280, Note_on_c, 8, 64, 95
5, 71280, Note_on_c, 8, 61, 95
5, 71520, Note_off_c, 8, 64, 80
5, 71520, Note_off_c, 8, 61, 80
5, 71760, Note_on_c, 8, 63, 95
5, 71760, Note_on_c, 8, 59, 95
5, 72000, Note_off_c, 8, 63, 80
5, 72000, Note_off_c, 8, 59, 80
5, 72240, Note_on_c, 8, 63, 95
5, 72240, Note_on_c, 8, 59, 95
5, 72480, Note_off_c, 8, 63, 80
5, 72480, Note_off_c, 8, 59, 80
5, 72720, Note_on_c, 8, 68, 95
5, 72720, Note_on_c, 8, 61, 95
5, 72960, Note_off_c, 8, 68, 80
5, 72960, Note_off_c, 8, 61, 80
5, 73200, Note_on_c, 8, 68, 95
5, 73200, Note_on_c, 8, 61, 95
5, 73440, Note_off_c, 8, 68, 80
5, 73440, Note_off_c, 8, 61, 80
5, 73680, Note_on_c, 8, 66, 95
5, 73680, Note_on_c, 8, 63, 95
5, 73680, Note_on_c, 8, 59, 95
5, 73920, Note_off_c, 8, 66, 80
5, 73920, Note_off_c, 8, 63, 80
5, 73920, Note_off_c, 8, 59, 80
5, 74160, Note_on_c, 8, 63, 95
5, 74160, Note_on_c, 8, 59, 95
5, 74400, Note_off_c, 8, 63, 80
5, 74400, Note_off_c, 8, 59, 80
5, 74640, Note_on_c, 8, 64, 95
5, 74640, Note_on_c, 8, 61, 95
5, 74760, Note_off_c, 8, 64, 80
5, 74760, Note_off_c, 8, 61, 80
5, 75120, Note_on_c, 8, 64, 95
5, 75120, Note_on_c, 8, 61, 95
5, 75360, Note_off_c, 8, 64, 80
5, 75360, Note_off_c, 8, 61, 80
5, 75600, Note_on_c, 8, 63, 95
5, 75600, Note_on_c, 8, 59, 95
5, 75840, Note_off_c, 8, 63, 80
5, 75840, Note_off_c, 8, 59, 80
5, 76080, Note_on_c, 8, 63, 95
5, 76080, Note_on_c, 8, 59, 95
5, 76320, Note_off_c, 8, 63, 80
5, 76320, Note_off_c, 8, 59, 80
5, 76560, Note_on_c, 8, 64, 95
5, 76560, Note_on_c, 8, 61, 95
5, 76800, Note_off_c, 8, 64, 80
5, 76800, Note_off_c, 8, 61, 80
5, 77040, Note_on_c, 8, 64, 95
5, 77040, Note_on_c, 8, 61, 95
5, 77280, Note_off_c, 8, 64, 80
5, 77280, Note_off_c, 8, 61, 80
5, 77520, Note_on_c, 8, 68, 95
5, 77520, Note_on_c, 8, 63, 95
5, 77520, Note_on_c, 8, 59, 95
5, 77760, Note_off_c, 8, 68, 80
5, 77760, Note_off_c, 8, 63, 80
5, 77760, Note_off_c, 8, 59, 80
5, 78000, Note_on_c, 8, 63, 95
5, 78000, Note_on_c, 8, 59, 95
5, 78240, Note_off_c, 8, 63, 80
5, 78240, Note_off_c, 8, 59, 80
5, 78480, Note_on_c, 8, 64, 95
5, 78480, Note_on_c, 8, 61, 95
5, 78600, Note_off_c, 8, 64, 80
5, 78600, Note_off_c, 8, 61, 80
5, 78960, Note_on_c, 8, 64, 95
5, 78960, Note_on_c, 8, 61, 95
5, 79200, Note_off_c, 8, 64, 80
5, 79200, Note_off_c, 8, 61, 80
5, 79440, Note_on_c, 8, 63, 95
5, 79440, Note_on_c, 8, 59, 95
5, 79680, Note_off_c, 8, 63, 80
5, 79680, Note_off_c, 8, 59, 80
5, 79920, Note_on_c, 8, 63, 95
5, 79920, Note_on_c, 8, 59, 95
5, 80160, Note_off_c, 8, 63, 80
5, 80160, Note_off_c, 8, 59, 80
5, 80400, Note_on_c, 8, 68, 95
5, 80400, Note_on_c, 8, 61, 95
5, 80640, Note_off_c, 8, 68, 80
5, 80640, Note_off_c, 8, 61, 80
5, 80880, Note_on_c, 8, 68, 95
5, 80880, Note_on_c, 8, 61, 95
5, 81120, Note_off_c, 8, 68, 80
5, 81120, Note_off_c, 8, 61, 80
5, 81360, Note_on_c, 8, 66, 95
5, 81360, Note_on_c, 8, 63, 95
5, 81360, Note_on_c, 8, 59, 95
5, 81600, Note_off_c, 8, 66, 80
5, 81600, Note_off_c, 8, 63, 80
5, 81600, Note_off_c, 8, 59, 80
5, 81840, Note_on_c, 8, 63, 95
5, 81840, Note_on_c, 8, 59, 95
5, 82080, Note_off_c, 8, 63, 80
5, 82080, Note_off_c, 8, 59, 80
5, 82320, Note_on_c, 8, 64, 95
5, 82320, Note_on_c, 8, 61, 95
5, 82440, Note_off_c, 8, 64, 80
5, 82440, Note_off_c, 8, 61, 80
5, 82800, Note_on_c, 8, 63, 95
5, 82800, Note_on_c, 8, 59, 95
5, 83040, Note_off_c, 8, 63, 80
5, 83040, Note_off_c, 8, 59, 80
5, 83280, Note_on_c, 8, 61, 95
5, 83280, Note_on_c, 8, 58, 95
5, 83520, Note_off_c, 8, 61, 80
5, 83520, Note_off_c, 8, 58, 80
5, 83760, Note_on_c, 8, 61, 95
5, 83760, Note_on_c, 8, 58, 95
5, 84000, Note_off_c, 8, 61, 80
5, 84000, Note_off_c, 8, 58, 80
5, 84240, Note_on_c, 8, 63, 95
5, 84240, Note_on_c, 8, 59, 95
5, 84480, Note_off_c, 8, 63, 80
5, 84480, Note_off_c, 8, 59, 80
5, 84720, Note_on_c, 8, 63, 95
5, 84720, Note_on_c, 8, 59, 95
5, 84960, Note_off_c, 8, 63, 80
5, 84960, Note_off_c, 8, 59, 80
5, 85200, Note_on_c, 8, 61, 95
5, 85200, Note_on_c, 8, 58, 95
5, 85440, Note_off_c, 8, 61, 80
5, 85440, Note_off_c, 8, 58, 80
5, 85680, Note_on_c, 8, 61, 95
5, 85680, Note_on_c, 8, 58, 95
5, 85920, Note_off_c, 8, 61, 80
5, 85920, Note_off_c, 8, 58, 80
5, 86160, Note_on_c, 8, 63, 95
5, 86160, Note_on_c, 8, 59, 95
5, 86280, Note_off_c, 8, 63, 80
5, 86280, Note_off_c, 8, 59, 80
5, 86640, Note_on_c, 8, 63, 95
5, 86640, Note_on_c, 8, 59, 95
5, 86880, Note_off_c, 8, 63, 80
5, 86880, Note_off_c, 8, 59, 80
5, 87120, Note_on_c, 8, 61, 95
5, 87120, Note_on_c, 8, 58, 95
5, 87360, Note_off_c, 8, 61, 80
5, 87360, Note_off_c, 8, 58, 80
5, 87600, Note_on_c, 8, 61, 95
5, 87600, Note_on_c, 8, 58, 95
5, 87840, Note_off_c, 8, 61, 80
5, 87840, Note_off_c, 8, 58, 80
5, 88080, Note_on_c, 8, 63, 95
5, 88080, Note_on_c, 8, 59, 95
5, 88320, Note_off_c, 8, 63, 80
5, 88320, Note_off_c, 8, 59, 80
5, 88560, Note_on_c, 8, 63, 95
5, 88560, Note_on_c, 8, 59, 95
5, 88800, Note_off_c, 8, 63, 80
5, 88800, Note_off_c, 8, 59, 80
5, 89040, Note_on_c, 8, 66, 95
5, 89040, Note_on_c, 8, 61, 95
5, 89040, Note_on_c, 8, 58, 95
5, 89280, Note_off_c, 8, 66, 80
5, 89280, Note_off_c, 8, 61, 80
5, 89280, Note_off_c, 8, 58, 80
5, 89520, Note_on_c, 8, 63, 95
5, 89520, Note_on_c, 8, 58, 95
5, 89760, Note_off_c, 8, 63, 80
5, 89760, Note_off_c, 8, 58, 80
5, 90000, Note_on_c, 8, 68, 95
5, 90000, Note_on_c, 8, 63, 95
5, 90000, Note_on_c, 8, 59, 95
5, 90120, Note_off_c, 8, 68, 80
5, 90120, Note_off_c, 8, 63, 80
5, 90120, Note_off_c, 8, 59, 80
5, 90480, Note_on_c, 8, 63, 95
5, 90480, Note_on_c, 8, 59, 95
5, 90720, Note_off_c, 8, 63, 80
5, 90720, Note_off_c, 8, 59, 80
5, 90960, Note_on_c, 8, 61, 95
5, 90960, Note_on_c, 8, 58, 95
5, 91200, Note_off_c, 8, 61, 80
5, 91200, Note_off_c, 8, 58, 80
5, 91440, Note_on_c, 8, 61, 95
5, 91440, Note_on_c, 8, 58, 95
5, 91680, Note_off_c, 8, 61, 80
5, 91680, Note_off_c, 8, 58, 80
5, 91920, Note_on_c, 8, 63, 95
5, 91920, Note_on_c, 8, 59, 95
5, 92160, Note_off_c, 8, 63, 80
5, 92160, Note_off_c, 8, 59, 80
5, 92400, Note_on_c, 8, 63, 95
5, 92400, Note_on_c, 8, 59, 95
5, 92640, Note_off_c, 8, 63, 80
5, 92640, Note_off_c, 8, 59, 80
5, 92880, Note_on_c, 8, 61, 95
5, 92880, Note_on_c, 8, 58, 95
5, 93120, Note_off_c, 8, 61, 80
5, 93120, Note_off_c, 8, 58, 80
5, 93360, Note_on_c, 8, 61, 95
5, 93360, Note_on_c, 8, 58, 95
5, 93600, Note_off_c, 8, 61, 80
5, 93600, Note_off_c, 8, 58, 80
5, 93840, Note_on_c, 8, 63, 95
5, 93840, Note_on_c, 8, 59, 95
5, 93960, Note_off_c, 8, 63, 80
5, 93960, Note_off_c, 8, 59, 80
5, 94320, Note_on_c, 8, 63, 95
5, 94320, Note_on_c, 8, 59, 95
5, 94560, Note_off_c, 8, 63, 80
5, 94560, Note_off_c, 8, 59, 80
5, 94800, Note_on_c, 8, 61, 95
5, 94800, Note_on_c, 8, 58, 95
5, 95040, Note_off_c, 8, 61, 80
5, 95040, Note_off_c, 8, 58, 80
5, 95280, Note_on_c, 8, 61, 95
5, 95280, Note_on_c, 8, 58, 95
5, 95520, Note_off_c, 8, 61, 80
5, 95520, Note_off_c, 8, 58, 80
5, 95760, Note_on_c, 8, 63, 95
5, 95760, Note_on_c, 8, 59, 95
5, 96000, Note_off_c, 8, 63, 80
5, 96000, Note_off_c, 8, 59, 80
5, 96240, Note_on_c, 8, 63, 95
5, 96240, Note_on_c, 8, 59, 95
5, 96480, Note_off_c, 8, 63, 80
5, 96480, Note_off_c, 8, 59, 80
5, 96720, Note_on_c, 8, 66, 95
5, 96720, Note_on_c, 8, 61, 95
5, 96720, Note_on_c, 8, 58, 95
5, 96960, Note_off_c, 8, 66, 80
5, 96960, Note_off_c, 8, 61, 80
5, 96960, Note_off_c, 8, 58, 80
5, 97200, Note_on_c, 8, 63, 95
5, 97200, Note_on_c, 8, 58, 95
5, 97440, Note_off_c, 8, 63, 80
5, 97440, Note_off_c, 8, 58, 80
5, 97680, Note_on_c, 8, 68, 95
5, 97680, Note_on_c, 8, 63, 95
5, 97680, Note_on_c, 8, 59, 95
5, 97800, Note_off_c, 8, 68, 80
5, 97800, Note_off_c, 8, 63, 80
5, 97800, Note_off_c, 8, 59, 80
5, 113520, Note_on_c, 8, 64, 95
5, 113520, Note_on_c, 8, 61, 95
5, 113760, Note_off_c, 8, 64, 80
5, 113760, Note_off_c, 8, 61, 80
5, 114000, Note_on_c, 8, 63, 95
5, 114000, Note_on_c, 8, 59, 95
5, 114240, Note_off_c, 8, 63, 80
5, 114240, Note_off_c, 8, 59, 80
5, 114480, Note_on_c, 8, 63, 95
5, 114480, Note_on_c, 8, 59, 95
5, 114720, Note_off_c, 8, 63, 80
5, 114720, Note_off_c, 8, 59, 80
5, 114960, Note_on_c, 8, 64, 95
5, 114960, Note_on_c, 8, 61, 95
5, 115200, Note_off_c, 8, 64, 80
5, 115200, Note_off_c, 8, 61, 80
5, 115440, Note_on_c, 8, 64, 95
5, 115440, Note_on_c, 8, 61, 95
5, 115680, Note_off_c, 8, 64, 80
5, 115680, Note_off_c, 8, 61, 80
5, 115920, Note_on_c, 8, 68, 95
5, 115920, Note_on_c, 8, 63, 95
5, 115920, Note_on_c, 8, 59, 95
5, 116160, Note_off_c, 8, 68, 80
5, 116160, Note_off_c, 8, 63, 80
5, 116160, Note_off_c, 8, 59, 80
5, 116400, Note_on_c, 8, 63, 95
5, 116400, Note_on_c, 8, 59, 95
5, 116640, Note_off_c, 8, 63, 80
5, 116640, Note_off_c, 8, 59, 80
5, 116880, Note_on_c, 8, 64, 95
5, 116880, Note_on_c, 8, 61, 95
5, 117000, Note_off_c, 8, 64, 80
5, 117000, Note_off_c, 8, 61, 80
5, 117360, Note_on_c, 8, 64, 95
5, 117360, Note_on_c, 8, 61, 95
5, 117600, Note_off_c, 8, 64, 80
5, 117600, Note_off_c, 8, 61, 80
5, 117840, Note_on_c, 8, 63, 95
5, 117840, Note_on_c, 8, 59, 95
5, 118080, Note_off_c, 8, 63, 80
5, 118080, Note_off_c, 8, 59, 80
5, 118320, Note_on_c, 8, 63, 95
5, 118320, Note_on_c, 8, 59, 95
5, 118560, Note_off_c, 8, 63, 80
5, 118560, Note_off_c, 8, 59, 80
5, 118800, Note_on_c, 8, 68, 95
5, 118800, Note_on_c, 8, 61, 95
5, 119040, Note_off_c, 8, 68, 80
5, 119040, Note_off_c, 8, 61, 80
5, 119280, Note_on_c, 8, 68, 95
5, 119280, Note_on_c, 8, 61, 95
5, 119520, Note_off_c, 8, 68, 80
5, 119520, Note_off_c, 8, 61, 80
5, 119760, Note_on_c, 8, 66, 95
5, 119760, Note_on_c, 8, 63, 95
5, 119760, Note_on_c, 8, 59, 95
5, 120000, Note_off_c, 8, 66, 80
5, 120000, Note_off_c, 8, 63, 80
5, 120000, Note_off_c, 8, 59, 80
5, 120240, Note_on_c, 8, 63, 95
5, 120240, Note_on_c, 8, 59, 95
5, 120480, Note_off_c, 8, 63, 80
5, 120480, Note_off_c, 8, 59, 80
5, 120720, Note_on_c, 8, 64, 95
5, 120720, Note_on_c, 8, 61, 95
5, 120840, Note_off_c, 8, 64, 80
5, 120840, Note_off_c, 8, 61, 80
5, 121200, Note_on_c, 8, 64, 95
5, 121200, Note_on_c, 8, 61, 95
5, 121440, Note_off_c, 8, 64, 80
5, 121440, Note_off_c, 8, 61, 80
5, 121680, Note_on_c, 8, 63, 95
5, 121680, Note_on_c, 8, 59, 95
5, 121920, Note_off_c, 8, 63, 80
5, 121920, Note_off_c, 8, 59, 80
5, 122160, Note_on_c, 8, 63, 95
5, 122160, Note_on_c, 8, 59, 95
5, 122400, Note_off_c, 8, 63, 80
5, 122400, Note_off_c, 8, 59, 80
5, 122640, Note_on_c, 8, 64, 95
5, 122640, Note_on_c, 8, 61, 95
5, 122880, Note_off_c, 8, 64, 80
5, 122880, Note_off_c, 8, 61, 80
5, 123120, Note_on_c, 8, 64, 95
5, 123120, Note_on_c, 8, 61, 95
5, 123360, Note_off_c, 8, 64, 80
5, 123360, Note_off_c, 8, 61, 80
5, 123600, Note_on_c, 8, 68, 95
5, 123600, Note_on_c, 8, 63, 95
5, 123600, Note_on_c, 8, 59, 95
5, 123840, Note_off_c, 8, 68, 80
5, 123840, Note_off_c, 8, 63, 80
5, 123840, Note_off_c, 8, 59, 80
5, 124080, Note_on_c, 8, 63, 95
5, 124080, Note_on_c, 8, 59, 95
5, 124320, Note_off_c, 8, 63, 80
5, 124320, Note_off_c, 8, 59, 80
5, 124560, Note_on_c, 8, 64, 95
5, 124560, Note_on_c, 8, 61, 95
5, 124680, Note_off_c, 8, 64, 80
5, 124680, Note_off_c, 8, 61, 80
5, 125040, Note_on_c, 8, 64, 95
5, 125040, Note_on_c, 8, 61, 95
5, 125280, Note_off_c, 8, 64, 80
5, 125280, Note_off_c, 8, 61, 80
5, 125520, Note_on_c, 8, 63, 95
5, 125520, Note_on_c, 8, 59, 95
5, 125760, Note_off_c, 8, 63, 80
5, 125760, Note_off_c, 8, 59, 80
5, 126000, Note_on_c, 8, 63, 95
5, 126000, Note_on_c, 8, 59, 95
5, 126240, Note_off_c, 8, 63, 80
5, 126240, Note_off_c, 8, 59, 80
5, 126480, Note_on_c, 8, 68, 95
5, 126480, Note_on_c, 8, 61, 95
5, 126720, Note_off_c, 8, 68, 80
5, 126720, Note_off_c, 8, 61, 80
5, 126960, Note_on_c, 8, 68, 95
5, 126960, Note_on_c, 8, 61, 95
5, 127200, Note_off_c, 8, 68, 80
5, 127200, Note_off_c, 8, 61, 80
5, 127440, Note_on_c, 8, 66, 95
5, 127440, Note_on_c, 8, 63, 95
5, 127440, Note_on_c, 8, 59, 95
5, 127680, Note_off_c, 8, 66, 80
5, 127680, Note_off_c, 8, 63, 80
5, 127680, Note_off_c, 8, 59, 80
5, 127920, Note_on_c, 8, 63, 95
5, 127920, Note_on_c, 8, 59, 95
5, 128160, Note_off_c, 8, 63, 80
5, 128160, Note_off_c, 8, 59, 80
5, 128400, Note_on_c, 8, 64, 95
5, 128400, Note_on_c, 8, 61, 95
5, 128520, Note_off_c, 8, 64, 80
5, 128520, Note_off_c, 8, 61, 80
5, 128880, Note_on_c, 8, 64, 95
5, 128880, Note_on_c, 8, 61, 95
5, 129120, Note_off_c, 8, 64, 80
5, 129120, Note_off_c, 8, 61, 80
5, 129360, Note_on_c, 8, 63, 95
5, 129360, Note_on_c, 8, 59, 95
5, 129600, Note_off_c, 8, 63, 80
5, 129600, Note_off_c, 8, 59, 80
5, 129840, Note_on_c, 8, 63, 95
5, 129840, Note_on_c, 8, 59, 95
5, 130080, Note_off_c, 8, 63, 80
5, 130080, Note_off_c, 8, 59, 80
5, 130320, Note_on_c, 8, 64, 95
5, 130320, Note_on_c, 8, 61, 95
5, 130560, Note_off_c, 8, 64, 80
5, 130560, Note_off_c, 8, 61, 80
5, 130800, Note_on_c, 8, 64, 95
5, 130800, Note_on_c, 8, 61, 95
5, 131040, Note_off_c, 8, 64, 80
5, 131040, Note_off_c, 8, 61, 80
5, 131280, Note_on_c, 8, 68, 95
5, 131280, Note_on_c, 8, 63, 95
5, 131280, Note_on_c, 8, 59, 95
5, 131520, Note_off_c, 8, 68, 80
5, 131520, Note_off_c, 8, 63, 80
5, 131520, Note_off_c, 8, 59, 80
5, 131760, Note_on_c, 8, 63, 95
5, 131760, Note_on_c, 8, 59, 95
5, 132000, Note_off_c, 8, 63, 80
5, 132000, Note_off_c, 8, 59, 80
5, 132240, Note_on_c, 8, 64, 95
5, 132240, Note_on_c, 8, 61, 95
5, 132360, Note_off_c, 8, 64, 80
5, 132360, Note_off_c, 8, 61, 80
5, 132720, Note_on_c, 8, 64, 95
5, 132720, Note_on_c, 8, 61, 95
5, 132960, Note_off_c, 8, 64, 80
5, 132960, Note_off_c, 8, 61, 80
5, 133200, Note_on_c, 8, 63, 95
5, 133200, Note_on_c, 8, 59, 95
5, 133440, Note_off_c, 8, 63, 80
5, 133440, Note_off_c, 8, 59, 80
5, 133680, Note_on_c, 8, 63, 95
5, 133680, Note_on_c, 8, 59, 95
5, 133920, Note_off_c, 8, 63, 80
5, 133920, Note_off_c, 8, 59, 80
5, 134160, Note_on_c, 8, 68, 95
5, 134160, Note_on_c, 8, 61, 95
5, 134400, Note_off_c, 8, 68, 80
5, 134400, Note_off_c, 8, 61, 80
5, 134640, Note_on_c, 8, 68, 95
5, 134640, Note_on_c, 8, 61, 95
5, 134880, Note_off_c, 8, 68, 80
5, 134880, Note_off_c, 8, 61, 80
5, 135120, Note_on_c, 8, 66, 95
5, 135120, Note_on_c, 8, 63, 95
5, 135120, Note_on_c, 8, 59, 95
5, 135360, Note_off_c, 8, 66, 80
5, 135360, Note_off_c, 8, 63, 80
5, 135360, Note_off_c, 8, 59, 80
5, 135600, Note_on_c, 8, 63, 95
5, 135600, Note_on_c, 8, 59, 95
5, 135840, Note_off_c, 8, 63, 80
5, 135840, Note_off_c, 8, 59, 80
5, 136080, Note_on_c, 8, 64, 95
5, 136080, Note_on_c, 8, 61, 95
5, 136200, Note_off_c, 8, 64, 80
5, 136200, Note_off_c, 8, 61, 80
5, 136560, Note_on_c, 8, 64, 95
5, 136560, Note_on_c, 8, 61, 95
5, 136800, Note_off_c, 8, 64, 80
5, 136800, Note_off_c, 8, 61, 80
5, 137040, Note_on_c, 8, 63, 95
5, 137040, Note_on_c, 8, 59, 95
5, 137280, Note_off_c, 8, 63, 80
5, 137280, Note_off_c, 8, 59, 80
5, 137520, Note_on_c, 8, 63, 95
5, 137520, Note_on_c, 8, 59, 95
5, 137760, Note_off_c, 8, 63, 80
5, 137760, Note_off_c, 8, 59, 80
5, 138000, Note_on_c, 8, 64, 95
5, 138000, Note_on_c, 8, 61, 95
5, 138240, Note_off_c, 8, 64, 80
5, 138240, Note_off_c, 8, 61, 80
5, 138480, Note_on_c, 8, 64, 95
5, 138480, Note_on_c, 8, 61, 95
5, 138720, Note_off_c, 8, 64, 80
5, 138720, Note_off_c, 8, 61, 80
5, 138960, Note_on_c, 8, 68, 95
5, 138960, Note_on_c, 8, 63, 95
5, 138960, Note_on_c, 8, 59, 95
5, 139200, Note_off_c, 8, 68, 80
5, 139200, Note_off_c, 8, 63, 80
5, 139200, Note_off_c, 8, 59, 80
5, 139440, Note_on_c, 8, 63, 95
5, 139440, Note_on_c, 8, 59, 95
5, 139680, Note_off_c, 8, 63, 80
5, 139680, Note_off_c, 8, 59, 80
5, 139920, Note_on_c, 8, 64, 95
5, 139920, Note_on_c, 8, 61, 95
5, 140040, Note_off_c, 8, 64, 80
5, 140040, Note_off_c, 8, 61, 80
5, 140400, Note_on_c, 8, 64, 95
5, 140400, Note_on_c, 8, 61, 95
5, 140640, Note_off_c, 8, 64, 80
5, 140640, Note_off_c, 8, 61, 80
5, 140880, Note_on_c, 8, 63, 95
5, 140880, Note_on_c, 8, 59, 95
5, 141120, Note_off_c, 8, 63, 80
5, 141120, Note_off_c, 8, 59, 80
5, 141360, Note_on_c, 8, 63, 95
5, 141360, Note_on_c, 8, 59, 95
5, 141600, Note_off_c, 8, 63, 80
5, 141600, Note_off_c, 8, 59, 80
5, 141840, Note_on_c, 8, 68, 95
5, 141840, Note_on_c, 8, 61, 95
5, 142080, Note_off_c, 8, 68, 80
5, 142080, Note_off_c, 8, 61, 80
5, 142320, Note_on_c, 8, 68, 95
5, 142320, Note_on_c, 8, 61, 95
5, 142560, Note_off_c, 8, 68, 80
5, 142560, Note_off_c, 8, 61, 80
5, 142800, Note_on_c, 8, 66, 95
5, 142800, Note_on_c, 8, 63, 95
5, 142800, Note_on_c, 8, 59, 95
5, 143040, Note_off_c, 8, 66, 80
5, 143040, Note_off_c, 8, 63, 80
5, 143040, Note_off_c, 8, 59, 80
5, 143280, Note_on_c, 8, 63, 95
5, 143280, Note_on_c, 8, 59, 95
5, 143520, Note_off_c, 8, 63, 80
5, 143520, Note_off_c, 8, 59, 80
5, 143760, Note_on_c, 8, 64, 95
5, 143760, Note_on_c, 8, 61, 95
5, 143880, Note_off_c, 8, 64, 80
5, 143880, Note_off_c, 8, 61, 80
5, 144240, Note_on_c, 8, 63, 95
5, 144240, Note_on_c, 8, 59, 95
5, 144480, Note_off_c, 8, 63, 80
5, 144480, Note_off_c, 8, 59, 80
5, 144720, Note_on_c, 8, 61, 95
5, 144720, Note_on_c, 8, 58, 95
5, 144960, Note_off_c, 8, 61, 80
5, 144960, Note_off_c, 8, 58, 80
5, 145200, Note_on_c, 8, 61, 95
5, 145200, Note_on_c, 8, 58, 95
5, 145440, Note_off_c, 8, 61, 80
5, 145440, Note_off_c, 8, 58, 80
5, 145680, Note_on_c, 8, 63, 95
5, 145680, Note_on_c, 8, 59, 95
5, 145920, Note_off_c, 8, 63, 80
5, 145920, Note_off_c, 8, 59, 80
5, 146160, Note_on_c, 8, 63, 95
5, 146160, Note_on_c, 8, 59, 95
5, 146400, Note_off_c, 8, 63, 80
5, 146400, Note_off_c, 8, 59, 80
5, 146640, Note_on_c, 8, 61, 95
5, 146640, Note_on_c, 8, 58, 95
5, 146880, Note_off_c, 8, 61, 80
5, 146880, Note_off_c, 8, 58, 80
5, 147120, Note_on_c, 8, 61, 95
5, 147120, Note_on_c, 8, 58, 95
5, 147360, Note_off_c, 8, 61, 80
5, 147360, Note_off_c, 8, 58, 80
5, 147600, Note_on_c, 8, 63, 95
5, 147600, Note_on_c, 8, 59, 95
5, 147720, Note_off_c, 8, 63, 80
5, 147720, Note_off_c, 8, 59, 80
5, 148080, Note_on_c, 8, 63, 95
5, 148080, Note_on_c, 8, 59, 95
5, 148320, Note_off_c, 8, 63, 80
5, 148320, Note_off_c, 8, 59, 80
5, 148560, Note_on_c, 8, 61, 95
5, 148560, Note_on_c, 8, 58, 95
5, 148800, Note_off_c, 8, 61, 80
5, 148800, Note_off_c, 8, 58, 80
5, 149040, Note_on_c, 8, 61, 95
5, 149040, Note_on_c, 8, 58, 95
5, 149280, Note_off_c, 8, 61, 80
5, 149280, Note_off_c, 8, 58, 80
5, 149520, Note_on_c, 8, 63, 95
5, 149520, Note_on_c, 8, 59, 95
5, 149760, Note_off_c, 8, 63, 80
5, 149760, Note_off_c, 8, 59, 80
5, 150000, Note_on_c, 8, 63, 95
5, 150000, Note_on_c, 8, 59, 95
5, 150240, Note_off_c, 8, 63, 80
5, 150240, Note_off_c, 8, 59, 80
5, 150480, Note_on_c, 8, 66, 95
5, 150480, Note_on_c, 8, 61, 95
5, 150480, Note_on_c, 8, 58, 95
5, 150720, Note_off_c, 8, 66, 80
5, 150720, Note_off_c, 8, 61, 80
5, 150720, Note_off_c, 8, 58, 80
5, 150960, Note_on_c, 8, 63, 95
5, 150960, Note_on_c, 8, 58, 95
5, 151200, Note_off_c, 8, 63, 80
5, 151200, Note_off_c, 8, 58, 80
5, 151440, Note_on_c, 8, 68, 95
5, 151440, Note_on_c, 8, 63, 95
5, 151440, Note_on_c, 8, 59, 95
5, 151560, Note_off_c, 8, 68, 80
5, 151560, Note_off_c, 8, 63, 80
5, 151560, Note_off_c, 8, 59, 80
5, 151920, Note_on_c, 8, 63, 95
5, 151920, Note_on_c, 8, 59, 95
5, 152160, Note_off_c, 8, 63, 80
5, 152160, Note_off_c, 8, 59, 80
5, 152400, Note_on_c, 8, 61, 95
5, 152400, Note_on_c, 8, 58, 95
5, 152640, Note_off_c, 8, 61, 80
5, 152640, Note_off_c, 8, 58, 80
5, 152880, Note_on_c, 8, 61, 95
5, 152880, Note_on_c, 8, 58, 95
5, 153120, Note_off_c, 8, 61, 80
5, 153120, Note_off_c, 8, 58, 80
5, 153360, Note_on_c, 8, 63, 95
5, 153360, Note_on_c, 8, 59, 95
5, 153600, Note_off_c, 8, 63, 80
5, 153600, Note_off_c, 8, 59, 80
5, 153840, Note_on_c, 8, 63, 95
5, 153840, Note_on_c, 8, 59, 95
5, 154080, Note_off_c, 8, 63, 80
5, 154080, Note_off_c, 8, 59, 80
5, 154320, Note_on_c, 8, 61, 95
5, 154320, Note_on_c, 8, 58, 95
5, 154560, Note_off_c, 8, 61, 80
5, 154560, Note_off_c, 8, 58, 80
5, 154800, Note_on_c, 8, 61, 95
5, 154800, Note_on_c, 8, 58, 95
5, 155040, Note_off_c, 8, 61, 80
5, 155040, Note_off_c, 8, 58, 80
5, 155280, Note_on_c, 8, 63, 95
5, 155280, Note_on_c, 8, 59, 95
5, 155400, Note_off_c, 8, 63, 80
5, 155400, Note_off_c, 8, 59, 80
5, 155760, Note_on_c, 8, 63, 95
5, 155760, Note_on_c, 8, 59, 95
5, 156000, Note_off_c, 8, 63, 80
5, 156000, Note_off_c, 8, 59, 80
5, 156240, Note_on_c, 8, 61, 95
5, 156240, Note_on_c, 8, 58, 95
5, 156480, Note_off_c, 8, 61, 80
5, 156480, Note_off_c, 8, 58, 80
5, 156720, Note_on_c, 8, 61, 95
5, 156720, Note_on_c, 8, 58, 95
5, 156960, Note_off_c, 8, 61, 80
5, 156960, Note_off_c, 8, 58, 80
5, 157200, Note_on_c, 8, 63, 95
5, 157200, Note_on_c, 8, 59, 95
5, 157440, Note_off_c, 8, 63, 80
5, 157440, Note_off_c, 8, 59, 80
5, 157680, Note_on_c, 8, 63, 95
5, 157680, Note_on_c, 8, 59, 95
5, 157920, Note_off_c, 8, 63, 80
5, 157920, Note_off_c, 8, 59, 80
5, 158160, Note_on_c, 8, 66, 95
5, 158160, Note_on_c, 8, 61, 95
5, 158160, Note_on_c, 8, 58, 95
5, 158400, Note_off_c, 8, 66, 80
5, 158400, Note_off_c, 8, 61, 80
5, 158400, Note_off_c, 8, 58, 80
5, 158640, Note_on_c, 8, 63, 95
5, 158640, Note_on_c, 8, 58, 95
5, 158880, Note_off_c, 8, 63, 80
5, 158880, Note_off_c, 8, 58, 80
5, 159120, Note_on_c, 8, 68, 95
5, 159120, Note_on_c, 8, 63, 95
5, 159120, Note_on_c, 8, 59, 95
5, 159240, Note_off_c, 8, 68, 80
5, 159240, Note_off_c, 8, 63, 80
5, 159240, Note_off_c, 8, 59, 80
5, 174960, Note_on_c, 8, 60, 95
5, 174960, Note_on_c, 8, 56, 95
5, 175200, Note_off_c, 8, 60, 80
5, 175200, Note_off_c, 8, 56, 80
5, 175440, Note_on_c, 8, 58, 95
5, 175440, Note_on_c, 8, 55, 95
5, 175680, Note_off_c, 8, 58, 80
5, 175680, Note_off_c, 8, 55, 80
5, 175920, Note_on_c, 8, 58, 95
5, 175920, Note_on_c, 8, 55, 95
5, 176160, Note_off_c, 8, 58, 80
5, 176160, Note_off_c, 8, 55, 80
5, 176400, Note_on_c, 8, 60, 95
5, 176400, Note_on_c, 8, 56, 95
5, 176640, Note_off_c, 8, 60, 80
5, 176640, Note_off_c, 8, 56, 80
5, 176880, Note_on_c, 8, 60, 95
5, 176880, Note_on_c, 8, 56, 95
5, 177120, Note_off_c, 8, 60, 80
5, 177120, Note_off_c, 8, 56, 80
5, 177360, Note_on_c, 8, 58, 95
5, 177360, Note_on_c, 8, 55, 95
5, 177600, Note_off_c, 8, 58, 80
5, 177600, Note_off_c, 8, 55, 80
5, 177840, Note_on_c, 8, 58, 95
5, 177840, Note_on_c, 8, 55, 95
5, 178080, Note_off_c, 8, 58, 80
5, 178080, Note_off_c, 8, 55, 80
5, 178320, Note_on_c, 8, 60, 95
5, 178320, Note_on_c, 8, 56, 95
5, 178440, Note_off_c, 8, 60, 80
5, 178440, Note_off_c, 8, 56, 80
5, 178800, Note_on_c, 8, 60, 95
5, 178800, Note_on_c, 8, 56, 95
5, 179040, Note_off_c, 8, 60, 80
5, 179040, Note_off_c, 8, 56, 80
5, 179280, Note_on_c, 8, 58, 95
5, 179280, Note_on_c, 8, 55, 95
5, 179520, Note_off_c, 8, 58, 80
5, 179520, Note_off_c, 8, 55, 80
5, 179760, Note_on_c, 8, 58, 95
5, 179760, Note_on_c, 8, 55, 95
5, 180000, Note_off_c, 8, 58, 80
5, 180000, Note_off_c, 8, 55, 80
5, 180240, Note_on_c, 8, 60, 95
5, 180240, Note_on_c, 8, 56, 95
5, 180480, Note_off_c, 8, 60, 80
5, 180480, Note_off_c, 8, 56, 80
5, 180720, Note_on_c, 8, 60, 95
5, 180720, Note_on_c, 8, 56, 95
5, 180960, Note_off_c, 8, 60, 80
5, 180960, Note_off_c, 8, 56, 80
5, 181200, Note_on_c, 8, 63, 95
5, 181200, Note_on_c, 8, 58, 95
5, 181200, Note_on_c, 8, 55, 95
5, 181440, Note_off_c, 8, 63, 80
5, 181440, Note_off_c, 8, 58, 80
5, 181440, Note_off_c, 8, 55, 80
5, 181680, Note_on_c, 8, 60, 95
5, 181680, Note_on_c, 8, 58, 95
5, 181680, Note_on_c, 8, 55, 95
5, 181920, Note_off_c, 8, 60, 80
5, 181920, Note_off_c, 8, 58, 80
5, 181920, Note_off_c, 8, 55, 80
5, 182160, Note_on_c, 8, 65, 95
5, 182160, Note_on_c, 8, 60, 95
5, 182160, Note_on_c, 8, 56, 95
5, 182280, Note_off_c, 8, 65, 80
5, 182280, Note_off_c, 8, 60, 80
5, 182280, Note_off_c, 8, 56, 80
5, 182640, Note_on_c, 8, 60, 95
5, 182640, Note_on_c, 8, 56, 95
5, 182880, Note_off_c, 8, 60, 80
5, 182880, Note_off_c, 8, 56, 80
5, 183120, Note_on_c, 8, 58, 95
5, 183120, Note_on_c, 8, 55, 95
5, 183360, Note_off_c, 8, 58, 80
5, 183360, Note_off_c, 8, 55, 80
5, 183600, Note_on_c, 8, 58, 95
5, 183600, Note_on_c, 8, 55, 95
5, 183840, Note_off_c, 8, 58, 80
5, 183840, Note_off_c, 8, 55, 80
5, 184080, Note_on_c, 8, 60, 95
5, 184080, Note_on_c, 8, 56, 95
5, 184320, Note_off_c, 8, 60, 80
5, 184320, Note_off_c, 8, 56, 80
5, 184560, Note_on_c, 8, 60, 95
5, 184560, Note_on_c, 8, 56, 95
5, 184800, Note_off_c, 8, 60, 80
5, 184800, Note_off_c, 8, 56, 80
5, 185040, Note_on_c, 8, 58, 95
5, 185040, Note_on_c, 8, 55, 95
5, 185280, Note_off_c, 8, 58, 80
5, 185280, Note_off_c, 8, 55, 80
5, 185520, Note_on_c, 8, 58, 95
5, 185520, Note_on_c, 8, 55, 95
5, 185760, Note_off_c, 8, 58, 80
5, 185760, Note_off_c, 8, 55, 80
5, 186000, Note_on_c, 8, 60, 95
5, 186000, Note_on_c, 8, 56, 95
5, 186120, Note_off_c, 8, 60, 80
5, 186120, Note_off_c, 8, 56, 80
5, 186480, Note_on_c, 8, 60, 95
5, 186480, Note_on_c, 8, 56, 95
5, 186720, Note_off_c, 8, 60, 80
5, 186720, Note_off_c, 8, 56, 80
5, 186960, Note_on_c, 8, 58, 95
5, 186960, Note_on_c, 8, 55, 95
5, 187200, Note_off_c, 8, 58, 80
5, 187200, Note_off_c, 8, 55, 80
5, 187440, Note_on_c, 8, 58, 95
5, 187440, Note_on_c, 8, 55, 95
5, 187680, Note_off_c, 8, 58, 80
5, 187680, Note_off_c, 8, 55, 80
5, 187920, Note_on_c, 8, 60, 95
5, 187920, Note_on_c, 8, 56, 95
5, 188160, Note_off_c, 8, 60, 80
5, 188160, Note_off_c, 8, 56, 80
5, 188400, Note_on_c, 8, 60, 95
5, 188400, Note_on_c, 8, 56, 95
5, 188640, Note_off_c, 8, 60, 80
5, 188640, Note_off_c, 8, 56, 80
5, 188880, Note_on_c, 8, 63, 95
5, 188880, Note_on_c, 8, 58, 95
5, 188880, Note_on_c, 8, 55, 95
5, 189120, Note_off_c, 8, 63, 80
5, 189120, Note_off_c, 8, 58, 80
5, 189120, Note_off_c, 8, 55, 80
5, 189360, Note_on_c, 8, 60, 95
5, 189360, Note_on_c, 8, 58, 95
5, 189360, Note_on_c, 8, 55, 95
5, 189600, Note_off_c, 8, 60, 80
5, 189600, Note_off_c, 8, 58, 80
5, 189600, Note_off_c, 8, 55, 80
5, 189840, Note_on_c, 8, 65, 95
5, 189840, Note_on_c, 8, 60, 95
5, 189840, Note_on_c, 8, 56, 95
5, 189960, Note_off_c, 8, 65, 80
5, 189960, Note_off_c, 8, 60, 80
5, 189960, Note_off_c, 8, 56, 80
5, 190320, Note_on_c, 8, 61, 95
5, 190320, Note_on_c, 8, 57, 95
5, 190560, Note_off_c, 8, 61, 80
5, 190560, Note_off_c, 8, 57, 80
5, 190800, Note_on_c, 8, 59, 95
5, 190800, Note_on_c, 8, 56, 95
5, 191040, Note_off_c, 8, 59, 80
5, 191040, Note_off_c, 8, 56, 80
5, 191280, Note_on_c, 8, 59, 95
5, 191280, Note_on_c, 8, 56, 95
5, 191520, Note_off_c, 8, 59, 80
5, 191520, Note_off_c, 8, 56, 80
5, 191760, Note_on_c, 8, 61, 95
5, 191760, Note_on_c, 8, 57, 95
5, 192000, Note_off_c, 8, 61, 80
5, 192000, Note_off_c, 8, 57, 80
5, 192240, Note_on_c, 8, 61, 95
5, 192240, Note_on_c, 8, 57, 95
5, 192480, Note_off_c, 8, 61, 80
5, 192480, Note_off_c, 8, 57, 80
5, 192720, Note_on_c, 8, 59, 95
5, 192720, Note_on_c, 8, 56, 95
5, 192960, Note_off_c, 8, 59, 80
5, 192960, Note_off_c, 8, 56, 80
5, 193200, Note_on_c, 8, 59, 95
5, 193200, Note_on_c, 8, 56, 95
5, 193440, Note_off_c, 8, 59, 80
5, 193440, Note_off_c, 8, 56, 80
5, 193680, Note_on_c, 8, 61, 95
5, 193680, Note_on_c, 8, 57, 95
5, 193800, Note_off_c, 8, 61, 80
5, 193800, Note_off_c, 8, 57, 80
5, 194160, Note_on_c, 8, 61, 95
5, 194160, Note_on_c, 8, 57, 95
5, 194400, Note_off_c, 8, 61, 80
5, 194400, Note_off_c, 8, 57, 80
5, 194640, Note_on_c, 8, 59, 95
5, 194640, Note_on_c, 8, 56, 95
5, 194880, Note_off_c, 8, 59, 80
5, 194880, Note_off_c, 8, 56, 80
5, 195120, Note_on_c, 8, 59, 95
5, 195120, Note_on_c, 8, 56, 95
5, 195360, Note_off_c, 8, 59, 80
5, 195360, Note_off_c, 8, 56, 80
5, 195600, Note_on_c, 8, 61, 95
5, 195600, Note_on_c, 8, 57, 95
5, 195840, Note_off_c, 8, 61, 80
5, 195840, Note_off_c, 8, 57, 80
5, 196080, Note_on_c, 8, 61, 95
5, 196080, Note_on_c, 8, 57, 95
5, 196320, Note_off_c, 8, 61, 80
5, 196320, Note_off_c, 8, 57, 80
5, 196560, Note_on_c, 8, 64, 95
5, 196560, Note_on_c, 8, 59, 95
5, 196560, Note_on_c, 8, 56, 95
5, 196800, Note_off_c, 8, 64, 80
5, 196800, Note_off_c, 8, 59, 80
5, 196800, Note_off_c, 8, 56, 80
5, 197040, Note_on_c, 8, 59, 95
5, 197040, Note_on_c, 8, 61, 95
5, 197040, Note_on_c, 8, 56, 95
5, 197280, Note_off_c, 8, 59, 80
5, 197280, Note_off_c, 8, 61, 80
5, 197280, Note_off_c, 8, 56, 80
5, 197520, Note_on_c, 8, 66, 95
5, 197520, Note_on_c, 8, 61, 95
5, 197520, Note_on_c, 8, 57, 95
5, 197640, Note_off_c, 8, 66, 80
5, 197640, Note_off_c, 8, 61, 80
5, 197640, Note_off_c, 8, 57, 80
5, 198000, Note_on_c, 8, 61, 95
5, 198000, Note_on_c, 8, 57, 95
5, 198240, Note_off_c, 8, 61, 80
5, 198240, Note_off_c, 8, 57, 80
5, 198480, Note_on_c, 8, 59, 95
5, 198480, Note_on_c, 8, 56, 95
5, 198720, Note_off_c, 8, 59, 80
5, 198720, Note_off_c, 8, 56, 80
5, 198960, Note_on_c, 8, 59, 95
5, 198960, Note_on_c, 8, 56, 95
5, 199200, Note_off_c, 8, 59, 80
5, 199200, Note_off_c, 8, 56, 80
5, 199440, Note_on_c, 8, 61, 95
5, 199440, Note_on_c, 8, 57, 95
5, 199680, Note_off_c, 8, 61, 80
5, 199680, Note_off_c, 8, 57, 80
5, 199920, Note_on_c, 8, 61, 95
5, 199920, Note_on_c, 8, 57, 95
5, 200160, Note_off_c, 8, 61, 80
5, 200160, Note_off_c, 8, 57, 80
5, 200400, Note_on_c, 8, 59, 95
5, 200400, Note_on_c, 8, 56, 95
5, 200640, Note_off_c, 8, 59, 80
5, 200640, Note_off_c, 8, 56, 80
5, 200880, Note_on_c, 8, 59, 95
5, 200880, Note_on_c, 8, 56, 95
5, 201120, Note_off_c, 8, 59, 80
5, 201120, Note_off_c, 8, 56, 80
5, 201360, Note_on_c, 8, 61, 95
5, 201360, Note_on_c, 8, 57, 95
5, 201480, Note_off_c, 8, 61, 80
5, 201480, Note_off_c, 8, 57, 80
5, 201840, Note_on_c, 8, 61, 95
5, 201840, Note_on_c, 8, 57, 95
5, 202080, Note_off_c, 8, 61, 80
5, 202080, Note_off_c, 8, 57, 80
5, 202320, Note_on_c, 8, 59, 95
5, 202320, Note_on_c, 8, 56, 95
5, 202560, Note_off_c, 8, 59, 80
5, 202560, Note_off_c, 8, 56, 80
5, 202800, Note_on_c, 8, 59, 95
5, 202800, Note_on_c, 8, 56, 95
5, 203040, Note_off_c, 8, 59, 80
5, 203040, Note_off_c, 8, 56, 80
5, 203280, Note_on_c, 8, 61, 95
5, 203280, Note_on_c, 8, 57, 95
5, 203520, Note_off_c, 8, 61, 80
5, 203520, Note_off_c, 8, 57, 80
5, 203760, Note_on_c, 8, 61, 95
5, 203760, Note_on_c, 8, 57, 95
5, 204000, Note_off_c, 8, 61, 80
5, 204000, Note_off_c, 8, 57, 80
5, 204240, Note_on_c, 8, 64, 95
5, 204240, Note_on_c, 8, 59, 95
5, 204240, Note_on_c, 8, 56, 95
5, 204480, Note_off_c, 8, 64, 80
5, 204480, Note_off_c, 8, 59, 80
5, 204480, Note_off_c, 8, 56, 80
5, 204720, Note_on_c, 8, 59, 95
5, 204720, Note_on_c, 8, 61, 95
5, 204720, Note_on_c, 8, 56, 95
5, 204960, Note_off_c, 8, 59, 80
5, 204960, Note_off_c, 8, 61, 80
5, 204960, Note_off_c, 8, 56, 80
5, 205200, Note_on_c, 8, 66, 95
5, 205200, Note_on_c, 8, 61, 95
5, 205200, Note_on_c, 8, 57, 95
5, 205320, Note_off_c, 8, 66, 80
5, 205320, Note_off_c, 8, 61, 80
5, 205320, Note_off_c, 8, 57, 80
5, 205680, Note_on_c, 8, 60, 95
5, 205680, Note_on_c, 8, 56, 95
5, 205920, Note_off_c, 8, 60, 80
5, 205920, Note_off_c, 8, 56, 80
5, 206160, Note_on_c, 8, 58, 95
5, 206160, Note_on_c, 8, 55, 95
5, 206400, Note_off_c, 8, 58, 80
5, 206400, Note_off_c, 8, 55, 80
5, 206640, Note_on_c, 8, 58, 95
5, 206640, Note_on_c, 8, 55, 95
5, 206880, Note_off_c, 8, 58, 80
5, 206880, Note_off_c, 8, 55, 80
5, 207120, Note_on_c, 8, 60, 95
5, 207120, Note_on_c, 8, 56, 95
5, 207360, Note_off_c, 8, 60, 80
5, 207360, Note_off_c, 8, 56, 80
5, 207600, Note_on_c, 8, 60, 95
5, 207600, Note_on_c, 8, 56, 95
5, 207840, Note_off_c, 8, 60, 80
5, 207840, Note_off_c, 8, 56, 80
5, 208080, Note_on_c, 8, 58, 95
5, 208080, Note_on_c, 8, 55, 95
5, 208320, Note_off_c, 8, 58, 80
5, 208320, Note_off_c, 8, 55, 80
5, 208560, Note_on_c, 8, 58, 95
5, 208560, Note_on_c, 8, 55, 95
5, 208800, Note_off_c, 8, 58, 80
5, 208800, Note_off_c, 8, 55, 80
5, 209040, Note_on_c, 8, 60, 95
5, 209040, Note_on_c, 8, 56, 95
5, 209160, Note_off_c, 8, 60, 80
5, 209160, Note_off_c, 8, 56, 80
5, 209520, Note_on_c, 8, 60, 95
5, 209520, Note_on_c, 8, 56, 95
5, 209760, Note_off_c, 8, 60, 80
5, 209760, Note_off_c, 8, 56, 80
5, 210000, Note_on_c, 8, 58, 95
5, 210000, Note_on_c, 8, 55, 95
5, 210240, Note_off_c, 8, 58, 80
5, 210240, Note_off_c, 8, 55, 80
5, 210480, Note_on_c, 8, 58, 95
5, 210480, Note_on_c, 8, 55, 95
5, 210720, Note_off_c, 8, 58, 80
5, 210720, Note_off_c, 8, 55, 80
5, 210960, Note_on_c, 8, 60, 95
5, 210960, Note_on_c, 8, 56, 95
5, 211200, Note_off_c, 8, 60, 80
5, 211200, Note_off_c, 8, 56, 80
5, 211440, Note_on_c, 8, 60, 95
5, 211440, Note_on_c, 8, 56, 95
5, 211680, Note_off_c, 8, 60, 80
5, 211680, Note_off_c, 8, 56, 80
5, 211920, Note_on_c, 8, 63, 95
5, 211920, Note_on_c, 8, 58, 95
5, 211920, Note_on_c, 8, 55, 95
5, 212160, Note_off_c, 8, 63, 80
5, 212160, Note_off_c, 8, 58, 80
5, 212160, Note_off_c, 8, 55, 80
5, 212400, Note_on_c, 8, 60, 95
5, 212400, Note_on_c, 8, 58, 95
5, 212400, Note_on_c, 8, 55, 95
5, 212640, Note_off_c, 8, 60, 80
5, 212640, Note_off_c, 8, 58, 80
5, 212640, Note_off_c, 8, 55, 80
5, 212880, Note_on_c, 8, 65, 95
5, 212880, Note_on_c, 8, 60, 95
5, 212880, Note_on_c, 8, 56, 95
5, 213000, Note_off_c, 8, 65, 80
5, 213000, Note_off_c, 8, 60, 80
5, 213000, Note_off_c, 8, 56, 80
5, 213360, Note_on_c, 8, 63, 95
5, 213360, Note_on_c, 8, 59, 95
5, 213600, Note_off_c, 8, 63, 80
5, 213600, Note_off_c, 8, 59, 80
5, 213840, Note_on_c, 8, 61, 95
5, 213840, Note_on_c, 8, 58, 95
5, 214080, Note_off_c, 8, 61, 80
5, 214080, Note_off_c, 8, 58, 80
5, 214320, Note_on_c, 8, 61, 95
5, 214320, Note_on_c, 8, 58, 95
5, 214560, Note_off_c, 8, 61, 80
5, 214560, Note_off_c, 8, 58, 80
5, 214800, Note_on_c, 8, 63, 95
5, 214800, Note_on_c, 8, 59, 95
5, 215040, Note_off_c, 8, 63, 80
5, 215040, Note_off_c, 8, 59, 80
5, 215280, Note_on_c, 8, 63, 95
5, 215280, Note_on_c, 8, 59, 95
5, 215520, Note_off_c, 8, 63, 80
5, 215520, Note_off_c, 8, 59, 80
5, 215760, Note_on_c, 8, 61, 95
5, 215760, Note_on_c, 8, 58, 95
5, 216000, Note_off_c, 8, 61, 80
5, 216000, Note_off_c, 8, 58, 80
5, 216240, Note_on_c, 8, 61, 95
5, 216240, Note_on_c, 8, 58, 95
5, 216480, Note_off_c, 8, 61, 80
5, 216480, Note_off_c, 8, 58, 80
5, 216720, Note_on_c, 8, 63, 95
5, 216720, Note_on_c, 8, 59, 95
5, 216840, Note_off_c, 8, 63, 80
5, 216840, Note_off_c, 8, 59, 80
5, 217200, Note_on_c, 8, 63, 95
5, 217200, Note_on_c, 8, 59, 95
5, 217440, Note_off_c, 8, 63, 80
5, 217440, Note_off_c, 8, 59, 80
5, 217680, Note_on_c, 8, 61, 95
5, 217680, Note_on_c, 8, 58, 95
5, 217920, Note_off_c, 8, 61, 80
5, 217920, Note_off_c, 8, 58, 80
5, 218160, Note_on_c, 8, 61, 95
5, 218160, Note_on_c, 8, 58, 95
5, 218400, Note_off_c, 8, 61, 80
5, 218400, Note_off_c, 8, 58, 80
5, 218640, Note_on_c, 8, 63, 95
5, 218640, Note_on_c, 8, 59, 95
5, 218880, Note_off_c, 8, 63, 80
5, 218880, Note_off_c, 8, 59, 80
5, 219120, Note_on_c, 8, 63, 95
5, 219120, Note_on_c, 8, 59, 95
5, 219360, Note_off_c, 8, 63, 80
5, 219360, Note_off_c, 8, 59, 80
5, 219600, Note_on_c, 8, 66, 95
5, 219600, Note_on_c, 8, 61, 95
5, 219600, Note_on_c, 8, 58, 95
5, 219840, Note_off_c, 8, 66, 80
5, 219840, Note_off_c, 8, 61, 80
5, 219840, Note_off_c, 8, 58, 80
5, 220080, Note_on_c, 8, 63, 95
5, 220080, Note_on_c, 8, 58, 95
5, 220320, Note_off_c, 8, 63, 80
5, 220320, Note_off_c, 8, 58, 80
5, 220560, Note_on_c, 8, 68, 95
5, 220560, Note_on_c, 8, 63, 95
5, 220560, Note_on_c, 8, 59, 95
5, 220680, Note_off_c, 8, 68, 80
5, 220680, Note_off_c, 8, 63, 80
5, 220680, Note_off_c, 8, 59, 80
5, 236160, Note_on_c, 8, 68, 95
5, 236160, Note_on_c, 8, 64, 95
5, 236160, Note_on_c, 8, 61, 95
5, 238080, Note_off_c, 8, 68, 80
5, 238080, Note_off_c, 8, 64, 80
5, 238080, Note_off_c, 8, 61, 80
5, 238080, Note_on_c, 8, 64, 95
5, 238080, Note_on_c, 8, 61, 95
5, 238080, Note_on_c, 8, 57, 95
5, 240000, Note_off_c, 8, 64, 80
5, 240000, Note_off_c, 8, 61, 80
5, 240000, Note_off_c, 8, 57, 80
5, 240000, Note_on_c, 8, 63, 95
5, 240000, Note_on_c, 8, 60, 95
5, 240000, Note_on_c, 8, 56, 95
5, 241920, Note_off_c, 8, 63, 80
5, 241920, Note_off_c, 8, 60, 80
5, 241920, Note_off_c, 8, 56, 80
5, 241920, Note_on_c, 8, 76, 95
5, 241920, Note_on_c, 8, 64, 95
5, 241920, Note_on_c, 8, 61, 95
5, 241920, Note_on_c, 8, 57, 95
5, 242640, Note_off_c, 8, 76, 80
5, 242640, Note_off_c, 8, 64, 80
5, 242640, Note_off_c, 8, 61, 80
5, 242640, Note_off_c, 8, 57, 80
5, 242640, Note_on_c, 8, 78, 127
5, 242640, Note_on_c, 8, 63, 95
5, 242640, Note_on_c, 8, 59, 95
5, 243600, Note_off_c, 8, 78, 80
5, 243600, Note_off_c, 8, 63, 80
5, 243600, Note_off_c, 8, 59, 80
5, 243600, Note_on_c, 8, 68, 95
5, 243600, Note_on_c, 8, 64, 95
5, 243600, Note_on_c, 8, 61, 95
5, 243840, Note_off_c, 8, 68, 80
5, 243840, Note_off_c, 8, 64, 80
5, 243840, Note_off_c, 8, 61, 80
5, 243840, Note_on_c, 8, 68, 95
5, 243840, Note_on_c, 8, 64, 95
5, 243840, Note_on_c, 8, 61, 95
5, 245760, Note_off_c, 8, 68, 80
5, 245760, Note_off_c, 8, 64, 80
5, 245760, Note_off_c, 8, 61, 80
5, 245760, Note_on_c, 8, 64, 95
5, 245760, Note_on_c, 8, 61, 95
5, 245760, Note_on_c, 8, 57, 95
5, 247680, Note_off_c, 8, 64, 80
5, 247680, Note_off_c, 8, 61, 80
5, 247680, Note_off_c, 8, 57, 80
5, 247680, Note_on_c, 8, 63, 95
5, 247680, Note_on_c, 8, 60, 95
5, 247680, Note_on_c, 8, 56, 95
5, 249600, Note_off_c, 8, 63, 80
5, 249600, Note_off_c, 8, 60, 80
5, 249600, Note_off_c, 8, 56, 80
5, 249600, Note_on_c, 8, 76, 95
5, 249600, Note_on_c, 8, 64, 95
5, 249600, Note_on_c, 8, 61, 95
5, 249600, Note_on_c, 8, 57, 95
5, 250320, Note_off_c, 8, 76, 80
5, 250320, Note_off_c, 8, 64, 80
5, 250320, Note_off_c, 8, 61, 80
5, 250320, Note_off_c, 8, 57, 80
5, 250320, Note_on_c, 8, 78, 127
5, 250320, Note_on_c, 8, 63, 95
5, 250320, Note_on_c, 8, 59, 95
5, 251520, Note_off_c, 8, 78, 80
5, 251520, Note_off_c, 8, 63, 80
5, 251520, Note_off_c, 8, 59, 80
5, 251520, Note_on_c, 8, 68, 95
5, 251520, Note_on_c, 8, 64, 95
5, 251520, Note_on_c, 8, 61, 95
5, 253440, Note_off_c, 8, 68, 80
5, 253440, Note_off_c, 8, 64, 80
5, 253440, Note_off_c, 8, 61, 80
5, 253440, Note_on_c, 8, 64, 95
5, 253440, Note_on_c, 8, 61, 95
5, 253440, Note_on_c, 8, 57, 95
5, 255360, Note_off_c, 8, 64, 80
5, 255360, Note_off_c, 8, 61, 80
5, 255360, Note_off_c, 8, 57, 80
5, 255360, Note_on_c, 8, 63, 95
5, 255360, Note_on_c, 8, 60, 95
5, 255360, Note_on_c, 8, 56, 95
5, 257280, Note_off_c, 8, 63, 80
5, 257280, Note_off_c, 8, 60, 80
5, 257280, Note_off_c, 8, 56, 80
5, 257280, Note_on_c, 8, 76, 95
5, 257280, Note_on_c, 8, 64, 95
5, 257280, Note_on_c, 8, 61, 95
5, 257280, Note_on_c, 8, 57, 95
5, 258000, Note_off_c, 8, 76, 80
5, 258000, Note_off_c, 8, 64, 80
5, 258000, Note_off_c, 8, 61, 80
5, 258000, Note_off_c, 8, 57, 80
5, 258000, Note_on_c, 8, 78, 127
5, 258000, Note_on_c, 8, 63, 95
5, 258000, Note_on_c, 8, 59, 95
5, 258960, Note_off_c, 8, 78, 80
5, 258960, Note_off_c, 8, 63, 80
5, 258960, Note_off_c, 8, 59, 80
5, 258960, Note_on_c, 8, 68, 95
5, 258960, Note_on_c, 8, 64, 95
5, 258960, Note_on_c, 8, 61, 95
5, 259200, Note_off_c, 8, 68, 80
5, 259200, Note_off_c, 8, 64, 80
5, 259200, Note_off_c, 8, 61, 80
5, 259200, Note_on_c, 8, 68, 95
5, 259200, Note_on_c, 8, 64, 95
5, 259200, Note_on_c, 8, 61, 95
5, 261120, Note_off_c, 8, 68, 80
5, 261120, Note_off_c, 8, 64, 80
5, 261120, Note_off_c, 8, 61, 80
5, 261120, Note_on_c, 8, 64, 95
5, 261120, Note_on_c, 8, 61, 95
5, 261120, Note_on_c, 8, 57, 95
5, 263040, Note_off_c, 8, 64, 80
5, 263040, Note_off_c, 8, 61, 80
5, 263040, Note_off_c, 8, 57, 80
5, 263040, Note_on_c, 8, 63, 95
5, 263040, Note_on_c, 8, 60, 95
5, 263040, Note_on_c, 8, 56, 95
5, 264960, Note_off_c, 8, 63, 80
5, 264960, Note_off_c, 8, 60, 80
5, 264960, Note_off_c, 8, 56, 80
5, 264960, Note_on_c, 8, 76, 95
5, 264960, Note_on_c, 8, 64, 95
5, 264960, Note_on_c, 8, 61, 95
5, 264960, Note_on_c, 8, 57, 95
5, 265680, Note_off_c, 8, 76, 80
5, 265680, Note_off_c, 8, 64, 80
5, 265680, Note_off_c, 8, 61, 80
5, 265680, Note_off_c, 8, 57, 80
5, 265680, Note_on_c, 8, 78, 127
5, 265680, Note_on_c, 8, 63, 95
5, 265680, Note_on_c, 8, 59, 95
5, 266880, Note_off_c, 8, 78, 80
5, 266880, Note_off_c, 8, 63, 80
5, 266880, Note_off_c, 8, 59, 80
5, 267120, Note_on_c, 8, 64, 95
5, 267120, Note_on_c, 8, 61, 95
5, 267360, Note_off_c, 8, 64, 80
5, 267360, Note_off_c, 8, 61, 80
5, 267600, Note_on_c, 8, 63, 95
5, 267600, Note_on_c, 8, 59, 95
5, 267840, Note_off_c, 8, 63, 80
5, 267840, Note_off_c, 8, 59, 80
5, 268080, Note_on_c, 8, 63, 95
5, 268080, Note_on_c, 8, 59, 95
5, 268320, Note_off_c, 8, 63, 80
5, 268320, Note_off_c, 8, 59, 80
5, 268560, Note_on_c, 8, 64, 95
5, 268560, Note_on_c, 8, 61, 95
5, 268800, Note_off_c, 8, 64, 80
5, 268800, Note_off_c, 8, 61, 80
5, 269040, Note_on_c, 8, 64, 95
5, 269040, Note_on_c, 8, 61, 95
5, 269280, Note_off_c, 8, 64, 80
5, 269280, Note_off_c, 8, 61, 80
5, 269520, Note_on_c, 8, 68, 95
5, 269520, Note_on_c, 8, 63, 95
5, 269520, Note_on_c, 8, 59, 95
5, 269760, Note_off_c, 8, 68, 80
5, 269760, Note_off_c, 8, 63, 80
5, 269760, Note_off_c, 8, 59, 80
5, 270000, Note_on_c, 8, 63, 95
5, 270000, Note_on_c, 8, 59, 95
5, 270240, Note_off_c, 8, 63, 80
5, 270240, Note_off_c, 8, 59, 80
5, 270480, Note_on_c, 8, 64, 95
5, 270480, Note_on_c, 8, 61, 95
5, 270600, Note_off_c, 8, 64, 80
5, 270600, Note_off_c, 8, 61, 80
5, 270960, Note_on_c, 8, 64, 95
5, 270960, Note_on_c, 8, 61, 95
5, 271200, Note_off_c, 8, 64, 80
5, 271200, Note_off_c, 8, 61, 80
5, 271440, Note_on_c, 8, 63, 95
5, 271440, Note_on_c, 8, 59, 95
5, 271680, Note_off_c, 8, 63, 80
5, 271680, Note_off_c, 8, 59, 80
5, 271920, Note_on_c, 8, 63, 95
5, 271920, Note_on_c, 8, 59, 95
5, 272160, Note_off_c, 8, 63, 80
5, 272160, Note_off_c, 8, 59, 80
5, 272400, Note_on_c, 8, 68, 95
5, 272400, Note_on_c, 8, 61, 95
5, 272640, Note_off_c, 8, 68, 80
5, 272640, Note_off_c, 8, 61, 80
5, 272880, Note_on_c, 8, 68, 95
5, 272880, Note_on_c, 8, 61, 95
5, 273120, Note_off_c, 8, 68, 80
5, 273120, Note_off_c, 8, 61, 80
5, 273360, Note_on_c, 8, 66, 95
5, 273360, Note_on_c, 8, 63, 95
5, 273360, Note_on_c, 8, 59, 95
5, 273600, Note_off_c, 8, 66, 80
5, 273600, Note_off_c, 8, 63, 80
5, 273600, Note_off_c, 8, 59, 80
5, 273840, Note_on_c, 8, 63, 95
5, 273840, Note_on_c, 8, 59, 95
5, 274080, Note_off_c, 8, 63, 80
5, 274080, Note_off_c, 8, 59, 80
5, 274320, Note_on_c, 8, 64, 95
5, 274320, Note_on_c, 8, 61, 95
5, 274440, Note_off_c, 8, 64, 80
5, 274440, Note_off_c, 8, 61, 80
5, 274800, Note_on_c, 8, 64, 95
5, 274800, Note_on_c, 8, 61, 95
5, 275040, Note_off_c, 8, 64, 80
5, 275040, Note_off_c, 8, 61, 80
5, 275280, Note_on_c, 8, 63, 95
5, 275280, Note_on_c, 8, 59, 95
5, 275520, Note_off_c, 8, 63, 80
5, 275520, Note_off_c, 8, 59, 80
5, 275760, Note_on_c, 8, 63, 95
5, 275760, Note_on_c, 8, 59, 95
5, 276000, Note_off_c, 8, 63, 80
5, 276000, Note_off_c, 8, 59, 80
5, 276240, Note_on_c, 8, 64, 95
5, 276240, Note_on_c, 8, 61, 95
5, 276480, Note_off_c, 8, 64, 80
5, 276480, Note_off_c, 8, 61, 80
5, 276720, Note_on_c, 8, 64, 95
5, 276720, Note_on_c, 8, 61, 95
5, 276960, Note_off_c, 8, 64, 80
5, 276960, Note_off_c, 8, 61, 80
5, 277200, Note_on_c, 8, 68, 95
5, 277200, Note_on_c, 8, 63, 95
5, 277200, Note_on_c, 8, 59, 95
5, 277440, Note_off_c, 8, 68, 80
5, 277440, Note_off_c, 8, 63, 80
5, 277440, Note_off_c, 8, 59, 80
5, 277680, Note_on_c, 8, 63, 95
5, 277680, Note_on_c, 8, 59, 95
5, 277920, Note_off_c, 8, 63, 80
5, 277920, Note_off_c, 8, 59, 80
5, 278160, Note_on_c, 8, 64, 95
5, 278160, Note_on_c, 8, 61, 95
5, 278280, Note_off_c, 8, 64, 80
5, 278280, Note_off_c, 8, 61, 80
5, 278640, Note_on_c, 8, 64, 95
5, 278640, Note_on_c, 8, 61, 95
5, 278880, Note_off_c, 8, 64, 80
5, 278880, Note_off_c, 8, 61, 80
5, 279120, Note_on_c, 8, 63, 95
5, 279120, Note_on_c, 8, 59, 95
5, 279360, Note_off_c, 8, 63, 80
5, 279360, Note_off_c, 8, 59, 80
5, 279600, Note_on_c, 8, 63, 95
5, 279600, Note_on_c, 8, 59, 95
5, 279840, Note_off_c, 8, 63, 80
5, 279840, Note_off_c, 8, 59, 80
5, 280080, Note_on_c, 8, 68, 95
5, 280080, Note_on_c, 8, 61, 95
5, 280320, Note_off_c, 8, 68, 80
5, 280320, Note_off_c, 8, 61, 80
5, 280560, Note_on_c, 8, 68, 95
5, 280560, Note_on_c, 8, 61, 95
5, 280800, Note_off_c, 8, 68, 80
5, 280800, Note_off_c, 8, 61, 80
5, 281040, Note_on_c, 8, 66, 95
5, 281040, Note_on_c, 8, 63, 95
5, 281040, Note_on_c, 8, 59, 95
5, 281280, Note_off_c, 8, 66, 80
5, 281280, Note_off_c, 8, 63, 80
5, 281280, Note_off_c, 8, 59, 80
5, 281520, Note_on_c, 8, 63, 95
5, 281520, Note_on_c, 8, 59, 95
5, 281760, Note_off_c, 8, 63, 80
5, 281760, Note_off_c, 8, 59, 80
5, 282000, Note_on_c, 8, 64, 95
5, 282000, Note_on_c, 8, 61, 95
5, 282120, Note_off_c, 8, 64, 80
5, 282120, Note_off_c, 8, 61, 80
5, 282480, Note_on_c, 8, 63, 95
5, 282480, Note_on_c, 8, 59, 95
5, 282720, Note_off_c, 8, 63, 80
5, 282720, Note_off_c, 8, 59, 80
5, 282960, Note_on_c, 8, 61, 95
5, 282960, Note_on_c, 8, 58, 95
5, 283200, Note_off_c, 8, 61, 80
5, 283200, Note_off_c, 8, 58, 80
5, 283440, Note_on_c, 8, 61, 95
5, 283440, Note_on_c, 8, 58, 95
5, 283680, Note_off_c, 8, 61, 80
5, 283680, Note_off_c, 8, 58, 80
5, 283920, Note_on_c, 8, 63, 95
5, 283920, Note_on_c, 8, 59, 95
5, 284160, Note_off_c, 8, 63, 80
5, 284160, Note_off_c, 8, 59, 80
5, 284400, Note_on_c, 8, 63, 95
5, 284400, Note_on_c, 8, 59, 95
5, 284640, Note_off_c, 8, 63, 80
5, 284640, Note_off_c, 8, 59, 80
5, 284880, Note_on_c, 8, 61, 95
5, 284880, Note_on_c, 8, 58, 95
5, 285120, Note_off_c, 8, 61, 80
5, 285120, Note_off_c, 8, 58, 80
5, 285360, Note_on_c, 8, 61, 95
5, 285360, Note_on_c, 8, 58, 95
5, 285600, Note_off_c, 8, 61, 80
5, 285600, Note_off_c, 8, 58, 80
5, 285840, Note_on_c, 8, 63, 95
5, 285840, Note_on_c, 8, 59, 95
5, 285960, Note_off_c, 8, 63, 80
5, 285960, Note_off_c, 8, 59, 80
5, 286320, Note_on_c, 8, 63, 95
5, 286320, Note_on_c, 8, 59, 95
5, 286560, Note_off_c, 8, 63, 80
5, 286560, Note_off_c, 8, 59, 80
5, 286800, Note_on_c, 8, 61, 95
5, 286800, Note_on_c, 8, 58, 95
5, 287040, Note_off_c, 8, 61, 80
5, 287040, Note_off_c, 8, 58, 80
5, 287280, Note_on_c, 8, 61, 95
5, 287280, Note_on_c, 8, 58, 95
5, 287520, Note_off_c, 8, 61, 80
5, 287520, Note_off_c, 8, 58, 80
5, 287760, Note_on_c, 8, 63, 95
5, 287760, Note_on_c, 8, 59, 95
5, 288000, Note_off_c, 8, 63, 80
5, 288000, Note_off_c, 8, 59, 80
5, 288240, Note_on_c, 8, 63, 95
5, 288240, Note_on_c, 8, 59, 95
5, 288480, Note_off_c, 8, 63, 80
5, 288480, Note_off_c, 8, 59, 80
5, 288720, Note_on_c, 8, 66, 95
5, 288720, Note_on_c, 8, 61, 95
5, 288720, Note_on_c, 8, 58, 95
5, 288960, Note_off_c, 8, 66, 80
5, 288960, Note_off_c, 8, 61, 80
5, 288960, Note_off_c, 8, 58, 80
5, 289200, Note_on_c, 8, 63, 95
5, 289200, Note_on_c, 8, 58, 95
5, 289440, Note_off_c, 8, 63, 80
5, 289440, Note_off_c, 8, 58, 80
5, 289680, Note_on_c, 8, 68, 95
5, 289680, Note_on_c, 8, 63, 95
5, 289680, Note_on_c, 8, 59, 95
5, 289800, Note_off_c, 8, 68, 80
5, 289800, Note_off_c, 8, 63, 80
5, 289800, Note_off_c, 8, 59, 80
5, 290160, Note_on_c, 8, 63, 95
5, 290160, Note_on_c, 8, 59, 95
5, 290400, Note_off_c, 8, 63, 80
5, 290400, Note_off_c, 8, 59, 80
5, 290640, Note_on_c, 8, 61, 95
5, 290640, Note_on_c, 8, 58, 95
5, 290880, Note_off_c, 8, 61, 80
5, 290880, Note_off_c, 8, 58, 80
5, 291120, Note_on_c, 8, 61, 95
5, 291120, Note_on_c, 8, 58, 95
5, 291360, Note_off_c, 8, 61, 80
5, 291360, Note_off_c, 8, 58, 80
5, 291600, Note_on_c, 8, 63, 95
5, 291600, Note_on_c, 8, 59, 95
5, 291840, Note_off_c, 8, 63, 80
5, 291840, Note_off_c, 8, 59, 80
5, 292080, Note_on_c, 8, 63, 95
5, 292080, Note_on_c, 8, 59, 95
5, 292320, Note_off_c, 8, 63, 80
5, 292320, Note_off_c, 8, 59, 80
5, 292560, Note_on_c, 8, 61, 95
5, 292560, Note_on_c, 8, 58, 95
5, 292800, Note_off_c, 8, 61, 80
5, 292800, Note_off_c, 8, 58, 80
5, 293040, Note_on_c, 8, 61, 95
5, 293040, Note_on_c, 8, 58, 95
5, 293280, Note_off_c, 8, 61, 80
5, 293280, Note_off_c, 8, 58, 80
5, 293520, Note_on_c, 8, 63, 95
5, 293520, Note_on_c, 8, 59, 95
5, 293640, Note_off_c, 8, 63, 80
5, 293640, Note_off_c, 8, 59, 80
5, 294000, Note_on_c, 8, 63, 95
5, 294000, Note_on_c, 8, 59, 95
5, 294240, Note_off_c, 8, 63, 80
5, 294240, Note_off_c, 8, 59, 80
5, 294480, Note_on_c, 8, 61, 95
5, 294480, Note_on_c, 8, 58, 95
5, 294720, Note_off_c, 8, 61, 80
5, 294720, Note_off_c, 8, 58, 80
5, 294960, Note_on_c, 8, 61, 95
5, 294960, Note_on_c, 8, 58, 95
5, 295200, Note_off_c, 8, 61, 80
5, 295200, Note_off_c, 8, 58, 80
5, 295440, Note_on_c, 8, 63, 95
5, 295440, Note_on_c, 8, 59, 95
5, 295680, Note_off_c, 8, 63, 80
5, 295680, Note_off_c, 8, 59, 80
5, 295920, Note_on_c, 8, 63, 95
5, 295920, Note_on_c, 8, 59, 95
5, 296160, Note_off_c, 8, 63, 80
5, 296160, Note_off_c, 8, 59, 80
5, 296400, Note_on_c, 8, 66, 95
5, 296400, Note_on_c, 8, 61, 95
5, 296400, Note_on_c, 8, 58, 95
5, 296640, Note_off_c, 8, 66, 80
5, 296640, Note_off_c, 8, 61, 80
5, 296640, Note_off_c, 8, 58, 80
5, 296880, Note_on_c, 8, 63, 95
5, 296880, Note_on_c, 8, 58, 95
5, 297120, Note_off_c, 8, 63, 80
5, 297120, Note_off_c, 8, 58, 80
5, 297360, Note_on_c, 8, 68, 95
5, 297360, Note_on_c, 8, 63, 95
5, 297360, Note_on_c, 8, 59, 95
5, 297480, Note_off_c, 8, 68, 80
5, 297480, Note_off_c, 8, 63, 80
5, 297480, Note_off_c, 8, 59, 80
5, 312720, Note_on_c, 8, 68, 95
5, 312720, Note_on_c, 8, 63, 95
5, 312720, Note_on_c, 8, 59, 95
5, 312840, Note_off_c, 8, 68, 80
5, 312840, Note_off_c, 8, 63, 80
5, 312840, Note_off_c, 8, 59, 80
5, 328560, Note_on_c, 8, 64, 95
5, 328560, Note_on_c, 8, 61, 95
5, 328800, Note_off_c, 8, 64, 80
5, 328800, Note_off_c, 8, 61, 80
5, 329040, Note_on_c, 8, 63, 95
5, 329040, Note_on_c, 8, 59, 95
5, 329280, Note_off_c, 8, 63, 80
5, 329280, Note_off_c, 8, 59, 80
5, 329520, Note_on_c, 8, 63, 95
5, 329520, Note_on_c, 8, 59, 95
5, 329760, Note_off_c, 8, 63, 80
5, 329760, Note_off_c, 8, 59, 80
5, 330000, Note_on_c, 8, 64, 95
5, 330000, Note_on_c, 8, 61, 95
5, 330240, Note_off_c, 8, 64, 80
5, 330240, Note_off_c, 8, 61, 80
5, 330480, Note_on_c, 8, 64, 95
5, 330480, Note_on_c, 8, 61, 95
5, 330720, Note_off_c, 8, 64, 80
5, 330720, Note_off_c, 8, 61, 80
5, 330960, Note_on_c, 8, 68, 95
5, 330960, Note_on_c, 8, 63, 95
5, 330960, Note_on_c, 8, 59, 95
5, 331200, Note_off_c, 8, 68, 80
5, 331200, Note_off_c, 8, 63, 80
5, 331200, Note_off_c, 8, 59, 80
5, 331440, Note_on_c, 8, 63, 95
5, 331440, Note_on_c, 8, 59, 95
5, 331680, Note_off_c, 8, 63, 80
5, 331680, Note_off_c, 8, 59, 80
5, 331920, Note_on_c, 8, 64, 95
5, 331920, Note_on_c, 8, 61, 95
5, 332040, Note_off_c, 8, 64, 80
5, 332040, Note_off_c, 8, 61, 80
5, 332400, Note_on_c, 8, 64, 95
5, 332400, Note_on_c, 8, 61, 95
5, 332640, Note_off_c, 8, 64, 80
5, 332640, Note_off_c, 8, 61, 80
5, 332880, Note_on_c, 8, 63, 95
5, 332880, Note_on_c, 8, 59, 95
5, 333120, Note_off_c, 8, 63, 80
5, 333120, Note_off_c, 8, 59, 80
5, 333360, Note_on_c, 8, 63, 95
5, 333360, Note_on_c, 8, 59, 95
5, 333600, Note_off_c, 8, 63, 80
5, 333600, Note_off_c, 8, 59, 80
5, 333840, Note_on_c, 8, 68, 95
5, 333840, Note_on_c, 8, 61, 95
5, 334080, Note_off_c, 8, 68, 80
5, 334080, Note_off_c, 8, 61, 80
5, 334320, Note_on_c, 8, 68, 95
5, 334320, Note_on_c, 8, 61, 95
5, 334560, Note_off_c, 8, 68, 80
5, 334560, Note_off_c, 8, 61, 80
5, 334800, Note_on_c, 8, 66, 95
5, 334800, Note_on_c, 8, 63, 95
5, 334800, Note_on_c, 8, 59, 95
5, 335040, Note_off_c, 8, 66, 80
5, 335040, Note_off_c, 8, 63, 80
5, 335040, Note_off_c, 8, 59, 80
5, 335280, Note_on_c, 8, 63, 95
5, 335280, Note_on_c, 8, 59, 95
5, 335520, Note_off_c, 8, 63, 80
5, 335520, Note_off_c, 8, 59, 80
5, 335760, Note_on_c, 8, 64, 95
5, 335760, Note_on_c, 8, 61, 95
5, 335880, Note_off_c, 8, 64, 80
5, 335880, Note_off_c, 8, 61, 80
5, 336240, Note_on_c, 8, 64, 95
5, 336240, Note_on_c, 8, 61, 95
5, 336480, Note_off_c, 8, 64, 80
5, 336480, Note_off_c, 8, 61, 80
5, 336720, Note_on_c, 8, 63, 95
5, 336720, Note_on_c, 8, 59, 95
5, 336960, Note_off_c, 8, 63, 80
5, 336960, Note_off_c, 8, 59, 80
5, 337200, Note_on_c, 8, 63, 95
5, 337200, Note_on_c, 8, 59, 95
5, 337440, Note_off_c, 8, 63, 80
5, 337440, Note_off_c, 8, 59, 80
5, 337680, Note_on_c, 8, 64, 95
5, 337680, Note_on_c, 8, 61, 95
5, 337920, Note_off_c, 8, 64, 80
5, 337920, Note_off_c, 8, 61, 80
5, 338160, Note_on_c, 8, 64, 95
5, 338160, Note_on_c, 8, 61, 95
5, 338400, Note_off_c, 8, 64, 80
5, 338400, Note_off_c, 8, 61, 80
5, 338640, Note_on_c, 8, 68, 95
5, 338640, Note_on_c, 8, 63, 95
5, 338640, Note_on_c, 8, 59, 95
5, 338880, Note_off_c, 8, 68, 80
5, 338880, Note_off_c, 8, 63, 80
5, 338880, Note_off_c, 8, 59, 80
5, 339120, Note_on_c, 8, 63, 95
5, 339120, Note_on_c, 8, 59, 95
5, 339360, Note_off_c, 8, 63, 80
5, 339360, Note_off_c, 8, 59, 80
5, 339600, Note_on_c, 8, 64, 95
5, 339600, Note_on_c, 8, 61, 95
5, 339720, Note_off_c, 8, 64, 80
5, 339720, Note_off_c, 8, 61, 80
5, 340080, Note_on_c, 8, 64, 95
5, 340080, Note_on_c, 8, 61, 95
5, 340320, Note_off_c, 8, 64, 80
5, 340320, Note_off_c, 8, 61, 80
5, 340560, Note_on_c, 8, 63, 95
5, 340560, Note_on_c, 8, 59, 95
5, 340800, Note_off_c, 8, 63, 80
5, 340800, Note_off_c, 8, 59, 80
5, 341040, Note_on_c, 8, 63, 95
5, 341040, Note_on_c, 8, 59, 95
5, 341280, Note_off_c, 8, 63, 80
5, 341280, Note_off_c, 8, 59, 80
5, 341520, Note_on_c, 8, 68, 95
5, 341520, Note_on_c, 8, 61, 95
5, 341760, Note_off_c, 8, 68, 80
5, 341760, Note_off_c, 8, 61, 80
5, 342000, Note_on_c, 8, 68, 95
5, 342000, Note_on_c, 8, 61, 95
5, 342240, Note_off_c, 8, 68, 80
5, 342240, Note_off_c, 8, 61, 80
5, 342480, Note_on_c, 8, 66, 95
5, 342480, Note_on_c, 8, 63, 95
5, 342480, Note_on_c, 8, 59, 95
5, 342720, Note_off_c, 8, 66, 80
5, 342720, Note_off_c, 8, 63, 80
5, 342720, Note_off_c, 8, 59, 80
5, 342960, Note_on_c, 8, 63, 95
5, 342960, Note_on_c, 8, 59, 95
5, 343200, Note_off_c, 8, 63, 80
5, 343200, Note_off_c, 8, 59, 80
5, 343440, Note_on_c, 8, 64, 95
5, 343440, Note_on_c, 8, 61, 95
5, 343560, Note_off_c, 8, 64, 80
5, 343560, Note_off_c, 8, 61, 80
5, 343920, Note_on_c, 8, 64, 95
5, 343920, Note_on_c, 8, 61, 95
5, 344160, Note_off_c, 8, 64, 80
5, 344160, Note_off_c, 8, 61, 80
5, 344400, Note_on_c, 8, 63, 95
5, 344400, Note_on_c, 8, 59, 95
5, 344640, Note_off_c, 8, 63, 80
5, 344640, Note_off_c, 8, 59, 80
5, 344640, Control_c, 8, 7, 64
5, 344640, Control_c, 10, 7, 64
5, 344880, Note_on_c, 8, 63, 95
5, 344880, Note_on_c, 8, 59, 95
5, 345120, Note_off_c, 8, 63, 80
5, 345120, Note_off_c, 8, 59, 80
5, 345360, Note_on_c, 8, 64, 95
5, 345360, Note_on_c, 8, 61, 95
5, 345600, Note_off_c, 8, 64, 80
5, 345600, Note_off_c, 8, 61, 80
5, 345600, Control_c, 8, 7, 56
5, 345600, Control_c, 10, 7, 56
5, 345840, Note_on_c, 8, 64, 95
5, 345840, Note_on_c, 8, 61, 95
5, 346080, Note_off_c, 8, 64, 80
5, 346080, Note_off_c, 8, 61, 80
5, 346320, Note_on_c, 8, 68, 95
5, 346320, Note_on_c, 8, 63, 95
5, 346320, Note_on_c, 8, 59, 95
5, 346560, Note_off_c, 8, 68, 80
5, 346560, Note_off_c, 8, 63, 80
5, 346560, Note_off_c, 8, 59, 80
5, 346560, Control_c, 8, 7, 48
5, 346560, Control_c, 10, 7, 48
5, 346800, Note_on_c, 8, 63, 95
5, 346800, Note_on_c, 8, 59, 95
5, 347040, Note_off_c, 8, 63, 80
5, 347040, Note_off_c, 8, 59, 80
5, 347280, Note_on_c, 8, 64, 95
5, 347280, Note_on_c, 8, 61, 95
5, 347400, Note_off_c, 8, 64, 80
5, 347400, Note_off_c, 8, 61, 80
5, 347520, Control_c, 8, 7, 40
5, 347520, Control_c, 10, 7, 40
5, 347760, Note_on_c, 8, 64, 95
5, 347760, Note_on_c, 8, 61, 95
5, 348000, Note_off_c, 8, 64, 80
5, 348000, Note_off_c, 8, 61, 80
5, 348240, Note_on_c, 8, 63, 95
5, 348240, Note_on_c, 8, 59, 95
5, 348480, Note_off_c, 8, 63, 80
5, 348480, Note_off_c, 8, 59, 80
5, 348480, Control_c, 8, 7, 32
5, 348480, Control_c, 10, 7, 32
5, 348720, Note_on_c, 8, 63, 95
5, 348720, Note_on_c, 8, 59, 95
5, 348960, Note_off_c, 8, 63, 80
5, 348960, Note_off_c, 8, 59, 80
5, 349200, Note_on_c, 8, 68, 95
5, 349200, Note_on_c, 8, 61, 95
5, 349440, Note_off_c, 8, 68, 80
5, 349440, Note_off_c, 8, 61, 80
5, 349440, Control_c, 8, 7, 24
5, 349440, Control_c, 10, 7, 24
5, 349680, Note_on_c, 8, 68, 95
5, 349680, Note_on_c, 8, 61, 95
5, 349920, Note_off_c, 8, 68, 80
5, 349920, Note_off_c, 8, 61, 80
5, 350160, Note_on_c, 8, 66, 95
5, 350160, Note_on_c, 8, 63, 95
5, 350160, Note_on_c, 8, 59, 95
5, 350400, Note_off_c, 8, 66, 80
5, 350400, Note_off_c, 8, 63, 80
5, 350400, Note_off_c, 8, 59, 80
5, 350400, Control_c, 8, 7, 16
5, 350400, Control_c, 10, 7, 16
5, 350640, Note_on_c, 8, 63, 95
5, 350640, Note_on_c, 8, 59, 95
5, 350880, Note_off_c, 8, 63, 80
5, 350880, Note_off_c, 8, 59, 80
5, 351120, Note_on_c, 8, 64, 95
5, 351120, Note_on_c, 8, 61, 95
5, 351240, Note_off_c, 8, 64, 80
5, 351240, Note_off_c, 8, 61, 80
5, 351360, Control_c, 8, 7, 8
5, 351360, Control_c, 10, 7, 8
5, 351600, Note_on_c, 8, 64, 95
5, 351600, Note_on_c, 8, 61, 95
5, 351840, Note_off_c, 8, 64, 80
5, 351840, Note_off_c, 8, 61, 80
5, 352080, Note_on_c, 8, 63, 95
5, 352080, Note_on_c, 8, 59, 95
5, 352320, Note_off_c, 8, 63, 80
5, 352320, Note_off_c, 8, 59, 80
5, 352320, Control_c, 8, 7, 0
5, 352320, Control_c, 10, 7, 0
5, 352560, Note_on_c, 8, 63, 95
5, 352560, Note_on_c, 8, 59, 95
5, 352800, Note_off_c, 8, 63, 80
5, 352800, Note_off_c, 8, 59, 80
5, 353040, Note_on_c, 8, 64, 95
5, 353040, Note_on_c, 8, 61, 95
5, 353280, Note_off_c, 8, 64, 80
5, 353280, Note_off_c, 8, 61, 80
5, 353280, End_track
6, 0, Start_track
6, 0, Title_t, "Square"
6, 0, Control_c, 13, 100, 0
6, 0, Control_c, 13, 101, 0
6, 0, Control_c, 13, 6, 8
6, 0, Pitch_bend_c, 13, 8192
6, 0, Control_c, 14, 100, 0
6, 0, Control_c, 14, 101, 0
6, 0, Control_c, 14, 6, 8
6, 0, Pitch_bend_c, 14, 8192
6, 0, Program_c, 13, 80
6, 0, Program_c, 14, 80
6, 0, Control_c, 13, 7, 104
6, 0, Control_c, 14, 7, 104
6, 0, Control_c, 13, 10, 64
6, 0, Control_c, 14, 10, 64
6, 0, Control_c, 13, 93, 0
6, 0, Control_c, 14, 93, 0
6, 0, Control_c, 13, 91, 0
6, 0, Control_c, 14, 91, 0
6, 0, Control_c, 13, 92, 0
6, 0, Control_c, 14, 92, 0
6, 0, Control_c, 13, 95, 0
6, 0, Control_c, 14, 95, 0
6, 97680, Note_on_c, 13, 76, 95
6, 97680, Note_on_c, 13, 73, 95
6, 97680, Note_on_c, 13, 68, 95
6, 97920, Note_off_c, 13, 76, 80
6, 97920, Note_off_c, 13, 73, 80
6, 97920, Note_off_c, 13, 68, 80
6, 98160, Note_on_c, 13, 73, 95
6, 98160, Note_on_c, 13, 68, 95
6, 98160, Note_on_c, 13, 64, 95
6, 98280, Note_off_c, 13, 73, 80
6, 98280, Note_off_c, 13, 68, 80
6, 98280, Note_off_c, 13, 64, 80
6, 98640, Note_on_c, 13, 75, 95
6, 98640, Note_on_c, 13, 71, 95
6, 98640, Note_on_c, 13, 66, 95
6, 99360, Note_off_c, 13, 75, 80
6, 99360, Note_off_c, 13, 71, 80
6, 99360, Note_off_c, 13, 66, 80
6, 99600, Note_on_c, 13, 76, 95
6, 99600, Note_on_c, 13, 73, 95
6, 99600, Note_on_c, 13, 68, 95
6, 99840, Note_off_c, 13, 76, 80
6, 99840, Note_off_c, 13, 73, 80
6, 99840, Note_off_c, 13, 68, 80
6, 100560, Note_on_c, 13, 75, 95
6, 100560, Note_on_c, 13, 71, 95
6, 100560, Note_on_c, 13, 66, 95
6, 100800, Note_off_c, 13, 75, 80
6, 100800, Note_off_c, 13, 71, 80
6, 100800, Note_off_c, 13, 66, 80
6, 101040, Note_on_c, 13, 71, 95
6, 101040, Note_on_c, 13, 66, 95
6, 101280, Note_off_c, 13, 71, 80
6, 101280, Note_off_c, 13, 66, 80
6, 101520, Note_on_c, 13, 73, 95
6, 101520, Note_on_c, 13, 68, 95
6, 101520, Note_on_c, 13, 64, 95
6, 102000, Note_off_c, 13, 73, 80
6, 102000, Note_off_c, 13, 68, 80
6, 102000, Note_off_c, 13, 64, 80
6, 107280, Note_on_c, 13, 71, 95
6, 107280, Note_on_c, 13, 66, 95
6, 107280, Note_on_c, 13, 63, 95
6, 107760, Note_off_c, 13, 71, 80
6, 107760, Note_off_c, 13, 66, 80
6, 107760, Note_off_c, 13, 63, 80
6, 107760, Note_on_c, 13, 73, 95
6, 107760, Note_on_c, 13, 71, 95
6, 107760, Note_on_c, 13, 66, 95
6, 108000, Note_off_c, 13, 73, 80
6, 108000, Note_off_c, 13, 71, 80
6, 108000, Note_off_c, 13, 66, 80
6, 108000, Note_on_c, 13, 75, 95
6, 108000, Note_on_c, 13, 71, 95
6, 108000, Note_on_c, 13, 66, 95
6, 108240, Note_off_c, 13, 75, 80
6, 108240, Note_off_c, 13, 71, 80
6, 108240, Note_off_c, 13, 66, 80
6, 108240, Note_on_c, 13, 76, 95
6, 108240, Note_on_c, 13, 73, 95
6, 108240, Note_on_c, 13, 68, 95
6, 108480, Note_off_c, 13, 76, 80
6, 108480, Note_off_c, 13, 73, 80
6, 108480, Note_off_c, 13, 68, 80
6, 159120, Note_on_c, 13, 76, 95
6, 159120, Note_on_c, 13, 73, 95
6, 159120, Note_on_c, 13, 68, 95
6, 159360, Note_off_c, 13, 76, 80
6, 159360, Note_off_c, 13, 73, 80
6, 159360, Note_off_c, 13, 68, 80
6, 159600, Note_on_c, 13, 73, 95
6, 159600, Note_on_c, 13, 68, 95
6, 159600, Note_on_c, 13, 64, 95
6, 159720, Note_off_c, 13, 73, 80
6, 159720, Note_off_c, 13, 68, 80
6, 159720, Note_off_c, 13, 64, 80
6, 160080, Note_on_c, 13, 75, 95
6, 160080, Note_on_c, 13, 71, 95
6, 160080, Note_on_c, 13, 66, 95
6, 160800, Note_off_c, 13, 75, 80
6, 160800, Note_off_c, 13, 71, 80
6, 160800, Note_off_c, 13, 66, 80
6, 161040, Note_on_c, 13, 76, 95
6, 161040, Note_on_c, 13, 73, 95
6, 161040, Note_on_c, 13, 68, 95
6, 161280, Note_off_c, 13, 76, 80
6, 161280, Note_off_c, 13, 73, 80
6, 161280, Note_off_c, 13, 68, 80
6, 162000, Note_on_c, 13, 75, 95
6, 162000, Note_on_c, 13, 71, 95
6, 162000, Note_on_c, 13, 66, 95
6, 162240, Note_off_c, 13, 75, 80
6, 162240, Note_off_c, 13, 71, 80
6, 162240, Note_off_c, 13, 66, 80
6, 162480, Note_on_c, 13, 71, 95
6, 162480, Note_on_c, 13, 66, 95
6, 162720, Note_off_c, 13, 71, 80
6, 162720, Note_off_c, 13, 66, 80
6, 162960, Note_on_c, 13, 73, 95
6, 162960, Note_on_c, 13, 68, 95
6, 162960, Note_on_c, 13, 64, 95
6, 163440, Note_off_c, 13, 73, 80
6, 163440, Note_off_c, 13, 68, 80
6, 163440, Note_off_c, 13, 64, 80
6, 168720, Note_on_c, 13, 71, 95
6, 168720, Note_on_c, 13, 66, 95
6, 168720, Note_on_c, 13, 63, 95
6, 169200, Note_off_c, 13, 71, 80
6, 169200, Note_off_c, 13, 66, 80
6, 169200, Note_off_c, 13, 63, 80
6, 169200, Note_on_c, 13, 73, 95
6, 169200, Note_on_c, 13, 71, 95
6, 169200, Note_on_c, 13, 66, 95
6, 169440, Note_off_c, 13, 73, 80
6, 169440, Note_off_c, 13, 71, 80
6, 169440, Note_off_c, 13, 66, 80
6, 169440, Note_on_c, 13, 75, 95
6, 169440, Note_on_c, 13, 71, 95
6, 169440, Note_on_c, 13, 66, 95
6, 169680, Note_off_c, 13, 75, 80
6, 169680, Note_off_c, 13, 71, 80
6, 169680, Note_off_c, 13, 66, 80
6, 169680, Note_on_c, 13, 76, 95
6, 169680, Note_on_c, 13, 73, 95
6, 169680, Note_on_c, 13, 68, 95
6, 169920, Note_off_c, 13, 76, 80
6, 169920, Note_off_c, 13, 73, 80
6, 169920, Note_off_c, 13, 68, 80
6, 220560, Note_on_c, 13, 73, 95
6, 220560, Note_on_c, 13, 68, 95
6, 220560, Note_on_c, 13, 64, 95
6, 220800, Note_off_c, 13, 73, 80
6, 220800, Note_off_c, 13, 68, 80
6, 220800, Note_off_c, 13, 64, 80
6, 221040, Note_on_c, 13, 76, 95
6, 221040, Note_on_c, 13, 68, 95
6, 221040, Note_on_c, 13, 64, 95
6, 221160, Note_off_c, 13, 76, 80
6, 221160, Note_off_c, 13, 68, 80
6, 221160, Note_off_c, 13, 64, 80
6, 221520, Note_on_c, 13, 75, 95
6, 221520, Note_on_c, 13, 71, 95
6, 221520, Note_on_c, 13, 66, 95
6, 222240, Note_off_c, 13, 75, 80
6, 222240, Note_off_c, 13, 71, 80
6, 222240, Note_off_c, 13, 66, 80
6, 222480, Note_on_c, 13, 76, 95
6, 222480, Note_on_c, 13, 73, 95
6, 222480, Note_on_c, 13, 68, 95
6, 222720, Note_off_c, 13, 76, 80
6, 222720, Note_off_c, 13, 73, 80
6, 222720, Note_off_c, 13, 68, 80
6, 223440, Note_on_c, 13, 75, 95
6, 223440, Note_on_c, 13, 71, 95
6, 223440, Note_on_c, 13, 66, 95
6, 223680, Note_off_c, 13, 75, 80
6, 223680, Note_off_c, 13, 71, 80
6, 223680, Note_off_c, 13, 66, 80
6, 223920, Note_on_c, 13, 71, 95
6, 223920, Note_on_c, 13, 66, 95
6, 224160, Note_off_c, 13, 71, 80
6, 224160, Note_off_c, 13, 66, 80
6, 224400, Note_on_c, 13, 73, 95
6, 224400, Note_on_c, 13, 68, 95
6, 224400, Note_on_c, 13, 64, 95
6, 224880, Note_off_c, 13, 73, 80
6, 224880, Note_off_c, 13, 68, 80
6, 224880, Note_off_c, 13, 64, 80
6, 230160, Note_on_c, 13, 71, 95
6, 230160, Note_on_c, 13, 66, 95
6, 230160, Note_on_c, 13, 63, 95
6, 230640, Note_off_c, 13, 71, 80
6, 230640, Note_off_c, 13, 66, 80
6, 230640, Note_off_c, 13, 63, 80
6, 230640, Note_on_c, 13, 73, 95
6, 230640, Note_on_c, 13, 71, 95
6, 230640, Note_on_c, 13, 66, 95
6, 230880, Note_off_c, 13, 73, 80
6, 230880, Note_off_c, 13, 71, 80
6, 230880, Note_off_c, 13, 66, 80
6, 230880, Note_on_c, 13, 75, 95
6, 230880, Note_on_c, 13, 71, 95
6, 230880, Note_on_c, 13, 66, 95
6, 231120, Note_off_c, 13, 75, 80
6, 231120, Note_off_c, 13, 71, 80
6, 231120, Note_off_c, 13, 66, 80
6, 231120, Note_on_c, 13, 76, 95
6, 231120, Note_on_c, 13, 73, 95
6, 231120, Note_on_c, 13, 68, 95
6, 231360, Note_off_c, 13, 76, 80
6, 231360, Note_off_c, 13, 73, 80
6, 231360, Note_off_c, 13, 68, 80
6, 243120, Note_on_c, 13, 63, 95
6, 243120, Note_on_c, 13, 59, 95
6, 243120, Note_on_c, 13, 54, 95
6, 243360, Note_off_c, 13, 63, 80
6, 243360, Note_off_c, 13, 59, 80
6, 243360, Note_off_c, 13, 54, 80
6, 243360, Note_on_c, 13, 63, 95
6, 243360, Note_on_c, 13, 59, 95
6, 243360, Note_on_c, 13, 54, 95
6, 243600, Note_off_c, 13, 63, 80
6, 243600, Note_off_c, 13, 59, 80
6, 243600, Note_off_c, 13, 54, 80
6, 243600, Note_on_c, 13, 64, 95
6, 243600, Note_on_c, 13, 61, 95
6, 243600, Note_on_c, 13, 56, 95
6, 243840, Note_off_c, 13, 64, 80
6, 243840, Note_off_c, 13, 61, 80
6, 243840, Note_off_c, 13, 56, 80
6, 249600, Note_on_c, 13, 64, 95
6, 249600, Note_on_c, 13, 61, 95
6, 249600, Note_on_c, 13, 57, 95
6, 250320, Note_off_c, 13, 64, 80
6, 250320, Note_off_c, 13, 61, 80
6, 250320, Note_off_c, 13, 57, 80
6, 250320, Note_on_c, 13, 66, 95
6, 250320, Note_on_c, 13, 63, 95
6, 250320, Note_on_c, 13, 59, 95
6, 251520, Note_off_c, 13, 66, 80
6, 251520, Note_off_c, 13, 63, 80
6, 251520, Note_off_c, 13, 59, 80
6, 258480, Note_on_c, 13, 63, 95
6, 258480, Note_on_c, 13, 59, 95
6, 258480, Note_on_c, 13, 54, 95
6, 258720, Note_off_c, 13, 63, 80
6, 258720, Note_off_c, 13, 59, 80
6, 258720, Note_off_c, 13, 54, 80
6, 258720, Note_on_c, 13, 63, 95
6, 258720, Note_on_c, 13, 59, 95
6, 258720, Note_on_c, 13, 54, 95
6, 258960, Note_off_c, 13, 63, 80
6, 258960, Note_off_c, 13, 59, 80
6, 258960, Note_off_c, 13, 54, 80
6, 258960, Note_on_c, 13, 64, 95
6, 258960, Note_on_c, 13, 61, 95
6, 258960, Note_on_c, 13, 56, 95
6, 259200, Note_off_c, 13, 64, 80
6, 259200, Note_off_c, 13, 61, 80
6, 259200, Note_off_c, 13, 56, 80
6, 264960, Note_on_c, 13, 64, 95
6, 264960, Note_on_c, 13, 61, 95
6, 264960, Note_on_c, 13, 57, 95
6, 265680, Note_off_c, 13, 64, 80
6, 265680, Note_off_c, 13, 61, 80
6, 265680, Note_off_c, 13, 57, 80
6, 265680, Note_on_c, 13, 66, 95
6, 265680, Note_on_c, 13, 63, 95
6, 265680, Note_on_c, 13, 59, 95
6, 266880, Note_off_c, 13, 66, 80
6, 266880, Note_off_c, 13, 63, 80
6, 266880, Note_off_c, 13, 59, 80
6, 297360, Note_on_c, 13, 76, 95
6, 297360, Note_on_c, 13, 73, 95
6, 297360, Note_on_c, 13, 68, 95
6, 297600, Note_off_c, 13, 76, 80
6, 297600, Note_off_c, 13, 73, 80
6, 297600, Note_off_c, 13, 68, 80
6, 297840, Note_on_c, 13, 73, 95
6, 297840, Note_on_c, 13, 68, 95
6, 297840, Note_on_c, 13, 64, 95
6, 297960, Note_off_c, 13, 73, 80
6, 297960, Note_off_c, 13, 68, 80
6, 297960, Note_off_c, 13, 64, 80
6, 298320, Note_on_c, 13, 75, 95
6, 298320, Note_on_c, 13, 71, 95
6, 298320, Note_on_c, 13, 66, 95
6, 299040, Note_off_c, 13, 75, 80
6, 299040, Note_off_c, 13, 71, 80
6, 299040, Note_off_c, 13, 66, 80
6, 299280, Note_on_c, 13, 76, 95
6, 299280, Note_on_c, 13, 73, 95
6, 299280, Note_on_c, 13, 68, 95
6, 299520, Note_off_c, 13, 76, 80
6, 299520, Note_off_c, 13, 73, 80
6, 299520, Note_off_c, 13, 68, 80
6, 300240, Note_on_c, 13, 75, 95
6, 300240, Note_on_c, 13, 71, 95
6, 300240, Note_on_c, 13, 66, 95
6, 300480, Note_off_c, 13, 75, 80
6, 300480, Note_off_c, 13, 71, 80
6, 300480, Note_off_c, 13, 66, 80
6, 300720, Note_on_c, 13, 71, 95
6, 300720, Note_on_c, 13, 66, 95
6, 300960, Note_off_c, 13, 71, 80
6, 300960, Note_off_c, 13, 66, 80
6, 301200, Note_on_c, 13, 73, 95
6, 301200, Note_on_c, 13, 68, 95
6, 301200, Note_on_c, 13, 64, 95
6, 301680, Note_off_c, 13, 73, 80
6, 301680, Note_off_c, 13, 68, 80
6, 301680, Note_off_c, 13, 64, 80
6, 306960, Note_on_c, 13, 71, 95
6, 306960, Note_on_c, 13, 66, 95
6, 306960, Note_on_c, 13, 63, 95
6, 307440, Note_off_c, 13, 71, 80
6, 307440, Note_off_c, 13, 66, 80
6, 307440, Note_off_c, 13, 63, 80
6, 307440, Note_on_c, 13, 73, 95
6, 307440, Note_on_c, 13, 71, 95
6, 307440, Note_on_c, 13, 66, 95
6, 307680, Note_off_c, 13, 73, 80
6, 307680, Note_off_c, 13, 71, 80
6, 307680, Note_off_c, 13, 66, 80
6, 307680, Note_on_c, 13, 75, 95
6, 307680, Note_on_c, 13, 71, 95
6, 307680, Note_on_c, 13, 66, 95
6, 307920, Note_off_c, 13, 75, 80
6, 307920, Note_off_c, 13, 71, 80
6, 307920, Note_off_c, 13, 66, 80
6, 307920, Note_on_c, 13, 76, 95
6, 307920, Note_on_c, 13, 73, 95
6, 307920, Note_on_c, 13, 68, 95
6, 308160, Note_off_c, 13, 76, 80
6, 308160, Note_off_c, 13, 73, 80
6, 308160, Note_off_c, 13, 68, 80
6, 312720, Note_on_c, 13, 76, 95
6, 312720, Note_on_c, 13, 73, 95
6, 312720, Note_on_c, 13, 68, 95
6, 312960, Note_off_c, 13, 76, 80
6, 312960, Note_off_c, 13, 73, 80
6, 312960, Note_off_c, 13, 68, 80
6, 313200, Note_on_c, 13, 73, 95
6, 313200, Note_on_c, 13, 68, 95
6, 313200, Note_on_c, 13, 64, 95
6, 313320, Note_off_c, 13, 73, 80
6, 313320, Note_off_c, 13, 68, 80
6, 313320, Note_off_c, 13, 64, 80
6, 313680, Note_on_c, 13, 75, 95
6, 313680, Note_on_c, 13, 71, 95
6, 313680, Note_on_c, 13, 66, 95
6, 314400, Note_off_c, 13, 75, 80
6, 314400, Note_off_c, 13, 71, 80
6, 314400, Note_off_c, 13, 66, 80
6, 314640, Note_on_c, 13, 76, 95
6, 314640, Note_on_c, 13, 73, 95
6, 314640, Note_on_c, 13, 68, 95
6, 314880, Note_off_c, 13, 76, 80
6, 314880, Note_off_c, 13, 73, 80
6, 314880, Note_off_c, 13, 68, 80
6, 315600, Note_on_c, 13, 75, 95
6, 315600, Note_on_c, 13, 71, 95
6, 315600, Note_on_c, 13, 66, 95
6, 315840, Note_off_c, 13, 75, 80
6, 315840, Note_off_c, 13, 71, 80
6, 315840, Note_off_c, 13, 66, 80
6, 316080, Note_on_c, 13, 71, 95
6, 316080, Note_on_c, 13, 66, 95
6, 316320, Note_off_c, 13, 71, 80
6, 316320, Note_off_c, 13, 66, 80
6, 316560, Note_on_c, 13, 73, 95
6, 316560, Note_on_c, 13, 68, 95
6, 316560, Note_on_c, 13, 64, 95
6, 317040, Note_off_c, 13, 73, 80
6, 317040, Note_off_c, 13, 68, 80
6, 317040, Note_off_c, 13, 64, 80
6, 322320, Note_on_c, 13, 71, 95
6, 322320, Note_on_c, 13, 66, 95
6, 322320, Note_on_c, 13, 63, 95
6, 322800, Note_off_c, 13, 71, 80
6, 322800, Note_off_c, 13, 66, 80
6, 322800, Note_off_c, 13, 63, 80
6, 322800, Note_on_c, 13, 73, 95
6, 322800, Note_on_c, 13, 71, 95
6, 322800, Note_on_c, 13, 66, 95
6, 323040, Note_off_c, 13, 73, 80
6, 323040, Note_off_c, 13, 71, 80
6, 323040, Note_off_c, 13, 66, 80
6, 323040, Note_on_c, 13, 75, 95
6, 323040, Note_on_c, 13, 71, 95
6, 323040, Note_on_c, 13, 66, 95
6, 323280, Note_off_c, 13, 75, 80
6, 323280, Note_off_c, 13, 71, 80
6, 323280, Note_off_c, 13, 66, 80
6, 323280, Note_on_c, 13, 76, 95
6, 323280, Note_on_c, 13, 73, 95
6, 323280, Note_on_c, 13, 68, 95
6, 323520, Note_off_c, 13, 76, 80
6, 323520, Note_off_c, 13, 73, 80
6, 323520, Note_off_c, 13, 68, 80
6, 323520, End_track
7, 0, Start_track
7, 0, Title_t, "Rain"
7, 0, Control_c, 0, 100, 0
7, 0, Control_c, 0, 101, 0
7, 0, Control_c, 0, 6, 8
7, 0, Pitch_bend_c, 0, 8192
7, 0, Control_c, 1, 100, 0
7, 0, Control_c, 1, 101, 0
7, 0, Control_c, 1, 6, 8
7, 0, Pitch_bend_c, 1, 8192
7, 0, Program_c, 0, 88
7, 0, Program_c, 1, 88
7, 0, Control_c, 0, 7, 112
7, 0, Control_c, 1, 7, 112
7, 0, Control_c, 0, 10, 32
7, 0, Control_c, 1, 10, 32
7, 0, Control_c, 0, 93, 0
7, 0, Control_c, 1, 93, 0
7, 0, Control_c, 0, 91, 0
7, 0, Control_c, 1, 91, 0
7, 0, Control_c, 0, 92, 0
7, 0, Control_c, 1, 92, 0
7, 0, Control_c, 0, 95, 0
7, 0, Control_c, 1, 95, 0
7, 0, Note_on_c, 0, 71, 95
7, 0, Note_on_c, 0, 66, 95
7, 0, Note_on_c, 0, 62, 95
7, 720, Note_off_c, 0, 71, 80
7, 720, Note_off_c, 0, 66, 80
7, 720, Note_off_c, 0, 62, 80
7, 720, Note_on_c, 0, 69, 95
7, 720, Note_on_c, 0, 64, 95
7, 720, Note_on_c, 0, 61, 95
7, 1680, Note_off_c, 0, 69, 80
7, 1680, Note_off_c, 0, 64, 80
7, 1680, Note_off_c, 0, 61, 80
7, 1680, Note_on_c, 0, 66, 95
7, 1680, Note_on_c, 0, 62, 95
7, 2160, Note_on_c, 0, 69, 79
7, 2640, Note_off_c, 0, 66, 80
7, 2640, Note_off_c, 0, 62, 80
7, 2640, Note_off_c, 0, 69, 80
7, 2640, Note_on_c, 0, 64, 95
7, 2640, Note_on_c, 0, 61, 95
7, 3840, Note_off_c, 0, 64, 80
7, 3840, Note_off_c, 0, 61, 80
7, 3840, Note_on_c, 0, 62, 95
7, 3840, Note_on_c, 0, 59, 95
7, 3840, Note_on_c, 0, 54, 95
7, 4560, Note_off_c, 0, 62, 80
7, 4560, Note_off_c, 0, 59, 80
7, 4560, Note_off_c, 0, 54, 80
7, 4560, Note_on_c, 0, 61, 95
7, 4560, Note_on_c, 0, 57, 95
7, 4560, Note_on_c, 0, 54, 95
7, 5040, Note_off_c, 0, 61, 80
7, 5040, Note_off_c, 0, 57, 80
7, 5040, Note_off_c, 0, 54, 80
7, 5040, Note_on_c, 0, 66, 95
7, 5520, Note_off_c, 0, 66, 80
7, 5520, Note_on_c, 0, 62, 95
7, 5520, Note_on_c, 0, 59, 95
7, 5520, Note_on_c, 0, 54, 95
7, 7680, Note_off_c, 0, 62, 80
7, 7680, Note_off_c, 0, 59, 80
7, 7680, Note_off_c, 0, 54, 80
7, 7680, Note_on_c, 0, 57, 95
7, 7680, Note_on_c, 0, 54, 95
7, 8400, Note_on_c, 0, 62, 95
7, 8880, Note_off_c, 0, 62, 80
7, 8880, Note_on_c, 0, 61, 95
7, 9360, Note_off_c, 0, 57, 80
7, 9360, Note_off_c, 0, 54, 80
7, 9360, Note_off_c, 0, 61, 80
7, 9360, Note_on_c, 0, 59, 95
7, 9360, Note_on_c, 0, 55, 95
7, 9840, Note_off_c, 0, 59, 80
7, 9840, Note_off_c, 0, 55, 80
7, 9840, Note_on_c, 0, 66, 95
7, 10320, Note_off_c, 0, 66, 80
7, 10320, Note_on_c, 0, 64, 95
7, 10800, Note_off_c, 0, 64, 80
7, 10800, Note_on_c, 0, 69, 95
7, 11520, Note_off_c, 0, 69, 80
7, 11520, Note_on_c, 0, 71, 79
7, 11520, Note_on_c, 0, 66, 79
7, 11520, Note_on_c, 0, 62, 79
7, 11520, Note_on_c, 0, 59, 79
7, 13440, Note_off_c, 0, 71, 80
7, 13440, Note_off_c, 0, 66, 80
7, 13440, Note_off_c, 0, 62, 80
7, 13440, Note_off_c, 0, 59, 80
7, 13440, Note_on_c, 0, 71, 95
7, 13440, Note_on_c, 0, 59, 95
7, 13920, Note_off_c, 0, 71, 80
7, 13920, Note_off_c, 0, 59, 80
7, 13920, Note_on_c, 0, 74, 95
7, 13920, Note_on_c, 0, 62, 95
7, 14160, Note_off_c, 0, 74, 80
7, 14160, Note_off_c, 0, 62, 80
7, 14160, Note_on_c, 0, 76, 95
7, 14160, Note_on_c, 0, 64, 95
7, 14640, Note_off_c, 0, 76, 80
7, 14640, Note_off_c, 0, 64, 80
7, 14640, Note_on_c, 0, 78, 95
7, 14640, Note_on_c, 0, 66, 95
7, 15120, Note_off_c, 0, 78, 80
7, 15120, Note_off_c, 0, 66, 80
7, 15120, Note_on_c, 0, 74, 95
7, 15120, Note_on_c, 0, 62, 95
7, 15360, Note_off_c, 0, 62, 80
7, 15600, Note_off_c, 0, 74, 80
7, 15600, Note_on_c, 0, 73, 95
7, 15600, Note_on_c, 0, 61, 95
7, 16080, Note_off_c, 0, 73, 80
7, 16080, Note_off_c, 0, 61, 80
7, 16080, Note_on_c, 0, 71, 95
7, 16080, Note_on_c, 0, 59, 95
7, 16560, Note_off_c, 0, 71, 80
7, 16560, Note_off_c, 0, 59, 80
7, 16560, Note_on_c, 0, 69, 95
7, 16560, Note_on_c, 0, 57, 95
7, 17040, Note_off_c, 0, 69, 80
7, 17040, Note_off_c, 0, 57, 80
7, 17280, Note_on_c, 0, 69, 95
7, 17280, Note_on_c, 0, 66, 79
7, 17520, Note_off_c, 0, 69, 80
7, 17520, Note_off_c, 0, 66, 80
7, 17520, Note_on_c, 0, 61, 79
7, 17760, Note_off_c, 0, 61, 80
7, 17760, Note_on_c, 0, 69, 95
7, 17760, Note_on_c, 0, 66, 79
7, 18000, Note_off_c, 0, 69, 80
7, 18000, Note_off_c, 0, 66, 80
7, 18000, Note_on_c, 0, 68, 95
7, 18000, Note_on_c, 0, 68, 79
7, 18240, Note_off_c, 0, 68, 80
7, 18240, Note_off_c, 0, 68, 80
7, 18240, Note_on_c, 0, 66, 63
7, 18480, Note_off_c, 0, 66, 80
7, 18480, Note_on_c, 0, 73, 95
7, 18480, Note_on_c, 0, 59, 79
7, 18720, Note_off_c, 0, 73, 80
7, 18720, Note_off_c, 0, 59, 80
7, 18720, Note_on_c, 0, 64, 79
7, 18960, Note_off_c, 0, 64, 80
7, 18960, Note_on_c, 0, 66, 95
7, 18960, Note_on_c, 0, 66, 79
7, 21120, Note_off_c, 0, 66, 80
7, 21120, Note_off_c, 0, 66, 80
7, 21120, Note_on_c, 0, 64, 95
7, 21120, Note_on_c, 0, 61, 95
7, 21120, Note_on_c, 0, 57, 95
7, 24480, Note_off_c, 0, 64, 80
7, 24480, Note_off_c, 0, 61, 80
7, 24480, Note_off_c, 0, 57, 80
7, 24480, Note_on_c, 0, 64, 95
7, 24720, Note_off_c, 0, 64, 80
7, 24720, Note_on_c, 0, 66, 95
7, 24960, Note_off_c, 0, 66, 80
7, 24960, Note_on_c, 0, 67, 95
7, 24960, Note_on_c, 0, 64, 95
7, 24960, Note_on_c, 0, 59, 95
7, 25440, Note_off_c, 0, 67, 80
7, 25440, Note_on_c, 0, 67, 95
7, 25680, Note_off_c, 0, 67, 80
7, 25680, Note_on_c, 0, 66, 95
7, 26160, Note_off_c, 0, 64, 80
7, 26160, Note_off_c, 0, 66, 80
7, 26160, Note_on_c, 0, 64, 95
7, 26640, Note_off_c, 0, 64, 80
7, 26640, Note_on_c, 0, 64, 95
7, 26880, Note_off_c, 0, 64, 80
7, 27120, Note_on_c, 0, 62, 95
7, 27600, Note_off_c, 0, 62, 80
7, 27600, Note_on_c, 0, 62, 95
7, 28080, Note_off_c, 0, 62, 80
7, 28080, Note_on_c, 0, 64, 95
7, 28800, Note_off_c, 0, 59, 80
7, 28800, Note_off_c, 0, 64, 80
7, 28800, Note_on_c, 0, 64, 47
7, 28800, Note_on_c, 0, 64, 95
7, 28800, Note_on_c, 0, 59, 95
7, 28800, Note_on_c, 0, 57, 95
7, 29040, Note_off_c, 0, 64, 80
7, 29040, Note_on_c, 0, 64, 63
7, 29280, Note_off_c, 0, 64, 80
7, 29280, Note_on_c, 0, 66, 79
7, 29520, Note_off_c, 0, 66, 80
7, 29520, Note_on_c, 0, 71, 95
7, 29760, Note_off_c, 0, 71, 80
7, 29760, Note_on_c, 0, 76, 95
7, 29880, Note_off_c, 0, 76, 80
7, 29880, Note_on_c, 0, 78, 95
7, 30000, Note_off_c, 0, 78, 80
7, 30000, Note_on_c, 0, 83, 95
7, 30240, Note_off_c, 0, 83, 80
7, 30240, Note_on_c, 0, 78, 95
7, 30480, Note_off_c, 0, 78, 80
7, 30480, Note_on_c, 0, 76, 95
7, 30720, Note_off_c, 0, 64, 80
7, 30720, Note_off_c, 0, 59, 80
7, 30720, Note_off_c, 0, 57, 80
7, 30720, Note_off_c, 0, 76, 80
7, 30720, Note_on_c, 0, 71, 95
7, 30840, Note_off_c, 0, 71, 80
7, 30840, Note_on_c, 0, 64, 95
7, 30960, Note_off_c, 0, 64, 80
7, 30960, Note_on_c, 0, 59, 95
7, 31200, Note_off_c, 0, 59, 80
7, 31200, Note_on_c, 0, 71, 95
7, 31440, Note_off_c, 0, 71, 80
7, 31440, Note_on_c, 0, 76, 95
7, 31680, Note_off_c, 0, 76, 80
7, 31680, Note_on_c, 0, 78, 95
7, 31920, Note_off_c, 0, 78, 80
7, 31920, Note_on_c, 0, 83, 95
7, 32160, Note_off_c, 0, 83, 80
7, 32160, Note_on_c, 0, 78, 95
7, 32400, Note_off_c, 0, 78, 80
7, 32400, Note_on_c, 0, 76, 95
7, 32640, Note_off_c, 0, 76, 80
7, 32640, Note_on_c, 0, 57, 95
7, 32760, Note_off_c, 0, 57, 80
7, 32760, Note_on_c, 0, 59, 95
7, 32880, Note_off_c, 0, 59, 80
7, 32880, Note_on_c, 0, 64, 95
7, 33120, Note_off_c, 0, 64, 80
7, 33120, Note_on_c, 0, 71, 95
7, 33360, Note_off_c, 0, 71, 80
7, 33360, Note_on_c, 0, 76, 95
7, 33600, Note_off_c, 0, 76, 80
7, 33600, Note_on_c, 0, 78, 95
7, 33840, Note_off_c, 0, 78, 80
7, 33840, Note_on_c, 0, 83, 95
7, 34080, Note_off_c, 0, 83, 80
7, 34080, Note_on_c, 0, 78, 95
7, 34320, Note_off_c, 0, 78, 80
7, 34320, Note_on_c, 0, 76, 95
7, 34560, Note_off_c, 0, 76, 80
7, 34560, Note_on_c, 0, 59, 95
7, 34680, Note_off_c, 0, 59, 80
7, 34680, Note_on_c, 0, 61, 47
7, 34800, Note_off_c, 0, 61, 80
7, 34800, Note_on_c, 0, 64, 95
7, 34920, Note_off_c, 0, 64, 80
7, 34920, Note_on_c, 0, 64, 47
7, 35040, Note_off_c, 0, 64, 80
7, 35040, Note_on_c, 0, 66, 95
7, 35160, Note_off_c, 0, 66, 80
7, 35160, Note_on_c, 0, 66, 47
7, 35280, Note_off_c, 0, 66, 80
7, 35280, Note_on_c, 0, 71, 95
7, 35400, Note_off_c, 0, 71, 80
7, 35400, Note_on_c, 0, 71, 47
7, 35520, Note_off_c, 0, 71, 80
7, 35520, Note_on_c, 0, 76, 95
7, 35640, Note_off_c, 0, 76, 80
7, 35640, Note_on_c, 0, 76, 47
7, 35760, Note_off_c, 0, 76, 80
7, 35760, Note_on_c, 0, 83, 95
7, 35880, Note_off_c, 0, 83, 80
7, 35880, Note_on_c, 0, 83, 47
7, 36000, Note_off_c, 0, 83, 80
7, 36000, Note_on_c, 0, 88, 95
7, 36120, Note_off_c, 0, 88, 80
7, 36120, Note_on_c, 0, 88, 47
7, 36240, Note_off_c, 0, 88, 80
7, 36240, Note_on_c, 0, 90, 95
7, 36360, Note_off_c, 0, 90, 80
7, 44400, Note_on_c, 0, 64, 63
7, 44880, Note_off_c, 0, 64, 80
7, 44880, Note_on_c, 0, 63, 63
7, 45360, Note_off_c, 0, 63, 80
7, 45360, Note_on_c, 0, 59, 63
7, 45840, Note_off_c, 0, 59, 80
7, 45840, Note_on_c, 0, 61, 63
7, 46800, Note_off_c, 0, 61, 80
7, 46800, Note_on_c, 0, 63, 63
7, 48000, Note_off_c, 0, 63, 80
7, 48000, Note_on_c, 0, 64, 63
7, 48720, Note_off_c, 0, 64, 80
7, 48720, Note_on_c, 0, 66, 63
7, 49680, Note_off_c, 0, 66, 80
7, 49680, Note_on_c, 0, 68, 63
7, 50640, Note_off_c, 0, 68, 80
7, 50640, Note_on_c, 0, 66, 63
7, 51600, Note_off_c, 0, 66, 80
7, 51600, Note_on_c, 0, 68, 63
7, 51720, Note_off_c, 0, 68, 80
7, 52080, Note_on_c, 0, 64, 63
7, 52560, Note_off_c, 0, 64, 80
7, 52560, Note_on_c, 0, 63, 63
7, 53040, Note_off_c, 0, 63, 80
7, 53040, Note_on_c, 0, 59, 63
7, 53520, Note_off_c, 0, 59, 80
7, 53520, Note_on_c, 0, 61, 63
7, 54480, Note_off_c, 0, 61, 80
7, 54480, Note_on_c, 0, 63, 63
7, 55680, Note_off_c, 0, 63, 80
7, 55680, Note_on_c, 0, 64, 63
7, 56400, Note_off_c, 0, 64, 80
7, 56400, Note_on_c, 0, 66, 63
7, 57360, Note_off_c, 0, 66, 80
7, 57360, Note_on_c, 0, 68, 63
7, 58320, Note_off_c, 0, 68, 80
7, 58320, Note_on_c, 0, 66, 63
7, 59280, Note_off_c, 0, 66, 80
7, 59280, Note_on_c, 0, 68, 63
7, 59400, Note_off_c, 0, 68, 80
7, 59760, Note_on_c, 0, 64, 63
7, 60240, Note_off_c, 0, 64, 80
7, 60240, Note_on_c, 0, 63, 63
7, 60720, Note_off_c, 0, 63, 80
7, 60720, Note_on_c, 0, 59, 63
7, 61200, Note_off_c, 0, 59, 80
7, 61200, Note_on_c, 0, 61, 63
7, 62160, Note_off_c, 0, 61, 80
7, 62160, Note_on_c, 0, 63, 63
7, 63360, Note_off_c, 0, 63, 80
7, 63360, Note_on_c, 0, 64, 63
7, 64080, Note_off_c, 0, 64, 80
7, 64080, Note_on_c, 0, 66, 63
7, 65040, Note_off_c, 0, 66, 80
7, 65040, Note_on_c, 0, 68, 63
7, 66000, Note_off_c, 0, 68, 80
7, 66000, Note_on_c, 0, 66, 63
7, 66960, Note_off_c, 0, 66, 80
7, 66960, Note_on_c, 0, 68, 63
7, 67080, Note_off_c, 0, 68, 80
7, 67440, Note_on_c, 0, 64, 63
7, 67920, Note_off_c, 0, 64, 80
7, 67920, Note_on_c, 0, 63, 63
7, 68400, Note_off_c, 0, 63, 80
7, 68400, Note_on_c, 0, 59, 63
7, 68880, Note_off_c, 0, 59, 80
7, 68880, Note_on_c, 0, 61, 63
7, 69840, Note_off_c, 0, 61, 80
7, 69840, Note_on_c, 0, 63, 63
7, 71040, Note_off_c, 0, 63, 80
7, 71040, Note_on_c, 0, 64, 63
7, 71760, Note_off_c, 0, 64, 80
7, 71760, Note_on_c, 0, 66, 63
7, 72720, Note_off_c, 0, 66, 80
7, 72720, Note_on_c, 0, 68, 63
7, 73680, Note_off_c, 0, 68, 80
7, 73680, Note_on_c, 0, 66, 63
7, 74640, Note_off_c, 0, 66, 80
7, 74640, Note_on_c, 0, 68, 63
7, 74760, Note_off_c, 0, 68, 80
7, 75120, Note_on_c, 0, 64, 63
7, 75600, Note_off_c, 0, 64, 80
7, 75600, Note_on_c, 0, 63, 63
7, 76080, Note_off_c, 0, 63, 80
7, 76080, Note_on_c, 0, 59, 63
7, 76560, Note_off_c, 0, 59, 80
7, 76560, Note_on_c, 0, 61, 63
7, 77520, Note_off_c, 0, 61, 80
7, 77520, Note_on_c, 0, 63, 63
7, 78720, Note_off_c, 0, 63, 80
7, 78720, Note_on_c, 0, 64, 63
7, 79440, Note_off_c, 0, 64, 80
7, 79440, Note_on_c, 0, 66, 63
7, 80400, Note_off_c, 0, 66, 80
7, 80400, Note_on_c, 0, 68, 63
7, 81360, Note_off_c, 0, 68, 80
7, 81360, Note_on_c, 0, 66, 63
7, 82320, Note_off_c, 0, 66, 80
7, 82320, Note_on_c, 0, 68, 63
7, 82440, Note_off_c, 0, 68, 80
7, 82560, Note_on_c, 0, 58, 79
7, 82800, Note_off_c, 0, 58, 80
7, 82800, Note_on_c, 0, 59, 95
7, 83040, Note_off_c, 0, 59, 80
7, 83040, Note_on_c, 0, 66, 95
7, 83280, Note_off_c, 0, 66, 80
7, 83280, Note_on_c, 0, 61, 79
7, 83760, Note_off_c, 0, 61, 80
7, 83760, Note_on_c, 0, 59, 63
7, 84240, Note_off_c, 0, 59, 80
7, 102960, Note_on_c, 0, 85, 95
7, 102960, Note_on_c, 0, 73, 63
7, 103200, Note_off_c, 0, 85, 80
7, 103200, Note_off_c, 0, 73, 80
7, 103200, Note_on_c, 0, 87, 95
7, 103200, Note_on_c, 0, 75, 63
7, 103440, Note_off_c, 0, 87, 80
7, 103440, Note_off_c, 0, 75, 80
7, 103440, Note_on_c, 0, 88, 95
7, 103440, Note_on_c, 0, 76, 63
7, 103680, Note_off_c, 0, 76, 80
7, 103920, Note_off_c, 0, 88, 80
7, 103920, Note_on_c, 0, 92, 95
7, 103920, Note_on_c, 0, 80, 63
7, 104400, Note_off_c, 0, 92, 80
7, 104400, Note_off_c, 0, 80, 80
7, 104400, Note_on_c, 0, 90, 95
7, 104400, Note_on_c, 0, 78, 63
7, 104880, Note_off_c, 0, 90, 80
7, 104880, Note_off_c, 0, 78, 80
7, 104880, Note_on_c, 0, 95, 95
7, 104880, Note_on_c, 0, 83, 63
7, 105360, Note_off_c, 0, 95, 80
7, 105360, Note_off_c, 0, 83, 80
7, 105360, Note_on_c, 0, 88, 95
7, 105360, Note_on_c, 0, 76, 63
7, 105600, Note_off_c, 0, 88, 80
7, 105600, Note_off_c, 0, 76, 80
7, 113520, Note_on_c, 0, 64, 63
7, 114000, Note_off_c, 0, 64, 80
7, 114000, Note_on_c, 0, 63, 63
7, 114480, Note_off_c, 0, 63, 80
7, 114480, Note_on_c, 0, 59, 63
7, 114960, Note_off_c, 0, 59, 80
7, 114960, Note_on_c, 0, 61, 63
7, 115920, Note_off_c, 0, 61, 80
7, 115920, Note_on_c, 0, 63, 63
7, 117120, Note_off_c, 0, 63, 80
7, 117120, Note_on_c, 0, 64, 63
7, 117840, Note_off_c, 0, 64, 80
7, 117840, Note_on_c, 0, 66, 63
7, 118800, Note_off_c, 0, 66, 80
7, 118800, Note_on_c, 0, 68, 63
7, 119760, Note_off_c, 0, 68, 80
7, 119760, Note_on_c, 0, 66, 63
7, 120720, Note_off_c, 0, 66, 80
7, 120720, Note_on_c, 0, 68, 63
7, 120840, Note_off_c, 0, 68, 80
7, 121200, Note_on_c, 0, 64, 95
7, 121680, Note_off_c, 0, 64, 80
7, 121680, Note_on_c, 0, 63, 95
7, 122160, Note_off_c, 0, 63, 80
7, 122160, Note_on_c, 0, 59, 95
7, 122640, Note_off_c, 0, 59, 80
7, 122640, Note_on_c, 0, 61, 95
7, 123600, Note_off_c, 0, 61, 80
7, 123600, Note_on_c, 0, 63, 95
7, 124800, Note_off_c, 0, 63, 80
7, 124800, Note_on_c, 0, 64, 95
7, 125520, Note_off_c, 0, 64, 80
7, 125520, Note_on_c, 0, 66, 95
7, 126480, Note_off_c, 0, 66, 80
7, 126480, Note_on_c, 0, 68, 95
7, 126720, Note_off_c, 0, 68, 80
7, 126960, Note_on_c, 0, 64, 63
7, 127440, Note_off_c, 0, 64, 80
7, 127440, Note_on_c, 0, 63, 63
7, 127920, Note_off_c, 0, 63, 80
7, 127920, Note_on_c, 0, 59, 63
7, 128400, Note_off_c, 0, 59, 80
7, 128400, Note_on_c, 0, 61, 63
7, 129360, Note_off_c, 0, 61, 80
7, 129360, Note_on_c, 0, 63, 63
7, 130560, Note_off_c, 0, 63, 80
7, 130560, Note_on_c, 0, 64, 63
7, 131280, Note_off_c, 0, 64, 80
7, 131280, Note_on_c, 0, 66, 63
7, 132240, Note_off_c, 0, 66, 80
7, 132240, Note_on_c, 0, 68, 63
7, 133200, Note_off_c, 0, 68, 80
7, 133200, Note_on_c, 0, 66, 63
7, 134160, Note_off_c, 0, 66, 80
7, 134160, Note_on_c, 0, 68, 63
7, 134280, Note_off_c, 0, 68, 80
7, 134640, Note_on_c, 0, 64, 63
7, 135120, Note_off_c, 0, 64, 80
7, 135120, Note_on_c, 0, 63, 63
7, 135600, Note_off_c, 0, 63, 80
7, 135600, Note_on_c, 0, 59, 63
7, 136080, Note_off_c, 0, 59, 80
7, 136080, Note_on_c, 0, 61, 63
7, 137040, Note_off_c, 0, 61, 80
7, 137040, Note_on_c, 0, 63, 63
7, 138240, Note_off_c, 0, 63, 80
7, 138240, Note_on_c, 0, 64, 63
7, 138960, Note_off_c, 0, 64, 80
7, 138960, Note_on_c, 0, 66, 63
7, 139920, Note_off_c, 0, 66, 80
7, 139920, Note_on_c, 0, 68, 63
7, 140880, Note_off_c, 0, 68, 80
7, 140880, Note_on_c, 0, 66, 63
7, 141840, Note_off_c, 0, 66, 80
7, 141840, Note_on_c, 0, 68, 63
7, 141960, Note_off_c, 0, 68, 80
7, 143760, Note_on_c, 0, 59, 63
7, 144000, Note_off_c, 0, 59, 80
7, 144000, Note_on_c, 0, 58, 79
7, 144240, Note_off_c, 0, 58, 80
7, 144240, Note_on_c, 0, 59, 95
7, 144480, Note_off_c, 0, 59, 80
7, 144480, Note_on_c, 0, 66, 95
7, 144720, Note_off_c, 0, 66, 80
7, 144720, Note_on_c, 0, 61, 79
7, 145200, Note_off_c, 0, 61, 80
7, 145200, Note_on_c, 0, 59, 63
7, 145680, Note_off_c, 0, 59, 80
7, 147840, Note_on_c, 0, 58, 63
7, 148080, Note_off_c, 0, 58, 80
7, 148080, Note_on_c, 0, 59, 63
7, 148320, Note_off_c, 0, 59, 80
7, 148320, Note_on_c, 0, 66, 63
7, 148560, Note_off_c, 0, 66, 80
7, 148560, Note_on_c, 0, 61, 63
7, 149040, Note_off_c, 0, 61, 80
7, 149040, Note_on_c, 0, 59, 63
7, 149520, Note_off_c, 0, 59, 80
7, 151680, Note_on_c, 0, 58, 63
7, 151920, Note_off_c, 0, 58, 80
7, 151920, Note_on_c, 0, 59, 63
7, 152160, Note_off_c, 0, 59, 80
7, 152160, Note_on_c, 0, 66, 63
7, 152400, Note_off_c, 0, 66, 80
7, 152400, Note_on_c, 0, 61, 63
7, 152880, Note_off_c, 0, 61, 80
7, 152880, Note_on_c, 0, 59, 63
7, 153360, Note_off_c, 0, 59, 80
7, 155520, Note_on_c, 0, 58, 63
7, 155760, Note_off_c, 0, 58, 80
7, 155760, Note_on_c, 0, 59, 63
7, 156000, Note_off_c, 0, 59, 80
7, 156000, Note_on_c, 0, 66, 63
7, 156240, Note_off_c, 0, 66, 80
7, 156240, Note_on_c, 0, 61, 63
7, 156720, Note_off_c, 0, 61, 80
7, 156720, Note_on_c, 0, 59, 63
7, 157200, Note_off_c, 0, 59, 80
7, 164400, Note_on_c, 0, 85, 95
7, 164400, Note_on_c, 0, 73, 63
7, 164640, Note_off_c, 0, 85, 80
7, 164640, Note_off_c, 0, 73, 80
7, 164640, Note_on_c, 0, 87, 95
7, 164640, Note_on_c, 0, 75, 63
7, 164880, Note_off_c, 0, 87, 80
7, 164880, Note_off_c, 0, 75, 80
7, 164880, Note_on_c, 0, 88, 95
7, 164880, Note_on_c, 0, 76, 63
7, 165120, Note_off_c, 0, 76, 80
7, 165360, Note_off_c, 0, 88, 80
7, 165360, Note_on_c, 0, 92, 95
7, 165360, Note_on_c, 0, 80, 63
7, 165840, Note_off_c, 0, 92, 80
7, 165840, Note_off_c, 0, 80, 80
7, 165840, Note_on_c, 0, 90, 95
7, 165840, Note_on_c, 0, 78, 63
7, 166320, Note_off_c, 0, 90, 80
7, 166320, Note_off_c, 0, 78, 80
7, 166320, Note_on_c, 0, 95, 95
7, 166320, Note_on_c, 0, 83, 63
7, 166800, Note_off_c, 0, 95, 80
7, 166800, Note_off_c, 0, 83, 80
7, 166800, Note_on_c, 0, 88, 95
7, 166800, Note_on_c, 0, 76, 63
7, 167040, Note_off_c, 0, 88, 80
7, 167040, Note_off_c, 0, 76, 80
7, 174720, Note_on_c, 0, 67, 63
7, 174720, Note_on_c, 0, 63, 63
7, 174720, Note_on_c, 0, 60, 63
7, 176640, Note_off_c, 0, 67, 80
7, 176640, Note_off_c, 0, 63, 80
7, 176640, Note_off_c, 0, 60, 80
7, 182400, Note_on_c, 0, 67, 63
7, 182400, Note_on_c, 0, 63, 63
7, 183360, Note_off_c, 0, 67, 80
7, 183360, Note_off_c, 0, 63, 80
7, 186240, Note_on_c, 0, 72, 63
7, 186240, Note_on_c, 0, 70, 63
7, 186240, Note_on_c, 0, 67, 63
7, 186240, Note_on_c, 0, 63, 63
7, 188160, Note_off_c, 0, 72, 80
7, 188160, Note_off_c, 0, 70, 80
7, 188160, Note_off_c, 0, 67, 80
7, 188160, Note_off_c, 0, 63, 80
7, 190080, Note_on_c, 0, 68, 63
7, 190080, Note_on_c, 0, 64, 63
7, 190080, Note_on_c, 0, 61, 63
7, 192000, Note_off_c, 0, 68, 80
7, 192000, Note_off_c, 0, 64, 80
7, 192000, Note_off_c, 0, 61, 80
7, 197760, Note_on_c, 0, 68, 63
7, 197760, Note_on_c, 0, 64, 63
7, 198720, Note_off_c, 0, 68, 80
7, 198720, Note_off_c, 0, 64, 80
7, 201600, Note_on_c, 0, 73, 63
7, 201600, Note_on_c, 0, 71, 63
7, 201600, Note_on_c, 0, 68, 63
7, 201600, Note_on_c, 0, 64, 63
7, 203520, Note_off_c, 0, 73, 80
7, 203520, Note_off_c, 0, 71, 80
7, 203520, Note_off_c, 0, 68, 80
7, 203520, Note_off_c, 0, 64, 80
7, 205440, Note_on_c, 0, 67, 63
7, 205440, Note_on_c, 0, 63, 63
7, 205440, Note_on_c, 0, 60, 63
7, 207360, Note_off_c, 0, 67, 80
7, 207360, Note_off_c, 0, 63, 80
7, 207360, Note_off_c, 0, 60, 80
7, 225840, Note_on_c, 0, 85, 95
7, 225840, Note_on_c, 0, 73, 63
7, 226080, Note_off_c, 0, 85, 80
7, 226080, Note_off_c, 0, 73, 80
7, 226080, Note_on_c, 0, 87, 95
7, 226080, Note_on_c, 0, 75, 63
7, 226320, Note_off_c, 0, 87, 80
7, 226320, Note_off_c, 0, 75, 80
7, 226320, Note_on_c, 0, 88, 95
7, 226320, Note_on_c, 0, 76, 63
7, 226560, Note_off_c, 0, 76, 80
7, 226800, Note_off_c, 0, 88, 80
7, 226800, Note_on_c, 0, 92, 95
7, 226800, Note_on_c, 0, 80, 63
7, 227280, Note_off_c, 0, 92, 80
7, 227280, Note_off_c, 0, 80, 80
7, 227280, Note_on_c, 0, 90, 95
7, 227280, Note_on_c, 0, 78, 63
7, 227760, Note_off_c, 0, 90, 80
7, 227760, Note_off_c, 0, 78, 80
7, 227760, Note_on_c, 0, 95, 95
7, 227760, Note_on_c, 0, 83, 63
7, 228240, Note_off_c, 0, 95, 80
7, 228240, Note_off_c, 0, 83, 80
7, 228240, Note_on_c, 0, 88, 95
7, 228240, Note_on_c, 0, 76, 63
7, 228480, Note_off_c, 0, 88, 80
7, 228480, Note_off_c, 0, 76, 80
7, 236160, Note_on_c, 0, 68, 63
7, 236160, Note_on_c, 0, 64, 63
7, 236160, Note_on_c, 0, 61, 63
7, 238080, Note_off_c, 0, 68, 80
7, 238080, Note_off_c, 0, 64, 80
7, 238080, Note_off_c, 0, 61, 80
7, 238080, Note_on_c, 0, 64, 63
7, 238080, Note_on_c, 0, 61, 63
7, 238080, Note_on_c, 0, 57, 63
7, 240000, Note_off_c, 0, 64, 80
7, 240000, Note_off_c, 0, 61, 80
7, 240000, Note_off_c, 0, 57, 80
7, 240000, Note_on_c, 0, 63, 63
7, 240000, Note_on_c, 0, 60, 63
7, 240000, Note_on_c, 0, 56, 63
7, 241920, Note_off_c, 0, 63, 80
7, 241920, Note_off_c, 0, 60, 80
7, 241920, Note_off_c, 0, 56, 80
7, 241920, Note_on_c, 0, 76, 95
7, 241920, Note_on_c, 0, 64, 95
7, 241920, Note_on_c, 0, 61, 95
7, 241920, Note_on_c, 0, 57, 95
7, 242640, Note_off_c, 0, 76, 80
7, 242640, Note_off_c, 0, 64, 80
7, 242640, Note_off_c, 0, 61, 80
7, 242640, Note_off_c, 0, 57, 80
7, 242640, Note_on_c, 0, 78, 95
7, 242640, Note_on_c, 0, 63, 79
7, 242640, Note_on_c, 0, 59, 79
7, 243600, Note_off_c, 0, 78, 80
7, 243600, Note_off_c, 0, 63, 80
7, 243600, Note_off_c, 0, 59, 80
7, 243600, Note_on_c, 0, 68, 95
7, 243600, Note_on_c, 0, 64, 63
7, 243600, Note_on_c, 0, 61, 63
7, 243840, Note_off_c, 0, 68, 80
7, 243840, Note_off_c, 0, 64, 80
7, 243840, Note_off_c, 0, 61, 80
7, 243840, Note_on_c, 0, 80, 127
7, 243840, Note_on_c, 0, 64, 63
7, 243840, Note_on_c, 0, 61, 63
7, 245760, Note_off_c, 0, 80, 80
7, 245760, Note_off_c, 0, 64, 80
7, 245760, Note_off_c, 0, 61, 80
7, 245760, Note_on_c, 0, 76, 95
7, 245760, Note_on_c, 0, 64, 63
7, 245760, Note_on_c, 0, 61, 63
7, 245760, Note_on_c, 0, 57, 63
7, 247680, Note_off_c, 0, 76, 80
7, 247680, Note_off_c, 0, 64, 80
7, 247680, Note_off_c, 0, 61, 80
7, 247680, Note_off_c, 0, 57, 80
7, 247680, Note_on_c, 0, 75, 95
7, 247680, Note_on_c, 0, 63, 63
7, 247680, Note_on_c, 0, 60, 63
7, 247680, Note_on_c, 0, 56, 63
7, 249600, Note_off_c, 0, 75, 80
7, 249600, Note_off_c, 0, 63, 80
7, 249600, Note_off_c, 0, 60, 80
7, 249600, Note_off_c, 0, 56, 80
7, 249600, Note_on_c, 0, 76, 95
7, 249600, Note_on_c, 0, 64, 95
7, 249600, Note_on_c, 0, 61, 95
7, 249600, Note_on_c, 0, 57, 95
7, 250320, Note_off_c, 0, 76, 80
7, 250320, Note_off_c, 0, 64, 80
7, 250320, Note_off_c, 0, 61, 80
7, 250320, Note_off_c, 0, 57, 80
7, 250320, Note_on_c, 0, 78, 95
7, 250320, Note_on_c, 0, 63, 79
7, 250320, Note_on_c, 0, 59, 79
7, 251520, Note_off_c, 0, 78, 80
7, 251520, Note_off_c, 0, 63, 80
7, 251520, Note_off_c, 0, 59, 80
7, 251520, Note_on_c, 0, 68, 63
7, 251520, Note_on_c, 0, 64, 63
7, 251520, Note_on_c, 0, 61, 63
7, 253440, Note_off_c, 0, 68, 80
7, 253440, Note_off_c, 0, 64, 80
7, 253440, Note_off_c, 0, 61, 80
7, 253440, Note_on_c, 0, 64, 63
7, 253440, Note_on_c, 0, 61, 63
7, 253440, Note_on_c, 0, 57, 63
7, 255360, Note_off_c, 0, 64, 80
7, 255360, Note_off_c, 0, 61, 80
7, 255360, Note_off_c, 0, 57, 80
7, 255360, Note_on_c, 0, 63, 63
7, 255360, Note_on_c, 0, 60, 63
7, 255360, Note_on_c, 0, 56, 63
7, 257280, Note_off_c, 0, 63, 80
7, 257280, Note_off_c, 0, 60, 80
7, 257280, Note_off_c, 0, 56, 80
7, 257280, Note_on_c, 0, 76, 95
7, 257280, Note_on_c, 0, 64, 95
7, 257280, Note_on_c, 0, 61, 95
7, 257280, Note_on_c, 0, 57, 95
7, 258000, Note_off_c, 0, 76, 80
7, 258000, Note_off_c, 0, 64, 80
7, 258000, Note_off_c, 0, 61, 80
7, 258000, Note_off_c, 0, 57, 80
7, 258000, Note_on_c, 0, 78, 95
7, 258000, Note_on_c, 0, 63, 79
7, 258000, Note_on_c, 0, 59, 79
7, 258960, Note_off_c, 0, 78, 80
7, 258960, Note_off_c, 0, 63, 80
7, 258960, Note_off_c, 0, 59, 80
7, 258960, Note_on_c, 0, 68, 95
7, 258960, Note_on_c, 0, 64, 63
7, 258960, Note_on_c, 0, 61, 63
7, 259200, Note_off_c, 0, 68, 80
7, 259200, Note_off_c, 0, 64, 80
7, 259200, Note_off_c, 0, 61, 80
7, 259200, Note_on_c, 0, 80, 127
7, 259200, Note_on_c, 0, 64, 63
7, 259200, Note_on_c, 0, 61, 63
7, 261120, Note_off_c, 0, 80, 80
7, 261120, Note_off_c, 0, 64, 80
7, 261120, Note_off_c, 0, 61, 80
7, 261120, Note_on_c, 0, 76, 95
7, 261120, Note_on_c, 0, 64, 63
7, 261120, Note_on_c, 0, 61, 63
7, 261120, Note_on_c, 0, 57, 63
7, 263040, Note_off_c, 0, 76, 80
7, 263040, Note_off_c, 0, 64, 80
7, 263040, Note_off_c, 0, 61, 80
7, 263040, Note_off_c, 0, 57, 80
7, 263040, Note_on_c, 0, 75, 95
7, 263040, Note_on_c, 0, 63, 63
7, 263040, Note_on_c, 0, 60, 63
7, 263040, Note_on_c, 0, 56, 63
7, 264960, Note_off_c, 0, 75, 80
7, 264960, Note_off_c, 0, 63, 80
7, 264960, Note_off_c, 0, 60, 80
7, 264960, Note_off_c, 0, 56, 80
7, 264960, Note_on_c, 0, 76, 95
7, 264960, Note_on_c, 0, 64, 95
7, 264960, Note_on_c, 0, 61, 95
7, 264960, Note_on_c, 0, 57, 95
7, 265680, Note_off_c, 0, 76, 80
7, 265680, Note_off_c, 0, 64, 80
7, 265680, Note_off_c, 0, 61, 80
7, 265680, Note_off_c, 0, 57, 80
7, 265680, Note_on_c, 0, 78, 95
7, 265680, Note_on_c, 0, 63, 79
7, 265680, Note_on_c, 0, 59, 79
7, 266880, Note_off_c, 0, 78, 80
7, 266880, Note_off_c, 0, 63, 80
7, 266880, Note_off_c, 0, 59, 80
7, 282000, Note_on_c, 0, 59, 63
7, 282240, Note_off_c, 0, 59, 80
7, 282240, Note_on_c, 0, 58, 79
7, 282480, Note_off_c, 0, 58, 80
7, 282480, Note_on_c, 0, 59, 95
7, 282720, Note_off_c, 0, 59, 80
7, 282720, Note_on_c, 0, 66, 95
7, 282960, Note_off_c, 0, 66, 80
7, 282960, Note_on_c, 0, 61, 79
7, 283440, Note_off_c, 0, 61, 80
7, 283440, Note_on_c, 0, 59, 63
7, 283920, Note_off_c, 0, 59, 80
7, 286080, Note_on_c, 0, 58, 79
7, 286320, Note_off_c, 0, 58, 80
7, 286320, Note_on_c, 0, 59, 95
7, 286560, Note_off_c, 0, 59, 80
7, 286560, Note_on_c, 0, 66, 95
7, 286800, Note_off_c, 0, 66, 80
7, 286800, Note_on_c, 0, 61, 79
7, 287280, Note_off_c, 0, 61, 80
7, 287280, Note_on_c, 0, 59, 63
7, 287760, Note_off_c, 0, 59, 80
7, 289920, Note_on_c, 0, 58, 79
7, 290160, Note_off_c, 0, 58, 80
7, 290160, Note_on_c, 0, 59, 95
7, 290400, Note_off_c, 0, 59, 80
7, 290400, Note_on_c, 0, 66, 95
7, 290640, Note_off_c, 0, 66, 80
7, 290640, Note_on_c, 0, 61, 79
7, 291120, Note_off_c, 0, 61, 80
7, 291120, Note_on_c, 0, 59, 63
7, 291600, Note_off_c, 0, 59, 80
7, 293760, Note_on_c, 0, 58, 79
7, 294000, Note_off_c, 0, 58, 80
7, 294000, Note_on_c, 0, 59, 95
7, 294240, Note_off_c, 0, 59, 80
7, 294240, Note_on_c, 0, 66, 95
7, 294480, Note_off_c, 0, 66, 80
7, 294480, Note_on_c, 0, 61, 79
7, 294960, Note_off_c, 0, 61, 80
7, 294960, Note_on_c, 0, 59, 63
7, 295440, Note_off_c, 0, 59, 80
7, 302640, Note_on_c, 0, 85, 95
7, 302640, Note_on_c, 0, 73, 63
7, 302880, Note_off_c, 0, 85, 80
7, 302880, Note_off_c, 0, 73, 80
7, 302880, Note_on_c, 0, 87, 95
7, 302880, Note_on_c, 0, 75, 63
7, 303120, Note_off_c, 0, 87, 80
7, 303120, Note_off_c, 0, 75, 80
7, 303120, Note_on_c, 0, 88, 95
7, 303120, Note_on_c, 0, 76, 63
7, 303360, Note_off_c, 0, 76, 80
7, 303600, Note_off_c, 0, 88, 80
7, 303600, Note_on_c, 0, 92, 95
7, 303600, Note_on_c, 0, 80, 63
7, 304080, Note_off_c, 0, 92, 80
7, 304080, Note_off_c, 0, 80, 80
7, 304080, Note_on_c, 0, 90, 95
7, 304080, Note_on_c, 0, 78, 63
7, 304560, Note_off_c, 0, 90, 80
7, 304560, Note_off_c, 0, 78, 80
7, 304560, Note_on_c, 0, 95, 95
7, 304560, Note_on_c, 0, 83, 63
7, 305040, Note_off_c, 0, 95, 80
7, 305040, Note_off_c, 0, 83, 80
7, 305040, Note_on_c, 0, 88, 95
7, 305040, Note_on_c, 0, 76, 63
7, 305280, Note_off_c, 0, 88, 80
7, 305280, Note_off_c, 0, 76, 80
7, 318000, Note_on_c, 0, 85, 95
7, 318000, Note_on_c, 0, 73, 63
7, 318240, Note_off_c, 0, 85, 80
7, 318240, Note_off_c, 0, 73, 80
7, 318240, Note_on_c, 0, 87, 95
7, 318240, Note_on_c, 0, 75, 63
7, 318480, Note_off_c, 0, 87, 80
7, 318480, Note_off_c, 0, 75, 80
7, 318480, Note_on_c, 0, 88, 95
7, 318480, Note_on_c, 0, 76, 63
7, 318720, Note_off_c, 0, 76, 80
7, 318960, Note_off_c, 0, 88, 80
7, 318960, Note_on_c, 0, 92, 95
7, 318960, Note_on_c, 0, 80, 63
7, 319440, Note_off_c, 0, 92, 80
7, 319440, Note_off_c, 0, 80, 80
7, 319440, Note_on_c, 0, 90, 95
7, 319440, Note_on_c, 0, 78, 63
7, 319920, Note_off_c, 0, 90, 80
7, 319920, Note_off_c, 0, 78, 80
7, 319920, Note_on_c, 0, 95, 95
7, 319920, Note_on_c, 0, 83, 63
7, 320400, Note_off_c, 0, 95, 80
7, 320400, Note_off_c, 0, 83, 80
7, 320400, Note_on_c, 0, 88, 95
7, 320400, Note_on_c, 0, 76, 63
7, 320640, Note_off_c, 0, 88, 80
7, 320640, Note_off_c, 0, 76, 80
7, 328560, Note_on_c, 0, 64, 63
7, 329040, Note_off_c, 0, 64, 80
7, 329040, Note_on_c, 0, 63, 63
7, 329520, Note_off_c, 0, 63, 80
7, 329520, Note_on_c, 0, 59, 63
7, 330000, Note_off_c, 0, 59, 80
7, 330000, Note_on_c, 0, 61, 63
7, 330960, Note_off_c, 0, 61, 80
7, 330960, Note_on_c, 0, 63, 63
7, 332160, Note_off_c, 0, 63, 80
7, 332160, Note_on_c, 0, 64, 63
7, 332880, Note_off_c, 0, 64, 80
7, 332880, Note_on_c, 0, 66, 63
7, 333840, Note_off_c, 0, 66, 80
7, 333840, Note_on_c, 0, 68, 63
7, 334800, Note_off_c, 0, 68, 80
7, 334800, Note_on_c, 0, 66, 63
7, 335760, Note_off_c, 0, 66, 80
7, 335760, Note_on_c, 0, 68, 63
7, 335880, Note_off_c, 0, 68, 80
7, 336240, Note_on_c, 0, 64, 63
7, 336720, Note_off_c, 0, 64, 80
7, 336720, Note_on_c, 0, 63, 63
7, 337200, Note_off_c, 0, 63, 80
7, 337200, Note_on_c, 0, 59, 63
7, 337680, Note_off_c, 0, 59, 80
7, 337680, Note_on_c, 0, 61, 63
7, 338640, Note_off_c, 0, 61, 80
7, 338640, Note_on_c, 0, 63, 63
7, 339840, Note_off_c, 0, 63, 80
7, 339840, Control_c, 0, 7, 112
7, 339840, Control_c, 1, 7, 112
7, 339840, Note_on_c, 0, 64, 63
7, 340560, Note_off_c, 0, 64, 80
7, 340560, Control_c, 0, 7, 104
7, 340560, Control_c, 1, 7, 104
7, 340560, Note_on_c, 0, 66, 63
7, 341520, Note_off_c, 0, 66, 80
7, 341520, Note_on_c, 0, 68, 63
7, 341760, Control_c, 0, 7, 96
7, 341760, Control_c, 1, 7, 96
7, 342480, Note_off_c, 0, 68, 80
7, 342480, Control_c, 0, 7, 88
7, 342480, Control_c, 1, 7, 88
7, 342480, Note_on_c, 0, 66, 63
7, 343440, Note_off_c, 0, 66, 80
7, 343440, Note_on_c, 0, 68, 63
7, 343560, Note_off_c, 0, 68, 80
7, 343680, Control_c, 0, 7, 80
7, 343680, Control_c, 1, 7, 80
7, 343920, Note_on_c, 0, 64, 63
7, 344400, Note_off_c, 0, 64, 80
7, 344400, Control_c, 0, 7, 72
7, 344400, Control_c, 1, 7, 72
7, 344400, Note_on_c, 0, 63, 63
7, 344880, Note_off_c, 0, 63, 80
7, 344880, Note_on_c, 0, 59, 63
7, 345360, Note_off_c, 0, 59, 80
7, 345360, Note_on_c, 0, 61, 63
7, 345600, Control_c, 0, 7, 64
7, 345600, Control_c, 1, 7, 64
7, 346320, Note_off_c, 0, 61, 80
7, 346320, Control_c, 0, 7, 56
7, 346320, Control_c, 1, 7, 56
7, 346320, Note_on_c, 0, 63, 63
7, 347520, Note_off_c, 0, 63, 80
7, 347520, Control_c, 0, 7, 48
7, 347520, Control_c, 1, 7, 48
7, 347520, Note_on_c, 0, 64, 63
7, 348240, Note_off_c, 0, 64, 80
7, 348240, Control_c, 0, 7, 40
7, 348240, Control_c, 1, 7, 40
7, 348240, Note_on_c, 0, 66, 63
7, 349200, Note_off_c, 0, 66, 80
7, 349200, Note_on_c, 0, 68, 63
7, 349440, Control_c, 0, 7, 32
7, 349440, Control_c, 1, 7, 32
7, 350160, Note_off_c, 0, 68, 80
7, 350160, Control_c, 0, 7, 24
7, 350160, Control_c, 1, 7, 24
7, 350160, Note_on_c, 0, 66, 63
7, 351120, Note_off_c, 0, 66, 80
7, 351120, Note_on_c, 0, 68, 63
7, 351240, Note_off_c, 0, 68, 80
7, 351360, Control_c, 0, 7, 16
7, 351360, Control_c, 1, 7, 16
7, 351600, Note_on_c, 0, 64, 63
7, 352080, Note_off_c, 0, 64, 80
7, 352080, Control_c, 0, 7, 8
7, 352080, Control_c, 1, 7, 8
7, 352080, Note_on_c, 0, 63, 63
7, 352560, Note_off_c, 0, 63, 80
7, 352560, Note_on_c, 0, 59, 63
7, 353040, Note_off_c, 0, 59, 80
7, 353040, Note_on_c, 0, 61, 63
7, 353280, Note_off_c, 0, 61, 80
7, 353280, End_track
8, 0, Start_track
8, 0, Title_t, "G. Elctrica"
8, 0, Control_c, 15, 100, 0
8, 0, Control_c, 15, 101, 0
8, 0, Control_c, 15, 6, 8
8, 0, Pitch_bend_c, 15, 8192
8, 0, Program_c, 15, 29
8, 0, Control_c, 15, 7, 127
8, 0, Control_c, 15, 10, 96
8, 0, Control_c, 15, 93, 0
8, 0, Control_c, 15, 91, 0
8, 0, Control_c, 15, 92, 0
8, 0, Control_c, 15, 95, 0
8, 109680, Note_on_c, 15, 49, 63
8, 109920, Note_off_c, 15, 49, 80
8, 109920, Note_on_c, 15, 56, 63
8, 110160, Note_off_c, 15, 56, 80
8, 110160, Note_on_c, 15, 49, 63
8, 110400, Note_off_c, 15, 49, 80
8, 110400, Note_on_c, 15, 57, 63
8, 110640, Note_off_c, 15, 57, 80
8, 110640, Note_on_c, 15, 49, 63
8, 110880, Note_off_c, 15, 49, 80
8, 110880, Note_on_c, 15, 47, 63
8, 111120, Note_off_c, 15, 47, 80
8, 111120, Note_on_c, 15, 49, 63
8, 111840, Note_off_c, 15, 49, 80
8, 111840, Note_on_c, 15, 52, 63
8, 112080, Note_off_c, 15, 52, 80
8, 112080, Note_on_c, 15, 47, 63
8, 112560, Note_off_c, 15, 47, 80
8, 112560, Note_on_c, 15, 52, 63
8, 112800, Note_off_c, 15, 52, 80
8, 112800, Note_on_c, 15, 51, 63
8, 113040, Note_off_c, 15, 51, 80
8, 113040, Note_on_c, 15, 49, 63
8, 113280, Note_off_c, 15, 49, 80
8, 171120, Note_on_c, 15, 49, 63
8, 171360, Note_off_c, 15, 49, 80
8, 171360, Note_on_c, 15, 56, 63
8, 171600, Note_off_c, 15, 56, 80
8, 171600, Note_on_c, 15, 49, 63
8, 171840, Note_off_c, 15, 49, 80
8, 171840, Note_on_c, 15, 57, 63
8, 172080, Note_off_c, 15, 57, 80
8, 172080, Note_on_c, 15, 49, 63
8, 172320, Note_off_c, 15, 49, 80
8, 172320, Note_on_c, 15, 47, 63
8, 172560, Note_off_c, 15, 47, 80
8, 172560, Note_on_c, 15, 49, 63
8, 173280, Note_off_c, 15, 49, 80
8, 173280, Note_on_c, 15, 52, 63
8, 173520, Note_off_c, 15, 52, 80
8, 173520, Note_on_c, 15, 47, 63
8, 174000, Note_off_c, 15, 47, 80
8, 174720, Note_on_c, 15, 65, 95
8, 174720, Pitch_bend_c, 15, 8192
8, 174736, Pitch_bend_c, 15, 8320
8, 174752, Pitch_bend_c, 15, 8576
8, 174768, Pitch_bend_c, 15, 8704
8, 174784, Pitch_bend_c, 15, 8832
8, 174800, Pitch_bend_c, 15, 9088
8, 174816, Pitch_bend_c, 15, 9216
8, 174848, Pitch_bend_c, 15, 9472
8, 174864, Pitch_bend_c, 15, 9600
8, 174880, Pitch_bend_c, 15, 9728
8, 174896, Pitch_bend_c, 15, 9984
8, 174912, Pitch_bend_c, 15, 10112
8, 174928, Pitch_bend_c, 15, 10240
8, 175440, Note_off_c, 15, 65, 80
8, 175440, Pitch_bend_c, 15, 8192
8, 175440, Note_on_c, 15, 60, 95
8, 177360, Note_off_c, 15, 60, 80
8, 177360, Note_on_c, 15, 56, 95
8, 177360, Pitch_bend_c, 15, 8192
8, 177376, Pitch_bend_c, 15, 8448
8, 177392, Pitch_bend_c, 15, 8704
8, 177408, Pitch_bend_c, 15, 8832
8, 177424, Pitch_bend_c, 15, 9088
8, 177440, Pitch_bend_c, 15, 9344
8, 177456, Pitch_bend_c, 15, 9600
8, 177472, Pitch_bend_c, 15, 9728
8, 177488, Pitch_bend_c, 15, 9984
8, 177504, Pitch_bend_c, 15, 10240
8, 177840, Note_off_c, 15, 56, 80
8, 177840, Pitch_bend_c, 15, 8192
8, 177840, Note_on_c, 15, 58, 95
8, 178320, Note_off_c, 15, 58, 80
8, 178320, Note_on_c, 15, 56, 95
8, 178560, Note_off_c, 15, 56, 80
8, 178560, Note_on_c, 15, 58, 95
8, 179040, Note_off_c, 15, 58, 80
8, 179040, Note_on_c, 15, 61, 95
8, 179040, Pitch_bend_c, 15, 8192
8, 179056, Pitch_bend_c, 15, 8448
8, 179072, Pitch_bend_c, 15, 8704
8, 179088, Pitch_bend_c, 15, 8960
8, 179104, Pitch_bend_c, 15, 9216
8, 179120, Pitch_bend_c, 15, 9600
8, 179136, Pitch_bend_c, 15, 9856
8, 179152, Pitch_bend_c, 15, 10112
8, 179168, Pitch_bend_c, 15, 10240
8, 179280, Note_off_c, 15, 61, 80
8, 179280, Pitch_bend_c, 15, 8192
8, 179280, Note_on_c, 15, 54, 95
8, 179280, Pitch_bend_c, 15, 8192
8, 179376, Pitch_bend_c, 15, 8448
8, 179392, Pitch_bend_c, 15, 9088
8, 179408, Pitch_bend_c, 15, 9600
8, 179424, Pitch_bend_c, 15, 10240
8, 179760, Note_off_c, 15, 54, 80
8, 179760, Pitch_bend_c, 15, 8192
8, 179760, Note_on_c, 15, 55, 95
8, 180000, Note_off_c, 15, 55, 80
8, 180000, Note_on_c, 15, 51, 95
8, 180240, Note_off_c, 15, 51, 80
8, 180240, Note_on_c, 15, 53, 95
8, 180960, Note_off_c, 15, 53, 80
8, 182760, Note_on_c, 15, 65, 95
8, 182760, Pitch_bend_c, 15, 8192
8, 182888, Pitch_bend_c, 15, 9216
8, 182904, Pitch_bend_c, 15, 10240
8, 183120, Note_off_c, 15, 65, 80
8, 183120, Pitch_bend_c, 15, 8192
8, 183120, Note_on_c, 15, 70, 95
8, 183360, Note_off_c, 15, 70, 80
8, 183360, Note_on_c, 15, 63, 95
8, 183720, Note_off_c, 15, 63, 80
8, 183720, Note_on_c, 15, 65, 63
8, 183840, Note_off_c, 15, 65, 80
8, 183840, Note_on_c, 15, 67, 95
8, 184080, Note_off_c, 15, 67, 80
8, 184080, Note_on_c, 15, 75, 95
8, 184320, Note_off_c, 15, 75, 80
8, 184320, Note_on_c, 15, 70, 95
8, 184320, Pitch_bend_c, 15, 8192
8, 184336, Pitch_bend_c, 15, 8448
8, 184352, Pitch_bend_c, 15, 8832
8, 184368, Pitch_bend_c, 15, 8960
8, 184384, Pitch_bend_c, 15, 9216
8, 184400, Pitch_bend_c, 15, 9600
8, 184416, Pitch_bend_c, 15, 9856
8, 184432, Pitch_bend_c, 15, 9984
8, 184448, Pitch_bend_c, 15, 10240
8, 185040, Note_off_c, 15, 70, 80
8, 185040, Pitch_bend_c, 15, 8192
8, 185040, Note_on_c, 15, 70, 95
8, 185160, Note_off_c, 15, 70, 80
8, 185160, Note_on_c, 15, 68, 95
8, 185280, Note_off_c, 15, 68, 80
8, 185280, Note_on_c, 15, 67, 95
8, 185640, Note_off_c, 15, 67, 80
8, 185640, Note_on_c, 15, 67, 95
8, 186000, Note_off_c, 15, 67, 80
8, 186000, Note_on_c, 15, 68, 95
8, 186240, Note_off_c, 15, 68, 80
8, 186240, Note_on_c, 15, 77, 95
8, 186240, Pitch_bend_c, 15, 8192
8, 186256, Pitch_bend_c, 15, 8448
8, 186272, Pitch_bend_c, 15, 8832
8, 186288, Pitch_bend_c, 15, 9088
8, 186304, Pitch_bend_c, 15, 9344
8, 186320, Pitch_bend_c, 15, 9600
8, 186336, Pitch_bend_c, 15, 9984
8, 186352, Pitch_bend_c, 15, 10240
8, 186720, Note_off_c, 15, 77, 80
8, 186720, Pitch_bend_c, 15, 8192
8, 186720, Note_on_c, 15, 75, 95
8, 186960, Note_off_c, 15, 75, 80
8, 186960, Note_on_c, 15, 72, 95
8, 187200, Note_off_c, 15, 72, 80
8, 187200, Note_on_c, 15, 67, 95
8, 187440, Note_off_c, 15, 67, 80
8, 187440, Note_on_c, 15, 68, 95
8, 187560, Note_off_c, 15, 68, 80
8, 187560, Note_on_c, 15, 67, 95
8, 187680, Note_off_c, 15, 67, 80
8, 187680, Note_on_c, 15, 65, 95
8, 187920, Note_off_c, 15, 65, 80
8, 187920, Note_on_c, 15, 65, 95
8, 188400, Note_off_c, 15, 65, 80
8, 188400, Note_on_c, 15, 67, 95
8, 188880, Note_off_c, 15, 67, 80
8, 188880, Note_on_c, 15, 68, 95
8, 189360, Note_off_c, 15, 68, 80
8, 189360, Note_on_c, 15, 70, 95
8, 190080, Note_off_c, 15, 70, 80
8, 190080, Note_on_c, 15, 69, 95
8, 190080, Pitch_bend_c, 15, 8192
8, 190096, Pitch_bend_c, 15, 8320
8, 190112, Pitch_bend_c, 15, 8576
8, 190128, Pitch_bend_c, 15, 8704
8, 190144, Pitch_bend_c, 15, 8832
8, 190160, Pitch_bend_c, 15, 9216
8, 190192, Pitch_bend_c, 15, 9472
8, 190208, Pitch_bend_c, 15, 9728
8, 190224, Pitch_bend_c, 15, 9856
8, 190240, Pitch_bend_c, 15, 9984
8, 190256, Pitch_bend_c, 15, 10240
8, 190800, Note_off_c, 15, 69, 80
8, 190800, Pitch_bend_c, 15, 8192
8, 190800, Note_on_c, 15, 73, 95
8, 191280, Note_off_c, 15, 73, 80
8, 191280, Note_on_c, 15, 76, 95
8, 191760, Note_off_c, 15, 76, 80
8, 191760, Note_on_c, 15, 76, 95
8, 191760, Pitch_bend_c, 15, 8192
8, 191776, Pitch_bend_c, 15, 8448
8, 191792, Pitch_bend_c, 15, 8704
8, 191808, Pitch_bend_c, 15, 8960
8, 191824, Pitch_bend_c, 15, 9216
8, 191840, Pitch_bend_c, 15, 9472
8, 191856, Pitch_bend_c, 15, 9728
8, 191872, Pitch_bend_c, 15, 9984
8, 191888, Pitch_bend_c, 15, 10240
8, 192240, Note_off_c, 15, 76, 80
8, 192240, Pitch_bend_c, 15, 8192
8, 192240, Note_on_c, 15, 81, 95
8, 192720, Note_off_c, 15, 81, 80
8, 192720, Note_on_c, 15, 81, 95
8, 192720, Pitch_bend_c, 15, 8192
8, 192736, Pitch_bend_c, 15, 8448
8, 192752, Pitch_bend_c, 15, 8704
8, 192768, Pitch_bend_c, 15, 8960
8, 192784, Pitch_bend_c, 15, 9216
8, 192800, Pitch_bend_c, 15, 9600
8, 192816, Pitch_bend_c, 15, 9856
8, 192832, Pitch_bend_c, 15, 10112
8, 192848, Pitch_bend_c, 15, 10240
8, 192960, Note_off_c, 15, 81, 80
8, 192960, Pitch_bend_c, 15, 8192
8, 192960, Note_on_c, 15, 81, 95
8, 192960, Pitch_bend_c, 15, 8192
8, 192976, Pitch_bend_c, 15, 8448
8, 192992, Pitch_bend_c, 15, 9088
8, 193008, Pitch_bend_c, 15, 9344
8, 193024, Pitch_bend_c, 15, 9600
8, 193040, Pitch_bend_c, 15, 10240
8, 193680, Note_off_c, 15, 81, 80
8, 193680, Pitch_bend_c, 15, 8192
8, 193680, Note_on_c, 15, 81, 95
8, 193680, Pitch_bend_c, 15, 10240
8, 193808, Pitch_bend_c, 15, 9472
8, 193824, Pitch_bend_c, 15, 8192
8, 193920, Note_off_c, 15, 81, 80
8, 193920, Pitch_bend_c, 15, 8192
8, 193920, Note_on_c, 15, 80, 95
8, 194400, Note_off_c, 15, 80, 80
8, 194400, Note_on_c, 15, 79, 95
8, 194400, Pitch_bend_c, 15, 8192
8, 194416, Pitch_bend_c, 15, 8448
8, 194432, Pitch_bend_c, 15, 8704
8, 194448, Pitch_bend_c, 15, 8960
8, 194464, Pitch_bend_c, 15, 9216
8, 194480, Pitch_bend_c, 15, 9600
8, 194496, Pitch_bend_c, 15, 9856
8, 194512, Pitch_bend_c, 15, 10112
8, 194528, Pitch_bend_c, 15, 10240
8, 194640, Note_off_c, 15, 79, 80
8, 194640, Pitch_bend_c, 15, 8192
8, 194640, Note_on_c, 15, 76, 95
8, 195120, Note_off_c, 15, 76, 80
8, 195120, Note_on_c, 15, 78, 95
8, 195120, Pitch_bend_c, 15, 8192
8, 195136, Pitch_bend_c, 15, 8320
8, 195152, Pitch_bend_c, 15, 8448
8, 195168, Pitch_bend_c, 15, 8576
8, 195184, Pitch_bend_c, 15, 8704
8, 195200, Pitch_bend_c, 15, 8832
8, 195216, Pitch_bend_c, 15, 8960
8, 195232, Pitch_bend_c, 15, 9216
8, 195264, Pitch_bend_c, 15, 9472
8, 195280, Pitch_bend_c, 15, 9600
8, 195296, Pitch_bend_c, 15, 9728
8, 195312, Pitch_bend_c, 15, 9856
8, 195328, Pitch_bend_c, 15, 9984
8, 195344, Pitch_bend_c, 15, 10112
8, 195360, Pitch_bend_c, 15, 10240
8, 195600, Note_off_c, 15, 78, 80
8, 195600, Pitch_bend_c, 15, 8192
8, 195600, Note_on_c, 15, 78, 95
8, 196320, Note_off_c, 15, 78, 80
8, 197160, Note_on_c, 15, 76, 95
8, 197280, Note_off_c, 15, 76, 80
8, 197280, Note_on_c, 15, 71, 95
8, 197400, Note_off_c, 15, 71, 80
8, 197400, Note_on_c, 15, 76, 95
8, 197520, Note_off_c, 15, 76, 80
8, 197520, Note_on_c, 15, 73, 95
8, 197880, Note_off_c, 15, 73, 80
8, 197880, Note_on_c, 15, 71, 95
8, 198000, Note_off_c, 15, 71, 80
8, 198000, Note_on_c, 15, 69, 95
8, 198120, Note_off_c, 15, 69, 80
8, 198120, Note_on_c, 15, 68, 95
8, 198240, Note_off_c, 15, 68, 80
8, 198240, Note_on_c, 15, 71, 95
8, 198600, Note_off_c, 15, 71, 80
8, 198600, Note_on_c, 15, 69, 95
8, 198720, Note_off_c, 15, 69, 80
8, 198720, Note_on_c, 15, 68, 95
8, 198840, Note_off_c, 15, 68, 80
8, 198840, Note_on_c, 15, 66, 95
8, 198960, Note_off_c, 15, 66, 80
8, 198960, Note_on_c, 15, 64, 95
8, 199080, Note_off_c, 15, 64, 80
8, 199080, Note_on_c, 15, 66, 95
8, 199200, Note_off_c, 15, 66, 80
8, 199200, Note_on_c, 15, 69, 95
8, 199320, Note_off_c, 15, 69, 80
8, 199320, Note_on_c, 15, 66, 95
8, 199440, Note_off_c, 15, 66, 80
8, 199440, Note_on_c, 15, 68, 95
8, 199560, Note_off_c, 15, 68, 80
8, 199560, Note_on_c, 15, 71, 95
8, 199680, Note_off_c, 15, 71, 80
8, 199680, Note_on_c, 15, 68, 95
8, 199800, Note_off_c, 15, 68, 80
8, 199800, Note_on_c, 15, 69, 95
8, 199920, Note_off_c, 15, 69, 80
8, 199920, Note_on_c, 15, 73, 95
8, 200040, Note_off_c, 15, 73, 80
8, 200040, Note_on_c, 15, 76, 95
8, 200160, Note_off_c, 15, 76, 80
8, 200160, Note_on_c, 15, 80, 95
8, 200280, Note_off_c, 15, 80, 80
8, 200280, Note_on_c, 15, 81, 95
8, 200400, Note_off_c, 15, 81, 80
8, 200400, Note_on_c, 15, 80, 95
8, 200520, Note_off_c, 15, 80, 80
8, 200520, Note_on_c, 15, 78, 95
8, 200640, Note_off_c, 15, 78, 80
8, 200640, Note_on_c, 15, 76, 95
8, 200880, Note_off_c, 15, 76, 80
8, 200880, Note_on_c, 15, 73, 95
8, 201120, Note_off_c, 15, 73, 80
8, 201120, Note_on_c, 15, 74, 95
8, 201120, Pitch_bend_c, 15, 8192
8, 201136, Pitch_bend_c, 15, 8448
8, 201152, Pitch_bend_c, 15, 8704
8, 201168, Pitch_bend_c, 15, 8960
8, 201184, Pitch_bend_c, 15, 9216
8, 201200, Pitch_bend_c, 15, 9600
8, 201216, Pitch_bend_c, 15, 9856
8, 201232, Pitch_bend_c, 15, 10112
8, 201248, Pitch_bend_c, 15, 10240
8, 201360, Note_off_c, 15, 74, 80
8, 201360, Pitch_bend_c, 15, 8192
8, 201360, Note_on_c, 15, 80, 95
8, 201600, Note_off_c, 15, 80, 80
8, 201600, Note_on_c, 15, 76, 95
8, 201600, Pitch_bend_c, 15, 8192
8, 201616, Pitch_bend_c, 15, 8448
8, 201632, Pitch_bend_c, 15, 8704
8, 201648, Pitch_bend_c, 15, 8960
8, 201664, Pitch_bend_c, 15, 9216
8, 201680, Pitch_bend_c, 15, 9600
8, 201696, Pitch_bend_c, 15, 9856
8, 201712, Pitch_bend_c, 15, 10112
8, 201728, Pitch_bend_c, 15, 10240
8, 202080, Note_off_c, 15, 76, 80
8, 202080, Pitch_bend_c, 15, 8192
8, 202080, Note_on_c, 15, 76, 95
8, 202320, Note_off_c, 15, 76, 80
8, 202320, Note_on_c, 15, 73, 95
8, 202800, Note_off_c, 15, 73, 80
8, 202800, Note_on_c, 15, 76, 95
8, 203280, Note_off_c, 15, 76, 80
8, 203280, Note_on_c, 15, 76, 95
8, 203280, Pitch_bend_c, 15, 8192
8, 203296, Pitch_bend_c, 15, 8576
8, 203312, Pitch_bend_c, 15, 8832
8, 203328, Pitch_bend_c, 15, 9216
8, 203344, Pitch_bend_c, 15, 9600
8, 203360, Pitch_bend_c, 15, 9856
8, 203376, Pitch_bend_c, 15, 10240
8, 203760, Note_off_c, 15, 76, 80
8, 203760, Pitch_bend_c, 15, 8192
8, 203760, Note_on_c, 15, 80, 95
8, 204240, Note_off_c, 15, 80, 80
8, 204240, Note_on_c, 15, 81, 95
8, 204720, Note_off_c, 15, 81, 80
8, 204720, Note_on_c, 15, 83, 95
8, 205440, Note_off_c, 15, 83, 80
8, 205440, Note_on_c, 15, 82, 95
8, 205440, Pitch_bend_c, 15, 8192
8, 205456, Pitch_bend_c, 15, 8448
8, 205472, Pitch_bend_c, 15, 8704
8, 205488, Pitch_bend_c, 15, 8960
8, 205504, Pitch_bend_c, 15, 9216
8, 205520, Pitch_bend_c, 15, 9600
8, 205536, Pitch_bend_c, 15, 9856
8, 205552, Pitch_bend_c, 15, 10112
8, 205568, Pitch_bend_c, 15, 10240
8, 205680, Note_off_c, 15, 82, 80
8, 205680, Pitch_bend_c, 15, 8192
8, 205680, Note_on_c, 15, 82, 95
8, 205680, Pitch_bend_c, 15, 8192
8, 205696, Pitch_bend_c, 15, 8448
8, 205712, Pitch_bend_c, 15, 8704
8, 205728, Pitch_bend_c, 15, 8960
8, 205744, Pitch_bend_c, 15, 9216
8, 205760, Pitch_bend_c, 15, 9472
8, 205776, Pitch_bend_c, 15, 9728
8, 205792, Pitch_bend_c, 15, 9984
8, 205808, Pitch_bend_c, 15, 10240
8, 206160, Note_off_c, 15, 82, 80
8, 206160, Pitch_bend_c, 15, 8192
8, 206160, Note_on_c, 15, 82, 95
8, 206280, Note_off_c, 15, 82, 80
8, 206280, Note_on_c, 15, 80, 95
8, 206400, Note_off_c, 15, 80, 80
8, 206400, Note_on_c, 15, 79, 95
8, 206880, Note_off_c, 15, 79, 80
8, 206880, Note_on_c, 15, 80, 95
8, 207120, Note_off_c, 15, 80, 80
8, 207120, Note_on_c, 15, 77, 95
8, 208080, Note_off_c, 15, 77, 80
8, 208680, Note_on_c, 15, 77, 95
8, 208800, Note_off_c, 15, 77, 80
8, 208800, Note_on_c, 15, 75, 95
8, 208920, Note_off_c, 15, 75, 80
8, 208920, Note_on_c, 15, 72, 95
8, 209040, Note_off_c, 15, 72, 80
8, 209040, Note_on_c, 15, 70, 95
8, 209160, Note_off_c, 15, 70, 80
8, 209160, Note_on_c, 15, 68, 95
8, 209280, Note_off_c, 15, 68, 80
8, 209280, Note_on_c, 15, 67, 95
8, 209760, Note_off_c, 15, 67, 80
8, 209760, Note_on_c, 15, 75, 95
8, 210000, Note_off_c, 15, 75, 80
8, 210000, Note_on_c, 15, 63, 95
8, 210480, Note_off_c, 15, 63, 80
8, 210480, Note_on_c, 15, 67, 95
8, 210960, Note_off_c, 15, 67, 80
8, 210960, Note_on_c, 15, 60, 95
8, 211440, Note_off_c, 15, 60, 80
8, 211440, Note_on_c, 15, 63, 95
8, 211920, Note_off_c, 15, 63, 80
8, 211920, Note_on_c, 15, 65, 95
8, 212400, Note_off_c, 15, 65, 80
8, 212400, Note_on_c, 15, 67, 95
8, 213120, Note_off_c, 15, 67, 80
8, 213120, Note_on_c, 15, 68, 95
8, 213480, Note_off_c, 15, 68, 80
8, 213480, Note_on_c, 15, 70, 95
8, 213840, Note_off_c, 15, 70, 80
8, 213840, Note_on_c, 15, 66, 95
8, 214080, Note_off_c, 15, 66, 80
8, 214080, Note_on_c, 15, 73, 95
8, 214440, Note_off_c, 15, 73, 80
8, 214440, Note_on_c, 15, 70, 95
8, 214800, Note_off_c, 15, 70, 80
8, 214800, Note_on_c, 15, 78, 95
8, 215040, Note_off_c, 15, 78, 80
8, 215040, Note_on_c, 15, 73, 95
8, 215040, Pitch_bend_c, 15, 8192
8, 215136, Pitch_bend_c, 15, 8320
8, 215152, Pitch_bend_c, 15, 8704
8, 215168, Pitch_bend_c, 15, 8960
8, 215184, Pitch_bend_c, 15, 9472
8, 215200, Pitch_bend_c, 15, 9856
8, 215216, Pitch_bend_c, 15, 10112
8, 215232, Pitch_bend_c, 15, 10240
8, 215400, Note_off_c, 15, 73, 80
8, 215400, Pitch_bend_c, 15, 8192
8, 215400, Note_on_c, 15, 78, 95
8, 215760, Note_off_c, 15, 78, 80
8, 215760, Note_on_c, 15, 80, 95
8, 216000, Note_off_c, 15, 80, 80
8, 216000, Note_on_c, 15, 82, 95
8, 216360, Note_off_c, 15, 82, 80
8, 216360, Note_on_c, 15, 83, 95
8, 216720, Note_off_c, 15, 83, 80
8, 216720, Note_on_c, 15, 85, 95
8, 216960, Note_off_c, 15, 85, 80
8, 216960, Note_on_c, 15, 85, 95
8, 216960, Pitch_bend_c, 15, 8192
8, 216976, Pitch_bend_c, 15, 8448
8, 216992, Pitch_bend_c, 15, 8704
8, 217008, Pitch_bend_c, 15, 8960
8, 217024, Pitch_bend_c, 15, 9216
8, 217040, Pitch_bend_c, 15, 9600
8, 217056, Pitch_bend_c, 15, 9856
8, 217072, Pitch_bend_c, 15, 10112
8, 217088, Pitch_bend_c, 15, 10240
8, 217200, Note_off_c, 15, 85, 80
8, 217200, Pitch_bend_c, 15, 8192
8, 217200, Note_on_c, 15, 85, 95
8, 217200, Pitch_bend_c, 15, 8192
8, 217216, Pitch_bend_c, 15, 8320
8, 217232, Pitch_bend_c, 15, 8448
8, 217248, Pitch_bend_c, 15, 8576
8, 217264, Pitch_bend_c, 15, 8704
8, 217280, Pitch_bend_c, 15, 8832
8, 217296, Pitch_bend_c, 15, 8960
8, 217312, Pitch_bend_c, 15, 9216
8, 217344, Pitch_bend_c, 15, 9472
8, 217360, Pitch_bend_c, 15, 9600
8, 217376, Pitch_bend_c, 15, 9728
8, 217392, Pitch_bend_c, 15, 9856
8, 217408, Pitch_bend_c, 15, 9984
8, 217424, Pitch_bend_c, 15, 10112
8, 217440, Pitch_bend_c, 15, 10240
8, 217680, Note_off_c, 15, 85, 80
8, 217680, Pitch_bend_c, 15, 8192
8, 217680, Note_on_c, 15, 85, 63
8, 217800, Note_off_c, 15, 85, 80
8, 217800, Note_on_c, 15, 83, 79
8, 217920, Note_off_c, 15, 83, 80
8, 217920, Note_on_c, 15, 82, 95
8, 218400, Note_off_c, 15, 82, 80
8, 218400, Note_on_c, 15, 81, 95
8, 218400, Pitch_bend_c, 15, 8192
8, 218416, Pitch_bend_c, 15, 8448
8, 218432, Pitch_bend_c, 15, 8704
8, 218448, Pitch_bend_c, 15, 8960
8, 218464, Pitch_bend_c, 15, 9216
8, 218480, Pitch_bend_c, 15, 9600
8, 218496, Pitch_bend_c, 15, 9856
8, 218512, Pitch_bend_c, 15, 10112
8, 218528, Pitch_bend_c, 15, 10240
8, 218640, Note_off_c, 15, 81, 80
8, 218640, Pitch_bend_c, 15, 8192
8, 218640, Note_on_c, 15, 80, 95
8, 219360, Note_off_c, 15, 80, 80
8, 232560, Note_on_c, 15, 49, 63
8, 232800, Note_off_c, 15, 49, 80
8, 232800, Note_on_c, 15, 56, 63
8, 233040, Note_off_c, 15, 56, 80
8, 233040, Note_on_c, 15, 49, 63
8, 233280, Note_off_c, 15, 49, 80
8, 233280, Note_on_c, 15, 57, 63
8, 233520, Note_off_c, 15, 57, 80
8, 233520, Note_on_c, 15, 49, 63
8, 233760, Note_off_c, 15, 49, 80
8, 233760, Note_on_c, 15, 47, 63
8, 234000, Note_off_c, 15, 47, 80
8, 234000, Note_on_c, 15, 49, 63
8, 234720, Note_off_c, 15, 49, 80
8, 234720, Note_on_c, 15, 52, 63
8, 234960, Note_off_c, 15, 52, 80
8, 234960, Note_on_c, 15, 47, 63
8, 235440, Note_off_c, 15, 47, 80
8, 235440, Note_on_c, 15, 52, 63
8, 235680, Note_off_c, 15, 52, 80
8, 235680, Note_on_c, 15, 51, 63
8, 235920, Note_off_c, 15, 51, 80
8, 235920, Note_on_c, 15, 49, 63
8, 236160, Note_off_c, 15, 49, 80
8, 236160, Note_on_c, 15, 49, 63
8, 236160, Note_on_c, 15, 44, 47
8, 236400, Note_off_c, 15, 49, 80
8, 236400, Note_off_c, 15, 44, 80
8, 236400, Note_on_c, 15, 49, 95
8, 236640, Note_off_c, 15, 49, 80
8, 236640, Note_on_c, 15, 49, 63
8, 236640, Note_on_c, 15, 44, 47
8, 236880, Note_off_c, 15, 49, 80
8, 236880, Note_off_c, 15, 44, 80
8, 236880, Note_on_c, 15, 49, 95
8, 237120, Note_off_c, 15, 49, 80
8, 237120, Note_on_c, 15, 49, 63
8, 237120, Note_on_c, 15, 44, 47
8, 237360, Note_off_c, 15, 49, 80
8, 237360, Note_off_c, 15, 44, 80
8, 237360, Note_on_c, 15, 56, 95
8, 237600, Note_off_c, 15, 56, 80
8, 237600, Note_on_c, 15, 49, 95
8, 237840, Note_off_c, 15, 49, 80
8, 237840, Note_on_c, 15, 57, 95
8, 238080, Note_off_c, 15, 57, 80
8, 238080, Note_on_c, 15, 49, 63
8, 238080, Note_on_c, 15, 44, 47
8, 238320, Note_off_c, 15, 49, 80
8, 238320, Note_off_c, 15, 44, 80
8, 238320, Note_on_c, 15, 49, 95
8, 238560, Note_off_c, 15, 49, 80
8, 238560, Note_on_c, 15, 49, 63
8, 238560, Note_on_c, 15, 44, 47
8, 238800, Note_off_c, 15, 49, 80
8, 238800, Note_off_c, 15, 44, 80
8, 238800, Note_on_c, 15, 49, 95
8, 239040, Note_off_c, 15, 49, 80
8, 239040, Note_on_c, 15, 49, 63
8, 239040, Note_on_c, 15, 44, 47
8, 239280, Note_off_c, 15, 49, 80
8, 239280, Note_off_c, 15, 44, 80
8, 239280, Note_on_c, 15, 57, 95
8, 239520, Note_off_c, 15, 57, 80
8, 239520, Note_on_c, 15, 49, 95
8, 239760, Note_off_c, 15, 49, 80
8, 239760, Note_on_c, 15, 56, 95
8, 240000, Note_off_c, 15, 56, 80
8, 240000, Note_on_c, 15, 49, 63
8, 240000, Note_on_c, 15, 44, 47
8, 240240, Note_off_c, 15, 49, 80
8, 240240, Note_off_c, 15, 44, 80
8, 240240, Note_on_c, 15, 49, 95
8, 240480, Note_off_c, 15, 49, 80
8, 240480, Note_on_c, 15, 56, 63
8, 240480, Note_on_c, 15, 44, 47
8, 240720, Note_off_c, 15, 56, 80
8, 240720, Note_off_c, 15, 44, 80
8, 240720, Note_on_c, 15, 49, 95
8, 240960, Note_off_c, 15, 49, 80
8, 240960, Note_on_c, 15, 60, 95
8, 240960, Note_on_c, 15, 49, 63
8, 241200, Note_off_c, 15, 60, 80
8, 241200, Note_off_c, 15, 49, 80
8, 241200, Note_on_c, 15, 56, 95
8, 241200, Note_on_c, 15, 49, 95
8, 241440, Note_off_c, 15, 56, 80
8, 241440, Note_off_c, 15, 49, 80
8, 241440, Note_on_c, 15, 49, 63
8, 241680, Note_off_c, 15, 49, 80
8, 241680, Note_on_c, 15, 52, 63
8, 241680, Note_on_c, 15, 49, 63
8, 242160, Note_off_c, 15, 52, 80
8, 242160, Note_off_c, 15, 49, 80
8, 242640, Note_on_c, 15, 54, 63
8, 242640, Note_on_c, 15, 47, 63
8, 243120, Note_off_c, 15, 54, 80
8, 243120, Note_off_c, 15, 47, 80
8, 243840, Note_on_c, 15, 49, 63
8, 243840, Note_on_c, 15, 44, 47
8, 244080, Note_off_c, 15, 49, 80
8, 244080, Note_off_c, 15, 44, 80
8, 244080, Note_on_c, 15, 49, 95
8, 244320, Note_off_c, 15, 49, 80
8, 244320, Note_on_c, 15, 49, 63
8, 244320, Note_on_c, 15, 44, 47
8, 244560, Note_off_c, 15, 49, 80
8, 244560, Note_off_c, 15, 44, 80
8, 244560, Note_on_c, 15, 49, 95
8, 244800, Note_off_c, 15, 49, 80
8, 244800, Note_on_c, 15, 49, 63
8, 244800, Note_on_c, 15, 44, 47
8, 245040, Note_off_c, 15, 49, 80
8, 245040, Note_off_c, 15, 44, 80
8, 245040, Note_on_c, 15, 56, 95
8, 245280, Note_off_c, 15, 56, 80
8, 245280, Note_on_c, 15, 49, 95
8, 245520, Note_off_c, 15, 49, 80
8, 245520, Note_on_c, 15, 57, 95
8, 245760, Note_off_c, 15, 57, 80
8, 245760, Note_on_c, 15, 49, 63
8, 245760, Note_on_c, 15, 44, 47
8, 246000, Note_off_c, 15, 49, 80
8, 246000, Note_off_c, 15, 44, 80
8, 246000, Note_on_c, 15, 49, 95
8, 246240, Note_off_c, 15, 49, 80
8, 246240, Note_on_c, 15, 49, 63
8, 246240, Note_on_c, 15, 44, 47
8, 246480, Note_off_c, 15, 49, 80
8, 246480, Note_off_c, 15, 44, 80
8, 246480, Note_on_c, 15, 49, 95
8, 246720, Note_off_c, 15, 49, 80
8, 246720, Note_on_c, 15, 49, 63
8, 246720, Note_on_c, 15, 44, 47
8, 246960, Note_off_c, 15, 49, 80
8, 246960, Note_off_c, 15, 44, 80
8, 246960, Note_on_c, 15, 57, 95
8, 247200, Note_off_c, 15, 57, 80
8, 247200, Note_on_c, 15, 49, 95
8, 247440, Note_off_c, 15, 49, 80
8, 247440, Note_on_c, 15, 56, 95
8, 247680, Note_off_c, 15, 56, 80
8, 247680, Note_on_c, 15, 49, 63
8, 247680, Note_on_c, 15, 44, 47
8, 247920, Note_off_c, 15, 49, 80
8, 247920, Note_off_c, 15, 44, 80
8, 247920, Note_on_c, 15, 56, 95
8, 247920, Note_on_c, 15, 49, 95
8, 248160, Note_off_c, 15, 56, 80
8, 248160, Note_off_c, 15, 49, 80
8, 248160, Note_on_c, 15, 60, 63
8, 248160, Note_on_c, 15, 44, 47
8, 248400, Note_off_c, 15, 60, 80
8, 248400, Note_off_c, 15, 44, 80
8, 248400, Note_on_c, 15, 49, 95
8, 248640, Note_off_c, 15, 49, 80
8, 248640, Note_on_c, 15, 63, 63
8, 248640, Note_on_c, 15, 49, 63
8, 248880, Note_off_c, 15, 63, 80
8, 248880, Note_off_c, 15, 49, 80
8, 248880, Note_on_c, 15, 60, 63
8, 248880, Note_on_c, 15, 49, 95
8, 249120, Note_off_c, 15, 60, 80
8, 249120, Note_off_c, 15, 49, 80
8, 249120, Note_on_c, 15, 56, 63
8, 249120, Note_on_c, 15, 49, 63
8, 249360, Note_off_c, 15, 56, 80
8, 249360, Note_off_c, 15, 49, 80
8, 249360, Note_on_c, 15, 49, 95
8, 249600, Note_off_c, 15, 49, 80
8, 250320, Note_on_c, 15, 54, 63
8, 250320, Note_on_c, 15, 47, 63
8, 250800, Note_off_c, 15, 54, 80
8, 250800, Note_off_c, 15, 47, 80
8, 251520, Note_on_c, 15, 66, 127
8, 251520, Pitch_bend_c, 15, 8192
8, 251520, Note_on_c, 15, 47, 63
8, 251520, Note_on_c, 15, 42, 63
8, 251536, Pitch_bend_c, 15, 8320
8, 251552, Pitch_bend_c, 15, 8576
8, 251568, Pitch_bend_c, 15, 8832
8, 251584, Pitch_bend_c, 15, 8960
8, 251600, Pitch_bend_c, 15, 9216
8, 251616, Pitch_bend_c, 15, 9344
8, 251632, Pitch_bend_c, 15, 9472
8, 251648, Pitch_bend_c, 15, 9856
8, 251664, Pitch_bend_c, 15, 9984
8, 251680, Pitch_bend_c, 15, 10112
8, 251696, Pitch_bend_c, 15, 10240
8, 251760, Note_off_c, 15, 47, 80
8, 251760, Note_off_c, 15, 42, 80
8, 251760, Note_on_c, 15, 49, 95
8, 252000, Note_off_c, 15, 49, 80
8, 252000, Note_on_c, 15, 49, 63
8, 252000, Note_on_c, 15, 44, 47
8, 252240, Note_off_c, 15, 66, 80
8, 252240, Pitch_bend_c, 15, 8192
8, 252240, Note_off_c, 15, 49, 80
8, 252240, Note_off_c, 15, 44, 80
8, 252240, Note_on_c, 15, 61, 127
8, 252240, Note_on_c, 15, 49, 95
8, 252480, Note_off_c, 15, 49, 80
8, 252480, Note_on_c, 15, 49, 63
8, 252480, Note_on_c, 15, 44, 47
8, 252720, Note_off_c, 15, 49, 80
8, 252720, Note_off_c, 15, 44, 80
8, 252720, Note_on_c, 15, 56, 95
8, 252960, Note_off_c, 15, 56, 80
8, 252960, Note_on_c, 15, 49, 95
8, 253200, Note_off_c, 15, 49, 80
8, 253200, Note_on_c, 15, 57, 95
8, 253440, Note_off_c, 15, 61, 80
8, 253440, Note_off_c, 15, 57, 80
8, 253440, Note_on_c, 15, 69, 95
8, 253440, Note_on_c, 15, 49, 63
8, 253440, Note_on_c, 15, 44, 47
8, 253680, Note_off_c, 15, 49, 80
8, 253680, Note_off_c, 15, 44, 80
8, 253680, Note_on_c, 15, 49, 95
8, 253920, Note_off_c, 15, 49, 80
8, 253920, Note_on_c, 15, 49, 63
8, 253920, Note_on_c, 15, 44, 47
8, 254160, Note_off_c, 15, 69, 80
8, 254160, Note_off_c, 15, 49, 80
8, 254160, Note_off_c, 15, 44, 80
8, 254160, Note_on_c, 15, 64, 95
8, 254160, Note_on_c, 15, 49, 95
8, 254400, Note_off_c, 15, 49, 80
8, 254400, Note_on_c, 15, 49, 63
8, 254400, Note_on_c, 15, 44, 47
8, 254640, Note_off_c, 15, 49, 80
8, 254640, Note_off_c, 15, 44, 80
8, 254640, Note_on_c, 15, 57, 95
8, 254880, Note_off_c, 15, 57, 80
8, 254880, Note_on_c, 15, 49, 95
8, 255120, Note_off_c, 15, 49, 80
8, 255120, Note_on_c, 15, 56, 95
8, 255360, Note_off_c, 15, 64, 80
8, 255360, Note_off_c, 15, 56, 80
8, 255360, Note_on_c, 15, 68, 95
8, 255360, Note_on_c, 15, 49, 63
8, 255360, Note_on_c, 15, 44, 47
8, 255600, Note_off_c, 15, 49, 80
8, 255600, Note_off_c, 15, 44, 80
8, 255600, Note_on_c, 15, 49, 95
8, 255840, Note_off_c, 15, 49, 80
8, 255840, Note_on_c, 15, 56, 63
8, 255840, Note_on_c, 15, 44, 47
8, 256080, Note_off_c, 15, 68, 80
8, 256080, Note_off_c, 15, 56, 80
8, 256080, Note_off_c, 15, 44, 80
8, 256080, Note_on_c, 15, 63, 95
8, 256080, Note_on_c, 15, 49, 95
8, 256320, Note_off_c, 15, 49, 80
8, 256320, Note_on_c, 15, 60, 95
8, 256320, Note_on_c, 15, 49, 63
8, 256560, Note_off_c, 15, 60, 80
8, 256560, Note_off_c, 15, 49, 80
8, 256560, Note_on_c, 15, 56, 95
8, 256560, Note_on_c, 15, 49, 95
8, 256800, Note_off_c, 15, 56, 80
8, 256800, Note_off_c, 15, 49, 80
8, 256800, Note_on_c, 15, 49, 63
8, 257040, Note_off_c, 15, 49, 80
8, 257040, Note_on_c, 15, 52, 63
8, 257040, Note_on_c, 15, 49, 63
8, 257280, Note_off_c, 15, 63, 80
8, 257280, Note_off_c, 15, 52, 80
8, 257280, Note_off_c, 15, 49, 80
8, 257280, Note_on_c, 15, 66, 95
8, 258000, Note_off_c, 15, 66, 80
8, 258000, Note_on_c, 15, 66, 95
8, 258480, Note_off_c, 15, 66, 80
8, 258480, Note_on_c, 15, 64, 95
8, 258720, Note_off_c, 15, 64, 80
8, 258720, Note_on_c, 15, 63, 95
8, 258960, Note_off_c, 15, 63, 80
8, 258960, Note_on_c, 15, 61, 95
8, 258960, Note_on_c, 15, 54, 63
8, 258960, Note_on_c, 15, 47, 63
8, 259200, Note_off_c, 15, 61, 80
8, 259200, Note_off_c, 15, 54, 80
8, 259200, Note_off_c, 15, 47, 80
8, 259200, Note_on_c, 15, 68, 127
8, 259200, Note_on_c, 15, 49, 63
8, 259200, Note_on_c, 15, 44, 47
8, 259440, Note_off_c, 15, 49, 80
8, 259440, Note_off_c, 15, 44, 80
8, 259440, Note_on_c, 15, 49, 95
8, 259680, Note_off_c, 15, 49, 80
8, 259680, Note_on_c, 15, 49, 63
8, 259680, Note_on_c, 15, 44, 47
8, 259920, Note_off_c, 15, 68, 80
8, 259920, Note_off_c, 15, 49, 80
8, 259920, Note_off_c, 15, 44, 80
8, 259920, Note_on_c, 15, 61, 127
8, 259920, Note_on_c, 15, 49, 95
8, 260160, Note_off_c, 15, 49, 80
8, 260160, Note_on_c, 15, 49, 63
8, 260160, Note_on_c, 15, 44, 47
8, 260400, Note_off_c, 15, 49, 80
8, 260400, Note_off_c, 15, 44, 80
8, 260400, Note_on_c, 15, 56, 95
8, 260640, Note_off_c, 15, 56, 80
8, 260640, Note_on_c, 15, 49, 95
8, 260880, Note_off_c, 15, 49, 80
8, 260880, Note_on_c, 15, 57, 95
8, 261120, Note_off_c, 15, 61, 80
8, 261120, Note_off_c, 15, 57, 80
8, 261120, Note_on_c, 15, 69, 95
8, 261120, Note_on_c, 15, 49, 63
8, 261120, Note_on_c, 15, 44, 47
8, 261360, Note_off_c, 15, 49, 80
8, 261360, Note_off_c, 15, 44, 80
8, 261360, Note_on_c, 15, 49, 95
8, 261600, Note_off_c, 15, 49, 80
8, 261600, Note_on_c, 15, 49, 63
8, 261600, Note_on_c, 15, 44, 47
8, 261840, Note_off_c, 15, 69, 80
8, 261840, Note_off_c, 15, 49, 80
8, 261840, Note_off_c, 15, 44, 80
8, 261840, Note_on_c, 15, 73, 95
8, 261840, Note_on_c, 15, 49, 95
8, 262080, Note_off_c, 15, 49, 80
8, 262080, Note_on_c, 15, 49, 63
8, 262080, Note_on_c, 15, 44, 47
8, 262320, Note_off_c, 15, 49, 80
8, 262320, Note_off_c, 15, 44, 80
8, 262320, Note_on_c, 15, 57, 95
8, 262560, Note_off_c, 15, 57, 80
8, 262560, Note_on_c, 15, 49, 95
8, 262800, Note_off_c, 15, 49, 80
8, 262800, Note_on_c, 15, 56, 95
8, 263040, Note_off_c, 15, 73, 80
8, 263040, Note_off_c, 15, 56, 80
8, 263040, Note_on_c, 15, 75, 95
8, 263040, Note_on_c, 15, 49, 63
8, 263040, Note_on_c, 15, 44, 47
8, 263280, Note_off_c, 15, 49, 80
8, 263280, Note_off_c, 15, 44, 80
8, 263280, Note_on_c, 15, 56, 95
8, 263280, Note_on_c, 15, 49, 95
8, 263520, Note_off_c, 15, 56, 80
8, 263520, Note_off_c, 15, 49, 80
8, 263520, Note_on_c, 15, 60, 63
8, 263520, Note_on_c, 15, 44, 47
8, 263760, Note_off_c, 15, 60, 80
8, 263760, Note_off_c, 15, 44, 80
8, 263760, Note_on_c, 15, 49, 95
8, 264000, Note_off_c, 15, 49, 80
8, 264000, Note_on_c, 15, 63, 63
8, 264000, Note_on_c, 15, 49, 63
8, 264240, Note_off_c, 15, 63, 80
8, 264240, Note_off_c, 15, 49, 80
8, 264240, Note_on_c, 15, 60, 63
8, 264240, Note_on_c, 15, 49, 95
8, 264480, Note_off_c, 15, 60, 80
8, 264480, Note_off_c, 15, 49, 80
8, 264480, Note_on_c, 15, 56, 63
8, 264480, Note_on_c, 15, 49, 63
8, 264720, Note_off_c, 15, 56, 80
8, 264720, Note_off_c, 15, 49, 80
8, 264720, Note_on_c, 15, 49, 95
8, 264960, Note_off_c, 15, 75, 80
8, 264960, Note_off_c, 15, 49, 80
8, 264960, Note_on_c, 15, 76, 95
8, 265680, Note_off_c, 15, 76, 80
8, 265680, Note_on_c, 15, 78, 95
8, 265680, Note_on_c, 15, 54, 63
8, 265680, Note_on_c, 15, 47, 63
8, 266160, Note_off_c, 15, 78, 80
8, 266160, Note_off_c, 15, 54, 80
8, 266160, Note_off_c, 15, 47, 80
8, 309360, Note_on_c, 15, 49, 63
8, 309600, Note_off_c, 15, 49, 80
8, 309600, Note_on_c, 15, 56, 63
8, 309840, Note_off_c, 15, 56, 80
8, 309840, Note_on_c, 15, 49, 63
8, 310080, Note_off_c, 15, 49, 80
8, 310080, Note_on_c, 15, 57, 63
8, 310320, Note_off_c, 15, 57, 80
8, 310320, Note_on_c, 15, 49, 63
8, 310560, Note_off_c, 15, 49, 80
8, 310560, Note_on_c, 15, 47, 63
8, 310800, Note_off_c, 15, 47, 80
8, 310800, Note_on_c, 15, 49, 63
8, 311520, Note_off_c, 15, 49, 80
8, 311520, Note_on_c, 15, 52, 63
8, 311760, Note_off_c, 15, 52, 80
8, 311760, Note_on_c, 15, 47, 63
8, 312240, Note_off_c, 15, 47, 80
8, 314160, Note_on_c, 15, 76, 95
8, 314400, Note_off_c, 15, 76, 80
8, 314400, Note_on_c, 15, 78, 95
8, 314640, Note_off_c, 15, 78, 80
8, 314640, Note_on_c, 15, 80, 95
8, 315120, Note_off_c, 15, 80, 80
8, 315120, Note_on_c, 15, 81, 95
8, 315360, Note_off_c, 15, 81, 80
8, 315360, Note_on_c, 15, 80, 95
8, 315600, Note_off_c, 15, 80, 80
8, 315600, Note_on_c, 15, 78, 95
8, 316080, Note_off_c, 15, 78, 80
8, 316080, Note_on_c, 15, 76, 95
8, 316320, Note_off_c, 15, 76, 80
8, 316320, Note_on_c, 15, 71, 95
8, 316560, Note_off_c, 15, 71, 80
8, 316560, Note_on_c, 15, 80, 95
8, 316800, Note_off_c, 15, 80, 80
8, 316800, Note_on_c, 15, 73, 95
8, 317520, Note_off_c, 15, 73, 80
8, 317520, Note_on_c, 15, 73, 95
8, 317760, Note_off_c, 15, 73, 80
8, 317760, Note_on_c, 15, 80, 95
8, 318000, Note_off_c, 15, 80, 80
8, 318000, Note_on_c, 15, 83, 95
8, 318240, Note_off_c, 15, 83, 80
8, 318240, Note_on_c, 15, 83, 95
8, 318480, Note_off_c, 15, 83, 80
8, 318480, Note_on_c, 15, 78, 95
8, 318960, Note_off_c, 15, 78, 80
8, 318960, Note_on_c, 15, 76, 95
8, 319200, Note_off_c, 15, 76, 80
8, 319200, Note_on_c, 15, 73, 95
8, 319440, Note_off_c, 15, 73, 80
8, 319440, Note_on_c, 15, 73, 95
8, 319920, Note_off_c, 15, 73, 80
8, 324720, Note_on_c, 15, 49, 63
8, 324960, Note_off_c, 15, 49, 80
8, 324960, Note_on_c, 15, 56, 63
8, 325200, Note_off_c, 15, 56, 80
8, 325200, Note_on_c, 15, 49, 63
8, 325440, Note_off_c, 15, 49, 80
8, 325440, Note_on_c, 15, 57, 63
8, 325680, Note_off_c, 15, 57, 80
8, 325680, Note_on_c, 15, 49, 63
8, 325920, Note_off_c, 15, 49, 80
8, 325920, Note_on_c, 15, 47, 63
8, 326160, Note_off_c, 15, 47, 80
8, 326160, Note_on_c, 15, 49, 63
8, 326880, Note_off_c, 15, 49, 80
8, 326880, Note_on_c, 15, 52, 63
8, 327120, Note_off_c, 15, 52, 80
8, 327120, Note_on_c, 15, 47, 63
8, 327600, Note_off_c, 15, 47, 80
8, 327600, Note_on_c, 15, 52, 63
8, 327840, Note_off_c, 15, 52, 80
8, 327840, Note_on_c, 15, 51, 63
8, 328080, Note_off_c, 15, 51, 80
8, 328080, Note_on_c, 15, 49, 63
8, 328320, Note_off_c, 15, 49, 80
8, 330000, Note_on_c, 15, 68, 95
8, 330480, Note_off_c, 15, 68, 80
8, 330480, Note_on_c, 15, 69, 95
8, 330720, Note_off_c, 15, 69, 80
8, 330720, Note_on_c, 15, 68, 95
8, 330960, Note_off_c, 15, 68, 80
8, 330960, Note_on_c, 15, 66, 95
8, 331440, Note_off_c, 15, 66, 80
8, 331440, Note_on_c, 15, 64, 95
8, 331680, Note_off_c, 15, 64, 80
8, 331680, Note_on_c, 15, 63, 95
8, 331920, Note_off_c, 15, 63, 80
8, 331920, Note_on_c, 15, 61, 95
8, 333600, Note_off_c, 15, 61, 80
8, 333840, Note_on_c, 15, 68, 95
8, 334320, Note_off_c, 15, 68, 80
8, 334320, Note_on_c, 15, 69, 95
8, 334560, Note_off_c, 15, 69, 80
8, 334560, Note_on_c, 15, 68, 63
8, 334800, Note_off_c, 15, 68, 80
8, 334800, Note_on_c, 15, 66, 63
8, 335280, Note_off_c, 15, 66, 80
8, 335280, Note_on_c, 15, 64, 63
8, 335520, Note_off_c, 15, 64, 80
8, 335520, Note_on_c, 15, 63, 63
8, 335760, Note_off_c, 15, 63, 80
8, 335760, Note_on_c, 15, 61, 63
8, 337440, Note_off_c, 15, 61, 80
8, 337680, Note_on_c, 15, 73, 63
8, 338160, Note_off_c, 15, 73, 80
8, 338160, Note_on_c, 15, 76, 63
8, 338400, Note_off_c, 15, 76, 80
8, 338400, Note_on_c, 15, 75, 63
8, 338640, Note_off_c, 15, 75, 80
8, 338640, Note_on_c, 15, 71, 79
8, 339120, Note_off_c, 15, 71, 80
8, 339120, Note_on_c, 15, 64, 79
8, 339360, Note_off_c, 15, 64, 80
8, 339360, Note_on_c, 15, 63, 79
8, 339600, Note_off_c, 15, 63, 80
8, 339600, Note_on_c, 15, 61, 79
8, 340800, Note_off_c, 15, 61, 80
8, 340800, End_track
9, 0, Start_track
9, 0, Title_t, "Bajo"
9, 0, Control_c, 2, 100, 0
9, 0, Control_c, 2, 101, 0
9, 0, Control_c, 2, 6, 8
9, 0, Pitch_bend_c, 2, 8192
9, 0, Control_c, 3, 100, 0
9, 0, Control_c, 3, 101, 0
9, 0, Control_c, 3, 6, 8
9, 0, Pitch_bend_c, 3, 8192
9, 0, Program_c, 2, 33
9, 0, Program_c, 3, 33
9, 0, Control_c, 2, 7, 127
9, 0, Control_c, 3, 7, 127
9, 0, Control_c, 2, 10, 64
9, 0, Control_c, 3, 10, 64
9, 0, Control_c, 2, 93, 0
9, 0, Control_c, 3, 93, 0
9, 0, Control_c, 2, 91, 0
9, 0, Control_c, 3, 91, 0
9, 0, Control_c, 2, 92, 0
9, 0, Control_c, 3, 92, 0
9, 0, Control_c, 2, 95, 0
9, 0, Control_c, 3, 95, 0
9, 3840, Note_on_c, 2, 35, 79
9, 4560, Note_off_c, 2, 35, 80
9, 4560, Note_on_c, 2, 33, 79
9, 5520, Note_off_c, 2, 33, 80
9, 5520, Note_on_c, 2, 43, 79
9, 7680, Note_off_c, 2, 43, 80
9, 7680, Note_on_c, 2, 42, 63
9, 9360, Note_off_c, 2, 42, 80
9, 9360, Note_on_c, 2, 43, 63
9, 10320, Note_off_c, 2, 43, 80
9, 10320, Note_on_c, 2, 42, 63
9, 11520, Note_off_c, 2, 42, 80
9, 11520, Note_on_c, 2, 43, 63
9, 13440, Note_off_c, 2, 43, 80
9, 17280, Note_on_c, 2, 42, 95
9, 18000, Note_off_c, 2, 42, 80
9, 18000, Note_on_c, 2, 40, 95
9, 18960, Note_off_c, 2, 40, 80
9, 18960, Note_on_c, 2, 38, 95
9, 21120, Note_off_c, 2, 38, 80
9, 21120, Note_on_c, 2, 37, 63
9, 24960, Note_off_c, 2, 37, 80
9, 24960, Note_on_c, 2, 36, 95
9, 28800, Note_off_c, 2, 36, 80
9, 28800, Note_on_c, 2, 40, 95
9, 28800, Note_on_c, 2, 28, 95
9, 36480, Note_off_c, 2, 40, 80
9, 36480, Note_off_c, 2, 28, 80
9, 36480, Note_on_c, 2, 37, 95
9, 36840, Note_off_c, 2, 37, 80
9, 36840, Note_on_c, 2, 37, 95
9, 36960, Note_off_c, 2, 37, 80
9, 36960, Note_on_c, 2, 32, 63
9, 37200, Note_off_c, 2, 32, 80
9, 37200, Note_on_c, 2, 32, 95
9, 37440, Note_off_c, 2, 32, 80
9, 37440, Note_on_c, 2, 35, 95
9, 37680, Note_off_c, 2, 35, 80
9, 37680, Note_on_c, 2, 37, 95
9, 37920, Note_off_c, 2, 37, 80
9, 37920, Note_on_c, 2, 35, 95
9, 38160, Note_off_c, 2, 35, 80
9, 38160, Note_on_c, 2, 33, 95
9, 39120, Note_off_c, 2, 33, 80
9, 39120, Note_on_c, 2, 32, 79
9, 39240, Note_off_c, 2, 32, 80
9, 39240, Note_on_c, 2, 32, 95
9, 39360, Note_off_c, 2, 32, 80
9, 39360, Note_on_c, 2, 35, 95
9, 39720, Note_off_c, 2, 35, 80
9, 39720, Note_on_c, 2, 35, 95
9, 40080, Note_off_c, 2, 35, 80
9, 40080, Note_on_c, 2, 32, 95
9, 40200, Note_off_c, 2, 32, 80
9, 40680, Note_on_c, 2, 37, 95
9, 40800, Note_off_c, 2, 37, 80
9, 40800, Note_on_c, 2, 32, 63
9, 41040, Note_off_c, 2, 32, 80
9, 41040, Note_on_c, 2, 32, 95
9, 41280, Note_off_c, 2, 32, 80
9, 41280, Note_on_c, 2, 35, 95
9, 41520, Note_off_c, 2, 35, 80
9, 41520, Note_on_c, 2, 40, 95
9, 41760, Note_off_c, 2, 40, 80
9, 41760, Note_on_c, 2, 35, 95
9, 42000, Note_off_c, 2, 35, 80
9, 42000, Note_on_c, 2, 33, 95
9, 42960, Note_off_c, 2, 33, 80
9, 42960, Note_on_c, 2, 47, 63
9, 42960, Note_on_c, 2, 35, 95
9, 43080, Note_off_c, 2, 47, 80
9, 43080, Note_off_c, 2, 35, 80
9, 43080, Note_on_c, 2, 32, 95
9, 43200, Note_off_c, 2, 32, 80
9, 43200, Note_on_c, 2, 47, 63
9, 43200, Note_on_c, 2, 35, 95
9, 43560, Note_off_c, 2, 47, 80
9, 43560, Note_off_c, 2, 35, 80
9, 43560, Note_on_c, 2, 35, 95
9, 43920, Note_off_c, 2, 35, 80
9, 43920, Note_on_c, 2, 49, 63
9, 43920, Note_on_c, 2, 32, 95
9, 44040, Note_off_c, 2, 49, 80
9, 44040, Note_off_c, 2, 32, 80
9, 44520, Note_on_c, 2, 37, 95
9, 44640, Note_off_c, 2, 37, 80
9, 44640, Note_on_c, 2, 32, 63
9, 44880, Note_off_c, 2, 32, 80
9, 44880, Note_on_c, 2, 32, 95
9, 45120, Note_off_c, 2, 32, 80
9, 45120, Note_on_c, 2, 35, 95
9, 45360, Note_off_c, 2, 35, 80
9, 45360, Note_on_c, 2, 37, 95
9, 45600, Note_off_c, 2, 37, 80
9, 45600, Note_on_c, 2, 35, 95
9, 45840, Note_off_c, 2, 35, 80
9, 45840, Note_on_c, 2, 33, 95
9, 46800, Note_off_c, 2, 33, 80
9, 46800, Note_on_c, 2, 32, 79
9, 46920, Note_off_c, 2, 32, 80
9, 46920, Note_on_c, 2, 32, 95
9, 47040, Note_off_c, 2, 32, 80
9, 47040, Note_on_c, 2, 35, 95
9, 47400, Note_off_c, 2, 35, 80
9, 47400, Note_on_c, 2, 35, 95
9, 47760, Note_off_c, 2, 35, 80
9, 47760, Note_on_c, 2, 32, 95
9, 47880, Note_off_c, 2, 32, 80
9, 48360, Note_on_c, 2, 37, 95
9, 48480, Note_off_c, 2, 37, 80
9, 48480, Note_on_c, 2, 32, 63
9, 48720, Note_off_c, 2, 32, 80
9, 48720, Note_on_c, 2, 32, 95
9, 48960, Note_off_c, 2, 32, 80
9, 48960, Note_on_c, 2, 35, 95
9, 49200, Note_off_c, 2, 35, 80
9, 49200, Note_on_c, 2, 40, 95
9, 49440, Note_off_c, 2, 40, 80
9, 49440, Note_on_c, 2, 35, 95
9, 49680, Note_off_c, 2, 35, 80
9, 49680, Note_on_c, 2, 33, 95
9, 50640, Note_off_c, 2, 33, 80
9, 50640, Note_on_c, 2, 47, 63
9, 50640, Note_on_c, 2, 35, 95
9, 50760, Note_off_c, 2, 47, 80
9, 50760, Note_off_c, 2, 35, 80
9, 50760, Note_on_c, 2, 32, 95
9, 50880, Note_off_c, 2, 32, 80
9, 50880, Note_on_c, 2, 47, 63
9, 50880, Note_on_c, 2, 35, 95
9, 51240, Note_off_c, 2, 47, 80
9, 51240, Note_off_c, 2, 35, 80
9, 51240, Note_on_c, 2, 35, 95
9, 51600, Note_off_c, 2, 35, 80
9, 51600, Note_on_c, 2, 49, 63
9, 51600, Note_on_c, 2, 32, 95
9, 51720, Note_off_c, 2, 49, 80
9, 51720, Note_off_c, 2, 32, 80
9, 52200, Note_on_c, 2, 37, 95
9, 52320, Note_off_c, 2, 37, 80
9, 52320, Note_on_c, 2, 32, 63
9, 52560, Note_off_c, 2, 32, 80
9, 52560, Note_on_c, 2, 32, 95
9, 52800, Note_off_c, 2, 32, 80
9, 52800, Note_on_c, 2, 35, 95
9, 53040, Note_off_c, 2, 35, 80
9, 53040, Note_on_c, 2, 37, 95
9, 53280, Note_off_c, 2, 37, 80
9, 53280, Note_on_c, 2, 35, 95
9, 53520, Note_off_c, 2, 35, 80
9, 53520, Note_on_c, 2, 33, 95
9, 54480, Note_off_c, 2, 33, 80
9, 54480, Note_on_c, 2, 32, 79
9, 54600, Note_off_c, 2, 32, 80
9, 54600, Note_on_c, 2, 32, 95
9, 54720, Note_off_c, 2, 32, 80
9, 54720, Note_on_c, 2, 35, 95
9, 55080, Note_off_c, 2, 35, 80
9, 55080, Note_on_c, 2, 35, 95
9, 55440, Note_off_c, 2, 35, 80
9, 55440, Note_on_c, 2, 32, 95
9, 55560, Note_off_c, 2, 32, 80
9, 56040, Note_on_c, 2, 37, 95
9, 56160, Note_off_c, 2, 37, 80
9, 56160, Note_on_c, 2, 32, 63
9, 56400, Note_off_c, 2, 32, 80
9, 56400, Note_on_c, 2, 32, 95
9, 56640, Note_off_c, 2, 32, 80
9, 56640, Note_on_c, 2, 35, 95
9, 56880, Note_off_c, 2, 35, 80
9, 56880, Note_on_c, 2, 40, 95
9, 57120, Note_off_c, 2, 40, 80
9, 57120, Note_on_c, 2, 35, 95
9, 57360, Note_off_c, 2, 35, 80
9, 57360, Note_on_c, 2, 33, 95
9, 58320, Note_off_c, 2, 33, 80
9, 58320, Note_on_c, 2, 47, 63
9, 58320, Note_on_c, 2, 35, 95
9, 58440, Note_off_c, 2, 47, 80
9, 58440, Note_off_c, 2, 35, 80
9, 58440, Note_on_c, 2, 32, 95
9, 58560, Note_off_c, 2, 32, 80
9, 58560, Note_on_c, 2, 47, 63
9, 58560, Note_on_c, 2, 35, 95
9, 58920, Note_off_c, 2, 47, 80
9, 58920, Note_off_c, 2, 35, 80
9, 58920, Note_on_c, 2, 35, 95
9, 59280, Note_off_c, 2, 35, 80
9, 59280, Note_on_c, 2, 49, 63
9, 59280, Note_on_c, 2, 32, 95
9, 59400, Note_off_c, 2, 49, 80
9, 59400, Note_off_c, 2, 32, 80
9, 59880, Note_on_c, 2, 37, 95
9, 60000, Note_off_c, 2, 37, 80
9, 60000, Note_on_c, 2, 32, 63
9, 60240, Note_off_c, 2, 32, 80
9, 60240, Note_on_c, 2, 32, 95
9, 60480, Note_off_c, 2, 32, 80
9, 60480, Note_on_c, 2, 35, 95
9, 60720, Note_off_c, 2, 35, 80
9, 60720, Note_on_c, 2, 37, 95
9, 60960, Note_off_c, 2, 37, 80
9, 60960, Note_on_c, 2, 35, 95
9, 61200, Note_off_c, 2, 35, 80
9, 61200, Note_on_c, 2, 33, 95
9, 62160, Note_off_c, 2, 33, 80
9, 62160, Note_on_c, 2, 32, 79
9, 62280, Note_off_c, 2, 32, 80
9, 62280, Note_on_c, 2, 32, 95
9, 62400, Note_off_c, 2, 32, 80
9, 62400, Note_on_c, 2, 35, 95
9, 62760, Note_off_c, 2, 35, 80
9, 62760, Note_on_c, 2, 35, 95
9, 63120, Note_off_c, 2, 35, 80
9, 63120, Note_on_c, 2, 32, 95
9, 63240, Note_off_c, 2, 32, 80
9, 63720, Note_on_c, 2, 37, 95
9, 63840, Note_off_c, 2, 37, 80
9, 63840, Note_on_c, 2, 32, 63
9, 64080, Note_off_c, 2, 32, 80
9, 64080, Note_on_c, 2, 32, 95
9, 64320, Note_off_c, 2, 32, 80
9, 64320, Note_on_c, 2, 35, 95
9, 64560, Note_off_c, 2, 35, 80
9, 64560, Note_on_c, 2, 40, 95
9, 64800, Note_off_c, 2, 40, 80
9, 64800, Note_on_c, 2, 35, 95
9, 65040, Note_off_c, 2, 35, 80
9, 65040, Note_on_c, 2, 33, 95
9, 66000, Note_off_c, 2, 33, 80
9, 66000, Note_on_c, 2, 47, 63
9, 66000, Note_on_c, 2, 35, 95
9, 66120, Note_off_c, 2, 47, 80
9, 66120, Note_off_c, 2, 35, 80
9, 66120, Note_on_c, 2, 32, 95
9, 66240, Note_off_c, 2, 32, 80
9, 66240, Note_on_c, 2, 47, 63
9, 66240, Note_on_c, 2, 35, 95
9, 66600, Note_off_c, 2, 47, 80
9, 66600, Note_off_c, 2, 35, 80
9, 66600, Note_on_c, 2, 35, 95
9, 66960, Note_off_c, 2, 35, 80
9, 66960, Note_on_c, 2, 49, 63
9, 66960, Note_on_c, 2, 32, 95
9, 67080, Note_off_c, 2, 49, 80
9, 67080, Note_off_c, 2, 32, 80
9, 67560, Note_on_c, 2, 37, 95
9, 67680, Note_off_c, 2, 37, 80
9, 67680, Note_on_c, 2, 32, 63
9, 67920, Note_off_c, 2, 32, 80
9, 67920, Note_on_c, 2, 32, 95
9, 68160, Note_off_c, 2, 32, 80
9, 68160, Note_on_c, 2, 35, 95
9, 68400, Note_off_c, 2, 35, 80
9, 68400, Note_on_c, 2, 37, 95
9, 68640, Note_off_c, 2, 37, 80
9, 68640, Note_on_c, 2, 35, 95
9, 68880, Note_off_c, 2, 35, 80
9, 68880, Note_on_c, 2, 33, 95
9, 69840, Note_off_c, 2, 33, 80
9, 69840, Note_on_c, 2, 32, 79
9, 69960, Note_off_c, 2, 32, 80
9, 69960, Note_on_c, 2, 32, 95
9, 70080, Note_off_c, 2, 32, 80
9, 70080, Note_on_c, 2, 35, 95
9, 70440, Note_off_c, 2, 35, 80
9, 70440, Note_on_c, 2, 35, 95
9, 70800, Note_off_c, 2, 35, 80
9, 70800, Note_on_c, 2, 32, 95
9, 70920, Note_off_c, 2, 32, 80
9, 71400, Note_on_c, 2, 37, 95
9, 71520, Note_off_c, 2, 37, 80
9, 71520, Note_on_c, 2, 32, 63
9, 71760, Note_off_c, 2, 32, 80
9, 71760, Note_on_c, 2, 32, 95
9, 72000, Note_off_c, 2, 32, 80
9, 72000, Note_on_c, 2, 35, 95
9, 72240, Note_off_c, 2, 35, 80
9, 72240, Note_on_c, 2, 40, 95
9, 72480, Note_off_c, 2, 40, 80
9, 72480, Note_on_c, 2, 35, 95
9, 72720, Note_off_c, 2, 35, 80
9, 72720, Note_on_c, 2, 33, 95
9, 73680, Note_off_c, 2, 33, 80
9, 73680, Note_on_c, 2, 47, 63
9, 73680, Note_on_c, 2, 35, 95
9, 73800, Note_off_c, 2, 47, 80
9, 73800, Note_off_c, 2, 35, 80
9, 73800, Note_on_c, 2, 32, 95
9, 73920, Note_off_c, 2, 32, 80
9, 73920, Note_on_c, 2, 47, 63
9, 73920, Note_on_c, 2, 35, 95
9, 74280, Note_off_c, 2, 47, 80
9, 74280, Note_off_c, 2, 35, 80
9, 74280, Note_on_c, 2, 35, 95
9, 74640, Note_off_c, 2, 35, 80
9, 74640, Note_on_c, 2, 49, 63
9, 74640, Note_on_c, 2, 32, 95
9, 74760, Note_off_c, 2, 49, 80
9, 74760, Note_off_c, 2, 32, 80
9, 75240, Note_on_c, 2, 37, 95
9, 75360, Note_off_c, 2, 37, 80
9, 75360, Note_on_c, 2, 32, 63
9, 75600, Note_off_c, 2, 32, 80
9, 75600, Note_on_c, 2, 32, 95
9, 75840, Note_off_c, 2, 32, 80
9, 75840, Note_on_c, 2, 35, 95
9, 76080, Note_off_c, 2, 35, 80
9, 76080, Note_on_c, 2, 37, 95
9, 76320, Note_off_c, 2, 37, 80
9, 76320, Note_on_c, 2, 35, 95
9, 76560, Note_off_c, 2, 35, 80
9, 76560, Note_on_c, 2, 33, 95
9, 77520, Note_off_c, 2, 33, 80
9, 77520, Note_on_c, 2, 32, 79
9, 77640, Note_off_c, 2, 32, 80
9, 77640, Note_on_c, 2, 32, 95
9, 77760, Note_off_c, 2, 32, 80
9, 77760, Note_on_c, 2, 35, 95
9, 78120, Note_off_c, 2, 35, 80
9, 78120, Note_on_c, 2, 35, 95
9, 78480, Note_off_c, 2, 35, 80
9, 78480, Note_on_c, 2, 32, 95
9, 78600, Note_off_c, 2, 32, 80
9, 79080, Note_on_c, 2, 37, 95
9, 79200, Note_off_c, 2, 37, 80
9, 79200, Note_on_c, 2, 32, 63
9, 79440, Note_off_c, 2, 32, 80
9, 79440, Note_on_c, 2, 32, 95
9, 79680, Note_off_c, 2, 32, 80
9, 79680, Note_on_c, 2, 35, 95
9, 79920, Note_off_c, 2, 35, 80
9, 79920, Note_on_c, 2, 40, 95
9, 80160, Note_off_c, 2, 40, 80
9, 80160, Note_on_c, 2, 35, 95
9, 80400, Note_off_c, 2, 35, 80
9, 80400, Note_on_c, 2, 33, 95
9, 81360, Note_off_c, 2, 33, 80
9, 81360, Note_on_c, 2, 47, 63
9, 81360, Note_on_c, 2, 35, 95
9, 81480, Note_off_c, 2, 47, 80
9, 81480, Note_off_c, 2, 35, 80
9, 81480, Note_on_c, 2, 32, 95
9, 81600, Note_off_c, 2, 32, 80
9, 81600, Note_on_c, 2, 47, 63
9, 81600, Note_on_c, 2, 35, 95
9, 81960, Note_off_c, 2, 47, 80
9, 81960, Note_off_c, 2, 35, 80
9, 81960, Note_on_c, 2, 35, 95
9, 82320, Note_off_c, 2, 35, 80
9, 82320, Note_on_c, 2, 49, 63
9, 82320, Note_on_c, 2, 32, 95
9, 82440, Note_off_c, 2, 49, 80
9, 82440, Note_off_c, 2, 32, 80
9, 82920, Note_on_c, 2, 32, 95
9, 83040, Note_off_c, 2, 32, 80
9, 83040, Note_on_c, 2, 39, 63
9, 83280, Note_off_c, 2, 39, 80
9, 83280, Note_on_c, 2, 39, 95
9, 83520, Note_off_c, 2, 39, 80
9, 83520, Note_on_c, 2, 42, 95
9, 83760, Note_off_c, 2, 42, 80
9, 83760, Note_on_c, 2, 44, 95
9, 84000, Note_off_c, 2, 44, 80
9, 84000, Note_on_c, 2, 42, 95
9, 84240, Note_off_c, 2, 42, 80
9, 84240, Note_on_c, 2, 40, 95
9, 85200, Note_off_c, 2, 40, 80
9, 85200, Note_on_c, 2, 39, 95
9, 85320, Note_off_c, 2, 39, 80
9, 85320, Note_on_c, 2, 39, 95
9, 85440, Note_off_c, 2, 39, 80
9, 85440, Note_on_c, 2, 42, 95
9, 85800, Note_off_c, 2, 42, 80
9, 85800, Note_on_c, 2, 42, 95
9, 86160, Note_off_c, 2, 42, 80
9, 86160, Note_on_c, 2, 39, 95
9, 86280, Note_off_c, 2, 39, 80
9, 86760, Note_on_c, 2, 44, 95
9, 86880, Note_off_c, 2, 44, 80
9, 86880, Note_on_c, 2, 39, 63
9, 87120, Note_off_c, 2, 39, 80
9, 87120, Note_on_c, 2, 39, 95
9, 87360, Note_off_c, 2, 39, 80
9, 87360, Note_on_c, 2, 42, 95
9, 87600, Note_off_c, 2, 42, 80
9, 87600, Note_on_c, 2, 47, 95
9, 87840, Note_off_c, 2, 47, 80
9, 87840, Note_on_c, 2, 42, 95
9, 88080, Note_off_c, 2, 42, 80
9, 88080, Note_on_c, 2, 40, 95
9, 89040, Note_off_c, 2, 40, 80
9, 89040, Note_on_c, 2, 42, 95
9, 89160, Note_off_c, 2, 42, 80
9, 89160, Note_on_c, 2, 39, 95
9, 89280, Note_off_c, 2, 39, 80
9, 89280, Note_on_c, 2, 42, 95
9, 89640, Note_off_c, 2, 42, 80
9, 89640, Note_on_c, 2, 42, 95
9, 90000, Note_off_c, 2, 42, 80
9, 90000, Note_on_c, 2, 39, 95
9, 90120, Note_off_c, 2, 39, 80
9, 90600, Note_on_c, 2, 44, 95
9, 90720, Note_off_c, 2, 44, 80
9, 90720, Note_on_c, 2, 39, 63
9, 90960, Note_off_c, 2, 39, 80
9, 90960, Note_on_c, 2, 39, 95
9, 91200, Note_off_c, 2, 39, 80
9, 91200, Note_on_c, 2, 42, 95
9, 91440, Note_off_c, 2, 42, 80
9, 91440, Note_on_c, 2, 44, 95
9, 91680, Note_off_c, 2, 44, 80
9, 91680, Note_on_c, 2, 42, 95
9, 91920, Note_off_c, 2, 42, 80
9, 91920, Note_on_c, 2, 40, 95
9, 92880, Note_off_c, 2, 40, 80
9, 92880, Note_on_c, 2, 39, 79
9, 93000, Note_off_c, 2, 39, 80
9, 93000, Note_on_c, 2, 39, 95
9, 93120, Note_off_c, 2, 39, 80
9, 93120, Note_on_c, 2, 42, 95
9, 93480, Note_off_c, 2, 42, 80
9, 93480, Note_on_c, 2, 42, 95
9, 93840, Note_off_c, 2, 42, 80
9, 93840, Note_on_c, 2, 39, 95
9, 93960, Note_off_c, 2, 39, 80
9, 94440, Note_on_c, 2, 44, 95
9, 94560, Note_off_c, 2, 44, 80
9, 94560, Note_on_c, 2, 39, 63
9, 94800, Note_off_c, 2, 39, 80
9, 94800, Note_on_c, 2, 39, 95
9, 95040, Note_off_c, 2, 39, 80
9, 95040, Note_on_c, 2, 42, 95
9, 95280, Note_off_c, 2, 42, 80
9, 95280, Note_on_c, 2, 47, 95
9, 95520, Note_off_c, 2, 47, 80
9, 95520, Note_on_c, 2, 42, 95
9, 95760, Note_off_c, 2, 42, 80
9, 95760, Note_on_c, 2, 40, 95
9, 96720, Note_off_c, 2, 40, 80
9, 96720, Note_on_c, 2, 42, 95
9, 96840, Note_off_c, 2, 42, 80
9, 96840, Note_on_c, 2, 39, 95
9, 96960, Note_off_c, 2, 39, 80
9, 96960, Note_on_c, 2, 42, 95
9, 97320, Note_off_c, 2, 42, 80
9, 97320, Note_on_c, 2, 42, 95
9, 97680, Note_off_c, 2, 42, 80
9, 97680, Note_on_c, 2, 33, 95
9, 97920, Note_off_c, 2, 33, 80
9, 97920, Note_on_c, 2, 33, 95
9, 98160, Note_off_c, 2, 33, 80
9, 98160, Note_on_c, 2, 33, 95
9, 98400, Note_off_c, 2, 33, 80
9, 98400, Note_on_c, 2, 33, 95
9, 98640, Note_off_c, 2, 33, 80
9, 98640, Note_on_c, 2, 35, 95
9, 99600, Note_off_c, 2, 35, 80
9, 99600, Note_on_c, 2, 37, 95
9, 100560, Note_off_c, 2, 37, 80
9, 100560, Note_on_c, 2, 35, 95
9, 100800, Note_off_c, 2, 35, 80
9, 101040, Note_on_c, 2, 32, 95
9, 101280, Note_off_c, 2, 32, 80
9, 101520, Note_on_c, 2, 33, 95
9, 102480, Note_off_c, 2, 33, 80
9, 102480, Note_on_c, 2, 35, 95
9, 103440, Note_off_c, 2, 35, 80
9, 103440, Note_on_c, 2, 37, 95
9, 103920, Note_off_c, 2, 37, 80
9, 103920, Note_on_c, 2, 32, 95
9, 104160, Note_off_c, 2, 32, 80
9, 104160, Note_on_c, 2, 37, 95
9, 104400, Note_off_c, 2, 37, 80
9, 104400, Note_on_c, 2, 40, 95
9, 104640, Note_off_c, 2, 40, 80
9, 104640, Note_on_c, 2, 39, 95
9, 104880, Note_off_c, 2, 39, 80
9, 104880, Note_on_c, 2, 35, 95
9, 105120, Note_off_c, 2, 35, 80
9, 105120, Note_on_c, 2, 28, 95
9, 105360, Note_off_c, 2, 28, 80
9, 105360, Note_on_c, 2, 33, 95
9, 105600, Note_off_c, 2, 33, 80
9, 105600, Note_on_c, 2, 33, 95
9, 105840, Note_off_c, 2, 33, 80
9, 105840, Note_on_c, 2, 33, 95
9, 106080, Note_off_c, 2, 33, 80
9, 106080, Note_on_c, 2, 33, 95
9, 106320, Note_off_c, 2, 33, 80
9, 106320, Note_on_c, 2, 35, 95
9, 106560, Note_off_c, 2, 35, 80
9, 106560, Note_on_c, 2, 35, 95
9, 106800, Note_off_c, 2, 35, 80
9, 106800, Note_on_c, 2, 35, 95
9, 107040, Note_off_c, 2, 35, 80
9, 107040, Note_on_c, 2, 35, 95
9, 107280, Note_off_c, 2, 35, 80
9, 107280, Note_on_c, 2, 32, 95
9, 107760, Note_off_c, 2, 32, 80
9, 107760, Note_on_c, 2, 32, 95
9, 108000, Note_off_c, 2, 32, 80
9, 108000, Note_on_c, 2, 30, 95
9, 108240, Note_off_c, 2, 30, 80
9, 108240, Note_on_c, 2, 33, 95
9, 108720, Note_off_c, 2, 33, 80
9, 108720, Note_on_c, 2, 33, 95
9, 108960, Note_off_c, 2, 33, 80
9, 108960, Note_on_c, 2, 32, 95
9, 109200, Note_off_c, 2, 32, 80
9, 109200, Note_on_c, 2, 30, 95
9, 109440, Note_off_c, 2, 30, 80
9, 109440, Note_on_c, 2, 30, 95
9, 109680, Note_off_c, 2, 30, 80
9, 109680, Note_on_c, 2, 30, 95
9, 109920, Note_off_c, 2, 30, 80
9, 109920, Note_on_c, 2, 30, 95
9, 110160, Note_off_c, 2, 30, 80
9, 110160, Note_on_c, 2, 30, 95
9, 110400, Note_off_c, 2, 30, 80
9, 110400, Note_on_c, 2, 30, 95
9, 110640, Note_off_c, 2, 30, 80
9, 110640, Note_on_c, 2, 30, 95
9, 110880, Note_off_c, 2, 30, 80
9, 110880, Note_on_c, 2, 32, 95
9, 111120, Note_off_c, 2, 32, 80
9, 111120, Note_on_c, 2, 33, 95
9, 111840, Note_off_c, 2, 33, 80
9, 111840, Note_on_c, 2, 37, 95
9, 112080, Note_off_c, 2, 37, 80
9, 112080, Note_on_c, 2, 35, 95
9, 112560, Note_off_c, 2, 35, 80
9, 112560, Note_on_c, 2, 32, 95
9, 112800, Note_off_c, 2, 32, 80
9, 112800, Note_on_c, 2, 35, 95
9, 113040, Note_off_c, 2, 35, 80
9, 113040, Note_on_c, 2, 37, 95
9, 113640, Note_off_c, 2, 37, 80
9, 113640, Note_on_c, 2, 37, 95
9, 113760, Note_off_c, 2, 37, 80
9, 113760, Note_on_c, 2, 32, 63
9, 114000, Note_off_c, 2, 32, 80
9, 114000, Note_on_c, 2, 32, 95
9, 114240, Note_off_c, 2, 32, 80
9, 114240, Note_on_c, 2, 35, 95
9, 114480, Note_off_c, 2, 35, 80
9, 114480, Note_on_c, 2, 37, 95
9, 114720, Note_off_c, 2, 37, 80
9, 114720, Note_on_c, 2, 35, 95
9, 114960, Note_off_c, 2, 35, 80
9, 114960, Note_on_c, 2, 33, 95
9, 115920, Note_off_c, 2, 33, 80
9, 115920, Note_on_c, 2, 32, 79
9, 116040, Note_off_c, 2, 32, 80
9, 116040, Note_on_c, 2, 32, 95
9, 116160, Note_off_c, 2, 32, 80
9, 116160, Note_on_c, 2, 35, 95
9, 116520, Note_off_c, 2, 35, 80
9, 116520, Note_on_c, 2, 35, 95
9, 116880, Note_off_c, 2, 35, 80
9, 116880, Note_on_c, 2, 32, 95
9, 117000, Note_off_c, 2, 32, 80
9, 117480, Note_on_c, 2, 37, 95
9, 117600, Note_off_c, 2, 37, 80
9, 117600, Note_on_c, 2, 32, 63
9, 117840, Note_off_c, 2, 32, 80
9, 117840, Note_on_c, 2, 32, 95
9, 118080, Note_off_c, 2, 32, 80
9, 118080, Note_on_c, 2, 35, 95
9, 118320, Note_off_c, 2, 35, 80
9, 118320, Note_on_c, 2, 40, 95
9, 118560, Note_off_c, 2, 40, 80
9, 118560, Note_on_c, 2, 35, 95
9, 118800, Note_off_c, 2, 35, 80
9, 118800, Note_on_c, 2, 33, 95
9, 119760, Note_off_c, 2, 33, 80
9, 119760, Note_on_c, 2, 47, 63
9, 119760, Note_on_c, 2, 35, 95
9, 119880, Note_off_c, 2, 47, 80
9, 119880, Note_off_c, 2, 35, 80
9, 119880, Note_on_c, 2, 32, 95
9, 120000, Note_off_c, 2, 32, 80
9, 120000, Note_on_c, 2, 47, 63
9, 120000, Note_on_c, 2, 35, 95
9, 120360, Note_off_c, 2, 47, 80
9, 120360, Note_off_c, 2, 35, 80
9, 120360, Note_on_c, 2, 35, 95
9, 120720, Note_off_c, 2, 35, 80
9, 120720, Note_on_c, 2, 49, 63
9, 120720, Note_on_c, 2, 32, 95
9, 120840, Note_off_c, 2, 49, 80
9, 120840, Note_off_c, 2, 32, 80
9, 121320, Note_on_c, 2, 37, 95
9, 121440, Note_off_c, 2, 37, 80
9, 121440, Note_on_c, 2, 32, 63
9, 121680, Note_off_c, 2, 32, 80
9, 121680, Note_on_c, 2, 32, 95
9, 121920, Note_off_c, 2, 32, 80
9, 121920, Note_on_c, 2, 35, 95
9, 122160, Note_off_c, 2, 35, 80
9, 122160, Note_on_c, 2, 37, 95
9, 122400, Note_off_c, 2, 37, 80
9, 122400, Note_on_c, 2, 35, 95
9, 122640, Note_off_c, 2, 35, 80
9, 122640, Note_on_c, 2, 33, 95
9, 123600, Note_off_c, 2, 33, 80
9, 123600, Note_on_c, 2, 32, 79
9, 123720, Note_off_c, 2, 32, 80
9, 123720, Note_on_c, 2, 32, 95
9, 123840, Note_off_c, 2, 32, 80
9, 123840, Note_on_c, 2, 35, 95
9, 124200, Note_off_c, 2, 35, 80
9, 124200, Note_on_c, 2, 35, 95
9, 124560, Note_off_c, 2, 35, 80
9, 124560, Note_on_c, 2, 32, 95
9, 124680, Note_off_c, 2, 32, 80
9, 125160, Note_on_c, 2, 37, 95
9, 125280, Note_off_c, 2, 37, 80
9, 125280, Note_on_c, 2, 32, 63
9, 125520, Note_off_c, 2, 32, 80
9, 125520, Note_on_c, 2, 32, 95
9, 125760, Note_off_c, 2, 32, 80
9, 125760, Note_on_c, 2, 35, 95
9, 126000, Note_off_c, 2, 35, 80
9, 126000, Note_on_c, 2, 40, 95
9, 126240, Note_off_c, 2, 40, 80
9, 126240, Note_on_c, 2, 35, 95
9, 126480, Note_off_c, 2, 35, 80
9, 126480, Note_on_c, 2, 33, 95
9, 127440, Note_off_c, 2, 33, 80
9, 127440, Note_on_c, 2, 47, 63
9, 127440, Note_on_c, 2, 35, 95
9, 127560, Note_off_c, 2, 47, 80
9, 127560, Note_off_c, 2, 35, 80
9, 127560, Note_on_c, 2, 32, 95
9, 127680, Note_off_c, 2, 32, 80
9, 127680, Note_on_c, 2, 47, 63
9, 127680, Note_on_c, 2, 35, 95
9, 128040, Note_off_c, 2, 47, 80
9, 128040, Note_off_c, 2, 35, 80
9, 128040, Note_on_c, 2, 35, 95
9, 128400, Note_off_c, 2, 35, 80
9, 128400, Note_on_c, 2, 49, 63
9, 128400, Note_on_c, 2, 32, 95
9, 128520, Note_off_c, 2, 49, 80
9, 128520, Note_off_c, 2, 32, 80
9, 129000, Note_on_c, 2, 37, 95
9, 129120, Note_off_c, 2, 37, 80
9, 129120, Note_on_c, 2, 32, 63
9, 129360, Note_off_c, 2, 32, 80
9, 129360, Note_on_c, 2, 32, 95
9, 129600, Note_off_c, 2, 32, 80
9, 129600, Note_on_c, 2, 35, 95
9, 129840, Note_off_c, 2, 35, 80
9, 129840, Note_on_c, 2, 37, 95
9, 130080, Note_off_c, 2, 37, 80
9, 130080, Note_on_c, 2, 35, 95
9, 130320, Note_off_c, 2, 35, 80
9, 130320, Note_on_c, 2, 33, 95
9, 131280, Note_off_c, 2, 33, 80
9, 131280, Note_on_c, 2, 32, 79
9, 131400, Note_off_c, 2, 32, 80
9, 131400, Note_on_c, 2, 32, 95
9, 131520, Note_off_c, 2, 32, 80
9, 131520, Note_on_c, 2, 35, 95
9, 131880, Note_off_c, 2, 35, 80
9, 131880, Note_on_c, 2, 35, 95
9, 132240, Note_off_c, 2, 35, 80
9, 132240, Note_on_c, 2, 32, 95
9, 132360, Note_off_c, 2, 32, 80
9, 132840, Note_on_c, 2, 37, 95
9, 132960, Note_off_c, 2, 37, 80
9, 132960, Note_on_c, 2, 32, 63
9, 133200, Note_off_c, 2, 32, 80
9, 133200, Note_on_c, 2, 32, 95
9, 133440, Note_off_c, 2, 32, 80
9, 133440, Note_on_c, 2, 35, 95
9, 133680, Note_off_c, 2, 35, 80
9, 133680, Note_on_c, 2, 40, 95
9, 133920, Note_off_c, 2, 40, 80
9, 133920, Note_on_c, 2, 35, 95
9, 134160, Note_off_c, 2, 35, 80
9, 134160, Note_on_c, 2, 33, 95
9, 135120, Note_off_c, 2, 33, 80
9, 135120, Note_on_c, 2, 47, 63
9, 135120, Note_on_c, 2, 35, 95
9, 135240, Note_off_c, 2, 47, 80
9, 135240, Note_off_c, 2, 35, 80
9, 135240, Note_on_c, 2, 32, 95
9, 135360, Note_off_c, 2, 32, 80
9, 135360, Note_on_c, 2, 47, 63
9, 135360, Note_on_c, 2, 35, 95
9, 135720, Note_off_c, 2, 47, 80
9, 135720, Note_off_c, 2, 35, 80
9, 135720, Note_on_c, 2, 35, 95
9, 136080, Note_off_c, 2, 35, 80
9, 136080, Note_on_c, 2, 49, 63
9, 136080, Note_on_c, 2, 32, 95
9, 136200, Note_off_c, 2, 49, 80
9, 136200, Note_off_c, 2, 32, 80
9, 136680, Note_on_c, 2, 37, 95
9, 136800, Note_off_c, 2, 37, 80
9, 136800, Note_on_c, 2, 32, 63
9, 137040, Note_off_c, 2, 32, 80
9, 137040, Note_on_c, 2, 32, 95
9, 137280, Note_off_c, 2, 32, 80
9, 137280, Note_on_c, 2, 35, 95
9, 137520, Note_off_c, 2, 35, 80
9, 137520, Note_on_c, 2, 37, 95
9, 137760, Note_off_c, 2, 37, 80
9, 137760, Note_on_c, 2, 35, 95
9, 138000, Note_off_c, 2, 35, 80
9, 138000, Note_on_c, 2, 33, 95
9, 138960, Note_off_c, 2, 33, 80
9, 138960, Note_on_c, 2, 32, 79
9, 139080, Note_off_c, 2, 32, 80
9, 139080, Note_on_c, 2, 32, 95
9, 139200, Note_off_c, 2, 32, 80
9, 139200, Note_on_c, 2, 35, 95
9, 139560, Note_off_c, 2, 35, 80
9, 139560, Note_on_c, 2, 35, 95
9, 139920, Note_off_c, 2, 35, 80
9, 139920, Note_on_c, 2, 32, 95
9, 140040, Note_off_c, 2, 32, 80
9, 140520, Note_on_c, 2, 37, 95
9, 140640, Note_off_c, 2, 37, 80
9, 140640, Note_on_c, 2, 32, 63
9, 140880, Note_off_c, 2, 32, 80
9, 140880, Note_on_c, 2, 32, 95
9, 141120, Note_off_c, 2, 32, 80
9, 141120, Note_on_c, 2, 35, 95
9, 141360, Note_off_c, 2, 35, 80
9, 141360, Note_on_c, 2, 40, 95
9, 141600, Note_off_c, 2, 40, 80
9, 141600, Note_on_c, 2, 35, 95
9, 141840, Note_off_c, 2, 35, 80
9, 141840, Note_on_c, 2, 33, 95
9, 142800, Note_off_c, 2, 33, 80
9, 142800, Note_on_c, 2, 47, 63
9, 142800, Note_on_c, 2, 35, 95
9, 142920, Note_off_c, 2, 47, 80
9, 142920, Note_off_c, 2, 35, 80
9, 142920, Note_on_c, 2, 32, 95
9, 143040, Note_off_c, 2, 32, 80
9, 143040, Note_on_c, 2, 47, 63
9, 143040, Note_on_c, 2, 35, 95
9, 143400, Note_off_c, 2, 47, 80
9, 143400, Note_off_c, 2, 35, 80
9, 143400, Note_on_c, 2, 35, 95
9, 143760, Note_off_c, 2, 35, 80
9, 143760, Note_on_c, 2, 49, 63
9, 143760, Note_on_c, 2, 32, 95
9, 143880, Note_off_c, 2, 49, 80
9, 143880, Note_off_c, 2, 32, 80
9, 144360, Note_on_c, 2, 32, 95
9, 144480, Note_off_c, 2, 32, 80
9, 144480, Note_on_c, 2, 39, 63
9, 144720, Note_off_c, 2, 39, 80
9, 144720, Note_on_c, 2, 39, 95
9, 144960, Note_off_c, 2, 39, 80
9, 144960, Note_on_c, 2, 42, 95
9, 145200, Note_off_c, 2, 42, 80
9, 145200, Note_on_c, 2, 44, 95
9, 145440, Note_off_c, 2, 44, 80
9, 145440, Note_on_c, 2, 42, 95
9, 145680, Note_off_c, 2, 42, 80
9, 145680, Note_on_c, 2, 40, 95
9, 146640, Note_off_c, 2, 40, 80
9, 146640, Note_on_c, 2, 39, 95
9, 146760, Note_off_c, 2, 39, 80
9, 146760, Note_on_c, 2, 39, 95
9, 146880, Note_off_c, 2, 39, 80
9, 146880, Note_on_c, 2, 42, 95
9, 147240, Note_off_c, 2, 42, 80
9, 147240, Note_on_c, 2, 42, 95
9, 147600, Note_off_c, 2, 42, 80
9, 147600, Note_on_c, 2, 39, 95
9, 147720, Note_off_c, 2, 39, 80
9, 148200, Note_on_c, 2, 44, 95
9, 148320, Note_off_c, 2, 44, 80
9, 148320, Note_on_c, 2, 39, 63
9, 148560, Note_off_c, 2, 39, 80
9, 148560, Note_on_c, 2, 39, 95
9, 148800, Note_off_c, 2, 39, 80
9, 148800, Note_on_c, 2, 42, 95
9, 149040, Note_off_c, 2, 42, 80
9, 149040, Note_on_c, 2, 47, 95
9, 149280, Note_off_c, 2, 47, 80
9, 149280, Note_on_c, 2, 42, 95
9, 149520, Note_off_c, 2, 42, 80
9, 149520, Note_on_c, 2, 40, 95
9, 150480, Note_off_c, 2, 40, 80
9, 150480, Note_on_c, 2, 42, 95
9, 150600, Note_off_c, 2, 42, 80
9, 150600, Note_on_c, 2, 39, 95
9, 150720, Note_off_c, 2, 39, 80
9, 150720, Note_on_c, 2, 42, 95
9, 151080, Note_off_c, 2, 42, 80
9, 151080, Note_on_c, 2, 42, 95
9, 151440, Note_off_c, 2, 42, 80
9, 151440, Note_on_c, 2, 39, 95
9, 151560, Note_off_c, 2, 39, 80
9, 152040, Note_on_c, 2, 44, 95
9, 152160, Note_off_c, 2, 44, 80
9, 152160, Note_on_c, 2, 39, 63
9, 152400, Note_off_c, 2, 39, 80
9, 152400, Note_on_c, 2, 39, 95
9, 152640, Note_off_c, 2, 39, 80
9, 152640, Note_on_c, 2, 42, 95
9, 152880, Note_off_c, 2, 42, 80
9, 152880, Note_on_c, 2, 44, 95
9, 153120, Note_off_c, 2, 44, 80
9, 153120, Note_on_c, 2, 42, 95
9, 153360, Note_off_c, 2, 42, 80
9, 153360, Note_on_c, 2, 40, 95
9, 154320, Note_off_c, 2, 40, 80
9, 154320, Note_on_c, 2, 39, 79
9, 154440, Note_off_c, 2, 39, 80
9, 154440, Note_on_c, 2, 39, 95
9, 154560, Note_off_c, 2, 39, 80
9, 154560, Note_on_c, 2, 42, 95
9, 154920, Note_off_c, 2, 42, 80
9, 154920, Note_on_c, 2, 42, 95
9, 155280, Note_off_c, 2, 42, 80
9, 155280, Note_on_c, 2, 39, 95
9, 155400, Note_off_c, 2, 39, 80
9, 155880, Note_on_c, 2, 44, 95
9, 156000, Note_off_c, 2, 44, 80
9, 156000, Note_on_c, 2, 39, 63
9, 156240, Note_off_c, 2, 39, 80
9, 156240, Note_on_c, 2, 39, 95
9, 156480, Note_off_c, 2, 39, 80
9, 156480, Note_on_c, 2, 42, 95
9, 156720, Note_off_c, 2, 42, 80
9, 156720, Note_on_c, 2, 47, 95
9, 156960, Note_off_c, 2, 47, 80
9, 156960, Note_on_c, 2, 42, 95
9, 157200, Note_off_c, 2, 42, 80
9, 157200, Note_on_c, 2, 40, 95
9, 158160, Note_off_c, 2, 40, 80
9, 158160, Note_on_c, 2, 42, 95
9, 158280, Note_off_c, 2, 42, 80
9, 158280, Note_on_c, 2, 39, 95
9, 158400, Note_off_c, 2, 39, 80
9, 158400, Note_on_c, 2, 42, 95
9, 158760, Note_off_c, 2, 42, 80
9, 158760, Note_on_c, 2, 42, 95
9, 159120, Note_off_c, 2, 42, 80
9, 159120, Note_on_c, 2, 33, 95
9, 159360, Note_off_c, 2, 33, 80
9, 159360, Note_on_c, 2, 33, 95
9, 159600, Note_off_c, 2, 33, 80
9, 159600, Note_on_c, 2, 33, 95
9, 159840, Note_off_c, 2, 33, 80
9, 159840, Note_on_c, 2, 33, 95
9, 160080, Note_off_c, 2, 33, 80
9, 160080, Note_on_c, 2, 35, 95
9, 161040, Note_off_c, 2, 35, 80
9, 161040, Note_on_c, 2, 37, 95
9, 162000, Note_off_c, 2, 37, 80
9, 162000, Note_on_c, 2, 35, 95
9, 162240, Note_off_c, 2, 35, 80
9, 162480, Note_on_c, 2, 32, 95
9, 162720, Note_off_c, 2, 32, 80
9, 162960, Note_on_c, 2, 33, 95
9, 163920, Note_off_c, 2, 33, 80
9, 163920, Note_on_c, 2, 35, 95
9, 164880, Note_off_c, 2, 35, 80
9, 164880, Note_on_c, 2, 37, 95
9, 165360, Note_off_c, 2, 37, 80
9, 165360, Note_on_c, 2, 32, 95
9, 165600, Note_off_c, 2, 32, 80
9, 165600, Note_on_c, 2, 37, 95
9, 165840, Note_off_c, 2, 37, 80
9, 165840, Note_on_c, 2, 40, 95
9, 166080, Note_off_c, 2, 40, 80
9, 166080, Note_on_c, 2, 39, 95
9, 166320, Note_off_c, 2, 39, 80
9, 166320, Note_on_c, 2, 35, 95
9, 166560, Note_off_c, 2, 35, 80
9, 166560, Note_on_c, 2, 28, 95
9, 166800, Note_off_c, 2, 28, 80
9, 166800, Note_on_c, 2, 33, 95
9, 167040, Note_off_c, 2, 33, 80
9, 167040, Note_on_c, 2, 33, 95
9, 167280, Note_off_c, 2, 33, 80
9, 167280, Note_on_c, 2, 33, 95
9, 167520, Note_off_c, 2, 33, 80
9, 167520, Note_on_c, 2, 33, 95
9, 167760, Note_off_c, 2, 33, 80
9, 167760, Note_on_c, 2, 35, 95
9, 168000, Note_off_c, 2, 35, 80
9, 168000, Note_on_c, 2, 35, 95
9, 168240, Note_off_c, 2, 35, 80
9, 168240, Note_on_c, 2, 35, 95
9, 168480, Note_off_c, 2, 35, 80
9, 168480, Note_on_c, 2, 35, 95
9, 168720, Note_off_c, 2, 35, 80
9, 168720, Note_on_c, 2, 32, 95
9, 169200, Note_off_c, 2, 32, 80
9, 169200, Note_on_c, 2, 32, 95
9, 169440, Note_off_c, 2, 32, 80
9, 169440, Note_on_c, 2, 30, 95
9, 169680, Note_off_c, 2, 30, 80
9, 169680, Note_on_c, 2, 33, 95
9, 170160, Note_off_c, 2, 33, 80
9, 170160, Note_on_c, 2, 33, 95
9, 170400, Note_off_c, 2, 33, 80
9, 170400, Note_on_c, 2, 32, 95
9, 170640, Note_off_c, 2, 32, 80
9, 170640, Note_on_c, 2, 30, 95
9, 170880, Note_off_c, 2, 30, 80
9, 170880, Note_on_c, 2, 30, 95
9, 171120, Note_off_c, 2, 30, 80
9, 171120, Note_on_c, 2, 30, 95
9, 171360, Note_off_c, 2, 30, 80
9, 171360, Note_on_c, 2, 30, 95
9, 171600, Note_off_c, 2, 30, 80
9, 171600, Note_on_c, 2, 30, 95
9, 171840, Note_off_c, 2, 30, 80
9, 171840, Note_on_c, 2, 30, 95
9, 172080, Note_off_c, 2, 30, 80
9, 172080, Note_on_c, 2, 30, 95
9, 172320, Note_off_c, 2, 30, 80
9, 172320, Note_on_c, 2, 32, 95
9, 172560, Note_off_c, 2, 32, 80
9, 172560, Note_on_c, 2, 33, 95
9, 173280, Note_off_c, 2, 33, 80
9, 173280, Note_on_c, 2, 37, 95
9, 173520, Note_off_c, 2, 37, 80
9, 173520, Note_on_c, 2, 35, 95
9, 174000, Note_off_c, 2, 35, 80
9, 174000, Note_on_c, 2, 32, 95
9, 174240, Note_off_c, 2, 32, 80
9, 174240, Note_on_c, 2, 35, 95
9, 174480, Note_off_c, 2, 35, 80
9, 174480, Note_on_c, 2, 37, 95
9, 174720, Note_off_c, 2, 37, 80
9, 175080, Note_on_c, 2, 29, 95
9, 175200, Note_off_c, 2, 29, 80
9, 175200, Note_on_c, 2, 36, 63
9, 175440, Note_off_c, 2, 36, 80
9, 175440, Note_on_c, 2, 36, 95
9, 175680, Note_off_c, 2, 36, 80
9, 175680, Note_on_c, 2, 39, 95
9, 175920, Note_off_c, 2, 39, 80
9, 175920, Note_on_c, 2, 41, 95
9, 176160, Note_off_c, 2, 41, 80
9, 176160, Note_on_c, 2, 39, 95
9, 176400, Note_off_c, 2, 39, 80
9, 176400, Note_on_c, 2, 37, 95
9, 177360, Note_off_c, 2, 37, 80
9, 177360, Note_on_c, 2, 36, 95
9, 177480, Note_off_c, 2, 36, 80
9, 177480, Note_on_c, 2, 36, 95
9, 177600, Note_off_c, 2, 36, 80
9, 177600, Note_on_c, 2, 39, 95
9, 177960, Note_off_c, 2, 39, 80
9, 177960, Note_on_c, 2, 39, 95
9, 178320, Note_off_c, 2, 39, 80
9, 178320, Note_on_c, 2, 36, 95
9, 178440, Note_off_c, 2, 36, 80
9, 178920, Note_on_c, 2, 41, 95
9, 179040, Note_off_c, 2, 41, 80
9, 179040, Note_on_c, 2, 36, 63
9, 179280, Note_off_c, 2, 36, 80
9, 179280, Note_on_c, 2, 36, 95
9, 179520, Note_off_c, 2, 36, 80
9, 179520, Note_on_c, 2, 39, 95
9, 179760, Note_off_c, 2, 39, 80
9, 179760, Note_on_c, 2, 44, 95
9, 180000, Note_off_c, 2, 44, 80
9, 180000, Note_on_c, 2, 39, 95
9, 180240, Note_off_c, 2, 39, 80
9, 180240, Note_on_c, 2, 37, 95
9, 181200, Note_off_c, 2, 37, 80
9, 181200, Note_on_c, 2, 39, 95
9, 181320, Note_off_c, 2, 39, 80
9, 181320, Note_on_c, 2, 36, 95
9, 181440, Note_off_c, 2, 36, 80
9, 181440, Note_on_c, 2, 39, 95
9, 181800, Note_off_c, 2, 39, 80
9, 181800, Note_on_c, 2, 39, 95
9, 182160, Note_off_c, 2, 39, 80
9, 182160, Note_on_c, 2, 36, 95
9, 182280, Note_off_c, 2, 36, 80
9, 182760, Note_on_c, 2, 41, 95
9, 182880, Note_off_c, 2, 41, 80
9, 182880, Note_on_c, 2, 36, 63
9, 183120, Note_off_c, 2, 36, 80
9, 183120, Note_on_c, 2, 36, 95
9, 183360, Note_off_c, 2, 36, 80
9, 183360, Note_on_c, 2, 39, 95
9, 183600, Note_off_c, 2, 39, 80
9, 183600, Note_on_c, 2, 41, 95
9, 183840, Note_off_c, 2, 41, 80
9, 183840, Note_on_c, 2, 39, 95
9, 184080, Note_off_c, 2, 39, 80
9, 184080, Note_on_c, 2, 37, 95
9, 185040, Note_off_c, 2, 37, 80
9, 185040, Note_on_c, 2, 36, 79
9, 185160, Note_off_c, 2, 36, 80
9, 185160, Note_on_c, 2, 36, 95
9, 185280, Note_off_c, 2, 36, 80
9, 185280, Note_on_c, 2, 39, 95
9, 185640, Note_off_c, 2, 39, 80
9, 185640, Note_on_c, 2, 39, 95
9, 186000, Note_off_c, 2, 39, 80
9, 186000, Note_on_c, 2, 36, 95
9, 186120, Note_off_c, 2, 36, 80
9, 186600, Note_on_c, 2, 41, 95
9, 186720, Note_off_c, 2, 41, 80
9, 186720, Note_on_c, 2, 36, 63
9, 186960, Note_off_c, 2, 36, 80
9, 186960, Note_on_c, 2, 36, 95
9, 187200, Note_off_c, 2, 36, 80
9, 187200, Note_on_c, 2, 39, 95
9, 187440, Note_off_c, 2, 39, 80
9, 187440, Note_on_c, 2, 44, 95
9, 187680, Note_off_c, 2, 44, 80
9, 187680, Note_on_c, 2, 39, 95
9, 187920, Note_off_c, 2, 39, 80
9, 187920, Note_on_c, 2, 37, 95
9, 188880, Note_off_c, 2, 37, 80
9, 188880, Note_on_c, 2, 39, 95
9, 189000, Note_off_c, 2, 39, 80
9, 189000, Note_on_c, 2, 36, 95
9, 189120, Note_off_c, 2, 36, 80
9, 189120, Note_on_c, 2, 39, 95
9, 189480, Note_off_c, 2, 39, 80
9, 189480, Note_on_c, 2, 39, 95
9, 189840, Note_off_c, 2, 39, 80
9, 189840, Note_on_c, 2, 30, 95
9, 190080, Note_off_c, 2, 30, 80
9, 190440, Note_on_c, 2, 30, 95
9, 190560, Note_off_c, 2, 30, 80
9, 190560, Note_on_c, 2, 37, 63
9, 190800, Note_off_c, 2, 37, 80
9, 190800, Note_on_c, 2, 37, 95
9, 191040, Note_off_c, 2, 37, 80
9, 191040, Note_on_c, 2, 40, 95
9, 191280, Note_off_c, 2, 40, 80
9, 191280, Note_on_c, 2, 42, 95
9, 191520, Note_off_c, 2, 42, 80
9, 191520, Note_on_c, 2, 40, 95
9, 191760, Note_off_c, 2, 40, 80
9, 191760, Note_on_c, 2, 38, 95
9, 192720, Note_off_c, 2, 38, 80
9, 192720, Note_on_c, 2, 37, 95
9, 192840, Note_off_c, 2, 37, 80
9, 192840, Note_on_c, 2, 37, 95
9, 192960, Note_off_c, 2, 37, 80
9, 192960, Note_on_c, 2, 40, 95
9, 193320, Note_off_c, 2, 40, 80
9, 193320, Note_on_c, 2, 40, 95
9, 193680, Note_off_c, 2, 40, 80
9, 193680, Note_on_c, 2, 37, 95
9, 193800, Note_off_c, 2, 37, 80
9, 194280, Note_on_c, 2, 42, 95
9, 194400, Note_off_c, 2, 42, 80
9, 194400, Note_on_c, 2, 37, 63
9, 194640, Note_off_c, 2, 37, 80
9, 194640, Note_on_c, 2, 37, 95
9, 194880, Note_off_c, 2, 37, 80
9, 194880, Note_on_c, 2, 40, 95
9, 195120, Note_off_c, 2, 40, 80
9, 195120, Note_on_c, 2, 45, 95
9, 195360, Note_off_c, 2, 45, 80
9, 195360, Note_on_c, 2, 40, 95
9, 195600, Note_off_c, 2, 40, 80
9, 195600, Note_on_c, 2, 38, 95
9, 196560, Note_off_c, 2, 38, 80
9, 196560, Note_on_c, 2, 40, 95
9, 196680, Note_off_c, 2, 40, 80
9, 196680, Note_on_c, 2, 37, 95
9, 196800, Note_off_c, 2, 37, 80
9, 196800, Note_on_c, 2, 40, 95
9, 197160, Note_off_c, 2, 40, 80
9, 197160, Note_on_c, 2, 40, 95
9, 197520, Note_off_c, 2, 40, 80
9, 197520, Note_on_c, 2, 37, 95
9, 197640, Note_off_c, 2, 37, 80
9, 198120, Note_on_c, 2, 42, 95
9, 198240, Note_off_c, 2, 42, 80
9, 198240, Note_on_c, 2, 37, 63
9, 198480, Note_off_c, 2, 37, 80
9, 198480, Note_on_c, 2, 37, 95
9, 198720, Note_off_c, 2, 37, 80
9, 198720, Note_on_c, 2, 40, 95
9, 198960, Note_off_c, 2, 40, 80
9, 198960, Note_on_c, 2, 42, 95
9, 199200, Note_off_c, 2, 42, 80
9, 199200, Note_on_c, 2, 40, 95
9, 199440, Note_off_c, 2, 40, 80
9, 199440, Note_on_c, 2, 38, 95
9, 200400, Note_off_c, 2, 38, 80
9, 200400, Note_on_c, 2, 37, 79
9, 200520, Note_off_c, 2, 37, 80
9, 200520, Note_on_c, 2, 37, 95
9, 200640, Note_off_c, 2, 37, 80
9, 200640, Note_on_c, 2, 40, 95
9, 201000, Note_off_c, 2, 40, 80
9, 201000, Note_on_c, 2, 40, 95
9, 201360, Note_off_c, 2, 40, 80
9, 201360, Note_on_c, 2, 37, 95
9, 201480, Note_off_c, 2, 37, 80
9, 201960, Note_on_c, 2, 42, 95
9, 202080, Note_off_c, 2, 42, 80
9, 202080, Note_on_c, 2, 37, 63
9, 202320, Note_off_c, 2, 37, 80
9, 202320, Note_on_c, 2, 37, 95
9, 202560, Note_off_c, 2, 37, 80
9, 202560, Note_on_c, 2, 40, 95
9, 202800, Note_off_c, 2, 40, 80
9, 202800, Note_on_c, 2, 45, 95
9, 203040, Note_off_c, 2, 45, 80
9, 203040, Note_on_c, 2, 40, 95
9, 203280, Note_off_c, 2, 40, 80
9, 203280, Note_on_c, 2, 38, 95
9, 204240, Note_off_c, 2, 38, 80
9, 204240, Note_on_c, 2, 40, 95
9, 204360, Note_off_c, 2, 40, 80
9, 204360, Note_on_c, 2, 37, 95
9, 204480, Note_off_c, 2, 37, 80
9, 204480, Note_on_c, 2, 40, 95
9, 204840, Note_off_c, 2, 40, 80
9, 204840, Note_on_c, 2, 40, 95
9, 205200, Note_off_c, 2, 40, 80
9, 205200, Note_on_c, 2, 38, 95
9, 205440, Note_off_c, 2, 38, 80
9, 205800, Note_on_c, 2, 29, 95
9, 205920, Note_off_c, 2, 29, 80
9, 205920, Note_on_c, 2, 36, 63
9, 206160, Note_off_c, 2, 36, 80
9, 206160, Note_on_c, 2, 36, 95
9, 206400, Note_off_c, 2, 36, 80
9, 206400, Note_on_c, 2, 39, 95
9, 206640, Note_off_c, 2, 39, 80
9, 206640, Note_on_c, 2, 41, 95
9, 206880, Note_off_c, 2, 41, 80
9, 206880, Note_on_c, 2, 39, 95
9, 207120, Note_off_c, 2, 39, 80
9, 207120, Note_on_c, 2, 37, 95
9, 208080, Note_off_c, 2, 37, 80
9, 208080, Note_on_c, 2, 36, 95
9, 208200, Note_off_c, 2, 36, 80
9, 208200, Note_on_c, 2, 36, 95
9, 208320, Note_off_c, 2, 36, 80
9, 208320, Note_on_c, 2, 39, 95
9, 208680, Note_off_c, 2, 39, 80
9, 208680, Note_on_c, 2, 39, 95
9, 209040, Note_off_c, 2, 39, 80
9, 209040, Note_on_c, 2, 36, 95
9, 209160, Note_off_c, 2, 36, 80
9, 209640, Note_on_c, 2, 41, 95
9, 209760, Note_off_c, 2, 41, 80
9, 209760, Note_on_c, 2, 36, 63
9, 210000, Note_off_c, 2, 36, 80
9, 210000, Note_on_c, 2, 36, 95
9, 210240, Note_off_c, 2, 36, 80
9, 210240, Note_on_c, 2, 39, 95
9, 210480, Note_off_c, 2, 39, 80
9, 210480, Note_on_c, 2, 44, 95
9, 210720, Note_off_c, 2, 44, 80
9, 210720, Note_on_c, 2, 39, 95
9, 210960, Note_off_c, 2, 39, 80
9, 210960, Note_on_c, 2, 37, 95
9, 211920, Note_off_c, 2, 37, 80
9, 211920, Note_on_c, 2, 39, 95
9, 212040, Note_off_c, 2, 39, 80
9, 212040, Note_on_c, 2, 36, 95
9, 212160, Note_off_c, 2, 36, 80
9, 212160, Note_on_c, 2, 39, 95
9, 212520, Note_off_c, 2, 39, 80
9, 212520, Note_on_c, 2, 39, 95
9, 212880, Note_off_c, 2, 39, 80
9, 212880, Note_on_c, 2, 36, 95
9, 213000, Note_off_c, 2, 36, 80
9, 213480, Note_on_c, 2, 32, 95
9, 213600, Note_off_c, 2, 32, 80
9, 213600, Note_on_c, 2, 39, 63
9, 213840, Note_off_c, 2, 39, 80
9, 213840, Note_on_c, 2, 39, 95
9, 214080, Note_off_c, 2, 39, 80
9, 214080, Note_on_c, 2, 42, 95
9, 214320, Note_off_c, 2, 42, 80
9, 214320, Note_on_c, 2, 44, 95
9, 214560, Note_off_c, 2, 44, 80
9, 214560, Note_on_c, 2, 42, 95
9, 214800, Note_off_c, 2, 42, 80
9, 214800, Note_on_c, 2, 40, 95
9, 215760, Note_off_c, 2, 40, 80
9, 215760, Note_on_c, 2, 39, 95
9, 215880, Note_off_c, 2, 39, 80
9, 215880, Note_on_c, 2, 39, 95
9, 216000, Note_off_c, 2, 39, 80
9, 216000, Note_on_c, 2, 42, 95
9, 216360, Note_off_c, 2, 42, 80
9, 216360, Note_on_c, 2, 42, 95
9, 216720, Note_off_c, 2, 42, 80
9, 216720, Note_on_c, 2, 39, 95
9, 216840, Note_off_c, 2, 39, 80
9, 217320, Note_on_c, 2, 44, 95
9, 217440, Note_off_c, 2, 44, 80
9, 217440, Note_on_c, 2, 39, 63
9, 217680, Note_off_c, 2, 39, 80
9, 217680, Note_on_c, 2, 39, 95
9, 217920, Note_off_c, 2, 39, 80
9, 217920, Note_on_c, 2, 42, 95
9, 218160, Note_off_c, 2, 42, 80
9, 218160, Note_on_c, 2, 47, 95
9, 218400, Note_off_c, 2, 47, 80
9, 218400, Note_on_c, 2, 42, 95
9, 218640, Note_off_c, 2, 42, 80
9, 218640, Note_on_c, 2, 40, 95
9, 219600, Note_off_c, 2, 40, 80
9, 219600, Note_on_c, 2, 42, 95
9, 219720, Note_off_c, 2, 42, 80
9, 219720, Note_on_c, 2, 39, 95
9, 219840, Note_off_c, 2, 39, 80
9, 219840, Note_on_c, 2, 42, 95
9, 220200, Note_off_c, 2, 42, 80
9, 220200, Note_on_c, 2, 42, 95
9, 220560, Note_off_c, 2, 42, 80
9, 220560, Note_on_c, 2, 33, 95
9, 220800, Note_off_c, 2, 33, 80
9, 220800, Note_on_c, 2, 33, 95
9, 221040, Note_off_c, 2, 33, 80
9, 221040, Note_on_c, 2, 33, 95
9, 221280, Note_off_c, 2, 33, 80
9, 221280, Note_on_c, 2, 33, 95
9, 221520, Note_off_c, 2, 33, 80
9, 221520, Note_on_c, 2, 35, 95
9, 222480, Note_off_c, 2, 35, 80
9, 222480, Note_on_c, 2, 37, 95
9, 223440, Note_off_c, 2, 37, 80
9, 223440, Note_on_c, 2, 35, 95
9, 223680, Note_off_c, 2, 35, 80
9, 223920, Note_on_c, 2, 32, 95
9, 224160, Note_off_c, 2, 32, 80
9, 224400, Note_on_c, 2, 33, 95
9, 225360, Note_off_c, 2, 33, 80
9, 225360, Note_on_c, 2, 35, 95
9, 226320, Note_off_c, 2, 35, 80
9, 226320, Note_on_c, 2, 37, 95
9, 226800, Note_off_c, 2, 37, 80
9, 226800, Note_on_c, 2, 32, 95
9, 227040, Note_off_c, 2, 32, 80
9, 227040, Note_on_c, 2, 37, 95
9, 227280, Note_off_c, 2, 37, 80
9, 227280, Note_on_c, 2, 40, 95
9, 227520, Note_off_c, 2, 40, 80
9, 227520, Note_on_c, 2, 39, 95
9, 227760, Note_off_c, 2, 39, 80
9, 227760, Note_on_c, 2, 35, 95
9, 228000, Note_off_c, 2, 35, 80
9, 228000, Note_on_c, 2, 28, 95
9, 228240, Note_off_c, 2, 28, 80
9, 228240, Note_on_c, 2, 33, 95
9, 228480, Note_off_c, 2, 33, 80
9, 228480, Note_on_c, 2, 33, 95
9, 228720, Note_off_c, 2, 33, 80
9, 228720, Note_on_c, 2, 33, 95
9, 228960, Note_off_c, 2, 33, 80
9, 228960, Note_on_c, 2, 33, 95
9, 229200, Note_off_c, 2, 33, 80
9, 229200, Note_on_c, 2, 35, 95
9, 229440, Note_off_c, 2, 35, 80
9, 229440, Note_on_c, 2, 35, 95
9, 229680, Note_off_c, 2, 35, 80
9, 229680, Note_on_c, 2, 35, 95
9, 229920, Note_off_c, 2, 35, 80
9, 229920, Note_on_c, 2, 35, 95
9, 230160, Note_off_c, 2, 35, 80
9, 230160, Note_on_c, 2, 32, 95
9, 230640, Note_off_c, 2, 32, 80
9, 230640, Note_on_c, 2, 32, 95
9, 230880, Note_off_c, 2, 32, 80
9, 230880, Note_on_c, 2, 30, 95
9, 231120, Note_off_c, 2, 30, 80
9, 231120, Note_on_c, 2, 33, 95
9, 231600, Note_off_c, 2, 33, 80
9, 231600, Note_on_c, 2, 33, 95
9, 231840, Note_off_c, 2, 33, 80
9, 231840, Note_on_c, 2, 32, 95
9, 232080, Note_off_c, 2, 32, 80
9, 232080, Note_on_c, 2, 30, 95
9, 232320, Note_off_c, 2, 30, 80
9, 232320, Note_on_c, 2, 30, 95
9, 232560, Note_off_c, 2, 30, 80
9, 232560, Note_on_c, 2, 30, 95
9, 232800, Note_off_c, 2, 30, 80
9, 232800, Note_on_c, 2, 30, 95
9, 233040, Note_off_c, 2, 30, 80
9, 233040, Note_on_c, 2, 30, 95
9, 233280, Note_off_c, 2, 30, 80
9, 233280, Note_on_c, 2, 30, 95
9, 233520, Note_off_c, 2, 30, 80
9, 233520, Note_on_c, 2, 30, 95
9, 233760, Note_off_c, 2, 30, 80
9, 233760, Note_on_c, 2, 32, 95
9, 234000, Note_off_c, 2, 32, 80
9, 234000, Note_on_c, 2, 33, 95
9, 234720, Note_off_c, 2, 33, 80
9, 234720, Note_on_c, 2, 37, 95
9, 234960, Note_off_c, 2, 37, 80
9, 234960, Note_on_c, 2, 35, 95
9, 235440, Note_off_c, 2, 35, 80
9, 235440, Note_on_c, 2, 32, 95
9, 235680, Note_off_c, 2, 32, 80
9, 235680, Note_on_c, 2, 35, 95
9, 235920, Note_off_c, 2, 35, 80
9, 235920, Note_on_c, 2, 37, 95
9, 236160, Note_off_c, 2, 37, 80
9, 236160, Note_on_c, 2, 37, 95
9, 241920, Note_off_c, 2, 37, 80
9, 241920, Note_on_c, 2, 33, 95
9, 242640, Note_off_c, 2, 33, 80
9, 242640, Note_on_c, 2, 35, 95
9, 243120, Note_off_c, 2, 35, 80
9, 243120, Note_on_c, 2, 35, 95
9, 243360, Note_off_c, 2, 35, 80
9, 243360, Note_on_c, 2, 35, 95
9, 243600, Note_off_c, 2, 35, 80
9, 243600, Note_on_c, 2, 37, 95
9, 243840, Note_off_c, 2, 37, 80
9, 243840, Note_on_c, 2, 37, 95
9, 249600, Note_off_c, 2, 37, 80
9, 249600, Note_on_c, 2, 33, 95
9, 250320, Note_off_c, 2, 33, 80
9, 250320, Note_on_c, 2, 35, 95
9, 250800, Note_off_c, 2, 35, 80
9, 250800, Note_on_c, 2, 35, 95
9, 251040, Note_off_c, 2, 35, 80
9, 251040, Note_on_c, 2, 35, 95
9, 251280, Note_off_c, 2, 35, 80
9, 251280, Note_on_c, 2, 37, 95
9, 251520, Note_off_c, 2, 37, 80
9, 251520, Note_on_c, 2, 37, 95
9, 257280, Note_off_c, 2, 37, 80
9, 257280, Note_on_c, 2, 33, 95
9, 258000, Note_off_c, 2, 33, 80
9, 258000, Note_on_c, 2, 35, 95
9, 258480, Note_off_c, 2, 35, 80
9, 258480, Note_on_c, 2, 35, 95
9, 258720, Note_off_c, 2, 35, 80
9, 258720, Note_on_c, 2, 35, 95
9, 258960, Note_off_c, 2, 35, 80
9, 258960, Note_on_c, 2, 37, 95
9, 259200, Note_off_c, 2, 37, 80
9, 259200, Note_on_c, 2, 37, 95
9, 264960, Note_off_c, 2, 37, 80
9, 264960, Note_on_c, 2, 33, 95
9, 265680, Note_off_c, 2, 33, 80
9, 265680, Note_on_c, 2, 35, 95
9, 266160, Note_off_c, 2, 35, 80
9, 266160, Note_on_c, 2, 35, 95
9, 266400, Note_off_c, 2, 35, 80
9, 266400, Note_on_c, 2, 35, 95
9, 266640, Note_off_c, 2, 35, 80
9, 266640, Note_on_c, 2, 37, 95
9, 267240, Note_off_c, 2, 37, 80
9, 267240, Note_on_c, 2, 37, 95
9, 267360, Note_off_c, 2, 37, 80
9, 267360, Note_on_c, 2, 32, 63
9, 267600, Note_off_c, 2, 32, 80
9, 267600, Note_on_c, 2, 32, 95
9, 267840, Note_off_c, 2, 32, 80
9, 267840, Note_on_c, 2, 35, 95
9, 268080, Note_off_c, 2, 35, 80
9, 268080, Note_on_c, 2, 37, 95
9, 268320, Note_off_c, 2, 37, 80
9, 268320, Note_on_c, 2, 35, 95
9, 268560, Note_off_c, 2, 35, 80
9, 268560, Note_on_c, 2, 33, 95
9, 269520, Note_off_c, 2, 33, 80
9, 269520, Note_on_c, 2, 32, 79
9, 269640, Note_off_c, 2, 32, 80
9, 269640, Note_on_c, 2, 32, 95
9, 269760, Note_off_c, 2, 32, 80
9, 269760, Note_on_c, 2, 35, 95
9, 270120, Note_off_c, 2, 35, 80
9, 270120, Note_on_c, 2, 35, 95
9, 270480, Note_off_c, 2, 35, 80
9, 270480, Note_on_c, 2, 32, 95
9, 270600, Note_off_c, 2, 32, 80
9, 271080, Note_on_c, 2, 37, 95
9, 271200, Note_off_c, 2, 37, 80
9, 271200, Note_on_c, 2, 32, 63
9, 271440, Note_off_c, 2, 32, 80
9, 271440, Note_on_c, 2, 32, 95
9, 271680, Note_off_c, 2, 32, 80
9, 271680, Note_on_c, 2, 35, 95
9, 271920, Note_off_c, 2, 35, 80
9, 271920, Note_on_c, 2, 40, 95
9, 272160, Note_off_c, 2, 40, 80
9, 272160, Note_on_c, 2, 35, 95
9, 272400, Note_off_c, 2, 35, 80
9, 272400, Note_on_c, 2, 33, 95
9, 273360, Note_off_c, 2, 33, 80
9, 273360, Note_on_c, 2, 47, 63
9, 273360, Note_on_c, 2, 35, 95
9, 273480, Note_off_c, 2, 47, 80
9, 273480, Note_off_c, 2, 35, 80
9, 273480, Note_on_c, 2, 32, 95
9, 273600, Note_off_c, 2, 32, 80
9, 273600, Note_on_c, 2, 47, 63
9, 273600, Note_on_c, 2, 35, 95
9, 273960, Note_off_c, 2, 47, 80
9, 273960, Note_off_c, 2, 35, 80
9, 273960, Note_on_c, 2, 35, 95
9, 274320, Note_off_c, 2, 35, 80
9, 274320, Note_on_c, 2, 49, 63
9, 274320, Note_on_c, 2, 32, 95
9, 274440, Note_off_c, 2, 49, 80
9, 274440, Note_off_c, 2, 32, 80
9, 274920, Note_on_c, 2, 37, 95
9, 275040, Note_off_c, 2, 37, 80
9, 275040, Note_on_c, 2, 32, 63
9, 275280, Note_off_c, 2, 32, 80
9, 275280, Note_on_c, 2, 32, 95
9, 275520, Note_off_c, 2, 32, 80
9, 275520, Note_on_c, 2, 35, 95
9, 275760, Note_off_c, 2, 35, 80
9, 275760, Note_on_c, 2, 37, 95
9, 276000, Note_off_c, 2, 37, 80
9, 276000, Note_on_c, 2, 35, 95
9, 276240, Note_off_c, 2, 35, 80
9, 276240, Note_on_c, 2, 33, 95
9, 277200, Note_off_c, 2, 33, 80
9, 277200, Note_on_c, 2, 32, 79
9, 277320, Note_off_c, 2, 32, 80
9, 277320, Note_on_c, 2, 32, 95
9, 277440, Note_off_c, 2, 32, 80
9, 277440, Note_on_c, 2, 35, 95
9, 277800, Note_off_c, 2, 35, 80
9, 277800, Note_on_c, 2, 35, 95
9, 278160, Note_off_c, 2, 35, 80
9, 278160, Note_on_c, 2, 32, 95
9, 278280, Note_off_c, 2, 32, 80
9, 278760, Note_on_c, 2, 37, 95
9, 278880, Note_off_c, 2, 37, 80
9, 278880, Note_on_c, 2, 32, 63
9, 279120, Note_off_c, 2, 32, 80
9, 279120, Note_on_c, 2, 32, 95
9, 279360, Note_off_c, 2, 32, 80
9, 279360, Note_on_c, 2, 35, 95
9, 279600, Note_off_c, 2, 35, 80
9, 279600, Note_on_c, 2, 40, 95
9, 279840, Note_off_c, 2, 40, 80
9, 279840, Note_on_c, 2, 35, 95
9, 280080, Note_off_c, 2, 35, 80
9, 280080, Note_on_c, 2, 33, 95
9, 281040, Note_off_c, 2, 33, 80
9, 281040, Note_on_c, 2, 47, 63
9, 281040, Note_on_c, 2, 35, 95
9, 281160, Note_off_c, 2, 47, 80
9, 281160, Note_off_c, 2, 35, 80
9, 281160, Note_on_c, 2, 32, 95
9, 281280, Note_off_c, 2, 32, 80
9, 281280, Note_on_c, 2, 47, 63
9, 281280, Note_on_c, 2, 35, 95
9, 281640, Note_off_c, 2, 47, 80
9, 281640, Note_off_c, 2, 35, 80
9, 281640, Note_on_c, 2, 35, 95
9, 282000, Note_off_c, 2, 35, 80
9, 282000, Note_on_c, 2, 49, 63
9, 282000, Note_on_c, 2, 32, 95
9, 282120, Note_off_c, 2, 49, 80
9, 282120, Note_off_c, 2, 32, 80
9, 282600, Note_on_c, 2, 32, 95
9, 282720, Note_off_c, 2, 32, 80
9, 282720, Note_on_c, 2, 39, 63
9, 282960, Note_off_c, 2, 39, 80
9, 282960, Note_on_c, 2, 39, 95
9, 283200, Note_off_c, 2, 39, 80
9, 283200, Note_on_c, 2, 42, 95
9, 283440, Note_off_c, 2, 42, 80
9, 283440, Note_on_c, 2, 44, 95
9, 283680, Note_off_c, 2, 44, 80
9, 283680, Note_on_c, 2, 42, 95
9, 283920, Note_off_c, 2, 42, 80
9, 283920, Note_on_c, 2, 40, 95
9, 284880, Note_off_c, 2, 40, 80
9, 284880, Note_on_c, 2, 39, 95
9, 285000, Note_off_c, 2, 39, 80
9, 285000, Note_on_c, 2, 39, 95
9, 285120, Note_off_c, 2, 39, 80
9, 285120, Note_on_c, 2, 42, 95
9, 285480, Note_off_c, 2, 42, 80
9, 285480, Note_on_c, 2, 42, 95
9, 285840, Note_off_c, 2, 42, 80
9, 285840, Note_on_c, 2, 39, 95
9, 285960, Note_off_c, 2, 39, 80
9, 286440, Note_on_c, 2, 44, 95
9, 286560, Note_off_c, 2, 44, 80
9, 286560, Note_on_c, 2, 39, 63
9, 286800, Note_off_c, 2, 39, 80
9, 286800, Note_on_c, 2, 39, 95
9, 287040, Note_off_c, 2, 39, 80
9, 287040, Note_on_c, 2, 42, 95
9, 287280, Note_off_c, 2, 42, 80
9, 287280, Note_on_c, 2, 47, 95
9, 287520, Note_off_c, 2, 47, 80
9, 287520, Note_on_c, 2, 42, 95
9, 287760, Note_off_c, 2, 42, 80
9, 287760, Note_on_c, 2, 40, 95
9, 288720, Note_off_c, 2, 40, 80
9, 288720, Note_on_c, 2, 42, 95
9, 288840, Note_off_c, 2, 42, 80
9, 288840, Note_on_c, 2, 39, 95
9, 288960, Note_off_c, 2, 39, 80
9, 288960, Note_on_c, 2, 42, 95
9, 289320, Note_off_c, 2, 42, 80
9, 289320, Note_on_c, 2, 42, 95
9, 289680, Note_off_c, 2, 42, 80
9, 289680, Note_on_c, 2, 39, 95
9, 289800, Note_off_c, 2, 39, 80
9, 290280, Note_on_c, 2, 44, 95
9, 290400, Note_off_c, 2, 44, 80
9, 290400, Note_on_c, 2, 39, 63
9, 290640, Note_off_c, 2, 39, 80
9, 290640, Note_on_c, 2, 39, 95
9, 290880, Note_off_c, 2, 39, 80
9, 290880, Note_on_c, 2, 42, 95
9, 291120, Note_off_c, 2, 42, 80
9, 291120, Note_on_c, 2, 44, 95
9, 291360, Note_off_c, 2, 44, 80
9, 291360, Note_on_c, 2, 42, 95
9, 291600, Note_off_c, 2, 42, 80
9, 291600, Note_on_c, 2, 40, 95
9, 292560, Note_off_c, 2, 40, 80
9, 292560, Note_on_c, 2, 39, 79
9, 292680, Note_off_c, 2, 39, 80
9, 292680, Note_on_c, 2, 39, 95
9, 292800, Note_off_c, 2, 39, 80
9, 292800, Note_on_c, 2, 42, 95
9, 293160, Note_off_c, 2, 42, 80
9, 293160, Note_on_c, 2, 42, 95
9, 293520, Note_off_c, 2, 42, 80
9, 293520, Note_on_c, 2, 39, 95
9, 293640, Note_off_c, 2, 39, 80
9, 294120, Note_on_c, 2, 44, 95
9, 294240, Note_off_c, 2, 44, 80
9, 294240, Note_on_c, 2, 39, 63
9, 294480, Note_off_c, 2, 39, 80
9, 294480, Note_on_c, 2, 39, 95
9, 294720, Note_off_c, 2, 39, 80
9, 294720, Note_on_c, 2, 42, 95
9, 294960, Note_off_c, 2, 42, 80
9, 294960, Note_on_c, 2, 47, 95
9, 295200, Note_off_c, 2, 47, 80
9, 295200, Note_on_c, 2, 42, 95
9, 295440, Note_off_c, 2, 42, 80
9, 295440, Note_on_c, 2, 40, 95
9, 296400, Note_off_c, 2, 40, 80
9, 296400, Note_on_c, 2, 42, 95
9, 296520, Note_off_c, 2, 42, 80
9, 296520, Note_on_c, 2, 39, 95
9, 296640, Note_off_c, 2, 39, 80
9, 296640, Note_on_c, 2, 42, 95
9, 297000, Note_off_c, 2, 42, 80
9, 297000, Note_on_c, 2, 42, 95
9, 297360, Note_off_c, 2, 42, 80
9, 297360, Note_on_c, 2, 33, 95
9, 297600, Note_off_c, 2, 33, 80
9, 297600, Note_on_c, 2, 33, 95
9, 297840, Note_off_c, 2, 33, 80
9, 297840, Note_on_c, 2, 33, 95
9, 298080, Note_off_c, 2, 33, 80
9, 298080, Note_on_c, 2, 33, 95
9, 298320, Note_off_c, 2, 33, 80
9, 298320, Note_on_c, 2, 35, 95
9, 299280, Note_off_c, 2, 35, 80
9, 299280, Note_on_c, 2, 37, 95
9, 300240, Note_off_c, 2, 37, 80
9, 300240, Note_on_c, 2, 35, 95
9, 300480, Note_off_c, 2, 35, 80
9, 300720, Note_on_c, 2, 32, 95
9, 300960, Note_off_c, 2, 32, 80
9, 301200, Note_on_c, 2, 33, 95
9, 302160, Note_off_c, 2, 33, 80
9, 302160, Note_on_c, 2, 35, 95
9, 303120, Note_off_c, 2, 35, 80
9, 303120, Note_on_c, 2, 37, 95
9, 303600, Note_off_c, 2, 37, 80
9, 303600, Note_on_c, 2, 32, 95
9, 303840, Note_off_c, 2, 32, 80
9, 303840, Note_on_c, 2, 37, 95
9, 304080, Note_off_c, 2, 37, 80
9, 304080, Note_on_c, 2, 40, 95
9, 304320, Note_off_c, 2, 40, 80
9, 304320, Note_on_c, 2, 39, 95
9, 304560, Note_off_c, 2, 39, 80
9, 304560, Note_on_c, 2, 35, 95
9, 304800, Note_off_c, 2, 35, 80
9, 304800, Note_on_c, 2, 28, 95
9, 305040, Note_off_c, 2, 28, 80
9, 305040, Note_on_c, 2, 33, 95
9, 305280, Note_off_c, 2, 33, 80
9, 305280, Note_on_c, 2, 33, 95
9, 305520, Note_off_c, 2, 33, 80
9, 305520, Note_on_c, 2, 33, 95
9, 305760, Note_off_c, 2, 33, 80
9, 305760, Note_on_c, 2, 33, 95
9, 306000, Note_off_c, 2, 33, 80
9, 306000, Note_on_c, 2, 35, 95
9, 306240, Note_off_c, 2, 35, 80
9, 306240, Note_on_c, 2, 35, 95
9, 306480, Note_off_c, 2, 35, 80
9, 306480, Note_on_c, 2, 35, 95
9, 306720, Note_off_c, 2, 35, 80
9, 306720, Note_on_c, 2, 35, 95
9, 306960, Note_off_c, 2, 35, 80
9, 306960, Note_on_c, 2, 32, 95
9, 307440, Note_off_c, 2, 32, 80
9, 307440, Note_on_c, 2, 32, 95
9, 307680, Note_off_c, 2, 32, 80
9, 307680, Note_on_c, 2, 30, 95
9, 307920, Note_off_c, 2, 30, 80
9, 307920, Note_on_c, 2, 33, 95
9, 308400, Note_off_c, 2, 33, 80
9, 308400, Note_on_c, 2, 33, 95
9, 308640, Note_off_c, 2, 33, 80
9, 308640, Note_on_c, 2, 32, 95
9, 308880, Note_off_c, 2, 32, 80
9, 308880, Note_on_c, 2, 30, 95
9, 309120, Note_off_c, 2, 30, 80
9, 309120, Note_on_c, 2, 30, 95
9, 309360, Note_off_c, 2, 30, 80
9, 309360, Note_on_c, 2, 30, 95
9, 309600, Note_off_c, 2, 30, 80
9, 309600, Note_on_c, 2, 30, 95
9, 309840, Note_off_c, 2, 30, 80
9, 309840, Note_on_c, 2, 30, 95
9, 310080, Note_off_c, 2, 30, 80
9, 310080, Note_on_c, 2, 30, 95
9, 310320, Note_off_c, 2, 30, 80
9, 310320, Note_on_c, 2, 30, 95
9, 310560, Note_off_c, 2, 30, 80
9, 310560, Note_on_c, 2, 32, 95
9, 310800, Note_off_c, 2, 32, 80
9, 310800, Note_on_c, 2, 33, 95
9, 311520, Note_off_c, 2, 33, 80
9, 311520, Note_on_c, 2, 37, 95
9, 311760, Note_off_c, 2, 37, 80
9, 311760, Note_on_c, 2, 35, 95
9, 312240, Note_off_c, 2, 35, 80
9, 312240, Note_on_c, 2, 32, 95
9, 312480, Note_off_c, 2, 32, 80
9, 312480, Note_on_c, 2, 35, 95
9, 312720, Note_off_c, 2, 35, 80
9, 312720, Note_on_c, 2, 33, 95
9, 312960, Note_off_c, 2, 33, 80
9, 312960, Note_on_c, 2, 33, 95
9, 313200, Note_off_c, 2, 33, 80
9, 313200, Note_on_c, 2, 33, 95
9, 313440, Note_off_c, 2, 33, 80
9, 313440, Note_on_c, 2, 33, 95
9, 313680, Note_off_c, 2, 33, 80
9, 313680, Note_on_c, 2, 35, 95
9, 314640, Note_off_c, 2, 35, 80
9, 314640, Note_on_c, 2, 37, 95
9, 315600, Note_off_c, 2, 37, 80
9, 315600, Note_on_c, 2, 35, 95
9, 315840, Note_off_c, 2, 35, 80
9, 316080, Note_on_c, 2, 32, 95
9, 316320, Note_off_c, 2, 32, 80
9, 316560, Note_on_c, 2, 33, 95
9, 317520, Note_off_c, 2, 33, 80
9, 317520, Note_on_c, 2, 35, 95
9, 318480, Note_off_c, 2, 35, 80
9, 318480, Note_on_c, 2, 37, 95
9, 318960, Note_off_c, 2, 37, 80
9, 318960, Note_on_c, 2, 32, 95
9, 319200, Note_off_c, 2, 32, 80
9, 319200, Note_on_c, 2, 37, 95
9, 319440, Note_off_c, 2, 37, 80
9, 319440, Note_on_c, 2, 40, 95
9, 319680, Note_off_c, 2, 40, 80
9, 319680, Note_on_c, 2, 39, 95
9, 319920, Note_off_c, 2, 39, 80
9, 319920, Note_on_c, 2, 35, 95
9, 320160, Note_off_c, 2, 35, 80
9, 320160, Note_on_c, 2, 28, 95
9, 320400, Note_off_c, 2, 28, 80
9, 320400, Note_on_c, 2, 33, 95
9, 320640, Note_off_c, 2, 33, 80
9, 320640, Note_on_c, 2, 33, 95
9, 320880, Note_off_c, 2, 33, 80
9, 320880, Note_on_c, 2, 33, 95
9, 321120, Note_off_c, 2, 33, 80
9, 321120, Note_on_c, 2, 33, 95
9, 321360, Note_off_c, 2, 33, 80
9, 321360, Note_on_c, 2, 35, 95
9, 321600, Note_off_c, 2, 35, 80
9, 321600, Note_on_c, 2, 35, 95
9, 321840, Note_off_c, 2, 35, 80
9, 321840, Note_on_c, 2, 35, 95
9, 322080, Note_off_c, 2, 35, 80
9, 322080, Note_on_c, 2, 35, 95
9, 322320, Note_off_c, 2, 35, 80
9, 322320, Note_on_c, 2, 32, 95
9, 322800, Note_off_c, 2, 32, 80
9, 322800, Note_on_c, 2, 32, 95
9, 323040, Note_off_c, 2, 32, 80
9, 323040, Note_on_c, 2, 30, 95
9, 323280, Note_off_c, 2, 30, 80
9, 323280, Note_on_c, 2, 33, 95
9, 323760, Note_off_c, 2, 33, 80
9, 323760, Note_on_c, 2, 33, 95
9, 324000, Note_off_c, 2, 33, 80
9, 324000, Note_on_c, 2, 32, 95
9, 324240, Note_off_c, 2, 32, 80
9, 324240, Note_on_c, 2, 30, 95
9, 324480, Note_off_c, 2, 30, 80
9, 324480, Note_on_c, 2, 30, 95
9, 324720, Note_off_c, 2, 30, 80
9, 324720, Note_on_c, 2, 30, 95
9, 324960, Note_off_c, 2, 30, 80
9, 324960, Note_on_c, 2, 30, 95
9, 325200, Note_off_c, 2, 30, 80
9, 325200, Note_on_c, 2, 30, 95
9, 325440, Note_off_c, 2, 30, 80
9, 325440, Note_on_c, 2, 30, 95
9, 325680, Note_off_c, 2, 30, 80
9, 325680, Note_on_c, 2, 30, 95
9, 325920, Note_off_c, 2, 30, 80
9, 325920, Note_on_c, 2, 32, 95
9, 326160, Note_off_c, 2, 32, 80
9, 326160, Note_on_c, 2, 33, 95
9, 326880, Note_off_c, 2, 33, 80
9, 326880, Note_on_c, 2, 37, 95
9, 327120, Note_off_c, 2, 37, 80
9, 327120, Note_on_c, 2, 35, 95
9, 327600, Note_off_c, 2, 35, 80
9, 327600, Note_on_c, 2, 32, 95
9, 327840, Note_off_c, 2, 32, 80
9, 327840, Note_on_c, 2, 35, 95
9, 328080, Note_off_c, 2, 35, 80
9, 328080, Note_on_c, 2, 37, 95
9, 328680, Note_off_c, 2, 37, 80
9, 328680, Note_on_c, 2, 37, 95
9, 328800, Note_off_c, 2, 37, 80
9, 328800, Note_on_c, 2, 32, 63
9, 329040, Note_off_c, 2, 32, 80
9, 329040, Note_on_c, 2, 32, 95
9, 329280, Note_off_c, 2, 32, 80
9, 329280, Note_on_c, 2, 35, 95
9, 329520, Note_off_c, 2, 35, 80
9, 329520, Note_on_c, 2, 37, 95
9, 329760, Note_off_c, 2, 37, 80
9, 329760, Note_on_c, 2, 35, 95
9, 330000, Note_off_c, 2, 35, 80
9, 330000, Note_on_c, 2, 33, 95
9, 330960, Note_off_c, 2, 33, 80
9, 330960, Note_on_c, 2, 32, 79
9, 331080, Note_off_c, 2, 32, 80
9, 331080, Note_on_c, 2, 32, 95
9, 331200, Note_off_c, 2, 32, 80
9, 331200, Note_on_c, 2, 35, 95
9, 331560, Note_off_c, 2, 35, 80
9, 331560, Note_on_c, 2, 35, 95
9, 331920, Note_off_c, 2, 35, 80
9, 331920, Note_on_c, 2, 32, 95
9, 332040, Note_off_c, 2, 32, 80
9, 332520, Note_on_c, 2, 37, 95
9, 332640, Note_off_c, 2, 37, 80
9, 332640, Note_on_c, 2, 32, 63
9, 332880, Note_off_c, 2, 32, 80
9, 332880, Note_on_c, 2, 32, 95
9, 333120, Note_off_c, 2, 32, 80
9, 333120, Note_on_c, 2, 35, 95
9, 333360, Note_off_c, 2, 35, 80
9, 333360, Note_on_c, 2, 40, 95
9, 333600, Note_off_c, 2, 40, 80
9, 333600, Note_on_c, 2, 35, 95
9, 333840, Note_off_c, 2, 35, 80
9, 333840, Note_on_c, 2, 33, 95
9, 334800, Note_off_c, 2, 33, 80
9, 334800, Note_on_c, 2, 47, 63
9, 334800, Note_on_c, 2, 35, 95
9, 334920, Note_off_c, 2, 47, 80
9, 334920, Note_off_c, 2, 35, 80
9, 334920, Note_on_c, 2, 32, 95
9, 335040, Note_off_c, 2, 32, 80
9, 335040, Note_on_c, 2, 47, 63
9, 335040, Note_on_c, 2, 35, 95
9, 335400, Note_off_c, 2, 47, 80
9, 335400, Note_off_c, 2, 35, 80
9, 335400, Note_on_c, 2, 35, 95
9, 335760, Note_off_c, 2, 35, 80
9, 335760, Note_on_c, 2, 49, 63
9, 335760, Note_on_c, 2, 32, 95
9, 335880, Note_off_c, 2, 49, 80
9, 335880, Note_off_c, 2, 32, 80
9, 336360, Note_on_c, 2, 37, 95
9, 336480, Note_off_c, 2, 37, 80
9, 336480, Note_on_c, 2, 32, 63
9, 336720, Note_off_c, 2, 32, 80
9, 336720, Note_on_c, 2, 32, 95
9, 336960, Note_off_c, 2, 32, 80
9, 336960, Note_on_c, 2, 35, 95
9, 337200, Note_off_c, 2, 35, 80
9, 337200, Note_on_c, 2, 37, 95
9, 337440, Note_off_c, 2, 37, 80
9, 337440, Note_on_c, 2, 35, 95
9, 337680, Note_off_c, 2, 35, 80
9, 337680, Note_on_c, 2, 33, 95
9, 338640, Note_off_c, 2, 33, 80
9, 338640, Note_on_c, 2, 32, 79
9, 338760, Note_off_c, 2, 32, 80
9, 338760, Note_on_c, 2, 32, 95
9, 338880, Note_off_c, 2, 32, 80
9, 338880, Control_c, 2, 7, 120
9, 338880, Control_c, 3, 7, 120
9, 338880, Note_on_c, 2, 35, 95
9, 339240, Note_off_c, 2, 35, 80
9, 339240, Note_on_c, 2, 35, 95
9, 339600, Note_off_c, 2, 35, 80
9, 339600, Note_on_c, 2, 32, 95
9, 339720, Note_off_c, 2, 32, 80
9, 339840, Control_c, 2, 7, 112
9, 339840, Control_c, 3, 7, 112
9, 340200, Note_on_c, 2, 37, 95
9, 340320, Note_off_c, 2, 37, 80
9, 340320, Note_on_c, 2, 32, 63
9, 340560, Note_off_c, 2, 32, 80
9, 340560, Note_on_c, 2, 32, 95
9, 340800, Note_off_c, 2, 32, 80
9, 340800, Control_c, 2, 7, 104
9, 340800, Control_c, 3, 7, 104
9, 340800, Note_on_c, 2, 35, 95
9, 341040, Note_off_c, 2, 35, 80
9, 341040, Note_on_c, 2, 40, 95
9, 341280, Note_off_c, 2, 40, 80
9, 341280, Note_on_c, 2, 35, 95
9, 341520, Note_off_c, 2, 35, 80
9, 341520, Note_on_c, 2, 33, 95
9, 341760, Control_c, 2, 7, 96
9, 341760, Control_c, 3, 7, 96
9, 342480, Note_off_c, 2, 33, 80
9, 342480, Note_on_c, 2, 47, 63
9, 342480, Note_on_c, 2, 35, 95
9, 342600, Note_off_c, 2, 47, 80
9, 342600, Note_off_c, 2, 35, 80
9, 342600, Note_on_c, 2, 32, 95
9, 342720, Note_off_c, 2, 32, 80
9, 342720, Control_c, 2, 7, 88
9, 342720, Control_c, 3, 7, 88
9, 342720, Note_on_c, 2, 47, 63
9, 342720, Note_on_c, 2, 35, 95
9, 343080, Note_off_c, 2, 47, 80
9, 343080, Note_off_c, 2, 35, 80
9, 343080, Note_on_c, 2, 35, 95
9, 343440, Note_off_c, 2, 35, 80
9, 343440, Note_on_c, 2, 49, 63
9, 343440, Note_on_c, 2, 32, 95
9, 343560, Note_off_c, 2, 49, 80
9, 343560, Note_off_c, 2, 32, 80
9, 343680, Control_c, 2, 7, 80
9, 343680, Control_c, 3, 7, 80
9, 344040, Note_on_c, 2, 37, 95
9, 344160, Note_off_c, 2, 37, 80
9, 344160, Note_on_c, 2, 32, 63
9, 344400, Note_off_c, 2, 32, 80
9, 344400, Note_on_c, 2, 32, 95
9, 344640, Note_off_c, 2, 32, 80
9, 344640, Control_c, 2, 7, 72
9, 344640, Control_c, 3, 7, 72
9, 344640, Note_on_c, 2, 35, 95
9, 344880, Note_off_c, 2, 35, 80
9, 344880, Note_on_c, 2, 37, 95
9, 345120, Note_off_c, 2, 37, 80
9, 345120, Note_on_c, 2, 35, 95
9, 345360, Note_off_c, 2, 35, 80
9, 345360, Note_on_c, 2, 33, 95
9, 345600, Control_c, 2, 7, 64
9, 345600, Control_c, 3, 7, 64
9, 346320, Note_off_c, 2, 33, 80
9, 346320, Note_on_c, 2, 32, 79
9, 346440, Note_off_c, 2, 32, 80
9, 346440, Note_on_c, 2, 32, 95
9, 346560, Note_off_c, 2, 32, 80
9, 346560, Control_c, 2, 7, 56
9, 346560, Control_c, 3, 7, 56
9, 346560, Note_on_c, 2, 35, 95
9, 346920, Note_off_c, 2, 35, 80
9, 346920, Note_on_c, 2, 35, 95
9, 347280, Note_off_c, 2, 35, 80
9, 347280, Note_on_c, 2, 32, 95
9, 347400, Note_off_c, 2, 32, 80
9, 347520, Control_c, 2, 7, 48
9, 347520, Control_c, 3, 7, 48
9, 347880, Note_on_c, 2, 37, 95
9, 348000, Note_off_c, 2, 37, 80
9, 348000, Note_on_c, 2, 32, 63
9, 348240, Note_off_c, 2, 32, 80
9, 348240, Note_on_c, 2, 32, 95
9, 348480, Note_off_c, 2, 32, 80
9, 348480, Control_c, 2, 7, 40
9, 348480, Control_c, 3, 7, 40
9, 348480, Note_on_c, 2, 35, 95
9, 348720, Note_off_c, 2, 35, 80
9, 348720, Note_on_c, 2, 40, 95
9, 348960, Note_off_c, 2, 40, 80
9, 348960, Note_on_c, 2, 35, 95
9, 349200, Note_off_c, 2, 35, 80
9, 349200, Note_on_c, 2, 33, 95
9, 349440, Control_c, 2, 7, 32
9, 349440, Control_c, 3, 7, 32
9, 350160, Note_off_c, 2, 33, 80
9, 350160, Note_on_c, 2, 47, 63
9, 350160, Note_on_c, 2, 35, 95
9, 350280, Note_off_c, 2, 47, 80
9, 350280, Note_off_c, 2, 35, 80
9, 350280, Note_on_c, 2, 32, 95
9, 350400, Note_off_c, 2, 32, 80
9, 350400, Control_c, 2, 7, 24
9, 350400, Control_c, 3, 7, 24
9, 350400, Note_on_c, 2, 47, 63
9, 350400, Note_on_c, 2, 35, 95
9, 350760, Note_off_c, 2, 47, 80
9, 350760, Note_off_c, 2, 35, 80
9, 350760, Note_on_c, 2, 35, 95
9, 351120, Note_off_c, 2, 35, 80
9, 351120, Note_on_c, 2, 49, 63
9, 351120, Note_on_c, 2, 32, 95
9, 351240, Note_off_c, 2, 49, 80
9, 351240, Note_off_c, 2, 32, 80
9, 351360, Control_c, 2, 7, 16
9, 351360, Control_c, 3, 7, 16
9, 351720, Note_on_c, 2, 37, 95
9, 351840, Note_off_c, 2, 37, 80
9, 351840, Note_on_c, 2, 32, 63
9, 352080, Note_off_c, 2, 32, 80
9, 352080, Note_on_c, 2, 32, 95
9, 352320, Note_off_c, 2, 32, 80
9, 352320, Control_c, 2, 7, 8
9, 352320, Control_c, 3, 7, 8
9, 352320, Note_on_c, 2, 35, 95
9, 352560, Note_off_c, 2, 35, 80
9, 352560, Note_on_c, 2, 37, 95
9, 352800, Note_off_c, 2, 37, 80
9, 352800, Note_on_c, 2, 35, 95
9, 353040, Note_off_c, 2, 35, 80
9, 353040, Note_on_c, 2, 33, 95
9, 353280, Note_off_c, 2, 33, 80
9, 353280, End_track
10, 0, Start_track
10, 0, Title_t, "by Andres Chait"
10, 0, Control_c, 9, 100, 0
10, 0, Control_c, 9, 101, 0
10, 0, Control_c, 9, 6, 8
10, 0, Pitch_bend_c, 9, 8192
10, 0, Program_c, 9, 255
10, 0, Control_c, 9, 7, 127
10, 0, Control_c, 9, 10, 64
10, 0, Control_c, 9, 93, 0
10, 0, Control_c, 9, 91, 0
10, 0, Control_c, 9, 92, 0
10, 0, Control_c, 9, 95, 0
10, 7680, Note_on_c, 9, 52, 95
10, 9600, Note_off_c, 9, 52, 80
10, 11040, Note_on_c, 9, 57, 15
10, 11160, Note_off_c, 9, 57, 80
10, 11160, Note_on_c, 9, 57, 31
10, 11280, Note_off_c, 9, 57, 80
10, 11280, Note_on_c, 9, 57, 47
10, 11400, Note_off_c, 9, 57, 80
10, 11400, Note_on_c, 9, 57, 63
10, 11520, Note_off_c, 9, 57, 80
10, 11520, Note_on_c, 9, 52, 95
10, 12000, Note_off_c, 9, 52, 80
10, 35040, Note_on_c, 9, 57, 15
10, 35160, Note_off_c, 9, 57, 80
10, 35160, Note_on_c, 9, 57, 15
10, 35280, Note_off_c, 9, 57, 80
10, 35280, Note_on_c, 9, 57, 31
10, 35400, Note_off_c, 9, 57, 80
10, 35400, Note_on_c, 9, 57, 31
10, 35520, Note_off_c, 9, 57, 80
10, 35520, Note_on_c, 9, 57, 47
10, 35640, Note_off_c, 9, 57, 80
10, 35640, Note_on_c, 9, 57, 47
10, 35760, Note_off_c, 9, 57, 80
10, 35760, Note_on_c, 9, 57, 63
10, 35880, Note_off_c, 9, 57, 80
10, 35880, Note_on_c, 9, 57, 63
10, 36000, Note_off_c, 9, 57, 80
10, 36000, Note_on_c, 9, 57, 79
10, 36120, Note_off_c, 9, 57, 80
10, 36120, Note_on_c, 9, 57, 79
10, 36240, Note_off_c, 9, 57, 80
10, 36240, Note_on_c, 9, 57, 111
10, 36360, Note_off_c, 9, 57, 80
10, 36360, Note_on_c, 9, 57, 95
10, 36480, Note_off_c, 9, 57, 80
10, 36480, Note_on_c, 9, 44, 95
10, 36480, Note_on_c, 9, 52, 95
10, 36600, Note_off_c, 9, 44, 80
10, 36600, Note_off_c, 9, 52, 80
10, 36600, Note_on_c, 9, 44, 31
10, 36720, Note_off_c, 9, 44, 80
10, 36720, Note_on_c, 9, 44, 63
10, 36840, Note_off_c, 9, 44, 80
10, 36840, Note_on_c, 9, 44, 79
10, 36840, Note_on_c, 9, 36, 95
10, 36960, Note_off_c, 9, 44, 80
10, 36960, Note_off_c, 9, 36, 80
10, 36960, Note_on_c, 9, 44, 95
10, 36960, Note_on_c, 9, 37, 95
10, 36960, Note_on_c, 9, 42, 95
10, 37080, Note_off_c, 9, 44, 80
10, 37080, Note_off_c, 9, 37, 80
10, 37080, Note_off_c, 9, 42, 80
10, 37080, Note_on_c, 9, 44, 31
10, 37200, Note_off_c, 9, 44, 80
10, 37200, Note_on_c, 9, 44, 63
10, 37200, Note_on_c, 9, 36, 95
10, 37320, Note_off_c, 9, 44, 80
10, 37320, Note_off_c, 9, 36, 80
10, 37320, Note_on_c, 9, 44, 79
10, 37440, Note_off_c, 9, 44, 80
10, 37440, Note_on_c, 9, 44, 95
10, 37440, Note_on_c, 9, 36, 95
10, 37560, Note_off_c, 9, 44, 80
10, 37560, Note_off_c, 9, 36, 80
10, 37560, Note_on_c, 9, 44, 31
10, 37680, Note_off_c, 9, 44, 80
10, 37680, Note_on_c, 9, 44, 63
10, 37800, Note_off_c, 9, 44, 80
10, 37800, Note_on_c, 9, 44, 79
10, 37920, Note_off_c, 9, 44, 80
10, 37920, Note_on_c, 9, 44, 95
10, 37920, Note_on_c, 9, 37, 95
10, 38040, Note_off_c, 9, 44, 80
10, 38040, Note_off_c, 9, 37, 80
10, 38040, Note_on_c, 9, 44, 31
10, 38160, Note_off_c, 9, 44, 80
10, 38160, Note_on_c, 9, 44, 63
10, 38160, Note_on_c, 9, 36, 95
10, 38280, Note_off_c, 9, 44, 80
10, 38280, Note_off_c, 9, 36, 80
10, 38280, Note_on_c, 9, 44, 79
10, 38400, Note_off_c, 9, 44, 80
10, 38400, Note_on_c, 9, 44, 95
10, 38520, Note_off_c, 9, 44, 80
10, 38520, Note_on_c, 9, 44, 31
10, 38640, Note_off_c, 9, 44, 80
10, 38640, Note_on_c, 9, 44, 63
10, 38760, Note_off_c, 9, 44, 80
10, 38760, Note_on_c, 9, 44, 79
10, 38880, Note_off_c, 9, 44, 80
10, 38880, Note_on_c, 9, 44, 95
10, 38880, Note_on_c, 9, 37, 95
10, 39000, Note_off_c, 9, 44, 80
10, 39000, Note_off_c, 9, 37, 80
10, 39000, Note_on_c, 9, 44, 31
10, 39120, Note_off_c, 9, 44, 80
10, 39120, Note_on_c, 9, 44, 63
10, 39240, Note_off_c, 9, 44, 80
10, 39240, Note_on_c, 9, 44, 79
10, 39360, Note_off_c, 9, 44, 80
10, 39360, Note_on_c, 9, 44, 95
10, 39360, Note_on_c, 9, 36, 79
10, 39480, Note_off_c, 9, 44, 80
10, 39480, Note_off_c, 9, 36, 80
10, 39480, Note_on_c, 9, 44, 31
10, 39600, Note_off_c, 9, 44, 80
10, 39600, Note_on_c, 9, 44, 63
10, 39720, Note_off_c, 9, 44, 80
10, 39720, Note_on_c, 9, 44, 79
10, 39840, Note_off_c, 9, 44, 80
10, 39840, Note_on_c, 9, 44, 95
10, 39840, Note_on_c, 9, 37, 95
10, 39960, Note_off_c, 9, 44, 80
10, 39960, Note_off_c, 9, 37, 80
10, 39960, Note_on_c, 9, 44, 31
10, 40080, Note_off_c, 9, 44, 80
10, 40080, Note_on_c, 9, 44, 63
10, 40080, Note_on_c, 9, 46, 95
10, 40200, Note_off_c, 9, 44, 80
10, 40200, Note_off_c, 9, 46, 80
10, 40200, Note_on_c, 9, 44, 79
10, 40320, Note_off_c, 9, 44, 80
10, 40320, Note_on_c, 9, 44, 95
10, 40440, Note_off_c, 9, 44, 80
10, 40440, Note_on_c, 9, 44, 31
10, 40560, Note_off_c, 9, 44, 80
10, 40560, Note_on_c, 9, 44, 63
10, 40680, Note_off_c, 9, 44, 80
10, 40680, Note_on_c, 9, 44, 79
10, 40680, Note_on_c, 9, 36, 95
10, 40800, Note_off_c, 9, 44, 80
10, 40800, Note_off_c, 9, 36, 80
10, 40800, Note_on_c, 9, 44, 95
10, 40800, Note_on_c, 9, 37, 95
10, 40800, Note_on_c, 9, 42, 95
10, 40920, Note_off_c, 9, 44, 80
10, 40920, Note_off_c, 9, 37, 80
10, 40920, Note_off_c, 9, 42, 80
10, 40920, Note_on_c, 9, 44, 31
10, 41040, Note_off_c, 9, 44, 80
10, 41040, Note_on_c, 9, 44, 63
10, 41040, Note_on_c, 9, 36, 95
10, 41160, Note_off_c, 9, 44, 80
10, 41160, Note_off_c, 9, 36, 80
10, 41160, Note_on_c, 9, 44, 79
10, 41280, Note_off_c, 9, 44, 80
10, 41280, Note_on_c, 9, 44, 95
10, 41280, Note_on_c, 9, 36, 95
10, 41400, Note_off_c, 9, 44, 80
10, 41400, Note_off_c, 9, 36, 80
10, 41400, Note_on_c, 9, 44, 31
10, 41520, Note_off_c, 9, 44, 80
10, 41520, Note_on_c, 9, 44, 63
10, 41640, Note_off_c, 9, 44, 80
10, 41640, Note_on_c, 9, 44, 79
10, 41760, Note_off_c, 9, 44, 80
10, 41760, Note_on_c, 9, 44, 95
10, 41760, Note_on_c, 9, 37, 95
10, 41880, Note_off_c, 9, 44, 80
10, 41880, Note_off_c, 9, 37, 80
10, 41880, Note_on_c, 9, 44, 31
10, 42000, Note_off_c, 9, 44, 80
10, 42000, Note_on_c, 9, 44, 63
10, 42000, Note_on_c, 9, 36, 95
10, 42120, Note_off_c, 9, 44, 80
10, 42120, Note_off_c, 9, 36, 80
10, 42120, Note_on_c, 9, 44, 79
10, 42240, Note_off_c, 9, 44, 80
10, 42240, Note_on_c, 9, 44, 95
10, 42360, Note_off_c, 9, 44, 80
10, 42360, Note_on_c, 9, 44, 31
10, 42480, Note_off_c, 9, 44, 80
10, 42480, Note_on_c, 9, 44, 63
10, 42600, Note_off_c, 9, 44, 80
10, 42600, Note_on_c, 9, 44, 79
10, 42720, Note_off_c, 9, 44, 80
10, 42720, Note_on_c, 9, 44, 95
10, 42720, Note_on_c, 9, 37, 95
10, 42840, Note_off_c, 9, 44, 80
10, 42840, Note_off_c, 9, 37, 80
10, 42840, Note_on_c, 9, 44, 31
10, 42960, Note_off_c, 9, 44, 80
10, 42960, Note_on_c, 9, 44, 63
10, 43080, Note_off_c, 9, 44, 80
10, 43080, Note_on_c, 9, 44, 79
10, 43200, Note_off_c, 9, 44, 80
10, 43200, Note_on_c, 9, 44, 95
10, 43200, Note_on_c, 9, 36, 79
10, 43320, Note_off_c, 9, 44, 80
10, 43320, Note_off_c, 9, 36, 80
10, 43320, Note_on_c, 9, 44, 31
10, 43440, Note_off_c, 9, 44, 80
10, 43440, Note_on_c, 9, 44, 63
10, 43560, Note_off_c, 9, 44, 80
10, 43560, Note_on_c, 9, 44, 79
10, 43680, Note_off_c, 9, 44, 80
10, 43680, Note_on_c, 9, 44, 95
10, 43680, Note_on_c, 9, 37, 95
10, 43800, Note_off_c, 9, 44, 80
10, 43800, Note_off_c, 9, 37, 80
10, 43800, Note_on_c, 9, 44, 31
10, 43920, Note_off_c, 9, 44, 80
10, 43920, Note_on_c, 9, 44, 63
10, 43920, Note_on_c, 9, 46, 95
10, 44040, Note_off_c, 9, 44, 80
10, 44040, Note_off_c, 9, 46, 80
10, 44040, Note_on_c, 9, 44, 79
10, 44160, Note_off_c, 9, 44, 80
10, 44160, Note_on_c, 9, 44, 95
10, 44280, Note_off_c, 9, 44, 80
10, 44280, Note_on_c, 9, 44, 31
10, 44400, Note_off_c, 9, 44, 80
10, 44400, Note_on_c, 9, 44, 63
10, 44520, Note_off_c, 9, 44, 80
10, 44520, Note_on_c, 9, 44, 79
10, 44520, Note_on_c, 9, 36, 95
10, 44640, Note_off_c, 9, 44, 80
10, 44640, Note_off_c, 9, 36, 80
10, 44640, Note_on_c, 9, 44, 95
10, 44640, Note_on_c, 9, 37, 95
10, 44640, Note_on_c, 9, 42, 95
10, 44760, Note_off_c, 9, 44, 80
10, 44760, Note_off_c, 9, 37, 80
10, 44760, Note_off_c, 9, 42, 80
10, 44760, Note_on_c, 9, 44, 31
10, 44880, Note_off_c, 9, 44, 80
10, 44880, Note_on_c, 9, 44, 63
10, 44880, Note_on_c, 9, 36, 95
10, 45000, Note_off_c, 9, 44, 80
10, 45000, Note_off_c, 9, 36, 80
10, 45000, Note_on_c, 9, 44, 79
10, 45120, Note_off_c, 9, 44, 80
10, 45120, Note_on_c, 9, 44, 95
10, 45120, Note_on_c, 9, 36, 95
10, 45240, Note_off_c, 9, 44, 80
10, 45240, Note_off_c, 9, 36, 80
10, 45240, Note_on_c, 9, 44, 31
10, 45360, Note_off_c, 9, 44, 80
10, 45360, Note_on_c, 9, 44, 63
10, 45480, Note_off_c, 9, 44, 80
10, 45480, Note_on_c, 9, 44, 79
10, 45600, Note_off_c, 9, 44, 80
10, 45600, Note_on_c, 9, 44, 95
10, 45600, Note_on_c, 9, 37, 95
10, 45720, Note_off_c, 9, 44, 80
10, 45720, Note_off_c, 9, 37, 80
10, 45720, Note_on_c, 9, 44, 31
10, 45840, Note_off_c, 9, 44, 80
10, 45840, Note_on_c, 9, 44, 63
10, 45840, Note_on_c, 9, 36, 95
10, 45960, Note_off_c, 9, 44, 80
10, 45960, Note_off_c, 9, 36, 80
10, 45960, Note_on_c, 9, 44, 79
10, 46080, Note_off_c, 9, 44, 80
10, 46080, Note_on_c, 9, 44, 95
10, 46200, Note_off_c, 9, 44, 80
10, 46200, Note_on_c, 9, 44, 31
10, 46320, Note_off_c, 9, 44, 80
10, 46320, Note_on_c, 9, 44, 63
10, 46440, Note_off_c, 9, 44, 80
10, 46440, Note_on_c, 9, 44, 79
10, 46560, Note_off_c, 9, 44, 80
10, 46560, Note_on_c, 9, 44, 95
10, 46560, Note_on_c, 9, 37, 95
10, 46680, Note_off_c, 9, 44, 80
10, 46680, Note_off_c, 9, 37, 80
10, 46680, Note_on_c, 9, 44, 31
10, 46800, Note_off_c, 9, 44, 80
10, 46800, Note_on_c, 9, 44, 63
10, 46920, Note_off_c, 9, 44, 80
10, 46920, Note_on_c, 9, 44, 79
10, 47040, Note_off_c, 9, 44, 80
10, 47040, Note_on_c, 9, 44, 95
10, 47040, Note_on_c, 9, 36, 79
10, 47160, Note_off_c, 9, 44, 80
10, 47160, Note_off_c, 9, 36, 80
10, 47160, Note_on_c, 9, 44, 31
10, 47280, Note_off_c, 9, 44, 80
10, 47280, Note_on_c, 9, 44, 63
10, 47400, Note_off_c, 9, 44, 80
10, 47400, Note_on_c, 9, 44, 79
10, 47520, Note_off_c, 9, 44, 80
10, 47520, Note_on_c, 9, 44, 95
10, 47520, Note_on_c, 9, 37, 95
10, 47640, Note_off_c, 9, 44, 80
10, 47640, Note_off_c, 9, 37, 80
10, 47640, Note_on_c, 9, 44, 31
10, 47760, Note_off_c, 9, 44, 80
10, 47760, Note_on_c, 9, 44, 63
10, 47760, Note_on_c, 9, 46, 95
10, 47880, Note_off_c, 9, 44, 80
10, 47880, Note_off_c, 9, 46, 80
10, 47880, Note_on_c, 9, 44, 79
10, 48000, Note_off_c, 9, 44, 80
10, 48000, Note_on_c, 9, 44, 95
10, 48120, Note_off_c, 9, 44, 80
10, 48120, Note_on_c, 9, 44, 31
10, 48240, Note_off_c, 9, 44, 80
10, 48240, Note_on_c, 9, 44, 63
10, 48360, Note_off_c, 9, 44, 80
10, 48360, Note_on_c, 9, 44, 79
10, 48360, Note_on_c, 9, 36, 95
10, 48480, Note_off_c, 9, 44, 80
10, 48480, Note_off_c, 9, 36, 80
10, 48480, Note_on_c, 9, 44, 95
10, 48480, Note_on_c, 9, 37, 95
10, 48480, Note_on_c, 9, 42, 95
10, 48600, Note_off_c, 9, 44, 80
10, 48600, Note_off_c, 9, 37, 80
10, 48600, Note_off_c, 9, 42, 80
10, 48600, Note_on_c, 9, 44, 31
10, 48720, Note_off_c, 9, 44, 80
10, 48720, Note_on_c, 9, 44, 63
10, 48720, Note_on_c, 9, 36, 95
10, 48840, Note_off_c, 9, 44, 80
10, 48840, Note_off_c, 9, 36, 80
10, 48840, Note_on_c, 9, 44, 79
10, 48960, Note_off_c, 9, 44, 80
10, 48960, Note_on_c, 9, 44, 95
10, 48960, Note_on_c, 9, 36, 95
10, 49080, Note_off_c, 9, 44, 80
10, 49080, Note_off_c, 9, 36, 80
10, 49080, Note_on_c, 9, 44, 31
10, 49200, Note_off_c, 9, 44, 80
10, 49200, Note_on_c, 9, 44, 63
10, 49320, Note_off_c, 9, 44, 80
10, 49320, Note_on_c, 9, 44, 79
10, 49440, Note_off_c, 9, 44, 80
10, 49440, Note_on_c, 9, 44, 95
10, 49440, Note_on_c, 9, 37, 95
10, 49560, Note_off_c, 9, 44, 80
10, 49560, Note_off_c, 9, 37, 80
10, 49560, Note_on_c, 9, 44, 31
10, 49680, Note_off_c, 9, 44, 80
10, 49680, Note_on_c, 9, 44, 63
10, 49680, Note_on_c, 9, 36, 95
10, 49800, Note_off_c, 9, 44, 80
10, 49800, Note_off_c, 9, 36, 80
10, 49800, Note_on_c, 9, 44, 79
10, 49920, Note_off_c, 9, 44, 80
10, 49920, Note_on_c, 9, 44, 95
10, 50040, Note_off_c, 9, 44, 80
10, 50040, Note_on_c, 9, 44, 31
10, 50160, Note_off_c, 9, 44, 80
10, 50160, Note_on_c, 9, 44, 63
10, 50280, Note_off_c, 9, 44, 80
10, 50280, Note_on_c, 9, 44, 79
10, 50400, Note_off_c, 9, 44, 80
10, 50400, Note_on_c, 9, 44, 95
10, 50400, Note_on_c, 9, 37, 95
10, 50520, Note_off_c, 9, 44, 80
10, 50520, Note_off_c, 9, 37, 80
10, 50520, Note_on_c, 9, 44, 31
10, 50640, Note_off_c, 9, 44, 80
10, 50640, Note_on_c, 9, 44, 63
10, 50760, Note_off_c, 9, 44, 80
10, 50760, Note_on_c, 9, 44, 79
10, 50880, Note_off_c, 9, 44, 80
10, 50880, Note_on_c, 9, 44, 95
10, 50880, Note_on_c, 9, 36, 79
10, 51000, Note_off_c, 9, 44, 80
10, 51000, Note_off_c, 9, 36, 80
10, 51000, Note_on_c, 9, 44, 31
10, 51120, Note_off_c, 9, 44, 80
10, 51120, Note_on_c, 9, 44, 63
10, 51240, Note_off_c, 9, 44, 80
10, 51240, Note_on_c, 9, 44, 79
10, 51360, Note_off_c, 9, 44, 80
10, 51360, Note_on_c, 9, 44, 95
10, 51360, Note_on_c, 9, 37, 95
10, 51480, Note_off_c, 9, 44, 80
10, 51480, Note_off_c, 9, 37, 80
10, 51480, Note_on_c, 9, 44, 31
10, 51600, Note_off_c, 9, 44, 80
10, 51600, Note_on_c, 9, 44, 63
10, 51600, Note_on_c, 9, 46, 95
10, 51720, Note_off_c, 9, 44, 80
10, 51720, Note_off_c, 9, 46, 80
10, 51720, Note_on_c, 9, 44, 79
10, 51720, Note_on_c, 9, 84, 95
10, 51840, Note_off_c, 9, 44, 80
10, 51840, Note_on_c, 9, 44, 95
10, 51960, Note_off_c, 9, 84, 80
10, 51960, Note_off_c, 9, 44, 80
10, 51960, Note_on_c, 9, 44, 31
10, 52080, Note_off_c, 9, 44, 80
10, 52080, Note_on_c, 9, 44, 63
10, 52200, Note_off_c, 9, 44, 80
10, 52200, Note_on_c, 9, 44, 79
10, 52200, Note_on_c, 9, 36, 95
10, 52320, Note_off_c, 9, 44, 80
10, 52320, Note_off_c, 9, 36, 80
10, 52320, Note_on_c, 9, 44, 95
10, 52320, Note_on_c, 9, 37, 95
10, 52320, Note_on_c, 9, 42, 95
10, 52440, Note_off_c, 9, 44, 80
10, 52440, Note_off_c, 9, 37, 80
10, 52440, Note_off_c, 9, 42, 80
10, 52440, Note_on_c, 9, 44, 31
10, 52560, Note_off_c, 9, 44, 80
10, 52560, Note_on_c, 9, 44, 63
10, 52560, Note_on_c, 9, 36, 95
10, 52680, Note_off_c, 9, 44, 80
10, 52680, Note_off_c, 9, 36, 80
10, 52680, Note_on_c, 9, 44, 79
10, 52800, Note_off_c, 9, 44, 80
10, 52800, Note_on_c, 9, 44, 95
10, 52800, Note_on_c, 9, 36, 95
10, 52920, Note_off_c, 9, 44, 80
10, 52920, Note_off_c, 9, 36, 80
10, 52920, Note_on_c, 9, 44, 31
10, 53040, Note_off_c, 9, 44, 80
10, 53040, Note_on_c, 9, 44, 63
10, 53160, Note_off_c, 9, 44, 80
10, 53160, Note_on_c, 9, 44, 79
10, 53280, Note_off_c, 9, 44, 80
10, 53280, Note_on_c, 9, 44, 95
10, 53280, Note_on_c, 9, 37, 95
10, 53400, Note_off_c, 9, 44, 80
10, 53400, Note_off_c, 9, 37, 80
10, 53400, Note_on_c, 9, 44, 31
10, 53520, Note_off_c, 9, 44, 80
10, 53520, Note_on_c, 9, 44, 63
10, 53520, Note_on_c, 9, 36, 95
10, 53640, Note_off_c, 9, 44, 80
10, 53640, Note_off_c, 9, 36, 80
10, 53640, Note_on_c, 9, 44, 79
10, 53760, Note_off_c, 9, 44, 80
10, 53760, Note_on_c, 9, 44, 95
10, 53880, Note_off_c, 9, 44, 80
10, 53880, Note_on_c, 9, 44, 31
10, 54000, Note_off_c, 9, 44, 80
10, 54000, Note_on_c, 9, 44, 63
10, 54120, Note_off_c, 9, 44, 80
10, 54120, Note_on_c, 9, 44, 79
10, 54240, Note_off_c, 9, 44, 80
10, 54240, Note_on_c, 9, 44, 95
10, 54240, Note_on_c, 9, 37, 95
10, 54360, Note_off_c, 9, 44, 80
10, 54360, Note_off_c, 9, 37, 80
10, 54360, Note_on_c, 9, 44, 31
10, 54480, Note_off_c, 9, 44, 80
10, 54480, Note_on_c, 9, 44, 63
10, 54600, Note_off_c, 9, 44, 80
10, 54600, Note_on_c, 9, 44, 79
10, 54720, Note_off_c, 9, 44, 80
10, 54720, Note_on_c, 9, 44, 95
10, 54720, Note_on_c, 9, 36, 79
10, 54840, Note_off_c, 9, 44, 80
10, 54840, Note_off_c, 9, 36, 80
10, 54840, Note_on_c, 9, 44, 31
10, 54960, Note_off_c, 9, 44, 80
10, 54960, Note_on_c, 9, 44, 63
10, 55080, Note_off_c, 9, 44, 80
10, 55080, Note_on_c, 9, 44, 79
10, 55200, Note_off_c, 9, 44, 80
10, 55200, Note_on_c, 9, 44, 95
10, 55200, Note_on_c, 9, 37, 95
10, 55320, Note_off_c, 9, 44, 80
10, 55320, Note_off_c, 9, 37, 80
10, 55320, Note_on_c, 9, 44, 31
10, 55440, Note_off_c, 9, 44, 80
10, 55440, Note_on_c, 9, 44, 63
10, 55440, Note_on_c, 9, 46, 95
10, 55560, Note_off_c, 9, 44, 80
10, 55560, Note_off_c, 9, 46, 80
10, 55560, Note_on_c, 9, 44, 79
10, 55680, Note_off_c, 9, 44, 80
10, 55680, Note_on_c, 9, 44, 95
10, 55800, Note_off_c, 9, 44, 80
10, 55800, Note_on_c, 9, 44, 31
10, 55920, Note_off_c, 9, 44, 80
10, 55920, Note_on_c, 9, 44, 63
10, 56040, Note_off_c, 9, 44, 80
10, 56040, Note_on_c, 9, 44, 79
10, 56040, Note_on_c, 9, 36, 95
10, 56160, Note_off_c, 9, 44, 80
10, 56160, Note_off_c, 9, 36, 80
10, 56160, Note_on_c, 9, 44, 95
10, 56160, Note_on_c, 9, 37, 95
10, 56160, Note_on_c, 9, 42, 95
10, 56280, Note_off_c, 9, 44, 80
10, 56280, Note_off_c, 9, 37, 80
10, 56280, Note_off_c, 9, 42, 80
10, 56280, Note_on_c, 9, 44, 31
10, 56400, Note_off_c, 9, 44, 80
10, 56400, Note_on_c, 9, 44, 63
10, 56400, Note_on_c, 9, 36, 95
10, 56520, Note_off_c, 9, 44, 80
10, 56520, Note_off_c, 9, 36, 80
10, 56520, Note_on_c, 9, 44, 79
10, 56640, Note_off_c, 9, 44, 80
10, 56640, Note_on_c, 9, 44, 95
10, 56640, Note_on_c, 9, 36, 95
10, 56760, Note_off_c, 9, 44, 80
10, 56760, Note_off_c, 9, 36, 80
10, 56760, Note_on_c, 9, 44, 31
10, 56880, Note_off_c, 9, 44, 80
10, 56880, Note_on_c, 9, 44, 63
10, 57000, Note_off_c, 9, 44, 80
10, 57000, Note_on_c, 9, 44, 79
10, 57120, Note_off_c, 9, 44, 80
10, 57120, Note_on_c, 9, 44, 95
10, 57120, Note_on_c, 9, 37, 95
10, 57240, Note_off_c, 9, 44, 80
10, 57240, Note_off_c, 9, 37, 80
10, 57240, Note_on_c, 9, 44, 31
10, 57360, Note_off_c, 9, 44, 80
10, 57360, Note_on_c, 9, 44, 63
10, 57360, Note_on_c, 9, 36, 95
10, 57480, Note_off_c, 9, 44, 80
10, 57480, Note_off_c, 9, 36, 80
10, 57480, Note_on_c, 9, 44, 79
10, 57600, Note_off_c, 9, 44, 80
10, 57600, Note_on_c, 9, 44, 95
10, 57720, Note_off_c, 9, 44, 80
10, 57720, Note_on_c, 9, 44, 31
10, 57840, Note_off_c, 9, 44, 80
10, 57840, Note_on_c, 9, 44, 63
10, 57960, Note_off_c, 9, 44, 80
10, 57960, Note_on_c, 9, 44, 79
10, 58080, Note_off_c, 9, 44, 80
10, 58080, Note_on_c, 9, 44, 95
10, 58080, Note_on_c, 9, 37, 95
10, 58200, Note_off_c, 9, 44, 80
10, 58200, Note_off_c, 9, 37, 80
10, 58200, Note_on_c, 9, 44, 31
10, 58320, Note_off_c, 9, 44, 80
10, 58320, Note_on_c, 9, 44, 63
10, 58440, Note_off_c, 9, 44, 80
10, 58440, Note_on_c, 9, 44, 79
10, 58560, Note_off_c, 9, 44, 80
10, 58560, Note_on_c, 9, 44, 95
10, 58560, Note_on_c, 9, 36, 79
10, 58680, Note_off_c, 9, 44, 80
10, 58680, Note_off_c, 9, 36, 80
10, 58680, Note_on_c, 9, 44, 31
10, 58800, Note_off_c, 9, 44, 80
10, 58800, Note_on_c, 9, 44, 63
10, 58920, Note_off_c, 9, 44, 80
10, 58920, Note_on_c, 9, 44, 79
10, 59040, Note_off_c, 9, 44, 80
10, 59040, Note_on_c, 9, 44, 95
10, 59040, Note_on_c, 9, 37, 95
10, 59160, Note_off_c, 9, 44, 80
10, 59160, Note_off_c, 9, 37, 80
10, 59160, Note_on_c, 9, 44, 31
10, 59280, Note_off_c, 9, 44, 80
10, 59280, Note_on_c, 9, 44, 63
10, 59280, Note_on_c, 9, 46, 95
10, 59400, Note_off_c, 9, 44, 80
10, 59400, Note_on_c, 9, 44, 79
10, 59520, Note_off_c, 9, 44, 80
10, 59520, Note_on_c, 9, 44, 95
10, 59640, Note_off_c, 9, 46, 80
10, 59640, Note_off_c, 9, 44, 80
10, 59640, Note_on_c, 9, 44, 31
10, 59760, Note_off_c, 9, 44, 80
10, 59760, Note_on_c, 9, 44, 63
10, 59880, Note_off_c, 9, 44, 80
10, 59880, Note_on_c, 9, 44, 79
10, 59880, Note_on_c, 9, 36, 95
10, 60000, Note_off_c, 9, 44, 80
10, 60000, Note_off_c, 9, 36, 80
10, 60000, Note_on_c, 9, 44, 95
10, 60000, Note_on_c, 9, 37, 95
10, 60000, Note_on_c, 9, 42, 95
10, 60120, Note_off_c, 9, 44, 80
10, 60120, Note_off_c, 9, 37, 80
10, 60120, Note_off_c, 9, 42, 80
10, 60120, Note_on_c, 9, 44, 31
10, 60240, Note_off_c, 9, 44, 80
10, 60240, Note_on_c, 9, 44, 63
10, 60240, Note_on_c, 9, 36, 95
10, 60360, Note_off_c, 9, 44, 80
10, 60360, Note_off_c, 9, 36, 80
10, 60360, Note_on_c, 9, 44, 79
10, 60480, Note_off_c, 9, 44, 80
10, 60480, Note_on_c, 9, 44, 95
10, 60480, Note_on_c, 9, 36, 95
10, 60600, Note_off_c, 9, 44, 80
10, 60600, Note_off_c, 9, 36, 80
10, 60600, Note_on_c, 9, 44, 31
10, 60720, Note_off_c, 9, 44, 80
10, 60720, Note_on_c, 9, 44, 63
10, 60840, Note_off_c, 9, 44, 80
10, 60840, Note_on_c, 9, 44, 79
10, 60960, Note_off_c, 9, 44, 80
10, 60960, Note_on_c, 9, 44, 95
10, 60960, Note_on_c, 9, 37, 95
10, 61080, Note_off_c, 9, 44, 80
10, 61080, Note_off_c, 9, 37, 80
10, 61080, Note_on_c, 9, 44, 31
10, 61200, Note_off_c, 9, 44, 80
10, 61200, Note_on_c, 9, 44, 63
10, 61200, Note_on_c, 9, 36, 95
10, 61320, Note_off_c, 9, 44, 80
10, 61320, Note_off_c, 9, 36, 80
10, 61320, Note_on_c, 9, 44, 79
10, 61440, Note_off_c, 9, 44, 80
10, 61440, Note_on_c, 9, 44, 95
10, 61560, Note_off_c, 9, 44, 80
10, 61560, Note_on_c, 9, 44, 31
10, 61680, Note_off_c, 9, 44, 80
10, 61680, Note_on_c, 9, 44, 63
10, 61800, Note_off_c, 9, 44, 80
10, 61800, Note_on_c, 9, 44, 79
10, 61920, Note_off_c, 9, 44, 80
10, 61920, Note_on_c, 9, 44, 95
10, 61920, Note_on_c, 9, 37, 95
10, 62040, Note_off_c, 9, 44, 80
10, 62040, Note_off_c, 9, 37, 80
10, 62040, Note_on_c, 9, 44, 31
10, 62160, Note_off_c, 9, 44, 80
10, 62160, Note_on_c, 9, 44, 63
10, 62280, Note_off_c, 9, 44, 80
10, 62280, Note_on_c, 9, 44, 79
10, 62400, Note_off_c, 9, 44, 80
10, 62400, Note_on_c, 9, 44, 95
10, 62400, Note_on_c, 9, 36, 79
10, 62520, Note_off_c, 9, 44, 80
10, 62520, Note_off_c, 9, 36, 80
10, 62520, Note_on_c, 9, 44, 31
10, 62640, Note_off_c, 9, 44, 80
10, 62640, Note_on_c, 9, 44, 63
10, 62760, Note_off_c, 9, 44, 80
10, 62760, Note_on_c, 9, 44, 79
10, 62880, Note_off_c, 9, 44, 80
10, 62880, Note_on_c, 9, 44, 95
10, 62880, Note_on_c, 9, 37, 95
10, 63000, Note_off_c, 9, 44, 80
10, 63000, Note_off_c, 9, 37, 80
10, 63000, Note_on_c, 9, 44, 31
10, 63120, Note_off_c, 9, 44, 80
10, 63120, Note_on_c, 9, 44, 63
10, 63120, Note_on_c, 9, 46, 95
10, 63240, Note_off_c, 9, 44, 80
10, 63240, Note_off_c, 9, 46, 80
10, 63240, Note_on_c, 9, 44, 79
10, 63360, Note_off_c, 9, 44, 80
10, 63360, Note_on_c, 9, 44, 95
10, 63480, Note_off_c, 9, 44, 80
10, 63480, Note_on_c, 9, 44, 31
10, 63600, Note_off_c, 9, 44, 80
10, 63600, Note_on_c, 9, 44, 63
10, 63720, Note_off_c, 9, 44, 80
10, 63720, Note_on_c, 9, 44, 79
10, 63720, Note_on_c, 9, 36, 95
10, 63840, Note_off_c, 9, 44, 80
10, 63840, Note_off_c, 9, 36, 80
10, 63840, Note_on_c, 9, 44, 95
10, 63840, Note_on_c, 9, 37, 95
10, 63840, Note_on_c, 9, 42, 95
10, 63960, Note_off_c, 9, 44, 80
10, 63960, Note_off_c, 9, 37, 80
10, 63960, Note_off_c, 9, 42, 80
10, 63960, Note_on_c, 9, 44, 31
10, 64080, Note_off_c, 9, 44, 80
10, 64080, Note_on_c, 9, 44, 63
10, 64080, Note_on_c, 9, 36, 95
10, 64200, Note_off_c, 9, 44, 80
10, 64200, Note_off_c, 9, 36, 80
10, 64200, Note_on_c, 9, 44, 79
10, 64320, Note_off_c, 9, 44, 80
10, 64320, Note_on_c, 9, 44, 95
10, 64320, Note_on_c, 9, 36, 95
10, 64440, Note_off_c, 9, 44, 80
10, 64440, Note_off_c, 9, 36, 80
10, 64440, Note_on_c, 9, 44, 31
10, 64560, Note_off_c, 9, 44, 80
10, 64560, Note_on_c, 9, 44, 63
10, 64680, Note_off_c, 9, 44, 80
10, 64680, Note_on_c, 9, 44, 79
10, 64800, Note_off_c, 9, 44, 80
10, 64800, Note_on_c, 9, 44, 95
10, 64800, Note_on_c, 9, 37, 95
10, 64920, Note_off_c, 9, 44, 80
10, 64920, Note_off_c, 9, 37, 80
10, 64920, Note_on_c, 9, 44, 31
10, 65040, Note_off_c, 9, 44, 80
10, 65040, Note_on_c, 9, 44, 63
10, 65040, Note_on_c, 9, 36, 95
10, 65160, Note_off_c, 9, 44, 80
10, 65160, Note_off_c, 9, 36, 80
10, 65160, Note_on_c, 9, 44, 79
10, 65280, Note_off_c, 9, 44, 80
10, 65280, Note_on_c, 9, 44, 95
10, 65400, Note_off_c, 9, 44, 80
10, 65400, Note_on_c, 9, 44, 31
10, 65520, Note_off_c, 9, 44, 80
10, 65520, Note_on_c, 9, 44, 63
10, 65640, Note_off_c, 9, 44, 80
10, 65640, Note_on_c, 9, 44, 79
10, 65760, Note_off_c, 9, 44, 80
10, 65760, Note_on_c, 9, 44, 95
10, 65760, Note_on_c, 9, 37, 95
10, 65880, Note_off_c, 9, 44, 80
10, 65880, Note_off_c, 9, 37, 80
10, 65880, Note_on_c, 9, 44, 31
10, 66000, Note_off_c, 9, 44, 80
10, 66000, Note_on_c, 9, 44, 63
10, 66120, Note_off_c, 9, 44, 80
10, 66120, Note_on_c, 9, 44, 79
10, 66240, Note_off_c, 9, 44, 80
10, 66240, Note_on_c, 9, 44, 95
10, 66240, Note_on_c, 9, 36, 79
10, 66360, Note_off_c, 9, 44, 80
10, 66360, Note_off_c, 9, 36, 80
10, 66360, Note_on_c, 9, 44, 31
10, 66480, Note_off_c, 9, 44, 80
10, 66480, Note_on_c, 9, 44, 63
10, 66600, Note_off_c, 9, 44, 80
10, 66600, Note_on_c, 9, 44, 79
10, 66720, Note_off_c, 9, 44, 80
10, 66720, Note_on_c, 9, 44, 95
10, 66720, Note_on_c, 9, 37, 95
10, 66840, Note_off_c, 9, 44, 80
10, 66840, Note_off_c, 9, 37, 80
10, 66840, Note_on_c, 9, 44, 31
10, 66960, Note_off_c, 9, 44, 80
10, 66960, Note_on_c, 9, 44, 63
10, 66960, Note_on_c, 9, 46, 95
10, 67080, Note_off_c, 9, 44, 80
10, 67080, Note_off_c, 9, 46, 80
10, 67080, Note_on_c, 9, 44, 79
10, 67200, Note_off_c, 9, 44, 80
10, 67200, Note_on_c, 9, 44, 95
10, 67200, Note_on_c, 9, 52, 95
10, 67320, Note_off_c, 9, 44, 80
10, 67320, Note_off_c, 9, 52, 80
10, 67320, Note_on_c, 9, 44, 31
10, 67440, Note_off_c, 9, 44, 80
10, 67440, Note_on_c, 9, 44, 63
10, 67560, Note_off_c, 9, 44, 80
10, 67560, Note_on_c, 9, 44, 79
10, 67560, Note_on_c, 9, 36, 95
10, 67680, Note_off_c, 9, 44, 80
10, 67680, Note_off_c, 9, 36, 80
10, 67680, Note_on_c, 9, 44, 95
10, 67680, Note_on_c, 9, 37, 95
10, 67680, Note_on_c, 9, 42, 95
10, 67800, Note_off_c, 9, 44, 80
10, 67800, Note_off_c, 9, 37, 80
10, 67800, Note_off_c, 9, 42, 80
10, 67800, Note_on_c, 9, 44, 31
10, 67920, Note_off_c, 9, 44, 80
10, 67920, Note_on_c, 9, 44, 63
10, 67920, Note_on_c, 9, 36, 95
10, 68040, Note_off_c, 9, 44, 80
10, 68040, Note_off_c, 9, 36, 80
10, 68040, Note_on_c, 9, 44, 79
10, 68160, Note_off_c, 9, 44, 80
10, 68160, Note_on_c, 9, 44, 95
10, 68160, Note_on_c, 9, 36, 95
10, 68280, Note_off_c, 9, 44, 80
10, 68280, Note_off_c, 9, 36, 80
10, 68280, Note_on_c, 9, 44, 31
10, 68400, Note_off_c, 9, 44, 80
10, 68400, Note_on_c, 9, 44, 63
10, 68520, Note_off_c, 9, 44, 80
10, 68520, Note_on_c, 9, 44, 79
10, 68640, Note_off_c, 9, 44, 80
10, 68640, Note_on_c, 9, 44, 95
10, 68640, Note_on_c, 9, 37, 95
10, 68760, Note_off_c, 9, 44, 80
10, 68760, Note_off_c, 9, 37, 80
10, 68760, Note_on_c, 9, 44, 31
10, 68880, Note_off_c, 9, 44, 80
10, 68880, Note_on_c, 9, 44, 63
10, 68880, Note_on_c, 9, 36, 95
10, 69000, Note_off_c, 9, 44, 80
10, 69000, Note_off_c, 9, 36, 80
10, 69000, Note_on_c, 9, 44, 79
10, 69120, Note_off_c, 9, 44, 80
10, 69120, Note_on_c, 9, 44, 95
10, 69240, Note_off_c, 9, 44, 80
10, 69240, Note_on_c, 9, 44, 31
10, 69360, Note_off_c, 9, 44, 80
10, 69360, Note_on_c, 9, 44, 63
10, 69480, Note_off_c, 9, 44, 80
10, 69480, Note_on_c, 9, 44, 79
10, 69600, Note_off_c, 9, 44, 80
10, 69600, Note_on_c, 9, 44, 95
10, 69600, Note_on_c, 9, 37, 95
10, 69720, Note_off_c, 9, 44, 80
10, 69720, Note_off_c, 9, 37, 80
10, 69720, Note_on_c, 9, 44, 31
10, 69840, Note_off_c, 9, 44, 80
10, 69840, Note_on_c, 9, 44, 63
10, 69960, Note_off_c, 9, 44, 80
10, 69960, Note_on_c, 9, 44, 79
10, 70080, Note_off_c, 9, 44, 80
10, 70080, Note_on_c, 9, 44, 95
10, 70080, Note_on_c, 9, 36, 79
10, 70200, Note_off_c, 9, 44, 80
10, 70200, Note_off_c, 9, 36, 80
10, 70200, Note_on_c, 9, 44, 31
10, 70320, Note_off_c, 9, 44, 80
10, 70320, Note_on_c, 9, 44, 63
10, 70440, Note_off_c, 9, 44, 80
10, 70440, Note_on_c, 9, 44, 79
10, 70560, Note_off_c, 9, 44, 80
10, 70560, Note_on_c, 9, 44, 95
10, 70560, Note_on_c, 9, 37, 95
10, 70680, Note_off_c, 9, 44, 80
10, 70680, Note_off_c, 9, 37, 80
10, 70680, Note_on_c, 9, 44, 31
10, 70800, Note_off_c, 9, 44, 80
10, 70800, Note_on_c, 9, 44, 63
10, 70800, Note_on_c, 9, 46, 95
10, 70920, Note_off_c, 9, 44, 80
10, 70920, Note_off_c, 9, 46, 80
10, 70920, Note_on_c, 9, 44, 79
10, 71040, Note_off_c, 9, 44, 80
10, 71040, Note_on_c, 9, 44, 95
10, 71160, Note_off_c, 9, 44, 80
10, 71160, Note_on_c, 9, 44, 31
10, 71280, Note_off_c, 9, 44, 80
10, 71280, Note_on_c, 9, 44, 63
10, 71400, Note_off_c, 9, 44, 80
10, 71400, Note_on_c, 9, 44, 79
10, 71400, Note_on_c, 9, 36, 95
10, 71520, Note_off_c, 9, 44, 80
10, 71520, Note_off_c, 9, 36, 80
10, 71520, Note_on_c, 9, 44, 95
10, 71520, Note_on_c, 9, 37, 95
10, 71520, Note_on_c, 9, 42, 95
10, 71640, Note_off_c, 9, 44, 80
10, 71640, Note_off_c, 9, 37, 80
10, 71640, Note_off_c, 9, 42, 80
10, 71640, Note_on_c, 9, 44, 31
10, 71760, Note_off_c, 9, 44, 80
10, 71760, Note_on_c, 9, 44, 63
10, 71760, Note_on_c, 9, 36, 95
10, 71880, Note_off_c, 9, 44, 80
10, 71880, Note_off_c, 9, 36, 80
10, 71880, Note_on_c, 9, 44, 79
10, 72000, Note_off_c, 9, 44, 80
10, 72000, Note_on_c, 9, 44, 95
10, 72000, Note_on_c, 9, 36, 95
10, 72120, Note_off_c, 9, 44, 80
10, 72120, Note_off_c, 9, 36, 80
10, 72120, Note_on_c, 9, 44, 31
10, 72240, Note_off_c, 9, 44, 80
10, 72240, Note_on_c, 9, 44, 63
10, 72360, Note_off_c, 9, 44, 80
10, 72360, Note_on_c, 9, 44, 79
10, 72480, Note_off_c, 9, 44, 80
10, 72480, Note_on_c, 9, 44, 95
10, 72480, Note_on_c, 9, 37, 95
10, 72600, Note_off_c, 9, 44, 80
10, 72600, Note_off_c, 9, 37, 80
10, 72600, Note_on_c, 9, 44, 31
10, 72720, Note_off_c, 9, 44, 80
10, 72720, Note_on_c, 9, 44, 63
10, 72720, Note_on_c, 9, 36, 95
10, 72840, Note_off_c, 9, 44, 80
10, 72840, Note_off_c, 9, 36, 80
10, 72840, Note_on_c, 9, 44, 79
10, 72960, Note_off_c, 9, 44, 80
10, 72960, Note_on_c, 9, 44, 95
10, 73080, Note_off_c, 9, 44, 80
10, 73080, Note_on_c, 9, 44, 31
10, 73200, Note_off_c, 9, 44, 80
10, 73200, Note_on_c, 9, 44, 63
10, 73320, Note_off_c, 9, 44, 80
10, 73320, Note_on_c, 9, 44, 79
10, 73440, Note_off_c, 9, 44, 80
10, 73440, Note_on_c, 9, 44, 95
10, 73440, Note_on_c, 9, 37, 95
10, 73560, Note_off_c, 9, 44, 80
10, 73560, Note_off_c, 9, 37, 80
10, 73560, Note_on_c, 9, 44, 31
10, 73680, Note_off_c, 9, 44, 80
10, 73680, Note_on_c, 9, 44, 63
10, 73800, Note_off_c, 9, 44, 80
10, 73800, Note_on_c, 9, 44, 79
10, 73920, Note_off_c, 9, 44, 80
10, 73920, Note_on_c, 9, 44, 95
10, 73920, Note_on_c, 9, 36, 79
10, 74040, Note_off_c, 9, 44, 80
10, 74040, Note_off_c, 9, 36, 80
10, 74040, Note_on_c, 9, 44, 31
10, 74160, Note_off_c, 9, 44, 80
10, 74160, Note_on_c, 9, 44, 63
10, 74280, Note_off_c, 9, 44, 80
10, 74280, Note_on_c, 9, 44, 79
10, 74400, Note_off_c, 9, 44, 80
10, 74400, Note_on_c, 9, 44, 95
10, 74400, Note_on_c, 9, 37, 95
10, 74520, Note_off_c, 9, 44, 80
10, 74520, Note_off_c, 9, 37, 80
10, 74520, Note_on_c, 9, 44, 31
10, 74640, Note_off_c, 9, 44, 80
10, 74640, Note_on_c, 9, 44, 63
10, 74640, Note_on_c, 9, 46, 95
10, 74760, Note_off_c, 9, 44, 80
10, 74760, Note_off_c, 9, 46, 80
10, 74760, Note_on_c, 9, 44, 79
10, 74880, Note_off_c, 9, 44, 80
10, 74880, Note_on_c, 9, 44, 95
10, 75000, Note_off_c, 9, 44, 80
10, 75000, Note_on_c, 9, 44, 31
10, 75120, Note_off_c, 9, 44, 80
10, 75120, Note_on_c, 9, 44, 63
10, 75240, Note_off_c, 9, 44, 80
10, 75240, Note_on_c, 9, 44, 79
10, 75240, Note_on_c, 9, 36, 95
10, 75360, Note_off_c, 9, 44, 80
10, 75360, Note_off_c, 9, 36, 80
10, 75360, Note_on_c, 9, 44, 95
10, 75360, Note_on_c, 9, 37, 95
10, 75360, Note_on_c, 9, 42, 95
10, 75480, Note_off_c, 9, 44, 80
10, 75480, Note_off_c, 9, 37, 80
10, 75480, Note_off_c, 9, 42, 80
10, 75480, Note_on_c, 9, 44, 31
10, 75600, Note_off_c, 9, 44, 80
10, 75600, Note_on_c, 9, 44, 63
10, 75600, Note_on_c, 9, 36, 95
10, 75720, Note_off_c, 9, 44, 80
10, 75720, Note_off_c, 9, 36, 80
10, 75720, Note_on_c, 9, 44, 79
10, 75840, Note_off_c, 9, 44, 80
10, 75840, Note_on_c, 9, 44, 95
10, 75840, Note_on_c, 9, 36, 95
10, 75960, Note_off_c, 9, 44, 80
10, 75960, Note_off_c, 9, 36, 80
10, 75960, Note_on_c, 9, 44, 31
10, 76080, Note_off_c, 9, 44, 80
10, 76080, Note_on_c, 9, 44, 63
10, 76200, Note_off_c, 9, 44, 80
10, 76200, Note_on_c, 9, 44, 79
10, 76320, Note_off_c, 9, 44, 80
10, 76320, Note_on_c, 9, 44, 95
10, 76320, Note_on_c, 9, 37, 95
10, 76440, Note_off_c, 9, 44, 80
10, 76440, Note_off_c, 9, 37, 80
10, 76440, Note_on_c, 9, 44, 31
10, 76560, Note_off_c, 9, 44, 80
10, 76560, Note_on_c, 9, 44, 63
10, 76560, Note_on_c, 9, 36, 95
10, 76680, Note_off_c, 9, 44, 80
10, 76680, Note_off_c, 9, 36, 80
10, 76680, Note_on_c, 9, 44, 79
10, 76800, Note_off_c, 9, 44, 80
10, 76800, Note_on_c, 9, 44, 95
10, 76920, Note_off_c, 9, 44, 80
10, 76920, Note_on_c, 9, 44, 31
10, 77040, Note_off_c, 9, 44, 80
10, 77040, Note_on_c, 9, 44, 63
10, 77160, Note_off_c, 9, 44, 80
10, 77160, Note_on_c, 9, 44, 79
10, 77280, Note_off_c, 9, 44, 80
10, 77280, Note_on_c, 9, 44, 95
10, 77280, Note_on_c, 9, 37, 95
10, 77400, Note_off_c, 9, 44, 80
10, 77400, Note_off_c, 9, 37, 80
10, 77400, Note_on_c, 9, 44, 31
10, 77520, Note_off_c, 9, 44, 80
10, 77520, Note_on_c, 9, 44, 63
10, 77640, Note_off_c, 9, 44, 80
10, 77640, Note_on_c, 9, 44, 79
10, 77760, Note_off_c, 9, 44, 80
10, 77760, Note_on_c, 9, 44, 95
10, 77760, Note_on_c, 9, 36, 79
10, 77880, Note_off_c, 9, 44, 80
10, 77880, Note_off_c, 9, 36, 80
10, 77880, Note_on_c, 9, 44, 31
10, 78000, Note_off_c, 9, 44, 80
10, 78000, Note_on_c, 9, 44, 63
10, 78120, Note_off_c, 9, 44, 80
10, 78120, Note_on_c, 9, 44, 79
10, 78240, Note_off_c, 9, 44, 80
10, 78240, Note_on_c, 9, 44, 95
10, 78240, Note_on_c, 9, 37, 95
10, 78360, Note_off_c, 9, 44, 80
10, 78360, Note_off_c, 9, 37, 80
10, 78360, Note_on_c, 9, 44, 31
10, 78480, Note_off_c, 9, 44, 80
10, 78480, Note_on_c, 9, 44, 63
10, 78480, Note_on_c, 9, 46, 95
10, 78600, Note_off_c, 9, 44, 80
10, 78600, Note_off_c, 9, 46, 80
10, 78600, Note_on_c, 9, 44, 79
10, 78720, Note_off_c, 9, 44, 80
10, 78720, Note_on_c, 9, 44, 95
10, 78840, Note_off_c, 9, 44, 80
10, 78840, Note_on_c, 9, 44, 31
10, 78960, Note_off_c, 9, 44, 80
10, 78960, Note_on_c, 9, 44, 63
10, 79080, Note_off_c, 9, 44, 80
10, 79080, Note_on_c, 9, 44, 79
10, 79080, Note_on_c, 9, 36, 95
10, 79200, Note_off_c, 9, 44, 80
10, 79200, Note_off_c, 9, 36, 80
10, 79200, Note_on_c, 9, 44, 95
10, 79200, Note_on_c, 9, 37, 95
10, 79200, Note_on_c, 9, 42, 95
10, 79320, Note_off_c, 9, 44, 80
10, 79320, Note_off_c, 9, 37, 80
10, 79320, Note_off_c, 9, 42, 80
10, 79320, Note_on_c, 9, 44, 31
10, 79440, Note_off_c, 9, 44, 80
10, 79440, Note_on_c, 9, 44, 63
10, 79440, Note_on_c, 9, 36, 95
10, 79560, Note_off_c, 9, 44, 80
10, 79560, Note_off_c, 9, 36, 80
10, 79560, Note_on_c, 9, 44, 79
10, 79680, Note_off_c, 9, 44, 80
10, 79680, Note_on_c, 9, 44, 95
10, 79680, Note_on_c, 9, 36, 95
10, 79800, Note_off_c, 9, 44, 80
10, 79800, Note_off_c, 9, 36, 80
10, 79800, Note_on_c, 9, 44, 31
10, 79920, Note_off_c, 9, 44, 80
10, 79920, Note_on_c, 9, 44, 63
10, 80040, Note_off_c, 9, 44, 80
10, 80040, Note_on_c, 9, 44, 79
10, 80160, Note_off_c, 9, 44, 80
10, 80160, Note_on_c, 9, 44, 95
10, 80160, Note_on_c, 9, 37, 95
10, 80280, Note_off_c, 9, 44, 80
10, 80280, Note_off_c, 9, 37, 80
10, 80280, Note_on_c, 9, 44, 31
10, 80400, Note_off_c, 9, 44, 80
10, 80400, Note_on_c, 9, 44, 63
10, 80400, Note_on_c, 9, 36, 95
10, 80520, Note_off_c, 9, 44, 80
10, 80520, Note_off_c, 9, 36, 80
10, 80520, Note_on_c, 9, 44, 79
10, 80640, Note_off_c, 9, 44, 80
10, 80640, Note_on_c, 9, 44, 95
10, 80760, Note_off_c, 9, 44, 80
10, 80760, Note_on_c, 9, 44, 31
10, 80880, Note_off_c, 9, 44, 80
10, 80880, Note_on_c, 9, 44, 63
10, 81000, Note_off_c, 9, 44, 80
10, 81000, Note_on_c, 9, 44, 79
10, 81120, Note_off_c, 9, 44, 80
10, 81120, Note_on_c, 9, 44, 95
10, 81120, Note_on_c, 9, 37, 95
10, 81240, Note_off_c, 9, 44, 80
10, 81240, Note_off_c, 9, 37, 80
10, 81240, Note_on_c, 9, 44, 31
10, 81360, Note_off_c, 9, 44, 80
10, 81360, Note_on_c, 9, 44, 63
10, 81480, Note_off_c, 9, 44, 80
10, 81480, Note_on_c, 9, 44, 79
10, 81600, Note_off_c, 9, 44, 80
10, 81600, Note_on_c, 9, 44, 95
10, 81600, Note_on_c, 9, 36, 79
10, 81720, Note_off_c, 9, 44, 80
10, 81720, Note_off_c, 9, 36, 80
10, 81720, Note_on_c, 9, 44, 31
10, 81840, Note_off_c, 9, 44, 80
10, 81840, Note_on_c, 9, 44, 63
10, 81960, Note_off_c, 9, 44, 80
10, 81960, Note_on_c, 9, 44, 79
10, 82080, Note_off_c, 9, 44, 80
10, 82080, Note_on_c, 9, 44, 95
10, 82080, Note_on_c, 9, 37, 95
10, 82200, Note_off_c, 9, 44, 80
10, 82200, Note_off_c, 9, 37, 80
10, 82200, Note_on_c, 9, 44, 31
10, 82320, Note_off_c, 9, 44, 80
10, 82320, Note_on_c, 9, 44, 63
10, 82320, Note_on_c, 9, 46, 95
10, 82440, Note_off_c, 9, 44, 80
10, 82440, Note_off_c, 9, 46, 80
10, 82440, Note_on_c, 9, 44, 79
10, 82440, Note_on_c, 9, 84, 95
10, 82560, Note_off_c, 9, 44, 80
10, 82560, Note_on_c, 9, 44, 95
10, 82560, Note_on_c, 9, 52, 95
10, 82680, Note_off_c, 9, 84, 80
10, 82680, Note_off_c, 9, 44, 80
10, 82680, Note_off_c, 9, 52, 80
10, 82680, Note_on_c, 9, 44, 31
10, 82800, Note_off_c, 9, 44, 80
10, 82800, Note_on_c, 9, 44, 63
10, 82920, Note_off_c, 9, 44, 80
10, 82920, Note_on_c, 9, 44, 79
10, 82920, Note_on_c, 9, 36, 95
10, 83040, Note_off_c, 9, 44, 80
10, 83040, Note_off_c, 9, 36, 80
10, 83040, Note_on_c, 9, 44, 95
10, 83040, Note_on_c, 9, 37, 95
10, 83040, Note_on_c, 9, 42, 95
10, 83160, Note_off_c, 9, 44, 80
10, 83160, Note_off_c, 9, 37, 80
10, 83160, Note_off_c, 9, 42, 80
10, 83160, Note_on_c, 9, 44, 31
10, 83280, Note_off_c, 9, 44, 80
10, 83280, Note_on_c, 9, 44, 63
10, 83280, Note_on_c, 9, 36, 95
10, 83400, Note_off_c, 9, 44, 80
10, 83400, Note_off_c, 9, 36, 80
10, 83400, Note_on_c, 9, 44, 79
10, 83520, Note_off_c, 9, 44, 80
10, 83520, Note_on_c, 9, 44, 95
10, 83520, Note_on_c, 9, 36, 95
10, 83640, Note_off_c, 9, 44, 80
10, 83640, Note_off_c, 9, 36, 80
10, 83640, Note_on_c, 9, 44, 31
10, 83760, Note_off_c, 9, 44, 80
10, 83760, Note_on_c, 9, 44, 63
10, 83880, Note_off_c, 9, 44, 80
10, 83880, Note_on_c, 9, 44, 79
10, 84000, Note_off_c, 9, 44, 80
10, 84000, Note_on_c, 9, 44, 95
10, 84000, Note_on_c, 9, 37, 95
10, 84120, Note_off_c, 9, 44, 80
10, 84120, Note_off_c, 9, 37, 80
10, 84120, Note_on_c, 9, 44, 31
10, 84240, Note_off_c, 9, 44, 80
10, 84240, Note_on_c, 9, 44, 63
10, 84240, Note_on_c, 9, 36, 95
10, 84360, Note_off_c, 9, 44, 80
10, 84360, Note_off_c, 9, 36, 80
10, 84360, Note_on_c, 9, 44, 79
10, 84480, Note_off_c, 9, 44, 80
10, 84480, Note_on_c, 9, 44, 95
10, 84600, Note_off_c, 9, 44, 80
10, 84600, Note_on_c, 9, 44, 31
10, 84720, Note_off_c, 9, 44, 80
10, 84720, Note_on_c, 9, 44, 63
10, 84840, Note_off_c, 9, 44, 80
10, 84840, Note_on_c, 9, 44, 79
10, 84960, Note_off_c, 9, 44, 80
10, 84960, Note_on_c, 9, 44, 95
10, 84960, Note_on_c, 9, 37, 95
10, 85080, Note_off_c, 9, 44, 80
10, 85080, Note_off_c, 9, 37, 80
10, 85080, Note_on_c, 9, 44, 31
10, 85200, Note_off_c, 9, 44, 80
10, 85200, Note_on_c, 9, 44, 63
10, 85320, Note_off_c, 9, 44, 80
10, 85320, Note_on_c, 9, 44, 79
10, 85440, Note_off_c, 9, 44, 80
10, 85440, Note_on_c, 9, 44, 95
10, 85440, Note_on_c, 9, 36, 79
10, 85560, Note_off_c, 9, 44, 80
10, 85560, Note_off_c, 9, 36, 80
10, 85560, Note_on_c, 9, 44, 31
10, 85680, Note_off_c, 9, 44, 80
10, 85680, Note_on_c, 9, 44, 63
10, 85800, Note_off_c, 9, 44, 80
10, 85800, Note_on_c, 9, 44, 79
10, 85920, Note_off_c, 9, 44, 80
10, 85920, Note_on_c, 9, 44, 95
10, 85920, Note_on_c, 9, 37, 95
10, 86040, Note_off_c, 9, 44, 80
10, 86040, Note_off_c, 9, 37, 80
10, 86040, Note_on_c, 9, 44, 31
10, 86160, Note_off_c, 9, 44, 80
10, 86160, Note_on_c, 9, 44, 63
10, 86160, Note_on_c, 9, 46, 95
10, 86280, Note_off_c, 9, 44, 80
10, 86280, Note_off_c, 9, 46, 80
10, 86280, Note_on_c, 9, 44, 79
10, 86400, Note_off_c, 9, 44, 80
10, 86400, Note_on_c, 9, 44, 95
10, 86520, Note_off_c, 9, 44, 80
10, 86520, Note_on_c, 9, 44, 31
10, 86640, Note_off_c, 9, 44, 80
10, 86640, Note_on_c, 9, 44, 63
10, 86760, Note_off_c, 9, 44, 80
10, 86760, Note_on_c, 9, 44, 79
10, 86760, Note_on_c, 9, 36, 95
10, 86880, Note_off_c, 9, 44, 80
10, 86880, Note_off_c, 9, 36, 80
10, 86880, Note_on_c, 9, 44, 95
10, 86880, Note_on_c, 9, 37, 95
10, 86880, Note_on_c, 9, 42, 95
10, 87000, Note_off_c, 9, 44, 80
10, 87000, Note_off_c, 9, 37, 80
10, 87000, Note_off_c, 9, 42, 80
10, 87000, Note_on_c, 9, 44, 31
10, 87120, Note_off_c, 9, 44, 80
10, 87120, Note_on_c, 9, 44, 63
10, 87120, Note_on_c, 9, 36, 95
10, 87240, Note_off_c, 9, 44, 80
10, 87240, Note_off_c, 9, 36, 80
10, 87240, Note_on_c, 9, 44, 79
10, 87360, Note_off_c, 9, 44, 80
10, 87360, Note_on_c, 9, 44, 95
10, 87360, Note_on_c, 9, 36, 95
10, 87480, Note_off_c, 9, 44, 80
10, 87480, Note_off_c, 9, 36, 80
10, 87480, Note_on_c, 9, 44, 31
10, 87600, Note_off_c, 9, 44, 80
10, 87600, Note_on_c, 9, 44, 63
10, 87720, Note_off_c, 9, 44, 80
10, 87720, Note_on_c, 9, 44, 79
10, 87840, Note_off_c, 9, 44, 80
10, 87840, Note_on_c, 9, 44, 95
10, 87840, Note_on_c, 9, 37, 95
10, 87960, Note_off_c, 9, 44, 80
10, 87960, Note_off_c, 9, 37, 80
10, 87960, Note_on_c, 9, 44, 31
10, 88080, Note_off_c, 9, 44, 80
10, 88080, Note_on_c, 9, 44, 63
10, 88080, Note_on_c, 9, 36, 95
10, 88200, Note_off_c, 9, 44, 80
10, 88200, Note_off_c, 9, 36, 80
10, 88200, Note_on_c, 9, 44, 79
10, 88320, Note_off_c, 9, 44, 80
10, 88320, Note_on_c, 9, 44, 95
10, 88440, Note_off_c, 9, 44, 80
10, 88440, Note_on_c, 9, 44, 31
10, 88560, Note_off_c, 9, 44, 80
10, 88560, Note_on_c, 9, 44, 63
10, 88680, Note_off_c, 9, 44, 80
10, 88680, Note_on_c, 9, 44, 79
10, 88800, Note_off_c, 9, 44, 80
10, 88800, Note_on_c, 9, 44, 95
10, 88800, Note_on_c, 9, 37, 95
10, 88920, Note_off_c, 9, 44, 80
10, 88920, Note_off_c, 9, 37, 80
10, 88920, Note_on_c, 9, 44, 31
10, 89040, Note_off_c, 9, 44, 80
10, 89040, Note_on_c, 9, 44, 63
10, 89160, Note_off_c, 9, 44, 80
10, 89160, Note_on_c, 9, 44, 79
10, 89280, Note_off_c, 9, 44, 80
10, 89280, Note_on_c, 9, 44, 95
10, 89280, Note_on_c, 9, 36, 79
10, 89400, Note_off_c, 9, 44, 80
10, 89400, Note_off_c, 9, 36, 80
10, 89400, Note_on_c, 9, 44, 31
10, 89520, Note_off_c, 9, 44, 80
10, 89520, Note_on_c, 9, 44, 63
10, 89640, Note_off_c, 9, 44, 80
10, 89640, Note_on_c, 9, 44, 79
10, 89760, Note_off_c, 9, 44, 80
10, 89760, Note_on_c, 9, 44, 95
10, 89760, Note_on_c, 9, 37, 95
10, 89880, Note_off_c, 9, 44, 80
10, 89880, Note_off_c, 9, 37, 80
10, 89880, Note_on_c, 9, 44, 31
10, 90000, Note_off_c, 9, 44, 80
10, 90000, Note_on_c, 9, 44, 63
10, 90000, Note_on_c, 9, 46, 95
10, 90120, Note_off_c, 9, 44, 80
10, 90120, Note_off_c, 9, 46, 80
10, 90120, Note_on_c, 9, 44, 79
10, 90240, Note_off_c, 9, 44, 80
10, 90240, Note_on_c, 9, 44, 95
10, 90360, Note_off_c, 9, 44, 80
10, 90360, Note_on_c, 9, 44, 31
10, 90480, Note_off_c, 9, 44, 80
10, 90480, Note_on_c, 9, 44, 63
10, 90600, Note_off_c, 9, 44, 80
10, 90600, Note_on_c, 9, 44, 79
10, 90600, Note_on_c, 9, 36, 95
10, 90720, Note_off_c, 9, 44, 80
10, 90720, Note_off_c, 9, 36, 80
10, 90720, Note_on_c, 9, 44, 95
10, 90720, Note_on_c, 9, 37, 95
10, 90720, Note_on_c, 9, 42, 95
10, 90840, Note_off_c, 9, 44, 80
10, 90840, Note_off_c, 9, 37, 80
10, 90840, Note_off_c, 9, 42, 80
10, 90840, Note_on_c, 9, 44, 31
10, 90960, Note_off_c, 9, 44, 80
10, 90960, Note_on_c, 9, 44, 63
10, 90960, Note_on_c, 9, 36, 95
10, 91080, Note_off_c, 9, 44, 80
10, 91080, Note_off_c, 9, 36, 80
10, 91080, Note_on_c, 9, 44, 79
10, 91200, Note_off_c, 9, 44, 80
10, 91200, Note_on_c, 9, 44, 95
10, 91200, Note_on_c, 9, 36, 95
10, 91320, Note_off_c, 9, 44, 80
10, 91320, Note_off_c, 9, 36, 80
10, 91320, Note_on_c, 9, 44, 31
10, 91440, Note_off_c, 9, 44, 80
10, 91440, Note_on_c, 9, 44, 63
10, 91560, Note_off_c, 9, 44, 80
10, 91560, Note_on_c, 9, 44, 79
10, 91680, Note_off_c, 9, 44, 80
10, 91680, Note_on_c, 9, 44, 95
10, 91680, Note_on_c, 9, 37, 95
10, 91800, Note_off_c, 9, 44, 80
10, 91800, Note_off_c, 9, 37, 80
10, 91800, Note_on_c, 9, 44, 31
10, 91920, Note_off_c, 9, 44, 80
10, 91920, Note_on_c, 9, 44, 63
10, 91920, Note_on_c, 9, 36, 95
10, 92040, Note_off_c, 9, 44, 80
10, 92040, Note_off_c, 9, 36, 80
10, 92040, Note_on_c, 9, 44, 79
10, 92160, Note_off_c, 9, 44, 80
10, 92160, Note_on_c, 9, 44, 95
10, 92280, Note_off_c, 9, 44, 80
10, 92280, Note_on_c, 9, 44, 31
10, 92400, Note_off_c, 9, 44, 80
10, 92400, Note_on_c, 9, 44, 63
10, 92520, Note_off_c, 9, 44, 80
10, 92520, Note_on_c, 9, 44, 79
10, 92640, Note_off_c, 9, 44, 80
10, 92640, Note_on_c, 9, 44, 95
10, 92640, Note_on_c, 9, 37, 95
10, 92760, Note_off_c, 9, 44, 80
10, 92760, Note_off_c, 9, 37, 80
10, 92760, Note_on_c, 9, 44, 31
10, 92880, Note_off_c, 9, 44, 80
10, 92880, Note_on_c, 9, 44, 63
10, 93000, Note_off_c, 9, 44, 80
10, 93000, Note_on_c, 9, 44, 79
10, 93120, Note_off_c, 9, 44, 80
10, 93120, Note_on_c, 9, 44, 95
10, 93120, Note_on_c, 9, 36, 79
10, 93240, Note_off_c, 9, 44, 80
10, 93240, Note_off_c, 9, 36, 80
10, 93240, Note_on_c, 9, 44, 31
10, 93360, Note_off_c, 9, 44, 80
10, 93360, Note_on_c, 9, 44, 63
10, 93480, Note_off_c, 9, 44, 80
10, 93480, Note_on_c, 9, 44, 79
10, 93600, Note_off_c, 9, 44, 80
10, 93600, Note_on_c, 9, 44, 95
10, 93600, Note_on_c, 9, 37, 95
10, 93720, Note_off_c, 9, 44, 80
10, 93720, Note_off_c, 9, 37, 80
10, 93720, Note_on_c, 9, 44, 31
10, 93840, Note_off_c, 9, 44, 80
10, 93840, Note_on_c, 9, 44, 63
10, 93840, Note_on_c, 9, 46, 95
10, 93960, Note_off_c, 9, 44, 80
10, 93960, Note_off_c, 9, 46, 80
10, 93960, Note_on_c, 9, 44, 79
10, 94080, Note_off_c, 9, 44, 80
10, 94080, Note_on_c, 9, 44, 95
10, 94200, Note_off_c, 9, 44, 80
10, 94200, Note_on_c, 9, 44, 31
10, 94320, Note_off_c, 9, 44, 80
10, 94320, Note_on_c, 9, 44, 63
10, 94440, Note_off_c, 9, 44, 80
10, 94440, Note_on_c, 9, 44, 79
10, 94440, Note_on_c, 9, 36, 95
10, 94560, Note_off_c, 9, 44, 80
10, 94560, Note_off_c, 9, 36, 80
10, 94560, Note_on_c, 9, 44, 95
10, 94560, Note_on_c, 9, 37, 95
10, 94560, Note_on_c, 9, 42, 95
10, 94680, Note_off_c, 9, 44, 80
10, 94680, Note_off_c, 9, 37, 80
10, 94680, Note_off_c, 9, 42, 80
10, 94680, Note_on_c, 9, 44, 31
10, 94800, Note_off_c, 9, 44, 80
10, 94800, Note_on_c, 9, 44, 63
10, 94800, Note_on_c, 9, 36, 95
10, 94920, Note_off_c, 9, 44, 80
10, 94920, Note_off_c, 9, 36, 80
10, 94920, Note_on_c, 9, 44, 79
10, 95040, Note_off_c, 9, 44, 80
10, 95040, Note_on_c, 9, 44, 95
10, 95040, Note_on_c, 9, 36, 95
10, 95160, Note_off_c, 9, 44, 80
10, 95160, Note_off_c, 9, 36, 80
10, 95160, Note_on_c, 9, 44, 31
10, 95280, Note_off_c, 9, 44, 80
10, 95280, Note_on_c, 9, 44, 63
10, 95400, Note_off_c, 9, 44, 80
10, 95400, Note_on_c, 9, 44, 79
10, 95520, Note_off_c, 9, 44, 80
10, 95520, Note_on_c, 9, 44, 95
10, 95520, Note_on_c, 9, 37, 95
10, 95640, Note_off_c, 9, 44, 80
10, 95640, Note_off_c, 9, 37, 80
10, 95640, Note_on_c, 9, 44, 31
10, 95760, Note_off_c, 9, 44, 80
10, 95760, Note_on_c, 9, 44, 63
10, 95760, Note_on_c, 9, 36, 95
10, 95880, Note_off_c, 9, 44, 80
10, 95880, Note_off_c, 9, 36, 80
10, 95880, Note_on_c, 9, 44, 79
10, 96000, Note_off_c, 9, 44, 80
10, 96000, Note_on_c, 9, 44, 95
10, 96120, Note_off_c, 9, 44, 80
10, 96120, Note_on_c, 9, 44, 31
10, 96240, Note_off_c, 9, 44, 80
10, 96240, Note_on_c, 9, 44, 63
10, 96360, Note_off_c, 9, 44, 80
10, 96360, Note_on_c, 9, 44, 79
10, 96480, Note_off_c, 9, 44, 80
10, 96480, Note_on_c, 9, 44, 95
10, 96480, Note_on_c, 9, 37, 95
10, 96600, Note_off_c, 9, 44, 80
10, 96600, Note_off_c, 9, 37, 80
10, 96600, Note_on_c, 9, 44, 31
10, 96720, Note_off_c, 9, 44, 80
10, 96720, Note_on_c, 9, 44, 63
10, 96840, Note_off_c, 9, 44, 80
10, 96840, Note_on_c, 9, 44, 79
10, 96960, Note_off_c, 9, 44, 80
10, 96960, Note_on_c, 9, 44, 95
10, 96960, Note_on_c, 9, 36, 79
10, 96960, Note_on_c, 9, 38, 95
10, 97080, Note_off_c, 9, 44, 80
10, 97080, Note_off_c, 9, 36, 80
10, 97080, Note_off_c, 9, 38, 80
10, 97080, Note_on_c, 9, 44, 31
10, 97200, Note_off_c, 9, 44, 80
10, 97200, Note_on_c, 9, 44, 63
10, 97200, Note_on_c, 9, 48, 95
10, 97200, Note_on_c, 9, 38, 79
10, 97320, Note_off_c, 9, 44, 80
10, 97320, Note_off_c, 9, 48, 80
10, 97320, Note_off_c, 9, 38, 80
10, 97320, Note_on_c, 9, 44, 79
10, 97320, Note_on_c, 9, 47, 95
10, 97320, Note_on_c, 9, 38, 63
10, 97440, Note_off_c, 9, 44, 80
10, 97440, Note_off_c, 9, 47, 80
10, 97440, Note_off_c, 9, 38, 80
10, 97440, Note_on_c, 9, 44, 95
10, 97440, Note_on_c, 9, 37, 95
10, 97440, Note_on_c, 9, 45, 95
10, 97440, Note_on_c, 9, 38, 47
10, 97560, Note_off_c, 9, 44, 80
10, 97560, Note_off_c, 9, 37, 80
10, 97560, Note_off_c, 9, 45, 80
10, 97560, Note_off_c, 9, 38, 80
10, 97560, Note_on_c, 9, 44, 31
10, 97680, Note_off_c, 9, 44, 80
10, 97680, Note_on_c, 9, 44, 63
10, 97680, Note_on_c, 9, 46, 95
10, 97680, Note_on_c, 9, 36, 95
10, 97680, Note_on_c, 9, 49, 95
10, 97800, Note_off_c, 9, 44, 80
10, 97800, Note_off_c, 9, 46, 80
10, 97800, Note_off_c, 9, 36, 80
10, 97800, Note_off_c, 9, 49, 80
10, 97800, Note_on_c, 9, 44, 79
10, 97920, Note_off_c, 9, 44, 80
10, 97920, Note_on_c, 9, 42, 95
10, 98040, Note_off_c, 9, 42, 80
10, 98040, Note_on_c, 9, 42, 31
10, 98160, Note_off_c, 9, 42, 80
10, 98160, Note_on_c, 9, 42, 79
10, 98280, Note_off_c, 9, 42, 80
10, 98280, Note_on_c, 9, 42, 79
10, 98400, Note_off_c, 9, 42, 80
10, 98400, Note_on_c, 9, 42, 95
10, 98400, Note_on_c, 9, 38, 95
10, 98520, Note_off_c, 9, 42, 80
10, 98520, Note_off_c, 9, 38, 80
10, 98520, Note_on_c, 9, 42, 31
10, 98640, Note_off_c, 9, 42, 80
10, 98640, Note_on_c, 9, 42, 79
10, 98640, Note_on_c, 9, 36, 95
10, 98760, Note_off_c, 9, 42, 80
10, 98760, Note_off_c, 9, 36, 80
10, 98760, Note_on_c, 9, 42, 79
10, 98880, Note_off_c, 9, 42, 80
10, 98880, Note_on_c, 9, 42, 95
10, 98880, Note_on_c, 9, 36, 95
10, 99000, Note_off_c, 9, 42, 80
10, 99000, Note_off_c, 9, 36, 80
10, 99000, Note_on_c, 9, 42, 31
10, 99120, Note_off_c, 9, 42, 80
10, 99120, Note_on_c, 9, 42, 79
10, 99240, Note_off_c, 9, 42, 80
10, 99240, Note_on_c, 9, 42, 79
10, 99360, Note_off_c, 9, 42, 80
10, 99360, Note_on_c, 9, 42, 95
10, 99360, Note_on_c, 9, 38, 95
10, 99480, Note_off_c, 9, 42, 80
10, 99480, Note_off_c, 9, 38, 80
10, 99480, Note_on_c, 9, 42, 31
10, 99600, Note_off_c, 9, 42, 80
10, 99600, Note_on_c, 9, 42, 79
10, 99600, Note_on_c, 9, 36, 95
10, 99720, Note_off_c, 9, 42, 80
10, 99720, Note_off_c, 9, 36, 80
10, 99720, Note_on_c, 9, 42, 79
10, 99840, Note_off_c, 9, 42, 80
10, 99840, Note_on_c, 9, 42, 95
10, 99960, Note_off_c, 9, 42, 80
10, 99960, Note_on_c, 9, 42, 31
10, 100080, Note_off_c, 9, 42, 80
10, 100080, Note_on_c, 9, 42, 79
10, 100200, Note_off_c, 9, 42, 80
10, 100200, Note_on_c, 9, 42, 79
10, 100320, Note_off_c, 9, 42, 80
10, 100320, Note_on_c, 9, 42, 95
10, 100320, Note_on_c, 9, 38, 95
10, 100440, Note_off_c, 9, 42, 80
10, 100440, Note_off_c, 9, 38, 80
10, 100440, Note_on_c, 9, 42, 31
10, 100560, Note_off_c, 9, 42, 80
10, 100560, Note_on_c, 9, 42, 79
10, 100560, Note_on_c, 9, 36, 95
10, 100680, Note_off_c, 9, 42, 80
10, 100680, Note_off_c, 9, 36, 80
10, 100680, Note_on_c, 9, 42, 79
10, 100800, Note_off_c, 9, 42, 80
10, 100800, Note_on_c, 9, 42, 95
10, 100800, Note_on_c, 9, 36, 95
10, 100920, Note_off_c, 9, 42, 80
10, 100920, Note_off_c, 9, 36, 80
10, 100920, Note_on_c, 9, 42, 31
10, 101040, Note_off_c, 9, 42, 80
10, 101040, Note_on_c, 9, 42, 79
10, 101160, Note_off_c, 9, 42, 80
10, 101160, Note_on_c, 9, 42, 79
10, 101280, Note_off_c, 9, 42, 80
10, 101280, Note_on_c, 9, 42, 95
10, 101280, Note_on_c, 9, 38, 95
10, 101400, Note_off_c, 9, 42, 80
10, 101400, Note_off_c, 9, 38, 80
10, 101400, Note_on_c, 9, 42, 31
10, 101520, Note_off_c, 9, 42, 80
10, 101520, Note_on_c, 9, 42, 79
10, 101520, Note_on_c, 9, 36, 95
10, 101640, Note_off_c, 9, 42, 80
10, 101640, Note_off_c, 9, 36, 80
10, 101640, Note_on_c, 9, 42, 79
10, 101760, Note_off_c, 9, 42, 80
10, 101760, Note_on_c, 9, 42, 95
10, 101880, Note_off_c, 9, 42, 80
10, 101880, Note_on_c, 9, 42, 31
10, 102000, Note_off_c, 9, 42, 80
10, 102000, Note_on_c, 9, 42, 79
10, 102120, Note_off_c, 9, 42, 80
10, 102120, Note_on_c, 9, 42, 79
10, 102240, Note_off_c, 9, 42, 80
10, 102240, Note_on_c, 9, 42, 95
10, 102240, Note_on_c, 9, 38, 95
10, 102360, Note_off_c, 9, 42, 80
10, 102360, Note_off_c, 9, 38, 80
10, 102360, Note_on_c, 9, 42, 31
10, 102480, Note_off_c, 9, 42, 80
10, 102480, Note_on_c, 9, 42, 79
10, 102480, Note_on_c, 9, 36, 95
10, 102600, Note_off_c, 9, 42, 80
10, 102600, Note_off_c, 9, 36, 80
10, 102600, Note_on_c, 9, 42, 79
10, 102720, Note_off_c, 9, 42, 80
10, 102720, Note_on_c, 9, 42, 95
10, 102720, Note_on_c, 9, 36, 95
10, 102840, Note_off_c, 9, 42, 80
10, 102840, Note_off_c, 9, 36, 80
10, 102840, Note_on_c, 9, 42, 31
10, 102960, Note_off_c, 9, 42, 80
10, 102960, Note_on_c, 9, 42, 79
10, 103080, Note_off_c, 9, 42, 80
10, 103080, Note_on_c, 9, 42, 79
10, 103200, Note_off_c, 9, 42, 80
10, 103200, Note_on_c, 9, 42, 95
10, 103200, Note_on_c, 9, 38, 95
10, 103320, Note_off_c, 9, 42, 80
10, 103320, Note_off_c, 9, 38, 80
10, 103320, Note_on_c, 9, 42, 31
10, 103440, Note_off_c, 9, 42, 80
10, 103440, Note_on_c, 9, 42, 79
10, 103440, Note_on_c, 9, 36, 95
10, 103560, Note_off_c, 9, 42, 80
10, 103560, Note_off_c, 9, 36, 80
10, 103560, Note_on_c, 9, 42, 79
10, 103680, Note_off_c, 9, 42, 80
10, 103680, Note_on_c, 9, 42, 95
10, 103800, Note_off_c, 9, 42, 80
10, 103800, Note_on_c, 9, 42, 31
10, 103920, Note_off_c, 9, 42, 80
10, 103920, Note_on_c, 9, 42, 79
10, 104040, Note_off_c, 9, 42, 80
10, 104040, Note_on_c, 9, 42, 79
10, 104160, Note_off_c, 9, 42, 80
10, 104160, Note_on_c, 9, 42, 95
10, 104160, Note_on_c, 9, 38, 95
10, 104280, Note_off_c, 9, 42, 80
10, 104280, Note_off_c, 9, 38, 80
10, 104280, Note_on_c, 9, 42, 31
10, 104400, Note_off_c, 9, 42, 80
10, 104400, Note_on_c, 9, 42, 79
10, 104400, Note_on_c, 9, 36, 95
10, 104520, Note_off_c, 9, 42, 80
10, 104520, Note_off_c, 9, 36, 80
10, 104520, Note_on_c, 9, 42, 79
10, 104640, Note_off_c, 9, 42, 80
10, 104640, Note_on_c, 9, 42, 95
10, 104640, Note_on_c, 9, 36, 95
10, 104760, Note_off_c, 9, 42, 80
10, 104760, Note_off_c, 9, 36, 80
10, 104760, Note_on_c, 9, 42, 31
10, 104880, Note_off_c, 9, 42, 80
10, 104880, Note_on_c, 9, 42, 79
10, 105000, Note_off_c, 9, 42, 80
10, 105000, Note_on_c, 9, 42, 79
10, 105120, Note_off_c, 9, 42, 80
10, 105120, Note_on_c, 9, 42, 95
10, 105120, Note_on_c, 9, 38, 95
10, 105240, Note_off_c, 9, 42, 80
10, 105240, Note_off_c, 9, 38, 80
10, 105240, Note_on_c, 9, 42, 31
10, 105360, Note_off_c, 9, 42, 80
10, 105360, Note_on_c, 9, 42, 79
10, 105360, Note_on_c, 9, 36, 95
10, 105480, Note_off_c, 9, 42, 80
10, 105480, Note_off_c, 9, 36, 80
10, 105480, Note_on_c, 9, 42, 79
10, 105600, Note_off_c, 9, 42, 80
10, 105600, Note_on_c, 9, 42, 95
10, 105720, Note_off_c, 9, 42, 80
10, 105720, Note_on_c, 9, 42, 31
10, 105840, Note_off_c, 9, 42, 80
10, 105840, Note_on_c, 9, 42, 79
10, 105960, Note_off_c, 9, 42, 80
10, 105960, Note_on_c, 9, 42, 79
10, 106080, Note_off_c, 9, 42, 80
10, 106080, Note_on_c, 9, 42, 95
10, 106080, Note_on_c, 9, 38, 95
10, 106200, Note_off_c, 9, 42, 80
10, 106200, Note_off_c, 9, 38, 80
10, 106200, Note_on_c, 9, 42, 31
10, 106320, Note_off_c, 9, 42, 80
10, 106320, Note_on_c, 9, 42, 79
10, 106320, Note_on_c, 9, 36, 95
10, 106440, Note_off_c, 9, 42, 80
10, 106440, Note_off_c, 9, 36, 80
10, 106440, Note_on_c, 9, 42, 79
10, 106560, Note_off_c, 9, 42, 80
10, 106560, Note_on_c, 9, 42, 95
10, 106560, Note_on_c, 9, 36, 95
10, 106680, Note_off_c, 9, 42, 80
10, 106680, Note_off_c, 9, 36, 80
10, 106680, Note_on_c, 9, 42, 31
10, 106800, Note_off_c, 9, 42, 80
10, 106800, Note_on_c, 9, 42, 79
10, 106920, Note_off_c, 9, 42, 80
10, 106920, Note_on_c, 9, 42, 79
10, 107040, Note_off_c, 9, 42, 80
10, 107040, Note_on_c, 9, 42, 95
10, 107040, Note_on_c, 9, 38, 95
10, 107160, Note_off_c, 9, 42, 80
10, 107160, Note_off_c, 9, 38, 80
10, 107160, Note_on_c, 9, 42, 31
10, 107280, Note_off_c, 9, 42, 80
10, 107280, Note_on_c, 9, 42, 79
10, 107280, Note_on_c, 9, 36, 95
10, 107400, Note_off_c, 9, 42, 80
10, 107400, Note_off_c, 9, 36, 80
10, 107400, Note_on_c, 9, 42, 79
10, 107520, Note_off_c, 9, 42, 80
10, 107520, Note_on_c, 9, 42, 95
10, 107640, Note_off_c, 9, 42, 80
10, 107640, Note_on_c, 9, 42, 31
10, 107760, Note_off_c, 9, 42, 80
10, 107760, Note_on_c, 9, 42, 79
10, 107880, Note_off_c, 9, 42, 80
10, 107880, Note_on_c, 9, 42, 79
10, 108000, Note_off_c, 9, 42, 80
10, 108000, Note_on_c, 9, 42, 95
10, 108000, Note_on_c, 9, 38, 95
10, 108120, Note_off_c, 9, 42, 80
10, 108120, Note_off_c, 9, 38, 80
10, 108120, Note_on_c, 9, 42, 31
10, 108240, Note_off_c, 9, 42, 80
10, 108240, Note_on_c, 9, 42, 79
10, 108240, Note_on_c, 9, 36, 95
10, 108360, Note_off_c, 9, 42, 80
10, 108360, Note_off_c, 9, 36, 80
10, 108360, Note_on_c, 9, 42, 79
10, 108480, Note_off_c, 9, 42, 80
10, 108480, Note_on_c, 9, 42, 95
10, 108480, Note_on_c, 9, 36, 95
10, 108600, Note_off_c, 9, 42, 80
10, 108600, Note_off_c, 9, 36, 80
10, 108600, Note_on_c, 9, 42, 31
10, 108720, Note_off_c, 9, 42, 80
10, 108720, Note_on_c, 9, 42, 79
10, 108840, Note_off_c, 9, 42, 80
10, 108840, Note_on_c, 9, 42, 79
10, 108960, Note_off_c, 9, 42, 80
10, 108960, Note_on_c, 9, 42, 95
10, 108960, Note_on_c, 9, 38, 95
10, 109080, Note_off_c, 9, 42, 80
10, 109080, Note_off_c, 9, 38, 80
10, 109080, Note_on_c, 9, 42, 31
10, 109200, Note_off_c, 9, 42, 80
10, 109200, Note_on_c, 9, 42, 79
10, 109200, Note_on_c, 9, 36, 95
10, 109320, Note_off_c, 9, 42, 80
10, 109320, Note_off_c, 9, 36, 80
10, 109320, Note_on_c, 9, 42, 79
10, 109440, Note_off_c, 9, 42, 80
10, 109440, Note_on_c, 9, 42, 95
10, 109560, Note_off_c, 9, 42, 80
10, 109560, Note_on_c, 9, 42, 31
10, 109680, Note_off_c, 9, 42, 80
10, 109680, Note_on_c, 9, 42, 79
10, 109800, Note_off_c, 9, 42, 80
10, 109800, Note_on_c, 9, 42, 79
10, 109920, Note_off_c, 9, 42, 80
10, 109920, Note_on_c, 9, 42, 95
10, 109920, Note_on_c, 9, 38, 95
10, 110040, Note_off_c, 9, 42, 80
10, 110040, Note_off_c, 9, 38, 80
10, 110040, Note_on_c, 9, 42, 31
10, 110160, Note_off_c, 9, 42, 80
10, 110160, Note_on_c, 9, 42, 79
10, 110160, Note_on_c, 9, 36, 95
10, 110280, Note_off_c, 9, 42, 80
10, 110280, Note_off_c, 9, 36, 80
10, 110280, Note_on_c, 9, 42, 79
10, 110400, Note_off_c, 9, 42, 80
10, 110400, Note_on_c, 9, 42, 95
10, 110400, Note_on_c, 9, 36, 95
10, 110520, Note_off_c, 9, 42, 80
10, 110520, Note_off_c, 9, 36, 80
10, 110520, Note_on_c, 9, 42, 31
10, 110640, Note_off_c, 9, 42, 80
10, 110640, Note_on_c, 9, 42, 79
10, 110760, Note_off_c, 9, 42, 80
10, 110760, Note_on_c, 9, 42, 79
10, 110880, Note_off_c, 9, 42, 80
10, 110880, Note_on_c, 9, 42, 95
10, 110880, Note_on_c, 9, 38, 95
10, 111000, Note_off_c, 9, 42, 80
10, 111000, Note_off_c, 9, 38, 80
10, 111000, Note_on_c, 9, 42, 31
10, 111120, Note_off_c, 9, 42, 80
10, 111120, Note_on_c, 9, 42, 79
10, 111120, Note_on_c, 9, 36, 95
10, 111240, Note_off_c, 9, 42, 80
10, 111240, Note_off_c, 9, 36, 80
10, 111240, Note_on_c, 9, 42, 79
10, 111360, Note_off_c, 9, 42, 80
10, 111360, Note_on_c, 9, 42, 95
10, 111480, Note_off_c, 9, 42, 80
10, 111480, Note_on_c, 9, 42, 31
10, 111600, Note_off_c, 9, 42, 80
10, 111600, Note_on_c, 9, 42, 79
10, 111720, Note_off_c, 9, 42, 80
10, 111720, Note_on_c, 9, 42, 79
10, 111840, Note_off_c, 9, 42, 80
10, 111840, Note_on_c, 9, 42, 95
10, 111840, Note_on_c, 9, 38, 95
10, 111960, Note_off_c, 9, 42, 80
10, 111960, Note_off_c, 9, 38, 80
10, 111960, Note_on_c, 9, 42, 31
10, 112080, Note_off_c, 9, 42, 80
10, 112080, Note_on_c, 9, 42, 79
10, 112080, Note_on_c, 9, 36, 95
10, 112200, Note_off_c, 9, 42, 80
10, 112200, Note_off_c, 9, 36, 80
10, 112200, Note_on_c, 9, 42, 79
10, 112320, Note_off_c, 9, 42, 80
10, 112320, Note_on_c, 9, 42, 95
10, 112320, Note_on_c, 9, 36, 95
10, 112440, Note_off_c, 9, 42, 80
10, 112440, Note_off_c, 9, 36, 80
10, 112440, Note_on_c, 9, 42, 31
10, 112560, Note_off_c, 9, 42, 80
10, 112560, Note_on_c, 9, 42, 79
10, 112680, Note_off_c, 9, 42, 80
10, 112680, Note_on_c, 9, 42, 79
10, 112800, Note_off_c, 9, 42, 80
10, 112800, Note_on_c, 9, 42, 95
10, 112800, Note_on_c, 9, 38, 95
10, 112920, Note_off_c, 9, 42, 80
10, 112920, Note_off_c, 9, 38, 80
10, 112920, Note_on_c, 9, 42, 31
10, 113040, Note_off_c, 9, 42, 80
10, 113040, Note_on_c, 9, 42, 79
10, 113040, Note_on_c, 9, 36, 95
10, 113160, Note_off_c, 9, 42, 80
10, 113160, Note_off_c, 9, 36, 80
10, 113160, Note_on_c, 9, 42, 79
10, 113280, Note_off_c, 9, 42, 80
10, 113280, Note_on_c, 9, 44, 95
10, 113280, Note_on_c, 9, 52, 95
10, 113400, Note_off_c, 9, 44, 80
10, 113400, Note_off_c, 9, 52, 80
10, 113400, Note_on_c, 9, 44, 31
10, 113520, Note_off_c, 9, 44, 80
10, 113520, Note_on_c, 9, 44, 63
10, 113640, Note_off_c, 9, 44, 80
10, 113640, Note_on_c, 9, 44, 79
10, 113640, Note_on_c, 9, 36, 95
10, 113760, Note_off_c, 9, 44, 80
10, 113760, Note_off_c, 9, 36, 80
10, 113760, Note_on_c, 9, 44, 95
10, 113760, Note_on_c, 9, 37, 95
10, 113760, Note_on_c, 9, 42, 95
10, 113880, Note_off_c, 9, 44, 80
10, 113880, Note_off_c, 9, 37, 80
10, 113880, Note_off_c, 9, 42, 80
10, 113880, Note_on_c, 9, 44, 31
10, 114000, Note_off_c, 9, 44, 80
10, 114000, Note_on_c, 9, 44, 63
10, 114000, Note_on_c, 9, 36, 95
10, 114120, Note_off_c, 9, 44, 80
10, 114120, Note_off_c, 9, 36, 80
10, 114120, Note_on_c, 9, 44, 79
10, 114240, Note_off_c, 9, 44, 80
10, 114240, Note_on_c, 9, 44, 95
10, 114240, Note_on_c, 9, 36, 95
10, 114360, Note_off_c, 9, 44, 80
10, 114360, Note_off_c, 9, 36, 80
10, 114360, Note_on_c, 9, 44, 31
10, 114480, Note_off_c, 9, 44, 80
10, 114480, Note_on_c, 9, 44, 63
10, 114600, Note_off_c, 9, 44, 80
10, 114600, Note_on_c, 9, 44, 79
10, 114720, Note_off_c, 9, 44, 80
10, 114720, Note_on_c, 9, 44, 95
10, 114720, Note_on_c, 9, 37, 95
10, 114840, Note_off_c, 9, 44, 80
10, 114840, Note_off_c, 9, 37, 80
10, 114840, Note_on_c, 9, 44, 31
10, 114960, Note_off_c, 9, 44, 80
10, 114960, Note_on_c, 9, 44, 63
10, 114960, Note_on_c, 9, 36, 95
10, 115080, Note_off_c, 9, 44, 80
10, 115080, Note_off_c, 9, 36, 80
10, 115080, Note_on_c, 9, 44, 79
10, 115200, Note_off_c, 9, 44, 80
10, 115200, Note_on_c, 9, 44, 95
10, 115320, Note_off_c, 9, 44, 80
10, 115320, Note_on_c, 9, 44, 31
10, 115440, Note_off_c, 9, 44, 80
10, 115440, Note_on_c, 9, 44, 63
10, 115560, Note_off_c, 9, 44, 80
10, 115560, Note_on_c, 9, 44, 79
10, 115680, Note_off_c, 9, 44, 80
10, 115680, Note_on_c, 9, 44, 95
10, 115680, Note_on_c, 9, 37, 95
10, 115800, Note_off_c, 9, 44, 80
10, 115800, Note_off_c, 9, 37, 80
10, 115800, Note_on_c, 9, 44, 31
10, 115920, Note_off_c, 9, 44, 80
10, 115920, Note_on_c, 9, 44, 63
10, 116040, Note_off_c, 9, 44, 80
10, 116040, Note_on_c, 9, 44, 79
10, 116160, Note_off_c, 9, 44, 80
10, 116160, Note_on_c, 9, 44, 95
10, 116160, Note_on_c, 9, 36, 79
10, 116280, Note_off_c, 9, 44, 80
10, 116280, Note_off_c, 9, 36, 80
10, 116280, Note_on_c, 9, 44, 31
10, 116400, Note_off_c, 9, 44, 80
10, 116400, Note_on_c, 9, 44, 63
10, 116520, Note_off_c, 9, 44, 80
10, 116520, Note_on_c, 9, 44, 79
10, 116640, Note_off_c, 9, 44, 80
10, 116640, Note_on_c, 9, 44, 95
10, 116640, Note_on_c, 9, 37, 95
10, 116760, Note_off_c, 9, 44, 80
10, 116760, Note_off_c, 9, 37, 80
10, 116760, Note_on_c, 9, 44, 31
10, 116880, Note_off_c, 9, 44, 80
10, 116880, Note_on_c, 9, 44, 63
10, 116880, Note_on_c, 9, 46, 95
10, 117000, Note_off_c, 9, 44, 80
10, 117000, Note_off_c, 9, 46, 80
10, 117000, Note_on_c, 9, 44, 79
10, 117120, Note_off_c, 9, 44, 80
10, 117120, Note_on_c, 9, 44, 95
10, 117240, Note_off_c, 9, 44, 80
10, 117240, Note_on_c, 9, 44, 31
10, 117360, Note_off_c, 9, 44, 80
10, 117360, Note_on_c, 9, 44, 63
10, 117480, Note_off_c, 9, 44, 80
10, 117480, Note_on_c, 9, 44, 79
10, 117480, Note_on_c, 9, 36, 95
10, 117600, Note_off_c, 9, 44, 80
10, 117600, Note_off_c, 9, 36, 80
10, 117600, Note_on_c, 9, 44, 95
10, 117600, Note_on_c, 9, 37, 95
10, 117600, Note_on_c, 9, 42, 95
10, 117720, Note_off_c, 9, 44, 80
10, 117720, Note_off_c, 9, 37, 80
10, 117720, Note_off_c, 9, 42, 80
10, 117720, Note_on_c, 9, 44, 31
10, 117840, Note_off_c, 9, 44, 80
10, 117840, Note_on_c, 9, 44, 63
10, 117840, Note_on_c, 9, 36, 95
10, 117960, Note_off_c, 9, 44, 80
10, 117960, Note_off_c, 9, 36, 80
10, 117960, Note_on_c, 9, 44, 79
10, 118080, Note_off_c, 9, 44, 80
10, 118080, Note_on_c, 9, 44, 95
10, 118080, Note_on_c, 9, 36, 95
10, 118200, Note_off_c, 9, 44, 80
10, 118200, Note_off_c, 9, 36, 80
10, 118200, Note_on_c, 9, 44, 31
10, 118320, Note_off_c, 9, 44, 80
10, 118320, Note_on_c, 9, 44, 63
10, 118440, Note_off_c, 9, 44, 80
10, 118440, Note_on_c, 9, 44, 79
10, 118560, Note_off_c, 9, 44, 80
10, 118560, Note_on_c, 9, 44, 95
10, 118560, Note_on_c, 9, 37, 95
10, 118680, Note_off_c, 9, 44, 80
10, 118680, Note_off_c, 9, 37, 80
10, 118680, Note_on_c, 9, 44, 31
10, 118800, Note_off_c, 9, 44, 80
10, 118800, Note_on_c, 9, 44, 63
10, 118800, Note_on_c, 9, 36, 95
10, 118920, Note_off_c, 9, 44, 80
10, 118920, Note_off_c, 9, 36, 80
10, 118920, Note_on_c, 9, 44, 79
10, 119040, Note_off_c, 9, 44, 80
10, 119040, Note_on_c, 9, 44, 95
10, 119160, Note_off_c, 9, 44, 80
10, 119160, Note_on_c, 9, 44, 31
10, 119280, Note_off_c, 9, 44, 80
10, 119280, Note_on_c, 9, 44, 63
10, 119400, Note_off_c, 9, 44, 80
10, 119400, Note_on_c, 9, 44, 79
10, 119520, Note_off_c, 9, 44, 80
10, 119520, Note_on_c, 9, 44, 95
10, 119520, Note_on_c, 9, 37, 95
10, 119640, Note_off_c, 9, 44, 80
10, 119640, Note_off_c, 9, 37, 80
10, 119640, Note_on_c, 9, 44, 31
10, 119760, Note_off_c, 9, 44, 80
10, 119760, Note_on_c, 9, 44, 63
10, 119880, Note_off_c, 9, 44, 80
10, 119880, Note_on_c, 9, 44, 79
10, 120000, Note_off_c, 9, 44, 80
10, 120000, Note_on_c, 9, 44, 95
10, 120000, Note_on_c, 9, 36, 79
10, 120120, Note_off_c, 9, 44, 80
10, 120120, Note_off_c, 9, 36, 80
10, 120120, Note_on_c, 9, 44, 31
10, 120240, Note_off_c, 9, 44, 80
10, 120240, Note_on_c, 9, 44, 63
10, 120360, Note_off_c, 9, 44, 80
10, 120360, Note_on_c, 9, 44, 79
10, 120480, Note_off_c, 9, 44, 80
10, 120480, Note_on_c, 9, 44, 95
10, 120480, Note_on_c, 9, 37, 95
10, 120600, Note_off_c, 9, 44, 80
10, 120600, Note_off_c, 9, 37, 80
10, 120600, Note_on_c, 9, 44, 31
10, 120720, Note_off_c, 9, 44, 80
10, 120720, Note_on_c, 9, 44, 63
10, 120720, Note_on_c, 9, 46, 95
10, 120840, Note_off_c, 9, 44, 80
10, 120840, Note_off_c, 9, 46, 80
10, 120840, Note_on_c, 9, 44, 79
10, 120960, Note_off_c, 9, 44, 80
10, 120960, Note_on_c, 9, 44, 95
10, 121080, Note_off_c, 9, 44, 80
10, 121080, Note_on_c, 9, 44, 31
10, 121200, Note_off_c, 9, 44, 80
10, 121200, Note_on_c, 9, 44, 63
10, 121320, Note_off_c, 9, 44, 80
10, 121320, Note_on_c, 9, 44, 79
10, 121320, Note_on_c, 9, 36, 95
10, 121440, Note_off_c, 9, 44, 80
10, 121440, Note_off_c, 9, 36, 80
10, 121440, Note_on_c, 9, 44, 95
10, 121440, Note_on_c, 9, 37, 95
10, 121440, Note_on_c, 9, 42, 95
10, 121560, Note_off_c, 9, 44, 80
10, 121560, Note_off_c, 9, 37, 80
10, 121560, Note_off_c, 9, 42, 80
10, 121560, Note_on_c, 9, 44, 31
10, 121680, Note_off_c, 9, 44, 80
10, 121680, Note_on_c, 9, 44, 63
10, 121680, Note_on_c, 9, 36, 95
10, 121800, Note_off_c, 9, 44, 80
10, 121800, Note_off_c, 9, 36, 80
10, 121800, Note_on_c, 9, 44, 79
10, 121920, Note_off_c, 9, 44, 80
10, 121920, Note_on_c, 9, 44, 95
10, 121920, Note_on_c, 9, 36, 95
10, 122040, Note_off_c, 9, 44, 80
10, 122040, Note_off_c, 9, 36, 80
10, 122040, Note_on_c, 9, 44, 31
10, 122160, Note_off_c, 9, 44, 80
10, 122160, Note_on_c, 9, 44, 63
10, 122280, Note_off_c, 9, 44, 80
10, 122280, Note_on_c, 9, 44, 79
10, 122400, Note_off_c, 9, 44, 80
10, 122400, Note_on_c, 9, 44, 95
10, 122400, Note_on_c, 9, 37, 95
10, 122520, Note_off_c, 9, 44, 80
10, 122520, Note_off_c, 9, 37, 80
10, 122520, Note_on_c, 9, 44, 31
10, 122640, Note_off_c, 9, 44, 80
10, 122640, Note_on_c, 9, 44, 63
10, 122640, Note_on_c, 9, 36, 95
10, 122760, Note_off_c, 9, 44, 80
10, 122760, Note_off_c, 9, 36, 80
10, 122760, Note_on_c, 9, 44, 79
10, 122880, Note_off_c, 9, 44, 80
10, 122880, Note_on_c, 9, 44, 95
10, 123000, Note_off_c, 9, 44, 80
10, 123000, Note_on_c, 9, 44, 31
10, 123120, Note_off_c, 9, 44, 80
10, 123120, Note_on_c, 9, 44, 63
10, 123240, Note_off_c, 9, 44, 80
10, 123240, Note_on_c, 9, 44, 79
10, 123360, Note_off_c, 9, 44, 80
10, 123360, Note_on_c, 9, 44, 95
10, 123360, Note_on_c, 9, 37, 95
10, 123480, Note_off_c, 9, 44, 80
10, 123480, Note_off_c, 9, 37, 80
10, 123480, Note_on_c, 9, 44, 31
10, 123600, Note_off_c, 9, 44, 80
10, 123600, Note_on_c, 9, 44, 63
10, 123720, Note_off_c, 9, 44, 80
10, 123720, Note_on_c, 9, 44, 79
10, 123840, Note_off_c, 9, 44, 80
10, 123840, Note_on_c, 9, 44, 95
10, 123840, Note_on_c, 9, 36, 79
10, 123960, Note_off_c, 9, 44, 80
10, 123960, Note_off_c, 9, 36, 80
10, 123960, Note_on_c, 9, 44, 31
10, 124080, Note_off_c, 9, 44, 80
10, 124080, Note_on_c, 9, 44, 63
10, 124200, Note_off_c, 9, 44, 80
10, 124200, Note_on_c, 9, 44, 79
10, 124320, Note_off_c, 9, 44, 80
10, 124320, Note_on_c, 9, 44, 95
10, 124320, Note_on_c, 9, 37, 95
10, 124440, Note_off_c, 9, 44, 80
10, 124440, Note_off_c, 9, 37, 80
10, 124440, Note_on_c, 9, 44, 31
10, 124560, Note_off_c, 9, 44, 80
10, 124560, Note_on_c, 9, 44, 63
10, 124560, Note_on_c, 9, 46, 95
10, 124680, Note_off_c, 9, 44, 80
10, 124680, Note_off_c, 9, 46, 80
10, 124680, Note_on_c, 9, 44, 79
10, 124800, Note_off_c, 9, 44, 80
10, 124800, Note_on_c, 9, 44, 95
10, 124920, Note_off_c, 9, 44, 80
10, 124920, Note_on_c, 9, 44, 31
10, 125040, Note_off_c, 9, 44, 80
10, 125040, Note_on_c, 9, 44, 63
10, 125160, Note_off_c, 9, 44, 80
10, 125160, Note_on_c, 9, 44, 79
10, 125160, Note_on_c, 9, 36, 95
10, 125280, Note_off_c, 9, 44, 80
10, 125280, Note_off_c, 9, 36, 80
10, 125280, Note_on_c, 9, 44, 95
10, 125280, Note_on_c, 9, 37, 95
10, 125280, Note_on_c, 9, 42, 95
10, 125400, Note_off_c, 9, 44, 80
10, 125400, Note_off_c, 9, 37, 80
10, 125400, Note_off_c, 9, 42, 80
10, 125400, Note_on_c, 9, 44, 31
10, 125520, Note_off_c, 9, 44, 80
10, 125520, Note_on_c, 9, 44, 63
10, 125520, Note_on_c, 9, 36, 95
10, 125640, Note_off_c, 9, 44, 80
10, 125640, Note_off_c, 9, 36, 80
10, 125640, Note_on_c, 9, 44, 79
10, 125760, Note_off_c, 9, 44, 80
10, 125760, Note_on_c, 9, 44, 95
10, 125760, Note_on_c, 9, 36, 95
10, 125880, Note_off_c, 9, 44, 80
10, 125880, Note_off_c, 9, 36, 80
10, 125880, Note_on_c, 9, 44, 31
10, 126000, Note_off_c, 9, 44, 80
10, 126000, Note_on_c, 9, 44, 63
10, 126120, Note_off_c, 9, 44, 80
10, 126120, Note_on_c, 9, 44, 79
10, 126240, Note_off_c, 9, 44, 80
10, 126240, Note_on_c, 9, 44, 95
10, 126240, Note_on_c, 9, 37, 95
10, 126360, Note_off_c, 9, 44, 80
10, 126360, Note_off_c, 9, 37, 80
10, 126360, Note_on_c, 9, 44, 31
10, 126480, Note_off_c, 9, 44, 80
10, 126480, Note_on_c, 9, 44, 63
10, 126480, Note_on_c, 9, 36, 95
10, 126600, Note_off_c, 9, 44, 80
10, 126600, Note_off_c, 9, 36, 80
10, 126600, Note_on_c, 9, 44, 79
10, 126720, Note_off_c, 9, 44, 80
10, 126720, Note_on_c, 9, 44, 95
10, 126840, Note_off_c, 9, 44, 80
10, 126840, Note_on_c, 9, 44, 31
10, 126960, Note_off_c, 9, 44, 80
10, 126960, Note_on_c, 9, 44, 63
10, 127080, Note_off_c, 9, 44, 80
10, 127080, Note_on_c, 9, 44, 79
10, 127200, Note_off_c, 9, 44, 80
10, 127200, Note_on_c, 9, 44, 95
10, 127200, Note_on_c, 9, 37, 95
10, 127320, Note_off_c, 9, 44, 80
10, 127320, Note_off_c, 9, 37, 80
10, 127320, Note_on_c, 9, 44, 31
10, 127440, Note_off_c, 9, 44, 80
10, 127440, Note_on_c, 9, 44, 63
10, 127560, Note_off_c, 9, 44, 80
10, 127560, Note_on_c, 9, 44, 79
10, 127680, Note_off_c, 9, 44, 80
10, 127680, Note_on_c, 9, 44, 95
10, 127680, Note_on_c, 9, 36, 79
10, 127800, Note_off_c, 9, 44, 80
10, 127800, Note_off_c, 9, 36, 80
10, 127800, Note_on_c, 9, 44, 31
10, 127920, Note_off_c, 9, 44, 80
10, 127920, Note_on_c, 9, 44, 63
10, 128040, Note_off_c, 9, 44, 80
10, 128040, Note_on_c, 9, 44, 79
10, 128160, Note_off_c, 9, 44, 80
10, 128160, Note_on_c, 9, 44, 95
10, 128160, Note_on_c, 9, 37, 95
10, 128280, Note_off_c, 9, 44, 80
10, 128280, Note_off_c, 9, 37, 80
10, 128280, Note_on_c, 9, 44, 31
10, 128400, Note_off_c, 9, 44, 80
10, 128400, Note_on_c, 9, 44, 63
10, 128400, Note_on_c, 9, 46, 95
10, 128520, Note_off_c, 9, 44, 80
10, 128520, Note_off_c, 9, 46, 80
10, 128520, Note_on_c, 9, 44, 79
10, 128640, Note_off_c, 9, 44, 80
10, 128640, Note_on_c, 9, 44, 95
10, 128640, Note_on_c, 9, 52, 95
10, 128760, Note_off_c, 9, 44, 80
10, 128760, Note_off_c, 9, 52, 80
10, 128760, Note_on_c, 9, 44, 31
10, 128880, Note_off_c, 9, 44, 80
10, 128880, Note_on_c, 9, 44, 63
10, 129000, Note_off_c, 9, 44, 80
10, 129000, Note_on_c, 9, 44, 79
10, 129000, Note_on_c, 9, 36, 95
10, 129120, Note_off_c, 9, 44, 80
10, 129120, Note_off_c, 9, 36, 80
10, 129120, Note_on_c, 9, 44, 95
10, 129120, Note_on_c, 9, 37, 95
10, 129120, Note_on_c, 9, 42, 95
10, 129240, Note_off_c, 9, 44, 80
10, 129240, Note_off_c, 9, 37, 80
10, 129240, Note_off_c, 9, 42, 80
10, 129240, Note_on_c, 9, 44, 31
10, 129360, Note_off_c, 9, 44, 80
10, 129360, Note_on_c, 9, 44, 63
10, 129360, Note_on_c, 9, 36, 95
10, 129480, Note_off_c, 9, 44, 80
10, 129480, Note_off_c, 9, 36, 80
10, 129480, Note_on_c, 9, 44, 79
10, 129600, Note_off_c, 9, 44, 80
10, 129600, Note_on_c, 9, 44, 95
10, 129600, Note_on_c, 9, 36, 95
10, 129720, Note_off_c, 9, 44, 80
10, 129720, Note_off_c, 9, 36, 80
10, 129720, Note_on_c, 9, 44, 31
10, 129840, Note_off_c, 9, 44, 80
10, 129840, Note_on_c, 9, 44, 63
10, 129960, Note_off_c, 9, 44, 80
10, 129960, Note_on_c, 9, 44, 79
10, 130080, Note_off_c, 9, 44, 80
10, 130080, Note_on_c, 9, 44, 95
10, 130080, Note_on_c, 9, 37, 95
10, 130200, Note_off_c, 9, 44, 80
10, 130200, Note_off_c, 9, 37, 80
10, 130200, Note_on_c, 9, 44, 31
10, 130320, Note_off_c, 9, 44, 80
10, 130320, Note_on_c, 9, 44, 63
10, 130320, Note_on_c, 9, 36, 95
10, 130440, Note_off_c, 9, 44, 80
10, 130440, Note_off_c, 9, 36, 80
10, 130440, Note_on_c, 9, 44, 79
10, 130560, Note_off_c, 9, 44, 80
10, 130560, Note_on_c, 9, 44, 95
10, 130680, Note_off_c, 9, 44, 80
10, 130680, Note_on_c, 9, 44, 31
10, 130800, Note_off_c, 9, 44, 80
10, 130800, Note_on_c, 9, 44, 63
10, 130920, Note_off_c, 9, 44, 80
10, 130920, Note_on_c, 9, 44, 79
10, 131040, Note_off_c, 9, 44, 80
10, 131040, Note_on_c, 9, 44, 95
10, 131040, Note_on_c, 9, 37, 95
10, 131160, Note_off_c, 9, 44, 80
10, 131160, Note_off_c, 9, 37, 80
10, 131160, Note_on_c, 9, 44, 31
10, 131280, Note_off_c, 9, 44, 80
10, 131280, Note_on_c, 9, 44, 63
10, 131400, Note_off_c, 9, 44, 80
10, 131400, Note_on_c, 9, 44, 79
10, 131520, Note_off_c, 9, 44, 80
10, 131520, Note_on_c, 9, 44, 95
10, 131520, Note_on_c, 9, 36, 79
10, 131640, Note_off_c, 9, 44, 80
10, 131640, Note_off_c, 9, 36, 80
10, 131640, Note_on_c, 9, 44, 31
10, 131760, Note_off_c, 9, 44, 80
10, 131760, Note_on_c, 9, 44, 63
10, 131880, Note_off_c, 9, 44, 80
10, 131880, Note_on_c, 9, 44, 79
10, 132000, Note_off_c, 9, 44, 80
10, 132000, Note_on_c, 9, 44, 95
10, 132000, Note_on_c, 9, 37, 95
10, 132120, Note_off_c, 9, 44, 80
10, 132120, Note_off_c, 9, 37, 80
10, 132120, Note_on_c, 9, 44, 31
10, 132240, Note_off_c, 9, 44, 80
10, 132240, Note_on_c, 9, 44, 63
10, 132240, Note_on_c, 9, 46, 95
10, 132360, Note_off_c, 9, 44, 80
10, 132360, Note_off_c, 9, 46, 80
10, 132360, Note_on_c, 9, 44, 79
10, 132480, Note_off_c, 9, 44, 80
10, 132480, Note_on_c, 9, 44, 95
10, 132600, Note_off_c, 9, 44, 80
10, 132600, Note_on_c, 9, 44, 31
10, 132720, Note_off_c, 9, 44, 80
10, 132720, Note_on_c, 9, 44, 63
10, 132840, Note_off_c, 9, 44, 80
10, 132840, Note_on_c, 9, 44, 79
10, 132840, Note_on_c, 9, 36, 95
10, 132960, Note_off_c, 9, 44, 80
10, 132960, Note_off_c, 9, 36, 80
10, 132960, Note_on_c, 9, 44, 95
10, 132960, Note_on_c, 9, 37, 95
10, 132960, Note_on_c, 9, 42, 95
10, 133080, Note_off_c, 9, 44, 80
10, 133080, Note_off_c, 9, 37, 80
10, 133080, Note_off_c, 9, 42, 80
10, 133080, Note_on_c, 9, 44, 31
10, 133200, Note_off_c, 9, 44, 80
10, 133200, Note_on_c, 9, 44, 63
10, 133200, Note_on_c, 9, 36, 95
10, 133320, Note_off_c, 9, 44, 80
10, 133320, Note_off_c, 9, 36, 80
10, 133320, Note_on_c, 9, 44, 79
10, 133440, Note_off_c, 9, 44, 80
10, 133440, Note_on_c, 9, 44, 95
10, 133440, Note_on_c, 9, 36, 95
10, 133560, Note_off_c, 9, 44, 80
10, 133560, Note_off_c, 9, 36, 80
10, 133560, Note_on_c, 9, 44, 31
10, 133680, Note_off_c, 9, 44, 80
10, 133680, Note_on_c, 9, 44, 63
10, 133800, Note_off_c, 9, 44, 80
10, 133800, Note_on_c, 9, 44, 79
10, 133920, Note_off_c, 9, 44, 80
10, 133920, Note_on_c, 9, 44, 95
10, 133920, Note_on_c, 9, 37, 95
10, 134040, Note_off_c, 9, 44, 80
10, 134040, Note_off_c, 9, 37, 80
10, 134040, Note_on_c, 9, 44, 31
10, 134160, Note_off_c, 9, 44, 80
10, 134160, Note_on_c, 9, 44, 63
10, 134160, Note_on_c, 9, 36, 95
10, 134280, Note_off_c, 9, 44, 80
10, 134280, Note_off_c, 9, 36, 80
10, 134280, Note_on_c, 9, 44, 79
10, 134400, Note_off_c, 9, 44, 80
10, 134400, Note_on_c, 9, 44, 95
10, 134520, Note_off_c, 9, 44, 80
10, 134520, Note_on_c, 9, 44, 31
10, 134640, Note_off_c, 9, 44, 80
10, 134640, Note_on_c, 9, 44, 63
10, 134760, Note_off_c, 9, 44, 80
10, 134760, Note_on_c, 9, 44, 79
10, 134880, Note_off_c, 9, 44, 80
10, 134880, Note_on_c, 9, 44, 95
10, 134880, Note_on_c, 9, 37, 95
10, 135000, Note_off_c, 9, 44, 80
10, 135000, Note_off_c, 9, 37, 80
10, 135000, Note_on_c, 9, 44, 31
10, 135120, Note_off_c, 9, 44, 80
10, 135120, Note_on_c, 9, 44, 63
10, 135240, Note_off_c, 9, 44, 80
10, 135240, Note_on_c, 9, 44, 79
10, 135360, Note_off_c, 9, 44, 80
10, 135360, Note_on_c, 9, 44, 95
10, 135360, Note_on_c, 9, 36, 79
10, 135480, Note_off_c, 9, 44, 80
10, 135480, Note_off_c, 9, 36, 80
10, 135480, Note_on_c, 9, 44, 31
10, 135600, Note_off_c, 9, 44, 80
10, 135600, Note_on_c, 9, 44, 63
10, 135720, Note_off_c, 9, 44, 80
10, 135720, Note_on_c, 9, 44, 79
10, 135840, Note_off_c, 9, 44, 80
10, 135840, Note_on_c, 9, 44, 95
10, 135840, Note_on_c, 9, 37, 95
10, 135960, Note_off_c, 9, 44, 80
10, 135960, Note_off_c, 9, 37, 80
10, 135960, Note_on_c, 9, 44, 31
10, 136080, Note_off_c, 9, 44, 80
10, 136080, Note_on_c, 9, 44, 63
10, 136080, Note_on_c, 9, 46, 95
10, 136200, Note_off_c, 9, 44, 80
10, 136200, Note_off_c, 9, 46, 80
10, 136200, Note_on_c, 9, 44, 79
10, 136320, Note_off_c, 9, 44, 80
10, 136320, Note_on_c, 9, 44, 95
10, 136440, Note_off_c, 9, 44, 80
10, 136440, Note_on_c, 9, 44, 31
10, 136560, Note_off_c, 9, 44, 80
10, 136560, Note_on_c, 9, 44, 63
10, 136680, Note_off_c, 9, 44, 80
10, 136680, Note_on_c, 9, 44, 79
10, 136680, Note_on_c, 9, 36, 95
10, 136800, Note_off_c, 9, 44, 80
10, 136800, Note_off_c, 9, 36, 80
10, 136800, Note_on_c, 9, 44, 95
10, 136800, Note_on_c, 9, 37, 95
10, 136800, Note_on_c, 9, 42, 95
10, 136920, Note_off_c, 9, 44, 80
10, 136920, Note_off_c, 9, 37, 80
10, 136920, Note_off_c, 9, 42, 80
10, 136920, Note_on_c, 9, 44, 31
10, 137040, Note_off_c, 9, 44, 80
10, 137040, Note_on_c, 9, 44, 63
10, 137040, Note_on_c, 9, 36, 95
10, 137160, Note_off_c, 9, 44, 80
10, 137160, Note_off_c, 9, 36, 80
10, 137160, Note_on_c, 9, 44, 79
10, 137280, Note_off_c, 9, 44, 80
10, 137280, Note_on_c, 9, 44, 95
10, 137280, Note_on_c, 9, 36, 95
10, 137400, Note_off_c, 9, 44, 80
10, 137400, Note_off_c, 9, 36, 80
10, 137400, Note_on_c, 9, 44, 31
10, 137520, Note_off_c, 9, 44, 80
10, 137520, Note_on_c, 9, 44, 63
10, 137640, Note_off_c, 9, 44, 80
10, 137640, Note_on_c, 9, 44, 79
10, 137760, Note_off_c, 9, 44, 80
10, 137760, Note_on_c, 9, 44, 95
10, 137760, Note_on_c, 9, 37, 95
10, 137880, Note_off_c, 9, 44, 80
10, 137880, Note_off_c, 9, 37, 80
10, 137880, Note_on_c, 9, 44, 31
10, 138000, Note_off_c, 9, 44, 80
10, 138000, Note_on_c, 9, 44, 63
10, 138000, Note_on_c, 9, 36, 95
10, 138120, Note_off_c, 9, 44, 80
10, 138120, Note_off_c, 9, 36, 80
10, 138120, Note_on_c, 9, 44, 79
10, 138240, Note_off_c, 9, 44, 80
10, 138240, Note_on_c, 9, 44, 95
10, 138360, Note_off_c, 9, 44, 80
10, 138360, Note_on_c, 9, 44, 31
10, 138480, Note_off_c, 9, 44, 80
10, 138480, Note_on_c, 9, 44, 63
10, 138600, Note_off_c, 9, 44, 80
10, 138600, Note_on_c, 9, 44, 79
10, 138720, Note_off_c, 9, 44, 80
10, 138720, Note_on_c, 9, 44, 95
10, 138720, Note_on_c, 9, 37, 95
10, 138840, Note_off_c, 9, 44, 80
10, 138840, Note_off_c, 9, 37, 80
10, 138840, Note_on_c, 9, 44, 31
10, 138960, Note_off_c, 9, 44, 80
10, 138960, Note_on_c, 9, 44, 63
10, 139080, Note_off_c, 9, 44, 80
10, 139080, Note_on_c, 9, 44, 79
10, 139200, Note_off_c, 9, 44, 80
10, 139200, Note_on_c, 9, 44, 95
10, 139200, Note_on_c, 9, 36, 79
10, 139320, Note_off_c, 9, 44, 80
10, 139320, Note_off_c, 9, 36, 80
10, 139320, Note_on_c, 9, 44, 31
10, 139440, Note_off_c, 9, 44, 80
10, 139440, Note_on_c, 9, 44, 63
10, 139560, Note_off_c, 9, 44, 80
10, 139560, Note_on_c, 9, 44, 79
10, 139680, Note_off_c, 9, 44, 80
10, 139680, Note_on_c, 9, 44, 95
10, 139680, Note_on_c, 9, 37, 95
10, 139800, Note_off_c, 9, 44, 80
10, 139800, Note_off_c, 9, 37, 80
10, 139800, Note_on_c, 9, 44, 31
10, 139920, Note_off_c, 9, 44, 80
10, 139920, Note_on_c, 9, 44, 63
10, 139920, Note_on_c, 9, 46, 95
10, 140040, Note_off_c, 9, 44, 80
10, 140040, Note_off_c, 9, 46, 80
10, 140040, Note_on_c, 9, 44, 79
10, 140160, Note_off_c, 9, 44, 80
10, 140160, Note_on_c, 9, 44, 95
10, 140280, Note_off_c, 9, 44, 80
10, 140280, Note_on_c, 9, 44, 31
10, 140400, Note_off_c, 9, 44, 80
10, 140400, Note_on_c, 9, 44, 63
10, 140520, Note_off_c, 9, 44, 80
10, 140520, Note_on_c, 9, 44, 79
10, 140520, Note_on_c, 9, 36, 95
10, 140640, Note_off_c, 9, 44, 80
10, 140640, Note_off_c, 9, 36, 80
10, 140640, Note_on_c, 9, 44, 95
10, 140640, Note_on_c, 9, 37, 95
10, 140640, Note_on_c, 9, 42, 95
10, 140760, Note_off_c, 9, 44, 80
10, 140760, Note_off_c, 9, 37, 80
10, 140760, Note_off_c, 9, 42, 80
10, 140760, Note_on_c, 9, 44, 31
10, 140880, Note_off_c, 9, 44, 80
10, 140880, Note_on_c, 9, 44, 63
10, 140880, Note_on_c, 9, 36, 95
10, 141000, Note_off_c, 9, 44, 80
10, 141000, Note_off_c, 9, 36, 80
10, 141000, Note_on_c, 9, 44, 79
10, 141120, Note_off_c, 9, 44, 80
10, 141120, Note_on_c, 9, 44, 95
10, 141120, Note_on_c, 9, 36, 95
10, 141240, Note_off_c, 9, 44, 80
10, 141240, Note_off_c, 9, 36, 80
10, 141240, Note_on_c, 9, 44, 31
10, 141360, Note_off_c, 9, 44, 80
10, 141360, Note_on_c, 9, 44, 63
10, 141480, Note_off_c, 9, 44, 80
10, 141480, Note_on_c, 9, 44, 79
10, 141600, Note_off_c, 9, 44, 80
10, 141600, Note_on_c, 9, 44, 95
10, 141600, Note_on_c, 9, 37, 95
10, 141720, Note_off_c, 9, 44, 80
10, 141720, Note_off_c, 9, 37, 80
10, 141720, Note_on_c, 9, 44, 31
10, 141840, Note_off_c, 9, 44, 80
10, 141840, Note_on_c, 9, 44, 63
10, 141840, Note_on_c, 9, 36, 95
10, 141960, Note_off_c, 9, 44, 80
10, 141960, Note_off_c, 9, 36, 80
10, 141960, Note_on_c, 9, 44, 79
10, 142080, Note_off_c, 9, 44, 80
10, 142080, Note_on_c, 9, 44, 95
10, 142200, Note_off_c, 9, 44, 80
10, 142200, Note_on_c, 9, 44, 31
10, 142320, Note_off_c, 9, 44, 80
10, 142320, Note_on_c, 9, 44, 63
10, 142440, Note_off_c, 9, 44, 80
10, 142440, Note_on_c, 9, 44, 79
10, 142560, Note_off_c, 9, 44, 80
10, 142560, Note_on_c, 9, 44, 95
10, 142560, Note_on_c, 9, 37, 95
10, 142680, Note_off_c, 9, 44, 80
10, 142680, Note_off_c, 9, 37, 80
10, 142680, Note_on_c, 9, 44, 31
10, 142800, Note_off_c, 9, 44, 80
10, 142800, Note_on_c, 9, 44, 63
10, 142920, Note_off_c, 9, 44, 80
10, 142920, Note_on_c, 9, 44, 79
10, 143040, Note_off_c, 9, 44, 80
10, 143040, Note_on_c, 9, 44, 95
10, 143040, Note_on_c, 9, 36, 79
10, 143160, Note_off_c, 9, 44, 80
10, 143160, Note_off_c, 9, 36, 80
10, 143160, Note_on_c, 9, 44, 31
10, 143280, Note_off_c, 9, 44, 80
10, 143280, Note_on_c, 9, 44, 63
10, 143400, Note_off_c, 9, 44, 80
10, 143400, Note_on_c, 9, 44, 79
10, 143520, Note_off_c, 9, 44, 80
10, 143520, Note_on_c, 9, 44, 95
10, 143520, Note_on_c, 9, 37, 95
10, 143640, Note_off_c, 9, 44, 80
10, 143640, Note_off_c, 9, 37, 80
10, 143640, Note_on_c, 9, 44, 31
10, 143760, Note_off_c, 9, 44, 80
10, 143760, Note_on_c, 9, 44, 63
10, 143760, Note_on_c, 9, 46, 95
10, 143880, Note_off_c, 9, 44, 80
10, 143880, Note_off_c, 9, 46, 80
10, 143880, Note_on_c, 9, 44, 79
10, 143880, Note_on_c, 9, 84, 95
10, 144000, Note_off_c, 9, 44, 80
10, 144000, Note_on_c, 9, 44, 95
10, 144000, Note_on_c, 9, 52, 95
10, 144120, Note_off_c, 9, 84, 80
10, 144120, Note_off_c, 9, 44, 80
10, 144120, Note_off_c, 9, 52, 80
10, 144120, Note_on_c, 9, 44, 31
10, 144240, Note_off_c, 9, 44, 80
10, 144240, Note_on_c, 9, 44, 63
10, 144360, Note_off_c, 9, 44, 80
10, 144360, Note_on_c, 9, 44, 79
10, 144360, Note_on_c, 9, 36, 95
10, 144480, Note_off_c, 9, 44, 80
10, 144480, Note_off_c, 9, 36, 80
10, 144480, Note_on_c, 9, 44, 95
10, 144480, Note_on_c, 9, 37, 95
10, 144480, Note_on_c, 9, 42, 95
10, 144600, Note_off_c, 9, 44, 80
10, 144600, Note_off_c, 9, 37, 80
10, 144600, Note_off_c, 9, 42, 80
10, 144600, Note_on_c, 9, 44, 31
10, 144720, Note_off_c, 9, 44, 80
10, 144720, Note_on_c, 9, 44, 63
10, 144720, Note_on_c, 9, 36, 95
10, 144840, Note_off_c, 9, 44, 80
10, 144840, Note_off_c, 9, 36, 80
10, 144840, Note_on_c, 9, 44, 79
10, 144960, Note_off_c, 9, 44, 80
10, 144960, Note_on_c, 9, 44, 95
10, 144960, Note_on_c, 9, 36, 95
10, 145080, Note_off_c, 9, 44, 80
10, 145080, Note_off_c, 9, 36, 80
10, 145080, Note_on_c, 9, 44, 31
10, 145200, Note_off_c, 9, 44, 80
10, 145200, Note_on_c, 9, 44, 63
10, 145320, Note_off_c, 9, 44, 80
10, 145320, Note_on_c, 9, 44, 79
10, 145440, Note_off_c, 9, 44, 80
10, 145440, Note_on_c, 9, 44, 95
10, 145440, Note_on_c, 9, 37, 95
10, 145560, Note_off_c, 9, 44, 80
10, 145560, Note_off_c, 9, 37, 80
10, 145560, Note_on_c, 9, 44, 31
10, 145680, Note_off_c, 9, 44, 80
10, 145680, Note_on_c, 9, 44, 63
10, 145680, Note_on_c, 9, 36, 95
10, 145800, Note_off_c, 9, 44, 80
10, 145800, Note_off_c, 9, 36, 80
10, 145800, Note_on_c, 9, 44, 79
10, 145920, Note_off_c, 9, 44, 80
10, 145920, Note_on_c, 9, 44, 95
10, 146040, Note_off_c, 9, 44, 80
10, 146040, Note_on_c, 9, 44, 31
10, 146160, Note_off_c, 9, 44, 80
10, 146160, Note_on_c, 9, 44, 63
10, 146280, Note_off_c, 9, 44, 80
10, 146280, Note_on_c, 9, 44, 79
10, 146400, Note_off_c, 9, 44, 80
10, 146400, Note_on_c, 9, 44, 95
10, 146400, Note_on_c, 9, 37, 95
10, 146520, Note_off_c, 9, 44, 80
10, 146520, Note_off_c, 9, 37, 80
10, 146520, Note_on_c, 9, 44, 31
10, 146640, Note_off_c, 9, 44, 80
10, 146640, Note_on_c, 9, 44, 63
10, 146760, Note_off_c, 9, 44, 80
10, 146760, Note_on_c, 9, 44, 79
10, 146880, Note_off_c, 9, 44, 80
10, 146880, Note_on_c, 9, 44, 95
10, 146880, Note_on_c, 9, 36, 79
10, 147000, Note_off_c, 9, 44, 80
10, 147000, Note_off_c, 9, 36, 80
10, 147000, Note_on_c, 9, 44, 31
10, 147120, Note_off_c, 9, 44, 80
10, 147120, Note_on_c, 9, 44, 63
10, 147240, Note_off_c, 9, 44, 80
10, 147240, Note_on_c, 9, 44, 79
10, 147360, Note_off_c, 9, 44, 80
10, 147360, Note_on_c, 9, 44, 95
10, 147360, Note_on_c, 9, 37, 95
10, 147480, Note_off_c, 9, 44, 80
10, 147480, Note_off_c, 9, 37, 80
10, 147480, Note_on_c, 9, 44, 31
10, 147600, Note_off_c, 9, 44, 80
10, 147600, Note_on_c, 9, 44, 63
10, 147600, Note_on_c, 9, 46, 95
10, 147720, Note_off_c, 9, 44, 80
10, 147720, Note_off_c, 9, 46, 80
10, 147720, Note_on_c, 9, 44, 79
10, 147840, Note_off_c, 9, 44, 80
10, 147840, Note_on_c, 9, 44, 95
10, 147960, Note_off_c, 9, 44, 80
10, 147960, Note_on_c, 9, 44, 31
10, 148080, Note_off_c, 9, 44, 80
10, 148080, Note_on_c, 9, 44, 63
10, 148200, Note_off_c, 9, 44, 80
10, 148200, Note_on_c, 9, 44, 79
10, 148200, Note_on_c, 9, 36, 95
10, 148320, Note_off_c, 9, 44, 80
10, 148320, Note_off_c, 9, 36, 80
10, 148320, Note_on_c, 9, 44, 95
10, 148320, Note_on_c, 9, 37, 95
10, 148320, Note_on_c, 9, 42, 95
10, 148440, Note_off_c, 9, 44, 80
10, 148440, Note_off_c, 9, 37, 80
10, 148440, Note_off_c, 9, 42, 80
10, 148440, Note_on_c, 9, 44, 31
10, 148560, Note_off_c, 9, 44, 80
10, 148560, Note_on_c, 9, 44, 63
10, 148560, Note_on_c, 9, 36, 95
10, 148680, Note_off_c, 9, 44, 80
10, 148680, Note_off_c, 9, 36, 80
10, 148680, Note_on_c, 9, 44, 79
10, 148800, Note_off_c, 9, 44, 80
10, 148800, Note_on_c, 9, 44, 95
10, 148800, Note_on_c, 9, 36, 95
10, 148920, Note_off_c, 9, 44, 80
10, 148920, Note_off_c, 9, 36, 80
10, 148920, Note_on_c, 9, 44, 31
10, 149040, Note_off_c, 9, 44, 80
10, 149040, Note_on_c, 9, 44, 63
10, 149160, Note_off_c, 9, 44, 80
10, 149160, Note_on_c, 9, 44, 79
10, 149280, Note_off_c, 9, 44, 80
10, 149280, Note_on_c, 9, 44, 95
10, 149280, Note_on_c, 9, 37, 95
10, 149400, Note_off_c, 9, 44, 80
10, 149400, Note_off_c, 9, 37, 80
10, 149400, Note_on_c, 9, 44, 31
10, 149520, Note_off_c, 9, 44, 80
10, 149520, Note_on_c, 9, 44, 63
10, 149520, Note_on_c, 9, 36, 95
10, 149640, Note_off_c, 9, 44, 80
10, 149640, Note_off_c, 9, 36, 80
10, 149640, Note_on_c, 9, 44, 79
10, 149760, Note_off_c, 9, 44, 80
10, 149760, Note_on_c, 9, 44, 95
10, 149880, Note_off_c, 9, 44, 80
10, 149880, Note_on_c, 9, 44, 31
10, 150000, Note_off_c, 9, 44, 80
10, 150000, Note_on_c, 9, 44, 63
10, 150120, Note_off_c, 9, 44, 80
10, 150120, Note_on_c, 9, 44, 79
10, 150240, Note_off_c, 9, 44, 80
10, 150240, Note_on_c, 9, 44, 95
10, 150240, Note_on_c, 9, 37, 95
10, 150360, Note_off_c, 9, 44, 80
10, 150360, Note_off_c, 9, 37, 80
10, 150360, Note_on_c, 9, 44, 31
10, 150480, Note_off_c, 9, 44, 80
10, 150480, Note_on_c, 9, 44, 63
10, 150600, Note_off_c, 9, 44, 80
10, 150600, Note_on_c, 9, 44, 79
10, 150720, Note_off_c, 9, 44, 80
10, 150720, Note_on_c, 9, 44, 95
10, 150720, Note_on_c, 9, 36, 79
10, 150840, Note_off_c, 9, 44, 80
10, 150840, Note_off_c, 9, 36, 80
10, 150840, Note_on_c, 9, 44, 31
10, 150960, Note_off_c, 9, 44, 80
10, 150960, Note_on_c, 9, 44, 63
10, 151080, Note_off_c, 9, 44, 80
10, 151080, Note_on_c, 9, 44, 79
10, 151200, Note_off_c, 9, 44, 80
10, 151200, Note_on_c, 9, 44, 95
10, 151200, Note_on_c, 9, 37, 95
10, 151320, Note_off_c, 9, 44, 80
10, 151320, Note_off_c, 9, 37, 80
10, 151320, Note_on_c, 9, 44, 31
10, 151440, Note_off_c, 9, 44, 80
10, 151440, Note_on_c, 9, 44, 63
10, 151440, Note_on_c, 9, 46, 95
10, 151560, Note_off_c, 9, 44, 80
10, 151560, Note_off_c, 9, 46, 80
10, 151560, Note_on_c, 9, 44, 79
10, 151680, Note_off_c, 9, 44, 80
10, 151680, Note_on_c, 9, 44, 95
10, 151800, Note_off_c, 9, 44, 80
10, 151800, Note_on_c, 9, 44, 31
10, 151920, Note_off_c, 9, 44, 80
10, 151920, Note_on_c, 9, 44, 63
10, 152040, Note_off_c, 9, 44, 80
10, 152040, Note_on_c, 9, 44, 79
10, 152040, Note_on_c, 9, 36, 95
10, 152160, Note_off_c, 9, 44, 80
10, 152160, Note_off_c, 9, 36, 80
10, 152160, Note_on_c, 9, 44, 95
10, 152160, Note_on_c, 9, 37, 95
10, 152160, Note_on_c, 9, 42, 95
10, 152280, Note_off_c, 9, 44, 80
10, 152280, Note_off_c, 9, 37, 80
10, 152280, Note_off_c, 9, 42, 80
10, 152280, Note_on_c, 9, 44, 31
10, 152400, Note_off_c, 9, 44, 80
10, 152400, Note_on_c, 9, 44, 63
10, 152400, Note_on_c, 9, 36, 95
10, 152520, Note_off_c, 9, 44, 80
10, 152520, Note_off_c, 9, 36, 80
10, 152520, Note_on_c, 9, 44, 79
10, 152640, Note_off_c, 9, 44, 80
10, 152640, Note_on_c, 9, 44, 95
10, 152640, Note_on_c, 9, 36, 95
10, 152760, Note_off_c, 9, 44, 80
10, 152760, Note_off_c, 9, 36, 80
10, 152760, Note_on_c, 9, 44, 31
10, 152880, Note_off_c, 9, 44, 80
10, 152880, Note_on_c, 9, 44, 63
10, 153000, Note_off_c, 9, 44, 80
10, 153000, Note_on_c, 9, 44, 79
10, 153120, Note_off_c, 9, 44, 80
10, 153120, Note_on_c, 9, 44, 95
10, 153120, Note_on_c, 9, 37, 95
10, 153240, Note_off_c, 9, 44, 80
10, 153240, Note_off_c, 9, 37, 80
10, 153240, Note_on_c, 9, 44, 31
10, 153360, Note_off_c, 9, 44, 80
10, 153360, Note_on_c, 9, 44, 63
10, 153360, Note_on_c, 9, 36, 95
10, 153480, Note_off_c, 9, 44, 80
10, 153480, Note_off_c, 9, 36, 80
10, 153480, Note_on_c, 9, 44, 79
10, 153600, Note_off_c, 9, 44, 80
10, 153600, Note_on_c, 9, 44, 95
10, 153720, Note_off_c, 9, 44, 80
10, 153720, Note_on_c, 9, 44, 31
10, 153840, Note_off_c, 9, 44, 80
10, 153840, Note_on_c, 9, 44, 63
10, 153960, Note_off_c, 9, 44, 80
10, 153960, Note_on_c, 9, 44, 79
10, 154080, Note_off_c, 9, 44, 80
10, 154080, Note_on_c, 9, 44, 95
10, 154080, Note_on_c, 9, 37, 95
10, 154200, Note_off_c, 9, 44, 80
10, 154200, Note_off_c, 9, 37, 80
10, 154200, Note_on_c, 9, 44, 31
10, 154320, Note_off_c, 9, 44, 80
10, 154320, Note_on_c, 9, 44, 63
10, 154440, Note_off_c, 9, 44, 80
10, 154440, Note_on_c, 9, 44, 79
10, 154560, Note_off_c, 9, 44, 80
10, 154560, Note_on_c, 9, 44, 95
10, 154560, Note_on_c, 9, 36, 79
10, 154680, Note_off_c, 9, 44, 80
10, 154680, Note_off_c, 9, 36, 80
10, 154680, Note_on_c, 9, 44, 31
10, 154800, Note_off_c, 9, 44, 80
10, 154800, Note_on_c, 9, 44, 63
10, 154920, Note_off_c, 9, 44, 80
10, 154920, Note_on_c, 9, 44, 79
10, 155040, Note_off_c, 9, 44, 80
10, 155040, Note_on_c, 9, 44, 95
10, 155040, Note_on_c, 9, 37, 95
10, 155160, Note_off_c, 9, 44, 80
10, 155160, Note_off_c, 9, 37, 80
10, 155160, Note_on_c, 9, 44, 31
10, 155280, Note_off_c, 9, 44, 80
10, 155280, Note_on_c, 9, 44, 63
10, 155280, Note_on_c, 9, 46, 95
10, 155400, Note_off_c, 9, 44, 80
10, 155400, Note_off_c, 9, 46, 80
10, 155400, Note_on_c, 9, 44, 79
10, 155520, Note_off_c, 9, 44, 80
10, 155520, Note_on_c, 9, 44, 95
10, 155640, Note_off_c, 9, 44, 80
10, 155640, Note_on_c, 9, 44, 31
10, 155760, Note_off_c, 9, 44, 80
10, 155760, Note_on_c, 9, 44, 63
10, 155880, Note_off_c, 9, 44, 80
10, 155880, Note_on_c, 9, 44, 79
10, 155880, Note_on_c, 9, 36, 95
10, 156000, Note_off_c, 9, 44, 80
10, 156000, Note_off_c, 9, 36, 80
10, 156000, Note_on_c, 9, 44, 95
10, 156000, Note_on_c, 9, 37, 95
10, 156000, Note_on_c, 9, 42, 95
10, 156120, Note_off_c, 9, 44, 80
10, 156120, Note_off_c, 9, 37, 80
10, 156120, Note_off_c, 9, 42, 80
10, 156120, Note_on_c, 9, 44, 31
10, 156240, Note_off_c, 9, 44, 80
10, 156240, Note_on_c, 9, 44, 63
10, 156240, Note_on_c, 9, 36, 95
10, 156360, Note_off_c, 9, 44, 80
10, 156360, Note_off_c, 9, 36, 80
10, 156360, Note_on_c, 9, 44, 79
10, 156480, Note_off_c, 9, 44, 80
10, 156480, Note_on_c, 9, 44, 95
10, 156480, Note_on_c, 9, 36, 95
10, 156600, Note_off_c, 9, 44, 80
10, 156600, Note_off_c, 9, 36, 80
10, 156600, Note_on_c, 9, 44, 31
10, 156720, Note_off_c, 9, 44, 80
10, 156720, Note_on_c, 9, 44, 63
10, 156840, Note_off_c, 9, 44, 80
10, 156840, Note_on_c, 9, 44, 79
10, 156960, Note_off_c, 9, 44, 80
10, 156960, Note_on_c, 9, 44, 95
10, 156960, Note_on_c, 9, 37, 95
10, 157080, Note_off_c, 9, 44, 80
10, 157080, Note_off_c, 9, 37, 80
10, 157080, Note_on_c, 9, 44, 31
10, 157200, Note_off_c, 9, 44, 80
10, 157200, Note_on_c, 9, 44, 63
10, 157200, Note_on_c, 9, 36, 95
10, 157320, Note_off_c, 9, 44, 80
10, 157320, Note_off_c, 9, 36, 80
10, 157320, Note_on_c, 9, 44, 79
10, 157440, Note_off_c, 9, 44, 80
10, 157440, Note_on_c, 9, 44, 95
10, 157560, Note_off_c, 9, 44, 80
10, 157560, Note_on_c, 9, 44, 31
10, 157680, Note_off_c, 9, 44, 80
10, 157680, Note_on_c, 9, 44, 63
10, 157800, Note_off_c, 9, 44, 80
10, 157800, Note_on_c, 9, 44, 79
10, 157920, Note_off_c, 9, 44, 80
10, 157920, Note_on_c, 9, 44, 95
10, 157920, Note_on_c, 9, 37, 95
10, 158040, Note_off_c, 9, 44, 80
10, 158040, Note_off_c, 9, 37, 80
10, 158040, Note_on_c, 9, 44, 31
10, 158160, Note_off_c, 9, 44, 80
10, 158160, Note_on_c, 9, 44, 63
10, 158280, Note_off_c, 9, 44, 80
10, 158280, Note_on_c, 9, 44, 79
10, 158400, Note_off_c, 9, 44, 80
10, 158400, Note_on_c, 9, 44, 95
10, 158400, Note_on_c, 9, 36, 79
10, 158400, Note_on_c, 9, 38, 95
10, 158520, Note_off_c, 9, 44, 80
10, 158520, Note_off_c, 9, 36, 80
10, 158520, Note_off_c, 9, 38, 80
10, 158520, Note_on_c, 9, 44, 31
10, 158640, Note_off_c, 9, 44, 80
10, 158640, Note_on_c, 9, 44, 63
10, 158640, Note_on_c, 9, 48, 95
10, 158640, Note_on_c, 9, 38, 79
10, 158760, Note_off_c, 9, 44, 80
10, 158760, Note_off_c, 9, 48, 80
10, 158760, Note_off_c, 9, 38, 80
10, 158760, Note_on_c, 9, 44, 79
10, 158760, Note_on_c, 9, 47, 95
10, 158760, Note_on_c, 9, 38, 63
10, 158880, Note_off_c, 9, 44, 80
10, 158880, Note_off_c, 9, 47, 80
10, 158880, Note_off_c, 9, 38, 80
10, 158880, Note_on_c, 9, 44, 95
10, 158880, Note_on_c, 9, 37, 95
10, 158880, Note_on_c, 9, 45, 95
10, 158880, Note_on_c, 9, 38, 47
10, 159000, Note_off_c, 9, 44, 80
10, 159000, Note_off_c, 9, 37, 80
10, 159000, Note_off_c, 9, 45, 80
10, 159000, Note_off_c, 9, 38, 80
10, 159000, Note_on_c, 9, 44, 31
10, 159120, Note_off_c, 9, 44, 80
10, 159120, Note_on_c, 9, 44, 63
10, 159120, Note_on_c, 9, 46, 95
10, 159120, Note_on_c, 9, 36, 95
10, 159120, Note_on_c, 9, 49, 95
10, 159240, Note_off_c, 9, 44, 80
10, 159240, Note_off_c, 9, 46, 80
10, 159240, Note_off_c, 9, 36, 80
10, 159240, Note_off_c, 9, 49, 80
10, 159240, Note_on_c, 9, 44, 79
10, 159360, Note_off_c, 9, 44, 80
10, 159360, Note_on_c, 9, 42, 95
10, 159480, Note_off_c, 9, 42, 80
10, 159480, Note_on_c, 9, 42, 31
10, 159600, Note_off_c, 9, 42, 80
10, 159600, Note_on_c, 9, 42, 79
10, 159720, Note_off_c, 9, 42, 80
10, 159720, Note_on_c, 9, 42, 79
10, 159840, Note_off_c, 9, 42, 80
10, 159840, Note_on_c, 9, 42, 95
10, 159840, Note_on_c, 9, 38, 95
10, 159960, Note_off_c, 9, 42, 80
10, 159960, Note_off_c, 9, 38, 80
10, 159960, Note_on_c, 9, 42, 31
10, 160080, Note_off_c, 9, 42, 80
10, 160080, Note_on_c, 9, 42, 79
10, 160080, Note_on_c, 9, 36, 95
10, 160200, Note_off_c, 9, 42, 80
10, 160200, Note_off_c, 9, 36, 80
10, 160200, Note_on_c, 9, 42, 79
10, 160320, Note_off_c, 9, 42, 80
10, 160320, Note_on_c, 9, 42, 95
10, 160320, Note_on_c, 9, 36, 95
10, 160440, Note_off_c, 9, 42, 80
10, 160440, Note_off_c, 9, 36, 80
10, 160440, Note_on_c, 9, 42, 31
10, 160560, Note_off_c, 9, 42, 80
10, 160560, Note_on_c, 9, 42, 79
10, 160680, Note_off_c, 9, 42, 80
10, 160680, Note_on_c, 9, 42, 79
10, 160800, Note_off_c, 9, 42, 80
10, 160800, Note_on_c, 9, 42, 95
10, 160800, Note_on_c, 9, 38, 95
10, 160920, Note_off_c, 9, 42, 80
10, 160920, Note_off_c, 9, 38, 80
10, 160920, Note_on_c, 9, 42, 31
10, 161040, Note_off_c, 9, 42, 80
10, 161040, Note_on_c, 9, 42, 79
10, 161040, Note_on_c, 9, 36, 95
10, 161160, Note_off_c, 9, 42, 80
10, 161160, Note_off_c, 9, 36, 80
10, 161160, Note_on_c, 9, 42, 79
10, 161280, Note_off_c, 9, 42, 80
10, 161280, Note_on_c, 9, 42, 95
10, 161400, Note_off_c, 9, 42, 80
10, 161400, Note_on_c, 9, 42, 31
10, 161520, Note_off_c, 9, 42, 80
10, 161520, Note_on_c, 9, 42, 79
10, 161640, Note_off_c, 9, 42, 80
10, 161640, Note_on_c, 9, 42, 79
10, 161760, Note_off_c, 9, 42, 80
10, 161760, Note_on_c, 9, 42, 95
10, 161760, Note_on_c, 9, 38, 95
10, 161880, Note_off_c, 9, 42, 80
10, 161880, Note_off_c, 9, 38, 80
10, 161880, Note_on_c, 9, 42, 31
10, 162000, Note_off_c, 9, 42, 80
10, 162000, Note_on_c, 9, 42, 79
10, 162000, Note_on_c, 9, 36, 95
10, 162120, Note_off_c, 9, 42, 80
10, 162120, Note_off_c, 9, 36, 80
10, 162120, Note_on_c, 9, 42, 79
10, 162240, Note_off_c, 9, 42, 80
10, 162240, Note_on_c, 9, 42, 95
10, 162240, Note_on_c, 9, 36, 95
10, 162360, Note_off_c, 9, 42, 80
10, 162360, Note_off_c, 9, 36, 80
10, 162360, Note_on_c, 9, 42, 31
10, 162480, Note_off_c, 9, 42, 80
10, 162480, Note_on_c, 9, 42, 79
10, 162600, Note_off_c, 9, 42, 80
10, 162600, Note_on_c, 9, 42, 79
10, 162720, Note_off_c, 9, 42, 80
10, 162720, Note_on_c, 9, 42, 95
10, 162720, Note_on_c, 9, 38, 95
10, 162840, Note_off_c, 9, 42, 80
10, 162840, Note_off_c, 9, 38, 80
10, 162840, Note_on_c, 9, 42, 31
10, 162960, Note_off_c, 9, 42, 80
10, 162960, Note_on_c, 9, 42, 79
10, 162960, Note_on_c, 9, 36, 95
10, 163080, Note_off_c, 9, 42, 80
10, 163080, Note_off_c, 9, 36, 80
10, 163080, Note_on_c, 9, 42, 79
10, 163200, Note_off_c, 9, 42, 80
10, 163200, Note_on_c, 9, 42, 95
10, 163320, Note_off_c, 9, 42, 80
10, 163320, Note_on_c, 9, 42, 31
10, 163440, Note_off_c, 9, 42, 80
10, 163440, Note_on_c, 9, 42, 79
10, 163560, Note_off_c, 9, 42, 80
10, 163560, Note_on_c, 9, 42, 79
10, 163680, Note_off_c, 9, 42, 80
10, 163680, Note_on_c, 9, 42, 95
10, 163680, Note_on_c, 9, 38, 95
10, 163800, Note_off_c, 9, 42, 80
10, 163800, Note_off_c, 9, 38, 80
10, 163800, Note_on_c, 9, 42, 31
10, 163920, Note_off_c, 9, 42, 80
10, 163920, Note_on_c, 9, 42, 79
10, 163920, Note_on_c, 9, 36, 95
10, 164040, Note_off_c, 9, 42, 80
10, 164040, Note_off_c, 9, 36, 80
10, 164040, Note_on_c, 9, 42, 79
10, 164160, Note_off_c, 9, 42, 80
10, 164160, Note_on_c, 9, 42, 95
10, 164160, Note_on_c, 9, 36, 95
10, 164280, Note_off_c, 9, 42, 80
10, 164280, Note_off_c, 9, 36, 80
10, 164280, Note_on_c, 9, 42, 31
10, 164400, Note_off_c, 9, 42, 80
10, 164400, Note_on_c, 9, 42, 79
10, 164520, Note_off_c, 9, 42, 80
10, 164520, Note_on_c, 9, 42, 79
10, 164640, Note_off_c, 9, 42, 80
10, 164640, Note_on_c, 9, 42, 95
10, 164640, Note_on_c, 9, 38, 95
10, 164760, Note_off_c, 9, 42, 80
10, 164760, Note_off_c, 9, 38, 80
10, 164760, Note_on_c, 9, 42, 31
10, 164880, Note_off_c, 9, 42, 80
10, 164880, Note_on_c, 9, 42, 79
10, 164880, Note_on_c, 9, 36, 95
10, 165000, Note_off_c, 9, 42, 80
10, 165000, Note_off_c, 9, 36, 80
10, 165000, Note_on_c, 9, 42, 79
10, 165120, Note_off_c, 9, 42, 80
10, 165120, Note_on_c, 9, 42, 95
10, 165240, Note_off_c, 9, 42, 80
10, 165240, Note_on_c, 9, 42, 31
10, 165360, Note_off_c, 9, 42, 80
10, 165360, Note_on_c, 9, 42, 79
10, 165480, Note_off_c, 9, 42, 80
10, 165480, Note_on_c, 9, 42, 79
10, 165600, Note_off_c, 9, 42, 80
10, 165600, Note_on_c, 9, 42, 95
10, 165600, Note_on_c, 9, 38, 95
10, 165720, Note_off_c, 9, 42, 80
10, 165720, Note_off_c, 9, 38, 80
10, 165720, Note_on_c, 9, 42, 31
10, 165840, Note_off_c, 9, 42, 80
10, 165840, Note_on_c, 9, 42, 79
10, 165840, Note_on_c, 9, 36, 95
10, 165960, Note_off_c, 9, 42, 80
10, 165960, Note_off_c, 9, 36, 80
10, 165960, Note_on_c, 9, 42, 79
10, 166080, Note_off_c, 9, 42, 80
10, 166080, Note_on_c, 9, 42, 95
10, 166080, Note_on_c, 9, 36, 95
10, 166200, Note_off_c, 9, 42, 80
10, 166200, Note_off_c, 9, 36, 80
10, 166200, Note_on_c, 9, 42, 31
10, 166320, Note_off_c, 9, 42, 80
10, 166320, Note_on_c, 9, 42, 79
10, 166440, Note_off_c, 9, 42, 80
10, 166440, Note_on_c, 9, 42, 79
10, 166560, Note_off_c, 9, 42, 80
10, 166560, Note_on_c, 9, 42, 95
10, 166560, Note_on_c, 9, 38, 95
10, 166680, Note_off_c, 9, 42, 80
10, 166680, Note_off_c, 9, 38, 80
10, 166680, Note_on_c, 9, 42, 31
10, 166800, Note_off_c, 9, 42, 80
10, 166800, Note_on_c, 9, 42, 79
10, 166800, Note_on_c, 9, 36, 95
10, 166920, Note_off_c, 9, 42, 80
10, 166920, Note_off_c, 9, 36, 80
10, 166920, Note_on_c, 9, 42, 79
10, 167040, Note_off_c, 9, 42, 80
10, 167040, Note_on_c, 9, 42, 95
10, 167160, Note_off_c, 9, 42, 80
10, 167160, Note_on_c, 9, 42, 31
10, 167280, Note_off_c, 9, 42, 80
10, 167280, Note_on_c, 9, 42, 79
10, 167400, Note_off_c, 9, 42, 80
10, 167400, Note_on_c, 9, 42, 79
10, 167520, Note_off_c, 9, 42, 80
10, 167520, Note_on_c, 9, 42, 95
10, 167520, Note_on_c, 9, 38, 95
10, 167640, Note_off_c, 9, 42, 80
10, 167640, Note_off_c, 9, 38, 80
10, 167640, Note_on_c, 9, 42, 31
10, 167760, Note_off_c, 9, 42, 80
10, 167760, Note_on_c, 9, 42, 79
10, 167760, Note_on_c, 9, 36, 95
10, 167880, Note_off_c, 9, 42, 80
10, 167880, Note_off_c, 9, 36, 80
10, 167880, Note_on_c, 9, 42, 79
10, 168000, Note_off_c, 9, 42, 80
10, 168000, Note_on_c, 9, 42, 95
10, 168000, Note_on_c, 9, 36, 95
10, 168120, Note_off_c, 9, 42, 80
10, 168120, Note_off_c, 9, 36, 80
10, 168120, Note_on_c, 9, 42, 31
10, 168240, Note_off_c, 9, 42, 80
10, 168240, Note_on_c, 9, 42, 79
10, 168360, Note_off_c, 9, 42, 80
10, 168360, Note_on_c, 9, 42, 79
10, 168480, Note_off_c, 9, 42, 80
10, 168480, Note_on_c, 9, 42, 95
10, 168480, Note_on_c, 9, 38, 95
10, 168600, Note_off_c, 9, 42, 80
10, 168600, Note_off_c, 9, 38, 80
10, 168600, Note_on_c, 9, 42, 31
10, 168720, Note_off_c, 9, 42, 80
10, 168720, Note_on_c, 9, 42, 79
10, 168720, Note_on_c, 9, 36, 95
10, 168840, Note_off_c, 9, 42, 80
10, 168840, Note_off_c, 9, 36, 80
10, 168840, Note_on_c, 9, 42, 79
10, 168960, Note_off_c, 9, 42, 80
10, 168960, Note_on_c, 9, 42, 95
10, 169080, Note_off_c, 9, 42, 80
10, 169080, Note_on_c, 9, 42, 31
10, 169200, Note_off_c, 9, 42, 80
10, 169200, Note_on_c, 9, 42, 79
10, 169320, Note_off_c, 9, 42, 80
10, 169320, Note_on_c, 9, 42, 79
10, 169440, Note_off_c, 9, 42, 80
10, 169440, Note_on_c, 9, 42, 95
10, 169440, Note_on_c, 9, 38, 95
10, 169560, Note_off_c, 9, 42, 80
10, 169560, Note_off_c, 9, 38, 80
10, 169560, Note_on_c, 9, 42, 31
10, 169680, Note_off_c, 9, 42, 80
10, 169680, Note_on_c, 9, 42, 79
10, 169680, Note_on_c, 9, 36, 95
10, 169800, Note_off_c, 9, 42, 80
10, 169800, Note_off_c, 9, 36, 80
10, 169800, Note_on_c, 9, 42, 79
10, 169920, Note_off_c, 9, 42, 80
10, 169920, Note_on_c, 9, 42, 95
10, 169920, Note_on_c, 9, 36, 95
10, 170040, Note_off_c, 9, 42, 80
10, 170040, Note_off_c, 9, 36, 80
10, 170040, Note_on_c, 9, 42, 31
10, 170160, Note_off_c, 9, 42, 80
10, 170160, Note_on_c, 9, 42, 79
10, 170280, Note_off_c, 9, 42, 80
10, 170280, Note_on_c, 9, 42, 79
10, 170400, Note_off_c, 9, 42, 80
10, 170400, Note_on_c, 9, 42, 95
10, 170400, Note_on_c, 9, 38, 95
10, 170520, Note_off_c, 9, 42, 80
10, 170520, Note_off_c, 9, 38, 80
10, 170520, Note_on_c, 9, 42, 31
10, 170640, Note_off_c, 9, 42, 80
10, 170640, Note_on_c, 9, 42, 79
10, 170640, Note_on_c, 9, 36, 95
10, 170760, Note_off_c, 9, 42, 80
10, 170760, Note_off_c, 9, 36, 80
10, 170760, Note_on_c, 9, 42, 79
10, 170880, Note_off_c, 9, 42, 80
10, 170880, Note_on_c, 9, 42, 95
10, 171000, Note_off_c, 9, 42, 80
10, 171000, Note_on_c, 9, 42, 31
10, 171120, Note_off_c, 9, 42, 80
10, 171120, Note_on_c, 9, 42, 79
10, 171240, Note_off_c, 9, 42, 80
10, 171240, Note_on_c, 9, 42, 79
10, 171360, Note_off_c, 9, 42, 80
10, 171360, Note_on_c, 9, 42, 95
10, 171360, Note_on_c, 9, 38, 95
10, 171480, Note_off_c, 9, 42, 80
10, 171480, Note_off_c, 9, 38, 80
10, 171480, Note_on_c, 9, 42, 31
10, 171600, Note_off_c, 9, 42, 80
10, 171600, Note_on_c, 9, 42, 79
10, 171600, Note_on_c, 9, 36, 95
10, 171720, Note_off_c, 9, 42, 80
10, 171720, Note_off_c, 9, 36, 80
10, 171720, Note_on_c, 9, 42, 79
10, 171840, Note_off_c, 9, 42, 80
10, 171840, Note_on_c, 9, 42, 95
10, 171840, Note_on_c, 9, 36, 95
10, 171960, Note_off_c, 9, 42, 80
10, 171960, Note_off_c, 9, 36, 80
10, 171960, Note_on_c, 9, 42, 31
10, 172080, Note_off_c, 9, 42, 80
10, 172080, Note_on_c, 9, 42, 79
10, 172200, Note_off_c, 9, 42, 80
10, 172200, Note_on_c, 9, 42, 79
10, 172320, Note_off_c, 9, 42, 80
10, 172320, Note_on_c, 9, 42, 95
10, 172320, Note_on_c, 9, 38, 95
10, 172440, Note_off_c, 9, 42, 80
10, 172440, Note_off_c, 9, 38, 80
10, 172440, Note_on_c, 9, 42, 31
10, 172560, Note_off_c, 9, 42, 80
10, 172560, Note_on_c, 9, 42, 79
10, 172560, Note_on_c, 9, 36, 95
10, 172680, Note_off_c, 9, 42, 80
10, 172680, Note_off_c, 9, 36, 80
10, 172680, Note_on_c, 9, 42, 79
10, 172800, Note_off_c, 9, 42, 80
10, 172800, Note_on_c, 9, 42, 95
10, 172920, Note_off_c, 9, 42, 80
10, 172920, Note_on_c, 9, 42, 31
10, 173040, Note_off_c, 9, 42, 80
10, 173040, Note_on_c, 9, 42, 79
10, 173160, Note_off_c, 9, 42, 80
10, 173160, Note_on_c, 9, 42, 79
10, 173280, Note_off_c, 9, 42, 80
10, 173280, Note_on_c, 9, 42, 95
10, 173280, Note_on_c, 9, 38, 95
10, 173400, Note_off_c, 9, 42, 80
10, 173400, Note_off_c, 9, 38, 80
10, 173400, Note_on_c, 9, 42, 31
10, 173520, Note_off_c, 9, 42, 80
10, 173520, Note_on_c, 9, 42, 79
10, 173520, Note_on_c, 9, 36, 95
10, 173640, Note_off_c, 9, 42, 80
10, 173640, Note_off_c, 9, 36, 80
10, 173640, Note_on_c, 9, 42, 79
10, 173760, Note_off_c, 9, 42, 80
10, 173760, Note_on_c, 9, 42, 95
10, 173760, Note_on_c, 9, 36, 95
10, 173880, Note_off_c, 9, 42, 80
10, 173880, Note_off_c, 9, 36, 80
10, 173880, Note_on_c, 9, 42, 31
10, 174000, Note_off_c, 9, 42, 80
10, 174000, Note_on_c, 9, 42, 79
10, 174120, Note_off_c, 9, 42, 80
10, 174120, Note_on_c, 9, 42, 79
10, 174240, Note_off_c, 9, 42, 80
10, 174240, Note_on_c, 9, 42, 95
10, 174240, Note_on_c, 9, 38, 95
10, 174360, Note_off_c, 9, 42, 80
10, 174360, Note_off_c, 9, 38, 80
10, 174360, Note_on_c, 9, 42, 31
10, 174480, Note_off_c, 9, 42, 80
10, 174480, Note_on_c, 9, 42, 79
10, 174480, Note_on_c, 9, 36, 95
10, 174600, Note_off_c, 9, 42, 80
10, 174600, Note_on_c, 9, 42, 79
10, 174720, Note_off_c, 9, 42, 80
10, 174720, Note_on_c, 9, 44, 95
10, 174720, Note_on_c, 9, 52, 95
10, 174840, Note_off_c, 9, 36, 80
10, 174840, Note_off_c, 9, 44, 80
10, 174840, Note_off_c, 9, 52, 80
10, 174840, Note_on_c, 9, 44, 31
10, 174960, Note_off_c, 9, 44, 80
10, 174960, Note_on_c, 9, 44, 63
10, 175080, Note_off_c, 9, 44, 80
10, 175080, Note_on_c, 9, 44, 79
10, 175080, Note_on_c, 9, 36, 95
10, 175200, Note_off_c, 9, 44, 80
10, 175200, Note_off_c, 9, 36, 80
10, 175200, Note_on_c, 9, 44, 95
10, 175200, Note_on_c, 9, 37, 95
10, 175200, Note_on_c, 9, 42, 95
10, 175320, Note_off_c, 9, 44, 80
10, 175320, Note_off_c, 9, 37, 80
10, 175320, Note_off_c, 9, 42, 80
10, 175320, Note_on_c, 9, 44, 31
10, 175440, Note_off_c, 9, 44, 80
10, 175440, Note_on_c, 9, 44, 63
10, 175440, Note_on_c, 9, 36, 95
10, 175560, Note_off_c, 9, 44, 80
10, 175560, Note_off_c, 9, 36, 80
10, 175560, Note_on_c, 9, 44, 79
10, 175680, Note_off_c, 9, 44, 80
10, 175680, Note_on_c, 9, 44, 95
10, 175680, Note_on_c, 9, 36, 95
10, 175800, Note_off_c, 9, 44, 80
10, 175800, Note_off_c, 9, 36, 80
10, 175800, Note_on_c, 9, 44, 31
10, 175920, Note_off_c, 9, 44, 80
10, 175920, Note_on_c, 9, 44, 63
10, 176040, Note_off_c, 9, 44, 80
10, 176040, Note_on_c, 9, 44, 79
10, 176160, Note_off_c, 9, 44, 80
10, 176160, Note_on_c, 9, 44, 95
10, 176160, Note_on_c, 9, 37, 95
10, 176280, Note_off_c, 9, 44, 80
10, 176280, Note_off_c, 9, 37, 80
10, 176280, Note_on_c, 9, 44, 31
10, 176400, Note_off_c, 9, 44, 80
10, 176400, Note_on_c, 9, 44, 63
10, 176400, Note_on_c, 9, 36, 95
10, 176520, Note_off_c, 9, 44, 80
10, 176520, Note_off_c, 9, 36, 80
10, 176520, Note_on_c, 9, 44, 79
10, 176640, Note_off_c, 9, 44, 80
10, 176640, Note_on_c, 9, 44, 95
10, 176760, Note_off_c, 9, 44, 80
10, 176760, Note_on_c, 9, 44, 31
10, 176880, Note_off_c, 9, 44, 80
10, 176880, Note_on_c, 9, 44, 63
10, 177000, Note_off_c, 9, 44, 80
10, 177000, Note_on_c, 9, 44, 79
10, 177120, Note_off_c, 9, 44, 80
10, 177120, Note_on_c, 9, 44, 95
10, 177120, Note_on_c, 9, 37, 95
10, 177240, Note_off_c, 9, 44, 80
10, 177240, Note_off_c, 9, 37, 80
10, 177240, Note_on_c, 9, 44, 31
10, 177360, Note_off_c, 9, 44, 80
10, 177360, Note_on_c, 9, 44, 63
10, 177480, Note_off_c, 9, 44, 80
10, 177480, Note_on_c, 9, 44, 79
10, 177600, Note_off_c, 9, 44, 80
10, 177600, Note_on_c, 9, 44, 95
10, 177600, Note_on_c, 9, 36, 79
10, 177720, Note_off_c, 9, 44, 80
10, 177720, Note_off_c, 9, 36, 80
10, 177720, Note_on_c, 9, 44, 31
10, 177840, Note_off_c, 9, 44, 80
10, 177840, Note_on_c, 9, 44, 63
10, 177960, Note_off_c, 9, 44, 80
10, 177960, Note_on_c, 9, 44, 79
10, 178080, Note_off_c, 9, 44, 80
10, 178080, Note_on_c, 9, 44, 95
10, 178080, Note_on_c, 9, 37, 95
10, 178200, Note_off_c, 9, 44, 80
10, 178200, Note_off_c, 9, 37, 80
10, 178200, Note_on_c, 9, 44, 31
10, 178320, Note_off_c, 9, 44, 80
10, 178320, Note_on_c, 9, 44, 63
10, 178320, Note_on_c, 9, 46, 95
10, 178440, Note_off_c, 9, 44, 80
10, 178440, Note_off_c, 9, 46, 80
10, 178440, Note_on_c, 9, 44, 79
10, 178560, Note_off_c, 9, 44, 80
10, 178560, Note_on_c, 9, 44, 95
10, 178680, Note_off_c, 9, 44, 80
10, 178680, Note_on_c, 9, 44, 31
10, 178800, Note_off_c, 9, 44, 80
10, 178800, Note_on_c, 9, 44, 63
10, 178920, Note_off_c, 9, 44, 80
10, 178920, Note_on_c, 9, 44, 79
10, 178920, Note_on_c, 9, 36, 95
10, 179040, Note_off_c, 9, 44, 80
10, 179040, Note_off_c, 9, 36, 80
10, 179040, Note_on_c, 9, 44, 95
10, 179040, Note_on_c, 9, 37, 95
10, 179040, Note_on_c, 9, 42, 95
10, 179160, Note_off_c, 9, 44, 80
10, 179160, Note_off_c, 9, 37, 80
10, 179160, Note_off_c, 9, 42, 80
10, 179160, Note_on_c, 9, 44, 31
10, 179280, Note_off_c, 9, 44, 80
10, 179280, Note_on_c, 9, 44, 63
10, 179280, Note_on_c, 9, 36, 95
10, 179400, Note_off_c, 9, 44, 80
10, 179400, Note_off_c, 9, 36, 80
10, 179400, Note_on_c, 9, 44, 79
10, 179520, Note_off_c, 9, 44, 80
10, 179520, Note_on_c, 9, 44, 95
10, 179520, Note_on_c, 9, 36, 95
10, 179640, Note_off_c, 9, 44, 80
10, 179640, Note_off_c, 9, 36, 80
10, 179640, Note_on_c, 9, 44, 31
10, 179760, Note_off_c, 9, 44, 80
10, 179760, Note_on_c, 9, 44, 63
10, 179880, Note_off_c, 9, 44, 80
10, 179880, Note_on_c, 9, 44, 79
10, 180000, Note_off_c, 9, 44, 80
10, 180000, Note_on_c, 9, 44, 95
10, 180000, Note_on_c, 9, 37, 95
10, 180120, Note_off_c, 9, 44, 80
10, 180120, Note_off_c, 9, 37, 80
10, 180120, Note_on_c, 9, 44, 31
10, 180240, Note_off_c, 9, 44, 80
10, 180240, Note_on_c, 9, 44, 63
10, 180240, Note_on_c, 9, 36, 95
10, 180360, Note_off_c, 9, 44, 80
10, 180360, Note_off_c, 9, 36, 80
10, 180360, Note_on_c, 9, 44, 79
10, 180480, Note_off_c, 9, 44, 80
10, 180480, Note_on_c, 9, 44, 95
10, 180600, Note_off_c, 9, 44, 80
10, 180600, Note_on_c, 9, 44, 31
10, 180720, Note_off_c, 9, 44, 80
10, 180720, Note_on_c, 9, 44, 63
10, 180840, Note_off_c, 9, 44, 80
10, 180840, Note_on_c, 9, 44, 79
10, 180960, Note_off_c, 9, 44, 80
10, 180960, Note_on_c, 9, 44, 95
10, 180960, Note_on_c, 9, 37, 95
10, 181080, Note_off_c, 9, 44, 80
10, 181080, Note_off_c, 9, 37, 80
10, 181080, Note_on_c, 9, 44, 31
10, 181200, Note_off_c, 9, 44, 80
10, 181200, Note_on_c, 9, 44, 63
10, 181320, Note_off_c, 9, 44, 80
10, 181320, Note_on_c, 9, 44, 79
10, 181440, Note_off_c, 9, 44, 80
10, 181440, Note_on_c, 9, 44, 95
10, 181440, Note_on_c, 9, 36, 79
10, 181560, Note_off_c, 9, 44, 80
10, 181560, Note_off_c, 9, 36, 80
10, 181560, Note_on_c, 9, 44, 31
10, 181680, Note_off_c, 9, 44, 80
10, 181680, Note_on_c, 9, 44, 63
10, 181800, Note_off_c, 9, 44, 80
10, 181800, Note_on_c, 9, 44, 79
10, 181920, Note_off_c, 9, 44, 80
10, 181920, Note_on_c, 9, 44, 95
10, 181920, Note_on_c, 9, 37, 95
10, 182040, Note_off_c, 9, 44, 80
10, 182040, Note_off_c, 9, 37, 80
10, 182040, Note_on_c, 9, 44, 31
10, 182160, Note_off_c, 9, 44, 80
10, 182160, Note_on_c, 9, 44, 63
10, 182160, Note_on_c, 9, 46, 95
10, 182280, Note_off_c, 9, 44, 80
10, 182280, Note_off_c, 9, 46, 80
10, 182280, Note_on_c, 9, 44, 79
10, 182400, Note_off_c, 9, 44, 80
10, 182400, Note_on_c, 9, 44, 95
10, 182520, Note_off_c, 9, 44, 80
10, 182520, Note_on_c, 9, 44, 31
10, 182640, Note_off_c, 9, 44, 80
10, 182640, Note_on_c, 9, 44, 63
10, 182760, Note_off_c, 9, 44, 80
10, 182760, Note_on_c, 9, 44, 79
10, 182760, Note_on_c, 9, 36, 95
10, 182880, Note_off_c, 9, 44, 80
10, 182880, Note_off_c, 9, 36, 80
10, 182880, Note_on_c, 9, 44, 95
10, 182880, Note_on_c, 9, 37, 95
10, 182880, Note_on_c, 9, 42, 95
10, 183000, Note_off_c, 9, 44, 80
10, 183000, Note_off_c, 9, 37, 80
10, 183000, Note_off_c, 9, 42, 80
10, 183000, Note_on_c, 9, 44, 31
10, 183120, Note_off_c, 9, 44, 80
10, 183120, Note_on_c, 9, 44, 63
10, 183120, Note_on_c, 9, 36, 95
10, 183240, Note_off_c, 9, 44, 80
10, 183240, Note_off_c, 9, 36, 80
10, 183240, Note_on_c, 9, 44, 79
10, 183360, Note_off_c, 9, 44, 80
10, 183360, Note_on_c, 9, 44, 95
10, 183360, Note_on_c, 9, 36, 95
10, 183480, Note_off_c, 9, 44, 80
10, 183480, Note_off_c, 9, 36, 80
10, 183480, Note_on_c, 9, 44, 31
10, 183600, Note_off_c, 9, 44, 80
10, 183600, Note_on_c, 9, 44, 63
10, 183720, Note_off_c, 9, 44, 80
10, 183720, Note_on_c, 9, 44, 79
10, 183840, Note_off_c, 9, 44, 80
10, 183840, Note_on_c, 9, 44, 95
10, 183840, Note_on_c, 9, 37, 95
10, 183960, Note_off_c, 9, 44, 80
10, 183960, Note_off_c, 9, 37, 80
10, 183960, Note_on_c, 9, 44, 31
10, 184080, Note_off_c, 9, 44, 80
10, 184080, Note_on_c, 9, 44, 63
10, 184080, Note_on_c, 9, 36, 95
10, 184200, Note_off_c, 9, 44, 80
10, 184200, Note_off_c, 9, 36, 80
10, 184200, Note_on_c, 9, 44, 79
10, 184320, Note_off_c, 9, 44, 80
10, 184320, Note_on_c, 9, 44, 95
10, 184440, Note_off_c, 9, 44, 80
10, 184440, Note_on_c, 9, 44, 31
10, 184560, Note_off_c, 9, 44, 80
10, 184560, Note_on_c, 9, 44, 63
10, 184680, Note_off_c, 9, 44, 80
10, 184680, Note_on_c, 9, 44, 79
10, 184800, Note_off_c, 9, 44, 80
10, 184800, Note_on_c, 9, 44, 95
10, 184800, Note_on_c, 9, 37, 95
10, 184920, Note_off_c, 9, 44, 80
10, 184920, Note_off_c, 9, 37, 80
10, 184920, Note_on_c, 9, 44, 31
10, 185040, Note_off_c, 9, 44, 80
10, 185040, Note_on_c, 9, 44, 63
10, 185160, Note_off_c, 9, 44, 80
10, 185160, Note_on_c, 9, 44, 79
10, 185280, Note_off_c, 9, 44, 80
10, 185280, Note_on_c, 9, 44, 95
10, 185280, Note_on_c, 9, 36, 79
10, 185400, Note_off_c, 9, 44, 80
10, 185400, Note_off_c, 9, 36, 80
10, 185400, Note_on_c, 9, 44, 31
10, 185520, Note_off_c, 9, 44, 80
10, 185520, Note_on_c, 9, 44, 63
10, 185640, Note_off_c, 9, 44, 80
10, 185640, Note_on_c, 9, 44, 79
10, 185760, Note_off_c, 9, 44, 80
10, 185760, Note_on_c, 9, 44, 95
10, 185760, Note_on_c, 9, 37, 95
10, 185880, Note_off_c, 9, 44, 80
10, 185880, Note_off_c, 9, 37, 80
10, 185880, Note_on_c, 9, 44, 31
10, 186000, Note_off_c, 9, 44, 80
10, 186000, Note_on_c, 9, 44, 63
10, 186000, Note_on_c, 9, 46, 95
10, 186120, Note_off_c, 9, 44, 80
10, 186120, Note_off_c, 9, 46, 80
10, 186120, Note_on_c, 9, 44, 79
10, 186240, Note_off_c, 9, 44, 80
10, 186240, Note_on_c, 9, 44, 95
10, 186360, Note_off_c, 9, 44, 80
10, 186360, Note_on_c, 9, 44, 31
10, 186480, Note_off_c, 9, 44, 80
10, 186480, Note_on_c, 9, 44, 63
10, 186600, Note_off_c, 9, 44, 80
10, 186600, Note_on_c, 9, 44, 79
10, 186600, Note_on_c, 9, 36, 95
10, 186720, Note_off_c, 9, 44, 80
10, 186720, Note_off_c, 9, 36, 80
10, 186720, Note_on_c, 9, 44, 95
10, 186720, Note_on_c, 9, 37, 95
10, 186720, Note_on_c, 9, 42, 95
10, 186840, Note_off_c, 9, 44, 80
10, 186840, Note_off_c, 9, 37, 80
10, 186840, Note_off_c, 9, 42, 80
10, 186840, Note_on_c, 9, 44, 31
10, 186960, Note_off_c, 9, 44, 80
10, 186960, Note_on_c, 9, 44, 63
10, 186960, Note_on_c, 9, 36, 95
10, 187080, Note_off_c, 9, 44, 80
10, 187080, Note_off_c, 9, 36, 80
10, 187080, Note_on_c, 9, 44, 79
10, 187200, Note_off_c, 9, 44, 80
10, 187200, Note_on_c, 9, 44, 95
10, 187200, Note_on_c, 9, 36, 95
10, 187320, Note_off_c, 9, 44, 80
10, 187320, Note_off_c, 9, 36, 80
10, 187320, Note_on_c, 9, 44, 31
10, 187440, Note_off_c, 9, 44, 80
10, 187440, Note_on_c, 9, 44, 63
10, 187560, Note_off_c, 9, 44, 80
10, 187560, Note_on_c, 9, 44, 79
10, 187680, Note_off_c, 9, 44, 80
10, 187680, Note_on_c, 9, 44, 95
10, 187680, Note_on_c, 9, 37, 95
10, 187800, Note_off_c, 9, 44, 80
10, 187800, Note_off_c, 9, 37, 80
10, 187800, Note_on_c, 9, 44, 31
10, 187920, Note_off_c, 9, 44, 80
10, 187920, Note_on_c, 9, 44, 63
10, 187920, Note_on_c, 9, 36, 95
10, 188040, Note_off_c, 9, 44, 80
10, 188040, Note_off_c, 9, 36, 80
10, 188040, Note_on_c, 9, 44, 79
10, 188160, Note_off_c, 9, 44, 80
10, 188160, Note_on_c, 9, 44, 95
10, 188280, Note_off_c, 9, 44, 80
10, 188280, Note_on_c, 9, 44, 31
10, 188400, Note_off_c, 9, 44, 80
10, 188400, Note_on_c, 9, 44, 63
10, 188520, Note_off_c, 9, 44, 80
10, 188520, Note_on_c, 9, 44, 79
10, 188640, Note_off_c, 9, 44, 80
10, 188640, Note_on_c, 9, 44, 95
10, 188640, Note_on_c, 9, 37, 95
10, 188760, Note_off_c, 9, 44, 80
10, 188760, Note_off_c, 9, 37, 80
10, 188760, Note_on_c, 9, 44, 31
10, 188880, Note_off_c, 9, 44, 80
10, 188880, Note_on_c, 9, 44, 63
10, 189000, Note_off_c, 9, 44, 80
10, 189000, Note_on_c, 9, 44, 79
10, 189120, Note_off_c, 9, 44, 80
10, 189120, Note_on_c, 9, 44, 95
10, 189120, Note_on_c, 9, 36, 79
10, 189240, Note_off_c, 9, 44, 80
10, 189240, Note_off_c, 9, 36, 80
10, 189240, Note_on_c, 9, 44, 31
10, 189360, Note_off_c, 9, 44, 80
10, 189360, Note_on_c, 9, 44, 63
10, 189480, Note_off_c, 9, 44, 80
10, 189480, Note_on_c, 9, 44, 79
10, 189600, Note_off_c, 9, 44, 80
10, 189600, Note_on_c, 9, 44, 95
10, 189600, Note_on_c, 9, 37, 95
10, 189720, Note_off_c, 9, 44, 80
10, 189720, Note_off_c, 9, 37, 80
10, 189720, Note_on_c, 9, 44, 31
10, 189840, Note_off_c, 9, 44, 80
10, 189840, Note_on_c, 9, 44, 63
10, 189840, Note_on_c, 9, 46, 95
10, 189960, Note_off_c, 9, 44, 80
10, 189960, Note_on_c, 9, 44, 79
10, 190080, Note_off_c, 9, 44, 80
10, 190080, Note_on_c, 9, 44, 95
10, 190080, Note_on_c, 9, 52, 95
10, 190200, Note_off_c, 9, 46, 80
10, 190200, Note_off_c, 9, 44, 80
10, 190200, Note_off_c, 9, 52, 80
10, 190200, Note_on_c, 9, 44, 31
10, 190320, Note_off_c, 9, 44, 80
10, 190320, Note_on_c, 9, 44, 63
10, 190440, Note_off_c, 9, 44, 80
10, 190440, Note_on_c, 9, 44, 79
10, 190440, Note_on_c, 9, 36, 95
10, 190560, Note_off_c, 9, 44, 80
10, 190560, Note_off_c, 9, 36, 80
10, 190560, Note_on_c, 9, 44, 95
10, 190560, Note_on_c, 9, 37, 95
10, 190560, Note_on_c, 9, 42, 95
10, 190680, Note_off_c, 9, 44, 80
10, 190680, Note_off_c, 9, 37, 80
10, 190680, Note_off_c, 9, 42, 80
10, 190680, Note_on_c, 9, 44, 31
10, 190800, Note_off_c, 9, 44, 80
10, 190800, Note_on_c, 9, 44, 63
10, 190800, Note_on_c, 9, 36, 95
10, 190920, Note_off_c, 9, 44, 80
10, 190920, Note_off_c, 9, 36, 80
10, 190920, Note_on_c, 9, 44, 79
10, 191040, Note_off_c, 9, 44, 80
10, 191040, Note_on_c, 9, 44, 95
10, 191040, Note_on_c, 9, 36, 95
10, 191160, Note_off_c, 9, 44, 80
10, 191160, Note_off_c, 9, 36, 80
10, 191160, Note_on_c, 9, 44, 31
10, 191280, Note_off_c, 9, 44, 80
10, 191280, Note_on_c, 9, 44, 63
10, 191400, Note_off_c, 9, 44, 80
10, 191400, Note_on_c, 9, 44, 79
10, 191520, Note_off_c, 9, 44, 80
10, 191520, Note_on_c, 9, 44, 95
10, 191520, Note_on_c, 9, 37, 95
10, 191640, Note_off_c, 9, 44, 80
10, 191640, Note_off_c, 9, 37, 80
10, 191640, Note_on_c, 9, 44, 31
10, 191760, Note_off_c, 9, 44, 80
10, 191760, Note_on_c, 9, 44, 63
10, 191760, Note_on_c, 9, 36, 95
10, 191880, Note_off_c, 9, 44, 80
10, 191880, Note_off_c, 9, 36, 80
10, 191880, Note_on_c, 9, 44, 79
10, 192000, Note_off_c, 9, 44, 80
10, 192000, Note_on_c, 9, 44, 95
10, 192120, Note_off_c, 9, 44, 80
10, 192120, Note_on_c, 9, 44, 31
10, 192240, Note_off_c, 9, 44, 80
10, 192240, Note_on_c, 9, 44, 63
10, 192360, Note_off_c, 9, 44, 80
10, 192360, Note_on_c, 9, 44, 79
10, 192480, Note_off_c, 9, 44, 80
10, 192480, Note_on_c, 9, 44, 95
10, 192480, Note_on_c, 9, 37, 95
10, 192600, Note_off_c, 9, 44, 80
10, 192600, Note_off_c, 9, 37, 80
10, 192600, Note_on_c, 9, 44, 31
10, 192720, Note_off_c, 9, 44, 80
10, 192720, Note_on_c, 9, 44, 63
10, 192840, Note_off_c, 9, 44, 80
10, 192840, Note_on_c, 9, 44, 79
10, 192960, Note_off_c, 9, 44, 80
10, 192960, Note_on_c, 9, 44, 95
10, 192960, Note_on_c, 9, 36, 79
10, 193080, Note_off_c, 9, 44, 80
10, 193080, Note_off_c, 9, 36, 80
10, 193080, Note_on_c, 9, 44, 31
10, 193200, Note_off_c, 9, 44, 80
10, 193200, Note_on_c, 9, 44, 63
10, 193320, Note_off_c, 9, 44, 80
10, 193320, Note_on_c, 9, 44, 79
10, 193440, Note_off_c, 9, 44, 80
10, 193440, Note_on_c, 9, 44, 95
10, 193440, Note_on_c, 9, 37, 95
10, 193560, Note_off_c, 9, 44, 80
10, 193560, Note_off_c, 9, 37, 80
10, 193560, Note_on_c, 9, 44, 31
10, 193680, Note_off_c, 9, 44, 80
10, 193680, Note_on_c, 9, 44, 63
10, 193680, Note_on_c, 9, 46, 95
10, 193800, Note_off_c, 9, 44, 80
10, 193800, Note_off_c, 9, 46, 80
10, 193800, Note_on_c, 9, 44, 79
10, 193920, Note_off_c, 9, 44, 80
10, 193920, Note_on_c, 9, 44, 95
10, 194040, Note_off_c, 9, 44, 80
10, 194040, Note_on_c, 9, 44, 31
10, 194160, Note_off_c, 9, 44, 80
10, 194160, Note_on_c, 9, 44, 63
10, 194280, Note_off_c, 9, 44, 80
10, 194280, Note_on_c, 9, 44, 79
10, 194280, Note_on_c, 9, 36, 95
10, 194400, Note_off_c, 9, 44, 80
10, 194400, Note_off_c, 9, 36, 80
10, 194400, Note_on_c, 9, 44, 95
10, 194400, Note_on_c, 9, 37, 95
10, 194400, Note_on_c, 9, 42, 95
10, 194520, Note_off_c, 9, 44, 80
10, 194520, Note_off_c, 9, 37, 80
10, 194520, Note_off_c, 9, 42, 80
10, 194520, Note_on_c, 9, 44, 31
10, 194640, Note_off_c, 9, 44, 80
10, 194640, Note_on_c, 9, 44, 63
10, 194640, Note_on_c, 9, 36, 95
10, 194760, Note_off_c, 9, 44, 80
10, 194760, Note_off_c, 9, 36, 80
10, 194760, Note_on_c, 9, 44, 79
10, 194880, Note_off_c, 9, 44, 80
10, 194880, Note_on_c, 9, 44, 95
10, 194880, Note_on_c, 9, 36, 95
10, 195000, Note_off_c, 9, 44, 80
10, 195000, Note_off_c, 9, 36, 80
10, 195000, Note_on_c, 9, 44, 31
10, 195120, Note_off_c, 9, 44, 80
10, 195120, Note_on_c, 9, 44, 63
10, 195240, Note_off_c, 9, 44, 80
10, 195240, Note_on_c, 9, 44, 79
10, 195360, Note_off_c, 9, 44, 80
10, 195360, Note_on_c, 9, 44, 95
10, 195360, Note_on_c, 9, 37, 95
10, 195480, Note_off_c, 9, 44, 80
10, 195480, Note_off_c, 9, 37, 80
10, 195480, Note_on_c, 9, 44, 31
10, 195600, Note_off_c, 9, 44, 80
10, 195600, Note_on_c, 9, 44, 63
10, 195600, Note_on_c, 9, 36, 95
10, 195720, Note_off_c, 9, 44, 80
10, 195720, Note_off_c, 9, 36, 80
10, 195720, Note_on_c, 9, 44, 79
10, 195840, Note_off_c, 9, 44, 80
10, 195840, Note_on_c, 9, 44, 95
10, 195960, Note_off_c, 9, 44, 80
10, 195960, Note_on_c, 9, 44, 31
10, 196080, Note_off_c, 9, 44, 80
10, 196080, Note_on_c, 9, 44, 63
10, 196200, Note_off_c, 9, 44, 80
10, 196200, Note_on_c, 9, 44, 79
10, 196320, Note_off_c, 9, 44, 80
10, 196320, Note_on_c, 9, 44, 95
10, 196320, Note_on_c, 9, 37, 95
10, 196440, Note_off_c, 9, 44, 80
10, 196440, Note_off_c, 9, 37, 80
10, 196440, Note_on_c, 9, 44, 31
10, 196560, Note_off_c, 9, 44, 80
10, 196560, Note_on_c, 9, 44, 63
10, 196680, Note_off_c, 9, 44, 80
10, 196680, Note_on_c, 9, 44, 79
10, 196800, Note_off_c, 9, 44, 80
10, 196800, Note_on_c, 9, 44, 95
10, 196800, Note_on_c, 9, 36, 79
10, 196920, Note_off_c, 9, 44, 80
10, 196920, Note_off_c, 9, 36, 80
10, 196920, Note_on_c, 9, 44, 31
10, 197040, Note_off_c, 9, 44, 80
10, 197040, Note_on_c, 9, 44, 63
10, 197160, Note_off_c, 9, 44, 80
10, 197160, Note_on_c, 9, 44, 79
10, 197280, Note_off_c, 9, 44, 80
10, 197280, Note_on_c, 9, 44, 95
10, 197280, Note_on_c, 9, 37, 95
10, 197400, Note_off_c, 9, 44, 80
10, 197400, Note_off_c, 9, 37, 80
10, 197400, Note_on_c, 9, 44, 31
10, 197520, Note_off_c, 9, 44, 80
10, 197520, Note_on_c, 9, 44, 63
10, 197520, Note_on_c, 9, 46, 95
10, 197640, Note_off_c, 9, 44, 80
10, 197640, Note_off_c, 9, 46, 80
10, 197640, Note_on_c, 9, 44, 79
10, 197760, Note_off_c, 9, 44, 80
10, 197760, Note_on_c, 9, 44, 95
10, 197880, Note_off_c, 9, 44, 80
10, 197880, Note_on_c, 9, 44, 31
10, 198000, Note_off_c, 9, 44, 80
10, 198000, Note_on_c, 9, 44, 63
10, 198120, Note_off_c, 9, 44, 80
10, 198120, Note_on_c, 9, 44, 79
10, 198120, Note_on_c, 9, 36, 95
10, 198240, Note_off_c, 9, 44, 80
10, 198240, Note_off_c, 9, 36, 80
10, 198240, Note_on_c, 9, 44, 95
10, 198240, Note_on_c, 9, 37, 95
10, 198240, Note_on_c, 9, 42, 95
10, 198360, Note_off_c, 9, 44, 80
10, 198360, Note_off_c, 9, 37, 80
10, 198360, Note_off_c, 9, 42, 80
10, 198360, Note_on_c, 9, 44, 31
10, 198480, Note_off_c, 9, 44, 80
10, 198480, Note_on_c, 9, 44, 63
10, 198480, Note_on_c, 9, 36, 95
10, 198600, Note_off_c, 9, 44, 80
10, 198600, Note_off_c, 9, 36, 80
10, 198600, Note_on_c, 9, 44, 79
10, 198720, Note_off_c, 9, 44, 80
10, 198720, Note_on_c, 9, 44, 95
10, 198720, Note_on_c, 9, 36, 95
10, 198840, Note_off_c, 9, 44, 80
10, 198840, Note_off_c, 9, 36, 80
10, 198840, Note_on_c, 9, 44, 31
10, 198960, Note_off_c, 9, 44, 80
10, 198960, Note_on_c, 9, 44, 63
10, 199080, Note_off_c, 9, 44, 80
10, 199080, Note_on_c, 9, 44, 79
10, 199200, Note_off_c, 9, 44, 80
10, 199200, Note_on_c, 9, 44, 95
10, 199200, Note_on_c, 9, 37, 95
10, 199320, Note_off_c, 9, 44, 80
10, 199320, Note_off_c, 9, 37, 80
10, 199320, Note_on_c, 9, 44, 31
10, 199440, Note_off_c, 9, 44, 80
10, 199440, Note_on_c, 9, 44, 63
10, 199440, Note_on_c, 9, 36, 95
10, 199560, Note_off_c, 9, 44, 80
10, 199560, Note_off_c, 9, 36, 80
10, 199560, Note_on_c, 9, 44, 79
10, 199680, Note_off_c, 9, 44, 80
10, 199680, Note_on_c, 9, 44, 95
10, 199800, Note_off_c, 9, 44, 80
10, 199800, Note_on_c, 9, 44, 31
10, 199920, Note_off_c, 9, 44, 80
10, 199920, Note_on_c, 9, 44, 63
10, 200040, Note_off_c, 9, 44, 80
10, 200040, Note_on_c, 9, 44, 79
10, 200160, Note_off_c, 9, 44, 80
10, 200160, Note_on_c, 9, 44, 95
10, 200160, Note_on_c, 9, 37, 95
10, 200280, Note_off_c, 9, 44, 80
10, 200280, Note_off_c, 9, 37, 80
10, 200280, Note_on_c, 9, 44, 31
10, 200400, Note_off_c, 9, 44, 80
10, 200400, Note_on_c, 9, 44, 63
10, 200520, Note_off_c, 9, 44, 80
10, 200520, Note_on_c, 9, 44, 79
10, 200640, Note_off_c, 9, 44, 80
10, 200640, Note_on_c, 9, 44, 95
10, 200640, Note_on_c, 9, 36, 79
10, 200760, Note_off_c, 9, 44, 80
10, 200760, Note_off_c, 9, 36, 80
10, 200760, Note_on_c, 9, 44, 31
10, 200880, Note_off_c, 9, 44, 80
10, 200880, Note_on_c, 9, 44, 63
10, 201000, Note_off_c, 9, 44, 80
10, 201000, Note_on_c, 9, 44, 79
10, 201120, Note_off_c, 9, 44, 80
10, 201120, Note_on_c, 9, 44, 95
10, 201120, Note_on_c, 9, 37, 95
10, 201240, Note_off_c, 9, 44, 80
10, 201240, Note_off_c, 9, 37, 80
10, 201240, Note_on_c, 9, 44, 31
10, 201360, Note_off_c, 9, 44, 80
10, 201360, Note_on_c, 9, 44, 63
10, 201360, Note_on_c, 9, 46, 95
10, 201480, Note_off_c, 9, 44, 80
10, 201480, Note_off_c, 9, 46, 80
10, 201480, Note_on_c, 9, 44, 79
10, 201600, Note_off_c, 9, 44, 80
10, 201600, Note_on_c, 9, 44, 95
10, 201720, Note_off_c, 9, 44, 80
10, 201720, Note_on_c, 9, 44, 31
10, 201840, Note_off_c, 9, 44, 80
10, 201840, Note_on_c, 9, 44, 63
10, 201960, Note_off_c, 9, 44, 80
10, 201960, Note_on_c, 9, 44, 79
10, 201960, Note_on_c, 9, 36, 95
10, 202080, Note_off_c, 9, 44, 80
10, 202080, Note_off_c, 9, 36, 80
10, 202080, Note_on_c, 9, 44, 95
10, 202080, Note_on_c, 9, 37, 95
10, 202080, Note_on_c, 9, 42, 95
10, 202200, Note_off_c, 9, 44, 80
10, 202200, Note_off_c, 9, 37, 80
10, 202200, Note_off_c, 9, 42, 80
10, 202200, Note_on_c, 9, 44, 31
10, 202320, Note_off_c, 9, 44, 80
10, 202320, Note_on_c, 9, 44, 63
10, 202320, Note_on_c, 9, 36, 95
10, 202440, Note_off_c, 9, 44, 80
10, 202440, Note_off_c, 9, 36, 80
10, 202440, Note_on_c, 9, 44, 79
10, 202560, Note_off_c, 9, 44, 80
10, 202560, Note_on_c, 9, 44, 95
10, 202560, Note_on_c, 9, 36, 95
10, 202680, Note_off_c, 9, 44, 80
10, 202680, Note_off_c, 9, 36, 80
10, 202680, Note_on_c, 9, 44, 31
10, 202800, Note_off_c, 9, 44, 80
10, 202800, Note_on_c, 9, 44, 63
10, 202920, Note_off_c, 9, 44, 80
10, 202920, Note_on_c, 9, 44, 79
10, 203040, Note_off_c, 9, 44, 80
10, 203040, Note_on_c, 9, 44, 95
10, 203040, Note_on_c, 9, 37, 95
10, 203160, Note_off_c, 9, 44, 80
10, 203160, Note_off_c, 9, 37, 80
10, 203160, Note_on_c, 9, 44, 31
10, 203280, Note_off_c, 9, 44, 80
10, 203280, Note_on_c, 9, 44, 63
10, 203280, Note_on_c, 9, 36, 95
10, 203400, Note_off_c, 9, 44, 80
10, 203400, Note_off_c, 9, 36, 80
10, 203400, Note_on_c, 9, 44, 79
10, 203520, Note_off_c, 9, 44, 80
10, 203520, Note_on_c, 9, 44, 95
10, 203640, Note_off_c, 9, 44, 80
10, 203640, Note_on_c, 9, 44, 31
10, 203760, Note_off_c, 9, 44, 80
10, 203760, Note_on_c, 9, 44, 63
10, 203880, Note_off_c, 9, 44, 80
10, 203880, Note_on_c, 9, 44, 79
10, 204000, Note_off_c, 9, 44, 80
10, 204000, Note_on_c, 9, 44, 95
10, 204000, Note_on_c, 9, 37, 95
10, 204120, Note_off_c, 9, 44, 80
10, 204120, Note_off_c, 9, 37, 80
10, 204120, Note_on_c, 9, 44, 31
10, 204240, Note_off_c, 9, 44, 80
10, 204240, Note_on_c, 9, 44, 63
10, 204360, Note_off_c, 9, 44, 80
10, 204360, Note_on_c, 9, 44, 79
10, 204480, Note_off_c, 9, 44, 80
10, 204480, Note_on_c, 9, 44, 95
10, 204480, Note_on_c, 9, 36, 79
10, 204600, Note_off_c, 9, 44, 80
10, 204600, Note_off_c, 9, 36, 80
10, 204600, Note_on_c, 9, 44, 31
10, 204720, Note_off_c, 9, 44, 80
10, 204720, Note_on_c, 9, 44, 63
10, 204840, Note_off_c, 9, 44, 80
10, 204840, Note_on_c, 9, 44, 79
10, 204960, Note_off_c, 9, 44, 80
10, 204960, Note_on_c, 9, 44, 95
10, 204960, Note_on_c, 9, 37, 95
10, 205080, Note_off_c, 9, 44, 80
10, 205080, Note_off_c, 9, 37, 80
10, 205080, Note_on_c, 9, 44, 31
10, 205200, Note_off_c, 9, 44, 80
10, 205200, Note_on_c, 9, 44, 63
10, 205200, Note_on_c, 9, 46, 95
10, 205320, Note_off_c, 9, 44, 80
10, 205320, Note_on_c, 9, 44, 79
10, 205440, Note_off_c, 9, 44, 80
10, 205440, Note_on_c, 9, 44, 95
10, 205440, Note_on_c, 9, 52, 95
10, 205560, Note_off_c, 9, 46, 80
10, 205560, Note_off_c, 9, 44, 80
10, 205560, Note_off_c, 9, 52, 80
10, 205560, Note_on_c, 9, 44, 31
10, 205680, Note_off_c, 9, 44, 80
10, 205680, Note_on_c, 9, 44, 63
10, 205800, Note_off_c, 9, 44, 80
10, 205800, Note_on_c, 9, 44, 79
10, 205800, Note_on_c, 9, 36, 95
10, 205920, Note_off_c, 9, 44, 80
10, 205920, Note_off_c, 9, 36, 80
10, 205920, Note_on_c, 9, 44, 95
10, 205920, Note_on_c, 9, 37, 95
10, 205920, Note_on_c, 9, 42, 95
10, 206040, Note_off_c, 9, 44, 80
10, 206040, Note_off_c, 9, 37, 80
10, 206040, Note_off_c, 9, 42, 80
10, 206040, Note_on_c, 9, 44, 31
10, 206160, Note_off_c, 9, 44, 80
10, 206160, Note_on_c, 9, 44, 63
10, 206160, Note_on_c, 9, 36, 95
10, 206280, Note_off_c, 9, 44, 80
10, 206280, Note_off_c, 9, 36, 80
10, 206280, Note_on_c, 9, 44, 79
10, 206400, Note_off_c, 9, 44, 80
10, 206400, Note_on_c, 9, 44, 95
10, 206400, Note_on_c, 9, 36, 95
10, 206520, Note_off_c, 9, 44, 80
10, 206520, Note_off_c, 9, 36, 80
10, 206520, Note_on_c, 9, 44, 31
10, 206640, Note_off_c, 9, 44, 80
10, 206640, Note_on_c, 9, 44, 63
10, 206760, Note_off_c, 9, 44, 80
10, 206760, Note_on_c, 9, 44, 79
10, 206880, Note_off_c, 9, 44, 80
10, 206880, Note_on_c, 9, 44, 95
10, 206880, Note_on_c, 9, 37, 95
10, 207000, Note_off_c, 9, 44, 80
10, 207000, Note_off_c, 9, 37, 80
10, 207000, Note_on_c, 9, 44, 31
10, 207120, Note_off_c, 9, 44, 80
10, 207120, Note_on_c, 9, 44, 63
10, 207120, Note_on_c, 9, 36, 95
10, 207240, Note_off_c, 9, 44, 80
10, 207240, Note_off_c, 9, 36, 80
10, 207240, Note_on_c, 9, 44, 79
10, 207360, Note_off_c, 9, 44, 80
10, 207360, Note_on_c, 9, 44, 95
10, 207480, Note_off_c, 9, 44, 80
10, 207480, Note_on_c, 9, 44, 31
10, 207600, Note_off_c, 9, 44, 80
10, 207600, Note_on_c, 9, 44, 63
10, 207720, Note_off_c, 9, 44, 80
10, 207720, Note_on_c, 9, 44, 79
10, 207840, Note_off_c, 9, 44, 80
10, 207840, Note_on_c, 9, 44, 95
10, 207840, Note_on_c, 9, 37, 95
10, 207960, Note_off_c, 9, 44, 80
10, 207960, Note_off_c, 9, 37, 80
10, 207960, Note_on_c, 9, 44, 31
10, 208080, Note_off_c, 9, 44, 80
10, 208080, Note_on_c, 9, 44, 63
10, 208200, Note_off_c, 9, 44, 80
10, 208200, Note_on_c, 9, 44, 79
10, 208320, Note_off_c, 9, 44, 80
10, 208320, Note_on_c, 9, 44, 95
10, 208320, Note_on_c, 9, 36, 79
10, 208440, Note_off_c, 9, 44, 80
10, 208440, Note_off_c, 9, 36, 80
10, 208440, Note_on_c, 9, 44, 31
10, 208560, Note_off_c, 9, 44, 80
10, 208560, Note_on_c, 9, 44, 63
10, 208680, Note_off_c, 9, 44, 80
10, 208680, Note_on_c, 9, 44, 79
10, 208800, Note_off_c, 9, 44, 80
10, 208800, Note_on_c, 9, 44, 95
10, 208800, Note_on_c, 9, 37, 95
10, 208920, Note_off_c, 9, 44, 80
10, 208920, Note_off_c, 9, 37, 80
10, 208920, Note_on_c, 9, 44, 31
10, 209040, Note_off_c, 9, 44, 80
10, 209040, Note_on_c, 9, 44, 63
10, 209040, Note_on_c, 9, 46, 95
10, 209160, Note_off_c, 9, 44, 80
10, 209160, Note_off_c, 9, 46, 80
10, 209160, Note_on_c, 9, 44, 79
10, 209280, Note_off_c, 9, 44, 80
10, 209280, Note_on_c, 9, 44, 95
10, 209400, Note_off_c, 9, 44, 80
10, 209400, Note_on_c, 9, 44, 31
10, 209520, Note_off_c, 9, 44, 80
10, 209520, Note_on_c, 9, 44, 63
10, 209640, Note_off_c, 9, 44, 80
10, 209640, Note_on_c, 9, 44, 79
10, 209640, Note_on_c, 9, 36, 95
10, 209760, Note_off_c, 9, 44, 80
10, 209760, Note_off_c, 9, 36, 80
10, 209760, Note_on_c, 9, 44, 95
10, 209760, Note_on_c, 9, 37, 95
10, 209760, Note_on_c, 9, 42, 95
10, 209880, Note_off_c, 9, 44, 80
10, 209880, Note_off_c, 9, 37, 80
10, 209880, Note_off_c, 9, 42, 80
10, 209880, Note_on_c, 9, 44, 31
10, 210000, Note_off_c, 9, 44, 80
10, 210000, Note_on_c, 9, 44, 63
10, 210000, Note_on_c, 9, 36, 95
10, 210120, Note_off_c, 9, 44, 80
10, 210120, Note_off_c, 9, 36, 80
10, 210120, Note_on_c, 9, 44, 79
10, 210240, Note_off_c, 9, 44, 80
10, 210240, Note_on_c, 9, 44, 95
10, 210240, Note_on_c, 9, 36, 95
10, 210360, Note_off_c, 9, 44, 80
10, 210360, Note_off_c, 9, 36, 80
10, 210360, Note_on_c, 9, 44, 31
10, 210480, Note_off_c, 9, 44, 80
10, 210480, Note_on_c, 9, 44, 63
10, 210600, Note_off_c, 9, 44, 80
10, 210600, Note_on_c, 9, 44, 79
10, 210720, Note_off_c, 9, 44, 80
10, 210720, Note_on_c, 9, 44, 95
10, 210720, Note_on_c, 9, 37, 95
10, 210840, Note_off_c, 9, 44, 80
10, 210840, Note_off_c, 9, 37, 80
10, 210840, Note_on_c, 9, 44, 31
10, 210960, Note_off_c, 9, 44, 80
10, 210960, Note_on_c, 9, 44, 63
10, 210960, Note_on_c, 9, 36, 95
10, 211080, Note_off_c, 9, 44, 80
10, 211080, Note_off_c, 9, 36, 80
10, 211080, Note_on_c, 9, 44, 79
10, 211200, Note_off_c, 9, 44, 80
10, 211200, Note_on_c, 9, 44, 95
10, 211320, Note_off_c, 9, 44, 80
10, 211320, Note_on_c, 9, 44, 31
10, 211440, Note_off_c, 9, 44, 80
10, 211440, Note_on_c, 9, 44, 63
10, 211560, Note_off_c, 9, 44, 80
10, 211560, Note_on_c, 9, 44, 79
10, 211680, Note_off_c, 9, 44, 80
10, 211680, Note_on_c, 9, 44, 95
10, 211680, Note_on_c, 9, 37, 95
10, 211800, Note_off_c, 9, 44, 80
10, 211800, Note_off_c, 9, 37, 80
10, 211800, Note_on_c, 9, 44, 31
10, 211920, Note_off_c, 9, 44, 80
10, 211920, Note_on_c, 9, 44, 63
10, 212040, Note_off_c, 9, 44, 80
10, 212040, Note_on_c, 9, 44, 79
10, 212160, Note_off_c, 9, 44, 80
10, 212160, Note_on_c, 9, 44, 95
10, 212160, Note_on_c, 9, 36, 79
10, 212280, Note_off_c, 9, 44, 80
10, 212280, Note_off_c, 9, 36, 80
10, 212280, Note_on_c, 9, 44, 31
10, 212400, Note_off_c, 9, 44, 80
10, 212400, Note_on_c, 9, 44, 63
10, 212520, Note_off_c, 9, 44, 80
10, 212520, Note_on_c, 9, 44, 79
10, 212640, Note_off_c, 9, 44, 80
10, 212640, Note_on_c, 9, 44, 95
10, 212640, Note_on_c, 9, 37, 95
10, 212760, Note_off_c, 9, 44, 80
10, 212760, Note_off_c, 9, 37, 80
10, 212760, Note_on_c, 9, 44, 31
10, 212880, Note_off_c, 9, 44, 80
10, 212880, Note_on_c, 9, 44, 63
10, 212880, Note_on_c, 9, 46, 95
10, 213000, Note_off_c, 9, 44, 80
10, 213000, Note_on_c, 9, 44, 79
10, 213120, Note_off_c, 9, 44, 80
10, 213120, Note_on_c, 9, 44, 95
10, 213120, Note_on_c, 9, 52, 95
10, 213240, Note_off_c, 9, 46, 80
10, 213240, Note_off_c, 9, 44, 80
10, 213240, Note_off_c, 9, 52, 80
10, 213240, Note_on_c, 9, 44, 31
10, 213360, Note_off_c, 9, 44, 80
10, 213360, Note_on_c, 9, 44, 63
10, 213480, Note_off_c, 9, 44, 80
10, 213480, Note_on_c, 9, 44, 79
10, 213480, Note_on_c, 9, 36, 95
10, 213600, Note_off_c, 9, 44, 80
10, 213600, Note_off_c, 9, 36, 80
10, 213600, Note_on_c, 9, 44, 95
10, 213600, Note_on_c, 9, 37, 95
10, 213600, Note_on_c, 9, 42, 95
10, 213720, Note_off_c, 9, 44, 80
10, 213720, Note_off_c, 9, 37, 80
10, 213720, Note_off_c, 9, 42, 80
10, 213720, Note_on_c, 9, 44, 31
10, 213840, Note_off_c, 9, 44, 80
10, 213840, Note_on_c, 9, 44, 63
10, 213840, Note_on_c, 9, 36, 95
10, 213960, Note_off_c, 9, 44, 80
10, 213960, Note_off_c, 9, 36, 80
10, 213960, Note_on_c, 9, 44, 79
10, 214080, Note_off_c, 9, 44, 80
10, 214080, Note_on_c, 9, 44, 95
10, 214080, Note_on_c, 9, 36, 95
10, 214200, Note_off_c, 9, 44, 80
10, 214200, Note_off_c, 9, 36, 80
10, 214200, Note_on_c, 9, 44, 31
10, 214320, Note_off_c, 9, 44, 80
10, 214320, Note_on_c, 9, 44, 63
10, 214440, Note_off_c, 9, 44, 80
10, 214440, Note_on_c, 9, 44, 79
10, 214560, Note_off_c, 9, 44, 80
10, 214560, Note_on_c, 9, 44, 95
10, 214560, Note_on_c, 9, 37, 95
10, 214680, Note_off_c, 9, 44, 80
10, 214680, Note_off_c, 9, 37, 80
10, 214680, Note_on_c, 9, 44, 31
10, 214800, Note_off_c, 9, 44, 80
10, 214800, Note_on_c, 9, 44, 63
10, 214800, Note_on_c, 9, 36, 95
10, 214920, Note_off_c, 9, 44, 80
10, 214920, Note_off_c, 9, 36, 80
10, 214920, Note_on_c, 9, 44, 79
10, 215040, Note_off_c, 9, 44, 80
10, 215040, Note_on_c, 9, 44, 95
10, 215160, Note_off_c, 9, 44, 80
10, 215160, Note_on_c, 9, 44, 31
10, 215280, Note_off_c, 9, 44, 80
10, 215280, Note_on_c, 9, 44, 63
10, 215400, Note_off_c, 9, 44, 80
10, 215400, Note_on_c, 9, 44, 79
10, 215520, Note_off_c, 9, 44, 80
10, 215520, Note_on_c, 9, 44, 95
10, 215520, Note_on_c, 9, 37, 95
10, 215640, Note_off_c, 9, 44, 80
10, 215640, Note_off_c, 9, 37, 80
10, 215640, Note_on_c, 9, 44, 31
10, 215760, Note_off_c, 9, 44, 80
10, 215760, Note_on_c, 9, 44, 63
10, 215880, Note_off_c, 9, 44, 80
10, 215880, Note_on_c, 9, 44, 79
10, 216000, Note_off_c, 9, 44, 80
10, 216000, Note_on_c, 9, 44, 95
10, 216000, Note_on_c, 9, 36, 79
10, 216120, Note_off_c, 9, 44, 80
10, 216120, Note_off_c, 9, 36, 80
10, 216120, Note_on_c, 9, 44, 31
10, 216240, Note_off_c, 9, 44, 80
10, 216240, Note_on_c, 9, 44, 63
10, 216360, Note_off_c, 9, 44, 80
10, 216360, Note_on_c, 9, 44, 79
10, 216480, Note_off_c, 9, 44, 80
10, 216480, Note_on_c, 9, 44, 95
10, 216480, Note_on_c, 9, 37, 95
10, 216600, Note_off_c, 9, 44, 80
10, 216600, Note_off_c, 9, 37, 80
10, 216600, Note_on_c, 9, 44, 31
10, 216720, Note_off_c, 9, 44, 80
10, 216720, Note_on_c, 9, 44, 63
10, 216720, Note_on_c, 9, 46, 95
10, 216840, Note_off_c, 9, 44, 80
10, 216840, Note_off_c, 9, 46, 80
10, 216840, Note_on_c, 9, 44, 79
10, 216960, Note_off_c, 9, 44, 80
10, 216960, Note_on_c, 9, 44, 95
10, 217080, Note_off_c, 9, 44, 80
10, 217080, Note_on_c, 9, 44, 31
10, 217200, Note_off_c, 9, 44, 80
10, 217200, Note_on_c, 9, 44, 63
10, 217320, Note_off_c, 9, 44, 80
10, 217320, Note_on_c, 9, 44, 79
10, 217320, Note_on_c, 9, 36, 95
10, 217440, Note_off_c, 9, 44, 80
10, 217440, Note_off_c, 9, 36, 80
10, 217440, Note_on_c, 9, 44, 95
10, 217440, Note_on_c, 9, 37, 95
10, 217440, Note_on_c, 9, 42, 95
10, 217560, Note_off_c, 9, 44, 80
10, 217560, Note_off_c, 9, 37, 80
10, 217560, Note_off_c, 9, 42, 80
10, 217560, Note_on_c, 9, 44, 31
10, 217680, Note_off_c, 9, 44, 80
10, 217680, Note_on_c, 9, 44, 63
10, 217680, Note_on_c, 9, 36, 95
10, 217800, Note_off_c, 9, 44, 80
10, 217800, Note_off_c, 9, 36, 80
10, 217800, Note_on_c, 9, 44, 79
10, 217920, Note_off_c, 9, 44, 80
10, 217920, Note_on_c, 9, 44, 95
10, 217920, Note_on_c, 9, 36, 95
10, 218040, Note_off_c, 9, 44, 80
10, 218040, Note_off_c, 9, 36, 80
10, 218040, Note_on_c, 9, 44, 31
10, 218160, Note_off_c, 9, 44, 80
10, 218160, Note_on_c, 9, 44, 63
10, 218280, Note_off_c, 9, 44, 80
10, 218280, Note_on_c, 9, 44, 79
10, 218400, Note_off_c, 9, 44, 80
10, 218400, Note_on_c, 9, 44, 95
10, 218400, Note_on_c, 9, 37, 95
10, 218520, Note_off_c, 9, 44, 80
10, 218520, Note_off_c, 9, 37, 80
10, 218520, Note_on_c, 9, 44, 31
10, 218640, Note_off_c, 9, 44, 80
10, 218640, Note_on_c, 9, 44, 63
10, 218640, Note_on_c, 9, 36, 95
10, 218760, Note_off_c, 9, 44, 80
10, 218760, Note_off_c, 9, 36, 80
10, 218760, Note_on_c, 9, 44, 79
10, 218880, Note_off_c, 9, 44, 80
10, 218880, Note_on_c, 9, 44, 95
10, 219000, Note_off_c, 9, 44, 80
10, 219000, Note_on_c, 9, 44, 31
10, 219120, Note_off_c, 9, 44, 80
10, 219120, Note_on_c, 9, 44, 63
10, 219240, Note_off_c, 9, 44, 80
10, 219240, Note_on_c, 9, 44, 79
10, 219360, Note_off_c, 9, 44, 80
10, 219360, Note_on_c, 9, 44, 95
10, 219360, Note_on_c, 9, 37, 95
10, 219480, Note_off_c, 9, 44, 80
10, 219480, Note_off_c, 9, 37, 80
10, 219480, Note_on_c, 9, 44, 31
10, 219600, Note_off_c, 9, 44, 80
10, 219600, Note_on_c, 9, 44, 63
10, 219720, Note_off_c, 9, 44, 80
10, 219720, Note_on_c, 9, 44, 79
10, 219840, Note_off_c, 9, 44, 80
10, 219840, Note_on_c, 9, 44, 95
10, 219840, Note_on_c, 9, 36, 79
10, 219840, Note_on_c, 9, 38, 95
10, 219960, Note_off_c, 9, 44, 80
10, 219960, Note_off_c, 9, 36, 80
10, 219960, Note_off_c, 9, 38, 80
10, 219960, Note_on_c, 9, 44, 31
10, 220080, Note_off_c, 9, 44, 80
10, 220080, Note_on_c, 9, 44, 63
10, 220080, Note_on_c, 9, 48, 95
10, 220080, Note_on_c, 9, 38, 79
10, 220200, Note_off_c, 9, 44, 80
10, 220200, Note_off_c, 9, 48, 80
10, 220200, Note_off_c, 9, 38, 80
10, 220200, Note_on_c, 9, 44, 79
10, 220200, Note_on_c, 9, 47, 95
10, 220200, Note_on_c, 9, 38, 63
10, 220320, Note_off_c, 9, 44, 80
10, 220320, Note_off_c, 9, 47, 80
10, 220320, Note_off_c, 9, 38, 80
10, 220320, Note_on_c, 9, 44, 95
10, 220320, Note_on_c, 9, 37, 95
10, 220320, Note_on_c, 9, 45, 95
10, 220320, Note_on_c, 9, 38, 47
10, 220440, Note_off_c, 9, 44, 80
10, 220440, Note_off_c, 9, 37, 80
10, 220440, Note_off_c, 9, 45, 80
10, 220440, Note_off_c, 9, 38, 80
10, 220440, Note_on_c, 9, 44, 31
10, 220560, Note_off_c, 9, 44, 80
10, 220560, Note_on_c, 9, 44, 63
10, 220560, Note_on_c, 9, 46, 95
10, 220560, Note_on_c, 9, 36, 95
10, 220560, Note_on_c, 9, 49, 95
10, 220680, Note_off_c, 9, 44, 80
10, 220680, Note_off_c, 9, 46, 80
10, 220680, Note_off_c, 9, 36, 80
10, 220680, Note_off_c, 9, 49, 80
10, 220680, Note_on_c, 9, 44, 79
10, 220800, Note_off_c, 9, 44, 80
10, 220800, Note_on_c, 9, 42, 95
10, 220920, Note_off_c, 9, 42, 80
10, 220920, Note_on_c, 9, 42, 31
10, 221040, Note_off_c, 9, 42, 80
10, 221040, Note_on_c, 9, 42, 79
10, 221160, Note_off_c, 9, 42, 80
10, 221160, Note_on_c, 9, 42, 79
10, 221280, Note_off_c, 9, 42, 80
10, 221280, Note_on_c, 9, 42, 95
10, 221280, Note_on_c, 9, 38, 95
10, 221400, Note_off_c, 9, 42, 80
10, 221400, Note_off_c, 9, 38, 80
10, 221400, Note_on_c, 9, 42, 31
10, 221520, Note_off_c, 9, 42, 80
10, 221520, Note_on_c, 9, 42, 79
10, 221520, Note_on_c, 9, 36, 95
10, 221640, Note_off_c, 9, 42, 80
10, 221640, Note_off_c, 9, 36, 80
10, 221640, Note_on_c, 9, 42, 79
10, 221760, Note_off_c, 9, 42, 80
10, 221760, Note_on_c, 9, 42, 95
10, 221760, Note_on_c, 9, 36, 95
10, 221880, Note_off_c, 9, 42, 80
10, 221880, Note_off_c, 9, 36, 80
10, 221880, Note_on_c, 9, 42, 31
10, 222000, Note_off_c, 9, 42, 80
10, 222000, Note_on_c, 9, 42, 79
10, 222120, Note_off_c, 9, 42, 80
10, 222120, Note_on_c, 9, 42, 79
10, 222240, Note_off_c, 9, 42, 80
10, 222240, Note_on_c, 9, 42, 95
10, 222240, Note_on_c, 9, 38, 95
10, 222360, Note_off_c, 9, 42, 80
10, 222360, Note_off_c, 9, 38, 80
10, 222360, Note_on_c, 9, 42, 31
10, 222480, Note_off_c, 9, 42, 80
10, 222480, Note_on_c, 9, 42, 79
10, 222480, Note_on_c, 9, 36, 95
10, 222600, Note_off_c, 9, 42, 80
10, 222600, Note_off_c, 9, 36, 80
10, 222600, Note_on_c, 9, 42, 79
10, 222720, Note_off_c, 9, 42, 80
10, 222720, Note_on_c, 9, 42, 95
10, 222840, Note_off_c, 9, 42, 80
10, 222840, Note_on_c, 9, 42, 31
10, 222960, Note_off_c, 9, 42, 80
10, 222960, Note_on_c, 9, 42, 79
10, 223080, Note_off_c, 9, 42, 80
10, 223080, Note_on_c, 9, 42, 79
10, 223200, Note_off_c, 9, 42, 80
10, 223200, Note_on_c, 9, 42, 95
10, 223200, Note_on_c, 9, 38, 95
10, 223320, Note_off_c, 9, 42, 80
10, 223320, Note_off_c, 9, 38, 80
10, 223320, Note_on_c, 9, 42, 31
10, 223440, Note_off_c, 9, 42, 80
10, 223440, Note_on_c, 9, 42, 79
10, 223440, Note_on_c, 9, 36, 95
10, 223560, Note_off_c, 9, 42, 80
10, 223560, Note_off_c, 9, 36, 80
10, 223560, Note_on_c, 9, 42, 79
10, 223680, Note_off_c, 9, 42, 80
10, 223680, Note_on_c, 9, 42, 95
10, 223680, Note_on_c, 9, 36, 95
10, 223800, Note_off_c, 9, 42, 80
10, 223800, Note_off_c, 9, 36, 80
10, 223800, Note_on_c, 9, 42, 31
10, 223920, Note_off_c, 9, 42, 80
10, 223920, Note_on_c, 9, 42, 79
10, 224040, Note_off_c, 9, 42, 80
10, 224040, Note_on_c, 9, 42, 79
10, 224160, Note_off_c, 9, 42, 80
10, 224160, Note_on_c, 9, 42, 95
10, 224160, Note_on_c, 9, 38, 95
10, 224280, Note_off_c, 9, 42, 80
10, 224280, Note_off_c, 9, 38, 80
10, 224280, Note_on_c, 9, 42, 31
10, 224400, Note_off_c, 9, 42, 80
10, 224400, Note_on_c, 9, 42, 79
10, 224400, Note_on_c, 9, 36, 95
10, 224520, Note_off_c, 9, 42, 80
10, 224520, Note_off_c, 9, 36, 80
10, 224520, Note_on_c, 9, 42, 79
10, 224640, Note_off_c, 9, 42, 80
10, 224640, Note_on_c, 9, 42, 95
10, 224760, Note_off_c, 9, 42, 80
10, 224760, Note_on_c, 9, 42, 31
10, 224880, Note_off_c, 9, 42, 80
10, 224880, Note_on_c, 9, 42, 79
10, 225000, Note_off_c, 9, 42, 80
10, 225000, Note_on_c, 9, 42, 79
10, 225120, Note_off_c, 9, 42, 80
10, 225120, Note_on_c, 9, 42, 95
10, 225120, Note_on_c, 9, 38, 95
10, 225240, Note_off_c, 9, 42, 80
10, 225240, Note_off_c, 9, 38, 80
10, 225240, Note_on_c, 9, 42, 31
10, 225360, Note_off_c, 9, 42, 80
10, 225360, Note_on_c, 9, 42, 79
10, 225360, Note_on_c, 9, 36, 95
10, 225480, Note_off_c, 9, 42, 80
10, 225480, Note_off_c, 9, 36, 80
10, 225480, Note_on_c, 9, 42, 79
10, 225600, Note_off_c, 9, 42, 80
10, 225600, Note_on_c, 9, 42, 95
10, 225600, Note_on_c, 9, 36, 95
10, 225720, Note_off_c, 9, 42, 80
10, 225720, Note_off_c, 9, 36, 80
10, 225720, Note_on_c, 9, 42, 31
10, 225840, Note_off_c, 9, 42, 80
10, 225840, Note_on_c, 9, 42, 79
10, 225960, Note_off_c, 9, 42, 80
10, 225960, Note_on_c, 9, 42, 79
10, 226080, Note_off_c, 9, 42, 80
10, 226080, Note_on_c, 9, 42, 95
10, 226080, Note_on_c, 9, 38, 95
10, 226200, Note_off_c, 9, 42, 80
10, 226200, Note_off_c, 9, 38, 80
10, 226200, Note_on_c, 9, 42, 31
10, 226320, Note_off_c, 9, 42, 80
10, 226320, Note_on_c, 9, 42, 79
10, 226320, Note_on_c, 9, 36, 95
10, 226440, Note_off_c, 9, 42, 80
10, 226440, Note_off_c, 9, 36, 80
10, 226440, Note_on_c, 9, 42, 79
10, 226560, Note_off_c, 9, 42, 80
10, 226560, Note_on_c, 9, 42, 95
10, 226680, Note_off_c, 9, 42, 80
10, 226680, Note_on_c, 9, 42, 31
10, 226800, Note_off_c, 9, 42, 80
10, 226800, Note_on_c, 9, 42, 79
10, 226920, Note_off_c, 9, 42, 80
10, 226920, Note_on_c, 9, 42, 79
10, 227040, Note_off_c, 9, 42, 80
10, 227040, Note_on_c, 9, 42, 95
10, 227040, Note_on_c, 9, 38, 95
10, 227160, Note_off_c, 9, 42, 80
10, 227160, Note_off_c, 9, 38, 80
10, 227160, Note_on_c, 9, 42, 31
10, 227280, Note_off_c, 9, 42, 80
10, 227280, Note_on_c, 9, 42, 79
10, 227280, Note_on_c, 9, 36, 95
10, 227400, Note_off_c, 9, 42, 80
10, 227400, Note_off_c, 9, 36, 80
10, 227400, Note_on_c, 9, 42, 79
10, 227520, Note_off_c, 9, 42, 80
10, 227520, Note_on_c, 9, 42, 95
10, 227520, Note_on_c, 9, 36, 95
10, 227640, Note_off_c, 9, 42, 80
10, 227640, Note_off_c, 9, 36, 80
10, 227640, Note_on_c, 9, 42, 31
10, 227760, Note_off_c, 9, 42, 80
10, 227760, Note_on_c, 9, 42, 79
10, 227880, Note_off_c, 9, 42, 80
10, 227880, Note_on_c, 9, 42, 79
10, 228000, Note_off_c, 9, 42, 80
10, 228000, Note_on_c, 9, 42, 95
10, 228000, Note_on_c, 9, 38, 95
10, 228120, Note_off_c, 9, 42, 80
10, 228120, Note_off_c, 9, 38, 80
10, 228120, Note_on_c, 9, 42, 31
10, 228240, Note_off_c, 9, 42, 80
10, 228240, Note_on_c, 9, 42, 79
10, 228240, Note_on_c, 9, 36, 95
10, 228360, Note_off_c, 9, 42, 80
10, 228360, Note_off_c, 9, 36, 80
10, 228360, Note_on_c, 9, 42, 79
10, 228480, Note_off_c, 9, 42, 80
10, 228480, Note_on_c, 9, 42, 95
10, 228600, Note_off_c, 9, 42, 80
10, 228600, Note_on_c, 9, 42, 31
10, 228720, Note_off_c, 9, 42, 80
10, 228720, Note_on_c, 9, 42, 79
10, 228840, Note_off_c, 9, 42, 80
10, 228840, Note_on_c, 9, 42, 79
10, 228960, Note_off_c, 9, 42, 80
10, 228960, Note_on_c, 9, 42, 95
10, 228960, Note_on_c, 9, 38, 95
10, 229080, Note_off_c, 9, 42, 80
10, 229080, Note_off_c, 9, 38, 80
10, 229080, Note_on_c, 9, 42, 31
10, 229200, Note_off_c, 9, 42, 80
10, 229200, Note_on_c, 9, 42, 79
10, 229200, Note_on_c, 9, 36, 95
10, 229320, Note_off_c, 9, 42, 80
10, 229320, Note_off_c, 9, 36, 80
10, 229320, Note_on_c, 9, 42, 79
10, 229440, Note_off_c, 9, 42, 80
10, 229440, Note_on_c, 9, 42, 95
10, 229440, Note_on_c, 9, 36, 95
10, 229560, Note_off_c, 9, 42, 80
10, 229560, Note_off_c, 9, 36, 80
10, 229560, Note_on_c, 9, 42, 31
10, 229680, Note_off_c, 9, 42, 80
10, 229680, Note_on_c, 9, 42, 79
10, 229800, Note_off_c, 9, 42, 80
10, 229800, Note_on_c, 9, 42, 79
10, 229920, Note_off_c, 9, 42, 80
10, 229920, Note_on_c, 9, 42, 95
10, 229920, Note_on_c, 9, 38, 95
10, 230040, Note_off_c, 9, 42, 80
10, 230040, Note_off_c, 9, 38, 80
10, 230040, Note_on_c, 9, 42, 31
10, 230160, Note_off_c, 9, 42, 80
10, 230160, Note_on_c, 9, 42, 79
10, 230160, Note_on_c, 9, 36, 95
10, 230280, Note_off_c, 9, 42, 80
10, 230280, Note_off_c, 9, 36, 80
10, 230280, Note_on_c, 9, 42, 79
10, 230400, Note_off_c, 9, 42, 80
10, 230400, Note_on_c, 9, 42, 95
10, 230520, Note_off_c, 9, 42, 80
10, 230520, Note_on_c, 9, 42, 31
10, 230640, Note_off_c, 9, 42, 80
10, 230640, Note_on_c, 9, 42, 79
10, 230760, Note_off_c, 9, 42, 80
10, 230760, Note_on_c, 9, 42, 79
10, 230880, Note_off_c, 9, 42, 80
10, 230880, Note_on_c, 9, 42, 95
10, 230880, Note_on_c, 9, 38, 95
10, 231000, Note_off_c, 9, 42, 80
10, 231000, Note_off_c, 9, 38, 80
10, 231000, Note_on_c, 9, 42, 31
10, 231120, Note_off_c, 9, 42, 80
10, 231120, Note_on_c, 9, 42, 79
10, 231120, Note_on_c, 9, 36, 95
10, 231240, Note_off_c, 9, 42, 80
10, 231240, Note_off_c, 9, 36, 80
10, 231240, Note_on_c, 9, 42, 79
10, 231360, Note_off_c, 9, 42, 80
10, 231360, Note_on_c, 9, 42, 95
10, 231360, Note_on_c, 9, 36, 95
10, 231480, Note_off_c, 9, 42, 80
10, 231480, Note_off_c, 9, 36, 80
10, 231480, Note_on_c, 9, 42, 31
10, 231600, Note_off_c, 9, 42, 80
10, 231600, Note_on_c, 9, 42, 79
10, 231720, Note_off_c, 9, 42, 80
10, 231720, Note_on_c, 9, 42, 79
10, 231840, Note_off_c, 9, 42, 80
10, 231840, Note_on_c, 9, 42, 95
10, 231840, Note_on_c, 9, 38, 95
10, 231960, Note_off_c, 9, 42, 80
10, 231960, Note_off_c, 9, 38, 80
10, 231960, Note_on_c, 9, 42, 31
10, 232080, Note_off_c, 9, 42, 80
10, 232080, Note_on_c, 9, 42, 79
10, 232080, Note_on_c, 9, 36, 95
10, 232200, Note_off_c, 9, 42, 80
10, 232200, Note_off_c, 9, 36, 80
10, 232200, Note_on_c, 9, 42, 79
10, 232320, Note_off_c, 9, 42, 80
10, 232320, Note_on_c, 9, 42, 95
10, 232440, Note_off_c, 9, 42, 80
10, 232440, Note_on_c, 9, 42, 31
10, 232560, Note_off_c, 9, 42, 80
10, 232560, Note_on_c, 9, 42, 79
10, 232680, Note_off_c, 9, 42, 80
10, 232680, Note_on_c, 9, 42, 79
10, 232800, Note_off_c, 9, 42, 80
10, 232800, Note_on_c, 9, 42, 95
10, 232800, Note_on_c, 9, 38, 95
10, 232920, Note_off_c, 9, 42, 80
10, 232920, Note_off_c, 9, 38, 80
10, 232920, Note_on_c, 9, 42, 31
10, 233040, Note_off_c, 9, 42, 80
10, 233040, Note_on_c, 9, 42, 79
10, 233040, Note_on_c, 9, 36, 95
10, 233160, Note_off_c, 9, 42, 80
10, 233160, Note_off_c, 9, 36, 80
10, 233160, Note_on_c, 9, 42, 79
10, 233280, Note_off_c, 9, 42, 80
10, 233280, Note_on_c, 9, 42, 95
10, 233280, Note_on_c, 9, 36, 95
10, 233400, Note_off_c, 9, 42, 80
10, 233400, Note_off_c, 9, 36, 80
10, 233400, Note_on_c, 9, 42, 31
10, 233520, Note_off_c, 9, 42, 80
10, 233520, Note_on_c, 9, 42, 79
10, 233640, Note_off_c, 9, 42, 80
10, 233640, Note_on_c, 9, 42, 79
10, 233760, Note_off_c, 9, 42, 80
10, 233760, Note_on_c, 9, 42, 95
10, 233760, Note_on_c, 9, 38, 95
10, 233880, Note_off_c, 9, 42, 80
10, 233880, Note_off_c, 9, 38, 80
10, 233880, Note_on_c, 9, 42, 31
10, 234000, Note_off_c, 9, 42, 80
10, 234000, Note_on_c, 9, 42, 79
10, 234000, Note_on_c, 9, 36, 95
10, 234120, Note_off_c, 9, 42, 80
10, 234120, Note_off_c, 9, 36, 80
10, 234120, Note_on_c, 9, 42, 79
10, 234240, Note_off_c, 9, 42, 80
10, 234240, Note_on_c, 9, 42, 95
10, 234360, Note_off_c, 9, 42, 80
10, 234360, Note_on_c, 9, 42, 31
10, 234480, Note_off_c, 9, 42, 80
10, 234480, Note_on_c, 9, 42, 79
10, 234600, Note_off_c, 9, 42, 80
10, 234600, Note_on_c, 9, 42, 79
10, 234720, Note_off_c, 9, 42, 80
10, 234720, Note_on_c, 9, 42, 95
10, 234720, Note_on_c, 9, 38, 95
10, 234840, Note_off_c, 9, 42, 80
10, 234840, Note_off_c, 9, 38, 80
10, 234840, Note_on_c, 9, 42, 31
10, 234960, Note_off_c, 9, 42, 80
10, 234960, Note_on_c, 9, 42, 79
10, 234960, Note_on_c, 9, 36, 95
10, 235080, Note_off_c, 9, 42, 80
10, 235080, Note_off_c, 9, 36, 80
10, 235080, Note_on_c, 9, 42, 79
10, 235200, Note_off_c, 9, 42, 80
10, 235200, Note_on_c, 9, 42, 95
10, 235200, Note_on_c, 9, 36, 95
10, 235320, Note_off_c, 9, 42, 80
10, 235320, Note_off_c, 9, 36, 80
10, 235320, Note_on_c, 9, 42, 31
10, 235440, Note_off_c, 9, 42, 80
10, 235440, Note_on_c, 9, 42, 79
10, 235560, Note_off_c, 9, 42, 80
10, 235560, Note_on_c, 9, 42, 79
10, 235680, Note_off_c, 9, 42, 80
10, 235680, Note_on_c, 9, 42, 95
10, 235680, Note_on_c, 9, 38, 95
10, 235800, Note_off_c, 9, 42, 80
10, 235800, Note_off_c, 9, 38, 80
10, 235800, Note_on_c, 9, 42, 31
10, 235920, Note_off_c, 9, 42, 80
10, 235920, Note_on_c, 9, 42, 79
10, 235920, Note_on_c, 9, 36, 95
10, 236040, Note_off_c, 9, 42, 80
10, 236040, Note_off_c, 9, 36, 80
10, 236040, Note_on_c, 9, 42, 79
10, 236160, Note_off_c, 9, 42, 80
10, 236160, Note_on_c, 9, 42, 95
10, 236160, Note_on_c, 9, 36, 95
10, 236400, Note_off_c, 9, 42, 80
10, 236400, Note_off_c, 9, 36, 80
10, 236400, Note_on_c, 9, 44, 63
10, 236640, Note_off_c, 9, 44, 80
10, 236640, Note_on_c, 9, 42, 95
10, 236880, Note_off_c, 9, 42, 80
10, 236880, Note_on_c, 9, 44, 63
10, 237120, Note_off_c, 9, 44, 80
10, 237120, Note_on_c, 9, 42, 95
10, 237360, Note_off_c, 9, 42, 80
10, 237360, Note_on_c, 9, 46, 95
10, 237600, Note_off_c, 9, 46, 80
10, 237600, Note_on_c, 9, 42, 95
10, 237840, Note_off_c, 9, 42, 80
10, 237840, Note_on_c, 9, 46, 95
10, 238080, Note_off_c, 9, 46, 80
10, 238080, Note_on_c, 9, 42, 95
10, 238080, Note_on_c, 9, 36, 95
10, 238320, Note_off_c, 9, 42, 80
10, 238320, Note_off_c, 9, 36, 80
10, 238320, Note_on_c, 9, 44, 63
10, 238560, Note_off_c, 9, 44, 80
10, 238560, Note_on_c, 9, 42, 95
10, 238800, Note_off_c, 9, 42, 80
10, 238800, Note_on_c, 9, 44, 63
10, 239040, Note_off_c, 9, 44, 80
10, 239040, Note_on_c, 9, 42, 95
10, 239280, Note_off_c, 9, 42, 80
10, 239280, Note_on_c, 9, 46, 95
10, 239520, Note_off_c, 9, 46, 80
10, 239520, Note_on_c, 9, 42, 95
10, 239760, Note_off_c, 9, 42, 80
10, 239760, Note_on_c, 9, 46, 95
10, 240000, Note_off_c, 9, 46, 80
10, 240000, Note_on_c, 9, 42, 95
10, 240000, Note_on_c, 9, 36, 95
10, 240240, Note_off_c, 9, 42, 80
10, 240240, Note_off_c, 9, 36, 80
10, 240240, Note_on_c, 9, 44, 63
10, 240480, Note_off_c, 9, 44, 80
10, 240480, Note_on_c, 9, 42, 95
10, 240720, Note_off_c, 9, 42, 80
10, 240720, Note_on_c, 9, 44, 63
10, 240960, Note_off_c, 9, 44, 80
10, 240960, Note_on_c, 9, 42, 95
10, 241200, Note_off_c, 9, 42, 80
10, 241200, Note_on_c, 9, 46, 95
10, 241440, Note_off_c, 9, 46, 80
10, 241440, Note_on_c, 9, 42, 95
10, 241680, Note_off_c, 9, 42, 80
10, 241680, Note_on_c, 9, 46, 95
10, 241920, Note_off_c, 9, 46, 80
10, 241920, Note_on_c, 9, 42, 95
10, 241920, Note_on_c, 9, 36, 95
10, 242160, Note_off_c, 9, 42, 80
10, 242160, Note_off_c, 9, 36, 80
10, 242160, Note_on_c, 9, 44, 63
10, 242400, Note_off_c, 9, 44, 80
10, 242400, Note_on_c, 9, 42, 95
10, 242640, Note_off_c, 9, 42, 80
10, 242640, Note_on_c, 9, 44, 63
10, 242640, Note_on_c, 9, 36, 95
10, 242880, Note_off_c, 9, 44, 80
10, 242880, Note_off_c, 9, 36, 80
10, 242880, Note_on_c, 9, 42, 95
10, 243120, Note_off_c, 9, 42, 80
10, 243120, Note_on_c, 9, 46, 95
10, 243120, Note_on_c, 9, 38, 95
10, 243120, Note_on_c, 9, 57, 15
10, 243240, Note_off_c, 9, 46, 80
10, 243240, Note_off_c, 9, 38, 80
10, 243240, Note_off_c, 9, 57, 80
10, 243240, Note_on_c, 9, 57, 31
10, 243360, Note_off_c, 9, 57, 80
10, 243360, Note_on_c, 9, 42, 95
10, 243360, Note_on_c, 9, 38, 95
10, 243360, Note_on_c, 9, 57, 47
10, 243480, Note_off_c, 9, 42, 80
10, 243480, Note_off_c, 9, 38, 80
10, 243480, Note_off_c, 9, 57, 80
10, 243480, Note_on_c, 9, 57, 63
10, 243600, Note_off_c, 9, 57, 80
10, 243600, Note_on_c, 9, 46, 95
10, 243600, Note_on_c, 9, 38, 95
10, 243600, Note_on_c, 9, 57, 79
10, 243720, Note_off_c, 9, 46, 80
10, 243720, Note_off_c, 9, 38, 80
10, 243720, Note_off_c, 9, 57, 80
10, 243720, Note_on_c, 9, 57, 95
10, 243840, Note_off_c, 9, 57, 80
10, 243840, Note_on_c, 9, 42, 95
10, 243840, Note_on_c, 9, 36, 95
10, 244080, Note_off_c, 9, 42, 80
10, 244080, Note_off_c, 9, 36, 80
10, 244080, Note_on_c, 9, 44, 63
10, 244320, Note_off_c, 9, 44, 80
10, 244320, Note_on_c, 9, 42, 95
10, 244560, Note_off_c, 9, 42, 80
10, 244560, Note_on_c, 9, 44, 63
10, 244800, Note_off_c, 9, 44, 80
10, 244800, Note_on_c, 9, 42, 95
10, 245040, Note_off_c, 9, 42, 80
10, 245040, Note_on_c, 9, 46, 95
10, 245280, Note_off_c, 9, 46, 80
10, 245280, Note_on_c, 9, 42, 95
10, 245520, Note_off_c, 9, 42, 80
10, 245520, Note_on_c, 9, 46, 95
10, 245760, Note_off_c, 9, 46, 80
10, 245760, Note_on_c, 9, 42, 95
10, 245760, Note_on_c, 9, 36, 95
10, 246000, Note_off_c, 9, 42, 80
10, 246000, Note_off_c, 9, 36, 80
10, 246000, Note_on_c, 9, 44, 63
10, 246240, Note_off_c, 9, 44, 80
10, 246240, Note_on_c, 9, 42, 95
10, 246480, Note_off_c, 9, 42, 80
10, 246480, Note_on_c, 9, 44, 63
10, 246720, Note_off_c, 9, 44, 80
10, 246720, Note_on_c, 9, 42, 95
10, 246960, Note_off_c, 9, 42, 80
10, 246960, Note_on_c, 9, 46, 95
10, 247200, Note_off_c, 9, 46, 80
10, 247200, Note_on_c, 9, 42, 95
10, 247440, Note_off_c, 9, 42, 80
10, 247440, Note_on_c, 9, 46, 95
10, 247680, Note_off_c, 9, 46, 80
10, 247680, Note_on_c, 9, 42, 95
10, 247680, Note_on_c, 9, 36, 95
10, 247920, Note_off_c, 9, 42, 80
10, 247920, Note_off_c, 9, 36, 80
10, 247920, Note_on_c, 9, 44, 63
10, 248160, Note_off_c, 9, 44, 80
10, 248160, Note_on_c, 9, 42, 95
10, 248400, Note_off_c, 9, 42, 80
10, 248400, Note_on_c, 9, 44, 63
10, 248640, Note_off_c, 9, 44, 80
10, 248640, Note_on_c, 9, 42, 95
10, 248880, Note_off_c, 9, 42, 80
10, 248880, Note_on_c, 9, 46, 95
10, 249120, Note_off_c, 9, 46, 80
10, 249120, Note_on_c, 9, 42, 95
10, 249360, Note_off_c, 9, 42, 80
10, 249360, Note_on_c, 9, 46, 95
10, 249600, Note_off_c, 9, 46, 80
10, 249600, Note_on_c, 9, 42, 95
10, 249600, Note_on_c, 9, 38, 95
10, 249600, Note_on_c, 9, 36, 95
10, 249840, Note_off_c, 9, 42, 80
10, 249840, Note_off_c, 9, 38, 80
10, 249840, Note_off_c, 9, 36, 80
10, 249840, Note_on_c, 9, 44, 63
10, 250080, Note_off_c, 9, 44, 80
10, 250080, Note_on_c, 9, 42, 95
10, 250320, Note_off_c, 9, 42, 80
10, 250320, Note_on_c, 9, 44, 63
10, 250320, Note_on_c, 9, 38, 95
10, 250320, Note_on_c, 9, 36, 95
10, 250560, Note_off_c, 9, 44, 80
10, 250560, Note_off_c, 9, 38, 80
10, 250560, Note_off_c, 9, 36, 80
10, 250560, Note_on_c, 9, 42, 95
10, 250800, Note_off_c, 9, 42, 80
10, 250800, Note_on_c, 9, 46, 95
10, 250800, Note_on_c, 9, 38, 95
10, 250800, Note_on_c, 9, 57, 15
10, 250920, Note_off_c, 9, 46, 80
10, 250920, Note_off_c, 9, 38, 80
10, 250920, Note_off_c, 9, 57, 80
10, 250920, Note_on_c, 9, 57, 31
10, 251040, Note_off_c, 9, 57, 80
10, 251040, Note_on_c, 9, 42, 95
10, 251040, Note_on_c, 9, 38, 95
10, 251040, Note_on_c, 9, 57, 47
10, 251160, Note_off_c, 9, 42, 80
10, 251160, Note_off_c, 9, 38, 80
10, 251160, Note_off_c, 9, 57, 80
10, 251160, Note_on_c, 9, 57, 63
10, 251280, Note_off_c, 9, 57, 80
10, 251280, Note_on_c, 9, 46, 95
10, 251280, Note_on_c, 9, 38, 95
10, 251280, Note_on_c, 9, 57, 79
10, 251400, Note_off_c, 9, 46, 80
10, 251400, Note_off_c, 9, 38, 80
10, 251400, Note_off_c, 9, 57, 80
10, 251400, Note_on_c, 9, 57, 95
10, 251520, Note_off_c, 9, 57, 80
10, 251520, Note_on_c, 9, 42, 95
10, 251520, Note_on_c, 9, 36, 95
10, 251760, Note_off_c, 9, 42, 80
10, 251760, Note_off_c, 9, 36, 80
10, 251760, Note_on_c, 9, 44, 63
10, 252000, Note_off_c, 9, 44, 80
10, 252000, Note_on_c, 9, 42, 95
10, 252240, Note_off_c, 9, 42, 80
10, 252240, Note_on_c, 9, 44, 63
10, 252480, Note_off_c, 9, 44, 80
10, 252480, Note_on_c, 9, 42, 95
10, 252720, Note_off_c, 9, 42, 80
10, 252720, Note_on_c, 9, 46, 95
10, 252960, Note_off_c, 9, 46, 80
10, 252960, Note_on_c, 9, 42, 95
10, 253200, Note_off_c, 9, 42, 80
10, 253200, Note_on_c, 9, 46, 95
10, 253440, Note_off_c, 9, 46, 80
10, 253440, Note_on_c, 9, 42, 95
10, 253440, Note_on_c, 9, 36, 95
10, 253680, Note_off_c, 9, 42, 80
10, 253680, Note_off_c, 9, 36, 80
10, 253680, Note_on_c, 9, 44, 63
10, 253920, Note_off_c, 9, 44, 80
10, 253920, Note_on_c, 9, 42, 95
10, 254160, Note_off_c, 9, 42, 80
10, 254160, Note_on_c, 9, 44, 63
10, 254400, Note_off_c, 9, 44, 80
10, 254400, Note_on_c, 9, 42, 95
10, 254640, Note_off_c, 9, 42, 80
10, 254640, Note_on_c, 9, 46, 95
10, 254880, Note_off_c, 9, 46, 80
10, 254880, Note_on_c, 9, 42, 95
10, 255120, Note_off_c, 9, 42, 80
10, 255120, Note_on_c, 9, 46, 95
10, 255360, Note_off_c, 9, 46, 80
10, 255360, Note_on_c, 9, 42, 95
10, 255360, Note_on_c, 9, 36, 95
10, 255600, Note_off_c, 9, 42, 80
10, 255600, Note_off_c, 9, 36, 80
10, 255600, Note_on_c, 9, 44, 63
10, 255840, Note_off_c, 9, 44, 80
10, 255840, Note_on_c, 9, 42, 95
10, 256080, Note_off_c, 9, 42, 80
10, 256080, Note_on_c, 9, 44, 63
10, 256320, Note_off_c, 9, 44, 80
10, 256320, Note_on_c, 9, 42, 95
10, 256560, Note_off_c, 9, 42, 80
10, 256560, Note_on_c, 9, 46, 95
10, 256800, Note_off_c, 9, 46, 80
10, 256800, Note_on_c, 9, 42, 95
10, 257040, Note_off_c, 9, 42, 80
10, 257040, Note_on_c, 9, 46, 95
10, 257280, Note_off_c, 9, 46, 80
10, 257280, Note_on_c, 9, 42, 95
10, 257520, Note_off_c, 9, 42, 80
10, 257520, Note_on_c, 9, 44, 63
10, 257760, Note_off_c, 9, 44, 80
10, 257760, Note_on_c, 9, 42, 95
10, 258000, Note_off_c, 9, 42, 80
10, 258000, Note_on_c, 9, 44, 63
10, 258240, Note_off_c, 9, 44, 80
10, 258240, Note_on_c, 9, 42, 95
10, 258480, Note_off_c, 9, 42, 80
10, 258480, Note_on_c, 9, 46, 95
10, 258480, Note_on_c, 9, 38, 95
10, 258480, Note_on_c, 9, 57, 15
10, 258600, Note_off_c, 9, 46, 80
10, 258600, Note_off_c, 9, 38, 80
10, 258600, Note_off_c, 9, 57, 80
10, 258600, Note_on_c, 9, 57, 31
10, 258720, Note_off_c, 9, 57, 80
10, 258720, Note_on_c, 9, 42, 95
10, 258720, Note_on_c, 9, 38, 95
10, 258720, Note_on_c, 9, 57, 47
10, 258840, Note_off_c, 9, 42, 80
10, 258840, Note_off_c, 9, 38, 80
10, 258840, Note_off_c, 9, 57, 80
10, 258840, Note_on_c, 9, 57, 63
10, 258960, Note_off_c, 9, 57, 80
10, 258960, Note_on_c, 9, 46, 95
10, 258960, Note_on_c, 9, 38, 95
10, 258960, Note_on_c, 9, 57, 79
10, 259080, Note_off_c, 9, 46, 80
10, 259080, Note_off_c, 9, 38, 80
10, 259080, Note_off_c, 9, 57, 80
10, 259080, Note_on_c, 9, 57, 95
10, 259200, Note_off_c, 9, 57, 80
10, 259200, Note_on_c, 9, 42, 95
10, 259200, Note_on_c, 9, 36, 95
10, 259440, Note_off_c, 9, 42, 80
10, 259440, Note_off_c, 9, 36, 80
10, 259440, Note_on_c, 9, 44, 63
10, 259680, Note_off_c, 9, 44, 80
10, 259680, Note_on_c, 9, 42, 95
10, 259920, Note_off_c, 9, 42, 80
10, 259920, Note_on_c, 9, 44, 63
10, 260160, Note_off_c, 9, 44, 80
10, 260160, Note_on_c, 9, 42, 95
10, 260400, Note_off_c, 9, 42, 80
10, 260400, Note_on_c, 9, 46, 95
10, 260640, Note_off_c, 9, 46, 80
10, 260640, Note_on_c, 9, 42, 95
10, 260880, Note_off_c, 9, 42, 80
10, 260880, Note_on_c, 9, 46, 95
10, 261120, Note_off_c, 9, 46, 80
10, 261120, Note_on_c, 9, 42, 95
10, 261120, Note_on_c, 9, 36, 95
10, 261360, Note_off_c, 9, 42, 80
10, 261360, Note_off_c, 9, 36, 80
10, 261360, Note_on_c, 9, 44, 63
10, 261600, Note_off_c, 9, 44, 80
10, 261600, Note_on_c, 9, 42, 95
10, 261840, Note_off_c, 9, 42, 80
10, 261840, Note_on_c, 9, 44, 63
10, 262080, Note_off_c, 9, 44, 80
10, 262080, Note_on_c, 9, 42, 95
10, 262320, Note_off_c, 9, 42, 80
10, 262320, Note_on_c, 9, 46, 95
10, 262560, Note_off_c, 9, 46, 80
10, 262560, Note_on_c, 9, 42, 95
10, 262800, Note_off_c, 9, 42, 80
10, 262800, Note_on_c, 9, 46, 95
10, 263040, Note_off_c, 9, 46, 80
10, 263040, Note_on_c, 9, 42, 95
10, 263040, Note_on_c, 9, 36, 95
10, 263280, Note_off_c, 9, 42, 80
10, 263280, Note_off_c, 9, 36, 80
10, 263280, Note_on_c, 9, 44, 63
10, 263520, Note_off_c, 9, 44, 80
10, 263520, Note_on_c, 9, 42, 95
10, 263760, Note_off_c, 9, 42, 80
10, 263760, Note_on_c, 9, 44, 63
10, 264000, Note_off_c, 9, 44, 80
10, 264000, Note_on_c, 9, 42, 95
10, 264240, Note_off_c, 9, 42, 80
10, 264240, Note_on_c, 9, 46, 95
10, 264480, Note_off_c, 9, 46, 80
10, 264480, Note_on_c, 9, 42, 95
10, 264720, Note_off_c, 9, 42, 80
10, 264720, Note_on_c, 9, 46, 95
10, 264960, Note_off_c, 9, 46, 80
10, 264960, Note_on_c, 9, 42, 95
10, 264960, Note_on_c, 9, 38, 95
10, 264960, Note_on_c, 9, 36, 95
10, 265200, Note_off_c, 9, 42, 80
10, 265200, Note_off_c, 9, 38, 80
10, 265200, Note_off_c, 9, 36, 80
10, 265200, Note_on_c, 9, 44, 63
10, 265440, Note_off_c, 9, 44, 80
10, 265440, Note_on_c, 9, 42, 95
10, 265680, Note_off_c, 9, 42, 80
10, 265680, Note_on_c, 9, 44, 63
10, 265680, Note_on_c, 9, 38, 95
10, 265680, Note_on_c, 9, 36, 95
10, 265920, Note_off_c, 9, 44, 80
10, 265920, Note_off_c, 9, 38, 80
10, 265920, Note_off_c, 9, 36, 80
10, 265920, Note_on_c, 9, 42, 95
10, 266160, Note_off_c, 9, 42, 80
10, 266160, Note_on_c, 9, 46, 95
10, 266160, Note_on_c, 9, 38, 95
10, 266160, Note_on_c, 9, 57, 15
10, 266280, Note_off_c, 9, 46, 80
10, 266280, Note_off_c, 9, 38, 80
10, 266280, Note_off_c, 9, 57, 80
10, 266280, Note_on_c, 9, 57, 31
10, 266400, Note_off_c, 9, 57, 80
10, 266400, Note_on_c, 9, 42, 95
10, 266400, Note_on_c, 9, 38, 95
10, 266400, Note_on_c, 9, 57, 47
10, 266520, Note_off_c, 9, 42, 80
10, 266520, Note_off_c, 9, 38, 80
10, 266520, Note_off_c, 9, 57, 80
10, 266520, Note_on_c, 9, 57, 63
10, 266640, Note_off_c, 9, 57, 80
10, 266640, Note_on_c, 9, 46, 95
10, 266640, Note_on_c, 9, 38, 95
10, 266640, Note_on_c, 9, 57, 79
10, 266760, Note_off_c, 9, 46, 80
10, 266760, Note_off_c, 9, 38, 80
10, 266760, Note_off_c, 9, 57, 80
10, 266760, Note_on_c, 9, 57, 95
10, 266880, Note_off_c, 9, 57, 80
10, 266880, Note_on_c, 9, 44, 95
10, 266880, Note_on_c, 9, 52, 95
10, 267000, Note_off_c, 9, 44, 80
10, 267000, Note_off_c, 9, 52, 80
10, 267000, Note_on_c, 9, 44, 31
10, 267120, Note_off_c, 9, 44, 80
10, 267120, Note_on_c, 9, 44, 63
10, 267240, Note_off_c, 9, 44, 80
10, 267240, Note_on_c, 9, 44, 79
10, 267240, Note_on_c, 9, 36, 95
10, 267360, Note_off_c, 9, 44, 80
10, 267360, Note_off_c, 9, 36, 80
10, 267360, Note_on_c, 9, 44, 95
10, 267360, Note_on_c, 9, 37, 95
10, 267360, Note_on_c, 9, 42, 95
10, 267480, Note_off_c, 9, 44, 80
10, 267480, Note_off_c, 9, 37, 80
10, 267480, Note_off_c, 9, 42, 80
10, 267480, Note_on_c, 9, 44, 31
10, 267600, Note_off_c, 9, 44, 80
10, 267600, Note_on_c, 9, 44, 63
10, 267600, Note_on_c, 9, 36, 95
10, 267720, Note_off_c, 9, 44, 80
10, 267720, Note_off_c, 9, 36, 80
10, 267720, Note_on_c, 9, 44, 79
10, 267840, Note_off_c, 9, 44, 80
10, 267840, Note_on_c, 9, 44, 95
10, 267840, Note_on_c, 9, 36, 95
10, 267960, Note_off_c, 9, 44, 80
10, 267960, Note_off_c, 9, 36, 80
10, 267960, Note_on_c, 9, 44, 31
10, 268080, Note_off_c, 9, 44, 80
10, 268080, Note_on_c, 9, 44, 63
10, 268200, Note_off_c, 9, 44, 80
10, 268200, Note_on_c, 9, 44, 79
10, 268320, Note_off_c, 9, 44, 80
10, 268320, Note_on_c, 9, 44, 95
10, 268320, Note_on_c, 9, 37, 95
10, 268440, Note_off_c, 9, 44, 80
10, 268440, Note_off_c, 9, 37, 80
10, 268440, Note_on_c, 9, 44, 31
10, 268560, Note_off_c, 9, 44, 80
10, 268560, Note_on_c, 9, 44, 63
10, 268560, Note_on_c, 9, 36, 95
10, 268680, Note_off_c, 9, 44, 80
10, 268680, Note_off_c, 9, 36, 80
10, 268680, Note_on_c, 9, 44, 79
10, 268800, Note_off_c, 9, 44, 80
10, 268800, Note_on_c, 9, 44, 95
10, 268920, Note_off_c, 9, 44, 80
10, 268920, Note_on_c, 9, 44, 31
10, 269040, Note_off_c, 9, 44, 80
10, 269040, Note_on_c, 9, 44, 63
10, 269160, Note_off_c, 9, 44, 80
10, 269160, Note_on_c, 9, 44, 79
10, 269280, Note_off_c, 9, 44, 80
10, 269280, Note_on_c, 9, 44, 95
10, 269280, Note_on_c, 9, 37, 95
10, 269400, Note_off_c, 9, 44, 80
10, 269400, Note_off_c, 9, 37, 80
10, 269400, Note_on_c, 9, 44, 31
10, 269520, Note_off_c, 9, 44, 80
10, 269520, Note_on_c, 9, 44, 63
10, 269640, Note_off_c, 9, 44, 80
10, 269640, Note_on_c, 9, 44, 79
10, 269760, Note_off_c, 9, 44, 80
10, 269760, Note_on_c, 9, 44, 95
10, 269760, Note_on_c, 9, 36, 79
10, 269880, Note_off_c, 9, 44, 80
10, 269880, Note_off_c, 9, 36, 80
10, 269880, Note_on_c, 9, 44, 31
10, 270000, Note_off_c, 9, 44, 80
10, 270000, Note_on_c, 9, 44, 63
10, 270120, Note_off_c, 9, 44, 80
10, 270120, Note_on_c, 9, 44, 79
10, 270240, Note_off_c, 9, 44, 80
10, 270240, Note_on_c, 9, 44, 95
10, 270240, Note_on_c, 9, 37, 95
10, 270360, Note_off_c, 9, 44, 80
10, 270360, Note_off_c, 9, 37, 80
10, 270360, Note_on_c, 9, 44, 31
10, 270480, Note_off_c, 9, 44, 80
10, 270480, Note_on_c, 9, 44, 63
10, 270480, Note_on_c, 9, 46, 95
10, 270600, Note_off_c, 9, 44, 80
10, 270600, Note_off_c, 9, 46, 80
10, 270600, Note_on_c, 9, 44, 79
10, 270720, Note_off_c, 9, 44, 80
10, 270720, Note_on_c, 9, 44, 95
10, 270840, Note_off_c, 9, 44, 80
10, 270840, Note_on_c, 9, 44, 31
10, 270960, Note_off_c, 9, 44, 80
10, 270960, Note_on_c, 9, 44, 63
10, 271080, Note_off_c, 9, 44, 80
10, 271080, Note_on_c, 9, 44, 79
10, 271080, Note_on_c, 9, 36, 95
10, 271200, Note_off_c, 9, 44, 80
10, 271200, Note_off_c, 9, 36, 80
10, 271200, Note_on_c, 9, 44, 95
10, 271200, Note_on_c, 9, 37, 95
10, 271200, Note_on_c, 9, 42, 95
10, 271320, Note_off_c, 9, 44, 80
10, 271320, Note_off_c, 9, 37, 80
10, 271320, Note_off_c, 9, 42, 80
10, 271320, Note_on_c, 9, 44, 31
10, 271440, Note_off_c, 9, 44, 80
10, 271440, Note_on_c, 9, 44, 63
10, 271440, Note_on_c, 9, 36, 95
10, 271560, Note_off_c, 9, 44, 80
10, 271560, Note_off_c, 9, 36, 80
10, 271560, Note_on_c, 9, 44, 79
10, 271680, Note_off_c, 9, 44, 80
10, 271680, Note_on_c, 9, 44, 95
10, 271680, Note_on_c, 9, 36, 95
10, 271800, Note_off_c, 9, 44, 80
10, 271800, Note_off_c, 9, 36, 80
10, 271800, Note_on_c, 9, 44, 31
10, 271920, Note_off_c, 9, 44, 80
10, 271920, Note_on_c, 9, 44, 63
10, 272040, Note_off_c, 9, 44, 80
10, 272040, Note_on_c, 9, 44, 79
10, 272160, Note_off_c, 9, 44, 80
10, 272160, Note_on_c, 9, 44, 95
10, 272160, Note_on_c, 9, 37, 95
10, 272280, Note_off_c, 9, 44, 80
10, 272280, Note_off_c, 9, 37, 80
10, 272280, Note_on_c, 9, 44, 31
10, 272400, Note_off_c, 9, 44, 80
10, 272400, Note_on_c, 9, 44, 63
10, 272400, Note_on_c, 9, 36, 95
10, 272520, Note_off_c, 9, 44, 80
10, 272520, Note_off_c, 9, 36, 80
10, 272520, Note_on_c, 9, 44, 79
10, 272640, Note_off_c, 9, 44, 80
10, 272640, Note_on_c, 9, 44, 95
10, 272760, Note_off_c, 9, 44, 80
10, 272760, Note_on_c, 9, 44, 31
10, 272880, Note_off_c, 9, 44, 80
10, 272880, Note_on_c, 9, 44, 63
10, 273000, Note_off_c, 9, 44, 80
10, 273000, Note_on_c, 9, 44, 79
10, 273120, Note_off_c, 9, 44, 80
10, 273120, Note_on_c, 9, 44, 95
10, 273120, Note_on_c, 9, 37, 95
10, 273240, Note_off_c, 9, 44, 80
10, 273240, Note_off_c, 9, 37, 80
10, 273240, Note_on_c, 9, 44, 31
10, 273360, Note_off_c, 9, 44, 80
10, 273360, Note_on_c, 9, 44, 63
10, 273480, Note_off_c, 9, 44, 80
10, 273480, Note_on_c, 9, 44, 79
10, 273600, Note_off_c, 9, 44, 80
10, 273600, Note_on_c, 9, 44, 95
10, 273600, Note_on_c, 9, 36, 79
10, 273720, Note_off_c, 9, 44, 80
10, 273720, Note_off_c, 9, 36, 80
10, 273720, Note_on_c, 9, 44, 31
10, 273840, Note_off_c, 9, 44, 80
10, 273840, Note_on_c, 9, 44, 63
10, 273960, Note_off_c, 9, 44, 80
10, 273960, Note_on_c, 9, 44, 79
10, 274080, Note_off_c, 9, 44, 80
10, 274080, Note_on_c, 9, 44, 95
10, 274080, Note_on_c, 9, 37, 95
10, 274200, Note_off_c, 9, 44, 80
10, 274200, Note_off_c, 9, 37, 80
10, 274200, Note_on_c, 9, 44, 31
10, 274320, Note_off_c, 9, 44, 80
10, 274320, Note_on_c, 9, 44, 63
10, 274320, Note_on_c, 9, 46, 95
10, 274440, Note_off_c, 9, 44, 80
10, 274440, Note_off_c, 9, 46, 80
10, 274440, Note_on_c, 9, 44, 79
10, 274560, Note_off_c, 9, 44, 80
10, 274560, Note_on_c, 9, 44, 95
10, 274680, Note_off_c, 9, 44, 80
10, 274680, Note_on_c, 9, 44, 31
10, 274800, Note_off_c, 9, 44, 80
10, 274800, Note_on_c, 9, 44, 63
10, 274920, Note_off_c, 9, 44, 80
10, 274920, Note_on_c, 9, 44, 79
10, 274920, Note_on_c, 9, 36, 95
10, 275040, Note_off_c, 9, 44, 80
10, 275040, Note_off_c, 9, 36, 80
10, 275040, Note_on_c, 9, 44, 95
10, 275040, Note_on_c, 9, 37, 95
10, 275040, Note_on_c, 9, 42, 95
10, 275160, Note_off_c, 9, 44, 80
10, 275160, Note_off_c, 9, 37, 80
10, 275160, Note_off_c, 9, 42, 80
10, 275160, Note_on_c, 9, 44, 31
10, 275280, Note_off_c, 9, 44, 80
10, 275280, Note_on_c, 9, 44, 63
10, 275280, Note_on_c, 9, 36, 95
10, 275400, Note_off_c, 9, 44, 80
10, 275400, Note_off_c, 9, 36, 80
10, 275400, Note_on_c, 9, 44, 79
10, 275520, Note_off_c, 9, 44, 80
10, 275520, Note_on_c, 9, 44, 95
10, 275520, Note_on_c, 9, 36, 95
10, 275640, Note_off_c, 9, 44, 80
10, 275640, Note_off_c, 9, 36, 80
10, 275640, Note_on_c, 9, 44, 31
10, 275760, Note_off_c, 9, 44, 80
10, 275760, Note_on_c, 9, 44, 63
10, 275880, Note_off_c, 9, 44, 80
10, 275880, Note_on_c, 9, 44, 79
10, 276000, Note_off_c, 9, 44, 80
10, 276000, Note_on_c, 9, 44, 95
10, 276000, Note_on_c, 9, 37, 95
10, 276120, Note_off_c, 9, 44, 80
10, 276120, Note_off_c, 9, 37, 80
10, 276120, Note_on_c, 9, 44, 31
10, 276240, Note_off_c, 9, 44, 80
10, 276240, Note_on_c, 9, 44, 63
10, 276240, Note_on_c, 9, 36, 95
10, 276360, Note_off_c, 9, 44, 80
10, 276360, Note_off_c, 9, 36, 80
10, 276360, Note_on_c, 9, 44, 79
10, 276480, Note_off_c, 9, 44, 80
10, 276480, Note_on_c, 9, 44, 95
10, 276600, Note_off_c, 9, 44, 80
10, 276600, Note_on_c, 9, 44, 31
10, 276720, Note_off_c, 9, 44, 80
10, 276720, Note_on_c, 9, 44, 63
10, 276840, Note_off_c, 9, 44, 80
10, 276840, Note_on_c, 9, 44, 79
10, 276960, Note_off_c, 9, 44, 80
10, 276960, Note_on_c, 9, 44, 95
10, 276960, Note_on_c, 9, 37, 95
10, 277080, Note_off_c, 9, 44, 80
10, 277080, Note_off_c, 9, 37, 80
10, 277080, Note_on_c, 9, 44, 31
10, 277200, Note_off_c, 9, 44, 80
10, 277200, Note_on_c, 9, 44, 63
10, 277320, Note_off_c, 9, 44, 80
10, 277320, Note_on_c, 9, 44, 79
10, 277440, Note_off_c, 9, 44, 80
10, 277440, Note_on_c, 9, 44, 95
10, 277440, Note_on_c, 9, 36, 79
10, 277560, Note_off_c, 9, 44, 80
10, 277560, Note_off_c, 9, 36, 80
10, 277560, Note_on_c, 9, 44, 31
10, 277680, Note_off_c, 9, 44, 80
10, 277680, Note_on_c, 9, 44, 63
10, 277800, Note_off_c, 9, 44, 80
10, 277800, Note_on_c, 9, 44, 79
10, 277920, Note_off_c, 9, 44, 80
10, 277920, Note_on_c, 9, 44, 95
10, 277920, Note_on_c, 9, 37, 95
10, 278040, Note_off_c, 9, 44, 80
10, 278040, Note_off_c, 9, 37, 80
10, 278040, Note_on_c, 9, 44, 31
10, 278160, Note_off_c, 9, 44, 80
10, 278160, Note_on_c, 9, 44, 63
10, 278160, Note_on_c, 9, 46, 95
10, 278280, Note_off_c, 9, 44, 80
10, 278280, Note_off_c, 9, 46, 80
10, 278280, Note_on_c, 9, 44, 79
10, 278400, Note_off_c, 9, 44, 80
10, 278400, Note_on_c, 9, 44, 95
10, 278520, Note_off_c, 9, 44, 80
10, 278520, Note_on_c, 9, 44, 31
10, 278640, Note_off_c, 9, 44, 80
10, 278640, Note_on_c, 9, 44, 63
10, 278760, Note_off_c, 9, 44, 80
10, 278760, Note_on_c, 9, 44, 79
10, 278760, Note_on_c, 9, 36, 95
10, 278880, Note_off_c, 9, 44, 80
10, 278880, Note_off_c, 9, 36, 80
10, 278880, Note_on_c, 9, 44, 95
10, 278880, Note_on_c, 9, 37, 95
10, 278880, Note_on_c, 9, 42, 95
10, 279000, Note_off_c, 9, 44, 80
10, 279000, Note_off_c, 9, 37, 80
10, 279000, Note_off_c, 9, 42, 80
10, 279000, Note_on_c, 9, 44, 31
10, 279120, Note_off_c, 9, 44, 80
10, 279120, Note_on_c, 9, 44, 63
10, 279120, Note_on_c, 9, 36, 95
10, 279240, Note_off_c, 9, 44, 80
10, 279240, Note_off_c, 9, 36, 80
10, 279240, Note_on_c, 9, 44, 79
10, 279360, Note_off_c, 9, 44, 80
10, 279360, Note_on_c, 9, 44, 95
10, 279360, Note_on_c, 9, 36, 95
10, 279480, Note_off_c, 9, 44, 80
10, 279480, Note_off_c, 9, 36, 80
10, 279480, Note_on_c, 9, 44, 31
10, 279600, Note_off_c, 9, 44, 80
10, 279600, Note_on_c, 9, 44, 63
10, 279720, Note_off_c, 9, 44, 80
10, 279720, Note_on_c, 9, 44, 79
10, 279840, Note_off_c, 9, 44, 80
10, 279840, Note_on_c, 9, 44, 95
10, 279840, Note_on_c, 9, 37, 95
10, 279960, Note_off_c, 9, 44, 80
10, 279960, Note_off_c, 9, 37, 80
10, 279960, Note_on_c, 9, 44, 31
10, 280080, Note_off_c, 9, 44, 80
10, 280080, Note_on_c, 9, 44, 63
10, 280080, Note_on_c, 9, 36, 95
10, 280200, Note_off_c, 9, 44, 80
10, 280200, Note_off_c, 9, 36, 80
10, 280200, Note_on_c, 9, 44, 79
10, 280320, Note_off_c, 9, 44, 80
10, 280320, Note_on_c, 9, 44, 95
10, 280440, Note_off_c, 9, 44, 80
10, 280440, Note_on_c, 9, 44, 31
10, 280560, Note_off_c, 9, 44, 80
10, 280560, Note_on_c, 9, 44, 63
10, 280680, Note_off_c, 9, 44, 80
10, 280680, Note_on_c, 9, 44, 79
10, 280800, Note_off_c, 9, 44, 80
10, 280800, Note_on_c, 9, 44, 95
10, 280800, Note_on_c, 9, 37, 95
10, 280920, Note_off_c, 9, 44, 80
10, 280920, Note_off_c, 9, 37, 80
10, 280920, Note_on_c, 9, 44, 31
10, 281040, Note_off_c, 9, 44, 80
10, 281040, Note_on_c, 9, 44, 63
10, 281160, Note_off_c, 9, 44, 80
10, 281160, Note_on_c, 9, 44, 79
10, 281280, Note_off_c, 9, 44, 80
10, 281280, Note_on_c, 9, 44, 95
10, 281280, Note_on_c, 9, 36, 79
10, 281400, Note_off_c, 9, 44, 80
10, 281400, Note_off_c, 9, 36, 80
10, 281400, Note_on_c, 9, 44, 31
10, 281520, Note_off_c, 9, 44, 80
10, 281520, Note_on_c, 9, 44, 63
10, 281640, Note_off_c, 9, 44, 80
10, 281640, Note_on_c, 9, 44, 79
10, 281760, Note_off_c, 9, 44, 80
10, 281760, Note_on_c, 9, 44, 95
10, 281760, Note_on_c, 9, 37, 95
10, 281880, Note_off_c, 9, 44, 80
10, 281880, Note_off_c, 9, 37, 80
10, 281880, Note_on_c, 9, 44, 31
10, 282000, Note_off_c, 9, 44, 80
10, 282000, Note_on_c, 9, 44, 63
10, 282000, Note_on_c, 9, 46, 95
10, 282120, Note_off_c, 9, 44, 80
10, 282120, Note_off_c, 9, 46, 80
10, 282120, Note_on_c, 9, 44, 79
10, 282120, Note_on_c, 9, 84, 95
10, 282240, Note_off_c, 9, 44, 80
10, 282240, Note_on_c, 9, 44, 95
10, 282240, Note_on_c, 9, 52, 95
10, 282360, Note_off_c, 9, 84, 80
10, 282360, Note_off_c, 9, 44, 80
10, 282360, Note_off_c, 9, 52, 80
10, 282360, Note_on_c, 9, 44, 31
10, 282480, Note_off_c, 9, 44, 80
10, 282480, Note_on_c, 9, 44, 63
10, 282600, Note_off_c, 9, 44, 80
10, 282600, Note_on_c, 9, 44, 79
10, 282600, Note_on_c, 9, 36, 95
10, 282720, Note_off_c, 9, 44, 80
10, 282720, Note_off_c, 9, 36, 80
10, 282720, Note_on_c, 9, 44, 95
10, 282720, Note_on_c, 9, 37, 95
10, 282720, Note_on_c, 9, 42, 95
10, 282840, Note_off_c, 9, 44, 80
10, 282840, Note_off_c, 9, 37, 80
10, 282840, Note_off_c, 9, 42, 80
10, 282840, Note_on_c, 9, 44, 31
10, 282960, Note_off_c, 9, 44, 80
10, 282960, Note_on_c, 9, 44, 63
10, 282960, Note_on_c, 9, 36, 95
10, 283080, Note_off_c, 9, 44, 80
10, 283080, Note_off_c, 9, 36, 80
10, 283080, Note_on_c, 9, 44, 79
10, 283200, Note_off_c, 9, 44, 80
10, 283200, Note_on_c, 9, 44, 95
10, 283200, Note_on_c, 9, 36, 95
10, 283320, Note_off_c, 9, 44, 80
10, 283320, Note_off_c, 9, 36, 80
10, 283320, Note_on_c, 9, 44, 31
10, 283440, Note_off_c, 9, 44, 80
10, 283440, Note_on_c, 9, 44, 63
10, 283560, Note_off_c, 9, 44, 80
10, 283560, Note_on_c, 9, 44, 79
10, 283680, Note_off_c, 9, 44, 80
10, 283680, Note_on_c, 9, 44, 95
10, 283680, Note_on_c, 9, 37, 95
10, 283800, Note_off_c, 9, 44, 80
10, 283800, Note_off_c, 9, 37, 80
10, 283800, Note_on_c, 9, 44, 31
10, 283920, Note_off_c, 9, 44, 80
10, 283920, Note_on_c, 9, 44, 63
10, 283920, Note_on_c, 9, 36, 95
10, 284040, Note_off_c, 9, 44, 80
10, 284040, Note_off_c, 9, 36, 80
10, 284040, Note_on_c, 9, 44, 79
10, 284160, Note_off_c, 9, 44, 80
10, 284160, Note_on_c, 9, 44, 95
10, 284280, Note_off_c, 9, 44, 80
10, 284280, Note_on_c, 9, 44, 31
10, 284400, Note_off_c, 9, 44, 80
10, 284400, Note_on_c, 9, 44, 63
10, 284520, Note_off_c, 9, 44, 80
10, 284520, Note_on_c, 9, 44, 79
10, 284640, Note_off_c, 9, 44, 80
10, 284640, Note_on_c, 9, 44, 95
10, 284640, Note_on_c, 9, 37, 95
10, 284760, Note_off_c, 9, 44, 80
10, 284760, Note_off_c, 9, 37, 80
10, 284760, Note_on_c, 9, 44, 31
10, 284880, Note_off_c, 9, 44, 80
10, 284880, Note_on_c, 9, 44, 63
10, 285000, Note_off_c, 9, 44, 80
10, 285000, Note_on_c, 9, 44, 79
10, 285120, Note_off_c, 9, 44, 80
10, 285120, Note_on_c, 9, 44, 95
10, 285120, Note_on_c, 9, 36, 79
10, 285240, Note_off_c, 9, 44, 80
10, 285240, Note_off_c, 9, 36, 80
10, 285240, Note_on_c, 9, 44, 31
10, 285360, Note_off_c, 9, 44, 80
10, 285360, Note_on_c, 9, 44, 63
10, 285480, Note_off_c, 9, 44, 80
10, 285480, Note_on_c, 9, 44, 79
10, 285600, Note_off_c, 9, 44, 80
10, 285600, Note_on_c, 9, 44, 95
10, 285600, Note_on_c, 9, 37, 95
10, 285720, Note_off_c, 9, 44, 80
10, 285720, Note_off_c, 9, 37, 80
10, 285720, Note_on_c, 9, 44, 31
10, 285840, Note_off_c, 9, 44, 80
10, 285840, Note_on_c, 9, 44, 63
10, 285840, Note_on_c, 9, 46, 95
10, 285960, Note_off_c, 9, 44, 80
10, 285960, Note_off_c, 9, 46, 80
10, 285960, Note_on_c, 9, 44, 79
10, 286080, Note_off_c, 9, 44, 80
10, 286080, Note_on_c, 9, 44, 95
10, 286200, Note_off_c, 9, 44, 80
10, 286200, Note_on_c, 9, 44, 31
10, 286320, Note_off_c, 9, 44, 80
10, 286320, Note_on_c, 9, 44, 63
10, 286440, Note_off_c, 9, 44, 80
10, 286440, Note_on_c, 9, 44, 79
10, 286440, Note_on_c, 9, 36, 95
10, 286560, Note_off_c, 9, 44, 80
10, 286560, Note_off_c, 9, 36, 80
10, 286560, Note_on_c, 9, 44, 95
10, 286560, Note_on_c, 9, 37, 95
10, 286560, Note_on_c, 9, 42, 95
10, 286680, Note_off_c, 9, 44, 80
10, 286680, Note_off_c, 9, 37, 80
10, 286680, Note_off_c, 9, 42, 80
10, 286680, Note_on_c, 9, 44, 31
10, 286800, Note_off_c, 9, 44, 80
10, 286800, Note_on_c, 9, 44, 63
10, 286800, Note_on_c, 9, 36, 95
10, 286920, Note_off_c, 9, 44, 80
10, 286920, Note_off_c, 9, 36, 80
10, 286920, Note_on_c, 9, 44, 79
10, 287040, Note_off_c, 9, 44, 80
10, 287040, Note_on_c, 9, 44, 95
10, 287040, Note_on_c, 9, 36, 95
10, 287160, Note_off_c, 9, 44, 80
10, 287160, Note_off_c, 9, 36, 80
10, 287160, Note_on_c, 9, 44, 31
10, 287280, Note_off_c, 9, 44, 80
10, 287280, Note_on_c, 9, 44, 63
10, 287400, Note_off_c, 9, 44, 80
10, 287400, Note_on_c, 9, 44, 79
10, 287520, Note_off_c, 9, 44, 80
10, 287520, Note_on_c, 9, 44, 95
10, 287520, Note_on_c, 9, 37, 95
10, 287640, Note_off_c, 9, 44, 80
10, 287640, Note_off_c, 9, 37, 80
10, 287640, Note_on_c, 9, 44, 31
10, 287760, Note_off_c, 9, 44, 80
10, 287760, Note_on_c, 9, 44, 63
10, 287760, Note_on_c, 9, 36, 95
10, 287880, Note_off_c, 9, 44, 80
10, 287880, Note_off_c, 9, 36, 80
10, 287880, Note_on_c, 9, 44, 79
10, 288000, Note_off_c, 9, 44, 80
10, 288000, Note_on_c, 9, 44, 95
10, 288120, Note_off_c, 9, 44, 80
10, 288120, Note_on_c, 9, 44, 31
10, 288240, Note_off_c, 9, 44, 80
10, 288240, Note_on_c, 9, 44, 63
10, 288360, Note_off_c, 9, 44, 80
10, 288360, Note_on_c, 9, 44, 79
10, 288480, Note_off_c, 9, 44, 80
10, 288480, Note_on_c, 9, 44, 95
10, 288480, Note_on_c, 9, 37, 95
10, 288600, Note_off_c, 9, 44, 80
10, 288600, Note_off_c, 9, 37, 80
10, 288600, Note_on_c, 9, 44, 31
10, 288720, Note_off_c, 9, 44, 80
10, 288720, Note_on_c, 9, 44, 63
10, 288840, Note_off_c, 9, 44, 80
10, 288840, Note_on_c, 9, 44, 79
10, 288960, Note_off_c, 9, 44, 80
10, 288960, Note_on_c, 9, 44, 95
10, 288960, Note_on_c, 9, 36, 79
10, 289080, Note_off_c, 9, 44, 80
10, 289080, Note_off_c, 9, 36, 80
10, 289080, Note_on_c, 9, 44, 31
10, 289200, Note_off_c, 9, 44, 80
10, 289200, Note_on_c, 9, 44, 63
10, 289320, Note_off_c, 9, 44, 80
10, 289320, Note_on_c, 9, 44, 79
10, 289440, Note_off_c, 9, 44, 80
10, 289440, Note_on_c, 9, 44, 95
10, 289440, Note_on_c, 9, 37, 95
10, 289560, Note_off_c, 9, 44, 80
10, 289560, Note_off_c, 9, 37, 80
10, 289560, Note_on_c, 9, 44, 31
10, 289680, Note_off_c, 9, 44, 80
10, 289680, Note_on_c, 9, 44, 63
10, 289680, Note_on_c, 9, 46, 95
10, 289800, Note_off_c, 9, 44, 80
10, 289800, Note_off_c, 9, 46, 80
10, 289800, Note_on_c, 9, 44, 79
10, 289920, Note_off_c, 9, 44, 80
10, 289920, Note_on_c, 9, 44, 95
10, 290040, Note_off_c, 9, 44, 80
10, 290040, Note_on_c, 9, 44, 31
10, 290160, Note_off_c, 9, 44, 80
10, 290160, Note_on_c, 9, 44, 63
10, 290280, Note_off_c, 9, 44, 80
10, 290280, Note_on_c, 9, 44, 79
10, 290280, Note_on_c, 9, 36, 95
10, 290400, Note_off_c, 9, 44, 80
10, 290400, Note_off_c, 9, 36, 80
10, 290400, Note_on_c, 9, 44, 95
10, 290400, Note_on_c, 9, 37, 95
10, 290400, Note_on_c, 9, 42, 95
10, 290520, Note_off_c, 9, 44, 80
10, 290520, Note_off_c, 9, 37, 80
10, 290520, Note_off_c, 9, 42, 80
10, 290520, Note_on_c, 9, 44, 31
10, 290640, Note_off_c, 9, 44, 80
10, 290640, Note_on_c, 9, 44, 63
10, 290640, Note_on_c, 9, 36, 95
10, 290760, Note_off_c, 9, 44, 80
10, 290760, Note_off_c, 9, 36, 80
10, 290760, Note_on_c, 9, 44, 79
10, 290880, Note_off_c, 9, 44, 80
10, 290880, Note_on_c, 9, 44, 95
10, 290880, Note_on_c, 9, 36, 95
10, 291000, Note_off_c, 9, 44, 80
10, 291000, Note_off_c, 9, 36, 80
10, 291000, Note_on_c, 9, 44, 31
10, 291120, Note_off_c, 9, 44, 80
10, 291120, Note_on_c, 9, 44, 63
10, 291240, Note_off_c, 9, 44, 80
10, 291240, Note_on_c, 9, 44, 79
10, 291360, Note_off_c, 9, 44, 80
10, 291360, Note_on_c, 9, 44, 95
10, 291360, Note_on_c, 9, 37, 95
10, 291480, Note_off_c, 9, 44, 80
10, 291480, Note_off_c, 9, 37, 80
10, 291480, Note_on_c, 9, 44, 31
10, 291600, Note_off_c, 9, 44, 80
10, 291600, Note_on_c, 9, 44, 63
10, 291600, Note_on_c, 9, 36, 95
10, 291720, Note_off_c, 9, 44, 80
10, 291720, Note_off_c, 9, 36, 80
10, 291720, Note_on_c, 9, 44, 79
10, 291840, Note_off_c, 9, 44, 80
10, 291840, Note_on_c, 9, 44, 95
10, 291960, Note_off_c, 9, 44, 80
10, 291960, Note_on_c, 9, 44, 31
10, 292080, Note_off_c, 9, 44, 80
10, 292080, Note_on_c, 9, 44, 63
10, 292200, Note_off_c, 9, 44, 80
10, 292200, Note_on_c, 9, 44, 79
10, 292320, Note_off_c, 9, 44, 80
10, 292320, Note_on_c, 9, 44, 95
10, 292320, Note_on_c, 9, 37, 95
10, 292440, Note_off_c, 9, 44, 80
10, 292440, Note_off_c, 9, 37, 80
10, 292440, Note_on_c, 9, 44, 31
10, 292560, Note_off_c, 9, 44, 80
10, 292560, Note_on_c, 9, 44, 63
10, 292680, Note_off_c, 9, 44, 80
10, 292680, Note_on_c, 9, 44, 79
10, 292800, Note_off_c, 9, 44, 80
10, 292800, Note_on_c, 9, 44, 95
10, 292800, Note_on_c, 9, 36, 79
10, 292920, Note_off_c, 9, 44, 80
10, 292920, Note_off_c, 9, 36, 80
10, 292920, Note_on_c, 9, 44, 31
10, 293040, Note_off_c, 9, 44, 80
10, 293040, Note_on_c, 9, 44, 63
10, 293160, Note_off_c, 9, 44, 80
10, 293160, Note_on_c, 9, 44, 79
10, 293280, Note_off_c, 9, 44, 80
10, 293280, Note_on_c, 9, 44, 95
10, 293280, Note_on_c, 9, 37, 95
10, 293400, Note_off_c, 9, 44, 80
10, 293400, Note_off_c, 9, 37, 80
10, 293400, Note_on_c, 9, 44, 31
10, 293520, Note_off_c, 9, 44, 80
10, 293520, Note_on_c, 9, 44, 63
10, 293520, Note_on_c, 9, 46, 95
10, 293640, Note_off_c, 9, 44, 80
10, 293640, Note_off_c, 9, 46, 80
10, 293640, Note_on_c, 9, 44, 79
10, 293760, Note_off_c, 9, 44, 80
10, 293760, Note_on_c, 9, 44, 95
10, 293880, Note_off_c, 9, 44, 80
10, 293880, Note_on_c, 9, 44, 31
10, 294000, Note_off_c, 9, 44, 80
10, 294000, Note_on_c, 9, 44, 63
10, 294120, Note_off_c, 9, 44, 80
10, 294120, Note_on_c, 9, 44, 79
10, 294120, Note_on_c, 9, 36, 95
10, 294240, Note_off_c, 9, 44, 80
10, 294240, Note_off_c, 9, 36, 80
10, 294240, Note_on_c, 9, 44, 95
10, 294240, Note_on_c, 9, 37, 95
10, 294240, Note_on_c, 9, 42, 95
10, 294360, Note_off_c, 9, 44, 80
10, 294360, Note_off_c, 9, 37, 80
10, 294360, Note_off_c, 9, 42, 80
10, 294360, Note_on_c, 9, 44, 31
10, 294480, Note_off_c, 9, 44, 80
10, 294480, Note_on_c, 9, 44, 63
10, 294480, Note_on_c, 9, 36, 95
10, 294600, Note_off_c, 9, 44, 80
10, 294600, Note_off_c, 9, 36, 80
10, 294600, Note_on_c, 9, 44, 79
10, 294720, Note_off_c, 9, 44, 80
10, 294720, Note_on_c, 9, 44, 95
10, 294720, Note_on_c, 9, 36, 95
10, 294840, Note_off_c, 9, 44, 80
10, 294840, Note_off_c, 9, 36, 80
10, 294840, Note_on_c, 9, 44, 31
10, 294960, Note_off_c, 9, 44, 80
10, 294960, Note_on_c, 9, 44, 63
10, 295080, Note_off_c, 9, 44, 80
10, 295080, Note_on_c, 9, 44, 79
10, 295200, Note_off_c, 9, 44, 80
10, 295200, Note_on_c, 9, 44, 95
10, 295200, Note_on_c, 9, 37, 95
10, 295320, Note_off_c, 9, 44, 80
10, 295320, Note_off_c, 9, 37, 80
10, 295320, Note_on_c, 9, 44, 31
10, 295440, Note_off_c, 9, 44, 80
10, 295440, Note_on_c, 9, 44, 63
10, 295440, Note_on_c, 9, 36, 95
10, 295560, Note_off_c, 9, 44, 80
10, 295560, Note_off_c, 9, 36, 80
10, 295560, Note_on_c, 9, 44, 79
10, 295680, Note_off_c, 9, 44, 80
10, 295680, Note_on_c, 9, 44, 95
10, 295800, Note_off_c, 9, 44, 80
10, 295800, Note_on_c, 9, 44, 31
10, 295920, Note_off_c, 9, 44, 80
10, 295920, Note_on_c, 9, 44, 63
10, 296040, Note_off_c, 9, 44, 80
10, 296040, Note_on_c, 9, 44, 79
10, 296160, Note_off_c, 9, 44, 80
10, 296160, Note_on_c, 9, 44, 95
10, 296160, Note_on_c, 9, 37, 95
10, 296280, Note_off_c, 9, 44, 80
10, 296280, Note_off_c, 9, 37, 80
10, 296280, Note_on_c, 9, 44, 31
10, 296400, Note_off_c, 9, 44, 80
10, 296400, Note_on_c, 9, 44, 63
10, 296520, Note_off_c, 9, 44, 80
10, 296520, Note_on_c, 9, 44, 79
10, 296640, Note_off_c, 9, 44, 80
10, 296640, Note_on_c, 9, 44, 95
10, 296640, Note_on_c, 9, 36, 79
10, 296640, Note_on_c, 9, 38, 95
10, 296760, Note_off_c, 9, 44, 80
10, 296760, Note_off_c, 9, 36, 80
10, 296760, Note_off_c, 9, 38, 80
10, 296760, Note_on_c, 9, 44, 31
10, 296880, Note_off_c, 9, 44, 80
10, 296880, Note_on_c, 9, 44, 63
10, 296880, Note_on_c, 9, 48, 95
10, 296880, Note_on_c, 9, 38, 79
10, 297000, Note_off_c, 9, 44, 80
10, 297000, Note_off_c, 9, 48, 80
10, 297000, Note_off_c, 9, 38, 80
10, 297000, Note_on_c, 9, 44, 79
10, 297000, Note_on_c, 9, 47, 95
10, 297000, Note_on_c, 9, 38, 63
10, 297120, Note_off_c, 9, 44, 80
10, 297120, Note_off_c, 9, 47, 80
10, 297120, Note_off_c, 9, 38, 80
10, 297120, Note_on_c, 9, 44, 95
10, 297120, Note_on_c, 9, 37, 95
10, 297120, Note_on_c, 9, 45, 95
10, 297120, Note_on_c, 9, 38, 47
10, 297240, Note_off_c, 9, 44, 80
10, 297240, Note_off_c, 9, 37, 80
10, 297240, Note_off_c, 9, 45, 80
10, 297240, Note_off_c, 9, 38, 80
10, 297240, Note_on_c, 9, 44, 31
10, 297360, Note_off_c, 9, 44, 80
10, 297360, Note_on_c, 9, 44, 63
10, 297360, Note_on_c, 9, 46, 95
10, 297360, Note_on_c, 9, 36, 95
10, 297360, Note_on_c, 9, 49, 95
10, 297480, Note_off_c, 9, 44, 80
10, 297480, Note_off_c, 9, 46, 80
10, 297480, Note_off_c, 9, 36, 80
10, 297480, Note_off_c, 9, 49, 80
10, 297480, Note_on_c, 9, 44, 79
10, 297600, Note_off_c, 9, 44, 80
10, 297600, Note_on_c, 9, 42, 95
10, 297720, Note_off_c, 9, 42, 80
10, 297720, Note_on_c, 9, 42, 31
10, 297840, Note_off_c, 9, 42, 80
10, 297840, Note_on_c, 9, 42, 79
10, 297960, Note_off_c, 9, 42, 80
10, 297960, Note_on_c, 9, 42, 79
10, 298080, Note_off_c, 9, 42, 80
10, 298080, Note_on_c, 9, 42, 95
10, 298080, Note_on_c, 9, 38, 95
10, 298200, Note_off_c, 9, 42, 80
10, 298200, Note_off_c, 9, 38, 80
10, 298200, Note_on_c, 9, 42, 31
10, 298320, Note_off_c, 9, 42, 80
10, 298320, Note_on_c, 9, 42, 79
10, 298320, Note_on_c, 9, 36, 95
10, 298440, Note_off_c, 9, 42, 80
10, 298440, Note_off_c, 9, 36, 80
10, 298440, Note_on_c, 9, 42, 79
10, 298560, Note_off_c, 9, 42, 80
10, 298560, Note_on_c, 9, 42, 95
10, 298560, Note_on_c, 9, 36, 95
10, 298680, Note_off_c, 9, 42, 80
10, 298680, Note_off_c, 9, 36, 80
10, 298680, Note_on_c, 9, 42, 31
10, 298800, Note_off_c, 9, 42, 80
10, 298800, Note_on_c, 9, 42, 79
10, 298920, Note_off_c, 9, 42, 80
10, 298920, Note_on_c, 9, 42, 79
10, 299040, Note_off_c, 9, 42, 80
10, 299040, Note_on_c, 9, 42, 95
10, 299040, Note_on_c, 9, 38, 95
10, 299160, Note_off_c, 9, 42, 80
10, 299160, Note_off_c, 9, 38, 80
10, 299160, Note_on_c, 9, 42, 31
10, 299280, Note_off_c, 9, 42, 80
10, 299280, Note_on_c, 9, 42, 79
10, 299280, Note_on_c, 9, 36, 95
10, 299400, Note_off_c, 9, 42, 80
10, 299400, Note_off_c, 9, 36, 80
10, 299400, Note_on_c, 9, 42, 79
10, 299520, Note_off_c, 9, 42, 80
10, 299520, Note_on_c, 9, 42, 95
10, 299640, Note_off_c, 9, 42, 80
10, 299640, Note_on_c, 9, 42, 31
10, 299760, Note_off_c, 9, 42, 80
10, 299760, Note_on_c, 9, 42, 79
10, 299880, Note_off_c, 9, 42, 80
10, 299880, Note_on_c, 9, 42, 79
10, 300000, Note_off_c, 9, 42, 80
10, 300000, Note_on_c, 9, 42, 95
10, 300000, Note_on_c, 9, 38, 95
10, 300120, Note_off_c, 9, 42, 80
10, 300120, Note_off_c, 9, 38, 80
10, 300120, Note_on_c, 9, 42, 31
10, 300240, Note_off_c, 9, 42, 80
10, 300240, Note_on_c, 9, 42, 79
10, 300240, Note_on_c, 9, 36, 95
10, 300360, Note_off_c, 9, 42, 80
10, 300360, Note_off_c, 9, 36, 80
10, 300360, Note_on_c, 9, 42, 79
10, 300480, Note_off_c, 9, 42, 80
10, 300480, Note_on_c, 9, 42, 95
10, 300480, Note_on_c, 9, 36, 95
10, 300600, Note_off_c, 9, 42, 80
10, 300600, Note_off_c, 9, 36, 80
10, 300600, Note_on_c, 9, 42, 31
10, 300720, Note_off_c, 9, 42, 80
10, 300720, Note_on_c, 9, 42, 79
10, 300840, Note_off_c, 9, 42, 80
10, 300840, Note_on_c, 9, 42, 79
10, 300960, Note_off_c, 9, 42, 80
10, 300960, Note_on_c, 9, 42, 95
10, 300960, Note_on_c, 9, 38, 95
10, 301080, Note_off_c, 9, 42, 80
10, 301080, Note_off_c, 9, 38, 80
10, 301080, Note_on_c, 9, 42, 31
10, 301200, Note_off_c, 9, 42, 80
10, 301200, Note_on_c, 9, 42, 79
10, 301200, Note_on_c, 9, 36, 95
10, 301320, Note_off_c, 9, 42, 80
10, 301320, Note_off_c, 9, 36, 80
10, 301320, Note_on_c, 9, 42, 79
10, 301440, Note_off_c, 9, 42, 80
10, 301440, Note_on_c, 9, 42, 95
10, 301560, Note_off_c, 9, 42, 80
10, 301560, Note_on_c, 9, 42, 31
10, 301680, Note_off_c, 9, 42, 80
10, 301680, Note_on_c, 9, 42, 79
10, 301800, Note_off_c, 9, 42, 80
10, 301800, Note_on_c, 9, 42, 79
10, 301920, Note_off_c, 9, 42, 80
10, 301920, Note_on_c, 9, 42, 95
10, 301920, Note_on_c, 9, 38, 95
10, 302040, Note_off_c, 9, 42, 80
10, 302040, Note_off_c, 9, 38, 80
10, 302040, Note_on_c, 9, 42, 31
10, 302160, Note_off_c, 9, 42, 80
10, 302160, Note_on_c, 9, 42, 79
10, 302160, Note_on_c, 9, 36, 95
10, 302280, Note_off_c, 9, 42, 80
10, 302280, Note_off_c, 9, 36, 80
10, 302280, Note_on_c, 9, 42, 79
10, 302400, Note_off_c, 9, 42, 80
10, 302400, Note_on_c, 9, 42, 95
10, 302400, Note_on_c, 9, 36, 95
10, 302520, Note_off_c, 9, 42, 80
10, 302520, Note_off_c, 9, 36, 80
10, 302520, Note_on_c, 9, 42, 31
10, 302640, Note_off_c, 9, 42, 80
10, 302640, Note_on_c, 9, 42, 79
10, 302760, Note_off_c, 9, 42, 80
10, 302760, Note_on_c, 9, 42, 79
10, 302880, Note_off_c, 9, 42, 80
10, 302880, Note_on_c, 9, 42, 95
10, 302880, Note_on_c, 9, 38, 95
10, 303000, Note_off_c, 9, 42, 80
10, 303000, Note_off_c, 9, 38, 80
10, 303000, Note_on_c, 9, 42, 31
10, 303120, Note_off_c, 9, 42, 80
10, 303120, Note_on_c, 9, 42, 79
10, 303120, Note_on_c, 9, 36, 95
10, 303240, Note_off_c, 9, 42, 80
10, 303240, Note_off_c, 9, 36, 80
10, 303240, Note_on_c, 9, 42, 79
10, 303360, Note_off_c, 9, 42, 80
10, 303360, Note_on_c, 9, 42, 95
10, 303480, Note_off_c, 9, 42, 80
10, 303480, Note_on_c, 9, 42, 31
10, 303600, Note_off_c, 9, 42, 80
10, 303600, Note_on_c, 9, 42, 79
10, 303720, Note_off_c, 9, 42, 80
10, 303720, Note_on_c, 9, 42, 79
10, 303840, Note_off_c, 9, 42, 80
10, 303840, Note_on_c, 9, 42, 95
10, 303840, Note_on_c, 9, 38, 95
10, 303960, Note_off_c, 9, 42, 80
10, 303960, Note_off_c, 9, 38, 80
10, 303960, Note_on_c, 9, 42, 31
10, 304080, Note_off_c, 9, 42, 80
10, 304080, Note_on_c, 9, 42, 79
10, 304080, Note_on_c, 9, 36, 95
10, 304200, Note_off_c, 9, 42, 80
10, 304200, Note_off_c, 9, 36, 80
10, 304200, Note_on_c, 9, 42, 79
10, 304320, Note_off_c, 9, 42, 80
10, 304320, Note_on_c, 9, 42, 95
10, 304320, Note_on_c, 9, 36, 95
10, 304440, Note_off_c, 9, 42, 80
10, 304440, Note_off_c, 9, 36, 80
10, 304440, Note_on_c, 9, 42, 31
10, 304560, Note_off_c, 9, 42, 80
10, 304560, Note_on_c, 9, 42, 79
10, 304680, Note_off_c, 9, 42, 80
10, 304680, Note_on_c, 9, 42, 79
10, 304800, Note_off_c, 9, 42, 80
10, 304800, Note_on_c, 9, 42, 95
10, 304800, Note_on_c, 9, 38, 95
10, 304920, Note_off_c, 9, 42, 80
10, 304920, Note_off_c, 9, 38, 80
10, 304920, Note_on_c, 9, 42, 31
10, 305040, Note_off_c, 9, 42, 80
10, 305040, Note_on_c, 9, 42, 79
10, 305040, Note_on_c, 9, 36, 95
10, 305160, Note_off_c, 9, 42, 80
10, 305160, Note_off_c, 9, 36, 80
10, 305160, Note_on_c, 9, 42, 79
10, 305280, Note_off_c, 9, 42, 80
10, 305280, Note_on_c, 9, 42, 95
10, 305400, Note_off_c, 9, 42, 80
10, 305400, Note_on_c, 9, 42, 31
10, 305520, Note_off_c, 9, 42, 80
10, 305520, Note_on_c, 9, 42, 79
10, 305640, Note_off_c, 9, 42, 80
10, 305640, Note_on_c, 9, 42, 79
10, 305760, Note_off_c, 9, 42, 80
10, 305760, Note_on_c, 9, 42, 95
10, 305760, Note_on_c, 9, 38, 95
10, 305880, Note_off_c, 9, 42, 80
10, 305880, Note_off_c, 9, 38, 80
10, 305880, Note_on_c, 9, 42, 31
10, 306000, Note_off_c, 9, 42, 80
10, 306000, Note_on_c, 9, 42, 79
10, 306000, Note_on_c, 9, 36, 95
10, 306120, Note_off_c, 9, 42, 80
10, 306120, Note_off_c, 9, 36, 80
10, 306120, Note_on_c, 9, 42, 79
10, 306240, Note_off_c, 9, 42, 80
10, 306240, Note_on_c, 9, 42, 95
10, 306240, Note_on_c, 9, 36, 95
10, 306360, Note_off_c, 9, 42, 80
10, 306360, Note_off_c, 9, 36, 80
10, 306360, Note_on_c, 9, 42, 31
10, 306480, Note_off_c, 9, 42, 80
10, 306480, Note_on_c, 9, 42, 79
10, 306600, Note_off_c, 9, 42, 80
10, 306600, Note_on_c, 9, 42, 79
10, 306720, Note_off_c, 9, 42, 80
10, 306720, Note_on_c, 9, 42, 95
10, 306720, Note_on_c, 9, 38, 95
10, 306840, Note_off_c, 9, 42, 80
10, 306840, Note_off_c, 9, 38, 80
10, 306840, Note_on_c, 9, 42, 31
10, 306960, Note_off_c, 9, 42, 80
10, 306960, Note_on_c, 9, 42, 79
10, 306960, Note_on_c, 9, 36, 95
10, 307080, Note_off_c, 9, 42, 80
10, 307080, Note_off_c, 9, 36, 80
10, 307080, Note_on_c, 9, 42, 79
10, 307200, Note_off_c, 9, 42, 80
10, 307200, Note_on_c, 9, 42, 95
10, 307320, Note_off_c, 9, 42, 80
10, 307320, Note_on_c, 9, 42, 31
10, 307440, Note_off_c, 9, 42, 80
10, 307440, Note_on_c, 9, 42, 79
10, 307560, Note_off_c, 9, 42, 80
10, 307560, Note_on_c, 9, 42, 79
10, 307680, Note_off_c, 9, 42, 80
10, 307680, Note_on_c, 9, 42, 95
10, 307680, Note_on_c, 9, 38, 95
10, 307800, Note_off_c, 9, 42, 80
10, 307800, Note_off_c, 9, 38, 80
10, 307800, Note_on_c, 9, 42, 31
10, 307920, Note_off_c, 9, 42, 80
10, 307920, Note_on_c, 9, 42, 79
10, 307920, Note_on_c, 9, 36, 95
10, 308040, Note_off_c, 9, 42, 80
10, 308040, Note_off_c, 9, 36, 80
10, 308040, Note_on_c, 9, 42, 79
10, 308160, Note_off_c, 9, 42, 80
10, 308160, Note_on_c, 9, 42, 95
10, 308160, Note_on_c, 9, 36, 95
10, 308280, Note_off_c, 9, 42, 80
10, 308280, Note_off_c, 9, 36, 80
10, 308280, Note_on_c, 9, 42, 31
10, 308400, Note_off_c, 9, 42, 80
10, 308400, Note_on_c, 9, 42, 79
10, 308520, Note_off_c, 9, 42, 80
10, 308520, Note_on_c, 9, 42, 79
10, 308640, Note_off_c, 9, 42, 80
10, 308640, Note_on_c, 9, 42, 95
10, 308640, Note_on_c, 9, 38, 95
10, 308760, Note_off_c, 9, 42, 80
10, 308760, Note_off_c, 9, 38, 80
10, 308760, Note_on_c, 9, 42, 31
10, 308880, Note_off_c, 9, 42, 80
10, 308880, Note_on_c, 9, 42, 79
10, 308880, Note_on_c, 9, 36, 95
10, 309000, Note_off_c, 9, 42, 80
10, 309000, Note_off_c, 9, 36, 80
10, 309000, Note_on_c, 9, 42, 79
10, 309120, Note_off_c, 9, 42, 80
10, 309120, Note_on_c, 9, 42, 95
10, 309240, Note_off_c, 9, 42, 80
10, 309240, Note_on_c, 9, 42, 31
10, 309360, Note_off_c, 9, 42, 80
10, 309360, Note_on_c, 9, 42, 79
10, 309480, Note_off_c, 9, 42, 80
10, 309480, Note_on_c, 9, 42, 79
10, 309600, Note_off_c, 9, 42, 80
10, 309600, Note_on_c, 9, 42, 95
10, 309600, Note_on_c, 9, 38, 95
10, 309720, Note_off_c, 9, 42, 80
10, 309720, Note_off_c, 9, 38, 80
10, 309720, Note_on_c, 9, 42, 31
10, 309840, Note_off_c, 9, 42, 80
10, 309840, Note_on_c, 9, 42, 79
10, 309840, Note_on_c, 9, 36, 95
10, 309960, Note_off_c, 9, 42, 80
10, 309960, Note_off_c, 9, 36, 80
10, 309960, Note_on_c, 9, 42, 79
10, 310080, Note_off_c, 9, 42, 80
10, 310080, Note_on_c, 9, 42, 95
10, 310080, Note_on_c, 9, 36, 95
10, 310200, Note_off_c, 9, 42, 80
10, 310200, Note_off_c, 9, 36, 80
10, 310200, Note_on_c, 9, 42, 31
10, 310320, Note_off_c, 9, 42, 80
10, 310320, Note_on_c, 9, 42, 79
10, 310440, Note_off_c, 9, 42, 80
10, 310440, Note_on_c, 9, 42, 79
10, 310560, Note_off_c, 9, 42, 80
10, 310560, Note_on_c, 9, 42, 95
10, 310560, Note_on_c, 9, 38, 95
10, 310680, Note_off_c, 9, 42, 80
10, 310680, Note_off_c, 9, 38, 80
10, 310680, Note_on_c, 9, 42, 31
10, 310800, Note_off_c, 9, 42, 80
10, 310800, Note_on_c, 9, 42, 79
10, 310800, Note_on_c, 9, 36, 95
10, 310920, Note_off_c, 9, 42, 80
10, 310920, Note_off_c, 9, 36, 80
10, 310920, Note_on_c, 9, 42, 79
10, 311040, Note_off_c, 9, 42, 80
10, 311040, Note_on_c, 9, 44, 95
10, 311160, Note_off_c, 9, 44, 80
10, 311160, Note_on_c, 9, 44, 31
10, 311280, Note_off_c, 9, 44, 80
10, 311280, Note_on_c, 9, 44, 63
10, 311400, Note_off_c, 9, 44, 80
10, 311400, Note_on_c, 9, 44, 79
10, 311520, Note_off_c, 9, 44, 80
10, 311520, Note_on_c, 9, 44, 95
10, 311520, Note_on_c, 9, 38, 95
10, 311640, Note_off_c, 9, 44, 80
10, 311640, Note_off_c, 9, 38, 80
10, 311640, Note_on_c, 9, 44, 31
10, 311760, Note_off_c, 9, 44, 80
10, 311760, Note_on_c, 9, 44, 63
10, 311760, Note_on_c, 9, 36, 95
10, 311880, Note_off_c, 9, 44, 80
10, 311880, Note_off_c, 9, 36, 80
10, 311880, Note_on_c, 9, 44, 79
10, 312000, Note_off_c, 9, 44, 80
10, 312000, Note_on_c, 9, 44, 95
10, 312000, Note_on_c, 9, 36, 79
10, 312000, Note_on_c, 9, 38, 95
10, 312120, Note_off_c, 9, 44, 80
10, 312120, Note_off_c, 9, 36, 80
10, 312120, Note_off_c, 9, 38, 80
10, 312120, Note_on_c, 9, 44, 31
10, 312240, Note_off_c, 9, 44, 80
10, 312240, Note_on_c, 9, 44, 63
10, 312240, Note_on_c, 9, 48, 95
10, 312240, Note_on_c, 9, 38, 79
10, 312360, Note_off_c, 9, 44, 80
10, 312360, Note_off_c, 9, 48, 80
10, 312360, Note_off_c, 9, 38, 80
10, 312360, Note_on_c, 9, 44, 79
10, 312360, Note_on_c, 9, 47, 95
10, 312360, Note_on_c, 9, 38, 63
10, 312480, Note_off_c, 9, 44, 80
10, 312480, Note_off_c, 9, 47, 80
10, 312480, Note_off_c, 9, 38, 80
10, 312480, Note_on_c, 9, 44, 95
10, 312480, Note_on_c, 9, 37, 95
10, 312480, Note_on_c, 9, 45, 95
10, 312480, Note_on_c, 9, 38, 47
10, 312600, Note_off_c, 9, 44, 80
10, 312600, Note_off_c, 9, 37, 80
10, 312600, Note_off_c, 9, 45, 80
10, 312600, Note_off_c, 9, 38, 80
10, 312600, Note_on_c, 9, 44, 31
10, 312720, Note_off_c, 9, 44, 80
10, 312720, Note_on_c, 9, 44, 63
10, 312720, Note_on_c, 9, 46, 95
10, 312720, Note_on_c, 9, 36, 95
10, 312720, Note_on_c, 9, 49, 95
10, 312840, Note_off_c, 9, 44, 80
10, 312840, Note_off_c, 9, 46, 80
10, 312840, Note_off_c, 9, 36, 80
10, 312840, Note_off_c, 9, 49, 80
10, 312840, Note_on_c, 9, 44, 79
10, 312960, Note_off_c, 9, 44, 80
10, 312960, Note_on_c, 9, 42, 95
10, 313080, Note_off_c, 9, 42, 80
10, 313080, Note_on_c, 9, 42, 31
10, 313200, Note_off_c, 9, 42, 80
10, 313200, Note_on_c, 9, 42, 79
10, 313320, Note_off_c, 9, 42, 80
10, 313320, Note_on_c, 9, 42, 79
10, 313440, Note_off_c, 9, 42, 80
10, 313440, Note_on_c, 9, 42, 95
10, 313440, Note_on_c, 9, 38, 95
10, 313560, Note_off_c, 9, 42, 80
10, 313560, Note_off_c, 9, 38, 80
10, 313560, Note_on_c, 9, 42, 31
10, 313680, Note_off_c, 9, 42, 80
10, 313680, Note_on_c, 9, 42, 79
10, 313680, Note_on_c, 9, 36, 95
10, 313800, Note_off_c, 9, 42, 80
10, 313800, Note_off_c, 9, 36, 80
10, 313800, Note_on_c, 9, 42, 79
10, 313920, Note_off_c, 9, 42, 80
10, 313920, Note_on_c, 9, 42, 95
10, 313920, Note_on_c, 9, 36, 95
10, 314040, Note_off_c, 9, 42, 80
10, 314040, Note_off_c, 9, 36, 80
10, 314040, Note_on_c, 9, 42, 31
10, 314160, Note_off_c, 9, 42, 80
10, 314160, Note_on_c, 9, 42, 79
10, 314280, Note_off_c, 9, 42, 80
10, 314280, Note_on_c, 9, 42, 79
10, 314400, Note_off_c, 9, 42, 80
10, 314400, Note_on_c, 9, 42, 95
10, 314400, Note_on_c, 9, 38, 95
10, 314520, Note_off_c, 9, 42, 80
10, 314520, Note_off_c, 9, 38, 80
10, 314520, Note_on_c, 9, 42, 31
10, 314640, Note_off_c, 9, 42, 80
10, 314640, Note_on_c, 9, 42, 79
10, 314640, Note_on_c, 9, 36, 95
10, 314760, Note_off_c, 9, 42, 80
10, 314760, Note_off_c, 9, 36, 80
10, 314760, Note_on_c, 9, 42, 79
10, 314880, Note_off_c, 9, 42, 80
10, 314880, Note_on_c, 9, 42, 95
10, 315000, Note_off_c, 9, 42, 80
10, 315000, Note_on_c, 9, 42, 31
10, 315120, Note_off_c, 9, 42, 80
10, 315120, Note_on_c, 9, 42, 79
10, 315240, Note_off_c, 9, 42, 80
10, 315240, Note_on_c, 9, 42, 79
10, 315360, Note_off_c, 9, 42, 80
10, 315360, Note_on_c, 9, 42, 95
10, 315360, Note_on_c, 9, 38, 95
10, 315480, Note_off_c, 9, 42, 80
10, 315480, Note_off_c, 9, 38, 80
10, 315480, Note_on_c, 9, 42, 31
10, 315600, Note_off_c, 9, 42, 80
10, 315600, Note_on_c, 9, 42, 79
10, 315600, Note_on_c, 9, 36, 95
10, 315720, Note_off_c, 9, 42, 80
10, 315720, Note_off_c, 9, 36, 80
10, 315720, Note_on_c, 9, 42, 79
10, 315840, Note_off_c, 9, 42, 80
10, 315840, Note_on_c, 9, 42, 95
10, 315840, Note_on_c, 9, 36, 95
10, 315960, Note_off_c, 9, 42, 80
10, 315960, Note_off_c, 9, 36, 80
10, 315960, Note_on_c, 9, 42, 31
10, 316080, Note_off_c, 9, 42, 80
10, 316080, Note_on_c, 9, 42, 79
10, 316200, Note_off_c, 9, 42, 80
10, 316200, Note_on_c, 9, 42, 79
10, 316320, Note_off_c, 9, 42, 80
10, 316320, Note_on_c, 9, 42, 95
10, 316320, Note_on_c, 9, 38, 95
10, 316440, Note_off_c, 9, 42, 80
10, 316440, Note_off_c, 9, 38, 80
10, 316440, Note_on_c, 9, 42, 31
10, 316560, Note_off_c, 9, 42, 80
10, 316560, Note_on_c, 9, 42, 79
10, 316560, Note_on_c, 9, 36, 95
10, 316680, Note_off_c, 9, 42, 80
10, 316680, Note_off_c, 9, 36, 80
10, 316680, Note_on_c, 9, 42, 79
10, 316800, Note_off_c, 9, 42, 80
10, 316800, Note_on_c, 9, 42, 95
10, 316920, Note_off_c, 9, 42, 80
10, 316920, Note_on_c, 9, 42, 31
10, 317040, Note_off_c, 9, 42, 80
10, 317040, Note_on_c, 9, 42, 79
10, 317160, Note_off_c, 9, 42, 80
10, 317160, Note_on_c, 9, 42, 79
10, 317280, Note_off_c, 9, 42, 80
10, 317280, Note_on_c, 9, 42, 95
10, 317280, Note_on_c, 9, 38, 95
10, 317400, Note_off_c, 9, 42, 80
10, 317400, Note_off_c, 9, 38, 80
10, 317400, Note_on_c, 9, 42, 31
10, 317520, Note_off_c, 9, 42, 80
10, 317520, Note_on_c, 9, 42, 79
10, 317520, Note_on_c, 9, 36, 95
10, 317640, Note_off_c, 9, 42, 80
10, 317640, Note_off_c, 9, 36, 80
10, 317640, Note_on_c, 9, 42, 79
10, 317760, Note_off_c, 9, 42, 80
10, 317760, Note_on_c, 9, 42, 95
10, 317760, Note_on_c, 9, 36, 95
10, 317880, Note_off_c, 9, 42, 80
10, 317880, Note_off_c, 9, 36, 80
10, 317880, Note_on_c, 9, 42, 31
10, 318000, Note_off_c, 9, 42, 80
10, 318000, Note_on_c, 9, 42, 79
10, 318120, Note_off_c, 9, 42, 80
10, 318120, Note_on_c, 9, 42, 79
10, 318240, Note_off_c, 9, 42, 80
10, 318240, Note_on_c, 9, 42, 95
10, 318240, Note_on_c, 9, 38, 95
10, 318360, Note_off_c, 9, 42, 80
10, 318360, Note_off_c, 9, 38, 80
10, 318360, Note_on_c, 9, 42, 31
10, 318480, Note_off_c, 9, 42, 80
10, 318480, Note_on_c, 9, 42, 79
10, 318480, Note_on_c, 9, 36, 95
10, 318600, Note_off_c, 9, 42, 80
10, 318600, Note_off_c, 9, 36, 80
10, 318600, Note_on_c, 9, 42, 79
10, 318720, Note_off_c, 9, 42, 80
10, 318720, Note_on_c, 9, 42, 95
10, 318840, Note_off_c, 9, 42, 80
10, 318840, Note_on_c, 9, 42, 31
10, 318960, Note_off_c, 9, 42, 80
10, 318960, Note_on_c, 9, 42, 79
10, 319080, Note_off_c, 9, 42, 80
10, 319080, Note_on_c, 9, 42, 79
10, 319200, Note_off_c, 9, 42, 80
10, 319200, Note_on_c, 9, 42, 95
10, 319200, Note_on_c, 9, 38, 95
10, 319320, Note_off_c, 9, 42, 80
10, 319320, Note_off_c, 9, 38, 80
10, 319320, Note_on_c, 9, 42, 31
10, 319440, Note_off_c, 9, 42, 80
10, 319440, Note_on_c, 9, 42, 79
10, 319440, Note_on_c, 9, 36, 95
10, 319560, Note_off_c, 9, 42, 80
10, 319560, Note_off_c, 9, 36, 80
10, 319560, Note_on_c, 9, 42, 79
10, 319680, Note_off_c, 9, 42, 80
10, 319680, Note_on_c, 9, 42, 95
10, 319680, Note_on_c, 9, 36, 95
10, 319800, Note_off_c, 9, 42, 80
10, 319800, Note_off_c, 9, 36, 80
10, 319800, Note_on_c, 9, 42, 31
10, 319920, Note_off_c, 9, 42, 80
10, 319920, Note_on_c, 9, 42, 79
10, 320040, Note_off_c, 9, 42, 80
10, 320040, Note_on_c, 9, 42, 79
10, 320160, Note_off_c, 9, 42, 80
10, 320160, Note_on_c, 9, 42, 95
10, 320160, Note_on_c, 9, 38, 95
10, 320280, Note_off_c, 9, 42, 80
10, 320280, Note_off_c, 9, 38, 80
10, 320280, Note_on_c, 9, 42, 31
10, 320400, Note_off_c, 9, 42, 80
10, 320400, Note_on_c, 9, 42, 79
10, 320400, Note_on_c, 9, 36, 95
10, 320520, Note_off_c, 9, 42, 80
10, 320520, Note_off_c, 9, 36, 80
10, 320520, Note_on_c, 9, 42, 79
10, 320640, Note_off_c, 9, 42, 80
10, 320640, Note_on_c, 9, 42, 95
10, 320760, Note_off_c, 9, 42, 80
10, 320760, Note_on_c, 9, 42, 31
10, 320880, Note_off_c, 9, 42, 80
10, 320880, Note_on_c, 9, 42, 79
10, 321000, Note_off_c, 9, 42, 80
10, 321000, Note_on_c, 9, 42, 79
10, 321120, Note_off_c, 9, 42, 80
10, 321120, Note_on_c, 9, 42, 95
10, 321120, Note_on_c, 9, 38, 95
10, 321240, Note_off_c, 9, 42, 80
10, 321240, Note_off_c, 9, 38, 80
10, 321240, Note_on_c, 9, 42, 31
10, 321360, Note_off_c, 9, 42, 80
10, 321360, Note_on_c, 9, 42, 79
10, 321360, Note_on_c, 9, 36, 95
10, 321480, Note_off_c, 9, 42, 80
10, 321480, Note_off_c, 9, 36, 80
10, 321480, Note_on_c, 9, 42, 79
10, 321600, Note_off_c, 9, 42, 80
10, 321600, Note_on_c, 9, 42, 95
10, 321600, Note_on_c, 9, 36, 95
10, 321720, Note_off_c, 9, 42, 80
10, 321720, Note_off_c, 9, 36, 80
10, 321720, Note_on_c, 9, 42, 31
10, 321840, Note_off_c, 9, 42, 80
10, 321840, Note_on_c, 9, 42, 79
10, 321960, Note_off_c, 9, 42, 80
10, 321960, Note_on_c, 9, 42, 79
10, 322080, Note_off_c, 9, 42, 80
10, 322080, Note_on_c, 9, 42, 95
10, 322080, Note_on_c, 9, 38, 95
10, 322200, Note_off_c, 9, 42, 80
10, 322200, Note_off_c, 9, 38, 80
10, 322200, Note_on_c, 9, 42, 31
10, 322320, Note_off_c, 9, 42, 80
10, 322320, Note_on_c, 9, 42, 79
10, 322320, Note_on_c, 9, 36, 95
10, 322440, Note_off_c, 9, 42, 80
10, 322440, Note_off_c, 9, 36, 80
10, 322440, Note_on_c, 9, 42, 79
10, 322560, Note_off_c, 9, 42, 80
10, 322560, Note_on_c, 9, 42, 95
10, 322680, Note_off_c, 9, 42, 80
10, 322680, Note_on_c, 9, 42, 31
10, 322800, Note_off_c, 9, 42, 80
10, 322800, Note_on_c, 9, 42, 79
10, 322920, Note_off_c, 9, 42, 80
10, 322920, Note_on_c, 9, 42, 79
10, 323040, Note_off_c, 9, 42, 80
10, 323040, Note_on_c, 9, 42, 95
10, 323040, Note_on_c, 9, 38, 95
10, 323160, Note_off_c, 9, 42, 80
10, 323160, Note_off_c, 9, 38, 80
10, 323160, Note_on_c, 9, 42, 31
10, 323280, Note_off_c, 9, 42, 80
10, 323280, Note_on_c, 9, 42, 79
10, 323280, Note_on_c, 9, 36, 95
10, 323400, Note_off_c, 9, 42, 80
10, 323400, Note_off_c, 9, 36, 80
10, 323400, Note_on_c, 9, 42, 79
10, 323520, Note_off_c, 9, 42, 80
10, 323520, Note_on_c, 9, 42, 95
10, 323520, Note_on_c, 9, 36, 95
10, 323640, Note_off_c, 9, 42, 80
10, 323640, Note_off_c, 9, 36, 80
10, 323640, Note_on_c, 9, 42, 31
10, 323760, Note_off_c, 9, 42, 80
10, 323760, Note_on_c, 9, 42, 79
10, 323880, Note_off_c, 9, 42, 80
10, 323880, Note_on_c, 9, 42, 79
10, 324000, Note_off_c, 9, 42, 80
10, 324000, Note_on_c, 9, 42, 95
10, 324000, Note_on_c, 9, 38, 95
10, 324120, Note_off_c, 9, 42, 80
10, 324120, Note_off_c, 9, 38, 80
10, 324120, Note_on_c, 9, 42, 31
10, 324240, Note_off_c, 9, 42, 80
10, 324240, Note_on_c, 9, 42, 79
10, 324240, Note_on_c, 9, 36, 95
10, 324360, Note_off_c, 9, 42, 80
10, 324360, Note_off_c, 9, 36, 80
10, 324360, Note_on_c, 9, 42, 79
10, 324480, Note_off_c, 9, 42, 80
10, 324480, Note_on_c, 9, 42, 95
10, 324600, Note_off_c, 9, 42, 80
10, 324600, Note_on_c, 9, 42, 31
10, 324720, Note_off_c, 9, 42, 80
10, 324720, Note_on_c, 9, 42, 79
10, 324840, Note_off_c, 9, 42, 80
10, 324840, Note_on_c, 9, 42, 79
10, 324960, Note_off_c, 9, 42, 80
10, 324960, Note_on_c, 9, 42, 95
10, 324960, Note_on_c, 9, 38, 95
10, 325080, Note_off_c, 9, 42, 80
10, 325080, Note_off_c, 9, 38, 80
10, 325080, Note_on_c, 9, 42, 31
10, 325200, Note_off_c, 9, 42, 80
10, 325200, Note_on_c, 9, 42, 79
10, 325200, Note_on_c, 9, 36, 95
10, 325320, Note_off_c, 9, 42, 80
10, 325320, Note_off_c, 9, 36, 80
10, 325320, Note_on_c, 9, 42, 79
10, 325440, Note_off_c, 9, 42, 80
10, 325440, Note_on_c, 9, 42, 95
10, 325440, Note_on_c, 9, 36, 95
10, 325560, Note_off_c, 9, 42, 80
10, 325560, Note_off_c, 9, 36, 80
10, 325560, Note_on_c, 9, 42, 31
10, 325680, Note_off_c, 9, 42, 80
10, 325680, Note_on_c, 9, 42, 79
10, 325800, Note_off_c, 9, 42, 80
10, 325800, Note_on_c, 9, 42, 79
10, 325920, Note_off_c, 9, 42, 80
10, 325920, Note_on_c, 9, 42, 95
10, 325920, Note_on_c, 9, 38, 95
10, 326040, Note_off_c, 9, 42, 80
10, 326040, Note_off_c, 9, 38, 80
10, 326040, Note_on_c, 9, 42, 31
10, 326160, Note_off_c, 9, 42, 80
10, 326160, Note_on_c, 9, 42, 79
10, 326160, Note_on_c, 9, 36, 95
10, 326280, Note_off_c, 9, 42, 80
10, 326280, Note_off_c, 9, 36, 80
10, 326280, Note_on_c, 9, 42, 79
10, 326400, Note_off_c, 9, 42, 80
10, 326400, Note_on_c, 9, 42, 95
10, 326520, Note_off_c, 9, 42, 80
10, 326520, Note_on_c, 9, 42, 31
10, 326640, Note_off_c, 9, 42, 80
10, 326640, Note_on_c, 9, 42, 79
10, 326760, Note_off_c, 9, 42, 80
10, 326760, Note_on_c, 9, 42, 79
10, 326880, Note_off_c, 9, 42, 80
10, 326880, Note_on_c, 9, 42, 95
10, 326880, Note_on_c, 9, 38, 95
10, 327000, Note_off_c, 9, 42, 80
10, 327000, Note_off_c, 9, 38, 80
10, 327000, Note_on_c, 9, 42, 31
10, 327120, Note_off_c, 9, 42, 80
10, 327120, Note_on_c, 9, 42, 79
10, 327120, Note_on_c, 9, 36, 95
10, 327240, Note_off_c, 9, 42, 80
10, 327240, Note_off_c, 9, 36, 80
10, 327240, Note_on_c, 9, 42, 79
10, 327360, Note_off_c, 9, 42, 80
10, 327360, Note_on_c, 9, 42, 95
10, 327360, Note_on_c, 9, 36, 95
10, 327480, Note_off_c, 9, 42, 80
10, 327480, Note_off_c, 9, 36, 80
10, 327480, Note_on_c, 9, 42, 31
10, 327600, Note_off_c, 9, 42, 80
10, 327600, Note_on_c, 9, 42, 79
10, 327720, Note_off_c, 9, 42, 80
10, 327720, Note_on_c, 9, 42, 79
10, 327840, Note_off_c, 9, 42, 80
10, 327840, Note_on_c, 9, 42, 95
10, 327840, Note_on_c, 9, 38, 95
10, 327960, Note_off_c, 9, 42, 80
10, 327960, Note_off_c, 9, 38, 80
10, 327960, Note_on_c, 9, 42, 31
10, 328080, Note_off_c, 9, 42, 80
10, 328080, Note_on_c, 9, 42, 79
10, 328080, Note_on_c, 9, 36, 95
10, 328200, Note_off_c, 9, 42, 80
10, 328200, Note_off_c, 9, 36, 80
10, 328200, Note_on_c, 9, 42, 79
10, 328320, Note_off_c, 9, 42, 80
10, 328320, Note_on_c, 9, 44, 95
10, 328320, Note_on_c, 9, 52, 95
10, 328440, Note_off_c, 9, 44, 80
10, 328440, Note_off_c, 9, 52, 80
10, 328440, Note_on_c, 9, 44, 31
10, 328560, Note_off_c, 9, 44, 80
10, 328560, Note_on_c, 9, 44, 63
10, 328680, Note_off_c, 9, 44, 80
10, 328680, Note_on_c, 9, 44, 79
10, 328680, Note_on_c, 9, 36, 95
10, 328800, Note_off_c, 9, 44, 80
10, 328800, Note_off_c, 9, 36, 80
10, 328800, Note_on_c, 9, 44, 95
10, 328800, Note_on_c, 9, 37, 95
10, 328800, Note_on_c, 9, 42, 95
10, 328920, Note_off_c, 9, 44, 80
10, 328920, Note_off_c, 9, 37, 80
10, 328920, Note_off_c, 9, 42, 80
10, 328920, Note_on_c, 9, 44, 31
10, 329040, Note_off_c, 9, 44, 80
10, 329040, Note_on_c, 9, 44, 63
10, 329040, Note_on_c, 9, 36, 95
10, 329160, Note_off_c, 9, 44, 80
10, 329160, Note_off_c, 9, 36, 80
10, 329160, Note_on_c, 9, 44, 79
10, 329280, Note_off_c, 9, 44, 80
10, 329280, Note_on_c, 9, 44, 95
10, 329280, Note_on_c, 9, 36, 95
10, 329400, Note_off_c, 9, 44, 80
10, 329400, Note_off_c, 9, 36, 80
10, 329400, Note_on_c, 9, 44, 31
10, 329520, Note_off_c, 9, 44, 80
10, 329520, Note_on_c, 9, 44, 63
10, 329640, Note_off_c, 9, 44, 80
10, 329640, Note_on_c, 9, 44, 79
10, 329760, Note_off_c, 9, 44, 80
10, 329760, Note_on_c, 9, 44, 95
10, 329760, Note_on_c, 9, 37, 95
10, 329880, Note_off_c, 9, 44, 80
10, 329880, Note_off_c, 9, 37, 80
10, 329880, Note_on_c, 9, 44, 31
10, 330000, Note_off_c, 9, 44, 80
10, 330000, Note_on_c, 9, 44, 63
10, 330000, Note_on_c, 9, 36, 95
10, 330120, Note_off_c, 9, 44, 80
10, 330120, Note_off_c, 9, 36, 80
10, 330120, Note_on_c, 9, 44, 79
10, 330240, Note_off_c, 9, 44, 80
10, 330240, Note_on_c, 9, 44, 95
10, 330360, Note_off_c, 9, 44, 80
10, 330360, Note_on_c, 9, 44, 31
10, 330480, Note_off_c, 9, 44, 80
10, 330480, Note_on_c, 9, 44, 63
10, 330600, Note_off_c, 9, 44, 80
10, 330600, Note_on_c, 9, 44, 79
10, 330720, Note_off_c, 9, 44, 80
10, 330720, Note_on_c, 9, 44, 95
10, 330720, Note_on_c, 9, 37, 95
10, 330840, Note_off_c, 9, 44, 80
10, 330840, Note_off_c, 9, 37, 80
10, 330840, Note_on_c, 9, 44, 31
10, 330960, Note_off_c, 9, 44, 80
10, 330960, Note_on_c, 9, 44, 63
10, 331080, Note_off_c, 9, 44, 80
10, 331080, Note_on_c, 9, 44, 79
10, 331200, Note_off_c, 9, 44, 80
10, 331200, Note_on_c, 9, 44, 95
10, 331200, Note_on_c, 9, 36, 79
10, 331320, Note_off_c, 9, 44, 80
10, 331320, Note_off_c, 9, 36, 80
10, 331320, Note_on_c, 9, 44, 31
10, 331440, Note_off_c, 9, 44, 80
10, 331440, Note_on_c, 9, 44, 63
10, 331560, Note_off_c, 9, 44, 80
10, 331560, Note_on_c, 9, 44, 79
10, 331680, Note_off_c, 9, 44, 80
10, 331680, Note_on_c, 9, 44, 95
10, 331680, Note_on_c, 9, 37, 95
10, 331800, Note_off_c, 9, 44, 80
10, 331800, Note_off_c, 9, 37, 80
10, 331800, Note_on_c, 9, 44, 31
10, 331920, Note_off_c, 9, 44, 80
10, 331920, Note_on_c, 9, 44, 63
10, 331920, Note_on_c, 9, 46, 95
10, 332040, Note_off_c, 9, 44, 80
10, 332040, Note_off_c, 9, 46, 80
10, 332040, Note_on_c, 9, 44, 79
10, 332160, Note_off_c, 9, 44, 80
10, 332160, Note_on_c, 9, 44, 95
10, 332280, Note_off_c, 9, 44, 80
10, 332280, Note_on_c, 9, 44, 31
10, 332400, Note_off_c, 9, 44, 80
10, 332400, Note_on_c, 9, 44, 63
10, 332520, Note_off_c, 9, 44, 80
10, 332520, Note_on_c, 9, 44, 79
10, 332520, Note_on_c, 9, 36, 95
10, 332640, Note_off_c, 9, 44, 80
10, 332640, Note_off_c, 9, 36, 80
10, 332640, Note_on_c, 9, 44, 95
10, 332640, Note_on_c, 9, 37, 95
10, 332640, Note_on_c, 9, 42, 95
10, 332760, Note_off_c, 9, 44, 80
10, 332760, Note_off_c, 9, 37, 80
10, 332760, Note_off_c, 9, 42, 80
10, 332760, Note_on_c, 9, 44, 31
10, 332880, Note_off_c, 9, 44, 80
10, 332880, Note_on_c, 9, 44, 63
10, 332880, Note_on_c, 9, 36, 95
10, 333000, Note_off_c, 9, 44, 80
10, 333000, Note_off_c, 9, 36, 80
10, 333000, Note_on_c, 9, 44, 79
10, 333120, Note_off_c, 9, 44, 80
10, 333120, Note_on_c, 9, 44, 95
10, 333120, Note_on_c, 9, 36, 95
10, 333240, Note_off_c, 9, 44, 80
10, 333240, Note_off_c, 9, 36, 80
10, 333240, Note_on_c, 9, 44, 31
10, 333360, Note_off_c, 9, 44, 80
10, 333360, Note_on_c, 9, 44, 63
10, 333480, Note_off_c, 9, 44, 80
10, 333480, Note_on_c, 9, 44, 79
10, 333600, Note_off_c, 9, 44, 80
10, 333600, Note_on_c, 9, 44, 95
10, 333600, Note_on_c, 9, 37, 95
10, 333720, Note_off_c, 9, 44, 80
10, 333720, Note_off_c, 9, 37, 80
10, 333720, Note_on_c, 9, 44, 31
10, 333840, Note_off_c, 9, 44, 80
10, 333840, Note_on_c, 9, 44, 63
10, 333840, Note_on_c, 9, 36, 95
10, 333960, Note_off_c, 9, 44, 80
10, 333960, Note_off_c, 9, 36, 80
10, 333960, Note_on_c, 9, 44, 79
10, 334080, Note_off_c, 9, 44, 80
10, 334080, Note_on_c, 9, 44, 95
10, 334200, Note_off_c, 9, 44, 80
10, 334200, Note_on_c, 9, 44, 31
10, 334320, Note_off_c, 9, 44, 80
10, 334320, Note_on_c, 9, 44, 63
10, 334440, Note_off_c, 9, 44, 80
10, 334440, Note_on_c, 9, 44, 79
10, 334560, Note_off_c, 9, 44, 80
10, 334560, Note_on_c, 9, 44, 95
10, 334560, Note_on_c, 9, 37, 95
10, 334680, Note_off_c, 9, 44, 80
10, 334680, Note_off_c, 9, 37, 80
10, 334680, Note_on_c, 9, 44, 31
10, 334800, Note_off_c, 9, 44, 80
10, 334800, Note_on_c, 9, 44, 63
10, 334920, Note_off_c, 9, 44, 80
10, 334920, Note_on_c, 9, 44, 79
10, 335040, Note_off_c, 9, 44, 80
10, 335040, Note_on_c, 9, 44, 95
10, 335040, Note_on_c, 9, 36, 79
10, 335160, Note_off_c, 9, 44, 80
10, 335160, Note_off_c, 9, 36, 80
10, 335160, Note_on_c, 9, 44, 31
10, 335280, Note_off_c, 9, 44, 80
10, 335280, Note_on_c, 9, 44, 63
10, 335400, Note_off_c, 9, 44, 80
10, 335400, Note_on_c, 9, 44, 79
10, 335520, Note_off_c, 9, 44, 80
10, 335520, Note_on_c, 9, 44, 95
10, 335520, Note_on_c, 9, 37, 95
10, 335640, Note_off_c, 9, 44, 80
10, 335640, Note_off_c, 9, 37, 80
10, 335640, Note_on_c, 9, 44, 31
10, 335760, Note_off_c, 9, 44, 80
10, 335760, Note_on_c, 9, 44, 63
10, 335760, Note_on_c, 9, 46, 95
10, 335880, Note_off_c, 9, 44, 80
10, 335880, Note_off_c, 9, 46, 80
10, 335880, Note_on_c, 9, 44, 79
10, 336000, Note_off_c, 9, 44, 80
10, 336000, Note_on_c, 9, 44, 95
10, 336120, Note_off_c, 9, 44, 80
10, 336120, Note_on_c, 9, 44, 31
10, 336240, Note_off_c, 9, 44, 80
10, 336240, Note_on_c, 9, 44, 63
10, 336360, Note_off_c, 9, 44, 80
10, 336360, Note_on_c, 9, 44, 79
10, 336360, Note_on_c, 9, 36, 95
10, 336480, Note_off_c, 9, 44, 80
10, 336480, Note_off_c, 9, 36, 80
10, 336480, Note_on_c, 9, 44, 95
10, 336480, Note_on_c, 9, 37, 95
10, 336480, Note_on_c, 9, 42, 95
10, 336600, Note_off_c, 9, 44, 80
10, 336600, Note_off_c, 9, 37, 80
10, 336600, Note_off_c, 9, 42, 80
10, 336600, Note_on_c, 9, 44, 31
10, 336720, Note_off_c, 9, 44, 80
10, 336720, Note_on_c, 9, 44, 63
10, 336720, Note_on_c, 9, 36, 95
10, 336840, Note_off_c, 9, 44, 80
10, 336840, Note_off_c, 9, 36, 80
10, 336840, Note_on_c, 9, 44, 79
10, 336960, Note_off_c, 9, 44, 80
10, 336960, Note_on_c, 9, 44, 95
10, 336960, Note_on_c, 9, 36, 95
10, 337080, Note_off_c, 9, 44, 80
10, 337080, Note_off_c, 9, 36, 80
10, 337080, Note_on_c, 9, 44, 31
10, 337200, Note_off_c, 9, 44, 80
10, 337200, Note_on_c, 9, 44, 63
10, 337320, Note_off_c, 9, 44, 80
10, 337320, Note_on_c, 9, 44, 79
10, 337440, Note_off_c, 9, 44, 80
10, 337440, Note_on_c, 9, 44, 95
10, 337440, Note_on_c, 9, 37, 95
10, 337560, Note_off_c, 9, 44, 80
10, 337560, Note_off_c, 9, 37, 80
10, 337560, Note_on_c, 9, 44, 31
10, 337680, Note_off_c, 9, 44, 80
10, 337680, Note_on_c, 9, 44, 63
10, 337680, Note_on_c, 9, 36, 95
10, 337800, Note_off_c, 9, 44, 80
10, 337800, Note_off_c, 9, 36, 80
10, 337800, Note_on_c, 9, 44, 79
10, 337920, Note_off_c, 9, 44, 80
10, 337920, Note_on_c, 9, 44, 95
10, 338040, Note_off_c, 9, 44, 80
10, 338040, Note_on_c, 9, 44, 31
10, 338160, Note_off_c, 9, 44, 80
10, 338160, Note_on_c, 9, 44, 63
10, 338280, Note_off_c, 9, 44, 80
10, 338280, Note_on_c, 9, 44, 79
10, 338400, Note_off_c, 9, 44, 80
10, 338400, Note_on_c, 9, 44, 95
10, 338400, Note_on_c, 9, 37, 95
10, 338520, Note_off_c, 9, 44, 80
10, 338520, Note_off_c, 9, 37, 80
10, 338520, Note_on_c, 9, 44, 31
10, 338640, Note_off_c, 9, 44, 80
10, 338640, Note_on_c, 9, 44, 63
10, 338760, Note_off_c, 9, 44, 80
10, 338760, Note_on_c, 9, 44, 79
10, 338880, Note_off_c, 9, 44, 80
10, 338880, Control_c, 9, 7, 120
10, 338880, Note_on_c, 9, 44, 95
10, 338880, Note_on_c, 9, 36, 79
10, 339000, Note_off_c, 9, 44, 80
10, 339000, Note_off_c, 9, 36, 80
10, 339000, Note_on_c, 9, 44, 31
10, 339120, Note_off_c, 9, 44, 80
10, 339120, Note_on_c, 9, 44, 63
10, 339240, Note_off_c, 9, 44, 80
10, 339240, Note_on_c, 9, 44, 79
10, 339360, Note_off_c, 9, 44, 80
10, 339360, Note_on_c, 9, 44, 95
10, 339360, Note_on_c, 9, 37, 95
10, 339480, Note_off_c, 9, 44, 80
10, 339480, Note_off_c, 9, 37, 80
10, 339480, Note_on_c, 9, 44, 31
10, 339600, Note_off_c, 9, 44, 80
10, 339600, Note_on_c, 9, 44, 63
10, 339600, Note_on_c, 9, 46, 95
10, 339720, Note_off_c, 9, 44, 80
10, 339720, Note_off_c, 9, 46, 80
10, 339720, Note_on_c, 9, 44, 79
10, 339840, Note_off_c, 9, 44, 80
10, 339840, Control_c, 9, 7, 112
10, 339840, Note_on_c, 9, 44, 95
10, 339960, Note_off_c, 9, 44, 80
10, 339960, Note_on_c, 9, 44, 31
10, 340080, Note_off_c, 9, 44, 80
10, 340080, Note_on_c, 9, 44, 63
10, 340200, Note_off_c, 9, 44, 80
10, 340200, Note_on_c, 9, 44, 79
10, 340200, Note_on_c, 9, 36, 95
10, 340320, Note_off_c, 9, 44, 80
10, 340320, Note_off_c, 9, 36, 80
10, 340320, Note_on_c, 9, 44, 95
10, 340320, Note_on_c, 9, 37, 95
10, 340320, Note_on_c, 9, 42, 95
10, 340440, Note_off_c, 9, 44, 80
10, 340440, Note_off_c, 9, 37, 80
10, 340440, Note_off_c, 9, 42, 80
10, 340440, Note_on_c, 9, 44, 31
10, 340560, Note_off_c, 9, 44, 80
10, 340560, Note_on_c, 9, 44, 63
10, 340560, Note_on_c, 9, 36, 95
10, 340680, Note_off_c, 9, 44, 80
10, 340680, Note_off_c, 9, 36, 80
10, 340680, Note_on_c, 9, 44, 79
10, 340800, Note_off_c, 9, 44, 80
10, 340800, Control_c, 9, 7, 104
10, 340800, Note_on_c, 9, 44, 95
10, 340800, Note_on_c, 9, 36, 95
10, 340920, Note_off_c, 9, 44, 80
10, 340920, Note_off_c, 9, 36, 80
10, 340920, Note_on_c, 9, 44, 31
10, 341040, Note_off_c, 9, 44, 80
10, 341040, Note_on_c, 9, 44, 63
10, 341160, Note_off_c, 9, 44, 80
10, 341160, Note_on_c, 9, 44, 79
10, 341280, Note_off_c, 9, 44, 80
10, 341280, Note_on_c, 9, 44, 95
10, 341280, Note_on_c, 9, 37, 95
10, 341400, Note_off_c, 9, 44, 80
10, 341400, Note_off_c, 9, 37, 80
10, 341400, Note_on_c, 9, 44, 31
10, 341520, Note_off_c, 9, 44, 80
10, 341520, Note_on_c, 9, 44, 63
10, 341520, Note_on_c, 9, 36, 95
10, 341640, Note_off_c, 9, 44, 80
10, 341640, Note_off_c, 9, 36, 80
10, 341640, Note_on_c, 9, 44, 79
10, 341760, Note_off_c, 9, 44, 80
10, 341760, Control_c, 9, 7, 96
10, 341760, Note_on_c, 9, 44, 95
10, 341880, Note_off_c, 9, 44, 80
10, 341880, Note_on_c, 9, 44, 31
10, 342000, Note_off_c, 9, 44, 80
10, 342000, Note_on_c, 9, 44, 63
10, 342120, Note_off_c, 9, 44, 80
10, 342120, Note_on_c, 9, 44, 79
10, 342240, Note_off_c, 9, 44, 80
10, 342240, Note_on_c, 9, 44, 95
10, 342240, Note_on_c, 9, 37, 95
10, 342360, Note_off_c, 9, 44, 80
10, 342360, Note_off_c, 9, 37, 80
10, 342360, Note_on_c, 9, 44, 31
10, 342480, Note_off_c, 9, 44, 80
10, 342480, Note_on_c, 9, 44, 63
10, 342600, Note_off_c, 9, 44, 80
10, 342600, Note_on_c, 9, 44, 79
10, 342720, Note_off_c, 9, 44, 80
10, 342720, Control_c, 9, 7, 88
10, 342720, Note_on_c, 9, 44, 95
10, 342720, Note_on_c, 9, 36, 79
10, 342840, Note_off_c, 9, 44, 80
10, 342840, Note_off_c, 9, 36, 80
10, 342840, Note_on_c, 9, 44, 31
10, 342960, Note_off_c, 9, 44, 80
10, 342960, Note_on_c, 9, 44, 63
10, 343080, Note_off_c, 9, 44, 80
10, 343080, Note_on_c, 9, 44, 79
10, 343200, Note_off_c, 9, 44, 80
10, 343200, Note_on_c, 9, 44, 95
10, 343200, Note_on_c, 9, 37, 95
10, 343320, Note_off_c, 9, 44, 80
10, 343320, Note_off_c, 9, 37, 80
10, 343320, Note_on_c, 9, 44, 31
10, 343440, Note_off_c, 9, 44, 80
10, 343440, Note_on_c, 9, 44, 63
10, 343440, Note_on_c, 9, 46, 95
10, 343560, Note_off_c, 9, 44, 80
10, 343560, Note_off_c, 9, 46, 80
10, 343560, Note_on_c, 9, 44, 79
10, 343680, Note_off_c, 9, 44, 80
10, 343680, Control_c, 9, 7, 80
10, 343680, Note_on_c, 9, 44, 95
10, 343680, Note_on_c, 9, 52, 95
10, 343800, Note_off_c, 9, 44, 80
10, 343800, Note_off_c, 9, 52, 80
10, 343800, Note_on_c, 9, 44, 31
10, 343920, Note_off_c, 9, 44, 80
10, 343920, Note_on_c, 9, 44, 63
10, 344040, Note_off_c, 9, 44, 80
10, 344040, Note_on_c, 9, 44, 79
10, 344040, Note_on_c, 9, 36, 95
10, 344160, Note_off_c, 9, 44, 80
10, 344160, Note_off_c, 9, 36, 80
10, 344160, Note_on_c, 9, 44, 95
10, 344160, Note_on_c, 9, 37, 95
10, 344160, Note_on_c, 9, 42, 95
10, 344280, Note_off_c, 9, 44, 80
10, 344280, Note_off_c, 9, 37, 80
10, 344280, Note_off_c, 9, 42, 80
10, 344280, Note_on_c, 9, 44, 31
10, 344400, Note_off_c, 9, 44, 80
10, 344400, Note_on_c, 9, 44, 63
10, 344400, Note_on_c, 9, 36, 95
10, 344520, Note_off_c, 9, 44, 80
10, 344520, Note_off_c, 9, 36, 80
10, 344520, Note_on_c, 9, 44, 79
10, 344640, Note_off_c, 9, 44, 80
10, 344640, Control_c, 9, 7, 72
10, 344640, Note_on_c, 9, 44, 95
10, 344640, Note_on_c, 9, 36, 95
10, 344760, Note_off_c, 9, 44, 80
10, 344760, Note_off_c, 9, 36, 80
10, 344760, Note_on_c, 9, 44, 31
10, 344880, Note_off_c, 9, 44, 80
10, 344880, Note_on_c, 9, 44, 63
10, 345000, Note_off_c, 9, 44, 80
10, 345000, Note_on_c, 9, 44, 79
10, 345120, Note_off_c, 9, 44, 80
10, 345120, Note_on_c, 9, 44, 95
10, 345120, Note_on_c, 9, 37, 95
10, 345240, Note_off_c, 9, 44, 80
10, 345240, Note_off_c, 9, 37, 80
10, 345240, Note_on_c, 9, 44, 31
10, 345360, Note_off_c, 9, 44, 80
10, 345360, Note_on_c, 9, 44, 63
10, 345360, Note_on_c, 9, 36, 95
10, 345480, Note_off_c, 9, 44, 80
10, 345480, Note_off_c, 9, 36, 80
10, 345480, Note_on_c, 9, 44, 79
10, 345600, Note_off_c, 9, 44, 80
10, 345600, Control_c, 9, 7, 64
10, 345600, Note_on_c, 9, 44, 95
10, 345720, Note_off_c, 9, 44, 80
10, 345720, Note_on_c, 9, 44, 31
10, 345840, Note_off_c, 9, 44, 80
10, 345840, Note_on_c, 9, 44, 63
10, 345960, Note_off_c, 9, 44, 80
10, 345960, Note_on_c, 9, 44, 79
10, 346080, Note_off_c, 9, 44, 80
10, 346080, Note_on_c, 9, 44, 95
10, 346080, Note_on_c, 9, 37, 95
10, 346200, Note_off_c, 9, 44, 80
10, 346200, Note_off_c, 9, 37, 80
10, 346200, Note_on_c, 9, 44, 31
10, 346320, Note_off_c, 9, 44, 80
10, 346320, Note_on_c, 9, 44, 63
10, 346440, Note_off_c, 9, 44, 80
10, 346440, Note_on_c, 9, 44, 79
10, 346560, Note_off_c, 9, 44, 80
10, 346560, Control_c, 9, 7, 56
10, 346560, Note_on_c, 9, 44, 95
10, 346560, Note_on_c, 9, 36, 79
10, 346680, Note_off_c, 9, 44, 80
10, 346680, Note_off_c, 9, 36, 80
10, 346680, Note_on_c, 9, 44, 31
10, 346800, Note_off_c, 9, 44, 80
10, 346800, Note_on_c, 9, 44, 63
10, 346920, Note_off_c, 9, 44, 80
10, 346920, Note_on_c, 9, 44, 79
10, 347040, Note_off_c, 9, 44, 80
10, 347040, Note_on_c, 9, 44, 95
10, 347040, Note_on_c, 9, 37, 95
10, 347160, Note_off_c, 9, 44, 80
10, 347160, Note_off_c, 9, 37, 80
10, 347160, Note_on_c, 9, 44, 31
10, 347280, Note_off_c, 9, 44, 80
10, 347280, Note_on_c, 9, 44, 63
10, 347280, Note_on_c, 9, 46, 95
10, 347400, Note_off_c, 9, 44, 80
10, 347400, Note_off_c, 9, 46, 80
10, 347400, Note_on_c, 9, 44, 79
10, 347520, Note_off_c, 9, 44, 80
10, 347520, Control_c, 9, 7, 48
10, 347520, Note_on_c, 9, 44, 95
10, 347640, Note_off_c, 9, 44, 80
10, 347640, Note_on_c, 9, 44, 31
10, 347760, Note_off_c, 9, 44, 80
10, 347760, Note_on_c, 9, 44, 63
10, 347880, Note_off_c, 9, 44, 80
10, 347880, Note_on_c, 9, 44, 79
10, 347880, Note_on_c, 9, 36, 95
10, 348000, Note_off_c, 9, 44, 80
10, 348000, Note_off_c, 9, 36, 80
10, 348000, Note_on_c, 9, 44, 95
10, 348000, Note_on_c, 9, 37, 95
10, 348000, Note_on_c, 9, 42, 95
10, 348120, Note_off_c, 9, 44, 80
10, 348120, Note_off_c, 9, 37, 80
10, 348120, Note_off_c, 9, 42, 80
10, 348120, Note_on_c, 9, 44, 31
10, 348240, Note_off_c, 9, 44, 80
10, 348240, Note_on_c, 9, 44, 63
10, 348240, Note_on_c, 9, 36, 95
10, 348360, Note_off_c, 9, 44, 80
10, 348360, Note_off_c, 9, 36, 80
10, 348360, Note_on_c, 9, 44, 79
10, 348480, Note_off_c, 9, 44, 80
10, 348480, Control_c, 9, 7, 40
10, 348480, Note_on_c, 9, 44, 95
10, 348480, Note_on_c, 9, 36, 95
10, 348600, Note_off_c, 9, 44, 80
10, 348600, Note_off_c, 9, 36, 80
10, 348600, Note_on_c, 9, 44, 31
10, 348720, Note_off_c, 9, 44, 80
10, 348720, Note_on_c, 9, 44, 63
10, 348840, Note_off_c, 9, 44, 80
10, 348840, Note_on_c, 9, 44, 79
10, 348960, Note_off_c, 9, 44, 80
10, 348960, Note_on_c, 9, 44, 95
10, 348960, Note_on_c, 9, 37, 95
10, 349080, Note_off_c, 9, 44, 80
10, 349080, Note_off_c, 9, 37, 80
10, 349080, Note_on_c, 9, 44, 31
10, 349200, Note_off_c, 9, 44, 80
10, 349200, Note_on_c, 9, 44, 63
10, 349200, Note_on_c, 9, 36, 95
10, 349320, Note_off_c, 9, 44, 80
10, 349320, Note_off_c, 9, 36, 80
10, 349320, Note_on_c, 9, 44, 79
10, 349440, Note_off_c, 9, 44, 80
10, 349440, Control_c, 9, 7, 32
10, 349440, Note_on_c, 9, 44, 95
10, 349560, Note_off_c, 9, 44, 80
10, 349560, Note_on_c, 9, 44, 31
10, 349680, Note_off_c, 9, 44, 80
10, 349680, Note_on_c, 9, 44, 63
10, 349800, Note_off_c, 9, 44, 80
10, 349800, Note_on_c, 9, 44, 79
10, 349920, Note_off_c, 9, 44, 80
10, 349920, Note_on_c, 9, 44, 95
10, 349920, Note_on_c, 9, 37, 95
10, 350040, Note_off_c, 9, 44, 80
10, 350040, Note_off_c, 9, 37, 80
10, 350040, Note_on_c, 9, 44, 31
10, 350160, Note_off_c, 9, 44, 80
10, 350160, Note_on_c, 9, 44, 63
10, 350280, Note_off_c, 9, 44, 80
10, 350280, Note_on_c, 9, 44, 79
10, 350400, Note_off_c, 9, 44, 80
10, 350400, Control_c, 9, 7, 24
10, 350400, Note_on_c, 9, 44, 95
10, 350400, Note_on_c, 9, 36, 79
10, 350520, Note_off_c, 9, 44, 80
10, 350520, Note_off_c, 9, 36, 80
10, 350520, Note_on_c, 9, 44, 31
10, 350640, Note_off_c, 9, 44, 80
10, 350640, Note_on_c, 9, 44, 63
10, 350760, Note_off_c, 9, 44, 80
10, 350760, Note_on_c, 9, 44, 79
10, 350880, Note_off_c, 9, 44, 80
10, 350880, Note_on_c, 9, 44, 95
10, 350880, Note_on_c, 9, 37, 95
10, 351000, Note_off_c, 9, 44, 80
10, 351000, Note_off_c, 9, 37, 80
10, 351000, Note_on_c, 9, 44, 31
10, 351120, Note_off_c, 9, 44, 80
10, 351120, Note_on_c, 9, 44, 63
10, 351120, Note_on_c, 9, 46, 95
10, 351240, Note_off_c, 9, 44, 80
10, 351240, Note_off_c, 9, 46, 80
10, 351240, Note_on_c, 9, 44, 79
10, 351360, Note_off_c, 9, 44, 80
10, 351360, Control_c, 9, 7, 16
10, 351360, Note_on_c, 9, 44, 95
10, 351480, Note_off_c, 9, 44, 80
10, 351480, Note_on_c, 9, 44, 31
10, 351600, Note_off_c, 9, 44, 80
10, 351600, Note_on_c, 9, 44, 63
10, 351720, Note_off_c, 9, 44, 80
10, 351720, Note_on_c, 9, 44, 79
10, 351720, Note_on_c, 9, 36, 95
10, 351840, Note_off_c, 9, 44, 80
10, 351840, Note_off_c, 9, 36, 80
10, 351840, Note_on_c, 9, 44, 95
10, 351840, Note_on_c, 9, 37, 95
10, 351840, Note_on_c, 9, 42, 95
10, 351960, Note_off_c, 9, 44, 80
10, 351960, Note_off_c, 9, 37, 80
10, 351960, Note_off_c, 9, 42, 80
10, 351960, Note_on_c, 9, 44, 31
10, 352080, Note_off_c, 9, 44, 80
10, 352080, Note_on_c, 9, 44, 63
10, 352080, Note_on_c, 9, 36, 95
10, 352200, Note_off_c, 9, 44, 80
10, 352200, Note_off_c, 9, 36, 80
10, 352200, Note_on_c, 9, 44, 79
10, 352320, Note_off_c, 9, 44, 80
10, 352320, Control_c, 9, 7, 8
10, 352320, Note_on_c, 9, 44, 95
10, 352320, Note_on_c, 9, 36, 95
10, 352440, Note_off_c, 9, 44, 80
10, 352440, Note_off_c, 9, 36, 80
10, 352440, Note_on_c, 9, 44, 31
10, 352560, Note_off_c, 9, 44, 80
10, 352560, Note_on_c, 9, 44, 63
10, 352680, Note_off_c, 9, 44, 80
10, 352680, Note_on_c, 9, 44, 79
10, 352800, Note_off_c, 9, 44, 80
10, 352800, Note_on_c, 9, 44, 95
10, 352800, Note_on_c, 9, 37, 95
10, 352920, Note_off_c, 9, 44, 80
10, 352920, Note_off_c, 9, 37, 80
10, 352920, Note_on_c, 9, 44, 31
10, 353040, Note_off_c, 9, 44, 80
10, 353040, Note_on_c, 9, 44, 63
10, 353040, Note_on_c, 9, 36, 95
10, 353160, Note_off_c, 9, 44, 80
10, 353160, Note_off_c, 9, 36, 80
10, 353160, Note_on_c, 9, 44, 79
10, 353280, Note_off_c, 9, 44, 80
10, 353280, End_track
0, 0, End_of_file
