0, 0, Header, 1, 8, 480
1, 0, Start_track
1, 0, Title_t, "Dharma for One - Tull"
1, 0, Text_t, "soundtrek4@earthlink.net\012"
1, 0, MIDI_port, 0
1, 0, System_exclusive, 5, 126, 127, 9, 1, 247
1, 0, MIDI_port, 0
1, 0, System_exclusive, 10, 65, 16, 66, 18, 64, 0, 127, 0, 65, 247
1, 0, MIDI_port, 0
1, 0, Time_signature, 4, 2, 24, 8
1, 0, Key_signature, 0, "major"
1, 0, Tempo, 545455
1, 5760, Time_signature, 3, 2, 24, 8
1, 12960, Tempo, 571429
1, 14400, Tempo, 600000
1, 17280, Time_signature, 4, 2, 24, 8
1, 17280, Tempo, 545455
1, 94080, Time_signature, 6, 3, 12, 8
1, 94080, Tempo, 571429
1, 101280, Time_signature, 3, 3, 12, 8
1, 102000, Time_signature, 4, 2, 24, 8
1, 105840, Tempo, 545455
1, 105840, End_track
2, 0, Start_track
2, 0, MIDI_port, 0
2, 0, Title_t, "PAN FLUTE"
2, 482, Program_c, 0, 75
2, 483, Control_c, 0, 10, 64
2, 21120, Note_on_c, 0, 69, 127
2, 21210, Note_on_c, 0, 69, 0
2, 21240, Note_on_c, 0, 69, 127
2, 21330, Note_on_c, 0, 69, 0
2, 21360, Note_on_c, 0, 69, 127
2, 21540, Note_on_c, 0, 69, 0
2, 21840, Note_on_c, 0, 62, 127
2, 22020, Note_on_c, 0, 62, 0
2, 22080, Note_on_c, 0, 69, 127
2, 22170, Note_on_c, 0, 69, 0
2, 22200, Note_on_c, 0, 69, 127
2, 22290, Note_on_c, 0, 69, 0
2, 22320, Note_on_c, 0, 69, 127
2, 22500, Note_on_c, 0, 69, 0
2, 22800, Note_on_c, 0, 62, 127
2, 22980, Note_on_c, 0, 62, 0
2, 23040, Note_on_c, 0, 69, 127
2, 23130, Note_on_c, 0, 69, 0
2, 23160, Note_on_c, 0, 69, 127
2, 23250, Note_on_c, 0, 69, 0
2, 23280, Note_on_c, 0, 69, 127
2, 23460, Note_on_c, 0, 69, 0
2, 23760, Note_on_c, 0, 67, 127
2, 23850, Note_on_c, 0, 67, 0
2, 23880, Note_on_c, 0, 65, 127
2, 23970, Note_on_c, 0, 65, 0
2, 24000, Note_on_c, 0, 67, 127
2, 24180, Note_on_c, 0, 67, 0
2, 24240, Note_on_c, 0, 65, 127
2, 24330, Note_on_c, 0, 65, 0
2, 24360, Note_on_c, 0, 64, 127
2, 24450, Note_on_c, 0, 64, 0
2, 24480, Note_on_c, 0, 65, 127
2, 24660, Note_on_c, 0, 65, 0
2, 24720, Note_on_c, 0, 63, 127
2, 24900, Note_on_c, 0, 63, 0
2, 24960, Note_on_c, 0, 62, 127
2, 25050, Note_on_c, 0, 62, 0
2, 25080, Note_on_c, 0, 62, 127
2, 25170, Note_on_c, 0, 62, 0
2, 25200, Note_on_c, 0, 62, 127
2, 25380, Note_on_c, 0, 62, 0
2, 25680, Note_on_c, 0, 62, 127
2, 25860, Note_on_c, 0, 62, 0
2, 25920, Note_on_c, 0, 69, 127
2, 26010, Note_on_c, 0, 69, 0
2, 26040, Note_on_c, 0, 69, 127
2, 26130, Note_on_c, 0, 69, 0
2, 26160, Note_on_c, 0, 69, 127
2, 26340, Note_on_c, 0, 69, 0
2, 26640, Note_on_c, 0, 62, 127
2, 26820, Note_on_c, 0, 62, 0
2, 26880, Note_on_c, 0, 69, 127
2, 26970, Note_on_c, 0, 69, 0
2, 27000, Note_on_c, 0, 69, 127
2, 27090, Note_on_c, 0, 69, 0
2, 27120, Note_on_c, 0, 69, 127
2, 27300, Note_on_c, 0, 69, 0
2, 27600, Note_on_c, 0, 67, 127
2, 27690, Note_on_c, 0, 67, 0
2, 27720, Note_on_c, 0, 65, 127
2, 27810, Note_on_c, 0, 65, 0
2, 27840, Note_on_c, 0, 67, 127
2, 28020, Note_on_c, 0, 67, 0
2, 28080, Note_on_c, 0, 65, 127
2, 28170, Note_on_c, 0, 65, 0
2, 28200, Note_on_c, 0, 64, 127
2, 28290, Note_on_c, 0, 64, 0
2, 28320, Note_on_c, 0, 65, 127
2, 28500, Note_on_c, 0, 65, 0
2, 28560, Note_on_c, 0, 63, 127
2, 28740, Note_on_c, 0, 63, 0
2, 28800, Note_on_c, 0, 62, 127
2, 29220, Note_on_c, 0, 62, 0
2, 29520, Note_on_c, 0, 62, 127
2, 29700, Note_on_c, 0, 62, 0
2, 29760, Note_on_c, 0, 69, 127
2, 29850, Note_on_c, 0, 69, 0
2, 29880, Note_on_c, 0, 69, 127
2, 29970, Note_on_c, 0, 69, 0
2, 30000, Note_on_c, 0, 69, 127
2, 30180, Note_on_c, 0, 69, 0
2, 30480, Note_on_c, 0, 62, 127
2, 30660, Note_on_c, 0, 62, 0
2, 30720, Note_on_c, 0, 69, 127
2, 30810, Note_on_c, 0, 69, 0
2, 30840, Note_on_c, 0, 69, 127
2, 30930, Note_on_c, 0, 69, 0
2, 30960, Note_on_c, 0, 69, 127
2, 31140, Note_on_c, 0, 69, 0
2, 31440, Note_on_c, 0, 67, 127
2, 31530, Note_on_c, 0, 67, 0
2, 31560, Note_on_c, 0, 65, 127
2, 31650, Note_on_c, 0, 65, 0
2, 31680, Note_on_c, 0, 67, 127
2, 31860, Note_on_c, 0, 67, 0
2, 31920, Note_on_c, 0, 65, 127
2, 32010, Note_on_c, 0, 65, 0
2, 32040, Note_on_c, 0, 64, 127
2, 32130, Note_on_c, 0, 64, 0
2, 32160, Note_on_c, 0, 65, 127
2, 32340, Note_on_c, 0, 65, 0
2, 32400, Note_on_c, 0, 63, 127
2, 32580, Note_on_c, 0, 63, 0
2, 32640, Note_on_c, 0, 62, 127
2, 32730, Note_on_c, 0, 62, 0
2, 32760, Note_on_c, 0, 62, 127
2, 32850, Note_on_c, 0, 62, 0
2, 32880, Note_on_c, 0, 62, 127
2, 33060, Note_on_c, 0, 62, 0
2, 33360, Note_on_c, 0, 62, 127
2, 33540, Note_on_c, 0, 62, 0
2, 33600, Note_on_c, 0, 69, 127
2, 33690, Note_on_c, 0, 69, 0
2, 33720, Note_on_c, 0, 69, 127
2, 33810, Note_on_c, 0, 69, 0
2, 33840, Note_on_c, 0, 69, 127
2, 34020, Note_on_c, 0, 69, 0
2, 34320, Note_on_c, 0, 62, 127
2, 34500, Note_on_c, 0, 62, 0
2, 34560, Note_on_c, 0, 69, 127
2, 34650, Note_on_c, 0, 69, 0
2, 34680, Note_on_c, 0, 69, 127
2, 34770, Note_on_c, 0, 69, 0
2, 34800, Note_on_c, 0, 69, 127
2, 34980, Note_on_c, 0, 69, 0
2, 35280, Note_on_c, 0, 67, 127
2, 35370, Note_on_c, 0, 67, 0
2, 35400, Note_on_c, 0, 65, 127
2, 35490, Note_on_c, 0, 65, 0
2, 35520, Note_on_c, 0, 67, 127
2, 35700, Note_on_c, 0, 67, 0
2, 35760, Note_on_c, 0, 65, 127
2, 35940, Note_on_c, 0, 65, 0
2, 36480, Note_on_c, 0, 69, 127
2, 37012, Note_on_c, 0, 69, 0
2, 37200, Note_on_c, 0, 72, 127
2, 37440, Note_on_c, 0, 72, 0
2, 37674, Note_on_c, 0, 74, 127
2, 38304, Note_on_c, 0, 74, 0
2, 39360, Note_on_c, 0, 75, 127
2, 39504, Note_on_c, 0, 75, 0
2, 39680, Note_on_c, 0, 74, 127
2, 39812, Note_on_c, 0, 74, 0
2, 40012, Note_on_c, 0, 72, 127
2, 40224, Note_on_c, 0, 72, 0
2, 40320, Note_on_c, 0, 74, 127
2, 40980, Note_on_c, 0, 74, 0
2, 41040, Note_on_c, 0, 74, 127
2, 41212, Note_on_c, 0, 74, 0
2, 41280, Note_on_c, 0, 77, 127
2, 41760, Note_on_c, 0, 77, 0
2, 41760, Note_on_c, 0, 74, 127
2, 41920, Note_on_c, 0, 74, 0
2, 42000, Note_on_c, 0, 76, 127
2, 42660, Note_on_c, 0, 76, 0
2, 43200, Note_on_c, 0, 76, 127
2, 43320, Note_on_c, 0, 76, 0
2, 43520, Note_on_c, 0, 74, 127
2, 43680, Note_on_c, 0, 74, 0
2, 43908, Note_on_c, 0, 72, 127
2, 44118, Note_on_c, 0, 72, 0
2, 44160, Note_on_c, 0, 74, 127
2, 44820, Note_on_c, 0, 74, 0
2, 44880, Note_on_c, 0, 74, 127
2, 45120, Note_on_c, 0, 74, 0
2, 45120, Note_on_c, 0, 77, 127
2, 45600, Note_on_c, 0, 77, 0
2, 45600, Note_on_c, 0, 74, 127
2, 45744, Note_on_c, 0, 74, 0
2, 45840, Note_on_c, 0, 76, 127
2, 46320, Note_on_c, 0, 76, 0
2, 48000, Note_on_c, 0, 76, 127
2, 48132, Note_on_c, 0, 76, 0
2, 48240, Note_on_c, 0, 77, 127
2, 48660, Note_on_c, 0, 77, 0
2, 48720, Note_on_c, 0, 76, 127
2, 48960, Note_on_c, 0, 76, 0
2, 49200, Note_on_c, 0, 74, 127
2, 49520, Note_on_c, 0, 74, 0
2, 49680, Note_on_c, 0, 72, 127
2, 50012, Note_on_c, 0, 72, 0
2, 50160, Note_on_c, 0, 74, 127
2, 51300, Note_on_c, 0, 74, 0
2, 55680, Note_on_c, 0, 69, 127
2, 56340, Note_on_c, 0, 69, 0
2, 56428, Note_on_c, 0, 72, 127
2, 56672, Note_on_c, 0, 72, 0
2, 56890, Note_on_c, 0, 74, 127
2, 57520, Note_on_c, 0, 74, 0
2, 58560, Note_on_c, 0, 75, 127
2, 58660, Note_on_c, 0, 75, 0
2, 58880, Note_on_c, 0, 74, 127
2, 58964, Note_on_c, 0, 74, 0
2, 59200, Note_on_c, 0, 72, 127
2, 59352, Note_on_c, 0, 72, 0
2, 59520, Note_on_c, 0, 74, 127
2, 60180, Note_on_c, 0, 74, 0
2, 60240, Note_on_c, 0, 74, 127
2, 60380, Note_on_c, 0, 74, 0
2, 60480, Note_on_c, 0, 77, 127
2, 60960, Note_on_c, 0, 77, 0
2, 60960, Note_on_c, 0, 74, 127
2, 61124, Note_on_c, 0, 74, 0
2, 61200, Note_on_c, 0, 76, 127
2, 61860, Note_on_c, 0, 76, 0
2, 62160, Note_on_c, 0, 74, 127
2, 62264, Note_on_c, 0, 74, 0
2, 62400, Note_on_c, 0, 74, 127
2, 62560, Note_on_c, 0, 74, 0
2, 62720, Note_on_c, 0, 74, 127
2, 62824, Note_on_c, 0, 74, 0
2, 63040, Note_on_c, 0, 72, 127
2, 63220, Note_on_c, 0, 72, 0
2, 63360, Note_on_c, 0, 74, 127
2, 64020, Note_on_c, 0, 74, 0
2, 64080, Note_on_c, 0, 74, 127
2, 64260, Note_on_c, 0, 74, 0
2, 64320, Note_on_c, 0, 77, 127
2, 64800, Note_on_c, 0, 74, 127
2, 64830, Note_on_c, 0, 77, 0
2, 65000, Note_on_c, 0, 74, 0
2, 65040, Note_on_c, 0, 76, 127
2, 65700, Note_on_c, 0, 76, 0
2, 67200, Note_on_c, 0, 76, 127
2, 67384, Note_on_c, 0, 76, 0
2, 67440, Note_on_c, 0, 77, 127
2, 67800, Note_on_c, 0, 77, 0
2, 67920, Note_on_c, 0, 76, 127
2, 68400, Note_on_c, 0, 76, 0
2, 68400, Note_on_c, 0, 74, 127
2, 68880, Note_on_c, 0, 74, 0
2, 68880, Note_on_c, 0, 72, 127
2, 69292, Note_on_c, 0, 72, 0
2, 69360, Note_on_c, 0, 74, 127
2, 70560, Note_on_c, 0, 74, 0
2, 70560, Note_on_c, 0, 75, 127
2, 70980, Note_on_c, 0, 75, 0
2, 72480, Note_on_c, 0, 72, 127
2, 72570, Note_on_c, 0, 72, 0
2, 72600, Note_on_c, 0, 72, 127
2, 72780, Note_on_c, 0, 72, 0
2, 72864, Note_on_c, 0, 72, 127
2, 73380, Note_on_c, 0, 72, 0
2, 73412, Note_on_c, 0, 74, 127
2, 73832, Note_on_c, 0, 74, 0
2, 77760, Note_on_c, 0, 69, 127
2, 77940, Note_on_c, 0, 69, 0
2, 78080, Note_on_c, 0, 74, 127
2, 78260, Note_on_c, 0, 74, 0
2, 78400, Note_on_c, 0, 77, 127
2, 78580, Note_on_c, 0, 77, 0
2, 78720, Note_on_c, 0, 76, 127
2, 79380, Note_on_c, 0, 76, 0
2, 79440, Note_on_c, 0, 76, 127
2, 79620, Note_on_c, 0, 76, 0
2, 79932, Note_on_c, 0, 76, 127
2, 80036, Note_on_c, 0, 76, 0
2, 80160, Note_on_c, 0, 76, 127
2, 80820, Note_on_c, 0, 76, 0
2, 80850, Note_on_c, 0, 74, 127
2, 80970, Note_on_c, 0, 74, 0
2, 80970, Note_on_c, 0, 76, 127
2, 81120, Note_on_c, 0, 76, 0
2, 81120, Note_on_c, 0, 77, 127
2, 81300, Note_on_c, 0, 77, 0
2, 81600, Note_on_c, 0, 69, 127
2, 81780, Note_on_c, 0, 69, 0
2, 81920, Note_on_c, 0, 74, 127
2, 82100, Note_on_c, 0, 74, 0
2, 82240, Note_on_c, 0, 77, 127
2, 82420, Note_on_c, 0, 77, 0
2, 82560, Note_on_c, 0, 76, 127
2, 83220, Note_on_c, 0, 76, 0
2, 83280, Note_on_c, 0, 76, 127
2, 83460, Note_on_c, 0, 76, 0
2, 83760, Note_on_c, 0, 76, 127
2, 83940, Note_on_c, 0, 76, 0
2, 84000, Note_on_c, 0, 76, 127
2, 84690, Note_on_c, 0, 76, 0
2, 84690, Note_on_c, 0, 77, 127
2, 84810, Note_on_c, 0, 77, 0
2, 84810, Note_on_c, 0, 76, 127
2, 84960, Note_on_c, 0, 76, 0
2, 84960, Note_on_c, 0, 74, 127
2, 85140, Note_on_c, 0, 74, 0
2, 85440, Note_on_c, 0, 69, 127
2, 85620, Note_on_c, 0, 69, 0
2, 85760, Note_on_c, 0, 74, 127
2, 85940, Note_on_c, 0, 74, 0
2, 86080, Note_on_c, 0, 77, 127
2, 86260, Note_on_c, 0, 77, 0
2, 86400, Note_on_c, 0, 76, 127
2, 87060, Note_on_c, 0, 76, 0
2, 87120, Note_on_c, 0, 76, 127
2, 87300, Note_on_c, 0, 76, 0
2, 87600, Note_on_c, 0, 76, 127
2, 87780, Note_on_c, 0, 76, 0
2, 87840, Note_on_c, 0, 76, 127
2, 88530, Note_on_c, 0, 76, 0
2, 88530, Note_on_c, 0, 74, 127
2, 88650, Note_on_c, 0, 74, 0
2, 88650, Note_on_c, 0, 76, 127
2, 88800, Note_on_c, 0, 76, 0
2, 88800, Note_on_c, 0, 77, 127
2, 88980, Note_on_c, 0, 77, 0
2, 90240, Note_on_c, 0, 69, 127
2, 90420, Note_on_c, 0, 69, 0
2, 90480, Note_on_c, 0, 69, 127
2, 90612, Note_on_c, 0, 69, 0
2, 90720, Note_on_c, 0, 74, 127
2, 90900, Note_on_c, 0, 74, 0
2, 90960, Note_on_c, 0, 72, 127
2, 91140, Note_on_c, 0, 72, 0
2, 91200, Note_on_c, 0, 67, 127
2, 91344, Note_on_c, 0, 67, 0
2, 91440, Note_on_c, 0, 67, 127
2, 91620, Note_on_c, 0, 67, 0
2, 91680, Note_on_c, 0, 69, 127
2, 91860, Note_on_c, 0, 69, 0
2, 91920, Note_on_c, 0, 69, 127
2, 92100, Note_on_c, 0, 69, 0
2, 92160, Note_on_c, 0, 74, 127
2, 92340, Note_on_c, 0, 74, 0
2, 92400, Note_on_c, 0, 72, 127
2, 92730, Note_on_c, 0, 72, 0
2, 92760, Note_on_c, 0, 72, 127
2, 92850, Note_on_c, 0, 72, 0
2, 92880, Note_on_c, 0, 67, 127
2, 93060, Note_on_c, 0, 67, 0
2, 93120, Note_on_c, 0, 69, 127
2, 93300, Note_on_c, 0, 69, 0
2, 93360, Note_on_c, 0, 69, 127
2, 93540, Note_on_c, 0, 69, 0
2, 93600, Note_on_c, 0, 74, 127
2, 93780, Note_on_c, 0, 74, 0
2, 93840, Note_on_c, 0, 72, 127
2, 94170, Note_on_c, 0, 72, 0
2, 94200, Note_on_c, 0, 72, 127
2, 94290, Note_on_c, 0, 72, 0
2, 94320, Note_on_c, 0, 67, 127
2, 94500, Note_on_c, 0, 67, 0
2, 94560, Note_on_c, 0, 69, 127
2, 94740, Note_on_c, 0, 69, 0
2, 94800, Note_on_c, 0, 69, 127
2, 94980, Note_on_c, 0, 69, 0
2, 95040, Note_on_c, 0, 74, 127
2, 95220, Note_on_c, 0, 74, 0
2, 95280, Note_on_c, 0, 72, 127
2, 95940, Note_on_c, 0, 72, 0
2, 96000, Note_on_c, 0, 69, 127
2, 96180, Note_on_c, 0, 69, 0
2, 96240, Note_on_c, 0, 69, 127
2, 96420, Note_on_c, 0, 69, 0
2, 96480, Note_on_c, 0, 74, 127
2, 96660, Note_on_c, 0, 74, 0
2, 96720, Note_on_c, 0, 72, 127
2, 97140, Note_on_c, 0, 72, 0
2, 97200, Note_on_c, 0, 67, 127
2, 97380, Note_on_c, 0, 67, 0
2, 97440, Note_on_c, 0, 69, 127
2, 97620, Note_on_c, 0, 69, 0
2, 97680, Note_on_c, 0, 69, 127
2, 97860, Note_on_c, 0, 69, 0
2, 97920, Note_on_c, 0, 74, 127
2, 98100, Note_on_c, 0, 74, 0
2, 98160, Note_on_c, 0, 72, 127
2, 98820, Note_on_c, 0, 72, 0
2, 98880, Note_on_c, 0, 74, 127
2, 99000, Note_on_c, 0, 74, 0
2, 99000, Note_on_c, 0, 72, 127
2, 99100, Note_on_c, 0, 72, 0
2, 99120, Note_on_c, 0, 70, 127
2, 100020, Note_on_c, 0, 70, 0
2, 100080, Note_on_c, 0, 70, 127
2, 101040, Note_on_c, 0, 70, 0
2, 101040, Note_on_c, 0, 72, 127
2, 101940, Note_on_c, 0, 72, 0
2, 102000, Note_on_c, 0, 74, 127
2, 105720, Note_on_c, 0, 74, 0
2, 109680, Note_on_c, 0, 62, 127
2, 110400, Note_on_c, 0, 62, 0
2, 110400, Note_on_c, 0, 64, 127
2, 111120, Note_on_c, 0, 64, 0
2, 111120, Note_on_c, 0, 65, 127
2, 111840, Note_on_c, 0, 65, 0
2, 111840, Note_on_c, 0, 67, 127
2, 112560, Note_on_c, 0, 67, 0
2, 112560, Note_on_c, 0, 69, 127
2, 112804, Note_on_c, 0, 69, 0
2, 113520, Note_on_c, 0, 62, 127
2, 114240, Note_on_c, 0, 62, 0
2, 114240, Note_on_c, 0, 64, 127
2, 114960, Note_on_c, 0, 64, 0
2, 114960, Note_on_c, 0, 65, 127
2, 115680, Note_on_c, 0, 65, 0
2, 115680, Note_on_c, 0, 67, 127
2, 116400, Note_on_c, 0, 67, 0
2, 116400, Note_on_c, 0, 69, 127
2, 116820, Note_on_c, 0, 69, 0
2, 117360, Note_on_c, 0, 62, 127
2, 118080, Note_on_c, 0, 62, 0
2, 118080, Note_on_c, 0, 64, 127
2, 118800, Note_on_c, 0, 64, 0
2, 118800, Note_on_c, 0, 65, 127
2, 119520, Note_on_c, 0, 65, 0
2, 119520, Note_on_c, 0, 67, 127
2, 120240, Note_on_c, 0, 69, 127
2, 120300, Note_on_c, 0, 67, 0
2, 120584, Note_on_c, 0, 69, 0
2, 121200, Note_on_c, 0, 62, 127
2, 121920, Note_on_c, 0, 62, 0
2, 121920, Note_on_c, 0, 64, 127
2, 122640, Note_on_c, 0, 64, 0
2, 122640, Note_on_c, 0, 65, 127
2, 123360, Note_on_c, 0, 65, 0
2, 123360, Note_on_c, 0, 67, 127
2, 124080, Note_on_c, 0, 67, 0
2, 124080, Note_on_c, 0, 69, 127
2, 124500, Note_on_c, 0, 69, 0
2, 129360, Note_on_c, 0, 76, 127
2, 129512, Note_on_c, 0, 76, 0
2, 129600, Note_on_c, 0, 77, 127
2, 130020, Note_on_c, 0, 77, 0
2, 130080, Note_on_c, 0, 74, 127
2, 130320, Note_on_c, 0, 74, 0
2, 130320, Note_on_c, 0, 76, 127
2, 131040, Note_on_c, 0, 76, 0
2, 131040, Note_on_c, 0, 77, 127
2, 131460, Note_on_c, 0, 77, 0
2, 131520, Note_on_c, 0, 74, 127
2, 131684, Note_on_c, 0, 74, 0
2, 131760, Note_on_c, 0, 76, 127
2, 132240, Note_on_c, 0, 76, 0
2, 132240, Note_on_c, 0, 72, 127
2, 132480, Note_on_c, 0, 72, 0
2, 132480, Note_on_c, 0, 74, 127
2, 133140, Note_on_c, 0, 74, 0
2, 136880, Note_on_c, 0, 74, 127
2, 137024, Note_on_c, 0, 74, 0
2, 137200, Note_on_c, 0, 75, 127
2, 137292, Note_on_c, 0, 75, 0
2, 137520, Note_on_c, 0, 74, 127
2, 137700, Note_on_c, 0, 74, 0
2, 137840, Note_on_c, 0, 72, 127
2, 137960, Note_on_c, 0, 72, 0
2, 138160, Note_on_c, 0, 74, 127
2, 138340, Note_on_c, 0, 74, 0
2, 138464, Note_on_c, 0, 74, 127
2, 138480, Note_on_c, 0, 75, 127
2, 138504, Note_on_c, 0, 74, 0
2, 138612, Note_on_c, 0, 75, 0
2, 138800, Note_on_c, 0, 74, 127
2, 138980, Note_on_c, 0, 74, 0
2, 139120, Note_on_c, 0, 72, 127
2, 139300, Note_on_c, 0, 72, 0
2, 139440, Note_on_c, 0, 74, 127
2, 139620, Note_on_c, 0, 74, 0
2, 139756, Note_on_c, 0, 74, 127
2, 139760, Note_on_c, 0, 75, 127
2, 139796, Note_on_c, 0, 74, 0
2, 140180, Note_on_c, 0, 75, 0
2, 140880, Note_on_c, 0, 77, 127
2, 141840, Note_on_c, 0, 77, 0
2, 141840, Note_on_c, 0, 76, 127
2, 142080, Note_on_c, 0, 74, 127
2, 142084, Note_on_c, 0, 76, 0
2, 142204, Note_on_c, 0, 74, 0
2, 142320, Note_on_c, 0, 72, 127
2, 142560, Note_on_c, 0, 74, 127
2, 142580, Note_on_c, 0, 72, 0
2, 143220, Note_on_c, 0, 74, 0
2, 143280, Note_on_c, 0, 72, 127
2, 143460, Note_on_c, 0, 72, 0
2, 143600, Note_on_c, 0, 69, 127
2, 143780, Note_on_c, 0, 69, 0
2, 143920, Note_on_c, 0, 67, 127
2, 144100, Note_on_c, 0, 67, 0
2, 144240, Note_on_c, 0, 69, 127
2, 146100, Note_on_c, 0, 69, 0
2, 146640, Note_on_c, 0, 69, 127
2, 146700, Note_on_c, 0, 69, 0
2, 146880, Note_on_c, 0, 69, 127
2, 146940, Note_on_c, 0, 69, 0
2, 147600, Note_on_c, 0, 69, 127
2, 147660, Note_on_c, 0, 69, 0
2, 147840, Note_on_c, 0, 69, 127
2, 147900, Note_on_c, 0, 69, 0
2, 148560, Note_on_c, 0, 69, 127
2, 148620, Note_on_c, 0, 69, 0
2, 148800, Note_on_c, 0, 69, 127
2, 148860, Note_on_c, 0, 69, 0
2, 149520, Note_on_c, 0, 69, 127
2, 149580, Note_on_c, 0, 69, 0
2, 149760, Note_on_c, 0, 69, 127
2, 149820, Note_on_c, 0, 69, 0
2, 150480, Note_on_c, 0, 69, 127
2, 150540, Note_on_c, 0, 69, 0
2, 150720, Note_on_c, 0, 69, 127
2, 150780, Note_on_c, 0, 69, 0
2, 151440, Note_on_c, 0, 69, 127
2, 151500, Note_on_c, 0, 69, 0
2, 151680, Note_on_c, 0, 69, 127
2, 151740, Note_on_c, 0, 69, 0
2, 154080, Note_on_c, 0, 74, 127
2, 154560, Note_on_c, 0, 74, 0
2, 154560, Note_on_c, 0, 76, 127
2, 154980, Note_on_c, 0, 76, 0
2, 155040, Note_on_c, 0, 77, 127
2, 155520, Note_on_c, 0, 77, 0
2, 155520, Note_on_c, 0, 79, 127
2, 155660, Note_on_c, 0, 79, 0
2, 157920, Note_on_c, 0, 74, 127
2, 158400, Note_on_c, 0, 74, 0
2, 158400, Note_on_c, 0, 76, 127
2, 158832, Note_on_c, 0, 76, 0
2, 158880, Note_on_c, 0, 77, 127
2, 159360, Note_on_c, 0, 77, 0
2, 159360, Note_on_c, 0, 79, 127
2, 159540, Note_on_c, 0, 79, 0
2, 161760, Note_on_c, 0, 74, 127
2, 162240, Note_on_c, 0, 74, 0
2, 162240, Note_on_c, 0, 76, 127
2, 162720, Note_on_c, 0, 76, 0
2, 162720, Note_on_c, 0, 77, 127
2, 163200, Note_on_c, 0, 77, 0
2, 163200, Note_on_c, 0, 79, 127
2, 163380, Note_on_c, 0, 79, 0
2, 165600, Note_on_c, 0, 74, 127
2, 166012, Note_on_c, 0, 74, 0
2, 166080, Note_on_c, 0, 76, 127
2, 166560, Note_on_c, 0, 76, 0
2, 166560, Note_on_c, 0, 77, 127
2, 167040, Note_on_c, 0, 77, 0
2, 167040, Note_on_c, 0, 79, 127
2, 167220, Note_on_c, 0, 79, 0
2, 168240, Note_on_c, 0, 74, 127
2, 168930, Note_on_c, 0, 74, 0
2, 168930, Note_on_c, 0, 71, 127
2, 169050, Note_on_c, 0, 71, 0
2, 169050, Note_on_c, 0, 69, 127
2, 169140, Note_on_c, 0, 69, 0
2, 169200, Note_on_c, 0, 67, 127
2, 169290, Note_on_c, 0, 67, 0
2, 169320, Note_on_c, 0, 69, 127
2, 170100, Note_on_c, 0, 69, 0
2, 170160, Note_on_c, 0, 67, 127
2, 170280, Note_on_c, 0, 67, 0
2, 170280, Note_on_c, 0, 65, 127
2, 170400, Note_on_c, 0, 65, 0
2, 170400, Note_on_c, 0, 67, 127
2, 170520, Note_on_c, 0, 67, 0
2, 170520, Note_on_c, 0, 65, 127
2, 170640, Note_on_c, 0, 65, 0
2, 170640, Note_on_c, 0, 67, 127
2, 170760, Note_on_c, 0, 67, 0
2, 170760, Note_on_c, 0, 68, 127
2, 170880, Note_on_c, 0, 68, 0
2, 170880, Note_on_c, 0, 67, 127
2, 171000, Note_on_c, 0, 67, 0
2, 171000, Note_on_c, 0, 65, 127
2, 171090, Note_on_c, 0, 65, 0
2, 171120, Note_on_c, 0, 62, 127
2, 171420, Note_on_c, 0, 62, 0
2, 171450, Note_on_c, 0, 62, 127
2, 171630, Note_on_c, 0, 62, 0
2, 171660, Note_on_c, 0, 62, 127
2, 171750, Note_on_c, 0, 62, 0
2, 171780, Note_on_c, 0, 62, 127
2, 171960, Note_on_c, 0, 62, 0
2, 171990, Note_on_c, 0, 62, 127
2, 172170, Note_on_c, 0, 62, 0
2, 172200, Note_on_c, 0, 62, 127
2, 172290, Note_on_c, 0, 62, 0
2, 172320, Note_on_c, 0, 62, 127
2, 172410, Note_on_c, 0, 62, 0
2, 172440, Note_on_c, 0, 62, 127
2, 172620, Note_on_c, 0, 62, 0
2, 172720, Note_on_c, 0, 62, 127
2, 172780, Note_on_c, 0, 62, 0
2, 172800, Note_on_c, 0, 65, 127
2, 172860, Note_on_c, 0, 65, 0
2, 172880, Note_on_c, 0, 69, 127
2, 172940, Note_on_c, 0, 69, 0
2, 173040, Note_on_c, 0, 74, 127
2, 174240, Note_on_c, 0, 74, 0
2, 174240, Note_on_c, 0, 72, 127
2, 174360, Note_on_c, 0, 72, 0
2, 174360, Note_on_c, 0, 69, 127
2, 174480, Note_on_c, 0, 69, 0
2, 174480, Note_on_c, 0, 67, 127
2, 174600, Note_on_c, 0, 67, 0
2, 174600, Note_on_c, 0, 65, 127
2, 174720, Note_on_c, 0, 65, 0
2, 174720, Note_on_c, 0, 67, 127
2, 174900, Note_on_c, 0, 67, 0
2, 174960, Note_on_c, 0, 69, 127
2, 175140, Note_on_c, 0, 69, 0
2, 176280, Note_on_c, 0, 69, 127
2, 176370, Note_on_c, 0, 69, 0
2, 176400, Note_on_c, 0, 69, 127
2, 176490, Note_on_c, 0, 69, 0
2, 176520, Note_on_c, 0, 69, 127
2, 176610, Note_on_c, 0, 69, 0
2, 176640, Note_on_c, 0, 69, 127
2, 176730, Note_on_c, 0, 69, 0
2, 176760, Note_on_c, 0, 69, 127
2, 176850, Note_on_c, 0, 69, 0
2, 176880, Note_on_c, 0, 67, 127
2, 176970, Note_on_c, 0, 67, 0
2, 177000, Note_on_c, 0, 65, 127
2, 177090, Note_on_c, 0, 65, 0
2, 177120, Note_on_c, 0, 67, 127
2, 177210, Note_on_c, 0, 67, 0
2, 177240, Note_on_c, 0, 65, 127
2, 177330, Note_on_c, 0, 65, 0
2, 177360, Note_on_c, 0, 67, 127
2, 177450, Note_on_c, 0, 67, 0
2, 177480, Note_on_c, 0, 68, 127
2, 177570, Note_on_c, 0, 68, 0
2, 177600, Note_on_c, 0, 67, 127
2, 177690, Note_on_c, 0, 67, 0
2, 177720, Note_on_c, 0, 65, 127
2, 177810, Note_on_c, 0, 65, 0
2, 177840, Note_on_c, 0, 67, 127
2, 177930, Note_on_c, 0, 67, 0
2, 177960, Note_on_c, 0, 65, 127
2, 178050, Note_on_c, 0, 65, 0
2, 178080, Note_on_c, 0, 67, 127
2, 178170, Note_on_c, 0, 67, 0
2, 178200, Note_on_c, 0, 68, 127
2, 178290, Note_on_c, 0, 68, 0
2, 178320, Note_on_c, 0, 67, 127
2, 178410, Note_on_c, 0, 67, 0
2, 178440, Note_on_c, 0, 65, 127
2, 178530, Note_on_c, 0, 65, 0
2, 178560, Note_on_c, 0, 67, 127
2, 178650, Note_on_c, 0, 67, 0
2, 178680, Note_on_c, 0, 65, 127
2, 178770, Note_on_c, 0, 65, 0
2, 178800, Note_on_c, 0, 69, 127
2, 178890, Note_on_c, 0, 69, 0
2, 178920, Note_on_c, 0, 69, 127
2, 179100, Note_on_c, 0, 69, 0
2, 179130, Note_on_c, 0, 72, 127
2, 179220, Note_on_c, 0, 72, 0
2, 179400, Note_on_c, 0, 72, 127
2, 179490, Note_on_c, 0, 72, 0
2, 179520, Note_on_c, 0, 69, 127
2, 179610, Note_on_c, 0, 69, 0
2, 179640, Note_on_c, 0, 72, 127
2, 179730, Note_on_c, 0, 72, 0
2, 179760, Note_on_c, 0, 69, 127
2, 179850, Note_on_c, 0, 69, 0
2, 179880, Note_on_c, 0, 69, 127
2, 180060, Note_on_c, 0, 69, 0
2, 180090, Note_on_c, 0, 69, 127
2, 180180, Note_on_c, 0, 69, 0
2, 180240, Note_on_c, 0, 69, 127
2, 180420, Note_on_c, 0, 69, 0
2, 180450, Note_on_c, 0, 67, 127
2, 180540, Note_on_c, 0, 67, 0
2, 180570, Note_on_c, 0, 65, 127
2, 180660, Note_on_c, 0, 65, 0
2, 180720, Note_on_c, 0, 67, 127
2, 180900, Note_on_c, 0, 67, 0
2, 180930, Note_on_c, 0, 67, 127
2, 181020, Note_on_c, 0, 67, 0
2, 181050, Note_on_c, 0, 65, 127
2, 181140, Note_on_c, 0, 65, 0
2, 181200, Note_on_c, 0, 67, 127
2, 181290, Note_on_c, 0, 67, 0
2, 181320, Note_on_c, 0, 67, 127
2, 181410, Note_on_c, 0, 67, 0
2, 181440, Note_on_c, 0, 67, 127
2, 181530, Note_on_c, 0, 67, 0
2, 181560, Note_on_c, 0, 65, 127
2, 181650, Note_on_c, 0, 65, 0
2, 181680, Note_on_c, 0, 67, 127
2, 181770, Note_on_c, 0, 67, 0
2, 181800, Note_on_c, 0, 68, 127
2, 181890, Note_on_c, 0, 68, 0
2, 181920, Note_on_c, 0, 67, 127
2, 182010, Note_on_c, 0, 67, 0
2, 182040, Note_on_c, 0, 65, 127
2, 182130, Note_on_c, 0, 65, 0
2, 182160, Note_on_c, 0, 67, 127
2, 182250, Note_on_c, 0, 67, 0
2, 182280, Note_on_c, 0, 65, 127
2, 182370, Note_on_c, 0, 65, 0
2, 182400, Note_on_c, 0, 64, 127
2, 182490, Note_on_c, 0, 64, 0
2, 182520, Note_on_c, 0, 65, 127
2, 182610, Note_on_c, 0, 65, 0
2, 182640, Note_on_c, 0, 62, 127
2, 183060, Note_on_c, 0, 62, 0
2, 183600, Note_on_c, 0, 74, 127
2, 184020, Note_on_c, 0, 74, 0
2, 184560, Note_on_c, 0, 76, 127
2, 186420, Note_on_c, 0, 76, 0
2, 186480, Note_on_c, 0, 81, 127
2, 187440, Note_on_c, 0, 81, 0
2, 187440, End_track
3, 0, Start_track
3, 0, MIDI_port, 0
3, 0, Title_t, "PIANO TREBLE"
3, 0, Control_c, 1, 93, 0
3, 0, Control_c, 1, 11, 127
3, 487, Program_c, 1, 0
3, 1920, Note_on_c, 1, 53, 100
3, 1920, Note_on_c, 1, 57, 100
3, 1920, Note_on_c, 1, 62, 100
3, 1920, Control_c, 1, 93, 0
3, 1920, Control_c, 1, 91, 11
3, 2400, Control_c, 1, 91, 0
3, 2400, Control_c, 1, 10, 64
3, 2640, Note_on_c, 1, 62, 0
3, 2700, Note_on_c, 1, 60, 100
3, 2790, Note_on_c, 1, 60, 0
3, 2820, Note_on_c, 1, 57, 0
3, 2820, Note_on_c, 1, 53, 0
3, 2880, Note_on_c, 1, 53, 100
3, 2880, Note_on_c, 1, 57, 100
3, 2880, Note_on_c, 1, 62, 100
3, 3300, Note_on_c, 1, 62, 0
3, 3300, Note_on_c, 1, 57, 0
3, 3300, Note_on_c, 1, 53, 0
3, 3360, Note_on_c, 1, 52, 100
3, 3360, Note_on_c, 1, 55, 100
3, 3360, Note_on_c, 1, 60, 100
3, 3780, Note_on_c, 1, 60, 0
3, 3780, Note_on_c, 1, 55, 0
3, 3780, Note_on_c, 1, 52, 0
3, 3840, Note_on_c, 1, 55, 100
3, 3840, Note_on_c, 1, 47, 100
3, 3840, Note_on_c, 1, 52, 100
3, 4080, Note_on_c, 1, 55, 0
3, 4140, Note_on_c, 1, 53, 100
3, 4230, Note_on_c, 1, 53, 0
3, 4320, Note_on_c, 1, 55, 100
3, 4740, Note_on_c, 1, 55, 0
3, 4740, Note_on_c, 1, 52, 0
3, 4740, Note_on_c, 1, 47, 0
3, 4800, Note_on_c, 1, 55, 100
3, 4800, Note_on_c, 1, 52, 100
3, 4800, Note_on_c, 1, 47, 100
3, 5220, Note_on_c, 1, 47, 0
3, 5220, Note_on_c, 1, 52, 0
3, 5220, Note_on_c, 1, 55, 0
3, 5280, Note_on_c, 1, 53, 100
3, 5280, Note_on_c, 1, 45, 100
3, 5280, Note_on_c, 1, 48, 100
3, 5700, Note_on_c, 1, 48, 0
3, 5700, Note_on_c, 1, 45, 0
3, 5700, Note_on_c, 1, 53, 0
3, 5760, Note_on_c, 1, 50, 100
3, 6900, Note_on_c, 1, 50, 0
3, 6960, Note_on_c, 1, 49, 100
3, 7050, Note_on_c, 1, 49, 0
3, 7080, Note_on_c, 1, 50, 100
3, 7170, Note_on_c, 1, 50, 0
3, 7200, Note_on_c, 1, 52, 100
3, 7290, Note_on_c, 1, 52, 0
3, 7320, Note_on_c, 1, 53, 100
3, 7410, Note_on_c, 1, 53, 0
3, 7440, Note_on_c, 1, 55, 100
3, 7530, Note_on_c, 1, 55, 0
3, 7560, Note_on_c, 1, 57, 100
3, 7650, Note_on_c, 1, 57, 0
3, 7680, Note_on_c, 1, 53, 100
3, 7770, Note_on_c, 1, 53, 0
3, 7800, Note_on_c, 1, 57, 100
3, 7890, Note_on_c, 1, 57, 0
3, 7920, Note_on_c, 1, 58, 100
3, 8010, Note_on_c, 1, 58, 0
3, 8040, Note_on_c, 1, 61, 100
3, 8130, Note_on_c, 1, 61, 0
3, 8160, Note_on_c, 1, 62, 100
3, 8250, Note_on_c, 1, 62, 0
3, 8280, Note_on_c, 1, 64, 100
3, 9240, Note_on_c, 1, 64, 0
3, 9270, Note_on_c, 1, 65, 100
3, 9360, Note_on_c, 1, 65, 0
3, 9390, Note_on_c, 1, 64, 100
3, 9480, Note_on_c, 1, 64, 0
3, 9510, Note_on_c, 1, 65, 100
3, 9600, Note_on_c, 1, 65, 0
3, 9600, Note_on_c, 1, 67, 100
3, 9690, Note_on_c, 1, 67, 0
3, 9720, Note_on_c, 1, 69, 100
3, 9810, Note_on_c, 1, 69, 0
3, 9840, Note_on_c, 1, 70, 100
3, 9930, Note_on_c, 1, 70, 0
3, 9960, Note_on_c, 1, 73, 100
3, 11010, Note_on_c, 1, 73, 0
3, 11040, Note_on_c, 1, 67, 100
3, 11040, Note_on_c, 1, 64, 100
3, 11040, Note_on_c, 1, 58, 100
3, 11040, Note_on_c, 1, 55, 100
3, 11040, Note_on_c, 1, 73, 100
3, 11460, Note_on_c, 1, 55, 0
3, 11460, Note_on_c, 1, 58, 0
3, 11460, Note_on_c, 1, 67, 0
3, 11460, Note_on_c, 1, 64, 0
3, 11520, Note_on_c, 1, 65, 100
3, 11520, Note_on_c, 1, 62, 100
3, 11520, Note_on_c, 1, 57, 100
3, 11520, Note_on_c, 1, 53, 100
3, 11940, Note_on_c, 1, 53, 0
3, 11940, Note_on_c, 1, 62, 0
3, 11940, Note_on_c, 1, 57, 0
3, 11940, Note_on_c, 1, 65, 0
3, 12000, Note_on_c, 1, 52, 100
3, 12000, Note_on_c, 1, 55, 100
3, 12000, Note_on_c, 1, 61, 100
3, 12000, Note_on_c, 1, 64, 100
3, 12420, Note_on_c, 1, 64, 0
3, 12420, Note_on_c, 1, 55, 0
3, 12420, Note_on_c, 1, 61, 0
3, 12420, Note_on_c, 1, 52, 0
3, 12450, Note_on_c, 1, 73, 0
3, 12960, Note_on_c, 1, 65, 100
3, 13140, Note_on_c, 1, 65, 0
3, 13170, Note_on_c, 1, 64, 100
3, 13260, Note_on_c, 1, 64, 0
3, 13290, Note_on_c, 1, 62, 100
3, 13380, Note_on_c, 1, 62, 0
3, 13440, Note_on_c, 1, 60, 100
3, 13620, Note_on_c, 1, 60, 0
3, 13650, Note_on_c, 1, 59, 100
3, 13740, Note_on_c, 1, 59, 0
3, 13770, Note_on_c, 1, 57, 100
3, 13860, Note_on_c, 1, 57, 0
3, 13920, Note_on_c, 1, 55, 100
3, 14010, Note_on_c, 1, 55, 0
3, 14040, Note_on_c, 1, 53, 100
3, 14085, Note_on_c, 1, 53, 0
3, 14100, Note_on_c, 1, 57, 100
3, 14145, Note_on_c, 1, 57, 0
3, 14160, Note_on_c, 1, 52, 100
3, 14205, Note_on_c, 1, 52, 0
3, 14220, Note_on_c, 1, 57, 100
3, 14265, Note_on_c, 1, 57, 0
3, 14280, Note_on_c, 1, 50, 100
3, 14325, Note_on_c, 1, 50, 0
3, 14340, Note_on_c, 1, 57, 100
3, 14385, Note_on_c, 1, 57, 0
3, 14400, Note_on_c, 1, 61, 100
3, 14580, Note_on_c, 1, 61, 0
3, 14610, Note_on_c, 1, 73, 100
3, 15360, Note_on_c, 1, 67, 100
3, 15780, Note_on_c, 1, 67, 0
3, 15840, Note_on_c, 1, 65, 100
3, 16260, Note_on_c, 1, 65, 0
3, 16740, Note_on_c, 1, 73, 0
3, 17280, Note_on_c, 1, 53, 100
3, 17280, Note_on_c, 1, 57, 100
3, 17280, Note_on_c, 1, 62, 100
3, 17280, Note_on_c, 1, 65, 100
3, 21060, Note_on_c, 1, 65, 0
3, 21060, Note_on_c, 1, 53, 0
3, 21060, Note_on_c, 1, 57, 0
3, 21060, Note_on_c, 1, 62, 0
3, 21120, Note_on_c, 1, 53, 100
3, 21120, Note_on_c, 1, 57, 100
3, 21120, Note_on_c, 1, 62, 100
3, 21780, Note_on_c, 1, 62, 0
3, 21780, Note_on_c, 1, 57, 0
3, 21780, Note_on_c, 1, 53, 0
3, 21840, Note_on_c, 1, 60, 100
3, 21840, Note_on_c, 1, 52, 100
3, 21840, Note_on_c, 1, 55, 100
3, 22020, Note_on_c, 1, 55, 0
3, 22020, Note_on_c, 1, 52, 0
3, 22020, Note_on_c, 1, 60, 0
3, 22080, Note_on_c, 1, 53, 100
3, 22080, Note_on_c, 1, 57, 100
3, 22080, Note_on_c, 1, 62, 100
3, 22740, Note_on_c, 1, 62, 0
3, 22740, Note_on_c, 1, 57, 0
3, 22740, Note_on_c, 1, 53, 0
3, 22800, Note_on_c, 1, 60, 100
3, 22800, Note_on_c, 1, 55, 100
3, 22800, Note_on_c, 1, 52, 100
3, 22980, Note_on_c, 1, 52, 0
3, 22980, Note_on_c, 1, 55, 0
3, 22980, Note_on_c, 1, 60, 0
3, 23040, Note_on_c, 1, 53, 100
3, 23040, Note_on_c, 1, 57, 100
3, 23040, Note_on_c, 1, 62, 100
3, 23220, Note_on_c, 1, 62, 0
3, 23220, Note_on_c, 1, 57, 0
3, 23220, Note_on_c, 1, 53, 0
3, 23280, Note_on_c, 1, 57, 100
3, 23280, Note_on_c, 1, 60, 100
3, 23280, Note_on_c, 1, 65, 100
3, 23700, Note_on_c, 1, 65, 0
3, 23700, Note_on_c, 1, 60, 0
3, 23700, Note_on_c, 1, 57, 0
3, 23760, Note_on_c, 1, 65, 100
3, 23760, Note_on_c, 1, 60, 100
3, 23760, Note_on_c, 1, 57, 100
3, 24180, Note_on_c, 1, 57, 0
3, 24180, Note_on_c, 1, 60, 0
3, 24180, Note_on_c, 1, 65, 0
3, 24240, Note_on_c, 1, 55, 100
3, 24240, Note_on_c, 1, 59, 100
3, 24240, Note_on_c, 1, 64, 100
3, 24660, Note_on_c, 1, 64, 0
3, 24660, Note_on_c, 1, 59, 0
3, 24660, Note_on_c, 1, 55, 0
3, 24720, Note_on_c, 1, 63, 100
3, 24720, Note_on_c, 1, 58, 100
3, 24720, Note_on_c, 1, 55, 100
3, 24900, Note_on_c, 1, 55, 0
3, 24900, Note_on_c, 1, 58, 0
3, 24900, Note_on_c, 1, 63, 0
3, 24960, Note_on_c, 1, 53, 100
3, 24960, Note_on_c, 1, 57, 100
3, 24960, Note_on_c, 1, 62, 100
3, 25620, Note_on_c, 1, 62, 0
3, 25620, Note_on_c, 1, 57, 0
3, 25620, Note_on_c, 1, 53, 0
3, 25680, Note_on_c, 1, 60, 100
3, 25680, Note_on_c, 1, 52, 100
3, 25680, Note_on_c, 1, 55, 100
3, 25860, Note_on_c, 1, 55, 0
3, 25860, Note_on_c, 1, 52, 0
3, 25860, Note_on_c, 1, 60, 0
3, 25920, Note_on_c, 1, 62, 100
3, 25920, Note_on_c, 1, 57, 100
3, 25920, Note_on_c, 1, 53, 100
3, 26100, Note_on_c, 1, 53, 0
3, 26100, Note_on_c, 1, 57, 0
3, 26100, Note_on_c, 1, 62, 0
3, 26160, Note_on_c, 1, 62, 100
3, 26160, Note_on_c, 1, 57, 100
3, 26160, Note_on_c, 1, 53, 100
3, 26340, Note_on_c, 1, 53, 0
3, 26340, Note_on_c, 1, 57, 0
3, 26340, Note_on_c, 1, 62, 0
3, 26400, Note_on_c, 1, 62, 100
3, 26400, Note_on_c, 1, 57, 100
3, 26400, Note_on_c, 1, 53, 100
3, 26580, Note_on_c, 1, 53, 0
3, 26580, Note_on_c, 1, 57, 0
3, 26580, Note_on_c, 1, 62, 0
3, 26640, Note_on_c, 1, 60, 100
3, 26640, Note_on_c, 1, 55, 100
3, 26640, Note_on_c, 1, 52, 100
3, 26820, Note_on_c, 1, 52, 0
3, 26820, Note_on_c, 1, 55, 0
3, 26820, Note_on_c, 1, 60, 0
3, 26880, Note_on_c, 1, 53, 100
3, 26880, Note_on_c, 1, 57, 100
3, 26880, Note_on_c, 1, 62, 100
3, 27060, Note_on_c, 1, 62, 0
3, 27060, Note_on_c, 1, 57, 0
3, 27060, Note_on_c, 1, 53, 0
3, 27120, Note_on_c, 1, 57, 100
3, 27120, Note_on_c, 1, 60, 100
3, 27120, Note_on_c, 1, 65, 100
3, 27540, Note_on_c, 1, 65, 0
3, 27540, Note_on_c, 1, 60, 0
3, 27540, Note_on_c, 1, 57, 0
3, 27600, Note_on_c, 1, 65, 100
3, 27600, Note_on_c, 1, 60, 100
3, 27600, Note_on_c, 1, 57, 100
3, 28020, Note_on_c, 1, 57, 0
3, 28020, Note_on_c, 1, 60, 0
3, 28020, Note_on_c, 1, 65, 0
3, 28080, Note_on_c, 1, 55, 100
3, 28080, Note_on_c, 1, 59, 100
3, 28080, Note_on_c, 1, 64, 100
3, 28500, Note_on_c, 1, 64, 0
3, 28500, Note_on_c, 1, 59, 0
3, 28500, Note_on_c, 1, 55, 0
3, 28560, Note_on_c, 1, 63, 100
3, 28560, Note_on_c, 1, 58, 100
3, 28560, Note_on_c, 1, 55, 100
3, 28740, Note_on_c, 1, 55, 0
3, 28740, Note_on_c, 1, 58, 0
3, 28740, Note_on_c, 1, 63, 0
3, 28800, Note_on_c, 1, 53, 100
3, 28800, Note_on_c, 1, 57, 100
3, 28800, Note_on_c, 1, 62, 100
3, 29460, Note_on_c, 1, 62, 0
3, 29460, Note_on_c, 1, 57, 0
3, 29460, Note_on_c, 1, 53, 0
3, 29520, Note_on_c, 1, 60, 100
3, 29520, Note_on_c, 1, 52, 100
3, 29520, Note_on_c, 1, 55, 100
3, 29700, Note_on_c, 1, 55, 0
3, 29700, Note_on_c, 1, 52, 0
3, 29700, Note_on_c, 1, 60, 0
3, 29760, Note_on_c, 1, 62, 100
3, 29760, Note_on_c, 1, 57, 100
3, 29760, Note_on_c, 1, 53, 100
3, 29940, Note_on_c, 1, 53, 0
3, 29940, Note_on_c, 1, 57, 0
3, 29940, Note_on_c, 1, 62, 0
3, 30000, Note_on_c, 1, 62, 100
3, 30000, Note_on_c, 1, 57, 100
3, 30000, Note_on_c, 1, 53, 100
3, 30180, Note_on_c, 1, 53, 0
3, 30180, Note_on_c, 1, 57, 0
3, 30180, Note_on_c, 1, 62, 0
3, 30240, Note_on_c, 1, 62, 100
3, 30240, Note_on_c, 1, 57, 100
3, 30240, Note_on_c, 1, 53, 100
3, 30420, Note_on_c, 1, 53, 0
3, 30420, Note_on_c, 1, 57, 0
3, 30420, Note_on_c, 1, 62, 0
3, 30480, Note_on_c, 1, 60, 100
3, 30480, Note_on_c, 1, 55, 100
3, 30480, Note_on_c, 1, 52, 100
3, 30660, Note_on_c, 1, 52, 0
3, 30660, Note_on_c, 1, 55, 0
3, 30660, Note_on_c, 1, 60, 0
3, 30720, Note_on_c, 1, 53, 100
3, 30720, Note_on_c, 1, 57, 100
3, 30720, Note_on_c, 1, 62, 100
3, 30900, Note_on_c, 1, 62, 0
3, 30900, Note_on_c, 1, 57, 0
3, 30900, Note_on_c, 1, 53, 0
3, 30960, Note_on_c, 1, 57, 100
3, 30960, Note_on_c, 1, 60, 100
3, 30960, Note_on_c, 1, 65, 100
3, 31380, Note_on_c, 1, 65, 0
3, 31380, Note_on_c, 1, 60, 0
3, 31380, Note_on_c, 1, 57, 0
3, 31440, Note_on_c, 1, 65, 100
3, 31440, Note_on_c, 1, 60, 100
3, 31440, Note_on_c, 1, 57, 100
3, 31860, Note_on_c, 1, 57, 0
3, 31860, Note_on_c, 1, 60, 0
3, 31860, Note_on_c, 1, 65, 0
3, 31920, Note_on_c, 1, 55, 100
3, 31920, Note_on_c, 1, 59, 100
3, 31920, Note_on_c, 1, 64, 100
3, 32340, Note_on_c, 1, 64, 0
3, 32340, Note_on_c, 1, 59, 0
3, 32340, Note_on_c, 1, 55, 0
3, 32400, Note_on_c, 1, 63, 100
3, 32400, Note_on_c, 1, 58, 100
3, 32400, Note_on_c, 1, 55, 100
3, 32580, Note_on_c, 1, 55, 0
3, 32580, Note_on_c, 1, 58, 0
3, 32580, Note_on_c, 1, 63, 0
3, 32640, Note_on_c, 1, 53, 100
3, 32640, Note_on_c, 1, 57, 100
3, 32640, Note_on_c, 1, 62, 100
3, 33300, Note_on_c, 1, 62, 0
3, 33300, Note_on_c, 1, 57, 0
3, 33300, Note_on_c, 1, 53, 0
3, 33360, Note_on_c, 1, 60, 100
3, 33360, Note_on_c, 1, 52, 100
3, 33360, Note_on_c, 1, 55, 100
3, 33540, Note_on_c, 1, 55, 0
3, 33540, Note_on_c, 1, 52, 0
3, 33540, Note_on_c, 1, 60, 0
3, 33600, Note_on_c, 1, 53, 100
3, 33600, Note_on_c, 1, 57, 100
3, 33600, Note_on_c, 1, 62, 100
3, 34260, Note_on_c, 1, 62, 0
3, 34260, Note_on_c, 1, 57, 0
3, 34260, Note_on_c, 1, 53, 0
3, 34320, Note_on_c, 1, 60, 100
3, 34320, Note_on_c, 1, 55, 100
3, 34320, Note_on_c, 1, 52, 100
3, 34500, Note_on_c, 1, 52, 0
3, 34500, Note_on_c, 1, 55, 0
3, 34500, Note_on_c, 1, 60, 0
3, 34560, Note_on_c, 1, 53, 100
3, 34560, Note_on_c, 1, 57, 100
3, 34560, Note_on_c, 1, 62, 100
3, 34740, Note_on_c, 1, 62, 0
3, 34740, Note_on_c, 1, 57, 0
3, 34740, Note_on_c, 1, 53, 0
3, 34800, Note_on_c, 1, 57, 100
3, 34800, Note_on_c, 1, 60, 100
3, 34800, Note_on_c, 1, 65, 100
3, 35220, Note_on_c, 1, 65, 0
3, 35220, Note_on_c, 1, 60, 0
3, 35220, Note_on_c, 1, 57, 0
3, 35280, Note_on_c, 1, 65, 100
3, 35280, Note_on_c, 1, 60, 100
3, 35280, Note_on_c, 1, 57, 100
3, 35700, Note_on_c, 1, 57, 0
3, 35700, Note_on_c, 1, 60, 0
3, 35700, Note_on_c, 1, 65, 0
3, 35760, Note_on_c, 1, 55, 100
3, 35760, Note_on_c, 1, 59, 100
3, 35760, Note_on_c, 1, 64, 100
3, 36180, Note_on_c, 1, 64, 0
3, 36180, Note_on_c, 1, 59, 0
3, 36180, Note_on_c, 1, 55, 0
3, 36240, Note_on_c, 1, 63, 100
3, 36240, Note_on_c, 1, 58, 100
3, 36240, Note_on_c, 1, 55, 100
3, 36420, Note_on_c, 1, 55, 0
3, 36420, Note_on_c, 1, 58, 0
3, 36420, Note_on_c, 1, 63, 0
3, 36480, Note_on_c, 1, 53, 100
3, 36480, Note_on_c, 1, 57, 100
3, 36480, Note_on_c, 1, 62, 100
3, 37140, Note_on_c, 1, 62, 0
3, 37140, Note_on_c, 1, 57, 0
3, 37140, Note_on_c, 1, 53, 0
3, 37200, Note_on_c, 1, 60, 100
3, 37200, Note_on_c, 1, 52, 100
3, 37200, Note_on_c, 1, 55, 100
3, 37380, Note_on_c, 1, 55, 0
3, 37380, Note_on_c, 1, 52, 0
3, 37380, Note_on_c, 1, 60, 0
3, 37440, Note_on_c, 1, 62, 100
3, 37440, Note_on_c, 1, 57, 100
3, 37440, Note_on_c, 1, 53, 100
3, 37620, Note_on_c, 1, 53, 0
3, 37620, Note_on_c, 1, 57, 0
3, 37620, Note_on_c, 1, 62, 0
3, 37680, Note_on_c, 1, 62, 100
3, 37680, Note_on_c, 1, 57, 100
3, 37680, Note_on_c, 1, 53, 100
3, 37860, Note_on_c, 1, 53, 0
3, 37860, Note_on_c, 1, 57, 0
3, 37860, Note_on_c, 1, 62, 0
3, 37920, Note_on_c, 1, 62, 100
3, 37920, Note_on_c, 1, 57, 100
3, 37920, Note_on_c, 1, 53, 100
3, 38100, Note_on_c, 1, 53, 0
3, 38100, Note_on_c, 1, 57, 0
3, 38100, Note_on_c, 1, 62, 0
3, 38160, Note_on_c, 1, 60, 100
3, 38160, Note_on_c, 1, 55, 100
3, 38160, Note_on_c, 1, 52, 100
3, 38340, Note_on_c, 1, 52, 0
3, 38340, Note_on_c, 1, 55, 0
3, 38340, Note_on_c, 1, 60, 0
3, 38400, Note_on_c, 1, 53, 100
3, 38400, Note_on_c, 1, 57, 100
3, 38400, Note_on_c, 1, 62, 100
3, 38580, Note_on_c, 1, 62, 0
3, 38580, Note_on_c, 1, 57, 0
3, 38580, Note_on_c, 1, 53, 0
3, 38640, Note_on_c, 1, 57, 100
3, 38640, Note_on_c, 1, 60, 100
3, 38640, Note_on_c, 1, 65, 100
3, 39060, Note_on_c, 1, 65, 0
3, 39060, Note_on_c, 1, 60, 0
3, 39060, Note_on_c, 1, 57, 0
3, 39120, Note_on_c, 1, 65, 100
3, 39120, Note_on_c, 1, 60, 100
3, 39120, Note_on_c, 1, 57, 100
3, 39540, Note_on_c, 1, 57, 0
3, 39540, Note_on_c, 1, 60, 0
3, 39540, Note_on_c, 1, 65, 0
3, 39600, Note_on_c, 1, 55, 100
3, 39600, Note_on_c, 1, 59, 100
3, 39600, Note_on_c, 1, 63, 100
3, 40020, Note_on_c, 1, 63, 0
3, 40020, Note_on_c, 1, 59, 0
3, 40020, Note_on_c, 1, 55, 0
3, 40080, Note_on_c, 1, 62, 100
3, 40080, Note_on_c, 1, 57, 100
3, 40080, Note_on_c, 1, 53, 100
3, 40260, Note_on_c, 1, 53, 0
3, 40260, Note_on_c, 1, 57, 0
3, 40260, Note_on_c, 1, 62, 0
3, 40320, Note_on_c, 1, 53, 100
3, 40320, Note_on_c, 1, 57, 100
3, 40320, Note_on_c, 1, 62, 100
3, 40980, Note_on_c, 1, 62, 0
3, 40980, Note_on_c, 1, 57, 0
3, 40980, Note_on_c, 1, 53, 0
3, 41040, Note_on_c, 1, 60, 100
3, 41040, Note_on_c, 1, 52, 100
3, 41040, Note_on_c, 1, 55, 100
3, 41220, Note_on_c, 1, 55, 0
3, 41220, Note_on_c, 1, 52, 0
3, 41220, Note_on_c, 1, 60, 0
3, 41280, Note_on_c, 1, 62, 100
3, 41280, Note_on_c, 1, 57, 100
3, 41280, Note_on_c, 1, 53, 100
3, 41460, Note_on_c, 1, 53, 0
3, 41460, Note_on_c, 1, 57, 0
3, 41460, Note_on_c, 1, 62, 0
3, 41520, Note_on_c, 1, 62, 100
3, 41520, Note_on_c, 1, 57, 100
3, 41520, Note_on_c, 1, 53, 100
3, 41700, Note_on_c, 1, 53, 0
3, 41700, Note_on_c, 1, 57, 0
3, 41700, Note_on_c, 1, 62, 0
3, 41760, Note_on_c, 1, 62, 100
3, 41760, Note_on_c, 1, 57, 100
3, 41760, Note_on_c, 1, 53, 100
3, 41940, Note_on_c, 1, 53, 0
3, 41940, Note_on_c, 1, 57, 0
3, 41940, Note_on_c, 1, 62, 0
3, 42000, Note_on_c, 1, 60, 100
3, 42000, Note_on_c, 1, 55, 100
3, 42000, Note_on_c, 1, 52, 100
3, 42180, Note_on_c, 1, 52, 0
3, 42180, Note_on_c, 1, 55, 0
3, 42180, Note_on_c, 1, 60, 0
3, 42240, Note_on_c, 1, 53, 100
3, 42240, Note_on_c, 1, 57, 100
3, 42240, Note_on_c, 1, 62, 100
3, 42420, Note_on_c, 1, 62, 0
3, 42420, Note_on_c, 1, 57, 0
3, 42420, Note_on_c, 1, 53, 0
3, 42480, Note_on_c, 1, 59, 100
3, 42480, Note_on_c, 1, 62, 100
3, 42480, Note_on_c, 1, 67, 100
3, 42900, Note_on_c, 1, 67, 0
3, 42900, Note_on_c, 1, 62, 0
3, 42900, Note_on_c, 1, 59, 0
3, 42960, Note_on_c, 1, 67, 100
3, 42960, Note_on_c, 1, 62, 100
3, 42960, Note_on_c, 1, 59, 100
3, 43380, Note_on_c, 1, 59, 0
3, 43380, Note_on_c, 1, 62, 0
3, 43380, Note_on_c, 1, 67, 0
3, 43440, Note_on_c, 1, 53, 100
3, 43440, Note_on_c, 1, 57, 100
3, 43440, Note_on_c, 1, 62, 100
3, 43860, Note_on_c, 1, 62, 0
3, 43860, Note_on_c, 1, 57, 0
3, 43860, Note_on_c, 1, 53, 0
3, 43920, Note_on_c, 1, 52, 100
3, 43920, Note_on_c, 1, 55, 100
3, 43920, Note_on_c, 1, 60, 100
3, 44100, Note_on_c, 1, 60, 0
3, 44100, Note_on_c, 1, 55, 0
3, 44100, Note_on_c, 1, 52, 0
3, 44160, Note_on_c, 1, 53, 100
3, 44160, Note_on_c, 1, 57, 100
3, 44160, Note_on_c, 1, 62, 100
3, 44820, Note_on_c, 1, 62, 0
3, 44820, Note_on_c, 1, 57, 0
3, 44820, Note_on_c, 1, 53, 0
3, 44880, Note_on_c, 1, 60, 100
3, 44880, Note_on_c, 1, 52, 100
3, 44880, Note_on_c, 1, 55, 100
3, 45060, Note_on_c, 1, 55, 0
3, 45060, Note_on_c, 1, 52, 0
3, 45060, Note_on_c, 1, 60, 0
3, 45120, Note_on_c, 1, 62, 100
3, 45120, Note_on_c, 1, 57, 100
3, 45120, Note_on_c, 1, 53, 100
3, 45300, Note_on_c, 1, 53, 0
3, 45300, Note_on_c, 1, 57, 0
3, 45300, Note_on_c, 1, 62, 0
3, 45360, Note_on_c, 1, 62, 100
3, 45360, Note_on_c, 1, 57, 100
3, 45360, Note_on_c, 1, 53, 100
3, 45540, Note_on_c, 1, 53, 0
3, 45540, Note_on_c, 1, 57, 0
3, 45540, Note_on_c, 1, 62, 0
3, 45600, Note_on_c, 1, 62, 100
3, 45600, Note_on_c, 1, 57, 100
3, 45600, Note_on_c, 1, 53, 100
3, 45780, Note_on_c, 1, 53, 0
3, 45780, Note_on_c, 1, 57, 0
3, 45780, Note_on_c, 1, 62, 0
3, 45840, Note_on_c, 1, 60, 100
3, 45840, Note_on_c, 1, 55, 100
3, 45840, Note_on_c, 1, 52, 100
3, 46020, Note_on_c, 1, 52, 0
3, 46020, Note_on_c, 1, 55, 0
3, 46020, Note_on_c, 1, 60, 0
3, 46080, Note_on_c, 1, 53, 100
3, 46080, Note_on_c, 1, 57, 100
3, 46080, Note_on_c, 1, 62, 100
3, 46260, Note_on_c, 1, 62, 0
3, 46260, Note_on_c, 1, 57, 0
3, 46260, Note_on_c, 1, 53, 0
3, 46320, Note_on_c, 1, 59, 100
3, 46320, Note_on_c, 1, 62, 100
3, 46320, Note_on_c, 1, 67, 100
3, 46740, Note_on_c, 1, 67, 0
3, 46740, Note_on_c, 1, 62, 0
3, 46740, Note_on_c, 1, 59, 0
3, 46800, Note_on_c, 1, 67, 100
3, 46800, Note_on_c, 1, 62, 100
3, 46800, Note_on_c, 1, 59, 100
3, 47220, Note_on_c, 1, 59, 0
3, 47220, Note_on_c, 1, 62, 0
3, 47220, Note_on_c, 1, 67, 0
3, 47280, Note_on_c, 1, 53, 100
3, 47280, Note_on_c, 1, 57, 100
3, 47280, Note_on_c, 1, 62, 100
3, 47700, Note_on_c, 1, 62, 0
3, 47700, Note_on_c, 1, 57, 0
3, 47700, Note_on_c, 1, 53, 0
3, 47760, Note_on_c, 1, 52, 100
3, 47760, Note_on_c, 1, 55, 100
3, 47760, Note_on_c, 1, 60, 100
3, 47940, Note_on_c, 1, 60, 0
3, 47940, Note_on_c, 1, 55, 0
3, 47940, Note_on_c, 1, 52, 0
3, 48000, Note_on_c, 1, 53, 100
3, 48000, Note_on_c, 1, 57, 100
3, 48000, Note_on_c, 1, 62, 100
3, 48660, Note_on_c, 1, 62, 0
3, 48660, Note_on_c, 1, 57, 0
3, 48660, Note_on_c, 1, 53, 0
3, 48720, Note_on_c, 1, 60, 100
3, 48720, Note_on_c, 1, 52, 100
3, 48720, Note_on_c, 1, 55, 100
3, 48900, Note_on_c, 1, 55, 0
3, 48900, Note_on_c, 1, 52, 0
3, 48900, Note_on_c, 1, 60, 0
3, 48960, Note_on_c, 1, 53, 100
3, 48960, Note_on_c, 1, 57, 100
3, 48960, Note_on_c, 1, 62, 100
3, 49620, Note_on_c, 1, 62, 0
3, 49620, Note_on_c, 1, 57, 0
3, 49620, Note_on_c, 1, 53, 0
3, 49680, Note_on_c, 1, 60, 100
3, 49680, Note_on_c, 1, 55, 100
3, 49680, Note_on_c, 1, 52, 100
3, 49860, Note_on_c, 1, 52, 0
3, 49860, Note_on_c, 1, 55, 0
3, 49860, Note_on_c, 1, 60, 0
3, 49920, Note_on_c, 1, 53, 100
3, 49920, Note_on_c, 1, 57, 100
3, 49920, Note_on_c, 1, 62, 100
3, 50100, Note_on_c, 1, 62, 0
3, 50100, Note_on_c, 1, 57, 0
3, 50100, Note_on_c, 1, 53, 0
3, 50160, Note_on_c, 1, 57, 100
3, 50160, Note_on_c, 1, 60, 100
3, 50160, Note_on_c, 1, 65, 100
3, 50580, Note_on_c, 1, 65, 0
3, 50580, Note_on_c, 1, 60, 0
3, 50580, Note_on_c, 1, 57, 0
3, 50640, Note_on_c, 1, 65, 100
3, 50640, Note_on_c, 1, 60, 100
3, 50640, Note_on_c, 1, 57, 100
3, 51060, Note_on_c, 1, 57, 0
3, 51060, Note_on_c, 1, 60, 0
3, 51060, Note_on_c, 1, 65, 0
3, 51120, Note_on_c, 1, 55, 100
3, 51120, Note_on_c, 1, 59, 100
3, 51120, Note_on_c, 1, 63, 100
3, 51540, Note_on_c, 1, 63, 0
3, 51540, Note_on_c, 1, 59, 0
3, 51540, Note_on_c, 1, 55, 0
3, 51600, Note_on_c, 1, 62, 100
3, 51600, Note_on_c, 1, 57, 100
3, 51600, Note_on_c, 1, 53, 100
3, 51780, Note_on_c, 1, 53, 0
3, 51780, Note_on_c, 1, 57, 0
3, 51780, Note_on_c, 1, 62, 0
3, 51840, Note_on_c, 1, 53, 100
3, 51840, Note_on_c, 1, 57, 100
3, 51840, Note_on_c, 1, 62, 100
3, 52500, Note_on_c, 1, 62, 0
3, 52500, Note_on_c, 1, 57, 0
3, 52500, Note_on_c, 1, 53, 0
3, 52560, Note_on_c, 1, 60, 100
3, 52560, Note_on_c, 1, 52, 100
3, 52560, Note_on_c, 1, 55, 100
3, 52740, Note_on_c, 1, 55, 0
3, 52740, Note_on_c, 1, 52, 0
3, 52740, Note_on_c, 1, 60, 0
3, 52800, Note_on_c, 1, 62, 100
3, 52800, Note_on_c, 1, 57, 100
3, 52800, Note_on_c, 1, 53, 100
3, 52980, Note_on_c, 1, 53, 0
3, 52980, Note_on_c, 1, 57, 0
3, 52980, Note_on_c, 1, 62, 0
3, 53040, Note_on_c, 1, 62, 100
3, 53040, Note_on_c, 1, 57, 100
3, 53040, Note_on_c, 1, 53, 100
3, 53220, Note_on_c, 1, 53, 0
3, 53220, Note_on_c, 1, 57, 0
3, 53220, Note_on_c, 1, 62, 0
3, 53280, Note_on_c, 1, 62, 100
3, 53280, Note_on_c, 1, 57, 100
3, 53280, Note_on_c, 1, 53, 100
3, 53460, Note_on_c, 1, 53, 0
3, 53460, Note_on_c, 1, 57, 0
3, 53460, Note_on_c, 1, 62, 0
3, 53520, Note_on_c, 1, 60, 100
3, 53520, Note_on_c, 1, 55, 100
3, 53520, Note_on_c, 1, 52, 100
3, 53700, Note_on_c, 1, 52, 0
3, 53700, Note_on_c, 1, 55, 0
3, 53700, Note_on_c, 1, 60, 0
3, 53760, Note_on_c, 1, 53, 100
3, 53760, Note_on_c, 1, 57, 100
3, 53760, Note_on_c, 1, 62, 100
3, 53940, Note_on_c, 1, 62, 0
3, 53940, Note_on_c, 1, 57, 0
3, 53940, Note_on_c, 1, 53, 0
3, 54000, Note_on_c, 1, 57, 100
3, 54000, Note_on_c, 1, 60, 100
3, 54000, Note_on_c, 1, 65, 100
3, 54420, Note_on_c, 1, 65, 0
3, 54420, Note_on_c, 1, 60, 0
3, 54420, Note_on_c, 1, 57, 0
3, 54480, Note_on_c, 1, 65, 100
3, 54480, Note_on_c, 1, 60, 100
3, 54480, Note_on_c, 1, 57, 100
3, 54900, Note_on_c, 1, 57, 0
3, 54900, Note_on_c, 1, 60, 0
3, 54900, Note_on_c, 1, 65, 0
3, 54960, Note_on_c, 1, 67, 100
3, 54960, Note_on_c, 1, 62, 100
3, 54960, Note_on_c, 1, 59, 100
3, 55380, Note_on_c, 1, 59, 0
3, 55380, Note_on_c, 1, 62, 0
3, 55380, Note_on_c, 1, 67, 0
3, 55440, Note_on_c, 1, 67, 100
3, 55440, Note_on_c, 1, 62, 100
3, 55440, Note_on_c, 1, 59, 100
3, 55620, Note_on_c, 1, 59, 0
3, 55620, Note_on_c, 1, 62, 0
3, 55620, Note_on_c, 1, 67, 0
3, 55680, Note_on_c, 1, 53, 100
3, 55680, Note_on_c, 1, 57, 100
3, 55680, Note_on_c, 1, 62, 100
3, 56340, Note_on_c, 1, 62, 0
3, 56340, Note_on_c, 1, 57, 0
3, 56340, Note_on_c, 1, 53, 0
3, 56400, Note_on_c, 1, 60, 100
3, 56400, Note_on_c, 1, 52, 100
3, 56400, Note_on_c, 1, 55, 100
3, 56580, Note_on_c, 1, 55, 0
3, 56580, Note_on_c, 1, 52, 0
3, 56580, Note_on_c, 1, 60, 0
3, 56640, Note_on_c, 1, 62, 100
3, 56640, Note_on_c, 1, 57, 100
3, 56640, Note_on_c, 1, 53, 100
3, 56820, Note_on_c, 1, 53, 0
3, 56820, Note_on_c, 1, 57, 0
3, 56820, Note_on_c, 1, 62, 0
3, 56880, Note_on_c, 1, 62, 100
3, 56880, Note_on_c, 1, 57, 100
3, 56880, Note_on_c, 1, 53, 100
3, 57060, Note_on_c, 1, 53, 0
3, 57060, Note_on_c, 1, 57, 0
3, 57060, Note_on_c, 1, 62, 0
3, 57120, Note_on_c, 1, 62, 100
3, 57120, Note_on_c, 1, 57, 100
3, 57120, Note_on_c, 1, 53, 100
3, 57300, Note_on_c, 1, 53, 0
3, 57300, Note_on_c, 1, 57, 0
3, 57300, Note_on_c, 1, 62, 0
3, 57360, Note_on_c, 1, 60, 100
3, 57360, Note_on_c, 1, 55, 100
3, 57360, Note_on_c, 1, 52, 100
3, 57540, Note_on_c, 1, 52, 0
3, 57540, Note_on_c, 1, 55, 0
3, 57540, Note_on_c, 1, 60, 0
3, 57600, Note_on_c, 1, 53, 100
3, 57600, Note_on_c, 1, 57, 100
3, 57600, Note_on_c, 1, 62, 100
3, 57780, Note_on_c, 1, 62, 0
3, 57780, Note_on_c, 1, 57, 0
3, 57780, Note_on_c, 1, 53, 0
3, 57840, Note_on_c, 1, 57, 100
3, 57840, Note_on_c, 1, 60, 100
3, 57840, Note_on_c, 1, 65, 100
3, 58260, Note_on_c, 1, 65, 0
3, 58260, Note_on_c, 1, 60, 0
3, 58260, Note_on_c, 1, 57, 0
3, 58320, Note_on_c, 1, 65, 100
3, 58320, Note_on_c, 1, 60, 100
3, 58320, Note_on_c, 1, 57, 100
3, 58740, Note_on_c, 1, 57, 0
3, 58740, Note_on_c, 1, 60, 0
3, 58740, Note_on_c, 1, 65, 0
3, 58800, Note_on_c, 1, 55, 100
3, 58800, Note_on_c, 1, 59, 100
3, 58800, Note_on_c, 1, 63, 100
3, 59220, Note_on_c, 1, 63, 0
3, 59220, Note_on_c, 1, 59, 0
3, 59220, Note_on_c, 1, 55, 0
3, 59280, Note_on_c, 1, 62, 100
3, 59280, Note_on_c, 1, 57, 100
3, 59280, Note_on_c, 1, 53, 100
3, 59460, Note_on_c, 1, 53, 0
3, 59460, Note_on_c, 1, 57, 0
3, 59460, Note_on_c, 1, 62, 0
3, 59520, Note_on_c, 1, 53, 100
3, 59520, Note_on_c, 1, 57, 100
3, 59520, Note_on_c, 1, 62, 100
3, 60180, Note_on_c, 1, 62, 0
3, 60180, Note_on_c, 1, 57, 0
3, 60180, Note_on_c, 1, 53, 0
3, 60240, Note_on_c, 1, 60, 100
3, 60240, Note_on_c, 1, 52, 100
3, 60240, Note_on_c, 1, 55, 100
3, 60420, Note_on_c, 1, 55, 0
3, 60420, Note_on_c, 1, 52, 0
3, 60420, Note_on_c, 1, 60, 0
3, 60480, Note_on_c, 1, 62, 100
3, 60480, Note_on_c, 1, 57, 100
3, 60480, Note_on_c, 1, 53, 100
3, 60660, Note_on_c, 1, 53, 0
3, 60660, Note_on_c, 1, 57, 0
3, 60660, Note_on_c, 1, 62, 0
3, 60720, Note_on_c, 1, 62, 100
3, 60720, Note_on_c, 1, 57, 100
3, 60720, Note_on_c, 1, 53, 100
3, 60900, Note_on_c, 1, 53, 0
3, 60900, Note_on_c, 1, 57, 0
3, 60900, Note_on_c, 1, 62, 0
3, 60960, Note_on_c, 1, 62, 100
3, 60960, Note_on_c, 1, 57, 100
3, 60960, Note_on_c, 1, 53, 100
3, 61140, Note_on_c, 1, 53, 0
3, 61140, Note_on_c, 1, 57, 0
3, 61140, Note_on_c, 1, 62, 0
3, 61200, Note_on_c, 1, 60, 100
3, 61200, Note_on_c, 1, 55, 100
3, 61200, Note_on_c, 1, 52, 100
3, 61380, Note_on_c, 1, 52, 0
3, 61380, Note_on_c, 1, 55, 0
3, 61380, Note_on_c, 1, 60, 0
3, 61440, Note_on_c, 1, 53, 100
3, 61440, Note_on_c, 1, 57, 100
3, 61440, Note_on_c, 1, 62, 100
3, 61620, Note_on_c, 1, 62, 0
3, 61620, Note_on_c, 1, 57, 0
3, 61620, Note_on_c, 1, 53, 0
3, 61680, Note_on_c, 1, 59, 100
3, 61680, Note_on_c, 1, 62, 100
3, 61680, Note_on_c, 1, 67, 100
3, 62100, Note_on_c, 1, 67, 0
3, 62100, Note_on_c, 1, 62, 0
3, 62100, Note_on_c, 1, 59, 0
3, 62160, Note_on_c, 1, 67, 100
3, 62160, Note_on_c, 1, 62, 100
3, 62160, Note_on_c, 1, 59, 100
3, 62580, Note_on_c, 1, 59, 0
3, 62580, Note_on_c, 1, 62, 0
3, 62580, Note_on_c, 1, 67, 0
3, 62640, Note_on_c, 1, 53, 100
3, 62640, Note_on_c, 1, 57, 100
3, 62640, Note_on_c, 1, 62, 100
3, 63060, Note_on_c, 1, 62, 0
3, 63060, Note_on_c, 1, 57, 0
3, 63060, Note_on_c, 1, 53, 0
3, 63120, Note_on_c, 1, 52, 100
3, 63120, Note_on_c, 1, 55, 100
3, 63120, Note_on_c, 1, 60, 100
3, 63300, Note_on_c, 1, 60, 0
3, 63300, Note_on_c, 1, 55, 0
3, 63300, Note_on_c, 1, 52, 0
3, 63360, Note_on_c, 1, 53, 100
3, 63360, Note_on_c, 1, 57, 100
3, 63360, Note_on_c, 1, 62, 100
3, 64020, Note_on_c, 1, 62, 0
3, 64020, Note_on_c, 1, 57, 0
3, 64020, Note_on_c, 1, 53, 0
3, 64080, Note_on_c, 1, 60, 100
3, 64080, Note_on_c, 1, 52, 100
3, 64080, Note_on_c, 1, 55, 100
3, 64260, Note_on_c, 1, 55, 0
3, 64260, Note_on_c, 1, 52, 0
3, 64260, Note_on_c, 1, 60, 0
3, 64320, Note_on_c, 1, 62, 100
3, 64320, Note_on_c, 1, 57, 100
3, 64320, Note_on_c, 1, 53, 100
3, 64500, Note_on_c, 1, 53, 0
3, 64500, Note_on_c, 1, 57, 0
3, 64500, Note_on_c, 1, 62, 0
3, 64560, Note_on_c, 1, 62, 100
3, 64560, Note_on_c, 1, 57, 100
3, 64560, Note_on_c, 1, 53, 100
3, 64740, Note_on_c, 1, 53, 0
3, 64740, Note_on_c, 1, 57, 0
3, 64740, Note_on_c, 1, 62, 0
3, 64800, Note_on_c, 1, 62, 100
3, 64800, Note_on_c, 1, 57, 100
3, 64800, Note_on_c, 1, 53, 100
3, 64980, Note_on_c, 1, 53, 0
3, 64980, Note_on_c, 1, 57, 0
3, 64980, Note_on_c, 1, 62, 0
3, 65040, Note_on_c, 1, 60, 100
3, 65040, Note_on_c, 1, 55, 100
3, 65040, Note_on_c, 1, 52, 100
3, 65220, Note_on_c, 1, 52, 0
3, 65220, Note_on_c, 1, 55, 0
3, 65220, Note_on_c, 1, 60, 0
3, 65280, Note_on_c, 1, 53, 100
3, 65280, Note_on_c, 1, 57, 100
3, 65280, Note_on_c, 1, 62, 100
3, 65460, Note_on_c, 1, 62, 0
3, 65460, Note_on_c, 1, 57, 0
3, 65460, Note_on_c, 1, 53, 0
3, 65520, Note_on_c, 1, 59, 100
3, 65520, Note_on_c, 1, 62, 100
3, 65520, Note_on_c, 1, 67, 100
3, 65940, Note_on_c, 1, 67, 0
3, 65940, Note_on_c, 1, 62, 0
3, 65940, Note_on_c, 1, 59, 0
3, 66000, Note_on_c, 1, 67, 100
3, 66000, Note_on_c, 1, 62, 100
3, 66000, Note_on_c, 1, 59, 100
3, 66420, Note_on_c, 1, 59, 0
3, 66420, Note_on_c, 1, 62, 0
3, 66420, Note_on_c, 1, 67, 0
3, 66480, Note_on_c, 1, 53, 100
3, 66480, Note_on_c, 1, 57, 100
3, 66480, Note_on_c, 1, 62, 100
3, 66900, Note_on_c, 1, 62, 0
3, 66900, Note_on_c, 1, 57, 0
3, 66900, Note_on_c, 1, 53, 0
3, 66960, Note_on_c, 1, 52, 100
3, 66960, Note_on_c, 1, 55, 100
3, 66960, Note_on_c, 1, 60, 100
3, 67140, Note_on_c, 1, 60, 0
3, 67140, Note_on_c, 1, 55, 0
3, 67140, Note_on_c, 1, 52, 0
3, 67200, Note_on_c, 1, 53, 100
3, 67200, Note_on_c, 1, 57, 100
3, 67200, Note_on_c, 1, 62, 100
3, 67860, Note_on_c, 1, 62, 0
3, 67860, Note_on_c, 1, 57, 0
3, 67860, Note_on_c, 1, 53, 0
3, 67920, Note_on_c, 1, 60, 100
3, 67920, Note_on_c, 1, 52, 100
3, 67920, Note_on_c, 1, 55, 100
3, 68100, Note_on_c, 1, 55, 0
3, 68100, Note_on_c, 1, 52, 0
3, 68100, Note_on_c, 1, 60, 0
3, 68160, Note_on_c, 1, 62, 100
3, 68160, Note_on_c, 1, 57, 100
3, 68160, Note_on_c, 1, 53, 100
3, 68340, Note_on_c, 1, 53, 0
3, 68340, Note_on_c, 1, 57, 0
3, 68340, Note_on_c, 1, 62, 0
3, 68400, Note_on_c, 1, 62, 100
3, 68400, Note_on_c, 1, 57, 100
3, 68400, Note_on_c, 1, 53, 100
3, 68580, Note_on_c, 1, 53, 0
3, 68580, Note_on_c, 1, 57, 0
3, 68580, Note_on_c, 1, 62, 0
3, 68640, Note_on_c, 1, 62, 100
3, 68640, Note_on_c, 1, 57, 100
3, 68640, Note_on_c, 1, 53, 100
3, 68820, Note_on_c, 1, 53, 0
3, 68820, Note_on_c, 1, 57, 0
3, 68820, Note_on_c, 1, 62, 0
3, 68880, Note_on_c, 1, 60, 100
3, 68880, Note_on_c, 1, 55, 100
3, 68880, Note_on_c, 1, 52, 100
3, 69060, Note_on_c, 1, 52, 0
3, 69060, Note_on_c, 1, 55, 0
3, 69060, Note_on_c, 1, 60, 0
3, 69120, Note_on_c, 1, 53, 100
3, 69120, Note_on_c, 1, 57, 100
3, 69120, Note_on_c, 1, 62, 100
3, 69300, Note_on_c, 1, 62, 0
3, 69300, Note_on_c, 1, 57, 0
3, 69300, Note_on_c, 1, 53, 0
3, 69360, Note_on_c, 1, 57, 100
3, 69360, Note_on_c, 1, 60, 100
3, 69360, Note_on_c, 1, 65, 100
3, 69780, Note_on_c, 1, 65, 0
3, 69780, Note_on_c, 1, 60, 0
3, 69780, Note_on_c, 1, 57, 0
3, 69840, Note_on_c, 1, 65, 100
3, 69840, Note_on_c, 1, 60, 100
3, 69840, Note_on_c, 1, 57, 100
3, 70260, Note_on_c, 1, 57, 0
3, 70260, Note_on_c, 1, 60, 0
3, 70260, Note_on_c, 1, 65, 0
3, 70320, Note_on_c, 1, 55, 100
3, 70320, Note_on_c, 1, 59, 100
3, 70320, Note_on_c, 1, 63, 100
3, 70740, Note_on_c, 1, 63, 0
3, 70740, Note_on_c, 1, 59, 0
3, 70740, Note_on_c, 1, 55, 0
3, 70800, Note_on_c, 1, 62, 100
3, 70800, Note_on_c, 1, 57, 100
3, 70800, Note_on_c, 1, 53, 100
3, 70980, Note_on_c, 1, 53, 0
3, 70980, Note_on_c, 1, 57, 0
3, 70980, Note_on_c, 1, 62, 0
3, 71040, Note_on_c, 1, 53, 100
3, 71040, Note_on_c, 1, 57, 100
3, 71040, Note_on_c, 1, 62, 100
3, 71700, Note_on_c, 1, 62, 0
3, 71700, Note_on_c, 1, 57, 0
3, 71700, Note_on_c, 1, 53, 0
3, 71760, Note_on_c, 1, 60, 100
3, 71760, Note_on_c, 1, 52, 100
3, 71760, Note_on_c, 1, 55, 100
3, 71940, Note_on_c, 1, 55, 0
3, 71940, Note_on_c, 1, 52, 0
3, 71940, Note_on_c, 1, 60, 0
3, 72000, Note_on_c, 1, 62, 100
3, 72000, Note_on_c, 1, 57, 100
3, 72000, Note_on_c, 1, 53, 100
3, 72180, Note_on_c, 1, 53, 0
3, 72180, Note_on_c, 1, 57, 0
3, 72180, Note_on_c, 1, 62, 0
3, 72240, Note_on_c, 1, 62, 100
3, 72240, Note_on_c, 1, 57, 100
3, 72240, Note_on_c, 1, 53, 100
3, 72420, Note_on_c, 1, 53, 0
3, 72420, Note_on_c, 1, 57, 0
3, 72420, Note_on_c, 1, 62, 0
3, 72480, Note_on_c, 1, 62, 100
3, 72480, Note_on_c, 1, 57, 100
3, 72480, Note_on_c, 1, 53, 100
3, 72660, Note_on_c, 1, 53, 0
3, 72660, Note_on_c, 1, 57, 0
3, 72660, Note_on_c, 1, 62, 0
3, 72720, Note_on_c, 1, 60, 100
3, 72720, Note_on_c, 1, 55, 100
3, 72720, Note_on_c, 1, 52, 100
3, 72900, Note_on_c, 1, 52, 0
3, 72900, Note_on_c, 1, 55, 0
3, 72900, Note_on_c, 1, 60, 0
3, 72960, Note_on_c, 1, 53, 100
3, 72960, Note_on_c, 1, 57, 100
3, 72960, Note_on_c, 1, 62, 100
3, 73140, Note_on_c, 1, 62, 0
3, 73140, Note_on_c, 1, 57, 0
3, 73140, Note_on_c, 1, 53, 0
3, 73200, Note_on_c, 1, 57, 100
3, 73200, Note_on_c, 1, 60, 100
3, 73200, Note_on_c, 1, 65, 100
3, 73620, Note_on_c, 1, 65, 0
3, 73620, Note_on_c, 1, 60, 0
3, 73620, Note_on_c, 1, 57, 0
3, 73680, Note_on_c, 1, 65, 100
3, 73680, Note_on_c, 1, 60, 100
3, 73680, Note_on_c, 1, 57, 100
3, 74100, Note_on_c, 1, 57, 0
3, 74100, Note_on_c, 1, 60, 0
3, 74100, Note_on_c, 1, 65, 0
3, 74160, Note_on_c, 1, 55, 100
3, 74160, Note_on_c, 1, 59, 100
3, 74160, Note_on_c, 1, 63, 100
3, 74580, Note_on_c, 1, 63, 0
3, 74580, Note_on_c, 1, 59, 0
3, 74580, Note_on_c, 1, 55, 0
3, 74640, Note_on_c, 1, 62, 100
3, 74640, Note_on_c, 1, 57, 100
3, 74640, Note_on_c, 1, 53, 100
3, 74820, Note_on_c, 1, 53, 0
3, 74820, Note_on_c, 1, 57, 0
3, 74820, Note_on_c, 1, 62, 0
3, 74880, Note_on_c, 1, 62, 100
3, 74880, Note_on_c, 1, 57, 100
3, 74880, Note_on_c, 1, 53, 100
3, 76561, Note_on_c, 1, 53, 0
3, 76641, Note_on_c, 1, 57, 0
3, 76689, Note_on_c, 1, 62, 0
3, 77760, Note_on_c, 1, 62, 100
3, 77940, Note_on_c, 1, 62, 0
3, 78080, Note_on_c, 1, 65, 100
3, 78260, Note_on_c, 1, 65, 0
3, 78400, Note_on_c, 1, 69, 100
3, 78580, Note_on_c, 1, 69, 0
3, 78720, Note_on_c, 1, 60, 100
3, 78720, Note_on_c, 1, 64, 100
3, 78720, Note_on_c, 1, 67, 100
3, 79410, Note_on_c, 1, 67, 0
3, 79410, Note_on_c, 1, 64, 0
3, 79410, Note_on_c, 1, 60, 0
3, 79470, Note_on_c, 1, 67, 100
3, 79470, Note_on_c, 1, 64, 100
3, 79470, Note_on_c, 1, 60, 100
3, 79890, Note_on_c, 1, 60, 0
3, 79890, Note_on_c, 1, 64, 0
3, 79890, Note_on_c, 1, 67, 0
3, 79950, Note_on_c, 1, 60, 100
3, 79950, Note_on_c, 1, 64, 100
3, 79950, Note_on_c, 1, 67, 100
3, 80130, Note_on_c, 1, 67, 0
3, 80130, Note_on_c, 1, 64, 0
3, 80130, Note_on_c, 1, 60, 0
3, 80160, Note_on_c, 1, 67, 100
3, 80190, Note_on_c, 1, 64, 100
3, 80190, Note_on_c, 1, 60, 100
3, 81060, Note_on_c, 1, 60, 0
3, 81060, Note_on_c, 1, 64, 0
3, 81060, Note_on_c, 1, 67, 0
3, 81120, Note_on_c, 1, 62, 100
3, 81120, Note_on_c, 1, 65, 100
3, 81120, Note_on_c, 1, 69, 100
3, 81540, Note_on_c, 1, 69, 0
3, 81540, Note_on_c, 1, 65, 0
3, 81540, Note_on_c, 1, 62, 0
3, 81600, Note_on_c, 1, 62, 100
3, 81780, Note_on_c, 1, 62, 0
3, 81920, Note_on_c, 1, 65, 100
3, 82100, Note_on_c, 1, 65, 0
3, 82240, Note_on_c, 1, 69, 100
3, 82420, Note_on_c, 1, 69, 0
3, 82560, Note_on_c, 1, 60, 100
3, 82560, Note_on_c, 1, 64, 100
3, 82560, Note_on_c, 1, 67, 100
3, 83250, Note_on_c, 1, 67, 0
3, 83250, Note_on_c, 1, 64, 0
3, 83250, Note_on_c, 1, 60, 0
3, 83310, Note_on_c, 1, 67, 100
3, 83310, Note_on_c, 1, 64, 100
3, 83310, Note_on_c, 1, 60, 100
3, 83730, Note_on_c, 1, 60, 0
3, 83730, Note_on_c, 1, 64, 0
3, 83730, Note_on_c, 1, 67, 0
3, 83790, Note_on_c, 1, 60, 100
3, 83790, Note_on_c, 1, 64, 100
3, 83790, Note_on_c, 1, 67, 100
3, 83970, Note_on_c, 1, 67, 0
3, 83970, Note_on_c, 1, 64, 0
3, 83970, Note_on_c, 1, 60, 0
3, 84000, Note_on_c, 1, 67, 100
3, 84030, Note_on_c, 1, 64, 100
3, 84030, Note_on_c, 1, 60, 100
3, 84900, Note_on_c, 1, 60, 0
3, 84900, Note_on_c, 1, 64, 0
3, 84900, Note_on_c, 1, 67, 0
3, 84960, Note_on_c, 1, 57, 100
3, 84960, Note_on_c, 1, 62, 100
3, 84960, Note_on_c, 1, 65, 100
3, 85380, Note_on_c, 1, 65, 0
3, 85380, Note_on_c, 1, 62, 0
3, 85380, Note_on_c, 1, 57, 0
3, 85440, Note_on_c, 1, 62, 100
3, 85620, Note_on_c, 1, 62, 0
3, 85760, Note_on_c, 1, 65, 100
3, 85940, Note_on_c, 1, 65, 0
3, 86080, Note_on_c, 1, 69, 100
3, 86260, Note_on_c, 1, 69, 0
3, 86400, Note_on_c, 1, 60, 100
3, 86400, Note_on_c, 1, 64, 100
3, 86400, Note_on_c, 1, 67, 100
3, 87090, Note_on_c, 1, 67, 0
3, 87090, Note_on_c, 1, 64, 0
3, 87090, Note_on_c, 1, 60, 0
3, 87150, Note_on_c, 1, 67, 100
3, 87150, Note_on_c, 1, 64, 100
3, 87150, Note_on_c, 1, 60, 100
3, 87570, Note_on_c, 1, 60, 0
3, 87570, Note_on_c, 1, 64, 0
3, 87570, Note_on_c, 1, 67, 0
3, 87630, Note_on_c, 1, 60, 100
3, 87630, Note_on_c, 1, 64, 100
3, 87630, Note_on_c, 1, 67, 100
3, 87810, Note_on_c, 1, 67, 0
3, 87810, Note_on_c, 1, 64, 0
3, 87810, Note_on_c, 1, 60, 0
3, 87840, Note_on_c, 1, 67, 100
3, 87870, Note_on_c, 1, 64, 100
3, 87870, Note_on_c, 1, 60, 100
3, 88740, Note_on_c, 1, 60, 0
3, 88740, Note_on_c, 1, 64, 0
3, 88740, Note_on_c, 1, 67, 0
3, 88800, Note_on_c, 1, 62, 100
3, 88800, Note_on_c, 1, 65, 100
3, 88800, Note_on_c, 1, 69, 100
3, 89010, Note_on_c, 1, 69, 0
3, 89010, Note_on_c, 1, 65, 0
3, 89010, Note_on_c, 1, 62, 0
3, 90240, Note_on_c, 1, 62, 100
3, 90420, Note_on_c, 1, 62, 0
3, 90480, Note_on_c, 1, 65, 100
3, 90660, Note_on_c, 1, 65, 0
3, 90720, Note_on_c, 1, 69, 100
3, 90900, Note_on_c, 1, 69, 0
3, 90960, Note_on_c, 1, 67, 100
3, 91380, Note_on_c, 1, 67, 0
3, 91440, Note_on_c, 1, 60, 100
3, 91620, Note_on_c, 1, 60, 0
3, 91680, Note_on_c, 1, 62, 100
3, 91860, Note_on_c, 1, 62, 0
3, 91920, Note_on_c, 1, 65, 100
3, 92100, Note_on_c, 1, 65, 0
3, 92160, Note_on_c, 1, 69, 100
3, 92340, Note_on_c, 1, 69, 0
3, 92400, Note_on_c, 1, 67, 100
3, 93060, Note_on_c, 1, 67, 0
3, 93120, Note_on_c, 1, 62, 100
3, 93300, Note_on_c, 1, 62, 0
3, 93360, Note_on_c, 1, 65, 100
3, 93540, Note_on_c, 1, 65, 0
3, 93600, Note_on_c, 1, 69, 100
3, 93780, Note_on_c, 1, 69, 0
3, 93840, Note_on_c, 1, 67, 100
3, 94260, Note_on_c, 1, 67, 0
3, 94320, Note_on_c, 1, 60, 100
3, 94500, Note_on_c, 1, 60, 0
3, 94560, Note_on_c, 1, 62, 100
3, 94740, Note_on_c, 1, 62, 0
3, 94800, Note_on_c, 1, 65, 100
3, 94980, Note_on_c, 1, 65, 0
3, 95040, Note_on_c, 1, 69, 100
3, 95220, Note_on_c, 1, 69, 0
3, 95280, Note_on_c, 1, 67, 100
3, 95940, Note_on_c, 1, 67, 0
3, 96000, Note_on_c, 1, 62, 100
3, 96180, Note_on_c, 1, 62, 0
3, 96240, Note_on_c, 1, 65, 100
3, 96420, Note_on_c, 1, 65, 0
3, 96480, Note_on_c, 1, 69, 100
3, 96660, Note_on_c, 1, 69, 0
3, 96720, Note_on_c, 1, 67, 100
3, 97140, Note_on_c, 1, 67, 0
3, 97200, Note_on_c, 1, 60, 100
3, 97380, Note_on_c, 1, 60, 0
3, 97440, Note_on_c, 1, 62, 100
3, 97620, Note_on_c, 1, 62, 0
3, 97680, Note_on_c, 1, 65, 100
3, 97860, Note_on_c, 1, 65, 0
3, 97920, Note_on_c, 1, 69, 100
3, 98100, Note_on_c, 1, 69, 0
3, 98160, Note_on_c, 1, 64, 100
3, 98160, Note_on_c, 1, 68, 100
3, 98160, Note_on_c, 1, 72, 100
3, 99060, Note_on_c, 1, 72, 0
3, 99060, Note_on_c, 1, 68, 0
3, 99060, Note_on_c, 1, 64, 0
3, 99120, Note_on_c, 1, 63, 100
3, 99120, Note_on_c, 1, 66, 100
3, 99120, Note_on_c, 1, 70, 100
3, 100020, Note_on_c, 1, 70, 0
3, 100020, Note_on_c, 1, 66, 0
3, 100020, Note_on_c, 1, 63, 0
3, 100080, Note_on_c, 1, 62, 100
3, 100080, Note_on_c, 1, 65, 100
3, 100080, Note_on_c, 1, 70, 100
3, 100980, Note_on_c, 1, 70, 0
3, 100980, Note_on_c, 1, 65, 0
3, 100980, Note_on_c, 1, 62, 0
3, 101040, Note_on_c, 1, 64, 100
3, 101040, Note_on_c, 1, 67, 100
3, 101040, Note_on_c, 1, 72, 100
3, 101940, Note_on_c, 1, 72, 0
3, 101940, Note_on_c, 1, 67, 0
3, 101940, Note_on_c, 1, 64, 0
3, 102000, Note_on_c, 1, 62, 100
3, 103860, Note_on_c, 1, 62, 0
3, 103920, Note_on_c, 1, 57, 100
3, 103920, Note_on_c, 1, 62, 100
3, 103920, Note_on_c, 1, 65, 100
3, 104340, Note_on_c, 1, 65, 0
3, 104340, Note_on_c, 1, 62, 0
3, 104340, Note_on_c, 1, 57, 0
3, 104400, Note_on_c, 1, 65, 100
3, 104400, Note_on_c, 1, 62, 100
3, 104400, Note_on_c, 1, 57, 100
3, 104820, Note_on_c, 1, 57, 0
3, 104820, Note_on_c, 1, 62, 0
3, 104820, Note_on_c, 1, 65, 0
3, 104880, Note_on_c, 1, 57, 100
3, 104880, Note_on_c, 1, 62, 100
3, 104880, Note_on_c, 1, 65, 100
3, 105300, Note_on_c, 1, 65, 0
3, 105300, Note_on_c, 1, 62, 0
3, 105300, Note_on_c, 1, 57, 0
3, 105360, Note_on_c, 1, 65, 100
3, 105360, Note_on_c, 1, 62, 100
3, 105360, Note_on_c, 1, 57, 100
3, 105780, Note_on_c, 1, 57, 0
3, 105780, Note_on_c, 1, 62, 0
3, 105780, Note_on_c, 1, 65, 0
3, 105840, Note_on_c, 1, 65, 100
3, 105840, Note_on_c, 1, 69, 100
3, 105840, Note_on_c, 1, 74, 100
3, 105840, Note_on_c, 1, 77, 100
3, 109380, Note_on_c, 1, 77, 0
3, 109380, Note_on_c, 1, 65, 0
3, 109380, Note_on_c, 1, 69, 0
3, 109380, Note_on_c, 1, 74, 0
3, 125040, Note_on_c, 1, 62, 100
3, 125040, Note_on_c, 1, 65, 100
3, 125040, Note_on_c, 1, 69, 100
3, 125700, Note_on_c, 1, 69, 0
3, 125700, Note_on_c, 1, 65, 0
3, 125700, Note_on_c, 1, 62, 0
3, 125760, Note_on_c, 1, 64, 100
3, 125760, Note_on_c, 1, 67, 100
3, 125760, Note_on_c, 1, 71, 100
3, 126420, Note_on_c, 1, 71, 0
3, 126420, Note_on_c, 1, 67, 0
3, 126420, Note_on_c, 1, 64, 0
3, 126480, Note_on_c, 1, 65, 100
3, 126480, Note_on_c, 1, 69, 100
3, 126480, Note_on_c, 1, 72, 100
3, 127140, Note_on_c, 1, 72, 0
3, 127140, Note_on_c, 1, 69, 0
3, 127140, Note_on_c, 1, 65, 0
3, 127200, Note_on_c, 1, 67, 100
3, 127200, Note_on_c, 1, 71, 100
3, 127200, Note_on_c, 1, 74, 100
3, 127860, Note_on_c, 1, 74, 0
3, 127860, Note_on_c, 1, 71, 0
3, 127860, Note_on_c, 1, 67, 0
3, 127920, Note_on_c, 1, 69, 100
3, 127920, Note_on_c, 1, 72, 100
3, 127920, Note_on_c, 1, 76, 100
3, 128340, Note_on_c, 1, 76, 0
3, 128340, Note_on_c, 1, 72, 0
3, 128340, Note_on_c, 1, 69, 0
3, 128880, Note_on_c, 1, 62, 100
3, 128880, Note_on_c, 1, 65, 100
3, 128880, Note_on_c, 1, 69, 100
3, 129540, Note_on_c, 1, 69, 0
3, 129540, Note_on_c, 1, 65, 0
3, 129540, Note_on_c, 1, 62, 0
3, 129600, Note_on_c, 1, 64, 100
3, 129600, Note_on_c, 1, 67, 100
3, 129600, Note_on_c, 1, 71, 100
3, 130260, Note_on_c, 1, 71, 0
3, 130260, Note_on_c, 1, 67, 0
3, 130260, Note_on_c, 1, 64, 0
3, 130320, Note_on_c, 1, 65, 100
3, 130320, Note_on_c, 1, 69, 100
3, 130320, Note_on_c, 1, 72, 100
3, 130980, Note_on_c, 1, 72, 0
3, 130980, Note_on_c, 1, 69, 0
3, 130980, Note_on_c, 1, 65, 0
3, 131040, Note_on_c, 1, 67, 100
3, 131040, Note_on_c, 1, 71, 100
3, 131040, Note_on_c, 1, 74, 100
3, 131700, Note_on_c, 1, 74, 0
3, 131700, Note_on_c, 1, 71, 0
3, 131700, Note_on_c, 1, 67, 0
3, 131760, Note_on_c, 1, 69, 100
3, 131760, Note_on_c, 1, 72, 100
3, 131760, Note_on_c, 1, 76, 100
3, 132180, Note_on_c, 1, 76, 0
3, 132180, Note_on_c, 1, 72, 0
3, 132180, Note_on_c, 1, 69, 0
3, 132720, Note_on_c, 1, 62, 100
3, 132720, Note_on_c, 1, 65, 100
3, 132720, Note_on_c, 1, 69, 100
3, 133380, Note_on_c, 1, 69, 0
3, 133380, Note_on_c, 1, 65, 0
3, 133380, Note_on_c, 1, 62, 0
3, 133440, Note_on_c, 1, 64, 100
3, 133440, Note_on_c, 1, 67, 100
3, 133440, Note_on_c, 1, 71, 100
3, 134100, Note_on_c, 1, 71, 0
3, 134100, Note_on_c, 1, 67, 0
3, 134100, Note_on_c, 1, 64, 0
3, 134160, Note_on_c, 1, 65, 100
3, 134160, Note_on_c, 1, 69, 100
3, 134160, Note_on_c, 1, 72, 100
3, 134820, Note_on_c, 1, 72, 0
3, 134820, Note_on_c, 1, 69, 0
3, 134820, Note_on_c, 1, 65, 0
3, 134880, Note_on_c, 1, 67, 100
3, 134880, Note_on_c, 1, 71, 100
3, 134880, Note_on_c, 1, 74, 100
3, 135540, Note_on_c, 1, 74, 0
3, 135540, Note_on_c, 1, 71, 0
3, 135540, Note_on_c, 1, 67, 0
3, 135600, Note_on_c, 1, 69, 100
3, 135600, Note_on_c, 1, 72, 100
3, 135600, Note_on_c, 1, 76, 100
3, 136020, Note_on_c, 1, 76, 0
3, 136020, Note_on_c, 1, 72, 0
3, 136020, Note_on_c, 1, 69, 0
3, 136560, Note_on_c, 1, 62, 100
3, 136560, Note_on_c, 1, 65, 100
3, 136560, Note_on_c, 1, 69, 100
3, 137220, Note_on_c, 1, 69, 0
3, 137220, Note_on_c, 1, 65, 0
3, 137220, Note_on_c, 1, 62, 0
3, 137280, Note_on_c, 1, 64, 100
3, 137280, Note_on_c, 1, 67, 100
3, 137280, Note_on_c, 1, 71, 100
3, 137940, Note_on_c, 1, 71, 0
3, 137940, Note_on_c, 1, 67, 0
3, 137940, Note_on_c, 1, 64, 0
3, 138000, Note_on_c, 1, 65, 100
3, 138000, Note_on_c, 1, 69, 100
3, 138000, Note_on_c, 1, 72, 100
3, 138660, Note_on_c, 1, 72, 0
3, 138660, Note_on_c, 1, 69, 0
3, 138660, Note_on_c, 1, 65, 0
3, 138720, Note_on_c, 1, 67, 100
3, 138720, Note_on_c, 1, 71, 100
3, 138720, Note_on_c, 1, 74, 100
3, 139380, Note_on_c, 1, 74, 0
3, 139380, Note_on_c, 1, 71, 0
3, 139380, Note_on_c, 1, 67, 0
3, 139440, Note_on_c, 1, 69, 100
3, 139440, Note_on_c, 1, 72, 100
3, 139440, Note_on_c, 1, 76, 100
3, 139860, Note_on_c, 1, 76, 0
3, 139860, Note_on_c, 1, 72, 0
3, 139860, Note_on_c, 1, 69, 0
3, 140400, Note_on_c, 1, 62, 100
3, 140400, Note_on_c, 1, 65, 100
3, 140400, Note_on_c, 1, 69, 100
3, 141060, Note_on_c, 1, 69, 0
3, 141060, Note_on_c, 1, 65, 0
3, 141060, Note_on_c, 1, 62, 0
3, 141120, Note_on_c, 1, 64, 100
3, 141120, Note_on_c, 1, 67, 100
3, 141120, Note_on_c, 1, 71, 100
3, 141780, Note_on_c, 1, 71, 0
3, 141780, Note_on_c, 1, 67, 0
3, 141780, Note_on_c, 1, 64, 0
3, 141840, Note_on_c, 1, 65, 100
3, 141840, Note_on_c, 1, 69, 100
3, 141840, Note_on_c, 1, 72, 100
3, 142500, Note_on_c, 1, 72, 0
3, 142500, Note_on_c, 1, 69, 0
3, 142500, Note_on_c, 1, 65, 0
3, 142560, Note_on_c, 1, 67, 100
3, 142560, Note_on_c, 1, 71, 100
3, 142560, Note_on_c, 1, 74, 100
3, 143220, Note_on_c, 1, 74, 0
3, 143220, Note_on_c, 1, 71, 0
3, 143220, Note_on_c, 1, 67, 0
3, 143280, Note_on_c, 1, 69, 100
3, 143280, Note_on_c, 1, 72, 100
3, 143280, Note_on_c, 1, 76, 100
3, 143700, Note_on_c, 1, 76, 0
3, 143700, Note_on_c, 1, 72, 0
3, 143700, Note_on_c, 1, 69, 0
3, 144240, Note_on_c, 1, 69, 100
3, 144300, Note_on_c, 1, 69, 0
3, 144480, Note_on_c, 1, 69, 100
3, 144540, Note_on_c, 1, 69, 0
3, 145200, Note_on_c, 1, 69, 100
3, 145260, Note_on_c, 1, 69, 0
3, 145440, Note_on_c, 1, 69, 100
3, 145500, Note_on_c, 1, 69, 0
3, 146160, Note_on_c, 1, 69, 100
3, 146220, Note_on_c, 1, 69, 0
3, 146400, Note_on_c, 1, 69, 100
3, 146460, Note_on_c, 1, 69, 0
3, 147120, Note_on_c, 1, 69, 100
3, 147180, Note_on_c, 1, 69, 0
3, 147360, Note_on_c, 1, 69, 100
3, 147420, Note_on_c, 1, 69, 0
3, 148080, Note_on_c, 1, 69, 100
3, 148140, Note_on_c, 1, 69, 0
3, 148320, Note_on_c, 1, 69, 100
3, 148380, Note_on_c, 1, 69, 0
3, 149040, Note_on_c, 1, 69, 100
3, 149100, Note_on_c, 1, 69, 0
3, 149280, Note_on_c, 1, 69, 100
3, 149340, Note_on_c, 1, 69, 0
3, 150000, Note_on_c, 1, 69, 100
3, 150060, Note_on_c, 1, 69, 0
3, 150240, Note_on_c, 1, 69, 100
3, 150300, Note_on_c, 1, 69, 0
3, 150960, Note_on_c, 1, 69, 100
3, 151020, Note_on_c, 1, 69, 0
3, 151200, Note_on_c, 1, 69, 100
3, 151260, Note_on_c, 1, 69, 0
3, 151920, Note_on_c, 1, 53, 100
3, 151920, Note_on_c, 1, 57, 100
3, 151920, Note_on_c, 1, 62, 100
3, 152580, Note_on_c, 1, 62, 0
3, 152580, Note_on_c, 1, 57, 0
3, 152580, Note_on_c, 1, 53, 0
3, 152640, Note_on_c, 1, 60, 100
3, 152640, Note_on_c, 1, 52, 100
3, 152640, Note_on_c, 1, 55, 100
3, 152820, Note_on_c, 1, 55, 0
3, 152820, Note_on_c, 1, 52, 0
3, 152820, Note_on_c, 1, 60, 0
3, 152880, Note_on_c, 1, 53, 100
3, 152880, Note_on_c, 1, 57, 100
3, 152880, Note_on_c, 1, 62, 100
3, 153540, Note_on_c, 1, 62, 0
3, 153540, Note_on_c, 1, 57, 0
3, 153540, Note_on_c, 1, 53, 0
3, 153600, Note_on_c, 1, 60, 100
3, 153600, Note_on_c, 1, 55, 100
3, 153600, Note_on_c, 1, 52, 100
3, 153780, Note_on_c, 1, 52, 0
3, 153780, Note_on_c, 1, 55, 0
3, 153780, Note_on_c, 1, 60, 0
3, 153840, Note_on_c, 1, 53, 100
3, 153840, Note_on_c, 1, 57, 100
3, 153840, Note_on_c, 1, 62, 100
3, 154020, Note_on_c, 1, 62, 0
3, 154020, Note_on_c, 1, 57, 0
3, 154020, Note_on_c, 1, 53, 0
3, 154080, Note_on_c, 1, 57, 100
3, 154080, Note_on_c, 1, 60, 100
3, 154080, Note_on_c, 1, 65, 100
3, 154500, Note_on_c, 1, 65, 0
3, 154500, Note_on_c, 1, 60, 0
3, 154500, Note_on_c, 1, 57, 0
3, 154560, Note_on_c, 1, 65, 100
3, 154560, Note_on_c, 1, 60, 100
3, 154560, Note_on_c, 1, 57, 100
3, 154980, Note_on_c, 1, 57, 0
3, 154980, Note_on_c, 1, 60, 0
3, 154980, Note_on_c, 1, 65, 0
3, 155040, Note_on_c, 1, 55, 100
3, 155040, Note_on_c, 1, 59, 100
3, 155040, Note_on_c, 1, 63, 100
3, 155460, Note_on_c, 1, 63, 0
3, 155460, Note_on_c, 1, 59, 0
3, 155460, Note_on_c, 1, 55, 0
3, 155520, Note_on_c, 1, 60, 100
3, 155700, Note_on_c, 1, 60, 0
3, 155760, Note_on_c, 1, 53, 100
3, 155760, Note_on_c, 1, 57, 100
3, 155760, Note_on_c, 1, 62, 100
3, 156420, Note_on_c, 1, 62, 0
3, 156420, Note_on_c, 1, 57, 0
3, 156420, Note_on_c, 1, 53, 0
3, 156480, Note_on_c, 1, 60, 100
3, 156480, Note_on_c, 1, 52, 100
3, 156480, Note_on_c, 1, 55, 100
3, 156660, Note_on_c, 1, 55, 0
3, 156660, Note_on_c, 1, 52, 0
3, 156660, Note_on_c, 1, 60, 0
3, 156720, Note_on_c, 1, 53, 100
3, 156720, Note_on_c, 1, 57, 100
3, 156720, Note_on_c, 1, 62, 100
3, 157380, Note_on_c, 1, 62, 0
3, 157380, Note_on_c, 1, 57, 0
3, 157380, Note_on_c, 1, 53, 0
3, 157440, Note_on_c, 1, 60, 100
3, 157440, Note_on_c, 1, 55, 100
3, 157440, Note_on_c, 1, 52, 100
3, 157620, Note_on_c, 1, 52, 0
3, 157620, Note_on_c, 1, 55, 0
3, 157620, Note_on_c, 1, 60, 0
3, 157680, Note_on_c, 1, 53, 100
3, 157680, Note_on_c, 1, 57, 100
3, 157680, Note_on_c, 1, 62, 100
3, 157860, Note_on_c, 1, 62, 0
3, 157860, Note_on_c, 1, 57, 0
3, 157860, Note_on_c, 1, 53, 0
3, 157920, Note_on_c, 1, 57, 100
3, 157920, Note_on_c, 1, 60, 100
3, 157920, Note_on_c, 1, 65, 100
3, 158340, Note_on_c, 1, 65, 0
3, 158340, Note_on_c, 1, 60, 0
3, 158340, Note_on_c, 1, 57, 0
3, 158400, Note_on_c, 1, 65, 100
3, 158400, Note_on_c, 1, 60, 100
3, 158400, Note_on_c, 1, 57, 100
3, 158820, Note_on_c, 1, 57, 0
3, 158820, Note_on_c, 1, 60, 0
3, 158820, Note_on_c, 1, 65, 0
3, 158880, Note_on_c, 1, 55, 100
3, 158880, Note_on_c, 1, 59, 100
3, 158880, Note_on_c, 1, 63, 100
3, 159300, Note_on_c, 1, 63, 0
3, 159300, Note_on_c, 1, 59, 0
3, 159300, Note_on_c, 1, 55, 0
3, 159360, Note_on_c, 1, 60, 100
3, 159540, Note_on_c, 1, 60, 0
3, 159600, Note_on_c, 1, 53, 100
3, 159600, Note_on_c, 1, 57, 100
3, 159600, Note_on_c, 1, 62, 100
3, 160260, Note_on_c, 1, 62, 0
3, 160260, Note_on_c, 1, 57, 0
3, 160260, Note_on_c, 1, 53, 0
3, 160320, Note_on_c, 1, 60, 100
3, 160320, Note_on_c, 1, 52, 100
3, 160320, Note_on_c, 1, 55, 100
3, 160500, Note_on_c, 1, 55, 0
3, 160500, Note_on_c, 1, 52, 0
3, 160500, Note_on_c, 1, 60, 0
3, 160560, Note_on_c, 1, 53, 100
3, 160560, Note_on_c, 1, 57, 100
3, 160560, Note_on_c, 1, 62, 100
3, 161220, Note_on_c, 1, 62, 0
3, 161220, Note_on_c, 1, 57, 0
3, 161220, Note_on_c, 1, 53, 0
3, 161280, Note_on_c, 1, 60, 100
3, 161280, Note_on_c, 1, 55, 100
3, 161280, Note_on_c, 1, 52, 100
3, 161460, Note_on_c, 1, 52, 0
3, 161460, Note_on_c, 1, 55, 0
3, 161460, Note_on_c, 1, 60, 0
3, 161520, Note_on_c, 1, 53, 100
3, 161520, Note_on_c, 1, 57, 100
3, 161520, Note_on_c, 1, 62, 100
3, 161700, Note_on_c, 1, 62, 0
3, 161700, Note_on_c, 1, 57, 0
3, 161700, Note_on_c, 1, 53, 0
3, 161760, Note_on_c, 1, 57, 100
3, 161760, Note_on_c, 1, 60, 100
3, 161760, Note_on_c, 1, 65, 100
3, 162180, Note_on_c, 1, 65, 0
3, 162180, Note_on_c, 1, 60, 0
3, 162180, Note_on_c, 1, 57, 0
3, 162240, Note_on_c, 1, 65, 100
3, 162240, Note_on_c, 1, 60, 100
3, 162240, Note_on_c, 1, 57, 100
3, 162660, Note_on_c, 1, 57, 0
3, 162660, Note_on_c, 1, 60, 0
3, 162660, Note_on_c, 1, 65, 0
3, 162720, Note_on_c, 1, 55, 100
3, 162720, Note_on_c, 1, 59, 100
3, 162720, Note_on_c, 1, 63, 100
3, 163140, Note_on_c, 1, 63, 0
3, 163140, Note_on_c, 1, 59, 0
3, 163140, Note_on_c, 1, 55, 0
3, 163200, Note_on_c, 1, 60, 100
3, 163380, Note_on_c, 1, 60, 0
3, 163440, Note_on_c, 1, 53, 100
3, 163440, Note_on_c, 1, 57, 100
3, 163440, Note_on_c, 1, 62, 100
3, 164100, Note_on_c, 1, 62, 0
3, 164100, Note_on_c, 1, 57, 0
3, 164100, Note_on_c, 1, 53, 0
3, 164160, Note_on_c, 1, 60, 100
3, 164160, Note_on_c, 1, 52, 100
3, 164160, Note_on_c, 1, 55, 100
3, 164340, Note_on_c, 1, 55, 0
3, 164340, Note_on_c, 1, 52, 0
3, 164340, Note_on_c, 1, 60, 0
3, 164400, Note_on_c, 1, 53, 100
3, 164400, Note_on_c, 1, 57, 100
3, 164400, Note_on_c, 1, 62, 100
3, 165060, Note_on_c, 1, 62, 0
3, 165060, Note_on_c, 1, 57, 0
3, 165060, Note_on_c, 1, 53, 0
3, 165120, Note_on_c, 1, 60, 100
3, 165120, Note_on_c, 1, 55, 100
3, 165120, Note_on_c, 1, 52, 100
3, 165300, Note_on_c, 1, 52, 0
3, 165300, Note_on_c, 1, 55, 0
3, 165300, Note_on_c, 1, 60, 0
3, 165360, Note_on_c, 1, 53, 100
3, 165360, Note_on_c, 1, 57, 100
3, 165360, Note_on_c, 1, 62, 100
3, 165540, Note_on_c, 1, 62, 0
3, 165540, Note_on_c, 1, 57, 0
3, 165540, Note_on_c, 1, 53, 0
3, 165600, Note_on_c, 1, 57, 100
3, 165600, Note_on_c, 1, 60, 100
3, 165600, Note_on_c, 1, 65, 100
3, 166020, Note_on_c, 1, 65, 0
3, 166020, Note_on_c, 1, 60, 0
3, 166020, Note_on_c, 1, 57, 0
3, 166080, Note_on_c, 1, 65, 100
3, 166080, Note_on_c, 1, 60, 100
3, 166080, Note_on_c, 1, 57, 100
3, 166500, Note_on_c, 1, 57, 0
3, 166500, Note_on_c, 1, 60, 0
3, 166500, Note_on_c, 1, 65, 0
3, 166560, Note_on_c, 1, 55, 100
3, 166560, Note_on_c, 1, 59, 100
3, 166560, Note_on_c, 1, 63, 100
3, 166980, Note_on_c, 1, 63, 0
3, 166980, Note_on_c, 1, 59, 0
3, 166980, Note_on_c, 1, 55, 0
3, 167040, Note_on_c, 1, 60, 100
3, 167220, Note_on_c, 1, 60, 0
3, 167280, Note_on_c, 1, 57, 100
3, 167280, Note_on_c, 1, 62, 100
3, 167280, Note_on_c, 1, 66, 100
3, 167700, Note_on_c, 1, 66, 0
3, 167700, Note_on_c, 1, 62, 0
3, 167700, Note_on_c, 1, 57, 0
3, 167760, Note_on_c, 1, 66, 100
3, 167760, Note_on_c, 1, 62, 100
3, 167760, Note_on_c, 1, 57, 100
3, 168180, Note_on_c, 1, 57, 0
3, 168180, Note_on_c, 1, 62, 0
3, 168180, Note_on_c, 1, 66, 0
3, 168240, Note_on_c, 1, 57, 100
3, 168240, Note_on_c, 1, 62, 100
3, 168240, Note_on_c, 1, 66, 100
3, 168660, Note_on_c, 1, 66, 0
3, 168660, Note_on_c, 1, 62, 0
3, 168660, Note_on_c, 1, 57, 0
3, 168720, Note_on_c, 1, 66, 100
3, 168720, Note_on_c, 1, 62, 100
3, 168720, Note_on_c, 1, 57, 100
3, 169140, Note_on_c, 1, 57, 0
3, 169140, Note_on_c, 1, 62, 0
3, 169140, Note_on_c, 1, 66, 0
3, 169200, Note_on_c, 1, 55, 100
3, 169200, Note_on_c, 1, 60, 100
3, 169200, Note_on_c, 1, 64, 100
3, 169620, Note_on_c, 1, 64, 0
3, 169620, Note_on_c, 1, 60, 0
3, 169620, Note_on_c, 1, 55, 0
3, 169680, Note_on_c, 1, 64, 100
3, 169680, Note_on_c, 1, 60, 100
3, 169680, Note_on_c, 1, 55, 100
3, 170100, Note_on_c, 1, 55, 0
3, 170100, Note_on_c, 1, 60, 0
3, 170100, Note_on_c, 1, 64, 0
3, 170160, Note_on_c, 1, 55, 100
3, 170160, Note_on_c, 1, 60, 100
3, 170160, Note_on_c, 1, 64, 100
3, 170580, Note_on_c, 1, 64, 0
3, 170580, Note_on_c, 1, 60, 0
3, 170580, Note_on_c, 1, 55, 0
3, 170640, Note_on_c, 1, 64, 100
3, 170640, Note_on_c, 1, 60, 100
3, 170640, Note_on_c, 1, 55, 100
3, 171060, Note_on_c, 1, 55, 0
3, 171060, Note_on_c, 1, 60, 0
3, 171060, Note_on_c, 1, 64, 0
3, 171120, Note_on_c, 1, 57, 100
3, 171120, Note_on_c, 1, 62, 100
3, 171120, Note_on_c, 1, 66, 100
3, 171540, Note_on_c, 1, 66, 0
3, 171540, Note_on_c, 1, 62, 0
3, 171540, Note_on_c, 1, 57, 0
3, 171600, Note_on_c, 1, 66, 100
3, 171600, Note_on_c, 1, 62, 100
3, 171600, Note_on_c, 1, 57, 100
3, 172020, Note_on_c, 1, 57, 0
3, 172020, Note_on_c, 1, 62, 0
3, 172020, Note_on_c, 1, 66, 0
3, 172080, Note_on_c, 1, 57, 100
3, 172080, Note_on_c, 1, 62, 100
3, 172080, Note_on_c, 1, 66, 100
3, 172500, Note_on_c, 1, 66, 0
3, 172500, Note_on_c, 1, 62, 0
3, 172500, Note_on_c, 1, 57, 0
3, 172560, Note_on_c, 1, 66, 100
3, 172560, Note_on_c, 1, 62, 100
3, 172560, Note_on_c, 1, 57, 100
3, 172980, Note_on_c, 1, 57, 0
3, 172980, Note_on_c, 1, 62, 0
3, 172980, Note_on_c, 1, 66, 0
3, 173040, Note_on_c, 1, 55, 100
3, 173040, Note_on_c, 1, 60, 100
3, 173040, Note_on_c, 1, 64, 100
3, 173460, Note_on_c, 1, 64, 0
3, 173460, Note_on_c, 1, 60, 0
3, 173460, Note_on_c, 1, 55, 0
3, 173520, Note_on_c, 1, 64, 100
3, 173520, Note_on_c, 1, 60, 100
3, 173520, Note_on_c, 1, 55, 100
3, 173940, Note_on_c, 1, 55, 0
3, 173940, Note_on_c, 1, 60, 0
3, 173940, Note_on_c, 1, 64, 0
3, 174000, Note_on_c, 1, 55, 100
3, 174000, Note_on_c, 1, 60, 100
3, 174000, Note_on_c, 1, 64, 100
3, 174420, Note_on_c, 1, 64, 0
3, 174420, Note_on_c, 1, 60, 0
3, 174420, Note_on_c, 1, 55, 0
3, 174480, Note_on_c, 1, 64, 100
3, 174480, Note_on_c, 1, 60, 100
3, 174480, Note_on_c, 1, 55, 100
3, 174900, Note_on_c, 1, 55, 0
3, 174900, Note_on_c, 1, 60, 0
3, 174900, Note_on_c, 1, 64, 0
3, 174960, Note_on_c, 1, 57, 100
3, 174960, Note_on_c, 1, 62, 100
3, 174960, Note_on_c, 1, 66, 100
3, 175380, Note_on_c, 1, 66, 0
3, 175380, Note_on_c, 1, 62, 0
3, 175380, Note_on_c, 1, 57, 0
3, 175440, Note_on_c, 1, 66, 100
3, 175440, Note_on_c, 1, 62, 100
3, 175440, Note_on_c, 1, 57, 100
3, 175860, Note_on_c, 1, 57, 0
3, 175860, Note_on_c, 1, 62, 0
3, 175860, Note_on_c, 1, 66, 0
3, 175920, Note_on_c, 1, 57, 100
3, 175920, Note_on_c, 1, 62, 100
3, 175920, Note_on_c, 1, 66, 100
3, 176340, Note_on_c, 1, 66, 0
3, 176340, Note_on_c, 1, 62, 0
3, 176340, Note_on_c, 1, 57, 0
3, 176400, Note_on_c, 1, 66, 100
3, 176400, Note_on_c, 1, 62, 100
3, 176400, Note_on_c, 1, 57, 100
3, 176820, Note_on_c, 1, 57, 0
3, 176820, Note_on_c, 1, 62, 0
3, 176820, Note_on_c, 1, 66, 0
3, 176880, Note_on_c, 1, 55, 100
3, 176880, Note_on_c, 1, 60, 100
3, 176880, Note_on_c, 1, 64, 100
3, 177300, Note_on_c, 1, 64, 0
3, 177300, Note_on_c, 1, 60, 0
3, 177300, Note_on_c, 1, 55, 0
3, 177360, Note_on_c, 1, 64, 100
3, 177360, Note_on_c, 1, 60, 100
3, 177360, Note_on_c, 1, 55, 100
3, 177780, Note_on_c, 1, 55, 0
3, 177780, Note_on_c, 1, 60, 0
3, 177780, Note_on_c, 1, 64, 0
3, 177840, Note_on_c, 1, 55, 100
3, 177840, Note_on_c, 1, 60, 100
3, 177840, Note_on_c, 1, 64, 100
3, 178260, Note_on_c, 1, 64, 0
3, 178260, Note_on_c, 1, 60, 0
3, 178260, Note_on_c, 1, 55, 0
3, 178320, Note_on_c, 1, 64, 100
3, 178320, Note_on_c, 1, 60, 100
3, 178320, Note_on_c, 1, 55, 100
3, 178740, Note_on_c, 1, 55, 0
3, 178740, Note_on_c, 1, 60, 0
3, 178740, Note_on_c, 1, 64, 0
3, 178800, Note_on_c, 1, 57, 100
3, 178800, Note_on_c, 1, 62, 100
3, 178800, Note_on_c, 1, 66, 100
3, 179220, Note_on_c, 1, 66, 0
3, 179220, Note_on_c, 1, 62, 0
3, 179220, Note_on_c, 1, 57, 0
3, 179280, Note_on_c, 1, 66, 100
3, 179280, Note_on_c, 1, 62, 100
3, 179280, Note_on_c, 1, 57, 100
3, 179700, Note_on_c, 1, 57, 0
3, 179700, Note_on_c, 1, 62, 0
3, 179700, Note_on_c, 1, 66, 0
3, 179760, Note_on_c, 1, 57, 100
3, 179760, Note_on_c, 1, 62, 100
3, 179760, Note_on_c, 1, 66, 100
3, 180180, Note_on_c, 1, 66, 0
3, 180180, Note_on_c, 1, 62, 0
3, 180180, Note_on_c, 1, 57, 0
3, 180240, Note_on_c, 1, 66, 100
3, 180240, Note_on_c, 1, 62, 100
3, 180240, Note_on_c, 1, 57, 100
3, 180660, Note_on_c, 1, 57, 0
3, 180660, Note_on_c, 1, 62, 0
3, 180660, Note_on_c, 1, 66, 0
3, 180720, Note_on_c, 1, 55, 100
3, 180720, Note_on_c, 1, 60, 100
3, 180720, Note_on_c, 1, 64, 100
3, 181140, Note_on_c, 1, 64, 0
3, 181140, Note_on_c, 1, 60, 0
3, 181140, Note_on_c, 1, 55, 0
3, 181200, Note_on_c, 1, 64, 100
3, 181200, Note_on_c, 1, 60, 100
3, 181200, Note_on_c, 1, 55, 100
3, 181620, Note_on_c, 1, 55, 0
3, 181620, Note_on_c, 1, 60, 0
3, 181620, Note_on_c, 1, 64, 0
3, 181680, Note_on_c, 1, 55, 100
3, 181680, Note_on_c, 1, 60, 100
3, 181680, Note_on_c, 1, 64, 100
3, 182100, Note_on_c, 1, 64, 0
3, 182100, Note_on_c, 1, 60, 0
3, 182100, Note_on_c, 1, 55, 0
3, 182160, Note_on_c, 1, 64, 100
3, 182160, Note_on_c, 1, 60, 100
3, 182160, Note_on_c, 1, 55, 100
3, 182580, Note_on_c, 1, 55, 0
3, 182580, Note_on_c, 1, 60, 0
3, 182580, Note_on_c, 1, 64, 0
3, 182640, Note_on_c, 1, 53, 100
3, 182640, Note_on_c, 1, 57, 100
3, 182640, Note_on_c, 1, 62, 100
3, 183060, Note_on_c, 1, 62, 0
3, 183060, Note_on_c, 1, 57, 0
3, 183060, Note_on_c, 1, 53, 0
3, 183600, Note_on_c, 1, 62, 100
3, 183600, Note_on_c, 1, 65, 100
3, 183600, Note_on_c, 1, 69, 100
3, 183600, Note_on_c, 1, 74, 100
3, 184020, Note_on_c, 1, 74, 0
3, 184020, Note_on_c, 1, 62, 0
3, 184020, Note_on_c, 1, 65, 0
3, 184020, Note_on_c, 1, 69, 0
3, 184560, Note_on_c, 1, 64, 100
3, 184560, Note_on_c, 1, 69, 100
3, 184560, Note_on_c, 1, 73, 100
3, 184560, Note_on_c, 1, 76, 100
3, 186420, Note_on_c, 1, 76, 0
3, 186420, Note_on_c, 1, 64, 0
3, 186420, Note_on_c, 1, 69, 0
3, 186420, Note_on_c, 1, 73, 0
3, 186480, Note_on_c, 1, 69, 100
3, 186480, Note_on_c, 1, 73, 100
3, 186480, Note_on_c, 1, 76, 100
3, 186480, Note_on_c, 1, 81, 100
3, 187320, Note_on_c, 1, 73, 0
3, 187440, Note_on_c, 1, 69, 0
3, 187440, Note_on_c, 1, 81, 0
3, 187560, Note_on_c, 1, 76, 0
3, 187560, End_track
4, 0, Start_track
4, 0, MIDI_port, 0
4, 0, Title_t, "BASS"
4, 100, Control_c, 2, 11, 127
4, 492, Program_c, 2, 33
4, 493, Control_c, 2, 10, 64
4, 1920, Control_c, 2, 93, 0
4, 1920, Control_c, 2, 91, 11
4, 7200, Note_on_c, 2, 36, 100
4, 7290, Note_on_c, 2, 36, 0
4, 7320, Note_on_c, 2, 35, 100
4, 7410, Note_on_c, 2, 35, 0
4, 7440, Note_on_c, 2, 33, 100
4, 7530, Note_on_c, 2, 33, 0
4, 7560, Note_on_c, 2, 31, 100
4, 7650, Note_on_c, 2, 31, 0
4, 7680, Note_on_c, 2, 40, 100
4, 7770, Note_on_c, 2, 40, 0
4, 7800, Note_on_c, 2, 35, 100
4, 7890, Note_on_c, 2, 35, 0
4, 7920, Note_on_c, 2, 31, 100
4, 8010, Note_on_c, 2, 31, 0
4, 8040, Note_on_c, 2, 29, 100
4, 8130, Note_on_c, 2, 29, 0
4, 8160, Note_on_c, 2, 36, 100
4, 8340, Note_on_c, 2, 36, 0
4, 8370, Note_on_c, 2, 29, 100
4, 8460, Note_on_c, 2, 29, 0
4, 8490, Note_on_c, 2, 31, 100
4, 8580, Note_on_c, 2, 31, 0
4, 8640, Note_on_c, 2, 34, 100
4, 8730, Note_on_c, 2, 34, 0
4, 8760, Note_on_c, 2, 35, 100
4, 8850, Note_on_c, 2, 35, 0
4, 8880, Note_on_c, 2, 34, 100
4, 8970, Note_on_c, 2, 34, 0
4, 9000, Note_on_c, 2, 35, 100
4, 9090, Note_on_c, 2, 35, 0
4, 9120, Note_on_c, 2, 40, 100
4, 9210, Note_on_c, 2, 40, 0
4, 9240, Note_on_c, 2, 41, 100
4, 9330, Note_on_c, 2, 41, 0
4, 9360, Note_on_c, 2, 40, 100
4, 9450, Note_on_c, 2, 40, 0
4, 9480, Note_on_c, 2, 41, 100
4, 9570, Note_on_c, 2, 41, 0
4, 9600, Note_on_c, 2, 43, 100
4, 9690, Note_on_c, 2, 43, 0
4, 9720, Note_on_c, 2, 45, 100
4, 9810, Note_on_c, 2, 45, 0
4, 9840, Note_on_c, 2, 47, 100
4, 9930, Note_on_c, 2, 47, 0
4, 9960, Note_on_c, 2, 49, 100
4, 11010, Note_on_c, 2, 49, 0
4, 12480, Note_on_c, 2, 45, 100
4, 12900, Note_on_c, 2, 45, 0
4, 12960, Note_on_c, 2, 50, 100
4, 13140, Note_on_c, 2, 50, 0
4, 13170, Note_on_c, 2, 48, 100
4, 13260, Note_on_c, 2, 48, 0
4, 13290, Note_on_c, 2, 47, 100
4, 13380, Note_on_c, 2, 47, 0
4, 13440, Note_on_c, 2, 45, 100
4, 13620, Note_on_c, 2, 45, 0
4, 13650, Note_on_c, 2, 43, 100
4, 13740, Note_on_c, 2, 43, 0
4, 13770, Note_on_c, 2, 41, 100
4, 13860, Note_on_c, 2, 41, 0
4, 13920, Note_on_c, 2, 40, 100
4, 14010, Note_on_c, 2, 40, 0
4, 14040, Note_on_c, 2, 38, 100
4, 14130, Note_on_c, 2, 38, 0
4, 14160, Note_on_c, 2, 40, 100
4, 14250, Note_on_c, 2, 40, 0
4, 14280, Note_on_c, 2, 41, 100
4, 14370, Note_on_c, 2, 41, 0
4, 14400, Note_on_c, 2, 43, 100
4, 15300, Note_on_c, 2, 43, 0
4, 15360, Note_on_c, 2, 47, 100
4, 15780, Note_on_c, 2, 47, 0
4, 15840, Note_on_c, 2, 45, 100
4, 16260, Note_on_c, 2, 45, 0
4, 16320, Note_on_c, 2, 43, 100
4, 16740, Note_on_c, 2, 43, 0
4, 16800, Note_on_c, 2, 33, 100
4, 17220, Note_on_c, 2, 33, 0
4, 17280, Note_on_c, 2, 38, 100
4, 17460, Note_on_c, 2, 38, 0
4, 17560, Note_on_c, 2, 38, 100
4, 17928, Note_on_c, 2, 38, 0
4, 18008, Note_on_c, 2, 33, 100
4, 18098, Note_on_c, 2, 33, 0
4, 18120, Note_on_c, 2, 36, 100
4, 18210, Note_on_c, 2, 36, 0
4, 18240, Note_on_c, 2, 38, 100
4, 18380, Note_on_c, 2, 38, 0
4, 18504, Note_on_c, 2, 38, 100
4, 18868, Note_on_c, 2, 38, 0
4, 18968, Note_on_c, 2, 33, 100
4, 19058, Note_on_c, 2, 33, 0
4, 19080, Note_on_c, 2, 36, 100
4, 19170, Note_on_c, 2, 36, 0
4, 19200, Note_on_c, 2, 38, 100
4, 19380, Note_on_c, 2, 38, 0
4, 19472, Note_on_c, 2, 38, 100
4, 19840, Note_on_c, 2, 38, 0
4, 19928, Note_on_c, 2, 33, 100
4, 20018, Note_on_c, 2, 33, 0
4, 20040, Note_on_c, 2, 36, 100
4, 20130, Note_on_c, 2, 36, 0
4, 20160, Note_on_c, 2, 38, 100
4, 20300, Note_on_c, 2, 38, 0
4, 20404, Note_on_c, 2, 38, 100
4, 20768, Note_on_c, 2, 38, 0
4, 20888, Note_on_c, 2, 33, 100
4, 20978, Note_on_c, 2, 33, 0
4, 21000, Note_on_c, 2, 36, 100
4, 21090, Note_on_c, 2, 36, 0
4, 21360, Note_on_c, 2, 38, 100
4, 21540, Note_on_c, 2, 38, 0
4, 21600, Note_on_c, 2, 38, 100
4, 21780, Note_on_c, 2, 38, 0
4, 21840, Note_on_c, 2, 36, 100
4, 22020, Note_on_c, 2, 36, 0
4, 22080, Note_on_c, 2, 38, 100
4, 22260, Note_on_c, 2, 38, 0
4, 22320, Note_on_c, 2, 38, 100
4, 22500, Note_on_c, 2, 38, 0
4, 22560, Note_on_c, 2, 38, 100
4, 22740, Note_on_c, 2, 38, 0
4, 22800, Note_on_c, 2, 36, 100
4, 22980, Note_on_c, 2, 36, 0
4, 23040, Note_on_c, 2, 38, 100
4, 23220, Note_on_c, 2, 38, 0
4, 23280, Note_on_c, 2, 41, 100
4, 23700, Note_on_c, 2, 41, 0
4, 23760, Note_on_c, 2, 41, 100
4, 24180, Note_on_c, 2, 41, 0
4, 24240, Note_on_c, 2, 40, 100
4, 24420, Note_on_c, 2, 40, 0
4, 24480, Note_on_c, 2, 40, 100
4, 24660, Note_on_c, 2, 40, 0
4, 24720, Note_on_c, 2, 39, 100
4, 24900, Note_on_c, 2, 39, 0
4, 24960, Note_on_c, 2, 38, 100
4, 25140, Note_on_c, 2, 38, 0
4, 25200, Note_on_c, 2, 38, 100
4, 25380, Note_on_c, 2, 38, 0
4, 25440, Note_on_c, 2, 38, 100
4, 25620, Note_on_c, 2, 38, 0
4, 25680, Note_on_c, 2, 36, 100
4, 25860, Note_on_c, 2, 36, 0
4, 25920, Note_on_c, 2, 38, 100
4, 26100, Note_on_c, 2, 38, 0
4, 26160, Note_on_c, 2, 38, 100
4, 26340, Note_on_c, 2, 38, 0
4, 26400, Note_on_c, 2, 38, 100
4, 26580, Note_on_c, 2, 38, 0
4, 26640, Note_on_c, 2, 36, 100
4, 26820, Note_on_c, 2, 36, 0
4, 26880, Note_on_c, 2, 38, 100
4, 27060, Note_on_c, 2, 38, 0
4, 27120, Note_on_c, 2, 41, 100
4, 27540, Note_on_c, 2, 41, 0
4, 27600, Note_on_c, 2, 41, 100
4, 28020, Note_on_c, 2, 41, 0
4, 28080, Note_on_c, 2, 40, 100
4, 28260, Note_on_c, 2, 40, 0
4, 28320, Note_on_c, 2, 40, 100
4, 28500, Note_on_c, 2, 40, 0
4, 28560, Note_on_c, 2, 39, 100
4, 28740, Note_on_c, 2, 39, 0
4, 28800, Note_on_c, 2, 38, 100
4, 28980, Note_on_c, 2, 38, 0
4, 29040, Note_on_c, 2, 38, 100
4, 29220, Note_on_c, 2, 38, 0
4, 29280, Note_on_c, 2, 38, 100
4, 29460, Note_on_c, 2, 38, 0
4, 29520, Note_on_c, 2, 36, 100
4, 29700, Note_on_c, 2, 36, 0
4, 29760, Note_on_c, 2, 38, 100
4, 29940, Note_on_c, 2, 38, 0
4, 30000, Note_on_c, 2, 38, 100
4, 30180, Note_on_c, 2, 38, 0
4, 30240, Note_on_c, 2, 38, 100
4, 30420, Note_on_c, 2, 38, 0
4, 30480, Note_on_c, 2, 36, 100
4, 30660, Note_on_c, 2, 36, 0
4, 30720, Note_on_c, 2, 38, 100
4, 30900, Note_on_c, 2, 38, 0
4, 30960, Note_on_c, 2, 41, 100
4, 31380, Note_on_c, 2, 41, 0
4, 31440, Note_on_c, 2, 41, 100
4, 31860, Note_on_c, 2, 41, 0
4, 31920, Note_on_c, 2, 40, 100
4, 32100, Note_on_c, 2, 40, 0
4, 32160, Note_on_c, 2, 40, 100
4, 32340, Note_on_c, 2, 40, 0
4, 32400, Note_on_c, 2, 39, 100
4, 32580, Note_on_c, 2, 39, 0
4, 32640, Note_on_c, 2, 38, 100
4, 32820, Note_on_c, 2, 38, 0
4, 32880, Note_on_c, 2, 38, 100
4, 33060, Note_on_c, 2, 38, 0
4, 33120, Note_on_c, 2, 38, 100
4, 33300, Note_on_c, 2, 38, 0
4, 33360, Note_on_c, 2, 36, 100
4, 33540, Note_on_c, 2, 36, 0
4, 33600, Note_on_c, 2, 38, 100
4, 33780, Note_on_c, 2, 38, 0
4, 33840, Note_on_c, 2, 38, 100
4, 34020, Note_on_c, 2, 38, 0
4, 34080, Note_on_c, 2, 38, 100
4, 34260, Note_on_c, 2, 38, 0
4, 34320, Note_on_c, 2, 36, 100
4, 34500, Note_on_c, 2, 36, 0
4, 34560, Note_on_c, 2, 38, 100
4, 34740, Note_on_c, 2, 38, 0
4, 34800, Note_on_c, 2, 41, 100
4, 35220, Note_on_c, 2, 41, 0
4, 35280, Note_on_c, 2, 41, 100
4, 35700, Note_on_c, 2, 41, 0
4, 35760, Note_on_c, 2, 40, 100
4, 35940, Note_on_c, 2, 40, 0
4, 36000, Note_on_c, 2, 40, 100
4, 36180, Note_on_c, 2, 40, 0
4, 36240, Note_on_c, 2, 39, 100
4, 36420, Note_on_c, 2, 39, 0
4, 36480, Note_on_c, 2, 38, 100
4, 36660, Note_on_c, 2, 38, 0
4, 36720, Note_on_c, 2, 38, 100
4, 36900, Note_on_c, 2, 38, 0
4, 36960, Note_on_c, 2, 38, 100
4, 37140, Note_on_c, 2, 38, 0
4, 37200, Note_on_c, 2, 36, 100
4, 37380, Note_on_c, 2, 36, 0
4, 37440, Note_on_c, 2, 38, 100
4, 37620, Note_on_c, 2, 38, 0
4, 37680, Note_on_c, 2, 38, 100
4, 37860, Note_on_c, 2, 38, 0
4, 37920, Note_on_c, 2, 38, 100
4, 38100, Note_on_c, 2, 38, 0
4, 38160, Note_on_c, 2, 36, 100
4, 38340, Note_on_c, 2, 36, 0
4, 38400, Note_on_c, 2, 38, 100
4, 38580, Note_on_c, 2, 38, 0
4, 38640, Note_on_c, 2, 41, 100
4, 39060, Note_on_c, 2, 41, 0
4, 39120, Note_on_c, 2, 41, 100
4, 39540, Note_on_c, 2, 41, 0
4, 39600, Note_on_c, 2, 40, 100
4, 39780, Note_on_c, 2, 40, 0
4, 39840, Note_on_c, 2, 40, 100
4, 40020, Note_on_c, 2, 40, 0
4, 40080, Note_on_c, 2, 39, 100
4, 40260, Note_on_c, 2, 39, 0
4, 40320, Note_on_c, 2, 38, 100
4, 40500, Note_on_c, 2, 38, 0
4, 40560, Note_on_c, 2, 38, 100
4, 40740, Note_on_c, 2, 38, 0
4, 40800, Note_on_c, 2, 38, 100
4, 40980, Note_on_c, 2, 38, 0
4, 41040, Note_on_c, 2, 36, 100
4, 41220, Note_on_c, 2, 36, 0
4, 41280, Note_on_c, 2, 38, 100
4, 41460, Note_on_c, 2, 38, 0
4, 41520, Note_on_c, 2, 38, 100
4, 41700, Note_on_c, 2, 38, 0
4, 41760, Note_on_c, 2, 38, 100
4, 41940, Note_on_c, 2, 38, 0
4, 42000, Note_on_c, 2, 36, 100
4, 42180, Note_on_c, 2, 36, 0
4, 42240, Note_on_c, 2, 38, 100
4, 42420, Note_on_c, 2, 38, 0
4, 42480, Note_on_c, 2, 43, 100
4, 42900, Note_on_c, 2, 43, 0
4, 42960, Note_on_c, 2, 43, 100
4, 43380, Note_on_c, 2, 43, 0
4, 43440, Note_on_c, 2, 38, 100
4, 43620, Note_on_c, 2, 38, 0
4, 43680, Note_on_c, 2, 38, 100
4, 43860, Note_on_c, 2, 38, 0
4, 43920, Note_on_c, 2, 36, 100
4, 44100, Note_on_c, 2, 36, 0
4, 44160, Note_on_c, 2, 38, 100
4, 44340, Note_on_c, 2, 38, 0
4, 44400, Note_on_c, 2, 38, 100
4, 44580, Note_on_c, 2, 38, 0
4, 44640, Note_on_c, 2, 38, 100
4, 44820, Note_on_c, 2, 38, 0
4, 44880, Note_on_c, 2, 36, 100
4, 45060, Note_on_c, 2, 36, 0
4, 45120, Note_on_c, 2, 38, 100
4, 45300, Note_on_c, 2, 38, 0
4, 45360, Note_on_c, 2, 38, 100
4, 45540, Note_on_c, 2, 38, 0
4, 45600, Note_on_c, 2, 38, 100
4, 45780, Note_on_c, 2, 38, 0
4, 45840, Note_on_c, 2, 36, 100
4, 46020, Note_on_c, 2, 36, 0
4, 46080, Note_on_c, 2, 38, 100
4, 46260, Note_on_c, 2, 38, 0
4, 46320, Note_on_c, 2, 43, 100
4, 46740, Note_on_c, 2, 43, 0
4, 46800, Note_on_c, 2, 43, 100
4, 47220, Note_on_c, 2, 43, 0
4, 47280, Note_on_c, 2, 38, 100
4, 47460, Note_on_c, 2, 38, 0
4, 47520, Note_on_c, 2, 38, 100
4, 47700, Note_on_c, 2, 38, 0
4, 47760, Note_on_c, 2, 36, 100
4, 47940, Note_on_c, 2, 36, 0
4, 48000, Note_on_c, 2, 38, 100
4, 48180, Note_on_c, 2, 38, 0
4, 48240, Note_on_c, 2, 38, 100
4, 48420, Note_on_c, 2, 38, 0
4, 48480, Note_on_c, 2, 38, 100
4, 48660, Note_on_c, 2, 38, 0
4, 48720, Note_on_c, 2, 36, 100
4, 48900, Note_on_c, 2, 36, 0
4, 48960, Note_on_c, 2, 38, 100
4, 49140, Note_on_c, 2, 38, 0
4, 49200, Note_on_c, 2, 38, 100
4, 49380, Note_on_c, 2, 38, 0
4, 49440, Note_on_c, 2, 38, 100
4, 49620, Note_on_c, 2, 38, 0
4, 49680, Note_on_c, 2, 36, 100
4, 49860, Note_on_c, 2, 36, 0
4, 49920, Note_on_c, 2, 38, 100
4, 50100, Note_on_c, 2, 38, 0
4, 50160, Note_on_c, 2, 41, 100
4, 50580, Note_on_c, 2, 41, 0
4, 50640, Note_on_c, 2, 41, 100
4, 51060, Note_on_c, 2, 41, 0
4, 51120, Note_on_c, 2, 40, 100
4, 51300, Note_on_c, 2, 40, 0
4, 51360, Note_on_c, 2, 40, 100
4, 51540, Note_on_c, 2, 40, 0
4, 51600, Note_on_c, 2, 39, 100
4, 51780, Note_on_c, 2, 39, 0
4, 51840, Note_on_c, 2, 38, 100
4, 52020, Note_on_c, 2, 38, 0
4, 52080, Note_on_c, 2, 38, 100
4, 52260, Note_on_c, 2, 38, 0
4, 52320, Note_on_c, 2, 38, 100
4, 52500, Note_on_c, 2, 38, 0
4, 52560, Note_on_c, 2, 36, 100
4, 52740, Note_on_c, 2, 36, 0
4, 52800, Note_on_c, 2, 38, 100
4, 52980, Note_on_c, 2, 38, 0
4, 53040, Note_on_c, 2, 38, 100
4, 53220, Note_on_c, 2, 38, 0
4, 53280, Note_on_c, 2, 38, 100
4, 53460, Note_on_c, 2, 38, 0
4, 53520, Note_on_c, 2, 36, 100
4, 53700, Note_on_c, 2, 36, 0
4, 53760, Note_on_c, 2, 38, 100
4, 53940, Note_on_c, 2, 38, 0
4, 54000, Note_on_c, 2, 41, 100
4, 54420, Note_on_c, 2, 41, 0
4, 54480, Note_on_c, 2, 41, 100
4, 54900, Note_on_c, 2, 41, 0
4, 54960, Note_on_c, 2, 43, 100
4, 55140, Note_on_c, 2, 43, 0
4, 55200, Note_on_c, 2, 43, 100
4, 55380, Note_on_c, 2, 43, 0
4, 55440, Note_on_c, 2, 43, 100
4, 55620, Note_on_c, 2, 43, 0
4, 55680, Note_on_c, 2, 38, 100
4, 55860, Note_on_c, 2, 38, 0
4, 55920, Note_on_c, 2, 38, 100
4, 56100, Note_on_c, 2, 38, 0
4, 56160, Note_on_c, 2, 38, 100
4, 56340, Note_on_c, 2, 38, 0
4, 56400, Note_on_c, 2, 36, 100
4, 56580, Note_on_c, 2, 36, 0
4, 56640, Note_on_c, 2, 38, 100
4, 56820, Note_on_c, 2, 38, 0
4, 56880, Note_on_c, 2, 38, 100
4, 57060, Note_on_c, 2, 38, 0
4, 57120, Note_on_c, 2, 38, 100
4, 57300, Note_on_c, 2, 38, 0
4, 57360, Note_on_c, 2, 36, 100
4, 57540, Note_on_c, 2, 36, 0
4, 57600, Note_on_c, 2, 38, 100
4, 57780, Note_on_c, 2, 38, 0
4, 57840, Note_on_c, 2, 41, 100
4, 58260, Note_on_c, 2, 41, 0
4, 58320, Note_on_c, 2, 41, 100
4, 58740, Note_on_c, 2, 41, 0
4, 58800, Note_on_c, 2, 40, 100
4, 58980, Note_on_c, 2, 40, 0
4, 59040, Note_on_c, 2, 40, 100
4, 59220, Note_on_c, 2, 40, 0
4, 59280, Note_on_c, 2, 39, 100
4, 59460, Note_on_c, 2, 39, 0
4, 59520, Note_on_c, 2, 38, 100
4, 59700, Note_on_c, 2, 38, 0
4, 59760, Note_on_c, 2, 38, 100
4, 59940, Note_on_c, 2, 38, 0
4, 60000, Note_on_c, 2, 38, 100
4, 60180, Note_on_c, 2, 38, 0
4, 60240, Note_on_c, 2, 36, 100
4, 60420, Note_on_c, 2, 36, 0
4, 60480, Note_on_c, 2, 38, 100
4, 60660, Note_on_c, 2, 38, 0
4, 60720, Note_on_c, 2, 38, 100
4, 60900, Note_on_c, 2, 38, 0
4, 60960, Note_on_c, 2, 38, 100
4, 61140, Note_on_c, 2, 38, 0
4, 61200, Note_on_c, 2, 36, 100
4, 61380, Note_on_c, 2, 36, 0
4, 61440, Note_on_c, 2, 38, 100
4, 61620, Note_on_c, 2, 38, 0
4, 61680, Note_on_c, 2, 43, 100
4, 62100, Note_on_c, 2, 43, 0
4, 62160, Note_on_c, 2, 43, 100
4, 62580, Note_on_c, 2, 43, 0
4, 62640, Note_on_c, 2, 38, 100
4, 62820, Note_on_c, 2, 38, 0
4, 62880, Note_on_c, 2, 38, 100
4, 63060, Note_on_c, 2, 38, 0
4, 63120, Note_on_c, 2, 36, 100
4, 63300, Note_on_c, 2, 36, 0
4, 63360, Note_on_c, 2, 38, 100
4, 63540, Note_on_c, 2, 38, 0
4, 63600, Note_on_c, 2, 38, 100
4, 63780, Note_on_c, 2, 38, 0
4, 63840, Note_on_c, 2, 38, 100
4, 64020, Note_on_c, 2, 38, 0
4, 64080, Note_on_c, 2, 36, 100
4, 64260, Note_on_c, 2, 36, 0
4, 64320, Note_on_c, 2, 38, 100
4, 64500, Note_on_c, 2, 38, 0
4, 64560, Note_on_c, 2, 38, 100
4, 64740, Note_on_c, 2, 38, 0
4, 64800, Note_on_c, 2, 38, 100
4, 64980, Note_on_c, 2, 38, 0
4, 65040, Note_on_c, 2, 36, 100
4, 65220, Note_on_c, 2, 36, 0
4, 65280, Note_on_c, 2, 38, 100
4, 65460, Note_on_c, 2, 38, 0
4, 65520, Note_on_c, 2, 31, 100
4, 65940, Note_on_c, 2, 31, 0
4, 66000, Note_on_c, 2, 31, 100
4, 66420, Note_on_c, 2, 31, 0
4, 66480, Note_on_c, 2, 38, 100
4, 66660, Note_on_c, 2, 38, 0
4, 66720, Note_on_c, 2, 38, 100
4, 66900, Note_on_c, 2, 38, 0
4, 66960, Note_on_c, 2, 36, 100
4, 67140, Note_on_c, 2, 36, 0
4, 67200, Note_on_c, 2, 38, 100
4, 67380, Note_on_c, 2, 38, 0
4, 67440, Note_on_c, 2, 38, 100
4, 67620, Note_on_c, 2, 38, 0
4, 67680, Note_on_c, 2, 38, 100
4, 67860, Note_on_c, 2, 38, 0
4, 67920, Note_on_c, 2, 36, 100
4, 68100, Note_on_c, 2, 36, 0
4, 68160, Note_on_c, 2, 38, 100
4, 68340, Note_on_c, 2, 38, 0
4, 68400, Note_on_c, 2, 38, 100
4, 68580, Note_on_c, 2, 38, 0
4, 68640, Note_on_c, 2, 38, 100
4, 68820, Note_on_c, 2, 38, 0
4, 68880, Note_on_c, 2, 36, 100
4, 69060, Note_on_c, 2, 36, 0
4, 69120, Note_on_c, 2, 38, 100
4, 69300, Note_on_c, 2, 38, 0
4, 69360, Note_on_c, 2, 41, 100
4, 69780, Note_on_c, 2, 41, 0
4, 69840, Note_on_c, 2, 29, 100
4, 70260, Note_on_c, 2, 29, 0
4, 70320, Note_on_c, 2, 40, 100
4, 70500, Note_on_c, 2, 40, 0
4, 70560, Note_on_c, 2, 40, 100
4, 70740, Note_on_c, 2, 40, 0
4, 70800, Note_on_c, 2, 39, 100
4, 70980, Note_on_c, 2, 39, 0
4, 71040, Note_on_c, 2, 38, 100
4, 71220, Note_on_c, 2, 38, 0
4, 71280, Note_on_c, 2, 38, 100
4, 71460, Note_on_c, 2, 38, 0
4, 71520, Note_on_c, 2, 38, 100
4, 71700, Note_on_c, 2, 38, 0
4, 71760, Note_on_c, 2, 36, 100
4, 71940, Note_on_c, 2, 36, 0
4, 72000, Note_on_c, 2, 38, 100
4, 72180, Note_on_c, 2, 38, 0
4, 72240, Note_on_c, 2, 38, 100
4, 72420, Note_on_c, 2, 38, 0
4, 72480, Note_on_c, 2, 38, 100
4, 72660, Note_on_c, 2, 38, 0
4, 72720, Note_on_c, 2, 36, 100
4, 72900, Note_on_c, 2, 36, 0
4, 72960, Note_on_c, 2, 38, 100
4, 73140, Note_on_c, 2, 38, 0
4, 73200, Note_on_c, 2, 41, 100
4, 73620, Note_on_c, 2, 41, 0
4, 73680, Note_on_c, 2, 41, 100
4, 74100, Note_on_c, 2, 41, 0
4, 74160, Note_on_c, 2, 39, 100
4, 74340, Note_on_c, 2, 39, 0
4, 74400, Note_on_c, 2, 39, 100
4, 74820, Note_on_c, 2, 39, 0
4, 74880, Note_on_c, 2, 38, 100
4, 76360, Note_on_c, 2, 38, 0
4, 77760, Note_on_c, 2, 50, 100
4, 77940, Note_on_c, 2, 50, 0
4, 78080, Note_on_c, 2, 45, 100
4, 78260, Note_on_c, 2, 45, 0
4, 78400, Note_on_c, 2, 38, 100
4, 78580, Note_on_c, 2, 38, 0
4, 78720, Note_on_c, 2, 36, 100
4, 79380, Note_on_c, 2, 36, 0
4, 79410, Note_on_c, 2, 40, 100
4, 79830, Note_on_c, 2, 40, 0
4, 79890, Note_on_c, 2, 43, 100
4, 80070, Note_on_c, 2, 43, 0
4, 80160, Note_on_c, 2, 48, 100
4, 81060, Note_on_c, 2, 48, 0
4, 81120, Note_on_c, 2, 52, 100
4, 81540, Note_on_c, 2, 52, 0
4, 81600, Note_on_c, 2, 50, 100
4, 81780, Note_on_c, 2, 50, 0
4, 81920, Note_on_c, 2, 45, 100
4, 82100, Note_on_c, 2, 45, 0
4, 82240, Note_on_c, 2, 38, 100
4, 82420, Note_on_c, 2, 38, 0
4, 82560, Note_on_c, 2, 36, 100
4, 83220, Note_on_c, 2, 36, 0
4, 83250, Note_on_c, 2, 40, 100
4, 83670, Note_on_c, 2, 40, 0
4, 83730, Note_on_c, 2, 43, 100
4, 83910, Note_on_c, 2, 43, 0
4, 84000, Note_on_c, 2, 48, 100
4, 84900, Note_on_c, 2, 48, 0
4, 84960, Note_on_c, 2, 52, 100
4, 85380, Note_on_c, 2, 52, 0
4, 85440, Note_on_c, 2, 50, 100
4, 85620, Note_on_c, 2, 50, 0
4, 85760, Note_on_c, 2, 45, 100
4, 85940, Note_on_c, 2, 45, 0
4, 86080, Note_on_c, 2, 38, 100
4, 86260, Note_on_c, 2, 38, 0
4, 86400, Note_on_c, 2, 36, 100
4, 87060, Note_on_c, 2, 36, 0
4, 87090, Note_on_c, 2, 40, 100
4, 87510, Note_on_c, 2, 40, 0
4, 87570, Note_on_c, 2, 43, 100
4, 87750, Note_on_c, 2, 43, 0
4, 87840, Note_on_c, 2, 48, 100
4, 88740, Note_on_c, 2, 48, 0
4, 88800, Note_on_c, 2, 52, 100
4, 89220, Note_on_c, 2, 52, 0
4, 90240, Note_on_c, 2, 38, 100
4, 90420, Note_on_c, 2, 38, 0
4, 90480, Note_on_c, 2, 45, 100
4, 90660, Note_on_c, 2, 45, 0
4, 90720, Note_on_c, 2, 50, 100
4, 90900, Note_on_c, 2, 50, 0
4, 90960, Note_on_c, 2, 36, 100
4, 91140, Note_on_c, 2, 36, 0
4, 91200, Note_on_c, 2, 43, 100
4, 91380, Note_on_c, 2, 43, 0
4, 91440, Note_on_c, 2, 48, 100
4, 91620, Note_on_c, 2, 48, 0
4, 91680, Note_on_c, 2, 38, 100
4, 91860, Note_on_c, 2, 38, 0
4, 91920, Note_on_c, 2, 45, 100
4, 92100, Note_on_c, 2, 45, 0
4, 92160, Note_on_c, 2, 50, 100
4, 92340, Note_on_c, 2, 50, 0
4, 92400, Note_on_c, 2, 36, 100
4, 93060, Note_on_c, 2, 36, 0
4, 93120, Note_on_c, 2, 38, 100
4, 93300, Note_on_c, 2, 38, 0
4, 93360, Note_on_c, 2, 45, 100
4, 93540, Note_on_c, 2, 45, 0
4, 93600, Note_on_c, 2, 50, 100
4, 93780, Note_on_c, 2, 50, 0
4, 93840, Note_on_c, 2, 36, 100
4, 94020, Note_on_c, 2, 36, 0
4, 94080, Note_on_c, 2, 43, 100
4, 94260, Note_on_c, 2, 43, 0
4, 94320, Note_on_c, 2, 48, 100
4, 94500, Note_on_c, 2, 48, 0
4, 94560, Note_on_c, 2, 38, 100
4, 94740, Note_on_c, 2, 38, 0
4, 94800, Note_on_c, 2, 45, 100
4, 94980, Note_on_c, 2, 45, 0
4, 95040, Note_on_c, 2, 50, 100
4, 95220, Note_on_c, 2, 50, 0
4, 95280, Note_on_c, 2, 36, 100
4, 95940, Note_on_c, 2, 36, 0
4, 96000, Note_on_c, 2, 38, 100
4, 96180, Note_on_c, 2, 38, 0
4, 96240, Note_on_c, 2, 45, 100
4, 96420, Note_on_c, 2, 45, 0
4, 96480, Note_on_c, 2, 50, 100
4, 96660, Note_on_c, 2, 50, 0
4, 96720, Note_on_c, 2, 36, 100
4, 96900, Note_on_c, 2, 36, 0
4, 96960, Note_on_c, 2, 43, 100
4, 97140, Note_on_c, 2, 43, 0
4, 97200, Note_on_c, 2, 48, 100
4, 97380, Note_on_c, 2, 48, 0
4, 97440, Note_on_c, 2, 38, 100
4, 97620, Note_on_c, 2, 38, 0
4, 97680, Note_on_c, 2, 45, 100
4, 97860, Note_on_c, 2, 45, 0
4, 97920, Note_on_c, 2, 50, 100
4, 98100, Note_on_c, 2, 50, 0
4, 98160, Note_on_c, 2, 32, 100
4, 98580, Note_on_c, 2, 32, 0
4, 98640, Note_on_c, 2, 32, 100
4, 99060, Note_on_c, 2, 32, 0
4, 99120, Note_on_c, 2, 27, 100
4, 99540, Note_on_c, 2, 27, 0
4, 99600, Note_on_c, 2, 27, 100
4, 100020, Note_on_c, 2, 27, 0
4, 100080, Note_on_c, 2, 34, 100
4, 100500, Note_on_c, 2, 34, 0
4, 100560, Note_on_c, 2, 34, 100
4, 100980, Note_on_c, 2, 34, 0
4, 101040, Note_on_c, 2, 36, 100
4, 101460, Note_on_c, 2, 36, 0
4, 101520, Note_on_c, 2, 36, 100
4, 101940, Note_on_c, 2, 36, 0
4, 102000, Note_on_c, 2, 38, 100
4, 102180, Note_on_c, 2, 38, 0
4, 102240, Note_on_c, 2, 38, 100
4, 102420, Note_on_c, 2, 38, 0
4, 102480, Note_on_c, 2, 38, 100
4, 102660, Note_on_c, 2, 38, 0
4, 102720, Note_on_c, 2, 38, 100
4, 102900, Note_on_c, 2, 38, 0
4, 102960, Note_on_c, 2, 38, 100
4, 103140, Note_on_c, 2, 38, 0
4, 103200, Note_on_c, 2, 38, 100
4, 103380, Note_on_c, 2, 38, 0
4, 103440, Note_on_c, 2, 38, 100
4, 103620, Note_on_c, 2, 38, 0
4, 103680, Note_on_c, 2, 38, 100
4, 103860, Note_on_c, 2, 38, 0
4, 103920, Note_on_c, 2, 38, 100
4, 104100, Note_on_c, 2, 38, 0
4, 104160, Note_on_c, 2, 38, 100
4, 104340, Note_on_c, 2, 38, 0
4, 104400, Note_on_c, 2, 38, 100
4, 104580, Note_on_c, 2, 38, 0
4, 104640, Note_on_c, 2, 38, 100
4, 104820, Note_on_c, 2, 38, 0
4, 104880, Note_on_c, 2, 38, 100
4, 105060, Note_on_c, 2, 38, 0
4, 105120, Note_on_c, 2, 38, 100
4, 105300, Note_on_c, 2, 38, 0
4, 105360, Note_on_c, 2, 38, 100
4, 105540, Note_on_c, 2, 38, 0
4, 105600, Note_on_c, 2, 38, 78
4, 105780, Note_on_c, 2, 38, 0
4, 105840, Note_on_c, 2, 38, 79
4, 106020, Note_on_c, 2, 38, 0
4, 106080, Note_on_c, 2, 38, 79
4, 106260, Note_on_c, 2, 38, 0
4, 106320, Note_on_c, 2, 38, 80
4, 106500, Note_on_c, 2, 38, 0
4, 106560, Note_on_c, 2, 38, 81
4, 106740, Note_on_c, 2, 38, 0
4, 106800, Note_on_c, 2, 38, 81
4, 106980, Note_on_c, 2, 38, 0
4, 107040, Note_on_c, 2, 38, 83
4, 107220, Note_on_c, 2, 38, 0
4, 107280, Note_on_c, 2, 38, 84
4, 107460, Note_on_c, 2, 38, 0
4, 107520, Note_on_c, 2, 38, 84
4, 107700, Note_on_c, 2, 38, 0
4, 107760, Note_on_c, 2, 38, 84
4, 107940, Note_on_c, 2, 38, 0
4, 108000, Note_on_c, 2, 38, 86
4, 108180, Note_on_c, 2, 38, 0
4, 108240, Note_on_c, 2, 38, 86
4, 108420, Note_on_c, 2, 38, 0
4, 108480, Note_on_c, 2, 38, 88
4, 108660, Note_on_c, 2, 38, 0
4, 108720, Note_on_c, 2, 36, 91
4, 108900, Note_on_c, 2, 36, 0
4, 108960, Note_on_c, 2, 36, 92
4, 109140, Note_on_c, 2, 36, 0
4, 109200, Note_on_c, 2, 40, 96
4, 109380, Note_on_c, 2, 40, 0
4, 109440, Note_on_c, 2, 36, 99
4, 109620, Note_on_c, 2, 36, 0
4, 109680, Note_on_c, 2, 38, 65
4, 109860, Note_on_c, 2, 38, 0
4, 109920, Note_on_c, 2, 38, 65
4, 110100, Note_on_c, 2, 38, 0
4, 110160, Note_on_c, 2, 38, 66
4, 110340, Note_on_c, 2, 38, 0
4, 110400, Note_on_c, 2, 38, 69
4, 110580, Note_on_c, 2, 38, 0
4, 110640, Note_on_c, 2, 38, 71
4, 110820, Note_on_c, 2, 38, 0
4, 110880, Note_on_c, 2, 38, 73
4, 111060, Note_on_c, 2, 38, 0
4, 111120, Note_on_c, 2, 38, 76
4, 111300, Note_on_c, 2, 38, 0
4, 111360, Note_on_c, 2, 38, 79
4, 111540, Note_on_c, 2, 38, 0
4, 111600, Note_on_c, 2, 38, 81
4, 111780, Note_on_c, 2, 38, 0
4, 111840, Note_on_c, 2, 38, 84
4, 112020, Note_on_c, 2, 38, 0
4, 112080, Note_on_c, 2, 38, 87
4, 112260, Note_on_c, 2, 38, 0
4, 112320, Note_on_c, 2, 38, 88
4, 112500, Note_on_c, 2, 38, 0
4, 112560, Note_on_c, 2, 36, 91
4, 112740, Note_on_c, 2, 36, 0
4, 112800, Note_on_c, 2, 36, 96
4, 112980, Note_on_c, 2, 36, 0
4, 113040, Note_on_c, 2, 40, 101
4, 113220, Note_on_c, 2, 40, 0
4, 113280, Note_on_c, 2, 36, 103
4, 113460, Note_on_c, 2, 36, 0
4, 113520, Note_on_c, 2, 38, 67
4, 113700, Note_on_c, 2, 38, 0
4, 113760, Note_on_c, 2, 38, 69
4, 113940, Note_on_c, 2, 38, 0
4, 114000, Note_on_c, 2, 38, 69
4, 114180, Note_on_c, 2, 38, 0
4, 114240, Note_on_c, 2, 38, 69
4, 114420, Note_on_c, 2, 38, 0
4, 114480, Note_on_c, 2, 38, 70
4, 114660, Note_on_c, 2, 38, 0
4, 114720, Note_on_c, 2, 38, 73
4, 114900, Note_on_c, 2, 38, 0
4, 114960, Note_on_c, 2, 38, 75
4, 115140, Note_on_c, 2, 38, 0
4, 115200, Note_on_c, 2, 38, 78
4, 115380, Note_on_c, 2, 38, 0
4, 115440, Note_on_c, 2, 38, 79
4, 115620, Note_on_c, 2, 38, 0
4, 115680, Note_on_c, 2, 38, 81
4, 115860, Note_on_c, 2, 38, 0
4, 115920, Note_on_c, 2, 38, 84
4, 116100, Note_on_c, 2, 38, 0
4, 116160, Note_on_c, 2, 38, 87
4, 116340, Note_on_c, 2, 38, 0
4, 116400, Note_on_c, 2, 36, 91
4, 116580, Note_on_c, 2, 36, 0
4, 116640, Note_on_c, 2, 36, 95
4, 116820, Note_on_c, 2, 36, 0
4, 116880, Note_on_c, 2, 40, 97
4, 117060, Note_on_c, 2, 40, 0
4, 117120, Note_on_c, 2, 36, 100
4, 117300, Note_on_c, 2, 36, 0
4, 117360, Note_on_c, 2, 38, 100
4, 117540, Note_on_c, 2, 38, 0
4, 117600, Note_on_c, 2, 38, 65
4, 117780, Note_on_c, 2, 38, 0
4, 117840, Note_on_c, 2, 38, 66
4, 118020, Note_on_c, 2, 38, 0
4, 118080, Note_on_c, 2, 38, 68
4, 118260, Note_on_c, 2, 38, 0
4, 118320, Note_on_c, 2, 38, 69
4, 118500, Note_on_c, 2, 38, 0
4, 118560, Note_on_c, 2, 38, 71
4, 118740, Note_on_c, 2, 38, 0
4, 118800, Note_on_c, 2, 38, 73
4, 118980, Note_on_c, 2, 38, 0
4, 119040, Note_on_c, 2, 38, 75
4, 119220, Note_on_c, 2, 38, 0
4, 119280, Note_on_c, 2, 38, 77
4, 119460, Note_on_c, 2, 38, 0
4, 119520, Note_on_c, 2, 38, 81
4, 119700, Note_on_c, 2, 38, 0
4, 119760, Note_on_c, 2, 38, 84
4, 119940, Note_on_c, 2, 38, 0
4, 120000, Note_on_c, 2, 38, 87
4, 120180, Note_on_c, 2, 38, 0
4, 120240, Note_on_c, 2, 36, 89
4, 120420, Note_on_c, 2, 36, 0
4, 120480, Note_on_c, 2, 36, 93
4, 120660, Note_on_c, 2, 36, 0
4, 120720, Note_on_c, 2, 40, 98
4, 120900, Note_on_c, 2, 40, 0
4, 120960, Note_on_c, 2, 36, 105
4, 121140, Note_on_c, 2, 36, 0
4, 121200, Note_on_c, 2, 38, 70
4, 121380, Note_on_c, 2, 38, 0
4, 121440, Note_on_c, 2, 38, 72
4, 121620, Note_on_c, 2, 38, 0
4, 121680, Note_on_c, 2, 38, 82
4, 121860, Note_on_c, 2, 38, 0
4, 121920, Note_on_c, 2, 38, 79
4, 122100, Note_on_c, 2, 38, 0
4, 122160, Note_on_c, 2, 38, 80
4, 122340, Note_on_c, 2, 38, 0
4, 122400, Note_on_c, 2, 38, 89
4, 122580, Note_on_c, 2, 38, 0
4, 122640, Note_on_c, 2, 38, 80
4, 122820, Note_on_c, 2, 38, 0
4, 122880, Note_on_c, 2, 38, 82
4, 123060, Note_on_c, 2, 38, 0
4, 123120, Note_on_c, 2, 38, 83
4, 123300, Note_on_c, 2, 38, 0
4, 123360, Note_on_c, 2, 38, 85
4, 123540, Note_on_c, 2, 38, 0
4, 123600, Note_on_c, 2, 38, 88
4, 123780, Note_on_c, 2, 38, 0
4, 123840, Note_on_c, 2, 38, 92
4, 124020, Note_on_c, 2, 38, 0
4, 124080, Note_on_c, 2, 36, 96
4, 124260, Note_on_c, 2, 36, 0
4, 124320, Note_on_c, 2, 36, 102
4, 124500, Note_on_c, 2, 36, 0
4, 124560, Note_on_c, 2, 40, 106
4, 124740, Note_on_c, 2, 40, 0
4, 124800, Note_on_c, 2, 36, 111
4, 124980, Note_on_c, 2, 36, 0
4, 125040, Note_on_c, 2, 38, 118
4, 125220, Note_on_c, 2, 38, 0
4, 125280, Note_on_c, 2, 38, 101
4, 125460, Note_on_c, 2, 38, 0
4, 125520, Note_on_c, 2, 38, 98
4, 125700, Note_on_c, 2, 38, 0
4, 125760, Note_on_c, 2, 38, 96
4, 125940, Note_on_c, 2, 38, 0
4, 126000, Note_on_c, 2, 38, 96
4, 126180, Note_on_c, 2, 38, 0
4, 126240, Note_on_c, 2, 38, 94
4, 126420, Note_on_c, 2, 38, 0
4, 126480, Note_on_c, 2, 38, 92
4, 126660, Note_on_c, 2, 38, 0
4, 126720, Note_on_c, 2, 38, 92
4, 126900, Note_on_c, 2, 38, 0
4, 126960, Note_on_c, 2, 38, 92
4, 127140, Note_on_c, 2, 38, 0
4, 127200, Note_on_c, 2, 38, 91
4, 127380, Note_on_c, 2, 38, 0
4, 127440, Note_on_c, 2, 38, 92
4, 127620, Note_on_c, 2, 38, 0
4, 127680, Note_on_c, 2, 38, 94
4, 127860, Note_on_c, 2, 38, 0
4, 127920, Note_on_c, 2, 36, 96
4, 128100, Note_on_c, 2, 36, 0
4, 128160, Note_on_c, 2, 36, 96
4, 128340, Note_on_c, 2, 36, 0
4, 128400, Note_on_c, 2, 40, 97
4, 128580, Note_on_c, 2, 40, 0
4, 128640, Note_on_c, 2, 36, 98
4, 128820, Note_on_c, 2, 36, 0
4, 128880, Note_on_c, 2, 38, 100
4, 129060, Note_on_c, 2, 38, 0
4, 129120, Note_on_c, 2, 38, 101
4, 129300, Note_on_c, 2, 38, 0
4, 129360, Note_on_c, 2, 38, 102
4, 129540, Note_on_c, 2, 38, 0
4, 129600, Note_on_c, 2, 38, 103
4, 129780, Note_on_c, 2, 38, 0
4, 129840, Note_on_c, 2, 38, 103
4, 130020, Note_on_c, 2, 38, 0
4, 130080, Note_on_c, 2, 38, 104
4, 130260, Note_on_c, 2, 38, 0
4, 130320, Note_on_c, 2, 38, 104
4, 130500, Note_on_c, 2, 38, 0
4, 130560, Note_on_c, 2, 38, 104
4, 130740, Note_on_c, 2, 38, 0
4, 130800, Note_on_c, 2, 38, 104
4, 130980, Note_on_c, 2, 38, 0
4, 131040, Note_on_c, 2, 38, 104
4, 131220, Note_on_c, 2, 38, 0
4, 131280, Note_on_c, 2, 38, 103
4, 131460, Note_on_c, 2, 38, 0
4, 131520, Note_on_c, 2, 38, 103
4, 131700, Note_on_c, 2, 38, 0
4, 131760, Note_on_c, 2, 36, 101
4, 131940, Note_on_c, 2, 36, 0
4, 132000, Note_on_c, 2, 36, 100
4, 132180, Note_on_c, 2, 36, 0
4, 132240, Note_on_c, 2, 40, 98
4, 132420, Note_on_c, 2, 40, 0
4, 132480, Note_on_c, 2, 36, 97
4, 132660, Note_on_c, 2, 36, 0
4, 132720, Note_on_c, 2, 38, 95
4, 132900, Note_on_c, 2, 38, 0
4, 132960, Note_on_c, 2, 38, 94
4, 133140, Note_on_c, 2, 38, 0
4, 133200, Note_on_c, 2, 38, 94
4, 133380, Note_on_c, 2, 38, 0
4, 133440, Note_on_c, 2, 38, 94
4, 133620, Note_on_c, 2, 38, 0
4, 133680, Note_on_c, 2, 38, 94
4, 133860, Note_on_c, 2, 38, 0
4, 133920, Note_on_c, 2, 38, 94
4, 134100, Note_on_c, 2, 38, 0
4, 134160, Note_on_c, 2, 38, 94
4, 134340, Note_on_c, 2, 38, 0
4, 134400, Note_on_c, 2, 38, 93
4, 134580, Note_on_c, 2, 38, 0
4, 134640, Note_on_c, 2, 38, 92
4, 134820, Note_on_c, 2, 38, 0
4, 134880, Note_on_c, 2, 38, 91
4, 135060, Note_on_c, 2, 38, 0
4, 135120, Note_on_c, 2, 38, 91
4, 135300, Note_on_c, 2, 38, 0
4, 135360, Note_on_c, 2, 38, 92
4, 135540, Note_on_c, 2, 38, 0
4, 135600, Note_on_c, 2, 36, 92
4, 135780, Note_on_c, 2, 36, 0
4, 135840, Note_on_c, 2, 36, 94
4, 136020, Note_on_c, 2, 36, 0
4, 136080, Note_on_c, 2, 40, 96
4, 136260, Note_on_c, 2, 40, 0
4, 136320, Note_on_c, 2, 36, 98
4, 136500, Note_on_c, 2, 36, 0
4, 136560, Note_on_c, 2, 38, 101
4, 136740, Note_on_c, 2, 38, 0
4, 136800, Note_on_c, 2, 38, 103
4, 136980, Note_on_c, 2, 38, 0
4, 137040, Note_on_c, 2, 38, 104
4, 137220, Note_on_c, 2, 38, 0
4, 137280, Note_on_c, 2, 38, 106
4, 137460, Note_on_c, 2, 38, 0
4, 137520, Note_on_c, 2, 38, 106
4, 137700, Note_on_c, 2, 38, 0
4, 137760, Note_on_c, 2, 38, 103
4, 137940, Note_on_c, 2, 38, 0
4, 138000, Note_on_c, 2, 38, 101
4, 138180, Note_on_c, 2, 38, 0
4, 138240, Note_on_c, 2, 38, 98
4, 138420, Note_on_c, 2, 38, 0
4, 138480, Note_on_c, 2, 38, 96
4, 138660, Note_on_c, 2, 38, 0
4, 138720, Note_on_c, 2, 38, 95
4, 138900, Note_on_c, 2, 38, 0
4, 138960, Note_on_c, 2, 38, 94
4, 139140, Note_on_c, 2, 38, 0
4, 139200, Note_on_c, 2, 38, 94
4, 139380, Note_on_c, 2, 38, 0
4, 139440, Note_on_c, 2, 36, 93
4, 139620, Note_on_c, 2, 36, 0
4, 139680, Note_on_c, 2, 36, 93
4, 139860, Note_on_c, 2, 36, 0
4, 139920, Note_on_c, 2, 40, 93
4, 140100, Note_on_c, 2, 40, 0
4, 140160, Note_on_c, 2, 36, 93
4, 140340, Note_on_c, 2, 36, 0
4, 140400, Note_on_c, 2, 38, 93
4, 140580, Note_on_c, 2, 38, 0
4, 140640, Note_on_c, 2, 38, 93
4, 140820, Note_on_c, 2, 38, 0
4, 140880, Note_on_c, 2, 38, 93
4, 141060, Note_on_c, 2, 38, 0
4, 141120, Note_on_c, 2, 38, 93
4, 141300, Note_on_c, 2, 38, 0
4, 141360, Note_on_c, 2, 38, 94
4, 141540, Note_on_c, 2, 38, 0
4, 141600, Note_on_c, 2, 38, 95
4, 141780, Note_on_c, 2, 38, 0
4, 141840, Note_on_c, 2, 38, 97
4, 142020, Note_on_c, 2, 38, 0
4, 142080, Note_on_c, 2, 38, 99
4, 142260, Note_on_c, 2, 38, 0
4, 142320, Note_on_c, 2, 38, 100
4, 142500, Note_on_c, 2, 38, 0
4, 142560, Note_on_c, 2, 38, 102
4, 142740, Note_on_c, 2, 38, 0
4, 142800, Note_on_c, 2, 38, 103
4, 142980, Note_on_c, 2, 38, 0
4, 143040, Note_on_c, 2, 38, 104
4, 143220, Note_on_c, 2, 38, 0
4, 143280, Note_on_c, 2, 36, 106
4, 143460, Note_on_c, 2, 36, 0
4, 143520, Note_on_c, 2, 36, 106
4, 143700, Note_on_c, 2, 36, 0
4, 143760, Note_on_c, 2, 40, 107
4, 143940, Note_on_c, 2, 40, 0
4, 144000, Note_on_c, 2, 36, 108
4, 144180, Note_on_c, 2, 36, 0
4, 144240, Note_on_c, 2, 38, 109
4, 144420, Note_on_c, 2, 38, 0
4, 144480, Note_on_c, 2, 38, 109
4, 144660, Note_on_c, 2, 38, 0
4, 144720, Note_on_c, 2, 38, 109
4, 144900, Note_on_c, 2, 38, 0
4, 144960, Note_on_c, 2, 38, 109
4, 145140, Note_on_c, 2, 38, 0
4, 145200, Note_on_c, 2, 38, 109
4, 145380, Note_on_c, 2, 38, 0
4, 145440, Note_on_c, 2, 38, 109
4, 145620, Note_on_c, 2, 38, 0
4, 145680, Note_on_c, 2, 38, 109
4, 145860, Note_on_c, 2, 38, 0
4, 145920, Note_on_c, 2, 38, 109
4, 146100, Note_on_c, 2, 38, 0
4, 146160, Note_on_c, 2, 38, 109
4, 146340, Note_on_c, 2, 38, 0
4, 146400, Note_on_c, 2, 38, 109
4, 146580, Note_on_c, 2, 38, 0
4, 146640, Note_on_c, 2, 38, 108
4, 146820, Note_on_c, 2, 38, 0
4, 146880, Note_on_c, 2, 38, 106
4, 147060, Note_on_c, 2, 38, 0
4, 147120, Note_on_c, 2, 36, 100
4, 147300, Note_on_c, 2, 36, 0
4, 147360, Note_on_c, 2, 36, 100
4, 147540, Note_on_c, 2, 36, 0
4, 147600, Note_on_c, 2, 40, 100
4, 147780, Note_on_c, 2, 40, 0
4, 147840, Note_on_c, 2, 36, 100
4, 148020, Note_on_c, 2, 36, 0
4, 148080, Note_on_c, 2, 38, 100
4, 148260, Note_on_c, 2, 38, 0
4, 148320, Note_on_c, 2, 38, 100
4, 148500, Note_on_c, 2, 38, 0
4, 148560, Note_on_c, 2, 38, 100
4, 148740, Note_on_c, 2, 38, 0
4, 148800, Note_on_c, 2, 38, 100
4, 148980, Note_on_c, 2, 38, 0
4, 149040, Note_on_c, 2, 38, 100
4, 149220, Note_on_c, 2, 38, 0
4, 149280, Note_on_c, 2, 38, 100
4, 149460, Note_on_c, 2, 38, 0
4, 149520, Note_on_c, 2, 38, 100
4, 149700, Note_on_c, 2, 38, 0
4, 149760, Note_on_c, 2, 38, 100
4, 149940, Note_on_c, 2, 38, 0
4, 150000, Note_on_c, 2, 38, 100
4, 150180, Note_on_c, 2, 38, 0
4, 150240, Note_on_c, 2, 38, 100
4, 150420, Note_on_c, 2, 38, 0
4, 150480, Note_on_c, 2, 38, 100
4, 150660, Note_on_c, 2, 38, 0
4, 150720, Note_on_c, 2, 38, 100
4, 150900, Note_on_c, 2, 38, 0
4, 150960, Note_on_c, 2, 36, 100
4, 151140, Note_on_c, 2, 36, 0
4, 151200, Note_on_c, 2, 36, 100
4, 151380, Note_on_c, 2, 36, 0
4, 151440, Note_on_c, 2, 40, 100
4, 151620, Note_on_c, 2, 40, 0
4, 151680, Note_on_c, 2, 36, 100
4, 151860, Note_on_c, 2, 36, 0
4, 151920, Note_on_c, 2, 38, 100
4, 152580, Note_on_c, 2, 38, 0
4, 152640, Note_on_c, 2, 36, 100
4, 152820, Note_on_c, 2, 36, 0
4, 152880, Note_on_c, 2, 38, 100
4, 153540, Note_on_c, 2, 38, 0
4, 153600, Note_on_c, 2, 36, 100
4, 153780, Note_on_c, 2, 36, 0
4, 153840, Note_on_c, 2, 38, 100
4, 154020, Note_on_c, 2, 38, 0
4, 154080, Note_on_c, 2, 41, 100
4, 154500, Note_on_c, 2, 41, 0
4, 154560, Note_on_c, 2, 41, 100
4, 154980, Note_on_c, 2, 41, 0
4, 155040, Note_on_c, 2, 39, 100
4, 155220, Note_on_c, 2, 39, 0
4, 155280, Note_on_c, 2, 39, 100
4, 155460, Note_on_c, 2, 39, 0
4, 155520, Note_on_c, 2, 36, 100
4, 155700, Note_on_c, 2, 36, 0
4, 155760, Note_on_c, 2, 38, 100
4, 156420, Note_on_c, 2, 38, 0
4, 156480, Note_on_c, 2, 36, 100
4, 156660, Note_on_c, 2, 36, 0
4, 156720, Note_on_c, 2, 38, 100
4, 157380, Note_on_c, 2, 38, 0
4, 157440, Note_on_c, 2, 36, 100
4, 157620, Note_on_c, 2, 36, 0
4, 157680, Note_on_c, 2, 38, 100
4, 157860, Note_on_c, 2, 38, 0
4, 157920, Note_on_c, 2, 41, 100
4, 158340, Note_on_c, 2, 41, 0
4, 158400, Note_on_c, 2, 41, 100
4, 158820, Note_on_c, 2, 41, 0
4, 158880, Note_on_c, 2, 39, 100
4, 159060, Note_on_c, 2, 39, 0
4, 159120, Note_on_c, 2, 39, 100
4, 159300, Note_on_c, 2, 39, 0
4, 159360, Note_on_c, 2, 36, 100
4, 159540, Note_on_c, 2, 36, 0
4, 159600, Note_on_c, 2, 38, 100
4, 160260, Note_on_c, 2, 38, 0
4, 160320, Note_on_c, 2, 33, 100
4, 160500, Note_on_c, 2, 33, 0
4, 160560, Note_on_c, 2, 38, 100
4, 161220, Note_on_c, 2, 38, 0
4, 161280, Note_on_c, 2, 33, 100
4, 161460, Note_on_c, 2, 33, 0
4, 161520, Note_on_c, 2, 38, 100
4, 161700, Note_on_c, 2, 38, 0
4, 161760, Note_on_c, 2, 41, 100
4, 162180, Note_on_c, 2, 41, 0
4, 162240, Note_on_c, 2, 41, 100
4, 162660, Note_on_c, 2, 41, 0
4, 162720, Note_on_c, 2, 39, 100
4, 163140, Note_on_c, 2, 39, 0
4, 163200, Note_on_c, 2, 36, 100
4, 163380, Note_on_c, 2, 36, 0
4, 163440, Note_on_c, 2, 38, 100
4, 164100, Note_on_c, 2, 38, 0
4, 164160, Note_on_c, 2, 33, 100
4, 164340, Note_on_c, 2, 33, 0
4, 164400, Note_on_c, 2, 38, 100
4, 165060, Note_on_c, 2, 38, 0
4, 165120, Note_on_c, 2, 33, 100
4, 165300, Note_on_c, 2, 33, 0
4, 165360, Note_on_c, 2, 38, 100
4, 165540, Note_on_c, 2, 38, 0
4, 165600, Note_on_c, 2, 41, 100
4, 166020, Note_on_c, 2, 41, 0
4, 166080, Note_on_c, 2, 41, 100
4, 166500, Note_on_c, 2, 41, 0
4, 166560, Note_on_c, 2, 39, 100
4, 166980, Note_on_c, 2, 39, 0
4, 167040, Note_on_c, 2, 36, 100
4, 167220, Note_on_c, 2, 36, 0
4, 167280, Note_on_c, 2, 26, 100
4, 167700, Note_on_c, 2, 26, 0
4, 167760, Note_on_c, 2, 26, 100
4, 168180, Note_on_c, 2, 26, 0
4, 168240, Note_on_c, 2, 26, 100
4, 168660, Note_on_c, 2, 26, 0
4, 168720, Note_on_c, 2, 26, 100
4, 168900, Note_on_c, 2, 26, 0
4, 168960, Note_on_c, 2, 26, 100
4, 169140, Note_on_c, 2, 26, 0
4, 169200, Note_on_c, 2, 24, 100
4, 169620, Note_on_c, 2, 24, 0
4, 169680, Note_on_c, 2, 24, 100
4, 170100, Note_on_c, 2, 24, 0
4, 170160, Note_on_c, 2, 24, 100
4, 170580, Note_on_c, 2, 24, 0
4, 170640, Note_on_c, 2, 24, 100
4, 170820, Note_on_c, 2, 24, 0
4, 170880, Note_on_c, 2, 24, 100
4, 171060, Note_on_c, 2, 24, 0
4, 171120, Note_on_c, 2, 26, 100
4, 171540, Note_on_c, 2, 26, 0
4, 171600, Note_on_c, 2, 26, 100
4, 172020, Note_on_c, 2, 26, 0
4, 172080, Note_on_c, 2, 26, 100
4, 172500, Note_on_c, 2, 26, 0
4, 172560, Note_on_c, 2, 26, 100
4, 172740, Note_on_c, 2, 26, 0
4, 172800, Note_on_c, 2, 26, 100
4, 172980, Note_on_c, 2, 26, 0
4, 173040, Note_on_c, 2, 24, 100
4, 173460, Note_on_c, 2, 24, 0
4, 173520, Note_on_c, 2, 24, 100
4, 173940, Note_on_c, 2, 24, 0
4, 174000, Note_on_c, 2, 24, 100
4, 174420, Note_on_c, 2, 24, 0
4, 174480, Note_on_c, 2, 24, 100
4, 174660, Note_on_c, 2, 24, 0
4, 174720, Note_on_c, 2, 24, 100
4, 174900, Note_on_c, 2, 24, 0
4, 174960, Note_on_c, 2, 26, 100
4, 175380, Note_on_c, 2, 26, 0
4, 175440, Note_on_c, 2, 26, 100
4, 175860, Note_on_c, 2, 26, 0
4, 175920, Note_on_c, 2, 26, 100
4, 176340, Note_on_c, 2, 26, 0
4, 176400, Note_on_c, 2, 26, 100
4, 176580, Note_on_c, 2, 26, 0
4, 176640, Note_on_c, 2, 26, 100
4, 176820, Note_on_c, 2, 26, 0
4, 176880, Note_on_c, 2, 24, 100
4, 177300, Note_on_c, 2, 24, 0
4, 177360, Note_on_c, 2, 24, 100
4, 177780, Note_on_c, 2, 24, 0
4, 177840, Note_on_c, 2, 24, 100
4, 178260, Note_on_c, 2, 24, 0
4, 178320, Note_on_c, 2, 24, 100
4, 178500, Note_on_c, 2, 24, 0
4, 178560, Note_on_c, 2, 24, 100
4, 178740, Note_on_c, 2, 24, 0
4, 178800, Note_on_c, 2, 26, 100
4, 179220, Note_on_c, 2, 26, 0
4, 179280, Note_on_c, 2, 26, 100
4, 179700, Note_on_c, 2, 26, 0
4, 179760, Note_on_c, 2, 26, 100
4, 180180, Note_on_c, 2, 26, 0
4, 180240, Note_on_c, 2, 26, 100
4, 180420, Note_on_c, 2, 26, 0
4, 180480, Note_on_c, 2, 26, 100
4, 180660, Note_on_c, 2, 26, 0
4, 180720, Note_on_c, 2, 24, 100
4, 181140, Note_on_c, 2, 24, 0
4, 181200, Note_on_c, 2, 24, 100
4, 181620, Note_on_c, 2, 24, 0
4, 181680, Note_on_c, 2, 24, 100
4, 182100, Note_on_c, 2, 24, 0
4, 182160, Note_on_c, 2, 24, 100
4, 182340, Note_on_c, 2, 24, 0
4, 182400, Note_on_c, 2, 24, 100
4, 182580, Note_on_c, 2, 24, 0
4, 182640, Note_on_c, 2, 26, 100
4, 183060, Note_on_c, 2, 26, 0
4, 183600, Note_on_c, 2, 26, 100
4, 184020, Note_on_c, 2, 26, 0
4, 184560, Note_on_c, 2, 21, 100
4, 184560, Note_on_c, 2, 33, 100
4, 186420, Note_on_c, 2, 33, 0
4, 186420, Note_on_c, 2, 21, 0
4, 186480, Note_on_c, 2, 33, 100
4, 186480, Note_on_c, 2, 21, 100
4, 187320, Note_on_c, 2, 21, 0
4, 187440, Note_on_c, 2, 33, 0
4, 187440, End_track
5, 0, Start_track
5, 0, MIDI_port, 0
5, 0, Title_t, "BREATH"
5, 497, Program_c, 3, 121
5, 498, Control_c, 3, 10, 64
5, 21120, Note_on_c, 3, 69, 127
5, 21210, Note_on_c, 3, 69, 0
5, 21240, Note_on_c, 3, 69, 127
5, 21330, Note_on_c, 3, 69, 0
5, 21360, Note_on_c, 3, 69, 127
5, 21540, Note_on_c, 3, 69, 0
5, 21840, Note_on_c, 3, 62, 127
5, 22020, Note_on_c, 3, 62, 0
5, 22080, Note_on_c, 3, 69, 127
5, 22170, Note_on_c, 3, 69, 0
5, 22200, Note_on_c, 3, 69, 127
5, 22290, Note_on_c, 3, 69, 0
5, 23040, Note_on_c, 3, 69, 127
5, 23130, Note_on_c, 3, 69, 0
5, 23160, Note_on_c, 3, 69, 127
5, 23250, Note_on_c, 3, 69, 0
5, 23760, Note_on_c, 3, 67, 127
5, 23850, Note_on_c, 3, 67, 0
5, 23880, Note_on_c, 3, 65, 127
5, 23970, Note_on_c, 3, 65, 0
5, 24240, Note_on_c, 3, 65, 127
5, 24330, Note_on_c, 3, 65, 0
5, 24360, Note_on_c, 3, 64, 127
5, 24450, Note_on_c, 3, 64, 0
5, 24960, Note_on_c, 3, 62, 127
5, 25050, Note_on_c, 3, 62, 0
5, 25080, Note_on_c, 3, 62, 127
5, 25170, Note_on_c, 3, 62, 0
5, 25200, Note_on_c, 3, 62, 127
5, 25380, Note_on_c, 3, 62, 0
5, 25920, Note_on_c, 3, 69, 127
5, 26010, Note_on_c, 3, 69, 0
5, 26040, Note_on_c, 3, 69, 127
5, 26130, Note_on_c, 3, 69, 0
5, 26640, Note_on_c, 3, 62, 127
5, 26820, Note_on_c, 3, 62, 0
5, 26880, Note_on_c, 3, 69, 127
5, 26970, Note_on_c, 3, 69, 0
5, 27000, Note_on_c, 3, 69, 127
5, 27090, Note_on_c, 3, 69, 0
5, 27120, Note_on_c, 3, 69, 127
5, 27300, Note_on_c, 3, 69, 0
5, 27600, Note_on_c, 3, 67, 127
5, 27690, Note_on_c, 3, 67, 0
5, 27720, Note_on_c, 3, 65, 127
5, 27810, Note_on_c, 3, 65, 0
5, 28080, Note_on_c, 3, 65, 127
5, 28170, Note_on_c, 3, 65, 0
5, 28200, Note_on_c, 3, 64, 127
5, 28290, Note_on_c, 3, 64, 0
5, 29760, Note_on_c, 3, 69, 127
5, 29850, Note_on_c, 3, 69, 0
5, 29880, Note_on_c, 3, 69, 127
5, 29970, Note_on_c, 3, 69, 0
5, 30000, Note_on_c, 3, 69, 127
5, 30180, Note_on_c, 3, 69, 0
5, 30720, Note_on_c, 3, 69, 127
5, 30810, Note_on_c, 3, 69, 0
5, 30840, Note_on_c, 3, 69, 127
5, 30930, Note_on_c, 3, 69, 0
5, 30960, Note_on_c, 3, 69, 127
5, 31140, Note_on_c, 3, 69, 0
5, 31440, Note_on_c, 3, 67, 127
5, 31530, Note_on_c, 3, 67, 0
5, 31560, Note_on_c, 3, 65, 127
5, 31650, Note_on_c, 3, 65, 0
5, 31680, Note_on_c, 3, 67, 127
5, 31860, Note_on_c, 3, 67, 0
5, 31920, Note_on_c, 3, 65, 127
5, 32010, Note_on_c, 3, 65, 0
5, 32040, Note_on_c, 3, 64, 127
5, 32130, Note_on_c, 3, 64, 0
5, 32160, Note_on_c, 3, 65, 127
5, 32340, Note_on_c, 3, 65, 0
5, 32400, Note_on_c, 3, 63, 127
5, 32580, Note_on_c, 3, 63, 0
5, 32640, Note_on_c, 3, 62, 127
5, 32730, Note_on_c, 3, 62, 0
5, 32760, Note_on_c, 3, 62, 127
5, 32850, Note_on_c, 3, 62, 0
5, 32880, Note_on_c, 3, 62, 127
5, 33060, Note_on_c, 3, 62, 0
5, 33600, Note_on_c, 3, 69, 127
5, 33690, Note_on_c, 3, 69, 0
5, 33720, Note_on_c, 3, 69, 127
5, 33810, Note_on_c, 3, 69, 0
5, 34320, Note_on_c, 3, 62, 127
5, 34500, Note_on_c, 3, 62, 0
5, 34680, Note_on_c, 3, 69, 127
5, 34770, Note_on_c, 3, 69, 0
5, 34800, Note_on_c, 3, 69, 127
5, 34980, Note_on_c, 3, 69, 0
5, 35280, Note_on_c, 3, 67, 127
5, 35370, Note_on_c, 3, 67, 0
5, 35400, Note_on_c, 3, 65, 127
5, 35490, Note_on_c, 3, 65, 0
5, 37674, Note_on_c, 3, 74, 127
5, 38304, Note_on_c, 3, 74, 0
5, 39360, Note_on_c, 3, 75, 127
5, 39504, Note_on_c, 3, 75, 0
5, 40012, Note_on_c, 3, 72, 127
5, 40224, Note_on_c, 3, 72, 0
5, 41280, Note_on_c, 3, 77, 127
5, 41760, Note_on_c, 3, 77, 0
5, 41760, Note_on_c, 3, 74, 127
5, 41920, Note_on_c, 3, 74, 0
5, 42000, Note_on_c, 3, 76, 127
5, 42660, Note_on_c, 3, 76, 0
5, 43200, Note_on_c, 3, 76, 127
5, 43320, Note_on_c, 3, 76, 0
5, 43520, Note_on_c, 3, 74, 127
5, 43680, Note_on_c, 3, 74, 0
5, 43908, Note_on_c, 3, 72, 127
5, 44118, Note_on_c, 3, 72, 0
5, 44880, Note_on_c, 3, 74, 127
5, 45120, Note_on_c, 3, 74, 0
5, 45600, Note_on_c, 3, 74, 127
5, 45744, Note_on_c, 3, 74, 0
5, 48000, Note_on_c, 3, 76, 127
5, 48132, Note_on_c, 3, 76, 0
5, 49680, Note_on_c, 3, 72, 127
5, 50012, Note_on_c, 3, 72, 0
5, 55680, Note_on_c, 3, 69, 127
5, 56340, Note_on_c, 3, 69, 0
5, 56428, Note_on_c, 3, 72, 127
5, 56672, Note_on_c, 3, 72, 0
5, 58560, Note_on_c, 3, 75, 127
5, 58660, Note_on_c, 3, 75, 0
5, 58880, Note_on_c, 3, 74, 127
5, 58964, Note_on_c, 3, 74, 0
5, 59200, Note_on_c, 3, 72, 127
5, 59352, Note_on_c, 3, 72, 0
5, 59520, Note_on_c, 3, 74, 127
5, 60180, Note_on_c, 3, 74, 0
5, 60240, Note_on_c, 3, 74, 127
5, 60380, Note_on_c, 3, 74, 0
5, 60960, Note_on_c, 3, 74, 127
5, 61124, Note_on_c, 3, 74, 0
5, 61200, Note_on_c, 3, 76, 127
5, 61860, Note_on_c, 3, 76, 0
5, 62160, Note_on_c, 3, 74, 127
5, 62264, Note_on_c, 3, 74, 0
5, 62400, Note_on_c, 3, 74, 127
5, 62560, Note_on_c, 3, 74, 0
5, 62720, Note_on_c, 3, 74, 127
5, 62824, Note_on_c, 3, 74, 0
5, 63040, Note_on_c, 3, 72, 127
5, 63220, Note_on_c, 3, 72, 0
5, 63360, Note_on_c, 3, 74, 127
5, 64020, Note_on_c, 3, 74, 0
5, 64080, Note_on_c, 3, 74, 127
5, 64260, Note_on_c, 3, 74, 0
5, 64320, Note_on_c, 3, 77, 127
5, 64800, Note_on_c, 3, 74, 127
5, 64830, Note_on_c, 3, 77, 0
5, 65000, Note_on_c, 3, 74, 0
5, 65040, Note_on_c, 3, 76, 127
5, 65700, Note_on_c, 3, 76, 0
5, 67200, Note_on_c, 3, 76, 127
5, 67384, Note_on_c, 3, 76, 0
5, 67920, Note_on_c, 3, 76, 127
5, 68400, Note_on_c, 3, 76, 0
5, 68400, Note_on_c, 3, 74, 127
5, 68880, Note_on_c, 3, 74, 0
5, 69360, Note_on_c, 3, 74, 127
5, 70560, Note_on_c, 3, 74, 0
5, 72480, Note_on_c, 3, 72, 127
5, 72570, Note_on_c, 3, 72, 0
5, 72600, Note_on_c, 3, 72, 127
5, 72780, Note_on_c, 3, 72, 0
5, 72864, Note_on_c, 3, 72, 127
5, 73380, Note_on_c, 3, 72, 0
5, 73412, Note_on_c, 3, 74, 127
5, 73832, Note_on_c, 3, 74, 0
5, 77760, Note_on_c, 3, 69, 127
5, 77940, Note_on_c, 3, 69, 0
5, 78080, Note_on_c, 3, 74, 127
5, 78260, Note_on_c, 3, 74, 0
5, 78400, Note_on_c, 3, 77, 127
5, 78580, Note_on_c, 3, 77, 0
5, 79440, Note_on_c, 3, 76, 127
5, 79620, Note_on_c, 3, 76, 0
5, 79932, Note_on_c, 3, 76, 127
5, 80036, Note_on_c, 3, 76, 0
5, 80160, Note_on_c, 3, 76, 127
5, 80820, Note_on_c, 3, 76, 0
5, 80850, Note_on_c, 3, 74, 127
5, 80970, Note_on_c, 3, 74, 0
5, 80970, Note_on_c, 3, 76, 127
5, 81120, Note_on_c, 3, 76, 0
5, 81120, Note_on_c, 3, 77, 127
5, 81300, Note_on_c, 3, 77, 0
5, 81600, Note_on_c, 3, 69, 127
5, 81780, Note_on_c, 3, 69, 0
5, 81920, Note_on_c, 3, 74, 127
5, 82100, Note_on_c, 3, 74, 0
5, 82240, Note_on_c, 3, 77, 127
5, 82420, Note_on_c, 3, 77, 0
5, 83280, Note_on_c, 3, 76, 127
5, 83460, Note_on_c, 3, 76, 0
5, 83760, Note_on_c, 3, 76, 127
5, 83940, Note_on_c, 3, 76, 0
5, 84690, Note_on_c, 3, 77, 127
5, 84810, Note_on_c, 3, 77, 0
5, 84810, Note_on_c, 3, 76, 127
5, 84960, Note_on_c, 3, 76, 0
5, 84960, Note_on_c, 3, 74, 127
5, 85140, Note_on_c, 3, 74, 0
5, 85440, Note_on_c, 3, 69, 127
5, 85620, Note_on_c, 3, 69, 0
5, 85760, Note_on_c, 3, 74, 127
5, 85940, Note_on_c, 3, 74, 0
5, 86080, Note_on_c, 3, 77, 127
5, 86260, Note_on_c, 3, 77, 0
5, 86400, Note_on_c, 3, 76, 127
5, 87060, Note_on_c, 3, 76, 0
5, 87120, Note_on_c, 3, 76, 127
5, 87300, Note_on_c, 3, 76, 0
5, 87600, Note_on_c, 3, 76, 127
5, 87780, Note_on_c, 3, 76, 0
5, 87840, Note_on_c, 3, 76, 127
5, 88530, Note_on_c, 3, 76, 0
5, 88530, Note_on_c, 3, 74, 127
5, 88650, Note_on_c, 3, 74, 0
5, 88650, Note_on_c, 3, 76, 127
5, 88800, Note_on_c, 3, 76, 0
5, 88800, Note_on_c, 3, 77, 127
5, 88980, Note_on_c, 3, 77, 0
5, 90240, Note_on_c, 3, 69, 127
5, 90420, Note_on_c, 3, 69, 0
5, 90480, Note_on_c, 3, 69, 127
5, 90612, Note_on_c, 3, 69, 0
5, 90720, Note_on_c, 3, 74, 127
5, 90900, Note_on_c, 3, 74, 0
5, 91200, Note_on_c, 3, 67, 127
5, 91344, Note_on_c, 3, 67, 0
5, 91440, Note_on_c, 3, 67, 127
5, 91620, Note_on_c, 3, 67, 0
5, 91680, Note_on_c, 3, 69, 127
5, 91860, Note_on_c, 3, 69, 0
5, 91920, Note_on_c, 3, 69, 127
5, 92100, Note_on_c, 3, 69, 0
5, 92160, Note_on_c, 3, 74, 127
5, 92340, Note_on_c, 3, 74, 0
5, 92400, Note_on_c, 3, 72, 127
5, 92730, Note_on_c, 3, 72, 0
5, 92760, Note_on_c, 3, 72, 127
5, 92850, Note_on_c, 3, 72, 0
5, 92880, Note_on_c, 3, 67, 127
5, 93060, Note_on_c, 3, 67, 0
5, 93120, Note_on_c, 3, 69, 127
5, 93300, Note_on_c, 3, 69, 0
5, 93360, Note_on_c, 3, 69, 127
5, 93540, Note_on_c, 3, 69, 0
5, 93840, Note_on_c, 3, 72, 127
5, 94170, Note_on_c, 3, 72, 0
5, 94200, Note_on_c, 3, 72, 127
5, 94290, Note_on_c, 3, 72, 0
5, 94560, Note_on_c, 3, 69, 127
5, 94740, Note_on_c, 3, 69, 0
5, 94800, Note_on_c, 3, 69, 127
5, 94980, Note_on_c, 3, 69, 0
5, 95040, Note_on_c, 3, 74, 127
5, 95220, Note_on_c, 3, 74, 0
5, 95280, Note_on_c, 3, 72, 127
5, 95940, Note_on_c, 3, 72, 0
5, 96000, Note_on_c, 3, 69, 127
5, 96180, Note_on_c, 3, 69, 0
5, 96240, Note_on_c, 3, 69, 127
5, 96420, Note_on_c, 3, 69, 0
5, 96480, Note_on_c, 3, 74, 127
5, 96660, Note_on_c, 3, 74, 0
5, 96720, Note_on_c, 3, 72, 127
5, 97140, Note_on_c, 3, 72, 0
5, 97200, Note_on_c, 3, 67, 127
5, 97380, Note_on_c, 3, 67, 0
5, 97440, Note_on_c, 3, 69, 127
5, 97620, Note_on_c, 3, 69, 0
5, 97680, Note_on_c, 3, 69, 127
5, 97860, Note_on_c, 3, 69, 0
5, 97920, Note_on_c, 3, 74, 127
5, 98100, Note_on_c, 3, 74, 0
5, 98160, Note_on_c, 3, 72, 127
5, 98820, Note_on_c, 3, 72, 0
5, 98880, Note_on_c, 3, 74, 127
5, 99000, Note_on_c, 3, 74, 0
5, 99000, Note_on_c, 3, 72, 127
5, 99100, Note_on_c, 3, 72, 0
5, 99120, Note_on_c, 3, 70, 127
5, 100020, Note_on_c, 3, 70, 0
5, 101040, Note_on_c, 3, 72, 127
5, 101940, Note_on_c, 3, 72, 0
5, 102000, Note_on_c, 3, 74, 127
5, 105720, Note_on_c, 3, 74, 0
5, 109680, Note_on_c, 3, 62, 127
5, 110400, Note_on_c, 3, 62, 0
5, 112560, Note_on_c, 3, 69, 127
5, 112804, Note_on_c, 3, 69, 0
5, 113520, Note_on_c, 3, 62, 127
5, 114240, Note_on_c, 3, 62, 0
5, 114240, Note_on_c, 3, 64, 127
5, 114960, Note_on_c, 3, 64, 0
5, 115680, Note_on_c, 3, 67, 127
5, 116400, Note_on_c, 3, 67, 0
5, 116400, Note_on_c, 3, 69, 127
5, 116820, Note_on_c, 3, 69, 0
5, 117360, Note_on_c, 3, 62, 127
5, 118080, Note_on_c, 3, 62, 0
5, 118080, Note_on_c, 3, 64, 127
5, 118800, Note_on_c, 3, 64, 0
5, 118800, Note_on_c, 3, 65, 127
5, 119520, Note_on_c, 3, 65, 0
5, 119520, Note_on_c, 3, 67, 127
5, 120300, Note_on_c, 3, 67, 0
5, 121920, Note_on_c, 3, 64, 127
5, 122640, Note_on_c, 3, 64, 0
5, 122640, Note_on_c, 3, 65, 127
5, 123360, Note_on_c, 3, 65, 0
5, 123360, Note_on_c, 3, 67, 127
5, 124080, Note_on_c, 3, 67, 0
5, 124080, Note_on_c, 3, 69, 127
5, 124500, Note_on_c, 3, 69, 0
5, 129360, Note_on_c, 3, 76, 127
5, 129512, Note_on_c, 3, 76, 0
5, 129600, Note_on_c, 3, 77, 127
5, 130020, Note_on_c, 3, 77, 0
5, 130080, Note_on_c, 3, 74, 127
5, 130320, Note_on_c, 3, 74, 0
5, 130320, Note_on_c, 3, 76, 127
5, 131040, Note_on_c, 3, 76, 0
5, 131520, Note_on_c, 3, 74, 127
5, 131684, Note_on_c, 3, 74, 0
5, 131760, Note_on_c, 3, 76, 127
5, 132240, Note_on_c, 3, 76, 0
5, 132240, Note_on_c, 3, 72, 127
5, 132480, Note_on_c, 3, 72, 0
5, 136880, Note_on_c, 3, 74, 127
5, 137024, Note_on_c, 3, 74, 0
5, 137200, Note_on_c, 3, 75, 127
5, 137292, Note_on_c, 3, 75, 0
5, 137520, Note_on_c, 3, 74, 127
5, 137700, Note_on_c, 3, 74, 0
5, 138160, Note_on_c, 3, 74, 127
5, 138340, Note_on_c, 3, 74, 0
5, 138464, Note_on_c, 3, 74, 127
5, 138480, Note_on_c, 3, 75, 127
5, 138504, Note_on_c, 3, 74, 0
5, 138612, Note_on_c, 3, 75, 0
5, 138800, Note_on_c, 3, 74, 127
5, 138980, Note_on_c, 3, 74, 0
5, 139120, Note_on_c, 3, 72, 127
5, 139300, Note_on_c, 3, 72, 0
5, 139440, Note_on_c, 3, 74, 127
5, 139620, Note_on_c, 3, 74, 0
5, 139756, Note_on_c, 3, 74, 127
5, 139760, Note_on_c, 3, 75, 127
5, 139796, Note_on_c, 3, 74, 0
5, 140180, Note_on_c, 3, 75, 0
5, 140880, Note_on_c, 3, 77, 127
5, 141840, Note_on_c, 3, 77, 0
5, 141840, Note_on_c, 3, 76, 127
5, 142080, Note_on_c, 3, 74, 127
5, 142084, Note_on_c, 3, 76, 0
5, 142204, Note_on_c, 3, 74, 0
5, 142320, Note_on_c, 3, 72, 127
5, 142580, Note_on_c, 3, 72, 0
5, 143280, Note_on_c, 3, 72, 127
5, 143460, Note_on_c, 3, 72, 0
5, 143600, Note_on_c, 3, 69, 127
5, 143780, Note_on_c, 3, 69, 0
5, 143920, Note_on_c, 3, 67, 127
5, 144100, Note_on_c, 3, 67, 0
5, 144240, Note_on_c, 3, 69, 127
5, 146100, Note_on_c, 3, 69, 0
5, 146640, Note_on_c, 3, 69, 127
5, 146700, Note_on_c, 3, 69, 0
5, 147600, Note_on_c, 3, 69, 127
5, 147660, Note_on_c, 3, 69, 0
5, 148560, Note_on_c, 3, 69, 127
5, 148620, Note_on_c, 3, 69, 0
5, 149520, Note_on_c, 3, 69, 127
5, 149580, Note_on_c, 3, 69, 0
5, 150480, Note_on_c, 3, 69, 127
5, 150540, Note_on_c, 3, 69, 0
5, 151440, Note_on_c, 3, 69, 127
5, 151500, Note_on_c, 3, 69, 0
5, 154080, Note_on_c, 3, 74, 127
5, 154560, Note_on_c, 3, 74, 0
5, 155040, Note_on_c, 3, 77, 127
5, 155520, Note_on_c, 3, 77, 0
5, 155520, Note_on_c, 3, 79, 127
5, 155660, Note_on_c, 3, 79, 0
5, 157920, Note_on_c, 3, 74, 127
5, 158400, Note_on_c, 3, 74, 0
5, 158400, Note_on_c, 3, 76, 127
5, 158832, Note_on_c, 3, 76, 0
5, 159360, Note_on_c, 3, 79, 127
5, 159540, Note_on_c, 3, 79, 0
5, 161760, Note_on_c, 3, 74, 127
5, 162240, Note_on_c, 3, 74, 0
5, 162240, Note_on_c, 3, 76, 127
5, 162720, Note_on_c, 3, 76, 0
5, 162720, Note_on_c, 3, 77, 127
5, 163200, Note_on_c, 3, 77, 0
5, 163200, Note_on_c, 3, 79, 127
5, 163380, Note_on_c, 3, 79, 0
5, 166080, Note_on_c, 3, 76, 127
5, 166560, Note_on_c, 3, 76, 0
5, 166560, Note_on_c, 3, 77, 127
5, 167040, Note_on_c, 3, 77, 0
5, 168240, Note_on_c, 3, 74, 127
5, 168930, Note_on_c, 3, 74, 0
5, 168930, Note_on_c, 3, 71, 127
5, 169050, Note_on_c, 3, 71, 0
5, 169200, Note_on_c, 3, 67, 127
5, 169290, Note_on_c, 3, 67, 0
5, 169320, Note_on_c, 3, 69, 127
5, 170100, Note_on_c, 3, 69, 0
5, 170160, Note_on_c, 3, 67, 127
5, 170280, Note_on_c, 3, 67, 0
5, 170280, Note_on_c, 3, 65, 127
5, 170400, Note_on_c, 3, 65, 0
5, 170520, Note_on_c, 3, 65, 127
5, 170640, Note_on_c, 3, 65, 0
5, 170640, Note_on_c, 3, 67, 127
5, 170760, Note_on_c, 3, 67, 0
5, 170760, Note_on_c, 3, 68, 127
5, 170880, Note_on_c, 3, 68, 0
5, 171000, Note_on_c, 3, 65, 127
5, 171090, Note_on_c, 3, 65, 0
5, 171120, Note_on_c, 3, 62, 127
5, 171420, Note_on_c, 3, 62, 0
5, 171450, Note_on_c, 3, 62, 127
5, 171630, Note_on_c, 3, 62, 0
5, 171660, Note_on_c, 3, 62, 127
5, 171750, Note_on_c, 3, 62, 0
5, 171780, Note_on_c, 3, 62, 127
5, 171960, Note_on_c, 3, 62, 0
5, 171990, Note_on_c, 3, 62, 127
5, 172170, Note_on_c, 3, 62, 0
5, 172200, Note_on_c, 3, 62, 127
5, 172290, Note_on_c, 3, 62, 0
5, 172320, Note_on_c, 3, 62, 127
5, 172410, Note_on_c, 3, 62, 0
5, 172440, Note_on_c, 3, 62, 127
5, 172620, Note_on_c, 3, 62, 0
5, 172720, Note_on_c, 3, 62, 127
5, 172780, Note_on_c, 3, 62, 0
5, 172800, Note_on_c, 3, 65, 127
5, 172860, Note_on_c, 3, 65, 0
5, 172880, Note_on_c, 3, 69, 127
5, 172940, Note_on_c, 3, 69, 0
5, 173040, Note_on_c, 3, 74, 127
5, 174240, Note_on_c, 3, 74, 0
5, 174240, Note_on_c, 3, 72, 127
5, 174360, Note_on_c, 3, 72, 0
5, 174360, Note_on_c, 3, 69, 127
5, 174480, Note_on_c, 3, 69, 0
5, 174480, Note_on_c, 3, 67, 127
5, 174600, Note_on_c, 3, 67, 0
5, 174600, Note_on_c, 3, 65, 127
5, 174720, Note_on_c, 3, 65, 0
5, 174720, Note_on_c, 3, 67, 127
5, 174900, Note_on_c, 3, 67, 0
5, 174960, Note_on_c, 3, 69, 127
5, 175140, Note_on_c, 3, 69, 0
5, 176280, Note_on_c, 3, 69, 127
5, 176370, Note_on_c, 3, 69, 0
5, 176400, Note_on_c, 3, 69, 127
5, 176490, Note_on_c, 3, 69, 0
5, 176520, Note_on_c, 3, 69, 127
5, 176610, Note_on_c, 3, 69, 0
5, 176640, Note_on_c, 3, 69, 127
5, 176730, Note_on_c, 3, 69, 0
5, 176760, Note_on_c, 3, 69, 127
5, 176850, Note_on_c, 3, 69, 0
5, 176880, Note_on_c, 3, 67, 127
5, 176970, Note_on_c, 3, 67, 0
5, 177120, Note_on_c, 3, 67, 127
5, 177210, Note_on_c, 3, 67, 0
5, 177360, Note_on_c, 3, 67, 127
5, 177450, Note_on_c, 3, 67, 0
5, 177480, Note_on_c, 3, 68, 127
5, 177570, Note_on_c, 3, 68, 0
5, 177600, Note_on_c, 3, 67, 127
5, 177690, Note_on_c, 3, 67, 0
5, 177840, Note_on_c, 3, 67, 127
5, 177930, Note_on_c, 3, 67, 0
5, 178080, Note_on_c, 3, 67, 127
5, 178170, Note_on_c, 3, 67, 0
5, 178200, Note_on_c, 3, 68, 127
5, 178290, Note_on_c, 3, 68, 0
5, 178320, Note_on_c, 3, 67, 127
5, 178410, Note_on_c, 3, 67, 0
5, 178560, Note_on_c, 3, 67, 127
5, 178650, Note_on_c, 3, 67, 0
5, 178800, Note_on_c, 3, 69, 127
5, 178890, Note_on_c, 3, 69, 0
5, 178920, Note_on_c, 3, 69, 127
5, 179100, Note_on_c, 3, 69, 0
5, 179130, Note_on_c, 3, 72, 127
5, 179220, Note_on_c, 3, 72, 0
5, 179400, Note_on_c, 3, 72, 127
5, 179490, Note_on_c, 3, 72, 0
5, 179520, Note_on_c, 3, 69, 127
5, 179610, Note_on_c, 3, 69, 0
5, 179640, Note_on_c, 3, 72, 127
5, 179730, Note_on_c, 3, 72, 0
5, 179760, Note_on_c, 3, 69, 127
5, 179850, Note_on_c, 3, 69, 0
5, 179880, Note_on_c, 3, 69, 127
5, 180060, Note_on_c, 3, 69, 0
5, 180090, Note_on_c, 3, 69, 127
5, 180180, Note_on_c, 3, 69, 0
5, 180240, Note_on_c, 3, 69, 127
5, 180420, Note_on_c, 3, 69, 0
5, 180570, Note_on_c, 3, 65, 127
5, 180660, Note_on_c, 3, 65, 0
5, 180720, Note_on_c, 3, 67, 127
5, 180900, Note_on_c, 3, 67, 0
5, 180930, Note_on_c, 3, 67, 127
5, 181020, Note_on_c, 3, 67, 0
5, 181050, Note_on_c, 3, 65, 127
5, 181140, Note_on_c, 3, 65, 0
5, 181200, Note_on_c, 3, 67, 127
5, 181290, Note_on_c, 3, 67, 0
5, 181320, Note_on_c, 3, 67, 127
5, 181410, Note_on_c, 3, 67, 0
5, 181440, Note_on_c, 3, 67, 127
5, 181530, Note_on_c, 3, 67, 0
5, 181560, Note_on_c, 3, 65, 127
5, 181650, Note_on_c, 3, 65, 0
5, 181800, Note_on_c, 3, 68, 127
5, 181890, Note_on_c, 3, 68, 0
5, 181920, Note_on_c, 3, 67, 127
5, 182010, Note_on_c, 3, 67, 0
5, 182040, Note_on_c, 3, 65, 127
5, 182130, Note_on_c, 3, 65, 0
5, 182280, Note_on_c, 3, 65, 127
5, 182370, Note_on_c, 3, 65, 0
5, 182400, Note_on_c, 3, 64, 127
5, 182490, Note_on_c, 3, 64, 0
5, 182520, Note_on_c, 3, 65, 127
5, 182610, Note_on_c, 3, 65, 0
5, 182640, Note_on_c, 3, 62, 127
5, 183060, Note_on_c, 3, 62, 0
5, 183600, Note_on_c, 3, 74, 127
5, 184020, Note_on_c, 3, 74, 0
5, 184560, Note_on_c, 3, 76, 127
5, 186420, Note_on_c, 3, 76, 0
5, 186480, Note_on_c, 3, 81, 127
5, 187440, Note_on_c, 3, 81, 0
5, 187440, End_track
6, 0, Start_track
6, 0, MIDI_port, 0
6, 0, Title_t, "Tools of Ignorance"
6, 20640, Note_on_c, 9, 40, 100
6, 20700, Note_on_c, 9, 40, 0
6, 21120, Note_on_c, 9, 49, 100
6, 21120, Note_on_c, 9, 46, 120
6, 21128, Note_on_c, 9, 36, 100
6, 21180, Note_on_c, 9, 46, 0
6, 21180, Note_on_c, 9, 49, 0
6, 21188, Note_on_c, 9, 36, 0
6, 21240, Note_on_c, 9, 42, 120
6, 21300, Note_on_c, 9, 42, 0
6, 21360, Note_on_c, 9, 42, 120
6, 21420, Note_on_c, 9, 42, 0
6, 21480, Note_on_c, 9, 46, 120
6, 21540, Note_on_c, 9, 46, 0
6, 21600, Note_on_c, 9, 38, 100
6, 21600, Note_on_c, 9, 42, 120
6, 21660, Note_on_c, 9, 42, 0
6, 21660, Note_on_c, 9, 38, 0
6, 21720, Note_on_c, 9, 42, 120
6, 21780, Note_on_c, 9, 42, 0
6, 21840, Note_on_c, 9, 36, 100
6, 21840, Note_on_c, 9, 42, 120
6, 21900, Note_on_c, 9, 42, 0
6, 21900, Note_on_c, 9, 36, 0
6, 21960, Note_on_c, 9, 42, 120
6, 22020, Note_on_c, 9, 42, 0
6, 22080, Note_on_c, 9, 36, 100
6, 22080, Note_on_c, 9, 46, 120
6, 22140, Note_on_c, 9, 46, 0
6, 22140, Note_on_c, 9, 36, 0
6, 22200, Note_on_c, 9, 42, 120
6, 22260, Note_on_c, 9, 42, 0
6, 22320, Note_on_c, 9, 42, 120
6, 22380, Note_on_c, 9, 42, 0
6, 22440, Note_on_c, 9, 42, 120
6, 22500, Note_on_c, 9, 42, 0
6, 22560, Note_on_c, 9, 38, 100
6, 22560, Note_on_c, 9, 46, 120
6, 22620, Note_on_c, 9, 46, 0
6, 22620, Note_on_c, 9, 38, 0
6, 22680, Note_on_c, 9, 42, 120
6, 22740, Note_on_c, 9, 42, 0
6, 22800, Note_on_c, 9, 42, 120
6, 22860, Note_on_c, 9, 42, 0
6, 22920, Note_on_c, 9, 42, 120
6, 22980, Note_on_c, 9, 42, 0
6, 23040, Note_on_c, 9, 46, 120
6, 23048, Note_on_c, 9, 36, 100
6, 23100, Note_on_c, 9, 46, 0
6, 23108, Note_on_c, 9, 36, 0
6, 23160, Note_on_c, 9, 42, 120
6, 23220, Note_on_c, 9, 42, 0
6, 23280, Note_on_c, 9, 42, 120
6, 23340, Note_on_c, 9, 42, 0
6, 23400, Note_on_c, 9, 42, 120
6, 23460, Note_on_c, 9, 42, 0
6, 23520, Note_on_c, 9, 38, 100
6, 23520, Note_on_c, 9, 42, 120
6, 23580, Note_on_c, 9, 42, 0
6, 23580, Note_on_c, 9, 38, 0
6, 23640, Note_on_c, 9, 42, 120
6, 23700, Note_on_c, 9, 42, 0
6, 23760, Note_on_c, 9, 36, 100
6, 23760, Note_on_c, 9, 42, 120
6, 23820, Note_on_c, 9, 42, 0
6, 23820, Note_on_c, 9, 36, 0
6, 23880, Note_on_c, 9, 42, 120
6, 23940, Note_on_c, 9, 42, 0
6, 24000, Note_on_c, 9, 36, 100
6, 24000, Note_on_c, 9, 42, 120
6, 24060, Note_on_c, 9, 42, 0
6, 24060, Note_on_c, 9, 36, 0
6, 24120, Note_on_c, 9, 42, 120
6, 24180, Note_on_c, 9, 42, 0
6, 24240, Note_on_c, 9, 42, 120
6, 24300, Note_on_c, 9, 42, 0
6, 24360, Note_on_c, 9, 42, 120
6, 24420, Note_on_c, 9, 42, 0
6, 24480, Note_on_c, 9, 38, 100
6, 24480, Note_on_c, 9, 46, 120
6, 24540, Note_on_c, 9, 46, 0
6, 24540, Note_on_c, 9, 38, 0
6, 24600, Note_on_c, 9, 42, 120
6, 24660, Note_on_c, 9, 42, 0
6, 24720, Note_on_c, 9, 42, 120
6, 24780, Note_on_c, 9, 42, 0
6, 24840, Note_on_c, 9, 38, 100
6, 24840, Note_on_c, 9, 42, 120
6, 24900, Note_on_c, 9, 42, 0
6, 24900, Note_on_c, 9, 38, 0
6, 24960, Note_on_c, 9, 46, 120
6, 24968, Note_on_c, 9, 36, 100
6, 25020, Note_on_c, 9, 46, 0
6, 25028, Note_on_c, 9, 36, 0
6, 25080, Note_on_c, 9, 42, 120
6, 25140, Note_on_c, 9, 42, 0
6, 25200, Note_on_c, 9, 42, 120
6, 25260, Note_on_c, 9, 42, 0
6, 25320, Note_on_c, 9, 42, 120
6, 25380, Note_on_c, 9, 42, 0
6, 25440, Note_on_c, 9, 38, 100
6, 25440, Note_on_c, 9, 42, 120
6, 25500, Note_on_c, 9, 42, 0
6, 25500, Note_on_c, 9, 38, 0
6, 25560, Note_on_c, 9, 42, 120
6, 25620, Note_on_c, 9, 42, 0
6, 25680, Note_on_c, 9, 36, 100
6, 25680, Note_on_c, 9, 42, 120
6, 25740, Note_on_c, 9, 42, 0
6, 25740, Note_on_c, 9, 36, 0
6, 25800, Note_on_c, 9, 42, 120
6, 25860, Note_on_c, 9, 42, 0
6, 25920, Note_on_c, 9, 36, 100
6, 25920, Note_on_c, 9, 42, 120
6, 25980, Note_on_c, 9, 42, 0
6, 25980, Note_on_c, 9, 36, 0
6, 26040, Note_on_c, 9, 42, 120
6, 26100, Note_on_c, 9, 42, 0
6, 26160, Note_on_c, 9, 42, 120
6, 26220, Note_on_c, 9, 42, 0
6, 26280, Note_on_c, 9, 42, 120
6, 26340, Note_on_c, 9, 42, 0
6, 26400, Note_on_c, 9, 38, 100
6, 26400, Note_on_c, 9, 46, 120
6, 26460, Note_on_c, 9, 46, 0
6, 26460, Note_on_c, 9, 38, 0
6, 26520, Note_on_c, 9, 42, 120
6, 26580, Note_on_c, 9, 42, 0
6, 26640, Note_on_c, 9, 42, 120
6, 26700, Note_on_c, 9, 42, 0
6, 26760, Note_on_c, 9, 42, 120
6, 26820, Note_on_c, 9, 42, 0
6, 26880, Note_on_c, 9, 46, 120
6, 26888, Note_on_c, 9, 36, 100
6, 26940, Note_on_c, 9, 46, 0
6, 26948, Note_on_c, 9, 36, 0
6, 27000, Note_on_c, 9, 42, 120
6, 27060, Note_on_c, 9, 42, 0
6, 27120, Note_on_c, 9, 42, 120
6, 27180, Note_on_c, 9, 42, 0
6, 27240, Note_on_c, 9, 46, 120
6, 27300, Note_on_c, 9, 46, 0
6, 27360, Note_on_c, 9, 38, 100
6, 27360, Note_on_c, 9, 42, 120
6, 27420, Note_on_c, 9, 42, 0
6, 27420, Note_on_c, 9, 38, 0
6, 27480, Note_on_c, 9, 42, 120
6, 27540, Note_on_c, 9, 42, 0
6, 27600, Note_on_c, 9, 36, 100
6, 27600, Note_on_c, 9, 42, 120
6, 27660, Note_on_c, 9, 42, 0
6, 27660, Note_on_c, 9, 36, 0
6, 27720, Note_on_c, 9, 42, 120
6, 27780, Note_on_c, 9, 42, 0
6, 27840, Note_on_c, 9, 36, 100
6, 27840, Note_on_c, 9, 42, 120
6, 27900, Note_on_c, 9, 42, 0
6, 27900, Note_on_c, 9, 36, 0
6, 27960, Note_on_c, 9, 42, 120
6, 28020, Note_on_c, 9, 42, 0
6, 28080, Note_on_c, 9, 42, 120
6, 28140, Note_on_c, 9, 42, 0
6, 28200, Note_on_c, 9, 42, 120
6, 28260, Note_on_c, 9, 42, 0
6, 28320, Note_on_c, 9, 38, 100
6, 28320, Note_on_c, 9, 46, 120
6, 28380, Note_on_c, 9, 46, 0
6, 28380, Note_on_c, 9, 38, 0
6, 28440, Note_on_c, 9, 38, 100
6, 28440, Note_on_c, 9, 42, 120
6, 28500, Note_on_c, 9, 42, 0
6, 28500, Note_on_c, 9, 38, 0
6, 28560, Note_on_c, 9, 38, 100
6, 28560, Note_on_c, 9, 42, 120
6, 28620, Note_on_c, 9, 42, 0
6, 28620, Note_on_c, 9, 38, 0
6, 28680, Note_on_c, 9, 42, 120
6, 28740, Note_on_c, 9, 42, 0
6, 28800, Note_on_c, 9, 46, 120
6, 28808, Note_on_c, 9, 36, 100
6, 28860, Note_on_c, 9, 46, 0
6, 28868, Note_on_c, 9, 36, 0
6, 28920, Note_on_c, 9, 42, 120
6, 28980, Note_on_c, 9, 42, 0
6, 29040, Note_on_c, 9, 42, 120
6, 29100, Note_on_c, 9, 42, 0
6, 29160, Note_on_c, 9, 46, 120
6, 29220, Note_on_c, 9, 46, 0
6, 29280, Note_on_c, 9, 38, 100
6, 29280, Note_on_c, 9, 42, 120
6, 29340, Note_on_c, 9, 42, 0
6, 29340, Note_on_c, 9, 38, 0
6, 29400, Note_on_c, 9, 42, 120
6, 29460, Note_on_c, 9, 42, 0
6, 29520, Note_on_c, 9, 36, 100
6, 29520, Note_on_c, 9, 42, 120
6, 29580, Note_on_c, 9, 42, 0
6, 29580, Note_on_c, 9, 36, 0
6, 29640, Note_on_c, 9, 42, 120
6, 29700, Note_on_c, 9, 42, 0
6, 29760, Note_on_c, 9, 36, 100
6, 29760, Note_on_c, 9, 42, 120
6, 29820, Note_on_c, 9, 42, 0
6, 29820, Note_on_c, 9, 36, 0
6, 29880, Note_on_c, 9, 42, 120
6, 29940, Note_on_c, 9, 42, 0
6, 30000, Note_on_c, 9, 42, 120
6, 30060, Note_on_c, 9, 42, 0
6, 30120, Note_on_c, 9, 42, 120
6, 30180, Note_on_c, 9, 42, 0
6, 30240, Note_on_c, 9, 38, 100
6, 30240, Note_on_c, 9, 42, 120
6, 30300, Note_on_c, 9, 42, 0
6, 30300, Note_on_c, 9, 38, 0
6, 30360, Note_on_c, 9, 42, 120
6, 30420, Note_on_c, 9, 42, 0
6, 30480, Note_on_c, 9, 42, 120
6, 30540, Note_on_c, 9, 42, 0
6, 30600, Note_on_c, 9, 42, 120
6, 30660, Note_on_c, 9, 42, 0
6, 30720, Note_on_c, 9, 46, 120
6, 30728, Note_on_c, 9, 36, 100
6, 30780, Note_on_c, 9, 46, 0
6, 30788, Note_on_c, 9, 36, 0
6, 30840, Note_on_c, 9, 42, 120
6, 30900, Note_on_c, 9, 42, 0
6, 30960, Note_on_c, 9, 46, 120
6, 31020, Note_on_c, 9, 46, 0
6, 31080, Note_on_c, 9, 42, 120
6, 31140, Note_on_c, 9, 42, 0
6, 31200, Note_on_c, 9, 38, 100
6, 31200, Note_on_c, 9, 46, 120
6, 31260, Note_on_c, 9, 46, 0
6, 31260, Note_on_c, 9, 38, 0
6, 31320, Note_on_c, 9, 42, 120
6, 31380, Note_on_c, 9, 42, 0
6, 31440, Note_on_c, 9, 36, 100
6, 31440, Note_on_c, 9, 42, 120
6, 31500, Note_on_c, 9, 42, 0
6, 31500, Note_on_c, 9, 36, 0
6, 31560, Note_on_c, 9, 42, 120
6, 31620, Note_on_c, 9, 42, 0
6, 31680, Note_on_c, 9, 36, 100
6, 31680, Note_on_c, 9, 46, 120
6, 31740, Note_on_c, 9, 46, 0
6, 31740, Note_on_c, 9, 36, 0
6, 31800, Note_on_c, 9, 42, 120
6, 31860, Note_on_c, 9, 42, 0
6, 31920, Note_on_c, 9, 42, 120
6, 31980, Note_on_c, 9, 42, 0
6, 32040, Note_on_c, 9, 42, 120
6, 32100, Note_on_c, 9, 42, 0
6, 32160, Note_on_c, 9, 38, 100
6, 32160, Note_on_c, 9, 46, 120
6, 32220, Note_on_c, 9, 46, 0
6, 32220, Note_on_c, 9, 38, 0
6, 32280, Note_on_c, 9, 42, 120
6, 32340, Note_on_c, 9, 42, 0
6, 32400, Note_on_c, 9, 42, 120
6, 32460, Note_on_c, 9, 42, 0
6, 32520, Note_on_c, 9, 38, 100
6, 32520, Note_on_c, 9, 42, 120
6, 32580, Note_on_c, 9, 42, 0
6, 32580, Note_on_c, 9, 38, 0
6, 32640, Note_on_c, 9, 46, 120
6, 32648, Note_on_c, 9, 36, 100
6, 32700, Note_on_c, 9, 46, 0
6, 32708, Note_on_c, 9, 36, 0
6, 32760, Note_on_c, 9, 42, 120
6, 32820, Note_on_c, 9, 42, 0
6, 32880, Note_on_c, 9, 42, 120
6, 32940, Note_on_c, 9, 42, 0
6, 33000, Note_on_c, 9, 46, 120
6, 33060, Note_on_c, 9, 46, 0
6, 33120, Note_on_c, 9, 38, 100
6, 33120, Note_on_c, 9, 42, 120
6, 33180, Note_on_c, 9, 42, 0
6, 33180, Note_on_c, 9, 38, 0
6, 33240, Note_on_c, 9, 42, 120
6, 33300, Note_on_c, 9, 42, 0
6, 33360, Note_on_c, 9, 36, 100
6, 33360, Note_on_c, 9, 42, 120
6, 33420, Note_on_c, 9, 42, 0
6, 33420, Note_on_c, 9, 36, 0
6, 33480, Note_on_c, 9, 42, 120
6, 33540, Note_on_c, 9, 42, 0
6, 33600, Note_on_c, 9, 36, 100
6, 33600, Note_on_c, 9, 46, 120
6, 33660, Note_on_c, 9, 46, 0
6, 33660, Note_on_c, 9, 36, 0
6, 33720, Note_on_c, 9, 42, 120
6, 33780, Note_on_c, 9, 42, 0
6, 33840, Note_on_c, 9, 42, 120
6, 33900, Note_on_c, 9, 42, 0
6, 33960, Note_on_c, 9, 42, 120
6, 34020, Note_on_c, 9, 42, 0
6, 34080, Note_on_c, 9, 38, 100
6, 34080, Note_on_c, 9, 46, 120
6, 34140, Note_on_c, 9, 46, 0
6, 34140, Note_on_c, 9, 38, 0
6, 34200, Note_on_c, 9, 42, 120
6, 34260, Note_on_c, 9, 42, 0
6, 34320, Note_on_c, 9, 42, 120
6, 34380, Note_on_c, 9, 42, 0
6, 34440, Note_on_c, 9, 42, 120
6, 34500, Note_on_c, 9, 42, 0
6, 34560, Note_on_c, 9, 46, 120
6, 34568, Note_on_c, 9, 36, 100
6, 34620, Note_on_c, 9, 46, 0
6, 34628, Note_on_c, 9, 36, 0
6, 34680, Note_on_c, 9, 42, 120
6, 34740, Note_on_c, 9, 42, 0
6, 34800, Note_on_c, 9, 42, 120
6, 34860, Note_on_c, 9, 42, 0
6, 34920, Note_on_c, 9, 42, 120
6, 34980, Note_on_c, 9, 42, 0
6, 35040, Note_on_c, 9, 38, 100
6, 35040, Note_on_c, 9, 42, 120
6, 35100, Note_on_c, 9, 42, 0
6, 35100, Note_on_c, 9, 38, 0
6, 35160, Note_on_c, 9, 42, 120
6, 35220, Note_on_c, 9, 42, 0
6, 35280, Note_on_c, 9, 36, 100
6, 35280, Note_on_c, 9, 42, 120
6, 35340, Note_on_c, 9, 42, 0
6, 35340, Note_on_c, 9, 36, 0
6, 35400, Note_on_c, 9, 42, 120
6, 35460, Note_on_c, 9, 42, 0
6, 35520, Note_on_c, 9, 36, 100
6, 35520, Note_on_c, 9, 42, 120
6, 35580, Note_on_c, 9, 42, 0
6, 35580, Note_on_c, 9, 36, 0
6, 35640, Note_on_c, 9, 42, 120
6, 35700, Note_on_c, 9, 42, 0
6, 35760, Note_on_c, 9, 42, 120
6, 35820, Note_on_c, 9, 42, 0
6, 35880, Note_on_c, 9, 38, 100
6, 35880, Note_on_c, 9, 42, 120
6, 35940, Note_on_c, 9, 42, 0
6, 35940, Note_on_c, 9, 38, 0
6, 36000, Note_on_c, 9, 38, 100
6, 36000, Note_on_c, 9, 46, 120
6, 36060, Note_on_c, 9, 46, 0
6, 36060, Note_on_c, 9, 38, 0
6, 36120, Note_on_c, 9, 38, 100
6, 36120, Note_on_c, 9, 42, 120
6, 36180, Note_on_c, 9, 42, 0
6, 36180, Note_on_c, 9, 38, 0
6, 36240, Note_on_c, 9, 42, 120
6, 36300, Note_on_c, 9, 42, 0
6, 36360, Note_on_c, 9, 38, 100
6, 36360, Note_on_c, 9, 42, 120
6, 36420, Note_on_c, 9, 42, 0
6, 36420, Note_on_c, 9, 38, 0
6, 36480, Note_on_c, 9, 46, 120
6, 36488, Note_on_c, 9, 36, 100
6, 36540, Note_on_c, 9, 46, 0
6, 36548, Note_on_c, 9, 36, 0
6, 36600, Note_on_c, 9, 42, 120
6, 36660, Note_on_c, 9, 42, 0
6, 36720, Note_on_c, 9, 46, 120
6, 36780, Note_on_c, 9, 46, 0
6, 36840, Note_on_c, 9, 42, 120
6, 36900, Note_on_c, 9, 42, 0
6, 36960, Note_on_c, 9, 38, 100
6, 36960, Note_on_c, 9, 42, 120
6, 37020, Note_on_c, 9, 42, 0
6, 37020, Note_on_c, 9, 38, 0
6, 37080, Note_on_c, 9, 42, 120
6, 37140, Note_on_c, 9, 42, 0
6, 37200, Note_on_c, 9, 36, 100
6, 37200, Note_on_c, 9, 42, 120
6, 37260, Note_on_c, 9, 42, 0
6, 37260, Note_on_c, 9, 36, 0
6, 37320, Note_on_c, 9, 42, 120
6, 37380, Note_on_c, 9, 42, 0
6, 37440, Note_on_c, 9, 36, 100
6, 37440, Note_on_c, 9, 46, 120
6, 37500, Note_on_c, 9, 46, 0
6, 37500, Note_on_c, 9, 36, 0
6, 37560, Note_on_c, 9, 42, 120
6, 37620, Note_on_c, 9, 42, 0
6, 37680, Note_on_c, 9, 42, 120
6, 37740, Note_on_c, 9, 42, 0
6, 37800, Note_on_c, 9, 42, 120
6, 37860, Note_on_c, 9, 42, 0
6, 37920, Note_on_c, 9, 38, 100
6, 37920, Note_on_c, 9, 46, 120
6, 37980, Note_on_c, 9, 46, 0
6, 37980, Note_on_c, 9, 38, 0
6, 38040, Note_on_c, 9, 38, 100
6, 38040, Note_on_c, 9, 42, 120
6, 38100, Note_on_c, 9, 42, 0
6, 38100, Note_on_c, 9, 38, 0
6, 38160, Note_on_c, 9, 42, 120
6, 38220, Note_on_c, 9, 42, 0
6, 38280, Note_on_c, 9, 42, 120
6, 38340, Note_on_c, 9, 42, 0
6, 38400, Note_on_c, 9, 46, 120
6, 38408, Note_on_c, 9, 36, 100
6, 38460, Note_on_c, 9, 46, 0
6, 38468, Note_on_c, 9, 36, 0
6, 38520, Note_on_c, 9, 42, 120
6, 38580, Note_on_c, 9, 42, 0
6, 38640, Note_on_c, 9, 42, 120
6, 38700, Note_on_c, 9, 42, 0
6, 38760, Note_on_c, 9, 46, 120
6, 38820, Note_on_c, 9, 46, 0
6, 38880, Note_on_c, 9, 38, 100
6, 38880, Note_on_c, 9, 42, 120
6, 38940, Note_on_c, 9, 42, 0
6, 38940, Note_on_c, 9, 38, 0
6, 39000, Note_on_c, 9, 38, 100
6, 39000, Note_on_c, 9, 42, 120
6, 39060, Note_on_c, 9, 42, 0
6, 39060, Note_on_c, 9, 38, 0
6, 39120, Note_on_c, 9, 38, 100
6, 39120, Note_on_c, 9, 36, 100
6, 39120, Note_on_c, 9, 42, 120
6, 39180, Note_on_c, 9, 42, 0
6, 39180, Note_on_c, 9, 36, 0
6, 39180, Note_on_c, 9, 38, 0
6, 39240, Note_on_c, 9, 42, 120
6, 39300, Note_on_c, 9, 42, 0
6, 39360, Note_on_c, 9, 36, 100
6, 39360, Note_on_c, 9, 46, 120
6, 39420, Note_on_c, 9, 46, 0
6, 39420, Note_on_c, 9, 36, 0
6, 39480, Note_on_c, 9, 42, 120
6, 39540, Note_on_c, 9, 42, 0
6, 39600, Note_on_c, 9, 42, 120
6, 39660, Note_on_c, 9, 42, 0
6, 39720, Note_on_c, 9, 42, 120
6, 39780, Note_on_c, 9, 42, 0
6, 39840, Note_on_c, 9, 38, 100
6, 39840, Note_on_c, 9, 46, 120
6, 39900, Note_on_c, 9, 46, 0
6, 39900, Note_on_c, 9, 38, 0
6, 39960, Note_on_c, 9, 42, 120
6, 40020, Note_on_c, 9, 42, 0
6, 40080, Note_on_c, 9, 42, 120
6, 40140, Note_on_c, 9, 42, 0
6, 40200, Note_on_c, 9, 42, 120
6, 40260, Note_on_c, 9, 42, 0
6, 40320, Note_on_c, 9, 46, 120
6, 40328, Note_on_c, 9, 36, 100
6, 40380, Note_on_c, 9, 46, 0
6, 40388, Note_on_c, 9, 36, 0
6, 40440, Note_on_c, 9, 42, 120
6, 40500, Note_on_c, 9, 42, 0
6, 40560, Note_on_c, 9, 42, 120
6, 40620, Note_on_c, 9, 42, 0
6, 40680, Note_on_c, 9, 42, 120
6, 40740, Note_on_c, 9, 42, 0
6, 40800, Note_on_c, 9, 38, 100
6, 40800, Note_on_c, 9, 42, 120
6, 40860, Note_on_c, 9, 42, 0
6, 40860, Note_on_c, 9, 38, 0
6, 40920, Note_on_c, 9, 42, 120
6, 40980, Note_on_c, 9, 42, 0
6, 41040, Note_on_c, 9, 36, 100
6, 41040, Note_on_c, 9, 42, 120
6, 41100, Note_on_c, 9, 42, 0
6, 41100, Note_on_c, 9, 36, 0
6, 41160, Note_on_c, 9, 42, 120
6, 41220, Note_on_c, 9, 42, 0
6, 41280, Note_on_c, 9, 36, 100
6, 41280, Note_on_c, 9, 42, 120
6, 41340, Note_on_c, 9, 42, 0
6, 41340, Note_on_c, 9, 36, 0
6, 41400, Note_on_c, 9, 42, 120
6, 41460, Note_on_c, 9, 42, 0
6, 41520, Note_on_c, 9, 42, 120
6, 41580, Note_on_c, 9, 42, 0
6, 41640, Note_on_c, 9, 42, 120
6, 41700, Note_on_c, 9, 42, 0
6, 41760, Note_on_c, 9, 38, 100
6, 41760, Note_on_c, 9, 46, 120
6, 41820, Note_on_c, 9, 46, 0
6, 41820, Note_on_c, 9, 38, 0
6, 41880, Note_on_c, 9, 42, 120
6, 41940, Note_on_c, 9, 42, 0
6, 42000, Note_on_c, 9, 42, 120
6, 42060, Note_on_c, 9, 42, 0
6, 42120, Note_on_c, 9, 38, 100
6, 42120, Note_on_c, 9, 42, 120
6, 42180, Note_on_c, 9, 42, 0
6, 42180, Note_on_c, 9, 38, 0
6, 42240, Note_on_c, 9, 46, 120
6, 42248, Note_on_c, 9, 36, 100
6, 42300, Note_on_c, 9, 46, 0
6, 42308, Note_on_c, 9, 36, 0
6, 42360, Note_on_c, 9, 42, 120
6, 42420, Note_on_c, 9, 42, 0
6, 42480, Note_on_c, 9, 42, 120
6, 42540, Note_on_c, 9, 42, 0
6, 42600, Note_on_c, 9, 46, 120
6, 42660, Note_on_c, 9, 46, 0
6, 42720, Note_on_c, 9, 38, 100
6, 42720, Note_on_c, 9, 42, 120
6, 42780, Note_on_c, 9, 42, 0
6, 42780, Note_on_c, 9, 38, 0
6, 42840, Note_on_c, 9, 42, 120
6, 42900, Note_on_c, 9, 42, 0
6, 42960, Note_on_c, 9, 36, 100
6, 42960, Note_on_c, 9, 42, 120
6, 43020, Note_on_c, 9, 42, 0
6, 43020, Note_on_c, 9, 36, 0
6, 43080, Note_on_c, 9, 42, 120
6, 43140, Note_on_c, 9, 42, 0
6, 43200, Note_on_c, 9, 36, 100
6, 43200, Note_on_c, 9, 46, 120
6, 43260, Note_on_c, 9, 46, 0
6, 43260, Note_on_c, 9, 36, 0
6, 43320, Note_on_c, 9, 42, 120
6, 43380, Note_on_c, 9, 42, 0
6, 43440, Note_on_c, 9, 42, 120
6, 43500, Note_on_c, 9, 42, 0
6, 43560, Note_on_c, 9, 38, 100
6, 43560, Note_on_c, 9, 42, 120
6, 43620, Note_on_c, 9, 42, 0
6, 43620, Note_on_c, 9, 38, 0
6, 43680, Note_on_c, 9, 38, 100
6, 43680, Note_on_c, 9, 42, 120
6, 43740, Note_on_c, 9, 42, 0
6, 43740, Note_on_c, 9, 38, 0
6, 43800, Note_on_c, 9, 42, 120
6, 43860, Note_on_c, 9, 42, 0
6, 43920, Note_on_c, 9, 38, 100
6, 43920, Note_on_c, 9, 42, 120
6, 43980, Note_on_c, 9, 42, 0
6, 43980, Note_on_c, 9, 38, 0
6, 44040, Note_on_c, 9, 38, 100
6, 44040, Note_on_c, 9, 42, 120
6, 44100, Note_on_c, 9, 42, 0
6, 44100, Note_on_c, 9, 38, 0
6, 44160, Note_on_c, 9, 46, 120
6, 44168, Note_on_c, 9, 36, 100
6, 44220, Note_on_c, 9, 46, 0
6, 44228, Note_on_c, 9, 36, 0
6, 44280, Note_on_c, 9, 42, 120
6, 44340, Note_on_c, 9, 42, 0
6, 44400, Note_on_c, 9, 42, 120
6, 44460, Note_on_c, 9, 42, 0
6, 44520, Note_on_c, 9, 46, 120
6, 44580, Note_on_c, 9, 46, 0
6, 44640, Note_on_c, 9, 38, 100
6, 44640, Note_on_c, 9, 42, 120
6, 44700, Note_on_c, 9, 42, 0
6, 44700, Note_on_c, 9, 38, 0
6, 44760, Note_on_c, 9, 42, 120
6, 44820, Note_on_c, 9, 42, 0
6, 44880, Note_on_c, 9, 36, 100
6, 44880, Note_on_c, 9, 42, 120
6, 44940, Note_on_c, 9, 42, 0
6, 44940, Note_on_c, 9, 36, 0
6, 45000, Note_on_c, 9, 42, 120
6, 45060, Note_on_c, 9, 42, 0
6, 45120, Note_on_c, 9, 36, 100
6, 45120, Note_on_c, 9, 46, 120
6, 45180, Note_on_c, 9, 46, 0
6, 45180, Note_on_c, 9, 36, 0
6, 45240, Note_on_c, 9, 42, 120
6, 45300, Note_on_c, 9, 42, 0
6, 45360, Note_on_c, 9, 42, 120
6, 45420, Note_on_c, 9, 42, 0
6, 45480, Note_on_c, 9, 42, 120
6, 45540, Note_on_c, 9, 42, 0
6, 45600, Note_on_c, 9, 38, 100
6, 45600, Note_on_c, 9, 46, 120
6, 45660, Note_on_c, 9, 46, 0
6, 45660, Note_on_c, 9, 38, 0
6, 45720, Note_on_c, 9, 42, 120
6, 45780, Note_on_c, 9, 42, 0
6, 45840, Note_on_c, 9, 42, 120
6, 45900, Note_on_c, 9, 42, 0
6, 45960, Note_on_c, 9, 42, 120
6, 46020, Note_on_c, 9, 42, 0
6, 46080, Note_on_c, 9, 46, 120
6, 46088, Note_on_c, 9, 36, 100
6, 46140, Note_on_c, 9, 46, 0
6, 46148, Note_on_c, 9, 36, 0
6, 46200, Note_on_c, 9, 42, 120
6, 46260, Note_on_c, 9, 42, 0
6, 46320, Note_on_c, 9, 42, 120
6, 46380, Note_on_c, 9, 42, 0
6, 46440, Note_on_c, 9, 42, 120
6, 46500, Note_on_c, 9, 42, 0
6, 46560, Note_on_c, 9, 38, 100
6, 46560, Note_on_c, 9, 42, 120
6, 46620, Note_on_c, 9, 42, 0
6, 46620, Note_on_c, 9, 38, 0
6, 46680, Note_on_c, 9, 38, 100
6, 46680, Note_on_c, 9, 42, 120
6, 46740, Note_on_c, 9, 42, 0
6, 46740, Note_on_c, 9, 38, 0
6, 46800, Note_on_c, 9, 36, 100
6, 46800, Note_on_c, 9, 42, 120
6, 46860, Note_on_c, 9, 42, 0
6, 46860, Note_on_c, 9, 36, 0
6, 46920, Note_on_c, 9, 42, 120
6, 46980, Note_on_c, 9, 42, 0
6, 47040, Note_on_c, 9, 36, 100
6, 47040, Note_on_c, 9, 46, 120
6, 47100, Note_on_c, 9, 46, 0
6, 47100, Note_on_c, 9, 36, 0
6, 47160, Note_on_c, 9, 42, 120
6, 47220, Note_on_c, 9, 42, 0
6, 47280, Note_on_c, 9, 42, 120
6, 47340, Note_on_c, 9, 42, 0
6, 47400, Note_on_c, 9, 42, 120
6, 47460, Note_on_c, 9, 42, 0
6, 47520, Note_on_c, 9, 38, 100
6, 47520, Note_on_c, 9, 42, 120
6, 47580, Note_on_c, 9, 42, 0
6, 47580, Note_on_c, 9, 38, 0
6, 47640, Note_on_c, 9, 38, 100
6, 47640, Note_on_c, 9, 42, 120
6, 47700, Note_on_c, 9, 42, 0
6, 47700, Note_on_c, 9, 38, 0
6, 47760, Note_on_c, 9, 42, 120
6, 47820, Note_on_c, 9, 42, 0
6, 47880, Note_on_c, 9, 38, 100
6, 47880, Note_on_c, 9, 42, 120
6, 47940, Note_on_c, 9, 42, 0
6, 47940, Note_on_c, 9, 38, 0
6, 48000, Note_on_c, 9, 46, 120
6, 48008, Note_on_c, 9, 36, 100
6, 48060, Note_on_c, 9, 46, 0
6, 48068, Note_on_c, 9, 36, 0
6, 48120, Note_on_c, 9, 42, 120
6, 48180, Note_on_c, 9, 42, 0
6, 48240, Note_on_c, 9, 42, 120
6, 48300, Note_on_c, 9, 42, 0
6, 48360, Note_on_c, 9, 46, 120
6, 48420, Note_on_c, 9, 46, 0
6, 48480, Note_on_c, 9, 38, 100
6, 48480, Note_on_c, 9, 42, 120
6, 48540, Note_on_c, 9, 42, 0
6, 48540, Note_on_c, 9, 38, 0
6, 48600, Note_on_c, 9, 42, 120
6, 48660, Note_on_c, 9, 42, 0
6, 48720, Note_on_c, 9, 36, 100
6, 48720, Note_on_c, 9, 42, 120
6, 48780, Note_on_c, 9, 42, 0
6, 48780, Note_on_c, 9, 36, 0
6, 48840, Note_on_c, 9, 42, 120
6, 48900, Note_on_c, 9, 42, 0
6, 48960, Note_on_c, 9, 36, 100
6, 48960, Note_on_c, 9, 46, 120
6, 49020, Note_on_c, 9, 46, 0
6, 49020, Note_on_c, 9, 36, 0
6, 49080, Note_on_c, 9, 42, 120
6, 49140, Note_on_c, 9, 42, 0
6, 49200, Note_on_c, 9, 42, 120
6, 49260, Note_on_c, 9, 42, 0
6, 49320, Note_on_c, 9, 42, 120
6, 49380, Note_on_c, 9, 42, 0
6, 49440, Note_on_c, 9, 38, 100
6, 49440, Note_on_c, 9, 46, 120
6, 49500, Note_on_c, 9, 46, 0
6, 49500, Note_on_c, 9, 38, 0
6, 49560, Note_on_c, 9, 42, 120
6, 49620, Note_on_c, 9, 42, 0
6, 49680, Note_on_c, 9, 42, 120
6, 49740, Note_on_c, 9, 42, 0
6, 49800, Note_on_c, 9, 42, 120
6, 49860, Note_on_c, 9, 42, 0
6, 49920, Note_on_c, 9, 46, 120
6, 49928, Note_on_c, 9, 36, 100
6, 49980, Note_on_c, 9, 46, 0
6, 49988, Note_on_c, 9, 36, 0
6, 50040, Note_on_c, 9, 42, 120
6, 50100, Note_on_c, 9, 42, 0
6, 50160, Note_on_c, 9, 42, 120
6, 50220, Note_on_c, 9, 42, 0
6, 50280, Note_on_c, 9, 42, 120
6, 50340, Note_on_c, 9, 42, 0
6, 50400, Note_on_c, 9, 38, 100
6, 50400, Note_on_c, 9, 42, 120
6, 50460, Note_on_c, 9, 42, 0
6, 50460, Note_on_c, 9, 38, 0
6, 50520, Note_on_c, 9, 42, 120
6, 50580, Note_on_c, 9, 42, 0
6, 50640, Note_on_c, 9, 36, 100
6, 50640, Note_on_c, 9, 42, 120
6, 50700, Note_on_c, 9, 42, 0
6, 50700, Note_on_c, 9, 36, 0
6, 50760, Note_on_c, 9, 42, 120
6, 50820, Note_on_c, 9, 42, 0
6, 50880, Note_on_c, 9, 36, 100
6, 50880, Note_on_c, 9, 46, 120
6, 50940, Note_on_c, 9, 46, 0
6, 50940, Note_on_c, 9, 36, 0
6, 51000, Note_on_c, 9, 42, 120
6, 51060, Note_on_c, 9, 42, 0
6, 51120, Note_on_c, 9, 42, 120
6, 51180, Note_on_c, 9, 42, 0
6, 51240, Note_on_c, 9, 42, 120
6, 51300, Note_on_c, 9, 42, 0
6, 51360, Note_on_c, 9, 38, 100
6, 51360, Note_on_c, 9, 42, 120
6, 51420, Note_on_c, 9, 42, 0
6, 51420, Note_on_c, 9, 38, 0
6, 51480, Note_on_c, 9, 38, 100
6, 51480, Note_on_c, 9, 42, 120
6, 51540, Note_on_c, 9, 42, 0
6, 51540, Note_on_c, 9, 38, 0
6, 51600, Note_on_c, 9, 38, 100
6, 51600, Note_on_c, 9, 42, 120
6, 51660, Note_on_c, 9, 42, 0
6, 51660, Note_on_c, 9, 38, 0
6, 51720, Note_on_c, 9, 38, 100
6, 51720, Note_on_c, 9, 42, 120
6, 51780, Note_on_c, 9, 42, 0
6, 51780, Note_on_c, 9, 38, 0
6, 51840, Note_on_c, 9, 46, 120
6, 51848, Note_on_c, 9, 36, 100
6, 51900, Note_on_c, 9, 46, 0
6, 51908, Note_on_c, 9, 36, 0
6, 51960, Note_on_c, 9, 42, 120
6, 52020, Note_on_c, 9, 42, 0
6, 52080, Note_on_c, 9, 46, 120
6, 52140, Note_on_c, 9, 46, 0
6, 52200, Note_on_c, 9, 42, 120
6, 52260, Note_on_c, 9, 42, 0
6, 52320, Note_on_c, 9, 38, 100
6, 52320, Note_on_c, 9, 46, 120
6, 52380, Note_on_c, 9, 46, 0
6, 52380, Note_on_c, 9, 38, 0
6, 52440, Note_on_c, 9, 38, 100
6, 52440, Note_on_c, 9, 42, 120
6, 52500, Note_on_c, 9, 42, 0
6, 52500, Note_on_c, 9, 38, 0
6, 52560, Note_on_c, 9, 36, 100
6, 52560, Note_on_c, 9, 42, 120
6, 52620, Note_on_c, 9, 42, 0
6, 52620, Note_on_c, 9, 36, 0
6, 52680, Note_on_c, 9, 42, 120
6, 52740, Note_on_c, 9, 42, 0
6, 52800, Note_on_c, 9, 36, 100
6, 52800, Note_on_c, 9, 46, 120
6, 52860, Note_on_c, 9, 46, 0
6, 52860, Note_on_c, 9, 36, 0
6, 52920, Note_on_c, 9, 42, 120
6, 52980, Note_on_c, 9, 42, 0
6, 53040, Note_on_c, 9, 42, 120
6, 53100, Note_on_c, 9, 42, 0
6, 53160, Note_on_c, 9, 42, 120
6, 53220, Note_on_c, 9, 42, 0
6, 53280, Note_on_c, 9, 38, 100
6, 53280, Note_on_c, 9, 46, 120
6, 53340, Note_on_c, 9, 46, 0
6, 53340, Note_on_c, 9, 38, 0
6, 53400, Note_on_c, 9, 42, 120
6, 53460, Note_on_c, 9, 42, 0
6, 53520, Note_on_c, 9, 42, 120
6, 53580, Note_on_c, 9, 42, 0
6, 53640, Note_on_c, 9, 38, 100
6, 53640, Note_on_c, 9, 42, 120
6, 53700, Note_on_c, 9, 42, 0
6, 53700, Note_on_c, 9, 38, 0
6, 53760, Note_on_c, 9, 46, 120
6, 53768, Note_on_c, 9, 36, 100
6, 53820, Note_on_c, 9, 46, 0
6, 53828, Note_on_c, 9, 36, 0
6, 53880, Note_on_c, 9, 42, 120
6, 53940, Note_on_c, 9, 42, 0
6, 54000, Note_on_c, 9, 42, 120
6, 54060, Note_on_c, 9, 42, 0
6, 54120, Note_on_c, 9, 46, 120
6, 54180, Note_on_c, 9, 46, 0
6, 54240, Note_on_c, 9, 38, 100
6, 54240, Note_on_c, 9, 42, 120
6, 54300, Note_on_c, 9, 42, 0
6, 54300, Note_on_c, 9, 38, 0
6, 54360, Note_on_c, 9, 42, 120
6, 54420, Note_on_c, 9, 42, 0
6, 54480, Note_on_c, 9, 36, 100
6, 54480, Note_on_c, 9, 42, 120
6, 54540, Note_on_c, 9, 42, 0
6, 54540, Note_on_c, 9, 36, 0
6, 54600, Note_on_c, 9, 42, 120
6, 54660, Note_on_c, 9, 42, 0
6, 54720, Note_on_c, 9, 38, 100
6, 54720, Note_on_c, 9, 36, 100
6, 54720, Note_on_c, 9, 46, 120
6, 54780, Note_on_c, 9, 46, 0
6, 54780, Note_on_c, 9, 36, 0
6, 54780, Note_on_c, 9, 38, 0
6, 54840, Note_on_c, 9, 38, 100
6, 54840, Note_on_c, 9, 42, 120
6, 54900, Note_on_c, 9, 42, 0
6, 54900, Note_on_c, 9, 38, 0
6, 54960, Note_on_c, 9, 38, 100
6, 54960, Note_on_c, 9, 42, 120
6, 55020, Note_on_c, 9, 42, 0
6, 55020, Note_on_c, 9, 38, 0
6, 55080, Note_on_c, 9, 38, 100
6, 55080, Note_on_c, 9, 42, 120
6, 55140, Note_on_c, 9, 42, 0
6, 55140, Note_on_c, 9, 38, 0
6, 55200, Note_on_c, 9, 38, 100
6, 55200, Note_on_c, 9, 46, 120
6, 55260, Note_on_c, 9, 46, 0
6, 55260, Note_on_c, 9, 38, 0
6, 55320, Note_on_c, 9, 38, 100
6, 55320, Note_on_c, 9, 42, 120
6, 55380, Note_on_c, 9, 42, 0
6, 55380, Note_on_c, 9, 38, 0
6, 55440, Note_on_c, 9, 38, 100
6, 55440, Note_on_c, 9, 42, 120
6, 55500, Note_on_c, 9, 42, 0
6, 55500, Note_on_c, 9, 38, 0
6, 55560, Note_on_c, 9, 38, 100
6, 55560, Note_on_c, 9, 42, 120
6, 55620, Note_on_c, 9, 42, 0
6, 55620, Note_on_c, 9, 38, 0
6, 55680, Note_on_c, 9, 46, 120
6, 55688, Note_on_c, 9, 36, 100
6, 55740, Note_on_c, 9, 46, 0
6, 55748, Note_on_c, 9, 36, 0
6, 55800, Note_on_c, 9, 42, 120
6, 55860, Note_on_c, 9, 42, 0
6, 55920, Note_on_c, 9, 42, 120
6, 55980, Note_on_c, 9, 42, 0
6, 56040, Note_on_c, 9, 46, 120
6, 56100, Note_on_c, 9, 46, 0
6, 56160, Note_on_c, 9, 38, 100
6, 56160, Note_on_c, 9, 42, 120
6, 56220, Note_on_c, 9, 42, 0
6, 56220, Note_on_c, 9, 38, 0
6, 56280, Note_on_c, 9, 42, 120
6, 56340, Note_on_c, 9, 42, 0
6, 56400, Note_on_c, 9, 36, 100
6, 56400, Note_on_c, 9, 42, 120
6, 56460, Note_on_c, 9, 42, 0
6, 56460, Note_on_c, 9, 36, 0
6, 56520, Note_on_c, 9, 42, 120
6, 56580, Note_on_c, 9, 42, 0
6, 56640, Note_on_c, 9, 36, 100
6, 56640, Note_on_c, 9, 42, 120
6, 56700, Note_on_c, 9, 42, 0
6, 56700, Note_on_c, 9, 36, 0
6, 56760, Note_on_c, 9, 42, 120
6, 56820, Note_on_c, 9, 42, 0
6, 56880, Note_on_c, 9, 42, 120
6, 56940, Note_on_c, 9, 42, 0
6, 57000, Note_on_c, 9, 42, 120
6, 57060, Note_on_c, 9, 42, 0
6, 57120, Note_on_c, 9, 38, 100
6, 57120, Note_on_c, 9, 46, 120
6, 57180, Note_on_c, 9, 46, 0
6, 57180, Note_on_c, 9, 38, 0
6, 57240, Note_on_c, 9, 42, 120
6, 57300, Note_on_c, 9, 42, 0
6, 57360, Note_on_c, 9, 42, 120
6, 57420, Note_on_c, 9, 42, 0
6, 57480, Note_on_c, 9, 42, 120
6, 57540, Note_on_c, 9, 42, 0
6, 57600, Note_on_c, 9, 46, 120
6, 57608, Note_on_c, 9, 36, 100
6, 57660, Note_on_c, 9, 46, 0
6, 57668, Note_on_c, 9, 36, 0
6, 57720, Note_on_c, 9, 42, 120
6, 57780, Note_on_c, 9, 42, 0
6, 57840, Note_on_c, 9, 42, 120
6, 57900, Note_on_c, 9, 42, 0
6, 57960, Note_on_c, 9, 46, 120
6, 58020, Note_on_c, 9, 46, 0
6, 58080, Note_on_c, 9, 38, 100
6, 58080, Note_on_c, 9, 42, 120
6, 58140, Note_on_c, 9, 42, 0
6, 58140, Note_on_c, 9, 38, 0
6, 58200, Note_on_c, 9, 42, 120
6, 58260, Note_on_c, 9, 42, 0
6, 58320, Note_on_c, 9, 36, 100
6, 58320, Note_on_c, 9, 42, 120
6, 58380, Note_on_c, 9, 42, 0
6, 58380, Note_on_c, 9, 36, 0
6, 58440, Note_on_c, 9, 38, 100
6, 58440, Note_on_c, 9, 42, 120
6, 58500, Note_on_c, 9, 42, 0
6, 58500, Note_on_c, 9, 38, 0
6, 58560, Note_on_c, 9, 36, 100
6, 58560, Note_on_c, 9, 46, 120
6, 58620, Note_on_c, 9, 46, 0
6, 58620, Note_on_c, 9, 36, 0
6, 58680, Note_on_c, 9, 42, 120
6, 58740, Note_on_c, 9, 42, 0
6, 58800, Note_on_c, 9, 42, 120
6, 58860, Note_on_c, 9, 42, 0
6, 58920, Note_on_c, 9, 42, 120
6, 58980, Note_on_c, 9, 42, 0
6, 59040, Note_on_c, 9, 38, 100
6, 59040, Note_on_c, 9, 46, 120
6, 59100, Note_on_c, 9, 46, 0
6, 59100, Note_on_c, 9, 38, 0
6, 59160, Note_on_c, 9, 42, 120
6, 59220, Note_on_c, 9, 42, 0
6, 59280, Note_on_c, 9, 42, 120
6, 59340, Note_on_c, 9, 42, 0
6, 59400, Note_on_c, 9, 38, 100
6, 59400, Note_on_c, 9, 42, 120
6, 59460, Note_on_c, 9, 42, 0
6, 59460, Note_on_c, 9, 38, 0
6, 59520, Note_on_c, 9, 46, 120
6, 59528, Note_on_c, 9, 36, 100
6, 59580, Note_on_c, 9, 46, 0
6, 59588, Note_on_c, 9, 36, 0
6, 59640, Note_on_c, 9, 42, 120
6, 59700, Note_on_c, 9, 42, 0
6, 59760, Note_on_c, 9, 42, 120
6, 59820, Note_on_c, 9, 42, 0
6, 59880, Note_on_c, 9, 46, 120
6, 59940, Note_on_c, 9, 46, 0
6, 60000, Note_on_c, 9, 38, 100
6, 60000, Note_on_c, 9, 42, 120
6, 60060, Note_on_c, 9, 42, 0
6, 60060, Note_on_c, 9, 38, 0
6, 60120, Note_on_c, 9, 38, 100
6, 60120, Note_on_c, 9, 42, 120
6, 60180, Note_on_c, 9, 42, 0
6, 60180, Note_on_c, 9, 38, 0
6, 60240, Note_on_c, 9, 38, 100
6, 60240, Note_on_c, 9, 36, 100
6, 60240, Note_on_c, 9, 42, 120
6, 60300, Note_on_c, 9, 42, 0
6, 60300, Note_on_c, 9, 36, 0
6, 60300, Note_on_c, 9, 38, 0
6, 60360, Note_on_c, 9, 42, 120
6, 60420, Note_on_c, 9, 42, 0
6, 60480, Note_on_c, 9, 36, 100
6, 60480, Note_on_c, 9, 46, 120
6, 60540, Note_on_c, 9, 46, 0
6, 60540, Note_on_c, 9, 36, 0
6, 60600, Note_on_c, 9, 42, 120
6, 60660, Note_on_c, 9, 42, 0
6, 60720, Note_on_c, 9, 42, 120
6, 60780, Note_on_c, 9, 42, 0
6, 60840, Note_on_c, 9, 42, 120
6, 60900, Note_on_c, 9, 42, 0
6, 60960, Note_on_c, 9, 38, 100
6, 60960, Note_on_c, 9, 46, 120
6, 61020, Note_on_c, 9, 46, 0
6, 61020, Note_on_c, 9, 38, 0
6, 61080, Note_on_c, 9, 38, 100
6, 61080, Note_on_c, 9, 42, 120
6, 61140, Note_on_c, 9, 42, 0
6, 61140, Note_on_c, 9, 38, 0
6, 61200, Note_on_c, 9, 38, 100
6, 61200, Note_on_c, 9, 42, 120
6, 61260, Note_on_c, 9, 42, 0
6, 61260, Note_on_c, 9, 38, 0
6, 61320, Note_on_c, 9, 38, 100
6, 61320, Note_on_c, 9, 42, 120
6, 61380, Note_on_c, 9, 42, 0
6, 61380, Note_on_c, 9, 38, 0
6, 61440, Note_on_c, 9, 46, 120
6, 61448, Note_on_c, 9, 36, 100
6, 61500, Note_on_c, 9, 46, 0
6, 61508, Note_on_c, 9, 36, 0
6, 61560, Note_on_c, 9, 46, 120
6, 61620, Note_on_c, 9, 46, 0
6, 61680, Note_on_c, 9, 42, 120
6, 61740, Note_on_c, 9, 42, 0
6, 61800, Note_on_c, 9, 46, 120
6, 61860, Note_on_c, 9, 46, 0
6, 61920, Note_on_c, 9, 38, 100
6, 61920, Note_on_c, 9, 46, 120
6, 61980, Note_on_c, 9, 46, 0
6, 61980, Note_on_c, 9, 38, 0
6, 62040, Note_on_c, 9, 42, 120
6, 62100, Note_on_c, 9, 42, 0
6, 62160, Note_on_c, 9, 36, 100
6, 62160, Note_on_c, 9, 42, 120
6, 62220, Note_on_c, 9, 42, 0
6, 62220, Note_on_c, 9, 36, 0
6, 62280, Note_on_c, 9, 42, 120
6, 62340, Note_on_c, 9, 42, 0
6, 62400, Note_on_c, 9, 36, 100
6, 62400, Note_on_c, 9, 46, 120
6, 62460, Note_on_c, 9, 46, 0
6, 62460, Note_on_c, 9, 36, 0
6, 62520, Note_on_c, 9, 42, 120
6, 62580, Note_on_c, 9, 42, 0
6, 62640, Note_on_c, 9, 42, 120
6, 62700, Note_on_c, 9, 42, 0
6, 62760, Note_on_c, 9, 42, 120
6, 62820, Note_on_c, 9, 42, 0
6, 62880, Note_on_c, 9, 38, 100
6, 62880, Note_on_c, 9, 46, 120
6, 62940, Note_on_c, 9, 46, 0
6, 62940, Note_on_c, 9, 38, 0
6, 63000, Note_on_c, 9, 42, 120
6, 63060, Note_on_c, 9, 42, 0
6, 63120, Note_on_c, 9, 42, 120
6, 63180, Note_on_c, 9, 42, 0
6, 63240, Note_on_c, 9, 38, 100
6, 63240, Note_on_c, 9, 42, 120
6, 63300, Note_on_c, 9, 42, 0
6, 63300, Note_on_c, 9, 38, 0
6, 63360, Note_on_c, 9, 46, 120
6, 63368, Note_on_c, 9, 36, 100
6, 63420, Note_on_c, 9, 46, 0
6, 63428, Note_on_c, 9, 36, 0
6, 63480, Note_on_c, 9, 42, 120
6, 63540, Note_on_c, 9, 42, 0
6, 63600, Note_on_c, 9, 42, 120
6, 63660, Note_on_c, 9, 42, 0
6, 63720, Note_on_c, 9, 46, 120
6, 63780, Note_on_c, 9, 46, 0
6, 63840, Note_on_c, 9, 38, 100
6, 63840, Note_on_c, 9, 42, 120
6, 63900, Note_on_c, 9, 42, 0
6, 63900, Note_on_c, 9, 38, 0
6, 63960, Note_on_c, 9, 42, 120
6, 64020, Note_on_c, 9, 42, 0
6, 64080, Note_on_c, 9, 36, 100
6, 64080, Note_on_c, 9, 42, 120
6, 64140, Note_on_c, 9, 42, 0
6, 64140, Note_on_c, 9, 36, 0
6, 64200, Note_on_c, 9, 42, 120
6, 64260, Note_on_c, 9, 42, 0
6, 64320, Note_on_c, 9, 36, 100
6, 64320, Note_on_c, 9, 46, 120
6, 64380, Note_on_c, 9, 46, 0
6, 64380, Note_on_c, 9, 36, 0
6, 64440, Note_on_c, 9, 42, 120
6, 64500, Note_on_c, 9, 42, 0
6, 64560, Note_on_c, 9, 42, 120
6, 64620, Note_on_c, 9, 42, 0
6, 64680, Note_on_c, 9, 42, 120
6, 64740, Note_on_c, 9, 42, 0
6, 64800, Note_on_c, 9, 38, 100
6, 64800, Note_on_c, 9, 42, 120
6, 64860, Note_on_c, 9, 42, 0
6, 64860, Note_on_c, 9, 38, 0
6, 64920, Note_on_c, 9, 42, 120
6, 64980, Note_on_c, 9, 42, 0
6, 65040, Note_on_c, 9, 42, 120
6, 65100, Note_on_c, 9, 42, 0
6, 65160, Note_on_c, 9, 42, 120
6, 65220, Note_on_c, 9, 42, 0
6, 65280, Note_on_c, 9, 46, 120
6, 65288, Note_on_c, 9, 36, 100
6, 65340, Note_on_c, 9, 46, 0
6, 65348, Note_on_c, 9, 36, 0
6, 65400, Note_on_c, 9, 42, 120
6, 65460, Note_on_c, 9, 42, 0
6, 65520, Note_on_c, 9, 42, 120
6, 65580, Note_on_c, 9, 42, 0
6, 65640, Note_on_c, 9, 46, 120
6, 65700, Note_on_c, 9, 46, 0
6, 65760, Note_on_c, 9, 38, 100
6, 65760, Note_on_c, 9, 42, 120
6, 65820, Note_on_c, 9, 42, 0
6, 65820, Note_on_c, 9, 38, 0
6, 65880, Note_on_c, 9, 42, 120
6, 65940, Note_on_c, 9, 42, 0
6, 66000, Note_on_c, 9, 36, 100
6, 66000, Note_on_c, 9, 42, 120
6, 66060, Note_on_c, 9, 42, 0
6, 66060, Note_on_c, 9, 36, 0
6, 66120, Note_on_c, 9, 42, 120
6, 66180, Note_on_c, 9, 42, 0
6, 66240, Note_on_c, 9, 38, 100
6, 66240, Note_on_c, 9, 36, 100
6, 66240, Note_on_c, 9, 46, 120
6, 66300, Note_on_c, 9, 46, 0
6, 66300, Note_on_c, 9, 36, 0
6, 66300, Note_on_c, 9, 38, 0
6, 66360, Note_on_c, 9, 42, 120
6, 66420, Note_on_c, 9, 42, 0
6, 66480, Note_on_c, 9, 42, 120
6, 66540, Note_on_c, 9, 42, 0
6, 66600, Note_on_c, 9, 42, 120
6, 66660, Note_on_c, 9, 42, 0
6, 66720, Note_on_c, 9, 38, 100
6, 66720, Note_on_c, 9, 46, 120
6, 66780, Note_on_c, 9, 46, 0
6, 66780, Note_on_c, 9, 38, 0
6, 66840, Note_on_c, 9, 42, 120
6, 66900, Note_on_c, 9, 42, 0
6, 66960, Note_on_c, 9, 42, 120
6, 67020, Note_on_c, 9, 42, 0
6, 67080, Note_on_c, 9, 42, 120
6, 67140, Note_on_c, 9, 42, 0
6, 67200, Note_on_c, 9, 46, 120
6, 67208, Note_on_c, 9, 36, 100
6, 67260, Note_on_c, 9, 46, 0
6, 67268, Note_on_c, 9, 36, 0
6, 67320, Note_on_c, 9, 42, 120
6, 67380, Note_on_c, 9, 42, 0
6, 67440, Note_on_c, 9, 42, 120
6, 67500, Note_on_c, 9, 42, 0
6, 67560, Note_on_c, 9, 42, 120
6, 67620, Note_on_c, 9, 42, 0
6, 67680, Note_on_c, 9, 38, 100
6, 67680, Note_on_c, 9, 42, 120
6, 67740, Note_on_c, 9, 42, 0
6, 67740, Note_on_c, 9, 38, 0
6, 67800, Note_on_c, 9, 42, 120
6, 67860, Note_on_c, 9, 42, 0
6, 67920, Note_on_c, 9, 36, 100
6, 67920, Note_on_c, 9, 42, 120
6, 67980, Note_on_c, 9, 42, 0
6, 67980, Note_on_c, 9, 36, 0
6, 68040, Note_on_c, 9, 42, 120
6, 68100, Note_on_c, 9, 42, 0
6, 68160, Note_on_c, 9, 36, 100
6, 68160, Note_on_c, 9, 42, 120
6, 68220, Note_on_c, 9, 42, 0
6, 68220, Note_on_c, 9, 36, 0
6, 68280, Note_on_c, 9, 42, 120
6, 68340, Note_on_c, 9, 42, 0
6, 68400, Note_on_c, 9, 42, 120
6, 68460, Note_on_c, 9, 42, 0
6, 68520, Note_on_c, 9, 42, 120
6, 68580, Note_on_c, 9, 42, 0
6, 68640, Note_on_c, 9, 38, 100
6, 68640, Note_on_c, 9, 46, 120
6, 68700, Note_on_c, 9, 46, 0
6, 68700, Note_on_c, 9, 38, 0
6, 68760, Note_on_c, 9, 42, 120
6, 68820, Note_on_c, 9, 42, 0
6, 68880, Note_on_c, 9, 42, 120
6, 68940, Note_on_c, 9, 42, 0
6, 69000, Note_on_c, 9, 42, 120
6, 69060, Note_on_c, 9, 42, 0
6, 69120, Note_on_c, 9, 46, 120
6, 69128, Note_on_c, 9, 36, 100
6, 69180, Note_on_c, 9, 46, 0
6, 69188, Note_on_c, 9, 36, 0
6, 69240, Note_on_c, 9, 42, 120
6, 69300, Note_on_c, 9, 42, 0
6, 69360, Note_on_c, 9, 42, 120
6, 69420, Note_on_c, 9, 42, 0
6, 69480, Note_on_c, 9, 46, 120
6, 69540, Note_on_c, 9, 46, 0
6, 69600, Note_on_c, 9, 38, 100
6, 69600, Note_on_c, 9, 42, 120
6, 69660, Note_on_c, 9, 42, 0
6, 69660, Note_on_c, 9, 38, 0
6, 69720, Note_on_c, 9, 42, 120
6, 69780, Note_on_c, 9, 42, 0
6, 69840, Note_on_c, 9, 36, 100
6, 69840, Note_on_c, 9, 42, 120
6, 69900, Note_on_c, 9, 42, 0
6, 69900, Note_on_c, 9, 36, 0
6, 69960, Note_on_c, 9, 42, 120
6, 70020, Note_on_c, 9, 42, 0
6, 70080, Note_on_c, 9, 38, 100
6, 70080, Note_on_c, 9, 36, 100
6, 70080, Note_on_c, 9, 46, 120
6, 70140, Note_on_c, 9, 46, 0
6, 70140, Note_on_c, 9, 36, 0
6, 70140, Note_on_c, 9, 38, 0
6, 70200, Note_on_c, 9, 38, 100
6, 70200, Note_on_c, 9, 42, 120
6, 70260, Note_on_c, 9, 42, 0
6, 70260, Note_on_c, 9, 38, 0
6, 70320, Note_on_c, 9, 38, 100
6, 70320, Note_on_c, 9, 42, 120
6, 70380, Note_on_c, 9, 42, 0
6, 70380, Note_on_c, 9, 38, 0
6, 70440, Note_on_c, 9, 42, 120
6, 70500, Note_on_c, 9, 42, 0
6, 70560, Note_on_c, 9, 38, 100
6, 70560, Note_on_c, 9, 46, 120
6, 70620, Note_on_c, 9, 46, 0
6, 70620, Note_on_c, 9, 38, 0
6, 70680, Note_on_c, 9, 42, 120
6, 70740, Note_on_c, 9, 42, 0
6, 70800, Note_on_c, 9, 42, 120
6, 70860, Note_on_c, 9, 42, 0
6, 70920, Note_on_c, 9, 38, 100
6, 70920, Note_on_c, 9, 42, 120
6, 70980, Note_on_c, 9, 42, 0
6, 70980, Note_on_c, 9, 38, 0
6, 71040, Note_on_c, 9, 46, 120
6, 71048, Note_on_c, 9, 36, 100
6, 71100, Note_on_c, 9, 46, 0
6, 71108, Note_on_c, 9, 36, 0
6, 71160, Note_on_c, 9, 42, 120
6, 71220, Note_on_c, 9, 42, 0
6, 71280, Note_on_c, 9, 42, 120
6, 71340, Note_on_c, 9, 42, 0
6, 71400, Note_on_c, 9, 42, 120
6, 71460, Note_on_c, 9, 42, 0
6, 71520, Note_on_c, 9, 38, 100
6, 71520, Note_on_c, 9, 42, 120
6, 71580, Note_on_c, 9, 42, 0
6, 71580, Note_on_c, 9, 38, 0
6, 71640, Note_on_c, 9, 42, 120
6, 71700, Note_on_c, 9, 42, 0
6, 71760, Note_on_c, 9, 36, 100
6, 71760, Note_on_c, 9, 42, 120
6, 71820, Note_on_c, 9, 42, 0
6, 71820, Note_on_c, 9, 36, 0
6, 71880, Note_on_c, 9, 42, 120
6, 71940, Note_on_c, 9, 42, 0
6, 72000, Note_on_c, 9, 36, 100
6, 72000, Note_on_c, 9, 46, 120
6, 72060, Note_on_c, 9, 46, 0
6, 72060, Note_on_c, 9, 36, 0
6, 72120, Note_on_c, 9, 42, 120
6, 72180, Note_on_c, 9, 42, 0
6, 72240, Note_on_c, 9, 42, 120
6, 72300, Note_on_c, 9, 42, 0
6, 72360, Note_on_c, 9, 42, 120
6, 72420, Note_on_c, 9, 42, 0
6, 72480, Note_on_c, 9, 38, 100
6, 72480, Note_on_c, 9, 42, 120
6, 72540, Note_on_c, 9, 42, 0
6, 72540, Note_on_c, 9, 38, 0
6, 72600, Note_on_c, 9, 42, 120
6, 72660, Note_on_c, 9, 42, 0
6, 72720, Note_on_c, 9, 42, 120
6, 72780, Note_on_c, 9, 42, 0
6, 72840, Note_on_c, 9, 42, 120
6, 72900, Note_on_c, 9, 42, 0
6, 72960, Note_on_c, 9, 46, 120
6, 72968, Note_on_c, 9, 36, 100
6, 73020, Note_on_c, 9, 46, 0
6, 73028, Note_on_c, 9, 36, 0
6, 73080, Note_on_c, 9, 42, 120
6, 73140, Note_on_c, 9, 42, 0
6, 73200, Note_on_c, 9, 42, 120
6, 73260, Note_on_c, 9, 42, 0
6, 73320, Note_on_c, 9, 46, 120
6, 73380, Note_on_c, 9, 46, 0
6, 73440, Note_on_c, 9, 38, 100
6, 73440, Note_on_c, 9, 42, 120
6, 73500, Note_on_c, 9, 42, 0
6, 73500, Note_on_c, 9, 38, 0
6, 73560, Note_on_c, 9, 38, 100
6, 73560, Note_on_c, 9, 42, 120
6, 73620, Note_on_c, 9, 42, 0
6, 73620, Note_on_c, 9, 38, 0
6, 73680, Note_on_c, 9, 36, 100
6, 73680, Note_on_c, 9, 42, 120
6, 73740, Note_on_c, 9, 42, 0
6, 73740, Note_on_c, 9, 36, 0
6, 73800, Note_on_c, 9, 42, 120
6, 73860, Note_on_c, 9, 42, 0
6, 73920, Note_on_c, 9, 38, 100
6, 73920, Note_on_c, 9, 36, 100
6, 73920, Note_on_c, 9, 46, 120
6, 73980, Note_on_c, 9, 46, 0
6, 73980, Note_on_c, 9, 36, 0
6, 73980, Note_on_c, 9, 38, 0
6, 74040, Note_on_c, 9, 38, 100
6, 74040, Note_on_c, 9, 42, 120
6, 74100, Note_on_c, 9, 42, 0
6, 74100, Note_on_c, 9, 38, 0
6, 74160, Note_on_c, 9, 42, 120
6, 74220, Note_on_c, 9, 42, 0
6, 74280, Note_on_c, 9, 42, 120
6, 74340, Note_on_c, 9, 42, 0
6, 74400, Note_on_c, 9, 38, 100
6, 74400, Note_on_c, 9, 46, 120
6, 74460, Note_on_c, 9, 46, 0
6, 74460, Note_on_c, 9, 38, 0
6, 74520, Note_on_c, 9, 38, 100
6, 74520, Note_on_c, 9, 42, 120
6, 74580, Note_on_c, 9, 42, 0
6, 74580, Note_on_c, 9, 38, 0
6, 74640, Note_on_c, 9, 38, 100
6, 74640, Note_on_c, 9, 42, 120
6, 74700, Note_on_c, 9, 42, 0
6, 74700, Note_on_c, 9, 38, 0
6, 74760, Note_on_c, 9, 42, 120
6, 74820, Note_on_c, 9, 42, 0
6, 74880, Note_on_c, 9, 49, 100
6, 74888, Note_on_c, 9, 36, 100
6, 74940, Note_on_c, 9, 49, 0
6, 74948, Note_on_c, 9, 36, 0
6, 78720, Note_on_c, 9, 51, 100
6, 78780, Note_on_c, 9, 51, 0
6, 79200, Note_on_c, 9, 51, 100
6, 79260, Note_on_c, 9, 51, 0
6, 79680, Note_on_c, 9, 51, 100
6, 79740, Note_on_c, 9, 51, 0
6, 80160, Note_on_c, 9, 51, 100
6, 80220, Note_on_c, 9, 51, 0
6, 82560, Note_on_c, 9, 51, 100
6, 82620, Note_on_c, 9, 51, 0
6, 83040, Note_on_c, 9, 51, 100
6, 83100, Note_on_c, 9, 51, 0
6, 83520, Note_on_c, 9, 51, 100
6, 83580, Note_on_c, 9, 51, 0
6, 84000, Note_on_c, 9, 51, 100
6, 84060, Note_on_c, 9, 51, 0
6, 86400, Note_on_c, 9, 51, 100
6, 86460, Note_on_c, 9, 51, 0
6, 86880, Note_on_c, 9, 51, 100
6, 86940, Note_on_c, 9, 51, 0
6, 87360, Note_on_c, 9, 51, 100
6, 87420, Note_on_c, 9, 51, 0
6, 87840, Note_on_c, 9, 51, 100
6, 87900, Note_on_c, 9, 51, 0
6, 90480, Note_on_c, 9, 51, 100
6, 90540, Note_on_c, 9, 51, 0
6, 90960, Note_on_c, 9, 51, 100
6, 91020, Note_on_c, 9, 51, 0
6, 91440, Note_on_c, 9, 51, 100
6, 91500, Note_on_c, 9, 51, 0
6, 91920, Note_on_c, 9, 51, 100
6, 91980, Note_on_c, 9, 51, 0
6, 92400, Note_on_c, 9, 51, 100
6, 92460, Note_on_c, 9, 51, 0
6, 92880, Note_on_c, 9, 51, 100
6, 92940, Note_on_c, 9, 51, 0
6, 93360, Note_on_c, 9, 51, 100
6, 93420, Note_on_c, 9, 51, 0
6, 93840, Note_on_c, 9, 51, 100
6, 93900, Note_on_c, 9, 51, 0
6, 94320, Note_on_c, 9, 51, 100
6, 94380, Note_on_c, 9, 51, 0
6, 94800, Note_on_c, 9, 51, 100
6, 94860, Note_on_c, 9, 51, 0
6, 95280, Note_on_c, 9, 51, 100
6, 95340, Note_on_c, 9, 51, 0
6, 95760, Note_on_c, 9, 51, 100
6, 95820, Note_on_c, 9, 51, 0
6, 96240, Note_on_c, 9, 51, 100
6, 96300, Note_on_c, 9, 51, 0
6, 96720, Note_on_c, 9, 51, 100
6, 96780, Note_on_c, 9, 51, 0
6, 97200, Note_on_c, 9, 51, 100
6, 97260, Note_on_c, 9, 51, 0
6, 97680, Note_on_c, 9, 51, 100
6, 97740, Note_on_c, 9, 51, 0
6, 98160, Note_on_c, 9, 46, 100
6, 98220, Note_on_c, 9, 46, 0
6, 98400, Note_on_c, 9, 42, 100
6, 98460, Note_on_c, 9, 42, 0
6, 99120, Note_on_c, 9, 46, 100
6, 99180, Note_on_c, 9, 46, 0
6, 99360, Note_on_c, 9, 42, 100
6, 99420, Note_on_c, 9, 42, 0
6, 100080, Note_on_c, 9, 46, 100
6, 100140, Note_on_c, 9, 46, 0
6, 102000, Note_on_c, 9, 36, 100
6, 102000, Note_on_c, 9, 36, 100
6, 102060, Note_on_c, 9, 36, 0
6, 102060, Note_on_c, 9, 36, 0
6, 102480, Note_on_c, 9, 36, 100
6, 102480, Note_on_c, 9, 36, 100
6, 102540, Note_on_c, 9, 36, 0
6, 102540, Note_on_c, 9, 36, 0
6, 102960, Note_on_c, 9, 36, 100
6, 102960, Note_on_c, 9, 36, 100
6, 103020, Note_on_c, 9, 36, 0
6, 103020, Note_on_c, 9, 36, 0
6, 103440, Note_on_c, 9, 36, 100
6, 103440, Note_on_c, 9, 36, 100
6, 103500, Note_on_c, 9, 36, 0
6, 103500, Note_on_c, 9, 36, 0
6, 103920, Note_on_c, 9, 36, 100
6, 103980, Note_on_c, 9, 36, 0
6, 104400, Note_on_c, 9, 40, 100
6, 104400, Note_on_c, 9, 36, 100
6, 104460, Note_on_c, 9, 36, 0
6, 104460, Note_on_c, 9, 40, 0
6, 104880, Note_on_c, 9, 36, 100
6, 104940, Note_on_c, 9, 36, 0
6, 105360, Note_on_c, 9, 36, 100
6, 105420, Note_on_c, 9, 36, 0
6, 105840, Note_on_c, 9, 36, 100
6, 105900, Note_on_c, 9, 36, 0
6, 106320, Note_on_c, 9, 40, 100
6, 106320, Note_on_c, 9, 36, 100
6, 106380, Note_on_c, 9, 36, 0
6, 106380, Note_on_c, 9, 40, 0
6, 106800, Note_on_c, 9, 36, 100
6, 106860, Note_on_c, 9, 36, 0
6, 107280, Note_on_c, 9, 40, 100
6, 107280, Note_on_c, 9, 36, 100
6, 107340, Note_on_c, 9, 36, 0
6, 107340, Note_on_c, 9, 40, 0
6, 107760, Note_on_c, 9, 36, 100
6, 107820, Note_on_c, 9, 36, 0
6, 108240, Note_on_c, 9, 40, 100
6, 108240, Note_on_c, 9, 36, 100
6, 108300, Note_on_c, 9, 36, 0
6, 108300, Note_on_c, 9, 40, 0
6, 108720, Note_on_c, 9, 40, 100
6, 108720, Note_on_c, 9, 36, 100
6, 108780, Note_on_c, 9, 36, 0
6, 108780, Note_on_c, 9, 40, 0
6, 108840, Note_on_c, 9, 40, 100
6, 108900, Note_on_c, 9, 40, 0
6, 108960, Note_on_c, 9, 40, 100
6, 109020, Note_on_c, 9, 40, 0
6, 109080, Note_on_c, 9, 40, 100
6, 109140, Note_on_c, 9, 40, 0
6, 109200, Note_on_c, 9, 40, 100
6, 109200, Note_on_c, 9, 36, 100
6, 109260, Note_on_c, 9, 36, 0
6, 109260, Note_on_c, 9, 40, 0
6, 109320, Note_on_c, 9, 40, 100
6, 109380, Note_on_c, 9, 40, 0
6, 109440, Note_on_c, 9, 40, 100
6, 109500, Note_on_c, 9, 40, 0
6, 109680, Note_on_c, 9, 36, 100
6, 109740, Note_on_c, 9, 36, 0
6, 110160, Note_on_c, 9, 40, 100
6, 110160, Note_on_c, 9, 36, 100
6, 110220, Note_on_c, 9, 36, 0
6, 110220, Note_on_c, 9, 40, 0
6, 110640, Note_on_c, 9, 36, 100
6, 110700, Note_on_c, 9, 36, 0
6, 111120, Note_on_c, 9, 40, 100
6, 111120, Note_on_c, 9, 36, 100
6, 111180, Note_on_c, 9, 36, 0
6, 111180, Note_on_c, 9, 40, 0
6, 111600, Note_on_c, 9, 36, 100
6, 111660, Note_on_c, 9, 36, 0
6, 111840, Note_on_c, 9, 40, 100
6, 111900, Note_on_c, 9, 40, 0
6, 111960, Note_on_c, 9, 40, 100
6, 112020, Note_on_c, 9, 40, 0
6, 112080, Note_on_c, 9, 36, 100
6, 112080, Note_on_c, 9, 40, 100
6, 112140, Note_on_c, 9, 40, 0
6, 112140, Note_on_c, 9, 36, 0
6, 112560, Note_on_c, 9, 36, 100
6, 112620, Note_on_c, 9, 36, 0
6, 112800, Note_on_c, 9, 40, 100
6, 112860, Note_on_c, 9, 40, 0
6, 112920, Note_on_c, 9, 40, 100
6, 112980, Note_on_c, 9, 40, 0
6, 113040, Note_on_c, 9, 40, 100
6, 113040, Note_on_c, 9, 36, 100
6, 113100, Note_on_c, 9, 36, 0
6, 113100, Note_on_c, 9, 40, 0
6, 113160, Note_on_c, 9, 40, 100
6, 113220, Note_on_c, 9, 40, 0
6, 113280, Note_on_c, 9, 40, 100
6, 113340, Note_on_c, 9, 40, 0
6, 113520, Note_on_c, 9, 36, 100
6, 113580, Note_on_c, 9, 36, 0
6, 114000, Note_on_c, 9, 40, 100
6, 114000, Note_on_c, 9, 36, 100
6, 114060, Note_on_c, 9, 36, 0
6, 114060, Note_on_c, 9, 40, 0
6, 114480, Note_on_c, 9, 36, 100
6, 114540, Note_on_c, 9, 36, 0
6, 114720, Note_on_c, 9, 40, 100
6, 114780, Note_on_c, 9, 40, 0
6, 114840, Note_on_c, 9, 40, 100
6, 114900, Note_on_c, 9, 40, 0
6, 114960, Note_on_c, 9, 40, 100
6, 114960, Note_on_c, 9, 36, 100
6, 115020, Note_on_c, 9, 36, 0
6, 115020, Note_on_c, 9, 40, 0
6, 115440, Note_on_c, 9, 36, 100
6, 115500, Note_on_c, 9, 36, 0
6, 115920, Note_on_c, 9, 40, 100
6, 115920, Note_on_c, 9, 36, 100
6, 115980, Note_on_c, 9, 36, 0
6, 115980, Note_on_c, 9, 40, 0
6, 116400, Note_on_c, 9, 36, 100
6, 116460, Note_on_c, 9, 36, 0
6, 116880, Note_on_c, 9, 40, 100
6, 116880, Note_on_c, 9, 36, 100
6, 116940, Note_on_c, 9, 36, 0
6, 116940, Note_on_c, 9, 40, 0
6, 117000, Note_on_c, 9, 40, 100
6, 117060, Note_on_c, 9, 40, 0
6, 117120, Note_on_c, 9, 40, 100
6, 117180, Note_on_c, 9, 40, 0
6, 117240, Note_on_c, 9, 40, 100
6, 117300, Note_on_c, 9, 40, 0
6, 117360, Note_on_c, 9, 36, 100
6, 117420, Note_on_c, 9, 36, 0
6, 117840, Note_on_c, 9, 40, 100
6, 117840, Note_on_c, 9, 36, 100
6, 117900, Note_on_c, 9, 36, 0
6, 117900, Note_on_c, 9, 40, 0
6, 118320, Note_on_c, 9, 36, 100
6, 118380, Note_on_c, 9, 36, 0
6, 118680, Note_on_c, 9, 40, 100
6, 118740, Note_on_c, 9, 40, 0
6, 118800, Note_on_c, 9, 40, 100
6, 118800, Note_on_c, 9, 36, 100
6, 118860, Note_on_c, 9, 36, 0
6, 118860, Note_on_c, 9, 40, 0
6, 119280, Note_on_c, 9, 36, 100
6, 119340, Note_on_c, 9, 36, 0
6, 119760, Note_on_c, 9, 40, 100
6, 119760, Note_on_c, 9, 36, 100
6, 119820, Note_on_c, 9, 36, 0
6, 119820, Note_on_c, 9, 40, 0
6, 120240, Note_on_c, 9, 36, 100
6, 120300, Note_on_c, 9, 36, 0
6, 120720, Note_on_c, 9, 40, 100
6, 120720, Note_on_c, 9, 36, 100
6, 120780, Note_on_c, 9, 36, 0
6, 120780, Note_on_c, 9, 40, 0
6, 120840, Note_on_c, 9, 40, 100
6, 120900, Note_on_c, 9, 40, 0
6, 120960, Note_on_c, 9, 40, 100
6, 121020, Note_on_c, 9, 40, 0
6, 121200, Note_on_c, 9, 36, 100
6, 121260, Note_on_c, 9, 36, 0
6, 121680, Note_on_c, 9, 40, 100
6, 121680, Note_on_c, 9, 36, 100
6, 121740, Note_on_c, 9, 36, 0
6, 121740, Note_on_c, 9, 40, 0
6, 122160, Note_on_c, 9, 36, 100
6, 122220, Note_on_c, 9, 36, 0
6, 122640, Note_on_c, 9, 40, 100
6, 122640, Note_on_c, 9, 36, 100
6, 122700, Note_on_c, 9, 36, 0
6, 122700, Note_on_c, 9, 40, 0
6, 122880, Note_on_c, 9, 40, 100
6, 122940, Note_on_c, 9, 40, 0
6, 123120, Note_on_c, 9, 36, 100
6, 123180, Note_on_c, 9, 36, 0
6, 123600, Note_on_c, 9, 40, 100
6, 123600, Note_on_c, 9, 36, 100
6, 123660, Note_on_c, 9, 36, 0
6, 123660, Note_on_c, 9, 40, 0
6, 123840, Note_on_c, 9, 40, 100
6, 123900, Note_on_c, 9, 40, 0
6, 124080, Note_on_c, 9, 40, 100
6, 124080, Note_on_c, 9, 36, 100
6, 124140, Note_on_c, 9, 36, 0
6, 124140, Note_on_c, 9, 40, 0
6, 124560, Note_on_c, 9, 40, 100
6, 124560, Note_on_c, 9, 36, 100
6, 124620, Note_on_c, 9, 36, 0
6, 124620, Note_on_c, 9, 40, 0
6, 124680, Note_on_c, 9, 40, 100
6, 124740, Note_on_c, 9, 40, 0
6, 124800, Note_on_c, 9, 40, 100
6, 124860, Note_on_c, 9, 40, 0
6, 124920, Note_on_c, 9, 40, 100
6, 124980, Note_on_c, 9, 40, 0
6, 125040, Note_on_c, 9, 53, 100
6, 125040, Note_on_c, 9, 36, 100
6, 125100, Note_on_c, 9, 36, 0
6, 125100, Note_on_c, 9, 53, 0
6, 125520, Note_on_c, 9, 53, 100
6, 125520, Note_on_c, 9, 36, 100
6, 125580, Note_on_c, 9, 36, 0
6, 125580, Note_on_c, 9, 53, 0
6, 126000, Note_on_c, 9, 53, 100
6, 126000, Note_on_c, 9, 36, 100
6, 126060, Note_on_c, 9, 36, 0
6, 126060, Note_on_c, 9, 53, 0
6, 126480, Note_on_c, 9, 53, 100
6, 126480, Note_on_c, 9, 36, 100
6, 126540, Note_on_c, 9, 36, 0
6, 126540, Note_on_c, 9, 53, 0
6, 126960, Note_on_c, 9, 53, 100
6, 126960, Note_on_c, 9, 36, 100
6, 127020, Note_on_c, 9, 36, 0
6, 127020, Note_on_c, 9, 53, 0
6, 127440, Note_on_c, 9, 53, 100
6, 127440, Note_on_c, 9, 36, 100
6, 127500, Note_on_c, 9, 36, 0
6, 127500, Note_on_c, 9, 53, 0
6, 127920, Note_on_c, 9, 53, 100
6, 127920, Note_on_c, 9, 36, 100
6, 127980, Note_on_c, 9, 36, 0
6, 127980, Note_on_c, 9, 53, 0
6, 128400, Note_on_c, 9, 53, 100
6, 128400, Note_on_c, 9, 36, 100
6, 128460, Note_on_c, 9, 36, 0
6, 128460, Note_on_c, 9, 53, 0
6, 128880, Note_on_c, 9, 36, 100
6, 128940, Note_on_c, 9, 36, 0
6, 129360, Note_on_c, 9, 40, 100
6, 129420, Note_on_c, 9, 40, 0
6, 129600, Note_on_c, 9, 36, 100
6, 129660, Note_on_c, 9, 36, 0
6, 129840, Note_on_c, 9, 36, 100
6, 129900, Note_on_c, 9, 36, 0
6, 130320, Note_on_c, 9, 40, 100
6, 130320, Note_on_c, 9, 36, 100
6, 130380, Note_on_c, 9, 36, 0
6, 130380, Note_on_c, 9, 40, 0
6, 130800, Note_on_c, 9, 40, 100
6, 130800, Note_on_c, 9, 36, 100
6, 130860, Note_on_c, 9, 36, 0
6, 130860, Note_on_c, 9, 40, 0
6, 130920, Note_on_c, 9, 40, 100
6, 130980, Note_on_c, 9, 40, 0
6, 131040, Note_on_c, 9, 40, 100
6, 131100, Note_on_c, 9, 40, 0
6, 131160, Note_on_c, 9, 40, 100
6, 131220, Note_on_c, 9, 40, 0
6, 131280, Note_on_c, 9, 40, 100
6, 131280, Note_on_c, 9, 36, 100
6, 131340, Note_on_c, 9, 36, 0
6, 131340, Note_on_c, 9, 40, 0
6, 131400, Note_on_c, 9, 40, 100
6, 131460, Note_on_c, 9, 40, 0
6, 131520, Note_on_c, 9, 40, 100
6, 131580, Note_on_c, 9, 40, 0
6, 131640, Note_on_c, 9, 40, 100
6, 131700, Note_on_c, 9, 40, 0
6, 131760, Note_on_c, 9, 36, 100
6, 131820, Note_on_c, 9, 36, 0
6, 132240, Note_on_c, 9, 40, 100
6, 132240, Note_on_c, 9, 36, 100
6, 132300, Note_on_c, 9, 36, 0
6, 132300, Note_on_c, 9, 40, 0
6, 132720, Note_on_c, 9, 36, 100
6, 132780, Note_on_c, 9, 36, 0
6, 133200, Note_on_c, 9, 40, 100
6, 133200, Note_on_c, 9, 36, 100
6, 133260, Note_on_c, 9, 36, 0
6, 133260, Note_on_c, 9, 40, 0
6, 133680, Note_on_c, 9, 36, 100
6, 133740, Note_on_c, 9, 36, 0
6, 134160, Note_on_c, 9, 40, 100
6, 134160, Note_on_c, 9, 36, 100
6, 134220, Note_on_c, 9, 36, 0
6, 134220, Note_on_c, 9, 40, 0
6, 134280, Note_on_c, 9, 40, 100
6, 134340, Note_on_c, 9, 40, 0
6, 134640, Note_on_c, 9, 36, 100
6, 134700, Note_on_c, 9, 36, 0
6, 134880, Note_on_c, 9, 40, 100
6, 134940, Note_on_c, 9, 40, 0
6, 135000, Note_on_c, 9, 40, 100
6, 135060, Note_on_c, 9, 40, 0
6, 135120, Note_on_c, 9, 40, 100
6, 135120, Note_on_c, 9, 36, 100
6, 135180, Note_on_c, 9, 36, 0
6, 135180, Note_on_c, 9, 40, 0
6, 135600, Note_on_c, 9, 40, 100
6, 135600, Note_on_c, 9, 36, 100
6, 135660, Note_on_c, 9, 36, 0
6, 135660, Note_on_c, 9, 40, 0
6, 135720, Note_on_c, 9, 40, 100
6, 135780, Note_on_c, 9, 40, 0
6, 135840, Note_on_c, 9, 40, 100
6, 135900, Note_on_c, 9, 40, 0
6, 135960, Note_on_c, 9, 40, 100
6, 136020, Note_on_c, 9, 40, 0
6, 136080, Note_on_c, 9, 40, 100
6, 136080, Note_on_c, 9, 36, 100
6, 136140, Note_on_c, 9, 36, 0
6, 136140, Note_on_c, 9, 40, 0
6, 136200, Note_on_c, 9, 40, 100
6, 136260, Note_on_c, 9, 40, 0
6, 136320, Note_on_c, 9, 40, 100
6, 136380, Note_on_c, 9, 40, 0
6, 136440, Note_on_c, 9, 40, 100
6, 136500, Note_on_c, 9, 40, 0
6, 136560, Note_on_c, 9, 36, 100
6, 136620, Note_on_c, 9, 36, 0
6, 137040, Note_on_c, 9, 40, 100
6, 137040, Note_on_c, 9, 36, 100
6, 137100, Note_on_c, 9, 36, 0
6, 137100, Note_on_c, 9, 40, 0
6, 137520, Note_on_c, 9, 36, 100
6, 137580, Note_on_c, 9, 36, 0
6, 138000, Note_on_c, 9, 40, 100
6, 138000, Note_on_c, 9, 36, 100
6, 138060, Note_on_c, 9, 36, 0
6, 138060, Note_on_c, 9, 40, 0
6, 138120, Note_on_c, 9, 40, 100
6, 138180, Note_on_c, 9, 40, 0
6, 138240, Note_on_c, 9, 40, 100
6, 138300, Note_on_c, 9, 40, 0
6, 138480, Note_on_c, 9, 36, 100
6, 138540, Note_on_c, 9, 36, 0
6, 138960, Note_on_c, 9, 40, 100
6, 138960, Note_on_c, 9, 36, 100
6, 139020, Note_on_c, 9, 36, 0
6, 139020, Note_on_c, 9, 40, 0
6, 139440, Note_on_c, 9, 36, 100
6, 139500, Note_on_c, 9, 36, 0
6, 139920, Note_on_c, 9, 40, 100
6, 139920, Note_on_c, 9, 36, 100
6, 139980, Note_on_c, 9, 36, 0
6, 139980, Note_on_c, 9, 40, 0
6, 140160, Note_on_c, 9, 40, 100
6, 140220, Note_on_c, 9, 40, 0
6, 140400, Note_on_c, 9, 36, 100
6, 140460, Note_on_c, 9, 36, 0
6, 140880, Note_on_c, 9, 40, 100
6, 140880, Note_on_c, 9, 36, 100
6, 140940, Note_on_c, 9, 36, 0
6, 140940, Note_on_c, 9, 40, 0
6, 141360, Note_on_c, 9, 36, 100
6, 141420, Note_on_c, 9, 36, 0
6, 141840, Note_on_c, 9, 40, 100
6, 141840, Note_on_c, 9, 36, 100
6, 141900, Note_on_c, 9, 36, 0
6, 141900, Note_on_c, 9, 40, 0
6, 141960, Note_on_c, 9, 40, 100
6, 142020, Note_on_c, 9, 40, 0
6, 142080, Note_on_c, 9, 40, 100
6, 142140, Note_on_c, 9, 40, 0
6, 142320, Note_on_c, 9, 36, 100
6, 142380, Note_on_c, 9, 36, 0
6, 142800, Note_on_c, 9, 40, 100
6, 142800, Note_on_c, 9, 36, 100
6, 142860, Note_on_c, 9, 36, 0
6, 142860, Note_on_c, 9, 40, 0
6, 142920, Note_on_c, 9, 40, 100
6, 142980, Note_on_c, 9, 40, 0
6, 143040, Note_on_c, 9, 40, 100
6, 143100, Note_on_c, 9, 40, 0
6, 143280, Note_on_c, 9, 36, 100
6, 143340, Note_on_c, 9, 36, 0
6, 143760, Note_on_c, 9, 40, 100
6, 143760, Note_on_c, 9, 36, 100
6, 143820, Note_on_c, 9, 36, 0
6, 143820, Note_on_c, 9, 40, 0
6, 143880, Note_on_c, 9, 40, 100
6, 143940, Note_on_c, 9, 40, 0
6, 144000, Note_on_c, 9, 40, 100
6, 144060, Note_on_c, 9, 40, 0
6, 144120, Note_on_c, 9, 40, 100
6, 144180, Note_on_c, 9, 40, 0
6, 144240, Note_on_c, 9, 40, 100
6, 144240, Note_on_c, 9, 36, 100
6, 144300, Note_on_c, 9, 36, 0
6, 144300, Note_on_c, 9, 40, 0
6, 144720, Note_on_c, 9, 40, 100
6, 144720, Note_on_c, 9, 36, 100
6, 144780, Note_on_c, 9, 36, 0
6, 144780, Note_on_c, 9, 40, 0
6, 145200, Note_on_c, 9, 36, 100
6, 145260, Note_on_c, 9, 36, 0
6, 145680, Note_on_c, 9, 40, 100
6, 145680, Note_on_c, 9, 36, 100
6, 145740, Note_on_c, 9, 36, 0
6, 145740, Note_on_c, 9, 40, 0
6, 146040, Note_on_c, 9, 40, 100
6, 146100, Note_on_c, 9, 40, 0
6, 146160, Note_on_c, 9, 36, 100
6, 146220, Note_on_c, 9, 36, 0
6, 146640, Note_on_c, 9, 40, 100
6, 146640, Note_on_c, 9, 36, 100
6, 146700, Note_on_c, 9, 36, 0
6, 146700, Note_on_c, 9, 40, 0
6, 147120, Note_on_c, 9, 36, 100
6, 147180, Note_on_c, 9, 36, 0
6, 147600, Note_on_c, 9, 40, 100
6, 147600, Note_on_c, 9, 36, 100
6, 147660, Note_on_c, 9, 36, 0
6, 147660, Note_on_c, 9, 40, 0
6, 147960, Note_on_c, 9, 40, 100
6, 148020, Note_on_c, 9, 40, 0
6, 148080, Note_on_c, 9, 36, 100
6, 148140, Note_on_c, 9, 36, 0
6, 148560, Note_on_c, 9, 40, 100
6, 148560, Note_on_c, 9, 36, 100
6, 148620, Note_on_c, 9, 36, 0
6, 148620, Note_on_c, 9, 40, 0
6, 149040, Note_on_c, 9, 36, 100
6, 149100, Note_on_c, 9, 36, 0
6, 149520, Note_on_c, 9, 40, 100
6, 149520, Note_on_c, 9, 36, 100
6, 149580, Note_on_c, 9, 36, 0
6, 149580, Note_on_c, 9, 40, 0
6, 149640, Note_on_c, 9, 40, 100
6, 149700, Note_on_c, 9, 40, 0
6, 149760, Note_on_c, 9, 40, 100
6, 149820, Note_on_c, 9, 40, 0
6, 149880, Note_on_c, 9, 40, 100
6, 149940, Note_on_c, 9, 40, 0
6, 150000, Note_on_c, 9, 36, 100
6, 150060, Note_on_c, 9, 36, 0
6, 150480, Note_on_c, 9, 40, 100
6, 150480, Note_on_c, 9, 36, 100
6, 150540, Note_on_c, 9, 36, 0
6, 150540, Note_on_c, 9, 40, 0
6, 150960, Note_on_c, 9, 36, 100
6, 151020, Note_on_c, 9, 36, 0
6, 151440, Note_on_c, 9, 36, 100
6, 151440, Note_on_c, 9, 40, 100
6, 151500, Note_on_c, 9, 40, 0
6, 151500, Note_on_c, 9, 36, 0
6, 151800, Note_on_c, 9, 40, 100
6, 151860, Note_on_c, 9, 40, 0
6, 151920, Note_on_c, 9, 51, 100
6, 151920, Note_on_c, 9, 36, 100
6, 151980, Note_on_c, 9, 36, 0
6, 151980, Note_on_c, 9, 51, 0
6, 152400, Note_on_c, 9, 51, 100
6, 152400, Note_on_c, 9, 36, 100
6, 152460, Note_on_c, 9, 36, 0
6, 152460, Note_on_c, 9, 51, 0
6, 152880, Note_on_c, 9, 51, 100
6, 152880, Note_on_c, 9, 36, 100
6, 152940, Note_on_c, 9, 36, 0
6, 152940, Note_on_c, 9, 51, 0
6, 153360, Note_on_c, 9, 51, 100
6, 153360, Note_on_c, 9, 36, 100
6, 153420, Note_on_c, 9, 36, 0
6, 153420, Note_on_c, 9, 51, 0
6, 153840, Note_on_c, 9, 36, 100
6, 153900, Note_on_c, 9, 36, 0
6, 154320, Note_on_c, 9, 40, 100
6, 154320, Note_on_c, 9, 36, 100
6, 154380, Note_on_c, 9, 36, 0
6, 154380, Note_on_c, 9, 40, 0
6, 154800, Note_on_c, 9, 36, 100
6, 154860, Note_on_c, 9, 36, 0
6, 155040, Note_on_c, 9, 40, 100
6, 155100, Note_on_c, 9, 40, 0
6, 155160, Note_on_c, 9, 40, 100
6, 155220, Note_on_c, 9, 40, 0
6, 155280, Note_on_c, 9, 40, 100
6, 155280, Note_on_c, 9, 36, 100
6, 155340, Note_on_c, 9, 36, 0
6, 155340, Note_on_c, 9, 40, 0
6, 155400, Note_on_c, 9, 40, 100
6, 155460, Note_on_c, 9, 40, 0
6, 155520, Note_on_c, 9, 40, 100
6, 155580, Note_on_c, 9, 40, 0
6, 155640, Note_on_c, 9, 40, 100
6, 155700, Note_on_c, 9, 40, 0
6, 155760, Note_on_c, 9, 36, 100
6, 155820, Note_on_c, 9, 36, 0
6, 156240, Note_on_c, 9, 40, 100
6, 156240, Note_on_c, 9, 36, 100
6, 156300, Note_on_c, 9, 36, 0
6, 156300, Note_on_c, 9, 40, 0
6, 156720, Note_on_c, 9, 36, 100
6, 156780, Note_on_c, 9, 36, 0
6, 157200, Note_on_c, 9, 40, 100
6, 157200, Note_on_c, 9, 36, 100
6, 157260, Note_on_c, 9, 36, 0
6, 157260, Note_on_c, 9, 40, 0
6, 157560, Note_on_c, 9, 40, 100
6, 157620, Note_on_c, 9, 40, 0
6, 157680, Note_on_c, 9, 36, 100
6, 157740, Note_on_c, 9, 36, 0
6, 158160, Note_on_c, 9, 40, 100
6, 158160, Note_on_c, 9, 36, 100
6, 158220, Note_on_c, 9, 36, 0
6, 158220, Note_on_c, 9, 40, 0
6, 158280, Note_on_c, 9, 40, 100
6, 158340, Note_on_c, 9, 40, 0
6, 158400, Note_on_c, 9, 40, 100
6, 158460, Note_on_c, 9, 40, 0
6, 158640, Note_on_c, 9, 36, 100
6, 158700, Note_on_c, 9, 36, 0
6, 159120, Note_on_c, 9, 40, 100
6, 159120, Note_on_c, 9, 36, 100
6, 159180, Note_on_c, 9, 36, 0
6, 159180, Note_on_c, 9, 40, 0
6, 159240, Note_on_c, 9, 40, 100
6, 159300, Note_on_c, 9, 40, 0
6, 159360, Note_on_c, 9, 40, 100
6, 159420, Note_on_c, 9, 40, 0
6, 159480, Note_on_c, 9, 40, 100
6, 159540, Note_on_c, 9, 40, 0
6, 159600, Note_on_c, 9, 36, 100
6, 159660, Note_on_c, 9, 36, 0
6, 160080, Note_on_c, 9, 40, 100
6, 160080, Note_on_c, 9, 36, 100
6, 160140, Note_on_c, 9, 36, 0
6, 160140, Note_on_c, 9, 40, 0
6, 160560, Note_on_c, 9, 40, 100
6, 160560, Note_on_c, 9, 36, 100
6, 160620, Note_on_c, 9, 36, 0
6, 160620, Note_on_c, 9, 40, 0
6, 160680, Note_on_c, 9, 40, 100
6, 160740, Note_on_c, 9, 40, 0
6, 161040, Note_on_c, 9, 40, 100
6, 161040, Note_on_c, 9, 36, 100
6, 161100, Note_on_c, 9, 36, 0
6, 161100, Note_on_c, 9, 40, 0
6, 161160, Note_on_c, 9, 40, 100
6, 161220, Note_on_c, 9, 40, 0
6, 161280, Note_on_c, 9, 40, 100
6, 161340, Note_on_c, 9, 40, 0
6, 161520, Note_on_c, 9, 40, 100
6, 161520, Note_on_c, 9, 36, 100
6, 161580, Note_on_c, 9, 36, 0
6, 161580, Note_on_c, 9, 40, 0
6, 161640, Note_on_c, 9, 40, 100
6, 161700, Note_on_c, 9, 40, 0
6, 161760, Note_on_c, 9, 40, 100
6, 161820, Note_on_c, 9, 40, 0
6, 161880, Note_on_c, 9, 40, 100
6, 161940, Note_on_c, 9, 40, 0
6, 162000, Note_on_c, 9, 36, 100
6, 162060, Note_on_c, 9, 36, 0
6, 162480, Note_on_c, 9, 40, 100
6, 162480, Note_on_c, 9, 36, 100
6, 162540, Note_on_c, 9, 36, 0
6, 162540, Note_on_c, 9, 40, 0
6, 162600, Note_on_c, 9, 40, 100
6, 162660, Note_on_c, 9, 40, 0
6, 162720, Note_on_c, 9, 40, 100
6, 162780, Note_on_c, 9, 40, 0
6, 162840, Note_on_c, 9, 40, 100
6, 162900, Note_on_c, 9, 40, 0
6, 162960, Note_on_c, 9, 40, 100
6, 162960, Note_on_c, 9, 36, 100
6, 163020, Note_on_c, 9, 36, 0
6, 163020, Note_on_c, 9, 40, 0
6, 163080, Note_on_c, 9, 40, 100
6, 163140, Note_on_c, 9, 40, 0
6, 163200, Note_on_c, 9, 40, 100
6, 163260, Note_on_c, 9, 40, 0
6, 163320, Note_on_c, 9, 40, 100
6, 163380, Note_on_c, 9, 40, 0
6, 163440, Note_on_c, 9, 36, 100
6, 163500, Note_on_c, 9, 36, 0
6, 163920, Note_on_c, 9, 40, 100
6, 163920, Note_on_c, 9, 36, 100
6, 163980, Note_on_c, 9, 36, 0
6, 163980, Note_on_c, 9, 40, 0
6, 164040, Note_on_c, 9, 40, 100
6, 164100, Note_on_c, 9, 40, 0
6, 164160, Note_on_c, 9, 40, 100
6, 164220, Note_on_c, 9, 40, 0
6, 164400, Note_on_c, 9, 36, 100
6, 164460, Note_on_c, 9, 36, 0
6, 164880, Note_on_c, 9, 40, 100
6, 164880, Note_on_c, 9, 36, 100
6, 164940, Note_on_c, 9, 36, 0
6, 164940, Note_on_c, 9, 40, 0
6, 165240, Note_on_c, 9, 40, 100
6, 165300, Note_on_c, 9, 40, 0
6, 165360, Note_on_c, 9, 36, 100
6, 165420, Note_on_c, 9, 36, 0
6, 165840, Note_on_c, 9, 40, 100
6, 165840, Note_on_c, 9, 36, 100
6, 165900, Note_on_c, 9, 36, 0
6, 165900, Note_on_c, 9, 40, 0
6, 166320, Note_on_c, 9, 40, 100
6, 166320, Note_on_c, 9, 36, 100
6, 166380, Note_on_c, 9, 36, 0
6, 166380, Note_on_c, 9, 40, 0
6, 166440, Note_on_c, 9, 40, 100
6, 166500, Note_on_c, 9, 40, 0
6, 166800, Note_on_c, 9, 40, 100
6, 166800, Note_on_c, 9, 36, 100
6, 166860, Note_on_c, 9, 36, 0
6, 166860, Note_on_c, 9, 40, 0
6, 167160, Note_on_c, 9, 40, 100
6, 167220, Note_on_c, 9, 40, 0
6, 167280, Note_on_c, 9, 59, 100
6, 167280, Note_on_c, 9, 36, 100
6, 167340, Note_on_c, 9, 36, 0
6, 167340, Note_on_c, 9, 59, 0
6, 167760, Note_on_c, 9, 59, 100
6, 167760, Note_on_c, 9, 36, 100
6, 167820, Note_on_c, 9, 36, 0
6, 167820, Note_on_c, 9, 59, 0
6, 168240, Note_on_c, 9, 59, 100
6, 168240, Note_on_c, 9, 36, 100
6, 168300, Note_on_c, 9, 36, 0
6, 168300, Note_on_c, 9, 59, 0
6, 168720, Note_on_c, 9, 59, 100
6, 168720, Note_on_c, 9, 36, 100
6, 168780, Note_on_c, 9, 36, 0
6, 168780, Note_on_c, 9, 59, 0
6, 169200, Note_on_c, 9, 51, 100
6, 169200, Note_on_c, 9, 36, 100
6, 169260, Note_on_c, 9, 36, 0
6, 169260, Note_on_c, 9, 51, 0
6, 169680, Note_on_c, 9, 51, 100
6, 169680, Note_on_c, 9, 36, 100
6, 169740, Note_on_c, 9, 36, 0
6, 169740, Note_on_c, 9, 51, 0
6, 170160, Note_on_c, 9, 51, 100
6, 170160, Note_on_c, 9, 36, 100
6, 170220, Note_on_c, 9, 36, 0
6, 170220, Note_on_c, 9, 51, 0
6, 170640, Note_on_c, 9, 51, 100
6, 170640, Note_on_c, 9, 36, 100
6, 170700, Note_on_c, 9, 36, 0
6, 170700, Note_on_c, 9, 51, 0
6, 171120, Note_on_c, 9, 59, 100
6, 171120, Note_on_c, 9, 36, 100
6, 171180, Note_on_c, 9, 36, 0
6, 171180, Note_on_c, 9, 59, 0
6, 171600, Note_on_c, 9, 59, 100
6, 171600, Note_on_c, 9, 36, 100
6, 171660, Note_on_c, 9, 36, 0
6, 171660, Note_on_c, 9, 59, 0
6, 172080, Note_on_c, 9, 59, 100
6, 172080, Note_on_c, 9, 36, 100
6, 172140, Note_on_c, 9, 36, 0
6, 172140, Note_on_c, 9, 59, 0
6, 172560, Note_on_c, 9, 59, 100
6, 172560, Note_on_c, 9, 36, 100
6, 172620, Note_on_c, 9, 36, 0
6, 172620, Note_on_c, 9, 59, 0
6, 173040, Note_on_c, 9, 59, 100
6, 173040, Note_on_c, 9, 36, 100
6, 173100, Note_on_c, 9, 36, 0
6, 173100, Note_on_c, 9, 59, 0
6, 173520, Note_on_c, 9, 59, 100
6, 173520, Note_on_c, 9, 36, 100
6, 173580, Note_on_c, 9, 36, 0
6, 173580, Note_on_c, 9, 59, 0
6, 174000, Note_on_c, 9, 40, 100
6, 174000, Note_on_c, 9, 36, 100
6, 174060, Note_on_c, 9, 36, 0
6, 174060, Note_on_c, 9, 40, 0
6, 174120, Note_on_c, 9, 40, 100
6, 174180, Note_on_c, 9, 40, 0
6, 174240, Note_on_c, 9, 40, 100
6, 174300, Note_on_c, 9, 40, 0
6, 174360, Note_on_c, 9, 40, 100
6, 174420, Note_on_c, 9, 40, 0
6, 174480, Note_on_c, 9, 36, 100
6, 174540, Note_on_c, 9, 36, 0
6, 174840, Note_on_c, 9, 40, 100
6, 174900, Note_on_c, 9, 40, 0
6, 174960, Note_on_c, 9, 59, 100
6, 174960, Note_on_c, 9, 36, 100
6, 175020, Note_on_c, 9, 36, 0
6, 175020, Note_on_c, 9, 59, 0
6, 175440, Note_on_c, 9, 59, 100
6, 175440, Note_on_c, 9, 36, 100
6, 175500, Note_on_c, 9, 36, 0
6, 175500, Note_on_c, 9, 59, 0
6, 175920, Note_on_c, 9, 59, 100
6, 175920, Note_on_c, 9, 36, 100
6, 175980, Note_on_c, 9, 36, 0
6, 175980, Note_on_c, 9, 59, 0
6, 176400, Note_on_c, 9, 59, 100
6, 176400, Note_on_c, 9, 36, 100
6, 176460, Note_on_c, 9, 36, 0
6, 176460, Note_on_c, 9, 59, 0
6, 176880, Note_on_c, 9, 51, 100
6, 176880, Note_on_c, 9, 36, 100
6, 176940, Note_on_c, 9, 36, 0
6, 176940, Note_on_c, 9, 51, 0
6, 177360, Note_on_c, 9, 51, 100
6, 177360, Note_on_c, 9, 36, 100
6, 177420, Note_on_c, 9, 36, 0
6, 177420, Note_on_c, 9, 51, 0
6, 177840, Note_on_c, 9, 51, 100
6, 177840, Note_on_c, 9, 36, 100
6, 177900, Note_on_c, 9, 36, 0
6, 177900, Note_on_c, 9, 51, 0
6, 178320, Note_on_c, 9, 40, 100
6, 178320, Note_on_c, 9, 36, 100
6, 178380, Note_on_c, 9, 36, 0
6, 178380, Note_on_c, 9, 40, 0
6, 178440, Note_on_c, 9, 40, 100
6, 178500, Note_on_c, 9, 40, 0
6, 178560, Note_on_c, 9, 40, 100
6, 178620, Note_on_c, 9, 40, 0
6, 178800, Note_on_c, 9, 51, 100
6, 178800, Note_on_c, 9, 36, 100
6, 178860, Note_on_c, 9, 36, 0
6, 178860, Note_on_c, 9, 51, 0
6, 179280, Note_on_c, 9, 51, 100
6, 179280, Note_on_c, 9, 36, 100
6, 179340, Note_on_c, 9, 36, 0
6, 179340, Note_on_c, 9, 51, 0
6, 179760, Note_on_c, 9, 36, 100
6, 179760, Note_on_c, 9, 51, 100
6, 179820, Note_on_c, 9, 51, 0
6, 179820, Note_on_c, 9, 36, 0
6, 180120, Note_on_c, 9, 40, 100
6, 180180, Note_on_c, 9, 40, 0
6, 180240, Note_on_c, 9, 40, 100
6, 180240, Note_on_c, 9, 36, 100
6, 180300, Note_on_c, 9, 36, 0
6, 180300, Note_on_c, 9, 40, 0
6, 180360, Note_on_c, 9, 40, 100
6, 180420, Note_on_c, 9, 40, 0
6, 180600, Note_on_c, 9, 40, 100
6, 180660, Note_on_c, 9, 40, 0
6, 180720, Note_on_c, 9, 36, 100
6, 180780, Note_on_c, 9, 36, 0
6, 181200, Note_on_c, 9, 40, 100
6, 181200, Note_on_c, 9, 36, 100
6, 181260, Note_on_c, 9, 36, 0
6, 181260, Note_on_c, 9, 40, 0
6, 181680, Note_on_c, 9, 36, 100
6, 181740, Note_on_c, 9, 36, 0
6, 182040, Note_on_c, 9, 40, 100
6, 182100, Note_on_c, 9, 40, 0
6, 182160, Note_on_c, 9, 40, 100
6, 182160, Note_on_c, 9, 36, 100
6, 182220, Note_on_c, 9, 36, 0
6, 182220, Note_on_c, 9, 40, 0
6, 182280, Note_on_c, 9, 40, 100
6, 182340, Note_on_c, 9, 40, 0
6, 182520, Note_on_c, 9, 40, 100
6, 182580, Note_on_c, 9, 40, 0
6, 182640, Note_on_c, 9, 36, 100
6, 182700, Note_on_c, 9, 36, 0
6, 184560, Note_on_c, 9, 36, 100
6, 184620, Note_on_c, 9, 36, 0
6, 184620, End_track
7, 0, Start_track
7, 0, MIDI_port, 0
7, 0, Title_t, "soundtrek4"
7, 0, End_track
8, 0, Start_track
8, 0, MIDI_port, 0
8, 0, Title_t, "@earthlink.net"
8, 0, End_track
0, 0, End_of_file
