0, 0, Header, 1, 28, 120
1, 0, Start_track
1, 0, Title_t, "Lenny Kravitz - Dig in"
1, 0, Time_signature, 4, 2, 24, 8
1, 0, Key_signature, 3, "major"
1, 0, Tempo, 508475
1, 6240, Key_signature, 6, "major"
1, 10080, Key_signature, 3, "major"
1, 17760, Key_signature, 6, "major"
1, 21600, Key_signature, 3, "major"
1, 21600, End_track
2, 0, Start_track
2, 0, MIDI_port, 0
2, 0, Control_c, 0, 0, 0
2, 0, Control_c, 0, 32, 0
2, 0, Program_c, 0, 33
2, 0, Control_c, 0, 7, 105
2, 0, Control_c, 0, 10, 64
2, 2, Control_c, 0, 1, 0
2, 4, Control_c, 0, 2, 0
2, 120, Control_c, 0, 11, 100
2, 120, Control_c, 0, 0, 0
2, 124, Control_c, 0, 101, 0
2, 124, Control_c, 0, 100, 0
2, 124, Control_c, 0, 6, 2
2, 124, Control_c, 0, 38, 0
2, 240, Control_c, 0, 120, 0
2, 243, Control_c, 0, 121, 0
2, 246, Control_c, 0, 123, 0
2, 255, Control_c, 0, 91, 25
2, 258, Control_c, 0, 93, 35
2, 2340, Note_on_c, 0, 33, 101
2, 2459, Note_on_c, 0, 33, 0
2, 2459, Note_on_c, 0, 33, 102
2, 2514, Note_on_c, 0, 33, 0
2, 2520, Note_on_c, 0, 33, 104
2, 2574, Note_on_c, 0, 33, 0
2, 2580, Note_on_c, 0, 33, 106
2, 2639, Note_on_c, 0, 33, 0
2, 2639, Note_on_c, 0, 33, 105
2, 2699, Note_on_c, 0, 33, 0
2, 2700, Note_on_c, 0, 33, 106
2, 2760, Note_on_c, 0, 33, 0
2, 2760, Note_on_c, 0, 33, 106
2, 2820, Note_on_c, 0, 33, 0
2, 2821, Note_on_c, 0, 35, 107
2, 2880, Note_on_c, 0, 35, 0
2, 2880, Note_on_c, 0, 35, 102
2, 2939, Note_on_c, 0, 35, 0
2, 2940, Note_on_c, 0, 35, 101
2, 3000, Note_on_c, 0, 35, 0
2, 3001, Note_on_c, 0, 35, 104
2, 3054, Note_on_c, 0, 35, 0
2, 3060, Note_on_c, 0, 35, 104
2, 3120, Note_on_c, 0, 35, 0
2, 3120, Note_on_c, 0, 35, 104
2, 3179, Note_on_c, 0, 35, 0
2, 3180, Note_on_c, 0, 35, 106
2, 3239, Note_on_c, 0, 35, 0
2, 3240, Note_on_c, 0, 35, 104
2, 3299, Note_on_c, 0, 35, 0
2, 3300, Note_on_c, 0, 38, 106
2, 3419, Note_on_c, 0, 38, 0
2, 3420, Note_on_c, 0, 38, 102
2, 3480, Note_on_c, 0, 38, 0
2, 3480, Note_on_c, 0, 38, 106
2, 3534, Note_on_c, 0, 38, 0
2, 3540, Note_on_c, 0, 38, 105
2, 3600, Note_on_c, 0, 38, 0
2, 3600, Note_on_c, 0, 38, 105
2, 3659, Note_on_c, 0, 38, 0
2, 3660, Note_on_c, 0, 38, 107
2, 3719, Note_on_c, 0, 38, 0
2, 3720, Note_on_c, 0, 38, 107
2, 3779, Note_on_c, 0, 38, 0
2, 3780, Note_on_c, 0, 38, 103
2, 3840, Note_on_c, 0, 38, 0
2, 3840, Note_on_c, 0, 38, 102
2, 3900, Note_on_c, 0, 38, 0
2, 3900, Note_on_c, 0, 38, 104
2, 3960, Note_on_c, 0, 38, 0
2, 3961, Note_on_c, 0, 38, 101
2, 4014, Note_on_c, 0, 38, 0
2, 4020, Note_on_c, 0, 38, 103
2, 4080, Note_on_c, 0, 38, 0
2, 4081, Note_on_c, 0, 38, 104
2, 4140, Note_on_c, 0, 38, 0
2, 4140, Note_on_c, 0, 38, 104
2, 4199, Note_on_c, 0, 38, 0
2, 4200, Note_on_c, 0, 38, 102
2, 4260, Note_on_c, 0, 38, 0
2, 4260, Note_on_c, 0, 33, 107
2, 4379, Note_on_c, 0, 33, 0
2, 4380, Note_on_c, 0, 33, 106
2, 4434, Note_on_c, 0, 33, 0
2, 4440, Note_on_c, 0, 33, 106
2, 4495, Note_on_c, 0, 33, 0
2, 4499, Note_on_c, 0, 33, 105
2, 4559, Note_on_c, 0, 33, 0
2, 4560, Note_on_c, 0, 33, 103
2, 4620, Note_on_c, 0, 33, 0
2, 4620, Note_on_c, 0, 33, 106
2, 4680, Note_on_c, 0, 33, 0
2, 4680, Note_on_c, 0, 33, 104
2, 4739, Note_on_c, 0, 33, 0
2, 4740, Note_on_c, 0, 35, 106
2, 4799, Note_on_c, 0, 35, 0
2, 4800, Note_on_c, 0, 35, 103
2, 4859, Note_on_c, 0, 35, 0
2, 4860, Note_on_c, 0, 35, 105
2, 4920, Note_on_c, 0, 35, 0
2, 4921, Note_on_c, 0, 35, 106
2, 4975, Note_on_c, 0, 35, 0
2, 4980, Note_on_c, 0, 35, 101
2, 5039, Note_on_c, 0, 35, 0
2, 5040, Note_on_c, 0, 35, 104
2, 5099, Note_on_c, 0, 35, 0
2, 5100, Note_on_c, 0, 35, 101
2, 5160, Note_on_c, 0, 35, 0
2, 5160, Note_on_c, 0, 35, 107
2, 5219, Note_on_c, 0, 35, 0
2, 5220, Note_on_c, 0, 38, 101
2, 5340, Note_on_c, 0, 38, 0
2, 5341, Note_on_c, 0, 38, 106
2, 5399, Note_on_c, 0, 38, 0
2, 5400, Note_on_c, 0, 38, 104
2, 5455, Note_on_c, 0, 38, 0
2, 5459, Note_on_c, 0, 38, 106
2, 5520, Note_on_c, 0, 38, 0
2, 5521, Note_on_c, 0, 38, 105
2, 5579, Note_on_c, 0, 38, 0
2, 5579, Note_on_c, 0, 38, 103
2, 5639, Note_on_c, 0, 38, 0
2, 5639, Note_on_c, 0, 38, 101
2, 5700, Note_on_c, 0, 38, 0
2, 5701, Note_on_c, 0, 38, 106
2, 5759, Note_on_c, 0, 38, 0
2, 5760, Note_on_c, 0, 38, 101
2, 5819, Note_on_c, 0, 38, 0
2, 5819, Note_on_c, 0, 38, 103
2, 5879, Note_on_c, 0, 38, 0
2, 5879, Note_on_c, 0, 38, 102
2, 5934, Note_on_c, 0, 38, 0
2, 5940, Note_on_c, 0, 38, 106
2, 6000, Note_on_c, 0, 38, 0
2, 6000, Note_on_c, 0, 38, 101
2, 6060, Note_on_c, 0, 38, 0
2, 6060, Note_on_c, 0, 38, 105
2, 6120, Note_on_c, 0, 38, 0
2, 6120, Note_on_c, 0, 28, 101
2, 6179, Note_on_c, 0, 28, 0
2, 6180, Note_on_c, 0, 30, 102
2, 6299, Note_on_c, 0, 30, 0
2, 6300, Note_on_c, 0, 30, 103
2, 6360, Note_on_c, 0, 30, 0
2, 6360, Note_on_c, 0, 30, 105
2, 6449, Note_on_c, 0, 30, 0
2, 6540, Note_on_c, 0, 35, 102
2, 6600, Note_on_c, 0, 35, 0
2, 6660, Note_on_c, 0, 30, 101
2, 6780, Note_on_c, 0, 30, 0
2, 6781, Note_on_c, 0, 30, 102
2, 6839, Note_on_c, 0, 30, 0
2, 6840, Note_on_c, 0, 30, 104
2, 6930, Note_on_c, 0, 30, 0
2, 7020, Note_on_c, 0, 28, 106
2, 7079, Note_on_c, 0, 28, 0
2, 7139, Note_on_c, 0, 30, 107
2, 7260, Note_on_c, 0, 30, 0
2, 7261, Note_on_c, 0, 30, 103
2, 7320, Note_on_c, 0, 30, 0
2, 7320, Note_on_c, 0, 30, 102
2, 7410, Note_on_c, 0, 30, 0
2, 7500, Note_on_c, 0, 35, 105
2, 7559, Note_on_c, 0, 35, 0
2, 7620, Note_on_c, 0, 30, 106
2, 7740, Note_on_c, 0, 30, 0
2, 7741, Note_on_c, 0, 30, 102
2, 7800, Note_on_c, 0, 30, 0
2, 7800, Note_on_c, 0, 30, 103
2, 7890, Note_on_c, 0, 30, 0
2, 7980, Note_on_c, 0, 28, 104
2, 8039, Note_on_c, 0, 28, 0
2, 8099, Note_on_c, 0, 30, 105
2, 8219, Note_on_c, 0, 30, 0
2, 8220, Note_on_c, 0, 30, 105
2, 8279, Note_on_c, 0, 30, 0
2, 8280, Note_on_c, 0, 30, 105
2, 8370, Note_on_c, 0, 30, 0
2, 8460, Note_on_c, 0, 35, 107
2, 8519, Note_on_c, 0, 35, 0
2, 8579, Note_on_c, 0, 30, 101
2, 8699, Note_on_c, 0, 30, 0
2, 8700, Note_on_c, 0, 30, 101
2, 8760, Note_on_c, 0, 30, 0
2, 8761, Note_on_c, 0, 30, 103
2, 8849, Note_on_c, 0, 30, 0
2, 8940, Note_on_c, 0, 28, 101
2, 9000, Note_on_c, 0, 28, 0
2, 9060, Note_on_c, 0, 30, 104
2, 9179, Note_on_c, 0, 30, 0
2, 9179, Note_on_c, 0, 30, 104
2, 9240, Note_on_c, 0, 30, 0
2, 9240, Note_on_c, 0, 30, 102
2, 9330, Note_on_c, 0, 30, 0
2, 9419, Note_on_c, 0, 35, 101
2, 9479, Note_on_c, 0, 35, 0
2, 9540, Note_on_c, 0, 30, 107
2, 9659, Note_on_c, 0, 30, 0
2, 9659, Note_on_c, 0, 30, 101
2, 9720, Note_on_c, 0, 30, 0
2, 9720, Note_on_c, 0, 30, 105
2, 9809, Note_on_c, 0, 30, 0
2, 9840, Note_on_c, 0, 30, 103
2, 9899, Note_on_c, 0, 30, 0
2, 9900, Note_on_c, 0, 30, 101
2, 9959, Note_on_c, 0, 30, 0
2, 9959, Note_on_c, 0, 28, 104
2, 10019, Note_on_c, 0, 28, 0
2, 10020, Note_on_c, 0, 38, 101
2, 10139, Note_on_c, 0, 38, 0
2, 10140, Note_on_c, 0, 38, 105
2, 10199, Note_on_c, 0, 38, 0
2, 10199, Note_on_c, 0, 38, 105
2, 10255, Note_on_c, 0, 38, 0
2, 10260, Note_on_c, 0, 38, 102
2, 10319, Note_on_c, 0, 38, 0
2, 10320, Note_on_c, 0, 38, 106
2, 10380, Note_on_c, 0, 38, 0
2, 10381, Note_on_c, 0, 38, 103
2, 10440, Note_on_c, 0, 38, 0
2, 10441, Note_on_c, 0, 33, 103
2, 10500, Note_on_c, 0, 33, 0
2, 10501, Note_on_c, 0, 33, 105
2, 10620, Note_on_c, 0, 33, 0
2, 10620, Note_on_c, 0, 33, 102
2, 10679, Note_on_c, 0, 33, 0
2, 10679, Note_on_c, 0, 35, 102
2, 10739, Pitch_bend_c, 0, 16383
2, 10799, Note_on_c, 0, 35, 0
2, 10800, Pitch_bend_c, 0, 8192
2, 10800, Note_on_c, 0, 40, 102
2, 10860, Pitch_bend_c, 0, 16383
2, 10920, Note_on_c, 0, 40, 0
2, 10921, Pitch_bend_c, 0, 8192
2, 10921, Note_on_c, 0, 40, 102
2, 10980, Note_on_c, 0, 40, 0
2, 10980, Note_on_c, 0, 38, 104
2, 11040, Note_on_c, 0, 38, 0
2, 11040, Note_on_c, 0, 38, 101
2, 11100, Note_on_c, 0, 38, 0
2, 11101, Note_on_c, 0, 38, 101
2, 11160, Note_on_c, 0, 38, 0
2, 11161, Note_on_c, 0, 38, 102
2, 11214, Note_on_c, 0, 38, 0
2, 11219, Note_on_c, 0, 38, 105
2, 11280, Note_on_c, 0, 38, 0
2, 11280, Note_on_c, 0, 38, 101
2, 11339, Note_on_c, 0, 38, 0
2, 11340, Note_on_c, 0, 38, 106
2, 11400, Note_on_c, 0, 38, 0
2, 11400, Note_on_c, 0, 33, 106
2, 11459, Note_on_c, 0, 33, 0
2, 11460, Note_on_c, 0, 33, 105
2, 11580, Note_on_c, 0, 33, 0
2, 11581, Note_on_c, 0, 33, 106
2, 11640, Note_on_c, 0, 33, 0
2, 11641, Note_on_c, 0, 35, 104
2, 11699, Pitch_bend_c, 0, 16383
2, 11759, Note_on_c, 0, 35, 0
2, 11759, Pitch_bend_c, 0, 8192
2, 11759, Note_on_c, 0, 40, 101
2, 11819, Pitch_bend_c, 0, 16383
2, 11879, Note_on_c, 0, 40, 0
2, 11880, Pitch_bend_c, 0, 8192
2, 11880, Note_on_c, 0, 40, 104
2, 11939, Note_on_c, 0, 40, 0
2, 11940, Note_on_c, 0, 38, 106
2, 12059, Note_on_c, 0, 38, 0
2, 12059, Note_on_c, 0, 38, 107
2, 12119, Note_on_c, 0, 38, 0
2, 12120, Note_on_c, 0, 38, 101
2, 12120, Note_on_c, 0, 38, 103
2, 12174, Note_on_c, 0, 38, 0
2, 12179, Note_on_c, 0, 38, 0
2, 12180, Note_on_c, 0, 38, 105
2, 12239, Note_on_c, 0, 38, 0
2, 12240, Note_on_c, 0, 38, 101
2, 12300, Note_on_c, 0, 38, 0
2, 12301, Note_on_c, 0, 38, 107
2, 12360, Note_on_c, 0, 38, 0
2, 12360, Note_on_c, 0, 38, 103
2, 12420, Note_on_c, 0, 38, 0
2, 12421, Note_on_c, 0, 39, 102
2, 12480, Note_on_c, 0, 39, 0
2, 12480, Note_on_c, 0, 39, 107
2, 12539, Note_on_c, 0, 39, 0
2, 12540, Note_on_c, 0, 39, 106
2, 12599, Note_on_c, 0, 39, 0
2, 12600, Note_on_c, 0, 39, 104
2, 12600, Note_on_c, 0, 39, 107
2, 12660, Note_on_c, 0, 39, 0
2, 12661, Note_on_c, 0, 39, 0
2, 12661, Note_on_c, 0, 39, 106
2, 12719, Note_on_c, 0, 39, 0
2, 12720, Note_on_c, 0, 39, 101
2, 12780, Note_on_c, 0, 39, 0
2, 12781, Note_on_c, 0, 39, 103
2, 12840, Note_on_c, 0, 39, 0
2, 12840, Note_on_c, 0, 39, 102
2, 12899, Note_on_c, 0, 39, 0
2, 12900, Note_on_c, 0, 40, 105
2, 13019, Note_on_c, 0, 40, 0
2, 13020, Note_on_c, 0, 40, 106
2, 13079, Note_on_c, 0, 40, 0
2, 13080, Note_on_c, 0, 40, 103
2, 13080, Note_on_c, 0, 40, 101
2, 13135, Note_on_c, 0, 40, 0
2, 13140, Note_on_c, 0, 40, 0
2, 13140, Note_on_c, 0, 40, 107
2, 13200, Note_on_c, 0, 40, 0
2, 13200, Note_on_c, 0, 40, 101
2, 13260, Note_on_c, 0, 40, 0
2, 13260, Note_on_c, 0, 40, 104
2, 13319, Note_on_c, 0, 40, 0
2, 13320, Control_c, 0, 101, 0
2, 13320, Control_c, 0, 100, 0
2, 13320, Control_c, 0, 6, 6
2, 13320, Control_c, 0, 38, 0
2, 13320, Note_on_c, 0, 40, 106
2, 13379, Note_on_c, 0, 40, 0
2, 13380, Note_on_c, 0, 40, 101
2, 13440, Pitch_bend_c, 0, 8192
2, 13441, Pitch_bend_c, 0, 8100
2, 13442, Pitch_bend_c, 0, 8009
2, 13443, Pitch_bend_c, 0, 7918
2, 13444, Pitch_bend_c, 0, 7827
2, 13445, Pitch_bend_c, 0, 7736
2, 13446, Pitch_bend_c, 0, 7645
2, 13447, Pitch_bend_c, 0, 7554
2, 13448, Pitch_bend_c, 0, 7463
2, 13449, Pitch_bend_c, 0, 7372
2, 13450, Pitch_bend_c, 0, 7281
2, 13451, Pitch_bend_c, 0, 7190
2, 13452, Pitch_bend_c, 0, 7099
2, 13453, Pitch_bend_c, 0, 7008
2, 13454, Pitch_bend_c, 0, 6917
2, 13455, Pitch_bend_c, 0, 6826
2, 13456, Pitch_bend_c, 0, 6735
2, 13457, Pitch_bend_c, 0, 6644
2, 13458, Pitch_bend_c, 0, 6553
2, 13459, Pitch_bend_c, 0, 6462
2, 13460, Pitch_bend_c, 0, 6371
2, 13461, Pitch_bend_c, 0, 6280
2, 13462, Pitch_bend_c, 0, 6189
2, 13463, Pitch_bend_c, 0, 6098
2, 13464, Pitch_bend_c, 0, 6007
2, 13465, Pitch_bend_c, 0, 5916
2, 13466, Pitch_bend_c, 0, 5825
2, 13467, Pitch_bend_c, 0, 5734
2, 13468, Pitch_bend_c, 0, 5643
2, 13469, Pitch_bend_c, 0, 5552
2, 13470, Pitch_bend_c, 0, 5461
2, 13471, Pitch_bend_c, 0, 5370
2, 13472, Pitch_bend_c, 0, 5279
2, 13473, Pitch_bend_c, 0, 5188
2, 13474, Pitch_bend_c, 0, 5097
2, 13475, Pitch_bend_c, 0, 5006
2, 13476, Pitch_bend_c, 0, 4915
2, 13477, Pitch_bend_c, 0, 4824
2, 13478, Pitch_bend_c, 0, 4733
2, 13479, Pitch_bend_c, 0, 4642
2, 13480, Pitch_bend_c, 0, 4551
2, 13481, Pitch_bend_c, 0, 4460
2, 13482, Pitch_bend_c, 0, 4369
2, 13483, Pitch_bend_c, 0, 4278
2, 13484, Pitch_bend_c, 0, 4187
2, 13485, Pitch_bend_c, 0, 4096
2, 13486, Pitch_bend_c, 0, 4005
2, 13487, Pitch_bend_c, 0, 3914
2, 13488, Pitch_bend_c, 0, 3823
2, 13489, Pitch_bend_c, 0, 3732
2, 13490, Pitch_bend_c, 0, 3641
2, 13491, Pitch_bend_c, 0, 3550
2, 13492, Pitch_bend_c, 0, 3459
2, 13493, Pitch_bend_c, 0, 3368
2, 13494, Pitch_bend_c, 0, 3277
2, 13495, Pitch_bend_c, 0, 3186
2, 13496, Pitch_bend_c, 0, 3095
2, 13497, Pitch_bend_c, 0, 3004
2, 13498, Pitch_bend_c, 0, 2913
2, 13499, Pitch_bend_c, 0, 2822
2, 13500, Pitch_bend_c, 0, 2731
2, 13501, Pitch_bend_c, 0, 2640
2, 13502, Pitch_bend_c, 0, 2549
2, 13503, Pitch_bend_c, 0, 2458
2, 13504, Pitch_bend_c, 0, 2367
2, 13505, Pitch_bend_c, 0, 2276
2, 13506, Pitch_bend_c, 0, 2185
2, 13507, Pitch_bend_c, 0, 2094
2, 13508, Pitch_bend_c, 0, 2003
2, 13509, Pitch_bend_c, 0, 1912
2, 13510, Pitch_bend_c, 0, 1821
2, 13511, Pitch_bend_c, 0, 1730
2, 13512, Pitch_bend_c, 0, 1639
2, 13513, Pitch_bend_c, 0, 1548
2, 13514, Pitch_bend_c, 0, 1457
2, 13515, Pitch_bend_c, 0, 1366
2, 13516, Pitch_bend_c, 0, 1275
2, 13517, Pitch_bend_c, 0, 1184
2, 13518, Pitch_bend_c, 0, 1093
2, 13519, Pitch_bend_c, 0, 1002
2, 13520, Pitch_bend_c, 0, 911
2, 13521, Pitch_bend_c, 0, 820
2, 13522, Pitch_bend_c, 0, 729
2, 13523, Pitch_bend_c, 0, 638
2, 13524, Pitch_bend_c, 0, 547
2, 13525, Pitch_bend_c, 0, 456
2, 13526, Pitch_bend_c, 0, 365
2, 13527, Pitch_bend_c, 0, 274
2, 13528, Pitch_bend_c, 0, 183
2, 13529, Note_on_c, 0, 40, 0
2, 13529, Pitch_bend_c, 0, 92
2, 13530, Pitch_bend_c, 0, 1
2, 13800, Control_c, 0, 101, 0
2, 13800, Control_c, 0, 100, 0
2, 13800, Control_c, 0, 6, 2
2, 13800, Control_c, 0, 38, 0
2, 13860, Pitch_bend_c, 0, 8192
2, 13860, Note_on_c, 0, 33, 101
2, 13980, Note_on_c, 0, 33, 0
2, 13981, Note_on_c, 0, 33, 106
2, 14035, Note_on_c, 0, 33, 0
2, 14040, Note_on_c, 0, 33, 106
2, 14095, Note_on_c, 0, 33, 0
2, 14099, Note_on_c, 0, 33, 104
2, 14159, Note_on_c, 0, 33, 0
2, 14160, Note_on_c, 0, 33, 105
2, 14220, Note_on_c, 0, 33, 0
2, 14221, Note_on_c, 0, 33, 107
2, 14280, Note_on_c, 0, 33, 0
2, 14281, Note_on_c, 0, 33, 105
2, 14340, Note_on_c, 0, 33, 0
2, 14340, Note_on_c, 0, 35, 101
2, 14400, Note_on_c, 0, 35, 0
2, 14401, Note_on_c, 0, 35, 106
2, 14460, Note_on_c, 0, 35, 0
2, 14460, Note_on_c, 0, 35, 105
2, 14519, Note_on_c, 0, 35, 0
2, 14520, Note_on_c, 0, 35, 103
2, 14575, Note_on_c, 0, 35, 0
2, 14579, Note_on_c, 0, 35, 106
2, 14639, Note_on_c, 0, 35, 0
2, 14640, Note_on_c, 0, 35, 103
2, 14699, Note_on_c, 0, 35, 0
2, 14700, Note_on_c, 0, 35, 106
2, 14760, Note_on_c, 0, 35, 0
2, 14760, Note_on_c, 0, 28, 104
2, 14819, Note_on_c, 0, 28, 0
2, 14819, Note_on_c, 0, 38, 104
2, 14939, Note_on_c, 0, 38, 0
2, 14940, Note_on_c, 0, 38, 102
2, 14999, Note_on_c, 0, 38, 0
2, 14999, Note_on_c, 0, 38, 101
2, 15054, Note_on_c, 0, 38, 0
2, 15060, Note_on_c, 0, 38, 107
2, 15120, Note_on_c, 0, 38, 0
2, 15120, Note_on_c, 0, 38, 104
2, 15180, Note_on_c, 0, 38, 0
2, 15181, Note_on_c, 0, 38, 105
2, 15239, Note_on_c, 0, 38, 0
2, 15240, Note_on_c, 0, 38, 106
2, 15299, Note_on_c, 0, 38, 0
2, 15300, Note_on_c, 0, 38, 107
2, 15360, Note_on_c, 0, 38, 0
2, 15360, Note_on_c, 0, 38, 107
2, 15419, Note_on_c, 0, 38, 0
2, 15420, Note_on_c, 0, 38, 101
2, 15480, Note_on_c, 0, 38, 0
2, 15481, Note_on_c, 0, 38, 105
2, 15534, Note_on_c, 0, 38, 0
2, 15540, Note_on_c, 0, 38, 105
2, 15600, Note_on_c, 0, 38, 0
2, 15601, Note_on_c, 0, 38, 105
2, 15659, Note_on_c, 0, 38, 0
2, 15659, Note_on_c, 0, 38, 106
2, 15719, Note_on_c, 0, 38, 0
2, 15720, Note_on_c, 0, 28, 106
2, 15779, Note_on_c, 0, 28, 0
2, 15780, Note_on_c, 0, 33, 103
2, 15900, Note_on_c, 0, 33, 0
2, 15900, Note_on_c, 0, 33, 104
2, 15955, Note_on_c, 0, 33, 0
2, 15960, Note_on_c, 0, 33, 101
2, 16014, Note_on_c, 0, 33, 0
2, 16019, Note_on_c, 0, 33, 105
2, 16079, Note_on_c, 0, 33, 0
2, 16080, Note_on_c, 0, 33, 104
2, 16139, Note_on_c, 0, 33, 0
2, 16140, Note_on_c, 0, 33, 101
2, 16200, Note_on_c, 0, 33, 0
2, 16201, Note_on_c, 0, 33, 103
2, 16260, Note_on_c, 0, 33, 0
2, 16260, Note_on_c, 0, 35, 103
2, 16319, Note_on_c, 0, 35, 0
2, 16320, Note_on_c, 0, 35, 101
2, 16379, Note_on_c, 0, 35, 0
2, 16380, Note_on_c, 0, 35, 101
2, 16439, Note_on_c, 0, 35, 0
2, 16440, Note_on_c, 0, 35, 106
2, 16494, Note_on_c, 0, 35, 0
2, 16500, Note_on_c, 0, 35, 105
2, 16560, Note_on_c, 0, 35, 0
2, 16560, Note_on_c, 0, 35, 107
2, 16620, Note_on_c, 0, 35, 0
2, 16620, Note_on_c, 0, 35, 107
2, 16679, Note_on_c, 0, 35, 0
2, 16680, Note_on_c, 0, 28, 106
2, 16739, Note_on_c, 0, 28, 0
2, 16740, Note_on_c, 0, 38, 103
2, 16859, Note_on_c, 0, 38, 0
2, 16860, Note_on_c, 0, 38, 103
2, 16919, Note_on_c, 0, 38, 0
2, 16920, Note_on_c, 0, 38, 105
2, 16974, Note_on_c, 0, 38, 0
2, 16980, Note_on_c, 0, 38, 107
2, 17039, Note_on_c, 0, 38, 0
2, 17040, Note_on_c, 0, 38, 102
2, 17099, Note_on_c, 0, 38, 0
2, 17100, Note_on_c, 0, 38, 104
2, 17159, Note_on_c, 0, 38, 0
2, 17159, Note_on_c, 0, 38, 105
2, 17220, Note_on_c, 0, 38, 0
2, 17221, Note_on_c, 0, 38, 105
2, 17279, Note_on_c, 0, 38, 0
2, 17279, Note_on_c, 0, 38, 104
2, 17339, Note_on_c, 0, 38, 0
2, 17340, Note_on_c, 0, 38, 106
2, 17399, Note_on_c, 0, 38, 0
2, 17400, Note_on_c, 0, 38, 101
2, 17455, Note_on_c, 0, 38, 0
2, 17459, Note_on_c, 0, 38, 101
2, 17519, Note_on_c, 0, 38, 0
2, 17520, Note_on_c, 0, 38, 101
2, 17579, Note_on_c, 0, 38, 0
2, 17580, Note_on_c, 0, 38, 107
2, 17639, Note_on_c, 0, 38, 0
2, 17640, Note_on_c, 0, 28, 101
2, 17700, Note_on_c, 0, 28, 0
2, 17700, Note_on_c, 0, 30, 106
2, 17819, Note_on_c, 0, 30, 0
2, 17820, Note_on_c, 0, 30, 102
2, 17879, Note_on_c, 0, 30, 0
2, 17879, Note_on_c, 0, 30, 101
2, 17970, Note_on_c, 0, 30, 0
2, 18060, Note_on_c, 0, 35, 104
2, 18119, Note_on_c, 0, 35, 0
2, 18179, Note_on_c, 0, 30, 106
2, 18300, Note_on_c, 0, 30, 0
2, 18301, Note_on_c, 0, 30, 102
2, 18360, Note_on_c, 0, 30, 0
2, 18360, Note_on_c, 0, 30, 106
2, 18449, Note_on_c, 0, 30, 0
2, 18540, Note_on_c, 0, 28, 106
2, 18600, Note_on_c, 0, 28, 0
2, 18659, Note_on_c, 0, 30, 103
2, 18780, Note_on_c, 0, 30, 0
2, 18781, Note_on_c, 0, 30, 105
2, 18840, Note_on_c, 0, 30, 0
2, 18840, Note_on_c, 0, 30, 106
2, 18930, Note_on_c, 0, 30, 0
2, 19020, Note_on_c, 0, 35, 101
2, 19080, Note_on_c, 0, 35, 0
2, 19140, Note_on_c, 0, 30, 102
2, 19260, Note_on_c, 0, 30, 0
2, 19260, Note_on_c, 0, 30, 106
2, 19319, Note_on_c, 0, 30, 0
2, 19319, Note_on_c, 0, 30, 101
2, 19409, Note_on_c, 0, 30, 0
2, 19440, Note_on_c, 0, 42, 105
2, 19464, Note_on_c, 0, 42, 0
2, 19470, Note_on_c, 0, 40, 106
2, 19495, Note_on_c, 0, 40, 0
2, 19499, Note_on_c, 0, 37, 105
2, 19560, Note_on_c, 0, 37, 0
2, 19560, Note_on_c, 0, 33, 105
2, 19619, Note_on_c, 0, 33, 0
2, 19620, Note_on_c, 0, 30, 107
2, 19740, Note_on_c, 0, 30, 0
2, 19740, Note_on_c, 0, 30, 102
2, 19799, Note_on_c, 0, 30, 0
2, 19800, Note_on_c, 0, 30, 106
2, 19889, Note_on_c, 0, 30, 0
2, 19980, Note_on_c, 0, 35, 102
2, 20039, Note_on_c, 0, 35, 0
2, 20100, Note_on_c, 0, 30, 107
2, 20220, Note_on_c, 0, 30, 0
2, 20221, Note_on_c, 0, 30, 105
2, 20279, Note_on_c, 0, 30, 0
2, 20280, Note_on_c, 0, 30, 106
2, 20369, Note_on_c, 0, 30, 0
2, 20460, Note_on_c, 0, 28, 106
2, 20519, Note_on_c, 0, 28, 0
2, 20580, Note_on_c, 0, 30, 101
2, 20699, Note_on_c, 0, 30, 0
2, 20700, Note_on_c, 0, 30, 101
2, 20760, Note_on_c, 0, 30, 0
2, 20760, Note_on_c, 0, 30, 104
2, 20849, Note_on_c, 0, 30, 0
2, 20940, Note_on_c, 0, 35, 103
2, 20999, Note_on_c, 0, 35, 0
2, 21060, Note_on_c, 0, 30, 106
2, 21180, Note_on_c, 0, 30, 0
2, 21181, Note_on_c, 0, 30, 102
2, 21240, Note_on_c, 0, 30, 0
2, 21241, Note_on_c, 0, 30, 103
2, 21300, Note_on_c, 0, 30, 0
2, 21301, Note_on_c, 0, 30, 104
2, 21359, Note_on_c, 0, 30, 0
2, 21360, Note_on_c, 0, 30, 102
2, 21419, Note_on_c, 0, 30, 0
2, 21419, Note_on_c, 0, 30, 102
2, 21479, Note_on_c, 0, 30, 0
2, 21480, Note_on_c, 0, 28, 107
2, 21540, Note_on_c, 0, 28, 0
2, 21541, Note_on_c, 0, 38, 106
2, 21660, Note_on_c, 0, 38, 0
2, 21660, Note_on_c, 0, 38, 105
2, 21719, Note_on_c, 0, 38, 0
2, 21720, Note_on_c, 0, 38, 106
2, 21775, Note_on_c, 0, 38, 0
2, 21780, Note_on_c, 0, 38, 104
2, 21840, Note_on_c, 0, 38, 0
2, 21841, Note_on_c, 0, 38, 106
2, 21900, Note_on_c, 0, 38, 0
2, 21901, Note_on_c, 0, 38, 105
2, 21960, Note_on_c, 0, 38, 0
2, 21960, Note_on_c, 0, 33, 107
2, 22019, Note_on_c, 0, 33, 0
2, 22020, Note_on_c, 0, 33, 107
2, 22140, Note_on_c, 0, 33, 0
2, 22140, Note_on_c, 0, 33, 106
2, 22199, Note_on_c, 0, 33, 0
2, 22200, Note_on_c, 0, 35, 105
2, 22259, Pitch_bend_c, 0, 12192
2, 22319, Note_on_c, 0, 35, 0
2, 22320, Pitch_bend_c, 0, 8192
2, 22320, Note_on_c, 0, 40, 101
2, 22380, Pitch_bend_c, 0, 16383
2, 22439, Note_on_c, 0, 40, 0
2, 22440, Pitch_bend_c, 0, 8192
2, 22440, Note_on_c, 0, 40, 106
2, 22499, Note_on_c, 0, 40, 0
2, 22500, Note_on_c, 0, 38, 102
2, 22560, Note_on_c, 0, 38, 0
2, 22560, Note_on_c, 0, 38, 106
2, 22619, Note_on_c, 0, 38, 0
2, 22620, Note_on_c, 0, 38, 102
2, 22680, Note_on_c, 0, 38, 0
2, 22680, Note_on_c, 0, 38, 107
2, 22735, Note_on_c, 0, 38, 0
2, 22739, Note_on_c, 0, 38, 101
2, 22799, Note_on_c, 0, 38, 0
2, 22800, Note_on_c, 0, 38, 101
2, 22859, Note_on_c, 0, 38, 0
2, 22859, Note_on_c, 0, 38, 104
2, 22920, Note_on_c, 0, 38, 0
2, 22921, Note_on_c, 0, 33, 107
2, 22979, Note_on_c, 0, 33, 0
2, 22980, Note_on_c, 0, 45, 106
2, 23099, Note_on_c, 0, 45, 0
2, 23100, Note_on_c, 0, 33, 103
2, 23160, Note_on_c, 0, 33, 0
2, 23161, Note_on_c, 0, 35, 107
2, 23220, Pitch_bend_c, 0, 16383
2, 23280, Note_on_c, 0, 35, 0
2, 23280, Pitch_bend_c, 0, 8192
2, 23280, Note_on_c, 0, 40, 105
2, 23340, Pitch_bend_c, 0, 16383
2, 23399, Note_on_c, 0, 40, 0
2, 23400, Pitch_bend_c, 0, 8192
2, 23400, Note_on_c, 0, 40, 102
2, 23459, Note_on_c, 0, 40, 0
2, 23460, Note_on_c, 0, 38, 105
2, 23579, Note_on_c, 0, 38, 0
2, 23580, Note_on_c, 0, 38, 104
2, 23639, Note_on_c, 0, 38, 0
2, 23640, Note_on_c, 0, 38, 103
2, 23640, Note_on_c, 0, 38, 105
2, 23694, Note_on_c, 0, 38, 0
2, 23699, Note_on_c, 0, 38, 0
2, 23700, Note_on_c, 0, 38, 103
2, 23759, Note_on_c, 0, 38, 0
2, 23760, Note_on_c, 0, 38, 104
2, 23820, Note_on_c, 0, 38, 0
2, 23820, Note_on_c, 0, 38, 103
2, 23879, Note_on_c, 0, 38, 0
2, 23880, Note_on_c, 0, 38, 101
2, 23939, Note_on_c, 0, 38, 0
2, 23940, Note_on_c, 0, 39, 104
2, 24000, Note_on_c, 0, 39, 0
2, 24000, Note_on_c, 0, 39, 101
2, 24060, Note_on_c, 0, 39, 0
2, 24060, Note_on_c, 0, 39, 107
2, 24119, Note_on_c, 0, 39, 0
2, 24120, Note_on_c, 0, 39, 105
2, 24120, Note_on_c, 0, 39, 103
2, 24179, Note_on_c, 0, 39, 0
2, 24180, Note_on_c, 0, 39, 0
2, 24181, Note_on_c, 0, 39, 101
2, 24240, Note_on_c, 0, 39, 0
2, 24241, Note_on_c, 0, 39, 107
2, 24300, Note_on_c, 0, 39, 0
2, 24300, Note_on_c, 0, 39, 103
2, 24359, Note_on_c, 0, 39, 0
2, 24359, Note_on_c, 0, 39, 107
2, 24419, Note_on_c, 0, 39, 0
2, 24420, Note_on_c, 0, 40, 105
2, 24539, Note_on_c, 0, 40, 0
2, 24540, Note_on_c, 0, 40, 102
2, 24599, Note_on_c, 0, 40, 0
2, 24600, Note_on_c, 0, 40, 105
2, 24601, Note_on_c, 0, 40, 101
2, 24655, Note_on_c, 0, 40, 0
2, 24659, Note_on_c, 0, 40, 0
2, 24660, Note_on_c, 0, 40, 104
2, 24720, Note_on_c, 0, 40, 0
2, 24720, Note_on_c, 0, 40, 101
2, 24779, Note_on_c, 0, 40, 0
2, 24780, Note_on_c, 0, 40, 107
2, 24839, Note_on_c, 0, 40, 0
2, 24839, Control_c, 0, 101, 0
2, 24839, Control_c, 0, 100, 0
2, 24839, Control_c, 0, 6, 6
2, 24839, Control_c, 0, 38, 0
2, 24839, Note_on_c, 0, 40, 103
2, 24899, Note_on_c, 0, 40, 0
2, 24900, Note_on_c, 0, 40, 105
2, 24960, Pitch_bend_c, 0, 8192
2, 24961, Pitch_bend_c, 0, 8100
2, 24962, Pitch_bend_c, 0, 8009
2, 24963, Pitch_bend_c, 0, 7918
2, 24964, Pitch_bend_c, 0, 7827
2, 24965, Pitch_bend_c, 0, 7736
2, 24966, Pitch_bend_c, 0, 7645
2, 24967, Pitch_bend_c, 0, 7554
2, 24968, Pitch_bend_c, 0, 7463
2, 24969, Pitch_bend_c, 0, 7372
2, 24970, Pitch_bend_c, 0, 7281
2, 24971, Pitch_bend_c, 0, 7190
2, 24972, Pitch_bend_c, 0, 7099
2, 24973, Pitch_bend_c, 0, 7008
2, 24974, Pitch_bend_c, 0, 6917
2, 24975, Pitch_bend_c, 0, 6826
2, 24976, Pitch_bend_c, 0, 6735
2, 24977, Pitch_bend_c, 0, 6644
2, 24978, Pitch_bend_c, 0, 6553
2, 24979, Pitch_bend_c, 0, 6462
2, 24980, Pitch_bend_c, 0, 6371
2, 24981, Pitch_bend_c, 0, 6280
2, 24982, Pitch_bend_c, 0, 6189
2, 24983, Pitch_bend_c, 0, 6098
2, 24984, Pitch_bend_c, 0, 6007
2, 24985, Pitch_bend_c, 0, 5916
2, 24986, Pitch_bend_c, 0, 5825
2, 24987, Pitch_bend_c, 0, 5734
2, 24988, Pitch_bend_c, 0, 5643
2, 24989, Pitch_bend_c, 0, 5552
2, 24990, Pitch_bend_c, 0, 5461
2, 24991, Pitch_bend_c, 0, 5370
2, 24992, Pitch_bend_c, 0, 5279
2, 24993, Pitch_bend_c, 0, 5188
2, 24994, Pitch_bend_c, 0, 5097
2, 24995, Pitch_bend_c, 0, 5006
2, 24996, Pitch_bend_c, 0, 4915
2, 24997, Pitch_bend_c, 0, 4824
2, 24998, Pitch_bend_c, 0, 4733
2, 24999, Pitch_bend_c, 0, 4642
2, 25000, Pitch_bend_c, 0, 4551
2, 25001, Pitch_bend_c, 0, 4460
2, 25002, Pitch_bend_c, 0, 4369
2, 25003, Pitch_bend_c, 0, 4278
2, 25004, Pitch_bend_c, 0, 4187
2, 25005, Pitch_bend_c, 0, 4096
2, 25006, Pitch_bend_c, 0, 4005
2, 25007, Pitch_bend_c, 0, 3914
2, 25008, Pitch_bend_c, 0, 3823
2, 25009, Pitch_bend_c, 0, 3732
2, 25010, Pitch_bend_c, 0, 3641
2, 25011, Pitch_bend_c, 0, 3550
2, 25012, Pitch_bend_c, 0, 3459
2, 25013, Pitch_bend_c, 0, 3368
2, 25014, Pitch_bend_c, 0, 3277
2, 25015, Pitch_bend_c, 0, 3186
2, 25016, Pitch_bend_c, 0, 3095
2, 25017, Pitch_bend_c, 0, 3004
2, 25018, Pitch_bend_c, 0, 2913
2, 25019, Pitch_bend_c, 0, 2822
2, 25020, Pitch_bend_c, 0, 2731
2, 25021, Pitch_bend_c, 0, 2640
2, 25022, Pitch_bend_c, 0, 2549
2, 25023, Pitch_bend_c, 0, 2458
2, 25024, Pitch_bend_c, 0, 2367
2, 25025, Pitch_bend_c, 0, 2276
2, 25026, Pitch_bend_c, 0, 2185
2, 25027, Pitch_bend_c, 0, 2094
2, 25028, Pitch_bend_c, 0, 2003
2, 25029, Pitch_bend_c, 0, 1912
2, 25030, Pitch_bend_c, 0, 1821
2, 25031, Pitch_bend_c, 0, 1730
2, 25032, Pitch_bend_c, 0, 1639
2, 25033, Pitch_bend_c, 0, 1548
2, 25034, Pitch_bend_c, 0, 1457
2, 25035, Pitch_bend_c, 0, 1366
2, 25036, Pitch_bend_c, 0, 1275
2, 25037, Pitch_bend_c, 0, 1184
2, 25038, Pitch_bend_c, 0, 1093
2, 25039, Pitch_bend_c, 0, 1002
2, 25040, Pitch_bend_c, 0, 911
2, 25041, Pitch_bend_c, 0, 820
2, 25042, Pitch_bend_c, 0, 729
2, 25043, Pitch_bend_c, 0, 638
2, 25044, Pitch_bend_c, 0, 547
2, 25045, Pitch_bend_c, 0, 456
2, 25046, Pitch_bend_c, 0, 365
2, 25047, Pitch_bend_c, 0, 274
2, 25048, Pitch_bend_c, 0, 183
2, 25049, Pitch_bend_c, 0, 92
2, 25050, Note_on_c, 0, 40, 0
2, 25051, Pitch_bend_c, 0, 1
2, 25381, Pitch_bend_c, 0, 8192
2, 25381, Control_c, 0, 101, 0
2, 25381, Control_c, 0, 100, 0
2, 25381, Control_c, 0, 6, 2
2, 25381, Control_c, 0, 38, 0
2, 25381, Note_on_c, 0, 33, 102
2, 25500, Note_on_c, 0, 33, 0
2, 25500, Note_on_c, 0, 33, 103
2, 25555, Note_on_c, 0, 33, 0
2, 25560, Note_on_c, 0, 33, 103
2, 25615, Note_on_c, 0, 33, 0
2, 25620, Note_on_c, 0, 33, 106
2, 25679, Note_on_c, 0, 33, 0
2, 25680, Note_on_c, 0, 33, 107
2, 25739, Note_on_c, 0, 33, 0
2, 25739, Note_on_c, 0, 33, 102
2, 25800, Note_on_c, 0, 33, 0
2, 25800, Note_on_c, 0, 33, 102
2, 25859, Note_on_c, 0, 33, 0
2, 25860, Note_on_c, 0, 35, 105
2, 25920, Note_on_c, 0, 35, 0
2, 25920, Note_on_c, 0, 35, 103
2, 25980, Note_on_c, 0, 35, 0
2, 25980, Note_on_c, 0, 35, 102
2, 26040, Note_on_c, 0, 35, 0
2, 26041, Note_on_c, 0, 35, 107
2, 26095, Note_on_c, 0, 35, 0
2, 26100, Note_on_c, 0, 35, 101
2, 26160, Note_on_c, 0, 35, 0
2, 26160, Note_on_c, 0, 35, 103
2, 26220, Note_on_c, 0, 35, 0
2, 26220, Note_on_c, 0, 35, 102
2, 26279, Note_on_c, 0, 35, 0
2, 26280, Note_on_c, 0, 28, 105
2, 26339, Note_on_c, 0, 28, 0
2, 26340, Note_on_c, 0, 38, 106
2, 26460, Note_on_c, 0, 38, 0
2, 26461, Note_on_c, 0, 38, 107
2, 26520, Note_on_c, 0, 38, 0
2, 26520, Note_on_c, 0, 38, 101
2, 26575, Note_on_c, 0, 38, 0
2, 26579, Note_on_c, 0, 38, 107
2, 26639, Note_on_c, 0, 38, 0
2, 26640, Note_on_c, 0, 38, 101
2, 26700, Note_on_c, 0, 38, 0
2, 26701, Note_on_c, 0, 38, 107
2, 26760, Note_on_c, 0, 38, 0
2, 26760, Note_on_c, 0, 38, 105
2, 26820, Note_on_c, 0, 38, 0
2, 26820, Note_on_c, 0, 38, 107
2, 26879, Note_on_c, 0, 38, 0
2, 26880, Note_on_c, 0, 38, 102
2, 26939, Note_on_c, 0, 38, 0
2, 26940, Note_on_c, 0, 38, 104
2, 26999, Note_on_c, 0, 38, 0
2, 27000, Note_on_c, 0, 38, 106
2, 27055, Note_on_c, 0, 38, 0
2, 27060, Note_on_c, 0, 38, 106
2, 27119, Note_on_c, 0, 38, 0
2, 27120, Note_on_c, 0, 38, 106
2, 27179, Note_on_c, 0, 38, 0
2, 27179, Note_on_c, 0, 38, 103
2, 27239, Note_on_c, 0, 38, 0
2, 27239, Note_on_c, 0, 30, 101
2, 27299, Note_on_c, 0, 30, 0
2, 27300, Note_on_c, 0, 33, 107
2, 27420, Note_on_c, 0, 33, 0
2, 27420, Note_on_c, 0, 33, 104
2, 27474, Note_on_c, 0, 33, 0
2, 27480, Note_on_c, 0, 33, 107
2, 27534, Note_on_c, 0, 33, 0
2, 27539, Note_on_c, 0, 33, 101
2, 27600, Note_on_c, 0, 33, 0
2, 27601, Note_on_c, 0, 33, 101
2, 27660, Note_on_c, 0, 33, 0
2, 27661, Note_on_c, 0, 33, 104
2, 27720, Note_on_c, 0, 33, 0
2, 27721, Note_on_c, 0, 33, 101
2, 27780, Note_on_c, 0, 33, 0
2, 27780, Note_on_c, 0, 35, 107
2, 27840, Note_on_c, 0, 35, 0
2, 27840, Note_on_c, 0, 35, 102
2, 27899, Note_on_c, 0, 35, 0
2, 27900, Note_on_c, 0, 35, 106
2, 27959, Note_on_c, 0, 35, 0
2, 27960, Note_on_c, 0, 35, 101
2, 28015, Note_on_c, 0, 35, 0
2, 28020, Note_on_c, 0, 35, 101
2, 28079, Note_on_c, 0, 35, 0
2, 28080, Note_on_c, 0, 35, 107
2, 28139, Note_on_c, 0, 35, 0
2, 28140, Note_on_c, 0, 35, 105
2, 28200, Note_on_c, 0, 35, 0
2, 28200, Note_on_c, 0, 28, 104
2, 28260, Note_on_c, 0, 28, 0
2, 28260, Note_on_c, 0, 38, 107
2, 28379, Note_on_c, 0, 38, 0
2, 28379, Note_on_c, 0, 38, 104
2, 28439, Note_on_c, 0, 38, 0
2, 28440, Note_on_c, 0, 38, 102
2, 28495, Note_on_c, 0, 38, 0
2, 28500, Note_on_c, 0, 38, 104
2, 28560, Note_on_c, 0, 38, 0
2, 28560, Note_on_c, 0, 38, 101
2, 28619, Note_on_c, 0, 38, 0
2, 28620, Note_on_c, 0, 38, 107
2, 28680, Note_on_c, 0, 38, 0
2, 28681, Note_on_c, 0, 38, 105
2, 28740, Note_on_c, 0, 38, 0
2, 28741, Note_on_c, 0, 38, 104
2, 28800, Note_on_c, 0, 38, 0
2, 28800, Note_on_c, 0, 38, 102
2, 28860, Note_on_c, 0, 38, 0
2, 28861, Note_on_c, 0, 38, 105
2, 28920, Note_on_c, 0, 38, 0
2, 28920, Note_on_c, 0, 38, 106
2, 28974, Note_on_c, 0, 38, 0
2, 28979, Note_on_c, 0, 38, 101
2, 29040, Note_on_c, 0, 38, 0
2, 29041, Note_on_c, 0, 38, 104
2, 29100, Note_on_c, 0, 38, 0
2, 29100, Note_on_c, 0, 38, 107
2, 29160, Note_on_c, 0, 38, 0
2, 29161, Note_on_c, 0, 30, 102
2, 29220, Note_on_c, 0, 30, 0
2, 29221, Note_on_c, 0, 33, 105
2, 29339, Note_on_c, 0, 33, 0
2, 29340, Note_on_c, 0, 33, 101
2, 29394, Note_on_c, 0, 33, 0
2, 29400, Note_on_c, 0, 33, 103
2, 29454, Note_on_c, 0, 33, 0
2, 29459, Note_on_c, 0, 33, 101
2, 29520, Note_on_c, 0, 33, 0
2, 29521, Note_on_c, 0, 33, 106
2, 29580, Note_on_c, 0, 33, 0
2, 29581, Note_on_c, 0, 33, 106
2, 29640, Note_on_c, 0, 33, 0
2, 29640, Note_on_c, 0, 28, 105
2, 29699, Note_on_c, 0, 28, 0
2, 29700, Note_on_c, 0, 35, 102
2, 29760, Note_on_c, 0, 35, 0
2, 29761, Note_on_c, 0, 35, 107
2, 29820, Note_on_c, 0, 35, 0
2, 29821, Note_on_c, 0, 35, 105
2, 29880, Note_on_c, 0, 35, 0
2, 29880, Note_on_c, 0, 35, 101
2, 29935, Note_on_c, 0, 35, 0
2, 29940, Note_on_c, 0, 35, 102
2, 29999, Note_on_c, 0, 35, 0
2, 30000, Note_on_c, 0, 35, 107
2, 30059, Note_on_c, 0, 35, 0
2, 30059, Note_on_c, 0, 35, 104
2, 30120, Note_on_c, 0, 35, 0
2, 30120, Note_on_c, 0, 28, 103
2, 30179, Note_on_c, 0, 28, 0
2, 30180, Note_on_c, 0, 38, 102
2, 30300, Note_on_c, 0, 38, 0
2, 30300, Note_on_c, 0, 38, 102
2, 30359, Note_on_c, 0, 38, 0
2, 30360, Note_on_c, 0, 38, 101
2, 30414, Note_on_c, 0, 38, 0
2, 30420, Note_on_c, 0, 38, 107
2, 30479, Note_on_c, 0, 38, 0
2, 30480, Note_on_c, 0, 38, 103
2, 30540, Note_on_c, 0, 38, 0
2, 30541, Note_on_c, 0, 38, 106
2, 30599, Note_on_c, 0, 38, 0
2, 30600, Note_on_c, 0, 38, 105
2, 30659, Note_on_c, 0, 38, 0
2, 30660, Note_on_c, 0, 38, 105
2, 30720, Note_on_c, 0, 38, 0
2, 30720, Note_on_c, 0, 38, 103
2, 30780, Note_on_c, 0, 38, 0
2, 30781, Note_on_c, 0, 38, 101
2, 30839, Note_on_c, 0, 38, 0
2, 30840, Note_on_c, 0, 38, 105
2, 30895, Note_on_c, 0, 38, 0
2, 30899, Note_on_c, 0, 38, 102
2, 30959, Note_on_c, 0, 38, 0
2, 30960, Note_on_c, 0, 38, 103
2, 31020, Note_on_c, 0, 38, 0
2, 31021, Note_on_c, 0, 38, 105
2, 31080, Note_on_c, 0, 38, 0
2, 31080, Note_on_c, 0, 30, 103
2, 31140, Note_on_c, 0, 30, 0
2, 31141, Note_on_c, 0, 33, 105
2, 31260, Note_on_c, 0, 33, 0
2, 31260, Note_on_c, 0, 33, 101
2, 31315, Note_on_c, 0, 33, 0
2, 31320, Note_on_c, 0, 33, 105
2, 31375, Note_on_c, 0, 33, 0
2, 31379, Note_on_c, 0, 33, 103
2, 31440, Note_on_c, 0, 33, 0
2, 31440, Note_on_c, 0, 33, 104
2, 31500, Note_on_c, 0, 33, 0
2, 31501, Note_on_c, 0, 33, 106
2, 31560, Note_on_c, 0, 33, 0
2, 31561, Note_on_c, 0, 28, 107
2, 31620, Note_on_c, 0, 28, 0
2, 31620, Note_on_c, 0, 35, 105
2, 31679, Note_on_c, 0, 35, 0
2, 31680, Note_on_c, 0, 35, 103
2, 31739, Note_on_c, 0, 35, 0
2, 31740, Note_on_c, 0, 35, 101
2, 31799, Note_on_c, 0, 35, 0
2, 31800, Note_on_c, 0, 35, 107
2, 31854, Note_on_c, 0, 35, 0
2, 31859, Note_on_c, 0, 35, 101
2, 31919, Note_on_c, 0, 35, 0
2, 31920, Note_on_c, 0, 35, 102
2, 31979, Note_on_c, 0, 35, 0
2, 31979, Note_on_c, 0, 35, 101
2, 32039, Note_on_c, 0, 35, 0
2, 32040, Note_on_c, 0, 28, 104
2, 32100, Note_on_c, 0, 28, 0
2, 32101, Note_on_c, 0, 38, 102
2, 32220, Note_on_c, 0, 38, 0
2, 32220, Note_on_c, 0, 38, 107
2, 32279, Note_on_c, 0, 38, 0
2, 32280, Note_on_c, 0, 38, 106
2, 32334, Note_on_c, 0, 38, 0
2, 32340, Note_on_c, 0, 38, 104
2, 32400, Note_on_c, 0, 38, 0
2, 32400, Note_on_c, 0, 38, 105
2, 32459, Note_on_c, 0, 38, 0
2, 32460, Note_on_c, 0, 38, 107
2, 32519, Note_on_c, 0, 38, 0
2, 32520, Note_on_c, 0, 38, 105
2, 32579, Note_on_c, 0, 38, 0
2, 32580, Note_on_c, 0, 38, 104
2, 32640, Note_on_c, 0, 38, 0
2, 32641, Note_on_c, 0, 38, 104
2, 32700, Note_on_c, 0, 38, 0
2, 32700, Note_on_c, 0, 38, 104
2, 32759, Note_on_c, 0, 38, 0
2, 32760, Note_on_c, 0, 38, 105
2, 32814, Note_on_c, 0, 38, 0
2, 32819, Note_on_c, 0, 38, 105
2, 32879, Note_on_c, 0, 38, 0
2, 32880, Note_on_c, 0, 38, 103
2, 32940, Note_on_c, 0, 38, 0
2, 32940, Note_on_c, 0, 38, 101
2, 32999, Note_on_c, 0, 38, 0
2, 33000, Note_on_c, 0, 28, 104
2, 33059, Note_on_c, 0, 28, 0
2, 33059, Note_on_c, 0, 33, 102
2, 33179, Note_on_c, 0, 33, 0
2, 33180, Note_on_c, 0, 33, 104
2, 33234, Note_on_c, 0, 33, 0
2, 33239, Note_on_c, 0, 33, 107
2, 33295, Note_on_c, 0, 33, 0
2, 33300, Note_on_c, 0, 33, 106
2, 33360, Note_on_c, 0, 33, 0
2, 33361, Note_on_c, 0, 33, 101
2, 33420, Note_on_c, 0, 33, 0
2, 33421, Note_on_c, 0, 33, 102
2, 33480, Note_on_c, 0, 33, 0
2, 33480, Note_on_c, 0, 28, 107
2, 33540, Note_on_c, 0, 28, 0
2, 33540, Note_on_c, 0, 35, 105
2, 33600, Note_on_c, 0, 35, 0
2, 33601, Note_on_c, 0, 35, 105
2, 33660, Note_on_c, 0, 35, 0
2, 33660, Note_on_c, 0, 35, 104
2, 33719, Note_on_c, 0, 35, 0
2, 33720, Note_on_c, 0, 35, 103
2, 33774, Note_on_c, 0, 35, 0
2, 33780, Note_on_c, 0, 35, 106
2, 33839, Note_on_c, 0, 35, 0
2, 33840, Note_on_c, 0, 35, 103
2, 33900, Note_on_c, 0, 35, 0
2, 33901, Note_on_c, 0, 35, 107
2, 33960, Note_on_c, 0, 35, 0
2, 33961, Note_on_c, 0, 28, 107
2, 34020, Note_on_c, 0, 28, 0
2, 34020, Note_on_c, 0, 38, 103
2, 34139, Note_on_c, 0, 38, 0
2, 34139, Note_on_c, 0, 38, 102
2, 34199, Note_on_c, 0, 38, 0
2, 34200, Note_on_c, 0, 38, 107
2, 34255, Note_on_c, 0, 38, 0
2, 34260, Note_on_c, 0, 38, 107
2, 34319, Note_on_c, 0, 38, 0
2, 34320, Note_on_c, 0, 38, 107
2, 34379, Note_on_c, 0, 38, 0
2, 34380, Note_on_c, 0, 38, 107
2, 34439, Note_on_c, 0, 38, 0
2, 34440, Note_on_c, 0, 38, 104
2, 34500, Note_on_c, 0, 38, 0
2, 34500, Note_on_c, 0, 38, 105
2, 34559, Note_on_c, 0, 38, 0
2, 34559, Note_on_c, 0, 38, 102
2, 34620, Note_on_c, 0, 38, 0
2, 34621, Note_on_c, 0, 38, 106
2, 34680, Note_on_c, 0, 38, 0
2, 34680, Note_on_c, 0, 38, 107
2, 34734, Note_on_c, 0, 38, 0
2, 34740, Note_on_c, 0, 38, 103
2, 34799, Note_on_c, 0, 38, 0
2, 34800, Note_on_c, 0, 38, 105
2, 34859, Note_on_c, 0, 38, 0
2, 34860, Note_on_c, 0, 38, 103
2, 34920, Note_on_c, 0, 38, 0
2, 34921, Note_on_c, 0, 28, 107
2, 34979, Note_on_c, 0, 28, 0
2, 34980, Note_on_c, 0, 33, 103
2, 35100, Note_on_c, 0, 33, 0
2, 35100, Note_on_c, 0, 33, 102
2, 35154, Note_on_c, 0, 33, 0
2, 35160, Note_on_c, 0, 33, 106
2, 35214, Note_on_c, 0, 33, 0
2, 35220, Note_on_c, 0, 33, 107
2, 35280, Note_on_c, 0, 33, 0
2, 35280, Note_on_c, 0, 33, 107
2, 35340, Note_on_c, 0, 33, 0
2, 35340, Note_on_c, 0, 33, 105
2, 35399, Note_on_c, 0, 33, 0
2, 35400, Note_on_c, 0, 28, 104
2, 35459, Note_on_c, 0, 28, 0
2, 35460, Note_on_c, 0, 35, 102
2, 35520, Note_on_c, 0, 35, 0
2, 35521, Note_on_c, 0, 35, 102
2, 35580, Note_on_c, 0, 35, 0
2, 35580, Note_on_c, 0, 35, 102
2, 35640, Note_on_c, 0, 35, 0
2, 35641, Note_on_c, 0, 35, 107
2, 35695, Note_on_c, 0, 35, 0
2, 35700, Note_on_c, 0, 35, 104
2, 35759, Note_on_c, 0, 35, 0
2, 35760, Note_on_c, 0, 35, 106
2, 35819, Note_on_c, 0, 35, 0
2, 35819, Note_on_c, 0, 35, 106
2, 35879, Note_on_c, 0, 35, 0
2, 35879, Note_on_c, 0, 28, 101
2, 35939, Note_on_c, 0, 28, 0
2, 35940, Note_on_c, 0, 38, 105
2, 36060, Note_on_c, 0, 38, 0
2, 36060, Note_on_c, 0, 38, 105
2, 36119, Note_on_c, 0, 38, 0
2, 36120, Note_on_c, 0, 38, 106
2, 36175, Note_on_c, 0, 38, 0
2, 36180, Note_on_c, 0, 38, 105
2, 36239, Note_on_c, 0, 38, 0
2, 36240, Note_on_c, 0, 38, 102
2, 36300, Note_on_c, 0, 38, 0
2, 36301, Note_on_c, 0, 38, 102
2, 36360, Note_on_c, 0, 38, 0
2, 36360, Note_on_c, 0, 38, 105
2, 36420, Note_on_c, 0, 38, 0
2, 36420, Note_on_c, 0, 38, 107
2, 36479, Note_on_c, 0, 38, 0
2, 36480, Note_on_c, 0, 38, 101
2, 36540, Note_on_c, 0, 38, 0
2, 36541, Note_on_c, 0, 38, 102
2, 36599, Note_on_c, 0, 38, 0
2, 36600, Note_on_c, 0, 38, 105
2, 36655, Note_on_c, 0, 38, 0
2, 36660, Note_on_c, 0, 38, 103
2, 36720, Note_on_c, 0, 38, 0
2, 36720, Note_on_c, 0, 38, 106
2, 36780, Note_on_c, 0, 38, 0
2, 36781, Note_on_c, 0, 38, 107
2, 36840, Note_on_c, 0, 38, 0
2, 36840, Note_on_c, 0, 30, 105
2, 36900, Note_on_c, 0, 30, 0
2, 36900, Note_on_c, 0, 33, 106
2, 37020, Note_on_c, 0, 33, 0
2, 37021, Note_on_c, 0, 33, 107
2, 37074, Note_on_c, 0, 33, 0
2, 40739, Pitch_bend_c, 0, 8192
2, 40739, Note_on_c, 0, 33, 107
2, 40859, Note_on_c, 0, 33, 0
2, 40860, Note_on_c, 0, 33, 101
2, 40914, Note_on_c, 0, 33, 0
2, 40920, Note_on_c, 0, 33, 105
2, 40974, Note_on_c, 0, 33, 0
2, 40979, Note_on_c, 0, 33, 103
2, 41040, Note_on_c, 0, 33, 0
2, 41040, Note_on_c, 0, 33, 102
2, 41099, Note_on_c, 0, 33, 0
2, 41100, Note_on_c, 0, 33, 103
2, 41160, Note_on_c, 0, 33, 0
2, 41160, Note_on_c, 0, 28, 103
2, 41220, Note_on_c, 0, 28, 0
2, 41220, Note_on_c, 0, 35, 106
2, 41280, Note_on_c, 0, 35, 0
2, 41281, Note_on_c, 0, 35, 101
2, 41340, Note_on_c, 0, 35, 0
2, 41340, Note_on_c, 0, 35, 106
2, 41399, Note_on_c, 0, 35, 0
2, 41399, Note_on_c, 0, 35, 103
2, 41454, Note_on_c, 0, 35, 0
2, 41459, Note_on_c, 0, 35, 103
2, 41519, Note_on_c, 0, 35, 0
2, 41520, Note_on_c, 0, 35, 102
2, 41579, Note_on_c, 0, 35, 0
2, 41580, Note_on_c, 0, 35, 101
2, 41640, Note_on_c, 0, 35, 0
2, 41641, Note_on_c, 0, 28, 107
2, 41699, Note_on_c, 0, 28, 0
2, 41700, Note_on_c, 0, 38, 101
2, 41819, Note_on_c, 0, 38, 0
2, 41820, Note_on_c, 0, 38, 105
2, 41880, Note_on_c, 0, 38, 0
2, 41880, Note_on_c, 0, 38, 101
2, 41934, Note_on_c, 0, 38, 0
2, 41939, Note_on_c, 0, 38, 105
2, 41999, Note_on_c, 0, 38, 0
2, 42000, Note_on_c, 0, 38, 103
2, 42059, Note_on_c, 0, 38, 0
2, 42060, Note_on_c, 0, 38, 101
2, 42119, Note_on_c, 0, 38, 0
2, 42120, Note_on_c, 0, 38, 104
2, 42180, Note_on_c, 0, 38, 0
2, 42181, Note_on_c, 0, 38, 105
2, 42240, Note_on_c, 0, 38, 0
2, 42241, Note_on_c, 0, 38, 102
2, 42299, Note_on_c, 0, 38, 0
2, 42300, Note_on_c, 0, 38, 105
2, 42360, Note_on_c, 0, 38, 0
2, 42361, Note_on_c, 0, 38, 106
2, 42415, Note_on_c, 0, 38, 0
2, 42420, Note_on_c, 0, 38, 102
2, 42479, Note_on_c, 0, 38, 0
2, 42480, Note_on_c, 0, 38, 102
2, 42539, Note_on_c, 0, 38, 0
2, 42540, Note_on_c, 0, 38, 103
2, 42600, Note_on_c, 0, 38, 0
2, 42601, Note_on_c, 0, 28, 103
2, 42660, Note_on_c, 0, 28, 0
2, 42660, Note_on_c, 0, 33, 103
2, 42779, Note_on_c, 0, 33, 0
2, 42780, Note_on_c, 0, 33, 105
2, 42834, Note_on_c, 0, 33, 0
2, 42840, Note_on_c, 0, 33, 107
2, 42894, Note_on_c, 0, 33, 0
2, 42899, Note_on_c, 0, 33, 103
2, 42960, Note_on_c, 0, 33, 0
2, 42961, Note_on_c, 0, 33, 106
2, 43020, Note_on_c, 0, 33, 0
2, 43020, Note_on_c, 0, 33, 101
2, 43080, Note_on_c, 0, 33, 0
2, 43080, Note_on_c, 0, 28, 105
2, 43139, Note_on_c, 0, 28, 0
2, 43140, Note_on_c, 0, 35, 106
2, 43200, Note_on_c, 0, 35, 0
2, 43200, Note_on_c, 0, 35, 101
2, 43259, Note_on_c, 0, 35, 0
2, 43260, Note_on_c, 0, 35, 104
2, 43320, Note_on_c, 0, 35, 0
2, 43321, Note_on_c, 0, 35, 107
2, 43374, Note_on_c, 0, 35, 0
2, 43380, Note_on_c, 0, 35, 101
2, 43440, Note_on_c, 0, 35, 0
2, 43441, Note_on_c, 0, 35, 103
2, 43499, Note_on_c, 0, 35, 0
2, 43500, Note_on_c, 0, 35, 106
2, 43560, Note_on_c, 0, 35, 0
2, 43560, Note_on_c, 0, 28, 102
2, 43619, Note_on_c, 0, 28, 0
2, 43620, Note_on_c, 0, 38, 105
2, 43739, Note_on_c, 0, 38, 0
2, 43740, Note_on_c, 0, 38, 106
2, 43799, Note_on_c, 0, 38, 0
2, 43799, Note_on_c, 0, 38, 104
2, 43854, Note_on_c, 0, 38, 0
2, 43860, Note_on_c, 0, 38, 105
2, 43920, Note_on_c, 0, 38, 0
2, 43921, Note_on_c, 0, 38, 106
2, 43979, Note_on_c, 0, 38, 0
2, 43980, Note_on_c, 0, 38, 107
2, 44039, Note_on_c, 0, 38, 0
2, 44040, Note_on_c, 0, 38, 101
2, 44099, Note_on_c, 0, 38, 0
2, 44100, Note_on_c, 0, 38, 103
2, 44159, Note_on_c, 0, 38, 0
2, 44160, Note_on_c, 0, 38, 107
2, 44220, Note_on_c, 0, 38, 0
2, 44221, Note_on_c, 0, 38, 106
2, 44280, Note_on_c, 0, 38, 0
2, 44281, Note_on_c, 0, 38, 106
2, 44335, Note_on_c, 0, 38, 0
2, 44339, Note_on_c, 0, 38, 107
2, 44399, Note_on_c, 0, 38, 0
2, 44400, Note_on_c, 0, 38, 107
2, 44459, Note_on_c, 0, 38, 0
2, 44460, Note_on_c, 0, 38, 101
2, 44520, Note_on_c, 0, 38, 0
2, 44520, Note_on_c, 0, 28, 104
2, 44580, Note_on_c, 0, 28, 0
2, 44580, Pitch_bend_c, 0, 8192
2, 44580, Note_on_c, 0, 30, 105
2, 44699, Note_on_c, 0, 30, 0
2, 44700, Note_on_c, 0, 30, 103
2, 44754, Note_on_c, 0, 30, 0
2, 44760, Note_on_c, 0, 33, 107
2, 44815, Note_on_c, 0, 33, 0
2, 44820, Note_on_c, 0, 33, 105
2, 44879, Note_on_c, 0, 33, 0
2, 44880, Note_on_c, 0, 33, 102
2, 44939, Note_on_c, 0, 33, 0
2, 44940, Note_on_c, 0, 33, 107
2, 45000, Note_on_c, 0, 33, 0
2, 45000, Note_on_c, 0, 28, 106
2, 45059, Note_on_c, 0, 28, 0
2, 45059, Note_on_c, 0, 35, 106
2, 45119, Note_on_c, 0, 35, 0
2, 45120, Note_on_c, 0, 35, 101
2, 45180, Note_on_c, 0, 35, 0
2, 45180, Note_on_c, 0, 35, 105
2, 45239, Note_on_c, 0, 35, 0
2, 45240, Note_on_c, 0, 35, 106
2, 45294, Note_on_c, 0, 35, 0
2, 45300, Note_on_c, 0, 35, 107
2, 45359, Note_on_c, 0, 35, 0
2, 45360, Note_on_c, 0, 35, 104
2, 45420, Note_on_c, 0, 35, 0
2, 45420, Note_on_c, 0, 35, 104
2, 45479, Note_on_c, 0, 35, 0
2, 45480, Note_on_c, 0, 28, 103
2, 45539, Note_on_c, 0, 28, 0
2, 45539, Note_on_c, 0, 38, 106
2, 45659, Note_on_c, 0, 38, 0
2, 45660, Note_on_c, 0, 38, 105
2, 45720, Note_on_c, 0, 38, 0
2, 45721, Note_on_c, 0, 38, 102
2, 45775, Note_on_c, 0, 38, 0
2, 45780, Note_on_c, 0, 38, 101
2, 45840, Note_on_c, 0, 38, 0
2, 45841, Note_on_c, 0, 38, 107
2, 45899, Note_on_c, 0, 38, 0
2, 45899, Note_on_c, 0, 38, 103
2, 45960, Note_on_c, 0, 38, 0
2, 45961, Note_on_c, 0, 38, 107
2, 46019, Note_on_c, 0, 38, 0
2, 46020, Note_on_c, 0, 38, 104
2, 46080, Note_on_c, 0, 38, 0
2, 46081, Note_on_c, 0, 38, 102
2, 46140, Note_on_c, 0, 38, 0
2, 46140, Note_on_c, 0, 38, 107
2, 46199, Note_on_c, 0, 38, 0
2, 46200, Note_on_c, 0, 38, 107
2, 46254, Note_on_c, 0, 38, 0
2, 46260, Note_on_c, 0, 38, 101
2, 46320, Note_on_c, 0, 38, 0
2, 46321, Note_on_c, 0, 38, 103
2, 46380, Note_on_c, 0, 38, 0
2, 46380, Note_on_c, 0, 38, 104
2, 46439, Note_on_c, 0, 38, 0
2, 46440, Note_on_c, 0, 28, 105
2, 46500, Note_on_c, 0, 28, 0
2, 46500, Note_on_c, 0, 33, 103
2, 46619, Note_on_c, 0, 33, 0
2, 46620, Note_on_c, 0, 33, 106
2, 46675, Note_on_c, 0, 33, 0
2, 46680, Note_on_c, 0, 33, 106
2, 46735, Note_on_c, 0, 33, 0
2, 46739, Note_on_c, 0, 33, 104
2, 46799, Note_on_c, 0, 33, 0
2, 46800, Note_on_c, 0, 33, 101
2, 46859, Note_on_c, 0, 33, 0
2, 46860, Note_on_c, 0, 33, 107
2, 46919, Note_on_c, 0, 33, 0
2, 46920, Note_on_c, 0, 28, 105
2, 46980, Note_on_c, 0, 28, 0
2, 46980, Note_on_c, 0, 35, 102
2, 47039, Note_on_c, 0, 35, 0
2, 47040, Note_on_c, 0, 35, 105
2, 47099, Note_on_c, 0, 35, 0
2, 47100, Note_on_c, 0, 35, 102
2, 47159, Note_on_c, 0, 35, 0
2, 47160, Note_on_c, 0, 35, 101
2, 47214, Note_on_c, 0, 35, 0
2, 47220, Note_on_c, 0, 35, 103
2, 47280, Note_on_c, 0, 35, 0
2, 47280, Note_on_c, 0, 35, 104
2, 47339, Note_on_c, 0, 35, 0
2, 47340, Note_on_c, 0, 35, 101
2, 47399, Note_on_c, 0, 35, 0
2, 47400, Note_on_c, 0, 28, 103
2, 47460, Note_on_c, 0, 28, 0
2, 47461, Note_on_c, 0, 38, 104
2, 47580, Note_on_c, 0, 38, 0
2, 47580, Note_on_c, 0, 38, 107
2, 47640, Note_on_c, 0, 38, 0
2, 47640, Note_on_c, 0, 38, 103
2, 47694, Note_on_c, 0, 38, 0
2, 47700, Note_on_c, 0, 38, 107
2, 47760, Note_on_c, 0, 38, 0
2, 47761, Note_on_c, 0, 38, 104
2, 47820, Note_on_c, 0, 38, 0
2, 47820, Note_on_c, 0, 38, 101
2, 47880, Note_on_c, 0, 38, 0
2, 47881, Note_on_c, 0, 38, 107
2, 47940, Note_on_c, 0, 38, 0
2, 47940, Note_on_c, 0, 38, 103
2, 47999, Note_on_c, 0, 38, 0
2, 47999, Note_on_c, 0, 38, 102
2, 48059, Note_on_c, 0, 38, 0
2, 48060, Note_on_c, 0, 42, 106
2, 48180, Note_on_c, 0, 42, 0
2, 48181, Note_on_c, 0, 43, 104
2, 48300, Note_on_c, 0, 43, 0
2, 48301, Note_on_c, 0, 44, 106
2, 48360, Note_on_c, 0, 44, 0
2, 48361, Note_on_c, 0, 45, 106
2, 48420, Note_on_c, 0, 45, 0
2, 48420, Note_on_c, 0, 33, 105
2, 48540, Note_on_c, 0, 33, 0
2, 48540, Note_on_c, 0, 33, 104
2, 48594, Note_on_c, 0, 33, 0
2, 48599, Note_on_c, 0, 33, 103
2, 48654, Note_on_c, 0, 33, 0
2, 48660, Note_on_c, 0, 33, 101
2, 48719, Note_on_c, 0, 33, 0
2, 48719, Note_on_c, 0, 33, 105
2, 48780, Note_on_c, 0, 33, 0
2, 48781, Note_on_c, 0, 33, 107
2, 48839, Note_on_c, 0, 33, 0
2, 48840, Note_on_c, 0, 28, 105
2, 48900, Note_on_c, 0, 28, 0
2, 48900, Note_on_c, 0, 35, 107
2, 48960, Note_on_c, 0, 35, 0
2, 48961, Note_on_c, 0, 35, 105
2, 49020, Note_on_c, 0, 35, 0
2, 49020, Note_on_c, 0, 35, 104
2, 49079, Note_on_c, 0, 35, 0
2, 49080, Note_on_c, 0, 35, 105
2, 49134, Note_on_c, 0, 35, 0
2, 49140, Note_on_c, 0, 35, 107
2, 49199, Note_on_c, 0, 35, 0
2, 49200, Note_on_c, 0, 35, 101
2, 49260, Note_on_c, 0, 35, 0
2, 49260, Note_on_c, 0, 35, 103
2, 49319, Note_on_c, 0, 35, 0
2, 49320, Note_on_c, 0, 28, 102
2, 49380, Note_on_c, 0, 28, 0
2, 49381, Note_on_c, 0, 38, 105
2, 49500, Note_on_c, 0, 38, 0
2, 49501, Note_on_c, 0, 38, 104
2, 49559, Note_on_c, 0, 38, 0
2, 49559, Note_on_c, 0, 38, 102
2, 49614, Note_on_c, 0, 38, 0
2, 49620, Note_on_c, 0, 38, 105
2, 49679, Note_on_c, 0, 38, 0
2, 49680, Note_on_c, 0, 38, 104
2, 49739, Note_on_c, 0, 38, 0
2, 49739, Note_on_c, 0, 38, 103
2, 49800, Note_on_c, 0, 38, 0
2, 49801, Note_on_c, 0, 38, 103
2, 49860, Note_on_c, 0, 38, 0
2, 49860, Note_on_c, 0, 38, 103
2, 49920, Note_on_c, 0, 38, 0
2, 49921, Note_on_c, 0, 38, 102
2, 49980, Note_on_c, 0, 38, 0
2, 49980, Note_on_c, 0, 38, 102
2, 50040, Note_on_c, 0, 38, 0
2, 50040, Note_on_c, 0, 38, 106
2, 50094, Note_on_c, 0, 38, 0
2, 50099, Note_on_c, 0, 38, 107
2, 50159, Note_on_c, 0, 38, 0
2, 50160, Note_on_c, 0, 38, 104
2, 50219, Note_on_c, 0, 38, 0
2, 50220, Note_on_c, 0, 38, 106
2, 50280, Note_on_c, 0, 38, 0
2, 50280, Note_on_c, 0, 28, 104
2, 50339, Note_on_c, 0, 28, 0
2, 50340, Note_on_c, 0, 33, 105
2, 50460, Note_on_c, 0, 33, 0
2, 50460, Note_on_c, 0, 33, 101
2, 50520, Note_on_c, 0, 33, 0
2, 50520, Note_on_c, 0, 33, 104
2, 50580, Note_on_c, 0, 33, 0
2, 50580, End_track
3, 0, Start_track
3, 0, MIDI_port, 0
3, 0, Control_c, 1, 0, 0
3, 0, Control_c, 1, 32, 0
3, 0, Program_c, 1, 87
3, 0, Control_c, 1, 7, 60
3, 0, Control_c, 1, 10, 64
3, 2, Control_c, 1, 1, 0
3, 4, Control_c, 1, 2, 0
3, 120, Control_c, 1, 11, 100
3, 120, Control_c, 1, 0, 0
3, 124, Control_c, 1, 101, 0
3, 124, Control_c, 1, 100, 0
3, 124, Control_c, 1, 6, 2
3, 124, Control_c, 1, 38, 0
3, 240, Control_c, 1, 120, 0
3, 243, Control_c, 1, 121, 0
3, 246, Control_c, 1, 123, 0
3, 255, Control_c, 1, 91, 25
3, 258, Control_c, 1, 93, 35
3, 2340, Note_on_c, 1, 33, 57
3, 2460, Note_on_c, 1, 33, 0
3, 2460, Note_on_c, 1, 33, 56
3, 2514, Note_on_c, 1, 33, 0
3, 2520, Note_on_c, 1, 33, 58
3, 2575, Note_on_c, 1, 33, 0
3, 2580, Note_on_c, 1, 33, 55
3, 2639, Note_on_c, 1, 33, 0
3, 2640, Note_on_c, 1, 33, 58
3, 2700, Note_on_c, 1, 33, 0
3, 2701, Note_on_c, 1, 33, 53
3, 2760, Note_on_c, 1, 33, 0
3, 2760, Note_on_c, 1, 33, 55
3, 2819, Note_on_c, 1, 33, 0
3, 2819, Note_on_c, 1, 35, 54
3, 2880, Note_on_c, 1, 35, 0
3, 2880, Note_on_c, 1, 35, 53
3, 2940, Note_on_c, 1, 35, 0
3, 2940, Note_on_c, 1, 35, 56
3, 3000, Note_on_c, 1, 35, 0
3, 3000, Note_on_c, 1, 35, 58
3, 3054, Note_on_c, 1, 35, 0
3, 3060, Note_on_c, 1, 35, 53
3, 3120, Note_on_c, 1, 35, 0
3, 3120, Note_on_c, 1, 35, 53
3, 3180, Note_on_c, 1, 35, 0
3, 3181, Note_on_c, 1, 35, 54
3, 3240, Note_on_c, 1, 35, 0
3, 3241, Note_on_c, 1, 35, 55
3, 3300, Note_on_c, 1, 35, 0
3, 3300, Note_on_c, 1, 38, 55
3, 3419, Note_on_c, 1, 38, 0
3, 3420, Note_on_c, 1, 38, 55
3, 3479, Note_on_c, 1, 38, 0
3, 3480, Note_on_c, 1, 38, 59
3, 3534, Note_on_c, 1, 38, 0
3, 3540, Note_on_c, 1, 38, 54
3, 3600, Note_on_c, 1, 38, 0
3, 3601, Note_on_c, 1, 38, 56
3, 3659, Note_on_c, 1, 38, 0
3, 3660, Note_on_c, 1, 38, 54
3, 3719, Note_on_c, 1, 38, 0
3, 3720, Note_on_c, 1, 38, 59
3, 3780, Note_on_c, 1, 38, 0
3, 3781, Note_on_c, 1, 38, 54
3, 3840, Note_on_c, 1, 38, 0
3, 3840, Note_on_c, 1, 38, 59
3, 3900, Note_on_c, 1, 38, 0
3, 3900, Note_on_c, 1, 38, 56
3, 3960, Note_on_c, 1, 38, 0
3, 3961, Note_on_c, 1, 38, 56
3, 4014, Note_on_c, 1, 38, 0
3, 4020, Note_on_c, 1, 38, 58
3, 4079, Note_on_c, 1, 38, 0
3, 4079, Note_on_c, 1, 38, 54
3, 4139, Note_on_c, 1, 38, 0
3, 4140, Note_on_c, 1, 38, 54
3, 4199, Note_on_c, 1, 38, 0
3, 4200, Note_on_c, 1, 38, 56
3, 4260, Note_on_c, 1, 38, 0
3, 4261, Note_on_c, 1, 33, 57
3, 4379, Note_on_c, 1, 33, 0
3, 4380, Note_on_c, 1, 33, 54
3, 4434, Note_on_c, 1, 33, 0
3, 4440, Note_on_c, 1, 33, 55
3, 4494, Note_on_c, 1, 33, 0
3, 4500, Note_on_c, 1, 33, 53
3, 4559, Note_on_c, 1, 33, 0
3, 4560, Note_on_c, 1, 33, 54
3, 4619, Note_on_c, 1, 33, 0
3, 4620, Note_on_c, 1, 33, 53
3, 4680, Note_on_c, 1, 33, 0
3, 4680, Note_on_c, 1, 33, 55
3, 4739, Note_on_c, 1, 33, 0
3, 4740, Note_on_c, 1, 35, 53
3, 4799, Note_on_c, 1, 35, 0
3, 4800, Note_on_c, 1, 35, 57
3, 4860, Note_on_c, 1, 35, 0
3, 4860, Note_on_c, 1, 35, 58
3, 4919, Note_on_c, 1, 35, 0
3, 4920, Note_on_c, 1, 35, 55
3, 4975, Note_on_c, 1, 35, 0
3, 4979, Note_on_c, 1, 35, 57
3, 5039, Note_on_c, 1, 35, 0
3, 5040, Note_on_c, 1, 35, 59
3, 5100, Note_on_c, 1, 35, 0
3, 5100, Note_on_c, 1, 35, 59
3, 5159, Note_on_c, 1, 35, 0
3, 5159, Note_on_c, 1, 35, 55
3, 5219, Note_on_c, 1, 35, 0
3, 5219, Note_on_c, 1, 38, 53
3, 5339, Note_on_c, 1, 38, 0
3, 5340, Note_on_c, 1, 38, 57
3, 5399, Note_on_c, 1, 38, 0
3, 5399, Note_on_c, 1, 38, 56
3, 5455, Note_on_c, 1, 38, 0
3, 5460, Note_on_c, 1, 38, 59
3, 5519, Note_on_c, 1, 38, 0
3, 5519, Note_on_c, 1, 38, 54
3, 5579, Note_on_c, 1, 38, 0
3, 5580, Note_on_c, 1, 38, 54
3, 5640, Note_on_c, 1, 38, 0
3, 5641, Note_on_c, 1, 38, 55
3, 5700, Note_on_c, 1, 38, 0
3, 5701, Note_on_c, 1, 38, 56
3, 5759, Note_on_c, 1, 38, 0
3, 5760, Note_on_c, 1, 38, 54
3, 5819, Note_on_c, 1, 38, 0
3, 5820, Note_on_c, 1, 38, 58
3, 5880, Note_on_c, 1, 38, 0
3, 5881, Note_on_c, 1, 38, 58
3, 5934, Note_on_c, 1, 38, 0
3, 5940, Note_on_c, 1, 38, 55
3, 6000, Note_on_c, 1, 38, 0
3, 6000, Note_on_c, 1, 38, 53
3, 6059, Note_on_c, 1, 38, 0
3, 6060, Note_on_c, 1, 38, 59
3, 6119, Note_on_c, 1, 38, 0
3, 6119, Note_on_c, 1, 28, 58
3, 6180, Note_on_c, 1, 28, 0
3, 6181, Note_on_c, 1, 30, 55
3, 6299, Note_on_c, 1, 30, 0
3, 6300, Note_on_c, 1, 30, 57
3, 6359, Note_on_c, 1, 30, 0
3, 6360, Note_on_c, 1, 30, 58
3, 6449, Note_on_c, 1, 30, 0
3, 6540, Note_on_c, 1, 35, 53
3, 6600, Note_on_c, 1, 35, 0
3, 6660, Note_on_c, 1, 30, 54
3, 6780, Note_on_c, 1, 30, 0
3, 6781, Note_on_c, 1, 30, 59
3, 6840, Note_on_c, 1, 30, 0
3, 6840, Note_on_c, 1, 30, 54
3, 6929, Note_on_c, 1, 30, 0
3, 7020, Note_on_c, 1, 28, 55
3, 7079, Note_on_c, 1, 28, 0
3, 7139, Note_on_c, 1, 30, 58
3, 7259, Note_on_c, 1, 30, 0
3, 7259, Note_on_c, 1, 30, 59
3, 7319, Note_on_c, 1, 30, 0
3, 7319, Note_on_c, 1, 30, 57
3, 7409, Note_on_c, 1, 30, 0
3, 7500, Note_on_c, 1, 35, 57
3, 7560, Note_on_c, 1, 35, 0
3, 7619, Note_on_c, 1, 30, 54
3, 7740, Note_on_c, 1, 30, 0
3, 7741, Note_on_c, 1, 30, 57
3, 7799, Note_on_c, 1, 30, 0
3, 7800, Note_on_c, 1, 30, 59
3, 7889, Note_on_c, 1, 30, 0
3, 7979, Note_on_c, 1, 28, 57
3, 8039, Note_on_c, 1, 28, 0
3, 8099, Note_on_c, 1, 30, 58
3, 8219, Note_on_c, 1, 30, 0
3, 8220, Note_on_c, 1, 30, 54
3, 8279, Note_on_c, 1, 30, 0
3, 8279, Note_on_c, 1, 30, 59
3, 8369, Note_on_c, 1, 30, 0
3, 8460, Note_on_c, 1, 35, 54
3, 8520, Note_on_c, 1, 35, 0
3, 8580, Note_on_c, 1, 30, 57
3, 8699, Note_on_c, 1, 30, 0
3, 8700, Note_on_c, 1, 30, 56
3, 8760, Note_on_c, 1, 30, 0
3, 8760, Note_on_c, 1, 30, 53
3, 8849, Note_on_c, 1, 30, 0
3, 8940, Note_on_c, 1, 28, 57
3, 8999, Note_on_c, 1, 28, 0
3, 9060, Note_on_c, 1, 30, 53
3, 9180, Note_on_c, 1, 30, 0
3, 9180, Note_on_c, 1, 30, 57
3, 9240, Note_on_c, 1, 30, 0
3, 9240, Note_on_c, 1, 30, 57
3, 9329, Note_on_c, 1, 30, 0
3, 9420, Note_on_c, 1, 35, 57
3, 9480, Note_on_c, 1, 35, 0
3, 9540, Note_on_c, 1, 30, 54
3, 9659, Note_on_c, 1, 30, 0
3, 9660, Note_on_c, 1, 30, 55
3, 9720, Note_on_c, 1, 30, 0
3, 9720, Note_on_c, 1, 30, 57
3, 9809, Note_on_c, 1, 30, 0
3, 9839, Note_on_c, 1, 30, 59
3, 9900, Note_on_c, 1, 30, 0
3, 9901, Note_on_c, 1, 30, 56
3, 9960, Note_on_c, 1, 30, 0
3, 9960, Note_on_c, 1, 28, 55
3, 10019, Note_on_c, 1, 28, 0
3, 10020, Note_on_c, 1, 38, 58
3, 10139, Note_on_c, 1, 38, 0
3, 10140, Note_on_c, 1, 38, 55
3, 10199, Note_on_c, 1, 38, 0
3, 10200, Note_on_c, 1, 38, 57
3, 10254, Note_on_c, 1, 38, 0
3, 10260, Note_on_c, 1, 38, 55
3, 10320, Note_on_c, 1, 38, 0
3, 10320, Note_on_c, 1, 38, 55
3, 10379, Note_on_c, 1, 38, 0
3, 10380, Note_on_c, 1, 38, 59
3, 10439, Note_on_c, 1, 38, 0
3, 10439, Note_on_c, 1, 33, 59
3, 10499, Note_on_c, 1, 33, 0
3, 10500, Note_on_c, 1, 33, 56
3, 10620, Note_on_c, 1, 33, 0
3, 10621, Note_on_c, 1, 33, 59
3, 10680, Note_on_c, 1, 33, 0
3, 10681, Note_on_c, 1, 35, 53
3, 10740, Pitch_bend_c, 1, 16383
3, 10800, Note_on_c, 1, 35, 0
3, 10801, Pitch_bend_c, 1, 8192
3, 10801, Note_on_c, 1, 40, 55
3, 10860, Pitch_bend_c, 1, 16383
3, 10920, Note_on_c, 1, 40, 0
3, 10920, Pitch_bend_c, 1, 8192
3, 10920, Note_on_c, 1, 40, 56
3, 10980, Note_on_c, 1, 40, 0
3, 10980, Note_on_c, 1, 38, 59
3, 11039, Note_on_c, 1, 38, 0
3, 11040, Note_on_c, 1, 38, 54
3, 11100, Note_on_c, 1, 38, 0
3, 11101, Note_on_c, 1, 38, 57
3, 11160, Note_on_c, 1, 38, 0
3, 11161, Note_on_c, 1, 38, 58
3, 11215, Note_on_c, 1, 38, 0
3, 11220, Note_on_c, 1, 38, 59
3, 11280, Note_on_c, 1, 38, 0
3, 11280, Note_on_c, 1, 38, 54
3, 11339, Note_on_c, 1, 38, 0
3, 11340, Note_on_c, 1, 38, 57
3, 11400, Note_on_c, 1, 38, 0
3, 11401, Note_on_c, 1, 33, 55
3, 11459, Note_on_c, 1, 33, 0
3, 11460, Note_on_c, 1, 33, 58
3, 11580, Note_on_c, 1, 33, 0
3, 11581, Note_on_c, 1, 33, 58
3, 11640, Note_on_c, 1, 33, 0
3, 11640, Note_on_c, 1, 35, 56
3, 11700, Pitch_bend_c, 1, 16383
3, 11760, Note_on_c, 1, 35, 0
3, 11761, Pitch_bend_c, 1, 8192
3, 11761, Note_on_c, 1, 40, 59
3, 11819, Pitch_bend_c, 1, 16383
3, 11879, Note_on_c, 1, 40, 0
3, 11880, Pitch_bend_c, 1, 8192
3, 11880, Note_on_c, 1, 40, 59
3, 11940, Note_on_c, 1, 40, 0
3, 11941, Note_on_c, 1, 38, 56
3, 12060, Note_on_c, 1, 38, 0
3, 12060, Note_on_c, 1, 38, 56
3, 12119, Note_on_c, 1, 38, 0
3, 12120, Note_on_c, 1, 38, 57
3, 12120, Note_on_c, 1, 38, 59
3, 12174, Note_on_c, 1, 38, 0
3, 12179, Note_on_c, 1, 38, 0
3, 12180, Note_on_c, 1, 38, 56
3, 12240, Note_on_c, 1, 38, 0
3, 12241, Note_on_c, 1, 38, 53
3, 12299, Note_on_c, 1, 38, 0
3, 12300, Note_on_c, 1, 38, 57
3, 12360, Note_on_c, 1, 38, 0
3, 12360, Note_on_c, 1, 38, 55
3, 12419, Note_on_c, 1, 38, 0
3, 12420, Note_on_c, 1, 39, 53
3, 12480, Note_on_c, 1, 39, 0
3, 12480, Note_on_c, 1, 39, 57
3, 12539, Note_on_c, 1, 39, 0
3, 12540, Note_on_c, 1, 39, 57
3, 12599, Note_on_c, 1, 39, 0
3, 12600, Note_on_c, 1, 39, 58
3, 12600, Note_on_c, 1, 39, 55
3, 12660, Note_on_c, 1, 39, 0
3, 12660, Note_on_c, 1, 39, 0
3, 12661, Note_on_c, 1, 39, 59
3, 12719, Note_on_c, 1, 39, 0
3, 12720, Note_on_c, 1, 39, 55
3, 12779, Note_on_c, 1, 39, 0
3, 12780, Note_on_c, 1, 39, 58
3, 12840, Note_on_c, 1, 39, 0
3, 12840, Note_on_c, 1, 39, 54
3, 12900, Note_on_c, 1, 39, 0
3, 12901, Note_on_c, 1, 40, 54
3, 13019, Note_on_c, 1, 40, 0
3, 13020, Note_on_c, 1, 40, 58
3, 13080, Note_on_c, 1, 40, 0
3, 13080, Note_on_c, 1, 40, 57
3, 13080, Note_on_c, 1, 40, 57
3, 13134, Note_on_c, 1, 40, 0
3, 13139, Note_on_c, 1, 40, 0
3, 13140, Note_on_c, 1, 40, 54
3, 13199, Note_on_c, 1, 40, 0
3, 13200, Note_on_c, 1, 40, 58
3, 13259, Note_on_c, 1, 40, 0
3, 13260, Note_on_c, 1, 40, 53
3, 13319, Note_on_c, 1, 40, 0
3, 13319, Control_c, 1, 101, 0
3, 13319, Control_c, 1, 100, 0
3, 13319, Control_c, 1, 6, 6
3, 13319, Control_c, 1, 38, 0
3, 13319, Note_on_c, 1, 40, 57
3, 13380, Note_on_c, 1, 40, 0
3, 13380, Note_on_c, 1, 40, 59
3, 13440, Pitch_bend_c, 1, 8192
3, 13441, Pitch_bend_c, 1, 8100
3, 13442, Pitch_bend_c, 1, 8009
3, 13443, Pitch_bend_c, 1, 7918
3, 13444, Pitch_bend_c, 1, 7827
3, 13445, Pitch_bend_c, 1, 7736
3, 13446, Pitch_bend_c, 1, 7645
3, 13447, Pitch_bend_c, 1, 7554
3, 13448, Pitch_bend_c, 1, 7463
3, 13449, Pitch_bend_c, 1, 7372
3, 13450, Pitch_bend_c, 1, 7281
3, 13451, Pitch_bend_c, 1, 7190
3, 13452, Pitch_bend_c, 1, 7099
3, 13453, Pitch_bend_c, 1, 7008
3, 13454, Pitch_bend_c, 1, 6917
3, 13455, Pitch_bend_c, 1, 6826
3, 13456, Pitch_bend_c, 1, 6735
3, 13457, Pitch_bend_c, 1, 6644
3, 13458, Pitch_bend_c, 1, 6553
3, 13459, Pitch_bend_c, 1, 6462
3, 13460, Pitch_bend_c, 1, 6371
3, 13461, Pitch_bend_c, 1, 6280
3, 13462, Pitch_bend_c, 1, 6189
3, 13463, Pitch_bend_c, 1, 6098
3, 13464, Pitch_bend_c, 1, 6007
3, 13465, Pitch_bend_c, 1, 5916
3, 13466, Pitch_bend_c, 1, 5825
3, 13467, Pitch_bend_c, 1, 5734
3, 13468, Pitch_bend_c, 1, 5643
3, 13469, Pitch_bend_c, 1, 5552
3, 13470, Pitch_bend_c, 1, 5461
3, 13471, Pitch_bend_c, 1, 5370
3, 13472, Pitch_bend_c, 1, 5279
3, 13473, Pitch_bend_c, 1, 5188
3, 13474, Pitch_bend_c, 1, 5097
3, 13475, Pitch_bend_c, 1, 5006
3, 13476, Pitch_bend_c, 1, 4915
3, 13477, Pitch_bend_c, 1, 4824
3, 13478, Pitch_bend_c, 1, 4733
3, 13479, Pitch_bend_c, 1, 4642
3, 13480, Pitch_bend_c, 1, 4551
3, 13481, Pitch_bend_c, 1, 4460
3, 13482, Pitch_bend_c, 1, 4369
3, 13483, Pitch_bend_c, 1, 4278
3, 13484, Pitch_bend_c, 1, 4187
3, 13485, Pitch_bend_c, 1, 4096
3, 13486, Pitch_bend_c, 1, 4005
3, 13487, Pitch_bend_c, 1, 3914
3, 13488, Pitch_bend_c, 1, 3823
3, 13489, Pitch_bend_c, 1, 3732
3, 13490, Pitch_bend_c, 1, 3641
3, 13491, Pitch_bend_c, 1, 3550
3, 13492, Pitch_bend_c, 1, 3459
3, 13493, Pitch_bend_c, 1, 3368
3, 13494, Pitch_bend_c, 1, 3277
3, 13495, Pitch_bend_c, 1, 3186
3, 13496, Pitch_bend_c, 1, 3095
3, 13497, Pitch_bend_c, 1, 3004
3, 13498, Pitch_bend_c, 1, 2913
3, 13499, Pitch_bend_c, 1, 2822
3, 13500, Pitch_bend_c, 1, 2731
3, 13501, Pitch_bend_c, 1, 2640
3, 13502, Pitch_bend_c, 1, 2549
3, 13503, Pitch_bend_c, 1, 2458
3, 13504, Pitch_bend_c, 1, 2367
3, 13505, Pitch_bend_c, 1, 2276
3, 13506, Pitch_bend_c, 1, 2185
3, 13507, Pitch_bend_c, 1, 2094
3, 13508, Pitch_bend_c, 1, 2003
3, 13509, Pitch_bend_c, 1, 1912
3, 13510, Pitch_bend_c, 1, 1821
3, 13511, Pitch_bend_c, 1, 1730
3, 13512, Pitch_bend_c, 1, 1639
3, 13513, Pitch_bend_c, 1, 1548
3, 13514, Pitch_bend_c, 1, 1457
3, 13515, Pitch_bend_c, 1, 1366
3, 13516, Pitch_bend_c, 1, 1275
3, 13517, Pitch_bend_c, 1, 1184
3, 13518, Pitch_bend_c, 1, 1093
3, 13519, Pitch_bend_c, 1, 1002
3, 13520, Pitch_bend_c, 1, 911
3, 13521, Pitch_bend_c, 1, 820
3, 13522, Pitch_bend_c, 1, 729
3, 13523, Pitch_bend_c, 1, 638
3, 13524, Pitch_bend_c, 1, 547
3, 13525, Pitch_bend_c, 1, 456
3, 13526, Pitch_bend_c, 1, 365
3, 13527, Pitch_bend_c, 1, 274
3, 13528, Pitch_bend_c, 1, 183
3, 13529, Pitch_bend_c, 1, 92
3, 13530, Note_on_c, 1, 40, 0
3, 13531, Pitch_bend_c, 1, 1
3, 13801, Control_c, 1, 101, 0
3, 13801, Control_c, 1, 100, 0
3, 13801, Control_c, 1, 6, 2
3, 13801, Control_c, 1, 38, 0
3, 13861, Pitch_bend_c, 1, 8192
3, 13861, Note_on_c, 1, 33, 57
3, 13980, Note_on_c, 1, 33, 0
3, 13981, Note_on_c, 1, 33, 59
3, 14035, Note_on_c, 1, 33, 0
3, 14039, Note_on_c, 1, 33, 58
3, 14095, Note_on_c, 1, 33, 0
3, 14100, Note_on_c, 1, 33, 57
3, 14159, Note_on_c, 1, 33, 0
3, 14160, Note_on_c, 1, 33, 54
3, 14220, Note_on_c, 1, 33, 0
3, 14220, Note_on_c, 1, 33, 58
3, 14280, Note_on_c, 1, 33, 0
3, 14281, Note_on_c, 1, 33, 53
3, 14340, Note_on_c, 1, 33, 0
3, 14340, Note_on_c, 1, 35, 59
3, 14399, Note_on_c, 1, 35, 0
3, 14400, Note_on_c, 1, 35, 57
3, 14459, Note_on_c, 1, 35, 0
3, 14460, Note_on_c, 1, 35, 57
3, 14520, Note_on_c, 1, 35, 0
3, 14520, Note_on_c, 1, 35, 59
3, 14574, Note_on_c, 1, 35, 0
3, 14580, Note_on_c, 1, 35, 54
3, 14639, Note_on_c, 1, 35, 0
3, 14640, Note_on_c, 1, 35, 53
3, 14700, Note_on_c, 1, 35, 0
3, 14700, Note_on_c, 1, 35, 53
3, 14759, Note_on_c, 1, 35, 0
3, 14759, Note_on_c, 1, 33, 57
3, 14819, Note_on_c, 1, 33, 0
3, 14820, Note_on_c, 1, 38, 58
3, 14940, Note_on_c, 1, 38, 0
3, 14940, Note_on_c, 1, 38, 54
3, 15000, Note_on_c, 1, 38, 0
3, 15000, Note_on_c, 1, 38, 55
3, 15055, Note_on_c, 1, 38, 0
3, 15060, Note_on_c, 1, 38, 53
3, 15120, Note_on_c, 1, 38, 0
3, 15121, Note_on_c, 1, 38, 57
3, 15179, Note_on_c, 1, 38, 0
3, 15180, Note_on_c, 1, 38, 55
3, 15240, Note_on_c, 1, 38, 0
3, 15241, Note_on_c, 1, 38, 59
3, 15300, Note_on_c, 1, 38, 0
3, 15300, Note_on_c, 1, 38, 55
3, 15360, Note_on_c, 1, 38, 0
3, 15360, Note_on_c, 1, 38, 54
3, 15419, Note_on_c, 1, 38, 0
3, 15419, Note_on_c, 1, 38, 57
3, 15479, Note_on_c, 1, 38, 0
3, 15480, Note_on_c, 1, 38, 58
3, 15535, Note_on_c, 1, 38, 0
3, 15539, Note_on_c, 1, 38, 59
3, 15599, Note_on_c, 1, 38, 0
3, 15600, Note_on_c, 1, 38, 55
3, 15660, Note_on_c, 1, 38, 0
3, 15661, Note_on_c, 1, 38, 59
3, 15719, Note_on_c, 1, 38, 0
3, 15720, Note_on_c, 1, 30, 53
3, 15779, Note_on_c, 1, 30, 0
3, 15779, Note_on_c, 1, 33, 58
3, 15899, Note_on_c, 1, 33, 0
3, 15900, Note_on_c, 1, 33, 54
3, 15954, Note_on_c, 1, 33, 0
3, 15960, Note_on_c, 1, 33, 55
3, 16014, Note_on_c, 1, 33, 0
3, 16020, Note_on_c, 1, 33, 53
3, 16080, Note_on_c, 1, 33, 0
3, 16081, Note_on_c, 1, 33, 59
3, 16139, Note_on_c, 1, 33, 0
3, 16140, Note_on_c, 1, 33, 59
3, 16199, Note_on_c, 1, 33, 0
3, 16200, Note_on_c, 1, 33, 53
3, 16259, Note_on_c, 1, 33, 0
3, 16260, Note_on_c, 1, 35, 56
3, 16320, Note_on_c, 1, 35, 0
3, 16320, Note_on_c, 1, 35, 53
3, 16379, Note_on_c, 1, 35, 0
3, 16380, Note_on_c, 1, 35, 56
3, 16440, Note_on_c, 1, 35, 0
3, 16441, Note_on_c, 1, 35, 57
3, 16494, Note_on_c, 1, 35, 0
3, 16500, Note_on_c, 1, 35, 54
3, 16559, Note_on_c, 1, 35, 0
3, 16560, Note_on_c, 1, 35, 56
3, 16620, Note_on_c, 1, 35, 0
3, 16621, Note_on_c, 1, 35, 59
3, 16680, Note_on_c, 1, 35, 0
3, 16680, Note_on_c, 1, 35, 54
3, 16739, Note_on_c, 1, 35, 0
3, 16740, Note_on_c, 1, 38, 54
3, 16859, Note_on_c, 1, 38, 0
3, 16860, Note_on_c, 1, 38, 54
3, 16919, Note_on_c, 1, 38, 0
3, 16920, Note_on_c, 1, 38, 55
3, 16974, Note_on_c, 1, 38, 0
3, 16979, Note_on_c, 1, 38, 54
3, 17039, Note_on_c, 1, 38, 0
3, 17040, Note_on_c, 1, 38, 57
3, 17099, Note_on_c, 1, 38, 0
3, 17100, Note_on_c, 1, 38, 58
3, 17160, Note_on_c, 1, 38, 0
3, 17160, Note_on_c, 1, 38, 55
3, 17219, Note_on_c, 1, 38, 0
3, 17220, Note_on_c, 1, 38, 58
3, 17280, Note_on_c, 1, 38, 0
3, 17281, Note_on_c, 1, 38, 56
3, 17340, Note_on_c, 1, 38, 0
3, 17341, Note_on_c, 1, 38, 58
3, 17400, Note_on_c, 1, 38, 0
3, 17400, Note_on_c, 1, 38, 59
3, 17455, Note_on_c, 1, 38, 0
3, 17460, Note_on_c, 1, 38, 59
3, 17520, Note_on_c, 1, 38, 0
3, 17521, Note_on_c, 1, 38, 58
3, 17579, Note_on_c, 1, 38, 0
3, 17579, Note_on_c, 1, 38, 56
3, 17640, Note_on_c, 1, 38, 0
3, 17641, Note_on_c, 1, 28, 53
3, 17700, Note_on_c, 1, 28, 0
3, 17700, Note_on_c, 1, 30, 56
3, 17819, Note_on_c, 1, 30, 0
3, 17820, Note_on_c, 1, 30, 54
3, 17879, Note_on_c, 1, 30, 0
3, 17879, Note_on_c, 1, 30, 59
3, 17969, Note_on_c, 1, 30, 0
3, 18060, Note_on_c, 1, 35, 59
3, 18120, Note_on_c, 1, 35, 0
3, 18180, Note_on_c, 1, 30, 55
3, 18300, Note_on_c, 1, 30, 0
3, 18301, Note_on_c, 1, 30, 53
3, 18359, Note_on_c, 1, 30, 0
3, 18360, Note_on_c, 1, 30, 55
3, 18450, Note_on_c, 1, 30, 0
3, 18540, Note_on_c, 1, 28, 58
3, 18600, Note_on_c, 1, 28, 0
3, 18659, Note_on_c, 1, 30, 59
3, 18779, Note_on_c, 1, 30, 0
3, 18780, Note_on_c, 1, 30, 55
3, 18840, Note_on_c, 1, 30, 0
3, 18841, Note_on_c, 1, 30, 55
3, 18930, Note_on_c, 1, 30, 0
3, 19020, Note_on_c, 1, 35, 55
3, 19079, Note_on_c, 1, 35, 0
3, 19140, Note_on_c, 1, 30, 55
3, 19260, Note_on_c, 1, 30, 0
3, 19260, Note_on_c, 1, 30, 56
3, 19319, Note_on_c, 1, 30, 0
3, 19320, Note_on_c, 1, 30, 55
3, 19409, Note_on_c, 1, 30, 0
3, 19440, Note_on_c, 1, 42, 58
3, 19464, Note_on_c, 1, 42, 0
3, 19469, Note_on_c, 1, 40, 57
3, 19495, Note_on_c, 1, 40, 0
3, 19500, Note_on_c, 1, 37, 59
3, 19559, Note_on_c, 1, 37, 0
3, 19560, Note_on_c, 1, 33, 54
3, 19619, Note_on_c, 1, 33, 0
3, 19619, Note_on_c, 1, 30, 57
3, 19739, Note_on_c, 1, 30, 0
3, 19740, Note_on_c, 1, 30, 59
3, 19800, Note_on_c, 1, 30, 0
3, 19800, Note_on_c, 1, 30, 59
3, 19889, Note_on_c, 1, 30, 0
3, 19979, Note_on_c, 1, 35, 53
3, 20039, Note_on_c, 1, 35, 0
3, 20100, Note_on_c, 1, 30, 53
3, 20219, Note_on_c, 1, 30, 0
3, 20219, Note_on_c, 1, 30, 55
3, 20280, Note_on_c, 1, 30, 0
3, 20281, Note_on_c, 1, 30, 58
3, 20370, Note_on_c, 1, 30, 0
3, 20460, Note_on_c, 1, 28, 54
3, 20520, Note_on_c, 1, 28, 0
3, 20579, Note_on_c, 1, 30, 53
3, 20699, Note_on_c, 1, 30, 0
3, 20700, Note_on_c, 1, 30, 53
3, 20759, Note_on_c, 1, 30, 0
3, 20760, Note_on_c, 1, 30, 54
3, 20850, Note_on_c, 1, 30, 0
3, 20939, Note_on_c, 1, 35, 59
3, 20999, Note_on_c, 1, 35, 0
3, 21060, Note_on_c, 1, 30, 53
3, 21179, Note_on_c, 1, 30, 0
3, 21180, Note_on_c, 1, 30, 55
3, 21239, Note_on_c, 1, 30, 0
3, 21240, Note_on_c, 1, 30, 54
3, 21299, Note_on_c, 1, 30, 0
3, 21300, Note_on_c, 1, 30, 57
3, 21359, Note_on_c, 1, 30, 0
3, 21360, Note_on_c, 1, 30, 55
3, 21420, Note_on_c, 1, 30, 0
3, 21420, Note_on_c, 1, 30, 56
3, 21479, Note_on_c, 1, 30, 0
3, 21480, Note_on_c, 1, 28, 58
3, 21540, Note_on_c, 1, 28, 0
3, 21541, Note_on_c, 1, 38, 57
3, 21660, Note_on_c, 1, 38, 0
3, 21660, Note_on_c, 1, 38, 57
3, 21720, Note_on_c, 1, 38, 0
3, 21721, Note_on_c, 1, 38, 57
3, 21775, Note_on_c, 1, 38, 0
3, 21780, Note_on_c, 1, 38, 55
3, 21840, Note_on_c, 1, 38, 0
3, 21841, Note_on_c, 1, 38, 53
3, 21899, Note_on_c, 1, 38, 0
3, 21900, Note_on_c, 1, 38, 53
3, 21960, Note_on_c, 1, 38, 0
3, 21961, Note_on_c, 1, 33, 57
3, 22020, Note_on_c, 1, 33, 0
3, 22020, Note_on_c, 1, 33, 57
3, 22139, Note_on_c, 1, 33, 0
3, 22140, Note_on_c, 1, 33, 59
3, 22199, Note_on_c, 1, 33, 0
3, 22200, Note_on_c, 1, 35, 55
3, 22259, Pitch_bend_c, 1, 12192
3, 22319, Note_on_c, 1, 35, 0
3, 22320, Pitch_bend_c, 1, 8192
3, 22320, Note_on_c, 1, 40, 59
3, 22380, Pitch_bend_c, 1, 16383
3, 22439, Note_on_c, 1, 40, 0
3, 22440, Pitch_bend_c, 1, 8192
3, 22440, Note_on_c, 1, 40, 54
3, 22500, Note_on_c, 1, 40, 0
3, 22501, Note_on_c, 1, 38, 55
3, 22559, Note_on_c, 1, 38, 0
3, 22560, Note_on_c, 1, 38, 54
3, 22620, Note_on_c, 1, 38, 0
3, 22620, Note_on_c, 1, 38, 59
3, 22679, Note_on_c, 1, 38, 0
3, 22680, Note_on_c, 1, 38, 57
3, 22735, Note_on_c, 1, 38, 0
3, 22739, Note_on_c, 1, 38, 58
3, 22800, Note_on_c, 1, 38, 0
3, 22801, Note_on_c, 1, 38, 59
3, 22859, Note_on_c, 1, 38, 0
3, 22860, Note_on_c, 1, 38, 57
3, 22920, Note_on_c, 1, 38, 0
3, 22920, Note_on_c, 1, 33, 54
3, 22979, Note_on_c, 1, 33, 0
3, 22980, Note_on_c, 1, 45, 57
3, 23099, Note_on_c, 1, 45, 0
3, 23100, Note_on_c, 1, 33, 57
3, 23159, Note_on_c, 1, 33, 0
3, 23159, Note_on_c, 1, 35, 57
3, 23219, Pitch_bend_c, 1, 16383
3, 23279, Note_on_c, 1, 35, 0
3, 23279, Pitch_bend_c, 1, 8192
3, 23279, Note_on_c, 1, 40, 55
3, 23340, Pitch_bend_c, 1, 16383
3, 23399, Note_on_c, 1, 40, 0
3, 23400, Pitch_bend_c, 1, 8192
3, 23400, Note_on_c, 1, 40, 56
3, 23460, Note_on_c, 1, 40, 0
3, 23460, Note_on_c, 1, 38, 55
3, 23579, Note_on_c, 1, 38, 0
3, 23579, Note_on_c, 1, 38, 56
3, 23639, Note_on_c, 1, 38, 0
3, 23640, Note_on_c, 1, 38, 59
3, 23640, Note_on_c, 1, 38, 59
3, 23695, Note_on_c, 1, 38, 0
3, 23699, Note_on_c, 1, 38, 0
3, 23700, Note_on_c, 1, 38, 56
3, 23760, Note_on_c, 1, 38, 0
3, 23761, Note_on_c, 1, 38, 55
3, 23820, Note_on_c, 1, 38, 0
3, 23821, Note_on_c, 1, 38, 58
3, 23880, Note_on_c, 1, 38, 0
3, 23880, Note_on_c, 1, 38, 58
3, 23939, Note_on_c, 1, 38, 0
3, 23940, Note_on_c, 1, 39, 58
3, 24000, Note_on_c, 1, 39, 0
3, 24001, Note_on_c, 1, 39, 56
3, 24060, Note_on_c, 1, 39, 0
3, 24060, Note_on_c, 1, 39, 54
3, 24119, Note_on_c, 1, 39, 0
3, 24120, Note_on_c, 1, 39, 57
3, 24120, Note_on_c, 1, 39, 56
3, 24180, Note_on_c, 1, 39, 0
3, 24180, Note_on_c, 1, 39, 0
3, 24180, Note_on_c, 1, 39, 54
3, 24240, Note_on_c, 1, 39, 0
3, 24241, Note_on_c, 1, 39, 54
3, 24299, Note_on_c, 1, 39, 0
3, 24300, Note_on_c, 1, 39, 56
3, 24360, Note_on_c, 1, 39, 0
3, 24361, Note_on_c, 1, 39, 57
3, 24420, Note_on_c, 1, 39, 0
3, 24420, Note_on_c, 1, 40, 53
3, 24540, Note_on_c, 1, 40, 0
3, 24540, Note_on_c, 1, 40, 57
3, 24600, Note_on_c, 1, 40, 0
3, 24601, Note_on_c, 1, 40, 56
3, 24601, Note_on_c, 1, 40, 53
3, 24655, Note_on_c, 1, 40, 0
3, 24660, Note_on_c, 1, 40, 0
3, 24660, Note_on_c, 1, 40, 53
3, 24719, Note_on_c, 1, 40, 0
3, 24720, Note_on_c, 1, 40, 55
3, 24780, Note_on_c, 1, 40, 0
3, 24780, Note_on_c, 1, 40, 55
3, 24840, Note_on_c, 1, 40, 0
3, 24840, Control_c, 1, 101, 0
3, 24840, Control_c, 1, 100, 0
3, 24840, Control_c, 1, 6, 6
3, 24840, Control_c, 1, 38, 0
3, 24840, Note_on_c, 1, 40, 56
3, 24899, Note_on_c, 1, 40, 0
3, 24899, Note_on_c, 1, 40, 56
3, 24960, Pitch_bend_c, 1, 8192
3, 24961, Pitch_bend_c, 1, 8100
3, 24962, Pitch_bend_c, 1, 8009
3, 24963, Pitch_bend_c, 1, 7918
3, 24964, Pitch_bend_c, 1, 7827
3, 24965, Pitch_bend_c, 1, 7736
3, 24966, Pitch_bend_c, 1, 7645
3, 24967, Pitch_bend_c, 1, 7554
3, 24968, Pitch_bend_c, 1, 7463
3, 24969, Pitch_bend_c, 1, 7372
3, 24970, Pitch_bend_c, 1, 7281
3, 24971, Pitch_bend_c, 1, 7190
3, 24972, Pitch_bend_c, 1, 7099
3, 24973, Pitch_bend_c, 1, 7008
3, 24974, Pitch_bend_c, 1, 6917
3, 24975, Pitch_bend_c, 1, 6826
3, 24976, Pitch_bend_c, 1, 6735
3, 24977, Pitch_bend_c, 1, 6644
3, 24978, Pitch_bend_c, 1, 6553
3, 24979, Pitch_bend_c, 1, 6462
3, 24980, Pitch_bend_c, 1, 6371
3, 24981, Pitch_bend_c, 1, 6280
3, 24982, Pitch_bend_c, 1, 6189
3, 24983, Pitch_bend_c, 1, 6098
3, 24984, Pitch_bend_c, 1, 6007
3, 24985, Pitch_bend_c, 1, 5916
3, 24986, Pitch_bend_c, 1, 5825
3, 24987, Pitch_bend_c, 1, 5734
3, 24988, Pitch_bend_c, 1, 5643
3, 24989, Pitch_bend_c, 1, 5552
3, 24990, Pitch_bend_c, 1, 5461
3, 24991, Pitch_bend_c, 1, 5370
3, 24992, Pitch_bend_c, 1, 5279
3, 24993, Pitch_bend_c, 1, 5188
3, 24994, Pitch_bend_c, 1, 5097
3, 24995, Pitch_bend_c, 1, 5006
3, 24996, Pitch_bend_c, 1, 4915
3, 24997, Pitch_bend_c, 1, 4824
3, 24998, Pitch_bend_c, 1, 4733
3, 24999, Pitch_bend_c, 1, 4642
3, 25000, Pitch_bend_c, 1, 4551
3, 25001, Pitch_bend_c, 1, 4460
3, 25002, Pitch_bend_c, 1, 4369
3, 25003, Pitch_bend_c, 1, 4278
3, 25004, Pitch_bend_c, 1, 4187
3, 25005, Pitch_bend_c, 1, 4096
3, 25006, Pitch_bend_c, 1, 4005
3, 25007, Pitch_bend_c, 1, 3914
3, 25008, Pitch_bend_c, 1, 3823
3, 25009, Pitch_bend_c, 1, 3732
3, 25010, Pitch_bend_c, 1, 3641
3, 25011, Pitch_bend_c, 1, 3550
3, 25012, Pitch_bend_c, 1, 3459
3, 25013, Pitch_bend_c, 1, 3368
3, 25014, Pitch_bend_c, 1, 3277
3, 25015, Pitch_bend_c, 1, 3186
3, 25016, Pitch_bend_c, 1, 3095
3, 25017, Pitch_bend_c, 1, 3004
3, 25018, Pitch_bend_c, 1, 2913
3, 25019, Pitch_bend_c, 1, 2822
3, 25020, Pitch_bend_c, 1, 2731
3, 25021, Pitch_bend_c, 1, 2640
3, 25022, Pitch_bend_c, 1, 2549
3, 25023, Pitch_bend_c, 1, 2458
3, 25024, Pitch_bend_c, 1, 2367
3, 25025, Pitch_bend_c, 1, 2276
3, 25026, Pitch_bend_c, 1, 2185
3, 25027, Pitch_bend_c, 1, 2094
3, 25028, Pitch_bend_c, 1, 2003
3, 25029, Pitch_bend_c, 1, 1912
3, 25030, Pitch_bend_c, 1, 1821
3, 25031, Pitch_bend_c, 1, 1730
3, 25032, Pitch_bend_c, 1, 1639
3, 25033, Pitch_bend_c, 1, 1548
3, 25034, Pitch_bend_c, 1, 1457
3, 25035, Pitch_bend_c, 1, 1366
3, 25036, Pitch_bend_c, 1, 1275
3, 25037, Pitch_bend_c, 1, 1184
3, 25038, Pitch_bend_c, 1, 1093
3, 25039, Pitch_bend_c, 1, 1002
3, 25040, Pitch_bend_c, 1, 911
3, 25041, Pitch_bend_c, 1, 820
3, 25042, Pitch_bend_c, 1, 729
3, 25043, Pitch_bend_c, 1, 638
3, 25044, Pitch_bend_c, 1, 547
3, 25045, Pitch_bend_c, 1, 456
3, 25046, Pitch_bend_c, 1, 365
3, 25047, Pitch_bend_c, 1, 274
3, 25048, Pitch_bend_c, 1, 183
3, 25049, Note_on_c, 1, 40, 0
3, 25049, Pitch_bend_c, 1, 92
3, 25050, Pitch_bend_c, 1, 1
3, 25380, Pitch_bend_c, 1, 8192
3, 25380, Note_on_c, 1, 33, 56
3, 25499, Note_on_c, 1, 33, 0
3, 25499, Note_on_c, 1, 33, 58
3, 25554, Note_on_c, 1, 33, 0
3, 25560, Note_on_c, 1, 33, 56
3, 25615, Note_on_c, 1, 33, 0
3, 25620, Note_on_c, 1, 33, 53
3, 25680, Note_on_c, 1, 33, 0
3, 25681, Note_on_c, 1, 33, 57
3, 25740, Note_on_c, 1, 33, 0
3, 25741, Note_on_c, 1, 33, 54
3, 25799, Note_on_c, 1, 33, 0
3, 25800, Note_on_c, 1, 33, 58
3, 25859, Note_on_c, 1, 33, 0
3, 25860, Note_on_c, 1, 35, 56
3, 25920, Note_on_c, 1, 35, 0
3, 25921, Note_on_c, 1, 35, 56
3, 25980, Note_on_c, 1, 35, 0
3, 25980, Note_on_c, 1, 35, 56
3, 26040, Note_on_c, 1, 35, 0
3, 26041, Note_on_c, 1, 35, 56
3, 26094, Note_on_c, 1, 35, 0
3, 26100, Note_on_c, 1, 35, 59
3, 26160, Note_on_c, 1, 35, 0
3, 26161, Note_on_c, 1, 35, 55
3, 26219, Note_on_c, 1, 35, 0
3, 26219, Note_on_c, 1, 35, 58
3, 26279, Note_on_c, 1, 35, 0
3, 26280, Note_on_c, 1, 33, 57
3, 26339, Note_on_c, 1, 33, 0
3, 26340, Note_on_c, 1, 38, 53
3, 26459, Note_on_c, 1, 38, 0
3, 26460, Note_on_c, 1, 38, 58
3, 26519, Note_on_c, 1, 38, 0
3, 26520, Note_on_c, 1, 38, 53
3, 26575, Note_on_c, 1, 38, 0
3, 26580, Note_on_c, 1, 38, 53
3, 26640, Note_on_c, 1, 38, 0
3, 26640, Note_on_c, 1, 38, 59
3, 26700, Note_on_c, 1, 38, 0
3, 26700, Note_on_c, 1, 38, 54
3, 26759, Note_on_c, 1, 38, 0
3, 26760, Note_on_c, 1, 38, 53
3, 26819, Note_on_c, 1, 38, 0
3, 26819, Note_on_c, 1, 38, 55
3, 26880, Note_on_c, 1, 38, 0
3, 26881, Note_on_c, 1, 38, 56
3, 26940, Note_on_c, 1, 38, 0
3, 26940, Note_on_c, 1, 38, 56
3, 26999, Note_on_c, 1, 38, 0
3, 26999, Note_on_c, 1, 38, 55
3, 27054, Note_on_c, 1, 38, 0
3, 27059, Note_on_c, 1, 38, 55
3, 27119, Note_on_c, 1, 38, 0
3, 27120, Note_on_c, 1, 38, 59
3, 27179, Note_on_c, 1, 38, 0
3, 27179, Note_on_c, 1, 38, 58
3, 27240, Note_on_c, 1, 38, 0
3, 27241, Note_on_c, 1, 30, 57
3, 27299, Note_on_c, 1, 30, 0
3, 27299, Note_on_c, 1, 33, 58
3, 27419, Note_on_c, 1, 33, 0
3, 27420, Note_on_c, 1, 33, 55
3, 27475, Note_on_c, 1, 33, 0
3, 27480, Note_on_c, 1, 33, 55
3, 27535, Note_on_c, 1, 33, 0
3, 27540, Note_on_c, 1, 33, 58
3, 27599, Note_on_c, 1, 33, 0
3, 27600, Note_on_c, 1, 33, 53
3, 27660, Note_on_c, 1, 33, 0
3, 27661, Note_on_c, 1, 33, 54
3, 27720, Note_on_c, 1, 33, 0
3, 27720, Note_on_c, 1, 33, 58
3, 27779, Note_on_c, 1, 33, 0
3, 27780, Note_on_c, 1, 35, 57
3, 27839, Note_on_c, 1, 35, 0
3, 27840, Note_on_c, 1, 35, 59
3, 27899, Note_on_c, 1, 35, 0
3, 27900, Note_on_c, 1, 35, 58
3, 27959, Note_on_c, 1, 35, 0
3, 27960, Note_on_c, 1, 35, 53
3, 28014, Note_on_c, 1, 35, 0
3, 28020, Note_on_c, 1, 35, 54
3, 28079, Note_on_c, 1, 35, 0
3, 28080, Note_on_c, 1, 35, 56
3, 28140, Note_on_c, 1, 35, 0
3, 28140, Note_on_c, 1, 35, 53
3, 28199, Note_on_c, 1, 35, 0
3, 28200, Note_on_c, 1, 35, 55
3, 28259, Note_on_c, 1, 35, 0
3, 28260, Note_on_c, 1, 38, 57
3, 28379, Note_on_c, 1, 38, 0
3, 28380, Note_on_c, 1, 38, 55
3, 28439, Note_on_c, 1, 38, 0
3, 28440, Note_on_c, 1, 38, 59
3, 28495, Note_on_c, 1, 38, 0
3, 28499, Note_on_c, 1, 38, 59
3, 28559, Note_on_c, 1, 38, 0
3, 28560, Note_on_c, 1, 38, 58
3, 28619, Note_on_c, 1, 38, 0
3, 28620, Note_on_c, 1, 38, 59
3, 28679, Note_on_c, 1, 38, 0
3, 28680, Note_on_c, 1, 38, 54
3, 28739, Note_on_c, 1, 38, 0
3, 28740, Note_on_c, 1, 38, 59
3, 28799, Note_on_c, 1, 38, 0
3, 28800, Note_on_c, 1, 38, 55
3, 28859, Note_on_c, 1, 38, 0
3, 28860, Note_on_c, 1, 38, 58
3, 28919, Note_on_c, 1, 38, 0
3, 28920, Note_on_c, 1, 38, 53
3, 28974, Note_on_c, 1, 38, 0
3, 28980, Note_on_c, 1, 38, 58
3, 29039, Note_on_c, 1, 38, 0
3, 29040, Note_on_c, 1, 38, 58
3, 29100, Note_on_c, 1, 38, 0
3, 29100, Note_on_c, 1, 38, 53
3, 29159, Note_on_c, 1, 38, 0
3, 29160, Note_on_c, 1, 30, 56
3, 29220, Note_on_c, 1, 30, 0
3, 29221, Note_on_c, 1, 33, 58
3, 29340, Note_on_c, 1, 33, 0
3, 29340, Note_on_c, 1, 33, 54
3, 29395, Note_on_c, 1, 33, 0
3, 29400, Note_on_c, 1, 33, 55
3, 29454, Note_on_c, 1, 33, 0
3, 29459, Note_on_c, 1, 33, 54
3, 29519, Note_on_c, 1, 33, 0
3, 29519, Note_on_c, 1, 33, 54
3, 29579, Note_on_c, 1, 33, 0
3, 29580, Note_on_c, 1, 33, 53
3, 29640, Note_on_c, 1, 33, 0
3, 29640, Note_on_c, 1, 33, 56
3, 29699, Note_on_c, 1, 33, 0
3, 29700, Note_on_c, 1, 35, 53
3, 29760, Note_on_c, 1, 35, 0
3, 29761, Note_on_c, 1, 35, 59
3, 29819, Note_on_c, 1, 35, 0
3, 29820, Note_on_c, 1, 35, 56
3, 29880, Note_on_c, 1, 35, 0
3, 29880, Note_on_c, 1, 35, 59
3, 29934, Note_on_c, 1, 35, 0
3, 29940, Note_on_c, 1, 35, 56
3, 30000, Note_on_c, 1, 35, 0
3, 30000, Note_on_c, 1, 35, 56
3, 30059, Note_on_c, 1, 35, 0
3, 30060, Note_on_c, 1, 35, 53
3, 30119, Note_on_c, 1, 35, 0
3, 30120, Note_on_c, 1, 33, 54
3, 30179, Note_on_c, 1, 33, 0
3, 30180, Note_on_c, 1, 38, 55
3, 30299, Note_on_c, 1, 38, 0
3, 30300, Note_on_c, 1, 38, 55
3, 30359, Note_on_c, 1, 38, 0
3, 30360, Note_on_c, 1, 38, 55
3, 30415, Note_on_c, 1, 38, 0
3, 30420, Note_on_c, 1, 38, 53
3, 30479, Note_on_c, 1, 38, 0
3, 30480, Note_on_c, 1, 38, 55
3, 30539, Note_on_c, 1, 38, 0
3, 30540, Note_on_c, 1, 38, 55
3, 30599, Note_on_c, 1, 38, 0
3, 30599, Note_on_c, 1, 38, 54
3, 30660, Note_on_c, 1, 38, 0
3, 30661, Note_on_c, 1, 38, 58
3, 30719, Note_on_c, 1, 38, 0
3, 30719, Note_on_c, 1, 38, 54
3, 30779, Note_on_c, 1, 38, 0
3, 30780, Note_on_c, 1, 38, 59
3, 30839, Note_on_c, 1, 38, 0
3, 30840, Note_on_c, 1, 38, 59
3, 30894, Note_on_c, 1, 38, 0
3, 30899, Note_on_c, 1, 38, 59
3, 30959, Note_on_c, 1, 38, 0
3, 30960, Note_on_c, 1, 38, 54
3, 31019, Note_on_c, 1, 38, 0
3, 31020, Note_on_c, 1, 38, 55
3, 31080, Note_on_c, 1, 38, 0
3, 31080, Note_on_c, 1, 30, 55
3, 31139, Note_on_c, 1, 30, 0
3, 31140, Note_on_c, 1, 33, 53
3, 31259, Note_on_c, 1, 33, 0
3, 31260, Note_on_c, 1, 33, 58
3, 31315, Note_on_c, 1, 33, 0
3, 31320, Note_on_c, 1, 33, 55
3, 31374, Note_on_c, 1, 33, 0
3, 31379, Note_on_c, 1, 33, 59
3, 31439, Note_on_c, 1, 33, 0
3, 31440, Note_on_c, 1, 33, 53
3, 31499, Note_on_c, 1, 33, 0
3, 31500, Note_on_c, 1, 33, 54
3, 31560, Note_on_c, 1, 33, 0
3, 31560, Note_on_c, 1, 33, 53
3, 31619, Note_on_c, 1, 33, 0
3, 31620, Note_on_c, 1, 35, 53
3, 31679, Note_on_c, 1, 35, 0
3, 31680, Note_on_c, 1, 35, 58
3, 31739, Note_on_c, 1, 35, 0
3, 31740, Note_on_c, 1, 35, 54
3, 31799, Note_on_c, 1, 35, 0
3, 31800, Note_on_c, 1, 35, 57
3, 31854, Note_on_c, 1, 35, 0
3, 31860, Note_on_c, 1, 35, 56
3, 31920, Note_on_c, 1, 35, 0
3, 31920, Note_on_c, 1, 35, 55
3, 31980, Note_on_c, 1, 35, 0
3, 31980, Note_on_c, 1, 35, 56
3, 32040, Note_on_c, 1, 35, 0
3, 32041, Note_on_c, 1, 35, 54
3, 32100, Note_on_c, 1, 35, 0
3, 32100, Note_on_c, 1, 38, 54
3, 32219, Note_on_c, 1, 38, 0
3, 32220, Note_on_c, 1, 38, 55
3, 32279, Note_on_c, 1, 38, 0
3, 32280, Note_on_c, 1, 38, 58
3, 32335, Note_on_c, 1, 38, 0
3, 32340, Note_on_c, 1, 38, 57
3, 32400, Note_on_c, 1, 38, 0
3, 32401, Note_on_c, 1, 38, 56
3, 32459, Note_on_c, 1, 38, 0
3, 32459, Note_on_c, 1, 38, 55
3, 32520, Note_on_c, 1, 38, 0
3, 32521, Note_on_c, 1, 38, 59
3, 32580, Note_on_c, 1, 38, 0
3, 32580, Note_on_c, 1, 38, 58
3, 32639, Note_on_c, 1, 38, 0
3, 32639, Note_on_c, 1, 38, 58
3, 32699, Note_on_c, 1, 38, 0
3, 32700, Note_on_c, 1, 38, 54
3, 32760, Note_on_c, 1, 38, 0
3, 32761, Note_on_c, 1, 38, 55
3, 32815, Note_on_c, 1, 38, 0
3, 32820, Note_on_c, 1, 38, 56
3, 32879, Note_on_c, 1, 38, 0
3, 32879, Note_on_c, 1, 38, 59
3, 32939, Note_on_c, 1, 38, 0
3, 32940, Note_on_c, 1, 38, 59
3, 33000, Note_on_c, 1, 38, 0
3, 33000, Note_on_c, 1, 30, 56
3, 33060, Note_on_c, 1, 30, 0
3, 33061, Note_on_c, 1, 33, 57
3, 33179, Note_on_c, 1, 33, 0
3, 33180, Note_on_c, 1, 33, 57
3, 33235, Note_on_c, 1, 33, 0
3, 33239, Note_on_c, 1, 33, 58
3, 33294, Note_on_c, 1, 33, 0
3, 33300, Note_on_c, 1, 33, 56
3, 33359, Note_on_c, 1, 33, 0
3, 33360, Note_on_c, 1, 33, 54
3, 33419, Note_on_c, 1, 33, 0
3, 33419, Note_on_c, 1, 33, 56
3, 33479, Note_on_c, 1, 33, 0
3, 33480, Note_on_c, 1, 33, 59
3, 33539, Note_on_c, 1, 33, 0
3, 33540, Note_on_c, 1, 35, 53
3, 33599, Note_on_c, 1, 35, 0
3, 33599, Note_on_c, 1, 35, 56
3, 33659, Note_on_c, 1, 35, 0
3, 33659, Note_on_c, 1, 35, 53
3, 33719, Note_on_c, 1, 35, 0
3, 33720, Note_on_c, 1, 35, 55
3, 33775, Note_on_c, 1, 35, 0
3, 33779, Note_on_c, 1, 35, 58
3, 33839, Note_on_c, 1, 35, 0
3, 33840, Note_on_c, 1, 35, 53
3, 33899, Note_on_c, 1, 35, 0
3, 33900, Note_on_c, 1, 35, 59
3, 33960, Note_on_c, 1, 35, 0
3, 33961, Note_on_c, 1, 33, 56
3, 34019, Note_on_c, 1, 33, 0
3, 34020, Note_on_c, 1, 38, 59
3, 34139, Note_on_c, 1, 38, 0
3, 34140, Note_on_c, 1, 38, 53
3, 34199, Note_on_c, 1, 38, 0
3, 34199, Note_on_c, 1, 38, 58
3, 34254, Note_on_c, 1, 38, 0
3, 34260, Note_on_c, 1, 38, 58
3, 34319, Note_on_c, 1, 38, 0
3, 34319, Note_on_c, 1, 38, 53
3, 34379, Note_on_c, 1, 38, 0
3, 34380, Note_on_c, 1, 38, 58
3, 34439, Note_on_c, 1, 38, 0
3, 34440, Note_on_c, 1, 38, 56
3, 34500, Note_on_c, 1, 38, 0
3, 34500, Note_on_c, 1, 38, 54
3, 34560, Note_on_c, 1, 38, 0
3, 34561, Note_on_c, 1, 38, 59
3, 34619, Note_on_c, 1, 38, 0
3, 34620, Note_on_c, 1, 38, 59
3, 34680, Note_on_c, 1, 38, 0
3, 34681, Note_on_c, 1, 38, 57
3, 34735, Note_on_c, 1, 38, 0
3, 34740, Note_on_c, 1, 38, 58
3, 34800, Note_on_c, 1, 38, 0
3, 34801, Note_on_c, 1, 38, 58
3, 34860, Note_on_c, 1, 38, 0
3, 34860, Note_on_c, 1, 38, 56
3, 34919, Note_on_c, 1, 38, 0
3, 34920, Note_on_c, 1, 30, 57
3, 34979, Note_on_c, 1, 30, 0
3, 34980, Note_on_c, 1, 33, 55
3, 35099, Note_on_c, 1, 33, 0
3, 35100, Note_on_c, 1, 33, 55
3, 35154, Note_on_c, 1, 33, 0
3, 35160, Note_on_c, 1, 33, 59
3, 35214, Note_on_c, 1, 33, 0
3, 35219, Note_on_c, 1, 33, 57
3, 35279, Note_on_c, 1, 33, 0
3, 35280, Note_on_c, 1, 33, 53
3, 35339, Note_on_c, 1, 33, 0
3, 35340, Note_on_c, 1, 33, 57
3, 35400, Note_on_c, 1, 33, 0
3, 35400, Note_on_c, 1, 33, 58
3, 35459, Note_on_c, 1, 33, 0
3, 35460, Note_on_c, 1, 35, 54
3, 35519, Note_on_c, 1, 35, 0
3, 35520, Note_on_c, 1, 35, 54
3, 35580, Note_on_c, 1, 35, 0
3, 35581, Note_on_c, 1, 35, 53
3, 35640, Note_on_c, 1, 35, 0
3, 35640, Note_on_c, 1, 35, 55
3, 35694, Note_on_c, 1, 35, 0
3, 35700, Note_on_c, 1, 35, 58
3, 35760, Note_on_c, 1, 35, 0
3, 35760, Note_on_c, 1, 35, 54
3, 35820, Note_on_c, 1, 35, 0
3, 35821, Note_on_c, 1, 35, 59
3, 35879, Note_on_c, 1, 35, 0
3, 35880, Note_on_c, 1, 35, 56
3, 35939, Note_on_c, 1, 35, 0
3, 35940, Note_on_c, 1, 38, 55
3, 36059, Note_on_c, 1, 38, 0
3, 36059, Note_on_c, 1, 38, 56
3, 36119, Note_on_c, 1, 38, 0
3, 36120, Note_on_c, 1, 38, 59
3, 36175, Note_on_c, 1, 38, 0
3, 36179, Note_on_c, 1, 38, 55
3, 36239, Note_on_c, 1, 38, 0
3, 36240, Note_on_c, 1, 38, 57
3, 36300, Note_on_c, 1, 38, 0
3, 36300, Note_on_c, 1, 38, 53
3, 36359, Note_on_c, 1, 38, 0
3, 36359, Note_on_c, 1, 38, 56
3, 36420, Note_on_c, 1, 38, 0
3, 36420, Note_on_c, 1, 38, 55
3, 36479, Note_on_c, 1, 38, 0
3, 36480, Note_on_c, 1, 38, 57
3, 36539, Note_on_c, 1, 38, 0
3, 36540, Note_on_c, 1, 38, 59
3, 36600, Note_on_c, 1, 38, 0
3, 36600, Note_on_c, 1, 38, 58
3, 36654, Note_on_c, 1, 38, 0
3, 36659, Note_on_c, 1, 38, 55
3, 36720, Note_on_c, 1, 38, 0
3, 36720, Note_on_c, 1, 38, 57
3, 36780, Note_on_c, 1, 38, 0
3, 36781, Note_on_c, 1, 38, 59
3, 36840, Note_on_c, 1, 38, 0
3, 36840, Note_on_c, 1, 30, 55
3, 36900, Note_on_c, 1, 30, 0
3, 36901, Note_on_c, 1, 33, 53
3, 37020, Note_on_c, 1, 33, 0
3, 37021, Note_on_c, 1, 33, 56
3, 37075, Note_on_c, 1, 33, 0
3, 40740, Pitch_bend_c, 1, 8192
3, 40740, Note_on_c, 1, 33, 59
3, 40859, Note_on_c, 1, 33, 0
3, 40860, Note_on_c, 1, 33, 53
3, 40915, Note_on_c, 1, 33, 0
3, 40920, Note_on_c, 1, 33, 58
3, 40975, Note_on_c, 1, 33, 0
3, 40979, Note_on_c, 1, 33, 53
3, 41040, Note_on_c, 1, 33, 0
3, 41041, Note_on_c, 1, 33, 53
3, 41099, Note_on_c, 1, 33, 0
3, 41099, Note_on_c, 1, 33, 59
3, 41159, Note_on_c, 1, 33, 0
3, 41160, Note_on_c, 1, 33, 54
3, 41220, Note_on_c, 1, 33, 0
3, 41220, Note_on_c, 1, 35, 55
3, 41279, Note_on_c, 1, 35, 0
3, 41280, Note_on_c, 1, 35, 54
3, 41339, Note_on_c, 1, 35, 0
3, 41340, Note_on_c, 1, 35, 58
3, 41400, Note_on_c, 1, 35, 0
3, 41401, Note_on_c, 1, 35, 55
3, 41455, Note_on_c, 1, 35, 0
3, 41460, Note_on_c, 1, 35, 59
3, 41519, Note_on_c, 1, 35, 0
3, 41520, Note_on_c, 1, 35, 57
3, 41580, Note_on_c, 1, 35, 0
3, 41581, Note_on_c, 1, 35, 56
3, 41640, Note_on_c, 1, 35, 0
3, 41640, Note_on_c, 1, 33, 59
3, 41699, Note_on_c, 1, 33, 0
3, 41700, Note_on_c, 1, 38, 58
3, 41820, Note_on_c, 1, 38, 0
3, 41821, Note_on_c, 1, 38, 58
3, 41880, Note_on_c, 1, 38, 0
3, 41881, Note_on_c, 1, 38, 55
3, 41935, Note_on_c, 1, 38, 0
3, 41939, Note_on_c, 1, 38, 57
3, 42000, Note_on_c, 1, 38, 0
3, 42000, Note_on_c, 1, 38, 53
3, 42059, Note_on_c, 1, 38, 0
3, 42060, Note_on_c, 1, 38, 58
3, 42119, Note_on_c, 1, 38, 0
3, 42120, Note_on_c, 1, 38, 55
3, 42180, Note_on_c, 1, 38, 0
3, 42180, Note_on_c, 1, 38, 53
3, 42240, Note_on_c, 1, 38, 0
3, 42241, Note_on_c, 1, 38, 55
3, 42299, Note_on_c, 1, 38, 0
3, 42300, Note_on_c, 1, 38, 56
3, 42359, Note_on_c, 1, 38, 0
3, 42359, Note_on_c, 1, 38, 58
3, 42414, Note_on_c, 1, 38, 0
3, 42420, Note_on_c, 1, 38, 54
3, 42479, Note_on_c, 1, 38, 0
3, 42480, Note_on_c, 1, 38, 56
3, 42539, Note_on_c, 1, 38, 0
3, 42540, Note_on_c, 1, 38, 57
3, 42599, Note_on_c, 1, 38, 0
3, 42600, Note_on_c, 1, 30, 54
3, 42659, Note_on_c, 1, 30, 0
3, 42660, Note_on_c, 1, 33, 54
3, 42779, Note_on_c, 1, 33, 0
3, 42779, Note_on_c, 1, 33, 56
3, 42835, Note_on_c, 1, 33, 0
3, 42840, Note_on_c, 1, 33, 53
3, 42894, Note_on_c, 1, 33, 0
3, 42899, Note_on_c, 1, 33, 57
3, 42959, Note_on_c, 1, 33, 0
3, 42960, Note_on_c, 1, 33, 54
3, 43019, Note_on_c, 1, 33, 0
3, 43020, Note_on_c, 1, 33, 55
3, 43079, Note_on_c, 1, 33, 0
3, 43080, Note_on_c, 1, 33, 59
3, 43139, Note_on_c, 1, 33, 0
3, 43140, Note_on_c, 1, 35, 53
3, 43200, Note_on_c, 1, 35, 0
3, 43201, Note_on_c, 1, 35, 57
3, 43260, Note_on_c, 1, 35, 0
3, 43260, Note_on_c, 1, 35, 53
3, 43320, Note_on_c, 1, 35, 0
3, 43320, Note_on_c, 1, 35, 55
3, 43375, Note_on_c, 1, 35, 0
3, 43380, Note_on_c, 1, 35, 59
3, 43439, Note_on_c, 1, 35, 0
3, 43440, Note_on_c, 1, 35, 58
3, 43500, Note_on_c, 1, 35, 0
3, 43500, Note_on_c, 1, 35, 54
3, 43559, Note_on_c, 1, 35, 0
3, 43560, Note_on_c, 1, 35, 54
3, 43620, Note_on_c, 1, 35, 0
3, 43620, Note_on_c, 1, 38, 54
3, 43740, Note_on_c, 1, 38, 0
3, 43740, Note_on_c, 1, 38, 56
3, 43800, Note_on_c, 1, 38, 0
3, 43801, Note_on_c, 1, 38, 56
3, 43855, Note_on_c, 1, 38, 0
3, 43859, Note_on_c, 1, 38, 56
3, 43919, Note_on_c, 1, 38, 0
3, 43920, Note_on_c, 1, 38, 57
3, 43980, Note_on_c, 1, 38, 0
3, 43980, Note_on_c, 1, 38, 58
3, 44040, Note_on_c, 1, 38, 0
3, 44041, Note_on_c, 1, 38, 59
3, 44100, Note_on_c, 1, 38, 0
3, 44100, Note_on_c, 1, 38, 59
3, 44159, Note_on_c, 1, 38, 0
3, 44160, Note_on_c, 1, 38, 54
3, 44219, Note_on_c, 1, 38, 0
3, 44219, Note_on_c, 1, 38, 54
3, 44280, Note_on_c, 1, 38, 0
3, 44280, Note_on_c, 1, 38, 57
3, 44335, Note_on_c, 1, 38, 0
3, 44339, Note_on_c, 1, 38, 53
3, 44399, Note_on_c, 1, 38, 0
3, 44400, Note_on_c, 1, 38, 59
3, 44459, Note_on_c, 1, 38, 0
3, 44460, Note_on_c, 1, 38, 59
3, 44520, Note_on_c, 1, 38, 0
3, 44521, Note_on_c, 1, 30, 55
3, 44580, Note_on_c, 1, 30, 0
3, 44580, Pitch_bend_c, 1, 8192
3, 44580, Note_on_c, 1, 33, 57
3, 44700, Note_on_c, 1, 33, 0
3, 44700, Note_on_c, 1, 33, 55
3, 44755, Note_on_c, 1, 33, 0
3, 44760, Note_on_c, 1, 33, 55
3, 44815, Note_on_c, 1, 33, 0
3, 44820, Note_on_c, 1, 33, 58
3, 44879, Note_on_c, 1, 33, 0
3, 44880, Note_on_c, 1, 33, 55
3, 44940, Note_on_c, 1, 33, 0
3, 44940, Note_on_c, 1, 33, 53
3, 44999, Note_on_c, 1, 33, 0
3, 45000, Note_on_c, 1, 33, 59
3, 45059, Note_on_c, 1, 33, 0
3, 45060, Note_on_c, 1, 35, 54
3, 45120, Note_on_c, 1, 35, 0
3, 45120, Note_on_c, 1, 35, 57
3, 45180, Note_on_c, 1, 35, 0
3, 45181, Note_on_c, 1, 35, 56
3, 45240, Note_on_c, 1, 35, 0
3, 45240, Note_on_c, 1, 35, 57
3, 45295, Note_on_c, 1, 35, 0
3, 45299, Note_on_c, 1, 35, 59
3, 45360, Note_on_c, 1, 35, 0
3, 45360, Note_on_c, 1, 35, 56
3, 45419, Note_on_c, 1, 35, 0
3, 45420, Note_on_c, 1, 35, 58
3, 45479, Note_on_c, 1, 35, 0
3, 45479, Note_on_c, 1, 33, 56
3, 45540, Note_on_c, 1, 33, 0
3, 45541, Note_on_c, 1, 38, 54
3, 45659, Note_on_c, 1, 38, 0
3, 45660, Note_on_c, 1, 38, 53
3, 45720, Note_on_c, 1, 38, 0
3, 45721, Note_on_c, 1, 38, 58
3, 45775, Note_on_c, 1, 38, 0
3, 45780, Note_on_c, 1, 38, 54
3, 45839, Note_on_c, 1, 38, 0
3, 45840, Note_on_c, 1, 38, 57
3, 45900, Note_on_c, 1, 38, 0
3, 45900, Note_on_c, 1, 38, 55
3, 45959, Note_on_c, 1, 38, 0
3, 45959, Note_on_c, 1, 38, 56
3, 46019, Note_on_c, 1, 38, 0
3, 46020, Note_on_c, 1, 38, 59
3, 46079, Note_on_c, 1, 38, 0
3, 46080, Note_on_c, 1, 38, 55
3, 46140, Note_on_c, 1, 38, 0
3, 46141, Note_on_c, 1, 38, 55
3, 46200, Note_on_c, 1, 38, 0
3, 46200, Note_on_c, 1, 38, 55
3, 46255, Note_on_c, 1, 38, 0
3, 46260, Note_on_c, 1, 38, 56
3, 46319, Note_on_c, 1, 38, 0
3, 46319, Note_on_c, 1, 38, 59
3, 46379, Note_on_c, 1, 38, 0
3, 46380, Note_on_c, 1, 38, 55
3, 46439, Note_on_c, 1, 38, 0
3, 46440, Note_on_c, 1, 30, 53
3, 46500, Note_on_c, 1, 30, 0
3, 46501, Note_on_c, 1, 33, 58
3, 46620, Note_on_c, 1, 33, 0
3, 46621, Note_on_c, 1, 33, 56
3, 46674, Note_on_c, 1, 33, 0
3, 46679, Note_on_c, 1, 33, 53
3, 46735, Note_on_c, 1, 33, 0
3, 46739, Note_on_c, 1, 33, 53
3, 46800, Note_on_c, 1, 33, 0
3, 46800, Note_on_c, 1, 33, 58
3, 46859, Note_on_c, 1, 33, 0
3, 46860, Note_on_c, 1, 33, 53
3, 46919, Note_on_c, 1, 33, 0
3, 46920, Note_on_c, 1, 33, 53
3, 46980, Note_on_c, 1, 33, 0
3, 46980, Note_on_c, 1, 35, 55
3, 47040, Note_on_c, 1, 35, 0
3, 47041, Note_on_c, 1, 35, 54
3, 47100, Note_on_c, 1, 35, 0
3, 47101, Note_on_c, 1, 35, 55
3, 47160, Note_on_c, 1, 35, 0
3, 47161, Note_on_c, 1, 35, 54
3, 47215, Note_on_c, 1, 35, 0
3, 47220, Note_on_c, 1, 35, 54
3, 47279, Note_on_c, 1, 35, 0
3, 47280, Note_on_c, 1, 35, 57
3, 47339, Note_on_c, 1, 35, 0
3, 47340, Note_on_c, 1, 35, 58
3, 47399, Note_on_c, 1, 35, 0
3, 47400, Note_on_c, 1, 35, 57
3, 47459, Note_on_c, 1, 35, 0
3, 47459, Note_on_c, 1, 38, 56
3, 47579, Note_on_c, 1, 38, 0
3, 47580, Note_on_c, 1, 38, 56
3, 47639, Note_on_c, 1, 38, 0
3, 47639, Note_on_c, 1, 38, 53
3, 47695, Note_on_c, 1, 38, 0
3, 47699, Note_on_c, 1, 38, 57
3, 47759, Note_on_c, 1, 38, 0
3, 47759, Note_on_c, 1, 38, 57
3, 47819, Note_on_c, 1, 38, 0
3, 47820, Note_on_c, 1, 38, 58
3, 47879, Note_on_c, 1, 38, 0
3, 47880, Note_on_c, 1, 38, 58
3, 47939, Note_on_c, 1, 38, 0
3, 47940, Note_on_c, 1, 38, 58
3, 47999, Note_on_c, 1, 38, 0
3, 48000, Note_on_c, 1, 38, 56
3, 48060, Note_on_c, 1, 38, 0
3, 48060, Note_on_c, 1, 38, 53
3, 48120, Note_on_c, 1, 38, 0
3, 48120, Note_on_c, 1, 38, 59
3, 48174, Note_on_c, 1, 38, 0
3, 48180, Note_on_c, 1, 38, 58
3, 48240, Note_on_c, 1, 38, 0
3, 48241, Note_on_c, 1, 38, 56
3, 48299, Note_on_c, 1, 38, 0
3, 48299, Note_on_c, 1, 38, 54
3, 48359, Note_on_c, 1, 38, 0
3, 48360, Note_on_c, 1, 30, 57
3, 48420, Note_on_c, 1, 30, 0
3, 48421, Pitch_bend_c, 1, 8192
3, 48421, Note_on_c, 1, 33, 58
3, 48540, Note_on_c, 1, 33, 0
3, 48541, Note_on_c, 1, 33, 56
3, 48595, Note_on_c, 1, 33, 0
3, 48600, Note_on_c, 1, 33, 55
3, 48654, Note_on_c, 1, 33, 0
3, 48660, Note_on_c, 1, 33, 53
3, 48720, Note_on_c, 1, 33, 0
3, 48721, Note_on_c, 1, 33, 58
3, 48780, Note_on_c, 1, 33, 0
3, 48780, Note_on_c, 1, 33, 57
3, 48840, Note_on_c, 1, 33, 0
3, 48840, Note_on_c, 1, 33, 59
3, 48900, Note_on_c, 1, 33, 0
3, 48901, Note_on_c, 1, 35, 54
3, 48960, Note_on_c, 1, 35, 0
3, 48961, Note_on_c, 1, 35, 57
3, 49019, Note_on_c, 1, 35, 0
3, 49019, Note_on_c, 1, 35, 57
3, 49079, Note_on_c, 1, 35, 0
3, 49080, Note_on_c, 1, 35, 58
3, 49135, Note_on_c, 1, 35, 0
3, 49140, Note_on_c, 1, 35, 53
3, 49199, Note_on_c, 1, 35, 0
3, 49200, Note_on_c, 1, 35, 56
3, 49259, Note_on_c, 1, 35, 0
3, 49260, Note_on_c, 1, 35, 59
3, 49319, Note_on_c, 1, 35, 0
3, 49320, Note_on_c, 1, 33, 58
3, 49379, Note_on_c, 1, 33, 0
3, 49379, Note_on_c, 1, 38, 54
3, 49499, Note_on_c, 1, 38, 0
3, 49500, Note_on_c, 1, 38, 54
3, 49560, Note_on_c, 1, 38, 0
3, 49560, Note_on_c, 1, 38, 57
3, 49615, Note_on_c, 1, 38, 0
3, 49620, Note_on_c, 1, 38, 59
3, 49680, Note_on_c, 1, 38, 0
3, 49681, Note_on_c, 1, 38, 57
3, 49740, Note_on_c, 1, 38, 0
3, 49740, Note_on_c, 1, 38, 59
3, 49799, Note_on_c, 1, 38, 0
3, 49800, Note_on_c, 1, 38, 59
3, 49860, Note_on_c, 1, 38, 0
3, 49861, Note_on_c, 1, 38, 55
3, 49919, Note_on_c, 1, 38, 0
3, 49920, Note_on_c, 1, 38, 59
3, 49979, Note_on_c, 1, 38, 0
3, 49980, Note_on_c, 1, 38, 55
3, 50039, Note_on_c, 1, 38, 0
3, 50040, Note_on_c, 1, 38, 59
3, 50094, Note_on_c, 1, 38, 0
3, 50100, Note_on_c, 1, 38, 58
3, 50160, Note_on_c, 1, 38, 0
3, 50160, Note_on_c, 1, 38, 58
3, 50220, Note_on_c, 1, 38, 0
3, 50221, Note_on_c, 1, 38, 59
3, 50279, Note_on_c, 1, 38, 0
3, 50279, Note_on_c, 1, 30, 59
3, 50339, Note_on_c, 1, 30, 0
3, 50340, Note_on_c, 1, 33, 53
3, 50459, Note_on_c, 1, 33, 0
3, 50460, Note_on_c, 1, 33, 57
3, 50520, Note_on_c, 1, 33, 0
3, 50521, Note_on_c, 1, 33, 59
3, 50580, Note_on_c, 1, 33, 0
3, 50580, End_track
4, 0, Start_track
4, 0, MIDI_port, 0
4, 0, Control_c, 2, 0, 0
4, 0, Control_c, 2, 32, 0
4, 0, Program_c, 2, 30
4, 0, Control_c, 2, 7, 93
4, 0, Control_c, 2, 10, 34
4, 2, Control_c, 2, 1, 0
4, 4, Control_c, 2, 2, 0
4, 6, Control_c, 2, 11, 100
4, 10, Control_c, 2, 101, 0
4, 10, Control_c, 2, 100, 0
4, 10, Control_c, 2, 6, 2
4, 10, Control_c, 2, 38, 0
4, 121, Control_c, 2, 0, 0
4, 126, Control_c, 2, 120, 0
4, 129, Control_c, 2, 121, 0
4, 132, Control_c, 2, 123, 0
4, 141, Control_c, 2, 91, 90
4, 144, Control_c, 2, 93, 24
4, 2340, Note_on_c, 2, 45, 93
4, 2341, Note_on_c, 2, 52, 87
4, 2459, Note_on_c, 2, 52, 0
4, 2460, Note_on_c, 2, 45, 0
4, 2460, Note_on_c, 2, 52, 91
4, 2461, Note_on_c, 2, 45, 89
4, 2514, Note_on_c, 2, 45, 0
4, 2514, Note_on_c, 2, 52, 0
4, 2520, Note_on_c, 2, 45, 88
4, 2520, Note_on_c, 2, 52, 91
4, 2575, Note_on_c, 2, 52, 0
4, 2576, Note_on_c, 2, 45, 0
4, 2580, Note_on_c, 2, 52, 88
4, 2581, Note_on_c, 2, 45, 89
4, 2639, Note_on_c, 2, 45, 0
4, 2640, Note_on_c, 2, 52, 0
4, 2640, Note_on_c, 2, 45, 92
4, 2640, Note_on_c, 2, 52, 90
4, 2699, Note_on_c, 2, 52, 0
4, 2700, Note_on_c, 2, 45, 0
4, 2701, Note_on_c, 2, 52, 93
4, 2701, Note_on_c, 2, 45, 88
4, 2760, Note_on_c, 2, 45, 0
4, 2761, Note_on_c, 2, 52, 0
4, 2761, Note_on_c, 2, 45, 93
4, 2762, Note_on_c, 2, 52, 91
4, 2819, Note_on_c, 2, 52, 0
4, 2819, Note_on_c, 2, 45, 0
4, 2820, Note_on_c, 2, 54, 88
4, 2821, Note_on_c, 2, 47, 92
4, 2879, Note_on_c, 2, 47, 0
4, 2880, Note_on_c, 2, 54, 0
4, 2881, Note_on_c, 2, 47, 89
4, 2881, Note_on_c, 2, 54, 93
4, 2940, Note_on_c, 2, 54, 0
4, 2940, Note_on_c, 2, 47, 0
4, 2941, Note_on_c, 2, 54, 92
4, 2941, Note_on_c, 2, 47, 93
4, 3000, Note_on_c, 2, 47, 0
4, 3000, Note_on_c, 2, 54, 0
4, 3001, Note_on_c, 2, 47, 92
4, 3001, Note_on_c, 2, 54, 87
4, 3055, Note_on_c, 2, 54, 0
4, 3055, Note_on_c, 2, 47, 0
4, 3059, Note_on_c, 2, 54, 88
4, 3061, Note_on_c, 2, 47, 91
4, 3120, Note_on_c, 2, 47, 0
4, 3120, Note_on_c, 2, 54, 0
4, 3121, Note_on_c, 2, 47, 88
4, 3121, Note_on_c, 2, 54, 89
4, 3180, Note_on_c, 2, 54, 0
4, 3180, Note_on_c, 2, 47, 0
4, 3181, Note_on_c, 2, 54, 89
4, 3181, Note_on_c, 2, 47, 88
4, 3239, Note_on_c, 2, 47, 0
4, 3240, Note_on_c, 2, 54, 0
4, 3241, Note_on_c, 2, 47, 87
4, 3241, Note_on_c, 2, 54, 89
4, 3300, Note_on_c, 2, 54, 0
4, 3301, Note_on_c, 2, 47, 0
4, 3301, Note_on_c, 2, 57, 89
4, 3301, Note_on_c, 2, 50, 91
4, 3420, Note_on_c, 2, 50, 0
4, 3420, Note_on_c, 2, 57, 0
4, 3421, Note_on_c, 2, 50, 90
4, 3421, Note_on_c, 2, 57, 92
4, 3479, Note_on_c, 2, 57, 0
4, 3480, Note_on_c, 2, 50, 0
4, 3481, Note_on_c, 2, 57, 88
4, 3481, Note_on_c, 2, 50, 93
4, 3535, Note_on_c, 2, 50, 0
4, 3536, Note_on_c, 2, 57, 0
4, 3540, Note_on_c, 2, 50, 92
4, 3541, Note_on_c, 2, 57, 93
4, 3599, Note_on_c, 2, 57, 0
4, 3600, Note_on_c, 2, 50, 0
4, 3601, Note_on_c, 2, 57, 90
4, 3601, Note_on_c, 2, 50, 88
4, 3660, Note_on_c, 2, 50, 0
4, 3661, Note_on_c, 2, 57, 0
4, 3661, Note_on_c, 2, 50, 93
4, 3662, Note_on_c, 2, 57, 91
4, 3720, Note_on_c, 2, 57, 0
4, 3720, Note_on_c, 2, 50, 0
4, 3721, Note_on_c, 2, 57, 87
4, 3721, Note_on_c, 2, 50, 89
4, 3779, Note_on_c, 2, 50, 0
4, 3780, Note_on_c, 2, 57, 0
4, 3780, Note_on_c, 2, 50, 87
4, 3781, Note_on_c, 2, 57, 93
4, 3839, Note_on_c, 2, 57, 0
4, 3840, Note_on_c, 2, 50, 0
4, 3841, Note_on_c, 2, 57, 87
4, 3841, Note_on_c, 2, 50, 88
4, 3900, Note_on_c, 2, 50, 0
4, 3900, Note_on_c, 2, 57, 0
4, 3900, Note_on_c, 2, 50, 87
4, 3900, Note_on_c, 2, 57, 90
4, 3959, Note_on_c, 2, 57, 0
4, 3960, Note_on_c, 2, 50, 0
4, 3961, Note_on_c, 2, 57, 91
4, 3961, Note_on_c, 2, 50, 88
4, 4015, Note_on_c, 2, 50, 0
4, 4015, Note_on_c, 2, 57, 0
4, 4020, Note_on_c, 2, 50, 91
4, 4021, Note_on_c, 2, 57, 88
4, 4080, Note_on_c, 2, 57, 0
4, 4080, Note_on_c, 2, 50, 0
4, 4081, Note_on_c, 2, 57, 87
4, 4081, Note_on_c, 2, 50, 93
4, 4139, Note_on_c, 2, 50, 0
4, 4140, Note_on_c, 2, 57, 0
4, 4140, Note_on_c, 2, 50, 91
4, 4140, Note_on_c, 2, 57, 93
4, 4199, Note_on_c, 2, 57, 0
4, 4200, Note_on_c, 2, 50, 0
4, 4200, Note_on_c, 2, 57, 91
4, 4201, Note_on_c, 2, 50, 87
4, 4259, Note_on_c, 2, 50, 0
4, 4259, Note_on_c, 2, 57, 0
4, 4260, Note_on_c, 2, 45, 89
4, 4260, Note_on_c, 2, 52, 90
4, 4379, Note_on_c, 2, 52, 0
4, 4379, Note_on_c, 2, 45, 0
4, 4380, Note_on_c, 2, 52, 87
4, 4380, Note_on_c, 2, 45, 92
4, 4434, Note_on_c, 2, 45, 0
4, 4435, Note_on_c, 2, 52, 0
4, 4439, Note_on_c, 2, 45, 87
4, 4441, Note_on_c, 2, 52, 89
4, 4495, Note_on_c, 2, 52, 0
4, 4495, Note_on_c, 2, 45, 0
4, 4500, Note_on_c, 2, 52, 92
4, 4500, Note_on_c, 2, 45, 89
4, 4559, Note_on_c, 2, 45, 0
4, 4559, Note_on_c, 2, 52, 0
4, 4560, Note_on_c, 2, 45, 87
4, 4560, Note_on_c, 2, 52, 93
4, 4620, Note_on_c, 2, 52, 0
4, 4620, Note_on_c, 2, 45, 0
4, 4621, Note_on_c, 2, 52, 89
4, 4621, Note_on_c, 2, 45, 89
4, 4679, Note_on_c, 2, 45, 0
4, 4679, Note_on_c, 2, 52, 0
4, 4679, Note_on_c, 2, 45, 88
4, 4681, Note_on_c, 2, 52, 91
4, 4739, Note_on_c, 2, 52, 0
4, 4740, Note_on_c, 2, 45, 0
4, 4740, Note_on_c, 2, 54, 89
4, 4741, Note_on_c, 2, 47, 87
4, 4800, Note_on_c, 2, 47, 0
4, 4800, Note_on_c, 2, 54, 0
4, 4801, Note_on_c, 2, 47, 91
4, 4802, Note_on_c, 2, 54, 90
4, 4860, Note_on_c, 2, 54, 0
4, 4860, Note_on_c, 2, 47, 0
4, 4860, Note_on_c, 2, 54, 91
4, 4861, Note_on_c, 2, 47, 89
4, 4919, Note_on_c, 2, 47, 0
4, 4919, Note_on_c, 2, 54, 0
4, 4920, Note_on_c, 2, 47, 93
4, 4921, Note_on_c, 2, 54, 91
4, 4974, Note_on_c, 2, 54, 0
4, 4975, Note_on_c, 2, 47, 0
4, 4979, Note_on_c, 2, 54, 90
4, 4981, Note_on_c, 2, 47, 92
4, 5040, Note_on_c, 2, 47, 0
4, 5040, Note_on_c, 2, 54, 0
4, 5041, Note_on_c, 2, 47, 92
4, 5041, Note_on_c, 2, 54, 90
4, 5099, Note_on_c, 2, 54, 0
4, 5099, Note_on_c, 2, 47, 0
4, 5100, Note_on_c, 2, 54, 91
4, 5100, Note_on_c, 2, 47, 87
4, 5159, Note_on_c, 2, 47, 0
4, 5160, Note_on_c, 2, 54, 0
4, 5161, Note_on_c, 2, 47, 92
4, 5161, Note_on_c, 2, 54, 88
4, 5220, Note_on_c, 2, 54, 0
4, 5221, Note_on_c, 2, 47, 0
4, 5221, Note_on_c, 2, 57, 91
4, 5222, Note_on_c, 2, 50, 87
4, 5339, Note_on_c, 2, 50, 0
4, 5339, Note_on_c, 2, 57, 0
4, 5340, Note_on_c, 2, 50, 90
4, 5340, Note_on_c, 2, 57, 91
4, 5399, Note_on_c, 2, 57, 0
4, 5400, Note_on_c, 2, 50, 0
4, 5400, Note_on_c, 2, 57, 91
4, 5401, Note_on_c, 2, 50, 89
4, 5454, Note_on_c, 2, 50, 0
4, 5455, Note_on_c, 2, 57, 0
4, 5460, Note_on_c, 2, 50, 90
4, 5460, Note_on_c, 2, 57, 89
4, 5519, Note_on_c, 2, 57, 0
4, 5520, Note_on_c, 2, 50, 0
4, 5520, Note_on_c, 2, 57, 88
4, 5521, Note_on_c, 2, 50, 90
4, 5579, Note_on_c, 2, 50, 0
4, 5579, Note_on_c, 2, 57, 0
4, 5580, Note_on_c, 2, 50, 88
4, 5581, Note_on_c, 2, 57, 90
4, 5639, Note_on_c, 2, 57, 0
4, 5640, Note_on_c, 2, 50, 0
4, 5641, Note_on_c, 2, 57, 87
4, 5641, Note_on_c, 2, 50, 89
4, 5700, Note_on_c, 2, 50, 0
4, 5700, Note_on_c, 2, 57, 0
4, 5700, Note_on_c, 2, 50, 87
4, 5701, Note_on_c, 2, 57, 87
4, 5760, Note_on_c, 2, 57, 0
4, 5760, Note_on_c, 2, 50, 0
4, 5761, Note_on_c, 2, 57, 92
4, 5761, Note_on_c, 2, 50, 87
4, 5820, Note_on_c, 2, 50, 0
4, 5820, Note_on_c, 2, 57, 0
4, 5820, Note_on_c, 2, 50, 93
4, 5820, Note_on_c, 2, 57, 89
4, 5879, Note_on_c, 2, 57, 0
4, 5879, Note_on_c, 2, 50, 0
4, 5880, Note_on_c, 2, 57, 89
4, 5881, Note_on_c, 2, 50, 91
4, 5934, Note_on_c, 2, 50, 0
4, 5934, Note_on_c, 2, 57, 0
4, 5940, Note_on_c, 2, 50, 91
4, 5941, Note_on_c, 2, 57, 92
4, 6000, Note_on_c, 2, 57, 0
4, 6000, Note_on_c, 2, 50, 0
4, 6001, Note_on_c, 2, 57, 91
4, 6001, Note_on_c, 2, 50, 91
4, 6059, Note_on_c, 2, 50, 0
4, 6060, Note_on_c, 2, 57, 0
4, 6061, Note_on_c, 2, 50, 90
4, 6061, Note_on_c, 2, 57, 92
4, 6120, Note_on_c, 2, 57, 0
4, 6120, Note_on_c, 2, 50, 0
4, 6121, Note_on_c, 2, 47, 91
4, 6121, Note_on_c, 2, 40, 92
4, 6179, Note_on_c, 2, 40, 0
4, 6180, Note_on_c, 2, 47, 0
4, 6181, Note_on_c, 2, 42, 88
4, 6181, Note_on_c, 2, 49, 91
4, 6182, Note_on_c, 2, 54, 89
4, 6360, Note_on_c, 2, 54, 0
4, 6361, Note_on_c, 2, 49, 0
4, 6361, Note_on_c, 2, 42, 0
4, 6362, Note_on_c, 2, 54, 87
4, 6362, Note_on_c, 2, 49, 89
4, 6363, Note_on_c, 2, 42, 91
4, 6419, Note_on_c, 2, 42, 0
4, 6419, Note_on_c, 2, 49, 0
4, 6420, Note_on_c, 2, 54, 0
4, 6420, Note_on_c, 2, 49, 93
4, 6421, Note_on_c, 2, 54, 89
4, 6422, Note_on_c, 2, 54, 0
4, 6422, Note_on_c, 2, 49, 0
4, 6449, Note_on_c, 2, 54, 89
4, 6451, Note_on_c, 2, 49, 93
4, 6452, Note_on_c, 2, 49, 0
4, 6452, Note_on_c, 2, 54, 0
4, 6479, Note_on_c, 2, 49, 90
4, 6480, Note_on_c, 2, 54, 87
4, 6481, Note_on_c, 2, 54, 0
4, 6482, Note_on_c, 2, 49, 0
4, 6510, Note_on_c, 2, 54, 92
4, 6511, Note_on_c, 2, 49, 93
4, 6512, Note_on_c, 2, 49, 0
4, 6512, Note_on_c, 2, 54, 0
4, 6539, Note_on_c, 2, 54, 87
4, 6541, Note_on_c, 2, 59, 87
4, 6600, Note_on_c, 2, 59, 0
4, 6600, Note_on_c, 2, 54, 0
4, 6660, Note_on_c, 2, 54, 87
4, 6661, Note_on_c, 2, 49, 90
4, 6662, Note_on_c, 2, 42, 87
4, 6839, Note_on_c, 2, 42, 0
4, 6839, Note_on_c, 2, 49, 0
4, 6839, Note_on_c, 2, 54, 0
4, 6839, Note_on_c, 2, 42, 88
4, 6841, Note_on_c, 2, 49, 87
4, 6842, Note_on_c, 2, 54, 93
4, 6900, Note_on_c, 2, 54, 0
4, 6900, Note_on_c, 2, 49, 0
4, 6900, Note_on_c, 2, 42, 0
4, 6900, Note_on_c, 2, 54, 93
4, 6900, Note_on_c, 2, 49, 89
4, 6902, Note_on_c, 2, 49, 0
4, 6902, Note_on_c, 2, 54, 0
4, 6930, Note_on_c, 2, 49, 90
4, 6930, Note_on_c, 2, 54, 91
4, 6931, Note_on_c, 2, 54, 0
4, 6932, Note_on_c, 2, 49, 0
4, 6959, Note_on_c, 2, 54, 92
4, 6960, Note_on_c, 2, 49, 93
4, 6962, Note_on_c, 2, 49, 0
4, 6962, Note_on_c, 2, 54, 0
4, 6990, Note_on_c, 2, 49, 87
4, 6990, Note_on_c, 2, 54, 89
4, 6992, Note_on_c, 2, 54, 0
4, 6993, Note_on_c, 2, 49, 0
4, 7020, Note_on_c, 2, 59, 90
4, 7021, Note_on_c, 2, 54, 89
4, 7079, Note_on_c, 2, 54, 0
4, 7080, Note_on_c, 2, 59, 0
4, 7140, Note_on_c, 2, 42, 88
4, 7141, Note_on_c, 2, 49, 92
4, 7142, Note_on_c, 2, 54, 87
4, 7319, Note_on_c, 2, 54, 0
4, 7320, Note_on_c, 2, 49, 0
4, 7320, Note_on_c, 2, 42, 0
4, 7321, Note_on_c, 2, 54, 89
4, 7321, Note_on_c, 2, 49, 87
4, 7322, Note_on_c, 2, 42, 87
4, 7379, Note_on_c, 2, 42, 0
4, 7380, Note_on_c, 2, 49, 0
4, 7381, Note_on_c, 2, 54, 0
4, 7381, Note_on_c, 2, 49, 88
4, 7382, Note_on_c, 2, 49, 0
4, 7382, Note_on_c, 2, 54, 89
4, 7382, Note_on_c, 2, 54, 0
4, 7409, Note_on_c, 2, 54, 93
4, 7411, Note_on_c, 2, 49, 91
4, 7412, Note_on_c, 2, 49, 0
4, 7412, Note_on_c, 2, 54, 0
4, 7440, Note_on_c, 2, 49, 90
4, 7441, Note_on_c, 2, 54, 91
4, 7441, Note_on_c, 2, 54, 0
4, 7442, Note_on_c, 2, 49, 0
4, 7469, Note_on_c, 2, 54, 89
4, 7471, Note_on_c, 2, 54, 0
4, 7471, Note_on_c, 2, 49, 90
4, 7471, Note_on_c, 2, 49, 0
4, 7500, Note_on_c, 2, 54, 91
4, 7501, Note_on_c, 2, 59, 87
4, 7559, Note_on_c, 2, 59, 0
4, 7559, Note_on_c, 2, 54, 0
4, 7620, Note_on_c, 2, 54, 89
4, 7620, Note_on_c, 2, 49, 92
4, 7622, Note_on_c, 2, 42, 90
4, 7799, Note_on_c, 2, 42, 0
4, 7800, Note_on_c, 2, 49, 0
4, 7801, Note_on_c, 2, 54, 0
4, 7801, Note_on_c, 2, 42, 90
4, 7802, Note_on_c, 2, 49, 89
4, 7802, Note_on_c, 2, 54, 90
4, 7859, Note_on_c, 2, 54, 0
4, 7860, Note_on_c, 2, 49, 0
4, 7860, Note_on_c, 2, 42, 0
4, 7860, Note_on_c, 2, 54, 89
4, 7860, Note_on_c, 2, 49, 91
4, 7861, Note_on_c, 2, 49, 0
4, 7862, Note_on_c, 2, 54, 0
4, 7890, Note_on_c, 2, 49, 91
4, 7891, Note_on_c, 2, 54, 93
4, 7892, Note_on_c, 2, 54, 0
4, 7892, Note_on_c, 2, 49, 0
4, 7920, Note_on_c, 2, 54, 90
4, 7920, Note_on_c, 2, 49, 90
4, 7921, Note_on_c, 2, 49, 0
4, 7922, Note_on_c, 2, 54, 0
4, 7949, Note_on_c, 2, 49, 90
4, 7951, Note_on_c, 2, 54, 88
4, 7952, Note_on_c, 2, 54, 0
4, 7952, Note_on_c, 2, 49, 0
4, 7980, Note_on_c, 2, 59, 88
4, 7981, Note_on_c, 2, 54, 92
4, 8040, Note_on_c, 2, 54, 0
4, 8040, Note_on_c, 2, 59, 0
4, 8100, Note_on_c, 2, 42, 89
4, 8101, Note_on_c, 2, 49, 90
4, 8102, Note_on_c, 2, 54, 92
4, 8280, Note_on_c, 2, 54, 0
4, 8280, Note_on_c, 2, 49, 0
4, 8281, Note_on_c, 2, 42, 0
4, 8282, Note_on_c, 2, 54, 91
4, 8282, Note_on_c, 2, 49, 87
4, 8282, Note_on_c, 2, 42, 91
4, 8339, Note_on_c, 2, 42, 0
4, 8340, Note_on_c, 2, 49, 0
4, 8341, Note_on_c, 2, 54, 0
4, 8341, Note_on_c, 2, 49, 87
4, 8342, Note_on_c, 2, 49, 0
4, 8342, Note_on_c, 2, 54, 90
4, 8342, Note_on_c, 2, 54, 0
4, 8370, Note_on_c, 2, 54, 93
4, 8371, Note_on_c, 2, 49, 89
4, 8371, Note_on_c, 2, 49, 0
4, 8372, Note_on_c, 2, 54, 0
4, 8399, Note_on_c, 2, 49, 90
4, 8401, Note_on_c, 2, 49, 0
4, 8401, Note_on_c, 2, 54, 89
4, 8401, Note_on_c, 2, 54, 0
4, 8430, Note_on_c, 2, 54, 91
4, 8431, Note_on_c, 2, 49, 89
4, 8432, Note_on_c, 2, 49, 0
4, 8432, Note_on_c, 2, 54, 0
4, 8460, Note_on_c, 2, 54, 87
4, 8460, Note_on_c, 2, 59, 93
4, 8519, Note_on_c, 2, 59, 0
4, 8519, Note_on_c, 2, 54, 0
4, 8580, Note_on_c, 2, 54, 93
4, 8581, Note_on_c, 2, 49, 91
4, 8582, Note_on_c, 2, 42, 93
4, 8759, Note_on_c, 2, 42, 0
4, 8760, Note_on_c, 2, 49, 0
4, 8760, Note_on_c, 2, 54, 0
4, 8761, Note_on_c, 2, 42, 87
4, 8761, Note_on_c, 2, 49, 88
4, 8762, Note_on_c, 2, 54, 87
4, 8820, Note_on_c, 2, 54, 0
4, 8820, Note_on_c, 2, 49, 0
4, 8821, Note_on_c, 2, 42, 0
4, 8821, Note_on_c, 2, 54, 90
4, 8821, Note_on_c, 2, 54, 0
4, 8821, Note_on_c, 2, 49, 92
4, 8821, Note_on_c, 2, 49, 0
4, 8849, Note_on_c, 2, 49, 93
4, 8851, Note_on_c, 2, 54, 87
4, 8852, Note_on_c, 2, 54, 0
4, 8852, Note_on_c, 2, 49, 0
4, 8880, Note_on_c, 2, 54, 92
4, 8881, Note_on_c, 2, 49, 90
4, 8882, Note_on_c, 2, 49, 0
4, 8883, Note_on_c, 2, 54, 0
4, 8909, Note_on_c, 2, 49, 88
4, 8911, Note_on_c, 2, 54, 91
4, 8912, Note_on_c, 2, 54, 0
4, 8912, Note_on_c, 2, 49, 0
4, 8939, Note_on_c, 2, 59, 88
4, 8941, Note_on_c, 2, 54, 91
4, 8999, Note_on_c, 2, 54, 0
4, 8999, Note_on_c, 2, 59, 0
4, 9060, Note_on_c, 2, 42, 90
4, 9060, Note_on_c, 2, 49, 90
4, 9062, Note_on_c, 2, 54, 93
4, 9240, Note_on_c, 2, 54, 0
4, 9240, Note_on_c, 2, 49, 0
4, 9241, Note_on_c, 2, 42, 0
4, 9242, Note_on_c, 2, 54, 93
4, 9242, Note_on_c, 2, 49, 93
4, 9242, Note_on_c, 2, 42, 89
4, 9299, Note_on_c, 2, 42, 0
4, 9299, Note_on_c, 2, 49, 0
4, 9300, Note_on_c, 2, 54, 0
4, 9301, Note_on_c, 2, 49, 89
4, 9301, Note_on_c, 2, 54, 90
4, 9302, Note_on_c, 2, 54, 0
4, 9303, Note_on_c, 2, 49, 0
4, 9330, Note_on_c, 2, 54, 92
4, 9331, Note_on_c, 2, 54, 0
4, 9331, Note_on_c, 2, 49, 91
4, 9331, Note_on_c, 2, 49, 0
4, 9360, Note_on_c, 2, 49, 87
4, 9361, Note_on_c, 2, 54, 93
4, 9361, Note_on_c, 2, 54, 0
4, 9362, Note_on_c, 2, 49, 0
4, 9390, Note_on_c, 2, 54, 88
4, 9390, Note_on_c, 2, 49, 87
4, 9391, Note_on_c, 2, 49, 0
4, 9392, Note_on_c, 2, 54, 0
4, 9419, Note_on_c, 2, 54, 89
4, 9420, Note_on_c, 2, 59, 90
4, 9480, Note_on_c, 2, 59, 0
4, 9480, Note_on_c, 2, 54, 0
4, 9540, Note_on_c, 2, 54, 90
4, 9540, Note_on_c, 2, 49, 88
4, 9542, Note_on_c, 2, 42, 88
4, 9720, Note_on_c, 2, 42, 0
4, 9720, Note_on_c, 2, 49, 0
4, 9721, Note_on_c, 2, 54, 0
4, 9722, Note_on_c, 2, 42, 92
4, 9722, Note_on_c, 2, 49, 89
4, 9723, Note_on_c, 2, 54, 91
4, 9779, Note_on_c, 2, 54, 0
4, 9780, Note_on_c, 2, 49, 0
4, 9780, Note_on_c, 2, 42, 0
4, 9781, Note_on_c, 2, 54, 87
4, 9781, Note_on_c, 2, 49, 92
4, 9781, Note_on_c, 2, 49, 0
4, 9782, Note_on_c, 2, 54, 0
4, 9809, Note_on_c, 2, 49, 91
4, 9811, Note_on_c, 2, 49, 0
4, 9811, Note_on_c, 2, 54, 91
4, 9811, Note_on_c, 2, 54, 0
4, 9839, Note_on_c, 2, 54, 92
4, 9841, Note_on_c, 2, 49, 90
4, 9841, Note_on_c, 2, 42, 89
4, 9900, Note_on_c, 2, 42, 0
4, 9900, Note_on_c, 2, 49, 0
4, 9901, Note_on_c, 2, 54, 0
4, 9902, Note_on_c, 2, 42, 89
4, 9902, Note_on_c, 2, 49, 92
4, 9903, Note_on_c, 2, 54, 89
4, 9903, Note_on_c, 2, 54, 92
4, 9904, Note_on_c, 2, 54, 87
4, 9959, Note_on_c, 2, 54, 0
4, 9959, Note_on_c, 2, 54, 0
4, 9960, Note_on_c, 2, 42, 0
4, 9960, Note_on_c, 2, 49, 0
4, 9961, Note_on_c, 2, 54, 0
4, 9962, Note_on_c, 2, 59, 89
4, 9962, Note_on_c, 2, 52, 87
4, 9963, Note_on_c, 2, 40, 91
4, 10019, Note_on_c, 2, 40, 0
4, 10020, Note_on_c, 2, 52, 0
4, 10020, Note_on_c, 2, 59, 0
4, 10020, Note_on_c, 2, 50, 93
4, 10021, Note_on_c, 2, 57, 87
4, 10140, Note_on_c, 2, 57, 0
4, 10140, Note_on_c, 2, 50, 0
4, 10141, Note_on_c, 2, 62, 89
4, 10142, Note_on_c, 2, 57, 91
4, 10142, Note_on_c, 2, 50, 88
4, 10199, Note_on_c, 2, 50, 0
4, 10199, Note_on_c, 2, 62, 0
4, 10200, Note_on_c, 2, 57, 0
4, 10200, Note_on_c, 2, 50, 89
4, 10201, Note_on_c, 2, 57, 90
4, 10201, Note_on_c, 2, 62, 87
4, 10254, Note_on_c, 2, 62, 0
4, 10255, Note_on_c, 2, 57, 0
4, 10255, Note_on_c, 2, 50, 0
4, 10260, Note_on_c, 2, 62, 89
4, 10261, Note_on_c, 2, 57, 88
4, 10262, Note_on_c, 2, 50, 90
4, 10319, Note_on_c, 2, 50, 0
4, 10320, Note_on_c, 2, 57, 0
4, 10321, Note_on_c, 2, 62, 0
4, 10321, Note_on_c, 2, 50, 88
4, 10321, Note_on_c, 2, 57, 93
4, 10321, Note_on_c, 2, 62, 87
4, 10379, Note_on_c, 2, 62, 0
4, 10379, Note_on_c, 2, 57, 0
4, 10379, Note_on_c, 2, 50, 0
4, 10380, Note_on_c, 2, 62, 88
4, 10381, Note_on_c, 2, 57, 87
4, 10382, Note_on_c, 2, 50, 93
4, 10440, Note_on_c, 2, 50, 0
4, 10440, Note_on_c, 2, 57, 0
4, 10440, Note_on_c, 2, 62, 0
4, 10441, Note_on_c, 2, 50, 93
4, 10441, Note_on_c, 2, 57, 90
4, 10499, Note_on_c, 2, 57, 0
4, 10499, Note_on_c, 2, 50, 0
4, 10500, Note_on_c, 2, 62, 91
4, 10501, Note_on_c, 2, 52, 91
4, 10501, Note_on_c, 2, 45, 89
4, 10619, Note_on_c, 2, 45, 0
4, 10619, Note_on_c, 2, 52, 0
4, 10620, Note_on_c, 2, 62, 0
4, 10621, Note_on_c, 2, 45, 90
4, 10621, Note_on_c, 2, 52, 88
4, 10622, Note_on_c, 2, 62, 93
4, 10680, Note_on_c, 2, 62, 0
4, 10680, Note_on_c, 2, 52, 0
4, 10681, Note_on_c, 2, 45, 0
4, 10682, Note_on_c, 2, 62, 91
4, 10682, Note_on_c, 2, 52, 89
4, 10682, Note_on_c, 2, 45, 93
4, 10734, Note_on_c, 2, 45, 0
4, 10734, Note_on_c, 2, 52, 0
4, 10735, Note_on_c, 2, 62, 0
4, 10740, Note_on_c, 2, 45, 92
4, 10741, Note_on_c, 2, 52, 88
4, 10742, Note_on_c, 2, 62, 89
4, 10799, Note_on_c, 2, 62, 0
4, 10800, Note_on_c, 2, 52, 0
4, 10800, Note_on_c, 2, 45, 0
4, 10800, Note_on_c, 2, 62, 93
4, 10800, Note_on_c, 2, 52, 92
4, 10802, Note_on_c, 2, 45, 92
4, 10860, Note_on_c, 2, 45, 0
4, 10860, Note_on_c, 2, 52, 0
4, 10861, Note_on_c, 2, 62, 0
4, 10862, Note_on_c, 2, 45, 92
4, 10862, Note_on_c, 2, 52, 90
4, 10862, Note_on_c, 2, 62, 91
4, 10919, Note_on_c, 2, 62, 0
4, 10919, Note_on_c, 2, 52, 0
4, 10920, Note_on_c, 2, 45, 0
4, 10921, Note_on_c, 2, 62, 88
4, 10921, Note_on_c, 2, 52, 90
4, 10922, Note_on_c, 2, 45, 89
4, 10979, Note_on_c, 2, 45, 0
4, 10980, Note_on_c, 2, 52, 0
4, 10981, Note_on_c, 2, 62, 0
4, 10981, Note_on_c, 2, 50, 87
4, 10982, Note_on_c, 2, 57, 89
4, 10982, Note_on_c, 2, 62, 87
4, 11039, Note_on_c, 2, 62, 0
4, 11039, Note_on_c, 2, 50, 0
4, 11040, Note_on_c, 2, 57, 0
4, 11040, Note_on_c, 2, 62, 90
4, 11041, Note_on_c, 2, 57, 87
4, 11042, Note_on_c, 2, 50, 91
4, 11100, Note_on_c, 2, 50, 0
4, 11100, Note_on_c, 2, 57, 0
4, 11101, Note_on_c, 2, 62, 0
4, 11102, Note_on_c, 2, 50, 91
4, 11102, Note_on_c, 2, 57, 90
4, 11103, Note_on_c, 2, 62, 89
4, 11159, Note_on_c, 2, 62, 0
4, 11160, Note_on_c, 2, 57, 0
4, 11161, Note_on_c, 2, 50, 0
4, 11161, Note_on_c, 2, 62, 91
4, 11161, Note_on_c, 2, 57, 87
4, 11162, Note_on_c, 2, 50, 89
4, 11214, Note_on_c, 2, 50, 0
4, 11214, Note_on_c, 2, 57, 0
4, 11215, Note_on_c, 2, 62, 0
4, 11220, Note_on_c, 2, 50, 87
4, 11221, Note_on_c, 2, 57, 87
4, 11221, Note_on_c, 2, 62, 89
4, 11280, Note_on_c, 2, 62, 0
4, 11281, Note_on_c, 2, 57, 0
4, 11281, Note_on_c, 2, 50, 0
4, 11282, Note_on_c, 2, 62, 91
4, 11282, Note_on_c, 2, 57, 92
4, 11283, Note_on_c, 2, 50, 91
4, 11340, Note_on_c, 2, 50, 0
4, 11340, Note_on_c, 2, 57, 0
4, 11341, Note_on_c, 2, 62, 0
4, 11342, Note_on_c, 2, 50, 88
4, 11342, Note_on_c, 2, 57, 89
4, 11343, Note_on_c, 2, 62, 88
4, 11400, Note_on_c, 2, 62, 0
4, 11400, Note_on_c, 2, 57, 0
4, 11401, Note_on_c, 2, 50, 0
4, 11402, Note_on_c, 2, 62, 92
4, 11402, Note_on_c, 2, 57, 87
4, 11402, Note_on_c, 2, 50, 89
4, 11459, Note_on_c, 2, 50, 0
4, 11459, Note_on_c, 2, 57, 0
4, 11460, Note_on_c, 2, 62, 0
4, 11460, Note_on_c, 2, 45, 88
4, 11460, Note_on_c, 2, 52, 91
4, 11462, Note_on_c, 2, 62, 87
4, 11519, Note_on_c, 2, 62, 0
4, 11520, Note_on_c, 2, 52, 0
4, 11520, Note_on_c, 2, 45, 0
4, 11521, Note_on_c, 2, 62, 93
4, 11521, Note_on_c, 2, 52, 87
4, 11522, Note_on_c, 2, 45, 87
4, 11579, Note_on_c, 2, 45, 0
4, 11579, Note_on_c, 2, 52, 0
4, 11579, Note_on_c, 2, 62, 0
4, 11579, Note_on_c, 2, 45, 87
4, 11580, Note_on_c, 2, 52, 87
4, 11582, Note_on_c, 2, 62, 93
4, 11640, Note_on_c, 2, 62, 0
4, 11640, Note_on_c, 2, 52, 0
4, 11641, Note_on_c, 2, 45, 0
4, 11642, Note_on_c, 2, 62, 92
4, 11642, Note_on_c, 2, 52, 88
4, 11642, Note_on_c, 2, 45, 91
4, 11694, Note_on_c, 2, 45, 0
4, 11694, Note_on_c, 2, 52, 0
4, 11695, Note_on_c, 2, 62, 0
4, 11699, Note_on_c, 2, 45, 91
4, 11701, Note_on_c, 2, 52, 89
4, 11702, Note_on_c, 2, 62, 87
4, 11760, Note_on_c, 2, 62, 0
4, 11761, Note_on_c, 2, 52, 0
4, 11761, Note_on_c, 2, 45, 0
4, 11762, Note_on_c, 2, 62, 89
4, 11762, Note_on_c, 2, 52, 87
4, 11763, Note_on_c, 2, 45, 88
4, 11820, Note_on_c, 2, 45, 0
4, 11820, Note_on_c, 2, 52, 0
4, 11821, Note_on_c, 2, 62, 0
4, 11821, Note_on_c, 2, 45, 90
4, 11821, Note_on_c, 2, 52, 87
4, 11822, Note_on_c, 2, 62, 90
4, 11880, Note_on_c, 2, 62, 0
4, 11880, Note_on_c, 2, 52, 0
4, 11881, Note_on_c, 2, 45, 0
4, 11882, Note_on_c, 2, 62, 90
4, 11882, Note_on_c, 2, 52, 91
4, 11882, Note_on_c, 2, 45, 92
4, 11939, Note_on_c, 2, 45, 0
4, 11939, Note_on_c, 2, 52, 0
4, 11940, Note_on_c, 2, 62, 0
4, 11940, Note_on_c, 2, 50, 93
4, 11941, Note_on_c, 2, 57, 90
4, 11942, Note_on_c, 2, 62, 93
4, 12000, Note_on_c, 2, 62, 0
4, 12000, Note_on_c, 2, 57, 0
4, 12000, Note_on_c, 2, 50, 0
4, 12000, Note_on_c, 2, 62, 90
4, 12001, Note_on_c, 2, 57, 92
4, 12001, Note_on_c, 2, 50, 89
4, 12060, Note_on_c, 2, 50, 0
4, 12060, Note_on_c, 2, 57, 0
4, 12060, Note_on_c, 2, 62, 0
4, 12061, Note_on_c, 2, 50, 89
4, 12062, Note_on_c, 2, 57, 87
4, 12062, Note_on_c, 2, 62, 92
4, 12120, Note_on_c, 2, 62, 0
4, 12120, Note_on_c, 2, 57, 0
4, 12120, Note_on_c, 2, 50, 0
4, 12121, Note_on_c, 2, 62, 89
4, 12122, Note_on_c, 2, 57, 90
4, 12122, Note_on_c, 2, 50, 91
4, 12174, Note_on_c, 2, 50, 0
4, 12175, Note_on_c, 2, 57, 0
4, 12175, Note_on_c, 2, 62, 0
4, 12180, Note_on_c, 2, 50, 89
4, 12180, Note_on_c, 2, 57, 89
4, 12182, Note_on_c, 2, 62, 89
4, 12239, Note_on_c, 2, 57, 0
4, 12240, Note_on_c, 2, 62, 0
4, 12240, Note_on_c, 2, 50, 0
4, 12241, Note_on_c, 2, 62, 87
4, 12241, Note_on_c, 2, 57, 88
4, 12241, Note_on_c, 2, 50, 92
4, 12299, Note_on_c, 2, 50, 0
4, 12299, Note_on_c, 2, 57, 0
4, 12300, Note_on_c, 2, 62, 0
4, 12301, Note_on_c, 2, 50, 90
4, 12301, Note_on_c, 2, 57, 90
4, 12302, Note_on_c, 2, 62, 89
4, 12359, Note_on_c, 2, 62, 0
4, 12360, Note_on_c, 2, 57, 0
4, 12360, Note_on_c, 2, 50, 0
4, 12361, Note_on_c, 2, 62, 87
4, 12361, Note_on_c, 2, 57, 92
4, 12361, Note_on_c, 2, 50, 91
4, 12420, Note_on_c, 2, 50, 0
4, 12420, Note_on_c, 2, 57, 0
4, 12421, Note_on_c, 2, 62, 0
4, 12422, Note_on_c, 2, 51, 88
4, 12422, Note_on_c, 2, 58, 93
4, 12423, Note_on_c, 2, 63, 91
4, 12479, Note_on_c, 2, 63, 0
4, 12479, Note_on_c, 2, 58, 0
4, 12480, Note_on_c, 2, 51, 0
4, 12481, Note_on_c, 2, 63, 90
4, 12481, Note_on_c, 2, 58, 90
4, 12482, Note_on_c, 2, 51, 90
4, 12540, Note_on_c, 2, 51, 0
4, 12540, Note_on_c, 2, 58, 0
4, 12541, Note_on_c, 2, 63, 0
4, 12542, Note_on_c, 2, 51, 87
4, 12542, Note_on_c, 2, 58, 92
4, 12543, Note_on_c, 2, 63, 92
4, 12600, Note_on_c, 2, 63, 0
4, 12600, Note_on_c, 2, 58, 0
4, 12601, Note_on_c, 2, 51, 0
4, 12602, Note_on_c, 2, 63, 91
4, 12602, Note_on_c, 2, 58, 89
4, 12603, Note_on_c, 2, 51, 87
4, 12655, Note_on_c, 2, 51, 0
4, 12655, Note_on_c, 2, 58, 0
4, 12656, Note_on_c, 2, 63, 0
4, 12660, Note_on_c, 2, 51, 88
4, 12661, Note_on_c, 2, 58, 92
4, 12662, Note_on_c, 2, 63, 91
4, 12719, Note_on_c, 2, 63, 0
4, 12719, Note_on_c, 2, 58, 0
4, 12720, Note_on_c, 2, 51, 0
4, 12721, Note_on_c, 2, 63, 90
4, 12721, Note_on_c, 2, 58, 87
4, 12721, Note_on_c, 2, 51, 93
4, 12779, Note_on_c, 2, 51, 0
4, 12780, Note_on_c, 2, 58, 0
4, 12780, Note_on_c, 2, 63, 0
4, 12781, Note_on_c, 2, 51, 87
4, 12781, Note_on_c, 2, 58, 93
4, 12782, Note_on_c, 2, 63, 87
4, 12840, Note_on_c, 2, 63, 0
4, 12840, Note_on_c, 2, 58, 0
4, 12841, Note_on_c, 2, 51, 0
4, 12842, Note_on_c, 2, 63, 90
4, 12842, Note_on_c, 2, 58, 93
4, 12843, Note_on_c, 2, 51, 90
4, 12899, Note_on_c, 2, 51, 0
4, 12899, Note_on_c, 2, 58, 0
4, 12900, Note_on_c, 2, 63, 0
4, 12900, Note_on_c, 2, 52, 93
4, 12901, Note_on_c, 2, 59, 87
4, 12902, Note_on_c, 2, 64, 93
4, 12960, Note_on_c, 2, 64, 0
4, 12961, Note_on_c, 2, 59, 0
4, 12961, Note_on_c, 2, 52, 0
4, 12962, Note_on_c, 2, 64, 93
4, 12962, Note_on_c, 2, 59, 92
4, 12963, Note_on_c, 2, 52, 89
4, 13020, Note_on_c, 2, 52, 0
4, 13020, Note_on_c, 2, 59, 0
4, 13021, Note_on_c, 2, 64, 0
4, 13022, Note_on_c, 2, 52, 87
4, 13022, Note_on_c, 2, 59, 90
4, 13023, Note_on_c, 2, 64, 93
4, 13080, Note_on_c, 2, 64, 0
4, 13080, Note_on_c, 2, 59, 0
4, 13081, Note_on_c, 2, 52, 0
4, 13082, Note_on_c, 2, 64, 91
4, 13082, Note_on_c, 2, 59, 91
4, 13083, Note_on_c, 2, 52, 89
4, 13134, Note_on_c, 2, 59, 0
4, 13135, Note_on_c, 2, 52, 0
4, 13135, Note_on_c, 2, 64, 0
4, 13140, Note_on_c, 2, 52, 92
4, 13141, Note_on_c, 2, 59, 87
4, 13142, Note_on_c, 2, 64, 93
4, 13200, Note_on_c, 2, 64, 0
4, 13200, Note_on_c, 2, 59, 0
4, 13201, Note_on_c, 2, 52, 0
4, 13202, Note_on_c, 2, 64, 92
4, 13202, Note_on_c, 2, 59, 87
4, 13203, Note_on_c, 2, 52, 92
4, 13260, Note_on_c, 2, 52, 0
4, 13260, Note_on_c, 2, 59, 0
4, 13261, Note_on_c, 2, 64, 0
4, 13261, Note_on_c, 2, 52, 89
4, 13261, Note_on_c, 2, 59, 87
4, 13262, Note_on_c, 2, 64, 87
4, 13320, Note_on_c, 2, 64, 0
4, 13320, Note_on_c, 2, 59, 0
4, 13320, Note_on_c, 2, 52, 0
4, 13321, Note_on_c, 2, 64, 88
4, 13322, Note_on_c, 2, 59, 91
4, 13322, Note_on_c, 2, 52, 87
4, 13380, Note_on_c, 2, 52, 0
4, 13380, Note_on_c, 2, 59, 0
4, 13380, Note_on_c, 2, 64, 0
4, 13380, Note_on_c, 2, 52, 89
4, 13380, Note_on_c, 2, 59, 87
4, 13382, Note_on_c, 2, 64, 92
4, 13439, Note_on_c, 2, 59, 0
4, 13440, Note_on_c, 2, 64, 0
4, 13440, Note_on_c, 2, 52, 0
4, 13860, Note_on_c, 2, 52, 90
4, 13861, Note_on_c, 2, 45, 87
4, 13979, Note_on_c, 2, 45, 0
4, 13980, Note_on_c, 2, 52, 0
4, 13981, Note_on_c, 2, 45, 90
4, 13981, Note_on_c, 2, 52, 87
4, 14034, Note_on_c, 2, 52, 0
4, 14035, Note_on_c, 2, 45, 0
4, 14040, Note_on_c, 2, 52, 88
4, 14040, Note_on_c, 2, 45, 90
4, 14094, Note_on_c, 2, 45, 0
4, 14095, Note_on_c, 2, 52, 0
4, 14099, Note_on_c, 2, 45, 88
4, 14101, Note_on_c, 2, 52, 89
4, 14160, Note_on_c, 2, 52, 0
4, 14160, Note_on_c, 2, 45, 0
4, 14161, Note_on_c, 2, 52, 89
4, 14161, Note_on_c, 2, 45, 92
4, 14220, Note_on_c, 2, 45, 0
4, 14220, Note_on_c, 2, 52, 0
4, 14220, Note_on_c, 2, 45, 88
4, 14221, Note_on_c, 2, 52, 90
4, 14279, Note_on_c, 2, 52, 0
4, 14279, Note_on_c, 2, 45, 0
4, 14280, Note_on_c, 2, 52, 93
4, 14281, Note_on_c, 2, 45, 87
4, 14340, Note_on_c, 2, 45, 0
4, 14340, Note_on_c, 2, 52, 0
4, 14341, Note_on_c, 2, 47, 91
4, 14341, Note_on_c, 2, 54, 93
4, 14400, Note_on_c, 2, 54, 0
4, 14400, Note_on_c, 2, 47, 0
4, 14401, Note_on_c, 2, 54, 88
4, 14402, Note_on_c, 2, 47, 90
4, 14459, Note_on_c, 2, 47, 0
4, 14460, Note_on_c, 2, 54, 0
4, 14460, Note_on_c, 2, 47, 90
4, 14460, Note_on_c, 2, 54, 87
4, 14519, Note_on_c, 2, 54, 0
4, 14520, Note_on_c, 2, 47, 0
4, 14520, Note_on_c, 2, 57, 93
4, 14521, Note_on_c, 2, 54, 93
4, 14522, Note_on_c, 2, 47, 90
4, 14574, Note_on_c, 2, 47, 0
4, 14575, Note_on_c, 2, 54, 0
4, 14575, Note_on_c, 2, 57, 0
4, 14579, Note_on_c, 2, 47, 93
4, 14581, Note_on_c, 2, 54, 90
4, 14640, Note_on_c, 2, 54, 0
4, 14640, Note_on_c, 2, 47, 0
4, 14640, Note_on_c, 2, 57, 87
4, 14641, Note_on_c, 2, 54, 87
4, 14642, Note_on_c, 2, 47, 90
4, 14699, Note_on_c, 2, 47, 0
4, 14699, Note_on_c, 2, 54, 0
4, 14700, Note_on_c, 2, 57, 0
4, 14700, Note_on_c, 2, 47, 88
4, 14700, Note_on_c, 2, 54, 92
4, 14702, Note_on_c, 2, 57, 90
4, 14759, Note_on_c, 2, 57, 0
4, 14760, Note_on_c, 2, 54, 0
4, 14760, Note_on_c, 2, 47, 0
4, 14761, Note_on_c, 2, 52, 88
4, 14761, Note_on_c, 2, 45, 93
4, 14820, Note_on_c, 2, 45, 0
4, 14821, Note_on_c, 2, 52, 0
4, 14821, Note_on_c, 2, 50, 91
4, 14822, Note_on_c, 2, 57, 91
4, 14940, Note_on_c, 2, 57, 0
4, 14940, Note_on_c, 2, 50, 0
4, 14941, Note_on_c, 2, 57, 87
4, 14941, Note_on_c, 2, 50, 89
4, 15000, Note_on_c, 2, 50, 0
4, 15000, Note_on_c, 2, 57, 0
4, 15000, Note_on_c, 2, 50, 88
4, 15001, Note_on_c, 2, 57, 91
4, 15055, Note_on_c, 2, 57, 0
4, 15055, Note_on_c, 2, 50, 0
4, 15060, Note_on_c, 2, 57, 89
4, 15061, Note_on_c, 2, 50, 93
4, 15120, Note_on_c, 2, 50, 0
4, 15120, Note_on_c, 2, 57, 0
4, 15121, Note_on_c, 2, 50, 91
4, 15122, Note_on_c, 2, 57, 92
4, 15180, Note_on_c, 2, 57, 0
4, 15180, Note_on_c, 2, 50, 0
4, 15180, Note_on_c, 2, 57, 93
4, 15180, Note_on_c, 2, 50, 89
4, 15239, Note_on_c, 2, 50, 0
4, 15239, Note_on_c, 2, 57, 0
4, 15240, Note_on_c, 2, 50, 89
4, 15241, Note_on_c, 2, 57, 91
4, 15300, Note_on_c, 2, 57, 0
4, 15300, Note_on_c, 2, 50, 0
4, 15300, Note_on_c, 2, 57, 87
4, 15301, Note_on_c, 2, 50, 92
4, 15359, Note_on_c, 2, 50, 0
4, 15360, Note_on_c, 2, 57, 0
4, 15361, Note_on_c, 2, 50, 88
4, 15361, Note_on_c, 2, 57, 89
4, 15419, Note_on_c, 2, 57, 0
4, 15420, Note_on_c, 2, 50, 0
4, 15421, Note_on_c, 2, 57, 91
4, 15421, Note_on_c, 2, 50, 89
4, 15479, Note_on_c, 2, 50, 0
4, 15479, Note_on_c, 2, 57, 0
4, 15480, Note_on_c, 2, 50, 89
4, 15481, Note_on_c, 2, 57, 91
4, 15535, Note_on_c, 2, 57, 0
4, 15535, Note_on_c, 2, 50, 0
4, 15540, Note_on_c, 2, 57, 90
4, 15540, Note_on_c, 2, 50, 91
4, 15600, Note_on_c, 2, 50, 0
4, 15601, Note_on_c, 2, 57, 0
4, 15601, Note_on_c, 2, 50, 89
4, 15602, Note_on_c, 2, 57, 89
4, 15659, Note_on_c, 2, 57, 0
4, 15659, Note_on_c, 2, 50, 0
4, 15660, Note_on_c, 2, 57, 90
4, 15661, Note_on_c, 2, 50, 87
4, 15719, Note_on_c, 2, 50, 0
4, 15720, Note_on_c, 2, 57, 0
4, 15721, Note_on_c, 2, 42, 89
4, 15721, Note_on_c, 2, 50, 93
4, 15779, Note_on_c, 2, 50, 0
4, 15780, Note_on_c, 2, 42, 0
4, 15780, Note_on_c, 2, 52, 89
4, 15780, Note_on_c, 2, 45, 89
4, 15899, Note_on_c, 2, 45, 0
4, 15899, Note_on_c, 2, 52, 0
4, 15899, Note_on_c, 2, 45, 90
4, 15900, Note_on_c, 2, 52, 93
4, 15955, Note_on_c, 2, 52, 0
4, 15955, Note_on_c, 2, 45, 0
4, 15959, Note_on_c, 2, 52, 88
4, 15961, Note_on_c, 2, 45, 88
4, 16014, Note_on_c, 2, 45, 0
4, 16014, Note_on_c, 2, 52, 0
4, 16020, Note_on_c, 2, 45, 91
4, 16021, Note_on_c, 2, 52, 89
4, 16080, Note_on_c, 2, 52, 0
4, 16080, Note_on_c, 2, 45, 0
4, 16081, Note_on_c, 2, 52, 92
4, 16082, Note_on_c, 2, 45, 89
4, 16139, Note_on_c, 2, 45, 0
4, 16140, Note_on_c, 2, 52, 0
4, 16140, Note_on_c, 2, 45, 88
4, 16140, Note_on_c, 2, 52, 89
4, 16200, Note_on_c, 2, 52, 0
4, 16200, Note_on_c, 2, 45, 0
4, 16201, Note_on_c, 2, 52, 91
4, 16201, Note_on_c, 2, 45, 92
4, 16260, Note_on_c, 2, 45, 0
4, 16260, Note_on_c, 2, 52, 0
4, 16260, Note_on_c, 2, 47, 93
4, 16260, Note_on_c, 2, 54, 93
4, 16319, Note_on_c, 2, 54, 0
4, 16320, Note_on_c, 2, 47, 0
4, 16320, Note_on_c, 2, 54, 89
4, 16320, Note_on_c, 2, 47, 88
4, 16379, Note_on_c, 2, 47, 0
4, 16380, Note_on_c, 2, 54, 0
4, 16380, Note_on_c, 2, 47, 91
4, 16380, Note_on_c, 2, 54, 90
4, 16439, Note_on_c, 2, 54, 0
4, 16439, Note_on_c, 2, 47, 0
4, 16440, Note_on_c, 2, 57, 92
4, 16441, Note_on_c, 2, 54, 90
4, 16442, Note_on_c, 2, 47, 87
4, 16495, Note_on_c, 2, 47, 0
4, 16495, Note_on_c, 2, 54, 0
4, 16496, Note_on_c, 2, 57, 0
4, 16499, Note_on_c, 2, 47, 89
4, 16500, Note_on_c, 2, 54, 91
4, 16560, Note_on_c, 2, 54, 0
4, 16560, Note_on_c, 2, 47, 0
4, 16561, Note_on_c, 2, 57, 88
4, 16562, Note_on_c, 2, 54, 88
4, 16562, Note_on_c, 2, 47, 87
4, 16619, Note_on_c, 2, 47, 0
4, 16619, Note_on_c, 2, 54, 0
4, 16619, Note_on_c, 2, 57, 0
4, 16620, Note_on_c, 2, 47, 91
4, 16621, Note_on_c, 2, 54, 89
4, 16622, Note_on_c, 2, 57, 93
4, 16679, Note_on_c, 2, 57, 0
4, 16680, Note_on_c, 2, 54, 0
4, 16680, Note_on_c, 2, 47, 0
4, 16681, Note_on_c, 2, 52, 87
4, 16682, Note_on_c, 2, 45, 89
4, 16740, Note_on_c, 2, 45, 0
4, 16740, Note_on_c, 2, 52, 0
4, 16741, Note_on_c, 2, 50, 91
4, 16741, Note_on_c, 2, 57, 93
4, 16860, Note_on_c, 2, 57, 0
4, 16861, Note_on_c, 2, 50, 0
4, 16861, Note_on_c, 2, 57, 88
4, 16861, Note_on_c, 2, 50, 89
4, 16919, Note_on_c, 2, 50, 0
4, 16920, Note_on_c, 2, 57, 0
4, 16921, Note_on_c, 2, 50, 92
4, 16921, Note_on_c, 2, 57, 88
4, 16974, Note_on_c, 2, 57, 0
4, 16975, Note_on_c, 2, 50, 0
4, 16979, Note_on_c, 2, 57, 93
4, 16981, Note_on_c, 2, 50, 92
4, 17039, Note_on_c, 2, 50, 0
4, 17039, Note_on_c, 2, 57, 0
4, 17040, Note_on_c, 2, 50, 91
4, 17041, Note_on_c, 2, 57, 89
4, 17100, Note_on_c, 2, 57, 0
4, 17100, Note_on_c, 2, 50, 0
4, 17101, Note_on_c, 2, 57, 88
4, 17102, Note_on_c, 2, 50, 91
4, 17159, Note_on_c, 2, 50, 0
4, 17159, Note_on_c, 2, 57, 0
4, 17159, Note_on_c, 2, 50, 90
4, 17161, Note_on_c, 2, 57, 89
4, 17220, Note_on_c, 2, 57, 0
4, 17220, Note_on_c, 2, 50, 0
4, 17221, Note_on_c, 2, 57, 91
4, 17221, Note_on_c, 2, 50, 87
4, 17279, Note_on_c, 2, 50, 0
4, 17280, Note_on_c, 2, 57, 0
4, 17280, Note_on_c, 2, 50, 87
4, 17281, Note_on_c, 2, 57, 88
4, 17340, Note_on_c, 2, 57, 0
4, 17341, Note_on_c, 2, 50, 0
4, 17341, Note_on_c, 2, 57, 90
4, 17341, Note_on_c, 2, 50, 90
4, 17399, Note_on_c, 2, 50, 0
4, 17400, Note_on_c, 2, 57, 0
4, 17401, Note_on_c, 2, 50, 92
4, 17401, Note_on_c, 2, 57, 93
4, 17455, Note_on_c, 2, 57, 0
4, 17456, Note_on_c, 2, 50, 0
4, 17460, Note_on_c, 2, 57, 87
4, 17460, Note_on_c, 2, 50, 91
4, 17519, Note_on_c, 2, 50, 0
4, 17520, Note_on_c, 2, 57, 0
4, 17520, Note_on_c, 2, 50, 87
4, 17520, Note_on_c, 2, 57, 92
4, 17580, Note_on_c, 2, 57, 0
4, 17580, Note_on_c, 2, 50, 0
4, 17581, Note_on_c, 2, 57, 90
4, 17582, Note_on_c, 2, 50, 90
4, 17639, Note_on_c, 2, 50, 0
4, 17640, Note_on_c, 2, 57, 0
4, 17641, Note_on_c, 2, 40, 91
4, 17641, Note_on_c, 2, 47, 87
4, 17700, Note_on_c, 2, 47, 0
4, 17701, Note_on_c, 2, 40, 0
4, 17701, Note_on_c, 2, 54, 89
4, 17702, Note_on_c, 2, 49, 91
4, 17702, Note_on_c, 2, 42, 93
4, 17880, Note_on_c, 2, 42, 0
4, 17880, Note_on_c, 2, 49, 0
4, 17880, Note_on_c, 2, 54, 0
4, 17881, Note_on_c, 2, 42, 87
4, 17882, Note_on_c, 2, 49, 89
4, 17882, Note_on_c, 2, 54, 87
4, 17939, Note_on_c, 2, 54, 0
4, 17939, Note_on_c, 2, 42, 0
4, 17940, Note_on_c, 2, 49, 0
4, 17940, Note_on_c, 2, 54, 91
4, 17941, Note_on_c, 2, 49, 90
4, 17942, Note_on_c, 2, 49, 0
4, 17942, Note_on_c, 2, 54, 0
4, 17970, Note_on_c, 2, 49, 87
4, 17970, Note_on_c, 2, 54, 90
4, 17971, Note_on_c, 2, 54, 0
4, 17972, Note_on_c, 2, 49, 0
4, 17999, Note_on_c, 2, 54, 89
4, 18001, Note_on_c, 2, 49, 88
4, 18002, Note_on_c, 2, 49, 0
4, 18002, Note_on_c, 2, 54, 0
4, 18030, Note_on_c, 2, 49, 93
4, 18031, Note_on_c, 2, 49, 0
4, 18031, Note_on_c, 2, 54, 92
4, 18032, Note_on_c, 2, 54, 0
4, 18060, Note_on_c, 2, 59, 88
4, 18061, Note_on_c, 2, 54, 87
4, 18119, Note_on_c, 2, 54, 0
4, 18120, Note_on_c, 2, 59, 0
4, 18180, Note_on_c, 2, 42, 89
4, 18181, Note_on_c, 2, 49, 90
4, 18182, Note_on_c, 2, 54, 92
4, 18359, Note_on_c, 2, 49, 0
4, 18360, Note_on_c, 2, 54, 0
4, 18360, Note_on_c, 2, 42, 0
4, 18360, Note_on_c, 2, 54, 89
4, 18361, Note_on_c, 2, 49, 93
4, 18362, Note_on_c, 2, 42, 92
4, 18420, Note_on_c, 2, 42, 0
4, 18421, Note_on_c, 2, 49, 0
4, 18421, Note_on_c, 2, 54, 0
4, 18422, Note_on_c, 2, 49, 90
4, 18422, Note_on_c, 2, 54, 89
4, 18422, Note_on_c, 2, 54, 0
4, 18423, Note_on_c, 2, 49, 0
4, 18450, Note_on_c, 2, 54, 89
4, 18451, Note_on_c, 2, 49, 91
4, 18452, Note_on_c, 2, 49, 0
4, 18452, Note_on_c, 2, 54, 0
4, 18480, Note_on_c, 2, 49, 88
4, 18481, Note_on_c, 2, 54, 87
4, 18482, Note_on_c, 2, 54, 0
4, 18482, Note_on_c, 2, 49, 0
4, 18510, Note_on_c, 2, 54, 87
4, 18511, Note_on_c, 2, 49, 90
4, 18511, Note_on_c, 2, 49, 0
4, 18512, Note_on_c, 2, 54, 0
4, 18540, Note_on_c, 2, 54, 88
4, 18540, Note_on_c, 2, 59, 89
4, 18600, Note_on_c, 2, 59, 0
4, 18600, Note_on_c, 2, 54, 0
4, 18660, Note_on_c, 2, 54, 88
4, 18661, Note_on_c, 2, 49, 93
4, 18661, Note_on_c, 2, 42, 91
4, 18839, Note_on_c, 2, 42, 0
4, 18839, Note_on_c, 2, 49, 0
4, 18840, Note_on_c, 2, 54, 0
4, 18840, Note_on_c, 2, 42, 88
4, 18840, Note_on_c, 2, 49, 91
4, 18842, Note_on_c, 2, 54, 92
4, 18900, Note_on_c, 2, 54, 0
4, 18900, Note_on_c, 2, 49, 0
4, 18900, Note_on_c, 2, 42, 0
4, 18901, Note_on_c, 2, 54, 90
4, 18901, Note_on_c, 2, 49, 87
4, 18901, Note_on_c, 2, 49, 0
4, 18902, Note_on_c, 2, 54, 0
4, 18930, Note_on_c, 2, 49, 87
4, 18930, Note_on_c, 2, 54, 92
4, 18932, Note_on_c, 2, 54, 0
4, 18933, Note_on_c, 2, 49, 0
4, 18960, Note_on_c, 2, 54, 87
4, 18960, Note_on_c, 2, 49, 87
4, 18962, Note_on_c, 2, 49, 0
4, 18962, Note_on_c, 2, 54, 0
4, 18990, Note_on_c, 2, 49, 87
4, 18991, Note_on_c, 2, 49, 0
4, 18991, Note_on_c, 2, 54, 87
4, 18991, Note_on_c, 2, 54, 0
4, 19020, Note_on_c, 2, 59, 91
4, 19021, Note_on_c, 2, 54, 90
4, 19079, Note_on_c, 2, 54, 0
4, 19080, Note_on_c, 2, 59, 0
4, 19140, Note_on_c, 2, 42, 89
4, 19141, Note_on_c, 2, 49, 87
4, 19142, Note_on_c, 2, 54, 90
4, 19320, Note_on_c, 2, 54, 0
4, 19320, Note_on_c, 2, 49, 0
4, 19320, Note_on_c, 2, 42, 0
4, 19321, Note_on_c, 2, 54, 91
4, 19321, Note_on_c, 2, 49, 88
4, 19322, Note_on_c, 2, 42, 91
4, 19380, Note_on_c, 2, 42, 0
4, 19380, Note_on_c, 2, 49, 0
4, 19381, Note_on_c, 2, 54, 0
4, 19382, Note_on_c, 2, 49, 92
4, 19382, Note_on_c, 2, 54, 87
4, 19382, Note_on_c, 2, 54, 0
4, 19383, Note_on_c, 2, 49, 0
4, 19410, Note_on_c, 2, 54, 88
4, 19411, Note_on_c, 2, 49, 87
4, 19411, Note_on_c, 2, 49, 0
4, 19412, Note_on_c, 2, 54, 0
4, 19439, Note_on_c, 2, 49, 88
4, 19440, Note_on_c, 2, 54, 88
4, 19441, Note_on_c, 2, 54, 0
4, 19441, Note_on_c, 2, 49, 0
4, 19470, Note_on_c, 2, 54, 89
4, 19471, Note_on_c, 2, 49, 89
4, 19472, Note_on_c, 2, 49, 0
4, 19472, Note_on_c, 2, 54, 0
4, 19500, Note_on_c, 2, 54, 93
4, 19500, Note_on_c, 2, 59, 87
4, 19560, Note_on_c, 2, 59, 0
4, 19560, Note_on_c, 2, 54, 0
4, 19619, Note_on_c, 2, 54, 89
4, 19620, Note_on_c, 2, 49, 90
4, 19621, Note_on_c, 2, 42, 91
4, 19799, Note_on_c, 2, 42, 0
4, 19799, Note_on_c, 2, 49, 0
4, 19799, Note_on_c, 2, 54, 0
4, 19800, Note_on_c, 2, 42, 90
4, 19800, Note_on_c, 2, 49, 92
4, 19802, Note_on_c, 2, 54, 91
4, 19859, Note_on_c, 2, 54, 0
4, 19860, Note_on_c, 2, 49, 0
4, 19860, Note_on_c, 2, 42, 0
4, 19861, Note_on_c, 2, 54, 93
4, 19862, Note_on_c, 2, 54, 0
4, 19862, Note_on_c, 2, 49, 87
4, 19862, Note_on_c, 2, 49, 0
4, 19890, Note_on_c, 2, 49, 90
4, 19890, Note_on_c, 2, 54, 93
4, 19891, Note_on_c, 2, 54, 0
4, 19892, Note_on_c, 2, 49, 0
4, 19920, Note_on_c, 2, 54, 88
4, 19921, Note_on_c, 2, 49, 89
4, 19921, Note_on_c, 2, 49, 0
4, 19922, Note_on_c, 2, 54, 0
4, 19949, Note_on_c, 2, 49, 89
4, 19950, Note_on_c, 2, 54, 89
4, 19951, Note_on_c, 2, 54, 0
4, 19952, Note_on_c, 2, 49, 0
4, 19980, Note_on_c, 2, 59, 93
4, 19981, Note_on_c, 2, 54, 88
4, 20040, Note_on_c, 2, 54, 0
4, 20040, Note_on_c, 2, 59, 0
4, 20099, Note_on_c, 2, 42, 89
4, 20101, Note_on_c, 2, 49, 90
4, 20101, Note_on_c, 2, 54, 92
4, 20279, Note_on_c, 2, 54, 0
4, 20279, Note_on_c, 2, 49, 0
4, 20279, Note_on_c, 2, 42, 0
4, 20280, Note_on_c, 2, 54, 88
4, 20280, Note_on_c, 2, 49, 93
4, 20282, Note_on_c, 2, 42, 93
4, 20340, Note_on_c, 2, 42, 0
4, 20340, Note_on_c, 2, 49, 0
4, 20340, Note_on_c, 2, 54, 0
4, 20341, Note_on_c, 2, 49, 88
4, 20341, Note_on_c, 2, 54, 89
4, 20342, Note_on_c, 2, 54, 0
4, 20343, Note_on_c, 2, 49, 0
4, 20369, Note_on_c, 2, 54, 88
4, 20371, Note_on_c, 2, 49, 89
4, 20372, Note_on_c, 2, 49, 0
4, 20372, Note_on_c, 2, 54, 0
4, 20400, Note_on_c, 2, 49, 88
4, 20401, Note_on_c, 2, 54, 90
4, 20401, Note_on_c, 2, 54, 0
4, 20402, Note_on_c, 2, 49, 0
4, 20430, Note_on_c, 2, 54, 91
4, 20430, Note_on_c, 2, 49, 87
4, 20431, Note_on_c, 2, 49, 0
4, 20431, Note_on_c, 2, 54, 0
4, 20460, Note_on_c, 2, 54, 92
4, 20461, Note_on_c, 2, 59, 88
4, 20520, Note_on_c, 2, 59, 0
4, 20520, Note_on_c, 2, 54, 0
4, 20580, Note_on_c, 2, 54, 88
4, 20581, Note_on_c, 2, 49, 91
4, 20581, Note_on_c, 2, 42, 90
4, 20760, Note_on_c, 2, 42, 0
4, 20760, Note_on_c, 2, 49, 0
4, 20761, Note_on_c, 2, 54, 0
4, 20761, Note_on_c, 2, 42, 91
4, 20762, Note_on_c, 2, 49, 88
4, 20762, Note_on_c, 2, 54, 88
4, 20820, Note_on_c, 2, 54, 0
4, 20820, Note_on_c, 2, 49, 0
4, 20820, Note_on_c, 2, 42, 0
4, 20821, Note_on_c, 2, 54, 93
4, 20821, Note_on_c, 2, 49, 88
4, 20821, Note_on_c, 2, 49, 0
4, 20822, Note_on_c, 2, 54, 0
4, 20849, Note_on_c, 2, 49, 93
4, 20850, Note_on_c, 2, 54, 93
4, 20851, Note_on_c, 2, 54, 0
4, 20852, Note_on_c, 2, 49, 0
4, 20880, Note_on_c, 2, 54, 89
4, 20881, Note_on_c, 2, 49, 92
4, 20882, Note_on_c, 2, 49, 0
4, 20883, Note_on_c, 2, 54, 0
4, 20910, Note_on_c, 2, 49, 88
4, 20910, Note_on_c, 2, 54, 87
4, 20911, Note_on_c, 2, 54, 0
4, 20912, Note_on_c, 2, 49, 0
4, 20940, Note_on_c, 2, 59, 92
4, 20941, Note_on_c, 2, 54, 88
4, 21000, Note_on_c, 2, 54, 0
4, 21001, Note_on_c, 2, 59, 0
4, 21060, Note_on_c, 2, 42, 88
4, 21061, Note_on_c, 2, 49, 90
4, 21062, Note_on_c, 2, 54, 89
4, 21239, Note_on_c, 2, 54, 0
4, 21240, Note_on_c, 2, 49, 0
4, 21240, Note_on_c, 2, 42, 0
4, 21241, Note_on_c, 2, 54, 93
4, 21241, Note_on_c, 2, 49, 90
4, 21242, Note_on_c, 2, 42, 89
4, 21300, Note_on_c, 2, 42, 0
4, 21301, Note_on_c, 2, 49, 0
4, 21301, Note_on_c, 2, 54, 0
4, 21302, Note_on_c, 2, 49, 91
4, 21302, Note_on_c, 2, 54, 89
4, 21302, Note_on_c, 2, 54, 0
4, 21303, Note_on_c, 2, 49, 0
4, 21330, Note_on_c, 2, 54, 88
4, 21331, Note_on_c, 2, 49, 87
4, 21332, Note_on_c, 2, 49, 0
4, 21332, Note_on_c, 2, 54, 0
4, 21360, Note_on_c, 2, 42, 92
4, 21361, Note_on_c, 2, 49, 90
4, 21361, Note_on_c, 2, 54, 89
4, 21419, Note_on_c, 2, 54, 0
4, 21420, Note_on_c, 2, 49, 0
4, 21420, Note_on_c, 2, 42, 0
4, 21421, Note_on_c, 2, 54, 87
4, 21421, Note_on_c, 2, 54, 91
4, 21422, Note_on_c, 2, 54, 88
4, 21422, Note_on_c, 2, 49, 93
4, 21424, Note_on_c, 2, 42, 91
4, 21479, Note_on_c, 2, 42, 0
4, 21479, Note_on_c, 2, 54, 0
4, 21480, Note_on_c, 2, 54, 0
4, 21480, Note_on_c, 2, 54, 0
4, 21480, Note_on_c, 2, 49, 0
4, 21481, Note_on_c, 2, 40, 90
4, 21481, Note_on_c, 2, 52, 87
4, 21481, Note_on_c, 2, 59, 92
4, 21540, Note_on_c, 2, 59, 0
4, 21540, Note_on_c, 2, 52, 0
4, 21541, Note_on_c, 2, 40, 0
4, 21542, Note_on_c, 2, 57, 93
4, 21542, Note_on_c, 2, 50, 91
4, 21660, Note_on_c, 2, 50, 0
4, 21661, Note_on_c, 2, 57, 0
4, 21661, Note_on_c, 2, 50, 91
4, 21662, Note_on_c, 2, 57, 92
4, 21662, Note_on_c, 2, 62, 89
4, 21720, Note_on_c, 2, 62, 0
4, 21721, Note_on_c, 2, 57, 0
4, 21721, Note_on_c, 2, 50, 0
4, 21722, Note_on_c, 2, 62, 87
4, 21722, Note_on_c, 2, 57, 90
4, 21722, Note_on_c, 2, 50, 89
4, 21775, Note_on_c, 2, 50, 0
4, 21775, Note_on_c, 2, 57, 0
4, 21776, Note_on_c, 2, 62, 0
4, 21780, Note_on_c, 2, 50, 93
4, 21781, Note_on_c, 2, 57, 88
4, 21782, Note_on_c, 2, 62, 91
4, 21839, Note_on_c, 2, 62, 0
4, 21839, Note_on_c, 2, 57, 0
4, 21840, Note_on_c, 2, 50, 0
4, 21840, Note_on_c, 2, 62, 90
4, 21841, Note_on_c, 2, 57, 88
4, 21842, Note_on_c, 2, 50, 92
4, 21899, Note_on_c, 2, 50, 0
4, 21900, Note_on_c, 2, 57, 0
4, 21900, Note_on_c, 2, 62, 0
4, 21901, Note_on_c, 2, 50, 90
4, 21901, Note_on_c, 2, 57, 91
4, 21902, Note_on_c, 2, 62, 87
4, 21959, Note_on_c, 2, 62, 0
4, 21959, Note_on_c, 2, 57, 0
4, 21960, Note_on_c, 2, 50, 0
4, 21961, Note_on_c, 2, 57, 91
4, 21961, Note_on_c, 2, 50, 88
4, 22020, Note_on_c, 2, 50, 0
4, 22020, Note_on_c, 2, 57, 0
4, 22021, Note_on_c, 2, 45, 91
4, 22021, Note_on_c, 2, 52, 92
4, 22022, Note_on_c, 2, 62, 87
4, 22139, Note_on_c, 2, 62, 0
4, 22140, Note_on_c, 2, 52, 0
4, 22141, Note_on_c, 2, 45, 0
4, 22141, Note_on_c, 2, 62, 91
4, 22142, Note_on_c, 2, 52, 91
4, 22142, Note_on_c, 2, 45, 89
4, 22200, Note_on_c, 2, 45, 0
4, 22201, Note_on_c, 2, 52, 0
4, 22201, Note_on_c, 2, 62, 0
4, 22202, Note_on_c, 2, 45, 93
4, 22202, Note_on_c, 2, 52, 87
4, 22202, Note_on_c, 2, 62, 88
4, 22254, Note_on_c, 2, 62, 0
4, 22255, Note_on_c, 2, 52, 0
4, 22256, Note_on_c, 2, 45, 0
4, 22260, Note_on_c, 2, 62, 87
4, 22260, Note_on_c, 2, 52, 91
4, 22262, Note_on_c, 2, 45, 89
4, 22319, Note_on_c, 2, 52, 0
4, 22320, Note_on_c, 2, 45, 0
4, 22320, Note_on_c, 2, 62, 0
4, 22321, Note_on_c, 2, 45, 87
4, 22321, Note_on_c, 2, 52, 90
4, 22322, Note_on_c, 2, 62, 88
4, 22379, Note_on_c, 2, 62, 0
4, 22380, Note_on_c, 2, 52, 0
4, 22380, Note_on_c, 2, 45, 0
4, 22380, Note_on_c, 2, 62, 87
4, 22381, Note_on_c, 2, 52, 87
4, 22382, Note_on_c, 2, 45, 90
4, 22440, Note_on_c, 2, 45, 0
4, 22440, Note_on_c, 2, 52, 0
4, 22440, Note_on_c, 2, 62, 0
4, 22441, Note_on_c, 2, 45, 92
4, 22442, Note_on_c, 2, 52, 87
4, 22442, Note_on_c, 2, 62, 89
4, 22499, Note_on_c, 2, 62, 0
4, 22500, Note_on_c, 2, 52, 0
4, 22500, Note_on_c, 2, 45, 0
4, 22501, Note_on_c, 2, 62, 91
4, 22502, Note_on_c, 2, 57, 87
4, 22502, Note_on_c, 2, 50, 93
4, 22559, Note_on_c, 2, 50, 0
4, 22559, Note_on_c, 2, 62, 0
4, 22560, Note_on_c, 2, 57, 0
4, 22560, Note_on_c, 2, 50, 90
4, 22560, Note_on_c, 2, 57, 87
4, 22562, Note_on_c, 2, 62, 88
4, 22619, Note_on_c, 2, 62, 0
4, 22620, Note_on_c, 2, 57, 0
4, 22620, Note_on_c, 2, 50, 0
4, 22621, Note_on_c, 2, 62, 93
4, 22621, Note_on_c, 2, 57, 91
4, 22621, Note_on_c, 2, 50, 93
4, 22679, Note_on_c, 2, 50, 0
4, 22680, Note_on_c, 2, 57, 0
4, 22680, Note_on_c, 2, 62, 0
4, 22681, Note_on_c, 2, 50, 93
4, 22682, Note_on_c, 2, 57, 90
4, 22682, Note_on_c, 2, 62, 93
4, 22734, Note_on_c, 2, 62, 0
4, 22735, Note_on_c, 2, 57, 0
4, 22735, Note_on_c, 2, 50, 0
4, 22740, Note_on_c, 2, 62, 87
4, 22741, Note_on_c, 2, 57, 89
4, 22742, Note_on_c, 2, 50, 90
4, 22800, Note_on_c, 2, 50, 0
4, 22801, Note_on_c, 2, 57, 0
4, 22801, Note_on_c, 2, 62, 0
4, 22802, Note_on_c, 2, 50, 92
4, 22802, Note_on_c, 2, 57, 91
4, 22802, Note_on_c, 2, 62, 92
4, 22860, Note_on_c, 2, 62, 0
4, 22860, Note_on_c, 2, 57, 0
4, 22861, Note_on_c, 2, 50, 0
4, 22862, Note_on_c, 2, 62, 90
4, 22862, Note_on_c, 2, 57, 87
4, 22863, Note_on_c, 2, 50, 93
4, 22920, Note_on_c, 2, 50, 0
4, 22920, Note_on_c, 2, 57, 0
4, 22921, Note_on_c, 2, 62, 0
4, 22921, Note_on_c, 2, 50, 89
4, 22922, Note_on_c, 2, 57, 89
4, 22922, Note_on_c, 2, 62, 90
4, 22979, Note_on_c, 2, 62, 0
4, 22980, Note_on_c, 2, 57, 0
4, 22980, Note_on_c, 2, 50, 0
4, 22981, Note_on_c, 2, 62, 90
4, 22981, Note_on_c, 2, 52, 87
4, 22981, Note_on_c, 2, 45, 93
4, 23039, Note_on_c, 2, 45, 0
4, 23040, Note_on_c, 2, 52, 0
4, 23040, Note_on_c, 2, 62, 0
4, 23041, Note_on_c, 2, 45, 90
4, 23041, Note_on_c, 2, 52, 93
4, 23042, Note_on_c, 2, 62, 87
4, 23099, Note_on_c, 2, 62, 0
4, 23099, Note_on_c, 2, 52, 0
4, 23100, Note_on_c, 2, 45, 0
4, 23100, Note_on_c, 2, 62, 87
4, 23101, Note_on_c, 2, 52, 88
4, 23102, Note_on_c, 2, 45, 87
4, 23159, Note_on_c, 2, 45, 0
4, 23159, Note_on_c, 2, 52, 0
4, 23159, Note_on_c, 2, 62, 0
4, 23160, Note_on_c, 2, 45, 92
4, 23160, Note_on_c, 2, 52, 91
4, 23161, Note_on_c, 2, 62, 89
4, 23214, Note_on_c, 2, 62, 0
4, 23214, Note_on_c, 2, 52, 0
4, 23215, Note_on_c, 2, 45, 0
4, 23220, Note_on_c, 2, 62, 92
4, 23221, Note_on_c, 2, 52, 88
4, 23222, Note_on_c, 2, 45, 92
4, 23279, Note_on_c, 2, 45, 0
4, 23280, Note_on_c, 2, 52, 0
4, 23280, Note_on_c, 2, 62, 0
4, 23281, Note_on_c, 2, 45, 87
4, 23281, Note_on_c, 2, 52, 90
4, 23282, Note_on_c, 2, 62, 88
4, 23340, Note_on_c, 2, 62, 0
4, 23340, Note_on_c, 2, 52, 0
4, 23341, Note_on_c, 2, 45, 0
4, 23342, Note_on_c, 2, 62, 91
4, 23342, Note_on_c, 2, 52, 91
4, 23343, Note_on_c, 2, 45, 89
4, 23399, Note_on_c, 2, 45, 0
4, 23399, Note_on_c, 2, 52, 0
4, 23400, Note_on_c, 2, 62, 0
4, 23401, Note_on_c, 2, 45, 87
4, 23401, Note_on_c, 2, 52, 93
4, 23402, Note_on_c, 2, 62, 90
4, 23460, Note_on_c, 2, 62, 0
4, 23460, Note_on_c, 2, 52, 0
4, 23461, Note_on_c, 2, 45, 0
4, 23461, Note_on_c, 2, 62, 91
4, 23462, Note_on_c, 2, 57, 88
4, 23462, Note_on_c, 2, 50, 89
4, 23519, Note_on_c, 2, 50, 0
4, 23520, Note_on_c, 2, 57, 0
4, 23520, Note_on_c, 2, 62, 0
4, 23521, Note_on_c, 2, 50, 91
4, 23521, Note_on_c, 2, 57, 93
4, 23521, Note_on_c, 2, 62, 91
4, 23579, Note_on_c, 2, 62, 0
4, 23580, Note_on_c, 2, 57, 0
4, 23581, Note_on_c, 2, 50, 0
4, 23581, Note_on_c, 2, 62, 92
4, 23582, Note_on_c, 2, 57, 89
4, 23582, Note_on_c, 2, 50, 90
4, 23640, Note_on_c, 2, 50, 0
4, 23640, Note_on_c, 2, 57, 0
4, 23640, Note_on_c, 2, 62, 0
4, 23641, Note_on_c, 2, 50, 88
4, 23641, Note_on_c, 2, 57, 87
4, 23642, Note_on_c, 2, 62, 87
4, 23695, Note_on_c, 2, 62, 0
4, 23695, Note_on_c, 2, 57, 0
4, 23695, Note_on_c, 2, 50, 0
4, 23699, Note_on_c, 2, 62, 93
4, 23701, Note_on_c, 2, 57, 90
4, 23702, Note_on_c, 2, 50, 90
4, 23759, Note_on_c, 2, 50, 0
4, 23759, Note_on_c, 2, 57, 0
4, 23759, Note_on_c, 2, 62, 0
4, 23760, Note_on_c, 2, 50, 87
4, 23761, Note_on_c, 2, 57, 87
4, 23762, Note_on_c, 2, 62, 89
4, 23820, Note_on_c, 2, 62, 0
4, 23820, Note_on_c, 2, 57, 0
4, 23820, Note_on_c, 2, 50, 0
4, 23821, Note_on_c, 2, 62, 88
4, 23821, Note_on_c, 2, 57, 92
4, 23821, Note_on_c, 2, 50, 89
4, 23880, Note_on_c, 2, 50, 0
4, 23880, Note_on_c, 2, 57, 0
4, 23880, Note_on_c, 2, 62, 0
4, 23881, Note_on_c, 2, 50, 93
4, 23881, Note_on_c, 2, 57, 88
4, 23882, Note_on_c, 2, 62, 93
4, 23940, Note_on_c, 2, 62, 0
4, 23940, Note_on_c, 2, 57, 0
4, 23941, Note_on_c, 2, 50, 0
4, 23941, Note_on_c, 2, 63, 93
4, 23942, Note_on_c, 2, 58, 92
4, 23942, Note_on_c, 2, 51, 89
4, 24000, Note_on_c, 2, 51, 0
4, 24001, Note_on_c, 2, 58, 0
4, 24001, Note_on_c, 2, 63, 0
4, 24002, Note_on_c, 2, 51, 88
4, 24002, Note_on_c, 2, 58, 90
4, 24003, Note_on_c, 2, 63, 88
4, 24060, Note_on_c, 2, 63, 0
4, 24060, Note_on_c, 2, 58, 0
4, 24061, Note_on_c, 2, 51, 0
4, 24062, Note_on_c, 2, 63, 87
4, 24062, Note_on_c, 2, 58, 91
4, 24063, Note_on_c, 2, 51, 90
4, 24119, Note_on_c, 2, 51, 0
4, 24120, Note_on_c, 2, 58, 0
4, 24121, Note_on_c, 2, 63, 0
4, 24121, Note_on_c, 2, 51, 89
4, 24121, Note_on_c, 2, 58, 87
4, 24121, Note_on_c, 2, 63, 91
4, 24175, Note_on_c, 2, 63, 0
4, 24175, Note_on_c, 2, 58, 0
4, 24176, Note_on_c, 2, 51, 0
4, 24179, Note_on_c, 2, 63, 92
4, 24181, Note_on_c, 2, 58, 89
4, 24181, Note_on_c, 2, 51, 90
4, 24239, Note_on_c, 2, 51, 0
4, 24240, Note_on_c, 2, 58, 0
4, 24240, Note_on_c, 2, 63, 0
4, 24241, Note_on_c, 2, 51, 90
4, 24241, Note_on_c, 2, 58, 88
4, 24242, Note_on_c, 2, 63, 91
4, 24299, Note_on_c, 2, 63, 0
4, 24299, Note_on_c, 2, 58, 0
4, 24299, Note_on_c, 2, 51, 0
4, 24299, Note_on_c, 2, 63, 90
4, 24301, Note_on_c, 2, 58, 88
4, 24302, Note_on_c, 2, 51, 88
4, 24359, Note_on_c, 2, 51, 0
4, 24359, Note_on_c, 2, 58, 0
4, 24360, Note_on_c, 2, 63, 0
4, 24361, Note_on_c, 2, 51, 87
4, 24361, Note_on_c, 2, 58, 93
4, 24362, Note_on_c, 2, 63, 87
4, 24419, Note_on_c, 2, 63, 0
4, 24420, Note_on_c, 2, 58, 0
4, 24421, Note_on_c, 2, 51, 0
4, 24421, Note_on_c, 2, 64, 92
4, 24421, Note_on_c, 2, 59, 91
4, 24422, Note_on_c, 2, 52, 90
4, 24479, Note_on_c, 2, 52, 0
4, 24480, Note_on_c, 2, 59, 0
4, 24480, Note_on_c, 2, 64, 0
4, 24481, Note_on_c, 2, 52, 87
4, 24481, Note_on_c, 2, 59, 93
4, 24482, Note_on_c, 2, 64, 89
4, 24540, Note_on_c, 2, 64, 0
4, 24540, Note_on_c, 2, 59, 0
4, 24541, Note_on_c, 2, 52, 0
4, 24542, Note_on_c, 2, 64, 87
4, 24542, Note_on_c, 2, 59, 87
4, 24542, Note_on_c, 2, 52, 91
4, 24599, Note_on_c, 2, 52, 0
4, 24600, Note_on_c, 2, 59, 0
4, 24600, Note_on_c, 2, 64, 0
4, 24601, Note_on_c, 2, 52, 91
4, 24601, Note_on_c, 2, 59, 87
4, 24602, Note_on_c, 2, 64, 90
4, 24655, Note_on_c, 2, 64, 0
4, 24655, Note_on_c, 2, 59, 0
4, 24656, Note_on_c, 2, 52, 0
4, 24659, Note_on_c, 2, 64, 93
4, 24661, Note_on_c, 2, 59, 93
4, 24662, Note_on_c, 2, 52, 92
4, 24719, Note_on_c, 2, 59, 0
4, 24720, Note_on_c, 2, 52, 0
4, 24720, Note_on_c, 2, 64, 0
4, 24721, Note_on_c, 2, 52, 88
4, 24721, Note_on_c, 2, 59, 93
4, 24722, Note_on_c, 2, 64, 88
4, 24779, Note_on_c, 2, 64, 0
4, 24780, Note_on_c, 2, 59, 0
4, 24781, Note_on_c, 2, 52, 0
4, 24781, Note_on_c, 2, 64, 91
4, 24782, Note_on_c, 2, 59, 92
4, 24782, Note_on_c, 2, 52, 88
4, 24839, Note_on_c, 2, 52, 0
4, 24839, Note_on_c, 2, 64, 0
4, 24840, Note_on_c, 2, 59, 0
4, 24840, Note_on_c, 2, 52, 90
4, 24840, Note_on_c, 2, 59, 89
4, 24842, Note_on_c, 2, 64, 87
4, 24900, Note_on_c, 2, 64, 0
4, 24900, Note_on_c, 2, 59, 0
4, 24901, Note_on_c, 2, 52, 0
4, 24902, Note_on_c, 2, 64, 90
4, 24902, Note_on_c, 2, 59, 88
4, 24903, Note_on_c, 2, 52, 92
4, 24960, Note_on_c, 2, 52, 0
4, 24960, Note_on_c, 2, 59, 0
4, 24961, Note_on_c, 2, 64, 0
4, 25380, Note_on_c, 2, 45, 93
4, 25380, Note_on_c, 2, 52, 92
4, 25499, Note_on_c, 2, 52, 0
4, 25500, Note_on_c, 2, 45, 0
4, 25501, Note_on_c, 2, 52, 93
4, 25501, Note_on_c, 2, 45, 89
4, 25554, Note_on_c, 2, 45, 0
4, 25554, Note_on_c, 2, 52, 0
4, 25559, Note_on_c, 2, 45, 90
4, 25561, Note_on_c, 2, 52, 93
4, 25614, Note_on_c, 2, 52, 0
4, 25614, Note_on_c, 2, 45, 0
4, 25620, Note_on_c, 2, 52, 88
4, 25621, Note_on_c, 2, 45, 93
4, 25679, Note_on_c, 2, 45, 0
4, 25679, Note_on_c, 2, 52, 0
4, 25679, Note_on_c, 2, 45, 91
4, 25681, Note_on_c, 2, 52, 92
4, 25740, Note_on_c, 2, 52, 0
4, 25740, Note_on_c, 2, 45, 0
4, 25741, Note_on_c, 2, 52, 90
4, 25742, Note_on_c, 2, 45, 89
4, 25800, Note_on_c, 2, 45, 0
4, 25800, Note_on_c, 2, 52, 0
4, 25801, Note_on_c, 2, 45, 91
4, 25801, Note_on_c, 2, 52, 88
4, 25859, Note_on_c, 2, 52, 0
4, 25860, Note_on_c, 2, 45, 0
4, 25860, Note_on_c, 2, 54, 88
4, 25860, Note_on_c, 2, 47, 92
4, 25920, Note_on_c, 2, 47, 0
4, 25920, Note_on_c, 2, 54, 0
4, 25920, Note_on_c, 2, 47, 88
4, 25920, Note_on_c, 2, 54, 88
4, 25979, Note_on_c, 2, 54, 0
4, 25979, Note_on_c, 2, 47, 0
4, 25980, Note_on_c, 2, 54, 93
4, 25980, Note_on_c, 2, 47, 91
4, 26040, Note_on_c, 2, 47, 0
4, 26040, Note_on_c, 2, 54, 0
4, 26041, Note_on_c, 2, 47, 91
4, 26042, Note_on_c, 2, 54, 88
4, 26042, Note_on_c, 2, 57, 93
4, 26095, Note_on_c, 2, 57, 0
4, 26096, Note_on_c, 2, 54, 0
4, 26096, Note_on_c, 2, 47, 0
4, 26099, Note_on_c, 2, 54, 88
4, 26101, Note_on_c, 2, 47, 90
4, 26159, Note_on_c, 2, 47, 0
4, 26159, Note_on_c, 2, 54, 0
4, 26160, Note_on_c, 2, 47, 88
4, 26160, Note_on_c, 2, 54, 89
4, 26162, Note_on_c, 2, 57, 91
4, 26219, Note_on_c, 2, 57, 0
4, 26219, Note_on_c, 2, 54, 0
4, 26219, Note_on_c, 2, 47, 0
4, 26220, Note_on_c, 2, 57, 90
4, 26221, Note_on_c, 2, 54, 93
4, 26221, Note_on_c, 2, 47, 91
4, 26279, Note_on_c, 2, 47, 0
4, 26280, Note_on_c, 2, 54, 0
4, 26280, Note_on_c, 2, 57, 0
4, 26280, Note_on_c, 2, 45, 91
4, 26280, Note_on_c, 2, 52, 93
4, 26339, Note_on_c, 2, 52, 0
4, 26339, Note_on_c, 2, 45, 0
4, 26340, Note_on_c, 2, 57, 92
4, 26341, Note_on_c, 2, 50, 92
4, 26459, Note_on_c, 2, 50, 0
4, 26460, Note_on_c, 2, 57, 0
4, 26460, Note_on_c, 2, 50, 89
4, 26460, Note_on_c, 2, 57, 90
4, 26519, Note_on_c, 2, 57, 0
4, 26520, Note_on_c, 2, 50, 0
4, 26521, Note_on_c, 2, 57, 90
4, 26521, Note_on_c, 2, 50, 90
4, 26575, Note_on_c, 2, 50, 0
4, 26575, Note_on_c, 2, 57, 0
4, 26580, Note_on_c, 2, 50, 88
4, 26581, Note_on_c, 2, 57, 87
4, 26639, Note_on_c, 2, 57, 0
4, 26640, Note_on_c, 2, 50, 0
4, 26640, Note_on_c, 2, 57, 90
4, 26641, Note_on_c, 2, 50, 87
4, 26700, Note_on_c, 2, 50, 0
4, 26700, Note_on_c, 2, 57, 0
4, 26701, Note_on_c, 2, 50, 90
4, 26701, Note_on_c, 2, 57, 93
4, 26759, Note_on_c, 2, 57, 0
4, 26760, Note_on_c, 2, 50, 0
4, 26760, Note_on_c, 2, 57, 87
4, 26761, Note_on_c, 2, 50, 91
4, 26819, Note_on_c, 2, 57, 0
4, 26820, Note_on_c, 2, 50, 0
4, 26820, Note_on_c, 2, 50, 88
4, 26821, Note_on_c, 2, 57, 87
4, 26879, Note_on_c, 2, 57, 0
4, 26879, Note_on_c, 2, 50, 0
4, 26880, Note_on_c, 2, 57, 91
4, 26881, Note_on_c, 2, 50, 92
4, 26939, Note_on_c, 2, 50, 0
4, 26939, Note_on_c, 2, 57, 0
4, 26940, Note_on_c, 2, 50, 91
4, 26941, Note_on_c, 2, 57, 91
4, 26999, Note_on_c, 2, 57, 0
4, 26999, Note_on_c, 2, 50, 0
4, 27000, Note_on_c, 2, 57, 87
4, 27001, Note_on_c, 2, 50, 93
4, 27054, Note_on_c, 2, 50, 0
4, 27054, Note_on_c, 2, 57, 0
4, 27060, Note_on_c, 2, 50, 87
4, 27061, Note_on_c, 2, 57, 91
4, 27120, Note_on_c, 2, 57, 0
4, 27120, Note_on_c, 2, 50, 0
4, 27120, Note_on_c, 2, 57, 93
4, 27121, Note_on_c, 2, 50, 93
4, 27180, Note_on_c, 2, 50, 0
4, 27180, Note_on_c, 2, 57, 0
4, 27181, Note_on_c, 2, 50, 91
4, 27182, Note_on_c, 2, 57, 93
4, 27240, Note_on_c, 2, 57, 0
4, 27240, Note_on_c, 2, 50, 0
4, 27241, Note_on_c, 2, 50, 92
4, 27241, Note_on_c, 2, 42, 90
4, 27299, Note_on_c, 2, 42, 0
4, 27300, Note_on_c, 2, 50, 0
4, 27301, Note_on_c, 2, 45, 87
4, 27301, Note_on_c, 2, 52, 87
4, 27420, Note_on_c, 2, 52, 0
4, 27421, Note_on_c, 2, 45, 0
4, 27421, Note_on_c, 2, 52, 93
4, 27421, Note_on_c, 2, 45, 91
4, 27474, Note_on_c, 2, 45, 0
4, 27474, Note_on_c, 2, 52, 0
4, 27480, Note_on_c, 2, 45, 88
4, 27480, Note_on_c, 2, 52, 90
4, 27534, Note_on_c, 2, 52, 0
4, 27534, Note_on_c, 2, 45, 0
4, 27540, Note_on_c, 2, 52, 92
4, 27541, Note_on_c, 2, 45, 90
4, 27600, Note_on_c, 2, 45, 0
4, 27601, Note_on_c, 2, 52, 0
4, 27601, Note_on_c, 2, 45, 89
4, 27602, Note_on_c, 2, 52, 89
4, 27660, Note_on_c, 2, 52, 0
4, 27660, Note_on_c, 2, 45, 0
4, 27660, Note_on_c, 2, 52, 91
4, 27660, Note_on_c, 2, 45, 91
4, 27719, Note_on_c, 2, 45, 0
4, 27719, Note_on_c, 2, 52, 0
4, 27720, Note_on_c, 2, 45, 89
4, 27721, Note_on_c, 2, 52, 89
4, 27779, Note_on_c, 2, 52, 0
4, 27779, Note_on_c, 2, 45, 0
4, 27780, Note_on_c, 2, 54, 89
4, 27781, Note_on_c, 2, 47, 92
4, 27840, Note_on_c, 2, 47, 0
4, 27840, Note_on_c, 2, 54, 0
4, 27841, Note_on_c, 2, 47, 89
4, 27841, Note_on_c, 2, 54, 87
4, 27899, Note_on_c, 2, 54, 0
4, 27900, Note_on_c, 2, 47, 0
4, 27901, Note_on_c, 2, 54, 87
4, 27901, Note_on_c, 2, 47, 88
4, 27960, Note_on_c, 2, 47, 0
4, 27960, Note_on_c, 2, 54, 0
4, 27961, Note_on_c, 2, 47, 89
4, 27961, Note_on_c, 2, 54, 93
4, 27962, Note_on_c, 2, 57, 92
4, 28014, Note_on_c, 2, 57, 0
4, 28014, Note_on_c, 2, 54, 0
4, 28015, Note_on_c, 2, 47, 0
4, 28020, Note_on_c, 2, 54, 93
4, 28020, Note_on_c, 2, 47, 90
4, 28079, Note_on_c, 2, 47, 0
4, 28080, Note_on_c, 2, 54, 0
4, 28080, Note_on_c, 2, 47, 91
4, 28080, Note_on_c, 2, 54, 87
4, 28082, Note_on_c, 2, 57, 93
4, 28140, Note_on_c, 2, 57, 0
4, 28140, Note_on_c, 2, 54, 0
4, 28141, Note_on_c, 2, 47, 0
4, 28142, Note_on_c, 2, 57, 92
4, 28142, Note_on_c, 2, 54, 92
4, 28142, Note_on_c, 2, 47, 93
4, 28200, Note_on_c, 2, 47, 0
4, 28200, Note_on_c, 2, 54, 0
4, 28200, Note_on_c, 2, 57, 0
4, 28201, Note_on_c, 2, 45, 90
4, 28201, Note_on_c, 2, 52, 88
4, 28260, Note_on_c, 2, 52, 0
4, 28260, Note_on_c, 2, 45, 0
4, 28261, Note_on_c, 2, 57, 92
4, 28261, Note_on_c, 2, 50, 90
4, 28379, Note_on_c, 2, 50, 0
4, 28380, Note_on_c, 2, 57, 0
4, 28380, Note_on_c, 2, 50, 93
4, 28381, Note_on_c, 2, 57, 87
4, 28439, Note_on_c, 2, 50, 0
4, 28440, Note_on_c, 2, 57, 0
4, 28440, Note_on_c, 2, 57, 87
4, 28440, Note_on_c, 2, 50, 92
4, 28494, Note_on_c, 2, 50, 0
4, 28495, Note_on_c, 2, 57, 0
4, 28500, Note_on_c, 2, 50, 91
4, 28501, Note_on_c, 2, 57, 91
4, 28559, Note_on_c, 2, 57, 0
4, 28560, Note_on_c, 2, 50, 0
4, 28561, Note_on_c, 2, 57, 90
4, 28561, Note_on_c, 2, 50, 93
4, 28620, Note_on_c, 2, 50, 0
4, 28620, Note_on_c, 2, 57, 0
4, 28621, Note_on_c, 2, 50, 91
4, 28621, Note_on_c, 2, 57, 87
4, 28680, Note_on_c, 2, 57, 0
4, 28680, Note_on_c, 2, 50, 0
4, 28681, Note_on_c, 2, 57, 90
4, 28681, Note_on_c, 2, 50, 89
4, 28740, Note_on_c, 2, 50, 0
4, 28741, Note_on_c, 2, 57, 0
4, 28741, Note_on_c, 2, 50, 88
4, 28742, Note_on_c, 2, 57, 89
4, 28799, Note_on_c, 2, 57, 0
4, 28799, Note_on_c, 2, 50, 0
4, 28800, Note_on_c, 2, 57, 92
4, 28801, Note_on_c, 2, 50, 90
4, 28859, Note_on_c, 2, 50, 0
4, 28860, Note_on_c, 2, 57, 0
4, 28860, Note_on_c, 2, 50, 93
4, 28860, Note_on_c, 2, 57, 92
4, 28919, Note_on_c, 2, 57, 0
4, 28919, Note_on_c, 2, 50, 0
4, 28920, Note_on_c, 2, 57, 89
4, 28920, Note_on_c, 2, 50, 90
4, 28975, Note_on_c, 2, 50, 0
4, 28975, Note_on_c, 2, 57, 0
4, 28980, Note_on_c, 2, 50, 88
4, 28981, Note_on_c, 2, 57, 88
4, 29040, Note_on_c, 2, 57, 0
4, 29040, Note_on_c, 2, 50, 0
4, 29041, Note_on_c, 2, 57, 92
4, 29041, Note_on_c, 2, 50, 92
4, 29099, Note_on_c, 2, 50, 0
4, 29100, Note_on_c, 2, 57, 0
4, 29101, Note_on_c, 2, 50, 91
4, 29101, Note_on_c, 2, 57, 92
4, 29159, Note_on_c, 2, 57, 0
4, 29159, Note_on_c, 2, 50, 0
4, 29159, Note_on_c, 2, 50, 90
4, 29161, Note_on_c, 2, 42, 92
4, 29219, Note_on_c, 2, 42, 0
4, 29220, Note_on_c, 2, 50, 0
4, 29221, Note_on_c, 2, 45, 87
4, 29221, Note_on_c, 2, 52, 87
4, 29339, Note_on_c, 2, 52, 0
4, 29340, Note_on_c, 2, 45, 0
4, 29340, Note_on_c, 2, 52, 89
4, 29341, Note_on_c, 2, 45, 87
4, 29395, Note_on_c, 2, 45, 0
4, 29395, Note_on_c, 2, 52, 0
4, 29400, Note_on_c, 2, 45, 92
4, 29400, Note_on_c, 2, 52, 89
4, 29454, Note_on_c, 2, 52, 0
4, 29454, Note_on_c, 2, 45, 0
4, 29459, Note_on_c, 2, 52, 92
4, 29461, Note_on_c, 2, 45, 92
4, 29519, Note_on_c, 2, 45, 0
4, 29519, Note_on_c, 2, 52, 0
4, 29519, Note_on_c, 2, 45, 88
4, 29521, Note_on_c, 2, 52, 90
4, 29579, Note_on_c, 2, 52, 0
4, 29580, Note_on_c, 2, 45, 0
4, 29581, Note_on_c, 2, 52, 87
4, 29581, Note_on_c, 2, 45, 89
4, 29640, Note_on_c, 2, 45, 0
4, 29640, Note_on_c, 2, 52, 0
4, 29640, Note_on_c, 2, 45, 93
4, 29641, Note_on_c, 2, 52, 89
4, 29700, Note_on_c, 2, 52, 0
4, 29700, Note_on_c, 2, 45, 0
4, 29701, Note_on_c, 2, 54, 91
4, 29702, Note_on_c, 2, 47, 90
4, 29759, Note_on_c, 2, 47, 0
4, 29759, Note_on_c, 2, 54, 0
4, 29760, Note_on_c, 2, 47, 91
4, 29761, Note_on_c, 2, 54, 88
4, 29819, Note_on_c, 2, 54, 0
4, 29820, Note_on_c, 2, 47, 0
4, 29820, Note_on_c, 2, 54, 93
4, 29821, Note_on_c, 2, 47, 88
4, 29880, Note_on_c, 2, 47, 0
4, 29880, Note_on_c, 2, 54, 0
4, 29880, Note_on_c, 2, 47, 91
4, 29880, Note_on_c, 2, 54, 92
4, 29882, Note_on_c, 2, 57, 89
4, 29935, Note_on_c, 2, 57, 0
4, 29935, Note_on_c, 2, 54, 0
4, 29936, Note_on_c, 2, 47, 0
4, 29940, Note_on_c, 2, 54, 90
4, 29941, Note_on_c, 2, 47, 87
4, 29999, Note_on_c, 2, 47, 0
4, 30000, Note_on_c, 2, 54, 0
4, 30000, Note_on_c, 2, 47, 88
4, 30001, Note_on_c, 2, 54, 92
4, 30002, Note_on_c, 2, 57, 90
4, 30060, Note_on_c, 2, 57, 0
4, 30060, Note_on_c, 2, 54, 0
4, 30061, Note_on_c, 2, 47, 0
4, 30062, Note_on_c, 2, 57, 89
4, 30062, Note_on_c, 2, 54, 89
4, 30062, Note_on_c, 2, 47, 89
4, 30119, Note_on_c, 2, 47, 0
4, 30120, Note_on_c, 2, 54, 0
4, 30121, Note_on_c, 2, 57, 0
4, 30121, Note_on_c, 2, 45, 91
4, 30121, Note_on_c, 2, 52, 88
4, 30180, Note_on_c, 2, 52, 0
4, 30180, Note_on_c, 2, 45, 0
4, 30181, Note_on_c, 2, 57, 88
4, 30181, Note_on_c, 2, 50, 93
4, 30299, Note_on_c, 2, 50, 0
4, 30300, Note_on_c, 2, 57, 0
4, 30300, Note_on_c, 2, 50, 92
4, 30301, Note_on_c, 2, 57, 90
4, 30360, Note_on_c, 2, 57, 0
4, 30361, Note_on_c, 2, 50, 0
4, 30361, Note_on_c, 2, 57, 87
4, 30361, Note_on_c, 2, 50, 90
4, 30414, Note_on_c, 2, 50, 0
4, 30414, Note_on_c, 2, 57, 0
4, 30420, Note_on_c, 2, 50, 87
4, 30420, Note_on_c, 2, 57, 90
4, 30480, Note_on_c, 2, 57, 0
4, 30480, Note_on_c, 2, 50, 0
4, 30481, Note_on_c, 2, 57, 92
4, 30481, Note_on_c, 2, 50, 91
4, 30540, Note_on_c, 2, 50, 0
4, 30541, Note_on_c, 2, 57, 0
4, 30541, Note_on_c, 2, 50, 87
4, 30542, Note_on_c, 2, 57, 92
4, 30599, Note_on_c, 2, 57, 0
4, 30599, Note_on_c, 2, 50, 0
4, 30599, Note_on_c, 2, 57, 92
4, 30601, Note_on_c, 2, 50, 90
4, 30659, Note_on_c, 2, 50, 0
4, 30660, Note_on_c, 2, 57, 0
4, 30661, Note_on_c, 2, 50, 92
4, 30661, Note_on_c, 2, 57, 89
4, 30719, Note_on_c, 2, 57, 0
4, 30720, Note_on_c, 2, 50, 0
4, 30720, Note_on_c, 2, 57, 90
4, 30720, Note_on_c, 2, 50, 87
4, 30779, Note_on_c, 2, 50, 0
4, 30780, Note_on_c, 2, 57, 0
4, 30781, Note_on_c, 2, 50, 91
4, 30781, Note_on_c, 2, 57, 90
4, 30839, Note_on_c, 2, 57, 0
4, 30840, Note_on_c, 2, 50, 0
4, 30840, Note_on_c, 2, 57, 87
4, 30841, Note_on_c, 2, 50, 93
4, 30895, Note_on_c, 2, 50, 0
4, 30895, Note_on_c, 2, 57, 0
4, 30900, Note_on_c, 2, 50, 92
4, 30900, Note_on_c, 2, 57, 91
4, 30960, Note_on_c, 2, 57, 0
4, 30960, Note_on_c, 2, 50, 0
4, 30961, Note_on_c, 2, 57, 92
4, 30961, Note_on_c, 2, 50, 91
4, 31019, Note_on_c, 2, 50, 0
4, 31020, Note_on_c, 2, 57, 0
4, 31021, Note_on_c, 2, 50, 88
4, 31021, Note_on_c, 2, 57, 89
4, 31080, Note_on_c, 2, 57, 0
4, 31081, Note_on_c, 2, 50, 0
4, 31081, Note_on_c, 2, 50, 87
4, 31081, Note_on_c, 2, 42, 89
4, 31139, Note_on_c, 2, 42, 0
4, 31139, Note_on_c, 2, 50, 0
4, 31139, Note_on_c, 2, 45, 89
4, 31141, Note_on_c, 2, 52, 87
4, 31260, Note_on_c, 2, 52, 0
4, 31260, Note_on_c, 2, 45, 0
4, 31261, Note_on_c, 2, 52, 91
4, 31261, Note_on_c, 2, 45, 87
4, 31315, Note_on_c, 2, 45, 0
4, 31315, Note_on_c, 2, 52, 0
4, 31319, Note_on_c, 2, 45, 88
4, 31321, Note_on_c, 2, 52, 93
4, 31374, Note_on_c, 2, 52, 0
4, 31375, Note_on_c, 2, 45, 0
4, 31380, Note_on_c, 2, 52, 93
4, 31380, Note_on_c, 2, 45, 92
4, 31439, Note_on_c, 2, 45, 0
4, 31440, Note_on_c, 2, 52, 0
4, 31440, Note_on_c, 2, 45, 92
4, 31440, Note_on_c, 2, 52, 90
4, 31499, Note_on_c, 2, 52, 0
4, 31500, Note_on_c, 2, 45, 0
4, 31500, Note_on_c, 2, 52, 91
4, 31501, Note_on_c, 2, 45, 90
4, 31559, Note_on_c, 2, 45, 0
4, 31560, Note_on_c, 2, 52, 0
4, 31561, Note_on_c, 2, 45, 92
4, 31561, Note_on_c, 2, 52, 90
4, 31619, Note_on_c, 2, 52, 0
4, 31620, Note_on_c, 2, 45, 0
4, 31620, Note_on_c, 2, 54, 89
4, 31621, Note_on_c, 2, 47, 93
4, 31680, Note_on_c, 2, 47, 0
4, 31680, Note_on_c, 2, 54, 0
4, 31681, Note_on_c, 2, 47, 91
4, 31681, Note_on_c, 2, 54, 89
4, 31739, Note_on_c, 2, 54, 0
4, 31739, Note_on_c, 2, 47, 0
4, 31740, Note_on_c, 2, 54, 90
4, 31740, Note_on_c, 2, 47, 89
4, 31800, Note_on_c, 2, 47, 0
4, 31801, Note_on_c, 2, 54, 0
4, 31801, Note_on_c, 2, 47, 93
4, 31802, Note_on_c, 2, 54, 93
4, 31802, Note_on_c, 2, 57, 91
4, 31854, Note_on_c, 2, 57, 0
4, 31855, Note_on_c, 2, 54, 0
4, 31855, Note_on_c, 2, 47, 0
4, 31860, Note_on_c, 2, 54, 93
4, 31860, Note_on_c, 2, 47, 88
4, 31919, Note_on_c, 2, 47, 0
4, 31920, Note_on_c, 2, 54, 0
4, 31920, Note_on_c, 2, 47, 90
4, 31921, Note_on_c, 2, 54, 92
4, 31922, Note_on_c, 2, 57, 93
4, 31980, Note_on_c, 2, 57, 0
4, 31980, Note_on_c, 2, 54, 0
4, 31980, Note_on_c, 2, 47, 0
4, 31980, Note_on_c, 2, 57, 93
4, 31981, Note_on_c, 2, 54, 93
4, 31982, Note_on_c, 2, 47, 89
4, 32040, Note_on_c, 2, 47, 0
4, 32040, Note_on_c, 2, 54, 0
4, 32041, Note_on_c, 2, 57, 0
4, 32042, Note_on_c, 2, 45, 87
4, 32042, Note_on_c, 2, 52, 92
4, 32099, Note_on_c, 2, 52, 0
4, 32099, Note_on_c, 2, 45, 0
4, 32099, Note_on_c, 2, 57, 87
4, 32100, Note_on_c, 2, 50, 88
4, 32219, Note_on_c, 2, 50, 0
4, 32219, Note_on_c, 2, 57, 0
4, 32220, Note_on_c, 2, 50, 87
4, 32220, Note_on_c, 2, 57, 87
4, 32279, Note_on_c, 2, 57, 0
4, 32280, Note_on_c, 2, 50, 0
4, 32281, Note_on_c, 2, 57, 93
4, 32281, Note_on_c, 2, 50, 90
4, 32334, Note_on_c, 2, 50, 0
4, 32334, Note_on_c, 2, 57, 0
4, 32340, Note_on_c, 2, 50, 93
4, 32341, Note_on_c, 2, 57, 91
4, 32400, Note_on_c, 2, 57, 0
4, 32400, Note_on_c, 2, 50, 0
4, 32401, Note_on_c, 2, 57, 90
4, 32401, Note_on_c, 2, 50, 88
4, 32460, Note_on_c, 2, 50, 0
4, 32460, Note_on_c, 2, 57, 0
4, 32461, Note_on_c, 2, 50, 93
4, 32461, Note_on_c, 2, 57, 88
4, 32519, Note_on_c, 2, 57, 0
4, 32519, Note_on_c, 2, 50, 0
4, 32519, Note_on_c, 2, 57, 90
4, 32521, Note_on_c, 2, 50, 91
4, 32580, Note_on_c, 2, 50, 0
4, 32580, Note_on_c, 2, 57, 0
4, 32580, Note_on_c, 2, 50, 93
4, 32581, Note_on_c, 2, 57, 89
4, 32639, Note_on_c, 2, 57, 0
4, 32640, Note_on_c, 2, 50, 0
4, 32641, Note_on_c, 2, 57, 93
4, 32641, Note_on_c, 2, 50, 88
4, 32700, Note_on_c, 2, 50, 0
4, 32700, Note_on_c, 2, 57, 0
4, 32701, Note_on_c, 2, 50, 91
4, 32701, Note_on_c, 2, 57, 88
4, 32759, Note_on_c, 2, 57, 0
4, 32760, Note_on_c, 2, 50, 0
4, 32760, Note_on_c, 2, 57, 93
4, 32761, Note_on_c, 2, 50, 92
4, 32814, Note_on_c, 2, 50, 0
4, 32814, Note_on_c, 2, 57, 0
4, 32820, Note_on_c, 2, 50, 89
4, 32821, Note_on_c, 2, 57, 87
4, 32879, Note_on_c, 2, 57, 0
4, 32880, Note_on_c, 2, 50, 0
4, 32881, Note_on_c, 2, 57, 87
4, 32881, Note_on_c, 2, 50, 87
4, 32939, Note_on_c, 2, 50, 0
4, 32940, Note_on_c, 2, 57, 0
4, 32940, Note_on_c, 2, 50, 88
4, 32940, Note_on_c, 2, 57, 91
4, 32999, Note_on_c, 2, 57, 0
4, 33000, Note_on_c, 2, 50, 0
4, 33001, Note_on_c, 2, 50, 88
4, 33001, Note_on_c, 2, 42, 88
4, 33060, Note_on_c, 2, 42, 0
4, 33060, Note_on_c, 2, 50, 0
4, 33060, Note_on_c, 2, 45, 92
4, 33061, Note_on_c, 2, 52, 87
4, 33179, Note_on_c, 2, 52, 0
4, 33180, Note_on_c, 2, 45, 0
4, 33180, Note_on_c, 2, 52, 93
4, 33180, Note_on_c, 2, 45, 90
4, 33234, Note_on_c, 2, 45, 0
4, 33235, Note_on_c, 2, 52, 0
4, 33240, Note_on_c, 2, 45, 89
4, 33241, Note_on_c, 2, 52, 93
4, 33294, Note_on_c, 2, 52, 0
4, 33294, Note_on_c, 2, 45, 0
4, 33300, Note_on_c, 2, 52, 92
4, 33301, Note_on_c, 2, 45, 87
4, 33360, Note_on_c, 2, 45, 0
4, 33360, Note_on_c, 2, 52, 0
4, 33360, Note_on_c, 2, 45, 90
4, 33361, Note_on_c, 2, 52, 89
4, 33420, Note_on_c, 2, 52, 0
4, 33420, Note_on_c, 2, 45, 0
4, 33421, Note_on_c, 2, 52, 88
4, 33422, Note_on_c, 2, 45, 90
4, 33479, Note_on_c, 2, 45, 0
4, 33479, Note_on_c, 2, 52, 0
4, 33480, Note_on_c, 2, 45, 88
4, 33481, Note_on_c, 2, 52, 90
4, 33540, Note_on_c, 2, 52, 0
4, 33541, Note_on_c, 2, 45, 0
4, 33541, Note_on_c, 2, 54, 93
4, 33542, Note_on_c, 2, 47, 91
4, 33600, Note_on_c, 2, 47, 0
4, 33600, Note_on_c, 2, 54, 0
4, 33601, Note_on_c, 2, 47, 91
4, 33602, Note_on_c, 2, 54, 90
4, 33660, Note_on_c, 2, 54, 0
4, 33660, Note_on_c, 2, 47, 0
4, 33661, Note_on_c, 2, 54, 93
4, 33662, Note_on_c, 2, 47, 91
4, 33720, Note_on_c, 2, 47, 0
4, 33720, Note_on_c, 2, 54, 0
4, 33721, Note_on_c, 2, 47, 89
4, 33721, Note_on_c, 2, 54, 88
4, 33722, Note_on_c, 2, 57, 92
4, 33774, Note_on_c, 2, 57, 0
4, 33775, Note_on_c, 2, 54, 0
4, 33776, Note_on_c, 2, 47, 0
4, 33779, Note_on_c, 2, 54, 93
4, 33781, Note_on_c, 2, 47, 92
4, 33839, Note_on_c, 2, 47, 0
4, 33839, Note_on_c, 2, 54, 0
4, 33839, Note_on_c, 2, 47, 91
4, 33841, Note_on_c, 2, 54, 90
4, 33841, Note_on_c, 2, 57, 92
4, 33899, Note_on_c, 2, 57, 0
4, 33900, Note_on_c, 2, 54, 0
4, 33900, Note_on_c, 2, 47, 0
4, 33901, Note_on_c, 2, 57, 93
4, 33901, Note_on_c, 2, 54, 91
4, 33902, Note_on_c, 2, 47, 89
4, 33960, Note_on_c, 2, 47, 0
4, 33960, Note_on_c, 2, 54, 0
4, 33960, Note_on_c, 2, 57, 0
4, 33961, Note_on_c, 2, 45, 89
4, 33962, Note_on_c, 2, 52, 93
4, 34019, Note_on_c, 2, 52, 0
4, 34020, Note_on_c, 2, 45, 0
4, 34021, Note_on_c, 2, 57, 90
4, 34021, Note_on_c, 2, 50, 91
4, 34140, Note_on_c, 2, 50, 0
4, 34140, Note_on_c, 2, 57, 0
4, 34141, Note_on_c, 2, 50, 89
4, 34141, Note_on_c, 2, 57, 93
4, 34199, Note_on_c, 2, 57, 0
4, 34199, Note_on_c, 2, 50, 0
4, 34200, Note_on_c, 2, 57, 93
4, 34200, Note_on_c, 2, 50, 92
4, 34255, Note_on_c, 2, 50, 0
4, 34255, Note_on_c, 2, 57, 0
4, 34259, Note_on_c, 2, 50, 90
4, 34261, Note_on_c, 2, 57, 88
4, 34319, Note_on_c, 2, 57, 0
4, 34319, Note_on_c, 2, 50, 0
4, 34320, Note_on_c, 2, 57, 90
4, 34320, Note_on_c, 2, 50, 90
4, 34379, Note_on_c, 2, 50, 0
4, 34379, Note_on_c, 2, 57, 0
4, 34380, Note_on_c, 2, 50, 93
4, 34381, Note_on_c, 2, 57, 92
4, 34440, Note_on_c, 2, 57, 0
4, 34441, Note_on_c, 2, 50, 0
4, 34441, Note_on_c, 2, 57, 92
4, 34442, Note_on_c, 2, 50, 90
4, 34500, Note_on_c, 2, 50, 0
4, 34500, Note_on_c, 2, 57, 0
4, 34500, Note_on_c, 2, 50, 90
4, 34500, Note_on_c, 2, 57, 87
4, 34560, Note_on_c, 2, 57, 0
4, 34560, Note_on_c, 2, 50, 0
4, 34561, Note_on_c, 2, 57, 92
4, 34562, Note_on_c, 2, 50, 93
4, 34620, Note_on_c, 2, 50, 0
4, 34620, Note_on_c, 2, 57, 0
4, 34621, Note_on_c, 2, 50, 93
4, 34621, Note_on_c, 2, 57, 91
4, 34680, Note_on_c, 2, 57, 0
4, 34680, Note_on_c, 2, 50, 0
4, 34681, Note_on_c, 2, 57, 88
4, 34681, Note_on_c, 2, 50, 91
4, 34735, Note_on_c, 2, 50, 0
4, 34735, Note_on_c, 2, 57, 0
4, 34739, Note_on_c, 2, 50, 87
4, 34740, Note_on_c, 2, 57, 92
4, 34799, Note_on_c, 2, 57, 0
4, 34799, Note_on_c, 2, 50, 0
4, 34800, Note_on_c, 2, 57, 92
4, 34800, Note_on_c, 2, 50, 91
4, 34860, Note_on_c, 2, 50, 0
4, 34860, Note_on_c, 2, 57, 0
4, 34861, Note_on_c, 2, 50, 89
4, 34861, Note_on_c, 2, 57, 90
4, 34919, Note_on_c, 2, 57, 0
4, 34920, Note_on_c, 2, 50, 0
4, 34921, Note_on_c, 2, 50, 89
4, 34921, Note_on_c, 2, 42, 87
4, 34979, Note_on_c, 2, 42, 0
4, 34980, Note_on_c, 2, 50, 0
4, 34980, Note_on_c, 2, 45, 87
4, 34981, Note_on_c, 2, 52, 88
4, 35099, Note_on_c, 2, 52, 0
4, 35099, Note_on_c, 2, 45, 0
4, 35100, Note_on_c, 2, 52, 89
4, 35101, Note_on_c, 2, 45, 89
4, 35154, Note_on_c, 2, 45, 0
4, 35155, Note_on_c, 2, 52, 0
4, 35159, Note_on_c, 2, 45, 91
4, 35160, Note_on_c, 2, 52, 89
4, 35214, Note_on_c, 2, 52, 0
4, 35214, Note_on_c, 2, 45, 0
4, 35220, Note_on_c, 2, 52, 87
4, 35221, Note_on_c, 2, 45, 91
4, 35279, Note_on_c, 2, 45, 0
4, 35280, Note_on_c, 2, 52, 0
4, 35281, Note_on_c, 2, 45, 88
4, 35281, Note_on_c, 2, 52, 92
4, 35339, Note_on_c, 2, 52, 0
4, 35340, Note_on_c, 2, 45, 0
4, 35341, Note_on_c, 2, 52, 88
4, 35341, Note_on_c, 2, 45, 89
4, 35399, Note_on_c, 2, 45, 0
4, 35400, Note_on_c, 2, 52, 0
4, 35401, Note_on_c, 2, 45, 93
4, 35401, Note_on_c, 2, 52, 89
4, 35460, Note_on_c, 2, 52, 0
4, 35460, Note_on_c, 2, 45, 0
4, 35461, Note_on_c, 2, 54, 93
4, 35461, Note_on_c, 2, 47, 88
4, 35520, Note_on_c, 2, 47, 0
4, 35520, Note_on_c, 2, 54, 0
4, 35521, Note_on_c, 2, 47, 93
4, 35521, Note_on_c, 2, 54, 90
4, 35579, Note_on_c, 2, 54, 0
4, 35580, Note_on_c, 2, 47, 0
4, 35580, Note_on_c, 2, 54, 91
4, 35581, Note_on_c, 2, 47, 87
4, 35639, Note_on_c, 2, 47, 0
4, 35639, Note_on_c, 2, 54, 0
4, 35640, Note_on_c, 2, 47, 87
4, 35640, Note_on_c, 2, 54, 89
4, 35642, Note_on_c, 2, 57, 88
4, 35694, Note_on_c, 2, 57, 0
4, 35694, Note_on_c, 2, 54, 0
4, 35695, Note_on_c, 2, 47, 0
4, 35700, Note_on_c, 2, 54, 87
4, 35700, Note_on_c, 2, 47, 90
4, 35759, Note_on_c, 2, 47, 0
4, 35759, Note_on_c, 2, 54, 0
4, 35760, Note_on_c, 2, 47, 88
4, 35761, Note_on_c, 2, 54, 93
4, 35762, Note_on_c, 2, 57, 90
4, 35819, Note_on_c, 2, 57, 0
4, 35820, Note_on_c, 2, 54, 0
4, 35820, Note_on_c, 2, 47, 0
4, 35820, Note_on_c, 2, 57, 88
4, 35820, Note_on_c, 2, 54, 92
4, 35821, Note_on_c, 2, 47, 88
4, 35879, Note_on_c, 2, 47, 0
4, 35879, Note_on_c, 2, 54, 0
4, 35880, Note_on_c, 2, 57, 0
4, 35880, Note_on_c, 2, 45, 90
4, 35881, Note_on_c, 2, 52, 91
4, 35940, Note_on_c, 2, 52, 0
4, 35940, Note_on_c, 2, 45, 0
4, 35941, Note_on_c, 2, 57, 89
4, 35941, Note_on_c, 2, 50, 88
4, 36060, Note_on_c, 2, 50, 0
4, 36060, Note_on_c, 2, 57, 0
4, 36060, Note_on_c, 2, 50, 89
4, 36061, Note_on_c, 2, 57, 91
4, 36119, Note_on_c, 2, 57, 0
4, 36120, Note_on_c, 2, 50, 0
4, 36120, Note_on_c, 2, 57, 91
4, 36121, Note_on_c, 2, 50, 87
4, 36174, Note_on_c, 2, 50, 0
4, 36175, Note_on_c, 2, 57, 0
4, 36179, Note_on_c, 2, 50, 89
4, 36180, Note_on_c, 2, 57, 91
4, 36239, Note_on_c, 2, 57, 0
4, 36240, Note_on_c, 2, 50, 0
4, 36241, Note_on_c, 2, 57, 91
4, 36241, Note_on_c, 2, 50, 90
4, 36299, Note_on_c, 2, 50, 0
4, 36300, Note_on_c, 2, 57, 0
4, 36301, Note_on_c, 2, 50, 91
4, 36301, Note_on_c, 2, 57, 87
4, 36359, Note_on_c, 2, 57, 0
4, 36360, Note_on_c, 2, 50, 0
4, 36360, Note_on_c, 2, 57, 90
4, 36361, Note_on_c, 2, 50, 87
4, 36420, Note_on_c, 2, 50, 0
4, 36421, Note_on_c, 2, 57, 0
4, 36421, Note_on_c, 2, 50, 87
4, 36421, Note_on_c, 2, 57, 92
4, 36479, Note_on_c, 2, 57, 0
4, 36479, Note_on_c, 2, 50, 0
4, 36480, Note_on_c, 2, 57, 92
4, 36480, Note_on_c, 2, 50, 92
4, 36539, Note_on_c, 2, 50, 0
4, 36540, Note_on_c, 2, 57, 0
4, 36540, Note_on_c, 2, 50, 89
4, 36540, Note_on_c, 2, 57, 92
4, 36599, Note_on_c, 2, 57, 0
4, 36600, Note_on_c, 2, 50, 0
4, 36600, Note_on_c, 2, 57, 90
4, 36601, Note_on_c, 2, 50, 91
4, 36654, Note_on_c, 2, 50, 0
4, 36655, Note_on_c, 2, 57, 0
4, 36660, Note_on_c, 2, 50, 92
4, 36661, Note_on_c, 2, 57, 91
4, 36719, Note_on_c, 2, 57, 0
4, 36719, Note_on_c, 2, 50, 0
4, 36720, Note_on_c, 2, 57, 87
4, 36721, Note_on_c, 2, 50, 93
4, 36779, Note_on_c, 2, 50, 0
4, 36780, Note_on_c, 2, 57, 0
4, 36780, Note_on_c, 2, 50, 87
4, 36781, Note_on_c, 2, 57, 93
4, 36840, Note_on_c, 2, 57, 0
4, 36840, Note_on_c, 2, 50, 0
4, 36840, Note_on_c, 2, 50, 87
4, 36840, Note_on_c, 2, 42, 90
4, 36900, Note_on_c, 2, 42, 0
4, 36900, Note_on_c, 2, 50, 0
4, 36901, Note_on_c, 2, 45, 93
4, 36901, Note_on_c, 2, 52, 89
4, 37020, Note_on_c, 2, 52, 0
4, 37020, Note_on_c, 2, 45, 0
4, 37021, Note_on_c, 2, 52, 89
4, 37021, Note_on_c, 2, 45, 87
4, 37074, Note_on_c, 2, 45, 0
4, 37074, Note_on_c, 2, 52, 0
4, 40739, Note_on_c, 2, 45, 92
4, 40741, Note_on_c, 2, 52, 89
4, 40860, Note_on_c, 2, 52, 0
4, 40860, Note_on_c, 2, 45, 0
4, 40860, Note_on_c, 2, 52, 91
4, 40861, Note_on_c, 2, 45, 87
4, 40914, Note_on_c, 2, 45, 0
4, 40915, Note_on_c, 2, 52, 0
4, 40920, Note_on_c, 2, 45, 91
4, 40921, Note_on_c, 2, 52, 87
4, 40974, Note_on_c, 2, 52, 0
4, 40975, Note_on_c, 2, 45, 0
4, 40980, Note_on_c, 2, 52, 87
4, 40980, Note_on_c, 2, 45, 90
4, 41039, Note_on_c, 2, 45, 0
4, 41039, Note_on_c, 2, 52, 0
4, 41040, Note_on_c, 2, 45, 92
4, 41041, Note_on_c, 2, 52, 89
4, 41099, Note_on_c, 2, 52, 0
4, 41099, Note_on_c, 2, 45, 0
4, 41100, Note_on_c, 2, 52, 88
4, 41100, Note_on_c, 2, 45, 91
4, 41159, Note_on_c, 2, 45, 0
4, 41160, Note_on_c, 2, 52, 0
4, 41161, Note_on_c, 2, 45, 91
4, 41161, Note_on_c, 2, 52, 89
4, 41219, Note_on_c, 2, 52, 0
4, 41220, Note_on_c, 2, 45, 0
4, 41221, Note_on_c, 2, 54, 93
4, 41221, Note_on_c, 2, 47, 90
4, 41280, Note_on_c, 2, 47, 0
4, 41281, Note_on_c, 2, 54, 0
4, 41281, Note_on_c, 2, 47, 91
4, 41282, Note_on_c, 2, 54, 88
4, 41340, Note_on_c, 2, 54, 0
4, 41340, Note_on_c, 2, 47, 0
4, 41341, Note_on_c, 2, 54, 93
4, 41342, Note_on_c, 2, 47, 93
4, 41399, Note_on_c, 2, 47, 0
4, 41399, Note_on_c, 2, 54, 0
4, 41399, Note_on_c, 2, 47, 90
4, 41400, Note_on_c, 2, 54, 91
4, 41402, Note_on_c, 2, 57, 90
4, 41454, Note_on_c, 2, 57, 0
4, 41454, Note_on_c, 2, 54, 0
4, 41454, Note_on_c, 2, 47, 0
4, 41460, Note_on_c, 2, 54, 91
4, 41461, Note_on_c, 2, 47, 91
4, 41519, Note_on_c, 2, 47, 0
4, 41520, Note_on_c, 2, 54, 0
4, 41520, Note_on_c, 2, 47, 90
4, 41521, Note_on_c, 2, 54, 90
4, 41521, Note_on_c, 2, 57, 87
4, 41580, Note_on_c, 2, 57, 0
4, 41580, Note_on_c, 2, 54, 0
4, 41581, Note_on_c, 2, 47, 0
4, 41582, Note_on_c, 2, 57, 91
4, 41582, Note_on_c, 2, 54, 91
4, 41582, Note_on_c, 2, 47, 90
4, 41640, Note_on_c, 2, 47, 0
4, 41640, Note_on_c, 2, 54, 0
4, 41641, Note_on_c, 2, 57, 0
4, 41641, Note_on_c, 2, 45, 92
4, 41641, Note_on_c, 2, 52, 90
4, 41699, Note_on_c, 2, 52, 0
4, 41699, Note_on_c, 2, 45, 0
4, 41700, Note_on_c, 2, 57, 88
4, 41701, Note_on_c, 2, 50, 87
4, 41820, Note_on_c, 2, 50, 0
4, 41820, Note_on_c, 2, 57, 0
4, 41821, Note_on_c, 2, 50, 91
4, 41822, Note_on_c, 2, 57, 93
4, 41880, Note_on_c, 2, 57, 0
4, 41880, Note_on_c, 2, 50, 0
4, 41881, Note_on_c, 2, 57, 92
4, 41881, Note_on_c, 2, 50, 90
4, 41935, Note_on_c, 2, 50, 0
4, 41935, Note_on_c, 2, 57, 0
4, 41940, Note_on_c, 2, 50, 87
4, 41941, Note_on_c, 2, 57, 89
4, 41999, Note_on_c, 2, 57, 0
4, 41999, Note_on_c, 2, 50, 0
4, 42000, Note_on_c, 2, 57, 91
4, 42001, Note_on_c, 2, 50, 87
4, 42059, Note_on_c, 2, 50, 0
4, 42060, Note_on_c, 2, 57, 0
4, 42060, Note_on_c, 2, 50, 87
4, 42060, Note_on_c, 2, 57, 93
4, 42119, Note_on_c, 2, 57, 0
4, 42120, Note_on_c, 2, 50, 0
4, 42120, Note_on_c, 2, 57, 93
4, 42121, Note_on_c, 2, 50, 91
4, 42180, Note_on_c, 2, 50, 0
4, 42180, Note_on_c, 2, 57, 0
4, 42181, Note_on_c, 2, 50, 92
4, 42182, Note_on_c, 2, 57, 91
4, 42239, Note_on_c, 2, 57, 0
4, 42240, Note_on_c, 2, 50, 0
4, 42241, Note_on_c, 2, 57, 87
4, 42241, Note_on_c, 2, 50, 89
4, 42300, Note_on_c, 2, 50, 0
4, 42300, Note_on_c, 2, 57, 0
4, 42301, Note_on_c, 2, 50, 87
4, 42301, Note_on_c, 2, 57, 90
4, 42360, Note_on_c, 2, 57, 0
4, 42360, Note_on_c, 2, 50, 0
4, 42360, Note_on_c, 2, 57, 92
4, 42361, Note_on_c, 2, 50, 87
4, 42415, Note_on_c, 2, 50, 0
4, 42415, Note_on_c, 2, 57, 0
4, 42420, Note_on_c, 2, 50, 92
4, 42421, Note_on_c, 2, 57, 90
4, 42480, Note_on_c, 2, 57, 0
4, 42480, Note_on_c, 2, 50, 0
4, 42481, Note_on_c, 2, 57, 88
4, 42481, Note_on_c, 2, 50, 89
4, 42540, Note_on_c, 2, 50, 0
4, 42541, Note_on_c, 2, 57, 0
4, 42541, Note_on_c, 2, 50, 90
4, 42542, Note_on_c, 2, 57, 92
4, 42599, Note_on_c, 2, 57, 0
4, 42599, Note_on_c, 2, 50, 0
4, 42600, Note_on_c, 2, 50, 91
4, 42600, Note_on_c, 2, 42, 89
4, 42659, Note_on_c, 2, 42, 0
4, 42659, Note_on_c, 2, 50, 0
4, 42660, Note_on_c, 2, 45, 92
4, 42661, Note_on_c, 2, 52, 93
4, 42780, Note_on_c, 2, 52, 0
4, 42780, Note_on_c, 2, 45, 0
4, 42781, Note_on_c, 2, 52, 93
4, 42781, Note_on_c, 2, 45, 88
4, 42834, Note_on_c, 2, 45, 0
4, 42835, Note_on_c, 2, 52, 0
4, 42839, Note_on_c, 2, 45, 92
4, 42840, Note_on_c, 2, 52, 92
4, 42895, Note_on_c, 2, 52, 0
4, 42895, Note_on_c, 2, 45, 0
4, 42900, Note_on_c, 2, 52, 88
4, 42901, Note_on_c, 2, 45, 93
4, 42959, Note_on_c, 2, 45, 0
4, 42960, Note_on_c, 2, 52, 0
4, 42961, Note_on_c, 2, 45, 91
4, 42961, Note_on_c, 2, 52, 88
4, 43020, Note_on_c, 2, 52, 0
4, 43020, Note_on_c, 2, 45, 0
4, 43020, Note_on_c, 2, 52, 88
4, 43021, Note_on_c, 2, 45, 90
4, 43079, Note_on_c, 2, 45, 0
4, 43080, Note_on_c, 2, 52, 0
4, 43081, Note_on_c, 2, 45, 89
4, 43081, Note_on_c, 2, 52, 87
4, 43140, Note_on_c, 2, 52, 0
4, 43141, Note_on_c, 2, 45, 0
4, 43141, Note_on_c, 2, 54, 90
4, 43142, Note_on_c, 2, 47, 87
4, 43200, Note_on_c, 2, 47, 0
4, 43200, Note_on_c, 2, 54, 0
4, 43201, Note_on_c, 2, 47, 90
4, 43202, Note_on_c, 2, 54, 87
4, 43260, Note_on_c, 2, 54, 0
4, 43260, Note_on_c, 2, 47, 0
4, 43261, Note_on_c, 2, 54, 87
4, 43261, Note_on_c, 2, 47, 92
4, 43319, Note_on_c, 2, 47, 0
4, 43319, Note_on_c, 2, 54, 0
4, 43319, Note_on_c, 2, 47, 88
4, 43321, Note_on_c, 2, 54, 93
4, 43321, Note_on_c, 2, 57, 88
4, 43374, Note_on_c, 2, 57, 0
4, 43374, Note_on_c, 2, 54, 0
4, 43375, Note_on_c, 2, 47, 0
4, 43380, Note_on_c, 2, 54, 91
4, 43381, Note_on_c, 2, 47, 92
4, 43439, Note_on_c, 2, 47, 0
4, 43439, Note_on_c, 2, 54, 0
4, 43440, Note_on_c, 2, 47, 90
4, 43441, Note_on_c, 2, 54, 90
4, 43441, Note_on_c, 2, 57, 93
4, 43499, Note_on_c, 2, 57, 0
4, 43499, Note_on_c, 2, 54, 0
4, 43500, Note_on_c, 2, 47, 0
4, 43500, Note_on_c, 2, 57, 91
4, 43501, Note_on_c, 2, 54, 89
4, 43502, Note_on_c, 2, 47, 91
4, 43560, Note_on_c, 2, 47, 0
4, 43560, Note_on_c, 2, 54, 0
4, 43560, Note_on_c, 2, 57, 0
4, 43561, Note_on_c, 2, 45, 92
4, 43562, Note_on_c, 2, 52, 92
4, 43619, Note_on_c, 2, 52, 0
4, 43619, Note_on_c, 2, 45, 0
4, 43620, Note_on_c, 2, 57, 93
4, 43621, Note_on_c, 2, 50, 90
4, 43739, Note_on_c, 2, 50, 0
4, 43740, Note_on_c, 2, 57, 0
4, 43741, Note_on_c, 2, 50, 88
4, 43741, Note_on_c, 2, 57, 93
4, 43799, Note_on_c, 2, 57, 0
4, 43800, Note_on_c, 2, 50, 0
4, 43800, Note_on_c, 2, 57, 93
4, 43801, Note_on_c, 2, 50, 92
4, 43854, Note_on_c, 2, 50, 0
4, 43855, Note_on_c, 2, 57, 0
4, 43859, Note_on_c, 2, 50, 91
4, 43861, Note_on_c, 2, 57, 91
4, 43920, Note_on_c, 2, 57, 0
4, 43920, Note_on_c, 2, 50, 0
4, 43921, Note_on_c, 2, 57, 90
4, 43921, Note_on_c, 2, 50, 88
4, 43979, Note_on_c, 2, 50, 0
4, 43980, Note_on_c, 2, 57, 0
4, 43981, Note_on_c, 2, 50, 87
4, 43981, Note_on_c, 2, 57, 90
4, 44039, Note_on_c, 2, 57, 0
4, 44040, Note_on_c, 2, 50, 0
4, 44040, Note_on_c, 2, 57, 93
4, 44041, Note_on_c, 2, 50, 92
4, 44100, Note_on_c, 2, 50, 0
4, 44101, Note_on_c, 2, 57, 0
4, 44101, Note_on_c, 2, 50, 88
4, 44102, Note_on_c, 2, 57, 93
4, 44159, Note_on_c, 2, 57, 0
4, 44160, Note_on_c, 2, 50, 0
4, 44160, Note_on_c, 2, 57, 91
4, 44161, Note_on_c, 2, 50, 92
4, 44219, Note_on_c, 2, 50, 0
4, 44220, Note_on_c, 2, 57, 0
4, 44220, Note_on_c, 2, 50, 89
4, 44221, Note_on_c, 2, 57, 90
4, 44280, Note_on_c, 2, 57, 0
4, 44280, Note_on_c, 2, 50, 0
4, 44281, Note_on_c, 2, 57, 93
4, 44281, Note_on_c, 2, 50, 89
4, 44334, Note_on_c, 2, 50, 0
4, 44335, Note_on_c, 2, 57, 0
4, 44340, Note_on_c, 2, 50, 91
4, 44341, Note_on_c, 2, 57, 89
4, 44399, Note_on_c, 2, 57, 0
4, 44399, Note_on_c, 2, 50, 0
4, 44399, Note_on_c, 2, 57, 92
4, 44401, Note_on_c, 2, 50, 87
4, 44459, Note_on_c, 2, 50, 0
4, 44459, Note_on_c, 2, 57, 0
4, 44460, Note_on_c, 2, 50, 89
4, 44461, Note_on_c, 2, 57, 88
4, 44520, Note_on_c, 2, 57, 0
4, 44520, Note_on_c, 2, 50, 0
4, 44521, Note_on_c, 2, 50, 88
4, 44521, Note_on_c, 2, 42, 87
4, 44579, Note_on_c, 2, 42, 0
4, 44580, Note_on_c, 2, 50, 0
4, 44581, Note_on_c, 2, 49, 92
4, 44581, Note_on_c, 2, 54, 89
4, 44700, Note_on_c, 2, 54, 0
4, 44700, Note_on_c, 2, 49, 0
4, 44700, Note_on_c, 2, 54, 90
4, 44700, Note_on_c, 2, 49, 89
4, 44755, Note_on_c, 2, 49, 0
4, 44755, Note_on_c, 2, 54, 0
4, 44760, Note_on_c, 2, 45, 92
4, 44761, Note_on_c, 2, 52, 88
4, 44814, Note_on_c, 2, 52, 0
4, 44815, Note_on_c, 2, 45, 0
4, 44819, Note_on_c, 2, 52, 90
4, 44821, Note_on_c, 2, 45, 90
4, 44879, Note_on_c, 2, 45, 0
4, 44879, Note_on_c, 2, 52, 0
4, 44880, Note_on_c, 2, 45, 88
4, 44880, Note_on_c, 2, 52, 93
4, 44939, Note_on_c, 2, 52, 0
4, 44940, Note_on_c, 2, 45, 0
4, 44940, Note_on_c, 2, 52, 89
4, 44941, Note_on_c, 2, 45, 90
4, 44999, Note_on_c, 2, 45, 0
4, 45000, Note_on_c, 2, 52, 0
4, 45001, Note_on_c, 2, 45, 91
4, 45001, Note_on_c, 2, 52, 91
4, 45059, Note_on_c, 2, 52, 0
4, 45059, Note_on_c, 2, 45, 0
4, 45060, Note_on_c, 2, 54, 91
4, 45061, Note_on_c, 2, 47, 87
4, 45119, Note_on_c, 2, 47, 0
4, 45119, Note_on_c, 2, 54, 0
4, 45120, Note_on_c, 2, 47, 88
4, 45121, Note_on_c, 2, 54, 89
4, 45179, Note_on_c, 2, 54, 0
4, 45179, Note_on_c, 2, 47, 0
4, 45180, Note_on_c, 2, 54, 91
4, 45181, Note_on_c, 2, 47, 89
4, 45240, Note_on_c, 2, 47, 0
4, 45240, Note_on_c, 2, 54, 0
4, 45241, Note_on_c, 2, 47, 88
4, 45242, Note_on_c, 2, 54, 87
4, 45242, Note_on_c, 2, 57, 88
4, 45295, Note_on_c, 2, 57, 0
4, 45296, Note_on_c, 2, 54, 0
4, 45296, Note_on_c, 2, 47, 0
4, 45299, Note_on_c, 2, 54, 93
4, 45300, Note_on_c, 2, 47, 92
4, 45359, Note_on_c, 2, 47, 0
4, 45359, Note_on_c, 2, 54, 0
4, 45360, Note_on_c, 2, 47, 87
4, 45361, Note_on_c, 2, 54, 91
4, 45361, Note_on_c, 2, 57, 92
4, 45420, Note_on_c, 2, 57, 0
4, 45421, Note_on_c, 2, 54, 0
4, 45421, Note_on_c, 2, 47, 0
4, 45422, Note_on_c, 2, 57, 87
4, 45422, Note_on_c, 2, 54, 88
4, 45423, Note_on_c, 2, 47, 92
4, 45480, Note_on_c, 2, 47, 0
4, 45480, Note_on_c, 2, 54, 0
4, 45481, Note_on_c, 2, 57, 0
4, 45481, Note_on_c, 2, 45, 88
4, 45481, Note_on_c, 2, 52, 93
4, 45540, Note_on_c, 2, 52, 0
4, 45540, Note_on_c, 2, 45, 0
4, 45541, Note_on_c, 2, 57, 88
4, 45542, Note_on_c, 2, 50, 92
4, 45660, Note_on_c, 2, 50, 0
4, 45660, Note_on_c, 2, 57, 0
4, 45661, Note_on_c, 2, 50, 90
4, 45661, Note_on_c, 2, 57, 92
4, 45719, Note_on_c, 2, 57, 0
4, 45720, Note_on_c, 2, 50, 0
4, 45720, Note_on_c, 2, 57, 88
4, 45720, Note_on_c, 2, 50, 89
4, 45774, Note_on_c, 2, 50, 0
4, 45775, Note_on_c, 2, 57, 0
4, 45780, Note_on_c, 2, 50, 87
4, 45781, Note_on_c, 2, 57, 89
4, 45839, Note_on_c, 2, 57, 0
4, 45840, Note_on_c, 2, 50, 0
4, 45840, Note_on_c, 2, 57, 93
4, 45841, Note_on_c, 2, 50, 89
4, 45899, Note_on_c, 2, 50, 0
4, 45899, Note_on_c, 2, 57, 0
4, 45900, Note_on_c, 2, 50, 89
4, 45900, Note_on_c, 2, 57, 92
4, 45960, Note_on_c, 2, 57, 0
4, 45960, Note_on_c, 2, 50, 0
4, 45961, Note_on_c, 2, 57, 91
4, 45962, Note_on_c, 2, 50, 93
4, 46019, Note_on_c, 2, 50, 0
4, 46020, Note_on_c, 2, 57, 0
4, 46021, Note_on_c, 2, 50, 93
4, 46021, Note_on_c, 2, 57, 89
4, 46080, Note_on_c, 2, 57, 0
4, 46080, Note_on_c, 2, 50, 0
4, 46080, Note_on_c, 2, 57, 92
4, 46081, Note_on_c, 2, 50, 87
4, 46139, Note_on_c, 2, 50, 0
4, 46139, Note_on_c, 2, 57, 0
4, 46140, Note_on_c, 2, 50, 91
4, 46140, Note_on_c, 2, 57, 91
4, 46200, Note_on_c, 2, 57, 0
4, 46200, Note_on_c, 2, 50, 0
4, 46201, Note_on_c, 2, 57, 89
4, 46201, Note_on_c, 2, 50, 93
4, 46255, Note_on_c, 2, 50, 0
4, 46256, Note_on_c, 2, 57, 0
4, 46260, Note_on_c, 2, 50, 93
4, 46261, Note_on_c, 2, 57, 90
4, 46320, Note_on_c, 2, 57, 0
4, 46321, Note_on_c, 2, 50, 0
4, 46321, Note_on_c, 2, 57, 92
4, 46321, Note_on_c, 2, 50, 87
4, 46380, Note_on_c, 2, 50, 0
4, 46380, Note_on_c, 2, 57, 0
4, 46380, Note_on_c, 2, 50, 92
4, 46381, Note_on_c, 2, 57, 91
4, 46439, Note_on_c, 2, 57, 0
4, 46439, Note_on_c, 2, 50, 0
4, 46440, Note_on_c, 2, 50, 87
4, 46440, Note_on_c, 2, 42, 90
4, 46499, Note_on_c, 2, 42, 0
4, 46499, Note_on_c, 2, 50, 0
4, 46500, Note_on_c, 2, 45, 93
4, 46501, Note_on_c, 2, 52, 93
4, 46619, Note_on_c, 2, 52, 0
4, 46619, Note_on_c, 2, 45, 0
4, 46620, Note_on_c, 2, 52, 91
4, 46620, Note_on_c, 2, 45, 93
4, 46674, Note_on_c, 2, 45, 0
4, 46674, Note_on_c, 2, 52, 0
4, 46680, Note_on_c, 2, 45, 93
4, 46681, Note_on_c, 2, 52, 88
4, 46735, Note_on_c, 2, 52, 0
4, 46735, Note_on_c, 2, 45, 0
4, 46740, Note_on_c, 2, 52, 93
4, 46741, Note_on_c, 2, 45, 93
4, 46799, Note_on_c, 2, 52, 0
4, 46800, Note_on_c, 2, 45, 0
4, 46800, Note_on_c, 2, 45, 87
4, 46801, Note_on_c, 2, 52, 87
4, 46860, Note_on_c, 2, 52, 0
4, 46860, Note_on_c, 2, 45, 0
4, 46861, Note_on_c, 2, 52, 89
4, 46861, Note_on_c, 2, 45, 93
4, 46919, Note_on_c, 2, 45, 0
4, 46920, Note_on_c, 2, 52, 0
4, 46920, Note_on_c, 2, 45, 91
4, 46921, Note_on_c, 2, 52, 92
4, 46979, Note_on_c, 2, 52, 0
4, 46980, Note_on_c, 2, 45, 0
4, 46981, Note_on_c, 2, 54, 91
4, 46981, Note_on_c, 2, 47, 90
4, 47039, Note_on_c, 2, 47, 0
4, 47040, Note_on_c, 2, 54, 0
4, 47040, Note_on_c, 2, 47, 92
4, 47040, Note_on_c, 2, 54, 87
4, 47099, Note_on_c, 2, 54, 0
4, 47099, Note_on_c, 2, 47, 0
4, 47100, Note_on_c, 2, 54, 88
4, 47101, Note_on_c, 2, 47, 93
4, 47160, Note_on_c, 2, 47, 0
4, 47160, Note_on_c, 2, 54, 0
4, 47161, Note_on_c, 2, 47, 87
4, 47161, Note_on_c, 2, 54, 87
4, 47162, Note_on_c, 2, 57, 90
4, 47214, Note_on_c, 2, 57, 0
4, 47214, Note_on_c, 2, 54, 0
4, 47215, Note_on_c, 2, 47, 0
4, 47220, Note_on_c, 2, 54, 87
4, 47221, Note_on_c, 2, 47, 92
4, 47280, Note_on_c, 2, 47, 0
4, 47281, Note_on_c, 2, 54, 0
4, 47281, Note_on_c, 2, 47, 88
4, 47281, Note_on_c, 2, 54, 93
4, 47282, Note_on_c, 2, 57, 89
4, 47340, Note_on_c, 2, 57, 0
4, 47340, Note_on_c, 2, 54, 0
4, 47341, Note_on_c, 2, 47, 0
4, 47342, Note_on_c, 2, 57, 88
4, 47342, Note_on_c, 2, 54, 93
4, 47342, Note_on_c, 2, 47, 90
4, 47399, Note_on_c, 2, 47, 0
4, 47399, Note_on_c, 2, 54, 0
4, 47399, Note_on_c, 2, 57, 0
4, 47400, Note_on_c, 2, 45, 91
4, 47400, Note_on_c, 2, 52, 91
4, 47459, Note_on_c, 2, 52, 0
4, 47459, Note_on_c, 2, 45, 0
4, 47460, Note_on_c, 2, 57, 87
4, 47460, Note_on_c, 2, 50, 89
4, 47579, Note_on_c, 2, 50, 0
4, 47580, Note_on_c, 2, 57, 0
4, 47581, Note_on_c, 2, 50, 89
4, 47581, Note_on_c, 2, 57, 92
4, 47640, Note_on_c, 2, 57, 0
4, 47640, Note_on_c, 2, 50, 0
4, 47640, Note_on_c, 2, 57, 92
4, 47641, Note_on_c, 2, 50, 87
4, 47694, Note_on_c, 2, 50, 0
4, 47694, Note_on_c, 2, 57, 0
4, 47699, Note_on_c, 2, 50, 87
4, 47700, Note_on_c, 2, 57, 90
4, 47760, Note_on_c, 2, 57, 0
4, 47760, Note_on_c, 2, 50, 0
4, 47761, Note_on_c, 2, 57, 92
4, 47762, Note_on_c, 2, 50, 88
4, 47819, Note_on_c, 2, 50, 0
4, 47819, Note_on_c, 2, 57, 0
4, 47819, Note_on_c, 2, 50, 88
4, 47821, Note_on_c, 2, 57, 91
4, 47879, Note_on_c, 2, 57, 0
4, 47880, Note_on_c, 2, 50, 0
4, 47881, Note_on_c, 2, 57, 90
4, 47881, Note_on_c, 2, 50, 91
4, 47939, Note_on_c, 2, 50, 0
4, 47940, Note_on_c, 2, 57, 0
4, 47941, Note_on_c, 2, 50, 88
4, 47941, Note_on_c, 2, 57, 91
4, 48000, Note_on_c, 2, 57, 0
4, 48000, Note_on_c, 2, 50, 0
4, 48000, Note_on_c, 2, 57, 90
4, 48000, Note_on_c, 2, 50, 91
4, 48060, Note_on_c, 2, 50, 0
4, 48060, Note_on_c, 2, 57, 0
4, 48061, Note_on_c, 2, 50, 92
4, 48061, Note_on_c, 2, 57, 87
4, 48120, Note_on_c, 2, 57, 0
4, 48121, Note_on_c, 2, 50, 0
4, 48121, Note_on_c, 2, 57, 93
4, 48122, Note_on_c, 2, 50, 91
4, 48175, Note_on_c, 2, 50, 0
4, 48175, Note_on_c, 2, 57, 0
4, 48179, Note_on_c, 2, 50, 92
4, 48181, Note_on_c, 2, 57, 87
4, 48239, Note_on_c, 2, 57, 0
4, 48240, Note_on_c, 2, 50, 0
4, 48240, Note_on_c, 2, 57, 90
4, 48241, Note_on_c, 2, 50, 88
4, 48299, Note_on_c, 2, 50, 0
4, 48300, Note_on_c, 2, 57, 0
4, 48301, Note_on_c, 2, 50, 87
4, 48301, Note_on_c, 2, 57, 88
4, 48360, Note_on_c, 2, 57, 0
4, 48360, Note_on_c, 2, 50, 0
4, 48361, Note_on_c, 2, 50, 88
4, 48361, Note_on_c, 2, 42, 89
4, 48420, Note_on_c, 2, 42, 0
4, 48420, Note_on_c, 2, 50, 0
4, 48420, Note_on_c, 2, 45, 90
4, 48421, Note_on_c, 2, 52, 89
4, 48540, Note_on_c, 2, 52, 0
4, 48540, Note_on_c, 2, 45, 0
4, 48540, Note_on_c, 2, 52, 92
4, 48540, Note_on_c, 2, 45, 91
4, 48595, Note_on_c, 2, 45, 0
4, 48595, Note_on_c, 2, 52, 0
4, 48600, Note_on_c, 2, 45, 88
4, 48601, Note_on_c, 2, 52, 87
4, 48654, Note_on_c, 2, 52, 0
4, 48655, Note_on_c, 2, 45, 0
4, 48660, Note_on_c, 2, 52, 90
4, 48661, Note_on_c, 2, 45, 92
4, 48719, Note_on_c, 2, 45, 0
4, 48720, Note_on_c, 2, 52, 0
4, 48720, Note_on_c, 2, 45, 91
4, 48721, Note_on_c, 2, 52, 87
4, 48779, Note_on_c, 2, 52, 0
4, 48780, Note_on_c, 2, 45, 0
4, 48780, Note_on_c, 2, 52, 90
4, 48780, Note_on_c, 2, 45, 93
4, 48839, Note_on_c, 2, 45, 0
4, 48839, Note_on_c, 2, 52, 0
4, 48840, Note_on_c, 2, 45, 88
4, 48841, Note_on_c, 2, 52, 93
4, 48899, Note_on_c, 2, 52, 0
4, 48899, Note_on_c, 2, 45, 0
4, 48900, Note_on_c, 2, 54, 91
4, 48901, Note_on_c, 2, 47, 89
4, 48959, Note_on_c, 2, 47, 0
4, 48959, Note_on_c, 2, 54, 0
4, 48960, Note_on_c, 2, 47, 89
4, 48961, Note_on_c, 2, 54, 88
4, 49020, Note_on_c, 2, 54, 0
4, 49020, Note_on_c, 2, 47, 0
4, 49021, Note_on_c, 2, 54, 87
4, 49022, Note_on_c, 2, 47, 89
4, 49080, Note_on_c, 2, 47, 0
4, 49080, Note_on_c, 2, 54, 0
4, 49081, Note_on_c, 2, 47, 90
4, 49081, Note_on_c, 2, 54, 87
4, 49082, Note_on_c, 2, 57, 92
4, 49134, Note_on_c, 2, 57, 0
4, 49134, Note_on_c, 2, 54, 0
4, 49135, Note_on_c, 2, 47, 0
4, 49139, Note_on_c, 2, 54, 92
4, 49141, Note_on_c, 2, 47, 89
4, 49200, Note_on_c, 2, 47, 0
4, 49200, Note_on_c, 2, 54, 0
4, 49201, Note_on_c, 2, 47, 93
4, 49202, Note_on_c, 2, 54, 92
4, 49202, Note_on_c, 2, 57, 88
4, 49260, Note_on_c, 2, 57, 0
4, 49260, Note_on_c, 2, 54, 0
4, 49260, Note_on_c, 2, 47, 0
4, 49260, Note_on_c, 2, 57, 90
4, 49260, Note_on_c, 2, 54, 88
4, 49261, Note_on_c, 2, 47, 91
4, 49319, Note_on_c, 2, 47, 0
4, 49319, Note_on_c, 2, 54, 0
4, 49319, Note_on_c, 2, 57, 0
4, 49320, Note_on_c, 2, 45, 93
4, 49321, Note_on_c, 2, 52, 87
4, 49380, Note_on_c, 2, 52, 0
4, 49381, Note_on_c, 2, 45, 0
4, 49381, Note_on_c, 2, 57, 87
4, 49381, Note_on_c, 2, 50, 92
4, 49499, Note_on_c, 2, 50, 0
4, 49499, Note_on_c, 2, 57, 0
4, 49500, Note_on_c, 2, 50, 91
4, 49501, Note_on_c, 2, 57, 88
4, 49560, Note_on_c, 2, 57, 0
4, 49560, Note_on_c, 2, 50, 0
4, 49561, Note_on_c, 2, 57, 87
4, 49561, Note_on_c, 2, 50, 87
4, 49614, Note_on_c, 2, 50, 0
4, 49614, Note_on_c, 2, 57, 0
4, 49620, Note_on_c, 2, 50, 91
4, 49620, Note_on_c, 2, 57, 91
4, 49680, Note_on_c, 2, 57, 0
4, 49680, Note_on_c, 2, 50, 0
4, 49681, Note_on_c, 2, 57, 91
4, 49681, Note_on_c, 2, 50, 88
4, 49739, Note_on_c, 2, 50, 0
4, 49740, Note_on_c, 2, 57, 0
4, 49740, Note_on_c, 2, 50, 88
4, 49740, Note_on_c, 2, 57, 87
4, 49799, Note_on_c, 2, 57, 0
4, 49799, Note_on_c, 2, 50, 0
4, 49800, Note_on_c, 2, 57, 90
4, 49801, Note_on_c, 2, 50, 93
4, 49860, Note_on_c, 2, 50, 0
4, 49860, Note_on_c, 2, 57, 0
4, 49860, Note_on_c, 2, 50, 87
4, 49860, Note_on_c, 2, 57, 91
4, 49919, Note_on_c, 2, 57, 0
4, 49920, Note_on_c, 2, 50, 0
4, 49921, Note_on_c, 2, 57, 90
4, 49921, Note_on_c, 2, 50, 88
4, 49979, Note_on_c, 2, 50, 0
4, 49980, Note_on_c, 2, 57, 0
4, 49981, Note_on_c, 2, 50, 90
4, 49981, Note_on_c, 2, 57, 90
4, 50039, Note_on_c, 2, 57, 0
4, 50040, Note_on_c, 2, 50, 0
4, 50040, Note_on_c, 2, 57, 91
4, 50040, Note_on_c, 2, 50, 88
4, 50094, Note_on_c, 2, 50, 0
4, 50095, Note_on_c, 2, 57, 0
4, 50100, Note_on_c, 2, 50, 90
4, 50101, Note_on_c, 2, 57, 90
4, 50160, Note_on_c, 2, 57, 0
4, 50160, Note_on_c, 2, 50, 0
4, 50161, Note_on_c, 2, 57, 93
4, 50162, Note_on_c, 2, 50, 88
4, 50220, Note_on_c, 2, 50, 0
4, 50220, Note_on_c, 2, 57, 0
4, 50221, Note_on_c, 2, 50, 88
4, 50221, Note_on_c, 2, 57, 93
4, 50279, Note_on_c, 2, 57, 0
4, 50280, Note_on_c, 2, 50, 0
4, 50281, Note_on_c, 2, 50, 89
4, 50281, Note_on_c, 2, 42, 87
4, 50339, Note_on_c, 2, 42, 0
4, 50340, Note_on_c, 2, 50, 0
4, 50340, Note_on_c, 2, 45, 90
4, 50340, Note_on_c, 2, 52, 93
4, 50460, Note_on_c, 2, 52, 0
4, 50461, Note_on_c, 2, 45, 0
4, 50461, Note_on_c, 2, 52, 92
4, 50462, Note_on_c, 2, 45, 91
4, 50519, Note_on_c, 2, 45, 0
4, 50520, Note_on_c, 2, 52, 0
4, 50521, Note_on_c, 2, 45, 91
4, 50521, Note_on_c, 2, 52, 89
4, 50580, Note_on_c, 2, 52, 0
4, 50580, Note_on_c, 2, 45, 0
4, 50580, End_track
5, 0, Start_track
5, 0, MIDI_port, 0
5, 0, Control_c, 3, 0, 0
5, 0, Control_c, 3, 32, 0
5, 0, Program_c, 3, 30
5, 0, Control_c, 3, 7, 93
5, 0, Control_c, 3, 10, 94
5, 6, Control_c, 3, 1, 0
5, 8, Control_c, 3, 2, 0
5, 121, Control_c, 3, 0, 0
5, 124, Control_c, 3, 11, 100
5, 128, Control_c, 3, 101, 0
5, 128, Control_c, 3, 100, 0
5, 128, Control_c, 3, 6, 2
5, 128, Control_c, 3, 38, 0
5, 244, Control_c, 3, 120, 0
5, 247, Control_c, 3, 121, 0
5, 250, Control_c, 3, 123, 0
5, 259, Control_c, 3, 91, 90
5, 262, Control_c, 3, 93, 45
5, 2341, Note_on_c, 3, 57, 90
5, 2342, Note_on_c, 3, 64, 87
5, 2343, Note_on_c, 3, 67, 92
5, 2461, Note_on_c, 3, 67, 0
5, 2461, Note_on_c, 3, 64, 0
5, 2462, Note_on_c, 3, 57, 0
5, 2462, Note_on_c, 3, 64, 92
5, 2463, Note_on_c, 3, 57, 87
5, 2515, Note_on_c, 3, 57, 0
5, 2515, Note_on_c, 3, 64, 0
5, 2521, Note_on_c, 3, 57, 90
5, 2522, Note_on_c, 3, 64, 88
5, 2523, Note_on_c, 3, 67, 93
5, 2575, Note_on_c, 3, 67, 0
5, 2576, Note_on_c, 3, 64, 0
5, 2577, Note_on_c, 3, 57, 0
5, 2581, Note_on_c, 3, 67, 89
5, 2582, Note_on_c, 3, 64, 89
5, 2583, Note_on_c, 3, 57, 92
5, 2640, Note_on_c, 3, 57, 0
5, 2641, Note_on_c, 3, 64, 0
5, 2641, Note_on_c, 3, 67, 0
5, 2641, Note_on_c, 3, 57, 92
5, 2642, Note_on_c, 3, 64, 93
5, 2643, Note_on_c, 3, 67, 91
5, 2701, Note_on_c, 3, 67, 0
5, 2701, Note_on_c, 3, 64, 0
5, 2702, Note_on_c, 3, 57, 0
5, 2703, Note_on_c, 3, 67, 88
5, 2703, Note_on_c, 3, 64, 90
5, 2704, Note_on_c, 3, 57, 87
5, 2760, Note_on_c, 3, 64, 0
5, 2761, Note_on_c, 3, 57, 0
5, 2761, Note_on_c, 3, 67, 0
5, 2761, Note_on_c, 3, 57, 90
5, 2762, Note_on_c, 3, 64, 88
5, 2763, Note_on_c, 3, 67, 91
5, 2820, Note_on_c, 3, 67, 0
5, 2821, Note_on_c, 3, 64, 0
5, 2821, Note_on_c, 3, 57, 0
5, 2822, Note_on_c, 3, 66, 75
5, 2822, Note_on_c, 3, 59, 88
5, 2881, Note_on_c, 3, 59, 0
5, 2882, Note_on_c, 3, 59, 88
5, 2882, Note_on_c, 3, 66, 87
5, 2941, Note_on_c, 3, 66, 0
5, 2941, Note_on_c, 3, 59, 0
5, 2941, Note_on_c, 3, 66, 0
5, 2942, Note_on_c, 3, 66, 93
5, 2942, Note_on_c, 3, 59, 90
5, 3001, Note_on_c, 3, 59, 0
5, 3001, Note_on_c, 3, 66, 0
5, 3002, Note_on_c, 3, 59, 87
5, 3002, Note_on_c, 3, 66, 90
5, 3056, Note_on_c, 3, 66, 0
5, 3056, Note_on_c, 3, 59, 0
5, 3061, Note_on_c, 3, 66, 89
5, 3062, Note_on_c, 3, 59, 88
5, 3121, Note_on_c, 3, 59, 0
5, 3121, Note_on_c, 3, 66, 0
5, 3122, Note_on_c, 3, 59, 91
5, 3122, Note_on_c, 3, 66, 87
5, 3181, Note_on_c, 3, 66, 0
5, 3181, Note_on_c, 3, 59, 0
5, 3182, Note_on_c, 3, 66, 91
5, 3183, Note_on_c, 3, 59, 92
5, 3241, Note_on_c, 3, 59, 0
5, 3241, Note_on_c, 3, 66, 0
5, 3242, Note_on_c, 3, 59, 91
5, 3243, Note_on_c, 3, 66, 89
5, 3301, Note_on_c, 3, 66, 0
5, 3301, Note_on_c, 3, 59, 0
5, 3302, Note_on_c, 3, 67, 92
5, 3303, Note_on_c, 3, 62, 90
5, 3421, Note_on_c, 3, 62, 0
5, 3421, Note_on_c, 3, 67, 0
5, 3422, Note_on_c, 3, 62, 89
5, 3422, Note_on_c, 3, 67, 91
5, 3481, Note_on_c, 3, 67, 0
5, 3481, Note_on_c, 3, 62, 0
5, 3482, Note_on_c, 3, 67, 90
5, 3482, Note_on_c, 3, 62, 90
5, 3536, Note_on_c, 3, 62, 0
5, 3537, Note_on_c, 3, 67, 0
5, 3541, Note_on_c, 3, 62, 88
5, 3542, Note_on_c, 3, 67, 93
5, 3601, Note_on_c, 3, 67, 0
5, 3601, Note_on_c, 3, 62, 0
5, 3602, Note_on_c, 3, 67, 92
5, 3602, Note_on_c, 3, 62, 93
5, 3661, Note_on_c, 3, 62, 0
5, 3661, Note_on_c, 3, 67, 0
5, 3662, Note_on_c, 3, 62, 88
5, 3662, Note_on_c, 3, 67, 91
5, 3721, Note_on_c, 3, 67, 0
5, 3722, Note_on_c, 3, 62, 0
5, 3722, Note_on_c, 3, 67, 87
5, 3723, Note_on_c, 3, 62, 87
5, 3780, Note_on_c, 3, 62, 0
5, 3781, Note_on_c, 3, 67, 0
5, 3781, Note_on_c, 3, 62, 92
5, 3782, Note_on_c, 3, 67, 87
5, 3840, Note_on_c, 3, 67, 0
5, 3840, Note_on_c, 3, 62, 0
5, 3841, Note_on_c, 3, 67, 91
5, 3842, Note_on_c, 3, 62, 91
5, 3900, Note_on_c, 3, 62, 0
5, 3901, Note_on_c, 3, 67, 0
5, 3901, Note_on_c, 3, 62, 93
5, 3902, Note_on_c, 3, 67, 87
5, 3961, Note_on_c, 3, 67, 0
5, 3961, Note_on_c, 3, 62, 0
5, 3962, Note_on_c, 3, 67, 87
5, 3962, Note_on_c, 3, 62, 90
5, 4016, Note_on_c, 3, 62, 0
5, 4016, Note_on_c, 3, 67, 0
5, 4020, Note_on_c, 3, 62, 91
5, 4021, Note_on_c, 3, 67, 89
5, 4080, Note_on_c, 3, 67, 0
5, 4081, Note_on_c, 3, 62, 0
5, 4081, Note_on_c, 3, 67, 91
5, 4082, Note_on_c, 3, 62, 89
5, 4141, Note_on_c, 3, 62, 0
5, 4141, Note_on_c, 3, 67, 0
5, 4142, Note_on_c, 3, 62, 87
5, 4143, Note_on_c, 3, 67, 92
5, 4201, Note_on_c, 3, 67, 0
5, 4201, Note_on_c, 3, 62, 0
5, 4201, Note_on_c, 3, 67, 93
5, 4202, Note_on_c, 3, 62, 92
5, 4261, Note_on_c, 3, 62, 0
5, 4261, Note_on_c, 3, 67, 0
5, 4261, Note_on_c, 3, 57, 89
5, 4261, Note_on_c, 3, 64, 88
5, 4380, Note_on_c, 3, 64, 0
5, 4380, Note_on_c, 3, 57, 0
5, 4381, Note_on_c, 3, 64, 89
5, 4382, Note_on_c, 3, 57, 87
5, 4436, Note_on_c, 3, 57, 0
5, 4437, Note_on_c, 3, 64, 0
5, 4440, Note_on_c, 3, 57, 88
5, 4441, Note_on_c, 3, 64, 88
5, 4443, Note_on_c, 3, 67, 91
5, 4495, Note_on_c, 3, 67, 0
5, 4495, Note_on_c, 3, 64, 0
5, 4496, Note_on_c, 3, 57, 0
5, 4501, Note_on_c, 3, 67, 92
5, 4501, Note_on_c, 3, 64, 91
5, 4503, Note_on_c, 3, 57, 92
5, 4560, Note_on_c, 3, 57, 0
5, 4560, Note_on_c, 3, 64, 0
5, 4561, Note_on_c, 3, 67, 0
5, 4561, Note_on_c, 3, 57, 88
5, 4562, Note_on_c, 3, 64, 88
5, 4563, Note_on_c, 3, 67, 89
5, 4621, Note_on_c, 3, 67, 0
5, 4621, Note_on_c, 3, 64, 0
5, 4622, Note_on_c, 3, 57, 0
5, 4623, Note_on_c, 3, 67, 88
5, 4623, Note_on_c, 3, 64, 87
5, 4624, Note_on_c, 3, 57, 93
5, 4680, Note_on_c, 3, 64, 0
5, 4681, Note_on_c, 3, 57, 0
5, 4681, Note_on_c, 3, 67, 0
5, 4681, Note_on_c, 3, 57, 89
5, 4681, Note_on_c, 3, 64, 91
5, 4683, Note_on_c, 3, 67, 88
5, 4740, Note_on_c, 3, 67, 0
5, 4740, Note_on_c, 3, 64, 0
5, 4740, Note_on_c, 3, 57, 0
5, 4741, Note_on_c, 3, 66, 88
5, 4742, Note_on_c, 3, 59, 91
5, 4801, Note_on_c, 3, 59, 0
5, 4801, Note_on_c, 3, 66, 0
5, 4801, Note_on_c, 3, 59, 91
5, 4801, Note_on_c, 3, 66, 88
5, 4861, Note_on_c, 3, 66, 0
5, 4861, Note_on_c, 3, 59, 0
5, 4862, Note_on_c, 3, 66, 90
5, 4862, Note_on_c, 3, 59, 89
5, 4921, Note_on_c, 3, 59, 0
5, 4921, Note_on_c, 3, 66, 0
5, 4922, Note_on_c, 3, 59, 87
5, 4923, Note_on_c, 3, 66, 88
5, 4976, Note_on_c, 3, 66, 0
5, 4976, Note_on_c, 3, 59, 0
5, 4981, Note_on_c, 3, 66, 91
5, 4982, Note_on_c, 3, 59, 88
5, 5040, Note_on_c, 3, 59, 0
5, 5041, Note_on_c, 3, 66, 0
5, 5041, Note_on_c, 3, 59, 90
5, 5042, Note_on_c, 3, 66, 88
5, 5100, Note_on_c, 3, 66, 0
5, 5101, Note_on_c, 3, 59, 0
5, 5101, Note_on_c, 3, 66, 87
5, 5101, Note_on_c, 3, 59, 88
5, 5161, Note_on_c, 3, 59, 0
5, 5161, Note_on_c, 3, 66, 0
5, 5162, Note_on_c, 3, 59, 87
5, 5220, Note_on_c, 3, 59, 0
5, 5221, Note_on_c, 3, 62, 91
5, 5222, Note_on_c, 3, 67, 90
5, 5340, Note_on_c, 3, 67, 0
5, 5340, Note_on_c, 3, 62, 0
5, 5341, Note_on_c, 3, 67, 88
5, 5342, Note_on_c, 3, 62, 93
5, 5400, Note_on_c, 3, 62, 0
5, 5401, Note_on_c, 3, 67, 0
5, 5402, Note_on_c, 3, 62, 87
5, 5402, Note_on_c, 3, 67, 88
5, 5456, Note_on_c, 3, 67, 0
5, 5456, Note_on_c, 3, 62, 0
5, 5460, Note_on_c, 3, 67, 88
5, 5462, Note_on_c, 3, 62, 88
5, 5521, Note_on_c, 3, 62, 0
5, 5521, Note_on_c, 3, 67, 0
5, 5522, Note_on_c, 3, 62, 88
5, 5523, Note_on_c, 3, 67, 89
5, 5581, Note_on_c, 3, 67, 0
5, 5581, Note_on_c, 3, 62, 0
5, 5582, Note_on_c, 3, 67, 89
5, 5582, Note_on_c, 3, 62, 92
5, 5641, Note_on_c, 3, 62, 0
5, 5642, Note_on_c, 3, 67, 0
5, 5642, Note_on_c, 3, 62, 93
5, 5642, Note_on_c, 3, 67, 87
5, 5700, Note_on_c, 3, 67, 0
5, 5701, Note_on_c, 3, 62, 0
5, 5702, Note_on_c, 3, 67, 92
5, 5702, Note_on_c, 3, 62, 92
5, 5761, Note_on_c, 3, 62, 0
5, 5761, Note_on_c, 3, 67, 0
5, 5761, Note_on_c, 3, 62, 89
5, 5762, Note_on_c, 3, 67, 91
5, 5821, Note_on_c, 3, 67, 0
5, 5821, Note_on_c, 3, 62, 0
5, 5822, Note_on_c, 3, 67, 91
5, 5822, Note_on_c, 3, 62, 87
5, 5881, Note_on_c, 3, 62, 0
5, 5881, Note_on_c, 3, 67, 0
5, 5881, Note_on_c, 3, 62, 88
5, 5881, Note_on_c, 3, 67, 91
5, 5936, Note_on_c, 3, 67, 0
5, 5936, Note_on_c, 3, 62, 0
5, 5940, Note_on_c, 3, 67, 92
5, 5942, Note_on_c, 3, 62, 88
5, 6000, Note_on_c, 3, 62, 0
5, 6000, Note_on_c, 3, 67, 0
5, 6001, Note_on_c, 3, 62, 90
5, 6001, Note_on_c, 3, 67, 91
5, 6060, Note_on_c, 3, 67, 0
5, 6061, Note_on_c, 3, 62, 0
5, 6062, Note_on_c, 3, 67, 91
5, 6062, Note_on_c, 3, 62, 87
5, 6120, Note_on_c, 3, 62, 0
5, 6121, Note_on_c, 3, 67, 0
5, 6121, Note_on_c, 3, 59, 87
5, 6121, Note_on_c, 3, 64, 87
5, 6181, Note_on_c, 3, 64, 0
5, 6182, Note_on_c, 3, 59, 0
5, 6182, Note_on_c, 3, 66, 88
5, 6183, Note_on_c, 3, 61, 87
5, 6183, Note_on_c, 3, 58, 89
5, 6360, Note_on_c, 3, 58, 0
5, 6361, Note_on_c, 3, 61, 0
5, 6361, Note_on_c, 3, 66, 0
5, 6362, Note_on_c, 3, 58, 87
5, 6362, Note_on_c, 3, 61, 91
5, 6363, Note_on_c, 3, 66, 89
5, 6421, Note_on_c, 3, 66, 0
5, 6421, Note_on_c, 3, 61, 0
5, 6421, Note_on_c, 3, 58, 0
5, 6422, Note_on_c, 3, 66, 87
5, 6422, Note_on_c, 3, 61, 89
5, 6422, Note_on_c, 3, 61, 0
5, 6423, Note_on_c, 3, 66, 0
5, 6423, Note_on_c, 3, 58, 87
5, 6423, Note_on_c, 3, 58, 0
5, 6451, Note_on_c, 3, 58, 89
5, 6452, Note_on_c, 3, 61, 87
5, 6452, Note_on_c, 3, 61, 0
5, 6453, Note_on_c, 3, 58, 0
5, 6453, Note_on_c, 3, 66, 87
5, 6453, Note_on_c, 3, 66, 0
5, 6481, Note_on_c, 3, 66, 92
5, 6482, Note_on_c, 3, 61, 92
5, 6483, Note_on_c, 3, 61, 0
5, 6483, Note_on_c, 3, 66, 0
5, 6484, Note_on_c, 3, 58, 88
5, 6484, Note_on_c, 3, 58, 0
5, 6510, Note_on_c, 3, 58, 90
5, 6512, Note_on_c, 3, 61, 90
5, 6512, Note_on_c, 3, 61, 0
5, 6513, Note_on_c, 3, 58, 0
5, 6514, Note_on_c, 3, 66, 93
5, 6514, Note_on_c, 3, 66, 0
5, 6541, Note_on_c, 3, 66, 88
5, 6542, Note_on_c, 3, 59, 91
5, 6601, Note_on_c, 3, 59, 0
5, 6602, Note_on_c, 3, 66, 0
5, 6660, Note_on_c, 3, 58, 92
5, 6661, Note_on_c, 3, 61, 92
5, 6663, Note_on_c, 3, 66, 92
5, 6840, Note_on_c, 3, 66, 0
5, 6840, Note_on_c, 3, 61, 0
5, 6841, Note_on_c, 3, 58, 0
5, 6842, Note_on_c, 3, 66, 92
5, 6842, Note_on_c, 3, 61, 92
5, 6843, Note_on_c, 3, 58, 92
5, 6900, Note_on_c, 3, 58, 0
5, 6900, Note_on_c, 3, 61, 0
5, 6901, Note_on_c, 3, 66, 0
5, 6902, Note_on_c, 3, 58, 88
5, 6902, Note_on_c, 3, 61, 89
5, 6902, Note_on_c, 3, 61, 0
5, 6903, Note_on_c, 3, 58, 0
5, 6904, Note_on_c, 3, 66, 87
5, 6904, Note_on_c, 3, 66, 0
5, 6931, Note_on_c, 3, 66, 88
5, 6932, Note_on_c, 3, 66, 0
5, 6932, Note_on_c, 3, 61, 93
5, 6932, Note_on_c, 3, 61, 0
5, 6932, Note_on_c, 3, 58, 90
5, 6932, Note_on_c, 3, 58, 0
5, 6961, Note_on_c, 3, 58, 93
5, 6962, Note_on_c, 3, 61, 93
5, 6963, Note_on_c, 3, 61, 0
5, 6963, Note_on_c, 3, 58, 0
5, 6964, Note_on_c, 3, 66, 93
5, 6964, Note_on_c, 3, 66, 0
5, 6990, Note_on_c, 3, 66, 89
5, 6991, Note_on_c, 3, 61, 92
5, 6993, Note_on_c, 3, 61, 0
5, 6993, Note_on_c, 3, 66, 0
5, 6994, Note_on_c, 3, 58, 93
5, 6994, Note_on_c, 3, 58, 0
5, 7021, Note_on_c, 3, 59, 89
5, 7022, Note_on_c, 3, 66, 90
5, 7080, Note_on_c, 3, 66, 0
5, 7080, Note_on_c, 3, 59, 0
5, 7140, Note_on_c, 3, 66, 91
5, 7142, Note_on_c, 3, 61, 87
5, 7143, Note_on_c, 3, 58, 90
5, 7320, Note_on_c, 3, 61, 0
5, 7320, Note_on_c, 3, 66, 0
5, 7321, Note_on_c, 3, 58, 0
5, 7321, Note_on_c, 3, 58, 91
5, 7321, Note_on_c, 3, 61, 90
5, 7323, Note_on_c, 3, 66, 93
5, 7380, Note_on_c, 3, 66, 0
5, 7380, Note_on_c, 3, 61, 0
5, 7380, Note_on_c, 3, 58, 0
5, 7381, Note_on_c, 3, 66, 87
5, 7382, Note_on_c, 3, 61, 89
5, 7382, Note_on_c, 3, 61, 0
5, 7383, Note_on_c, 3, 66, 0
5, 7383, Note_on_c, 3, 58, 89
5, 7383, Note_on_c, 3, 58, 0
5, 7410, Note_on_c, 3, 58, 93
5, 7411, Note_on_c, 3, 61, 91
5, 7412, Note_on_c, 3, 61, 0
5, 7413, Note_on_c, 3, 58, 0
5, 7414, Note_on_c, 3, 66, 87
5, 7414, Note_on_c, 3, 66, 0
5, 7440, Note_on_c, 3, 66, 89
5, 7441, Note_on_c, 3, 61, 89
5, 7442, Note_on_c, 3, 61, 0
5, 7442, Note_on_c, 3, 66, 0
5, 7443, Note_on_c, 3, 58, 89
5, 7443, Note_on_c, 3, 58, 0
5, 7471, Note_on_c, 3, 58, 92
5, 7472, Note_on_c, 3, 61, 89
5, 7472, Note_on_c, 3, 61, 0
5, 7473, Note_on_c, 3, 58, 0
5, 7474, Note_on_c, 3, 66, 89
5, 7474, Note_on_c, 3, 66, 0
5, 7501, Note_on_c, 3, 66, 87
5, 7502, Note_on_c, 3, 59, 90
5, 7560, Note_on_c, 3, 59, 0
5, 7560, Note_on_c, 3, 66, 0
5, 7621, Note_on_c, 3, 58, 87
5, 7621, Note_on_c, 3, 61, 87
5, 7622, Note_on_c, 3, 66, 91
5, 7801, Note_on_c, 3, 66, 0
5, 7801, Note_on_c, 3, 61, 0
5, 7802, Note_on_c, 3, 58, 0
5, 7803, Note_on_c, 3, 66, 90
5, 7803, Note_on_c, 3, 61, 90
5, 7803, Note_on_c, 3, 58, 87
5, 7860, Note_on_c, 3, 58, 0
5, 7860, Note_on_c, 3, 61, 0
5, 7860, Note_on_c, 3, 66, 0
5, 7860, Note_on_c, 3, 58, 87
5, 7861, Note_on_c, 3, 61, 92
5, 7862, Note_on_c, 3, 61, 0
5, 7863, Note_on_c, 3, 58, 0
5, 7864, Note_on_c, 3, 66, 92
5, 7864, Note_on_c, 3, 66, 0
5, 7891, Note_on_c, 3, 66, 90
5, 7891, Note_on_c, 3, 61, 93
5, 7892, Note_on_c, 3, 61, 0
5, 7893, Note_on_c, 3, 66, 0
5, 7893, Note_on_c, 3, 58, 93
5, 7893, Note_on_c, 3, 58, 0
5, 7921, Note_on_c, 3, 58, 89
5, 7921, Note_on_c, 3, 61, 88
5, 7923, Note_on_c, 3, 61, 0
5, 7924, Note_on_c, 3, 58, 0
5, 7924, Note_on_c, 3, 66, 92
5, 7924, Note_on_c, 3, 66, 0
5, 7951, Note_on_c, 3, 66, 93
5, 7952, Note_on_c, 3, 61, 87
5, 7953, Note_on_c, 3, 61, 0
5, 7953, Note_on_c, 3, 66, 0
5, 7954, Note_on_c, 3, 58, 87
5, 7954, Note_on_c, 3, 58, 0
5, 7981, Note_on_c, 3, 59, 93
5, 7982, Note_on_c, 3, 66, 90
5, 8040, Note_on_c, 3, 59, 0
5, 8041, Note_on_c, 3, 66, 0
5, 8101, Note_on_c, 3, 66, 93
5, 8101, Note_on_c, 3, 61, 87
5, 8103, Note_on_c, 3, 58, 87
5, 8280, Note_on_c, 3, 58, 0
5, 8280, Note_on_c, 3, 61, 0
5, 8281, Note_on_c, 3, 66, 0
5, 8282, Note_on_c, 3, 58, 90
5, 8282, Note_on_c, 3, 61, 87
5, 8283, Note_on_c, 3, 66, 89
5, 8340, Note_on_c, 3, 66, 0
5, 8341, Note_on_c, 3, 61, 0
5, 8341, Note_on_c, 3, 58, 0
5, 8341, Note_on_c, 3, 66, 87
5, 8342, Note_on_c, 3, 61, 88
5, 8342, Note_on_c, 3, 61, 0
5, 8343, Note_on_c, 3, 66, 0
5, 8344, Note_on_c, 3, 58, 87
5, 8344, Note_on_c, 3, 58, 0
5, 8371, Note_on_c, 3, 58, 92
5, 8372, Note_on_c, 3, 61, 91
5, 8373, Note_on_c, 3, 61, 0
5, 8373, Note_on_c, 3, 58, 0
5, 8374, Note_on_c, 3, 66, 88
5, 8374, Note_on_c, 3, 66, 0
5, 8400, Note_on_c, 3, 66, 93
5, 8401, Note_on_c, 3, 61, 93
5, 8402, Note_on_c, 3, 61, 0
5, 8403, Note_on_c, 3, 66, 0
5, 8403, Note_on_c, 3, 58, 88
5, 8403, Note_on_c, 3, 58, 0
5, 8431, Note_on_c, 3, 58, 91
5, 8432, Note_on_c, 3, 61, 92
5, 8432, Note_on_c, 3, 61, 0
5, 8433, Note_on_c, 3, 58, 0
5, 8434, Note_on_c, 3, 66, 93
5, 8434, Note_on_c, 3, 66, 0
5, 8461, Note_on_c, 3, 66, 92
5, 8462, Note_on_c, 3, 59, 93
5, 8520, Note_on_c, 3, 59, 0
5, 8520, Note_on_c, 3, 66, 0
5, 8581, Note_on_c, 3, 58, 91
5, 8581, Note_on_c, 3, 61, 92
5, 8583, Note_on_c, 3, 66, 90
5, 8760, Note_on_c, 3, 61, 0
5, 8761, Note_on_c, 3, 66, 0
5, 8761, Note_on_c, 3, 58, 0
5, 8762, Note_on_c, 3, 66, 92
5, 8762, Note_on_c, 3, 61, 87
5, 8763, Note_on_c, 3, 58, 91
5, 8821, Note_on_c, 3, 58, 0
5, 8821, Note_on_c, 3, 61, 0
5, 8822, Note_on_c, 3, 66, 0
5, 8823, Note_on_c, 3, 58, 93
5, 8823, Note_on_c, 3, 61, 87
5, 8823, Note_on_c, 3, 61, 0
5, 8824, Note_on_c, 3, 58, 0
5, 8825, Note_on_c, 3, 66, 90
5, 8825, Note_on_c, 3, 66, 0
5, 8851, Note_on_c, 3, 66, 90
5, 8852, Note_on_c, 3, 61, 93
5, 8853, Note_on_c, 3, 61, 0
5, 8854, Note_on_c, 3, 66, 0
5, 8854, Note_on_c, 3, 58, 87
5, 8854, Note_on_c, 3, 58, 0
5, 8880, Note_on_c, 3, 58, 93
5, 8882, Note_on_c, 3, 61, 91
5, 8883, Note_on_c, 3, 61, 0
5, 8883, Note_on_c, 3, 58, 0
5, 8884, Note_on_c, 3, 66, 91
5, 8884, Note_on_c, 3, 66, 0
5, 8911, Note_on_c, 3, 66, 87
5, 8912, Note_on_c, 3, 61, 88
5, 8913, Note_on_c, 3, 61, 0
5, 8913, Note_on_c, 3, 66, 0
5, 8914, Note_on_c, 3, 58, 90
5, 8914, Note_on_c, 3, 58, 0
5, 8941, Note_on_c, 3, 59, 90
5, 8941, Note_on_c, 3, 66, 89
5, 9000, Note_on_c, 3, 66, 0
5, 9000, Note_on_c, 3, 59, 0
5, 9061, Note_on_c, 3, 66, 91
5, 9062, Note_on_c, 3, 61, 93
5, 9063, Note_on_c, 3, 58, 91
5, 9241, Note_on_c, 3, 58, 0
5, 9241, Note_on_c, 3, 61, 0
5, 9242, Note_on_c, 3, 66, 0
5, 9243, Note_on_c, 3, 58, 93
5, 9243, Note_on_c, 3, 61, 93
5, 9244, Note_on_c, 3, 66, 88
5, 9300, Note_on_c, 3, 61, 0
5, 9301, Note_on_c, 3, 66, 0
5, 9301, Note_on_c, 3, 58, 0
5, 9301, Note_on_c, 3, 66, 91
5, 9302, Note_on_c, 3, 66, 0
5, 9302, Note_on_c, 3, 61, 89
5, 9302, Note_on_c, 3, 61, 0
5, 9303, Note_on_c, 3, 58, 87
5, 9303, Note_on_c, 3, 58, 0
5, 9330, Note_on_c, 3, 58, 91
5, 9331, Note_on_c, 3, 61, 90
5, 9332, Note_on_c, 3, 61, 0
5, 9333, Note_on_c, 3, 58, 0
5, 9334, Note_on_c, 3, 66, 87
5, 9334, Note_on_c, 3, 66, 0
5, 9360, Note_on_c, 3, 66, 89
5, 9361, Note_on_c, 3, 61, 91
5, 9363, Note_on_c, 3, 61, 0
5, 9363, Note_on_c, 3, 66, 0
5, 9364, Note_on_c, 3, 58, 87
5, 9364, Note_on_c, 3, 58, 0
5, 9391, Note_on_c, 3, 58, 92
5, 9392, Note_on_c, 3, 61, 93
5, 9393, Note_on_c, 3, 61, 0
5, 9393, Note_on_c, 3, 58, 0
5, 9394, Note_on_c, 3, 66, 90
5, 9394, Note_on_c, 3, 66, 0
5, 9421, Note_on_c, 3, 66, 88
5, 9422, Note_on_c, 3, 59, 87
5, 9481, Note_on_c, 3, 59, 0
5, 9481, Note_on_c, 3, 66, 0
5, 9541, Note_on_c, 3, 58, 90
5, 9542, Note_on_c, 3, 61, 93
5, 9543, Note_on_c, 3, 66, 92
5, 9720, Note_on_c, 3, 66, 0
5, 9720, Note_on_c, 3, 61, 0
5, 9721, Note_on_c, 3, 58, 0
5, 9721, Note_on_c, 3, 66, 88
5, 9721, Note_on_c, 3, 61, 91
5, 9723, Note_on_c, 3, 58, 90
5, 9781, Note_on_c, 3, 58, 0
5, 9781, Note_on_c, 3, 61, 0
5, 9782, Note_on_c, 3, 66, 0
5, 9782, Note_on_c, 3, 58, 87
5, 9782, Note_on_c, 3, 61, 90
5, 9783, Note_on_c, 3, 61, 0
5, 9783, Note_on_c, 3, 58, 0
5, 9783, Note_on_c, 3, 66, 89
5, 9783, Note_on_c, 3, 66, 0
5, 9811, Note_on_c, 3, 66, 88
5, 9812, Note_on_c, 3, 66, 0
5, 9812, Note_on_c, 3, 61, 93
5, 9812, Note_on_c, 3, 61, 0
5, 9812, Note_on_c, 3, 58, 89
5, 9812, Note_on_c, 3, 58, 0
5, 9841, Note_on_c, 3, 54, 88
5, 9842, Note_on_c, 3, 61, 91
5, 9842, Note_on_c, 3, 66, 93
5, 9901, Note_on_c, 3, 66, 0
5, 9901, Note_on_c, 3, 61, 0
5, 9901, Note_on_c, 3, 54, 0
5, 9902, Note_on_c, 3, 66, 90
5, 9902, Note_on_c, 3, 66, 88
5, 9903, Note_on_c, 3, 66, 91
5, 9904, Note_on_c, 3, 61, 89
5, 9904, Note_on_c, 3, 54, 89
5, 9960, Note_on_c, 3, 54, 0
5, 9960, Note_on_c, 3, 66, 0
5, 9960, Note_on_c, 3, 66, 0
5, 9960, Note_on_c, 3, 61, 0
5, 9961, Note_on_c, 3, 66, 0
5, 9961, Note_on_c, 3, 52, 91
5, 9962, Note_on_c, 3, 64, 87
5, 9962, Note_on_c, 3, 71, 92
5, 10020, Note_on_c, 3, 71, 0
5, 10021, Note_on_c, 3, 64, 0
5, 10021, Note_on_c, 3, 52, 0
5, 10022, Note_on_c, 3, 69, 93
5, 10022, Note_on_c, 3, 66, 91
5, 10140, Note_on_c, 3, 66, 0
5, 10141, Note_on_c, 3, 69, 0
5, 10142, Note_on_c, 3, 66, 89
5, 10142, Note_on_c, 3, 69, 92
5, 10200, Note_on_c, 3, 69, 0
5, 10201, Note_on_c, 3, 66, 0
5, 10202, Note_on_c, 3, 69, 88
5, 10202, Note_on_c, 3, 66, 87
5, 10256, Note_on_c, 3, 66, 0
5, 10256, Note_on_c, 3, 69, 0
5, 10261, Note_on_c, 3, 66, 92
5, 10262, Note_on_c, 3, 69, 89
5, 10321, Note_on_c, 3, 69, 0
5, 10321, Note_on_c, 3, 66, 0
5, 10321, Note_on_c, 3, 69, 90
5, 10321, Note_on_c, 3, 66, 87
5, 10380, Note_on_c, 3, 66, 0
5, 10381, Note_on_c, 3, 69, 0
5, 10381, Note_on_c, 3, 66, 92
5, 10381, Note_on_c, 3, 69, 91
5, 10440, Note_on_c, 3, 69, 0
5, 10440, Note_on_c, 3, 66, 0
5, 10441, Note_on_c, 3, 69, 87
5, 10442, Note_on_c, 3, 66, 87
5, 10501, Note_on_c, 3, 66, 0
5, 10501, Note_on_c, 3, 69, 0
5, 10502, Note_on_c, 3, 57, 90
5, 10502, Note_on_c, 3, 64, 93
5, 10503, Note_on_c, 3, 69, 93
5, 10620, Note_on_c, 3, 69, 0
5, 10620, Note_on_c, 3, 64, 0
5, 10621, Note_on_c, 3, 57, 0
5, 10621, Note_on_c, 3, 69, 92
5, 10622, Note_on_c, 3, 64, 87
5, 10623, Note_on_c, 3, 57, 93
5, 10681, Note_on_c, 3, 57, 0
5, 10682, Note_on_c, 3, 64, 0
5, 10682, Note_on_c, 3, 69, 0
5, 10683, Note_on_c, 3, 57, 90
5, 10683, Note_on_c, 3, 64, 89
5, 10684, Note_on_c, 3, 69, 89
5, 10736, Note_on_c, 3, 69, 0
5, 10736, Note_on_c, 3, 64, 0
5, 10737, Note_on_c, 3, 57, 0
5, 10740, Note_on_c, 3, 69, 93
5, 10742, Note_on_c, 3, 64, 91
5, 10743, Note_on_c, 3, 57, 90
5, 10800, Note_on_c, 3, 57, 0
5, 10800, Note_on_c, 3, 64, 0
5, 10800, Note_on_c, 3, 69, 0
5, 10801, Note_on_c, 3, 57, 90
5, 10802, Note_on_c, 3, 64, 88
5, 10803, Note_on_c, 3, 69, 91
5, 10860, Note_on_c, 3, 69, 0
5, 10860, Note_on_c, 3, 64, 0
5, 10861, Note_on_c, 3, 57, 0
5, 10862, Note_on_c, 3, 69, 93
5, 10862, Note_on_c, 3, 64, 91
5, 10862, Note_on_c, 3, 57, 91
5, 10921, Note_on_c, 3, 57, 0
5, 10921, Note_on_c, 3, 64, 0
5, 10922, Note_on_c, 3, 69, 0
5, 10923, Note_on_c, 3, 57, 90
5, 10923, Note_on_c, 3, 64, 93
5, 10924, Note_on_c, 3, 69, 89
5, 10981, Note_on_c, 3, 69, 0
5, 10981, Note_on_c, 3, 64, 0
5, 10982, Note_on_c, 3, 57, 0
5, 10983, Note_on_c, 3, 69, 89
5, 10983, Note_on_c, 3, 66, 89
5, 11041, Note_on_c, 3, 66, 0
5, 11042, Note_on_c, 3, 69, 0
5, 11042, Note_on_c, 3, 66, 91
5, 11043, Note_on_c, 3, 69, 91
5, 11100, Note_on_c, 3, 69, 0
5, 11101, Note_on_c, 3, 66, 0
5, 11101, Note_on_c, 3, 69, 93
5, 11102, Note_on_c, 3, 66, 88
5, 11161, Note_on_c, 3, 66, 0
5, 11161, Note_on_c, 3, 69, 0
5, 11162, Note_on_c, 3, 66, 93
5, 11162, Note_on_c, 3, 69, 91
5, 11215, Note_on_c, 3, 69, 0
5, 11216, Note_on_c, 3, 66, 0
5, 11221, Note_on_c, 3, 69, 92
5, 11221, Note_on_c, 3, 66, 87
5, 11281, Note_on_c, 3, 66, 0
5, 11281, Note_on_c, 3, 69, 0
5, 11282, Note_on_c, 3, 66, 87
5, 11282, Note_on_c, 3, 69, 91
5, 11340, Note_on_c, 3, 69, 0
5, 11341, Note_on_c, 3, 66, 0
5, 11341, Note_on_c, 3, 69, 88
5, 11342, Note_on_c, 3, 66, 90
5, 11401, Note_on_c, 3, 66, 0
5, 11401, Note_on_c, 3, 69, 0
5, 11402, Note_on_c, 3, 66, 91
5, 11402, Note_on_c, 3, 69, 88
5, 11460, Note_on_c, 3, 69, 0
5, 11461, Note_on_c, 3, 66, 0
5, 11461, Note_on_c, 3, 69, 87
5, 11462, Note_on_c, 3, 64, 93
5, 11463, Note_on_c, 3, 57, 90
5, 11520, Note_on_c, 3, 57, 0
5, 11521, Note_on_c, 3, 64, 0
5, 11521, Note_on_c, 3, 69, 0
5, 11522, Note_on_c, 3, 57, 88
5, 11522, Note_on_c, 3, 64, 93
5, 11522, Note_on_c, 3, 69, 89
5, 11580, Note_on_c, 3, 69, 0
5, 11581, Note_on_c, 3, 64, 0
5, 11582, Note_on_c, 3, 57, 0
5, 11582, Note_on_c, 3, 69, 89
5, 11582, Note_on_c, 3, 64, 91
5, 11583, Note_on_c, 3, 57, 91
5, 11640, Note_on_c, 3, 57, 0
5, 11640, Note_on_c, 3, 64, 0
5, 11641, Note_on_c, 3, 69, 0
5, 11642, Note_on_c, 3, 57, 88
5, 11642, Note_on_c, 3, 64, 92
5, 11643, Note_on_c, 3, 69, 92
5, 11695, Note_on_c, 3, 69, 0
5, 11695, Note_on_c, 3, 64, 0
5, 11696, Note_on_c, 3, 57, 0
5, 11700, Note_on_c, 3, 69, 89
5, 11701, Note_on_c, 3, 64, 88
5, 11702, Note_on_c, 3, 57, 87
5, 11760, Note_on_c, 3, 57, 0
5, 11761, Note_on_c, 3, 64, 0
5, 11761, Note_on_c, 3, 69, 0
5, 11761, Note_on_c, 3, 57, 88
5, 11761, Note_on_c, 3, 64, 92
5, 11763, Note_on_c, 3, 69, 93
5, 11821, Note_on_c, 3, 69, 0
5, 11821, Note_on_c, 3, 64, 0
5, 11822, Note_on_c, 3, 57, 0
5, 11823, Note_on_c, 3, 69, 90
5, 11823, Note_on_c, 3, 64, 93
5, 11824, Note_on_c, 3, 57, 93
5, 11880, Note_on_c, 3, 57, 0
5, 11880, Note_on_c, 3, 64, 0
5, 11881, Note_on_c, 3, 69, 0
5, 11882, Note_on_c, 3, 57, 88
5, 11882, Note_on_c, 3, 64, 90
5, 11883, Note_on_c, 3, 69, 90
5, 11940, Note_on_c, 3, 69, 0
5, 11941, Note_on_c, 3, 64, 0
5, 11942, Note_on_c, 3, 57, 0
5, 11942, Note_on_c, 3, 69, 93
5, 11943, Note_on_c, 3, 66, 88
5, 12001, Note_on_c, 3, 66, 0
5, 12001, Note_on_c, 3, 69, 0
5, 12002, Note_on_c, 3, 66, 88
5, 12003, Note_on_c, 3, 69, 93
5, 12060, Note_on_c, 3, 69, 0
5, 12061, Note_on_c, 3, 66, 0
5, 12062, Note_on_c, 3, 69, 89
5, 12062, Note_on_c, 3, 66, 88
5, 12120, Note_on_c, 3, 66, 0
5, 12120, Note_on_c, 3, 69, 0
5, 12121, Note_on_c, 3, 66, 89
5, 12122, Note_on_c, 3, 69, 91
5, 12176, Note_on_c, 3, 69, 0
5, 12177, Note_on_c, 3, 66, 0
5, 12181, Note_on_c, 3, 69, 89
5, 12182, Note_on_c, 3, 66, 90
5, 12241, Note_on_c, 3, 66, 0
5, 12241, Note_on_c, 3, 69, 0
5, 12242, Note_on_c, 3, 66, 90
5, 12242, Note_on_c, 3, 69, 92
5, 12301, Note_on_c, 3, 69, 0
5, 12302, Note_on_c, 3, 66, 0
5, 12302, Note_on_c, 3, 69, 87
5, 12303, Note_on_c, 3, 66, 87
5, 12360, Note_on_c, 3, 69, 0
5, 12361, Note_on_c, 3, 66, 0
5, 12361, Note_on_c, 3, 66, 89
5, 12362, Note_on_c, 3, 69, 90
5, 12421, Note_on_c, 3, 69, 0
5, 12421, Note_on_c, 3, 66, 0
5, 12422, Note_on_c, 3, 70, 89
5, 12422, Note_on_c, 3, 67, 91
5, 12481, Note_on_c, 3, 67, 0
5, 12481, Note_on_c, 3, 70, 0
5, 12481, Note_on_c, 3, 67, 89
5, 12482, Note_on_c, 3, 70, 89
5, 12541, Note_on_c, 3, 70, 0
5, 12541, Note_on_c, 3, 67, 0
5, 12541, Note_on_c, 3, 70, 90
5, 12542, Note_on_c, 3, 67, 88
5, 12601, Note_on_c, 3, 67, 0
5, 12601, Note_on_c, 3, 70, 0
5, 12602, Note_on_c, 3, 67, 93
5, 12602, Note_on_c, 3, 70, 90
5, 12655, Note_on_c, 3, 70, 0
5, 12656, Note_on_c, 3, 67, 0
5, 12660, Note_on_c, 3, 70, 87
5, 12662, Note_on_c, 3, 67, 91
5, 12721, Note_on_c, 3, 67, 0
5, 12721, Note_on_c, 3, 70, 0
5, 12722, Note_on_c, 3, 67, 88
5, 12722, Note_on_c, 3, 70, 93
5, 12781, Note_on_c, 3, 70, 0
5, 12782, Note_on_c, 3, 67, 0
5, 12782, Note_on_c, 3, 70, 92
5, 12782, Note_on_c, 3, 67, 90
5, 12841, Note_on_c, 3, 67, 0
5, 12841, Note_on_c, 3, 70, 0
5, 12842, Note_on_c, 3, 67, 88
5, 12842, Note_on_c, 3, 70, 90
5, 12900, Note_on_c, 3, 70, 0
5, 12900, Note_on_c, 3, 67, 0
5, 12901, Note_on_c, 3, 71, 92
5, 12902, Note_on_c, 3, 68, 87
5, 12961, Note_on_c, 3, 68, 0
5, 12961, Note_on_c, 3, 71, 0
5, 12961, Note_on_c, 3, 68, 88
5, 12961, Note_on_c, 3, 71, 87
5, 13020, Note_on_c, 3, 71, 0
5, 13020, Note_on_c, 3, 68, 0
5, 13021, Note_on_c, 3, 71, 93
5, 13022, Note_on_c, 3, 68, 87
5, 13081, Note_on_c, 3, 68, 0
5, 13081, Note_on_c, 3, 71, 0
5, 13082, Note_on_c, 3, 68, 90
5, 13083, Note_on_c, 3, 71, 90
5, 13136, Note_on_c, 3, 71, 0
5, 13136, Note_on_c, 3, 68, 0
5, 13141, Note_on_c, 3, 71, 91
5, 13141, Note_on_c, 3, 68, 91
5, 13200, Note_on_c, 3, 68, 0
5, 13200, Note_on_c, 3, 71, 0
5, 13201, Note_on_c, 3, 68, 87
5, 13201, Note_on_c, 3, 71, 88
5, 13261, Note_on_c, 3, 71, 0
5, 13261, Note_on_c, 3, 68, 0
5, 13262, Note_on_c, 3, 71, 87
5, 13262, Note_on_c, 3, 68, 87
5, 13320, Note_on_c, 3, 68, 0
5, 13320, Note_on_c, 3, 71, 0
5, 13320, Note_on_c, 3, 68, 90
5, 13321, Note_on_c, 3, 71, 92
5, 13380, Note_on_c, 3, 71, 0
5, 13380, Note_on_c, 3, 68, 0
5, 13381, Note_on_c, 3, 71, 87
5, 13381, Note_on_c, 3, 68, 93
5, 13440, Note_on_c, 3, 68, 0
5, 13441, Note_on_c, 3, 71, 0
5, 13861, Note_on_c, 3, 57, 91
5, 13861, Note_on_c, 3, 62, 90
5, 13863, Note_on_c, 3, 64, 88
5, 13981, Note_on_c, 3, 64, 0
5, 13981, Note_on_c, 3, 62, 0
5, 13982, Note_on_c, 3, 57, 0
5, 13983, Note_on_c, 3, 64, 89
5, 13983, Note_on_c, 3, 57, 93
5, 14035, Note_on_c, 3, 57, 0
5, 14036, Note_on_c, 3, 64, 0
5, 14040, Note_on_c, 3, 57, 91
5, 14041, Note_on_c, 3, 62, 90
5, 14043, Note_on_c, 3, 64, 91
5, 14096, Note_on_c, 3, 64, 0
5, 14096, Note_on_c, 3, 62, 0
5, 14096, Note_on_c, 3, 57, 0
5, 14101, Note_on_c, 3, 64, 93
5, 14102, Note_on_c, 3, 62, 89
5, 14103, Note_on_c, 3, 57, 90
5, 14160, Note_on_c, 3, 57, 0
5, 14161, Note_on_c, 3, 62, 0
5, 14162, Note_on_c, 3, 64, 0
5, 14162, Note_on_c, 3, 57, 92
5, 14163, Note_on_c, 3, 62, 89
5, 14163, Note_on_c, 3, 64, 90
5, 14221, Note_on_c, 3, 64, 0
5, 14222, Note_on_c, 3, 62, 0
5, 14222, Note_on_c, 3, 57, 0
5, 14223, Note_on_c, 3, 64, 89
5, 14223, Note_on_c, 3, 62, 92
5, 14224, Note_on_c, 3, 57, 93
5, 14281, Note_on_c, 3, 57, 0
5, 14281, Note_on_c, 3, 62, 0
5, 14282, Note_on_c, 3, 64, 0
5, 14283, Note_on_c, 3, 57, 93
5, 14283, Note_on_c, 3, 62, 87
5, 14284, Note_on_c, 3, 64, 88
5, 14340, Note_on_c, 3, 62, 0
5, 14341, Note_on_c, 3, 64, 0
5, 14341, Note_on_c, 3, 57, 0
5, 14342, Note_on_c, 3, 66, 88
5, 14342, Note_on_c, 3, 59, 92
5, 14460, Note_on_c, 3, 59, 0
5, 14461, Note_on_c, 3, 66, 0
5, 14461, Note_on_c, 3, 59, 87
5, 14461, Note_on_c, 3, 66, 89
5, 14520, Note_on_c, 3, 66, 0
5, 14520, Note_on_c, 3, 59, 0
5, 14521, Note_on_c, 3, 64, 93
5, 14522, Note_on_c, 3, 59, 88
5, 14576, Note_on_c, 3, 59, 0
5, 14577, Note_on_c, 3, 64, 0
5, 14580, Note_on_c, 3, 59, 91
5, 14582, Note_on_c, 3, 64, 92
5, 14640, Note_on_c, 3, 64, 0
5, 14640, Note_on_c, 3, 59, 0
5, 14641, Note_on_c, 3, 64, 89
5, 14641, Note_on_c, 3, 59, 92
5, 14700, Note_on_c, 3, 59, 0
5, 14700, Note_on_c, 3, 64, 0
5, 14701, Note_on_c, 3, 59, 87
5, 14701, Note_on_c, 3, 64, 93
5, 14760, Note_on_c, 3, 64, 0
5, 14761, Note_on_c, 3, 59, 0
5, 14762, Note_on_c, 3, 64, 87
5, 14762, Note_on_c, 3, 57, 89
5, 14821, Note_on_c, 3, 57, 0
5, 14822, Note_on_c, 3, 64, 0
5, 14822, Note_on_c, 3, 62, 91
5, 14823, Note_on_c, 3, 67, 88
5, 14941, Note_on_c, 3, 67, 0
5, 14941, Note_on_c, 3, 62, 0
5, 14942, Note_on_c, 3, 67, 91
5, 14943, Note_on_c, 3, 62, 91
5, 15000, Note_on_c, 3, 62, 0
5, 15000, Note_on_c, 3, 67, 0
5, 15001, Note_on_c, 3, 62, 90
5, 15001, Note_on_c, 3, 67, 92
5, 15055, Note_on_c, 3, 67, 0
5, 15056, Note_on_c, 3, 62, 0
5, 15061, Note_on_c, 3, 67, 91
5, 15062, Note_on_c, 3, 62, 87
5, 15121, Note_on_c, 3, 62, 0
5, 15121, Note_on_c, 3, 67, 0
5, 15122, Note_on_c, 3, 62, 91
5, 15122, Note_on_c, 3, 67, 89
5, 15180, Note_on_c, 3, 67, 0
5, 15181, Note_on_c, 3, 62, 0
5, 15181, Note_on_c, 3, 67, 93
5, 15181, Note_on_c, 3, 62, 89
5, 15240, Note_on_c, 3, 62, 0
5, 15241, Note_on_c, 3, 67, 0
5, 15242, Note_on_c, 3, 62, 89
5, 15242, Note_on_c, 3, 67, 91
5, 15300, Note_on_c, 3, 67, 0
5, 15300, Note_on_c, 3, 62, 0
5, 15300, Note_on_c, 3, 67, 92
5, 15302, Note_on_c, 3, 62, 90
5, 15361, Note_on_c, 3, 62, 0
5, 15361, Note_on_c, 3, 67, 0
5, 15362, Note_on_c, 3, 62, 93
5, 15363, Note_on_c, 3, 67, 87
5, 15420, Note_on_c, 3, 67, 0
5, 15421, Note_on_c, 3, 62, 0
5, 15422, Note_on_c, 3, 67, 89
5, 15422, Note_on_c, 3, 62, 89
5, 15480, Note_on_c, 3, 62, 0
5, 15481, Note_on_c, 3, 67, 0
5, 15482, Note_on_c, 3, 62, 88
5, 15482, Note_on_c, 3, 67, 91
5, 15535, Note_on_c, 3, 67, 0
5, 15536, Note_on_c, 3, 62, 0
5, 15540, Note_on_c, 3, 67, 93
5, 15542, Note_on_c, 3, 62, 91
5, 15600, Note_on_c, 3, 62, 0
5, 15601, Note_on_c, 3, 67, 0
5, 15601, Note_on_c, 3, 62, 92
5, 15602, Note_on_c, 3, 67, 93
5, 15660, Note_on_c, 3, 67, 0
5, 15660, Note_on_c, 3, 62, 0
5, 15661, Note_on_c, 3, 67, 90
5, 15662, Note_on_c, 3, 62, 93
5, 15720, Note_on_c, 3, 62, 0
5, 15720, Note_on_c, 3, 67, 0
5, 15721, Note_on_c, 3, 62, 90
5, 15781, Note_on_c, 3, 62, 0
5, 15781, Note_on_c, 3, 57, 89
5, 15782, Note_on_c, 3, 64, 89
5, 15900, Note_on_c, 3, 64, 0
5, 15901, Note_on_c, 3, 57, 0
5, 15901, Note_on_c, 3, 64, 89
5, 15902, Note_on_c, 3, 57, 87
5, 15955, Note_on_c, 3, 57, 0
5, 15955, Note_on_c, 3, 64, 0
5, 15961, Note_on_c, 3, 57, 88
5, 15962, Note_on_c, 3, 62, 89
5, 15963, Note_on_c, 3, 64, 90
5, 16015, Note_on_c, 3, 64, 0
5, 16015, Note_on_c, 3, 62, 0
5, 16015, Note_on_c, 3, 57, 0
5, 16021, Note_on_c, 3, 64, 89
5, 16022, Note_on_c, 3, 62, 89
5, 16023, Note_on_c, 3, 57, 93
5, 16080, Note_on_c, 3, 57, 0
5, 16081, Note_on_c, 3, 62, 0
5, 16081, Note_on_c, 3, 64, 0
5, 16082, Note_on_c, 3, 57, 92
5, 16083, Note_on_c, 3, 62, 90
5, 16083, Note_on_c, 3, 64, 93
5, 16140, Note_on_c, 3, 64, 0
5, 16141, Note_on_c, 3, 62, 0
5, 16141, Note_on_c, 3, 57, 0
5, 16142, Note_on_c, 3, 64, 87
5, 16142, Note_on_c, 3, 62, 92
5, 16143, Note_on_c, 3, 57, 93
5, 16201, Note_on_c, 3, 57, 0
5, 16201, Note_on_c, 3, 62, 0
5, 16202, Note_on_c, 3, 64, 0
5, 16203, Note_on_c, 3, 57, 91
5, 16203, Note_on_c, 3, 62, 90
5, 16203, Note_on_c, 3, 64, 90
5, 16261, Note_on_c, 3, 64, 0
5, 16261, Note_on_c, 3, 62, 0
5, 16262, Note_on_c, 3, 57, 0
5, 16263, Note_on_c, 3, 66, 69
5, 16263, Note_on_c, 3, 59, 91
5, 16321, Note_on_c, 3, 59, 90
5, 16322, Note_on_c, 3, 66, 88
5, 16381, Note_on_c, 3, 66, 0
5, 16382, Note_on_c, 3, 59, 0
5, 16382, Note_on_c, 3, 59, 0
5, 16382, Note_on_c, 3, 66, 0
5, 16383, Note_on_c, 3, 66, 88
5, 16384, Note_on_c, 3, 59, 92
5, 16441, Note_on_c, 3, 59, 0
5, 16441, Note_on_c, 3, 66, 0
5, 16441, Note_on_c, 3, 59, 91
5, 16442, Note_on_c, 3, 66, 88
5, 16496, Note_on_c, 3, 66, 0
5, 16496, Note_on_c, 3, 59, 0
5, 16501, Note_on_c, 3, 66, 91
5, 16502, Note_on_c, 3, 59, 89
5, 16561, Note_on_c, 3, 59, 0
5, 16562, Note_on_c, 3, 66, 0
5, 16562, Note_on_c, 3, 59, 87
5, 16563, Note_on_c, 3, 66, 91
5, 16620, Note_on_c, 3, 66, 0
5, 16620, Note_on_c, 3, 59, 0
5, 16620, Note_on_c, 3, 66, 87
5, 16622, Note_on_c, 3, 59, 91
5, 16680, Note_on_c, 3, 59, 0
5, 16681, Note_on_c, 3, 66, 0
5, 16682, Note_on_c, 3, 57, 92
5, 16741, Note_on_c, 3, 57, 0
5, 16742, Note_on_c, 3, 62, 93
5, 16742, Note_on_c, 3, 67, 87
5, 16860, Note_on_c, 3, 67, 0
5, 16860, Note_on_c, 3, 62, 0
5, 16860, Note_on_c, 3, 67, 90
5, 16861, Note_on_c, 3, 62, 93
5, 16920, Note_on_c, 3, 62, 0
5, 16921, Note_on_c, 3, 67, 0
5, 16922, Note_on_c, 3, 62, 90
5, 16922, Note_on_c, 3, 67, 89
5, 16976, Note_on_c, 3, 67, 0
5, 16977, Note_on_c, 3, 62, 0
5, 16981, Note_on_c, 3, 67, 88
5, 16982, Note_on_c, 3, 62, 92
5, 17041, Note_on_c, 3, 62, 0
5, 17041, Note_on_c, 3, 67, 0
5, 17042, Note_on_c, 3, 62, 90
5, 17042, Note_on_c, 3, 67, 92
5, 17101, Note_on_c, 3, 67, 0
5, 17101, Note_on_c, 3, 62, 0
5, 17101, Note_on_c, 3, 67, 93
5, 17102, Note_on_c, 3, 62, 93
5, 17160, Note_on_c, 3, 62, 0
5, 17161, Note_on_c, 3, 67, 0
5, 17162, Note_on_c, 3, 62, 91
5, 17162, Note_on_c, 3, 67, 87
5, 17221, Note_on_c, 3, 67, 0
5, 17222, Note_on_c, 3, 62, 0
5, 17222, Note_on_c, 3, 67, 90
5, 17223, Note_on_c, 3, 62, 93
5, 17280, Note_on_c, 3, 62, 0
5, 17281, Note_on_c, 3, 67, 0
5, 17282, Note_on_c, 3, 62, 87
5, 17282, Note_on_c, 3, 67, 91
5, 17341, Note_on_c, 3, 67, 0
5, 17341, Note_on_c, 3, 62, 0
5, 17342, Note_on_c, 3, 67, 90
5, 17342, Note_on_c, 3, 62, 92
5, 17401, Note_on_c, 3, 62, 0
5, 17402, Note_on_c, 3, 67, 0
5, 17402, Note_on_c, 3, 62, 93
5, 17402, Note_on_c, 3, 67, 91
5, 17456, Note_on_c, 3, 67, 0
5, 17456, Note_on_c, 3, 62, 0
5, 17461, Note_on_c, 3, 67, 88
5, 17462, Note_on_c, 3, 62, 87
5, 17521, Note_on_c, 3, 62, 0
5, 17521, Note_on_c, 3, 67, 0
5, 17522, Note_on_c, 3, 62, 90
5, 17522, Note_on_c, 3, 67, 87
5, 17580, Note_on_c, 3, 67, 0
5, 17581, Note_on_c, 3, 62, 0
5, 17582, Note_on_c, 3, 67, 89
5, 17582, Note_on_c, 3, 62, 92
5, 17641, Note_on_c, 3, 62, 0
5, 17642, Note_on_c, 3, 67, 0
5, 17642, Note_on_c, 3, 59, 87
5, 17643, Note_on_c, 3, 64, 87
5, 17700, Note_on_c, 3, 59, 0
5, 17701, Note_on_c, 3, 64, 0
5, 17701, Note_on_c, 3, 66, 92
5, 17702, Note_on_c, 3, 61, 88
5, 17702, Note_on_c, 3, 58, 91
5, 17880, Note_on_c, 3, 58, 0
5, 17881, Note_on_c, 3, 61, 0
5, 17881, Note_on_c, 3, 66, 0
5, 17881, Note_on_c, 3, 58, 89
5, 17881, Note_on_c, 3, 61, 89
5, 17883, Note_on_c, 3, 66, 87
5, 17940, Note_on_c, 3, 66, 0
5, 17941, Note_on_c, 3, 61, 0
5, 17941, Note_on_c, 3, 58, 0
5, 17942, Note_on_c, 3, 66, 87
5, 17942, Note_on_c, 3, 61, 93
5, 17943, Note_on_c, 3, 61, 0
5, 17944, Note_on_c, 3, 66, 0
5, 17944, Note_on_c, 3, 58, 93
5, 17944, Note_on_c, 3, 58, 0
5, 17971, Note_on_c, 3, 58, 89
5, 17972, Note_on_c, 3, 58, 0
5, 17972, Note_on_c, 3, 61, 90
5, 17972, Note_on_c, 3, 61, 0
5, 17972, Note_on_c, 3, 66, 93
5, 17972, Note_on_c, 3, 66, 0
5, 18001, Note_on_c, 3, 66, 88
5, 18002, Note_on_c, 3, 61, 89
5, 18002, Note_on_c, 3, 61, 0
5, 18003, Note_on_c, 3, 66, 0
5, 18004, Note_on_c, 3, 58, 91
5, 18004, Note_on_c, 3, 58, 0
5, 18031, Note_on_c, 3, 58, 93
5, 18032, Note_on_c, 3, 58, 0
5, 18032, Note_on_c, 3, 61, 92
5, 18032, Note_on_c, 3, 61, 0
5, 18033, Note_on_c, 3, 66, 92
5, 18033, Note_on_c, 3, 66, 0
5, 18060, Note_on_c, 3, 66, 88
5, 18061, Note_on_c, 3, 59, 90
5, 18120, Note_on_c, 3, 59, 0
5, 18120, Note_on_c, 3, 66, 0
5, 18180, Note_on_c, 3, 58, 87
5, 18181, Note_on_c, 3, 61, 92
5, 18183, Note_on_c, 3, 66, 93
5, 18360, Note_on_c, 3, 66, 0
5, 18360, Note_on_c, 3, 61, 0
5, 18361, Note_on_c, 3, 58, 0
5, 18362, Note_on_c, 3, 66, 89
5, 18362, Note_on_c, 3, 61, 90
5, 18363, Note_on_c, 3, 58, 92
5, 18420, Note_on_c, 3, 58, 0
5, 18421, Note_on_c, 3, 61, 0
5, 18422, Note_on_c, 3, 66, 0
5, 18422, Note_on_c, 3, 58, 90
5, 18422, Note_on_c, 3, 58, 0
5, 18422, Note_on_c, 3, 61, 88
5, 18422, Note_on_c, 3, 61, 0
5, 18423, Note_on_c, 3, 66, 88
5, 18423, Note_on_c, 3, 66, 0
5, 18451, Note_on_c, 3, 66, 89
5, 18451, Note_on_c, 3, 61, 93
5, 18452, Note_on_c, 3, 61, 0
5, 18453, Note_on_c, 3, 66, 0
5, 18453, Note_on_c, 3, 58, 87
5, 18453, Note_on_c, 3, 58, 0
5, 18481, Note_on_c, 3, 58, 87
5, 18481, Note_on_c, 3, 61, 92
5, 18482, Note_on_c, 3, 61, 0
5, 18483, Note_on_c, 3, 58, 0
5, 18483, Note_on_c, 3, 66, 89
5, 18483, Note_on_c, 3, 66, 0
5, 18511, Note_on_c, 3, 66, 89
5, 18512, Note_on_c, 3, 61, 93
5, 18513, Note_on_c, 3, 61, 0
5, 18513, Note_on_c, 3, 66, 0
5, 18513, Note_on_c, 3, 58, 88
5, 18513, Note_on_c, 3, 58, 0
5, 18541, Note_on_c, 3, 59, 93
5, 18542, Note_on_c, 3, 66, 93
5, 18600, Note_on_c, 3, 66, 0
5, 18600, Note_on_c, 3, 59, 0
5, 18660, Note_on_c, 3, 66, 90
5, 18662, Note_on_c, 3, 61, 91
5, 18663, Note_on_c, 3, 58, 90
5, 18841, Note_on_c, 3, 58, 0
5, 18842, Note_on_c, 3, 61, 0
5, 18842, Note_on_c, 3, 66, 0
5, 18843, Note_on_c, 3, 58, 88
5, 18843, Note_on_c, 3, 61, 90
5, 18844, Note_on_c, 3, 66, 90
5, 18900, Note_on_c, 3, 66, 0
5, 18901, Note_on_c, 3, 61, 0
5, 18902, Note_on_c, 3, 58, 0
5, 18902, Note_on_c, 3, 66, 93
5, 18902, Note_on_c, 3, 66, 0
5, 18902, Note_on_c, 3, 61, 93
5, 18902, Note_on_c, 3, 61, 0
5, 18903, Note_on_c, 3, 58, 88
5, 18903, Note_on_c, 3, 58, 0
5, 18930, Note_on_c, 3, 58, 87
5, 18932, Note_on_c, 3, 61, 93
5, 18933, Note_on_c, 3, 61, 0
5, 18933, Note_on_c, 3, 58, 0
5, 18933, Note_on_c, 3, 66, 90
5, 18933, Note_on_c, 3, 66, 0
5, 18960, Note_on_c, 3, 66, 92
5, 18962, Note_on_c, 3, 66, 0
5, 18962, Note_on_c, 3, 61, 93
5, 18963, Note_on_c, 3, 61, 0
5, 18963, Note_on_c, 3, 58, 92
5, 18963, Note_on_c, 3, 58, 0
5, 18991, Note_on_c, 3, 58, 90
5, 18991, Note_on_c, 3, 61, 89
5, 18993, Note_on_c, 3, 61, 0
5, 18993, Note_on_c, 3, 58, 0
5, 18994, Note_on_c, 3, 66, 87
5, 18994, Note_on_c, 3, 66, 0
5, 19021, Note_on_c, 3, 66, 93
5, 19021, Note_on_c, 3, 59, 88
5, 19080, Note_on_c, 3, 59, 0
5, 19080, Note_on_c, 3, 66, 0
5, 19140, Note_on_c, 3, 58, 90
5, 19141, Note_on_c, 3, 61, 91
5, 19142, Note_on_c, 3, 66, 90
5, 19320, Note_on_c, 3, 66, 0
5, 19321, Note_on_c, 3, 61, 0
5, 19321, Note_on_c, 3, 58, 0
5, 19322, Note_on_c, 3, 66, 88
5, 19322, Note_on_c, 3, 61, 88
5, 19322, Note_on_c, 3, 58, 93
5, 19380, Note_on_c, 3, 58, 0
5, 19380, Note_on_c, 3, 61, 0
5, 19381, Note_on_c, 3, 66, 0
5, 19381, Note_on_c, 3, 58, 89
5, 19382, Note_on_c, 3, 58, 0
5, 19382, Note_on_c, 3, 61, 92
5, 19382, Note_on_c, 3, 61, 0
5, 19383, Note_on_c, 3, 66, 90
5, 19383, Note_on_c, 3, 66, 0
5, 19410, Note_on_c, 3, 66, 87
5, 19412, Note_on_c, 3, 61, 91
5, 19413, Note_on_c, 3, 61, 0
5, 19413, Note_on_c, 3, 66, 0
5, 19413, Note_on_c, 3, 58, 93
5, 19413, Note_on_c, 3, 58, 0
5, 19441, Note_on_c, 3, 58, 89
5, 19442, Note_on_c, 3, 61, 91
5, 19442, Note_on_c, 3, 61, 0
5, 19443, Note_on_c, 3, 58, 0
5, 19443, Note_on_c, 3, 66, 87
5, 19443, Note_on_c, 3, 66, 0
5, 19471, Note_on_c, 3, 66, 88
5, 19472, Note_on_c, 3, 61, 93
5, 19472, Note_on_c, 3, 61, 0
5, 19473, Note_on_c, 3, 66, 0
5, 19474, Note_on_c, 3, 58, 93
5, 19474, Note_on_c, 3, 58, 0
5, 19501, Note_on_c, 3, 59, 93
5, 19502, Note_on_c, 3, 66, 93
5, 19560, Note_on_c, 3, 66, 0
5, 19560, Note_on_c, 3, 59, 0
5, 19621, Note_on_c, 3, 66, 91
5, 19622, Note_on_c, 3, 61, 88
5, 19623, Note_on_c, 3, 58, 92
5, 19801, Note_on_c, 3, 58, 0
5, 19802, Note_on_c, 3, 61, 0
5, 19802, Note_on_c, 3, 66, 0
5, 19803, Note_on_c, 3, 58, 93
5, 19803, Note_on_c, 3, 61, 92
5, 19804, Note_on_c, 3, 66, 93
5, 19860, Note_on_c, 3, 66, 0
5, 19860, Note_on_c, 3, 61, 0
5, 19861, Note_on_c, 3, 58, 0
5, 19862, Note_on_c, 3, 66, 90
5, 19862, Note_on_c, 3, 66, 0
5, 19862, Note_on_c, 3, 61, 89
5, 19862, Note_on_c, 3, 61, 0
5, 19863, Note_on_c, 3, 58, 90
5, 19863, Note_on_c, 3, 58, 0
5, 19890, Note_on_c, 3, 58, 92
5, 19892, Note_on_c, 3, 58, 0
5, 19892, Note_on_c, 3, 61, 90
5, 19892, Note_on_c, 3, 61, 0
5, 19892, Note_on_c, 3, 66, 92
5, 19893, Note_on_c, 3, 66, 0
5, 19921, Note_on_c, 3, 66, 88
5, 19922, Note_on_c, 3, 61, 90
5, 19922, Note_on_c, 3, 61, 0
5, 19923, Note_on_c, 3, 66, 0
5, 19924, Note_on_c, 3, 58, 93
5, 19924, Note_on_c, 3, 58, 0
5, 19951, Note_on_c, 3, 58, 90
5, 19952, Note_on_c, 3, 61, 91
5, 19952, Note_on_c, 3, 61, 0
5, 19953, Note_on_c, 3, 58, 0
5, 19953, Note_on_c, 3, 66, 93
5, 19953, Note_on_c, 3, 66, 0
5, 19981, Note_on_c, 3, 66, 91
5, 19982, Note_on_c, 3, 59, 93
5, 20041, Note_on_c, 3, 59, 0
5, 20041, Note_on_c, 3, 66, 0
5, 20101, Note_on_c, 3, 58, 93
5, 20102, Note_on_c, 3, 61, 91
5, 20103, Note_on_c, 3, 66, 87
5, 20281, Note_on_c, 3, 66, 0
5, 20282, Note_on_c, 3, 61, 0
5, 20282, Note_on_c, 3, 58, 0
5, 20283, Note_on_c, 3, 66, 89
5, 20283, Note_on_c, 3, 61, 90
5, 20284, Note_on_c, 3, 58, 87
5, 20341, Note_on_c, 3, 58, 0
5, 20341, Note_on_c, 3, 61, 0
5, 20342, Note_on_c, 3, 66, 0
5, 20343, Note_on_c, 3, 58, 91
5, 20343, Note_on_c, 3, 61, 93
5, 20343, Note_on_c, 3, 61, 0
5, 20344, Note_on_c, 3, 58, 0
5, 20345, Note_on_c, 3, 66, 91
5, 20345, Note_on_c, 3, 66, 0
5, 20370, Note_on_c, 3, 66, 91
5, 20372, Note_on_c, 3, 66, 0
5, 20372, Note_on_c, 3, 61, 88
5, 20372, Note_on_c, 3, 61, 0
5, 20373, Note_on_c, 3, 58, 91
5, 20373, Note_on_c, 3, 58, 0
5, 20401, Note_on_c, 3, 58, 88
5, 20401, Note_on_c, 3, 61, 89
5, 20402, Note_on_c, 3, 61, 0
5, 20403, Note_on_c, 3, 58, 0
5, 20403, Note_on_c, 3, 66, 87
5, 20403, Note_on_c, 3, 66, 0
5, 20430, Note_on_c, 3, 66, 89
5, 20432, Note_on_c, 3, 61, 89
5, 20433, Note_on_c, 3, 61, 0
5, 20433, Note_on_c, 3, 66, 0
5, 20433, Note_on_c, 3, 58, 93
5, 20433, Note_on_c, 3, 58, 0
5, 20461, Note_on_c, 3, 59, 91
5, 20462, Note_on_c, 3, 66, 92
5, 20521, Note_on_c, 3, 66, 0
5, 20521, Note_on_c, 3, 59, 0
5, 20581, Note_on_c, 3, 66, 93
5, 20582, Note_on_c, 3, 61, 90
5, 20583, Note_on_c, 3, 58, 93
5, 20761, Note_on_c, 3, 58, 0
5, 20761, Note_on_c, 3, 61, 0
5, 20761, Note_on_c, 3, 66, 0
5, 20762, Note_on_c, 3, 58, 90
5, 20763, Note_on_c, 3, 61, 91
5, 20763, Note_on_c, 3, 66, 91
5, 20821, Note_on_c, 3, 66, 0
5, 20821, Note_on_c, 3, 61, 0
5, 20821, Note_on_c, 3, 58, 0
5, 20822, Note_on_c, 3, 66, 89
5, 20823, Note_on_c, 3, 66, 0
5, 20823, Note_on_c, 3, 61, 92
5, 20823, Note_on_c, 3, 61, 0
5, 20823, Note_on_c, 3, 58, 93
5, 20823, Note_on_c, 3, 58, 0
5, 20851, Note_on_c, 3, 58, 92
5, 20852, Note_on_c, 3, 61, 93
5, 20853, Note_on_c, 3, 61, 0
5, 20853, Note_on_c, 3, 58, 0
5, 20854, Note_on_c, 3, 66, 88
5, 20854, Note_on_c, 3, 66, 0
5, 20881, Note_on_c, 3, 66, 90
5, 20881, Note_on_c, 3, 61, 88
5, 20882, Note_on_c, 3, 61, 0
5, 20882, Note_on_c, 3, 66, 0
5, 20882, Note_on_c, 3, 58, 88
5, 20882, Note_on_c, 3, 58, 0
5, 20910, Note_on_c, 3, 58, 87
5, 20911, Note_on_c, 3, 61, 91
5, 20912, Note_on_c, 3, 61, 0
5, 20912, Note_on_c, 3, 58, 0
5, 20913, Note_on_c, 3, 66, 89
5, 20913, Note_on_c, 3, 66, 0
5, 20941, Note_on_c, 3, 66, 89
5, 20942, Note_on_c, 3, 59, 93
5, 21001, Note_on_c, 3, 59, 0
5, 21001, Note_on_c, 3, 66, 0
5, 21060, Note_on_c, 3, 58, 88
5, 21062, Note_on_c, 3, 61, 93
5, 21062, Note_on_c, 3, 66, 92
5, 21241, Note_on_c, 3, 66, 0
5, 21242, Note_on_c, 3, 61, 0
5, 21242, Note_on_c, 3, 58, 0
5, 21243, Note_on_c, 3, 66, 90
5, 21243, Note_on_c, 3, 61, 93
5, 21243, Note_on_c, 3, 58, 90
5, 21300, Note_on_c, 3, 58, 0
5, 21301, Note_on_c, 3, 61, 0
5, 21302, Note_on_c, 3, 66, 0
5, 21302, Note_on_c, 3, 58, 92
5, 21302, Note_on_c, 3, 61, 87
5, 21303, Note_on_c, 3, 61, 0
5, 21303, Note_on_c, 3, 58, 0
5, 21304, Note_on_c, 3, 66, 89
5, 21304, Note_on_c, 3, 66, 0
5, 21331, Note_on_c, 3, 66, 93
5, 21331, Note_on_c, 3, 61, 88
5, 21332, Note_on_c, 3, 61, 0
5, 21332, Note_on_c, 3, 66, 0
5, 21333, Note_on_c, 3, 58, 89
5, 21333, Note_on_c, 3, 58, 0
5, 21361, Note_on_c, 3, 54, 91
5, 21361, Note_on_c, 3, 61, 88
5, 21363, Note_on_c, 3, 66, 89
5, 21421, Note_on_c, 3, 66, 0
5, 21421, Note_on_c, 3, 61, 0
5, 21422, Note_on_c, 3, 54, 0
5, 21422, Note_on_c, 3, 66, 89
5, 21423, Note_on_c, 3, 66, 90
5, 21423, Note_on_c, 3, 66, 87
5, 21424, Note_on_c, 3, 61, 87
5, 21425, Note_on_c, 3, 54, 92
5, 21480, Note_on_c, 3, 54, 0
5, 21481, Note_on_c, 3, 66, 0
5, 21481, Note_on_c, 3, 66, 0
5, 21481, Note_on_c, 3, 66, 0
5, 21482, Note_on_c, 3, 61, 0
5, 21483, Note_on_c, 3, 52, 89
5, 21483, Note_on_c, 3, 64, 93
5, 21484, Note_on_c, 3, 71, 93
5, 21540, Note_on_c, 3, 64, 0
5, 21541, Note_on_c, 3, 71, 0
5, 21541, Note_on_c, 3, 52, 0
5, 21541, Note_on_c, 3, 69, 91
5, 21542, Note_on_c, 3, 66, 93
5, 21661, Note_on_c, 3, 66, 0
5, 21661, Note_on_c, 3, 69, 0
5, 21662, Note_on_c, 3, 66, 92
5, 21662, Note_on_c, 3, 69, 93
5, 21720, Note_on_c, 3, 69, 0
5, 21721, Note_on_c, 3, 66, 0
5, 21721, Note_on_c, 3, 69, 92
5, 21722, Note_on_c, 3, 66, 88
5, 21775, Note_on_c, 3, 66, 0
5, 21775, Note_on_c, 3, 69, 0
5, 21780, Note_on_c, 3, 66, 92
5, 21782, Note_on_c, 3, 69, 88
5, 21840, Note_on_c, 3, 69, 0
5, 21841, Note_on_c, 3, 66, 0
5, 21842, Note_on_c, 3, 69, 88
5, 21842, Note_on_c, 3, 66, 87
5, 21901, Note_on_c, 3, 66, 0
5, 21901, Note_on_c, 3, 69, 0
5, 21901, Note_on_c, 3, 66, 91
5, 21901, Note_on_c, 3, 69, 89
5, 21960, Note_on_c, 3, 69, 0
5, 21961, Note_on_c, 3, 66, 0
5, 21961, Note_on_c, 3, 69, 89
5, 21961, Note_on_c, 3, 66, 92
5, 22020, Note_on_c, 3, 66, 0
5, 22021, Note_on_c, 3, 69, 0
5, 22022, Note_on_c, 3, 57, 92
5, 22022, Note_on_c, 3, 64, 92
5, 22022, Note_on_c, 3, 69, 89
5, 22140, Note_on_c, 3, 69, 0
5, 22141, Note_on_c, 3, 64, 0
5, 22142, Note_on_c, 3, 57, 0
5, 22142, Note_on_c, 3, 69, 91
5, 22143, Note_on_c, 3, 64, 87
5, 22143, Note_on_c, 3, 57, 88
5, 22201, Note_on_c, 3, 57, 0
5, 22202, Note_on_c, 3, 64, 0
5, 22202, Note_on_c, 3, 69, 0
5, 22203, Note_on_c, 3, 57, 92
5, 22203, Note_on_c, 3, 64, 91
5, 22203, Note_on_c, 3, 69, 88
5, 22255, Note_on_c, 3, 69, 0
5, 22256, Note_on_c, 3, 64, 0
5, 22256, Note_on_c, 3, 57, 0
5, 22260, Note_on_c, 3, 69, 91
5, 22262, Note_on_c, 3, 64, 91
5, 22263, Note_on_c, 3, 57, 91
5, 22321, Note_on_c, 3, 57, 0
5, 22322, Note_on_c, 3, 64, 0
5, 22322, Note_on_c, 3, 69, 0
5, 22323, Note_on_c, 3, 57, 89
5, 22323, Note_on_c, 3, 64, 87
5, 22323, Note_on_c, 3, 69, 93
5, 22380, Note_on_c, 3, 69, 0
5, 22380, Note_on_c, 3, 64, 0
5, 22381, Note_on_c, 3, 57, 0
5, 22382, Note_on_c, 3, 69, 89
5, 22382, Note_on_c, 3, 64, 89
5, 22383, Note_on_c, 3, 57, 87
5, 22441, Note_on_c, 3, 57, 0
5, 22441, Note_on_c, 3, 64, 0
5, 22442, Note_on_c, 3, 69, 0
5, 22443, Note_on_c, 3, 57, 87
5, 22443, Note_on_c, 3, 64, 88
5, 22444, Note_on_c, 3, 69, 93
5, 22501, Note_on_c, 3, 69, 0
5, 22501, Note_on_c, 3, 64, 0
5, 22501, Note_on_c, 3, 57, 0
5, 22502, Note_on_c, 3, 69, 92
5, 22502, Note_on_c, 3, 66, 92
5, 22560, Note_on_c, 3, 66, 0
5, 22561, Note_on_c, 3, 69, 0
5, 22561, Note_on_c, 3, 66, 88
5, 22562, Note_on_c, 3, 69, 88
5, 22620, Note_on_c, 3, 69, 0
5, 22620, Note_on_c, 3, 66, 0
5, 22621, Note_on_c, 3, 69, 89
5, 22622, Note_on_c, 3, 66, 93
5, 22680, Note_on_c, 3, 66, 0
5, 22680, Note_on_c, 3, 69, 0
5, 22681, Note_on_c, 3, 66, 92
5, 22682, Note_on_c, 3, 69, 91
5, 22735, Note_on_c, 3, 69, 0
5, 22736, Note_on_c, 3, 66, 0
5, 22741, Note_on_c, 3, 69, 92
5, 22742, Note_on_c, 3, 66, 88
5, 22800, Note_on_c, 3, 66, 0
5, 22800, Note_on_c, 3, 69, 0
5, 22801, Note_on_c, 3, 66, 87
5, 22802, Note_on_c, 3, 69, 90
5, 22860, Note_on_c, 3, 69, 0
5, 22860, Note_on_c, 3, 66, 0
5, 22860, Note_on_c, 3, 69, 90
5, 22861, Note_on_c, 3, 66, 90
5, 22920, Note_on_c, 3, 66, 0
5, 22920, Note_on_c, 3, 69, 0
5, 22921, Note_on_c, 3, 66, 93
5, 22921, Note_on_c, 3, 69, 89
5, 22981, Note_on_c, 3, 69, 0
5, 22981, Note_on_c, 3, 66, 0
5, 22982, Note_on_c, 3, 69, 89
5, 22982, Note_on_c, 3, 64, 88
5, 22983, Note_on_c, 3, 57, 88
5, 23040, Note_on_c, 3, 57, 0
5, 23040, Note_on_c, 3, 64, 0
5, 23040, Note_on_c, 3, 69, 0
5, 23041, Note_on_c, 3, 57, 91
5, 23041, Note_on_c, 3, 64, 93
5, 23043, Note_on_c, 3, 69, 90
5, 23100, Note_on_c, 3, 69, 0
5, 23100, Note_on_c, 3, 64, 0
5, 23100, Note_on_c, 3, 57, 0
5, 23101, Note_on_c, 3, 69, 91
5, 23102, Note_on_c, 3, 64, 93
5, 23102, Note_on_c, 3, 57, 89
5, 23160, Note_on_c, 3, 57, 0
5, 23160, Note_on_c, 3, 64, 0
5, 23161, Note_on_c, 3, 69, 0
5, 23161, Note_on_c, 3, 57, 87
5, 23161, Note_on_c, 3, 64, 91
5, 23162, Note_on_c, 3, 69, 90
5, 23215, Note_on_c, 3, 69, 0
5, 23215, Note_on_c, 3, 64, 0
5, 23215, Note_on_c, 3, 57, 0
5, 23220, Note_on_c, 3, 69, 88
5, 23222, Note_on_c, 3, 64, 88
5, 23223, Note_on_c, 3, 57, 88
5, 23281, Note_on_c, 3, 57, 0
5, 23282, Note_on_c, 3, 64, 0
5, 23282, Note_on_c, 3, 69, 0
5, 23283, Note_on_c, 3, 57, 90
5, 23283, Note_on_c, 3, 64, 90
5, 23283, Note_on_c, 3, 69, 91
5, 23340, Note_on_c, 3, 69, 0
5, 23341, Note_on_c, 3, 64, 0
5, 23342, Note_on_c, 3, 57, 0
5, 23342, Note_on_c, 3, 69, 89
5, 23343, Note_on_c, 3, 64, 93
5, 23343, Note_on_c, 3, 57, 92
5, 23400, Note_on_c, 3, 57, 0
5, 23401, Note_on_c, 3, 64, 0
5, 23401, Note_on_c, 3, 69, 0
5, 23402, Note_on_c, 3, 57, 90
5, 23403, Note_on_c, 3, 64, 91
5, 23403, Note_on_c, 3, 69, 88
5, 23461, Note_on_c, 3, 69, 0
5, 23462, Note_on_c, 3, 64, 0
5, 23462, Note_on_c, 3, 57, 0
5, 23463, Note_on_c, 3, 69, 90
5, 23463, Note_on_c, 3, 66, 87
5, 23521, Note_on_c, 3, 66, 0
5, 23522, Note_on_c, 3, 69, 0
5, 23522, Note_on_c, 3, 66, 89
5, 23522, Note_on_c, 3, 69, 89
5, 23581, Note_on_c, 3, 69, 0
5, 23581, Note_on_c, 3, 66, 0
5, 23582, Note_on_c, 3, 69, 88
5, 23583, Note_on_c, 3, 66, 93
5, 23641, Note_on_c, 3, 66, 0
5, 23641, Note_on_c, 3, 69, 0
5, 23642, Note_on_c, 3, 66, 91
5, 23642, Note_on_c, 3, 69, 93
5, 23696, Note_on_c, 3, 69, 0
5, 23696, Note_on_c, 3, 66, 0
5, 23701, Note_on_c, 3, 69, 90
5, 23702, Note_on_c, 3, 66, 92
5, 23761, Note_on_c, 3, 66, 0
5, 23761, Note_on_c, 3, 69, 0
5, 23762, Note_on_c, 3, 66, 91
5, 23763, Note_on_c, 3, 69, 89
5, 23821, Note_on_c, 3, 69, 0
5, 23821, Note_on_c, 3, 66, 0
5, 23822, Note_on_c, 3, 69, 90
5, 23823, Note_on_c, 3, 66, 91
5, 23880, Note_on_c, 3, 69, 0
5, 23881, Note_on_c, 3, 66, 0
5, 23881, Note_on_c, 3, 66, 90
5, 23882, Note_on_c, 3, 69, 87
5, 23940, Note_on_c, 3, 69, 0
5, 23941, Note_on_c, 3, 66, 0
5, 23941, Note_on_c, 3, 70, 93
5, 23942, Note_on_c, 3, 67, 90
5, 24000, Note_on_c, 3, 67, 0
5, 24001, Note_on_c, 3, 70, 0
5, 24002, Note_on_c, 3, 67, 92
5, 24002, Note_on_c, 3, 70, 88
5, 24060, Note_on_c, 3, 70, 0
5, 24061, Note_on_c, 3, 67, 0
5, 24062, Note_on_c, 3, 70, 87
5, 24062, Note_on_c, 3, 67, 87
5, 24120, Note_on_c, 3, 67, 0
5, 24121, Note_on_c, 3, 70, 0
5, 24121, Note_on_c, 3, 67, 91
5, 24122, Note_on_c, 3, 70, 92
5, 24176, Note_on_c, 3, 70, 0
5, 24177, Note_on_c, 3, 67, 0
5, 24180, Note_on_c, 3, 70, 90
5, 24182, Note_on_c, 3, 67, 88
5, 24241, Note_on_c, 3, 67, 0
5, 24241, Note_on_c, 3, 70, 0
5, 24242, Note_on_c, 3, 67, 87
5, 24242, Note_on_c, 3, 70, 88
5, 24301, Note_on_c, 3, 70, 0
5, 24302, Note_on_c, 3, 67, 0
5, 24302, Note_on_c, 3, 70, 87
5, 24303, Note_on_c, 3, 67, 89
5, 24360, Note_on_c, 3, 67, 0
5, 24360, Note_on_c, 3, 70, 0
5, 24361, Note_on_c, 3, 67, 88
5, 24361, Note_on_c, 3, 70, 91
5, 24421, Note_on_c, 3, 70, 0
5, 24421, Note_on_c, 3, 67, 0
5, 24422, Note_on_c, 3, 71, 92
5, 24423, Note_on_c, 3, 68, 88
5, 24481, Note_on_c, 3, 68, 0
5, 24481, Note_on_c, 3, 71, 0
5, 24482, Note_on_c, 3, 68, 88
5, 24483, Note_on_c, 3, 71, 91
5, 24540, Note_on_c, 3, 71, 0
5, 24540, Note_on_c, 3, 68, 0
5, 24541, Note_on_c, 3, 71, 91
5, 24541, Note_on_c, 3, 68, 89
5, 24600, Note_on_c, 3, 68, 0
5, 24601, Note_on_c, 3, 71, 0
5, 24602, Note_on_c, 3, 68, 90
5, 24602, Note_on_c, 3, 71, 89
5, 24655, Note_on_c, 3, 71, 0
5, 24656, Note_on_c, 3, 68, 0
5, 24661, Note_on_c, 3, 71, 91
5, 24662, Note_on_c, 3, 68, 93
5, 24721, Note_on_c, 3, 68, 0
5, 24721, Note_on_c, 3, 71, 0
5, 24721, Note_on_c, 3, 68, 87
5, 24722, Note_on_c, 3, 71, 89
5, 24780, Note_on_c, 3, 71, 0
5, 24780, Note_on_c, 3, 68, 0
5, 24780, Note_on_c, 3, 71, 93
5, 24781, Note_on_c, 3, 68, 93
5, 24841, Note_on_c, 3, 68, 0
5, 24841, Note_on_c, 3, 71, 0
5, 24842, Note_on_c, 3, 68, 89
5, 24843, Note_on_c, 3, 71, 88
5, 24901, Note_on_c, 3, 71, 0
5, 24901, Note_on_c, 3, 68, 0
5, 24902, Note_on_c, 3, 71, 88
5, 24903, Note_on_c, 3, 68, 89
5, 24961, Note_on_c, 3, 68, 0
5, 24961, Note_on_c, 3, 71, 0
5, 25381, Note_on_c, 3, 57, 89
5, 25381, Note_on_c, 3, 62, 93
5, 25382, Note_on_c, 3, 64, 87
5, 25501, Note_on_c, 3, 64, 0
5, 25501, Note_on_c, 3, 62, 0
5, 25502, Note_on_c, 3, 57, 0
5, 25502, Note_on_c, 3, 64, 89
5, 25503, Note_on_c, 3, 57, 93
5, 25556, Note_on_c, 3, 57, 0
5, 25556, Note_on_c, 3, 64, 0
5, 25561, Note_on_c, 3, 57, 91
5, 25562, Note_on_c, 3, 62, 93
5, 25562, Note_on_c, 3, 64, 88
5, 25616, Note_on_c, 3, 64, 0
5, 25616, Note_on_c, 3, 62, 0
5, 25616, Note_on_c, 3, 57, 0
5, 25621, Note_on_c, 3, 64, 87
5, 25622, Note_on_c, 3, 62, 93
5, 25623, Note_on_c, 3, 57, 90
5, 25681, Note_on_c, 3, 57, 0
5, 25681, Note_on_c, 3, 62, 0
5, 25681, Note_on_c, 3, 64, 0
5, 25682, Note_on_c, 3, 57, 88
5, 25682, Note_on_c, 3, 62, 90
5, 25683, Note_on_c, 3, 64, 89
5, 25741, Note_on_c, 3, 64, 0
5, 25741, Note_on_c, 3, 62, 0
5, 25742, Note_on_c, 3, 57, 0
5, 25742, Note_on_c, 3, 64, 87
5, 25743, Note_on_c, 3, 62, 92
5, 25743, Note_on_c, 3, 57, 92
5, 25801, Note_on_c, 3, 57, 0
5, 25801, Note_on_c, 3, 62, 0
5, 25801, Note_on_c, 3, 64, 0
5, 25802, Note_on_c, 3, 57, 87
5, 25802, Note_on_c, 3, 62, 87
5, 25803, Note_on_c, 3, 64, 88
5, 25861, Note_on_c, 3, 64, 0
5, 25861, Note_on_c, 3, 62, 0
5, 25862, Note_on_c, 3, 57, 0
5, 25863, Note_on_c, 3, 66, 89
5, 25863, Note_on_c, 3, 59, 88
5, 25980, Note_on_c, 3, 59, 0
5, 25981, Note_on_c, 3, 66, 0
5, 25981, Note_on_c, 3, 59, 92
5, 25982, Note_on_c, 3, 66, 92
5, 26040, Note_on_c, 3, 66, 0
5, 26040, Note_on_c, 3, 59, 0
5, 26041, Note_on_c, 3, 64, 92
5, 26042, Note_on_c, 3, 59, 90
5, 26095, Note_on_c, 3, 59, 0
5, 26096, Note_on_c, 3, 64, 0
5, 26100, Note_on_c, 3, 59, 92
5, 26102, Note_on_c, 3, 64, 87
5, 26161, Note_on_c, 3, 64, 0
5, 26161, Note_on_c, 3, 59, 0
5, 26162, Note_on_c, 3, 64, 87
5, 26163, Note_on_c, 3, 59, 89
5, 26221, Note_on_c, 3, 59, 0
5, 26221, Note_on_c, 3, 64, 0
5, 26222, Note_on_c, 3, 59, 91
5, 26222, Note_on_c, 3, 64, 87
5, 26280, Note_on_c, 3, 64, 0
5, 26281, Note_on_c, 3, 59, 0
5, 26281, Note_on_c, 3, 64, 90
5, 26282, Note_on_c, 3, 57, 93
5, 26340, Note_on_c, 3, 57, 0
5, 26340, Note_on_c, 3, 64, 0
5, 26341, Note_on_c, 3, 62, 91
5, 26342, Note_on_c, 3, 67, 87
5, 26461, Note_on_c, 3, 67, 0
5, 26462, Note_on_c, 3, 62, 0
5, 26462, Note_on_c, 3, 67, 90
5, 26462, Note_on_c, 3, 62, 91
5, 26521, Note_on_c, 3, 62, 0
5, 26521, Note_on_c, 3, 67, 0
5, 26522, Note_on_c, 3, 62, 91
5, 26522, Note_on_c, 3, 67, 87
5, 26576, Note_on_c, 3, 67, 0
5, 26576, Note_on_c, 3, 62, 0
5, 26581, Note_on_c, 3, 67, 92
5, 26582, Note_on_c, 3, 62, 90
5, 26641, Note_on_c, 3, 62, 0
5, 26641, Note_on_c, 3, 67, 0
5, 26642, Note_on_c, 3, 62, 88
5, 26642, Note_on_c, 3, 67, 93
5, 26700, Note_on_c, 3, 67, 0
5, 26701, Note_on_c, 3, 62, 0
5, 26701, Note_on_c, 3, 67, 93
5, 26702, Note_on_c, 3, 62, 89
5, 26760, Note_on_c, 3, 67, 0
5, 26761, Note_on_c, 3, 62, 0
5, 26761, Note_on_c, 3, 62, 93
5, 26762, Note_on_c, 3, 67, 90
5, 26821, Note_on_c, 3, 67, 0
5, 26821, Note_on_c, 3, 62, 0
5, 26822, Note_on_c, 3, 67, 91
5, 26822, Note_on_c, 3, 62, 87
5, 26880, Note_on_c, 3, 62, 0
5, 26880, Note_on_c, 3, 67, 0
5, 26881, Note_on_c, 3, 62, 88
5, 26882, Note_on_c, 3, 67, 87
5, 26941, Note_on_c, 3, 67, 0
5, 26941, Note_on_c, 3, 62, 0
5, 26942, Note_on_c, 3, 67, 91
5, 26943, Note_on_c, 3, 62, 89
5, 27000, Note_on_c, 3, 62, 0
5, 27000, Note_on_c, 3, 67, 0
5, 27001, Note_on_c, 3, 62, 87
5, 27002, Note_on_c, 3, 67, 91
5, 27056, Note_on_c, 3, 67, 0
5, 27056, Note_on_c, 3, 62, 0
5, 27061, Note_on_c, 3, 67, 93
5, 27061, Note_on_c, 3, 62, 88
5, 27121, Note_on_c, 3, 62, 0
5, 27121, Note_on_c, 3, 67, 0
5, 27122, Note_on_c, 3, 62, 92
5, 27122, Note_on_c, 3, 67, 91
5, 27181, Note_on_c, 3, 67, 0
5, 27181, Note_on_c, 3, 62, 0
5, 27182, Note_on_c, 3, 67, 92
5, 27183, Note_on_c, 3, 62, 92
5, 27241, Note_on_c, 3, 62, 0
5, 27241, Note_on_c, 3, 67, 0
5, 27242, Note_on_c, 3, 62, 93
5, 27300, Note_on_c, 3, 62, 0
5, 27301, Note_on_c, 3, 57, 89
5, 27302, Note_on_c, 3, 64, 90
5, 27420, Note_on_c, 3, 64, 0
5, 27421, Note_on_c, 3, 57, 0
5, 27422, Note_on_c, 3, 64, 87
5, 27422, Note_on_c, 3, 57, 92
5, 27475, Note_on_c, 3, 57, 0
5, 27475, Note_on_c, 3, 64, 0
5, 27481, Note_on_c, 3, 57, 93
5, 27482, Note_on_c, 3, 62, 93
5, 27483, Note_on_c, 3, 64, 90
5, 27536, Note_on_c, 3, 64, 0
5, 27536, Note_on_c, 3, 62, 0
5, 27537, Note_on_c, 3, 57, 0
5, 27540, Note_on_c, 3, 64, 90
5, 27541, Note_on_c, 3, 62, 90
5, 27542, Note_on_c, 3, 57, 91
5, 27600, Note_on_c, 3, 57, 0
5, 27601, Note_on_c, 3, 62, 0
5, 27601, Note_on_c, 3, 64, 0
5, 27601, Note_on_c, 3, 57, 91
5, 27602, Note_on_c, 3, 62, 87
5, 27603, Note_on_c, 3, 64, 87
5, 27660, Note_on_c, 3, 64, 0
5, 27660, Note_on_c, 3, 62, 0
5, 27661, Note_on_c, 3, 57, 0
5, 27662, Note_on_c, 3, 64, 91
5, 27662, Note_on_c, 3, 62, 89
5, 27662, Note_on_c, 3, 57, 87
5, 27720, Note_on_c, 3, 57, 0
5, 27720, Note_on_c, 3, 62, 0
5, 27721, Note_on_c, 3, 64, 0
5, 27721, Note_on_c, 3, 57, 92
5, 27722, Note_on_c, 3, 62, 90
5, 27723, Note_on_c, 3, 64, 93
5, 27780, Note_on_c, 3, 64, 0
5, 27780, Note_on_c, 3, 62, 0
5, 27781, Note_on_c, 3, 57, 0
5, 27782, Note_on_c, 3, 66, 74
5, 27782, Note_on_c, 3, 59, 93
5, 27841, Note_on_c, 3, 59, 90
5, 27842, Note_on_c, 3, 66, 91
5, 27901, Note_on_c, 3, 66, 0
5, 27901, Note_on_c, 3, 66, 0
5, 27901, Note_on_c, 3, 59, 0
5, 27902, Note_on_c, 3, 59, 0
5, 27903, Note_on_c, 3, 66, 91
5, 27903, Note_on_c, 3, 59, 93
5, 27961, Note_on_c, 3, 59, 0
5, 27962, Note_on_c, 3, 66, 0
5, 27962, Note_on_c, 3, 59, 93
5, 27963, Note_on_c, 3, 66, 88
5, 28016, Note_on_c, 3, 66, 0
5, 28016, Note_on_c, 3, 59, 0
5, 28020, Note_on_c, 3, 66, 93
5, 28021, Note_on_c, 3, 59, 93
5, 28080, Note_on_c, 3, 59, 0
5, 28080, Note_on_c, 3, 66, 0
5, 28081, Note_on_c, 3, 59, 88
5, 28082, Note_on_c, 3, 66, 92
5, 28141, Note_on_c, 3, 66, 0
5, 28141, Note_on_c, 3, 59, 0
5, 28142, Note_on_c, 3, 66, 93
5, 28143, Note_on_c, 3, 59, 89
5, 28200, Note_on_c, 3, 59, 0
5, 28200, Note_on_c, 3, 66, 0
5, 28201, Note_on_c, 3, 57, 90
5, 28261, Note_on_c, 3, 57, 0
5, 28261, Note_on_c, 3, 62, 87
5, 28262, Note_on_c, 3, 67, 89
5, 28381, Note_on_c, 3, 67, 0
5, 28381, Note_on_c, 3, 62, 0
5, 28382, Note_on_c, 3, 67, 93
5, 28382, Note_on_c, 3, 62, 91
5, 28440, Note_on_c, 3, 62, 0
5, 28441, Note_on_c, 3, 67, 0
5, 28441, Note_on_c, 3, 62, 89
5, 28442, Note_on_c, 3, 67, 87
5, 28495, Note_on_c, 3, 67, 0
5, 28496, Note_on_c, 3, 62, 0
5, 28501, Note_on_c, 3, 67, 92
5, 28501, Note_on_c, 3, 62, 88
5, 28561, Note_on_c, 3, 62, 0
5, 28561, Note_on_c, 3, 67, 0
5, 28561, Note_on_c, 3, 62, 92
5, 28561, Note_on_c, 3, 67, 90
5, 28621, Note_on_c, 3, 67, 0
5, 28621, Note_on_c, 3, 62, 0
5, 28621, Note_on_c, 3, 67, 90
5, 28622, Note_on_c, 3, 62, 88
5, 28680, Note_on_c, 3, 62, 0
5, 28680, Note_on_c, 3, 67, 0
5, 28680, Note_on_c, 3, 62, 90
5, 28682, Note_on_c, 3, 67, 92
5, 28741, Note_on_c, 3, 67, 0
5, 28741, Note_on_c, 3, 62, 0
5, 28742, Note_on_c, 3, 67, 88
5, 28743, Note_on_c, 3, 62, 92
5, 28801, Note_on_c, 3, 62, 0
5, 28801, Note_on_c, 3, 67, 0
5, 28802, Note_on_c, 3, 62, 87
5, 28802, Note_on_c, 3, 67, 90
5, 28860, Note_on_c, 3, 67, 0
5, 28861, Note_on_c, 3, 62, 0
5, 28861, Note_on_c, 3, 67, 89
5, 28861, Note_on_c, 3, 62, 92
5, 28920, Note_on_c, 3, 62, 0
5, 28920, Note_on_c, 3, 67, 0
5, 28921, Note_on_c, 3, 62, 90
5, 28922, Note_on_c, 3, 67, 88
5, 28975, Note_on_c, 3, 67, 0
5, 28975, Note_on_c, 3, 62, 0
5, 28981, Note_on_c, 3, 67, 90
5, 28982, Note_on_c, 3, 62, 87
5, 29041, Note_on_c, 3, 62, 0
5, 29042, Note_on_c, 3, 67, 0
5, 29042, Note_on_c, 3, 62, 92
5, 29042, Note_on_c, 3, 67, 87
5, 29101, Note_on_c, 3, 67, 0
5, 29101, Note_on_c, 3, 62, 0
5, 29102, Note_on_c, 3, 67, 88
5, 29103, Note_on_c, 3, 62, 87
5, 29161, Note_on_c, 3, 62, 0
5, 29161, Note_on_c, 3, 67, 0
5, 29162, Note_on_c, 3, 62, 92
5, 29221, Note_on_c, 3, 62, 0
5, 29221, Note_on_c, 3, 57, 93
5, 29222, Note_on_c, 3, 64, 90
5, 29340, Note_on_c, 3, 64, 0
5, 29340, Note_on_c, 3, 57, 0
5, 29341, Note_on_c, 3, 64, 91
5, 29342, Note_on_c, 3, 57, 87
5, 29396, Note_on_c, 3, 57, 0
5, 29396, Note_on_c, 3, 64, 0
5, 29401, Note_on_c, 3, 57, 92
5, 29402, Note_on_c, 3, 62, 90
5, 29402, Note_on_c, 3, 64, 91
5, 29455, Note_on_c, 3, 64, 0
5, 29455, Note_on_c, 3, 62, 0
5, 29456, Note_on_c, 3, 57, 0
5, 29460, Note_on_c, 3, 64, 91
5, 29462, Note_on_c, 3, 62, 88
5, 29463, Note_on_c, 3, 57, 93
5, 29520, Note_on_c, 3, 57, 0
5, 29521, Note_on_c, 3, 62, 0
5, 29521, Note_on_c, 3, 64, 0
5, 29522, Note_on_c, 3, 57, 92
5, 29522, Note_on_c, 3, 62, 91
5, 29523, Note_on_c, 3, 64, 92
5, 29581, Note_on_c, 3, 64, 0
5, 29581, Note_on_c, 3, 62, 0
5, 29582, Note_on_c, 3, 57, 0
5, 29583, Note_on_c, 3, 64, 93
5, 29583, Note_on_c, 3, 62, 87
5, 29584, Note_on_c, 3, 57, 90
5, 29640, Note_on_c, 3, 62, 0
5, 29641, Note_on_c, 3, 57, 0
5, 29641, Note_on_c, 3, 64, 0
5, 29642, Note_on_c, 3, 57, 87
5, 29642, Note_on_c, 3, 62, 93
5, 29642, Note_on_c, 3, 64, 88
5, 29700, Note_on_c, 3, 64, 0
5, 29700, Note_on_c, 3, 62, 0
5, 29701, Note_on_c, 3, 57, 0
5, 29701, Note_on_c, 3, 66, 87
5, 29702, Note_on_c, 3, 59, 88
5, 29820, Note_on_c, 3, 59, 0
5, 29821, Note_on_c, 3, 66, 0
5, 29822, Note_on_c, 3, 59, 87
5, 29822, Note_on_c, 3, 66, 92
5, 29881, Note_on_c, 3, 66, 0
5, 29881, Note_on_c, 3, 59, 0
5, 29882, Note_on_c, 3, 64, 91
5, 29882, Note_on_c, 3, 59, 88
5, 29935, Note_on_c, 3, 59, 0
5, 29936, Note_on_c, 3, 64, 0
5, 29941, Note_on_c, 3, 59, 90
5, 29942, Note_on_c, 3, 64, 91
5, 30001, Note_on_c, 3, 64, 0
5, 30001, Note_on_c, 3, 59, 0
5, 30002, Note_on_c, 3, 64, 93
5, 30002, Note_on_c, 3, 59, 87
5, 30060, Note_on_c, 3, 59, 0
5, 30061, Note_on_c, 3, 64, 0
5, 30061, Note_on_c, 3, 59, 93
5, 30062, Note_on_c, 3, 64, 87
5, 30120, Note_on_c, 3, 59, 0
5, 30121, Note_on_c, 3, 64, 0
5, 30121, Note_on_c, 3, 64, 91
5, 30122, Note_on_c, 3, 57, 91
5, 30180, Note_on_c, 3, 57, 0
5, 30181, Note_on_c, 3, 64, 0
5, 30182, Note_on_c, 3, 62, 90
5, 30182, Note_on_c, 3, 67, 92
5, 30300, Note_on_c, 3, 67, 0
5, 30301, Note_on_c, 3, 62, 0
5, 30302, Note_on_c, 3, 67, 90
5, 30302, Note_on_c, 3, 62, 92
5, 30360, Note_on_c, 3, 62, 0
5, 30361, Note_on_c, 3, 67, 0
5, 30362, Note_on_c, 3, 62, 92
5, 30362, Note_on_c, 3, 67, 89
5, 30415, Note_on_c, 3, 67, 0
5, 30416, Note_on_c, 3, 62, 0
5, 30421, Note_on_c, 3, 67, 89
5, 30422, Note_on_c, 3, 62, 88
5, 30481, Note_on_c, 3, 62, 0
5, 30481, Note_on_c, 3, 67, 0
5, 30482, Note_on_c, 3, 62, 93
5, 30483, Note_on_c, 3, 67, 93
5, 30541, Note_on_c, 3, 67, 0
5, 30541, Note_on_c, 3, 62, 0
5, 30542, Note_on_c, 3, 67, 91
5, 30542, Note_on_c, 3, 62, 93
5, 30601, Note_on_c, 3, 62, 0
5, 30601, Note_on_c, 3, 67, 0
5, 30602, Note_on_c, 3, 62, 90
5, 30602, Note_on_c, 3, 67, 92
5, 30661, Note_on_c, 3, 67, 0
5, 30662, Note_on_c, 3, 62, 0
5, 30662, Note_on_c, 3, 67, 90
5, 30662, Note_on_c, 3, 62, 90
5, 30721, Note_on_c, 3, 62, 0
5, 30721, Note_on_c, 3, 67, 0
5, 30722, Note_on_c, 3, 62, 92
5, 30722, Note_on_c, 3, 67, 93
5, 30781, Note_on_c, 3, 67, 0
5, 30781, Note_on_c, 3, 62, 0
5, 30782, Note_on_c, 3, 67, 93
5, 30782, Note_on_c, 3, 62, 88
5, 30841, Note_on_c, 3, 62, 0
5, 30841, Note_on_c, 3, 67, 0
5, 30842, Note_on_c, 3, 62, 92
5, 30842, Note_on_c, 3, 67, 93
5, 30896, Note_on_c, 3, 67, 0
5, 30897, Note_on_c, 3, 62, 0
5, 30901, Note_on_c, 3, 67, 88
5, 30902, Note_on_c, 3, 62, 92
5, 30960, Note_on_c, 3, 62, 0
5, 30960, Note_on_c, 3, 67, 0
5, 30961, Note_on_c, 3, 62, 89
5, 30961, Note_on_c, 3, 67, 92
5, 31021, Note_on_c, 3, 67, 0
5, 31021, Note_on_c, 3, 62, 0
5, 31022, Note_on_c, 3, 67, 91
5, 31022, Note_on_c, 3, 62, 93
5, 31080, Note_on_c, 3, 62, 0
5, 31081, Note_on_c, 3, 67, 0
5, 31081, Note_on_c, 3, 62, 93
5, 31140, Note_on_c, 3, 62, 0
5, 31141, Note_on_c, 3, 57, 93
5, 31142, Note_on_c, 3, 64, 93
5, 31261, Note_on_c, 3, 64, 0
5, 31261, Note_on_c, 3, 57, 0
5, 31262, Note_on_c, 3, 64, 87
5, 31263, Note_on_c, 3, 57, 88
5, 31315, Note_on_c, 3, 64, 0
5, 31316, Note_on_c, 3, 57, 0
5, 31321, Note_on_c, 3, 57, 91
5, 31321, Note_on_c, 3, 62, 91
5, 31322, Note_on_c, 3, 64, 91
5, 31375, Note_on_c, 3, 64, 0
5, 31375, Note_on_c, 3, 62, 0
5, 31376, Note_on_c, 3, 57, 0
5, 31381, Note_on_c, 3, 64, 88
5, 31382, Note_on_c, 3, 62, 88
5, 31382, Note_on_c, 3, 57, 91
5, 31440, Note_on_c, 3, 57, 0
5, 31441, Note_on_c, 3, 62, 0
5, 31442, Note_on_c, 3, 64, 0
5, 31442, Note_on_c, 3, 57, 87
5, 31443, Note_on_c, 3, 62, 91
5, 31443, Note_on_c, 3, 64, 87
5, 31501, Note_on_c, 3, 64, 0
5, 31502, Note_on_c, 3, 62, 0
5, 31502, Note_on_c, 3, 57, 0
5, 31503, Note_on_c, 3, 64, 90
5, 31503, Note_on_c, 3, 62, 89
5, 31504, Note_on_c, 3, 57, 92
5, 31561, Note_on_c, 3, 57, 0
5, 31561, Note_on_c, 3, 62, 0
5, 31562, Note_on_c, 3, 64, 0
5, 31562, Note_on_c, 3, 57, 93
5, 31563, Note_on_c, 3, 62, 87
5, 31563, Note_on_c, 3, 64, 87
5, 31620, Note_on_c, 3, 64, 0
5, 31620, Note_on_c, 3, 62, 0
5, 31620, Note_on_c, 3, 57, 0
5, 31621, Note_on_c, 3, 66, 74
5, 31622, Note_on_c, 3, 59, 93
5, 31681, Note_on_c, 3, 59, 92
5, 31682, Note_on_c, 3, 66, 87
5, 31741, Note_on_c, 3, 66, 0
5, 31741, Note_on_c, 3, 66, 0
5, 31741, Note_on_c, 3, 59, 0
5, 31741, Note_on_c, 3, 59, 0
5, 31742, Note_on_c, 3, 66, 88
5, 31742, Note_on_c, 3, 59, 87
5, 31800, Note_on_c, 3, 59, 0
5, 31801, Note_on_c, 3, 66, 0
5, 31802, Note_on_c, 3, 59, 93
5, 31802, Note_on_c, 3, 66, 88
5, 31855, Note_on_c, 3, 66, 0
5, 31856, Note_on_c, 3, 59, 0
5, 31861, Note_on_c, 3, 66, 89
5, 31862, Note_on_c, 3, 59, 93
5, 31921, Note_on_c, 3, 59, 0
5, 31921, Note_on_c, 3, 66, 0
5, 31921, Note_on_c, 3, 59, 87
5, 31921, Note_on_c, 3, 66, 88
5, 31980, Note_on_c, 3, 66, 0
5, 31981, Note_on_c, 3, 59, 0
5, 31981, Note_on_c, 3, 66, 90
5, 31982, Note_on_c, 3, 59, 87
5, 32041, Note_on_c, 3, 59, 0
5, 32041, Note_on_c, 3, 66, 0
5, 32041, Note_on_c, 3, 57, 88
5, 32101, Note_on_c, 3, 57, 0
5, 32102, Note_on_c, 3, 62, 89
5, 32102, Note_on_c, 3, 67, 88
5, 32221, Note_on_c, 3, 67, 0
5, 32221, Note_on_c, 3, 62, 0
5, 32222, Note_on_c, 3, 67, 93
5, 32222, Note_on_c, 3, 62, 92
5, 32280, Note_on_c, 3, 62, 0
5, 32280, Note_on_c, 3, 67, 0
5, 32280, Note_on_c, 3, 62, 88
5, 32282, Note_on_c, 3, 67, 88
5, 32335, Note_on_c, 3, 67, 0
5, 32336, Note_on_c, 3, 62, 0
5, 32340, Note_on_c, 3, 67, 87
5, 32342, Note_on_c, 3, 62, 87
5, 32400, Note_on_c, 3, 62, 0
5, 32400, Note_on_c, 3, 67, 0
5, 32401, Note_on_c, 3, 62, 88
5, 32402, Note_on_c, 3, 67, 87
5, 32460, Note_on_c, 3, 67, 0
5, 32460, Note_on_c, 3, 62, 0
5, 32460, Note_on_c, 3, 67, 89
5, 32461, Note_on_c, 3, 62, 93
5, 32520, Note_on_c, 3, 62, 0
5, 32521, Note_on_c, 3, 67, 0
5, 32522, Note_on_c, 3, 62, 87
5, 32522, Note_on_c, 3, 67, 91
5, 32580, Note_on_c, 3, 67, 0
5, 32580, Note_on_c, 3, 62, 0
5, 32581, Note_on_c, 3, 67, 91
5, 32582, Note_on_c, 3, 62, 92
5, 32640, Note_on_c, 3, 62, 0
5, 32641, Note_on_c, 3, 67, 0
5, 32642, Note_on_c, 3, 62, 87
5, 32642, Note_on_c, 3, 67, 93
5, 32700, Note_on_c, 3, 67, 0
5, 32701, Note_on_c, 3, 62, 0
5, 32701, Note_on_c, 3, 67, 88
5, 32701, Note_on_c, 3, 62, 89
5, 32760, Note_on_c, 3, 62, 0
5, 32761, Note_on_c, 3, 67, 0
5, 32762, Note_on_c, 3, 62, 90
5, 32762, Note_on_c, 3, 67, 91
5, 32815, Note_on_c, 3, 67, 0
5, 32816, Note_on_c, 3, 62, 0
5, 32821, Note_on_c, 3, 67, 87
5, 32822, Note_on_c, 3, 62, 93
5, 32880, Note_on_c, 3, 62, 0
5, 32880, Note_on_c, 3, 67, 0
5, 32881, Note_on_c, 3, 62, 93
5, 32882, Note_on_c, 3, 67, 91
5, 32941, Note_on_c, 3, 67, 0
5, 32942, Note_on_c, 3, 62, 0
5, 32942, Note_on_c, 3, 67, 91
5, 32943, Note_on_c, 3, 62, 87
5, 33001, Note_on_c, 3, 62, 0
5, 33001, Note_on_c, 3, 67, 0
5, 33002, Note_on_c, 3, 62, 92
5, 33060, Note_on_c, 3, 62, 0
5, 33061, Note_on_c, 3, 57, 90
5, 33062, Note_on_c, 3, 64, 89
5, 33181, Note_on_c, 3, 64, 0
5, 33181, Note_on_c, 3, 57, 0
5, 33182, Note_on_c, 3, 64, 91
5, 33182, Note_on_c, 3, 57, 90
5, 33235, Note_on_c, 3, 57, 0
5, 33235, Note_on_c, 3, 64, 0
5, 33241, Note_on_c, 3, 57, 93
5, 33241, Note_on_c, 3, 62, 92
5, 33242, Note_on_c, 3, 64, 88
5, 33295, Note_on_c, 3, 64, 0
5, 33295, Note_on_c, 3, 62, 0
5, 33296, Note_on_c, 3, 57, 0
5, 33301, Note_on_c, 3, 64, 93
5, 33302, Note_on_c, 3, 62, 92
5, 33303, Note_on_c, 3, 57, 87
5, 33360, Note_on_c, 3, 57, 0
5, 33361, Note_on_c, 3, 62, 0
5, 33361, Note_on_c, 3, 64, 0
5, 33362, Note_on_c, 3, 57, 88
5, 33362, Note_on_c, 3, 62, 90
5, 33362, Note_on_c, 3, 64, 92
5, 33420, Note_on_c, 3, 64, 0
5, 33421, Note_on_c, 3, 62, 0
5, 33421, Note_on_c, 3, 57, 0
5, 33422, Note_on_c, 3, 64, 88
5, 33422, Note_on_c, 3, 62, 92
5, 33422, Note_on_c, 3, 57, 87
5, 33481, Note_on_c, 3, 57, 0
5, 33482, Note_on_c, 3, 62, 0
5, 33482, Note_on_c, 3, 64, 0
5, 33483, Note_on_c, 3, 57, 91
5, 33483, Note_on_c, 3, 62, 93
5, 33484, Note_on_c, 3, 64, 89
5, 33541, Note_on_c, 3, 64, 0
5, 33541, Note_on_c, 3, 62, 0
5, 33542, Note_on_c, 3, 57, 0
5, 33543, Note_on_c, 3, 66, 91
5, 33543, Note_on_c, 3, 59, 92
5, 33660, Note_on_c, 3, 59, 0
5, 33661, Note_on_c, 3, 66, 0
5, 33662, Note_on_c, 3, 59, 89
5, 33662, Note_on_c, 3, 66, 91
5, 33720, Note_on_c, 3, 66, 0
5, 33720, Note_on_c, 3, 59, 0
5, 33721, Note_on_c, 3, 64, 87
5, 33722, Note_on_c, 3, 59, 89
5, 33776, Note_on_c, 3, 59, 0
5, 33776, Note_on_c, 3, 64, 0
5, 33781, Note_on_c, 3, 59, 91
5, 33782, Note_on_c, 3, 64, 93
5, 33841, Note_on_c, 3, 64, 0
5, 33841, Note_on_c, 3, 59, 0
5, 33841, Note_on_c, 3, 64, 92
5, 33842, Note_on_c, 3, 59, 90
5, 33900, Note_on_c, 3, 59, 0
5, 33901, Note_on_c, 3, 64, 0
5, 33901, Note_on_c, 3, 59, 87
5, 33902, Note_on_c, 3, 64, 88
5, 33961, Note_on_c, 3, 64, 0
5, 33961, Note_on_c, 3, 59, 0
5, 33962, Note_on_c, 3, 64, 87
5, 33962, Note_on_c, 3, 57, 92
5, 34020, Note_on_c, 3, 57, 0
5, 34020, Note_on_c, 3, 64, 0
5, 34021, Note_on_c, 3, 62, 92
5, 34022, Note_on_c, 3, 67, 89
5, 34140, Note_on_c, 3, 67, 0
5, 34140, Note_on_c, 3, 62, 0
5, 34141, Note_on_c, 3, 67, 88
5, 34142, Note_on_c, 3, 62, 87
5, 34200, Note_on_c, 3, 62, 0
5, 34201, Note_on_c, 3, 67, 0
5, 34201, Note_on_c, 3, 62, 93
5, 34202, Note_on_c, 3, 67, 90
5, 34255, Note_on_c, 3, 67, 0
5, 34255, Note_on_c, 3, 62, 0
5, 34261, Note_on_c, 3, 67, 90
5, 34261, Note_on_c, 3, 62, 87
5, 34320, Note_on_c, 3, 62, 0
5, 34321, Note_on_c, 3, 67, 0
5, 34321, Note_on_c, 3, 62, 87
5, 34322, Note_on_c, 3, 67, 87
5, 34380, Note_on_c, 3, 62, 0
5, 34381, Note_on_c, 3, 67, 0
5, 34381, Note_on_c, 3, 67, 91
5, 34382, Note_on_c, 3, 62, 88
5, 34441, Note_on_c, 3, 62, 0
5, 34441, Note_on_c, 3, 67, 0
5, 34441, Note_on_c, 3, 62, 88
5, 34441, Note_on_c, 3, 67, 87
5, 34501, Note_on_c, 3, 67, 0
5, 34501, Note_on_c, 3, 62, 0
5, 34502, Note_on_c, 3, 67, 93
5, 34502, Note_on_c, 3, 62, 88
5, 34560, Note_on_c, 3, 62, 0
5, 34561, Note_on_c, 3, 67, 0
5, 34562, Note_on_c, 3, 62, 89
5, 34562, Note_on_c, 3, 67, 89
5, 34620, Note_on_c, 3, 67, 0
5, 34620, Note_on_c, 3, 62, 0
5, 34621, Note_on_c, 3, 67, 91
5, 34621, Note_on_c, 3, 62, 92
5, 34680, Note_on_c, 3, 62, 0
5, 34681, Note_on_c, 3, 67, 0
5, 34682, Note_on_c, 3, 62, 91
5, 34682, Note_on_c, 3, 67, 88
5, 34736, Note_on_c, 3, 67, 0
5, 34737, Note_on_c, 3, 62, 0
5, 34741, Note_on_c, 3, 67, 90
5, 34742, Note_on_c, 3, 62, 88
5, 34801, Note_on_c, 3, 62, 0
5, 34801, Note_on_c, 3, 67, 0
5, 34801, Note_on_c, 3, 62, 92
5, 34802, Note_on_c, 3, 67, 91
5, 34860, Note_on_c, 3, 67, 0
5, 34860, Note_on_c, 3, 62, 0
5, 34861, Note_on_c, 3, 67, 90
5, 34862, Note_on_c, 3, 62, 91
5, 34921, Note_on_c, 3, 62, 0
5, 34921, Note_on_c, 3, 67, 0
5, 34921, Note_on_c, 3, 62, 89
5, 34980, Note_on_c, 3, 62, 0
5, 34981, Note_on_c, 3, 57, 91
5, 34982, Note_on_c, 3, 64, 93
5, 35100, Note_on_c, 3, 64, 0
5, 35101, Note_on_c, 3, 57, 0
5, 35101, Note_on_c, 3, 64, 87
5, 35101, Note_on_c, 3, 57, 90
5, 35155, Note_on_c, 3, 57, 0
5, 35155, Note_on_c, 3, 64, 0
5, 35161, Note_on_c, 3, 57, 92
5, 35162, Note_on_c, 3, 62, 90
5, 35162, Note_on_c, 3, 64, 89
5, 35216, Note_on_c, 3, 64, 0
5, 35216, Note_on_c, 3, 62, 0
5, 35217, Note_on_c, 3, 57, 0
5, 35220, Note_on_c, 3, 64, 92
5, 35222, Note_on_c, 3, 62, 90
5, 35223, Note_on_c, 3, 57, 88
5, 35280, Note_on_c, 3, 57, 0
5, 35281, Note_on_c, 3, 62, 0
5, 35281, Note_on_c, 3, 64, 0
5, 35282, Note_on_c, 3, 57, 89
5, 35282, Note_on_c, 3, 62, 87
5, 35283, Note_on_c, 3, 64, 93
5, 35341, Note_on_c, 3, 64, 0
5, 35341, Note_on_c, 3, 62, 0
5, 35341, Note_on_c, 3, 57, 0
5, 35342, Note_on_c, 3, 64, 90
5, 35342, Note_on_c, 3, 62, 91
5, 35343, Note_on_c, 3, 57, 91
5, 35401, Note_on_c, 3, 57, 0
5, 35401, Note_on_c, 3, 62, 0
5, 35401, Note_on_c, 3, 64, 0
5, 35402, Note_on_c, 3, 57, 91
5, 35402, Note_on_c, 3, 62, 88
5, 35403, Note_on_c, 3, 64, 88
5, 35460, Note_on_c, 3, 64, 0
5, 35460, Note_on_c, 3, 62, 0
5, 35460, Note_on_c, 3, 57, 0
5, 35461, Note_on_c, 3, 66, 75
5, 35462, Note_on_c, 3, 59, 92
5, 35521, Note_on_c, 3, 59, 88
5, 35522, Note_on_c, 3, 66, 89
5, 35581, Note_on_c, 3, 66, 0
5, 35581, Note_on_c, 3, 66, 0
5, 35582, Note_on_c, 3, 59, 0
5, 35583, Note_on_c, 3, 59, 0
5, 35583, Note_on_c, 3, 66, 88
5, 35584, Note_on_c, 3, 59, 93
5, 35641, Note_on_c, 3, 59, 0
5, 35641, Note_on_c, 3, 66, 0
5, 35642, Note_on_c, 3, 59, 88
5, 35643, Note_on_c, 3, 66, 89
5, 35696, Note_on_c, 3, 66, 0
5, 35696, Note_on_c, 3, 59, 0
5, 35701, Note_on_c, 3, 66, 87
5, 35701, Note_on_c, 3, 59, 93
5, 35760, Note_on_c, 3, 59, 0
5, 35761, Note_on_c, 3, 66, 0
5, 35762, Note_on_c, 3, 59, 92
5, 35762, Note_on_c, 3, 66, 90
5, 35821, Note_on_c, 3, 66, 0
5, 35822, Note_on_c, 3, 59, 0
5, 35822, Note_on_c, 3, 66, 91
5, 35823, Note_on_c, 3, 59, 89
5, 35881, Note_on_c, 3, 59, 0
5, 35881, Note_on_c, 3, 66, 0
5, 35882, Note_on_c, 3, 57, 89
5, 35940, Note_on_c, 3, 57, 0
5, 35941, Note_on_c, 3, 62, 92
5, 35942, Note_on_c, 3, 67, 87
5, 36060, Note_on_c, 3, 67, 0
5, 36061, Note_on_c, 3, 62, 0
5, 36062, Note_on_c, 3, 67, 87
5, 36062, Note_on_c, 3, 62, 92
5, 36120, Note_on_c, 3, 62, 0
5, 36121, Note_on_c, 3, 67, 0
5, 36122, Note_on_c, 3, 62, 87
5, 36122, Note_on_c, 3, 67, 89
5, 36176, Note_on_c, 3, 67, 0
5, 36176, Note_on_c, 3, 62, 0
5, 36181, Note_on_c, 3, 67, 87
5, 36181, Note_on_c, 3, 62, 90
5, 36241, Note_on_c, 3, 62, 0
5, 36242, Note_on_c, 3, 67, 0
5, 36242, Note_on_c, 3, 62, 88
5, 36243, Note_on_c, 3, 67, 93
5, 36301, Note_on_c, 3, 67, 0
5, 36301, Note_on_c, 3, 62, 0
5, 36302, Note_on_c, 3, 67, 88
5, 36302, Note_on_c, 3, 62, 89
5, 36360, Note_on_c, 3, 62, 0
5, 36361, Note_on_c, 3, 67, 0
5, 36361, Note_on_c, 3, 62, 93
5, 36362, Note_on_c, 3, 67, 87
5, 36420, Note_on_c, 3, 67, 0
5, 36420, Note_on_c, 3, 62, 0
5, 36421, Note_on_c, 3, 67, 90
5, 36422, Note_on_c, 3, 62, 92
5, 36480, Note_on_c, 3, 62, 0
5, 36481, Note_on_c, 3, 67, 0
5, 36481, Note_on_c, 3, 62, 89
5, 36482, Note_on_c, 3, 67, 91
5, 36540, Note_on_c, 3, 67, 0
5, 36541, Note_on_c, 3, 62, 0
5, 36541, Note_on_c, 3, 67, 87
5, 36542, Note_on_c, 3, 62, 92
5, 36600, Note_on_c, 3, 62, 0
5, 36600, Note_on_c, 3, 67, 0
5, 36601, Note_on_c, 3, 62, 91
5, 36602, Note_on_c, 3, 67, 89
5, 36656, Note_on_c, 3, 67, 0
5, 36657, Note_on_c, 3, 62, 0
5, 36661, Note_on_c, 3, 67, 89
5, 36662, Note_on_c, 3, 62, 87
5, 36721, Note_on_c, 3, 62, 0
5, 36721, Note_on_c, 3, 67, 0
5, 36721, Note_on_c, 3, 62, 90
5, 36721, Note_on_c, 3, 67, 91
5, 36780, Note_on_c, 3, 67, 0
5, 36781, Note_on_c, 3, 62, 0
5, 36781, Note_on_c, 3, 67, 90
5, 36781, Note_on_c, 3, 62, 89
5, 36841, Note_on_c, 3, 62, 0
5, 36841, Note_on_c, 3, 67, 0
5, 36842, Note_on_c, 3, 62, 93
5, 36901, Note_on_c, 3, 62, 0
5, 36901, Note_on_c, 3, 57, 93
5, 36902, Note_on_c, 3, 64, 91
5, 37021, Note_on_c, 3, 64, 0
5, 37021, Note_on_c, 3, 57, 0
5, 37022, Note_on_c, 3, 64, 92
5, 37023, Note_on_c, 3, 57, 92
5, 37076, Note_on_c, 3, 57, 0
5, 37076, Note_on_c, 3, 64, 0
5, 40741, Note_on_c, 3, 57, 89
5, 40742, Note_on_c, 3, 62, 89
5, 40743, Note_on_c, 3, 64, 92
5, 40860, Note_on_c, 3, 64, 0
5, 40861, Note_on_c, 3, 62, 0
5, 40862, Note_on_c, 3, 57, 0
5, 40862, Note_on_c, 3, 64, 87
5, 40862, Note_on_c, 3, 57, 91
5, 40916, Note_on_c, 3, 57, 0
5, 40916, Note_on_c, 3, 64, 0
5, 40921, Note_on_c, 3, 57, 91
5, 40922, Note_on_c, 3, 62, 87
5, 40923, Note_on_c, 3, 64, 90
5, 40975, Note_on_c, 3, 64, 0
5, 40975, Note_on_c, 3, 62, 0
5, 40975, Note_on_c, 3, 57, 0
5, 40981, Note_on_c, 3, 64, 92
5, 40982, Note_on_c, 3, 62, 90
5, 40983, Note_on_c, 3, 57, 87
5, 41040, Note_on_c, 3, 57, 0
5, 41040, Note_on_c, 3, 62, 0
5, 41041, Note_on_c, 3, 64, 0
5, 41041, Note_on_c, 3, 57, 93
5, 41042, Note_on_c, 3, 62, 92
5, 41043, Note_on_c, 3, 64, 92
5, 41100, Note_on_c, 3, 64, 0
5, 41101, Note_on_c, 3, 62, 0
5, 41101, Note_on_c, 3, 57, 0
5, 41102, Note_on_c, 3, 64, 87
5, 41103, Note_on_c, 3, 62, 93
5, 41103, Note_on_c, 3, 57, 93
5, 41160, Note_on_c, 3, 57, 0
5, 41160, Note_on_c, 3, 62, 0
5, 41160, Note_on_c, 3, 64, 0
5, 41161, Note_on_c, 3, 57, 90
5, 41161, Note_on_c, 3, 62, 87
5, 41162, Note_on_c, 3, 64, 87
5, 41220, Note_on_c, 3, 64, 0
5, 41220, Note_on_c, 3, 62, 0
5, 41221, Note_on_c, 3, 57, 0
5, 41221, Note_on_c, 3, 66, 89
5, 41222, Note_on_c, 3, 59, 92
5, 41340, Note_on_c, 3, 59, 0
5, 41340, Note_on_c, 3, 66, 0
5, 41341, Note_on_c, 3, 59, 91
5, 41342, Note_on_c, 3, 66, 92
5, 41400, Note_on_c, 3, 66, 0
5, 41400, Note_on_c, 3, 59, 0
5, 41401, Note_on_c, 3, 64, 89
5, 41402, Note_on_c, 3, 59, 91
5, 41455, Note_on_c, 3, 59, 0
5, 41456, Note_on_c, 3, 64, 0
5, 41460, Note_on_c, 3, 59, 90
5, 41461, Note_on_c, 3, 64, 89
5, 41521, Note_on_c, 3, 64, 0
5, 41521, Note_on_c, 3, 59, 0
5, 41522, Note_on_c, 3, 64, 87
5, 41523, Note_on_c, 3, 59, 90
5, 41581, Note_on_c, 3, 59, 0
5, 41581, Note_on_c, 3, 64, 0
5, 41582, Note_on_c, 3, 59, 92
5, 41582, Note_on_c, 3, 64, 90
5, 41640, Note_on_c, 3, 64, 0
5, 41641, Note_on_c, 3, 59, 0
5, 41642, Note_on_c, 3, 64, 91
5, 41642, Note_on_c, 3, 57, 89
5, 41700, Note_on_c, 3, 57, 0
5, 41700, Note_on_c, 3, 64, 0
5, 41700, Note_on_c, 3, 62, 91
5, 41702, Note_on_c, 3, 67, 93
5, 41820, Note_on_c, 3, 67, 0
5, 41820, Note_on_c, 3, 62, 0
5, 41820, Note_on_c, 3, 67, 90
5, 41821, Note_on_c, 3, 62, 91
5, 41880, Note_on_c, 3, 62, 0
5, 41881, Note_on_c, 3, 67, 0
5, 41882, Note_on_c, 3, 62, 89
5, 41882, Note_on_c, 3, 67, 90
5, 41936, Note_on_c, 3, 67, 0
5, 41936, Note_on_c, 3, 62, 0
5, 41941, Note_on_c, 3, 67, 92
5, 41942, Note_on_c, 3, 62, 91
5, 42000, Note_on_c, 3, 67, 0
5, 42001, Note_on_c, 3, 62, 0
5, 42001, Note_on_c, 3, 62, 92
5, 42002, Note_on_c, 3, 67, 88
5, 42060, Note_on_c, 3, 67, 0
5, 42061, Note_on_c, 3, 62, 0
5, 42062, Note_on_c, 3, 67, 87
5, 42062, Note_on_c, 3, 62, 88
5, 42120, Note_on_c, 3, 62, 0
5, 42121, Note_on_c, 3, 67, 0
5, 42122, Note_on_c, 3, 62, 90
5, 42122, Note_on_c, 3, 67, 91
5, 42181, Note_on_c, 3, 67, 0
5, 42182, Note_on_c, 3, 62, 0
5, 42182, Note_on_c, 3, 67, 87
5, 42183, Note_on_c, 3, 62, 93
5, 42240, Note_on_c, 3, 62, 0
5, 42240, Note_on_c, 3, 67, 0
5, 42240, Note_on_c, 3, 62, 91
5, 42242, Note_on_c, 3, 67, 88
5, 42300, Note_on_c, 3, 67, 0
5, 42300, Note_on_c, 3, 62, 0
5, 42301, Note_on_c, 3, 67, 89
5, 42302, Note_on_c, 3, 62, 93
5, 42361, Note_on_c, 3, 62, 0
5, 42361, Note_on_c, 3, 67, 0
5, 42362, Note_on_c, 3, 62, 93
5, 42362, Note_on_c, 3, 67, 92
5, 42415, Note_on_c, 3, 67, 0
5, 42416, Note_on_c, 3, 62, 0
5, 42420, Note_on_c, 3, 67, 92
5, 42422, Note_on_c, 3, 62, 92
5, 42481, Note_on_c, 3, 62, 0
5, 42481, Note_on_c, 3, 67, 0
5, 42482, Note_on_c, 3, 62, 88
5, 42482, Note_on_c, 3, 67, 90
5, 42540, Note_on_c, 3, 67, 0
5, 42541, Note_on_c, 3, 62, 0
5, 42541, Note_on_c, 3, 67, 88
5, 42541, Note_on_c, 3, 62, 92
5, 42601, Note_on_c, 3, 62, 0
5, 42601, Note_on_c, 3, 67, 0
5, 42602, Note_on_c, 3, 62, 87
5, 42660, Note_on_c, 3, 62, 0
5, 42661, Note_on_c, 3, 57, 92
5, 42661, Note_on_c, 3, 64, 87
5, 42780, Note_on_c, 3, 64, 0
5, 42780, Note_on_c, 3, 57, 0
5, 42781, Note_on_c, 3, 64, 88
5, 42782, Note_on_c, 3, 57, 87
5, 42835, Note_on_c, 3, 57, 0
5, 42836, Note_on_c, 3, 64, 0
5, 42840, Note_on_c, 3, 57, 91
5, 42841, Note_on_c, 3, 62, 92
5, 42842, Note_on_c, 3, 64, 88
5, 42895, Note_on_c, 3, 64, 0
5, 42896, Note_on_c, 3, 62, 0
5, 42896, Note_on_c, 3, 57, 0
5, 42900, Note_on_c, 3, 64, 93
5, 42902, Note_on_c, 3, 62, 89
5, 42903, Note_on_c, 3, 57, 88
5, 42961, Note_on_c, 3, 57, 0
5, 42961, Note_on_c, 3, 62, 0
5, 42961, Note_on_c, 3, 64, 0
5, 42962, Note_on_c, 3, 57, 89
5, 42962, Note_on_c, 3, 62, 87
5, 42962, Note_on_c, 3, 64, 90
5, 43021, Note_on_c, 3, 64, 0
5, 43021, Note_on_c, 3, 62, 0
5, 43022, Note_on_c, 3, 57, 0
5, 43023, Note_on_c, 3, 64, 89
5, 43023, Note_on_c, 3, 62, 91
5, 43024, Note_on_c, 3, 57, 91
5, 43080, Note_on_c, 3, 57, 0
5, 43081, Note_on_c, 3, 62, 0
5, 43081, Note_on_c, 3, 64, 0
5, 43082, Note_on_c, 3, 57, 92
5, 43082, Note_on_c, 3, 62, 93
5, 43083, Note_on_c, 3, 64, 93
5, 43140, Note_on_c, 3, 64, 0
5, 43140, Note_on_c, 3, 62, 0
5, 43141, Note_on_c, 3, 57, 0
5, 43142, Note_on_c, 3, 66, 72
5, 43142, Note_on_c, 3, 59, 87
5, 43200, Note_on_c, 3, 59, 92
5, 43202, Note_on_c, 3, 66, 91
5, 43261, Note_on_c, 3, 66, 0
5, 43262, Note_on_c, 3, 59, 0
5, 43262, Note_on_c, 3, 59, 0
5, 43262, Note_on_c, 3, 66, 0
5, 43263, Note_on_c, 3, 66, 90
5, 43264, Note_on_c, 3, 59, 89
5, 43321, Note_on_c, 3, 59, 0
5, 43321, Note_on_c, 3, 66, 0
5, 43322, Note_on_c, 3, 59, 87
5, 43322, Note_on_c, 3, 66, 93
5, 43375, Note_on_c, 3, 66, 0
5, 43376, Note_on_c, 3, 59, 0
5, 43380, Note_on_c, 3, 66, 88
5, 43382, Note_on_c, 3, 59, 91
5, 43441, Note_on_c, 3, 59, 0
5, 43441, Note_on_c, 3, 66, 0
5, 43442, Note_on_c, 3, 59, 91
5, 43442, Note_on_c, 3, 66, 91
5, 43501, Note_on_c, 3, 66, 0
5, 43501, Note_on_c, 3, 59, 0
5, 43502, Note_on_c, 3, 66, 89
5, 43502, Note_on_c, 3, 59, 87
5, 43560, Note_on_c, 3, 59, 0
5, 43561, Note_on_c, 3, 66, 0
5, 43561, Note_on_c, 3, 57, 88
5, 43621, Note_on_c, 3, 57, 0
5, 43622, Note_on_c, 3, 62, 90
5, 43622, Note_on_c, 3, 67, 87
5, 43741, Note_on_c, 3, 67, 0
5, 43742, Note_on_c, 3, 62, 0
5, 43742, Note_on_c, 3, 67, 90
5, 43743, Note_on_c, 3, 62, 87
5, 43800, Note_on_c, 3, 67, 0
5, 43801, Note_on_c, 3, 62, 0
5, 43801, Note_on_c, 3, 62, 93
5, 43801, Note_on_c, 3, 67, 87
5, 43856, Note_on_c, 3, 67, 0
5, 43856, Note_on_c, 3, 62, 0
5, 43861, Note_on_c, 3, 67, 93
5, 43862, Note_on_c, 3, 62, 87
5, 43921, Note_on_c, 3, 62, 0
5, 43921, Note_on_c, 3, 67, 0
5, 43922, Note_on_c, 3, 62, 89
5, 43923, Note_on_c, 3, 67, 89
5, 43981, Note_on_c, 3, 67, 0
5, 43981, Note_on_c, 3, 62, 0
5, 43982, Note_on_c, 3, 67, 93
5, 43982, Note_on_c, 3, 62, 92
5, 44040, Note_on_c, 3, 62, 0
5, 44041, Note_on_c, 3, 67, 0
5, 44042, Note_on_c, 3, 62, 93
5, 44042, Note_on_c, 3, 67, 93
5, 44100, Note_on_c, 3, 67, 0
5, 44101, Note_on_c, 3, 62, 0
5, 44101, Note_on_c, 3, 67, 88
5, 44102, Note_on_c, 3, 62, 89
5, 44161, Note_on_c, 3, 62, 0
5, 44161, Note_on_c, 3, 67, 0
5, 44162, Note_on_c, 3, 62, 92
5, 44162, Note_on_c, 3, 67, 93
5, 44221, Note_on_c, 3, 67, 0
5, 44221, Note_on_c, 3, 62, 0
5, 44222, Note_on_c, 3, 67, 89
5, 44223, Note_on_c, 3, 62, 87
5, 44281, Note_on_c, 3, 62, 0
5, 44281, Note_on_c, 3, 67, 0
5, 44282, Note_on_c, 3, 62, 92
5, 44282, Note_on_c, 3, 67, 90
5, 44335, Note_on_c, 3, 67, 0
5, 44336, Note_on_c, 3, 62, 0
5, 44341, Note_on_c, 3, 67, 92
5, 44342, Note_on_c, 3, 62, 89
5, 44401, Note_on_c, 3, 62, 0
5, 44401, Note_on_c, 3, 67, 0
5, 44402, Note_on_c, 3, 62, 91
5, 44402, Note_on_c, 3, 67, 91
5, 44461, Note_on_c, 3, 67, 0
5, 44462, Note_on_c, 3, 62, 0
5, 44462, Note_on_c, 3, 67, 90
5, 44462, Note_on_c, 3, 62, 87
5, 44521, Note_on_c, 3, 62, 0
5, 44521, Note_on_c, 3, 67, 0
5, 44522, Note_on_c, 3, 62, 89
5, 44580, Note_on_c, 3, 62, 0
5, 44581, Note_on_c, 3, 58, 88
5, 44581, Note_on_c, 3, 61, 93
5, 44700, Note_on_c, 3, 61, 0
5, 44700, Note_on_c, 3, 58, 0
5, 44701, Note_on_c, 3, 66, 87
5, 44701, Note_on_c, 3, 58, 91
5, 44755, Note_on_c, 3, 58, 0
5, 44756, Note_on_c, 3, 66, 0
5, 44761, Note_on_c, 3, 57, 88
5, 44761, Note_on_c, 3, 62, 89
5, 44763, Note_on_c, 3, 64, 90
5, 44815, Note_on_c, 3, 64, 0
5, 44816, Note_on_c, 3, 62, 0
5, 44817, Note_on_c, 3, 57, 0
5, 44821, Note_on_c, 3, 64, 89
5, 44822, Note_on_c, 3, 62, 91
5, 44822, Note_on_c, 3, 57, 91
5, 44880, Note_on_c, 3, 57, 0
5, 44880, Note_on_c, 3, 62, 0
5, 44881, Note_on_c, 3, 64, 0
5, 44882, Note_on_c, 3, 57, 88
5, 44882, Note_on_c, 3, 62, 88
5, 44882, Note_on_c, 3, 64, 89
5, 44941, Note_on_c, 3, 64, 0
5, 44942, Note_on_c, 3, 62, 0
5, 44942, Note_on_c, 3, 57, 0
5, 44943, Note_on_c, 3, 64, 89
5, 44943, Note_on_c, 3, 62, 92
5, 44944, Note_on_c, 3, 57, 93
5, 45000, Note_on_c, 3, 62, 0
5, 45001, Note_on_c, 3, 57, 0
5, 45001, Note_on_c, 3, 64, 0
5, 45001, Note_on_c, 3, 57, 88
5, 45002, Note_on_c, 3, 62, 88
5, 45003, Note_on_c, 3, 64, 88
5, 45060, Note_on_c, 3, 64, 0
5, 45061, Note_on_c, 3, 62, 0
5, 45061, Note_on_c, 3, 57, 0
5, 45062, Note_on_c, 3, 66, 87
5, 45062, Note_on_c, 3, 59, 89
5, 45180, Note_on_c, 3, 59, 0
5, 45181, Note_on_c, 3, 66, 0
5, 45182, Note_on_c, 3, 59, 87
5, 45182, Note_on_c, 3, 66, 87
5, 45240, Note_on_c, 3, 66, 0
5, 45241, Note_on_c, 3, 59, 0
5, 45241, Note_on_c, 3, 64, 89
5, 45242, Note_on_c, 3, 59, 93
5, 45296, Note_on_c, 3, 59, 0
5, 45296, Note_on_c, 3, 64, 0
5, 45301, Note_on_c, 3, 59, 91
5, 45302, Note_on_c, 3, 64, 93
5, 45361, Note_on_c, 3, 64, 0
5, 45361, Note_on_c, 3, 59, 0
5, 45361, Note_on_c, 3, 64, 90
5, 45362, Note_on_c, 3, 59, 90
5, 45421, Note_on_c, 3, 59, 0
5, 45422, Note_on_c, 3, 64, 0
5, 45422, Note_on_c, 3, 59, 92
5, 45423, Note_on_c, 3, 64, 90
5, 45481, Note_on_c, 3, 64, 0
5, 45481, Note_on_c, 3, 59, 0
5, 45482, Note_on_c, 3, 64, 87
5, 45482, Note_on_c, 3, 57, 89
5, 45540, Note_on_c, 3, 57, 0
5, 45541, Note_on_c, 3, 64, 0
5, 45542, Note_on_c, 3, 62, 93
5, 45542, Note_on_c, 3, 67, 87
5, 45660, Note_on_c, 3, 67, 0
5, 45660, Note_on_c, 3, 62, 0
5, 45660, Note_on_c, 3, 67, 92
5, 45662, Note_on_c, 3, 62, 90
5, 45720, Note_on_c, 3, 67, 0
5, 45721, Note_on_c, 3, 62, 0
5, 45721, Note_on_c, 3, 62, 91
5, 45721, Note_on_c, 3, 67, 89
5, 45776, Note_on_c, 3, 67, 0
5, 45776, Note_on_c, 3, 62, 0
5, 45780, Note_on_c, 3, 67, 88
5, 45782, Note_on_c, 3, 62, 92
5, 45841, Note_on_c, 3, 62, 0
5, 45841, Note_on_c, 3, 67, 0
5, 45841, Note_on_c, 3, 62, 89
5, 45842, Note_on_c, 3, 67, 89
5, 45900, Note_on_c, 3, 67, 0
5, 45900, Note_on_c, 3, 62, 0
5, 45901, Note_on_c, 3, 67, 89
5, 45902, Note_on_c, 3, 62, 92
5, 45960, Note_on_c, 3, 62, 0
5, 45960, Note_on_c, 3, 67, 0
5, 45961, Note_on_c, 3, 62, 92
5, 45961, Note_on_c, 3, 67, 93
5, 46021, Note_on_c, 3, 67, 0
5, 46022, Note_on_c, 3, 62, 0
5, 46022, Note_on_c, 3, 67, 91
5, 46023, Note_on_c, 3, 62, 91
5, 46080, Note_on_c, 3, 62, 0
5, 46081, Note_on_c, 3, 67, 0
5, 46081, Note_on_c, 3, 62, 89
5, 46082, Note_on_c, 3, 67, 93
5, 46141, Note_on_c, 3, 67, 0
5, 46141, Note_on_c, 3, 62, 0
5, 46141, Note_on_c, 3, 67, 91
5, 46142, Note_on_c, 3, 62, 90
5, 46200, Note_on_c, 3, 62, 0
5, 46200, Note_on_c, 3, 67, 0
5, 46201, Note_on_c, 3, 62, 90
5, 46202, Note_on_c, 3, 67, 92
5, 46256, Note_on_c, 3, 67, 0
5, 46256, Note_on_c, 3, 62, 0
5, 46261, Note_on_c, 3, 67, 90
5, 46262, Note_on_c, 3, 62, 88
5, 46320, Note_on_c, 3, 62, 0
5, 46321, Note_on_c, 3, 67, 0
5, 46322, Note_on_c, 3, 62, 93
5, 46322, Note_on_c, 3, 67, 91
5, 46380, Note_on_c, 3, 67, 0
5, 46380, Note_on_c, 3, 62, 0
5, 46381, Note_on_c, 3, 67, 89
5, 46382, Note_on_c, 3, 62, 89
5, 46441, Note_on_c, 3, 62, 0
5, 46442, Note_on_c, 3, 67, 0
5, 46442, Note_on_c, 3, 62, 89
5, 46500, Note_on_c, 3, 62, 0
5, 46501, Note_on_c, 3, 57, 89
5, 46502, Note_on_c, 3, 64, 91
5, 46621, Note_on_c, 3, 64, 0
5, 46621, Note_on_c, 3, 57, 0
5, 46622, Note_on_c, 3, 64, 91
5, 46622, Note_on_c, 3, 57, 92
5, 46675, Note_on_c, 3, 57, 0
5, 46676, Note_on_c, 3, 64, 0
5, 46680, Note_on_c, 3, 57, 87
5, 46682, Note_on_c, 3, 62, 92
5, 46683, Note_on_c, 3, 64, 90
5, 46735, Note_on_c, 3, 64, 0
5, 46736, Note_on_c, 3, 62, 0
5, 46736, Note_on_c, 3, 57, 0
5, 46741, Note_on_c, 3, 64, 87
5, 46742, Note_on_c, 3, 62, 92
5, 46743, Note_on_c, 3, 57, 89
5, 46801, Note_on_c, 3, 57, 0
5, 46801, Note_on_c, 3, 62, 0
5, 46801, Note_on_c, 3, 64, 0
5, 46802, Note_on_c, 3, 57, 93
5, 46803, Note_on_c, 3, 62, 93
5, 46803, Note_on_c, 3, 64, 92
5, 46860, Note_on_c, 3, 64, 0
5, 46860, Note_on_c, 3, 62, 0
5, 46861, Note_on_c, 3, 57, 0
5, 46862, Note_on_c, 3, 64, 89
5, 46862, Note_on_c, 3, 62, 92
5, 46862, Note_on_c, 3, 57, 89
5, 46920, Note_on_c, 3, 57, 0
5, 46920, Note_on_c, 3, 62, 0
5, 46921, Note_on_c, 3, 64, 0
5, 46921, Note_on_c, 3, 57, 88
5, 46921, Note_on_c, 3, 62, 87
5, 46923, Note_on_c, 3, 64, 91
5, 46981, Note_on_c, 3, 64, 0
5, 46981, Note_on_c, 3, 62, 0
5, 46981, Note_on_c, 3, 57, 0
5, 46982, Note_on_c, 3, 66, 73
5, 46983, Note_on_c, 3, 59, 89
5, 47041, Note_on_c, 3, 59, 88
5, 47042, Note_on_c, 3, 66, 87
5, 47101, Note_on_c, 3, 66, 0
5, 47101, Note_on_c, 3, 66, 0
5, 47102, Note_on_c, 3, 59, 0
5, 47103, Note_on_c, 3, 59, 0
5, 47103, Note_on_c, 3, 66, 92
5, 47104, Note_on_c, 3, 59, 90
5, 47161, Note_on_c, 3, 59, 0
5, 47161, Note_on_c, 3, 66, 0
5, 47162, Note_on_c, 3, 59, 89
5, 47163, Note_on_c, 3, 66, 90
5, 47216, Note_on_c, 3, 66, 0
5, 47216, Note_on_c, 3, 59, 0
5, 47220, Note_on_c, 3, 66, 91
5, 47222, Note_on_c, 3, 59, 93
5, 47281, Note_on_c, 3, 59, 0
5, 47281, Note_on_c, 3, 66, 0
5, 47282, Note_on_c, 3, 59, 89
5, 47282, Note_on_c, 3, 66, 92
5, 47340, Note_on_c, 3, 66, 0
5, 47340, Note_on_c, 3, 59, 0
5, 47341, Note_on_c, 3, 66, 92
5, 47342, Note_on_c, 3, 59, 91
5, 47400, Note_on_c, 3, 59, 0
5, 47400, Note_on_c, 3, 66, 0
5, 47401, Note_on_c, 3, 57, 90
5, 47461, Note_on_c, 3, 57, 0
5, 47461, Note_on_c, 3, 62, 93
5, 47461, Note_on_c, 3, 67, 93
5, 47580, Note_on_c, 3, 67, 0
5, 47580, Note_on_c, 3, 62, 0
5, 47581, Note_on_c, 3, 67, 91
5, 47582, Note_on_c, 3, 62, 92
5, 47640, Note_on_c, 3, 62, 0
5, 47641, Note_on_c, 3, 67, 0
5, 47641, Note_on_c, 3, 62, 90
5, 47642, Note_on_c, 3, 67, 90
5, 47695, Note_on_c, 3, 67, 0
5, 47695, Note_on_c, 3, 62, 0
5, 47701, Note_on_c, 3, 67, 89
5, 47702, Note_on_c, 3, 62, 88
5, 47760, Note_on_c, 3, 62, 0
5, 47760, Note_on_c, 3, 67, 0
5, 47761, Note_on_c, 3, 62, 92
5, 47762, Note_on_c, 3, 67, 92
5, 47821, Note_on_c, 3, 67, 0
5, 47821, Note_on_c, 3, 62, 0
5, 47822, Note_on_c, 3, 67, 91
5, 47823, Note_on_c, 3, 62, 90
5, 47881, Note_on_c, 3, 62, 0
5, 47881, Note_on_c, 3, 67, 0
5, 47882, Note_on_c, 3, 62, 87
5, 47882, Note_on_c, 3, 67, 87
5, 47940, Note_on_c, 3, 67, 0
5, 47941, Note_on_c, 3, 62, 0
5, 47941, Note_on_c, 3, 67, 93
5, 47941, Note_on_c, 3, 62, 91
5, 48000, Note_on_c, 3, 62, 0
5, 48001, Note_on_c, 3, 67, 0
5, 48002, Note_on_c, 3, 62, 89
5, 48002, Note_on_c, 3, 67, 87
5, 48060, Note_on_c, 3, 67, 0
5, 48061, Note_on_c, 3, 62, 0
5, 48061, Note_on_c, 3, 67, 88
5, 48062, Note_on_c, 3, 62, 92
5, 48120, Note_on_c, 3, 62, 0
5, 48120, Note_on_c, 3, 67, 0
5, 48121, Note_on_c, 3, 62, 87
5, 48121, Note_on_c, 3, 67, 93
5, 48175, Note_on_c, 3, 67, 0
5, 48176, Note_on_c, 3, 62, 0
5, 48181, Note_on_c, 3, 67, 91
5, 48181, Note_on_c, 3, 62, 92
5, 48240, Note_on_c, 3, 62, 0
5, 48240, Note_on_c, 3, 67, 0
5, 48241, Note_on_c, 3, 62, 90
5, 48241, Note_on_c, 3, 67, 91
5, 48300, Note_on_c, 3, 67, 0
5, 48301, Note_on_c, 3, 62, 0
5, 48301, Note_on_c, 3, 67, 90
5, 48301, Note_on_c, 3, 62, 92
5, 48361, Note_on_c, 3, 62, 0
5, 48361, Note_on_c, 3, 67, 0
5, 48362, Note_on_c, 3, 62, 89
5, 48420, Note_on_c, 3, 62, 0
5, 48421, Note_on_c, 3, 57, 90
5, 48421, Note_on_c, 3, 62, 87
5, 48422, Note_on_c, 3, 64, 92
5, 48541, Note_on_c, 3, 64, 0
5, 48541, Note_on_c, 3, 62, 0
5, 48542, Note_on_c, 3, 57, 0
5, 48542, Note_on_c, 3, 64, 93
5, 48542, Note_on_c, 3, 57, 91
5, 48595, Note_on_c, 3, 57, 0
5, 48595, Note_on_c, 3, 64, 0
5, 48601, Note_on_c, 3, 57, 92
5, 48601, Note_on_c, 3, 62, 88
5, 48603, Note_on_c, 3, 64, 91
5, 48656, Note_on_c, 3, 64, 0
5, 48656, Note_on_c, 3, 62, 0
5, 48657, Note_on_c, 3, 57, 0
5, 48661, Note_on_c, 3, 64, 88
5, 48661, Note_on_c, 3, 62, 91
5, 48663, Note_on_c, 3, 57, 87
5, 48721, Note_on_c, 3, 57, 0
5, 48721, Note_on_c, 3, 62, 0
5, 48722, Note_on_c, 3, 64, 0
5, 48723, Note_on_c, 3, 57, 92
5, 48723, Note_on_c, 3, 62, 87
5, 48724, Note_on_c, 3, 64, 93
5, 48780, Note_on_c, 3, 64, 0
5, 48780, Note_on_c, 3, 62, 0
5, 48781, Note_on_c, 3, 57, 0
5, 48781, Note_on_c, 3, 64, 90
5, 48782, Note_on_c, 3, 62, 93
5, 48782, Note_on_c, 3, 57, 87
5, 48840, Note_on_c, 3, 57, 0
5, 48841, Note_on_c, 3, 62, 0
5, 48841, Note_on_c, 3, 64, 0
5, 48842, Note_on_c, 3, 57, 88
5, 48843, Note_on_c, 3, 62, 93
5, 48843, Note_on_c, 3, 64, 88
5, 48901, Note_on_c, 3, 64, 0
5, 48902, Note_on_c, 3, 62, 0
5, 48902, Note_on_c, 3, 57, 0
5, 48903, Note_on_c, 3, 66, 93
5, 48903, Note_on_c, 3, 59, 89
5, 49021, Note_on_c, 3, 59, 0
5, 49022, Note_on_c, 3, 66, 0
5, 49022, Note_on_c, 3, 59, 92
5, 49023, Note_on_c, 3, 66, 90
5, 49081, Note_on_c, 3, 66, 0
5, 49081, Note_on_c, 3, 59, 0
5, 49082, Note_on_c, 3, 64, 88
5, 49082, Note_on_c, 3, 59, 91
5, 49136, Note_on_c, 3, 59, 0
5, 49136, Note_on_c, 3, 64, 0
5, 49140, Note_on_c, 3, 59, 87
5, 49142, Note_on_c, 3, 64, 88
5, 49201, Note_on_c, 3, 64, 0
5, 49201, Note_on_c, 3, 59, 0
5, 49202, Note_on_c, 3, 64, 92
5, 49202, Note_on_c, 3, 59, 93
5, 49260, Note_on_c, 3, 59, 0
5, 49261, Note_on_c, 3, 64, 0
5, 49262, Note_on_c, 3, 59, 93
5, 49262, Note_on_c, 3, 64, 90
5, 49320, Note_on_c, 3, 64, 0
5, 49321, Note_on_c, 3, 59, 0
5, 49322, Note_on_c, 3, 64, 93
5, 49322, Note_on_c, 3, 57, 89
5, 49381, Note_on_c, 3, 57, 0
5, 49381, Note_on_c, 3, 64, 0
5, 49381, Note_on_c, 3, 62, 90
5, 49382, Note_on_c, 3, 67, 88
5, 49500, Note_on_c, 3, 67, 0
5, 49501, Note_on_c, 3, 62, 0
5, 49502, Note_on_c, 3, 67, 88
5, 49502, Note_on_c, 3, 62, 87
5, 49561, Note_on_c, 3, 62, 0
5, 49562, Note_on_c, 3, 67, 0
5, 49562, Note_on_c, 3, 62, 93
5, 49563, Note_on_c, 3, 67, 89
5, 49615, Note_on_c, 3, 67, 0
5, 49615, Note_on_c, 3, 62, 0
5, 49620, Note_on_c, 3, 67, 90
5, 49622, Note_on_c, 3, 62, 89
5, 49681, Note_on_c, 3, 62, 0
5, 49681, Note_on_c, 3, 67, 0
5, 49682, Note_on_c, 3, 62, 89
5, 49682, Note_on_c, 3, 67, 90
5, 49740, Note_on_c, 3, 67, 0
5, 49740, Note_on_c, 3, 62, 0
5, 49741, Note_on_c, 3, 67, 92
5, 49742, Note_on_c, 3, 62, 91
5, 49800, Note_on_c, 3, 62, 0
5, 49800, Note_on_c, 3, 67, 0
5, 49800, Note_on_c, 3, 62, 89
5, 49802, Note_on_c, 3, 67, 87
5, 49861, Note_on_c, 3, 67, 0
5, 49861, Note_on_c, 3, 62, 0
5, 49862, Note_on_c, 3, 67, 90
5, 49862, Note_on_c, 3, 62, 90
5, 49920, Note_on_c, 3, 62, 0
5, 49920, Note_on_c, 3, 67, 0
5, 49920, Note_on_c, 3, 62, 93
5, 49921, Note_on_c, 3, 67, 93
5, 49981, Note_on_c, 3, 67, 0
5, 49981, Note_on_c, 3, 62, 0
5, 49982, Note_on_c, 3, 67, 87
5, 49983, Note_on_c, 3, 62, 93
5, 50041, Note_on_c, 3, 62, 0
5, 50041, Note_on_c, 3, 67, 0
5, 50042, Note_on_c, 3, 62, 90
5, 50042, Note_on_c, 3, 67, 88
5, 50095, Note_on_c, 3, 67, 0
5, 50096, Note_on_c, 3, 62, 0
5, 50101, Note_on_c, 3, 67, 90
5, 50102, Note_on_c, 3, 62, 88
5, 50161, Note_on_c, 3, 62, 0
5, 50161, Note_on_c, 3, 67, 0
5, 50161, Note_on_c, 3, 62, 89
5, 50161, Note_on_c, 3, 67, 90
5, 50220, Note_on_c, 3, 67, 0
5, 50220, Note_on_c, 3, 62, 0
5, 50221, Note_on_c, 3, 67, 93
5, 50222, Note_on_c, 3, 62, 90
5, 50280, Note_on_c, 3, 62, 0
5, 50280, Note_on_c, 3, 67, 0
5, 50281, Note_on_c, 3, 62, 89
5, 50340, Note_on_c, 3, 62, 0
5, 50341, Note_on_c, 3, 57, 92
5, 50341, Note_on_c, 3, 64, 91
5, 50460, Note_on_c, 3, 64, 0
5, 50460, Note_on_c, 3, 57, 0
5, 50461, Note_on_c, 3, 64, 90
5, 50461, Note_on_c, 3, 57, 91
5, 50515, Note_on_c, 3, 57, 0
5, 50516, Note_on_c, 3, 64, 0
5, 50521, Note_on_c, 3, 57, 91
5, 50521, Note_on_c, 3, 64, 87
5, 50575, Note_on_c, 3, 64, 0
5, 50576, Note_on_c, 3, 57, 0
5, 50576, End_track
6, 0, Start_track
6, 0, MIDI_port, 0
6, 0, Control_c, 4, 0, 0
6, 0, Control_c, 4, 32, 0
6, 0, Program_c, 4, 66
6, 0, Control_c, 4, 7, 120
6, 0, Control_c, 4, 10, 64
6, 2, Control_c, 4, 1, 0
6, 4, Control_c, 4, 2, 0
6, 120, Control_c, 4, 11, 100
6, 120, Control_c, 4, 0, 0
6, 124, Control_c, 4, 101, 0
6, 124, Control_c, 4, 100, 0
6, 124, Control_c, 4, 6, 2
6, 124, Control_c, 4, 38, 0
6, 240, Control_c, 4, 120, 0
6, 243, Control_c, 4, 121, 0
6, 246, Control_c, 4, 123, 0
6, 255, Control_c, 4, 91, 90
6, 258, Control_c, 4, 93, 33
6, 6240, Pitch_bend_c, 4, 8192
6, 6300, Note_on_c, 4, 57, 118
6, 6355, Note_on_c, 4, 57, 0
6, 6360, Note_on_c, 4, 59, 118
6, 6415, Note_on_c, 4, 59, 0
6, 6419, Note_on_c, 4, 57, 114
6, 6446, Note_on_c, 4, 57, 0
6, 6450, Note_on_c, 4, 58, 115
6, 6535, Note_on_c, 4, 58, 0
6, 6539, Note_on_c, 4, 58, 115
6, 6595, Note_on_c, 4, 58, 0
6, 6600, Note_on_c, 4, 59, 114
6, 6655, Note_on_c, 4, 59, 0
6, 6660, Note_on_c, 4, 56, 114
6, 6688, Note_on_c, 4, 56, 0
6, 6690, Note_on_c, 4, 58, 118
6, 6744, Note_on_c, 4, 58, 0
6, 6780, Note_on_c, 4, 58, 117
6, 6835, Note_on_c, 4, 58, 0
6, 6840, Note_on_c, 4, 59, 117
6, 6895, Note_on_c, 4, 59, 0
6, 6900, Note_on_c, 4, 58, 114
6, 6954, Note_on_c, 4, 58, 0
6, 6960, Note_on_c, 4, 59, 115
6, 7015, Note_on_c, 4, 59, 0
6, 7020, Note_on_c, 4, 57, 115
6, 7050, Pitch_bend_c, 4, 12192
6, 7105, Note_on_c, 4, 57, 0
6, 7200, Pitch_bend_c, 4, 8192
6, 7260, Note_on_c, 4, 58, 115
6, 7314, Note_on_c, 4, 58, 0
6, 7320, Note_on_c, 4, 58, 115
6, 7375, Note_on_c, 4, 58, 0
6, 7379, Note_on_c, 4, 58, 112
6, 7406, Note_on_c, 4, 58, 0
6, 7410, Note_on_c, 4, 58, 115
6, 7494, Note_on_c, 4, 58, 0
6, 7499, Note_on_c, 4, 58, 117
6, 7555, Note_on_c, 4, 58, 0
6, 7560, Note_on_c, 4, 59, 118
6, 7614, Note_on_c, 4, 59, 0
6, 7620, Note_on_c, 4, 57, 115
6, 7679, Note_on_c, 4, 57, 0
6, 7679, Note_on_c, 4, 58, 118
6, 7754, Note_on_c, 4, 58, 0
6, 8159, Pitch_bend_c, 4, 8192
6, 8219, Note_on_c, 4, 58, 117
6, 8274, Note_on_c, 4, 58, 0
6, 8279, Note_on_c, 4, 58, 112
6, 8334, Note_on_c, 4, 58, 0
6, 8340, Note_on_c, 4, 58, 112
6, 8366, Note_on_c, 4, 58, 0
6, 8369, Note_on_c, 4, 58, 114
6, 8455, Note_on_c, 4, 58, 0
6, 8459, Note_on_c, 4, 58, 115
6, 8514, Note_on_c, 4, 58, 0
6, 8520, Note_on_c, 4, 59, 118
6, 8575, Note_on_c, 4, 59, 0
6, 8579, Note_on_c, 4, 57, 115
6, 8608, Note_on_c, 4, 57, 0
6, 8610, Note_on_c, 4, 58, 114
6, 8665, Note_on_c, 4, 58, 0
6, 8700, Note_on_c, 4, 58, 112
6, 8754, Note_on_c, 4, 58, 0
6, 8759, Note_on_c, 4, 59, 118
6, 8814, Note_on_c, 4, 59, 0
6, 8819, Note_on_c, 4, 58, 117
6, 8874, Note_on_c, 4, 58, 0
6, 8879, Note_on_c, 4, 61, 117
6, 8934, Note_on_c, 4, 61, 0
6, 8939, Note_on_c, 4, 57, 114
6, 8969, Pitch_bend_c, 4, 12192
6, 9024, Note_on_c, 4, 57, 0
6, 9120, Pitch_bend_c, 4, 8192
6, 9180, Note_on_c, 4, 58, 112
6, 9234, Note_on_c, 4, 58, 0
6, 9240, Note_on_c, 4, 58, 117
6, 9295, Note_on_c, 4, 58, 0
6, 9300, Note_on_c, 4, 58, 116
6, 9326, Note_on_c, 4, 58, 0
6, 9329, Note_on_c, 4, 58, 114
6, 9414, Note_on_c, 4, 58, 0
6, 9419, Note_on_c, 4, 58, 115
6, 9474, Note_on_c, 4, 58, 0
6, 9480, Note_on_c, 4, 59, 114
6, 9535, Note_on_c, 4, 59, 0
6, 9540, Note_on_c, 4, 56, 116
6, 9659, Note_on_c, 4, 56, 0
6, 9660, Note_on_c, 4, 58, 118
6, 9764, Note_on_c, 4, 58, 0
6, 10199, Note_on_c, 4, 69, 116
6, 10255, Note_on_c, 4, 69, 0
6, 10259, Note_on_c, 4, 66, 117
6, 10314, Note_on_c, 4, 66, 0
6, 10320, Note_on_c, 4, 69, 112
6, 10379, Note_on_c, 4, 69, 0
6, 10380, Note_on_c, 4, 66, 117
6, 10439, Note_on_c, 4, 66, 0
6, 10440, Note_on_c, 4, 69, 115
6, 10499, Note_on_c, 4, 69, 0
6, 10500, Note_on_c, 4, 64, 116
6, 10520, Pitch_bend_c, 4, 16383
6, 10620, Note_on_c, 4, 64, 0
6, 10621, Pitch_bend_c, 4, 8192
6, 10621, Note_on_c, 4, 64, 112
6, 10740, Note_on_c, 4, 64, 0
6, 11160, Note_on_c, 4, 69, 117
6, 11215, Note_on_c, 4, 69, 0
6, 11220, Note_on_c, 4, 66, 117
6, 11274, Note_on_c, 4, 66, 0
6, 11280, Note_on_c, 4, 69, 114
6, 11339, Note_on_c, 4, 69, 0
6, 11340, Note_on_c, 4, 66, 112
6, 11399, Note_on_c, 4, 66, 0
6, 11400, Note_on_c, 4, 69, 115
6, 11459, Note_on_c, 4, 69, 0
6, 11459, Note_on_c, 4, 64, 117
6, 11479, Pitch_bend_c, 4, 16383
6, 11519, Pitch_bend_c, 4, 8192
6, 11639, Note_on_c, 4, 64, 0
6, 11640, Note_on_c, 4, 66, 116
6, 11699, Note_on_c, 4, 66, 0
6, 12059, Note_on_c, 4, 54, 116
6, 12114, Note_on_c, 4, 54, 0
6, 12119, Note_on_c, 4, 57, 112
6, 12174, Note_on_c, 4, 57, 0
6, 12180, Note_on_c, 4, 54, 115
6, 12239, Note_on_c, 4, 54, 0
6, 12240, Note_on_c, 4, 61, 116
6, 12300, Note_on_c, 4, 61, 0
6, 12300, Note_on_c, 4, 54, 115
6, 12390, Note_on_c, 4, 54, 0
6, 12540, Note_on_c, 4, 54, 115
6, 12594, Note_on_c, 4, 54, 0
6, 12600, Note_on_c, 4, 57, 115
6, 12655, Note_on_c, 4, 57, 0
6, 12659, Note_on_c, 4, 54, 112
6, 12719, Note_on_c, 4, 54, 0
6, 12720, Note_on_c, 4, 61, 112
6, 12780, Note_on_c, 4, 61, 0
6, 12781, Note_on_c, 4, 59, 116
6, 12839, Note_on_c, 4, 59, 0
6, 12840, Note_on_c, 4, 57, 114
6, 12899, Note_on_c, 4, 57, 0
6, 12899, Note_on_c, 4, 61, 118
6, 12960, Pitch_bend_c, 4, 12192
6, 12990, Pitch_bend_c, 4, 8192
6, 13019, Note_on_c, 4, 61, 0
6, 13020, Note_on_c, 4, 59, 116
6, 13380, Note_on_c, 4, 59, 0
6, 13381, Note_on_c, 4, 61, 116
6, 13454, Note_on_c, 4, 61, 0
6, 14159, Note_on_c, 4, 61, 112
6, 14214, Note_on_c, 4, 61, 0
6, 14220, Note_on_c, 4, 61, 115
6, 14277, Note_on_c, 4, 61, 0
6, 14280, Note_on_c, 4, 61, 112
6, 14337, Note_on_c, 4, 61, 0
6, 14340, Note_on_c, 4, 59, 114
6, 14459, Note_on_c, 4, 59, 0
6, 15120, Note_on_c, 4, 54, 117
6, 15177, Note_on_c, 4, 54, 0
6, 15180, Note_on_c, 4, 57, 117
6, 15239, Note_on_c, 4, 57, 0
6, 15240, Note_on_c, 4, 54, 116
6, 15300, Note_on_c, 4, 54, 0
6, 15301, Note_on_c, 4, 60, 116
6, 15400, Note_on_c, 4, 60, 0
6, 15420, Note_on_c, 4, 54, 112
6, 15480, Note_on_c, 4, 54, 0
6, 15481, Note_on_c, 4, 57, 115
6, 15540, Note_on_c, 4, 57, 0
6, 15541, Note_on_c, 4, 54, 118
6, 15600, Note_on_c, 4, 54, 0
6, 15600, Note_on_c, 4, 57, 114
6, 15659, Note_on_c, 4, 57, 0
6, 15660, Note_on_c, 4, 57, 112
6, 15720, Note_on_c, 4, 57, 0
6, 15721, Note_on_c, 4, 54, 118
6, 15810, Note_on_c, 4, 54, 0
6, 16019, Note_on_c, 4, 57, 117
6, 16074, Note_on_c, 4, 57, 0
6, 16080, Note_on_c, 4, 61, 117
6, 16134, Note_on_c, 4, 61, 0
6, 16140, Note_on_c, 4, 61, 117
6, 16197, Note_on_c, 4, 61, 0
6, 16199, Note_on_c, 4, 61, 112
6, 16257, Note_on_c, 4, 61, 0
6, 16259, Note_on_c, 4, 59, 112
6, 16379, Note_on_c, 4, 59, 0
6, 17040, Note_on_c, 4, 54, 117
6, 17098, Note_on_c, 4, 54, 0
6, 17099, Note_on_c, 4, 57, 118
6, 17159, Note_on_c, 4, 57, 0
6, 17160, Note_on_c, 4, 54, 113
6, 17220, Note_on_c, 4, 54, 0
6, 17221, Note_on_c, 4, 60, 116
6, 17319, Note_on_c, 4, 60, 0
6, 17339, Note_on_c, 4, 54, 113
6, 17400, Note_on_c, 4, 54, 0
6, 17401, Note_on_c, 4, 57, 117
6, 17460, Note_on_c, 4, 57, 0
6, 17460, Note_on_c, 4, 54, 113
6, 17520, Note_on_c, 4, 54, 0
6, 17521, Note_on_c, 4, 59, 117
6, 17610, Note_on_c, 4, 59, 0
6, 17640, Note_on_c, 4, 57, 115
6, 17729, Note_on_c, 4, 57, 0
6, 17760, Pitch_bend_c, 4, 8192
6, 17820, Note_on_c, 4, 58, 113
6, 17874, Note_on_c, 4, 58, 0
6, 17880, Note_on_c, 4, 59, 118
6, 17934, Note_on_c, 4, 59, 0
6, 17940, Note_on_c, 4, 57, 115
6, 17966, Note_on_c, 4, 57, 0
6, 17969, Note_on_c, 4, 58, 116
6, 18054, Note_on_c, 4, 58, 0
6, 18059, Note_on_c, 4, 58, 116
6, 18115, Note_on_c, 4, 58, 0
6, 18119, Note_on_c, 4, 59, 113
6, 18174, Note_on_c, 4, 59, 0
6, 18179, Note_on_c, 4, 56, 114
6, 18208, Note_on_c, 4, 56, 0
6, 18210, Note_on_c, 4, 58, 118
6, 18265, Note_on_c, 4, 58, 0
6, 18300, Note_on_c, 4, 58, 112
6, 18355, Note_on_c, 4, 58, 0
6, 18360, Note_on_c, 4, 59, 112
6, 18414, Note_on_c, 4, 59, 0
6, 18420, Note_on_c, 4, 58, 117
6, 18475, Note_on_c, 4, 58, 0
6, 18480, Note_on_c, 4, 59, 113
6, 18535, Note_on_c, 4, 59, 0
6, 18539, Note_on_c, 4, 57, 118
6, 18570, Pitch_bend_c, 4, 12192
6, 18625, Note_on_c, 4, 57, 0
6, 18720, Pitch_bend_c, 4, 8192
6, 18780, Note_on_c, 4, 58, 114
6, 18835, Note_on_c, 4, 58, 0
6, 18839, Note_on_c, 4, 59, 116
6, 18895, Note_on_c, 4, 59, 0
6, 18900, Note_on_c, 4, 57, 116
6, 18927, Note_on_c, 4, 57, 0
6, 18930, Note_on_c, 4, 58, 112
6, 19014, Note_on_c, 4, 58, 0
6, 19020, Note_on_c, 4, 58, 118
6, 19074, Note_on_c, 4, 58, 0
6, 19079, Note_on_c, 4, 59, 117
6, 19134, Note_on_c, 4, 59, 0
6, 19140, Note_on_c, 4, 57, 113
6, 19200, Note_on_c, 4, 57, 0
6, 19201, Note_on_c, 4, 58, 117
6, 19275, Note_on_c, 4, 58, 0
6, 19619, Note_on_c, 4, 58, 118
6, 19648, Note_on_c, 4, 58, 0
6, 19649, Note_on_c, 4, 58, 115
6, 19678, Note_on_c, 4, 58, 0
6, 19679, Note_on_c, 4, 58, 112
6, 19729, Note_on_c, 4, 58, 0
6, 19740, Note_on_c, 4, 58, 114
6, 19795, Note_on_c, 4, 58, 0
6, 19800, Note_on_c, 4, 59, 113
6, 19826, Note_on_c, 4, 59, 0
6, 19829, Note_on_c, 4, 59, 117
6, 19857, Note_on_c, 4, 59, 0
6, 19859, Note_on_c, 4, 57, 114
6, 19887, Note_on_c, 4, 57, 0
6, 19890, Note_on_c, 4, 58, 118
6, 19974, Note_on_c, 4, 58, 0
6, 19980, Note_on_c, 4, 58, 117
6, 20034, Note_on_c, 4, 58, 0
6, 20040, Note_on_c, 4, 59, 115
6, 20095, Note_on_c, 4, 59, 0
6, 20100, Note_on_c, 4, 57, 114
6, 20128, Note_on_c, 4, 57, 0
6, 20130, Note_on_c, 4, 58, 116
6, 20184, Note_on_c, 4, 58, 0
6, 20219, Note_on_c, 4, 58, 116
6, 20274, Note_on_c, 4, 58, 0
6, 20280, Note_on_c, 4, 59, 112
6, 20334, Note_on_c, 4, 59, 0
6, 20340, Note_on_c, 4, 58, 115
6, 20394, Note_on_c, 4, 58, 0
6, 20400, Note_on_c, 4, 61, 114
6, 20455, Note_on_c, 4, 61, 0
6, 20460, Note_on_c, 4, 57, 118
6, 20490, Pitch_bend_c, 4, 12192
6, 20545, Note_on_c, 4, 57, 0
6, 20639, Pitch_bend_c, 4, 8192
6, 20699, Note_on_c, 4, 59, 118
6, 20754, Note_on_c, 4, 59, 0
6, 20760, Note_on_c, 4, 59, 115
6, 20815, Note_on_c, 4, 59, 0
6, 20819, Note_on_c, 4, 59, 118
6, 20847, Note_on_c, 4, 59, 0
6, 20850, Note_on_c, 4, 59, 117
6, 20935, Note_on_c, 4, 59, 0
6, 20940, Note_on_c, 4, 59, 113
6, 20995, Note_on_c, 4, 59, 0
6, 20999, Note_on_c, 4, 61, 118
6, 21054, Note_on_c, 4, 61, 0
6, 21060, Note_on_c, 4, 57, 115
6, 21180, Note_on_c, 4, 57, 0
6, 21180, Note_on_c, 4, 58, 112
6, 21285, Note_on_c, 4, 58, 0
6, 21719, Note_on_c, 4, 69, 113
6, 21775, Note_on_c, 4, 69, 0
6, 21780, Note_on_c, 4, 66, 118
6, 21834, Note_on_c, 4, 66, 0
6, 21839, Note_on_c, 4, 69, 116
6, 21899, Note_on_c, 4, 69, 0
6, 21900, Note_on_c, 4, 66, 116
6, 21959, Note_on_c, 4, 66, 0
6, 21960, Note_on_c, 4, 69, 118
6, 22019, Note_on_c, 4, 69, 0
6, 22020, Note_on_c, 4, 64, 115
6, 22040, Pitch_bend_c, 4, 16383
6, 22140, Note_on_c, 4, 64, 0
6, 22141, Pitch_bend_c, 4, 8192
6, 22141, Note_on_c, 4, 64, 114
6, 22200, Note_on_c, 4, 64, 0
6, 22201, Note_on_c, 4, 66, 117
6, 22260, Note_on_c, 4, 66, 0
6, 22679, Note_on_c, 4, 69, 113
6, 22735, Note_on_c, 4, 69, 0
6, 22739, Note_on_c, 4, 66, 112
6, 22794, Note_on_c, 4, 66, 0
6, 22800, Note_on_c, 4, 69, 113
6, 22859, Note_on_c, 4, 69, 0
6, 22860, Note_on_c, 4, 66, 116
6, 22919, Note_on_c, 4, 66, 0
6, 22920, Note_on_c, 4, 69, 114
6, 22980, Note_on_c, 4, 69, 0
6, 22981, Note_on_c, 4, 64, 115
6, 22999, Pitch_bend_c, 4, 16383
6, 23039, Pitch_bend_c, 4, 8192
6, 23159, Note_on_c, 4, 64, 0
6, 23160, Note_on_c, 4, 66, 117
6, 23219, Note_on_c, 4, 66, 0
6, 23580, Note_on_c, 4, 54, 118
6, 23635, Note_on_c, 4, 54, 0
6, 23640, Note_on_c, 4, 57, 114
6, 23694, Note_on_c, 4, 57, 0
6, 23699, Note_on_c, 4, 54, 116
6, 23759, Note_on_c, 4, 54, 0
6, 23760, Note_on_c, 4, 61, 112
6, 23820, Note_on_c, 4, 61, 0
6, 23821, Note_on_c, 4, 54, 114
6, 23910, Note_on_c, 4, 54, 0
6, 24059, Note_on_c, 4, 54, 114
6, 24114, Note_on_c, 4, 54, 0
6, 24120, Note_on_c, 4, 57, 115
6, 24174, Note_on_c, 4, 57, 0
6, 24180, Note_on_c, 4, 54, 114
6, 24240, Note_on_c, 4, 54, 0
6, 24241, Note_on_c, 4, 61, 115
6, 24300, Note_on_c, 4, 61, 0
6, 24300, Note_on_c, 4, 59, 118
6, 24360, Note_on_c, 4, 59, 0
6, 24360, Note_on_c, 4, 57, 115
6, 24420, Note_on_c, 4, 57, 0
6, 24421, Note_on_c, 4, 61, 113
6, 24480, Pitch_bend_c, 4, 12192
6, 24510, Pitch_bend_c, 4, 8192
6, 24540, Note_on_c, 4, 61, 0
6, 24541, Note_on_c, 4, 59, 113
6, 24900, Note_on_c, 4, 59, 0
6, 24900, Note_on_c, 4, 61, 116
6, 24974, Note_on_c, 4, 61, 0
6, 25079, Pitch_bend_c, 4, 8192
6, 25079, Note_on_c, 4, 69, 115
6, 25081, Pitch_bend_c, 4, 8466
6, 25082, Pitch_bend_c, 4, 8739
6, 25083, Pitch_bend_c, 4, 9012
6, 25084, Pitch_bend_c, 4, 9285
6, 25085, Pitch_bend_c, 4, 9558
6, 25086, Pitch_bend_c, 4, 9831
6, 25087, Pitch_bend_c, 4, 10104
6, 25088, Pitch_bend_c, 4, 10377
6, 25089, Pitch_bend_c, 4, 10650
6, 25090, Pitch_bend_c, 4, 10923
6, 25091, Pitch_bend_c, 4, 11196
6, 25092, Pitch_bend_c, 4, 11469
6, 25093, Pitch_bend_c, 4, 11742
6, 25094, Pitch_bend_c, 4, 12015
6, 25095, Pitch_bend_c, 4, 12288
6, 25096, Pitch_bend_c, 4, 12561
6, 25097, Pitch_bend_c, 4, 12834
6, 25098, Pitch_bend_c, 4, 13107
6, 25099, Pitch_bend_c, 4, 13380
6, 25100, Pitch_bend_c, 4, 13653
6, 25101, Pitch_bend_c, 4, 13926
6, 25102, Pitch_bend_c, 4, 14199
6, 25103, Pitch_bend_c, 4, 14472
6, 25104, Pitch_bend_c, 4, 14745
6, 25105, Pitch_bend_c, 4, 15018
6, 25106, Pitch_bend_c, 4, 15291
6, 25107, Pitch_bend_c, 4, 15564
6, 25108, Pitch_bend_c, 4, 15837
6, 25109, Pitch_bend_c, 4, 16110
6, 25110, Pitch_bend_c, 4, 16383
6, 25170, Note_on_c, 4, 69, 0
6, 25199, Pitch_bend_c, 4, 8192
6, 25199, Note_on_c, 4, 69, 115
6, 25290, Note_on_c, 4, 69, 0
6, 25320, Note_on_c, 4, 66, 117
6, 25409, Note_on_c, 4, 66, 0
6, 25679, Note_on_c, 4, 61, 115
6, 25734, Note_on_c, 4, 61, 0
6, 25740, Note_on_c, 4, 61, 116
6, 25798, Note_on_c, 4, 61, 0
6, 25800, Note_on_c, 4, 61, 117
6, 25857, Note_on_c, 4, 61, 0
6, 25860, Note_on_c, 4, 59, 115
6, 25979, Note_on_c, 4, 59, 0
6, 26639, Note_on_c, 4, 54, 112
6, 26697, Note_on_c, 4, 54, 0
6, 26699, Note_on_c, 4, 57, 112
6, 26759, Note_on_c, 4, 57, 0
6, 26759, Note_on_c, 4, 54, 113
6, 26819, Note_on_c, 4, 54, 0
6, 26820, Note_on_c, 4, 60, 116
6, 26919, Note_on_c, 4, 60, 0
6, 26939, Note_on_c, 4, 54, 117
6, 26999, Note_on_c, 4, 54, 0
6, 27000, Note_on_c, 4, 57, 117
6, 27059, Note_on_c, 4, 57, 0
6, 27059, Note_on_c, 4, 54, 116
6, 27119, Note_on_c, 4, 54, 0
6, 27120, Note_on_c, 4, 57, 114
6, 27179, Note_on_c, 4, 57, 0
6, 27180, Note_on_c, 4, 57, 116
6, 27240, Note_on_c, 4, 57, 0
6, 27240, Note_on_c, 4, 54, 116
6, 27330, Note_on_c, 4, 54, 0
6, 27540, Note_on_c, 4, 57, 114
6, 27595, Note_on_c, 4, 57, 0
6, 27600, Note_on_c, 4, 61, 115
6, 27655, Note_on_c, 4, 61, 0
6, 27660, Note_on_c, 4, 61, 114
6, 27718, Note_on_c, 4, 61, 0
6, 27720, Note_on_c, 4, 61, 117
6, 27778, Note_on_c, 4, 61, 0
6, 27780, Note_on_c, 4, 59, 115
6, 27900, Note_on_c, 4, 59, 0
6, 28559, Note_on_c, 4, 54, 113
6, 28617, Note_on_c, 4, 54, 0
6, 28620, Note_on_c, 4, 57, 115
6, 28679, Note_on_c, 4, 57, 0
6, 28680, Note_on_c, 4, 54, 118
6, 28740, Note_on_c, 4, 54, 0
6, 28741, Note_on_c, 4, 60, 114
6, 28840, Note_on_c, 4, 60, 0
6, 28860, Note_on_c, 4, 54, 118
6, 28920, Note_on_c, 4, 54, 0
6, 28920, Note_on_c, 4, 57, 118
6, 28979, Note_on_c, 4, 57, 0
6, 28980, Note_on_c, 4, 54, 113
6, 29039, Note_on_c, 4, 54, 0
6, 29040, Note_on_c, 4, 59, 115
6, 29130, Note_on_c, 4, 59, 0
6, 29159, Note_on_c, 4, 57, 116
6, 29249, Note_on_c, 4, 57, 0
6, 29520, Note_on_c, 4, 61, 112
6, 29575, Note_on_c, 4, 61, 0
6, 29580, Note_on_c, 4, 61, 116
6, 29637, Note_on_c, 4, 61, 0
6, 29640, Note_on_c, 4, 61, 113
6, 29697, Note_on_c, 4, 61, 0
6, 29699, Note_on_c, 4, 59, 116
6, 29820, Note_on_c, 4, 59, 0
6, 30480, Note_on_c, 4, 54, 114
6, 30537, Note_on_c, 4, 54, 0
6, 30540, Note_on_c, 4, 57, 116
6, 30600, Note_on_c, 4, 57, 0
6, 30600, Note_on_c, 4, 54, 112
6, 30659, Note_on_c, 4, 54, 0
6, 30660, Note_on_c, 4, 60, 113
6, 30760, Note_on_c, 4, 60, 0
6, 30780, Note_on_c, 4, 54, 117
6, 30840, Note_on_c, 4, 54, 0
6, 30840, Note_on_c, 4, 57, 116
6, 30899, Note_on_c, 4, 57, 0
6, 30900, Note_on_c, 4, 54, 117
6, 30960, Note_on_c, 4, 54, 0
6, 30960, Note_on_c, 4, 57, 118
6, 31020, Note_on_c, 4, 57, 0
6, 31021, Note_on_c, 4, 57, 116
6, 31080, Note_on_c, 4, 57, 0
6, 31081, Note_on_c, 4, 54, 117
6, 31170, Note_on_c, 4, 54, 0
6, 31380, Note_on_c, 4, 57, 113
6, 31435, Note_on_c, 4, 57, 0
6, 31439, Note_on_c, 4, 61, 114
6, 31494, Note_on_c, 4, 61, 0
6, 31499, Note_on_c, 4, 61, 115
6, 31557, Note_on_c, 4, 61, 0
6, 31560, Note_on_c, 4, 61, 112
6, 31617, Note_on_c, 4, 61, 0
6, 31620, Note_on_c, 4, 59, 113
6, 31739, Note_on_c, 4, 59, 0
6, 32400, Note_on_c, 4, 54, 114
6, 32457, Note_on_c, 4, 54, 0
6, 32460, Note_on_c, 4, 57, 112
6, 32520, Note_on_c, 4, 57, 0
6, 32521, Note_on_c, 4, 54, 116
6, 32580, Note_on_c, 4, 54, 0
6, 32580, Note_on_c, 4, 60, 116
6, 32679, Note_on_c, 4, 60, 0
6, 32700, Note_on_c, 4, 54, 112
6, 32760, Note_on_c, 4, 54, 0
6, 32761, Note_on_c, 4, 57, 116
6, 32820, Note_on_c, 4, 57, 0
6, 32821, Note_on_c, 4, 54, 116
6, 32880, Note_on_c, 4, 54, 0
6, 32880, Note_on_c, 4, 59, 113
6, 32970, Note_on_c, 4, 59, 0
6, 32999, Note_on_c, 4, 57, 115
6, 33089, Note_on_c, 4, 57, 0
6, 37199, Note_on_c, 4, 61, 118
6, 37254, Note_on_c, 4, 61, 0
6, 37259, Note_on_c, 4, 61, 112
6, 37317, Note_on_c, 4, 61, 0
6, 37320, Note_on_c, 4, 61, 112
6, 37378, Note_on_c, 4, 61, 0
6, 37379, Note_on_c, 4, 59, 116
6, 37499, Note_on_c, 4, 59, 0
6, 38159, Note_on_c, 4, 54, 115
6, 38218, Note_on_c, 4, 54, 0
6, 38219, Note_on_c, 4, 57, 112
6, 38280, Note_on_c, 4, 57, 0
6, 38281, Note_on_c, 4, 54, 115
6, 38340, Note_on_c, 4, 54, 0
6, 38340, Note_on_c, 4, 60, 118
6, 38439, Note_on_c, 4, 60, 0
6, 38460, Note_on_c, 4, 54, 118
6, 38519, Note_on_c, 4, 54, 0
6, 38520, Note_on_c, 4, 57, 114
6, 38579, Note_on_c, 4, 57, 0
6, 38580, Note_on_c, 4, 54, 112
6, 38640, Note_on_c, 4, 54, 0
6, 38641, Note_on_c, 4, 57, 112
6, 38699, Note_on_c, 4, 57, 0
6, 38699, Note_on_c, 4, 57, 112
6, 38759, Note_on_c, 4, 57, 0
6, 38759, Note_on_c, 4, 54, 112
6, 38849, Note_on_c, 4, 54, 0
6, 39060, Note_on_c, 4, 57, 117
6, 39115, Note_on_c, 4, 57, 0
6, 39120, Note_on_c, 4, 61, 114
6, 39175, Note_on_c, 4, 61, 0
6, 39179, Note_on_c, 4, 61, 112
6, 39238, Note_on_c, 4, 61, 0
6, 39240, Note_on_c, 4, 61, 113
6, 39298, Note_on_c, 4, 61, 0
6, 39300, Note_on_c, 4, 59, 117
6, 39419, Note_on_c, 4, 59, 0
6, 40080, Note_on_c, 4, 54, 118
6, 40137, Note_on_c, 4, 54, 0
6, 40139, Note_on_c, 4, 57, 113
6, 40199, Note_on_c, 4, 57, 0
6, 40200, Note_on_c, 4, 54, 116
6, 40259, Note_on_c, 4, 54, 0
6, 40260, Note_on_c, 4, 60, 116
6, 40359, Note_on_c, 4, 60, 0
6, 40380, Note_on_c, 4, 54, 113
6, 40439, Note_on_c, 4, 54, 0
6, 40439, Note_on_c, 4, 57, 118
6, 40500, Note_on_c, 4, 57, 0
6, 40500, Note_on_c, 4, 54, 116
6, 40559, Note_on_c, 4, 54, 0
6, 40559, Note_on_c, 4, 59, 114
6, 40649, Note_on_c, 4, 59, 0
6, 40679, Note_on_c, 4, 57, 114
6, 40770, Note_on_c, 4, 57, 0
6, 41039, Note_on_c, 4, 61, 113
6, 41094, Note_on_c, 4, 61, 0
6, 41099, Note_on_c, 4, 61, 117
6, 41157, Note_on_c, 4, 61, 0
6, 41160, Note_on_c, 4, 61, 116
6, 41217, Note_on_c, 4, 61, 0
6, 41220, Note_on_c, 4, 59, 118
6, 41339, Note_on_c, 4, 59, 0
6, 42000, Note_on_c, 4, 54, 113
6, 42058, Note_on_c, 4, 54, 0
6, 42059, Note_on_c, 4, 57, 117
6, 42119, Note_on_c, 4, 57, 0
6, 42120, Note_on_c, 4, 54, 113
6, 42180, Note_on_c, 4, 54, 0
6, 42180, Note_on_c, 4, 60, 112
6, 42280, Note_on_c, 4, 60, 0
6, 42300, Note_on_c, 4, 54, 115
6, 42360, Note_on_c, 4, 54, 0
6, 42361, Note_on_c, 4, 57, 113
6, 42419, Note_on_c, 4, 57, 0
6, 42419, Note_on_c, 4, 54, 118
6, 42480, Note_on_c, 4, 54, 0
6, 42480, Note_on_c, 4, 57, 114
6, 42539, Note_on_c, 4, 57, 0
6, 42539, Note_on_c, 4, 57, 118
6, 42600, Note_on_c, 4, 57, 0
6, 42601, Note_on_c, 4, 54, 113
6, 42690, Note_on_c, 4, 54, 0
6, 42900, Note_on_c, 4, 57, 113
6, 42954, Note_on_c, 4, 57, 0
6, 42960, Note_on_c, 4, 61, 116
6, 43014, Note_on_c, 4, 61, 0
6, 43019, Note_on_c, 4, 61, 118
6, 43077, Note_on_c, 4, 61, 0
6, 43080, Note_on_c, 4, 61, 118
6, 43137, Note_on_c, 4, 61, 0
6, 43140, Note_on_c, 4, 59, 116
6, 43259, Note_on_c, 4, 59, 0
6, 43920, Note_on_c, 4, 54, 113
6, 43978, Note_on_c, 4, 54, 0
6, 43980, Note_on_c, 4, 57, 118
6, 44039, Note_on_c, 4, 57, 0
6, 44040, Note_on_c, 4, 54, 117
6, 44100, Note_on_c, 4, 54, 0
6, 44100, Note_on_c, 4, 60, 114
6, 44199, Note_on_c, 4, 60, 0
6, 44220, Note_on_c, 4, 54, 114
6, 44279, Note_on_c, 4, 54, 0
6, 44279, Note_on_c, 4, 57, 116
6, 44339, Note_on_c, 4, 57, 0
6, 44340, Note_on_c, 4, 54, 113
6, 44399, Note_on_c, 4, 54, 0
6, 44400, Note_on_c, 4, 59, 116
6, 44489, Note_on_c, 4, 59, 0
6, 44520, Note_on_c, 4, 57, 118
6, 44610, Note_on_c, 4, 57, 0
6, 44880, Note_on_c, 4, 61, 116
6, 44934, Note_on_c, 4, 61, 0
6, 44939, Note_on_c, 4, 61, 114
6, 44997, Note_on_c, 4, 61, 0
6, 45000, Note_on_c, 4, 61, 118
6, 45057, Note_on_c, 4, 61, 0
6, 45060, Note_on_c, 4, 59, 112
6, 45180, Note_on_c, 4, 59, 0
6, 45780, Note_on_c, 4, 66, 112
6, 45930, Note_on_c, 4, 66, 0
6, 46019, Note_on_c, 4, 69, 112
6, 46169, Note_on_c, 4, 69, 0
6, 46259, Note_on_c, 4, 71, 118
6, 46439, Note_on_c, 4, 71, 0
6, 46740, Note_on_c, 4, 57, 115
6, 46794, Note_on_c, 4, 57, 0
6, 46800, Note_on_c, 4, 61, 116
6, 46855, Note_on_c, 4, 61, 0
6, 46860, Note_on_c, 4, 61, 113
6, 46918, Note_on_c, 4, 61, 0
6, 46919, Note_on_c, 4, 61, 112
6, 46978, Note_on_c, 4, 61, 0
6, 46979, Note_on_c, 4, 59, 117
6, 47100, Note_on_c, 4, 59, 0
6, 47700, Note_on_c, 4, 67, 114
6, 47850, Note_on_c, 4, 67, 0
6, 47940, Note_on_c, 4, 69, 113
6, 48039, Note_on_c, 4, 69, 0
6, 48060, Note_on_c, 4, 66, 118
6, 48120, Note_on_c, 4, 66, 0
6, 48120, Note_on_c, 4, 69, 112
6, 48179, Note_on_c, 4, 69, 0
6, 48180, Note_on_c, 4, 66, 113
6, 48239, Note_on_c, 4, 66, 0
6, 48240, Note_on_c, 4, 71, 114
6, 48330, Note_on_c, 4, 71, 0
6, 48360, Note_on_c, 4, 69, 118
6, 48479, Note_on_c, 4, 69, 0
6, 48719, Note_on_c, 4, 61, 112
6, 48775, Note_on_c, 4, 61, 0
6, 48780, Note_on_c, 4, 61, 115
6, 48837, Note_on_c, 4, 61, 0
6, 48840, Note_on_c, 4, 61, 117
6, 48898, Note_on_c, 4, 61, 0
6, 48900, Note_on_c, 4, 59, 118
6, 49019, Note_on_c, 4, 59, 0
6, 49140, Note_on_c, 4, 69, 118
6, 49224, Note_on_c, 4, 69, 0
6, 49260, Note_on_c, 4, 66, 117
6, 49315, Note_on_c, 4, 66, 0
6, 49320, Note_on_c, 4, 69, 112
6, 49374, Note_on_c, 4, 69, 0
6, 49380, Note_on_c, 4, 69, 116
6, 49495, Note_on_c, 4, 69, 0
6, 49680, Note_on_c, 4, 54, 118
6, 49737, Note_on_c, 4, 54, 0
6, 49739, Note_on_c, 4, 57, 116
6, 49799, Note_on_c, 4, 57, 0
6, 49800, Note_on_c, 4, 54, 117
6, 49859, Note_on_c, 4, 54, 0
6, 49860, Note_on_c, 4, 60, 115
6, 49960, Note_on_c, 4, 60, 0
6, 49979, Note_on_c, 4, 54, 118
6, 50039, Note_on_c, 4, 54, 0
6, 50040, Note_on_c, 4, 57, 115
6, 50099, Note_on_c, 4, 57, 0
6, 50099, Note_on_c, 4, 54, 112
6, 50159, Note_on_c, 4, 54, 0
6, 50160, Note_on_c, 4, 57, 113
6, 50220, Note_on_c, 4, 57, 0
6, 50221, Note_on_c, 4, 57, 116
6, 50280, Note_on_c, 4, 57, 0
6, 50280, Note_on_c, 4, 54, 112
6, 50370, Note_on_c, 4, 54, 0
6, 50580, Note_on_c, 4, 57, 112
6, 50634, Note_on_c, 4, 57, 0
6, 50640, Note_on_c, 4, 61, 118
6, 50694, Note_on_c, 4, 61, 0
6, 50700, Note_on_c, 4, 61, 116
6, 50757, Note_on_c, 4, 61, 0
6, 50759, Note_on_c, 4, 61, 113
6, 50817, Note_on_c, 4, 61, 0
6, 50820, Note_on_c, 4, 59, 118
6, 50939, Note_on_c, 4, 59, 0
6, 50939, End_track
7, 0, Start_track
7, 0, MIDI_port, 0
7, 0, Control_c, 5, 0, 0
7, 0, Control_c, 5, 32, 0
7, 0, Program_c, 5, 52
7, 0, Control_c, 5, 7, 95
7, 0, Control_c, 5, 10, 64
7, 2, Control_c, 5, 1, 0
7, 4, Control_c, 5, 2, 0
7, 120, Control_c, 5, 11, 100
7, 120, Control_c, 5, 0, 0
7, 124, Control_c, 5, 101, 0
7, 124, Control_c, 5, 100, 0
7, 124, Control_c, 5, 6, 2
7, 124, Control_c, 5, 38, 0
7, 240, Control_c, 5, 120, 0
7, 243, Control_c, 5, 121, 0
7, 246, Control_c, 5, 123, 0
7, 255, Control_c, 5, 91, 100
7, 258, Control_c, 5, 93, 30
7, 12900, Note_on_c, 5, 66, 97
7, 12960, Pitch_bend_c, 5, 12192
7, 12990, Pitch_bend_c, 5, 8192
7, 13020, Note_on_c, 5, 66, 0
7, 13021, Note_on_c, 5, 64, 97
7, 13380, Note_on_c, 5, 64, 0
7, 13381, Note_on_c, 5, 66, 102
7, 13455, Note_on_c, 5, 66, 0
7, 14160, Note_on_c, 5, 64, 99
7, 14160, Note_on_c, 5, 61, 103
7, 14214, Note_on_c, 5, 61, 0
7, 14214, Note_on_c, 5, 64, 0
7, 14220, Note_on_c, 5, 64, 101
7, 14220, Note_on_c, 5, 61, 97
7, 14278, Note_on_c, 5, 61, 0
7, 14278, Note_on_c, 5, 64, 0
7, 14279, Note_on_c, 5, 64, 97
7, 14279, Note_on_c, 5, 61, 97
7, 14337, Note_on_c, 5, 61, 0
7, 14338, Note_on_c, 5, 64, 0
7, 14339, Note_on_c, 5, 66, 101
7, 14340, Note_on_c, 5, 63, 99
7, 14460, Note_on_c, 5, 63, 0
7, 14460, Note_on_c, 5, 66, 0
7, 16080, Note_on_c, 5, 64, 101
7, 16080, Note_on_c, 5, 61, 97
7, 16134, Note_on_c, 5, 61, 0
7, 16135, Note_on_c, 5, 64, 0
7, 16140, Note_on_c, 5, 64, 97
7, 16140, Note_on_c, 5, 61, 100
7, 16198, Note_on_c, 5, 61, 0
7, 16198, Note_on_c, 5, 64, 0
7, 16200, Note_on_c, 5, 64, 98
7, 16200, Note_on_c, 5, 61, 98
7, 16258, Note_on_c, 5, 61, 0
7, 16258, Note_on_c, 5, 64, 0
7, 16260, Note_on_c, 5, 66, 100
7, 16260, Note_on_c, 5, 63, 103
7, 16379, Note_on_c, 5, 63, 0
7, 16380, Note_on_c, 5, 66, 0
7, 17519, Note_on_c, 5, 64, 97
7, 17609, Note_on_c, 5, 64, 0
7, 17640, Note_on_c, 5, 60, 101
7, 17700, Note_on_c, 5, 60, 0
7, 17701, Note_on_c, 5, 61, 103
7, 17760, Note_on_c, 5, 61, 0
7, 24419, Note_on_c, 5, 66, 100
7, 24480, Pitch_bend_c, 5, 12192
7, 24510, Pitch_bend_c, 5, 8192
7, 24539, Note_on_c, 5, 66, 0
7, 24540, Note_on_c, 5, 64, 101
7, 24900, Note_on_c, 5, 64, 0
7, 24901, Note_on_c, 5, 66, 99
7, 24975, Note_on_c, 5, 66, 0
7, 25680, Note_on_c, 5, 64, 98
7, 25680, Note_on_c, 5, 61, 97
7, 25735, Note_on_c, 5, 61, 0
7, 25735, Note_on_c, 5, 64, 0
7, 25740, Note_on_c, 5, 64, 103
7, 25740, Note_on_c, 5, 61, 100
7, 25797, Note_on_c, 5, 61, 0
7, 25798, Note_on_c, 5, 64, 0
7, 25800, Note_on_c, 5, 64, 98
7, 25801, Note_on_c, 5, 61, 98
7, 25858, Note_on_c, 5, 61, 0
7, 25858, Note_on_c, 5, 64, 0
7, 25860, Note_on_c, 5, 66, 98
7, 25861, Note_on_c, 5, 63, 102
7, 25980, Note_on_c, 5, 63, 0
7, 25980, Note_on_c, 5, 66, 0
7, 27600, Note_on_c, 5, 64, 97
7, 27601, Note_on_c, 5, 61, 102
7, 27655, Note_on_c, 5, 61, 0
7, 27655, Note_on_c, 5, 64, 0
7, 27660, Note_on_c, 5, 64, 98
7, 27660, Note_on_c, 5, 61, 101
7, 27717, Note_on_c, 5, 61, 0
7, 27718, Note_on_c, 5, 64, 0
7, 27720, Note_on_c, 5, 64, 97
7, 27720, Note_on_c, 5, 61, 103
7, 27778, Note_on_c, 5, 61, 0
7, 27778, Note_on_c, 5, 64, 0
7, 27780, Note_on_c, 5, 66, 102
7, 27780, Note_on_c, 5, 63, 99
7, 27899, Note_on_c, 5, 63, 0
7, 27899, Note_on_c, 5, 66, 0
7, 29040, Note_on_c, 5, 64, 103
7, 29129, Note_on_c, 5, 64, 0
7, 29159, Note_on_c, 5, 60, 98
7, 29220, Note_on_c, 5, 60, 0
7, 29221, Note_on_c, 5, 61, 101
7, 29280, Note_on_c, 5, 61, 0
7, 29520, Note_on_c, 5, 64, 100
7, 29520, Note_on_c, 5, 61, 98
7, 29575, Note_on_c, 5, 61, 0
7, 29576, Note_on_c, 5, 64, 0
7, 29580, Note_on_c, 5, 64, 102
7, 29581, Note_on_c, 5, 61, 99
7, 29637, Note_on_c, 5, 61, 0
7, 29637, Note_on_c, 5, 64, 0
7, 29640, Note_on_c, 5, 64, 98
7, 29641, Note_on_c, 5, 61, 99
7, 29697, Note_on_c, 5, 61, 0
7, 29697, Note_on_c, 5, 64, 0
7, 29700, Note_on_c, 5, 66, 100
7, 29700, Note_on_c, 5, 63, 102
7, 29820, Note_on_c, 5, 63, 0
7, 29820, Note_on_c, 5, 66, 0
7, 31439, Note_on_c, 5, 64, 98
7, 31440, Note_on_c, 5, 61, 102
7, 31494, Note_on_c, 5, 64, 0
7, 31495, Note_on_c, 5, 61, 0
7, 31500, Note_on_c, 5, 64, 98
7, 31500, Note_on_c, 5, 61, 98
7, 31557, Note_on_c, 5, 61, 0
7, 31558, Note_on_c, 5, 64, 0
7, 31559, Note_on_c, 5, 64, 98
7, 31559, Note_on_c, 5, 61, 98
7, 31618, Note_on_c, 5, 61, 0
7, 31618, Note_on_c, 5, 64, 0
7, 31620, Note_on_c, 5, 66, 98
7, 31621, Note_on_c, 5, 63, 102
7, 31740, Note_on_c, 5, 63, 0
7, 31740, Note_on_c, 5, 66, 0
7, 32880, Note_on_c, 5, 64, 97
7, 32970, Note_on_c, 5, 64, 0
7, 33000, Note_on_c, 5, 60, 103
7, 33059, Note_on_c, 5, 60, 0
7, 33060, Note_on_c, 5, 61, 100
7, 33120, Note_on_c, 5, 61, 0
7, 37200, Note_on_c, 5, 64, 98
7, 37201, Note_on_c, 5, 61, 100
7, 37255, Note_on_c, 5, 61, 0
7, 37255, Note_on_c, 5, 64, 0
7, 37260, Note_on_c, 5, 64, 102
7, 37260, Note_on_c, 5, 61, 97
7, 37317, Note_on_c, 5, 61, 0
7, 37318, Note_on_c, 5, 64, 0
7, 37320, Note_on_c, 5, 64, 98
7, 37320, Note_on_c, 5, 61, 101
7, 37377, Note_on_c, 5, 61, 0
7, 37377, Note_on_c, 5, 64, 0
7, 37380, Note_on_c, 5, 66, 103
7, 37380, Note_on_c, 5, 63, 98
7, 37500, Note_on_c, 5, 63, 0
7, 37500, Note_on_c, 5, 66, 0
7, 39120, Note_on_c, 5, 64, 103
7, 39120, Note_on_c, 5, 61, 100
7, 39174, Note_on_c, 5, 61, 0
7, 39174, Note_on_c, 5, 64, 0
7, 39179, Note_on_c, 5, 64, 100
7, 39179, Note_on_c, 5, 61, 99
7, 39237, Note_on_c, 5, 61, 0
7, 39237, Note_on_c, 5, 64, 0
7, 39240, Note_on_c, 5, 64, 101
7, 39240, Note_on_c, 5, 61, 102
7, 39297, Note_on_c, 5, 61, 0
7, 39297, Note_on_c, 5, 64, 0
7, 39300, Note_on_c, 5, 66, 98
7, 39300, Note_on_c, 5, 63, 101
7, 39420, Note_on_c, 5, 63, 0
7, 39420, Note_on_c, 5, 66, 0
7, 40560, Note_on_c, 5, 64, 98
7, 40649, Note_on_c, 5, 64, 0
7, 40680, Note_on_c, 5, 60, 101
7, 40740, Note_on_c, 5, 60, 0
7, 40740, Note_on_c, 5, 61, 103
7, 40799, Note_on_c, 5, 61, 0
7, 41040, Note_on_c, 5, 64, 103
7, 41040, Note_on_c, 5, 61, 97
7, 41095, Note_on_c, 5, 61, 0
7, 41095, Note_on_c, 5, 64, 0
7, 41100, Note_on_c, 5, 64, 101
7, 41101, Note_on_c, 5, 61, 100
7, 41157, Note_on_c, 5, 61, 0
7, 41157, Note_on_c, 5, 64, 0
7, 41160, Note_on_c, 5, 64, 97
7, 41161, Note_on_c, 5, 61, 103
7, 41217, Note_on_c, 5, 61, 0
7, 41218, Note_on_c, 5, 64, 0
7, 41220, Note_on_c, 5, 66, 103
7, 41221, Note_on_c, 5, 63, 100
7, 41340, Note_on_c, 5, 63, 0
7, 41340, Note_on_c, 5, 66, 0
7, 42960, Note_on_c, 5, 64, 101
7, 42960, Note_on_c, 5, 61, 98
7, 43015, Note_on_c, 5, 61, 0
7, 43016, Note_on_c, 5, 64, 0
7, 43019, Note_on_c, 5, 64, 103
7, 43020, Note_on_c, 5, 61, 99
7, 43078, Note_on_c, 5, 61, 0
7, 43078, Note_on_c, 5, 64, 0
7, 43080, Note_on_c, 5, 64, 100
7, 43080, Note_on_c, 5, 61, 98
7, 43137, Note_on_c, 5, 61, 0
7, 43138, Note_on_c, 5, 64, 0
7, 43140, Note_on_c, 5, 66, 101
7, 43141, Note_on_c, 5, 63, 97
7, 43259, Note_on_c, 5, 66, 0
7, 43260, Note_on_c, 5, 63, 0
7, 44399, Note_on_c, 5, 64, 103
7, 44490, Note_on_c, 5, 64, 0
7, 44520, Note_on_c, 5, 60, 98
7, 44580, Note_on_c, 5, 60, 0
7, 44581, Note_on_c, 5, 61, 100
7, 44640, Note_on_c, 5, 61, 0
7, 44880, Note_on_c, 5, 64, 100
7, 44880, Note_on_c, 5, 61, 102
7, 44935, Note_on_c, 5, 61, 0
7, 44936, Note_on_c, 5, 64, 0
7, 44940, Note_on_c, 5, 64, 99
7, 44940, Note_on_c, 5, 61, 100
7, 44997, Note_on_c, 5, 61, 0
7, 44998, Note_on_c, 5, 64, 0
7, 44999, Note_on_c, 5, 64, 97
7, 45000, Note_on_c, 5, 61, 97
7, 45058, Note_on_c, 5, 61, 0
7, 45058, Note_on_c, 5, 64, 0
7, 45060, Note_on_c, 5, 66, 101
7, 45060, Note_on_c, 5, 63, 97
7, 45180, Note_on_c, 5, 63, 0
7, 45180, Note_on_c, 5, 66, 0
7, 46800, Note_on_c, 5, 64, 101
7, 46801, Note_on_c, 5, 61, 99
7, 46855, Note_on_c, 5, 61, 0
7, 46855, Note_on_c, 5, 64, 0
7, 46860, Note_on_c, 5, 64, 101
7, 46860, Note_on_c, 5, 61, 101
7, 46917, Note_on_c, 5, 61, 0
7, 46918, Note_on_c, 5, 64, 0
7, 46919, Note_on_c, 5, 64, 98
7, 46920, Note_on_c, 5, 61, 102
7, 46978, Note_on_c, 5, 61, 0
7, 46978, Note_on_c, 5, 64, 0
7, 46979, Note_on_c, 5, 66, 102
7, 46980, Note_on_c, 5, 63, 99
7, 47100, Note_on_c, 5, 63, 0
7, 47100, Note_on_c, 5, 66, 0
7, 48719, Note_on_c, 5, 64, 103
7, 48719, Note_on_c, 5, 61, 99
7, 48774, Note_on_c, 5, 61, 0
7, 48775, Note_on_c, 5, 64, 0
7, 48779, Note_on_c, 5, 64, 101
7, 48780, Note_on_c, 5, 61, 99
7, 48838, Note_on_c, 5, 61, 0
7, 48838, Note_on_c, 5, 64, 0
7, 48839, Note_on_c, 5, 64, 100
7, 48840, Note_on_c, 5, 61, 101
7, 48898, Note_on_c, 5, 61, 0
7, 48898, Note_on_c, 5, 64, 0
7, 48900, Note_on_c, 5, 66, 97
7, 48900, Note_on_c, 5, 63, 97
7, 49020, Note_on_c, 5, 63, 0
7, 49021, Note_on_c, 5, 66, 0
7, 50640, Note_on_c, 5, 64, 99
7, 50640, Note_on_c, 5, 61, 103
7, 50695, Note_on_c, 5, 61, 0
7, 50696, Note_on_c, 5, 64, 0
7, 50699, Note_on_c, 5, 64, 99
7, 50700, Note_on_c, 5, 61, 103
7, 50758, Note_on_c, 5, 61, 0
7, 50758, Note_on_c, 5, 64, 0
7, 50760, Note_on_c, 5, 64, 98
7, 50760, Note_on_c, 5, 61, 98
7, 50817, Note_on_c, 5, 61, 0
7, 50818, Note_on_c, 5, 64, 0
7, 50820, Note_on_c, 5, 66, 103
7, 50821, Note_on_c, 5, 63, 99
7, 50939, Note_on_c, 5, 66, 0
7, 50940, Note_on_c, 5, 63, 0
7, 50940, End_track
8, 0, Start_track
8, 0, MIDI_port, 0
8, 0, Control_c, 6, 0, 0
8, 0, Control_c, 6, 32, 0
8, 0, Program_c, 6, 29
8, 0, Control_c, 6, 7, 110
8, 0, Control_c, 6, 10, 64
8, 2, Control_c, 6, 1, 0
8, 4, Control_c, 6, 2, 0
8, 120, Control_c, 6, 11, 100
8, 120, Control_c, 6, 0, 0
8, 124, Control_c, 6, 101, 0
8, 124, Control_c, 6, 100, 0
8, 124, Control_c, 6, 6, 2
8, 124, Control_c, 6, 38, 0
8, 240, Control_c, 6, 120, 0
8, 243, Control_c, 6, 121, 0
8, 246, Control_c, 6, 123, 0
8, 255, Control_c, 6, 91, 100
8, 258, Control_c, 6, 93, 30
8, 33180, Pitch_bend_c, 6, 8192
8, 33180, Note_on_c, 6, 62, 109
8, 33181, Pitch_bend_c, 6, 8466
8, 33182, Pitch_bend_c, 6, 8739
8, 33183, Pitch_bend_c, 6, 9012
8, 33184, Pitch_bend_c, 6, 9285
8, 33185, Pitch_bend_c, 6, 9558
8, 33186, Pitch_bend_c, 6, 9831
8, 33187, Pitch_bend_c, 6, 10104
8, 33188, Pitch_bend_c, 6, 10377
8, 33189, Pitch_bend_c, 6, 10650
8, 33190, Pitch_bend_c, 6, 10923
8, 33191, Pitch_bend_c, 6, 11196
8, 33192, Pitch_bend_c, 6, 11469
8, 33193, Pitch_bend_c, 6, 11742
8, 33194, Pitch_bend_c, 6, 12015
8, 33195, Pitch_bend_c, 6, 12288
8, 33196, Pitch_bend_c, 6, 12561
8, 33197, Pitch_bend_c, 6, 12834
8, 33198, Pitch_bend_c, 6, 13107
8, 33199, Pitch_bend_c, 6, 13380
8, 33200, Pitch_bend_c, 6, 13653
8, 33201, Pitch_bend_c, 6, 13926
8, 33202, Pitch_bend_c, 6, 14199
8, 33203, Pitch_bend_c, 6, 14472
8, 33204, Pitch_bend_c, 6, 14745
8, 33205, Pitch_bend_c, 6, 15018
8, 33206, Pitch_bend_c, 6, 15291
8, 33207, Pitch_bend_c, 6, 15564
8, 33208, Pitch_bend_c, 6, 15837
8, 33209, Pitch_bend_c, 6, 16110
8, 33210, Pitch_bend_c, 6, 16383
8, 33240, Note_on_c, 6, 62, 0
8, 33240, Pitch_bend_c, 6, 8192
8, 33240, Note_on_c, 6, 64, 112
8, 33299, Note_on_c, 6, 64, 0
8, 33300, Note_on_c, 6, 64, 113
8, 33359, Note_on_c, 6, 64, 0
8, 33360, Pitch_bend_c, 6, 8192
8, 33360, Note_on_c, 6, 62, 107
8, 33361, Pitch_bend_c, 6, 8466
8, 33362, Pitch_bend_c, 6, 8739
8, 33363, Pitch_bend_c, 6, 9012
8, 33364, Pitch_bend_c, 6, 9285
8, 33365, Pitch_bend_c, 6, 9558
8, 33366, Pitch_bend_c, 6, 9831
8, 33367, Pitch_bend_c, 6, 10104
8, 33368, Pitch_bend_c, 6, 10377
8, 33369, Pitch_bend_c, 6, 10650
8, 33370, Pitch_bend_c, 6, 10923
8, 33371, Pitch_bend_c, 6, 11196
8, 33372, Pitch_bend_c, 6, 11469
8, 33373, Pitch_bend_c, 6, 11742
8, 33374, Pitch_bend_c, 6, 12015
8, 33375, Pitch_bend_c, 6, 12288
8, 33376, Pitch_bend_c, 6, 12561
8, 33377, Pitch_bend_c, 6, 12834
8, 33378, Pitch_bend_c, 6, 13107
8, 33379, Pitch_bend_c, 6, 13380
8, 33380, Pitch_bend_c, 6, 13653
8, 33381, Pitch_bend_c, 6, 13926
8, 33382, Pitch_bend_c, 6, 14199
8, 33383, Pitch_bend_c, 6, 14472
8, 33384, Pitch_bend_c, 6, 14745
8, 33385, Pitch_bend_c, 6, 15018
8, 33386, Pitch_bend_c, 6, 15291
8, 33387, Pitch_bend_c, 6, 15564
8, 33388, Pitch_bend_c, 6, 15837
8, 33389, Pitch_bend_c, 6, 16110
8, 33390, Pitch_bend_c, 6, 16383
8, 33420, Note_on_c, 6, 62, 0
8, 33421, Pitch_bend_c, 6, 8192
8, 33421, Note_on_c, 6, 64, 107
8, 33480, Note_on_c, 6, 64, 0
8, 33481, Note_on_c, 6, 64, 109
8, 33540, Note_on_c, 6, 64, 0
8, 33541, Pitch_bend_c, 6, 8192
8, 33541, Note_on_c, 6, 62, 112
8, 33541, Pitch_bend_c, 6, 8466
8, 33542, Pitch_bend_c, 6, 8739
8, 33543, Pitch_bend_c, 6, 9012
8, 33544, Pitch_bend_c, 6, 9285
8, 33545, Pitch_bend_c, 6, 9558
8, 33546, Pitch_bend_c, 6, 9831
8, 33547, Pitch_bend_c, 6, 10104
8, 33548, Pitch_bend_c, 6, 10377
8, 33549, Pitch_bend_c, 6, 10650
8, 33550, Pitch_bend_c, 6, 10923
8, 33551, Pitch_bend_c, 6, 11196
8, 33552, Pitch_bend_c, 6, 11469
8, 33553, Pitch_bend_c, 6, 11742
8, 33554, Pitch_bend_c, 6, 12015
8, 33555, Pitch_bend_c, 6, 12288
8, 33556, Pitch_bend_c, 6, 12561
8, 33557, Pitch_bend_c, 6, 12834
8, 33558, Pitch_bend_c, 6, 13107
8, 33559, Pitch_bend_c, 6, 13380
8, 33560, Pitch_bend_c, 6, 13653
8, 33561, Pitch_bend_c, 6, 13926
8, 33562, Pitch_bend_c, 6, 14199
8, 33563, Pitch_bend_c, 6, 14472
8, 33564, Pitch_bend_c, 6, 14745
8, 33565, Pitch_bend_c, 6, 15018
8, 33566, Pitch_bend_c, 6, 15291
8, 33567, Pitch_bend_c, 6, 15564
8, 33568, Pitch_bend_c, 6, 15837
8, 33569, Pitch_bend_c, 6, 16110
8, 33570, Pitch_bend_c, 6, 16383
8, 33600, Note_on_c, 6, 62, 0
8, 33600, Pitch_bend_c, 6, 8192
8, 33600, Note_on_c, 6, 64, 111
8, 33659, Note_on_c, 6, 64, 0
8, 33660, Note_on_c, 6, 64, 113
8, 33720, Note_on_c, 6, 64, 0
8, 33721, Note_on_c, 6, 64, 108
8, 33779, Note_on_c, 6, 64, 0
8, 33780, Note_on_c, 6, 64, 108
8, 33840, Note_on_c, 6, 64, 0
8, 33841, Pitch_bend_c, 6, 8192
8, 33841, Note_on_c, 6, 62, 110
8, 33841, Pitch_bend_c, 6, 8466
8, 33842, Pitch_bend_c, 6, 8739
8, 33843, Pitch_bend_c, 6, 9012
8, 33844, Pitch_bend_c, 6, 9285
8, 33845, Pitch_bend_c, 6, 9558
8, 33846, Pitch_bend_c, 6, 9831
8, 33847, Pitch_bend_c, 6, 10104
8, 33848, Pitch_bend_c, 6, 10377
8, 33849, Pitch_bend_c, 6, 10650
8, 33850, Pitch_bend_c, 6, 10923
8, 33851, Pitch_bend_c, 6, 11196
8, 33852, Pitch_bend_c, 6, 11469
8, 33853, Pitch_bend_c, 6, 11742
8, 33854, Pitch_bend_c, 6, 12015
8, 33855, Pitch_bend_c, 6, 12288
8, 33856, Pitch_bend_c, 6, 12561
8, 33857, Pitch_bend_c, 6, 12834
8, 33858, Pitch_bend_c, 6, 13107
8, 33859, Pitch_bend_c, 6, 13380
8, 33860, Pitch_bend_c, 6, 13653
8, 33861, Pitch_bend_c, 6, 13926
8, 33862, Pitch_bend_c, 6, 14199
8, 33863, Pitch_bend_c, 6, 14472
8, 33864, Pitch_bend_c, 6, 14745
8, 33865, Pitch_bend_c, 6, 15018
8, 33866, Pitch_bend_c, 6, 15291
8, 33867, Pitch_bend_c, 6, 15564
8, 33868, Pitch_bend_c, 6, 15837
8, 33869, Pitch_bend_c, 6, 16110
8, 33870, Pitch_bend_c, 6, 16383
8, 33900, Note_on_c, 6, 62, 0
8, 33900, Pitch_bend_c, 6, 8192
8, 33900, Note_on_c, 6, 64, 109
8, 33959, Note_on_c, 6, 64, 0
8, 33959, Note_on_c, 6, 64, 108
8, 34020, Note_on_c, 6, 64, 0
8, 34020, Pitch_bend_c, 6, 8192
8, 34020, Note_on_c, 6, 65, 113
8, 34020, Pitch_bend_c, 6, 8466
8, 34021, Pitch_bend_c, 6, 8739
8, 34022, Pitch_bend_c, 6, 9012
8, 34023, Pitch_bend_c, 6, 9285
8, 34024, Pitch_bend_c, 6, 9558
8, 34025, Pitch_bend_c, 6, 9831
8, 34026, Pitch_bend_c, 6, 10104
8, 34027, Pitch_bend_c, 6, 10377
8, 34028, Pitch_bend_c, 6, 10650
8, 34029, Pitch_bend_c, 6, 10923
8, 34030, Pitch_bend_c, 6, 11196
8, 34031, Pitch_bend_c, 6, 11469
8, 34032, Pitch_bend_c, 6, 11742
8, 34033, Pitch_bend_c, 6, 12015
8, 34034, Pitch_bend_c, 6, 12288
8, 34035, Pitch_bend_c, 6, 12561
8, 34036, Pitch_bend_c, 6, 12834
8, 34037, Pitch_bend_c, 6, 13107
8, 34038, Pitch_bend_c, 6, 13380
8, 34039, Pitch_bend_c, 6, 13653
8, 34040, Pitch_bend_c, 6, 13926
8, 34041, Pitch_bend_c, 6, 14199
8, 34042, Pitch_bend_c, 6, 14472
8, 34043, Pitch_bend_c, 6, 14745
8, 34044, Pitch_bend_c, 6, 15018
8, 34045, Pitch_bend_c, 6, 15291
8, 34046, Pitch_bend_c, 6, 15564
8, 34047, Pitch_bend_c, 6, 15837
8, 34048, Pitch_bend_c, 6, 16110
8, 34049, Pitch_bend_c, 6, 16383
8, 34079, Note_on_c, 6, 65, 0
8, 34080, Pitch_bend_c, 6, 8192
8, 34080, Note_on_c, 6, 67, 107
8, 34140, Note_on_c, 6, 67, 0
8, 34140, Note_on_c, 6, 67, 113
8, 34200, Note_on_c, 6, 67, 0
8, 34201, Note_on_c, 6, 67, 108
8, 34259, Note_on_c, 6, 67, 0
8, 34260, Note_on_c, 6, 67, 113
8, 34319, Note_on_c, 6, 67, 0
8, 34319, Pitch_bend_c, 6, 8192
8, 34319, Note_on_c, 6, 65, 109
8, 34320, Pitch_bend_c, 6, 8466
8, 34321, Pitch_bend_c, 6, 8739
8, 34322, Pitch_bend_c, 6, 9012
8, 34323, Pitch_bend_c, 6, 9285
8, 34324, Pitch_bend_c, 6, 9558
8, 34325, Pitch_bend_c, 6, 9831
8, 34326, Pitch_bend_c, 6, 10104
8, 34327, Pitch_bend_c, 6, 10377
8, 34328, Pitch_bend_c, 6, 10650
8, 34329, Pitch_bend_c, 6, 10923
8, 34330, Pitch_bend_c, 6, 11196
8, 34331, Pitch_bend_c, 6, 11469
8, 34332, Pitch_bend_c, 6, 11742
8, 34333, Pitch_bend_c, 6, 12015
8, 34334, Pitch_bend_c, 6, 12288
8, 34335, Pitch_bend_c, 6, 12561
8, 34336, Pitch_bend_c, 6, 12834
8, 34337, Pitch_bend_c, 6, 13107
8, 34338, Pitch_bend_c, 6, 13380
8, 34339, Pitch_bend_c, 6, 13653
8, 34340, Pitch_bend_c, 6, 13926
8, 34341, Pitch_bend_c, 6, 14199
8, 34342, Pitch_bend_c, 6, 14472
8, 34343, Pitch_bend_c, 6, 14745
8, 34344, Pitch_bend_c, 6, 15018
8, 34345, Pitch_bend_c, 6, 15291
8, 34346, Pitch_bend_c, 6, 15564
8, 34347, Pitch_bend_c, 6, 15837
8, 34348, Pitch_bend_c, 6, 16110
8, 34349, Pitch_bend_c, 6, 16383
8, 34379, Note_on_c, 6, 65, 0
8, 34379, Pitch_bend_c, 6, 8192
8, 34379, Note_on_c, 6, 67, 107
8, 34439, Note_on_c, 6, 67, 0
8, 34440, Note_on_c, 6, 67, 110
8, 34500, Note_on_c, 6, 67, 0
8, 34501, Pitch_bend_c, 6, 8192
8, 34501, Note_on_c, 6, 65, 113
8, 34501, Pitch_bend_c, 6, 8466
8, 34502, Pitch_bend_c, 6, 8739
8, 34503, Pitch_bend_c, 6, 9012
8, 34504, Pitch_bend_c, 6, 9285
8, 34505, Pitch_bend_c, 6, 9558
8, 34506, Pitch_bend_c, 6, 9831
8, 34507, Pitch_bend_c, 6, 10104
8, 34508, Pitch_bend_c, 6, 10377
8, 34509, Pitch_bend_c, 6, 10650
8, 34510, Pitch_bend_c, 6, 10923
8, 34511, Pitch_bend_c, 6, 11196
8, 34512, Pitch_bend_c, 6, 11469
8, 34513, Pitch_bend_c, 6, 11742
8, 34514, Pitch_bend_c, 6, 12015
8, 34515, Pitch_bend_c, 6, 12288
8, 34516, Pitch_bend_c, 6, 12561
8, 34517, Pitch_bend_c, 6, 12834
8, 34518, Pitch_bend_c, 6, 13107
8, 34519, Pitch_bend_c, 6, 13380
8, 34520, Pitch_bend_c, 6, 13653
8, 34521, Pitch_bend_c, 6, 13926
8, 34522, Pitch_bend_c, 6, 14199
8, 34523, Pitch_bend_c, 6, 14472
8, 34524, Pitch_bend_c, 6, 14745
8, 34525, Pitch_bend_c, 6, 15018
8, 34526, Pitch_bend_c, 6, 15291
8, 34527, Pitch_bend_c, 6, 15564
8, 34528, Pitch_bend_c, 6, 15837
8, 34529, Pitch_bend_c, 6, 16110
8, 34530, Pitch_bend_c, 6, 16383
8, 34560, Note_on_c, 6, 65, 0
8, 34560, Pitch_bend_c, 6, 8192
8, 34560, Note_on_c, 6, 69, 107
8, 34619, Note_on_c, 6, 69, 0
8, 34620, Note_on_c, 6, 67, 109
8, 34679, Note_on_c, 6, 67, 0
8, 34680, Note_on_c, 6, 69, 111
8, 34739, Note_on_c, 6, 69, 0
8, 34740, Note_on_c, 6, 69, 109
8, 34770, Pitch_bend_c, 6, 12192
8, 34800, Note_on_c, 6, 69, 0
8, 34800, Pitch_bend_c, 6, 8192
8, 34800, Note_on_c, 6, 69, 113
8, 34829, Note_on_c, 6, 69, 0
8, 34830, Note_on_c, 6, 67, 113
8, 34860, Note_on_c, 6, 67, 0
8, 34860, Note_on_c, 6, 64, 113
8, 34919, Note_on_c, 6, 64, 0
8, 34920, Note_on_c, 6, 67, 108
8, 34979, Note_on_c, 6, 67, 0
8, 34980, Note_on_c, 6, 69, 110
8, 35100, Note_on_c, 6, 69, 0
8, 35279, Pitch_bend_c, 6, 8192
8, 35280, Pitch_bend_c, 6, 8352
8, 35281, Pitch_bend_c, 6, 8512
8, 35282, Pitch_bend_c, 6, 8672
8, 35283, Pitch_bend_c, 6, 8832
8, 35284, Pitch_bend_c, 6, 8992
8, 35285, Pitch_bend_c, 6, 9152
8, 35286, Pitch_bend_c, 6, 9312
8, 35287, Pitch_bend_c, 6, 9472
8, 35288, Pitch_bend_c, 6, 9632
8, 35289, Pitch_bend_c, 6, 9792
8, 35290, Pitch_bend_c, 6, 9952
8, 35291, Pitch_bend_c, 6, 10112
8, 35292, Pitch_bend_c, 6, 10272
8, 35293, Pitch_bend_c, 6, 10432
8, 35294, Pitch_bend_c, 6, 10592
8, 35295, Pitch_bend_c, 6, 10752
8, 35296, Pitch_bend_c, 6, 10912
8, 35297, Pitch_bend_c, 6, 11072
8, 35298, Pitch_bend_c, 6, 11232
8, 35299, Pitch_bend_c, 6, 11392
8, 35300, Pitch_bend_c, 6, 11552
8, 35301, Pitch_bend_c, 6, 11712
8, 35302, Pitch_bend_c, 6, 11872
8, 35303, Pitch_bend_c, 6, 12032
8, 35304, Pitch_bend_c, 6, 12192
8, 35519, Pitch_bend_c, 6, 8192
8, 36179, Pitch_bend_c, 6, 8192
8, 36179, Note_on_c, 6, 67, 109
8, 36180, Pitch_bend_c, 6, 8466
8, 36181, Pitch_bend_c, 6, 8739
8, 36182, Pitch_bend_c, 6, 9012
8, 36183, Pitch_bend_c, 6, 9285
8, 36184, Pitch_bend_c, 6, 9558
8, 36185, Pitch_bend_c, 6, 9831
8, 36186, Pitch_bend_c, 6, 10104
8, 36187, Pitch_bend_c, 6, 10377
8, 36188, Pitch_bend_c, 6, 10650
8, 36189, Pitch_bend_c, 6, 10923
8, 36190, Pitch_bend_c, 6, 11196
8, 36191, Pitch_bend_c, 6, 11469
8, 36192, Pitch_bend_c, 6, 11742
8, 36193, Pitch_bend_c, 6, 12015
8, 36194, Pitch_bend_c, 6, 12288
8, 36195, Pitch_bend_c, 6, 12561
8, 36196, Pitch_bend_c, 6, 12834
8, 36197, Pitch_bend_c, 6, 13107
8, 36198, Pitch_bend_c, 6, 13380
8, 36199, Pitch_bend_c, 6, 13653
8, 36200, Pitch_bend_c, 6, 13926
8, 36201, Pitch_bend_c, 6, 14199
8, 36202, Pitch_bend_c, 6, 14472
8, 36203, Pitch_bend_c, 6, 14745
8, 36204, Pitch_bend_c, 6, 15018
8, 36205, Pitch_bend_c, 6, 15291
8, 36206, Pitch_bend_c, 6, 15564
8, 36207, Pitch_bend_c, 6, 15837
8, 36208, Pitch_bend_c, 6, 16110
8, 36209, Pitch_bend_c, 6, 16383
8, 36359, Note_on_c, 6, 67, 0
8, 36420, Pitch_bend_c, 6, 8192
8, 36420, Pitch_bend_c, 6, 8192
8, 36420, Note_on_c, 6, 70, 113
8, 36421, Pitch_bend_c, 6, 8466
8, 36422, Pitch_bend_c, 6, 8739
8, 36423, Pitch_bend_c, 6, 9012
8, 36424, Pitch_bend_c, 6, 9285
8, 36425, Pitch_bend_c, 6, 9558
8, 36426, Pitch_bend_c, 6, 9831
8, 36427, Pitch_bend_c, 6, 10104
8, 36428, Pitch_bend_c, 6, 10377
8, 36429, Pitch_bend_c, 6, 10650
8, 36430, Pitch_bend_c, 6, 10923
8, 36431, Pitch_bend_c, 6, 11196
8, 36432, Pitch_bend_c, 6, 11469
8, 36433, Pitch_bend_c, 6, 11742
8, 36434, Pitch_bend_c, 6, 12015
8, 36435, Pitch_bend_c, 6, 12288
8, 36436, Pitch_bend_c, 6, 12561
8, 36437, Pitch_bend_c, 6, 12834
8, 36438, Pitch_bend_c, 6, 13107
8, 36439, Pitch_bend_c, 6, 13380
8, 36440, Pitch_bend_c, 6, 13653
8, 36441, Pitch_bend_c, 6, 13926
8, 36442, Pitch_bend_c, 6, 14199
8, 36443, Pitch_bend_c, 6, 14472
8, 36444, Pitch_bend_c, 6, 14745
8, 36445, Pitch_bend_c, 6, 15018
8, 36446, Pitch_bend_c, 6, 15291
8, 36447, Pitch_bend_c, 6, 15564
8, 36448, Pitch_bend_c, 6, 15837
8, 36449, Pitch_bend_c, 6, 16110
8, 36450, Pitch_bend_c, 6, 16383
8, 36600, Note_on_c, 6, 70, 0
8, 36660, Pitch_bend_c, 6, 8192
8, 36660, Pitch_bend_c, 6, 8192
8, 36660, Note_on_c, 6, 72, 108
8, 36661, Pitch_bend_c, 6, 8466
8, 36662, Pitch_bend_c, 6, 8739
8, 36663, Pitch_bend_c, 6, 9012
8, 36664, Pitch_bend_c, 6, 9285
8, 36665, Pitch_bend_c, 6, 9558
8, 36666, Pitch_bend_c, 6, 9831
8, 36667, Pitch_bend_c, 6, 10104
8, 36668, Pitch_bend_c, 6, 10377
8, 36669, Pitch_bend_c, 6, 10650
8, 36670, Pitch_bend_c, 6, 10923
8, 36671, Pitch_bend_c, 6, 11196
8, 36672, Pitch_bend_c, 6, 11469
8, 36673, Pitch_bend_c, 6, 11742
8, 36674, Pitch_bend_c, 6, 12015
8, 36675, Pitch_bend_c, 6, 12288
8, 36676, Pitch_bend_c, 6, 12561
8, 36677, Pitch_bend_c, 6, 12834
8, 36678, Pitch_bend_c, 6, 13107
8, 36679, Pitch_bend_c, 6, 13380
8, 36680, Pitch_bend_c, 6, 13653
8, 36681, Pitch_bend_c, 6, 13926
8, 36682, Pitch_bend_c, 6, 14199
8, 36683, Pitch_bend_c, 6, 14472
8, 36684, Pitch_bend_c, 6, 14745
8, 36685, Pitch_bend_c, 6, 15018
8, 36686, Pitch_bend_c, 6, 15291
8, 36687, Pitch_bend_c, 6, 15564
8, 36688, Pitch_bend_c, 6, 15837
8, 36689, Pitch_bend_c, 6, 16110
8, 36690, Pitch_bend_c, 6, 16383
8, 36839, Note_on_c, 6, 72, 0
8, 36959, Pitch_bend_c, 6, 8192
8, 36959, End_track
9, 0, Start_track
9, 0, MIDI_port, 0
9, 0, Control_c, 7, 0, 0
9, 0, Control_c, 7, 32, 0
9, 0, Program_c, 7, 29
9, 0, Control_c, 7, 7, 110
9, 0, Control_c, 7, 10, 64
9, 2, Control_c, 7, 1, 0
9, 4, Control_c, 7, 2, 0
9, 120, Control_c, 7, 11, 100
9, 120, Control_c, 7, 0, 0
9, 124, Control_c, 7, 101, 0
9, 124, Control_c, 7, 100, 0
9, 124, Control_c, 7, 6, 2
9, 124, Control_c, 7, 38, 0
9, 240, Control_c, 7, 120, 0
9, 243, Control_c, 7, 121, 0
9, 246, Control_c, 7, 123, 0
9, 255, Control_c, 7, 91, 100
9, 258, Control_c, 7, 93, 30
9, 33120, Pitch_bend_c, 7, 8192
9, 33180, Note_on_c, 7, 69, 109
9, 33240, Note_on_c, 7, 69, 0
9, 33241, Note_on_c, 7, 69, 109
9, 33301, Note_on_c, 7, 69, 0
9, 33301, Note_on_c, 7, 69, 108
9, 33360, Note_on_c, 7, 69, 0
9, 33360, Note_on_c, 7, 69, 113
9, 33420, Note_on_c, 7, 69, 0
9, 33421, Note_on_c, 7, 69, 107
9, 33480, Note_on_c, 7, 69, 0
9, 33481, Note_on_c, 7, 69, 112
9, 33541, Note_on_c, 7, 69, 0
9, 33541, Note_on_c, 7, 69, 108
9, 33600, Note_on_c, 7, 69, 0
9, 33600, Pitch_bend_c, 7, 8192
9, 33600, Note_on_c, 7, 69, 111
9, 33660, Note_on_c, 7, 69, 0
9, 33661, Note_on_c, 7, 69, 110
9, 33721, Note_on_c, 7, 69, 0
9, 33721, Note_on_c, 7, 69, 112
9, 33780, Note_on_c, 7, 69, 0
9, 33781, Note_on_c, 7, 69, 113
9, 33840, Note_on_c, 7, 69, 0
9, 33841, Note_on_c, 7, 69, 107
9, 33901, Note_on_c, 7, 69, 0
9, 33901, Note_on_c, 7, 69, 109
9, 33960, Note_on_c, 7, 69, 0
9, 33961, Note_on_c, 7, 69, 111
9, 34020, Note_on_c, 7, 69, 0
9, 34021, Note_on_c, 7, 72, 108
9, 34080, Note_on_c, 7, 72, 0
9, 34081, Pitch_bend_c, 7, 8192
9, 34081, Note_on_c, 7, 72, 107
9, 34141, Note_on_c, 7, 72, 0
9, 34141, Note_on_c, 7, 72, 109
9, 34200, Note_on_c, 7, 72, 0
9, 34201, Note_on_c, 7, 72, 111
9, 34261, Note_on_c, 7, 72, 0
9, 34261, Note_on_c, 7, 72, 112
9, 34320, Note_on_c, 7, 72, 0
9, 34321, Note_on_c, 7, 72, 113
9, 34380, Note_on_c, 7, 72, 0
9, 34381, Note_on_c, 7, 72, 109
9, 34440, Note_on_c, 7, 72, 0
9, 34441, Note_on_c, 7, 72, 107
9, 34500, Note_on_c, 7, 72, 0
9, 34500, Note_on_c, 7, 72, 112
9, 34560, Note_on_c, 7, 72, 0
9, 34561, Pitch_bend_c, 7, 8192
9, 34561, Note_on_c, 7, 74, 110
9, 34621, Note_on_c, 7, 74, 0
9, 34621, Note_on_c, 7, 72, 112
9, 34680, Note_on_c, 7, 72, 0
9, 34681, Note_on_c, 7, 74, 113
9, 34740, Note_on_c, 7, 74, 0
9, 34740, Note_on_c, 7, 74, 113
9, 34770, Pitch_bend_c, 7, 12192
9, 34799, Note_on_c, 7, 74, 0
9, 34801, Pitch_bend_c, 7, 8192
9, 34801, Note_on_c, 7, 74, 113
9, 34831, Note_on_c, 7, 74, 0
9, 34831, Note_on_c, 7, 72, 108
9, 34860, Note_on_c, 7, 72, 0
9, 34861, Note_on_c, 7, 69, 110
9, 34921, Note_on_c, 7, 69, 0
9, 34921, Note_on_c, 7, 72, 113
9, 34980, Note_on_c, 7, 72, 0
9, 34981, Note_on_c, 7, 64, 109
9, 35101, Note_on_c, 7, 64, 0
9, 35101, Note_on_c, 7, 69, 110
9, 35102, Note_on_c, 7, 64, 113
9, 35160, Note_on_c, 7, 64, 0
9, 35160, Note_on_c, 7, 69, 0
9, 35161, Note_on_c, 7, 72, 108
9, 35221, Note_on_c, 7, 72, 0
9, 35221, Note_on_c, 7, 69, 107
9, 35280, Note_on_c, 7, 69, 0
9, 35280, Pitch_bend_c, 7, 8192
9, 35280, Note_on_c, 7, 72, 112
9, 35281, Pitch_bend_c, 7, 8352
9, 35282, Pitch_bend_c, 7, 8512
9, 35283, Pitch_bend_c, 7, 8672
9, 35284, Pitch_bend_c, 7, 8832
9, 35285, Pitch_bend_c, 7, 8992
9, 35286, Pitch_bend_c, 7, 9152
9, 35287, Pitch_bend_c, 7, 9312
9, 35288, Pitch_bend_c, 7, 9472
9, 35289, Pitch_bend_c, 7, 9632
9, 35290, Pitch_bend_c, 7, 9792
9, 35291, Pitch_bend_c, 7, 9952
9, 35292, Pitch_bend_c, 7, 10112
9, 35293, Pitch_bend_c, 7, 10272
9, 35294, Pitch_bend_c, 7, 10432
9, 35295, Pitch_bend_c, 7, 10592
9, 35296, Pitch_bend_c, 7, 10752
9, 35297, Pitch_bend_c, 7, 10912
9, 35298, Pitch_bend_c, 7, 11072
9, 35299, Pitch_bend_c, 7, 11232
9, 35300, Pitch_bend_c, 7, 11392
9, 35301, Pitch_bend_c, 7, 11552
9, 35302, Pitch_bend_c, 7, 11712
9, 35303, Pitch_bend_c, 7, 11872
9, 35304, Pitch_bend_c, 7, 12032
9, 35305, Pitch_bend_c, 7, 12192
9, 35329, Note_on_c, 7, 72, 0
9, 35341, Pitch_bend_c, 7, 8192
9, 35341, Note_on_c, 7, 71, 112
9, 35390, Note_on_c, 7, 71, 0
9, 35400, Note_on_c, 7, 69, 111
9, 35460, Note_on_c, 7, 69, 0
9, 35460, Note_on_c, 7, 66, 111
9, 35520, Pitch_bend_c, 7, 8704
9, 35521, Pitch_bend_c, 7, 8960
9, 35522, Pitch_bend_c, 7, 9216
9, 35523, Pitch_bend_c, 7, 9344
9, 35524, Pitch_bend_c, 7, 9472
9, 35525, Pitch_bend_c, 7, 9344
9, 35526, Pitch_bend_c, 7, 8576
9, 35527, Pitch_bend_c, 7, 8832
9, 35528, Pitch_bend_c, 7, 8960
9, 35529, Pitch_bend_c, 7, 9600
9, 35533, Pitch_bend_c, 7, 9728
9, 35534, Pitch_bend_c, 7, 9600
9, 35535, Pitch_bend_c, 7, 9088
9, 35536, Pitch_bend_c, 7, 8960
9, 35538, Pitch_bend_c, 7, 9216
9, 35539, Pitch_bend_c, 7, 9600
9, 35540, Pitch_bend_c, 7, 9472
9, 35541, Pitch_bend_c, 7, 9216
9, 35542, Pitch_bend_c, 7, 8960
9, 35543, Pitch_bend_c, 7, 9088
9, 35544, Pitch_bend_c, 7, 9600
9, 35545, Pitch_bend_c, 7, 9472
9, 35546, Pitch_bend_c, 7, 9088
9, 35547, Pitch_bend_c, 7, 8704
9, 35548, Pitch_bend_c, 7, 9088
9, 35549, Pitch_bend_c, 7, 10112
9, 35551, Pitch_bend_c, 7, 9600
9, 35552, Pitch_bend_c, 7, 9344
9, 35553, Pitch_bend_c, 7, 9472
9, 35554, Pitch_bend_c, 7, 9856
9, 35555, Pitch_bend_c, 7, 9344
9, 35558, Pitch_bend_c, 7, 9472
9, 35559, Pitch_bend_c, 7, 8576
9, 35560, Pitch_bend_c, 7, 8960
9, 35563, Pitch_bend_c, 7, 9216
9, 35564, Pitch_bend_c, 7, 8960
9, 35565, Pitch_bend_c, 7, 11136
9, 35569, Pitch_bend_c, 7, 10112
9, 35578, Pitch_bend_c, 7, 9856
9, 35579, Pitch_bend_c, 7, 8704
9, 35580, Pitch_bend_c, 7, 8448
9, 35581, Pitch_bend_c, 7, 8192
9, 35700, Note_on_c, 7, 66, 0
9, 35701, Pitch_bend_c, 7, 8192
9, 35701, Note_on_c, 7, 76, 107
9, 35702, Pitch_bend_c, 7, 8466
9, 35703, Pitch_bend_c, 7, 8739
9, 35704, Pitch_bend_c, 7, 9012
9, 35705, Pitch_bend_c, 7, 9285
9, 35706, Pitch_bend_c, 7, 9558
9, 35707, Pitch_bend_c, 7, 9831
9, 35708, Pitch_bend_c, 7, 10104
9, 35709, Pitch_bend_c, 7, 10377
9, 35710, Pitch_bend_c, 7, 10650
9, 35711, Pitch_bend_c, 7, 10923
9, 35712, Pitch_bend_c, 7, 11196
9, 35713, Pitch_bend_c, 7, 11469
9, 35714, Pitch_bend_c, 7, 11742
9, 35715, Pitch_bend_c, 7, 12015
9, 35716, Pitch_bend_c, 7, 12288
9, 35717, Pitch_bend_c, 7, 12561
9, 35718, Pitch_bend_c, 7, 12834
9, 35719, Pitch_bend_c, 7, 13107
9, 35720, Pitch_bend_c, 7, 13380
9, 35721, Pitch_bend_c, 7, 13653
9, 35722, Pitch_bend_c, 7, 13926
9, 35723, Pitch_bend_c, 7, 14199
9, 35724, Pitch_bend_c, 7, 14472
9, 35725, Pitch_bend_c, 7, 14745
9, 35726, Pitch_bend_c, 7, 15018
9, 35727, Pitch_bend_c, 7, 15291
9, 35728, Pitch_bend_c, 7, 15564
9, 35729, Pitch_bend_c, 7, 15837
9, 35730, Pitch_bend_c, 7, 16110
9, 35731, Pitch_bend_c, 7, 16383
9, 35821, Note_on_c, 7, 76, 0
9, 35821, Pitch_bend_c, 7, 8192
9, 35821, Note_on_c, 7, 76, 108
9, 35850, Note_on_c, 7, 76, 0
9, 35851, Note_on_c, 7, 74, 112
9, 35880, Note_on_c, 7, 74, 0
9, 35881, Pitch_bend_c, 7, 8192
9, 35881, Note_on_c, 7, 72, 110
9, 35881, Pitch_bend_c, 7, 8326
9, 35882, Pitch_bend_c, 7, 8459
9, 35883, Pitch_bend_c, 7, 8592
9, 35884, Pitch_bend_c, 7, 8726
9, 35885, Pitch_bend_c, 7, 8859
9, 35886, Pitch_bend_c, 7, 8992
9, 35887, Pitch_bend_c, 7, 9126
9, 35888, Pitch_bend_c, 7, 9259
9, 35889, Pitch_bend_c, 7, 9392
9, 35890, Pitch_bend_c, 7, 9526
9, 35891, Pitch_bend_c, 7, 9659
9, 35892, Pitch_bend_c, 7, 9792
9, 35893, Pitch_bend_c, 7, 9926
9, 35894, Pitch_bend_c, 7, 10059
9, 35895, Pitch_bend_c, 7, 10192
9, 35896, Pitch_bend_c, 7, 10326
9, 35897, Pitch_bend_c, 7, 10459
9, 35898, Pitch_bend_c, 7, 10592
9, 35899, Pitch_bend_c, 7, 10726
9, 35900, Pitch_bend_c, 7, 10859
9, 35901, Pitch_bend_c, 7, 10992
9, 35902, Pitch_bend_c, 7, 11126
9, 35903, Pitch_bend_c, 7, 11259
9, 35904, Pitch_bend_c, 7, 11392
9, 35905, Pitch_bend_c, 7, 11526
9, 35906, Pitch_bend_c, 7, 11659
9, 35907, Pitch_bend_c, 7, 11792
9, 35908, Pitch_bend_c, 7, 11926
9, 35909, Pitch_bend_c, 7, 12059
9, 35910, Pitch_bend_c, 7, 12192
9, 35925, Note_on_c, 7, 72, 0
9, 35940, Pitch_bend_c, 7, 8192
9, 35940, Note_on_c, 7, 69, 109
9, 36044, Pitch_bend_c, 7, 8704
9, 36045, Pitch_bend_c, 7, 8960
9, 36046, Pitch_bend_c, 7, 9216
9, 36047, Pitch_bend_c, 7, 9344
9, 36048, Pitch_bend_c, 7, 9472
9, 36049, Pitch_bend_c, 7, 9344
9, 36050, Pitch_bend_c, 7, 8576
9, 36051, Pitch_bend_c, 7, 8832
9, 36052, Pitch_bend_c, 7, 8960
9, 36053, Pitch_bend_c, 7, 9600
9, 36057, Pitch_bend_c, 7, 9728
9, 36058, Pitch_bend_c, 7, 9600
9, 36059, Pitch_bend_c, 7, 9088
9, 36060, Pitch_bend_c, 7, 8960
9, 36062, Pitch_bend_c, 7, 9216
9, 36063, Pitch_bend_c, 7, 9600
9, 36064, Pitch_bend_c, 7, 9472
9, 36065, Pitch_bend_c, 7, 9216
9, 36066, Pitch_bend_c, 7, 8960
9, 36067, Pitch_bend_c, 7, 9088
9, 36068, Pitch_bend_c, 7, 9600
9, 36069, Pitch_bend_c, 7, 9472
9, 36070, Pitch_bend_c, 7, 9088
9, 36071, Pitch_bend_c, 7, 8704
9, 36072, Pitch_bend_c, 7, 9088
9, 36073, Pitch_bend_c, 7, 10112
9, 36075, Pitch_bend_c, 7, 9600
9, 36076, Pitch_bend_c, 7, 9344
9, 36077, Pitch_bend_c, 7, 9472
9, 36078, Pitch_bend_c, 7, 9856
9, 36079, Pitch_bend_c, 7, 9344
9, 36082, Pitch_bend_c, 7, 9472
9, 36083, Pitch_bend_c, 7, 8576
9, 36084, Pitch_bend_c, 7, 8960
9, 36087, Pitch_bend_c, 7, 9216
9, 36088, Pitch_bend_c, 7, 8960
9, 36089, Pitch_bend_c, 7, 11136
9, 36093, Pitch_bend_c, 7, 10112
9, 36102, Pitch_bend_c, 7, 9856
9, 36103, Pitch_bend_c, 7, 8704
9, 36104, Pitch_bend_c, 7, 8448
9, 36105, Pitch_bend_c, 7, 8192
9, 36107, Pitch_bend_c, 7, 8064
9, 36120, Note_on_c, 7, 69, 0
9, 36180, Pitch_bend_c, 7, 8192
9, 36180, Note_on_c, 7, 69, 113
9, 36240, Pitch_bend_c, 7, 8704
9, 36241, Pitch_bend_c, 7, 8960
9, 36242, Pitch_bend_c, 7, 9216
9, 36243, Pitch_bend_c, 7, 9344
9, 36244, Pitch_bend_c, 7, 9472
9, 36245, Pitch_bend_c, 7, 9344
9, 36246, Pitch_bend_c, 7, 8576
9, 36247, Pitch_bend_c, 7, 8832
9, 36248, Pitch_bend_c, 7, 8960
9, 36249, Pitch_bend_c, 7, 9600
9, 36253, Pitch_bend_c, 7, 9728
9, 36254, Pitch_bend_c, 7, 9600
9, 36255, Pitch_bend_c, 7, 9088
9, 36256, Pitch_bend_c, 7, 8960
9, 36258, Pitch_bend_c, 7, 9216
9, 36259, Pitch_bend_c, 7, 9600
9, 36260, Pitch_bend_c, 7, 9472
9, 36261, Pitch_bend_c, 7, 9216
9, 36262, Pitch_bend_c, 7, 8960
9, 36263, Pitch_bend_c, 7, 9088
9, 36264, Pitch_bend_c, 7, 9600
9, 36265, Pitch_bend_c, 7, 9472
9, 36266, Pitch_bend_c, 7, 9088
9, 36267, Pitch_bend_c, 7, 8704
9, 36268, Pitch_bend_c, 7, 9088
9, 36269, Pitch_bend_c, 7, 10112
9, 36271, Pitch_bend_c, 7, 9600
9, 36272, Pitch_bend_c, 7, 9344
9, 36273, Pitch_bend_c, 7, 9472
9, 36274, Pitch_bend_c, 7, 9856
9, 36275, Pitch_bend_c, 7, 9344
9, 36278, Pitch_bend_c, 7, 9472
9, 36279, Pitch_bend_c, 7, 8576
9, 36280, Pitch_bend_c, 7, 8960
9, 36283, Pitch_bend_c, 7, 9216
9, 36284, Pitch_bend_c, 7, 8960
9, 36285, Pitch_bend_c, 7, 11136
9, 36289, Pitch_bend_c, 7, 10112
9, 36298, Pitch_bend_c, 7, 9856
9, 36299, Pitch_bend_c, 7, 8704
9, 36300, Pitch_bend_c, 7, 8448
9, 36301, Pitch_bend_c, 7, 8192
9, 36360, Note_on_c, 7, 69, 0
9, 36420, Note_on_c, 7, 72, 112
9, 36481, Pitch_bend_c, 7, 8704
9, 36482, Pitch_bend_c, 7, 8960
9, 36483, Pitch_bend_c, 7, 9216
9, 36484, Pitch_bend_c, 7, 9344
9, 36485, Pitch_bend_c, 7, 9472
9, 36486, Pitch_bend_c, 7, 9344
9, 36487, Pitch_bend_c, 7, 8576
9, 36488, Pitch_bend_c, 7, 8832
9, 36489, Pitch_bend_c, 7, 8960
9, 36490, Pitch_bend_c, 7, 9600
9, 36494, Pitch_bend_c, 7, 9728
9, 36495, Pitch_bend_c, 7, 9600
9, 36496, Pitch_bend_c, 7, 9088
9, 36497, Pitch_bend_c, 7, 8960
9, 36499, Pitch_bend_c, 7, 9216
9, 36500, Pitch_bend_c, 7, 9600
9, 36501, Pitch_bend_c, 7, 9472
9, 36502, Pitch_bend_c, 7, 9216
9, 36503, Pitch_bend_c, 7, 8960
9, 36504, Pitch_bend_c, 7, 9088
9, 36505, Pitch_bend_c, 7, 9600
9, 36506, Pitch_bend_c, 7, 9472
9, 36507, Pitch_bend_c, 7, 9088
9, 36508, Pitch_bend_c, 7, 8704
9, 36509, Pitch_bend_c, 7, 9088
9, 36510, Pitch_bend_c, 7, 10112
9, 36512, Pitch_bend_c, 7, 9600
9, 36513, Pitch_bend_c, 7, 9344
9, 36514, Pitch_bend_c, 7, 9472
9, 36515, Pitch_bend_c, 7, 9856
9, 36516, Pitch_bend_c, 7, 9344
9, 36519, Pitch_bend_c, 7, 9472
9, 36520, Pitch_bend_c, 7, 8576
9, 36521, Pitch_bend_c, 7, 8960
9, 36524, Pitch_bend_c, 7, 9216
9, 36525, Pitch_bend_c, 7, 8960
9, 36526, Pitch_bend_c, 7, 11136
9, 36530, Pitch_bend_c, 7, 10112
9, 36539, Pitch_bend_c, 7, 9856
9, 36540, Pitch_bend_c, 7, 8704
9, 36541, Pitch_bend_c, 7, 8448
9, 36542, Pitch_bend_c, 7, 8192
9, 36600, Note_on_c, 7, 72, 0
9, 36660, Note_on_c, 7, 74, 108
9, 36720, Pitch_bend_c, 7, 8704
9, 36721, Pitch_bend_c, 7, 8960
9, 36722, Pitch_bend_c, 7, 9216
9, 36723, Pitch_bend_c, 7, 9344
9, 36724, Pitch_bend_c, 7, 9472
9, 36725, Pitch_bend_c, 7, 9344
9, 36726, Pitch_bend_c, 7, 8576
9, 36727, Pitch_bend_c, 7, 8832
9, 36728, Pitch_bend_c, 7, 8960
9, 36729, Pitch_bend_c, 7, 9600
9, 36733, Pitch_bend_c, 7, 9728
9, 36734, Pitch_bend_c, 7, 9600
9, 36735, Pitch_bend_c, 7, 9088
9, 36736, Pitch_bend_c, 7, 8960
9, 36738, Pitch_bend_c, 7, 9216
9, 36739, Pitch_bend_c, 7, 9600
9, 36740, Pitch_bend_c, 7, 9472
9, 36741, Pitch_bend_c, 7, 9216
9, 36742, Pitch_bend_c, 7, 8960
9, 36743, Pitch_bend_c, 7, 9088
9, 36744, Pitch_bend_c, 7, 9600
9, 36745, Pitch_bend_c, 7, 9472
9, 36746, Pitch_bend_c, 7, 9088
9, 36747, Pitch_bend_c, 7, 8704
9, 36748, Pitch_bend_c, 7, 9088
9, 36749, Pitch_bend_c, 7, 10112
9, 36751, Pitch_bend_c, 7, 9600
9, 36752, Pitch_bend_c, 7, 9344
9, 36753, Pitch_bend_c, 7, 9472
9, 36754, Pitch_bend_c, 7, 9856
9, 36755, Pitch_bend_c, 7, 9344
9, 36758, Pitch_bend_c, 7, 9472
9, 36759, Pitch_bend_c, 7, 8576
9, 36760, Pitch_bend_c, 7, 8960
9, 36763, Pitch_bend_c, 7, 9216
9, 36764, Pitch_bend_c, 7, 8960
9, 36765, Pitch_bend_c, 7, 11136
9, 36769, Pitch_bend_c, 7, 10112
9, 36778, Pitch_bend_c, 7, 9856
9, 36779, Pitch_bend_c, 7, 8704
9, 36780, Pitch_bend_c, 7, 8448
9, 36781, Pitch_bend_c, 7, 8192
9, 36840, Note_on_c, 7, 74, 0
9, 36840, End_track
10, 0, Start_track
10, 0, MIDI_port, 0
10, 0, Control_c, 9, 0, 0
10, 0, Control_c, 9, 32, 0
10, 0, Program_c, 9, 16
10, 0, Control_c, 9, 7, 115
10, 0, Control_c, 9, 10, 64
10, 2, Control_c, 9, 1, 0
10, 4, Control_c, 9, 2, 0
10, 120, Control_c, 9, 11, 100
10, 120, Control_c, 9, 0, 0
10, 124, Control_c, 9, 101, 0
10, 124, Control_c, 9, 100, 0
10, 124, Control_c, 9, 6, 2
10, 124, Control_c, 9, 38, 0
10, 240, Control_c, 9, 120, 0
10, 243, Control_c, 9, 121, 0
10, 246, Control_c, 9, 123, 0
10, 255, Control_c, 9, 91, 40
10, 258, Control_c, 9, 93, 0
10, 480, Note_on_c, 9, 36, 124
10, 480, Note_on_c, 9, 42, 110
10, 510, Note_on_c, 9, 42, 0
10, 510, Note_on_c, 9, 36, 0
10, 600, Note_on_c, 9, 38, 121
10, 601, Note_on_c, 9, 42, 108
10, 630, Note_on_c, 9, 38, 0
10, 631, Note_on_c, 9, 42, 0
10, 660, Note_on_c, 9, 42, 107
10, 690, Note_on_c, 9, 42, 0
10, 721, Note_on_c, 9, 36, 124
10, 722, Note_on_c, 9, 42, 110
10, 751, Note_on_c, 9, 36, 0
10, 752, Note_on_c, 9, 42, 0
10, 780, Note_on_c, 9, 36, 123
10, 780, Note_on_c, 9, 42, 108
10, 810, Note_on_c, 9, 42, 0
10, 810, Note_on_c, 9, 36, 0
10, 841, Note_on_c, 9, 38, 123
10, 841, Note_on_c, 9, 42, 107
10, 871, Note_on_c, 9, 42, 0
10, 871, Note_on_c, 9, 38, 0
10, 901, Note_on_c, 9, 36, 120
10, 901, Note_on_c, 9, 42, 108
10, 931, Note_on_c, 9, 42, 0
10, 931, Note_on_c, 9, 36, 0
10, 960, Note_on_c, 9, 42, 113
10, 990, Note_on_c, 9, 42, 0
10, 1020, Note_on_c, 9, 42, 113
10, 1050, Note_on_c, 9, 42, 0
10, 1081, Note_on_c, 9, 38, 122
10, 1081, Note_on_c, 9, 42, 111
10, 1111, Note_on_c, 9, 42, 0
10, 1111, Note_on_c, 9, 38, 0
10, 1140, Note_on_c, 9, 42, 112
10, 1170, Note_on_c, 9, 42, 0
10, 1200, Note_on_c, 9, 36, 118
10, 1201, Note_on_c, 9, 42, 109
10, 1230, Note_on_c, 9, 36, 0
10, 1231, Note_on_c, 9, 42, 0
10, 1260, Note_on_c, 9, 36, 123
10, 1261, Note_on_c, 9, 42, 112
10, 1290, Note_on_c, 9, 36, 0
10, 1291, Note_on_c, 9, 42, 0
10, 1321, Note_on_c, 9, 38, 120
10, 1321, Note_on_c, 9, 42, 108
10, 1351, Note_on_c, 9, 42, 0
10, 1351, Note_on_c, 9, 38, 0
10, 1381, Note_on_c, 9, 36, 122
10, 1381, Note_on_c, 9, 42, 111
10, 1411, Note_on_c, 9, 42, 0
10, 1411, Note_on_c, 9, 36, 0
10, 1440, Note_on_c, 9, 42, 109
10, 1470, Note_on_c, 9, 42, 0
10, 1501, Note_on_c, 9, 42, 107
10, 1531, Note_on_c, 9, 42, 0
10, 1560, Note_on_c, 9, 38, 122
10, 1561, Note_on_c, 9, 42, 108
10, 1590, Note_on_c, 9, 38, 0
10, 1591, Note_on_c, 9, 42, 0
10, 1620, Note_on_c, 9, 42, 109
10, 1650, Note_on_c, 9, 42, 0
10, 1681, Note_on_c, 9, 36, 118
10, 1682, Note_on_c, 9, 42, 109
10, 1711, Note_on_c, 9, 36, 0
10, 1712, Note_on_c, 9, 42, 0
10, 1741, Note_on_c, 9, 36, 123
10, 1741, Note_on_c, 9, 42, 113
10, 1771, Note_on_c, 9, 42, 0
10, 1771, Note_on_c, 9, 36, 0
10, 1801, Note_on_c, 9, 38, 119
10, 1801, Note_on_c, 9, 42, 109
10, 1831, Note_on_c, 9, 42, 0
10, 1831, Note_on_c, 9, 38, 0
10, 1860, Note_on_c, 9, 36, 124
10, 1860, Note_on_c, 9, 42, 111
10, 1890, Note_on_c, 9, 42, 0
10, 1890, Note_on_c, 9, 36, 0
10, 1921, Note_on_c, 9, 42, 107
10, 1951, Note_on_c, 9, 42, 0
10, 1980, Note_on_c, 9, 42, 110
10, 2010, Note_on_c, 9, 42, 0
10, 2039, Note_on_c, 9, 38, 124
10, 2040, Note_on_c, 9, 42, 107
10, 2069, Note_on_c, 9, 38, 0
10, 2070, Note_on_c, 9, 42, 0
10, 2099, Note_on_c, 9, 42, 113
10, 2129, Note_on_c, 9, 42, 0
10, 2160, Note_on_c, 9, 36, 122
10, 2161, Note_on_c, 9, 42, 113
10, 2190, Note_on_c, 9, 36, 0
10, 2191, Note_on_c, 9, 42, 0
10, 2219, Note_on_c, 9, 36, 123
10, 2219, Note_on_c, 9, 42, 111
10, 2249, Note_on_c, 9, 42, 0
10, 2249, Note_on_c, 9, 36, 0
10, 2280, Note_on_c, 9, 38, 121
10, 2281, Note_on_c, 9, 42, 107
10, 2310, Note_on_c, 9, 38, 0
10, 2311, Note_on_c, 9, 42, 0
10, 2340, Note_on_c, 9, 36, 120
10, 2341, Note_on_c, 9, 49, 108
10, 2370, Note_on_c, 9, 36, 0
10, 2371, Note_on_c, 9, 49, 0
10, 2400, Note_on_c, 9, 42, 110
10, 2430, Note_on_c, 9, 42, 0
10, 2460, Note_on_c, 9, 42, 113
10, 2490, Note_on_c, 9, 42, 0
10, 2520, Note_on_c, 9, 38, 120
10, 2521, Note_on_c, 9, 42, 111
10, 2550, Note_on_c, 9, 38, 0
10, 2551, Note_on_c, 9, 42, 0
10, 2580, Note_on_c, 9, 42, 108
10, 2610, Note_on_c, 9, 42, 0
10, 2641, Note_on_c, 9, 36, 121
10, 2641, Note_on_c, 9, 42, 111
10, 2671, Note_on_c, 9, 42, 0
10, 2671, Note_on_c, 9, 36, 0
10, 2699, Note_on_c, 9, 36, 119
10, 2700, Note_on_c, 9, 42, 110
10, 2729, Note_on_c, 9, 36, 0
10, 2730, Note_on_c, 9, 42, 0
10, 2759, Note_on_c, 9, 38, 120
10, 2760, Note_on_c, 9, 42, 112
10, 2789, Note_on_c, 9, 38, 0
10, 2790, Note_on_c, 9, 42, 0
10, 2821, Note_on_c, 9, 36, 118
10, 2822, Note_on_c, 9, 42, 111
10, 2851, Note_on_c, 9, 36, 0
10, 2852, Note_on_c, 9, 42, 0
10, 2881, Note_on_c, 9, 42, 111
10, 2911, Note_on_c, 9, 42, 0
10, 2940, Note_on_c, 9, 42, 113
10, 2970, Note_on_c, 9, 42, 0
10, 2999, Note_on_c, 9, 38, 120
10, 2999, Note_on_c, 9, 42, 110
10, 3029, Note_on_c, 9, 42, 0
10, 3029, Note_on_c, 9, 38, 0
10, 3060, Note_on_c, 9, 42, 107
10, 3090, Note_on_c, 9, 42, 0
10, 3120, Note_on_c, 9, 36, 118
10, 3121, Note_on_c, 9, 42, 113
10, 3150, Note_on_c, 9, 36, 0
10, 3151, Note_on_c, 9, 42, 0
10, 3181, Note_on_c, 9, 36, 123
10, 3181, Note_on_c, 9, 42, 111
10, 3211, Note_on_c, 9, 42, 0
10, 3211, Note_on_c, 9, 36, 0
10, 3240, Note_on_c, 9, 38, 124
10, 3240, Note_on_c, 9, 42, 111
10, 3270, Note_on_c, 9, 42, 0
10, 3270, Note_on_c, 9, 38, 0
10, 3301, Note_on_c, 9, 36, 121
10, 3301, Note_on_c, 9, 42, 110
10, 3331, Note_on_c, 9, 42, 0
10, 3331, Note_on_c, 9, 36, 0
10, 3361, Note_on_c, 9, 42, 110
10, 3391, Note_on_c, 9, 42, 0
10, 3420, Note_on_c, 9, 42, 112
10, 3450, Note_on_c, 9, 42, 0
10, 3481, Note_on_c, 9, 38, 122
10, 3481, Note_on_c, 9, 42, 110
10, 3511, Note_on_c, 9, 42, 0
10, 3511, Note_on_c, 9, 38, 0
10, 3540, Note_on_c, 9, 42, 110
10, 3570, Note_on_c, 9, 42, 0
10, 3599, Note_on_c, 9, 36, 118
10, 3599, Note_on_c, 9, 42, 112
10, 3629, Note_on_c, 9, 42, 0
10, 3629, Note_on_c, 9, 36, 0
10, 3660, Note_on_c, 9, 36, 122
10, 3661, Note_on_c, 9, 42, 113
10, 3690, Note_on_c, 9, 36, 0
10, 3691, Note_on_c, 9, 42, 0
10, 3721, Note_on_c, 9, 38, 122
10, 3721, Note_on_c, 9, 42, 112
10, 3751, Note_on_c, 9, 42, 0
10, 3751, Note_on_c, 9, 38, 0
10, 3781, Note_on_c, 9, 36, 122
10, 3781, Note_on_c, 9, 42, 111
10, 3811, Note_on_c, 9, 42, 0
10, 3811, Note_on_c, 9, 36, 0
10, 3841, Note_on_c, 9, 42, 109
10, 3871, Note_on_c, 9, 42, 0
10, 3900, Note_on_c, 9, 42, 112
10, 3930, Note_on_c, 9, 42, 0
10, 3960, Note_on_c, 9, 38, 122
10, 3960, Note_on_c, 9, 42, 108
10, 3990, Note_on_c, 9, 42, 0
10, 3990, Note_on_c, 9, 38, 0
10, 4019, Note_on_c, 9, 42, 109
10, 4049, Note_on_c, 9, 42, 0
10, 4080, Note_on_c, 9, 36, 120
10, 4081, Note_on_c, 9, 42, 109
10, 4110, Note_on_c, 9, 36, 0
10, 4111, Note_on_c, 9, 42, 0
10, 4140, Note_on_c, 9, 36, 124
10, 4140, Note_on_c, 9, 42, 110
10, 4170, Note_on_c, 9, 42, 0
10, 4170, Note_on_c, 9, 36, 0
10, 4201, Note_on_c, 9, 38, 124
10, 4202, Note_on_c, 9, 42, 107
10, 4231, Note_on_c, 9, 38, 0
10, 4232, Note_on_c, 9, 42, 0
10, 4261, Note_on_c, 9, 36, 121
10, 4262, Note_on_c, 9, 42, 112
10, 4291, Note_on_c, 9, 36, 0
10, 4292, Note_on_c, 9, 42, 0
10, 4320, Note_on_c, 9, 42, 107
10, 4350, Note_on_c, 9, 42, 0
10, 4380, Note_on_c, 9, 42, 109
10, 4410, Note_on_c, 9, 42, 0
10, 4440, Note_on_c, 9, 38, 120
10, 4441, Note_on_c, 9, 42, 108
10, 4470, Note_on_c, 9, 38, 0
10, 4471, Note_on_c, 9, 42, 0
10, 4500, Note_on_c, 9, 42, 111
10, 4530, Note_on_c, 9, 42, 0
10, 4561, Note_on_c, 9, 36, 119
10, 4562, Note_on_c, 9, 42, 110
10, 4591, Note_on_c, 9, 36, 0
10, 4592, Note_on_c, 9, 42, 0
10, 4621, Note_on_c, 9, 36, 124
10, 4621, Note_on_c, 9, 42, 107
10, 4651, Note_on_c, 9, 42, 0
10, 4651, Note_on_c, 9, 36, 0
10, 4680, Note_on_c, 9, 38, 120
10, 4680, Note_on_c, 9, 42, 113
10, 4710, Note_on_c, 9, 42, 0
10, 4710, Note_on_c, 9, 38, 0
10, 4741, Note_on_c, 9, 36, 119
10, 4742, Note_on_c, 9, 42, 111
10, 4771, Note_on_c, 9, 36, 0
10, 4772, Note_on_c, 9, 42, 0
10, 4801, Note_on_c, 9, 42, 107
10, 4831, Note_on_c, 9, 42, 0
10, 4861, Note_on_c, 9, 42, 112
10, 4891, Note_on_c, 9, 42, 0
10, 4920, Note_on_c, 9, 38, 120
10, 4920, Note_on_c, 9, 42, 109
10, 4950, Note_on_c, 9, 42, 0
10, 4950, Note_on_c, 9, 38, 0
10, 4980, Note_on_c, 9, 42, 108
10, 5010, Note_on_c, 9, 42, 0
10, 5041, Note_on_c, 9, 36, 122
10, 5042, Note_on_c, 9, 42, 108
10, 5071, Note_on_c, 9, 36, 0
10, 5072, Note_on_c, 9, 42, 0
10, 5099, Note_on_c, 9, 36, 121
10, 5099, Note_on_c, 9, 42, 112
10, 5129, Note_on_c, 9, 42, 0
10, 5129, Note_on_c, 9, 36, 0
10, 5161, Note_on_c, 9, 38, 118
10, 5161, Note_on_c, 9, 42, 110
10, 5191, Note_on_c, 9, 42, 0
10, 5191, Note_on_c, 9, 38, 0
10, 5220, Note_on_c, 9, 36, 119
10, 5221, Note_on_c, 9, 42, 107
10, 5250, Note_on_c, 9, 36, 0
10, 5251, Note_on_c, 9, 42, 0
10, 5281, Note_on_c, 9, 42, 112
10, 5311, Note_on_c, 9, 42, 0
10, 5340, Note_on_c, 9, 42, 111
10, 5370, Note_on_c, 9, 42, 0
10, 5401, Note_on_c, 9, 38, 121
10, 5401, Note_on_c, 9, 42, 110
10, 5431, Note_on_c, 9, 42, 0
10, 5431, Note_on_c, 9, 38, 0
10, 5460, Note_on_c, 9, 42, 110
10, 5490, Note_on_c, 9, 42, 0
10, 5521, Note_on_c, 9, 36, 123
10, 5522, Note_on_c, 9, 42, 113
10, 5551, Note_on_c, 9, 36, 0
10, 5552, Note_on_c, 9, 42, 0
10, 5580, Note_on_c, 9, 36, 118
10, 5581, Note_on_c, 9, 42, 110
10, 5610, Note_on_c, 9, 36, 0
10, 5611, Note_on_c, 9, 42, 0
10, 5639, Note_on_c, 9, 38, 119
10, 5640, Note_on_c, 9, 42, 110
10, 5669, Note_on_c, 9, 38, 0
10, 5670, Note_on_c, 9, 42, 0
10, 5701, Note_on_c, 9, 36, 123
10, 5701, Note_on_c, 9, 42, 113
10, 5731, Note_on_c, 9, 42, 0
10, 5731, Note_on_c, 9, 36, 0
10, 5761, Note_on_c, 9, 42, 112
10, 5791, Note_on_c, 9, 42, 0
10, 5821, Note_on_c, 9, 42, 109
10, 5851, Note_on_c, 9, 42, 0
10, 5880, Note_on_c, 9, 38, 124
10, 5880, Note_on_c, 9, 42, 111
10, 5910, Note_on_c, 9, 42, 0
10, 5910, Note_on_c, 9, 38, 0
10, 5941, Note_on_c, 9, 42, 110
10, 5971, Note_on_c, 9, 42, 0
10, 6000, Note_on_c, 9, 36, 123
10, 6001, Note_on_c, 9, 42, 107
10, 6030, Note_on_c, 9, 36, 0
10, 6031, Note_on_c, 9, 42, 0
10, 6060, Note_on_c, 9, 36, 118
10, 6060, Note_on_c, 9, 42, 112
10, 6090, Note_on_c, 9, 42, 0
10, 6090, Note_on_c, 9, 36, 0
10, 6120, Note_on_c, 9, 38, 119
10, 6120, Note_on_c, 9, 42, 113
10, 6150, Note_on_c, 9, 42, 0
10, 6150, Note_on_c, 9, 38, 0
10, 6181, Note_on_c, 9, 36, 118
10, 6181, Note_on_c, 9, 49, 109
10, 6211, Note_on_c, 9, 49, 0
10, 6211, Note_on_c, 9, 36, 0
10, 6240, Note_on_c, 9, 42, 107
10, 6270, Note_on_c, 9, 42, 0
10, 6301, Note_on_c, 9, 42, 113
10, 6331, Note_on_c, 9, 42, 0
10, 6359, Note_on_c, 9, 38, 124
10, 6360, Note_on_c, 9, 42, 113
10, 6389, Note_on_c, 9, 38, 0
10, 6390, Note_on_c, 9, 42, 0
10, 6420, Note_on_c, 9, 42, 109
10, 6450, Note_on_c, 9, 42, 0
10, 6481, Note_on_c, 9, 36, 118
10, 6481, Note_on_c, 9, 42, 109
10, 6511, Note_on_c, 9, 42, 0
10, 6511, Note_on_c, 9, 36, 0
10, 6540, Note_on_c, 9, 36, 120
10, 6540, Note_on_c, 9, 42, 109
10, 6570, Note_on_c, 9, 42, 0
10, 6570, Note_on_c, 9, 36, 0
10, 6600, Note_on_c, 9, 38, 124
10, 6601, Note_on_c, 9, 42, 113
10, 6630, Note_on_c, 9, 38, 0
10, 6631, Note_on_c, 9, 42, 0
10, 6661, Note_on_c, 9, 36, 122
10, 6661, Note_on_c, 9, 42, 110
10, 6691, Note_on_c, 9, 42, 0
10, 6691, Note_on_c, 9, 36, 0
10, 6720, Note_on_c, 9, 42, 109
10, 6750, Note_on_c, 9, 42, 0
10, 6781, Note_on_c, 9, 42, 111
10, 6811, Note_on_c, 9, 42, 0
10, 6840, Note_on_c, 9, 38, 121
10, 6841, Note_on_c, 9, 42, 111
10, 6870, Note_on_c, 9, 38, 0
10, 6871, Note_on_c, 9, 42, 0
10, 6900, Note_on_c, 9, 42, 111
10, 6930, Note_on_c, 9, 42, 0
10, 6960, Note_on_c, 9, 36, 120
10, 6961, Note_on_c, 9, 42, 113
10, 6990, Note_on_c, 9, 36, 0
10, 6991, Note_on_c, 9, 42, 0
10, 7021, Note_on_c, 9, 36, 122
10, 7021, Note_on_c, 9, 42, 109
10, 7051, Note_on_c, 9, 42, 0
10, 7051, Note_on_c, 9, 36, 0
10, 7081, Note_on_c, 9, 38, 122
10, 7081, Note_on_c, 9, 42, 111
10, 7111, Note_on_c, 9, 42, 0
10, 7111, Note_on_c, 9, 38, 0
10, 7141, Note_on_c, 9, 36, 121
10, 7142, Note_on_c, 9, 42, 110
10, 7171, Note_on_c, 9, 36, 0
10, 7172, Note_on_c, 9, 42, 0
10, 7201, Note_on_c, 9, 42, 112
10, 7231, Note_on_c, 9, 42, 0
10, 7260, Note_on_c, 9, 42, 109
10, 7290, Note_on_c, 9, 42, 0
10, 7320, Note_on_c, 9, 38, 118
10, 7321, Note_on_c, 9, 42, 109
10, 7350, Note_on_c, 9, 38, 0
10, 7351, Note_on_c, 9, 42, 0
10, 7379, Note_on_c, 9, 42, 112
10, 7409, Note_on_c, 9, 42, 0
10, 7441, Note_on_c, 9, 36, 121
10, 7441, Note_on_c, 9, 42, 110
10, 7471, Note_on_c, 9, 42, 0
10, 7471, Note_on_c, 9, 36, 0
10, 7501, Note_on_c, 9, 36, 123
10, 7501, Note_on_c, 9, 42, 110
10, 7531, Note_on_c, 9, 42, 0
10, 7531, Note_on_c, 9, 36, 0
10, 7560, Note_on_c, 9, 38, 124
10, 7560, Note_on_c, 9, 42, 109
10, 7590, Note_on_c, 9, 42, 0
10, 7590, Note_on_c, 9, 38, 0
10, 7621, Note_on_c, 9, 36, 124
10, 7622, Note_on_c, 9, 42, 108
10, 7651, Note_on_c, 9, 36, 0
10, 7652, Note_on_c, 9, 42, 0
10, 7680, Note_on_c, 9, 42, 109
10, 7710, Note_on_c, 9, 42, 0
10, 7739, Note_on_c, 9, 42, 110
10, 7769, Note_on_c, 9, 42, 0
10, 7800, Note_on_c, 9, 38, 122
10, 7800, Note_on_c, 9, 42, 111
10, 7830, Note_on_c, 9, 42, 0
10, 7830, Note_on_c, 9, 38, 0
10, 7859, Note_on_c, 9, 42, 113
10, 7889, Note_on_c, 9, 42, 0
10, 7920, Note_on_c, 9, 36, 124
10, 7920, Note_on_c, 9, 42, 112
10, 7950, Note_on_c, 9, 42, 0
10, 7950, Note_on_c, 9, 36, 0
10, 7980, Note_on_c, 9, 36, 124
10, 7981, Note_on_c, 9, 42, 108
10, 8010, Note_on_c, 9, 36, 0
10, 8011, Note_on_c, 9, 42, 0
10, 8040, Note_on_c, 9, 38, 118
10, 8041, Note_on_c, 9, 42, 111
10, 8070, Note_on_c, 9, 38, 0
10, 8071, Note_on_c, 9, 42, 0
10, 8100, Note_on_c, 9, 36, 120
10, 8100, Note_on_c, 9, 42, 108
10, 8130, Note_on_c, 9, 42, 0
10, 8130, Note_on_c, 9, 36, 0
10, 8160, Note_on_c, 9, 42, 109
10, 8190, Note_on_c, 9, 42, 0
10, 8220, Note_on_c, 9, 42, 108
10, 8250, Note_on_c, 9, 42, 0
10, 8280, Note_on_c, 9, 38, 119
10, 8281, Note_on_c, 9, 42, 110
10, 8310, Note_on_c, 9, 38, 0
10, 8311, Note_on_c, 9, 42, 0
10, 8340, Note_on_c, 9, 42, 108
10, 8370, Note_on_c, 9, 42, 0
10, 8400, Note_on_c, 9, 36, 123
10, 8400, Note_on_c, 9, 42, 109
10, 8430, Note_on_c, 9, 42, 0
10, 8430, Note_on_c, 9, 36, 0
10, 8460, Note_on_c, 9, 36, 118
10, 8461, Note_on_c, 9, 42, 113
10, 8490, Note_on_c, 9, 36, 0
10, 8491, Note_on_c, 9, 42, 0
10, 8521, Note_on_c, 9, 38, 118
10, 8522, Note_on_c, 9, 42, 111
10, 8551, Note_on_c, 9, 38, 0
10, 8552, Note_on_c, 9, 42, 0
10, 8581, Note_on_c, 9, 36, 121
10, 8581, Note_on_c, 9, 42, 109
10, 8611, Note_on_c, 9, 42, 0
10, 8611, Note_on_c, 9, 36, 0
10, 8641, Note_on_c, 9, 42, 110
10, 8671, Note_on_c, 9, 42, 0
10, 8700, Note_on_c, 9, 42, 109
10, 8730, Note_on_c, 9, 42, 0
10, 8760, Note_on_c, 9, 38, 121
10, 8760, Note_on_c, 9, 42, 109
10, 8790, Note_on_c, 9, 42, 0
10, 8790, Note_on_c, 9, 38, 0
10, 8820, Note_on_c, 9, 42, 108
10, 8850, Note_on_c, 9, 42, 0
10, 8881, Note_on_c, 9, 36, 121
10, 8882, Note_on_c, 9, 42, 111
10, 8911, Note_on_c, 9, 36, 0
10, 8912, Note_on_c, 9, 42, 0
10, 8940, Note_on_c, 9, 36, 123
10, 8941, Note_on_c, 9, 42, 112
10, 8970, Note_on_c, 9, 36, 0
10, 8971, Note_on_c, 9, 42, 0
10, 9000, Note_on_c, 9, 38, 124
10, 9001, Note_on_c, 9, 42, 112
10, 9030, Note_on_c, 9, 38, 0
10, 9031, Note_on_c, 9, 42, 0
10, 9060, Note_on_c, 9, 36, 120
10, 9061, Note_on_c, 9, 42, 110
10, 9090, Note_on_c, 9, 36, 0
10, 9091, Note_on_c, 9, 42, 0
10, 9121, Note_on_c, 9, 42, 109
10, 9151, Note_on_c, 9, 42, 0
10, 9181, Note_on_c, 9, 42, 111
10, 9211, Note_on_c, 9, 42, 0
10, 9240, Note_on_c, 9, 38, 122
10, 9240, Note_on_c, 9, 42, 110
10, 9270, Note_on_c, 9, 42, 0
10, 9270, Note_on_c, 9, 38, 0
10, 9300, Note_on_c, 9, 42, 107
10, 9330, Note_on_c, 9, 42, 0
10, 9360, Note_on_c, 9, 36, 123
10, 9360, Note_on_c, 9, 42, 112
10, 9390, Note_on_c, 9, 42, 0
10, 9390, Note_on_c, 9, 36, 0
10, 9420, Note_on_c, 9, 36, 122
10, 9421, Note_on_c, 9, 42, 113
10, 9450, Note_on_c, 9, 36, 0
10, 9451, Note_on_c, 9, 42, 0
10, 9480, Note_on_c, 9, 38, 119
10, 9480, Note_on_c, 9, 42, 108
10, 9510, Note_on_c, 9, 42, 0
10, 9510, Note_on_c, 9, 38, 0
10, 9539, Note_on_c, 9, 36, 118
10, 9539, Note_on_c, 9, 42, 109
10, 9569, Note_on_c, 9, 42, 0
10, 9569, Note_on_c, 9, 36, 0
10, 9601, Note_on_c, 9, 42, 111
10, 9631, Note_on_c, 9, 42, 0
10, 9661, Note_on_c, 9, 42, 107
10, 9691, Note_on_c, 9, 42, 0
10, 9720, Note_on_c, 9, 38, 120
10, 9721, Note_on_c, 9, 42, 113
10, 9750, Note_on_c, 9, 38, 0
10, 9751, Note_on_c, 9, 42, 0
10, 9780, Note_on_c, 9, 42, 108
10, 9810, Note_on_c, 9, 42, 0
10, 9840, Note_on_c, 9, 36, 122
10, 9841, Note_on_c, 9, 42, 108
10, 9870, Note_on_c, 9, 36, 0
10, 9871, Note_on_c, 9, 42, 0
10, 9900, Note_on_c, 9, 36, 120
10, 9901, Note_on_c, 9, 42, 108
10, 9930, Note_on_c, 9, 36, 0
10, 9931, Note_on_c, 9, 42, 0
10, 9960, Note_on_c, 9, 38, 120
10, 9961, Note_on_c, 9, 42, 107
10, 9990, Note_on_c, 9, 38, 0
10, 9991, Note_on_c, 9, 42, 0
10, 10020, Note_on_c, 9, 36, 119
10, 10020, Note_on_c, 9, 49, 107
10, 10050, Note_on_c, 9, 49, 0
10, 10050, Note_on_c, 9, 36, 0
10, 10080, Note_on_c, 9, 42, 113
10, 10110, Note_on_c, 9, 42, 0
10, 10140, Note_on_c, 9, 42, 109
10, 10170, Note_on_c, 9, 42, 0
10, 10200, Note_on_c, 9, 38, 122
10, 10200, Note_on_c, 9, 42, 108
10, 10230, Note_on_c, 9, 42, 0
10, 10230, Note_on_c, 9, 38, 0
10, 10260, Note_on_c, 9, 42, 108
10, 10290, Note_on_c, 9, 42, 0
10, 10321, Note_on_c, 9, 36, 118
10, 10322, Note_on_c, 9, 42, 113
10, 10351, Note_on_c, 9, 36, 0
10, 10352, Note_on_c, 9, 42, 0
10, 10380, Note_on_c, 9, 36, 119
10, 10380, Note_on_c, 9, 42, 113
10, 10410, Note_on_c, 9, 42, 0
10, 10410, Note_on_c, 9, 36, 0
10, 10441, Note_on_c, 9, 38, 122
10, 10441, Note_on_c, 9, 42, 108
10, 10471, Note_on_c, 9, 42, 0
10, 10471, Note_on_c, 9, 38, 0
10, 10501, Note_on_c, 9, 36, 123
10, 10501, Note_on_c, 9, 42, 113
10, 10531, Note_on_c, 9, 42, 0
10, 10531, Note_on_c, 9, 36, 0
10, 10561, Note_on_c, 9, 42, 107
10, 10591, Note_on_c, 9, 42, 0
10, 10620, Note_on_c, 9, 42, 108
10, 10650, Note_on_c, 9, 42, 0
10, 10680, Note_on_c, 9, 38, 120
10, 10680, Note_on_c, 9, 42, 113
10, 10710, Note_on_c, 9, 42, 0
10, 10710, Note_on_c, 9, 38, 0
10, 10740, Note_on_c, 9, 42, 109
10, 10770, Note_on_c, 9, 42, 0
10, 10801, Note_on_c, 9, 36, 119
10, 10801, Note_on_c, 9, 42, 113
10, 10831, Note_on_c, 9, 42, 0
10, 10831, Note_on_c, 9, 36, 0
10, 10860, Note_on_c, 9, 36, 124
10, 10861, Note_on_c, 9, 42, 108
10, 10890, Note_on_c, 9, 36, 0
10, 10891, Note_on_c, 9, 42, 0
10, 10921, Note_on_c, 9, 38, 119
10, 10922, Note_on_c, 9, 42, 111
10, 10951, Note_on_c, 9, 38, 0
10, 10952, Note_on_c, 9, 42, 0
10, 10981, Note_on_c, 9, 36, 121
10, 10982, Note_on_c, 9, 42, 107
10, 11011, Note_on_c, 9, 36, 0
10, 11012, Note_on_c, 9, 42, 0
10, 11040, Note_on_c, 9, 42, 107
10, 11070, Note_on_c, 9, 42, 0
10, 11100, Note_on_c, 9, 42, 113
10, 11130, Note_on_c, 9, 42, 0
10, 11161, Note_on_c, 9, 38, 122
10, 11161, Note_on_c, 9, 42, 108
10, 11191, Note_on_c, 9, 42, 0
10, 11191, Note_on_c, 9, 38, 0
10, 11221, Note_on_c, 9, 42, 107
10, 11251, Note_on_c, 9, 42, 0
10, 11280, Note_on_c, 9, 36, 122
10, 11281, Note_on_c, 9, 42, 107
10, 11310, Note_on_c, 9, 36, 0
10, 11311, Note_on_c, 9, 42, 0
10, 11341, Note_on_c, 9, 36, 119
10, 11341, Note_on_c, 9, 42, 107
10, 11371, Note_on_c, 9, 42, 0
10, 11371, Note_on_c, 9, 36, 0
10, 11401, Note_on_c, 9, 38, 119
10, 11401, Note_on_c, 9, 42, 109
10, 11431, Note_on_c, 9, 42, 0
10, 11431, Note_on_c, 9, 38, 0
10, 11460, Note_on_c, 9, 36, 122
10, 11460, Note_on_c, 9, 42, 111
10, 11490, Note_on_c, 9, 42, 0
10, 11490, Note_on_c, 9, 36, 0
10, 11521, Note_on_c, 9, 42, 107
10, 11551, Note_on_c, 9, 42, 0
10, 11580, Note_on_c, 9, 42, 110
10, 11610, Note_on_c, 9, 42, 0
10, 11640, Note_on_c, 9, 38, 122
10, 11640, Note_on_c, 9, 42, 109
10, 11670, Note_on_c, 9, 42, 0
10, 11670, Note_on_c, 9, 38, 0
10, 11700, Note_on_c, 9, 42, 113
10, 11730, Note_on_c, 9, 42, 0
10, 11761, Note_on_c, 9, 36, 120
10, 11761, Note_on_c, 9, 42, 109
10, 11791, Note_on_c, 9, 42, 0
10, 11791, Note_on_c, 9, 36, 0
10, 11820, Note_on_c, 9, 36, 122
10, 11820, Note_on_c, 9, 42, 107
10, 11850, Note_on_c, 9, 42, 0
10, 11850, Note_on_c, 9, 36, 0
10, 11881, Note_on_c, 9, 38, 119
10, 11881, Note_on_c, 9, 42, 109
10, 11911, Note_on_c, 9, 42, 0
10, 11911, Note_on_c, 9, 38, 0
10, 11941, Note_on_c, 9, 36, 120
10, 11941, Note_on_c, 9, 42, 113
10, 11971, Note_on_c, 9, 42, 0
10, 11971, Note_on_c, 9, 36, 0
10, 12001, Note_on_c, 9, 42, 109
10, 12031, Note_on_c, 9, 42, 0
10, 12061, Note_on_c, 9, 42, 108
10, 12091, Note_on_c, 9, 42, 0
10, 12121, Note_on_c, 9, 38, 120
10, 12121, Note_on_c, 9, 42, 108
10, 12151, Note_on_c, 9, 42, 0
10, 12151, Note_on_c, 9, 38, 0
10, 12180, Note_on_c, 9, 42, 109
10, 12210, Note_on_c, 9, 42, 0
10, 12241, Note_on_c, 9, 36, 121
10, 12242, Note_on_c, 9, 42, 111
10, 12271, Note_on_c, 9, 36, 0
10, 12272, Note_on_c, 9, 42, 0
10, 12300, Note_on_c, 9, 36, 123
10, 12300, Note_on_c, 9, 42, 113
10, 12330, Note_on_c, 9, 42, 0
10, 12330, Note_on_c, 9, 36, 0
10, 12361, Note_on_c, 9, 38, 121
10, 12361, Note_on_c, 9, 42, 110
10, 12391, Note_on_c, 9, 42, 0
10, 12391, Note_on_c, 9, 38, 0
10, 12421, Note_on_c, 9, 36, 122
10, 12421, Note_on_c, 9, 42, 113
10, 12451, Note_on_c, 9, 42, 0
10, 12451, Note_on_c, 9, 36, 0
10, 12481, Note_on_c, 9, 42, 109
10, 12511, Note_on_c, 9, 42, 0
10, 12540, Note_on_c, 9, 42, 113
10, 12570, Note_on_c, 9, 42, 0
10, 12601, Note_on_c, 9, 38, 119
10, 12601, Note_on_c, 9, 42, 112
10, 12631, Note_on_c, 9, 42, 0
10, 12631, Note_on_c, 9, 38, 0
10, 12660, Note_on_c, 9, 42, 113
10, 12690, Note_on_c, 9, 42, 0
10, 12721, Note_on_c, 9, 36, 124
10, 12722, Note_on_c, 9, 42, 113
10, 12751, Note_on_c, 9, 36, 0
10, 12752, Note_on_c, 9, 42, 0
10, 12779, Note_on_c, 9, 36, 120
10, 12780, Note_on_c, 9, 42, 108
10, 12809, Note_on_c, 9, 36, 0
10, 12810, Note_on_c, 9, 42, 0
10, 12841, Note_on_c, 9, 38, 124
10, 12842, Note_on_c, 9, 42, 113
10, 12871, Note_on_c, 9, 38, 0
10, 12872, Note_on_c, 9, 42, 0
10, 12901, Note_on_c, 9, 36, 120
10, 12901, Note_on_c, 9, 42, 107
10, 12931, Note_on_c, 9, 42, 0
10, 12931, Note_on_c, 9, 36, 0
10, 12961, Note_on_c, 9, 42, 107
10, 12991, Note_on_c, 9, 42, 0
10, 13021, Note_on_c, 9, 42, 110
10, 13051, Note_on_c, 9, 42, 0
10, 13081, Note_on_c, 9, 38, 120
10, 13081, Note_on_c, 9, 42, 111
10, 13111, Note_on_c, 9, 42, 0
10, 13111, Note_on_c, 9, 38, 0
10, 13141, Note_on_c, 9, 42, 108
10, 13171, Note_on_c, 9, 42, 0
10, 13200, Note_on_c, 9, 36, 121
10, 13201, Note_on_c, 9, 42, 107
10, 13230, Note_on_c, 9, 36, 0
10, 13231, Note_on_c, 9, 42, 0
10, 13260, Note_on_c, 9, 36, 122
10, 13260, Note_on_c, 9, 42, 109
10, 13290, Note_on_c, 9, 42, 0
10, 13290, Note_on_c, 9, 36, 0
10, 13320, Note_on_c, 9, 38, 120
10, 13321, Note_on_c, 9, 42, 113
10, 13350, Note_on_c, 9, 38, 0
10, 13351, Note_on_c, 9, 42, 0
10, 13380, Note_on_c, 9, 36, 120
10, 13380, Note_on_c, 9, 42, 107
10, 13410, Note_on_c, 9, 42, 0
10, 13410, Note_on_c, 9, 36, 0
10, 13441, Note_on_c, 9, 42, 111
10, 13471, Note_on_c, 9, 42, 0
10, 13500, Note_on_c, 9, 42, 112
10, 13530, Note_on_c, 9, 42, 0
10, 13560, Note_on_c, 9, 38, 122
10, 13560, Note_on_c, 9, 42, 113
10, 13590, Note_on_c, 9, 42, 0
10, 13590, Note_on_c, 9, 38, 0
10, 13620, Note_on_c, 9, 42, 109
10, 13650, Note_on_c, 9, 42, 0
10, 13681, Note_on_c, 9, 36, 120
10, 13682, Note_on_c, 9, 42, 113
10, 13711, Note_on_c, 9, 36, 0
10, 13712, Note_on_c, 9, 42, 0
10, 13741, Note_on_c, 9, 36, 123
10, 13741, Note_on_c, 9, 42, 113
10, 13771, Note_on_c, 9, 42, 0
10, 13771, Note_on_c, 9, 36, 0
10, 13800, Note_on_c, 9, 38, 123
10, 13800, Note_on_c, 9, 42, 112
10, 13830, Note_on_c, 9, 42, 0
10, 13830, Note_on_c, 9, 38, 0
10, 13860, Note_on_c, 9, 36, 122
10, 13860, Note_on_c, 9, 49, 111
10, 13890, Note_on_c, 9, 49, 0
10, 13890, Note_on_c, 9, 36, 0
10, 13921, Note_on_c, 9, 42, 111
10, 13951, Note_on_c, 9, 42, 0
10, 13981, Note_on_c, 9, 42, 110
10, 14011, Note_on_c, 9, 42, 0
10, 14040, Note_on_c, 9, 38, 118
10, 14040, Note_on_c, 9, 42, 107
10, 14070, Note_on_c, 9, 42, 0
10, 14070, Note_on_c, 9, 38, 0
10, 14100, Note_on_c, 9, 42, 112
10, 14130, Note_on_c, 9, 42, 0
10, 14161, Note_on_c, 9, 36, 121
10, 14162, Note_on_c, 9, 42, 110
10, 14191, Note_on_c, 9, 36, 0
10, 14192, Note_on_c, 9, 42, 0
10, 14220, Note_on_c, 9, 36, 122
10, 14221, Note_on_c, 9, 42, 110
10, 14250, Note_on_c, 9, 36, 0
10, 14251, Note_on_c, 9, 42, 0
10, 14281, Note_on_c, 9, 38, 120
10, 14282, Note_on_c, 9, 42, 112
10, 14311, Note_on_c, 9, 38, 0
10, 14312, Note_on_c, 9, 42, 0
10, 14341, Note_on_c, 9, 36, 118
10, 14341, Note_on_c, 9, 42, 109
10, 14371, Note_on_c, 9, 42, 0
10, 14371, Note_on_c, 9, 36, 0
10, 14401, Note_on_c, 9, 42, 108
10, 14431, Note_on_c, 9, 42, 0
10, 14460, Note_on_c, 9, 42, 110
10, 14490, Note_on_c, 9, 42, 0
10, 14520, Note_on_c, 9, 38, 122
10, 14520, Note_on_c, 9, 42, 113
10, 14550, Note_on_c, 9, 42, 0
10, 14550, Note_on_c, 9, 38, 0
10, 14580, Note_on_c, 9, 42, 113
10, 14610, Note_on_c, 9, 42, 0
10, 14641, Note_on_c, 9, 36, 122
10, 14641, Note_on_c, 9, 42, 111
10, 14671, Note_on_c, 9, 42, 0
10, 14671, Note_on_c, 9, 36, 0
10, 14700, Note_on_c, 9, 36, 120
10, 14700, Note_on_c, 9, 42, 107
10, 14730, Note_on_c, 9, 42, 0
10, 14730, Note_on_c, 9, 36, 0
10, 14760, Note_on_c, 9, 38, 123
10, 14761, Note_on_c, 9, 42, 113
10, 14790, Note_on_c, 9, 38, 0
10, 14791, Note_on_c, 9, 42, 0
10, 14821, Note_on_c, 9, 36, 121
10, 14821, Note_on_c, 9, 42, 110
10, 14851, Note_on_c, 9, 42, 0
10, 14851, Note_on_c, 9, 36, 0
10, 14880, Note_on_c, 9, 42, 111
10, 14910, Note_on_c, 9, 42, 0
10, 14941, Note_on_c, 9, 42, 110
10, 14971, Note_on_c, 9, 42, 0
10, 14999, Note_on_c, 9, 38, 120
10, 14999, Note_on_c, 9, 42, 112
10, 15029, Note_on_c, 9, 42, 0
10, 15029, Note_on_c, 9, 38, 0
10, 15059, Note_on_c, 9, 42, 108
10, 15089, Note_on_c, 9, 42, 0
10, 15121, Note_on_c, 9, 36, 118
10, 15121, Note_on_c, 9, 42, 111
10, 15151, Note_on_c, 9, 42, 0
10, 15151, Note_on_c, 9, 36, 0
10, 15180, Note_on_c, 9, 36, 123
10, 15180, Note_on_c, 9, 42, 112
10, 15210, Note_on_c, 9, 42, 0
10, 15210, Note_on_c, 9, 36, 0
10, 15241, Note_on_c, 9, 38, 120
10, 15241, Note_on_c, 9, 42, 109
10, 15271, Note_on_c, 9, 42, 0
10, 15271, Note_on_c, 9, 38, 0
10, 15300, Note_on_c, 9, 36, 118
10, 15300, Note_on_c, 9, 42, 112
10, 15330, Note_on_c, 9, 42, 0
10, 15330, Note_on_c, 9, 36, 0
10, 15361, Note_on_c, 9, 42, 108
10, 15391, Note_on_c, 9, 42, 0
10, 15421, Note_on_c, 9, 42, 112
10, 15451, Note_on_c, 9, 42, 0
10, 15481, Note_on_c, 9, 38, 122
10, 15481, Note_on_c, 9, 42, 109
10, 15511, Note_on_c, 9, 42, 0
10, 15511, Note_on_c, 9, 38, 0
10, 15541, Note_on_c, 9, 42, 112
10, 15571, Note_on_c, 9, 42, 0
10, 15600, Note_on_c, 9, 36, 122
10, 15601, Note_on_c, 9, 42, 113
10, 15630, Note_on_c, 9, 36, 0
10, 15631, Note_on_c, 9, 42, 0
10, 15660, Note_on_c, 9, 36, 120
10, 15660, Note_on_c, 9, 42, 109
10, 15690, Note_on_c, 9, 42, 0
10, 15690, Note_on_c, 9, 36, 0
10, 15721, Note_on_c, 9, 38, 121
10, 15721, Note_on_c, 9, 42, 108
10, 15751, Note_on_c, 9, 42, 0
10, 15751, Note_on_c, 9, 38, 0
10, 15780, Note_on_c, 9, 36, 118
10, 15780, Note_on_c, 9, 42, 111
10, 15810, Note_on_c, 9, 42, 0
10, 15810, Note_on_c, 9, 36, 0
10, 15841, Note_on_c, 9, 42, 113
10, 15871, Note_on_c, 9, 42, 0
10, 15901, Note_on_c, 9, 42, 113
10, 15931, Note_on_c, 9, 42, 0
10, 15960, Note_on_c, 9, 38, 121
10, 15961, Note_on_c, 9, 42, 108
10, 15990, Note_on_c, 9, 38, 0
10, 15991, Note_on_c, 9, 42, 0
10, 16020, Note_on_c, 9, 42, 113
10, 16050, Note_on_c, 9, 42, 0
10, 16081, Note_on_c, 9, 36, 119
10, 16081, Note_on_c, 9, 42, 111
10, 16111, Note_on_c, 9, 42, 0
10, 16111, Note_on_c, 9, 36, 0
10, 16140, Note_on_c, 9, 36, 124
10, 16140, Note_on_c, 9, 42, 111
10, 16170, Note_on_c, 9, 42, 0
10, 16170, Note_on_c, 9, 36, 0
10, 16199, Note_on_c, 9, 38, 124
10, 16200, Note_on_c, 9, 42, 113
10, 16229, Note_on_c, 9, 38, 0
10, 16230, Note_on_c, 9, 42, 0
10, 16261, Note_on_c, 9, 36, 122
10, 16262, Note_on_c, 9, 42, 110
10, 16291, Note_on_c, 9, 36, 0
10, 16292, Note_on_c, 9, 42, 0
10, 16320, Note_on_c, 9, 42, 113
10, 16350, Note_on_c, 9, 42, 0
10, 16381, Note_on_c, 9, 42, 107
10, 16411, Note_on_c, 9, 42, 0
10, 16440, Note_on_c, 9, 38, 118
10, 16440, Note_on_c, 9, 42, 108
10, 16470, Note_on_c, 9, 42, 0
10, 16470, Note_on_c, 9, 38, 0
10, 16499, Note_on_c, 9, 42, 112
10, 16529, Note_on_c, 9, 42, 0
10, 16561, Note_on_c, 9, 36, 120
10, 16562, Note_on_c, 9, 42, 113
10, 16591, Note_on_c, 9, 36, 0
10, 16592, Note_on_c, 9, 42, 0
10, 16620, Note_on_c, 9, 36, 119
10, 16620, Note_on_c, 9, 42, 111
10, 16650, Note_on_c, 9, 42, 0
10, 16650, Note_on_c, 9, 36, 0
10, 16679, Note_on_c, 9, 38, 118
10, 16679, Note_on_c, 9, 42, 107
10, 16709, Note_on_c, 9, 42, 0
10, 16709, Note_on_c, 9, 38, 0
10, 16740, Note_on_c, 9, 36, 118
10, 16741, Note_on_c, 9, 42, 108
10, 16770, Note_on_c, 9, 36, 0
10, 16771, Note_on_c, 9, 42, 0
10, 16800, Note_on_c, 9, 42, 107
10, 16830, Note_on_c, 9, 42, 0
10, 16861, Note_on_c, 9, 42, 107
10, 16891, Note_on_c, 9, 42, 0
10, 16921, Note_on_c, 9, 38, 122
10, 16921, Note_on_c, 9, 42, 107
10, 16951, Note_on_c, 9, 42, 0
10, 16951, Note_on_c, 9, 38, 0
10, 16981, Note_on_c, 9, 42, 111
10, 17011, Note_on_c, 9, 42, 0
10, 17041, Note_on_c, 9, 36, 122
10, 17041, Note_on_c, 9, 42, 110
10, 17071, Note_on_c, 9, 42, 0
10, 17071, Note_on_c, 9, 36, 0
10, 17101, Note_on_c, 9, 36, 123
10, 17101, Note_on_c, 9, 42, 112
10, 17131, Note_on_c, 9, 42, 0
10, 17131, Note_on_c, 9, 36, 0
10, 17161, Note_on_c, 9, 38, 118
10, 17162, Note_on_c, 9, 42, 107
10, 17191, Note_on_c, 9, 38, 0
10, 17192, Note_on_c, 9, 42, 0
10, 17220, Note_on_c, 9, 36, 122
10, 17221, Note_on_c, 9, 42, 107
10, 17250, Note_on_c, 9, 36, 0
10, 17251, Note_on_c, 9, 42, 0
10, 17281, Note_on_c, 9, 42, 109
10, 17311, Note_on_c, 9, 42, 0
10, 17340, Note_on_c, 9, 42, 109
10, 17370, Note_on_c, 9, 42, 0
10, 17400, Note_on_c, 9, 38, 124
10, 17401, Note_on_c, 9, 42, 108
10, 17430, Note_on_c, 9, 38, 0
10, 17431, Note_on_c, 9, 42, 0
10, 17460, Note_on_c, 9, 42, 108
10, 17490, Note_on_c, 9, 42, 0
10, 17520, Note_on_c, 9, 36, 124
10, 17520, Note_on_c, 9, 42, 110
10, 17550, Note_on_c, 9, 42, 0
10, 17550, Note_on_c, 9, 36, 0
10, 17581, Note_on_c, 9, 36, 120
10, 17581, Note_on_c, 9, 42, 109
10, 17611, Note_on_c, 9, 42, 0
10, 17611, Note_on_c, 9, 36, 0
10, 17640, Note_on_c, 9, 38, 123
10, 17641, Note_on_c, 9, 42, 111
10, 17670, Note_on_c, 9, 38, 0
10, 17671, Note_on_c, 9, 42, 0
10, 17699, Note_on_c, 9, 36, 118
10, 17700, Note_on_c, 9, 49, 112
10, 17729, Note_on_c, 9, 36, 0
10, 17730, Note_on_c, 9, 49, 0
10, 17761, Note_on_c, 9, 42, 113
10, 17791, Note_on_c, 9, 42, 0
10, 17820, Note_on_c, 9, 42, 112
10, 17850, Note_on_c, 9, 42, 0
10, 17880, Note_on_c, 9, 38, 120
10, 17880, Note_on_c, 9, 42, 111
10, 17910, Note_on_c, 9, 42, 0
10, 17910, Note_on_c, 9, 38, 0
10, 17940, Note_on_c, 9, 42, 109
10, 17970, Note_on_c, 9, 42, 0
10, 18000, Note_on_c, 9, 36, 118
10, 18001, Note_on_c, 9, 42, 108
10, 18030, Note_on_c, 9, 36, 0
10, 18031, Note_on_c, 9, 42, 0
10, 18060, Note_on_c, 9, 36, 118
10, 18060, Note_on_c, 9, 42, 108
10, 18090, Note_on_c, 9, 42, 0
10, 18090, Note_on_c, 9, 36, 0
10, 18120, Note_on_c, 9, 38, 119
10, 18120, Note_on_c, 9, 42, 107
10, 18150, Note_on_c, 9, 42, 0
10, 18150, Note_on_c, 9, 38, 0
10, 18180, Note_on_c, 9, 36, 120
10, 18180, Note_on_c, 9, 42, 111
10, 18210, Note_on_c, 9, 42, 0
10, 18210, Note_on_c, 9, 36, 0
10, 18240, Note_on_c, 9, 42, 109
10, 18270, Note_on_c, 9, 42, 0
10, 18300, Note_on_c, 9, 42, 107
10, 18330, Note_on_c, 9, 42, 0
10, 18360, Note_on_c, 9, 38, 120
10, 18360, Note_on_c, 9, 42, 108
10, 18390, Note_on_c, 9, 42, 0
10, 18390, Note_on_c, 9, 38, 0
10, 18420, Note_on_c, 9, 42, 110
10, 18450, Note_on_c, 9, 42, 0
10, 18481, Note_on_c, 9, 36, 120
10, 18481, Note_on_c, 9, 42, 109
10, 18511, Note_on_c, 9, 42, 0
10, 18511, Note_on_c, 9, 36, 0
10, 18540, Note_on_c, 9, 36, 118
10, 18540, Note_on_c, 9, 42, 111
10, 18570, Note_on_c, 9, 42, 0
10, 18570, Note_on_c, 9, 36, 0
10, 18601, Note_on_c, 9, 38, 118
10, 18602, Note_on_c, 9, 42, 112
10, 18631, Note_on_c, 9, 38, 0
10, 18632, Note_on_c, 9, 42, 0
10, 18660, Note_on_c, 9, 36, 121
10, 18661, Note_on_c, 9, 42, 107
10, 18690, Note_on_c, 9, 36, 0
10, 18691, Note_on_c, 9, 42, 0
10, 18720, Note_on_c, 9, 42, 110
10, 18750, Note_on_c, 9, 42, 0
10, 18780, Note_on_c, 9, 42, 109
10, 18810, Note_on_c, 9, 42, 0
10, 18840, Note_on_c, 9, 38, 122
10, 18841, Note_on_c, 9, 42, 112
10, 18870, Note_on_c, 9, 38, 0
10, 18871, Note_on_c, 9, 42, 0
10, 18900, Note_on_c, 9, 42, 108
10, 18930, Note_on_c, 9, 42, 0
10, 18961, Note_on_c, 9, 36, 120
10, 18961, Note_on_c, 9, 42, 109
10, 18991, Note_on_c, 9, 42, 0
10, 18991, Note_on_c, 9, 36, 0
10, 19020, Note_on_c, 9, 36, 122
10, 19021, Note_on_c, 9, 42, 108
10, 19050, Note_on_c, 9, 36, 0
10, 19051, Note_on_c, 9, 42, 0
10, 19079, Note_on_c, 9, 38, 119
10, 19080, Note_on_c, 9, 42, 107
10, 19109, Note_on_c, 9, 38, 0
10, 19110, Note_on_c, 9, 42, 0
10, 19141, Note_on_c, 9, 36, 121
10, 19141, Note_on_c, 9, 42, 109
10, 19171, Note_on_c, 9, 42, 0
10, 19171, Note_on_c, 9, 36, 0
10, 19200, Note_on_c, 9, 42, 110
10, 19230, Note_on_c, 9, 42, 0
10, 19260, Note_on_c, 9, 42, 111
10, 19290, Note_on_c, 9, 42, 0
10, 19319, Note_on_c, 9, 38, 119
10, 19320, Note_on_c, 9, 42, 108
10, 19349, Note_on_c, 9, 38, 0
10, 19350, Note_on_c, 9, 42, 0
10, 19380, Note_on_c, 9, 42, 112
10, 19410, Note_on_c, 9, 42, 0
10, 19441, Note_on_c, 9, 36, 118
10, 19441, Note_on_c, 9, 42, 109
10, 19471, Note_on_c, 9, 42, 0
10, 19471, Note_on_c, 9, 36, 0
10, 19499, Note_on_c, 9, 36, 123
10, 19500, Note_on_c, 9, 42, 109
10, 19529, Note_on_c, 9, 36, 0
10, 19530, Note_on_c, 9, 42, 0
10, 19560, Note_on_c, 9, 38, 122
10, 19560, Note_on_c, 9, 42, 110
10, 19590, Note_on_c, 9, 42, 0
10, 19590, Note_on_c, 9, 38, 0
10, 19621, Note_on_c, 9, 36, 120
10, 19621, Note_on_c, 9, 42, 108
10, 19651, Note_on_c, 9, 42, 0
10, 19651, Note_on_c, 9, 36, 0
10, 19681, Note_on_c, 9, 42, 108
10, 19711, Note_on_c, 9, 42, 0
10, 19741, Note_on_c, 9, 42, 111
10, 19771, Note_on_c, 9, 42, 0
10, 19801, Note_on_c, 9, 38, 123
10, 19801, Note_on_c, 9, 42, 113
10, 19831, Note_on_c, 9, 42, 0
10, 19831, Note_on_c, 9, 38, 0
10, 19860, Note_on_c, 9, 42, 111
10, 19890, Note_on_c, 9, 42, 0
10, 19920, Note_on_c, 9, 36, 122
10, 19921, Note_on_c, 9, 42, 111
10, 19950, Note_on_c, 9, 36, 0
10, 19951, Note_on_c, 9, 42, 0
10, 19981, Note_on_c, 9, 36, 119
10, 19981, Note_on_c, 9, 42, 110
10, 20011, Note_on_c, 9, 42, 0
10, 20011, Note_on_c, 9, 36, 0
10, 20040, Note_on_c, 9, 38, 124
10, 20040, Note_on_c, 9, 42, 108
10, 20070, Note_on_c, 9, 42, 0
10, 20070, Note_on_c, 9, 38, 0
10, 20101, Note_on_c, 9, 36, 119
10, 20102, Note_on_c, 9, 42, 107
10, 20131, Note_on_c, 9, 36, 0
10, 20132, Note_on_c, 9, 42, 0
10, 20161, Note_on_c, 9, 42, 113
10, 20191, Note_on_c, 9, 42, 0
10, 20221, Note_on_c, 9, 42, 109
10, 20251, Note_on_c, 9, 42, 0
10, 20280, Note_on_c, 9, 38, 123
10, 20280, Note_on_c, 9, 42, 109
10, 20310, Note_on_c, 9, 42, 0
10, 20310, Note_on_c, 9, 38, 0
10, 20339, Note_on_c, 9, 42, 110
10, 20369, Note_on_c, 9, 42, 0
10, 20400, Note_on_c, 9, 36, 119
10, 20400, Note_on_c, 9, 42, 113
10, 20430, Note_on_c, 9, 42, 0
10, 20430, Note_on_c, 9, 36, 0
10, 20460, Note_on_c, 9, 36, 118
10, 20461, Note_on_c, 9, 42, 112
10, 20490, Note_on_c, 9, 36, 0
10, 20491, Note_on_c, 9, 42, 0
10, 20520, Note_on_c, 9, 38, 122
10, 20521, Note_on_c, 9, 42, 110
10, 20550, Note_on_c, 9, 38, 0
10, 20551, Note_on_c, 9, 42, 0
10, 20581, Note_on_c, 9, 36, 119
10, 20582, Note_on_c, 9, 42, 107
10, 20611, Note_on_c, 9, 36, 0
10, 20612, Note_on_c, 9, 42, 0
10, 20640, Note_on_c, 9, 42, 112
10, 20670, Note_on_c, 9, 42, 0
10, 20701, Note_on_c, 9, 42, 108
10, 20731, Note_on_c, 9, 42, 0
10, 20760, Note_on_c, 9, 38, 122
10, 20760, Note_on_c, 9, 42, 112
10, 20790, Note_on_c, 9, 42, 0
10, 20790, Note_on_c, 9, 38, 0
10, 20820, Note_on_c, 9, 42, 110
10, 20850, Note_on_c, 9, 42, 0
10, 20879, Note_on_c, 9, 36, 122
10, 20879, Note_on_c, 9, 42, 112
10, 20909, Note_on_c, 9, 42, 0
10, 20909, Note_on_c, 9, 36, 0
10, 20940, Note_on_c, 9, 36, 123
10, 20941, Note_on_c, 9, 42, 109
10, 20970, Note_on_c, 9, 36, 0
10, 20971, Note_on_c, 9, 42, 0
10, 21000, Note_on_c, 9, 38, 118
10, 21001, Note_on_c, 9, 42, 107
10, 21030, Note_on_c, 9, 38, 0
10, 21031, Note_on_c, 9, 42, 0
10, 21061, Note_on_c, 9, 36, 120
10, 21061, Note_on_c, 9, 42, 113
10, 21091, Note_on_c, 9, 42, 0
10, 21091, Note_on_c, 9, 36, 0
10, 21121, Note_on_c, 9, 42, 112
10, 21151, Note_on_c, 9, 42, 0
10, 21181, Note_on_c, 9, 42, 108
10, 21211, Note_on_c, 9, 42, 0
10, 21240, Note_on_c, 9, 38, 122
10, 21241, Note_on_c, 9, 42, 109
10, 21270, Note_on_c, 9, 38, 0
10, 21271, Note_on_c, 9, 42, 0
10, 21300, Note_on_c, 9, 42, 113
10, 21330, Note_on_c, 9, 42, 0
10, 21360, Note_on_c, 9, 36, 119
10, 21361, Note_on_c, 9, 42, 108
10, 21390, Note_on_c, 9, 36, 0
10, 21391, Note_on_c, 9, 42, 0
10, 21420, Note_on_c, 9, 36, 123
10, 21421, Note_on_c, 9, 42, 113
10, 21450, Note_on_c, 9, 36, 0
10, 21451, Note_on_c, 9, 42, 0
10, 21480, Note_on_c, 9, 38, 118
10, 21480, Note_on_c, 9, 42, 111
10, 21510, Note_on_c, 9, 42, 0
10, 21510, Note_on_c, 9, 38, 0
10, 21541, Note_on_c, 9, 36, 121
10, 21542, Note_on_c, 9, 49, 107
10, 21571, Note_on_c, 9, 36, 0
10, 21572, Note_on_c, 9, 49, 0
10, 21600, Note_on_c, 9, 42, 113
10, 21630, Note_on_c, 9, 42, 0
10, 21661, Note_on_c, 9, 42, 113
10, 21691, Note_on_c, 9, 42, 0
10, 21720, Note_on_c, 9, 38, 121
10, 21721, Note_on_c, 9, 42, 109
10, 21750, Note_on_c, 9, 38, 0
10, 21751, Note_on_c, 9, 42, 0
10, 21780, Note_on_c, 9, 42, 107
10, 21810, Note_on_c, 9, 42, 0
10, 21841, Note_on_c, 9, 36, 122
10, 21841, Note_on_c, 9, 42, 111
10, 21871, Note_on_c, 9, 42, 0
10, 21871, Note_on_c, 9, 36, 0
10, 21900, Note_on_c, 9, 36, 120
10, 21900, Note_on_c, 9, 42, 108
10, 21930, Note_on_c, 9, 42, 0
10, 21930, Note_on_c, 9, 36, 0
10, 21961, Note_on_c, 9, 38, 123
10, 21962, Note_on_c, 9, 42, 108
10, 21991, Note_on_c, 9, 38, 0
10, 21992, Note_on_c, 9, 42, 0
10, 22020, Note_on_c, 9, 36, 121
10, 22020, Note_on_c, 9, 42, 110
10, 22050, Note_on_c, 9, 42, 0
10, 22050, Note_on_c, 9, 36, 0
10, 22081, Note_on_c, 9, 42, 107
10, 22111, Note_on_c, 9, 42, 0
10, 22140, Note_on_c, 9, 42, 113
10, 22170, Note_on_c, 9, 42, 0
10, 22200, Note_on_c, 9, 38, 118
10, 22200, Note_on_c, 9, 42, 108
10, 22230, Note_on_c, 9, 42, 0
10, 22230, Note_on_c, 9, 38, 0
10, 22260, Note_on_c, 9, 42, 113
10, 22290, Note_on_c, 9, 42, 0
10, 22319, Note_on_c, 9, 36, 119
10, 22319, Note_on_c, 9, 42, 107
10, 22349, Note_on_c, 9, 42, 0
10, 22349, Note_on_c, 9, 36, 0
10, 22381, Note_on_c, 9, 36, 122
10, 22381, Note_on_c, 9, 42, 110
10, 22411, Note_on_c, 9, 42, 0
10, 22411, Note_on_c, 9, 36, 0
10, 22440, Note_on_c, 9, 38, 123
10, 22441, Note_on_c, 9, 42, 110
10, 22470, Note_on_c, 9, 38, 0
10, 22471, Note_on_c, 9, 42, 0
10, 22500, Note_on_c, 9, 36, 122
10, 22500, Note_on_c, 9, 42, 111
10, 22530, Note_on_c, 9, 42, 0
10, 22530, Note_on_c, 9, 36, 0
10, 22560, Note_on_c, 9, 42, 109
10, 22590, Note_on_c, 9, 42, 0
10, 22621, Note_on_c, 9, 42, 107
10, 22651, Note_on_c, 9, 42, 0
10, 22680, Note_on_c, 9, 38, 119
10, 22681, Note_on_c, 9, 42, 113
10, 22710, Note_on_c, 9, 38, 0
10, 22711, Note_on_c, 9, 42, 0
10, 22741, Note_on_c, 9, 42, 109
10, 22771, Note_on_c, 9, 42, 0
10, 22801, Note_on_c, 9, 36, 120
10, 22802, Note_on_c, 9, 42, 110
10, 22831, Note_on_c, 9, 36, 0
10, 22832, Note_on_c, 9, 42, 0
10, 22860, Note_on_c, 9, 36, 118
10, 22860, Note_on_c, 9, 42, 108
10, 22890, Note_on_c, 9, 42, 0
10, 22890, Note_on_c, 9, 36, 0
10, 22921, Note_on_c, 9, 38, 122
10, 22921, Note_on_c, 9, 42, 111
10, 22951, Note_on_c, 9, 42, 0
10, 22951, Note_on_c, 9, 38, 0
10, 22980, Note_on_c, 9, 36, 124
10, 22980, Note_on_c, 9, 42, 108
10, 23010, Note_on_c, 9, 42, 0
10, 23010, Note_on_c, 9, 36, 0
10, 23040, Note_on_c, 9, 42, 107
10, 23070, Note_on_c, 9, 42, 0
10, 23100, Note_on_c, 9, 42, 110
10, 23130, Note_on_c, 9, 42, 0
10, 23160, Note_on_c, 9, 38, 122
10, 23161, Note_on_c, 9, 42, 108
10, 23190, Note_on_c, 9, 38, 0
10, 23191, Note_on_c, 9, 42, 0
10, 23220, Note_on_c, 9, 42, 108
10, 23250, Note_on_c, 9, 42, 0
10, 23280, Note_on_c, 9, 36, 124
10, 23281, Note_on_c, 9, 42, 109
10, 23310, Note_on_c, 9, 36, 0
10, 23311, Note_on_c, 9, 42, 0
10, 23340, Note_on_c, 9, 36, 122
10, 23341, Note_on_c, 9, 42, 113
10, 23370, Note_on_c, 9, 36, 0
10, 23371, Note_on_c, 9, 42, 0
10, 23400, Note_on_c, 9, 38, 119
10, 23400, Note_on_c, 9, 42, 112
10, 23430, Note_on_c, 9, 42, 0
10, 23430, Note_on_c, 9, 38, 0
10, 23461, Note_on_c, 9, 36, 123
10, 23461, Note_on_c, 9, 42, 111
10, 23491, Note_on_c, 9, 42, 0
10, 23491, Note_on_c, 9, 36, 0
10, 23521, Note_on_c, 9, 42, 109
10, 23551, Note_on_c, 9, 42, 0
10, 23580, Note_on_c, 9, 42, 107
10, 23610, Note_on_c, 9, 42, 0
10, 23641, Note_on_c, 9, 38, 122
10, 23641, Note_on_c, 9, 42, 111
10, 23671, Note_on_c, 9, 42, 0
10, 23671, Note_on_c, 9, 38, 0
10, 23700, Note_on_c, 9, 42, 107
10, 23730, Note_on_c, 9, 42, 0
10, 23761, Note_on_c, 9, 36, 119
10, 23761, Note_on_c, 9, 42, 110
10, 23791, Note_on_c, 9, 42, 0
10, 23791, Note_on_c, 9, 36, 0
10, 23821, Note_on_c, 9, 36, 122
10, 23821, Note_on_c, 9, 42, 111
10, 23851, Note_on_c, 9, 42, 0
10, 23851, Note_on_c, 9, 36, 0
10, 23879, Note_on_c, 9, 38, 123
10, 23880, Note_on_c, 9, 42, 113
10, 23909, Note_on_c, 9, 38, 0
10, 23910, Note_on_c, 9, 42, 0
10, 23941, Note_on_c, 9, 36, 122
10, 23942, Note_on_c, 9, 42, 110
10, 23971, Note_on_c, 9, 36, 0
10, 23972, Note_on_c, 9, 42, 0
10, 24000, Note_on_c, 9, 42, 113
10, 24030, Note_on_c, 9, 42, 0
10, 24061, Note_on_c, 9, 42, 111
10, 24091, Note_on_c, 9, 42, 0
10, 24121, Note_on_c, 9, 38, 123
10, 24121, Note_on_c, 9, 42, 111
10, 24151, Note_on_c, 9, 42, 0
10, 24151, Note_on_c, 9, 38, 0
10, 24181, Note_on_c, 9, 42, 113
10, 24211, Note_on_c, 9, 42, 0
10, 24241, Note_on_c, 9, 36, 122
10, 24242, Note_on_c, 9, 42, 111
10, 24271, Note_on_c, 9, 36, 0
10, 24272, Note_on_c, 9, 42, 0
10, 24300, Note_on_c, 9, 36, 118
10, 24300, Note_on_c, 9, 42, 112
10, 24330, Note_on_c, 9, 42, 0
10, 24330, Note_on_c, 9, 36, 0
10, 24360, Note_on_c, 9, 38, 123
10, 24360, Note_on_c, 9, 42, 112
10, 24390, Note_on_c, 9, 42, 0
10, 24390, Note_on_c, 9, 38, 0
10, 24421, Note_on_c, 9, 36, 118
10, 24421, Note_on_c, 9, 42, 107
10, 24451, Note_on_c, 9, 42, 0
10, 24451, Note_on_c, 9, 36, 0
10, 24481, Note_on_c, 9, 42, 112
10, 24511, Note_on_c, 9, 42, 0
10, 24541, Note_on_c, 9, 42, 110
10, 24571, Note_on_c, 9, 42, 0
10, 24600, Note_on_c, 9, 38, 119
10, 24601, Note_on_c, 9, 42, 110
10, 24630, Note_on_c, 9, 38, 0
10, 24631, Note_on_c, 9, 42, 0
10, 24660, Note_on_c, 9, 42, 112
10, 24690, Note_on_c, 9, 42, 0
10, 24721, Note_on_c, 9, 36, 123
10, 24721, Note_on_c, 9, 42, 108
10, 24751, Note_on_c, 9, 42, 0
10, 24751, Note_on_c, 9, 36, 0
10, 24780, Note_on_c, 9, 36, 119
10, 24781, Note_on_c, 9, 42, 108
10, 24810, Note_on_c, 9, 36, 0
10, 24811, Note_on_c, 9, 42, 0
10, 24840, Note_on_c, 9, 38, 120
10, 24841, Note_on_c, 9, 42, 112
10, 24870, Note_on_c, 9, 38, 0
10, 24871, Note_on_c, 9, 42, 0
10, 24901, Note_on_c, 9, 36, 123
10, 24901, Note_on_c, 9, 42, 110
10, 24931, Note_on_c, 9, 42, 0
10, 24931, Note_on_c, 9, 36, 0
10, 24961, Note_on_c, 9, 42, 111
10, 24991, Note_on_c, 9, 42, 0
10, 25020, Note_on_c, 9, 42, 107
10, 25050, Note_on_c, 9, 42, 0
10, 25080, Note_on_c, 9, 38, 118
10, 25081, Note_on_c, 9, 42, 110
10, 25110, Note_on_c, 9, 38, 0
10, 25111, Note_on_c, 9, 42, 0
10, 25140, Note_on_c, 9, 42, 109
10, 25170, Note_on_c, 9, 42, 0
10, 25200, Note_on_c, 9, 36, 124
10, 25201, Note_on_c, 9, 42, 110
10, 25230, Note_on_c, 9, 36, 0
10, 25231, Note_on_c, 9, 42, 0
10, 25259, Note_on_c, 9, 36, 120
10, 25260, Note_on_c, 9, 42, 107
10, 25289, Note_on_c, 9, 36, 0
10, 25290, Note_on_c, 9, 42, 0
10, 25321, Note_on_c, 9, 38, 119
10, 25321, Note_on_c, 9, 42, 111
10, 25351, Note_on_c, 9, 42, 0
10, 25351, Note_on_c, 9, 38, 0
10, 25381, Note_on_c, 9, 36, 122
10, 25382, Note_on_c, 9, 49, 113
10, 25411, Note_on_c, 9, 36, 0
10, 25412, Note_on_c, 9, 49, 0
10, 25440, Note_on_c, 9, 42, 107
10, 25470, Note_on_c, 9, 42, 0
10, 25501, Note_on_c, 9, 42, 113
10, 25531, Note_on_c, 9, 42, 0
10, 25560, Note_on_c, 9, 38, 120
10, 25560, Note_on_c, 9, 42, 110
10, 25590, Note_on_c, 9, 42, 0
10, 25590, Note_on_c, 9, 38, 0
10, 25620, Note_on_c, 9, 42, 111
10, 25650, Note_on_c, 9, 42, 0
10, 25680, Note_on_c, 9, 36, 119
10, 25681, Note_on_c, 9, 42, 109
10, 25710, Note_on_c, 9, 36, 0
10, 25711, Note_on_c, 9, 42, 0
10, 25740, Note_on_c, 9, 36, 121
10, 25741, Note_on_c, 9, 42, 112
10, 25770, Note_on_c, 9, 36, 0
10, 25771, Note_on_c, 9, 42, 0
10, 25801, Note_on_c, 9, 38, 119
10, 25802, Note_on_c, 9, 42, 110
10, 25831, Note_on_c, 9, 38, 0
10, 25832, Note_on_c, 9, 42, 0
10, 25861, Note_on_c, 9, 36, 122
10, 25861, Note_on_c, 9, 42, 109
10, 25891, Note_on_c, 9, 42, 0
10, 25891, Note_on_c, 9, 36, 0
10, 25921, Note_on_c, 9, 42, 107
10, 25951, Note_on_c, 9, 42, 0
10, 25980, Note_on_c, 9, 42, 109
10, 26010, Note_on_c, 9, 42, 0
10, 26040, Note_on_c, 9, 38, 118
10, 26041, Note_on_c, 9, 42, 112
10, 26070, Note_on_c, 9, 38, 0
10, 26071, Note_on_c, 9, 42, 0
10, 26101, Note_on_c, 9, 42, 108
10, 26131, Note_on_c, 9, 42, 0
10, 26160, Note_on_c, 9, 36, 118
10, 26161, Note_on_c, 9, 42, 109
10, 26190, Note_on_c, 9, 36, 0
10, 26191, Note_on_c, 9, 42, 0
10, 26220, Note_on_c, 9, 36, 118
10, 26220, Note_on_c, 9, 42, 110
10, 26250, Note_on_c, 9, 42, 0
10, 26250, Note_on_c, 9, 36, 0
10, 26281, Note_on_c, 9, 38, 124
10, 26281, Note_on_c, 9, 42, 112
10, 26311, Note_on_c, 9, 42, 0
10, 26311, Note_on_c, 9, 38, 0
10, 26341, Note_on_c, 9, 36, 121
10, 26341, Note_on_c, 9, 42, 107
10, 26371, Note_on_c, 9, 42, 0
10, 26371, Note_on_c, 9, 36, 0
10, 26400, Note_on_c, 9, 42, 113
10, 26430, Note_on_c, 9, 42, 0
10, 26460, Note_on_c, 9, 42, 113
10, 26490, Note_on_c, 9, 42, 0
10, 26519, Note_on_c, 9, 38, 122
10, 26519, Note_on_c, 9, 42, 109
10, 26549, Note_on_c, 9, 42, 0
10, 26549, Note_on_c, 9, 38, 0
10, 26580, Note_on_c, 9, 42, 108
10, 26610, Note_on_c, 9, 42, 0
10, 26640, Note_on_c, 9, 36, 124
10, 26641, Note_on_c, 9, 42, 111
10, 26670, Note_on_c, 9, 36, 0
10, 26671, Note_on_c, 9, 42, 0
10, 26700, Note_on_c, 9, 36, 124
10, 26700, Note_on_c, 9, 42, 113
10, 26730, Note_on_c, 9, 42, 0
10, 26730, Note_on_c, 9, 36, 0
10, 26760, Note_on_c, 9, 38, 124
10, 26760, Note_on_c, 9, 42, 111
10, 26790, Note_on_c, 9, 42, 0
10, 26790, Note_on_c, 9, 38, 0
10, 26821, Note_on_c, 9, 36, 119
10, 26821, Note_on_c, 9, 42, 110
10, 26851, Note_on_c, 9, 42, 0
10, 26851, Note_on_c, 9, 36, 0
10, 26880, Note_on_c, 9, 42, 107
10, 26910, Note_on_c, 9, 42, 0
10, 26941, Note_on_c, 9, 42, 113
10, 26971, Note_on_c, 9, 42, 0
10, 27001, Note_on_c, 9, 38, 119
10, 27001, Note_on_c, 9, 42, 113
10, 27031, Note_on_c, 9, 42, 0
10, 27031, Note_on_c, 9, 38, 0
10, 27060, Note_on_c, 9, 42, 109
10, 27090, Note_on_c, 9, 42, 0
10, 27121, Note_on_c, 9, 36, 120
10, 27122, Note_on_c, 9, 42, 110
10, 27151, Note_on_c, 9, 36, 0
10, 27152, Note_on_c, 9, 42, 0
10, 27180, Note_on_c, 9, 36, 123
10, 27180, Note_on_c, 9, 42, 112
10, 27210, Note_on_c, 9, 42, 0
10, 27210, Note_on_c, 9, 36, 0
10, 27241, Note_on_c, 9, 38, 120
10, 27241, Note_on_c, 9, 42, 107
10, 27271, Note_on_c, 9, 42, 0
10, 27271, Note_on_c, 9, 38, 0
10, 27301, Note_on_c, 9, 36, 122
10, 27302, Note_on_c, 9, 42, 111
10, 27331, Note_on_c, 9, 36, 0
10, 27332, Note_on_c, 9, 42, 0
10, 27360, Note_on_c, 9, 42, 112
10, 27390, Note_on_c, 9, 42, 0
10, 27421, Note_on_c, 9, 42, 110
10, 27451, Note_on_c, 9, 42, 0
10, 27480, Note_on_c, 9, 38, 121
10, 27480, Note_on_c, 9, 42, 111
10, 27510, Note_on_c, 9, 42, 0
10, 27510, Note_on_c, 9, 38, 0
10, 27541, Note_on_c, 9, 42, 111
10, 27571, Note_on_c, 9, 42, 0
10, 27600, Note_on_c, 9, 36, 123
10, 27600, Note_on_c, 9, 42, 107
10, 27630, Note_on_c, 9, 42, 0
10, 27630, Note_on_c, 9, 36, 0
10, 27661, Note_on_c, 9, 36, 118
10, 27661, Note_on_c, 9, 42, 111
10, 27691, Note_on_c, 9, 42, 0
10, 27691, Note_on_c, 9, 36, 0
10, 27720, Note_on_c, 9, 38, 121
10, 27721, Note_on_c, 9, 42, 111
10, 27750, Note_on_c, 9, 38, 0
10, 27751, Note_on_c, 9, 42, 0
10, 27781, Note_on_c, 9, 36, 120
10, 27781, Note_on_c, 9, 42, 108
10, 27811, Note_on_c, 9, 42, 0
10, 27811, Note_on_c, 9, 36, 0
10, 27841, Note_on_c, 9, 42, 111
10, 27871, Note_on_c, 9, 42, 0
10, 27901, Note_on_c, 9, 42, 113
10, 27931, Note_on_c, 9, 42, 0
10, 27959, Note_on_c, 9, 38, 122
10, 27960, Note_on_c, 9, 42, 110
10, 27989, Note_on_c, 9, 38, 0
10, 27990, Note_on_c, 9, 42, 0
10, 28021, Note_on_c, 9, 42, 113
10, 28051, Note_on_c, 9, 42, 0
10, 28081, Note_on_c, 9, 36, 122
10, 28082, Note_on_c, 9, 42, 108
10, 28111, Note_on_c, 9, 36, 0
10, 28112, Note_on_c, 9, 42, 0
10, 28140, Note_on_c, 9, 36, 123
10, 28140, Note_on_c, 9, 42, 109
10, 28170, Note_on_c, 9, 42, 0
10, 28170, Note_on_c, 9, 36, 0
10, 28201, Note_on_c, 9, 38, 119
10, 28201, Note_on_c, 9, 42, 113
10, 28231, Note_on_c, 9, 42, 0
10, 28231, Note_on_c, 9, 38, 0
10, 28261, Note_on_c, 9, 36, 123
10, 28261, Note_on_c, 9, 42, 112
10, 28291, Note_on_c, 9, 42, 0
10, 28291, Note_on_c, 9, 36, 0
10, 28321, Note_on_c, 9, 42, 112
10, 28351, Note_on_c, 9, 42, 0
10, 28381, Note_on_c, 9, 42, 109
10, 28411, Note_on_c, 9, 42, 0
10, 28440, Note_on_c, 9, 38, 122
10, 28440, Note_on_c, 9, 42, 113
10, 28470, Note_on_c, 9, 42, 0
10, 28470, Note_on_c, 9, 38, 0
10, 28499, Note_on_c, 9, 42, 110
10, 28529, Note_on_c, 9, 42, 0
10, 28560, Note_on_c, 9, 36, 123
10, 28560, Note_on_c, 9, 42, 112
10, 28590, Note_on_c, 9, 42, 0
10, 28590, Note_on_c, 9, 36, 0
10, 28620, Note_on_c, 9, 36, 124
10, 28621, Note_on_c, 9, 42, 112
10, 28650, Note_on_c, 9, 36, 0
10, 28651, Note_on_c, 9, 42, 0
10, 28681, Note_on_c, 9, 38, 124
10, 28681, Note_on_c, 9, 42, 108
10, 28711, Note_on_c, 9, 42, 0
10, 28711, Note_on_c, 9, 38, 0
10, 28741, Note_on_c, 9, 36, 120
10, 28742, Note_on_c, 9, 42, 110
10, 28771, Note_on_c, 9, 36, 0
10, 28772, Note_on_c, 9, 42, 0
10, 28801, Note_on_c, 9, 42, 109
10, 28831, Note_on_c, 9, 42, 0
10, 28861, Note_on_c, 9, 42, 113
10, 28891, Note_on_c, 9, 42, 0
10, 28921, Note_on_c, 9, 38, 119
10, 28921, Note_on_c, 9, 42, 111
10, 28951, Note_on_c, 9, 42, 0
10, 28951, Note_on_c, 9, 38, 0
10, 28980, Note_on_c, 9, 42, 107
10, 29010, Note_on_c, 9, 42, 0
10, 29041, Note_on_c, 9, 36, 119
10, 29041, Note_on_c, 9, 42, 113
10, 29071, Note_on_c, 9, 42, 0
10, 29071, Note_on_c, 9, 36, 0
10, 29101, Note_on_c, 9, 36, 118
10, 29101, Note_on_c, 9, 42, 112
10, 29131, Note_on_c, 9, 42, 0
10, 29131, Note_on_c, 9, 36, 0
10, 29161, Note_on_c, 9, 38, 120
10, 29162, Note_on_c, 9, 42, 113
10, 29191, Note_on_c, 9, 38, 0
10, 29192, Note_on_c, 9, 42, 0
10, 29220, Note_on_c, 9, 36, 118
10, 29221, Note_on_c, 9, 42, 113
10, 29250, Note_on_c, 9, 36, 0
10, 29251, Note_on_c, 9, 42, 0
10, 29280, Note_on_c, 9, 42, 110
10, 29310, Note_on_c, 9, 42, 0
10, 29340, Note_on_c, 9, 42, 109
10, 29370, Note_on_c, 9, 42, 0
10, 29399, Note_on_c, 9, 38, 124
10, 29399, Note_on_c, 9, 42, 107
10, 29429, Note_on_c, 9, 42, 0
10, 29429, Note_on_c, 9, 38, 0
10, 29461, Note_on_c, 9, 42, 110
10, 29491, Note_on_c, 9, 42, 0
10, 29521, Note_on_c, 9, 36, 123
10, 29522, Note_on_c, 9, 42, 108
10, 29551, Note_on_c, 9, 36, 0
10, 29552, Note_on_c, 9, 42, 0
10, 29581, Note_on_c, 9, 36, 122
10, 29581, Note_on_c, 9, 42, 109
10, 29611, Note_on_c, 9, 42, 0
10, 29611, Note_on_c, 9, 36, 0
10, 29641, Note_on_c, 9, 38, 124
10, 29642, Note_on_c, 9, 42, 108
10, 29671, Note_on_c, 9, 38, 0
10, 29672, Note_on_c, 9, 42, 0
10, 29700, Note_on_c, 9, 36, 120
10, 29700, Note_on_c, 9, 42, 112
10, 29730, Note_on_c, 9, 42, 0
10, 29730, Note_on_c, 9, 36, 0
10, 29761, Note_on_c, 9, 42, 113
10, 29791, Note_on_c, 9, 42, 0
10, 29820, Note_on_c, 9, 42, 111
10, 29850, Note_on_c, 9, 42, 0
10, 29881, Note_on_c, 9, 38, 121
10, 29881, Note_on_c, 9, 42, 112
10, 29911, Note_on_c, 9, 42, 0
10, 29911, Note_on_c, 9, 38, 0
10, 29940, Note_on_c, 9, 42, 111
10, 29970, Note_on_c, 9, 42, 0
10, 30000, Note_on_c, 9, 36, 118
10, 30000, Note_on_c, 9, 42, 107
10, 30030, Note_on_c, 9, 42, 0
10, 30030, Note_on_c, 9, 36, 0
10, 30061, Note_on_c, 9, 36, 119
10, 30061, Note_on_c, 9, 42, 113
10, 30091, Note_on_c, 9, 42, 0
10, 30091, Note_on_c, 9, 36, 0
10, 30121, Note_on_c, 9, 38, 118
10, 30121, Note_on_c, 9, 42, 108
10, 30151, Note_on_c, 9, 42, 0
10, 30151, Note_on_c, 9, 38, 0
10, 30181, Note_on_c, 9, 36, 121
10, 30182, Note_on_c, 9, 42, 112
10, 30211, Note_on_c, 9, 36, 0
10, 30212, Note_on_c, 9, 42, 0
10, 30241, Note_on_c, 9, 42, 110
10, 30271, Note_on_c, 9, 42, 0
10, 30300, Note_on_c, 9, 42, 113
10, 30330, Note_on_c, 9, 42, 0
10, 30360, Note_on_c, 9, 38, 124
10, 30361, Note_on_c, 9, 42, 107
10, 30390, Note_on_c, 9, 38, 0
10, 30391, Note_on_c, 9, 42, 0
10, 30420, Note_on_c, 9, 42, 113
10, 30450, Note_on_c, 9, 42, 0
10, 30481, Note_on_c, 9, 36, 124
10, 30481, Note_on_c, 9, 42, 111
10, 30511, Note_on_c, 9, 42, 0
10, 30511, Note_on_c, 9, 36, 0
10, 30541, Note_on_c, 9, 36, 121
10, 30541, Note_on_c, 9, 42, 112
10, 30571, Note_on_c, 9, 42, 0
10, 30571, Note_on_c, 9, 36, 0
10, 30601, Note_on_c, 9, 38, 119
10, 30602, Note_on_c, 9, 42, 110
10, 30631, Note_on_c, 9, 38, 0
10, 30632, Note_on_c, 9, 42, 0
10, 30660, Note_on_c, 9, 36, 118
10, 30660, Note_on_c, 9, 42, 113
10, 30690, Note_on_c, 9, 42, 0
10, 30690, Note_on_c, 9, 36, 0
10, 30720, Note_on_c, 9, 42, 110
10, 30750, Note_on_c, 9, 42, 0
10, 30780, Note_on_c, 9, 42, 108
10, 30810, Note_on_c, 9, 42, 0
10, 30840, Note_on_c, 9, 38, 118
10, 30841, Note_on_c, 9, 42, 111
10, 30870, Note_on_c, 9, 38, 0
10, 30871, Note_on_c, 9, 42, 0
10, 30900, Note_on_c, 9, 42, 111
10, 30930, Note_on_c, 9, 42, 0
10, 30961, Note_on_c, 9, 36, 124
10, 30962, Note_on_c, 9, 42, 108
10, 30991, Note_on_c, 9, 36, 0
10, 30992, Note_on_c, 9, 42, 0
10, 31021, Note_on_c, 9, 36, 119
10, 31021, Note_on_c, 9, 42, 110
10, 31051, Note_on_c, 9, 42, 0
10, 31051, Note_on_c, 9, 36, 0
10, 31080, Note_on_c, 9, 38, 119
10, 31081, Note_on_c, 9, 42, 109
10, 31110, Note_on_c, 9, 38, 0
10, 31111, Note_on_c, 9, 42, 0
10, 31141, Note_on_c, 9, 36, 123
10, 31141, Note_on_c, 9, 42, 112
10, 31171, Note_on_c, 9, 42, 0
10, 31171, Note_on_c, 9, 36, 0
10, 31201, Note_on_c, 9, 42, 108
10, 31231, Note_on_c, 9, 42, 0
10, 31261, Note_on_c, 9, 42, 112
10, 31291, Note_on_c, 9, 42, 0
10, 31321, Note_on_c, 9, 38, 118
10, 31321, Note_on_c, 9, 42, 109
10, 31351, Note_on_c, 9, 42, 0
10, 31351, Note_on_c, 9, 38, 0
10, 31381, Note_on_c, 9, 42, 108
10, 31411, Note_on_c, 9, 42, 0
10, 31440, Note_on_c, 9, 36, 120
10, 31440, Note_on_c, 9, 42, 107
10, 31470, Note_on_c, 9, 42, 0
10, 31470, Note_on_c, 9, 36, 0
10, 31501, Note_on_c, 9, 36, 119
10, 31501, Note_on_c, 9, 42, 109
10, 31531, Note_on_c, 9, 42, 0
10, 31531, Note_on_c, 9, 36, 0
10, 31561, Note_on_c, 9, 38, 124
10, 31561, Note_on_c, 9, 42, 112
10, 31591, Note_on_c, 9, 42, 0
10, 31591, Note_on_c, 9, 38, 0
10, 31621, Note_on_c, 9, 36, 123
10, 31622, Note_on_c, 9, 42, 112
10, 31651, Note_on_c, 9, 36, 0
10, 31652, Note_on_c, 9, 42, 0
10, 31680, Note_on_c, 9, 42, 111
10, 31710, Note_on_c, 9, 42, 0
10, 31741, Note_on_c, 9, 42, 112
10, 31771, Note_on_c, 9, 42, 0
10, 31800, Note_on_c, 9, 38, 124
10, 31800, Note_on_c, 9, 42, 112
10, 31830, Note_on_c, 9, 42, 0
10, 31830, Note_on_c, 9, 38, 0
10, 31859, Note_on_c, 9, 42, 109
10, 31889, Note_on_c, 9, 42, 0
10, 31920, Note_on_c, 9, 36, 123
10, 31921, Note_on_c, 9, 42, 109
10, 31950, Note_on_c, 9, 36, 0
10, 31951, Note_on_c, 9, 42, 0
10, 31980, Note_on_c, 9, 36, 122
10, 31981, Note_on_c, 9, 42, 109
10, 32010, Note_on_c, 9, 36, 0
10, 32011, Note_on_c, 9, 42, 0
10, 32041, Note_on_c, 9, 38, 124
10, 32042, Note_on_c, 9, 42, 107
10, 32071, Note_on_c, 9, 38, 0
10, 32072, Note_on_c, 9, 42, 0
10, 32100, Note_on_c, 9, 36, 124
10, 32101, Note_on_c, 9, 42, 108
10, 32130, Note_on_c, 9, 36, 0
10, 32131, Note_on_c, 9, 42, 0
10, 32161, Note_on_c, 9, 42, 113
10, 32191, Note_on_c, 9, 42, 0
10, 32221, Note_on_c, 9, 42, 108
10, 32251, Note_on_c, 9, 42, 0
10, 32280, Note_on_c, 9, 38, 124
10, 32281, Note_on_c, 9, 42, 109
10, 32310, Note_on_c, 9, 38, 0
10, 32311, Note_on_c, 9, 42, 0
10, 32340, Note_on_c, 9, 42, 107
10, 32370, Note_on_c, 9, 42, 0
10, 32401, Note_on_c, 9, 36, 124
10, 32402, Note_on_c, 9, 42, 113
10, 32431, Note_on_c, 9, 36, 0
10, 32432, Note_on_c, 9, 42, 0
10, 32460, Note_on_c, 9, 36, 124
10, 32460, Note_on_c, 9, 42, 109
10, 32490, Note_on_c, 9, 42, 0
10, 32490, Note_on_c, 9, 36, 0
10, 32521, Note_on_c, 9, 38, 119
10, 32522, Note_on_c, 9, 42, 113
10, 32551, Note_on_c, 9, 38, 0
10, 32552, Note_on_c, 9, 42, 0
10, 32580, Note_on_c, 9, 36, 122
10, 32581, Note_on_c, 9, 42, 110
10, 32610, Note_on_c, 9, 36, 0
10, 32611, Note_on_c, 9, 42, 0
10, 32640, Note_on_c, 9, 42, 110
10, 32670, Note_on_c, 9, 42, 0
10, 32700, Note_on_c, 9, 42, 112
10, 32730, Note_on_c, 9, 42, 0
10, 32760, Note_on_c, 9, 38, 118
10, 32761, Note_on_c, 9, 42, 108
10, 32790, Note_on_c, 9, 38, 0
10, 32791, Note_on_c, 9, 42, 0
10, 32821, Note_on_c, 9, 42, 112
10, 32851, Note_on_c, 9, 42, 0
10, 32881, Note_on_c, 9, 36, 122
10, 32882, Note_on_c, 9, 42, 110
10, 32911, Note_on_c, 9, 36, 0
10, 32912, Note_on_c, 9, 42, 0
10, 32940, Note_on_c, 9, 36, 118
10, 32940, Note_on_c, 9, 42, 109
10, 32970, Note_on_c, 9, 42, 0
10, 32970, Note_on_c, 9, 36, 0
10, 33001, Note_on_c, 9, 38, 119
10, 33002, Note_on_c, 9, 42, 111
10, 33031, Note_on_c, 9, 38, 0
10, 33032, Note_on_c, 9, 42, 0
10, 33060, Note_on_c, 9, 36, 124
10, 33061, Note_on_c, 9, 49, 112
10, 33090, Note_on_c, 9, 36, 0
10, 33091, Note_on_c, 9, 49, 0
10, 33120, Note_on_c, 9, 42, 113
10, 33150, Note_on_c, 9, 42, 0
10, 33180, Note_on_c, 9, 42, 110
10, 33210, Note_on_c, 9, 42, 0
10, 33241, Note_on_c, 9, 38, 123
10, 33241, Note_on_c, 9, 42, 107
10, 33271, Note_on_c, 9, 42, 0
10, 33271, Note_on_c, 9, 38, 0
10, 33300, Note_on_c, 9, 42, 111
10, 33330, Note_on_c, 9, 42, 0
10, 33361, Note_on_c, 9, 36, 119
10, 33361, Note_on_c, 9, 42, 111
10, 33391, Note_on_c, 9, 42, 0
10, 33391, Note_on_c, 9, 36, 0
10, 33420, Note_on_c, 9, 36, 118
10, 33420, Note_on_c, 9, 42, 109
10, 33450, Note_on_c, 9, 42, 0
10, 33450, Note_on_c, 9, 36, 0
10, 33481, Note_on_c, 9, 38, 121
10, 33482, Note_on_c, 9, 42, 107
10, 33511, Note_on_c, 9, 38, 0
10, 33512, Note_on_c, 9, 42, 0
10, 33540, Note_on_c, 9, 36, 118
10, 33541, Note_on_c, 9, 42, 113
10, 33570, Note_on_c, 9, 36, 0
10, 33571, Note_on_c, 9, 42, 0
10, 33600, Note_on_c, 9, 42, 108
10, 33630, Note_on_c, 9, 42, 0
10, 33661, Note_on_c, 9, 42, 108
10, 33691, Note_on_c, 9, 42, 0
10, 33720, Note_on_c, 9, 38, 120
10, 33720, Note_on_c, 9, 42, 108
10, 33750, Note_on_c, 9, 42, 0
10, 33750, Note_on_c, 9, 38, 0
10, 33780, Note_on_c, 9, 42, 108
10, 33810, Note_on_c, 9, 42, 0
10, 33841, Note_on_c, 9, 36, 119
10, 33841, Note_on_c, 9, 42, 109
10, 33871, Note_on_c, 9, 42, 0
10, 33871, Note_on_c, 9, 36, 0
10, 33900, Note_on_c, 9, 36, 119
10, 33901, Note_on_c, 9, 42, 109
10, 33930, Note_on_c, 9, 36, 0
10, 33931, Note_on_c, 9, 42, 0
10, 33961, Note_on_c, 9, 38, 123
10, 33961, Note_on_c, 9, 42, 112
10, 33991, Note_on_c, 9, 42, 0
10, 33991, Note_on_c, 9, 38, 0
10, 34021, Note_on_c, 9, 36, 124
10, 34022, Note_on_c, 9, 42, 111
10, 34051, Note_on_c, 9, 36, 0
10, 34052, Note_on_c, 9, 42, 0
10, 34081, Note_on_c, 9, 42, 109
10, 34111, Note_on_c, 9, 42, 0
10, 34140, Note_on_c, 9, 42, 109
10, 34170, Note_on_c, 9, 42, 0
10, 34200, Note_on_c, 9, 38, 118
10, 34200, Note_on_c, 9, 42, 109
10, 34230, Note_on_c, 9, 42, 0
10, 34230, Note_on_c, 9, 38, 0
10, 34261, Note_on_c, 9, 42, 108
10, 34291, Note_on_c, 9, 42, 0
10, 34320, Note_on_c, 9, 36, 124
10, 34320, Note_on_c, 9, 42, 112
10, 34350, Note_on_c, 9, 42, 0
10, 34350, Note_on_c, 9, 36, 0
10, 34380, Note_on_c, 9, 36, 123
10, 34380, Note_on_c, 9, 42, 111
10, 34410, Note_on_c, 9, 42, 0
10, 34410, Note_on_c, 9, 36, 0
10, 34440, Note_on_c, 9, 38, 123
10, 34441, Note_on_c, 9, 42, 110
10, 34470, Note_on_c, 9, 38, 0
10, 34471, Note_on_c, 9, 42, 0
10, 34501, Note_on_c, 9, 36, 121
10, 34502, Note_on_c, 9, 42, 109
10, 34531, Note_on_c, 9, 36, 0
10, 34532, Note_on_c, 9, 42, 0
10, 34560, Note_on_c, 9, 42, 113
10, 34590, Note_on_c, 9, 42, 0
10, 34621, Note_on_c, 9, 42, 108
10, 34651, Note_on_c, 9, 42, 0
10, 34680, Note_on_c, 9, 38, 123
10, 34680, Note_on_c, 9, 42, 113
10, 34710, Note_on_c, 9, 42, 0
10, 34710, Note_on_c, 9, 38, 0
10, 34740, Note_on_c, 9, 42, 110
10, 34770, Note_on_c, 9, 42, 0
10, 34801, Note_on_c, 9, 36, 118
10, 34801, Note_on_c, 9, 42, 109
10, 34831, Note_on_c, 9, 42, 0
10, 34831, Note_on_c, 9, 36, 0
10, 34861, Note_on_c, 9, 36, 124
10, 34861, Note_on_c, 9, 42, 109
10, 34891, Note_on_c, 9, 42, 0
10, 34891, Note_on_c, 9, 36, 0
10, 34920, Note_on_c, 9, 38, 120
10, 34921, Note_on_c, 9, 42, 113
10, 34950, Note_on_c, 9, 38, 0
10, 34951, Note_on_c, 9, 42, 0
10, 34980, Note_on_c, 9, 36, 124
10, 34981, Note_on_c, 9, 42, 110
10, 35010, Note_on_c, 9, 36, 0
10, 35011, Note_on_c, 9, 42, 0
10, 35041, Note_on_c, 9, 42, 113
10, 35071, Note_on_c, 9, 42, 0
10, 35101, Note_on_c, 9, 42, 113
10, 35131, Note_on_c, 9, 42, 0
10, 35160, Note_on_c, 9, 38, 122
10, 35160, Note_on_c, 9, 42, 110
10, 35190, Note_on_c, 9, 42, 0
10, 35190, Note_on_c, 9, 38, 0
10, 35219, Note_on_c, 9, 42, 113
10, 35249, Note_on_c, 9, 42, 0
10, 35281, Note_on_c, 9, 36, 122
10, 35282, Note_on_c, 9, 42, 107
10, 35311, Note_on_c, 9, 36, 0
10, 35312, Note_on_c, 9, 42, 0
10, 35341, Note_on_c, 9, 36, 118
10, 35341, Note_on_c, 9, 42, 111
10, 35371, Note_on_c, 9, 42, 0
10, 35371, Note_on_c, 9, 36, 0
10, 35400, Note_on_c, 9, 38, 118
10, 35401, Note_on_c, 9, 42, 110
10, 35430, Note_on_c, 9, 38, 0
10, 35431, Note_on_c, 9, 42, 0
10, 35461, Note_on_c, 9, 36, 123
10, 35461, Note_on_c, 9, 42, 110
10, 35491, Note_on_c, 9, 42, 0
10, 35491, Note_on_c, 9, 36, 0
10, 35520, Note_on_c, 9, 42, 112
10, 35550, Note_on_c, 9, 42, 0
10, 35581, Note_on_c, 9, 42, 113
10, 35611, Note_on_c, 9, 42, 0
10, 35640, Note_on_c, 9, 38, 119
10, 35640, Note_on_c, 9, 42, 112
10, 35670, Note_on_c, 9, 42, 0
10, 35670, Note_on_c, 9, 38, 0
10, 35700, Note_on_c, 9, 42, 113
10, 35730, Note_on_c, 9, 42, 0
10, 35760, Note_on_c, 9, 36, 124
10, 35760, Note_on_c, 9, 42, 112
10, 35790, Note_on_c, 9, 42, 0
10, 35790, Note_on_c, 9, 36, 0
10, 35821, Note_on_c, 9, 36, 123
10, 35821, Note_on_c, 9, 42, 112
10, 35851, Note_on_c, 9, 42, 0
10, 35851, Note_on_c, 9, 36, 0
10, 35880, Note_on_c, 9, 38, 124
10, 35881, Note_on_c, 9, 42, 110
10, 35910, Note_on_c, 9, 38, 0
10, 35911, Note_on_c, 9, 42, 0
10, 35939, Note_on_c, 9, 36, 122
10, 35940, Note_on_c, 9, 42, 109
10, 35969, Note_on_c, 9, 36, 0
10, 35970, Note_on_c, 9, 42, 0
10, 36000, Note_on_c, 9, 42, 111
10, 36030, Note_on_c, 9, 42, 0
10, 36060, Note_on_c, 9, 42, 112
10, 36090, Note_on_c, 9, 42, 0
10, 36120, Note_on_c, 9, 38, 119
10, 36121, Note_on_c, 9, 42, 110
10, 36150, Note_on_c, 9, 38, 0
10, 36151, Note_on_c, 9, 42, 0
10, 36180, Note_on_c, 9, 42, 110
10, 36210, Note_on_c, 9, 42, 0
10, 36240, Note_on_c, 9, 36, 118
10, 36240, Note_on_c, 9, 42, 111
10, 36270, Note_on_c, 9, 42, 0
10, 36270, Note_on_c, 9, 36, 0
10, 36300, Note_on_c, 9, 36, 123
10, 36300, Note_on_c, 9, 42, 113
10, 36330, Note_on_c, 9, 42, 0
10, 36330, Note_on_c, 9, 36, 0
10, 36361, Note_on_c, 9, 38, 122
10, 36361, Note_on_c, 9, 42, 107
10, 36391, Note_on_c, 9, 42, 0
10, 36391, Note_on_c, 9, 38, 0
10, 36421, Note_on_c, 9, 36, 123
10, 36422, Note_on_c, 9, 42, 110
10, 36451, Note_on_c, 9, 36, 0
10, 36452, Note_on_c, 9, 42, 0
10, 36480, Note_on_c, 9, 42, 113
10, 36510, Note_on_c, 9, 42, 0
10, 36540, Note_on_c, 9, 42, 108
10, 36570, Note_on_c, 9, 42, 0
10, 36600, Note_on_c, 9, 38, 118
10, 36601, Note_on_c, 9, 42, 110
10, 36630, Note_on_c, 9, 38, 0
10, 36631, Note_on_c, 9, 42, 0
10, 36659, Note_on_c, 9, 42, 110
10, 36689, Note_on_c, 9, 42, 0
10, 36721, Note_on_c, 9, 36, 118
10, 36722, Note_on_c, 9, 42, 111
10, 36751, Note_on_c, 9, 36, 0
10, 36752, Note_on_c, 9, 42, 0
10, 36780, Note_on_c, 9, 36, 120
10, 36781, Note_on_c, 9, 42, 109
10, 36810, Note_on_c, 9, 36, 0
10, 36811, Note_on_c, 9, 42, 0
10, 36841, Note_on_c, 9, 38, 118
10, 36841, Note_on_c, 9, 42, 109
10, 36871, Note_on_c, 9, 42, 0
10, 36871, Note_on_c, 9, 38, 0
10, 36901, Note_on_c, 9, 36, 122
10, 36901, Note_on_c, 9, 42, 113
10, 36931, Note_on_c, 9, 42, 0
10, 36931, Note_on_c, 9, 36, 0
10, 36960, Note_on_c, 9, 42, 109
10, 36990, Note_on_c, 9, 42, 0
10, 37021, Note_on_c, 9, 42, 107
10, 37051, Note_on_c, 9, 42, 0
10, 37080, Note_on_c, 9, 38, 121
10, 37080, Note_on_c, 9, 42, 109
10, 37110, Note_on_c, 9, 42, 0
10, 37110, Note_on_c, 9, 38, 0
10, 37141, Note_on_c, 9, 42, 112
10, 37171, Note_on_c, 9, 42, 0
10, 37200, Note_on_c, 9, 36, 118
10, 37201, Note_on_c, 9, 42, 110
10, 37230, Note_on_c, 9, 36, 0
10, 37231, Note_on_c, 9, 42, 0
10, 37260, Note_on_c, 9, 36, 119
10, 37261, Note_on_c, 9, 42, 110
10, 37290, Note_on_c, 9, 36, 0
10, 37291, Note_on_c, 9, 42, 0
10, 37321, Note_on_c, 9, 38, 123
10, 37321, Note_on_c, 9, 42, 110
10, 37351, Note_on_c, 9, 42, 0
10, 37351, Note_on_c, 9, 38, 0
10, 37381, Note_on_c, 9, 36, 118
10, 37382, Note_on_c, 9, 42, 108
10, 37411, Note_on_c, 9, 36, 0
10, 37412, Note_on_c, 9, 42, 0
10, 37441, Note_on_c, 9, 42, 109
10, 37471, Note_on_c, 9, 42, 0
10, 37500, Note_on_c, 9, 42, 112
10, 37530, Note_on_c, 9, 42, 0
10, 37560, Note_on_c, 9, 38, 120
10, 37560, Note_on_c, 9, 42, 112
10, 37590, Note_on_c, 9, 42, 0
10, 37590, Note_on_c, 9, 38, 0
10, 37620, Note_on_c, 9, 42, 110
10, 37650, Note_on_c, 9, 42, 0
10, 37680, Note_on_c, 9, 36, 120
10, 37681, Note_on_c, 9, 42, 108
10, 37710, Note_on_c, 9, 36, 0
10, 37711, Note_on_c, 9, 42, 0
10, 37740, Note_on_c, 9, 36, 118
10, 37740, Note_on_c, 9, 42, 107
10, 37770, Note_on_c, 9, 42, 0
10, 37770, Note_on_c, 9, 36, 0
10, 37800, Note_on_c, 9, 38, 124
10, 37800, Note_on_c, 9, 42, 108
10, 37830, Note_on_c, 9, 42, 0
10, 37830, Note_on_c, 9, 38, 0
10, 37861, Note_on_c, 9, 36, 123
10, 37861, Note_on_c, 9, 42, 108
10, 37891, Note_on_c, 9, 42, 0
10, 37891, Note_on_c, 9, 36, 0
10, 37921, Note_on_c, 9, 42, 112
10, 37951, Note_on_c, 9, 42, 0
10, 37981, Note_on_c, 9, 42, 110
10, 38011, Note_on_c, 9, 42, 0
10, 38040, Note_on_c, 9, 38, 120
10, 38041, Note_on_c, 9, 42, 109
10, 38070, Note_on_c, 9, 38, 0
10, 38071, Note_on_c, 9, 42, 0
10, 38100, Note_on_c, 9, 42, 112
10, 38130, Note_on_c, 9, 42, 0
10, 38161, Note_on_c, 9, 36, 118
10, 38161, Note_on_c, 9, 42, 113
10, 38191, Note_on_c, 9, 42, 0
10, 38191, Note_on_c, 9, 36, 0
10, 38220, Note_on_c, 9, 36, 119
10, 38220, Note_on_c, 9, 42, 110
10, 38250, Note_on_c, 9, 42, 0
10, 38250, Note_on_c, 9, 36, 0
10, 38279, Note_on_c, 9, 38, 123
10, 38280, Note_on_c, 9, 42, 107
10, 38309, Note_on_c, 9, 38, 0
10, 38310, Note_on_c, 9, 42, 0
10, 38341, Note_on_c, 9, 36, 118
10, 38341, Note_on_c, 9, 42, 109
10, 38371, Note_on_c, 9, 42, 0
10, 38371, Note_on_c, 9, 36, 0
10, 38400, Note_on_c, 9, 42, 113
10, 38430, Note_on_c, 9, 42, 0
10, 38461, Note_on_c, 9, 42, 107
10, 38491, Note_on_c, 9, 42, 0
10, 38520, Note_on_c, 9, 38, 123
10, 38521, Note_on_c, 9, 42, 111
10, 38550, Note_on_c, 9, 38, 0
10, 38551, Note_on_c, 9, 42, 0
10, 38580, Note_on_c, 9, 42, 107
10, 38610, Note_on_c, 9, 42, 0
10, 38641, Note_on_c, 9, 36, 120
10, 38642, Note_on_c, 9, 42, 112
10, 38671, Note_on_c, 9, 36, 0
10, 38672, Note_on_c, 9, 42, 0
10, 38699, Note_on_c, 9, 36, 123
10, 38700, Note_on_c, 9, 42, 109
10, 38729, Note_on_c, 9, 36, 0
10, 38730, Note_on_c, 9, 42, 0
10, 38761, Note_on_c, 9, 38, 122
10, 38762, Note_on_c, 9, 42, 109
10, 38791, Note_on_c, 9, 38, 0
10, 38792, Note_on_c, 9, 42, 0
10, 38820, Note_on_c, 9, 36, 121
10, 38821, Note_on_c, 9, 42, 111
10, 38850, Note_on_c, 9, 36, 0
10, 38851, Note_on_c, 9, 42, 0
10, 38881, Note_on_c, 9, 42, 113
10, 38911, Note_on_c, 9, 42, 0
10, 38941, Note_on_c, 9, 42, 110
10, 38971, Note_on_c, 9, 42, 0
10, 39000, Note_on_c, 9, 38, 120
10, 39000, Note_on_c, 9, 42, 112
10, 39030, Note_on_c, 9, 42, 0
10, 39030, Note_on_c, 9, 38, 0
10, 39060, Note_on_c, 9, 42, 110
10, 39090, Note_on_c, 9, 42, 0
10, 39120, Note_on_c, 9, 36, 119
10, 39121, Note_on_c, 9, 42, 107
10, 39150, Note_on_c, 9, 36, 0
10, 39151, Note_on_c, 9, 42, 0
10, 39180, Note_on_c, 9, 36, 120
10, 39180, Note_on_c, 9, 42, 111
10, 39210, Note_on_c, 9, 42, 0
10, 39210, Note_on_c, 9, 36, 0
10, 39240, Note_on_c, 9, 38, 120
10, 39240, Note_on_c, 9, 42, 113
10, 39270, Note_on_c, 9, 42, 0
10, 39270, Note_on_c, 9, 38, 0
10, 39301, Note_on_c, 9, 36, 123
10, 39302, Note_on_c, 9, 42, 108
10, 39331, Note_on_c, 9, 36, 0
10, 39332, Note_on_c, 9, 42, 0
10, 39361, Note_on_c, 9, 42, 108
10, 39391, Note_on_c, 9, 42, 0
10, 39421, Note_on_c, 9, 42, 109
10, 39451, Note_on_c, 9, 42, 0
10, 39481, Note_on_c, 9, 38, 121
10, 39481, Note_on_c, 9, 42, 108
10, 39511, Note_on_c, 9, 42, 0
10, 39511, Note_on_c, 9, 38, 0
10, 39540, Note_on_c, 9, 42, 110
10, 39570, Note_on_c, 9, 42, 0
10, 39601, Note_on_c, 9, 36, 120
10, 39602, Note_on_c, 9, 42, 111
10, 39631, Note_on_c, 9, 36, 0
10, 39632, Note_on_c, 9, 42, 0
10, 39660, Note_on_c, 9, 36, 124
10, 39660, Note_on_c, 9, 42, 109
10, 39690, Note_on_c, 9, 42, 0
10, 39690, Note_on_c, 9, 36, 0
10, 39720, Note_on_c, 9, 38, 118
10, 39720, Note_on_c, 9, 42, 107
10, 39750, Note_on_c, 9, 42, 0
10, 39750, Note_on_c, 9, 38, 0
10, 39780, Note_on_c, 9, 36, 119
10, 39781, Note_on_c, 9, 42, 112
10, 39810, Note_on_c, 9, 36, 0
10, 39811, Note_on_c, 9, 42, 0
10, 39841, Note_on_c, 9, 42, 107
10, 39871, Note_on_c, 9, 42, 0
10, 39901, Note_on_c, 9, 42, 110
10, 39931, Note_on_c, 9, 42, 0
10, 39960, Note_on_c, 9, 38, 122
10, 39960, Note_on_c, 9, 42, 108
10, 39990, Note_on_c, 9, 42, 0
10, 39990, Note_on_c, 9, 38, 0
10, 40021, Note_on_c, 9, 42, 113
10, 40051, Note_on_c, 9, 42, 0
10, 40080, Note_on_c, 9, 36, 118
10, 40081, Note_on_c, 9, 42, 108
10, 40110, Note_on_c, 9, 36, 0
10, 40111, Note_on_c, 9, 42, 0
10, 40140, Note_on_c, 9, 36, 123
10, 40141, Note_on_c, 9, 42, 109
10, 40170, Note_on_c, 9, 36, 0
10, 40171, Note_on_c, 9, 42, 0
10, 40201, Note_on_c, 9, 38, 118
10, 40201, Note_on_c, 9, 42, 107
10, 40231, Note_on_c, 9, 42, 0
10, 40231, Note_on_c, 9, 38, 0
10, 40261, Note_on_c, 9, 36, 124
10, 40262, Note_on_c, 9, 42, 113
10, 40291, Note_on_c, 9, 36, 0
10, 40292, Note_on_c, 9, 42, 0
10, 40321, Note_on_c, 9, 42, 110
10, 40351, Note_on_c, 9, 42, 0
10, 40381, Note_on_c, 9, 42, 113
10, 40411, Note_on_c, 9, 42, 0
10, 40441, Note_on_c, 9, 38, 124
10, 40441, Note_on_c, 9, 42, 108
10, 40471, Note_on_c, 9, 42, 0
10, 40471, Note_on_c, 9, 38, 0
10, 40499, Note_on_c, 9, 42, 113
10, 40529, Note_on_c, 9, 42, 0
10, 40561, Note_on_c, 9, 36, 123
10, 40562, Note_on_c, 9, 42, 112
10, 40591, Note_on_c, 9, 36, 0
10, 40592, Note_on_c, 9, 42, 0
10, 40620, Note_on_c, 9, 36, 123
10, 40620, Note_on_c, 9, 42, 108
10, 40650, Note_on_c, 9, 42, 0
10, 40650, Note_on_c, 9, 36, 0
10, 40680, Note_on_c, 9, 38, 122
10, 40680, Note_on_c, 9, 42, 109
10, 40710, Note_on_c, 9, 42, 0
10, 40710, Note_on_c, 9, 38, 0
10, 40740, Note_on_c, 9, 36, 123
10, 40741, Note_on_c, 9, 49, 110
10, 40770, Note_on_c, 9, 36, 0
10, 40771, Note_on_c, 9, 49, 0
10, 40801, Note_on_c, 9, 42, 113
10, 40831, Note_on_c, 9, 42, 0
10, 40861, Note_on_c, 9, 42, 110
10, 40891, Note_on_c, 9, 42, 0
10, 40921, Note_on_c, 9, 38, 123
10, 40921, Note_on_c, 9, 42, 107
10, 40951, Note_on_c, 9, 42, 0
10, 40951, Note_on_c, 9, 38, 0
10, 40979, Note_on_c, 9, 42, 109
10, 41009, Note_on_c, 9, 42, 0
10, 41041, Note_on_c, 9, 36, 119
10, 41042, Note_on_c, 9, 42, 113
10, 41071, Note_on_c, 9, 36, 0
10, 41072, Note_on_c, 9, 42, 0
10, 41100, Note_on_c, 9, 36, 118
10, 41100, Note_on_c, 9, 42, 108
10, 41130, Note_on_c, 9, 42, 0
10, 41130, Note_on_c, 9, 36, 0
10, 41161, Note_on_c, 9, 38, 122
10, 41162, Note_on_c, 9, 42, 108
10, 41191, Note_on_c, 9, 38, 0
10, 41192, Note_on_c, 9, 42, 0
10, 41221, Note_on_c, 9, 36, 122
10, 41222, Note_on_c, 9, 42, 107
10, 41251, Note_on_c, 9, 36, 0
10, 41252, Note_on_c, 9, 42, 0
10, 41281, Note_on_c, 9, 42, 107
10, 41311, Note_on_c, 9, 42, 0
10, 41340, Note_on_c, 9, 42, 110
10, 41370, Note_on_c, 9, 42, 0
10, 41400, Note_on_c, 9, 38, 124
10, 41400, Note_on_c, 9, 42, 108
10, 41430, Note_on_c, 9, 42, 0
10, 41430, Note_on_c, 9, 38, 0
10, 41461, Note_on_c, 9, 42, 109
10, 41491, Note_on_c, 9, 42, 0
10, 41521, Note_on_c, 9, 36, 122
10, 41521, Note_on_c, 9, 42, 107
10, 41551, Note_on_c, 9, 42, 0
10, 41551, Note_on_c, 9, 36, 0
10, 41580, Note_on_c, 9, 36, 119
10, 41581, Note_on_c, 9, 42, 110
10, 41610, Note_on_c, 9, 36, 0
10, 41611, Note_on_c, 9, 42, 0
10, 41640, Note_on_c, 9, 38, 121
10, 41640, Note_on_c, 9, 42, 107
10, 41670, Note_on_c, 9, 42, 0
10, 41670, Note_on_c, 9, 38, 0
10, 41701, Note_on_c, 9, 36, 124
10, 41702, Note_on_c, 9, 42, 110
10, 41731, Note_on_c, 9, 36, 0
10, 41732, Note_on_c, 9, 42, 0
10, 41760, Note_on_c, 9, 42, 109
10, 41790, Note_on_c, 9, 42, 0
10, 41821, Note_on_c, 9, 42, 112
10, 41851, Note_on_c, 9, 42, 0
10, 41880, Note_on_c, 9, 38, 124
10, 41880, Note_on_c, 9, 42, 113
10, 41910, Note_on_c, 9, 42, 0
10, 41910, Note_on_c, 9, 38, 0
10, 41940, Note_on_c, 9, 42, 112
10, 41970, Note_on_c, 9, 42, 0
10, 42000, Note_on_c, 9, 36, 121
10, 42001, Note_on_c, 9, 42, 107
10, 42030, Note_on_c, 9, 36, 0
10, 42031, Note_on_c, 9, 42, 0
10, 42060, Note_on_c, 9, 36, 120
10, 42060, Note_on_c, 9, 42, 113
10, 42090, Note_on_c, 9, 42, 0
10, 42090, Note_on_c, 9, 36, 0
10, 42121, Note_on_c, 9, 38, 118
10, 42122, Note_on_c, 9, 42, 113
10, 42151, Note_on_c, 9, 38, 0
10, 42152, Note_on_c, 9, 42, 0
10, 42180, Note_on_c, 9, 36, 120
10, 42180, Note_on_c, 9, 42, 107
10, 42210, Note_on_c, 9, 42, 0
10, 42210, Note_on_c, 9, 36, 0
10, 42240, Note_on_c, 9, 42, 107
10, 42270, Note_on_c, 9, 42, 0
10, 42301, Note_on_c, 9, 42, 111
10, 42331, Note_on_c, 9, 42, 0
10, 42359, Note_on_c, 9, 38, 122
10, 42360, Note_on_c, 9, 42, 111
10, 42389, Note_on_c, 9, 38, 0
10, 42390, Note_on_c, 9, 42, 0
10, 42420, Note_on_c, 9, 42, 108
10, 42450, Note_on_c, 9, 42, 0
10, 42481, Note_on_c, 9, 36, 124
10, 42482, Note_on_c, 9, 42, 108
10, 42511, Note_on_c, 9, 36, 0
10, 42512, Note_on_c, 9, 42, 0
10, 42540, Note_on_c, 9, 36, 124
10, 42540, Note_on_c, 9, 42, 110
10, 42570, Note_on_c, 9, 42, 0
10, 42570, Note_on_c, 9, 36, 0
10, 42601, Note_on_c, 9, 38, 124
10, 42601, Note_on_c, 9, 42, 113
10, 42631, Note_on_c, 9, 42, 0
10, 42631, Note_on_c, 9, 38, 0
10, 42661, Note_on_c, 9, 36, 122
10, 42661, Note_on_c, 9, 42, 113
10, 42691, Note_on_c, 9, 42, 0
10, 42691, Note_on_c, 9, 36, 0
10, 42721, Note_on_c, 9, 42, 107
10, 42751, Note_on_c, 9, 42, 0
10, 42780, Note_on_c, 9, 42, 113
10, 42810, Note_on_c, 9, 42, 0
10, 42840, Note_on_c, 9, 38, 120
10, 42840, Note_on_c, 9, 42, 107
10, 42870, Note_on_c, 9, 42, 0
10, 42870, Note_on_c, 9, 38, 0
10, 42901, Note_on_c, 9, 42, 110
10, 42931, Note_on_c, 9, 42, 0
10, 42961, Note_on_c, 9, 36, 120
10, 42962, Note_on_c, 9, 42, 111
10, 42991, Note_on_c, 9, 36, 0
10, 42992, Note_on_c, 9, 42, 0
10, 43020, Note_on_c, 9, 36, 118
10, 43021, Note_on_c, 9, 42, 110
10, 43050, Note_on_c, 9, 36, 0
10, 43051, Note_on_c, 9, 42, 0
10, 43080, Note_on_c, 9, 38, 122
10, 43080, Note_on_c, 9, 42, 110
10, 43110, Note_on_c, 9, 42, 0
10, 43110, Note_on_c, 9, 38, 0
10, 43140, Note_on_c, 9, 36, 119
10, 43140, Note_on_c, 9, 42, 107
10, 43170, Note_on_c, 9, 42, 0
10, 43170, Note_on_c, 9, 36, 0
10, 43200, Note_on_c, 9, 42, 107
10, 43230, Note_on_c, 9, 42, 0
10, 43261, Note_on_c, 9, 42, 107
10, 43291, Note_on_c, 9, 42, 0
10, 43320, Note_on_c, 9, 38, 120
10, 43320, Note_on_c, 9, 42, 110
10, 43350, Note_on_c, 9, 42, 0
10, 43350, Note_on_c, 9, 38, 0
10, 43380, Note_on_c, 9, 42, 112
10, 43410, Note_on_c, 9, 42, 0
10, 43441, Note_on_c, 9, 36, 122
10, 43441, Note_on_c, 9, 42, 112
10, 43471, Note_on_c, 9, 42, 0
10, 43471, Note_on_c, 9, 36, 0
10, 43501, Note_on_c, 9, 36, 119
10, 43501, Note_on_c, 9, 42, 107
10, 43531, Note_on_c, 9, 42, 0
10, 43531, Note_on_c, 9, 36, 0
10, 43561, Note_on_c, 9, 38, 124
10, 43561, Note_on_c, 9, 42, 110
10, 43591, Note_on_c, 9, 42, 0
10, 43591, Note_on_c, 9, 38, 0
10, 43619, Note_on_c, 9, 36, 118
10, 43619, Note_on_c, 9, 42, 108
10, 43649, Note_on_c, 9, 42, 0
10, 43649, Note_on_c, 9, 36, 0
10, 43681, Note_on_c, 9, 42, 112
10, 43711, Note_on_c, 9, 42, 0
10, 43740, Note_on_c, 9, 42, 111
10, 43770, Note_on_c, 9, 42, 0
10, 43800, Note_on_c, 9, 38, 118
10, 43800, Note_on_c, 9, 42, 112
10, 43830, Note_on_c, 9, 42, 0
10, 43830, Note_on_c, 9, 38, 0
10, 43861, Note_on_c, 9, 42, 111
10, 43891, Note_on_c, 9, 42, 0
10, 43921, Note_on_c, 9, 36, 123
10, 43921, Note_on_c, 9, 42, 107
10, 43951, Note_on_c, 9, 42, 0
10, 43951, Note_on_c, 9, 36, 0
10, 43980, Note_on_c, 9, 36, 122
10, 43980, Note_on_c, 9, 42, 113
10, 44010, Note_on_c, 9, 42, 0
10, 44010, Note_on_c, 9, 36, 0
10, 44040, Note_on_c, 9, 38, 124
10, 44040, Note_on_c, 9, 42, 110
10, 44070, Note_on_c, 9, 42, 0
10, 44070, Note_on_c, 9, 38, 0
10, 44101, Note_on_c, 9, 36, 122
10, 44101, Note_on_c, 9, 42, 113
10, 44131, Note_on_c, 9, 42, 0
10, 44131, Note_on_c, 9, 36, 0
10, 44160, Note_on_c, 9, 42, 109
10, 44190, Note_on_c, 9, 42, 0
10, 44221, Note_on_c, 9, 42, 111
10, 44251, Note_on_c, 9, 42, 0
10, 44280, Note_on_c, 9, 38, 119
10, 44281, Note_on_c, 9, 42, 112
10, 44310, Note_on_c, 9, 38, 0
10, 44311, Note_on_c, 9, 42, 0
10, 44340, Note_on_c, 9, 42, 113
10, 44370, Note_on_c, 9, 42, 0
10, 44401, Note_on_c, 9, 36, 119
10, 44402, Note_on_c, 9, 42, 108
10, 44431, Note_on_c, 9, 36, 0
10, 44432, Note_on_c, 9, 42, 0
10, 44460, Note_on_c, 9, 36, 121
10, 44460, Note_on_c, 9, 42, 107
10, 44490, Note_on_c, 9, 42, 0
10, 44490, Note_on_c, 9, 36, 0
10, 44520, Note_on_c, 9, 38, 120
10, 44520, Note_on_c, 9, 42, 108
10, 44550, Note_on_c, 9, 42, 0
10, 44550, Note_on_c, 9, 38, 0
10, 44581, Note_on_c, 9, 36, 119
10, 44582, Note_on_c, 9, 49, 111
10, 44611, Note_on_c, 9, 36, 0
10, 44612, Note_on_c, 9, 49, 0
10, 44641, Note_on_c, 9, 42, 109
10, 44671, Note_on_c, 9, 42, 0
10, 44701, Note_on_c, 9, 42, 113
10, 44731, Note_on_c, 9, 42, 0
10, 44760, Note_on_c, 9, 38, 120
10, 44761, Note_on_c, 9, 42, 111
10, 44790, Note_on_c, 9, 38, 0
10, 44791, Note_on_c, 9, 42, 0
10, 44820, Note_on_c, 9, 42, 110
10, 44850, Note_on_c, 9, 42, 0
10, 44880, Note_on_c, 9, 36, 124
10, 44881, Note_on_c, 9, 42, 110
10, 44910, Note_on_c, 9, 36, 0
10, 44911, Note_on_c, 9, 42, 0
10, 44940, Note_on_c, 9, 36, 124
10, 44941, Note_on_c, 9, 42, 112
10, 44970, Note_on_c, 9, 36, 0
10, 44971, Note_on_c, 9, 42, 0
10, 45000, Note_on_c, 9, 38, 123
10, 45001, Note_on_c, 9, 42, 109
10, 45030, Note_on_c, 9, 38, 0
10, 45031, Note_on_c, 9, 42, 0
10, 45060, Note_on_c, 9, 36, 122
10, 45061, Note_on_c, 9, 42, 111
10, 45090, Note_on_c, 9, 36, 0
10, 45091, Note_on_c, 9, 42, 0
10, 45121, Note_on_c, 9, 42, 113
10, 45151, Note_on_c, 9, 42, 0
10, 45181, Note_on_c, 9, 42, 107
10, 45211, Note_on_c, 9, 42, 0
10, 45240, Note_on_c, 9, 38, 122
10, 45241, Note_on_c, 9, 42, 111
10, 45270, Note_on_c, 9, 38, 0
10, 45271, Note_on_c, 9, 42, 0
10, 45300, Note_on_c, 9, 42, 111
10, 45330, Note_on_c, 9, 42, 0
10, 45360, Note_on_c, 9, 36, 123
10, 45361, Note_on_c, 9, 42, 107
10, 45390, Note_on_c, 9, 36, 0
10, 45391, Note_on_c, 9, 42, 0
10, 45419, Note_on_c, 9, 36, 122
10, 45419, Note_on_c, 9, 42, 112
10, 45449, Note_on_c, 9, 42, 0
10, 45449, Note_on_c, 9, 36, 0
10, 45480, Note_on_c, 9, 38, 124
10, 45480, Note_on_c, 9, 42, 110
10, 45510, Note_on_c, 9, 42, 0
10, 45510, Note_on_c, 9, 38, 0
10, 45540, Note_on_c, 9, 36, 121
10, 45541, Note_on_c, 9, 42, 112
10, 45570, Note_on_c, 9, 36, 0
10, 45571, Note_on_c, 9, 42, 0
10, 45600, Note_on_c, 9, 42, 111
10, 45630, Note_on_c, 9, 42, 0
10, 45661, Note_on_c, 9, 42, 112
10, 45691, Note_on_c, 9, 42, 0
10, 45720, Note_on_c, 9, 38, 120
10, 45721, Note_on_c, 9, 42, 107
10, 45750, Note_on_c, 9, 38, 0
10, 45751, Note_on_c, 9, 42, 0
10, 45779, Note_on_c, 9, 42, 109
10, 45809, Note_on_c, 9, 42, 0
10, 45840, Note_on_c, 9, 36, 121
10, 45841, Note_on_c, 9, 42, 113
10, 45870, Note_on_c, 9, 36, 0
10, 45871, Note_on_c, 9, 42, 0
10, 45899, Note_on_c, 9, 36, 124
10, 45899, Note_on_c, 9, 42, 110
10, 45929, Note_on_c, 9, 42, 0
10, 45929, Note_on_c, 9, 36, 0
10, 45960, Note_on_c, 9, 38, 121
10, 45960, Note_on_c, 9, 42, 110
10, 45990, Note_on_c, 9, 42, 0
10, 45990, Note_on_c, 9, 38, 0
10, 46020, Note_on_c, 9, 36, 122
10, 46021, Note_on_c, 9, 42, 108
10, 46050, Note_on_c, 9, 36, 0
10, 46051, Note_on_c, 9, 42, 0
10, 46081, Note_on_c, 9, 42, 107
10, 46111, Note_on_c, 9, 42, 0
10, 46140, Note_on_c, 9, 42, 111
10, 46170, Note_on_c, 9, 42, 0
10, 46200, Note_on_c, 9, 38, 118
10, 46200, Note_on_c, 9, 42, 112
10, 46230, Note_on_c, 9, 42, 0
10, 46230, Note_on_c, 9, 38, 0
10, 46261, Note_on_c, 9, 42, 109
10, 46291, Note_on_c, 9, 42, 0
10, 46321, Note_on_c, 9, 36, 119
10, 46321, Note_on_c, 9, 42, 107
10, 46351, Note_on_c, 9, 42, 0
10, 46351, Note_on_c, 9, 36, 0
10, 46380, Note_on_c, 9, 36, 120
10, 46381, Note_on_c, 9, 42, 108
10, 46410, Note_on_c, 9, 36, 0
10, 46411, Note_on_c, 9, 42, 0
10, 46440, Note_on_c, 9, 38, 121
10, 46440, Note_on_c, 9, 42, 111
10, 46470, Note_on_c, 9, 42, 0
10, 46470, Note_on_c, 9, 38, 0
10, 46501, Note_on_c, 9, 36, 123
10, 46502, Note_on_c, 9, 42, 110
10, 46531, Note_on_c, 9, 36, 0
10, 46532, Note_on_c, 9, 42, 0
10, 46560, Note_on_c, 9, 42, 111
10, 46590, Note_on_c, 9, 42, 0
10, 46621, Note_on_c, 9, 42, 112
10, 46651, Note_on_c, 9, 42, 0
10, 46680, Note_on_c, 9, 38, 120
10, 46681, Note_on_c, 9, 42, 112
10, 46710, Note_on_c, 9, 38, 0
10, 46711, Note_on_c, 9, 42, 0
10, 46741, Note_on_c, 9, 42, 109
10, 46771, Note_on_c, 9, 42, 0
10, 46801, Note_on_c, 9, 36, 120
10, 46801, Note_on_c, 9, 42, 110
10, 46831, Note_on_c, 9, 42, 0
10, 46831, Note_on_c, 9, 36, 0
10, 46861, Note_on_c, 9, 36, 122
10, 46861, Note_on_c, 9, 42, 113
10, 46891, Note_on_c, 9, 42, 0
10, 46891, Note_on_c, 9, 36, 0
10, 46921, Note_on_c, 9, 38, 118
10, 46921, Note_on_c, 9, 42, 107
10, 46951, Note_on_c, 9, 42, 0
10, 46951, Note_on_c, 9, 38, 0
10, 46981, Note_on_c, 9, 36, 120
10, 46981, Note_on_c, 9, 42, 112
10, 47011, Note_on_c, 9, 42, 0
10, 47011, Note_on_c, 9, 36, 0
10, 47041, Note_on_c, 9, 42, 113
10, 47071, Note_on_c, 9, 42, 0
10, 47101, Note_on_c, 9, 42, 112
10, 47131, Note_on_c, 9, 42, 0
10, 47159, Note_on_c, 9, 38, 121
10, 47160, Note_on_c, 9, 42, 111
10, 47189, Note_on_c, 9, 38, 0
10, 47190, Note_on_c, 9, 42, 0
10, 47220, Note_on_c, 9, 42, 112
10, 47250, Note_on_c, 9, 42, 0
10, 47281, Note_on_c, 9, 36, 120
10, 47281, Note_on_c, 9, 42, 113
10, 47311, Note_on_c, 9, 42, 0
10, 47311, Note_on_c, 9, 36, 0
10, 47340, Note_on_c, 9, 36, 121
10, 47340, Note_on_c, 9, 42, 113
10, 47370, Note_on_c, 9, 42, 0
10, 47370, Note_on_c, 9, 36, 0
10, 47401, Note_on_c, 9, 38, 121
10, 47402, Note_on_c, 9, 42, 108
10, 47431, Note_on_c, 9, 38, 0
10, 47432, Note_on_c, 9, 42, 0
10, 47460, Note_on_c, 9, 36, 124
10, 47460, Note_on_c, 9, 42, 112
10, 47490, Note_on_c, 9, 42, 0
10, 47490, Note_on_c, 9, 36, 0
10, 47521, Note_on_c, 9, 42, 108
10, 47551, Note_on_c, 9, 42, 0
10, 47581, Note_on_c, 9, 42, 112
10, 47611, Note_on_c, 9, 42, 0
10, 47641, Note_on_c, 9, 38, 122
10, 47641, Note_on_c, 9, 42, 108
10, 47671, Note_on_c, 9, 42, 0
10, 47671, Note_on_c, 9, 38, 0
10, 47701, Note_on_c, 9, 42, 108
10, 47731, Note_on_c, 9, 42, 0
10, 47761, Note_on_c, 9, 36, 119
10, 47761, Note_on_c, 9, 42, 113
10, 47791, Note_on_c, 9, 42, 0
10, 47791, Note_on_c, 9, 36, 0
10, 47820, Note_on_c, 9, 36, 123
10, 47820, Note_on_c, 9, 42, 113
10, 47850, Note_on_c, 9, 42, 0
10, 47850, Note_on_c, 9, 36, 0
10, 47881, Note_on_c, 9, 38, 122
10, 47881, Note_on_c, 9, 42, 113
10, 47911, Note_on_c, 9, 42, 0
10, 47911, Note_on_c, 9, 38, 0
10, 47940, Note_on_c, 9, 36, 122
10, 47941, Note_on_c, 9, 42, 108
10, 47970, Note_on_c, 9, 36, 0
10, 47971, Note_on_c, 9, 42, 0
10, 48000, Note_on_c, 9, 42, 109
10, 48030, Note_on_c, 9, 42, 0
10, 48061, Note_on_c, 9, 42, 107
10, 48091, Note_on_c, 9, 42, 0
10, 48121, Note_on_c, 9, 38, 121
10, 48121, Note_on_c, 9, 42, 113
10, 48151, Note_on_c, 9, 42, 0
10, 48151, Note_on_c, 9, 38, 0
10, 48180, Note_on_c, 9, 42, 107
10, 48210, Note_on_c, 9, 42, 0
10, 48240, Note_on_c, 9, 36, 121
10, 48241, Note_on_c, 9, 42, 112
10, 48270, Note_on_c, 9, 36, 0
10, 48271, Note_on_c, 9, 42, 0
10, 48300, Note_on_c, 9, 36, 123
10, 48300, Note_on_c, 9, 42, 113
10, 48330, Note_on_c, 9, 42, 0
10, 48330, Note_on_c, 9, 36, 0
10, 48361, Note_on_c, 9, 38, 123
10, 48361, Note_on_c, 9, 42, 113
10, 48391, Note_on_c, 9, 42, 0
10, 48391, Note_on_c, 9, 38, 0
10, 48421, Note_on_c, 9, 36, 121
10, 48421, Note_on_c, 9, 49, 111
10, 48451, Note_on_c, 9, 49, 0
10, 48451, Note_on_c, 9, 36, 0
10, 48481, Note_on_c, 9, 42, 108
10, 48511, Note_on_c, 9, 42, 0
10, 48540, Note_on_c, 9, 42, 111
10, 48570, Note_on_c, 9, 42, 0
10, 48600, Note_on_c, 9, 38, 119
10, 48600, Note_on_c, 9, 42, 109
10, 48630, Note_on_c, 9, 42, 0
10, 48630, Note_on_c, 9, 38, 0
10, 48661, Note_on_c, 9, 42, 112
10, 48691, Note_on_c, 9, 42, 0
10, 48721, Note_on_c, 9, 36, 124
10, 48721, Note_on_c, 9, 42, 112
10, 48751, Note_on_c, 9, 42, 0
10, 48751, Note_on_c, 9, 36, 0
10, 48780, Note_on_c, 9, 36, 123
10, 48780, Note_on_c, 9, 42, 107
10, 48810, Note_on_c, 9, 42, 0
10, 48810, Note_on_c, 9, 36, 0
10, 48840, Note_on_c, 9, 38, 122
10, 48841, Note_on_c, 9, 42, 107
10, 48870, Note_on_c, 9, 38, 0
10, 48871, Note_on_c, 9, 42, 0
10, 48899, Note_on_c, 9, 36, 120
10, 48900, Note_on_c, 9, 42, 107
10, 48929, Note_on_c, 9, 36, 0
10, 48930, Note_on_c, 9, 42, 0
10, 48961, Note_on_c, 9, 42, 107
10, 48991, Note_on_c, 9, 42, 0
10, 49021, Note_on_c, 9, 42, 111
10, 49051, Note_on_c, 9, 42, 0
10, 49080, Note_on_c, 9, 38, 121
10, 49080, Note_on_c, 9, 42, 109
10, 49110, Note_on_c, 9, 42, 0
10, 49110, Note_on_c, 9, 38, 0
10, 49140, Note_on_c, 9, 42, 112
10, 49170, Note_on_c, 9, 42, 0
10, 49200, Note_on_c, 9, 36, 123
10, 49201, Note_on_c, 9, 42, 109
10, 49230, Note_on_c, 9, 36, 0
10, 49231, Note_on_c, 9, 42, 0
10, 49260, Note_on_c, 9, 36, 120
10, 49261, Note_on_c, 9, 42, 110
10, 49290, Note_on_c, 9, 36, 0
10, 49291, Note_on_c, 9, 42, 0
10, 49321, Note_on_c, 9, 38, 120
10, 49322, Note_on_c, 9, 42, 108
10, 49351, Note_on_c, 9, 38, 0
10, 49352, Note_on_c, 9, 42, 0
10, 49381, Note_on_c, 9, 36, 122
10, 49382, Note_on_c, 9, 42, 112
10, 49411, Note_on_c, 9, 36, 0
10, 49412, Note_on_c, 9, 42, 0
10, 49441, Note_on_c, 9, 42, 108
10, 49471, Note_on_c, 9, 42, 0
10, 49501, Note_on_c, 9, 42, 108
10, 49531, Note_on_c, 9, 42, 0
10, 49561, Note_on_c, 9, 38, 122
10, 49561, Note_on_c, 9, 42, 107
10, 49591, Note_on_c, 9, 42, 0
10, 49591, Note_on_c, 9, 38, 0
10, 49620, Note_on_c, 9, 42, 113
10, 49650, Note_on_c, 9, 42, 0
10, 49681, Note_on_c, 9, 36, 124
10, 49682, Note_on_c, 9, 42, 108
10, 49711, Note_on_c, 9, 36, 0
10, 49712, Note_on_c, 9, 42, 0
10, 49740, Note_on_c, 9, 36, 122
10, 49740, Note_on_c, 9, 42, 112
10, 49770, Note_on_c, 9, 42, 0
10, 49770, Note_on_c, 9, 36, 0
10, 49801, Note_on_c, 9, 38, 123
10, 49802, Note_on_c, 9, 42, 113
10, 49831, Note_on_c, 9, 38, 0
10, 49832, Note_on_c, 9, 42, 0
10, 49860, Note_on_c, 9, 36, 121
10, 49860, Note_on_c, 9, 42, 113
10, 49890, Note_on_c, 9, 42, 0
10, 49890, Note_on_c, 9, 36, 0
10, 49921, Note_on_c, 9, 42, 109
10, 49951, Note_on_c, 9, 42, 0
10, 49980, Note_on_c, 9, 42, 113
10, 50010, Note_on_c, 9, 42, 0
10, 50040, Note_on_c, 9, 38, 124
10, 50041, Note_on_c, 9, 42, 113
10, 50070, Note_on_c, 9, 38, 0
10, 50071, Note_on_c, 9, 42, 0
10, 50099, Note_on_c, 9, 42, 108
10, 50129, Note_on_c, 9, 42, 0
10, 50161, Note_on_c, 9, 36, 124
10, 50161, Note_on_c, 9, 42, 107
10, 50191, Note_on_c, 9, 42, 0
10, 50191, Note_on_c, 9, 36, 0
10, 50220, Note_on_c, 9, 36, 123
10, 50220, Note_on_c, 9, 42, 111
10, 50250, Note_on_c, 9, 42, 0
10, 50250, Note_on_c, 9, 36, 0
10, 50281, Note_on_c, 9, 38, 124
10, 50281, Note_on_c, 9, 42, 107
10, 50311, Note_on_c, 9, 42, 0
10, 50311, Note_on_c, 9, 38, 0
10, 50340, Note_on_c, 9, 36, 122
10, 50341, Note_on_c, 9, 42, 112
10, 50370, Note_on_c, 9, 36, 0
10, 50371, Note_on_c, 9, 42, 0
10, 50400, Note_on_c, 9, 42, 107
10, 50430, Note_on_c, 9, 42, 0
10, 50460, Note_on_c, 9, 42, 107
10, 50490, Note_on_c, 9, 42, 0
10, 50520, Note_on_c, 9, 38, 124
10, 50520, Note_on_c, 9, 42, 109
10, 50550, Note_on_c, 9, 42, 0
10, 50550, Note_on_c, 9, 38, 0
10, 50550, End_track
11, 0, Start_track
11, 0, MIDI_port, 0
11, 0, Control_c, 9, 0, 0
11, 0, Control_c, 9, 32, 0
11, 0, Program_c, 9, 16
11, 0, Control_c, 9, 7, 115
11, 0, Control_c, 9, 10, 64
11, 2, Control_c, 9, 1, 0
11, 4, Control_c, 9, 2, 0
11, 120, Control_c, 9, 11, 100
11, 120, Control_c, 9, 0, 0
11, 124, Control_c, 9, 101, 0
11, 124, Control_c, 9, 100, 0
11, 124, Control_c, 9, 6, 2
11, 124, Control_c, 9, 38, 0
11, 240, Control_c, 9, 120, 0
11, 243, Control_c, 9, 121, 0
11, 246, Control_c, 9, 123, 0
11, 255, Control_c, 9, 91, 40
11, 258, Control_c, 9, 93, 0
11, 510, Note_on_c, 9, 36, 54
11, 510, Note_on_c, 9, 42, 51
11, 540, Note_on_c, 9, 42, 0
11, 540, Note_on_c, 9, 36, 0
11, 631, Note_on_c, 9, 38, 51
11, 631, Note_on_c, 9, 42, 55
11, 661, Note_on_c, 9, 42, 0
11, 661, Note_on_c, 9, 38, 0
11, 691, Note_on_c, 9, 42, 51
11, 721, Note_on_c, 9, 42, 0
11, 750, Note_on_c, 9, 36, 52
11, 751, Note_on_c, 9, 42, 51
11, 780, Note_on_c, 9, 36, 0
11, 781, Note_on_c, 9, 42, 0
11, 810, Note_on_c, 9, 36, 54
11, 810, Note_on_c, 9, 42, 53
11, 840, Note_on_c, 9, 42, 0
11, 840, Note_on_c, 9, 36, 0
11, 871, Note_on_c, 9, 38, 57
11, 871, Note_on_c, 9, 42, 54
11, 901, Note_on_c, 9, 42, 0
11, 901, Note_on_c, 9, 38, 0
11, 930, Note_on_c, 9, 36, 57
11, 930, Note_on_c, 9, 42, 55
11, 960, Note_on_c, 9, 42, 0
11, 960, Note_on_c, 9, 36, 0
11, 990, Note_on_c, 9, 42, 55
11, 1020, Note_on_c, 9, 42, 0
11, 1050, Note_on_c, 9, 42, 54
11, 1080, Note_on_c, 9, 42, 0
11, 1110, Note_on_c, 9, 38, 57
11, 1110, Note_on_c, 9, 42, 51
11, 1140, Note_on_c, 9, 42, 0
11, 1140, Note_on_c, 9, 38, 0
11, 1171, Note_on_c, 9, 42, 57
11, 1201, Note_on_c, 9, 42, 0
11, 1229, Note_on_c, 9, 36, 51
11, 1229, Note_on_c, 9, 42, 56
11, 1259, Note_on_c, 9, 42, 0
11, 1259, Note_on_c, 9, 36, 0
11, 1290, Note_on_c, 9, 36, 53
11, 1290, Note_on_c, 9, 42, 53
11, 1320, Note_on_c, 9, 42, 0
11, 1320, Note_on_c, 9, 36, 0
11, 1351, Note_on_c, 9, 38, 54
11, 1352, Note_on_c, 9, 42, 52
11, 1381, Note_on_c, 9, 38, 0
11, 1382, Note_on_c, 9, 42, 0
11, 1410, Note_on_c, 9, 36, 57
11, 1411, Note_on_c, 9, 42, 53
11, 1440, Note_on_c, 9, 36, 0
11, 1441, Note_on_c, 9, 42, 0
11, 1470, Note_on_c, 9, 42, 55
11, 1500, Note_on_c, 9, 42, 0
11, 1530, Note_on_c, 9, 42, 53
11, 1560, Note_on_c, 9, 42, 0
11, 1589, Note_on_c, 9, 38, 56
11, 1589, Note_on_c, 9, 42, 55
11, 1619, Note_on_c, 9, 42, 0
11, 1619, Note_on_c, 9, 38, 0
11, 1649, Note_on_c, 9, 42, 51
11, 1679, Note_on_c, 9, 42, 0
11, 1711, Note_on_c, 9, 36, 54
11, 1711, Note_on_c, 9, 42, 52
11, 1741, Note_on_c, 9, 42, 0
11, 1741, Note_on_c, 9, 36, 0
11, 1771, Note_on_c, 9, 36, 56
11, 1771, Note_on_c, 9, 42, 55
11, 1801, Note_on_c, 9, 42, 0
11, 1801, Note_on_c, 9, 36, 0
11, 1829, Note_on_c, 9, 38, 52
11, 1830, Note_on_c, 9, 42, 56
11, 1859, Note_on_c, 9, 38, 0
11, 1860, Note_on_c, 9, 42, 0
11, 1890, Note_on_c, 9, 36, 57
11, 1891, Note_on_c, 9, 42, 52
11, 1920, Note_on_c, 9, 36, 0
11, 1921, Note_on_c, 9, 42, 0
11, 1950, Note_on_c, 9, 42, 57
11, 1980, Note_on_c, 9, 42, 0
11, 2010, Note_on_c, 9, 42, 56
11, 2040, Note_on_c, 9, 42, 0
11, 2070, Note_on_c, 9, 38, 54
11, 2071, Note_on_c, 9, 42, 53
11, 2100, Note_on_c, 9, 38, 0
11, 2101, Note_on_c, 9, 42, 0
11, 2130, Note_on_c, 9, 42, 54
11, 2160, Note_on_c, 9, 42, 0
11, 2191, Note_on_c, 9, 36, 52
11, 2192, Note_on_c, 9, 42, 55
11, 2221, Note_on_c, 9, 36, 0
11, 2222, Note_on_c, 9, 42, 0
11, 2249, Note_on_c, 9, 36, 56
11, 2250, Note_on_c, 9, 42, 51
11, 2279, Note_on_c, 9, 36, 0
11, 2280, Note_on_c, 9, 42, 0
11, 2311, Note_on_c, 9, 38, 56
11, 2312, Note_on_c, 9, 42, 57
11, 2341, Note_on_c, 9, 38, 0
11, 2342, Note_on_c, 9, 42, 0
11, 2371, Note_on_c, 9, 36, 56
11, 2372, Note_on_c, 9, 49, 56
11, 2401, Note_on_c, 9, 36, 0
11, 2402, Note_on_c, 9, 49, 0
11, 2431, Note_on_c, 9, 42, 55
11, 2461, Note_on_c, 9, 42, 0
11, 2489, Note_on_c, 9, 42, 57
11, 2519, Note_on_c, 9, 42, 0
11, 2551, Note_on_c, 9, 38, 55
11, 2551, Note_on_c, 9, 42, 52
11, 2581, Note_on_c, 9, 42, 0
11, 2581, Note_on_c, 9, 38, 0
11, 2610, Note_on_c, 9, 42, 55
11, 2640, Note_on_c, 9, 42, 0
11, 2671, Note_on_c, 9, 36, 54
11, 2671, Note_on_c, 9, 42, 53
11, 2701, Note_on_c, 9, 42, 0
11, 2701, Note_on_c, 9, 36, 0
11, 2730, Note_on_c, 9, 36, 57
11, 2730, Note_on_c, 9, 42, 52
11, 2760, Note_on_c, 9, 42, 0
11, 2760, Note_on_c, 9, 36, 0
11, 2790, Note_on_c, 9, 38, 51
11, 2790, Note_on_c, 9, 42, 52
11, 2820, Note_on_c, 9, 42, 0
11, 2820, Note_on_c, 9, 38, 0
11, 2850, Note_on_c, 9, 36, 57
11, 2850, Note_on_c, 9, 42, 54
11, 2880, Note_on_c, 9, 42, 0
11, 2880, Note_on_c, 9, 36, 0
11, 2910, Note_on_c, 9, 42, 51
11, 2940, Note_on_c, 9, 42, 0
11, 2971, Note_on_c, 9, 42, 52
11, 3001, Note_on_c, 9, 42, 0
11, 3030, Note_on_c, 9, 38, 55
11, 3030, Note_on_c, 9, 42, 57
11, 3060, Note_on_c, 9, 42, 0
11, 3060, Note_on_c, 9, 38, 0
11, 3090, Note_on_c, 9, 42, 55
11, 3120, Note_on_c, 9, 42, 0
11, 3151, Note_on_c, 9, 36, 52
11, 3152, Note_on_c, 9, 42, 57
11, 3181, Note_on_c, 9, 36, 0
11, 3182, Note_on_c, 9, 42, 0
11, 3210, Note_on_c, 9, 36, 52
11, 3210, Note_on_c, 9, 42, 54
11, 3240, Note_on_c, 9, 42, 0
11, 3240, Note_on_c, 9, 36, 0
11, 3271, Note_on_c, 9, 38, 54
11, 3272, Note_on_c, 9, 42, 52
11, 3301, Note_on_c, 9, 38, 0
11, 3302, Note_on_c, 9, 42, 0
11, 3331, Note_on_c, 9, 36, 52
11, 3331, Note_on_c, 9, 42, 51
11, 3361, Note_on_c, 9, 42, 0
11, 3361, Note_on_c, 9, 36, 0
11, 3390, Note_on_c, 9, 42, 55
11, 3420, Note_on_c, 9, 42, 0
11, 3450, Note_on_c, 9, 42, 54
11, 3480, Note_on_c, 9, 42, 0
11, 3509, Note_on_c, 9, 38, 53
11, 3510, Note_on_c, 9, 42, 52
11, 3539, Note_on_c, 9, 38, 0
11, 3540, Note_on_c, 9, 42, 0
11, 3571, Note_on_c, 9, 42, 51
11, 3601, Note_on_c, 9, 42, 0
11, 3629, Note_on_c, 9, 36, 54
11, 3630, Note_on_c, 9, 42, 56
11, 3659, Note_on_c, 9, 36, 0
11, 3660, Note_on_c, 9, 42, 0
11, 3691, Note_on_c, 9, 36, 53
11, 3691, Note_on_c, 9, 42, 54
11, 3721, Note_on_c, 9, 42, 0
11, 3721, Note_on_c, 9, 36, 0
11, 3750, Note_on_c, 9, 38, 57
11, 3750, Note_on_c, 9, 42, 52
11, 3780, Note_on_c, 9, 42, 0
11, 3780, Note_on_c, 9, 38, 0
11, 3811, Note_on_c, 9, 36, 53
11, 3812, Note_on_c, 9, 42, 52
11, 3841, Note_on_c, 9, 36, 0
11, 3842, Note_on_c, 9, 42, 0
11, 3871, Note_on_c, 9, 42, 57
11, 3901, Note_on_c, 9, 42, 0
11, 3929, Note_on_c, 9, 42, 54
11, 3959, Note_on_c, 9, 42, 0
11, 3990, Note_on_c, 9, 38, 53
11, 3990, Note_on_c, 9, 42, 57
11, 4020, Note_on_c, 9, 42, 0
11, 4020, Note_on_c, 9, 38, 0
11, 4049, Note_on_c, 9, 42, 51
11, 4079, Note_on_c, 9, 42, 0
11, 4111, Note_on_c, 9, 36, 56
11, 4111, Note_on_c, 9, 42, 55
11, 4141, Note_on_c, 9, 42, 0
11, 4141, Note_on_c, 9, 36, 0
11, 4170, Note_on_c, 9, 36, 55
11, 4170, Note_on_c, 9, 42, 53
11, 4200, Note_on_c, 9, 42, 0
11, 4200, Note_on_c, 9, 36, 0
11, 4230, Note_on_c, 9, 38, 51
11, 4231, Note_on_c, 9, 42, 57
11, 4260, Note_on_c, 9, 38, 0
11, 4261, Note_on_c, 9, 42, 0
11, 4290, Note_on_c, 9, 36, 55
11, 4291, Note_on_c, 9, 42, 57
11, 4320, Note_on_c, 9, 36, 0
11, 4321, Note_on_c, 9, 42, 0
11, 4350, Note_on_c, 9, 42, 53
11, 4380, Note_on_c, 9, 42, 0
11, 4411, Note_on_c, 9, 42, 54
11, 4441, Note_on_c, 9, 42, 0
11, 4470, Note_on_c, 9, 38, 53
11, 4471, Note_on_c, 9, 42, 57
11, 4500, Note_on_c, 9, 38, 0
11, 4501, Note_on_c, 9, 42, 0
11, 4531, Note_on_c, 9, 42, 52
11, 4561, Note_on_c, 9, 42, 0
11, 4590, Note_on_c, 9, 36, 53
11, 4591, Note_on_c, 9, 42, 55
11, 4620, Note_on_c, 9, 36, 0
11, 4621, Note_on_c, 9, 42, 0
11, 4651, Note_on_c, 9, 36, 53
11, 4651, Note_on_c, 9, 42, 54
11, 4681, Note_on_c, 9, 42, 0
11, 4681, Note_on_c, 9, 36, 0
11, 4711, Note_on_c, 9, 38, 51
11, 4711, Note_on_c, 9, 42, 51
11, 4741, Note_on_c, 9, 42, 0
11, 4741, Note_on_c, 9, 38, 0
11, 4771, Note_on_c, 9, 36, 57
11, 4772, Note_on_c, 9, 42, 51
11, 4801, Note_on_c, 9, 36, 0
11, 4802, Note_on_c, 9, 42, 0
11, 4831, Note_on_c, 9, 42, 56
11, 4861, Note_on_c, 9, 42, 0
11, 4891, Note_on_c, 9, 42, 55
11, 4921, Note_on_c, 9, 42, 0
11, 4950, Note_on_c, 9, 38, 52
11, 4951, Note_on_c, 9, 42, 51
11, 4980, Note_on_c, 9, 38, 0
11, 4981, Note_on_c, 9, 42, 0
11, 5010, Note_on_c, 9, 42, 52
11, 5040, Note_on_c, 9, 42, 0
11, 5071, Note_on_c, 9, 36, 53
11, 5072, Note_on_c, 9, 42, 55
11, 5101, Note_on_c, 9, 36, 0
11, 5102, Note_on_c, 9, 42, 0
11, 5131, Note_on_c, 9, 36, 55
11, 5131, Note_on_c, 9, 42, 57
11, 5161, Note_on_c, 9, 42, 0
11, 5161, Note_on_c, 9, 36, 0
11, 5191, Note_on_c, 9, 38, 54
11, 5192, Note_on_c, 9, 42, 52
11, 5221, Note_on_c, 9, 38, 0
11, 5222, Note_on_c, 9, 42, 0
11, 5251, Note_on_c, 9, 36, 56
11, 5251, Note_on_c, 9, 42, 52
11, 5281, Note_on_c, 9, 42, 0
11, 5281, Note_on_c, 9, 36, 0
11, 5310, Note_on_c, 9, 42, 52
11, 5340, Note_on_c, 9, 42, 0
11, 5371, Note_on_c, 9, 42, 53
11, 5401, Note_on_c, 9, 42, 0
11, 5431, Note_on_c, 9, 38, 54
11, 5431, Note_on_c, 9, 42, 52
11, 5461, Note_on_c, 9, 42, 0
11, 5461, Note_on_c, 9, 38, 0
11, 5490, Note_on_c, 9, 42, 56
11, 5520, Note_on_c, 9, 42, 0
11, 5551, Note_on_c, 9, 36, 55
11, 5551, Note_on_c, 9, 42, 57
11, 5581, Note_on_c, 9, 42, 0
11, 5581, Note_on_c, 9, 36, 0
11, 5610, Note_on_c, 9, 36, 51
11, 5610, Note_on_c, 9, 42, 52
11, 5640, Note_on_c, 9, 42, 0
11, 5640, Note_on_c, 9, 36, 0
11, 5670, Note_on_c, 9, 38, 54
11, 5671, Note_on_c, 9, 42, 55
11, 5700, Note_on_c, 9, 38, 0
11, 5701, Note_on_c, 9, 42, 0
11, 5731, Note_on_c, 9, 36, 51
11, 5732, Note_on_c, 9, 42, 57
11, 5761, Note_on_c, 9, 36, 0
11, 5762, Note_on_c, 9, 42, 0
11, 5790, Note_on_c, 9, 42, 57
11, 5820, Note_on_c, 9, 42, 0
11, 5851, Note_on_c, 9, 42, 52
11, 5881, Note_on_c, 9, 42, 0
11, 5909, Note_on_c, 9, 38, 55
11, 5909, Note_on_c, 9, 42, 55
11, 5939, Note_on_c, 9, 42, 0
11, 5939, Note_on_c, 9, 38, 0
11, 5969, Note_on_c, 9, 42, 52
11, 5999, Note_on_c, 9, 42, 0
11, 6030, Note_on_c, 9, 36, 53
11, 6031, Note_on_c, 9, 42, 56
11, 6060, Note_on_c, 9, 36, 0
11, 6061, Note_on_c, 9, 42, 0
11, 6089, Note_on_c, 9, 36, 57
11, 6090, Note_on_c, 9, 42, 57
11, 6119, Note_on_c, 9, 36, 0
11, 6120, Note_on_c, 9, 42, 0
11, 6150, Note_on_c, 9, 38, 53
11, 6151, Note_on_c, 9, 42, 52
11, 6180, Note_on_c, 9, 38, 0
11, 6181, Note_on_c, 9, 42, 0
11, 6211, Note_on_c, 9, 36, 57
11, 6212, Note_on_c, 9, 49, 56
11, 6241, Note_on_c, 9, 36, 0
11, 6242, Note_on_c, 9, 49, 0
11, 6271, Note_on_c, 9, 42, 55
11, 6301, Note_on_c, 9, 42, 0
11, 6330, Note_on_c, 9, 42, 54
11, 6360, Note_on_c, 9, 42, 0
11, 6390, Note_on_c, 9, 38, 51
11, 6391, Note_on_c, 9, 42, 55
11, 6420, Note_on_c, 9, 38, 0
11, 6421, Note_on_c, 9, 42, 0
11, 6450, Note_on_c, 9, 42, 55
11, 6480, Note_on_c, 9, 42, 0
11, 6511, Note_on_c, 9, 36, 52
11, 6512, Note_on_c, 9, 42, 57
11, 6541, Note_on_c, 9, 36, 0
11, 6542, Note_on_c, 9, 42, 0
11, 6570, Note_on_c, 9, 36, 57
11, 6571, Note_on_c, 9, 42, 57
11, 6600, Note_on_c, 9, 36, 0
11, 6601, Note_on_c, 9, 42, 0
11, 6630, Note_on_c, 9, 38, 51
11, 6631, Note_on_c, 9, 42, 52
11, 6660, Note_on_c, 9, 38, 0
11, 6661, Note_on_c, 9, 42, 0
11, 6691, Note_on_c, 9, 36, 52
11, 6692, Note_on_c, 9, 42, 55
11, 6721, Note_on_c, 9, 36, 0
11, 6722, Note_on_c, 9, 42, 0
11, 6751, Note_on_c, 9, 42, 57
11, 6781, Note_on_c, 9, 42, 0
11, 6810, Note_on_c, 9, 42, 54
11, 6840, Note_on_c, 9, 42, 0
11, 6869, Note_on_c, 9, 38, 52
11, 6870, Note_on_c, 9, 42, 54
11, 6899, Note_on_c, 9, 38, 0
11, 6900, Note_on_c, 9, 42, 0
11, 6931, Note_on_c, 9, 42, 51
11, 6961, Note_on_c, 9, 42, 0
11, 6991, Note_on_c, 9, 36, 55
11, 6991, Note_on_c, 9, 42, 52
11, 7021, Note_on_c, 9, 42, 0
11, 7021, Note_on_c, 9, 36, 0
11, 7051, Note_on_c, 9, 36, 57
11, 7051, Note_on_c, 9, 42, 55
11, 7081, Note_on_c, 9, 42, 0
11, 7081, Note_on_c, 9, 36, 0
11, 7110, Note_on_c, 9, 38, 53
11, 7110, Note_on_c, 9, 42, 55
11, 7140, Note_on_c, 9, 42, 0
11, 7140, Note_on_c, 9, 38, 0
11, 7171, Note_on_c, 9, 36, 57
11, 7171, Note_on_c, 9, 42, 57
11, 7201, Note_on_c, 9, 42, 0
11, 7201, Note_on_c, 9, 36, 0
11, 7230, Note_on_c, 9, 42, 55
11, 7260, Note_on_c, 9, 42, 0
11, 7290, Note_on_c, 9, 42, 56
11, 7320, Note_on_c, 9, 42, 0
11, 7350, Note_on_c, 9, 38, 51
11, 7351, Note_on_c, 9, 42, 51
11, 7380, Note_on_c, 9, 38, 0
11, 7381, Note_on_c, 9, 42, 0
11, 7410, Note_on_c, 9, 42, 52
11, 7440, Note_on_c, 9, 42, 0
11, 7470, Note_on_c, 9, 36, 53
11, 7471, Note_on_c, 9, 42, 55
11, 7500, Note_on_c, 9, 36, 0
11, 7501, Note_on_c, 9, 42, 0
11, 7530, Note_on_c, 9, 36, 57
11, 7530, Note_on_c, 9, 42, 55
11, 7560, Note_on_c, 9, 42, 0
11, 7560, Note_on_c, 9, 36, 0
11, 7591, Note_on_c, 9, 38, 57
11, 7591, Note_on_c, 9, 42, 55
11, 7621, Note_on_c, 9, 42, 0
11, 7621, Note_on_c, 9, 38, 0
11, 7651, Note_on_c, 9, 36, 53
11, 7651, Note_on_c, 9, 42, 54
11, 7681, Note_on_c, 9, 42, 0
11, 7681, Note_on_c, 9, 36, 0
11, 7710, Note_on_c, 9, 42, 55
11, 7740, Note_on_c, 9, 42, 0
11, 7771, Note_on_c, 9, 42, 51
11, 7801, Note_on_c, 9, 42, 0
11, 7831, Note_on_c, 9, 38, 51
11, 7831, Note_on_c, 9, 42, 57
11, 7861, Note_on_c, 9, 42, 0
11, 7861, Note_on_c, 9, 38, 0
11, 7890, Note_on_c, 9, 42, 55
11, 7920, Note_on_c, 9, 42, 0
11, 7949, Note_on_c, 9, 36, 53
11, 7949, Note_on_c, 9, 42, 52
11, 7979, Note_on_c, 9, 42, 0
11, 7979, Note_on_c, 9, 36, 0
11, 8011, Note_on_c, 9, 36, 51
11, 8011, Note_on_c, 9, 42, 54
11, 8041, Note_on_c, 9, 42, 0
11, 8041, Note_on_c, 9, 36, 0
11, 8070, Note_on_c, 9, 38, 52
11, 8070, Note_on_c, 9, 42, 54
11, 8100, Note_on_c, 9, 42, 0
11, 8100, Note_on_c, 9, 38, 0
11, 8130, Note_on_c, 9, 36, 54
11, 8130, Note_on_c, 9, 42, 54
11, 8160, Note_on_c, 9, 42, 0
11, 8160, Note_on_c, 9, 36, 0
11, 8191, Note_on_c, 9, 42, 56
11, 8221, Note_on_c, 9, 42, 0
11, 8250, Note_on_c, 9, 42, 51
11, 8280, Note_on_c, 9, 42, 0
11, 8310, Note_on_c, 9, 38, 53
11, 8311, Note_on_c, 9, 42, 53
11, 8340, Note_on_c, 9, 38, 0
11, 8341, Note_on_c, 9, 42, 0
11, 8370, Note_on_c, 9, 42, 54
11, 8400, Note_on_c, 9, 42, 0
11, 8431, Note_on_c, 9, 36, 53
11, 8431, Note_on_c, 9, 42, 52
11, 8461, Note_on_c, 9, 42, 0
11, 8461, Note_on_c, 9, 36, 0
11, 8490, Note_on_c, 9, 36, 55
11, 8490, Note_on_c, 9, 42, 54
11, 8520, Note_on_c, 9, 42, 0
11, 8520, Note_on_c, 9, 36, 0
11, 8550, Note_on_c, 9, 38, 55
11, 8551, Note_on_c, 9, 42, 53
11, 8580, Note_on_c, 9, 38, 0
11, 8581, Note_on_c, 9, 42, 0
11, 8611, Note_on_c, 9, 36, 55
11, 8611, Note_on_c, 9, 42, 55
11, 8641, Note_on_c, 9, 42, 0
11, 8641, Note_on_c, 9, 36, 0
11, 8670, Note_on_c, 9, 42, 54
11, 8700, Note_on_c, 9, 42, 0
11, 8731, Note_on_c, 9, 42, 57
11, 8761, Note_on_c, 9, 42, 0
11, 8790, Note_on_c, 9, 38, 51
11, 8791, Note_on_c, 9, 42, 53
11, 8820, Note_on_c, 9, 38, 0
11, 8821, Note_on_c, 9, 42, 0
11, 8851, Note_on_c, 9, 42, 55
11, 8881, Note_on_c, 9, 42, 0
11, 8909, Note_on_c, 9, 36, 57
11, 8909, Note_on_c, 9, 42, 53
11, 8939, Note_on_c, 9, 42, 0
11, 8939, Note_on_c, 9, 36, 0
11, 8971, Note_on_c, 9, 36, 57
11, 8971, Note_on_c, 9, 42, 51
11, 9001, Note_on_c, 9, 42, 0
11, 9001, Note_on_c, 9, 36, 0
11, 9031, Note_on_c, 9, 38, 54
11, 9032, Note_on_c, 9, 42, 57
11, 9061, Note_on_c, 9, 38, 0
11, 9062, Note_on_c, 9, 42, 0
11, 9090, Note_on_c, 9, 36, 54
11, 9091, Note_on_c, 9, 42, 51
11, 9120, Note_on_c, 9, 36, 0
11, 9121, Note_on_c, 9, 42, 0
11, 9151, Note_on_c, 9, 42, 56
11, 9181, Note_on_c, 9, 42, 0
11, 9210, Note_on_c, 9, 42, 57
11, 9240, Note_on_c, 9, 42, 0
11, 9271, Note_on_c, 9, 38, 57
11, 9271, Note_on_c, 9, 42, 52
11, 9301, Note_on_c, 9, 42, 0
11, 9301, Note_on_c, 9, 38, 0
11, 9330, Note_on_c, 9, 42, 54
11, 9360, Note_on_c, 9, 42, 0
11, 9390, Note_on_c, 9, 36, 54
11, 9390, Note_on_c, 9, 42, 56
11, 9420, Note_on_c, 9, 42, 0
11, 9420, Note_on_c, 9, 36, 0
11, 9450, Note_on_c, 9, 36, 51
11, 9450, Note_on_c, 9, 42, 53
11, 9480, Note_on_c, 9, 42, 0
11, 9480, Note_on_c, 9, 36, 0
11, 9511, Note_on_c, 9, 38, 56
11, 9512, Note_on_c, 9, 42, 57
11, 9541, Note_on_c, 9, 38, 0
11, 9542, Note_on_c, 9, 42, 0
11, 9570, Note_on_c, 9, 36, 55
11, 9570, Note_on_c, 9, 42, 53
11, 9600, Note_on_c, 9, 42, 0
11, 9600, Note_on_c, 9, 36, 0
11, 9630, Note_on_c, 9, 42, 54
11, 9660, Note_on_c, 9, 42, 0
11, 9690, Note_on_c, 9, 42, 56
11, 9720, Note_on_c, 9, 42, 0
11, 9750, Note_on_c, 9, 38, 51
11, 9751, Note_on_c, 9, 42, 55
11, 9780, Note_on_c, 9, 38, 0
11, 9781, Note_on_c, 9, 42, 0
11, 9810, Note_on_c, 9, 42, 52
11, 9840, Note_on_c, 9, 42, 0
11, 9871, Note_on_c, 9, 36, 51
11, 9871, Note_on_c, 9, 42, 52
11, 9901, Note_on_c, 9, 42, 0
11, 9901, Note_on_c, 9, 36, 0
11, 9929, Note_on_c, 9, 36, 52
11, 9930, Note_on_c, 9, 42, 55
11, 9959, Note_on_c, 9, 36, 0
11, 9960, Note_on_c, 9, 42, 0
11, 9990, Note_on_c, 9, 38, 57
11, 9991, Note_on_c, 9, 42, 52
11, 10020, Note_on_c, 9, 38, 0
11, 10021, Note_on_c, 9, 42, 0
11, 10050, Note_on_c, 9, 36, 56
11, 10051, Note_on_c, 9, 49, 52
11, 10080, Note_on_c, 9, 36, 0
11, 10081, Note_on_c, 9, 49, 0
11, 10110, Note_on_c, 9, 42, 56
11, 10140, Note_on_c, 9, 42, 0
11, 10171, Note_on_c, 9, 42, 51
11, 10201, Note_on_c, 9, 42, 0
11, 10231, Note_on_c, 9, 38, 54
11, 10231, Note_on_c, 9, 42, 53
11, 10261, Note_on_c, 9, 42, 0
11, 10261, Note_on_c, 9, 38, 0
11, 10290, Note_on_c, 9, 42, 51
11, 10320, Note_on_c, 9, 42, 0
11, 10350, Note_on_c, 9, 36, 56
11, 10350, Note_on_c, 9, 42, 56
11, 10380, Note_on_c, 9, 42, 0
11, 10380, Note_on_c, 9, 36, 0
11, 10410, Note_on_c, 9, 36, 55
11, 10410, Note_on_c, 9, 42, 53
11, 10440, Note_on_c, 9, 42, 0
11, 10440, Note_on_c, 9, 36, 0
11, 10471, Note_on_c, 9, 38, 55
11, 10472, Note_on_c, 9, 42, 52
11, 10501, Note_on_c, 9, 38, 0
11, 10502, Note_on_c, 9, 42, 0
11, 10531, Note_on_c, 9, 36, 53
11, 10531, Note_on_c, 9, 42, 53
11, 10561, Note_on_c, 9, 42, 0
11, 10561, Note_on_c, 9, 36, 0
11, 10591, Note_on_c, 9, 42, 53
11, 10621, Note_on_c, 9, 42, 0
11, 10651, Note_on_c, 9, 42, 51
11, 10681, Note_on_c, 9, 42, 0
11, 10710, Note_on_c, 9, 38, 53
11, 10711, Note_on_c, 9, 42, 56
11, 10740, Note_on_c, 9, 38, 0
11, 10741, Note_on_c, 9, 42, 0
11, 10771, Note_on_c, 9, 42, 53
11, 10801, Note_on_c, 9, 42, 0
11, 10831, Note_on_c, 9, 36, 56
11, 10832, Note_on_c, 9, 42, 55
11, 10861, Note_on_c, 9, 36, 0
11, 10862, Note_on_c, 9, 42, 0
11, 10890, Note_on_c, 9, 36, 57
11, 10891, Note_on_c, 9, 42, 54
11, 10920, Note_on_c, 9, 36, 0
11, 10921, Note_on_c, 9, 42, 0
11, 10950, Note_on_c, 9, 38, 56
11, 10950, Note_on_c, 9, 42, 53
11, 10980, Note_on_c, 9, 42, 0
11, 10980, Note_on_c, 9, 38, 0
11, 11010, Note_on_c, 9, 36, 53
11, 11011, Note_on_c, 9, 42, 55
11, 11040, Note_on_c, 9, 36, 0
11, 11041, Note_on_c, 9, 42, 0
11, 11070, Note_on_c, 9, 42, 55
11, 11100, Note_on_c, 9, 42, 0
11, 11131, Note_on_c, 9, 42, 53
11, 11161, Note_on_c, 9, 42, 0
11, 11190, Note_on_c, 9, 38, 56
11, 11191, Note_on_c, 9, 42, 55
11, 11220, Note_on_c, 9, 38, 0
11, 11221, Note_on_c, 9, 42, 0
11, 11250, Note_on_c, 9, 42, 55
11, 11280, Note_on_c, 9, 42, 0
11, 11310, Note_on_c, 9, 36, 54
11, 11310, Note_on_c, 9, 42, 54
11, 11340, Note_on_c, 9, 42, 0
11, 11340, Note_on_c, 9, 36, 0
11, 11370, Note_on_c, 9, 36, 57
11, 11370, Note_on_c, 9, 42, 55
11, 11400, Note_on_c, 9, 42, 0
11, 11400, Note_on_c, 9, 36, 0
11, 11431, Note_on_c, 9, 38, 57
11, 11432, Note_on_c, 9, 42, 51
11, 11461, Note_on_c, 9, 38, 0
11, 11462, Note_on_c, 9, 42, 0
11, 11490, Note_on_c, 9, 36, 57
11, 11490, Note_on_c, 9, 42, 57
11, 11520, Note_on_c, 9, 42, 0
11, 11520, Note_on_c, 9, 36, 0
11, 11551, Note_on_c, 9, 42, 51
11, 11581, Note_on_c, 9, 42, 0
11, 11611, Note_on_c, 9, 42, 52
11, 11641, Note_on_c, 9, 42, 0
11, 11670, Note_on_c, 9, 38, 57
11, 11670, Note_on_c, 9, 42, 54
11, 11700, Note_on_c, 9, 42, 0
11, 11700, Note_on_c, 9, 38, 0
11, 11730, Note_on_c, 9, 42, 54
11, 11760, Note_on_c, 9, 42, 0
11, 11790, Note_on_c, 9, 36, 56
11, 11791, Note_on_c, 9, 42, 52
11, 11820, Note_on_c, 9, 36, 0
11, 11821, Note_on_c, 9, 42, 0
11, 11850, Note_on_c, 9, 36, 51
11, 11851, Note_on_c, 9, 42, 57
11, 11880, Note_on_c, 9, 36, 0
11, 11881, Note_on_c, 9, 42, 0
11, 11909, Note_on_c, 9, 38, 56
11, 11910, Note_on_c, 9, 42, 57
11, 11939, Note_on_c, 9, 38, 0
11, 11940, Note_on_c, 9, 42, 0
11, 11970, Note_on_c, 9, 36, 56
11, 11971, Note_on_c, 9, 42, 55
11, 12000, Note_on_c, 9, 36, 0
11, 12001, Note_on_c, 9, 42, 0
11, 12031, Note_on_c, 9, 42, 51
11, 12061, Note_on_c, 9, 42, 0
11, 12090, Note_on_c, 9, 42, 52
11, 12120, Note_on_c, 9, 42, 0
11, 12150, Note_on_c, 9, 38, 52
11, 12150, Note_on_c, 9, 42, 55
11, 12180, Note_on_c, 9, 42, 0
11, 12180, Note_on_c, 9, 38, 0
11, 12210, Note_on_c, 9, 42, 56
11, 12240, Note_on_c, 9, 42, 0
11, 12271, Note_on_c, 9, 36, 53
11, 12271, Note_on_c, 9, 42, 57
11, 12301, Note_on_c, 9, 42, 0
11, 12301, Note_on_c, 9, 36, 0
11, 12330, Note_on_c, 9, 36, 52
11, 12330, Note_on_c, 9, 42, 55
11, 12360, Note_on_c, 9, 42, 0
11, 12360, Note_on_c, 9, 36, 0
11, 12390, Note_on_c, 9, 38, 54
11, 12391, Note_on_c, 9, 42, 51
11, 12420, Note_on_c, 9, 38, 0
11, 12421, Note_on_c, 9, 42, 0
11, 12450, Note_on_c, 9, 36, 55
11, 12451, Note_on_c, 9, 42, 56
11, 12480, Note_on_c, 9, 36, 0
11, 12481, Note_on_c, 9, 42, 0
11, 12510, Note_on_c, 9, 42, 51
11, 12540, Note_on_c, 9, 42, 0
11, 12571, Note_on_c, 9, 42, 52
11, 12601, Note_on_c, 9, 42, 0
11, 12630, Note_on_c, 9, 38, 56
11, 12631, Note_on_c, 9, 42, 54
11, 12660, Note_on_c, 9, 38, 0
11, 12661, Note_on_c, 9, 42, 0
11, 12689, Note_on_c, 9, 42, 55
11, 12719, Note_on_c, 9, 42, 0
11, 12750, Note_on_c, 9, 36, 51
11, 12751, Note_on_c, 9, 42, 53
11, 12780, Note_on_c, 9, 36, 0
11, 12781, Note_on_c, 9, 42, 0
11, 12810, Note_on_c, 9, 36, 55
11, 12810, Note_on_c, 9, 42, 52
11, 12840, Note_on_c, 9, 42, 0
11, 12840, Note_on_c, 9, 36, 0
11, 12871, Note_on_c, 9, 38, 51
11, 12871, Note_on_c, 9, 42, 52
11, 12901, Note_on_c, 9, 42, 0
11, 12901, Note_on_c, 9, 38, 0
11, 12931, Note_on_c, 9, 36, 52
11, 12931, Note_on_c, 9, 42, 51
11, 12961, Note_on_c, 9, 42, 0
11, 12961, Note_on_c, 9, 36, 0
11, 12991, Note_on_c, 9, 42, 55
11, 13021, Note_on_c, 9, 42, 0
11, 13051, Note_on_c, 9, 42, 52
11, 13081, Note_on_c, 9, 42, 0
11, 13111, Note_on_c, 9, 38, 54
11, 13111, Note_on_c, 9, 42, 55
11, 13141, Note_on_c, 9, 42, 0
11, 13141, Note_on_c, 9, 38, 0
11, 13170, Note_on_c, 9, 42, 55
11, 13200, Note_on_c, 9, 42, 0
11, 13231, Note_on_c, 9, 36, 55
11, 13232, Note_on_c, 9, 42, 54
11, 13261, Note_on_c, 9, 36, 0
11, 13262, Note_on_c, 9, 42, 0
11, 13291, Note_on_c, 9, 36, 56
11, 13291, Note_on_c, 9, 42, 54
11, 13321, Note_on_c, 9, 42, 0
11, 13321, Note_on_c, 9, 36, 0
11, 13351, Note_on_c, 9, 38, 54
11, 13351, Note_on_c, 9, 42, 57
11, 13381, Note_on_c, 9, 42, 0
11, 13381, Note_on_c, 9, 38, 0
11, 13410, Note_on_c, 9, 36, 51
11, 13410, Note_on_c, 9, 42, 52
11, 13440, Note_on_c, 9, 42, 0
11, 13440, Note_on_c, 9, 36, 0
11, 13471, Note_on_c, 9, 42, 52
11, 13501, Note_on_c, 9, 42, 0
11, 13531, Note_on_c, 9, 42, 57
11, 13561, Note_on_c, 9, 42, 0
11, 13590, Note_on_c, 9, 38, 56
11, 13590, Note_on_c, 9, 42, 52
11, 13620, Note_on_c, 9, 42, 0
11, 13620, Note_on_c, 9, 38, 0
11, 13650, Note_on_c, 9, 42, 57
11, 13680, Note_on_c, 9, 42, 0
11, 13710, Note_on_c, 9, 36, 52
11, 13710, Note_on_c, 9, 42, 55
11, 13740, Note_on_c, 9, 42, 0
11, 13740, Note_on_c, 9, 36, 0
11, 13769, Note_on_c, 9, 36, 56
11, 13769, Note_on_c, 9, 42, 55
11, 13799, Note_on_c, 9, 42, 0
11, 13799, Note_on_c, 9, 36, 0
11, 13831, Note_on_c, 9, 38, 52
11, 13831, Note_on_c, 9, 42, 56
11, 13861, Note_on_c, 9, 42, 0
11, 13861, Note_on_c, 9, 38, 0
11, 13891, Note_on_c, 9, 36, 54
11, 13891, Note_on_c, 9, 49, 53
11, 13921, Note_on_c, 9, 49, 0
11, 13921, Note_on_c, 9, 36, 0
11, 13951, Note_on_c, 9, 42, 56
11, 13981, Note_on_c, 9, 42, 0
11, 14011, Note_on_c, 9, 42, 57
11, 14041, Note_on_c, 9, 42, 0
11, 14071, Note_on_c, 9, 38, 53
11, 14071, Note_on_c, 9, 42, 56
11, 14101, Note_on_c, 9, 42, 0
11, 14101, Note_on_c, 9, 38, 0
11, 14130, Note_on_c, 9, 42, 52
11, 14160, Note_on_c, 9, 42, 0
11, 14191, Note_on_c, 9, 36, 56
11, 14191, Note_on_c, 9, 42, 52
11, 14221, Note_on_c, 9, 42, 0
11, 14221, Note_on_c, 9, 36, 0
11, 14250, Note_on_c, 9, 36, 53
11, 14251, Note_on_c, 9, 42, 53
11, 14280, Note_on_c, 9, 36, 0
11, 14281, Note_on_c, 9, 42, 0
11, 14311, Note_on_c, 9, 38, 52
11, 14312, Note_on_c, 9, 42, 56
11, 14341, Note_on_c, 9, 38, 0
11, 14342, Note_on_c, 9, 42, 0
11, 14370, Note_on_c, 9, 36, 52
11, 14371, Note_on_c, 9, 42, 52
11, 14400, Note_on_c, 9, 36, 0
11, 14401, Note_on_c, 9, 42, 0
11, 14431, Note_on_c, 9, 42, 52
11, 14461, Note_on_c, 9, 42, 0
11, 14491, Note_on_c, 9, 42, 52
11, 14521, Note_on_c, 9, 42, 0
11, 14549, Note_on_c, 9, 38, 57
11, 14550, Note_on_c, 9, 42, 51
11, 14579, Note_on_c, 9, 38, 0
11, 14580, Note_on_c, 9, 42, 0
11, 14610, Note_on_c, 9, 42, 57
11, 14640, Note_on_c, 9, 42, 0
11, 14671, Note_on_c, 9, 36, 52
11, 14672, Note_on_c, 9, 42, 54
11, 14701, Note_on_c, 9, 36, 0
11, 14702, Note_on_c, 9, 42, 0
11, 14730, Note_on_c, 9, 36, 54
11, 14730, Note_on_c, 9, 42, 53
11, 14760, Note_on_c, 9, 42, 0
11, 14760, Note_on_c, 9, 36, 0
11, 14790, Note_on_c, 9, 38, 54
11, 14791, Note_on_c, 9, 42, 55
11, 14820, Note_on_c, 9, 38, 0
11, 14821, Note_on_c, 9, 42, 0
11, 14850, Note_on_c, 9, 36, 54
11, 14850, Note_on_c, 9, 42, 57
11, 14880, Note_on_c, 9, 42, 0
11, 14880, Note_on_c, 9, 36, 0
11, 14911, Note_on_c, 9, 42, 53
11, 14941, Note_on_c, 9, 42, 0
11, 14971, Note_on_c, 9, 42, 56
11, 15001, Note_on_c, 9, 42, 0
11, 15030, Note_on_c, 9, 38, 53
11, 15031, Note_on_c, 9, 42, 57
11, 15060, Note_on_c, 9, 38, 0
11, 15061, Note_on_c, 9, 42, 0
11, 15091, Note_on_c, 9, 42, 53
11, 15121, Note_on_c, 9, 42, 0
11, 15150, Note_on_c, 9, 36, 57
11, 15151, Note_on_c, 9, 42, 55
11, 15180, Note_on_c, 9, 36, 0
11, 15181, Note_on_c, 9, 42, 0
11, 15211, Note_on_c, 9, 36, 56
11, 15211, Note_on_c, 9, 42, 55
11, 15241, Note_on_c, 9, 42, 0
11, 15241, Note_on_c, 9, 36, 0
11, 15270, Note_on_c, 9, 38, 57
11, 15271, Note_on_c, 9, 42, 57
11, 15300, Note_on_c, 9, 38, 0
11, 15301, Note_on_c, 9, 42, 0
11, 15331, Note_on_c, 9, 36, 56
11, 15331, Note_on_c, 9, 42, 54
11, 15361, Note_on_c, 9, 42, 0
11, 15361, Note_on_c, 9, 36, 0
11, 15390, Note_on_c, 9, 42, 52
11, 15420, Note_on_c, 9, 42, 0
11, 15451, Note_on_c, 9, 42, 52
11, 15481, Note_on_c, 9, 42, 0
11, 15510, Note_on_c, 9, 38, 53
11, 15511, Note_on_c, 9, 42, 55
11, 15540, Note_on_c, 9, 38, 0
11, 15541, Note_on_c, 9, 42, 0
11, 15569, Note_on_c, 9, 42, 53
11, 15599, Note_on_c, 9, 42, 0
11, 15630, Note_on_c, 9, 36, 51
11, 15631, Note_on_c, 9, 42, 51
11, 15660, Note_on_c, 9, 36, 0
11, 15661, Note_on_c, 9, 42, 0
11, 15691, Note_on_c, 9, 36, 56
11, 15691, Note_on_c, 9, 42, 52
11, 15721, Note_on_c, 9, 42, 0
11, 15721, Note_on_c, 9, 36, 0
11, 15751, Note_on_c, 9, 38, 56
11, 15751, Note_on_c, 9, 42, 55
11, 15781, Note_on_c, 9, 42, 0
11, 15781, Note_on_c, 9, 38, 0
11, 15811, Note_on_c, 9, 36, 55
11, 15812, Note_on_c, 9, 42, 54
11, 15841, Note_on_c, 9, 36, 0
11, 15842, Note_on_c, 9, 42, 0
11, 15870, Note_on_c, 9, 42, 53
11, 15900, Note_on_c, 9, 42, 0
11, 15930, Note_on_c, 9, 42, 52
11, 15960, Note_on_c, 9, 42, 0
11, 15990, Note_on_c, 9, 38, 51
11, 15991, Note_on_c, 9, 42, 57
11, 16020, Note_on_c, 9, 38, 0
11, 16021, Note_on_c, 9, 42, 0
11, 16051, Note_on_c, 9, 42, 57
11, 16081, Note_on_c, 9, 42, 0
11, 16111, Note_on_c, 9, 36, 53
11, 16112, Note_on_c, 9, 42, 53
11, 16141, Note_on_c, 9, 36, 0
11, 16142, Note_on_c, 9, 42, 0
11, 16170, Note_on_c, 9, 36, 52
11, 16171, Note_on_c, 9, 42, 56
11, 16200, Note_on_c, 9, 36, 0
11, 16201, Note_on_c, 9, 42, 0
11, 16230, Note_on_c, 9, 38, 55
11, 16231, Note_on_c, 9, 42, 55
11, 16260, Note_on_c, 9, 38, 0
11, 16261, Note_on_c, 9, 42, 0
11, 16291, Note_on_c, 9, 36, 56
11, 16292, Note_on_c, 9, 42, 54
11, 16321, Note_on_c, 9, 36, 0
11, 16322, Note_on_c, 9, 42, 0
11, 16350, Note_on_c, 9, 42, 51
11, 16380, Note_on_c, 9, 42, 0
11, 16410, Note_on_c, 9, 42, 56
11, 16440, Note_on_c, 9, 42, 0
11, 16470, Note_on_c, 9, 38, 53
11, 16470, Note_on_c, 9, 42, 56
11, 16500, Note_on_c, 9, 42, 0
11, 16500, Note_on_c, 9, 38, 0
11, 16529, Note_on_c, 9, 42, 54
11, 16559, Note_on_c, 9, 42, 0
11, 16591, Note_on_c, 9, 36, 51
11, 16592, Note_on_c, 9, 42, 51
11, 16621, Note_on_c, 9, 36, 0
11, 16622, Note_on_c, 9, 42, 0
11, 16649, Note_on_c, 9, 36, 54
11, 16650, Note_on_c, 9, 42, 56
11, 16679, Note_on_c, 9, 36, 0
11, 16680, Note_on_c, 9, 42, 0
11, 16710, Note_on_c, 9, 38, 53
11, 16710, Note_on_c, 9, 42, 55
11, 16740, Note_on_c, 9, 42, 0
11, 16740, Note_on_c, 9, 38, 0
11, 16771, Note_on_c, 9, 36, 53
11, 16771, Note_on_c, 9, 42, 52
11, 16801, Note_on_c, 9, 42, 0
11, 16801, Note_on_c, 9, 36, 0
11, 16830, Note_on_c, 9, 42, 53
11, 16860, Note_on_c, 9, 42, 0
11, 16891, Note_on_c, 9, 42, 52
11, 16921, Note_on_c, 9, 42, 0
11, 16950, Note_on_c, 9, 38, 51
11, 16950, Note_on_c, 9, 42, 54
11, 16980, Note_on_c, 9, 42, 0
11, 16980, Note_on_c, 9, 38, 0
11, 17011, Note_on_c, 9, 42, 51
11, 17041, Note_on_c, 9, 42, 0
11, 17070, Note_on_c, 9, 36, 53
11, 17070, Note_on_c, 9, 42, 51
11, 17100, Note_on_c, 9, 42, 0
11, 17100, Note_on_c, 9, 36, 0
11, 17130, Note_on_c, 9, 36, 51
11, 17131, Note_on_c, 9, 42, 54
11, 17160, Note_on_c, 9, 36, 0
11, 17161, Note_on_c, 9, 42, 0
11, 17191, Note_on_c, 9, 38, 57
11, 17191, Note_on_c, 9, 42, 57
11, 17221, Note_on_c, 9, 42, 0
11, 17221, Note_on_c, 9, 38, 0
11, 17251, Note_on_c, 9, 36, 53
11, 17252, Note_on_c, 9, 42, 52
11, 17281, Note_on_c, 9, 36, 0
11, 17282, Note_on_c, 9, 42, 0
11, 17311, Note_on_c, 9, 42, 57
11, 17341, Note_on_c, 9, 42, 0
11, 17371, Note_on_c, 9, 42, 54
11, 17401, Note_on_c, 9, 42, 0
11, 17430, Note_on_c, 9, 38, 52
11, 17430, Note_on_c, 9, 42, 53
11, 17460, Note_on_c, 9, 42, 0
11, 17460, Note_on_c, 9, 38, 0
11, 17490, Note_on_c, 9, 42, 51
11, 17520, Note_on_c, 9, 42, 0
11, 17550, Note_on_c, 9, 36, 55
11, 17551, Note_on_c, 9, 42, 52
11, 17580, Note_on_c, 9, 36, 0
11, 17581, Note_on_c, 9, 42, 0
11, 17610, Note_on_c, 9, 36, 52
11, 17610, Note_on_c, 9, 42, 52
11, 17640, Note_on_c, 9, 42, 0
11, 17640, Note_on_c, 9, 36, 0
11, 17671, Note_on_c, 9, 38, 54
11, 17671, Note_on_c, 9, 42, 57
11, 17701, Note_on_c, 9, 42, 0
11, 17701, Note_on_c, 9, 38, 0
11, 17730, Note_on_c, 9, 36, 55
11, 17731, Note_on_c, 9, 49, 51
11, 17760, Note_on_c, 9, 36, 0
11, 17761, Note_on_c, 9, 49, 0
11, 17790, Note_on_c, 9, 42, 53
11, 17820, Note_on_c, 9, 42, 0
11, 17850, Note_on_c, 9, 42, 55
11, 17880, Note_on_c, 9, 42, 0
11, 17911, Note_on_c, 9, 38, 53
11, 17911, Note_on_c, 9, 42, 56
11, 17941, Note_on_c, 9, 42, 0
11, 17941, Note_on_c, 9, 38, 0
11, 17970, Note_on_c, 9, 42, 52
11, 18000, Note_on_c, 9, 42, 0
11, 18030, Note_on_c, 9, 36, 57
11, 18031, Note_on_c, 9, 42, 56
11, 18060, Note_on_c, 9, 36, 0
11, 18061, Note_on_c, 9, 42, 0
11, 18091, Note_on_c, 9, 36, 53
11, 18091, Note_on_c, 9, 42, 55
11, 18121, Note_on_c, 9, 42, 0
11, 18121, Note_on_c, 9, 36, 0
11, 18151, Note_on_c, 9, 38, 55
11, 18151, Note_on_c, 9, 42, 54
11, 18181, Note_on_c, 9, 42, 0
11, 18181, Note_on_c, 9, 38, 0
11, 18209, Note_on_c, 9, 36, 52
11, 18210, Note_on_c, 9, 42, 51
11, 18239, Note_on_c, 9, 36, 0
11, 18240, Note_on_c, 9, 42, 0
11, 18270, Note_on_c, 9, 42, 57
11, 18300, Note_on_c, 9, 42, 0
11, 18330, Note_on_c, 9, 42, 57
11, 18360, Note_on_c, 9, 42, 0
11, 18390, Note_on_c, 9, 38, 53
11, 18391, Note_on_c, 9, 42, 51
11, 18420, Note_on_c, 9, 38, 0
11, 18421, Note_on_c, 9, 42, 0
11, 18451, Note_on_c, 9, 42, 53
11, 18481, Note_on_c, 9, 42, 0
11, 18511, Note_on_c, 9, 36, 56
11, 18512, Note_on_c, 9, 42, 56
11, 18541, Note_on_c, 9, 36, 0
11, 18542, Note_on_c, 9, 42, 0
11, 18570, Note_on_c, 9, 36, 52
11, 18571, Note_on_c, 9, 42, 57
11, 18600, Note_on_c, 9, 36, 0
11, 18601, Note_on_c, 9, 42, 0
11, 18631, Note_on_c, 9, 38, 56
11, 18632, Note_on_c, 9, 42, 52
11, 18661, Note_on_c, 9, 38, 0
11, 18662, Note_on_c, 9, 42, 0
11, 18690, Note_on_c, 9, 36, 53
11, 18690, Note_on_c, 9, 42, 52
11, 18720, Note_on_c, 9, 42, 0
11, 18720, Note_on_c, 9, 36, 0
11, 18750, Note_on_c, 9, 42, 56
11, 18780, Note_on_c, 9, 42, 0
11, 18810, Note_on_c, 9, 42, 53
11, 18840, Note_on_c, 9, 42, 0
11, 18870, Note_on_c, 9, 38, 52
11, 18871, Note_on_c, 9, 42, 54
11, 18900, Note_on_c, 9, 38, 0
11, 18901, Note_on_c, 9, 42, 0
11, 18930, Note_on_c, 9, 42, 57
11, 18960, Note_on_c, 9, 42, 0
11, 18990, Note_on_c, 9, 36, 57
11, 18990, Note_on_c, 9, 42, 55
11, 19020, Note_on_c, 9, 42, 0
11, 19020, Note_on_c, 9, 36, 0
11, 19050, Note_on_c, 9, 36, 54
11, 19050, Note_on_c, 9, 42, 57
11, 19080, Note_on_c, 9, 42, 0
11, 19080, Note_on_c, 9, 36, 0
11, 19110, Note_on_c, 9, 38, 51
11, 19110, Note_on_c, 9, 42, 51
11, 19140, Note_on_c, 9, 42, 0
11, 19140, Note_on_c, 9, 38, 0
11, 19170, Note_on_c, 9, 36, 57
11, 19170, Note_on_c, 9, 42, 52
11, 19200, Note_on_c, 9, 42, 0
11, 19200, Note_on_c, 9, 36, 0
11, 19230, Note_on_c, 9, 42, 55
11, 19260, Note_on_c, 9, 42, 0
11, 19291, Note_on_c, 9, 42, 52
11, 19321, Note_on_c, 9, 42, 0
11, 19350, Note_on_c, 9, 38, 56
11, 19351, Note_on_c, 9, 42, 57
11, 19380, Note_on_c, 9, 38, 0
11, 19381, Note_on_c, 9, 42, 0
11, 19411, Note_on_c, 9, 42, 55
11, 19441, Note_on_c, 9, 42, 0
11, 19470, Note_on_c, 9, 36, 56
11, 19470, Note_on_c, 9, 42, 53
11, 19500, Note_on_c, 9, 42, 0
11, 19500, Note_on_c, 9, 36, 0
11, 19531, Note_on_c, 9, 36, 56
11, 19531, Note_on_c, 9, 42, 56
11, 19561, Note_on_c, 9, 42, 0
11, 19561, Note_on_c, 9, 36, 0
11, 19591, Note_on_c, 9, 38, 51
11, 19591, Note_on_c, 9, 42, 53
11, 19621, Note_on_c, 9, 42, 0
11, 19621, Note_on_c, 9, 38, 0
11, 19650, Note_on_c, 9, 36, 57
11, 19651, Note_on_c, 9, 42, 52
11, 19680, Note_on_c, 9, 36, 0
11, 19681, Note_on_c, 9, 42, 0
11, 19711, Note_on_c, 9, 42, 55
11, 19741, Note_on_c, 9, 42, 0
11, 19771, Note_on_c, 9, 42, 51
11, 19801, Note_on_c, 9, 42, 0
11, 19830, Note_on_c, 9, 38, 51
11, 19831, Note_on_c, 9, 42, 55
11, 19860, Note_on_c, 9, 38, 0
11, 19861, Note_on_c, 9, 42, 0
11, 19891, Note_on_c, 9, 42, 55
11, 19921, Note_on_c, 9, 42, 0
11, 19950, Note_on_c, 9, 36, 52
11, 19951, Note_on_c, 9, 42, 53
11, 19980, Note_on_c, 9, 36, 0
11, 19981, Note_on_c, 9, 42, 0
11, 20009, Note_on_c, 9, 36, 55
11, 20010, Note_on_c, 9, 42, 55
11, 20039, Note_on_c, 9, 36, 0
11, 20040, Note_on_c, 9, 42, 0
11, 20069, Note_on_c, 9, 38, 53
11, 20070, Note_on_c, 9, 42, 52
11, 20099, Note_on_c, 9, 38, 0
11, 20100, Note_on_c, 9, 42, 0
11, 20131, Note_on_c, 9, 36, 51
11, 20131, Note_on_c, 9, 42, 55
11, 20161, Note_on_c, 9, 42, 0
11, 20161, Note_on_c, 9, 36, 0
11, 20189, Note_on_c, 9, 42, 54
11, 20219, Note_on_c, 9, 42, 0
11, 20251, Note_on_c, 9, 42, 56
11, 20281, Note_on_c, 9, 42, 0
11, 20309, Note_on_c, 9, 38, 51
11, 20310, Note_on_c, 9, 42, 57
11, 20339, Note_on_c, 9, 38, 0
11, 20340, Note_on_c, 9, 42, 0
11, 20370, Note_on_c, 9, 42, 54
11, 20400, Note_on_c, 9, 42, 0
11, 20430, Note_on_c, 9, 36, 54
11, 20431, Note_on_c, 9, 42, 56
11, 20460, Note_on_c, 9, 36, 0
11, 20461, Note_on_c, 9, 42, 0
11, 20491, Note_on_c, 9, 36, 53
11, 20491, Note_on_c, 9, 42, 54
11, 20521, Note_on_c, 9, 42, 0
11, 20521, Note_on_c, 9, 36, 0
11, 20550, Note_on_c, 9, 38, 56
11, 20550, Note_on_c, 9, 42, 51
11, 20580, Note_on_c, 9, 42, 0
11, 20580, Note_on_c, 9, 38, 0
11, 20610, Note_on_c, 9, 36, 56
11, 20611, Note_on_c, 9, 42, 51
11, 20640, Note_on_c, 9, 36, 0
11, 20641, Note_on_c, 9, 42, 0
11, 20671, Note_on_c, 9, 42, 56
11, 20701, Note_on_c, 9, 42, 0
11, 20730, Note_on_c, 9, 42, 51
11, 20760, Note_on_c, 9, 42, 0
11, 20790, Note_on_c, 9, 38, 56
11, 20790, Note_on_c, 9, 42, 57
11, 20820, Note_on_c, 9, 42, 0
11, 20820, Note_on_c, 9, 38, 0
11, 20850, Note_on_c, 9, 42, 56
11, 20880, Note_on_c, 9, 42, 0
11, 20910, Note_on_c, 9, 36, 56
11, 20911, Note_on_c, 9, 42, 55
11, 20940, Note_on_c, 9, 36, 0
11, 20941, Note_on_c, 9, 42, 0
11, 20969, Note_on_c, 9, 36, 53
11, 20970, Note_on_c, 9, 42, 57
11, 20999, Note_on_c, 9, 36, 0
11, 21000, Note_on_c, 9, 42, 0
11, 21030, Note_on_c, 9, 38, 54
11, 21031, Note_on_c, 9, 42, 57
11, 21060, Note_on_c, 9, 38, 0
11, 21061, Note_on_c, 9, 42, 0
11, 21091, Note_on_c, 9, 36, 52
11, 21092, Note_on_c, 9, 42, 55
11, 21121, Note_on_c, 9, 36, 0
11, 21122, Note_on_c, 9, 42, 0
11, 21151, Note_on_c, 9, 42, 51
11, 21181, Note_on_c, 9, 42, 0
11, 21210, Note_on_c, 9, 42, 55
11, 21240, Note_on_c, 9, 42, 0
11, 21270, Note_on_c, 9, 38, 54
11, 21270, Note_on_c, 9, 42, 53
11, 21300, Note_on_c, 9, 42, 0
11, 21300, Note_on_c, 9, 38, 0
11, 21329, Note_on_c, 9, 42, 52
11, 21359, Note_on_c, 9, 42, 0
11, 21390, Note_on_c, 9, 36, 53
11, 21390, Note_on_c, 9, 42, 54
11, 21420, Note_on_c, 9, 42, 0
11, 21420, Note_on_c, 9, 36, 0
11, 21450, Note_on_c, 9, 36, 51
11, 21450, Note_on_c, 9, 42, 54
11, 21480, Note_on_c, 9, 42, 0
11, 21480, Note_on_c, 9, 36, 0
11, 21510, Note_on_c, 9, 38, 54
11, 21511, Note_on_c, 9, 42, 56
11, 21540, Note_on_c, 9, 38, 0
11, 21541, Note_on_c, 9, 42, 0
11, 21570, Note_on_c, 9, 36, 56
11, 21570, Note_on_c, 9, 49, 57
11, 21600, Note_on_c, 9, 49, 0
11, 21600, Note_on_c, 9, 36, 0
11, 21630, Note_on_c, 9, 42, 51
11, 21660, Note_on_c, 9, 42, 0
11, 21691, Note_on_c, 9, 42, 52
11, 21721, Note_on_c, 9, 42, 0
11, 21751, Note_on_c, 9, 38, 55
11, 21751, Note_on_c, 9, 42, 54
11, 21781, Note_on_c, 9, 42, 0
11, 21781, Note_on_c, 9, 38, 0
11, 21810, Note_on_c, 9, 42, 51
11, 21840, Note_on_c, 9, 42, 0
11, 21871, Note_on_c, 9, 36, 57
11, 21871, Note_on_c, 9, 42, 56
11, 21901, Note_on_c, 9, 42, 0
11, 21901, Note_on_c, 9, 36, 0
11, 21931, Note_on_c, 9, 36, 52
11, 21931, Note_on_c, 9, 42, 55
11, 21961, Note_on_c, 9, 42, 0
11, 21961, Note_on_c, 9, 36, 0
11, 21990, Note_on_c, 9, 38, 56
11, 21991, Note_on_c, 9, 42, 57
11, 22020, Note_on_c, 9, 38, 0
11, 22021, Note_on_c, 9, 42, 0
11, 22050, Note_on_c, 9, 36, 55
11, 22050, Note_on_c, 9, 42, 54
11, 22080, Note_on_c, 9, 42, 0
11, 22080, Note_on_c, 9, 36, 0
11, 22111, Note_on_c, 9, 42, 52
11, 22141, Note_on_c, 9, 42, 0
11, 22170, Note_on_c, 9, 42, 52
11, 22200, Note_on_c, 9, 42, 0
11, 22230, Note_on_c, 9, 38, 51
11, 22230, Note_on_c, 9, 42, 56
11, 22260, Note_on_c, 9, 42, 0
11, 22260, Note_on_c, 9, 38, 0
11, 22290, Note_on_c, 9, 42, 55
11, 22320, Note_on_c, 9, 42, 0
11, 22350, Note_on_c, 9, 36, 53
11, 22351, Note_on_c, 9, 42, 56
11, 22380, Note_on_c, 9, 36, 0
11, 22381, Note_on_c, 9, 42, 0
11, 22411, Note_on_c, 9, 36, 51
11, 22411, Note_on_c, 9, 42, 57
11, 22441, Note_on_c, 9, 42, 0
11, 22441, Note_on_c, 9, 36, 0
11, 22470, Note_on_c, 9, 38, 56
11, 22470, Note_on_c, 9, 42, 51
11, 22500, Note_on_c, 9, 42, 0
11, 22500, Note_on_c, 9, 38, 0
11, 22530, Note_on_c, 9, 36, 54
11, 22530, Note_on_c, 9, 42, 56
11, 22560, Note_on_c, 9, 42, 0
11, 22560, Note_on_c, 9, 36, 0
11, 22590, Note_on_c, 9, 42, 54
11, 22620, Note_on_c, 9, 42, 0
11, 22651, Note_on_c, 9, 42, 57
11, 22681, Note_on_c, 9, 42, 0
11, 22711, Note_on_c, 9, 38, 53
11, 22711, Note_on_c, 9, 42, 53
11, 22741, Note_on_c, 9, 42, 0
11, 22741, Note_on_c, 9, 38, 0
11, 22770, Note_on_c, 9, 42, 51
11, 22800, Note_on_c, 9, 42, 0
11, 22831, Note_on_c, 9, 36, 52
11, 22831, Note_on_c, 9, 42, 52
11, 22861, Note_on_c, 9, 42, 0
11, 22861, Note_on_c, 9, 36, 0
11, 22890, Note_on_c, 9, 36, 56
11, 22890, Note_on_c, 9, 42, 55
11, 22920, Note_on_c, 9, 42, 0
11, 22920, Note_on_c, 9, 36, 0
11, 22950, Note_on_c, 9, 38, 57
11, 22951, Note_on_c, 9, 42, 53
11, 22980, Note_on_c, 9, 38, 0
11, 22981, Note_on_c, 9, 42, 0
11, 23009, Note_on_c, 9, 36, 53
11, 23010, Note_on_c, 9, 42, 54
11, 23039, Note_on_c, 9, 36, 0
11, 23040, Note_on_c, 9, 42, 0
11, 23071, Note_on_c, 9, 42, 54
11, 23101, Note_on_c, 9, 42, 0
11, 23130, Note_on_c, 9, 42, 57
11, 23160, Note_on_c, 9, 42, 0
11, 23189, Note_on_c, 9, 38, 56
11, 23190, Note_on_c, 9, 42, 51
11, 23219, Note_on_c, 9, 38, 0
11, 23220, Note_on_c, 9, 42, 0
11, 23250, Note_on_c, 9, 42, 57
11, 23280, Note_on_c, 9, 42, 0
11, 23310, Note_on_c, 9, 36, 51
11, 23311, Note_on_c, 9, 42, 52
11, 23340, Note_on_c, 9, 36, 0
11, 23341, Note_on_c, 9, 42, 0
11, 23370, Note_on_c, 9, 36, 51
11, 23371, Note_on_c, 9, 42, 52
11, 23400, Note_on_c, 9, 36, 0
11, 23401, Note_on_c, 9, 42, 0
11, 23430, Note_on_c, 9, 38, 56
11, 23431, Note_on_c, 9, 42, 57
11, 23460, Note_on_c, 9, 38, 0
11, 23461, Note_on_c, 9, 42, 0
11, 23490, Note_on_c, 9, 36, 57
11, 23490, Note_on_c, 9, 42, 51
11, 23520, Note_on_c, 9, 42, 0
11, 23520, Note_on_c, 9, 36, 0
11, 23550, Note_on_c, 9, 42, 55
11, 23580, Note_on_c, 9, 42, 0
11, 23610, Note_on_c, 9, 42, 51
11, 23640, Note_on_c, 9, 42, 0
11, 23670, Note_on_c, 9, 38, 53
11, 23670, Note_on_c, 9, 42, 52
11, 23700, Note_on_c, 9, 42, 0
11, 23700, Note_on_c, 9, 38, 0
11, 23731, Note_on_c, 9, 42, 52
11, 23761, Note_on_c, 9, 42, 0
11, 23790, Note_on_c, 9, 36, 56
11, 23790, Note_on_c, 9, 42, 53
11, 23820, Note_on_c, 9, 42, 0
11, 23820, Note_on_c, 9, 36, 0
11, 23850, Note_on_c, 9, 36, 52
11, 23851, Note_on_c, 9, 42, 53
11, 23880, Note_on_c, 9, 36, 0
11, 23881, Note_on_c, 9, 42, 0
11, 23910, Note_on_c, 9, 38, 51
11, 23911, Note_on_c, 9, 42, 51
11, 23940, Note_on_c, 9, 38, 0
11, 23941, Note_on_c, 9, 42, 0
11, 23970, Note_on_c, 9, 36, 55
11, 23971, Note_on_c, 9, 42, 52
11, 24000, Note_on_c, 9, 36, 0
11, 24001, Note_on_c, 9, 42, 0
11, 24029, Note_on_c, 9, 42, 52
11, 24059, Note_on_c, 9, 42, 0
11, 24091, Note_on_c, 9, 42, 51
11, 24121, Note_on_c, 9, 42, 0
11, 24150, Note_on_c, 9, 38, 55
11, 24151, Note_on_c, 9, 42, 55
11, 24180, Note_on_c, 9, 38, 0
11, 24181, Note_on_c, 9, 42, 0
11, 24211, Note_on_c, 9, 42, 57
11, 24241, Note_on_c, 9, 42, 0
11, 24271, Note_on_c, 9, 36, 52
11, 24272, Note_on_c, 9, 42, 54
11, 24301, Note_on_c, 9, 36, 0
11, 24302, Note_on_c, 9, 42, 0
11, 24329, Note_on_c, 9, 36, 56
11, 24329, Note_on_c, 9, 42, 53
11, 24359, Note_on_c, 9, 42, 0
11, 24359, Note_on_c, 9, 36, 0
11, 24391, Note_on_c, 9, 38, 53
11, 24391, Note_on_c, 9, 42, 53
11, 24421, Note_on_c, 9, 42, 0
11, 24421, Note_on_c, 9, 38, 0
11, 24451, Note_on_c, 9, 36, 57
11, 24451, Note_on_c, 9, 42, 55
11, 24481, Note_on_c, 9, 42, 0
11, 24481, Note_on_c, 9, 36, 0
11, 24511, Note_on_c, 9, 42, 51
11, 24541, Note_on_c, 9, 42, 0
11, 24571, Note_on_c, 9, 42, 51
11, 24601, Note_on_c, 9, 42, 0
11, 24630, Note_on_c, 9, 38, 54
11, 24630, Note_on_c, 9, 42, 55
11, 24660, Note_on_c, 9, 42, 0
11, 24660, Note_on_c, 9, 38, 0
11, 24690, Note_on_c, 9, 42, 54
11, 24720, Note_on_c, 9, 42, 0
11, 24750, Note_on_c, 9, 36, 53
11, 24751, Note_on_c, 9, 42, 57
11, 24780, Note_on_c, 9, 36, 0
11, 24781, Note_on_c, 9, 42, 0
11, 24811, Note_on_c, 9, 36, 56
11, 24811, Note_on_c, 9, 42, 56
11, 24841, Note_on_c, 9, 42, 0
11, 24841, Note_on_c, 9, 36, 0
11, 24870, Note_on_c, 9, 38, 51
11, 24870, Note_on_c, 9, 42, 51
11, 24900, Note_on_c, 9, 42, 0
11, 24900, Note_on_c, 9, 38, 0
11, 24930, Note_on_c, 9, 36, 57
11, 24931, Note_on_c, 9, 42, 57
11, 24960, Note_on_c, 9, 36, 0
11, 24961, Note_on_c, 9, 42, 0
11, 24991, Note_on_c, 9, 42, 56
11, 25021, Note_on_c, 9, 42, 0
11, 25051, Note_on_c, 9, 42, 57
11, 25081, Note_on_c, 9, 42, 0
11, 25110, Note_on_c, 9, 38, 55
11, 25110, Note_on_c, 9, 42, 56
11, 25140, Note_on_c, 9, 42, 0
11, 25140, Note_on_c, 9, 38, 0
11, 25169, Note_on_c, 9, 42, 56
11, 25199, Note_on_c, 9, 42, 0
11, 25230, Note_on_c, 9, 36, 55
11, 25230, Note_on_c, 9, 42, 57
11, 25260, Note_on_c, 9, 42, 0
11, 25260, Note_on_c, 9, 36, 0
11, 25291, Note_on_c, 9, 36, 52
11, 25291, Note_on_c, 9, 42, 52
11, 25321, Note_on_c, 9, 42, 0
11, 25321, Note_on_c, 9, 36, 0
11, 25350, Note_on_c, 9, 38, 53
11, 25351, Note_on_c, 9, 42, 54
11, 25380, Note_on_c, 9, 38, 0
11, 25381, Note_on_c, 9, 42, 0
11, 25410, Note_on_c, 9, 36, 54
11, 25411, Note_on_c, 9, 49, 53
11, 25440, Note_on_c, 9, 36, 0
11, 25441, Note_on_c, 9, 49, 0
11, 25471, Note_on_c, 9, 42, 57
11, 25501, Note_on_c, 9, 42, 0
11, 25531, Note_on_c, 9, 42, 55
11, 25561, Note_on_c, 9, 42, 0
11, 25589, Note_on_c, 9, 38, 56
11, 25589, Note_on_c, 9, 42, 51
11, 25619, Note_on_c, 9, 42, 0
11, 25619, Note_on_c, 9, 38, 0
11, 25650, Note_on_c, 9, 42, 57
11, 25680, Note_on_c, 9, 42, 0
11, 25710, Note_on_c, 9, 36, 51
11, 25710, Note_on_c, 9, 42, 57
11, 25740, Note_on_c, 9, 42, 0
11, 25740, Note_on_c, 9, 36, 0
11, 25770, Note_on_c, 9, 36, 57
11, 25771, Note_on_c, 9, 42, 53
11, 25800, Note_on_c, 9, 36, 0
11, 25801, Note_on_c, 9, 42, 0
11, 25831, Note_on_c, 9, 38, 51
11, 25831, Note_on_c, 9, 42, 51
11, 25861, Note_on_c, 9, 42, 0
11, 25861, Note_on_c, 9, 38, 0
11, 25890, Note_on_c, 9, 36, 54
11, 25890, Note_on_c, 9, 42, 52
11, 25920, Note_on_c, 9, 42, 0
11, 25920, Note_on_c, 9, 36, 0
11, 25951, Note_on_c, 9, 42, 56
11, 25981, Note_on_c, 9, 42, 0
11, 26011, Note_on_c, 9, 42, 55
11, 26041, Note_on_c, 9, 42, 0
11, 26070, Note_on_c, 9, 38, 51
11, 26070, Note_on_c, 9, 42, 51
11, 26100, Note_on_c, 9, 42, 0
11, 26100, Note_on_c, 9, 38, 0
11, 26130, Note_on_c, 9, 42, 57
11, 26160, Note_on_c, 9, 42, 0
11, 26190, Note_on_c, 9, 36, 52
11, 26191, Note_on_c, 9, 42, 52
11, 26220, Note_on_c, 9, 36, 0
11, 26221, Note_on_c, 9, 42, 0
11, 26251, Note_on_c, 9, 36, 55
11, 26251, Note_on_c, 9, 42, 56
11, 26281, Note_on_c, 9, 42, 0
11, 26281, Note_on_c, 9, 36, 0
11, 26311, Note_on_c, 9, 38, 52
11, 26311, Note_on_c, 9, 42, 51
11, 26341, Note_on_c, 9, 42, 0
11, 26341, Note_on_c, 9, 38, 0
11, 26370, Note_on_c, 9, 36, 57
11, 26371, Note_on_c, 9, 42, 54
11, 26400, Note_on_c, 9, 36, 0
11, 26401, Note_on_c, 9, 42, 0
11, 26431, Note_on_c, 9, 42, 51
11, 26461, Note_on_c, 9, 42, 0
11, 26490, Note_on_c, 9, 42, 51
11, 26520, Note_on_c, 9, 42, 0
11, 26550, Note_on_c, 9, 38, 56
11, 26551, Note_on_c, 9, 42, 53
11, 26580, Note_on_c, 9, 38, 0
11, 26581, Note_on_c, 9, 42, 0
11, 26610, Note_on_c, 9, 42, 54
11, 26640, Note_on_c, 9, 42, 0
11, 26671, Note_on_c, 9, 36, 52
11, 26671, Note_on_c, 9, 42, 54
11, 26701, Note_on_c, 9, 42, 0
11, 26701, Note_on_c, 9, 36, 0
11, 26730, Note_on_c, 9, 36, 55
11, 26730, Note_on_c, 9, 42, 55
11, 26760, Note_on_c, 9, 42, 0
11, 26760, Note_on_c, 9, 36, 0
11, 26791, Note_on_c, 9, 38, 55
11, 26791, Note_on_c, 9, 42, 55
11, 26821, Note_on_c, 9, 42, 0
11, 26821, Note_on_c, 9, 38, 0
11, 26850, Note_on_c, 9, 36, 51
11, 26850, Note_on_c, 9, 42, 52
11, 26880, Note_on_c, 9, 42, 0
11, 26880, Note_on_c, 9, 36, 0
11, 26911, Note_on_c, 9, 42, 51
11, 26941, Note_on_c, 9, 42, 0
11, 26971, Note_on_c, 9, 42, 56
11, 27001, Note_on_c, 9, 42, 0
11, 27030, Note_on_c, 9, 38, 57
11, 27030, Note_on_c, 9, 42, 57
11, 27060, Note_on_c, 9, 42, 0
11, 27060, Note_on_c, 9, 38, 0
11, 27091, Note_on_c, 9, 42, 51
11, 27121, Note_on_c, 9, 42, 0
11, 27151, Note_on_c, 9, 36, 54
11, 27152, Note_on_c, 9, 42, 56
11, 27181, Note_on_c, 9, 36, 0
11, 27182, Note_on_c, 9, 42, 0
11, 27210, Note_on_c, 9, 36, 52
11, 27210, Note_on_c, 9, 42, 52
11, 27240, Note_on_c, 9, 42, 0
11, 27240, Note_on_c, 9, 36, 0
11, 27270, Note_on_c, 9, 38, 51
11, 27271, Note_on_c, 9, 42, 51
11, 27300, Note_on_c, 9, 38, 0
11, 27301, Note_on_c, 9, 42, 0
11, 27330, Note_on_c, 9, 36, 54
11, 27330, Note_on_c, 9, 42, 56
11, 27360, Note_on_c, 9, 42, 0
11, 27360, Note_on_c, 9, 36, 0
11, 27391, Note_on_c, 9, 42, 56
11, 27421, Note_on_c, 9, 42, 0
11, 27450, Note_on_c, 9, 42, 51
11, 27480, Note_on_c, 9, 42, 0
11, 27510, Note_on_c, 9, 38, 54
11, 27511, Note_on_c, 9, 42, 54
11, 27540, Note_on_c, 9, 38, 0
11, 27541, Note_on_c, 9, 42, 0
11, 27569, Note_on_c, 9, 42, 52
11, 27599, Note_on_c, 9, 42, 0
11, 27631, Note_on_c, 9, 36, 57
11, 27631, Note_on_c, 9, 42, 51
11, 27661, Note_on_c, 9, 42, 0
11, 27661, Note_on_c, 9, 36, 0
11, 27690, Note_on_c, 9, 36, 54
11, 27690, Note_on_c, 9, 42, 57
11, 27720, Note_on_c, 9, 42, 0
11, 27720, Note_on_c, 9, 36, 0
11, 27751, Note_on_c, 9, 38, 56
11, 27751, Note_on_c, 9, 42, 51
11, 27781, Note_on_c, 9, 42, 0
11, 27781, Note_on_c, 9, 38, 0
11, 27811, Note_on_c, 9, 36, 53
11, 27811, Note_on_c, 9, 42, 51
11, 27841, Note_on_c, 9, 42, 0
11, 27841, Note_on_c, 9, 36, 0
11, 27871, Note_on_c, 9, 42, 55
11, 27901, Note_on_c, 9, 42, 0
11, 27931, Note_on_c, 9, 42, 51
11, 27961, Note_on_c, 9, 42, 0
11, 27991, Note_on_c, 9, 38, 52
11, 27991, Note_on_c, 9, 42, 56
11, 28021, Note_on_c, 9, 42, 0
11, 28021, Note_on_c, 9, 38, 0
11, 28051, Note_on_c, 9, 42, 57
11, 28081, Note_on_c, 9, 42, 0
11, 28110, Note_on_c, 9, 36, 57
11, 28110, Note_on_c, 9, 42, 51
11, 28140, Note_on_c, 9, 42, 0
11, 28140, Note_on_c, 9, 36, 0
11, 28170, Note_on_c, 9, 36, 54
11, 28171, Note_on_c, 9, 42, 57
11, 28200, Note_on_c, 9, 36, 0
11, 28201, Note_on_c, 9, 42, 0
11, 28230, Note_on_c, 9, 38, 51
11, 28231, Note_on_c, 9, 42, 51
11, 28260, Note_on_c, 9, 38, 0
11, 28261, Note_on_c, 9, 42, 0
11, 28291, Note_on_c, 9, 36, 51
11, 28292, Note_on_c, 9, 42, 53
11, 28321, Note_on_c, 9, 36, 0
11, 28322, Note_on_c, 9, 42, 0
11, 28351, Note_on_c, 9, 42, 57
11, 28381, Note_on_c, 9, 42, 0
11, 28411, Note_on_c, 9, 42, 52
11, 28441, Note_on_c, 9, 42, 0
11, 28469, Note_on_c, 9, 38, 52
11, 28469, Note_on_c, 9, 42, 53
11, 28499, Note_on_c, 9, 42, 0
11, 28499, Note_on_c, 9, 38, 0
11, 28530, Note_on_c, 9, 42, 55
11, 28560, Note_on_c, 9, 42, 0
11, 28590, Note_on_c, 9, 36, 54
11, 28591, Note_on_c, 9, 42, 55
11, 28620, Note_on_c, 9, 36, 0
11, 28621, Note_on_c, 9, 42, 0
11, 28651, Note_on_c, 9, 36, 53
11, 28651, Note_on_c, 9, 42, 52
11, 28681, Note_on_c, 9, 42, 0
11, 28681, Note_on_c, 9, 36, 0
11, 28711, Note_on_c, 9, 38, 56
11, 28711, Note_on_c, 9, 42, 57
11, 28741, Note_on_c, 9, 42, 0
11, 28741, Note_on_c, 9, 38, 0
11, 28770, Note_on_c, 9, 36, 55
11, 28771, Note_on_c, 9, 42, 51
11, 28800, Note_on_c, 9, 36, 0
11, 28801, Note_on_c, 9, 42, 0
11, 28831, Note_on_c, 9, 42, 54
11, 28861, Note_on_c, 9, 42, 0
11, 28890, Note_on_c, 9, 42, 52
11, 28920, Note_on_c, 9, 42, 0
11, 28950, Note_on_c, 9, 38, 54
11, 28951, Note_on_c, 9, 42, 54
11, 28980, Note_on_c, 9, 38, 0
11, 28981, Note_on_c, 9, 42, 0
11, 29010, Note_on_c, 9, 42, 54
11, 29040, Note_on_c, 9, 42, 0
11, 29070, Note_on_c, 9, 36, 56
11, 29071, Note_on_c, 9, 42, 51
11, 29100, Note_on_c, 9, 36, 0
11, 29101, Note_on_c, 9, 42, 0
11, 29130, Note_on_c, 9, 36, 56
11, 29130, Note_on_c, 9, 42, 57
11, 29160, Note_on_c, 9, 42, 0
11, 29160, Note_on_c, 9, 36, 0
11, 29190, Note_on_c, 9, 38, 56
11, 29190, Note_on_c, 9, 42, 56
11, 29220, Note_on_c, 9, 42, 0
11, 29220, Note_on_c, 9, 38, 0
11, 29250, Note_on_c, 9, 36, 55
11, 29251, Note_on_c, 9, 42, 57
11, 29280, Note_on_c, 9, 36, 0
11, 29281, Note_on_c, 9, 42, 0
11, 29311, Note_on_c, 9, 42, 51
11, 29341, Note_on_c, 9, 42, 0
11, 29370, Note_on_c, 9, 42, 56
11, 29400, Note_on_c, 9, 42, 0
11, 29431, Note_on_c, 9, 38, 55
11, 29431, Note_on_c, 9, 42, 54
11, 29461, Note_on_c, 9, 42, 0
11, 29461, Note_on_c, 9, 38, 0
11, 29490, Note_on_c, 9, 42, 52
11, 29520, Note_on_c, 9, 42, 0
11, 29551, Note_on_c, 9, 36, 56
11, 29552, Note_on_c, 9, 42, 51
11, 29581, Note_on_c, 9, 36, 0
11, 29582, Note_on_c, 9, 42, 0
11, 29610, Note_on_c, 9, 36, 51
11, 29611, Note_on_c, 9, 42, 55
11, 29640, Note_on_c, 9, 36, 0
11, 29641, Note_on_c, 9, 42, 0
11, 29670, Note_on_c, 9, 38, 57
11, 29671, Note_on_c, 9, 42, 53
11, 29700, Note_on_c, 9, 38, 0
11, 29701, Note_on_c, 9, 42, 0
11, 29730, Note_on_c, 9, 36, 55
11, 29731, Note_on_c, 9, 42, 57
11, 29760, Note_on_c, 9, 36, 0
11, 29761, Note_on_c, 9, 42, 0
11, 29791, Note_on_c, 9, 42, 54
11, 29821, Note_on_c, 9, 42, 0
11, 29850, Note_on_c, 9, 42, 56
11, 29880, Note_on_c, 9, 42, 0
11, 29910, Note_on_c, 9, 38, 52
11, 29910, Note_on_c, 9, 42, 54
11, 29940, Note_on_c, 9, 42, 0
11, 29940, Note_on_c, 9, 38, 0
11, 29970, Note_on_c, 9, 42, 55
11, 30000, Note_on_c, 9, 42, 0
11, 30031, Note_on_c, 9, 36, 54
11, 30032, Note_on_c, 9, 42, 54
11, 30061, Note_on_c, 9, 36, 0
11, 30062, Note_on_c, 9, 42, 0
11, 30091, Note_on_c, 9, 36, 56
11, 30091, Note_on_c, 9, 42, 51
11, 30121, Note_on_c, 9, 42, 0
11, 30121, Note_on_c, 9, 36, 0
11, 30151, Note_on_c, 9, 38, 56
11, 30151, Note_on_c, 9, 42, 53
11, 30181, Note_on_c, 9, 42, 0
11, 30181, Note_on_c, 9, 38, 0
11, 30211, Note_on_c, 9, 36, 55
11, 30212, Note_on_c, 9, 42, 56
11, 30241, Note_on_c, 9, 36, 0
11, 30242, Note_on_c, 9, 42, 0
11, 30271, Note_on_c, 9, 42, 56
11, 30301, Note_on_c, 9, 42, 0
11, 30331, Note_on_c, 9, 42, 51
11, 30361, Note_on_c, 9, 42, 0
11, 30389, Note_on_c, 9, 38, 53
11, 30390, Note_on_c, 9, 42, 56
11, 30419, Note_on_c, 9, 38, 0
11, 30420, Note_on_c, 9, 42, 0
11, 30450, Note_on_c, 9, 42, 55
11, 30480, Note_on_c, 9, 42, 0
11, 30510, Note_on_c, 9, 36, 52
11, 30511, Note_on_c, 9, 42, 51
11, 30540, Note_on_c, 9, 36, 0
11, 30541, Note_on_c, 9, 42, 0
11, 30571, Note_on_c, 9, 36, 54
11, 30571, Note_on_c, 9, 42, 51
11, 30601, Note_on_c, 9, 42, 0
11, 30601, Note_on_c, 9, 36, 0
11, 30631, Note_on_c, 9, 38, 54
11, 30632, Note_on_c, 9, 42, 54
11, 30661, Note_on_c, 9, 38, 0
11, 30662, Note_on_c, 9, 42, 0
11, 30691, Note_on_c, 9, 36, 54
11, 30692, Note_on_c, 9, 42, 57
11, 30721, Note_on_c, 9, 36, 0
11, 30722, Note_on_c, 9, 42, 0
11, 30751, Note_on_c, 9, 42, 56
11, 30781, Note_on_c, 9, 42, 0
11, 30811, Note_on_c, 9, 42, 51
11, 30841, Note_on_c, 9, 42, 0
11, 30871, Note_on_c, 9, 38, 53
11, 30871, Note_on_c, 9, 42, 54
11, 30901, Note_on_c, 9, 42, 0
11, 30901, Note_on_c, 9, 38, 0
11, 30931, Note_on_c, 9, 42, 51
11, 30961, Note_on_c, 9, 42, 0
11, 30991, Note_on_c, 9, 36, 57
11, 30991, Note_on_c, 9, 42, 54
11, 31021, Note_on_c, 9, 42, 0
11, 31021, Note_on_c, 9, 36, 0
11, 31049, Note_on_c, 9, 36, 55
11, 31050, Note_on_c, 9, 42, 54
11, 31079, Note_on_c, 9, 36, 0
11, 31080, Note_on_c, 9, 42, 0
11, 31109, Note_on_c, 9, 38, 52
11, 31109, Note_on_c, 9, 42, 54
11, 31139, Note_on_c, 9, 42, 0
11, 31139, Note_on_c, 9, 38, 0
11, 31171, Note_on_c, 9, 36, 57
11, 31171, Note_on_c, 9, 42, 52
11, 31201, Note_on_c, 9, 42, 0
11, 31201, Note_on_c, 9, 36, 0
11, 31231, Note_on_c, 9, 42, 55
11, 31261, Note_on_c, 9, 42, 0
11, 31291, Note_on_c, 9, 42, 55
11, 31321, Note_on_c, 9, 42, 0
11, 31351, Note_on_c, 9, 38, 52
11, 31351, Note_on_c, 9, 42, 53
11, 31381, Note_on_c, 9, 42, 0
11, 31381, Note_on_c, 9, 38, 0
11, 31410, Note_on_c, 9, 42, 55
11, 31440, Note_on_c, 9, 42, 0
11, 31471, Note_on_c, 9, 36, 53
11, 31471, Note_on_c, 9, 42, 54
11, 31501, Note_on_c, 9, 42, 0
11, 31501, Note_on_c, 9, 36, 0
11, 31531, Note_on_c, 9, 36, 56
11, 31531, Note_on_c, 9, 42, 57
11, 31561, Note_on_c, 9, 42, 0
11, 31561, Note_on_c, 9, 36, 0
11, 31590, Note_on_c, 9, 38, 52
11, 31590, Note_on_c, 9, 42, 55
11, 31620, Note_on_c, 9, 42, 0
11, 31620, Note_on_c, 9, 38, 0
11, 31650, Note_on_c, 9, 36, 56
11, 31651, Note_on_c, 9, 42, 57
11, 31680, Note_on_c, 9, 36, 0
11, 31681, Note_on_c, 9, 42, 0
11, 31711, Note_on_c, 9, 42, 56
11, 31741, Note_on_c, 9, 42, 0
11, 31771, Note_on_c, 9, 42, 54
11, 31801, Note_on_c, 9, 42, 0
11, 31831, Note_on_c, 9, 38, 52
11, 31831, Note_on_c, 9, 42, 55
11, 31861, Note_on_c, 9, 42, 0
11, 31861, Note_on_c, 9, 38, 0
11, 31889, Note_on_c, 9, 42, 54
11, 31919, Note_on_c, 9, 42, 0
11, 31950, Note_on_c, 9, 36, 55
11, 31951, Note_on_c, 9, 42, 53
11, 31980, Note_on_c, 9, 36, 0
11, 31981, Note_on_c, 9, 42, 0
11, 32010, Note_on_c, 9, 36, 53
11, 32011, Note_on_c, 9, 42, 51
11, 32040, Note_on_c, 9, 36, 0
11, 32041, Note_on_c, 9, 42, 0
11, 32070, Note_on_c, 9, 38, 51
11, 32070, Note_on_c, 9, 42, 57
11, 32100, Note_on_c, 9, 42, 0
11, 32100, Note_on_c, 9, 38, 0
11, 32131, Note_on_c, 9, 36, 54
11, 32131, Note_on_c, 9, 42, 57
11, 32161, Note_on_c, 9, 42, 0
11, 32161, Note_on_c, 9, 36, 0
11, 32190, Note_on_c, 9, 42, 53
11, 32220, Note_on_c, 9, 42, 0
11, 32250, Note_on_c, 9, 42, 56
11, 32280, Note_on_c, 9, 42, 0
11, 32310, Note_on_c, 9, 38, 57
11, 32310, Note_on_c, 9, 42, 57
11, 32340, Note_on_c, 9, 42, 0
11, 32340, Note_on_c, 9, 38, 0
11, 32370, Note_on_c, 9, 42, 57
11, 32400, Note_on_c, 9, 42, 0
11, 32431, Note_on_c, 9, 36, 57
11, 32432, Note_on_c, 9, 42, 53
11, 32461, Note_on_c, 9, 36, 0
11, 32462, Note_on_c, 9, 42, 0
11, 32490, Note_on_c, 9, 36, 54
11, 32491, Note_on_c, 9, 42, 53
11, 32520, Note_on_c, 9, 36, 0
11, 32521, Note_on_c, 9, 42, 0
11, 32551, Note_on_c, 9, 38, 52
11, 32552, Note_on_c, 9, 42, 55
11, 32581, Note_on_c, 9, 38, 0
11, 32582, Note_on_c, 9, 42, 0
11, 32611, Note_on_c, 9, 36, 53
11, 32612, Note_on_c, 9, 42, 52
11, 32641, Note_on_c, 9, 36, 0
11, 32642, Note_on_c, 9, 42, 0
11, 32670, Note_on_c, 9, 42, 57
11, 32700, Note_on_c, 9, 42, 0
11, 32731, Note_on_c, 9, 42, 56
11, 32761, Note_on_c, 9, 42, 0
11, 32790, Note_on_c, 9, 38, 52
11, 32790, Note_on_c, 9, 42, 52
11, 32820, Note_on_c, 9, 42, 0
11, 32820, Note_on_c, 9, 38, 0
11, 32850, Note_on_c, 9, 42, 52
11, 32880, Note_on_c, 9, 42, 0
11, 32911, Note_on_c, 9, 36, 55
11, 32911, Note_on_c, 9, 42, 55
11, 32941, Note_on_c, 9, 42, 0
11, 32941, Note_on_c, 9, 36, 0
11, 32970, Note_on_c, 9, 36, 54
11, 32971, Note_on_c, 9, 42, 54
11, 33000, Note_on_c, 9, 36, 0
11, 33001, Note_on_c, 9, 42, 0
11, 33031, Note_on_c, 9, 38, 53
11, 33031, Note_on_c, 9, 42, 57
11, 33061, Note_on_c, 9, 42, 0
11, 33061, Note_on_c, 9, 38, 0
11, 33090, Note_on_c, 9, 36, 55
11, 33090, Note_on_c, 9, 42, 54
11, 33120, Note_on_c, 9, 42, 0
11, 33120, Note_on_c, 9, 36, 0
11, 33151, Note_on_c, 9, 42, 51
11, 33181, Note_on_c, 9, 42, 0
11, 33210, Note_on_c, 9, 42, 57
11, 33240, Note_on_c, 9, 42, 0
11, 33270, Note_on_c, 9, 38, 51
11, 33270, Note_on_c, 9, 42, 55
11, 33300, Note_on_c, 9, 42, 0
11, 33300, Note_on_c, 9, 38, 0
11, 33330, Note_on_c, 9, 42, 57
11, 33360, Note_on_c, 9, 42, 0
11, 33390, Note_on_c, 9, 36, 55
11, 33391, Note_on_c, 9, 42, 52
11, 33420, Note_on_c, 9, 36, 0
11, 33421, Note_on_c, 9, 42, 0
11, 33451, Note_on_c, 9, 36, 53
11, 33451, Note_on_c, 9, 42, 53
11, 33481, Note_on_c, 9, 42, 0
11, 33481, Note_on_c, 9, 36, 0
11, 33511, Note_on_c, 9, 38, 52
11, 33511, Note_on_c, 9, 42, 55
11, 33541, Note_on_c, 9, 42, 0
11, 33541, Note_on_c, 9, 38, 0
11, 33571, Note_on_c, 9, 36, 53
11, 33572, Note_on_c, 9, 42, 55
11, 33601, Note_on_c, 9, 36, 0
11, 33602, Note_on_c, 9, 42, 0
11, 33631, Note_on_c, 9, 42, 54
11, 33661, Note_on_c, 9, 42, 0
11, 33689, Note_on_c, 9, 42, 53
11, 33719, Note_on_c, 9, 42, 0
11, 33750, Note_on_c, 9, 38, 53
11, 33750, Note_on_c, 9, 42, 51
11, 33780, Note_on_c, 9, 42, 0
11, 33780, Note_on_c, 9, 38, 0
11, 33809, Note_on_c, 9, 42, 53
11, 33839, Note_on_c, 9, 42, 0
11, 33870, Note_on_c, 9, 36, 57
11, 33870, Note_on_c, 9, 42, 55
11, 33900, Note_on_c, 9, 42, 0
11, 33900, Note_on_c, 9, 36, 0
11, 33930, Note_on_c, 9, 36, 53
11, 33930, Note_on_c, 9, 42, 52
11, 33960, Note_on_c, 9, 42, 0
11, 33960, Note_on_c, 9, 36, 0
11, 33991, Note_on_c, 9, 38, 56
11, 33991, Note_on_c, 9, 42, 53
11, 34021, Note_on_c, 9, 42, 0
11, 34021, Note_on_c, 9, 38, 0
11, 34051, Note_on_c, 9, 36, 52
11, 34052, Note_on_c, 9, 42, 53
11, 34081, Note_on_c, 9, 36, 0
11, 34082, Note_on_c, 9, 42, 0
11, 34110, Note_on_c, 9, 42, 54
11, 34140, Note_on_c, 9, 42, 0
11, 34171, Note_on_c, 9, 42, 55
11, 34201, Note_on_c, 9, 42, 0
11, 34230, Note_on_c, 9, 38, 56
11, 34231, Note_on_c, 9, 42, 57
11, 34260, Note_on_c, 9, 38, 0
11, 34261, Note_on_c, 9, 42, 0
11, 34291, Note_on_c, 9, 42, 51
11, 34321, Note_on_c, 9, 42, 0
11, 34351, Note_on_c, 9, 36, 52
11, 34351, Note_on_c, 9, 42, 54
11, 34381, Note_on_c, 9, 42, 0
11, 34381, Note_on_c, 9, 36, 0
11, 34410, Note_on_c, 9, 36, 54
11, 34410, Note_on_c, 9, 42, 57
11, 34440, Note_on_c, 9, 42, 0
11, 34440, Note_on_c, 9, 36, 0
11, 34470, Note_on_c, 9, 38, 52
11, 34470, Note_on_c, 9, 42, 55
11, 34500, Note_on_c, 9, 42, 0
11, 34500, Note_on_c, 9, 38, 0
11, 34530, Note_on_c, 9, 36, 54
11, 34530, Note_on_c, 9, 42, 55
11, 34560, Note_on_c, 9, 42, 0
11, 34560, Note_on_c, 9, 36, 0
11, 34591, Note_on_c, 9, 42, 52
11, 34621, Note_on_c, 9, 42, 0
11, 34651, Note_on_c, 9, 42, 57
11, 34681, Note_on_c, 9, 42, 0
11, 34710, Note_on_c, 9, 38, 52
11, 34711, Note_on_c, 9, 42, 54
11, 34740, Note_on_c, 9, 38, 0
11, 34741, Note_on_c, 9, 42, 0
11, 34770, Note_on_c, 9, 42, 53
11, 34800, Note_on_c, 9, 42, 0
11, 34831, Note_on_c, 9, 36, 52
11, 34831, Note_on_c, 9, 42, 57
11, 34861, Note_on_c, 9, 42, 0
11, 34861, Note_on_c, 9, 36, 0
11, 34891, Note_on_c, 9, 36, 51
11, 34891, Note_on_c, 9, 42, 55
11, 34921, Note_on_c, 9, 42, 0
11, 34921, Note_on_c, 9, 36, 0
11, 34950, Note_on_c, 9, 38, 52
11, 34950, Note_on_c, 9, 42, 52
11, 34980, Note_on_c, 9, 42, 0
11, 34980, Note_on_c, 9, 38, 0
11, 35011, Note_on_c, 9, 36, 53
11, 35012, Note_on_c, 9, 42, 51
11, 35041, Note_on_c, 9, 36, 0
11, 35042, Note_on_c, 9, 42, 0
11, 35071, Note_on_c, 9, 42, 53
11, 35101, Note_on_c, 9, 42, 0
11, 35130, Note_on_c, 9, 42, 52
11, 35160, Note_on_c, 9, 42, 0
11, 35190, Note_on_c, 9, 38, 57
11, 35190, Note_on_c, 9, 42, 54
11, 35220, Note_on_c, 9, 42, 0
11, 35220, Note_on_c, 9, 38, 0
11, 35250, Note_on_c, 9, 42, 52
11, 35280, Note_on_c, 9, 42, 0
11, 35311, Note_on_c, 9, 36, 52
11, 35311, Note_on_c, 9, 42, 52
11, 35341, Note_on_c, 9, 42, 0
11, 35341, Note_on_c, 9, 36, 0
11, 35370, Note_on_c, 9, 36, 51
11, 35371, Note_on_c, 9, 42, 57
11, 35400, Note_on_c, 9, 36, 0
11, 35401, Note_on_c, 9, 42, 0
11, 35431, Note_on_c, 9, 38, 54
11, 35432, Note_on_c, 9, 42, 55
11, 35461, Note_on_c, 9, 38, 0
11, 35462, Note_on_c, 9, 42, 0
11, 35490, Note_on_c, 9, 36, 55
11, 35490, Note_on_c, 9, 42, 54
11, 35520, Note_on_c, 9, 42, 0
11, 35520, Note_on_c, 9, 36, 0
11, 35550, Note_on_c, 9, 42, 57
11, 35580, Note_on_c, 9, 42, 0
11, 35610, Note_on_c, 9, 42, 57
11, 35640, Note_on_c, 9, 42, 0
11, 35670, Note_on_c, 9, 38, 54
11, 35670, Note_on_c, 9, 42, 55
11, 35700, Note_on_c, 9, 42, 0
11, 35700, Note_on_c, 9, 38, 0
11, 35731, Note_on_c, 9, 42, 53
11, 35761, Note_on_c, 9, 42, 0
11, 35791, Note_on_c, 9, 36, 53
11, 35791, Note_on_c, 9, 42, 55
11, 35821, Note_on_c, 9, 42, 0
11, 35821, Note_on_c, 9, 36, 0
11, 35850, Note_on_c, 9, 36, 53
11, 35850, Note_on_c, 9, 42, 56
11, 35880, Note_on_c, 9, 42, 0
11, 35880, Note_on_c, 9, 36, 0
11, 35909, Note_on_c, 9, 38, 51
11, 35910, Note_on_c, 9, 42, 57
11, 35939, Note_on_c, 9, 38, 0
11, 35940, Note_on_c, 9, 42, 0
11, 35971, Note_on_c, 9, 36, 52
11, 35972, Note_on_c, 9, 42, 52
11, 36001, Note_on_c, 9, 36, 0
11, 36002, Note_on_c, 9, 42, 0
11, 36030, Note_on_c, 9, 42, 57
11, 36060, Note_on_c, 9, 42, 0
11, 36090, Note_on_c, 9, 42, 51
11, 36120, Note_on_c, 9, 42, 0
11, 36151, Note_on_c, 9, 38, 56
11, 36151, Note_on_c, 9, 42, 57
11, 36181, Note_on_c, 9, 42, 0
11, 36181, Note_on_c, 9, 38, 0
11, 36210, Note_on_c, 9, 42, 57
11, 36240, Note_on_c, 9, 42, 0
11, 36270, Note_on_c, 9, 36, 53
11, 36271, Note_on_c, 9, 42, 51
11, 36300, Note_on_c, 9, 36, 0
11, 36301, Note_on_c, 9, 42, 0
11, 36330, Note_on_c, 9, 36, 51
11, 36331, Note_on_c, 9, 42, 51
11, 36360, Note_on_c, 9, 36, 0
11, 36361, Note_on_c, 9, 42, 0
11, 36390, Note_on_c, 9, 38, 56
11, 36391, Note_on_c, 9, 42, 57
11, 36420, Note_on_c, 9, 38, 0
11, 36421, Note_on_c, 9, 42, 0
11, 36450, Note_on_c, 9, 36, 53
11, 36450, Note_on_c, 9, 42, 52
11, 36480, Note_on_c, 9, 42, 0
11, 36480, Note_on_c, 9, 36, 0
11, 36510, Note_on_c, 9, 42, 56
11, 36540, Note_on_c, 9, 42, 0
11, 36571, Note_on_c, 9, 42, 55
11, 36601, Note_on_c, 9, 42, 0
11, 36630, Note_on_c, 9, 38, 57
11, 36630, Note_on_c, 9, 42, 56
11, 36660, Note_on_c, 9, 42, 0
11, 36660, Note_on_c, 9, 38, 0
11, 36690, Note_on_c, 9, 42, 51
11, 36720, Note_on_c, 9, 42, 0
11, 36751, Note_on_c, 9, 36, 57
11, 36751, Note_on_c, 9, 42, 53
11, 36781, Note_on_c, 9, 42, 0
11, 36781, Note_on_c, 9, 36, 0
11, 36809, Note_on_c, 9, 36, 56
11, 36810, Note_on_c, 9, 42, 51
11, 36839, Note_on_c, 9, 36, 0
11, 36840, Note_on_c, 9, 42, 0
11, 36871, Note_on_c, 9, 38, 56
11, 36872, Note_on_c, 9, 42, 52
11, 36901, Note_on_c, 9, 38, 0
11, 36902, Note_on_c, 9, 42, 0
11, 36931, Note_on_c, 9, 36, 56
11, 36931, Note_on_c, 9, 42, 55
11, 36961, Note_on_c, 9, 42, 0
11, 36961, Note_on_c, 9, 36, 0
11, 36991, Note_on_c, 9, 42, 52
11, 37021, Note_on_c, 9, 42, 0
11, 37050, Note_on_c, 9, 42, 52
11, 37080, Note_on_c, 9, 42, 0
11, 37110, Note_on_c, 9, 38, 51
11, 37111, Note_on_c, 9, 42, 57
11, 37140, Note_on_c, 9, 38, 0
11, 37141, Note_on_c, 9, 42, 0
11, 37170, Note_on_c, 9, 42, 55
11, 37200, Note_on_c, 9, 42, 0
11, 37230, Note_on_c, 9, 36, 57
11, 37231, Note_on_c, 9, 42, 54
11, 37260, Note_on_c, 9, 36, 0
11, 37261, Note_on_c, 9, 42, 0
11, 37289, Note_on_c, 9, 36, 51
11, 37290, Note_on_c, 9, 42, 53
11, 37319, Note_on_c, 9, 36, 0
11, 37320, Note_on_c, 9, 42, 0
11, 37350, Note_on_c, 9, 38, 55
11, 37350, Note_on_c, 9, 42, 57
11, 37380, Note_on_c, 9, 42, 0
11, 37380, Note_on_c, 9, 38, 0
11, 37409, Note_on_c, 9, 36, 52
11, 37410, Note_on_c, 9, 42, 55
11, 37439, Note_on_c, 9, 36, 0
11, 37440, Note_on_c, 9, 42, 0
11, 37470, Note_on_c, 9, 42, 57
11, 37500, Note_on_c, 9, 42, 0
11, 37530, Note_on_c, 9, 42, 56
11, 37560, Note_on_c, 9, 42, 0
11, 37590, Note_on_c, 9, 38, 53
11, 37591, Note_on_c, 9, 42, 57
11, 37620, Note_on_c, 9, 38, 0
11, 37621, Note_on_c, 9, 42, 0
11, 37650, Note_on_c, 9, 42, 53
11, 37680, Note_on_c, 9, 42, 0
11, 37709, Note_on_c, 9, 36, 51
11, 37709, Note_on_c, 9, 42, 52
11, 37739, Note_on_c, 9, 42, 0
11, 37739, Note_on_c, 9, 36, 0
11, 37770, Note_on_c, 9, 36, 57
11, 37771, Note_on_c, 9, 42, 54
11, 37800, Note_on_c, 9, 36, 0
11, 37801, Note_on_c, 9, 42, 0
11, 37831, Note_on_c, 9, 38, 51
11, 37831, Note_on_c, 9, 42, 51
11, 37861, Note_on_c, 9, 42, 0
11, 37861, Note_on_c, 9, 38, 0
11, 37891, Note_on_c, 9, 36, 52
11, 37892, Note_on_c, 9, 42, 54
11, 37921, Note_on_c, 9, 36, 0
11, 37922, Note_on_c, 9, 42, 0
11, 37951, Note_on_c, 9, 42, 53
11, 37981, Note_on_c, 9, 42, 0
11, 38010, Note_on_c, 9, 42, 51
11, 38040, Note_on_c, 9, 42, 0
11, 38070, Note_on_c, 9, 38, 53
11, 38070, Note_on_c, 9, 42, 54
11, 38100, Note_on_c, 9, 42, 0
11, 38100, Note_on_c, 9, 38, 0
11, 38130, Note_on_c, 9, 42, 55
11, 38160, Note_on_c, 9, 42, 0
11, 38191, Note_on_c, 9, 36, 53
11, 38191, Note_on_c, 9, 42, 52
11, 38221, Note_on_c, 9, 42, 0
11, 38221, Note_on_c, 9, 36, 0
11, 38250, Note_on_c, 9, 36, 53
11, 38250, Note_on_c, 9, 42, 51
11, 38280, Note_on_c, 9, 42, 0
11, 38280, Note_on_c, 9, 36, 0
11, 38310, Note_on_c, 9, 38, 57
11, 38310, Note_on_c, 9, 42, 54
11, 38340, Note_on_c, 9, 42, 0
11, 38340, Note_on_c, 9, 38, 0
11, 38371, Note_on_c, 9, 36, 53
11, 38371, Note_on_c, 9, 42, 56
11, 38401, Note_on_c, 9, 42, 0
11, 38401, Note_on_c, 9, 36, 0
11, 38430, Note_on_c, 9, 42, 55
11, 38460, Note_on_c, 9, 42, 0
11, 38490, Note_on_c, 9, 42, 55
11, 38520, Note_on_c, 9, 42, 0
11, 38550, Note_on_c, 9, 38, 57
11, 38551, Note_on_c, 9, 42, 53
11, 38580, Note_on_c, 9, 38, 0
11, 38581, Note_on_c, 9, 42, 0
11, 38609, Note_on_c, 9, 42, 55
11, 38639, Note_on_c, 9, 42, 0
11, 38671, Note_on_c, 9, 36, 57
11, 38671, Note_on_c, 9, 42, 56
11, 38701, Note_on_c, 9, 42, 0
11, 38701, Note_on_c, 9, 36, 0
11, 38730, Note_on_c, 9, 36, 52
11, 38731, Note_on_c, 9, 42, 52
11, 38760, Note_on_c, 9, 36, 0
11, 38761, Note_on_c, 9, 42, 0
11, 38790, Note_on_c, 9, 38, 56
11, 38790, Note_on_c, 9, 42, 52
11, 38820, Note_on_c, 9, 42, 0
11, 38820, Note_on_c, 9, 38, 0
11, 38851, Note_on_c, 9, 36, 53
11, 38851, Note_on_c, 9, 42, 54
11, 38881, Note_on_c, 9, 42, 0
11, 38881, Note_on_c, 9, 36, 0
11, 38910, Note_on_c, 9, 42, 53
11, 38940, Note_on_c, 9, 42, 0
11, 38971, Note_on_c, 9, 42, 54
11, 39001, Note_on_c, 9, 42, 0
11, 39030, Note_on_c, 9, 38, 51
11, 39031, Note_on_c, 9, 42, 57
11, 39060, Note_on_c, 9, 38, 0
11, 39061, Note_on_c, 9, 42, 0
11, 39090, Note_on_c, 9, 42, 54
11, 39120, Note_on_c, 9, 42, 0
11, 39150, Note_on_c, 9, 36, 55
11, 39151, Note_on_c, 9, 42, 52
11, 39180, Note_on_c, 9, 36, 0
11, 39181, Note_on_c, 9, 42, 0
11, 39210, Note_on_c, 9, 36, 56
11, 39211, Note_on_c, 9, 42, 53
11, 39240, Note_on_c, 9, 36, 0
11, 39241, Note_on_c, 9, 42, 0
11, 39270, Note_on_c, 9, 38, 52
11, 39271, Note_on_c, 9, 42, 53
11, 39300, Note_on_c, 9, 38, 0
11, 39301, Note_on_c, 9, 42, 0
11, 39330, Note_on_c, 9, 36, 56
11, 39331, Note_on_c, 9, 42, 51
11, 39360, Note_on_c, 9, 36, 0
11, 39361, Note_on_c, 9, 42, 0
11, 39390, Note_on_c, 9, 42, 56
11, 39420, Note_on_c, 9, 42, 0
11, 39451, Note_on_c, 9, 42, 55
11, 39481, Note_on_c, 9, 42, 0
11, 39510, Note_on_c, 9, 38, 51
11, 39510, Note_on_c, 9, 42, 54
11, 39540, Note_on_c, 9, 42, 0
11, 39540, Note_on_c, 9, 38, 0
11, 39570, Note_on_c, 9, 42, 57
11, 39600, Note_on_c, 9, 42, 0
11, 39631, Note_on_c, 9, 36, 51
11, 39631, Note_on_c, 9, 42, 54
11, 39661, Note_on_c, 9, 42, 0
11, 39661, Note_on_c, 9, 36, 0
11, 39690, Note_on_c, 9, 36, 52
11, 39691, Note_on_c, 9, 42, 51
11, 39720, Note_on_c, 9, 36, 0
11, 39721, Note_on_c, 9, 42, 0
11, 39750, Note_on_c, 9, 38, 52
11, 39751, Note_on_c, 9, 42, 53
11, 39780, Note_on_c, 9, 38, 0
11, 39781, Note_on_c, 9, 42, 0
11, 39811, Note_on_c, 9, 36, 51
11, 39812, Note_on_c, 9, 42, 53
11, 39841, Note_on_c, 9, 36, 0
11, 39842, Note_on_c, 9, 42, 0
11, 39871, Note_on_c, 9, 42, 51
11, 39901, Note_on_c, 9, 42, 0
11, 39931, Note_on_c, 9, 42, 53
11, 39961, Note_on_c, 9, 42, 0
11, 39990, Note_on_c, 9, 38, 57
11, 39990, Note_on_c, 9, 42, 52
11, 40020, Note_on_c, 9, 42, 0
11, 40020, Note_on_c, 9, 38, 0
11, 40050, Note_on_c, 9, 42, 54
11, 40080, Note_on_c, 9, 42, 0
11, 40110, Note_on_c, 9, 36, 55
11, 40111, Note_on_c, 9, 42, 56
11, 40140, Note_on_c, 9, 36, 0
11, 40141, Note_on_c, 9, 42, 0
11, 40171, Note_on_c, 9, 36, 54
11, 40171, Note_on_c, 9, 42, 55
11, 40201, Note_on_c, 9, 42, 0
11, 40201, Note_on_c, 9, 36, 0
11, 40231, Note_on_c, 9, 38, 57
11, 40231, Note_on_c, 9, 42, 57
11, 40261, Note_on_c, 9, 42, 0
11, 40261, Note_on_c, 9, 38, 0
11, 40291, Note_on_c, 9, 36, 56
11, 40292, Note_on_c, 9, 42, 54
11, 40321, Note_on_c, 9, 36, 0
11, 40322, Note_on_c, 9, 42, 0
11, 40351, Note_on_c, 9, 42, 57
11, 40381, Note_on_c, 9, 42, 0
11, 40411, Note_on_c, 9, 42, 53
11, 40441, Note_on_c, 9, 42, 0
11, 40469, Note_on_c, 9, 38, 55
11, 40470, Note_on_c, 9, 42, 52
11, 40499, Note_on_c, 9, 38, 0
11, 40500, Note_on_c, 9, 42, 0
11, 40530, Note_on_c, 9, 42, 52
11, 40560, Note_on_c, 9, 42, 0
11, 40591, Note_on_c, 9, 36, 54
11, 40591, Note_on_c, 9, 42, 57
11, 40621, Note_on_c, 9, 42, 0
11, 40621, Note_on_c, 9, 36, 0
11, 40649, Note_on_c, 9, 36, 57
11, 40650, Note_on_c, 9, 42, 56
11, 40679, Note_on_c, 9, 36, 0
11, 40680, Note_on_c, 9, 42, 0
11, 40711, Note_on_c, 9, 38, 56
11, 40712, Note_on_c, 9, 42, 54
11, 40741, Note_on_c, 9, 38, 0
11, 40742, Note_on_c, 9, 42, 0
11, 40770, Note_on_c, 9, 36, 55
11, 40770, Note_on_c, 9, 49, 57
11, 40800, Note_on_c, 9, 49, 0
11, 40800, Note_on_c, 9, 36, 0
11, 40831, Note_on_c, 9, 42, 52
11, 40861, Note_on_c, 9, 42, 0
11, 40891, Note_on_c, 9, 42, 55
11, 40921, Note_on_c, 9, 42, 0
11, 40949, Note_on_c, 9, 38, 57
11, 40949, Note_on_c, 9, 42, 54
11, 40979, Note_on_c, 9, 42, 0
11, 40979, Note_on_c, 9, 38, 0
11, 41010, Note_on_c, 9, 42, 56
11, 41040, Note_on_c, 9, 42, 0
11, 41070, Note_on_c, 9, 36, 52
11, 41071, Note_on_c, 9, 42, 54
11, 41100, Note_on_c, 9, 36, 0
11, 41101, Note_on_c, 9, 42, 0
11, 41130, Note_on_c, 9, 36, 57
11, 41131, Note_on_c, 9, 42, 54
11, 41160, Note_on_c, 9, 36, 0
11, 41161, Note_on_c, 9, 42, 0
11, 41189, Note_on_c, 9, 38, 52
11, 41190, Note_on_c, 9, 42, 55
11, 41219, Note_on_c, 9, 38, 0
11, 41220, Note_on_c, 9, 42, 0
11, 41251, Note_on_c, 9, 36, 56
11, 41252, Note_on_c, 9, 42, 54
11, 41281, Note_on_c, 9, 36, 0
11, 41282, Note_on_c, 9, 42, 0
11, 41310, Note_on_c, 9, 42, 55
11, 41340, Note_on_c, 9, 42, 0
11, 41371, Note_on_c, 9, 42, 53
11, 41401, Note_on_c, 9, 42, 0
11, 41430, Note_on_c, 9, 38, 54
11, 41431, Note_on_c, 9, 42, 51
11, 41460, Note_on_c, 9, 38, 0
11, 41461, Note_on_c, 9, 42, 0
11, 41490, Note_on_c, 9, 42, 52
11, 41520, Note_on_c, 9, 42, 0
11, 41551, Note_on_c, 9, 36, 54
11, 41551, Note_on_c, 9, 42, 53
11, 41581, Note_on_c, 9, 42, 0
11, 41581, Note_on_c, 9, 36, 0
11, 41610, Note_on_c, 9, 36, 53
11, 41611, Note_on_c, 9, 42, 57
11, 41640, Note_on_c, 9, 36, 0
11, 41641, Note_on_c, 9, 42, 0
11, 41670, Note_on_c, 9, 38, 52
11, 41670, Note_on_c, 9, 42, 53
11, 41700, Note_on_c, 9, 42, 0
11, 41700, Note_on_c, 9, 38, 0
11, 41731, Note_on_c, 9, 36, 53
11, 41731, Note_on_c, 9, 42, 57
11, 41761, Note_on_c, 9, 42, 0
11, 41761, Note_on_c, 9, 36, 0
11, 41790, Note_on_c, 9, 42, 52
11, 41820, Note_on_c, 9, 42, 0
11, 41851, Note_on_c, 9, 42, 54
11, 41881, Note_on_c, 9, 42, 0
11, 41910, Note_on_c, 9, 38, 52
11, 41910, Note_on_c, 9, 42, 52
11, 41940, Note_on_c, 9, 42, 0
11, 41940, Note_on_c, 9, 38, 0
11, 41970, Note_on_c, 9, 42, 53
11, 42000, Note_on_c, 9, 42, 0
11, 42029, Note_on_c, 9, 36, 51
11, 42030, Note_on_c, 9, 42, 56
11, 42059, Note_on_c, 9, 36, 0
11, 42060, Note_on_c, 9, 42, 0
11, 42091, Note_on_c, 9, 36, 53
11, 42091, Note_on_c, 9, 42, 53
11, 42121, Note_on_c, 9, 42, 0
11, 42121, Note_on_c, 9, 36, 0
11, 42151, Note_on_c, 9, 38, 52
11, 42151, Note_on_c, 9, 42, 54
11, 42181, Note_on_c, 9, 42, 0
11, 42181, Note_on_c, 9, 38, 0
11, 42211, Note_on_c, 9, 36, 51
11, 42212, Note_on_c, 9, 42, 56
11, 42241, Note_on_c, 9, 36, 0
11, 42242, Note_on_c, 9, 42, 0
11, 42269, Note_on_c, 9, 42, 51
11, 42299, Note_on_c, 9, 42, 0
11, 42331, Note_on_c, 9, 42, 53
11, 42361, Note_on_c, 9, 42, 0
11, 42389, Note_on_c, 9, 38, 52
11, 42390, Note_on_c, 9, 42, 52
11, 42419, Note_on_c, 9, 38, 0
11, 42420, Note_on_c, 9, 42, 0
11, 42451, Note_on_c, 9, 42, 56
11, 42481, Note_on_c, 9, 42, 0
11, 42510, Note_on_c, 9, 36, 54
11, 42511, Note_on_c, 9, 42, 53
11, 42540, Note_on_c, 9, 36, 0
11, 42541, Note_on_c, 9, 42, 0
11, 42569, Note_on_c, 9, 36, 51
11, 42569, Note_on_c, 9, 42, 52
11, 42599, Note_on_c, 9, 42, 0
11, 42599, Note_on_c, 9, 36, 0
11, 42631, Note_on_c, 9, 38, 54
11, 42632, Note_on_c, 9, 42, 51
11, 42661, Note_on_c, 9, 38, 0
11, 42662, Note_on_c, 9, 42, 0
11, 42690, Note_on_c, 9, 36, 52
11, 42691, Note_on_c, 9, 42, 55
11, 42720, Note_on_c, 9, 36, 0
11, 42721, Note_on_c, 9, 42, 0
11, 42750, Note_on_c, 9, 42, 53
11, 42780, Note_on_c, 9, 42, 0
11, 42811, Note_on_c, 9, 42, 57
11, 42841, Note_on_c, 9, 42, 0
11, 42870, Note_on_c, 9, 38, 57
11, 42871, Note_on_c, 9, 42, 55
11, 42900, Note_on_c, 9, 38, 0
11, 42901, Note_on_c, 9, 42, 0
11, 42930, Note_on_c, 9, 42, 51
11, 42960, Note_on_c, 9, 42, 0
11, 42991, Note_on_c, 9, 36, 52
11, 42991, Note_on_c, 9, 42, 54
11, 43021, Note_on_c, 9, 42, 0
11, 43021, Note_on_c, 9, 36, 0
11, 43050, Note_on_c, 9, 36, 52
11, 43050, Note_on_c, 9, 42, 57
11, 43080, Note_on_c, 9, 42, 0
11, 43080, Note_on_c, 9, 36, 0
11, 43110, Note_on_c, 9, 38, 55
11, 43110, Note_on_c, 9, 42, 57
11, 43140, Note_on_c, 9, 42, 0
11, 43140, Note_on_c, 9, 38, 0
11, 43171, Note_on_c, 9, 36, 54
11, 43172, Note_on_c, 9, 42, 51
11, 43201, Note_on_c, 9, 36, 0
11, 43202, Note_on_c, 9, 42, 0
11, 43230, Note_on_c, 9, 42, 55
11, 43260, Note_on_c, 9, 42, 0
11, 43291, Note_on_c, 9, 42, 51
11, 43321, Note_on_c, 9, 42, 0
11, 43350, Note_on_c, 9, 38, 55
11, 43351, Note_on_c, 9, 42, 56
11, 43380, Note_on_c, 9, 38, 0
11, 43381, Note_on_c, 9, 42, 0
11, 43410, Note_on_c, 9, 42, 55
11, 43440, Note_on_c, 9, 42, 0
11, 43469, Note_on_c, 9, 36, 56
11, 43469, Note_on_c, 9, 42, 54
11, 43499, Note_on_c, 9, 42, 0
11, 43499, Note_on_c, 9, 36, 0
11, 43531, Note_on_c, 9, 36, 51
11, 43531, Note_on_c, 9, 42, 57
11, 43561, Note_on_c, 9, 42, 0
11, 43561, Note_on_c, 9, 36, 0
11, 43590, Note_on_c, 9, 38, 52
11, 43590, Note_on_c, 9, 42, 57
11, 43620, Note_on_c, 9, 42, 0
11, 43620, Note_on_c, 9, 38, 0
11, 43650, Note_on_c, 9, 36, 53
11, 43650, Note_on_c, 9, 42, 53
11, 43680, Note_on_c, 9, 42, 0
11, 43680, Note_on_c, 9, 36, 0
11, 43710, Note_on_c, 9, 42, 52
11, 43740, Note_on_c, 9, 42, 0
11, 43771, Note_on_c, 9, 42, 56
11, 43801, Note_on_c, 9, 42, 0
11, 43830, Note_on_c, 9, 38, 53
11, 43830, Note_on_c, 9, 42, 56
11, 43860, Note_on_c, 9, 42, 0
11, 43860, Note_on_c, 9, 38, 0
11, 43891, Note_on_c, 9, 42, 56
11, 43921, Note_on_c, 9, 42, 0
11, 43950, Note_on_c, 9, 36, 54
11, 43951, Note_on_c, 9, 42, 53
11, 43980, Note_on_c, 9, 36, 0
11, 43981, Note_on_c, 9, 42, 0
11, 44010, Note_on_c, 9, 36, 55
11, 44010, Note_on_c, 9, 42, 56
11, 44040, Note_on_c, 9, 42, 0
11, 44040, Note_on_c, 9, 36, 0
11, 44071, Note_on_c, 9, 38, 51
11, 44071, Note_on_c, 9, 42, 53
11, 44101, Note_on_c, 9, 42, 0
11, 44101, Note_on_c, 9, 38, 0
11, 44131, Note_on_c, 9, 36, 56
11, 44131, Note_on_c, 9, 42, 52
11, 44161, Note_on_c, 9, 42, 0
11, 44161, Note_on_c, 9, 36, 0
11, 44191, Note_on_c, 9, 42, 55
11, 44221, Note_on_c, 9, 42, 0
11, 44250, Note_on_c, 9, 42, 54
11, 44280, Note_on_c, 9, 42, 0
11, 44310, Note_on_c, 9, 38, 53
11, 44311, Note_on_c, 9, 42, 57
11, 44340, Note_on_c, 9, 38, 0
11, 44341, Note_on_c, 9, 42, 0
11, 44371, Note_on_c, 9, 42, 53
11, 44401, Note_on_c, 9, 42, 0
11, 44430, Note_on_c, 9, 36, 55
11, 44430, Note_on_c, 9, 42, 54
11, 44460, Note_on_c, 9, 42, 0
11, 44460, Note_on_c, 9, 36, 0
11, 44491, Note_on_c, 9, 36, 55
11, 44491, Note_on_c, 9, 42, 51
11, 44521, Note_on_c, 9, 42, 0
11, 44521, Note_on_c, 9, 36, 0
11, 44550, Note_on_c, 9, 38, 53
11, 44550, Note_on_c, 9, 42, 51
11, 44580, Note_on_c, 9, 42, 0
11, 44580, Note_on_c, 9, 38, 0
11, 44611, Note_on_c, 9, 36, 57
11, 44612, Note_on_c, 9, 49, 51
11, 44641, Note_on_c, 9, 36, 0
11, 44642, Note_on_c, 9, 49, 0
11, 44670, Note_on_c, 9, 42, 56
11, 44700, Note_on_c, 9, 42, 0
11, 44731, Note_on_c, 9, 42, 52
11, 44761, Note_on_c, 9, 42, 0
11, 44790, Note_on_c, 9, 38, 53
11, 44790, Note_on_c, 9, 42, 56
11, 44820, Note_on_c, 9, 42, 0
11, 44820, Note_on_c, 9, 38, 0
11, 44851, Note_on_c, 9, 42, 56
11, 44881, Note_on_c, 9, 42, 0
11, 44911, Note_on_c, 9, 36, 54
11, 44912, Note_on_c, 9, 42, 57
11, 44941, Note_on_c, 9, 36, 0
11, 44942, Note_on_c, 9, 42, 0
11, 44971, Note_on_c, 9, 36, 52
11, 44971, Note_on_c, 9, 42, 52
11, 45001, Note_on_c, 9, 42, 0
11, 45001, Note_on_c, 9, 36, 0
11, 45030, Note_on_c, 9, 38, 57
11, 45031, Note_on_c, 9, 42, 55
11, 45060, Note_on_c, 9, 38, 0
11, 45061, Note_on_c, 9, 42, 0
11, 45090, Note_on_c, 9, 36, 51
11, 45091, Note_on_c, 9, 42, 57
11, 45120, Note_on_c, 9, 36, 0
11, 45121, Note_on_c, 9, 42, 0
11, 45151, Note_on_c, 9, 42, 51
11, 45181, Note_on_c, 9, 42, 0
11, 45211, Note_on_c, 9, 42, 55
11, 45241, Note_on_c, 9, 42, 0
11, 45270, Note_on_c, 9, 38, 52
11, 45270, Note_on_c, 9, 42, 51
11, 45300, Note_on_c, 9, 42, 0
11, 45300, Note_on_c, 9, 38, 0
11, 45331, Note_on_c, 9, 42, 52
11, 45361, Note_on_c, 9, 42, 0
11, 45391, Note_on_c, 9, 36, 56
11, 45392, Note_on_c, 9, 42, 52
11, 45421, Note_on_c, 9, 36, 0
11, 45422, Note_on_c, 9, 42, 0
11, 45450, Note_on_c, 9, 36, 53
11, 45451, Note_on_c, 9, 42, 53
11, 45480, Note_on_c, 9, 36, 0
11, 45481, Note_on_c, 9, 42, 0
11, 45510, Note_on_c, 9, 38, 54
11, 45510, Note_on_c, 9, 42, 54
11, 45540, Note_on_c, 9, 42, 0
11, 45540, Note_on_c, 9, 38, 0
11, 45570, Note_on_c, 9, 36, 53
11, 45571, Note_on_c, 9, 42, 56
11, 45600, Note_on_c, 9, 36, 0
11, 45601, Note_on_c, 9, 42, 0
11, 45631, Note_on_c, 9, 42, 54
11, 45661, Note_on_c, 9, 42, 0
11, 45691, Note_on_c, 9, 42, 52
11, 45721, Note_on_c, 9, 42, 0
11, 45750, Note_on_c, 9, 38, 51
11, 45751, Note_on_c, 9, 42, 55
11, 45780, Note_on_c, 9, 38, 0
11, 45781, Note_on_c, 9, 42, 0
11, 45810, Note_on_c, 9, 42, 51
11, 45840, Note_on_c, 9, 42, 0
11, 45871, Note_on_c, 9, 36, 51
11, 45871, Note_on_c, 9, 42, 55
11, 45901, Note_on_c, 9, 42, 0
11, 45901, Note_on_c, 9, 36, 0
11, 45930, Note_on_c, 9, 36, 51
11, 45931, Note_on_c, 9, 42, 56
11, 45960, Note_on_c, 9, 36, 0
11, 45961, Note_on_c, 9, 42, 0
11, 45991, Note_on_c, 9, 38, 52
11, 45991, Note_on_c, 9, 42, 51
11, 46021, Note_on_c, 9, 42, 0
11, 46021, Note_on_c, 9, 38, 0
11, 46050, Note_on_c, 9, 36, 53
11, 46051, Note_on_c, 9, 42, 54
11, 46080, Note_on_c, 9, 36, 0
11, 46081, Note_on_c, 9, 42, 0
11, 46111, Note_on_c, 9, 42, 52
11, 46141, Note_on_c, 9, 42, 0
11, 46171, Note_on_c, 9, 42, 54
11, 46201, Note_on_c, 9, 42, 0
11, 46230, Note_on_c, 9, 38, 52
11, 46231, Note_on_c, 9, 42, 53
11, 46260, Note_on_c, 9, 38, 0
11, 46261, Note_on_c, 9, 42, 0
11, 46290, Note_on_c, 9, 42, 55
11, 46320, Note_on_c, 9, 42, 0
11, 46350, Note_on_c, 9, 36, 54
11, 46351, Note_on_c, 9, 42, 54
11, 46380, Note_on_c, 9, 36, 0
11, 46381, Note_on_c, 9, 42, 0
11, 46409, Note_on_c, 9, 36, 57
11, 46410, Note_on_c, 9, 42, 52
11, 46439, Note_on_c, 9, 36, 0
11, 46440, Note_on_c, 9, 42, 0
11, 46470, Note_on_c, 9, 38, 56
11, 46471, Note_on_c, 9, 42, 57
11, 46500, Note_on_c, 9, 38, 0
11, 46501, Note_on_c, 9, 42, 0
11, 46530, Note_on_c, 9, 36, 51
11, 46531, Note_on_c, 9, 42, 57
11, 46560, Note_on_c, 9, 36, 0
11, 46561, Note_on_c, 9, 42, 0
11, 46591, Note_on_c, 9, 42, 57
11, 46621, Note_on_c, 9, 42, 0
11, 46651, Note_on_c, 9, 42, 53
11, 46681, Note_on_c, 9, 42, 0
11, 46710, Note_on_c, 9, 38, 51
11, 46710, Note_on_c, 9, 42, 51
11, 46740, Note_on_c, 9, 42, 0
11, 46740, Note_on_c, 9, 38, 0
11, 46770, Note_on_c, 9, 42, 54
11, 46800, Note_on_c, 9, 42, 0
11, 46830, Note_on_c, 9, 36, 54
11, 46831, Note_on_c, 9, 42, 56
11, 46860, Note_on_c, 9, 36, 0
11, 46861, Note_on_c, 9, 42, 0
11, 46890, Note_on_c, 9, 36, 57
11, 46891, Note_on_c, 9, 42, 54
11, 46920, Note_on_c, 9, 36, 0
11, 46921, Note_on_c, 9, 42, 0
11, 46950, Note_on_c, 9, 38, 55
11, 46950, Note_on_c, 9, 42, 53
11, 46980, Note_on_c, 9, 42, 0
11, 46980, Note_on_c, 9, 38, 0
11, 47011, Note_on_c, 9, 36, 53
11, 47011, Note_on_c, 9, 42, 51
11, 47041, Note_on_c, 9, 42, 0
11, 47041, Note_on_c, 9, 36, 0
11, 47071, Note_on_c, 9, 42, 53
11, 47101, Note_on_c, 9, 42, 0
11, 47131, Note_on_c, 9, 42, 55
11, 47161, Note_on_c, 9, 42, 0
11, 47190, Note_on_c, 9, 38, 56
11, 47191, Note_on_c, 9, 42, 55
11, 47220, Note_on_c, 9, 38, 0
11, 47221, Note_on_c, 9, 42, 0
11, 47250, Note_on_c, 9, 42, 53
11, 47280, Note_on_c, 9, 42, 0
11, 47311, Note_on_c, 9, 36, 56
11, 47311, Note_on_c, 9, 42, 55
11, 47341, Note_on_c, 9, 42, 0
11, 47341, Note_on_c, 9, 36, 0
11, 47370, Note_on_c, 9, 36, 57
11, 47371, Note_on_c, 9, 42, 51
11, 47400, Note_on_c, 9, 36, 0
11, 47401, Note_on_c, 9, 42, 0
11, 47430, Note_on_c, 9, 38, 54
11, 47430, Note_on_c, 9, 42, 55
11, 47460, Note_on_c, 9, 42, 0
11, 47460, Note_on_c, 9, 38, 0
11, 47491, Note_on_c, 9, 36, 54
11, 47492, Note_on_c, 9, 42, 56
11, 47521, Note_on_c, 9, 36, 0
11, 47522, Note_on_c, 9, 42, 0
11, 47551, Note_on_c, 9, 42, 52
11, 47581, Note_on_c, 9, 42, 0
11, 47610, Note_on_c, 9, 42, 57
11, 47640, Note_on_c, 9, 42, 0
11, 47670, Note_on_c, 9, 38, 54
11, 47670, Note_on_c, 9, 42, 55
11, 47700, Note_on_c, 9, 42, 0
11, 47700, Note_on_c, 9, 38, 0
11, 47729, Note_on_c, 9, 42, 57
11, 47759, Note_on_c, 9, 42, 0
11, 47790, Note_on_c, 9, 36, 55
11, 47790, Note_on_c, 9, 42, 54
11, 47820, Note_on_c, 9, 42, 0
11, 47820, Note_on_c, 9, 36, 0
11, 47850, Note_on_c, 9, 36, 53
11, 47851, Note_on_c, 9, 42, 54
11, 47880, Note_on_c, 9, 36, 0
11, 47881, Note_on_c, 9, 42, 0
11, 47911, Note_on_c, 9, 38, 54
11, 47912, Note_on_c, 9, 42, 53
11, 47941, Note_on_c, 9, 38, 0
11, 47942, Note_on_c, 9, 42, 0
11, 47970, Note_on_c, 9, 36, 56
11, 47971, Note_on_c, 9, 42, 57
11, 48000, Note_on_c, 9, 36, 0
11, 48001, Note_on_c, 9, 42, 0
11, 48030, Note_on_c, 9, 42, 51
11, 48060, Note_on_c, 9, 42, 0
11, 48090, Note_on_c, 9, 42, 55
11, 48120, Note_on_c, 9, 42, 0
11, 48149, Note_on_c, 9, 38, 55
11, 48150, Note_on_c, 9, 42, 57
11, 48179, Note_on_c, 9, 38, 0
11, 48180, Note_on_c, 9, 42, 0
11, 48209, Note_on_c, 9, 42, 52
11, 48239, Note_on_c, 9, 42, 0
11, 48271, Note_on_c, 9, 36, 55
11, 48272, Note_on_c, 9, 42, 51
11, 48301, Note_on_c, 9, 36, 0
11, 48302, Note_on_c, 9, 42, 0
11, 48329, Note_on_c, 9, 36, 57
11, 48329, Note_on_c, 9, 42, 57
11, 48359, Note_on_c, 9, 42, 0
11, 48359, Note_on_c, 9, 36, 0
11, 48391, Note_on_c, 9, 38, 52
11, 48391, Note_on_c, 9, 42, 57
11, 48421, Note_on_c, 9, 42, 0
11, 48421, Note_on_c, 9, 38, 0
11, 48451, Note_on_c, 9, 36, 51
11, 48451, Note_on_c, 9, 49, 51
11, 48481, Note_on_c, 9, 49, 0
11, 48481, Note_on_c, 9, 36, 0
11, 48511, Note_on_c, 9, 42, 51
11, 48541, Note_on_c, 9, 42, 0
11, 48570, Note_on_c, 9, 42, 52
11, 48600, Note_on_c, 9, 42, 0
11, 48631, Note_on_c, 9, 38, 51
11, 48631, Note_on_c, 9, 42, 52
11, 48661, Note_on_c, 9, 42, 0
11, 48661, Note_on_c, 9, 38, 0
11, 48690, Note_on_c, 9, 42, 54
11, 48720, Note_on_c, 9, 42, 0
11, 48750, Note_on_c, 9, 36, 51
11, 48750, Note_on_c, 9, 42, 54
11, 48780, Note_on_c, 9, 42, 0
11, 48780, Note_on_c, 9, 36, 0
11, 48810, Note_on_c, 9, 36, 57
11, 48810, Note_on_c, 9, 42, 53
11, 48840, Note_on_c, 9, 42, 0
11, 48840, Note_on_c, 9, 36, 0
11, 48870, Note_on_c, 9, 38, 57
11, 48871, Note_on_c, 9, 42, 57
11, 48900, Note_on_c, 9, 38, 0
11, 48901, Note_on_c, 9, 42, 0
11, 48930, Note_on_c, 9, 36, 52
11, 48931, Note_on_c, 9, 42, 55
11, 48960, Note_on_c, 9, 36, 0
11, 48961, Note_on_c, 9, 42, 0
11, 48990, Note_on_c, 9, 42, 52
11, 49020, Note_on_c, 9, 42, 0
11, 49051, Note_on_c, 9, 42, 53
11, 49081, Note_on_c, 9, 42, 0
11, 49110, Note_on_c, 9, 38, 54
11, 49111, Note_on_c, 9, 42, 55
11, 49140, Note_on_c, 9, 38, 0
11, 49141, Note_on_c, 9, 42, 0
11, 49170, Note_on_c, 9, 42, 53
11, 49200, Note_on_c, 9, 42, 0
11, 49231, Note_on_c, 9, 36, 54
11, 49231, Note_on_c, 9, 42, 53
11, 49261, Note_on_c, 9, 42, 0
11, 49261, Note_on_c, 9, 36, 0
11, 49290, Note_on_c, 9, 36, 53
11, 49290, Note_on_c, 9, 42, 57
11, 49320, Note_on_c, 9, 42, 0
11, 49320, Note_on_c, 9, 36, 0
11, 49350, Note_on_c, 9, 38, 55
11, 49351, Note_on_c, 9, 42, 57
11, 49380, Note_on_c, 9, 38, 0
11, 49381, Note_on_c, 9, 42, 0
11, 49410, Note_on_c, 9, 36, 52
11, 49411, Note_on_c, 9, 42, 54
11, 49440, Note_on_c, 9, 36, 0
11, 49441, Note_on_c, 9, 42, 0
11, 49470, Note_on_c, 9, 42, 52
11, 49500, Note_on_c, 9, 42, 0
11, 49530, Note_on_c, 9, 42, 56
11, 49560, Note_on_c, 9, 42, 0
11, 49590, Note_on_c, 9, 38, 56
11, 49590, Note_on_c, 9, 42, 54
11, 49620, Note_on_c, 9, 42, 0
11, 49620, Note_on_c, 9, 38, 0
11, 49650, Note_on_c, 9, 42, 51
11, 49680, Note_on_c, 9, 42, 0
11, 49709, Note_on_c, 9, 36, 57
11, 49710, Note_on_c, 9, 42, 52
11, 49739, Note_on_c, 9, 36, 0
11, 49740, Note_on_c, 9, 42, 0
11, 49770, Note_on_c, 9, 36, 55
11, 49771, Note_on_c, 9, 42, 53
11, 49800, Note_on_c, 9, 36, 0
11, 49801, Note_on_c, 9, 42, 0
11, 49830, Note_on_c, 9, 38, 52
11, 49831, Note_on_c, 9, 42, 57
11, 49860, Note_on_c, 9, 38, 0
11, 49861, Note_on_c, 9, 42, 0
11, 49890, Note_on_c, 9, 36, 56
11, 49890, Note_on_c, 9, 42, 57
11, 49920, Note_on_c, 9, 42, 0
11, 49920, Note_on_c, 9, 36, 0
11, 49950, Note_on_c, 9, 42, 57
11, 49980, Note_on_c, 9, 42, 0
11, 50011, Note_on_c, 9, 42, 57
11, 50041, Note_on_c, 9, 42, 0
11, 50070, Note_on_c, 9, 38, 54
11, 50070, Note_on_c, 9, 42, 52
11, 50100, Note_on_c, 9, 42, 0
11, 50100, Note_on_c, 9, 38, 0
11, 50130, Note_on_c, 9, 42, 53
11, 50160, Note_on_c, 9, 42, 0
11, 50191, Note_on_c, 9, 36, 52
11, 50191, Note_on_c, 9, 42, 52
11, 50221, Note_on_c, 9, 42, 0
11, 50221, Note_on_c, 9, 36, 0
11, 50251, Note_on_c, 9, 36, 54
11, 50251, Note_on_c, 9, 42, 51
11, 50281, Note_on_c, 9, 42, 0
11, 50281, Note_on_c, 9, 36, 0
11, 50310, Note_on_c, 9, 38, 55
11, 50311, Note_on_c, 9, 42, 56
11, 50340, Note_on_c, 9, 38, 0
11, 50341, Note_on_c, 9, 42, 0
11, 50371, Note_on_c, 9, 36, 53
11, 50372, Note_on_c, 9, 42, 52
11, 50401, Note_on_c, 9, 36, 0
11, 50402, Note_on_c, 9, 42, 0
11, 50431, Note_on_c, 9, 42, 57
11, 50461, Note_on_c, 9, 42, 0
11, 50490, Note_on_c, 9, 42, 51
11, 50520, Note_on_c, 9, 42, 0
11, 50550, Note_on_c, 9, 38, 57
11, 50550, Note_on_c, 9, 42, 55
11, 50580, Note_on_c, 9, 42, 0
11, 50580, Note_on_c, 9, 38, 0
11, 50580, End_track
12, 0, Start_track
12, 0, MIDI_port, 0
12, 0, Control_c, 9, 0, 0
12, 0, Control_c, 9, 32, 0
12, 0, Program_c, 9, 16
12, 0, Control_c, 9, 7, 115
12, 0, Control_c, 9, 10, 64
12, 2, Control_c, 9, 1, 0
12, 4, Control_c, 9, 2, 0
12, 120, Control_c, 9, 11, 100
12, 120, Control_c, 9, 0, 0
12, 124, Control_c, 9, 101, 0
12, 124, Control_c, 9, 100, 0
12, 124, Control_c, 9, 6, 2
12, 124, Control_c, 9, 38, 0
12, 240, Control_c, 9, 120, 0
12, 243, Control_c, 9, 121, 0
12, 246, Control_c, 9, 123, 0
12, 255, Control_c, 9, 91, 40
12, 258, Control_c, 9, 93, 0
12, 479, Note_on_c, 9, 36, 35
12, 480, Note_on_c, 9, 42, 35
12, 510, Note_on_c, 9, 42, 0
12, 599, Note_on_c, 9, 36, 0
12, 600, Note_on_c, 9, 42, 37
12, 630, Note_on_c, 9, 42, 0
12, 659, Note_on_c, 9, 38, 33
12, 659, Note_on_c, 9, 42, 38
12, 689, Note_on_c, 9, 42, 0
12, 689, Note_on_c, 9, 38, 0
12, 720, Note_on_c, 9, 42, 36
12, 750, Note_on_c, 9, 42, 0
12, 781, Note_on_c, 9, 36, 33
12, 782, Note_on_c, 9, 42, 34
12, 811, Note_on_c, 9, 36, 0
12, 812, Note_on_c, 9, 42, 0
12, 841, Note_on_c, 9, 36, 39
12, 841, Note_on_c, 9, 42, 37
12, 871, Note_on_c, 9, 42, 0
12, 871, Note_on_c, 9, 36, 0
12, 900, Note_on_c, 9, 38, 37
12, 900, Note_on_c, 9, 42, 35
12, 930, Note_on_c, 9, 42, 0
12, 930, Note_on_c, 9, 38, 0
12, 961, Note_on_c, 9, 36, 33
12, 961, Note_on_c, 9, 42, 37
12, 991, Note_on_c, 9, 42, 0
12, 991, Note_on_c, 9, 36, 0
12, 1021, Note_on_c, 9, 42, 38
12, 1051, Note_on_c, 9, 42, 0
12, 1080, Note_on_c, 9, 42, 35
12, 1110, Note_on_c, 9, 42, 0
12, 1140, Note_on_c, 9, 38, 34
12, 1140, Note_on_c, 9, 42, 37
12, 1170, Note_on_c, 9, 42, 0
12, 1170, Note_on_c, 9, 38, 0
12, 1200, Note_on_c, 9, 42, 36
12, 1230, Note_on_c, 9, 42, 0
12, 1260, Note_on_c, 9, 36, 35
12, 1261, Note_on_c, 9, 42, 34
12, 1290, Note_on_c, 9, 36, 0
12, 1291, Note_on_c, 9, 42, 0
12, 1320, Note_on_c, 9, 36, 38
12, 1321, Note_on_c, 9, 42, 39
12, 1350, Note_on_c, 9, 36, 0
12, 1351, Note_on_c, 9, 42, 0
12, 1381, Note_on_c, 9, 38, 35
12, 1381, Note_on_c, 9, 42, 39
12, 1411, Note_on_c, 9, 42, 0
12, 1411, Note_on_c, 9, 38, 0
12, 1441, Note_on_c, 9, 36, 33
12, 1441, Note_on_c, 9, 42, 36
12, 1471, Note_on_c, 9, 42, 0
12, 1471, Note_on_c, 9, 36, 0
12, 1500, Note_on_c, 9, 42, 36
12, 1530, Note_on_c, 9, 42, 0
12, 1561, Note_on_c, 9, 42, 35
12, 1591, Note_on_c, 9, 42, 0
12, 1621, Note_on_c, 9, 38, 33
12, 1621, Note_on_c, 9, 42, 37
12, 1651, Note_on_c, 9, 42, 0
12, 1651, Note_on_c, 9, 38, 0
12, 1680, Note_on_c, 9, 42, 36
12, 1710, Note_on_c, 9, 42, 0
12, 1741, Note_on_c, 9, 36, 33
12, 1741, Note_on_c, 9, 42, 39
12, 1771, Note_on_c, 9, 42, 0
12, 1771, Note_on_c, 9, 36, 0
12, 1801, Note_on_c, 9, 36, 34
12, 1801, Note_on_c, 9, 42, 39
12, 1831, Note_on_c, 9, 42, 0
12, 1831, Note_on_c, 9, 36, 0
12, 1861, Note_on_c, 9, 38, 33
12, 1861, Note_on_c, 9, 42, 36
12, 1891, Note_on_c, 9, 42, 0
12, 1891, Note_on_c, 9, 38, 0
12, 1921, Note_on_c, 9, 36, 34
12, 1921, Note_on_c, 9, 42, 36
12, 1951, Note_on_c, 9, 42, 0
12, 1951, Note_on_c, 9, 36, 0
12, 1979, Note_on_c, 9, 42, 36
12, 2009, Note_on_c, 9, 42, 0
12, 2040, Note_on_c, 9, 42, 38
12, 2070, Note_on_c, 9, 42, 0
12, 2101, Note_on_c, 9, 38, 35
12, 2101, Note_on_c, 9, 42, 34
12, 2131, Note_on_c, 9, 42, 0
12, 2131, Note_on_c, 9, 38, 0
12, 2160, Note_on_c, 9, 42, 37
12, 2190, Note_on_c, 9, 42, 0
12, 2220, Note_on_c, 9, 36, 38
12, 2221, Note_on_c, 9, 42, 33
12, 2250, Note_on_c, 9, 36, 0
12, 2251, Note_on_c, 9, 42, 0
12, 2280, Note_on_c, 9, 36, 34
12, 2280, Note_on_c, 9, 42, 37
12, 2310, Note_on_c, 9, 42, 0
12, 2310, Note_on_c, 9, 36, 0
12, 2341, Note_on_c, 9, 38, 39
12, 2341, Note_on_c, 9, 42, 38
12, 2371, Note_on_c, 9, 42, 0
12, 2371, Note_on_c, 9, 38, 0
12, 2401, Note_on_c, 9, 36, 35
12, 2401, Note_on_c, 9, 49, 36
12, 2431, Note_on_c, 9, 49, 0
12, 2431, Note_on_c, 9, 36, 0
12, 2461, Note_on_c, 9, 42, 37
12, 2491, Note_on_c, 9, 42, 0
12, 2520, Note_on_c, 9, 42, 38
12, 2550, Note_on_c, 9, 42, 0
12, 2580, Note_on_c, 9, 38, 33
12, 2580, Note_on_c, 9, 42, 33
12, 2610, Note_on_c, 9, 42, 0
12, 2610, Note_on_c, 9, 38, 0
12, 2640, Note_on_c, 9, 42, 33
12, 2670, Note_on_c, 9, 42, 0
12, 2701, Note_on_c, 9, 36, 38
12, 2701, Note_on_c, 9, 42, 35
12, 2731, Note_on_c, 9, 42, 0
12, 2731, Note_on_c, 9, 36, 0
12, 2760, Note_on_c, 9, 36, 33
12, 2761, Note_on_c, 9, 42, 37
12, 2790, Note_on_c, 9, 36, 0
12, 2791, Note_on_c, 9, 42, 0
12, 2820, Note_on_c, 9, 38, 37
12, 2820, Note_on_c, 9, 42, 39
12, 2850, Note_on_c, 9, 42, 0
12, 2850, Note_on_c, 9, 38, 0
12, 2881, Note_on_c, 9, 36, 34
12, 2882, Note_on_c, 9, 42, 39
12, 2911, Note_on_c, 9, 36, 0
12, 2912, Note_on_c, 9, 42, 0
12, 2941, Note_on_c, 9, 42, 39
12, 2971, Note_on_c, 9, 42, 0
12, 3000, Note_on_c, 9, 42, 38
12, 3030, Note_on_c, 9, 42, 0
12, 3060, Note_on_c, 9, 38, 38
12, 3061, Note_on_c, 9, 42, 39
12, 3090, Note_on_c, 9, 38, 0
12, 3091, Note_on_c, 9, 42, 0
12, 3120, Note_on_c, 9, 42, 33
12, 3150, Note_on_c, 9, 42, 0
12, 3181, Note_on_c, 9, 36, 38
12, 3182, Note_on_c, 9, 42, 35
12, 3211, Note_on_c, 9, 36, 0
12, 3212, Note_on_c, 9, 42, 0
12, 3240, Note_on_c, 9, 36, 34
12, 3241, Note_on_c, 9, 42, 33
12, 3270, Note_on_c, 9, 36, 0
12, 3271, Note_on_c, 9, 42, 0
12, 3301, Note_on_c, 9, 38, 38
12, 3302, Note_on_c, 9, 42, 34
12, 3331, Note_on_c, 9, 38, 0
12, 3332, Note_on_c, 9, 42, 0
12, 3360, Note_on_c, 9, 36, 39
12, 3360, Note_on_c, 9, 42, 38
12, 3390, Note_on_c, 9, 42, 0
12, 3390, Note_on_c, 9, 36, 0
12, 3420, Note_on_c, 9, 42, 34
12, 3450, Note_on_c, 9, 42, 0
12, 3480, Note_on_c, 9, 42, 36
12, 3510, Note_on_c, 9, 42, 0
12, 3540, Note_on_c, 9, 38, 34
12, 3541, Note_on_c, 9, 42, 33
12, 3570, Note_on_c, 9, 38, 0
12, 3571, Note_on_c, 9, 42, 0
12, 3601, Note_on_c, 9, 42, 36
12, 3631, Note_on_c, 9, 42, 0
12, 3661, Note_on_c, 9, 36, 38
12, 3662, Note_on_c, 9, 42, 33
12, 3691, Note_on_c, 9, 36, 0
12, 3692, Note_on_c, 9, 42, 0
12, 3720, Note_on_c, 9, 36, 37
12, 3720, Note_on_c, 9, 42, 37
12, 3750, Note_on_c, 9, 42, 0
12, 3750, Note_on_c, 9, 36, 0
12, 3780, Note_on_c, 9, 38, 35
12, 3781, Note_on_c, 9, 42, 35
12, 3810, Note_on_c, 9, 38, 0
12, 3811, Note_on_c, 9, 42, 0
12, 3840, Note_on_c, 9, 36, 34
12, 3841, Note_on_c, 9, 42, 38
12, 3870, Note_on_c, 9, 36, 0
12, 3871, Note_on_c, 9, 42, 0
12, 3900, Note_on_c, 9, 42, 39
12, 3930, Note_on_c, 9, 42, 0
12, 3961, Note_on_c, 9, 42, 38
12, 3991, Note_on_c, 9, 42, 0
12, 4020, Note_on_c, 9, 38, 33
12, 4020, Note_on_c, 9, 42, 36
12, 4050, Note_on_c, 9, 42, 0
12, 4050, Note_on_c, 9, 38, 0
12, 4080, Note_on_c, 9, 42, 39
12, 4110, Note_on_c, 9, 42, 0
12, 4140, Note_on_c, 9, 36, 37
12, 4141, Note_on_c, 9, 42, 38
12, 4170, Note_on_c, 9, 36, 0
12, 4171, Note_on_c, 9, 42, 0
12, 4200, Note_on_c, 9, 36, 36
12, 4201, Note_on_c, 9, 42, 33
12, 4230, Note_on_c, 9, 36, 0
12, 4231, Note_on_c, 9, 42, 0
12, 4261, Note_on_c, 9, 38, 39
12, 4262, Note_on_c, 9, 42, 34
12, 4291, Note_on_c, 9, 38, 0
12, 4292, Note_on_c, 9, 42, 0
12, 4321, Note_on_c, 9, 36, 34
12, 4321, Note_on_c, 9, 42, 35
12, 4351, Note_on_c, 9, 42, 0
12, 4351, Note_on_c, 9, 36, 0
12, 4381, Note_on_c, 9, 42, 35
12, 4411, Note_on_c, 9, 42, 0
12, 4440, Note_on_c, 9, 42, 35
12, 4470, Note_on_c, 9, 42, 0
12, 4501, Note_on_c, 9, 38, 39
12, 4501, Note_on_c, 9, 42, 37
12, 4531, Note_on_c, 9, 42, 0
12, 4531, Note_on_c, 9, 38, 0
12, 4561, Note_on_c, 9, 42, 35
12, 4591, Note_on_c, 9, 42, 0
12, 4620, Note_on_c, 9, 36, 36
12, 4620, Note_on_c, 9, 42, 39
12, 4650, Note_on_c, 9, 42, 0
12, 4650, Note_on_c, 9, 36, 0
12, 4681, Note_on_c, 9, 36, 33
12, 4681, Note_on_c, 9, 42, 36
12, 4711, Note_on_c, 9, 42, 0
12, 4711, Note_on_c, 9, 36, 0
12, 4741, Note_on_c, 9, 38, 35
12, 4741, Note_on_c, 9, 42, 34
12, 4771, Note_on_c, 9, 42, 0
12, 4771, Note_on_c, 9, 38, 0
12, 4801, Note_on_c, 9, 36, 36
12, 4801, Note_on_c, 9, 42, 35
12, 4831, Note_on_c, 9, 42, 0
12, 4831, Note_on_c, 9, 36, 0
12, 4860, Note_on_c, 9, 42, 39
12, 4890, Note_on_c, 9, 42, 0
12, 4920, Note_on_c, 9, 42, 35
12, 4950, Note_on_c, 9, 42, 0
12, 4980, Note_on_c, 9, 38, 35
12, 4981, Note_on_c, 9, 42, 33
12, 5010, Note_on_c, 9, 38, 0
12, 5011, Note_on_c, 9, 42, 0
12, 5041, Note_on_c, 9, 42, 33
12, 5071, Note_on_c, 9, 42, 0
12, 5101, Note_on_c, 9, 36, 39
12, 5101, Note_on_c, 9, 42, 34
12, 5131, Note_on_c, 9, 42, 0
12, 5131, Note_on_c, 9, 36, 0
12, 5160, Note_on_c, 9, 36, 36
12, 5160, Note_on_c, 9, 42, 38
12, 5190, Note_on_c, 9, 42, 0
12, 5190, Note_on_c, 9, 36, 0
12, 5221, Note_on_c, 9, 38, 37
12, 5222, Note_on_c, 9, 42, 38
12, 5251, Note_on_c, 9, 38, 0
12, 5252, Note_on_c, 9, 42, 0
12, 5280, Note_on_c, 9, 36, 35
12, 5280, Note_on_c, 9, 42, 35
12, 5310, Note_on_c, 9, 42, 0
12, 5310, Note_on_c, 9, 36, 0
12, 5341, Note_on_c, 9, 42, 36
12, 5371, Note_on_c, 9, 42, 0
12, 5400, Note_on_c, 9, 42, 36
12, 5430, Note_on_c, 9, 42, 0
12, 5460, Note_on_c, 9, 38, 37
12, 5461, Note_on_c, 9, 42, 39
12, 5490, Note_on_c, 9, 38, 0
12, 5491, Note_on_c, 9, 42, 0
12, 5520, Note_on_c, 9, 42, 36
12, 5550, Note_on_c, 9, 42, 0
12, 5581, Note_on_c, 9, 36, 36
12, 5582, Note_on_c, 9, 42, 33
12, 5611, Note_on_c, 9, 36, 0
12, 5612, Note_on_c, 9, 42, 0
12, 5641, Note_on_c, 9, 36, 35
12, 5641, Note_on_c, 9, 42, 35
12, 5671, Note_on_c, 9, 42, 0
12, 5671, Note_on_c, 9, 36, 0
12, 5701, Note_on_c, 9, 38, 35
12, 5702, Note_on_c, 9, 42, 33
12, 5731, Note_on_c, 9, 38, 0
12, 5732, Note_on_c, 9, 42, 0
12, 5760, Note_on_c, 9, 36, 35
12, 5760, Note_on_c, 9, 42, 37
12, 5790, Note_on_c, 9, 42, 0
12, 5790, Note_on_c, 9, 36, 0
12, 5820, Note_on_c, 9, 42, 39
12, 5850, Note_on_c, 9, 42, 0
12, 5881, Note_on_c, 9, 42, 36
12, 5911, Note_on_c, 9, 42, 0
12, 5939, Note_on_c, 9, 38, 35
12, 5940, Note_on_c, 9, 42, 35
12, 5969, Note_on_c, 9, 38, 0
12, 5970, Note_on_c, 9, 42, 0
12, 6000, Note_on_c, 9, 42, 37
12, 6030, Note_on_c, 9, 42, 0
12, 6060, Note_on_c, 9, 36, 36
12, 6061, Note_on_c, 9, 42, 35
12, 6090, Note_on_c, 9, 36, 0
12, 6091, Note_on_c, 9, 42, 0
12, 6120, Note_on_c, 9, 36, 36
12, 6120, Note_on_c, 9, 42, 35
12, 6150, Note_on_c, 9, 42, 0
12, 6150, Note_on_c, 9, 36, 0
12, 6180, Note_on_c, 9, 38, 33
12, 6180, Note_on_c, 9, 42, 38
12, 6210, Note_on_c, 9, 42, 0
12, 6210, Note_on_c, 9, 38, 0
12, 6241, Note_on_c, 9, 36, 39
12, 6241, Note_on_c, 9, 49, 36
12, 6271, Note_on_c, 9, 49, 0
12, 6271, Note_on_c, 9, 36, 0
12, 6300, Note_on_c, 9, 42, 38
12, 6330, Note_on_c, 9, 42, 0
12, 6360, Note_on_c, 9, 42, 38
12, 6390, Note_on_c, 9, 42, 0
12, 6420, Note_on_c, 9, 38, 36
12, 6421, Note_on_c, 9, 42, 39
12, 6450, Note_on_c, 9, 38, 0
12, 6451, Note_on_c, 9, 42, 0
12, 6480, Note_on_c, 9, 42, 37
12, 6510, Note_on_c, 9, 42, 0
12, 6540, Note_on_c, 9, 36, 39
12, 6541, Note_on_c, 9, 42, 37
12, 6570, Note_on_c, 9, 36, 0
12, 6571, Note_on_c, 9, 42, 0
12, 6600, Note_on_c, 9, 36, 37
12, 6600, Note_on_c, 9, 42, 36
12, 6630, Note_on_c, 9, 42, 0
12, 6630, Note_on_c, 9, 36, 0
12, 6661, Note_on_c, 9, 38, 38
12, 6661, Note_on_c, 9, 42, 35
12, 6691, Note_on_c, 9, 42, 0
12, 6691, Note_on_c, 9, 38, 0
12, 6721, Note_on_c, 9, 36, 39
12, 6722, Note_on_c, 9, 42, 39
12, 6751, Note_on_c, 9, 36, 0
12, 6752, Note_on_c, 9, 42, 0
12, 6781, Note_on_c, 9, 42, 36
12, 6811, Note_on_c, 9, 42, 0
12, 6841, Note_on_c, 9, 42, 34
12, 6871, Note_on_c, 9, 42, 0
12, 6900, Note_on_c, 9, 38, 34
12, 6900, Note_on_c, 9, 42, 35
12, 6930, Note_on_c, 9, 42, 0
12, 6930, Note_on_c, 9, 38, 0
12, 6961, Note_on_c, 9, 42, 33
12, 6991, Note_on_c, 9, 42, 0
12, 7021, Note_on_c, 9, 36, 35
12, 7022, Note_on_c, 9, 42, 37
12, 7051, Note_on_c, 9, 36, 0
12, 7052, Note_on_c, 9, 42, 0
12, 7080, Note_on_c, 9, 36, 37
12, 7081, Note_on_c, 9, 42, 39
12, 7110, Note_on_c, 9, 36, 0
12, 7111, Note_on_c, 9, 42, 0
12, 7141, Note_on_c, 9, 38, 36
12, 7141, Note_on_c, 9, 42, 35
12, 7171, Note_on_c, 9, 42, 0
12, 7171, Note_on_c, 9, 38, 0
12, 7200, Note_on_c, 9, 36, 35
12, 7201, Note_on_c, 9, 42, 36
12, 7230, Note_on_c, 9, 36, 0
12, 7231, Note_on_c, 9, 42, 0
12, 7261, Note_on_c, 9, 42, 38
12, 7291, Note_on_c, 9, 42, 0
12, 7320, Note_on_c, 9, 42, 38
12, 7350, Note_on_c, 9, 42, 0
12, 7380, Note_on_c, 9, 38, 35
12, 7380, Note_on_c, 9, 42, 35
12, 7410, Note_on_c, 9, 42, 0
12, 7410, Note_on_c, 9, 38, 0
12, 7440, Note_on_c, 9, 42, 33
12, 7470, Note_on_c, 9, 42, 0
12, 7501, Note_on_c, 9, 36, 34
12, 7502, Note_on_c, 9, 42, 33
12, 7531, Note_on_c, 9, 36, 0
12, 7532, Note_on_c, 9, 42, 0
12, 7560, Note_on_c, 9, 36, 33
12, 7560, Note_on_c, 9, 42, 36
12, 7590, Note_on_c, 9, 42, 0
12, 7590, Note_on_c, 9, 36, 0
12, 7620, Note_on_c, 9, 38, 33
12, 7621, Note_on_c, 9, 42, 34
12, 7650, Note_on_c, 9, 38, 0
12, 7651, Note_on_c, 9, 42, 0
12, 7680, Note_on_c, 9, 36, 37
12, 7681, Note_on_c, 9, 42, 34
12, 7710, Note_on_c, 9, 36, 0
12, 7711, Note_on_c, 9, 42, 0
12, 7741, Note_on_c, 9, 42, 38
12, 7771, Note_on_c, 9, 42, 0
12, 7800, Note_on_c, 9, 42, 36
12, 7830, Note_on_c, 9, 42, 0
12, 7860, Note_on_c, 9, 38, 37
12, 7861, Note_on_c, 9, 42, 38
12, 7890, Note_on_c, 9, 38, 0
12, 7891, Note_on_c, 9, 42, 0
12, 7920, Note_on_c, 9, 42, 35
12, 7950, Note_on_c, 9, 42, 0
12, 7981, Note_on_c, 9, 36, 37
12, 7982, Note_on_c, 9, 42, 38
12, 8011, Note_on_c, 9, 36, 0
12, 8012, Note_on_c, 9, 42, 0
12, 8040, Note_on_c, 9, 36, 39
12, 8041, Note_on_c, 9, 42, 38
12, 8070, Note_on_c, 9, 36, 0
12, 8071, Note_on_c, 9, 42, 0
12, 8101, Note_on_c, 9, 38, 38
12, 8102, Note_on_c, 9, 42, 36
12, 8131, Note_on_c, 9, 38, 0
12, 8132, Note_on_c, 9, 42, 0
12, 8160, Note_on_c, 9, 36, 34
12, 8161, Note_on_c, 9, 42, 36
12, 8190, Note_on_c, 9, 36, 0
12, 8191, Note_on_c, 9, 42, 0
12, 8220, Note_on_c, 9, 42, 34
12, 8250, Note_on_c, 9, 42, 0
12, 8280, Note_on_c, 9, 42, 39
12, 8310, Note_on_c, 9, 42, 0
12, 8340, Note_on_c, 9, 38, 38
12, 8340, Note_on_c, 9, 42, 38
12, 8370, Note_on_c, 9, 42, 0
12, 8370, Note_on_c, 9, 38, 0
12, 8399, Note_on_c, 9, 42, 34
12, 8429, Note_on_c, 9, 42, 0
12, 8460, Note_on_c, 9, 36, 34
12, 8461, Note_on_c, 9, 42, 36
12, 8490, Note_on_c, 9, 36, 0
12, 8491, Note_on_c, 9, 42, 0
12, 8520, Note_on_c, 9, 36, 35
12, 8520, Note_on_c, 9, 42, 39
12, 8550, Note_on_c, 9, 42, 0
12, 8550, Note_on_c, 9, 36, 0
12, 8580, Note_on_c, 9, 38, 35
12, 8581, Note_on_c, 9, 42, 37
12, 8610, Note_on_c, 9, 38, 0
12, 8611, Note_on_c, 9, 42, 0
12, 8641, Note_on_c, 9, 36, 35
12, 8641, Note_on_c, 9, 42, 33
12, 8671, Note_on_c, 9, 42, 0
12, 8671, Note_on_c, 9, 36, 0
12, 8701, Note_on_c, 9, 42, 35
12, 8731, Note_on_c, 9, 42, 0
12, 8760, Note_on_c, 9, 42, 36
12, 8790, Note_on_c, 9, 42, 0
12, 8820, Note_on_c, 9, 38, 35
12, 8820, Note_on_c, 9, 42, 39
12, 8850, Note_on_c, 9, 42, 0
12, 8850, Note_on_c, 9, 38, 0
12, 8880, Note_on_c, 9, 42, 37
12, 8910, Note_on_c, 9, 42, 0
12, 8940, Note_on_c, 9, 36, 37
12, 8941, Note_on_c, 9, 42, 37
12, 8970, Note_on_c, 9, 36, 0
12, 8971, Note_on_c, 9, 42, 0
12, 9000, Note_on_c, 9, 36, 34
12, 9000, Note_on_c, 9, 42, 37
12, 9030, Note_on_c, 9, 42, 0
12, 9030, Note_on_c, 9, 36, 0
12, 9060, Note_on_c, 9, 38, 38
12, 9061, Note_on_c, 9, 42, 39
12, 9090, Note_on_c, 9, 38, 0
12, 9091, Note_on_c, 9, 42, 0
12, 9120, Note_on_c, 9, 36, 36
12, 9120, Note_on_c, 9, 42, 39
12, 9150, Note_on_c, 9, 42, 0
12, 9150, Note_on_c, 9, 36, 0
12, 9180, Note_on_c, 9, 42, 35
12, 9210, Note_on_c, 9, 42, 0
12, 9240, Note_on_c, 9, 42, 36
12, 9270, Note_on_c, 9, 42, 0
12, 9300, Note_on_c, 9, 38, 33
12, 9300, Note_on_c, 9, 42, 39
12, 9330, Note_on_c, 9, 42, 0
12, 9330, Note_on_c, 9, 38, 0
12, 9360, Note_on_c, 9, 42, 35
12, 9390, Note_on_c, 9, 42, 0
12, 9420, Note_on_c, 9, 36, 34
12, 9420, Note_on_c, 9, 42, 38
12, 9450, Note_on_c, 9, 42, 0
12, 9450, Note_on_c, 9, 36, 0
12, 9480, Note_on_c, 9, 36, 38
12, 9481, Note_on_c, 9, 42, 33
12, 9510, Note_on_c, 9, 36, 0
12, 9511, Note_on_c, 9, 42, 0
12, 9541, Note_on_c, 9, 38, 33
12, 9542, Note_on_c, 9, 42, 35
12, 9571, Note_on_c, 9, 38, 0
12, 9572, Note_on_c, 9, 42, 0
12, 9600, Note_on_c, 9, 36, 35
12, 9600, Note_on_c, 9, 42, 36
12, 9630, Note_on_c, 9, 42, 0
12, 9630, Note_on_c, 9, 36, 0
12, 9661, Note_on_c, 9, 42, 34
12, 9691, Note_on_c, 9, 42, 0
12, 9720, Note_on_c, 9, 42, 39
12, 9750, Note_on_c, 9, 42, 0
12, 9781, Note_on_c, 9, 38, 37
12, 9781, Note_on_c, 9, 42, 37
12, 9811, Note_on_c, 9, 42, 0
12, 9811, Note_on_c, 9, 38, 0
12, 9840, Note_on_c, 9, 42, 34
12, 9870, Note_on_c, 9, 42, 0
12, 9901, Note_on_c, 9, 36, 33
12, 9902, Note_on_c, 9, 42, 38
12, 9931, Note_on_c, 9, 36, 0
12, 9932, Note_on_c, 9, 42, 0
12, 9960, Note_on_c, 9, 36, 35
12, 9960, Note_on_c, 9, 42, 34
12, 9990, Note_on_c, 9, 42, 0
12, 9990, Note_on_c, 9, 36, 0
12, 10021, Note_on_c, 9, 38, 39
12, 10021, Note_on_c, 9, 42, 35
12, 10051, Note_on_c, 9, 42, 0
12, 10051, Note_on_c, 9, 38, 0
12, 10081, Note_on_c, 9, 36, 33
12, 10081, Note_on_c, 9, 49, 36
12, 10111, Note_on_c, 9, 49, 0
12, 10111, Note_on_c, 9, 36, 0
12, 10140, Note_on_c, 9, 42, 33
12, 10170, Note_on_c, 9, 42, 0
12, 10201, Note_on_c, 9, 42, 33
12, 10231, Note_on_c, 9, 42, 0
12, 10260, Note_on_c, 9, 38, 39
12, 10260, Note_on_c, 9, 42, 39
12, 10290, Note_on_c, 9, 42, 0
12, 10290, Note_on_c, 9, 38, 0
12, 10320, Note_on_c, 9, 42, 33
12, 10350, Note_on_c, 9, 42, 0
12, 10381, Note_on_c, 9, 36, 38
12, 10381, Note_on_c, 9, 42, 36
12, 10411, Note_on_c, 9, 42, 0
12, 10411, Note_on_c, 9, 36, 0
12, 10440, Note_on_c, 9, 36, 35
12, 10441, Note_on_c, 9, 42, 39
12, 10470, Note_on_c, 9, 36, 0
12, 10471, Note_on_c, 9, 42, 0
12, 10500, Note_on_c, 9, 38, 36
12, 10500, Note_on_c, 9, 42, 33
12, 10530, Note_on_c, 9, 42, 0
12, 10530, Note_on_c, 9, 38, 0
12, 10561, Note_on_c, 9, 36, 39
12, 10561, Note_on_c, 9, 42, 34
12, 10591, Note_on_c, 9, 42, 0
12, 10591, Note_on_c, 9, 36, 0
12, 10621, Note_on_c, 9, 42, 34
12, 10651, Note_on_c, 9, 42, 0
12, 10680, Note_on_c, 9, 42, 37
12, 10710, Note_on_c, 9, 42, 0
12, 10740, Note_on_c, 9, 38, 38
12, 10740, Note_on_c, 9, 42, 34
12, 10770, Note_on_c, 9, 42, 0
12, 10770, Note_on_c, 9, 38, 0
12, 10800, Note_on_c, 9, 42, 34
12, 10830, Note_on_c, 9, 42, 0
12, 10861, Note_on_c, 9, 36, 37
12, 10861, Note_on_c, 9, 42, 35
12, 10891, Note_on_c, 9, 42, 0
12, 10891, Note_on_c, 9, 36, 0
12, 10920, Note_on_c, 9, 36, 34
12, 10921, Note_on_c, 9, 42, 34
12, 10950, Note_on_c, 9, 36, 0
12, 10951, Note_on_c, 9, 42, 0
12, 10980, Note_on_c, 9, 38, 37
12, 10980, Note_on_c, 9, 42, 37
12, 11010, Note_on_c, 9, 42, 0
12, 11010, Note_on_c, 9, 38, 0
12, 11040, Note_on_c, 9, 36, 36
12, 11041, Note_on_c, 9, 42, 37
12, 11070, Note_on_c, 9, 36, 0
12, 11071, Note_on_c, 9, 42, 0
12, 11100, Note_on_c, 9, 42, 39
12, 11130, Note_on_c, 9, 42, 0
12, 11160, Note_on_c, 9, 42, 36
12, 11190, Note_on_c, 9, 42, 0
12, 11220, Note_on_c, 9, 38, 38
12, 11221, Note_on_c, 9, 42, 35
12, 11250, Note_on_c, 9, 38, 0
12, 11251, Note_on_c, 9, 42, 0
12, 11280, Note_on_c, 9, 42, 33
12, 11310, Note_on_c, 9, 42, 0
12, 11340, Note_on_c, 9, 36, 36
12, 11340, Note_on_c, 9, 42, 33
12, 11370, Note_on_c, 9, 42, 0
12, 11370, Note_on_c, 9, 36, 0
12, 11400, Note_on_c, 9, 36, 33
12, 11400, Note_on_c, 9, 42, 34
12, 11430, Note_on_c, 9, 42, 0
12, 11430, Note_on_c, 9, 36, 0
12, 11461, Note_on_c, 9, 38, 39
12, 11461, Note_on_c, 9, 42, 36
12, 11491, Note_on_c, 9, 42, 0
12, 11491, Note_on_c, 9, 38, 0
12, 11520, Note_on_c, 9, 36, 38
12, 11521, Note_on_c, 9, 42, 34
12, 11550, Note_on_c, 9, 36, 0
12, 11551, Note_on_c, 9, 42, 0
12, 11580, Note_on_c, 9, 42, 37
12, 11610, Note_on_c, 9, 42, 0
12, 11641, Note_on_c, 9, 42, 35
12, 11671, Note_on_c, 9, 42, 0
12, 11701, Note_on_c, 9, 38, 37
12, 11701, Note_on_c, 9, 42, 34
12, 11731, Note_on_c, 9, 42, 0
12, 11731, Note_on_c, 9, 38, 0
12, 11759, Note_on_c, 9, 42, 38
12, 11789, Note_on_c, 9, 42, 0
12, 11821, Note_on_c, 9, 36, 34
12, 11821, Note_on_c, 9, 42, 38
12, 11851, Note_on_c, 9, 42, 0
12, 11851, Note_on_c, 9, 36, 0
12, 11880, Note_on_c, 9, 36, 38
12, 11881, Note_on_c, 9, 42, 38
12, 11910, Note_on_c, 9, 36, 0
12, 11911, Note_on_c, 9, 42, 0
12, 11940, Note_on_c, 9, 38, 38
12, 11940, Note_on_c, 9, 42, 35
12, 11970, Note_on_c, 9, 42, 0
12, 11970, Note_on_c, 9, 38, 0
12, 12000, Note_on_c, 9, 36, 36
12, 12000, Note_on_c, 9, 42, 37
12, 12030, Note_on_c, 9, 42, 0
12, 12030, Note_on_c, 9, 36, 0
12, 12060, Note_on_c, 9, 42, 36
12, 12090, Note_on_c, 9, 42, 0
12, 12121, Note_on_c, 9, 42, 38
12, 12151, Note_on_c, 9, 42, 0
12, 12180, Note_on_c, 9, 38, 36
12, 12181, Note_on_c, 9, 42, 33
12, 12210, Note_on_c, 9, 38, 0
12, 12211, Note_on_c, 9, 42, 0
12, 12241, Note_on_c, 9, 42, 33
12, 12271, Note_on_c, 9, 42, 0
12, 12301, Note_on_c, 9, 36, 34
12, 12301, Note_on_c, 9, 42, 38
12, 12331, Note_on_c, 9, 42, 0
12, 12331, Note_on_c, 9, 36, 0
12, 12360, Note_on_c, 9, 36, 39
12, 12361, Note_on_c, 9, 42, 35
12, 12390, Note_on_c, 9, 36, 0
12, 12391, Note_on_c, 9, 42, 0
12, 12420, Note_on_c, 9, 38, 35
12, 12420, Note_on_c, 9, 42, 35
12, 12450, Note_on_c, 9, 42, 0
12, 12450, Note_on_c, 9, 38, 0
12, 12479, Note_on_c, 9, 36, 35
12, 12480, Note_on_c, 9, 42, 36
12, 12509, Note_on_c, 9, 36, 0
12, 12510, Note_on_c, 9, 42, 0
12, 12541, Note_on_c, 9, 42, 38
12, 12571, Note_on_c, 9, 42, 0
12, 12601, Note_on_c, 9, 42, 39
12, 12631, Note_on_c, 9, 42, 0
12, 12660, Note_on_c, 9, 38, 36
12, 12661, Note_on_c, 9, 42, 34
12, 12690, Note_on_c, 9, 38, 0
12, 12691, Note_on_c, 9, 42, 0
12, 12720, Note_on_c, 9, 42, 35
12, 12750, Note_on_c, 9, 42, 0
12, 12780, Note_on_c, 9, 36, 36
12, 12780, Note_on_c, 9, 42, 38
12, 12810, Note_on_c, 9, 42, 0
12, 12810, Note_on_c, 9, 36, 0
12, 12840, Note_on_c, 9, 36, 39
12, 12840, Note_on_c, 9, 42, 36
12, 12870, Note_on_c, 9, 42, 0
12, 12870, Note_on_c, 9, 36, 0
12, 12901, Note_on_c, 9, 38, 38
12, 12902, Note_on_c, 9, 42, 39
12, 12931, Note_on_c, 9, 38, 0
12, 12932, Note_on_c, 9, 42, 0
12, 12960, Note_on_c, 9, 36, 36
12, 12961, Note_on_c, 9, 42, 35
12, 12990, Note_on_c, 9, 36, 0
12, 12991, Note_on_c, 9, 42, 0
12, 13020, Note_on_c, 9, 42, 37
12, 13050, Note_on_c, 9, 42, 0
12, 13080, Note_on_c, 9, 42, 39
12, 13110, Note_on_c, 9, 42, 0
12, 13141, Note_on_c, 9, 38, 38
12, 13141, Note_on_c, 9, 42, 38
12, 13171, Note_on_c, 9, 42, 0
12, 13171, Note_on_c, 9, 38, 0
12, 13200, Note_on_c, 9, 42, 39
12, 13230, Note_on_c, 9, 42, 0
12, 13260, Note_on_c, 9, 36, 39
12, 13260, Note_on_c, 9, 42, 34
12, 13290, Note_on_c, 9, 42, 0
12, 13290, Note_on_c, 9, 36, 0
12, 13320, Note_on_c, 9, 36, 34
12, 13320, Note_on_c, 9, 42, 36
12, 13350, Note_on_c, 9, 42, 0
12, 13350, Note_on_c, 9, 36, 0
12, 13380, Note_on_c, 9, 38, 39
12, 13380, Note_on_c, 9, 42, 34
12, 13410, Note_on_c, 9, 42, 0
12, 13410, Note_on_c, 9, 38, 0
12, 13440, Note_on_c, 9, 36, 39
12, 13441, Note_on_c, 9, 42, 33
12, 13470, Note_on_c, 9, 36, 0
12, 13471, Note_on_c, 9, 42, 0
12, 13501, Note_on_c, 9, 42, 38
12, 13531, Note_on_c, 9, 42, 0
12, 13560, Note_on_c, 9, 42, 38
12, 13590, Note_on_c, 9, 42, 0
12, 13621, Note_on_c, 9, 38, 34
12, 13621, Note_on_c, 9, 42, 33
12, 13651, Note_on_c, 9, 42, 0
12, 13651, Note_on_c, 9, 38, 0
12, 13680, Note_on_c, 9, 42, 33
12, 13710, Note_on_c, 9, 42, 0
12, 13740, Note_on_c, 9, 36, 37
12, 13740, Note_on_c, 9, 42, 36
12, 13770, Note_on_c, 9, 42, 0
12, 13770, Note_on_c, 9, 36, 0
12, 13800, Note_on_c, 9, 36, 34
12, 13800, Note_on_c, 9, 42, 36
12, 13830, Note_on_c, 9, 42, 0
12, 13830, Note_on_c, 9, 36, 0
12, 13861, Note_on_c, 9, 38, 36
12, 13862, Note_on_c, 9, 42, 35
12, 13891, Note_on_c, 9, 38, 0
12, 13892, Note_on_c, 9, 42, 0
12, 13921, Note_on_c, 9, 36, 39
12, 13922, Note_on_c, 9, 49, 39
12, 13951, Note_on_c, 9, 36, 0
12, 13952, Note_on_c, 9, 49, 0
12, 13981, Note_on_c, 9, 42, 34
12, 14011, Note_on_c, 9, 42, 0
12, 14040, Note_on_c, 9, 42, 33
12, 14070, Note_on_c, 9, 42, 0
12, 14100, Note_on_c, 9, 38, 39
12, 14100, Note_on_c, 9, 42, 34
12, 14130, Note_on_c, 9, 42, 0
12, 14130, Note_on_c, 9, 38, 0
12, 14160, Note_on_c, 9, 42, 35
12, 14190, Note_on_c, 9, 42, 0
12, 14221, Note_on_c, 9, 36, 38
12, 14221, Note_on_c, 9, 42, 34
12, 14251, Note_on_c, 9, 42, 0
12, 14251, Note_on_c, 9, 36, 0
12, 14281, Note_on_c, 9, 36, 39
12, 14281, Note_on_c, 9, 42, 36
12, 14311, Note_on_c, 9, 42, 0
12, 14311, Note_on_c, 9, 36, 0
12, 14341, Note_on_c, 9, 38, 38
12, 14341, Note_on_c, 9, 42, 38
12, 14371, Note_on_c, 9, 42, 0
12, 14371, Note_on_c, 9, 38, 0
12, 14401, Note_on_c, 9, 36, 36
12, 14402, Note_on_c, 9, 42, 33
12, 14431, Note_on_c, 9, 36, 0
12, 14432, Note_on_c, 9, 42, 0
12, 14460, Note_on_c, 9, 42, 33
12, 14490, Note_on_c, 9, 42, 0
12, 14520, Note_on_c, 9, 42, 36
12, 14550, Note_on_c, 9, 42, 0
12, 14580, Note_on_c, 9, 38, 37
12, 14580, Note_on_c, 9, 42, 35
12, 14610, Note_on_c, 9, 42, 0
12, 14610, Note_on_c, 9, 38, 0
12, 14640, Note_on_c, 9, 42, 35
12, 14670, Note_on_c, 9, 42, 0
12, 14700, Note_on_c, 9, 36, 34
12, 14701, Note_on_c, 9, 42, 37
12, 14730, Note_on_c, 9, 36, 0
12, 14731, Note_on_c, 9, 42, 0
12, 14761, Note_on_c, 9, 36, 39
12, 14761, Note_on_c, 9, 42, 34
12, 14791, Note_on_c, 9, 42, 0
12, 14791, Note_on_c, 9, 36, 0
12, 14820, Note_on_c, 9, 38, 33
12, 14821, Note_on_c, 9, 42, 33
12, 14850, Note_on_c, 9, 38, 0
12, 14851, Note_on_c, 9, 42, 0
12, 14880, Note_on_c, 9, 36, 33
12, 14880, Note_on_c, 9, 42, 37
12, 14910, Note_on_c, 9, 42, 0
12, 14910, Note_on_c, 9, 36, 0
12, 14940, Note_on_c, 9, 42, 33
12, 14970, Note_on_c, 9, 42, 0
12, 15001, Note_on_c, 9, 42, 34
12, 15031, Note_on_c, 9, 42, 0
12, 15060, Note_on_c, 9, 38, 39
12, 15060, Note_on_c, 9, 42, 38
12, 15090, Note_on_c, 9, 42, 0
12, 15090, Note_on_c, 9, 38, 0
12, 15120, Note_on_c, 9, 42, 33
12, 15150, Note_on_c, 9, 42, 0
12, 15180, Note_on_c, 9, 36, 37
12, 15180, Note_on_c, 9, 42, 35
12, 15210, Note_on_c, 9, 42, 0
12, 15210, Note_on_c, 9, 36, 0
12, 15240, Note_on_c, 9, 36, 37
12, 15241, Note_on_c, 9, 42, 37
12, 15270, Note_on_c, 9, 36, 0
12, 15271, Note_on_c, 9, 42, 0
12, 15300, Note_on_c, 9, 38, 39
12, 15300, Note_on_c, 9, 42, 33
12, 15330, Note_on_c, 9, 42, 0
12, 15330, Note_on_c, 9, 38, 0
12, 15359, Note_on_c, 9, 36, 38
12, 15360, Note_on_c, 9, 42, 38
12, 15389, Note_on_c, 9, 36, 0
12, 15390, Note_on_c, 9, 42, 0
12, 15421, Note_on_c, 9, 42, 35
12, 15451, Note_on_c, 9, 42, 0
12, 15480, Note_on_c, 9, 42, 39
12, 15510, Note_on_c, 9, 42, 0
12, 15540, Note_on_c, 9, 38, 35
12, 15540, Note_on_c, 9, 42, 38
12, 15570, Note_on_c, 9, 42, 0
12, 15570, Note_on_c, 9, 38, 0
12, 15600, Note_on_c, 9, 42, 35
12, 15630, Note_on_c, 9, 42, 0
12, 15661, Note_on_c, 9, 36, 39
12, 15661, Note_on_c, 9, 42, 39
12, 15691, Note_on_c, 9, 42, 0
12, 15691, Note_on_c, 9, 36, 0
12, 15720, Note_on_c, 9, 36, 39
12, 15721, Note_on_c, 9, 42, 35
12, 15750, Note_on_c, 9, 36, 0
12, 15751, Note_on_c, 9, 42, 0
12, 15780, Note_on_c, 9, 38, 38
12, 15780, Note_on_c, 9, 42, 39
12, 15810, Note_on_c, 9, 42, 0
12, 15810, Note_on_c, 9, 38, 0
12, 15840, Note_on_c, 9, 36, 37
12, 15841, Note_on_c, 9, 42, 35
12, 15870, Note_on_c, 9, 36, 0
12, 15871, Note_on_c, 9, 42, 0
12, 15901, Note_on_c, 9, 42, 36
12, 15931, Note_on_c, 9, 42, 0
12, 15960, Note_on_c, 9, 42, 33
12, 15990, Note_on_c, 9, 42, 0
12, 16019, Note_on_c, 9, 38, 36
12, 16020, Note_on_c, 9, 42, 37
12, 16049, Note_on_c, 9, 38, 0
12, 16050, Note_on_c, 9, 42, 0
12, 16080, Note_on_c, 9, 42, 39
12, 16110, Note_on_c, 9, 42, 0
12, 16140, Note_on_c, 9, 36, 38
12, 16141, Note_on_c, 9, 42, 38
12, 16170, Note_on_c, 9, 36, 0
12, 16171, Note_on_c, 9, 42, 0
12, 16200, Note_on_c, 9, 36, 33
12, 16201, Note_on_c, 9, 42, 36
12, 16230, Note_on_c, 9, 36, 0
12, 16231, Note_on_c, 9, 42, 0
12, 16261, Note_on_c, 9, 38, 34
12, 16261, Note_on_c, 9, 42, 34
12, 16291, Note_on_c, 9, 42, 0
12, 16291, Note_on_c, 9, 38, 0
12, 16321, Note_on_c, 9, 36, 33
12, 16322, Note_on_c, 9, 42, 37
12, 16351, Note_on_c, 9, 36, 0
12, 16352, Note_on_c, 9, 42, 0
12, 16381, Note_on_c, 9, 42, 36
12, 16411, Note_on_c, 9, 42, 0
12, 16440, Note_on_c, 9, 42, 38
12, 16470, Note_on_c, 9, 42, 0
12, 16500, Note_on_c, 9, 38, 39
12, 16501, Note_on_c, 9, 42, 34
12, 16530, Note_on_c, 9, 38, 0
12, 16531, Note_on_c, 9, 42, 0
12, 16560, Note_on_c, 9, 42, 34
12, 16590, Note_on_c, 9, 42, 0
12, 16621, Note_on_c, 9, 36, 38
12, 16621, Note_on_c, 9, 42, 39
12, 16651, Note_on_c, 9, 42, 0
12, 16651, Note_on_c, 9, 36, 0
12, 16680, Note_on_c, 9, 36, 39
12, 16680, Note_on_c, 9, 42, 37
12, 16710, Note_on_c, 9, 42, 0
12, 16710, Note_on_c, 9, 36, 0
12, 16741, Note_on_c, 9, 38, 35
12, 16741, Note_on_c, 9, 42, 33
12, 16771, Note_on_c, 9, 42, 0
12, 16771, Note_on_c, 9, 38, 0
12, 16801, Note_on_c, 9, 36, 35
12, 16801, Note_on_c, 9, 42, 35
12, 16831, Note_on_c, 9, 42, 0
12, 16831, Note_on_c, 9, 36, 0
12, 16860, Note_on_c, 9, 42, 37
12, 16890, Note_on_c, 9, 42, 0
12, 16922, Note_on_c, 9, 42, 36
12, 16952, Note_on_c, 9, 42, 0
12, 16980, Note_on_c, 9, 38, 39
12, 16981, Note_on_c, 9, 42, 33
12, 17010, Note_on_c, 9, 38, 0
12, 17011, Note_on_c, 9, 42, 0
12, 17040, Note_on_c, 9, 42, 34
12, 17070, Note_on_c, 9, 42, 0
12, 17100, Note_on_c, 9, 36, 38
12, 17101, Note_on_c, 9, 42, 33
12, 17130, Note_on_c, 9, 36, 0
12, 17131, Note_on_c, 9, 42, 0
12, 17161, Note_on_c, 9, 36, 38
12, 17161, Note_on_c, 9, 42, 36
12, 17191, Note_on_c, 9, 42, 0
12, 17191, Note_on_c, 9, 36, 0
12, 17220, Note_on_c, 9, 38, 38
12, 17220, Note_on_c, 9, 42, 33
12, 17250, Note_on_c, 9, 42, 0
12, 17250, Note_on_c, 9, 38, 0
12, 17281, Note_on_c, 9, 36, 38
12, 17281, Note_on_c, 9, 42, 38
12, 17311, Note_on_c, 9, 42, 0
12, 17311, Note_on_c, 9, 36, 0
12, 17341, Note_on_c, 9, 42, 38
12, 17371, Note_on_c, 9, 42, 0
12, 17400, Note_on_c, 9, 42, 34
12, 17430, Note_on_c, 9, 42, 0
12, 17461, Note_on_c, 9, 38, 34
12, 17461, Note_on_c, 9, 42, 35
12, 17491, Note_on_c, 9, 42, 0
12, 17491, Note_on_c, 9, 38, 0
12, 17520, Note_on_c, 9, 42, 37
12, 17550, Note_on_c, 9, 42, 0
12, 17580, Note_on_c, 9, 36, 35
12, 17580, Note_on_c, 9, 42, 35
12, 17610, Note_on_c, 9, 42, 0
12, 17610, Note_on_c, 9, 36, 0
12, 17640, Note_on_c, 9, 36, 37
12, 17640, Note_on_c, 9, 42, 36
12, 17670, Note_on_c, 9, 42, 0
12, 17670, Note_on_c, 9, 36, 0
12, 17701, Note_on_c, 9, 38, 35
12, 17701, Note_on_c, 9, 42, 39
12, 17731, Note_on_c, 9, 42, 0
12, 17731, Note_on_c, 9, 38, 0
12, 17761, Note_on_c, 9, 36, 37
12, 17761, Note_on_c, 9, 49, 36
12, 17791, Note_on_c, 9, 49, 0
12, 17791, Note_on_c, 9, 36, 0
12, 17820, Note_on_c, 9, 42, 38
12, 17850, Note_on_c, 9, 42, 0
12, 17880, Note_on_c, 9, 42, 39
12, 17910, Note_on_c, 9, 42, 0
12, 17941, Note_on_c, 9, 38, 38
12, 17941, Note_on_c, 9, 42, 35
12, 17971, Note_on_c, 9, 42, 0
12, 17971, Note_on_c, 9, 38, 0
12, 18000, Note_on_c, 9, 42, 36
12, 18030, Note_on_c, 9, 42, 0
12, 18060, Note_on_c, 9, 36, 33
12, 18061, Note_on_c, 9, 42, 38
12, 18090, Note_on_c, 9, 36, 0
12, 18091, Note_on_c, 9, 42, 0
12, 18120, Note_on_c, 9, 36, 37
12, 18120, Note_on_c, 9, 42, 33
12, 18150, Note_on_c, 9, 42, 0
12, 18150, Note_on_c, 9, 36, 0
12, 18180, Note_on_c, 9, 38, 37
12, 18181, Note_on_c, 9, 42, 38
12, 18210, Note_on_c, 9, 38, 0
12, 18211, Note_on_c, 9, 42, 0
12, 18241, Note_on_c, 9, 36, 34
12, 18241, Note_on_c, 9, 42, 36
12, 18271, Note_on_c, 9, 42, 0
12, 18271, Note_on_c, 9, 36, 0
12, 18300, Note_on_c, 9, 42, 37
12, 18330, Note_on_c, 9, 42, 0
12, 18360, Note_on_c, 9, 42, 33
12, 18390, Note_on_c, 9, 42, 0
12, 18420, Note_on_c, 9, 38, 34
12, 18421, Note_on_c, 9, 42, 33
12, 18450, Note_on_c, 9, 38, 0
12, 18451, Note_on_c, 9, 42, 0
12, 18480, Note_on_c, 9, 42, 33
12, 18510, Note_on_c, 9, 42, 0
12, 18541, Note_on_c, 9, 36, 39
12, 18541, Note_on_c, 9, 42, 37
12, 18571, Note_on_c, 9, 42, 0
12, 18571, Note_on_c, 9, 36, 0
12, 18601, Note_on_c, 9, 36, 36
12, 18601, Note_on_c, 9, 42, 39
12, 18631, Note_on_c, 9, 42, 0
12, 18631, Note_on_c, 9, 36, 0
12, 18661, Note_on_c, 9, 38, 38
12, 18662, Note_on_c, 9, 42, 37
12, 18691, Note_on_c, 9, 38, 0
12, 18692, Note_on_c, 9, 42, 0
12, 18720, Note_on_c, 9, 36, 35
12, 18720, Note_on_c, 9, 42, 34
12, 18750, Note_on_c, 9, 42, 0
12, 18750, Note_on_c, 9, 36, 0
12, 18780, Note_on_c, 9, 42, 35
12, 18810, Note_on_c, 9, 42, 0
12, 18839, Note_on_c, 9, 42, 34
12, 18869, Note_on_c, 9, 42, 0
12, 18901, Note_on_c, 9, 38, 37
12, 18901, Note_on_c, 9, 42, 35
12, 18931, Note_on_c, 9, 42, 0
12, 18931, Note_on_c, 9, 38, 0
12, 18960, Note_on_c, 9, 42, 39
12, 18990, Note_on_c, 9, 42, 0
12, 19020, Note_on_c, 9, 36, 36
12, 19020, Note_on_c, 9, 42, 38
12, 19050, Note_on_c, 9, 42, 0
12, 19050, Note_on_c, 9, 36, 0
12, 19080, Note_on_c, 9, 36, 33
12, 19080, Note_on_c, 9, 42, 38
12, 19110, Note_on_c, 9, 42, 0
12, 19110, Note_on_c, 9, 36, 0
12, 19141, Note_on_c, 9, 38, 36
12, 19141, Note_on_c, 9, 42, 37
12, 19171, Note_on_c, 9, 42, 0
12, 19171, Note_on_c, 9, 38, 0
12, 19200, Note_on_c, 9, 36, 38
12, 19201, Note_on_c, 9, 42, 35
12, 19230, Note_on_c, 9, 36, 0
12, 19231, Note_on_c, 9, 42, 0
12, 19260, Note_on_c, 9, 42, 39
12, 19290, Note_on_c, 9, 42, 0
12, 19321, Note_on_c, 9, 42, 35
12, 19351, Note_on_c, 9, 42, 0
12, 19379, Note_on_c, 9, 38, 38
12, 19379, Note_on_c, 9, 42, 35
12, 19409, Note_on_c, 9, 42, 0
12, 19409, Note_on_c, 9, 38, 0
12, 19440, Note_on_c, 9, 42, 34
12, 19470, Note_on_c, 9, 42, 0
12, 19501, Note_on_c, 9, 36, 35
12, 19501, Note_on_c, 9, 42, 36
12, 19531, Note_on_c, 9, 42, 0
12, 19531, Note_on_c, 9, 36, 0
12, 19560, Note_on_c, 9, 36, 34
12, 19561, Note_on_c, 9, 42, 38
12, 19590, Note_on_c, 9, 36, 0
12, 19591, Note_on_c, 9, 42, 0
12, 19621, Note_on_c, 9, 38, 37
12, 19621, Note_on_c, 9, 42, 38
12, 19651, Note_on_c, 9, 42, 0
12, 19651, Note_on_c, 9, 38, 0
12, 19680, Note_on_c, 9, 36, 36
12, 19681, Note_on_c, 9, 42, 34
12, 19710, Note_on_c, 9, 36, 0
12, 19711, Note_on_c, 9, 42, 0
12, 19741, Note_on_c, 9, 42, 34
12, 19771, Note_on_c, 9, 42, 0
12, 19801, Note_on_c, 9, 42, 36
12, 19831, Note_on_c, 9, 42, 0
12, 19860, Note_on_c, 9, 38, 35
12, 19860, Note_on_c, 9, 42, 39
12, 19890, Note_on_c, 9, 42, 0
12, 19890, Note_on_c, 9, 38, 0
12, 19919, Note_on_c, 9, 42, 36
12, 19949, Note_on_c, 9, 42, 0
12, 19980, Note_on_c, 9, 36, 34
12, 19980, Note_on_c, 9, 42, 36
12, 20010, Note_on_c, 9, 42, 0
12, 20010, Note_on_c, 9, 36, 0
12, 20040, Note_on_c, 9, 36, 36
12, 20041, Note_on_c, 9, 42, 39
12, 20070, Note_on_c, 9, 36, 0
12, 20071, Note_on_c, 9, 42, 0
12, 20100, Note_on_c, 9, 38, 39
12, 20101, Note_on_c, 9, 42, 35
12, 20130, Note_on_c, 9, 38, 0
12, 20131, Note_on_c, 9, 42, 0
12, 20160, Note_on_c, 9, 36, 38
12, 20161, Note_on_c, 9, 42, 33
12, 20190, Note_on_c, 9, 36, 0
12, 20191, Note_on_c, 9, 42, 0
12, 20221, Note_on_c, 9, 42, 38
12, 20251, Note_on_c, 9, 42, 0
12, 20280, Note_on_c, 9, 42, 35
12, 20310, Note_on_c, 9, 42, 0
12, 20340, Note_on_c, 9, 38, 34
12, 20341, Note_on_c, 9, 42, 38
12, 20370, Note_on_c, 9, 38, 0
12, 20371, Note_on_c, 9, 42, 0
12, 20401, Note_on_c, 9, 42, 33
12, 20431, Note_on_c, 9, 42, 0
12, 20460, Note_on_c, 9, 36, 38
12, 20460, Note_on_c, 9, 42, 35
12, 20490, Note_on_c, 9, 42, 0
12, 20490, Note_on_c, 9, 36, 0
12, 20520, Note_on_c, 9, 36, 36
12, 20521, Note_on_c, 9, 42, 38
12, 20550, Note_on_c, 9, 36, 0
12, 20551, Note_on_c, 9, 42, 0
12, 20581, Note_on_c, 9, 38, 39
12, 20582, Note_on_c, 9, 42, 37
12, 20611, Note_on_c, 9, 38, 0
12, 20612, Note_on_c, 9, 42, 0
12, 20640, Note_on_c, 9, 36, 39
12, 20641, Note_on_c, 9, 42, 33
12, 20670, Note_on_c, 9, 36, 0
12, 20671, Note_on_c, 9, 42, 0
12, 20700, Note_on_c, 9, 42, 34
12, 20730, Note_on_c, 9, 42, 0
12, 20761, Note_on_c, 9, 42, 38
12, 20791, Note_on_c, 9, 42, 0
12, 20820, Note_on_c, 9, 38, 39
12, 20820, Note_on_c, 9, 42, 36
12, 20850, Note_on_c, 9, 42, 0
12, 20850, Note_on_c, 9, 38, 0
12, 20881, Note_on_c, 9, 42, 39
12, 20911, Note_on_c, 9, 42, 0
12, 20940, Note_on_c, 9, 36, 33
12, 20940, Note_on_c, 9, 42, 34
12, 20970, Note_on_c, 9, 42, 0
12, 20970, Note_on_c, 9, 36, 0
12, 21000, Note_on_c, 9, 36, 37
12, 21000, Note_on_c, 9, 42, 34
12, 21030, Note_on_c, 9, 42, 0
12, 21030, Note_on_c, 9, 36, 0
12, 21061, Note_on_c, 9, 38, 39
12, 21061, Note_on_c, 9, 42, 39
12, 21091, Note_on_c, 9, 42, 0
12, 21091, Note_on_c, 9, 38, 0
12, 21121, Note_on_c, 9, 36, 39
12, 21121, Note_on_c, 9, 42, 35
12, 21151, Note_on_c, 9, 42, 0
12, 21151, Note_on_c, 9, 36, 0
12, 21180, Note_on_c, 9, 42, 39
12, 21210, Note_on_c, 9, 42, 0
12, 21240, Note_on_c, 9, 42, 37
12, 21270, Note_on_c, 9, 42, 0
12, 21299, Note_on_c, 9, 38, 33
12, 21300, Note_on_c, 9, 42, 34
12, 21329, Note_on_c, 9, 38, 0
12, 21330, Note_on_c, 9, 42, 0
12, 21361, Note_on_c, 9, 42, 38
12, 21391, Note_on_c, 9, 42, 0
12, 21420, Note_on_c, 9, 36, 37
12, 21421, Note_on_c, 9, 42, 35
12, 21450, Note_on_c, 9, 36, 0
12, 21451, Note_on_c, 9, 42, 0
12, 21480, Note_on_c, 9, 36, 33
12, 21480, Note_on_c, 9, 42, 37
12, 21510, Note_on_c, 9, 42, 0
12, 21510, Note_on_c, 9, 36, 0
12, 21541, Note_on_c, 9, 38, 38
12, 21542, Note_on_c, 9, 42, 36
12, 21571, Note_on_c, 9, 38, 0
12, 21572, Note_on_c, 9, 42, 0
12, 21599, Note_on_c, 9, 36, 38
12, 21599, Note_on_c, 9, 49, 39
12, 21629, Note_on_c, 9, 49, 0
12, 21629, Note_on_c, 9, 36, 0
12, 21661, Note_on_c, 9, 42, 37
12, 21691, Note_on_c, 9, 42, 0
12, 21720, Note_on_c, 9, 42, 33
12, 21750, Note_on_c, 9, 42, 0
12, 21780, Note_on_c, 9, 38, 38
12, 21780, Note_on_c, 9, 42, 35
12, 21810, Note_on_c, 9, 42, 0
12, 21810, Note_on_c, 9, 38, 0
12, 21840, Note_on_c, 9, 42, 38
12, 21870, Note_on_c, 9, 42, 0
12, 21901, Note_on_c, 9, 36, 34
12, 21901, Note_on_c, 9, 42, 37
12, 21931, Note_on_c, 9, 42, 0
12, 21931, Note_on_c, 9, 36, 0
12, 21960, Note_on_c, 9, 36, 34
12, 21961, Note_on_c, 9, 42, 39
12, 21990, Note_on_c, 9, 36, 0
12, 21991, Note_on_c, 9, 42, 0
12, 22021, Note_on_c, 9, 38, 33
12, 22021, Note_on_c, 9, 42, 34
12, 22051, Note_on_c, 9, 42, 0
12, 22051, Note_on_c, 9, 38, 0
12, 22080, Note_on_c, 9, 36, 34
12, 22080, Note_on_c, 9, 42, 35
12, 22110, Note_on_c, 9, 42, 0
12, 22110, Note_on_c, 9, 36, 0
12, 22141, Note_on_c, 9, 42, 35
12, 22171, Note_on_c, 9, 42, 0
12, 22201, Note_on_c, 9, 42, 35
12, 22231, Note_on_c, 9, 42, 0
12, 22261, Note_on_c, 9, 38, 39
12, 22261, Note_on_c, 9, 42, 36
12, 22291, Note_on_c, 9, 42, 0
12, 22291, Note_on_c, 9, 38, 0
12, 22320, Note_on_c, 9, 42, 37
12, 22350, Note_on_c, 9, 42, 0
12, 22381, Note_on_c, 9, 36, 35
12, 22382, Note_on_c, 9, 42, 36
12, 22411, Note_on_c, 9, 36, 0
12, 22412, Note_on_c, 9, 42, 0
12, 22440, Note_on_c, 9, 36, 39
12, 22441, Note_on_c, 9, 42, 36
12, 22470, Note_on_c, 9, 36, 0
12, 22471, Note_on_c, 9, 42, 0
12, 22501, Note_on_c, 9, 38, 37
12, 22501, Note_on_c, 9, 42, 34
12, 22531, Note_on_c, 9, 42, 0
12, 22531, Note_on_c, 9, 38, 0
12, 22560, Note_on_c, 9, 36, 37
12, 22560, Note_on_c, 9, 42, 39
12, 22590, Note_on_c, 9, 42, 0
12, 22590, Note_on_c, 9, 36, 0
12, 22621, Note_on_c, 9, 42, 34
12, 22651, Note_on_c, 9, 42, 0
12, 22681, Note_on_c, 9, 42, 34
12, 22711, Note_on_c, 9, 42, 0
12, 22740, Note_on_c, 9, 38, 33
12, 22740, Note_on_c, 9, 42, 34
12, 22770, Note_on_c, 9, 42, 0
12, 22770, Note_on_c, 9, 38, 0
12, 22801, Note_on_c, 9, 42, 34
12, 22831, Note_on_c, 9, 42, 0
12, 22860, Note_on_c, 9, 36, 36
12, 22861, Note_on_c, 9, 42, 38
12, 22890, Note_on_c, 9, 36, 0
12, 22891, Note_on_c, 9, 42, 0
12, 22920, Note_on_c, 9, 36, 39
12, 22921, Note_on_c, 9, 42, 37
12, 22950, Note_on_c, 9, 36, 0
12, 22951, Note_on_c, 9, 42, 0
12, 22981, Note_on_c, 9, 38, 35
12, 22982, Note_on_c, 9, 42, 33
12, 23011, Note_on_c, 9, 38, 0
12, 23012, Note_on_c, 9, 42, 0
12, 23041, Note_on_c, 9, 36, 37
12, 23042, Note_on_c, 9, 42, 37
12, 23071, Note_on_c, 9, 36, 0
12, 23072, Note_on_c, 9, 42, 0
12, 23100, Note_on_c, 9, 42, 35
12, 23130, Note_on_c, 9, 42, 0
12, 23160, Note_on_c, 9, 42, 34
12, 23190, Note_on_c, 9, 42, 0
12, 23220, Note_on_c, 9, 38, 35
12, 23220, Note_on_c, 9, 42, 37
12, 23250, Note_on_c, 9, 42, 0
12, 23250, Note_on_c, 9, 38, 0
12, 23280, Note_on_c, 9, 42, 36
12, 23310, Note_on_c, 9, 42, 0
12, 23341, Note_on_c, 9, 36, 37
12, 23341, Note_on_c, 9, 42, 35
12, 23371, Note_on_c, 9, 42, 0
12, 23371, Note_on_c, 9, 36, 0
12, 23401, Note_on_c, 9, 36, 33
12, 23401, Note_on_c, 9, 42, 33
12, 23431, Note_on_c, 9, 42, 0
12, 23431, Note_on_c, 9, 36, 0
12, 23461, Note_on_c, 9, 38, 34
12, 23461, Note_on_c, 9, 42, 35
12, 23491, Note_on_c, 9, 42, 0
12, 23491, Note_on_c, 9, 38, 0
12, 23521, Note_on_c, 9, 36, 38
12, 23521, Note_on_c, 9, 42, 34
12, 23551, Note_on_c, 9, 42, 0
12, 23551, Note_on_c, 9, 36, 0
12, 23581, Note_on_c, 9, 42, 35
12, 23611, Note_on_c, 9, 42, 0
12, 23641, Note_on_c, 9, 42, 33
12, 23671, Note_on_c, 9, 42, 0
12, 23700, Note_on_c, 9, 38, 34
12, 23700, Note_on_c, 9, 42, 39
12, 23730, Note_on_c, 9, 42, 0
12, 23730, Note_on_c, 9, 38, 0
12, 23760, Note_on_c, 9, 42, 33
12, 23790, Note_on_c, 9, 42, 0
12, 23821, Note_on_c, 9, 36, 34
12, 23822, Note_on_c, 9, 42, 38
12, 23851, Note_on_c, 9, 36, 0
12, 23852, Note_on_c, 9, 42, 0
12, 23881, Note_on_c, 9, 36, 37
12, 23881, Note_on_c, 9, 42, 39
12, 23911, Note_on_c, 9, 42, 0
12, 23911, Note_on_c, 9, 36, 0
12, 23940, Note_on_c, 9, 38, 38
12, 23941, Note_on_c, 9, 42, 33
12, 23970, Note_on_c, 9, 38, 0
12, 23971, Note_on_c, 9, 42, 0
12, 24001, Note_on_c, 9, 36, 34
12, 24001, Note_on_c, 9, 42, 36
12, 24031, Note_on_c, 9, 42, 0
12, 24031, Note_on_c, 9, 36, 0
12, 24061, Note_on_c, 9, 42, 34
12, 24091, Note_on_c, 9, 42, 0
12, 24121, Note_on_c, 9, 42, 33
12, 24151, Note_on_c, 9, 42, 0
12, 24180, Note_on_c, 9, 38, 33
12, 24181, Note_on_c, 9, 42, 37
12, 24210, Note_on_c, 9, 38, 0
12, 24211, Note_on_c, 9, 42, 0
12, 24240, Note_on_c, 9, 42, 38
12, 24270, Note_on_c, 9, 42, 0
12, 24301, Note_on_c, 9, 36, 35
12, 24301, Note_on_c, 9, 42, 39
12, 24331, Note_on_c, 9, 42, 0
12, 24331, Note_on_c, 9, 36, 0
12, 24360, Note_on_c, 9, 36, 37
12, 24361, Note_on_c, 9, 42, 38
12, 24390, Note_on_c, 9, 36, 0
12, 24391, Note_on_c, 9, 42, 0
12, 24421, Note_on_c, 9, 38, 38
12, 24421, Note_on_c, 9, 42, 36
12, 24451, Note_on_c, 9, 42, 0
12, 24451, Note_on_c, 9, 38, 0
12, 24481, Note_on_c, 9, 36, 35
12, 24482, Note_on_c, 9, 42, 37
12, 24511, Note_on_c, 9, 36, 0
12, 24512, Note_on_c, 9, 42, 0
12, 24541, Note_on_c, 9, 42, 36
12, 24571, Note_on_c, 9, 42, 0
12, 24601, Note_on_c, 9, 42, 33
12, 24631, Note_on_c, 9, 42, 0
12, 24661, Note_on_c, 9, 38, 38
12, 24661, Note_on_c, 9, 42, 35
12, 24691, Note_on_c, 9, 42, 0
12, 24691, Note_on_c, 9, 38, 0
12, 24720, Note_on_c, 9, 42, 38
12, 24750, Note_on_c, 9, 42, 0
12, 24781, Note_on_c, 9, 36, 35
12, 24781, Note_on_c, 9, 42, 36
12, 24811, Note_on_c, 9, 42, 0
12, 24811, Note_on_c, 9, 36, 0
12, 24839, Note_on_c, 9, 36, 34
12, 24840, Note_on_c, 9, 42, 33
12, 24869, Note_on_c, 9, 36, 0
12, 24870, Note_on_c, 9, 42, 0
12, 24901, Note_on_c, 9, 38, 33
12, 24901, Note_on_c, 9, 42, 38
12, 24931, Note_on_c, 9, 42, 0
12, 24931, Note_on_c, 9, 38, 0
12, 24961, Note_on_c, 9, 36, 38
12, 24962, Note_on_c, 9, 42, 37
12, 24991, Note_on_c, 9, 36, 0
12, 24992, Note_on_c, 9, 42, 0
12, 25020, Note_on_c, 9, 42, 35
12, 25050, Note_on_c, 9, 42, 0
12, 25081, Note_on_c, 9, 42, 34
12, 25111, Note_on_c, 9, 42, 0
12, 25141, Note_on_c, 9, 38, 38
12, 25141, Note_on_c, 9, 42, 34
12, 25171, Note_on_c, 9, 42, 0
12, 25171, Note_on_c, 9, 38, 0
12, 25201, Note_on_c, 9, 42, 33
12, 25231, Note_on_c, 9, 42, 0
12, 25260, Note_on_c, 9, 36, 36
12, 25261, Note_on_c, 9, 42, 37
12, 25290, Note_on_c, 9, 36, 0
12, 25291, Note_on_c, 9, 42, 0
12, 25319, Note_on_c, 9, 36, 37
12, 25320, Note_on_c, 9, 42, 33
12, 25349, Note_on_c, 9, 36, 0
12, 25350, Note_on_c, 9, 42, 0
12, 25380, Note_on_c, 9, 38, 37
12, 25381, Note_on_c, 9, 42, 34
12, 25410, Note_on_c, 9, 38, 0
12, 25411, Note_on_c, 9, 42, 0
12, 25440, Note_on_c, 9, 36, 36
12, 25440, Note_on_c, 9, 49, 36
12, 25470, Note_on_c, 9, 49, 0
12, 25470, Note_on_c, 9, 36, 0
12, 25501, Note_on_c, 9, 42, 34
12, 25531, Note_on_c, 9, 42, 0
12, 25560, Note_on_c, 9, 42, 38
12, 25590, Note_on_c, 9, 42, 0
12, 25619, Note_on_c, 9, 38, 36
12, 25619, Note_on_c, 9, 42, 38
12, 25649, Note_on_c, 9, 42, 0
12, 25649, Note_on_c, 9, 38, 0
12, 25681, Note_on_c, 9, 42, 34
12, 25711, Note_on_c, 9, 42, 0
12, 25740, Note_on_c, 9, 36, 33
12, 25741, Note_on_c, 9, 42, 37
12, 25770, Note_on_c, 9, 36, 0
12, 25771, Note_on_c, 9, 42, 0
12, 25800, Note_on_c, 9, 36, 39
12, 25801, Note_on_c, 9, 42, 34
12, 25830, Note_on_c, 9, 36, 0
12, 25831, Note_on_c, 9, 42, 0
12, 25861, Note_on_c, 9, 38, 36
12, 25861, Note_on_c, 9, 42, 35
12, 25891, Note_on_c, 9, 42, 0
12, 25891, Note_on_c, 9, 38, 0
12, 25920, Note_on_c, 9, 36, 39
12, 25921, Note_on_c, 9, 42, 38
12, 25950, Note_on_c, 9, 36, 0
12, 25951, Note_on_c, 9, 42, 0
12, 25981, Note_on_c, 9, 42, 36
12, 26011, Note_on_c, 9, 42, 0
12, 26040, Note_on_c, 9, 42, 33
12, 26070, Note_on_c, 9, 42, 0
12, 26100, Note_on_c, 9, 38, 39
12, 26100, Note_on_c, 9, 42, 35
12, 26130, Note_on_c, 9, 42, 0
12, 26130, Note_on_c, 9, 38, 0
12, 26160, Note_on_c, 9, 42, 38
12, 26190, Note_on_c, 9, 42, 0
12, 26220, Note_on_c, 9, 36, 37
12, 26220, Note_on_c, 9, 42, 37
12, 26250, Note_on_c, 9, 42, 0
12, 26250, Note_on_c, 9, 36, 0
12, 26280, Note_on_c, 9, 36, 33
12, 26281, Note_on_c, 9, 42, 33
12, 26310, Note_on_c, 9, 36, 0
12, 26311, Note_on_c, 9, 42, 0
12, 26340, Note_on_c, 9, 38, 34
12, 26340, Note_on_c, 9, 42, 38
12, 26370, Note_on_c, 9, 42, 0
12, 26370, Note_on_c, 9, 38, 0
12, 26400, Note_on_c, 9, 36, 34
12, 26400, Note_on_c, 9, 42, 33
12, 26430, Note_on_c, 9, 42, 0
12, 26430, Note_on_c, 9, 36, 0
12, 26459, Note_on_c, 9, 42, 36
12, 26489, Note_on_c, 9, 42, 0
12, 26520, Note_on_c, 9, 42, 35
12, 26550, Note_on_c, 9, 42, 0
12, 26580, Note_on_c, 9, 38, 34
12, 26581, Note_on_c, 9, 42, 37
12, 26610, Note_on_c, 9, 38, 0
12, 26611, Note_on_c, 9, 42, 0
12, 26641, Note_on_c, 9, 42, 39
12, 26671, Note_on_c, 9, 42, 0
12, 26701, Note_on_c, 9, 36, 36
12, 26702, Note_on_c, 9, 42, 33
12, 26731, Note_on_c, 9, 36, 0
12, 26732, Note_on_c, 9, 42, 0
12, 26760, Note_on_c, 9, 36, 34
12, 26760, Note_on_c, 9, 42, 33
12, 26790, Note_on_c, 9, 42, 0
12, 26790, Note_on_c, 9, 36, 0
12, 26820, Note_on_c, 9, 38, 34
12, 26820, Note_on_c, 9, 42, 35
12, 26850, Note_on_c, 9, 42, 0
12, 26850, Note_on_c, 9, 38, 0
12, 26881, Note_on_c, 9, 36, 37
12, 26881, Note_on_c, 9, 42, 34
12, 26911, Note_on_c, 9, 42, 0
12, 26911, Note_on_c, 9, 36, 0
12, 26941, Note_on_c, 9, 42, 35
12, 26971, Note_on_c, 9, 42, 0
12, 27001, Note_on_c, 9, 42, 33
12, 27031, Note_on_c, 9, 42, 0
12, 27061, Note_on_c, 9, 38, 38
12, 27061, Note_on_c, 9, 42, 33
12, 27091, Note_on_c, 9, 42, 0
12, 27091, Note_on_c, 9, 38, 0
12, 27119, Note_on_c, 9, 42, 33
12, 27149, Note_on_c, 9, 42, 0
12, 27180, Note_on_c, 9, 36, 39
12, 27181, Note_on_c, 9, 42, 38
12, 27210, Note_on_c, 9, 36, 0
12, 27211, Note_on_c, 9, 42, 0
12, 27240, Note_on_c, 9, 36, 36
12, 27241, Note_on_c, 9, 42, 38
12, 27270, Note_on_c, 9, 36, 0
12, 27271, Note_on_c, 9, 42, 0
12, 27300, Note_on_c, 9, 38, 36
12, 27301, Note_on_c, 9, 42, 33
12, 27330, Note_on_c, 9, 38, 0
12, 27331, Note_on_c, 9, 42, 0
12, 27360, Note_on_c, 9, 36, 33
12, 27361, Note_on_c, 9, 42, 38
12, 27390, Note_on_c, 9, 36, 0
12, 27391, Note_on_c, 9, 42, 0
12, 27421, Note_on_c, 9, 42, 38
12, 27451, Note_on_c, 9, 42, 0
12, 27480, Note_on_c, 9, 42, 36
12, 27510, Note_on_c, 9, 42, 0
12, 27541, Note_on_c, 9, 38, 38
12, 27541, Note_on_c, 9, 42, 33
12, 27571, Note_on_c, 9, 42, 0
12, 27571, Note_on_c, 9, 38, 0
12, 27599, Note_on_c, 9, 42, 34
12, 27629, Note_on_c, 9, 42, 0
12, 27661, Note_on_c, 9, 36, 38
12, 27662, Note_on_c, 9, 42, 34
12, 27691, Note_on_c, 9, 36, 0
12, 27692, Note_on_c, 9, 42, 0
12, 27720, Note_on_c, 9, 36, 35
12, 27721, Note_on_c, 9, 42, 38
12, 27750, Note_on_c, 9, 36, 0
12, 27751, Note_on_c, 9, 42, 0
12, 27781, Note_on_c, 9, 38, 35
12, 27781, Note_on_c, 9, 42, 38
12, 27811, Note_on_c, 9, 42, 0
12, 27811, Note_on_c, 9, 38, 0
12, 27841, Note_on_c, 9, 36, 33
12, 27841, Note_on_c, 9, 42, 38
12, 27871, Note_on_c, 9, 42, 0
12, 27871, Note_on_c, 9, 36, 0
12, 27901, Note_on_c, 9, 42, 35
12, 27931, Note_on_c, 9, 42, 0
12, 27961, Note_on_c, 9, 42, 38
12, 27991, Note_on_c, 9, 42, 0
12, 28019, Note_on_c, 9, 38, 39
12, 28020, Note_on_c, 9, 42, 39
12, 28049, Note_on_c, 9, 38, 0
12, 28050, Note_on_c, 9, 42, 0
12, 28080, Note_on_c, 9, 42, 35
12, 28110, Note_on_c, 9, 42, 0
12, 28140, Note_on_c, 9, 36, 37
12, 28140, Note_on_c, 9, 42, 37
12, 28170, Note_on_c, 9, 42, 0
12, 28170, Note_on_c, 9, 36, 0
12, 28199, Note_on_c, 9, 36, 37
12, 28200, Note_on_c, 9, 42, 37
12, 28229, Note_on_c, 9, 36, 0
12, 28230, Note_on_c, 9, 42, 0
12, 28261, Note_on_c, 9, 38, 39
12, 28261, Note_on_c, 9, 42, 34
12, 28291, Note_on_c, 9, 42, 0
12, 28291, Note_on_c, 9, 38, 0
12, 28321, Note_on_c, 9, 36, 37
12, 28321, Note_on_c, 9, 42, 37
12, 28351, Note_on_c, 9, 42, 0
12, 28351, Note_on_c, 9, 36, 0
12, 28381, Note_on_c, 9, 42, 38
12, 28411, Note_on_c, 9, 42, 0
12, 28441, Note_on_c, 9, 42, 33
12, 28471, Note_on_c, 9, 42, 0
12, 28500, Note_on_c, 9, 38, 38
12, 28500, Note_on_c, 9, 42, 39
12, 28530, Note_on_c, 9, 42, 0
12, 28530, Note_on_c, 9, 38, 0
12, 28560, Note_on_c, 9, 42, 33
12, 28590, Note_on_c, 9, 42, 0
12, 28620, Note_on_c, 9, 36, 39
12, 28620, Note_on_c, 9, 42, 37
12, 28650, Note_on_c, 9, 42, 0
12, 28650, Note_on_c, 9, 36, 0
12, 28681, Note_on_c, 9, 36, 34
12, 28681, Note_on_c, 9, 42, 35
12, 28711, Note_on_c, 9, 42, 0
12, 28711, Note_on_c, 9, 36, 0
12, 28740, Note_on_c, 9, 38, 33
12, 28740, Note_on_c, 9, 42, 38
12, 28770, Note_on_c, 9, 42, 0
12, 28770, Note_on_c, 9, 38, 0
12, 28800, Note_on_c, 9, 36, 38
12, 28800, Note_on_c, 9, 42, 38
12, 28830, Note_on_c, 9, 42, 0
12, 28830, Note_on_c, 9, 36, 0
12, 28861, Note_on_c, 9, 42, 33
12, 28891, Note_on_c, 9, 42, 0
12, 28921, Note_on_c, 9, 42, 37
12, 28951, Note_on_c, 9, 42, 0
12, 28979, Note_on_c, 9, 38, 39
12, 28979, Note_on_c, 9, 42, 39
12, 29009, Note_on_c, 9, 42, 0
12, 29009, Note_on_c, 9, 38, 0
12, 29041, Note_on_c, 9, 42, 34
12, 29071, Note_on_c, 9, 42, 0
12, 29100, Note_on_c, 9, 36, 33
12, 29101, Note_on_c, 9, 42, 34
12, 29130, Note_on_c, 9, 36, 0
12, 29131, Note_on_c, 9, 42, 0
12, 29161, Note_on_c, 9, 36, 38
12, 29161, Note_on_c, 9, 42, 37
12, 29191, Note_on_c, 9, 42, 0
12, 29191, Note_on_c, 9, 36, 0
12, 29220, Note_on_c, 9, 38, 38
12, 29220, Note_on_c, 9, 42, 33
12, 29250, Note_on_c, 9, 42, 0
12, 29250, Note_on_c, 9, 38, 0
12, 29281, Note_on_c, 9, 36, 37
12, 29311, Note_on_c, 9, 36, 0
12, 29341, Note_on_c, 9, 42, 36
12, 29371, Note_on_c, 9, 42, 0
12, 29400, Note_on_c, 9, 42, 38
12, 29430, Note_on_c, 9, 42, 0
12, 29460, Note_on_c, 9, 38, 39
12, 29460, Note_on_c, 9, 42, 39
12, 29490, Note_on_c, 9, 42, 0
12, 29490, Note_on_c, 9, 38, 0
12, 29520, Note_on_c, 9, 42, 36
12, 29550, Note_on_c, 9, 42, 0
12, 29580, Note_on_c, 9, 36, 33
12, 29580, Note_on_c, 9, 42, 37
12, 29610, Note_on_c, 9, 42, 0
12, 29610, Note_on_c, 9, 36, 0
12, 29640, Note_on_c, 9, 36, 34
12, 29640, Note_on_c, 9, 42, 35
12, 29670, Note_on_c, 9, 42, 0
12, 29670, Note_on_c, 9, 36, 0
12, 29700, Note_on_c, 9, 38, 33
12, 29700, Note_on_c, 9, 42, 37
12, 29730, Note_on_c, 9, 42, 0
12, 29730, Note_on_c, 9, 38, 0
12, 29761, Note_on_c, 9, 36, 39
12, 29762, Note_on_c, 9, 42, 34
12, 29791, Note_on_c, 9, 36, 0
12, 29792, Note_on_c, 9, 42, 0
12, 29821, Note_on_c, 9, 42, 39
12, 29851, Note_on_c, 9, 42, 0
12, 29880, Note_on_c, 9, 42, 38
12, 29910, Note_on_c, 9, 42, 0
12, 29941, Note_on_c, 9, 38, 37
12, 29941, Note_on_c, 9, 42, 35
12, 29971, Note_on_c, 9, 42, 0
12, 29971, Note_on_c, 9, 38, 0
12, 30000, Note_on_c, 9, 42, 38
12, 30030, Note_on_c, 9, 42, 0
12, 30060, Note_on_c, 9, 36, 34
12, 30061, Note_on_c, 9, 42, 37
12, 30090, Note_on_c, 9, 36, 0
12, 30091, Note_on_c, 9, 42, 0
12, 30120, Note_on_c, 9, 36, 36
12, 30120, Note_on_c, 9, 42, 33
12, 30150, Note_on_c, 9, 42, 0
12, 30150, Note_on_c, 9, 36, 0
12, 30180, Note_on_c, 9, 38, 38
12, 30180, Note_on_c, 9, 42, 36
12, 30210, Note_on_c, 9, 42, 0
12, 30210, Note_on_c, 9, 38, 0
12, 30241, Note_on_c, 9, 36, 35
12, 30241, Note_on_c, 9, 42, 38
12, 30271, Note_on_c, 9, 42, 0
12, 30271, Note_on_c, 9, 36, 0
12, 30301, Note_on_c, 9, 42, 36
12, 30331, Note_on_c, 9, 42, 0
12, 30361, Note_on_c, 9, 42, 36
12, 30391, Note_on_c, 9, 42, 0
12, 30420, Note_on_c, 9, 38, 36
12, 30421, Note_on_c, 9, 42, 39
12, 30450, Note_on_c, 9, 38, 0
12, 30451, Note_on_c, 9, 42, 0
12, 30480, Note_on_c, 9, 42, 37
12, 30510, Note_on_c, 9, 42, 0
12, 30541, Note_on_c, 9, 36, 34
12, 30542, Note_on_c, 9, 42, 33
12, 30571, Note_on_c, 9, 36, 0
12, 30572, Note_on_c, 9, 42, 0
12, 30600, Note_on_c, 9, 36, 33
12, 30601, Note_on_c, 9, 42, 35
12, 30630, Note_on_c, 9, 36, 0
12, 30631, Note_on_c, 9, 42, 0
12, 30660, Note_on_c, 9, 38, 34
12, 30660, Note_on_c, 9, 42, 33
12, 30690, Note_on_c, 9, 42, 0
12, 30690, Note_on_c, 9, 38, 0
12, 30720, Note_on_c, 9, 36, 37
12, 30721, Note_on_c, 9, 42, 38
12, 30750, Note_on_c, 9, 36, 0
12, 30751, Note_on_c, 9, 42, 0
12, 30780, Note_on_c, 9, 42, 37
12, 30810, Note_on_c, 9, 42, 0
12, 30841, Note_on_c, 9, 42, 37
12, 30871, Note_on_c, 9, 42, 0
12, 30901, Note_on_c, 9, 38, 37
12, 30901, Note_on_c, 9, 42, 37
12, 30931, Note_on_c, 9, 42, 0
12, 30931, Note_on_c, 9, 38, 0
12, 30960, Note_on_c, 9, 42, 38
12, 30990, Note_on_c, 9, 42, 0
12, 31021, Note_on_c, 9, 36, 37
12, 31021, Note_on_c, 9, 42, 34
12, 31051, Note_on_c, 9, 42, 0
12, 31051, Note_on_c, 9, 36, 0
12, 31081, Note_on_c, 9, 36, 33
12, 31081, Note_on_c, 9, 42, 38
12, 31111, Note_on_c, 9, 42, 0
12, 31111, Note_on_c, 9, 36, 0
12, 31141, Note_on_c, 9, 38, 33
12, 31141, Note_on_c, 9, 42, 33
12, 31171, Note_on_c, 9, 42, 0
12, 31171, Note_on_c, 9, 38, 0
12, 31200, Note_on_c, 9, 36, 34
12, 31200, Note_on_c, 9, 42, 36
12, 31230, Note_on_c, 9, 42, 0
12, 31230, Note_on_c, 9, 36, 0
12, 31260, Note_on_c, 9, 42, 39
12, 31290, Note_on_c, 9, 42, 0
12, 31320, Note_on_c, 9, 42, 38
12, 31350, Note_on_c, 9, 42, 0
12, 31380, Note_on_c, 9, 38, 35
12, 31380, Note_on_c, 9, 42, 39
12, 31410, Note_on_c, 9, 42, 0
12, 31410, Note_on_c, 9, 38, 0
12, 31439, Note_on_c, 9, 42, 33
12, 31469, Note_on_c, 9, 42, 0
12, 31501, Note_on_c, 9, 36, 35
12, 31501, Note_on_c, 9, 42, 35
12, 31531, Note_on_c, 9, 42, 0
12, 31531, Note_on_c, 9, 36, 0
12, 31560, Note_on_c, 9, 36, 39
12, 31560, Note_on_c, 9, 42, 34
12, 31590, Note_on_c, 9, 42, 0
12, 31590, Note_on_c, 9, 36, 0
12, 31620, Note_on_c, 9, 38, 37
12, 31621, Note_on_c, 9, 42, 35
12, 31650, Note_on_c, 9, 38, 0
12, 31651, Note_on_c, 9, 42, 0
12, 31681, Note_on_c, 9, 36, 37
12, 31681, Note_on_c, 9, 42, 39
12, 31711, Note_on_c, 9, 42, 0
12, 31711, Note_on_c, 9, 36, 0
12, 31741, Note_on_c, 9, 42, 33
12, 31771, Note_on_c, 9, 42, 0
12, 31800, Note_on_c, 9, 42, 38
12, 31830, Note_on_c, 9, 42, 0
12, 31859, Note_on_c, 9, 38, 39
12, 31860, Note_on_c, 9, 42, 35
12, 31889, Note_on_c, 9, 38, 0
12, 31890, Note_on_c, 9, 42, 0
12, 31919, Note_on_c, 9, 42, 35
12, 31949, Note_on_c, 9, 42, 0
12, 31981, Note_on_c, 9, 36, 36
12, 31981, Note_on_c, 9, 42, 34
12, 32011, Note_on_c, 9, 42, 0
12, 32011, Note_on_c, 9, 36, 0
12, 32040, Note_on_c, 9, 36, 36
12, 32040, Note_on_c, 9, 42, 37
12, 32070, Note_on_c, 9, 42, 0
12, 32070, Note_on_c, 9, 36, 0
12, 32100, Note_on_c, 9, 38, 36
12, 32101, Note_on_c, 9, 42, 35
12, 32130, Note_on_c, 9, 38, 0
12, 32131, Note_on_c, 9, 42, 0
12, 32160, Note_on_c, 9, 36, 37
12, 32160, Note_on_c, 9, 42, 37
12, 32190, Note_on_c, 9, 42, 0
12, 32190, Note_on_c, 9, 36, 0
12, 32221, Note_on_c, 9, 42, 34
12, 32251, Note_on_c, 9, 42, 0
12, 32281, Note_on_c, 9, 42, 35
12, 32311, Note_on_c, 9, 42, 0
12, 32341, Note_on_c, 9, 38, 35
12, 32341, Note_on_c, 9, 42, 34
12, 32371, Note_on_c, 9, 42, 0
12, 32371, Note_on_c, 9, 38, 0
12, 32400, Note_on_c, 9, 42, 36
12, 32430, Note_on_c, 9, 42, 0
12, 32461, Note_on_c, 9, 36, 35
12, 32461, Note_on_c, 9, 42, 38
12, 32491, Note_on_c, 9, 42, 0
12, 32491, Note_on_c, 9, 36, 0
12, 32520, Note_on_c, 9, 36, 36
12, 32521, Note_on_c, 9, 42, 37
12, 32550, Note_on_c, 9, 36, 0
12, 32551, Note_on_c, 9, 42, 0
12, 32580, Note_on_c, 9, 38, 38
12, 32581, Note_on_c, 9, 42, 35
12, 32610, Note_on_c, 9, 38, 0
12, 32611, Note_on_c, 9, 42, 0
12, 32640, Note_on_c, 9, 36, 38
12, 32640, Note_on_c, 9, 42, 38
12, 32670, Note_on_c, 9, 42, 0
12, 32670, Note_on_c, 9, 36, 0
12, 32701, Note_on_c, 9, 42, 35
12, 32731, Note_on_c, 9, 42, 0
12, 32760, Note_on_c, 9, 42, 33
12, 32790, Note_on_c, 9, 42, 0
12, 32821, Note_on_c, 9, 38, 37
12, 32821, Note_on_c, 9, 42, 37
12, 32851, Note_on_c, 9, 42, 0
12, 32851, Note_on_c, 9, 38, 0
12, 32880, Note_on_c, 9, 42, 37
12, 32910, Note_on_c, 9, 42, 0
12, 32941, Note_on_c, 9, 36, 35
12, 32942, Note_on_c, 9, 42, 33
12, 32971, Note_on_c, 9, 36, 0
12, 32972, Note_on_c, 9, 42, 0
12, 33000, Note_on_c, 9, 36, 34
12, 33000, Note_on_c, 9, 42, 38
12, 33030, Note_on_c, 9, 42, 0
12, 33030, Note_on_c, 9, 36, 0
12, 33061, Note_on_c, 9, 38, 36
12, 33062, Note_on_c, 9, 42, 39
12, 33091, Note_on_c, 9, 38, 0
12, 33092, Note_on_c, 9, 42, 0
12, 33121, Note_on_c, 9, 36, 36
12, 33122, Note_on_c, 9, 49, 36
12, 33151, Note_on_c, 9, 36, 0
12, 33152, Note_on_c, 9, 49, 0
12, 33180, Note_on_c, 9, 42, 37
12, 33210, Note_on_c, 9, 42, 0
12, 33241, Note_on_c, 9, 42, 35
12, 33271, Note_on_c, 9, 42, 0
12, 33300, Note_on_c, 9, 38, 36
12, 33301, Note_on_c, 9, 42, 33
12, 33330, Note_on_c, 9, 38, 0
12, 33331, Note_on_c, 9, 42, 0
12, 33360, Note_on_c, 9, 42, 37
12, 33390, Note_on_c, 9, 42, 0
12, 33421, Note_on_c, 9, 36, 39
12, 33422, Note_on_c, 9, 42, 39
12, 33451, Note_on_c, 9, 36, 0
12, 33452, Note_on_c, 9, 42, 0
12, 33480, Note_on_c, 9, 36, 39
12, 33481, Note_on_c, 9, 42, 34
12, 33510, Note_on_c, 9, 36, 0
12, 33511, Note_on_c, 9, 42, 0
12, 33541, Note_on_c, 9, 38, 34
12, 33541, Note_on_c, 9, 42, 34
12, 33571, Note_on_c, 9, 42, 0
12, 33571, Note_on_c, 9, 38, 0
12, 33601, Note_on_c, 9, 36, 39
12, 33601, Note_on_c, 9, 42, 34
12, 33631, Note_on_c, 9, 42, 0
12, 33631, Note_on_c, 9, 36, 0
12, 33660, Note_on_c, 9, 42, 37
12, 33690, Note_on_c, 9, 42, 0
12, 33721, Note_on_c, 9, 42, 37
12, 33751, Note_on_c, 9, 42, 0
12, 33780, Note_on_c, 9, 38, 33
12, 33780, Note_on_c, 9, 42, 38
12, 33810, Note_on_c, 9, 42, 0
12, 33810, Note_on_c, 9, 38, 0
12, 33840, Note_on_c, 9, 42, 37
12, 33870, Note_on_c, 9, 42, 0
12, 33900, Note_on_c, 9, 36, 38
12, 33901, Note_on_c, 9, 42, 36
12, 33930, Note_on_c, 9, 36, 0
12, 33931, Note_on_c, 9, 42, 0
12, 33960, Note_on_c, 9, 36, 37
12, 33960, Note_on_c, 9, 42, 34
12, 33990, Note_on_c, 9, 42, 0
12, 33990, Note_on_c, 9, 36, 0
12, 34021, Note_on_c, 9, 38, 33
12, 34022, Note_on_c, 9, 42, 36
12, 34051, Note_on_c, 9, 38, 0
12, 34052, Note_on_c, 9, 42, 0
12, 34080, Note_on_c, 9, 36, 37
12, 34081, Note_on_c, 9, 42, 35
12, 34110, Note_on_c, 9, 36, 0
12, 34111, Note_on_c, 9, 42, 0
12, 34141, Note_on_c, 9, 42, 34
12, 34171, Note_on_c, 9, 42, 0
12, 34201, Note_on_c, 9, 42, 37
12, 34231, Note_on_c, 9, 42, 0
12, 34260, Note_on_c, 9, 38, 35
12, 34260, Note_on_c, 9, 42, 34
12, 34290, Note_on_c, 9, 42, 0
12, 34290, Note_on_c, 9, 38, 0
12, 34320, Note_on_c, 9, 42, 33
12, 34350, Note_on_c, 9, 42, 0
12, 34380, Note_on_c, 9, 36, 37
12, 34380, Note_on_c, 9, 42, 35
12, 34410, Note_on_c, 9, 42, 0
12, 34410, Note_on_c, 9, 36, 0
12, 34440, Note_on_c, 9, 36, 37
12, 34441, Note_on_c, 9, 42, 39
12, 34470, Note_on_c, 9, 36, 0
12, 34471, Note_on_c, 9, 42, 0
12, 34500, Note_on_c, 9, 38, 34
12, 34500, Note_on_c, 9, 42, 36
12, 34530, Note_on_c, 9, 42, 0
12, 34530, Note_on_c, 9, 38, 0
12, 34561, Note_on_c, 9, 36, 37
12, 34561, Note_on_c, 9, 42, 36
12, 34591, Note_on_c, 9, 42, 0
12, 34591, Note_on_c, 9, 36, 0
12, 34619, Note_on_c, 9, 42, 33
12, 34649, Note_on_c, 9, 42, 0
12, 34681, Note_on_c, 9, 42, 33
12, 34711, Note_on_c, 9, 42, 0
12, 34740, Note_on_c, 9, 38, 38
12, 34740, Note_on_c, 9, 42, 36
12, 34770, Note_on_c, 9, 42, 0
12, 34770, Note_on_c, 9, 38, 0
12, 34800, Note_on_c, 9, 42, 34
12, 34830, Note_on_c, 9, 42, 0
12, 34861, Note_on_c, 9, 36, 35
12, 34862, Note_on_c, 9, 42, 39
12, 34891, Note_on_c, 9, 36, 0
12, 34892, Note_on_c, 9, 42, 0
12, 34920, Note_on_c, 9, 36, 34
12, 34921, Note_on_c, 9, 42, 39
12, 34950, Note_on_c, 9, 36, 0
12, 34951, Note_on_c, 9, 42, 0
12, 34981, Note_on_c, 9, 38, 35
12, 34982, Note_on_c, 9, 42, 33
12, 35011, Note_on_c, 9, 38, 0
12, 35012, Note_on_c, 9, 42, 0
12, 35041, Note_on_c, 9, 36, 34
12, 35041, Note_on_c, 9, 42, 36
12, 35071, Note_on_c, 9, 42, 0
12, 35071, Note_on_c, 9, 36, 0
12, 35101, Note_on_c, 9, 42, 37
12, 35131, Note_on_c, 9, 42, 0
12, 35160, Note_on_c, 9, 42, 33
12, 35190, Note_on_c, 9, 42, 0
12, 35220, Note_on_c, 9, 38, 38
12, 35220, Note_on_c, 9, 42, 39
12, 35250, Note_on_c, 9, 42, 0
12, 35250, Note_on_c, 9, 38, 0
12, 35280, Note_on_c, 9, 42, 39
12, 35310, Note_on_c, 9, 42, 0
12, 35341, Note_on_c, 9, 36, 37
12, 35341, Note_on_c, 9, 42, 36
12, 35371, Note_on_c, 9, 42, 0
12, 35371, Note_on_c, 9, 36, 0
12, 35401, Note_on_c, 9, 36, 39
12, 35401, Note_on_c, 9, 42, 38
12, 35431, Note_on_c, 9, 42, 0
12, 35431, Note_on_c, 9, 36, 0
12, 35461, Note_on_c, 9, 38, 38
12, 35461, Note_on_c, 9, 42, 37
12, 35491, Note_on_c, 9, 42, 0
12, 35491, Note_on_c, 9, 38, 0
12, 35520, Note_on_c, 9, 36, 35
12, 35521, Note_on_c, 9, 42, 38
12, 35550, Note_on_c, 9, 36, 0
12, 35551, Note_on_c, 9, 42, 0
12, 35580, Note_on_c, 9, 42, 35
12, 35610, Note_on_c, 9, 42, 0
12, 35640, Note_on_c, 9, 42, 34
12, 35670, Note_on_c, 9, 42, 0
12, 35700, Note_on_c, 9, 38, 35
12, 35700, Note_on_c, 9, 42, 36
12, 35730, Note_on_c, 9, 42, 0
12, 35730, Note_on_c, 9, 38, 0
12, 35760, Note_on_c, 9, 42, 34
12, 35790, Note_on_c, 9, 42, 0
12, 35821, Note_on_c, 9, 36, 35
12, 35821, Note_on_c, 9, 42, 34
12, 35851, Note_on_c, 9, 42, 0
12, 35851, Note_on_c, 9, 36, 0
12, 35881, Note_on_c, 9, 36, 36
12, 35881, Note_on_c, 9, 42, 39
12, 35911, Note_on_c, 9, 42, 0
12, 35911, Note_on_c, 9, 36, 0
12, 35941, Note_on_c, 9, 38, 39
12, 35941, Note_on_c, 9, 42, 35
12, 35971, Note_on_c, 9, 42, 0
12, 35971, Note_on_c, 9, 38, 0
12, 36001, Note_on_c, 9, 36, 37
12, 36001, Note_on_c, 9, 42, 34
12, 36031, Note_on_c, 9, 42, 0
12, 36031, Note_on_c, 9, 36, 0
12, 36060, Note_on_c, 9, 42, 38
12, 36090, Note_on_c, 9, 42, 0
12, 36121, Note_on_c, 9, 42, 33
12, 36151, Note_on_c, 9, 42, 0
12, 36180, Note_on_c, 9, 38, 33
12, 36180, Note_on_c, 9, 42, 36
12, 36210, Note_on_c, 9, 42, 0
12, 36210, Note_on_c, 9, 38, 0
12, 36241, Note_on_c, 9, 42, 38
12, 36271, Note_on_c, 9, 42, 0
12, 36300, Note_on_c, 9, 36, 39
12, 36301, Note_on_c, 9, 42, 38
12, 36330, Note_on_c, 9, 36, 0
12, 36331, Note_on_c, 9, 42, 0
12, 36359, Note_on_c, 9, 36, 39
12, 36359, Note_on_c, 9, 42, 37
12, 36389, Note_on_c, 9, 42, 0
12, 36389, Note_on_c, 9, 36, 0
12, 36420, Note_on_c, 9, 38, 33
12, 36420, Note_on_c, 9, 42, 35
12, 36450, Note_on_c, 9, 42, 0
12, 36450, Note_on_c, 9, 38, 0
12, 36481, Note_on_c, 9, 36, 37
12, 36481, Note_on_c, 9, 42, 34
12, 36511, Note_on_c, 9, 42, 0
12, 36511, Note_on_c, 9, 36, 0
12, 36541, Note_on_c, 9, 42, 38
12, 36571, Note_on_c, 9, 42, 0
12, 36600, Note_on_c, 9, 42, 36
12, 36630, Note_on_c, 9, 42, 0
12, 36659, Note_on_c, 9, 38, 37
12, 36659, Note_on_c, 9, 42, 36
12, 36689, Note_on_c, 9, 42, 0
12, 36689, Note_on_c, 9, 38, 0
12, 36720, Note_on_c, 9, 42, 34
12, 36750, Note_on_c, 9, 42, 0
12, 36780, Note_on_c, 9, 36, 37
12, 36780, Note_on_c, 9, 42, 37
12, 36810, Note_on_c, 9, 42, 0
12, 36810, Note_on_c, 9, 36, 0
12, 36840, Note_on_c, 9, 36, 36
12, 36840, Note_on_c, 9, 42, 33
12, 36870, Note_on_c, 9, 42, 0
12, 36870, Note_on_c, 9, 36, 0
12, 36900, Note_on_c, 9, 38, 38
12, 36901, Note_on_c, 9, 42, 35
12, 36930, Note_on_c, 9, 38, 0
12, 36931, Note_on_c, 9, 42, 0
12, 36961, Note_on_c, 9, 36, 33
12, 36961, Note_on_c, 9, 49, 36
12, 36991, Note_on_c, 9, 49, 0
12, 36991, Note_on_c, 9, 36, 0
12, 37021, Note_on_c, 9, 42, 39
12, 37051, Note_on_c, 9, 42, 0
12, 37080, Note_on_c, 9, 42, 39
12, 37110, Note_on_c, 9, 42, 0
12, 37141, Note_on_c, 9, 38, 39
12, 37141, Note_on_c, 9, 42, 36
12, 37171, Note_on_c, 9, 42, 0
12, 37171, Note_on_c, 9, 38, 0
12, 37200, Note_on_c, 9, 42, 35
12, 37230, Note_on_c, 9, 42, 0
12, 37261, Note_on_c, 9, 36, 36
12, 37261, Note_on_c, 9, 42, 33
12, 37291, Note_on_c, 9, 42, 0
12, 37291, Note_on_c, 9, 36, 0
12, 37321, Note_on_c, 9, 36, 34
12, 37321, Note_on_c, 9, 42, 38
12, 37351, Note_on_c, 9, 42, 0
12, 37351, Note_on_c, 9, 36, 0
12, 37381, Note_on_c, 9, 38, 38
12, 37381, Note_on_c, 9, 42, 39
12, 37411, Note_on_c, 9, 42, 0
12, 37411, Note_on_c, 9, 38, 0
12, 37441, Note_on_c, 9, 36, 39
12, 37441, Note_on_c, 9, 42, 35
12, 37471, Note_on_c, 9, 42, 0
12, 37471, Note_on_c, 9, 36, 0
12, 37501, Note_on_c, 9, 42, 34
12, 37531, Note_on_c, 9, 42, 0
12, 37560, Note_on_c, 9, 42, 35
12, 37590, Note_on_c, 9, 42, 0
12, 37619, Note_on_c, 9, 38, 34
12, 37620, Note_on_c, 9, 42, 38
12, 37649, Note_on_c, 9, 38, 0
12, 37650, Note_on_c, 9, 42, 0
12, 37680, Note_on_c, 9, 42, 38
12, 37710, Note_on_c, 9, 42, 0
12, 37739, Note_on_c, 9, 36, 33
12, 37740, Note_on_c, 9, 42, 35
12, 37769, Note_on_c, 9, 36, 0
12, 37770, Note_on_c, 9, 42, 0
12, 37800, Note_on_c, 9, 36, 33
12, 37800, Note_on_c, 9, 42, 34
12, 37830, Note_on_c, 9, 42, 0
12, 37830, Note_on_c, 9, 36, 0
12, 37860, Note_on_c, 9, 38, 38
12, 37861, Note_on_c, 9, 42, 35
12, 37890, Note_on_c, 9, 38, 0
12, 37891, Note_on_c, 9, 42, 0
12, 37921, Note_on_c, 9, 36, 34
12, 37922, Note_on_c, 9, 42, 36
12, 37951, Note_on_c, 9, 36, 0
12, 37952, Note_on_c, 9, 42, 0
12, 37979, Note_on_c, 9, 42, 33
12, 38009, Note_on_c, 9, 42, 0
12, 38040, Note_on_c, 9, 42, 36
12, 38070, Note_on_c, 9, 42, 0
12, 38100, Note_on_c, 9, 38, 34
12, 38101, Note_on_c, 9, 42, 34
12, 38130, Note_on_c, 9, 38, 0
12, 38131, Note_on_c, 9, 42, 0
12, 38160, Note_on_c, 9, 42, 33
12, 38190, Note_on_c, 9, 42, 0
12, 38221, Note_on_c, 9, 36, 34
12, 38221, Note_on_c, 9, 42, 37
12, 38251, Note_on_c, 9, 42, 0
12, 38251, Note_on_c, 9, 36, 0
12, 38280, Note_on_c, 9, 36, 35
12, 38280, Note_on_c, 9, 42, 36
12, 38310, Note_on_c, 9, 42, 0
12, 38310, Note_on_c, 9, 36, 0
12, 38340, Note_on_c, 9, 38, 34
12, 38341, Note_on_c, 9, 42, 37
12, 38370, Note_on_c, 9, 38, 0
12, 38371, Note_on_c, 9, 42, 0
12, 38399, Note_on_c, 9, 36, 38
12, 38400, Note_on_c, 9, 42, 34
12, 38429, Note_on_c, 9, 36, 0
12, 38430, Note_on_c, 9, 42, 0
12, 38460, Note_on_c, 9, 42, 33
12, 38490, Note_on_c, 9, 42, 0
12, 38521, Note_on_c, 9, 42, 35
12, 38551, Note_on_c, 9, 42, 0
12, 38581, Note_on_c, 9, 38, 35
12, 38581, Note_on_c, 9, 42, 37
12, 38611, Note_on_c, 9, 42, 0
12, 38611, Note_on_c, 9, 38, 0
12, 38640, Note_on_c, 9, 42, 33
12, 38670, Note_on_c, 9, 42, 0
12, 38700, Note_on_c, 9, 36, 36
12, 38701, Note_on_c, 9, 42, 38
12, 38730, Note_on_c, 9, 36, 0
12, 38731, Note_on_c, 9, 42, 0
12, 38761, Note_on_c, 9, 36, 34
12, 38761, Note_on_c, 9, 42, 39
12, 38791, Note_on_c, 9, 42, 0
12, 38791, Note_on_c, 9, 36, 0
12, 38821, Note_on_c, 9, 38, 36
12, 38822, Note_on_c, 9, 42, 38
12, 38851, Note_on_c, 9, 38, 0
12, 38852, Note_on_c, 9, 42, 0
12, 38880, Note_on_c, 9, 36, 34
12, 38880, Note_on_c, 9, 42, 39
12, 38910, Note_on_c, 9, 42, 0
12, 38910, Note_on_c, 9, 36, 0
12, 38941, Note_on_c, 9, 42, 37
12, 38971, Note_on_c, 9, 42, 0
12, 39001, Note_on_c, 9, 42, 38
12, 39031, Note_on_c, 9, 42, 0
12, 39060, Note_on_c, 9, 38, 37
12, 39061, Note_on_c, 9, 42, 39
12, 39090, Note_on_c, 9, 38, 0
12, 39091, Note_on_c, 9, 42, 0
12, 39121, Note_on_c, 9, 42, 35
12, 39151, Note_on_c, 9, 42, 0
12, 39181, Note_on_c, 9, 36, 37
12, 39181, Note_on_c, 9, 42, 38
12, 39211, Note_on_c, 9, 42, 0
12, 39211, Note_on_c, 9, 36, 0
12, 39241, Note_on_c, 9, 36, 36
12, 39241, Note_on_c, 9, 42, 37
12, 39271, Note_on_c, 9, 42, 0
12, 39271, Note_on_c, 9, 36, 0
12, 39300, Note_on_c, 9, 38, 35
12, 39300, Note_on_c, 9, 42, 37
12, 39330, Note_on_c, 9, 42, 0
12, 39330, Note_on_c, 9, 38, 0
12, 39361, Note_on_c, 9, 36, 38
12, 39361, Note_on_c, 9, 42, 37
12, 39391, Note_on_c, 9, 42, 0
12, 39391, Note_on_c, 9, 36, 0
12, 39421, Note_on_c, 9, 42, 36
12, 39451, Note_on_c, 9, 42, 0
12, 39481, Note_on_c, 9, 42, 36
12, 39511, Note_on_c, 9, 42, 0
12, 39540, Note_on_c, 9, 38, 38
12, 39540, Note_on_c, 9, 42, 33
12, 39570, Note_on_c, 9, 42, 0
12, 39570, Note_on_c, 9, 38, 0
12, 39600, Note_on_c, 9, 42, 37
12, 39630, Note_on_c, 9, 42, 0
12, 39661, Note_on_c, 9, 36, 37
12, 39662, Note_on_c, 9, 42, 37
12, 39691, Note_on_c, 9, 36, 0
12, 39692, Note_on_c, 9, 42, 0
12, 39720, Note_on_c, 9, 36, 34
12, 39721, Note_on_c, 9, 42, 39
12, 39750, Note_on_c, 9, 36, 0
12, 39751, Note_on_c, 9, 42, 0
12, 39781, Note_on_c, 9, 38, 34
12, 39782, Note_on_c, 9, 42, 36
12, 39811, Note_on_c, 9, 38, 0
12, 39812, Note_on_c, 9, 42, 0
12, 39841, Note_on_c, 9, 36, 34
12, 39842, Note_on_c, 9, 42, 34
12, 39871, Note_on_c, 9, 36, 0
12, 39872, Note_on_c, 9, 42, 0
12, 39900, Note_on_c, 9, 42, 38
12, 39930, Note_on_c, 9, 42, 0
12, 39961, Note_on_c, 9, 42, 37
12, 39991, Note_on_c, 9, 42, 0
12, 40020, Note_on_c, 9, 38, 37
12, 40020, Note_on_c, 9, 42, 39
12, 40050, Note_on_c, 9, 42, 0
12, 40050, Note_on_c, 9, 38, 0
12, 40080, Note_on_c, 9, 42, 34
12, 40110, Note_on_c, 9, 42, 0
12, 40141, Note_on_c, 9, 36, 37
12, 40142, Note_on_c, 9, 42, 39
12, 40171, Note_on_c, 9, 36, 0
12, 40172, Note_on_c, 9, 42, 0
12, 40200, Note_on_c, 9, 36, 39
12, 40200, Note_on_c, 9, 42, 36
12, 40230, Note_on_c, 9, 42, 0
12, 40230, Note_on_c, 9, 36, 0
12, 40260, Note_on_c, 9, 38, 33
12, 40260, Note_on_c, 9, 42, 39
12, 40290, Note_on_c, 9, 42, 0
12, 40290, Note_on_c, 9, 38, 0
12, 40321, Note_on_c, 9, 36, 38
12, 40321, Note_on_c, 9, 42, 39
12, 40351, Note_on_c, 9, 42, 0
12, 40351, Note_on_c, 9, 36, 0
12, 40380, Note_on_c, 9, 42, 34
12, 40410, Note_on_c, 9, 42, 0
12, 40441, Note_on_c, 9, 42, 35
12, 40471, Note_on_c, 9, 42, 0
12, 40501, Note_on_c, 9, 38, 36
12, 40501, Note_on_c, 9, 42, 37
12, 40531, Note_on_c, 9, 42, 0
12, 40531, Note_on_c, 9, 38, 0
12, 40560, Note_on_c, 9, 42, 36
12, 40590, Note_on_c, 9, 42, 0
12, 40621, Note_on_c, 9, 36, 38
12, 40622, Note_on_c, 9, 42, 34
12, 40651, Note_on_c, 9, 36, 0
12, 40652, Note_on_c, 9, 42, 0
12, 40681, Note_on_c, 9, 36, 33
12, 40681, Note_on_c, 9, 42, 35
12, 40711, Note_on_c, 9, 42, 0
12, 40711, Note_on_c, 9, 36, 0
12, 40741, Note_on_c, 9, 38, 33
12, 40742, Note_on_c, 9, 42, 37
12, 40771, Note_on_c, 9, 38, 0
12, 40772, Note_on_c, 9, 42, 0
12, 40800, Note_on_c, 9, 36, 33
12, 40801, Note_on_c, 9, 49, 34
12, 40830, Note_on_c, 9, 36, 0
12, 40831, Note_on_c, 9, 49, 0
12, 40861, Note_on_c, 9, 42, 36
12, 40891, Note_on_c, 9, 42, 0
12, 40920, Note_on_c, 9, 42, 33
12, 40950, Note_on_c, 9, 42, 0
12, 40980, Note_on_c, 9, 38, 38
12, 40981, Note_on_c, 9, 42, 37
12, 41010, Note_on_c, 9, 38, 0
12, 41011, Note_on_c, 9, 42, 0
12, 41040, Note_on_c, 9, 42, 38
12, 41070, Note_on_c, 9, 42, 0
12, 41101, Note_on_c, 9, 36, 39
12, 41102, Note_on_c, 9, 42, 35
12, 41131, Note_on_c, 9, 36, 0
12, 41132, Note_on_c, 9, 42, 0
12, 41160, Note_on_c, 9, 36, 33
12, 41161, Note_on_c, 9, 42, 34
12, 41190, Note_on_c, 9, 36, 0
12, 41191, Note_on_c, 9, 42, 0
12, 41220, Note_on_c, 9, 38, 38
12, 41220, Note_on_c, 9, 42, 34
12, 41250, Note_on_c, 9, 42, 0
12, 41250, Note_on_c, 9, 38, 0
12, 41281, Note_on_c, 9, 36, 39
12, 41282, Note_on_c, 9, 42, 34
12, 41311, Note_on_c, 9, 36, 0
12, 41312, Note_on_c, 9, 42, 0
12, 41341, Note_on_c, 9, 42, 34
12, 41371, Note_on_c, 9, 42, 0
12, 41401, Note_on_c, 9, 42, 39
12, 41431, Note_on_c, 9, 42, 0
12, 41461, Note_on_c, 9, 38, 36
12, 41461, Note_on_c, 9, 42, 39
12, 41491, Note_on_c, 9, 42, 0
12, 41491, Note_on_c, 9, 38, 0
12, 41520, Note_on_c, 9, 42, 35
12, 41550, Note_on_c, 9, 42, 0
12, 41581, Note_on_c, 9, 36, 38
12, 41582, Note_on_c, 9, 42, 37
12, 41611, Note_on_c, 9, 36, 0
12, 41612, Note_on_c, 9, 42, 0
12, 41639, Note_on_c, 9, 36, 37
12, 41640, Note_on_c, 9, 42, 38
12, 41669, Note_on_c, 9, 36, 0
12, 41670, Note_on_c, 9, 42, 0
12, 41700, Note_on_c, 9, 38, 36
12, 41700, Note_on_c, 9, 42, 39
12, 41730, Note_on_c, 9, 42, 0
12, 41730, Note_on_c, 9, 38, 0
12, 41759, Note_on_c, 9, 36, 39
12, 41760, Note_on_c, 9, 42, 34
12, 41789, Note_on_c, 9, 36, 0
12, 41790, Note_on_c, 9, 42, 0
12, 41820, Note_on_c, 9, 42, 34
12, 41850, Note_on_c, 9, 42, 0
12, 41881, Note_on_c, 9, 42, 38
12, 41911, Note_on_c, 9, 42, 0
12, 41941, Note_on_c, 9, 38, 35
12, 41941, Note_on_c, 9, 42, 37
12, 41971, Note_on_c, 9, 42, 0
12, 41971, Note_on_c, 9, 38, 0
12, 42000, Note_on_c, 9, 42, 36
12, 42030, Note_on_c, 9, 42, 0
12, 42060, Note_on_c, 9, 36, 38
12, 42060, Note_on_c, 9, 42, 35
12, 42090, Note_on_c, 9, 42, 0
12, 42090, Note_on_c, 9, 36, 0
12, 42120, Note_on_c, 9, 36, 33
12, 42121, Note_on_c, 9, 42, 34
12, 42150, Note_on_c, 9, 36, 0
12, 42151, Note_on_c, 9, 42, 0
12, 42181, Note_on_c, 9, 38, 33
12, 42181, Note_on_c, 9, 42, 37
12, 42211, Note_on_c, 9, 42, 0
12, 42211, Note_on_c, 9, 38, 0
12, 42240, Note_on_c, 9, 36, 36
12, 42240, Note_on_c, 9, 42, 36
12, 42270, Note_on_c, 9, 42, 0
12, 42270, Note_on_c, 9, 36, 0
12, 42300, Note_on_c, 9, 42, 35
12, 42330, Note_on_c, 9, 42, 0
12, 42360, Note_on_c, 9, 42, 38
12, 42390, Note_on_c, 9, 42, 0
12, 42420, Note_on_c, 9, 38, 33
12, 42420, Note_on_c, 9, 42, 33
12, 42450, Note_on_c, 9, 42, 0
12, 42450, Note_on_c, 9, 38, 0
12, 42481, Note_on_c, 9, 42, 39
12, 42511, Note_on_c, 9, 42, 0
12, 42541, Note_on_c, 9, 36, 38
12, 42542, Note_on_c, 9, 42, 33
12, 42571, Note_on_c, 9, 36, 0
12, 42572, Note_on_c, 9, 42, 0
12, 42600, Note_on_c, 9, 36, 38
12, 42601, Note_on_c, 9, 42, 39
12, 42630, Note_on_c, 9, 36, 0
12, 42631, Note_on_c, 9, 42, 0
12, 42661, Note_on_c, 9, 38, 36
12, 42662, Note_on_c, 9, 42, 34
12, 42691, Note_on_c, 9, 38, 0
12, 42692, Note_on_c, 9, 42, 0
12, 42720, Note_on_c, 9, 36, 35
12, 42720, Note_on_c, 9, 42, 35
12, 42750, Note_on_c, 9, 42, 0
12, 42750, Note_on_c, 9, 36, 0
12, 42781, Note_on_c, 9, 42, 35
12, 42811, Note_on_c, 9, 42, 0
12, 42840, Note_on_c, 9, 42, 35
12, 42870, Note_on_c, 9, 42, 0
12, 42900, Note_on_c, 9, 38, 37
12, 42900, Note_on_c, 9, 42, 35
12, 42930, Note_on_c, 9, 42, 0
12, 42930, Note_on_c, 9, 38, 0
12, 42960, Note_on_c, 9, 42, 33
12, 42990, Note_on_c, 9, 42, 0
12, 43021, Note_on_c, 9, 36, 33
12, 43022, Note_on_c, 9, 42, 37
12, 43051, Note_on_c, 9, 36, 0
12, 43052, Note_on_c, 9, 42, 0
12, 43080, Note_on_c, 9, 36, 38
12, 43081, Note_on_c, 9, 42, 39
12, 43110, Note_on_c, 9, 36, 0
12, 43111, Note_on_c, 9, 42, 0
12, 43140, Note_on_c, 9, 38, 37
12, 43141, Note_on_c, 9, 42, 38
12, 43170, Note_on_c, 9, 38, 0
12, 43171, Note_on_c, 9, 42, 0
12, 43201, Note_on_c, 9, 36, 39
12, 43201, Note_on_c, 9, 42, 37
12, 43231, Note_on_c, 9, 42, 0
12, 43231, Note_on_c, 9, 36, 0
12, 43261, Note_on_c, 9, 42, 39
12, 43291, Note_on_c, 9, 42, 0
12, 43320, Note_on_c, 9, 42, 35
12, 43350, Note_on_c, 9, 42, 0
12, 43380, Note_on_c, 9, 38, 38
12, 43380, Note_on_c, 9, 42, 36
12, 43410, Note_on_c, 9, 42, 0
12, 43410, Note_on_c, 9, 38, 0
12, 43439, Note_on_c, 9, 42, 39
12, 43469, Note_on_c, 9, 42, 0
12, 43500, Note_on_c, 9, 36, 37
12, 43501, Note_on_c, 9, 42, 39
12, 43530, Note_on_c, 9, 36, 0
12, 43531, Note_on_c, 9, 42, 0
12, 43560, Note_on_c, 9, 36, 38
12, 43560, Note_on_c, 9, 42, 35
12, 43590, Note_on_c, 9, 42, 0
12, 43590, Note_on_c, 9, 36, 0
12, 43621, Note_on_c, 9, 38, 39
12, 43622, Note_on_c, 9, 42, 38
12, 43651, Note_on_c, 9, 38, 0
12, 43652, Note_on_c, 9, 42, 0
12, 43680, Note_on_c, 9, 36, 34
12, 43681, Note_on_c, 9, 42, 38
12, 43710, Note_on_c, 9, 36, 0
12, 43711, Note_on_c, 9, 42, 0
12, 43740, Note_on_c, 9, 42, 38
12, 43770, Note_on_c, 9, 42, 0
12, 43800, Note_on_c, 9, 42, 39
12, 43830, Note_on_c, 9, 42, 0
12, 43860, Note_on_c, 9, 38, 36
12, 43860, Note_on_c, 9, 42, 37
12, 43890, Note_on_c, 9, 42, 0
12, 43890, Note_on_c, 9, 38, 0
12, 43920, Note_on_c, 9, 42, 36
12, 43950, Note_on_c, 9, 42, 0
12, 43980, Note_on_c, 9, 36, 38
12, 43981, Note_on_c, 9, 42, 38
12, 44010, Note_on_c, 9, 36, 0
12, 44011, Note_on_c, 9, 42, 0
12, 44040, Note_on_c, 9, 36, 35
12, 44041, Note_on_c, 9, 42, 38
12, 44070, Note_on_c, 9, 36, 0
12, 44071, Note_on_c, 9, 42, 0
12, 44101, Note_on_c, 9, 38, 35
12, 44101, Note_on_c, 9, 42, 34
12, 44131, Note_on_c, 9, 42, 0
12, 44131, Note_on_c, 9, 38, 0
12, 44160, Note_on_c, 9, 36, 38
12, 44161, Note_on_c, 9, 42, 35
12, 44190, Note_on_c, 9, 36, 0
12, 44191, Note_on_c, 9, 42, 0
12, 44220, Note_on_c, 9, 42, 36
12, 44250, Note_on_c, 9, 42, 0
12, 44280, Note_on_c, 9, 42, 35
12, 44310, Note_on_c, 9, 42, 0
12, 44340, Note_on_c, 9, 38, 36
12, 44341, Note_on_c, 9, 42, 39
12, 44370, Note_on_c, 9, 38, 0
12, 44371, Note_on_c, 9, 42, 0
12, 44399, Note_on_c, 9, 42, 34
12, 44429, Note_on_c, 9, 42, 0
12, 44461, Note_on_c, 9, 36, 36
12, 44461, Note_on_c, 9, 42, 39
12, 44491, Note_on_c, 9, 42, 0
12, 44491, Note_on_c, 9, 36, 0
12, 44521, Note_on_c, 9, 36, 36
12, 44521, Note_on_c, 9, 42, 36
12, 44551, Note_on_c, 9, 42, 0
12, 44551, Note_on_c, 9, 36, 0
12, 44580, Note_on_c, 9, 38, 34
12, 44580, Note_on_c, 9, 42, 37
12, 44610, Note_on_c, 9, 42, 0
12, 44610, Note_on_c, 9, 38, 0
12, 44641, Note_on_c, 9, 36, 34
12, 44642, Note_on_c, 9, 49, 38
12, 44671, Note_on_c, 9, 36, 0
12, 44672, Note_on_c, 9, 49, 0
12, 44701, Note_on_c, 9, 42, 34
12, 44731, Note_on_c, 9, 42, 0
12, 44761, Note_on_c, 9, 42, 38
12, 44791, Note_on_c, 9, 42, 0
12, 44821, Note_on_c, 9, 38, 38
12, 44821, Note_on_c, 9, 42, 39
12, 44851, Note_on_c, 9, 42, 0
12, 44851, Note_on_c, 9, 38, 0
12, 44881, Note_on_c, 9, 42, 37
12, 44911, Note_on_c, 9, 42, 0
12, 44941, Note_on_c, 9, 36, 37
12, 44942, Note_on_c, 9, 42, 36
12, 44971, Note_on_c, 9, 36, 0
12, 44972, Note_on_c, 9, 42, 0
12, 45000, Note_on_c, 9, 36, 35
12, 45000, Note_on_c, 9, 42, 38
12, 45030, Note_on_c, 9, 42, 0
12, 45030, Note_on_c, 9, 36, 0
12, 45061, Note_on_c, 9, 38, 36
12, 45062, Note_on_c, 9, 42, 35
12, 45091, Note_on_c, 9, 38, 0
12, 45092, Note_on_c, 9, 42, 0
12, 45121, Note_on_c, 9, 36, 35
12, 45121, Note_on_c, 9, 42, 38
12, 45151, Note_on_c, 9, 42, 0
12, 45151, Note_on_c, 9, 36, 0
12, 45180, Note_on_c, 9, 42, 35
12, 45210, Note_on_c, 9, 42, 0
12, 45240, Note_on_c, 9, 42, 38
12, 45270, Note_on_c, 9, 42, 0
12, 45300, Note_on_c, 9, 38, 37
12, 45301, Note_on_c, 9, 42, 39
12, 45330, Note_on_c, 9, 38, 0
12, 45331, Note_on_c, 9, 42, 0
12, 45360, Note_on_c, 9, 42, 38
12, 45390, Note_on_c, 9, 42, 0
12, 45421, Note_on_c, 9, 36, 35
12, 45422, Note_on_c, 9, 42, 38
12, 45451, Note_on_c, 9, 36, 0
12, 45452, Note_on_c, 9, 42, 0
12, 45479, Note_on_c, 9, 36, 35
12, 45479, Note_on_c, 9, 42, 38
12, 45509, Note_on_c, 9, 42, 0
12, 45509, Note_on_c, 9, 36, 0
12, 45540, Note_on_c, 9, 38, 36
12, 45541, Note_on_c, 9, 42, 34
12, 45570, Note_on_c, 9, 38, 0
12, 45571, Note_on_c, 9, 42, 0
12, 45601, Note_on_c, 9, 36, 35
12, 45601, Note_on_c, 9, 42, 34
12, 45631, Note_on_c, 9, 42, 0
12, 45631, Note_on_c, 9, 36, 0
12, 45659, Note_on_c, 9, 42, 36
12, 45689, Note_on_c, 9, 42, 0
12, 45720, Note_on_c, 9, 42, 34
12, 45750, Note_on_c, 9, 42, 0
12, 45781, Note_on_c, 9, 38, 33
12, 45781, Note_on_c, 9, 42, 39
12, 45811, Note_on_c, 9, 42, 0
12, 45811, Note_on_c, 9, 38, 0
12, 45840, Note_on_c, 9, 42, 33
12, 45870, Note_on_c, 9, 42, 0
12, 45901, Note_on_c, 9, 36, 39
12, 45901, Note_on_c, 9, 42, 37
12, 45931, Note_on_c, 9, 42, 0
12, 45931, Note_on_c, 9, 36, 0
12, 45960, Note_on_c, 9, 36, 36
12, 45960, Note_on_c, 9, 42, 39
12, 45990, Note_on_c, 9, 42, 0
12, 45990, Note_on_c, 9, 36, 0
12, 46021, Note_on_c, 9, 38, 39
12, 46022, Note_on_c, 9, 42, 36
12, 46051, Note_on_c, 9, 38, 0
12, 46052, Note_on_c, 9, 42, 0
12, 46081, Note_on_c, 9, 36, 39
12, 46081, Note_on_c, 9, 42, 36
12, 46111, Note_on_c, 9, 42, 0
12, 46111, Note_on_c, 9, 36, 0
12, 46140, Note_on_c, 9, 42, 35
12, 46170, Note_on_c, 9, 42, 0
12, 46201, Note_on_c, 9, 42, 35
12, 46231, Note_on_c, 9, 42, 0
12, 46261, Note_on_c, 9, 38, 35
12, 46261, Note_on_c, 9, 42, 36
12, 46291, Note_on_c, 9, 42, 0
12, 46291, Note_on_c, 9, 38, 0
12, 46320, Note_on_c, 9, 42, 34
12, 46350, Note_on_c, 9, 42, 0
12, 46381, Note_on_c, 9, 36, 34
12, 46381, Note_on_c, 9, 42, 35
12, 46411, Note_on_c, 9, 42, 0
12, 46411, Note_on_c, 9, 36, 0
12, 46440, Note_on_c, 9, 36, 39
12, 46440, Note_on_c, 9, 42, 38
12, 46470, Note_on_c, 9, 42, 0
12, 46470, Note_on_c, 9, 36, 0
12, 46501, Note_on_c, 9, 38, 33
12, 46501, Note_on_c, 9, 42, 39
12, 46531, Note_on_c, 9, 42, 0
12, 46531, Note_on_c, 9, 38, 0
12, 46561, Note_on_c, 9, 36, 33
12, 46561, Note_on_c, 9, 42, 34
12, 46591, Note_on_c, 9, 42, 0
12, 46591, Note_on_c, 9, 36, 0
12, 46620, Note_on_c, 9, 42, 36
12, 46650, Note_on_c, 9, 42, 0
12, 46681, Note_on_c, 9, 42, 38
12, 46711, Note_on_c, 9, 42, 0
12, 46740, Note_on_c, 9, 38, 38
12, 46741, Note_on_c, 9, 42, 36
12, 46770, Note_on_c, 9, 38, 0
12, 46771, Note_on_c, 9, 42, 0
12, 46800, Note_on_c, 9, 42, 36
12, 46830, Note_on_c, 9, 42, 0
12, 46859, Note_on_c, 9, 36, 39
12, 46860, Note_on_c, 9, 42, 34
12, 46889, Note_on_c, 9, 36, 0
12, 46890, Note_on_c, 9, 42, 0
12, 46920, Note_on_c, 9, 36, 35
12, 46921, Note_on_c, 9, 42, 39
12, 46950, Note_on_c, 9, 36, 0
12, 46951, Note_on_c, 9, 42, 0
12, 46981, Note_on_c, 9, 38, 36
12, 46982, Note_on_c, 9, 42, 38
12, 47011, Note_on_c, 9, 38, 0
12, 47012, Note_on_c, 9, 42, 0
12, 47041, Note_on_c, 9, 36, 38
12, 47042, Note_on_c, 9, 42, 38
12, 47071, Note_on_c, 9, 36, 0
12, 47072, Note_on_c, 9, 42, 0
12, 47101, Note_on_c, 9, 42, 35
12, 47131, Note_on_c, 9, 42, 0
12, 47160, Note_on_c, 9, 42, 38
12, 47190, Note_on_c, 9, 42, 0
12, 47220, Note_on_c, 9, 38, 34
12, 47220, Note_on_c, 9, 42, 38
12, 47250, Note_on_c, 9, 42, 0
12, 47250, Note_on_c, 9, 38, 0
12, 47280, Note_on_c, 9, 42, 37
12, 47310, Note_on_c, 9, 42, 0
12, 47340, Note_on_c, 9, 36, 35
12, 47341, Note_on_c, 9, 42, 33
12, 47370, Note_on_c, 9, 36, 0
12, 47371, Note_on_c, 9, 42, 0
12, 47400, Note_on_c, 9, 36, 38
12, 47400, Note_on_c, 9, 42, 33
12, 47430, Note_on_c, 9, 42, 0
12, 47430, Note_on_c, 9, 36, 0
12, 47461, Note_on_c, 9, 38, 35
12, 47462, Note_on_c, 9, 42, 33
12, 47491, Note_on_c, 9, 38, 0
12, 47492, Note_on_c, 9, 42, 0
12, 47521, Note_on_c, 9, 36, 37
12, 47521, Note_on_c, 9, 42, 34
12, 47551, Note_on_c, 9, 42, 0
12, 47551, Note_on_c, 9, 36, 0
12, 47580, Note_on_c, 9, 42, 37
12, 47610, Note_on_c, 9, 42, 0
12, 47640, Note_on_c, 9, 42, 39
12, 47670, Note_on_c, 9, 42, 0
12, 47700, Note_on_c, 9, 38, 34
12, 47700, Note_on_c, 9, 42, 39
12, 47730, Note_on_c, 9, 42, 0
12, 47730, Note_on_c, 9, 38, 0
12, 47759, Note_on_c, 9, 42, 34
12, 47789, Note_on_c, 9, 42, 0
12, 47820, Note_on_c, 9, 36, 36
12, 47821, Note_on_c, 9, 42, 33
12, 47850, Note_on_c, 9, 36, 0
12, 47851, Note_on_c, 9, 42, 0
12, 47880, Note_on_c, 9, 36, 38
12, 47880, Note_on_c, 9, 42, 39
12, 47910, Note_on_c, 9, 42, 0
12, 47910, Note_on_c, 9, 36, 0
12, 47941, Note_on_c, 9, 38, 35
12, 47941, Note_on_c, 9, 42, 36
12, 47971, Note_on_c, 9, 42, 0
12, 47971, Note_on_c, 9, 38, 0
12, 48001, Note_on_c, 9, 36, 34
12, 48002, Note_on_c, 9, 42, 39
12, 48031, Note_on_c, 9, 36, 0
12, 48032, Note_on_c, 9, 42, 0
12, 48060, Note_on_c, 9, 42, 37
12, 48090, Note_on_c, 9, 42, 0
12, 48120, Note_on_c, 9, 42, 39
12, 48150, Note_on_c, 9, 42, 0
12, 48180, Note_on_c, 9, 38, 36
12, 48180, Note_on_c, 9, 42, 38
12, 48210, Note_on_c, 9, 42, 0
12, 48210, Note_on_c, 9, 38, 0
12, 48240, Note_on_c, 9, 42, 37
12, 48270, Note_on_c, 9, 42, 0
12, 48301, Note_on_c, 9, 36, 37
12, 48301, Note_on_c, 9, 42, 38
12, 48331, Note_on_c, 9, 42, 0
12, 48331, Note_on_c, 9, 36, 0
12, 48360, Note_on_c, 9, 36, 34
12, 48360, Note_on_c, 9, 42, 34
12, 48390, Note_on_c, 9, 42, 0
12, 48390, Note_on_c, 9, 36, 0
12, 48420, Note_on_c, 9, 38, 37
12, 48421, Note_on_c, 9, 42, 39
12, 48450, Note_on_c, 9, 38, 0
12, 48451, Note_on_c, 9, 42, 0
12, 48481, Note_on_c, 9, 36, 36
12, 48482, Note_on_c, 9, 49, 35
12, 48511, Note_on_c, 9, 36, 0
12, 48512, Note_on_c, 9, 49, 0
12, 48540, Note_on_c, 9, 42, 38
12, 48570, Note_on_c, 9, 42, 0
12, 48600, Note_on_c, 9, 42, 38
12, 48630, Note_on_c, 9, 42, 0
12, 48659, Note_on_c, 9, 38, 37
12, 48660, Note_on_c, 9, 42, 39
12, 48689, Note_on_c, 9, 38, 0
12, 48690, Note_on_c, 9, 42, 0
12, 48720, Note_on_c, 9, 42, 36
12, 48750, Note_on_c, 9, 42, 0
12, 48781, Note_on_c, 9, 36, 38
12, 48782, Note_on_c, 9, 42, 38
12, 48811, Note_on_c, 9, 36, 0
12, 48812, Note_on_c, 9, 42, 0
12, 48840, Note_on_c, 9, 36, 38
12, 48840, Note_on_c, 9, 42, 37
12, 48870, Note_on_c, 9, 42, 0
12, 48870, Note_on_c, 9, 36, 0
12, 48900, Note_on_c, 9, 38, 39
12, 48900, Note_on_c, 9, 42, 38
12, 48930, Note_on_c, 9, 42, 0
12, 48930, Note_on_c, 9, 38, 0
12, 48961, Note_on_c, 9, 36, 35
12, 48961, Note_on_c, 9, 42, 39
12, 48991, Note_on_c, 9, 42, 0
12, 48991, Note_on_c, 9, 36, 0
12, 49021, Note_on_c, 9, 42, 36
12, 49051, Note_on_c, 9, 42, 0
12, 49080, Note_on_c, 9, 42, 39
12, 49110, Note_on_c, 9, 42, 0
12, 49140, Note_on_c, 9, 38, 33
12, 49140, Note_on_c, 9, 42, 33
12, 49170, Note_on_c, 9, 42, 0
12, 49170, Note_on_c, 9, 38, 0
12, 49199, Note_on_c, 9, 42, 39
12, 49229, Note_on_c, 9, 42, 0
12, 49260, Note_on_c, 9, 36, 36
12, 49260, Note_on_c, 9, 42, 34
12, 49290, Note_on_c, 9, 42, 0
12, 49290, Note_on_c, 9, 36, 0
12, 49319, Note_on_c, 9, 36, 37
12, 49320, Note_on_c, 9, 42, 36
12, 49349, Note_on_c, 9, 36, 0
12, 49350, Note_on_c, 9, 42, 0
12, 49381, Note_on_c, 9, 38, 39
12, 49382, Note_on_c, 9, 42, 39
12, 49411, Note_on_c, 9, 38, 0
12, 49412, Note_on_c, 9, 42, 0
12, 49441, Note_on_c, 9, 36, 35
12, 49442, Note_on_c, 9, 42, 38
12, 49471, Note_on_c, 9, 36, 0
12, 49472, Note_on_c, 9, 42, 0
12, 49501, Note_on_c, 9, 42, 37
12, 49531, Note_on_c, 9, 42, 0
12, 49561, Note_on_c, 9, 42, 34
12, 49591, Note_on_c, 9, 42, 0
12, 49620, Note_on_c, 9, 38, 33
12, 49621, Note_on_c, 9, 42, 33
12, 49650, Note_on_c, 9, 38, 0
12, 49651, Note_on_c, 9, 42, 0
12, 49680, Note_on_c, 9, 42, 34
12, 49710, Note_on_c, 9, 42, 0
12, 49741, Note_on_c, 9, 36, 33
12, 49742, Note_on_c, 9, 42, 34
12, 49771, Note_on_c, 9, 36, 0
12, 49772, Note_on_c, 9, 42, 0
12, 49800, Note_on_c, 9, 36, 34
12, 49800, Note_on_c, 9, 42, 39
12, 49830, Note_on_c, 9, 42, 0
12, 49830, Note_on_c, 9, 36, 0
12, 49861, Note_on_c, 9, 38, 34
12, 49861, Note_on_c, 9, 42, 34
12, 49891, Note_on_c, 9, 42, 0
12, 49891, Note_on_c, 9, 38, 0
12, 49920, Note_on_c, 9, 36, 33
12, 49921, Note_on_c, 9, 42, 34
12, 49950, Note_on_c, 9, 36, 0
12, 49951, Note_on_c, 9, 42, 0
12, 49980, Note_on_c, 9, 42, 39
12, 50010, Note_on_c, 9, 42, 0
12, 50041, Note_on_c, 9, 42, 38
12, 50071, Note_on_c, 9, 42, 0
12, 50100, Note_on_c, 9, 38, 33
12, 50101, Note_on_c, 9, 42, 34
12, 50130, Note_on_c, 9, 38, 0
12, 50131, Note_on_c, 9, 42, 0
12, 50160, Note_on_c, 9, 42, 35
12, 50190, Note_on_c, 9, 42, 0
12, 50221, Note_on_c, 9, 36, 37
12, 50221, Note_on_c, 9, 42, 39
12, 50251, Note_on_c, 9, 42, 0
12, 50251, Note_on_c, 9, 36, 0
12, 50280, Note_on_c, 9, 36, 37
12, 50280, Note_on_c, 9, 42, 38
12, 50310, Note_on_c, 9, 42, 0
12, 50310, Note_on_c, 9, 36, 0
12, 50340, Note_on_c, 9, 38, 34
12, 50340, Note_on_c, 9, 42, 38
12, 50370, Note_on_c, 9, 42, 0
12, 50370, Note_on_c, 9, 38, 0
12, 50400, Note_on_c, 9, 36, 35
12, 50401, Note_on_c, 9, 42, 38
12, 50430, Note_on_c, 9, 36, 0
12, 50431, Note_on_c, 9, 42, 0
12, 50460, Note_on_c, 9, 42, 34
12, 50490, Note_on_c, 9, 42, 0
12, 50520, Note_on_c, 9, 42, 38
12, 50550, Note_on_c, 9, 42, 0
12, 50550, End_track
13, 0, Start_track
13, 0, MIDI_port, 0
13, 0, Control_c, 10, 0, 0
13, 0, Control_c, 10, 32, 0
13, 0, Program_c, 10, 52
13, 0, Control_c, 10, 7, 70
13, 0, Control_c, 10, 10, 0
13, 2, Control_c, 10, 1, 0
13, 4, Control_c, 10, 2, 0
13, 120, Control_c, 10, 11, 100
13, 120, Control_c, 10, 0, 0
13, 124, Control_c, 10, 101, 0
13, 124, Control_c, 10, 100, 0
13, 124, Control_c, 10, 6, 2
13, 124, Control_c, 10, 38, 0
13, 240, Control_c, 10, 120, 0
13, 243, Control_c, 10, 121, 0
13, 246, Control_c, 10, 123, 0
13, 255, Control_c, 10, 91, 90
13, 258, Control_c, 10, 93, 33
13, 44580, Pitch_bend_c, 10, 8192
13, 44580, Note_on_c, 10, 64, 102
13, 44581, Pitch_bend_c, 10, 8466
13, 44583, Pitch_bend_c, 10, 9012
13, 44587, Pitch_bend_c, 10, 10104
13, 44591, Pitch_bend_c, 10, 11196
13, 44595, Pitch_bend_c, 10, 12288
13, 44599, Pitch_bend_c, 10, 13380
13, 44603, Pitch_bend_c, 10, 14472
13, 44607, Pitch_bend_c, 10, 15564
13, 44610, Pitch_bend_c, 10, 16383
13, 44820, Note_on_c, 10, 64, 0
13, 44821, Pitch_bend_c, 10, 8192
13, 44821, Note_on_c, 10, 64, 102
13, 45059, Note_on_c, 10, 64, 0
13, 45060, Note_on_c, 10, 61, 100
13, 45300, Note_on_c, 10, 61, 0
13, 45300, Note_on_c, 10, 64, 101
13, 45539, Note_on_c, 10, 64, 0
13, 45540, Note_on_c, 10, 66, 100
13, 46260, Note_on_c, 10, 66, 0
13, 46260, Note_on_c, 10, 64, 103
13, 46439, Note_on_c, 10, 64, 0
13, 46499, Pitch_bend_c, 10, 8192
13, 46499, Note_on_c, 10, 64, 103
13, 46501, Pitch_bend_c, 10, 8466
13, 46503, Pitch_bend_c, 10, 9012
13, 46507, Pitch_bend_c, 10, 10104
13, 46511, Pitch_bend_c, 10, 11196
13, 46515, Pitch_bend_c, 10, 12288
13, 46519, Pitch_bend_c, 10, 13380
13, 46523, Pitch_bend_c, 10, 14472
13, 46527, Pitch_bend_c, 10, 15564
13, 46530, Pitch_bend_c, 10, 16383
13, 46740, Note_on_c, 10, 64, 0
13, 46741, Pitch_bend_c, 10, 8192
13, 46741, Note_on_c, 10, 64, 99
13, 46979, Note_on_c, 10, 64, 0
13, 46980, Note_on_c, 10, 61, 99
13, 47220, Note_on_c, 10, 61, 0
13, 47220, Note_on_c, 10, 64, 103
13, 47459, Note_on_c, 10, 64, 0
13, 47460, Note_on_c, 10, 66, 102
13, 48179, Note_on_c, 10, 66, 0
13, 48179, Note_on_c, 10, 64, 101
13, 48360, Note_on_c, 10, 64, 0
13, 48420, Pitch_bend_c, 10, 8192
13, 48420, Note_on_c, 10, 64, 101
13, 48421, Pitch_bend_c, 10, 8466
13, 48423, Pitch_bend_c, 10, 9012
13, 48427, Pitch_bend_c, 10, 10104
13, 48431, Pitch_bend_c, 10, 11196
13, 48435, Pitch_bend_c, 10, 12288
13, 48439, Pitch_bend_c, 10, 13380
13, 48443, Pitch_bend_c, 10, 14472
13, 48447, Pitch_bend_c, 10, 15564
13, 48450, Pitch_bend_c, 10, 16383
13, 48659, Note_on_c, 10, 64, 0
13, 48660, Pitch_bend_c, 10, 8192
13, 48660, Note_on_c, 10, 64, 99
13, 48899, Note_on_c, 10, 64, 0
13, 48900, Note_on_c, 10, 61, 97
13, 49139, Note_on_c, 10, 61, 0
13, 49140, Note_on_c, 10, 64, 102
13, 49380, Note_on_c, 10, 64, 0
13, 49380, Note_on_c, 10, 66, 97
13, 50100, Note_on_c, 10, 66, 0
13, 50100, Note_on_c, 10, 64, 103
13, 50279, Note_on_c, 10, 64, 0
13, 50340, Pitch_bend_c, 10, 8192
13, 50340, Note_on_c, 10, 64, 97
13, 50341, Pitch_bend_c, 10, 8466
13, 50343, Pitch_bend_c, 10, 9012
13, 50347, Pitch_bend_c, 10, 10104
13, 50351, Pitch_bend_c, 10, 11196
13, 50355, Pitch_bend_c, 10, 12288
13, 50359, Pitch_bend_c, 10, 13380
13, 50363, Pitch_bend_c, 10, 14472
13, 50367, Pitch_bend_c, 10, 15564
13, 50370, Pitch_bend_c, 10, 16383
13, 50580, Note_on_c, 10, 64, 0
13, 50581, Pitch_bend_c, 10, 8192
13, 50581, Note_on_c, 10, 64, 99
13, 50820, Note_on_c, 10, 64, 0
13, 50821, Note_on_c, 10, 61, 97
13, 50970, Note_on_c, 10, 61, 0
13, 50970, End_track
14, 0, Start_track
14, 0, MIDI_port, 0
14, 0, Control_c, 11, 0, 0
14, 0, Control_c, 11, 32, 0
14, 0, Program_c, 11, 52
14, 0, Control_c, 11, 7, 70
14, 0, Control_c, 11, 10, 127
14, 2, Control_c, 11, 1, 0
14, 4, Control_c, 11, 2, 0
14, 120, Control_c, 11, 11, 100
14, 120, Control_c, 11, 0, 0
14, 124, Control_c, 11, 101, 0
14, 124, Control_c, 11, 100, 0
14, 124, Control_c, 11, 6, 2
14, 124, Control_c, 11, 38, 0
14, 240, Control_c, 11, 120, 0
14, 243, Control_c, 11, 121, 0
14, 246, Control_c, 11, 123, 0
14, 255, Control_c, 11, 91, 90
14, 258, Control_c, 11, 93, 33
14, 44580, Pitch_bend_c, 11, 8192
14, 44580, Note_on_c, 11, 69, 98
14, 44580, Pitch_bend_c, 11, 8466
14, 44582, Pitch_bend_c, 11, 9012
14, 44586, Pitch_bend_c, 11, 10104
14, 44590, Pitch_bend_c, 11, 11196
14, 44594, Pitch_bend_c, 11, 12288
14, 44598, Pitch_bend_c, 11, 13380
14, 44602, Pitch_bend_c, 11, 14472
14, 44606, Pitch_bend_c, 11, 15564
14, 44609, Pitch_bend_c, 11, 16383
14, 44819, Note_on_c, 11, 69, 0
14, 44820, Pitch_bend_c, 11, 8192
14, 44820, Note_on_c, 11, 69, 97
14, 45059, Note_on_c, 11, 69, 0
14, 45060, Note_on_c, 11, 66, 101
14, 45299, Note_on_c, 11, 66, 0
14, 45300, Note_on_c, 11, 69, 97
14, 45540, Note_on_c, 11, 69, 0
14, 45541, Note_on_c, 11, 71, 99
14, 46259, Note_on_c, 11, 71, 0
14, 46260, Note_on_c, 11, 69, 100
14, 46440, Note_on_c, 11, 69, 0
14, 46499, Pitch_bend_c, 11, 8192
14, 46499, Note_on_c, 11, 69, 103
14, 46501, Pitch_bend_c, 11, 8466
14, 46503, Pitch_bend_c, 11, 9012
14, 46507, Pitch_bend_c, 11, 10104
14, 46511, Pitch_bend_c, 11, 11196
14, 46515, Pitch_bend_c, 11, 12288
14, 46519, Pitch_bend_c, 11, 13380
14, 46523, Pitch_bend_c, 11, 14472
14, 46527, Pitch_bend_c, 11, 15564
14, 46530, Pitch_bend_c, 11, 16383
14, 46739, Note_on_c, 11, 69, 0
14, 46740, Pitch_bend_c, 11, 8192
14, 46740, Note_on_c, 11, 69, 101
14, 46980, Note_on_c, 11, 69, 0
14, 46980, Note_on_c, 11, 66, 99
14, 47219, Note_on_c, 11, 66, 0
14, 47220, Note_on_c, 11, 69, 102
14, 47460, Note_on_c, 11, 69, 0
14, 47460, Note_on_c, 11, 71, 100
14, 48180, Note_on_c, 11, 71, 0
14, 48181, Note_on_c, 11, 69, 101
14, 48360, Note_on_c, 11, 69, 0
14, 48420, Pitch_bend_c, 11, 8192
14, 48420, Note_on_c, 11, 69, 103
14, 48420, Pitch_bend_c, 11, 8466
14, 48422, Pitch_bend_c, 11, 9012
14, 48426, Pitch_bend_c, 11, 10104
14, 48430, Pitch_bend_c, 11, 11196
14, 48434, Pitch_bend_c, 11, 12288
14, 48438, Pitch_bend_c, 11, 13380
14, 48442, Pitch_bend_c, 11, 14472
14, 48446, Pitch_bend_c, 11, 15564
14, 48449, Pitch_bend_c, 11, 16383
14, 48659, Note_on_c, 11, 69, 0
14, 48659, Pitch_bend_c, 11, 8192
14, 48659, Note_on_c, 11, 69, 101
14, 48899, Note_on_c, 11, 69, 0
14, 48900, Note_on_c, 11, 66, 101
14, 49139, Note_on_c, 11, 66, 0
14, 49140, Note_on_c, 11, 69, 97
14, 49379, Note_on_c, 11, 69, 0
14, 49380, Note_on_c, 11, 71, 103
14, 50100, Note_on_c, 11, 71, 0
14, 50101, Note_on_c, 11, 69, 99
14, 50280, Note_on_c, 11, 69, 0
14, 50339, Pitch_bend_c, 11, 8192
14, 50339, Note_on_c, 11, 69, 102
14, 50341, Pitch_bend_c, 11, 8466
14, 50343, Pitch_bend_c, 11, 9012
14, 50347, Pitch_bend_c, 11, 10104
14, 50351, Pitch_bend_c, 11, 11196
14, 50355, Pitch_bend_c, 11, 12288
14, 50359, Pitch_bend_c, 11, 13380
14, 50363, Pitch_bend_c, 11, 14472
14, 50367, Pitch_bend_c, 11, 15564
14, 50370, Pitch_bend_c, 11, 16383
14, 50579, Note_on_c, 11, 69, 0
14, 50580, Pitch_bend_c, 11, 8192
14, 50580, Note_on_c, 11, 69, 102
14, 50819, Note_on_c, 11, 69, 0
14, 50820, Note_on_c, 11, 66, 99
14, 50970, Note_on_c, 11, 66, 0
14, 50970, End_track
15, 0, Start_track
15, 0, MIDI_port, 0
15, 0, End_track
16, 0, Start_track
16, 0, MIDI_port, 0
16, 0, End_track
17, 0, Start_track
17, 0, MIDI_port, 0
17, 0, End_track
18, 0, Start_track
18, 0, MIDI_port, 0
18, 0, End_track
19, 0, Start_track
19, 0, MIDI_port, 0
19, 0, End_track
20, 0, Start_track
20, 0, MIDI_port, 0
20, 0, End_track
21, 0, Start_track
21, 0, MIDI_port, 0
21, 0, End_track
22, 0, Start_track
22, 0, MIDI_port, 0
22, 0, End_track
23, 0, Start_track
23, 0, MIDI_port, 0
23, 0, End_track
24, 0, Start_track
24, 0, MIDI_port, 0
24, 0, End_track
25, 0, Start_track
25, 0, MIDI_port, 0
25, 0, End_track
26, 0, Start_track
26, 0, MIDI_port, 0
26, 0, End_track
27, 0, Start_track
27, 0, MIDI_port, 0
27, 0, End_track
28, 0, Start_track
28, 0, MIDI_port, 0
28, 0, End_track
0, 0, End_of_file
