0, 0, Header, 1, 13, 480
1, 0, Start_track
1, 0, Time_signature, 4, 2, 24, 8
1, 0, Key_signature, 0, "major"
1, 0, SMPTE_offset, 32, 0, 0, 0, 0
1, 0, Tempo, 483871
1, 0, End_track
2, 0, Start_track
2, 0, Title_t, "GQ - Disco Nights"
2, 0, Instrument_name_t, "All Channels"
2, 0, Text_t, "Disco Nights"
2, 0, Text_t, "(C)1994 Heavenly Music"
2, 0, System_exclusive, 5, 126, 127, 9, 1, 247
2, 0, End_track
3, 0, Start_track
3, 0, Channel_prefix, 0
3, 0, Title_t, "CleanGtr"
3, 0, Instrument_name_t, "CHA  1  "
3, 480, System_exclusive, 137, 65, 16, 66, 18, 72, 0, 0, 0, 4, 0, 0, 7, 15, 5, 4, 4, 2, 4, 0, 4, 0, 0, 0, 6, 3, 3, 9, 3, 3, 2, 0, 4, 8, 4, 13, 4, 13, 5, 3, 2, 0, 2, 0, 2, 0, 2, 0, 2, 0, 2, 0, 2, 0, 2, 0, 0, 2, 0, 4, 0, 2, 0, 4, 0, 4, 0, 3, 0, 2, 0, 1, 0, 1, 0, 1, 0, 0, 0, 0, 0, 0, 0, 0, 0, 0, 0, 0, 0, 0, 0, 0, 0, 4, 0, 4, 0, 0, 5, 4, 4, 0, 0, 0, 0, 0, 0, 0, 0, 2, 0, 0, 5, 4, 0, 8, 5, 0, 0, 3, 1, 3, 0, 0, 0, 0, 0, 0, 0, 0, 0, 0, 0, 0, 0, 0, 88, 247
3, 485, Program_c, 0, 27
3, 487, Control_c, 0, 11, 127
3, 490, Control_c, 0, 7, 88
3, 492, Control_c, 0, 10, 64
3, 495, Control_c, 0, 91, 0
3, 497, Control_c, 0, 93, 0
3, 3840, Note_on_c, 0, 46, 108
3, 4290, Note_on_c, 0, 46, 0
3, 4320, Note_on_c, 0, 44, 112
3, 4422, Note_on_c, 0, 44, 0
3, 7680, Note_on_c, 0, 46, 102
3, 8122, Note_on_c, 0, 46, 0
3, 8160, Note_on_c, 0, 44, 108
3, 8265, Note_on_c, 0, 44, 0
3, 9600, Note_on_c, 0, 83, 109
3, 9640, Note_on_c, 0, 83, 0
3, 9660, Note_on_c, 0, 88, 120
3, 9700, Note_on_c, 0, 88, 0
3, 9720, Note_on_c, 0, 82, 118
3, 9760, Note_on_c, 0, 82, 0
3, 9780, Note_on_c, 0, 87, 116
3, 9820, Note_on_c, 0, 87, 0
3, 9840, Note_on_c, 0, 81, 113
3, 9880, Note_on_c, 0, 81, 0
3, 9900, Note_on_c, 0, 86, 111
3, 9940, Note_on_c, 0, 86, 0
3, 9960, Note_on_c, 0, 80, 109
3, 10000, Note_on_c, 0, 80, 0
3, 10020, Note_on_c, 0, 85, 107
3, 10060, Note_on_c, 0, 85, 0
3, 10080, Note_on_c, 0, 79, 104
3, 10120, Note_on_c, 0, 79, 0
3, 10140, Note_on_c, 0, 84, 102
3, 10180, Note_on_c, 0, 84, 0
3, 10200, Note_on_c, 0, 78, 100
3, 10240, Note_on_c, 0, 78, 0
3, 10260, Note_on_c, 0, 83, 98
3, 10300, Note_on_c, 0, 83, 0
3, 10320, Note_on_c, 0, 77, 95
3, 10360, Note_on_c, 0, 77, 0
3, 10380, Note_on_c, 0, 82, 93
3, 10420, Note_on_c, 0, 82, 0
3, 10440, Note_on_c, 0, 76, 91
3, 10480, Note_on_c, 0, 76, 0
3, 10500, Note_on_c, 0, 81, 89
3, 10540, Note_on_c, 0, 81, 0
3, 10560, Note_on_c, 0, 75, 87
3, 10600, Note_on_c, 0, 75, 0
3, 10620, Note_on_c, 0, 80, 84
3, 10660, Note_on_c, 0, 80, 0
3, 10680, Note_on_c, 0, 74, 82
3, 10720, Note_on_c, 0, 74, 0
3, 10740, Note_on_c, 0, 79, 80
3, 10780, Note_on_c, 0, 79, 0
3, 10800, Note_on_c, 0, 73, 78
3, 10840, Note_on_c, 0, 73, 0
3, 10860, Note_on_c, 0, 78, 75
3, 10900, Note_on_c, 0, 78, 0
3, 10920, Note_on_c, 0, 72, 73
3, 10960, Note_on_c, 0, 72, 0
3, 10980, Note_on_c, 0, 77, 71
3, 11020, Note_on_c, 0, 77, 0
3, 11040, Note_on_c, 0, 71, 69
3, 11080, Note_on_c, 0, 71, 0
3, 11100, Note_on_c, 0, 76, 66
3, 11140, Note_on_c, 0, 76, 0
3, 11160, Note_on_c, 0, 70, 64
3, 11200, Note_on_c, 0, 70, 0
3, 11220, Note_on_c, 0, 75, 62
3, 11260, Note_on_c, 0, 75, 0
3, 11280, Note_on_c, 0, 69, 60
3, 11320, Note_on_c, 0, 69, 0
3, 11340, Note_on_c, 0, 74, 58
3, 11380, Note_on_c, 0, 74, 0
3, 11400, Note_on_c, 0, 68, 55
3, 11440, Note_on_c, 0, 68, 0
3, 11460, Note_on_c, 0, 73, 53
3, 11500, Note_on_c, 0, 73, 0
3, 11520, Note_on_c, 0, 53, 117
3, 11597, Note_on_c, 0, 53, 0
3, 11760, Note_on_c, 0, 53, 110
3, 11947, Note_on_c, 0, 53, 0
3, 12000, Note_on_c, 0, 55, 119
3, 12080, Note_on_c, 0, 55, 0
3, 12240, Note_on_c, 0, 55, 109
3, 12425, Note_on_c, 0, 55, 0
3, 12480, Note_on_c, 0, 56, 116
3, 12550, Note_on_c, 0, 56, 0
3, 13200, Note_on_c, 0, 53, 94
3, 13237, Note_on_c, 0, 53, 0
3, 13320, Note_on_c, 0, 53, 119
3, 13412, Note_on_c, 0, 53, 0
3, 13560, Note_on_c, 0, 53, 107
3, 13612, Note_on_c, 0, 53, 0
3, 13680, Note_on_c, 0, 53, 119
3, 13875, Note_on_c, 0, 53, 0
3, 13920, Note_on_c, 0, 55, 109
3, 13995, Note_on_c, 0, 55, 0
3, 14160, Note_on_c, 0, 55, 114
3, 14345, Note_on_c, 0, 55, 0
3, 14400, Note_on_c, 0, 56, 108
3, 14460, Note_on_c, 0, 56, 0
3, 15360, Note_on_c, 0, 53, 115
3, 15427, Note_on_c, 0, 53, 0
3, 15600, Note_on_c, 0, 53, 113
3, 15802, Note_on_c, 0, 53, 0
3, 15840, Note_on_c, 0, 55, 106
3, 15905, Note_on_c, 0, 55, 0
3, 16080, Note_on_c, 0, 55, 110
3, 16252, Note_on_c, 0, 55, 0
3, 16320, Note_on_c, 0, 56, 115
3, 16390, Note_on_c, 0, 56, 0
3, 17040, Note_on_c, 0, 53, 102
3, 17087, Note_on_c, 0, 53, 0
3, 17160, Note_on_c, 0, 53, 111
3, 17242, Note_on_c, 0, 53, 0
3, 17400, Note_on_c, 0, 53, 93
3, 17447, Note_on_c, 0, 53, 0
3, 17520, Note_on_c, 0, 53, 114
3, 17710, Note_on_c, 0, 53, 0
3, 17760, Note_on_c, 0, 55, 103
3, 17830, Note_on_c, 0, 55, 0
3, 18000, Note_on_c, 0, 55, 117
3, 18085, Note_on_c, 0, 55, 0
3, 18240, Note_on_c, 0, 56, 108
3, 18307, Note_on_c, 0, 56, 0
3, 18480, Note_on_c, 0, 61, 109
3, 18542, Note_on_c, 0, 61, 0
3, 18600, Note_on_c, 0, 63, 115
3, 18695, Note_on_c, 0, 63, 0
3, 18840, Note_on_c, 0, 61, 112
3, 18907, Note_on_c, 0, 61, 0
3, 18960, Note_on_c, 0, 63, 113
3, 19077, Note_on_c, 0, 63, 0
3, 19200, Note_on_c, 0, 53, 117
3, 19277, Note_on_c, 0, 53, 0
3, 19440, Note_on_c, 0, 53, 110
3, 19627, Note_on_c, 0, 53, 0
3, 19680, Note_on_c, 0, 55, 119
3, 19760, Note_on_c, 0, 55, 0
3, 19920, Note_on_c, 0, 55, 109
3, 20105, Note_on_c, 0, 55, 0
3, 20160, Note_on_c, 0, 56, 116
3, 20230, Note_on_c, 0, 56, 0
3, 20880, Note_on_c, 0, 53, 94
3, 20917, Note_on_c, 0, 53, 0
3, 21000, Note_on_c, 0, 53, 119
3, 21092, Note_on_c, 0, 53, 0
3, 21240, Note_on_c, 0, 53, 107
3, 21292, Note_on_c, 0, 53, 0
3, 21360, Note_on_c, 0, 53, 119
3, 21555, Note_on_c, 0, 53, 0
3, 21600, Note_on_c, 0, 55, 109
3, 21675, Note_on_c, 0, 55, 0
3, 21840, Note_on_c, 0, 55, 114
3, 22025, Note_on_c, 0, 55, 0
3, 22080, Note_on_c, 0, 56, 108
3, 22140, Note_on_c, 0, 56, 0
3, 23040, Note_on_c, 0, 53, 115
3, 23107, Note_on_c, 0, 53, 0
3, 23280, Note_on_c, 0, 53, 113
3, 23482, Note_on_c, 0, 53, 0
3, 23520, Note_on_c, 0, 55, 106
3, 23585, Note_on_c, 0, 55, 0
3, 23760, Note_on_c, 0, 55, 110
3, 23932, Note_on_c, 0, 55, 0
3, 24000, Note_on_c, 0, 56, 115
3, 24070, Note_on_c, 0, 56, 0
3, 24720, Note_on_c, 0, 53, 102
3, 24767, Note_on_c, 0, 53, 0
3, 24840, Note_on_c, 0, 53, 111
3, 24922, Note_on_c, 0, 53, 0
3, 25080, Note_on_c, 0, 53, 93
3, 25127, Note_on_c, 0, 53, 0
3, 25200, Note_on_c, 0, 53, 114
3, 25390, Note_on_c, 0, 53, 0
3, 25440, Note_on_c, 0, 55, 103
3, 25510, Note_on_c, 0, 55, 0
3, 25680, Note_on_c, 0, 55, 117
3, 25765, Note_on_c, 0, 55, 0
3, 25920, Note_on_c, 0, 56, 108
3, 25987, Note_on_c, 0, 56, 0
3, 26160, Note_on_c, 0, 61, 109
3, 26222, Note_on_c, 0, 61, 0
3, 26280, Note_on_c, 0, 63, 115
3, 26375, Note_on_c, 0, 63, 0
3, 26520, Note_on_c, 0, 61, 112
3, 26587, Note_on_c, 0, 61, 0
3, 26640, Note_on_c, 0, 63, 113
3, 26757, Note_on_c, 0, 63, 0
3, 26880, Note_on_c, 0, 53, 117
3, 26957, Note_on_c, 0, 53, 0
3, 27120, Note_on_c, 0, 53, 110
3, 27307, Note_on_c, 0, 53, 0
3, 27360, Note_on_c, 0, 55, 119
3, 27440, Note_on_c, 0, 55, 0
3, 27600, Note_on_c, 0, 55, 109
3, 27785, Note_on_c, 0, 55, 0
3, 27840, Note_on_c, 0, 56, 116
3, 27910, Note_on_c, 0, 56, 0
3, 28560, Note_on_c, 0, 53, 94
3, 28597, Note_on_c, 0, 53, 0
3, 28680, Note_on_c, 0, 53, 119
3, 28772, Note_on_c, 0, 53, 0
3, 28920, Note_on_c, 0, 53, 107
3, 28972, Note_on_c, 0, 53, 0
3, 29040, Note_on_c, 0, 53, 119
3, 29235, Note_on_c, 0, 53, 0
3, 29280, Note_on_c, 0, 55, 109
3, 29355, Note_on_c, 0, 55, 0
3, 29520, Note_on_c, 0, 55, 114
3, 29705, Note_on_c, 0, 55, 0
3, 29760, Note_on_c, 0, 56, 108
3, 29820, Note_on_c, 0, 56, 0
3, 30720, Note_on_c, 0, 53, 115
3, 30787, Note_on_c, 0, 53, 0
3, 30960, Note_on_c, 0, 53, 113
3, 31162, Note_on_c, 0, 53, 0
3, 31200, Note_on_c, 0, 55, 106
3, 31265, Note_on_c, 0, 55, 0
3, 31440, Note_on_c, 0, 55, 110
3, 31612, Note_on_c, 0, 55, 0
3, 31680, Note_on_c, 0, 56, 115
3, 31750, Note_on_c, 0, 56, 0
3, 32400, Note_on_c, 0, 53, 102
3, 32447, Note_on_c, 0, 53, 0
3, 32520, Note_on_c, 0, 53, 111
3, 32602, Note_on_c, 0, 53, 0
3, 32760, Note_on_c, 0, 53, 93
3, 32807, Note_on_c, 0, 53, 0
3, 32880, Note_on_c, 0, 53, 114
3, 33070, Note_on_c, 0, 53, 0
3, 33120, Note_on_c, 0, 55, 103
3, 33190, Note_on_c, 0, 55, 0
3, 33360, Note_on_c, 0, 55, 117
3, 33445, Note_on_c, 0, 55, 0
3, 33600, Note_on_c, 0, 56, 108
3, 33667, Note_on_c, 0, 56, 0
3, 33840, Note_on_c, 0, 61, 109
3, 33902, Note_on_c, 0, 61, 0
3, 33960, Note_on_c, 0, 63, 115
3, 34055, Note_on_c, 0, 63, 0
3, 34200, Note_on_c, 0, 61, 112
3, 34267, Note_on_c, 0, 61, 0
3, 34320, Note_on_c, 0, 63, 113
3, 34437, Note_on_c, 0, 63, 0
3, 34560, Note_on_c, 0, 53, 117
3, 34637, Note_on_c, 0, 53, 0
3, 34800, Note_on_c, 0, 53, 110
3, 34987, Note_on_c, 0, 53, 0
3, 35040, Note_on_c, 0, 55, 119
3, 35120, Note_on_c, 0, 55, 0
3, 35280, Note_on_c, 0, 55, 109
3, 35465, Note_on_c, 0, 55, 0
3, 35520, Note_on_c, 0, 56, 116
3, 35590, Note_on_c, 0, 56, 0
3, 36240, Note_on_c, 0, 53, 94
3, 36277, Note_on_c, 0, 53, 0
3, 36360, Note_on_c, 0, 53, 119
3, 36452, Note_on_c, 0, 53, 0
3, 36600, Note_on_c, 0, 53, 107
3, 36652, Note_on_c, 0, 53, 0
3, 36720, Note_on_c, 0, 53, 119
3, 36915, Note_on_c, 0, 53, 0
3, 36960, Note_on_c, 0, 55, 109
3, 37035, Note_on_c, 0, 55, 0
3, 37200, Note_on_c, 0, 55, 114
3, 37385, Note_on_c, 0, 55, 0
3, 37440, Note_on_c, 0, 56, 108
3, 37500, Note_on_c, 0, 56, 0
3, 38400, Note_on_c, 0, 53, 115
3, 38467, Note_on_c, 0, 53, 0
3, 38640, Note_on_c, 0, 53, 113
3, 38842, Note_on_c, 0, 53, 0
3, 38880, Note_on_c, 0, 55, 106
3, 38945, Note_on_c, 0, 55, 0
3, 39120, Note_on_c, 0, 55, 110
3, 39292, Note_on_c, 0, 55, 0
3, 39360, Note_on_c, 0, 56, 115
3, 39430, Note_on_c, 0, 56, 0
3, 40080, Note_on_c, 0, 53, 102
3, 40127, Note_on_c, 0, 53, 0
3, 40200, Note_on_c, 0, 53, 111
3, 40282, Note_on_c, 0, 53, 0
3, 40440, Note_on_c, 0, 53, 93
3, 40487, Note_on_c, 0, 53, 0
3, 40560, Note_on_c, 0, 53, 114
3, 40750, Note_on_c, 0, 53, 0
3, 40800, Note_on_c, 0, 55, 103
3, 40870, Note_on_c, 0, 55, 0
3, 41040, Note_on_c, 0, 55, 117
3, 41125, Note_on_c, 0, 55, 0
3, 41280, Note_on_c, 0, 56, 108
3, 41347, Note_on_c, 0, 56, 0
3, 41520, Note_on_c, 0, 61, 109
3, 41582, Note_on_c, 0, 61, 0
3, 41640, Note_on_c, 0, 63, 115
3, 41735, Note_on_c, 0, 63, 0
3, 41880, Note_on_c, 0, 61, 112
3, 41947, Note_on_c, 0, 61, 0
3, 42000, Note_on_c, 0, 63, 113
3, 42117, Note_on_c, 0, 63, 0
3, 42240, Note_on_c, 0, 53, 117
3, 42317, Note_on_c, 0, 53, 0
3, 42480, Note_on_c, 0, 53, 110
3, 42667, Note_on_c, 0, 53, 0
3, 42720, Note_on_c, 0, 55, 119
3, 42800, Note_on_c, 0, 55, 0
3, 42960, Note_on_c, 0, 55, 109
3, 43145, Note_on_c, 0, 55, 0
3, 43200, Note_on_c, 0, 56, 116
3, 43270, Note_on_c, 0, 56, 0
3, 43920, Note_on_c, 0, 53, 94
3, 43957, Note_on_c, 0, 53, 0
3, 44040, Note_on_c, 0, 53, 119
3, 44132, Note_on_c, 0, 53, 0
3, 44280, Note_on_c, 0, 53, 107
3, 44332, Note_on_c, 0, 53, 0
3, 44400, Note_on_c, 0, 53, 119
3, 44595, Note_on_c, 0, 53, 0
3, 44640, Note_on_c, 0, 55, 109
3, 44715, Note_on_c, 0, 55, 0
3, 44880, Note_on_c, 0, 55, 114
3, 45065, Note_on_c, 0, 55, 0
3, 45120, Note_on_c, 0, 56, 108
3, 45180, Note_on_c, 0, 56, 0
3, 46080, Note_on_c, 0, 53, 115
3, 46147, Note_on_c, 0, 53, 0
3, 46320, Note_on_c, 0, 53, 113
3, 46522, Note_on_c, 0, 53, 0
3, 46560, Note_on_c, 0, 55, 106
3, 46625, Note_on_c, 0, 55, 0
3, 46800, Note_on_c, 0, 55, 110
3, 46972, Note_on_c, 0, 55, 0
3, 47040, Note_on_c, 0, 56, 115
3, 47110, Note_on_c, 0, 56, 0
3, 47760, Note_on_c, 0, 53, 102
3, 47807, Note_on_c, 0, 53, 0
3, 47880, Note_on_c, 0, 53, 111
3, 47962, Note_on_c, 0, 53, 0
3, 48120, Note_on_c, 0, 53, 93
3, 48167, Note_on_c, 0, 53, 0
3, 48240, Note_on_c, 0, 53, 114
3, 48430, Note_on_c, 0, 53, 0
3, 48480, Note_on_c, 0, 55, 103
3, 48550, Note_on_c, 0, 55, 0
3, 48720, Note_on_c, 0, 55, 117
3, 48805, Note_on_c, 0, 55, 0
3, 48960, Note_on_c, 0, 56, 108
3, 49027, Note_on_c, 0, 56, 0
3, 49200, Note_on_c, 0, 61, 109
3, 49262, Note_on_c, 0, 61, 0
3, 49320, Note_on_c, 0, 63, 115
3, 49415, Note_on_c, 0, 63, 0
3, 49560, Note_on_c, 0, 61, 112
3, 49627, Note_on_c, 0, 61, 0
3, 49680, Note_on_c, 0, 63, 113
3, 49797, Note_on_c, 0, 63, 0
3, 49920, Note_on_c, 0, 53, 117
3, 49997, Note_on_c, 0, 53, 0
3, 50160, Note_on_c, 0, 53, 110
3, 50347, Note_on_c, 0, 53, 0
3, 50400, Note_on_c, 0, 55, 119
3, 50480, Note_on_c, 0, 55, 0
3, 50640, Note_on_c, 0, 55, 109
3, 50825, Note_on_c, 0, 55, 0
3, 50880, Note_on_c, 0, 56, 116
3, 50950, Note_on_c, 0, 56, 0
3, 51600, Note_on_c, 0, 53, 94
3, 51637, Note_on_c, 0, 53, 0
3, 51720, Note_on_c, 0, 53, 119
3, 51812, Note_on_c, 0, 53, 0
3, 51960, Note_on_c, 0, 53, 107
3, 52012, Note_on_c, 0, 53, 0
3, 52080, Note_on_c, 0, 53, 119
3, 52275, Note_on_c, 0, 53, 0
3, 52320, Note_on_c, 0, 55, 109
3, 52395, Note_on_c, 0, 55, 0
3, 52560, Note_on_c, 0, 55, 114
3, 52745, Note_on_c, 0, 55, 0
3, 52800, Note_on_c, 0, 56, 108
3, 52860, Note_on_c, 0, 56, 0
3, 53760, Note_on_c, 0, 53, 115
3, 53827, Note_on_c, 0, 53, 0
3, 54000, Note_on_c, 0, 53, 113
3, 54202, Note_on_c, 0, 53, 0
3, 54240, Note_on_c, 0, 55, 106
3, 54305, Note_on_c, 0, 55, 0
3, 54480, Note_on_c, 0, 55, 110
3, 54652, Note_on_c, 0, 55, 0
3, 54720, Note_on_c, 0, 56, 115
3, 54790, Note_on_c, 0, 56, 0
3, 55440, Note_on_c, 0, 53, 102
3, 55487, Note_on_c, 0, 53, 0
3, 55560, Note_on_c, 0, 53, 111
3, 55642, Note_on_c, 0, 53, 0
3, 55800, Note_on_c, 0, 53, 93
3, 55847, Note_on_c, 0, 53, 0
3, 55920, Note_on_c, 0, 53, 114
3, 56110, Note_on_c, 0, 53, 0
3, 56160, Note_on_c, 0, 55, 103
3, 56230, Note_on_c, 0, 55, 0
3, 56400, Note_on_c, 0, 55, 117
3, 56485, Note_on_c, 0, 55, 0
3, 56640, Note_on_c, 0, 56, 108
3, 56707, Note_on_c, 0, 56, 0
3, 56880, Note_on_c, 0, 61, 109
3, 56942, Note_on_c, 0, 61, 0
3, 57000, Note_on_c, 0, 63, 115
3, 57095, Note_on_c, 0, 63, 0
3, 57240, Note_on_c, 0, 61, 112
3, 57307, Note_on_c, 0, 61, 0
3, 57360, Note_on_c, 0, 63, 113
3, 57477, Note_on_c, 0, 63, 0
3, 57600, Note_on_c, 0, 53, 117
3, 57677, Note_on_c, 0, 53, 0
3, 57840, Note_on_c, 0, 53, 110
3, 58027, Note_on_c, 0, 53, 0
3, 58080, Note_on_c, 0, 55, 119
3, 58160, Note_on_c, 0, 55, 0
3, 58320, Note_on_c, 0, 55, 109
3, 58505, Note_on_c, 0, 55, 0
3, 58560, Note_on_c, 0, 56, 116
3, 58630, Note_on_c, 0, 56, 0
3, 59280, Note_on_c, 0, 53, 94
3, 59317, Note_on_c, 0, 53, 0
3, 59400, Note_on_c, 0, 53, 119
3, 59492, Note_on_c, 0, 53, 0
3, 59640, Note_on_c, 0, 53, 107
3, 59692, Note_on_c, 0, 53, 0
3, 59760, Note_on_c, 0, 53, 119
3, 59955, Note_on_c, 0, 53, 0
3, 60000, Note_on_c, 0, 55, 109
3, 60075, Note_on_c, 0, 55, 0
3, 60240, Note_on_c, 0, 55, 114
3, 60425, Note_on_c, 0, 55, 0
3, 60480, Note_on_c, 0, 56, 108
3, 60540, Note_on_c, 0, 56, 0
3, 61440, Note_on_c, 0, 53, 115
3, 61507, Note_on_c, 0, 53, 0
3, 61680, Note_on_c, 0, 53, 113
3, 61882, Note_on_c, 0, 53, 0
3, 61920, Note_on_c, 0, 55, 106
3, 61985, Note_on_c, 0, 55, 0
3, 62160, Note_on_c, 0, 55, 110
3, 62332, Note_on_c, 0, 55, 0
3, 62400, Note_on_c, 0, 56, 115
3, 62470, Note_on_c, 0, 56, 0
3, 63120, Note_on_c, 0, 53, 102
3, 63167, Note_on_c, 0, 53, 0
3, 63240, Note_on_c, 0, 53, 111
3, 63322, Note_on_c, 0, 53, 0
3, 63480, Note_on_c, 0, 53, 93
3, 63527, Note_on_c, 0, 53, 0
3, 63600, Note_on_c, 0, 53, 114
3, 63790, Note_on_c, 0, 53, 0
3, 63840, Note_on_c, 0, 55, 103
3, 63910, Note_on_c, 0, 55, 0
3, 64080, Note_on_c, 0, 55, 117
3, 64165, Note_on_c, 0, 55, 0
3, 64320, Note_on_c, 0, 56, 108
3, 64387, Note_on_c, 0, 56, 0
3, 64560, Note_on_c, 0, 61, 109
3, 64622, Note_on_c, 0, 61, 0
3, 64680, Note_on_c, 0, 63, 115
3, 64775, Note_on_c, 0, 63, 0
3, 64920, Note_on_c, 0, 61, 112
3, 64987, Note_on_c, 0, 61, 0
3, 65040, Note_on_c, 0, 63, 113
3, 65157, Note_on_c, 0, 63, 0
3, 65280, Note_on_c, 0, 53, 117
3, 65357, Note_on_c, 0, 53, 0
3, 65520, Note_on_c, 0, 53, 110
3, 65707, Note_on_c, 0, 53, 0
3, 65760, Note_on_c, 0, 55, 119
3, 65840, Note_on_c, 0, 55, 0
3, 66000, Note_on_c, 0, 55, 109
3, 66185, Note_on_c, 0, 55, 0
3, 66240, Note_on_c, 0, 56, 116
3, 66310, Note_on_c, 0, 56, 0
3, 66960, Note_on_c, 0, 53, 94
3, 66997, Note_on_c, 0, 53, 0
3, 67080, Note_on_c, 0, 53, 119
3, 67172, Note_on_c, 0, 53, 0
3, 67320, Note_on_c, 0, 53, 107
3, 67372, Note_on_c, 0, 53, 0
3, 67440, Note_on_c, 0, 53, 119
3, 67635, Note_on_c, 0, 53, 0
3, 67680, Note_on_c, 0, 55, 109
3, 67755, Note_on_c, 0, 55, 0
3, 67920, Note_on_c, 0, 55, 114
3, 68105, Note_on_c, 0, 55, 0
3, 68160, Note_on_c, 0, 56, 108
3, 68220, Note_on_c, 0, 56, 0
3, 69120, Note_on_c, 0, 53, 115
3, 69187, Note_on_c, 0, 53, 0
3, 69360, Note_on_c, 0, 53, 113
3, 69562, Note_on_c, 0, 53, 0
3, 69600, Note_on_c, 0, 55, 106
3, 69665, Note_on_c, 0, 55, 0
3, 69840, Note_on_c, 0, 55, 110
3, 70012, Note_on_c, 0, 55, 0
3, 70080, Note_on_c, 0, 56, 115
3, 70150, Note_on_c, 0, 56, 0
3, 70800, Note_on_c, 0, 53, 102
3, 70847, Note_on_c, 0, 53, 0
3, 70920, Note_on_c, 0, 53, 111
3, 71002, Note_on_c, 0, 53, 0
3, 71160, Note_on_c, 0, 53, 93
3, 71207, Note_on_c, 0, 53, 0
3, 71280, Note_on_c, 0, 53, 114
3, 71470, Note_on_c, 0, 53, 0
3, 71520, Note_on_c, 0, 55, 103
3, 71590, Note_on_c, 0, 55, 0
3, 71760, Note_on_c, 0, 55, 117
3, 71845, Note_on_c, 0, 55, 0
3, 72000, Note_on_c, 0, 56, 108
3, 72067, Note_on_c, 0, 56, 0
3, 72240, Note_on_c, 0, 61, 109
3, 72302, Note_on_c, 0, 61, 0
3, 72360, Note_on_c, 0, 63, 115
3, 72455, Note_on_c, 0, 63, 0
3, 72600, Note_on_c, 0, 61, 112
3, 72667, Note_on_c, 0, 61, 0
3, 72720, Note_on_c, 0, 63, 113
3, 72837, Note_on_c, 0, 63, 0
3, 72960, Note_on_c, 0, 53, 117
3, 73037, Note_on_c, 0, 53, 0
3, 73200, Note_on_c, 0, 53, 110
3, 73387, Note_on_c, 0, 53, 0
3, 73440, Note_on_c, 0, 55, 119
3, 73520, Note_on_c, 0, 55, 0
3, 73680, Note_on_c, 0, 55, 109
3, 73865, Note_on_c, 0, 55, 0
3, 73920, Note_on_c, 0, 56, 116
3, 73990, Note_on_c, 0, 56, 0
3, 74640, Note_on_c, 0, 53, 94
3, 74677, Note_on_c, 0, 53, 0
3, 74760, Note_on_c, 0, 53, 119
3, 74852, Note_on_c, 0, 53, 0
3, 75000, Note_on_c, 0, 53, 107
3, 75052, Note_on_c, 0, 53, 0
3, 75120, Note_on_c, 0, 53, 119
3, 75315, Note_on_c, 0, 53, 0
3, 75360, Note_on_c, 0, 55, 109
3, 75435, Note_on_c, 0, 55, 0
3, 75600, Note_on_c, 0, 55, 114
3, 75785, Note_on_c, 0, 55, 0
3, 75840, Note_on_c, 0, 56, 108
3, 75900, Note_on_c, 0, 56, 0
3, 76800, Note_on_c, 0, 53, 115
3, 76867, Note_on_c, 0, 53, 0
3, 77040, Note_on_c, 0, 53, 113
3, 77242, Note_on_c, 0, 53, 0
3, 77280, Note_on_c, 0, 55, 106
3, 77345, Note_on_c, 0, 55, 0
3, 77520, Note_on_c, 0, 55, 110
3, 77692, Note_on_c, 0, 55, 0
3, 77760, Note_on_c, 0, 56, 115
3, 77830, Note_on_c, 0, 56, 0
3, 78480, Note_on_c, 0, 53, 102
3, 78527, Note_on_c, 0, 53, 0
3, 78600, Note_on_c, 0, 53, 111
3, 78682, Note_on_c, 0, 53, 0
3, 78840, Note_on_c, 0, 53, 93
3, 78887, Note_on_c, 0, 53, 0
3, 78960, Note_on_c, 0, 53, 114
3, 79150, Note_on_c, 0, 53, 0
3, 79200, Note_on_c, 0, 55, 103
3, 79270, Note_on_c, 0, 55, 0
3, 79440, Note_on_c, 0, 55, 117
3, 79525, Note_on_c, 0, 55, 0
3, 79680, Note_on_c, 0, 56, 108
3, 79747, Note_on_c, 0, 56, 0
3, 79920, Note_on_c, 0, 61, 109
3, 79982, Note_on_c, 0, 61, 0
3, 80040, Note_on_c, 0, 63, 115
3, 80135, Note_on_c, 0, 63, 0
3, 80280, Note_on_c, 0, 61, 112
3, 80347, Note_on_c, 0, 61, 0
3, 80400, Note_on_c, 0, 63, 113
3, 80517, Note_on_c, 0, 63, 0
3, 80640, Note_on_c, 0, 53, 117
3, 80717, Note_on_c, 0, 53, 0
3, 80880, Note_on_c, 0, 53, 110
3, 81067, Note_on_c, 0, 53, 0
3, 81120, Note_on_c, 0, 55, 119
3, 81200, Note_on_c, 0, 55, 0
3, 81360, Note_on_c, 0, 55, 109
3, 81545, Note_on_c, 0, 55, 0
3, 81600, Note_on_c, 0, 56, 116
3, 81670, Note_on_c, 0, 56, 0
3, 82320, Note_on_c, 0, 53, 94
3, 82357, Note_on_c, 0, 53, 0
3, 82440, Note_on_c, 0, 53, 119
3, 82532, Note_on_c, 0, 53, 0
3, 82680, Note_on_c, 0, 53, 107
3, 82732, Note_on_c, 0, 53, 0
3, 82800, Note_on_c, 0, 53, 119
3, 82995, Note_on_c, 0, 53, 0
3, 83040, Note_on_c, 0, 55, 109
3, 83115, Note_on_c, 0, 55, 0
3, 83280, Note_on_c, 0, 55, 114
3, 83465, Note_on_c, 0, 55, 0
3, 83520, Note_on_c, 0, 56, 108
3, 83580, Note_on_c, 0, 56, 0
3, 84480, Note_on_c, 0, 53, 115
3, 84547, Note_on_c, 0, 53, 0
3, 84720, Note_on_c, 0, 53, 113
3, 84922, Note_on_c, 0, 53, 0
3, 84960, Note_on_c, 0, 55, 106
3, 85025, Note_on_c, 0, 55, 0
3, 85200, Note_on_c, 0, 55, 110
3, 85372, Note_on_c, 0, 55, 0
3, 85440, Note_on_c, 0, 56, 115
3, 85510, Note_on_c, 0, 56, 0
3, 86160, Note_on_c, 0, 53, 102
3, 86207, Note_on_c, 0, 53, 0
3, 86280, Note_on_c, 0, 53, 111
3, 86362, Note_on_c, 0, 53, 0
3, 86520, Note_on_c, 0, 53, 93
3, 86567, Note_on_c, 0, 53, 0
3, 86640, Note_on_c, 0, 53, 114
3, 86830, Note_on_c, 0, 53, 0
3, 86880, Note_on_c, 0, 55, 103
3, 86950, Note_on_c, 0, 55, 0
3, 87120, Note_on_c, 0, 55, 117
3, 87205, Note_on_c, 0, 55, 0
3, 87360, Note_on_c, 0, 56, 108
3, 87427, Note_on_c, 0, 56, 0
3, 87600, Note_on_c, 0, 61, 109
3, 87662, Note_on_c, 0, 61, 0
3, 87720, Note_on_c, 0, 63, 115
3, 87815, Note_on_c, 0, 63, 0
3, 87960, Note_on_c, 0, 61, 112
3, 88027, Note_on_c, 0, 61, 0
3, 88080, Note_on_c, 0, 63, 113
3, 88197, Note_on_c, 0, 63, 0
3, 88320, Note_on_c, 0, 53, 117
3, 88397, Note_on_c, 0, 53, 0
3, 88560, Note_on_c, 0, 53, 110
3, 88747, Note_on_c, 0, 53, 0
3, 88800, Note_on_c, 0, 55, 119
3, 88880, Note_on_c, 0, 55, 0
3, 89040, Note_on_c, 0, 55, 109
3, 89225, Note_on_c, 0, 55, 0
3, 89280, Note_on_c, 0, 56, 116
3, 89350, Note_on_c, 0, 56, 0
3, 90000, Note_on_c, 0, 53, 94
3, 90037, Note_on_c, 0, 53, 0
3, 90120, Note_on_c, 0, 53, 119
3, 90212, Note_on_c, 0, 53, 0
3, 90360, Note_on_c, 0, 53, 107
3, 90412, Note_on_c, 0, 53, 0
3, 90480, Note_on_c, 0, 53, 119
3, 90675, Note_on_c, 0, 53, 0
3, 90720, Note_on_c, 0, 55, 109
3, 90795, Note_on_c, 0, 55, 0
3, 90960, Note_on_c, 0, 55, 114
3, 91145, Note_on_c, 0, 55, 0
3, 91200, Note_on_c, 0, 56, 108
3, 91260, Note_on_c, 0, 56, 0
3, 92160, Note_on_c, 0, 53, 115
3, 92227, Note_on_c, 0, 53, 0
3, 92400, Note_on_c, 0, 53, 113
3, 92602, Note_on_c, 0, 53, 0
3, 92640, Note_on_c, 0, 55, 106
3, 92705, Note_on_c, 0, 55, 0
3, 92880, Note_on_c, 0, 55, 110
3, 93052, Note_on_c, 0, 55, 0
3, 93120, Note_on_c, 0, 56, 115
3, 93190, Note_on_c, 0, 56, 0
3, 93840, Note_on_c, 0, 53, 102
3, 93887, Note_on_c, 0, 53, 0
3, 93960, Note_on_c, 0, 53, 111
3, 94042, Note_on_c, 0, 53, 0
3, 94200, Note_on_c, 0, 53, 93
3, 94247, Note_on_c, 0, 53, 0
3, 94320, Note_on_c, 0, 53, 114
3, 94510, Note_on_c, 0, 53, 0
3, 94560, Note_on_c, 0, 55, 103
3, 94630, Note_on_c, 0, 55, 0
3, 94800, Note_on_c, 0, 55, 117
3, 94885, Note_on_c, 0, 55, 0
3, 95040, Note_on_c, 0, 56, 108
3, 95107, Note_on_c, 0, 56, 0
3, 95280, Note_on_c, 0, 61, 109
3, 95342, Note_on_c, 0, 61, 0
3, 95400, Note_on_c, 0, 63, 115
3, 95495, Note_on_c, 0, 63, 0
3, 95640, Note_on_c, 0, 61, 112
3, 95707, Note_on_c, 0, 61, 0
3, 95760, Note_on_c, 0, 63, 113
3, 95877, Note_on_c, 0, 63, 0
3, 96000, Note_on_c, 0, 53, 117
3, 96077, Note_on_c, 0, 53, 0
3, 96240, Note_on_c, 0, 53, 110
3, 96427, Note_on_c, 0, 53, 0
3, 96480, Note_on_c, 0, 55, 119
3, 96560, Note_on_c, 0, 55, 0
3, 96720, Note_on_c, 0, 55, 109
3, 96905, Note_on_c, 0, 55, 0
3, 96960, Note_on_c, 0, 56, 116
3, 97030, Note_on_c, 0, 56, 0
3, 97680, Note_on_c, 0, 53, 94
3, 97717, Note_on_c, 0, 53, 0
3, 97800, Note_on_c, 0, 53, 119
3, 97892, Note_on_c, 0, 53, 0
3, 98040, Note_on_c, 0, 53, 107
3, 98092, Note_on_c, 0, 53, 0
3, 98160, Note_on_c, 0, 53, 119
3, 98355, Note_on_c, 0, 53, 0
3, 98400, Note_on_c, 0, 55, 109
3, 98475, Note_on_c, 0, 55, 0
3, 98640, Note_on_c, 0, 55, 114
3, 98825, Note_on_c, 0, 55, 0
3, 98880, Note_on_c, 0, 56, 108
3, 98940, Note_on_c, 0, 56, 0
3, 99840, Note_on_c, 0, 53, 115
3, 99907, Note_on_c, 0, 53, 0
3, 100080, Note_on_c, 0, 53, 113
3, 100282, Note_on_c, 0, 53, 0
3, 100320, Note_on_c, 0, 55, 106
3, 100385, Note_on_c, 0, 55, 0
3, 100560, Note_on_c, 0, 55, 110
3, 100732, Note_on_c, 0, 55, 0
3, 100800, Note_on_c, 0, 56, 115
3, 100870, Note_on_c, 0, 56, 0
3, 101520, Note_on_c, 0, 53, 102
3, 101567, Note_on_c, 0, 53, 0
3, 101640, Note_on_c, 0, 53, 111
3, 101722, Note_on_c, 0, 53, 0
3, 101880, Note_on_c, 0, 53, 93
3, 101927, Note_on_c, 0, 53, 0
3, 102000, Note_on_c, 0, 53, 114
3, 102190, Note_on_c, 0, 53, 0
3, 102240, Note_on_c, 0, 55, 103
3, 102310, Note_on_c, 0, 55, 0
3, 102480, Note_on_c, 0, 55, 117
3, 102565, Note_on_c, 0, 55, 0
3, 102720, Note_on_c, 0, 56, 108
3, 102787, Note_on_c, 0, 56, 0
3, 102960, Note_on_c, 0, 61, 109
3, 103022, Note_on_c, 0, 61, 0
3, 103080, Note_on_c, 0, 63, 115
3, 103175, Note_on_c, 0, 63, 0
3, 103320, Note_on_c, 0, 61, 112
3, 103387, Note_on_c, 0, 61, 0
3, 103440, Note_on_c, 0, 63, 113
3, 103557, Note_on_c, 0, 63, 0
3, 103680, Note_on_c, 0, 53, 117
3, 103757, Note_on_c, 0, 53, 0
3, 103920, Note_on_c, 0, 53, 110
3, 104107, Note_on_c, 0, 53, 0
3, 104160, Note_on_c, 0, 55, 119
3, 104240, Note_on_c, 0, 55, 0
3, 104400, Note_on_c, 0, 55, 109
3, 104585, Note_on_c, 0, 55, 0
3, 104640, Note_on_c, 0, 56, 116
3, 104710, Note_on_c, 0, 56, 0
3, 105360, Note_on_c, 0, 53, 94
3, 105397, Note_on_c, 0, 53, 0
3, 105480, Note_on_c, 0, 53, 119
3, 105572, Note_on_c, 0, 53, 0
3, 105720, Note_on_c, 0, 53, 107
3, 105772, Note_on_c, 0, 53, 0
3, 105840, Note_on_c, 0, 53, 119
3, 106035, Note_on_c, 0, 53, 0
3, 106080, Note_on_c, 0, 55, 109
3, 106155, Note_on_c, 0, 55, 0
3, 106320, Note_on_c, 0, 55, 114
3, 106505, Note_on_c, 0, 55, 0
3, 106560, Note_on_c, 0, 56, 108
3, 106620, Note_on_c, 0, 56, 0
3, 107520, Note_on_c, 0, 53, 115
3, 107587, Note_on_c, 0, 53, 0
3, 107760, Note_on_c, 0, 53, 113
3, 107962, Note_on_c, 0, 53, 0
3, 108000, Note_on_c, 0, 55, 106
3, 108065, Note_on_c, 0, 55, 0
3, 108240, Note_on_c, 0, 55, 110
3, 108412, Note_on_c, 0, 55, 0
3, 108480, Note_on_c, 0, 56, 115
3, 108550, Note_on_c, 0, 56, 0
3, 109200, Note_on_c, 0, 53, 102
3, 109247, Note_on_c, 0, 53, 0
3, 109320, Note_on_c, 0, 53, 111
3, 109402, Note_on_c, 0, 53, 0
3, 109560, Note_on_c, 0, 53, 93
3, 109607, Note_on_c, 0, 53, 0
3, 109680, Note_on_c, 0, 53, 114
3, 109870, Note_on_c, 0, 53, 0
3, 109920, Note_on_c, 0, 55, 103
3, 109990, Note_on_c, 0, 55, 0
3, 110160, Note_on_c, 0, 55, 117
3, 110245, Note_on_c, 0, 55, 0
3, 110400, Note_on_c, 0, 56, 108
3, 110467, Note_on_c, 0, 56, 0
3, 110640, Note_on_c, 0, 61, 109
3, 110702, Note_on_c, 0, 61, 0
3, 110760, Note_on_c, 0, 63, 115
3, 110855, Note_on_c, 0, 63, 0
3, 111000, Note_on_c, 0, 61, 112
3, 111067, Note_on_c, 0, 61, 0
3, 111120, Note_on_c, 0, 63, 113
3, 111237, Note_on_c, 0, 63, 0
3, 111360, Note_on_c, 0, 53, 117
3, 111437, Note_on_c, 0, 53, 0
3, 111600, Note_on_c, 0, 53, 110
3, 111787, Note_on_c, 0, 53, 0
3, 111840, Note_on_c, 0, 55, 119
3, 111920, Note_on_c, 0, 55, 0
3, 112080, Note_on_c, 0, 55, 109
3, 112265, Note_on_c, 0, 55, 0
3, 112320, Note_on_c, 0, 56, 116
3, 112390, Note_on_c, 0, 56, 0
3, 113040, Note_on_c, 0, 53, 94
3, 113077, Note_on_c, 0, 53, 0
3, 113160, Note_on_c, 0, 53, 119
3, 113252, Note_on_c, 0, 53, 0
3, 113400, Note_on_c, 0, 53, 107
3, 113452, Note_on_c, 0, 53, 0
3, 113520, Note_on_c, 0, 53, 119
3, 113715, Note_on_c, 0, 53, 0
3, 113760, Note_on_c, 0, 55, 109
3, 113835, Note_on_c, 0, 55, 0
3, 114000, Note_on_c, 0, 55, 114
3, 114185, Note_on_c, 0, 55, 0
3, 114240, Note_on_c, 0, 56, 108
3, 114300, Note_on_c, 0, 56, 0
3, 115200, Note_on_c, 0, 53, 115
3, 115267, Note_on_c, 0, 53, 0
3, 115440, Note_on_c, 0, 53, 113
3, 115642, Note_on_c, 0, 53, 0
3, 115680, Note_on_c, 0, 55, 106
3, 115745, Note_on_c, 0, 55, 0
3, 115920, Note_on_c, 0, 55, 110
3, 116092, Note_on_c, 0, 55, 0
3, 116160, Note_on_c, 0, 56, 115
3, 116230, Note_on_c, 0, 56, 0
3, 116880, Note_on_c, 0, 53, 102
3, 116927, Note_on_c, 0, 53, 0
3, 117000, Note_on_c, 0, 53, 111
3, 117082, Note_on_c, 0, 53, 0
3, 117240, Note_on_c, 0, 53, 93
3, 117287, Note_on_c, 0, 53, 0
3, 117360, Note_on_c, 0, 53, 114
3, 117550, Note_on_c, 0, 53, 0
3, 117600, Note_on_c, 0, 55, 103
3, 117670, Note_on_c, 0, 55, 0
3, 117840, Note_on_c, 0, 55, 117
3, 117925, Note_on_c, 0, 55, 0
3, 118080, Note_on_c, 0, 56, 108
3, 118147, Note_on_c, 0, 56, 0
3, 118320, Note_on_c, 0, 61, 109
3, 118382, Note_on_c, 0, 61, 0
3, 118440, Note_on_c, 0, 63, 115
3, 118535, Note_on_c, 0, 63, 0
3, 118680, Note_on_c, 0, 61, 112
3, 118747, Note_on_c, 0, 61, 0
3, 118800, Note_on_c, 0, 63, 113
3, 118917, Note_on_c, 0, 63, 0
3, 119040, Note_on_c, 0, 53, 117
3, 119117, Note_on_c, 0, 53, 0
3, 119280, Note_on_c, 0, 53, 110
3, 119467, Note_on_c, 0, 53, 0
3, 119520, Note_on_c, 0, 55, 119
3, 119600, Note_on_c, 0, 55, 0
3, 119760, Note_on_c, 0, 55, 109
3, 119945, Note_on_c, 0, 55, 0
3, 120000, Note_on_c, 0, 56, 116
3, 120070, Note_on_c, 0, 56, 0
3, 120720, Note_on_c, 0, 53, 94
3, 120757, Note_on_c, 0, 53, 0
3, 120840, Note_on_c, 0, 53, 119
3, 120932, Note_on_c, 0, 53, 0
3, 121080, Note_on_c, 0, 53, 107
3, 121132, Note_on_c, 0, 53, 0
3, 121200, Note_on_c, 0, 53, 119
3, 121395, Note_on_c, 0, 53, 0
3, 121440, Note_on_c, 0, 55, 109
3, 121515, Note_on_c, 0, 55, 0
3, 121680, Note_on_c, 0, 55, 114
3, 121865, Note_on_c, 0, 55, 0
3, 121920, Note_on_c, 0, 56, 108
3, 121980, Note_on_c, 0, 56, 0
3, 122880, Note_on_c, 0, 53, 115
3, 122947, Note_on_c, 0, 53, 0
3, 123120, Note_on_c, 0, 53, 113
3, 123322, Note_on_c, 0, 53, 0
3, 123360, Note_on_c, 0, 55, 106
3, 123425, Note_on_c, 0, 55, 0
3, 123600, Note_on_c, 0, 55, 110
3, 123772, Note_on_c, 0, 55, 0
3, 123840, Note_on_c, 0, 56, 115
3, 123910, Note_on_c, 0, 56, 0
3, 124560, Note_on_c, 0, 53, 102
3, 124607, Note_on_c, 0, 53, 0
3, 124680, Note_on_c, 0, 53, 111
3, 124762, Note_on_c, 0, 53, 0
3, 124920, Note_on_c, 0, 53, 93
3, 124967, Note_on_c, 0, 53, 0
3, 125040, Note_on_c, 0, 53, 114
3, 125230, Note_on_c, 0, 53, 0
3, 125280, Note_on_c, 0, 55, 103
3, 125350, Note_on_c, 0, 55, 0
3, 125520, Note_on_c, 0, 55, 117
3, 125605, Note_on_c, 0, 55, 0
3, 125760, Note_on_c, 0, 56, 108
3, 125827, Note_on_c, 0, 56, 0
3, 126000, Note_on_c, 0, 61, 109
3, 126062, Note_on_c, 0, 61, 0
3, 126120, Note_on_c, 0, 63, 115
3, 126215, Note_on_c, 0, 63, 0
3, 126360, Note_on_c, 0, 61, 112
3, 126427, Note_on_c, 0, 61, 0
3, 126480, Note_on_c, 0, 63, 113
3, 126597, Note_on_c, 0, 63, 0
3, 126720, Note_on_c, 0, 53, 117
3, 126797, Note_on_c, 0, 53, 0
3, 126960, Note_on_c, 0, 53, 110
3, 127147, Note_on_c, 0, 53, 0
3, 127200, Note_on_c, 0, 55, 119
3, 127280, Note_on_c, 0, 55, 0
3, 127440, Note_on_c, 0, 55, 109
3, 127625, Note_on_c, 0, 55, 0
3, 127680, Note_on_c, 0, 56, 116
3, 127750, Note_on_c, 0, 56, 0
3, 128400, Note_on_c, 0, 53, 94
3, 128437, Note_on_c, 0, 53, 0
3, 128520, Note_on_c, 0, 53, 119
3, 128612, Note_on_c, 0, 53, 0
3, 128760, Note_on_c, 0, 53, 107
3, 128812, Note_on_c, 0, 53, 0
3, 128880, Note_on_c, 0, 53, 119
3, 129075, Note_on_c, 0, 53, 0
3, 129120, Note_on_c, 0, 55, 109
3, 129195, Note_on_c, 0, 55, 0
3, 129360, Note_on_c, 0, 55, 114
3, 129545, Note_on_c, 0, 55, 0
3, 129600, Note_on_c, 0, 56, 108
3, 129660, Note_on_c, 0, 56, 0
3, 130560, Note_on_c, 0, 53, 115
3, 130627, Note_on_c, 0, 53, 0
3, 130800, Note_on_c, 0, 53, 113
3, 131002, Note_on_c, 0, 53, 0
3, 131040, Note_on_c, 0, 55, 106
3, 131105, Note_on_c, 0, 55, 0
3, 131280, Note_on_c, 0, 55, 110
3, 131452, Note_on_c, 0, 55, 0
3, 131520, Note_on_c, 0, 56, 115
3, 131590, Note_on_c, 0, 56, 0
3, 132240, Note_on_c, 0, 53, 102
3, 132287, Note_on_c, 0, 53, 0
3, 132360, Note_on_c, 0, 53, 111
3, 132442, Note_on_c, 0, 53, 0
3, 132600, Note_on_c, 0, 53, 93
3, 132647, Note_on_c, 0, 53, 0
3, 132720, Note_on_c, 0, 53, 114
3, 132910, Note_on_c, 0, 53, 0
3, 132960, Note_on_c, 0, 55, 103
3, 133030, Note_on_c, 0, 55, 0
3, 133200, Note_on_c, 0, 55, 117
3, 133285, Note_on_c, 0, 55, 0
3, 133440, Note_on_c, 0, 56, 108
3, 133507, Note_on_c, 0, 56, 0
3, 133680, Note_on_c, 0, 61, 109
3, 133742, Note_on_c, 0, 61, 0
3, 133800, Note_on_c, 0, 63, 115
3, 133895, Note_on_c, 0, 63, 0
3, 134040, Note_on_c, 0, 61, 112
3, 134107, Note_on_c, 0, 61, 0
3, 134160, Note_on_c, 0, 63, 113
3, 134277, Note_on_c, 0, 63, 0
3, 134400, Note_on_c, 0, 55, 117
3, 134477, Note_on_c, 0, 55, 0
3, 134640, Note_on_c, 0, 55, 110
3, 134827, Note_on_c, 0, 55, 0
3, 134880, Note_on_c, 0, 57, 119
3, 134960, Note_on_c, 0, 57, 0
3, 135120, Note_on_c, 0, 57, 109
3, 135305, Note_on_c, 0, 57, 0
3, 135360, Note_on_c, 0, 58, 116
3, 135430, Note_on_c, 0, 58, 0
3, 136080, Note_on_c, 0, 55, 94
3, 136117, Note_on_c, 0, 55, 0
3, 136200, Note_on_c, 0, 55, 119
3, 136292, Note_on_c, 0, 55, 0
3, 136440, Note_on_c, 0, 55, 107
3, 136492, Note_on_c, 0, 55, 0
3, 136560, Note_on_c, 0, 55, 119
3, 136755, Note_on_c, 0, 55, 0
3, 136800, Note_on_c, 0, 57, 109
3, 136875, Note_on_c, 0, 57, 0
3, 137040, Note_on_c, 0, 57, 114
3, 137225, Note_on_c, 0, 57, 0
3, 137280, Note_on_c, 0, 58, 108
3, 137340, Note_on_c, 0, 58, 0
3, 138240, Note_on_c, 0, 55, 115
3, 138307, Note_on_c, 0, 55, 0
3, 138480, Note_on_c, 0, 55, 113
3, 138682, Note_on_c, 0, 55, 0
3, 138720, Note_on_c, 0, 57, 106
3, 138785, Note_on_c, 0, 57, 0
3, 138960, Note_on_c, 0, 57, 110
3, 139132, Note_on_c, 0, 57, 0
3, 139200, Note_on_c, 0, 58, 115
3, 139270, Note_on_c, 0, 58, 0
3, 139920, Note_on_c, 0, 55, 102
3, 139967, Note_on_c, 0, 55, 0
3, 140040, Note_on_c, 0, 55, 111
3, 140122, Note_on_c, 0, 55, 0
3, 140280, Note_on_c, 0, 55, 93
3, 140327, Note_on_c, 0, 55, 0
3, 140400, Note_on_c, 0, 55, 114
3, 140590, Note_on_c, 0, 55, 0
3, 140640, Note_on_c, 0, 57, 103
3, 140710, Note_on_c, 0, 57, 0
3, 140880, Note_on_c, 0, 57, 117
3, 140965, Note_on_c, 0, 57, 0
3, 141120, Note_on_c, 0, 58, 108
3, 141187, Note_on_c, 0, 58, 0
3, 141360, Note_on_c, 0, 63, 109
3, 141422, Note_on_c, 0, 63, 0
3, 141480, Note_on_c, 0, 65, 115
3, 141575, Note_on_c, 0, 65, 0
3, 141720, Note_on_c, 0, 63, 112
3, 141787, Note_on_c, 0, 63, 0
3, 141840, Note_on_c, 0, 65, 113
3, 141957, Note_on_c, 0, 65, 0
3, 142080, Note_on_c, 0, 55, 117
3, 142157, Note_on_c, 0, 55, 0
3, 142320, Note_on_c, 0, 55, 110
3, 142507, Note_on_c, 0, 55, 0
3, 142560, Note_on_c, 0, 57, 119
3, 142640, Note_on_c, 0, 57, 0
3, 142800, Note_on_c, 0, 57, 109
3, 142985, Note_on_c, 0, 57, 0
3, 143040, Note_on_c, 0, 58, 116
3, 143110, Note_on_c, 0, 58, 0
3, 143760, Note_on_c, 0, 55, 94
3, 143797, Note_on_c, 0, 55, 0
3, 143880, Note_on_c, 0, 55, 119
3, 143972, Note_on_c, 0, 55, 0
3, 144120, Note_on_c, 0, 55, 107
3, 144172, Note_on_c, 0, 55, 0
3, 144240, Note_on_c, 0, 55, 119
3, 144435, Note_on_c, 0, 55, 0
3, 144480, Note_on_c, 0, 57, 109
3, 144555, Note_on_c, 0, 57, 0
3, 144720, Note_on_c, 0, 57, 114
3, 144905, Note_on_c, 0, 57, 0
3, 144960, Note_on_c, 0, 58, 108
3, 145020, Note_on_c, 0, 58, 0
3, 145920, Note_on_c, 0, 55, 115
3, 145987, Note_on_c, 0, 55, 0
3, 146160, Note_on_c, 0, 55, 113
3, 146362, Note_on_c, 0, 55, 0
3, 146400, Note_on_c, 0, 57, 106
3, 146465, Note_on_c, 0, 57, 0
3, 146640, Note_on_c, 0, 57, 110
3, 146812, Note_on_c, 0, 57, 0
3, 146880, Note_on_c, 0, 58, 115
3, 146950, Note_on_c, 0, 58, 0
3, 147600, Note_on_c, 0, 55, 102
3, 147647, Note_on_c, 0, 55, 0
3, 147720, Note_on_c, 0, 55, 111
3, 147802, Note_on_c, 0, 55, 0
3, 147960, Note_on_c, 0, 55, 93
3, 148007, Note_on_c, 0, 55, 0
3, 148080, Note_on_c, 0, 55, 114
3, 148270, Note_on_c, 0, 55, 0
3, 148320, Note_on_c, 0, 57, 103
3, 148390, Note_on_c, 0, 57, 0
3, 148560, Note_on_c, 0, 57, 117
3, 148645, Note_on_c, 0, 57, 0
3, 148800, Note_on_c, 0, 58, 108
3, 148867, Note_on_c, 0, 58, 0
3, 149040, Note_on_c, 0, 63, 109
3, 149102, Note_on_c, 0, 63, 0
3, 149160, Note_on_c, 0, 65, 115
3, 149255, Note_on_c, 0, 65, 0
3, 149400, Note_on_c, 0, 63, 112
3, 149467, Note_on_c, 0, 63, 0
3, 149520, Note_on_c, 0, 65, 113
3, 149637, Note_on_c, 0, 65, 0
3, 149760, Note_on_c, 0, 53, 117
3, 149837, Note_on_c, 0, 53, 0
3, 150000, Note_on_c, 0, 53, 110
3, 150187, Note_on_c, 0, 53, 0
3, 150240, Note_on_c, 0, 55, 119
3, 150320, Note_on_c, 0, 55, 0
3, 150480, Note_on_c, 0, 55, 109
3, 150665, Note_on_c, 0, 55, 0
3, 150720, Note_on_c, 0, 56, 116
3, 150790, Note_on_c, 0, 56, 0
3, 151440, Note_on_c, 0, 53, 94
3, 151477, Note_on_c, 0, 53, 0
3, 151560, Note_on_c, 0, 53, 119
3, 151652, Note_on_c, 0, 53, 0
3, 151800, Note_on_c, 0, 53, 107
3, 151852, Note_on_c, 0, 53, 0
3, 151920, Note_on_c, 0, 53, 119
3, 152115, Note_on_c, 0, 53, 0
3, 152160, Note_on_c, 0, 55, 109
3, 152235, Note_on_c, 0, 55, 0
3, 152400, Note_on_c, 0, 55, 114
3, 152585, Note_on_c, 0, 55, 0
3, 152640, Note_on_c, 0, 56, 108
3, 152700, Note_on_c, 0, 56, 0
3, 153600, Note_on_c, 0, 53, 115
3, 153667, Note_on_c, 0, 53, 0
3, 153840, Note_on_c, 0, 53, 113
3, 154042, Note_on_c, 0, 53, 0
3, 154080, Note_on_c, 0, 55, 106
3, 154145, Note_on_c, 0, 55, 0
3, 154320, Note_on_c, 0, 55, 110
3, 154492, Note_on_c, 0, 55, 0
3, 154560, Note_on_c, 0, 56, 115
3, 154630, Note_on_c, 0, 56, 0
3, 155280, Note_on_c, 0, 53, 102
3, 155327, Note_on_c, 0, 53, 0
3, 155400, Note_on_c, 0, 53, 111
3, 155482, Note_on_c, 0, 53, 0
3, 155640, Note_on_c, 0, 53, 93
3, 155687, Note_on_c, 0, 53, 0
3, 155760, Note_on_c, 0, 53, 114
3, 155950, Note_on_c, 0, 53, 0
3, 156000, Note_on_c, 0, 55, 103
3, 156070, Note_on_c, 0, 55, 0
3, 156240, Note_on_c, 0, 55, 117
3, 156325, Note_on_c, 0, 55, 0
3, 156480, Note_on_c, 0, 56, 108
3, 156547, Note_on_c, 0, 56, 0
3, 156720, Note_on_c, 0, 61, 109
3, 156782, Note_on_c, 0, 61, 0
3, 156840, Note_on_c, 0, 63, 115
3, 156935, Note_on_c, 0, 63, 0
3, 157080, Note_on_c, 0, 61, 112
3, 157147, Note_on_c, 0, 61, 0
3, 157200, Note_on_c, 0, 63, 113
3, 157317, Note_on_c, 0, 63, 0
3, 157440, Note_on_c, 0, 53, 117
3, 157517, Note_on_c, 0, 53, 0
3, 157680, Note_on_c, 0, 53, 110
3, 157867, Note_on_c, 0, 53, 0
3, 157920, Note_on_c, 0, 55, 119
3, 158000, Note_on_c, 0, 55, 0
3, 158160, Note_on_c, 0, 55, 109
3, 158345, Note_on_c, 0, 55, 0
3, 158400, Note_on_c, 0, 56, 116
3, 158470, Note_on_c, 0, 56, 0
3, 159120, Note_on_c, 0, 53, 94
3, 159157, Note_on_c, 0, 53, 0
3, 159240, Note_on_c, 0, 53, 119
3, 159332, Note_on_c, 0, 53, 0
3, 159480, Note_on_c, 0, 53, 107
3, 159532, Note_on_c, 0, 53, 0
3, 159600, Note_on_c, 0, 53, 119
3, 159795, Note_on_c, 0, 53, 0
3, 159840, Note_on_c, 0, 55, 109
3, 159915, Note_on_c, 0, 55, 0
3, 160080, Note_on_c, 0, 55, 114
3, 160265, Note_on_c, 0, 55, 0
3, 160320, Note_on_c, 0, 56, 108
3, 160380, Note_on_c, 0, 56, 0
3, 161280, Note_on_c, 0, 53, 115
3, 161347, Note_on_c, 0, 53, 0
3, 161520, Note_on_c, 0, 53, 113
3, 161722, Note_on_c, 0, 53, 0
3, 161760, Note_on_c, 0, 55, 106
3, 161825, Note_on_c, 0, 55, 0
3, 162000, Note_on_c, 0, 55, 110
3, 162172, Note_on_c, 0, 55, 0
3, 162240, Note_on_c, 0, 56, 115
3, 162310, Note_on_c, 0, 56, 0
3, 162960, Note_on_c, 0, 53, 102
3, 163007, Note_on_c, 0, 53, 0
3, 163080, Note_on_c, 0, 53, 111
3, 163162, Note_on_c, 0, 53, 0
3, 163320, Note_on_c, 0, 53, 93
3, 163367, Note_on_c, 0, 53, 0
3, 163440, Note_on_c, 0, 53, 114
3, 163630, Note_on_c, 0, 53, 0
3, 163680, Note_on_c, 0, 55, 103
3, 163750, Note_on_c, 0, 55, 0
3, 163920, Note_on_c, 0, 55, 117
3, 164005, Note_on_c, 0, 55, 0
3, 164160, Note_on_c, 0, 56, 108
3, 164227, Note_on_c, 0, 56, 0
3, 164400, Note_on_c, 0, 61, 109
3, 164462, Note_on_c, 0, 61, 0
3, 164520, Note_on_c, 0, 63, 115
3, 164615, Note_on_c, 0, 63, 0
3, 164760, Note_on_c, 0, 61, 112
3, 164827, Note_on_c, 0, 61, 0
3, 164880, Note_on_c, 0, 63, 113
3, 164997, Note_on_c, 0, 63, 0
3, 165120, Note_on_c, 0, 53, 117
3, 165197, Note_on_c, 0, 53, 0
3, 165360, Note_on_c, 0, 53, 110
3, 165547, Note_on_c, 0, 53, 0
3, 165600, Note_on_c, 0, 55, 119
3, 165680, Note_on_c, 0, 55, 0
3, 165840, Note_on_c, 0, 55, 109
3, 166025, Note_on_c, 0, 55, 0
3, 166080, Note_on_c, 0, 56, 116
3, 166150, Note_on_c, 0, 56, 0
3, 166800, Note_on_c, 0, 53, 94
3, 166837, Note_on_c, 0, 53, 0
3, 166920, Note_on_c, 0, 53, 119
3, 167012, Note_on_c, 0, 53, 0
3, 167160, Note_on_c, 0, 53, 107
3, 167212, Note_on_c, 0, 53, 0
3, 167280, Note_on_c, 0, 53, 119
3, 167475, Note_on_c, 0, 53, 0
3, 167520, Note_on_c, 0, 55, 109
3, 167595, Note_on_c, 0, 55, 0
3, 167760, Note_on_c, 0, 55, 114
3, 167945, Note_on_c, 0, 55, 0
3, 168000, Note_on_c, 0, 56, 108
3, 168060, Note_on_c, 0, 56, 0
3, 168960, Note_on_c, 0, 53, 115
3, 169027, Note_on_c, 0, 53, 0
3, 169200, Note_on_c, 0, 53, 113
3, 169402, Note_on_c, 0, 53, 0
3, 169440, Note_on_c, 0, 55, 106
3, 169505, Note_on_c, 0, 55, 0
3, 169680, Note_on_c, 0, 55, 110
3, 169852, Note_on_c, 0, 55, 0
3, 169920, Note_on_c, 0, 56, 115
3, 169990, Note_on_c, 0, 56, 0
3, 170640, Note_on_c, 0, 53, 102
3, 170687, Note_on_c, 0, 53, 0
3, 170760, Note_on_c, 0, 53, 111
3, 170842, Note_on_c, 0, 53, 0
3, 171000, Note_on_c, 0, 53, 93
3, 171047, Note_on_c, 0, 53, 0
3, 171120, Note_on_c, 0, 53, 114
3, 171310, Note_on_c, 0, 53, 0
3, 171360, Note_on_c, 0, 55, 103
3, 171430, Note_on_c, 0, 55, 0
3, 171600, Note_on_c, 0, 55, 117
3, 171685, Note_on_c, 0, 55, 0
3, 171840, Note_on_c, 0, 56, 108
3, 171907, Note_on_c, 0, 56, 0
3, 172080, Note_on_c, 0, 61, 109
3, 172142, Note_on_c, 0, 61, 0
3, 172200, Note_on_c, 0, 63, 115
3, 172295, Note_on_c, 0, 63, 0
3, 172440, Note_on_c, 0, 61, 112
3, 172507, Note_on_c, 0, 61, 0
3, 172560, Note_on_c, 0, 63, 113
3, 172677, Note_on_c, 0, 63, 0
3, 172800, Note_on_c, 0, 53, 117
3, 172877, Note_on_c, 0, 53, 0
3, 173040, Note_on_c, 0, 53, 110
3, 173227, Note_on_c, 0, 53, 0
3, 173280, Note_on_c, 0, 55, 119
3, 173360, Note_on_c, 0, 55, 0
3, 173520, Note_on_c, 0, 55, 109
3, 173705, Note_on_c, 0, 55, 0
3, 173760, Note_on_c, 0, 56, 116
3, 173830, Note_on_c, 0, 56, 0
3, 174480, Note_on_c, 0, 53, 94
3, 174517, Note_on_c, 0, 53, 0
3, 174600, Note_on_c, 0, 53, 119
3, 174692, Note_on_c, 0, 53, 0
3, 174840, Note_on_c, 0, 53, 107
3, 174892, Note_on_c, 0, 53, 0
3, 174960, Note_on_c, 0, 53, 119
3, 175155, Note_on_c, 0, 53, 0
3, 175200, Note_on_c, 0, 55, 109
3, 175275, Note_on_c, 0, 55, 0
3, 175440, Note_on_c, 0, 55, 114
3, 175625, Note_on_c, 0, 55, 0
3, 175680, Note_on_c, 0, 56, 108
3, 175740, Note_on_c, 0, 56, 0
3, 176640, Note_on_c, 0, 53, 115
3, 176707, Note_on_c, 0, 53, 0
3, 176880, Note_on_c, 0, 53, 113
3, 177082, Note_on_c, 0, 53, 0
3, 177120, Note_on_c, 0, 55, 106
3, 177185, Note_on_c, 0, 55, 0
3, 177360, Note_on_c, 0, 55, 110
3, 177532, Note_on_c, 0, 55, 0
3, 177600, Note_on_c, 0, 56, 115
3, 177670, Note_on_c, 0, 56, 0
3, 178320, Note_on_c, 0, 53, 102
3, 178367, Note_on_c, 0, 53, 0
3, 178440, Note_on_c, 0, 53, 111
3, 178522, Note_on_c, 0, 53, 0
3, 178680, Note_on_c, 0, 53, 93
3, 178727, Note_on_c, 0, 53, 0
3, 178800, Note_on_c, 0, 53, 114
3, 178990, Note_on_c, 0, 53, 0
3, 179040, Note_on_c, 0, 55, 103
3, 179110, Note_on_c, 0, 55, 0
3, 179280, Note_on_c, 0, 55, 117
3, 179365, Note_on_c, 0, 55, 0
3, 179520, Note_on_c, 0, 56, 108
3, 179587, Note_on_c, 0, 56, 0
3, 179760, Note_on_c, 0, 61, 109
3, 179822, Note_on_c, 0, 61, 0
3, 179880, Note_on_c, 0, 63, 115
3, 179975, Note_on_c, 0, 63, 0
3, 180120, Note_on_c, 0, 61, 112
3, 180187, Note_on_c, 0, 61, 0
3, 180240, Note_on_c, 0, 63, 113
3, 180357, Note_on_c, 0, 63, 0
3, 180480, Note_on_c, 0, 53, 117
3, 180557, Note_on_c, 0, 53, 0
3, 180720, Note_on_c, 0, 53, 110
3, 180907, Note_on_c, 0, 53, 0
3, 180960, Note_on_c, 0, 55, 119
3, 181040, Note_on_c, 0, 55, 0
3, 181200, Note_on_c, 0, 55, 109
3, 181385, Note_on_c, 0, 55, 0
3, 181440, Note_on_c, 0, 56, 116
3, 181510, Note_on_c, 0, 56, 0
3, 182160, Note_on_c, 0, 53, 94
3, 182197, Note_on_c, 0, 53, 0
3, 182280, Note_on_c, 0, 53, 119
3, 182372, Note_on_c, 0, 53, 0
3, 182520, Note_on_c, 0, 53, 107
3, 182572, Note_on_c, 0, 53, 0
3, 182640, Note_on_c, 0, 53, 119
3, 182835, Note_on_c, 0, 53, 0
3, 182880, Note_on_c, 0, 55, 109
3, 182955, Note_on_c, 0, 55, 0
3, 183120, Note_on_c, 0, 55, 114
3, 183305, Note_on_c, 0, 55, 0
3, 183360, Note_on_c, 0, 56, 108
3, 183420, Note_on_c, 0, 56, 0
3, 184320, Note_on_c, 0, 53, 115
3, 184387, Note_on_c, 0, 53, 0
3, 184560, Note_on_c, 0, 53, 113
3, 184762, Note_on_c, 0, 53, 0
3, 184800, Note_on_c, 0, 55, 106
3, 184865, Note_on_c, 0, 55, 0
3, 185040, Note_on_c, 0, 55, 110
3, 185212, Note_on_c, 0, 55, 0
3, 185280, Note_on_c, 0, 56, 115
3, 185350, Note_on_c, 0, 56, 0
3, 186000, Note_on_c, 0, 53, 102
3, 186047, Note_on_c, 0, 53, 0
3, 186120, Note_on_c, 0, 53, 111
3, 186202, Note_on_c, 0, 53, 0
3, 186360, Note_on_c, 0, 53, 93
3, 186407, Note_on_c, 0, 53, 0
3, 186480, Note_on_c, 0, 53, 114
3, 186670, Note_on_c, 0, 53, 0
3, 186720, Note_on_c, 0, 55, 103
3, 186790, Note_on_c, 0, 55, 0
3, 186960, Note_on_c, 0, 55, 117
3, 187045, Note_on_c, 0, 55, 0
3, 187200, Note_on_c, 0, 56, 108
3, 187267, Note_on_c, 0, 56, 0
3, 187440, Note_on_c, 0, 61, 109
3, 187502, Note_on_c, 0, 61, 0
3, 187560, Note_on_c, 0, 63, 115
3, 187655, Note_on_c, 0, 63, 0
3, 187800, Note_on_c, 0, 61, 112
3, 187867, Note_on_c, 0, 61, 0
3, 187920, Note_on_c, 0, 63, 113
3, 188037, Note_on_c, 0, 63, 0
3, 188160, Note_on_c, 0, 53, 117
3, 188237, Note_on_c, 0, 53, 0
3, 188400, Note_on_c, 0, 53, 110
3, 188587, Note_on_c, 0, 53, 0
3, 188640, Note_on_c, 0, 55, 119
3, 188720, Note_on_c, 0, 55, 0
3, 188880, Note_on_c, 0, 55, 109
3, 189065, Note_on_c, 0, 55, 0
3, 189120, Note_on_c, 0, 56, 116
3, 189190, Note_on_c, 0, 56, 0
3, 189840, Note_on_c, 0, 53, 94
3, 189877, Note_on_c, 0, 53, 0
3, 189960, Note_on_c, 0, 53, 119
3, 190052, Note_on_c, 0, 53, 0
3, 190200, Note_on_c, 0, 53, 107
3, 190252, Note_on_c, 0, 53, 0
3, 190320, Note_on_c, 0, 53, 119
3, 190515, Note_on_c, 0, 53, 0
3, 190560, Note_on_c, 0, 55, 109
3, 190635, Note_on_c, 0, 55, 0
3, 190800, Note_on_c, 0, 55, 114
3, 190985, Note_on_c, 0, 55, 0
3, 191040, Note_on_c, 0, 56, 108
3, 191100, Note_on_c, 0, 56, 0
3, 192000, Note_on_c, 0, 53, 115
3, 192067, Note_on_c, 0, 53, 0
3, 192240, Note_on_c, 0, 53, 113
3, 192442, Note_on_c, 0, 53, 0
3, 192480, Note_on_c, 0, 55, 106
3, 192545, Note_on_c, 0, 55, 0
3, 192720, Note_on_c, 0, 55, 110
3, 192892, Note_on_c, 0, 55, 0
3, 192960, Note_on_c, 0, 56, 115
3, 193030, Note_on_c, 0, 56, 0
3, 193680, Note_on_c, 0, 53, 102
3, 193727, Note_on_c, 0, 53, 0
3, 193800, Note_on_c, 0, 53, 111
3, 193882, Note_on_c, 0, 53, 0
3, 194040, Note_on_c, 0, 53, 93
3, 194087, Note_on_c, 0, 53, 0
3, 194160, Note_on_c, 0, 53, 114
3, 194350, Note_on_c, 0, 53, 0
3, 194400, Note_on_c, 0, 55, 103
3, 194470, Note_on_c, 0, 55, 0
3, 194640, Note_on_c, 0, 55, 117
3, 194725, Note_on_c, 0, 55, 0
3, 194880, Note_on_c, 0, 56, 108
3, 194947, Note_on_c, 0, 56, 0
3, 195120, Note_on_c, 0, 61, 109
3, 195182, Note_on_c, 0, 61, 0
3, 195240, Note_on_c, 0, 63, 115
3, 195335, Note_on_c, 0, 63, 0
3, 195480, Note_on_c, 0, 61, 112
3, 195547, Note_on_c, 0, 61, 0
3, 195600, Note_on_c, 0, 63, 113
3, 195717, Note_on_c, 0, 63, 0
3, 195840, Note_on_c, 0, 53, 117
3, 195917, Note_on_c, 0, 53, 0
3, 196080, Note_on_c, 0, 53, 110
3, 196267, Note_on_c, 0, 53, 0
3, 196320, Note_on_c, 0, 55, 119
3, 196400, Note_on_c, 0, 55, 0
3, 196560, Note_on_c, 0, 55, 109
3, 196745, Note_on_c, 0, 55, 0
3, 196800, Note_on_c, 0, 56, 116
3, 196870, Note_on_c, 0, 56, 0
3, 197520, Note_on_c, 0, 53, 94
3, 197557, Note_on_c, 0, 53, 0
3, 197640, Note_on_c, 0, 53, 119
3, 197732, Note_on_c, 0, 53, 0
3, 197880, Note_on_c, 0, 53, 107
3, 197932, Note_on_c, 0, 53, 0
3, 198000, Note_on_c, 0, 53, 119
3, 198195, Note_on_c, 0, 53, 0
3, 198240, Note_on_c, 0, 55, 109
3, 198315, Note_on_c, 0, 55, 0
3, 198480, Note_on_c, 0, 55, 114
3, 198665, Note_on_c, 0, 55, 0
3, 198720, Note_on_c, 0, 56, 108
3, 198780, Note_on_c, 0, 56, 0
3, 199680, Note_on_c, 0, 53, 115
3, 199747, Note_on_c, 0, 53, 0
3, 199920, Note_on_c, 0, 53, 113
3, 200122, Note_on_c, 0, 53, 0
3, 200160, Note_on_c, 0, 55, 106
3, 200225, Note_on_c, 0, 55, 0
3, 200400, Note_on_c, 0, 55, 110
3, 200572, Note_on_c, 0, 55, 0
3, 200640, Note_on_c, 0, 56, 115
3, 200710, Note_on_c, 0, 56, 0
3, 201360, Note_on_c, 0, 53, 102
3, 201407, Note_on_c, 0, 53, 0
3, 201480, Note_on_c, 0, 53, 111
3, 201562, Note_on_c, 0, 53, 0
3, 201720, Note_on_c, 0, 53, 93
3, 201767, Note_on_c, 0, 53, 0
3, 201840, Note_on_c, 0, 53, 114
3, 202030, Note_on_c, 0, 53, 0
3, 202080, Note_on_c, 0, 55, 103
3, 202150, Note_on_c, 0, 55, 0
3, 202320, Note_on_c, 0, 55, 117
3, 202405, Note_on_c, 0, 55, 0
3, 202560, Note_on_c, 0, 56, 108
3, 202627, Note_on_c, 0, 56, 0
3, 202800, Note_on_c, 0, 61, 109
3, 202862, Note_on_c, 0, 61, 0
3, 202920, Note_on_c, 0, 63, 115
3, 203015, Note_on_c, 0, 63, 0
3, 203160, Note_on_c, 0, 61, 112
3, 203227, Note_on_c, 0, 61, 0
3, 203280, Note_on_c, 0, 63, 113
3, 203397, Note_on_c, 0, 63, 0
3, 203520, Note_on_c, 0, 55, 117
3, 203597, Note_on_c, 0, 55, 0
3, 203760, Note_on_c, 0, 55, 110
3, 203947, Note_on_c, 0, 55, 0
3, 204000, Note_on_c, 0, 57, 119
3, 204080, Note_on_c, 0, 57, 0
3, 204240, Note_on_c, 0, 57, 109
3, 204425, Note_on_c, 0, 57, 0
3, 204480, Note_on_c, 0, 58, 116
3, 204550, Note_on_c, 0, 58, 0
3, 205200, Note_on_c, 0, 55, 94
3, 205237, Note_on_c, 0, 55, 0
3, 205320, Note_on_c, 0, 55, 119
3, 205412, Note_on_c, 0, 55, 0
3, 205560, Note_on_c, 0, 55, 107
3, 205612, Note_on_c, 0, 55, 0
3, 205680, Note_on_c, 0, 55, 119
3, 205875, Note_on_c, 0, 55, 0
3, 205920, Note_on_c, 0, 57, 109
3, 205995, Note_on_c, 0, 57, 0
3, 206160, Note_on_c, 0, 57, 114
3, 206345, Note_on_c, 0, 57, 0
3, 206400, Note_on_c, 0, 58, 108
3, 206460, Note_on_c, 0, 58, 0
3, 207360, Note_on_c, 0, 55, 115
3, 207427, Note_on_c, 0, 55, 0
3, 207600, Note_on_c, 0, 55, 113
3, 207802, Note_on_c, 0, 55, 0
3, 207840, Note_on_c, 0, 57, 106
3, 207905, Note_on_c, 0, 57, 0
3, 208080, Note_on_c, 0, 57, 110
3, 208252, Note_on_c, 0, 57, 0
3, 208320, Note_on_c, 0, 58, 115
3, 208390, Note_on_c, 0, 58, 0
3, 209040, Note_on_c, 0, 55, 102
3, 209087, Note_on_c, 0, 55, 0
3, 209160, Note_on_c, 0, 55, 111
3, 209242, Note_on_c, 0, 55, 0
3, 209400, Note_on_c, 0, 55, 93
3, 209447, Note_on_c, 0, 55, 0
3, 209520, Note_on_c, 0, 55, 114
3, 209710, Note_on_c, 0, 55, 0
3, 209760, Note_on_c, 0, 57, 103
3, 209830, Note_on_c, 0, 57, 0
3, 210000, Note_on_c, 0, 57, 117
3, 210085, Note_on_c, 0, 57, 0
3, 210240, Note_on_c, 0, 58, 108
3, 210307, Note_on_c, 0, 58, 0
3, 210480, Note_on_c, 0, 63, 109
3, 210542, Note_on_c, 0, 63, 0
3, 210600, Note_on_c, 0, 65, 115
3, 210695, Note_on_c, 0, 65, 0
3, 210840, Note_on_c, 0, 63, 112
3, 210907, Note_on_c, 0, 63, 0
3, 210960, Note_on_c, 0, 65, 113
3, 211077, Note_on_c, 0, 65, 0
3, 211200, Note_on_c, 0, 55, 117
3, 211277, Note_on_c, 0, 55, 0
3, 211440, Note_on_c, 0, 55, 110
3, 211627, Note_on_c, 0, 55, 0
3, 211680, Note_on_c, 0, 57, 119
3, 211760, Note_on_c, 0, 57, 0
3, 211920, Note_on_c, 0, 57, 109
3, 212105, Note_on_c, 0, 57, 0
3, 212160, Note_on_c, 0, 58, 116
3, 212230, Note_on_c, 0, 58, 0
3, 212880, Note_on_c, 0, 55, 94
3, 212917, Note_on_c, 0, 55, 0
3, 213000, Note_on_c, 0, 55, 119
3, 213092, Note_on_c, 0, 55, 0
3, 213240, Note_on_c, 0, 55, 107
3, 213292, Note_on_c, 0, 55, 0
3, 213360, Note_on_c, 0, 55, 119
3, 213555, Note_on_c, 0, 55, 0
3, 213600, Note_on_c, 0, 57, 109
3, 213675, Note_on_c, 0, 57, 0
3, 213840, Note_on_c, 0, 57, 114
3, 214025, Note_on_c, 0, 57, 0
3, 214080, Note_on_c, 0, 58, 108
3, 214140, Note_on_c, 0, 58, 0
3, 215040, Note_on_c, 0, 55, 115
3, 215107, Note_on_c, 0, 55, 0
3, 215280, Note_on_c, 0, 55, 113
3, 215482, Note_on_c, 0, 55, 0
3, 215520, Note_on_c, 0, 57, 106
3, 215585, Note_on_c, 0, 57, 0
3, 215760, Note_on_c, 0, 57, 110
3, 215932, Note_on_c, 0, 57, 0
3, 216000, Note_on_c, 0, 58, 115
3, 216070, Note_on_c, 0, 58, 0
3, 216720, Note_on_c, 0, 55, 102
3, 216767, Note_on_c, 0, 55, 0
3, 216840, Note_on_c, 0, 55, 111
3, 216922, Note_on_c, 0, 55, 0
3, 216960, Note_on_c, 0, 48, 108
3, 216960, Note_on_c, 0, 55, 95
3, 217055, Note_on_c, 0, 55, 0
3, 217097, Note_on_c, 0, 48, 0
3, 217320, Note_on_c, 0, 48, 98
3, 217320, Note_on_c, 0, 55, 100
3, 217417, Note_on_c, 0, 48, 0
3, 217420, Note_on_c, 0, 55, 0
3, 217680, Note_on_c, 0, 50, 107
3, 217680, Note_on_c, 0, 57, 106
3, 217892, Note_on_c, 0, 50, 0
3, 217912, Note_on_c, 0, 57, 0
3, 217920, Note_on_c, 0, 51, 113
3, 217920, Note_on_c, 0, 58, 105
3, 218075, Note_on_c, 0, 58, 0
3, 218087, Note_on_c, 0, 51, 0
3, 234240, Note_on_c, 0, 55, 117
3, 234317, Note_on_c, 0, 55, 0
3, 234480, Note_on_c, 0, 55, 110
3, 234667, Note_on_c, 0, 55, 0
3, 234720, Note_on_c, 0, 57, 119
3, 234800, Note_on_c, 0, 57, 0
3, 234960, Note_on_c, 0, 57, 109
3, 235145, Note_on_c, 0, 57, 0
3, 235200, Note_on_c, 0, 58, 116
3, 235270, Note_on_c, 0, 58, 0
3, 235920, Note_on_c, 0, 55, 94
3, 235957, Note_on_c, 0, 55, 0
3, 236040, Note_on_c, 0, 55, 119
3, 236132, Note_on_c, 0, 55, 0
3, 236280, Note_on_c, 0, 55, 107
3, 236332, Note_on_c, 0, 55, 0
3, 236400, Note_on_c, 0, 55, 119
3, 236595, Note_on_c, 0, 55, 0
3, 236640, Note_on_c, 0, 57, 109
3, 236715, Note_on_c, 0, 57, 0
3, 236880, Note_on_c, 0, 57, 114
3, 237065, Note_on_c, 0, 57, 0
3, 237120, Note_on_c, 0, 58, 108
3, 237180, Note_on_c, 0, 58, 0
3, 238080, Note_on_c, 0, 55, 115
3, 238147, Note_on_c, 0, 55, 0
3, 238320, Note_on_c, 0, 55, 113
3, 238522, Note_on_c, 0, 55, 0
3, 238560, Note_on_c, 0, 57, 106
3, 238625, Note_on_c, 0, 57, 0
3, 238800, Note_on_c, 0, 57, 110
3, 238972, Note_on_c, 0, 57, 0
3, 239040, Note_on_c, 0, 58, 115
3, 239110, Note_on_c, 0, 58, 0
3, 239760, Note_on_c, 0, 55, 102
3, 239807, Note_on_c, 0, 55, 0
3, 239880, Note_on_c, 0, 55, 111
3, 239962, Note_on_c, 0, 55, 0
3, 240120, Note_on_c, 0, 55, 93
3, 240167, Note_on_c, 0, 55, 0
3, 240240, Note_on_c, 0, 55, 114
3, 240430, Note_on_c, 0, 55, 0
3, 240480, Note_on_c, 0, 57, 103
3, 240550, Note_on_c, 0, 57, 0
3, 240720, Note_on_c, 0, 57, 117
3, 240805, Note_on_c, 0, 57, 0
3, 240960, Note_on_c, 0, 58, 108
3, 241027, Note_on_c, 0, 58, 0
3, 241200, Note_on_c, 0, 63, 109
3, 241262, Note_on_c, 0, 63, 0
3, 241320, Note_on_c, 0, 65, 115
3, 241415, Note_on_c, 0, 65, 0
3, 241560, Note_on_c, 0, 63, 112
3, 241627, Note_on_c, 0, 63, 0
3, 241680, Note_on_c, 0, 65, 113
3, 241797, Note_on_c, 0, 65, 0
3, 241920, Note_on_c, 0, 55, 117
3, 241997, Note_on_c, 0, 55, 0
3, 242160, Note_on_c, 0, 55, 110
3, 242347, Note_on_c, 0, 55, 0
3, 242400, Note_on_c, 0, 57, 119
3, 242480, Note_on_c, 0, 57, 0
3, 242640, Note_on_c, 0, 57, 109
3, 242825, Note_on_c, 0, 57, 0
3, 242880, Note_on_c, 0, 58, 116
3, 242950, Note_on_c, 0, 58, 0
3, 243600, Note_on_c, 0, 55, 94
3, 243637, Note_on_c, 0, 55, 0
3, 243720, Note_on_c, 0, 55, 119
3, 243812, Note_on_c, 0, 55, 0
3, 243960, Note_on_c, 0, 55, 107
3, 244012, Note_on_c, 0, 55, 0
3, 244080, Note_on_c, 0, 55, 119
3, 244275, Note_on_c, 0, 55, 0
3, 244320, Note_on_c, 0, 57, 109
3, 244395, Note_on_c, 0, 57, 0
3, 244560, Note_on_c, 0, 57, 114
3, 244745, Note_on_c, 0, 57, 0
3, 244800, Note_on_c, 0, 58, 108
3, 244860, Note_on_c, 0, 58, 0
3, 245760, Note_on_c, 0, 55, 115
3, 245827, Note_on_c, 0, 55, 0
3, 246000, Note_on_c, 0, 55, 113
3, 246202, Note_on_c, 0, 55, 0
3, 246240, Note_on_c, 0, 57, 106
3, 246305, Note_on_c, 0, 57, 0
3, 246480, Note_on_c, 0, 57, 110
3, 246652, Note_on_c, 0, 57, 0
3, 246720, Note_on_c, 0, 58, 115
3, 246790, Note_on_c, 0, 58, 0
3, 247440, Note_on_c, 0, 55, 102
3, 247487, Note_on_c, 0, 55, 0
3, 247560, Note_on_c, 0, 55, 111
3, 247642, Note_on_c, 0, 55, 0
3, 247800, Note_on_c, 0, 55, 93
3, 247847, Note_on_c, 0, 55, 0
3, 247920, Note_on_c, 0, 55, 114
3, 248110, Note_on_c, 0, 55, 0
3, 248160, Note_on_c, 0, 57, 103
3, 248230, Note_on_c, 0, 57, 0
3, 248400, Note_on_c, 0, 57, 117
3, 248485, Note_on_c, 0, 57, 0
3, 248640, Note_on_c, 0, 58, 108
3, 248707, Note_on_c, 0, 58, 0
3, 248880, Note_on_c, 0, 63, 109
3, 248942, Note_on_c, 0, 63, 0
3, 249000, Note_on_c, 0, 65, 115
3, 249095, Note_on_c, 0, 65, 0
3, 249240, Note_on_c, 0, 63, 112
3, 249307, Note_on_c, 0, 63, 0
3, 249360, Note_on_c, 0, 65, 113
3, 249477, Note_on_c, 0, 65, 0
3, 249600, Note_on_c, 0, 53, 117
3, 249677, Note_on_c, 0, 53, 0
3, 249840, Note_on_c, 0, 53, 110
3, 250027, Note_on_c, 0, 53, 0
3, 250080, Note_on_c, 0, 55, 119
3, 250160, Note_on_c, 0, 55, 0
3, 250320, Note_on_c, 0, 55, 109
3, 250505, Note_on_c, 0, 55, 0
3, 250560, Note_on_c, 0, 56, 116
3, 250630, Note_on_c, 0, 56, 0
3, 251280, Note_on_c, 0, 53, 94
3, 251317, Note_on_c, 0, 53, 0
3, 251400, Note_on_c, 0, 53, 119
3, 251492, Note_on_c, 0, 53, 0
3, 251640, Note_on_c, 0, 53, 107
3, 251692, Note_on_c, 0, 53, 0
3, 251760, Note_on_c, 0, 53, 119
3, 251955, Note_on_c, 0, 53, 0
3, 252000, Note_on_c, 0, 55, 109
3, 252075, Note_on_c, 0, 55, 0
3, 252240, Note_on_c, 0, 55, 114
3, 252425, Note_on_c, 0, 55, 0
3, 252480, Note_on_c, 0, 56, 108
3, 252540, Note_on_c, 0, 56, 0
3, 253440, Note_on_c, 0, 53, 115
3, 253507, Note_on_c, 0, 53, 0
3, 253680, Note_on_c, 0, 53, 113
3, 253882, Note_on_c, 0, 53, 0
3, 253920, Note_on_c, 0, 55, 106
3, 253985, Note_on_c, 0, 55, 0
3, 254160, Note_on_c, 0, 55, 110
3, 254332, Note_on_c, 0, 55, 0
3, 254400, Note_on_c, 0, 56, 115
3, 254470, Note_on_c, 0, 56, 0
3, 255120, Note_on_c, 0, 53, 102
3, 255167, Note_on_c, 0, 53, 0
3, 255240, Note_on_c, 0, 53, 111
3, 255322, Note_on_c, 0, 53, 0
3, 255480, Note_on_c, 0, 53, 93
3, 255527, Note_on_c, 0, 53, 0
3, 255600, Note_on_c, 0, 53, 114
3, 255790, Note_on_c, 0, 53, 0
3, 255840, Note_on_c, 0, 55, 103
3, 255910, Note_on_c, 0, 55, 0
3, 256080, Note_on_c, 0, 55, 117
3, 256165, Note_on_c, 0, 55, 0
3, 256320, Note_on_c, 0, 56, 108
3, 256387, Note_on_c, 0, 56, 0
3, 256560, Note_on_c, 0, 61, 109
3, 256622, Note_on_c, 0, 61, 0
3, 256680, Note_on_c, 0, 63, 115
3, 256775, Note_on_c, 0, 63, 0
3, 256920, Note_on_c, 0, 61, 112
3, 256987, Note_on_c, 0, 61, 0
3, 257040, Note_on_c, 0, 63, 113
3, 257157, Note_on_c, 0, 63, 0
3, 257280, Note_on_c, 0, 53, 117
3, 257357, Note_on_c, 0, 53, 0
3, 257520, Note_on_c, 0, 53, 110
3, 257707, Note_on_c, 0, 53, 0
3, 257760, Note_on_c, 0, 55, 119
3, 257840, Note_on_c, 0, 55, 0
3, 258000, Note_on_c, 0, 55, 109
3, 258185, Note_on_c, 0, 55, 0
3, 258240, Note_on_c, 0, 56, 116
3, 258310, Note_on_c, 0, 56, 0
3, 258960, Note_on_c, 0, 53, 94
3, 258997, Note_on_c, 0, 53, 0
3, 259080, Note_on_c, 0, 53, 119
3, 259172, Note_on_c, 0, 53, 0
3, 259320, Note_on_c, 0, 53, 107
3, 259372, Note_on_c, 0, 53, 0
3, 259440, Note_on_c, 0, 53, 119
3, 259635, Note_on_c, 0, 53, 0
3, 259680, Note_on_c, 0, 55, 109
3, 259755, Note_on_c, 0, 55, 0
3, 259920, Note_on_c, 0, 55, 114
3, 260105, Note_on_c, 0, 55, 0
3, 260160, Note_on_c, 0, 56, 108
3, 260220, Note_on_c, 0, 56, 0
3, 261120, Note_on_c, 0, 53, 115
3, 261187, Note_on_c, 0, 53, 0
3, 261360, Note_on_c, 0, 53, 113
3, 261562, Note_on_c, 0, 53, 0
3, 261600, Note_on_c, 0, 55, 106
3, 261665, Note_on_c, 0, 55, 0
3, 261840, Note_on_c, 0, 55, 110
3, 262012, Note_on_c, 0, 55, 0
3, 262080, Note_on_c, 0, 56, 115
3, 262150, Note_on_c, 0, 56, 0
3, 262800, Note_on_c, 0, 53, 102
3, 262847, Note_on_c, 0, 53, 0
3, 262920, Note_on_c, 0, 53, 111
3, 263002, Note_on_c, 0, 53, 0
3, 263160, Note_on_c, 0, 53, 93
3, 263207, Note_on_c, 0, 53, 0
3, 263280, Note_on_c, 0, 53, 114
3, 263470, Note_on_c, 0, 53, 0
3, 263520, Note_on_c, 0, 55, 103
3, 263590, Note_on_c, 0, 55, 0
3, 263760, Note_on_c, 0, 55, 117
3, 263845, Note_on_c, 0, 55, 0
3, 264000, Note_on_c, 0, 56, 108
3, 264067, Note_on_c, 0, 56, 0
3, 264240, Note_on_c, 0, 61, 109
3, 264302, Note_on_c, 0, 61, 0
3, 264360, Note_on_c, 0, 63, 115
3, 264455, Note_on_c, 0, 63, 0
3, 264600, Note_on_c, 0, 61, 112
3, 264667, Note_on_c, 0, 61, 0
3, 264720, Note_on_c, 0, 63, 113
3, 264837, Note_on_c, 0, 63, 0
3, 264960, Note_on_c, 0, 53, 117
3, 265037, Note_on_c, 0, 53, 0
3, 265200, Note_on_c, 0, 53, 110
3, 265387, Note_on_c, 0, 53, 0
3, 265440, Note_on_c, 0, 55, 119
3, 265520, Note_on_c, 0, 55, 0
3, 265680, Note_on_c, 0, 55, 109
3, 265865, Note_on_c, 0, 55, 0
3, 265920, Note_on_c, 0, 56, 116
3, 265990, Note_on_c, 0, 56, 0
3, 266640, Note_on_c, 0, 53, 94
3, 266677, Note_on_c, 0, 53, 0
3, 266760, Note_on_c, 0, 53, 119
3, 266852, Note_on_c, 0, 53, 0
3, 267000, Note_on_c, 0, 53, 107
3, 267052, Note_on_c, 0, 53, 0
3, 267120, Note_on_c, 0, 53, 119
3, 267315, Note_on_c, 0, 53, 0
3, 267360, Note_on_c, 0, 55, 109
3, 267435, Note_on_c, 0, 55, 0
3, 267600, Note_on_c, 0, 55, 114
3, 267785, Note_on_c, 0, 55, 0
3, 267840, Note_on_c, 0, 56, 108
3, 267900, Note_on_c, 0, 56, 0
3, 268800, Note_on_c, 0, 53, 115
3, 268867, Note_on_c, 0, 53, 0
3, 269040, Note_on_c, 0, 53, 113
3, 269242, Note_on_c, 0, 53, 0
3, 269280, Note_on_c, 0, 55, 106
3, 269345, Note_on_c, 0, 55, 0
3, 269520, Note_on_c, 0, 55, 110
3, 269692, Note_on_c, 0, 55, 0
3, 269760, Note_on_c, 0, 56, 115
3, 269830, Note_on_c, 0, 56, 0
3, 270480, Note_on_c, 0, 53, 102
3, 270527, Note_on_c, 0, 53, 0
3, 270600, Note_on_c, 0, 53, 111
3, 270682, Note_on_c, 0, 53, 0
3, 270840, Note_on_c, 0, 53, 93
3, 270887, Note_on_c, 0, 53, 0
3, 270960, Note_on_c, 0, 53, 114
3, 271150, Note_on_c, 0, 53, 0
3, 271200, Note_on_c, 0, 55, 103
3, 271270, Note_on_c, 0, 55, 0
3, 271440, Note_on_c, 0, 55, 117
3, 271525, Note_on_c, 0, 55, 0
3, 271680, Note_on_c, 0, 56, 108
3, 271747, Note_on_c, 0, 56, 0
3, 271920, Note_on_c, 0, 61, 109
3, 271982, Note_on_c, 0, 61, 0
3, 272040, Note_on_c, 0, 63, 115
3, 272135, Note_on_c, 0, 63, 0
3, 272280, Note_on_c, 0, 61, 112
3, 272347, Note_on_c, 0, 61, 0
3, 272400, Note_on_c, 0, 63, 113
3, 272517, Note_on_c, 0, 63, 0
3, 272640, Note_on_c, 0, 53, 117
3, 272717, Note_on_c, 0, 53, 0
3, 272880, Note_on_c, 0, 53, 110
3, 273067, Note_on_c, 0, 53, 0
3, 273120, Note_on_c, 0, 55, 119
3, 273200, Note_on_c, 0, 55, 0
3, 273360, Note_on_c, 0, 55, 109
3, 273545, Note_on_c, 0, 55, 0
3, 273600, Note_on_c, 0, 56, 116
3, 273670, Note_on_c, 0, 56, 0
3, 274320, Note_on_c, 0, 53, 94
3, 274357, Note_on_c, 0, 53, 0
3, 274440, Note_on_c, 0, 53, 119
3, 274532, Note_on_c, 0, 53, 0
3, 274680, Note_on_c, 0, 53, 107
3, 274732, Note_on_c, 0, 53, 0
3, 274800, Note_on_c, 0, 53, 119
3, 274995, Note_on_c, 0, 53, 0
3, 275040, Note_on_c, 0, 55, 109
3, 275115, Note_on_c, 0, 55, 0
3, 275280, Note_on_c, 0, 55, 114
3, 275465, Note_on_c, 0, 55, 0
3, 275520, Note_on_c, 0, 56, 108
3, 275580, Note_on_c, 0, 56, 0
3, 276480, Note_on_c, 0, 53, 115
3, 276547, Note_on_c, 0, 53, 0
3, 276720, Note_on_c, 0, 53, 113
3, 276922, Note_on_c, 0, 53, 0
3, 276960, Note_on_c, 0, 55, 106
3, 277025, Note_on_c, 0, 55, 0
3, 277200, Note_on_c, 0, 55, 110
3, 277372, Note_on_c, 0, 55, 0
3, 277440, Note_on_c, 0, 56, 115
3, 277510, Note_on_c, 0, 56, 0
3, 278160, Note_on_c, 0, 53, 102
3, 278207, Note_on_c, 0, 53, 0
3, 278280, Note_on_c, 0, 53, 111
3, 278362, Note_on_c, 0, 53, 0
3, 278520, Note_on_c, 0, 53, 93
3, 278567, Note_on_c, 0, 53, 0
3, 278640, Note_on_c, 0, 53, 114
3, 278830, Note_on_c, 0, 53, 0
3, 278880, Note_on_c, 0, 55, 103
3, 278950, Note_on_c, 0, 55, 0
3, 279120, Note_on_c, 0, 55, 117
3, 279205, Note_on_c, 0, 55, 0
3, 279360, Note_on_c, 0, 56, 108
3, 279427, Note_on_c, 0, 56, 0
3, 279600, Note_on_c, 0, 61, 109
3, 279662, Note_on_c, 0, 61, 0
3, 279720, Note_on_c, 0, 63, 115
3, 279815, Note_on_c, 0, 63, 0
3, 279960, Note_on_c, 0, 61, 112
3, 280027, Note_on_c, 0, 61, 0
3, 280080, Note_on_c, 0, 63, 113
3, 280197, Note_on_c, 0, 63, 0
3, 280320, Note_on_c, 0, 53, 117
3, 280397, Note_on_c, 0, 53, 0
3, 280560, Note_on_c, 0, 53, 110
3, 280747, Note_on_c, 0, 53, 0
3, 280800, Note_on_c, 0, 55, 119
3, 280880, Note_on_c, 0, 55, 0
3, 281040, Note_on_c, 0, 55, 109
3, 281225, Note_on_c, 0, 55, 0
3, 281280, Note_on_c, 0, 56, 116
3, 281350, Note_on_c, 0, 56, 0
3, 282000, Note_on_c, 0, 53, 94
3, 282037, Note_on_c, 0, 53, 0
3, 282120, Note_on_c, 0, 53, 119
3, 282212, Note_on_c, 0, 53, 0
3, 282360, Note_on_c, 0, 53, 107
3, 282412, Note_on_c, 0, 53, 0
3, 282480, Note_on_c, 0, 53, 119
3, 282675, Note_on_c, 0, 53, 0
3, 282720, Note_on_c, 0, 55, 109
3, 282795, Note_on_c, 0, 55, 0
3, 282960, Note_on_c, 0, 55, 114
3, 283145, Note_on_c, 0, 55, 0
3, 283200, Note_on_c, 0, 56, 108
3, 283260, Note_on_c, 0, 56, 0
3, 284160, Note_on_c, 0, 53, 115
3, 284227, Note_on_c, 0, 53, 0
3, 284400, Note_on_c, 0, 53, 113
3, 284602, Note_on_c, 0, 53, 0
3, 284640, Note_on_c, 0, 55, 106
3, 284705, Note_on_c, 0, 55, 0
3, 284880, Note_on_c, 0, 55, 110
3, 285052, Note_on_c, 0, 55, 0
3, 285120, Note_on_c, 0, 56, 115
3, 285190, Note_on_c, 0, 56, 0
3, 285840, Note_on_c, 0, 53, 102
3, 285887, Note_on_c, 0, 53, 0
3, 285960, Note_on_c, 0, 53, 111
3, 286042, Note_on_c, 0, 53, 0
3, 286200, Note_on_c, 0, 53, 93
3, 286247, Note_on_c, 0, 53, 0
3, 286320, Note_on_c, 0, 53, 114
3, 286510, Note_on_c, 0, 53, 0
3, 286560, Note_on_c, 0, 55, 103
3, 286630, Note_on_c, 0, 55, 0
3, 286800, Note_on_c, 0, 55, 117
3, 286885, Note_on_c, 0, 55, 0
3, 287040, Note_on_c, 0, 56, 108
3, 287107, Note_on_c, 0, 56, 0
3, 287280, Note_on_c, 0, 61, 109
3, 287342, Note_on_c, 0, 61, 0
3, 287400, Note_on_c, 0, 63, 115
3, 287495, Note_on_c, 0, 63, 0
3, 287640, Note_on_c, 0, 61, 112
3, 287707, Note_on_c, 0, 61, 0
3, 287760, Note_on_c, 0, 63, 113
3, 287877, Note_on_c, 0, 63, 0
3, 288000, Note_on_c, 0, 53, 117
3, 288077, Note_on_c, 0, 53, 0
3, 288240, Note_on_c, 0, 53, 110
3, 288427, Note_on_c, 0, 53, 0
3, 288480, Note_on_c, 0, 55, 119
3, 288560, Note_on_c, 0, 55, 0
3, 288720, Note_on_c, 0, 55, 109
3, 288905, Note_on_c, 0, 55, 0
3, 288960, Note_on_c, 0, 56, 116
3, 289030, Note_on_c, 0, 56, 0
3, 289680, Note_on_c, 0, 53, 94
3, 289717, Note_on_c, 0, 53, 0
3, 289800, Note_on_c, 0, 53, 119
3, 289892, Note_on_c, 0, 53, 0
3, 290040, Note_on_c, 0, 53, 107
3, 290092, Note_on_c, 0, 53, 0
3, 290160, Note_on_c, 0, 53, 119
3, 290355, Note_on_c, 0, 53, 0
3, 290400, Note_on_c, 0, 55, 109
3, 290475, Note_on_c, 0, 55, 0
3, 290640, Note_on_c, 0, 55, 114
3, 290825, Note_on_c, 0, 55, 0
3, 290880, Note_on_c, 0, 56, 108
3, 290940, Note_on_c, 0, 56, 0
3, 291840, Note_on_c, 0, 53, 115
3, 291907, Note_on_c, 0, 53, 0
3, 292080, Note_on_c, 0, 53, 113
3, 292282, Note_on_c, 0, 53, 0
3, 292320, Note_on_c, 0, 55, 106
3, 292385, Note_on_c, 0, 55, 0
3, 292560, Note_on_c, 0, 55, 110
3, 292732, Note_on_c, 0, 55, 0
3, 292800, Note_on_c, 0, 56, 115
3, 292870, Note_on_c, 0, 56, 0
3, 293520, Note_on_c, 0, 53, 102
3, 293567, Note_on_c, 0, 53, 0
3, 293640, Note_on_c, 0, 53, 111
3, 293722, Note_on_c, 0, 53, 0
3, 293880, Note_on_c, 0, 53, 93
3, 293927, Note_on_c, 0, 53, 0
3, 294000, Note_on_c, 0, 53, 114
3, 294190, Note_on_c, 0, 53, 0
3, 294240, Note_on_c, 0, 55, 103
3, 294310, Note_on_c, 0, 55, 0
3, 294480, Note_on_c, 0, 55, 117
3, 294565, Note_on_c, 0, 55, 0
3, 294720, Note_on_c, 0, 56, 108
3, 294787, Note_on_c, 0, 56, 0
3, 294960, Note_on_c, 0, 61, 109
3, 295022, Note_on_c, 0, 61, 0
3, 295080, Note_on_c, 0, 63, 115
3, 295175, Note_on_c, 0, 63, 0
3, 295320, Note_on_c, 0, 61, 112
3, 295387, Note_on_c, 0, 61, 0
3, 295440, Note_on_c, 0, 63, 113
3, 295557, Note_on_c, 0, 63, 0
3, 295680, Note_on_c, 0, 46, 108
3, 296130, Note_on_c, 0, 46, 0
3, 296160, Note_on_c, 0, 44, 112
3, 296262, Note_on_c, 0, 44, 0
3, 299520, Note_on_c, 0, 46, 102
3, 299962, Note_on_c, 0, 46, 0
3, 300000, Note_on_c, 0, 44, 108
3, 300105, Note_on_c, 0, 44, 0
3, 301440, Note_on_c, 0, 83, 109
3, 301480, Note_on_c, 0, 83, 0
3, 301500, Note_on_c, 0, 88, 120
3, 301540, Note_on_c, 0, 88, 0
3, 301560, Note_on_c, 0, 82, 118
3, 301600, Note_on_c, 0, 82, 0
3, 301620, Note_on_c, 0, 87, 116
3, 301660, Note_on_c, 0, 87, 0
3, 301680, Note_on_c, 0, 81, 113
3, 301720, Note_on_c, 0, 81, 0
3, 301740, Note_on_c, 0, 86, 111
3, 301780, Note_on_c, 0, 86, 0
3, 301800, Note_on_c, 0, 80, 109
3, 301840, Note_on_c, 0, 80, 0
3, 301860, Note_on_c, 0, 85, 107
3, 301900, Note_on_c, 0, 85, 0
3, 301920, Note_on_c, 0, 79, 104
3, 301960, Note_on_c, 0, 79, 0
3, 301980, Note_on_c, 0, 84, 102
3, 302020, Note_on_c, 0, 84, 0
3, 302040, Note_on_c, 0, 78, 100
3, 302080, Note_on_c, 0, 78, 0
3, 302100, Note_on_c, 0, 83, 98
3, 302140, Note_on_c, 0, 83, 0
3, 302160, Note_on_c, 0, 77, 95
3, 302200, Note_on_c, 0, 77, 0
3, 302220, Note_on_c, 0, 82, 93
3, 302260, Note_on_c, 0, 82, 0
3, 302280, Note_on_c, 0, 76, 91
3, 302320, Note_on_c, 0, 76, 0
3, 302340, Note_on_c, 0, 81, 89
3, 302380, Note_on_c, 0, 81, 0
3, 302400, Note_on_c, 0, 75, 87
3, 302440, Note_on_c, 0, 75, 0
3, 302460, Note_on_c, 0, 80, 84
3, 302500, Note_on_c, 0, 80, 0
3, 302520, Note_on_c, 0, 74, 82
3, 302560, Note_on_c, 0, 74, 0
3, 302580, Note_on_c, 0, 79, 80
3, 302620, Note_on_c, 0, 79, 0
3, 302640, Note_on_c, 0, 73, 78
3, 302680, Note_on_c, 0, 73, 0
3, 302700, Note_on_c, 0, 78, 75
3, 302740, Note_on_c, 0, 78, 0
3, 302760, Note_on_c, 0, 72, 73
3, 302800, Note_on_c, 0, 72, 0
3, 302820, Note_on_c, 0, 77, 71
3, 302860, Note_on_c, 0, 77, 0
3, 302880, Note_on_c, 0, 71, 69
3, 302920, Note_on_c, 0, 71, 0
3, 302940, Note_on_c, 0, 76, 66
3, 302980, Note_on_c, 0, 76, 0
3, 303000, Note_on_c, 0, 70, 64
3, 303040, Note_on_c, 0, 70, 0
3, 303060, Note_on_c, 0, 75, 62
3, 303100, Note_on_c, 0, 75, 0
3, 303120, Note_on_c, 0, 69, 60
3, 303160, Note_on_c, 0, 69, 0
3, 303180, Note_on_c, 0, 74, 58
3, 303220, Note_on_c, 0, 74, 0
3, 303240, Note_on_c, 0, 68, 55
3, 303280, Note_on_c, 0, 68, 0
3, 303300, Note_on_c, 0, 73, 53
3, 303340, Note_on_c, 0, 73, 0
3, 303360, Note_on_c, 0, 58, 116
3, 303482, Note_on_c, 0, 58, 0
3, 303482, End_track
4, 0, Start_track
4, 0, Channel_prefix, 1
4, 0, Title_t, "FgdBass "
4, 0, Instrument_name_t, "CHA  2  "
4, 485, Program_c, 1, 33
4, 487, Control_c, 1, 11, 127
4, 490, Control_c, 1, 7, 100
4, 492, Control_c, 1, 10, 64
4, 495, Control_c, 1, 91, 0
4, 497, Control_c, 1, 93, 0
4, 3840, Note_on_c, 1, 34, 123
4, 4320, Note_on_c, 1, 32, 127
4, 4330, Note_on_c, 1, 34, 0
4, 4555, Note_on_c, 1, 32, 0
4, 7440, Note_on_c, 1, 29, 117
4, 7515, Note_on_c, 1, 29, 0
4, 7560, Note_on_c, 1, 32, 100
4, 7630, Note_on_c, 1, 32, 0
4, 7680, Note_on_c, 1, 34, 120
4, 8140, Note_on_c, 1, 34, 0
4, 8160, Note_on_c, 1, 32, 127
4, 8365, Note_on_c, 1, 32, 0
4, 11280, Note_on_c, 1, 41, 99
4, 11347, Note_on_c, 1, 41, 0
4, 11400, Note_on_c, 1, 41, 115
4, 11460, Note_on_c, 1, 41, 0
4, 11520, Note_on_c, 1, 29, 124
4, 11737, Note_on_c, 1, 29, 0
4, 11760, Note_on_c, 1, 31, 104
4, 11952, Note_on_c, 1, 31, 0
4, 12000, Note_on_c, 1, 32, 113
4, 12200, Note_on_c, 1, 32, 0
4, 12240, Note_on_c, 1, 31, 111
4, 12455, Note_on_c, 1, 31, 0
4, 12480, Note_on_c, 1, 34, 123
4, 12642, Note_on_c, 1, 34, 0
4, 13200, Note_on_c, 1, 46, 108
4, 13252, Note_on_c, 1, 46, 0
4, 13320, Note_on_c, 1, 46, 105
4, 13377, Note_on_c, 1, 46, 0
4, 13440, Note_on_c, 1, 29, 115
4, 13607, Note_on_c, 1, 29, 0
4, 13680, Note_on_c, 1, 31, 105
4, 13855, Note_on_c, 1, 31, 0
4, 13920, Note_on_c, 1, 32, 118
4, 14100, Note_on_c, 1, 32, 0
4, 14160, Note_on_c, 1, 31, 126
4, 14335, Note_on_c, 1, 31, 0
4, 14400, Note_on_c, 1, 34, 118
4, 14585, Note_on_c, 1, 34, 0
4, 15120, Note_on_c, 1, 46, 115
4, 15160, Note_on_c, 1, 46, 0
4, 15240, Note_on_c, 1, 46, 121
4, 15290, Note_on_c, 1, 46, 0
4, 15360, Note_on_c, 1, 29, 124
4, 15577, Note_on_c, 1, 29, 0
4, 15600, Note_on_c, 1, 31, 104
4, 15792, Note_on_c, 1, 31, 0
4, 15840, Note_on_c, 1, 32, 113
4, 16040, Note_on_c, 1, 32, 0
4, 16080, Note_on_c, 1, 31, 111
4, 16295, Note_on_c, 1, 31, 0
4, 16320, Note_on_c, 1, 34, 123
4, 16482, Note_on_c, 1, 34, 0
4, 17040, Note_on_c, 1, 46, 108
4, 17092, Note_on_c, 1, 46, 0
4, 17160, Note_on_c, 1, 46, 105
4, 17217, Note_on_c, 1, 46, 0
4, 17280, Note_on_c, 1, 29, 115
4, 17447, Note_on_c, 1, 29, 0
4, 17520, Note_on_c, 1, 31, 105
4, 17695, Note_on_c, 1, 31, 0
4, 17760, Note_on_c, 1, 32, 118
4, 17940, Note_on_c, 1, 32, 0
4, 18000, Note_on_c, 1, 31, 126
4, 18175, Note_on_c, 1, 31, 0
4, 18240, Note_on_c, 1, 34, 118
4, 18425, Note_on_c, 1, 34, 0
4, 18960, Note_on_c, 1, 46, 115
4, 19000, Note_on_c, 1, 46, 0
4, 19080, Note_on_c, 1, 46, 121
4, 19130, Note_on_c, 1, 46, 0
4, 19200, Note_on_c, 1, 29, 124
4, 19417, Note_on_c, 1, 29, 0
4, 19440, Note_on_c, 1, 31, 104
4, 19632, Note_on_c, 1, 31, 0
4, 19680, Note_on_c, 1, 32, 113
4, 19880, Note_on_c, 1, 32, 0
4, 19920, Note_on_c, 1, 31, 111
4, 20135, Note_on_c, 1, 31, 0
4, 20160, Note_on_c, 1, 34, 123
4, 20322, Note_on_c, 1, 34, 0
4, 20880, Note_on_c, 1, 46, 108
4, 20932, Note_on_c, 1, 46, 0
4, 21000, Note_on_c, 1, 46, 105
4, 21057, Note_on_c, 1, 46, 0
4, 21120, Note_on_c, 1, 29, 115
4, 21287, Note_on_c, 1, 29, 0
4, 21360, Note_on_c, 1, 31, 105
4, 21535, Note_on_c, 1, 31, 0
4, 21600, Note_on_c, 1, 32, 118
4, 21780, Note_on_c, 1, 32, 0
4, 21840, Note_on_c, 1, 31, 126
4, 22015, Note_on_c, 1, 31, 0
4, 22080, Note_on_c, 1, 34, 118
4, 22265, Note_on_c, 1, 34, 0
4, 22800, Note_on_c, 1, 46, 115
4, 22840, Note_on_c, 1, 46, 0
4, 22920, Note_on_c, 1, 46, 121
4, 22970, Note_on_c, 1, 46, 0
4, 23040, Note_on_c, 1, 29, 124
4, 23257, Note_on_c, 1, 29, 0
4, 23280, Note_on_c, 1, 31, 104
4, 23472, Note_on_c, 1, 31, 0
4, 23520, Note_on_c, 1, 32, 113
4, 23720, Note_on_c, 1, 32, 0
4, 23760, Note_on_c, 1, 31, 111
4, 23975, Note_on_c, 1, 31, 0
4, 24000, Note_on_c, 1, 34, 123
4, 24162, Note_on_c, 1, 34, 0
4, 24720, Note_on_c, 1, 46, 108
4, 24772, Note_on_c, 1, 46, 0
4, 24840, Note_on_c, 1, 46, 105
4, 24897, Note_on_c, 1, 46, 0
4, 24960, Note_on_c, 1, 29, 115
4, 25127, Note_on_c, 1, 29, 0
4, 25200, Note_on_c, 1, 31, 105
4, 25375, Note_on_c, 1, 31, 0
4, 25440, Note_on_c, 1, 32, 118
4, 25620, Note_on_c, 1, 32, 0
4, 25680, Note_on_c, 1, 31, 126
4, 25855, Note_on_c, 1, 31, 0
4, 25920, Note_on_c, 1, 34, 118
4, 26105, Note_on_c, 1, 34, 0
4, 26640, Note_on_c, 1, 46, 115
4, 26680, Note_on_c, 1, 46, 0
4, 26760, Note_on_c, 1, 46, 121
4, 26810, Note_on_c, 1, 46, 0
4, 26880, Note_on_c, 1, 29, 124
4, 27097, Note_on_c, 1, 29, 0
4, 27120, Note_on_c, 1, 31, 104
4, 27312, Note_on_c, 1, 31, 0
4, 27360, Note_on_c, 1, 32, 113
4, 27560, Note_on_c, 1, 32, 0
4, 27600, Note_on_c, 1, 31, 111
4, 27815, Note_on_c, 1, 31, 0
4, 27840, Note_on_c, 1, 34, 123
4, 28002, Note_on_c, 1, 34, 0
4, 28560, Note_on_c, 1, 46, 108
4, 28612, Note_on_c, 1, 46, 0
4, 28680, Note_on_c, 1, 46, 105
4, 28737, Note_on_c, 1, 46, 0
4, 28800, Note_on_c, 1, 29, 115
4, 28967, Note_on_c, 1, 29, 0
4, 29040, Note_on_c, 1, 31, 105
4, 29215, Note_on_c, 1, 31, 0
4, 29280, Note_on_c, 1, 32, 118
4, 29460, Note_on_c, 1, 32, 0
4, 29520, Note_on_c, 1, 31, 126
4, 29695, Note_on_c, 1, 31, 0
4, 29760, Note_on_c, 1, 34, 118
4, 29945, Note_on_c, 1, 34, 0
4, 30480, Note_on_c, 1, 46, 115
4, 30520, Note_on_c, 1, 46, 0
4, 30600, Note_on_c, 1, 46, 121
4, 30650, Note_on_c, 1, 46, 0
4, 30720, Note_on_c, 1, 29, 124
4, 30937, Note_on_c, 1, 29, 0
4, 30960, Note_on_c, 1, 31, 104
4, 31152, Note_on_c, 1, 31, 0
4, 31200, Note_on_c, 1, 32, 113
4, 31400, Note_on_c, 1, 32, 0
4, 31440, Note_on_c, 1, 31, 111
4, 31655, Note_on_c, 1, 31, 0
4, 31680, Note_on_c, 1, 34, 123
4, 31842, Note_on_c, 1, 34, 0
4, 32400, Note_on_c, 1, 46, 108
4, 32452, Note_on_c, 1, 46, 0
4, 32520, Note_on_c, 1, 46, 105
4, 32577, Note_on_c, 1, 46, 0
4, 32640, Note_on_c, 1, 29, 115
4, 32807, Note_on_c, 1, 29, 0
4, 32880, Note_on_c, 1, 31, 105
4, 33055, Note_on_c, 1, 31, 0
4, 33120, Note_on_c, 1, 32, 118
4, 33300, Note_on_c, 1, 32, 0
4, 33360, Note_on_c, 1, 31, 126
4, 33535, Note_on_c, 1, 31, 0
4, 33600, Note_on_c, 1, 34, 118
4, 33785, Note_on_c, 1, 34, 0
4, 34320, Note_on_c, 1, 46, 115
4, 34360, Note_on_c, 1, 46, 0
4, 34440, Note_on_c, 1, 46, 121
4, 34490, Note_on_c, 1, 46, 0
4, 34560, Note_on_c, 1, 29, 124
4, 34777, Note_on_c, 1, 29, 0
4, 34800, Note_on_c, 1, 31, 104
4, 34992, Note_on_c, 1, 31, 0
4, 35040, Note_on_c, 1, 32, 113
4, 35240, Note_on_c, 1, 32, 0
4, 35280, Note_on_c, 1, 31, 111
4, 35495, Note_on_c, 1, 31, 0
4, 35520, Note_on_c, 1, 34, 123
4, 35682, Note_on_c, 1, 34, 0
4, 36240, Note_on_c, 1, 46, 108
4, 36292, Note_on_c, 1, 46, 0
4, 36360, Note_on_c, 1, 46, 105
4, 36417, Note_on_c, 1, 46, 0
4, 36480, Note_on_c, 1, 29, 115
4, 36647, Note_on_c, 1, 29, 0
4, 36720, Note_on_c, 1, 31, 105
4, 36895, Note_on_c, 1, 31, 0
4, 36960, Note_on_c, 1, 32, 118
4, 37140, Note_on_c, 1, 32, 0
4, 37200, Note_on_c, 1, 31, 126
4, 37375, Note_on_c, 1, 31, 0
4, 37440, Note_on_c, 1, 34, 118
4, 37625, Note_on_c, 1, 34, 0
4, 38160, Note_on_c, 1, 46, 115
4, 38200, Note_on_c, 1, 46, 0
4, 38280, Note_on_c, 1, 46, 121
4, 38330, Note_on_c, 1, 46, 0
4, 38400, Note_on_c, 1, 29, 124
4, 38617, Note_on_c, 1, 29, 0
4, 38640, Note_on_c, 1, 31, 104
4, 38832, Note_on_c, 1, 31, 0
4, 38880, Note_on_c, 1, 32, 113
4, 39080, Note_on_c, 1, 32, 0
4, 39120, Note_on_c, 1, 31, 111
4, 39335, Note_on_c, 1, 31, 0
4, 39360, Note_on_c, 1, 34, 123
4, 39522, Note_on_c, 1, 34, 0
4, 40080, Note_on_c, 1, 46, 108
4, 40132, Note_on_c, 1, 46, 0
4, 40200, Note_on_c, 1, 46, 105
4, 40257, Note_on_c, 1, 46, 0
4, 40320, Note_on_c, 1, 29, 115
4, 40487, Note_on_c, 1, 29, 0
4, 40560, Note_on_c, 1, 31, 105
4, 40735, Note_on_c, 1, 31, 0
4, 40800, Note_on_c, 1, 32, 118
4, 40980, Note_on_c, 1, 32, 0
4, 41040, Note_on_c, 1, 31, 126
4, 41215, Note_on_c, 1, 31, 0
4, 41280, Note_on_c, 1, 34, 118
4, 41465, Note_on_c, 1, 34, 0
4, 42000, Note_on_c, 1, 46, 115
4, 42040, Note_on_c, 1, 46, 0
4, 42120, Note_on_c, 1, 46, 121
4, 42170, Note_on_c, 1, 46, 0
4, 42240, Note_on_c, 1, 29, 124
4, 42457, Note_on_c, 1, 29, 0
4, 42480, Note_on_c, 1, 31, 104
4, 42672, Note_on_c, 1, 31, 0
4, 42720, Note_on_c, 1, 32, 113
4, 42920, Note_on_c, 1, 32, 0
4, 42960, Note_on_c, 1, 31, 111
4, 43175, Note_on_c, 1, 31, 0
4, 43200, Note_on_c, 1, 34, 123
4, 43362, Note_on_c, 1, 34, 0
4, 43920, Note_on_c, 1, 46, 108
4, 43972, Note_on_c, 1, 46, 0
4, 44040, Note_on_c, 1, 46, 105
4, 44097, Note_on_c, 1, 46, 0
4, 44160, Note_on_c, 1, 29, 115
4, 44327, Note_on_c, 1, 29, 0
4, 44400, Note_on_c, 1, 31, 105
4, 44575, Note_on_c, 1, 31, 0
4, 44640, Note_on_c, 1, 32, 118
4, 44820, Note_on_c, 1, 32, 0
4, 44880, Note_on_c, 1, 31, 126
4, 45055, Note_on_c, 1, 31, 0
4, 45120, Note_on_c, 1, 34, 118
4, 45305, Note_on_c, 1, 34, 0
4, 45840, Note_on_c, 1, 46, 115
4, 45880, Note_on_c, 1, 46, 0
4, 45960, Note_on_c, 1, 46, 121
4, 46010, Note_on_c, 1, 46, 0
4, 46080, Note_on_c, 1, 29, 124
4, 46297, Note_on_c, 1, 29, 0
4, 46320, Note_on_c, 1, 31, 104
4, 46512, Note_on_c, 1, 31, 0
4, 46560, Note_on_c, 1, 32, 113
4, 46760, Note_on_c, 1, 32, 0
4, 46800, Note_on_c, 1, 31, 111
4, 47015, Note_on_c, 1, 31, 0
4, 47040, Note_on_c, 1, 34, 123
4, 47202, Note_on_c, 1, 34, 0
4, 47760, Note_on_c, 1, 46, 108
4, 47812, Note_on_c, 1, 46, 0
4, 47880, Note_on_c, 1, 46, 105
4, 47937, Note_on_c, 1, 46, 0
4, 48000, Note_on_c, 1, 29, 115
4, 48167, Note_on_c, 1, 29, 0
4, 48240, Note_on_c, 1, 31, 105
4, 48415, Note_on_c, 1, 31, 0
4, 48480, Note_on_c, 1, 32, 118
4, 48660, Note_on_c, 1, 32, 0
4, 48720, Note_on_c, 1, 31, 126
4, 48895, Note_on_c, 1, 31, 0
4, 48960, Note_on_c, 1, 34, 118
4, 49145, Note_on_c, 1, 34, 0
4, 49680, Note_on_c, 1, 46, 115
4, 49720, Note_on_c, 1, 46, 0
4, 49800, Note_on_c, 1, 46, 121
4, 49850, Note_on_c, 1, 46, 0
4, 49920, Note_on_c, 1, 29, 124
4, 50137, Note_on_c, 1, 29, 0
4, 50160, Note_on_c, 1, 31, 104
4, 50352, Note_on_c, 1, 31, 0
4, 50400, Note_on_c, 1, 32, 113
4, 50600, Note_on_c, 1, 32, 0
4, 50640, Note_on_c, 1, 31, 111
4, 50855, Note_on_c, 1, 31, 0
4, 50880, Note_on_c, 1, 34, 123
4, 51042, Note_on_c, 1, 34, 0
4, 51600, Note_on_c, 1, 46, 108
4, 51652, Note_on_c, 1, 46, 0
4, 51720, Note_on_c, 1, 46, 105
4, 51777, Note_on_c, 1, 46, 0
4, 51840, Note_on_c, 1, 29, 115
4, 52007, Note_on_c, 1, 29, 0
4, 52080, Note_on_c, 1, 31, 105
4, 52255, Note_on_c, 1, 31, 0
4, 52320, Note_on_c, 1, 32, 118
4, 52500, Note_on_c, 1, 32, 0
4, 52560, Note_on_c, 1, 31, 126
4, 52735, Note_on_c, 1, 31, 0
4, 52800, Note_on_c, 1, 34, 118
4, 52985, Note_on_c, 1, 34, 0
4, 53520, Note_on_c, 1, 46, 115
4, 53560, Note_on_c, 1, 46, 0
4, 53640, Note_on_c, 1, 46, 121
4, 53690, Note_on_c, 1, 46, 0
4, 53760, Note_on_c, 1, 29, 124
4, 53977, Note_on_c, 1, 29, 0
4, 54000, Note_on_c, 1, 31, 104
4, 54192, Note_on_c, 1, 31, 0
4, 54240, Note_on_c, 1, 32, 113
4, 54440, Note_on_c, 1, 32, 0
4, 54480, Note_on_c, 1, 31, 111
4, 54695, Note_on_c, 1, 31, 0
4, 54720, Note_on_c, 1, 34, 123
4, 54882, Note_on_c, 1, 34, 0
4, 55440, Note_on_c, 1, 46, 108
4, 55492, Note_on_c, 1, 46, 0
4, 55560, Note_on_c, 1, 46, 105
4, 55617, Note_on_c, 1, 46, 0
4, 55680, Note_on_c, 1, 29, 115
4, 55847, Note_on_c, 1, 29, 0
4, 55920, Note_on_c, 1, 31, 105
4, 56095, Note_on_c, 1, 31, 0
4, 56160, Note_on_c, 1, 32, 118
4, 56340, Note_on_c, 1, 32, 0
4, 56400, Note_on_c, 1, 31, 126
4, 56575, Note_on_c, 1, 31, 0
4, 56640, Note_on_c, 1, 34, 118
4, 56825, Note_on_c, 1, 34, 0
4, 57360, Note_on_c, 1, 46, 115
4, 57400, Note_on_c, 1, 46, 0
4, 57480, Note_on_c, 1, 46, 121
4, 57530, Note_on_c, 1, 46, 0
4, 57600, Note_on_c, 1, 29, 124
4, 57817, Note_on_c, 1, 29, 0
4, 57840, Note_on_c, 1, 31, 104
4, 58032, Note_on_c, 1, 31, 0
4, 58080, Note_on_c, 1, 32, 113
4, 58280, Note_on_c, 1, 32, 0
4, 58320, Note_on_c, 1, 31, 111
4, 58535, Note_on_c, 1, 31, 0
4, 58560, Note_on_c, 1, 34, 123
4, 58722, Note_on_c, 1, 34, 0
4, 59280, Note_on_c, 1, 46, 108
4, 59332, Note_on_c, 1, 46, 0
4, 59400, Note_on_c, 1, 46, 105
4, 59457, Note_on_c, 1, 46, 0
4, 59520, Note_on_c, 1, 29, 115
4, 59687, Note_on_c, 1, 29, 0
4, 59760, Note_on_c, 1, 31, 105
4, 59935, Note_on_c, 1, 31, 0
4, 60000, Note_on_c, 1, 32, 118
4, 60180, Note_on_c, 1, 32, 0
4, 60240, Note_on_c, 1, 31, 126
4, 60415, Note_on_c, 1, 31, 0
4, 60480, Note_on_c, 1, 34, 118
4, 60665, Note_on_c, 1, 34, 0
4, 61200, Note_on_c, 1, 46, 115
4, 61240, Note_on_c, 1, 46, 0
4, 61320, Note_on_c, 1, 46, 121
4, 61370, Note_on_c, 1, 46, 0
4, 61440, Note_on_c, 1, 29, 124
4, 61657, Note_on_c, 1, 29, 0
4, 61680, Note_on_c, 1, 31, 104
4, 61872, Note_on_c, 1, 31, 0
4, 61920, Note_on_c, 1, 32, 113
4, 62120, Note_on_c, 1, 32, 0
4, 62160, Note_on_c, 1, 31, 111
4, 62375, Note_on_c, 1, 31, 0
4, 62400, Note_on_c, 1, 34, 123
4, 62562, Note_on_c, 1, 34, 0
4, 63120, Note_on_c, 1, 46, 108
4, 63172, Note_on_c, 1, 46, 0
4, 63240, Note_on_c, 1, 46, 105
4, 63297, Note_on_c, 1, 46, 0
4, 63360, Note_on_c, 1, 29, 115
4, 63527, Note_on_c, 1, 29, 0
4, 63600, Note_on_c, 1, 31, 105
4, 63775, Note_on_c, 1, 31, 0
4, 63840, Note_on_c, 1, 32, 118
4, 64020, Note_on_c, 1, 32, 0
4, 64080, Note_on_c, 1, 31, 126
4, 64255, Note_on_c, 1, 31, 0
4, 64320, Note_on_c, 1, 34, 118
4, 64505, Note_on_c, 1, 34, 0
4, 65040, Note_on_c, 1, 46, 115
4, 65080, Note_on_c, 1, 46, 0
4, 65160, Note_on_c, 1, 46, 121
4, 65210, Note_on_c, 1, 46, 0
4, 65280, Note_on_c, 1, 29, 124
4, 65497, Note_on_c, 1, 29, 0
4, 65520, Note_on_c, 1, 31, 104
4, 65712, Note_on_c, 1, 31, 0
4, 65760, Note_on_c, 1, 32, 113
4, 65960, Note_on_c, 1, 32, 0
4, 66000, Note_on_c, 1, 31, 111
4, 66215, Note_on_c, 1, 31, 0
4, 66240, Note_on_c, 1, 34, 123
4, 66402, Note_on_c, 1, 34, 0
4, 66960, Note_on_c, 1, 46, 108
4, 67012, Note_on_c, 1, 46, 0
4, 67080, Note_on_c, 1, 46, 105
4, 67137, Note_on_c, 1, 46, 0
4, 67200, Note_on_c, 1, 29, 115
4, 67367, Note_on_c, 1, 29, 0
4, 67440, Note_on_c, 1, 31, 105
4, 67615, Note_on_c, 1, 31, 0
4, 67680, Note_on_c, 1, 32, 118
4, 67860, Note_on_c, 1, 32, 0
4, 67920, Note_on_c, 1, 31, 126
4, 68095, Note_on_c, 1, 31, 0
4, 68160, Note_on_c, 1, 34, 118
4, 68345, Note_on_c, 1, 34, 0
4, 68880, Note_on_c, 1, 46, 115
4, 68920, Note_on_c, 1, 46, 0
4, 69000, Note_on_c, 1, 46, 121
4, 69050, Note_on_c, 1, 46, 0
4, 69120, Note_on_c, 1, 29, 124
4, 69337, Note_on_c, 1, 29, 0
4, 69360, Note_on_c, 1, 31, 104
4, 69552, Note_on_c, 1, 31, 0
4, 69600, Note_on_c, 1, 32, 113
4, 69800, Note_on_c, 1, 32, 0
4, 69840, Note_on_c, 1, 31, 111
4, 70055, Note_on_c, 1, 31, 0
4, 70080, Note_on_c, 1, 34, 123
4, 70242, Note_on_c, 1, 34, 0
4, 70800, Note_on_c, 1, 46, 108
4, 70852, Note_on_c, 1, 46, 0
4, 70920, Note_on_c, 1, 46, 105
4, 70977, Note_on_c, 1, 46, 0
4, 71040, Note_on_c, 1, 29, 115
4, 71207, Note_on_c, 1, 29, 0
4, 71280, Note_on_c, 1, 31, 105
4, 71455, Note_on_c, 1, 31, 0
4, 71520, Note_on_c, 1, 32, 118
4, 71700, Note_on_c, 1, 32, 0
4, 71760, Note_on_c, 1, 31, 126
4, 71935, Note_on_c, 1, 31, 0
4, 72000, Note_on_c, 1, 34, 118
4, 72185, Note_on_c, 1, 34, 0
4, 72720, Note_on_c, 1, 46, 115
4, 72760, Note_on_c, 1, 46, 0
4, 72840, Note_on_c, 1, 46, 121
4, 72890, Note_on_c, 1, 46, 0
4, 72960, Note_on_c, 1, 29, 124
4, 73177, Note_on_c, 1, 29, 0
4, 73200, Note_on_c, 1, 31, 104
4, 73392, Note_on_c, 1, 31, 0
4, 73440, Note_on_c, 1, 32, 113
4, 73640, Note_on_c, 1, 32, 0
4, 73680, Note_on_c, 1, 31, 111
4, 73895, Note_on_c, 1, 31, 0
4, 73920, Note_on_c, 1, 34, 123
4, 74082, Note_on_c, 1, 34, 0
4, 74640, Note_on_c, 1, 46, 108
4, 74692, Note_on_c, 1, 46, 0
4, 74760, Note_on_c, 1, 46, 105
4, 74817, Note_on_c, 1, 46, 0
4, 74880, Note_on_c, 1, 29, 115
4, 75047, Note_on_c, 1, 29, 0
4, 75120, Note_on_c, 1, 31, 105
4, 75295, Note_on_c, 1, 31, 0
4, 75360, Note_on_c, 1, 32, 118
4, 75540, Note_on_c, 1, 32, 0
4, 75600, Note_on_c, 1, 31, 126
4, 75775, Note_on_c, 1, 31, 0
4, 75840, Note_on_c, 1, 34, 118
4, 76025, Note_on_c, 1, 34, 0
4, 76560, Note_on_c, 1, 46, 115
4, 76600, Note_on_c, 1, 46, 0
4, 76680, Note_on_c, 1, 46, 121
4, 76730, Note_on_c, 1, 46, 0
4, 76800, Note_on_c, 1, 29, 124
4, 77017, Note_on_c, 1, 29, 0
4, 77040, Note_on_c, 1, 31, 104
4, 77232, Note_on_c, 1, 31, 0
4, 77280, Note_on_c, 1, 32, 113
4, 77480, Note_on_c, 1, 32, 0
4, 77520, Note_on_c, 1, 31, 111
4, 77735, Note_on_c, 1, 31, 0
4, 77760, Note_on_c, 1, 34, 123
4, 77922, Note_on_c, 1, 34, 0
4, 78480, Note_on_c, 1, 46, 108
4, 78532, Note_on_c, 1, 46, 0
4, 78600, Note_on_c, 1, 46, 105
4, 78657, Note_on_c, 1, 46, 0
4, 78720, Note_on_c, 1, 29, 115
4, 78887, Note_on_c, 1, 29, 0
4, 78960, Note_on_c, 1, 31, 105
4, 79135, Note_on_c, 1, 31, 0
4, 79200, Note_on_c, 1, 32, 118
4, 79380, Note_on_c, 1, 32, 0
4, 79440, Note_on_c, 1, 31, 126
4, 79615, Note_on_c, 1, 31, 0
4, 79680, Note_on_c, 1, 34, 118
4, 79865, Note_on_c, 1, 34, 0
4, 80400, Note_on_c, 1, 46, 115
4, 80440, Note_on_c, 1, 46, 0
4, 80520, Note_on_c, 1, 46, 121
4, 80570, Note_on_c, 1, 46, 0
4, 80640, Note_on_c, 1, 29, 124
4, 80857, Note_on_c, 1, 29, 0
4, 80880, Note_on_c, 1, 31, 104
4, 81072, Note_on_c, 1, 31, 0
4, 81120, Note_on_c, 1, 32, 113
4, 81320, Note_on_c, 1, 32, 0
4, 81360, Note_on_c, 1, 31, 111
4, 81575, Note_on_c, 1, 31, 0
4, 81600, Note_on_c, 1, 34, 123
4, 81762, Note_on_c, 1, 34, 0
4, 82320, Note_on_c, 1, 46, 108
4, 82372, Note_on_c, 1, 46, 0
4, 82440, Note_on_c, 1, 46, 105
4, 82497, Note_on_c, 1, 46, 0
4, 82560, Note_on_c, 1, 29, 115
4, 82727, Note_on_c, 1, 29, 0
4, 82800, Note_on_c, 1, 31, 105
4, 82975, Note_on_c, 1, 31, 0
4, 83040, Note_on_c, 1, 32, 118
4, 83220, Note_on_c, 1, 32, 0
4, 83280, Note_on_c, 1, 31, 126
4, 83455, Note_on_c, 1, 31, 0
4, 83520, Note_on_c, 1, 34, 118
4, 83705, Note_on_c, 1, 34, 0
4, 84240, Note_on_c, 1, 46, 115
4, 84280, Note_on_c, 1, 46, 0
4, 84360, Note_on_c, 1, 46, 121
4, 84410, Note_on_c, 1, 46, 0
4, 84480, Note_on_c, 1, 29, 124
4, 84697, Note_on_c, 1, 29, 0
4, 84720, Note_on_c, 1, 31, 104
4, 84912, Note_on_c, 1, 31, 0
4, 84960, Note_on_c, 1, 32, 113
4, 85160, Note_on_c, 1, 32, 0
4, 85200, Note_on_c, 1, 31, 111
4, 85415, Note_on_c, 1, 31, 0
4, 85440, Note_on_c, 1, 34, 123
4, 85602, Note_on_c, 1, 34, 0
4, 86160, Note_on_c, 1, 46, 108
4, 86212, Note_on_c, 1, 46, 0
4, 86280, Note_on_c, 1, 46, 105
4, 86337, Note_on_c, 1, 46, 0
4, 86400, Note_on_c, 1, 29, 115
4, 86567, Note_on_c, 1, 29, 0
4, 86640, Note_on_c, 1, 31, 105
4, 86815, Note_on_c, 1, 31, 0
4, 86880, Note_on_c, 1, 32, 118
4, 87060, Note_on_c, 1, 32, 0
4, 87120, Note_on_c, 1, 31, 126
4, 87295, Note_on_c, 1, 31, 0
4, 87360, Note_on_c, 1, 34, 118
4, 87545, Note_on_c, 1, 34, 0
4, 88080, Note_on_c, 1, 46, 115
4, 88120, Note_on_c, 1, 46, 0
4, 88200, Note_on_c, 1, 46, 121
4, 88250, Note_on_c, 1, 46, 0
4, 88320, Note_on_c, 1, 29, 124
4, 88537, Note_on_c, 1, 29, 0
4, 88560, Note_on_c, 1, 31, 104
4, 88752, Note_on_c, 1, 31, 0
4, 88800, Note_on_c, 1, 32, 113
4, 89000, Note_on_c, 1, 32, 0
4, 89040, Note_on_c, 1, 31, 111
4, 89255, Note_on_c, 1, 31, 0
4, 89280, Note_on_c, 1, 34, 123
4, 89442, Note_on_c, 1, 34, 0
4, 90000, Note_on_c, 1, 46, 108
4, 90052, Note_on_c, 1, 46, 0
4, 90120, Note_on_c, 1, 46, 105
4, 90177, Note_on_c, 1, 46, 0
4, 90240, Note_on_c, 1, 29, 115
4, 90407, Note_on_c, 1, 29, 0
4, 90480, Note_on_c, 1, 31, 105
4, 90655, Note_on_c, 1, 31, 0
4, 90720, Note_on_c, 1, 32, 118
4, 90900, Note_on_c, 1, 32, 0
4, 90960, Note_on_c, 1, 31, 126
4, 91135, Note_on_c, 1, 31, 0
4, 91200, Note_on_c, 1, 34, 118
4, 91385, Note_on_c, 1, 34, 0
4, 91920, Note_on_c, 1, 46, 115
4, 91960, Note_on_c, 1, 46, 0
4, 92040, Note_on_c, 1, 46, 121
4, 92090, Note_on_c, 1, 46, 0
4, 92160, Note_on_c, 1, 29, 124
4, 92377, Note_on_c, 1, 29, 0
4, 92400, Note_on_c, 1, 31, 104
4, 92592, Note_on_c, 1, 31, 0
4, 92640, Note_on_c, 1, 32, 113
4, 92840, Note_on_c, 1, 32, 0
4, 92880, Note_on_c, 1, 31, 111
4, 93095, Note_on_c, 1, 31, 0
4, 93120, Note_on_c, 1, 34, 123
4, 93282, Note_on_c, 1, 34, 0
4, 93840, Note_on_c, 1, 46, 108
4, 93892, Note_on_c, 1, 46, 0
4, 93960, Note_on_c, 1, 46, 105
4, 94017, Note_on_c, 1, 46, 0
4, 94080, Note_on_c, 1, 29, 115
4, 94247, Note_on_c, 1, 29, 0
4, 94320, Note_on_c, 1, 31, 105
4, 94495, Note_on_c, 1, 31, 0
4, 94560, Note_on_c, 1, 32, 118
4, 94740, Note_on_c, 1, 32, 0
4, 94800, Note_on_c, 1, 31, 126
4, 94975, Note_on_c, 1, 31, 0
4, 95040, Note_on_c, 1, 34, 118
4, 95225, Note_on_c, 1, 34, 0
4, 95760, Note_on_c, 1, 46, 115
4, 95800, Note_on_c, 1, 46, 0
4, 95880, Note_on_c, 1, 46, 121
4, 95930, Note_on_c, 1, 46, 0
4, 96000, Note_on_c, 1, 29, 124
4, 96217, Note_on_c, 1, 29, 0
4, 96240, Note_on_c, 1, 31, 104
4, 96432, Note_on_c, 1, 31, 0
4, 96480, Note_on_c, 1, 32, 113
4, 96680, Note_on_c, 1, 32, 0
4, 96720, Note_on_c, 1, 31, 111
4, 96935, Note_on_c, 1, 31, 0
4, 96960, Note_on_c, 1, 34, 123
4, 97122, Note_on_c, 1, 34, 0
4, 97680, Note_on_c, 1, 46, 108
4, 97732, Note_on_c, 1, 46, 0
4, 97800, Note_on_c, 1, 46, 105
4, 97857, Note_on_c, 1, 46, 0
4, 97920, Note_on_c, 1, 29, 115
4, 98087, Note_on_c, 1, 29, 0
4, 98160, Note_on_c, 1, 31, 105
4, 98335, Note_on_c, 1, 31, 0
4, 98400, Note_on_c, 1, 32, 118
4, 98580, Note_on_c, 1, 32, 0
4, 98640, Note_on_c, 1, 31, 126
4, 98815, Note_on_c, 1, 31, 0
4, 98880, Note_on_c, 1, 34, 118
4, 99065, Note_on_c, 1, 34, 0
4, 99600, Note_on_c, 1, 46, 115
4, 99640, Note_on_c, 1, 46, 0
4, 99720, Note_on_c, 1, 46, 121
4, 99770, Note_on_c, 1, 46, 0
4, 99840, Note_on_c, 1, 29, 124
4, 100057, Note_on_c, 1, 29, 0
4, 100080, Note_on_c, 1, 31, 104
4, 100272, Note_on_c, 1, 31, 0
4, 100320, Note_on_c, 1, 32, 113
4, 100520, Note_on_c, 1, 32, 0
4, 100560, Note_on_c, 1, 31, 111
4, 100775, Note_on_c, 1, 31, 0
4, 100800, Note_on_c, 1, 34, 123
4, 100962, Note_on_c, 1, 34, 0
4, 101520, Note_on_c, 1, 46, 108
4, 101572, Note_on_c, 1, 46, 0
4, 101640, Note_on_c, 1, 46, 105
4, 101697, Note_on_c, 1, 46, 0
4, 101760, Note_on_c, 1, 29, 115
4, 101927, Note_on_c, 1, 29, 0
4, 102000, Note_on_c, 1, 31, 105
4, 102175, Note_on_c, 1, 31, 0
4, 102240, Note_on_c, 1, 32, 118
4, 102420, Note_on_c, 1, 32, 0
4, 102480, Note_on_c, 1, 31, 126
4, 102655, Note_on_c, 1, 31, 0
4, 102720, Note_on_c, 1, 34, 118
4, 102905, Note_on_c, 1, 34, 0
4, 103440, Note_on_c, 1, 46, 115
4, 103480, Note_on_c, 1, 46, 0
4, 103560, Note_on_c, 1, 46, 121
4, 103610, Note_on_c, 1, 46, 0
4, 103680, Note_on_c, 1, 29, 124
4, 103897, Note_on_c, 1, 29, 0
4, 103920, Note_on_c, 1, 31, 104
4, 104112, Note_on_c, 1, 31, 0
4, 104160, Note_on_c, 1, 32, 113
4, 104360, Note_on_c, 1, 32, 0
4, 104400, Note_on_c, 1, 31, 111
4, 104615, Note_on_c, 1, 31, 0
4, 104640, Note_on_c, 1, 34, 123
4, 104802, Note_on_c, 1, 34, 0
4, 105360, Note_on_c, 1, 46, 108
4, 105412, Note_on_c, 1, 46, 0
4, 105480, Note_on_c, 1, 46, 105
4, 105537, Note_on_c, 1, 46, 0
4, 105600, Note_on_c, 1, 29, 115
4, 105767, Note_on_c, 1, 29, 0
4, 105840, Note_on_c, 1, 31, 105
4, 106015, Note_on_c, 1, 31, 0
4, 106080, Note_on_c, 1, 32, 118
4, 106260, Note_on_c, 1, 32, 0
4, 106320, Note_on_c, 1, 31, 126
4, 106495, Note_on_c, 1, 31, 0
4, 106560, Note_on_c, 1, 34, 118
4, 106745, Note_on_c, 1, 34, 0
4, 107280, Note_on_c, 1, 46, 115
4, 107320, Note_on_c, 1, 46, 0
4, 107400, Note_on_c, 1, 46, 121
4, 107450, Note_on_c, 1, 46, 0
4, 107520, Note_on_c, 1, 29, 124
4, 107737, Note_on_c, 1, 29, 0
4, 107760, Note_on_c, 1, 31, 104
4, 107952, Note_on_c, 1, 31, 0
4, 108000, Note_on_c, 1, 32, 113
4, 108200, Note_on_c, 1, 32, 0
4, 108240, Note_on_c, 1, 31, 111
4, 108455, Note_on_c, 1, 31, 0
4, 108480, Note_on_c, 1, 34, 123
4, 108642, Note_on_c, 1, 34, 0
4, 109200, Note_on_c, 1, 46, 108
4, 109252, Note_on_c, 1, 46, 0
4, 109320, Note_on_c, 1, 46, 105
4, 109377, Note_on_c, 1, 46, 0
4, 109440, Note_on_c, 1, 29, 115
4, 109607, Note_on_c, 1, 29, 0
4, 109680, Note_on_c, 1, 31, 105
4, 109855, Note_on_c, 1, 31, 0
4, 109920, Note_on_c, 1, 32, 118
4, 110100, Note_on_c, 1, 32, 0
4, 110160, Note_on_c, 1, 31, 126
4, 110335, Note_on_c, 1, 31, 0
4, 110400, Note_on_c, 1, 34, 118
4, 110585, Note_on_c, 1, 34, 0
4, 111120, Note_on_c, 1, 46, 115
4, 111160, Note_on_c, 1, 46, 0
4, 111240, Note_on_c, 1, 46, 121
4, 111290, Note_on_c, 1, 46, 0
4, 111360, Note_on_c, 1, 29, 124
4, 111577, Note_on_c, 1, 29, 0
4, 111600, Note_on_c, 1, 31, 104
4, 111792, Note_on_c, 1, 31, 0
4, 111840, Note_on_c, 1, 32, 113
4, 112040, Note_on_c, 1, 32, 0
4, 112080, Note_on_c, 1, 31, 111
4, 112295, Note_on_c, 1, 31, 0
4, 112320, Note_on_c, 1, 34, 123
4, 112482, Note_on_c, 1, 34, 0
4, 113040, Note_on_c, 1, 46, 108
4, 113092, Note_on_c, 1, 46, 0
4, 113160, Note_on_c, 1, 46, 105
4, 113217, Note_on_c, 1, 46, 0
4, 113280, Note_on_c, 1, 29, 115
4, 113447, Note_on_c, 1, 29, 0
4, 113520, Note_on_c, 1, 31, 105
4, 113695, Note_on_c, 1, 31, 0
4, 113760, Note_on_c, 1, 32, 118
4, 113940, Note_on_c, 1, 32, 0
4, 114000, Note_on_c, 1, 31, 126
4, 114175, Note_on_c, 1, 31, 0
4, 114240, Note_on_c, 1, 34, 118
4, 114425, Note_on_c, 1, 34, 0
4, 114960, Note_on_c, 1, 46, 115
4, 115000, Note_on_c, 1, 46, 0
4, 115080, Note_on_c, 1, 46, 121
4, 115130, Note_on_c, 1, 46, 0
4, 115200, Note_on_c, 1, 29, 124
4, 115417, Note_on_c, 1, 29, 0
4, 115440, Note_on_c, 1, 31, 104
4, 115632, Note_on_c, 1, 31, 0
4, 115680, Note_on_c, 1, 32, 113
4, 115880, Note_on_c, 1, 32, 0
4, 115920, Note_on_c, 1, 31, 111
4, 116135, Note_on_c, 1, 31, 0
4, 116160, Note_on_c, 1, 34, 123
4, 116322, Note_on_c, 1, 34, 0
4, 116880, Note_on_c, 1, 46, 108
4, 116932, Note_on_c, 1, 46, 0
4, 117000, Note_on_c, 1, 46, 105
4, 117057, Note_on_c, 1, 46, 0
4, 117120, Note_on_c, 1, 29, 115
4, 117287, Note_on_c, 1, 29, 0
4, 117360, Note_on_c, 1, 31, 105
4, 117535, Note_on_c, 1, 31, 0
4, 117600, Note_on_c, 1, 32, 118
4, 117780, Note_on_c, 1, 32, 0
4, 117840, Note_on_c, 1, 31, 126
4, 118015, Note_on_c, 1, 31, 0
4, 118080, Note_on_c, 1, 34, 118
4, 118265, Note_on_c, 1, 34, 0
4, 118800, Note_on_c, 1, 46, 115
4, 118840, Note_on_c, 1, 46, 0
4, 118920, Note_on_c, 1, 46, 121
4, 118970, Note_on_c, 1, 46, 0
4, 119040, Note_on_c, 1, 29, 124
4, 119257, Note_on_c, 1, 29, 0
4, 119280, Note_on_c, 1, 31, 104
4, 119472, Note_on_c, 1, 31, 0
4, 119520, Note_on_c, 1, 32, 113
4, 119720, Note_on_c, 1, 32, 0
4, 119760, Note_on_c, 1, 31, 111
4, 119975, Note_on_c, 1, 31, 0
4, 120000, Note_on_c, 1, 34, 123
4, 120162, Note_on_c, 1, 34, 0
4, 120720, Note_on_c, 1, 46, 108
4, 120772, Note_on_c, 1, 46, 0
4, 120840, Note_on_c, 1, 46, 105
4, 120897, Note_on_c, 1, 46, 0
4, 120960, Note_on_c, 1, 29, 115
4, 121127, Note_on_c, 1, 29, 0
4, 121200, Note_on_c, 1, 31, 105
4, 121375, Note_on_c, 1, 31, 0
4, 121440, Note_on_c, 1, 32, 118
4, 121620, Note_on_c, 1, 32, 0
4, 121680, Note_on_c, 1, 31, 126
4, 121855, Note_on_c, 1, 31, 0
4, 121920, Note_on_c, 1, 34, 118
4, 122105, Note_on_c, 1, 34, 0
4, 122640, Note_on_c, 1, 46, 115
4, 122680, Note_on_c, 1, 46, 0
4, 122760, Note_on_c, 1, 46, 121
4, 122810, Note_on_c, 1, 46, 0
4, 122880, Note_on_c, 1, 29, 124
4, 123097, Note_on_c, 1, 29, 0
4, 123120, Note_on_c, 1, 31, 104
4, 123312, Note_on_c, 1, 31, 0
4, 123360, Note_on_c, 1, 32, 113
4, 123560, Note_on_c, 1, 32, 0
4, 123600, Note_on_c, 1, 31, 111
4, 123815, Note_on_c, 1, 31, 0
4, 123840, Note_on_c, 1, 34, 123
4, 124002, Note_on_c, 1, 34, 0
4, 124560, Note_on_c, 1, 46, 108
4, 124612, Note_on_c, 1, 46, 0
4, 124680, Note_on_c, 1, 46, 105
4, 124737, Note_on_c, 1, 46, 0
4, 124800, Note_on_c, 1, 29, 115
4, 124967, Note_on_c, 1, 29, 0
4, 125040, Note_on_c, 1, 31, 105
4, 125215, Note_on_c, 1, 31, 0
4, 125280, Note_on_c, 1, 32, 118
4, 125460, Note_on_c, 1, 32, 0
4, 125520, Note_on_c, 1, 31, 126
4, 125695, Note_on_c, 1, 31, 0
4, 125760, Note_on_c, 1, 34, 118
4, 125945, Note_on_c, 1, 34, 0
4, 126480, Note_on_c, 1, 46, 115
4, 126520, Note_on_c, 1, 46, 0
4, 126600, Note_on_c, 1, 46, 121
4, 126650, Note_on_c, 1, 46, 0
4, 126720, Note_on_c, 1, 29, 124
4, 126937, Note_on_c, 1, 29, 0
4, 126960, Note_on_c, 1, 31, 104
4, 127152, Note_on_c, 1, 31, 0
4, 127200, Note_on_c, 1, 32, 113
4, 127400, Note_on_c, 1, 32, 0
4, 127440, Note_on_c, 1, 31, 111
4, 127655, Note_on_c, 1, 31, 0
4, 127680, Note_on_c, 1, 34, 123
4, 127842, Note_on_c, 1, 34, 0
4, 128400, Note_on_c, 1, 46, 108
4, 128452, Note_on_c, 1, 46, 0
4, 128520, Note_on_c, 1, 46, 105
4, 128577, Note_on_c, 1, 46, 0
4, 128640, Note_on_c, 1, 29, 115
4, 128807, Note_on_c, 1, 29, 0
4, 128880, Note_on_c, 1, 31, 105
4, 129055, Note_on_c, 1, 31, 0
4, 129120, Note_on_c, 1, 32, 118
4, 129300, Note_on_c, 1, 32, 0
4, 129360, Note_on_c, 1, 31, 126
4, 129535, Note_on_c, 1, 31, 0
4, 129600, Note_on_c, 1, 34, 118
4, 129785, Note_on_c, 1, 34, 0
4, 130320, Note_on_c, 1, 46, 115
4, 130360, Note_on_c, 1, 46, 0
4, 130440, Note_on_c, 1, 46, 121
4, 130490, Note_on_c, 1, 46, 0
4, 130560, Note_on_c, 1, 29, 124
4, 130777, Note_on_c, 1, 29, 0
4, 130800, Note_on_c, 1, 31, 104
4, 130992, Note_on_c, 1, 31, 0
4, 131040, Note_on_c, 1, 32, 113
4, 131240, Note_on_c, 1, 32, 0
4, 131280, Note_on_c, 1, 31, 111
4, 131495, Note_on_c, 1, 31, 0
4, 131520, Note_on_c, 1, 34, 123
4, 131682, Note_on_c, 1, 34, 0
4, 132240, Note_on_c, 1, 46, 108
4, 132292, Note_on_c, 1, 46, 0
4, 132360, Note_on_c, 1, 46, 105
4, 132417, Note_on_c, 1, 46, 0
4, 132480, Note_on_c, 1, 29, 115
4, 132647, Note_on_c, 1, 29, 0
4, 132720, Note_on_c, 1, 31, 105
4, 132895, Note_on_c, 1, 31, 0
4, 132960, Note_on_c, 1, 32, 118
4, 133140, Note_on_c, 1, 32, 0
4, 133200, Note_on_c, 1, 31, 126
4, 133375, Note_on_c, 1, 31, 0
4, 133440, Note_on_c, 1, 34, 118
4, 133625, Note_on_c, 1, 34, 0
4, 134160, Note_on_c, 1, 46, 115
4, 134200, Note_on_c, 1, 46, 0
4, 134280, Note_on_c, 1, 46, 121
4, 134330, Note_on_c, 1, 46, 0
4, 134400, Note_on_c, 1, 31, 124
4, 134617, Note_on_c, 1, 31, 0
4, 134640, Note_on_c, 1, 33, 104
4, 134832, Note_on_c, 1, 33, 0
4, 134880, Note_on_c, 1, 34, 113
4, 135080, Note_on_c, 1, 34, 0
4, 135120, Note_on_c, 1, 33, 111
4, 135335, Note_on_c, 1, 33, 0
4, 135360, Note_on_c, 1, 36, 123
4, 135522, Note_on_c, 1, 36, 0
4, 136080, Note_on_c, 1, 48, 108
4, 136132, Note_on_c, 1, 48, 0
4, 136200, Note_on_c, 1, 48, 105
4, 136257, Note_on_c, 1, 48, 0
4, 136320, Note_on_c, 1, 31, 115
4, 136487, Note_on_c, 1, 31, 0
4, 136560, Note_on_c, 1, 33, 105
4, 136735, Note_on_c, 1, 33, 0
4, 136800, Note_on_c, 1, 34, 118
4, 136980, Note_on_c, 1, 34, 0
4, 137040, Note_on_c, 1, 33, 126
4, 137215, Note_on_c, 1, 33, 0
4, 137280, Note_on_c, 1, 36, 118
4, 137465, Note_on_c, 1, 36, 0
4, 138000, Note_on_c, 1, 48, 115
4, 138040, Note_on_c, 1, 48, 0
4, 138120, Note_on_c, 1, 48, 121
4, 138170, Note_on_c, 1, 48, 0
4, 138240, Note_on_c, 1, 31, 124
4, 138457, Note_on_c, 1, 31, 0
4, 138480, Note_on_c, 1, 33, 104
4, 138672, Note_on_c, 1, 33, 0
4, 138720, Note_on_c, 1, 34, 113
4, 138920, Note_on_c, 1, 34, 0
4, 138960, Note_on_c, 1, 33, 111
4, 139175, Note_on_c, 1, 33, 0
4, 139200, Note_on_c, 1, 36, 123
4, 139362, Note_on_c, 1, 36, 0
4, 139920, Note_on_c, 1, 48, 108
4, 139972, Note_on_c, 1, 48, 0
4, 140040, Note_on_c, 1, 48, 105
4, 140097, Note_on_c, 1, 48, 0
4, 140160, Note_on_c, 1, 31, 115
4, 140327, Note_on_c, 1, 31, 0
4, 140400, Note_on_c, 1, 33, 105
4, 140575, Note_on_c, 1, 33, 0
4, 140640, Note_on_c, 1, 34, 118
4, 140820, Note_on_c, 1, 34, 0
4, 140880, Note_on_c, 1, 33, 126
4, 141055, Note_on_c, 1, 33, 0
4, 141120, Note_on_c, 1, 36, 118
4, 141305, Note_on_c, 1, 36, 0
4, 141840, Note_on_c, 1, 48, 115
4, 141880, Note_on_c, 1, 48, 0
4, 141960, Note_on_c, 1, 48, 121
4, 142010, Note_on_c, 1, 48, 0
4, 142080, Note_on_c, 1, 31, 124
4, 142297, Note_on_c, 1, 31, 0
4, 142320, Note_on_c, 1, 33, 104
4, 142512, Note_on_c, 1, 33, 0
4, 142560, Note_on_c, 1, 34, 113
4, 142760, Note_on_c, 1, 34, 0
4, 142800, Note_on_c, 1, 33, 111
4, 143015, Note_on_c, 1, 33, 0
4, 143040, Note_on_c, 1, 36, 123
4, 143202, Note_on_c, 1, 36, 0
4, 143760, Note_on_c, 1, 48, 108
4, 143812, Note_on_c, 1, 48, 0
4, 143880, Note_on_c, 1, 48, 105
4, 143937, Note_on_c, 1, 48, 0
4, 144000, Note_on_c, 1, 31, 115
4, 144167, Note_on_c, 1, 31, 0
4, 144240, Note_on_c, 1, 33, 105
4, 144415, Note_on_c, 1, 33, 0
4, 144480, Note_on_c, 1, 34, 118
4, 144660, Note_on_c, 1, 34, 0
4, 144720, Note_on_c, 1, 33, 126
4, 144895, Note_on_c, 1, 33, 0
4, 144960, Note_on_c, 1, 36, 118
4, 145145, Note_on_c, 1, 36, 0
4, 145680, Note_on_c, 1, 48, 115
4, 145720, Note_on_c, 1, 48, 0
4, 145800, Note_on_c, 1, 48, 121
4, 145850, Note_on_c, 1, 48, 0
4, 145920, Note_on_c, 1, 31, 124
4, 146137, Note_on_c, 1, 31, 0
4, 146160, Note_on_c, 1, 33, 104
4, 146352, Note_on_c, 1, 33, 0
4, 146400, Note_on_c, 1, 34, 113
4, 146600, Note_on_c, 1, 34, 0
4, 146640, Note_on_c, 1, 33, 111
4, 146855, Note_on_c, 1, 33, 0
4, 146880, Note_on_c, 1, 36, 123
4, 147042, Note_on_c, 1, 36, 0
4, 147600, Note_on_c, 1, 48, 108
4, 147652, Note_on_c, 1, 48, 0
4, 147720, Note_on_c, 1, 48, 105
4, 147777, Note_on_c, 1, 48, 0
4, 147840, Note_on_c, 1, 31, 115
4, 148007, Note_on_c, 1, 31, 0
4, 148080, Note_on_c, 1, 33, 105
4, 148255, Note_on_c, 1, 33, 0
4, 148320, Note_on_c, 1, 34, 118
4, 148500, Note_on_c, 1, 34, 0
4, 148560, Note_on_c, 1, 33, 126
4, 148735, Note_on_c, 1, 33, 0
4, 148800, Note_on_c, 1, 36, 118
4, 148985, Note_on_c, 1, 36, 0
4, 149520, Note_on_c, 1, 48, 115
4, 149560, Note_on_c, 1, 48, 0
4, 149640, Note_on_c, 1, 48, 121
4, 149690, Note_on_c, 1, 48, 0
4, 149760, Note_on_c, 1, 29, 124
4, 149977, Note_on_c, 1, 29, 0
4, 150000, Note_on_c, 1, 31, 104
4, 150192, Note_on_c, 1, 31, 0
4, 150240, Note_on_c, 1, 32, 113
4, 150440, Note_on_c, 1, 32, 0
4, 150480, Note_on_c, 1, 31, 111
4, 150695, Note_on_c, 1, 31, 0
4, 150720, Note_on_c, 1, 34, 123
4, 150882, Note_on_c, 1, 34, 0
4, 151440, Note_on_c, 1, 46, 108
4, 151492, Note_on_c, 1, 46, 0
4, 151560, Note_on_c, 1, 46, 105
4, 151617, Note_on_c, 1, 46, 0
4, 151680, Note_on_c, 1, 29, 115
4, 151847, Note_on_c, 1, 29, 0
4, 151920, Note_on_c, 1, 31, 105
4, 152095, Note_on_c, 1, 31, 0
4, 152160, Note_on_c, 1, 32, 118
4, 152340, Note_on_c, 1, 32, 0
4, 152400, Note_on_c, 1, 31, 126
4, 152575, Note_on_c, 1, 31, 0
4, 152640, Note_on_c, 1, 34, 118
4, 152825, Note_on_c, 1, 34, 0
4, 153360, Note_on_c, 1, 46, 115
4, 153400, Note_on_c, 1, 46, 0
4, 153480, Note_on_c, 1, 46, 121
4, 153530, Note_on_c, 1, 46, 0
4, 153600, Note_on_c, 1, 29, 124
4, 153817, Note_on_c, 1, 29, 0
4, 153840, Note_on_c, 1, 31, 104
4, 154032, Note_on_c, 1, 31, 0
4, 154080, Note_on_c, 1, 32, 113
4, 154280, Note_on_c, 1, 32, 0
4, 154320, Note_on_c, 1, 31, 111
4, 154535, Note_on_c, 1, 31, 0
4, 154560, Note_on_c, 1, 34, 123
4, 154722, Note_on_c, 1, 34, 0
4, 155280, Note_on_c, 1, 46, 108
4, 155332, Note_on_c, 1, 46, 0
4, 155400, Note_on_c, 1, 46, 105
4, 155457, Note_on_c, 1, 46, 0
4, 155520, Note_on_c, 1, 29, 115
4, 155687, Note_on_c, 1, 29, 0
4, 155760, Note_on_c, 1, 31, 105
4, 155935, Note_on_c, 1, 31, 0
4, 156000, Note_on_c, 1, 32, 118
4, 156180, Note_on_c, 1, 32, 0
4, 156240, Note_on_c, 1, 31, 126
4, 156415, Note_on_c, 1, 31, 0
4, 156480, Note_on_c, 1, 34, 118
4, 156665, Note_on_c, 1, 34, 0
4, 157200, Note_on_c, 1, 46, 115
4, 157240, Note_on_c, 1, 46, 0
4, 157320, Note_on_c, 1, 46, 121
4, 157370, Note_on_c, 1, 46, 0
4, 157440, Note_on_c, 1, 29, 124
4, 157657, Note_on_c, 1, 29, 0
4, 157680, Note_on_c, 1, 31, 104
4, 157872, Note_on_c, 1, 31, 0
4, 157920, Note_on_c, 1, 32, 113
4, 158120, Note_on_c, 1, 32, 0
4, 158160, Note_on_c, 1, 31, 111
4, 158375, Note_on_c, 1, 31, 0
4, 158400, Note_on_c, 1, 34, 123
4, 158562, Note_on_c, 1, 34, 0
4, 159120, Note_on_c, 1, 46, 108
4, 159172, Note_on_c, 1, 46, 0
4, 159240, Note_on_c, 1, 46, 105
4, 159297, Note_on_c, 1, 46, 0
4, 159360, Note_on_c, 1, 29, 115
4, 159527, Note_on_c, 1, 29, 0
4, 159600, Note_on_c, 1, 31, 105
4, 159775, Note_on_c, 1, 31, 0
4, 159840, Note_on_c, 1, 32, 118
4, 160020, Note_on_c, 1, 32, 0
4, 160080, Note_on_c, 1, 31, 126
4, 160255, Note_on_c, 1, 31, 0
4, 160320, Note_on_c, 1, 34, 118
4, 160505, Note_on_c, 1, 34, 0
4, 161040, Note_on_c, 1, 46, 115
4, 161080, Note_on_c, 1, 46, 0
4, 161160, Note_on_c, 1, 46, 121
4, 161210, Note_on_c, 1, 46, 0
4, 161280, Note_on_c, 1, 29, 124
4, 161497, Note_on_c, 1, 29, 0
4, 161520, Note_on_c, 1, 31, 104
4, 161712, Note_on_c, 1, 31, 0
4, 161760, Note_on_c, 1, 32, 113
4, 161960, Note_on_c, 1, 32, 0
4, 162000, Note_on_c, 1, 31, 111
4, 162215, Note_on_c, 1, 31, 0
4, 162240, Note_on_c, 1, 34, 123
4, 162402, Note_on_c, 1, 34, 0
4, 162960, Note_on_c, 1, 46, 108
4, 163012, Note_on_c, 1, 46, 0
4, 163080, Note_on_c, 1, 46, 105
4, 163137, Note_on_c, 1, 46, 0
4, 163200, Note_on_c, 1, 29, 115
4, 163367, Note_on_c, 1, 29, 0
4, 163440, Note_on_c, 1, 31, 105
4, 163615, Note_on_c, 1, 31, 0
4, 163680, Note_on_c, 1, 32, 118
4, 163860, Note_on_c, 1, 32, 0
4, 163920, Note_on_c, 1, 31, 126
4, 164095, Note_on_c, 1, 31, 0
4, 164160, Note_on_c, 1, 34, 118
4, 164345, Note_on_c, 1, 34, 0
4, 164880, Note_on_c, 1, 46, 115
4, 164920, Note_on_c, 1, 46, 0
4, 165000, Note_on_c, 1, 46, 121
4, 165050, Note_on_c, 1, 46, 0
4, 165120, Note_on_c, 1, 29, 124
4, 165337, Note_on_c, 1, 29, 0
4, 165360, Note_on_c, 1, 31, 104
4, 165552, Note_on_c, 1, 31, 0
4, 165600, Note_on_c, 1, 32, 113
4, 165800, Note_on_c, 1, 32, 0
4, 165840, Note_on_c, 1, 31, 111
4, 166055, Note_on_c, 1, 31, 0
4, 166080, Note_on_c, 1, 34, 123
4, 166242, Note_on_c, 1, 34, 0
4, 166800, Note_on_c, 1, 46, 108
4, 166852, Note_on_c, 1, 46, 0
4, 166920, Note_on_c, 1, 46, 105
4, 166977, Note_on_c, 1, 46, 0
4, 167040, Note_on_c, 1, 29, 115
4, 167207, Note_on_c, 1, 29, 0
4, 167280, Note_on_c, 1, 31, 105
4, 167455, Note_on_c, 1, 31, 0
4, 167520, Note_on_c, 1, 32, 118
4, 167700, Note_on_c, 1, 32, 0
4, 167760, Note_on_c, 1, 31, 126
4, 167935, Note_on_c, 1, 31, 0
4, 168000, Note_on_c, 1, 34, 118
4, 168185, Note_on_c, 1, 34, 0
4, 168720, Note_on_c, 1, 46, 115
4, 168760, Note_on_c, 1, 46, 0
4, 168840, Note_on_c, 1, 46, 121
4, 168890, Note_on_c, 1, 46, 0
4, 168960, Note_on_c, 1, 29, 124
4, 169177, Note_on_c, 1, 29, 0
4, 169200, Note_on_c, 1, 31, 104
4, 169392, Note_on_c, 1, 31, 0
4, 169440, Note_on_c, 1, 32, 113
4, 169640, Note_on_c, 1, 32, 0
4, 169680, Note_on_c, 1, 31, 111
4, 169895, Note_on_c, 1, 31, 0
4, 169920, Note_on_c, 1, 34, 123
4, 170082, Note_on_c, 1, 34, 0
4, 170640, Note_on_c, 1, 46, 108
4, 170692, Note_on_c, 1, 46, 0
4, 170760, Note_on_c, 1, 46, 105
4, 170817, Note_on_c, 1, 46, 0
4, 170880, Note_on_c, 1, 29, 115
4, 171047, Note_on_c, 1, 29, 0
4, 171120, Note_on_c, 1, 31, 105
4, 171295, Note_on_c, 1, 31, 0
4, 171360, Note_on_c, 1, 32, 118
4, 171540, Note_on_c, 1, 32, 0
4, 171600, Note_on_c, 1, 31, 126
4, 171775, Note_on_c, 1, 31, 0
4, 171840, Note_on_c, 1, 34, 118
4, 172025, Note_on_c, 1, 34, 0
4, 172560, Note_on_c, 1, 46, 115
4, 172600, Note_on_c, 1, 46, 0
4, 172680, Note_on_c, 1, 46, 121
4, 172730, Note_on_c, 1, 46, 0
4, 172800, Note_on_c, 1, 29, 124
4, 173017, Note_on_c, 1, 29, 0
4, 173040, Note_on_c, 1, 31, 104
4, 173232, Note_on_c, 1, 31, 0
4, 173280, Note_on_c, 1, 32, 113
4, 173480, Note_on_c, 1, 32, 0
4, 173520, Note_on_c, 1, 31, 111
4, 173735, Note_on_c, 1, 31, 0
4, 173760, Note_on_c, 1, 34, 123
4, 173922, Note_on_c, 1, 34, 0
4, 174480, Note_on_c, 1, 46, 108
4, 174532, Note_on_c, 1, 46, 0
4, 174600, Note_on_c, 1, 46, 105
4, 174657, Note_on_c, 1, 46, 0
4, 174720, Note_on_c, 1, 29, 115
4, 174887, Note_on_c, 1, 29, 0
4, 174960, Note_on_c, 1, 31, 105
4, 175135, Note_on_c, 1, 31, 0
4, 175200, Note_on_c, 1, 32, 118
4, 175380, Note_on_c, 1, 32, 0
4, 175440, Note_on_c, 1, 31, 126
4, 175615, Note_on_c, 1, 31, 0
4, 175680, Note_on_c, 1, 34, 118
4, 175865, Note_on_c, 1, 34, 0
4, 176400, Note_on_c, 1, 46, 115
4, 176440, Note_on_c, 1, 46, 0
4, 176520, Note_on_c, 1, 46, 121
4, 176570, Note_on_c, 1, 46, 0
4, 176640, Note_on_c, 1, 29, 124
4, 176857, Note_on_c, 1, 29, 0
4, 176880, Note_on_c, 1, 31, 104
4, 177072, Note_on_c, 1, 31, 0
4, 177120, Note_on_c, 1, 32, 113
4, 177320, Note_on_c, 1, 32, 0
4, 177360, Note_on_c, 1, 31, 111
4, 177575, Note_on_c, 1, 31, 0
4, 177600, Note_on_c, 1, 34, 123
4, 177762, Note_on_c, 1, 34, 0
4, 178320, Note_on_c, 1, 46, 108
4, 178372, Note_on_c, 1, 46, 0
4, 178440, Note_on_c, 1, 46, 105
4, 178497, Note_on_c, 1, 46, 0
4, 178560, Note_on_c, 1, 29, 115
4, 178727, Note_on_c, 1, 29, 0
4, 178800, Note_on_c, 1, 31, 105
4, 178975, Note_on_c, 1, 31, 0
4, 179040, Note_on_c, 1, 32, 118
4, 179220, Note_on_c, 1, 32, 0
4, 179280, Note_on_c, 1, 31, 126
4, 179455, Note_on_c, 1, 31, 0
4, 179520, Note_on_c, 1, 34, 118
4, 179705, Note_on_c, 1, 34, 0
4, 180240, Note_on_c, 1, 46, 115
4, 180280, Note_on_c, 1, 46, 0
4, 180360, Note_on_c, 1, 46, 121
4, 180410, Note_on_c, 1, 46, 0
4, 180480, Note_on_c, 1, 29, 124
4, 180697, Note_on_c, 1, 29, 0
4, 180720, Note_on_c, 1, 31, 104
4, 180912, Note_on_c, 1, 31, 0
4, 180960, Note_on_c, 1, 32, 113
4, 181160, Note_on_c, 1, 32, 0
4, 181200, Note_on_c, 1, 31, 111
4, 181415, Note_on_c, 1, 31, 0
4, 181440, Note_on_c, 1, 34, 123
4, 181602, Note_on_c, 1, 34, 0
4, 182160, Note_on_c, 1, 46, 108
4, 182212, Note_on_c, 1, 46, 0
4, 182280, Note_on_c, 1, 46, 105
4, 182337, Note_on_c, 1, 46, 0
4, 182400, Note_on_c, 1, 29, 115
4, 182567, Note_on_c, 1, 29, 0
4, 182640, Note_on_c, 1, 31, 105
4, 182815, Note_on_c, 1, 31, 0
4, 182880, Note_on_c, 1, 32, 118
4, 183060, Note_on_c, 1, 32, 0
4, 183120, Note_on_c, 1, 31, 126
4, 183295, Note_on_c, 1, 31, 0
4, 183360, Note_on_c, 1, 34, 118
4, 183545, Note_on_c, 1, 34, 0
4, 184080, Note_on_c, 1, 46, 115
4, 184120, Note_on_c, 1, 46, 0
4, 184200, Note_on_c, 1, 46, 121
4, 184250, Note_on_c, 1, 46, 0
4, 184320, Note_on_c, 1, 29, 124
4, 184537, Note_on_c, 1, 29, 0
4, 184560, Note_on_c, 1, 31, 104
4, 184752, Note_on_c, 1, 31, 0
4, 184800, Note_on_c, 1, 32, 113
4, 185000, Note_on_c, 1, 32, 0
4, 185040, Note_on_c, 1, 31, 111
4, 185255, Note_on_c, 1, 31, 0
4, 185280, Note_on_c, 1, 34, 123
4, 185442, Note_on_c, 1, 34, 0
4, 186000, Note_on_c, 1, 46, 108
4, 186052, Note_on_c, 1, 46, 0
4, 186120, Note_on_c, 1, 46, 105
4, 186177, Note_on_c, 1, 46, 0
4, 186240, Note_on_c, 1, 29, 115
4, 186407, Note_on_c, 1, 29, 0
4, 186480, Note_on_c, 1, 31, 105
4, 186655, Note_on_c, 1, 31, 0
4, 186720, Note_on_c, 1, 32, 118
4, 186900, Note_on_c, 1, 32, 0
4, 186960, Note_on_c, 1, 31, 126
4, 187135, Note_on_c, 1, 31, 0
4, 187200, Note_on_c, 1, 34, 118
4, 187385, Note_on_c, 1, 34, 0
4, 187920, Note_on_c, 1, 46, 115
4, 187960, Note_on_c, 1, 46, 0
4, 188040, Note_on_c, 1, 46, 121
4, 188090, Note_on_c, 1, 46, 0
4, 188160, Note_on_c, 1, 29, 124
4, 188377, Note_on_c, 1, 29, 0
4, 188400, Note_on_c, 1, 31, 104
4, 188592, Note_on_c, 1, 31, 0
4, 188640, Note_on_c, 1, 32, 113
4, 188840, Note_on_c, 1, 32, 0
4, 188880, Note_on_c, 1, 31, 111
4, 189095, Note_on_c, 1, 31, 0
4, 189120, Note_on_c, 1, 34, 123
4, 189282, Note_on_c, 1, 34, 0
4, 189840, Note_on_c, 1, 46, 108
4, 189892, Note_on_c, 1, 46, 0
4, 189960, Note_on_c, 1, 46, 105
4, 190017, Note_on_c, 1, 46, 0
4, 190080, Note_on_c, 1, 29, 115
4, 190247, Note_on_c, 1, 29, 0
4, 190320, Note_on_c, 1, 31, 105
4, 190495, Note_on_c, 1, 31, 0
4, 190560, Note_on_c, 1, 32, 118
4, 190740, Note_on_c, 1, 32, 0
4, 190800, Note_on_c, 1, 31, 126
4, 190975, Note_on_c, 1, 31, 0
4, 191040, Note_on_c, 1, 34, 118
4, 191225, Note_on_c, 1, 34, 0
4, 191760, Note_on_c, 1, 46, 115
4, 191800, Note_on_c, 1, 46, 0
4, 191880, Note_on_c, 1, 46, 121
4, 191930, Note_on_c, 1, 46, 0
4, 192000, Note_on_c, 1, 29, 124
4, 192217, Note_on_c, 1, 29, 0
4, 192240, Note_on_c, 1, 31, 104
4, 192432, Note_on_c, 1, 31, 0
4, 192480, Note_on_c, 1, 32, 113
4, 192680, Note_on_c, 1, 32, 0
4, 192720, Note_on_c, 1, 31, 111
4, 192935, Note_on_c, 1, 31, 0
4, 192960, Note_on_c, 1, 34, 123
4, 193122, Note_on_c, 1, 34, 0
4, 193680, Note_on_c, 1, 46, 108
4, 193732, Note_on_c, 1, 46, 0
4, 193800, Note_on_c, 1, 46, 105
4, 193857, Note_on_c, 1, 46, 0
4, 193920, Note_on_c, 1, 29, 115
4, 194087, Note_on_c, 1, 29, 0
4, 194160, Note_on_c, 1, 31, 105
4, 194335, Note_on_c, 1, 31, 0
4, 194400, Note_on_c, 1, 32, 118
4, 194580, Note_on_c, 1, 32, 0
4, 194640, Note_on_c, 1, 31, 126
4, 194815, Note_on_c, 1, 31, 0
4, 194880, Note_on_c, 1, 34, 118
4, 195065, Note_on_c, 1, 34, 0
4, 195600, Note_on_c, 1, 46, 115
4, 195640, Note_on_c, 1, 46, 0
4, 195720, Note_on_c, 1, 46, 121
4, 195770, Note_on_c, 1, 46, 0
4, 195840, Note_on_c, 1, 29, 124
4, 196057, Note_on_c, 1, 29, 0
4, 196080, Note_on_c, 1, 31, 104
4, 196272, Note_on_c, 1, 31, 0
4, 196320, Note_on_c, 1, 32, 113
4, 196520, Note_on_c, 1, 32, 0
4, 196560, Note_on_c, 1, 31, 111
4, 196775, Note_on_c, 1, 31, 0
4, 196800, Note_on_c, 1, 34, 123
4, 196962, Note_on_c, 1, 34, 0
4, 197520, Note_on_c, 1, 46, 108
4, 197572, Note_on_c, 1, 46, 0
4, 197640, Note_on_c, 1, 46, 105
4, 197697, Note_on_c, 1, 46, 0
4, 197760, Note_on_c, 1, 29, 115
4, 197927, Note_on_c, 1, 29, 0
4, 198000, Note_on_c, 1, 31, 105
4, 198175, Note_on_c, 1, 31, 0
4, 198240, Note_on_c, 1, 32, 118
4, 198420, Note_on_c, 1, 32, 0
4, 198480, Note_on_c, 1, 31, 126
4, 198655, Note_on_c, 1, 31, 0
4, 198720, Note_on_c, 1, 34, 118
4, 198905, Note_on_c, 1, 34, 0
4, 199440, Note_on_c, 1, 46, 115
4, 199480, Note_on_c, 1, 46, 0
4, 199560, Note_on_c, 1, 46, 121
4, 199610, Note_on_c, 1, 46, 0
4, 199680, Note_on_c, 1, 29, 124
4, 199897, Note_on_c, 1, 29, 0
4, 199920, Note_on_c, 1, 31, 104
4, 200112, Note_on_c, 1, 31, 0
4, 200160, Note_on_c, 1, 32, 113
4, 200360, Note_on_c, 1, 32, 0
4, 200400, Note_on_c, 1, 31, 111
4, 200615, Note_on_c, 1, 31, 0
4, 200640, Note_on_c, 1, 34, 123
4, 200802, Note_on_c, 1, 34, 0
4, 201360, Note_on_c, 1, 46, 108
4, 201412, Note_on_c, 1, 46, 0
4, 201480, Note_on_c, 1, 46, 105
4, 201537, Note_on_c, 1, 46, 0
4, 201600, Note_on_c, 1, 29, 115
4, 201767, Note_on_c, 1, 29, 0
4, 201840, Note_on_c, 1, 31, 105
4, 202015, Note_on_c, 1, 31, 0
4, 202080, Note_on_c, 1, 32, 118
4, 202260, Note_on_c, 1, 32, 0
4, 202320, Note_on_c, 1, 31, 126
4, 202495, Note_on_c, 1, 31, 0
4, 202560, Note_on_c, 1, 34, 118
4, 202745, Note_on_c, 1, 34, 0
4, 203280, Note_on_c, 1, 46, 115
4, 203320, Note_on_c, 1, 46, 0
4, 203400, Note_on_c, 1, 46, 121
4, 203450, Note_on_c, 1, 46, 0
4, 203520, Note_on_c, 1, 36, 124
4, 203715, Note_on_c, 1, 36, 0
4, 203760, Note_on_c, 1, 48, 104
4, 203820, Note_on_c, 1, 48, 0
4, 203880, Note_on_c, 1, 48, 106
4, 203972, Note_on_c, 1, 48, 0
4, 204120, Note_on_c, 1, 48, 97
4, 204180, Note_on_c, 1, 48, 0
4, 204240, Note_on_c, 1, 38, 122
4, 204465, Note_on_c, 1, 38, 0
4, 204480, Note_on_c, 1, 39, 115
4, 204702, Note_on_c, 1, 39, 0
4, 204960, Note_on_c, 1, 51, 110
4, 205032, Note_on_c, 1, 51, 0
4, 205200, Note_on_c, 1, 53, 103
4, 205390, Note_on_c, 1, 53, 0
4, 205440, Note_on_c, 1, 36, 117
4, 205635, Note_on_c, 1, 36, 0
4, 205680, Note_on_c, 1, 48, 95
4, 205727, Note_on_c, 1, 48, 0
4, 205800, Note_on_c, 1, 48, 103
4, 205880, Note_on_c, 1, 48, 0
4, 206040, Note_on_c, 1, 48, 108
4, 206097, Note_on_c, 1, 48, 0
4, 206160, Note_on_c, 1, 38, 115
4, 206362, Note_on_c, 1, 38, 0
4, 206400, Note_on_c, 1, 39, 116
4, 206572, Note_on_c, 1, 39, 0
4, 206640, Note_on_c, 1, 51, 99
4, 206705, Note_on_c, 1, 51, 0
4, 206760, Note_on_c, 1, 51, 83
4, 206820, Note_on_c, 1, 51, 0
4, 207120, Note_on_c, 1, 50, 97
4, 207202, Note_on_c, 1, 50, 0
4, 207240, Note_on_c, 1, 51, 95
4, 207320, Note_on_c, 1, 51, 0
4, 207360, Note_on_c, 1, 36, 114
4, 207600, Note_on_c, 1, 48, 71
4, 207617, Note_on_c, 1, 36, 0
4, 207622, Note_on_c, 1, 48, 0
4, 207720, Note_on_c, 1, 48, 108
4, 207797, Note_on_c, 1, 48, 0
4, 207960, Note_on_c, 1, 48, 97
4, 208007, Note_on_c, 1, 48, 0
4, 208080, Note_on_c, 1, 38, 119
4, 208265, Note_on_c, 1, 38, 0
4, 208320, Note_on_c, 1, 39, 100
4, 208520, Note_on_c, 1, 39, 0
4, 208560, Note_on_c, 1, 51, 95
4, 208622, Note_on_c, 1, 51, 0
4, 208800, Note_on_c, 1, 51, 103
4, 208867, Note_on_c, 1, 51, 0
4, 209040, Note_on_c, 1, 50, 113
4, 209127, Note_on_c, 1, 50, 0
4, 209160, Note_on_c, 1, 51, 87
4, 209217, Note_on_c, 1, 51, 0
4, 209280, Note_on_c, 1, 36, 111
4, 209602, Note_on_c, 1, 36, 0
4, 209640, Note_on_c, 1, 48, 106
4, 209702, Note_on_c, 1, 48, 0
4, 209880, Note_on_c, 1, 48, 106
4, 209945, Note_on_c, 1, 48, 0
4, 210000, Note_on_c, 1, 38, 108
4, 210240, Note_on_c, 1, 39, 95
4, 210242, Note_on_c, 1, 38, 0
4, 210360, Note_on_c, 1, 39, 0
4, 210480, Note_on_c, 1, 48, 98
4, 210567, Note_on_c, 1, 48, 0
4, 210720, Note_on_c, 1, 46, 110
4, 210780, Note_on_c, 1, 46, 0
4, 210960, Note_on_c, 1, 46, 103
4, 211045, Note_on_c, 1, 46, 0
4, 211080, Note_on_c, 1, 48, 91
4, 211172, Note_on_c, 1, 48, 0
4, 211200, Note_on_c, 1, 36, 113
4, 211530, Note_on_c, 1, 36, 0
4, 211560, Note_on_c, 1, 48, 107
4, 211625, Note_on_c, 1, 48, 0
4, 211800, Note_on_c, 1, 48, 103
4, 211867, Note_on_c, 1, 48, 0
4, 211920, Note_on_c, 1, 38, 111
4, 212147, Note_on_c, 1, 38, 0
4, 212160, Note_on_c, 1, 39, 105
4, 212297, Note_on_c, 1, 39, 0
4, 212400, Note_on_c, 1, 51, 106
4, 212472, Note_on_c, 1, 51, 0
4, 212640, Note_on_c, 1, 50, 99
4, 212727, Note_on_c, 1, 50, 0
4, 212760, Note_on_c, 1, 51, 94
4, 212835, Note_on_c, 1, 51, 0
4, 213000, Note_on_c, 1, 51, 106
4, 213055, Note_on_c, 1, 51, 0
4, 213120, Note_on_c, 1, 36, 121
4, 213422, Note_on_c, 1, 36, 0
4, 213480, Note_on_c, 1, 48, 105
4, 213547, Note_on_c, 1, 48, 0
4, 213720, Note_on_c, 1, 48, 103
4, 213777, Note_on_c, 1, 48, 0
4, 213840, Note_on_c, 1, 38, 117
4, 214037, Note_on_c, 1, 38, 0
4, 214080, Note_on_c, 1, 39, 104
4, 214315, Note_on_c, 1, 39, 0
4, 214320, Note_on_c, 1, 51, 102
4, 214382, Note_on_c, 1, 51, 0
4, 214560, Note_on_c, 1, 50, 99
4, 214647, Note_on_c, 1, 50, 0
4, 214800, Note_on_c, 1, 51, 103
4, 214860, Note_on_c, 1, 51, 0
4, 215040, Note_on_c, 1, 36, 117
4, 215360, Note_on_c, 1, 36, 0
4, 215400, Note_on_c, 1, 48, 114
4, 215472, Note_on_c, 1, 48, 0
4, 215760, Note_on_c, 1, 38, 117
4, 215980, Note_on_c, 1, 38, 0
4, 216000, Note_on_c, 1, 39, 97
4, 216142, Note_on_c, 1, 39, 0
4, 216240, Note_on_c, 1, 51, 106
4, 216322, Note_on_c, 1, 51, 0
4, 216480, Note_on_c, 1, 50, 99
4, 216555, Note_on_c, 1, 50, 0
4, 216720, Note_on_c, 1, 51, 104
4, 216780, Note_on_c, 1, 51, 0
4, 216960, Note_on_c, 1, 36, 108
4, 217210, Note_on_c, 1, 36, 0
4, 217320, Note_on_c, 1, 36, 115
4, 217440, Note_on_c, 1, 36, 0
4, 217680, Note_on_c, 1, 38, 121
4, 217680, Note_on_c, 1, 45, 107
4, 217892, Note_on_c, 1, 38, 0
4, 217892, Note_on_c, 1, 45, 0
4, 217920, Note_on_c, 1, 39, 115
4, 217920, Note_on_c, 1, 46, 103
4, 218042, Note_on_c, 1, 46, 0
4, 218077, Note_on_c, 1, 39, 0
4, 233040, Note_on_c, 1, 38, 125
4, 233280, Note_on_c, 1, 38, 0
4, 233280, Note_on_c, 1, 39, 108
4, 233487, Note_on_c, 1, 39, 0
4, 234240, Note_on_c, 1, 31, 124
4, 234457, Note_on_c, 1, 31, 0
4, 234480, Note_on_c, 1, 33, 104
4, 234672, Note_on_c, 1, 33, 0
4, 234720, Note_on_c, 1, 34, 113
4, 234920, Note_on_c, 1, 34, 0
4, 234960, Note_on_c, 1, 33, 111
4, 235175, Note_on_c, 1, 33, 0
4, 235200, Note_on_c, 1, 36, 123
4, 235362, Note_on_c, 1, 36, 0
4, 235920, Note_on_c, 1, 48, 108
4, 235972, Note_on_c, 1, 48, 0
4, 236040, Note_on_c, 1, 48, 105
4, 236097, Note_on_c, 1, 48, 0
4, 236160, Note_on_c, 1, 31, 115
4, 236327, Note_on_c, 1, 31, 0
4, 236400, Note_on_c, 1, 33, 105
4, 236575, Note_on_c, 1, 33, 0
4, 236640, Note_on_c, 1, 34, 118
4, 236820, Note_on_c, 1, 34, 0
4, 236880, Note_on_c, 1, 33, 126
4, 237055, Note_on_c, 1, 33, 0
4, 237120, Note_on_c, 1, 36, 118
4, 237305, Note_on_c, 1, 36, 0
4, 237840, Note_on_c, 1, 48, 115
4, 237880, Note_on_c, 1, 48, 0
4, 237960, Note_on_c, 1, 48, 121
4, 238010, Note_on_c, 1, 48, 0
4, 238080, Note_on_c, 1, 31, 124
4, 238297, Note_on_c, 1, 31, 0
4, 238320, Note_on_c, 1, 33, 104
4, 238512, Note_on_c, 1, 33, 0
4, 238560, Note_on_c, 1, 34, 113
4, 238760, Note_on_c, 1, 34, 0
4, 238800, Note_on_c, 1, 33, 111
4, 239015, Note_on_c, 1, 33, 0
4, 239040, Note_on_c, 1, 36, 123
4, 239202, Note_on_c, 1, 36, 0
4, 239760, Note_on_c, 1, 48, 108
4, 239812, Note_on_c, 1, 48, 0
4, 239880, Note_on_c, 1, 48, 105
4, 239937, Note_on_c, 1, 48, 0
4, 240000, Note_on_c, 1, 31, 115
4, 240167, Note_on_c, 1, 31, 0
4, 240240, Note_on_c, 1, 33, 105
4, 240415, Note_on_c, 1, 33, 0
4, 240480, Note_on_c, 1, 34, 118
4, 240660, Note_on_c, 1, 34, 0
4, 240720, Note_on_c, 1, 33, 126
4, 240895, Note_on_c, 1, 33, 0
4, 240960, Note_on_c, 1, 36, 118
4, 241145, Note_on_c, 1, 36, 0
4, 241680, Note_on_c, 1, 48, 115
4, 241720, Note_on_c, 1, 48, 0
4, 241800, Note_on_c, 1, 48, 121
4, 241850, Note_on_c, 1, 48, 0
4, 241920, Note_on_c, 1, 31, 124
4, 242137, Note_on_c, 1, 31, 0
4, 242160, Note_on_c, 1, 33, 104
4, 242352, Note_on_c, 1, 33, 0
4, 242400, Note_on_c, 1, 34, 113
4, 242600, Note_on_c, 1, 34, 0
4, 242640, Note_on_c, 1, 33, 111
4, 242855, Note_on_c, 1, 33, 0
4, 242880, Note_on_c, 1, 36, 123
4, 243042, Note_on_c, 1, 36, 0
4, 243600, Note_on_c, 1, 48, 108
4, 243652, Note_on_c, 1, 48, 0
4, 243720, Note_on_c, 1, 48, 105
4, 243777, Note_on_c, 1, 48, 0
4, 243840, Note_on_c, 1, 31, 115
4, 244007, Note_on_c, 1, 31, 0
4, 244080, Note_on_c, 1, 33, 105
4, 244255, Note_on_c, 1, 33, 0
4, 244320, Note_on_c, 1, 34, 118
4, 244500, Note_on_c, 1, 34, 0
4, 244560, Note_on_c, 1, 33, 126
4, 244735, Note_on_c, 1, 33, 0
4, 244800, Note_on_c, 1, 36, 118
4, 244985, Note_on_c, 1, 36, 0
4, 245520, Note_on_c, 1, 48, 115
4, 245560, Note_on_c, 1, 48, 0
4, 245640, Note_on_c, 1, 48, 121
4, 245690, Note_on_c, 1, 48, 0
4, 245760, Note_on_c, 1, 31, 124
4, 245977, Note_on_c, 1, 31, 0
4, 246000, Note_on_c, 1, 33, 104
4, 246192, Note_on_c, 1, 33, 0
4, 246240, Note_on_c, 1, 34, 113
4, 246440, Note_on_c, 1, 34, 0
4, 246480, Note_on_c, 1, 33, 111
4, 246695, Note_on_c, 1, 33, 0
4, 246720, Note_on_c, 1, 36, 123
4, 246882, Note_on_c, 1, 36, 0
4, 247440, Note_on_c, 1, 48, 108
4, 247492, Note_on_c, 1, 48, 0
4, 247560, Note_on_c, 1, 48, 105
4, 247617, Note_on_c, 1, 48, 0
4, 247680, Note_on_c, 1, 36, 102
4, 247955, Note_on_c, 1, 36, 0
4, 248160, Note_on_c, 1, 36, 109
4, 248422, Note_on_c, 1, 36, 0
4, 248640, Note_on_c, 1, 29, 104
4, 248935, Note_on_c, 1, 29, 0
4, 249120, Note_on_c, 1, 29, 112
4, 249380, Note_on_c, 1, 29, 0
4, 249600, Note_on_c, 1, 29, 124
4, 249817, Note_on_c, 1, 29, 0
4, 249840, Note_on_c, 1, 31, 104
4, 250032, Note_on_c, 1, 31, 0
4, 250080, Note_on_c, 1, 32, 113
4, 250280, Note_on_c, 1, 32, 0
4, 250320, Note_on_c, 1, 31, 111
4, 250535, Note_on_c, 1, 31, 0
4, 250560, Note_on_c, 1, 34, 123
4, 250722, Note_on_c, 1, 34, 0
4, 251280, Note_on_c, 1, 46, 108
4, 251332, Note_on_c, 1, 46, 0
4, 251400, Note_on_c, 1, 46, 105
4, 251457, Note_on_c, 1, 46, 0
4, 251520, Note_on_c, 1, 29, 115
4, 251687, Note_on_c, 1, 29, 0
4, 251760, Note_on_c, 1, 31, 105
4, 251935, Note_on_c, 1, 31, 0
4, 252000, Note_on_c, 1, 32, 118
4, 252180, Note_on_c, 1, 32, 0
4, 252240, Note_on_c, 1, 31, 126
4, 252415, Note_on_c, 1, 31, 0
4, 252480, Note_on_c, 1, 34, 118
4, 252665, Note_on_c, 1, 34, 0
4, 253200, Note_on_c, 1, 46, 115
4, 253240, Note_on_c, 1, 46, 0
4, 253320, Note_on_c, 1, 46, 121
4, 253370, Note_on_c, 1, 46, 0
4, 253440, Note_on_c, 1, 29, 124
4, 253657, Note_on_c, 1, 29, 0
4, 253680, Note_on_c, 1, 31, 104
4, 253872, Note_on_c, 1, 31, 0
4, 253920, Note_on_c, 1, 32, 113
4, 254120, Note_on_c, 1, 32, 0
4, 254160, Note_on_c, 1, 31, 111
4, 254375, Note_on_c, 1, 31, 0
4, 254400, Note_on_c, 1, 34, 123
4, 254562, Note_on_c, 1, 34, 0
4, 255120, Note_on_c, 1, 46, 108
4, 255172, Note_on_c, 1, 46, 0
4, 255240, Note_on_c, 1, 46, 105
4, 255297, Note_on_c, 1, 46, 0
4, 255360, Note_on_c, 1, 29, 115
4, 255527, Note_on_c, 1, 29, 0
4, 255600, Note_on_c, 1, 31, 105
4, 255775, Note_on_c, 1, 31, 0
4, 255840, Note_on_c, 1, 32, 118
4, 256020, Note_on_c, 1, 32, 0
4, 256080, Note_on_c, 1, 31, 126
4, 256255, Note_on_c, 1, 31, 0
4, 256320, Note_on_c, 1, 34, 118
4, 256505, Note_on_c, 1, 34, 0
4, 257040, Note_on_c, 1, 46, 115
4, 257080, Note_on_c, 1, 46, 0
4, 257160, Note_on_c, 1, 46, 121
4, 257210, Note_on_c, 1, 46, 0
4, 257280, Note_on_c, 1, 29, 124
4, 257497, Note_on_c, 1, 29, 0
4, 257520, Note_on_c, 1, 31, 104
4, 257712, Note_on_c, 1, 31, 0
4, 257760, Note_on_c, 1, 32, 113
4, 257960, Note_on_c, 1, 32, 0
4, 258000, Note_on_c, 1, 31, 111
4, 258215, Note_on_c, 1, 31, 0
4, 258240, Note_on_c, 1, 34, 123
4, 258402, Note_on_c, 1, 34, 0
4, 258960, Note_on_c, 1, 46, 108
4, 259012, Note_on_c, 1, 46, 0
4, 259080, Note_on_c, 1, 46, 105
4, 259137, Note_on_c, 1, 46, 0
4, 259200, Note_on_c, 1, 29, 115
4, 259367, Note_on_c, 1, 29, 0
4, 259440, Note_on_c, 1, 31, 105
4, 259615, Note_on_c, 1, 31, 0
4, 259680, Note_on_c, 1, 32, 118
4, 259860, Note_on_c, 1, 32, 0
4, 259920, Note_on_c, 1, 31, 126
4, 260095, Note_on_c, 1, 31, 0
4, 260160, Note_on_c, 1, 34, 118
4, 260345, Note_on_c, 1, 34, 0
4, 260880, Note_on_c, 1, 46, 115
4, 260920, Note_on_c, 1, 46, 0
4, 261000, Note_on_c, 1, 46, 121
4, 261050, Note_on_c, 1, 46, 0
4, 261120, Note_on_c, 1, 29, 124
4, 261337, Note_on_c, 1, 29, 0
4, 261360, Note_on_c, 1, 31, 104
4, 261552, Note_on_c, 1, 31, 0
4, 261600, Note_on_c, 1, 32, 113
4, 261800, Note_on_c, 1, 32, 0
4, 261840, Note_on_c, 1, 31, 111
4, 262055, Note_on_c, 1, 31, 0
4, 262080, Note_on_c, 1, 34, 123
4, 262242, Note_on_c, 1, 34, 0
4, 262800, Note_on_c, 1, 46, 108
4, 262852, Note_on_c, 1, 46, 0
4, 262920, Note_on_c, 1, 46, 105
4, 262977, Note_on_c, 1, 46, 0
4, 263040, Note_on_c, 1, 29, 115
4, 263207, Note_on_c, 1, 29, 0
4, 263280, Note_on_c, 1, 31, 105
4, 263455, Note_on_c, 1, 31, 0
4, 263520, Note_on_c, 1, 32, 118
4, 263700, Note_on_c, 1, 32, 0
4, 263760, Note_on_c, 1, 31, 126
4, 263935, Note_on_c, 1, 31, 0
4, 264000, Note_on_c, 1, 34, 118
4, 264185, Note_on_c, 1, 34, 0
4, 264720, Note_on_c, 1, 46, 115
4, 264760, Note_on_c, 1, 46, 0
4, 264840, Note_on_c, 1, 46, 121
4, 264890, Note_on_c, 1, 46, 0
4, 264960, Note_on_c, 1, 29, 124
4, 265177, Note_on_c, 1, 29, 0
4, 265200, Note_on_c, 1, 31, 104
4, 265392, Note_on_c, 1, 31, 0
4, 265440, Note_on_c, 1, 32, 113
4, 265640, Note_on_c, 1, 32, 0
4, 265680, Note_on_c, 1, 31, 111
4, 265895, Note_on_c, 1, 31, 0
4, 265920, Note_on_c, 1, 34, 123
4, 266082, Note_on_c, 1, 34, 0
4, 266640, Note_on_c, 1, 46, 108
4, 266692, Note_on_c, 1, 46, 0
4, 266760, Note_on_c, 1, 46, 105
4, 266817, Note_on_c, 1, 46, 0
4, 266880, Note_on_c, 1, 29, 115
4, 267047, Note_on_c, 1, 29, 0
4, 267120, Note_on_c, 1, 31, 105
4, 267295, Note_on_c, 1, 31, 0
4, 267360, Note_on_c, 1, 32, 118
4, 267540, Note_on_c, 1, 32, 0
4, 267600, Note_on_c, 1, 31, 126
4, 267775, Note_on_c, 1, 31, 0
4, 267840, Note_on_c, 1, 34, 118
4, 268025, Note_on_c, 1, 34, 0
4, 268560, Note_on_c, 1, 46, 115
4, 268600, Note_on_c, 1, 46, 0
4, 268680, Note_on_c, 1, 46, 121
4, 268730, Note_on_c, 1, 46, 0
4, 268800, Note_on_c, 1, 29, 124
4, 269017, Note_on_c, 1, 29, 0
4, 269040, Note_on_c, 1, 31, 104
4, 269232, Note_on_c, 1, 31, 0
4, 269280, Note_on_c, 1, 32, 113
4, 269480, Note_on_c, 1, 32, 0
4, 269520, Note_on_c, 1, 31, 111
4, 269735, Note_on_c, 1, 31, 0
4, 269760, Note_on_c, 1, 34, 123
4, 269922, Note_on_c, 1, 34, 0
4, 270480, Note_on_c, 1, 46, 108
4, 270532, Note_on_c, 1, 46, 0
4, 270600, Note_on_c, 1, 46, 105
4, 270657, Note_on_c, 1, 46, 0
4, 270720, Note_on_c, 1, 29, 115
4, 270887, Note_on_c, 1, 29, 0
4, 270960, Note_on_c, 1, 31, 105
4, 271135, Note_on_c, 1, 31, 0
4, 271200, Note_on_c, 1, 32, 118
4, 271380, Note_on_c, 1, 32, 0
4, 271440, Note_on_c, 1, 31, 126
4, 271615, Note_on_c, 1, 31, 0
4, 271680, Note_on_c, 1, 34, 118
4, 271865, Note_on_c, 1, 34, 0
4, 272400, Note_on_c, 1, 46, 115
4, 272440, Note_on_c, 1, 46, 0
4, 272520, Note_on_c, 1, 46, 121
4, 272570, Note_on_c, 1, 46, 0
4, 272640, Note_on_c, 1, 29, 124
4, 272857, Note_on_c, 1, 29, 0
4, 272880, Note_on_c, 1, 31, 104
4, 273072, Note_on_c, 1, 31, 0
4, 273120, Note_on_c, 1, 32, 113
4, 273320, Note_on_c, 1, 32, 0
4, 273360, Note_on_c, 1, 31, 111
4, 273575, Note_on_c, 1, 31, 0
4, 273600, Note_on_c, 1, 34, 123
4, 273762, Note_on_c, 1, 34, 0
4, 274320, Note_on_c, 1, 46, 108
4, 274372, Note_on_c, 1, 46, 0
4, 274440, Note_on_c, 1, 46, 105
4, 274497, Note_on_c, 1, 46, 0
4, 274560, Note_on_c, 1, 29, 115
4, 274727, Note_on_c, 1, 29, 0
4, 274800, Note_on_c, 1, 31, 105
4, 274975, Note_on_c, 1, 31, 0
4, 275040, Note_on_c, 1, 32, 118
4, 275220, Note_on_c, 1, 32, 0
4, 275280, Note_on_c, 1, 31, 126
4, 275455, Note_on_c, 1, 31, 0
4, 275520, Note_on_c, 1, 34, 118
4, 275705, Note_on_c, 1, 34, 0
4, 276240, Note_on_c, 1, 46, 115
4, 276280, Note_on_c, 1, 46, 0
4, 276360, Note_on_c, 1, 46, 121
4, 276410, Note_on_c, 1, 46, 0
4, 276480, Note_on_c, 1, 29, 124
4, 276697, Note_on_c, 1, 29, 0
4, 276720, Note_on_c, 1, 31, 104
4, 276912, Note_on_c, 1, 31, 0
4, 276960, Note_on_c, 1, 32, 113
4, 277160, Note_on_c, 1, 32, 0
4, 277200, Note_on_c, 1, 31, 111
4, 277415, Note_on_c, 1, 31, 0
4, 277440, Note_on_c, 1, 34, 123
4, 277602, Note_on_c, 1, 34, 0
4, 278160, Note_on_c, 1, 46, 108
4, 278212, Note_on_c, 1, 46, 0
4, 278280, Note_on_c, 1, 46, 105
4, 278337, Note_on_c, 1, 46, 0
4, 278400, Note_on_c, 1, 29, 115
4, 278567, Note_on_c, 1, 29, 0
4, 278640, Note_on_c, 1, 31, 105
4, 278815, Note_on_c, 1, 31, 0
4, 278880, Note_on_c, 1, 32, 118
4, 279060, Note_on_c, 1, 32, 0
4, 279120, Note_on_c, 1, 31, 126
4, 279295, Note_on_c, 1, 31, 0
4, 279360, Note_on_c, 1, 34, 118
4, 279545, Note_on_c, 1, 34, 0
4, 280080, Note_on_c, 1, 46, 115
4, 280120, Note_on_c, 1, 46, 0
4, 280200, Note_on_c, 1, 46, 121
4, 280250, Note_on_c, 1, 46, 0
4, 280320, Note_on_c, 1, 29, 124
4, 280537, Note_on_c, 1, 29, 0
4, 280560, Note_on_c, 1, 31, 104
4, 280752, Note_on_c, 1, 31, 0
4, 280800, Note_on_c, 1, 32, 113
4, 281000, Note_on_c, 1, 32, 0
4, 281040, Note_on_c, 1, 31, 111
4, 281255, Note_on_c, 1, 31, 0
4, 281280, Note_on_c, 1, 34, 123
4, 281442, Note_on_c, 1, 34, 0
4, 282000, Note_on_c, 1, 46, 108
4, 282052, Note_on_c, 1, 46, 0
4, 282120, Note_on_c, 1, 46, 105
4, 282177, Note_on_c, 1, 46, 0
4, 282240, Note_on_c, 1, 29, 115
4, 282407, Note_on_c, 1, 29, 0
4, 282480, Note_on_c, 1, 31, 105
4, 282655, Note_on_c, 1, 31, 0
4, 282720, Note_on_c, 1, 32, 118
4, 282900, Note_on_c, 1, 32, 0
4, 282960, Note_on_c, 1, 31, 126
4, 283135, Note_on_c, 1, 31, 0
4, 283200, Note_on_c, 1, 34, 118
4, 283385, Note_on_c, 1, 34, 0
4, 283920, Note_on_c, 1, 46, 115
4, 283960, Note_on_c, 1, 46, 0
4, 284040, Note_on_c, 1, 46, 121
4, 284090, Note_on_c, 1, 46, 0
4, 284160, Note_on_c, 1, 29, 124
4, 284377, Note_on_c, 1, 29, 0
4, 284400, Note_on_c, 1, 31, 104
4, 284592, Note_on_c, 1, 31, 0
4, 284640, Note_on_c, 1, 32, 113
4, 284840, Note_on_c, 1, 32, 0
4, 284880, Note_on_c, 1, 31, 111
4, 285095, Note_on_c, 1, 31, 0
4, 285120, Note_on_c, 1, 34, 123
4, 285282, Note_on_c, 1, 34, 0
4, 285840, Note_on_c, 1, 46, 108
4, 285892, Note_on_c, 1, 46, 0
4, 285960, Note_on_c, 1, 46, 105
4, 286017, Note_on_c, 1, 46, 0
4, 286080, Note_on_c, 1, 29, 115
4, 286247, Note_on_c, 1, 29, 0
4, 286320, Note_on_c, 1, 31, 105
4, 286495, Note_on_c, 1, 31, 0
4, 286560, Note_on_c, 1, 32, 118
4, 286740, Note_on_c, 1, 32, 0
4, 286800, Note_on_c, 1, 31, 126
4, 286975, Note_on_c, 1, 31, 0
4, 287040, Note_on_c, 1, 34, 118
4, 287225, Note_on_c, 1, 34, 0
4, 287760, Note_on_c, 1, 46, 115
4, 287800, Note_on_c, 1, 46, 0
4, 287880, Note_on_c, 1, 46, 121
4, 287930, Note_on_c, 1, 46, 0
4, 288000, Note_on_c, 1, 29, 124
4, 288217, Note_on_c, 1, 29, 0
4, 288240, Note_on_c, 1, 31, 104
4, 288432, Note_on_c, 1, 31, 0
4, 288480, Note_on_c, 1, 32, 113
4, 288680, Note_on_c, 1, 32, 0
4, 288720, Note_on_c, 1, 31, 111
4, 288935, Note_on_c, 1, 31, 0
4, 288960, Note_on_c, 1, 34, 123
4, 289122, Note_on_c, 1, 34, 0
4, 289680, Note_on_c, 1, 46, 108
4, 289732, Note_on_c, 1, 46, 0
4, 289800, Note_on_c, 1, 46, 105
4, 289857, Note_on_c, 1, 46, 0
4, 289920, Note_on_c, 1, 29, 115
4, 290087, Note_on_c, 1, 29, 0
4, 290160, Note_on_c, 1, 31, 105
4, 290335, Note_on_c, 1, 31, 0
4, 290400, Note_on_c, 1, 32, 118
4, 290580, Note_on_c, 1, 32, 0
4, 290640, Note_on_c, 1, 31, 126
4, 290815, Note_on_c, 1, 31, 0
4, 290880, Note_on_c, 1, 34, 118
4, 291065, Note_on_c, 1, 34, 0
4, 291600, Note_on_c, 1, 46, 115
4, 291640, Note_on_c, 1, 46, 0
4, 291720, Note_on_c, 1, 46, 121
4, 291770, Note_on_c, 1, 46, 0
4, 291840, Note_on_c, 1, 29, 124
4, 292057, Note_on_c, 1, 29, 0
4, 292080, Note_on_c, 1, 31, 104
4, 292272, Note_on_c, 1, 31, 0
4, 292320, Note_on_c, 1, 32, 113
4, 292520, Note_on_c, 1, 32, 0
4, 292560, Note_on_c, 1, 31, 111
4, 292775, Note_on_c, 1, 31, 0
4, 292800, Note_on_c, 1, 34, 123
4, 292962, Note_on_c, 1, 34, 0
4, 293520, Note_on_c, 1, 46, 108
4, 293572, Note_on_c, 1, 46, 0
4, 293640, Note_on_c, 1, 46, 105
4, 293697, Note_on_c, 1, 46, 0
4, 293760, Note_on_c, 1, 29, 115
4, 293927, Note_on_c, 1, 29, 0
4, 294000, Note_on_c, 1, 31, 105
4, 294175, Note_on_c, 1, 31, 0
4, 294240, Note_on_c, 1, 32, 118
4, 294420, Note_on_c, 1, 32, 0
4, 294480, Note_on_c, 1, 31, 126
4, 294655, Note_on_c, 1, 31, 0
4, 294720, Note_on_c, 1, 34, 118
4, 294905, Note_on_c, 1, 34, 0
4, 295440, Note_on_c, 1, 46, 115
4, 295480, Note_on_c, 1, 46, 0
4, 295560, Note_on_c, 1, 46, 121
4, 295610, Note_on_c, 1, 46, 0
4, 295680, Note_on_c, 1, 34, 123
4, 296160, Note_on_c, 1, 32, 127
4, 296170, Note_on_c, 1, 34, 0
4, 296395, Note_on_c, 1, 32, 0
4, 299280, Note_on_c, 1, 29, 117
4, 299355, Note_on_c, 1, 29, 0
4, 299400, Note_on_c, 1, 32, 100
4, 299470, Note_on_c, 1, 32, 0
4, 299520, Note_on_c, 1, 34, 120
4, 299980, Note_on_c, 1, 34, 0
4, 300000, Note_on_c, 1, 32, 127
4, 300205, Note_on_c, 1, 32, 0
4, 303120, Note_on_c, 1, 41, 99
4, 303187, Note_on_c, 1, 41, 0
4, 303240, Note_on_c, 1, 41, 115
4, 303300, Note_on_c, 1, 41, 0
4, 303360, Note_on_c, 1, 34, 127
4, 303622, Note_on_c, 1, 34, 0
4, 303622, End_track
5, 0, Start_track
5, 0, Channel_prefix, 2
5, 0, Title_t, "Clavinet"
5, 0, Instrument_name_t, "CHA  3  "
5, 485, Program_c, 2, 7
5, 487, Control_c, 2, 11, 127
5, 490, Control_c, 2, 7, 80
5, 492, Control_c, 2, 10, 64
5, 495, Control_c, 2, 91, 54
5, 497, Control_c, 2, 93, 0
5, 3840, Note_on_c, 2, 46, 121
5, 4272, Note_on_c, 2, 46, 0
5, 4320, Note_on_c, 2, 44, 115
5, 4427, Note_on_c, 2, 44, 0
5, 5040, Note_on_c, 2, 58, 116
5, 5040, Note_on_c, 2, 60, 111
5, 5040, Note_on_c, 2, 63, 105
5, 5040, Note_on_c, 2, 67, 117
5, 7295, Note_on_c, 2, 58, 0
5, 7307, Note_on_c, 2, 60, 0
5, 7317, Note_on_c, 2, 67, 0
5, 7320, Note_on_c, 2, 63, 0
5, 7680, Note_on_c, 2, 46, 112
5, 8105, Note_on_c, 2, 46, 0
5, 8160, Note_on_c, 2, 44, 109
5, 8257, Note_on_c, 2, 44, 0
5, 8880, Note_on_c, 2, 58, 112
5, 8880, Note_on_c, 2, 60, 109
5, 8880, Note_on_c, 2, 63, 103
5, 8880, Note_on_c, 2, 67, 110
5, 11207, Note_on_c, 2, 58, 0
5, 11217, Note_on_c, 2, 60, 0
5, 11220, Note_on_c, 2, 67, 0
5, 11232, Note_on_c, 2, 63, 0
5, 11520, Note_on_c, 2, 61, 121
5, 11520, Note_on_c, 2, 65, 119
5, 11520, Note_on_c, 2, 68, 110
5, 11520, Note_on_c, 2, 72, 118
5, 12540, Note_on_c, 2, 72, 0
5, 12545, Note_on_c, 2, 68, 0
5, 12552, Note_on_c, 2, 65, 0
5, 12557, Note_on_c, 2, 61, 0
5, 12720, Note_on_c, 2, 61, 118
5, 12720, Note_on_c, 2, 65, 118
5, 12720, Note_on_c, 2, 68, 110
5, 12720, Note_on_c, 2, 72, 114
5, 12820, Note_on_c, 2, 61, 0
5, 12820, Note_on_c, 2, 65, 0
5, 12822, Note_on_c, 2, 68, 0
5, 12835, Note_on_c, 2, 72, 0
5, 13200, Note_on_c, 2, 63, 113
5, 13200, Note_on_c, 2, 67, 117
5, 13200, Note_on_c, 2, 70, 110
5, 13200, Note_on_c, 2, 72, 113
5, 14520, Note_on_c, 2, 63, 0
5, 14520, Note_on_c, 2, 67, 0
5, 14522, Note_on_c, 2, 70, 0
5, 14527, Note_on_c, 2, 72, 0
5, 14640, Note_on_c, 2, 63, 112
5, 14640, Note_on_c, 2, 67, 118
5, 14640, Note_on_c, 2, 70, 109
5, 14640, Note_on_c, 2, 72, 110
5, 14710, Note_on_c, 2, 63, 0
5, 14710, Note_on_c, 2, 70, 0
5, 14712, Note_on_c, 2, 67, 0
5, 14727, Note_on_c, 2, 72, 0
5, 15120, Note_on_c, 2, 63, 98
5, 15120, Note_on_c, 2, 67, 108
5, 15120, Note_on_c, 2, 70, 102
5, 15120, Note_on_c, 2, 72, 102
5, 15175, Note_on_c, 2, 70, 0
5, 15177, Note_on_c, 2, 63, 0
5, 15190, Note_on_c, 2, 67, 0
5, 15197, Note_on_c, 2, 72, 0
5, 15360, Note_on_c, 2, 61, 123
5, 15360, Note_on_c, 2, 65, 117
5, 15360, Note_on_c, 2, 68, 110
5, 15360, Note_on_c, 2, 72, 119
5, 15432, Note_on_c, 2, 61, 0
5, 15460, Note_on_c, 2, 68, 0
5, 15467, Note_on_c, 2, 65, 0
5, 15467, Note_on_c, 2, 72, 0
5, 15840, Note_on_c, 2, 61, 125
5, 15840, Note_on_c, 2, 65, 117
5, 15840, Note_on_c, 2, 68, 110
5, 15840, Note_on_c, 2, 72, 117
5, 16425, Note_on_c, 2, 72, 0
5, 16435, Note_on_c, 2, 61, 0
5, 16437, Note_on_c, 2, 65, 0
5, 16440, Note_on_c, 2, 68, 0
5, 16560, Note_on_c, 2, 61, 116
5, 16560, Note_on_c, 2, 65, 118
5, 16560, Note_on_c, 2, 68, 113
5, 16560, Note_on_c, 2, 72, 115
5, 16625, Note_on_c, 2, 61, 0
5, 16642, Note_on_c, 2, 65, 0
5, 16650, Note_on_c, 2, 68, 0
5, 16657, Note_on_c, 2, 72, 0
5, 17040, Note_on_c, 2, 63, 115
5, 17040, Note_on_c, 2, 67, 119
5, 17040, Note_on_c, 2, 70, 112
5, 17040, Note_on_c, 2, 72, 113
5, 18342, Note_on_c, 2, 67, 0
5, 18347, Note_on_c, 2, 72, 0
5, 18350, Note_on_c, 2, 63, 0
5, 18350, Note_on_c, 2, 70, 0
5, 18480, Note_on_c, 2, 63, 85
5, 18480, Note_on_c, 2, 67, 89
5, 18480, Note_on_c, 2, 70, 87
5, 18480, Note_on_c, 2, 72, 77
5, 18562, Note_on_c, 2, 72, 0
5, 18565, Note_on_c, 2, 67, 0
5, 18565, Note_on_c, 2, 70, 0
5, 18580, Note_on_c, 2, 63, 0
5, 18720, Note_on_c, 2, 63, 115
5, 18720, Note_on_c, 2, 67, 119
5, 18720, Note_on_c, 2, 70, 108
5, 18720, Note_on_c, 2, 72, 118
5, 19025, Note_on_c, 2, 70, 0
5, 19032, Note_on_c, 2, 63, 0
5, 19035, Note_on_c, 2, 67, 0
5, 19035, Note_on_c, 2, 72, 0
5, 19200, Note_on_c, 2, 61, 121
5, 19200, Note_on_c, 2, 65, 119
5, 19200, Note_on_c, 2, 68, 110
5, 19200, Note_on_c, 2, 72, 118
5, 20220, Note_on_c, 2, 72, 0
5, 20225, Note_on_c, 2, 68, 0
5, 20232, Note_on_c, 2, 65, 0
5, 20237, Note_on_c, 2, 61, 0
5, 20400, Note_on_c, 2, 61, 118
5, 20400, Note_on_c, 2, 65, 118
5, 20400, Note_on_c, 2, 68, 110
5, 20400, Note_on_c, 2, 72, 114
5, 20500, Note_on_c, 2, 61, 0
5, 20500, Note_on_c, 2, 65, 0
5, 20502, Note_on_c, 2, 68, 0
5, 20515, Note_on_c, 2, 72, 0
5, 20880, Note_on_c, 2, 63, 113
5, 20880, Note_on_c, 2, 67, 117
5, 20880, Note_on_c, 2, 70, 110
5, 20880, Note_on_c, 2, 72, 113
5, 22200, Note_on_c, 2, 63, 0
5, 22200, Note_on_c, 2, 67, 0
5, 22202, Note_on_c, 2, 70, 0
5, 22207, Note_on_c, 2, 72, 0
5, 22320, Note_on_c, 2, 63, 112
5, 22320, Note_on_c, 2, 67, 118
5, 22320, Note_on_c, 2, 70, 109
5, 22320, Note_on_c, 2, 72, 110
5, 22390, Note_on_c, 2, 63, 0
5, 22390, Note_on_c, 2, 70, 0
5, 22392, Note_on_c, 2, 67, 0
5, 22407, Note_on_c, 2, 72, 0
5, 22800, Note_on_c, 2, 63, 98
5, 22800, Note_on_c, 2, 67, 108
5, 22800, Note_on_c, 2, 70, 102
5, 22800, Note_on_c, 2, 72, 102
5, 22855, Note_on_c, 2, 70, 0
5, 22857, Note_on_c, 2, 63, 0
5, 22870, Note_on_c, 2, 67, 0
5, 22877, Note_on_c, 2, 72, 0
5, 23040, Note_on_c, 2, 61, 123
5, 23040, Note_on_c, 2, 65, 117
5, 23040, Note_on_c, 2, 68, 110
5, 23040, Note_on_c, 2, 72, 119
5, 23112, Note_on_c, 2, 61, 0
5, 23140, Note_on_c, 2, 68, 0
5, 23147, Note_on_c, 2, 65, 0
5, 23147, Note_on_c, 2, 72, 0
5, 23520, Note_on_c, 2, 61, 125
5, 23520, Note_on_c, 2, 65, 117
5, 23520, Note_on_c, 2, 68, 110
5, 23520, Note_on_c, 2, 72, 117
5, 24105, Note_on_c, 2, 72, 0
5, 24115, Note_on_c, 2, 61, 0
5, 24117, Note_on_c, 2, 65, 0
5, 24120, Note_on_c, 2, 68, 0
5, 24240, Note_on_c, 2, 61, 116
5, 24240, Note_on_c, 2, 65, 118
5, 24240, Note_on_c, 2, 68, 113
5, 24240, Note_on_c, 2, 72, 115
5, 24305, Note_on_c, 2, 61, 0
5, 24322, Note_on_c, 2, 65, 0
5, 24330, Note_on_c, 2, 68, 0
5, 24337, Note_on_c, 2, 72, 0
5, 24720, Note_on_c, 2, 63, 115
5, 24720, Note_on_c, 2, 67, 119
5, 24720, Note_on_c, 2, 70, 112
5, 24720, Note_on_c, 2, 72, 113
5, 26022, Note_on_c, 2, 67, 0
5, 26027, Note_on_c, 2, 72, 0
5, 26030, Note_on_c, 2, 63, 0
5, 26030, Note_on_c, 2, 70, 0
5, 26160, Note_on_c, 2, 63, 85
5, 26160, Note_on_c, 2, 67, 89
5, 26160, Note_on_c, 2, 70, 87
5, 26160, Note_on_c, 2, 72, 77
5, 26242, Note_on_c, 2, 72, 0
5, 26245, Note_on_c, 2, 67, 0
5, 26245, Note_on_c, 2, 70, 0
5, 26260, Note_on_c, 2, 63, 0
5, 26400, Note_on_c, 2, 63, 115
5, 26400, Note_on_c, 2, 67, 119
5, 26400, Note_on_c, 2, 70, 108
5, 26400, Note_on_c, 2, 72, 118
5, 26705, Note_on_c, 2, 70, 0
5, 26712, Note_on_c, 2, 63, 0
5, 26715, Note_on_c, 2, 67, 0
5, 26715, Note_on_c, 2, 72, 0
5, 26880, Note_on_c, 2, 61, 121
5, 26880, Note_on_c, 2, 65, 119
5, 26880, Note_on_c, 2, 68, 110
5, 26880, Note_on_c, 2, 72, 118
5, 27900, Note_on_c, 2, 72, 0
5, 27905, Note_on_c, 2, 68, 0
5, 27912, Note_on_c, 2, 65, 0
5, 27917, Note_on_c, 2, 61, 0
5, 28080, Note_on_c, 2, 61, 118
5, 28080, Note_on_c, 2, 65, 118
5, 28080, Note_on_c, 2, 68, 110
5, 28080, Note_on_c, 2, 72, 114
5, 28180, Note_on_c, 2, 61, 0
5, 28180, Note_on_c, 2, 65, 0
5, 28182, Note_on_c, 2, 68, 0
5, 28195, Note_on_c, 2, 72, 0
5, 28560, Note_on_c, 2, 63, 113
5, 28560, Note_on_c, 2, 67, 117
5, 28560, Note_on_c, 2, 70, 110
5, 28560, Note_on_c, 2, 72, 113
5, 29880, Note_on_c, 2, 63, 0
5, 29880, Note_on_c, 2, 67, 0
5, 29882, Note_on_c, 2, 70, 0
5, 29887, Note_on_c, 2, 72, 0
5, 30000, Note_on_c, 2, 63, 112
5, 30000, Note_on_c, 2, 67, 118
5, 30000, Note_on_c, 2, 70, 109
5, 30000, Note_on_c, 2, 72, 110
5, 30070, Note_on_c, 2, 63, 0
5, 30070, Note_on_c, 2, 70, 0
5, 30072, Note_on_c, 2, 67, 0
5, 30087, Note_on_c, 2, 72, 0
5, 30480, Note_on_c, 2, 63, 98
5, 30480, Note_on_c, 2, 67, 108
5, 30480, Note_on_c, 2, 70, 102
5, 30480, Note_on_c, 2, 72, 102
5, 30535, Note_on_c, 2, 70, 0
5, 30537, Note_on_c, 2, 63, 0
5, 30550, Note_on_c, 2, 67, 0
5, 30557, Note_on_c, 2, 72, 0
5, 30720, Note_on_c, 2, 61, 123
5, 30720, Note_on_c, 2, 65, 117
5, 30720, Note_on_c, 2, 68, 110
5, 30720, Note_on_c, 2, 72, 119
5, 30792, Note_on_c, 2, 61, 0
5, 30820, Note_on_c, 2, 68, 0
5, 30827, Note_on_c, 2, 65, 0
5, 30827, Note_on_c, 2, 72, 0
5, 31200, Note_on_c, 2, 61, 125
5, 31200, Note_on_c, 2, 65, 117
5, 31200, Note_on_c, 2, 68, 110
5, 31200, Note_on_c, 2, 72, 117
5, 31785, Note_on_c, 2, 72, 0
5, 31795, Note_on_c, 2, 61, 0
5, 31797, Note_on_c, 2, 65, 0
5, 31800, Note_on_c, 2, 68, 0
5, 31920, Note_on_c, 2, 61, 116
5, 31920, Note_on_c, 2, 65, 118
5, 31920, Note_on_c, 2, 68, 113
5, 31920, Note_on_c, 2, 72, 115
5, 31985, Note_on_c, 2, 61, 0
5, 32002, Note_on_c, 2, 65, 0
5, 32010, Note_on_c, 2, 68, 0
5, 32017, Note_on_c, 2, 72, 0
5, 32400, Note_on_c, 2, 63, 115
5, 32400, Note_on_c, 2, 67, 119
5, 32400, Note_on_c, 2, 70, 112
5, 32400, Note_on_c, 2, 72, 113
5, 33702, Note_on_c, 2, 67, 0
5, 33707, Note_on_c, 2, 72, 0
5, 33710, Note_on_c, 2, 63, 0
5, 33710, Note_on_c, 2, 70, 0
5, 33840, Note_on_c, 2, 63, 85
5, 33840, Note_on_c, 2, 67, 89
5, 33840, Note_on_c, 2, 70, 87
5, 33840, Note_on_c, 2, 72, 77
5, 33922, Note_on_c, 2, 72, 0
5, 33925, Note_on_c, 2, 67, 0
5, 33925, Note_on_c, 2, 70, 0
5, 33940, Note_on_c, 2, 63, 0
5, 34080, Note_on_c, 2, 63, 115
5, 34080, Note_on_c, 2, 67, 119
5, 34080, Note_on_c, 2, 70, 108
5, 34080, Note_on_c, 2, 72, 118
5, 34385, Note_on_c, 2, 70, 0
5, 34392, Note_on_c, 2, 63, 0
5, 34395, Note_on_c, 2, 67, 0
5, 34395, Note_on_c, 2, 72, 0
5, 34560, Note_on_c, 2, 61, 121
5, 34560, Note_on_c, 2, 65, 119
5, 34560, Note_on_c, 2, 68, 110
5, 34560, Note_on_c, 2, 72, 118
5, 35580, Note_on_c, 2, 72, 0
5, 35585, Note_on_c, 2, 68, 0
5, 35592, Note_on_c, 2, 65, 0
5, 35597, Note_on_c, 2, 61, 0
5, 35760, Note_on_c, 2, 61, 118
5, 35760, Note_on_c, 2, 65, 118
5, 35760, Note_on_c, 2, 68, 110
5, 35760, Note_on_c, 2, 72, 114
5, 35860, Note_on_c, 2, 61, 0
5, 35860, Note_on_c, 2, 65, 0
5, 35862, Note_on_c, 2, 68, 0
5, 35875, Note_on_c, 2, 72, 0
5, 36240, Note_on_c, 2, 63, 113
5, 36240, Note_on_c, 2, 67, 117
5, 36240, Note_on_c, 2, 70, 110
5, 36240, Note_on_c, 2, 72, 113
5, 37560, Note_on_c, 2, 63, 0
5, 37560, Note_on_c, 2, 67, 0
5, 37562, Note_on_c, 2, 70, 0
5, 37567, Note_on_c, 2, 72, 0
5, 37680, Note_on_c, 2, 63, 112
5, 37680, Note_on_c, 2, 67, 118
5, 37680, Note_on_c, 2, 70, 109
5, 37680, Note_on_c, 2, 72, 110
5, 37750, Note_on_c, 2, 63, 0
5, 37750, Note_on_c, 2, 70, 0
5, 37752, Note_on_c, 2, 67, 0
5, 37767, Note_on_c, 2, 72, 0
5, 38160, Note_on_c, 2, 63, 98
5, 38160, Note_on_c, 2, 67, 108
5, 38160, Note_on_c, 2, 70, 102
5, 38160, Note_on_c, 2, 72, 102
5, 38215, Note_on_c, 2, 70, 0
5, 38217, Note_on_c, 2, 63, 0
5, 38230, Note_on_c, 2, 67, 0
5, 38237, Note_on_c, 2, 72, 0
5, 38400, Note_on_c, 2, 61, 123
5, 38400, Note_on_c, 2, 65, 117
5, 38400, Note_on_c, 2, 68, 110
5, 38400, Note_on_c, 2, 72, 119
5, 38472, Note_on_c, 2, 61, 0
5, 38500, Note_on_c, 2, 68, 0
5, 38507, Note_on_c, 2, 65, 0
5, 38507, Note_on_c, 2, 72, 0
5, 38880, Note_on_c, 2, 61, 125
5, 38880, Note_on_c, 2, 65, 117
5, 38880, Note_on_c, 2, 68, 110
5, 38880, Note_on_c, 2, 72, 117
5, 39465, Note_on_c, 2, 72, 0
5, 39475, Note_on_c, 2, 61, 0
5, 39477, Note_on_c, 2, 65, 0
5, 39480, Note_on_c, 2, 68, 0
5, 39600, Note_on_c, 2, 61, 116
5, 39600, Note_on_c, 2, 65, 118
5, 39600, Note_on_c, 2, 68, 113
5, 39600, Note_on_c, 2, 72, 115
5, 39665, Note_on_c, 2, 61, 0
5, 39682, Note_on_c, 2, 65, 0
5, 39690, Note_on_c, 2, 68, 0
5, 39697, Note_on_c, 2, 72, 0
5, 40080, Note_on_c, 2, 63, 115
5, 40080, Note_on_c, 2, 67, 119
5, 40080, Note_on_c, 2, 70, 112
5, 40080, Note_on_c, 2, 72, 113
5, 41382, Note_on_c, 2, 67, 0
5, 41387, Note_on_c, 2, 72, 0
5, 41390, Note_on_c, 2, 63, 0
5, 41390, Note_on_c, 2, 70, 0
5, 41520, Note_on_c, 2, 63, 85
5, 41520, Note_on_c, 2, 67, 89
5, 41520, Note_on_c, 2, 70, 87
5, 41520, Note_on_c, 2, 72, 77
5, 41602, Note_on_c, 2, 72, 0
5, 41605, Note_on_c, 2, 67, 0
5, 41605, Note_on_c, 2, 70, 0
5, 41620, Note_on_c, 2, 63, 0
5, 41760, Note_on_c, 2, 63, 115
5, 41760, Note_on_c, 2, 67, 119
5, 41760, Note_on_c, 2, 70, 108
5, 41760, Note_on_c, 2, 72, 118
5, 42065, Note_on_c, 2, 70, 0
5, 42072, Note_on_c, 2, 63, 0
5, 42075, Note_on_c, 2, 67, 0
5, 42075, Note_on_c, 2, 72, 0
5, 42240, Note_on_c, 2, 61, 121
5, 42240, Note_on_c, 2, 65, 119
5, 42240, Note_on_c, 2, 68, 110
5, 42240, Note_on_c, 2, 72, 118
5, 43260, Note_on_c, 2, 72, 0
5, 43265, Note_on_c, 2, 68, 0
5, 43272, Note_on_c, 2, 65, 0
5, 43277, Note_on_c, 2, 61, 0
5, 43440, Note_on_c, 2, 61, 118
5, 43440, Note_on_c, 2, 65, 118
5, 43440, Note_on_c, 2, 68, 110
5, 43440, Note_on_c, 2, 72, 114
5, 43540, Note_on_c, 2, 61, 0
5, 43540, Note_on_c, 2, 65, 0
5, 43542, Note_on_c, 2, 68, 0
5, 43555, Note_on_c, 2, 72, 0
5, 43920, Note_on_c, 2, 63, 113
5, 43920, Note_on_c, 2, 67, 117
5, 43920, Note_on_c, 2, 70, 110
5, 43920, Note_on_c, 2, 72, 113
5, 45240, Note_on_c, 2, 63, 0
5, 45240, Note_on_c, 2, 67, 0
5, 45242, Note_on_c, 2, 70, 0
5, 45247, Note_on_c, 2, 72, 0
5, 45360, Note_on_c, 2, 63, 112
5, 45360, Note_on_c, 2, 67, 118
5, 45360, Note_on_c, 2, 70, 109
5, 45360, Note_on_c, 2, 72, 110
5, 45430, Note_on_c, 2, 63, 0
5, 45430, Note_on_c, 2, 70, 0
5, 45432, Note_on_c, 2, 67, 0
5, 45447, Note_on_c, 2, 72, 0
5, 45840, Note_on_c, 2, 63, 98
5, 45840, Note_on_c, 2, 67, 108
5, 45840, Note_on_c, 2, 70, 102
5, 45840, Note_on_c, 2, 72, 102
5, 45895, Note_on_c, 2, 70, 0
5, 45897, Note_on_c, 2, 63, 0
5, 45910, Note_on_c, 2, 67, 0
5, 45917, Note_on_c, 2, 72, 0
5, 46080, Note_on_c, 2, 61, 123
5, 46080, Note_on_c, 2, 65, 117
5, 46080, Note_on_c, 2, 68, 110
5, 46080, Note_on_c, 2, 72, 119
5, 46152, Note_on_c, 2, 61, 0
5, 46180, Note_on_c, 2, 68, 0
5, 46187, Note_on_c, 2, 65, 0
5, 46187, Note_on_c, 2, 72, 0
5, 46560, Note_on_c, 2, 61, 125
5, 46560, Note_on_c, 2, 65, 117
5, 46560, Note_on_c, 2, 68, 110
5, 46560, Note_on_c, 2, 72, 117
5, 47145, Note_on_c, 2, 72, 0
5, 47155, Note_on_c, 2, 61, 0
5, 47157, Note_on_c, 2, 65, 0
5, 47160, Note_on_c, 2, 68, 0
5, 47280, Note_on_c, 2, 61, 116
5, 47280, Note_on_c, 2, 65, 118
5, 47280, Note_on_c, 2, 68, 113
5, 47280, Note_on_c, 2, 72, 115
5, 47345, Note_on_c, 2, 61, 0
5, 47362, Note_on_c, 2, 65, 0
5, 47370, Note_on_c, 2, 68, 0
5, 47377, Note_on_c, 2, 72, 0
5, 47760, Note_on_c, 2, 63, 115
5, 47760, Note_on_c, 2, 67, 119
5, 47760, Note_on_c, 2, 70, 112
5, 47760, Note_on_c, 2, 72, 113
5, 49062, Note_on_c, 2, 67, 0
5, 49067, Note_on_c, 2, 72, 0
5, 49070, Note_on_c, 2, 63, 0
5, 49070, Note_on_c, 2, 70, 0
5, 49200, Note_on_c, 2, 63, 85
5, 49200, Note_on_c, 2, 67, 89
5, 49200, Note_on_c, 2, 70, 87
5, 49200, Note_on_c, 2, 72, 77
5, 49282, Note_on_c, 2, 72, 0
5, 49285, Note_on_c, 2, 67, 0
5, 49285, Note_on_c, 2, 70, 0
5, 49300, Note_on_c, 2, 63, 0
5, 49440, Note_on_c, 2, 63, 115
5, 49440, Note_on_c, 2, 67, 119
5, 49440, Note_on_c, 2, 70, 108
5, 49440, Note_on_c, 2, 72, 118
5, 49745, Note_on_c, 2, 70, 0
5, 49752, Note_on_c, 2, 63, 0
5, 49755, Note_on_c, 2, 67, 0
5, 49755, Note_on_c, 2, 72, 0
5, 49920, Note_on_c, 2, 61, 121
5, 49920, Note_on_c, 2, 65, 119
5, 49920, Note_on_c, 2, 68, 110
5, 49920, Note_on_c, 2, 72, 118
5, 50940, Note_on_c, 2, 72, 0
5, 50945, Note_on_c, 2, 68, 0
5, 50952, Note_on_c, 2, 65, 0
5, 50957, Note_on_c, 2, 61, 0
5, 51120, Note_on_c, 2, 61, 118
5, 51120, Note_on_c, 2, 65, 118
5, 51120, Note_on_c, 2, 68, 110
5, 51120, Note_on_c, 2, 72, 114
5, 51220, Note_on_c, 2, 61, 0
5, 51220, Note_on_c, 2, 65, 0
5, 51222, Note_on_c, 2, 68, 0
5, 51235, Note_on_c, 2, 72, 0
5, 51600, Note_on_c, 2, 63, 113
5, 51600, Note_on_c, 2, 67, 117
5, 51600, Note_on_c, 2, 70, 110
5, 51600, Note_on_c, 2, 72, 113
5, 52920, Note_on_c, 2, 63, 0
5, 52920, Note_on_c, 2, 67, 0
5, 52922, Note_on_c, 2, 70, 0
5, 52927, Note_on_c, 2, 72, 0
5, 53040, Note_on_c, 2, 63, 112
5, 53040, Note_on_c, 2, 67, 118
5, 53040, Note_on_c, 2, 70, 109
5, 53040, Note_on_c, 2, 72, 110
5, 53110, Note_on_c, 2, 63, 0
5, 53110, Note_on_c, 2, 70, 0
5, 53112, Note_on_c, 2, 67, 0
5, 53127, Note_on_c, 2, 72, 0
5, 53520, Note_on_c, 2, 63, 98
5, 53520, Note_on_c, 2, 67, 108
5, 53520, Note_on_c, 2, 70, 102
5, 53520, Note_on_c, 2, 72, 102
5, 53575, Note_on_c, 2, 70, 0
5, 53577, Note_on_c, 2, 63, 0
5, 53590, Note_on_c, 2, 67, 0
5, 53597, Note_on_c, 2, 72, 0
5, 53760, Note_on_c, 2, 61, 123
5, 53760, Note_on_c, 2, 65, 117
5, 53760, Note_on_c, 2, 68, 110
5, 53760, Note_on_c, 2, 72, 119
5, 53832, Note_on_c, 2, 61, 0
5, 53860, Note_on_c, 2, 68, 0
5, 53867, Note_on_c, 2, 65, 0
5, 53867, Note_on_c, 2, 72, 0
5, 54240, Note_on_c, 2, 61, 125
5, 54240, Note_on_c, 2, 65, 117
5, 54240, Note_on_c, 2, 68, 110
5, 54240, Note_on_c, 2, 72, 117
5, 54825, Note_on_c, 2, 72, 0
5, 54835, Note_on_c, 2, 61, 0
5, 54837, Note_on_c, 2, 65, 0
5, 54840, Note_on_c, 2, 68, 0
5, 54960, Note_on_c, 2, 61, 116
5, 54960, Note_on_c, 2, 65, 118
5, 54960, Note_on_c, 2, 68, 113
5, 54960, Note_on_c, 2, 72, 115
5, 55025, Note_on_c, 2, 61, 0
5, 55042, Note_on_c, 2, 65, 0
5, 55050, Note_on_c, 2, 68, 0
5, 55057, Note_on_c, 2, 72, 0
5, 55440, Note_on_c, 2, 63, 115
5, 55440, Note_on_c, 2, 67, 119
5, 55440, Note_on_c, 2, 70, 112
5, 55440, Note_on_c, 2, 72, 113
5, 56742, Note_on_c, 2, 67, 0
5, 56747, Note_on_c, 2, 72, 0
5, 56750, Note_on_c, 2, 63, 0
5, 56750, Note_on_c, 2, 70, 0
5, 56880, Note_on_c, 2, 63, 85
5, 56880, Note_on_c, 2, 67, 89
5, 56880, Note_on_c, 2, 70, 87
5, 56880, Note_on_c, 2, 72, 77
5, 56962, Note_on_c, 2, 72, 0
5, 56965, Note_on_c, 2, 67, 0
5, 56965, Note_on_c, 2, 70, 0
5, 56980, Note_on_c, 2, 63, 0
5, 57120, Note_on_c, 2, 63, 115
5, 57120, Note_on_c, 2, 67, 119
5, 57120, Note_on_c, 2, 70, 108
5, 57120, Note_on_c, 2, 72, 118
5, 57425, Note_on_c, 2, 70, 0
5, 57432, Note_on_c, 2, 63, 0
5, 57435, Note_on_c, 2, 67, 0
5, 57435, Note_on_c, 2, 72, 0
5, 57600, Note_on_c, 2, 61, 121
5, 57600, Note_on_c, 2, 65, 119
5, 57600, Note_on_c, 2, 68, 110
5, 57600, Note_on_c, 2, 72, 118
5, 58620, Note_on_c, 2, 72, 0
5, 58625, Note_on_c, 2, 68, 0
5, 58632, Note_on_c, 2, 65, 0
5, 58637, Note_on_c, 2, 61, 0
5, 58800, Note_on_c, 2, 61, 118
5, 58800, Note_on_c, 2, 65, 118
5, 58800, Note_on_c, 2, 68, 110
5, 58800, Note_on_c, 2, 72, 114
5, 58900, Note_on_c, 2, 61, 0
5, 58900, Note_on_c, 2, 65, 0
5, 58902, Note_on_c, 2, 68, 0
5, 58915, Note_on_c, 2, 72, 0
5, 59280, Note_on_c, 2, 63, 113
5, 59280, Note_on_c, 2, 67, 117
5, 59280, Note_on_c, 2, 70, 110
5, 59280, Note_on_c, 2, 72, 113
5, 60600, Note_on_c, 2, 63, 0
5, 60600, Note_on_c, 2, 67, 0
5, 60602, Note_on_c, 2, 70, 0
5, 60607, Note_on_c, 2, 72, 0
5, 60720, Note_on_c, 2, 63, 112
5, 60720, Note_on_c, 2, 67, 118
5, 60720, Note_on_c, 2, 70, 109
5, 60720, Note_on_c, 2, 72, 110
5, 60790, Note_on_c, 2, 63, 0
5, 60790, Note_on_c, 2, 70, 0
5, 60792, Note_on_c, 2, 67, 0
5, 60807, Note_on_c, 2, 72, 0
5, 61200, Note_on_c, 2, 63, 98
5, 61200, Note_on_c, 2, 67, 108
5, 61200, Note_on_c, 2, 70, 102
5, 61200, Note_on_c, 2, 72, 102
5, 61255, Note_on_c, 2, 70, 0
5, 61257, Note_on_c, 2, 63, 0
5, 61270, Note_on_c, 2, 67, 0
5, 61277, Note_on_c, 2, 72, 0
5, 61440, Note_on_c, 2, 61, 123
5, 61440, Note_on_c, 2, 65, 117
5, 61440, Note_on_c, 2, 68, 110
5, 61440, Note_on_c, 2, 72, 119
5, 61512, Note_on_c, 2, 61, 0
5, 61540, Note_on_c, 2, 68, 0
5, 61547, Note_on_c, 2, 65, 0
5, 61547, Note_on_c, 2, 72, 0
5, 61920, Note_on_c, 2, 61, 125
5, 61920, Note_on_c, 2, 65, 117
5, 61920, Note_on_c, 2, 68, 110
5, 61920, Note_on_c, 2, 72, 117
5, 62505, Note_on_c, 2, 72, 0
5, 62515, Note_on_c, 2, 61, 0
5, 62517, Note_on_c, 2, 65, 0
5, 62520, Note_on_c, 2, 68, 0
5, 62640, Note_on_c, 2, 61, 116
5, 62640, Note_on_c, 2, 65, 118
5, 62640, Note_on_c, 2, 68, 113
5, 62640, Note_on_c, 2, 72, 115
5, 62705, Note_on_c, 2, 61, 0
5, 62722, Note_on_c, 2, 65, 0
5, 62730, Note_on_c, 2, 68, 0
5, 62737, Note_on_c, 2, 72, 0
5, 63120, Note_on_c, 2, 63, 115
5, 63120, Note_on_c, 2, 67, 119
5, 63120, Note_on_c, 2, 70, 112
5, 63120, Note_on_c, 2, 72, 113
5, 64422, Note_on_c, 2, 67, 0
5, 64427, Note_on_c, 2, 72, 0
5, 64430, Note_on_c, 2, 63, 0
5, 64430, Note_on_c, 2, 70, 0
5, 64560, Note_on_c, 2, 63, 85
5, 64560, Note_on_c, 2, 67, 89
5, 64560, Note_on_c, 2, 70, 87
5, 64560, Note_on_c, 2, 72, 77
5, 64642, Note_on_c, 2, 72, 0
5, 64645, Note_on_c, 2, 67, 0
5, 64645, Note_on_c, 2, 70, 0
5, 64660, Note_on_c, 2, 63, 0
5, 64800, Note_on_c, 2, 63, 115
5, 64800, Note_on_c, 2, 67, 119
5, 64800, Note_on_c, 2, 70, 108
5, 64800, Note_on_c, 2, 72, 118
5, 65105, Note_on_c, 2, 70, 0
5, 65112, Note_on_c, 2, 63, 0
5, 65115, Note_on_c, 2, 67, 0
5, 65115, Note_on_c, 2, 72, 0
5, 65280, Note_on_c, 2, 61, 121
5, 65280, Note_on_c, 2, 65, 119
5, 65280, Note_on_c, 2, 68, 110
5, 65280, Note_on_c, 2, 72, 118
5, 66300, Note_on_c, 2, 72, 0
5, 66305, Note_on_c, 2, 68, 0
5, 66312, Note_on_c, 2, 65, 0
5, 66317, Note_on_c, 2, 61, 0
5, 66480, Note_on_c, 2, 61, 118
5, 66480, Note_on_c, 2, 65, 118
5, 66480, Note_on_c, 2, 68, 110
5, 66480, Note_on_c, 2, 72, 114
5, 66580, Note_on_c, 2, 61, 0
5, 66580, Note_on_c, 2, 65, 0
5, 66582, Note_on_c, 2, 68, 0
5, 66595, Note_on_c, 2, 72, 0
5, 66960, Note_on_c, 2, 63, 113
5, 66960, Note_on_c, 2, 67, 117
5, 66960, Note_on_c, 2, 70, 110
5, 66960, Note_on_c, 2, 72, 113
5, 68280, Note_on_c, 2, 63, 0
5, 68280, Note_on_c, 2, 67, 0
5, 68282, Note_on_c, 2, 70, 0
5, 68287, Note_on_c, 2, 72, 0
5, 68400, Note_on_c, 2, 63, 112
5, 68400, Note_on_c, 2, 67, 118
5, 68400, Note_on_c, 2, 70, 109
5, 68400, Note_on_c, 2, 72, 110
5, 68470, Note_on_c, 2, 63, 0
5, 68470, Note_on_c, 2, 70, 0
5, 68472, Note_on_c, 2, 67, 0
5, 68487, Note_on_c, 2, 72, 0
5, 68880, Note_on_c, 2, 63, 98
5, 68880, Note_on_c, 2, 67, 108
5, 68880, Note_on_c, 2, 70, 102
5, 68880, Note_on_c, 2, 72, 102
5, 68935, Note_on_c, 2, 70, 0
5, 68937, Note_on_c, 2, 63, 0
5, 68950, Note_on_c, 2, 67, 0
5, 68957, Note_on_c, 2, 72, 0
5, 69120, Note_on_c, 2, 61, 123
5, 69120, Note_on_c, 2, 65, 117
5, 69120, Note_on_c, 2, 68, 110
5, 69120, Note_on_c, 2, 72, 119
5, 69192, Note_on_c, 2, 61, 0
5, 69220, Note_on_c, 2, 68, 0
5, 69227, Note_on_c, 2, 65, 0
5, 69227, Note_on_c, 2, 72, 0
5, 69600, Note_on_c, 2, 61, 125
5, 69600, Note_on_c, 2, 65, 117
5, 69600, Note_on_c, 2, 68, 110
5, 69600, Note_on_c, 2, 72, 117
5, 70185, Note_on_c, 2, 72, 0
5, 70195, Note_on_c, 2, 61, 0
5, 70197, Note_on_c, 2, 65, 0
5, 70200, Note_on_c, 2, 68, 0
5, 70320, Note_on_c, 2, 61, 116
5, 70320, Note_on_c, 2, 65, 118
5, 70320, Note_on_c, 2, 68, 113
5, 70320, Note_on_c, 2, 72, 115
5, 70385, Note_on_c, 2, 61, 0
5, 70402, Note_on_c, 2, 65, 0
5, 70410, Note_on_c, 2, 68, 0
5, 70417, Note_on_c, 2, 72, 0
5, 70800, Note_on_c, 2, 63, 115
5, 70800, Note_on_c, 2, 67, 119
5, 70800, Note_on_c, 2, 70, 112
5, 70800, Note_on_c, 2, 72, 113
5, 72102, Note_on_c, 2, 67, 0
5, 72107, Note_on_c, 2, 72, 0
5, 72110, Note_on_c, 2, 63, 0
5, 72110, Note_on_c, 2, 70, 0
5, 72240, Note_on_c, 2, 63, 85
5, 72240, Note_on_c, 2, 67, 89
5, 72240, Note_on_c, 2, 70, 87
5, 72240, Note_on_c, 2, 72, 77
5, 72322, Note_on_c, 2, 72, 0
5, 72325, Note_on_c, 2, 67, 0
5, 72325, Note_on_c, 2, 70, 0
5, 72340, Note_on_c, 2, 63, 0
5, 72480, Note_on_c, 2, 63, 115
5, 72480, Note_on_c, 2, 67, 119
5, 72480, Note_on_c, 2, 70, 108
5, 72480, Note_on_c, 2, 72, 118
5, 72785, Note_on_c, 2, 70, 0
5, 72792, Note_on_c, 2, 63, 0
5, 72795, Note_on_c, 2, 67, 0
5, 72795, Note_on_c, 2, 72, 0
5, 72960, Note_on_c, 2, 61, 121
5, 72960, Note_on_c, 2, 65, 119
5, 72960, Note_on_c, 2, 68, 110
5, 72960, Note_on_c, 2, 72, 118
5, 73980, Note_on_c, 2, 72, 0
5, 73985, Note_on_c, 2, 68, 0
5, 73992, Note_on_c, 2, 65, 0
5, 73997, Note_on_c, 2, 61, 0
5, 74160, Note_on_c, 2, 61, 118
5, 74160, Note_on_c, 2, 65, 118
5, 74160, Note_on_c, 2, 68, 110
5, 74160, Note_on_c, 2, 72, 114
5, 74260, Note_on_c, 2, 61, 0
5, 74260, Note_on_c, 2, 65, 0
5, 74262, Note_on_c, 2, 68, 0
5, 74275, Note_on_c, 2, 72, 0
5, 74640, Note_on_c, 2, 63, 113
5, 74640, Note_on_c, 2, 67, 117
5, 74640, Note_on_c, 2, 70, 110
5, 74640, Note_on_c, 2, 72, 113
5, 75960, Note_on_c, 2, 63, 0
5, 75960, Note_on_c, 2, 67, 0
5, 75962, Note_on_c, 2, 70, 0
5, 75967, Note_on_c, 2, 72, 0
5, 76080, Note_on_c, 2, 63, 112
5, 76080, Note_on_c, 2, 67, 118
5, 76080, Note_on_c, 2, 70, 109
5, 76080, Note_on_c, 2, 72, 110
5, 76150, Note_on_c, 2, 63, 0
5, 76150, Note_on_c, 2, 70, 0
5, 76152, Note_on_c, 2, 67, 0
5, 76167, Note_on_c, 2, 72, 0
5, 76560, Note_on_c, 2, 63, 98
5, 76560, Note_on_c, 2, 67, 108
5, 76560, Note_on_c, 2, 70, 102
5, 76560, Note_on_c, 2, 72, 102
5, 76615, Note_on_c, 2, 70, 0
5, 76617, Note_on_c, 2, 63, 0
5, 76630, Note_on_c, 2, 67, 0
5, 76637, Note_on_c, 2, 72, 0
5, 76800, Note_on_c, 2, 61, 123
5, 76800, Note_on_c, 2, 65, 117
5, 76800, Note_on_c, 2, 68, 110
5, 76800, Note_on_c, 2, 72, 119
5, 76872, Note_on_c, 2, 61, 0
5, 76900, Note_on_c, 2, 68, 0
5, 76907, Note_on_c, 2, 65, 0
5, 76907, Note_on_c, 2, 72, 0
5, 77280, Note_on_c, 2, 61, 125
5, 77280, Note_on_c, 2, 65, 117
5, 77280, Note_on_c, 2, 68, 110
5, 77280, Note_on_c, 2, 72, 117
5, 77865, Note_on_c, 2, 72, 0
5, 77875, Note_on_c, 2, 61, 0
5, 77877, Note_on_c, 2, 65, 0
5, 77880, Note_on_c, 2, 68, 0
5, 78000, Note_on_c, 2, 61, 116
5, 78000, Note_on_c, 2, 65, 118
5, 78000, Note_on_c, 2, 68, 113
5, 78000, Note_on_c, 2, 72, 115
5, 78065, Note_on_c, 2, 61, 0
5, 78082, Note_on_c, 2, 65, 0
5, 78090, Note_on_c, 2, 68, 0
5, 78097, Note_on_c, 2, 72, 0
5, 78480, Note_on_c, 2, 63, 115
5, 78480, Note_on_c, 2, 67, 119
5, 78480, Note_on_c, 2, 70, 112
5, 78480, Note_on_c, 2, 72, 113
5, 79782, Note_on_c, 2, 67, 0
5, 79787, Note_on_c, 2, 72, 0
5, 79790, Note_on_c, 2, 63, 0
5, 79790, Note_on_c, 2, 70, 0
5, 79920, Note_on_c, 2, 63, 85
5, 79920, Note_on_c, 2, 67, 89
5, 79920, Note_on_c, 2, 70, 87
5, 79920, Note_on_c, 2, 72, 77
5, 80002, Note_on_c, 2, 72, 0
5, 80005, Note_on_c, 2, 67, 0
5, 80005, Note_on_c, 2, 70, 0
5, 80020, Note_on_c, 2, 63, 0
5, 80160, Note_on_c, 2, 63, 115
5, 80160, Note_on_c, 2, 67, 119
5, 80160, Note_on_c, 2, 70, 108
5, 80160, Note_on_c, 2, 72, 118
5, 80465, Note_on_c, 2, 70, 0
5, 80472, Note_on_c, 2, 63, 0
5, 80475, Note_on_c, 2, 67, 0
5, 80475, Note_on_c, 2, 72, 0
5, 80640, Note_on_c, 2, 61, 121
5, 80640, Note_on_c, 2, 65, 119
5, 80640, Note_on_c, 2, 68, 110
5, 80640, Note_on_c, 2, 72, 118
5, 81660, Note_on_c, 2, 72, 0
5, 81665, Note_on_c, 2, 68, 0
5, 81672, Note_on_c, 2, 65, 0
5, 81677, Note_on_c, 2, 61, 0
5, 81840, Note_on_c, 2, 61, 118
5, 81840, Note_on_c, 2, 65, 118
5, 81840, Note_on_c, 2, 68, 110
5, 81840, Note_on_c, 2, 72, 114
5, 81940, Note_on_c, 2, 61, 0
5, 81940, Note_on_c, 2, 65, 0
5, 81942, Note_on_c, 2, 68, 0
5, 81955, Note_on_c, 2, 72, 0
5, 82320, Note_on_c, 2, 63, 113
5, 82320, Note_on_c, 2, 67, 117
5, 82320, Note_on_c, 2, 70, 110
5, 82320, Note_on_c, 2, 72, 113
5, 83640, Note_on_c, 2, 63, 0
5, 83640, Note_on_c, 2, 67, 0
5, 83642, Note_on_c, 2, 70, 0
5, 83647, Note_on_c, 2, 72, 0
5, 83760, Note_on_c, 2, 63, 112
5, 83760, Note_on_c, 2, 67, 118
5, 83760, Note_on_c, 2, 70, 109
5, 83760, Note_on_c, 2, 72, 110
5, 83830, Note_on_c, 2, 63, 0
5, 83830, Note_on_c, 2, 70, 0
5, 83832, Note_on_c, 2, 67, 0
5, 83847, Note_on_c, 2, 72, 0
5, 84240, Note_on_c, 2, 63, 98
5, 84240, Note_on_c, 2, 67, 108
5, 84240, Note_on_c, 2, 70, 102
5, 84240, Note_on_c, 2, 72, 102
5, 84295, Note_on_c, 2, 70, 0
5, 84297, Note_on_c, 2, 63, 0
5, 84310, Note_on_c, 2, 67, 0
5, 84317, Note_on_c, 2, 72, 0
5, 84480, Note_on_c, 2, 61, 123
5, 84480, Note_on_c, 2, 65, 117
5, 84480, Note_on_c, 2, 68, 110
5, 84480, Note_on_c, 2, 72, 119
5, 84552, Note_on_c, 2, 61, 0
5, 84580, Note_on_c, 2, 68, 0
5, 84587, Note_on_c, 2, 65, 0
5, 84587, Note_on_c, 2, 72, 0
5, 84960, Note_on_c, 2, 61, 125
5, 84960, Note_on_c, 2, 65, 117
5, 84960, Note_on_c, 2, 68, 110
5, 84960, Note_on_c, 2, 72, 117
5, 85545, Note_on_c, 2, 72, 0
5, 85555, Note_on_c, 2, 61, 0
5, 85557, Note_on_c, 2, 65, 0
5, 85560, Note_on_c, 2, 68, 0
5, 85680, Note_on_c, 2, 61, 116
5, 85680, Note_on_c, 2, 65, 118
5, 85680, Note_on_c, 2, 68, 113
5, 85680, Note_on_c, 2, 72, 115
5, 85745, Note_on_c, 2, 61, 0
5, 85762, Note_on_c, 2, 65, 0
5, 85770, Note_on_c, 2, 68, 0
5, 85777, Note_on_c, 2, 72, 0
5, 86160, Note_on_c, 2, 63, 115
5, 86160, Note_on_c, 2, 67, 119
5, 86160, Note_on_c, 2, 70, 112
5, 86160, Note_on_c, 2, 72, 113
5, 87462, Note_on_c, 2, 67, 0
5, 87467, Note_on_c, 2, 72, 0
5, 87470, Note_on_c, 2, 63, 0
5, 87470, Note_on_c, 2, 70, 0
5, 87600, Note_on_c, 2, 63, 85
5, 87600, Note_on_c, 2, 67, 89
5, 87600, Note_on_c, 2, 70, 87
5, 87600, Note_on_c, 2, 72, 77
5, 87682, Note_on_c, 2, 72, 0
5, 87685, Note_on_c, 2, 67, 0
5, 87685, Note_on_c, 2, 70, 0
5, 87700, Note_on_c, 2, 63, 0
5, 87840, Note_on_c, 2, 63, 115
5, 87840, Note_on_c, 2, 67, 119
5, 87840, Note_on_c, 2, 70, 108
5, 87840, Note_on_c, 2, 72, 118
5, 88145, Note_on_c, 2, 70, 0
5, 88152, Note_on_c, 2, 63, 0
5, 88155, Note_on_c, 2, 67, 0
5, 88155, Note_on_c, 2, 72, 0
5, 88320, Note_on_c, 2, 61, 121
5, 88320, Note_on_c, 2, 65, 119
5, 88320, Note_on_c, 2, 68, 110
5, 88320, Note_on_c, 2, 72, 118
5, 89340, Note_on_c, 2, 72, 0
5, 89345, Note_on_c, 2, 68, 0
5, 89352, Note_on_c, 2, 65, 0
5, 89357, Note_on_c, 2, 61, 0
5, 89520, Note_on_c, 2, 61, 118
5, 89520, Note_on_c, 2, 65, 118
5, 89520, Note_on_c, 2, 68, 110
5, 89520, Note_on_c, 2, 72, 114
5, 89620, Note_on_c, 2, 61, 0
5, 89620, Note_on_c, 2, 65, 0
5, 89622, Note_on_c, 2, 68, 0
5, 89635, Note_on_c, 2, 72, 0
5, 90000, Note_on_c, 2, 63, 113
5, 90000, Note_on_c, 2, 67, 117
5, 90000, Note_on_c, 2, 70, 110
5, 90000, Note_on_c, 2, 72, 113
5, 91320, Note_on_c, 2, 63, 0
5, 91320, Note_on_c, 2, 67, 0
5, 91322, Note_on_c, 2, 70, 0
5, 91327, Note_on_c, 2, 72, 0
5, 91440, Note_on_c, 2, 63, 112
5, 91440, Note_on_c, 2, 67, 118
5, 91440, Note_on_c, 2, 70, 109
5, 91440, Note_on_c, 2, 72, 110
5, 91510, Note_on_c, 2, 63, 0
5, 91510, Note_on_c, 2, 70, 0
5, 91512, Note_on_c, 2, 67, 0
5, 91527, Note_on_c, 2, 72, 0
5, 91920, Note_on_c, 2, 63, 98
5, 91920, Note_on_c, 2, 67, 108
5, 91920, Note_on_c, 2, 70, 102
5, 91920, Note_on_c, 2, 72, 102
5, 91975, Note_on_c, 2, 70, 0
5, 91977, Note_on_c, 2, 63, 0
5, 91990, Note_on_c, 2, 67, 0
5, 91997, Note_on_c, 2, 72, 0
5, 92160, Note_on_c, 2, 61, 123
5, 92160, Note_on_c, 2, 65, 117
5, 92160, Note_on_c, 2, 68, 110
5, 92160, Note_on_c, 2, 72, 119
5, 92232, Note_on_c, 2, 61, 0
5, 92260, Note_on_c, 2, 68, 0
5, 92267, Note_on_c, 2, 65, 0
5, 92267, Note_on_c, 2, 72, 0
5, 92640, Note_on_c, 2, 61, 125
5, 92640, Note_on_c, 2, 65, 117
5, 92640, Note_on_c, 2, 68, 110
5, 92640, Note_on_c, 2, 72, 117
5, 93225, Note_on_c, 2, 72, 0
5, 93235, Note_on_c, 2, 61, 0
5, 93237, Note_on_c, 2, 65, 0
5, 93240, Note_on_c, 2, 68, 0
5, 93360, Note_on_c, 2, 61, 116
5, 93360, Note_on_c, 2, 65, 118
5, 93360, Note_on_c, 2, 68, 113
5, 93360, Note_on_c, 2, 72, 115
5, 93425, Note_on_c, 2, 61, 0
5, 93442, Note_on_c, 2, 65, 0
5, 93450, Note_on_c, 2, 68, 0
5, 93457, Note_on_c, 2, 72, 0
5, 93840, Note_on_c, 2, 63, 115
5, 93840, Note_on_c, 2, 67, 119
5, 93840, Note_on_c, 2, 70, 112
5, 93840, Note_on_c, 2, 72, 113
5, 95142, Note_on_c, 2, 67, 0
5, 95147, Note_on_c, 2, 72, 0
5, 95150, Note_on_c, 2, 63, 0
5, 95150, Note_on_c, 2, 70, 0
5, 95280, Note_on_c, 2, 63, 85
5, 95280, Note_on_c, 2, 67, 89
5, 95280, Note_on_c, 2, 70, 87
5, 95280, Note_on_c, 2, 72, 77
5, 95362, Note_on_c, 2, 72, 0
5, 95365, Note_on_c, 2, 67, 0
5, 95365, Note_on_c, 2, 70, 0
5, 95380, Note_on_c, 2, 63, 0
5, 95520, Note_on_c, 2, 63, 115
5, 95520, Note_on_c, 2, 67, 119
5, 95520, Note_on_c, 2, 70, 108
5, 95520, Note_on_c, 2, 72, 118
5, 95825, Note_on_c, 2, 70, 0
5, 95832, Note_on_c, 2, 63, 0
5, 95835, Note_on_c, 2, 67, 0
5, 95835, Note_on_c, 2, 72, 0
5, 96000, Note_on_c, 2, 61, 121
5, 96000, Note_on_c, 2, 65, 119
5, 96000, Note_on_c, 2, 68, 110
5, 96000, Note_on_c, 2, 72, 118
5, 97020, Note_on_c, 2, 72, 0
5, 97025, Note_on_c, 2, 68, 0
5, 97032, Note_on_c, 2, 65, 0
5, 97037, Note_on_c, 2, 61, 0
5, 97200, Note_on_c, 2, 61, 118
5, 97200, Note_on_c, 2, 65, 118
5, 97200, Note_on_c, 2, 68, 110
5, 97200, Note_on_c, 2, 72, 114
5, 97300, Note_on_c, 2, 61, 0
5, 97300, Note_on_c, 2, 65, 0
5, 97302, Note_on_c, 2, 68, 0
5, 97315, Note_on_c, 2, 72, 0
5, 97680, Note_on_c, 2, 63, 113
5, 97680, Note_on_c, 2, 67, 117
5, 97680, Note_on_c, 2, 70, 110
5, 97680, Note_on_c, 2, 72, 113
5, 99000, Note_on_c, 2, 63, 0
5, 99000, Note_on_c, 2, 67, 0
5, 99002, Note_on_c, 2, 70, 0
5, 99007, Note_on_c, 2, 72, 0
5, 99120, Note_on_c, 2, 63, 112
5, 99120, Note_on_c, 2, 67, 118
5, 99120, Note_on_c, 2, 70, 109
5, 99120, Note_on_c, 2, 72, 110
5, 99190, Note_on_c, 2, 63, 0
5, 99190, Note_on_c, 2, 70, 0
5, 99192, Note_on_c, 2, 67, 0
5, 99207, Note_on_c, 2, 72, 0
5, 99600, Note_on_c, 2, 63, 98
5, 99600, Note_on_c, 2, 67, 108
5, 99600, Note_on_c, 2, 70, 102
5, 99600, Note_on_c, 2, 72, 102
5, 99655, Note_on_c, 2, 70, 0
5, 99657, Note_on_c, 2, 63, 0
5, 99670, Note_on_c, 2, 67, 0
5, 99677, Note_on_c, 2, 72, 0
5, 99840, Note_on_c, 2, 61, 123
5, 99840, Note_on_c, 2, 65, 117
5, 99840, Note_on_c, 2, 68, 110
5, 99840, Note_on_c, 2, 72, 119
5, 99912, Note_on_c, 2, 61, 0
5, 99940, Note_on_c, 2, 68, 0
5, 99947, Note_on_c, 2, 65, 0
5, 99947, Note_on_c, 2, 72, 0
5, 100320, Note_on_c, 2, 61, 125
5, 100320, Note_on_c, 2, 65, 117
5, 100320, Note_on_c, 2, 68, 110
5, 100320, Note_on_c, 2, 72, 117
5, 100905, Note_on_c, 2, 72, 0
5, 100915, Note_on_c, 2, 61, 0
5, 100917, Note_on_c, 2, 65, 0
5, 100920, Note_on_c, 2, 68, 0
5, 101040, Note_on_c, 2, 61, 116
5, 101040, Note_on_c, 2, 65, 118
5, 101040, Note_on_c, 2, 68, 113
5, 101040, Note_on_c, 2, 72, 115
5, 101105, Note_on_c, 2, 61, 0
5, 101122, Note_on_c, 2, 65, 0
5, 101130, Note_on_c, 2, 68, 0
5, 101137, Note_on_c, 2, 72, 0
5, 101520, Note_on_c, 2, 63, 115
5, 101520, Note_on_c, 2, 67, 119
5, 101520, Note_on_c, 2, 70, 112
5, 101520, Note_on_c, 2, 72, 113
5, 102822, Note_on_c, 2, 67, 0
5, 102827, Note_on_c, 2, 72, 0
5, 102830, Note_on_c, 2, 63, 0
5, 102830, Note_on_c, 2, 70, 0
5, 102960, Note_on_c, 2, 63, 85
5, 102960, Note_on_c, 2, 67, 89
5, 102960, Note_on_c, 2, 70, 87
5, 102960, Note_on_c, 2, 72, 77
5, 103042, Note_on_c, 2, 72, 0
5, 103045, Note_on_c, 2, 67, 0
5, 103045, Note_on_c, 2, 70, 0
5, 103060, Note_on_c, 2, 63, 0
5, 103200, Note_on_c, 2, 63, 115
5, 103200, Note_on_c, 2, 67, 119
5, 103200, Note_on_c, 2, 70, 108
5, 103200, Note_on_c, 2, 72, 118
5, 103505, Note_on_c, 2, 70, 0
5, 103512, Note_on_c, 2, 63, 0
5, 103515, Note_on_c, 2, 67, 0
5, 103515, Note_on_c, 2, 72, 0
5, 103680, Note_on_c, 2, 61, 121
5, 103680, Note_on_c, 2, 65, 119
5, 103680, Note_on_c, 2, 68, 110
5, 103680, Note_on_c, 2, 72, 118
5, 104700, Note_on_c, 2, 72, 0
5, 104705, Note_on_c, 2, 68, 0
5, 104712, Note_on_c, 2, 65, 0
5, 104717, Note_on_c, 2, 61, 0
5, 104880, Note_on_c, 2, 61, 118
5, 104880, Note_on_c, 2, 65, 118
5, 104880, Note_on_c, 2, 68, 110
5, 104880, Note_on_c, 2, 72, 114
5, 104980, Note_on_c, 2, 61, 0
5, 104980, Note_on_c, 2, 65, 0
5, 104982, Note_on_c, 2, 68, 0
5, 104995, Note_on_c, 2, 72, 0
5, 105360, Note_on_c, 2, 63, 113
5, 105360, Note_on_c, 2, 67, 117
5, 105360, Note_on_c, 2, 70, 110
5, 105360, Note_on_c, 2, 72, 113
5, 106680, Note_on_c, 2, 63, 0
5, 106680, Note_on_c, 2, 67, 0
5, 106682, Note_on_c, 2, 70, 0
5, 106687, Note_on_c, 2, 72, 0
5, 106800, Note_on_c, 2, 63, 112
5, 106800, Note_on_c, 2, 67, 118
5, 106800, Note_on_c, 2, 70, 109
5, 106800, Note_on_c, 2, 72, 110
5, 106870, Note_on_c, 2, 63, 0
5, 106870, Note_on_c, 2, 70, 0
5, 106872, Note_on_c, 2, 67, 0
5, 106887, Note_on_c, 2, 72, 0
5, 107280, Note_on_c, 2, 63, 98
5, 107280, Note_on_c, 2, 67, 108
5, 107280, Note_on_c, 2, 70, 102
5, 107280, Note_on_c, 2, 72, 102
5, 107335, Note_on_c, 2, 70, 0
5, 107337, Note_on_c, 2, 63, 0
5, 107350, Note_on_c, 2, 67, 0
5, 107357, Note_on_c, 2, 72, 0
5, 107520, Note_on_c, 2, 61, 123
5, 107520, Note_on_c, 2, 65, 117
5, 107520, Note_on_c, 2, 68, 110
5, 107520, Note_on_c, 2, 72, 119
5, 107592, Note_on_c, 2, 61, 0
5, 107620, Note_on_c, 2, 68, 0
5, 107627, Note_on_c, 2, 65, 0
5, 107627, Note_on_c, 2, 72, 0
5, 108000, Note_on_c, 2, 61, 125
5, 108000, Note_on_c, 2, 65, 117
5, 108000, Note_on_c, 2, 68, 110
5, 108000, Note_on_c, 2, 72, 117
5, 108585, Note_on_c, 2, 72, 0
5, 108595, Note_on_c, 2, 61, 0
5, 108597, Note_on_c, 2, 65, 0
5, 108600, Note_on_c, 2, 68, 0
5, 108720, Note_on_c, 2, 61, 116
5, 108720, Note_on_c, 2, 65, 118
5, 108720, Note_on_c, 2, 68, 113
5, 108720, Note_on_c, 2, 72, 115
5, 108785, Note_on_c, 2, 61, 0
5, 108802, Note_on_c, 2, 65, 0
5, 108810, Note_on_c, 2, 68, 0
5, 108817, Note_on_c, 2, 72, 0
5, 109200, Note_on_c, 2, 63, 115
5, 109200, Note_on_c, 2, 67, 119
5, 109200, Note_on_c, 2, 70, 112
5, 109200, Note_on_c, 2, 72, 113
5, 110502, Note_on_c, 2, 67, 0
5, 110507, Note_on_c, 2, 72, 0
5, 110510, Note_on_c, 2, 63, 0
5, 110510, Note_on_c, 2, 70, 0
5, 110640, Note_on_c, 2, 63, 85
5, 110640, Note_on_c, 2, 67, 89
5, 110640, Note_on_c, 2, 70, 87
5, 110640, Note_on_c, 2, 72, 77
5, 110722, Note_on_c, 2, 72, 0
5, 110725, Note_on_c, 2, 67, 0
5, 110725, Note_on_c, 2, 70, 0
5, 110740, Note_on_c, 2, 63, 0
5, 110880, Note_on_c, 2, 63, 115
5, 110880, Note_on_c, 2, 67, 119
5, 110880, Note_on_c, 2, 70, 108
5, 110880, Note_on_c, 2, 72, 118
5, 111185, Note_on_c, 2, 70, 0
5, 111192, Note_on_c, 2, 63, 0
5, 111195, Note_on_c, 2, 67, 0
5, 111195, Note_on_c, 2, 72, 0
5, 111360, Note_on_c, 2, 61, 121
5, 111360, Note_on_c, 2, 65, 119
5, 111360, Note_on_c, 2, 68, 110
5, 111360, Note_on_c, 2, 72, 118
5, 112380, Note_on_c, 2, 72, 0
5, 112385, Note_on_c, 2, 68, 0
5, 112392, Note_on_c, 2, 65, 0
5, 112397, Note_on_c, 2, 61, 0
5, 112560, Note_on_c, 2, 61, 118
5, 112560, Note_on_c, 2, 65, 118
5, 112560, Note_on_c, 2, 68, 110
5, 112560, Note_on_c, 2, 72, 114
5, 112660, Note_on_c, 2, 61, 0
5, 112660, Note_on_c, 2, 65, 0
5, 112662, Note_on_c, 2, 68, 0
5, 112675, Note_on_c, 2, 72, 0
5, 113040, Note_on_c, 2, 63, 113
5, 113040, Note_on_c, 2, 67, 117
5, 113040, Note_on_c, 2, 70, 110
5, 113040, Note_on_c, 2, 72, 113
5, 114360, Note_on_c, 2, 63, 0
5, 114360, Note_on_c, 2, 67, 0
5, 114362, Note_on_c, 2, 70, 0
5, 114367, Note_on_c, 2, 72, 0
5, 114480, Note_on_c, 2, 63, 112
5, 114480, Note_on_c, 2, 67, 118
5, 114480, Note_on_c, 2, 70, 109
5, 114480, Note_on_c, 2, 72, 110
5, 114550, Note_on_c, 2, 63, 0
5, 114550, Note_on_c, 2, 70, 0
5, 114552, Note_on_c, 2, 67, 0
5, 114567, Note_on_c, 2, 72, 0
5, 114960, Note_on_c, 2, 63, 98
5, 114960, Note_on_c, 2, 67, 108
5, 114960, Note_on_c, 2, 70, 102
5, 114960, Note_on_c, 2, 72, 102
5, 115015, Note_on_c, 2, 70, 0
5, 115017, Note_on_c, 2, 63, 0
5, 115030, Note_on_c, 2, 67, 0
5, 115037, Note_on_c, 2, 72, 0
5, 115200, Note_on_c, 2, 61, 123
5, 115200, Note_on_c, 2, 65, 117
5, 115200, Note_on_c, 2, 68, 110
5, 115200, Note_on_c, 2, 72, 119
5, 115272, Note_on_c, 2, 61, 0
5, 115300, Note_on_c, 2, 68, 0
5, 115307, Note_on_c, 2, 65, 0
5, 115307, Note_on_c, 2, 72, 0
5, 115680, Note_on_c, 2, 61, 125
5, 115680, Note_on_c, 2, 65, 117
5, 115680, Note_on_c, 2, 68, 110
5, 115680, Note_on_c, 2, 72, 117
5, 116265, Note_on_c, 2, 72, 0
5, 116275, Note_on_c, 2, 61, 0
5, 116277, Note_on_c, 2, 65, 0
5, 116280, Note_on_c, 2, 68, 0
5, 116400, Note_on_c, 2, 61, 116
5, 116400, Note_on_c, 2, 65, 118
5, 116400, Note_on_c, 2, 68, 113
5, 116400, Note_on_c, 2, 72, 115
5, 116465, Note_on_c, 2, 61, 0
5, 116482, Note_on_c, 2, 65, 0
5, 116490, Note_on_c, 2, 68, 0
5, 116497, Note_on_c, 2, 72, 0
5, 116880, Note_on_c, 2, 63, 115
5, 116880, Note_on_c, 2, 67, 119
5, 116880, Note_on_c, 2, 70, 112
5, 116880, Note_on_c, 2, 72, 113
5, 118182, Note_on_c, 2, 67, 0
5, 118187, Note_on_c, 2, 72, 0
5, 118190, Note_on_c, 2, 63, 0
5, 118190, Note_on_c, 2, 70, 0
5, 118320, Note_on_c, 2, 63, 85
5, 118320, Note_on_c, 2, 67, 89
5, 118320, Note_on_c, 2, 70, 87
5, 118320, Note_on_c, 2, 72, 77
5, 118402, Note_on_c, 2, 72, 0
5, 118405, Note_on_c, 2, 67, 0
5, 118405, Note_on_c, 2, 70, 0
5, 118420, Note_on_c, 2, 63, 0
5, 118560, Note_on_c, 2, 63, 115
5, 118560, Note_on_c, 2, 67, 119
5, 118560, Note_on_c, 2, 70, 108
5, 118560, Note_on_c, 2, 72, 118
5, 118865, Note_on_c, 2, 70, 0
5, 118872, Note_on_c, 2, 63, 0
5, 118875, Note_on_c, 2, 67, 0
5, 118875, Note_on_c, 2, 72, 0
5, 119040, Note_on_c, 2, 61, 121
5, 119040, Note_on_c, 2, 65, 119
5, 119040, Note_on_c, 2, 68, 110
5, 119040, Note_on_c, 2, 72, 118
5, 120060, Note_on_c, 2, 72, 0
5, 120065, Note_on_c, 2, 68, 0
5, 120072, Note_on_c, 2, 65, 0
5, 120077, Note_on_c, 2, 61, 0
5, 120240, Note_on_c, 2, 61, 118
5, 120240, Note_on_c, 2, 65, 118
5, 120240, Note_on_c, 2, 68, 110
5, 120240, Note_on_c, 2, 72, 114
5, 120340, Note_on_c, 2, 61, 0
5, 120340, Note_on_c, 2, 65, 0
5, 120342, Note_on_c, 2, 68, 0
5, 120355, Note_on_c, 2, 72, 0
5, 120720, Note_on_c, 2, 63, 113
5, 120720, Note_on_c, 2, 67, 117
5, 120720, Note_on_c, 2, 70, 110
5, 120720, Note_on_c, 2, 72, 113
5, 122040, Note_on_c, 2, 63, 0
5, 122040, Note_on_c, 2, 67, 0
5, 122042, Note_on_c, 2, 70, 0
5, 122047, Note_on_c, 2, 72, 0
5, 122160, Note_on_c, 2, 63, 112
5, 122160, Note_on_c, 2, 67, 118
5, 122160, Note_on_c, 2, 70, 109
5, 122160, Note_on_c, 2, 72, 110
5, 122230, Note_on_c, 2, 63, 0
5, 122230, Note_on_c, 2, 70, 0
5, 122232, Note_on_c, 2, 67, 0
5, 122247, Note_on_c, 2, 72, 0
5, 122640, Note_on_c, 2, 63, 98
5, 122640, Note_on_c, 2, 67, 108
5, 122640, Note_on_c, 2, 70, 102
5, 122640, Note_on_c, 2, 72, 102
5, 122695, Note_on_c, 2, 70, 0
5, 122697, Note_on_c, 2, 63, 0
5, 122710, Note_on_c, 2, 67, 0
5, 122717, Note_on_c, 2, 72, 0
5, 122880, Note_on_c, 2, 61, 123
5, 122880, Note_on_c, 2, 65, 117
5, 122880, Note_on_c, 2, 68, 110
5, 122880, Note_on_c, 2, 72, 119
5, 122952, Note_on_c, 2, 61, 0
5, 122980, Note_on_c, 2, 68, 0
5, 122987, Note_on_c, 2, 65, 0
5, 122987, Note_on_c, 2, 72, 0
5, 123360, Note_on_c, 2, 61, 125
5, 123360, Note_on_c, 2, 65, 117
5, 123360, Note_on_c, 2, 68, 110
5, 123360, Note_on_c, 2, 72, 117
5, 123945, Note_on_c, 2, 72, 0
5, 123955, Note_on_c, 2, 61, 0
5, 123957, Note_on_c, 2, 65, 0
5, 123960, Note_on_c, 2, 68, 0
5, 124080, Note_on_c, 2, 61, 116
5, 124080, Note_on_c, 2, 65, 118
5, 124080, Note_on_c, 2, 68, 113
5, 124080, Note_on_c, 2, 72, 115
5, 124145, Note_on_c, 2, 61, 0
5, 124162, Note_on_c, 2, 65, 0
5, 124170, Note_on_c, 2, 68, 0
5, 124177, Note_on_c, 2, 72, 0
5, 124560, Note_on_c, 2, 63, 115
5, 124560, Note_on_c, 2, 67, 119
5, 124560, Note_on_c, 2, 70, 112
5, 124560, Note_on_c, 2, 72, 113
5, 125862, Note_on_c, 2, 67, 0
5, 125867, Note_on_c, 2, 72, 0
5, 125870, Note_on_c, 2, 63, 0
5, 125870, Note_on_c, 2, 70, 0
5, 126000, Note_on_c, 2, 63, 85
5, 126000, Note_on_c, 2, 67, 89
5, 126000, Note_on_c, 2, 70, 87
5, 126000, Note_on_c, 2, 72, 77
5, 126082, Note_on_c, 2, 72, 0
5, 126085, Note_on_c, 2, 67, 0
5, 126085, Note_on_c, 2, 70, 0
5, 126100, Note_on_c, 2, 63, 0
5, 126240, Note_on_c, 2, 63, 115
5, 126240, Note_on_c, 2, 67, 119
5, 126240, Note_on_c, 2, 70, 108
5, 126240, Note_on_c, 2, 72, 118
5, 126545, Note_on_c, 2, 70, 0
5, 126552, Note_on_c, 2, 63, 0
5, 126555, Note_on_c, 2, 67, 0
5, 126555, Note_on_c, 2, 72, 0
5, 126720, Note_on_c, 2, 61, 121
5, 126720, Note_on_c, 2, 65, 119
5, 126720, Note_on_c, 2, 68, 110
5, 126720, Note_on_c, 2, 72, 118
5, 127740, Note_on_c, 2, 72, 0
5, 127745, Note_on_c, 2, 68, 0
5, 127752, Note_on_c, 2, 65, 0
5, 127757, Note_on_c, 2, 61, 0
5, 127920, Note_on_c, 2, 61, 118
5, 127920, Note_on_c, 2, 65, 118
5, 127920, Note_on_c, 2, 68, 110
5, 127920, Note_on_c, 2, 72, 114
5, 128020, Note_on_c, 2, 61, 0
5, 128020, Note_on_c, 2, 65, 0
5, 128022, Note_on_c, 2, 68, 0
5, 128035, Note_on_c, 2, 72, 0
5, 128400, Note_on_c, 2, 63, 113
5, 128400, Note_on_c, 2, 67, 117
5, 128400, Note_on_c, 2, 70, 110
5, 128400, Note_on_c, 2, 72, 113
5, 129720, Note_on_c, 2, 63, 0
5, 129720, Note_on_c, 2, 67, 0
5, 129722, Note_on_c, 2, 70, 0
5, 129727, Note_on_c, 2, 72, 0
5, 129840, Note_on_c, 2, 63, 112
5, 129840, Note_on_c, 2, 67, 118
5, 129840, Note_on_c, 2, 70, 109
5, 129840, Note_on_c, 2, 72, 110
5, 129910, Note_on_c, 2, 63, 0
5, 129910, Note_on_c, 2, 70, 0
5, 129912, Note_on_c, 2, 67, 0
5, 129927, Note_on_c, 2, 72, 0
5, 130320, Note_on_c, 2, 63, 98
5, 130320, Note_on_c, 2, 67, 108
5, 130320, Note_on_c, 2, 70, 102
5, 130320, Note_on_c, 2, 72, 102
5, 130375, Note_on_c, 2, 70, 0
5, 130377, Note_on_c, 2, 63, 0
5, 130390, Note_on_c, 2, 67, 0
5, 130397, Note_on_c, 2, 72, 0
5, 130560, Note_on_c, 2, 61, 123
5, 130560, Note_on_c, 2, 65, 117
5, 130560, Note_on_c, 2, 68, 110
5, 130560, Note_on_c, 2, 72, 119
5, 130632, Note_on_c, 2, 61, 0
5, 130660, Note_on_c, 2, 68, 0
5, 130667, Note_on_c, 2, 65, 0
5, 130667, Note_on_c, 2, 72, 0
5, 131040, Note_on_c, 2, 61, 125
5, 131040, Note_on_c, 2, 65, 117
5, 131040, Note_on_c, 2, 68, 110
5, 131040, Note_on_c, 2, 72, 117
5, 131625, Note_on_c, 2, 72, 0
5, 131635, Note_on_c, 2, 61, 0
5, 131637, Note_on_c, 2, 65, 0
5, 131640, Note_on_c, 2, 68, 0
5, 131760, Note_on_c, 2, 61, 116
5, 131760, Note_on_c, 2, 65, 118
5, 131760, Note_on_c, 2, 68, 113
5, 131760, Note_on_c, 2, 72, 115
5, 131825, Note_on_c, 2, 61, 0
5, 131842, Note_on_c, 2, 65, 0
5, 131850, Note_on_c, 2, 68, 0
5, 131857, Note_on_c, 2, 72, 0
5, 132240, Note_on_c, 2, 63, 115
5, 132240, Note_on_c, 2, 67, 119
5, 132240, Note_on_c, 2, 70, 112
5, 132240, Note_on_c, 2, 72, 113
5, 133542, Note_on_c, 2, 67, 0
5, 133547, Note_on_c, 2, 72, 0
5, 133550, Note_on_c, 2, 63, 0
5, 133550, Note_on_c, 2, 70, 0
5, 133680, Note_on_c, 2, 63, 85
5, 133680, Note_on_c, 2, 67, 89
5, 133680, Note_on_c, 2, 70, 87
5, 133680, Note_on_c, 2, 72, 77
5, 133762, Note_on_c, 2, 72, 0
5, 133765, Note_on_c, 2, 67, 0
5, 133765, Note_on_c, 2, 70, 0
5, 133780, Note_on_c, 2, 63, 0
5, 133920, Note_on_c, 2, 63, 115
5, 133920, Note_on_c, 2, 67, 119
5, 133920, Note_on_c, 2, 70, 108
5, 133920, Note_on_c, 2, 72, 118
5, 134225, Note_on_c, 2, 70, 0
5, 134232, Note_on_c, 2, 63, 0
5, 134235, Note_on_c, 2, 67, 0
5, 134235, Note_on_c, 2, 72, 0
5, 134400, Note_on_c, 2, 63, 121
5, 134400, Note_on_c, 2, 67, 119
5, 134400, Note_on_c, 2, 70, 110
5, 134400, Note_on_c, 2, 74, 118
5, 135420, Note_on_c, 2, 74, 0
5, 135425, Note_on_c, 2, 70, 0
5, 135432, Note_on_c, 2, 67, 0
5, 135437, Note_on_c, 2, 63, 0
5, 135600, Note_on_c, 2, 63, 118
5, 135600, Note_on_c, 2, 67, 118
5, 135600, Note_on_c, 2, 70, 110
5, 135600, Note_on_c, 2, 74, 114
5, 135700, Note_on_c, 2, 63, 0
5, 135700, Note_on_c, 2, 67, 0
5, 135702, Note_on_c, 2, 70, 0
5, 135715, Note_on_c, 2, 74, 0
5, 136080, Note_on_c, 2, 65, 113
5, 136080, Note_on_c, 2, 69, 117
5, 136080, Note_on_c, 2, 72, 110
5, 136080, Note_on_c, 2, 74, 113
5, 137400, Note_on_c, 2, 65, 0
5, 137400, Note_on_c, 2, 69, 0
5, 137402, Note_on_c, 2, 72, 0
5, 137407, Note_on_c, 2, 74, 0
5, 137520, Note_on_c, 2, 65, 112
5, 137520, Note_on_c, 2, 69, 118
5, 137520, Note_on_c, 2, 72, 109
5, 137520, Note_on_c, 2, 74, 110
5, 137590, Note_on_c, 2, 65, 0
5, 137590, Note_on_c, 2, 72, 0
5, 137592, Note_on_c, 2, 69, 0
5, 137607, Note_on_c, 2, 74, 0
5, 138000, Note_on_c, 2, 65, 98
5, 138000, Note_on_c, 2, 69, 108
5, 138000, Note_on_c, 2, 72, 102
5, 138000, Note_on_c, 2, 74, 102
5, 138055, Note_on_c, 2, 72, 0
5, 138057, Note_on_c, 2, 65, 0
5, 138070, Note_on_c, 2, 69, 0
5, 138077, Note_on_c, 2, 74, 0
5, 138240, Note_on_c, 2, 63, 123
5, 138240, Note_on_c, 2, 67, 117
5, 138240, Note_on_c, 2, 70, 110
5, 138240, Note_on_c, 2, 74, 119
5, 138312, Note_on_c, 2, 63, 0
5, 138340, Note_on_c, 2, 70, 0
5, 138347, Note_on_c, 2, 67, 0
5, 138347, Note_on_c, 2, 74, 0
5, 138720, Note_on_c, 2, 63, 125
5, 138720, Note_on_c, 2, 67, 117
5, 138720, Note_on_c, 2, 70, 110
5, 138720, Note_on_c, 2, 74, 117
5, 139305, Note_on_c, 2, 74, 0
5, 139315, Note_on_c, 2, 63, 0
5, 139317, Note_on_c, 2, 67, 0
5, 139320, Note_on_c, 2, 70, 0
5, 139440, Note_on_c, 2, 63, 116
5, 139440, Note_on_c, 2, 67, 118
5, 139440, Note_on_c, 2, 70, 113
5, 139440, Note_on_c, 2, 74, 115
5, 139505, Note_on_c, 2, 63, 0
5, 139522, Note_on_c, 2, 67, 0
5, 139530, Note_on_c, 2, 70, 0
5, 139537, Note_on_c, 2, 74, 0
5, 139920, Note_on_c, 2, 65, 115
5, 139920, Note_on_c, 2, 69, 119
5, 139920, Note_on_c, 2, 72, 112
5, 139920, Note_on_c, 2, 74, 113
5, 141222, Note_on_c, 2, 69, 0
5, 141227, Note_on_c, 2, 74, 0
5, 141230, Note_on_c, 2, 65, 0
5, 141230, Note_on_c, 2, 72, 0
5, 141360, Note_on_c, 2, 65, 85
5, 141360, Note_on_c, 2, 69, 89
5, 141360, Note_on_c, 2, 72, 87
5, 141360, Note_on_c, 2, 74, 77
5, 141442, Note_on_c, 2, 74, 0
5, 141445, Note_on_c, 2, 69, 0
5, 141445, Note_on_c, 2, 72, 0
5, 141460, Note_on_c, 2, 65, 0
5, 141600, Note_on_c, 2, 65, 115
5, 141600, Note_on_c, 2, 69, 119
5, 141600, Note_on_c, 2, 72, 108
5, 141600, Note_on_c, 2, 74, 118
5, 141905, Note_on_c, 2, 72, 0
5, 141912, Note_on_c, 2, 65, 0
5, 141915, Note_on_c, 2, 69, 0
5, 141915, Note_on_c, 2, 74, 0
5, 142080, Note_on_c, 2, 63, 121
5, 142080, Note_on_c, 2, 67, 119
5, 142080, Note_on_c, 2, 70, 110
5, 142080, Note_on_c, 2, 74, 118
5, 143100, Note_on_c, 2, 74, 0
5, 143105, Note_on_c, 2, 70, 0
5, 143112, Note_on_c, 2, 67, 0
5, 143117, Note_on_c, 2, 63, 0
5, 143280, Note_on_c, 2, 63, 118
5, 143280, Note_on_c, 2, 67, 118
5, 143280, Note_on_c, 2, 70, 110
5, 143280, Note_on_c, 2, 74, 114
5, 143380, Note_on_c, 2, 63, 0
5, 143380, Note_on_c, 2, 67, 0
5, 143382, Note_on_c, 2, 70, 0
5, 143395, Note_on_c, 2, 74, 0
5, 143760, Note_on_c, 2, 65, 113
5, 143760, Note_on_c, 2, 69, 117
5, 143760, Note_on_c, 2, 72, 110
5, 143760, Note_on_c, 2, 74, 113
5, 145080, Note_on_c, 2, 65, 0
5, 145080, Note_on_c, 2, 69, 0
5, 145082, Note_on_c, 2, 72, 0
5, 145087, Note_on_c, 2, 74, 0
5, 145200, Note_on_c, 2, 65, 112
5, 145200, Note_on_c, 2, 69, 118
5, 145200, Note_on_c, 2, 72, 109
5, 145200, Note_on_c, 2, 74, 110
5, 145270, Note_on_c, 2, 65, 0
5, 145270, Note_on_c, 2, 72, 0
5, 145272, Note_on_c, 2, 69, 0
5, 145287, Note_on_c, 2, 74, 0
5, 145680, Note_on_c, 2, 65, 98
5, 145680, Note_on_c, 2, 69, 108
5, 145680, Note_on_c, 2, 72, 102
5, 145680, Note_on_c, 2, 74, 102
5, 145735, Note_on_c, 2, 72, 0
5, 145737, Note_on_c, 2, 65, 0
5, 145750, Note_on_c, 2, 69, 0
5, 145757, Note_on_c, 2, 74, 0
5, 145920, Note_on_c, 2, 63, 123
5, 145920, Note_on_c, 2, 67, 117
5, 145920, Note_on_c, 2, 70, 110
5, 145920, Note_on_c, 2, 74, 119
5, 145992, Note_on_c, 2, 63, 0
5, 146020, Note_on_c, 2, 70, 0
5, 146027, Note_on_c, 2, 67, 0
5, 146027, Note_on_c, 2, 74, 0
5, 146400, Note_on_c, 2, 63, 125
5, 146400, Note_on_c, 2, 67, 117
5, 146400, Note_on_c, 2, 70, 110
5, 146400, Note_on_c, 2, 74, 117
5, 146985, Note_on_c, 2, 74, 0
5, 146995, Note_on_c, 2, 63, 0
5, 146997, Note_on_c, 2, 67, 0
5, 147000, Note_on_c, 2, 70, 0
5, 147120, Note_on_c, 2, 63, 116
5, 147120, Note_on_c, 2, 67, 118
5, 147120, Note_on_c, 2, 70, 113
5, 147120, Note_on_c, 2, 74, 115
5, 147185, Note_on_c, 2, 63, 0
5, 147202, Note_on_c, 2, 67, 0
5, 147210, Note_on_c, 2, 70, 0
5, 147217, Note_on_c, 2, 74, 0
5, 147600, Note_on_c, 2, 65, 115
5, 147600, Note_on_c, 2, 69, 119
5, 147600, Note_on_c, 2, 72, 112
5, 147600, Note_on_c, 2, 74, 113
5, 148020, Note_on_c, 2, 65, 0
5, 148080, Note_on_c, 2, 69, 0
5, 148080, Note_on_c, 2, 69, 109
5, 148080, Note_on_c, 2, 72, 0
5, 148080, Note_on_c, 2, 74, 0
5, 148080, Note_on_c, 2, 74, 107
5, 148162, Note_on_c, 2, 74, 0
5, 148182, Note_on_c, 2, 69, 0
5, 148320, Note_on_c, 2, 68, 112
5, 148320, Note_on_c, 2, 73, 106
5, 148392, Note_on_c, 2, 68, 0
5, 148410, Note_on_c, 2, 73, 0
5, 148440, Note_on_c, 2, 67, 91
5, 148440, Note_on_c, 2, 72, 99
5, 148535, Note_on_c, 2, 67, 0
5, 148557, Note_on_c, 2, 72, 0
5, 148800, Note_on_c, 2, 69, 109
5, 148800, Note_on_c, 2, 74, 99
5, 148880, Note_on_c, 2, 69, 0
5, 148887, Note_on_c, 2, 74, 0
5, 149040, Note_on_c, 2, 68, 106
5, 149040, Note_on_c, 2, 73, 109
5, 149117, Note_on_c, 2, 68, 0
5, 149130, Note_on_c, 2, 73, 0
5, 149160, Note_on_c, 2, 67, 98
5, 149160, Note_on_c, 2, 72, 93
5, 149275, Note_on_c, 2, 67, 0
5, 149275, Note_on_c, 2, 72, 0
5, 149520, Note_on_c, 2, 67, 119
5, 149520, Note_on_c, 2, 72, 111
5, 149587, Note_on_c, 2, 67, 0
5, 149600, Note_on_c, 2, 72, 0
5, 149760, Note_on_c, 2, 61, 121
5, 149760, Note_on_c, 2, 65, 119
5, 149760, Note_on_c, 2, 68, 110
5, 149760, Note_on_c, 2, 72, 118
5, 150780, Note_on_c, 2, 72, 0
5, 150785, Note_on_c, 2, 68, 0
5, 150792, Note_on_c, 2, 65, 0
5, 150797, Note_on_c, 2, 61, 0
5, 150960, Note_on_c, 2, 61, 118
5, 150960, Note_on_c, 2, 65, 118
5, 150960, Note_on_c, 2, 68, 110
5, 150960, Note_on_c, 2, 72, 114
5, 151060, Note_on_c, 2, 61, 0
5, 151060, Note_on_c, 2, 65, 0
5, 151062, Note_on_c, 2, 68, 0
5, 151075, Note_on_c, 2, 72, 0
5, 151440, Note_on_c, 2, 63, 113
5, 151440, Note_on_c, 2, 67, 117
5, 151440, Note_on_c, 2, 70, 110
5, 151440, Note_on_c, 2, 72, 113
5, 152760, Note_on_c, 2, 63, 0
5, 152760, Note_on_c, 2, 67, 0
5, 152762, Note_on_c, 2, 70, 0
5, 152767, Note_on_c, 2, 72, 0
5, 152880, Note_on_c, 2, 63, 112
5, 152880, Note_on_c, 2, 67, 118
5, 152880, Note_on_c, 2, 70, 109
5, 152880, Note_on_c, 2, 72, 110
5, 152950, Note_on_c, 2, 63, 0
5, 152950, Note_on_c, 2, 70, 0
5, 152952, Note_on_c, 2, 67, 0
5, 152967, Note_on_c, 2, 72, 0
5, 153360, Note_on_c, 2, 63, 98
5, 153360, Note_on_c, 2, 67, 108
5, 153360, Note_on_c, 2, 70, 102
5, 153360, Note_on_c, 2, 72, 102
5, 153415, Note_on_c, 2, 70, 0
5, 153417, Note_on_c, 2, 63, 0
5, 153430, Note_on_c, 2, 67, 0
5, 153437, Note_on_c, 2, 72, 0
5, 153600, Note_on_c, 2, 61, 123
5, 153600, Note_on_c, 2, 65, 117
5, 153600, Note_on_c, 2, 68, 110
5, 153600, Note_on_c, 2, 72, 119
5, 153672, Note_on_c, 2, 61, 0
5, 153700, Note_on_c, 2, 68, 0
5, 153707, Note_on_c, 2, 65, 0
5, 153707, Note_on_c, 2, 72, 0
5, 154080, Note_on_c, 2, 61, 125
5, 154080, Note_on_c, 2, 65, 117
5, 154080, Note_on_c, 2, 68, 110
5, 154080, Note_on_c, 2, 72, 117
5, 154665, Note_on_c, 2, 72, 0
5, 154675, Note_on_c, 2, 61, 0
5, 154677, Note_on_c, 2, 65, 0
5, 154680, Note_on_c, 2, 68, 0
5, 154800, Note_on_c, 2, 61, 116
5, 154800, Note_on_c, 2, 65, 118
5, 154800, Note_on_c, 2, 68, 113
5, 154800, Note_on_c, 2, 72, 115
5, 154865, Note_on_c, 2, 61, 0
5, 154882, Note_on_c, 2, 65, 0
5, 154890, Note_on_c, 2, 68, 0
5, 154897, Note_on_c, 2, 72, 0
5, 155280, Note_on_c, 2, 63, 115
5, 155280, Note_on_c, 2, 67, 119
5, 155280, Note_on_c, 2, 70, 112
5, 155280, Note_on_c, 2, 72, 113
5, 156582, Note_on_c, 2, 67, 0
5, 156587, Note_on_c, 2, 72, 0
5, 156590, Note_on_c, 2, 63, 0
5, 156590, Note_on_c, 2, 70, 0
5, 156720, Note_on_c, 2, 63, 85
5, 156720, Note_on_c, 2, 67, 89
5, 156720, Note_on_c, 2, 70, 87
5, 156720, Note_on_c, 2, 72, 77
5, 156802, Note_on_c, 2, 72, 0
5, 156805, Note_on_c, 2, 67, 0
5, 156805, Note_on_c, 2, 70, 0
5, 156820, Note_on_c, 2, 63, 0
5, 156960, Note_on_c, 2, 63, 115
5, 156960, Note_on_c, 2, 67, 119
5, 156960, Note_on_c, 2, 70, 108
5, 156960, Note_on_c, 2, 72, 118
5, 157265, Note_on_c, 2, 70, 0
5, 157272, Note_on_c, 2, 63, 0
5, 157275, Note_on_c, 2, 67, 0
5, 157275, Note_on_c, 2, 72, 0
5, 157440, Note_on_c, 2, 61, 121
5, 157440, Note_on_c, 2, 65, 119
5, 157440, Note_on_c, 2, 68, 110
5, 157440, Note_on_c, 2, 72, 118
5, 158460, Note_on_c, 2, 72, 0
5, 158465, Note_on_c, 2, 68, 0
5, 158472, Note_on_c, 2, 65, 0
5, 158477, Note_on_c, 2, 61, 0
5, 158640, Note_on_c, 2, 61, 118
5, 158640, Note_on_c, 2, 65, 118
5, 158640, Note_on_c, 2, 68, 110
5, 158640, Note_on_c, 2, 72, 114
5, 158740, Note_on_c, 2, 61, 0
5, 158740, Note_on_c, 2, 65, 0
5, 158742, Note_on_c, 2, 68, 0
5, 158755, Note_on_c, 2, 72, 0
5, 159120, Note_on_c, 2, 63, 113
5, 159120, Note_on_c, 2, 67, 117
5, 159120, Note_on_c, 2, 70, 110
5, 159120, Note_on_c, 2, 72, 113
5, 160440, Note_on_c, 2, 63, 0
5, 160440, Note_on_c, 2, 67, 0
5, 160442, Note_on_c, 2, 70, 0
5, 160447, Note_on_c, 2, 72, 0
5, 160560, Note_on_c, 2, 63, 112
5, 160560, Note_on_c, 2, 67, 118
5, 160560, Note_on_c, 2, 70, 109
5, 160560, Note_on_c, 2, 72, 110
5, 160630, Note_on_c, 2, 63, 0
5, 160630, Note_on_c, 2, 70, 0
5, 160632, Note_on_c, 2, 67, 0
5, 160647, Note_on_c, 2, 72, 0
5, 161040, Note_on_c, 2, 63, 98
5, 161040, Note_on_c, 2, 67, 108
5, 161040, Note_on_c, 2, 70, 102
5, 161040, Note_on_c, 2, 72, 102
5, 161095, Note_on_c, 2, 70, 0
5, 161097, Note_on_c, 2, 63, 0
5, 161110, Note_on_c, 2, 67, 0
5, 161117, Note_on_c, 2, 72, 0
5, 161280, Note_on_c, 2, 61, 123
5, 161280, Note_on_c, 2, 65, 117
5, 161280, Note_on_c, 2, 68, 110
5, 161280, Note_on_c, 2, 72, 119
5, 161352, Note_on_c, 2, 61, 0
5, 161380, Note_on_c, 2, 68, 0
5, 161387, Note_on_c, 2, 65, 0
5, 161387, Note_on_c, 2, 72, 0
5, 161760, Note_on_c, 2, 61, 125
5, 161760, Note_on_c, 2, 65, 117
5, 161760, Note_on_c, 2, 68, 110
5, 161760, Note_on_c, 2, 72, 117
5, 162345, Note_on_c, 2, 72, 0
5, 162355, Note_on_c, 2, 61, 0
5, 162357, Note_on_c, 2, 65, 0
5, 162360, Note_on_c, 2, 68, 0
5, 162480, Note_on_c, 2, 61, 116
5, 162480, Note_on_c, 2, 65, 118
5, 162480, Note_on_c, 2, 68, 113
5, 162480, Note_on_c, 2, 72, 115
5, 162545, Note_on_c, 2, 61, 0
5, 162562, Note_on_c, 2, 65, 0
5, 162570, Note_on_c, 2, 68, 0
5, 162577, Note_on_c, 2, 72, 0
5, 162960, Note_on_c, 2, 63, 115
5, 162960, Note_on_c, 2, 67, 119
5, 162960, Note_on_c, 2, 70, 112
5, 162960, Note_on_c, 2, 72, 113
5, 164262, Note_on_c, 2, 67, 0
5, 164267, Note_on_c, 2, 72, 0
5, 164270, Note_on_c, 2, 63, 0
5, 164270, Note_on_c, 2, 70, 0
5, 164400, Note_on_c, 2, 63, 85
5, 164400, Note_on_c, 2, 67, 89
5, 164400, Note_on_c, 2, 70, 87
5, 164400, Note_on_c, 2, 72, 77
5, 164482, Note_on_c, 2, 72, 0
5, 164485, Note_on_c, 2, 67, 0
5, 164485, Note_on_c, 2, 70, 0
5, 164500, Note_on_c, 2, 63, 0
5, 164640, Note_on_c, 2, 63, 115
5, 164640, Note_on_c, 2, 67, 119
5, 164640, Note_on_c, 2, 70, 108
5, 164640, Note_on_c, 2, 72, 118
5, 164945, Note_on_c, 2, 70, 0
5, 164952, Note_on_c, 2, 63, 0
5, 164955, Note_on_c, 2, 67, 0
5, 164955, Note_on_c, 2, 72, 0
5, 165120, Note_on_c, 2, 61, 121
5, 165120, Note_on_c, 2, 65, 119
5, 165120, Note_on_c, 2, 68, 110
5, 165120, Note_on_c, 2, 72, 118
5, 166140, Note_on_c, 2, 72, 0
5, 166145, Note_on_c, 2, 68, 0
5, 166152, Note_on_c, 2, 65, 0
5, 166157, Note_on_c, 2, 61, 0
5, 166320, Note_on_c, 2, 61, 118
5, 166320, Note_on_c, 2, 65, 118
5, 166320, Note_on_c, 2, 68, 110
5, 166320, Note_on_c, 2, 72, 114
5, 166420, Note_on_c, 2, 61, 0
5, 166420, Note_on_c, 2, 65, 0
5, 166422, Note_on_c, 2, 68, 0
5, 166435, Note_on_c, 2, 72, 0
5, 166800, Note_on_c, 2, 63, 113
5, 166800, Note_on_c, 2, 67, 117
5, 166800, Note_on_c, 2, 70, 110
5, 166800, Note_on_c, 2, 72, 113
5, 168120, Note_on_c, 2, 63, 0
5, 168120, Note_on_c, 2, 67, 0
5, 168122, Note_on_c, 2, 70, 0
5, 168127, Note_on_c, 2, 72, 0
5, 168240, Note_on_c, 2, 63, 112
5, 168240, Note_on_c, 2, 67, 118
5, 168240, Note_on_c, 2, 70, 109
5, 168240, Note_on_c, 2, 72, 110
5, 168310, Note_on_c, 2, 63, 0
5, 168310, Note_on_c, 2, 70, 0
5, 168312, Note_on_c, 2, 67, 0
5, 168327, Note_on_c, 2, 72, 0
5, 168720, Note_on_c, 2, 63, 98
5, 168720, Note_on_c, 2, 67, 108
5, 168720, Note_on_c, 2, 70, 102
5, 168720, Note_on_c, 2, 72, 102
5, 168775, Note_on_c, 2, 70, 0
5, 168777, Note_on_c, 2, 63, 0
5, 168790, Note_on_c, 2, 67, 0
5, 168797, Note_on_c, 2, 72, 0
5, 168960, Note_on_c, 2, 61, 123
5, 168960, Note_on_c, 2, 65, 117
5, 168960, Note_on_c, 2, 68, 110
5, 168960, Note_on_c, 2, 72, 119
5, 169032, Note_on_c, 2, 61, 0
5, 169060, Note_on_c, 2, 68, 0
5, 169067, Note_on_c, 2, 65, 0
5, 169067, Note_on_c, 2, 72, 0
5, 169440, Note_on_c, 2, 61, 125
5, 169440, Note_on_c, 2, 65, 117
5, 169440, Note_on_c, 2, 68, 110
5, 169440, Note_on_c, 2, 72, 117
5, 170025, Note_on_c, 2, 72, 0
5, 170035, Note_on_c, 2, 61, 0
5, 170037, Note_on_c, 2, 65, 0
5, 170040, Note_on_c, 2, 68, 0
5, 170160, Note_on_c, 2, 61, 116
5, 170160, Note_on_c, 2, 65, 118
5, 170160, Note_on_c, 2, 68, 113
5, 170160, Note_on_c, 2, 72, 115
5, 170225, Note_on_c, 2, 61, 0
5, 170242, Note_on_c, 2, 65, 0
5, 170250, Note_on_c, 2, 68, 0
5, 170257, Note_on_c, 2, 72, 0
5, 170640, Note_on_c, 2, 63, 115
5, 170640, Note_on_c, 2, 67, 119
5, 170640, Note_on_c, 2, 70, 112
5, 170640, Note_on_c, 2, 72, 113
5, 171942, Note_on_c, 2, 67, 0
5, 171947, Note_on_c, 2, 72, 0
5, 171950, Note_on_c, 2, 63, 0
5, 171950, Note_on_c, 2, 70, 0
5, 172080, Note_on_c, 2, 63, 85
5, 172080, Note_on_c, 2, 67, 89
5, 172080, Note_on_c, 2, 70, 87
5, 172080, Note_on_c, 2, 72, 77
5, 172162, Note_on_c, 2, 72, 0
5, 172165, Note_on_c, 2, 67, 0
5, 172165, Note_on_c, 2, 70, 0
5, 172180, Note_on_c, 2, 63, 0
5, 172320, Note_on_c, 2, 63, 115
5, 172320, Note_on_c, 2, 67, 119
5, 172320, Note_on_c, 2, 70, 108
5, 172320, Note_on_c, 2, 72, 118
5, 172625, Note_on_c, 2, 70, 0
5, 172632, Note_on_c, 2, 63, 0
5, 172635, Note_on_c, 2, 67, 0
5, 172635, Note_on_c, 2, 72, 0
5, 172800, Note_on_c, 2, 61, 121
5, 172800, Note_on_c, 2, 65, 119
5, 172800, Note_on_c, 2, 68, 110
5, 172800, Note_on_c, 2, 72, 118
5, 173820, Note_on_c, 2, 72, 0
5, 173825, Note_on_c, 2, 68, 0
5, 173832, Note_on_c, 2, 65, 0
5, 173837, Note_on_c, 2, 61, 0
5, 174000, Note_on_c, 2, 61, 118
5, 174000, Note_on_c, 2, 65, 118
5, 174000, Note_on_c, 2, 68, 110
5, 174000, Note_on_c, 2, 72, 114
5, 174100, Note_on_c, 2, 61, 0
5, 174100, Note_on_c, 2, 65, 0
5, 174102, Note_on_c, 2, 68, 0
5, 174115, Note_on_c, 2, 72, 0
5, 174480, Note_on_c, 2, 63, 113
5, 174480, Note_on_c, 2, 67, 117
5, 174480, Note_on_c, 2, 70, 110
5, 174480, Note_on_c, 2, 72, 113
5, 175800, Note_on_c, 2, 63, 0
5, 175800, Note_on_c, 2, 67, 0
5, 175802, Note_on_c, 2, 70, 0
5, 175807, Note_on_c, 2, 72, 0
5, 175920, Note_on_c, 2, 63, 112
5, 175920, Note_on_c, 2, 67, 118
5, 175920, Note_on_c, 2, 70, 109
5, 175920, Note_on_c, 2, 72, 110
5, 175990, Note_on_c, 2, 63, 0
5, 175990, Note_on_c, 2, 70, 0
5, 175992, Note_on_c, 2, 67, 0
5, 176007, Note_on_c, 2, 72, 0
5, 176400, Note_on_c, 2, 63, 98
5, 176400, Note_on_c, 2, 67, 108
5, 176400, Note_on_c, 2, 70, 102
5, 176400, Note_on_c, 2, 72, 102
5, 176455, Note_on_c, 2, 70, 0
5, 176457, Note_on_c, 2, 63, 0
5, 176470, Note_on_c, 2, 67, 0
5, 176477, Note_on_c, 2, 72, 0
5, 176640, Note_on_c, 2, 61, 123
5, 176640, Note_on_c, 2, 65, 117
5, 176640, Note_on_c, 2, 68, 110
5, 176640, Note_on_c, 2, 72, 119
5, 176712, Note_on_c, 2, 61, 0
5, 176740, Note_on_c, 2, 68, 0
5, 176747, Note_on_c, 2, 65, 0
5, 176747, Note_on_c, 2, 72, 0
5, 177120, Note_on_c, 2, 61, 125
5, 177120, Note_on_c, 2, 65, 117
5, 177120, Note_on_c, 2, 68, 110
5, 177120, Note_on_c, 2, 72, 117
5, 177705, Note_on_c, 2, 72, 0
5, 177715, Note_on_c, 2, 61, 0
5, 177717, Note_on_c, 2, 65, 0
5, 177720, Note_on_c, 2, 68, 0
5, 177840, Note_on_c, 2, 61, 116
5, 177840, Note_on_c, 2, 65, 118
5, 177840, Note_on_c, 2, 68, 113
5, 177840, Note_on_c, 2, 72, 115
5, 177905, Note_on_c, 2, 61, 0
5, 177922, Note_on_c, 2, 65, 0
5, 177930, Note_on_c, 2, 68, 0
5, 177937, Note_on_c, 2, 72, 0
5, 178320, Note_on_c, 2, 63, 115
5, 178320, Note_on_c, 2, 67, 119
5, 178320, Note_on_c, 2, 70, 112
5, 178320, Note_on_c, 2, 72, 113
5, 179622, Note_on_c, 2, 67, 0
5, 179627, Note_on_c, 2, 72, 0
5, 179630, Note_on_c, 2, 63, 0
5, 179630, Note_on_c, 2, 70, 0
5, 179760, Note_on_c, 2, 63, 85
5, 179760, Note_on_c, 2, 67, 89
5, 179760, Note_on_c, 2, 70, 87
5, 179760, Note_on_c, 2, 72, 77
5, 179842, Note_on_c, 2, 72, 0
5, 179845, Note_on_c, 2, 67, 0
5, 179845, Note_on_c, 2, 70, 0
5, 179860, Note_on_c, 2, 63, 0
5, 180000, Note_on_c, 2, 63, 115
5, 180000, Note_on_c, 2, 67, 119
5, 180000, Note_on_c, 2, 70, 108
5, 180000, Note_on_c, 2, 72, 118
5, 180305, Note_on_c, 2, 70, 0
5, 180312, Note_on_c, 2, 63, 0
5, 180315, Note_on_c, 2, 67, 0
5, 180315, Note_on_c, 2, 72, 0
5, 180480, Note_on_c, 2, 61, 121
5, 180480, Note_on_c, 2, 65, 119
5, 180480, Note_on_c, 2, 68, 110
5, 180480, Note_on_c, 2, 72, 118
5, 181500, Note_on_c, 2, 72, 0
5, 181505, Note_on_c, 2, 68, 0
5, 181512, Note_on_c, 2, 65, 0
5, 181517, Note_on_c, 2, 61, 0
5, 181680, Note_on_c, 2, 61, 118
5, 181680, Note_on_c, 2, 65, 118
5, 181680, Note_on_c, 2, 68, 110
5, 181680, Note_on_c, 2, 72, 114
5, 181780, Note_on_c, 2, 61, 0
5, 181780, Note_on_c, 2, 65, 0
5, 181782, Note_on_c, 2, 68, 0
5, 181795, Note_on_c, 2, 72, 0
5, 182160, Note_on_c, 2, 63, 113
5, 182160, Note_on_c, 2, 67, 117
5, 182160, Note_on_c, 2, 70, 110
5, 182160, Note_on_c, 2, 72, 113
5, 183480, Note_on_c, 2, 63, 0
5, 183480, Note_on_c, 2, 67, 0
5, 183482, Note_on_c, 2, 70, 0
5, 183487, Note_on_c, 2, 72, 0
5, 183600, Note_on_c, 2, 63, 112
5, 183600, Note_on_c, 2, 67, 118
5, 183600, Note_on_c, 2, 70, 109
5, 183600, Note_on_c, 2, 72, 110
5, 183670, Note_on_c, 2, 63, 0
5, 183670, Note_on_c, 2, 70, 0
5, 183672, Note_on_c, 2, 67, 0
5, 183687, Note_on_c, 2, 72, 0
5, 184080, Note_on_c, 2, 63, 98
5, 184080, Note_on_c, 2, 67, 108
5, 184080, Note_on_c, 2, 70, 102
5, 184080, Note_on_c, 2, 72, 102
5, 184135, Note_on_c, 2, 70, 0
5, 184137, Note_on_c, 2, 63, 0
5, 184150, Note_on_c, 2, 67, 0
5, 184157, Note_on_c, 2, 72, 0
5, 184320, Note_on_c, 2, 61, 123
5, 184320, Note_on_c, 2, 65, 117
5, 184320, Note_on_c, 2, 68, 110
5, 184320, Note_on_c, 2, 72, 119
5, 184392, Note_on_c, 2, 61, 0
5, 184420, Note_on_c, 2, 68, 0
5, 184427, Note_on_c, 2, 65, 0
5, 184427, Note_on_c, 2, 72, 0
5, 184800, Note_on_c, 2, 61, 125
5, 184800, Note_on_c, 2, 65, 117
5, 184800, Note_on_c, 2, 68, 110
5, 184800, Note_on_c, 2, 72, 117
5, 185385, Note_on_c, 2, 72, 0
5, 185395, Note_on_c, 2, 61, 0
5, 185397, Note_on_c, 2, 65, 0
5, 185400, Note_on_c, 2, 68, 0
5, 185520, Note_on_c, 2, 61, 116
5, 185520, Note_on_c, 2, 65, 118
5, 185520, Note_on_c, 2, 68, 113
5, 185520, Note_on_c, 2, 72, 115
5, 185585, Note_on_c, 2, 61, 0
5, 185602, Note_on_c, 2, 65, 0
5, 185610, Note_on_c, 2, 68, 0
5, 185617, Note_on_c, 2, 72, 0
5, 186000, Note_on_c, 2, 63, 115
5, 186000, Note_on_c, 2, 67, 119
5, 186000, Note_on_c, 2, 70, 112
5, 186000, Note_on_c, 2, 72, 113
5, 187302, Note_on_c, 2, 67, 0
5, 187307, Note_on_c, 2, 72, 0
5, 187310, Note_on_c, 2, 63, 0
5, 187310, Note_on_c, 2, 70, 0
5, 187440, Note_on_c, 2, 63, 85
5, 187440, Note_on_c, 2, 67, 89
5, 187440, Note_on_c, 2, 70, 87
5, 187440, Note_on_c, 2, 72, 77
5, 187522, Note_on_c, 2, 72, 0
5, 187525, Note_on_c, 2, 67, 0
5, 187525, Note_on_c, 2, 70, 0
5, 187540, Note_on_c, 2, 63, 0
5, 187680, Note_on_c, 2, 63, 115
5, 187680, Note_on_c, 2, 67, 119
5, 187680, Note_on_c, 2, 70, 108
5, 187680, Note_on_c, 2, 72, 118
5, 187985, Note_on_c, 2, 70, 0
5, 187992, Note_on_c, 2, 63, 0
5, 187995, Note_on_c, 2, 67, 0
5, 187995, Note_on_c, 2, 72, 0
5, 188160, Note_on_c, 2, 61, 121
5, 188160, Note_on_c, 2, 65, 119
5, 188160, Note_on_c, 2, 68, 110
5, 188160, Note_on_c, 2, 72, 118
5, 189180, Note_on_c, 2, 72, 0
5, 189185, Note_on_c, 2, 68, 0
5, 189192, Note_on_c, 2, 65, 0
5, 189197, Note_on_c, 2, 61, 0
5, 189360, Note_on_c, 2, 61, 118
5, 189360, Note_on_c, 2, 65, 118
5, 189360, Note_on_c, 2, 68, 110
5, 189360, Note_on_c, 2, 72, 114
5, 189460, Note_on_c, 2, 61, 0
5, 189460, Note_on_c, 2, 65, 0
5, 189462, Note_on_c, 2, 68, 0
5, 189475, Note_on_c, 2, 72, 0
5, 189840, Note_on_c, 2, 63, 113
5, 189840, Note_on_c, 2, 67, 117
5, 189840, Note_on_c, 2, 70, 110
5, 189840, Note_on_c, 2, 72, 113
5, 191160, Note_on_c, 2, 63, 0
5, 191160, Note_on_c, 2, 67, 0
5, 191162, Note_on_c, 2, 70, 0
5, 191167, Note_on_c, 2, 72, 0
5, 191280, Note_on_c, 2, 63, 112
5, 191280, Note_on_c, 2, 67, 118
5, 191280, Note_on_c, 2, 70, 109
5, 191280, Note_on_c, 2, 72, 110
5, 191350, Note_on_c, 2, 63, 0
5, 191350, Note_on_c, 2, 70, 0
5, 191352, Note_on_c, 2, 67, 0
5, 191367, Note_on_c, 2, 72, 0
5, 191760, Note_on_c, 2, 63, 98
5, 191760, Note_on_c, 2, 67, 108
5, 191760, Note_on_c, 2, 70, 102
5, 191760, Note_on_c, 2, 72, 102
5, 191815, Note_on_c, 2, 70, 0
5, 191817, Note_on_c, 2, 63, 0
5, 191830, Note_on_c, 2, 67, 0
5, 191837, Note_on_c, 2, 72, 0
5, 192000, Note_on_c, 2, 61, 123
5, 192000, Note_on_c, 2, 65, 117
5, 192000, Note_on_c, 2, 68, 110
5, 192000, Note_on_c, 2, 72, 119
5, 192072, Note_on_c, 2, 61, 0
5, 192100, Note_on_c, 2, 68, 0
5, 192107, Note_on_c, 2, 65, 0
5, 192107, Note_on_c, 2, 72, 0
5, 192480, Note_on_c, 2, 61, 125
5, 192480, Note_on_c, 2, 65, 117
5, 192480, Note_on_c, 2, 68, 110
5, 192480, Note_on_c, 2, 72, 117
5, 193065, Note_on_c, 2, 72, 0
5, 193075, Note_on_c, 2, 61, 0
5, 193077, Note_on_c, 2, 65, 0
5, 193080, Note_on_c, 2, 68, 0
5, 193200, Note_on_c, 2, 61, 116
5, 193200, Note_on_c, 2, 65, 118
5, 193200, Note_on_c, 2, 68, 113
5, 193200, Note_on_c, 2, 72, 115
5, 193265, Note_on_c, 2, 61, 0
5, 193282, Note_on_c, 2, 65, 0
5, 193290, Note_on_c, 2, 68, 0
5, 193297, Note_on_c, 2, 72, 0
5, 193680, Note_on_c, 2, 63, 115
5, 193680, Note_on_c, 2, 67, 119
5, 193680, Note_on_c, 2, 70, 112
5, 193680, Note_on_c, 2, 72, 113
5, 194982, Note_on_c, 2, 67, 0
5, 194987, Note_on_c, 2, 72, 0
5, 194990, Note_on_c, 2, 63, 0
5, 194990, Note_on_c, 2, 70, 0
5, 195120, Note_on_c, 2, 63, 85
5, 195120, Note_on_c, 2, 67, 89
5, 195120, Note_on_c, 2, 70, 87
5, 195120, Note_on_c, 2, 72, 77
5, 195202, Note_on_c, 2, 72, 0
5, 195205, Note_on_c, 2, 67, 0
5, 195205, Note_on_c, 2, 70, 0
5, 195220, Note_on_c, 2, 63, 0
5, 195360, Note_on_c, 2, 63, 115
5, 195360, Note_on_c, 2, 67, 119
5, 195360, Note_on_c, 2, 70, 108
5, 195360, Note_on_c, 2, 72, 118
5, 195665, Note_on_c, 2, 70, 0
5, 195672, Note_on_c, 2, 63, 0
5, 195675, Note_on_c, 2, 67, 0
5, 195675, Note_on_c, 2, 72, 0
5, 195840, Note_on_c, 2, 61, 121
5, 195840, Note_on_c, 2, 65, 119
5, 195840, Note_on_c, 2, 68, 110
5, 195840, Note_on_c, 2, 72, 118
5, 196860, Note_on_c, 2, 72, 0
5, 196865, Note_on_c, 2, 68, 0
5, 196872, Note_on_c, 2, 65, 0
5, 196877, Note_on_c, 2, 61, 0
5, 197040, Note_on_c, 2, 61, 118
5, 197040, Note_on_c, 2, 65, 118
5, 197040, Note_on_c, 2, 68, 110
5, 197040, Note_on_c, 2, 72, 114
5, 197140, Note_on_c, 2, 61, 0
5, 197140, Note_on_c, 2, 65, 0
5, 197142, Note_on_c, 2, 68, 0
5, 197155, Note_on_c, 2, 72, 0
5, 197520, Note_on_c, 2, 63, 113
5, 197520, Note_on_c, 2, 67, 117
5, 197520, Note_on_c, 2, 70, 110
5, 197520, Note_on_c, 2, 72, 113
5, 198840, Note_on_c, 2, 63, 0
5, 198840, Note_on_c, 2, 67, 0
5, 198842, Note_on_c, 2, 70, 0
5, 198847, Note_on_c, 2, 72, 0
5, 198960, Note_on_c, 2, 63, 112
5, 198960, Note_on_c, 2, 67, 118
5, 198960, Note_on_c, 2, 70, 109
5, 198960, Note_on_c, 2, 72, 110
5, 199030, Note_on_c, 2, 63, 0
5, 199030, Note_on_c, 2, 70, 0
5, 199032, Note_on_c, 2, 67, 0
5, 199047, Note_on_c, 2, 72, 0
5, 199440, Note_on_c, 2, 63, 98
5, 199440, Note_on_c, 2, 67, 108
5, 199440, Note_on_c, 2, 70, 102
5, 199440, Note_on_c, 2, 72, 102
5, 199495, Note_on_c, 2, 70, 0
5, 199497, Note_on_c, 2, 63, 0
5, 199510, Note_on_c, 2, 67, 0
5, 199517, Note_on_c, 2, 72, 0
5, 199680, Note_on_c, 2, 61, 123
5, 199680, Note_on_c, 2, 65, 117
5, 199680, Note_on_c, 2, 68, 110
5, 199680, Note_on_c, 2, 72, 119
5, 199752, Note_on_c, 2, 61, 0
5, 199780, Note_on_c, 2, 68, 0
5, 199787, Note_on_c, 2, 65, 0
5, 199787, Note_on_c, 2, 72, 0
5, 200160, Note_on_c, 2, 61, 125
5, 200160, Note_on_c, 2, 65, 117
5, 200160, Note_on_c, 2, 68, 110
5, 200160, Note_on_c, 2, 72, 117
5, 200745, Note_on_c, 2, 72, 0
5, 200755, Note_on_c, 2, 61, 0
5, 200757, Note_on_c, 2, 65, 0
5, 200760, Note_on_c, 2, 68, 0
5, 200880, Note_on_c, 2, 61, 116
5, 200880, Note_on_c, 2, 65, 118
5, 200880, Note_on_c, 2, 68, 113
5, 200880, Note_on_c, 2, 72, 115
5, 200945, Note_on_c, 2, 61, 0
5, 200962, Note_on_c, 2, 65, 0
5, 200970, Note_on_c, 2, 68, 0
5, 200977, Note_on_c, 2, 72, 0
5, 201360, Note_on_c, 2, 63, 115
5, 201360, Note_on_c, 2, 67, 119
5, 201360, Note_on_c, 2, 70, 112
5, 201360, Note_on_c, 2, 72, 113
5, 202662, Note_on_c, 2, 67, 0
5, 202667, Note_on_c, 2, 72, 0
5, 202670, Note_on_c, 2, 63, 0
5, 202670, Note_on_c, 2, 70, 0
5, 202800, Note_on_c, 2, 63, 85
5, 202800, Note_on_c, 2, 67, 89
5, 202800, Note_on_c, 2, 70, 87
5, 202800, Note_on_c, 2, 72, 77
5, 202882, Note_on_c, 2, 72, 0
5, 202885, Note_on_c, 2, 67, 0
5, 202885, Note_on_c, 2, 70, 0
5, 202900, Note_on_c, 2, 63, 0
5, 203040, Note_on_c, 2, 63, 115
5, 203040, Note_on_c, 2, 67, 119
5, 203040, Note_on_c, 2, 70, 108
5, 203040, Note_on_c, 2, 72, 118
5, 203345, Note_on_c, 2, 70, 0
5, 203352, Note_on_c, 2, 63, 0
5, 203355, Note_on_c, 2, 67, 0
5, 203355, Note_on_c, 2, 72, 0
5, 203520, Note_on_c, 2, 63, 121
5, 203520, Note_on_c, 2, 67, 119
5, 203520, Note_on_c, 2, 70, 110
5, 203520, Note_on_c, 2, 74, 118
5, 204540, Note_on_c, 2, 74, 0
5, 204545, Note_on_c, 2, 70, 0
5, 204552, Note_on_c, 2, 67, 0
5, 204557, Note_on_c, 2, 63, 0
5, 204720, Note_on_c, 2, 63, 118
5, 204720, Note_on_c, 2, 67, 118
5, 204720, Note_on_c, 2, 70, 110
5, 204720, Note_on_c, 2, 74, 114
5, 204820, Note_on_c, 2, 63, 0
5, 204820, Note_on_c, 2, 67, 0
5, 204822, Note_on_c, 2, 70, 0
5, 204835, Note_on_c, 2, 74, 0
5, 205200, Note_on_c, 2, 65, 113
5, 205200, Note_on_c, 2, 69, 117
5, 205200, Note_on_c, 2, 72, 110
5, 205200, Note_on_c, 2, 74, 113
5, 206520, Note_on_c, 2, 65, 0
5, 206520, Note_on_c, 2, 69, 0
5, 206522, Note_on_c, 2, 72, 0
5, 206527, Note_on_c, 2, 74, 0
5, 206640, Note_on_c, 2, 65, 112
5, 206640, Note_on_c, 2, 69, 118
5, 206640, Note_on_c, 2, 72, 109
5, 206640, Note_on_c, 2, 74, 110
5, 206710, Note_on_c, 2, 65, 0
5, 206710, Note_on_c, 2, 72, 0
5, 206712, Note_on_c, 2, 69, 0
5, 206727, Note_on_c, 2, 74, 0
5, 207120, Note_on_c, 2, 65, 98
5, 207120, Note_on_c, 2, 69, 108
5, 207120, Note_on_c, 2, 72, 102
5, 207120, Note_on_c, 2, 74, 102
5, 207175, Note_on_c, 2, 72, 0
5, 207177, Note_on_c, 2, 65, 0
5, 207190, Note_on_c, 2, 69, 0
5, 207197, Note_on_c, 2, 74, 0
5, 207360, Note_on_c, 2, 63, 123
5, 207360, Note_on_c, 2, 67, 117
5, 207360, Note_on_c, 2, 70, 110
5, 207360, Note_on_c, 2, 74, 119
5, 207432, Note_on_c, 2, 63, 0
5, 207460, Note_on_c, 2, 70, 0
5, 207467, Note_on_c, 2, 67, 0
5, 207467, Note_on_c, 2, 74, 0
5, 207840, Note_on_c, 2, 63, 125
5, 207840, Note_on_c, 2, 67, 117
5, 207840, Note_on_c, 2, 70, 110
5, 207840, Note_on_c, 2, 74, 117
5, 208425, Note_on_c, 2, 74, 0
5, 208435, Note_on_c, 2, 63, 0
5, 208437, Note_on_c, 2, 67, 0
5, 208440, Note_on_c, 2, 70, 0
5, 208560, Note_on_c, 2, 63, 116
5, 208560, Note_on_c, 2, 67, 118
5, 208560, Note_on_c, 2, 70, 113
5, 208560, Note_on_c, 2, 74, 115
5, 208625, Note_on_c, 2, 63, 0
5, 208642, Note_on_c, 2, 67, 0
5, 208650, Note_on_c, 2, 70, 0
5, 208657, Note_on_c, 2, 74, 0
5, 209040, Note_on_c, 2, 65, 115
5, 209040, Note_on_c, 2, 69, 119
5, 209040, Note_on_c, 2, 72, 112
5, 209040, Note_on_c, 2, 74, 113
5, 210342, Note_on_c, 2, 69, 0
5, 210347, Note_on_c, 2, 74, 0
5, 210350, Note_on_c, 2, 65, 0
5, 210350, Note_on_c, 2, 72, 0
5, 210480, Note_on_c, 2, 65, 85
5, 210480, Note_on_c, 2, 69, 89
5, 210480, Note_on_c, 2, 72, 87
5, 210480, Note_on_c, 2, 74, 77
5, 210562, Note_on_c, 2, 74, 0
5, 210565, Note_on_c, 2, 69, 0
5, 210565, Note_on_c, 2, 72, 0
5, 210580, Note_on_c, 2, 65, 0
5, 210720, Note_on_c, 2, 65, 115
5, 210720, Note_on_c, 2, 69, 119
5, 210720, Note_on_c, 2, 72, 108
5, 210720, Note_on_c, 2, 74, 118
5, 211025, Note_on_c, 2, 72, 0
5, 211032, Note_on_c, 2, 65, 0
5, 211035, Note_on_c, 2, 69, 0
5, 211035, Note_on_c, 2, 74, 0
5, 211200, Note_on_c, 2, 63, 121
5, 211200, Note_on_c, 2, 67, 119
5, 211200, Note_on_c, 2, 70, 110
5, 211200, Note_on_c, 2, 74, 118
5, 212220, Note_on_c, 2, 74, 0
5, 212225, Note_on_c, 2, 70, 0
5, 212232, Note_on_c, 2, 67, 0
5, 212237, Note_on_c, 2, 63, 0
5, 212400, Note_on_c, 2, 63, 118
5, 212400, Note_on_c, 2, 67, 118
5, 212400, Note_on_c, 2, 70, 110
5, 212400, Note_on_c, 2, 74, 114
5, 212500, Note_on_c, 2, 63, 0
5, 212500, Note_on_c, 2, 67, 0
5, 212502, Note_on_c, 2, 70, 0
5, 212515, Note_on_c, 2, 74, 0
5, 212880, Note_on_c, 2, 65, 113
5, 212880, Note_on_c, 2, 69, 117
5, 212880, Note_on_c, 2, 72, 110
5, 212880, Note_on_c, 2, 74, 113
5, 214200, Note_on_c, 2, 65, 0
5, 214200, Note_on_c, 2, 69, 0
5, 214202, Note_on_c, 2, 72, 0
5, 214207, Note_on_c, 2, 74, 0
5, 214320, Note_on_c, 2, 65, 112
5, 214320, Note_on_c, 2, 69, 118
5, 214320, Note_on_c, 2, 72, 109
5, 214320, Note_on_c, 2, 74, 110
5, 214390, Note_on_c, 2, 65, 0
5, 214390, Note_on_c, 2, 72, 0
5, 214392, Note_on_c, 2, 69, 0
5, 214407, Note_on_c, 2, 74, 0
5, 214800, Note_on_c, 2, 65, 98
5, 214800, Note_on_c, 2, 69, 108
5, 214800, Note_on_c, 2, 72, 102
5, 214800, Note_on_c, 2, 74, 102
5, 214855, Note_on_c, 2, 72, 0
5, 214857, Note_on_c, 2, 65, 0
5, 214870, Note_on_c, 2, 69, 0
5, 214877, Note_on_c, 2, 74, 0
5, 215040, Note_on_c, 2, 63, 123
5, 215040, Note_on_c, 2, 67, 117
5, 215040, Note_on_c, 2, 70, 110
5, 215040, Note_on_c, 2, 74, 119
5, 215112, Note_on_c, 2, 63, 0
5, 215140, Note_on_c, 2, 70, 0
5, 215147, Note_on_c, 2, 67, 0
5, 215147, Note_on_c, 2, 74, 0
5, 215520, Note_on_c, 2, 63, 125
5, 215520, Note_on_c, 2, 67, 117
5, 215520, Note_on_c, 2, 70, 110
5, 215520, Note_on_c, 2, 74, 117
5, 216105, Note_on_c, 2, 74, 0
5, 216115, Note_on_c, 2, 63, 0
5, 216117, Note_on_c, 2, 67, 0
5, 216120, Note_on_c, 2, 70, 0
5, 216240, Note_on_c, 2, 63, 116
5, 216240, Note_on_c, 2, 67, 118
5, 216240, Note_on_c, 2, 70, 113
5, 216240, Note_on_c, 2, 74, 115
5, 216305, Note_on_c, 2, 63, 0
5, 216322, Note_on_c, 2, 67, 0
5, 216330, Note_on_c, 2, 70, 0
5, 216337, Note_on_c, 2, 74, 0
5, 216720, Note_on_c, 2, 65, 115
5, 216720, Note_on_c, 2, 69, 119
5, 216720, Note_on_c, 2, 72, 112
5, 216720, Note_on_c, 2, 74, 113
5, 217680, Note_on_c, 2, 65, 0
5, 217680, Note_on_c, 2, 69, 0
5, 217680, Note_on_c, 2, 69, 122
5, 217680, Note_on_c, 2, 72, 0
5, 217680, Note_on_c, 2, 74, 0
5, 217680, Note_on_c, 2, 74, 121
5, 217880, Note_on_c, 2, 69, 0
5, 217882, Note_on_c, 2, 74, 0
5, 217920, Note_on_c, 2, 70, 127
5, 217920, Note_on_c, 2, 75, 108
5, 218052, Note_on_c, 2, 75, 0
5, 218065, Note_on_c, 2, 70, 0
5, 233040, Note_on_c, 2, 50, 104
5, 233040, Note_on_c, 2, 57, 102
5, 233247, Note_on_c, 2, 50, 0
5, 233280, Note_on_c, 2, 51, 104
5, 233280, Note_on_c, 2, 58, 96
5, 233287, Note_on_c, 2, 57, 0
5, 233490, Note_on_c, 2, 58, 0
5, 233492, Note_on_c, 2, 51, 0
5, 234240, Note_on_c, 2, 63, 121
5, 234240, Note_on_c, 2, 67, 119
5, 234240, Note_on_c, 2, 70, 110
5, 234240, Note_on_c, 2, 74, 118
5, 235260, Note_on_c, 2, 74, 0
5, 235265, Note_on_c, 2, 70, 0
5, 235272, Note_on_c, 2, 67, 0
5, 235277, Note_on_c, 2, 63, 0
5, 235440, Note_on_c, 2, 63, 118
5, 235440, Note_on_c, 2, 67, 118
5, 235440, Note_on_c, 2, 70, 110
5, 235440, Note_on_c, 2, 74, 114
5, 235540, Note_on_c, 2, 63, 0
5, 235540, Note_on_c, 2, 67, 0
5, 235542, Note_on_c, 2, 70, 0
5, 235555, Note_on_c, 2, 74, 0
5, 235920, Note_on_c, 2, 65, 113
5, 235920, Note_on_c, 2, 69, 117
5, 235920, Note_on_c, 2, 72, 110
5, 235920, Note_on_c, 2, 74, 113
5, 237240, Note_on_c, 2, 65, 0
5, 237240, Note_on_c, 2, 69, 0
5, 237242, Note_on_c, 2, 72, 0
5, 237247, Note_on_c, 2, 74, 0
5, 237360, Note_on_c, 2, 65, 112
5, 237360, Note_on_c, 2, 69, 118
5, 237360, Note_on_c, 2, 72, 109
5, 237360, Note_on_c, 2, 74, 110
5, 237430, Note_on_c, 2, 65, 0
5, 237430, Note_on_c, 2, 72, 0
5, 237432, Note_on_c, 2, 69, 0
5, 237447, Note_on_c, 2, 74, 0
5, 237840, Note_on_c, 2, 65, 98
5, 237840, Note_on_c, 2, 69, 108
5, 237840, Note_on_c, 2, 72, 102
5, 237840, Note_on_c, 2, 74, 102
5, 237895, Note_on_c, 2, 72, 0
5, 237897, Note_on_c, 2, 65, 0
5, 237910, Note_on_c, 2, 69, 0
5, 237917, Note_on_c, 2, 74, 0
5, 238080, Note_on_c, 2, 63, 123
5, 238080, Note_on_c, 2, 67, 117
5, 238080, Note_on_c, 2, 70, 110
5, 238080, Note_on_c, 2, 74, 119
5, 238152, Note_on_c, 2, 63, 0
5, 238180, Note_on_c, 2, 70, 0
5, 238187, Note_on_c, 2, 67, 0
5, 238187, Note_on_c, 2, 74, 0
5, 238560, Note_on_c, 2, 63, 125
5, 238560, Note_on_c, 2, 67, 117
5, 238560, Note_on_c, 2, 70, 110
5, 238560, Note_on_c, 2, 74, 117
5, 239145, Note_on_c, 2, 74, 0
5, 239155, Note_on_c, 2, 63, 0
5, 239157, Note_on_c, 2, 67, 0
5, 239160, Note_on_c, 2, 70, 0
5, 239280, Note_on_c, 2, 63, 116
5, 239280, Note_on_c, 2, 67, 118
5, 239280, Note_on_c, 2, 70, 113
5, 239280, Note_on_c, 2, 74, 115
5, 239345, Note_on_c, 2, 63, 0
5, 239362, Note_on_c, 2, 67, 0
5, 239370, Note_on_c, 2, 70, 0
5, 239377, Note_on_c, 2, 74, 0
5, 239760, Note_on_c, 2, 65, 115
5, 239760, Note_on_c, 2, 69, 119
5, 239760, Note_on_c, 2, 72, 112
5, 239760, Note_on_c, 2, 74, 113
5, 241062, Note_on_c, 2, 69, 0
5, 241067, Note_on_c, 2, 74, 0
5, 241070, Note_on_c, 2, 65, 0
5, 241070, Note_on_c, 2, 72, 0
5, 241200, Note_on_c, 2, 65, 85
5, 241200, Note_on_c, 2, 69, 89
5, 241200, Note_on_c, 2, 72, 87
5, 241200, Note_on_c, 2, 74, 77
5, 241282, Note_on_c, 2, 74, 0
5, 241285, Note_on_c, 2, 69, 0
5, 241285, Note_on_c, 2, 72, 0
5, 241300, Note_on_c, 2, 65, 0
5, 241440, Note_on_c, 2, 65, 115
5, 241440, Note_on_c, 2, 69, 119
5, 241440, Note_on_c, 2, 72, 108
5, 241440, Note_on_c, 2, 74, 118
5, 241745, Note_on_c, 2, 72, 0
5, 241752, Note_on_c, 2, 65, 0
5, 241755, Note_on_c, 2, 69, 0
5, 241755, Note_on_c, 2, 74, 0
5, 241920, Note_on_c, 2, 63, 121
5, 241920, Note_on_c, 2, 67, 119
5, 241920, Note_on_c, 2, 70, 110
5, 241920, Note_on_c, 2, 74, 118
5, 242940, Note_on_c, 2, 74, 0
5, 242945, Note_on_c, 2, 70, 0
5, 242952, Note_on_c, 2, 67, 0
5, 242957, Note_on_c, 2, 63, 0
5, 243120, Note_on_c, 2, 63, 118
5, 243120, Note_on_c, 2, 67, 118
5, 243120, Note_on_c, 2, 70, 110
5, 243120, Note_on_c, 2, 74, 114
5, 243220, Note_on_c, 2, 63, 0
5, 243220, Note_on_c, 2, 67, 0
5, 243222, Note_on_c, 2, 70, 0
5, 243235, Note_on_c, 2, 74, 0
5, 243600, Note_on_c, 2, 65, 113
5, 243600, Note_on_c, 2, 69, 117
5, 243600, Note_on_c, 2, 72, 110
5, 243600, Note_on_c, 2, 74, 113
5, 244920, Note_on_c, 2, 65, 0
5, 244920, Note_on_c, 2, 69, 0
5, 244922, Note_on_c, 2, 72, 0
5, 244927, Note_on_c, 2, 74, 0
5, 245040, Note_on_c, 2, 65, 112
5, 245040, Note_on_c, 2, 69, 118
5, 245040, Note_on_c, 2, 72, 109
5, 245040, Note_on_c, 2, 74, 110
5, 245110, Note_on_c, 2, 65, 0
5, 245110, Note_on_c, 2, 72, 0
5, 245112, Note_on_c, 2, 69, 0
5, 245127, Note_on_c, 2, 74, 0
5, 245520, Note_on_c, 2, 65, 98
5, 245520, Note_on_c, 2, 69, 108
5, 245520, Note_on_c, 2, 72, 102
5, 245520, Note_on_c, 2, 74, 102
5, 245575, Note_on_c, 2, 72, 0
5, 245577, Note_on_c, 2, 65, 0
5, 245590, Note_on_c, 2, 69, 0
5, 245597, Note_on_c, 2, 74, 0
5, 245760, Note_on_c, 2, 63, 123
5, 245760, Note_on_c, 2, 67, 117
5, 245760, Note_on_c, 2, 70, 110
5, 245760, Note_on_c, 2, 74, 119
5, 245832, Note_on_c, 2, 63, 0
5, 245860, Note_on_c, 2, 70, 0
5, 245867, Note_on_c, 2, 67, 0
5, 245867, Note_on_c, 2, 74, 0
5, 246240, Note_on_c, 2, 63, 125
5, 246240, Note_on_c, 2, 67, 117
5, 246240, Note_on_c, 2, 70, 110
5, 246240, Note_on_c, 2, 74, 117
5, 246825, Note_on_c, 2, 74, 0
5, 246835, Note_on_c, 2, 63, 0
5, 246837, Note_on_c, 2, 67, 0
5, 246840, Note_on_c, 2, 70, 0
5, 246960, Note_on_c, 2, 63, 116
5, 246960, Note_on_c, 2, 67, 118
5, 246960, Note_on_c, 2, 70, 113
5, 246960, Note_on_c, 2, 74, 115
5, 247025, Note_on_c, 2, 63, 0
5, 247042, Note_on_c, 2, 67, 0
5, 247050, Note_on_c, 2, 70, 0
5, 247057, Note_on_c, 2, 74, 0
5, 247440, Note_on_c, 2, 65, 115
5, 247440, Note_on_c, 2, 69, 119
5, 247440, Note_on_c, 2, 72, 112
5, 247440, Note_on_c, 2, 74, 113
5, 247860, Note_on_c, 2, 65, 0
5, 247920, Note_on_c, 2, 69, 0
5, 247920, Note_on_c, 2, 69, 109
5, 247920, Note_on_c, 2, 72, 0
5, 247920, Note_on_c, 2, 74, 0
5, 247920, Note_on_c, 2, 74, 107
5, 248002, Note_on_c, 2, 74, 0
5, 248022, Note_on_c, 2, 69, 0
5, 248160, Note_on_c, 2, 68, 112
5, 248160, Note_on_c, 2, 73, 106
5, 248232, Note_on_c, 2, 68, 0
5, 248250, Note_on_c, 2, 73, 0
5, 248280, Note_on_c, 2, 67, 91
5, 248280, Note_on_c, 2, 72, 99
5, 248375, Note_on_c, 2, 67, 0
5, 248397, Note_on_c, 2, 72, 0
5, 248640, Note_on_c, 2, 69, 109
5, 248640, Note_on_c, 2, 74, 99
5, 248720, Note_on_c, 2, 69, 0
5, 248727, Note_on_c, 2, 74, 0
5, 248880, Note_on_c, 2, 68, 106
5, 248880, Note_on_c, 2, 73, 109
5, 248957, Note_on_c, 2, 68, 0
5, 248970, Note_on_c, 2, 73, 0
5, 249000, Note_on_c, 2, 67, 98
5, 249000, Note_on_c, 2, 72, 93
5, 249115, Note_on_c, 2, 67, 0
5, 249115, Note_on_c, 2, 72, 0
5, 249360, Note_on_c, 2, 67, 119
5, 249360, Note_on_c, 2, 72, 111
5, 249427, Note_on_c, 2, 67, 0
5, 249440, Note_on_c, 2, 72, 0
5, 249600, Note_on_c, 2, 61, 121
5, 249600, Note_on_c, 2, 65, 119
5, 249600, Note_on_c, 2, 68, 110
5, 249600, Note_on_c, 2, 72, 118
5, 250620, Note_on_c, 2, 72, 0
5, 250625, Note_on_c, 2, 68, 0
5, 250632, Note_on_c, 2, 65, 0
5, 250637, Note_on_c, 2, 61, 0
5, 250800, Note_on_c, 2, 61, 118
5, 250800, Note_on_c, 2, 65, 118
5, 250800, Note_on_c, 2, 68, 110
5, 250800, Note_on_c, 2, 72, 114
5, 250900, Note_on_c, 2, 61, 0
5, 250900, Note_on_c, 2, 65, 0
5, 250902, Note_on_c, 2, 68, 0
5, 250915, Note_on_c, 2, 72, 0
5, 251280, Note_on_c, 2, 63, 113
5, 251280, Note_on_c, 2, 67, 117
5, 251280, Note_on_c, 2, 70, 110
5, 251280, Note_on_c, 2, 72, 113
5, 252600, Note_on_c, 2, 63, 0
5, 252600, Note_on_c, 2, 67, 0
5, 252602, Note_on_c, 2, 70, 0
5, 252607, Note_on_c, 2, 72, 0
5, 252720, Note_on_c, 2, 63, 112
5, 252720, Note_on_c, 2, 67, 118
5, 252720, Note_on_c, 2, 70, 109
5, 252720, Note_on_c, 2, 72, 110
5, 252790, Note_on_c, 2, 63, 0
5, 252790, Note_on_c, 2, 70, 0
5, 252792, Note_on_c, 2, 67, 0
5, 252807, Note_on_c, 2, 72, 0
5, 253200, Note_on_c, 2, 63, 98
5, 253200, Note_on_c, 2, 67, 108
5, 253200, Note_on_c, 2, 70, 102
5, 253200, Note_on_c, 2, 72, 102
5, 253255, Note_on_c, 2, 70, 0
5, 253257, Note_on_c, 2, 63, 0
5, 253270, Note_on_c, 2, 67, 0
5, 253277, Note_on_c, 2, 72, 0
5, 253440, Note_on_c, 2, 61, 123
5, 253440, Note_on_c, 2, 65, 117
5, 253440, Note_on_c, 2, 68, 110
5, 253440, Note_on_c, 2, 72, 119
5, 253512, Note_on_c, 2, 61, 0
5, 253540, Note_on_c, 2, 68, 0
5, 253547, Note_on_c, 2, 65, 0
5, 253547, Note_on_c, 2, 72, 0
5, 253920, Note_on_c, 2, 61, 125
5, 253920, Note_on_c, 2, 65, 117
5, 253920, Note_on_c, 2, 68, 110
5, 253920, Note_on_c, 2, 72, 117
5, 254505, Note_on_c, 2, 72, 0
5, 254515, Note_on_c, 2, 61, 0
5, 254517, Note_on_c, 2, 65, 0
5, 254520, Note_on_c, 2, 68, 0
5, 254640, Note_on_c, 2, 61, 116
5, 254640, Note_on_c, 2, 65, 118
5, 254640, Note_on_c, 2, 68, 113
5, 254640, Note_on_c, 2, 72, 115
5, 254705, Note_on_c, 2, 61, 0
5, 254722, Note_on_c, 2, 65, 0
5, 254730, Note_on_c, 2, 68, 0
5, 254737, Note_on_c, 2, 72, 0
5, 255120, Note_on_c, 2, 63, 115
5, 255120, Note_on_c, 2, 67, 119
5, 255120, Note_on_c, 2, 70, 112
5, 255120, Note_on_c, 2, 72, 113
5, 256422, Note_on_c, 2, 67, 0
5, 256427, Note_on_c, 2, 72, 0
5, 256430, Note_on_c, 2, 63, 0
5, 256430, Note_on_c, 2, 70, 0
5, 256560, Note_on_c, 2, 63, 85
5, 256560, Note_on_c, 2, 67, 89
5, 256560, Note_on_c, 2, 70, 87
5, 256560, Note_on_c, 2, 72, 77
5, 256642, Note_on_c, 2, 72, 0
5, 256645, Note_on_c, 2, 67, 0
5, 256645, Note_on_c, 2, 70, 0
5, 256660, Note_on_c, 2, 63, 0
5, 256800, Note_on_c, 2, 63, 115
5, 256800, Note_on_c, 2, 67, 119
5, 256800, Note_on_c, 2, 70, 108
5, 256800, Note_on_c, 2, 72, 118
5, 257105, Note_on_c, 2, 70, 0
5, 257112, Note_on_c, 2, 63, 0
5, 257115, Note_on_c, 2, 67, 0
5, 257115, Note_on_c, 2, 72, 0
5, 257280, Note_on_c, 2, 61, 121
5, 257280, Note_on_c, 2, 65, 119
5, 257280, Note_on_c, 2, 68, 110
5, 257280, Note_on_c, 2, 72, 118
5, 258300, Note_on_c, 2, 72, 0
5, 258305, Note_on_c, 2, 68, 0
5, 258312, Note_on_c, 2, 65, 0
5, 258317, Note_on_c, 2, 61, 0
5, 258480, Note_on_c, 2, 61, 118
5, 258480, Note_on_c, 2, 65, 118
5, 258480, Note_on_c, 2, 68, 110
5, 258480, Note_on_c, 2, 72, 114
5, 258580, Note_on_c, 2, 61, 0
5, 258580, Note_on_c, 2, 65, 0
5, 258582, Note_on_c, 2, 68, 0
5, 258595, Note_on_c, 2, 72, 0
5, 258960, Note_on_c, 2, 63, 113
5, 258960, Note_on_c, 2, 67, 117
5, 258960, Note_on_c, 2, 70, 110
5, 258960, Note_on_c, 2, 72, 113
5, 260280, Note_on_c, 2, 63, 0
5, 260280, Note_on_c, 2, 67, 0
5, 260282, Note_on_c, 2, 70, 0
5, 260287, Note_on_c, 2, 72, 0
5, 260400, Note_on_c, 2, 63, 112
5, 260400, Note_on_c, 2, 67, 118
5, 260400, Note_on_c, 2, 70, 109
5, 260400, Note_on_c, 2, 72, 110
5, 260470, Note_on_c, 2, 63, 0
5, 260470, Note_on_c, 2, 70, 0
5, 260472, Note_on_c, 2, 67, 0
5, 260487, Note_on_c, 2, 72, 0
5, 260880, Note_on_c, 2, 63, 98
5, 260880, Note_on_c, 2, 67, 108
5, 260880, Note_on_c, 2, 70, 102
5, 260880, Note_on_c, 2, 72, 102
5, 260935, Note_on_c, 2, 70, 0
5, 260937, Note_on_c, 2, 63, 0
5, 260950, Note_on_c, 2, 67, 0
5, 260957, Note_on_c, 2, 72, 0
5, 261120, Note_on_c, 2, 61, 123
5, 261120, Note_on_c, 2, 65, 117
5, 261120, Note_on_c, 2, 68, 110
5, 261120, Note_on_c, 2, 72, 119
5, 261192, Note_on_c, 2, 61, 0
5, 261220, Note_on_c, 2, 68, 0
5, 261227, Note_on_c, 2, 65, 0
5, 261227, Note_on_c, 2, 72, 0
5, 261600, Note_on_c, 2, 61, 125
5, 261600, Note_on_c, 2, 65, 117
5, 261600, Note_on_c, 2, 68, 110
5, 261600, Note_on_c, 2, 72, 117
5, 262185, Note_on_c, 2, 72, 0
5, 262195, Note_on_c, 2, 61, 0
5, 262197, Note_on_c, 2, 65, 0
5, 262200, Note_on_c, 2, 68, 0
5, 262320, Note_on_c, 2, 61, 116
5, 262320, Note_on_c, 2, 65, 118
5, 262320, Note_on_c, 2, 68, 113
5, 262320, Note_on_c, 2, 72, 115
5, 262385, Note_on_c, 2, 61, 0
5, 262402, Note_on_c, 2, 65, 0
5, 262410, Note_on_c, 2, 68, 0
5, 262417, Note_on_c, 2, 72, 0
5, 262800, Note_on_c, 2, 63, 115
5, 262800, Note_on_c, 2, 67, 119
5, 262800, Note_on_c, 2, 70, 112
5, 262800, Note_on_c, 2, 72, 113
5, 264102, Note_on_c, 2, 67, 0
5, 264107, Note_on_c, 2, 72, 0
5, 264110, Note_on_c, 2, 63, 0
5, 264110, Note_on_c, 2, 70, 0
5, 264240, Note_on_c, 2, 63, 85
5, 264240, Note_on_c, 2, 67, 89
5, 264240, Note_on_c, 2, 70, 87
5, 264240, Note_on_c, 2, 72, 77
5, 264322, Note_on_c, 2, 72, 0
5, 264325, Note_on_c, 2, 67, 0
5, 264325, Note_on_c, 2, 70, 0
5, 264340, Note_on_c, 2, 63, 0
5, 264480, Note_on_c, 2, 63, 115
5, 264480, Note_on_c, 2, 67, 119
5, 264480, Note_on_c, 2, 70, 108
5, 264480, Note_on_c, 2, 72, 118
5, 264785, Note_on_c, 2, 70, 0
5, 264792, Note_on_c, 2, 63, 0
5, 264795, Note_on_c, 2, 67, 0
5, 264795, Note_on_c, 2, 72, 0
5, 264960, Note_on_c, 2, 61, 121
5, 264960, Note_on_c, 2, 65, 119
5, 264960, Note_on_c, 2, 68, 110
5, 264960, Note_on_c, 2, 72, 118
5, 265980, Note_on_c, 2, 72, 0
5, 265985, Note_on_c, 2, 68, 0
5, 265992, Note_on_c, 2, 65, 0
5, 265997, Note_on_c, 2, 61, 0
5, 266160, Note_on_c, 2, 61, 118
5, 266160, Note_on_c, 2, 65, 118
5, 266160, Note_on_c, 2, 68, 110
5, 266160, Note_on_c, 2, 72, 114
5, 266260, Note_on_c, 2, 61, 0
5, 266260, Note_on_c, 2, 65, 0
5, 266262, Note_on_c, 2, 68, 0
5, 266275, Note_on_c, 2, 72, 0
5, 266640, Note_on_c, 2, 63, 113
5, 266640, Note_on_c, 2, 67, 117
5, 266640, Note_on_c, 2, 70, 110
5, 266640, Note_on_c, 2, 72, 113
5, 267960, Note_on_c, 2, 63, 0
5, 267960, Note_on_c, 2, 67, 0
5, 267962, Note_on_c, 2, 70, 0
5, 267967, Note_on_c, 2, 72, 0
5, 268080, Note_on_c, 2, 63, 112
5, 268080, Note_on_c, 2, 67, 118
5, 268080, Note_on_c, 2, 70, 109
5, 268080, Note_on_c, 2, 72, 110
5, 268150, Note_on_c, 2, 63, 0
5, 268150, Note_on_c, 2, 70, 0
5, 268152, Note_on_c, 2, 67, 0
5, 268167, Note_on_c, 2, 72, 0
5, 268560, Note_on_c, 2, 63, 98
5, 268560, Note_on_c, 2, 67, 108
5, 268560, Note_on_c, 2, 70, 102
5, 268560, Note_on_c, 2, 72, 102
5, 268615, Note_on_c, 2, 70, 0
5, 268617, Note_on_c, 2, 63, 0
5, 268630, Note_on_c, 2, 67, 0
5, 268637, Note_on_c, 2, 72, 0
5, 268800, Note_on_c, 2, 61, 123
5, 268800, Note_on_c, 2, 65, 117
5, 268800, Note_on_c, 2, 68, 110
5, 268800, Note_on_c, 2, 72, 119
5, 268872, Note_on_c, 2, 61, 0
5, 268900, Note_on_c, 2, 68, 0
5, 268907, Note_on_c, 2, 65, 0
5, 268907, Note_on_c, 2, 72, 0
5, 269280, Note_on_c, 2, 61, 125
5, 269280, Note_on_c, 2, 65, 117
5, 269280, Note_on_c, 2, 68, 110
5, 269280, Note_on_c, 2, 72, 117
5, 269865, Note_on_c, 2, 72, 0
5, 269875, Note_on_c, 2, 61, 0
5, 269877, Note_on_c, 2, 65, 0
5, 269880, Note_on_c, 2, 68, 0
5, 270000, Note_on_c, 2, 61, 116
5, 270000, Note_on_c, 2, 65, 118
5, 270000, Note_on_c, 2, 68, 113
5, 270000, Note_on_c, 2, 72, 115
5, 270065, Note_on_c, 2, 61, 0
5, 270082, Note_on_c, 2, 65, 0
5, 270090, Note_on_c, 2, 68, 0
5, 270097, Note_on_c, 2, 72, 0
5, 270480, Note_on_c, 2, 63, 115
5, 270480, Note_on_c, 2, 67, 119
5, 270480, Note_on_c, 2, 70, 112
5, 270480, Note_on_c, 2, 72, 113
5, 271782, Note_on_c, 2, 67, 0
5, 271787, Note_on_c, 2, 72, 0
5, 271790, Note_on_c, 2, 63, 0
5, 271790, Note_on_c, 2, 70, 0
5, 271920, Note_on_c, 2, 63, 85
5, 271920, Note_on_c, 2, 67, 89
5, 271920, Note_on_c, 2, 70, 87
5, 271920, Note_on_c, 2, 72, 77
5, 272002, Note_on_c, 2, 72, 0
5, 272005, Note_on_c, 2, 67, 0
5, 272005, Note_on_c, 2, 70, 0
5, 272020, Note_on_c, 2, 63, 0
5, 272160, Note_on_c, 2, 63, 115
5, 272160, Note_on_c, 2, 67, 119
5, 272160, Note_on_c, 2, 70, 108
5, 272160, Note_on_c, 2, 72, 118
5, 272465, Note_on_c, 2, 70, 0
5, 272472, Note_on_c, 2, 63, 0
5, 272475, Note_on_c, 2, 67, 0
5, 272475, Note_on_c, 2, 72, 0
5, 272640, Note_on_c, 2, 61, 121
5, 272640, Note_on_c, 2, 65, 119
5, 272640, Note_on_c, 2, 68, 110
5, 272640, Note_on_c, 2, 72, 118
5, 273660, Note_on_c, 2, 72, 0
5, 273665, Note_on_c, 2, 68, 0
5, 273672, Note_on_c, 2, 65, 0
5, 273677, Note_on_c, 2, 61, 0
5, 273840, Note_on_c, 2, 61, 118
5, 273840, Note_on_c, 2, 65, 118
5, 273840, Note_on_c, 2, 68, 110
5, 273840, Note_on_c, 2, 72, 114
5, 273940, Note_on_c, 2, 61, 0
5, 273940, Note_on_c, 2, 65, 0
5, 273942, Note_on_c, 2, 68, 0
5, 273955, Note_on_c, 2, 72, 0
5, 274320, Note_on_c, 2, 63, 113
5, 274320, Note_on_c, 2, 67, 117
5, 274320, Note_on_c, 2, 70, 110
5, 274320, Note_on_c, 2, 72, 113
5, 275640, Note_on_c, 2, 63, 0
5, 275640, Note_on_c, 2, 67, 0
5, 275642, Note_on_c, 2, 70, 0
5, 275647, Note_on_c, 2, 72, 0
5, 275760, Note_on_c, 2, 63, 112
5, 275760, Note_on_c, 2, 67, 118
5, 275760, Note_on_c, 2, 70, 109
5, 275760, Note_on_c, 2, 72, 110
5, 275830, Note_on_c, 2, 63, 0
5, 275830, Note_on_c, 2, 70, 0
5, 275832, Note_on_c, 2, 67, 0
5, 275847, Note_on_c, 2, 72, 0
5, 276240, Note_on_c, 2, 63, 98
5, 276240, Note_on_c, 2, 67, 108
5, 276240, Note_on_c, 2, 70, 102
5, 276240, Note_on_c, 2, 72, 102
5, 276295, Note_on_c, 2, 70, 0
5, 276297, Note_on_c, 2, 63, 0
5, 276310, Note_on_c, 2, 67, 0
5, 276317, Note_on_c, 2, 72, 0
5, 276480, Note_on_c, 2, 61, 123
5, 276480, Note_on_c, 2, 65, 117
5, 276480, Note_on_c, 2, 68, 110
5, 276480, Note_on_c, 2, 72, 119
5, 276552, Note_on_c, 2, 61, 0
5, 276580, Note_on_c, 2, 68, 0
5, 276587, Note_on_c, 2, 65, 0
5, 276587, Note_on_c, 2, 72, 0
5, 276960, Note_on_c, 2, 61, 125
5, 276960, Note_on_c, 2, 65, 117
5, 276960, Note_on_c, 2, 68, 110
5, 276960, Note_on_c, 2, 72, 117
5, 277545, Note_on_c, 2, 72, 0
5, 277555, Note_on_c, 2, 61, 0
5, 277557, Note_on_c, 2, 65, 0
5, 277560, Note_on_c, 2, 68, 0
5, 277680, Note_on_c, 2, 61, 116
5, 277680, Note_on_c, 2, 65, 118
5, 277680, Note_on_c, 2, 68, 113
5, 277680, Note_on_c, 2, 72, 115
5, 277745, Note_on_c, 2, 61, 0
5, 277762, Note_on_c, 2, 65, 0
5, 277770, Note_on_c, 2, 68, 0
5, 277777, Note_on_c, 2, 72, 0
5, 278160, Note_on_c, 2, 63, 115
5, 278160, Note_on_c, 2, 67, 119
5, 278160, Note_on_c, 2, 70, 112
5, 278160, Note_on_c, 2, 72, 113
5, 279462, Note_on_c, 2, 67, 0
5, 279467, Note_on_c, 2, 72, 0
5, 279470, Note_on_c, 2, 63, 0
5, 279470, Note_on_c, 2, 70, 0
5, 279600, Note_on_c, 2, 63, 85
5, 279600, Note_on_c, 2, 67, 89
5, 279600, Note_on_c, 2, 70, 87
5, 279600, Note_on_c, 2, 72, 77
5, 279682, Note_on_c, 2, 72, 0
5, 279685, Note_on_c, 2, 67, 0
5, 279685, Note_on_c, 2, 70, 0
5, 279700, Note_on_c, 2, 63, 0
5, 279840, Note_on_c, 2, 63, 115
5, 279840, Note_on_c, 2, 67, 119
5, 279840, Note_on_c, 2, 70, 108
5, 279840, Note_on_c, 2, 72, 118
5, 280145, Note_on_c, 2, 70, 0
5, 280152, Note_on_c, 2, 63, 0
5, 280155, Note_on_c, 2, 67, 0
5, 280155, Note_on_c, 2, 72, 0
5, 280320, Note_on_c, 2, 61, 121
5, 280320, Note_on_c, 2, 65, 119
5, 280320, Note_on_c, 2, 68, 110
5, 280320, Note_on_c, 2, 72, 118
5, 281340, Note_on_c, 2, 72, 0
5, 281345, Note_on_c, 2, 68, 0
5, 281352, Note_on_c, 2, 65, 0
5, 281357, Note_on_c, 2, 61, 0
5, 281520, Note_on_c, 2, 61, 118
5, 281520, Note_on_c, 2, 65, 118
5, 281520, Note_on_c, 2, 68, 110
5, 281520, Note_on_c, 2, 72, 114
5, 281620, Note_on_c, 2, 61, 0
5, 281620, Note_on_c, 2, 65, 0
5, 281622, Note_on_c, 2, 68, 0
5, 281635, Note_on_c, 2, 72, 0
5, 282000, Note_on_c, 2, 63, 113
5, 282000, Note_on_c, 2, 67, 117
5, 282000, Note_on_c, 2, 70, 110
5, 282000, Note_on_c, 2, 72, 113
5, 283320, Note_on_c, 2, 63, 0
5, 283320, Note_on_c, 2, 67, 0
5, 283322, Note_on_c, 2, 70, 0
5, 283327, Note_on_c, 2, 72, 0
5, 283440, Note_on_c, 2, 63, 112
5, 283440, Note_on_c, 2, 67, 118
5, 283440, Note_on_c, 2, 70, 109
5, 283440, Note_on_c, 2, 72, 110
5, 283510, Note_on_c, 2, 63, 0
5, 283510, Note_on_c, 2, 70, 0
5, 283512, Note_on_c, 2, 67, 0
5, 283527, Note_on_c, 2, 72, 0
5, 283920, Note_on_c, 2, 63, 98
5, 283920, Note_on_c, 2, 67, 108
5, 283920, Note_on_c, 2, 70, 102
5, 283920, Note_on_c, 2, 72, 102
5, 283975, Note_on_c, 2, 70, 0
5, 283977, Note_on_c, 2, 63, 0
5, 283990, Note_on_c, 2, 67, 0
5, 283997, Note_on_c, 2, 72, 0
5, 284160, Note_on_c, 2, 61, 123
5, 284160, Note_on_c, 2, 65, 117
5, 284160, Note_on_c, 2, 68, 110
5, 284160, Note_on_c, 2, 72, 119
5, 284232, Note_on_c, 2, 61, 0
5, 284260, Note_on_c, 2, 68, 0
5, 284267, Note_on_c, 2, 65, 0
5, 284267, Note_on_c, 2, 72, 0
5, 284640, Note_on_c, 2, 61, 125
5, 284640, Note_on_c, 2, 65, 117
5, 284640, Note_on_c, 2, 68, 110
5, 284640, Note_on_c, 2, 72, 117
5, 285225, Note_on_c, 2, 72, 0
5, 285235, Note_on_c, 2, 61, 0
5, 285237, Note_on_c, 2, 65, 0
5, 285240, Note_on_c, 2, 68, 0
5, 285360, Note_on_c, 2, 61, 116
5, 285360, Note_on_c, 2, 65, 118
5, 285360, Note_on_c, 2, 68, 113
5, 285360, Note_on_c, 2, 72, 115
5, 285425, Note_on_c, 2, 61, 0
5, 285442, Note_on_c, 2, 65, 0
5, 285450, Note_on_c, 2, 68, 0
5, 285457, Note_on_c, 2, 72, 0
5, 285840, Note_on_c, 2, 63, 115
5, 285840, Note_on_c, 2, 67, 119
5, 285840, Note_on_c, 2, 70, 112
5, 285840, Note_on_c, 2, 72, 113
5, 287142, Note_on_c, 2, 67, 0
5, 287147, Note_on_c, 2, 72, 0
5, 287150, Note_on_c, 2, 63, 0
5, 287150, Note_on_c, 2, 70, 0
5, 287280, Note_on_c, 2, 63, 85
5, 287280, Note_on_c, 2, 67, 89
5, 287280, Note_on_c, 2, 70, 87
5, 287280, Note_on_c, 2, 72, 77
5, 287362, Note_on_c, 2, 72, 0
5, 287365, Note_on_c, 2, 67, 0
5, 287365, Note_on_c, 2, 70, 0
5, 287380, Note_on_c, 2, 63, 0
5, 287520, Note_on_c, 2, 63, 115
5, 287520, Note_on_c, 2, 67, 119
5, 287520, Note_on_c, 2, 70, 108
5, 287520, Note_on_c, 2, 72, 118
5, 287825, Note_on_c, 2, 70, 0
5, 287832, Note_on_c, 2, 63, 0
5, 287835, Note_on_c, 2, 67, 0
5, 287835, Note_on_c, 2, 72, 0
5, 288000, Note_on_c, 2, 61, 121
5, 288000, Note_on_c, 2, 65, 119
5, 288000, Note_on_c, 2, 68, 110
5, 288000, Note_on_c, 2, 72, 118
5, 289020, Note_on_c, 2, 72, 0
5, 289025, Note_on_c, 2, 68, 0
5, 289032, Note_on_c, 2, 65, 0
5, 289037, Note_on_c, 2, 61, 0
5, 289200, Note_on_c, 2, 61, 118
5, 289200, Note_on_c, 2, 65, 118
5, 289200, Note_on_c, 2, 68, 110
5, 289200, Note_on_c, 2, 72, 114
5, 289300, Note_on_c, 2, 61, 0
5, 289300, Note_on_c, 2, 65, 0
5, 289302, Note_on_c, 2, 68, 0
5, 289315, Note_on_c, 2, 72, 0
5, 289680, Note_on_c, 2, 63, 113
5, 289680, Note_on_c, 2, 67, 117
5, 289680, Note_on_c, 2, 70, 110
5, 289680, Note_on_c, 2, 72, 113
5, 291000, Note_on_c, 2, 63, 0
5, 291000, Note_on_c, 2, 67, 0
5, 291002, Note_on_c, 2, 70, 0
5, 291007, Note_on_c, 2, 72, 0
5, 291120, Note_on_c, 2, 63, 112
5, 291120, Note_on_c, 2, 67, 118
5, 291120, Note_on_c, 2, 70, 109
5, 291120, Note_on_c, 2, 72, 110
5, 291190, Note_on_c, 2, 63, 0
5, 291190, Note_on_c, 2, 70, 0
5, 291192, Note_on_c, 2, 67, 0
5, 291207, Note_on_c, 2, 72, 0
5, 291600, Note_on_c, 2, 63, 98
5, 291600, Note_on_c, 2, 67, 108
5, 291600, Note_on_c, 2, 70, 102
5, 291600, Note_on_c, 2, 72, 102
5, 291655, Note_on_c, 2, 70, 0
5, 291657, Note_on_c, 2, 63, 0
5, 291670, Note_on_c, 2, 67, 0
5, 291677, Note_on_c, 2, 72, 0
5, 291840, Note_on_c, 2, 61, 123
5, 291840, Note_on_c, 2, 65, 117
5, 291840, Note_on_c, 2, 68, 110
5, 291840, Note_on_c, 2, 72, 119
5, 291912, Note_on_c, 2, 61, 0
5, 291940, Note_on_c, 2, 68, 0
5, 291947, Note_on_c, 2, 65, 0
5, 291947, Note_on_c, 2, 72, 0
5, 292320, Note_on_c, 2, 61, 125
5, 292320, Note_on_c, 2, 65, 117
5, 292320, Note_on_c, 2, 68, 110
5, 292320, Note_on_c, 2, 72, 117
5, 292905, Note_on_c, 2, 72, 0
5, 292915, Note_on_c, 2, 61, 0
5, 292917, Note_on_c, 2, 65, 0
5, 292920, Note_on_c, 2, 68, 0
5, 293040, Note_on_c, 2, 61, 116
5, 293040, Note_on_c, 2, 65, 118
5, 293040, Note_on_c, 2, 68, 113
5, 293040, Note_on_c, 2, 72, 115
5, 293105, Note_on_c, 2, 61, 0
5, 293122, Note_on_c, 2, 65, 0
5, 293130, Note_on_c, 2, 68, 0
5, 293137, Note_on_c, 2, 72, 0
5, 293520, Note_on_c, 2, 63, 115
5, 293520, Note_on_c, 2, 67, 119
5, 293520, Note_on_c, 2, 70, 112
5, 293520, Note_on_c, 2, 72, 113
5, 294822, Note_on_c, 2, 67, 0
5, 294827, Note_on_c, 2, 72, 0
5, 294830, Note_on_c, 2, 63, 0
5, 294830, Note_on_c, 2, 70, 0
5, 294960, Note_on_c, 2, 63, 85
5, 294960, Note_on_c, 2, 67, 89
5, 294960, Note_on_c, 2, 70, 87
5, 294960, Note_on_c, 2, 72, 77
5, 295042, Note_on_c, 2, 72, 0
5, 295045, Note_on_c, 2, 67, 0
5, 295045, Note_on_c, 2, 70, 0
5, 295060, Note_on_c, 2, 63, 0
5, 295200, Note_on_c, 2, 63, 115
5, 295200, Note_on_c, 2, 67, 119
5, 295200, Note_on_c, 2, 70, 108
5, 295200, Note_on_c, 2, 72, 118
5, 295505, Note_on_c, 2, 70, 0
5, 295512, Note_on_c, 2, 63, 0
5, 295515, Note_on_c, 2, 67, 0
5, 295515, Note_on_c, 2, 72, 0
5, 295680, Note_on_c, 2, 46, 121
5, 296112, Note_on_c, 2, 46, 0
5, 296160, Note_on_c, 2, 44, 115
5, 296267, Note_on_c, 2, 44, 0
5, 296880, Note_on_c, 2, 58, 116
5, 296880, Note_on_c, 2, 60, 111
5, 296880, Note_on_c, 2, 63, 105
5, 296880, Note_on_c, 2, 67, 117
5, 299135, Note_on_c, 2, 58, 0
5, 299147, Note_on_c, 2, 60, 0
5, 299157, Note_on_c, 2, 67, 0
5, 299160, Note_on_c, 2, 63, 0
5, 299520, Note_on_c, 2, 46, 112
5, 299945, Note_on_c, 2, 46, 0
5, 300000, Note_on_c, 2, 44, 109
5, 300097, Note_on_c, 2, 44, 0
5, 300720, Note_on_c, 2, 58, 112
5, 300720, Note_on_c, 2, 60, 109
5, 300720, Note_on_c, 2, 63, 103
5, 300720, Note_on_c, 2, 67, 110
5, 303047, Note_on_c, 2, 58, 0
5, 303057, Note_on_c, 2, 60, 0
5, 303060, Note_on_c, 2, 67, 0
5, 303072, Note_on_c, 2, 63, 0
5, 303360, Note_on_c, 2, 34, 127
5, 303667, Note_on_c, 2, 34, 0
5, 303667, End_track
6, 0, Start_track
6, 0, Channel_prefix, 3
6, 0, Title_t, "TENOR SAX"
6, 0, Instrument_name_t, "CHA  4  "
6, 485, Program_c, 3, 66
6, 487, Control_c, 3, 11, 127
6, 490, Control_c, 3, 7, 90
6, 492, Control_c, 3, 10, 64
6, 495, Control_c, 3, 91, 80
6, 497, Control_c, 3, 93, 0
6, 960, Control_c, 3, 101, 0
6, 962, Control_c, 3, 100, 0
6, 965, Control_c, 3, 6, 2
6, 990, Control_c, 3, 101, 127
6, 992, Control_c, 3, 100, 127
6, 34320, Note_on_c, 3, 53, 109
6, 34392, Note_on_c, 3, 53, 0
6, 34512, Pitch_bend_c, 3, 5056
6, 34542, Pitch_bend_c, 3, 2720
6, 34557, Pitch_bend_c, 3, 480
6, 34560, Note_on_c, 3, 60, 119
6, 34582, Pitch_bend_c, 3, 256
6, 34610, Pitch_bend_c, 3, 1312
6, 34632, Pitch_bend_c, 3, 4032
6, 34670, Pitch_bend_c, 3, 5440
6, 34687, Pitch_bend_c, 3, 7936
6, 34715, Pitch_bend_c, 3, 8192
6, 34947, Note_on_c, 3, 60, 0
6, 35040, Note_on_c, 3, 60, 111
6, 35100, Note_on_c, 3, 60, 0
6, 35215, Control_c, 3, 1, 10
6, 35250, Control_c, 3, 1, 20
6, 35272, Control_c, 3, 1, 37
6, 35280, Note_on_c, 3, 60, 113
6, 35295, Control_c, 3, 1, 57
6, 35320, Control_c, 3, 1, 72
6, 35340, Control_c, 3, 1, 78
6, 35362, Control_c, 3, 1, 82
6, 35395, Control_c, 3, 1, 68
6, 35430, Control_c, 3, 1, 63
6, 35455, Control_c, 3, 1, 60
6, 35477, Control_c, 3, 1, 56
6, 35497, Control_c, 3, 1, 47
6, 35520, Control_c, 3, 1, 31
6, 35547, Control_c, 3, 1, 24
6, 35565, Control_c, 3, 1, 18
6, 35587, Control_c, 3, 1, 16
6, 35610, Control_c, 3, 1, 14
6, 35642, Control_c, 3, 1, 12
6, 35662, Control_c, 3, 1, 9
6, 35675, Note_on_c, 3, 60, 0
6, 35685, Control_c, 3, 1, 2
6, 35722, Control_c, 3, 1, 0
6, 35760, Note_on_c, 3, 58, 96
6, 35850, Note_on_c, 3, 58, 0
6, 36000, Note_on_c, 3, 56, 87
6, 36062, Note_on_c, 3, 56, 0
6, 36172, Pitch_bend_c, 3, 6560
6, 36202, Pitch_bend_c, 3, 3456
6, 36225, Pitch_bend_c, 3, 192
6, 36240, Note_on_c, 3, 60, 119
6, 36255, Pitch_bend_c, 3, 0
6, 36297, Pitch_bend_c, 3, 640
6, 36312, Pitch_bend_c, 3, 3520
6, 36345, Pitch_bend_c, 3, 5600
6, 36360, Pitch_bend_c, 3, 8032
6, 36382, Pitch_bend_c, 3, 8192
6, 36645, Control_c, 3, 1, 9
6, 36667, Control_c, 3, 1, 21
6, 36695, Control_c, 3, 1, 31
6, 36717, Control_c, 3, 1, 43
6, 36740, Control_c, 3, 1, 51
6, 36760, Control_c, 3, 1, 55
6, 36785, Control_c, 3, 1, 60
6, 36807, Control_c, 3, 1, 64
6, 36830, Control_c, 3, 1, 67
6, 36850, Note_on_c, 3, 60, 0
6, 36852, Control_c, 3, 1, 57
6, 36870, Control_c, 3, 1, 18
6, 36895, Control_c, 3, 1, 0
6, 36960, Note_on_c, 3, 60, 115
6, 37040, Note_on_c, 3, 60, 0
6, 37120, Pitch_bend_c, 3, 4960
6, 37150, Pitch_bend_c, 3, 2336
6, 37165, Pitch_bend_c, 3, 0
6, 37200, Note_on_c, 3, 60, 118
6, 37245, Pitch_bend_c, 3, 2752
6, 37275, Pitch_bend_c, 3, 6592
6, 37305, Pitch_bend_c, 3, 8000
6, 37317, Pitch_bend_c, 3, 8192
6, 37510, Note_on_c, 3, 60, 0
6, 37650, Control_c, 3, 1, 17
6, 37680, Note_on_c, 3, 58, 108
6, 37685, Control_c, 3, 1, 33
6, 37707, Control_c, 3, 1, 52
6, 37730, Control_c, 3, 1, 67
6, 37752, Control_c, 3, 1, 74
6, 37770, Control_c, 3, 1, 80
6, 37797, Control_c, 3, 1, 64
6, 37820, Control_c, 3, 1, 32
6, 37845, Control_c, 3, 1, 0
6, 37882, Note_on_c, 3, 58, 0
6, 38582, Pitch_bend_c, 3, 6592
6, 38605, Pitch_bend_c, 3, 1952
6, 38635, Pitch_bend_c, 3, 1152
6, 38640, Note_on_c, 3, 60, 122
6, 38655, Pitch_bend_c, 3, 2016
6, 38670, Pitch_bend_c, 3, 4640
6, 38692, Pitch_bend_c, 3, 7712
6, 38725, Pitch_bend_c, 3, 8096
6, 38732, Pitch_bend_c, 3, 8192
6, 38837, Note_on_c, 3, 60, 0
6, 38880, Note_on_c, 3, 61, 112
6, 38965, Note_on_c, 3, 61, 0
6, 38965, Control_c, 3, 1, 4
6, 38987, Control_c, 3, 1, 9
6, 39007, Control_c, 3, 1, 13
6, 39030, Control_c, 3, 1, 17
6, 39052, Control_c, 3, 1, 26
6, 39082, Control_c, 3, 1, 33
6, 39107, Control_c, 3, 1, 57
6, 39120, Note_on_c, 3, 63, 118
6, 39147, Control_c, 3, 1, 68
6, 39172, Control_c, 3, 1, 74
6, 39195, Control_c, 3, 1, 80
6, 39232, Control_c, 3, 1, 83
6, 39270, Control_c, 3, 1, 76
6, 39300, Control_c, 3, 1, 64
6, 39322, Control_c, 3, 1, 44
6, 39350, Control_c, 3, 1, 30
6, 39372, Control_c, 3, 1, 20
6, 39390, Control_c, 3, 1, 6
6, 39412, Control_c, 3, 1, 0
6, 39447, Note_on_c, 3, 63, 0
6, 39552, Pitch_bend_c, 3, 3232
6, 39585, Pitch_bend_c, 3, 0
6, 39600, Note_on_c, 3, 65, 117
6, 39652, Pitch_bend_c, 3, 1056
6, 39667, Pitch_bend_c, 3, 4160
6, 39690, Pitch_bend_c, 3, 8000
6, 39722, Pitch_bend_c, 3, 8192
6, 39847, Note_on_c, 3, 65, 0
6, 40005, Pitch_bend_c, 3, 6176
6, 40035, Pitch_bend_c, 3, 2240
6, 40057, Pitch_bend_c, 3, 0
6, 40080, Note_on_c, 3, 60, 124
6, 40137, Pitch_bend_c, 3, 640
6, 40145, Pitch_bend_c, 3, 4736
6, 40175, Pitch_bend_c, 3, 7936
6, 40197, Pitch_bend_c, 3, 8192
6, 40302, Note_on_c, 3, 60, 0
6, 40320, Note_on_c, 3, 58, 105
6, 40430, Control_c, 3, 1, 10
6, 40452, Control_c, 3, 1, 21
6, 40475, Control_c, 3, 1, 30
6, 40497, Control_c, 3, 1, 41
6, 40517, Control_c, 3, 1, 51
6, 40537, Note_on_c, 3, 58, 0
6, 40542, Control_c, 3, 1, 33
6, 40565, Control_c, 3, 1, 2
6, 40585, Control_c, 3, 1, 0
6, 42000, Note_on_c, 3, 53, 110
6, 42075, Note_on_c, 3, 53, 0
6, 42135, Pitch_bend_c, 3, 6816
6, 42157, Pitch_bend_c, 3, 1792
6, 42187, Pitch_bend_c, 3, 0
6, 42237, Pitch_bend_c, 3, 192
6, 42240, Note_on_c, 3, 60, 122
6, 42247, Pitch_bend_c, 3, 1536
6, 42262, Pitch_bend_c, 3, 4736
6, 42292, Pitch_bend_c, 3, 7552
6, 42315, Pitch_bend_c, 3, 8032
6, 42322, Pitch_bend_c, 3, 8192
6, 42515, Control_c, 3, 1, 1
6, 42525, Control_c, 3, 1, 12
6, 42562, Control_c, 3, 1, 15
6, 42585, Control_c, 3, 1, 18
6, 42607, Note_on_c, 3, 60, 0
6, 42607, Control_c, 3, 1, 22
6, 42630, Control_c, 3, 1, 25
6, 42660, Control_c, 3, 1, 27
6, 42697, Control_c, 3, 1, 31
6, 42720, Note_on_c, 3, 60, 95
6, 42725, Control_c, 3, 1, 35
6, 42747, Control_c, 3, 1, 40
6, 42762, Note_on_c, 3, 60, 0
6, 42770, Control_c, 3, 1, 44
6, 42792, Control_c, 3, 1, 47
6, 42815, Control_c, 3, 1, 50
6, 42852, Control_c, 3, 1, 51
6, 42875, Control_c, 3, 1, 52
6, 42885, Control_c, 3, 1, 50
6, 42912, Control_c, 3, 1, 61
6, 42947, Control_c, 3, 1, 70
6, 42960, Note_on_c, 3, 60, 108
6, 42975, Control_c, 3, 1, 87
6, 43017, Control_c, 3, 1, 94
6, 43040, Control_c, 3, 1, 98
6, 43062, Control_c, 3, 1, 99
6, 43097, Control_c, 3, 1, 93
6, 43127, Control_c, 3, 1, 87
6, 43150, Control_c, 3, 1, 77
6, 43172, Control_c, 3, 1, 63
6, 43197, Control_c, 3, 1, 49
6, 43217, Control_c, 3, 1, 36
6, 43240, Control_c, 3, 1, 24
6, 43260, Control_c, 3, 1, 15
6, 43285, Control_c, 3, 1, 9
6, 43307, Control_c, 3, 1, 8
6, 43330, Control_c, 3, 1, 8
6, 43350, Control_c, 3, 1, 2
6, 43372, Note_on_c, 3, 60, 0
6, 43372, Control_c, 3, 1, 0
6, 43440, Note_on_c, 3, 58, 98
6, 43642, Note_on_c, 3, 58, 0
6, 43680, Note_on_c, 3, 56, 81
6, 43752, Note_on_c, 3, 56, 0
6, 43832, Pitch_bend_c, 3, 6560
6, 43852, Pitch_bend_c, 3, 4000
6, 43870, Pitch_bend_c, 3, 672
6, 43890, Pitch_bend_c, 3, 0
6, 43920, Note_on_c, 3, 60, 122
6, 43952, Pitch_bend_c, 3, 512
6, 43960, Pitch_bend_c, 3, 3872
6, 43990, Pitch_bend_c, 3, 6816
6, 44012, Pitch_bend_c, 3, 8032
6, 44027, Pitch_bend_c, 3, 8192
6, 44250, Control_c, 3, 1, 9
6, 44272, Control_c, 3, 1, 25
6, 44295, Control_c, 3, 1, 38
6, 44317, Control_c, 3, 1, 49
6, 44340, Control_c, 3, 1, 57
6, 44367, Control_c, 3, 1, 59
6, 44392, Control_c, 3, 1, 43
6, 44435, Control_c, 3, 1, 38
6, 44452, Control_c, 3, 1, 30
6, 44475, Control_c, 3, 1, 25
6, 44497, Control_c, 3, 1, 19
6, 44525, Control_c, 3, 1, 18
6, 44562, Control_c, 3, 1, 15
6, 44572, Note_on_c, 3, 60, 0
6, 44592, Control_c, 3, 1, 14
6, 44615, Control_c, 3, 1, 18
6, 44637, Control_c, 3, 1, 23
6, 44640, Note_on_c, 3, 60, 105
6, 44677, Control_c, 3, 1, 25
6, 44715, Control_c, 3, 1, 13
6, 44750, Control_c, 3, 1, 7
6, 44757, Note_on_c, 3, 60, 0
6, 44772, Control_c, 3, 1, 0
6, 44822, Pitch_bend_c, 3, 5120
6, 44850, Pitch_bend_c, 3, 2656
6, 44867, Pitch_bend_c, 3, 1280
6, 44880, Note_on_c, 3, 60, 114
6, 44887, Pitch_bend_c, 3, 1632
6, 44905, Pitch_bend_c, 3, 4480
6, 44935, Pitch_bend_c, 3, 6912
6, 44957, Pitch_bend_c, 3, 8032
6, 44972, Pitch_bend_c, 3, 8192
6, 45180, Note_on_c, 3, 60, 0
6, 45215, Control_c, 3, 1, 1
6, 45227, Control_c, 3, 1, 7
6, 45265, Control_c, 3, 1, 13
6, 45287, Control_c, 3, 1, 20
6, 45310, Control_c, 3, 1, 26
6, 45330, Control_c, 3, 1, 32
6, 45355, Control_c, 3, 1, 37
6, 45360, Note_on_c, 3, 58, 109
6, 45380, Control_c, 3, 1, 43
6, 45400, Control_c, 3, 1, 50
6, 45422, Control_c, 3, 1, 56
6, 45445, Control_c, 3, 1, 62
6, 45465, Control_c, 3, 1, 69
6, 45487, Control_c, 3, 1, 78
6, 45512, Control_c, 3, 1, 85
6, 45535, Control_c, 3, 1, 89
6, 45562, Control_c, 3, 1, 24
6, 45575, Note_on_c, 3, 58, 0
6, 45600, Note_on_c, 3, 56, 95
6, 45600, Control_c, 3, 1, 0
6, 45680, Note_on_c, 3, 56, 0
6, 46250, Pitch_bend_c, 3, 7712
6, 46267, Pitch_bend_c, 3, 5536
6, 46282, Pitch_bend_c, 3, 1632
6, 46302, Pitch_bend_c, 3, 480
6, 46317, Pitch_bend_c, 3, 256
6, 46320, Note_on_c, 3, 60, 117
6, 46335, Pitch_bend_c, 3, 2080
6, 46355, Pitch_bend_c, 3, 4192
6, 46370, Pitch_bend_c, 3, 7360
6, 46392, Pitch_bend_c, 3, 7872
6, 46400, Pitch_bend_c, 3, 8192
6, 46545, Note_on_c, 3, 60, 0
6, 46557, Control_c, 3, 1, 11
6, 46560, Note_on_c, 3, 61, 110
6, 46595, Control_c, 3, 1, 14
6, 46625, Control_c, 3, 1, 2
6, 46650, Note_on_c, 3, 61, 0
6, 46665, Control_c, 3, 1, 0
6, 46730, Control_c, 3, 1, 4
6, 46752, Control_c, 3, 1, 13
6, 46772, Control_c, 3, 1, 28
6, 46795, Control_c, 3, 1, 46
6, 46800, Note_on_c, 3, 63, 113
6, 46817, Control_c, 3, 1, 61
6, 46842, Control_c, 3, 1, 70
6, 46865, Control_c, 3, 1, 75
6, 46887, Control_c, 3, 1, 78
6, 46910, Control_c, 3, 1, 80
6, 46967, Control_c, 3, 1, 60
6, 46997, Control_c, 3, 1, 31
6, 47020, Control_c, 3, 1, 9
6, 47042, Control_c, 3, 1, 0
6, 47075, Note_on_c, 3, 63, 0
6, 47240, Pitch_bend_c, 3, 5632
6, 47262, Pitch_bend_c, 3, 896
6, 47280, Note_on_c, 3, 65, 119
6, 47285, Pitch_bend_c, 3, 0
6, 47347, Pitch_bend_c, 3, 1472
6, 47367, Pitch_bend_c, 3, 3520
6, 47390, Pitch_bend_c, 3, 7296
6, 47420, Pitch_bend_c, 3, 8160
6, 47435, Pitch_bend_c, 3, 8192
6, 47607, Note_on_c, 3, 65, 0
6, 47707, Pitch_bend_c, 3, 7072
6, 47722, Pitch_bend_c, 3, 1440
6, 47752, Pitch_bend_c, 3, 0
6, 47760, Note_on_c, 3, 60, 119
6, 47785, Pitch_bend_c, 3, 480
6, 47792, Pitch_bend_c, 3, 3840
6, 47822, Pitch_bend_c, 3, 6880
6, 47845, Pitch_bend_c, 3, 8096
6, 47857, Pitch_bend_c, 3, 8192
6, 47970, Control_c, 3, 1, 28
6, 47975, Note_on_c, 3, 60, 0
6, 48000, Note_on_c, 3, 58, 107
6, 48007, Control_c, 3, 1, 39
6, 48035, Control_c, 3, 1, 42
6, 48052, Control_c, 3, 1, 48
6, 48077, Control_c, 3, 1, 33
6, 48097, Note_on_c, 3, 58, 0
6, 48100, Control_c, 3, 1, 3
6, 48122, Control_c, 3, 1, 0
6, 49680, Note_on_c, 3, 58, 123
6, 49740, Note_on_c, 3, 58, 0
6, 49920, Note_on_c, 3, 65, 122
6, 49920, Pitch_bend_c, 3, 7936
6, 49927, Pitch_bend_c, 3, 1760
6, 49965, Pitch_bend_c, 3, 3232
6, 49980, Pitch_bend_c, 3, 6912
6, 50010, Pitch_bend_c, 3, 8000
6, 50027, Pitch_bend_c, 3, 8192
6, 50102, Note_on_c, 3, 65, 0
6, 50160, Note_on_c, 3, 63, 96
6, 50227, Note_on_c, 3, 63, 0
6, 50330, Control_c, 3, 1, 8
6, 50352, Control_c, 3, 1, 18
6, 50375, Control_c, 3, 1, 28
6, 50395, Control_c, 3, 1, 35
6, 50400, Note_on_c, 3, 63, 115
6, 50417, Control_c, 3, 1, 50
6, 50442, Control_c, 3, 1, 58
6, 50465, Control_c, 3, 1, 61
6, 50485, Control_c, 3, 1, 63
6, 50522, Control_c, 3, 1, 54
6, 50552, Control_c, 3, 1, 47
6, 50575, Control_c, 3, 1, 43
6, 50597, Control_c, 3, 1, 34
6, 50620, Note_on_c, 3, 63, 0
6, 50622, Control_c, 3, 1, 22
6, 50640, Note_on_c, 3, 61, 95
6, 50642, Control_c, 3, 1, 12
6, 50667, Control_c, 3, 1, 6
6, 50690, Control_c, 3, 1, 3
6, 50712, Control_c, 3, 1, 2
6, 50715, Note_on_c, 3, 61, 0
6, 50752, Control_c, 3, 1, 6
6, 50777, Control_c, 3, 1, 9
6, 50800, Control_c, 3, 1, 13
6, 50822, Control_c, 3, 1, 21
6, 50847, Control_c, 3, 1, 29
6, 50870, Control_c, 3, 1, 34
6, 50880, Note_on_c, 3, 63, 118
6, 50892, Control_c, 3, 1, 42
6, 50915, Control_c, 3, 1, 52
6, 50937, Control_c, 3, 1, 58
6, 50960, Control_c, 3, 1, 60
6, 51017, Control_c, 3, 1, 61
6, 51045, Control_c, 3, 1, 62
6, 51092, Control_c, 3, 1, 55
6, 51105, Note_on_c, 3, 63, 0
6, 51115, Control_c, 3, 1, 44
6, 51120, Note_on_c, 3, 61, 98
6, 51137, Control_c, 3, 1, 30
6, 51160, Control_c, 3, 1, 16
6, 51182, Control_c, 3, 1, 7
6, 51195, Note_on_c, 3, 61, 0
6, 51210, Control_c, 3, 1, 6
6, 51237, Control_c, 3, 1, 13
6, 51275, Control_c, 3, 1, 18
6, 51297, Control_c, 3, 1, 21
6, 51315, Control_c, 3, 1, 26
6, 51352, Control_c, 3, 1, 9
6, 51360, Note_on_c, 3, 63, 116
6, 51382, Control_c, 3, 1, 0
6, 51432, Note_on_c, 3, 63, 0
6, 51567, Pitch_bend_c, 3, 6912
6, 51587, Pitch_bend_c, 3, 4256
6, 51600, Note_on_c, 3, 65, 124
6, 51602, Pitch_bend_c, 3, 1696
6, 51620, Pitch_bend_c, 3, 0
6, 51672, Pitch_bend_c, 3, 1856
6, 51695, Pitch_bend_c, 3, 5600
6, 51727, Pitch_bend_c, 3, 7456
6, 51742, Pitch_bend_c, 3, 8000
6, 51750, Pitch_bend_c, 3, 8192
6, 51835, Pitch_bend_c, 3, 7040
6, 51865, Note_on_c, 3, 65, 0
6, 51865, Pitch_bend_c, 3, 6240
6, 51897, Pitch_bend_c, 3, 6272
6, 51905, Pitch_bend_c, 3, 7552
6, 51935, Pitch_bend_c, 3, 8160
6, 51950, Pitch_bend_c, 3, 8192
6, 53012, Control_c, 3, 1, 34
6, 53040, Note_on_c, 3, 61, 127
6, 53050, Control_c, 3, 1, 53
6, 53075, Control_c, 3, 1, 62
6, 53105, Control_c, 3, 1, 51
6, 53147, Control_c, 3, 1, 60
6, 53185, Control_c, 3, 1, 63
6, 53212, Control_c, 3, 1, 65
6, 53240, Note_on_c, 3, 61, 0
6, 53250, Control_c, 3, 1, 42
6, 53272, Control_c, 3, 1, 14
6, 53280, Note_on_c, 3, 63, 110
6, 53297, Control_c, 3, 1, 0
6, 53420, Note_on_c, 3, 63, 0
6, 53480, Pitch_bend_c, 3, 4000
6, 53510, Pitch_bend_c, 3, 192
6, 53520, Note_on_c, 3, 65, 121
6, 53532, Pitch_bend_c, 3, 0
6, 53572, Pitch_bend_c, 3, 3392
6, 53602, Pitch_bend_c, 3, 6976
6, 53632, Pitch_bend_c, 3, 8032
6, 53647, Pitch_bend_c, 3, 8192
6, 53780, Note_on_c, 3, 65, 0
6, 57360, Note_on_c, 3, 53, 124
6, 57467, Note_on_c, 3, 53, 0
6, 57600, Note_on_c, 3, 60, 124
6, 57600, Pitch_bend_c, 3, 2240
6, 57610, Pitch_bend_c, 3, 1952
6, 57627, Pitch_bend_c, 3, 3712
6, 57657, Pitch_bend_c, 3, 5760
6, 57680, Pitch_bend_c, 3, 6912
6, 57697, Pitch_bend_c, 3, 8160
6, 57717, Pitch_bend_c, 3, 8192
6, 57785, Note_on_c, 3, 60, 0
6, 57840, Note_on_c, 3, 60, 115
6, 58172, Note_on_c, 3, 60, 0
6, 58270, Pitch_bend_c, 3, 6880
6, 58292, Pitch_bend_c, 3, 1952
6, 58320, Note_on_c, 3, 60, 118
6, 58325, Pitch_bend_c, 3, 960
6, 58342, Pitch_bend_c, 3, 800
6, 58362, Pitch_bend_c, 3, 1152
6, 58380, Pitch_bend_c, 3, 2880
6, 58410, Pitch_bend_c, 3, 4800
6, 58432, Pitch_bend_c, 3, 7616
6, 58462, Pitch_bend_c, 3, 8000
6, 58470, Pitch_bend_c, 3, 8192
6, 58725, Note_on_c, 3, 60, 0
6, 58800, Note_on_c, 3, 58, 97
6, 58825, Control_c, 3, 1, 5
6, 58855, Control_c, 3, 1, 8
6, 58875, Control_c, 3, 1, 17
6, 58905, Control_c, 3, 1, 30
6, 58942, Control_c, 3, 1, 45
6, 58965, Control_c, 3, 1, 66
6, 58995, Control_c, 3, 1, 70
6, 59032, Note_on_c, 3, 58, 0
6, 59035, Control_c, 3, 1, 43
6, 59040, Note_on_c, 3, 56, 90
6, 59057, Control_c, 3, 1, 14
6, 59082, Control_c, 3, 1, 0
6, 59142, Note_on_c, 3, 56, 0
6, 59232, Pitch_bend_c, 3, 6560
6, 59255, Pitch_bend_c, 3, 2336
6, 59280, Note_on_c, 3, 60, 122
6, 59285, Pitch_bend_c, 3, 640
6, 59310, Pitch_bend_c, 3, 320
6, 59332, Pitch_bend_c, 3, 1376
6, 59355, Pitch_bend_c, 3, 3072
6, 59380, Pitch_bend_c, 3, 4256
6, 59395, Pitch_bend_c, 3, 6880
6, 59425, Pitch_bend_c, 3, 8096
6, 59447, Pitch_bend_c, 3, 8192
6, 59620, Note_on_c, 3, 60, 0
6, 59760, Note_on_c, 3, 60, 106
6, 59772, Control_c, 3, 1, 12
6, 59802, Control_c, 3, 1, 26
6, 59827, Control_c, 3, 1, 49
6, 59865, Control_c, 3, 1, 57
6, 59887, Control_c, 3, 1, 62
6, 59910, Control_c, 3, 1, 66
6, 59932, Control_c, 3, 1, 69
6, 59985, Control_c, 3, 1, 46
6, 60025, Control_c, 3, 1, 24
6, 60050, Control_c, 3, 1, 6
6, 60072, Control_c, 3, 1, 0
6, 60100, Note_on_c, 3, 60, 0
6, 60177, Pitch_bend_c, 3, 6592
6, 60202, Pitch_bend_c, 3, 3776
6, 60217, Pitch_bend_c, 3, 512
6, 60240, Note_on_c, 3, 60, 111
6, 60247, Pitch_bend_c, 3, 576
6, 60270, Pitch_bend_c, 3, 2560
6, 60300, Pitch_bend_c, 3, 3840
6, 60317, Pitch_bend_c, 3, 5312
6, 60335, Pitch_bend_c, 3, 7616
6, 60357, Pitch_bend_c, 3, 8032
6, 60365, Pitch_bend_c, 3, 8192
6, 60610, Control_c, 3, 1, 3
6, 60650, Control_c, 3, 1, 4
6, 60660, Note_on_c, 3, 60, 0
6, 60665, Control_c, 3, 1, 5
6, 60705, Control_c, 3, 1, 6
6, 60720, Note_on_c, 3, 58, 90
6, 60765, Control_c, 3, 1, 4
6, 60812, Control_c, 3, 1, 3
6, 60930, Note_on_c, 3, 58, 0
6, 60960, Note_on_c, 3, 56, 93
6, 61005, Control_c, 3, 1, 4
6, 61025, Control_c, 3, 1, 0
6, 61100, Note_on_c, 3, 56, 0
6, 61165, Control_c, 3, 1, 4
6, 61195, Control_c, 3, 1, 11
6, 61200, Note_on_c, 3, 53, 113
6, 61220, Control_c, 3, 1, 22
6, 61242, Control_c, 3, 1, 33
6, 61265, Control_c, 3, 1, 40
6, 61287, Control_c, 3, 1, 43
6, 61310, Control_c, 3, 1, 44
6, 61335, Control_c, 3, 1, 45
6, 61360, Control_c, 3, 1, 50
6, 61397, Control_c, 3, 1, 55
6, 61420, Control_c, 3, 1, 59
6, 61447, Control_c, 3, 1, 46
6, 61490, Control_c, 3, 1, 36
6, 61512, Control_c, 3, 1, 31
6, 61565, Control_c, 3, 1, 35
6, 61602, Note_on_c, 3, 53, 0
6, 61602, Control_c, 3, 1, 30
6, 61627, Control_c, 3, 1, 28
6, 61667, Control_c, 3, 1, 34
6, 61680, Note_on_c, 3, 55, 118
6, 61687, Control_c, 3, 1, 38
6, 61712, Control_c, 3, 1, 42
6, 61732, Control_c, 3, 1, 46
6, 61775, Control_c, 3, 1, 47
6, 61787, Control_c, 3, 1, 52
6, 61827, Control_c, 3, 1, 54
6, 61872, Control_c, 3, 1, 54
6, 61897, Control_c, 3, 1, 57
6, 61935, Control_c, 3, 1, 58
6, 61957, Control_c, 3, 1, 55
6, 61980, Control_c, 3, 1, 52
6, 62020, Control_c, 3, 1, 53
6, 62037, Control_c, 3, 1, 56
6, 62070, Note_on_c, 3, 55, 0
6, 62072, Control_c, 3, 1, 57
6, 62100, Control_c, 3, 1, 59
6, 62160, Note_on_c, 3, 56, 109
6, 62175, Control_c, 3, 1, 57
6, 62205, Control_c, 3, 1, 62
6, 62227, Control_c, 3, 1, 67
6, 62250, Control_c, 3, 1, 72
6, 62275, Control_c, 3, 1, 77
6, 62297, Control_c, 3, 1, 80
6, 62320, Control_c, 3, 1, 81
6, 62357, Control_c, 3, 1, 82
6, 62420, Control_c, 3, 1, 78
6, 62467, Control_c, 3, 1, 77
6, 62515, Control_c, 3, 1, 68
6, 62545, Control_c, 3, 1, 55
6, 62567, Control_c, 3, 1, 43
6, 62590, Control_c, 3, 1, 24
6, 62607, Note_on_c, 3, 56, 0
6, 62612, Control_c, 3, 1, 10
6, 62632, Control_c, 3, 1, 0
6, 62640, Note_on_c, 3, 58, 98
6, 62772, Note_on_c, 3, 58, 0
6, 62825, Pitch_bend_c, 3, 4736
6, 62855, Pitch_bend_c, 3, 1152
6, 62877, Pitch_bend_c, 3, 0
6, 62880, Note_on_c, 3, 60, 114
6, 62940, Pitch_bend_c, 3, 640
6, 62947, Pitch_bend_c, 3, 3296
6, 62977, Pitch_bend_c, 3, 4640
6, 62995, Pitch_bend_c, 3, 6112
6, 63012, Pitch_bend_c, 3, 7936
6, 63035, Pitch_bend_c, 3, 8160
6, 63042, Pitch_bend_c, 3, 8192
6, 63307, Control_c, 3, 1, 6
6, 63330, Control_c, 3, 1, 13
6, 63352, Control_c, 3, 1, 19
6, 63375, Control_c, 3, 1, 24
6, 63397, Control_c, 3, 1, 27
6, 63420, Control_c, 3, 1, 31
6, 63442, Control_c, 3, 1, 36
6, 63465, Control_c, 3, 1, 43
6, 63487, Control_c, 3, 1, 48
6, 63512, Control_c, 3, 1, 51
6, 63535, Control_c, 3, 1, 53
6, 63562, Control_c, 3, 1, 58
6, 63600, Control_c, 3, 1, 61
6, 63622, Control_c, 3, 1, 65
6, 63657, Control_c, 3, 1, 69
6, 63697, Control_c, 3, 1, 70
6, 63720, Control_c, 3, 1, 72
6, 63797, Control_c, 3, 1, 73
6, 63820, Control_c, 3, 1, 65
6, 63852, Control_c, 3, 1, 53
6, 63875, Control_c, 3, 1, 39
6, 63897, Control_c, 3, 1, 20
6, 63920, Control_c, 3, 1, 1
6, 63942, Control_c, 3, 1, 0
6, 63982, Note_on_c, 3, 60, 0
6, 65040, Note_on_c, 3, 58, 106
6, 65100, Note_on_c, 3, 58, 0
6, 65200, Pitch_bend_c, 3, 6336
6, 65222, Pitch_bend_c, 3, 1760
6, 65252, Pitch_bend_c, 3, 416
6, 65275, Pitch_bend_c, 3, 416
6, 65280, Note_on_c, 3, 65, 121
6, 65292, Pitch_bend_c, 3, 2240
6, 65322, Pitch_bend_c, 3, 4192
6, 65345, Pitch_bend_c, 3, 5632
6, 65362, Pitch_bend_c, 3, 8000
6, 65390, Pitch_bend_c, 3, 8192
6, 65492, Note_on_c, 3, 65, 0
6, 65520, Note_on_c, 3, 65, 121
6, 65587, Control_c, 3, 1, 12
6, 65625, Control_c, 3, 1, 15
6, 65655, Control_c, 3, 1, 24
6, 65692, Control_c, 3, 1, 31
6, 65720, Control_c, 3, 1, 35
6, 65740, Control_c, 3, 1, 38
6, 65762, Control_c, 3, 1, 42
6, 65787, Control_c, 3, 1, 36
6, 65807, Control_c, 3, 1, 22
6, 65835, Control_c, 3, 1, 0
6, 65857, Note_on_c, 3, 65, 0
6, 65960, Pitch_bend_c, 3, 7232
6, 65975, Pitch_bend_c, 3, 2176
6, 66000, Note_on_c, 3, 65, 126
6, 66005, Pitch_bend_c, 3, 800
6, 66022, Pitch_bend_c, 3, 320
6, 66045, Pitch_bend_c, 3, 1216
6, 66075, Pitch_bend_c, 3, 2720
6, 66100, Pitch_bend_c, 3, 4000
6, 66115, Pitch_bend_c, 3, 6976
6, 66145, Pitch_bend_c, 3, 8000
6, 66160, Pitch_bend_c, 3, 8192
6, 66325, Control_c, 3, 1, 7
6, 66345, Control_c, 3, 1, 17
6, 66370, Control_c, 3, 1, 26
6, 66392, Control_c, 3, 1, 34
6, 66412, Note_on_c, 3, 65, 0
6, 66415, Control_c, 3, 1, 40
6, 66437, Control_c, 3, 1, 44
6, 66457, Control_c, 3, 1, 52
6, 66480, Note_on_c, 3, 63, 115
6, 66485, Control_c, 3, 1, 57
6, 66505, Control_c, 3, 1, 67
6, 66530, Control_c, 3, 1, 73
6, 66555, Control_c, 3, 1, 78
6, 66592, Control_c, 3, 1, 80
6, 66637, Control_c, 3, 1, 73
6, 66662, Control_c, 3, 1, 61
6, 66665, Note_on_c, 3, 63, 0
6, 66685, Control_c, 3, 1, 49
6, 66707, Control_c, 3, 1, 38
6, 66720, Note_on_c, 3, 61, 106
6, 66730, Control_c, 3, 1, 29
6, 66755, Control_c, 3, 1, 21
6, 66777, Control_c, 3, 1, 9
6, 66800, Control_c, 3, 1, 0
6, 66810, Note_on_c, 3, 61, 0
6, 66897, Pitch_bend_c, 3, 6912
6, 66920, Pitch_bend_c, 3, 2432
6, 66950, Pitch_bend_c, 3, 1472
6, 66960, Note_on_c, 3, 65, 119
6, 66967, Pitch_bend_c, 3, 1920
6, 66990, Pitch_bend_c, 3, 3136
6, 67007, Pitch_bend_c, 3, 5760
6, 67037, Pitch_bend_c, 3, 7392
6, 67060, Pitch_bend_c, 3, 8160
6, 67075, Pitch_bend_c, 3, 8192
6, 67305, Note_on_c, 3, 65, 0
6, 67357, Pitch_bend_c, 3, 5600
6, 67387, Pitch_bend_c, 3, 2400
6, 67410, Pitch_bend_c, 3, 1632
6, 67430, Pitch_bend_c, 3, 1600
6, 67440, Note_on_c, 3, 65, 115
6, 67445, Pitch_bend_c, 3, 1920
6, 67462, Pitch_bend_c, 3, 3776
6, 67497, Pitch_bend_c, 3, 5536
6, 67527, Pitch_bend_c, 3, 6752
6, 67550, Pitch_bend_c, 3, 7712
6, 67580, Pitch_bend_c, 3, 7872
6, 67602, Pitch_bend_c, 3, 8032
6, 67622, Pitch_bend_c, 3, 8160
6, 67630, Pitch_bend_c, 3, 8192
6, 67792, Note_on_c, 3, 65, 0
6, 67872, Pitch_bend_c, 3, 6336
6, 67895, Pitch_bend_c, 3, 3680
6, 67912, Pitch_bend_c, 3, 1312
6, 67920, Note_on_c, 3, 65, 119
6, 67935, Pitch_bend_c, 3, 1120
6, 67955, Pitch_bend_c, 3, 1792
6, 67970, Pitch_bend_c, 3, 4672
6, 68000, Pitch_bend_c, 3, 7136
6, 68022, Pitch_bend_c, 3, 8096
6, 68037, Pitch_bend_c, 3, 8192
6, 68232, Control_c, 3, 1, 15
6, 68262, Control_c, 3, 1, 27
6, 68282, Control_c, 3, 1, 36
6, 68305, Control_c, 3, 1, 43
6, 68332, Control_c, 3, 1, 51
6, 68355, Note_on_c, 3, 65, 0
6, 68375, Control_c, 3, 1, 48
6, 68400, Note_on_c, 3, 63, 120
6, 68400, Control_c, 3, 1, 47
6, 68425, Control_c, 3, 1, 55
6, 68460, Control_c, 3, 1, 59
6, 68500, Control_c, 3, 1, 60
6, 68515, Control_c, 3, 1, 61
6, 68545, Control_c, 3, 1, 62
6, 68570, Control_c, 3, 1, 61
6, 68577, Note_on_c, 3, 63, 0
6, 68585, Control_c, 3, 1, 55
6, 68622, Control_c, 3, 1, 53
6, 68640, Note_on_c, 3, 61, 113
6, 68645, Control_c, 3, 1, 57
6, 68670, Control_c, 3, 1, 57
6, 68715, Control_c, 3, 1, 71
6, 68752, Control_c, 3, 1, 81
6, 68775, Control_c, 3, 1, 89
6, 68800, Control_c, 3, 1, 97
6, 68825, Control_c, 3, 1, 104
6, 68845, Control_c, 3, 1, 108
6, 68867, Control_c, 3, 1, 86
6, 68885, Note_on_c, 3, 61, 0
6, 68892, Control_c, 3, 1, 47
6, 68910, Control_c, 3, 1, 2
6, 68932, Control_c, 3, 1, 0
6, 70020, Pitch_bend_c, 3, 7200
6, 70035, Pitch_bend_c, 3, 2496
6, 70065, Pitch_bend_c, 3, 832
6, 70080, Note_on_c, 3, 68, 127
6, 70082, Pitch_bend_c, 3, 576
6, 70105, Pitch_bend_c, 3, 3136
6, 70135, Pitch_bend_c, 3, 5760
6, 70157, Pitch_bend_c, 3, 7360
6, 70175, Pitch_bend_c, 3, 8160
6, 70190, Pitch_bend_c, 3, 8192
6, 70362, Note_on_c, 3, 68, 0
6, 70482, Pitch_bend_c, 3, 8000
6, 70490, Pitch_bend_c, 3, 4576
6, 70520, Pitch_bend_c, 3, 2816
6, 70542, Pitch_bend_c, 3, 3936
6, 70560, Note_on_c, 3, 68, 123
6, 70572, Pitch_bend_c, 3, 5792
6, 70590, Pitch_bend_c, 3, 8032
6, 70612, Pitch_bend_c, 3, 8192
6, 70765, Control_c, 3, 1, 18
6, 70800, Control_c, 3, 1, 32
6, 70822, Control_c, 3, 1, 48
6, 70852, Control_c, 3, 1, 68
6, 70890, Control_c, 3, 1, 76
6, 70912, Control_c, 3, 1, 81
6, 70935, Control_c, 3, 1, 84
6, 70960, Control_c, 3, 1, 87
6, 70982, Control_c, 3, 1, 88
6, 71005, Control_c, 3, 1, 81
6, 71030, Control_c, 3, 1, 73
6, 71052, Control_c, 3, 1, 68
6, 71075, Control_c, 3, 1, 66
6, 71097, Control_c, 3, 1, 65
6, 71127, Control_c, 3, 1, 68
6, 71167, Control_c, 3, 1, 70
6, 71190, Control_c, 3, 1, 71
6, 71215, Control_c, 3, 1, 77
6, 71250, Control_c, 3, 1, 82
6, 71285, Control_c, 3, 1, 84
6, 71305, Control_c, 3, 1, 85
6, 71360, Control_c, 3, 1, 84
6, 71375, Control_c, 3, 1, 60
6, 71412, Control_c, 3, 1, 43
6, 71430, Control_c, 3, 1, 20
6, 71452, Control_c, 3, 1, 3
6, 71475, Control_c, 3, 1, 0
6, 71497, Note_on_c, 3, 68, 0
6, 71657, Pitch_bend_c, 3, 6816
6, 71680, Pitch_bend_c, 3, 2432
6, 71710, Pitch_bend_c, 3, 1152
6, 71727, Pitch_bend_c, 3, 992
6, 71750, Pitch_bend_c, 3, 3456
6, 71760, Note_on_c, 3, 65, 114
6, 71780, Pitch_bend_c, 3, 6016
6, 71802, Pitch_bend_c, 3, 8000
6, 71827, Pitch_bend_c, 3, 8192
6, 71967, Note_on_c, 3, 65, 0
6, 72000, Note_on_c, 3, 63, 104
6, 72005, Control_c, 3, 1, 25
6, 72045, Control_c, 3, 1, 56
6, 72082, Control_c, 3, 1, 70
6, 72105, Control_c, 3, 1, 83
6, 72127, Control_c, 3, 1, 92
6, 72150, Control_c, 3, 1, 99
6, 72172, Control_c, 3, 1, 104
6, 72187, Note_on_c, 3, 63, 0
6, 72197, Control_c, 3, 1, 101
6, 72220, Control_c, 3, 1, 68
6, 72240, Note_on_c, 3, 61, 106
6, 72245, Control_c, 3, 1, 25
6, 72267, Control_c, 3, 1, 7
6, 72285, Control_c, 3, 1, 0
6, 72415, Note_on_c, 3, 61, 0
6, 80400, Note_on_c, 3, 53, 109
6, 80472, Note_on_c, 3, 53, 0
6, 80592, Pitch_bend_c, 3, 5056
6, 80622, Pitch_bend_c, 3, 480
6, 80640, Note_on_c, 3, 60, 119
6, 80662, Pitch_bend_c, 3, 0
6, 80675, Pitch_bend_c, 3, 1312
6, 80712, Pitch_bend_c, 3, 4032
6, 80750, Pitch_bend_c, 3, 5440
6, 80767, Pitch_bend_c, 3, 6912
6, 80780, Pitch_bend_c, 3, 7936
6, 80795, Pitch_bend_c, 3, 8192
6, 81027, Note_on_c, 3, 60, 0
6, 81120, Note_on_c, 3, 60, 111
6, 81180, Note_on_c, 3, 60, 0
6, 81295, Control_c, 3, 1, 10
6, 81330, Control_c, 3, 1, 20
6, 81352, Control_c, 3, 1, 37
6, 81360, Note_on_c, 3, 60, 113
6, 81375, Control_c, 3, 1, 57
6, 81400, Control_c, 3, 1, 72
6, 81420, Control_c, 3, 1, 78
6, 81442, Control_c, 3, 1, 82
6, 81475, Control_c, 3, 1, 68
6, 81510, Control_c, 3, 1, 63
6, 81535, Control_c, 3, 1, 60
6, 81557, Control_c, 3, 1, 56
6, 81577, Control_c, 3, 1, 47
6, 81600, Control_c, 3, 1, 31
6, 81627, Control_c, 3, 1, 24
6, 81645, Control_c, 3, 1, 18
6, 81667, Control_c, 3, 1, 16
6, 81690, Control_c, 3, 1, 14
6, 81722, Control_c, 3, 1, 12
6, 81742, Control_c, 3, 1, 9
6, 81755, Note_on_c, 3, 60, 0
6, 81765, Control_c, 3, 1, 2
6, 81802, Control_c, 3, 1, 0
6, 81840, Note_on_c, 3, 58, 96
6, 81930, Note_on_c, 3, 58, 0
6, 82080, Note_on_c, 3, 56, 87
6, 82142, Note_on_c, 3, 56, 0
6, 82252, Pitch_bend_c, 3, 7840
6, 82267, Pitch_bend_c, 3, 3456
6, 82305, Pitch_bend_c, 3, 1472
6, 82320, Note_on_c, 3, 60, 119
6, 82320, Pitch_bend_c, 3, 0
6, 82377, Pitch_bend_c, 3, 640
6, 82392, Pitch_bend_c, 3, 1952
6, 82407, Pitch_bend_c, 3, 3520
6, 82425, Pitch_bend_c, 3, 8032
6, 82462, Pitch_bend_c, 3, 8192
6, 82725, Control_c, 3, 1, 9
6, 82747, Control_c, 3, 1, 21
6, 82775, Control_c, 3, 1, 31
6, 82797, Control_c, 3, 1, 43
6, 82820, Control_c, 3, 1, 51
6, 82840, Control_c, 3, 1, 55
6, 82865, Control_c, 3, 1, 60
6, 82887, Control_c, 3, 1, 64
6, 82910, Control_c, 3, 1, 67
6, 82930, Note_on_c, 3, 60, 0
6, 82932, Control_c, 3, 1, 57
6, 82950, Control_c, 3, 1, 18
6, 82975, Control_c, 3, 1, 0
6, 83040, Note_on_c, 3, 60, 115
6, 83120, Note_on_c, 3, 60, 0
6, 83200, Pitch_bend_c, 3, 7360
6, 83212, Pitch_bend_c, 3, 4960
6, 83230, Pitch_bend_c, 3, 0
6, 83280, Note_on_c, 3, 60, 118
6, 83325, Pitch_bend_c, 3, 2752
6, 83355, Pitch_bend_c, 3, 4416
6, 83370, Pitch_bend_c, 3, 8000
6, 83397, Pitch_bend_c, 3, 8192
6, 83590, Note_on_c, 3, 60, 0
6, 83730, Control_c, 3, 1, 17
6, 83760, Note_on_c, 3, 58, 108
6, 83765, Control_c, 3, 1, 33
6, 83787, Control_c, 3, 1, 52
6, 83810, Control_c, 3, 1, 67
6, 83832, Control_c, 3, 1, 74
6, 83850, Control_c, 3, 1, 80
6, 83877, Control_c, 3, 1, 64
6, 83900, Control_c, 3, 1, 32
6, 83925, Control_c, 3, 1, 0
6, 83962, Note_on_c, 3, 58, 0
6, 84662, Pitch_bend_c, 3, 6592
6, 84685, Pitch_bend_c, 3, 4096
6, 84700, Pitch_bend_c, 3, 1152
6, 84720, Note_on_c, 3, 60, 122
6, 84735, Pitch_bend_c, 3, 4640
6, 84772, Pitch_bend_c, 3, 6400
6, 84787, Pitch_bend_c, 3, 7712
6, 84805, Pitch_bend_c, 3, 8096
6, 84812, Pitch_bend_c, 3, 8192
6, 84917, Note_on_c, 3, 60, 0
6, 84960, Note_on_c, 3, 61, 112
6, 85045, Note_on_c, 3, 61, 0
6, 85045, Control_c, 3, 1, 4
6, 85067, Control_c, 3, 1, 9
6, 85087, Control_c, 3, 1, 13
6, 85110, Control_c, 3, 1, 17
6, 85132, Control_c, 3, 1, 26
6, 85162, Control_c, 3, 1, 33
6, 85187, Control_c, 3, 1, 57
6, 85200, Note_on_c, 3, 63, 118
6, 85227, Control_c, 3, 1, 68
6, 85252, Control_c, 3, 1, 74
6, 85275, Control_c, 3, 1, 80
6, 85312, Control_c, 3, 1, 83
6, 85350, Control_c, 3, 1, 76
6, 85380, Control_c, 3, 1, 64
6, 85402, Control_c, 3, 1, 44
6, 85430, Control_c, 3, 1, 30
6, 85452, Control_c, 3, 1, 20
6, 85470, Control_c, 3, 1, 6
6, 85492, Control_c, 3, 1, 0
6, 85527, Note_on_c, 3, 63, 0
6, 85632, Pitch_bend_c, 3, 3232
6, 85665, Pitch_bend_c, 3, 800
6, 85680, Note_on_c, 3, 65, 117
6, 85680, Pitch_bend_c, 3, 0
6, 85732, Pitch_bend_c, 3, 4160
6, 85770, Pitch_bend_c, 3, 6496
6, 85785, Pitch_bend_c, 3, 8000
6, 85802, Pitch_bend_c, 3, 8192
6, 85927, Note_on_c, 3, 65, 0
6, 86085, Pitch_bend_c, 3, 7840
6, 86100, Pitch_bend_c, 3, 2240
6, 86137, Pitch_bend_c, 3, 0
6, 86160, Note_on_c, 3, 60, 124
6, 86217, Pitch_bend_c, 3, 640
6, 86225, Pitch_bend_c, 3, 2432
6, 86240, Pitch_bend_c, 3, 7936
6, 86277, Pitch_bend_c, 3, 8192
6, 86382, Note_on_c, 3, 60, 0
6, 86400, Note_on_c, 3, 58, 105
6, 86510, Control_c, 3, 1, 10
6, 86532, Control_c, 3, 1, 21
6, 86555, Control_c, 3, 1, 30
6, 86577, Control_c, 3, 1, 41
6, 86597, Control_c, 3, 1, 51
6, 86617, Note_on_c, 3, 58, 0
6, 86622, Control_c, 3, 1, 33
6, 86645, Control_c, 3, 1, 2
6, 86665, Control_c, 3, 1, 0
6, 88080, Note_on_c, 3, 53, 110
6, 88155, Note_on_c, 3, 53, 0
6, 88215, Pitch_bend_c, 3, 6816
6, 88237, Pitch_bend_c, 3, 4320
6, 88252, Pitch_bend_c, 3, 0
6, 88317, Pitch_bend_c, 3, 192
6, 88320, Note_on_c, 3, 60, 122
6, 88327, Pitch_bend_c, 3, 1536
6, 88342, Pitch_bend_c, 3, 3040
6, 88357, Pitch_bend_c, 3, 7552
6, 88395, Pitch_bend_c, 3, 8032
6, 88402, Pitch_bend_c, 3, 8192
6, 88595, Control_c, 3, 1, 1
6, 88605, Control_c, 3, 1, 12
6, 88642, Control_c, 3, 1, 15
6, 88665, Control_c, 3, 1, 18
6, 88687, Note_on_c, 3, 60, 0
6, 88687, Control_c, 3, 1, 22
6, 88710, Control_c, 3, 1, 25
6, 88740, Control_c, 3, 1, 27
6, 88777, Control_c, 3, 1, 31
6, 88800, Note_on_c, 3, 60, 95
6, 88805, Control_c, 3, 1, 35
6, 88827, Control_c, 3, 1, 40
6, 88842, Note_on_c, 3, 60, 0
6, 88850, Control_c, 3, 1, 44
6, 88872, Control_c, 3, 1, 47
6, 88895, Control_c, 3, 1, 50
6, 88932, Control_c, 3, 1, 51
6, 88955, Control_c, 3, 1, 52
6, 88965, Control_c, 3, 1, 50
6, 88992, Control_c, 3, 1, 61
6, 89027, Control_c, 3, 1, 70
6, 89040, Note_on_c, 3, 60, 108
6, 89055, Control_c, 3, 1, 87
6, 89097, Control_c, 3, 1, 94
6, 89120, Control_c, 3, 1, 98
6, 89142, Control_c, 3, 1, 99
6, 89177, Control_c, 3, 1, 93
6, 89207, Control_c, 3, 1, 87
6, 89230, Control_c, 3, 1, 77
6, 89252, Control_c, 3, 1, 63
6, 89277, Control_c, 3, 1, 49
6, 89297, Control_c, 3, 1, 36
6, 89320, Control_c, 3, 1, 24
6, 89340, Control_c, 3, 1, 15
6, 89365, Control_c, 3, 1, 9
6, 89387, Control_c, 3, 1, 8
6, 89410, Control_c, 3, 1, 8
6, 89430, Control_c, 3, 1, 2
6, 89452, Note_on_c, 3, 60, 0
6, 89452, Control_c, 3, 1, 0
6, 89520, Note_on_c, 3, 58, 98
6, 89722, Note_on_c, 3, 58, 0
6, 89760, Note_on_c, 3, 56, 81
6, 89832, Note_on_c, 3, 56, 0
6, 89912, Pitch_bend_c, 3, 6560
6, 89932, Pitch_bend_c, 3, 4000
6, 89950, Pitch_bend_c, 3, 672
6, 89970, Pitch_bend_c, 3, 0
6, 90000, Note_on_c, 3, 60, 122
6, 90032, Pitch_bend_c, 3, 512
6, 90040, Pitch_bend_c, 3, 2176
6, 90055, Pitch_bend_c, 3, 6816
6, 90092, Pitch_bend_c, 3, 8032
6, 90107, Pitch_bend_c, 3, 8192
6, 90330, Control_c, 3, 1, 9
6, 90352, Control_c, 3, 1, 25
6, 90375, Control_c, 3, 1, 38
6, 90397, Control_c, 3, 1, 49
6, 90420, Control_c, 3, 1, 57
6, 90447, Control_c, 3, 1, 59
6, 90472, Control_c, 3, 1, 43
6, 90515, Control_c, 3, 1, 38
6, 90532, Control_c, 3, 1, 30
6, 90555, Control_c, 3, 1, 25
6, 90577, Control_c, 3, 1, 19
6, 90605, Control_c, 3, 1, 18
6, 90642, Control_c, 3, 1, 15
6, 90652, Note_on_c, 3, 60, 0
6, 90672, Control_c, 3, 1, 14
6, 90695, Control_c, 3, 1, 18
6, 90717, Control_c, 3, 1, 23
6, 90720, Note_on_c, 3, 60, 105
6, 90757, Control_c, 3, 1, 25
6, 90795, Control_c, 3, 1, 13
6, 90830, Control_c, 3, 1, 7
6, 90837, Note_on_c, 3, 60, 0
6, 90852, Control_c, 3, 1, 0
6, 90902, Pitch_bend_c, 3, 5120
6, 90930, Pitch_bend_c, 3, 2656
6, 90947, Pitch_bend_c, 3, 1280
6, 90960, Note_on_c, 3, 60, 114
6, 90967, Pitch_bend_c, 3, 1632
6, 90985, Pitch_bend_c, 3, 2816
6, 91000, Pitch_bend_c, 3, 6912
6, 91037, Pitch_bend_c, 3, 8032
6, 91052, Pitch_bend_c, 3, 8192
6, 91260, Note_on_c, 3, 60, 0
6, 91295, Control_c, 3, 1, 1
6, 91307, Control_c, 3, 1, 7
6, 91345, Control_c, 3, 1, 13
6, 91367, Control_c, 3, 1, 20
6, 91390, Control_c, 3, 1, 26
6, 91410, Control_c, 3, 1, 32
6, 91435, Control_c, 3, 1, 37
6, 91440, Note_on_c, 3, 58, 109
6, 91460, Control_c, 3, 1, 43
6, 91480, Control_c, 3, 1, 50
6, 91502, Control_c, 3, 1, 56
6, 91525, Control_c, 3, 1, 62
6, 91545, Control_c, 3, 1, 69
6, 91567, Control_c, 3, 1, 78
6, 91592, Control_c, 3, 1, 85
6, 91615, Control_c, 3, 1, 89
6, 91642, Control_c, 3, 1, 24
6, 91655, Note_on_c, 3, 58, 0
6, 91680, Note_on_c, 3, 56, 95
6, 91680, Control_c, 3, 1, 0
6, 91760, Note_on_c, 3, 56, 0
6, 92330, Pitch_bend_c, 3, 7712
6, 92347, Pitch_bend_c, 3, 1632
6, 92382, Pitch_bend_c, 3, 256
6, 92400, Note_on_c, 3, 60, 117
6, 92415, Pitch_bend_c, 3, 2080
6, 92435, Pitch_bend_c, 3, 7360
6, 92472, Pitch_bend_c, 3, 7872
6, 92480, Pitch_bend_c, 3, 8192
6, 92625, Note_on_c, 3, 60, 0
6, 92637, Control_c, 3, 1, 11
6, 92640, Note_on_c, 3, 61, 110
6, 92675, Control_c, 3, 1, 14
6, 92705, Control_c, 3, 1, 2
6, 92730, Note_on_c, 3, 61, 0
6, 92745, Control_c, 3, 1, 0
6, 92810, Control_c, 3, 1, 4
6, 92832, Control_c, 3, 1, 13
6, 92852, Control_c, 3, 1, 28
6, 92875, Control_c, 3, 1, 46
6, 92880, Note_on_c, 3, 63, 113
6, 92897, Control_c, 3, 1, 61
6, 92922, Control_c, 3, 1, 70
6, 92945, Control_c, 3, 1, 75
6, 92967, Control_c, 3, 1, 78
6, 92990, Control_c, 3, 1, 80
6, 93047, Control_c, 3, 1, 60
6, 93077, Control_c, 3, 1, 31
6, 93100, Control_c, 3, 1, 9
6, 93122, Control_c, 3, 1, 0
6, 93155, Note_on_c, 3, 63, 0
6, 93320, Pitch_bend_c, 3, 7840
6, 93327, Pitch_bend_c, 3, 896
6, 93360, Note_on_c, 3, 65, 119
6, 93365, Pitch_bend_c, 3, 0
6, 93427, Pitch_bend_c, 3, 320
6, 93432, Pitch_bend_c, 3, 3520
6, 93470, Pitch_bend_c, 3, 5440
6, 93485, Pitch_bend_c, 3, 8160
6, 93515, Pitch_bend_c, 3, 8192
6, 93687, Note_on_c, 3, 65, 0
6, 93787, Pitch_bend_c, 3, 7072
6, 93802, Pitch_bend_c, 3, 4320
6, 93817, Pitch_bend_c, 3, 0
6, 93840, Note_on_c, 3, 60, 119
6, 93865, Pitch_bend_c, 3, 480
6, 93872, Pitch_bend_c, 3, 2016
6, 93887, Pitch_bend_c, 3, 6880
6, 93925, Pitch_bend_c, 3, 8096
6, 93937, Pitch_bend_c, 3, 8192
6, 94050, Control_c, 3, 1, 28
6, 94055, Note_on_c, 3, 60, 0
6, 94080, Note_on_c, 3, 58, 107
6, 94087, Control_c, 3, 1, 39
6, 94115, Control_c, 3, 1, 42
6, 94132, Control_c, 3, 1, 48
6, 94157, Control_c, 3, 1, 33
6, 94177, Note_on_c, 3, 58, 0
6, 94180, Control_c, 3, 1, 3
6, 94202, Control_c, 3, 1, 0
6, 95760, Note_on_c, 3, 58, 123
6, 95820, Note_on_c, 3, 58, 0
6, 96000, Note_on_c, 3, 65, 122
6, 96000, Pitch_bend_c, 3, 7936
6, 96007, Pitch_bend_c, 3, 1376
6, 96022, Pitch_bend_c, 3, 1760
6, 96045, Pitch_bend_c, 3, 3232
6, 96060, Pitch_bend_c, 3, 5152
6, 96075, Pitch_bend_c, 3, 8000
6, 96107, Pitch_bend_c, 3, 8192
6, 96182, Note_on_c, 3, 65, 0
6, 96240, Note_on_c, 3, 63, 96
6, 96307, Note_on_c, 3, 63, 0
6, 96410, Control_c, 3, 1, 8
6, 96432, Control_c, 3, 1, 18
6, 96455, Control_c, 3, 1, 28
6, 96475, Control_c, 3, 1, 35
6, 96480, Note_on_c, 3, 63, 115
6, 96497, Control_c, 3, 1, 50
6, 96522, Control_c, 3, 1, 58
6, 96545, Control_c, 3, 1, 61
6, 96565, Control_c, 3, 1, 63
6, 96602, Control_c, 3, 1, 54
6, 96632, Control_c, 3, 1, 47
6, 96655, Control_c, 3, 1, 43
6, 96677, Control_c, 3, 1, 34
6, 96700, Note_on_c, 3, 63, 0
6, 96702, Control_c, 3, 1, 22
6, 96720, Note_on_c, 3, 61, 95
6, 96722, Control_c, 3, 1, 12
6, 96747, Control_c, 3, 1, 6
6, 96770, Control_c, 3, 1, 3
6, 96792, Control_c, 3, 1, 2
6, 96795, Note_on_c, 3, 61, 0
6, 96832, Control_c, 3, 1, 6
6, 96857, Control_c, 3, 1, 9
6, 96880, Control_c, 3, 1, 13
6, 96902, Control_c, 3, 1, 21
6, 96927, Control_c, 3, 1, 29
6, 96950, Control_c, 3, 1, 34
6, 96960, Note_on_c, 3, 63, 118
6, 96972, Control_c, 3, 1, 42
6, 96995, Control_c, 3, 1, 52
6, 97017, Control_c, 3, 1, 58
6, 97040, Control_c, 3, 1, 60
6, 97097, Control_c, 3, 1, 61
6, 97125, Control_c, 3, 1, 62
6, 97172, Control_c, 3, 1, 55
6, 97185, Note_on_c, 3, 63, 0
6, 97195, Control_c, 3, 1, 44
6, 97200, Note_on_c, 3, 61, 98
6, 97217, Control_c, 3, 1, 30
6, 97240, Control_c, 3, 1, 16
6, 97262, Control_c, 3, 1, 7
6, 97275, Note_on_c, 3, 61, 0
6, 97290, Control_c, 3, 1, 6
6, 97317, Control_c, 3, 1, 13
6, 97355, Control_c, 3, 1, 18
6, 97377, Control_c, 3, 1, 21
6, 97395, Control_c, 3, 1, 26
6, 97432, Control_c, 3, 1, 9
6, 97440, Note_on_c, 3, 63, 116
6, 97462, Control_c, 3, 1, 0
6, 97512, Note_on_c, 3, 63, 0
6, 97647, Pitch_bend_c, 3, 6912
6, 97667, Pitch_bend_c, 3, 1696
6, 97680, Note_on_c, 3, 65, 124
6, 97700, Pitch_bend_c, 3, 0
6, 97752, Pitch_bend_c, 3, 1856
6, 97775, Pitch_bend_c, 3, 3616
6, 97790, Pitch_bend_c, 3, 5600
6, 97807, Pitch_bend_c, 3, 8000
6, 97830, Pitch_bend_c, 3, 8192
6, 97915, Pitch_bend_c, 3, 7872
6, 97930, Pitch_bend_c, 3, 6240
6, 97945, Note_on_c, 3, 65, 0
6, 97977, Pitch_bend_c, 3, 6272
6, 97985, Pitch_bend_c, 3, 6752
6, 98000, Pitch_bend_c, 3, 8160
6, 98030, Pitch_bend_c, 3, 8192
6, 99092, Control_c, 3, 1, 34
6, 99120, Note_on_c, 3, 61, 127
6, 99130, Control_c, 3, 1, 53
6, 99155, Control_c, 3, 1, 62
6, 99185, Control_c, 3, 1, 51
6, 99227, Control_c, 3, 1, 60
6, 99265, Control_c, 3, 1, 63
6, 99292, Control_c, 3, 1, 65
6, 99320, Note_on_c, 3, 61, 0
6, 99330, Control_c, 3, 1, 42
6, 99352, Control_c, 3, 1, 14
6, 99360, Note_on_c, 3, 63, 110
6, 99377, Control_c, 3, 1, 0
6, 99500, Note_on_c, 3, 63, 0
6, 99560, Pitch_bend_c, 3, 4000
6, 99590, Pitch_bend_c, 3, 192
6, 99600, Note_on_c, 3, 65, 121
6, 99612, Pitch_bend_c, 3, 0
6, 99652, Pitch_bend_c, 3, 3392
6, 99682, Pitch_bend_c, 3, 5216
6, 99697, Pitch_bend_c, 3, 8032
6, 99727, Pitch_bend_c, 3, 8192
6, 99860, Note_on_c, 3, 65, 0
6, 103440, Note_on_c, 3, 53, 124
6, 103547, Note_on_c, 3, 53, 0
6, 103680, Note_on_c, 3, 60, 124
6, 103680, Pitch_bend_c, 3, 2240
6, 103690, Pitch_bend_c, 3, 1952
6, 103707, Pitch_bend_c, 3, 2592
6, 103722, Pitch_bend_c, 3, 5760
6, 103760, Pitch_bend_c, 3, 6912
6, 103777, Pitch_bend_c, 3, 7872
6, 103792, Pitch_bend_c, 3, 8160
6, 103797, Pitch_bend_c, 3, 8192
6, 103865, Note_on_c, 3, 60, 0
6, 103920, Note_on_c, 3, 60, 115
6, 104252, Note_on_c, 3, 60, 0
6, 104350, Pitch_bend_c, 3, 6880
6, 104372, Pitch_bend_c, 3, 4256
6, 104387, Pitch_bend_c, 3, 1952
6, 104400, Note_on_c, 3, 60, 118
6, 104405, Pitch_bend_c, 3, 960
6, 104422, Pitch_bend_c, 3, 800
6, 104442, Pitch_bend_c, 3, 1152
6, 104460, Pitch_bend_c, 3, 1920
6, 104475, Pitch_bend_c, 3, 4800
6, 104512, Pitch_bend_c, 3, 6272
6, 104527, Pitch_bend_c, 3, 8000
6, 104550, Pitch_bend_c, 3, 8192
6, 104805, Note_on_c, 3, 60, 0
6, 104880, Note_on_c, 3, 58, 97
6, 104905, Control_c, 3, 1, 5
6, 104935, Control_c, 3, 1, 8
6, 104955, Control_c, 3, 1, 17
6, 104985, Control_c, 3, 1, 30
6, 105022, Control_c, 3, 1, 45
6, 105045, Control_c, 3, 1, 66
6, 105075, Control_c, 3, 1, 70
6, 105112, Note_on_c, 3, 58, 0
6, 105115, Control_c, 3, 1, 43
6, 105120, Note_on_c, 3, 56, 90
6, 105137, Control_c, 3, 1, 14
6, 105162, Control_c, 3, 1, 0
6, 105222, Note_on_c, 3, 56, 0
6, 105312, Pitch_bend_c, 3, 6560
6, 105335, Pitch_bend_c, 3, 4320
6, 105350, Pitch_bend_c, 3, 640
6, 105360, Note_on_c, 3, 60, 122
6, 105390, Pitch_bend_c, 3, 320
6, 105412, Pitch_bend_c, 3, 512
6, 105420, Pitch_bend_c, 3, 3072
6, 105460, Pitch_bend_c, 3, 4256
6, 105475, Pitch_bend_c, 3, 5536
6, 105490, Pitch_bend_c, 3, 8096
6, 105527, Pitch_bend_c, 3, 8192
6, 105700, Note_on_c, 3, 60, 0
6, 105840, Note_on_c, 3, 60, 106
6, 105852, Control_c, 3, 1, 12
6, 105882, Control_c, 3, 1, 26
6, 105907, Control_c, 3, 1, 49
6, 105945, Control_c, 3, 1, 57
6, 105967, Control_c, 3, 1, 62
6, 105990, Control_c, 3, 1, 66
6, 106012, Control_c, 3, 1, 69
6, 106065, Control_c, 3, 1, 46
6, 106105, Control_c, 3, 1, 24
6, 106130, Control_c, 3, 1, 6
6, 106152, Control_c, 3, 1, 0
6, 106180, Note_on_c, 3, 60, 0
6, 106257, Pitch_bend_c, 3, 6592
6, 106282, Pitch_bend_c, 3, 3776
6, 106297, Pitch_bend_c, 3, 512
6, 106320, Note_on_c, 3, 60, 111
6, 106327, Pitch_bend_c, 3, 576
6, 106350, Pitch_bend_c, 3, 1376
6, 106365, Pitch_bend_c, 3, 3840
6, 106397, Pitch_bend_c, 3, 5312
6, 106415, Pitch_bend_c, 3, 7616
6, 106437, Pitch_bend_c, 3, 8032
6, 106445, Pitch_bend_c, 3, 8192
6, 106690, Control_c, 3, 1, 3
6, 106730, Control_c, 3, 1, 4
6, 106740, Note_on_c, 3, 60, 0
6, 106745, Control_c, 3, 1, 5
6, 106785, Control_c, 3, 1, 6
6, 106800, Note_on_c, 3, 58, 90
6, 106845, Control_c, 3, 1, 4
6, 106892, Control_c, 3, 1, 3
6, 107010, Note_on_c, 3, 58, 0
6, 107040, Note_on_c, 3, 56, 93
6, 107085, Control_c, 3, 1, 4
6, 107105, Control_c, 3, 1, 0
6, 107180, Note_on_c, 3, 56, 0
6, 107245, Control_c, 3, 1, 4
6, 107275, Control_c, 3, 1, 11
6, 107280, Note_on_c, 3, 53, 113
6, 107300, Control_c, 3, 1, 22
6, 107322, Control_c, 3, 1, 33
6, 107345, Control_c, 3, 1, 40
6, 107367, Control_c, 3, 1, 43
6, 107390, Control_c, 3, 1, 44
6, 107415, Control_c, 3, 1, 45
6, 107440, Control_c, 3, 1, 50
6, 107477, Control_c, 3, 1, 55
6, 107500, Control_c, 3, 1, 59
6, 107527, Control_c, 3, 1, 46
6, 107570, Control_c, 3, 1, 36
6, 107592, Control_c, 3, 1, 31
6, 107645, Control_c, 3, 1, 35
6, 107682, Note_on_c, 3, 53, 0
6, 107682, Control_c, 3, 1, 30
6, 107707, Control_c, 3, 1, 28
6, 107747, Control_c, 3, 1, 34
6, 107760, Note_on_c, 3, 55, 118
6, 107767, Control_c, 3, 1, 38
6, 107792, Control_c, 3, 1, 42
6, 107812, Control_c, 3, 1, 46
6, 107855, Control_c, 3, 1, 47
6, 107867, Control_c, 3, 1, 52
6, 107907, Control_c, 3, 1, 54
6, 107952, Control_c, 3, 1, 54
6, 107977, Control_c, 3, 1, 57
6, 108015, Control_c, 3, 1, 58
6, 108037, Control_c, 3, 1, 55
6, 108060, Control_c, 3, 1, 52
6, 108100, Control_c, 3, 1, 53
6, 108117, Control_c, 3, 1, 56
6, 108150, Note_on_c, 3, 55, 0
6, 108152, Control_c, 3, 1, 57
6, 108180, Control_c, 3, 1, 59
6, 108240, Note_on_c, 3, 56, 109
6, 108255, Control_c, 3, 1, 57
6, 108285, Control_c, 3, 1, 62
6, 108307, Control_c, 3, 1, 67
6, 108330, Control_c, 3, 1, 72
6, 108355, Control_c, 3, 1, 77
6, 108377, Control_c, 3, 1, 80
6, 108400, Control_c, 3, 1, 81
6, 108437, Control_c, 3, 1, 82
6, 108500, Control_c, 3, 1, 78
6, 108547, Control_c, 3, 1, 77
6, 108595, Control_c, 3, 1, 68
6, 108625, Control_c, 3, 1, 55
6, 108647, Control_c, 3, 1, 43
6, 108670, Control_c, 3, 1, 24
6, 108687, Note_on_c, 3, 56, 0
6, 108692, Control_c, 3, 1, 10
6, 108712, Control_c, 3, 1, 0
6, 108720, Note_on_c, 3, 58, 98
6, 108852, Note_on_c, 3, 58, 0
6, 108905, Pitch_bend_c, 3, 7232
6, 108920, Pitch_bend_c, 3, 1152
6, 108957, Pitch_bend_c, 3, 0
6, 108960, Note_on_c, 3, 60, 114
6, 109020, Pitch_bend_c, 3, 640
6, 109027, Pitch_bend_c, 3, 2016
6, 109042, Pitch_bend_c, 3, 4640
6, 109075, Pitch_bend_c, 3, 6112
6, 109092, Pitch_bend_c, 3, 7936
6, 109115, Pitch_bend_c, 3, 8160
6, 109122, Pitch_bend_c, 3, 8192
6, 109387, Control_c, 3, 1, 6
6, 109410, Control_c, 3, 1, 13
6, 109432, Control_c, 3, 1, 19
6, 109455, Control_c, 3, 1, 24
6, 109477, Control_c, 3, 1, 27
6, 109500, Control_c, 3, 1, 31
6, 109522, Control_c, 3, 1, 36
6, 109545, Control_c, 3, 1, 43
6, 109567, Control_c, 3, 1, 48
6, 109592, Control_c, 3, 1, 51
6, 109615, Control_c, 3, 1, 53
6, 109642, Control_c, 3, 1, 58
6, 109680, Control_c, 3, 1, 61
6, 109702, Control_c, 3, 1, 65
6, 109737, Control_c, 3, 1, 69
6, 109777, Control_c, 3, 1, 70
6, 109800, Control_c, 3, 1, 72
6, 109877, Control_c, 3, 1, 73
6, 109900, Control_c, 3, 1, 65
6, 109932, Control_c, 3, 1, 53
6, 109955, Control_c, 3, 1, 39
6, 109977, Control_c, 3, 1, 20
6, 110000, Control_c, 3, 1, 1
6, 110022, Control_c, 3, 1, 0
6, 110062, Note_on_c, 3, 60, 0
6, 111120, Note_on_c, 3, 58, 106
6, 111180, Note_on_c, 3, 58, 0
6, 111280, Pitch_bend_c, 3, 6336
6, 111302, Pitch_bend_c, 3, 3776
6, 111317, Pitch_bend_c, 3, 416
6, 111355, Pitch_bend_c, 3, 416
6, 111360, Note_on_c, 3, 65, 121
6, 111372, Pitch_bend_c, 3, 1056
6, 111387, Pitch_bend_c, 3, 4192
6, 111425, Pitch_bend_c, 3, 5632
6, 111442, Pitch_bend_c, 3, 8000
6, 111470, Pitch_bend_c, 3, 8192
6, 111572, Note_on_c, 3, 65, 0
6, 111600, Note_on_c, 3, 65, 121
6, 111667, Control_c, 3, 1, 12
6, 111705, Control_c, 3, 1, 15
6, 111735, Control_c, 3, 1, 24
6, 111772, Control_c, 3, 1, 31
6, 111800, Control_c, 3, 1, 35
6, 111820, Control_c, 3, 1, 38
6, 111842, Control_c, 3, 1, 42
6, 111867, Control_c, 3, 1, 36
6, 111887, Control_c, 3, 1, 22
6, 111915, Control_c, 3, 1, 0
6, 111937, Note_on_c, 3, 65, 0
6, 112040, Pitch_bend_c, 3, 7232
6, 112055, Pitch_bend_c, 3, 4672
6, 112070, Pitch_bend_c, 3, 800
6, 112080, Note_on_c, 3, 65, 126
6, 112102, Pitch_bend_c, 3, 320
6, 112125, Pitch_bend_c, 3, 512
6, 112140, Pitch_bend_c, 3, 2720
6, 112180, Pitch_bend_c, 3, 4000
6, 112195, Pitch_bend_c, 3, 5440
6, 112210, Pitch_bend_c, 3, 8000
6, 112240, Pitch_bend_c, 3, 8192
6, 112405, Control_c, 3, 1, 7
6, 112425, Control_c, 3, 1, 17
6, 112450, Control_c, 3, 1, 26
6, 112472, Control_c, 3, 1, 34
6, 112492, Note_on_c, 3, 65, 0
6, 112495, Control_c, 3, 1, 40
6, 112517, Control_c, 3, 1, 44
6, 112537, Control_c, 3, 1, 52
6, 112560, Note_on_c, 3, 63, 115
6, 112565, Control_c, 3, 1, 57
6, 112585, Control_c, 3, 1, 67
6, 112610, Control_c, 3, 1, 73
6, 112635, Control_c, 3, 1, 78
6, 112672, Control_c, 3, 1, 80
6, 112717, Control_c, 3, 1, 73
6, 112742, Control_c, 3, 1, 61
6, 112745, Note_on_c, 3, 63, 0
6, 112765, Control_c, 3, 1, 49
6, 112787, Control_c, 3, 1, 38
6, 112800, Note_on_c, 3, 61, 106
6, 112810, Control_c, 3, 1, 29
6, 112835, Control_c, 3, 1, 21
6, 112857, Control_c, 3, 1, 9
6, 112880, Control_c, 3, 1, 0
6, 112890, Note_on_c, 3, 61, 0
6, 112977, Pitch_bend_c, 3, 6912
6, 113000, Pitch_bend_c, 3, 4576
6, 113015, Pitch_bend_c, 3, 1472
6, 113040, Note_on_c, 3, 65, 119
6, 113047, Pitch_bend_c, 3, 1920
6, 113070, Pitch_bend_c, 3, 3136
6, 113087, Pitch_bend_c, 3, 4576
6, 113102, Pitch_bend_c, 3, 7392
6, 113140, Pitch_bend_c, 3, 8160
6, 113155, Pitch_bend_c, 3, 8192
6, 113385, Note_on_c, 3, 65, 0
6, 113437, Pitch_bend_c, 3, 7616
6, 113452, Pitch_bend_c, 3, 2400
6, 113490, Pitch_bend_c, 3, 1632
6, 113510, Pitch_bend_c, 3, 1600
6, 113520, Note_on_c, 3, 65, 115
6, 113525, Pitch_bend_c, 3, 1920
6, 113542, Pitch_bend_c, 3, 3776
6, 113577, Pitch_bend_c, 3, 4576
6, 113592, Pitch_bend_c, 3, 6752
6, 113630, Pitch_bend_c, 3, 7296
6, 113645, Pitch_bend_c, 3, 7872
6, 113682, Pitch_bend_c, 3, 8032
6, 113702, Pitch_bend_c, 3, 8160
6, 113710, Pitch_bend_c, 3, 8192
6, 113872, Note_on_c, 3, 65, 0
6, 113952, Pitch_bend_c, 3, 7936
6, 113960, Pitch_bend_c, 3, 3680
6, 113992, Pitch_bend_c, 3, 1312
6, 114000, Note_on_c, 3, 65, 119
6, 114015, Pitch_bend_c, 3, 1120
6, 114035, Pitch_bend_c, 3, 1792
6, 114050, Pitch_bend_c, 3, 3136
6, 114065, Pitch_bend_c, 3, 7136
6, 114102, Pitch_bend_c, 3, 8096
6, 114117, Pitch_bend_c, 3, 8192
6, 114312, Control_c, 3, 1, 15
6, 114342, Control_c, 3, 1, 27
6, 114362, Control_c, 3, 1, 36
6, 114385, Control_c, 3, 1, 43
6, 114412, Control_c, 3, 1, 51
6, 114435, Note_on_c, 3, 65, 0
6, 114455, Control_c, 3, 1, 48
6, 114480, Note_on_c, 3, 63, 120
6, 114480, Control_c, 3, 1, 47
6, 114505, Control_c, 3, 1, 55
6, 114540, Control_c, 3, 1, 59
6, 114580, Control_c, 3, 1, 60
6, 114595, Control_c, 3, 1, 61
6, 114625, Control_c, 3, 1, 62
6, 114650, Control_c, 3, 1, 61
6, 114657, Note_on_c, 3, 63, 0
6, 114665, Control_c, 3, 1, 55
6, 114702, Control_c, 3, 1, 53
6, 114720, Note_on_c, 3, 61, 113
6, 114725, Control_c, 3, 1, 57
6, 114750, Control_c, 3, 1, 57
6, 114795, Control_c, 3, 1, 71
6, 114832, Control_c, 3, 1, 81
6, 114855, Control_c, 3, 1, 89
6, 114880, Control_c, 3, 1, 97
6, 114905, Control_c, 3, 1, 104
6, 114925, Control_c, 3, 1, 108
6, 114947, Control_c, 3, 1, 86
6, 114965, Note_on_c, 3, 61, 0
6, 114972, Control_c, 3, 1, 47
6, 114990, Control_c, 3, 1, 2
6, 115012, Control_c, 3, 1, 0
6, 116100, Pitch_bend_c, 3, 7200
6, 116115, Pitch_bend_c, 3, 4832
6, 116130, Pitch_bend_c, 3, 832
6, 116160, Note_on_c, 3, 68, 127
6, 116162, Pitch_bend_c, 3, 576
6, 116185, Pitch_bend_c, 3, 1536
6, 116200, Pitch_bend_c, 3, 5760
6, 116237, Pitch_bend_c, 3, 7360
6, 116255, Pitch_bend_c, 3, 8160
6, 116270, Pitch_bend_c, 3, 8192
6, 116442, Note_on_c, 3, 68, 0
6, 116562, Pitch_bend_c, 3, 8000
6, 116570, Pitch_bend_c, 3, 6656
6, 116585, Pitch_bend_c, 3, 2816
6, 116622, Pitch_bend_c, 3, 2880
6, 116637, Pitch_bend_c, 3, 5792
6, 116640, Note_on_c, 3, 68, 123
6, 116670, Pitch_bend_c, 3, 8032
6, 116692, Pitch_bend_c, 3, 8192
6, 116845, Control_c, 3, 1, 18
6, 116880, Control_c, 3, 1, 32
6, 116902, Control_c, 3, 1, 48
6, 116932, Control_c, 3, 1, 68
6, 116970, Control_c, 3, 1, 76
6, 116992, Control_c, 3, 1, 81
6, 117015, Control_c, 3, 1, 84
6, 117040, Control_c, 3, 1, 87
6, 117062, Control_c, 3, 1, 88
6, 117085, Control_c, 3, 1, 81
6, 117110, Control_c, 3, 1, 73
6, 117132, Control_c, 3, 1, 68
6, 117155, Control_c, 3, 1, 66
6, 117177, Control_c, 3, 1, 65
6, 117207, Control_c, 3, 1, 68
6, 117247, Control_c, 3, 1, 70
6, 117270, Control_c, 3, 1, 71
6, 117295, Control_c, 3, 1, 77
6, 117330, Control_c, 3, 1, 82
6, 117365, Control_c, 3, 1, 84
6, 117385, Control_c, 3, 1, 85
6, 117440, Control_c, 3, 1, 84
6, 117455, Control_c, 3, 1, 60
6, 117492, Control_c, 3, 1, 43
6, 117510, Control_c, 3, 1, 20
6, 117532, Control_c, 3, 1, 3
6, 117555, Control_c, 3, 1, 0
6, 117577, Note_on_c, 3, 68, 0
6, 117737, Pitch_bend_c, 3, 6816
6, 117760, Pitch_bend_c, 3, 4512
6, 117775, Pitch_bend_c, 3, 1152
6, 117807, Pitch_bend_c, 3, 992
6, 117830, Pitch_bend_c, 3, 1920
6, 117840, Note_on_c, 3, 65, 114
6, 117845, Pitch_bend_c, 3, 6016
6, 117882, Pitch_bend_c, 3, 7552
6, 117897, Pitch_bend_c, 3, 8000
6, 117907, Pitch_bend_c, 3, 8192
6, 118047, Note_on_c, 3, 65, 0
6, 118080, Note_on_c, 3, 63, 104
6, 118085, Control_c, 3, 1, 25
6, 118125, Control_c, 3, 1, 56
6, 118162, Control_c, 3, 1, 70
6, 118185, Control_c, 3, 1, 83
6, 118207, Control_c, 3, 1, 92
6, 118230, Control_c, 3, 1, 99
6, 118252, Control_c, 3, 1, 104
6, 118267, Note_on_c, 3, 63, 0
6, 118277, Control_c, 3, 1, 101
6, 118300, Control_c, 3, 1, 68
6, 118320, Note_on_c, 3, 61, 106
6, 118325, Control_c, 3, 1, 25
6, 118347, Control_c, 3, 1, 7
6, 118365, Control_c, 3, 1, 0
6, 118495, Note_on_c, 3, 61, 0
6, 119040, Note_on_c, 3, 60, 124
6, 119040, Pitch_bend_c, 3, 1952
6, 119067, Pitch_bend_c, 3, 2592
6, 119082, Pitch_bend_c, 3, 3712
6, 119097, Pitch_bend_c, 3, 5760
6, 119120, Pitch_bend_c, 3, 6912
6, 119137, Pitch_bend_c, 3, 7872
6, 119152, Pitch_bend_c, 3, 8160
6, 119157, Pitch_bend_c, 3, 8192
6, 119225, Note_on_c, 3, 60, 0
6, 119280, Note_on_c, 3, 60, 115
6, 119612, Note_on_c, 3, 60, 0
6, 119710, Pitch_bend_c, 3, 6880
6, 119732, Pitch_bend_c, 3, 4256
6, 119747, Pitch_bend_c, 3, 1952
6, 119760, Note_on_c, 3, 60, 118
6, 119765, Pitch_bend_c, 3, 960
6, 119782, Pitch_bend_c, 3, 800
6, 119802, Pitch_bend_c, 3, 1152
6, 119820, Pitch_bend_c, 3, 1920
6, 119835, Pitch_bend_c, 3, 2880
6, 119850, Pitch_bend_c, 3, 4800
6, 119872, Pitch_bend_c, 3, 6272
6, 119887, Pitch_bend_c, 3, 7616
6, 119902, Pitch_bend_c, 3, 8000
6, 119910, Pitch_bend_c, 3, 8192
6, 120165, Note_on_c, 3, 60, 0
6, 120240, Note_on_c, 3, 58, 97
6, 120265, Control_c, 3, 1, 5
6, 120295, Control_c, 3, 1, 8
6, 120315, Control_c, 3, 1, 17
6, 120345, Control_c, 3, 1, 21
6, 120360, Control_c, 3, 1, 30
6, 120382, Control_c, 3, 1, 45
6, 120405, Control_c, 3, 1, 66
6, 120435, Control_c, 3, 1, 73
6, 120450, Control_c, 3, 1, 70
6, 120472, Note_on_c, 3, 58, 0
6, 120475, Control_c, 3, 1, 43
6, 120480, Note_on_c, 3, 56, 90
6, 120497, Control_c, 3, 1, 14
6, 120522, Control_c, 3, 1, 0
6, 120582, Note_on_c, 3, 56, 0
6, 120672, Pitch_bend_c, 3, 6560
6, 120695, Pitch_bend_c, 3, 4320
6, 120710, Pitch_bend_c, 3, 2336
6, 120720, Note_on_c, 3, 60, 122
6, 120725, Pitch_bend_c, 3, 640
6, 120750, Pitch_bend_c, 3, 320
6, 120772, Pitch_bend_c, 3, 1376
6, 120795, Pitch_bend_c, 3, 3072
6, 120820, Pitch_bend_c, 3, 5536
6, 120850, Pitch_bend_c, 3, 6880
6, 120865, Pitch_bend_c, 3, 8096
6, 120887, Pitch_bend_c, 3, 8192
6, 121060, Note_on_c, 3, 60, 0
6, 121200, Note_on_c, 3, 60, 106
6, 121212, Control_c, 3, 1, 12
6, 121242, Control_c, 3, 1, 26
6, 121267, Control_c, 3, 1, 36
6, 121282, Control_c, 3, 1, 49
6, 121305, Control_c, 3, 1, 57
6, 121327, Control_c, 3, 1, 62
6, 121350, Control_c, 3, 1, 66
6, 121372, Control_c, 3, 1, 69
6, 121425, Control_c, 3, 1, 64
6, 121440, Control_c, 3, 1, 46
6, 121465, Control_c, 3, 1, 24
6, 121490, Control_c, 3, 1, 6
6, 121512, Control_c, 3, 1, 0
6, 121540, Note_on_c, 3, 60, 0
6, 121617, Pitch_bend_c, 3, 6592
6, 121642, Pitch_bend_c, 3, 1536
6, 121670, Pitch_bend_c, 3, 512
6, 121680, Note_on_c, 3, 60, 111
6, 121687, Pitch_bend_c, 3, 576
6, 121710, Pitch_bend_c, 3, 1376
6, 121725, Pitch_bend_c, 3, 2560
6, 121740, Pitch_bend_c, 3, 3840
6, 121757, Pitch_bend_c, 3, 5312
6, 121775, Pitch_bend_c, 3, 7616
6, 121797, Pitch_bend_c, 3, 8032
6, 121805, Pitch_bend_c, 3, 8192
6, 122050, Control_c, 3, 1, 3
6, 122090, Control_c, 3, 1, 5
6, 122100, Note_on_c, 3, 60, 0
6, 122145, Control_c, 3, 1, 6
6, 122160, Note_on_c, 3, 58, 90
6, 122205, Control_c, 3, 1, 4
6, 122252, Control_c, 3, 1, 3
6, 122370, Note_on_c, 3, 58, 0
6, 122400, Note_on_c, 3, 56, 93
6, 122445, Control_c, 3, 1, 3
6, 122475, Control_c, 3, 1, 0
6, 122540, Note_on_c, 3, 56, 0
6, 122605, Control_c, 3, 1, 4
6, 122635, Control_c, 3, 1, 11
6, 122640, Note_on_c, 3, 53, 113
6, 122660, Control_c, 3, 1, 22
6, 122682, Control_c, 3, 1, 33
6, 122705, Control_c, 3, 1, 40
6, 122727, Control_c, 3, 1, 43
6, 122750, Control_c, 3, 1, 44
6, 122775, Control_c, 3, 1, 45
6, 122800, Control_c, 3, 1, 46
6, 122815, Control_c, 3, 1, 50
6, 122837, Control_c, 3, 1, 55
6, 122860, Control_c, 3, 1, 59
6, 122887, Control_c, 3, 1, 56
6, 122902, Control_c, 3, 1, 46
6, 122930, Control_c, 3, 1, 36
6, 122952, Control_c, 3, 1, 31
6, 123005, Control_c, 3, 1, 34
6, 123020, Control_c, 3, 1, 35
6, 123042, Note_on_c, 3, 53, 0
6, 123042, Control_c, 3, 1, 30
6, 123067, Control_c, 3, 1, 27
6, 123082, Control_c, 3, 1, 28
6, 123107, Control_c, 3, 1, 34
6, 123120, Note_on_c, 3, 55, 118
6, 123127, Control_c, 3, 1, 38
6, 123152, Control_c, 3, 1, 42
6, 123172, Control_c, 3, 1, 46
6, 123215, Control_c, 3, 1, 49
6, 123245, Control_c, 3, 1, 52
6, 123267, Control_c, 3, 1, 54
6, 123312, Control_c, 3, 1, 54
6, 123337, Control_c, 3, 1, 55
6, 123352, Control_c, 3, 1, 57
6, 123375, Control_c, 3, 1, 58
6, 123397, Control_c, 3, 1, 55
6, 123420, Control_c, 3, 1, 52
6, 123460, Control_c, 3, 1, 55
6, 123492, Control_c, 3, 1, 56
6, 123510, Note_on_c, 3, 55, 0
6, 123512, Control_c, 3, 1, 57
6, 123540, Control_c, 3, 1, 59
6, 123600, Note_on_c, 3, 56, 109
6, 123615, Control_c, 3, 1, 57
6, 123645, Control_c, 3, 1, 62
6, 123667, Control_c, 3, 1, 67
6, 123690, Control_c, 3, 1, 72
6, 123715, Control_c, 3, 1, 77
6, 123737, Control_c, 3, 1, 80
6, 123760, Control_c, 3, 1, 81
6, 123797, Control_c, 3, 1, 82
6, 123860, Control_c, 3, 1, 81
6, 123875, Control_c, 3, 1, 78
6, 123907, Control_c, 3, 1, 77
6, 123955, Control_c, 3, 1, 68
6, 123985, Control_c, 3, 1, 55
6, 124007, Control_c, 3, 1, 43
6, 124030, Control_c, 3, 1, 24
6, 124047, Note_on_c, 3, 56, 0
6, 124052, Control_c, 3, 1, 10
6, 124072, Control_c, 3, 1, 0
6, 124080, Note_on_c, 3, 58, 98
6, 124212, Note_on_c, 3, 58, 0
6, 124265, Pitch_bend_c, 3, 7232
6, 124280, Pitch_bend_c, 3, 4736
6, 124295, Pitch_bend_c, 3, 1152
6, 124317, Pitch_bend_c, 3, 0
6, 124320, Note_on_c, 3, 60, 114
6, 124380, Pitch_bend_c, 3, 2016
6, 124402, Pitch_bend_c, 3, 3296
6, 124417, Pitch_bend_c, 3, 4640
6, 124435, Pitch_bend_c, 3, 6112
6, 124452, Pitch_bend_c, 3, 7936
6, 124475, Pitch_bend_c, 3, 8160
6, 124482, Pitch_bend_c, 3, 8192
6, 124747, Control_c, 3, 1, 6
6, 124770, Control_c, 3, 1, 13
6, 124792, Control_c, 3, 1, 19
6, 124815, Control_c, 3, 1, 24
6, 124837, Control_c, 3, 1, 27
6, 124860, Control_c, 3, 1, 31
6, 124882, Control_c, 3, 1, 36
6, 124905, Control_c, 3, 1, 43
6, 124927, Control_c, 3, 1, 48
6, 124952, Control_c, 3, 1, 51
6, 124975, Control_c, 3, 1, 53
6, 125002, Control_c, 3, 1, 56
6, 125020, Control_c, 3, 1, 58
6, 125040, Control_c, 3, 1, 61
6, 125062, Control_c, 3, 1, 65
6, 125097, Control_c, 3, 1, 66
6, 125107, Control_c, 3, 1, 69
6, 125137, Control_c, 3, 1, 70
6, 125160, Control_c, 3, 1, 71
6, 125175, Control_c, 3, 1, 72
6, 125237, Control_c, 3, 1, 73
6, 125260, Control_c, 3, 1, 65
6, 125292, Control_c, 3, 1, 53
6, 125315, Control_c, 3, 1, 39
6, 125337, Control_c, 3, 1, 20
6, 125360, Control_c, 3, 1, 1
6, 125382, Control_c, 3, 1, 0
6, 125422, Note_on_c, 3, 60, 0
6, 126480, Note_on_c, 3, 58, 106
6, 126540, Note_on_c, 3, 58, 0
6, 126640, Pitch_bend_c, 3, 6336
6, 126662, Pitch_bend_c, 3, 3776
6, 126677, Pitch_bend_c, 3, 1760
6, 126692, Pitch_bend_c, 3, 416
6, 126715, Pitch_bend_c, 3, 416
6, 126720, Note_on_c, 3, 65, 121
6, 126732, Pitch_bend_c, 3, 1056
6, 126747, Pitch_bend_c, 3, 2240
6, 126762, Pitch_bend_c, 3, 4192
6, 126785, Pitch_bend_c, 3, 5632
6, 126802, Pitch_bend_c, 3, 7072
6, 126815, Pitch_bend_c, 3, 8000
6, 126830, Pitch_bend_c, 3, 8192
6, 126932, Note_on_c, 3, 65, 0
6, 126960, Note_on_c, 3, 65, 121
6, 127027, Control_c, 3, 1, 4
6, 127042, Control_c, 3, 1, 12
6, 127065, Control_c, 3, 1, 15
6, 127095, Control_c, 3, 1, 17
6, 127110, Control_c, 3, 1, 24
6, 127132, Control_c, 3, 1, 31
6, 127160, Control_c, 3, 1, 35
6, 127180, Control_c, 3, 1, 38
6, 127202, Control_c, 3, 1, 42
6, 127227, Control_c, 3, 1, 36
6, 127247, Control_c, 3, 1, 22
6, 127275, Control_c, 3, 1, 10
6, 127290, Control_c, 3, 1, 0
6, 127297, Note_on_c, 3, 65, 0
6, 127400, Pitch_bend_c, 3, 4672
6, 127430, Pitch_bend_c, 3, 2176
6, 127440, Note_on_c, 3, 65, 126
6, 127445, Pitch_bend_c, 3, 800
6, 127462, Pitch_bend_c, 3, 320
6, 127485, Pitch_bend_c, 3, 512
6, 127500, Pitch_bend_c, 3, 1216
6, 127515, Pitch_bend_c, 3, 2720
6, 127540, Pitch_bend_c, 3, 5440
6, 127570, Pitch_bend_c, 3, 6976
6, 127585, Pitch_bend_c, 3, 8000
6, 127600, Pitch_bend_c, 3, 8192
6, 127765, Control_c, 3, 1, 7
6, 127785, Control_c, 3, 1, 17
6, 127810, Control_c, 3, 1, 26
6, 127832, Control_c, 3, 1, 34
6, 127852, Note_on_c, 3, 65, 0
6, 127855, Control_c, 3, 1, 40
6, 127877, Control_c, 3, 1, 44
6, 127897, Control_c, 3, 1, 52
6, 127920, Note_on_c, 3, 63, 115
6, 127925, Control_c, 3, 1, 57
6, 127945, Control_c, 3, 1, 67
6, 127970, Control_c, 3, 1, 73
6, 127995, Control_c, 3, 1, 76
6, 128010, Control_c, 3, 1, 78
6, 128032, Control_c, 3, 1, 80
6, 128077, Control_c, 3, 1, 73
6, 128102, Control_c, 3, 1, 61
6, 128105, Note_on_c, 3, 63, 0
6, 128125, Control_c, 3, 1, 49
6, 128147, Control_c, 3, 1, 38
6, 128160, Note_on_c, 3, 61, 106
6, 128170, Control_c, 3, 1, 29
6, 128195, Control_c, 3, 1, 21
6, 128217, Control_c, 3, 1, 9
6, 128240, Control_c, 3, 1, 0
6, 128250, Note_on_c, 3, 61, 0
6, 128337, Pitch_bend_c, 3, 6912
6, 128360, Pitch_bend_c, 3, 4576
6, 128375, Pitch_bend_c, 3, 2432
6, 128390, Pitch_bend_c, 3, 1472
6, 128400, Note_on_c, 3, 65, 119
6, 128407, Pitch_bend_c, 3, 1920
6, 128430, Pitch_bend_c, 3, 3136
6, 128447, Pitch_bend_c, 3, 4576
6, 128462, Pitch_bend_c, 3, 5760
6, 128477, Pitch_bend_c, 3, 7392
6, 128500, Pitch_bend_c, 3, 8160
6, 128515, Pitch_bend_c, 3, 8192
6, 128745, Note_on_c, 3, 65, 0
6, 128797, Pitch_bend_c, 3, 7616
6, 128812, Pitch_bend_c, 3, 5600
6, 128827, Pitch_bend_c, 3, 2400
6, 128850, Pitch_bend_c, 3, 1632
6, 128870, Pitch_bend_c, 3, 1920
6, 128880, Note_on_c, 3, 65, 115
6, 128902, Pitch_bend_c, 3, 2592
6, 128915, Pitch_bend_c, 3, 3776
6, 128937, Pitch_bend_c, 3, 4576
6, 128952, Pitch_bend_c, 3, 5536
6, 128967, Pitch_bend_c, 3, 6752
6, 128990, Pitch_bend_c, 3, 7296
6, 129005, Pitch_bend_c, 3, 7712
6, 129020, Pitch_bend_c, 3, 7872
6, 129042, Pitch_bend_c, 3, 8032
6, 129062, Pitch_bend_c, 3, 8160
6, 129070, Pitch_bend_c, 3, 8192
6, 129232, Note_on_c, 3, 65, 0
6, 129312, Pitch_bend_c, 3, 6336
6, 129335, Pitch_bend_c, 3, 3680
6, 129352, Pitch_bend_c, 3, 1312
6, 129360, Note_on_c, 3, 65, 119
6, 129375, Pitch_bend_c, 3, 1120
6, 129395, Pitch_bend_c, 3, 3136
6, 129425, Pitch_bend_c, 3, 4672
6, 129440, Pitch_bend_c, 3, 7136
6, 129462, Pitch_bend_c, 3, 8096
6, 129477, Pitch_bend_c, 3, 8192
6, 129672, Control_c, 3, 1, 15
6, 129702, Control_c, 3, 1, 27
6, 129722, Control_c, 3, 1, 36
6, 129745, Control_c, 3, 1, 43
6, 129772, Control_c, 3, 1, 47
6, 129787, Control_c, 3, 1, 51
6, 129795, Note_on_c, 3, 65, 0
6, 129815, Control_c, 3, 1, 48
6, 129840, Note_on_c, 3, 63, 120
6, 129840, Control_c, 3, 1, 47
6, 129865, Control_c, 3, 1, 49
6, 129877, Control_c, 3, 1, 55
6, 129900, Control_c, 3, 1, 59
6, 129940, Control_c, 3, 1, 61
6, 129985, Control_c, 3, 1, 62
6, 130010, Control_c, 3, 1, 59
6, 130017, Note_on_c, 3, 63, 0
6, 130040, Control_c, 3, 1, 55
6, 130062, Control_c, 3, 1, 53
6, 130080, Note_on_c, 3, 61, 113
6, 130085, Control_c, 3, 1, 57
6, 130110, Control_c, 3, 1, 58
6, 130130, Control_c, 3, 1, 57
6, 130155, Control_c, 3, 1, 61
6, 130170, Control_c, 3, 1, 71
6, 130192, Control_c, 3, 1, 81
6, 130215, Control_c, 3, 1, 89
6, 130240, Control_c, 3, 1, 97
6, 130265, Control_c, 3, 1, 104
6, 130285, Control_c, 3, 1, 108
6, 130307, Control_c, 3, 1, 86
6, 130325, Note_on_c, 3, 61, 0
6, 130332, Control_c, 3, 1, 47
6, 130350, Control_c, 3, 1, 2
6, 130372, Control_c, 3, 1, 0
6, 131460, Pitch_bend_c, 3, 4832
6, 131490, Pitch_bend_c, 3, 2496
6, 131505, Pitch_bend_c, 3, 832
6, 131520, Note_on_c, 3, 68, 127
6, 131522, Pitch_bend_c, 3, 576
6, 131545, Pitch_bend_c, 3, 1536
6, 131560, Pitch_bend_c, 3, 3136
6, 131575, Pitch_bend_c, 3, 5760
6, 131597, Pitch_bend_c, 3, 7360
6, 131615, Pitch_bend_c, 3, 8160
6, 131630, Pitch_bend_c, 3, 8192
6, 131802, Note_on_c, 3, 68, 0
6, 131922, Pitch_bend_c, 3, 6656
6, 131945, Pitch_bend_c, 3, 4576
6, 131960, Pitch_bend_c, 3, 2816
6, 131982, Pitch_bend_c, 3, 2880
6, 131997, Pitch_bend_c, 3, 3936
6, 132000, Note_on_c, 3, 68, 123
6, 132012, Pitch_bend_c, 3, 5792
6, 132030, Pitch_bend_c, 3, 8032
6, 132052, Pitch_bend_c, 3, 8192
6, 132205, Control_c, 3, 1, 6
6, 132220, Control_c, 3, 1, 18
6, 132240, Control_c, 3, 1, 32
6, 132262, Control_c, 3, 1, 48
6, 132292, Control_c, 3, 1, 57
6, 132307, Control_c, 3, 1, 68
6, 132330, Control_c, 3, 1, 76
6, 132352, Control_c, 3, 1, 81
6, 132375, Control_c, 3, 1, 84
6, 132400, Control_c, 3, 1, 87
6, 132422, Control_c, 3, 1, 88
6, 132445, Control_c, 3, 1, 81
6, 132470, Control_c, 3, 1, 73
6, 132492, Control_c, 3, 1, 68
6, 132515, Control_c, 3, 1, 66
6, 132537, Control_c, 3, 1, 65
6, 132567, Control_c, 3, 1, 67
6, 132582, Control_c, 3, 1, 68
6, 132607, Control_c, 3, 1, 70
6, 132630, Control_c, 3, 1, 71
6, 132655, Control_c, 3, 1, 72
6, 132667, Control_c, 3, 1, 77
6, 132690, Control_c, 3, 1, 82
6, 132725, Control_c, 3, 1, 84
6, 132745, Control_c, 3, 1, 85
6, 132800, Control_c, 3, 1, 80
6, 132830, Control_c, 3, 1, 60
6, 132852, Control_c, 3, 1, 43
6, 132870, Control_c, 3, 1, 20
6, 132892, Control_c, 3, 1, 3
6, 132915, Control_c, 3, 1, 0
6, 132937, Note_on_c, 3, 68, 0
6, 133097, Pitch_bend_c, 3, 6816
6, 133120, Pitch_bend_c, 3, 4512
6, 133135, Pitch_bend_c, 3, 2432
6, 133150, Pitch_bend_c, 3, 1152
6, 133167, Pitch_bend_c, 3, 992
6, 133190, Pitch_bend_c, 3, 1920
6, 133200, Note_on_c, 3, 65, 114
6, 133205, Pitch_bend_c, 3, 3456
6, 133220, Pitch_bend_c, 3, 6016
6, 133242, Pitch_bend_c, 3, 7552
6, 133257, Pitch_bend_c, 3, 8000
6, 133267, Pitch_bend_c, 3, 8192
6, 133407, Note_on_c, 3, 65, 0
6, 133440, Note_on_c, 3, 63, 104
6, 133445, Control_c, 3, 1, 5
6, 133460, Control_c, 3, 1, 25
6, 133485, Control_c, 3, 1, 39
6, 133500, Control_c, 3, 1, 56
6, 133522, Control_c, 3, 1, 70
6, 133545, Control_c, 3, 1, 83
6, 133567, Control_c, 3, 1, 92
6, 133590, Control_c, 3, 1, 99
6, 133612, Control_c, 3, 1, 104
6, 133627, Note_on_c, 3, 63, 0
6, 133637, Control_c, 3, 1, 101
6, 133660, Control_c, 3, 1, 68
6, 133680, Note_on_c, 3, 61, 106
6, 133685, Control_c, 3, 1, 25
6, 133707, Control_c, 3, 1, 7
6, 133725, Control_c, 3, 1, 0
6, 133855, Note_on_c, 3, 61, 0
6, 165120, Note_on_c, 3, 60, 119
6, 165142, Pitch_bend_c, 3, 0
6, 165155, Pitch_bend_c, 3, 256
6, 165170, Pitch_bend_c, 3, 1312
6, 165192, Pitch_bend_c, 3, 2400
6, 165205, Pitch_bend_c, 3, 4032
6, 165230, Pitch_bend_c, 3, 5440
6, 165247, Pitch_bend_c, 3, 6912
6, 165260, Pitch_bend_c, 3, 7936
6, 165275, Pitch_bend_c, 3, 8192
6, 165507, Note_on_c, 3, 60, 0
6, 165600, Note_on_c, 3, 60, 111
6, 165660, Note_on_c, 3, 60, 0
6, 165775, Control_c, 3, 1, 3
6, 165790, Control_c, 3, 1, 10
6, 165810, Control_c, 3, 1, 20
6, 165832, Control_c, 3, 1, 37
6, 165840, Note_on_c, 3, 60, 113
6, 165855, Control_c, 3, 1, 57
6, 165880, Control_c, 3, 1, 72
6, 165900, Control_c, 3, 1, 78
6, 165922, Control_c, 3, 1, 82
6, 165955, Control_c, 3, 1, 79
6, 165967, Control_c, 3, 1, 68
6, 165990, Control_c, 3, 1, 63
6, 166015, Control_c, 3, 1, 60
6, 166037, Control_c, 3, 1, 56
6, 166057, Control_c, 3, 1, 47
6, 166080, Control_c, 3, 1, 31
6, 166107, Control_c, 3, 1, 24
6, 166125, Control_c, 3, 1, 18
6, 166147, Control_c, 3, 1, 16
6, 166170, Control_c, 3, 1, 14
6, 166202, Control_c, 3, 1, 12
6, 166222, Control_c, 3, 1, 9
6, 166235, Note_on_c, 3, 60, 0
6, 166245, Control_c, 3, 1, 7
6, 166260, Control_c, 3, 1, 2
6, 166282, Control_c, 3, 1, 0
6, 166320, Note_on_c, 3, 58, 96
6, 166410, Note_on_c, 3, 58, 0
6, 166560, Note_on_c, 3, 56, 87
6, 166622, Note_on_c, 3, 56, 0
6, 166732, Pitch_bend_c, 3, 7840
6, 166747, Pitch_bend_c, 3, 6560
6, 166762, Pitch_bend_c, 3, 3456
6, 166785, Pitch_bend_c, 3, 1472
6, 166800, Note_on_c, 3, 60, 119
6, 166800, Pitch_bend_c, 3, 192
6, 166815, Pitch_bend_c, 3, 0
6, 166857, Pitch_bend_c, 3, 640
6, 166872, Pitch_bend_c, 3, 1952
6, 166887, Pitch_bend_c, 3, 3520
6, 166905, Pitch_bend_c, 3, 5600
6, 166920, Pitch_bend_c, 3, 8032
6, 166942, Pitch_bend_c, 3, 8192
6, 167205, Control_c, 3, 1, 9
6, 167227, Control_c, 3, 1, 21
6, 167255, Control_c, 3, 1, 31
6, 167277, Control_c, 3, 1, 43
6, 167300, Control_c, 3, 1, 51
6, 167320, Control_c, 3, 1, 55
6, 167345, Control_c, 3, 1, 60
6, 167367, Control_c, 3, 1, 64
6, 167390, Control_c, 3, 1, 67
6, 167410, Note_on_c, 3, 60, 0
6, 167412, Control_c, 3, 1, 57
6, 167430, Control_c, 3, 1, 18
6, 167455, Control_c, 3, 1, 0
6, 167520, Note_on_c, 3, 60, 115
6, 167600, Note_on_c, 3, 60, 0
6, 167680, Pitch_bend_c, 3, 7360
6, 167692, Pitch_bend_c, 3, 4960
6, 167710, Pitch_bend_c, 3, 2336
6, 167725, Pitch_bend_c, 3, 0
6, 167760, Note_on_c, 3, 60, 118
6, 167805, Pitch_bend_c, 3, 672
6, 167812, Pitch_bend_c, 3, 2752
6, 167835, Pitch_bend_c, 3, 4416
6, 167850, Pitch_bend_c, 3, 6592
6, 167865, Pitch_bend_c, 3, 8000
6, 167877, Pitch_bend_c, 3, 8192
6, 168070, Note_on_c, 3, 60, 0
6, 168210, Control_c, 3, 1, 17
6, 168240, Note_on_c, 3, 58, 108
6, 168245, Control_c, 3, 1, 33
6, 168267, Control_c, 3, 1, 52
6, 168290, Control_c, 3, 1, 67
6, 168312, Control_c, 3, 1, 74
6, 168330, Control_c, 3, 1, 80
6, 168357, Control_c, 3, 1, 64
6, 168380, Control_c, 3, 1, 32
6, 168405, Control_c, 3, 1, 5
6, 168425, Control_c, 3, 1, 0
6, 168442, Note_on_c, 3, 58, 0
6, 169142, Pitch_bend_c, 3, 6592
6, 169165, Pitch_bend_c, 3, 4096
6, 169180, Pitch_bend_c, 3, 1952
6, 169195, Pitch_bend_c, 3, 1152
6, 169200, Note_on_c, 3, 60, 122
6, 169215, Pitch_bend_c, 3, 2016
6, 169230, Pitch_bend_c, 3, 4640
6, 169252, Pitch_bend_c, 3, 6400
6, 169267, Pitch_bend_c, 3, 7712
6, 169285, Pitch_bend_c, 3, 8096
6, 169292, Pitch_bend_c, 3, 8192
6, 169397, Note_on_c, 3, 60, 0
6, 169440, Note_on_c, 3, 61, 112
6, 169525, Note_on_c, 3, 61, 0
6, 169525, Control_c, 3, 1, 4
6, 169547, Control_c, 3, 1, 9
6, 169567, Control_c, 3, 1, 13
6, 169590, Control_c, 3, 1, 17
6, 169612, Control_c, 3, 1, 26
6, 169642, Control_c, 3, 1, 33
6, 169667, Control_c, 3, 1, 40
6, 169680, Note_on_c, 3, 63, 118
6, 169680, Control_c, 3, 1, 57
6, 169707, Control_c, 3, 1, 68
6, 169732, Control_c, 3, 1, 74
6, 169755, Control_c, 3, 1, 77
6, 169770, Control_c, 3, 1, 80
6, 169792, Control_c, 3, 1, 83
6, 169830, Control_c, 3, 1, 76
6, 169860, Control_c, 3, 1, 64
6, 169882, Control_c, 3, 1, 44
6, 169910, Control_c, 3, 1, 30
6, 169932, Control_c, 3, 1, 20
6, 169950, Control_c, 3, 1, 6
6, 169972, Control_c, 3, 1, 0
6, 170007, Note_on_c, 3, 63, 0
6, 170112, Pitch_bend_c, 3, 7552
6, 170122, Pitch_bend_c, 3, 3232
6, 170145, Pitch_bend_c, 3, 800
6, 170160, Note_on_c, 3, 65, 117
6, 170160, Pitch_bend_c, 3, 0
6, 170212, Pitch_bend_c, 3, 1056
6, 170227, Pitch_bend_c, 3, 4160
6, 170250, Pitch_bend_c, 3, 6496
6, 170265, Pitch_bend_c, 3, 8000
6, 170282, Pitch_bend_c, 3, 8192
6, 170407, Note_on_c, 3, 65, 0
6, 170565, Pitch_bend_c, 3, 7840
6, 170580, Pitch_bend_c, 3, 6176
6, 170595, Pitch_bend_c, 3, 2240
6, 170617, Pitch_bend_c, 3, 0
6, 170640, Note_on_c, 3, 60, 124
6, 170697, Pitch_bend_c, 3, 2432
6, 170720, Pitch_bend_c, 3, 4736
6, 170735, Pitch_bend_c, 3, 7936
6, 170757, Pitch_bend_c, 3, 8192
6, 170862, Note_on_c, 3, 60, 0
6, 170880, Note_on_c, 3, 58, 105
6, 170990, Control_c, 3, 1, 10
6, 171012, Control_c, 3, 1, 21
6, 171035, Control_c, 3, 1, 30
6, 171057, Control_c, 3, 1, 41
6, 171077, Control_c, 3, 1, 51
6, 171097, Note_on_c, 3, 58, 0
6, 171102, Control_c, 3, 1, 33
6, 171125, Control_c, 3, 1, 2
6, 171145, Control_c, 3, 1, 0
6, 172560, Note_on_c, 3, 53, 110
6, 172635, Note_on_c, 3, 53, 0
6, 172695, Pitch_bend_c, 3, 6816
6, 172717, Pitch_bend_c, 3, 4320
6, 172732, Pitch_bend_c, 3, 1792
6, 172747, Pitch_bend_c, 3, 0
6, 172797, Pitch_bend_c, 3, 1536
6, 172800, Note_on_c, 3, 60, 122
6, 172822, Pitch_bend_c, 3, 3040
6, 172837, Pitch_bend_c, 3, 4736
6, 172852, Pitch_bend_c, 3, 7552
6, 172875, Pitch_bend_c, 3, 8032
6, 172882, Pitch_bend_c, 3, 8192
6, 173075, Control_c, 3, 1, 9
6, 173105, Control_c, 3, 1, 12
6, 173122, Control_c, 3, 1, 15
6, 173145, Control_c, 3, 1, 18
6, 173167, Note_on_c, 3, 60, 0
6, 173167, Control_c, 3, 1, 22
6, 173190, Control_c, 3, 1, 25
6, 173220, Control_c, 3, 1, 27
6, 173257, Control_c, 3, 1, 31
6, 173280, Note_on_c, 3, 60, 95
6, 173285, Control_c, 3, 1, 35
6, 173307, Control_c, 3, 1, 40
6, 173322, Note_on_c, 3, 60, 0
6, 173330, Control_c, 3, 1, 44
6, 173352, Control_c, 3, 1, 47
6, 173375, Control_c, 3, 1, 50
6, 173412, Control_c, 3, 1, 51
6, 173435, Control_c, 3, 1, 50
6, 173472, Control_c, 3, 1, 52
6, 173485, Control_c, 3, 1, 61
6, 173507, Control_c, 3, 1, 70
6, 173520, Note_on_c, 3, 60, 108
6, 173535, Control_c, 3, 1, 79
6, 173552, Control_c, 3, 1, 87
6, 173577, Control_c, 3, 1, 94
6, 173600, Control_c, 3, 1, 98
6, 173622, Control_c, 3, 1, 99
6, 173657, Control_c, 3, 1, 93
6, 173687, Control_c, 3, 1, 87
6, 173710, Control_c, 3, 1, 77
6, 173732, Control_c, 3, 1, 63
6, 173757, Control_c, 3, 1, 49
6, 173777, Control_c, 3, 1, 36
6, 173800, Control_c, 3, 1, 24
6, 173820, Control_c, 3, 1, 15
6, 173845, Control_c, 3, 1, 9
6, 173867, Control_c, 3, 1, 8
6, 173890, Control_c, 3, 1, 8
6, 173910, Control_c, 3, 1, 2
6, 173932, Note_on_c, 3, 60, 0
6, 173932, Control_c, 3, 1, 0
6, 174000, Note_on_c, 3, 58, 98
6, 174202, Note_on_c, 3, 58, 0
6, 174240, Note_on_c, 3, 56, 81
6, 174312, Note_on_c, 3, 56, 0
6, 174392, Pitch_bend_c, 3, 6560
6, 174412, Pitch_bend_c, 3, 4000
6, 174430, Pitch_bend_c, 3, 672
6, 174450, Pitch_bend_c, 3, 0
6, 174480, Note_on_c, 3, 60, 122
6, 174512, Pitch_bend_c, 3, 2176
6, 174535, Pitch_bend_c, 3, 3872
6, 174550, Pitch_bend_c, 3, 6816
6, 174572, Pitch_bend_c, 3, 8032
6, 174587, Pitch_bend_c, 3, 8192
6, 174810, Control_c, 3, 1, 9
6, 174832, Control_c, 3, 1, 25
6, 174855, Control_c, 3, 1, 38
6, 174877, Control_c, 3, 1, 49
6, 174900, Control_c, 3, 1, 57
6, 174927, Control_c, 3, 1, 59
6, 174952, Control_c, 3, 1, 55
6, 174967, Control_c, 3, 1, 43
6, 174995, Control_c, 3, 1, 38
6, 175012, Control_c, 3, 1, 30
6, 175035, Control_c, 3, 1, 25
6, 175057, Control_c, 3, 1, 19
6, 175085, Control_c, 3, 1, 18
6, 175122, Control_c, 3, 1, 15
6, 175132, Note_on_c, 3, 60, 0
6, 175152, Control_c, 3, 1, 14
6, 175175, Control_c, 3, 1, 18
6, 175197, Control_c, 3, 1, 23
6, 175200, Note_on_c, 3, 60, 105
6, 175237, Control_c, 3, 1, 25
6, 175275, Control_c, 3, 1, 13
6, 175310, Control_c, 3, 1, 7
6, 175317, Note_on_c, 3, 60, 0
6, 175332, Control_c, 3, 1, 0
6, 175382, Pitch_bend_c, 3, 8032
6, 175390, Pitch_bend_c, 3, 5120
6, 175410, Pitch_bend_c, 3, 2656
6, 175427, Pitch_bend_c, 3, 1280
6, 175440, Note_on_c, 3, 60, 114
6, 175447, Pitch_bend_c, 3, 1632
6, 175465, Pitch_bend_c, 3, 2816
6, 175480, Pitch_bend_c, 3, 4480
6, 175495, Pitch_bend_c, 3, 6912
6, 175517, Pitch_bend_c, 3, 8032
6, 175532, Pitch_bend_c, 3, 8192
6, 175740, Note_on_c, 3, 60, 0
6, 175775, Control_c, 3, 1, 3
6, 175802, Control_c, 3, 1, 7
6, 175825, Control_c, 3, 1, 13
6, 175847, Control_c, 3, 1, 20
6, 175870, Control_c, 3, 1, 26
6, 175890, Control_c, 3, 1, 32
6, 175915, Control_c, 3, 1, 37
6, 175920, Note_on_c, 3, 58, 109
6, 175940, Control_c, 3, 1, 43
6, 175960, Control_c, 3, 1, 50
6, 175982, Control_c, 3, 1, 56
6, 176005, Control_c, 3, 1, 62
6, 176025, Control_c, 3, 1, 69
6, 176047, Control_c, 3, 1, 78
6, 176072, Control_c, 3, 1, 85
6, 176095, Control_c, 3, 1, 89
6, 176122, Control_c, 3, 1, 74
6, 176135, Note_on_c, 3, 58, 0
6, 176137, Control_c, 3, 1, 24
6, 176160, Note_on_c, 3, 56, 95
6, 176160, Control_c, 3, 1, 0
6, 176240, Note_on_c, 3, 56, 0
6, 176810, Pitch_bend_c, 3, 7712
6, 176827, Pitch_bend_c, 3, 5536
6, 176842, Pitch_bend_c, 3, 1632
6, 176862, Pitch_bend_c, 3, 480
6, 176877, Pitch_bend_c, 3, 256
6, 176880, Note_on_c, 3, 60, 117
6, 176895, Pitch_bend_c, 3, 2080
6, 176915, Pitch_bend_c, 3, 4192
6, 176930, Pitch_bend_c, 3, 7360
6, 176952, Pitch_bend_c, 3, 7872
6, 176960, Pitch_bend_c, 3, 8192
6, 177105, Note_on_c, 3, 60, 0
6, 177117, Control_c, 3, 1, 4
6, 177120, Note_on_c, 3, 61, 110
6, 177132, Control_c, 3, 1, 11
6, 177155, Control_c, 3, 1, 14
6, 177185, Control_c, 3, 1, 11
6, 177200, Control_c, 3, 1, 2
6, 177210, Note_on_c, 3, 61, 0
6, 177225, Control_c, 3, 1, 0
6, 177290, Control_c, 3, 1, 4
6, 177312, Control_c, 3, 1, 13
6, 177332, Control_c, 3, 1, 28
6, 177355, Control_c, 3, 1, 46
6, 177360, Note_on_c, 3, 63, 113
6, 177377, Control_c, 3, 1, 61
6, 177402, Control_c, 3, 1, 70
6, 177425, Control_c, 3, 1, 75
6, 177447, Control_c, 3, 1, 78
6, 177470, Control_c, 3, 1, 80
6, 177527, Control_c, 3, 1, 60
6, 177557, Control_c, 3, 1, 31
6, 177580, Control_c, 3, 1, 9
6, 177602, Control_c, 3, 1, 0
6, 177635, Note_on_c, 3, 63, 0
6, 177800, Pitch_bend_c, 3, 5632
6, 177822, Pitch_bend_c, 3, 896
6, 177840, Note_on_c, 3, 65, 119
6, 177845, Pitch_bend_c, 3, 0
6, 177907, Pitch_bend_c, 3, 1472
6, 177927, Pitch_bend_c, 3, 3520
6, 177950, Pitch_bend_c, 3, 5440
6, 177965, Pitch_bend_c, 3, 7296
6, 177980, Pitch_bend_c, 3, 8160
6, 177995, Pitch_bend_c, 3, 8192
6, 178167, Note_on_c, 3, 65, 0
6, 178267, Pitch_bend_c, 3, 7072
6, 178282, Pitch_bend_c, 3, 4320
6, 178297, Pitch_bend_c, 3, 1440
6, 178312, Pitch_bend_c, 3, 0
6, 178320, Note_on_c, 3, 60, 119
6, 178345, Pitch_bend_c, 3, 2016
6, 178367, Pitch_bend_c, 3, 3840
6, 178382, Pitch_bend_c, 3, 6880
6, 178405, Pitch_bend_c, 3, 8096
6, 178417, Pitch_bend_c, 3, 8192
6, 178530, Control_c, 3, 1, 7
6, 178535, Note_on_c, 3, 60, 0
6, 178545, Control_c, 3, 1, 28
6, 178560, Note_on_c, 3, 58, 107
6, 178567, Control_c, 3, 1, 39
6, 178595, Control_c, 3, 1, 42
6, 178612, Control_c, 3, 1, 48
6, 178637, Control_c, 3, 1, 33
6, 178657, Note_on_c, 3, 58, 0
6, 178660, Control_c, 3, 1, 3
6, 178682, Control_c, 3, 1, 0
6, 180240, Note_on_c, 3, 58, 123
6, 180300, Note_on_c, 3, 58, 0
6, 180480, Note_on_c, 3, 65, 122
6, 180480, Pitch_bend_c, 3, 1376
6, 180502, Pitch_bend_c, 3, 1760
6, 180525, Pitch_bend_c, 3, 3232
6, 180540, Pitch_bend_c, 3, 5152
6, 180555, Pitch_bend_c, 3, 6912
6, 180570, Pitch_bend_c, 3, 8000
6, 180587, Pitch_bend_c, 3, 8192
6, 180662, Note_on_c, 3, 65, 0
6, 180720, Note_on_c, 3, 63, 96
6, 180787, Note_on_c, 3, 63, 0
6, 180890, Control_c, 3, 1, 8
6, 180912, Control_c, 3, 1, 18
6, 180935, Control_c, 3, 1, 28
6, 180955, Control_c, 3, 1, 35
6, 180960, Note_on_c, 3, 63, 115
6, 180977, Control_c, 3, 1, 50
6, 181002, Control_c, 3, 1, 58
6, 181025, Control_c, 3, 1, 61
6, 181045, Control_c, 3, 1, 63
6, 181082, Control_c, 3, 1, 54
6, 181112, Control_c, 3, 1, 47
6, 181135, Control_c, 3, 1, 43
6, 181157, Control_c, 3, 1, 34
6, 181180, Note_on_c, 3, 63, 0
6, 181182, Control_c, 3, 1, 22
6, 181200, Note_on_c, 3, 61, 95
6, 181202, Control_c, 3, 1, 12
6, 181227, Control_c, 3, 1, 6
6, 181250, Control_c, 3, 1, 3
6, 181272, Control_c, 3, 1, 2
6, 181275, Note_on_c, 3, 61, 0
6, 181312, Control_c, 3, 1, 6
6, 181337, Control_c, 3, 1, 9
6, 181360, Control_c, 3, 1, 13
6, 181382, Control_c, 3, 1, 21
6, 181407, Control_c, 3, 1, 29
6, 181430, Control_c, 3, 1, 34
6, 181440, Note_on_c, 3, 63, 118
6, 181452, Control_c, 3, 1, 42
6, 181475, Control_c, 3, 1, 52
6, 181497, Control_c, 3, 1, 58
6, 181520, Control_c, 3, 1, 60
6, 181577, Control_c, 3, 1, 61
6, 181605, Control_c, 3, 1, 62
6, 181652, Control_c, 3, 1, 55
6, 181665, Note_on_c, 3, 63, 0
6, 181675, Control_c, 3, 1, 44
6, 181680, Note_on_c, 3, 61, 98
6, 181697, Control_c, 3, 1, 30
6, 181720, Control_c, 3, 1, 16
6, 181742, Control_c, 3, 1, 7
6, 181755, Note_on_c, 3, 61, 0
6, 181770, Control_c, 3, 1, 6
6, 181797, Control_c, 3, 1, 9
6, 181812, Control_c, 3, 1, 13
6, 181835, Control_c, 3, 1, 18
6, 181857, Control_c, 3, 1, 21
6, 181875, Control_c, 3, 1, 26
6, 181912, Control_c, 3, 1, 9
6, 181920, Note_on_c, 3, 63, 116
6, 181942, Control_c, 3, 1, 0
6, 181992, Note_on_c, 3, 63, 0
6, 182127, Pitch_bend_c, 3, 6912
6, 182147, Pitch_bend_c, 3, 4256
6, 182160, Note_on_c, 3, 65, 124
6, 182162, Pitch_bend_c, 3, 1696
6, 182180, Pitch_bend_c, 3, 0
6, 182232, Pitch_bend_c, 3, 1856
6, 182255, Pitch_bend_c, 3, 3616
6, 182270, Pitch_bend_c, 3, 5600
6, 182287, Pitch_bend_c, 3, 7456
6, 182302, Pitch_bend_c, 3, 8000
6, 182310, Pitch_bend_c, 3, 8192
6, 182395, Pitch_bend_c, 3, 7872
6, 182410, Pitch_bend_c, 3, 7040
6, 182425, Note_on_c, 3, 65, 0
6, 182425, Pitch_bend_c, 3, 6240
6, 182457, Pitch_bend_c, 3, 6752
6, 182480, Pitch_bend_c, 3, 7552
6, 182495, Pitch_bend_c, 3, 8160
6, 182510, Pitch_bend_c, 3, 8192
6, 183572, Control_c, 3, 1, 10
6, 183587, Control_c, 3, 1, 34
6, 183600, Note_on_c, 3, 61, 127
6, 183610, Control_c, 3, 1, 53
6, 183635, Control_c, 3, 1, 62
6, 183665, Control_c, 3, 1, 57
6, 183677, Control_c, 3, 1, 51
6, 183707, Control_c, 3, 1, 55
6, 183722, Control_c, 3, 1, 60
6, 183745, Control_c, 3, 1, 63
6, 183772, Control_c, 3, 1, 65
6, 183787, Control_c, 3, 1, 65
6, 183800, Note_on_c, 3, 61, 0
6, 183810, Control_c, 3, 1, 42
6, 183832, Control_c, 3, 1, 14
6, 183840, Note_on_c, 3, 63, 110
6, 183857, Control_c, 3, 1, 0
6, 183980, Note_on_c, 3, 63, 0
6, 184040, Pitch_bend_c, 3, 6912
6, 184052, Pitch_bend_c, 3, 4000
6, 184070, Pitch_bend_c, 3, 192
6, 184080, Note_on_c, 3, 65, 121
6, 184092, Pitch_bend_c, 3, 0
6, 184132, Pitch_bend_c, 3, 800
6, 184140, Pitch_bend_c, 3, 3392
6, 184162, Pitch_bend_c, 3, 5216
6, 184177, Pitch_bend_c, 3, 6976
6, 184192, Pitch_bend_c, 3, 8032
6, 184207, Pitch_bend_c, 3, 8192
6, 184340, Note_on_c, 3, 65, 0
6, 187920, Note_on_c, 3, 53, 124
6, 188027, Note_on_c, 3, 53, 0
6, 188160, Note_on_c, 3, 60, 124
6, 188160, Pitch_bend_c, 3, 1952
6, 188187, Pitch_bend_c, 3, 2592
6, 188202, Pitch_bend_c, 3, 3712
6, 188217, Pitch_bend_c, 3, 5760
6, 188240, Pitch_bend_c, 3, 6912
6, 188257, Pitch_bend_c, 3, 7872
6, 188272, Pitch_bend_c, 3, 8160
6, 188277, Pitch_bend_c, 3, 8192
6, 188345, Note_on_c, 3, 60, 0
6, 188400, Note_on_c, 3, 60, 115
6, 188732, Note_on_c, 3, 60, 0
6, 188830, Pitch_bend_c, 3, 6880
6, 188852, Pitch_bend_c, 3, 4256
6, 188867, Pitch_bend_c, 3, 1952
6, 188880, Note_on_c, 3, 60, 118
6, 188885, Pitch_bend_c, 3, 960
6, 188902, Pitch_bend_c, 3, 800
6, 188922, Pitch_bend_c, 3, 1152
6, 188940, Pitch_bend_c, 3, 1920
6, 188955, Pitch_bend_c, 3, 2880
6, 188970, Pitch_bend_c, 3, 4800
6, 188992, Pitch_bend_c, 3, 6272
6, 189007, Pitch_bend_c, 3, 7616
6, 189022, Pitch_bend_c, 3, 8000
6, 189030, Pitch_bend_c, 3, 8192
6, 189285, Note_on_c, 3, 60, 0
6, 189360, Note_on_c, 3, 58, 97
6, 189385, Control_c, 3, 1, 5
6, 189415, Control_c, 3, 1, 8
6, 189435, Control_c, 3, 1, 17
6, 189465, Control_c, 3, 1, 21
6, 189480, Control_c, 3, 1, 30
6, 189502, Control_c, 3, 1, 45
6, 189525, Control_c, 3, 1, 66
6, 189555, Control_c, 3, 1, 73
6, 189570, Control_c, 3, 1, 70
6, 189592, Note_on_c, 3, 58, 0
6, 189595, Control_c, 3, 1, 43
6, 189600, Note_on_c, 3, 56, 90
6, 189617, Control_c, 3, 1, 14
6, 189642, Control_c, 3, 1, 0
6, 189702, Note_on_c, 3, 56, 0
6, 189792, Pitch_bend_c, 3, 6560
6, 189815, Pitch_bend_c, 3, 4320
6, 189830, Pitch_bend_c, 3, 2336
6, 189840, Note_on_c, 3, 60, 122
6, 189845, Pitch_bend_c, 3, 640
6, 189870, Pitch_bend_c, 3, 320
6, 189892, Pitch_bend_c, 3, 1376
6, 189915, Pitch_bend_c, 3, 3072
6, 189940, Pitch_bend_c, 3, 4256
6, 189955, Pitch_bend_c, 3, 5536
6, 189970, Pitch_bend_c, 3, 6880
6, 189985, Pitch_bend_c, 3, 8096
6, 190007, Pitch_bend_c, 3, 8192
6, 190180, Note_on_c, 3, 60, 0
6, 190320, Note_on_c, 3, 60, 106
6, 190332, Control_c, 3, 1, 12
6, 190362, Control_c, 3, 1, 26
6, 190387, Control_c, 3, 1, 36
6, 190402, Control_c, 3, 1, 49
6, 190425, Control_c, 3, 1, 57
6, 190447, Control_c, 3, 1, 62
6, 190470, Control_c, 3, 1, 66
6, 190492, Control_c, 3, 1, 69
6, 190545, Control_c, 3, 1, 64
6, 190560, Control_c, 3, 1, 46
6, 190585, Control_c, 3, 1, 24
6, 190610, Control_c, 3, 1, 6
6, 190632, Control_c, 3, 1, 0
6, 190660, Note_on_c, 3, 60, 0
6, 190737, Pitch_bend_c, 3, 6592
6, 190762, Pitch_bend_c, 3, 3776
6, 190777, Pitch_bend_c, 3, 1536
6, 190790, Pitch_bend_c, 3, 512
6, 190800, Note_on_c, 3, 60, 111
6, 190807, Pitch_bend_c, 3, 576
6, 190830, Pitch_bend_c, 3, 1376
6, 190845, Pitch_bend_c, 3, 2560
6, 190860, Pitch_bend_c, 3, 3840
6, 190877, Pitch_bend_c, 3, 5312
6, 190895, Pitch_bend_c, 3, 7616
6, 190917, Pitch_bend_c, 3, 8032
6, 190925, Pitch_bend_c, 3, 8192
6, 191170, Control_c, 3, 1, 3
6, 191210, Control_c, 3, 1, 5
6, 191220, Note_on_c, 3, 60, 0
6, 191265, Control_c, 3, 1, 6
6, 191280, Note_on_c, 3, 58, 90
6, 191325, Control_c, 3, 1, 4
6, 191372, Control_c, 3, 1, 3
6, 191490, Note_on_c, 3, 58, 0
6, 191520, Note_on_c, 3, 56, 93
6, 191565, Control_c, 3, 1, 3
6, 191595, Control_c, 3, 1, 0
6, 191660, Note_on_c, 3, 56, 0
6, 191725, Control_c, 3, 1, 4
6, 191755, Control_c, 3, 1, 11
6, 191760, Note_on_c, 3, 53, 113
6, 191780, Control_c, 3, 1, 22
6, 191802, Control_c, 3, 1, 33
6, 191825, Control_c, 3, 1, 40
6, 191847, Control_c, 3, 1, 43
6, 191870, Control_c, 3, 1, 44
6, 191895, Control_c, 3, 1, 45
6, 191920, Control_c, 3, 1, 46
6, 191935, Control_c, 3, 1, 50
6, 191957, Control_c, 3, 1, 55
6, 191980, Control_c, 3, 1, 59
6, 192007, Control_c, 3, 1, 56
6, 192022, Control_c, 3, 1, 46
6, 192050, Control_c, 3, 1, 36
6, 192072, Control_c, 3, 1, 31
6, 192125, Control_c, 3, 1, 34
6, 192140, Control_c, 3, 1, 35
6, 192162, Note_on_c, 3, 53, 0
6, 192162, Control_c, 3, 1, 30
6, 192187, Control_c, 3, 1, 27
6, 192202, Control_c, 3, 1, 28
6, 192227, Control_c, 3, 1, 34
6, 192240, Note_on_c, 3, 55, 118
6, 192247, Control_c, 3, 1, 38
6, 192272, Control_c, 3, 1, 42
6, 192292, Control_c, 3, 1, 46
6, 192335, Control_c, 3, 1, 49
6, 192365, Control_c, 3, 1, 52
6, 192387, Control_c, 3, 1, 54
6, 192432, Control_c, 3, 1, 54
6, 192457, Control_c, 3, 1, 55
6, 192472, Control_c, 3, 1, 57
6, 192495, Control_c, 3, 1, 58
6, 192517, Control_c, 3, 1, 55
6, 192540, Control_c, 3, 1, 52
6, 192580, Control_c, 3, 1, 55
6, 192612, Control_c, 3, 1, 56
6, 192630, Note_on_c, 3, 55, 0
6, 192632, Control_c, 3, 1, 57
6, 192660, Control_c, 3, 1, 59
6, 192720, Note_on_c, 3, 56, 109
6, 192735, Control_c, 3, 1, 57
6, 192765, Control_c, 3, 1, 62
6, 192787, Control_c, 3, 1, 67
6, 192810, Control_c, 3, 1, 72
6, 192835, Control_c, 3, 1, 77
6, 192857, Control_c, 3, 1, 80
6, 192880, Control_c, 3, 1, 81
6, 192917, Control_c, 3, 1, 82
6, 192980, Control_c, 3, 1, 81
6, 192995, Control_c, 3, 1, 78
6, 193027, Control_c, 3, 1, 77
6, 193075, Control_c, 3, 1, 68
6, 193105, Control_c, 3, 1, 55
6, 193127, Control_c, 3, 1, 43
6, 193150, Control_c, 3, 1, 24
6, 193167, Note_on_c, 3, 56, 0
6, 193172, Control_c, 3, 1, 10
6, 193192, Control_c, 3, 1, 0
6, 193200, Note_on_c, 3, 58, 98
6, 193332, Note_on_c, 3, 58, 0
6, 193385, Pitch_bend_c, 3, 7232
6, 193400, Pitch_bend_c, 3, 4736
6, 193415, Pitch_bend_c, 3, 1152
6, 193437, Pitch_bend_c, 3, 0
6, 193440, Note_on_c, 3, 60, 114
6, 193500, Pitch_bend_c, 3, 2016
6, 193522, Pitch_bend_c, 3, 3296
6, 193537, Pitch_bend_c, 3, 4640
6, 193555, Pitch_bend_c, 3, 6112
6, 193572, Pitch_bend_c, 3, 7936
6, 193595, Pitch_bend_c, 3, 8160
6, 193602, Pitch_bend_c, 3, 8192
6, 193867, Control_c, 3, 1, 6
6, 193890, Control_c, 3, 1, 13
6, 193912, Control_c, 3, 1, 19
6, 193935, Control_c, 3, 1, 24
6, 193957, Control_c, 3, 1, 27
6, 193980, Control_c, 3, 1, 31
6, 194002, Control_c, 3, 1, 36
6, 194025, Control_c, 3, 1, 43
6, 194047, Control_c, 3, 1, 48
6, 194072, Control_c, 3, 1, 51
6, 194095, Control_c, 3, 1, 53
6, 194122, Control_c, 3, 1, 56
6, 194140, Control_c, 3, 1, 58
6, 194160, Control_c, 3, 1, 61
6, 194182, Control_c, 3, 1, 65
6, 194217, Control_c, 3, 1, 66
6, 194227, Control_c, 3, 1, 69
6, 194257, Control_c, 3, 1, 70
6, 194280, Control_c, 3, 1, 71
6, 194295, Control_c, 3, 1, 72
6, 194357, Control_c, 3, 1, 73
6, 194380, Control_c, 3, 1, 65
6, 194412, Control_c, 3, 1, 53
6, 194435, Control_c, 3, 1, 39
6, 194457, Control_c, 3, 1, 20
6, 194480, Control_c, 3, 1, 1
6, 194502, Control_c, 3, 1, 0
6, 194542, Note_on_c, 3, 60, 0
6, 195600, Note_on_c, 3, 58, 106
6, 195660, Note_on_c, 3, 58, 0
6, 195760, Pitch_bend_c, 3, 6336
6, 195782, Pitch_bend_c, 3, 3776
6, 195797, Pitch_bend_c, 3, 1760
6, 195812, Pitch_bend_c, 3, 416
6, 195835, Pitch_bend_c, 3, 8096
6, 195840, Note_on_c, 3, 70, 123
6, 195847, Pitch_bend_c, 3, 3712
6, 195865, Pitch_bend_c, 3, 2080
6, 195882, Pitch_bend_c, 3, 1216
6, 195895, Pitch_bend_c, 3, 1184
6, 195912, Pitch_bend_c, 3, 2368
6, 195935, Pitch_bend_c, 3, 3872
6, 195947, Pitch_bend_c, 3, 5632
6, 195965, Pitch_bend_c, 3, 7296
6, 195982, Pitch_bend_c, 3, 8160
6, 195997, Pitch_bend_c, 3, 8192
6, 196212, Note_on_c, 3, 70, 0
6, 196320, Note_on_c, 3, 70, 116
6, 196397, Note_on_c, 3, 70, 0
6, 196510, Pitch_bend_c, 3, 7040
6, 196525, Pitch_bend_c, 3, 3168
6, 196547, Pitch_bend_c, 3, 1184
6, 196560, Note_on_c, 3, 70, 123
6, 196562, Pitch_bend_c, 3, 256
6, 196580, Pitch_bend_c, 3, 160
6, 196595, Pitch_bend_c, 3, 1600
6, 196617, Pitch_bend_c, 3, 3168
6, 196635, Pitch_bend_c, 3, 4928
6, 196650, Pitch_bend_c, 3, 6720
6, 196665, Pitch_bend_c, 3, 7936
6, 196680, Pitch_bend_c, 3, 8192
6, 196900, Note_on_c, 3, 70, 0
6, 196920, Note_on_c, 3, 68, 108
6, 196965, Control_c, 3, 1, 1
6, 196987, Control_c, 3, 1, 2
6, 197012, Note_on_c, 3, 68, 0
6, 197040, Note_on_c, 3, 65, 110
6, 197065, Control_c, 3, 1, 3
6, 197082, Control_c, 3, 1, 4
6, 197120, Control_c, 3, 1, 5
6, 197127, Control_c, 3, 1, 8
6, 197150, Control_c, 3, 1, 16
6, 197172, Control_c, 3, 1, 26
6, 197195, Control_c, 3, 1, 39
6, 197217, Control_c, 3, 1, 51
6, 197242, Control_c, 3, 1, 58
6, 197257, Control_c, 3, 1, 66
6, 197280, Control_c, 3, 1, 69
6, 197312, Control_c, 3, 1, 63
6, 197327, Control_c, 3, 1, 46
6, 197350, Control_c, 3, 1, 26
6, 197372, Control_c, 3, 1, 10
6, 197395, Note_on_c, 3, 65, 0
6, 197400, Control_c, 3, 1, 0
6, 197520, Note_on_c, 3, 65, 106
6, 197590, Note_on_c, 3, 65, 0
6, 197685, Pitch_bend_c, 3, 7552
6, 197700, Pitch_bend_c, 3, 5376
6, 197715, Pitch_bend_c, 3, 1504
6, 197742, Pitch_bend_c, 3, 480
6, 197750, Pitch_bend_c, 3, 0
6, 197760, Note_on_c, 3, 70, 120
6, 197810, Pitch_bend_c, 3, 960
6, 197825, Pitch_bend_c, 3, 2400
6, 197840, Pitch_bend_c, 3, 4128
6, 197855, Pitch_bend_c, 3, 6912
6, 197877, Pitch_bend_c, 3, 8000
6, 197895, Pitch_bend_c, 3, 8192
6, 198132, Note_on_c, 3, 70, 0
6, 198195, Control_c, 3, 1, 1
6, 198202, Control_c, 3, 1, 7
6, 198225, Control_c, 3, 1, 16
6, 198240, Note_on_c, 3, 70, 105
6, 198250, Control_c, 3, 1, 24
6, 198272, Control_c, 3, 1, 29
6, 198297, Control_c, 3, 1, 18
6, 198315, Note_on_c, 3, 70, 0
6, 198317, Control_c, 3, 1, 3
6, 198340, Control_c, 3, 1, 0
6, 198402, Pitch_bend_c, 3, 6880
6, 198417, Pitch_bend_c, 3, 3808
6, 198432, Pitch_bend_c, 3, 544
6, 198455, Pitch_bend_c, 3, 0
6, 198477, Pitch_bend_c, 3, 416
6, 198480, Note_on_c, 3, 70, 118
6, 198487, Pitch_bend_c, 3, 2848
6, 198510, Pitch_bend_c, 3, 4992
6, 198525, Pitch_bend_c, 3, 7136
6, 198540, Pitch_bend_c, 3, 8160
6, 198555, Pitch_bend_c, 3, 8192
6, 198782, Note_on_c, 3, 70, 0
6, 198787, Control_c, 3, 1, 3
6, 198810, Control_c, 3, 1, 6
6, 198832, Control_c, 3, 1, 6
6, 198840, Note_on_c, 3, 68, 85
6, 198855, Control_c, 3, 1, 4
6, 198880, Control_c, 3, 1, 2
6, 198940, Control_c, 3, 1, 3
6, 198957, Control_c, 3, 1, 4
6, 198960, Note_on_c, 3, 65, 101
6, 198960, Note_on_c, 3, 68, 0
6, 198987, Control_c, 3, 1, 3
6, 198995, Control_c, 3, 1, 2
6, 199027, Control_c, 3, 1, 3
6, 199035, Control_c, 3, 1, 4
6, 199070, Control_c, 3, 1, 5
6, 199082, Note_on_c, 3, 65, 0
6, 199102, Control_c, 3, 1, 6
6, 199145, Control_c, 3, 1, 7
6, 199155, Control_c, 3, 1, 9
6, 199172, Control_c, 3, 1, 16
6, 199195, Control_c, 3, 1, 25
6, 199200, Note_on_c, 3, 65, 109
6, 199217, Control_c, 3, 1, 32
6, 199240, Control_c, 3, 1, 37
6, 199265, Control_c, 3, 1, 41
6, 199310, Control_c, 3, 1, 43
6, 199332, Control_c, 3, 1, 44
6, 199350, Note_on_c, 3, 65, 0
6, 199365, Control_c, 3, 1, 39
6, 199380, Control_c, 3, 1, 29
6, 199395, Control_c, 3, 1, 15
6, 199417, Control_c, 3, 1, 4
6, 199440, Note_on_c, 3, 65, 107
6, 199447, Control_c, 3, 1, 0
6, 199545, Note_on_c, 3, 65, 0
6, 199585, Pitch_bend_c, 3, 8000
6, 199592, Pitch_bend_c, 3, 6432
6, 199607, Pitch_bend_c, 3, 3712
6, 199622, Pitch_bend_c, 3, 544
6, 199645, Pitch_bend_c, 3, 0
6, 199680, Note_on_c, 3, 65, 119
6, 199680, Pitch_bend_c, 3, 4768
6, 199697, Pitch_bend_c, 3, 1440
6, 199712, Pitch_bend_c, 3, 0
6, 199757, Pitch_bend_c, 3, 736
6, 199765, Pitch_bend_c, 3, 2624
6, 199780, Pitch_bend_c, 3, 5728
6, 199802, Pitch_bend_c, 3, 7552
6, 199817, Pitch_bend_c, 3, 8032
6, 199825, Pitch_bend_c, 3, 8192
6, 199880, Note_on_c, 3, 65, 0
6, 199920, Note_on_c, 3, 63, 105
6, 200025, Note_on_c, 3, 63, 0
6, 200040, Note_on_c, 3, 61, 110
6, 200125, Note_on_c, 3, 61, 0
6, 200160, Note_on_c, 3, 63, 109
6, 200220, Control_c, 3, 1, 1
6, 200227, Control_c, 3, 1, 10
6, 200252, Control_c, 3, 1, 17
6, 200275, Control_c, 3, 1, 23
6, 200297, Control_c, 3, 1, 28
6, 200320, Control_c, 3, 1, 32
6, 200342, Control_c, 3, 1, 33
6, 200375, Control_c, 3, 1, 30
6, 200382, Note_on_c, 3, 63, 0
6, 200390, Control_c, 3, 1, 23
6, 200400, Note_on_c, 3, 61, 102
6, 200412, Control_c, 3, 1, 17
6, 200430, Control_c, 3, 1, 10
6, 200452, Control_c, 3, 1, 7
6, 200485, Control_c, 3, 1, 6
6, 200490, Note_on_c, 3, 61, 0
6, 200500, Control_c, 3, 1, 8
6, 200520, Note_on_c, 3, 58, 95
6, 200537, Control_c, 3, 1, 7
6, 200545, Control_c, 3, 1, 5
6, 200590, Control_c, 3, 1, 3
6, 200615, Control_c, 3, 1, 0
6, 200622, Note_on_c, 3, 58, 0
6, 200640, Note_on_c, 3, 61, 110
6, 200760, Control_c, 3, 1, 1
6, 200777, Control_c, 3, 1, 3
6, 200792, Control_c, 3, 1, 5
6, 200822, Control_c, 3, 1, 6
6, 200845, Control_c, 3, 1, 7
6, 200857, Note_on_c, 3, 61, 0
6, 200860, Control_c, 3, 1, 8
6, 200880, Note_on_c, 3, 58, 105
6, 200907, Control_c, 3, 1, 9
6, 200960, Note_on_c, 3, 58, 0
6, 201000, Note_on_c, 3, 56, 100
6, 201030, Control_c, 3, 1, 10
6, 201042, Control_c, 3, 1, 11
6, 201060, Control_c, 3, 1, 13
6, 201065, Note_on_c, 3, 56, 0
6, 201082, Control_c, 3, 1, 16
6, 201107, Control_c, 3, 1, 20
6, 201120, Note_on_c, 3, 58, 109
6, 201127, Control_c, 3, 1, 23
6, 201152, Control_c, 3, 1, 26
6, 201205, Control_c, 3, 1, 27
6, 201220, Control_c, 3, 1, 26
6, 201245, Control_c, 3, 1, 31
6, 201267, Control_c, 3, 1, 36
6, 201285, Control_c, 3, 1, 46
6, 201292, Note_on_c, 3, 58, 0
6, 201312, Control_c, 3, 1, 36
6, 201335, Control_c, 3, 1, 11
6, 201350, Pitch_bend_c, 3, 7872
6, 201355, Control_c, 3, 1, 0
6, 201360, Note_on_c, 3, 60, 113
6, 201360, Pitch_bend_c, 3, 6720
6, 201372, Pitch_bend_c, 3, 5248
6, 201390, Pitch_bend_c, 3, 2880
6, 201412, Pitch_bend_c, 3, 1440
6, 201427, Pitch_bend_c, 3, 704
6, 201442, Pitch_bend_c, 3, 736
6, 201460, Pitch_bend_c, 3, 2560
6, 201480, Pitch_bend_c, 3, 4768
6, 201497, Pitch_bend_c, 3, 7040
6, 201512, Pitch_bend_c, 3, 8160
6, 201527, Pitch_bend_c, 3, 8192
6, 201695, Control_c, 3, 1, 11
6, 201717, Control_c, 3, 1, 23
6, 201740, Control_c, 3, 1, 29
6, 201762, Control_c, 3, 1, 33
6, 201810, Control_c, 3, 1, 35
6, 201832, Control_c, 3, 1, 37
6, 201852, Control_c, 3, 1, 39
6, 201872, Control_c, 3, 1, 44
6, 201895, Control_c, 3, 1, 48
6, 201917, Control_c, 3, 1, 52
6, 201940, Control_c, 3, 1, 57
6, 201962, Control_c, 3, 1, 61
6, 201985, Control_c, 3, 1, 66
6, 202010, Control_c, 3, 1, 75
6, 202032, Control_c, 3, 1, 84
6, 202055, Control_c, 3, 1, 89
6, 202072, Control_c, 3, 1, 97
6, 202100, Control_c, 3, 1, 103
6, 202122, Control_c, 3, 1, 106
6, 202142, Control_c, 3, 1, 109
6, 202165, Control_c, 3, 1, 112
6, 202210, Control_c, 3, 1, 95
6, 202232, Control_c, 3, 1, 38
6, 202255, Control_c, 3, 1, 1
6, 202277, Control_c, 3, 1, 0
6, 202317, Note_on_c, 3, 60, 0
6, 202722, Pitch_bend_c, 3, 7392
6, 202742, Pitch_bend_c, 3, 4928
6, 202757, Pitch_bend_c, 3, 2080
6, 202772, Pitch_bend_c, 3, 0
6, 202800, Note_on_c, 3, 70, 121
6, 202817, Pitch_bend_c, 3, 160
6, 202825, Pitch_bend_c, 3, 2464
6, 202847, Pitch_bend_c, 3, 4384
6, 202862, Pitch_bend_c, 3, 6432
6, 202880, Pitch_bend_c, 3, 7840
6, 202895, Pitch_bend_c, 3, 8160
6, 202902, Pitch_bend_c, 3, 8192
6, 203072, Control_c, 3, 1, 9
6, 203087, Control_c, 3, 1, 39
6, 203110, Control_c, 3, 1, 72
6, 203132, Control_c, 3, 1, 96
6, 203160, Control_c, 3, 1, 105
6, 203175, Control_c, 3, 1, 82
6, 203202, Control_c, 3, 1, 35
6, 203225, Control_c, 3, 1, 11
6, 203242, Control_c, 3, 1, 0
6, 203297, Note_on_c, 3, 70, 0
6, 204000, Note_on_c, 3, 89, 105
6, 204270, Note_on_c, 3, 89, 0
6, 204480, Note_on_c, 3, 89, 105
6, 204677, Note_on_c, 3, 89, 0
6, 204720, Note_on_c, 3, 87, 105
6, 204800, Note_on_c, 3, 87, 0
6, 204840, Note_on_c, 3, 84, 105
6, 204937, Note_on_c, 3, 84, 0
6, 204960, Note_on_c, 3, 87, 105
6, 205075, Note_on_c, 3, 87, 0
6, 205080, Note_on_c, 3, 84, 105
6, 205175, Note_on_c, 3, 84, 0
6, 205200, Note_on_c, 3, 82, 105
6, 205297, Note_on_c, 3, 82, 0
6, 205440, Note_on_c, 3, 84, 105
6, 205622, Note_on_c, 3, 84, 0
6, 205680, Note_on_c, 3, 82, 105
6, 205775, Note_on_c, 3, 82, 0
6, 205800, Note_on_c, 3, 79, 105
6, 205902, Note_on_c, 3, 79, 0
6, 205920, Note_on_c, 3, 78, 105
6, 206015, Note_on_c, 3, 78, 0
6, 206040, Note_on_c, 3, 77, 105
6, 206142, Note_on_c, 3, 77, 0
6, 206160, Note_on_c, 3, 75, 105
6, 206262, Note_on_c, 3, 75, 0
6, 206400, Note_on_c, 3, 77, 105
6, 206587, Note_on_c, 3, 77, 0
6, 206640, Note_on_c, 3, 75, 105
6, 206722, Note_on_c, 3, 75, 0
6, 206760, Note_on_c, 3, 72, 105
6, 206847, Note_on_c, 3, 72, 0
6, 206880, Note_on_c, 3, 75, 105
6, 206972, Note_on_c, 3, 75, 0
6, 207000, Note_on_c, 3, 77, 105
6, 207097, Note_on_c, 3, 77, 0
6, 207240, Note_on_c, 3, 79, 105
6, 207545, Note_on_c, 3, 79, 0
6, 207600, Note_on_c, 3, 75, 105
6, 207705, Note_on_c, 3, 75, 0
6, 207840, Note_on_c, 3, 72, 105
6, 207955, Note_on_c, 3, 72, 0
6, 208080, Note_on_c, 3, 75, 105
6, 208185, Note_on_c, 3, 75, 0
6, 208320, Note_on_c, 3, 79, 105
6, 208422, Note_on_c, 3, 79, 0
6, 208560, Note_on_c, 3, 82, 105
6, 208650, Note_on_c, 3, 82, 0
6, 208800, Note_on_c, 3, 84, 105
6, 208905, Note_on_c, 3, 84, 0
6, 208920, Note_on_c, 3, 82, 105
6, 209012, Note_on_c, 3, 82, 0
6, 209160, Note_on_c, 3, 84, 105
6, 209385, Note_on_c, 3, 84, 0
6, 209520, Note_on_c, 3, 87, 105
6, 209615, Note_on_c, 3, 87, 0
6, 209760, Note_on_c, 3, 86, 105
6, 209850, Note_on_c, 3, 86, 0
6, 210000, Note_on_c, 3, 82, 105
6, 210105, Note_on_c, 3, 82, 0
6, 210240, Note_on_c, 3, 84, 105
6, 210355, Note_on_c, 3, 84, 0
6, 210480, Note_on_c, 3, 82, 105
6, 210572, Note_on_c, 3, 82, 0
6, 210720, Note_on_c, 3, 84, 105
6, 210805, Note_on_c, 3, 84, 0
6, 210960, Note_on_c, 3, 91, 105
6, 211292, Note_on_c, 3, 91, 0
6, 211440, Note_on_c, 3, 89, 105
6, 211537, Note_on_c, 3, 89, 0
6, 211680, Note_on_c, 3, 87, 105
6, 211775, Note_on_c, 3, 87, 0
6, 211920, Note_on_c, 3, 84, 106
6, 212012, Note_on_c, 3, 84, 0
6, 212160, Note_on_c, 3, 89, 106
6, 212252, Note_on_c, 3, 89, 0
6, 212280, Note_on_c, 3, 87, 106
6, 212365, Note_on_c, 3, 87, 0
6, 212520, Note_on_c, 3, 84, 106
6, 212617, Note_on_c, 3, 84, 0
6, 212880, Note_on_c, 3, 89, 106
6, 213262, Note_on_c, 3, 89, 0
6, 213360, Note_on_c, 3, 89, 106
6, 213457, Note_on_c, 3, 89, 0
6, 213600, Note_on_c, 3, 87, 106
6, 213702, Note_on_c, 3, 87, 0
6, 213840, Note_on_c, 3, 84, 106
6, 213947, Note_on_c, 3, 84, 0
6, 214080, Note_on_c, 3, 89, 106
6, 214172, Note_on_c, 3, 89, 0
6, 214320, Note_on_c, 3, 89, 106
6, 214407, Note_on_c, 3, 89, 0
6, 214440, Note_on_c, 3, 87, 106
6, 214592, Note_on_c, 3, 87, 0
6, 214680, Note_on_c, 3, 84, 106
6, 214760, Note_on_c, 3, 84, 0
6, 214800, Note_on_c, 3, 89, 106
6, 215170, Note_on_c, 3, 89, 0
6, 215280, Note_on_c, 3, 89, 106
6, 215372, Note_on_c, 3, 89, 0
6, 215520, Note_on_c, 3, 87, 106
6, 215600, Note_on_c, 3, 87, 0
6, 215760, Note_on_c, 3, 84, 106
6, 215865, Note_on_c, 3, 84, 0
6, 216000, Note_on_c, 3, 89, 106
6, 216082, Note_on_c, 3, 89, 0
6, 216240, Note_on_c, 3, 89, 106
6, 216335, Note_on_c, 3, 89, 0
6, 216360, Note_on_c, 3, 87, 106
6, 216445, Note_on_c, 3, 87, 0
6, 216600, Note_on_c, 3, 84, 106
6, 216680, Note_on_c, 3, 84, 0
6, 216720, Note_on_c, 3, 89, 106
6, 217057, Note_on_c, 3, 89, 0
6, 217200, Note_on_c, 3, 87, 106
6, 217292, Note_on_c, 3, 87, 0
6, 217440, Note_on_c, 3, 86, 106
6, 217517, Note_on_c, 3, 86, 0
6, 217560, Note_on_c, 3, 84, 106
6, 217642, Note_on_c, 3, 84, 0
6, 264960, Note_on_c, 3, 60, 124
6, 264960, Pitch_bend_c, 3, 1952
6, 264987, Pitch_bend_c, 3, 2592
6, 265002, Pitch_bend_c, 3, 5760
6, 265040, Pitch_bend_c, 3, 6912
6, 265057, Pitch_bend_c, 3, 7872
6, 265072, Pitch_bend_c, 3, 8160
6, 265077, Pitch_bend_c, 3, 8192
6, 265145, Note_on_c, 3, 60, 0
6, 265200, Note_on_c, 3, 60, 115
6, 265532, Note_on_c, 3, 60, 0
6, 265630, Pitch_bend_c, 3, 6880
6, 265652, Pitch_bend_c, 3, 4256
6, 265667, Pitch_bend_c, 3, 1952
6, 265680, Note_on_c, 3, 60, 118
6, 265685, Pitch_bend_c, 3, 960
6, 265702, Pitch_bend_c, 3, 800
6, 265722, Pitch_bend_c, 3, 1152
6, 265740, Pitch_bend_c, 3, 1920
6, 265755, Pitch_bend_c, 3, 4800
6, 265792, Pitch_bend_c, 3, 6272
6, 265807, Pitch_bend_c, 3, 8000
6, 265830, Pitch_bend_c, 3, 8192
6, 266085, Note_on_c, 3, 60, 0
6, 266160, Note_on_c, 3, 58, 97
6, 266185, Control_c, 3, 1, 5
6, 266215, Control_c, 3, 1, 8
6, 266235, Control_c, 3, 1, 17
6, 266265, Control_c, 3, 1, 30
6, 266302, Control_c, 3, 1, 45
6, 266325, Control_c, 3, 1, 66
6, 266355, Control_c, 3, 1, 70
6, 266392, Note_on_c, 3, 58, 0
6, 266395, Control_c, 3, 1, 43
6, 266400, Note_on_c, 3, 56, 90
6, 266417, Control_c, 3, 1, 14
6, 266442, Control_c, 3, 1, 0
6, 266502, Note_on_c, 3, 56, 0
6, 266592, Pitch_bend_c, 3, 6560
6, 266615, Pitch_bend_c, 3, 4320
6, 266630, Pitch_bend_c, 3, 640
6, 266640, Note_on_c, 3, 60, 122
6, 266670, Pitch_bend_c, 3, 320
6, 266692, Pitch_bend_c, 3, 1376
6, 266715, Pitch_bend_c, 3, 3072
6, 266740, Pitch_bend_c, 3, 4256
6, 266755, Pitch_bend_c, 3, 5536
6, 266770, Pitch_bend_c, 3, 8096
6, 266807, Pitch_bend_c, 3, 8192
6, 266980, Note_on_c, 3, 60, 0
6, 267120, Note_on_c, 3, 60, 106
6, 267132, Control_c, 3, 1, 12
6, 267162, Control_c, 3, 1, 26
6, 267187, Control_c, 3, 1, 49
6, 267225, Control_c, 3, 1, 57
6, 267247, Control_c, 3, 1, 62
6, 267270, Control_c, 3, 1, 66
6, 267292, Control_c, 3, 1, 69
6, 267345, Control_c, 3, 1, 46
6, 267385, Control_c, 3, 1, 24
6, 267410, Control_c, 3, 1, 6
6, 267432, Control_c, 3, 1, 0
6, 267460, Note_on_c, 3, 60, 0
6, 267537, Pitch_bend_c, 3, 6592
6, 267562, Pitch_bend_c, 3, 3776
6, 267577, Pitch_bend_c, 3, 512
6, 267600, Note_on_c, 3, 60, 111
6, 267607, Pitch_bend_c, 3, 576
6, 267630, Pitch_bend_c, 3, 1376
6, 267645, Pitch_bend_c, 3, 3840
6, 267677, Pitch_bend_c, 3, 5312
6, 267695, Pitch_bend_c, 3, 7616
6, 267717, Pitch_bend_c, 3, 8032
6, 267725, Pitch_bend_c, 3, 8192
6, 267970, Control_c, 3, 1, 3
6, 268010, Control_c, 3, 1, 5
6, 268020, Note_on_c, 3, 60, 0
6, 268065, Control_c, 3, 1, 6
6, 268080, Note_on_c, 3, 58, 90
6, 268125, Control_c, 3, 1, 4
6, 268172, Control_c, 3, 1, 3
6, 268290, Note_on_c, 3, 58, 0
6, 268320, Note_on_c, 3, 56, 93
6, 268365, Control_c, 3, 1, 3
6, 268395, Control_c, 3, 1, 0
6, 268460, Note_on_c, 3, 56, 0
6, 268525, Control_c, 3, 1, 4
6, 268555, Control_c, 3, 1, 11
6, 268560, Note_on_c, 3, 53, 113
6, 268580, Control_c, 3, 1, 22
6, 268602, Control_c, 3, 1, 33
6, 268625, Control_c, 3, 1, 40
6, 268647, Control_c, 3, 1, 43
6, 268670, Control_c, 3, 1, 44
6, 268695, Control_c, 3, 1, 45
6, 268720, Control_c, 3, 1, 50
6, 268757, Control_c, 3, 1, 55
6, 268780, Control_c, 3, 1, 59
6, 268807, Control_c, 3, 1, 46
6, 268850, Control_c, 3, 1, 36
6, 268872, Control_c, 3, 1, 31
6, 268925, Control_c, 3, 1, 35
6, 268962, Note_on_c, 3, 53, 0
6, 268962, Control_c, 3, 1, 30
6, 268987, Control_c, 3, 1, 28
6, 269027, Control_c, 3, 1, 34
6, 269040, Note_on_c, 3, 55, 118
6, 269047, Control_c, 3, 1, 38
6, 269072, Control_c, 3, 1, 42
6, 269092, Control_c, 3, 1, 46
6, 269135, Control_c, 3, 1, 49
6, 269165, Control_c, 3, 1, 52
6, 269187, Control_c, 3, 1, 54
6, 269232, Control_c, 3, 1, 54
6, 269257, Control_c, 3, 1, 57
6, 269295, Control_c, 3, 1, 58
6, 269317, Control_c, 3, 1, 55
6, 269340, Control_c, 3, 1, 52
6, 269380, Control_c, 3, 1, 55
6, 269412, Control_c, 3, 1, 56
6, 269430, Note_on_c, 3, 55, 0
6, 269432, Control_c, 3, 1, 57
6, 269460, Control_c, 3, 1, 59
6, 269520, Note_on_c, 3, 56, 109
6, 269535, Control_c, 3, 1, 57
6, 269565, Control_c, 3, 1, 62
6, 269587, Control_c, 3, 1, 67
6, 269610, Control_c, 3, 1, 72
6, 269635, Control_c, 3, 1, 77
6, 269657, Control_c, 3, 1, 80
6, 269680, Control_c, 3, 1, 81
6, 269717, Control_c, 3, 1, 82
6, 269780, Control_c, 3, 1, 78
6, 269827, Control_c, 3, 1, 77
6, 269875, Control_c, 3, 1, 68
6, 269905, Control_c, 3, 1, 55
6, 269927, Control_c, 3, 1, 43
6, 269950, Control_c, 3, 1, 24
6, 269967, Note_on_c, 3, 56, 0
6, 269972, Control_c, 3, 1, 10
6, 269992, Control_c, 3, 1, 0
6, 270000, Note_on_c, 3, 58, 98
6, 270132, Note_on_c, 3, 58, 0
6, 270185, Pitch_bend_c, 3, 7232
6, 270200, Pitch_bend_c, 3, 1152
6, 270237, Pitch_bend_c, 3, 0
6, 270240, Note_on_c, 3, 60, 114
6, 270300, Pitch_bend_c, 3, 2016
6, 270322, Pitch_bend_c, 3, 4640
6, 270355, Pitch_bend_c, 3, 6112
6, 270372, Pitch_bend_c, 3, 7936
6, 270395, Pitch_bend_c, 3, 8160
6, 270402, Pitch_bend_c, 3, 8192
6, 270667, Control_c, 3, 1, 6
6, 270690, Control_c, 3, 1, 13
6, 270712, Control_c, 3, 1, 19
6, 270735, Control_c, 3, 1, 24
6, 270757, Control_c, 3, 1, 27
6, 270780, Control_c, 3, 1, 31
6, 270802, Control_c, 3, 1, 36
6, 270825, Control_c, 3, 1, 43
6, 270847, Control_c, 3, 1, 48
6, 270872, Control_c, 3, 1, 51
6, 270895, Control_c, 3, 1, 53
6, 270922, Control_c, 3, 1, 58
6, 270960, Control_c, 3, 1, 61
6, 270982, Control_c, 3, 1, 65
6, 271017, Control_c, 3, 1, 69
6, 271057, Control_c, 3, 1, 70
6, 271080, Control_c, 3, 1, 72
6, 271157, Control_c, 3, 1, 73
6, 271180, Control_c, 3, 1, 65
6, 271212, Control_c, 3, 1, 53
6, 271235, Control_c, 3, 1, 39
6, 271257, Control_c, 3, 1, 20
6, 271280, Control_c, 3, 1, 1
6, 271302, Control_c, 3, 1, 0
6, 271342, Note_on_c, 3, 60, 0
6, 272400, Note_on_c, 3, 58, 106
6, 272460, Note_on_c, 3, 58, 0
6, 272560, Pitch_bend_c, 3, 6336
6, 272582, Pitch_bend_c, 3, 3776
6, 272597, Pitch_bend_c, 3, 416
6, 272635, Pitch_bend_c, 3, 3712
6, 272640, Note_on_c, 3, 70, 123
6, 272665, Pitch_bend_c, 3, 2080
6, 272682, Pitch_bend_c, 3, 1216
6, 272695, Pitch_bend_c, 3, 1184
6, 272712, Pitch_bend_c, 3, 2368
6, 272735, Pitch_bend_c, 3, 3872
6, 272747, Pitch_bend_c, 3, 5632
6, 272765, Pitch_bend_c, 3, 7296
6, 272782, Pitch_bend_c, 3, 8160
6, 272797, Pitch_bend_c, 3, 8192
6, 273012, Note_on_c, 3, 70, 0
6, 273120, Note_on_c, 3, 70, 116
6, 273197, Note_on_c, 3, 70, 0
6, 273310, Pitch_bend_c, 3, 7040
6, 273325, Pitch_bend_c, 3, 3168
6, 273347, Pitch_bend_c, 3, 1184
6, 273360, Note_on_c, 3, 70, 123
6, 273362, Pitch_bend_c, 3, 256
6, 273380, Pitch_bend_c, 3, 160
6, 273395, Pitch_bend_c, 3, 1600
6, 273417, Pitch_bend_c, 3, 3168
6, 273435, Pitch_bend_c, 3, 4928
6, 273450, Pitch_bend_c, 3, 6720
6, 273465, Pitch_bend_c, 3, 7936
6, 273480, Pitch_bend_c, 3, 8192
6, 273700, Note_on_c, 3, 70, 0
6, 273720, Note_on_c, 3, 68, 108
6, 273765, Control_c, 3, 1, 1
6, 273787, Control_c, 3, 1, 2
6, 273812, Note_on_c, 3, 68, 0
6, 273840, Note_on_c, 3, 65, 110
6, 273865, Control_c, 3, 1, 3
6, 273882, Control_c, 3, 1, 4
6, 273920, Control_c, 3, 1, 8
6, 273950, Control_c, 3, 1, 16
6, 273972, Control_c, 3, 1, 26
6, 273995, Control_c, 3, 1, 39
6, 274017, Control_c, 3, 1, 51
6, 274042, Control_c, 3, 1, 58
6, 274057, Control_c, 3, 1, 66
6, 274080, Control_c, 3, 1, 69
6, 274112, Control_c, 3, 1, 63
6, 274127, Control_c, 3, 1, 46
6, 274150, Control_c, 3, 1, 26
6, 274172, Control_c, 3, 1, 10
6, 274195, Note_on_c, 3, 65, 0
6, 274200, Control_c, 3, 1, 0
6, 274320, Note_on_c, 3, 65, 106
6, 274390, Note_on_c, 3, 65, 0
6, 274485, Pitch_bend_c, 3, 7552
6, 274500, Pitch_bend_c, 3, 5376
6, 274515, Pitch_bend_c, 3, 1504
6, 274542, Pitch_bend_c, 3, 0
6, 274560, Note_on_c, 3, 70, 120
6, 274610, Pitch_bend_c, 3, 2400
6, 274640, Pitch_bend_c, 3, 4128
6, 274655, Pitch_bend_c, 3, 6912
6, 274677, Pitch_bend_c, 3, 8000
6, 274695, Pitch_bend_c, 3, 8192
6, 274932, Note_on_c, 3, 70, 0
6, 274995, Control_c, 3, 1, 7
6, 275025, Control_c, 3, 1, 16
6, 275040, Note_on_c, 3, 70, 105
6, 275050, Control_c, 3, 1, 24
6, 275072, Control_c, 3, 1, 29
6, 275097, Control_c, 3, 1, 18
6, 275115, Note_on_c, 3, 70, 0
6, 275117, Control_c, 3, 1, 3
6, 275140, Control_c, 3, 1, 0
6, 275202, Pitch_bend_c, 3, 6880
6, 275217, Pitch_bend_c, 3, 3808
6, 275232, Pitch_bend_c, 3, 544
6, 275255, Pitch_bend_c, 3, 0
6, 275277, Pitch_bend_c, 3, 2848
6, 275280, Note_on_c, 3, 70, 118
6, 275310, Pitch_bend_c, 3, 7136
6, 275340, Pitch_bend_c, 3, 8160
6, 275355, Pitch_bend_c, 3, 8192
6, 275582, Note_on_c, 3, 70, 0
6, 275587, Control_c, 3, 1, 3
6, 275610, Control_c, 3, 1, 6
6, 275632, Control_c, 3, 1, 6
6, 275640, Note_on_c, 3, 68, 85
6, 275655, Control_c, 3, 1, 4
6, 275680, Control_c, 3, 1, 2
6, 275740, Control_c, 3, 1, 4
6, 275760, Note_on_c, 3, 65, 101
6, 275760, Note_on_c, 3, 68, 0
6, 275787, Control_c, 3, 1, 2
6, 275827, Control_c, 3, 1, 4
6, 275870, Control_c, 3, 1, 5
6, 275882, Note_on_c, 3, 65, 0
6, 275902, Control_c, 3, 1, 6
6, 275945, Control_c, 3, 1, 9
6, 275972, Control_c, 3, 1, 16
6, 275995, Control_c, 3, 1, 25
6, 276000, Note_on_c, 3, 65, 109
6, 276017, Control_c, 3, 1, 32
6, 276040, Control_c, 3, 1, 37
6, 276065, Control_c, 3, 1, 41
6, 276110, Control_c, 3, 1, 43
6, 276132, Control_c, 3, 1, 44
6, 276150, Note_on_c, 3, 65, 0
6, 276165, Control_c, 3, 1, 29
6, 276195, Control_c, 3, 1, 15
6, 276217, Control_c, 3, 1, 4
6, 276240, Note_on_c, 3, 65, 107
6, 276247, Control_c, 3, 1, 0
6, 276345, Note_on_c, 3, 65, 0
6, 276385, Pitch_bend_c, 3, 6432
6, 276407, Pitch_bend_c, 3, 3712
6, 276422, Pitch_bend_c, 3, 544
6, 276445, Pitch_bend_c, 3, 0
6, 276480, Note_on_c, 3, 65, 119
6, 276480, Pitch_bend_c, 3, 4768
6, 276497, Pitch_bend_c, 3, 1440
6, 276512, Pitch_bend_c, 3, 0
6, 276557, Pitch_bend_c, 3, 2624
6, 276580, Pitch_bend_c, 3, 5728
6, 276602, Pitch_bend_c, 3, 7552
6, 276617, Pitch_bend_c, 3, 8032
6, 276625, Pitch_bend_c, 3, 8192
6, 276680, Note_on_c, 3, 65, 0
6, 276720, Note_on_c, 3, 63, 105
6, 276825, Note_on_c, 3, 63, 0
6, 276840, Note_on_c, 3, 61, 110
6, 276925, Note_on_c, 3, 61, 0
6, 276960, Note_on_c, 3, 63, 109
6, 277020, Control_c, 3, 1, 10
6, 277052, Control_c, 3, 1, 17
6, 277075, Control_c, 3, 1, 23
6, 277097, Control_c, 3, 1, 28
6, 277120, Control_c, 3, 1, 32
6, 277142, Control_c, 3, 1, 33
6, 277175, Control_c, 3, 1, 30
6, 277182, Note_on_c, 3, 63, 0
6, 277190, Control_c, 3, 1, 23
6, 277200, Note_on_c, 3, 61, 102
6, 277212, Control_c, 3, 1, 17
6, 277230, Control_c, 3, 1, 10
6, 277252, Control_c, 3, 1, 7
6, 277285, Control_c, 3, 1, 6
6, 277290, Note_on_c, 3, 61, 0
6, 277300, Control_c, 3, 1, 8
6, 277320, Note_on_c, 3, 58, 95
6, 277337, Control_c, 3, 1, 5
6, 277390, Control_c, 3, 1, 3
6, 277415, Control_c, 3, 1, 0
6, 277422, Note_on_c, 3, 58, 0
6, 277440, Note_on_c, 3, 61, 110
6, 277560, Control_c, 3, 1, 3
6, 277592, Control_c, 3, 1, 5
6, 277622, Control_c, 3, 1, 6
6, 277645, Control_c, 3, 1, 7
6, 277657, Note_on_c, 3, 61, 0
6, 277660, Control_c, 3, 1, 8
6, 277680, Note_on_c, 3, 58, 105
6, 277707, Control_c, 3, 1, 9
6, 277760, Note_on_c, 3, 58, 0
6, 277800, Note_on_c, 3, 56, 100
6, 277830, Control_c, 3, 1, 11
6, 277860, Control_c, 3, 1, 13
6, 277865, Note_on_c, 3, 56, 0
6, 277882, Control_c, 3, 1, 16
6, 277907, Control_c, 3, 1, 20
6, 277920, Note_on_c, 3, 58, 109
6, 277927, Control_c, 3, 1, 23
6, 277952, Control_c, 3, 1, 26
6, 278005, Control_c, 3, 1, 27
6, 278020, Control_c, 3, 1, 26
6, 278045, Control_c, 3, 1, 31
6, 278067, Control_c, 3, 1, 36
6, 278085, Control_c, 3, 1, 46
6, 278092, Note_on_c, 3, 58, 0
6, 278112, Control_c, 3, 1, 36
6, 278135, Control_c, 3, 1, 11
6, 278150, Pitch_bend_c, 3, 6720
6, 278155, Control_c, 3, 1, 0
6, 278160, Note_on_c, 3, 60, 113
6, 278172, Pitch_bend_c, 3, 5248
6, 278190, Pitch_bend_c, 3, 2880
6, 278212, Pitch_bend_c, 3, 1440
6, 278227, Pitch_bend_c, 3, 704
6, 278242, Pitch_bend_c, 3, 736
6, 278260, Pitch_bend_c, 3, 2560
6, 278280, Pitch_bend_c, 3, 4768
6, 278297, Pitch_bend_c, 3, 7040
6, 278312, Pitch_bend_c, 3, 8160
6, 278327, Pitch_bend_c, 3, 8192
6, 278495, Control_c, 3, 1, 11
6, 278517, Control_c, 3, 1, 23
6, 278540, Control_c, 3, 1, 29
6, 278562, Control_c, 3, 1, 33
6, 278610, Control_c, 3, 1, 35
6, 278632, Control_c, 3, 1, 37
6, 278652, Control_c, 3, 1, 39
6, 278672, Control_c, 3, 1, 44
6, 278695, Control_c, 3, 1, 48
6, 278717, Control_c, 3, 1, 52
6, 278740, Control_c, 3, 1, 57
6, 278762, Control_c, 3, 1, 61
6, 278785, Control_c, 3, 1, 66
6, 278810, Control_c, 3, 1, 75
6, 278832, Control_c, 3, 1, 84
6, 278855, Control_c, 3, 1, 89
6, 278872, Control_c, 3, 1, 97
6, 278900, Control_c, 3, 1, 103
6, 278922, Control_c, 3, 1, 106
6, 278942, Control_c, 3, 1, 109
6, 278965, Control_c, 3, 1, 112
6, 279010, Control_c, 3, 1, 95
6, 279032, Control_c, 3, 1, 38
6, 279055, Control_c, 3, 1, 1
6, 279077, Control_c, 3, 1, 0
6, 279117, Note_on_c, 3, 60, 0
6, 279522, Pitch_bend_c, 3, 7392
6, 279542, Pitch_bend_c, 3, 4928
6, 279557, Pitch_bend_c, 3, 2080
6, 279572, Pitch_bend_c, 3, 0
6, 279600, Note_on_c, 3, 70, 121
6, 279617, Pitch_bend_c, 3, 2464
6, 279647, Pitch_bend_c, 3, 4384
6, 279662, Pitch_bend_c, 3, 6432
6, 279680, Pitch_bend_c, 3, 7840
6, 279695, Pitch_bend_c, 3, 8160
6, 279702, Pitch_bend_c, 3, 8192
6, 279872, Control_c, 3, 1, 9
6, 279887, Control_c, 3, 1, 39
6, 279910, Control_c, 3, 1, 72
6, 279932, Control_c, 3, 1, 96
6, 279960, Control_c, 3, 1, 105
6, 279975, Control_c, 3, 1, 82
6, 280002, Control_c, 3, 1, 35
6, 280025, Control_c, 3, 1, 11
6, 280042, Control_c, 3, 1, 0
6, 280097, Note_on_c, 3, 70, 0
6, 280320, Note_on_c, 3, 60, 124
6, 280320, Pitch_bend_c, 3, 1952
6, 280347, Pitch_bend_c, 3, 2592
6, 280362, Pitch_bend_c, 3, 3712
6, 280377, Pitch_bend_c, 3, 5760
6, 280400, Pitch_bend_c, 3, 6912
6, 280417, Pitch_bend_c, 3, 7872
6, 280432, Pitch_bend_c, 3, 8160
6, 280437, Pitch_bend_c, 3, 8192
6, 280505, Note_on_c, 3, 60, 0
6, 280560, Note_on_c, 3, 60, 115
6, 280892, Note_on_c, 3, 60, 0
6, 280990, Pitch_bend_c, 3, 6880
6, 281012, Pitch_bend_c, 3, 4256
6, 281027, Pitch_bend_c, 3, 1952
6, 281040, Note_on_c, 3, 60, 118
6, 281045, Pitch_bend_c, 3, 960
6, 281062, Pitch_bend_c, 3, 800
6, 281082, Pitch_bend_c, 3, 1152
6, 281100, Pitch_bend_c, 3, 1920
6, 281115, Pitch_bend_c, 3, 2880
6, 281130, Pitch_bend_c, 3, 4800
6, 281152, Pitch_bend_c, 3, 6272
6, 281167, Pitch_bend_c, 3, 7616
6, 281182, Pitch_bend_c, 3, 8000
6, 281190, Pitch_bend_c, 3, 8192
6, 281445, Note_on_c, 3, 60, 0
6, 281520, Note_on_c, 3, 58, 97
6, 281545, Control_c, 3, 1, 5
6, 281575, Control_c, 3, 1, 8
6, 281595, Control_c, 3, 1, 17
6, 281625, Control_c, 3, 1, 21
6, 281640, Control_c, 3, 1, 30
6, 281662, Control_c, 3, 1, 45
6, 281685, Control_c, 3, 1, 66
6, 281715, Control_c, 3, 1, 73
6, 281730, Control_c, 3, 1, 70
6, 281752, Note_on_c, 3, 58, 0
6, 281755, Control_c, 3, 1, 43
6, 281760, Note_on_c, 3, 56, 90
6, 281777, Control_c, 3, 1, 14
6, 281802, Control_c, 3, 1, 0
6, 281862, Note_on_c, 3, 56, 0
6, 281952, Pitch_bend_c, 3, 6560
6, 281975, Pitch_bend_c, 3, 4320
6, 281990, Pitch_bend_c, 3, 2336
6, 282000, Note_on_c, 3, 60, 122
6, 282005, Pitch_bend_c, 3, 640
6, 282030, Pitch_bend_c, 3, 320
6, 282052, Pitch_bend_c, 3, 1376
6, 282075, Pitch_bend_c, 3, 3072
6, 282100, Pitch_bend_c, 3, 5536
6, 282130, Pitch_bend_c, 3, 6880
6, 282145, Pitch_bend_c, 3, 8096
6, 282167, Pitch_bend_c, 3, 8192
6, 282340, Note_on_c, 3, 60, 0
6, 282480, Note_on_c, 3, 60, 106
6, 282492, Control_c, 3, 1, 12
6, 282522, Control_c, 3, 1, 26
6, 282547, Control_c, 3, 1, 36
6, 282562, Control_c, 3, 1, 49
6, 282585, Control_c, 3, 1, 57
6, 282607, Control_c, 3, 1, 62
6, 282630, Control_c, 3, 1, 66
6, 282652, Control_c, 3, 1, 69
6, 282705, Control_c, 3, 1, 64
6, 282720, Control_c, 3, 1, 46
6, 282745, Control_c, 3, 1, 24
6, 282770, Control_c, 3, 1, 6
6, 282792, Control_c, 3, 1, 0
6, 282820, Note_on_c, 3, 60, 0
6, 282897, Pitch_bend_c, 3, 6592
6, 282922, Pitch_bend_c, 3, 1536
6, 282950, Pitch_bend_c, 3, 512
6, 282960, Note_on_c, 3, 60, 111
6, 282967, Pitch_bend_c, 3, 576
6, 282990, Pitch_bend_c, 3, 1376
6, 283005, Pitch_bend_c, 3, 2560
6, 283020, Pitch_bend_c, 3, 3840
6, 283037, Pitch_bend_c, 3, 5312
6, 283055, Pitch_bend_c, 3, 7616
6, 283077, Pitch_bend_c, 3, 8032
6, 283085, Pitch_bend_c, 3, 8192
6, 283330, Control_c, 3, 1, 3
6, 283370, Control_c, 3, 1, 5
6, 283380, Note_on_c, 3, 60, 0
6, 283425, Control_c, 3, 1, 6
6, 283440, Note_on_c, 3, 58, 90
6, 283485, Control_c, 3, 1, 4
6, 283532, Control_c, 3, 1, 3
6, 283650, Note_on_c, 3, 58, 0
6, 283680, Note_on_c, 3, 56, 93
6, 283725, Control_c, 3, 1, 3
6, 283755, Control_c, 3, 1, 0
6, 283820, Note_on_c, 3, 56, 0
6, 283885, Control_c, 3, 1, 4
6, 283915, Control_c, 3, 1, 11
6, 283920, Note_on_c, 3, 53, 113
6, 283940, Control_c, 3, 1, 22
6, 283962, Control_c, 3, 1, 33
6, 283985, Control_c, 3, 1, 40
6, 284007, Control_c, 3, 1, 43
6, 284030, Control_c, 3, 1, 44
6, 284055, Control_c, 3, 1, 45
6, 284080, Control_c, 3, 1, 46
6, 284095, Control_c, 3, 1, 50
6, 284117, Control_c, 3, 1, 55
6, 284140, Control_c, 3, 1, 59
6, 284167, Control_c, 3, 1, 56
6, 284182, Control_c, 3, 1, 46
6, 284210, Control_c, 3, 1, 36
6, 284232, Control_c, 3, 1, 31
6, 284285, Control_c, 3, 1, 34
6, 284300, Control_c, 3, 1, 35
6, 284322, Note_on_c, 3, 53, 0
6, 284322, Control_c, 3, 1, 30
6, 284347, Control_c, 3, 1, 27
6, 284362, Control_c, 3, 1, 28
6, 284387, Control_c, 3, 1, 34
6, 284400, Note_on_c, 3, 55, 118
6, 284407, Control_c, 3, 1, 38
6, 284432, Control_c, 3, 1, 42
6, 284452, Control_c, 3, 1, 46
6, 284495, Control_c, 3, 1, 49
6, 284525, Control_c, 3, 1, 52
6, 284547, Control_c, 3, 1, 54
6, 284592, Control_c, 3, 1, 54
6, 284617, Control_c, 3, 1, 55
6, 284632, Control_c, 3, 1, 57
6, 284655, Control_c, 3, 1, 58
6, 284677, Control_c, 3, 1, 55
6, 284700, Control_c, 3, 1, 52
6, 284740, Control_c, 3, 1, 55
6, 284772, Control_c, 3, 1, 56
6, 284790, Note_on_c, 3, 55, 0
6, 284792, Control_c, 3, 1, 57
6, 284820, Control_c, 3, 1, 59
6, 284880, Note_on_c, 3, 56, 109
6, 284895, Control_c, 3, 1, 57
6, 284925, Control_c, 3, 1, 62
6, 284947, Control_c, 3, 1, 67
6, 284970, Control_c, 3, 1, 72
6, 284995, Control_c, 3, 1, 77
6, 285017, Control_c, 3, 1, 80
6, 285040, Control_c, 3, 1, 81
6, 285077, Control_c, 3, 1, 82
6, 285140, Control_c, 3, 1, 81
6, 285155, Control_c, 3, 1, 78
6, 285187, Control_c, 3, 1, 77
6, 285235, Control_c, 3, 1, 68
6, 285265, Control_c, 3, 1, 55
6, 285287, Control_c, 3, 1, 43
6, 285310, Control_c, 3, 1, 24
6, 285327, Note_on_c, 3, 56, 0
6, 285332, Control_c, 3, 1, 10
6, 285352, Control_c, 3, 1, 0
6, 285360, Note_on_c, 3, 58, 98
6, 285492, Note_on_c, 3, 58, 0
6, 285545, Pitch_bend_c, 3, 7232
6, 285560, Pitch_bend_c, 3, 4736
6, 285575, Pitch_bend_c, 3, 1152
6, 285597, Pitch_bend_c, 3, 0
6, 285600, Note_on_c, 3, 60, 114
6, 285660, Pitch_bend_c, 3, 2016
6, 285682, Pitch_bend_c, 3, 3296
6, 285697, Pitch_bend_c, 3, 4640
6, 285715, Pitch_bend_c, 3, 6112
6, 285732, Pitch_bend_c, 3, 7936
6, 285755, Pitch_bend_c, 3, 8160
6, 285762, Pitch_bend_c, 3, 8192
6, 286027, Control_c, 3, 1, 6
6, 286050, Control_c, 3, 1, 13
6, 286072, Control_c, 3, 1, 19
6, 286095, Control_c, 3, 1, 24
6, 286117, Control_c, 3, 1, 27
6, 286140, Control_c, 3, 1, 31
6, 286162, Control_c, 3, 1, 36
6, 286185, Control_c, 3, 1, 43
6, 286207, Control_c, 3, 1, 48
6, 286232, Control_c, 3, 1, 51
6, 286255, Control_c, 3, 1, 53
6, 286282, Control_c, 3, 1, 56
6, 286300, Control_c, 3, 1, 58
6, 286320, Control_c, 3, 1, 61
6, 286342, Control_c, 3, 1, 65
6, 286377, Control_c, 3, 1, 66
6, 286387, Control_c, 3, 1, 69
6, 286417, Control_c, 3, 1, 70
6, 286440, Control_c, 3, 1, 71
6, 286455, Control_c, 3, 1, 72
6, 286517, Control_c, 3, 1, 73
6, 286540, Control_c, 3, 1, 65
6, 286572, Control_c, 3, 1, 53
6, 286595, Control_c, 3, 1, 39
6, 286617, Control_c, 3, 1, 20
6, 286640, Control_c, 3, 1, 1
6, 286662, Control_c, 3, 1, 0
6, 286702, Note_on_c, 3, 60, 0
6, 287760, Note_on_c, 3, 58, 106
6, 287820, Note_on_c, 3, 58, 0
6, 287920, Pitch_bend_c, 3, 6336
6, 287942, Pitch_bend_c, 3, 3776
6, 287957, Pitch_bend_c, 3, 1760
6, 287972, Pitch_bend_c, 3, 416
6, 287995, Pitch_bend_c, 3, 8096
6, 288000, Note_on_c, 3, 70, 123
6, 288007, Pitch_bend_c, 3, 3712
6, 288025, Pitch_bend_c, 3, 2080
6, 288042, Pitch_bend_c, 3, 1216
6, 288055, Pitch_bend_c, 3, 1184
6, 288072, Pitch_bend_c, 3, 2368
6, 288095, Pitch_bend_c, 3, 3872
6, 288107, Pitch_bend_c, 3, 5632
6, 288125, Pitch_bend_c, 3, 7296
6, 288142, Pitch_bend_c, 3, 8160
6, 288157, Pitch_bend_c, 3, 8192
6, 288372, Note_on_c, 3, 70, 0
6, 288480, Note_on_c, 3, 70, 116
6, 288557, Note_on_c, 3, 70, 0
6, 288670, Pitch_bend_c, 3, 7040
6, 288685, Pitch_bend_c, 3, 3168
6, 288707, Pitch_bend_c, 3, 1184
6, 288720, Note_on_c, 3, 70, 123
6, 288722, Pitch_bend_c, 3, 256
6, 288740, Pitch_bend_c, 3, 160
6, 288755, Pitch_bend_c, 3, 1600
6, 288777, Pitch_bend_c, 3, 3168
6, 288795, Pitch_bend_c, 3, 4928
6, 288810, Pitch_bend_c, 3, 6720
6, 288825, Pitch_bend_c, 3, 7936
6, 288840, Pitch_bend_c, 3, 8192
6, 289060, Note_on_c, 3, 70, 0
6, 289080, Note_on_c, 3, 68, 108
6, 289125, Control_c, 3, 1, 1
6, 289147, Control_c, 3, 1, 2
6, 289172, Note_on_c, 3, 68, 0
6, 289200, Note_on_c, 3, 65, 110
6, 289225, Control_c, 3, 1, 3
6, 289242, Control_c, 3, 1, 4
6, 289280, Control_c, 3, 1, 5
6, 289287, Control_c, 3, 1, 8
6, 289310, Control_c, 3, 1, 16
6, 289332, Control_c, 3, 1, 26
6, 289355, Control_c, 3, 1, 39
6, 289377, Control_c, 3, 1, 51
6, 289402, Control_c, 3, 1, 58
6, 289417, Control_c, 3, 1, 66
6, 289440, Control_c, 3, 1, 69
6, 289472, Control_c, 3, 1, 63
6, 289487, Control_c, 3, 1, 46
6, 289510, Control_c, 3, 1, 26
6, 289532, Control_c, 3, 1, 10
6, 289555, Note_on_c, 3, 65, 0
6, 289560, Control_c, 3, 1, 0
6, 289680, Note_on_c, 3, 65, 106
6, 289750, Note_on_c, 3, 65, 0
6, 289845, Pitch_bend_c, 3, 7552
6, 289860, Pitch_bend_c, 3, 5376
6, 289875, Pitch_bend_c, 3, 1504
6, 289902, Pitch_bend_c, 3, 480
6, 289910, Pitch_bend_c, 3, 0
6, 289920, Note_on_c, 3, 70, 120
6, 289970, Pitch_bend_c, 3, 960
6, 289985, Pitch_bend_c, 3, 2400
6, 290000, Pitch_bend_c, 3, 4128
6, 290015, Pitch_bend_c, 3, 6912
6, 290037, Pitch_bend_c, 3, 8000
6, 290055, Pitch_bend_c, 3, 8192
6, 290292, Note_on_c, 3, 70, 0
6, 290355, Control_c, 3, 1, 1
6, 290362, Control_c, 3, 1, 7
6, 290385, Control_c, 3, 1, 16
6, 290400, Note_on_c, 3, 70, 105
6, 290410, Control_c, 3, 1, 24
6, 290432, Control_c, 3, 1, 29
6, 290457, Control_c, 3, 1, 18
6, 290475, Note_on_c, 3, 70, 0
6, 290477, Control_c, 3, 1, 3
6, 290500, Control_c, 3, 1, 0
6, 290562, Pitch_bend_c, 3, 6880
6, 290577, Pitch_bend_c, 3, 3808
6, 290592, Pitch_bend_c, 3, 544
6, 290615, Pitch_bend_c, 3, 0
6, 290637, Pitch_bend_c, 3, 416
6, 290640, Note_on_c, 3, 70, 118
6, 290647, Pitch_bend_c, 3, 2848
6, 290670, Pitch_bend_c, 3, 4992
6, 290685, Pitch_bend_c, 3, 7136
6, 290700, Pitch_bend_c, 3, 8160
6, 290715, Pitch_bend_c, 3, 8192
6, 290942, Note_on_c, 3, 70, 0
6, 290947, Control_c, 3, 1, 3
6, 290970, Control_c, 3, 1, 6
6, 290992, Control_c, 3, 1, 6
6, 291000, Note_on_c, 3, 68, 85
6, 291015, Control_c, 3, 1, 4
6, 291040, Control_c, 3, 1, 2
6, 291100, Control_c, 3, 1, 3
6, 291117, Control_c, 3, 1, 4
6, 291120, Note_on_c, 3, 65, 101
6, 291120, Note_on_c, 3, 68, 0
6, 291147, Control_c, 3, 1, 3
6, 291155, Control_c, 3, 1, 2
6, 291187, Control_c, 3, 1, 3
6, 291195, Control_c, 3, 1, 4
6, 291230, Control_c, 3, 1, 5
6, 291242, Note_on_c, 3, 65, 0
6, 291262, Control_c, 3, 1, 6
6, 291305, Control_c, 3, 1, 7
6, 291315, Control_c, 3, 1, 9
6, 291332, Control_c, 3, 1, 16
6, 291355, Control_c, 3, 1, 25
6, 291360, Note_on_c, 3, 65, 109
6, 291377, Control_c, 3, 1, 32
6, 291400, Control_c, 3, 1, 37
6, 291425, Control_c, 3, 1, 41
6, 291470, Control_c, 3, 1, 43
6, 291492, Control_c, 3, 1, 44
6, 291510, Note_on_c, 3, 65, 0
6, 291525, Control_c, 3, 1, 39
6, 291540, Control_c, 3, 1, 29
6, 291555, Control_c, 3, 1, 15
6, 291577, Control_c, 3, 1, 4
6, 291600, Note_on_c, 3, 65, 107
6, 291607, Control_c, 3, 1, 0
6, 291705, Note_on_c, 3, 65, 0
6, 291745, Pitch_bend_c, 3, 6432
6, 291767, Pitch_bend_c, 3, 3712
6, 291782, Pitch_bend_c, 3, 544
6, 291805, Pitch_bend_c, 3, 0
6, 291840, Note_on_c, 3, 65, 119
6, 291840, Pitch_bend_c, 3, 4768
6, 291857, Pitch_bend_c, 3, 1440
6, 291872, Pitch_bend_c, 3, 0
6, 291917, Pitch_bend_c, 3, 2624
6, 291940, Pitch_bend_c, 3, 5728
6, 291962, Pitch_bend_c, 3, 7552
6, 291977, Pitch_bend_c, 3, 8032
6, 291985, Pitch_bend_c, 3, 8192
6, 292040, Note_on_c, 3, 65, 0
6, 292080, Note_on_c, 3, 63, 105
6, 292185, Note_on_c, 3, 63, 0
6, 292200, Note_on_c, 3, 61, 110
6, 292285, Note_on_c, 3, 61, 0
6, 292320, Note_on_c, 3, 63, 109
6, 292380, Control_c, 3, 1, 1
6, 292387, Control_c, 3, 1, 10
6, 292412, Control_c, 3, 1, 17
6, 292435, Control_c, 3, 1, 23
6, 292457, Control_c, 3, 1, 28
6, 292480, Control_c, 3, 1, 32
6, 292502, Control_c, 3, 1, 33
6, 292535, Control_c, 3, 1, 30
6, 292542, Note_on_c, 3, 63, 0
6, 292550, Control_c, 3, 1, 23
6, 292560, Note_on_c, 3, 61, 102
6, 292572, Control_c, 3, 1, 17
6, 292590, Control_c, 3, 1, 10
6, 292612, Control_c, 3, 1, 7
6, 292645, Control_c, 3, 1, 6
6, 292650, Note_on_c, 3, 61, 0
6, 292660, Control_c, 3, 1, 8
6, 292680, Note_on_c, 3, 58, 95
6, 292697, Control_c, 3, 1, 7
6, 292705, Control_c, 3, 1, 5
6, 292750, Control_c, 3, 1, 3
6, 292775, Control_c, 3, 1, 0
6, 292782, Note_on_c, 3, 58, 0
6, 292800, Note_on_c, 3, 61, 110
6, 292920, Control_c, 3, 1, 1
6, 292937, Control_c, 3, 1, 3
6, 292952, Control_c, 3, 1, 5
6, 292982, Control_c, 3, 1, 6
6, 293005, Control_c, 3, 1, 7
6, 293017, Note_on_c, 3, 61, 0
6, 293020, Control_c, 3, 1, 8
6, 293040, Note_on_c, 3, 58, 105
6, 293067, Control_c, 3, 1, 9
6, 293120, Note_on_c, 3, 58, 0
6, 293160, Note_on_c, 3, 56, 100
6, 293190, Control_c, 3, 1, 10
6, 293202, Control_c, 3, 1, 11
6, 293220, Control_c, 3, 1, 13
6, 293225, Note_on_c, 3, 56, 0
6, 293242, Control_c, 3, 1, 16
6, 293267, Control_c, 3, 1, 20
6, 293280, Note_on_c, 3, 58, 109
6, 293287, Control_c, 3, 1, 23
6, 293312, Control_c, 3, 1, 26
6, 293365, Control_c, 3, 1, 27
6, 293380, Control_c, 3, 1, 26
6, 293405, Control_c, 3, 1, 31
6, 293427, Control_c, 3, 1, 36
6, 293445, Control_c, 3, 1, 46
6, 293452, Note_on_c, 3, 58, 0
6, 293472, Control_c, 3, 1, 36
6, 293495, Control_c, 3, 1, 11
6, 293510, Pitch_bend_c, 3, 6720
6, 293515, Control_c, 3, 1, 0
6, 293520, Note_on_c, 3, 60, 113
6, 293532, Pitch_bend_c, 3, 5248
6, 293550, Pitch_bend_c, 3, 2880
6, 293572, Pitch_bend_c, 3, 1440
6, 293587, Pitch_bend_c, 3, 704
6, 293602, Pitch_bend_c, 3, 736
6, 293620, Pitch_bend_c, 3, 2560
6, 293640, Pitch_bend_c, 3, 4768
6, 293657, Pitch_bend_c, 3, 7040
6, 293672, Pitch_bend_c, 3, 8160
6, 293687, Pitch_bend_c, 3, 8192
6, 293855, Control_c, 3, 1, 11
6, 293877, Control_c, 3, 1, 23
6, 293900, Control_c, 3, 1, 29
6, 293922, Control_c, 3, 1, 33
6, 293970, Control_c, 3, 1, 35
6, 293992, Control_c, 3, 1, 37
6, 294012, Control_c, 3, 1, 39
6, 294032, Control_c, 3, 1, 44
6, 294055, Control_c, 3, 1, 48
6, 294077, Control_c, 3, 1, 52
6, 294100, Control_c, 3, 1, 57
6, 294122, Control_c, 3, 1, 61
6, 294145, Control_c, 3, 1, 66
6, 294170, Control_c, 3, 1, 75
6, 294192, Control_c, 3, 1, 84
6, 294215, Control_c, 3, 1, 89
6, 294232, Control_c, 3, 1, 97
6, 294260, Control_c, 3, 1, 103
6, 294282, Control_c, 3, 1, 106
6, 294302, Control_c, 3, 1, 109
6, 294325, Control_c, 3, 1, 112
6, 294370, Control_c, 3, 1, 95
6, 294392, Control_c, 3, 1, 38
6, 294415, Control_c, 3, 1, 1
6, 294437, Control_c, 3, 1, 0
6, 294477, Note_on_c, 3, 60, 0
6, 294882, Pitch_bend_c, 3, 7392
6, 294902, Pitch_bend_c, 3, 4928
6, 294917, Pitch_bend_c, 3, 2080
6, 294932, Pitch_bend_c, 3, 0
6, 294960, Note_on_c, 3, 70, 127
6, 294977, Pitch_bend_c, 3, 160
6, 294985, Pitch_bend_c, 3, 2464
6, 295007, Pitch_bend_c, 3, 4384
6, 295022, Pitch_bend_c, 3, 6432
6, 295040, Pitch_bend_c, 3, 7840
6, 295055, Pitch_bend_c, 3, 8160
6, 295062, Pitch_bend_c, 3, 8192
6, 295232, Control_c, 3, 1, 9
6, 295247, Control_c, 3, 1, 39
6, 295260, Note_on_c, 3, 70, 0
6, 295270, Control_c, 3, 1, 72
6, 295292, Control_c, 3, 1, 96
6, 295320, Control_c, 3, 1, 105
6, 295335, Control_c, 3, 1, 82
6, 295362, Control_c, 3, 1, 35
6, 295385, Control_c, 3, 1, 11
6, 295440, Control_c, 3, 11, 126
6, 295500, Control_c, 3, 11, 116
6, 295560, Control_c, 3, 11, 107
6, 295620, Control_c, 3, 11, 97
6, 295680, Control_c, 3, 11, 87
6, 295740, Control_c, 3, 11, 77
6, 295800, Control_c, 3, 11, 68
6, 295860, Control_c, 3, 11, 58
6, 295920, Control_c, 3, 11, 48
6, 295980, Control_c, 3, 11, 38
6, 296040, Control_c, 3, 11, 29
6, 296100, Control_c, 3, 11, 19
6, 296160, Control_c, 3, 11, 0
6, 296160, End_track
7, 0, Start_track
7, 0, Channel_prefix, 4
7, 0, Title_t, "STRINGS "
7, 0, Instrument_name_t, "CHA  5  "
7, 485, Program_c, 4, 48
7, 487, Control_c, 4, 11, 127
7, 490, Control_c, 4, 7, 80
7, 492, Control_c, 4, 10, 64
7, 495, Control_c, 4, 91, 74
7, 497, Control_c, 4, 93, 0
7, 19200, Note_on_c, 4, 84, 93
7, 23750, Note_on_c, 4, 84, 0
7, 23760, Note_on_c, 4, 85, 78
7, 23977, Note_on_c, 4, 85, 0
7, 24000, Note_on_c, 4, 84, 86
7, 24457, Note_on_c, 4, 84, 0
7, 24480, Note_on_c, 4, 82, 90
7, 24720, Note_on_c, 4, 77, 95
7, 24727, Note_on_c, 4, 82, 0
7, 26845, Note_on_c, 4, 77, 0
7, 26880, Note_on_c, 4, 84, 93
7, 31105, Note_on_c, 4, 84, 0
7, 31200, Note_on_c, 4, 84, 95
7, 31405, Note_on_c, 4, 84, 0
7, 31440, Note_on_c, 4, 85, 81
7, 31557, Note_on_c, 4, 85, 0
7, 31680, Note_on_c, 4, 84, 86
7, 32135, Note_on_c, 4, 84, 0
7, 32160, Note_on_c, 4, 82, 86
7, 32205, Note_on_c, 4, 82, 0
7, 32400, Note_on_c, 4, 89, 85
7, 32400, Note_on_c, 4, 92, 91
7, 34540, Note_on_c, 4, 89, 0
7, 34560, Note_on_c, 4, 92, 0
7, 57600, Note_on_c, 4, 84, 93
7, 62150, Note_on_c, 4, 84, 0
7, 62160, Note_on_c, 4, 85, 78
7, 62377, Note_on_c, 4, 85, 0
7, 62400, Note_on_c, 4, 84, 86
7, 62857, Note_on_c, 4, 84, 0
7, 62880, Note_on_c, 4, 82, 90
7, 63120, Note_on_c, 4, 77, 95
7, 63127, Note_on_c, 4, 82, 0
7, 65245, Note_on_c, 4, 77, 0
7, 65280, Note_on_c, 4, 84, 93
7, 69505, Note_on_c, 4, 84, 0
7, 69600, Note_on_c, 4, 84, 95
7, 69805, Note_on_c, 4, 84, 0
7, 69840, Note_on_c, 4, 85, 81
7, 69957, Note_on_c, 4, 85, 0
7, 70080, Note_on_c, 4, 84, 86
7, 70535, Note_on_c, 4, 84, 0
7, 70560, Note_on_c, 4, 82, 86
7, 70605, Note_on_c, 4, 82, 0
7, 70800, Note_on_c, 4, 89, 85
7, 70800, Note_on_c, 4, 92, 91
7, 72940, Note_on_c, 4, 89, 0
7, 72960, Note_on_c, 4, 84, 93
7, 72960, Note_on_c, 4, 92, 0
7, 77185, Note_on_c, 4, 84, 0
7, 77280, Note_on_c, 4, 84, 95
7, 77485, Note_on_c, 4, 84, 0
7, 77520, Note_on_c, 4, 85, 81
7, 77637, Note_on_c, 4, 85, 0
7, 77760, Note_on_c, 4, 84, 86
7, 78215, Note_on_c, 4, 84, 0
7, 78240, Note_on_c, 4, 82, 86
7, 78285, Note_on_c, 4, 82, 0
7, 78480, Note_on_c, 4, 89, 85
7, 78480, Note_on_c, 4, 92, 91
7, 80620, Note_on_c, 4, 89, 0
7, 80640, Note_on_c, 4, 92, 0
7, 103680, Note_on_c, 4, 84, 93
7, 108230, Note_on_c, 4, 84, 0
7, 108240, Note_on_c, 4, 85, 78
7, 108457, Note_on_c, 4, 85, 0
7, 108480, Note_on_c, 4, 84, 86
7, 108937, Note_on_c, 4, 84, 0
7, 108960, Note_on_c, 4, 82, 90
7, 109200, Note_on_c, 4, 77, 95
7, 109207, Note_on_c, 4, 82, 0
7, 111325, Note_on_c, 4, 77, 0
7, 111360, Note_on_c, 4, 84, 93
7, 115585, Note_on_c, 4, 84, 0
7, 115680, Note_on_c, 4, 84, 95
7, 115885, Note_on_c, 4, 84, 0
7, 115920, Note_on_c, 4, 85, 81
7, 116037, Note_on_c, 4, 85, 0
7, 116160, Note_on_c, 4, 84, 86
7, 116615, Note_on_c, 4, 84, 0
7, 116640, Note_on_c, 4, 82, 86
7, 116685, Note_on_c, 4, 82, 0
7, 116880, Note_on_c, 4, 89, 85
7, 116880, Note_on_c, 4, 92, 91
7, 119020, Note_on_c, 4, 89, 0
7, 119040, Note_on_c, 4, 84, 93
7, 119040, Note_on_c, 4, 92, 0
7, 123590, Note_on_c, 4, 84, 0
7, 123600, Note_on_c, 4, 85, 78
7, 123817, Note_on_c, 4, 85, 0
7, 123840, Note_on_c, 4, 84, 86
7, 124297, Note_on_c, 4, 84, 0
7, 124320, Note_on_c, 4, 82, 90
7, 124560, Note_on_c, 4, 77, 95
7, 124567, Note_on_c, 4, 82, 0
7, 126685, Note_on_c, 4, 77, 0
7, 126720, Note_on_c, 4, 84, 93
7, 130945, Note_on_c, 4, 84, 0
7, 131040, Note_on_c, 4, 84, 95
7, 131245, Note_on_c, 4, 84, 0
7, 131280, Note_on_c, 4, 85, 81
7, 131397, Note_on_c, 4, 85, 0
7, 131520, Note_on_c, 4, 84, 86
7, 131975, Note_on_c, 4, 84, 0
7, 132000, Note_on_c, 4, 82, 86
7, 132045, Note_on_c, 4, 82, 0
7, 132240, Note_on_c, 4, 89, 85
7, 132240, Note_on_c, 4, 92, 91
7, 134380, Note_on_c, 4, 89, 0
7, 134400, Note_on_c, 4, 92, 0
7, 149760, Note_on_c, 4, 84, 93
7, 154310, Note_on_c, 4, 84, 0
7, 154320, Note_on_c, 4, 85, 78
7, 154537, Note_on_c, 4, 85, 0
7, 154560, Note_on_c, 4, 84, 86
7, 155017, Note_on_c, 4, 84, 0
7, 155040, Note_on_c, 4, 82, 90
7, 155280, Note_on_c, 4, 77, 95
7, 155287, Note_on_c, 4, 82, 0
7, 157405, Note_on_c, 4, 77, 0
7, 157440, Note_on_c, 4, 84, 93
7, 161665, Note_on_c, 4, 84, 0
7, 161760, Note_on_c, 4, 84, 95
7, 161965, Note_on_c, 4, 84, 0
7, 162000, Note_on_c, 4, 85, 81
7, 162117, Note_on_c, 4, 85, 0
7, 162240, Note_on_c, 4, 84, 86
7, 162695, Note_on_c, 4, 84, 0
7, 162720, Note_on_c, 4, 82, 86
7, 162765, Note_on_c, 4, 82, 0
7, 162960, Note_on_c, 4, 89, 85
7, 162960, Note_on_c, 4, 92, 91
7, 165100, Note_on_c, 4, 89, 0
7, 165120, Note_on_c, 4, 92, 0
7, 188160, Note_on_c, 4, 84, 93
7, 192710, Note_on_c, 4, 84, 0
7, 192720, Note_on_c, 4, 85, 78
7, 192937, Note_on_c, 4, 85, 0
7, 192960, Note_on_c, 4, 84, 86
7, 193417, Note_on_c, 4, 84, 0
7, 193440, Note_on_c, 4, 82, 90
7, 193680, Note_on_c, 4, 77, 95
7, 193687, Note_on_c, 4, 82, 0
7, 195805, Note_on_c, 4, 77, 0
7, 195840, Note_on_c, 4, 84, 93
7, 200065, Note_on_c, 4, 84, 0
7, 200160, Note_on_c, 4, 84, 95
7, 200365, Note_on_c, 4, 84, 0
7, 200400, Note_on_c, 4, 85, 81
7, 200517, Note_on_c, 4, 85, 0
7, 200640, Note_on_c, 4, 84, 86
7, 201095, Note_on_c, 4, 84, 0
7, 201120, Note_on_c, 4, 82, 86
7, 201165, Note_on_c, 4, 82, 0
7, 201360, Note_on_c, 4, 89, 85
7, 201360, Note_on_c, 4, 92, 91
7, 203500, Note_on_c, 4, 89, 0
7, 203520, Note_on_c, 4, 92, 0
7, 204000, Note_on_c, 4, 89, 105
7, 204270, Note_on_c, 4, 89, 0
7, 204480, Note_on_c, 4, 89, 105
7, 204677, Note_on_c, 4, 89, 0
7, 204720, Note_on_c, 4, 87, 105
7, 204800, Note_on_c, 4, 87, 0
7, 204840, Note_on_c, 4, 84, 105
7, 204937, Note_on_c, 4, 84, 0
7, 204960, Note_on_c, 4, 87, 105
7, 205075, Note_on_c, 4, 87, 0
7, 205080, Note_on_c, 4, 84, 105
7, 205175, Note_on_c, 4, 84, 0
7, 205200, Note_on_c, 4, 82, 105
7, 205297, Note_on_c, 4, 82, 0
7, 205440, Note_on_c, 4, 84, 105
7, 205622, Note_on_c, 4, 84, 0
7, 205680, Note_on_c, 4, 82, 105
7, 205775, Note_on_c, 4, 82, 0
7, 205800, Note_on_c, 4, 79, 105
7, 205902, Note_on_c, 4, 79, 0
7, 205920, Note_on_c, 4, 78, 105
7, 206015, Note_on_c, 4, 78, 0
7, 206040, Note_on_c, 4, 77, 105
7, 206142, Note_on_c, 4, 77, 0
7, 206160, Note_on_c, 4, 75, 105
7, 206262, Note_on_c, 4, 75, 0
7, 206400, Note_on_c, 4, 77, 105
7, 206587, Note_on_c, 4, 77, 0
7, 206640, Note_on_c, 4, 75, 105
7, 206722, Note_on_c, 4, 75, 0
7, 206760, Note_on_c, 4, 72, 105
7, 206847, Note_on_c, 4, 72, 0
7, 206880, Note_on_c, 4, 75, 105
7, 206972, Note_on_c, 4, 75, 0
7, 207000, Note_on_c, 4, 77, 105
7, 207097, Note_on_c, 4, 77, 0
7, 207240, Note_on_c, 4, 79, 105
7, 207545, Note_on_c, 4, 79, 0
7, 207600, Note_on_c, 4, 75, 105
7, 207705, Note_on_c, 4, 75, 0
7, 207840, Note_on_c, 4, 72, 105
7, 207955, Note_on_c, 4, 72, 0
7, 208080, Note_on_c, 4, 75, 105
7, 208185, Note_on_c, 4, 75, 0
7, 208320, Note_on_c, 4, 79, 105
7, 208422, Note_on_c, 4, 79, 0
7, 208560, Note_on_c, 4, 82, 105
7, 208650, Note_on_c, 4, 82, 0
7, 208800, Note_on_c, 4, 84, 105
7, 208905, Note_on_c, 4, 84, 0
7, 208920, Note_on_c, 4, 82, 105
7, 209012, Note_on_c, 4, 82, 0
7, 209160, Note_on_c, 4, 84, 105
7, 209385, Note_on_c, 4, 84, 0
7, 209520, Note_on_c, 4, 87, 105
7, 209615, Note_on_c, 4, 87, 0
7, 209760, Note_on_c, 4, 86, 105
7, 209850, Note_on_c, 4, 86, 0
7, 210000, Note_on_c, 4, 82, 105
7, 210105, Note_on_c, 4, 82, 0
7, 210240, Note_on_c, 4, 84, 105
7, 210355, Note_on_c, 4, 84, 0
7, 210480, Note_on_c, 4, 82, 105
7, 210572, Note_on_c, 4, 82, 0
7, 210720, Note_on_c, 4, 84, 105
7, 210805, Note_on_c, 4, 84, 0
7, 210960, Note_on_c, 4, 91, 105
7, 211292, Note_on_c, 4, 91, 0
7, 211440, Note_on_c, 4, 89, 105
7, 211537, Note_on_c, 4, 89, 0
7, 211680, Note_on_c, 4, 87, 105
7, 211775, Note_on_c, 4, 87, 0
7, 211920, Note_on_c, 4, 84, 106
7, 212012, Note_on_c, 4, 84, 0
7, 212160, Note_on_c, 4, 89, 106
7, 212252, Note_on_c, 4, 89, 0
7, 212280, Note_on_c, 4, 87, 106
7, 212365, Note_on_c, 4, 87, 0
7, 212520, Note_on_c, 4, 84, 106
7, 212617, Note_on_c, 4, 84, 0
7, 212880, Note_on_c, 4, 89, 106
7, 213262, Note_on_c, 4, 89, 0
7, 213360, Note_on_c, 4, 89, 106
7, 213457, Note_on_c, 4, 89, 0
7, 213600, Note_on_c, 4, 87, 106
7, 213702, Note_on_c, 4, 87, 0
7, 213840, Note_on_c, 4, 84, 106
7, 213947, Note_on_c, 4, 84, 0
7, 214080, Note_on_c, 4, 89, 106
7, 214172, Note_on_c, 4, 89, 0
7, 214320, Note_on_c, 4, 89, 106
7, 214407, Note_on_c, 4, 89, 0
7, 214440, Note_on_c, 4, 87, 106
7, 214592, Note_on_c, 4, 87, 0
7, 214680, Note_on_c, 4, 84, 106
7, 214760, Note_on_c, 4, 84, 0
7, 214800, Note_on_c, 4, 89, 106
7, 215170, Note_on_c, 4, 89, 0
7, 215280, Note_on_c, 4, 89, 106
7, 215372, Note_on_c, 4, 89, 0
7, 215520, Note_on_c, 4, 87, 106
7, 215600, Note_on_c, 4, 87, 0
7, 215760, Note_on_c, 4, 84, 106
7, 215865, Note_on_c, 4, 84, 0
7, 216000, Note_on_c, 4, 89, 106
7, 216082, Note_on_c, 4, 89, 0
7, 216240, Note_on_c, 4, 89, 106
7, 216335, Note_on_c, 4, 89, 0
7, 216360, Note_on_c, 4, 87, 106
7, 216445, Note_on_c, 4, 87, 0
7, 216600, Note_on_c, 4, 84, 106
7, 216680, Note_on_c, 4, 84, 0
7, 216720, Note_on_c, 4, 89, 106
7, 217057, Note_on_c, 4, 89, 0
7, 217200, Note_on_c, 4, 87, 106
7, 217292, Note_on_c, 4, 87, 0
7, 217440, Note_on_c, 4, 86, 106
7, 217517, Note_on_c, 4, 86, 0
7, 217560, Note_on_c, 4, 84, 106
7, 217642, Note_on_c, 4, 84, 0
7, 233040, Note_on_c, 4, 86, 98
7, 233260, Note_on_c, 4, 86, 0
7, 233280, Note_on_c, 4, 87, 104
7, 233420, Note_on_c, 4, 87, 0
7, 240240, Note_on_c, 4, 77, 104
7, 240240, Note_on_c, 4, 89, 104
7, 240445, Note_on_c, 4, 89, 0
7, 240447, Note_on_c, 4, 77, 0
7, 240720, Note_on_c, 4, 77, 104
7, 240720, Note_on_c, 4, 89, 104
7, 240945, Note_on_c, 4, 89, 0
7, 240957, Note_on_c, 4, 77, 0
7, 241200, Note_on_c, 4, 77, 103
7, 241200, Note_on_c, 4, 89, 103
7, 241905, Note_on_c, 4, 89, 0
7, 241907, Note_on_c, 4, 77, 0
7, 249600, Note_on_c, 4, 84, 93
7, 254150, Note_on_c, 4, 84, 0
7, 254160, Note_on_c, 4, 85, 78
7, 254377, Note_on_c, 4, 85, 0
7, 254400, Note_on_c, 4, 84, 86
7, 254857, Note_on_c, 4, 84, 0
7, 254880, Note_on_c, 4, 82, 90
7, 255120, Note_on_c, 4, 77, 95
7, 255127, Note_on_c, 4, 82, 0
7, 257245, Note_on_c, 4, 77, 0
7, 257280, Note_on_c, 4, 84, 93
7, 261505, Note_on_c, 4, 84, 0
7, 261600, Note_on_c, 4, 84, 95
7, 261805, Note_on_c, 4, 84, 0
7, 261840, Note_on_c, 4, 85, 81
7, 261957, Note_on_c, 4, 85, 0
7, 262080, Note_on_c, 4, 84, 86
7, 262535, Note_on_c, 4, 84, 0
7, 262560, Note_on_c, 4, 82, 86
7, 262605, Note_on_c, 4, 82, 0
7, 262800, Note_on_c, 4, 89, 85
7, 262800, Note_on_c, 4, 92, 91
7, 264940, Note_on_c, 4, 89, 0
7, 264960, Note_on_c, 4, 84, 93
7, 264960, Note_on_c, 4, 92, 0
7, 269510, Note_on_c, 4, 84, 0
7, 269520, Note_on_c, 4, 85, 78
7, 269737, Note_on_c, 4, 85, 0
7, 269760, Note_on_c, 4, 84, 86
7, 270217, Note_on_c, 4, 84, 0
7, 270240, Note_on_c, 4, 82, 90
7, 270480, Note_on_c, 4, 77, 95
7, 270487, Note_on_c, 4, 82, 0
7, 272605, Note_on_c, 4, 77, 0
7, 272640, Note_on_c, 4, 84, 93
7, 276865, Note_on_c, 4, 84, 0
7, 276960, Note_on_c, 4, 84, 95
7, 277165, Note_on_c, 4, 84, 0
7, 277200, Note_on_c, 4, 85, 81
7, 277317, Note_on_c, 4, 85, 0
7, 277440, Note_on_c, 4, 84, 86
7, 277895, Note_on_c, 4, 84, 0
7, 277920, Note_on_c, 4, 82, 86
7, 277965, Note_on_c, 4, 82, 0
7, 278160, Note_on_c, 4, 89, 85
7, 278160, Note_on_c, 4, 92, 91
7, 280300, Note_on_c, 4, 89, 0
7, 280320, Note_on_c, 4, 84, 93
7, 280320, Note_on_c, 4, 92, 0
7, 284870, Note_on_c, 4, 84, 0
7, 284880, Note_on_c, 4, 85, 78
7, 285097, Note_on_c, 4, 85, 0
7, 285120, Note_on_c, 4, 84, 86
7, 285577, Note_on_c, 4, 84, 0
7, 285600, Note_on_c, 4, 82, 90
7, 285840, Note_on_c, 4, 77, 95
7, 285847, Note_on_c, 4, 82, 0
7, 287965, Note_on_c, 4, 77, 0
7, 288000, Note_on_c, 4, 84, 93
7, 292225, Note_on_c, 4, 84, 0
7, 292320, Note_on_c, 4, 84, 95
7, 292525, Note_on_c, 4, 84, 0
7, 292560, Note_on_c, 4, 85, 81
7, 292677, Note_on_c, 4, 85, 0
7, 292800, Note_on_c, 4, 84, 86
7, 293255, Note_on_c, 4, 84, 0
7, 293280, Note_on_c, 4, 82, 86
7, 293325, Note_on_c, 4, 82, 0
7, 293520, Note_on_c, 4, 89, 85
7, 293520, Note_on_c, 4, 92, 91
7, 295660, Note_on_c, 4, 89, 0
7, 295680, Note_on_c, 4, 92, 0
7, 303360, Note_on_c, 4, 82, 113
7, 303360, Note_on_c, 4, 94, 103
7, 303552, Note_on_c, 4, 82, 0
7, 303560, Note_on_c, 4, 94, 0
7, 303560, End_track
8, 0, Start_track
8, 0, Channel_prefix, 5
8, 0, Title_t, "BRASS1  "
8, 0, Instrument_name_t, "CHA  6  "
8, 485, Program_c, 5, 61
8, 487, Control_c, 5, 11, 127
8, 490, Control_c, 5, 7, 80
8, 492, Control_c, 5, 10, 64
8, 495, Control_c, 5, 91, 54
8, 497, Control_c, 5, 93, 64
8, 53040, Note_on_c, 5, 65, 119
8, 53040, Note_on_c, 5, 68, 116
8, 53262, Note_on_c, 5, 68, 0
8, 53272, Note_on_c, 5, 65, 0
8, 53280, Note_on_c, 5, 67, 118
8, 53280, Note_on_c, 5, 70, 125
8, 53477, Note_on_c, 5, 67, 0
8, 53502, Note_on_c, 5, 70, 0
8, 53520, Note_on_c, 5, 68, 127
8, 53520, Note_on_c, 5, 72, 124
8, 53645, Note_on_c, 5, 72, 0
8, 53670, Note_on_c, 5, 68, 0
8, 57360, Note_on_c, 5, 53, 119
8, 57360, Note_on_c, 5, 65, 118
8, 57467, Note_on_c, 5, 65, 0
8, 57475, Note_on_c, 5, 53, 0
8, 57600, Note_on_c, 5, 60, 117
8, 57802, Note_on_c, 5, 60, 0
8, 57840, Note_on_c, 5, 60, 113
8, 58045, Note_on_c, 5, 60, 0
8, 58320, Note_on_c, 5, 60, 114
8, 58765, Note_on_c, 5, 60, 0
8, 58800, Note_on_c, 5, 58, 100
8, 59030, Note_on_c, 5, 58, 0
8, 59040, Note_on_c, 5, 56, 109
8, 59182, Note_on_c, 5, 56, 0
8, 59280, Note_on_c, 5, 60, 115
8, 59535, Note_on_c, 5, 60, 0
8, 59760, Note_on_c, 5, 60, 113
8, 60000, Note_on_c, 5, 60, 0
8, 60240, Note_on_c, 5, 60, 109
8, 60665, Note_on_c, 5, 60, 0
8, 60720, Note_on_c, 5, 58, 100
8, 60960, Note_on_c, 5, 56, 95
8, 60960, Note_on_c, 5, 58, 0
8, 61092, Note_on_c, 5, 56, 0
8, 61200, Note_on_c, 5, 53, 118
8, 61612, Note_on_c, 5, 53, 0
8, 61680, Note_on_c, 5, 55, 113
8, 62095, Note_on_c, 5, 55, 0
8, 62160, Note_on_c, 5, 56, 104
8, 62620, Note_on_c, 5, 56, 0
8, 62640, Note_on_c, 5, 58, 108
8, 63082, Note_on_c, 5, 58, 0
8, 63120, Note_on_c, 5, 60, 103
8, 63120, Note_on_c, 5, 63, 112
8, 65207, Note_on_c, 5, 63, 0
8, 65215, Note_on_c, 5, 60, 0
8, 65280, Note_on_c, 5, 60, 117
8, 65482, Note_on_c, 5, 60, 0
8, 65520, Note_on_c, 5, 60, 113
8, 65725, Note_on_c, 5, 60, 0
8, 66000, Note_on_c, 5, 60, 114
8, 66445, Note_on_c, 5, 60, 0
8, 66480, Note_on_c, 5, 58, 100
8, 66710, Note_on_c, 5, 58, 0
8, 66720, Note_on_c, 5, 56, 109
8, 66862, Note_on_c, 5, 56, 0
8, 66960, Note_on_c, 5, 60, 115
8, 67215, Note_on_c, 5, 60, 0
8, 67440, Note_on_c, 5, 60, 113
8, 67680, Note_on_c, 5, 60, 0
8, 67920, Note_on_c, 5, 60, 109
8, 68345, Note_on_c, 5, 60, 0
8, 68400, Note_on_c, 5, 58, 100
8, 68640, Note_on_c, 5, 56, 95
8, 68640, Note_on_c, 5, 58, 0
8, 68772, Note_on_c, 5, 56, 0
8, 68880, Note_on_c, 5, 53, 118
8, 69292, Note_on_c, 5, 53, 0
8, 69360, Note_on_c, 5, 55, 113
8, 69775, Note_on_c, 5, 55, 0
8, 69840, Note_on_c, 5, 56, 104
8, 70300, Note_on_c, 5, 56, 0
8, 70320, Note_on_c, 5, 58, 108
8, 70762, Note_on_c, 5, 58, 0
8, 70800, Note_on_c, 5, 60, 103
8, 70800, Note_on_c, 5, 63, 112
8, 72887, Note_on_c, 5, 63, 0
8, 72895, Note_on_c, 5, 60, 0
8, 99120, Note_on_c, 5, 65, 119
8, 99120, Note_on_c, 5, 68, 116
8, 99342, Note_on_c, 5, 68, 0
8, 99352, Note_on_c, 5, 65, 0
8, 99360, Note_on_c, 5, 67, 118
8, 99360, Note_on_c, 5, 70, 125
8, 99557, Note_on_c, 5, 67, 0
8, 99582, Note_on_c, 5, 70, 0
8, 99600, Note_on_c, 5, 68, 127
8, 99600, Note_on_c, 5, 72, 124
8, 99725, Note_on_c, 5, 72, 0
8, 99750, Note_on_c, 5, 68, 0
8, 103440, Note_on_c, 5, 53, 119
8, 103440, Note_on_c, 5, 65, 118
8, 103547, Note_on_c, 5, 65, 0
8, 103555, Note_on_c, 5, 53, 0
8, 103680, Note_on_c, 5, 60, 117
8, 103882, Note_on_c, 5, 60, 0
8, 103920, Note_on_c, 5, 60, 113
8, 104125, Note_on_c, 5, 60, 0
8, 104400, Note_on_c, 5, 60, 114
8, 104845, Note_on_c, 5, 60, 0
8, 104880, Note_on_c, 5, 58, 100
8, 105110, Note_on_c, 5, 58, 0
8, 105120, Note_on_c, 5, 56, 109
8, 105262, Note_on_c, 5, 56, 0
8, 105360, Note_on_c, 5, 60, 115
8, 105615, Note_on_c, 5, 60, 0
8, 105840, Note_on_c, 5, 60, 113
8, 106080, Note_on_c, 5, 60, 0
8, 106320, Note_on_c, 5, 60, 109
8, 106745, Note_on_c, 5, 60, 0
8, 106800, Note_on_c, 5, 58, 100
8, 107040, Note_on_c, 5, 56, 95
8, 107040, Note_on_c, 5, 58, 0
8, 107172, Note_on_c, 5, 56, 0
8, 107280, Note_on_c, 5, 53, 118
8, 107692, Note_on_c, 5, 53, 0
8, 107760, Note_on_c, 5, 55, 113
8, 108175, Note_on_c, 5, 55, 0
8, 108240, Note_on_c, 5, 56, 104
8, 108700, Note_on_c, 5, 56, 0
8, 108720, Note_on_c, 5, 58, 108
8, 109162, Note_on_c, 5, 58, 0
8, 109200, Note_on_c, 5, 60, 103
8, 109200, Note_on_c, 5, 63, 112
8, 111287, Note_on_c, 5, 63, 0
8, 111295, Note_on_c, 5, 60, 0
8, 111360, Note_on_c, 5, 60, 117
8, 111562, Note_on_c, 5, 60, 0
8, 111600, Note_on_c, 5, 60, 113
8, 111805, Note_on_c, 5, 60, 0
8, 112080, Note_on_c, 5, 60, 114
8, 112525, Note_on_c, 5, 60, 0
8, 112560, Note_on_c, 5, 58, 100
8, 112790, Note_on_c, 5, 58, 0
8, 112800, Note_on_c, 5, 56, 109
8, 112942, Note_on_c, 5, 56, 0
8, 113040, Note_on_c, 5, 60, 115
8, 113295, Note_on_c, 5, 60, 0
8, 113520, Note_on_c, 5, 60, 113
8, 113760, Note_on_c, 5, 60, 0
8, 114000, Note_on_c, 5, 60, 109
8, 114425, Note_on_c, 5, 60, 0
8, 114480, Note_on_c, 5, 58, 100
8, 114720, Note_on_c, 5, 56, 95
8, 114720, Note_on_c, 5, 58, 0
8, 114852, Note_on_c, 5, 56, 0
8, 114960, Note_on_c, 5, 53, 118
8, 115372, Note_on_c, 5, 53, 0
8, 115440, Note_on_c, 5, 55, 113
8, 115855, Note_on_c, 5, 55, 0
8, 115920, Note_on_c, 5, 56, 104
8, 116380, Note_on_c, 5, 56, 0
8, 116400, Note_on_c, 5, 58, 108
8, 116842, Note_on_c, 5, 58, 0
8, 116880, Note_on_c, 5, 60, 103
8, 116880, Note_on_c, 5, 63, 112
8, 118967, Note_on_c, 5, 63, 0
8, 118975, Note_on_c, 5, 60, 0
8, 119040, Note_on_c, 5, 60, 117
8, 119242, Note_on_c, 5, 60, 0
8, 119280, Note_on_c, 5, 60, 113
8, 119485, Note_on_c, 5, 60, 0
8, 119760, Note_on_c, 5, 60, 114
8, 120205, Note_on_c, 5, 60, 0
8, 120240, Note_on_c, 5, 58, 100
8, 120470, Note_on_c, 5, 58, 0
8, 120480, Note_on_c, 5, 56, 109
8, 120622, Note_on_c, 5, 56, 0
8, 120720, Note_on_c, 5, 60, 115
8, 120975, Note_on_c, 5, 60, 0
8, 121200, Note_on_c, 5, 60, 113
8, 121440, Note_on_c, 5, 60, 0
8, 121680, Note_on_c, 5, 60, 109
8, 122105, Note_on_c, 5, 60, 0
8, 122160, Note_on_c, 5, 58, 100
8, 122400, Note_on_c, 5, 56, 95
8, 122400, Note_on_c, 5, 58, 0
8, 122532, Note_on_c, 5, 56, 0
8, 122640, Note_on_c, 5, 53, 118
8, 123052, Note_on_c, 5, 53, 0
8, 123120, Note_on_c, 5, 55, 113
8, 123535, Note_on_c, 5, 55, 0
8, 123600, Note_on_c, 5, 56, 104
8, 124060, Note_on_c, 5, 56, 0
8, 124080, Note_on_c, 5, 58, 108
8, 124522, Note_on_c, 5, 58, 0
8, 124560, Note_on_c, 5, 60, 103
8, 124560, Note_on_c, 5, 63, 112
8, 126647, Note_on_c, 5, 63, 0
8, 126655, Note_on_c, 5, 60, 0
8, 126720, Note_on_c, 5, 60, 117
8, 126922, Note_on_c, 5, 60, 0
8, 126960, Note_on_c, 5, 60, 113
8, 127165, Note_on_c, 5, 60, 0
8, 127440, Note_on_c, 5, 60, 114
8, 127885, Note_on_c, 5, 60, 0
8, 127920, Note_on_c, 5, 58, 100
8, 128150, Note_on_c, 5, 58, 0
8, 128160, Note_on_c, 5, 56, 109
8, 128302, Note_on_c, 5, 56, 0
8, 128400, Note_on_c, 5, 60, 115
8, 128655, Note_on_c, 5, 60, 0
8, 128880, Note_on_c, 5, 60, 113
8, 129120, Note_on_c, 5, 60, 0
8, 129360, Note_on_c, 5, 60, 109
8, 129785, Note_on_c, 5, 60, 0
8, 129840, Note_on_c, 5, 58, 100
8, 130080, Note_on_c, 5, 56, 95
8, 130080, Note_on_c, 5, 58, 0
8, 130212, Note_on_c, 5, 56, 0
8, 130320, Note_on_c, 5, 53, 118
8, 130732, Note_on_c, 5, 53, 0
8, 130800, Note_on_c, 5, 55, 113
8, 131215, Note_on_c, 5, 55, 0
8, 131280, Note_on_c, 5, 56, 104
8, 131740, Note_on_c, 5, 56, 0
8, 131760, Note_on_c, 5, 58, 108
8, 132202, Note_on_c, 5, 58, 0
8, 132240, Note_on_c, 5, 60, 103
8, 132240, Note_on_c, 5, 63, 112
8, 134327, Note_on_c, 5, 63, 0
8, 134335, Note_on_c, 5, 60, 0
8, 183600, Note_on_c, 5, 65, 119
8, 183600, Note_on_c, 5, 68, 116
8, 183822, Note_on_c, 5, 68, 0
8, 183832, Note_on_c, 5, 65, 0
8, 183840, Note_on_c, 5, 67, 118
8, 183840, Note_on_c, 5, 70, 125
8, 184037, Note_on_c, 5, 67, 0
8, 184062, Note_on_c, 5, 70, 0
8, 184080, Note_on_c, 5, 68, 127
8, 184080, Note_on_c, 5, 72, 124
8, 184205, Note_on_c, 5, 72, 0
8, 184230, Note_on_c, 5, 68, 0
8, 187920, Note_on_c, 5, 53, 119
8, 187920, Note_on_c, 5, 65, 118
8, 188027, Note_on_c, 5, 65, 0
8, 188035, Note_on_c, 5, 53, 0
8, 188160, Note_on_c, 5, 60, 117
8, 188362, Note_on_c, 5, 60, 0
8, 188400, Note_on_c, 5, 60, 113
8, 188605, Note_on_c, 5, 60, 0
8, 188880, Note_on_c, 5, 60, 114
8, 189325, Note_on_c, 5, 60, 0
8, 189360, Note_on_c, 5, 58, 100
8, 189590, Note_on_c, 5, 58, 0
8, 189600, Note_on_c, 5, 56, 109
8, 189742, Note_on_c, 5, 56, 0
8, 189840, Note_on_c, 5, 60, 115
8, 190095, Note_on_c, 5, 60, 0
8, 190320, Note_on_c, 5, 60, 113
8, 190560, Note_on_c, 5, 60, 0
8, 190800, Note_on_c, 5, 60, 109
8, 191225, Note_on_c, 5, 60, 0
8, 191280, Note_on_c, 5, 58, 100
8, 191520, Note_on_c, 5, 56, 95
8, 191520, Note_on_c, 5, 58, 0
8, 191652, Note_on_c, 5, 56, 0
8, 191760, Note_on_c, 5, 53, 118
8, 192172, Note_on_c, 5, 53, 0
8, 192240, Note_on_c, 5, 55, 113
8, 192655, Note_on_c, 5, 55, 0
8, 192720, Note_on_c, 5, 56, 104
8, 193180, Note_on_c, 5, 56, 0
8, 193200, Note_on_c, 5, 58, 108
8, 193642, Note_on_c, 5, 58, 0
8, 193680, Note_on_c, 5, 60, 103
8, 193680, Note_on_c, 5, 63, 112
8, 195767, Note_on_c, 5, 63, 0
8, 195775, Note_on_c, 5, 60, 0
8, 195840, Note_on_c, 5, 60, 117
8, 196042, Note_on_c, 5, 60, 0
8, 196080, Note_on_c, 5, 60, 113
8, 196285, Note_on_c, 5, 60, 0
8, 196560, Note_on_c, 5, 60, 114
8, 197005, Note_on_c, 5, 60, 0
8, 197040, Note_on_c, 5, 58, 100
8, 197270, Note_on_c, 5, 58, 0
8, 197280, Note_on_c, 5, 56, 109
8, 197422, Note_on_c, 5, 56, 0
8, 197520, Note_on_c, 5, 60, 115
8, 197775, Note_on_c, 5, 60, 0
8, 198000, Note_on_c, 5, 60, 113
8, 198240, Note_on_c, 5, 60, 0
8, 198480, Note_on_c, 5, 60, 109
8, 198905, Note_on_c, 5, 60, 0
8, 198960, Note_on_c, 5, 58, 100
8, 199200, Note_on_c, 5, 56, 95
8, 199200, Note_on_c, 5, 58, 0
8, 199332, Note_on_c, 5, 56, 0
8, 199440, Note_on_c, 5, 53, 118
8, 199852, Note_on_c, 5, 53, 0
8, 199920, Note_on_c, 5, 55, 113
8, 200335, Note_on_c, 5, 55, 0
8, 200400, Note_on_c, 5, 56, 104
8, 200860, Note_on_c, 5, 56, 0
8, 200880, Note_on_c, 5, 58, 108
8, 201322, Note_on_c, 5, 58, 0
8, 201360, Note_on_c, 5, 60, 103
8, 201360, Note_on_c, 5, 63, 112
8, 203447, Note_on_c, 5, 63, 0
8, 203455, Note_on_c, 5, 60, 0
8, 233040, Note_on_c, 5, 74, 104
8, 233270, Note_on_c, 5, 74, 0
8, 233280, Note_on_c, 5, 75, 108
8, 233375, Note_on_c, 5, 75, 0
8, 240240, Note_on_c, 5, 89, 104
8, 240445, Note_on_c, 5, 89, 0
8, 240720, Note_on_c, 5, 89, 104
8, 240945, Note_on_c, 5, 89, 0
8, 241200, Note_on_c, 5, 89, 103
8, 241905, Note_on_c, 5, 89, 0
8, 264960, Note_on_c, 5, 60, 117
8, 265162, Note_on_c, 5, 60, 0
8, 265200, Note_on_c, 5, 60, 113
8, 265405, Note_on_c, 5, 60, 0
8, 265680, Note_on_c, 5, 60, 114
8, 266125, Note_on_c, 5, 60, 0
8, 266160, Note_on_c, 5, 58, 100
8, 266390, Note_on_c, 5, 58, 0
8, 266400, Note_on_c, 5, 56, 109
8, 266542, Note_on_c, 5, 56, 0
8, 266640, Note_on_c, 5, 60, 115
8, 266895, Note_on_c, 5, 60, 0
8, 267120, Note_on_c, 5, 60, 113
8, 267360, Note_on_c, 5, 60, 0
8, 267600, Note_on_c, 5, 60, 109
8, 268025, Note_on_c, 5, 60, 0
8, 268080, Note_on_c, 5, 58, 100
8, 268320, Note_on_c, 5, 56, 95
8, 268320, Note_on_c, 5, 58, 0
8, 268452, Note_on_c, 5, 56, 0
8, 268560, Note_on_c, 5, 53, 118
8, 268972, Note_on_c, 5, 53, 0
8, 269040, Note_on_c, 5, 55, 113
8, 269455, Note_on_c, 5, 55, 0
8, 269520, Note_on_c, 5, 56, 104
8, 269980, Note_on_c, 5, 56, 0
8, 270000, Note_on_c, 5, 58, 108
8, 270442, Note_on_c, 5, 58, 0
8, 270480, Note_on_c, 5, 60, 103
8, 270480, Note_on_c, 5, 63, 112
8, 272567, Note_on_c, 5, 63, 0
8, 272575, Note_on_c, 5, 60, 0
8, 272640, Note_on_c, 5, 60, 117
8, 272842, Note_on_c, 5, 60, 0
8, 272880, Note_on_c, 5, 60, 113
8, 273085, Note_on_c, 5, 60, 0
8, 273360, Note_on_c, 5, 60, 114
8, 273805, Note_on_c, 5, 60, 0
8, 273840, Note_on_c, 5, 58, 100
8, 274070, Note_on_c, 5, 58, 0
8, 274080, Note_on_c, 5, 56, 109
8, 274222, Note_on_c, 5, 56, 0
8, 274320, Note_on_c, 5, 60, 115
8, 274575, Note_on_c, 5, 60, 0
8, 274800, Note_on_c, 5, 60, 113
8, 275040, Note_on_c, 5, 60, 0
8, 275280, Note_on_c, 5, 60, 109
8, 275705, Note_on_c, 5, 60, 0
8, 275760, Note_on_c, 5, 58, 100
8, 276000, Note_on_c, 5, 56, 95
8, 276000, Note_on_c, 5, 58, 0
8, 276132, Note_on_c, 5, 56, 0
8, 276240, Note_on_c, 5, 53, 118
8, 276652, Note_on_c, 5, 53, 0
8, 276720, Note_on_c, 5, 55, 113
8, 277135, Note_on_c, 5, 55, 0
8, 277200, Note_on_c, 5, 56, 104
8, 277660, Note_on_c, 5, 56, 0
8, 277680, Note_on_c, 5, 58, 108
8, 278122, Note_on_c, 5, 58, 0
8, 278160, Note_on_c, 5, 60, 103
8, 278160, Note_on_c, 5, 63, 112
8, 280247, Note_on_c, 5, 63, 0
8, 280255, Note_on_c, 5, 60, 0
8, 280320, Note_on_c, 5, 60, 117
8, 280522, Note_on_c, 5, 60, 0
8, 280560, Note_on_c, 5, 60, 113
8, 280765, Note_on_c, 5, 60, 0
8, 281040, Note_on_c, 5, 60, 114
8, 281485, Note_on_c, 5, 60, 0
8, 281520, Note_on_c, 5, 58, 100
8, 281750, Note_on_c, 5, 58, 0
8, 281760, Note_on_c, 5, 56, 109
8, 281902, Note_on_c, 5, 56, 0
8, 282000, Note_on_c, 5, 60, 115
8, 282255, Note_on_c, 5, 60, 0
8, 282480, Note_on_c, 5, 60, 113
8, 282720, Note_on_c, 5, 60, 0
8, 282960, Note_on_c, 5, 60, 109
8, 283385, Note_on_c, 5, 60, 0
8, 283440, Note_on_c, 5, 58, 100
8, 283680, Note_on_c, 5, 56, 95
8, 283680, Note_on_c, 5, 58, 0
8, 283812, Note_on_c, 5, 56, 0
8, 283920, Note_on_c, 5, 53, 118
8, 284332, Note_on_c, 5, 53, 0
8, 284400, Note_on_c, 5, 55, 113
8, 284815, Note_on_c, 5, 55, 0
8, 284880, Note_on_c, 5, 56, 104
8, 285340, Note_on_c, 5, 56, 0
8, 285360, Note_on_c, 5, 58, 108
8, 285802, Note_on_c, 5, 58, 0
8, 285840, Note_on_c, 5, 60, 103
8, 285840, Note_on_c, 5, 63, 112
8, 287927, Note_on_c, 5, 63, 0
8, 287935, Note_on_c, 5, 60, 0
8, 288000, Note_on_c, 5, 60, 117
8, 288202, Note_on_c, 5, 60, 0
8, 288240, Note_on_c, 5, 60, 113
8, 288445, Note_on_c, 5, 60, 0
8, 288720, Note_on_c, 5, 60, 114
8, 289165, Note_on_c, 5, 60, 0
8, 289200, Note_on_c, 5, 58, 100
8, 289430, Note_on_c, 5, 58, 0
8, 289440, Note_on_c, 5, 56, 109
8, 289582, Note_on_c, 5, 56, 0
8, 289680, Note_on_c, 5, 60, 115
8, 289935, Note_on_c, 5, 60, 0
8, 290160, Note_on_c, 5, 60, 113
8, 290400, Note_on_c, 5, 60, 0
8, 290640, Note_on_c, 5, 60, 109
8, 291065, Note_on_c, 5, 60, 0
8, 291120, Note_on_c, 5, 58, 100
8, 291360, Note_on_c, 5, 56, 95
8, 291360, Note_on_c, 5, 58, 0
8, 291492, Note_on_c, 5, 56, 0
8, 291600, Note_on_c, 5, 53, 118
8, 292012, Note_on_c, 5, 53, 0
8, 292080, Note_on_c, 5, 55, 113
8, 292495, Note_on_c, 5, 55, 0
8, 292560, Note_on_c, 5, 56, 104
8, 293020, Note_on_c, 5, 56, 0
8, 293040, Note_on_c, 5, 58, 108
8, 293482, Note_on_c, 5, 58, 0
8, 293520, Note_on_c, 5, 60, 103
8, 293520, Note_on_c, 5, 63, 112
8, 295607, Note_on_c, 5, 63, 0
8, 295615, Note_on_c, 5, 60, 0
8, 303360, Note_on_c, 5, 58, 127
8, 303360, Note_on_c, 5, 70, 127
8, 303542, Note_on_c, 5, 70, 0
8, 303567, Note_on_c, 5, 58, 0
8, 303567, End_track
9, 0, Start_track
9, 0, Channel_prefix, 6
9, 0, Title_t, "MTD GTR "
9, 0, Instrument_name_t, "CHA  7  "
9, 485, Program_c, 6, 26
9, 487, Control_c, 6, 11, 127
9, 490, Control_c, 6, 7, 80
9, 492, Control_c, 6, 10, 64
9, 495, Control_c, 6, 91, 54
9, 497, Control_c, 6, 93, 20
9, 960, Control_c, 6, 101, 0
9, 962, Control_c, 6, 100, 0
9, 965, Control_c, 6, 6, 2
9, 990, Control_c, 6, 101, 127
9, 992, Control_c, 6, 100, 127
9, 5965, Pitch_bend_c, 6, 8160
9, 5972, Pitch_bend_c, 6, 6752
9, 5987, Pitch_bend_c, 6, 4000
9, 6000, Note_on_c, 6, 63, 109
9, 6000, Note_on_c, 6, 75, 109
9, 6002, Pitch_bend_c, 6, 1600
9, 6022, Pitch_bend_c, 6, 0
9, 6082, Pitch_bend_c, 6, 480
9, 6090, Pitch_bend_c, 6, 3232
9, 6112, Pitch_bend_c, 6, 5568
9, 6127, Pitch_bend_c, 6, 7552
9, 6142, Pitch_bend_c, 6, 8032
9, 6150, Pitch_bend_c, 6, 8192
9, 6257, Note_on_c, 6, 63, 0
9, 6260, Note_on_c, 6, 75, 0
9, 6315, Pitch_bend_c, 6, 7936
9, 6322, Pitch_bend_c, 6, 6112
9, 6337, Pitch_bend_c, 6, 3296
9, 6352, Pitch_bend_c, 6, 320
9, 6360, Note_on_c, 6, 63, 96
9, 6360, Note_on_c, 6, 75, 96
9, 6377, Pitch_bend_c, 6, 0
9, 6430, Pitch_bend_c, 6, 576
9, 6440, Pitch_bend_c, 6, 2816
9, 6457, Pitch_bend_c, 6, 5952
9, 6482, Pitch_bend_c, 6, 7680
9, 6497, Pitch_bend_c, 6, 8096
9, 6507, Pitch_bend_c, 6, 8192
9, 6577, Note_on_c, 6, 63, 0
9, 6597, Note_on_c, 6, 75, 0
9, 6685, Pitch_bend_c, 6, 6752
9, 6705, Pitch_bend_c, 6, 4384
9, 6720, Note_on_c, 6, 63, 83
9, 6720, Note_on_c, 6, 75, 83
9, 6722, Pitch_bend_c, 6, 2144
9, 6737, Pitch_bend_c, 6, 576
9, 6755, Pitch_bend_c, 6, 0
9, 6785, Pitch_bend_c, 6, 160
9, 6792, Pitch_bend_c, 6, 1024
9, 6807, Pitch_bend_c, 6, 3168
9, 6830, Pitch_bend_c, 6, 5248
9, 6845, Pitch_bend_c, 6, 7328
9, 6860, Pitch_bend_c, 6, 8000
9, 6867, Pitch_bend_c, 6, 8192
9, 6952, Note_on_c, 6, 63, 0
9, 6977, Note_on_c, 6, 75, 0
9, 7015, Pitch_bend_c, 6, 8032
9, 7022, Pitch_bend_c, 6, 6848
9, 7037, Pitch_bend_c, 6, 4800
9, 7052, Pitch_bend_c, 6, 1888
9, 7075, Pitch_bend_c, 6, 1280
9, 7080, Note_on_c, 6, 63, 70
9, 7080, Note_on_c, 6, 75, 70
9, 7087, Pitch_bend_c, 6, 480
9, 7110, Pitch_bend_c, 6, 544
9, 7125, Pitch_bend_c, 6, 960
9, 7140, Pitch_bend_c, 6, 2528
9, 7162, Pitch_bend_c, 6, 4384
9, 7180, Pitch_bend_c, 6, 6752
9, 7192, Pitch_bend_c, 6, 8160
9, 7207, Pitch_bend_c, 6, 8192
9, 7350, Note_on_c, 6, 63, 0
9, 7360, Note_on_c, 6, 75, 0
9, 7425, Pitch_bend_c, 6, 7168
9, 7437, Pitch_bend_c, 6, 4096
9, 7440, Note_on_c, 6, 63, 57
9, 7440, Note_on_c, 6, 75, 57
9, 7462, Pitch_bend_c, 6, 2816
9, 7477, Pitch_bend_c, 6, 2304
9, 7502, Pitch_bend_c, 6, 2432
9, 7510, Pitch_bend_c, 6, 3008
9, 7525, Pitch_bend_c, 6, 4800
9, 7547, Pitch_bend_c, 6, 6688
9, 7562, Pitch_bend_c, 6, 8000
9, 7577, Pitch_bend_c, 6, 8192
9, 7645, Note_on_c, 6, 75, 0
9, 7655, Note_on_c, 6, 63, 0
9, 19200, Note_on_c, 6, 60, 108
9, 19200, Note_on_c, 6, 72, 107
9, 19200, Pitch_bend_c, 6, 480
9, 19215, Pitch_bend_c, 6, 0
9, 19295, Pitch_bend_c, 6, 576
9, 19302, Pitch_bend_c, 6, 4736
9, 19337, Pitch_bend_c, 6, 6752
9, 19355, Pitch_bend_c, 6, 8032
9, 19370, Pitch_bend_c, 6, 8192
9, 21057, Note_on_c, 6, 72, 0
9, 21082, Note_on_c, 6, 60, 0
9, 21360, Note_on_c, 6, 60, 97
9, 21360, Note_on_c, 6, 72, 102
9, 21417, Pitch_bend_c, 6, 7552
9, 21432, Pitch_bend_c, 6, 4096
9, 21455, Pitch_bend_c, 6, 0
9, 21532, Pitch_bend_c, 6, 4000
9, 21562, Pitch_bend_c, 6, 6400
9, 21577, Pitch_bend_c, 6, 7936
9, 21590, Pitch_bend_c, 6, 8192
9, 21970, Note_on_c, 6, 72, 0
9, 21980, Note_on_c, 6, 60, 0
9, 22080, Note_on_c, 6, 60, 111
9, 22080, Note_on_c, 6, 72, 105
9, 22152, Pitch_bend_c, 6, 6816
9, 22167, Pitch_bend_c, 6, 2240
9, 22190, Pitch_bend_c, 6, 0
9, 22267, Pitch_bend_c, 6, 2272
9, 22290, Pitch_bend_c, 6, 5440
9, 22312, Pitch_bend_c, 6, 8032
9, 22335, Pitch_bend_c, 6, 8192
9, 23010, Note_on_c, 6, 72, 0
9, 23030, Note_on_c, 6, 60, 0
9, 23280, Note_on_c, 6, 60, 109
9, 23280, Note_on_c, 6, 72, 110
9, 23357, Note_on_c, 6, 60, 0
9, 23360, Note_on_c, 6, 72, 0
9, 23640, Note_on_c, 6, 61, 109
9, 23640, Note_on_c, 6, 73, 103
9, 23700, Note_on_c, 6, 61, 0
9, 23712, Note_on_c, 6, 73, 0
9, 24000, Note_on_c, 6, 60, 107
9, 24000, Note_on_c, 6, 72, 111
9, 24077, Note_on_c, 6, 60, 0
9, 24082, Note_on_c, 6, 72, 0
9, 24360, Note_on_c, 6, 58, 103
9, 24360, Note_on_c, 6, 70, 108
9, 24420, Note_on_c, 6, 58, 0
9, 24422, Note_on_c, 6, 70, 0
9, 24720, Note_on_c, 6, 53, 110
9, 24720, Note_on_c, 6, 65, 107
9, 25802, Note_on_c, 6, 65, 0
9, 25807, Note_on_c, 6, 53, 0
9, 25920, Note_on_c, 6, 53, 106
9, 25920, Note_on_c, 6, 65, 105
9, 25990, Note_on_c, 6, 53, 0
9, 25995, Note_on_c, 6, 65, 0
9, 26160, Note_on_c, 6, 55, 101
9, 26160, Note_on_c, 6, 67, 105
9, 26210, Note_on_c, 6, 67, 0
9, 26225, Note_on_c, 6, 55, 0
9, 26400, Note_on_c, 6, 56, 109
9, 26400, Note_on_c, 6, 68, 104
9, 26447, Note_on_c, 6, 68, 0
9, 26460, Note_on_c, 6, 56, 0
9, 26640, Note_on_c, 6, 58, 95
9, 26640, Note_on_c, 6, 70, 99
9, 26680, Note_on_c, 6, 58, 0
9, 26692, Note_on_c, 6, 70, 0
9, 26880, Note_on_c, 6, 60, 108
9, 26880, Note_on_c, 6, 72, 107
9, 26880, Pitch_bend_c, 6, 0
9, 26975, Pitch_bend_c, 6, 4736
9, 27017, Pitch_bend_c, 6, 6752
9, 27035, Pitch_bend_c, 6, 8032
9, 27050, Pitch_bend_c, 6, 8192
9, 28737, Note_on_c, 6, 72, 0
9, 28762, Note_on_c, 6, 60, 0
9, 29040, Note_on_c, 6, 60, 97
9, 29040, Note_on_c, 6, 72, 102
9, 29097, Pitch_bend_c, 6, 4096
9, 29135, Pitch_bend_c, 6, 1280
9, 29150, Pitch_bend_c, 6, 0
9, 29212, Pitch_bend_c, 6, 4000
9, 29242, Pitch_bend_c, 6, 7936
9, 29270, Pitch_bend_c, 6, 8192
9, 29650, Note_on_c, 6, 72, 0
9, 29660, Note_on_c, 6, 60, 0
9, 29760, Note_on_c, 6, 60, 111
9, 29760, Note_on_c, 6, 72, 105
9, 29832, Pitch_bend_c, 6, 2240
9, 29870, Pitch_bend_c, 6, 0
9, 29947, Pitch_bend_c, 6, 5440
9, 29992, Pitch_bend_c, 6, 7520
9, 30007, Pitch_bend_c, 6, 8032
9, 30015, Pitch_bend_c, 6, 8192
9, 30690, Note_on_c, 6, 72, 0
9, 30710, Note_on_c, 6, 60, 0
9, 30960, Note_on_c, 6, 60, 109
9, 30960, Note_on_c, 6, 72, 107
9, 31042, Note_on_c, 6, 60, 0
9, 31052, Note_on_c, 6, 72, 0
9, 31320, Note_on_c, 6, 61, 103
9, 31320, Note_on_c, 6, 73, 99
9, 31380, Note_on_c, 6, 61, 0
9, 31382, Note_on_c, 6, 73, 0
9, 31680, Note_on_c, 6, 60, 110
9, 31680, Note_on_c, 6, 72, 103
9, 31747, Note_on_c, 6, 60, 0
9, 31750, Note_on_c, 6, 72, 0
9, 32040, Note_on_c, 6, 58, 110
9, 32040, Note_on_c, 6, 70, 112
9, 32095, Note_on_c, 6, 58, 0
9, 32115, Note_on_c, 6, 70, 0
9, 32377, Pitch_bend_c, 6, 5952
9, 32400, Note_on_c, 6, 65, 104
9, 32400, Note_on_c, 6, 77, 118
9, 32405, Pitch_bend_c, 6, 2080
9, 32425, Pitch_bend_c, 6, 640
9, 32442, Pitch_bend_c, 6, 96
9, 32462, Pitch_bend_c, 6, 1120
9, 32495, Pitch_bend_c, 6, 2656
9, 32515, Pitch_bend_c, 6, 5632
9, 32545, Pitch_bend_c, 6, 7872
9, 32567, Pitch_bend_c, 6, 8160
9, 32572, Pitch_bend_c, 6, 8192
9, 34125, Note_on_c, 6, 77, 0
9, 34127, Note_on_c, 6, 65, 0
9, 72960, Note_on_c, 6, 60, 108
9, 72960, Note_on_c, 6, 72, 107
9, 72960, Pitch_bend_c, 6, 480
9, 72975, Pitch_bend_c, 6, 0
9, 73055, Pitch_bend_c, 6, 576
9, 73062, Pitch_bend_c, 6, 4736
9, 73097, Pitch_bend_c, 6, 6752
9, 73115, Pitch_bend_c, 6, 8032
9, 73130, Pitch_bend_c, 6, 8192
9, 74817, Note_on_c, 6, 72, 0
9, 74842, Note_on_c, 6, 60, 0
9, 75120, Note_on_c, 6, 60, 97
9, 75120, Note_on_c, 6, 72, 102
9, 75177, Pitch_bend_c, 6, 4096
9, 75215, Pitch_bend_c, 6, 0
9, 75292, Pitch_bend_c, 6, 4000
9, 75322, Pitch_bend_c, 6, 6400
9, 75337, Pitch_bend_c, 6, 7936
9, 75350, Pitch_bend_c, 6, 8192
9, 75730, Note_on_c, 6, 72, 0
9, 75740, Note_on_c, 6, 60, 0
9, 75840, Note_on_c, 6, 60, 111
9, 75840, Note_on_c, 6, 72, 105
9, 75912, Pitch_bend_c, 6, 2240
9, 75950, Pitch_bend_c, 6, 0
9, 76027, Pitch_bend_c, 6, 5440
9, 76072, Pitch_bend_c, 6, 8032
9, 76095, Pitch_bend_c, 6, 8192
9, 76770, Note_on_c, 6, 72, 0
9, 76790, Note_on_c, 6, 60, 0
9, 77040, Note_on_c, 6, 60, 109
9, 77040, Note_on_c, 6, 72, 107
9, 77122, Note_on_c, 6, 60, 0
9, 77132, Note_on_c, 6, 72, 0
9, 77400, Note_on_c, 6, 61, 103
9, 77400, Note_on_c, 6, 73, 99
9, 77460, Note_on_c, 6, 61, 0
9, 77462, Note_on_c, 6, 73, 0
9, 77760, Note_on_c, 6, 60, 110
9, 77760, Note_on_c, 6, 72, 103
9, 77827, Note_on_c, 6, 60, 0
9, 77830, Note_on_c, 6, 72, 0
9, 78120, Note_on_c, 6, 58, 110
9, 78120, Note_on_c, 6, 70, 112
9, 78175, Note_on_c, 6, 58, 0
9, 78195, Note_on_c, 6, 70, 0
9, 78457, Pitch_bend_c, 6, 7936
9, 78470, Pitch_bend_c, 6, 2080
9, 78480, Note_on_c, 6, 65, 104
9, 78480, Note_on_c, 6, 77, 118
9, 78505, Pitch_bend_c, 6, 640
9, 78522, Pitch_bend_c, 6, 96
9, 78542, Pitch_bend_c, 6, 352
9, 78557, Pitch_bend_c, 6, 1120
9, 78575, Pitch_bend_c, 6, 2656
9, 78595, Pitch_bend_c, 6, 4000
9, 78610, Pitch_bend_c, 6, 7872
9, 78647, Pitch_bend_c, 6, 8160
9, 78652, Pitch_bend_c, 6, 8192
9, 80205, Note_on_c, 6, 77, 0
9, 80207, Note_on_c, 6, 65, 0
9, 134400, Note_on_c, 6, 58, 95
9, 134472, Note_on_c, 6, 58, 0
9, 134520, Note_on_c, 6, 60, 104
9, 134612, Note_on_c, 6, 60, 0
9, 134760, Note_on_c, 6, 63, 102
9, 134825, Note_on_c, 6, 63, 0
9, 135000, Note_on_c, 6, 65, 107
9, 135075, Note_on_c, 6, 65, 0
9, 135182, Pitch_bend_c, 6, 8160
9, 135190, Pitch_bend_c, 6, 7136
9, 135205, Pitch_bend_c, 6, 3808
9, 135227, Pitch_bend_c, 6, 1664
9, 135240, Note_on_c, 6, 67, 114
9, 135245, Pitch_bend_c, 6, 0
9, 135297, Pitch_bend_c, 6, 800
9, 135312, Pitch_bend_c, 6, 2528
9, 135327, Pitch_bend_c, 6, 5632
9, 135355, Pitch_bend_c, 6, 7520
9, 135370, Pitch_bend_c, 6, 8032
9, 135375, Pitch_bend_c, 6, 8192
9, 135875, Note_on_c, 6, 67, 0
9, 136320, Note_on_c, 6, 58, 100
9, 136395, Note_on_c, 6, 58, 0
9, 136440, Note_on_c, 6, 60, 115
9, 136530, Note_on_c, 6, 60, 0
9, 136680, Note_on_c, 6, 63, 103
9, 136740, Note_on_c, 6, 63, 0
9, 136920, Note_on_c, 6, 65, 113
9, 136987, Note_on_c, 6, 65, 0
9, 137115, Pitch_bend_c, 6, 7552
9, 137130, Pitch_bend_c, 6, 4992
9, 137152, Pitch_bend_c, 6, 3200
9, 137160, Note_on_c, 6, 67, 113
9, 137167, Pitch_bend_c, 6, 1760
9, 137182, Pitch_bend_c, 6, 960
9, 137200, Pitch_bend_c, 6, 704
9, 137225, Pitch_bend_c, 6, 960
9, 137237, Pitch_bend_c, 6, 1600
9, 137252, Pitch_bend_c, 6, 3392
9, 137277, Pitch_bend_c, 6, 5408
9, 137292, Pitch_bend_c, 6, 7392
9, 137307, Pitch_bend_c, 6, 8000
9, 137317, Pitch_bend_c, 6, 8192
9, 137787, Note_on_c, 6, 67, 0
9, 138240, Note_on_c, 6, 58, 110
9, 138307, Note_on_c, 6, 58, 0
9, 138360, Note_on_c, 6, 60, 102
9, 138455, Note_on_c, 6, 60, 0
9, 138600, Note_on_c, 6, 63, 106
9, 138670, Note_on_c, 6, 63, 0
9, 138840, Note_on_c, 6, 65, 110
9, 138907, Note_on_c, 6, 65, 0
9, 139022, Pitch_bend_c, 6, 7296
9, 139040, Pitch_bend_c, 6, 5216
9, 139055, Pitch_bend_c, 6, 2240
9, 139077, Pitch_bend_c, 6, 960
9, 139080, Note_on_c, 6, 67, 117
9, 139095, Pitch_bend_c, 6, 384
9, 139110, Pitch_bend_c, 6, 224
9, 139132, Pitch_bend_c, 6, 640
9, 139147, Pitch_bend_c, 6, 1504
9, 139162, Pitch_bend_c, 6, 2688
9, 139177, Pitch_bend_c, 6, 4992
9, 139200, Pitch_bend_c, 6, 6880
9, 139215, Pitch_bend_c, 6, 8032
9, 139230, Pitch_bend_c, 6, 8192
9, 139675, Note_on_c, 6, 67, 0
9, 140400, Note_on_c, 6, 66, 103
9, 140457, Note_on_c, 6, 66, 0
9, 140640, Note_on_c, 6, 65, 96
9, 140722, Note_on_c, 6, 65, 0
9, 140760, Note_on_c, 6, 63, 85
9, 140835, Note_on_c, 6, 63, 0
9, 140880, Note_on_c, 6, 60, 92
9, 140925, Note_on_c, 6, 60, 0
9, 141120, Note_on_c, 6, 65, 99
9, 141187, Note_on_c, 6, 65, 0
9, 141360, Note_on_c, 6, 63, 103
9, 141432, Note_on_c, 6, 63, 0
9, 141480, Note_on_c, 6, 60, 101
9, 141790, Note_on_c, 6, 60, 0
9, 141840, Note_on_c, 6, 63, 102
9, 141895, Note_on_c, 6, 63, 0
9, 142080, Note_on_c, 6, 58, 106
9, 142145, Note_on_c, 6, 58, 0
9, 142200, Note_on_c, 6, 60, 106
9, 142292, Note_on_c, 6, 60, 0
9, 142440, Note_on_c, 6, 63, 102
9, 142492, Note_on_c, 6, 63, 0
9, 142680, Note_on_c, 6, 65, 97
9, 142737, Note_on_c, 6, 65, 0
9, 142895, Pitch_bend_c, 6, 7296
9, 142910, Pitch_bend_c, 6, 4768
9, 142920, Note_on_c, 6, 67, 121
9, 142925, Pitch_bend_c, 6, 2144
9, 142940, Pitch_bend_c, 6, 480
9, 142957, Pitch_bend_c, 6, 0
9, 143002, Pitch_bend_c, 6, 416
9, 143010, Pitch_bend_c, 6, 3168
9, 143032, Pitch_bend_c, 6, 5856
9, 143050, Pitch_bend_c, 6, 7840
9, 143062, Pitch_bend_c, 6, 8192
9, 143492, Note_on_c, 6, 67, 0
9, 144000, Note_on_c, 6, 58, 109
9, 144065, Note_on_c, 6, 58, 0
9, 144120, Note_on_c, 6, 60, 102
9, 144242, Note_on_c, 6, 60, 0
9, 144360, Note_on_c, 6, 63, 104
9, 144437, Note_on_c, 6, 63, 0
9, 144600, Note_on_c, 6, 65, 109
9, 144657, Note_on_c, 6, 65, 0
9, 144820, Pitch_bend_c, 6, 7680
9, 144835, Pitch_bend_c, 6, 5248
9, 144840, Note_on_c, 6, 67, 114
9, 144850, Pitch_bend_c, 6, 960
9, 144870, Pitch_bend_c, 6, 0
9, 144927, Pitch_bend_c, 6, 384
9, 144935, Pitch_bend_c, 6, 3008
9, 144957, Pitch_bend_c, 6, 5152
9, 144972, Pitch_bend_c, 6, 7296
9, 144990, Pitch_bend_c, 6, 7936
9, 144995, Pitch_bend_c, 6, 8192
9, 145387, Note_on_c, 6, 67, 0
9, 145920, Note_on_c, 6, 58, 112
9, 145985, Note_on_c, 6, 58, 0
9, 146040, Note_on_c, 6, 60, 93
9, 146125, Note_on_c, 6, 60, 0
9, 146280, Note_on_c, 6, 63, 110
9, 146350, Note_on_c, 6, 63, 0
9, 146520, Note_on_c, 6, 65, 98
9, 146580, Note_on_c, 6, 65, 0
9, 146750, Pitch_bend_c, 6, 7936
9, 146757, Pitch_bend_c, 6, 6496
9, 146760, Note_on_c, 6, 67, 114
9, 146775, Pitch_bend_c, 6, 4288
9, 146790, Pitch_bend_c, 6, 2080
9, 146812, Pitch_bend_c, 6, 1600
9, 146827, Pitch_bend_c, 6, 1504
9, 146842, Pitch_bend_c, 6, 2208
9, 146865, Pitch_bend_c, 6, 3552
9, 146882, Pitch_bend_c, 6, 5472
9, 146897, Pitch_bend_c, 6, 7456
9, 146912, Pitch_bend_c, 6, 8000
9, 146920, Pitch_bend_c, 6, 8192
9, 147345, Note_on_c, 6, 67, 0
9, 148080, Note_on_c, 6, 65, 114
9, 148147, Note_on_c, 6, 65, 0
9, 148320, Note_on_c, 6, 64, 106
9, 148397, Note_on_c, 6, 64, 0
9, 148440, Note_on_c, 6, 63, 100
9, 148497, Note_on_c, 6, 63, 0
9, 148800, Note_on_c, 6, 65, 108
9, 148880, Note_on_c, 6, 65, 0
9, 149040, Note_on_c, 6, 64, 102
9, 149127, Note_on_c, 6, 64, 0
9, 149160, Note_on_c, 6, 63, 87
9, 149232, Note_on_c, 6, 63, 0
9, 203520, Note_on_c, 6, 58, 95
9, 203592, Note_on_c, 6, 58, 0
9, 203640, Note_on_c, 6, 60, 104
9, 203732, Note_on_c, 6, 60, 0
9, 203880, Note_on_c, 6, 63, 102
9, 203945, Note_on_c, 6, 63, 0
9, 204120, Note_on_c, 6, 65, 107
9, 204195, Note_on_c, 6, 65, 0
9, 204302, Pitch_bend_c, 6, 7136
9, 204325, Pitch_bend_c, 6, 3808
9, 204347, Pitch_bend_c, 6, 1664
9, 204360, Note_on_c, 6, 67, 114
9, 204365, Pitch_bend_c, 6, 0
9, 204417, Pitch_bend_c, 6, 2528
9, 204447, Pitch_bend_c, 6, 5632
9, 204475, Pitch_bend_c, 6, 7520
9, 204490, Pitch_bend_c, 6, 8032
9, 204495, Pitch_bend_c, 6, 8192
9, 204995, Note_on_c, 6, 67, 0
9, 205440, Note_on_c, 6, 58, 100
9, 205515, Note_on_c, 6, 58, 0
9, 205560, Note_on_c, 6, 60, 115
9, 205650, Note_on_c, 6, 60, 0
9, 205800, Note_on_c, 6, 63, 103
9, 205860, Note_on_c, 6, 63, 0
9, 206040, Note_on_c, 6, 65, 113
9, 206107, Note_on_c, 6, 65, 0
9, 206235, Pitch_bend_c, 6, 7552
9, 206250, Pitch_bend_c, 6, 4992
9, 206272, Pitch_bend_c, 6, 1760
9, 206280, Note_on_c, 6, 67, 113
9, 206302, Pitch_bend_c, 6, 960
9, 206320, Pitch_bend_c, 6, 704
9, 206345, Pitch_bend_c, 6, 1600
9, 206372, Pitch_bend_c, 6, 3392
9, 206397, Pitch_bend_c, 6, 5408
9, 206412, Pitch_bend_c, 6, 8000
9, 206437, Pitch_bend_c, 6, 8192
9, 206907, Note_on_c, 6, 67, 0
9, 207360, Note_on_c, 6, 58, 110
9, 207427, Note_on_c, 6, 58, 0
9, 207480, Note_on_c, 6, 60, 102
9, 207575, Note_on_c, 6, 60, 0
9, 207720, Note_on_c, 6, 63, 106
9, 207790, Note_on_c, 6, 63, 0
9, 207960, Note_on_c, 6, 65, 110
9, 208027, Note_on_c, 6, 65, 0
9, 208142, Pitch_bend_c, 6, 7296
9, 208160, Pitch_bend_c, 6, 5216
9, 208175, Pitch_bend_c, 6, 2240
9, 208197, Pitch_bend_c, 6, 960
9, 208200, Note_on_c, 6, 67, 117
9, 208215, Pitch_bend_c, 6, 224
9, 208252, Pitch_bend_c, 6, 640
9, 208267, Pitch_bend_c, 6, 2688
9, 208297, Pitch_bend_c, 6, 4992
9, 208320, Pitch_bend_c, 6, 8032
9, 208350, Pitch_bend_c, 6, 8192
9, 208795, Note_on_c, 6, 67, 0
9, 209520, Note_on_c, 6, 66, 103
9, 209577, Note_on_c, 6, 66, 0
9, 209760, Note_on_c, 6, 65, 96
9, 209842, Note_on_c, 6, 65, 0
9, 209880, Note_on_c, 6, 63, 85
9, 209955, Note_on_c, 6, 63, 0
9, 210000, Note_on_c, 6, 60, 92
9, 210045, Note_on_c, 6, 60, 0
9, 210240, Note_on_c, 6, 65, 99
9, 210307, Note_on_c, 6, 65, 0
9, 210480, Note_on_c, 6, 63, 103
9, 210552, Note_on_c, 6, 63, 0
9, 210600, Note_on_c, 6, 60, 101
9, 210910, Note_on_c, 6, 60, 0
9, 210960, Note_on_c, 6, 63, 102
9, 211015, Note_on_c, 6, 63, 0
9, 211200, Note_on_c, 6, 58, 106
9, 211265, Note_on_c, 6, 58, 0
9, 211320, Note_on_c, 6, 60, 106
9, 211412, Note_on_c, 6, 60, 0
9, 211560, Note_on_c, 6, 63, 102
9, 211612, Note_on_c, 6, 63, 0
9, 211800, Note_on_c, 6, 65, 97
9, 211857, Note_on_c, 6, 65, 0
9, 212015, Pitch_bend_c, 6, 7296
9, 212030, Pitch_bend_c, 6, 2144
9, 212040, Note_on_c, 6, 67, 121
9, 212060, Pitch_bend_c, 6, 480
9, 212077, Pitch_bend_c, 6, 0
9, 212122, Pitch_bend_c, 6, 3168
9, 212152, Pitch_bend_c, 6, 5856
9, 212170, Pitch_bend_c, 6, 7840
9, 212182, Pitch_bend_c, 6, 8192
9, 212612, Note_on_c, 6, 67, 0
9, 213120, Note_on_c, 6, 58, 109
9, 213185, Note_on_c, 6, 58, 0
9, 213240, Note_on_c, 6, 60, 102
9, 213362, Note_on_c, 6, 60, 0
9, 213480, Note_on_c, 6, 63, 104
9, 213557, Note_on_c, 6, 63, 0
9, 213720, Note_on_c, 6, 65, 109
9, 213777, Note_on_c, 6, 65, 0
9, 213940, Pitch_bend_c, 6, 7680
9, 213955, Pitch_bend_c, 6, 960
9, 213960, Note_on_c, 6, 67, 114
9, 213990, Pitch_bend_c, 6, 0
9, 214047, Pitch_bend_c, 6, 3008
9, 214077, Pitch_bend_c, 6, 7296
9, 214110, Pitch_bend_c, 6, 7936
9, 214115, Pitch_bend_c, 6, 8192
9, 214507, Note_on_c, 6, 67, 0
9, 215040, Note_on_c, 6, 58, 112
9, 215105, Note_on_c, 6, 58, 0
9, 215160, Note_on_c, 6, 60, 93
9, 215245, Note_on_c, 6, 60, 0
9, 215400, Note_on_c, 6, 63, 110
9, 215470, Note_on_c, 6, 63, 0
9, 215640, Note_on_c, 6, 65, 98
9, 215700, Note_on_c, 6, 65, 0
9, 215870, Pitch_bend_c, 6, 6496
9, 215880, Note_on_c, 6, 67, 114
9, 215895, Pitch_bend_c, 6, 4288
9, 215910, Pitch_bend_c, 6, 2080
9, 215932, Pitch_bend_c, 6, 1504
9, 215962, Pitch_bend_c, 6, 2208
9, 215985, Pitch_bend_c, 6, 3552
9, 216002, Pitch_bend_c, 6, 7456
9, 216032, Pitch_bend_c, 6, 8000
9, 216040, Pitch_bend_c, 6, 8192
9, 216465, Note_on_c, 6, 67, 0
9, 216960, Note_on_c, 6, 48, 108
9, 217110, Note_on_c, 6, 48, 0
9, 217200, Note_on_c, 6, 60, 87
9, 217260, Note_on_c, 6, 60, 0
9, 217320, Note_on_c, 6, 48, 106
9, 217395, Note_on_c, 6, 48, 0
9, 217440, Note_on_c, 6, 60, 104
9, 217525, Note_on_c, 6, 60, 0
9, 217560, Note_on_c, 6, 48, 95
9, 217640, Note_on_c, 6, 48, 0
9, 217680, Note_on_c, 6, 50, 109
9, 217920, Note_on_c, 6, 51, 115
9, 217922, Note_on_c, 6, 50, 0
9, 218037, Note_on_c, 6, 51, 0
9, 233040, Note_on_c, 6, 57, 91
9, 233040, Note_on_c, 6, 62, 76
9, 233247, Note_on_c, 6, 57, 0
9, 233280, Note_on_c, 6, 58, 83
9, 233280, Note_on_c, 6, 63, 76
9, 233295, Note_on_c, 6, 62, 0
9, 233402, Note_on_c, 6, 63, 0
9, 233407, Note_on_c, 6, 58, 0
9, 234240, Note_on_c, 6, 58, 95
9, 234312, Note_on_c, 6, 58, 0
9, 234360, Note_on_c, 6, 60, 104
9, 234452, Note_on_c, 6, 60, 0
9, 234600, Note_on_c, 6, 63, 102
9, 234665, Note_on_c, 6, 63, 0
9, 234840, Note_on_c, 6, 65, 107
9, 234915, Note_on_c, 6, 65, 0
9, 235022, Pitch_bend_c, 6, 8160
9, 235030, Pitch_bend_c, 6, 7136
9, 235045, Pitch_bend_c, 6, 3808
9, 235067, Pitch_bend_c, 6, 1664
9, 235080, Note_on_c, 6, 67, 114
9, 235085, Pitch_bend_c, 6, 0
9, 235137, Pitch_bend_c, 6, 800
9, 235152, Pitch_bend_c, 6, 2528
9, 235167, Pitch_bend_c, 6, 5632
9, 235195, Pitch_bend_c, 6, 7520
9, 235210, Pitch_bend_c, 6, 8032
9, 235215, Pitch_bend_c, 6, 8192
9, 235715, Note_on_c, 6, 67, 0
9, 236160, Note_on_c, 6, 58, 100
9, 236235, Note_on_c, 6, 58, 0
9, 236280, Note_on_c, 6, 60, 115
9, 236370, Note_on_c, 6, 60, 0
9, 236520, Note_on_c, 6, 63, 103
9, 236580, Note_on_c, 6, 63, 0
9, 236760, Note_on_c, 6, 65, 113
9, 236827, Note_on_c, 6, 65, 0
9, 236955, Pitch_bend_c, 6, 7552
9, 236970, Pitch_bend_c, 6, 4992
9, 236992, Pitch_bend_c, 6, 3200
9, 237000, Note_on_c, 6, 67, 113
9, 237007, Pitch_bend_c, 6, 1760
9, 237022, Pitch_bend_c, 6, 960
9, 237040, Pitch_bend_c, 6, 704
9, 237065, Pitch_bend_c, 6, 960
9, 237077, Pitch_bend_c, 6, 1600
9, 237092, Pitch_bend_c, 6, 3392
9, 237117, Pitch_bend_c, 6, 5408
9, 237132, Pitch_bend_c, 6, 7392
9, 237147, Pitch_bend_c, 6, 8000
9, 237157, Pitch_bend_c, 6, 8192
9, 237627, Note_on_c, 6, 67, 0
9, 238080, Note_on_c, 6, 58, 110
9, 238147, Note_on_c, 6, 58, 0
9, 238200, Note_on_c, 6, 60, 102
9, 238295, Note_on_c, 6, 60, 0
9, 238440, Note_on_c, 6, 63, 106
9, 238510, Note_on_c, 6, 63, 0
9, 238680, Note_on_c, 6, 65, 110
9, 238747, Note_on_c, 6, 65, 0
9, 238862, Pitch_bend_c, 6, 7296
9, 238880, Pitch_bend_c, 6, 5216
9, 238895, Pitch_bend_c, 6, 2240
9, 238917, Pitch_bend_c, 6, 960
9, 238920, Note_on_c, 6, 67, 117
9, 238935, Pitch_bend_c, 6, 384
9, 238950, Pitch_bend_c, 6, 224
9, 238972, Pitch_bend_c, 6, 640
9, 238987, Pitch_bend_c, 6, 1504
9, 239002, Pitch_bend_c, 6, 2688
9, 239017, Pitch_bend_c, 6, 4992
9, 239040, Pitch_bend_c, 6, 6880
9, 239055, Pitch_bend_c, 6, 8032
9, 239070, Pitch_bend_c, 6, 8192
9, 239515, Note_on_c, 6, 67, 0
9, 240240, Note_on_c, 6, 65, 89
9, 240455, Note_on_c, 6, 65, 0
9, 240720, Note_on_c, 6, 65, 94
9, 240952, Note_on_c, 6, 65, 0
9, 241200, Note_on_c, 6, 65, 100
9, 241830, Note_on_c, 6, 65, 0
9, 241920, Note_on_c, 6, 58, 106
9, 241985, Note_on_c, 6, 58, 0
9, 242040, Note_on_c, 6, 60, 106
9, 242132, Note_on_c, 6, 60, 0
9, 242280, Note_on_c, 6, 63, 102
9, 242332, Note_on_c, 6, 63, 0
9, 242520, Note_on_c, 6, 65, 97
9, 242577, Note_on_c, 6, 65, 0
9, 242735, Pitch_bend_c, 6, 7296
9, 242750, Pitch_bend_c, 6, 4768
9, 242760, Note_on_c, 6, 67, 121
9, 242765, Pitch_bend_c, 6, 2144
9, 242780, Pitch_bend_c, 6, 480
9, 242797, Pitch_bend_c, 6, 0
9, 242842, Pitch_bend_c, 6, 416
9, 242850, Pitch_bend_c, 6, 3168
9, 242872, Pitch_bend_c, 6, 5856
9, 242890, Pitch_bend_c, 6, 7840
9, 242902, Pitch_bend_c, 6, 8192
9, 243332, Note_on_c, 6, 67, 0
9, 243840, Note_on_c, 6, 58, 109
9, 243905, Note_on_c, 6, 58, 0
9, 243960, Note_on_c, 6, 60, 102
9, 244082, Note_on_c, 6, 60, 0
9, 244200, Note_on_c, 6, 63, 104
9, 244277, Note_on_c, 6, 63, 0
9, 244440, Note_on_c, 6, 65, 109
9, 244497, Note_on_c, 6, 65, 0
9, 244660, Pitch_bend_c, 6, 7680
9, 244675, Pitch_bend_c, 6, 5248
9, 244680, Note_on_c, 6, 67, 114
9, 244690, Pitch_bend_c, 6, 960
9, 244710, Pitch_bend_c, 6, 0
9, 244767, Pitch_bend_c, 6, 384
9, 244775, Pitch_bend_c, 6, 3008
9, 244797, Pitch_bend_c, 6, 5152
9, 244812, Pitch_bend_c, 6, 7296
9, 244830, Pitch_bend_c, 6, 7936
9, 244835, Pitch_bend_c, 6, 8192
9, 245227, Note_on_c, 6, 67, 0
9, 245760, Note_on_c, 6, 58, 112
9, 245825, Note_on_c, 6, 58, 0
9, 245880, Note_on_c, 6, 60, 93
9, 245965, Note_on_c, 6, 60, 0
9, 246120, Note_on_c, 6, 63, 110
9, 246190, Note_on_c, 6, 63, 0
9, 246360, Note_on_c, 6, 65, 98
9, 246420, Note_on_c, 6, 65, 0
9, 246590, Pitch_bend_c, 6, 7936
9, 246597, Pitch_bend_c, 6, 6496
9, 246600, Note_on_c, 6, 67, 114
9, 246615, Pitch_bend_c, 6, 4288
9, 246630, Pitch_bend_c, 6, 2080
9, 246652, Pitch_bend_c, 6, 1600
9, 246667, Pitch_bend_c, 6, 1504
9, 246682, Pitch_bend_c, 6, 2208
9, 246705, Pitch_bend_c, 6, 3552
9, 246722, Pitch_bend_c, 6, 5472
9, 246737, Pitch_bend_c, 6, 7456
9, 246752, Pitch_bend_c, 6, 8000
9, 246760, Pitch_bend_c, 6, 8192
9, 247185, Note_on_c, 6, 67, 0
9, 247920, Note_on_c, 6, 65, 114
9, 247987, Note_on_c, 6, 65, 0
9, 248160, Note_on_c, 6, 64, 106
9, 248237, Note_on_c, 6, 64, 0
9, 248280, Note_on_c, 6, 63, 100
9, 248337, Note_on_c, 6, 63, 0
9, 248640, Note_on_c, 6, 65, 108
9, 248720, Note_on_c, 6, 65, 0
9, 248880, Note_on_c, 6, 64, 102
9, 248967, Note_on_c, 6, 64, 0
9, 249000, Note_on_c, 6, 63, 87
9, 249072, Note_on_c, 6, 63, 0
9, 297805, Pitch_bend_c, 6, 6752
9, 297827, Pitch_bend_c, 6, 4000
9, 297840, Note_on_c, 6, 63, 109
9, 297840, Note_on_c, 6, 75, 109
9, 297842, Pitch_bend_c, 6, 1600
9, 297862, Pitch_bend_c, 6, 0
9, 297922, Pitch_bend_c, 6, 3232
9, 297952, Pitch_bend_c, 6, 5568
9, 297967, Pitch_bend_c, 6, 7552
9, 297982, Pitch_bend_c, 6, 8032
9, 297990, Pitch_bend_c, 6, 8192
9, 298097, Note_on_c, 6, 63, 0
9, 298100, Note_on_c, 6, 75, 0
9, 298155, Pitch_bend_c, 6, 6112
9, 298177, Pitch_bend_c, 6, 3296
9, 298192, Pitch_bend_c, 6, 320
9, 298200, Note_on_c, 6, 63, 96
9, 298200, Note_on_c, 6, 75, 96
9, 298217, Pitch_bend_c, 6, 0
9, 298270, Pitch_bend_c, 6, 2816
9, 298297, Pitch_bend_c, 6, 5952
9, 298322, Pitch_bend_c, 6, 8096
9, 298347, Pitch_bend_c, 6, 8192
9, 298417, Note_on_c, 6, 63, 0
9, 298437, Note_on_c, 6, 75, 0
9, 298525, Pitch_bend_c, 6, 6752
9, 298545, Pitch_bend_c, 6, 4384
9, 298560, Note_on_c, 6, 63, 83
9, 298560, Note_on_c, 6, 75, 83
9, 298562, Pitch_bend_c, 6, 2144
9, 298577, Pitch_bend_c, 6, 576
9, 298595, Pitch_bend_c, 6, 0
9, 298625, Pitch_bend_c, 6, 1024
9, 298647, Pitch_bend_c, 6, 3168
9, 298670, Pitch_bend_c, 6, 5248
9, 298685, Pitch_bend_c, 6, 7328
9, 298700, Pitch_bend_c, 6, 8000
9, 298707, Pitch_bend_c, 6, 8192
9, 298792, Note_on_c, 6, 63, 0
9, 298817, Note_on_c, 6, 75, 0
9, 298855, Pitch_bend_c, 6, 6848
9, 298877, Pitch_bend_c, 6, 4800
9, 298892, Pitch_bend_c, 6, 1888
9, 298915, Pitch_bend_c, 6, 1280
9, 298920, Note_on_c, 6, 63, 70
9, 298920, Note_on_c, 6, 75, 70
9, 298927, Pitch_bend_c, 6, 480
9, 298950, Pitch_bend_c, 6, 544
9, 298965, Pitch_bend_c, 6, 960
9, 298980, Pitch_bend_c, 6, 2528
9, 299002, Pitch_bend_c, 6, 4384
9, 299020, Pitch_bend_c, 6, 6752
9, 299032, Pitch_bend_c, 6, 8160
9, 299047, Pitch_bend_c, 6, 8192
9, 299190, Note_on_c, 6, 63, 0
9, 299200, Note_on_c, 6, 75, 0
9, 299265, Pitch_bend_c, 6, 7168
9, 299277, Pitch_bend_c, 6, 4096
9, 299280, Note_on_c, 6, 63, 57
9, 299280, Note_on_c, 6, 75, 57
9, 299302, Pitch_bend_c, 6, 2304
9, 299342, Pitch_bend_c, 6, 3008
9, 299365, Pitch_bend_c, 6, 4800
9, 299387, Pitch_bend_c, 6, 6688
9, 299402, Pitch_bend_c, 6, 8000
9, 299417, Pitch_bend_c, 6, 8192
9, 299485, Note_on_c, 6, 75, 0
9, 299495, Note_on_c, 6, 63, 0
9, 303360, Note_on_c, 6, 46, 102
9, 303580, Note_on_c, 6, 46, 0
9, 303580, End_track
10, 0, Start_track
10, 0, Channel_prefix, 7
10, 0, Title_t, "Jaume Guillamon 1997"
10, 0, Instrument_name_t, "CHA  8  "
10, 0, Pitch_bend_c, 7, 8192
10, 0, End_track
11, 0, Start_track
11, 0, Channel_prefix, 8
11, 0, Title_t, "Sequence"
11, 0, Instrument_name_t, "CHA  9  "
11, 0, Pitch_bend_c, 8, 8192
11, 0, End_track
12, 0, Start_track
12, 0, Channel_prefix, 9
12, 0, Title_t, "DRUMS   "
12, 0, Instrument_name_t, "CHA 10  "
12, 480, Program_c, 9, 0
12, 487, Control_c, 9, 7, 100
12, 488, Control_c, 9, 10, 64
12, 488, Control_c, 9, 11, 127
12, 490, Control_c, 9, 91, 0
12, 490, Control_c, 9, 93, 0
12, 960, Control_c, 9, 101, 0
12, 987, Control_c, 9, 100, 0
12, 990, Control_c, 9, 6, 2
12, 1005, Control_c, 9, 101, 127
12, 1017, Control_c, 9, 100, 127
12, 1035, Pitch_bend_c, 9, 16256
12, 1920, Note_on_c, 9, 42, 63
12, 1935, Note_on_c, 9, 42, 0
12, 2400, Note_on_c, 9, 42, 62
12, 2415, Note_on_c, 9, 42, 0
12, 2880, Note_on_c, 9, 42, 62
12, 2895, Note_on_c, 9, 42, 0
12, 3360, Note_on_c, 9, 42, 61
12, 3375, Note_on_c, 9, 42, 0
12, 3840, Note_on_c, 9, 36, 127
12, 3840, Note_on_c, 9, 51, 99
12, 3855, Note_on_c, 9, 36, 0
12, 3855, Note_on_c, 9, 51, 0
12, 4320, Note_on_c, 9, 36, 127
12, 4320, Note_on_c, 9, 42, 109
12, 4335, Note_on_c, 9, 36, 0
12, 4335, Note_on_c, 9, 42, 0
12, 4800, Note_on_c, 9, 36, 127
12, 4815, Note_on_c, 9, 36, 0
12, 5040, Note_on_c, 9, 40, 127
12, 5040, Note_on_c, 9, 52, 115
12, 5055, Note_on_c, 9, 40, 0
12, 5055, Note_on_c, 9, 52, 0
12, 5280, Note_on_c, 9, 36, 127
12, 5295, Note_on_c, 9, 36, 0
12, 5760, Note_on_c, 9, 36, 127
12, 5760, Note_on_c, 9, 42, 90
12, 5775, Note_on_c, 9, 36, 0
12, 5775, Note_on_c, 9, 42, 0
12, 6000, Note_on_c, 9, 42, 60
12, 6015, Note_on_c, 9, 42, 0
12, 6240, Note_on_c, 9, 36, 127
12, 6240, Note_on_c, 9, 42, 115
12, 6255, Note_on_c, 9, 36, 0
12, 6255, Note_on_c, 9, 42, 0
12, 6480, Note_on_c, 9, 42, 57
12, 6495, Note_on_c, 9, 42, 0
12, 6720, Note_on_c, 9, 36, 127
12, 6720, Note_on_c, 9, 42, 103
12, 6735, Note_on_c, 9, 36, 0
12, 6735, Note_on_c, 9, 42, 0
12, 6960, Note_on_c, 9, 46, 87
12, 6975, Note_on_c, 9, 46, 0
12, 7200, Note_on_c, 9, 36, 127
12, 7200, Note_on_c, 9, 42, 96
12, 7215, Note_on_c, 9, 36, 0
12, 7215, Note_on_c, 9, 42, 0
12, 7440, Note_on_c, 9, 42, 59
12, 7455, Note_on_c, 9, 42, 0
12, 7680, Note_on_c, 9, 36, 127
12, 7680, Note_on_c, 9, 42, 116
12, 7695, Note_on_c, 9, 36, 0
12, 7695, Note_on_c, 9, 42, 0
12, 7920, Note_on_c, 9, 42, 73
12, 7935, Note_on_c, 9, 42, 0
12, 8160, Note_on_c, 9, 36, 127
12, 8160, Note_on_c, 9, 42, 103
12, 8175, Note_on_c, 9, 36, 0
12, 8175, Note_on_c, 9, 42, 0
12, 8400, Note_on_c, 9, 42, 78
12, 8415, Note_on_c, 9, 42, 0
12, 8640, Note_on_c, 9, 36, 127
12, 8640, Note_on_c, 9, 42, 83
12, 8655, Note_on_c, 9, 36, 0
12, 8655, Note_on_c, 9, 42, 0
12, 8880, Note_on_c, 9, 40, 118
12, 8880, Note_on_c, 9, 52, 121
12, 8895, Note_on_c, 9, 40, 0
12, 8895, Note_on_c, 9, 52, 0
12, 9120, Note_on_c, 9, 36, 127
12, 9135, Note_on_c, 9, 36, 0
12, 9600, Note_on_c, 9, 36, 127
12, 9600, Note_on_c, 9, 42, 104
12, 9615, Note_on_c, 9, 36, 0
12, 9615, Note_on_c, 9, 42, 0
12, 10080, Note_on_c, 9, 36, 126
12, 10080, Note_on_c, 9, 42, 99
12, 10095, Note_on_c, 9, 36, 0
12, 10095, Note_on_c, 9, 42, 0
12, 10560, Note_on_c, 9, 36, 127
12, 10560, Note_on_c, 9, 42, 105
12, 10575, Note_on_c, 9, 36, 0
12, 10575, Note_on_c, 9, 42, 0
12, 11040, Note_on_c, 9, 36, 127
12, 11040, Note_on_c, 9, 46, 104
12, 11055, Note_on_c, 9, 36, 0
12, 11055, Note_on_c, 9, 46, 0
12, 11520, Note_on_c, 9, 36, 124
12, 11520, Note_on_c, 9, 42, 108
12, 11535, Note_on_c, 9, 36, 0
12, 11535, Note_on_c, 9, 42, 0
12, 11760, Note_on_c, 9, 42, 110
12, 11775, Note_on_c, 9, 42, 0
12, 12000, Note_on_c, 9, 36, 127
12, 12000, Note_on_c, 9, 39, 125
12, 12000, Note_on_c, 9, 40, 127
12, 12000, Note_on_c, 9, 42, 118
12, 12015, Note_on_c, 9, 36, 0
12, 12015, Note_on_c, 9, 39, 0
12, 12015, Note_on_c, 9, 40, 0
12, 12015, Note_on_c, 9, 42, 0
12, 12240, Note_on_c, 9, 46, 112
12, 12255, Note_on_c, 9, 46, 0
12, 12480, Note_on_c, 9, 36, 127
12, 12480, Note_on_c, 9, 42, 109
12, 12495, Note_on_c, 9, 36, 0
12, 12495, Note_on_c, 9, 42, 0
12, 12720, Note_on_c, 9, 42, 108
12, 12735, Note_on_c, 9, 42, 0
12, 12960, Note_on_c, 9, 36, 127
12, 12960, Note_on_c, 9, 39, 127
12, 12960, Note_on_c, 9, 40, 127
12, 12960, Note_on_c, 9, 42, 109
12, 12975, Note_on_c, 9, 36, 0
12, 12975, Note_on_c, 9, 39, 0
12, 12975, Note_on_c, 9, 40, 0
12, 12975, Note_on_c, 9, 42, 0
12, 13200, Note_on_c, 9, 42, 95
12, 13215, Note_on_c, 9, 42, 0
12, 13320, Note_on_c, 9, 42, 115
12, 13335, Note_on_c, 9, 42, 0
12, 13440, Note_on_c, 9, 36, 127
12, 13455, Note_on_c, 9, 36, 0
12, 13560, Note_on_c, 9, 42, 106
12, 13575, Note_on_c, 9, 42, 0
12, 13680, Note_on_c, 9, 42, 120
12, 13695, Note_on_c, 9, 42, 0
12, 13920, Note_on_c, 9, 36, 127
12, 13920, Note_on_c, 9, 39, 127
12, 13920, Note_on_c, 9, 40, 127
12, 13920, Note_on_c, 9, 42, 121
12, 13935, Note_on_c, 9, 36, 0
12, 13935, Note_on_c, 9, 39, 0
12, 13935, Note_on_c, 9, 40, 0
12, 13935, Note_on_c, 9, 42, 0
12, 14160, Note_on_c, 9, 46, 113
12, 14175, Note_on_c, 9, 46, 0
12, 14400, Note_on_c, 9, 36, 127
12, 14400, Note_on_c, 9, 42, 125
12, 14415, Note_on_c, 9, 36, 0
12, 14415, Note_on_c, 9, 42, 0
12, 14640, Note_on_c, 9, 42, 97
12, 14655, Note_on_c, 9, 42, 0
12, 14880, Note_on_c, 9, 36, 127
12, 14880, Note_on_c, 9, 39, 127
12, 14880, Note_on_c, 9, 40, 127
12, 14880, Note_on_c, 9, 42, 120
12, 14895, Note_on_c, 9, 36, 0
12, 14895, Note_on_c, 9, 39, 0
12, 14895, Note_on_c, 9, 40, 0
12, 14895, Note_on_c, 9, 42, 0
12, 15120, Note_on_c, 9, 42, 98
12, 15135, Note_on_c, 9, 42, 0
12, 15360, Note_on_c, 9, 36, 124
12, 15360, Note_on_c, 9, 42, 108
12, 15375, Note_on_c, 9, 36, 0
12, 15375, Note_on_c, 9, 42, 0
12, 15600, Note_on_c, 9, 42, 110
12, 15615, Note_on_c, 9, 42, 0
12, 15840, Note_on_c, 9, 36, 127
12, 15840, Note_on_c, 9, 39, 125
12, 15840, Note_on_c, 9, 40, 127
12, 15840, Note_on_c, 9, 42, 118
12, 15855, Note_on_c, 9, 36, 0
12, 15855, Note_on_c, 9, 39, 0
12, 15855, Note_on_c, 9, 40, 0
12, 15855, Note_on_c, 9, 42, 0
12, 16080, Note_on_c, 9, 46, 112
12, 16095, Note_on_c, 9, 46, 0
12, 16320, Note_on_c, 9, 36, 127
12, 16320, Note_on_c, 9, 42, 109
12, 16335, Note_on_c, 9, 36, 0
12, 16335, Note_on_c, 9, 42, 0
12, 16560, Note_on_c, 9, 42, 108
12, 16575, Note_on_c, 9, 42, 0
12, 16800, Note_on_c, 9, 36, 127
12, 16800, Note_on_c, 9, 39, 127
12, 16800, Note_on_c, 9, 40, 127
12, 16800, Note_on_c, 9, 42, 109
12, 16815, Note_on_c, 9, 36, 0
12, 16815, Note_on_c, 9, 39, 0
12, 16815, Note_on_c, 9, 40, 0
12, 16815, Note_on_c, 9, 42, 0
12, 17040, Note_on_c, 9, 42, 95
12, 17055, Note_on_c, 9, 42, 0
12, 17160, Note_on_c, 9, 42, 115
12, 17175, Note_on_c, 9, 42, 0
12, 17280, Note_on_c, 9, 36, 127
12, 17295, Note_on_c, 9, 36, 0
12, 17400, Note_on_c, 9, 42, 106
12, 17415, Note_on_c, 9, 42, 0
12, 17520, Note_on_c, 9, 42, 120
12, 17535, Note_on_c, 9, 42, 0
12, 17760, Note_on_c, 9, 36, 127
12, 17760, Note_on_c, 9, 39, 127
12, 17760, Note_on_c, 9, 40, 127
12, 17760, Note_on_c, 9, 42, 121
12, 17775, Note_on_c, 9, 36, 0
12, 17775, Note_on_c, 9, 39, 0
12, 17775, Note_on_c, 9, 40, 0
12, 17775, Note_on_c, 9, 42, 0
12, 18000, Note_on_c, 9, 46, 113
12, 18015, Note_on_c, 9, 46, 0
12, 18240, Note_on_c, 9, 36, 127
12, 18240, Note_on_c, 9, 42, 125
12, 18255, Note_on_c, 9, 36, 0
12, 18255, Note_on_c, 9, 42, 0
12, 18480, Note_on_c, 9, 42, 97
12, 18495, Note_on_c, 9, 42, 0
12, 18720, Note_on_c, 9, 36, 127
12, 18720, Note_on_c, 9, 39, 127
12, 18720, Note_on_c, 9, 40, 127
12, 18720, Note_on_c, 9, 42, 120
12, 18735, Note_on_c, 9, 36, 0
12, 18735, Note_on_c, 9, 39, 0
12, 18735, Note_on_c, 9, 40, 0
12, 18735, Note_on_c, 9, 42, 0
12, 18960, Note_on_c, 9, 42, 98
12, 18975, Note_on_c, 9, 42, 0
12, 19200, Note_on_c, 9, 36, 124
12, 19200, Note_on_c, 9, 42, 108
12, 19215, Note_on_c, 9, 36, 0
12, 19215, Note_on_c, 9, 42, 0
12, 19440, Note_on_c, 9, 42, 110
12, 19455, Note_on_c, 9, 42, 0
12, 19680, Note_on_c, 9, 36, 127
12, 19680, Note_on_c, 9, 39, 125
12, 19680, Note_on_c, 9, 40, 127
12, 19680, Note_on_c, 9, 42, 118
12, 19695, Note_on_c, 9, 36, 0
12, 19695, Note_on_c, 9, 39, 0
12, 19695, Note_on_c, 9, 40, 0
12, 19695, Note_on_c, 9, 42, 0
12, 19920, Note_on_c, 9, 46, 112
12, 19935, Note_on_c, 9, 46, 0
12, 20160, Note_on_c, 9, 36, 127
12, 20160, Note_on_c, 9, 42, 109
12, 20175, Note_on_c, 9, 36, 0
12, 20175, Note_on_c, 9, 42, 0
12, 20400, Note_on_c, 9, 42, 108
12, 20415, Note_on_c, 9, 42, 0
12, 20640, Note_on_c, 9, 36, 127
12, 20640, Note_on_c, 9, 39, 127
12, 20640, Note_on_c, 9, 40, 127
12, 20640, Note_on_c, 9, 42, 109
12, 20655, Note_on_c, 9, 36, 0
12, 20655, Note_on_c, 9, 39, 0
12, 20655, Note_on_c, 9, 40, 0
12, 20655, Note_on_c, 9, 42, 0
12, 20880, Note_on_c, 9, 42, 95
12, 20895, Note_on_c, 9, 42, 0
12, 21000, Note_on_c, 9, 42, 115
12, 21015, Note_on_c, 9, 42, 0
12, 21120, Note_on_c, 9, 36, 127
12, 21135, Note_on_c, 9, 36, 0
12, 21240, Note_on_c, 9, 42, 106
12, 21255, Note_on_c, 9, 42, 0
12, 21360, Note_on_c, 9, 42, 120
12, 21375, Note_on_c, 9, 42, 0
12, 21600, Note_on_c, 9, 36, 127
12, 21600, Note_on_c, 9, 39, 127
12, 21600, Note_on_c, 9, 40, 127
12, 21600, Note_on_c, 9, 42, 121
12, 21615, Note_on_c, 9, 36, 0
12, 21615, Note_on_c, 9, 39, 0
12, 21615, Note_on_c, 9, 40, 0
12, 21615, Note_on_c, 9, 42, 0
12, 21840, Note_on_c, 9, 46, 113
12, 21855, Note_on_c, 9, 46, 0
12, 22080, Note_on_c, 9, 36, 127
12, 22080, Note_on_c, 9, 42, 125
12, 22095, Note_on_c, 9, 36, 0
12, 22095, Note_on_c, 9, 42, 0
12, 22320, Note_on_c, 9, 42, 97
12, 22335, Note_on_c, 9, 42, 0
12, 22560, Note_on_c, 9, 36, 127
12, 22560, Note_on_c, 9, 39, 127
12, 22560, Note_on_c, 9, 40, 127
12, 22560, Note_on_c, 9, 42, 120
12, 22575, Note_on_c, 9, 36, 0
12, 22575, Note_on_c, 9, 39, 0
12, 22575, Note_on_c, 9, 40, 0
12, 22575, Note_on_c, 9, 42, 0
12, 22800, Note_on_c, 9, 42, 98
12, 22815, Note_on_c, 9, 42, 0
12, 23040, Note_on_c, 9, 36, 124
12, 23040, Note_on_c, 9, 42, 108
12, 23055, Note_on_c, 9, 36, 0
12, 23055, Note_on_c, 9, 42, 0
12, 23280, Note_on_c, 9, 42, 110
12, 23295, Note_on_c, 9, 42, 0
12, 23520, Note_on_c, 9, 36, 127
12, 23520, Note_on_c, 9, 39, 125
12, 23520, Note_on_c, 9, 40, 127
12, 23520, Note_on_c, 9, 42, 118
12, 23535, Note_on_c, 9, 36, 0
12, 23535, Note_on_c, 9, 39, 0
12, 23535, Note_on_c, 9, 40, 0
12, 23535, Note_on_c, 9, 42, 0
12, 23760, Note_on_c, 9, 46, 112
12, 23775, Note_on_c, 9, 46, 0
12, 24000, Note_on_c, 9, 36, 127
12, 24000, Note_on_c, 9, 42, 109
12, 24015, Note_on_c, 9, 36, 0
12, 24015, Note_on_c, 9, 42, 0
12, 24240, Note_on_c, 9, 42, 108
12, 24255, Note_on_c, 9, 42, 0
12, 24480, Note_on_c, 9, 36, 127
12, 24480, Note_on_c, 9, 39, 127
12, 24480, Note_on_c, 9, 40, 127
12, 24480, Note_on_c, 9, 42, 109
12, 24495, Note_on_c, 9, 36, 0
12, 24495, Note_on_c, 9, 39, 0
12, 24495, Note_on_c, 9, 40, 0
12, 24495, Note_on_c, 9, 42, 0
12, 24720, Note_on_c, 9, 42, 95
12, 24735, Note_on_c, 9, 42, 0
12, 24840, Note_on_c, 9, 42, 115
12, 24855, Note_on_c, 9, 42, 0
12, 24960, Note_on_c, 9, 36, 127
12, 24975, Note_on_c, 9, 36, 0
12, 25080, Note_on_c, 9, 42, 106
12, 25095, Note_on_c, 9, 42, 0
12, 25200, Note_on_c, 9, 42, 120
12, 25215, Note_on_c, 9, 42, 0
12, 25440, Note_on_c, 9, 36, 127
12, 25440, Note_on_c, 9, 39, 127
12, 25440, Note_on_c, 9, 40, 127
12, 25440, Note_on_c, 9, 42, 121
12, 25455, Note_on_c, 9, 36, 0
12, 25455, Note_on_c, 9, 39, 0
12, 25455, Note_on_c, 9, 40, 0
12, 25455, Note_on_c, 9, 42, 0
12, 25680, Note_on_c, 9, 46, 113
12, 25695, Note_on_c, 9, 46, 0
12, 25920, Note_on_c, 9, 36, 127
12, 25920, Note_on_c, 9, 42, 125
12, 25935, Note_on_c, 9, 36, 0
12, 25935, Note_on_c, 9, 42, 0
12, 26160, Note_on_c, 9, 42, 97
12, 26175, Note_on_c, 9, 42, 0
12, 26400, Note_on_c, 9, 36, 127
12, 26400, Note_on_c, 9, 39, 127
12, 26400, Note_on_c, 9, 40, 127
12, 26400, Note_on_c, 9, 42, 120
12, 26415, Note_on_c, 9, 36, 0
12, 26415, Note_on_c, 9, 39, 0
12, 26415, Note_on_c, 9, 40, 0
12, 26415, Note_on_c, 9, 42, 0
12, 26640, Note_on_c, 9, 42, 98
12, 26655, Note_on_c, 9, 42, 0
12, 26880, Note_on_c, 9, 36, 124
12, 26880, Note_on_c, 9, 42, 108
12, 26895, Note_on_c, 9, 36, 0
12, 26895, Note_on_c, 9, 42, 0
12, 27120, Note_on_c, 9, 42, 110
12, 27135, Note_on_c, 9, 42, 0
12, 27360, Note_on_c, 9, 36, 127
12, 27360, Note_on_c, 9, 39, 125
12, 27360, Note_on_c, 9, 40, 127
12, 27360, Note_on_c, 9, 42, 118
12, 27375, Note_on_c, 9, 36, 0
12, 27375, Note_on_c, 9, 39, 0
12, 27375, Note_on_c, 9, 40, 0
12, 27375, Note_on_c, 9, 42, 0
12, 27600, Note_on_c, 9, 46, 112
12, 27615, Note_on_c, 9, 46, 0
12, 27840, Note_on_c, 9, 36, 127
12, 27840, Note_on_c, 9, 42, 109
12, 27855, Note_on_c, 9, 36, 0
12, 27855, Note_on_c, 9, 42, 0
12, 28080, Note_on_c, 9, 42, 108
12, 28095, Note_on_c, 9, 42, 0
12, 28320, Note_on_c, 9, 36, 127
12, 28320, Note_on_c, 9, 39, 127
12, 28320, Note_on_c, 9, 40, 127
12, 28320, Note_on_c, 9, 42, 109
12, 28335, Note_on_c, 9, 36, 0
12, 28335, Note_on_c, 9, 39, 0
12, 28335, Note_on_c, 9, 40, 0
12, 28335, Note_on_c, 9, 42, 0
12, 28560, Note_on_c, 9, 42, 95
12, 28575, Note_on_c, 9, 42, 0
12, 28680, Note_on_c, 9, 42, 115
12, 28695, Note_on_c, 9, 42, 0
12, 28800, Note_on_c, 9, 36, 127
12, 28815, Note_on_c, 9, 36, 0
12, 28920, Note_on_c, 9, 42, 106
12, 28935, Note_on_c, 9, 42, 0
12, 29040, Note_on_c, 9, 42, 120
12, 29055, Note_on_c, 9, 42, 0
12, 29280, Note_on_c, 9, 36, 127
12, 29280, Note_on_c, 9, 39, 127
12, 29280, Note_on_c, 9, 40, 127
12, 29280, Note_on_c, 9, 42, 121
12, 29295, Note_on_c, 9, 36, 0
12, 29295, Note_on_c, 9, 39, 0
12, 29295, Note_on_c, 9, 40, 0
12, 29295, Note_on_c, 9, 42, 0
12, 29520, Note_on_c, 9, 46, 113
12, 29535, Note_on_c, 9, 46, 0
12, 29760, Note_on_c, 9, 36, 127
12, 29760, Note_on_c, 9, 42, 125
12, 29775, Note_on_c, 9, 36, 0
12, 29775, Note_on_c, 9, 42, 0
12, 30000, Note_on_c, 9, 42, 97
12, 30015, Note_on_c, 9, 42, 0
12, 30240, Note_on_c, 9, 36, 127
12, 30240, Note_on_c, 9, 39, 127
12, 30240, Note_on_c, 9, 40, 127
12, 30240, Note_on_c, 9, 42, 120
12, 30255, Note_on_c, 9, 36, 0
12, 30255, Note_on_c, 9, 39, 0
12, 30255, Note_on_c, 9, 40, 0
12, 30255, Note_on_c, 9, 42, 0
12, 30480, Note_on_c, 9, 42, 98
12, 30495, Note_on_c, 9, 42, 0
12, 30720, Note_on_c, 9, 36, 124
12, 30720, Note_on_c, 9, 42, 108
12, 30735, Note_on_c, 9, 36, 0
12, 30735, Note_on_c, 9, 42, 0
12, 30960, Note_on_c, 9, 42, 110
12, 30975, Note_on_c, 9, 42, 0
12, 31200, Note_on_c, 9, 36, 127
12, 31200, Note_on_c, 9, 39, 125
12, 31200, Note_on_c, 9, 40, 127
12, 31200, Note_on_c, 9, 42, 118
12, 31215, Note_on_c, 9, 36, 0
12, 31215, Note_on_c, 9, 39, 0
12, 31215, Note_on_c, 9, 40, 0
12, 31215, Note_on_c, 9, 42, 0
12, 31440, Note_on_c, 9, 46, 112
12, 31455, Note_on_c, 9, 46, 0
12, 31680, Note_on_c, 9, 36, 127
12, 31680, Note_on_c, 9, 42, 109
12, 31695, Note_on_c, 9, 36, 0
12, 31695, Note_on_c, 9, 42, 0
12, 31920, Note_on_c, 9, 42, 108
12, 31935, Note_on_c, 9, 42, 0
12, 32160, Note_on_c, 9, 36, 127
12, 32160, Note_on_c, 9, 39, 127
12, 32160, Note_on_c, 9, 40, 127
12, 32160, Note_on_c, 9, 42, 109
12, 32175, Note_on_c, 9, 36, 0
12, 32175, Note_on_c, 9, 39, 0
12, 32175, Note_on_c, 9, 40, 0
12, 32175, Note_on_c, 9, 42, 0
12, 32400, Note_on_c, 9, 42, 95
12, 32415, Note_on_c, 9, 42, 0
12, 32520, Note_on_c, 9, 42, 115
12, 32535, Note_on_c, 9, 42, 0
12, 32640, Note_on_c, 9, 36, 127
12, 32655, Note_on_c, 9, 36, 0
12, 32760, Note_on_c, 9, 42, 106
12, 32775, Note_on_c, 9, 42, 0
12, 32880, Note_on_c, 9, 42, 120
12, 32895, Note_on_c, 9, 42, 0
12, 33120, Note_on_c, 9, 36, 127
12, 33120, Note_on_c, 9, 39, 127
12, 33120, Note_on_c, 9, 40, 127
12, 33120, Note_on_c, 9, 42, 121
12, 33135, Note_on_c, 9, 36, 0
12, 33135, Note_on_c, 9, 39, 0
12, 33135, Note_on_c, 9, 40, 0
12, 33135, Note_on_c, 9, 42, 0
12, 33360, Note_on_c, 9, 46, 113
12, 33375, Note_on_c, 9, 46, 0
12, 33600, Note_on_c, 9, 36, 127
12, 33600, Note_on_c, 9, 42, 125
12, 33615, Note_on_c, 9, 36, 0
12, 33615, Note_on_c, 9, 42, 0
12, 33840, Note_on_c, 9, 42, 97
12, 33855, Note_on_c, 9, 42, 0
12, 34080, Note_on_c, 9, 36, 127
12, 34080, Note_on_c, 9, 39, 127
12, 34080, Note_on_c, 9, 40, 127
12, 34080, Note_on_c, 9, 42, 120
12, 34095, Note_on_c, 9, 36, 0
12, 34095, Note_on_c, 9, 39, 0
12, 34095, Note_on_c, 9, 40, 0
12, 34095, Note_on_c, 9, 42, 0
12, 34320, Note_on_c, 9, 42, 98
12, 34335, Note_on_c, 9, 42, 0
12, 34560, Note_on_c, 9, 36, 124
12, 34560, Note_on_c, 9, 42, 108
12, 34575, Note_on_c, 9, 36, 0
12, 34575, Note_on_c, 9, 42, 0
12, 34800, Note_on_c, 9, 42, 110
12, 34815, Note_on_c, 9, 42, 0
12, 35040, Note_on_c, 9, 36, 127
12, 35040, Note_on_c, 9, 39, 125
12, 35040, Note_on_c, 9, 40, 127
12, 35040, Note_on_c, 9, 42, 118
12, 35055, Note_on_c, 9, 36, 0
12, 35055, Note_on_c, 9, 39, 0
12, 35055, Note_on_c, 9, 40, 0
12, 35055, Note_on_c, 9, 42, 0
12, 35280, Note_on_c, 9, 46, 112
12, 35295, Note_on_c, 9, 46, 0
12, 35520, Note_on_c, 9, 36, 127
12, 35520, Note_on_c, 9, 42, 109
12, 35535, Note_on_c, 9, 36, 0
12, 35535, Note_on_c, 9, 42, 0
12, 35760, Note_on_c, 9, 42, 108
12, 35775, Note_on_c, 9, 42, 0
12, 36000, Note_on_c, 9, 36, 127
12, 36000, Note_on_c, 9, 39, 127
12, 36000, Note_on_c, 9, 40, 127
12, 36000, Note_on_c, 9, 42, 109
12, 36015, Note_on_c, 9, 36, 0
12, 36015, Note_on_c, 9, 39, 0
12, 36015, Note_on_c, 9, 40, 0
12, 36015, Note_on_c, 9, 42, 0
12, 36240, Note_on_c, 9, 42, 95
12, 36255, Note_on_c, 9, 42, 0
12, 36360, Note_on_c, 9, 42, 115
12, 36375, Note_on_c, 9, 42, 0
12, 36480, Note_on_c, 9, 36, 127
12, 36495, Note_on_c, 9, 36, 0
12, 36600, Note_on_c, 9, 42, 106
12, 36615, Note_on_c, 9, 42, 0
12, 36720, Note_on_c, 9, 42, 120
12, 36735, Note_on_c, 9, 42, 0
12, 36960, Note_on_c, 9, 36, 127
12, 36960, Note_on_c, 9, 39, 127
12, 36960, Note_on_c, 9, 40, 127
12, 36960, Note_on_c, 9, 42, 121
12, 36975, Note_on_c, 9, 36, 0
12, 36975, Note_on_c, 9, 39, 0
12, 36975, Note_on_c, 9, 40, 0
12, 36975, Note_on_c, 9, 42, 0
12, 37200, Note_on_c, 9, 46, 113
12, 37215, Note_on_c, 9, 46, 0
12, 37440, Note_on_c, 9, 36, 127
12, 37440, Note_on_c, 9, 42, 125
12, 37455, Note_on_c, 9, 36, 0
12, 37455, Note_on_c, 9, 42, 0
12, 37680, Note_on_c, 9, 42, 97
12, 37695, Note_on_c, 9, 42, 0
12, 37920, Note_on_c, 9, 36, 127
12, 37920, Note_on_c, 9, 39, 127
12, 37920, Note_on_c, 9, 40, 127
12, 37920, Note_on_c, 9, 42, 120
12, 37935, Note_on_c, 9, 36, 0
12, 37935, Note_on_c, 9, 39, 0
12, 37935, Note_on_c, 9, 40, 0
12, 37935, Note_on_c, 9, 42, 0
12, 38160, Note_on_c, 9, 42, 98
12, 38175, Note_on_c, 9, 42, 0
12, 38400, Note_on_c, 9, 36, 124
12, 38400, Note_on_c, 9, 42, 108
12, 38415, Note_on_c, 9, 36, 0
12, 38415, Note_on_c, 9, 42, 0
12, 38640, Note_on_c, 9, 42, 110
12, 38655, Note_on_c, 9, 42, 0
12, 38880, Note_on_c, 9, 36, 127
12, 38880, Note_on_c, 9, 39, 125
12, 38880, Note_on_c, 9, 40, 127
12, 38880, Note_on_c, 9, 42, 118
12, 38895, Note_on_c, 9, 36, 0
12, 38895, Note_on_c, 9, 39, 0
12, 38895, Note_on_c, 9, 40, 0
12, 38895, Note_on_c, 9, 42, 0
12, 39120, Note_on_c, 9, 46, 112
12, 39135, Note_on_c, 9, 46, 0
12, 39360, Note_on_c, 9, 36, 127
12, 39360, Note_on_c, 9, 42, 109
12, 39375, Note_on_c, 9, 36, 0
12, 39375, Note_on_c, 9, 42, 0
12, 39600, Note_on_c, 9, 42, 108
12, 39615, Note_on_c, 9, 42, 0
12, 39840, Note_on_c, 9, 36, 127
12, 39840, Note_on_c, 9, 39, 127
12, 39840, Note_on_c, 9, 40, 127
12, 39840, Note_on_c, 9, 42, 109
12, 39855, Note_on_c, 9, 36, 0
12, 39855, Note_on_c, 9, 39, 0
12, 39855, Note_on_c, 9, 40, 0
12, 39855, Note_on_c, 9, 42, 0
12, 40080, Note_on_c, 9, 42, 95
12, 40095, Note_on_c, 9, 42, 0
12, 40200, Note_on_c, 9, 42, 115
12, 40215, Note_on_c, 9, 42, 0
12, 40320, Note_on_c, 9, 36, 127
12, 40335, Note_on_c, 9, 36, 0
12, 40440, Note_on_c, 9, 42, 106
12, 40455, Note_on_c, 9, 42, 0
12, 40560, Note_on_c, 9, 42, 120
12, 40575, Note_on_c, 9, 42, 0
12, 40800, Note_on_c, 9, 36, 127
12, 40800, Note_on_c, 9, 39, 127
12, 40800, Note_on_c, 9, 40, 127
12, 40800, Note_on_c, 9, 42, 121
12, 40815, Note_on_c, 9, 36, 0
12, 40815, Note_on_c, 9, 39, 0
12, 40815, Note_on_c, 9, 40, 0
12, 40815, Note_on_c, 9, 42, 0
12, 41040, Note_on_c, 9, 46, 113
12, 41055, Note_on_c, 9, 46, 0
12, 41280, Note_on_c, 9, 36, 127
12, 41280, Note_on_c, 9, 42, 125
12, 41295, Note_on_c, 9, 36, 0
12, 41295, Note_on_c, 9, 42, 0
12, 41520, Note_on_c, 9, 42, 97
12, 41535, Note_on_c, 9, 42, 0
12, 41760, Note_on_c, 9, 36, 127
12, 41760, Note_on_c, 9, 39, 127
12, 41760, Note_on_c, 9, 40, 127
12, 41760, Note_on_c, 9, 42, 120
12, 41775, Note_on_c, 9, 36, 0
12, 41775, Note_on_c, 9, 39, 0
12, 41775, Note_on_c, 9, 40, 0
12, 41775, Note_on_c, 9, 42, 0
12, 42000, Note_on_c, 9, 42, 98
12, 42015, Note_on_c, 9, 42, 0
12, 42240, Note_on_c, 9, 36, 124
12, 42240, Note_on_c, 9, 42, 108
12, 42255, Note_on_c, 9, 36, 0
12, 42255, Note_on_c, 9, 42, 0
12, 42480, Note_on_c, 9, 42, 110
12, 42495, Note_on_c, 9, 42, 0
12, 42720, Note_on_c, 9, 36, 127
12, 42720, Note_on_c, 9, 39, 125
12, 42720, Note_on_c, 9, 40, 127
12, 42720, Note_on_c, 9, 42, 118
12, 42735, Note_on_c, 9, 36, 0
12, 42735, Note_on_c, 9, 39, 0
12, 42735, Note_on_c, 9, 40, 0
12, 42735, Note_on_c, 9, 42, 0
12, 42960, Note_on_c, 9, 46, 112
12, 42975, Note_on_c, 9, 46, 0
12, 43200, Note_on_c, 9, 36, 127
12, 43200, Note_on_c, 9, 42, 109
12, 43215, Note_on_c, 9, 36, 0
12, 43215, Note_on_c, 9, 42, 0
12, 43440, Note_on_c, 9, 42, 108
12, 43455, Note_on_c, 9, 42, 0
12, 43680, Note_on_c, 9, 36, 127
12, 43680, Note_on_c, 9, 39, 127
12, 43680, Note_on_c, 9, 40, 127
12, 43680, Note_on_c, 9, 42, 109
12, 43695, Note_on_c, 9, 36, 0
12, 43695, Note_on_c, 9, 39, 0
12, 43695, Note_on_c, 9, 40, 0
12, 43695, Note_on_c, 9, 42, 0
12, 43920, Note_on_c, 9, 42, 95
12, 43935, Note_on_c, 9, 42, 0
12, 44040, Note_on_c, 9, 42, 115
12, 44055, Note_on_c, 9, 42, 0
12, 44160, Note_on_c, 9, 36, 127
12, 44175, Note_on_c, 9, 36, 0
12, 44280, Note_on_c, 9, 42, 106
12, 44295, Note_on_c, 9, 42, 0
12, 44400, Note_on_c, 9, 42, 120
12, 44415, Note_on_c, 9, 42, 0
12, 44640, Note_on_c, 9, 36, 127
12, 44640, Note_on_c, 9, 39, 127
12, 44640, Note_on_c, 9, 40, 127
12, 44640, Note_on_c, 9, 42, 121
12, 44655, Note_on_c, 9, 36, 0
12, 44655, Note_on_c, 9, 39, 0
12, 44655, Note_on_c, 9, 40, 0
12, 44655, Note_on_c, 9, 42, 0
12, 44880, Note_on_c, 9, 46, 113
12, 44895, Note_on_c, 9, 46, 0
12, 45120, Note_on_c, 9, 36, 127
12, 45120, Note_on_c, 9, 42, 125
12, 45135, Note_on_c, 9, 36, 0
12, 45135, Note_on_c, 9, 42, 0
12, 45360, Note_on_c, 9, 42, 97
12, 45375, Note_on_c, 9, 42, 0
12, 45600, Note_on_c, 9, 36, 127
12, 45600, Note_on_c, 9, 39, 127
12, 45600, Note_on_c, 9, 40, 127
12, 45600, Note_on_c, 9, 42, 120
12, 45615, Note_on_c, 9, 36, 0
12, 45615, Note_on_c, 9, 39, 0
12, 45615, Note_on_c, 9, 40, 0
12, 45615, Note_on_c, 9, 42, 0
12, 45840, Note_on_c, 9, 42, 98
12, 45855, Note_on_c, 9, 42, 0
12, 46080, Note_on_c, 9, 36, 124
12, 46080, Note_on_c, 9, 42, 108
12, 46095, Note_on_c, 9, 36, 0
12, 46095, Note_on_c, 9, 42, 0
12, 46320, Note_on_c, 9, 42, 110
12, 46335, Note_on_c, 9, 42, 0
12, 46560, Note_on_c, 9, 36, 127
12, 46560, Note_on_c, 9, 39, 125
12, 46560, Note_on_c, 9, 40, 127
12, 46560, Note_on_c, 9, 42, 118
12, 46575, Note_on_c, 9, 36, 0
12, 46575, Note_on_c, 9, 39, 0
12, 46575, Note_on_c, 9, 40, 0
12, 46575, Note_on_c, 9, 42, 0
12, 46800, Note_on_c, 9, 46, 112
12, 46815, Note_on_c, 9, 46, 0
12, 47040, Note_on_c, 9, 36, 127
12, 47040, Note_on_c, 9, 42, 109
12, 47055, Note_on_c, 9, 36, 0
12, 47055, Note_on_c, 9, 42, 0
12, 47280, Note_on_c, 9, 42, 108
12, 47295, Note_on_c, 9, 42, 0
12, 47520, Note_on_c, 9, 36, 127
12, 47520, Note_on_c, 9, 39, 127
12, 47520, Note_on_c, 9, 40, 127
12, 47520, Note_on_c, 9, 42, 109
12, 47535, Note_on_c, 9, 36, 0
12, 47535, Note_on_c, 9, 39, 0
12, 47535, Note_on_c, 9, 40, 0
12, 47535, Note_on_c, 9, 42, 0
12, 47760, Note_on_c, 9, 42, 95
12, 47775, Note_on_c, 9, 42, 0
12, 47880, Note_on_c, 9, 42, 115
12, 47895, Note_on_c, 9, 42, 0
12, 48000, Note_on_c, 9, 36, 127
12, 48015, Note_on_c, 9, 36, 0
12, 48120, Note_on_c, 9, 42, 106
12, 48135, Note_on_c, 9, 42, 0
12, 48240, Note_on_c, 9, 42, 120
12, 48255, Note_on_c, 9, 42, 0
12, 48480, Note_on_c, 9, 36, 127
12, 48480, Note_on_c, 9, 39, 127
12, 48480, Note_on_c, 9, 40, 127
12, 48480, Note_on_c, 9, 42, 121
12, 48495, Note_on_c, 9, 36, 0
12, 48495, Note_on_c, 9, 39, 0
12, 48495, Note_on_c, 9, 40, 0
12, 48495, Note_on_c, 9, 42, 0
12, 48720, Note_on_c, 9, 46, 113
12, 48735, Note_on_c, 9, 46, 0
12, 48960, Note_on_c, 9, 36, 127
12, 48960, Note_on_c, 9, 42, 125
12, 48975, Note_on_c, 9, 36, 0
12, 48975, Note_on_c, 9, 42, 0
12, 49200, Note_on_c, 9, 42, 97
12, 49215, Note_on_c, 9, 42, 0
12, 49440, Note_on_c, 9, 36, 127
12, 49440, Note_on_c, 9, 39, 127
12, 49440, Note_on_c, 9, 40, 127
12, 49440, Note_on_c, 9, 42, 120
12, 49455, Note_on_c, 9, 36, 0
12, 49455, Note_on_c, 9, 39, 0
12, 49455, Note_on_c, 9, 40, 0
12, 49455, Note_on_c, 9, 42, 0
12, 49680, Note_on_c, 9, 42, 98
12, 49695, Note_on_c, 9, 42, 0
12, 49920, Note_on_c, 9, 36, 124
12, 49920, Note_on_c, 9, 42, 108
12, 49935, Note_on_c, 9, 36, 0
12, 49935, Note_on_c, 9, 42, 0
12, 50160, Note_on_c, 9, 42, 110
12, 50175, Note_on_c, 9, 42, 0
12, 50400, Note_on_c, 9, 36, 127
12, 50400, Note_on_c, 9, 39, 125
12, 50400, Note_on_c, 9, 40, 127
12, 50400, Note_on_c, 9, 42, 118
12, 50415, Note_on_c, 9, 36, 0
12, 50415, Note_on_c, 9, 39, 0
12, 50415, Note_on_c, 9, 40, 0
12, 50415, Note_on_c, 9, 42, 0
12, 50640, Note_on_c, 9, 46, 112
12, 50655, Note_on_c, 9, 46, 0
12, 50880, Note_on_c, 9, 36, 127
12, 50880, Note_on_c, 9, 42, 109
12, 50895, Note_on_c, 9, 36, 0
12, 50895, Note_on_c, 9, 42, 0
12, 51120, Note_on_c, 9, 42, 108
12, 51135, Note_on_c, 9, 42, 0
12, 51360, Note_on_c, 9, 36, 127
12, 51360, Note_on_c, 9, 39, 127
12, 51360, Note_on_c, 9, 40, 127
12, 51360, Note_on_c, 9, 42, 109
12, 51375, Note_on_c, 9, 36, 0
12, 51375, Note_on_c, 9, 39, 0
12, 51375, Note_on_c, 9, 40, 0
12, 51375, Note_on_c, 9, 42, 0
12, 51600, Note_on_c, 9, 42, 95
12, 51615, Note_on_c, 9, 42, 0
12, 51720, Note_on_c, 9, 42, 115
12, 51735, Note_on_c, 9, 42, 0
12, 51840, Note_on_c, 9, 36, 127
12, 51855, Note_on_c, 9, 36, 0
12, 51960, Note_on_c, 9, 42, 106
12, 51975, Note_on_c, 9, 42, 0
12, 52080, Note_on_c, 9, 42, 120
12, 52095, Note_on_c, 9, 42, 0
12, 52320, Note_on_c, 9, 36, 127
12, 52320, Note_on_c, 9, 39, 127
12, 52320, Note_on_c, 9, 40, 127
12, 52320, Note_on_c, 9, 42, 121
12, 52335, Note_on_c, 9, 36, 0
12, 52335, Note_on_c, 9, 39, 0
12, 52335, Note_on_c, 9, 40, 0
12, 52335, Note_on_c, 9, 42, 0
12, 52560, Note_on_c, 9, 46, 113
12, 52575, Note_on_c, 9, 46, 0
12, 52800, Note_on_c, 9, 36, 127
12, 52800, Note_on_c, 9, 42, 125
12, 52815, Note_on_c, 9, 36, 0
12, 52815, Note_on_c, 9, 42, 0
12, 53040, Note_on_c, 9, 42, 97
12, 53055, Note_on_c, 9, 42, 0
12, 53280, Note_on_c, 9, 36, 127
12, 53280, Note_on_c, 9, 39, 127
12, 53280, Note_on_c, 9, 40, 127
12, 53280, Note_on_c, 9, 42, 120
12, 53295, Note_on_c, 9, 36, 0
12, 53295, Note_on_c, 9, 39, 0
12, 53295, Note_on_c, 9, 40, 0
12, 53295, Note_on_c, 9, 42, 0
12, 53520, Note_on_c, 9, 42, 98
12, 53535, Note_on_c, 9, 42, 0
12, 53760, Note_on_c, 9, 36, 124
12, 53760, Note_on_c, 9, 42, 108
12, 53775, Note_on_c, 9, 36, 0
12, 53775, Note_on_c, 9, 42, 0
12, 54000, Note_on_c, 9, 42, 110
12, 54015, Note_on_c, 9, 42, 0
12, 54240, Note_on_c, 9, 36, 127
12, 54240, Note_on_c, 9, 39, 125
12, 54240, Note_on_c, 9, 40, 127
12, 54240, Note_on_c, 9, 42, 118
12, 54255, Note_on_c, 9, 36, 0
12, 54255, Note_on_c, 9, 39, 0
12, 54255, Note_on_c, 9, 40, 0
12, 54255, Note_on_c, 9, 42, 0
12, 54480, Note_on_c, 9, 46, 112
12, 54495, Note_on_c, 9, 46, 0
12, 54720, Note_on_c, 9, 36, 127
12, 54720, Note_on_c, 9, 42, 109
12, 54735, Note_on_c, 9, 36, 0
12, 54735, Note_on_c, 9, 42, 0
12, 54960, Note_on_c, 9, 42, 108
12, 54975, Note_on_c, 9, 42, 0
12, 55200, Note_on_c, 9, 36, 127
12, 55200, Note_on_c, 9, 39, 127
12, 55200, Note_on_c, 9, 40, 127
12, 55200, Note_on_c, 9, 42, 109
12, 55215, Note_on_c, 9, 36, 0
12, 55215, Note_on_c, 9, 39, 0
12, 55215, Note_on_c, 9, 40, 0
12, 55215, Note_on_c, 9, 42, 0
12, 55440, Note_on_c, 9, 42, 95
12, 55455, Note_on_c, 9, 42, 0
12, 55560, Note_on_c, 9, 42, 115
12, 55575, Note_on_c, 9, 42, 0
12, 55680, Note_on_c, 9, 36, 127
12, 55695, Note_on_c, 9, 36, 0
12, 55800, Note_on_c, 9, 42, 106
12, 55815, Note_on_c, 9, 42, 0
12, 55920, Note_on_c, 9, 42, 120
12, 55935, Note_on_c, 9, 42, 0
12, 56160, Note_on_c, 9, 36, 127
12, 56160, Note_on_c, 9, 39, 127
12, 56160, Note_on_c, 9, 40, 127
12, 56160, Note_on_c, 9, 42, 121
12, 56175, Note_on_c, 9, 36, 0
12, 56175, Note_on_c, 9, 39, 0
12, 56175, Note_on_c, 9, 40, 0
12, 56175, Note_on_c, 9, 42, 0
12, 56400, Note_on_c, 9, 46, 113
12, 56415, Note_on_c, 9, 46, 0
12, 56640, Note_on_c, 9, 36, 127
12, 56640, Note_on_c, 9, 42, 125
12, 56655, Note_on_c, 9, 36, 0
12, 56655, Note_on_c, 9, 42, 0
12, 56880, Note_on_c, 9, 42, 97
12, 56895, Note_on_c, 9, 42, 0
12, 57120, Note_on_c, 9, 36, 127
12, 57120, Note_on_c, 9, 39, 127
12, 57120, Note_on_c, 9, 40, 127
12, 57120, Note_on_c, 9, 42, 120
12, 57135, Note_on_c, 9, 36, 0
12, 57135, Note_on_c, 9, 39, 0
12, 57135, Note_on_c, 9, 40, 0
12, 57135, Note_on_c, 9, 42, 0
12, 57360, Note_on_c, 9, 42, 98
12, 57375, Note_on_c, 9, 42, 0
12, 57600, Note_on_c, 9, 36, 124
12, 57600, Note_on_c, 9, 42, 108
12, 57615, Note_on_c, 9, 36, 0
12, 57615, Note_on_c, 9, 42, 0
12, 57840, Note_on_c, 9, 42, 110
12, 57855, Note_on_c, 9, 42, 0
12, 58080, Note_on_c, 9, 36, 127
12, 58080, Note_on_c, 9, 39, 125
12, 58080, Note_on_c, 9, 40, 127
12, 58080, Note_on_c, 9, 42, 118
12, 58095, Note_on_c, 9, 36, 0
12, 58095, Note_on_c, 9, 39, 0
12, 58095, Note_on_c, 9, 40, 0
12, 58095, Note_on_c, 9, 42, 0
12, 58320, Note_on_c, 9, 46, 112
12, 58335, Note_on_c, 9, 46, 0
12, 58560, Note_on_c, 9, 36, 127
12, 58560, Note_on_c, 9, 42, 109
12, 58575, Note_on_c, 9, 36, 0
12, 58575, Note_on_c, 9, 42, 0
12, 58800, Note_on_c, 9, 42, 108
12, 58815, Note_on_c, 9, 42, 0
12, 59040, Note_on_c, 9, 36, 127
12, 59040, Note_on_c, 9, 39, 127
12, 59040, Note_on_c, 9, 40, 127
12, 59040, Note_on_c, 9, 42, 109
12, 59055, Note_on_c, 9, 36, 0
12, 59055, Note_on_c, 9, 39, 0
12, 59055, Note_on_c, 9, 40, 0
12, 59055, Note_on_c, 9, 42, 0
12, 59280, Note_on_c, 9, 42, 95
12, 59295, Note_on_c, 9, 42, 0
12, 59400, Note_on_c, 9, 42, 115
12, 59415, Note_on_c, 9, 42, 0
12, 59520, Note_on_c, 9, 36, 127
12, 59535, Note_on_c, 9, 36, 0
12, 59640, Note_on_c, 9, 42, 106
12, 59655, Note_on_c, 9, 42, 0
12, 59760, Note_on_c, 9, 42, 120
12, 59775, Note_on_c, 9, 42, 0
12, 60000, Note_on_c, 9, 36, 127
12, 60000, Note_on_c, 9, 39, 127
12, 60000, Note_on_c, 9, 40, 127
12, 60000, Note_on_c, 9, 42, 121
12, 60015, Note_on_c, 9, 36, 0
12, 60015, Note_on_c, 9, 39, 0
12, 60015, Note_on_c, 9, 40, 0
12, 60015, Note_on_c, 9, 42, 0
12, 60240, Note_on_c, 9, 46, 113
12, 60255, Note_on_c, 9, 46, 0
12, 60480, Note_on_c, 9, 36, 127
12, 60480, Note_on_c, 9, 42, 125
12, 60495, Note_on_c, 9, 36, 0
12, 60495, Note_on_c, 9, 42, 0
12, 60720, Note_on_c, 9, 42, 97
12, 60735, Note_on_c, 9, 42, 0
12, 60960, Note_on_c, 9, 36, 127
12, 60960, Note_on_c, 9, 39, 127
12, 60960, Note_on_c, 9, 40, 127
12, 60960, Note_on_c, 9, 42, 120
12, 60975, Note_on_c, 9, 36, 0
12, 60975, Note_on_c, 9, 39, 0
12, 60975, Note_on_c, 9, 40, 0
12, 60975, Note_on_c, 9, 42, 0
12, 61200, Note_on_c, 9, 42, 98
12, 61215, Note_on_c, 9, 42, 0
12, 61440, Note_on_c, 9, 36, 124
12, 61440, Note_on_c, 9, 42, 108
12, 61455, Note_on_c, 9, 36, 0
12, 61455, Note_on_c, 9, 42, 0
12, 61680, Note_on_c, 9, 42, 110
12, 61695, Note_on_c, 9, 42, 0
12, 61920, Note_on_c, 9, 36, 127
12, 61920, Note_on_c, 9, 39, 125
12, 61920, Note_on_c, 9, 40, 127
12, 61920, Note_on_c, 9, 42, 118
12, 61935, Note_on_c, 9, 36, 0
12, 61935, Note_on_c, 9, 39, 0
12, 61935, Note_on_c, 9, 40, 0
12, 61935, Note_on_c, 9, 42, 0
12, 62160, Note_on_c, 9, 46, 112
12, 62175, Note_on_c, 9, 46, 0
12, 62400, Note_on_c, 9, 36, 127
12, 62400, Note_on_c, 9, 42, 109
12, 62415, Note_on_c, 9, 36, 0
12, 62415, Note_on_c, 9, 42, 0
12, 62640, Note_on_c, 9, 42, 108
12, 62655, Note_on_c, 9, 42, 0
12, 62880, Note_on_c, 9, 36, 127
12, 62880, Note_on_c, 9, 39, 127
12, 62880, Note_on_c, 9, 40, 127
12, 62880, Note_on_c, 9, 42, 109
12, 62895, Note_on_c, 9, 36, 0
12, 62895, Note_on_c, 9, 39, 0
12, 62895, Note_on_c, 9, 40, 0
12, 62895, Note_on_c, 9, 42, 0
12, 63120, Note_on_c, 9, 42, 95
12, 63135, Note_on_c, 9, 42, 0
12, 63240, Note_on_c, 9, 42, 115
12, 63255, Note_on_c, 9, 42, 0
12, 63360, Note_on_c, 9, 36, 127
12, 63375, Note_on_c, 9, 36, 0
12, 63480, Note_on_c, 9, 42, 106
12, 63495, Note_on_c, 9, 42, 0
12, 63600, Note_on_c, 9, 42, 120
12, 63615, Note_on_c, 9, 42, 0
12, 63840, Note_on_c, 9, 36, 127
12, 63840, Note_on_c, 9, 39, 127
12, 63840, Note_on_c, 9, 40, 127
12, 63840, Note_on_c, 9, 42, 121
12, 63855, Note_on_c, 9, 36, 0
12, 63855, Note_on_c, 9, 39, 0
12, 63855, Note_on_c, 9, 40, 0
12, 63855, Note_on_c, 9, 42, 0
12, 64080, Note_on_c, 9, 46, 113
12, 64095, Note_on_c, 9, 46, 0
12, 64320, Note_on_c, 9, 36, 127
12, 64320, Note_on_c, 9, 42, 125
12, 64335, Note_on_c, 9, 36, 0
12, 64335, Note_on_c, 9, 42, 0
12, 64560, Note_on_c, 9, 42, 97
12, 64575, Note_on_c, 9, 42, 0
12, 64800, Note_on_c, 9, 36, 127
12, 64800, Note_on_c, 9, 39, 127
12, 64800, Note_on_c, 9, 40, 127
12, 64800, Note_on_c, 9, 42, 120
12, 64815, Note_on_c, 9, 36, 0
12, 64815, Note_on_c, 9, 39, 0
12, 64815, Note_on_c, 9, 40, 0
12, 64815, Note_on_c, 9, 42, 0
12, 65040, Note_on_c, 9, 42, 98
12, 65055, Note_on_c, 9, 42, 0
12, 65280, Note_on_c, 9, 36, 124
12, 65280, Note_on_c, 9, 42, 108
12, 65295, Note_on_c, 9, 36, 0
12, 65295, Note_on_c, 9, 42, 0
12, 65520, Note_on_c, 9, 42, 110
12, 65535, Note_on_c, 9, 42, 0
12, 65760, Note_on_c, 9, 36, 127
12, 65760, Note_on_c, 9, 39, 125
12, 65760, Note_on_c, 9, 40, 127
12, 65760, Note_on_c, 9, 42, 118
12, 65775, Note_on_c, 9, 36, 0
12, 65775, Note_on_c, 9, 39, 0
12, 65775, Note_on_c, 9, 40, 0
12, 65775, Note_on_c, 9, 42, 0
12, 66000, Note_on_c, 9, 46, 112
12, 66015, Note_on_c, 9, 46, 0
12, 66240, Note_on_c, 9, 36, 127
12, 66240, Note_on_c, 9, 42, 109
12, 66255, Note_on_c, 9, 36, 0
12, 66255, Note_on_c, 9, 42, 0
12, 66480, Note_on_c, 9, 42, 108
12, 66495, Note_on_c, 9, 42, 0
12, 66720, Note_on_c, 9, 36, 127
12, 66720, Note_on_c, 9, 39, 127
12, 66720, Note_on_c, 9, 40, 127
12, 66720, Note_on_c, 9, 42, 109
12, 66735, Note_on_c, 9, 36, 0
12, 66735, Note_on_c, 9, 39, 0
12, 66735, Note_on_c, 9, 40, 0
12, 66735, Note_on_c, 9, 42, 0
12, 66960, Note_on_c, 9, 42, 95
12, 66975, Note_on_c, 9, 42, 0
12, 67080, Note_on_c, 9, 42, 115
12, 67095, Note_on_c, 9, 42, 0
12, 67200, Note_on_c, 9, 36, 127
12, 67215, Note_on_c, 9, 36, 0
12, 67320, Note_on_c, 9, 42, 106
12, 67335, Note_on_c, 9, 42, 0
12, 67440, Note_on_c, 9, 42, 120
12, 67455, Note_on_c, 9, 42, 0
12, 67680, Note_on_c, 9, 36, 127
12, 67680, Note_on_c, 9, 39, 127
12, 67680, Note_on_c, 9, 40, 127
12, 67680, Note_on_c, 9, 42, 121
12, 67695, Note_on_c, 9, 36, 0
12, 67695, Note_on_c, 9, 39, 0
12, 67695, Note_on_c, 9, 40, 0
12, 67695, Note_on_c, 9, 42, 0
12, 67920, Note_on_c, 9, 46, 113
12, 67935, Note_on_c, 9, 46, 0
12, 68160, Note_on_c, 9, 36, 127
12, 68160, Note_on_c, 9, 42, 125
12, 68175, Note_on_c, 9, 36, 0
12, 68175, Note_on_c, 9, 42, 0
12, 68400, Note_on_c, 9, 42, 97
12, 68415, Note_on_c, 9, 42, 0
12, 68640, Note_on_c, 9, 36, 127
12, 68640, Note_on_c, 9, 39, 127
12, 68640, Note_on_c, 9, 40, 127
12, 68640, Note_on_c, 9, 42, 120
12, 68655, Note_on_c, 9, 36, 0
12, 68655, Note_on_c, 9, 39, 0
12, 68655, Note_on_c, 9, 40, 0
12, 68655, Note_on_c, 9, 42, 0
12, 68880, Note_on_c, 9, 42, 98
12, 68895, Note_on_c, 9, 42, 0
12, 69120, Note_on_c, 9, 36, 124
12, 69120, Note_on_c, 9, 42, 108
12, 69135, Note_on_c, 9, 36, 0
12, 69135, Note_on_c, 9, 42, 0
12, 69360, Note_on_c, 9, 42, 110
12, 69375, Note_on_c, 9, 42, 0
12, 69600, Note_on_c, 9, 36, 127
12, 69600, Note_on_c, 9, 39, 125
12, 69600, Note_on_c, 9, 40, 127
12, 69600, Note_on_c, 9, 42, 118
12, 69615, Note_on_c, 9, 36, 0
12, 69615, Note_on_c, 9, 39, 0
12, 69615, Note_on_c, 9, 40, 0
12, 69615, Note_on_c, 9, 42, 0
12, 69840, Note_on_c, 9, 46, 112
12, 69855, Note_on_c, 9, 46, 0
12, 70080, Note_on_c, 9, 36, 127
12, 70080, Note_on_c, 9, 42, 109
12, 70095, Note_on_c, 9, 36, 0
12, 70095, Note_on_c, 9, 42, 0
12, 70320, Note_on_c, 9, 42, 108
12, 70335, Note_on_c, 9, 42, 0
12, 70560, Note_on_c, 9, 36, 127
12, 70560, Note_on_c, 9, 39, 127
12, 70560, Note_on_c, 9, 40, 127
12, 70560, Note_on_c, 9, 42, 109
12, 70575, Note_on_c, 9, 36, 0
12, 70575, Note_on_c, 9, 39, 0
12, 70575, Note_on_c, 9, 40, 0
12, 70575, Note_on_c, 9, 42, 0
12, 70800, Note_on_c, 9, 42, 95
12, 70815, Note_on_c, 9, 42, 0
12, 70920, Note_on_c, 9, 42, 115
12, 70935, Note_on_c, 9, 42, 0
12, 71040, Note_on_c, 9, 36, 127
12, 71055, Note_on_c, 9, 36, 0
12, 71160, Note_on_c, 9, 42, 106
12, 71175, Note_on_c, 9, 42, 0
12, 71280, Note_on_c, 9, 42, 120
12, 71295, Note_on_c, 9, 42, 0
12, 71520, Note_on_c, 9, 36, 127
12, 71520, Note_on_c, 9, 39, 127
12, 71520, Note_on_c, 9, 40, 127
12, 71520, Note_on_c, 9, 42, 121
12, 71535, Note_on_c, 9, 36, 0
12, 71535, Note_on_c, 9, 39, 0
12, 71535, Note_on_c, 9, 40, 0
12, 71535, Note_on_c, 9, 42, 0
12, 71760, Note_on_c, 9, 46, 113
12, 71775, Note_on_c, 9, 46, 0
12, 72000, Note_on_c, 9, 36, 127
12, 72000, Note_on_c, 9, 42, 125
12, 72015, Note_on_c, 9, 36, 0
12, 72015, Note_on_c, 9, 42, 0
12, 72240, Note_on_c, 9, 42, 97
12, 72255, Note_on_c, 9, 42, 0
12, 72480, Note_on_c, 9, 36, 127
12, 72480, Note_on_c, 9, 39, 127
12, 72480, Note_on_c, 9, 40, 127
12, 72480, Note_on_c, 9, 42, 120
12, 72495, Note_on_c, 9, 36, 0
12, 72495, Note_on_c, 9, 39, 0
12, 72495, Note_on_c, 9, 40, 0
12, 72495, Note_on_c, 9, 42, 0
12, 72720, Note_on_c, 9, 42, 98
12, 72735, Note_on_c, 9, 42, 0
12, 72960, Note_on_c, 9, 36, 124
12, 72960, Note_on_c, 9, 42, 108
12, 72975, Note_on_c, 9, 36, 0
12, 72975, Note_on_c, 9, 42, 0
12, 73200, Note_on_c, 9, 42, 110
12, 73215, Note_on_c, 9, 42, 0
12, 73440, Note_on_c, 9, 36, 127
12, 73440, Note_on_c, 9, 39, 125
12, 73440, Note_on_c, 9, 40, 127
12, 73440, Note_on_c, 9, 42, 118
12, 73455, Note_on_c, 9, 36, 0
12, 73455, Note_on_c, 9, 39, 0
12, 73455, Note_on_c, 9, 40, 0
12, 73455, Note_on_c, 9, 42, 0
12, 73680, Note_on_c, 9, 46, 112
12, 73695, Note_on_c, 9, 46, 0
12, 73920, Note_on_c, 9, 36, 127
12, 73920, Note_on_c, 9, 42, 109
12, 73935, Note_on_c, 9, 36, 0
12, 73935, Note_on_c, 9, 42, 0
12, 74160, Note_on_c, 9, 42, 108
12, 74175, Note_on_c, 9, 42, 0
12, 74400, Note_on_c, 9, 36, 127
12, 74400, Note_on_c, 9, 39, 127
12, 74400, Note_on_c, 9, 40, 127
12, 74400, Note_on_c, 9, 42, 109
12, 74415, Note_on_c, 9, 36, 0
12, 74415, Note_on_c, 9, 39, 0
12, 74415, Note_on_c, 9, 40, 0
12, 74415, Note_on_c, 9, 42, 0
12, 74640, Note_on_c, 9, 42, 95
12, 74655, Note_on_c, 9, 42, 0
12, 74760, Note_on_c, 9, 42, 115
12, 74775, Note_on_c, 9, 42, 0
12, 74880, Note_on_c, 9, 36, 127
12, 74895, Note_on_c, 9, 36, 0
12, 75000, Note_on_c, 9, 42, 106
12, 75015, Note_on_c, 9, 42, 0
12, 75120, Note_on_c, 9, 42, 120
12, 75135, Note_on_c, 9, 42, 0
12, 75360, Note_on_c, 9, 36, 127
12, 75360, Note_on_c, 9, 39, 127
12, 75360, Note_on_c, 9, 40, 127
12, 75360, Note_on_c, 9, 42, 121
12, 75375, Note_on_c, 9, 36, 0
12, 75375, Note_on_c, 9, 39, 0
12, 75375, Note_on_c, 9, 40, 0
12, 75375, Note_on_c, 9, 42, 0
12, 75600, Note_on_c, 9, 46, 113
12, 75615, Note_on_c, 9, 46, 0
12, 75840, Note_on_c, 9, 36, 127
12, 75840, Note_on_c, 9, 42, 125
12, 75855, Note_on_c, 9, 36, 0
12, 75855, Note_on_c, 9, 42, 0
12, 76080, Note_on_c, 9, 42, 97
12, 76095, Note_on_c, 9, 42, 0
12, 76320, Note_on_c, 9, 36, 127
12, 76320, Note_on_c, 9, 39, 127
12, 76320, Note_on_c, 9, 40, 127
12, 76320, Note_on_c, 9, 42, 120
12, 76335, Note_on_c, 9, 36, 0
12, 76335, Note_on_c, 9, 39, 0
12, 76335, Note_on_c, 9, 40, 0
12, 76335, Note_on_c, 9, 42, 0
12, 76560, Note_on_c, 9, 42, 98
12, 76575, Note_on_c, 9, 42, 0
12, 76800, Note_on_c, 9, 36, 124
12, 76800, Note_on_c, 9, 42, 108
12, 76815, Note_on_c, 9, 36, 0
12, 76815, Note_on_c, 9, 42, 0
12, 77040, Note_on_c, 9, 42, 110
12, 77055, Note_on_c, 9, 42, 0
12, 77280, Note_on_c, 9, 36, 127
12, 77280, Note_on_c, 9, 39, 125
12, 77280, Note_on_c, 9, 40, 127
12, 77280, Note_on_c, 9, 42, 118
12, 77295, Note_on_c, 9, 36, 0
12, 77295, Note_on_c, 9, 39, 0
12, 77295, Note_on_c, 9, 40, 0
12, 77295, Note_on_c, 9, 42, 0
12, 77520, Note_on_c, 9, 46, 112
12, 77535, Note_on_c, 9, 46, 0
12, 77760, Note_on_c, 9, 36, 127
12, 77760, Note_on_c, 9, 42, 109
12, 77775, Note_on_c, 9, 36, 0
12, 77775, Note_on_c, 9, 42, 0
12, 78000, Note_on_c, 9, 42, 108
12, 78015, Note_on_c, 9, 42, 0
12, 78240, Note_on_c, 9, 36, 127
12, 78240, Note_on_c, 9, 39, 127
12, 78240, Note_on_c, 9, 40, 127
12, 78240, Note_on_c, 9, 42, 109
12, 78255, Note_on_c, 9, 36, 0
12, 78255, Note_on_c, 9, 39, 0
12, 78255, Note_on_c, 9, 40, 0
12, 78255, Note_on_c, 9, 42, 0
12, 78480, Note_on_c, 9, 42, 95
12, 78495, Note_on_c, 9, 42, 0
12, 78600, Note_on_c, 9, 42, 115
12, 78615, Note_on_c, 9, 42, 0
12, 78720, Note_on_c, 9, 36, 127
12, 78735, Note_on_c, 9, 36, 0
12, 78840, Note_on_c, 9, 42, 106
12, 78855, Note_on_c, 9, 42, 0
12, 78960, Note_on_c, 9, 42, 120
12, 78975, Note_on_c, 9, 42, 0
12, 79200, Note_on_c, 9, 36, 127
12, 79200, Note_on_c, 9, 39, 127
12, 79200, Note_on_c, 9, 40, 127
12, 79200, Note_on_c, 9, 42, 121
12, 79215, Note_on_c, 9, 36, 0
12, 79215, Note_on_c, 9, 39, 0
12, 79215, Note_on_c, 9, 40, 0
12, 79215, Note_on_c, 9, 42, 0
12, 79440, Note_on_c, 9, 46, 113
12, 79455, Note_on_c, 9, 46, 0
12, 79680, Note_on_c, 9, 36, 127
12, 79680, Note_on_c, 9, 42, 125
12, 79695, Note_on_c, 9, 36, 0
12, 79695, Note_on_c, 9, 42, 0
12, 79920, Note_on_c, 9, 42, 97
12, 79935, Note_on_c, 9, 42, 0
12, 80160, Note_on_c, 9, 36, 127
12, 80160, Note_on_c, 9, 39, 127
12, 80160, Note_on_c, 9, 40, 127
12, 80160, Note_on_c, 9, 42, 120
12, 80175, Note_on_c, 9, 36, 0
12, 80175, Note_on_c, 9, 39, 0
12, 80175, Note_on_c, 9, 40, 0
12, 80175, Note_on_c, 9, 42, 0
12, 80400, Note_on_c, 9, 42, 98
12, 80415, Note_on_c, 9, 42, 0
12, 80640, Note_on_c, 9, 36, 124
12, 80640, Note_on_c, 9, 42, 108
12, 80655, Note_on_c, 9, 36, 0
12, 80655, Note_on_c, 9, 42, 0
12, 80880, Note_on_c, 9, 42, 110
12, 80895, Note_on_c, 9, 42, 0
12, 81120, Note_on_c, 9, 36, 127
12, 81120, Note_on_c, 9, 39, 125
12, 81120, Note_on_c, 9, 40, 127
12, 81120, Note_on_c, 9, 42, 118
12, 81135, Note_on_c, 9, 36, 0
12, 81135, Note_on_c, 9, 39, 0
12, 81135, Note_on_c, 9, 40, 0
12, 81135, Note_on_c, 9, 42, 0
12, 81360, Note_on_c, 9, 46, 112
12, 81375, Note_on_c, 9, 46, 0
12, 81600, Note_on_c, 9, 36, 127
12, 81600, Note_on_c, 9, 42, 109
12, 81615, Note_on_c, 9, 36, 0
12, 81615, Note_on_c, 9, 42, 0
12, 81840, Note_on_c, 9, 42, 108
12, 81855, Note_on_c, 9, 42, 0
12, 82080, Note_on_c, 9, 36, 127
12, 82080, Note_on_c, 9, 39, 127
12, 82080, Note_on_c, 9, 40, 127
12, 82080, Note_on_c, 9, 42, 109
12, 82095, Note_on_c, 9, 36, 0
12, 82095, Note_on_c, 9, 39, 0
12, 82095, Note_on_c, 9, 40, 0
12, 82095, Note_on_c, 9, 42, 0
12, 82320, Note_on_c, 9, 42, 95
12, 82335, Note_on_c, 9, 42, 0
12, 82440, Note_on_c, 9, 42, 115
12, 82455, Note_on_c, 9, 42, 0
12, 82560, Note_on_c, 9, 36, 127
12, 82575, Note_on_c, 9, 36, 0
12, 82680, Note_on_c, 9, 42, 106
12, 82695, Note_on_c, 9, 42, 0
12, 82800, Note_on_c, 9, 42, 120
12, 82815, Note_on_c, 9, 42, 0
12, 83040, Note_on_c, 9, 36, 127
12, 83040, Note_on_c, 9, 39, 127
12, 83040, Note_on_c, 9, 40, 127
12, 83040, Note_on_c, 9, 42, 121
12, 83055, Note_on_c, 9, 36, 0
12, 83055, Note_on_c, 9, 39, 0
12, 83055, Note_on_c, 9, 40, 0
12, 83055, Note_on_c, 9, 42, 0
12, 83280, Note_on_c, 9, 46, 113
12, 83295, Note_on_c, 9, 46, 0
12, 83520, Note_on_c, 9, 36, 127
12, 83520, Note_on_c, 9, 42, 125
12, 83535, Note_on_c, 9, 36, 0
12, 83535, Note_on_c, 9, 42, 0
12, 83760, Note_on_c, 9, 42, 97
12, 83775, Note_on_c, 9, 42, 0
12, 84000, Note_on_c, 9, 36, 127
12, 84000, Note_on_c, 9, 39, 127
12, 84000, Note_on_c, 9, 40, 127
12, 84000, Note_on_c, 9, 42, 120
12, 84015, Note_on_c, 9, 36, 0
12, 84015, Note_on_c, 9, 39, 0
12, 84015, Note_on_c, 9, 40, 0
12, 84015, Note_on_c, 9, 42, 0
12, 84240, Note_on_c, 9, 42, 98
12, 84255, Note_on_c, 9, 42, 0
12, 84480, Note_on_c, 9, 36, 124
12, 84480, Note_on_c, 9, 42, 108
12, 84495, Note_on_c, 9, 36, 0
12, 84495, Note_on_c, 9, 42, 0
12, 84720, Note_on_c, 9, 42, 110
12, 84735, Note_on_c, 9, 42, 0
12, 84960, Note_on_c, 9, 36, 127
12, 84960, Note_on_c, 9, 39, 125
12, 84960, Note_on_c, 9, 40, 127
12, 84960, Note_on_c, 9, 42, 118
12, 84975, Note_on_c, 9, 36, 0
12, 84975, Note_on_c, 9, 39, 0
12, 84975, Note_on_c, 9, 40, 0
12, 84975, Note_on_c, 9, 42, 0
12, 85200, Note_on_c, 9, 46, 112
12, 85215, Note_on_c, 9, 46, 0
12, 85440, Note_on_c, 9, 36, 127
12, 85440, Note_on_c, 9, 42, 109
12, 85455, Note_on_c, 9, 36, 0
12, 85455, Note_on_c, 9, 42, 0
12, 85680, Note_on_c, 9, 42, 108
12, 85695, Note_on_c, 9, 42, 0
12, 85920, Note_on_c, 9, 36, 127
12, 85920, Note_on_c, 9, 39, 127
12, 85920, Note_on_c, 9, 40, 127
12, 85920, Note_on_c, 9, 42, 109
12, 85935, Note_on_c, 9, 36, 0
12, 85935, Note_on_c, 9, 39, 0
12, 85935, Note_on_c, 9, 40, 0
12, 85935, Note_on_c, 9, 42, 0
12, 86160, Note_on_c, 9, 42, 95
12, 86175, Note_on_c, 9, 42, 0
12, 86280, Note_on_c, 9, 42, 115
12, 86295, Note_on_c, 9, 42, 0
12, 86400, Note_on_c, 9, 36, 127
12, 86415, Note_on_c, 9, 36, 0
12, 86520, Note_on_c, 9, 42, 106
12, 86535, Note_on_c, 9, 42, 0
12, 86640, Note_on_c, 9, 42, 120
12, 86655, Note_on_c, 9, 42, 0
12, 86880, Note_on_c, 9, 36, 127
12, 86880, Note_on_c, 9, 39, 127
12, 86880, Note_on_c, 9, 40, 127
12, 86880, Note_on_c, 9, 42, 121
12, 86895, Note_on_c, 9, 36, 0
12, 86895, Note_on_c, 9, 39, 0
12, 86895, Note_on_c, 9, 40, 0
12, 86895, Note_on_c, 9, 42, 0
12, 87120, Note_on_c, 9, 46, 113
12, 87135, Note_on_c, 9, 46, 0
12, 87360, Note_on_c, 9, 36, 127
12, 87360, Note_on_c, 9, 42, 125
12, 87375, Note_on_c, 9, 36, 0
12, 87375, Note_on_c, 9, 42, 0
12, 87600, Note_on_c, 9, 42, 97
12, 87615, Note_on_c, 9, 42, 0
12, 87840, Note_on_c, 9, 36, 127
12, 87840, Note_on_c, 9, 39, 127
12, 87840, Note_on_c, 9, 40, 127
12, 87840, Note_on_c, 9, 42, 120
12, 87855, Note_on_c, 9, 36, 0
12, 87855, Note_on_c, 9, 39, 0
12, 87855, Note_on_c, 9, 40, 0
12, 87855, Note_on_c, 9, 42, 0
12, 88080, Note_on_c, 9, 42, 98
12, 88095, Note_on_c, 9, 42, 0
12, 88320, Note_on_c, 9, 36, 124
12, 88320, Note_on_c, 9, 42, 108
12, 88335, Note_on_c, 9, 36, 0
12, 88335, Note_on_c, 9, 42, 0
12, 88560, Note_on_c, 9, 42, 110
12, 88575, Note_on_c, 9, 42, 0
12, 88800, Note_on_c, 9, 36, 127
12, 88800, Note_on_c, 9, 39, 125
12, 88800, Note_on_c, 9, 40, 127
12, 88800, Note_on_c, 9, 42, 118
12, 88815, Note_on_c, 9, 36, 0
12, 88815, Note_on_c, 9, 39, 0
12, 88815, Note_on_c, 9, 40, 0
12, 88815, Note_on_c, 9, 42, 0
12, 89040, Note_on_c, 9, 46, 112
12, 89055, Note_on_c, 9, 46, 0
12, 89280, Note_on_c, 9, 36, 127
12, 89280, Note_on_c, 9, 42, 109
12, 89295, Note_on_c, 9, 36, 0
12, 89295, Note_on_c, 9, 42, 0
12, 89520, Note_on_c, 9, 42, 108
12, 89535, Note_on_c, 9, 42, 0
12, 89760, Note_on_c, 9, 36, 127
12, 89760, Note_on_c, 9, 39, 127
12, 89760, Note_on_c, 9, 40, 127
12, 89760, Note_on_c, 9, 42, 109
12, 89775, Note_on_c, 9, 36, 0
12, 89775, Note_on_c, 9, 39, 0
12, 89775, Note_on_c, 9, 40, 0
12, 89775, Note_on_c, 9, 42, 0
12, 90000, Note_on_c, 9, 42, 95
12, 90015, Note_on_c, 9, 42, 0
12, 90120, Note_on_c, 9, 42, 115
12, 90135, Note_on_c, 9, 42, 0
12, 90240, Note_on_c, 9, 36, 127
12, 90255, Note_on_c, 9, 36, 0
12, 90360, Note_on_c, 9, 42, 106
12, 90375, Note_on_c, 9, 42, 0
12, 90480, Note_on_c, 9, 42, 120
12, 90495, Note_on_c, 9, 42, 0
12, 90720, Note_on_c, 9, 36, 127
12, 90720, Note_on_c, 9, 39, 127
12, 90720, Note_on_c, 9, 40, 127
12, 90720, Note_on_c, 9, 42, 121
12, 90735, Note_on_c, 9, 36, 0
12, 90735, Note_on_c, 9, 39, 0
12, 90735, Note_on_c, 9, 40, 0
12, 90735, Note_on_c, 9, 42, 0
12, 90960, Note_on_c, 9, 46, 113
12, 90975, Note_on_c, 9, 46, 0
12, 91200, Note_on_c, 9, 36, 127
12, 91200, Note_on_c, 9, 42, 125
12, 91215, Note_on_c, 9, 36, 0
12, 91215, Note_on_c, 9, 42, 0
12, 91440, Note_on_c, 9, 42, 97
12, 91455, Note_on_c, 9, 42, 0
12, 91680, Note_on_c, 9, 36, 127
12, 91680, Note_on_c, 9, 39, 127
12, 91680, Note_on_c, 9, 40, 127
12, 91680, Note_on_c, 9, 42, 120
12, 91695, Note_on_c, 9, 36, 0
12, 91695, Note_on_c, 9, 39, 0
12, 91695, Note_on_c, 9, 40, 0
12, 91695, Note_on_c, 9, 42, 0
12, 91920, Note_on_c, 9, 42, 98
12, 91935, Note_on_c, 9, 42, 0
12, 92160, Note_on_c, 9, 36, 124
12, 92160, Note_on_c, 9, 42, 108
12, 92175, Note_on_c, 9, 36, 0
12, 92175, Note_on_c, 9, 42, 0
12, 92400, Note_on_c, 9, 42, 110
12, 92415, Note_on_c, 9, 42, 0
12, 92640, Note_on_c, 9, 36, 127
12, 92640, Note_on_c, 9, 39, 125
12, 92640, Note_on_c, 9, 40, 127
12, 92640, Note_on_c, 9, 42, 118
12, 92655, Note_on_c, 9, 36, 0
12, 92655, Note_on_c, 9, 39, 0
12, 92655, Note_on_c, 9, 40, 0
12, 92655, Note_on_c, 9, 42, 0
12, 92880, Note_on_c, 9, 46, 112
12, 92895, Note_on_c, 9, 46, 0
12, 93120, Note_on_c, 9, 36, 127
12, 93120, Note_on_c, 9, 42, 109
12, 93135, Note_on_c, 9, 36, 0
12, 93135, Note_on_c, 9, 42, 0
12, 93360, Note_on_c, 9, 42, 108
12, 93375, Note_on_c, 9, 42, 0
12, 93600, Note_on_c, 9, 36, 127
12, 93600, Note_on_c, 9, 39, 127
12, 93600, Note_on_c, 9, 40, 127
12, 93600, Note_on_c, 9, 42, 109
12, 93615, Note_on_c, 9, 36, 0
12, 93615, Note_on_c, 9, 39, 0
12, 93615, Note_on_c, 9, 40, 0
12, 93615, Note_on_c, 9, 42, 0
12, 93840, Note_on_c, 9, 42, 95
12, 93855, Note_on_c, 9, 42, 0
12, 93960, Note_on_c, 9, 42, 115
12, 93975, Note_on_c, 9, 42, 0
12, 94080, Note_on_c, 9, 36, 127
12, 94095, Note_on_c, 9, 36, 0
12, 94200, Note_on_c, 9, 42, 106
12, 94215, Note_on_c, 9, 42, 0
12, 94320, Note_on_c, 9, 42, 120
12, 94335, Note_on_c, 9, 42, 0
12, 94560, Note_on_c, 9, 36, 127
12, 94560, Note_on_c, 9, 39, 127
12, 94560, Note_on_c, 9, 40, 127
12, 94560, Note_on_c, 9, 42, 121
12, 94575, Note_on_c, 9, 36, 0
12, 94575, Note_on_c, 9, 39, 0
12, 94575, Note_on_c, 9, 40, 0
12, 94575, Note_on_c, 9, 42, 0
12, 94800, Note_on_c, 9, 46, 113
12, 94815, Note_on_c, 9, 46, 0
12, 95040, Note_on_c, 9, 36, 127
12, 95040, Note_on_c, 9, 42, 125
12, 95055, Note_on_c, 9, 36, 0
12, 95055, Note_on_c, 9, 42, 0
12, 95280, Note_on_c, 9, 42, 97
12, 95295, Note_on_c, 9, 42, 0
12, 95520, Note_on_c, 9, 36, 127
12, 95520, Note_on_c, 9, 39, 127
12, 95520, Note_on_c, 9, 40, 127
12, 95520, Note_on_c, 9, 42, 120
12, 95535, Note_on_c, 9, 36, 0
12, 95535, Note_on_c, 9, 39, 0
12, 95535, Note_on_c, 9, 40, 0
12, 95535, Note_on_c, 9, 42, 0
12, 95760, Note_on_c, 9, 42, 98
12, 95775, Note_on_c, 9, 42, 0
12, 96000, Note_on_c, 9, 36, 124
12, 96000, Note_on_c, 9, 42, 108
12, 96015, Note_on_c, 9, 36, 0
12, 96015, Note_on_c, 9, 42, 0
12, 96240, Note_on_c, 9, 42, 110
12, 96255, Note_on_c, 9, 42, 0
12, 96480, Note_on_c, 9, 36, 127
12, 96480, Note_on_c, 9, 39, 125
12, 96480, Note_on_c, 9, 40, 127
12, 96480, Note_on_c, 9, 42, 118
12, 96495, Note_on_c, 9, 36, 0
12, 96495, Note_on_c, 9, 39, 0
12, 96495, Note_on_c, 9, 40, 0
12, 96495, Note_on_c, 9, 42, 0
12, 96720, Note_on_c, 9, 46, 112
12, 96735, Note_on_c, 9, 46, 0
12, 96960, Note_on_c, 9, 36, 127
12, 96960, Note_on_c, 9, 42, 109
12, 96975, Note_on_c, 9, 36, 0
12, 96975, Note_on_c, 9, 42, 0
12, 97200, Note_on_c, 9, 42, 108
12, 97215, Note_on_c, 9, 42, 0
12, 97440, Note_on_c, 9, 36, 127
12, 97440, Note_on_c, 9, 39, 127
12, 97440, Note_on_c, 9, 40, 127
12, 97440, Note_on_c, 9, 42, 109
12, 97455, Note_on_c, 9, 36, 0
12, 97455, Note_on_c, 9, 39, 0
12, 97455, Note_on_c, 9, 40, 0
12, 97455, Note_on_c, 9, 42, 0
12, 97680, Note_on_c, 9, 42, 95
12, 97695, Note_on_c, 9, 42, 0
12, 97800, Note_on_c, 9, 42, 115
12, 97815, Note_on_c, 9, 42, 0
12, 97920, Note_on_c, 9, 36, 127
12, 97935, Note_on_c, 9, 36, 0
12, 98040, Note_on_c, 9, 42, 106
12, 98055, Note_on_c, 9, 42, 0
12, 98160, Note_on_c, 9, 42, 120
12, 98175, Note_on_c, 9, 42, 0
12, 98400, Note_on_c, 9, 36, 127
12, 98400, Note_on_c, 9, 39, 127
12, 98400, Note_on_c, 9, 40, 127
12, 98400, Note_on_c, 9, 42, 121
12, 98415, Note_on_c, 9, 36, 0
12, 98415, Note_on_c, 9, 39, 0
12, 98415, Note_on_c, 9, 40, 0
12, 98415, Note_on_c, 9, 42, 0
12, 98640, Note_on_c, 9, 46, 113
12, 98655, Note_on_c, 9, 46, 0
12, 98880, Note_on_c, 9, 36, 127
12, 98880, Note_on_c, 9, 42, 125
12, 98895, Note_on_c, 9, 36, 0
12, 98895, Note_on_c, 9, 42, 0
12, 99120, Note_on_c, 9, 42, 97
12, 99135, Note_on_c, 9, 42, 0
12, 99360, Note_on_c, 9, 36, 127
12, 99360, Note_on_c, 9, 39, 127
12, 99360, Note_on_c, 9, 40, 127
12, 99360, Note_on_c, 9, 42, 120
12, 99375, Note_on_c, 9, 36, 0
12, 99375, Note_on_c, 9, 39, 0
12, 99375, Note_on_c, 9, 40, 0
12, 99375, Note_on_c, 9, 42, 0
12, 99600, Note_on_c, 9, 42, 98
12, 99615, Note_on_c, 9, 42, 0
12, 99840, Note_on_c, 9, 36, 124
12, 99840, Note_on_c, 9, 42, 108
12, 99855, Note_on_c, 9, 36, 0
12, 99855, Note_on_c, 9, 42, 0
12, 100080, Note_on_c, 9, 42, 110
12, 100095, Note_on_c, 9, 42, 0
12, 100320, Note_on_c, 9, 36, 127
12, 100320, Note_on_c, 9, 39, 125
12, 100320, Note_on_c, 9, 40, 127
12, 100320, Note_on_c, 9, 42, 118
12, 100335, Note_on_c, 9, 36, 0
12, 100335, Note_on_c, 9, 39, 0
12, 100335, Note_on_c, 9, 40, 0
12, 100335, Note_on_c, 9, 42, 0
12, 100560, Note_on_c, 9, 46, 112
12, 100575, Note_on_c, 9, 46, 0
12, 100800, Note_on_c, 9, 36, 127
12, 100800, Note_on_c, 9, 42, 109
12, 100815, Note_on_c, 9, 36, 0
12, 100815, Note_on_c, 9, 42, 0
12, 101040, Note_on_c, 9, 42, 108
12, 101055, Note_on_c, 9, 42, 0
12, 101280, Note_on_c, 9, 36, 127
12, 101280, Note_on_c, 9, 39, 127
12, 101280, Note_on_c, 9, 40, 127
12, 101280, Note_on_c, 9, 42, 109
12, 101295, Note_on_c, 9, 36, 0
12, 101295, Note_on_c, 9, 39, 0
12, 101295, Note_on_c, 9, 40, 0
12, 101295, Note_on_c, 9, 42, 0
12, 101520, Note_on_c, 9, 42, 95
12, 101535, Note_on_c, 9, 42, 0
12, 101640, Note_on_c, 9, 42, 115
12, 101655, Note_on_c, 9, 42, 0
12, 101760, Note_on_c, 9, 36, 127
12, 101775, Note_on_c, 9, 36, 0
12, 101880, Note_on_c, 9, 42, 106
12, 101895, Note_on_c, 9, 42, 0
12, 102000, Note_on_c, 9, 42, 120
12, 102015, Note_on_c, 9, 42, 0
12, 102240, Note_on_c, 9, 36, 127
12, 102240, Note_on_c, 9, 39, 127
12, 102240, Note_on_c, 9, 40, 127
12, 102240, Note_on_c, 9, 42, 121
12, 102255, Note_on_c, 9, 36, 0
12, 102255, Note_on_c, 9, 39, 0
12, 102255, Note_on_c, 9, 40, 0
12, 102255, Note_on_c, 9, 42, 0
12, 102480, Note_on_c, 9, 46, 113
12, 102495, Note_on_c, 9, 46, 0
12, 102720, Note_on_c, 9, 36, 127
12, 102720, Note_on_c, 9, 42, 125
12, 102735, Note_on_c, 9, 36, 0
12, 102735, Note_on_c, 9, 42, 0
12, 102960, Note_on_c, 9, 42, 97
12, 102975, Note_on_c, 9, 42, 0
12, 103200, Note_on_c, 9, 36, 127
12, 103200, Note_on_c, 9, 39, 127
12, 103200, Note_on_c, 9, 40, 127
12, 103200, Note_on_c, 9, 42, 120
12, 103215, Note_on_c, 9, 36, 0
12, 103215, Note_on_c, 9, 39, 0
12, 103215, Note_on_c, 9, 40, 0
12, 103215, Note_on_c, 9, 42, 0
12, 103440, Note_on_c, 9, 42, 98
12, 103455, Note_on_c, 9, 42, 0
12, 103680, Note_on_c, 9, 36, 124
12, 103680, Note_on_c, 9, 42, 108
12, 103695, Note_on_c, 9, 36, 0
12, 103695, Note_on_c, 9, 42, 0
12, 103920, Note_on_c, 9, 42, 110
12, 103935, Note_on_c, 9, 42, 0
12, 104160, Note_on_c, 9, 36, 127
12, 104160, Note_on_c, 9, 39, 125
12, 104160, Note_on_c, 9, 40, 127
12, 104160, Note_on_c, 9, 42, 118
12, 104175, Note_on_c, 9, 36, 0
12, 104175, Note_on_c, 9, 39, 0
12, 104175, Note_on_c, 9, 40, 0
12, 104175, Note_on_c, 9, 42, 0
12, 104400, Note_on_c, 9, 46, 112
12, 104415, Note_on_c, 9, 46, 0
12, 104640, Note_on_c, 9, 36, 127
12, 104640, Note_on_c, 9, 42, 109
12, 104655, Note_on_c, 9, 36, 0
12, 104655, Note_on_c, 9, 42, 0
12, 104880, Note_on_c, 9, 42, 108
12, 104895, Note_on_c, 9, 42, 0
12, 105120, Note_on_c, 9, 36, 127
12, 105120, Note_on_c, 9, 39, 127
12, 105120, Note_on_c, 9, 40, 127
12, 105120, Note_on_c, 9, 42, 109
12, 105135, Note_on_c, 9, 36, 0
12, 105135, Note_on_c, 9, 39, 0
12, 105135, Note_on_c, 9, 40, 0
12, 105135, Note_on_c, 9, 42, 0
12, 105360, Note_on_c, 9, 42, 95
12, 105375, Note_on_c, 9, 42, 0
12, 105480, Note_on_c, 9, 42, 115
12, 105495, Note_on_c, 9, 42, 0
12, 105600, Note_on_c, 9, 36, 127
12, 105615, Note_on_c, 9, 36, 0
12, 105720, Note_on_c, 9, 42, 106
12, 105735, Note_on_c, 9, 42, 0
12, 105840, Note_on_c, 9, 42, 120
12, 105855, Note_on_c, 9, 42, 0
12, 106080, Note_on_c, 9, 36, 127
12, 106080, Note_on_c, 9, 39, 127
12, 106080, Note_on_c, 9, 40, 127
12, 106080, Note_on_c, 9, 42, 121
12, 106095, Note_on_c, 9, 36, 0
12, 106095, Note_on_c, 9, 39, 0
12, 106095, Note_on_c, 9, 40, 0
12, 106095, Note_on_c, 9, 42, 0
12, 106320, Note_on_c, 9, 46, 113
12, 106335, Note_on_c, 9, 46, 0
12, 106560, Note_on_c, 9, 36, 127
12, 106560, Note_on_c, 9, 42, 125
12, 106575, Note_on_c, 9, 36, 0
12, 106575, Note_on_c, 9, 42, 0
12, 106800, Note_on_c, 9, 42, 97
12, 106815, Note_on_c, 9, 42, 0
12, 107040, Note_on_c, 9, 36, 127
12, 107040, Note_on_c, 9, 39, 127
12, 107040, Note_on_c, 9, 40, 127
12, 107040, Note_on_c, 9, 42, 120
12, 107055, Note_on_c, 9, 36, 0
12, 107055, Note_on_c, 9, 39, 0
12, 107055, Note_on_c, 9, 40, 0
12, 107055, Note_on_c, 9, 42, 0
12, 107280, Note_on_c, 9, 42, 98
12, 107295, Note_on_c, 9, 42, 0
12, 107520, Note_on_c, 9, 36, 124
12, 107520, Note_on_c, 9, 42, 108
12, 107535, Note_on_c, 9, 36, 0
12, 107535, Note_on_c, 9, 42, 0
12, 107760, Note_on_c, 9, 42, 110
12, 107775, Note_on_c, 9, 42, 0
12, 108000, Note_on_c, 9, 36, 127
12, 108000, Note_on_c, 9, 39, 125
12, 108000, Note_on_c, 9, 40, 127
12, 108000, Note_on_c, 9, 42, 118
12, 108015, Note_on_c, 9, 36, 0
12, 108015, Note_on_c, 9, 39, 0
12, 108015, Note_on_c, 9, 40, 0
12, 108015, Note_on_c, 9, 42, 0
12, 108240, Note_on_c, 9, 46, 112
12, 108255, Note_on_c, 9, 46, 0
12, 108480, Note_on_c, 9, 36, 127
12, 108480, Note_on_c, 9, 42, 109
12, 108495, Note_on_c, 9, 36, 0
12, 108495, Note_on_c, 9, 42, 0
12, 108720, Note_on_c, 9, 42, 108
12, 108735, Note_on_c, 9, 42, 0
12, 108960, Note_on_c, 9, 36, 127
12, 108960, Note_on_c, 9, 39, 127
12, 108960, Note_on_c, 9, 40, 127
12, 108960, Note_on_c, 9, 42, 109
12, 108975, Note_on_c, 9, 36, 0
12, 108975, Note_on_c, 9, 39, 0
12, 108975, Note_on_c, 9, 40, 0
12, 108975, Note_on_c, 9, 42, 0
12, 109200, Note_on_c, 9, 42, 95
12, 109215, Note_on_c, 9, 42, 0
12, 109320, Note_on_c, 9, 42, 115
12, 109335, Note_on_c, 9, 42, 0
12, 109440, Note_on_c, 9, 36, 127
12, 109455, Note_on_c, 9, 36, 0
12, 109560, Note_on_c, 9, 42, 106
12, 109575, Note_on_c, 9, 42, 0
12, 109680, Note_on_c, 9, 42, 120
12, 109695, Note_on_c, 9, 42, 0
12, 109920, Note_on_c, 9, 36, 127
12, 109920, Note_on_c, 9, 39, 127
12, 109920, Note_on_c, 9, 40, 127
12, 109920, Note_on_c, 9, 42, 121
12, 109935, Note_on_c, 9, 36, 0
12, 109935, Note_on_c, 9, 39, 0
12, 109935, Note_on_c, 9, 40, 0
12, 109935, Note_on_c, 9, 42, 0
12, 110160, Note_on_c, 9, 46, 113
12, 110175, Note_on_c, 9, 46, 0
12, 110400, Note_on_c, 9, 36, 127
12, 110400, Note_on_c, 9, 42, 125
12, 110415, Note_on_c, 9, 36, 0
12, 110415, Note_on_c, 9, 42, 0
12, 110640, Note_on_c, 9, 42, 97
12, 110655, Note_on_c, 9, 42, 0
12, 110880, Note_on_c, 9, 36, 127
12, 110880, Note_on_c, 9, 39, 127
12, 110880, Note_on_c, 9, 40, 127
12, 110880, Note_on_c, 9, 42, 120
12, 110895, Note_on_c, 9, 36, 0
12, 110895, Note_on_c, 9, 39, 0
12, 110895, Note_on_c, 9, 40, 0
12, 110895, Note_on_c, 9, 42, 0
12, 111120, Note_on_c, 9, 42, 98
12, 111135, Note_on_c, 9, 42, 0
12, 111360, Note_on_c, 9, 36, 124
12, 111360, Note_on_c, 9, 42, 108
12, 111375, Note_on_c, 9, 36, 0
12, 111375, Note_on_c, 9, 42, 0
12, 111600, Note_on_c, 9, 42, 110
12, 111615, Note_on_c, 9, 42, 0
12, 111840, Note_on_c, 9, 36, 127
12, 111840, Note_on_c, 9, 39, 125
12, 111840, Note_on_c, 9, 40, 127
12, 111840, Note_on_c, 9, 42, 118
12, 111855, Note_on_c, 9, 36, 0
12, 111855, Note_on_c, 9, 39, 0
12, 111855, Note_on_c, 9, 40, 0
12, 111855, Note_on_c, 9, 42, 0
12, 112080, Note_on_c, 9, 46, 112
12, 112095, Note_on_c, 9, 46, 0
12, 112320, Note_on_c, 9, 36, 127
12, 112320, Note_on_c, 9, 42, 109
12, 112335, Note_on_c, 9, 36, 0
12, 112335, Note_on_c, 9, 42, 0
12, 112560, Note_on_c, 9, 42, 108
12, 112575, Note_on_c, 9, 42, 0
12, 112800, Note_on_c, 9, 36, 127
12, 112800, Note_on_c, 9, 39, 127
12, 112800, Note_on_c, 9, 40, 127
12, 112800, Note_on_c, 9, 42, 109
12, 112815, Note_on_c, 9, 36, 0
12, 112815, Note_on_c, 9, 39, 0
12, 112815, Note_on_c, 9, 40, 0
12, 112815, Note_on_c, 9, 42, 0
12, 113040, Note_on_c, 9, 42, 95
12, 113055, Note_on_c, 9, 42, 0
12, 113160, Note_on_c, 9, 42, 115
12, 113175, Note_on_c, 9, 42, 0
12, 113280, Note_on_c, 9, 36, 127
12, 113295, Note_on_c, 9, 36, 0
12, 113400, Note_on_c, 9, 42, 106
12, 113415, Note_on_c, 9, 42, 0
12, 113520, Note_on_c, 9, 42, 120
12, 113535, Note_on_c, 9, 42, 0
12, 113760, Note_on_c, 9, 36, 127
12, 113760, Note_on_c, 9, 39, 127
12, 113760, Note_on_c, 9, 40, 127
12, 113760, Note_on_c, 9, 42, 121
12, 113775, Note_on_c, 9, 36, 0
12, 113775, Note_on_c, 9, 39, 0
12, 113775, Note_on_c, 9, 40, 0
12, 113775, Note_on_c, 9, 42, 0
12, 114000, Note_on_c, 9, 46, 113
12, 114015, Note_on_c, 9, 46, 0
12, 114240, Note_on_c, 9, 36, 127
12, 114240, Note_on_c, 9, 42, 125
12, 114255, Note_on_c, 9, 36, 0
12, 114255, Note_on_c, 9, 42, 0
12, 114480, Note_on_c, 9, 42, 97
12, 114495, Note_on_c, 9, 42, 0
12, 114720, Note_on_c, 9, 36, 127
12, 114720, Note_on_c, 9, 39, 127
12, 114720, Note_on_c, 9, 40, 127
12, 114720, Note_on_c, 9, 42, 120
12, 114735, Note_on_c, 9, 36, 0
12, 114735, Note_on_c, 9, 39, 0
12, 114735, Note_on_c, 9, 40, 0
12, 114735, Note_on_c, 9, 42, 0
12, 114960, Note_on_c, 9, 42, 98
12, 114975, Note_on_c, 9, 42, 0
12, 115200, Note_on_c, 9, 36, 124
12, 115200, Note_on_c, 9, 42, 108
12, 115215, Note_on_c, 9, 36, 0
12, 115215, Note_on_c, 9, 42, 0
12, 115440, Note_on_c, 9, 42, 110
12, 115455, Note_on_c, 9, 42, 0
12, 115680, Note_on_c, 9, 36, 127
12, 115680, Note_on_c, 9, 39, 125
12, 115680, Note_on_c, 9, 40, 127
12, 115680, Note_on_c, 9, 42, 118
12, 115695, Note_on_c, 9, 36, 0
12, 115695, Note_on_c, 9, 39, 0
12, 115695, Note_on_c, 9, 40, 0
12, 115695, Note_on_c, 9, 42, 0
12, 115920, Note_on_c, 9, 46, 112
12, 115935, Note_on_c, 9, 46, 0
12, 116160, Note_on_c, 9, 36, 127
12, 116160, Note_on_c, 9, 42, 109
12, 116175, Note_on_c, 9, 36, 0
12, 116175, Note_on_c, 9, 42, 0
12, 116400, Note_on_c, 9, 42, 108
12, 116415, Note_on_c, 9, 42, 0
12, 116640, Note_on_c, 9, 36, 127
12, 116640, Note_on_c, 9, 39, 127
12, 116640, Note_on_c, 9, 40, 127
12, 116640, Note_on_c, 9, 42, 109
12, 116655, Note_on_c, 9, 36, 0
12, 116655, Note_on_c, 9, 39, 0
12, 116655, Note_on_c, 9, 40, 0
12, 116655, Note_on_c, 9, 42, 0
12, 116880, Note_on_c, 9, 42, 95
12, 116895, Note_on_c, 9, 42, 0
12, 117000, Note_on_c, 9, 42, 115
12, 117015, Note_on_c, 9, 42, 0
12, 117120, Note_on_c, 9, 36, 127
12, 117135, Note_on_c, 9, 36, 0
12, 117240, Note_on_c, 9, 42, 106
12, 117255, Note_on_c, 9, 42, 0
12, 117360, Note_on_c, 9, 42, 120
12, 117375, Note_on_c, 9, 42, 0
12, 117600, Note_on_c, 9, 36, 127
12, 117600, Note_on_c, 9, 39, 127
12, 117600, Note_on_c, 9, 40, 127
12, 117600, Note_on_c, 9, 42, 121
12, 117615, Note_on_c, 9, 36, 0
12, 117615, Note_on_c, 9, 39, 0
12, 117615, Note_on_c, 9, 40, 0
12, 117615, Note_on_c, 9, 42, 0
12, 117840, Note_on_c, 9, 46, 113
12, 117855, Note_on_c, 9, 46, 0
12, 118080, Note_on_c, 9, 36, 127
12, 118080, Note_on_c, 9, 42, 125
12, 118095, Note_on_c, 9, 36, 0
12, 118095, Note_on_c, 9, 42, 0
12, 118320, Note_on_c, 9, 42, 97
12, 118335, Note_on_c, 9, 42, 0
12, 118560, Note_on_c, 9, 36, 127
12, 118560, Note_on_c, 9, 39, 127
12, 118560, Note_on_c, 9, 40, 127
12, 118560, Note_on_c, 9, 42, 120
12, 118575, Note_on_c, 9, 36, 0
12, 118575, Note_on_c, 9, 39, 0
12, 118575, Note_on_c, 9, 40, 0
12, 118575, Note_on_c, 9, 42, 0
12, 118800, Note_on_c, 9, 42, 98
12, 118815, Note_on_c, 9, 42, 0
12, 119040, Note_on_c, 9, 36, 124
12, 119040, Note_on_c, 9, 42, 108
12, 119055, Note_on_c, 9, 36, 0
12, 119055, Note_on_c, 9, 42, 0
12, 119280, Note_on_c, 9, 42, 110
12, 119295, Note_on_c, 9, 42, 0
12, 119520, Note_on_c, 9, 36, 127
12, 119520, Note_on_c, 9, 39, 125
12, 119520, Note_on_c, 9, 40, 127
12, 119520, Note_on_c, 9, 42, 118
12, 119535, Note_on_c, 9, 36, 0
12, 119535, Note_on_c, 9, 39, 0
12, 119535, Note_on_c, 9, 40, 0
12, 119535, Note_on_c, 9, 42, 0
12, 119760, Note_on_c, 9, 46, 112
12, 119775, Note_on_c, 9, 46, 0
12, 120000, Note_on_c, 9, 36, 127
12, 120000, Note_on_c, 9, 42, 109
12, 120015, Note_on_c, 9, 36, 0
12, 120015, Note_on_c, 9, 42, 0
12, 120240, Note_on_c, 9, 42, 108
12, 120255, Note_on_c, 9, 42, 0
12, 120480, Note_on_c, 9, 36, 127
12, 120480, Note_on_c, 9, 39, 127
12, 120480, Note_on_c, 9, 40, 127
12, 120480, Note_on_c, 9, 42, 109
12, 120495, Note_on_c, 9, 36, 0
12, 120495, Note_on_c, 9, 39, 0
12, 120495, Note_on_c, 9, 40, 0
12, 120495, Note_on_c, 9, 42, 0
12, 120720, Note_on_c, 9, 42, 95
12, 120735, Note_on_c, 9, 42, 0
12, 120840, Note_on_c, 9, 42, 115
12, 120855, Note_on_c, 9, 42, 0
12, 120960, Note_on_c, 9, 36, 127
12, 120975, Note_on_c, 9, 36, 0
12, 121080, Note_on_c, 9, 42, 106
12, 121095, Note_on_c, 9, 42, 0
12, 121200, Note_on_c, 9, 42, 120
12, 121215, Note_on_c, 9, 42, 0
12, 121440, Note_on_c, 9, 36, 127
12, 121440, Note_on_c, 9, 39, 127
12, 121440, Note_on_c, 9, 40, 127
12, 121440, Note_on_c, 9, 42, 121
12, 121455, Note_on_c, 9, 36, 0
12, 121455, Note_on_c, 9, 39, 0
12, 121455, Note_on_c, 9, 40, 0
12, 121455, Note_on_c, 9, 42, 0
12, 121680, Note_on_c, 9, 46, 113
12, 121695, Note_on_c, 9, 46, 0
12, 121920, Note_on_c, 9, 36, 127
12, 121920, Note_on_c, 9, 42, 125
12, 121935, Note_on_c, 9, 36, 0
12, 121935, Note_on_c, 9, 42, 0
12, 122160, Note_on_c, 9, 42, 97
12, 122175, Note_on_c, 9, 42, 0
12, 122400, Note_on_c, 9, 36, 127
12, 122400, Note_on_c, 9, 39, 127
12, 122400, Note_on_c, 9, 40, 127
12, 122400, Note_on_c, 9, 42, 120
12, 122415, Note_on_c, 9, 36, 0
12, 122415, Note_on_c, 9, 39, 0
12, 122415, Note_on_c, 9, 40, 0
12, 122415, Note_on_c, 9, 42, 0
12, 122640, Note_on_c, 9, 42, 98
12, 122655, Note_on_c, 9, 42, 0
12, 122880, Note_on_c, 9, 36, 124
12, 122880, Note_on_c, 9, 42, 108
12, 122895, Note_on_c, 9, 36, 0
12, 122895, Note_on_c, 9, 42, 0
12, 123120, Note_on_c, 9, 42, 110
12, 123135, Note_on_c, 9, 42, 0
12, 123360, Note_on_c, 9, 36, 127
12, 123360, Note_on_c, 9, 39, 125
12, 123360, Note_on_c, 9, 40, 127
12, 123360, Note_on_c, 9, 42, 118
12, 123375, Note_on_c, 9, 36, 0
12, 123375, Note_on_c, 9, 39, 0
12, 123375, Note_on_c, 9, 40, 0
12, 123375, Note_on_c, 9, 42, 0
12, 123600, Note_on_c, 9, 46, 112
12, 123615, Note_on_c, 9, 46, 0
12, 123840, Note_on_c, 9, 36, 127
12, 123840, Note_on_c, 9, 42, 109
12, 123855, Note_on_c, 9, 36, 0
12, 123855, Note_on_c, 9, 42, 0
12, 124080, Note_on_c, 9, 42, 108
12, 124095, Note_on_c, 9, 42, 0
12, 124320, Note_on_c, 9, 36, 127
12, 124320, Note_on_c, 9, 39, 127
12, 124320, Note_on_c, 9, 40, 127
12, 124320, Note_on_c, 9, 42, 109
12, 124335, Note_on_c, 9, 36, 0
12, 124335, Note_on_c, 9, 39, 0
12, 124335, Note_on_c, 9, 40, 0
12, 124335, Note_on_c, 9, 42, 0
12, 124560, Note_on_c, 9, 42, 95
12, 124575, Note_on_c, 9, 42, 0
12, 124680, Note_on_c, 9, 42, 115
12, 124695, Note_on_c, 9, 42, 0
12, 124800, Note_on_c, 9, 36, 127
12, 124815, Note_on_c, 9, 36, 0
12, 124920, Note_on_c, 9, 42, 106
12, 124935, Note_on_c, 9, 42, 0
12, 125040, Note_on_c, 9, 42, 120
12, 125055, Note_on_c, 9, 42, 0
12, 125280, Note_on_c, 9, 36, 127
12, 125280, Note_on_c, 9, 39, 127
12, 125280, Note_on_c, 9, 40, 127
12, 125280, Note_on_c, 9, 42, 121
12, 125295, Note_on_c, 9, 36, 0
12, 125295, Note_on_c, 9, 39, 0
12, 125295, Note_on_c, 9, 40, 0
12, 125295, Note_on_c, 9, 42, 0
12, 125520, Note_on_c, 9, 46, 113
12, 125535, Note_on_c, 9, 46, 0
12, 125760, Note_on_c, 9, 36, 127
12, 125760, Note_on_c, 9, 42, 125
12, 125775, Note_on_c, 9, 36, 0
12, 125775, Note_on_c, 9, 42, 0
12, 126000, Note_on_c, 9, 42, 97
12, 126015, Note_on_c, 9, 42, 0
12, 126240, Note_on_c, 9, 36, 127
12, 126240, Note_on_c, 9, 39, 127
12, 126240, Note_on_c, 9, 40, 127
12, 126240, Note_on_c, 9, 42, 120
12, 126255, Note_on_c, 9, 36, 0
12, 126255, Note_on_c, 9, 39, 0
12, 126255, Note_on_c, 9, 40, 0
12, 126255, Note_on_c, 9, 42, 0
12, 126480, Note_on_c, 9, 42, 98
12, 126495, Note_on_c, 9, 42, 0
12, 126720, Note_on_c, 9, 36, 124
12, 126720, Note_on_c, 9, 42, 108
12, 126735, Note_on_c, 9, 36, 0
12, 126735, Note_on_c, 9, 42, 0
12, 126960, Note_on_c, 9, 42, 110
12, 126975, Note_on_c, 9, 42, 0
12, 127200, Note_on_c, 9, 36, 127
12, 127200, Note_on_c, 9, 39, 125
12, 127200, Note_on_c, 9, 40, 127
12, 127200, Note_on_c, 9, 42, 118
12, 127215, Note_on_c, 9, 36, 0
12, 127215, Note_on_c, 9, 39, 0
12, 127215, Note_on_c, 9, 40, 0
12, 127215, Note_on_c, 9, 42, 0
12, 127440, Note_on_c, 9, 46, 112
12, 127455, Note_on_c, 9, 46, 0
12, 127680, Note_on_c, 9, 36, 127
12, 127680, Note_on_c, 9, 42, 109
12, 127695, Note_on_c, 9, 36, 0
12, 127695, Note_on_c, 9, 42, 0
12, 127920, Note_on_c, 9, 42, 108
12, 127935, Note_on_c, 9, 42, 0
12, 128160, Note_on_c, 9, 36, 127
12, 128160, Note_on_c, 9, 39, 127
12, 128160, Note_on_c, 9, 40, 127
12, 128160, Note_on_c, 9, 42, 109
12, 128175, Note_on_c, 9, 36, 0
12, 128175, Note_on_c, 9, 39, 0
12, 128175, Note_on_c, 9, 40, 0
12, 128175, Note_on_c, 9, 42, 0
12, 128400, Note_on_c, 9, 42, 95
12, 128415, Note_on_c, 9, 42, 0
12, 128520, Note_on_c, 9, 42, 115
12, 128535, Note_on_c, 9, 42, 0
12, 128640, Note_on_c, 9, 36, 127
12, 128655, Note_on_c, 9, 36, 0
12, 128760, Note_on_c, 9, 42, 106
12, 128775, Note_on_c, 9, 42, 0
12, 128880, Note_on_c, 9, 42, 120
12, 128895, Note_on_c, 9, 42, 0
12, 129120, Note_on_c, 9, 36, 127
12, 129120, Note_on_c, 9, 39, 127
12, 129120, Note_on_c, 9, 40, 127
12, 129120, Note_on_c, 9, 42, 121
12, 129135, Note_on_c, 9, 36, 0
12, 129135, Note_on_c, 9, 39, 0
12, 129135, Note_on_c, 9, 40, 0
12, 129135, Note_on_c, 9, 42, 0
12, 129360, Note_on_c, 9, 46, 113
12, 129375, Note_on_c, 9, 46, 0
12, 129600, Note_on_c, 9, 36, 127
12, 129600, Note_on_c, 9, 42, 125
12, 129615, Note_on_c, 9, 36, 0
12, 129615, Note_on_c, 9, 42, 0
12, 129840, Note_on_c, 9, 42, 97
12, 129855, Note_on_c, 9, 42, 0
12, 130080, Note_on_c, 9, 36, 127
12, 130080, Note_on_c, 9, 39, 127
12, 130080, Note_on_c, 9, 40, 127
12, 130080, Note_on_c, 9, 42, 120
12, 130095, Note_on_c, 9, 36, 0
12, 130095, Note_on_c, 9, 39, 0
12, 130095, Note_on_c, 9, 40, 0
12, 130095, Note_on_c, 9, 42, 0
12, 130320, Note_on_c, 9, 42, 98
12, 130335, Note_on_c, 9, 42, 0
12, 130560, Note_on_c, 9, 36, 124
12, 130560, Note_on_c, 9, 42, 108
12, 130575, Note_on_c, 9, 36, 0
12, 130575, Note_on_c, 9, 42, 0
12, 130800, Note_on_c, 9, 42, 110
12, 130815, Note_on_c, 9, 42, 0
12, 131040, Note_on_c, 9, 36, 127
12, 131040, Note_on_c, 9, 39, 125
12, 131040, Note_on_c, 9, 40, 127
12, 131040, Note_on_c, 9, 42, 118
12, 131055, Note_on_c, 9, 36, 0
12, 131055, Note_on_c, 9, 39, 0
12, 131055, Note_on_c, 9, 40, 0
12, 131055, Note_on_c, 9, 42, 0
12, 131280, Note_on_c, 9, 46, 112
12, 131295, Note_on_c, 9, 46, 0
12, 131520, Note_on_c, 9, 36, 127
12, 131520, Note_on_c, 9, 42, 109
12, 131535, Note_on_c, 9, 36, 0
12, 131535, Note_on_c, 9, 42, 0
12, 131760, Note_on_c, 9, 42, 108
12, 131775, Note_on_c, 9, 42, 0
12, 132000, Note_on_c, 9, 36, 127
12, 132000, Note_on_c, 9, 39, 127
12, 132000, Note_on_c, 9, 40, 127
12, 132000, Note_on_c, 9, 42, 109
12, 132015, Note_on_c, 9, 36, 0
12, 132015, Note_on_c, 9, 39, 0
12, 132015, Note_on_c, 9, 40, 0
12, 132015, Note_on_c, 9, 42, 0
12, 132240, Note_on_c, 9, 42, 95
12, 132255, Note_on_c, 9, 42, 0
12, 132360, Note_on_c, 9, 42, 115
12, 132375, Note_on_c, 9, 42, 0
12, 132480, Note_on_c, 9, 36, 127
12, 132495, Note_on_c, 9, 36, 0
12, 132600, Note_on_c, 9, 42, 106
12, 132615, Note_on_c, 9, 42, 0
12, 132720, Note_on_c, 9, 42, 120
12, 132735, Note_on_c, 9, 42, 0
12, 132960, Note_on_c, 9, 36, 127
12, 132960, Note_on_c, 9, 39, 127
12, 132960, Note_on_c, 9, 40, 127
12, 132960, Note_on_c, 9, 42, 121
12, 132975, Note_on_c, 9, 36, 0
12, 132975, Note_on_c, 9, 39, 0
12, 132975, Note_on_c, 9, 40, 0
12, 132975, Note_on_c, 9, 42, 0
12, 133200, Note_on_c, 9, 46, 113
12, 133215, Note_on_c, 9, 46, 0
12, 133440, Note_on_c, 9, 36, 127
12, 133440, Note_on_c, 9, 42, 125
12, 133455, Note_on_c, 9, 36, 0
12, 133455, Note_on_c, 9, 42, 0
12, 133680, Note_on_c, 9, 42, 97
12, 133695, Note_on_c, 9, 42, 0
12, 133920, Note_on_c, 9, 36, 127
12, 133920, Note_on_c, 9, 39, 127
12, 133920, Note_on_c, 9, 40, 127
12, 133920, Note_on_c, 9, 42, 120
12, 133935, Note_on_c, 9, 36, 0
12, 133935, Note_on_c, 9, 39, 0
12, 133935, Note_on_c, 9, 40, 0
12, 133935, Note_on_c, 9, 42, 0
12, 134160, Note_on_c, 9, 42, 98
12, 134175, Note_on_c, 9, 42, 0
12, 134400, Note_on_c, 9, 36, 124
12, 134400, Note_on_c, 9, 42, 108
12, 134415, Note_on_c, 9, 36, 0
12, 134415, Note_on_c, 9, 42, 0
12, 134640, Note_on_c, 9, 42, 110
12, 134655, Note_on_c, 9, 42, 0
12, 134880, Note_on_c, 9, 36, 127
12, 134880, Note_on_c, 9, 39, 125
12, 134880, Note_on_c, 9, 40, 127
12, 134880, Note_on_c, 9, 42, 118
12, 134895, Note_on_c, 9, 36, 0
12, 134895, Note_on_c, 9, 39, 0
12, 134895, Note_on_c, 9, 40, 0
12, 134895, Note_on_c, 9, 42, 0
12, 135120, Note_on_c, 9, 46, 112
12, 135135, Note_on_c, 9, 46, 0
12, 135360, Note_on_c, 9, 36, 127
12, 135360, Note_on_c, 9, 42, 109
12, 135375, Note_on_c, 9, 36, 0
12, 135375, Note_on_c, 9, 42, 0
12, 135600, Note_on_c, 9, 42, 108
12, 135615, Note_on_c, 9, 42, 0
12, 135840, Note_on_c, 9, 36, 127
12, 135840, Note_on_c, 9, 39, 127
12, 135840, Note_on_c, 9, 40, 127
12, 135840, Note_on_c, 9, 42, 109
12, 135855, Note_on_c, 9, 36, 0
12, 135855, Note_on_c, 9, 39, 0
12, 135855, Note_on_c, 9, 40, 0
12, 135855, Note_on_c, 9, 42, 0
12, 136080, Note_on_c, 9, 42, 95
12, 136095, Note_on_c, 9, 42, 0
12, 136200, Note_on_c, 9, 42, 115
12, 136215, Note_on_c, 9, 42, 0
12, 136320, Note_on_c, 9, 36, 127
12, 136335, Note_on_c, 9, 36, 0
12, 136440, Note_on_c, 9, 42, 106
12, 136455, Note_on_c, 9, 42, 0
12, 136560, Note_on_c, 9, 42, 120
12, 136575, Note_on_c, 9, 42, 0
12, 136800, Note_on_c, 9, 36, 127
12, 136800, Note_on_c, 9, 39, 127
12, 136800, Note_on_c, 9, 40, 127
12, 136800, Note_on_c, 9, 42, 121
12, 136815, Note_on_c, 9, 36, 0
12, 136815, Note_on_c, 9, 39, 0
12, 136815, Note_on_c, 9, 40, 0
12, 136815, Note_on_c, 9, 42, 0
12, 137040, Note_on_c, 9, 46, 113
12, 137055, Note_on_c, 9, 46, 0
12, 137280, Note_on_c, 9, 36, 127
12, 137280, Note_on_c, 9, 42, 125
12, 137295, Note_on_c, 9, 36, 0
12, 137295, Note_on_c, 9, 42, 0
12, 137520, Note_on_c, 9, 42, 97
12, 137535, Note_on_c, 9, 42, 0
12, 137760, Note_on_c, 9, 36, 127
12, 137760, Note_on_c, 9, 39, 127
12, 137760, Note_on_c, 9, 40, 127
12, 137760, Note_on_c, 9, 42, 120
12, 137775, Note_on_c, 9, 36, 0
12, 137775, Note_on_c, 9, 39, 0
12, 137775, Note_on_c, 9, 40, 0
12, 137775, Note_on_c, 9, 42, 0
12, 138000, Note_on_c, 9, 42, 98
12, 138015, Note_on_c, 9, 42, 0
12, 138240, Note_on_c, 9, 36, 124
12, 138240, Note_on_c, 9, 42, 108
12, 138255, Note_on_c, 9, 36, 0
12, 138255, Note_on_c, 9, 42, 0
12, 138480, Note_on_c, 9, 42, 110
12, 138495, Note_on_c, 9, 42, 0
12, 138720, Note_on_c, 9, 36, 127
12, 138720, Note_on_c, 9, 39, 125
12, 138720, Note_on_c, 9, 40, 127
12, 138720, Note_on_c, 9, 42, 118
12, 138735, Note_on_c, 9, 36, 0
12, 138735, Note_on_c, 9, 39, 0
12, 138735, Note_on_c, 9, 40, 0
12, 138735, Note_on_c, 9, 42, 0
12, 138960, Note_on_c, 9, 46, 112
12, 138975, Note_on_c, 9, 46, 0
12, 139200, Note_on_c, 9, 36, 127
12, 139200, Note_on_c, 9, 42, 109
12, 139215, Note_on_c, 9, 36, 0
12, 139215, Note_on_c, 9, 42, 0
12, 139440, Note_on_c, 9, 42, 108
12, 139455, Note_on_c, 9, 42, 0
12, 139680, Note_on_c, 9, 36, 127
12, 139680, Note_on_c, 9, 39, 127
12, 139680, Note_on_c, 9, 40, 127
12, 139680, Note_on_c, 9, 42, 109
12, 139695, Note_on_c, 9, 36, 0
12, 139695, Note_on_c, 9, 39, 0
12, 139695, Note_on_c, 9, 40, 0
12, 139695, Note_on_c, 9, 42, 0
12, 139920, Note_on_c, 9, 42, 95
12, 139935, Note_on_c, 9, 42, 0
12, 140040, Note_on_c, 9, 42, 115
12, 140055, Note_on_c, 9, 42, 0
12, 140160, Note_on_c, 9, 36, 127
12, 140175, Note_on_c, 9, 36, 0
12, 140280, Note_on_c, 9, 42, 106
12, 140295, Note_on_c, 9, 42, 0
12, 140400, Note_on_c, 9, 42, 120
12, 140415, Note_on_c, 9, 42, 0
12, 140640, Note_on_c, 9, 36, 127
12, 140640, Note_on_c, 9, 39, 127
12, 140640, Note_on_c, 9, 40, 127
12, 140640, Note_on_c, 9, 42, 121
12, 140655, Note_on_c, 9, 36, 0
12, 140655, Note_on_c, 9, 39, 0
12, 140655, Note_on_c, 9, 40, 0
12, 140655, Note_on_c, 9, 42, 0
12, 140880, Note_on_c, 9, 46, 113
12, 140895, Note_on_c, 9, 46, 0
12, 141120, Note_on_c, 9, 36, 127
12, 141120, Note_on_c, 9, 42, 125
12, 141135, Note_on_c, 9, 36, 0
12, 141135, Note_on_c, 9, 42, 0
12, 141360, Note_on_c, 9, 42, 97
12, 141375, Note_on_c, 9, 42, 0
12, 141600, Note_on_c, 9, 36, 127
12, 141600, Note_on_c, 9, 39, 127
12, 141600, Note_on_c, 9, 40, 127
12, 141600, Note_on_c, 9, 42, 120
12, 141615, Note_on_c, 9, 36, 0
12, 141615, Note_on_c, 9, 39, 0
12, 141615, Note_on_c, 9, 40, 0
12, 141615, Note_on_c, 9, 42, 0
12, 141840, Note_on_c, 9, 42, 98
12, 141855, Note_on_c, 9, 42, 0
12, 142080, Note_on_c, 9, 36, 124
12, 142080, Note_on_c, 9, 42, 108
12, 142095, Note_on_c, 9, 36, 0
12, 142095, Note_on_c, 9, 42, 0
12, 142320, Note_on_c, 9, 42, 110
12, 142335, Note_on_c, 9, 42, 0
12, 142560, Note_on_c, 9, 36, 127
12, 142560, Note_on_c, 9, 39, 125
12, 142560, Note_on_c, 9, 40, 127
12, 142560, Note_on_c, 9, 42, 118
12, 142575, Note_on_c, 9, 36, 0
12, 142575, Note_on_c, 9, 39, 0
12, 142575, Note_on_c, 9, 40, 0
12, 142575, Note_on_c, 9, 42, 0
12, 142800, Note_on_c, 9, 46, 112
12, 142815, Note_on_c, 9, 46, 0
12, 143040, Note_on_c, 9, 36, 127
12, 143040, Note_on_c, 9, 42, 109
12, 143055, Note_on_c, 9, 36, 0
12, 143055, Note_on_c, 9, 42, 0
12, 143280, Note_on_c, 9, 42, 108
12, 143295, Note_on_c, 9, 42, 0
12, 143520, Note_on_c, 9, 36, 127
12, 143520, Note_on_c, 9, 39, 127
12, 143520, Note_on_c, 9, 40, 127
12, 143520, Note_on_c, 9, 42, 109
12, 143535, Note_on_c, 9, 36, 0
12, 143535, Note_on_c, 9, 39, 0
12, 143535, Note_on_c, 9, 40, 0
12, 143535, Note_on_c, 9, 42, 0
12, 143760, Note_on_c, 9, 42, 95
12, 143775, Note_on_c, 9, 42, 0
12, 143880, Note_on_c, 9, 42, 115
12, 143895, Note_on_c, 9, 42, 0
12, 144000, Note_on_c, 9, 36, 127
12, 144015, Note_on_c, 9, 36, 0
12, 144120, Note_on_c, 9, 42, 106
12, 144135, Note_on_c, 9, 42, 0
12, 144240, Note_on_c, 9, 42, 120
12, 144255, Note_on_c, 9, 42, 0
12, 144480, Note_on_c, 9, 36, 127
12, 144480, Note_on_c, 9, 39, 127
12, 144480, Note_on_c, 9, 40, 127
12, 144480, Note_on_c, 9, 42, 121
12, 144495, Note_on_c, 9, 36, 0
12, 144495, Note_on_c, 9, 39, 0
12, 144495, Note_on_c, 9, 40, 0
12, 144495, Note_on_c, 9, 42, 0
12, 144720, Note_on_c, 9, 46, 113
12, 144735, Note_on_c, 9, 46, 0
12, 144960, Note_on_c, 9, 36, 127
12, 144960, Note_on_c, 9, 42, 125
12, 144975, Note_on_c, 9, 36, 0
12, 144975, Note_on_c, 9, 42, 0
12, 145200, Note_on_c, 9, 42, 97
12, 145215, Note_on_c, 9, 42, 0
12, 145440, Note_on_c, 9, 36, 127
12, 145440, Note_on_c, 9, 39, 127
12, 145440, Note_on_c, 9, 40, 127
12, 145440, Note_on_c, 9, 42, 120
12, 145455, Note_on_c, 9, 36, 0
12, 145455, Note_on_c, 9, 39, 0
12, 145455, Note_on_c, 9, 40, 0
12, 145455, Note_on_c, 9, 42, 0
12, 145680, Note_on_c, 9, 42, 98
12, 145695, Note_on_c, 9, 42, 0
12, 145920, Note_on_c, 9, 36, 124
12, 145920, Note_on_c, 9, 42, 108
12, 145935, Note_on_c, 9, 36, 0
12, 145935, Note_on_c, 9, 42, 0
12, 146160, Note_on_c, 9, 42, 110
12, 146175, Note_on_c, 9, 42, 0
12, 146400, Note_on_c, 9, 36, 127
12, 146400, Note_on_c, 9, 39, 125
12, 146400, Note_on_c, 9, 40, 127
12, 146400, Note_on_c, 9, 42, 118
12, 146415, Note_on_c, 9, 36, 0
12, 146415, Note_on_c, 9, 39, 0
12, 146415, Note_on_c, 9, 40, 0
12, 146415, Note_on_c, 9, 42, 0
12, 146640, Note_on_c, 9, 46, 112
12, 146655, Note_on_c, 9, 46, 0
12, 146880, Note_on_c, 9, 36, 127
12, 146880, Note_on_c, 9, 42, 109
12, 146895, Note_on_c, 9, 36, 0
12, 146895, Note_on_c, 9, 42, 0
12, 147120, Note_on_c, 9, 42, 108
12, 147135, Note_on_c, 9, 42, 0
12, 147360, Note_on_c, 9, 36, 127
12, 147360, Note_on_c, 9, 39, 127
12, 147360, Note_on_c, 9, 40, 127
12, 147360, Note_on_c, 9, 42, 109
12, 147375, Note_on_c, 9, 36, 0
12, 147375, Note_on_c, 9, 39, 0
12, 147375, Note_on_c, 9, 40, 0
12, 147375, Note_on_c, 9, 42, 0
12, 147600, Note_on_c, 9, 42, 95
12, 147615, Note_on_c, 9, 42, 0
12, 147720, Note_on_c, 9, 42, 115
12, 147735, Note_on_c, 9, 42, 0
12, 147840, Note_on_c, 9, 36, 127
12, 147855, Note_on_c, 9, 36, 0
12, 147960, Note_on_c, 9, 42, 106
12, 147975, Note_on_c, 9, 42, 0
12, 148080, Note_on_c, 9, 42, 120
12, 148095, Note_on_c, 9, 42, 0
12, 148320, Note_on_c, 9, 36, 127
12, 148320, Note_on_c, 9, 39, 127
12, 148320, Note_on_c, 9, 40, 127
12, 148320, Note_on_c, 9, 42, 121
12, 148335, Note_on_c, 9, 36, 0
12, 148335, Note_on_c, 9, 39, 0
12, 148335, Note_on_c, 9, 40, 0
12, 148335, Note_on_c, 9, 42, 0
12, 148560, Note_on_c, 9, 46, 113
12, 148575, Note_on_c, 9, 46, 0
12, 148800, Note_on_c, 9, 36, 127
12, 148800, Note_on_c, 9, 42, 125
12, 148815, Note_on_c, 9, 36, 0
12, 148815, Note_on_c, 9, 42, 0
12, 149040, Note_on_c, 9, 42, 97
12, 149055, Note_on_c, 9, 42, 0
12, 149280, Note_on_c, 9, 36, 127
12, 149280, Note_on_c, 9, 39, 127
12, 149280, Note_on_c, 9, 40, 127
12, 149280, Note_on_c, 9, 42, 120
12, 149295, Note_on_c, 9, 36, 0
12, 149295, Note_on_c, 9, 39, 0
12, 149295, Note_on_c, 9, 40, 0
12, 149295, Note_on_c, 9, 42, 0
12, 149520, Note_on_c, 9, 42, 98
12, 149535, Note_on_c, 9, 42, 0
12, 149760, Note_on_c, 9, 36, 124
12, 149760, Note_on_c, 9, 42, 108
12, 149775, Note_on_c, 9, 36, 0
12, 149775, Note_on_c, 9, 42, 0
12, 150000, Note_on_c, 9, 42, 110
12, 150015, Note_on_c, 9, 42, 0
12, 150240, Note_on_c, 9, 36, 127
12, 150240, Note_on_c, 9, 39, 125
12, 150240, Note_on_c, 9, 40, 127
12, 150240, Note_on_c, 9, 42, 118
12, 150255, Note_on_c, 9, 36, 0
12, 150255, Note_on_c, 9, 39, 0
12, 150255, Note_on_c, 9, 40, 0
12, 150255, Note_on_c, 9, 42, 0
12, 150480, Note_on_c, 9, 46, 112
12, 150495, Note_on_c, 9, 46, 0
12, 150720, Note_on_c, 9, 36, 127
12, 150720, Note_on_c, 9, 42, 109
12, 150735, Note_on_c, 9, 36, 0
12, 150735, Note_on_c, 9, 42, 0
12, 150960, Note_on_c, 9, 42, 108
12, 150975, Note_on_c, 9, 42, 0
12, 151200, Note_on_c, 9, 36, 127
12, 151200, Note_on_c, 9, 39, 127
12, 151200, Note_on_c, 9, 40, 127
12, 151200, Note_on_c, 9, 42, 109
12, 151215, Note_on_c, 9, 36, 0
12, 151215, Note_on_c, 9, 39, 0
12, 151215, Note_on_c, 9, 40, 0
12, 151215, Note_on_c, 9, 42, 0
12, 151440, Note_on_c, 9, 42, 95
12, 151455, Note_on_c, 9, 42, 0
12, 151560, Note_on_c, 9, 42, 115
12, 151575, Note_on_c, 9, 42, 0
12, 151680, Note_on_c, 9, 36, 127
12, 151695, Note_on_c, 9, 36, 0
12, 151800, Note_on_c, 9, 42, 106
12, 151815, Note_on_c, 9, 42, 0
12, 151920, Note_on_c, 9, 42, 120
12, 151935, Note_on_c, 9, 42, 0
12, 152160, Note_on_c, 9, 36, 127
12, 152160, Note_on_c, 9, 39, 127
12, 152160, Note_on_c, 9, 40, 127
12, 152160, Note_on_c, 9, 42, 121
12, 152175, Note_on_c, 9, 36, 0
12, 152175, Note_on_c, 9, 39, 0
12, 152175, Note_on_c, 9, 40, 0
12, 152175, Note_on_c, 9, 42, 0
12, 152400, Note_on_c, 9, 46, 113
12, 152415, Note_on_c, 9, 46, 0
12, 152640, Note_on_c, 9, 36, 127
12, 152640, Note_on_c, 9, 42, 125
12, 152655, Note_on_c, 9, 36, 0
12, 152655, Note_on_c, 9, 42, 0
12, 152880, Note_on_c, 9, 42, 97
12, 152895, Note_on_c, 9, 42, 0
12, 153120, Note_on_c, 9, 36, 127
12, 153120, Note_on_c, 9, 39, 127
12, 153120, Note_on_c, 9, 40, 127
12, 153120, Note_on_c, 9, 42, 120
12, 153135, Note_on_c, 9, 36, 0
12, 153135, Note_on_c, 9, 39, 0
12, 153135, Note_on_c, 9, 40, 0
12, 153135, Note_on_c, 9, 42, 0
12, 153360, Note_on_c, 9, 42, 98
12, 153375, Note_on_c, 9, 42, 0
12, 153600, Note_on_c, 9, 36, 124
12, 153600, Note_on_c, 9, 42, 108
12, 153615, Note_on_c, 9, 36, 0
12, 153615, Note_on_c, 9, 42, 0
12, 153840, Note_on_c, 9, 42, 110
12, 153855, Note_on_c, 9, 42, 0
12, 154080, Note_on_c, 9, 36, 127
12, 154080, Note_on_c, 9, 39, 125
12, 154080, Note_on_c, 9, 40, 127
12, 154080, Note_on_c, 9, 42, 118
12, 154095, Note_on_c, 9, 36, 0
12, 154095, Note_on_c, 9, 39, 0
12, 154095, Note_on_c, 9, 40, 0
12, 154095, Note_on_c, 9, 42, 0
12, 154320, Note_on_c, 9, 46, 112
12, 154335, Note_on_c, 9, 46, 0
12, 154560, Note_on_c, 9, 36, 127
12, 154560, Note_on_c, 9, 42, 109
12, 154575, Note_on_c, 9, 36, 0
12, 154575, Note_on_c, 9, 42, 0
12, 154800, Note_on_c, 9, 42, 108
12, 154815, Note_on_c, 9, 42, 0
12, 155040, Note_on_c, 9, 36, 127
12, 155040, Note_on_c, 9, 39, 127
12, 155040, Note_on_c, 9, 40, 127
12, 155040, Note_on_c, 9, 42, 109
12, 155055, Note_on_c, 9, 36, 0
12, 155055, Note_on_c, 9, 39, 0
12, 155055, Note_on_c, 9, 40, 0
12, 155055, Note_on_c, 9, 42, 0
12, 155280, Note_on_c, 9, 42, 95
12, 155295, Note_on_c, 9, 42, 0
12, 155400, Note_on_c, 9, 42, 115
12, 155415, Note_on_c, 9, 42, 0
12, 155520, Note_on_c, 9, 36, 127
12, 155535, Note_on_c, 9, 36, 0
12, 155640, Note_on_c, 9, 42, 106
12, 155655, Note_on_c, 9, 42, 0
12, 155760, Note_on_c, 9, 42, 120
12, 155775, Note_on_c, 9, 42, 0
12, 156000, Note_on_c, 9, 36, 127
12, 156000, Note_on_c, 9, 39, 127
12, 156000, Note_on_c, 9, 40, 127
12, 156000, Note_on_c, 9, 42, 121
12, 156015, Note_on_c, 9, 36, 0
12, 156015, Note_on_c, 9, 39, 0
12, 156015, Note_on_c, 9, 40, 0
12, 156015, Note_on_c, 9, 42, 0
12, 156240, Note_on_c, 9, 46, 113
12, 156255, Note_on_c, 9, 46, 0
12, 156480, Note_on_c, 9, 36, 127
12, 156480, Note_on_c, 9, 42, 125
12, 156495, Note_on_c, 9, 36, 0
12, 156495, Note_on_c, 9, 42, 0
12, 156720, Note_on_c, 9, 42, 97
12, 156735, Note_on_c, 9, 42, 0
12, 156960, Note_on_c, 9, 36, 127
12, 156960, Note_on_c, 9, 39, 127
12, 156960, Note_on_c, 9, 40, 127
12, 156960, Note_on_c, 9, 42, 120
12, 156975, Note_on_c, 9, 36, 0
12, 156975, Note_on_c, 9, 39, 0
12, 156975, Note_on_c, 9, 40, 0
12, 156975, Note_on_c, 9, 42, 0
12, 157200, Note_on_c, 9, 42, 98
12, 157215, Note_on_c, 9, 42, 0
12, 157440, Note_on_c, 9, 36, 124
12, 157440, Note_on_c, 9, 42, 108
12, 157455, Note_on_c, 9, 36, 0
12, 157455, Note_on_c, 9, 42, 0
12, 157680, Note_on_c, 9, 42, 110
12, 157695, Note_on_c, 9, 42, 0
12, 157920, Note_on_c, 9, 36, 127
12, 157920, Note_on_c, 9, 39, 125
12, 157920, Note_on_c, 9, 40, 127
12, 157920, Note_on_c, 9, 42, 118
12, 157935, Note_on_c, 9, 36, 0
12, 157935, Note_on_c, 9, 39, 0
12, 157935, Note_on_c, 9, 40, 0
12, 157935, Note_on_c, 9, 42, 0
12, 158160, Note_on_c, 9, 46, 112
12, 158175, Note_on_c, 9, 46, 0
12, 158400, Note_on_c, 9, 36, 127
12, 158400, Note_on_c, 9, 42, 109
12, 158415, Note_on_c, 9, 36, 0
12, 158415, Note_on_c, 9, 42, 0
12, 158640, Note_on_c, 9, 42, 108
12, 158655, Note_on_c, 9, 42, 0
12, 158880, Note_on_c, 9, 36, 127
12, 158880, Note_on_c, 9, 39, 127
12, 158880, Note_on_c, 9, 40, 127
12, 158880, Note_on_c, 9, 42, 109
12, 158895, Note_on_c, 9, 36, 0
12, 158895, Note_on_c, 9, 39, 0
12, 158895, Note_on_c, 9, 40, 0
12, 158895, Note_on_c, 9, 42, 0
12, 159120, Note_on_c, 9, 42, 95
12, 159135, Note_on_c, 9, 42, 0
12, 159240, Note_on_c, 9, 42, 115
12, 159255, Note_on_c, 9, 42, 0
12, 159360, Note_on_c, 9, 36, 127
12, 159375, Note_on_c, 9, 36, 0
12, 159480, Note_on_c, 9, 42, 106
12, 159495, Note_on_c, 9, 42, 0
12, 159600, Note_on_c, 9, 42, 120
12, 159615, Note_on_c, 9, 42, 0
12, 159840, Note_on_c, 9, 36, 127
12, 159840, Note_on_c, 9, 39, 127
12, 159840, Note_on_c, 9, 40, 127
12, 159840, Note_on_c, 9, 42, 121
12, 159855, Note_on_c, 9, 36, 0
12, 159855, Note_on_c, 9, 39, 0
12, 159855, Note_on_c, 9, 40, 0
12, 159855, Note_on_c, 9, 42, 0
12, 160080, Note_on_c, 9, 46, 113
12, 160095, Note_on_c, 9, 46, 0
12, 160320, Note_on_c, 9, 36, 127
12, 160320, Note_on_c, 9, 42, 125
12, 160335, Note_on_c, 9, 36, 0
12, 160335, Note_on_c, 9, 42, 0
12, 160560, Note_on_c, 9, 42, 97
12, 160575, Note_on_c, 9, 42, 0
12, 160800, Note_on_c, 9, 36, 127
12, 160800, Note_on_c, 9, 39, 127
12, 160800, Note_on_c, 9, 40, 127
12, 160800, Note_on_c, 9, 42, 120
12, 160815, Note_on_c, 9, 36, 0
12, 160815, Note_on_c, 9, 39, 0
12, 160815, Note_on_c, 9, 40, 0
12, 160815, Note_on_c, 9, 42, 0
12, 161040, Note_on_c, 9, 42, 98
12, 161055, Note_on_c, 9, 42, 0
12, 161280, Note_on_c, 9, 36, 124
12, 161280, Note_on_c, 9, 42, 108
12, 161295, Note_on_c, 9, 36, 0
12, 161295, Note_on_c, 9, 42, 0
12, 161520, Note_on_c, 9, 42, 110
12, 161535, Note_on_c, 9, 42, 0
12, 161760, Note_on_c, 9, 36, 127
12, 161760, Note_on_c, 9, 39, 125
12, 161760, Note_on_c, 9, 40, 127
12, 161760, Note_on_c, 9, 42, 118
12, 161775, Note_on_c, 9, 36, 0
12, 161775, Note_on_c, 9, 39, 0
12, 161775, Note_on_c, 9, 40, 0
12, 161775, Note_on_c, 9, 42, 0
12, 162000, Note_on_c, 9, 46, 112
12, 162015, Note_on_c, 9, 46, 0
12, 162240, Note_on_c, 9, 36, 127
12, 162240, Note_on_c, 9, 42, 109
12, 162255, Note_on_c, 9, 36, 0
12, 162255, Note_on_c, 9, 42, 0
12, 162480, Note_on_c, 9, 42, 108
12, 162495, Note_on_c, 9, 42, 0
12, 162720, Note_on_c, 9, 36, 127
12, 162720, Note_on_c, 9, 39, 127
12, 162720, Note_on_c, 9, 40, 127
12, 162720, Note_on_c, 9, 42, 109
12, 162735, Note_on_c, 9, 36, 0
12, 162735, Note_on_c, 9, 39, 0
12, 162735, Note_on_c, 9, 40, 0
12, 162735, Note_on_c, 9, 42, 0
12, 162960, Note_on_c, 9, 42, 95
12, 162975, Note_on_c, 9, 42, 0
12, 163080, Note_on_c, 9, 42, 115
12, 163095, Note_on_c, 9, 42, 0
12, 163200, Note_on_c, 9, 36, 127
12, 163215, Note_on_c, 9, 36, 0
12, 163320, Note_on_c, 9, 42, 106
12, 163335, Note_on_c, 9, 42, 0
12, 163440, Note_on_c, 9, 42, 120
12, 163455, Note_on_c, 9, 42, 0
12, 163680, Note_on_c, 9, 36, 127
12, 163680, Note_on_c, 9, 39, 127
12, 163680, Note_on_c, 9, 40, 127
12, 163680, Note_on_c, 9, 42, 121
12, 163695, Note_on_c, 9, 36, 0
12, 163695, Note_on_c, 9, 39, 0
12, 163695, Note_on_c, 9, 40, 0
12, 163695, Note_on_c, 9, 42, 0
12, 163920, Note_on_c, 9, 46, 113
12, 163935, Note_on_c, 9, 46, 0
12, 164160, Note_on_c, 9, 36, 127
12, 164160, Note_on_c, 9, 42, 125
12, 164175, Note_on_c, 9, 36, 0
12, 164175, Note_on_c, 9, 42, 0
12, 164400, Note_on_c, 9, 42, 97
12, 164415, Note_on_c, 9, 42, 0
12, 164640, Note_on_c, 9, 36, 127
12, 164640, Note_on_c, 9, 39, 127
12, 164640, Note_on_c, 9, 40, 127
12, 164640, Note_on_c, 9, 42, 120
12, 164655, Note_on_c, 9, 36, 0
12, 164655, Note_on_c, 9, 39, 0
12, 164655, Note_on_c, 9, 40, 0
12, 164655, Note_on_c, 9, 42, 0
12, 164880, Note_on_c, 9, 42, 98
12, 164895, Note_on_c, 9, 42, 0
12, 165120, Note_on_c, 9, 36, 124
12, 165120, Note_on_c, 9, 42, 108
12, 165135, Note_on_c, 9, 36, 0
12, 165135, Note_on_c, 9, 42, 0
12, 165360, Note_on_c, 9, 42, 110
12, 165375, Note_on_c, 9, 42, 0
12, 165600, Note_on_c, 9, 36, 127
12, 165600, Note_on_c, 9, 39, 125
12, 165600, Note_on_c, 9, 40, 127
12, 165600, Note_on_c, 9, 42, 118
12, 165615, Note_on_c, 9, 36, 0
12, 165615, Note_on_c, 9, 39, 0
12, 165615, Note_on_c, 9, 40, 0
12, 165615, Note_on_c, 9, 42, 0
12, 165840, Note_on_c, 9, 46, 112
12, 165855, Note_on_c, 9, 46, 0
12, 166080, Note_on_c, 9, 36, 127
12, 166080, Note_on_c, 9, 42, 109
12, 166095, Note_on_c, 9, 36, 0
12, 166095, Note_on_c, 9, 42, 0
12, 166320, Note_on_c, 9, 42, 108
12, 166335, Note_on_c, 9, 42, 0
12, 166560, Note_on_c, 9, 36, 127
12, 166560, Note_on_c, 9, 39, 127
12, 166560, Note_on_c, 9, 40, 127
12, 166560, Note_on_c, 9, 42, 109
12, 166575, Note_on_c, 9, 36, 0
12, 166575, Note_on_c, 9, 39, 0
12, 166575, Note_on_c, 9, 40, 0
12, 166575, Note_on_c, 9, 42, 0
12, 166800, Note_on_c, 9, 42, 95
12, 166815, Note_on_c, 9, 42, 0
12, 166920, Note_on_c, 9, 42, 115
12, 166935, Note_on_c, 9, 42, 0
12, 167040, Note_on_c, 9, 36, 127
12, 167055, Note_on_c, 9, 36, 0
12, 167160, Note_on_c, 9, 42, 106
12, 167175, Note_on_c, 9, 42, 0
12, 167280, Note_on_c, 9, 42, 120
12, 167295, Note_on_c, 9, 42, 0
12, 167520, Note_on_c, 9, 36, 127
12, 167520, Note_on_c, 9, 39, 127
12, 167520, Note_on_c, 9, 40, 127
12, 167520, Note_on_c, 9, 42, 121
12, 167535, Note_on_c, 9, 36, 0
12, 167535, Note_on_c, 9, 39, 0
12, 167535, Note_on_c, 9, 40, 0
12, 167535, Note_on_c, 9, 42, 0
12, 167760, Note_on_c, 9, 46, 113
12, 167775, Note_on_c, 9, 46, 0
12, 168000, Note_on_c, 9, 36, 127
12, 168000, Note_on_c, 9, 42, 125
12, 168015, Note_on_c, 9, 36, 0
12, 168015, Note_on_c, 9, 42, 0
12, 168240, Note_on_c, 9, 42, 97
12, 168255, Note_on_c, 9, 42, 0
12, 168480, Note_on_c, 9, 36, 127
12, 168480, Note_on_c, 9, 39, 127
12, 168480, Note_on_c, 9, 40, 127
12, 168480, Note_on_c, 9, 42, 120
12, 168495, Note_on_c, 9, 36, 0
12, 168495, Note_on_c, 9, 39, 0
12, 168495, Note_on_c, 9, 40, 0
12, 168495, Note_on_c, 9, 42, 0
12, 168720, Note_on_c, 9, 42, 98
12, 168735, Note_on_c, 9, 42, 0
12, 168960, Note_on_c, 9, 36, 124
12, 168960, Note_on_c, 9, 42, 108
12, 168975, Note_on_c, 9, 36, 0
12, 168975, Note_on_c, 9, 42, 0
12, 169200, Note_on_c, 9, 42, 110
12, 169215, Note_on_c, 9, 42, 0
12, 169440, Note_on_c, 9, 36, 127
12, 169440, Note_on_c, 9, 39, 125
12, 169440, Note_on_c, 9, 40, 127
12, 169440, Note_on_c, 9, 42, 118
12, 169455, Note_on_c, 9, 36, 0
12, 169455, Note_on_c, 9, 39, 0
12, 169455, Note_on_c, 9, 40, 0
12, 169455, Note_on_c, 9, 42, 0
12, 169680, Note_on_c, 9, 46, 112
12, 169695, Note_on_c, 9, 46, 0
12, 169920, Note_on_c, 9, 36, 127
12, 169920, Note_on_c, 9, 42, 109
12, 169935, Note_on_c, 9, 36, 0
12, 169935, Note_on_c, 9, 42, 0
12, 170160, Note_on_c, 9, 42, 108
12, 170175, Note_on_c, 9, 42, 0
12, 170400, Note_on_c, 9, 36, 127
12, 170400, Note_on_c, 9, 39, 127
12, 170400, Note_on_c, 9, 40, 127
12, 170400, Note_on_c, 9, 42, 109
12, 170415, Note_on_c, 9, 36, 0
12, 170415, Note_on_c, 9, 39, 0
12, 170415, Note_on_c, 9, 40, 0
12, 170415, Note_on_c, 9, 42, 0
12, 170640, Note_on_c, 9, 42, 95
12, 170655, Note_on_c, 9, 42, 0
12, 170760, Note_on_c, 9, 42, 115
12, 170775, Note_on_c, 9, 42, 0
12, 170880, Note_on_c, 9, 36, 127
12, 170895, Note_on_c, 9, 36, 0
12, 171000, Note_on_c, 9, 42, 106
12, 171015, Note_on_c, 9, 42, 0
12, 171120, Note_on_c, 9, 42, 120
12, 171135, Note_on_c, 9, 42, 0
12, 171360, Note_on_c, 9, 36, 127
12, 171360, Note_on_c, 9, 39, 127
12, 171360, Note_on_c, 9, 40, 127
12, 171360, Note_on_c, 9, 42, 121
12, 171375, Note_on_c, 9, 36, 0
12, 171375, Note_on_c, 9, 39, 0
12, 171375, Note_on_c, 9, 40, 0
12, 171375, Note_on_c, 9, 42, 0
12, 171600, Note_on_c, 9, 46, 113
12, 171615, Note_on_c, 9, 46, 0
12, 171840, Note_on_c, 9, 36, 127
12, 171840, Note_on_c, 9, 42, 125
12, 171855, Note_on_c, 9, 36, 0
12, 171855, Note_on_c, 9, 42, 0
12, 172080, Note_on_c, 9, 42, 97
12, 172095, Note_on_c, 9, 42, 0
12, 172320, Note_on_c, 9, 36, 127
12, 172320, Note_on_c, 9, 39, 127
12, 172320, Note_on_c, 9, 40, 127
12, 172320, Note_on_c, 9, 42, 120
12, 172335, Note_on_c, 9, 36, 0
12, 172335, Note_on_c, 9, 39, 0
12, 172335, Note_on_c, 9, 40, 0
12, 172335, Note_on_c, 9, 42, 0
12, 172560, Note_on_c, 9, 42, 98
12, 172575, Note_on_c, 9, 42, 0
12, 172800, Note_on_c, 9, 36, 124
12, 172800, Note_on_c, 9, 42, 108
12, 172815, Note_on_c, 9, 36, 0
12, 172815, Note_on_c, 9, 42, 0
12, 173040, Note_on_c, 9, 42, 110
12, 173055, Note_on_c, 9, 42, 0
12, 173280, Note_on_c, 9, 36, 127
12, 173280, Note_on_c, 9, 39, 125
12, 173280, Note_on_c, 9, 40, 127
12, 173280, Note_on_c, 9, 42, 118
12, 173295, Note_on_c, 9, 36, 0
12, 173295, Note_on_c, 9, 39, 0
12, 173295, Note_on_c, 9, 40, 0
12, 173295, Note_on_c, 9, 42, 0
12, 173520, Note_on_c, 9, 46, 112
12, 173535, Note_on_c, 9, 46, 0
12, 173760, Note_on_c, 9, 36, 127
12, 173760, Note_on_c, 9, 42, 109
12, 173775, Note_on_c, 9, 36, 0
12, 173775, Note_on_c, 9, 42, 0
12, 174000, Note_on_c, 9, 42, 108
12, 174015, Note_on_c, 9, 42, 0
12, 174240, Note_on_c, 9, 36, 127
12, 174240, Note_on_c, 9, 39, 127
12, 174240, Note_on_c, 9, 40, 127
12, 174240, Note_on_c, 9, 42, 109
12, 174255, Note_on_c, 9, 36, 0
12, 174255, Note_on_c, 9, 39, 0
12, 174255, Note_on_c, 9, 40, 0
12, 174255, Note_on_c, 9, 42, 0
12, 174480, Note_on_c, 9, 42, 95
12, 174495, Note_on_c, 9, 42, 0
12, 174600, Note_on_c, 9, 42, 115
12, 174615, Note_on_c, 9, 42, 0
12, 174720, Note_on_c, 9, 36, 127
12, 174735, Note_on_c, 9, 36, 0
12, 174840, Note_on_c, 9, 42, 106
12, 174855, Note_on_c, 9, 42, 0
12, 174960, Note_on_c, 9, 42, 120
12, 174975, Note_on_c, 9, 42, 0
12, 175200, Note_on_c, 9, 36, 127
12, 175200, Note_on_c, 9, 39, 127
12, 175200, Note_on_c, 9, 40, 127
12, 175200, Note_on_c, 9, 42, 121
12, 175215, Note_on_c, 9, 36, 0
12, 175215, Note_on_c, 9, 39, 0
12, 175215, Note_on_c, 9, 40, 0
12, 175215, Note_on_c, 9, 42, 0
12, 175440, Note_on_c, 9, 46, 113
12, 175455, Note_on_c, 9, 46, 0
12, 175680, Note_on_c, 9, 36, 127
12, 175680, Note_on_c, 9, 42, 125
12, 175695, Note_on_c, 9, 36, 0
12, 175695, Note_on_c, 9, 42, 0
12, 175920, Note_on_c, 9, 42, 97
12, 175935, Note_on_c, 9, 42, 0
12, 176160, Note_on_c, 9, 36, 127
12, 176160, Note_on_c, 9, 39, 127
12, 176160, Note_on_c, 9, 40, 127
12, 176160, Note_on_c, 9, 42, 120
12, 176175, Note_on_c, 9, 36, 0
12, 176175, Note_on_c, 9, 39, 0
12, 176175, Note_on_c, 9, 40, 0
12, 176175, Note_on_c, 9, 42, 0
12, 176400, Note_on_c, 9, 42, 98
12, 176415, Note_on_c, 9, 42, 0
12, 176640, Note_on_c, 9, 36, 124
12, 176640, Note_on_c, 9, 42, 108
12, 176655, Note_on_c, 9, 36, 0
12, 176655, Note_on_c, 9, 42, 0
12, 176880, Note_on_c, 9, 42, 110
12, 176895, Note_on_c, 9, 42, 0
12, 177120, Note_on_c, 9, 36, 127
12, 177120, Note_on_c, 9, 39, 125
12, 177120, Note_on_c, 9, 40, 127
12, 177120, Note_on_c, 9, 42, 118
12, 177135, Note_on_c, 9, 36, 0
12, 177135, Note_on_c, 9, 39, 0
12, 177135, Note_on_c, 9, 40, 0
12, 177135, Note_on_c, 9, 42, 0
12, 177360, Note_on_c, 9, 46, 112
12, 177375, Note_on_c, 9, 46, 0
12, 177600, Note_on_c, 9, 36, 127
12, 177600, Note_on_c, 9, 42, 109
12, 177615, Note_on_c, 9, 36, 0
12, 177615, Note_on_c, 9, 42, 0
12, 177840, Note_on_c, 9, 42, 108
12, 177855, Note_on_c, 9, 42, 0
12, 178080, Note_on_c, 9, 36, 127
12, 178080, Note_on_c, 9, 39, 127
12, 178080, Note_on_c, 9, 40, 127
12, 178080, Note_on_c, 9, 42, 109
12, 178095, Note_on_c, 9, 36, 0
12, 178095, Note_on_c, 9, 39, 0
12, 178095, Note_on_c, 9, 40, 0
12, 178095, Note_on_c, 9, 42, 0
12, 178320, Note_on_c, 9, 42, 95
12, 178335, Note_on_c, 9, 42, 0
12, 178440, Note_on_c, 9, 42, 115
12, 178455, Note_on_c, 9, 42, 0
12, 178560, Note_on_c, 9, 36, 127
12, 178575, Note_on_c, 9, 36, 0
12, 178680, Note_on_c, 9, 42, 106
12, 178695, Note_on_c, 9, 42, 0
12, 178800, Note_on_c, 9, 42, 120
12, 178815, Note_on_c, 9, 42, 0
12, 179040, Note_on_c, 9, 36, 127
12, 179040, Note_on_c, 9, 39, 127
12, 179040, Note_on_c, 9, 40, 127
12, 179040, Note_on_c, 9, 42, 121
12, 179055, Note_on_c, 9, 36, 0
12, 179055, Note_on_c, 9, 39, 0
12, 179055, Note_on_c, 9, 40, 0
12, 179055, Note_on_c, 9, 42, 0
12, 179280, Note_on_c, 9, 46, 113
12, 179295, Note_on_c, 9, 46, 0
12, 179520, Note_on_c, 9, 36, 127
12, 179520, Note_on_c, 9, 42, 125
12, 179535, Note_on_c, 9, 36, 0
12, 179535, Note_on_c, 9, 42, 0
12, 179760, Note_on_c, 9, 42, 97
12, 179775, Note_on_c, 9, 42, 0
12, 180000, Note_on_c, 9, 36, 127
12, 180000, Note_on_c, 9, 39, 127
12, 180000, Note_on_c, 9, 40, 127
12, 180000, Note_on_c, 9, 42, 120
12, 180015, Note_on_c, 9, 36, 0
12, 180015, Note_on_c, 9, 39, 0
12, 180015, Note_on_c, 9, 40, 0
12, 180015, Note_on_c, 9, 42, 0
12, 180240, Note_on_c, 9, 42, 98
12, 180255, Note_on_c, 9, 42, 0
12, 180480, Note_on_c, 9, 36, 124
12, 180480, Note_on_c, 9, 42, 108
12, 180495, Note_on_c, 9, 36, 0
12, 180495, Note_on_c, 9, 42, 0
12, 180720, Note_on_c, 9, 42, 110
12, 180735, Note_on_c, 9, 42, 0
12, 180960, Note_on_c, 9, 36, 127
12, 180960, Note_on_c, 9, 39, 125
12, 180960, Note_on_c, 9, 40, 127
12, 180960, Note_on_c, 9, 42, 118
12, 180975, Note_on_c, 9, 36, 0
12, 180975, Note_on_c, 9, 39, 0
12, 180975, Note_on_c, 9, 40, 0
12, 180975, Note_on_c, 9, 42, 0
12, 181200, Note_on_c, 9, 46, 112
12, 181215, Note_on_c, 9, 46, 0
12, 181440, Note_on_c, 9, 36, 127
12, 181440, Note_on_c, 9, 42, 109
12, 181455, Note_on_c, 9, 36, 0
12, 181455, Note_on_c, 9, 42, 0
12, 181680, Note_on_c, 9, 42, 108
12, 181695, Note_on_c, 9, 42, 0
12, 181920, Note_on_c, 9, 36, 127
12, 181920, Note_on_c, 9, 39, 127
12, 181920, Note_on_c, 9, 40, 127
12, 181920, Note_on_c, 9, 42, 109
12, 181935, Note_on_c, 9, 36, 0
12, 181935, Note_on_c, 9, 39, 0
12, 181935, Note_on_c, 9, 40, 0
12, 181935, Note_on_c, 9, 42, 0
12, 182160, Note_on_c, 9, 42, 95
12, 182175, Note_on_c, 9, 42, 0
12, 182280, Note_on_c, 9, 42, 115
12, 182295, Note_on_c, 9, 42, 0
12, 182400, Note_on_c, 9, 36, 127
12, 182415, Note_on_c, 9, 36, 0
12, 182520, Note_on_c, 9, 42, 106
12, 182535, Note_on_c, 9, 42, 0
12, 182640, Note_on_c, 9, 42, 120
12, 182655, Note_on_c, 9, 42, 0
12, 182880, Note_on_c, 9, 36, 127
12, 182880, Note_on_c, 9, 39, 127
12, 182880, Note_on_c, 9, 40, 127
12, 182880, Note_on_c, 9, 42, 121
12, 182895, Note_on_c, 9, 36, 0
12, 182895, Note_on_c, 9, 39, 0
12, 182895, Note_on_c, 9, 40, 0
12, 182895, Note_on_c, 9, 42, 0
12, 183120, Note_on_c, 9, 46, 113
12, 183135, Note_on_c, 9, 46, 0
12, 183360, Note_on_c, 9, 36, 127
12, 183360, Note_on_c, 9, 42, 125
12, 183375, Note_on_c, 9, 36, 0
12, 183375, Note_on_c, 9, 42, 0
12, 183600, Note_on_c, 9, 42, 97
12, 183615, Note_on_c, 9, 42, 0
12, 183840, Note_on_c, 9, 36, 127
12, 183840, Note_on_c, 9, 39, 127
12, 183840, Note_on_c, 9, 40, 127
12, 183840, Note_on_c, 9, 42, 120
12, 183855, Note_on_c, 9, 36, 0
12, 183855, Note_on_c, 9, 39, 0
12, 183855, Note_on_c, 9, 40, 0
12, 183855, Note_on_c, 9, 42, 0
12, 184080, Note_on_c, 9, 42, 98
12, 184095, Note_on_c, 9, 42, 0
12, 184320, Note_on_c, 9, 36, 124
12, 184320, Note_on_c, 9, 42, 108
12, 184335, Note_on_c, 9, 36, 0
12, 184335, Note_on_c, 9, 42, 0
12, 184560, Note_on_c, 9, 42, 110
12, 184575, Note_on_c, 9, 42, 0
12, 184800, Note_on_c, 9, 36, 127
12, 184800, Note_on_c, 9, 39, 125
12, 184800, Note_on_c, 9, 40, 127
12, 184800, Note_on_c, 9, 42, 118
12, 184815, Note_on_c, 9, 36, 0
12, 184815, Note_on_c, 9, 39, 0
12, 184815, Note_on_c, 9, 40, 0
12, 184815, Note_on_c, 9, 42, 0
12, 185040, Note_on_c, 9, 46, 112
12, 185055, Note_on_c, 9, 46, 0
12, 185280, Note_on_c, 9, 36, 127
12, 185280, Note_on_c, 9, 42, 109
12, 185295, Note_on_c, 9, 36, 0
12, 185295, Note_on_c, 9, 42, 0
12, 185520, Note_on_c, 9, 42, 108
12, 185535, Note_on_c, 9, 42, 0
12, 185760, Note_on_c, 9, 36, 127
12, 185760, Note_on_c, 9, 39, 127
12, 185760, Note_on_c, 9, 40, 127
12, 185760, Note_on_c, 9, 42, 109
12, 185775, Note_on_c, 9, 36, 0
12, 185775, Note_on_c, 9, 39, 0
12, 185775, Note_on_c, 9, 40, 0
12, 185775, Note_on_c, 9, 42, 0
12, 186000, Note_on_c, 9, 42, 95
12, 186015, Note_on_c, 9, 42, 0
12, 186120, Note_on_c, 9, 42, 115
12, 186135, Note_on_c, 9, 42, 0
12, 186240, Note_on_c, 9, 36, 127
12, 186255, Note_on_c, 9, 36, 0
12, 186360, Note_on_c, 9, 42, 106
12, 186375, Note_on_c, 9, 42, 0
12, 186480, Note_on_c, 9, 42, 120
12, 186495, Note_on_c, 9, 42, 0
12, 186720, Note_on_c, 9, 36, 127
12, 186720, Note_on_c, 9, 39, 127
12, 186720, Note_on_c, 9, 40, 127
12, 186720, Note_on_c, 9, 42, 121
12, 186735, Note_on_c, 9, 36, 0
12, 186735, Note_on_c, 9, 39, 0
12, 186735, Note_on_c, 9, 40, 0
12, 186735, Note_on_c, 9, 42, 0
12, 186960, Note_on_c, 9, 46, 113
12, 186975, Note_on_c, 9, 46, 0
12, 187200, Note_on_c, 9, 36, 127
12, 187200, Note_on_c, 9, 42, 125
12, 187215, Note_on_c, 9, 36, 0
12, 187215, Note_on_c, 9, 42, 0
12, 187440, Note_on_c, 9, 42, 97
12, 187455, Note_on_c, 9, 42, 0
12, 187680, Note_on_c, 9, 36, 127
12, 187680, Note_on_c, 9, 39, 127
12, 187680, Note_on_c, 9, 40, 127
12, 187680, Note_on_c, 9, 42, 120
12, 187695, Note_on_c, 9, 36, 0
12, 187695, Note_on_c, 9, 39, 0
12, 187695, Note_on_c, 9, 40, 0
12, 187695, Note_on_c, 9, 42, 0
12, 187920, Note_on_c, 9, 42, 98
12, 187935, Note_on_c, 9, 42, 0
12, 188160, Note_on_c, 9, 36, 124
12, 188160, Note_on_c, 9, 42, 108
12, 188175, Note_on_c, 9, 36, 0
12, 188175, Note_on_c, 9, 42, 0
12, 188400, Note_on_c, 9, 42, 110
12, 188415, Note_on_c, 9, 42, 0
12, 188640, Note_on_c, 9, 36, 127
12, 188640, Note_on_c, 9, 39, 125
12, 188640, Note_on_c, 9, 40, 127
12, 188640, Note_on_c, 9, 42, 118
12, 188655, Note_on_c, 9, 36, 0
12, 188655, Note_on_c, 9, 39, 0
12, 188655, Note_on_c, 9, 40, 0
12, 188655, Note_on_c, 9, 42, 0
12, 188880, Note_on_c, 9, 46, 112
12, 188895, Note_on_c, 9, 46, 0
12, 189120, Note_on_c, 9, 36, 127
12, 189120, Note_on_c, 9, 42, 109
12, 189135, Note_on_c, 9, 36, 0
12, 189135, Note_on_c, 9, 42, 0
12, 189360, Note_on_c, 9, 42, 108
12, 189375, Note_on_c, 9, 42, 0
12, 189600, Note_on_c, 9, 36, 127
12, 189600, Note_on_c, 9, 39, 127
12, 189600, Note_on_c, 9, 40, 127
12, 189600, Note_on_c, 9, 42, 109
12, 189615, Note_on_c, 9, 36, 0
12, 189615, Note_on_c, 9, 39, 0
12, 189615, Note_on_c, 9, 40, 0
12, 189615, Note_on_c, 9, 42, 0
12, 189840, Note_on_c, 9, 42, 95
12, 189855, Note_on_c, 9, 42, 0
12, 189960, Note_on_c, 9, 42, 115
12, 189975, Note_on_c, 9, 42, 0
12, 190080, Note_on_c, 9, 36, 127
12, 190095, Note_on_c, 9, 36, 0
12, 190200, Note_on_c, 9, 42, 106
12, 190215, Note_on_c, 9, 42, 0
12, 190320, Note_on_c, 9, 42, 120
12, 190335, Note_on_c, 9, 42, 0
12, 190560, Note_on_c, 9, 36, 127
12, 190560, Note_on_c, 9, 39, 127
12, 190560, Note_on_c, 9, 40, 127
12, 190560, Note_on_c, 9, 42, 121
12, 190575, Note_on_c, 9, 36, 0
12, 190575, Note_on_c, 9, 39, 0
12, 190575, Note_on_c, 9, 40, 0
12, 190575, Note_on_c, 9, 42, 0
12, 190800, Note_on_c, 9, 46, 113
12, 190815, Note_on_c, 9, 46, 0
12, 191040, Note_on_c, 9, 36, 127
12, 191040, Note_on_c, 9, 42, 125
12, 191055, Note_on_c, 9, 36, 0
12, 191055, Note_on_c, 9, 42, 0
12, 191280, Note_on_c, 9, 42, 97
12, 191295, Note_on_c, 9, 42, 0
12, 191520, Note_on_c, 9, 36, 127
12, 191520, Note_on_c, 9, 39, 127
12, 191520, Note_on_c, 9, 40, 127
12, 191520, Note_on_c, 9, 42, 120
12, 191535, Note_on_c, 9, 36, 0
12, 191535, Note_on_c, 9, 39, 0
12, 191535, Note_on_c, 9, 40, 0
12, 191535, Note_on_c, 9, 42, 0
12, 191760, Note_on_c, 9, 42, 98
12, 191775, Note_on_c, 9, 42, 0
12, 192000, Note_on_c, 9, 36, 124
12, 192000, Note_on_c, 9, 42, 108
12, 192015, Note_on_c, 9, 36, 0
12, 192015, Note_on_c, 9, 42, 0
12, 192240, Note_on_c, 9, 42, 110
12, 192255, Note_on_c, 9, 42, 0
12, 192480, Note_on_c, 9, 36, 127
12, 192480, Note_on_c, 9, 39, 125
12, 192480, Note_on_c, 9, 40, 127
12, 192480, Note_on_c, 9, 42, 118
12, 192495, Note_on_c, 9, 36, 0
12, 192495, Note_on_c, 9, 39, 0
12, 192495, Note_on_c, 9, 40, 0
12, 192495, Note_on_c, 9, 42, 0
12, 192720, Note_on_c, 9, 46, 112
12, 192735, Note_on_c, 9, 46, 0
12, 192960, Note_on_c, 9, 36, 127
12, 192960, Note_on_c, 9, 42, 109
12, 192975, Note_on_c, 9, 36, 0
12, 192975, Note_on_c, 9, 42, 0
12, 193200, Note_on_c, 9, 42, 108
12, 193215, Note_on_c, 9, 42, 0
12, 193440, Note_on_c, 9, 36, 127
12, 193440, Note_on_c, 9, 39, 127
12, 193440, Note_on_c, 9, 40, 127
12, 193440, Note_on_c, 9, 42, 109
12, 193455, Note_on_c, 9, 36, 0
12, 193455, Note_on_c, 9, 39, 0
12, 193455, Note_on_c, 9, 40, 0
12, 193455, Note_on_c, 9, 42, 0
12, 193680, Note_on_c, 9, 42, 95
12, 193695, Note_on_c, 9, 42, 0
12, 193800, Note_on_c, 9, 42, 115
12, 193815, Note_on_c, 9, 42, 0
12, 193920, Note_on_c, 9, 36, 127
12, 193935, Note_on_c, 9, 36, 0
12, 194040, Note_on_c, 9, 42, 106
12, 194055, Note_on_c, 9, 42, 0
12, 194160, Note_on_c, 9, 42, 120
12, 194175, Note_on_c, 9, 42, 0
12, 194400, Note_on_c, 9, 36, 127
12, 194400, Note_on_c, 9, 39, 127
12, 194400, Note_on_c, 9, 40, 127
12, 194400, Note_on_c, 9, 42, 121
12, 194415, Note_on_c, 9, 36, 0
12, 194415, Note_on_c, 9, 39, 0
12, 194415, Note_on_c, 9, 40, 0
12, 194415, Note_on_c, 9, 42, 0
12, 194640, Note_on_c, 9, 46, 113
12, 194655, Note_on_c, 9, 46, 0
12, 194880, Note_on_c, 9, 36, 127
12, 194880, Note_on_c, 9, 42, 125
12, 194895, Note_on_c, 9, 36, 0
12, 194895, Note_on_c, 9, 42, 0
12, 195120, Note_on_c, 9, 42, 97
12, 195135, Note_on_c, 9, 42, 0
12, 195360, Note_on_c, 9, 36, 127
12, 195360, Note_on_c, 9, 39, 127
12, 195360, Note_on_c, 9, 40, 127
12, 195360, Note_on_c, 9, 42, 120
12, 195375, Note_on_c, 9, 36, 0
12, 195375, Note_on_c, 9, 39, 0
12, 195375, Note_on_c, 9, 40, 0
12, 195375, Note_on_c, 9, 42, 0
12, 195600, Note_on_c, 9, 42, 98
12, 195615, Note_on_c, 9, 42, 0
12, 195840, Note_on_c, 9, 36, 124
12, 195840, Note_on_c, 9, 42, 108
12, 195855, Note_on_c, 9, 36, 0
12, 195855, Note_on_c, 9, 42, 0
12, 196080, Note_on_c, 9, 42, 110
12, 196095, Note_on_c, 9, 42, 0
12, 196320, Note_on_c, 9, 36, 127
12, 196320, Note_on_c, 9, 39, 125
12, 196320, Note_on_c, 9, 40, 127
12, 196320, Note_on_c, 9, 42, 118
12, 196335, Note_on_c, 9, 36, 0
12, 196335, Note_on_c, 9, 39, 0
12, 196335, Note_on_c, 9, 40, 0
12, 196335, Note_on_c, 9, 42, 0
12, 196560, Note_on_c, 9, 46, 112
12, 196575, Note_on_c, 9, 46, 0
12, 196800, Note_on_c, 9, 36, 127
12, 196800, Note_on_c, 9, 42, 109
12, 196815, Note_on_c, 9, 36, 0
12, 196815, Note_on_c, 9, 42, 0
12, 197040, Note_on_c, 9, 42, 108
12, 197055, Note_on_c, 9, 42, 0
12, 197280, Note_on_c, 9, 36, 127
12, 197280, Note_on_c, 9, 39, 127
12, 197280, Note_on_c, 9, 40, 127
12, 197280, Note_on_c, 9, 42, 109
12, 197295, Note_on_c, 9, 36, 0
12, 197295, Note_on_c, 9, 39, 0
12, 197295, Note_on_c, 9, 40, 0
12, 197295, Note_on_c, 9, 42, 0
12, 197520, Note_on_c, 9, 42, 95
12, 197535, Note_on_c, 9, 42, 0
12, 197640, Note_on_c, 9, 42, 115
12, 197655, Note_on_c, 9, 42, 0
12, 197760, Note_on_c, 9, 36, 127
12, 197775, Note_on_c, 9, 36, 0
12, 197880, Note_on_c, 9, 42, 106
12, 197895, Note_on_c, 9, 42, 0
12, 198000, Note_on_c, 9, 42, 120
12, 198015, Note_on_c, 9, 42, 0
12, 198240, Note_on_c, 9, 36, 127
12, 198240, Note_on_c, 9, 39, 127
12, 198240, Note_on_c, 9, 40, 127
12, 198240, Note_on_c, 9, 42, 121
12, 198255, Note_on_c, 9, 36, 0
12, 198255, Note_on_c, 9, 39, 0
12, 198255, Note_on_c, 9, 40, 0
12, 198255, Note_on_c, 9, 42, 0
12, 198480, Note_on_c, 9, 46, 113
12, 198495, Note_on_c, 9, 46, 0
12, 198720, Note_on_c, 9, 36, 127
12, 198720, Note_on_c, 9, 42, 125
12, 198735, Note_on_c, 9, 36, 0
12, 198735, Note_on_c, 9, 42, 0
12, 198960, Note_on_c, 9, 42, 97
12, 198975, Note_on_c, 9, 42, 0
12, 199200, Note_on_c, 9, 36, 127
12, 199200, Note_on_c, 9, 39, 127
12, 199200, Note_on_c, 9, 40, 127
12, 199200, Note_on_c, 9, 42, 120
12, 199215, Note_on_c, 9, 36, 0
12, 199215, Note_on_c, 9, 39, 0
12, 199215, Note_on_c, 9, 40, 0
12, 199215, Note_on_c, 9, 42, 0
12, 199440, Note_on_c, 9, 42, 98
12, 199455, Note_on_c, 9, 42, 0
12, 199680, Note_on_c, 9, 36, 124
12, 199680, Note_on_c, 9, 42, 108
12, 199695, Note_on_c, 9, 36, 0
12, 199695, Note_on_c, 9, 42, 0
12, 199920, Note_on_c, 9, 42, 110
12, 199935, Note_on_c, 9, 42, 0
12, 200160, Note_on_c, 9, 36, 127
12, 200160, Note_on_c, 9, 39, 125
12, 200160, Note_on_c, 9, 40, 127
12, 200160, Note_on_c, 9, 42, 118
12, 200175, Note_on_c, 9, 36, 0
12, 200175, Note_on_c, 9, 39, 0
12, 200175, Note_on_c, 9, 40, 0
12, 200175, Note_on_c, 9, 42, 0
12, 200400, Note_on_c, 9, 46, 112
12, 200415, Note_on_c, 9, 46, 0
12, 200640, Note_on_c, 9, 36, 127
12, 200640, Note_on_c, 9, 42, 109
12, 200655, Note_on_c, 9, 36, 0
12, 200655, Note_on_c, 9, 42, 0
12, 200880, Note_on_c, 9, 42, 108
12, 200895, Note_on_c, 9, 42, 0
12, 201120, Note_on_c, 9, 36, 127
12, 201120, Note_on_c, 9, 39, 127
12, 201120, Note_on_c, 9, 40, 127
12, 201120, Note_on_c, 9, 42, 109
12, 201135, Note_on_c, 9, 36, 0
12, 201135, Note_on_c, 9, 39, 0
12, 201135, Note_on_c, 9, 40, 0
12, 201135, Note_on_c, 9, 42, 0
12, 201360, Note_on_c, 9, 42, 95
12, 201375, Note_on_c, 9, 42, 0
12, 201480, Note_on_c, 9, 42, 115
12, 201495, Note_on_c, 9, 42, 0
12, 201600, Note_on_c, 9, 36, 127
12, 201615, Note_on_c, 9, 36, 0
12, 201720, Note_on_c, 9, 42, 106
12, 201735, Note_on_c, 9, 42, 0
12, 201840, Note_on_c, 9, 42, 120
12, 201855, Note_on_c, 9, 42, 0
12, 202080, Note_on_c, 9, 36, 127
12, 202080, Note_on_c, 9, 39, 127
12, 202080, Note_on_c, 9, 40, 127
12, 202080, Note_on_c, 9, 42, 121
12, 202095, Note_on_c, 9, 36, 0
12, 202095, Note_on_c, 9, 39, 0
12, 202095, Note_on_c, 9, 40, 0
12, 202095, Note_on_c, 9, 42, 0
12, 202320, Note_on_c, 9, 46, 113
12, 202335, Note_on_c, 9, 46, 0
12, 202560, Note_on_c, 9, 36, 127
12, 202560, Note_on_c, 9, 42, 125
12, 202575, Note_on_c, 9, 36, 0
12, 202575, Note_on_c, 9, 42, 0
12, 202800, Note_on_c, 9, 42, 97
12, 202815, Note_on_c, 9, 42, 0
12, 203040, Note_on_c, 9, 36, 127
12, 203040, Note_on_c, 9, 39, 127
12, 203040, Note_on_c, 9, 40, 127
12, 203040, Note_on_c, 9, 42, 120
12, 203055, Note_on_c, 9, 36, 0
12, 203055, Note_on_c, 9, 39, 0
12, 203055, Note_on_c, 9, 40, 0
12, 203055, Note_on_c, 9, 42, 0
12, 203280, Note_on_c, 9, 42, 98
12, 203295, Note_on_c, 9, 42, 0
12, 203520, Note_on_c, 9, 36, 124
12, 203520, Note_on_c, 9, 42, 108
12, 203535, Note_on_c, 9, 36, 0
12, 203535, Note_on_c, 9, 42, 0
12, 203760, Note_on_c, 9, 42, 110
12, 203775, Note_on_c, 9, 42, 0
12, 204000, Note_on_c, 9, 36, 127
12, 204000, Note_on_c, 9, 39, 125
12, 204000, Note_on_c, 9, 40, 127
12, 204000, Note_on_c, 9, 42, 118
12, 204015, Note_on_c, 9, 36, 0
12, 204015, Note_on_c, 9, 39, 0
12, 204015, Note_on_c, 9, 40, 0
12, 204015, Note_on_c, 9, 42, 0
12, 204240, Note_on_c, 9, 46, 112
12, 204255, Note_on_c, 9, 46, 0
12, 204480, Note_on_c, 9, 36, 127
12, 204480, Note_on_c, 9, 42, 109
12, 204495, Note_on_c, 9, 36, 0
12, 204495, Note_on_c, 9, 42, 0
12, 204720, Note_on_c, 9, 42, 108
12, 204735, Note_on_c, 9, 42, 0
12, 204960, Note_on_c, 9, 36, 127
12, 204960, Note_on_c, 9, 39, 127
12, 204960, Note_on_c, 9, 40, 127
12, 204960, Note_on_c, 9, 42, 109
12, 204975, Note_on_c, 9, 36, 0
12, 204975, Note_on_c, 9, 39, 0
12, 204975, Note_on_c, 9, 40, 0
12, 204975, Note_on_c, 9, 42, 0
12, 205200, Note_on_c, 9, 42, 95
12, 205215, Note_on_c, 9, 42, 0
12, 205320, Note_on_c, 9, 42, 115
12, 205335, Note_on_c, 9, 42, 0
12, 205440, Note_on_c, 9, 36, 127
12, 205455, Note_on_c, 9, 36, 0
12, 205560, Note_on_c, 9, 42, 106
12, 205575, Note_on_c, 9, 42, 0
12, 205680, Note_on_c, 9, 42, 120
12, 205695, Note_on_c, 9, 42, 0
12, 205920, Note_on_c, 9, 36, 127
12, 205920, Note_on_c, 9, 39, 127
12, 205920, Note_on_c, 9, 40, 127
12, 205920, Note_on_c, 9, 42, 121
12, 205935, Note_on_c, 9, 36, 0
12, 205935, Note_on_c, 9, 39, 0
12, 205935, Note_on_c, 9, 40, 0
12, 205935, Note_on_c, 9, 42, 0
12, 206160, Note_on_c, 9, 46, 113
12, 206175, Note_on_c, 9, 46, 0
12, 206400, Note_on_c, 9, 36, 127
12, 206400, Note_on_c, 9, 42, 125
12, 206415, Note_on_c, 9, 36, 0
12, 206415, Note_on_c, 9, 42, 0
12, 206640, Note_on_c, 9, 42, 97
12, 206655, Note_on_c, 9, 42, 0
12, 206880, Note_on_c, 9, 36, 127
12, 206880, Note_on_c, 9, 39, 127
12, 206880, Note_on_c, 9, 40, 127
12, 206880, Note_on_c, 9, 42, 120
12, 206895, Note_on_c, 9, 36, 0
12, 206895, Note_on_c, 9, 39, 0
12, 206895, Note_on_c, 9, 40, 0
12, 206895, Note_on_c, 9, 42, 0
12, 207120, Note_on_c, 9, 42, 98
12, 207135, Note_on_c, 9, 42, 0
12, 207360, Note_on_c, 9, 36, 124
12, 207360, Note_on_c, 9, 42, 108
12, 207375, Note_on_c, 9, 36, 0
12, 207375, Note_on_c, 9, 42, 0
12, 207600, Note_on_c, 9, 42, 110
12, 207615, Note_on_c, 9, 42, 0
12, 207840, Note_on_c, 9, 36, 127
12, 207840, Note_on_c, 9, 39, 125
12, 207840, Note_on_c, 9, 40, 127
12, 207840, Note_on_c, 9, 42, 118
12, 207855, Note_on_c, 9, 36, 0
12, 207855, Note_on_c, 9, 39, 0
12, 207855, Note_on_c, 9, 40, 0
12, 207855, Note_on_c, 9, 42, 0
12, 208080, Note_on_c, 9, 46, 112
12, 208095, Note_on_c, 9, 46, 0
12, 208320, Note_on_c, 9, 36, 127
12, 208320, Note_on_c, 9, 42, 109
12, 208335, Note_on_c, 9, 36, 0
12, 208335, Note_on_c, 9, 42, 0
12, 208560, Note_on_c, 9, 42, 108
12, 208575, Note_on_c, 9, 42, 0
12, 208800, Note_on_c, 9, 36, 127
12, 208800, Note_on_c, 9, 39, 127
12, 208800, Note_on_c, 9, 40, 127
12, 208800, Note_on_c, 9, 42, 109
12, 208815, Note_on_c, 9, 36, 0
12, 208815, Note_on_c, 9, 39, 0
12, 208815, Note_on_c, 9, 40, 0
12, 208815, Note_on_c, 9, 42, 0
12, 209040, Note_on_c, 9, 42, 95
12, 209055, Note_on_c, 9, 42, 0
12, 209160, Note_on_c, 9, 42, 115
12, 209175, Note_on_c, 9, 42, 0
12, 209280, Note_on_c, 9, 36, 127
12, 209295, Note_on_c, 9, 36, 0
12, 209400, Note_on_c, 9, 42, 106
12, 209415, Note_on_c, 9, 42, 0
12, 209520, Note_on_c, 9, 42, 120
12, 209535, Note_on_c, 9, 42, 0
12, 209760, Note_on_c, 9, 36, 127
12, 209760, Note_on_c, 9, 39, 127
12, 209760, Note_on_c, 9, 40, 127
12, 209760, Note_on_c, 9, 42, 121
12, 209775, Note_on_c, 9, 36, 0
12, 209775, Note_on_c, 9, 39, 0
12, 209775, Note_on_c, 9, 40, 0
12, 209775, Note_on_c, 9, 42, 0
12, 210000, Note_on_c, 9, 46, 113
12, 210015, Note_on_c, 9, 46, 0
12, 210240, Note_on_c, 9, 36, 127
12, 210240, Note_on_c, 9, 42, 125
12, 210255, Note_on_c, 9, 36, 0
12, 210255, Note_on_c, 9, 42, 0
12, 210480, Note_on_c, 9, 42, 97
12, 210495, Note_on_c, 9, 42, 0
12, 210720, Note_on_c, 9, 36, 127
12, 210720, Note_on_c, 9, 39, 127
12, 210720, Note_on_c, 9, 40, 127
12, 210720, Note_on_c, 9, 42, 120
12, 210735, Note_on_c, 9, 36, 0
12, 210735, Note_on_c, 9, 39, 0
12, 210735, Note_on_c, 9, 40, 0
12, 210735, Note_on_c, 9, 42, 0
12, 210960, Note_on_c, 9, 42, 98
12, 210975, Note_on_c, 9, 42, 0
12, 211200, Note_on_c, 9, 36, 124
12, 211200, Note_on_c, 9, 42, 108
12, 211215, Note_on_c, 9, 36, 0
12, 211215, Note_on_c, 9, 42, 0
12, 211440, Note_on_c, 9, 42, 110
12, 211455, Note_on_c, 9, 42, 0
12, 211680, Note_on_c, 9, 36, 127
12, 211680, Note_on_c, 9, 39, 125
12, 211680, Note_on_c, 9, 40, 127
12, 211680, Note_on_c, 9, 42, 118
12, 211695, Note_on_c, 9, 36, 0
12, 211695, Note_on_c, 9, 39, 0
12, 211695, Note_on_c, 9, 40, 0
12, 211695, Note_on_c, 9, 42, 0
12, 211920, Note_on_c, 9, 46, 112
12, 211935, Note_on_c, 9, 46, 0
12, 212160, Note_on_c, 9, 36, 127
12, 212160, Note_on_c, 9, 42, 109
12, 212175, Note_on_c, 9, 36, 0
12, 212175, Note_on_c, 9, 42, 0
12, 212400, Note_on_c, 9, 42, 108
12, 212415, Note_on_c, 9, 42, 0
12, 212640, Note_on_c, 9, 36, 127
12, 212640, Note_on_c, 9, 39, 127
12, 212640, Note_on_c, 9, 40, 127
12, 212640, Note_on_c, 9, 42, 109
12, 212655, Note_on_c, 9, 36, 0
12, 212655, Note_on_c, 9, 39, 0
12, 212655, Note_on_c, 9, 40, 0
12, 212655, Note_on_c, 9, 42, 0
12, 212880, Note_on_c, 9, 42, 95
12, 212895, Note_on_c, 9, 42, 0
12, 213000, Note_on_c, 9, 42, 115
12, 213015, Note_on_c, 9, 42, 0
12, 213120, Note_on_c, 9, 36, 127
12, 213135, Note_on_c, 9, 36, 0
12, 213240, Note_on_c, 9, 42, 106
12, 213255, Note_on_c, 9, 42, 0
12, 213360, Note_on_c, 9, 42, 120
12, 213375, Note_on_c, 9, 42, 0
12, 213600, Note_on_c, 9, 36, 127
12, 213600, Note_on_c, 9, 39, 127
12, 213600, Note_on_c, 9, 40, 127
12, 213600, Note_on_c, 9, 42, 121
12, 213615, Note_on_c, 9, 36, 0
12, 213615, Note_on_c, 9, 39, 0
12, 213615, Note_on_c, 9, 40, 0
12, 213615, Note_on_c, 9, 42, 0
12, 213840, Note_on_c, 9, 46, 113
12, 213855, Note_on_c, 9, 46, 0
12, 214080, Note_on_c, 9, 36, 127
12, 214080, Note_on_c, 9, 42, 125
12, 214095, Note_on_c, 9, 36, 0
12, 214095, Note_on_c, 9, 42, 0
12, 214320, Note_on_c, 9, 42, 97
12, 214335, Note_on_c, 9, 42, 0
12, 214560, Note_on_c, 9, 36, 127
12, 214560, Note_on_c, 9, 39, 127
12, 214560, Note_on_c, 9, 40, 127
12, 214560, Note_on_c, 9, 42, 120
12, 214575, Note_on_c, 9, 36, 0
12, 214575, Note_on_c, 9, 39, 0
12, 214575, Note_on_c, 9, 40, 0
12, 214575, Note_on_c, 9, 42, 0
12, 214800, Note_on_c, 9, 42, 98
12, 214815, Note_on_c, 9, 42, 0
12, 215040, Note_on_c, 9, 36, 124
12, 215040, Note_on_c, 9, 42, 108
12, 215055, Note_on_c, 9, 36, 0
12, 215055, Note_on_c, 9, 42, 0
12, 215280, Note_on_c, 9, 42, 110
12, 215295, Note_on_c, 9, 42, 0
12, 215520, Note_on_c, 9, 36, 127
12, 215520, Note_on_c, 9, 39, 125
12, 215520, Note_on_c, 9, 40, 127
12, 215520, Note_on_c, 9, 42, 118
12, 215535, Note_on_c, 9, 36, 0
12, 215535, Note_on_c, 9, 39, 0
12, 215535, Note_on_c, 9, 40, 0
12, 215535, Note_on_c, 9, 42, 0
12, 215760, Note_on_c, 9, 46, 112
12, 215775, Note_on_c, 9, 46, 0
12, 216000, Note_on_c, 9, 36, 127
12, 216000, Note_on_c, 9, 42, 109
12, 216015, Note_on_c, 9, 36, 0
12, 216015, Note_on_c, 9, 42, 0
12, 216240, Note_on_c, 9, 42, 108
12, 216255, Note_on_c, 9, 42, 0
12, 216480, Note_on_c, 9, 36, 127
12, 216480, Note_on_c, 9, 39, 127
12, 216480, Note_on_c, 9, 40, 127
12, 216480, Note_on_c, 9, 42, 109
12, 216495, Note_on_c, 9, 36, 0
12, 216495, Note_on_c, 9, 39, 0
12, 216495, Note_on_c, 9, 40, 0
12, 216495, Note_on_c, 9, 42, 0
12, 216720, Note_on_c, 9, 42, 95
12, 216735, Note_on_c, 9, 42, 0
12, 216840, Note_on_c, 9, 42, 115
12, 216855, Note_on_c, 9, 42, 0
12, 216960, Note_on_c, 9, 36, 127
12, 216975, Note_on_c, 9, 36, 0
12, 217080, Note_on_c, 9, 42, 106
12, 217095, Note_on_c, 9, 42, 0
12, 217200, Note_on_c, 9, 42, 120
12, 217215, Note_on_c, 9, 42, 0
12, 217440, Note_on_c, 9, 36, 127
12, 217440, Note_on_c, 9, 39, 127
12, 217440, Note_on_c, 9, 40, 127
12, 217440, Note_on_c, 9, 42, 121
12, 217455, Note_on_c, 9, 36, 0
12, 217455, Note_on_c, 9, 39, 0
12, 217455, Note_on_c, 9, 40, 0
12, 217455, Note_on_c, 9, 42, 0
12, 217680, Note_on_c, 9, 46, 113
12, 217695, Note_on_c, 9, 46, 0
12, 217920, Note_on_c, 9, 36, 127
12, 217920, Note_on_c, 9, 42, 125
12, 217935, Note_on_c, 9, 36, 0
12, 217935, Note_on_c, 9, 42, 0
12, 218400, Note_on_c, 9, 39, 127
12, 218400, Note_on_c, 9, 40, 127
12, 218400, Note_on_c, 9, 42, 120
12, 218415, Note_on_c, 9, 39, 0
12, 218415, Note_on_c, 9, 40, 0
12, 218415, Note_on_c, 9, 42, 0
12, 218880, Note_on_c, 9, 36, 123
12, 218895, Note_on_c, 9, 36, 0
12, 219360, Note_on_c, 9, 36, 127
12, 219360, Note_on_c, 9, 39, 108
12, 219360, Note_on_c, 9, 42, 108
12, 219375, Note_on_c, 9, 36, 0
12, 219375, Note_on_c, 9, 39, 0
12, 219375, Note_on_c, 9, 42, 0
12, 219840, Note_on_c, 9, 36, 114
12, 219855, Note_on_c, 9, 36, 0
12, 220320, Note_on_c, 9, 36, 125
12, 220320, Note_on_c, 9, 39, 112
12, 220320, Note_on_c, 9, 42, 104
12, 220335, Note_on_c, 9, 36, 0
12, 220335, Note_on_c, 9, 39, 0
12, 220335, Note_on_c, 9, 42, 0
12, 220800, Note_on_c, 9, 36, 118
12, 220815, Note_on_c, 9, 36, 0
12, 221280, Note_on_c, 9, 36, 123
12, 221280, Note_on_c, 9, 39, 112
12, 221280, Note_on_c, 9, 42, 112
12, 221295, Note_on_c, 9, 36, 0
12, 221295, Note_on_c, 9, 39, 0
12, 221295, Note_on_c, 9, 42, 0
12, 221760, Note_on_c, 9, 36, 125
12, 221775, Note_on_c, 9, 36, 0
12, 222240, Note_on_c, 9, 36, 127
12, 222240, Note_on_c, 9, 39, 112
12, 222240, Note_on_c, 9, 42, 110
12, 222255, Note_on_c, 9, 36, 0
12, 222255, Note_on_c, 9, 39, 0
12, 222255, Note_on_c, 9, 42, 0
12, 222720, Note_on_c, 9, 36, 127
12, 222735, Note_on_c, 9, 36, 0
12, 223200, Note_on_c, 9, 36, 125
12, 223200, Note_on_c, 9, 39, 110
12, 223200, Note_on_c, 9, 42, 101
12, 223215, Note_on_c, 9, 36, 0
12, 223215, Note_on_c, 9, 39, 0
12, 223215, Note_on_c, 9, 42, 0
12, 223680, Note_on_c, 9, 36, 118
12, 223695, Note_on_c, 9, 36, 0
12, 224160, Note_on_c, 9, 36, 121
12, 224160, Note_on_c, 9, 39, 114
12, 224160, Note_on_c, 9, 42, 112
12, 224175, Note_on_c, 9, 36, 0
12, 224175, Note_on_c, 9, 39, 0
12, 224175, Note_on_c, 9, 42, 0
12, 224640, Note_on_c, 9, 36, 116
12, 224655, Note_on_c, 9, 36, 0
12, 225120, Note_on_c, 9, 36, 127
12, 225120, Note_on_c, 9, 39, 112
12, 225120, Note_on_c, 9, 42, 99
12, 225135, Note_on_c, 9, 36, 0
12, 225135, Note_on_c, 9, 39, 0
12, 225135, Note_on_c, 9, 42, 0
12, 225600, Note_on_c, 9, 36, 127
12, 225615, Note_on_c, 9, 36, 0
12, 226080, Note_on_c, 9, 36, 125
12, 226080, Note_on_c, 9, 39, 112
12, 226080, Note_on_c, 9, 42, 104
12, 226095, Note_on_c, 9, 36, 0
12, 226095, Note_on_c, 9, 39, 0
12, 226095, Note_on_c, 9, 42, 0
12, 226560, Note_on_c, 9, 36, 125
12, 226560, Note_on_c, 9, 50, 104
12, 226575, Note_on_c, 9, 36, 0
12, 226575, Note_on_c, 9, 50, 0
12, 226620, Note_on_c, 9, 50, 100
12, 226635, Note_on_c, 9, 50, 0
12, 226680, Note_on_c, 9, 50, 92
12, 226695, Note_on_c, 9, 50, 0
12, 226800, Note_on_c, 9, 50, 101
12, 226815, Note_on_c, 9, 50, 0
12, 226920, Note_on_c, 9, 48, 96
12, 226935, Note_on_c, 9, 48, 0
12, 226980, Note_on_c, 9, 48, 92
12, 226995, Note_on_c, 9, 48, 0
12, 227040, Note_on_c, 9, 36, 121
12, 227040, Note_on_c, 9, 39, 110
12, 227040, Note_on_c, 9, 42, 108
12, 227040, Note_on_c, 9, 48, 96
12, 227055, Note_on_c, 9, 36, 0
12, 227055, Note_on_c, 9, 39, 0
12, 227055, Note_on_c, 9, 42, 0
12, 227055, Note_on_c, 9, 48, 0
12, 227160, Note_on_c, 9, 48, 116
12, 227175, Note_on_c, 9, 48, 0
12, 227280, Note_on_c, 9, 47, 88
12, 227295, Note_on_c, 9, 47, 0
12, 227340, Note_on_c, 9, 47, 88
12, 227355, Note_on_c, 9, 47, 0
12, 227400, Note_on_c, 9, 47, 98
12, 227415, Note_on_c, 9, 47, 0
12, 227520, Note_on_c, 9, 36, 112
12, 227520, Note_on_c, 9, 47, 109
12, 227535, Note_on_c, 9, 36, 0
12, 227535, Note_on_c, 9, 47, 0
12, 227640, Note_on_c, 9, 45, 80
12, 227655, Note_on_c, 9, 45, 0
12, 227700, Note_on_c, 9, 45, 76
12, 227715, Note_on_c, 9, 45, 0
12, 227760, Note_on_c, 9, 45, 101
12, 227775, Note_on_c, 9, 45, 0
12, 227880, Note_on_c, 9, 45, 116
12, 227895, Note_on_c, 9, 45, 0
12, 228000, Note_on_c, 9, 36, 125
12, 228000, Note_on_c, 9, 39, 112
12, 228000, Note_on_c, 9, 42, 106
12, 228000, Note_on_c, 9, 43, 82
12, 228015, Note_on_c, 9, 36, 0
12, 228015, Note_on_c, 9, 39, 0
12, 228015, Note_on_c, 9, 42, 0
12, 228015, Note_on_c, 9, 43, 0
12, 228060, Note_on_c, 9, 43, 78
12, 228075, Note_on_c, 9, 43, 0
12, 228120, Note_on_c, 9, 43, 102
12, 228135, Note_on_c, 9, 43, 0
12, 228240, Note_on_c, 9, 43, 121
12, 228255, Note_on_c, 9, 43, 0
12, 228360, Note_on_c, 9, 43, 89
12, 228375, Note_on_c, 9, 43, 0
12, 228480, Note_on_c, 9, 36, 127
12, 228480, Note_on_c, 9, 50, 104
12, 228495, Note_on_c, 9, 36, 0
12, 228495, Note_on_c, 9, 50, 0
12, 228540, Note_on_c, 9, 50, 100
12, 228555, Note_on_c, 9, 50, 0
12, 228600, Note_on_c, 9, 50, 92
12, 228615, Note_on_c, 9, 50, 0
12, 228720, Note_on_c, 9, 50, 101
12, 228735, Note_on_c, 9, 50, 0
12, 228840, Note_on_c, 9, 48, 96
12, 228855, Note_on_c, 9, 48, 0
12, 228900, Note_on_c, 9, 48, 92
12, 228915, Note_on_c, 9, 48, 0
12, 228960, Note_on_c, 9, 36, 123
12, 228960, Note_on_c, 9, 39, 110
12, 228960, Note_on_c, 9, 42, 103
12, 228960, Note_on_c, 9, 48, 96
12, 228975, Note_on_c, 9, 36, 0
12, 228975, Note_on_c, 9, 39, 0
12, 228975, Note_on_c, 9, 42, 0
12, 228975, Note_on_c, 9, 48, 0
12, 229080, Note_on_c, 9, 48, 116
12, 229095, Note_on_c, 9, 48, 0
12, 229200, Note_on_c, 9, 47, 88
12, 229215, Note_on_c, 9, 47, 0
12, 229260, Note_on_c, 9, 47, 88
12, 229275, Note_on_c, 9, 47, 0
12, 229320, Note_on_c, 9, 47, 81
12, 229335, Note_on_c, 9, 47, 0
12, 229440, Note_on_c, 9, 36, 125
12, 229440, Note_on_c, 9, 47, 109
12, 229455, Note_on_c, 9, 36, 0
12, 229455, Note_on_c, 9, 47, 0
12, 229560, Note_on_c, 9, 45, 80
12, 229575, Note_on_c, 9, 45, 0
12, 229620, Note_on_c, 9, 45, 76
12, 229635, Note_on_c, 9, 45, 0
12, 229680, Note_on_c, 9, 45, 101
12, 229695, Note_on_c, 9, 45, 0
12, 229800, Note_on_c, 9, 45, 116
12, 229815, Note_on_c, 9, 45, 0
12, 229920, Note_on_c, 9, 36, 125
12, 229920, Note_on_c, 9, 39, 110
12, 229920, Note_on_c, 9, 42, 101
12, 229920, Note_on_c, 9, 43, 82
12, 229935, Note_on_c, 9, 36, 0
12, 229935, Note_on_c, 9, 39, 0
12, 229935, Note_on_c, 9, 42, 0
12, 229935, Note_on_c, 9, 43, 0
12, 229980, Note_on_c, 9, 43, 78
12, 229995, Note_on_c, 9, 43, 0
12, 230040, Note_on_c, 9, 43, 102
12, 230055, Note_on_c, 9, 43, 0
12, 230160, Note_on_c, 9, 43, 121
12, 230175, Note_on_c, 9, 43, 0
12, 230280, Note_on_c, 9, 43, 89
12, 230295, Note_on_c, 9, 43, 0
12, 230400, Note_on_c, 9, 36, 125
12, 230400, Note_on_c, 9, 50, 104
12, 230415, Note_on_c, 9, 36, 0
12, 230415, Note_on_c, 9, 50, 0
12, 230460, Note_on_c, 9, 50, 100
12, 230475, Note_on_c, 9, 50, 0
12, 230520, Note_on_c, 9, 50, 92
12, 230535, Note_on_c, 9, 50, 0
12, 230640, Note_on_c, 9, 50, 101
12, 230655, Note_on_c, 9, 50, 0
12, 230760, Note_on_c, 9, 48, 96
12, 230775, Note_on_c, 9, 48, 0
12, 230820, Note_on_c, 9, 48, 92
12, 230835, Note_on_c, 9, 48, 0
12, 230880, Note_on_c, 9, 36, 125
12, 230880, Note_on_c, 9, 39, 114
12, 230880, Note_on_c, 9, 42, 103
12, 230880, Note_on_c, 9, 48, 96
12, 230895, Note_on_c, 9, 36, 0
12, 230895, Note_on_c, 9, 39, 0
12, 230895, Note_on_c, 9, 42, 0
12, 230895, Note_on_c, 9, 48, 0
12, 231000, Note_on_c, 9, 48, 116
12, 231015, Note_on_c, 9, 48, 0
12, 231120, Note_on_c, 9, 47, 88
12, 231135, Note_on_c, 9, 47, 0
12, 231180, Note_on_c, 9, 47, 88
12, 231195, Note_on_c, 9, 47, 0
12, 231240, Note_on_c, 9, 47, 81
12, 231255, Note_on_c, 9, 47, 0
12, 231360, Note_on_c, 9, 36, 118
12, 231360, Note_on_c, 9, 47, 109
12, 231375, Note_on_c, 9, 36, 0
12, 231375, Note_on_c, 9, 47, 0
12, 231480, Note_on_c, 9, 45, 80
12, 231495, Note_on_c, 9, 45, 0
12, 231540, Note_on_c, 9, 45, 76
12, 231555, Note_on_c, 9, 45, 0
12, 231600, Note_on_c, 9, 45, 101
12, 231615, Note_on_c, 9, 45, 0
12, 231720, Note_on_c, 9, 45, 116
12, 231735, Note_on_c, 9, 45, 0
12, 231840, Note_on_c, 9, 36, 125
12, 231840, Note_on_c, 9, 39, 110
12, 231840, Note_on_c, 9, 42, 108
12, 231840, Note_on_c, 9, 43, 82
12, 231855, Note_on_c, 9, 36, 0
12, 231855, Note_on_c, 9, 39, 0
12, 231855, Note_on_c, 9, 42, 0
12, 231855, Note_on_c, 9, 43, 0
12, 231900, Note_on_c, 9, 43, 78
12, 231915, Note_on_c, 9, 43, 0
12, 231960, Note_on_c, 9, 43, 102
12, 231975, Note_on_c, 9, 43, 0
12, 232080, Note_on_c, 9, 43, 121
12, 232095, Note_on_c, 9, 43, 0
12, 232200, Note_on_c, 9, 43, 89
12, 232215, Note_on_c, 9, 43, 0
12, 232320, Note_on_c, 9, 36, 118
12, 232320, Note_on_c, 9, 42, 91
12, 232320, Note_on_c, 9, 50, 104
12, 232335, Note_on_c, 9, 36, 0
12, 232335, Note_on_c, 9, 42, 0
12, 232335, Note_on_c, 9, 50, 0
12, 232380, Note_on_c, 9, 50, 100
12, 232395, Note_on_c, 9, 50, 0
12, 232440, Note_on_c, 9, 42, 95
12, 232440, Note_on_c, 9, 50, 92
12, 232455, Note_on_c, 9, 42, 0
12, 232455, Note_on_c, 9, 50, 0
12, 232560, Note_on_c, 9, 50, 101
12, 232575, Note_on_c, 9, 50, 0
12, 232680, Note_on_c, 9, 42, 99
12, 232680, Note_on_c, 9, 48, 96
12, 232695, Note_on_c, 9, 42, 0
12, 232695, Note_on_c, 9, 48, 0
12, 232740, Note_on_c, 9, 48, 92
12, 232755, Note_on_c, 9, 48, 0
12, 232800, Note_on_c, 9, 36, 118
12, 232800, Note_on_c, 9, 39, 112
12, 232800, Note_on_c, 9, 42, 99
12, 232800, Note_on_c, 9, 48, 96
12, 232815, Note_on_c, 9, 36, 0
12, 232815, Note_on_c, 9, 39, 0
12, 232815, Note_on_c, 9, 42, 0
12, 232815, Note_on_c, 9, 48, 0
12, 232920, Note_on_c, 9, 48, 116
12, 232935, Note_on_c, 9, 48, 0
12, 233040, Note_on_c, 9, 36, 123
12, 233040, Note_on_c, 9, 42, 82
12, 233040, Note_on_c, 9, 47, 88
12, 233055, Note_on_c, 9, 36, 0
12, 233055, Note_on_c, 9, 42, 0
12, 233055, Note_on_c, 9, 47, 0
12, 233100, Note_on_c, 9, 47, 88
12, 233115, Note_on_c, 9, 47, 0
12, 233160, Note_on_c, 9, 47, 81
12, 233175, Note_on_c, 9, 47, 0
12, 233280, Note_on_c, 9, 36, 127
12, 233280, Note_on_c, 9, 42, 106
12, 233280, Note_on_c, 9, 47, 109
12, 233295, Note_on_c, 9, 36, 0
12, 233295, Note_on_c, 9, 42, 0
12, 233295, Note_on_c, 9, 47, 0
12, 233760, Note_on_c, 9, 39, 121
12, 233775, Note_on_c, 9, 39, 0
12, 234240, Note_on_c, 9, 36, 124
12, 234240, Note_on_c, 9, 49, 108
12, 234255, Note_on_c, 9, 36, 0
12, 234255, Note_on_c, 9, 49, 0
12, 234480, Note_on_c, 9, 42, 110
12, 234495, Note_on_c, 9, 42, 0
12, 234720, Note_on_c, 9, 36, 127
12, 234720, Note_on_c, 9, 39, 125
12, 234720, Note_on_c, 9, 40, 127
12, 234720, Note_on_c, 9, 42, 118
12, 234735, Note_on_c, 9, 36, 0
12, 234735, Note_on_c, 9, 39, 0
12, 234735, Note_on_c, 9, 40, 0
12, 234735, Note_on_c, 9, 42, 0
12, 234960, Note_on_c, 9, 46, 112
12, 234975, Note_on_c, 9, 46, 0
12, 235200, Note_on_c, 9, 36, 127
12, 235200, Note_on_c, 9, 42, 109
12, 235215, Note_on_c, 9, 36, 0
12, 235215, Note_on_c, 9, 42, 0
12, 235440, Note_on_c, 9, 42, 108
12, 235455, Note_on_c, 9, 42, 0
12, 235680, Note_on_c, 9, 36, 127
12, 235680, Note_on_c, 9, 39, 127
12, 235680, Note_on_c, 9, 40, 127
12, 235680, Note_on_c, 9, 42, 109
12, 235695, Note_on_c, 9, 36, 0
12, 235695, Note_on_c, 9, 39, 0
12, 235695, Note_on_c, 9, 40, 0
12, 235695, Note_on_c, 9, 42, 0
12, 235920, Note_on_c, 9, 42, 95
12, 235935, Note_on_c, 9, 42, 0
12, 236040, Note_on_c, 9, 42, 115
12, 236055, Note_on_c, 9, 42, 0
12, 236160, Note_on_c, 9, 36, 127
12, 236175, Note_on_c, 9, 36, 0
12, 236280, Note_on_c, 9, 42, 106
12, 236295, Note_on_c, 9, 42, 0
12, 236400, Note_on_c, 9, 42, 120
12, 236415, Note_on_c, 9, 42, 0
12, 236640, Note_on_c, 9, 36, 127
12, 236640, Note_on_c, 9, 39, 127
12, 236640, Note_on_c, 9, 40, 127
12, 236640, Note_on_c, 9, 42, 121
12, 236655, Note_on_c, 9, 36, 0
12, 236655, Note_on_c, 9, 39, 0
12, 236655, Note_on_c, 9, 40, 0
12, 236655, Note_on_c, 9, 42, 0
12, 236880, Note_on_c, 9, 46, 113
12, 236895, Note_on_c, 9, 46, 0
12, 237120, Note_on_c, 9, 36, 127
12, 237120, Note_on_c, 9, 42, 125
12, 237135, Note_on_c, 9, 36, 0
12, 237135, Note_on_c, 9, 42, 0
12, 237360, Note_on_c, 9, 42, 97
12, 237375, Note_on_c, 9, 42, 0
12, 237600, Note_on_c, 9, 36, 127
12, 237600, Note_on_c, 9, 39, 127
12, 237600, Note_on_c, 9, 40, 127
12, 237600, Note_on_c, 9, 42, 120
12, 237615, Note_on_c, 9, 36, 0
12, 237615, Note_on_c, 9, 39, 0
12, 237615, Note_on_c, 9, 40, 0
12, 237615, Note_on_c, 9, 42, 0
12, 237840, Note_on_c, 9, 42, 98
12, 237855, Note_on_c, 9, 42, 0
12, 238080, Note_on_c, 9, 36, 124
12, 238080, Note_on_c, 9, 42, 108
12, 238095, Note_on_c, 9, 36, 0
12, 238095, Note_on_c, 9, 42, 0
12, 238320, Note_on_c, 9, 42, 110
12, 238335, Note_on_c, 9, 42, 0
12, 238560, Note_on_c, 9, 36, 127
12, 238560, Note_on_c, 9, 39, 125
12, 238560, Note_on_c, 9, 40, 127
12, 238560, Note_on_c, 9, 42, 118
12, 238575, Note_on_c, 9, 36, 0
12, 238575, Note_on_c, 9, 39, 0
12, 238575, Note_on_c, 9, 40, 0
12, 238575, Note_on_c, 9, 42, 0
12, 238800, Note_on_c, 9, 46, 112
12, 238815, Note_on_c, 9, 46, 0
12, 239040, Note_on_c, 9, 36, 127
12, 239040, Note_on_c, 9, 42, 109
12, 239055, Note_on_c, 9, 36, 0
12, 239055, Note_on_c, 9, 42, 0
12, 239280, Note_on_c, 9, 42, 108
12, 239295, Note_on_c, 9, 42, 0
12, 239520, Note_on_c, 9, 36, 127
12, 239520, Note_on_c, 9, 39, 127
12, 239520, Note_on_c, 9, 40, 127
12, 239520, Note_on_c, 9, 42, 109
12, 239535, Note_on_c, 9, 36, 0
12, 239535, Note_on_c, 9, 39, 0
12, 239535, Note_on_c, 9, 40, 0
12, 239535, Note_on_c, 9, 42, 0
12, 239760, Note_on_c, 9, 42, 95
12, 239775, Note_on_c, 9, 42, 0
12, 239880, Note_on_c, 9, 42, 115
12, 239895, Note_on_c, 9, 42, 0
12, 240000, Note_on_c, 9, 36, 127
12, 240015, Note_on_c, 9, 36, 0
12, 240120, Note_on_c, 9, 42, 106
12, 240135, Note_on_c, 9, 42, 0
12, 240240, Note_on_c, 9, 42, 120
12, 240255, Note_on_c, 9, 42, 0
12, 240480, Note_on_c, 9, 36, 127
12, 240480, Note_on_c, 9, 39, 127
12, 240480, Note_on_c, 9, 40, 127
12, 240480, Note_on_c, 9, 42, 121
12, 240495, Note_on_c, 9, 36, 0
12, 240495, Note_on_c, 9, 39, 0
12, 240495, Note_on_c, 9, 40, 0
12, 240495, Note_on_c, 9, 42, 0
12, 240720, Note_on_c, 9, 46, 113
12, 240735, Note_on_c, 9, 46, 0
12, 240960, Note_on_c, 9, 36, 127
12, 240960, Note_on_c, 9, 42, 125
12, 240975, Note_on_c, 9, 36, 0
12, 240975, Note_on_c, 9, 42, 0
12, 241200, Note_on_c, 9, 42, 97
12, 241215, Note_on_c, 9, 42, 0
12, 241440, Note_on_c, 9, 36, 127
12, 241440, Note_on_c, 9, 39, 127
12, 241440, Note_on_c, 9, 40, 127
12, 241440, Note_on_c, 9, 42, 120
12, 241455, Note_on_c, 9, 36, 0
12, 241455, Note_on_c, 9, 39, 0
12, 241455, Note_on_c, 9, 40, 0
12, 241455, Note_on_c, 9, 42, 0
12, 241680, Note_on_c, 9, 42, 98
12, 241695, Note_on_c, 9, 42, 0
12, 241920, Note_on_c, 9, 36, 124
12, 241920, Note_on_c, 9, 42, 108
12, 241935, Note_on_c, 9, 36, 0
12, 241935, Note_on_c, 9, 42, 0
12, 242160, Note_on_c, 9, 42, 110
12, 242175, Note_on_c, 9, 42, 0
12, 242400, Note_on_c, 9, 36, 127
12, 242400, Note_on_c, 9, 39, 125
12, 242400, Note_on_c, 9, 40, 127
12, 242400, Note_on_c, 9, 42, 118
12, 242415, Note_on_c, 9, 36, 0
12, 242415, Note_on_c, 9, 39, 0
12, 242415, Note_on_c, 9, 40, 0
12, 242415, Note_on_c, 9, 42, 0
12, 242640, Note_on_c, 9, 46, 112
12, 242655, Note_on_c, 9, 46, 0
12, 242880, Note_on_c, 9, 36, 127
12, 242880, Note_on_c, 9, 42, 109
12, 242895, Note_on_c, 9, 36, 0
12, 242895, Note_on_c, 9, 42, 0
12, 243120, Note_on_c, 9, 42, 108
12, 243135, Note_on_c, 9, 42, 0
12, 243360, Note_on_c, 9, 36, 127
12, 243360, Note_on_c, 9, 39, 127
12, 243360, Note_on_c, 9, 40, 127
12, 243360, Note_on_c, 9, 42, 109
12, 243375, Note_on_c, 9, 36, 0
12, 243375, Note_on_c, 9, 39, 0
12, 243375, Note_on_c, 9, 40, 0
12, 243375, Note_on_c, 9, 42, 0
12, 243600, Note_on_c, 9, 42, 95
12, 243615, Note_on_c, 9, 42, 0
12, 243720, Note_on_c, 9, 42, 115
12, 243735, Note_on_c, 9, 42, 0
12, 243840, Note_on_c, 9, 36, 127
12, 243855, Note_on_c, 9, 36, 0
12, 243960, Note_on_c, 9, 42, 106
12, 243975, Note_on_c, 9, 42, 0
12, 244080, Note_on_c, 9, 42, 120
12, 244095, Note_on_c, 9, 42, 0
12, 244320, Note_on_c, 9, 36, 127
12, 244320, Note_on_c, 9, 39, 127
12, 244320, Note_on_c, 9, 40, 127
12, 244320, Note_on_c, 9, 42, 121
12, 244335, Note_on_c, 9, 36, 0
12, 244335, Note_on_c, 9, 39, 0
12, 244335, Note_on_c, 9, 40, 0
12, 244335, Note_on_c, 9, 42, 0
12, 244560, Note_on_c, 9, 46, 113
12, 244575, Note_on_c, 9, 46, 0
12, 244800, Note_on_c, 9, 36, 127
12, 244800, Note_on_c, 9, 42, 125
12, 244815, Note_on_c, 9, 36, 0
12, 244815, Note_on_c, 9, 42, 0
12, 245040, Note_on_c, 9, 42, 97
12, 245055, Note_on_c, 9, 42, 0
12, 245280, Note_on_c, 9, 36, 127
12, 245280, Note_on_c, 9, 39, 127
12, 245280, Note_on_c, 9, 40, 127
12, 245280, Note_on_c, 9, 42, 120
12, 245295, Note_on_c, 9, 36, 0
12, 245295, Note_on_c, 9, 39, 0
12, 245295, Note_on_c, 9, 40, 0
12, 245295, Note_on_c, 9, 42, 0
12, 245520, Note_on_c, 9, 42, 98
12, 245535, Note_on_c, 9, 42, 0
12, 245760, Note_on_c, 9, 36, 124
12, 245760, Note_on_c, 9, 42, 108
12, 245775, Note_on_c, 9, 36, 0
12, 245775, Note_on_c, 9, 42, 0
12, 246000, Note_on_c, 9, 42, 110
12, 246015, Note_on_c, 9, 42, 0
12, 246240, Note_on_c, 9, 36, 127
12, 246240, Note_on_c, 9, 39, 125
12, 246240, Note_on_c, 9, 40, 127
12, 246240, Note_on_c, 9, 42, 118
12, 246255, Note_on_c, 9, 36, 0
12, 246255, Note_on_c, 9, 39, 0
12, 246255, Note_on_c, 9, 40, 0
12, 246255, Note_on_c, 9, 42, 0
12, 246480, Note_on_c, 9, 46, 112
12, 246495, Note_on_c, 9, 46, 0
12, 246720, Note_on_c, 9, 36, 127
12, 246720, Note_on_c, 9, 42, 109
12, 246735, Note_on_c, 9, 36, 0
12, 246735, Note_on_c, 9, 42, 0
12, 246960, Note_on_c, 9, 42, 108
12, 246975, Note_on_c, 9, 42, 0
12, 247200, Note_on_c, 9, 36, 127
12, 247200, Note_on_c, 9, 39, 127
12, 247200, Note_on_c, 9, 40, 127
12, 247200, Note_on_c, 9, 42, 109
12, 247215, Note_on_c, 9, 36, 0
12, 247215, Note_on_c, 9, 39, 0
12, 247215, Note_on_c, 9, 40, 0
12, 247215, Note_on_c, 9, 42, 0
12, 247440, Note_on_c, 9, 42, 95
12, 247455, Note_on_c, 9, 42, 0
12, 247560, Note_on_c, 9, 42, 115
12, 247575, Note_on_c, 9, 42, 0
12, 247680, Note_on_c, 9, 36, 127
12, 247695, Note_on_c, 9, 36, 0
12, 247800, Note_on_c, 9, 42, 106
12, 247815, Note_on_c, 9, 42, 0
12, 247920, Note_on_c, 9, 42, 120
12, 247935, Note_on_c, 9, 42, 0
12, 248160, Note_on_c, 9, 36, 127
12, 248160, Note_on_c, 9, 39, 127
12, 248160, Note_on_c, 9, 40, 127
12, 248160, Note_on_c, 9, 42, 121
12, 248175, Note_on_c, 9, 36, 0
12, 248175, Note_on_c, 9, 39, 0
12, 248175, Note_on_c, 9, 40, 0
12, 248175, Note_on_c, 9, 42, 0
12, 248400, Note_on_c, 9, 46, 113
12, 248415, Note_on_c, 9, 46, 0
12, 248640, Note_on_c, 9, 36, 127
12, 248640, Note_on_c, 9, 42, 125
12, 248655, Note_on_c, 9, 36, 0
12, 248655, Note_on_c, 9, 42, 0
12, 248880, Note_on_c, 9, 42, 97
12, 248895, Note_on_c, 9, 42, 0
12, 249120, Note_on_c, 9, 36, 127
12, 249120, Note_on_c, 9, 39, 127
12, 249120, Note_on_c, 9, 40, 127
12, 249120, Note_on_c, 9, 42, 120
12, 249135, Note_on_c, 9, 36, 0
12, 249135, Note_on_c, 9, 39, 0
12, 249135, Note_on_c, 9, 40, 0
12, 249135, Note_on_c, 9, 42, 0
12, 249360, Note_on_c, 9, 46, 98
12, 249375, Note_on_c, 9, 46, 0
12, 249600, Note_on_c, 9, 36, 124
12, 249600, Note_on_c, 9, 49, 108
12, 249615, Note_on_c, 9, 36, 0
12, 249615, Note_on_c, 9, 49, 0
12, 249840, Note_on_c, 9, 42, 110
12, 249855, Note_on_c, 9, 42, 0
12, 250080, Note_on_c, 9, 36, 127
12, 250080, Note_on_c, 9, 39, 125
12, 250080, Note_on_c, 9, 40, 127
12, 250080, Note_on_c, 9, 42, 118
12, 250095, Note_on_c, 9, 36, 0
12, 250095, Note_on_c, 9, 39, 0
12, 250095, Note_on_c, 9, 40, 0
12, 250095, Note_on_c, 9, 42, 0
12, 250320, Note_on_c, 9, 46, 112
12, 250335, Note_on_c, 9, 46, 0
12, 250560, Note_on_c, 9, 36, 127
12, 250560, Note_on_c, 9, 42, 109
12, 250575, Note_on_c, 9, 36, 0
12, 250575, Note_on_c, 9, 42, 0
12, 250800, Note_on_c, 9, 42, 108
12, 250815, Note_on_c, 9, 42, 0
12, 251040, Note_on_c, 9, 36, 127
12, 251040, Note_on_c, 9, 39, 127
12, 251040, Note_on_c, 9, 40, 127
12, 251040, Note_on_c, 9, 42, 109
12, 251055, Note_on_c, 9, 36, 0
12, 251055, Note_on_c, 9, 39, 0
12, 251055, Note_on_c, 9, 40, 0
12, 251055, Note_on_c, 9, 42, 0
12, 251280, Note_on_c, 9, 42, 95
12, 251295, Note_on_c, 9, 42, 0
12, 251400, Note_on_c, 9, 42, 115
12, 251415, Note_on_c, 9, 42, 0
12, 251520, Note_on_c, 9, 36, 127
12, 251535, Note_on_c, 9, 36, 0
12, 251640, Note_on_c, 9, 42, 106
12, 251655, Note_on_c, 9, 42, 0
12, 251760, Note_on_c, 9, 42, 120
12, 251775, Note_on_c, 9, 42, 0
12, 252000, Note_on_c, 9, 36, 127
12, 252000, Note_on_c, 9, 39, 127
12, 252000, Note_on_c, 9, 40, 127
12, 252000, Note_on_c, 9, 42, 121
12, 252015, Note_on_c, 9, 36, 0
12, 252015, Note_on_c, 9, 39, 0
12, 252015, Note_on_c, 9, 40, 0
12, 252015, Note_on_c, 9, 42, 0
12, 252240, Note_on_c, 9, 46, 113
12, 252255, Note_on_c, 9, 46, 0
12, 252480, Note_on_c, 9, 36, 127
12, 252480, Note_on_c, 9, 42, 125
12, 252495, Note_on_c, 9, 36, 0
12, 252495, Note_on_c, 9, 42, 0
12, 252720, Note_on_c, 9, 42, 97
12, 252735, Note_on_c, 9, 42, 0
12, 252960, Note_on_c, 9, 36, 127
12, 252960, Note_on_c, 9, 39, 127
12, 252960, Note_on_c, 9, 40, 127
12, 252960, Note_on_c, 9, 42, 120
12, 252975, Note_on_c, 9, 36, 0
12, 252975, Note_on_c, 9, 39, 0
12, 252975, Note_on_c, 9, 40, 0
12, 252975, Note_on_c, 9, 42, 0
12, 253200, Note_on_c, 9, 42, 98
12, 253215, Note_on_c, 9, 42, 0
12, 253440, Note_on_c, 9, 36, 124
12, 253440, Note_on_c, 9, 42, 108
12, 253455, Note_on_c, 9, 36, 0
12, 253455, Note_on_c, 9, 42, 0
12, 253680, Note_on_c, 9, 42, 110
12, 253695, Note_on_c, 9, 42, 0
12, 253920, Note_on_c, 9, 36, 127
12, 253920, Note_on_c, 9, 39, 125
12, 253920, Note_on_c, 9, 40, 127
12, 253920, Note_on_c, 9, 42, 118
12, 253935, Note_on_c, 9, 36, 0
12, 253935, Note_on_c, 9, 39, 0
12, 253935, Note_on_c, 9, 40, 0
12, 253935, Note_on_c, 9, 42, 0
12, 254160, Note_on_c, 9, 46, 112
12, 254175, Note_on_c, 9, 46, 0
12, 254400, Note_on_c, 9, 36, 127
12, 254400, Note_on_c, 9, 42, 109
12, 254415, Note_on_c, 9, 36, 0
12, 254415, Note_on_c, 9, 42, 0
12, 254640, Note_on_c, 9, 42, 108
12, 254655, Note_on_c, 9, 42, 0
12, 254880, Note_on_c, 9, 36, 127
12, 254880, Note_on_c, 9, 39, 127
12, 254880, Note_on_c, 9, 40, 127
12, 254880, Note_on_c, 9, 42, 109
12, 254895, Note_on_c, 9, 36, 0
12, 254895, Note_on_c, 9, 39, 0
12, 254895, Note_on_c, 9, 40, 0
12, 254895, Note_on_c, 9, 42, 0
12, 255120, Note_on_c, 9, 42, 95
12, 255135, Note_on_c, 9, 42, 0
12, 255240, Note_on_c, 9, 42, 115
12, 255255, Note_on_c, 9, 42, 0
12, 255360, Note_on_c, 9, 36, 127
12, 255375, Note_on_c, 9, 36, 0
12, 255480, Note_on_c, 9, 42, 106
12, 255495, Note_on_c, 9, 42, 0
12, 255600, Note_on_c, 9, 42, 120
12, 255615, Note_on_c, 9, 42, 0
12, 255840, Note_on_c, 9, 36, 127
12, 255840, Note_on_c, 9, 39, 127
12, 255840, Note_on_c, 9, 40, 127
12, 255840, Note_on_c, 9, 42, 121
12, 255855, Note_on_c, 9, 36, 0
12, 255855, Note_on_c, 9, 39, 0
12, 255855, Note_on_c, 9, 40, 0
12, 255855, Note_on_c, 9, 42, 0
12, 256080, Note_on_c, 9, 46, 113
12, 256095, Note_on_c, 9, 46, 0
12, 256320, Note_on_c, 9, 36, 127
12, 256320, Note_on_c, 9, 42, 125
12, 256335, Note_on_c, 9, 36, 0
12, 256335, Note_on_c, 9, 42, 0
12, 256560, Note_on_c, 9, 42, 97
12, 256575, Note_on_c, 9, 42, 0
12, 256800, Note_on_c, 9, 36, 127
12, 256800, Note_on_c, 9, 39, 127
12, 256800, Note_on_c, 9, 40, 127
12, 256800, Note_on_c, 9, 42, 120
12, 256815, Note_on_c, 9, 36, 0
12, 256815, Note_on_c, 9, 39, 0
12, 256815, Note_on_c, 9, 40, 0
12, 256815, Note_on_c, 9, 42, 0
12, 257040, Note_on_c, 9, 42, 98
12, 257055, Note_on_c, 9, 42, 0
12, 257280, Note_on_c, 9, 36, 124
12, 257280, Note_on_c, 9, 42, 108
12, 257295, Note_on_c, 9, 36, 0
12, 257295, Note_on_c, 9, 42, 0
12, 257520, Note_on_c, 9, 42, 110
12, 257535, Note_on_c, 9, 42, 0
12, 257760, Note_on_c, 9, 36, 127
12, 257760, Note_on_c, 9, 39, 125
12, 257760, Note_on_c, 9, 40, 127
12, 257760, Note_on_c, 9, 42, 118
12, 257775, Note_on_c, 9, 36, 0
12, 257775, Note_on_c, 9, 39, 0
12, 257775, Note_on_c, 9, 40, 0
12, 257775, Note_on_c, 9, 42, 0
12, 258000, Note_on_c, 9, 46, 112
12, 258015, Note_on_c, 9, 46, 0
12, 258240, Note_on_c, 9, 36, 127
12, 258240, Note_on_c, 9, 42, 109
12, 258255, Note_on_c, 9, 36, 0
12, 258255, Note_on_c, 9, 42, 0
12, 258480, Note_on_c, 9, 42, 108
12, 258495, Note_on_c, 9, 42, 0
12, 258720, Note_on_c, 9, 36, 127
12, 258720, Note_on_c, 9, 39, 127
12, 258720, Note_on_c, 9, 40, 127
12, 258720, Note_on_c, 9, 42, 109
12, 258735, Note_on_c, 9, 36, 0
12, 258735, Note_on_c, 9, 39, 0
12, 258735, Note_on_c, 9, 40, 0
12, 258735, Note_on_c, 9, 42, 0
12, 258960, Note_on_c, 9, 42, 95
12, 258975, Note_on_c, 9, 42, 0
12, 259080, Note_on_c, 9, 42, 115
12, 259095, Note_on_c, 9, 42, 0
12, 259200, Note_on_c, 9, 36, 127
12, 259215, Note_on_c, 9, 36, 0
12, 259320, Note_on_c, 9, 42, 106
12, 259335, Note_on_c, 9, 42, 0
12, 259440, Note_on_c, 9, 42, 120
12, 259455, Note_on_c, 9, 42, 0
12, 259680, Note_on_c, 9, 36, 127
12, 259680, Note_on_c, 9, 39, 127
12, 259680, Note_on_c, 9, 40, 127
12, 259680, Note_on_c, 9, 42, 121
12, 259695, Note_on_c, 9, 36, 0
12, 259695, Note_on_c, 9, 39, 0
12, 259695, Note_on_c, 9, 40, 0
12, 259695, Note_on_c, 9, 42, 0
12, 259920, Note_on_c, 9, 46, 113
12, 259935, Note_on_c, 9, 46, 0
12, 260160, Note_on_c, 9, 36, 127
12, 260160, Note_on_c, 9, 42, 125
12, 260175, Note_on_c, 9, 36, 0
12, 260175, Note_on_c, 9, 42, 0
12, 260400, Note_on_c, 9, 42, 97
12, 260415, Note_on_c, 9, 42, 0
12, 260640, Note_on_c, 9, 36, 127
12, 260640, Note_on_c, 9, 39, 127
12, 260640, Note_on_c, 9, 40, 127
12, 260640, Note_on_c, 9, 42, 120
12, 260655, Note_on_c, 9, 36, 0
12, 260655, Note_on_c, 9, 39, 0
12, 260655, Note_on_c, 9, 40, 0
12, 260655, Note_on_c, 9, 42, 0
12, 260880, Note_on_c, 9, 42, 98
12, 260895, Note_on_c, 9, 42, 0
12, 261120, Note_on_c, 9, 36, 124
12, 261120, Note_on_c, 9, 42, 108
12, 261135, Note_on_c, 9, 36, 0
12, 261135, Note_on_c, 9, 42, 0
12, 261360, Note_on_c, 9, 42, 110
12, 261375, Note_on_c, 9, 42, 0
12, 261600, Note_on_c, 9, 36, 127
12, 261600, Note_on_c, 9, 39, 125
12, 261600, Note_on_c, 9, 40, 127
12, 261600, Note_on_c, 9, 42, 118
12, 261615, Note_on_c, 9, 36, 0
12, 261615, Note_on_c, 9, 39, 0
12, 261615, Note_on_c, 9, 40, 0
12, 261615, Note_on_c, 9, 42, 0
12, 261840, Note_on_c, 9, 46, 112
12, 261855, Note_on_c, 9, 46, 0
12, 262080, Note_on_c, 9, 36, 127
12, 262080, Note_on_c, 9, 42, 109
12, 262095, Note_on_c, 9, 36, 0
12, 262095, Note_on_c, 9, 42, 0
12, 262320, Note_on_c, 9, 42, 108
12, 262335, Note_on_c, 9, 42, 0
12, 262560, Note_on_c, 9, 36, 127
12, 262560, Note_on_c, 9, 39, 127
12, 262560, Note_on_c, 9, 40, 127
12, 262560, Note_on_c, 9, 42, 109
12, 262575, Note_on_c, 9, 36, 0
12, 262575, Note_on_c, 9, 39, 0
12, 262575, Note_on_c, 9, 40, 0
12, 262575, Note_on_c, 9, 42, 0
12, 262800, Note_on_c, 9, 42, 95
12, 262815, Note_on_c, 9, 42, 0
12, 262920, Note_on_c, 9, 42, 115
12, 262935, Note_on_c, 9, 42, 0
12, 263040, Note_on_c, 9, 36, 127
12, 263055, Note_on_c, 9, 36, 0
12, 263160, Note_on_c, 9, 42, 106
12, 263175, Note_on_c, 9, 42, 0
12, 263280, Note_on_c, 9, 42, 120
12, 263295, Note_on_c, 9, 42, 0
12, 263520, Note_on_c, 9, 36, 127
12, 263520, Note_on_c, 9, 39, 127
12, 263520, Note_on_c, 9, 40, 127
12, 263520, Note_on_c, 9, 42, 121
12, 263535, Note_on_c, 9, 36, 0
12, 263535, Note_on_c, 9, 39, 0
12, 263535, Note_on_c, 9, 40, 0
12, 263535, Note_on_c, 9, 42, 0
12, 263760, Note_on_c, 9, 46, 113
12, 263775, Note_on_c, 9, 46, 0
12, 264000, Note_on_c, 9, 36, 127
12, 264000, Note_on_c, 9, 42, 125
12, 264015, Note_on_c, 9, 36, 0
12, 264015, Note_on_c, 9, 42, 0
12, 264240, Note_on_c, 9, 42, 97
12, 264255, Note_on_c, 9, 42, 0
12, 264480, Note_on_c, 9, 36, 127
12, 264480, Note_on_c, 9, 39, 127
12, 264480, Note_on_c, 9, 40, 127
12, 264480, Note_on_c, 9, 42, 120
12, 264495, Note_on_c, 9, 36, 0
12, 264495, Note_on_c, 9, 39, 0
12, 264495, Note_on_c, 9, 40, 0
12, 264495, Note_on_c, 9, 42, 0
12, 264720, Note_on_c, 9, 42, 98
12, 264735, Note_on_c, 9, 42, 0
12, 264960, Note_on_c, 9, 36, 124
12, 264960, Note_on_c, 9, 42, 108
12, 264975, Note_on_c, 9, 36, 0
12, 264975, Note_on_c, 9, 42, 0
12, 265200, Note_on_c, 9, 42, 110
12, 265215, Note_on_c, 9, 42, 0
12, 265440, Note_on_c, 9, 36, 127
12, 265440, Note_on_c, 9, 39, 125
12, 265440, Note_on_c, 9, 40, 127
12, 265440, Note_on_c, 9, 42, 118
12, 265455, Note_on_c, 9, 36, 0
12, 265455, Note_on_c, 9, 39, 0
12, 265455, Note_on_c, 9, 40, 0
12, 265455, Note_on_c, 9, 42, 0
12, 265680, Note_on_c, 9, 46, 112
12, 265695, Note_on_c, 9, 46, 0
12, 265920, Note_on_c, 9, 36, 127
12, 265920, Note_on_c, 9, 42, 109
12, 265935, Note_on_c, 9, 36, 0
12, 265935, Note_on_c, 9, 42, 0
12, 266160, Note_on_c, 9, 42, 108
12, 266175, Note_on_c, 9, 42, 0
12, 266400, Note_on_c, 9, 36, 127
12, 266400, Note_on_c, 9, 39, 127
12, 266400, Note_on_c, 9, 40, 127
12, 266400, Note_on_c, 9, 42, 109
12, 266415, Note_on_c, 9, 36, 0
12, 266415, Note_on_c, 9, 39, 0
12, 266415, Note_on_c, 9, 40, 0
12, 266415, Note_on_c, 9, 42, 0
12, 266640, Note_on_c, 9, 42, 95
12, 266655, Note_on_c, 9, 42, 0
12, 266760, Note_on_c, 9, 42, 115
12, 266775, Note_on_c, 9, 42, 0
12, 266880, Note_on_c, 9, 36, 127
12, 266895, Note_on_c, 9, 36, 0
12, 267000, Note_on_c, 9, 42, 106
12, 267015, Note_on_c, 9, 42, 0
12, 267120, Note_on_c, 9, 42, 120
12, 267135, Note_on_c, 9, 42, 0
12, 267360, Note_on_c, 9, 36, 127
12, 267360, Note_on_c, 9, 39, 127
12, 267360, Note_on_c, 9, 40, 127
12, 267360, Note_on_c, 9, 42, 121
12, 267375, Note_on_c, 9, 36, 0
12, 267375, Note_on_c, 9, 39, 0
12, 267375, Note_on_c, 9, 40, 0
12, 267375, Note_on_c, 9, 42, 0
12, 267600, Note_on_c, 9, 46, 113
12, 267615, Note_on_c, 9, 46, 0
12, 267840, Note_on_c, 9, 36, 127
12, 267840, Note_on_c, 9, 42, 125
12, 267855, Note_on_c, 9, 36, 0
12, 267855, Note_on_c, 9, 42, 0
12, 268080, Note_on_c, 9, 42, 97
12, 268095, Note_on_c, 9, 42, 0
12, 268320, Note_on_c, 9, 36, 127
12, 268320, Note_on_c, 9, 39, 127
12, 268320, Note_on_c, 9, 40, 127
12, 268320, Note_on_c, 9, 42, 120
12, 268335, Note_on_c, 9, 36, 0
12, 268335, Note_on_c, 9, 39, 0
12, 268335, Note_on_c, 9, 40, 0
12, 268335, Note_on_c, 9, 42, 0
12, 268560, Note_on_c, 9, 42, 98
12, 268575, Note_on_c, 9, 42, 0
12, 268800, Note_on_c, 9, 36, 124
12, 268800, Note_on_c, 9, 42, 108
12, 268815, Note_on_c, 9, 36, 0
12, 268815, Note_on_c, 9, 42, 0
12, 269040, Note_on_c, 9, 42, 110
12, 269055, Note_on_c, 9, 42, 0
12, 269280, Note_on_c, 9, 36, 127
12, 269280, Note_on_c, 9, 39, 125
12, 269280, Note_on_c, 9, 40, 127
12, 269280, Note_on_c, 9, 42, 118
12, 269295, Note_on_c, 9, 36, 0
12, 269295, Note_on_c, 9, 39, 0
12, 269295, Note_on_c, 9, 40, 0
12, 269295, Note_on_c, 9, 42, 0
12, 269520, Note_on_c, 9, 46, 112
12, 269535, Note_on_c, 9, 46, 0
12, 269760, Note_on_c, 9, 36, 127
12, 269760, Note_on_c, 9, 42, 109
12, 269775, Note_on_c, 9, 36, 0
12, 269775, Note_on_c, 9, 42, 0
12, 270000, Note_on_c, 9, 42, 108
12, 270015, Note_on_c, 9, 42, 0
12, 270240, Note_on_c, 9, 36, 127
12, 270240, Note_on_c, 9, 39, 127
12, 270240, Note_on_c, 9, 40, 127
12, 270240, Note_on_c, 9, 42, 109
12, 270255, Note_on_c, 9, 36, 0
12, 270255, Note_on_c, 9, 39, 0
12, 270255, Note_on_c, 9, 40, 0
12, 270255, Note_on_c, 9, 42, 0
12, 270480, Note_on_c, 9, 42, 95
12, 270495, Note_on_c, 9, 42, 0
12, 270600, Note_on_c, 9, 42, 115
12, 270615, Note_on_c, 9, 42, 0
12, 270720, Note_on_c, 9, 36, 127
12, 270735, Note_on_c, 9, 36, 0
12, 270840, Note_on_c, 9, 42, 106
12, 270855, Note_on_c, 9, 42, 0
12, 270960, Note_on_c, 9, 42, 120
12, 270975, Note_on_c, 9, 42, 0
12, 271200, Note_on_c, 9, 36, 127
12, 271200, Note_on_c, 9, 39, 127
12, 271200, Note_on_c, 9, 40, 127
12, 271200, Note_on_c, 9, 42, 121
12, 271215, Note_on_c, 9, 36, 0
12, 271215, Note_on_c, 9, 39, 0
12, 271215, Note_on_c, 9, 40, 0
12, 271215, Note_on_c, 9, 42, 0
12, 271440, Note_on_c, 9, 46, 113
12, 271455, Note_on_c, 9, 46, 0
12, 271680, Note_on_c, 9, 36, 127
12, 271680, Note_on_c, 9, 42, 125
12, 271695, Note_on_c, 9, 36, 0
12, 271695, Note_on_c, 9, 42, 0
12, 271920, Note_on_c, 9, 42, 97
12, 271935, Note_on_c, 9, 42, 0
12, 272160, Note_on_c, 9, 36, 127
12, 272160, Note_on_c, 9, 39, 127
12, 272160, Note_on_c, 9, 40, 127
12, 272160, Note_on_c, 9, 42, 120
12, 272175, Note_on_c, 9, 36, 0
12, 272175, Note_on_c, 9, 39, 0
12, 272175, Note_on_c, 9, 40, 0
12, 272175, Note_on_c, 9, 42, 0
12, 272400, Note_on_c, 9, 42, 98
12, 272415, Note_on_c, 9, 42, 0
12, 272640, Note_on_c, 9, 36, 124
12, 272640, Note_on_c, 9, 42, 108
12, 272655, Note_on_c, 9, 36, 0
12, 272655, Note_on_c, 9, 42, 0
12, 272880, Note_on_c, 9, 42, 110
12, 272895, Note_on_c, 9, 42, 0
12, 273120, Note_on_c, 9, 36, 127
12, 273120, Note_on_c, 9, 39, 125
12, 273120, Note_on_c, 9, 40, 127
12, 273120, Note_on_c, 9, 42, 118
12, 273135, Note_on_c, 9, 36, 0
12, 273135, Note_on_c, 9, 39, 0
12, 273135, Note_on_c, 9, 40, 0
12, 273135, Note_on_c, 9, 42, 0
12, 273360, Note_on_c, 9, 46, 112
12, 273375, Note_on_c, 9, 46, 0
12, 273600, Note_on_c, 9, 36, 127
12, 273600, Note_on_c, 9, 42, 109
12, 273615, Note_on_c, 9, 36, 0
12, 273615, Note_on_c, 9, 42, 0
12, 273840, Note_on_c, 9, 42, 108
12, 273855, Note_on_c, 9, 42, 0
12, 274080, Note_on_c, 9, 36, 127
12, 274080, Note_on_c, 9, 39, 127
12, 274080, Note_on_c, 9, 40, 127
12, 274080, Note_on_c, 9, 42, 109
12, 274095, Note_on_c, 9, 36, 0
12, 274095, Note_on_c, 9, 39, 0
12, 274095, Note_on_c, 9, 40, 0
12, 274095, Note_on_c, 9, 42, 0
12, 274320, Note_on_c, 9, 42, 95
12, 274335, Note_on_c, 9, 42, 0
12, 274440, Note_on_c, 9, 42, 115
12, 274455, Note_on_c, 9, 42, 0
12, 274560, Note_on_c, 9, 36, 127
12, 274575, Note_on_c, 9, 36, 0
12, 274680, Note_on_c, 9, 42, 106
12, 274695, Note_on_c, 9, 42, 0
12, 274800, Note_on_c, 9, 42, 120
12, 274815, Note_on_c, 9, 42, 0
12, 275040, Note_on_c, 9, 36, 127
12, 275040, Note_on_c, 9, 39, 127
12, 275040, Note_on_c, 9, 40, 127
12, 275040, Note_on_c, 9, 42, 121
12, 275055, Note_on_c, 9, 36, 0
12, 275055, Note_on_c, 9, 39, 0
12, 275055, Note_on_c, 9, 40, 0
12, 275055, Note_on_c, 9, 42, 0
12, 275280, Note_on_c, 9, 46, 113
12, 275295, Note_on_c, 9, 46, 0
12, 275520, Note_on_c, 9, 36, 127
12, 275520, Note_on_c, 9, 42, 125
12, 275535, Note_on_c, 9, 36, 0
12, 275535, Note_on_c, 9, 42, 0
12, 275760, Note_on_c, 9, 42, 97
12, 275775, Note_on_c, 9, 42, 0
12, 276000, Note_on_c, 9, 36, 127
12, 276000, Note_on_c, 9, 39, 127
12, 276000, Note_on_c, 9, 40, 127
12, 276000, Note_on_c, 9, 42, 120
12, 276015, Note_on_c, 9, 36, 0
12, 276015, Note_on_c, 9, 39, 0
12, 276015, Note_on_c, 9, 40, 0
12, 276015, Note_on_c, 9, 42, 0
12, 276240, Note_on_c, 9, 42, 98
12, 276255, Note_on_c, 9, 42, 0
12, 276480, Note_on_c, 9, 36, 124
12, 276480, Note_on_c, 9, 42, 108
12, 276495, Note_on_c, 9, 36, 0
12, 276495, Note_on_c, 9, 42, 0
12, 276720, Note_on_c, 9, 42, 110
12, 276735, Note_on_c, 9, 42, 0
12, 276960, Note_on_c, 9, 36, 127
12, 276960, Note_on_c, 9, 39, 125
12, 276960, Note_on_c, 9, 40, 127
12, 276960, Note_on_c, 9, 42, 118
12, 276975, Note_on_c, 9, 36, 0
12, 276975, Note_on_c, 9, 39, 0
12, 276975, Note_on_c, 9, 40, 0
12, 276975, Note_on_c, 9, 42, 0
12, 277200, Note_on_c, 9, 46, 112
12, 277215, Note_on_c, 9, 46, 0
12, 277440, Note_on_c, 9, 36, 127
12, 277440, Note_on_c, 9, 42, 109
12, 277455, Note_on_c, 9, 36, 0
12, 277455, Note_on_c, 9, 42, 0
12, 277680, Note_on_c, 9, 42, 108
12, 277695, Note_on_c, 9, 42, 0
12, 277920, Note_on_c, 9, 36, 127
12, 277920, Note_on_c, 9, 39, 127
12, 277920, Note_on_c, 9, 40, 127
12, 277920, Note_on_c, 9, 42, 109
12, 277935, Note_on_c, 9, 36, 0
12, 277935, Note_on_c, 9, 39, 0
12, 277935, Note_on_c, 9, 40, 0
12, 277935, Note_on_c, 9, 42, 0
12, 278160, Note_on_c, 9, 42, 95
12, 278175, Note_on_c, 9, 42, 0
12, 278280, Note_on_c, 9, 42, 115
12, 278295, Note_on_c, 9, 42, 0
12, 278400, Note_on_c, 9, 36, 127
12, 278415, Note_on_c, 9, 36, 0
12, 278520, Note_on_c, 9, 42, 106
12, 278535, Note_on_c, 9, 42, 0
12, 278640, Note_on_c, 9, 42, 120
12, 278655, Note_on_c, 9, 42, 0
12, 278880, Note_on_c, 9, 36, 127
12, 278880, Note_on_c, 9, 39, 127
12, 278880, Note_on_c, 9, 40, 127
12, 278880, Note_on_c, 9, 42, 121
12, 278895, Note_on_c, 9, 36, 0
12, 278895, Note_on_c, 9, 39, 0
12, 278895, Note_on_c, 9, 40, 0
12, 278895, Note_on_c, 9, 42, 0
12, 279120, Note_on_c, 9, 46, 113
12, 279135, Note_on_c, 9, 46, 0
12, 279360, Note_on_c, 9, 36, 127
12, 279360, Note_on_c, 9, 42, 125
12, 279375, Note_on_c, 9, 36, 0
12, 279375, Note_on_c, 9, 42, 0
12, 279600, Note_on_c, 9, 42, 97
12, 279615, Note_on_c, 9, 42, 0
12, 279840, Note_on_c, 9, 36, 127
12, 279840, Note_on_c, 9, 39, 127
12, 279840, Note_on_c, 9, 40, 127
12, 279840, Note_on_c, 9, 42, 120
12, 279855, Note_on_c, 9, 36, 0
12, 279855, Note_on_c, 9, 39, 0
12, 279855, Note_on_c, 9, 40, 0
12, 279855, Note_on_c, 9, 42, 0
12, 280080, Note_on_c, 9, 42, 98
12, 280095, Note_on_c, 9, 42, 0
12, 280320, Note_on_c, 9, 36, 124
12, 280320, Note_on_c, 9, 42, 108
12, 280335, Note_on_c, 9, 36, 0
12, 280335, Note_on_c, 9, 42, 0
12, 280560, Note_on_c, 9, 42, 110
12, 280575, Note_on_c, 9, 42, 0
12, 280800, Note_on_c, 9, 36, 127
12, 280800, Note_on_c, 9, 39, 125
12, 280800, Note_on_c, 9, 40, 127
12, 280800, Note_on_c, 9, 42, 118
12, 280815, Note_on_c, 9, 36, 0
12, 280815, Note_on_c, 9, 39, 0
12, 280815, Note_on_c, 9, 40, 0
12, 280815, Note_on_c, 9, 42, 0
12, 281040, Note_on_c, 9, 46, 112
12, 281055, Note_on_c, 9, 46, 0
12, 281280, Note_on_c, 9, 36, 127
12, 281280, Note_on_c, 9, 42, 109
12, 281295, Note_on_c, 9, 36, 0
12, 281295, Note_on_c, 9, 42, 0
12, 281520, Note_on_c, 9, 42, 108
12, 281535, Note_on_c, 9, 42, 0
12, 281760, Note_on_c, 9, 36, 127
12, 281760, Note_on_c, 9, 39, 127
12, 281760, Note_on_c, 9, 40, 127
12, 281760, Note_on_c, 9, 42, 109
12, 281775, Note_on_c, 9, 36, 0
12, 281775, Note_on_c, 9, 39, 0
12, 281775, Note_on_c, 9, 40, 0
12, 281775, Note_on_c, 9, 42, 0
12, 282000, Note_on_c, 9, 42, 95
12, 282015, Note_on_c, 9, 42, 0
12, 282120, Note_on_c, 9, 42, 115
12, 282135, Note_on_c, 9, 42, 0
12, 282240, Note_on_c, 9, 36, 127
12, 282255, Note_on_c, 9, 36, 0
12, 282360, Note_on_c, 9, 42, 106
12, 282375, Note_on_c, 9, 42, 0
12, 282480, Note_on_c, 9, 42, 120
12, 282495, Note_on_c, 9, 42, 0
12, 282720, Note_on_c, 9, 36, 127
12, 282720, Note_on_c, 9, 39, 127
12, 282720, Note_on_c, 9, 40, 127
12, 282720, Note_on_c, 9, 42, 121
12, 282735, Note_on_c, 9, 36, 0
12, 282735, Note_on_c, 9, 39, 0
12, 282735, Note_on_c, 9, 40, 0
12, 282735, Note_on_c, 9, 42, 0
12, 282960, Note_on_c, 9, 46, 113
12, 282975, Note_on_c, 9, 46, 0
12, 283200, Note_on_c, 9, 36, 127
12, 283200, Note_on_c, 9, 42, 125
12, 283215, Note_on_c, 9, 36, 0
12, 283215, Note_on_c, 9, 42, 0
12, 283440, Note_on_c, 9, 42, 97
12, 283455, Note_on_c, 9, 42, 0
12, 283680, Note_on_c, 9, 36, 127
12, 283680, Note_on_c, 9, 39, 127
12, 283680, Note_on_c, 9, 40, 127
12, 283680, Note_on_c, 9, 42, 120
12, 283695, Note_on_c, 9, 36, 0
12, 283695, Note_on_c, 9, 39, 0
12, 283695, Note_on_c, 9, 40, 0
12, 283695, Note_on_c, 9, 42, 0
12, 283920, Note_on_c, 9, 42, 98
12, 283935, Note_on_c, 9, 42, 0
12, 284160, Note_on_c, 9, 36, 124
12, 284160, Note_on_c, 9, 42, 108
12, 284175, Note_on_c, 9, 36, 0
12, 284175, Note_on_c, 9, 42, 0
12, 284400, Note_on_c, 9, 42, 110
12, 284415, Note_on_c, 9, 42, 0
12, 284640, Note_on_c, 9, 36, 127
12, 284640, Note_on_c, 9, 39, 125
12, 284640, Note_on_c, 9, 40, 127
12, 284640, Note_on_c, 9, 42, 118
12, 284655, Note_on_c, 9, 36, 0
12, 284655, Note_on_c, 9, 39, 0
12, 284655, Note_on_c, 9, 40, 0
12, 284655, Note_on_c, 9, 42, 0
12, 284880, Note_on_c, 9, 46, 112
12, 284895, Note_on_c, 9, 46, 0
12, 285120, Note_on_c, 9, 36, 127
12, 285120, Note_on_c, 9, 42, 109
12, 285135, Note_on_c, 9, 36, 0
12, 285135, Note_on_c, 9, 42, 0
12, 285360, Note_on_c, 9, 42, 108
12, 285375, Note_on_c, 9, 42, 0
12, 285600, Note_on_c, 9, 36, 127
12, 285600, Note_on_c, 9, 39, 127
12, 285600, Note_on_c, 9, 40, 127
12, 285600, Note_on_c, 9, 42, 109
12, 285615, Note_on_c, 9, 36, 0
12, 285615, Note_on_c, 9, 39, 0
12, 285615, Note_on_c, 9, 40, 0
12, 285615, Note_on_c, 9, 42, 0
12, 285840, Note_on_c, 9, 42, 95
12, 285855, Note_on_c, 9, 42, 0
12, 285960, Note_on_c, 9, 42, 115
12, 285975, Note_on_c, 9, 42, 0
12, 286080, Note_on_c, 9, 36, 127
12, 286095, Note_on_c, 9, 36, 0
12, 286200, Note_on_c, 9, 42, 106
12, 286215, Note_on_c, 9, 42, 0
12, 286320, Note_on_c, 9, 42, 120
12, 286335, Note_on_c, 9, 42, 0
12, 286560, Note_on_c, 9, 36, 127
12, 286560, Note_on_c, 9, 39, 127
12, 286560, Note_on_c, 9, 40, 127
12, 286560, Note_on_c, 9, 42, 121
12, 286575, Note_on_c, 9, 36, 0
12, 286575, Note_on_c, 9, 39, 0
12, 286575, Note_on_c, 9, 40, 0
12, 286575, Note_on_c, 9, 42, 0
12, 286800, Note_on_c, 9, 46, 113
12, 286815, Note_on_c, 9, 46, 0
12, 287040, Note_on_c, 9, 36, 127
12, 287040, Note_on_c, 9, 42, 125
12, 287055, Note_on_c, 9, 36, 0
12, 287055, Note_on_c, 9, 42, 0
12, 287280, Note_on_c, 9, 42, 97
12, 287295, Note_on_c, 9, 42, 0
12, 287520, Note_on_c, 9, 36, 127
12, 287520, Note_on_c, 9, 39, 127
12, 287520, Note_on_c, 9, 40, 127
12, 287520, Note_on_c, 9, 42, 120
12, 287535, Note_on_c, 9, 36, 0
12, 287535, Note_on_c, 9, 39, 0
12, 287535, Note_on_c, 9, 40, 0
12, 287535, Note_on_c, 9, 42, 0
12, 287760, Note_on_c, 9, 42, 98
12, 287775, Note_on_c, 9, 42, 0
12, 288000, Note_on_c, 9, 36, 124
12, 288000, Note_on_c, 9, 42, 108
12, 288015, Note_on_c, 9, 36, 0
12, 288015, Note_on_c, 9, 42, 0
12, 288240, Note_on_c, 9, 42, 110
12, 288255, Note_on_c, 9, 42, 0
12, 288480, Note_on_c, 9, 36, 127
12, 288480, Note_on_c, 9, 39, 125
12, 288480, Note_on_c, 9, 40, 127
12, 288480, Note_on_c, 9, 42, 118
12, 288495, Note_on_c, 9, 36, 0
12, 288495, Note_on_c, 9, 39, 0
12, 288495, Note_on_c, 9, 40, 0
12, 288495, Note_on_c, 9, 42, 0
12, 288720, Note_on_c, 9, 46, 112
12, 288735, Note_on_c, 9, 46, 0
12, 288960, Note_on_c, 9, 36, 127
12, 288960, Note_on_c, 9, 42, 109
12, 288975, Note_on_c, 9, 36, 0
12, 288975, Note_on_c, 9, 42, 0
12, 289200, Note_on_c, 9, 42, 108
12, 289215, Note_on_c, 9, 42, 0
12, 289440, Note_on_c, 9, 36, 127
12, 289440, Note_on_c, 9, 39, 127
12, 289440, Note_on_c, 9, 40, 127
12, 289440, Note_on_c, 9, 42, 109
12, 289455, Note_on_c, 9, 36, 0
12, 289455, Note_on_c, 9, 39, 0
12, 289455, Note_on_c, 9, 40, 0
12, 289455, Note_on_c, 9, 42, 0
12, 289680, Note_on_c, 9, 42, 95
12, 289695, Note_on_c, 9, 42, 0
12, 289800, Note_on_c, 9, 42, 115
12, 289815, Note_on_c, 9, 42, 0
12, 289920, Note_on_c, 9, 36, 127
12, 289935, Note_on_c, 9, 36, 0
12, 290040, Note_on_c, 9, 42, 106
12, 290055, Note_on_c, 9, 42, 0
12, 290160, Note_on_c, 9, 42, 120
12, 290175, Note_on_c, 9, 42, 0
12, 290400, Note_on_c, 9, 36, 127
12, 290400, Note_on_c, 9, 39, 127
12, 290400, Note_on_c, 9, 40, 127
12, 290400, Note_on_c, 9, 42, 121
12, 290415, Note_on_c, 9, 36, 0
12, 290415, Note_on_c, 9, 39, 0
12, 290415, Note_on_c, 9, 40, 0
12, 290415, Note_on_c, 9, 42, 0
12, 290640, Note_on_c, 9, 46, 113
12, 290655, Note_on_c, 9, 46, 0
12, 290880, Note_on_c, 9, 36, 127
12, 290880, Note_on_c, 9, 42, 125
12, 290895, Note_on_c, 9, 36, 0
12, 290895, Note_on_c, 9, 42, 0
12, 291120, Note_on_c, 9, 42, 97
12, 291135, Note_on_c, 9, 42, 0
12, 291360, Note_on_c, 9, 36, 127
12, 291360, Note_on_c, 9, 39, 127
12, 291360, Note_on_c, 9, 40, 127
12, 291360, Note_on_c, 9, 42, 120
12, 291375, Note_on_c, 9, 36, 0
12, 291375, Note_on_c, 9, 39, 0
12, 291375, Note_on_c, 9, 40, 0
12, 291375, Note_on_c, 9, 42, 0
12, 291600, Note_on_c, 9, 42, 98
12, 291615, Note_on_c, 9, 42, 0
12, 291840, Note_on_c, 9, 36, 124
12, 291840, Note_on_c, 9, 42, 108
12, 291855, Note_on_c, 9, 36, 0
12, 291855, Note_on_c, 9, 42, 0
12, 292080, Note_on_c, 9, 42, 110
12, 292095, Note_on_c, 9, 42, 0
12, 292320, Note_on_c, 9, 36, 127
12, 292320, Note_on_c, 9, 39, 125
12, 292320, Note_on_c, 9, 40, 127
12, 292320, Note_on_c, 9, 42, 118
12, 292335, Note_on_c, 9, 36, 0
12, 292335, Note_on_c, 9, 39, 0
12, 292335, Note_on_c, 9, 40, 0
12, 292335, Note_on_c, 9, 42, 0
12, 292560, Note_on_c, 9, 46, 112
12, 292575, Note_on_c, 9, 46, 0
12, 292800, Note_on_c, 9, 36, 127
12, 292800, Note_on_c, 9, 42, 109
12, 292815, Note_on_c, 9, 36, 0
12, 292815, Note_on_c, 9, 42, 0
12, 293040, Note_on_c, 9, 42, 108
12, 293055, Note_on_c, 9, 42, 0
12, 293280, Note_on_c, 9, 36, 127
12, 293280, Note_on_c, 9, 39, 127
12, 293280, Note_on_c, 9, 40, 127
12, 293280, Note_on_c, 9, 42, 109
12, 293295, Note_on_c, 9, 36, 0
12, 293295, Note_on_c, 9, 39, 0
12, 293295, Note_on_c, 9, 40, 0
12, 293295, Note_on_c, 9, 42, 0
12, 293520, Note_on_c, 9, 42, 95
12, 293535, Note_on_c, 9, 42, 0
12, 293640, Note_on_c, 9, 42, 115
12, 293655, Note_on_c, 9, 42, 0
12, 293760, Note_on_c, 9, 36, 127
12, 293775, Note_on_c, 9, 36, 0
12, 293880, Note_on_c, 9, 42, 106
12, 293895, Note_on_c, 9, 42, 0
12, 294000, Note_on_c, 9, 42, 120
12, 294015, Note_on_c, 9, 42, 0
12, 294240, Note_on_c, 9, 36, 127
12, 294240, Note_on_c, 9, 39, 127
12, 294240, Note_on_c, 9, 40, 127
12, 294240, Note_on_c, 9, 42, 121
12, 294255, Note_on_c, 9, 36, 0
12, 294255, Note_on_c, 9, 39, 0
12, 294255, Note_on_c, 9, 40, 0
12, 294255, Note_on_c, 9, 42, 0
12, 294480, Note_on_c, 9, 46, 113
12, 294495, Note_on_c, 9, 46, 0
12, 294720, Note_on_c, 9, 36, 127
12, 294720, Note_on_c, 9, 42, 125
12, 294735, Note_on_c, 9, 36, 0
12, 294735, Note_on_c, 9, 42, 0
12, 294960, Note_on_c, 9, 42, 97
12, 294975, Note_on_c, 9, 42, 0
12, 295200, Note_on_c, 9, 36, 127
12, 295200, Note_on_c, 9, 39, 127
12, 295200, Note_on_c, 9, 40, 127
12, 295200, Note_on_c, 9, 42, 120
12, 295215, Note_on_c, 9, 36, 0
12, 295215, Note_on_c, 9, 39, 0
12, 295215, Note_on_c, 9, 40, 0
12, 295215, Note_on_c, 9, 42, 0
12, 295440, Note_on_c, 9, 42, 98
12, 295455, Note_on_c, 9, 42, 0
12, 295680, Note_on_c, 9, 36, 127
12, 295680, Note_on_c, 9, 51, 99
12, 295695, Note_on_c, 9, 36, 0
12, 295695, Note_on_c, 9, 51, 0
12, 296160, Note_on_c, 9, 36, 127
12, 296160, Note_on_c, 9, 42, 109
12, 296175, Note_on_c, 9, 36, 0
12, 296175, Note_on_c, 9, 42, 0
12, 296640, Note_on_c, 9, 36, 127
12, 296655, Note_on_c, 9, 36, 0
12, 296880, Note_on_c, 9, 40, 127
12, 296880, Note_on_c, 9, 52, 115
12, 296895, Note_on_c, 9, 40, 0
12, 296895, Note_on_c, 9, 52, 0
12, 297120, Note_on_c, 9, 36, 127
12, 297135, Note_on_c, 9, 36, 0
12, 297600, Note_on_c, 9, 36, 127
12, 297600, Note_on_c, 9, 42, 90
12, 297615, Note_on_c, 9, 36, 0
12, 297615, Note_on_c, 9, 42, 0
12, 297840, Note_on_c, 9, 42, 60
12, 297855, Note_on_c, 9, 42, 0
12, 298080, Note_on_c, 9, 36, 127
12, 298080, Note_on_c, 9, 42, 115
12, 298095, Note_on_c, 9, 36, 0
12, 298095, Note_on_c, 9, 42, 0
12, 298320, Note_on_c, 9, 42, 57
12, 298335, Note_on_c, 9, 42, 0
12, 298560, Note_on_c, 9, 36, 127
12, 298560, Note_on_c, 9, 42, 103
12, 298575, Note_on_c, 9, 36, 0
12, 298575, Note_on_c, 9, 42, 0
12, 298800, Note_on_c, 9, 46, 87
12, 298815, Note_on_c, 9, 46, 0
12, 299040, Note_on_c, 9, 36, 127
12, 299040, Note_on_c, 9, 42, 96
12, 299055, Note_on_c, 9, 36, 0
12, 299055, Note_on_c, 9, 42, 0
12, 299280, Note_on_c, 9, 42, 59
12, 299295, Note_on_c, 9, 42, 0
12, 299520, Note_on_c, 9, 36, 127
12, 299520, Note_on_c, 9, 42, 116
12, 299535, Note_on_c, 9, 36, 0
12, 299535, Note_on_c, 9, 42, 0
12, 299760, Note_on_c, 9, 42, 73
12, 299775, Note_on_c, 9, 42, 0
12, 300000, Note_on_c, 9, 36, 127
12, 300000, Note_on_c, 9, 42, 103
12, 300015, Note_on_c, 9, 36, 0
12, 300015, Note_on_c, 9, 42, 0
12, 300240, Note_on_c, 9, 42, 78
12, 300255, Note_on_c, 9, 42, 0
12, 300480, Note_on_c, 9, 36, 127
12, 300480, Note_on_c, 9, 42, 83
12, 300495, Note_on_c, 9, 36, 0
12, 300495, Note_on_c, 9, 42, 0
12, 300720, Note_on_c, 9, 40, 118
12, 300720, Note_on_c, 9, 52, 121
12, 300735, Note_on_c, 9, 40, 0
12, 300735, Note_on_c, 9, 52, 0
12, 300960, Note_on_c, 9, 36, 127
12, 300975, Note_on_c, 9, 36, 0
12, 301440, Note_on_c, 9, 36, 127
12, 301440, Note_on_c, 9, 42, 104
12, 301455, Note_on_c, 9, 36, 0
12, 301455, Note_on_c, 9, 42, 0
12, 301920, Note_on_c, 9, 36, 126
12, 301920, Note_on_c, 9, 42, 99
12, 301935, Note_on_c, 9, 36, 0
12, 301935, Note_on_c, 9, 42, 0
12, 302400, Note_on_c, 9, 36, 127
12, 302400, Note_on_c, 9, 42, 105
12, 302415, Note_on_c, 9, 36, 0
12, 302415, Note_on_c, 9, 42, 0
12, 302880, Note_on_c, 9, 36, 127
12, 302880, Note_on_c, 9, 46, 104
12, 302895, Note_on_c, 9, 36, 0
12, 302895, Note_on_c, 9, 46, 0
12, 303360, Note_on_c, 9, 35, 127
12, 303360, Note_on_c, 9, 40, 127
12, 303400, Note_on_c, 9, 35, 0
12, 303400, Note_on_c, 9, 40, 0
12, 303400, End_track
13, 0, Start_track
13, 0, Channel_prefix, 9
13, 0, Title_t, "PERC    "
13, 0, Instrument_name_t, "CHA 10  "
13, 218880, Note_on_c, 9, 60, 75
13, 218895, Note_on_c, 9, 60, 0
13, 218940, Note_on_c, 9, 60, 61
13, 218955, Note_on_c, 9, 60, 0
13, 219000, Note_on_c, 9, 60, 73
13, 219015, Note_on_c, 9, 60, 0
13, 219060, Note_on_c, 9, 60, 73
13, 219075, Note_on_c, 9, 60, 0
13, 219120, Note_on_c, 9, 60, 93
13, 219135, Note_on_c, 9, 60, 0
13, 219240, Note_on_c, 9, 60, 101
13, 219255, Note_on_c, 9, 60, 0
13, 219480, Note_on_c, 9, 60, 59
13, 219495, Note_on_c, 9, 60, 0
13, 219600, Note_on_c, 9, 60, 93
13, 219615, Note_on_c, 9, 60, 0
13, 219840, Note_on_c, 9, 60, 92
13, 219855, Note_on_c, 9, 60, 0
13, 220080, Note_on_c, 9, 60, 98
13, 220095, Note_on_c, 9, 60, 0
13, 220320, Note_on_c, 9, 60, 83
13, 220335, Note_on_c, 9, 60, 0
13, 220440, Note_on_c, 9, 60, 94
13, 220455, Note_on_c, 9, 60, 0
13, 220500, Note_on_c, 9, 60, 94
13, 220515, Note_on_c, 9, 60, 0
13, 220560, Note_on_c, 9, 60, 94
13, 220575, Note_on_c, 9, 60, 0
13, 220680, Note_on_c, 9, 61, 115
13, 220695, Note_on_c, 9, 61, 0
13, 220920, Note_on_c, 9, 61, 62
13, 220935, Note_on_c, 9, 61, 0
13, 220980, Note_on_c, 9, 61, 85
13, 220995, Note_on_c, 9, 61, 0
13, 221040, Note_on_c, 9, 61, 103
13, 221055, Note_on_c, 9, 61, 0
13, 221160, Note_on_c, 9, 61, 101
13, 221175, Note_on_c, 9, 61, 0
13, 221400, Note_on_c, 9, 61, 73
13, 221415, Note_on_c, 9, 61, 0
13, 221520, Note_on_c, 9, 61, 96
13, 221535, Note_on_c, 9, 61, 0
13, 221640, Note_on_c, 9, 61, 61
13, 221655, Note_on_c, 9, 61, 0
13, 221760, Note_on_c, 9, 61, 99
13, 221775, Note_on_c, 9, 61, 0
13, 222000, Note_on_c, 9, 61, 101
13, 222015, Note_on_c, 9, 61, 0
13, 222240, Note_on_c, 9, 61, 99
13, 222255, Note_on_c, 9, 61, 0
13, 222360, Note_on_c, 9, 61, 96
13, 222375, Note_on_c, 9, 61, 0
13, 222480, Note_on_c, 9, 61, 99
13, 222495, Note_on_c, 9, 61, 0
13, 222600, Note_on_c, 9, 61, 85
13, 222615, Note_on_c, 9, 61, 0
13, 222720, Note_on_c, 9, 60, 75
13, 222735, Note_on_c, 9, 60, 0
13, 222780, Note_on_c, 9, 60, 61
13, 222795, Note_on_c, 9, 60, 0
13, 222840, Note_on_c, 9, 60, 73
13, 222855, Note_on_c, 9, 60, 0
13, 222900, Note_on_c, 9, 60, 73
13, 222915, Note_on_c, 9, 60, 0
13, 222960, Note_on_c, 9, 60, 93
13, 222975, Note_on_c, 9, 60, 0
13, 223080, Note_on_c, 9, 60, 101
13, 223095, Note_on_c, 9, 60, 0
13, 223320, Note_on_c, 9, 60, 59
13, 223335, Note_on_c, 9, 60, 0
13, 223440, Note_on_c, 9, 60, 93
13, 223455, Note_on_c, 9, 60, 0
13, 223680, Note_on_c, 9, 60, 92
13, 223695, Note_on_c, 9, 60, 0
13, 223920, Note_on_c, 9, 60, 98
13, 223935, Note_on_c, 9, 60, 0
13, 224160, Note_on_c, 9, 60, 83
13, 224175, Note_on_c, 9, 60, 0
13, 224280, Note_on_c, 9, 60, 94
13, 224295, Note_on_c, 9, 60, 0
13, 224340, Note_on_c, 9, 60, 94
13, 224355, Note_on_c, 9, 60, 0
13, 224400, Note_on_c, 9, 60, 94
13, 224415, Note_on_c, 9, 60, 0
13, 224520, Note_on_c, 9, 61, 115
13, 224535, Note_on_c, 9, 61, 0
13, 224760, Note_on_c, 9, 61, 62
13, 224775, Note_on_c, 9, 61, 0
13, 224820, Note_on_c, 9, 61, 85
13, 224835, Note_on_c, 9, 61, 0
13, 224880, Note_on_c, 9, 61, 103
13, 224895, Note_on_c, 9, 61, 0
13, 225000, Note_on_c, 9, 61, 101
13, 225015, Note_on_c, 9, 61, 0
13, 225240, Note_on_c, 9, 61, 73
13, 225255, Note_on_c, 9, 61, 0
13, 225360, Note_on_c, 9, 61, 96
13, 225375, Note_on_c, 9, 61, 0
13, 225480, Note_on_c, 9, 61, 61
13, 225495, Note_on_c, 9, 61, 0
13, 225600, Note_on_c, 9, 61, 99
13, 225615, Note_on_c, 9, 61, 0
13, 225840, Note_on_c, 9, 61, 101
13, 225855, Note_on_c, 9, 61, 0
13, 226080, Note_on_c, 9, 61, 99
13, 226095, Note_on_c, 9, 61, 0
13, 226200, Note_on_c, 9, 61, 96
13, 226215, Note_on_c, 9, 61, 0
13, 226320, Note_on_c, 9, 61, 99
13, 226335, Note_on_c, 9, 61, 0
13, 226440, Note_on_c, 9, 61, 85
13, 226455, Note_on_c, 9, 61, 0
13, 226560, Note_on_c, 9, 60, 75
13, 226575, Note_on_c, 9, 60, 0
13, 226620, Note_on_c, 9, 60, 61
13, 226635, Note_on_c, 9, 60, 0
13, 226680, Note_on_c, 9, 60, 73
13, 226695, Note_on_c, 9, 60, 0
13, 226740, Note_on_c, 9, 60, 73
13, 226755, Note_on_c, 9, 60, 0
13, 226800, Note_on_c, 9, 60, 93
13, 226815, Note_on_c, 9, 60, 0
13, 226920, Note_on_c, 9, 60, 101
13, 226935, Note_on_c, 9, 60, 0
13, 227160, Note_on_c, 9, 60, 59
13, 227175, Note_on_c, 9, 60, 0
13, 227280, Note_on_c, 9, 60, 93
13, 227295, Note_on_c, 9, 60, 0
13, 227520, Note_on_c, 9, 60, 92
13, 227535, Note_on_c, 9, 60, 0
13, 227760, Note_on_c, 9, 60, 98
13, 227775, Note_on_c, 9, 60, 0
13, 228000, Note_on_c, 9, 60, 83
13, 228015, Note_on_c, 9, 60, 0
13, 228120, Note_on_c, 9, 60, 94
13, 228135, Note_on_c, 9, 60, 0
13, 228180, Note_on_c, 9, 60, 94
13, 228195, Note_on_c, 9, 60, 0
13, 228240, Note_on_c, 9, 60, 94
13, 228255, Note_on_c, 9, 60, 0
13, 228360, Note_on_c, 9, 61, 115
13, 228375, Note_on_c, 9, 61, 0
13, 228600, Note_on_c, 9, 61, 62
13, 228615, Note_on_c, 9, 61, 0
13, 228660, Note_on_c, 9, 61, 85
13, 228675, Note_on_c, 9, 61, 0
13, 228720, Note_on_c, 9, 61, 103
13, 228735, Note_on_c, 9, 61, 0
13, 228840, Note_on_c, 9, 61, 101
13, 228855, Note_on_c, 9, 61, 0
13, 229080, Note_on_c, 9, 61, 73
13, 229095, Note_on_c, 9, 61, 0
13, 229200, Note_on_c, 9, 61, 96
13, 229215, Note_on_c, 9, 61, 0
13, 229320, Note_on_c, 9, 61, 61
13, 229335, Note_on_c, 9, 61, 0
13, 229440, Note_on_c, 9, 61, 99
13, 229455, Note_on_c, 9, 61, 0
13, 229680, Note_on_c, 9, 61, 101
13, 229695, Note_on_c, 9, 61, 0
13, 229920, Note_on_c, 9, 61, 99
13, 229935, Note_on_c, 9, 61, 0
13, 230040, Note_on_c, 9, 61, 96
13, 230055, Note_on_c, 9, 61, 0
13, 230160, Note_on_c, 9, 61, 99
13, 230175, Note_on_c, 9, 61, 0
13, 230280, Note_on_c, 9, 61, 85
13, 230295, Note_on_c, 9, 61, 0
13, 230400, Note_on_c, 9, 60, 75
13, 230415, Note_on_c, 9, 60, 0
13, 230460, Note_on_c, 9, 60, 61
13, 230475, Note_on_c, 9, 60, 0
13, 230520, Note_on_c, 9, 60, 73
13, 230535, Note_on_c, 9, 60, 0
13, 230580, Note_on_c, 9, 60, 73
13, 230595, Note_on_c, 9, 60, 0
13, 230640, Note_on_c, 9, 60, 93
13, 230655, Note_on_c, 9, 60, 0
13, 230760, Note_on_c, 9, 60, 101
13, 230775, Note_on_c, 9, 60, 0
13, 231000, Note_on_c, 9, 60, 59
13, 231015, Note_on_c, 9, 60, 0
13, 231120, Note_on_c, 9, 60, 93
13, 231135, Note_on_c, 9, 60, 0
13, 231360, Note_on_c, 9, 60, 92
13, 231375, Note_on_c, 9, 60, 0
13, 231600, Note_on_c, 9, 60, 98
13, 231615, Note_on_c, 9, 60, 0
13, 231840, Note_on_c, 9, 60, 83
13, 231855, Note_on_c, 9, 60, 0
13, 231960, Note_on_c, 9, 60, 94
13, 231975, Note_on_c, 9, 60, 0
13, 232020, Note_on_c, 9, 60, 94
13, 232035, Note_on_c, 9, 60, 0
13, 232080, Note_on_c, 9, 60, 94
13, 232095, Note_on_c, 9, 60, 0
13, 232200, Note_on_c, 9, 61, 115
13, 232215, Note_on_c, 9, 61, 0
13, 232440, Note_on_c, 9, 61, 62
13, 232455, Note_on_c, 9, 61, 0
13, 232500, Note_on_c, 9, 61, 85
13, 232515, Note_on_c, 9, 61, 0
13, 232560, Note_on_c, 9, 61, 103
13, 232575, Note_on_c, 9, 61, 0
13, 232680, Note_on_c, 9, 61, 101
13, 232695, Note_on_c, 9, 61, 0
13, 232920, Note_on_c, 9, 61, 73
13, 232935, Note_on_c, 9, 61, 0
13, 233040, Note_on_c, 9, 61, 96
13, 233055, Note_on_c, 9, 61, 0
13, 233280, Note_on_c, 9, 61, 99
13, 233295, Note_on_c, 9, 61, 0
13, 233295, End_track
0, 0, End_of_file
