0, 0, Header, 1, 10, 192
1, 0, Start_track
1, 0, Tempo, 500000
1, 0, Time_signature, 4, 2, 24, 8
1, 0, End_track
2, 0, Start_track
2, 0, Channel_prefix, 0
2, 0, Title_t, "Formant 2 "
2, 0, Program_c, 0, 16
2, 0, Control_c, 0, 7, 59
2, 0, Control_c, 0, 10, 64
2, 0, Control_c, 0, 91, 34
2, 0, Control_c, 0, 93, 12
2, 0, Control_c, 0, 101, 0
2, 1, Control_c, 0, 100, 0
2, 2, Control_c, 0, 6, 12
2, 3, Control_c, 0, 38, 0
2, 3, Control_c, 0, 10, 64
2, 3, Control_c, 0, 7, 59
2, 3, Control_c, 0, 101, 0
2, 4, Control_c, 0, 100, 0
2, 5, Control_c, 0, 6, 12
2, 6, Control_c, 0, 38, 0
2, 6, Control_c, 0, 10, 64
2, 6, Control_c, 0, 7, 59
2, 6, Control_c, 0, 10, 64
2, 6, Control_c, 0, 7, 59
2, 6, Control_c, 0, 101, 0
2, 7, Control_c, 0, 100, 0
2, 8, Control_c, 0, 6, 12
2, 9, Control_c, 0, 38, 0
2, 9, Control_c, 0, 10, 64
2, 9, Control_c, 0, 7, 59
2, 9, Control_c, 0, 10, 64
2, 9, Control_c, 0, 7, 59
2, 9, Pitch_bend_c, 0, 8192
2, 55296, Note_on_c, 0, 54, 100
2, 56060, Note_on_c, 0, 54, 0
2, 56064, Note_on_c, 0, 52, 100
2, 56828, Note_on_c, 0, 52, 0
2, 56832, Note_on_c, 0, 50, 100
2, 57884, Note_on_c, 0, 50, 0
2, 73728, Note_on_c, 0, 54, 100
2, 74492, Note_on_c, 0, 54, 0
2, 74496, Note_on_c, 0, 52, 100
2, 75260, Note_on_c, 0, 52, 0
2, 75264, Note_on_c, 0, 50, 100
2, 76316, Note_on_c, 0, 50, 0
2, 76795, Control_c, 0, 101, 0
2, 76796, Control_c, 0, 100, 0
2, 76797, Control_c, 0, 6, 12
2, 76798, Control_c, 0, 38, 0
2, 76800, Control_c, 0, 10, 64
2, 76800, Control_c, 0, 7, 59
2, 76800, Pitch_bend_c, 0, 8192
2, 76800, Program_c, 0, 16
2, 76800, Control_c, 0, 101, 0
2, 76801, Control_c, 0, 100, 0
2, 76802, Control_c, 0, 6, 12
2, 76803, Control_c, 0, 38, 0
2, 76803, Control_c, 0, 10, 64
2, 76803, Control_c, 0, 7, 59
2, 76803, Control_c, 0, 101, 0
2, 76804, Control_c, 0, 100, 0
2, 76805, Control_c, 0, 6, 12
2, 76806, Control_c, 0, 38, 0
2, 76806, Control_c, 0, 10, 64
2, 76806, Control_c, 0, 7, 59
2, 76806, Pitch_bend_c, 0, 8192
2, 76806, Program_c, 0, 16
2, 76806, End_track
3, 0, Start_track
3, 0, Channel_prefix, 1
3, 0, Title_t, "Toxic Bioh"
3, 0, Program_c, 1, 82
3, 0, Control_c, 1, 7, 60
3, 0, Control_c, 1, 10, 64
3, 0, Control_c, 1, 91, 45
3, 0, Control_c, 1, 93, 12
3, 0, Control_c, 1, 11, 127
3, 0, Control_c, 1, 101, 0
3, 1, Control_c, 1, 100, 0
3, 2, Control_c, 1, 6, 12
3, 3, Control_c, 1, 38, 0
3, 3, Control_c, 1, 10, 64
3, 3, Control_c, 1, 11, 127
3, 3, Control_c, 1, 101, 0
3, 4, Control_c, 1, 100, 0
3, 5, Control_c, 1, 6, 12
3, 6, Control_c, 1, 38, 0
3, 6, Control_c, 1, 10, 64
3, 6, Control_c, 1, 11, 127
3, 6, Control_c, 1, 10, 64
3, 6, Control_c, 1, 11, 127
3, 6, Control_c, 1, 101, 0
3, 7, Control_c, 1, 100, 0
3, 8, Control_c, 1, 6, 12
3, 9, Control_c, 1, 38, 0
3, 9, Control_c, 1, 10, 64
3, 9, Control_c, 1, 11, 127
3, 9, Control_c, 1, 10, 64
3, 9, Control_c, 1, 11, 127
3, 9, Pitch_bend_c, 1, 8192
3, 15360, Note_on_c, 1, 81, 100
3, 15360, Note_on_c, 1, 78, 100
3, 15548, Note_on_c, 1, 78, 0
3, 15548, Note_on_c, 1, 81, 0
3, 15552, Note_on_c, 1, 81, 100
3, 15552, Note_on_c, 1, 78, 100
3, 15740, Note_on_c, 1, 78, 0
3, 15740, Note_on_c, 1, 81, 0
3, 15744, Note_on_c, 1, 81, 100
3, 15744, Note_on_c, 1, 78, 100
3, 15884, Note_on_c, 1, 78, 0
3, 15884, Note_on_c, 1, 81, 0
3, 15888, Note_on_c, 1, 81, 100
3, 15888, Note_on_c, 1, 85, 100
3, 16028, Note_on_c, 1, 85, 0
3, 16028, Note_on_c, 1, 81, 0
3, 16032, Note_on_c, 1, 85, 100
3, 16032, Note_on_c, 1, 81, 100
3, 16124, Note_on_c, 1, 81, 0
3, 16124, Note_on_c, 1, 85, 0
3, 16128, Note_on_c, 1, 76, 100
3, 16128, Note_on_c, 1, 80, 100
3, 16316, Note_on_c, 1, 80, 0
3, 16316, Note_on_c, 1, 76, 0
3, 16320, Note_on_c, 1, 76, 100
3, 16320, Note_on_c, 1, 80, 100
3, 16508, Note_on_c, 1, 80, 0
3, 16508, Note_on_c, 1, 76, 0
3, 16512, Note_on_c, 1, 80, 100
3, 16512, Note_on_c, 1, 76, 100
3, 16652, Note_on_c, 1, 76, 0
3, 16652, Note_on_c, 1, 80, 0
3, 16656, Note_on_c, 1, 85, 100
3, 16656, Note_on_c, 1, 81, 100
3, 16796, Note_on_c, 1, 81, 0
3, 16796, Note_on_c, 1, 85, 0
3, 16800, Note_on_c, 1, 85, 100
3, 16800, Note_on_c, 1, 81, 100
3, 16892, Note_on_c, 1, 81, 0
3, 16892, Note_on_c, 1, 85, 0
3, 16896, Note_on_c, 1, 78, 100
3, 16896, Note_on_c, 1, 74, 100
3, 17084, Note_on_c, 1, 74, 0
3, 17084, Note_on_c, 1, 78, 0
3, 17088, Note_on_c, 1, 78, 100
3, 17088, Note_on_c, 1, 74, 100
3, 17276, Note_on_c, 1, 74, 0
3, 17276, Note_on_c, 1, 78, 0
3, 17280, Note_on_c, 1, 74, 100
3, 17280, Note_on_c, 1, 78, 100
3, 17420, Note_on_c, 1, 78, 0
3, 17420, Note_on_c, 1, 74, 0
3, 17424, Note_on_c, 1, 81, 100
3, 17424, Note_on_c, 1, 85, 100
3, 17564, Note_on_c, 1, 85, 0
3, 17564, Note_on_c, 1, 81, 0
3, 17568, Note_on_c, 1, 85, 100
3, 17568, Note_on_c, 1, 81, 100
3, 17660, Note_on_c, 1, 81, 0
3, 17660, Note_on_c, 1, 85, 0
3, 17664, Note_on_c, 1, 74, 100
3, 17664, Note_on_c, 1, 78, 100
3, 17852, Note_on_c, 1, 78, 0
3, 17852, Note_on_c, 1, 74, 0
3, 17856, Note_on_c, 1, 78, 100
3, 17856, Note_on_c, 1, 74, 100
3, 18044, Note_on_c, 1, 74, 0
3, 18044, Note_on_c, 1, 78, 0
3, 18048, Note_on_c, 1, 78, 100
3, 18048, Note_on_c, 1, 74, 100
3, 18188, Note_on_c, 1, 74, 0
3, 18188, Note_on_c, 1, 78, 0
3, 18192, Note_on_c, 1, 81, 100
3, 18192, Note_on_c, 1, 85, 100
3, 18332, Note_on_c, 1, 85, 0
3, 18332, Note_on_c, 1, 81, 0
3, 18336, Note_on_c, 1, 81, 100
3, 18336, Note_on_c, 1, 85, 100
3, 18428, Note_on_c, 1, 85, 0
3, 18428, Note_on_c, 1, 81, 0
3, 18432, Note_on_c, 1, 81, 100
3, 18432, Note_on_c, 1, 78, 100
3, 18620, Note_on_c, 1, 78, 0
3, 18620, Note_on_c, 1, 81, 0
3, 18624, Note_on_c, 1, 81, 100
3, 18624, Note_on_c, 1, 78, 100
3, 18812, Note_on_c, 1, 78, 0
3, 18812, Note_on_c, 1, 81, 0
3, 18816, Note_on_c, 1, 81, 100
3, 18816, Note_on_c, 1, 78, 100
3, 18956, Note_on_c, 1, 78, 0
3, 18956, Note_on_c, 1, 81, 0
3, 18960, Note_on_c, 1, 81, 100
3, 18960, Note_on_c, 1, 85, 100
3, 19100, Note_on_c, 1, 85, 0
3, 19100, Note_on_c, 1, 81, 0
3, 19104, Note_on_c, 1, 85, 100
3, 19104, Note_on_c, 1, 81, 100
3, 19196, Note_on_c, 1, 81, 0
3, 19196, Note_on_c, 1, 85, 0
3, 19200, Note_on_c, 1, 76, 100
3, 19200, Note_on_c, 1, 80, 100
3, 19388, Note_on_c, 1, 80, 0
3, 19388, Note_on_c, 1, 76, 0
3, 19392, Note_on_c, 1, 76, 100
3, 19392, Note_on_c, 1, 80, 100
3, 19580, Note_on_c, 1, 80, 0
3, 19580, Note_on_c, 1, 76, 0
3, 19584, Note_on_c, 1, 80, 100
3, 19584, Note_on_c, 1, 76, 100
3, 19724, Note_on_c, 1, 76, 0
3, 19724, Note_on_c, 1, 80, 0
3, 19728, Note_on_c, 1, 85, 100
3, 19728, Note_on_c, 1, 81, 100
3, 19868, Note_on_c, 1, 81, 0
3, 19868, Note_on_c, 1, 85, 0
3, 19872, Note_on_c, 1, 85, 100
3, 19872, Note_on_c, 1, 81, 100
3, 19964, Note_on_c, 1, 81, 0
3, 19964, Note_on_c, 1, 85, 0
3, 19968, Note_on_c, 1, 78, 100
3, 19968, Note_on_c, 1, 74, 100
3, 20156, Note_on_c, 1, 74, 0
3, 20156, Note_on_c, 1, 78, 0
3, 20160, Note_on_c, 1, 78, 100
3, 20160, Note_on_c, 1, 74, 100
3, 20348, Note_on_c, 1, 74, 0
3, 20348, Note_on_c, 1, 78, 0
3, 20352, Note_on_c, 1, 74, 100
3, 20352, Note_on_c, 1, 78, 100
3, 20492, Note_on_c, 1, 78, 0
3, 20492, Note_on_c, 1, 74, 0
3, 20496, Note_on_c, 1, 81, 100
3, 20496, Note_on_c, 1, 85, 100
3, 20636, Note_on_c, 1, 85, 0
3, 20636, Note_on_c, 1, 81, 0
3, 20640, Note_on_c, 1, 85, 100
3, 20640, Note_on_c, 1, 81, 100
3, 20732, Note_on_c, 1, 81, 0
3, 20732, Note_on_c, 1, 85, 0
3, 20736, Note_on_c, 1, 74, 100
3, 20736, Note_on_c, 1, 78, 100
3, 20924, Note_on_c, 1, 78, 0
3, 20924, Note_on_c, 1, 74, 0
3, 20928, Note_on_c, 1, 78, 100
3, 20928, Note_on_c, 1, 74, 100
3, 21116, Note_on_c, 1, 74, 0
3, 21116, Note_on_c, 1, 78, 0
3, 21120, Note_on_c, 1, 78, 100
3, 21120, Note_on_c, 1, 74, 100
3, 21260, Note_on_c, 1, 74, 0
3, 21260, Note_on_c, 1, 78, 0
3, 21264, Note_on_c, 1, 81, 100
3, 21264, Note_on_c, 1, 85, 100
3, 21404, Note_on_c, 1, 85, 0
3, 21404, Note_on_c, 1, 81, 0
3, 21408, Note_on_c, 1, 81, 100
3, 21408, Note_on_c, 1, 85, 100
3, 21500, Note_on_c, 1, 85, 0
3, 21500, Note_on_c, 1, 81, 0
3, 21504, Note_on_c, 1, 81, 100
3, 21504, Note_on_c, 1, 78, 100
3, 21692, Note_on_c, 1, 78, 0
3, 21692, Note_on_c, 1, 81, 0
3, 21696, Note_on_c, 1, 81, 100
3, 21696, Note_on_c, 1, 78, 100
3, 21884, Note_on_c, 1, 78, 0
3, 21884, Note_on_c, 1, 81, 0
3, 21888, Note_on_c, 1, 81, 100
3, 21888, Note_on_c, 1, 78, 100
3, 22028, Note_on_c, 1, 78, 0
3, 22028, Note_on_c, 1, 81, 0
3, 22032, Note_on_c, 1, 81, 100
3, 22032, Note_on_c, 1, 85, 100
3, 22172, Note_on_c, 1, 85, 0
3, 22172, Note_on_c, 1, 81, 0
3, 22176, Note_on_c, 1, 85, 100
3, 22176, Note_on_c, 1, 81, 100
3, 22268, Note_on_c, 1, 81, 0
3, 22268, Note_on_c, 1, 85, 0
3, 22272, Note_on_c, 1, 76, 100
3, 22272, Note_on_c, 1, 80, 100
3, 22460, Note_on_c, 1, 80, 0
3, 22460, Note_on_c, 1, 76, 0
3, 22464, Note_on_c, 1, 76, 100
3, 22464, Note_on_c, 1, 80, 100
3, 22652, Note_on_c, 1, 80, 0
3, 22652, Note_on_c, 1, 76, 0
3, 22656, Note_on_c, 1, 80, 100
3, 22656, Note_on_c, 1, 76, 100
3, 22796, Note_on_c, 1, 76, 0
3, 22796, Note_on_c, 1, 80, 0
3, 22800, Note_on_c, 1, 85, 100
3, 22800, Note_on_c, 1, 81, 100
3, 22940, Note_on_c, 1, 81, 0
3, 22940, Note_on_c, 1, 85, 0
3, 22944, Note_on_c, 1, 85, 100
3, 22944, Note_on_c, 1, 81, 100
3, 23036, Note_on_c, 1, 81, 0
3, 23036, Note_on_c, 1, 85, 0
3, 23040, Note_on_c, 1, 78, 100
3, 23040, Note_on_c, 1, 74, 100
3, 23228, Note_on_c, 1, 74, 0
3, 23228, Note_on_c, 1, 78, 0
3, 23232, Note_on_c, 1, 78, 100
3, 23232, Note_on_c, 1, 74, 100
3, 23420, Note_on_c, 1, 74, 0
3, 23420, Note_on_c, 1, 78, 0
3, 23424, Note_on_c, 1, 74, 100
3, 23424, Note_on_c, 1, 78, 100
3, 23564, Note_on_c, 1, 78, 0
3, 23564, Note_on_c, 1, 74, 0
3, 23568, Note_on_c, 1, 81, 100
3, 23568, Note_on_c, 1, 85, 100
3, 23708, Note_on_c, 1, 85, 0
3, 23708, Note_on_c, 1, 81, 0
3, 23712, Note_on_c, 1, 85, 100
3, 23712, Note_on_c, 1, 81, 100
3, 23804, Note_on_c, 1, 81, 0
3, 23804, Note_on_c, 1, 85, 0
3, 23808, Note_on_c, 1, 74, 100
3, 23808, Note_on_c, 1, 78, 100
3, 23996, Note_on_c, 1, 78, 0
3, 23996, Note_on_c, 1, 74, 0
3, 24000, Note_on_c, 1, 78, 100
3, 24000, Note_on_c, 1, 74, 100
3, 24188, Note_on_c, 1, 74, 0
3, 24188, Note_on_c, 1, 78, 0
3, 24192, Note_on_c, 1, 78, 100
3, 24192, Note_on_c, 1, 74, 100
3, 24332, Note_on_c, 1, 74, 0
3, 24332, Note_on_c, 1, 78, 0
3, 24336, Note_on_c, 1, 81, 100
3, 24336, Note_on_c, 1, 85, 100
3, 24476, Note_on_c, 1, 85, 0
3, 24476, Note_on_c, 1, 81, 0
3, 24480, Note_on_c, 1, 81, 100
3, 24480, Note_on_c, 1, 85, 100
3, 24572, Note_on_c, 1, 85, 0
3, 24572, Note_on_c, 1, 81, 0
3, 24576, Note_on_c, 1, 81, 100
3, 24576, Note_on_c, 1, 78, 100
3, 24764, Note_on_c, 1, 78, 0
3, 24764, Note_on_c, 1, 81, 0
3, 24768, Note_on_c, 1, 81, 100
3, 24768, Note_on_c, 1, 78, 100
3, 24956, Note_on_c, 1, 78, 0
3, 24956, Note_on_c, 1, 81, 0
3, 24960, Note_on_c, 1, 81, 100
3, 24960, Note_on_c, 1, 78, 100
3, 25100, Note_on_c, 1, 78, 0
3, 25100, Note_on_c, 1, 81, 0
3, 25104, Note_on_c, 1, 81, 100
3, 25104, Note_on_c, 1, 85, 100
3, 25244, Note_on_c, 1, 85, 0
3, 25244, Note_on_c, 1, 81, 0
3, 25248, Note_on_c, 1, 85, 100
3, 25248, Note_on_c, 1, 81, 100
3, 25340, Note_on_c, 1, 81, 0
3, 25340, Note_on_c, 1, 85, 0
3, 25344, Note_on_c, 1, 76, 100
3, 25344, Note_on_c, 1, 80, 100
3, 25532, Note_on_c, 1, 80, 0
3, 25532, Note_on_c, 1, 76, 0
3, 25536, Note_on_c, 1, 76, 100
3, 25536, Note_on_c, 1, 80, 100
3, 25724, Note_on_c, 1, 80, 0
3, 25724, Note_on_c, 1, 76, 0
3, 25728, Note_on_c, 1, 80, 100
3, 25728, Note_on_c, 1, 76, 100
3, 25868, Note_on_c, 1, 76, 0
3, 25868, Note_on_c, 1, 80, 0
3, 25872, Note_on_c, 1, 85, 100
3, 25872, Note_on_c, 1, 81, 100
3, 26012, Note_on_c, 1, 81, 0
3, 26012, Note_on_c, 1, 85, 0
3, 26016, Note_on_c, 1, 85, 100
3, 26016, Note_on_c, 1, 81, 100
3, 26108, Note_on_c, 1, 81, 0
3, 26108, Note_on_c, 1, 85, 0
3, 26112, Note_on_c, 1, 78, 100
3, 26112, Note_on_c, 1, 74, 100
3, 26300, Note_on_c, 1, 74, 0
3, 26300, Note_on_c, 1, 78, 0
3, 26304, Note_on_c, 1, 78, 100
3, 26304, Note_on_c, 1, 74, 100
3, 26492, Note_on_c, 1, 74, 0
3, 26492, Note_on_c, 1, 78, 0
3, 26496, Note_on_c, 1, 74, 100
3, 26496, Note_on_c, 1, 78, 100
3, 26636, Note_on_c, 1, 78, 0
3, 26636, Note_on_c, 1, 74, 0
3, 26640, Note_on_c, 1, 81, 100
3, 26640, Note_on_c, 1, 85, 100
3, 26780, Note_on_c, 1, 85, 0
3, 26780, Note_on_c, 1, 81, 0
3, 26784, Note_on_c, 1, 85, 100
3, 26784, Note_on_c, 1, 81, 100
3, 26876, Note_on_c, 1, 81, 0
3, 26876, Note_on_c, 1, 85, 0
3, 26880, Note_on_c, 1, 74, 100
3, 26880, Note_on_c, 1, 78, 100
3, 27068, Note_on_c, 1, 78, 0
3, 27068, Note_on_c, 1, 74, 0
3, 27072, Note_on_c, 1, 78, 100
3, 27072, Note_on_c, 1, 74, 100
3, 27260, Note_on_c, 1, 74, 0
3, 27260, Note_on_c, 1, 78, 0
3, 27264, Note_on_c, 1, 78, 100
3, 27264, Note_on_c, 1, 74, 100
3, 27404, Note_on_c, 1, 74, 0
3, 27404, Note_on_c, 1, 78, 0
3, 27408, Note_on_c, 1, 81, 100
3, 27408, Note_on_c, 1, 85, 100
3, 27548, Note_on_c, 1, 85, 0
3, 27548, Note_on_c, 1, 81, 0
3, 27552, Note_on_c, 1, 81, 100
3, 27552, Note_on_c, 1, 85, 100
3, 27644, Note_on_c, 1, 85, 0
3, 27644, Note_on_c, 1, 81, 0
3, 39936, Note_on_c, 1, 81, 100
3, 39936, Note_on_c, 1, 78, 100
3, 40124, Note_on_c, 1, 78, 0
3, 40124, Note_on_c, 1, 81, 0
3, 40128, Note_on_c, 1, 81, 100
3, 40128, Note_on_c, 1, 78, 100
3, 40316, Note_on_c, 1, 78, 0
3, 40316, Note_on_c, 1, 81, 0
3, 40320, Note_on_c, 1, 81, 100
3, 40320, Note_on_c, 1, 78, 100
3, 40460, Note_on_c, 1, 78, 0
3, 40460, Note_on_c, 1, 81, 0
3, 40464, Note_on_c, 1, 81, 100
3, 40464, Note_on_c, 1, 85, 100
3, 40604, Note_on_c, 1, 85, 0
3, 40604, Note_on_c, 1, 81, 0
3, 40608, Note_on_c, 1, 85, 100
3, 40608, Note_on_c, 1, 81, 100
3, 40700, Note_on_c, 1, 81, 0
3, 40700, Note_on_c, 1, 85, 0
3, 40704, Note_on_c, 1, 76, 100
3, 40704, Note_on_c, 1, 80, 100
3, 40892, Note_on_c, 1, 80, 0
3, 40892, Note_on_c, 1, 76, 0
3, 40896, Note_on_c, 1, 76, 100
3, 40896, Note_on_c, 1, 80, 100
3, 41084, Note_on_c, 1, 80, 0
3, 41084, Note_on_c, 1, 76, 0
3, 41088, Note_on_c, 1, 80, 100
3, 41088, Note_on_c, 1, 76, 100
3, 41228, Note_on_c, 1, 76, 0
3, 41228, Note_on_c, 1, 80, 0
3, 41232, Note_on_c, 1, 85, 100
3, 41232, Note_on_c, 1, 81, 100
3, 41372, Note_on_c, 1, 81, 0
3, 41372, Note_on_c, 1, 85, 0
3, 41376, Note_on_c, 1, 85, 100
3, 41376, Note_on_c, 1, 81, 100
3, 41468, Note_on_c, 1, 81, 0
3, 41468, Note_on_c, 1, 85, 0
3, 41472, Note_on_c, 1, 78, 100
3, 41472, Note_on_c, 1, 74, 100
3, 41660, Note_on_c, 1, 74, 0
3, 41660, Note_on_c, 1, 78, 0
3, 41664, Note_on_c, 1, 78, 100
3, 41664, Note_on_c, 1, 74, 100
3, 41852, Note_on_c, 1, 74, 0
3, 41852, Note_on_c, 1, 78, 0
3, 41856, Note_on_c, 1, 74, 100
3, 41856, Note_on_c, 1, 78, 100
3, 41996, Note_on_c, 1, 78, 0
3, 41996, Note_on_c, 1, 74, 0
3, 42000, Note_on_c, 1, 81, 100
3, 42000, Note_on_c, 1, 85, 100
3, 42140, Note_on_c, 1, 85, 0
3, 42140, Note_on_c, 1, 81, 0
3, 42144, Note_on_c, 1, 85, 100
3, 42144, Note_on_c, 1, 81, 100
3, 42236, Note_on_c, 1, 81, 0
3, 42236, Note_on_c, 1, 85, 0
3, 42240, Note_on_c, 1, 74, 100
3, 42240, Note_on_c, 1, 78, 100
3, 42428, Note_on_c, 1, 78, 0
3, 42428, Note_on_c, 1, 74, 0
3, 42432, Note_on_c, 1, 78, 100
3, 42432, Note_on_c, 1, 74, 100
3, 42620, Note_on_c, 1, 74, 0
3, 42620, Note_on_c, 1, 78, 0
3, 42624, Note_on_c, 1, 78, 100
3, 42624, Note_on_c, 1, 74, 100
3, 42764, Note_on_c, 1, 74, 0
3, 42764, Note_on_c, 1, 78, 0
3, 42768, Note_on_c, 1, 81, 100
3, 42768, Note_on_c, 1, 85, 100
3, 42908, Note_on_c, 1, 85, 0
3, 42908, Note_on_c, 1, 81, 0
3, 42912, Note_on_c, 1, 81, 100
3, 42912, Note_on_c, 1, 85, 100
3, 43004, Note_on_c, 1, 85, 0
3, 43004, Note_on_c, 1, 81, 0
3, 43008, Note_on_c, 1, 81, 100
3, 43008, Note_on_c, 1, 78, 100
3, 43196, Note_on_c, 1, 78, 0
3, 43196, Note_on_c, 1, 81, 0
3, 43200, Note_on_c, 1, 81, 100
3, 43200, Note_on_c, 1, 78, 100
3, 43388, Note_on_c, 1, 78, 0
3, 43388, Note_on_c, 1, 81, 0
3, 43392, Note_on_c, 1, 81, 100
3, 43392, Note_on_c, 1, 78, 100
3, 43532, Note_on_c, 1, 78, 0
3, 43532, Note_on_c, 1, 81, 0
3, 43536, Note_on_c, 1, 81, 100
3, 43536, Note_on_c, 1, 85, 100
3, 43676, Note_on_c, 1, 85, 0
3, 43676, Note_on_c, 1, 81, 0
3, 43680, Note_on_c, 1, 85, 100
3, 43680, Note_on_c, 1, 81, 100
3, 43772, Note_on_c, 1, 81, 0
3, 43772, Note_on_c, 1, 85, 0
3, 43776, Note_on_c, 1, 76, 100
3, 43776, Note_on_c, 1, 80, 100
3, 43964, Note_on_c, 1, 80, 0
3, 43964, Note_on_c, 1, 76, 0
3, 43968, Note_on_c, 1, 76, 100
3, 43968, Note_on_c, 1, 80, 100
3, 44156, Note_on_c, 1, 80, 0
3, 44156, Note_on_c, 1, 76, 0
3, 44160, Note_on_c, 1, 80, 100
3, 44160, Note_on_c, 1, 76, 100
3, 44300, Note_on_c, 1, 76, 0
3, 44300, Note_on_c, 1, 80, 0
3, 44304, Note_on_c, 1, 85, 100
3, 44304, Note_on_c, 1, 81, 100
3, 44444, Note_on_c, 1, 81, 0
3, 44444, Note_on_c, 1, 85, 0
3, 44448, Note_on_c, 1, 85, 100
3, 44448, Note_on_c, 1, 81, 100
3, 44540, Note_on_c, 1, 81, 0
3, 44540, Note_on_c, 1, 85, 0
3, 44544, Note_on_c, 1, 78, 100
3, 44544, Note_on_c, 1, 74, 100
3, 44732, Note_on_c, 1, 74, 0
3, 44732, Note_on_c, 1, 78, 0
3, 44736, Note_on_c, 1, 78, 100
3, 44736, Note_on_c, 1, 74, 100
3, 44924, Note_on_c, 1, 74, 0
3, 44924, Note_on_c, 1, 78, 0
3, 44928, Note_on_c, 1, 74, 100
3, 44928, Note_on_c, 1, 78, 100
3, 45068, Note_on_c, 1, 78, 0
3, 45068, Note_on_c, 1, 74, 0
3, 45072, Note_on_c, 1, 81, 100
3, 45072, Note_on_c, 1, 85, 100
3, 45212, Note_on_c, 1, 85, 0
3, 45212, Note_on_c, 1, 81, 0
3, 45216, Note_on_c, 1, 85, 100
3, 45216, Note_on_c, 1, 81, 100
3, 45308, Note_on_c, 1, 81, 0
3, 45308, Note_on_c, 1, 85, 0
3, 45312, Note_on_c, 1, 74, 100
3, 45312, Note_on_c, 1, 78, 100
3, 45500, Note_on_c, 1, 78, 0
3, 45500, Note_on_c, 1, 74, 0
3, 45504, Note_on_c, 1, 78, 100
3, 45504, Note_on_c, 1, 74, 100
3, 45692, Note_on_c, 1, 74, 0
3, 45692, Note_on_c, 1, 78, 0
3, 45696, Note_on_c, 1, 78, 100
3, 45696, Note_on_c, 1, 74, 100
3, 45836, Note_on_c, 1, 74, 0
3, 45836, Note_on_c, 1, 78, 0
3, 45840, Note_on_c, 1, 81, 100
3, 45840, Note_on_c, 1, 85, 100
3, 45980, Note_on_c, 1, 85, 0
3, 45980, Note_on_c, 1, 81, 0
3, 45984, Note_on_c, 1, 81, 100
3, 45984, Note_on_c, 1, 85, 100
3, 46076, Note_on_c, 1, 85, 0
3, 46076, Note_on_c, 1, 81, 0
3, 46080, Note_on_c, 1, 81, 100
3, 46080, Note_on_c, 1, 78, 100
3, 46268, Note_on_c, 1, 78, 0
3, 46268, Note_on_c, 1, 81, 0
3, 46272, Note_on_c, 1, 81, 100
3, 46272, Note_on_c, 1, 78, 100
3, 46460, Note_on_c, 1, 78, 0
3, 46460, Note_on_c, 1, 81, 0
3, 46464, Note_on_c, 1, 81, 100
3, 46464, Note_on_c, 1, 78, 100
3, 46604, Note_on_c, 1, 78, 0
3, 46604, Note_on_c, 1, 81, 0
3, 46608, Note_on_c, 1, 81, 100
3, 46608, Note_on_c, 1, 85, 100
3, 46748, Note_on_c, 1, 85, 0
3, 46748, Note_on_c, 1, 81, 0
3, 46752, Note_on_c, 1, 85, 100
3, 46752, Note_on_c, 1, 81, 100
3, 46844, Note_on_c, 1, 81, 0
3, 46844, Note_on_c, 1, 85, 0
3, 46848, Note_on_c, 1, 76, 100
3, 46848, Note_on_c, 1, 80, 100
3, 47036, Note_on_c, 1, 80, 0
3, 47036, Note_on_c, 1, 76, 0
3, 47040, Note_on_c, 1, 76, 100
3, 47040, Note_on_c, 1, 80, 100
3, 47228, Note_on_c, 1, 80, 0
3, 47228, Note_on_c, 1, 76, 0
3, 47232, Note_on_c, 1, 80, 100
3, 47232, Note_on_c, 1, 76, 100
3, 47372, Note_on_c, 1, 76, 0
3, 47372, Note_on_c, 1, 80, 0
3, 47376, Note_on_c, 1, 85, 100
3, 47376, Note_on_c, 1, 81, 100
3, 47516, Note_on_c, 1, 81, 0
3, 47516, Note_on_c, 1, 85, 0
3, 47520, Note_on_c, 1, 85, 100
3, 47520, Note_on_c, 1, 81, 100
3, 47612, Note_on_c, 1, 81, 0
3, 47612, Note_on_c, 1, 85, 0
3, 47616, Note_on_c, 1, 78, 100
3, 47616, Note_on_c, 1, 74, 100
3, 47804, Note_on_c, 1, 74, 0
3, 47804, Note_on_c, 1, 78, 0
3, 47808, Note_on_c, 1, 78, 100
3, 47808, Note_on_c, 1, 74, 100
3, 47996, Note_on_c, 1, 74, 0
3, 47996, Note_on_c, 1, 78, 0
3, 48000, Note_on_c, 1, 74, 100
3, 48000, Note_on_c, 1, 78, 100
3, 48140, Note_on_c, 1, 78, 0
3, 48140, Note_on_c, 1, 74, 0
3, 48144, Note_on_c, 1, 81, 100
3, 48144, Note_on_c, 1, 85, 100
3, 48284, Note_on_c, 1, 85, 0
3, 48284, Note_on_c, 1, 81, 0
3, 48288, Note_on_c, 1, 85, 100
3, 48288, Note_on_c, 1, 81, 100
3, 48380, Note_on_c, 1, 81, 0
3, 48380, Note_on_c, 1, 85, 0
3, 48384, Note_on_c, 1, 74, 100
3, 48384, Note_on_c, 1, 78, 100
3, 48572, Note_on_c, 1, 78, 0
3, 48572, Note_on_c, 1, 74, 0
3, 48576, Note_on_c, 1, 78, 100
3, 48576, Note_on_c, 1, 74, 100
3, 48764, Note_on_c, 1, 74, 0
3, 48764, Note_on_c, 1, 78, 0
3, 48768, Note_on_c, 1, 78, 100
3, 48768, Note_on_c, 1, 74, 100
3, 48908, Note_on_c, 1, 74, 0
3, 48908, Note_on_c, 1, 78, 0
3, 48912, Note_on_c, 1, 81, 100
3, 48912, Note_on_c, 1, 85, 100
3, 49052, Note_on_c, 1, 85, 0
3, 49052, Note_on_c, 1, 81, 0
3, 49056, Note_on_c, 1, 81, 100
3, 49056, Note_on_c, 1, 85, 100
3, 49148, Note_on_c, 1, 85, 0
3, 49148, Note_on_c, 1, 81, 0
3, 49152, Note_on_c, 1, 81, 100
3, 49152, Note_on_c, 1, 78, 100
3, 49340, Note_on_c, 1, 78, 0
3, 49340, Note_on_c, 1, 81, 0
3, 49344, Note_on_c, 1, 81, 100
3, 49344, Note_on_c, 1, 78, 100
3, 49532, Note_on_c, 1, 78, 0
3, 49532, Note_on_c, 1, 81, 0
3, 49536, Note_on_c, 1, 81, 100
3, 49536, Note_on_c, 1, 78, 100
3, 49676, Note_on_c, 1, 78, 0
3, 49676, Note_on_c, 1, 81, 0
3, 49680, Note_on_c, 1, 81, 100
3, 49680, Note_on_c, 1, 85, 100
3, 49820, Note_on_c, 1, 85, 0
3, 49820, Note_on_c, 1, 81, 0
3, 49824, Note_on_c, 1, 85, 100
3, 49824, Note_on_c, 1, 81, 100
3, 49916, Note_on_c, 1, 81, 0
3, 49916, Note_on_c, 1, 85, 0
3, 49920, Note_on_c, 1, 76, 100
3, 49920, Note_on_c, 1, 80, 100
3, 50108, Note_on_c, 1, 80, 0
3, 50108, Note_on_c, 1, 76, 0
3, 50112, Note_on_c, 1, 76, 100
3, 50112, Note_on_c, 1, 80, 100
3, 50300, Note_on_c, 1, 80, 0
3, 50300, Note_on_c, 1, 76, 0
3, 50304, Note_on_c, 1, 80, 100
3, 50304, Note_on_c, 1, 76, 100
3, 50444, Note_on_c, 1, 76, 0
3, 50444, Note_on_c, 1, 80, 0
3, 50448, Note_on_c, 1, 85, 100
3, 50448, Note_on_c, 1, 81, 100
3, 50588, Note_on_c, 1, 81, 0
3, 50588, Note_on_c, 1, 85, 0
3, 50592, Note_on_c, 1, 85, 100
3, 50592, Note_on_c, 1, 81, 100
3, 50684, Note_on_c, 1, 81, 0
3, 50684, Note_on_c, 1, 85, 0
3, 50688, Note_on_c, 1, 78, 100
3, 50688, Note_on_c, 1, 74, 100
3, 50876, Note_on_c, 1, 74, 0
3, 50876, Note_on_c, 1, 78, 0
3, 50880, Note_on_c, 1, 78, 100
3, 50880, Note_on_c, 1, 74, 100
3, 51068, Note_on_c, 1, 74, 0
3, 51068, Note_on_c, 1, 78, 0
3, 51072, Note_on_c, 1, 74, 100
3, 51072, Note_on_c, 1, 78, 100
3, 51212, Note_on_c, 1, 78, 0
3, 51212, Note_on_c, 1, 74, 0
3, 51216, Note_on_c, 1, 81, 100
3, 51216, Note_on_c, 1, 85, 100
3, 51356, Note_on_c, 1, 85, 0
3, 51356, Note_on_c, 1, 81, 0
3, 51360, Note_on_c, 1, 85, 100
3, 51360, Note_on_c, 1, 81, 100
3, 51452, Note_on_c, 1, 81, 0
3, 51452, Note_on_c, 1, 85, 0
3, 51456, Note_on_c, 1, 74, 100
3, 51456, Note_on_c, 1, 78, 100
3, 51644, Note_on_c, 1, 78, 0
3, 51644, Note_on_c, 1, 74, 0
3, 51648, Note_on_c, 1, 78, 100
3, 51648, Note_on_c, 1, 74, 100
3, 51836, Note_on_c, 1, 74, 0
3, 51836, Note_on_c, 1, 78, 0
3, 51840, Note_on_c, 1, 78, 100
3, 51840, Note_on_c, 1, 74, 100
3, 51980, Note_on_c, 1, 74, 0
3, 51980, Note_on_c, 1, 78, 0
3, 51984, Note_on_c, 1, 81, 100
3, 51984, Note_on_c, 1, 85, 100
3, 52124, Note_on_c, 1, 85, 0
3, 52124, Note_on_c, 1, 81, 0
3, 52128, Note_on_c, 1, 81, 100
3, 52128, Note_on_c, 1, 85, 100
3, 52220, Note_on_c, 1, 85, 0
3, 52220, Note_on_c, 1, 81, 0
3, 58368, Note_on_c, 1, 81, 100
3, 58368, Note_on_c, 1, 78, 100
3, 58556, Note_on_c, 1, 78, 0
3, 58556, Note_on_c, 1, 81, 0
3, 58560, Note_on_c, 1, 81, 100
3, 58560, Note_on_c, 1, 78, 100
3, 58748, Note_on_c, 1, 78, 0
3, 58748, Note_on_c, 1, 81, 0
3, 58752, Note_on_c, 1, 81, 100
3, 58752, Note_on_c, 1, 78, 100
3, 58892, Note_on_c, 1, 78, 0
3, 58892, Note_on_c, 1, 81, 0
3, 58896, Note_on_c, 1, 81, 100
3, 58896, Note_on_c, 1, 85, 100
3, 59036, Note_on_c, 1, 85, 0
3, 59036, Note_on_c, 1, 81, 0
3, 59040, Note_on_c, 1, 85, 100
3, 59040, Note_on_c, 1, 81, 100
3, 59132, Note_on_c, 1, 81, 0
3, 59132, Note_on_c, 1, 85, 0
3, 59136, Note_on_c, 1, 76, 100
3, 59136, Note_on_c, 1, 80, 100
3, 59324, Note_on_c, 1, 80, 0
3, 59324, Note_on_c, 1, 76, 0
3, 59328, Note_on_c, 1, 76, 100
3, 59328, Note_on_c, 1, 80, 100
3, 59516, Note_on_c, 1, 80, 0
3, 59516, Note_on_c, 1, 76, 0
3, 59520, Note_on_c, 1, 80, 100
3, 59520, Note_on_c, 1, 76, 100
3, 59660, Note_on_c, 1, 76, 0
3, 59660, Note_on_c, 1, 80, 0
3, 59664, Note_on_c, 1, 85, 100
3, 59664, Note_on_c, 1, 81, 100
3, 59804, Note_on_c, 1, 81, 0
3, 59804, Note_on_c, 1, 85, 0
3, 59808, Note_on_c, 1, 85, 100
3, 59808, Note_on_c, 1, 81, 100
3, 59900, Note_on_c, 1, 81, 0
3, 59900, Note_on_c, 1, 85, 0
3, 59904, Note_on_c, 1, 78, 100
3, 59904, Note_on_c, 1, 74, 100
3, 60092, Note_on_c, 1, 74, 0
3, 60092, Note_on_c, 1, 78, 0
3, 60096, Note_on_c, 1, 78, 100
3, 60096, Note_on_c, 1, 74, 100
3, 60284, Note_on_c, 1, 74, 0
3, 60284, Note_on_c, 1, 78, 0
3, 60288, Note_on_c, 1, 74, 100
3, 60288, Note_on_c, 1, 78, 100
3, 60428, Note_on_c, 1, 78, 0
3, 60428, Note_on_c, 1, 74, 0
3, 60432, Note_on_c, 1, 81, 100
3, 60432, Note_on_c, 1, 85, 100
3, 60572, Note_on_c, 1, 85, 0
3, 60572, Note_on_c, 1, 81, 0
3, 60576, Note_on_c, 1, 85, 100
3, 60576, Note_on_c, 1, 81, 100
3, 60668, Note_on_c, 1, 81, 0
3, 60668, Note_on_c, 1, 85, 0
3, 60672, Note_on_c, 1, 74, 100
3, 60672, Note_on_c, 1, 78, 100
3, 60860, Note_on_c, 1, 78, 0
3, 60860, Note_on_c, 1, 74, 0
3, 60864, Note_on_c, 1, 78, 100
3, 60864, Note_on_c, 1, 74, 100
3, 61052, Note_on_c, 1, 74, 0
3, 61052, Note_on_c, 1, 78, 0
3, 61056, Note_on_c, 1, 78, 100
3, 61056, Note_on_c, 1, 74, 100
3, 61196, Note_on_c, 1, 74, 0
3, 61196, Note_on_c, 1, 78, 0
3, 61200, Note_on_c, 1, 81, 100
3, 61200, Note_on_c, 1, 85, 100
3, 61340, Note_on_c, 1, 85, 0
3, 61340, Note_on_c, 1, 81, 0
3, 61344, Note_on_c, 1, 81, 100
3, 61344, Note_on_c, 1, 85, 100
3, 61436, Note_on_c, 1, 85, 0
3, 61436, Note_on_c, 1, 81, 0
3, 61440, Note_on_c, 1, 81, 100
3, 61440, Note_on_c, 1, 78, 100
3, 61628, Note_on_c, 1, 78, 0
3, 61628, Note_on_c, 1, 81, 0
3, 61632, Note_on_c, 1, 81, 100
3, 61632, Note_on_c, 1, 78, 100
3, 61820, Note_on_c, 1, 78, 0
3, 61820, Note_on_c, 1, 81, 0
3, 61824, Note_on_c, 1, 81, 100
3, 61824, Note_on_c, 1, 78, 100
3, 61964, Note_on_c, 1, 78, 0
3, 61964, Note_on_c, 1, 81, 0
3, 61968, Note_on_c, 1, 81, 100
3, 61968, Note_on_c, 1, 85, 100
3, 62108, Note_on_c, 1, 85, 0
3, 62108, Note_on_c, 1, 81, 0
3, 62112, Note_on_c, 1, 85, 100
3, 62112, Note_on_c, 1, 81, 100
3, 62204, Note_on_c, 1, 81, 0
3, 62204, Note_on_c, 1, 85, 0
3, 62208, Note_on_c, 1, 76, 100
3, 62208, Note_on_c, 1, 80, 100
3, 62396, Note_on_c, 1, 80, 0
3, 62396, Note_on_c, 1, 76, 0
3, 62400, Note_on_c, 1, 76, 100
3, 62400, Note_on_c, 1, 80, 100
3, 62588, Note_on_c, 1, 80, 0
3, 62588, Note_on_c, 1, 76, 0
3, 62592, Note_on_c, 1, 80, 100
3, 62592, Note_on_c, 1, 76, 100
3, 62732, Note_on_c, 1, 76, 0
3, 62732, Note_on_c, 1, 80, 0
3, 62736, Note_on_c, 1, 85, 100
3, 62736, Note_on_c, 1, 81, 100
3, 62876, Note_on_c, 1, 81, 0
3, 62876, Note_on_c, 1, 85, 0
3, 62880, Note_on_c, 1, 85, 100
3, 62880, Note_on_c, 1, 81, 100
3, 62972, Note_on_c, 1, 81, 0
3, 62972, Note_on_c, 1, 85, 0
3, 62976, Note_on_c, 1, 78, 100
3, 62976, Note_on_c, 1, 74, 100
3, 63164, Note_on_c, 1, 74, 0
3, 63164, Note_on_c, 1, 78, 0
3, 63168, Note_on_c, 1, 78, 100
3, 63168, Note_on_c, 1, 74, 100
3, 63356, Note_on_c, 1, 74, 0
3, 63356, Note_on_c, 1, 78, 0
3, 63360, Note_on_c, 1, 74, 100
3, 63360, Note_on_c, 1, 78, 100
3, 63500, Note_on_c, 1, 78, 0
3, 63500, Note_on_c, 1, 74, 0
3, 63504, Note_on_c, 1, 81, 100
3, 63504, Note_on_c, 1, 85, 100
3, 63644, Note_on_c, 1, 85, 0
3, 63644, Note_on_c, 1, 81, 0
3, 63648, Note_on_c, 1, 85, 100
3, 63648, Note_on_c, 1, 81, 100
3, 63740, Note_on_c, 1, 81, 0
3, 63740, Note_on_c, 1, 85, 0
3, 63744, Note_on_c, 1, 74, 100
3, 63744, Note_on_c, 1, 78, 100
3, 63932, Note_on_c, 1, 78, 0
3, 63932, Note_on_c, 1, 74, 0
3, 63936, Note_on_c, 1, 78, 100
3, 63936, Note_on_c, 1, 74, 100
3, 64124, Note_on_c, 1, 74, 0
3, 64124, Note_on_c, 1, 78, 0
3, 64128, Note_on_c, 1, 78, 100
3, 64128, Note_on_c, 1, 74, 100
3, 64268, Note_on_c, 1, 74, 0
3, 64268, Note_on_c, 1, 78, 0
3, 64272, Note_on_c, 1, 81, 100
3, 64272, Note_on_c, 1, 85, 100
3, 64412, Note_on_c, 1, 85, 0
3, 64412, Note_on_c, 1, 81, 0
3, 64416, Note_on_c, 1, 81, 100
3, 64416, Note_on_c, 1, 85, 100
3, 64508, Note_on_c, 1, 85, 0
3, 64508, Note_on_c, 1, 81, 0
3, 64512, Note_on_c, 1, 81, 100
3, 64512, Note_on_c, 1, 78, 100
3, 64700, Note_on_c, 1, 78, 0
3, 64700, Note_on_c, 1, 81, 0
3, 64704, Note_on_c, 1, 81, 100
3, 64704, Note_on_c, 1, 78, 100
3, 64892, Note_on_c, 1, 78, 0
3, 64892, Note_on_c, 1, 81, 0
3, 64896, Note_on_c, 1, 81, 100
3, 64896, Note_on_c, 1, 78, 100
3, 65036, Note_on_c, 1, 78, 0
3, 65036, Note_on_c, 1, 81, 0
3, 65040, Note_on_c, 1, 81, 100
3, 65040, Note_on_c, 1, 85, 100
3, 65180, Note_on_c, 1, 85, 0
3, 65180, Note_on_c, 1, 81, 0
3, 65184, Note_on_c, 1, 85, 100
3, 65184, Note_on_c, 1, 81, 100
3, 65276, Note_on_c, 1, 81, 0
3, 65276, Note_on_c, 1, 85, 0
3, 65280, Note_on_c, 1, 76, 100
3, 65280, Note_on_c, 1, 80, 100
3, 65468, Note_on_c, 1, 80, 0
3, 65468, Note_on_c, 1, 76, 0
3, 65472, Note_on_c, 1, 76, 100
3, 65472, Note_on_c, 1, 80, 100
3, 65660, Note_on_c, 1, 80, 0
3, 65660, Note_on_c, 1, 76, 0
3, 65664, Note_on_c, 1, 80, 100
3, 65664, Note_on_c, 1, 76, 100
3, 65804, Note_on_c, 1, 76, 0
3, 65804, Note_on_c, 1, 80, 0
3, 65808, Note_on_c, 1, 85, 100
3, 65808, Note_on_c, 1, 81, 100
3, 65948, Note_on_c, 1, 81, 0
3, 65948, Note_on_c, 1, 85, 0
3, 65952, Note_on_c, 1, 85, 100
3, 65952, Note_on_c, 1, 81, 100
3, 66044, Note_on_c, 1, 81, 0
3, 66044, Note_on_c, 1, 85, 0
3, 66048, Note_on_c, 1, 78, 100
3, 66048, Note_on_c, 1, 74, 100
3, 66236, Note_on_c, 1, 74, 0
3, 66236, Note_on_c, 1, 78, 0
3, 66240, Note_on_c, 1, 78, 100
3, 66240, Note_on_c, 1, 74, 100
3, 66428, Note_on_c, 1, 74, 0
3, 66428, Note_on_c, 1, 78, 0
3, 66432, Note_on_c, 1, 74, 100
3, 66432, Note_on_c, 1, 78, 100
3, 66572, Note_on_c, 1, 78, 0
3, 66572, Note_on_c, 1, 74, 0
3, 66576, Note_on_c, 1, 81, 100
3, 66576, Note_on_c, 1, 85, 100
3, 66716, Note_on_c, 1, 85, 0
3, 66716, Note_on_c, 1, 81, 0
3, 66720, Note_on_c, 1, 85, 100
3, 66720, Note_on_c, 1, 81, 100
3, 66812, Note_on_c, 1, 81, 0
3, 66812, Note_on_c, 1, 85, 0
3, 66816, Note_on_c, 1, 74, 100
3, 66816, Note_on_c, 1, 78, 100
3, 67004, Note_on_c, 1, 78, 0
3, 67004, Note_on_c, 1, 74, 0
3, 67008, Note_on_c, 1, 78, 100
3, 67008, Note_on_c, 1, 74, 100
3, 67196, Note_on_c, 1, 74, 0
3, 67196, Note_on_c, 1, 78, 0
3, 67200, Note_on_c, 1, 78, 100
3, 67200, Note_on_c, 1, 74, 100
3, 67340, Note_on_c, 1, 74, 0
3, 67340, Note_on_c, 1, 78, 0
3, 67344, Note_on_c, 1, 81, 100
3, 67344, Note_on_c, 1, 85, 100
3, 67484, Note_on_c, 1, 85, 0
3, 67484, Note_on_c, 1, 81, 0
3, 67488, Note_on_c, 1, 81, 100
3, 67488, Note_on_c, 1, 85, 100
3, 67580, Note_on_c, 1, 85, 0
3, 67580, Note_on_c, 1, 81, 0
3, 67584, Note_on_c, 1, 81, 100
3, 67584, Note_on_c, 1, 78, 100
3, 67772, Note_on_c, 1, 78, 0
3, 67772, Note_on_c, 1, 81, 0
3, 67776, Note_on_c, 1, 81, 100
3, 67776, Note_on_c, 1, 78, 100
3, 67964, Note_on_c, 1, 78, 0
3, 67964, Note_on_c, 1, 81, 0
3, 67968, Note_on_c, 1, 81, 100
3, 67968, Note_on_c, 1, 78, 100
3, 68108, Note_on_c, 1, 78, 0
3, 68108, Note_on_c, 1, 81, 0
3, 68112, Note_on_c, 1, 81, 100
3, 68112, Note_on_c, 1, 85, 100
3, 68252, Note_on_c, 1, 85, 0
3, 68252, Note_on_c, 1, 81, 0
3, 68256, Note_on_c, 1, 85, 100
3, 68256, Note_on_c, 1, 81, 100
3, 68348, Note_on_c, 1, 81, 0
3, 68348, Note_on_c, 1, 85, 0
3, 68352, Note_on_c, 1, 76, 100
3, 68352, Note_on_c, 1, 80, 100
3, 68540, Note_on_c, 1, 80, 0
3, 68540, Note_on_c, 1, 76, 0
3, 68544, Note_on_c, 1, 76, 100
3, 68544, Note_on_c, 1, 80, 100
3, 68732, Note_on_c, 1, 80, 0
3, 68732, Note_on_c, 1, 76, 0
3, 68736, Note_on_c, 1, 80, 100
3, 68736, Note_on_c, 1, 76, 100
3, 68876, Note_on_c, 1, 76, 0
3, 68876, Note_on_c, 1, 80, 0
3, 68880, Note_on_c, 1, 85, 100
3, 68880, Note_on_c, 1, 81, 100
3, 69020, Note_on_c, 1, 81, 0
3, 69020, Note_on_c, 1, 85, 0
3, 69024, Note_on_c, 1, 85, 100
3, 69024, Note_on_c, 1, 81, 100
3, 69116, Note_on_c, 1, 81, 0
3, 69116, Note_on_c, 1, 85, 0
3, 69120, Note_on_c, 1, 78, 100
3, 69120, Note_on_c, 1, 74, 100
3, 69308, Note_on_c, 1, 74, 0
3, 69308, Note_on_c, 1, 78, 0
3, 69312, Note_on_c, 1, 78, 100
3, 69312, Note_on_c, 1, 74, 100
3, 69500, Note_on_c, 1, 74, 0
3, 69500, Note_on_c, 1, 78, 0
3, 69504, Note_on_c, 1, 74, 100
3, 69504, Note_on_c, 1, 78, 100
3, 69644, Note_on_c, 1, 78, 0
3, 69644, Note_on_c, 1, 74, 0
3, 69648, Note_on_c, 1, 81, 100
3, 69648, Note_on_c, 1, 85, 100
3, 69788, Note_on_c, 1, 85, 0
3, 69788, Note_on_c, 1, 81, 0
3, 69792, Note_on_c, 1, 85, 100
3, 69792, Note_on_c, 1, 81, 100
3, 69884, Note_on_c, 1, 81, 0
3, 69884, Note_on_c, 1, 85, 0
3, 69888, Note_on_c, 1, 74, 100
3, 69888, Note_on_c, 1, 78, 100
3, 70076, Note_on_c, 1, 78, 0
3, 70076, Note_on_c, 1, 74, 0
3, 70080, Note_on_c, 1, 78, 100
3, 70080, Note_on_c, 1, 74, 100
3, 70268, Note_on_c, 1, 74, 0
3, 70268, Note_on_c, 1, 78, 0
3, 70272, Note_on_c, 1, 78, 100
3, 70272, Note_on_c, 1, 74, 100
3, 70412, Note_on_c, 1, 74, 0
3, 70412, Note_on_c, 1, 78, 0
3, 70416, Note_on_c, 1, 81, 100
3, 70416, Note_on_c, 1, 85, 100
3, 70556, Note_on_c, 1, 85, 0
3, 70556, Note_on_c, 1, 81, 0
3, 70560, Note_on_c, 1, 81, 100
3, 70560, Note_on_c, 1, 85, 100
3, 70652, Note_on_c, 1, 85, 0
3, 70652, Note_on_c, 1, 81, 0
3, 76795, Control_c, 1, 101, 0
3, 76796, Control_c, 1, 100, 0
3, 76797, Control_c, 1, 6, 12
3, 76798, Control_c, 1, 38, 0
3, 76800, Control_c, 1, 10, 64
3, 76800, Control_c, 1, 11, 127
3, 76800, Pitch_bend_c, 1, 8192
3, 76800, Program_c, 1, 82
3, 76800, Control_c, 1, 101, 0
3, 76801, Control_c, 1, 100, 0
3, 76802, Control_c, 1, 6, 12
3, 76803, Control_c, 1, 38, 0
3, 76803, Control_c, 1, 10, 64
3, 76803, Control_c, 1, 11, 127
3, 76803, Control_c, 1, 101, 0
3, 76804, Control_c, 1, 100, 0
3, 76805, Control_c, 1, 6, 12
3, 76806, Control_c, 1, 38, 0
3, 76806, Control_c, 1, 10, 64
3, 76806, Control_c, 1, 11, 127
3, 76806, Pitch_bend_c, 1, 8192
3, 76806, Program_c, 1, 82
3, 76806, End_track
4, 0, Start_track
4, 0, Channel_prefix, 2
4, 0, Title_t, "Sytrus (MI"
4, 0, Program_c, 2, 50
4, 0, Control_c, 2, 7, 92
4, 0, Control_c, 2, 10, 64
4, 0, Control_c, 2, 91, 23
4, 0, Control_c, 2, 93, 12
4, 0, Control_c, 2, 11, 127
4, 0, Control_c, 2, 101, 0
4, 1, Control_c, 2, 100, 0
4, 2, Control_c, 2, 6, 12
4, 3, Control_c, 2, 38, 0
4, 3, Control_c, 2, 10, 64
4, 3, Control_c, 2, 11, 127
4, 3, Control_c, 2, 101, 0
4, 4, Control_c, 2, 100, 0
4, 5, Control_c, 2, 6, 12
4, 6, Control_c, 2, 38, 0
4, 6, Control_c, 2, 10, 64
4, 6, Control_c, 2, 11, 127
4, 6, Control_c, 2, 10, 64
4, 6, Control_c, 2, 11, 127
4, 6, Control_c, 2, 101, 0
4, 7, Control_c, 2, 100, 0
4, 8, Control_c, 2, 6, 12
4, 9, Control_c, 2, 38, 0
4, 9, Control_c, 2, 10, 64
4, 9, Control_c, 2, 11, 127
4, 9, Control_c, 2, 10, 64
4, 9, Control_c, 2, 11, 127
4, 9, Pitch_bend_c, 2, 8192
4, 15360, Note_on_c, 2, 61, 100
4, 15360, Note_on_c, 2, 57, 100
4, 15360, Note_on_c, 2, 54, 100
4, 16124, Note_on_c, 2, 54, 0
4, 16124, Note_on_c, 2, 57, 0
4, 16124, Note_on_c, 2, 61, 0
4, 16128, Note_on_c, 2, 52, 100
4, 16128, Note_on_c, 2, 59, 100
4, 16128, Note_on_c, 2, 56, 100
4, 16892, Note_on_c, 2, 56, 0
4, 16892, Note_on_c, 2, 59, 0
4, 16892, Note_on_c, 2, 52, 0
4, 16896, Note_on_c, 2, 57, 100
4, 16896, Note_on_c, 2, 54, 100
4, 16896, Note_on_c, 2, 50, 100
4, 17660, Note_on_c, 2, 50, 0
4, 17660, Note_on_c, 2, 54, 0
4, 17660, Note_on_c, 2, 57, 0
4, 17664, Note_on_c, 2, 50, 100
4, 17664, Note_on_c, 2, 54, 100
4, 17664, Note_on_c, 2, 57, 100
4, 18428, Note_on_c, 2, 57, 0
4, 18428, Note_on_c, 2, 54, 0
4, 18428, Note_on_c, 2, 50, 0
4, 18432, Note_on_c, 2, 61, 100
4, 18432, Note_on_c, 2, 57, 100
4, 18432, Note_on_c, 2, 54, 100
4, 19196, Note_on_c, 2, 54, 0
4, 19196, Note_on_c, 2, 57, 0
4, 19196, Note_on_c, 2, 61, 0
4, 19200, Note_on_c, 2, 52, 100
4, 19200, Note_on_c, 2, 59, 100
4, 19200, Note_on_c, 2, 56, 100
4, 19964, Note_on_c, 2, 56, 0
4, 19964, Note_on_c, 2, 59, 0
4, 19964, Note_on_c, 2, 52, 0
4, 19968, Note_on_c, 2, 57, 100
4, 19968, Note_on_c, 2, 54, 100
4, 19968, Note_on_c, 2, 50, 100
4, 20732, Note_on_c, 2, 50, 0
4, 20732, Note_on_c, 2, 54, 0
4, 20732, Note_on_c, 2, 57, 0
4, 20736, Note_on_c, 2, 50, 100
4, 20736, Note_on_c, 2, 54, 100
4, 20736, Note_on_c, 2, 57, 100
4, 21500, Note_on_c, 2, 57, 0
4, 21500, Note_on_c, 2, 54, 0
4, 21500, Note_on_c, 2, 50, 0
4, 21504, Note_on_c, 2, 61, 100
4, 21504, Note_on_c, 2, 57, 100
4, 21504, Note_on_c, 2, 54, 100
4, 22268, Note_on_c, 2, 54, 0
4, 22268, Note_on_c, 2, 57, 0
4, 22268, Note_on_c, 2, 61, 0
4, 22272, Note_on_c, 2, 52, 100
4, 22272, Note_on_c, 2, 59, 100
4, 22272, Note_on_c, 2, 56, 100
4, 23036, Note_on_c, 2, 56, 0
4, 23036, Note_on_c, 2, 59, 0
4, 23036, Note_on_c, 2, 52, 0
4, 23040, Note_on_c, 2, 57, 100
4, 23040, Note_on_c, 2, 54, 100
4, 23040, Note_on_c, 2, 50, 100
4, 23804, Note_on_c, 2, 50, 0
4, 23804, Note_on_c, 2, 54, 0
4, 23804, Note_on_c, 2, 57, 0
4, 23808, Note_on_c, 2, 50, 100
4, 23808, Note_on_c, 2, 54, 100
4, 23808, Note_on_c, 2, 57, 100
4, 24572, Note_on_c, 2, 57, 0
4, 24572, Note_on_c, 2, 54, 0
4, 24572, Note_on_c, 2, 50, 0
4, 24576, Note_on_c, 2, 61, 100
4, 24576, Note_on_c, 2, 57, 100
4, 24576, Note_on_c, 2, 54, 100
4, 25340, Note_on_c, 2, 54, 0
4, 25340, Note_on_c, 2, 57, 0
4, 25340, Note_on_c, 2, 61, 0
4, 25344, Note_on_c, 2, 52, 100
4, 25344, Note_on_c, 2, 59, 100
4, 25344, Note_on_c, 2, 56, 100
4, 26108, Note_on_c, 2, 56, 0
4, 26108, Note_on_c, 2, 59, 0
4, 26108, Note_on_c, 2, 52, 0
4, 26112, Note_on_c, 2, 57, 100
4, 26112, Note_on_c, 2, 54, 100
4, 26112, Note_on_c, 2, 50, 100
4, 26876, Note_on_c, 2, 50, 0
4, 26876, Note_on_c, 2, 54, 0
4, 26876, Note_on_c, 2, 57, 0
4, 26880, Note_on_c, 2, 50, 100
4, 26880, Note_on_c, 2, 54, 100
4, 26880, Note_on_c, 2, 57, 100
4, 27644, Note_on_c, 2, 57, 0
4, 27644, Note_on_c, 2, 54, 0
4, 27644, Note_on_c, 2, 50, 0
4, 39936, Note_on_c, 2, 61, 100
4, 39936, Note_on_c, 2, 57, 100
4, 39936, Note_on_c, 2, 54, 100
4, 40700, Note_on_c, 2, 54, 0
4, 40700, Note_on_c, 2, 57, 0
4, 40700, Note_on_c, 2, 61, 0
4, 40704, Note_on_c, 2, 52, 100
4, 40704, Note_on_c, 2, 59, 100
4, 40704, Note_on_c, 2, 56, 100
4, 41468, Note_on_c, 2, 56, 0
4, 41468, Note_on_c, 2, 59, 0
4, 41468, Note_on_c, 2, 52, 0
4, 41472, Note_on_c, 2, 57, 100
4, 41472, Note_on_c, 2, 54, 100
4, 41472, Note_on_c, 2, 50, 100
4, 42236, Note_on_c, 2, 50, 0
4, 42236, Note_on_c, 2, 54, 0
4, 42236, Note_on_c, 2, 57, 0
4, 42240, Note_on_c, 2, 50, 100
4, 42240, Note_on_c, 2, 54, 100
4, 42240, Note_on_c, 2, 57, 100
4, 43004, Note_on_c, 2, 57, 0
4, 43004, Note_on_c, 2, 54, 0
4, 43004, Note_on_c, 2, 50, 0
4, 43008, Note_on_c, 2, 61, 100
4, 43008, Note_on_c, 2, 57, 100
4, 43008, Note_on_c, 2, 54, 100
4, 43772, Note_on_c, 2, 54, 0
4, 43772, Note_on_c, 2, 57, 0
4, 43772, Note_on_c, 2, 61, 0
4, 43776, Note_on_c, 2, 52, 100
4, 43776, Note_on_c, 2, 59, 100
4, 43776, Note_on_c, 2, 56, 100
4, 44540, Note_on_c, 2, 56, 0
4, 44540, Note_on_c, 2, 59, 0
4, 44540, Note_on_c, 2, 52, 0
4, 44544, Note_on_c, 2, 57, 100
4, 44544, Note_on_c, 2, 54, 100
4, 44544, Note_on_c, 2, 50, 100
4, 45308, Note_on_c, 2, 50, 0
4, 45308, Note_on_c, 2, 54, 0
4, 45308, Note_on_c, 2, 57, 0
4, 45312, Note_on_c, 2, 50, 100
4, 45312, Note_on_c, 2, 54, 100
4, 45312, Note_on_c, 2, 57, 100
4, 46076, Note_on_c, 2, 57, 0
4, 46076, Note_on_c, 2, 54, 0
4, 46076, Note_on_c, 2, 50, 0
4, 46080, Note_on_c, 2, 61, 100
4, 46080, Note_on_c, 2, 57, 100
4, 46080, Note_on_c, 2, 54, 100
4, 46844, Note_on_c, 2, 54, 0
4, 46844, Note_on_c, 2, 57, 0
4, 46844, Note_on_c, 2, 61, 0
4, 46848, Note_on_c, 2, 52, 100
4, 46848, Note_on_c, 2, 59, 100
4, 46848, Note_on_c, 2, 56, 100
4, 47612, Note_on_c, 2, 56, 0
4, 47612, Note_on_c, 2, 59, 0
4, 47612, Note_on_c, 2, 52, 0
4, 47616, Note_on_c, 2, 57, 100
4, 47616, Note_on_c, 2, 54, 100
4, 47616, Note_on_c, 2, 50, 100
4, 48380, Note_on_c, 2, 50, 0
4, 48380, Note_on_c, 2, 54, 0
4, 48380, Note_on_c, 2, 57, 0
4, 48384, Note_on_c, 2, 50, 100
4, 48384, Note_on_c, 2, 54, 100
4, 48384, Note_on_c, 2, 57, 100
4, 49148, Note_on_c, 2, 57, 0
4, 49148, Note_on_c, 2, 54, 0
4, 49148, Note_on_c, 2, 50, 0
4, 49152, Note_on_c, 2, 61, 100
4, 49152, Note_on_c, 2, 57, 100
4, 49152, Note_on_c, 2, 54, 100
4, 49916, Note_on_c, 2, 54, 0
4, 49916, Note_on_c, 2, 57, 0
4, 49916, Note_on_c, 2, 61, 0
4, 49920, Note_on_c, 2, 52, 100
4, 49920, Note_on_c, 2, 59, 100
4, 49920, Note_on_c, 2, 56, 100
4, 50684, Note_on_c, 2, 56, 0
4, 50684, Note_on_c, 2, 59, 0
4, 50684, Note_on_c, 2, 52, 0
4, 50688, Note_on_c, 2, 57, 100
4, 50688, Note_on_c, 2, 54, 100
4, 50688, Note_on_c, 2, 50, 100
4, 51452, Note_on_c, 2, 50, 0
4, 51452, Note_on_c, 2, 54, 0
4, 51452, Note_on_c, 2, 57, 0
4, 51456, Note_on_c, 2, 50, 100
4, 51456, Note_on_c, 2, 54, 100
4, 51456, Note_on_c, 2, 57, 100
4, 52220, Note_on_c, 2, 57, 0
4, 52220, Note_on_c, 2, 54, 0
4, 52220, Note_on_c, 2, 50, 0
4, 58368, Note_on_c, 2, 61, 100
4, 58368, Note_on_c, 2, 57, 100
4, 58368, Note_on_c, 2, 54, 100
4, 59132, Note_on_c, 2, 54, 0
4, 59132, Note_on_c, 2, 57, 0
4, 59132, Note_on_c, 2, 61, 0
4, 59136, Note_on_c, 2, 52, 100
4, 59136, Note_on_c, 2, 59, 100
4, 59136, Note_on_c, 2, 56, 100
4, 59900, Note_on_c, 2, 56, 0
4, 59900, Note_on_c, 2, 59, 0
4, 59900, Note_on_c, 2, 52, 0
4, 59904, Note_on_c, 2, 57, 100
4, 59904, Note_on_c, 2, 54, 100
4, 59904, Note_on_c, 2, 50, 100
4, 60668, Note_on_c, 2, 50, 0
4, 60668, Note_on_c, 2, 54, 0
4, 60668, Note_on_c, 2, 57, 0
4, 60672, Note_on_c, 2, 50, 100
4, 60672, Note_on_c, 2, 54, 100
4, 60672, Note_on_c, 2, 57, 100
4, 61436, Note_on_c, 2, 57, 0
4, 61436, Note_on_c, 2, 54, 0
4, 61436, Note_on_c, 2, 50, 0
4, 61440, Note_on_c, 2, 61, 100
4, 61440, Note_on_c, 2, 57, 100
4, 61440, Note_on_c, 2, 54, 100
4, 62204, Note_on_c, 2, 54, 0
4, 62204, Note_on_c, 2, 57, 0
4, 62204, Note_on_c, 2, 61, 0
4, 62208, Note_on_c, 2, 52, 100
4, 62208, Note_on_c, 2, 59, 100
4, 62208, Note_on_c, 2, 56, 100
4, 62972, Note_on_c, 2, 56, 0
4, 62972, Note_on_c, 2, 59, 0
4, 62972, Note_on_c, 2, 52, 0
4, 62976, Note_on_c, 2, 57, 100
4, 62976, Note_on_c, 2, 54, 100
4, 62976, Note_on_c, 2, 50, 100
4, 63740, Note_on_c, 2, 50, 0
4, 63740, Note_on_c, 2, 54, 0
4, 63740, Note_on_c, 2, 57, 0
4, 63744, Note_on_c, 2, 50, 100
4, 63744, Note_on_c, 2, 54, 100
4, 63744, Note_on_c, 2, 57, 100
4, 64508, Note_on_c, 2, 57, 0
4, 64508, Note_on_c, 2, 54, 0
4, 64508, Note_on_c, 2, 50, 0
4, 64512, Note_on_c, 2, 61, 100
4, 64512, Note_on_c, 2, 57, 100
4, 64512, Note_on_c, 2, 54, 100
4, 65276, Note_on_c, 2, 54, 0
4, 65276, Note_on_c, 2, 57, 0
4, 65276, Note_on_c, 2, 61, 0
4, 65280, Note_on_c, 2, 52, 100
4, 65280, Note_on_c, 2, 59, 100
4, 65280, Note_on_c, 2, 56, 100
4, 66044, Note_on_c, 2, 56, 0
4, 66044, Note_on_c, 2, 59, 0
4, 66044, Note_on_c, 2, 52, 0
4, 66048, Note_on_c, 2, 57, 100
4, 66048, Note_on_c, 2, 54, 100
4, 66048, Note_on_c, 2, 50, 100
4, 66812, Note_on_c, 2, 50, 0
4, 66812, Note_on_c, 2, 54, 0
4, 66812, Note_on_c, 2, 57, 0
4, 66816, Note_on_c, 2, 50, 100
4, 66816, Note_on_c, 2, 54, 100
4, 66816, Note_on_c, 2, 57, 100
4, 67580, Note_on_c, 2, 57, 0
4, 67580, Note_on_c, 2, 54, 0
4, 67580, Note_on_c, 2, 50, 0
4, 67584, Note_on_c, 2, 61, 100
4, 67584, Note_on_c, 2, 57, 100
4, 67584, Note_on_c, 2, 54, 100
4, 68348, Note_on_c, 2, 54, 0
4, 68348, Note_on_c, 2, 57, 0
4, 68348, Note_on_c, 2, 61, 0
4, 68352, Note_on_c, 2, 52, 100
4, 68352, Note_on_c, 2, 59, 100
4, 68352, Note_on_c, 2, 56, 100
4, 69116, Note_on_c, 2, 56, 0
4, 69116, Note_on_c, 2, 59, 0
4, 69116, Note_on_c, 2, 52, 0
4, 69120, Note_on_c, 2, 57, 100
4, 69120, Note_on_c, 2, 54, 100
4, 69120, Note_on_c, 2, 50, 100
4, 69884, Note_on_c, 2, 50, 0
4, 69884, Note_on_c, 2, 54, 0
4, 69884, Note_on_c, 2, 57, 0
4, 69888, Note_on_c, 2, 50, 100
4, 69888, Note_on_c, 2, 54, 100
4, 69888, Note_on_c, 2, 57, 100
4, 70652, Note_on_c, 2, 57, 0
4, 70652, Note_on_c, 2, 54, 0
4, 70652, Note_on_c, 2, 50, 0
4, 76795, Control_c, 2, 101, 0
4, 76796, Control_c, 2, 100, 0
4, 76797, Control_c, 2, 6, 12
4, 76798, Control_c, 2, 38, 0
4, 76800, Control_c, 2, 10, 64
4, 76800, Control_c, 2, 11, 127
4, 76800, Pitch_bend_c, 2, 8192
4, 76800, Program_c, 2, 50
4, 76800, Control_c, 2, 101, 0
4, 76801, Control_c, 2, 100, 0
4, 76802, Control_c, 2, 6, 12
4, 76803, Control_c, 2, 38, 0
4, 76803, Control_c, 2, 10, 64
4, 76803, Control_c, 2, 11, 127
4, 76803, Control_c, 2, 101, 0
4, 76804, Control_c, 2, 100, 0
4, 76805, Control_c, 2, 6, 12
4, 76806, Control_c, 2, 38, 0
4, 76806, Control_c, 2, 10, 64
4, 76806, Control_c, 2, 11, 127
4, 76806, Pitch_bend_c, 2, 8192
4, 76806, Program_c, 2, 50
4, 76806, End_track
5, 0, Start_track
5, 0, Channel_prefix, 4
5, 0, Title_t, "BooBass (M"
5, 0, Program_c, 4, 33
5, 0, Control_c, 4, 7, 110
5, 0, Control_c, 4, 10, 64
5, 0, Control_c, 4, 91, 56
5, 0, Control_c, 4, 93, 23
5, 0, Control_c, 4, 11, 127
5, 0, Control_c, 4, 101, 0
5, 1, Control_c, 4, 100, 0
5, 2, Control_c, 4, 6, 12
5, 3, Control_c, 4, 38, 0
5, 3, Control_c, 4, 10, 64
5, 3, Control_c, 4, 11, 127
5, 3, Control_c, 4, 101, 0
5, 4, Control_c, 4, 100, 0
5, 5, Control_c, 4, 6, 12
5, 6, Control_c, 4, 38, 0
5, 6, Control_c, 4, 10, 64
5, 6, Control_c, 4, 11, 127
5, 6, Control_c, 4, 10, 64
5, 6, Control_c, 4, 11, 127
5, 6, Control_c, 4, 101, 0
5, 7, Control_c, 4, 100, 0
5, 8, Control_c, 4, 6, 12
5, 9, Control_c, 4, 38, 0
5, 9, Control_c, 4, 10, 64
5, 9, Control_c, 4, 11, 127
5, 9, Control_c, 4, 10, 64
5, 9, Control_c, 4, 11, 127
5, 9, Pitch_bend_c, 4, 8192
5, 15360, Note_on_c, 4, 42, 100
5, 15452, Note_on_c, 4, 42, 0
5, 15456, Note_on_c, 4, 42, 100
5, 15548, Note_on_c, 4, 42, 0
5, 15552, Note_on_c, 4, 42, 100
5, 15644, Note_on_c, 4, 42, 0
5, 15648, Note_on_c, 4, 42, 100
5, 15740, Note_on_c, 4, 42, 0
5, 15744, Note_on_c, 4, 42, 100
5, 15836, Note_on_c, 4, 42, 0
5, 15840, Note_on_c, 4, 42, 100
5, 15932, Note_on_c, 4, 42, 0
5, 15936, Note_on_c, 4, 42, 100
5, 16028, Note_on_c, 4, 42, 0
5, 16032, Note_on_c, 4, 42, 100
5, 16124, Note_on_c, 4, 42, 0
5, 16128, Note_on_c, 4, 40, 100
5, 16220, Note_on_c, 4, 40, 0
5, 16224, Note_on_c, 4, 40, 100
5, 16316, Note_on_c, 4, 40, 0
5, 16320, Note_on_c, 4, 40, 100
5, 16412, Note_on_c, 4, 40, 0
5, 16416, Note_on_c, 4, 40, 100
5, 16508, Note_on_c, 4, 40, 0
5, 16512, Note_on_c, 4, 40, 100
5, 16604, Note_on_c, 4, 40, 0
5, 16608, Note_on_c, 4, 40, 100
5, 16700, Note_on_c, 4, 40, 0
5, 16704, Note_on_c, 4, 40, 100
5, 16796, Note_on_c, 4, 40, 0
5, 16800, Note_on_c, 4, 40, 100
5, 16892, Note_on_c, 4, 40, 0
5, 16896, Note_on_c, 4, 38, 100
5, 16988, Note_on_c, 4, 38, 0
5, 16992, Note_on_c, 4, 38, 100
5, 17084, Note_on_c, 4, 38, 0
5, 17088, Note_on_c, 4, 38, 100
5, 17180, Note_on_c, 4, 38, 0
5, 17184, Note_on_c, 4, 38, 100
5, 17276, Note_on_c, 4, 38, 0
5, 17280, Note_on_c, 4, 38, 100
5, 17372, Note_on_c, 4, 38, 0
5, 17376, Note_on_c, 4, 38, 100
5, 17468, Note_on_c, 4, 38, 0
5, 17472, Note_on_c, 4, 38, 100
5, 17564, Note_on_c, 4, 38, 0
5, 17568, Note_on_c, 4, 37, 100
5, 17660, Note_on_c, 4, 37, 0
5, 17664, Note_on_c, 4, 38, 100
5, 17756, Note_on_c, 4, 38, 0
5, 17760, Note_on_c, 4, 38, 100
5, 17852, Note_on_c, 4, 38, 0
5, 17856, Note_on_c, 4, 38, 100
5, 17948, Note_on_c, 4, 38, 0
5, 17952, Note_on_c, 4, 38, 100
5, 18044, Note_on_c, 4, 38, 0
5, 18048, Note_on_c, 4, 38, 100
5, 18140, Note_on_c, 4, 38, 0
5, 18144, Note_on_c, 4, 38, 100
5, 18236, Note_on_c, 4, 38, 0
5, 18240, Note_on_c, 4, 38, 100
5, 18332, Note_on_c, 4, 38, 0
5, 18336, Note_on_c, 4, 38, 100
5, 18428, Note_on_c, 4, 38, 0
5, 18432, Note_on_c, 4, 42, 100
5, 18524, Note_on_c, 4, 42, 0
5, 18528, Note_on_c, 4, 42, 100
5, 18620, Note_on_c, 4, 42, 0
5, 18624, Note_on_c, 4, 42, 100
5, 18716, Note_on_c, 4, 42, 0
5, 18720, Note_on_c, 4, 42, 100
5, 18812, Note_on_c, 4, 42, 0
5, 18816, Note_on_c, 4, 42, 100
5, 18908, Note_on_c, 4, 42, 0
5, 18912, Note_on_c, 4, 42, 100
5, 19004, Note_on_c, 4, 42, 0
5, 19008, Note_on_c, 4, 42, 100
5, 19100, Note_on_c, 4, 42, 0
5, 19104, Note_on_c, 4, 42, 100
5, 19196, Note_on_c, 4, 42, 0
5, 19200, Note_on_c, 4, 40, 100
5, 19292, Note_on_c, 4, 40, 0
5, 19296, Note_on_c, 4, 40, 100
5, 19388, Note_on_c, 4, 40, 0
5, 19392, Note_on_c, 4, 40, 100
5, 19484, Note_on_c, 4, 40, 0
5, 19488, Note_on_c, 4, 40, 100
5, 19580, Note_on_c, 4, 40, 0
5, 19584, Note_on_c, 4, 40, 100
5, 19676, Note_on_c, 4, 40, 0
5, 19680, Note_on_c, 4, 40, 100
5, 19772, Note_on_c, 4, 40, 0
5, 19776, Note_on_c, 4, 40, 100
5, 19868, Note_on_c, 4, 40, 0
5, 19872, Note_on_c, 4, 40, 100
5, 19964, Note_on_c, 4, 40, 0
5, 19968, Note_on_c, 4, 38, 100
5, 20060, Note_on_c, 4, 38, 0
5, 20064, Note_on_c, 4, 38, 100
5, 20156, Note_on_c, 4, 38, 0
5, 20160, Note_on_c, 4, 38, 100
5, 20252, Note_on_c, 4, 38, 0
5, 20256, Note_on_c, 4, 38, 100
5, 20348, Note_on_c, 4, 38, 0
5, 20352, Note_on_c, 4, 38, 100
5, 20444, Note_on_c, 4, 38, 0
5, 20448, Note_on_c, 4, 38, 100
5, 20540, Note_on_c, 4, 38, 0
5, 20544, Note_on_c, 4, 38, 100
5, 20636, Note_on_c, 4, 38, 0
5, 20640, Note_on_c, 4, 37, 100
5, 20732, Note_on_c, 4, 37, 0
5, 20736, Note_on_c, 4, 38, 100
5, 20828, Note_on_c, 4, 38, 0
5, 20832, Note_on_c, 4, 38, 100
5, 20924, Note_on_c, 4, 38, 0
5, 20928, Note_on_c, 4, 38, 100
5, 21020, Note_on_c, 4, 38, 0
5, 21024, Note_on_c, 4, 38, 100
5, 21116, Note_on_c, 4, 38, 0
5, 21120, Note_on_c, 4, 38, 100
5, 21212, Note_on_c, 4, 38, 0
5, 21216, Note_on_c, 4, 38, 100
5, 21308, Note_on_c, 4, 38, 0
5, 21312, Note_on_c, 4, 38, 100
5, 21404, Note_on_c, 4, 38, 0
5, 21408, Note_on_c, 4, 38, 100
5, 21500, Note_on_c, 4, 38, 0
5, 21504, Note_on_c, 4, 42, 100
5, 21596, Note_on_c, 4, 42, 0
5, 21600, Note_on_c, 4, 42, 100
5, 21692, Note_on_c, 4, 42, 0
5, 21696, Note_on_c, 4, 42, 100
5, 21788, Note_on_c, 4, 42, 0
5, 21792, Note_on_c, 4, 42, 100
5, 21884, Note_on_c, 4, 42, 0
5, 21888, Note_on_c, 4, 42, 100
5, 21980, Note_on_c, 4, 42, 0
5, 21984, Note_on_c, 4, 42, 100
5, 22076, Note_on_c, 4, 42, 0
5, 22080, Note_on_c, 4, 42, 100
5, 22172, Note_on_c, 4, 42, 0
5, 22176, Note_on_c, 4, 42, 100
5, 22268, Note_on_c, 4, 42, 0
5, 22272, Note_on_c, 4, 40, 100
5, 22364, Note_on_c, 4, 40, 0
5, 22368, Note_on_c, 4, 40, 100
5, 22460, Note_on_c, 4, 40, 0
5, 22464, Note_on_c, 4, 40, 100
5, 22556, Note_on_c, 4, 40, 0
5, 22560, Note_on_c, 4, 40, 100
5, 22652, Note_on_c, 4, 40, 0
5, 22656, Note_on_c, 4, 40, 100
5, 22748, Note_on_c, 4, 40, 0
5, 22752, Note_on_c, 4, 40, 100
5, 22844, Note_on_c, 4, 40, 0
5, 22848, Note_on_c, 4, 40, 100
5, 22940, Note_on_c, 4, 40, 0
5, 22944, Note_on_c, 4, 40, 100
5, 23036, Note_on_c, 4, 40, 0
5, 23040, Note_on_c, 4, 38, 100
5, 23132, Note_on_c, 4, 38, 0
5, 23136, Note_on_c, 4, 38, 100
5, 23228, Note_on_c, 4, 38, 0
5, 23232, Note_on_c, 4, 38, 100
5, 23324, Note_on_c, 4, 38, 0
5, 23328, Note_on_c, 4, 38, 100
5, 23420, Note_on_c, 4, 38, 0
5, 23424, Note_on_c, 4, 38, 100
5, 23516, Note_on_c, 4, 38, 0
5, 23520, Note_on_c, 4, 38, 100
5, 23612, Note_on_c, 4, 38, 0
5, 23616, Note_on_c, 4, 38, 100
5, 23708, Note_on_c, 4, 38, 0
5, 23712, Note_on_c, 4, 37, 100
5, 23804, Note_on_c, 4, 37, 0
5, 23808, Note_on_c, 4, 38, 100
5, 23900, Note_on_c, 4, 38, 0
5, 23904, Note_on_c, 4, 38, 100
5, 23996, Note_on_c, 4, 38, 0
5, 24000, Note_on_c, 4, 38, 100
5, 24092, Note_on_c, 4, 38, 0
5, 24096, Note_on_c, 4, 38, 100
5, 24188, Note_on_c, 4, 38, 0
5, 24192, Note_on_c, 4, 38, 100
5, 24284, Note_on_c, 4, 38, 0
5, 24288, Note_on_c, 4, 38, 100
5, 24380, Note_on_c, 4, 38, 0
5, 24384, Note_on_c, 4, 38, 100
5, 24476, Note_on_c, 4, 38, 0
5, 24480, Note_on_c, 4, 38, 100
5, 24572, Note_on_c, 4, 38, 0
5, 24576, Note_on_c, 4, 42, 100
5, 24668, Note_on_c, 4, 42, 0
5, 24672, Note_on_c, 4, 42, 100
5, 24764, Note_on_c, 4, 42, 0
5, 24768, Note_on_c, 4, 42, 100
5, 24860, Note_on_c, 4, 42, 0
5, 24864, Note_on_c, 4, 42, 100
5, 24956, Note_on_c, 4, 42, 0
5, 24960, Note_on_c, 4, 42, 100
5, 25052, Note_on_c, 4, 42, 0
5, 25056, Note_on_c, 4, 42, 100
5, 25148, Note_on_c, 4, 42, 0
5, 25152, Note_on_c, 4, 42, 100
5, 25244, Note_on_c, 4, 42, 0
5, 25248, Note_on_c, 4, 42, 100
5, 25340, Note_on_c, 4, 42, 0
5, 25344, Note_on_c, 4, 40, 100
5, 25436, Note_on_c, 4, 40, 0
5, 25440, Note_on_c, 4, 40, 100
5, 25532, Note_on_c, 4, 40, 0
5, 25536, Note_on_c, 4, 40, 100
5, 25628, Note_on_c, 4, 40, 0
5, 25632, Note_on_c, 4, 40, 100
5, 25724, Note_on_c, 4, 40, 0
5, 25728, Note_on_c, 4, 40, 100
5, 25820, Note_on_c, 4, 40, 0
5, 25824, Note_on_c, 4, 40, 100
5, 25916, Note_on_c, 4, 40, 0
5, 25920, Note_on_c, 4, 40, 100
5, 26012, Note_on_c, 4, 40, 0
5, 26016, Note_on_c, 4, 40, 100
5, 26108, Note_on_c, 4, 40, 0
5, 26112, Note_on_c, 4, 38, 100
5, 26204, Note_on_c, 4, 38, 0
5, 26208, Note_on_c, 4, 38, 100
5, 26300, Note_on_c, 4, 38, 0
5, 26304, Note_on_c, 4, 38, 100
5, 26396, Note_on_c, 4, 38, 0
5, 26400, Note_on_c, 4, 38, 100
5, 26492, Note_on_c, 4, 38, 0
5, 26496, Note_on_c, 4, 38, 100
5, 26588, Note_on_c, 4, 38, 0
5, 26592, Note_on_c, 4, 38, 100
5, 26684, Note_on_c, 4, 38, 0
5, 26688, Note_on_c, 4, 38, 100
5, 26780, Note_on_c, 4, 38, 0
5, 26784, Note_on_c, 4, 37, 100
5, 26876, Note_on_c, 4, 37, 0
5, 26880, Note_on_c, 4, 38, 100
5, 26972, Note_on_c, 4, 38, 0
5, 26976, Note_on_c, 4, 38, 100
5, 27068, Note_on_c, 4, 38, 0
5, 27072, Note_on_c, 4, 38, 100
5, 27164, Note_on_c, 4, 38, 0
5, 27168, Note_on_c, 4, 38, 100
5, 27260, Note_on_c, 4, 38, 0
5, 27264, Note_on_c, 4, 38, 100
5, 27356, Note_on_c, 4, 38, 0
5, 27360, Note_on_c, 4, 38, 100
5, 27452, Note_on_c, 4, 38, 0
5, 27456, Note_on_c, 4, 38, 100
5, 27548, Note_on_c, 4, 38, 0
5, 27552, Note_on_c, 4, 38, 100
5, 27644, Note_on_c, 4, 38, 0
5, 39936, Note_on_c, 4, 42, 100
5, 40028, Note_on_c, 4, 42, 0
5, 40032, Note_on_c, 4, 42, 100
5, 40124, Note_on_c, 4, 42, 0
5, 40128, Note_on_c, 4, 42, 100
5, 40220, Note_on_c, 4, 42, 0
5, 40224, Note_on_c, 4, 42, 100
5, 40316, Note_on_c, 4, 42, 0
5, 40320, Note_on_c, 4, 42, 100
5, 40412, Note_on_c, 4, 42, 0
5, 40416, Note_on_c, 4, 42, 100
5, 40508, Note_on_c, 4, 42, 0
5, 40512, Note_on_c, 4, 42, 100
5, 40604, Note_on_c, 4, 42, 0
5, 40608, Note_on_c, 4, 42, 100
5, 40700, Note_on_c, 4, 42, 0
5, 40704, Note_on_c, 4, 40, 100
5, 40796, Note_on_c, 4, 40, 0
5, 40800, Note_on_c, 4, 40, 100
5, 40892, Note_on_c, 4, 40, 0
5, 40896, Note_on_c, 4, 40, 100
5, 40988, Note_on_c, 4, 40, 0
5, 40992, Note_on_c, 4, 40, 100
5, 41084, Note_on_c, 4, 40, 0
5, 41088, Note_on_c, 4, 40, 100
5, 41180, Note_on_c, 4, 40, 0
5, 41184, Note_on_c, 4, 40, 100
5, 41276, Note_on_c, 4, 40, 0
5, 41280, Note_on_c, 4, 40, 100
5, 41372, Note_on_c, 4, 40, 0
5, 41376, Note_on_c, 4, 40, 100
5, 41468, Note_on_c, 4, 40, 0
5, 41472, Note_on_c, 4, 38, 100
5, 41564, Note_on_c, 4, 38, 0
5, 41568, Note_on_c, 4, 38, 100
5, 41660, Note_on_c, 4, 38, 0
5, 41664, Note_on_c, 4, 38, 100
5, 41756, Note_on_c, 4, 38, 0
5, 41760, Note_on_c, 4, 38, 100
5, 41852, Note_on_c, 4, 38, 0
5, 41856, Note_on_c, 4, 38, 100
5, 41948, Note_on_c, 4, 38, 0
5, 41952, Note_on_c, 4, 38, 100
5, 42044, Note_on_c, 4, 38, 0
5, 42048, Note_on_c, 4, 38, 100
5, 42140, Note_on_c, 4, 38, 0
5, 42144, Note_on_c, 4, 37, 100
5, 42236, Note_on_c, 4, 37, 0
5, 42240, Note_on_c, 4, 38, 100
5, 42332, Note_on_c, 4, 38, 0
5, 42336, Note_on_c, 4, 38, 100
5, 42428, Note_on_c, 4, 38, 0
5, 42432, Note_on_c, 4, 38, 100
5, 42524, Note_on_c, 4, 38, 0
5, 42528, Note_on_c, 4, 38, 100
5, 42620, Note_on_c, 4, 38, 0
5, 42624, Note_on_c, 4, 38, 100
5, 42716, Note_on_c, 4, 38, 0
5, 42720, Note_on_c, 4, 38, 100
5, 42812, Note_on_c, 4, 38, 0
5, 42816, Note_on_c, 4, 38, 100
5, 42908, Note_on_c, 4, 38, 0
5, 42912, Note_on_c, 4, 38, 100
5, 43004, Note_on_c, 4, 38, 0
5, 43008, Note_on_c, 4, 42, 100
5, 43100, Note_on_c, 4, 42, 0
5, 43104, Note_on_c, 4, 42, 100
5, 43196, Note_on_c, 4, 42, 0
5, 43200, Note_on_c, 4, 42, 100
5, 43292, Note_on_c, 4, 42, 0
5, 43296, Note_on_c, 4, 42, 100
5, 43388, Note_on_c, 4, 42, 0
5, 43392, Note_on_c, 4, 42, 100
5, 43484, Note_on_c, 4, 42, 0
5, 43488, Note_on_c, 4, 42, 100
5, 43580, Note_on_c, 4, 42, 0
5, 43584, Note_on_c, 4, 42, 100
5, 43676, Note_on_c, 4, 42, 0
5, 43680, Note_on_c, 4, 42, 100
5, 43772, Note_on_c, 4, 42, 0
5, 43776, Note_on_c, 4, 40, 100
5, 43868, Note_on_c, 4, 40, 0
5, 43872, Note_on_c, 4, 40, 100
5, 43964, Note_on_c, 4, 40, 0
5, 43968, Note_on_c, 4, 40, 100
5, 44060, Note_on_c, 4, 40, 0
5, 44064, Note_on_c, 4, 40, 100
5, 44156, Note_on_c, 4, 40, 0
5, 44160, Note_on_c, 4, 40, 100
5, 44252, Note_on_c, 4, 40, 0
5, 44256, Note_on_c, 4, 40, 100
5, 44348, Note_on_c, 4, 40, 0
5, 44352, Note_on_c, 4, 40, 100
5, 44444, Note_on_c, 4, 40, 0
5, 44448, Note_on_c, 4, 40, 100
5, 44540, Note_on_c, 4, 40, 0
5, 44544, Note_on_c, 4, 38, 100
5, 44636, Note_on_c, 4, 38, 0
5, 44640, Note_on_c, 4, 38, 100
5, 44732, Note_on_c, 4, 38, 0
5, 44736, Note_on_c, 4, 38, 100
5, 44828, Note_on_c, 4, 38, 0
5, 44832, Note_on_c, 4, 38, 100
5, 44924, Note_on_c, 4, 38, 0
5, 44928, Note_on_c, 4, 38, 100
5, 45020, Note_on_c, 4, 38, 0
5, 45024, Note_on_c, 4, 38, 100
5, 45116, Note_on_c, 4, 38, 0
5, 45120, Note_on_c, 4, 38, 100
5, 45212, Note_on_c, 4, 38, 0
5, 45216, Note_on_c, 4, 37, 100
5, 45308, Note_on_c, 4, 37, 0
5, 45312, Note_on_c, 4, 38, 100
5, 45404, Note_on_c, 4, 38, 0
5, 45408, Note_on_c, 4, 38, 100
5, 45500, Note_on_c, 4, 38, 0
5, 45504, Note_on_c, 4, 38, 100
5, 45596, Note_on_c, 4, 38, 0
5, 45600, Note_on_c, 4, 38, 100
5, 45692, Note_on_c, 4, 38, 0
5, 45696, Note_on_c, 4, 38, 100
5, 45788, Note_on_c, 4, 38, 0
5, 45792, Note_on_c, 4, 38, 100
5, 45884, Note_on_c, 4, 38, 0
5, 45888, Note_on_c, 4, 38, 100
5, 45980, Note_on_c, 4, 38, 0
5, 45984, Note_on_c, 4, 38, 100
5, 46076, Note_on_c, 4, 38, 0
5, 46080, Note_on_c, 4, 42, 100
5, 46172, Note_on_c, 4, 42, 0
5, 46176, Note_on_c, 4, 42, 100
5, 46268, Note_on_c, 4, 42, 0
5, 46272, Note_on_c, 4, 42, 100
5, 46364, Note_on_c, 4, 42, 0
5, 46368, Note_on_c, 4, 42, 100
5, 46460, Note_on_c, 4, 42, 0
5, 46464, Note_on_c, 4, 42, 100
5, 46556, Note_on_c, 4, 42, 0
5, 46560, Note_on_c, 4, 42, 100
5, 46652, Note_on_c, 4, 42, 0
5, 46656, Note_on_c, 4, 42, 100
5, 46748, Note_on_c, 4, 42, 0
5, 46752, Note_on_c, 4, 42, 100
5, 46844, Note_on_c, 4, 42, 0
5, 46848, Note_on_c, 4, 40, 100
5, 46940, Note_on_c, 4, 40, 0
5, 46944, Note_on_c, 4, 40, 100
5, 47036, Note_on_c, 4, 40, 0
5, 47040, Note_on_c, 4, 40, 100
5, 47132, Note_on_c, 4, 40, 0
5, 47136, Note_on_c, 4, 40, 100
5, 47228, Note_on_c, 4, 40, 0
5, 47232, Note_on_c, 4, 40, 100
5, 47324, Note_on_c, 4, 40, 0
5, 47328, Note_on_c, 4, 40, 100
5, 47420, Note_on_c, 4, 40, 0
5, 47424, Note_on_c, 4, 40, 100
5, 47516, Note_on_c, 4, 40, 0
5, 47520, Note_on_c, 4, 40, 100
5, 47612, Note_on_c, 4, 40, 0
5, 47616, Note_on_c, 4, 38, 100
5, 47708, Note_on_c, 4, 38, 0
5, 47712, Note_on_c, 4, 38, 100
5, 47804, Note_on_c, 4, 38, 0
5, 47808, Note_on_c, 4, 38, 100
5, 47900, Note_on_c, 4, 38, 0
5, 47904, Note_on_c, 4, 38, 100
5, 47996, Note_on_c, 4, 38, 0
5, 48000, Note_on_c, 4, 38, 100
5, 48092, Note_on_c, 4, 38, 0
5, 48096, Note_on_c, 4, 38, 100
5, 48188, Note_on_c, 4, 38, 0
5, 48192, Note_on_c, 4, 38, 100
5, 48284, Note_on_c, 4, 38, 0
5, 48288, Note_on_c, 4, 37, 100
5, 48380, Note_on_c, 4, 37, 0
5, 48384, Note_on_c, 4, 38, 100
5, 48476, Note_on_c, 4, 38, 0
5, 48480, Note_on_c, 4, 38, 100
5, 48572, Note_on_c, 4, 38, 0
5, 48576, Note_on_c, 4, 38, 100
5, 48668, Note_on_c, 4, 38, 0
5, 48672, Note_on_c, 4, 38, 100
5, 48764, Note_on_c, 4, 38, 0
5, 48768, Note_on_c, 4, 38, 100
5, 48860, Note_on_c, 4, 38, 0
5, 48864, Note_on_c, 4, 38, 100
5, 48956, Note_on_c, 4, 38, 0
5, 48960, Note_on_c, 4, 38, 100
5, 49052, Note_on_c, 4, 38, 0
5, 49056, Note_on_c, 4, 38, 100
5, 49148, Note_on_c, 4, 38, 0
5, 49152, Note_on_c, 4, 42, 100
5, 49244, Note_on_c, 4, 42, 0
5, 49248, Note_on_c, 4, 42, 100
5, 49340, Note_on_c, 4, 42, 0
5, 49344, Note_on_c, 4, 42, 100
5, 49436, Note_on_c, 4, 42, 0
5, 49440, Note_on_c, 4, 42, 100
5, 49532, Note_on_c, 4, 42, 0
5, 49536, Note_on_c, 4, 42, 100
5, 49628, Note_on_c, 4, 42, 0
5, 49632, Note_on_c, 4, 42, 100
5, 49724, Note_on_c, 4, 42, 0
5, 49728, Note_on_c, 4, 42, 100
5, 49820, Note_on_c, 4, 42, 0
5, 49824, Note_on_c, 4, 42, 100
5, 49916, Note_on_c, 4, 42, 0
5, 49920, Note_on_c, 4, 40, 100
5, 50012, Note_on_c, 4, 40, 0
5, 50016, Note_on_c, 4, 40, 100
5, 50108, Note_on_c, 4, 40, 0
5, 50112, Note_on_c, 4, 40, 100
5, 50204, Note_on_c, 4, 40, 0
5, 50208, Note_on_c, 4, 40, 100
5, 50300, Note_on_c, 4, 40, 0
5, 50304, Note_on_c, 4, 40, 100
5, 50396, Note_on_c, 4, 40, 0
5, 50400, Note_on_c, 4, 40, 100
5, 50492, Note_on_c, 4, 40, 0
5, 50496, Note_on_c, 4, 40, 100
5, 50588, Note_on_c, 4, 40, 0
5, 50592, Note_on_c, 4, 40, 100
5, 50684, Note_on_c, 4, 40, 0
5, 50688, Note_on_c, 4, 38, 100
5, 50780, Note_on_c, 4, 38, 0
5, 50784, Note_on_c, 4, 38, 100
5, 50876, Note_on_c, 4, 38, 0
5, 50880, Note_on_c, 4, 38, 100
5, 50972, Note_on_c, 4, 38, 0
5, 50976, Note_on_c, 4, 38, 100
5, 51068, Note_on_c, 4, 38, 0
5, 51072, Note_on_c, 4, 38, 100
5, 51164, Note_on_c, 4, 38, 0
5, 51168, Note_on_c, 4, 38, 100
5, 51260, Note_on_c, 4, 38, 0
5, 51264, Note_on_c, 4, 38, 100
5, 51356, Note_on_c, 4, 38, 0
5, 51360, Note_on_c, 4, 37, 100
5, 51452, Note_on_c, 4, 37, 0
5, 51456, Note_on_c, 4, 38, 100
5, 51548, Note_on_c, 4, 38, 0
5, 51552, Note_on_c, 4, 38, 100
5, 51644, Note_on_c, 4, 38, 0
5, 51648, Note_on_c, 4, 38, 100
5, 51740, Note_on_c, 4, 38, 0
5, 51744, Note_on_c, 4, 38, 100
5, 51836, Note_on_c, 4, 38, 0
5, 51840, Note_on_c, 4, 38, 100
5, 51932, Note_on_c, 4, 38, 0
5, 51936, Note_on_c, 4, 38, 100
5, 52028, Note_on_c, 4, 38, 0
5, 52032, Note_on_c, 4, 38, 100
5, 52124, Note_on_c, 4, 38, 0
5, 52128, Note_on_c, 4, 38, 100
5, 52220, Note_on_c, 4, 38, 0
5, 52224, Note_on_c, 4, 42, 100
5, 52316, Note_on_c, 4, 42, 0
5, 52320, Note_on_c, 4, 42, 100
5, 52412, Note_on_c, 4, 42, 0
5, 52416, Note_on_c, 4, 42, 100
5, 52508, Note_on_c, 4, 42, 0
5, 52512, Note_on_c, 4, 42, 100
5, 52604, Note_on_c, 4, 42, 0
5, 52608, Note_on_c, 4, 42, 100
5, 52700, Note_on_c, 4, 42, 0
5, 52704, Note_on_c, 4, 42, 100
5, 52796, Note_on_c, 4, 42, 0
5, 52800, Note_on_c, 4, 42, 100
5, 52892, Note_on_c, 4, 42, 0
5, 52896, Note_on_c, 4, 42, 100
5, 52988, Note_on_c, 4, 42, 0
5, 52992, Note_on_c, 4, 40, 100
5, 53084, Note_on_c, 4, 40, 0
5, 53088, Note_on_c, 4, 40, 100
5, 53180, Note_on_c, 4, 40, 0
5, 53184, Note_on_c, 4, 40, 100
5, 53276, Note_on_c, 4, 40, 0
5, 53280, Note_on_c, 4, 40, 100
5, 53372, Note_on_c, 4, 40, 0
5, 53376, Note_on_c, 4, 40, 100
5, 53468, Note_on_c, 4, 40, 0
5, 53472, Note_on_c, 4, 40, 100
5, 53564, Note_on_c, 4, 40, 0
5, 53568, Note_on_c, 4, 40, 100
5, 53660, Note_on_c, 4, 40, 0
5, 53664, Note_on_c, 4, 40, 100
5, 53756, Note_on_c, 4, 40, 0
5, 53760, Note_on_c, 4, 38, 100
5, 53852, Note_on_c, 4, 38, 0
5, 53856, Note_on_c, 4, 38, 100
5, 53948, Note_on_c, 4, 38, 0
5, 53952, Note_on_c, 4, 38, 100
5, 54044, Note_on_c, 4, 38, 0
5, 54048, Note_on_c, 4, 38, 100
5, 54140, Note_on_c, 4, 38, 0
5, 54144, Note_on_c, 4, 38, 100
5, 54236, Note_on_c, 4, 38, 0
5, 54240, Note_on_c, 4, 38, 100
5, 54332, Note_on_c, 4, 38, 0
5, 54336, Note_on_c, 4, 38, 100
5, 54428, Note_on_c, 4, 38, 0
5, 54432, Note_on_c, 4, 37, 100
5, 54524, Note_on_c, 4, 37, 0
5, 54528, Note_on_c, 4, 38, 100
5, 54620, Note_on_c, 4, 38, 0
5, 54624, Note_on_c, 4, 38, 100
5, 54716, Note_on_c, 4, 38, 0
5, 54720, Note_on_c, 4, 38, 100
5, 54812, Note_on_c, 4, 38, 0
5, 54816, Note_on_c, 4, 38, 100
5, 54908, Note_on_c, 4, 38, 0
5, 54912, Note_on_c, 4, 38, 100
5, 55004, Note_on_c, 4, 38, 0
5, 55008, Note_on_c, 4, 38, 100
5, 55100, Note_on_c, 4, 38, 0
5, 55104, Note_on_c, 4, 38, 100
5, 55196, Note_on_c, 4, 38, 0
5, 55200, Note_on_c, 4, 38, 100
5, 55292, Note_on_c, 4, 38, 0
5, 58368, Note_on_c, 4, 42, 100
5, 58460, Note_on_c, 4, 42, 0
5, 58464, Note_on_c, 4, 42, 100
5, 58556, Note_on_c, 4, 42, 0
5, 58560, Note_on_c, 4, 42, 100
5, 58652, Note_on_c, 4, 42, 0
5, 58656, Note_on_c, 4, 42, 100
5, 58748, Note_on_c, 4, 42, 0
5, 58752, Note_on_c, 4, 42, 100
5, 58844, Note_on_c, 4, 42, 0
5, 58848, Note_on_c, 4, 42, 100
5, 58940, Note_on_c, 4, 42, 0
5, 58944, Note_on_c, 4, 42, 100
5, 59036, Note_on_c, 4, 42, 0
5, 59040, Note_on_c, 4, 42, 100
5, 59132, Note_on_c, 4, 42, 0
5, 59136, Note_on_c, 4, 40, 100
5, 59228, Note_on_c, 4, 40, 0
5, 59232, Note_on_c, 4, 40, 100
5, 59324, Note_on_c, 4, 40, 0
5, 59328, Note_on_c, 4, 40, 100
5, 59420, Note_on_c, 4, 40, 0
5, 59424, Note_on_c, 4, 40, 100
5, 59516, Note_on_c, 4, 40, 0
5, 59520, Note_on_c, 4, 40, 100
5, 59612, Note_on_c, 4, 40, 0
5, 59616, Note_on_c, 4, 40, 100
5, 59708, Note_on_c, 4, 40, 0
5, 59712, Note_on_c, 4, 40, 100
5, 59804, Note_on_c, 4, 40, 0
5, 59808, Note_on_c, 4, 40, 100
5, 59900, Note_on_c, 4, 40, 0
5, 59904, Note_on_c, 4, 38, 100
5, 59996, Note_on_c, 4, 38, 0
5, 60000, Note_on_c, 4, 38, 100
5, 60092, Note_on_c, 4, 38, 0
5, 60096, Note_on_c, 4, 38, 100
5, 60188, Note_on_c, 4, 38, 0
5, 60192, Note_on_c, 4, 38, 100
5, 60284, Note_on_c, 4, 38, 0
5, 60288, Note_on_c, 4, 38, 100
5, 60380, Note_on_c, 4, 38, 0
5, 60384, Note_on_c, 4, 38, 100
5, 60476, Note_on_c, 4, 38, 0
5, 60480, Note_on_c, 4, 38, 100
5, 60572, Note_on_c, 4, 38, 0
5, 60576, Note_on_c, 4, 37, 100
5, 60668, Note_on_c, 4, 37, 0
5, 60672, Note_on_c, 4, 38, 100
5, 60764, Note_on_c, 4, 38, 0
5, 60768, Note_on_c, 4, 38, 100
5, 60860, Note_on_c, 4, 38, 0
5, 60864, Note_on_c, 4, 38, 100
5, 60956, Note_on_c, 4, 38, 0
5, 60960, Note_on_c, 4, 38, 100
5, 61052, Note_on_c, 4, 38, 0
5, 61056, Note_on_c, 4, 38, 100
5, 61148, Note_on_c, 4, 38, 0
5, 61152, Note_on_c, 4, 38, 100
5, 61244, Note_on_c, 4, 38, 0
5, 61248, Note_on_c, 4, 38, 100
5, 61340, Note_on_c, 4, 38, 0
5, 61344, Note_on_c, 4, 38, 100
5, 61436, Note_on_c, 4, 38, 0
5, 61440, Note_on_c, 4, 42, 100
5, 61532, Note_on_c, 4, 42, 0
5, 61536, Note_on_c, 4, 42, 100
5, 61628, Note_on_c, 4, 42, 0
5, 61632, Note_on_c, 4, 42, 100
5, 61724, Note_on_c, 4, 42, 0
5, 61728, Note_on_c, 4, 42, 100
5, 61820, Note_on_c, 4, 42, 0
5, 61824, Note_on_c, 4, 42, 100
5, 61916, Note_on_c, 4, 42, 0
5, 61920, Note_on_c, 4, 42, 100
5, 62012, Note_on_c, 4, 42, 0
5, 62016, Note_on_c, 4, 42, 100
5, 62108, Note_on_c, 4, 42, 0
5, 62112, Note_on_c, 4, 42, 100
5, 62204, Note_on_c, 4, 42, 0
5, 62208, Note_on_c, 4, 40, 100
5, 62300, Note_on_c, 4, 40, 0
5, 62304, Note_on_c, 4, 40, 100
5, 62396, Note_on_c, 4, 40, 0
5, 62400, Note_on_c, 4, 40, 100
5, 62492, Note_on_c, 4, 40, 0
5, 62496, Note_on_c, 4, 40, 100
5, 62588, Note_on_c, 4, 40, 0
5, 62592, Note_on_c, 4, 40, 100
5, 62684, Note_on_c, 4, 40, 0
5, 62688, Note_on_c, 4, 40, 100
5, 62780, Note_on_c, 4, 40, 0
5, 62784, Note_on_c, 4, 40, 100
5, 62876, Note_on_c, 4, 40, 0
5, 62880, Note_on_c, 4, 40, 100
5, 62972, Note_on_c, 4, 40, 0
5, 62976, Note_on_c, 4, 38, 100
5, 63068, Note_on_c, 4, 38, 0
5, 63072, Note_on_c, 4, 38, 100
5, 63164, Note_on_c, 4, 38, 0
5, 63168, Note_on_c, 4, 38, 100
5, 63260, Note_on_c, 4, 38, 0
5, 63264, Note_on_c, 4, 38, 100
5, 63356, Note_on_c, 4, 38, 0
5, 63360, Note_on_c, 4, 38, 100
5, 63452, Note_on_c, 4, 38, 0
5, 63456, Note_on_c, 4, 38, 100
5, 63548, Note_on_c, 4, 38, 0
5, 63552, Note_on_c, 4, 38, 100
5, 63644, Note_on_c, 4, 38, 0
5, 63648, Note_on_c, 4, 37, 100
5, 63740, Note_on_c, 4, 37, 0
5, 63744, Note_on_c, 4, 38, 100
5, 63836, Note_on_c, 4, 38, 0
5, 63840, Note_on_c, 4, 38, 100
5, 63932, Note_on_c, 4, 38, 0
5, 63936, Note_on_c, 4, 38, 100
5, 64028, Note_on_c, 4, 38, 0
5, 64032, Note_on_c, 4, 38, 100
5, 64124, Note_on_c, 4, 38, 0
5, 64128, Note_on_c, 4, 38, 100
5, 64220, Note_on_c, 4, 38, 0
5, 64224, Note_on_c, 4, 38, 100
5, 64316, Note_on_c, 4, 38, 0
5, 64320, Note_on_c, 4, 38, 100
5, 64412, Note_on_c, 4, 38, 0
5, 64416, Note_on_c, 4, 38, 100
5, 64508, Note_on_c, 4, 38, 0
5, 64512, Note_on_c, 4, 42, 100
5, 64604, Note_on_c, 4, 42, 0
5, 64608, Note_on_c, 4, 42, 100
5, 64700, Note_on_c, 4, 42, 0
5, 64704, Note_on_c, 4, 42, 100
5, 64796, Note_on_c, 4, 42, 0
5, 64800, Note_on_c, 4, 42, 100
5, 64892, Note_on_c, 4, 42, 0
5, 64896, Note_on_c, 4, 42, 100
5, 64988, Note_on_c, 4, 42, 0
5, 64992, Note_on_c, 4, 42, 100
5, 65084, Note_on_c, 4, 42, 0
5, 65088, Note_on_c, 4, 42, 100
5, 65180, Note_on_c, 4, 42, 0
5, 65184, Note_on_c, 4, 42, 100
5, 65276, Note_on_c, 4, 42, 0
5, 65280, Note_on_c, 4, 40, 100
5, 65372, Note_on_c, 4, 40, 0
5, 65376, Note_on_c, 4, 40, 100
5, 65468, Note_on_c, 4, 40, 0
5, 65472, Note_on_c, 4, 40, 100
5, 65564, Note_on_c, 4, 40, 0
5, 65568, Note_on_c, 4, 40, 100
5, 65660, Note_on_c, 4, 40, 0
5, 65664, Note_on_c, 4, 40, 100
5, 65756, Note_on_c, 4, 40, 0
5, 65760, Note_on_c, 4, 40, 100
5, 65852, Note_on_c, 4, 40, 0
5, 65856, Note_on_c, 4, 40, 100
5, 65948, Note_on_c, 4, 40, 0
5, 65952, Note_on_c, 4, 40, 100
5, 66044, Note_on_c, 4, 40, 0
5, 66048, Note_on_c, 4, 38, 100
5, 66140, Note_on_c, 4, 38, 0
5, 66144, Note_on_c, 4, 38, 100
5, 66236, Note_on_c, 4, 38, 0
5, 66240, Note_on_c, 4, 38, 100
5, 66332, Note_on_c, 4, 38, 0
5, 66336, Note_on_c, 4, 38, 100
5, 66428, Note_on_c, 4, 38, 0
5, 66432, Note_on_c, 4, 38, 100
5, 66524, Note_on_c, 4, 38, 0
5, 66528, Note_on_c, 4, 38, 100
5, 66620, Note_on_c, 4, 38, 0
5, 66624, Note_on_c, 4, 38, 100
5, 66716, Note_on_c, 4, 38, 0
5, 66720, Note_on_c, 4, 37, 100
5, 66812, Note_on_c, 4, 37, 0
5, 66816, Note_on_c, 4, 38, 100
5, 66908, Note_on_c, 4, 38, 0
5, 66912, Note_on_c, 4, 38, 100
5, 67004, Note_on_c, 4, 38, 0
5, 67008, Note_on_c, 4, 38, 100
5, 67100, Note_on_c, 4, 38, 0
5, 67104, Note_on_c, 4, 38, 100
5, 67196, Note_on_c, 4, 38, 0
5, 67200, Note_on_c, 4, 38, 100
5, 67292, Note_on_c, 4, 38, 0
5, 67296, Note_on_c, 4, 38, 100
5, 67388, Note_on_c, 4, 38, 0
5, 67392, Note_on_c, 4, 38, 100
5, 67484, Note_on_c, 4, 38, 0
5, 67488, Note_on_c, 4, 38, 100
5, 67580, Note_on_c, 4, 38, 0
5, 67584, Note_on_c, 4, 42, 100
5, 67676, Note_on_c, 4, 42, 0
5, 67680, Note_on_c, 4, 42, 100
5, 67772, Note_on_c, 4, 42, 0
5, 67776, Note_on_c, 4, 42, 100
5, 67868, Note_on_c, 4, 42, 0
5, 67872, Note_on_c, 4, 42, 100
5, 67964, Note_on_c, 4, 42, 0
5, 67968, Note_on_c, 4, 42, 100
5, 68060, Note_on_c, 4, 42, 0
5, 68064, Note_on_c, 4, 42, 100
5, 68156, Note_on_c, 4, 42, 0
5, 68160, Note_on_c, 4, 42, 100
5, 68252, Note_on_c, 4, 42, 0
5, 68256, Note_on_c, 4, 42, 100
5, 68348, Note_on_c, 4, 42, 0
5, 68352, Note_on_c, 4, 40, 100
5, 68444, Note_on_c, 4, 40, 0
5, 68448, Note_on_c, 4, 40, 100
5, 68540, Note_on_c, 4, 40, 0
5, 68544, Note_on_c, 4, 40, 100
5, 68636, Note_on_c, 4, 40, 0
5, 68640, Note_on_c, 4, 40, 100
5, 68732, Note_on_c, 4, 40, 0
5, 68736, Note_on_c, 4, 40, 100
5, 68828, Note_on_c, 4, 40, 0
5, 68832, Note_on_c, 4, 40, 100
5, 68924, Note_on_c, 4, 40, 0
5, 68928, Note_on_c, 4, 40, 100
5, 69020, Note_on_c, 4, 40, 0
5, 69024, Note_on_c, 4, 40, 100
5, 69116, Note_on_c, 4, 40, 0
5, 69120, Note_on_c, 4, 38, 100
5, 69212, Note_on_c, 4, 38, 0
5, 69216, Note_on_c, 4, 38, 100
5, 69308, Note_on_c, 4, 38, 0
5, 69312, Note_on_c, 4, 38, 100
5, 69404, Note_on_c, 4, 38, 0
5, 69408, Note_on_c, 4, 38, 100
5, 69500, Note_on_c, 4, 38, 0
5, 69504, Note_on_c, 4, 38, 100
5, 69596, Note_on_c, 4, 38, 0
5, 69600, Note_on_c, 4, 38, 100
5, 69692, Note_on_c, 4, 38, 0
5, 69696, Note_on_c, 4, 38, 100
5, 69788, Note_on_c, 4, 38, 0
5, 69792, Note_on_c, 4, 37, 100
5, 69884, Note_on_c, 4, 37, 0
5, 69888, Note_on_c, 4, 38, 100
5, 69980, Note_on_c, 4, 38, 0
5, 69984, Note_on_c, 4, 38, 100
5, 70076, Note_on_c, 4, 38, 0
5, 70080, Note_on_c, 4, 38, 100
5, 70172, Note_on_c, 4, 38, 0
5, 70176, Note_on_c, 4, 38, 100
5, 70268, Note_on_c, 4, 38, 0
5, 70272, Note_on_c, 4, 38, 100
5, 70364, Note_on_c, 4, 38, 0
5, 70368, Note_on_c, 4, 38, 100
5, 70460, Note_on_c, 4, 38, 0
5, 70464, Note_on_c, 4, 38, 100
5, 70556, Note_on_c, 4, 38, 0
5, 70560, Note_on_c, 4, 38, 100
5, 70652, Note_on_c, 4, 38, 0
5, 76795, Control_c, 4, 101, 0
5, 76796, Control_c, 4, 100, 0
5, 76797, Control_c, 4, 6, 12
5, 76798, Control_c, 4, 38, 0
5, 76800, Control_c, 4, 10, 64
5, 76800, Control_c, 4, 11, 127
5, 76800, Pitch_bend_c, 4, 8192
5, 76800, Program_c, 4, 33
5, 76800, Control_c, 4, 101, 0
5, 76801, Control_c, 4, 100, 0
5, 76802, Control_c, 4, 6, 12
5, 76803, Control_c, 4, 38, 0
5, 76803, Control_c, 4, 10, 64
5, 76803, Control_c, 4, 11, 127
5, 76803, Control_c, 4, 101, 0
5, 76804, Control_c, 4, 100, 0
5, 76805, Control_c, 4, 6, 12
5, 76806, Control_c, 4, 38, 0
5, 76806, Control_c, 4, 10, 64
5, 76806, Control_c, 4, 11, 127
5, 76806, Pitch_bend_c, 4, 8192
5, 76806, Program_c, 4, 33
5, 76806, End_track
6, 0, Start_track
6, 0, Channel_prefix, 9
6, 0, Title_t, "FPC #2 (MI"
6, 0, Program_c, 9, 24
6, 0, Control_c, 9, 7, 127
6, 0, Control_c, 9, 10, 64
6, 0, Control_c, 9, 91, 90
6, 0, Control_c, 9, 93, 54
6, 0, Control_c, 9, 11, 127
6, 0, Control_c, 9, 101, 0
6, 1, Control_c, 9, 100, 0
6, 2, Control_c, 9, 6, 12
6, 3, Control_c, 9, 38, 0
6, 3, Control_c, 9, 10, 64
6, 3, Control_c, 9, 11, 127
6, 3, Control_c, 9, 101, 0
6, 4, Control_c, 9, 100, 0
6, 5, Control_c, 9, 6, 12
6, 6, Control_c, 9, 38, 0
6, 6, Control_c, 9, 10, 64
6, 6, Control_c, 9, 11, 127
6, 6, Control_c, 9, 10, 64
6, 6, Control_c, 9, 11, 127
6, 6, Control_c, 9, 101, 0
6, 7, Control_c, 9, 100, 0
6, 8, Control_c, 9, 6, 12
6, 9, Control_c, 9, 38, 0
6, 9, Control_c, 9, 10, 64
6, 9, Control_c, 9, 11, 127
6, 9, Control_c, 9, 10, 64
6, 9, Control_c, 9, 11, 127
6, 9, Pitch_bend_c, 9, 8192
6, 9216, Note_on_c, 9, 42, 61
6, 9260, Note_on_c, 9, 42, 0
6, 9264, Note_on_c, 9, 42, 61
6, 9308, Note_on_c, 9, 42, 0
6, 9312, Note_on_c, 9, 42, 63
6, 9356, Note_on_c, 9, 42, 0
6, 9360, Note_on_c, 9, 42, 63
6, 9404, Note_on_c, 9, 42, 0
6, 9408, Note_on_c, 9, 42, 63
6, 9452, Note_on_c, 9, 42, 0
6, 9456, Note_on_c, 9, 42, 63
6, 9500, Note_on_c, 9, 42, 0
6, 9504, Note_on_c, 9, 42, 61
6, 9548, Note_on_c, 9, 42, 0
6, 9552, Note_on_c, 9, 42, 63
6, 9596, Note_on_c, 9, 42, 0
6, 9600, Note_on_c, 9, 42, 64
6, 9644, Note_on_c, 9, 42, 0
6, 9648, Note_on_c, 9, 42, 64
6, 9692, Note_on_c, 9, 42, 0
6, 9696, Note_on_c, 9, 42, 63
6, 9740, Note_on_c, 9, 42, 0
6, 9744, Note_on_c, 9, 42, 64
6, 9788, Note_on_c, 9, 42, 0
6, 9792, Note_on_c, 9, 42, 63
6, 9836, Note_on_c, 9, 42, 0
6, 9840, Note_on_c, 9, 42, 61
6, 9884, Note_on_c, 9, 42, 0
6, 9888, Note_on_c, 9, 42, 61
6, 9932, Note_on_c, 9, 42, 0
6, 9936, Note_on_c, 9, 42, 61
6, 9980, Note_on_c, 9, 42, 0
6, 9984, Note_on_c, 9, 42, 61
6, 10028, Note_on_c, 9, 42, 0
6, 10032, Note_on_c, 9, 42, 61
6, 10076, Note_on_c, 9, 42, 0
6, 10080, Note_on_c, 9, 42, 63
6, 10124, Note_on_c, 9, 42, 0
6, 10128, Note_on_c, 9, 42, 63
6, 10172, Note_on_c, 9, 42, 0
6, 10176, Note_on_c, 9, 42, 63
6, 10220, Note_on_c, 9, 42, 0
6, 10224, Note_on_c, 9, 42, 63
6, 10268, Note_on_c, 9, 42, 0
6, 10272, Note_on_c, 9, 42, 61
6, 10316, Note_on_c, 9, 42, 0
6, 10320, Note_on_c, 9, 42, 63
6, 10364, Note_on_c, 9, 42, 0
6, 10368, Note_on_c, 9, 42, 64
6, 10412, Note_on_c, 9, 42, 0
6, 10416, Note_on_c, 9, 42, 64
6, 10460, Note_on_c, 9, 42, 0
6, 10464, Note_on_c, 9, 42, 63
6, 10508, Note_on_c, 9, 42, 0
6, 10512, Note_on_c, 9, 42, 64
6, 10556, Note_on_c, 9, 42, 0
6, 10560, Note_on_c, 9, 42, 63
6, 10604, Note_on_c, 9, 42, 0
6, 10608, Note_on_c, 9, 42, 61
6, 10652, Note_on_c, 9, 42, 0
6, 10656, Note_on_c, 9, 42, 61
6, 10700, Note_on_c, 9, 42, 0
6, 10704, Note_on_c, 9, 42, 61
6, 10748, Note_on_c, 9, 42, 0
6, 10752, Note_on_c, 9, 42, 61
6, 10796, Note_on_c, 9, 42, 0
6, 10800, Note_on_c, 9, 42, 61
6, 10844, Note_on_c, 9, 42, 0
6, 10848, Note_on_c, 9, 42, 63
6, 10892, Note_on_c, 9, 42, 0
6, 10896, Note_on_c, 9, 42, 63
6, 10940, Note_on_c, 9, 42, 0
6, 10944, Note_on_c, 9, 42, 63
6, 10988, Note_on_c, 9, 42, 0
6, 10992, Note_on_c, 9, 42, 63
6, 11036, Note_on_c, 9, 42, 0
6, 11040, Note_on_c, 9, 42, 61
6, 11084, Note_on_c, 9, 42, 0
6, 11088, Note_on_c, 9, 42, 63
6, 11132, Note_on_c, 9, 42, 0
6, 11136, Note_on_c, 9, 42, 64
6, 11180, Note_on_c, 9, 42, 0
6, 11184, Note_on_c, 9, 42, 64
6, 11228, Note_on_c, 9, 42, 0
6, 11232, Note_on_c, 9, 42, 63
6, 11276, Note_on_c, 9, 42, 0
6, 11280, Note_on_c, 9, 42, 64
6, 11324, Note_on_c, 9, 42, 0
6, 11328, Note_on_c, 9, 42, 63
6, 11372, Note_on_c, 9, 42, 0
6, 11376, Note_on_c, 9, 42, 61
6, 11420, Note_on_c, 9, 42, 0
6, 11424, Note_on_c, 9, 42, 61
6, 11468, Note_on_c, 9, 42, 0
6, 11472, Note_on_c, 9, 42, 61
6, 11516, Note_on_c, 9, 42, 0
6, 11520, Note_on_c, 9, 42, 61
6, 11564, Note_on_c, 9, 42, 0
6, 11568, Note_on_c, 9, 42, 61
6, 11612, Note_on_c, 9, 42, 0
6, 11616, Note_on_c, 9, 42, 63
6, 11660, Note_on_c, 9, 42, 0
6, 11664, Note_on_c, 9, 42, 63
6, 11708, Note_on_c, 9, 42, 0
6, 11712, Note_on_c, 9, 42, 63
6, 11756, Note_on_c, 9, 42, 0
6, 11760, Note_on_c, 9, 42, 63
6, 11804, Note_on_c, 9, 42, 0
6, 11808, Note_on_c, 9, 42, 61
6, 11852, Note_on_c, 9, 42, 0
6, 11856, Note_on_c, 9, 42, 63
6, 11900, Note_on_c, 9, 42, 0
6, 11904, Note_on_c, 9, 42, 64
6, 11948, Note_on_c, 9, 42, 0
6, 11952, Note_on_c, 9, 42, 64
6, 11996, Note_on_c, 9, 42, 0
6, 12000, Note_on_c, 9, 42, 63
6, 12044, Note_on_c, 9, 42, 0
6, 12048, Note_on_c, 9, 42, 64
6, 12092, Note_on_c, 9, 42, 0
6, 12096, Note_on_c, 9, 42, 63
6, 12140, Note_on_c, 9, 42, 0
6, 12144, Note_on_c, 9, 42, 61
6, 12188, Note_on_c, 9, 42, 0
6, 12192, Note_on_c, 9, 42, 61
6, 12236, Note_on_c, 9, 42, 0
6, 12240, Note_on_c, 9, 42, 61
6, 12284, Note_on_c, 9, 42, 0
6, 12288, Note_on_c, 9, 42, 61
6, 12332, Note_on_c, 9, 42, 0
6, 12336, Note_on_c, 9, 42, 61
6, 12380, Note_on_c, 9, 42, 0
6, 12384, Note_on_c, 9, 42, 63
6, 12428, Note_on_c, 9, 42, 0
6, 12432, Note_on_c, 9, 42, 63
6, 12476, Note_on_c, 9, 42, 0
6, 12480, Note_on_c, 9, 42, 63
6, 12524, Note_on_c, 9, 42, 0
6, 12528, Note_on_c, 9, 42, 63
6, 12572, Note_on_c, 9, 42, 0
6, 12576, Note_on_c, 9, 42, 61
6, 12620, Note_on_c, 9, 42, 0
6, 12624, Note_on_c, 9, 42, 63
6, 12668, Note_on_c, 9, 42, 0
6, 12672, Note_on_c, 9, 42, 64
6, 12716, Note_on_c, 9, 42, 0
6, 12720, Note_on_c, 9, 42, 64
6, 12764, Note_on_c, 9, 42, 0
6, 12768, Note_on_c, 9, 42, 63
6, 12812, Note_on_c, 9, 42, 0
6, 12816, Note_on_c, 9, 42, 64
6, 12860, Note_on_c, 9, 42, 0
6, 12864, Note_on_c, 9, 42, 63
6, 12908, Note_on_c, 9, 42, 0
6, 12912, Note_on_c, 9, 42, 61
6, 12956, Note_on_c, 9, 42, 0
6, 12960, Note_on_c, 9, 42, 61
6, 13004, Note_on_c, 9, 42, 0
6, 13008, Note_on_c, 9, 42, 61
6, 13052, Note_on_c, 9, 42, 0
6, 13056, Note_on_c, 9, 42, 61
6, 13100, Note_on_c, 9, 42, 0
6, 13104, Note_on_c, 9, 42, 61
6, 13148, Note_on_c, 9, 42, 0
6, 13152, Note_on_c, 9, 42, 63
6, 13196, Note_on_c, 9, 42, 0
6, 13200, Note_on_c, 9, 42, 63
6, 13244, Note_on_c, 9, 42, 0
6, 13248, Note_on_c, 9, 42, 63
6, 13292, Note_on_c, 9, 42, 0
6, 13296, Note_on_c, 9, 42, 63
6, 13340, Note_on_c, 9, 42, 0
6, 13344, Note_on_c, 9, 42, 61
6, 13388, Note_on_c, 9, 42, 0
6, 13392, Note_on_c, 9, 42, 63
6, 13436, Note_on_c, 9, 42, 0
6, 13440, Note_on_c, 9, 42, 64
6, 13484, Note_on_c, 9, 42, 0
6, 13488, Note_on_c, 9, 42, 64
6, 13532, Note_on_c, 9, 42, 0
6, 13536, Note_on_c, 9, 42, 63
6, 13580, Note_on_c, 9, 42, 0
6, 13584, Note_on_c, 9, 42, 64
6, 13628, Note_on_c, 9, 42, 0
6, 13632, Note_on_c, 9, 42, 63
6, 13676, Note_on_c, 9, 42, 0
6, 13680, Note_on_c, 9, 42, 61
6, 13724, Note_on_c, 9, 42, 0
6, 13728, Note_on_c, 9, 42, 61
6, 13772, Note_on_c, 9, 42, 0
6, 13776, Note_on_c, 9, 42, 61
6, 13820, Note_on_c, 9, 42, 0
6, 13824, Note_on_c, 9, 42, 61
6, 13868, Note_on_c, 9, 42, 0
6, 13872, Note_on_c, 9, 42, 61
6, 13916, Note_on_c, 9, 42, 0
6, 13920, Note_on_c, 9, 42, 63
6, 13964, Note_on_c, 9, 42, 0
6, 13968, Note_on_c, 9, 42, 63
6, 14012, Note_on_c, 9, 42, 0
6, 14016, Note_on_c, 9, 42, 63
6, 14060, Note_on_c, 9, 42, 0
6, 14064, Note_on_c, 9, 42, 63
6, 14108, Note_on_c, 9, 42, 0
6, 14112, Note_on_c, 9, 42, 61
6, 14156, Note_on_c, 9, 42, 0
6, 14160, Note_on_c, 9, 42, 63
6, 14204, Note_on_c, 9, 42, 0
6, 14208, Note_on_c, 9, 42, 64
6, 14252, Note_on_c, 9, 42, 0
6, 14256, Note_on_c, 9, 42, 64
6, 14300, Note_on_c, 9, 42, 0
6, 14304, Note_on_c, 9, 42, 63
6, 14348, Note_on_c, 9, 42, 0
6, 14352, Note_on_c, 9, 42, 64
6, 14396, Note_on_c, 9, 42, 0
6, 14400, Note_on_c, 9, 42, 63
6, 14444, Note_on_c, 9, 42, 0
6, 14448, Note_on_c, 9, 42, 61
6, 14492, Note_on_c, 9, 42, 0
6, 14496, Note_on_c, 9, 42, 61
6, 14540, Note_on_c, 9, 42, 0
6, 14544, Note_on_c, 9, 42, 61
6, 14588, Note_on_c, 9, 42, 0
6, 14592, Note_on_c, 9, 42, 61
6, 14636, Note_on_c, 9, 42, 0
6, 14640, Note_on_c, 9, 42, 61
6, 14684, Note_on_c, 9, 42, 0
6, 14688, Note_on_c, 9, 42, 63
6, 14732, Note_on_c, 9, 42, 0
6, 14736, Note_on_c, 9, 42, 63
6, 14780, Note_on_c, 9, 42, 0
6, 14784, Note_on_c, 9, 42, 63
6, 14828, Note_on_c, 9, 42, 0
6, 14832, Note_on_c, 9, 42, 63
6, 14876, Note_on_c, 9, 42, 0
6, 15360, Note_on_c, 9, 42, 61
6, 15404, Note_on_c, 9, 42, 0
6, 15408, Note_on_c, 9, 42, 61
6, 15452, Note_on_c, 9, 42, 0
6, 15456, Note_on_c, 9, 42, 63
6, 15500, Note_on_c, 9, 42, 0
6, 15504, Note_on_c, 9, 42, 63
6, 15548, Note_on_c, 9, 42, 0
6, 15552, Note_on_c, 9, 42, 63
6, 15552, Note_on_c, 9, 40, 127
6, 15552, Note_on_c, 9, 37, 101
6, 15596, Note_on_c, 9, 37, 0
6, 15596, Note_on_c, 9, 40, 0
6, 15596, Note_on_c, 9, 42, 0
6, 15600, Note_on_c, 9, 42, 63
6, 15644, Note_on_c, 9, 42, 0
6, 15648, Note_on_c, 9, 42, 61
6, 15692, Note_on_c, 9, 42, 0
6, 15696, Note_on_c, 9, 42, 63
6, 15740, Note_on_c, 9, 42, 0
6, 15744, Note_on_c, 9, 42, 64
6, 15788, Note_on_c, 9, 42, 0
6, 15792, Note_on_c, 9, 42, 64
6, 15836, Note_on_c, 9, 42, 0
6, 15840, Note_on_c, 9, 42, 63
6, 15884, Note_on_c, 9, 42, 0
6, 15888, Note_on_c, 9, 42, 64
6, 15932, Note_on_c, 9, 42, 0
6, 15936, Note_on_c, 9, 42, 63
6, 15936, Note_on_c, 9, 40, 127
6, 15936, Note_on_c, 9, 37, 101
6, 15980, Note_on_c, 9, 37, 0
6, 15980, Note_on_c, 9, 40, 0
6, 15980, Note_on_c, 9, 42, 0
6, 15984, Note_on_c, 9, 42, 61
6, 16028, Note_on_c, 9, 42, 0
6, 16032, Note_on_c, 9, 42, 61
6, 16032, Note_on_c, 9, 37, 127
6, 16076, Note_on_c, 9, 37, 0
6, 16076, Note_on_c, 9, 42, 0
6, 16080, Note_on_c, 9, 42, 61
6, 16124, Note_on_c, 9, 42, 0
6, 16128, Note_on_c, 9, 42, 61
6, 16172, Note_on_c, 9, 42, 0
6, 16176, Note_on_c, 9, 42, 61
6, 16220, Note_on_c, 9, 42, 0
6, 16224, Note_on_c, 9, 42, 63
6, 16268, Note_on_c, 9, 42, 0
6, 16272, Note_on_c, 9, 42, 63
6, 16316, Note_on_c, 9, 42, 0
6, 16320, Note_on_c, 9, 42, 63
6, 16320, Note_on_c, 9, 40, 127
6, 16320, Note_on_c, 9, 37, 101
6, 16364, Note_on_c, 9, 37, 0
6, 16364, Note_on_c, 9, 40, 0
6, 16364, Note_on_c, 9, 42, 0
6, 16368, Note_on_c, 9, 42, 63
6, 16412, Note_on_c, 9, 42, 0
6, 16416, Note_on_c, 9, 42, 61
6, 16460, Note_on_c, 9, 42, 0
6, 16464, Note_on_c, 9, 42, 63
6, 16508, Note_on_c, 9, 42, 0
6, 16512, Note_on_c, 9, 42, 64
6, 16556, Note_on_c, 9, 42, 0
6, 16560, Note_on_c, 9, 42, 64
6, 16604, Note_on_c, 9, 42, 0
6, 16608, Note_on_c, 9, 42, 63
6, 16652, Note_on_c, 9, 42, 0
6, 16656, Note_on_c, 9, 42, 64
6, 16700, Note_on_c, 9, 42, 0
6, 16704, Note_on_c, 9, 42, 63
6, 16704, Note_on_c, 9, 40, 127
6, 16704, Note_on_c, 9, 37, 101
6, 16748, Note_on_c, 9, 37, 0
6, 16748, Note_on_c, 9, 40, 0
6, 16748, Note_on_c, 9, 42, 0
6, 16752, Note_on_c, 9, 42, 61
6, 16796, Note_on_c, 9, 42, 0
6, 16800, Note_on_c, 9, 42, 61
6, 16800, Note_on_c, 9, 37, 127
6, 16844, Note_on_c, 9, 37, 0
6, 16844, Note_on_c, 9, 42, 0
6, 16848, Note_on_c, 9, 42, 61
6, 16892, Note_on_c, 9, 42, 0
6, 16896, Note_on_c, 9, 42, 61
6, 16940, Note_on_c, 9, 42, 0
6, 16944, Note_on_c, 9, 42, 61
6, 16988, Note_on_c, 9, 42, 0
6, 16992, Note_on_c, 9, 42, 63
6, 17036, Note_on_c, 9, 42, 0
6, 17040, Note_on_c, 9, 42, 63
6, 17084, Note_on_c, 9, 42, 0
6, 17088, Note_on_c, 9, 42, 63
6, 17088, Note_on_c, 9, 40, 127
6, 17088, Note_on_c, 9, 37, 101
6, 17132, Note_on_c, 9, 37, 0
6, 17132, Note_on_c, 9, 40, 0
6, 17132, Note_on_c, 9, 42, 0
6, 17136, Note_on_c, 9, 42, 63
6, 17180, Note_on_c, 9, 42, 0
6, 17184, Note_on_c, 9, 42, 61
6, 17228, Note_on_c, 9, 42, 0
6, 17232, Note_on_c, 9, 42, 63
6, 17276, Note_on_c, 9, 42, 0
6, 17280, Note_on_c, 9, 42, 64
6, 17324, Note_on_c, 9, 42, 0
6, 17328, Note_on_c, 9, 42, 64
6, 17372, Note_on_c, 9, 42, 0
6, 17376, Note_on_c, 9, 42, 63
6, 17420, Note_on_c, 9, 42, 0
6, 17424, Note_on_c, 9, 42, 64
6, 17468, Note_on_c, 9, 42, 0
6, 17472, Note_on_c, 9, 42, 63
6, 17472, Note_on_c, 9, 40, 127
6, 17472, Note_on_c, 9, 37, 101
6, 17516, Note_on_c, 9, 37, 0
6, 17516, Note_on_c, 9, 40, 0
6, 17516, Note_on_c, 9, 42, 0
6, 17520, Note_on_c, 9, 42, 61
6, 17564, Note_on_c, 9, 42, 0
6, 17568, Note_on_c, 9, 42, 61
6, 17568, Note_on_c, 9, 37, 127
6, 17612, Note_on_c, 9, 37, 0
6, 17612, Note_on_c, 9, 42, 0
6, 17616, Note_on_c, 9, 42, 61
6, 17660, Note_on_c, 9, 42, 0
6, 17664, Note_on_c, 9, 42, 61
6, 17708, Note_on_c, 9, 42, 0
6, 17712, Note_on_c, 9, 42, 61
6, 17756, Note_on_c, 9, 42, 0
6, 17760, Note_on_c, 9, 42, 63
6, 17804, Note_on_c, 9, 42, 0
6, 17808, Note_on_c, 9, 42, 63
6, 17852, Note_on_c, 9, 42, 0
6, 17856, Note_on_c, 9, 42, 63
6, 17856, Note_on_c, 9, 40, 127
6, 17856, Note_on_c, 9, 37, 101
6, 17900, Note_on_c, 9, 37, 0
6, 17900, Note_on_c, 9, 40, 0
6, 17900, Note_on_c, 9, 42, 0
6, 17904, Note_on_c, 9, 42, 63
6, 17948, Note_on_c, 9, 42, 0
6, 17952, Note_on_c, 9, 42, 61
6, 17996, Note_on_c, 9, 42, 0
6, 18000, Note_on_c, 9, 42, 63
6, 18044, Note_on_c, 9, 42, 0
6, 18048, Note_on_c, 9, 42, 64
6, 18092, Note_on_c, 9, 42, 0
6, 18096, Note_on_c, 9, 42, 64
6, 18140, Note_on_c, 9, 42, 0
6, 18144, Note_on_c, 9, 42, 63
6, 18188, Note_on_c, 9, 42, 0
6, 18192, Note_on_c, 9, 42, 64
6, 18236, Note_on_c, 9, 42, 0
6, 18240, Note_on_c, 9, 42, 63
6, 18240, Note_on_c, 9, 40, 127
6, 18240, Note_on_c, 9, 37, 101
6, 18284, Note_on_c, 9, 37, 0
6, 18284, Note_on_c, 9, 40, 0
6, 18284, Note_on_c, 9, 42, 0
6, 18288, Note_on_c, 9, 42, 61
6, 18332, Note_on_c, 9, 42, 0
6, 18336, Note_on_c, 9, 42, 61
6, 18336, Note_on_c, 9, 37, 127
6, 18380, Note_on_c, 9, 37, 0
6, 18380, Note_on_c, 9, 42, 0
6, 18384, Note_on_c, 9, 42, 61
6, 18428, Note_on_c, 9, 42, 0
6, 18432, Note_on_c, 9, 42, 61
6, 18476, Note_on_c, 9, 42, 0
6, 18480, Note_on_c, 9, 42, 61
6, 18524, Note_on_c, 9, 42, 0
6, 18528, Note_on_c, 9, 42, 63
6, 18572, Note_on_c, 9, 42, 0
6, 18576, Note_on_c, 9, 42, 63
6, 18620, Note_on_c, 9, 42, 0
6, 18624, Note_on_c, 9, 42, 63
6, 18624, Note_on_c, 9, 40, 127
6, 18624, Note_on_c, 9, 37, 101
6, 18668, Note_on_c, 9, 37, 0
6, 18668, Note_on_c, 9, 40, 0
6, 18668, Note_on_c, 9, 42, 0
6, 18672, Note_on_c, 9, 42, 63
6, 18716, Note_on_c, 9, 42, 0
6, 18720, Note_on_c, 9, 42, 61
6, 18764, Note_on_c, 9, 42, 0
6, 18768, Note_on_c, 9, 42, 63
6, 18812, Note_on_c, 9, 42, 0
6, 18816, Note_on_c, 9, 42, 64
6, 18860, Note_on_c, 9, 42, 0
6, 18864, Note_on_c, 9, 42, 64
6, 18908, Note_on_c, 9, 42, 0
6, 18912, Note_on_c, 9, 42, 63
6, 18956, Note_on_c, 9, 42, 0
6, 18960, Note_on_c, 9, 42, 64
6, 19004, Note_on_c, 9, 42, 0
6, 19008, Note_on_c, 9, 42, 63
6, 19008, Note_on_c, 9, 40, 127
6, 19008, Note_on_c, 9, 37, 101
6, 19052, Note_on_c, 9, 37, 0
6, 19052, Note_on_c, 9, 40, 0
6, 19052, Note_on_c, 9, 42, 0
6, 19056, Note_on_c, 9, 42, 61
6, 19100, Note_on_c, 9, 42, 0
6, 19104, Note_on_c, 9, 42, 61
6, 19104, Note_on_c, 9, 37, 127
6, 19148, Note_on_c, 9, 37, 0
6, 19148, Note_on_c, 9, 42, 0
6, 19152, Note_on_c, 9, 42, 61
6, 19196, Note_on_c, 9, 42, 0
6, 19200, Note_on_c, 9, 42, 61
6, 19244, Note_on_c, 9, 42, 0
6, 19248, Note_on_c, 9, 42, 61
6, 19292, Note_on_c, 9, 42, 0
6, 19296, Note_on_c, 9, 42, 63
6, 19340, Note_on_c, 9, 42, 0
6, 19344, Note_on_c, 9, 42, 63
6, 19388, Note_on_c, 9, 42, 0
6, 19392, Note_on_c, 9, 42, 63
6, 19392, Note_on_c, 9, 40, 127
6, 19392, Note_on_c, 9, 37, 101
6, 19436, Note_on_c, 9, 37, 0
6, 19436, Note_on_c, 9, 40, 0
6, 19436, Note_on_c, 9, 42, 0
6, 19440, Note_on_c, 9, 42, 63
6, 19484, Note_on_c, 9, 42, 0
6, 19488, Note_on_c, 9, 42, 61
6, 19532, Note_on_c, 9, 42, 0
6, 19536, Note_on_c, 9, 42, 63
6, 19580, Note_on_c, 9, 42, 0
6, 19584, Note_on_c, 9, 42, 64
6, 19628, Note_on_c, 9, 42, 0
6, 19632, Note_on_c, 9, 42, 64
6, 19676, Note_on_c, 9, 42, 0
6, 19680, Note_on_c, 9, 42, 63
6, 19724, Note_on_c, 9, 42, 0
6, 19728, Note_on_c, 9, 42, 64
6, 19772, Note_on_c, 9, 42, 0
6, 19776, Note_on_c, 9, 42, 63
6, 19776, Note_on_c, 9, 40, 127
6, 19776, Note_on_c, 9, 37, 101
6, 19820, Note_on_c, 9, 37, 0
6, 19820, Note_on_c, 9, 40, 0
6, 19820, Note_on_c, 9, 42, 0
6, 19824, Note_on_c, 9, 42, 61
6, 19868, Note_on_c, 9, 42, 0
6, 19872, Note_on_c, 9, 42, 61
6, 19872, Note_on_c, 9, 37, 127
6, 19916, Note_on_c, 9, 37, 0
6, 19916, Note_on_c, 9, 42, 0
6, 19920, Note_on_c, 9, 42, 61
6, 19964, Note_on_c, 9, 42, 0
6, 19968, Note_on_c, 9, 42, 61
6, 20012, Note_on_c, 9, 42, 0
6, 20016, Note_on_c, 9, 42, 61
6, 20060, Note_on_c, 9, 42, 0
6, 20064, Note_on_c, 9, 42, 63
6, 20108, Note_on_c, 9, 42, 0
6, 20112, Note_on_c, 9, 42, 63
6, 20156, Note_on_c, 9, 42, 0
6, 20160, Note_on_c, 9, 42, 63
6, 20160, Note_on_c, 9, 40, 127
6, 20160, Note_on_c, 9, 37, 101
6, 20204, Note_on_c, 9, 37, 0
6, 20204, Note_on_c, 9, 40, 0
6, 20204, Note_on_c, 9, 42, 0
6, 20208, Note_on_c, 9, 42, 63
6, 20252, Note_on_c, 9, 42, 0
6, 20256, Note_on_c, 9, 42, 61
6, 20300, Note_on_c, 9, 42, 0
6, 20304, Note_on_c, 9, 42, 63
6, 20348, Note_on_c, 9, 42, 0
6, 20352, Note_on_c, 9, 42, 64
6, 20396, Note_on_c, 9, 42, 0
6, 20400, Note_on_c, 9, 42, 64
6, 20444, Note_on_c, 9, 42, 0
6, 20448, Note_on_c, 9, 42, 63
6, 20492, Note_on_c, 9, 42, 0
6, 20496, Note_on_c, 9, 42, 64
6, 20540, Note_on_c, 9, 42, 0
6, 20544, Note_on_c, 9, 42, 63
6, 20544, Note_on_c, 9, 40, 127
6, 20544, Note_on_c, 9, 37, 101
6, 20588, Note_on_c, 9, 37, 0
6, 20588, Note_on_c, 9, 40, 0
6, 20588, Note_on_c, 9, 42, 0
6, 20592, Note_on_c, 9, 42, 61
6, 20636, Note_on_c, 9, 42, 0
6, 20640, Note_on_c, 9, 42, 61
6, 20640, Note_on_c, 9, 37, 127
6, 20684, Note_on_c, 9, 37, 0
6, 20684, Note_on_c, 9, 42, 0
6, 20688, Note_on_c, 9, 42, 61
6, 20732, Note_on_c, 9, 42, 0
6, 20736, Note_on_c, 9, 42, 61
6, 20780, Note_on_c, 9, 42, 0
6, 20784, Note_on_c, 9, 42, 61
6, 20828, Note_on_c, 9, 42, 0
6, 20832, Note_on_c, 9, 42, 63
6, 20876, Note_on_c, 9, 42, 0
6, 20880, Note_on_c, 9, 42, 63
6, 20924, Note_on_c, 9, 42, 0
6, 20928, Note_on_c, 9, 42, 63
6, 20928, Note_on_c, 9, 40, 127
6, 20928, Note_on_c, 9, 37, 101
6, 20972, Note_on_c, 9, 37, 0
6, 20972, Note_on_c, 9, 40, 0
6, 20972, Note_on_c, 9, 42, 0
6, 20976, Note_on_c, 9, 42, 63
6, 21020, Note_on_c, 9, 42, 0
6, 21024, Note_on_c, 9, 42, 61
6, 21068, Note_on_c, 9, 42, 0
6, 21072, Note_on_c, 9, 42, 63
6, 21116, Note_on_c, 9, 42, 0
6, 21120, Note_on_c, 9, 42, 64
6, 21164, Note_on_c, 9, 42, 0
6, 21168, Note_on_c, 9, 42, 64
6, 21212, Note_on_c, 9, 42, 0
6, 21216, Note_on_c, 9, 42, 63
6, 21260, Note_on_c, 9, 42, 0
6, 21264, Note_on_c, 9, 42, 64
6, 21308, Note_on_c, 9, 42, 0
6, 21312, Note_on_c, 9, 42, 63
6, 21312, Note_on_c, 9, 40, 127
6, 21312, Note_on_c, 9, 37, 101
6, 21356, Note_on_c, 9, 37, 0
6, 21356, Note_on_c, 9, 40, 0
6, 21356, Note_on_c, 9, 42, 0
6, 21360, Note_on_c, 9, 42, 61
6, 21404, Note_on_c, 9, 42, 0
6, 21408, Note_on_c, 9, 42, 61
6, 21408, Note_on_c, 9, 37, 127
6, 21452, Note_on_c, 9, 37, 0
6, 21452, Note_on_c, 9, 42, 0
6, 21456, Note_on_c, 9, 42, 61
6, 21500, Note_on_c, 9, 42, 0
6, 21504, Note_on_c, 9, 42, 61
6, 21548, Note_on_c, 9, 42, 0
6, 21552, Note_on_c, 9, 42, 61
6, 21596, Note_on_c, 9, 42, 0
6, 21600, Note_on_c, 9, 42, 63
6, 21644, Note_on_c, 9, 42, 0
6, 21648, Note_on_c, 9, 42, 63
6, 21692, Note_on_c, 9, 42, 0
6, 21696, Note_on_c, 9, 42, 63
6, 21696, Note_on_c, 9, 40, 127
6, 21696, Note_on_c, 9, 37, 101
6, 21740, Note_on_c, 9, 37, 0
6, 21740, Note_on_c, 9, 40, 0
6, 21740, Note_on_c, 9, 42, 0
6, 21744, Note_on_c, 9, 42, 63
6, 21788, Note_on_c, 9, 42, 0
6, 21792, Note_on_c, 9, 42, 61
6, 21836, Note_on_c, 9, 42, 0
6, 21840, Note_on_c, 9, 42, 63
6, 21884, Note_on_c, 9, 42, 0
6, 21888, Note_on_c, 9, 42, 64
6, 21932, Note_on_c, 9, 42, 0
6, 21936, Note_on_c, 9, 42, 64
6, 21980, Note_on_c, 9, 42, 0
6, 21984, Note_on_c, 9, 42, 63
6, 22028, Note_on_c, 9, 42, 0
6, 22032, Note_on_c, 9, 42, 64
6, 22076, Note_on_c, 9, 42, 0
6, 22080, Note_on_c, 9, 42, 63
6, 22080, Note_on_c, 9, 40, 127
6, 22080, Note_on_c, 9, 37, 101
6, 22124, Note_on_c, 9, 37, 0
6, 22124, Note_on_c, 9, 40, 0
6, 22124, Note_on_c, 9, 42, 0
6, 22128, Note_on_c, 9, 42, 61
6, 22172, Note_on_c, 9, 42, 0
6, 22176, Note_on_c, 9, 42, 61
6, 22176, Note_on_c, 9, 37, 127
6, 22220, Note_on_c, 9, 37, 0
6, 22220, Note_on_c, 9, 42, 0
6, 22224, Note_on_c, 9, 42, 61
6, 22268, Note_on_c, 9, 42, 0
6, 22272, Note_on_c, 9, 42, 61
6, 22316, Note_on_c, 9, 42, 0
6, 22320, Note_on_c, 9, 42, 61
6, 22364, Note_on_c, 9, 42, 0
6, 22368, Note_on_c, 9, 42, 63
6, 22412, Note_on_c, 9, 42, 0
6, 22416, Note_on_c, 9, 42, 63
6, 22460, Note_on_c, 9, 42, 0
6, 22464, Note_on_c, 9, 42, 63
6, 22464, Note_on_c, 9, 40, 127
6, 22464, Note_on_c, 9, 37, 101
6, 22508, Note_on_c, 9, 37, 0
6, 22508, Note_on_c, 9, 40, 0
6, 22508, Note_on_c, 9, 42, 0
6, 22512, Note_on_c, 9, 42, 63
6, 22556, Note_on_c, 9, 42, 0
6, 22560, Note_on_c, 9, 42, 61
6, 22604, Note_on_c, 9, 42, 0
6, 22608, Note_on_c, 9, 42, 63
6, 22652, Note_on_c, 9, 42, 0
6, 22656, Note_on_c, 9, 42, 64
6, 22700, Note_on_c, 9, 42, 0
6, 22704, Note_on_c, 9, 42, 64
6, 22748, Note_on_c, 9, 42, 0
6, 22752, Note_on_c, 9, 42, 63
6, 22796, Note_on_c, 9, 42, 0
6, 22800, Note_on_c, 9, 42, 64
6, 22844, Note_on_c, 9, 42, 0
6, 22848, Note_on_c, 9, 42, 63
6, 22848, Note_on_c, 9, 40, 127
6, 22848, Note_on_c, 9, 37, 101
6, 22892, Note_on_c, 9, 37, 0
6, 22892, Note_on_c, 9, 40, 0
6, 22892, Note_on_c, 9, 42, 0
6, 22896, Note_on_c, 9, 42, 61
6, 22940, Note_on_c, 9, 42, 0
6, 22944, Note_on_c, 9, 42, 61
6, 22944, Note_on_c, 9, 37, 127
6, 22988, Note_on_c, 9, 37, 0
6, 22988, Note_on_c, 9, 42, 0
6, 22992, Note_on_c, 9, 42, 61
6, 23036, Note_on_c, 9, 42, 0
6, 23040, Note_on_c, 9, 42, 61
6, 23084, Note_on_c, 9, 42, 0
6, 23088, Note_on_c, 9, 42, 61
6, 23132, Note_on_c, 9, 42, 0
6, 23136, Note_on_c, 9, 42, 63
6, 23180, Note_on_c, 9, 42, 0
6, 23184, Note_on_c, 9, 42, 63
6, 23228, Note_on_c, 9, 42, 0
6, 23232, Note_on_c, 9, 42, 63
6, 23232, Note_on_c, 9, 40, 127
6, 23232, Note_on_c, 9, 37, 101
6, 23276, Note_on_c, 9, 37, 0
6, 23276, Note_on_c, 9, 40, 0
6, 23276, Note_on_c, 9, 42, 0
6, 23280, Note_on_c, 9, 42, 63
6, 23324, Note_on_c, 9, 42, 0
6, 23328, Note_on_c, 9, 42, 61
6, 23372, Note_on_c, 9, 42, 0
6, 23376, Note_on_c, 9, 42, 63
6, 23420, Note_on_c, 9, 42, 0
6, 23424, Note_on_c, 9, 42, 64
6, 23468, Note_on_c, 9, 42, 0
6, 23472, Note_on_c, 9, 42, 64
6, 23516, Note_on_c, 9, 42, 0
6, 23520, Note_on_c, 9, 42, 63
6, 23564, Note_on_c, 9, 42, 0
6, 23568, Note_on_c, 9, 42, 64
6, 23612, Note_on_c, 9, 42, 0
6, 23616, Note_on_c, 9, 42, 63
6, 23616, Note_on_c, 9, 40, 127
6, 23616, Note_on_c, 9, 37, 101
6, 23660, Note_on_c, 9, 37, 0
6, 23660, Note_on_c, 9, 40, 0
6, 23660, Note_on_c, 9, 42, 0
6, 23664, Note_on_c, 9, 42, 61
6, 23708, Note_on_c, 9, 42, 0
6, 23712, Note_on_c, 9, 42, 61
6, 23712, Note_on_c, 9, 37, 127
6, 23756, Note_on_c, 9, 37, 0
6, 23756, Note_on_c, 9, 42, 0
6, 23760, Note_on_c, 9, 42, 61
6, 23804, Note_on_c, 9, 42, 0
6, 23808, Note_on_c, 9, 42, 61
6, 23852, Note_on_c, 9, 42, 0
6, 23856, Note_on_c, 9, 42, 61
6, 23900, Note_on_c, 9, 42, 0
6, 23904, Note_on_c, 9, 42, 63
6, 23948, Note_on_c, 9, 42, 0
6, 23952, Note_on_c, 9, 42, 63
6, 23996, Note_on_c, 9, 42, 0
6, 24000, Note_on_c, 9, 42, 63
6, 24000, Note_on_c, 9, 40, 127
6, 24000, Note_on_c, 9, 37, 101
6, 24044, Note_on_c, 9, 37, 0
6, 24044, Note_on_c, 9, 40, 0
6, 24044, Note_on_c, 9, 42, 0
6, 24048, Note_on_c, 9, 42, 63
6, 24092, Note_on_c, 9, 42, 0
6, 24096, Note_on_c, 9, 42, 61
6, 24140, Note_on_c, 9, 42, 0
6, 24144, Note_on_c, 9, 42, 63
6, 24188, Note_on_c, 9, 42, 0
6, 24192, Note_on_c, 9, 42, 64
6, 24236, Note_on_c, 9, 42, 0
6, 24240, Note_on_c, 9, 42, 64
6, 24284, Note_on_c, 9, 42, 0
6, 24288, Note_on_c, 9, 42, 63
6, 24332, Note_on_c, 9, 42, 0
6, 24336, Note_on_c, 9, 42, 64
6, 24380, Note_on_c, 9, 42, 0
6, 24384, Note_on_c, 9, 42, 63
6, 24384, Note_on_c, 9, 40, 127
6, 24384, Note_on_c, 9, 37, 101
6, 24428, Note_on_c, 9, 37, 0
6, 24428, Note_on_c, 9, 40, 0
6, 24428, Note_on_c, 9, 42, 0
6, 24432, Note_on_c, 9, 42, 61
6, 24476, Note_on_c, 9, 42, 0
6, 24480, Note_on_c, 9, 42, 61
6, 24480, Note_on_c, 9, 37, 127
6, 24524, Note_on_c, 9, 37, 0
6, 24524, Note_on_c, 9, 42, 0
6, 24528, Note_on_c, 9, 42, 61
6, 24572, Note_on_c, 9, 42, 0
6, 24576, Note_on_c, 9, 42, 61
6, 24620, Note_on_c, 9, 42, 0
6, 24624, Note_on_c, 9, 42, 61
6, 24668, Note_on_c, 9, 42, 0
6, 24672, Note_on_c, 9, 42, 63
6, 24716, Note_on_c, 9, 42, 0
6, 24720, Note_on_c, 9, 42, 63
6, 24764, Note_on_c, 9, 42, 0
6, 24768, Note_on_c, 9, 42, 63
6, 24768, Note_on_c, 9, 40, 127
6, 24768, Note_on_c, 9, 37, 101
6, 24812, Note_on_c, 9, 37, 0
6, 24812, Note_on_c, 9, 40, 0
6, 24812, Note_on_c, 9, 42, 0
6, 24816, Note_on_c, 9, 42, 63
6, 24860, Note_on_c, 9, 42, 0
6, 24864, Note_on_c, 9, 42, 61
6, 24908, Note_on_c, 9, 42, 0
6, 24912, Note_on_c, 9, 42, 63
6, 24956, Note_on_c, 9, 42, 0
6, 24960, Note_on_c, 9, 42, 64
6, 25004, Note_on_c, 9, 42, 0
6, 25008, Note_on_c, 9, 42, 64
6, 25052, Note_on_c, 9, 42, 0
6, 25056, Note_on_c, 9, 42, 63
6, 25100, Note_on_c, 9, 42, 0
6, 25104, Note_on_c, 9, 42, 64
6, 25148, Note_on_c, 9, 42, 0
6, 25152, Note_on_c, 9, 42, 63
6, 25152, Note_on_c, 9, 40, 127
6, 25152, Note_on_c, 9, 37, 101
6, 25196, Note_on_c, 9, 37, 0
6, 25196, Note_on_c, 9, 40, 0
6, 25196, Note_on_c, 9, 42, 0
6, 25200, Note_on_c, 9, 42, 61
6, 25244, Note_on_c, 9, 42, 0
6, 25248, Note_on_c, 9, 42, 61
6, 25248, Note_on_c, 9, 37, 127
6, 25292, Note_on_c, 9, 37, 0
6, 25292, Note_on_c, 9, 42, 0
6, 25296, Note_on_c, 9, 42, 61
6, 25340, Note_on_c, 9, 42, 0
6, 25344, Note_on_c, 9, 42, 61
6, 25388, Note_on_c, 9, 42, 0
6, 25392, Note_on_c, 9, 42, 61
6, 25436, Note_on_c, 9, 42, 0
6, 25440, Note_on_c, 9, 42, 63
6, 25484, Note_on_c, 9, 42, 0
6, 25488, Note_on_c, 9, 42, 63
6, 25532, Note_on_c, 9, 42, 0
6, 25536, Note_on_c, 9, 42, 63
6, 25536, Note_on_c, 9, 40, 127
6, 25536, Note_on_c, 9, 37, 101
6, 25580, Note_on_c, 9, 37, 0
6, 25580, Note_on_c, 9, 40, 0
6, 25580, Note_on_c, 9, 42, 0
6, 25584, Note_on_c, 9, 42, 63
6, 25628, Note_on_c, 9, 42, 0
6, 25632, Note_on_c, 9, 42, 61
6, 25676, Note_on_c, 9, 42, 0
6, 25680, Note_on_c, 9, 42, 63
6, 25724, Note_on_c, 9, 42, 0
6, 25728, Note_on_c, 9, 42, 64
6, 25772, Note_on_c, 9, 42, 0
6, 25776, Note_on_c, 9, 42, 64
6, 25820, Note_on_c, 9, 42, 0
6, 25824, Note_on_c, 9, 42, 63
6, 25868, Note_on_c, 9, 42, 0
6, 25872, Note_on_c, 9, 42, 64
6, 25916, Note_on_c, 9, 42, 0
6, 25920, Note_on_c, 9, 42, 63
6, 25920, Note_on_c, 9, 40, 127
6, 25920, Note_on_c, 9, 37, 101
6, 25964, Note_on_c, 9, 37, 0
6, 25964, Note_on_c, 9, 40, 0
6, 25964, Note_on_c, 9, 42, 0
6, 25968, Note_on_c, 9, 42, 61
6, 26012, Note_on_c, 9, 42, 0
6, 26016, Note_on_c, 9, 42, 61
6, 26016, Note_on_c, 9, 37, 127
6, 26060, Note_on_c, 9, 37, 0
6, 26060, Note_on_c, 9, 42, 0
6, 26064, Note_on_c, 9, 42, 61
6, 26108, Note_on_c, 9, 42, 0
6, 26112, Note_on_c, 9, 42, 61
6, 26156, Note_on_c, 9, 42, 0
6, 26160, Note_on_c, 9, 42, 61
6, 26204, Note_on_c, 9, 42, 0
6, 26208, Note_on_c, 9, 42, 63
6, 26252, Note_on_c, 9, 42, 0
6, 26256, Note_on_c, 9, 42, 63
6, 26300, Note_on_c, 9, 42, 0
6, 26304, Note_on_c, 9, 40, 127
6, 26304, Note_on_c, 9, 37, 101
6, 26304, Note_on_c, 9, 42, 63
6, 26348, Note_on_c, 9, 42, 0
6, 26348, Note_on_c, 9, 37, 0
6, 26348, Note_on_c, 9, 40, 0
6, 26352, Note_on_c, 9, 42, 63
6, 26396, Note_on_c, 9, 42, 0
6, 26400, Note_on_c, 9, 42, 61
6, 26444, Note_on_c, 9, 42, 0
6, 26448, Note_on_c, 9, 42, 63
6, 26492, Note_on_c, 9, 42, 0
6, 26496, Note_on_c, 9, 42, 64
6, 26540, Note_on_c, 9, 42, 0
6, 26544, Note_on_c, 9, 42, 64
6, 26588, Note_on_c, 9, 42, 0
6, 26592, Note_on_c, 9, 42, 63
6, 26636, Note_on_c, 9, 42, 0
6, 26640, Note_on_c, 9, 42, 64
6, 26684, Note_on_c, 9, 42, 0
6, 26688, Note_on_c, 9, 40, 127
6, 26688, Note_on_c, 9, 37, 101
6, 26688, Note_on_c, 9, 42, 63
6, 26732, Note_on_c, 9, 42, 0
6, 26732, Note_on_c, 9, 37, 0
6, 26732, Note_on_c, 9, 40, 0
6, 26736, Note_on_c, 9, 42, 61
6, 26780, Note_on_c, 9, 42, 0
6, 26784, Note_on_c, 9, 37, 127
6, 26784, Note_on_c, 9, 42, 61
6, 26828, Note_on_c, 9, 42, 0
6, 26828, Note_on_c, 9, 37, 0
6, 26832, Note_on_c, 9, 42, 61
6, 26876, Note_on_c, 9, 42, 0
6, 26880, Note_on_c, 9, 42, 61
6, 26924, Note_on_c, 9, 42, 0
6, 26928, Note_on_c, 9, 42, 61
6, 26972, Note_on_c, 9, 42, 0
6, 26976, Note_on_c, 9, 42, 63
6, 27020, Note_on_c, 9, 42, 0
6, 27024, Note_on_c, 9, 42, 63
6, 27068, Note_on_c, 9, 42, 0
6, 27072, Note_on_c, 9, 42, 63
6, 27072, Note_on_c, 9, 40, 127
6, 27072, Note_on_c, 9, 37, 101
6, 27116, Note_on_c, 9, 37, 0
6, 27116, Note_on_c, 9, 40, 0
6, 27116, Note_on_c, 9, 42, 0
6, 27120, Note_on_c, 9, 42, 63
6, 27164, Note_on_c, 9, 42, 0
6, 27168, Note_on_c, 9, 42, 61
6, 27212, Note_on_c, 9, 42, 0
6, 27216, Note_on_c, 9, 42, 63
6, 27260, Note_on_c, 9, 42, 0
6, 27264, Note_on_c, 9, 42, 64
6, 27308, Note_on_c, 9, 42, 0
6, 27312, Note_on_c, 9, 42, 64
6, 27356, Note_on_c, 9, 42, 0
6, 27360, Note_on_c, 9, 42, 63
6, 27404, Note_on_c, 9, 42, 0
6, 27408, Note_on_c, 9, 42, 64
6, 27452, Note_on_c, 9, 42, 0
6, 27456, Note_on_c, 9, 42, 63
6, 27456, Note_on_c, 9, 40, 127
6, 27456, Note_on_c, 9, 37, 101
6, 27500, Note_on_c, 9, 37, 0
6, 27500, Note_on_c, 9, 40, 0
6, 27500, Note_on_c, 9, 42, 0
6, 27504, Note_on_c, 9, 42, 61
6, 27548, Note_on_c, 9, 42, 0
6, 27552, Note_on_c, 9, 37, 127
6, 27552, Note_on_c, 9, 42, 61
6, 27596, Note_on_c, 9, 42, 0
6, 27596, Note_on_c, 9, 37, 0
6, 27600, Note_on_c, 9, 42, 61
6, 27644, Note_on_c, 9, 42, 0
6, 27648, Note_on_c, 9, 42, 61
6, 27692, Note_on_c, 9, 42, 0
6, 27696, Note_on_c, 9, 42, 61
6, 27740, Note_on_c, 9, 42, 0
6, 27744, Note_on_c, 9, 42, 63
6, 27788, Note_on_c, 9, 42, 0
6, 27792, Note_on_c, 9, 42, 63
6, 27836, Note_on_c, 9, 42, 0
6, 27840, Note_on_c, 9, 42, 63
6, 27884, Note_on_c, 9, 42, 0
6, 27888, Note_on_c, 9, 42, 63
6, 27932, Note_on_c, 9, 42, 0
6, 27936, Note_on_c, 9, 42, 61
6, 27980, Note_on_c, 9, 42, 0
6, 27984, Note_on_c, 9, 42, 63
6, 28028, Note_on_c, 9, 42, 0
6, 28032, Note_on_c, 9, 42, 64
6, 28076, Note_on_c, 9, 42, 0
6, 28080, Note_on_c, 9, 42, 64
6, 28124, Note_on_c, 9, 42, 0
6, 28128, Note_on_c, 9, 42, 63
6, 28172, Note_on_c, 9, 42, 0
6, 28176, Note_on_c, 9, 42, 64
6, 28220, Note_on_c, 9, 42, 0
6, 28224, Note_on_c, 9, 42, 63
6, 28268, Note_on_c, 9, 42, 0
6, 28272, Note_on_c, 9, 42, 61
6, 28316, Note_on_c, 9, 42, 0
6, 28320, Note_on_c, 9, 42, 61
6, 28364, Note_on_c, 9, 42, 0
6, 28368, Note_on_c, 9, 42, 61
6, 28412, Note_on_c, 9, 42, 0
6, 28416, Note_on_c, 9, 42, 61
6, 28460, Note_on_c, 9, 42, 0
6, 28464, Note_on_c, 9, 42, 61
6, 28508, Note_on_c, 9, 42, 0
6, 28512, Note_on_c, 9, 42, 63
6, 28556, Note_on_c, 9, 42, 0
6, 28560, Note_on_c, 9, 42, 63
6, 28604, Note_on_c, 9, 42, 0
6, 28608, Note_on_c, 9, 42, 63
6, 28652, Note_on_c, 9, 42, 0
6, 28656, Note_on_c, 9, 42, 63
6, 28700, Note_on_c, 9, 42, 0
6, 28704, Note_on_c, 9, 42, 61
6, 28748, Note_on_c, 9, 42, 0
6, 28752, Note_on_c, 9, 42, 63
6, 28796, Note_on_c, 9, 42, 0
6, 28800, Note_on_c, 9, 42, 64
6, 28844, Note_on_c, 9, 42, 0
6, 28848, Note_on_c, 9, 42, 64
6, 28892, Note_on_c, 9, 42, 0
6, 28896, Note_on_c, 9, 42, 63
6, 28940, Note_on_c, 9, 42, 0
6, 28944, Note_on_c, 9, 42, 64
6, 28988, Note_on_c, 9, 42, 0
6, 28992, Note_on_c, 9, 42, 63
6, 29036, Note_on_c, 9, 42, 0
6, 29040, Note_on_c, 9, 42, 61
6, 29084, Note_on_c, 9, 42, 0
6, 29088, Note_on_c, 9, 42, 61
6, 29132, Note_on_c, 9, 42, 0
6, 29136, Note_on_c, 9, 42, 61
6, 29180, Note_on_c, 9, 42, 0
6, 29184, Note_on_c, 9, 42, 61
6, 29228, Note_on_c, 9, 42, 0
6, 29232, Note_on_c, 9, 42, 61
6, 29276, Note_on_c, 9, 42, 0
6, 29280, Note_on_c, 9, 42, 63
6, 29324, Note_on_c, 9, 42, 0
6, 29328, Note_on_c, 9, 42, 63
6, 29372, Note_on_c, 9, 42, 0
6, 29376, Note_on_c, 9, 42, 63
6, 29420, Note_on_c, 9, 42, 0
6, 29424, Note_on_c, 9, 42, 63
6, 29468, Note_on_c, 9, 42, 0
6, 29472, Note_on_c, 9, 42, 61
6, 29516, Note_on_c, 9, 42, 0
6, 29520, Note_on_c, 9, 42, 63
6, 29564, Note_on_c, 9, 42, 0
6, 29568, Note_on_c, 9, 42, 64
6, 29612, Note_on_c, 9, 42, 0
6, 29616, Note_on_c, 9, 42, 64
6, 29660, Note_on_c, 9, 42, 0
6, 29664, Note_on_c, 9, 42, 63
6, 29708, Note_on_c, 9, 42, 0
6, 29712, Note_on_c, 9, 42, 64
6, 29756, Note_on_c, 9, 42, 0
6, 29760, Note_on_c, 9, 42, 63
6, 29804, Note_on_c, 9, 42, 0
6, 29808, Note_on_c, 9, 42, 61
6, 29852, Note_on_c, 9, 42, 0
6, 29856, Note_on_c, 9, 42, 61
6, 29900, Note_on_c, 9, 42, 0
6, 29904, Note_on_c, 9, 42, 61
6, 29948, Note_on_c, 9, 42, 0
6, 29952, Note_on_c, 9, 42, 61
6, 29996, Note_on_c, 9, 42, 0
6, 30000, Note_on_c, 9, 42, 61
6, 30044, Note_on_c, 9, 42, 0
6, 30048, Note_on_c, 9, 42, 63
6, 30092, Note_on_c, 9, 42, 0
6, 30096, Note_on_c, 9, 42, 63
6, 30140, Note_on_c, 9, 42, 0
6, 30144, Note_on_c, 9, 42, 63
6, 30188, Note_on_c, 9, 42, 0
6, 30192, Note_on_c, 9, 42, 63
6, 30236, Note_on_c, 9, 42, 0
6, 30240, Note_on_c, 9, 42, 61
6, 30284, Note_on_c, 9, 42, 0
6, 30288, Note_on_c, 9, 42, 63
6, 30332, Note_on_c, 9, 42, 0
6, 30336, Note_on_c, 9, 42, 64
6, 30380, Note_on_c, 9, 42, 0
6, 30384, Note_on_c, 9, 42, 64
6, 30428, Note_on_c, 9, 42, 0
6, 30432, Note_on_c, 9, 42, 63
6, 30476, Note_on_c, 9, 42, 0
6, 30480, Note_on_c, 9, 42, 64
6, 30524, Note_on_c, 9, 42, 0
6, 30528, Note_on_c, 9, 42, 63
6, 30572, Note_on_c, 9, 42, 0
6, 30576, Note_on_c, 9, 42, 61
6, 30620, Note_on_c, 9, 42, 0
6, 30624, Note_on_c, 9, 42, 61
6, 30668, Note_on_c, 9, 42, 0
6, 30672, Note_on_c, 9, 42, 61
6, 30716, Note_on_c, 9, 42, 0
6, 30720, Note_on_c, 9, 42, 61
6, 30764, Note_on_c, 9, 42, 0
6, 30768, Note_on_c, 9, 42, 61
6, 30812, Note_on_c, 9, 42, 0
6, 30816, Note_on_c, 9, 42, 63
6, 30860, Note_on_c, 9, 42, 0
6, 30864, Note_on_c, 9, 42, 63
6, 30908, Note_on_c, 9, 42, 0
6, 30912, Note_on_c, 9, 42, 63
6, 30956, Note_on_c, 9, 42, 0
6, 30960, Note_on_c, 9, 42, 63
6, 31004, Note_on_c, 9, 42, 0
6, 31008, Note_on_c, 9, 42, 61
6, 31052, Note_on_c, 9, 42, 0
6, 31056, Note_on_c, 9, 42, 63
6, 31100, Note_on_c, 9, 42, 0
6, 31104, Note_on_c, 9, 42, 64
6, 31148, Note_on_c, 9, 42, 0
6, 31152, Note_on_c, 9, 42, 64
6, 31196, Note_on_c, 9, 42, 0
6, 31200, Note_on_c, 9, 42, 63
6, 31244, Note_on_c, 9, 42, 0
6, 31248, Note_on_c, 9, 42, 64
6, 31292, Note_on_c, 9, 42, 0
6, 31296, Note_on_c, 9, 42, 63
6, 31340, Note_on_c, 9, 42, 0
6, 31344, Note_on_c, 9, 42, 61
6, 31388, Note_on_c, 9, 42, 0
6, 31392, Note_on_c, 9, 42, 61
6, 31436, Note_on_c, 9, 42, 0
6, 31440, Note_on_c, 9, 42, 61
6, 31484, Note_on_c, 9, 42, 0
6, 31488, Note_on_c, 9, 42, 61
6, 31532, Note_on_c, 9, 42, 0
6, 31536, Note_on_c, 9, 42, 61
6, 31580, Note_on_c, 9, 42, 0
6, 31584, Note_on_c, 9, 42, 63
6, 31628, Note_on_c, 9, 42, 0
6, 31632, Note_on_c, 9, 42, 63
6, 31676, Note_on_c, 9, 42, 0
6, 31680, Note_on_c, 9, 42, 63
6, 31724, Note_on_c, 9, 42, 0
6, 31728, Note_on_c, 9, 42, 63
6, 31772, Note_on_c, 9, 42, 0
6, 31776, Note_on_c, 9, 42, 61
6, 31820, Note_on_c, 9, 42, 0
6, 31824, Note_on_c, 9, 42, 63
6, 31868, Note_on_c, 9, 42, 0
6, 31872, Note_on_c, 9, 42, 64
6, 31916, Note_on_c, 9, 42, 0
6, 31920, Note_on_c, 9, 42, 64
6, 31964, Note_on_c, 9, 42, 0
6, 31968, Note_on_c, 9, 42, 63
6, 32012, Note_on_c, 9, 42, 0
6, 32016, Note_on_c, 9, 42, 64
6, 32060, Note_on_c, 9, 42, 0
6, 32064, Note_on_c, 9, 42, 63
6, 32108, Note_on_c, 9, 42, 0
6, 32112, Note_on_c, 9, 42, 61
6, 32156, Note_on_c, 9, 42, 0
6, 32160, Note_on_c, 9, 42, 61
6, 32204, Note_on_c, 9, 42, 0
6, 32208, Note_on_c, 9, 42, 61
6, 32252, Note_on_c, 9, 42, 0
6, 32256, Note_on_c, 9, 42, 61
6, 32300, Note_on_c, 9, 42, 0
6, 32304, Note_on_c, 9, 42, 61
6, 32348, Note_on_c, 9, 42, 0
6, 32352, Note_on_c, 9, 42, 63
6, 32396, Note_on_c, 9, 42, 0
6, 32400, Note_on_c, 9, 42, 63
6, 32444, Note_on_c, 9, 42, 0
6, 32448, Note_on_c, 9, 42, 63
6, 32492, Note_on_c, 9, 42, 0
6, 32496, Note_on_c, 9, 42, 63
6, 32540, Note_on_c, 9, 42, 0
6, 32544, Note_on_c, 9, 42, 61
6, 32588, Note_on_c, 9, 42, 0
6, 32592, Note_on_c, 9, 42, 63
6, 32636, Note_on_c, 9, 42, 0
6, 32640, Note_on_c, 9, 42, 64
6, 32684, Note_on_c, 9, 42, 0
6, 32688, Note_on_c, 9, 42, 64
6, 32732, Note_on_c, 9, 42, 0
6, 32736, Note_on_c, 9, 42, 63
6, 32780, Note_on_c, 9, 42, 0
6, 32784, Note_on_c, 9, 42, 64
6, 32828, Note_on_c, 9, 42, 0
6, 32832, Note_on_c, 9, 42, 63
6, 32876, Note_on_c, 9, 42, 0
6, 32880, Note_on_c, 9, 42, 61
6, 32924, Note_on_c, 9, 42, 0
6, 32928, Note_on_c, 9, 42, 61
6, 32972, Note_on_c, 9, 42, 0
6, 32976, Note_on_c, 9, 42, 61
6, 33020, Note_on_c, 9, 42, 0
6, 33024, Note_on_c, 9, 42, 61
6, 33068, Note_on_c, 9, 42, 0
6, 33072, Note_on_c, 9, 42, 61
6, 33116, Note_on_c, 9, 42, 0
6, 33120, Note_on_c, 9, 42, 63
6, 33164, Note_on_c, 9, 42, 0
6, 33168, Note_on_c, 9, 42, 63
6, 33212, Note_on_c, 9, 42, 0
6, 33216, Note_on_c, 9, 42, 63
6, 33260, Note_on_c, 9, 42, 0
6, 33264, Note_on_c, 9, 42, 63
6, 33308, Note_on_c, 9, 42, 0
6, 33312, Note_on_c, 9, 42, 61
6, 33356, Note_on_c, 9, 42, 0
6, 33360, Note_on_c, 9, 42, 63
6, 33404, Note_on_c, 9, 42, 0
6, 33408, Note_on_c, 9, 42, 64
6, 33452, Note_on_c, 9, 42, 0
6, 33456, Note_on_c, 9, 42, 64
6, 33500, Note_on_c, 9, 42, 0
6, 33504, Note_on_c, 9, 42, 63
6, 33548, Note_on_c, 9, 42, 0
6, 33552, Note_on_c, 9, 42, 64
6, 33596, Note_on_c, 9, 42, 0
6, 33600, Note_on_c, 9, 42, 63
6, 33644, Note_on_c, 9, 42, 0
6, 33648, Note_on_c, 9, 42, 61
6, 33692, Note_on_c, 9, 42, 0
6, 33696, Note_on_c, 9, 42, 61
6, 33740, Note_on_c, 9, 42, 0
6, 33744, Note_on_c, 9, 42, 61
6, 33788, Note_on_c, 9, 42, 0
6, 33792, Note_on_c, 9, 42, 61
6, 33836, Note_on_c, 9, 42, 0
6, 33840, Note_on_c, 9, 42, 61
6, 33884, Note_on_c, 9, 42, 0
6, 33888, Note_on_c, 9, 42, 63
6, 33932, Note_on_c, 9, 42, 0
6, 33936, Note_on_c, 9, 42, 63
6, 33980, Note_on_c, 9, 42, 0
6, 33984, Note_on_c, 9, 42, 63
6, 33984, Note_on_c, 9, 40, 127
6, 33984, Note_on_c, 9, 37, 101
6, 34028, Note_on_c, 9, 37, 0
6, 34028, Note_on_c, 9, 40, 0
6, 34028, Note_on_c, 9, 42, 0
6, 34032, Note_on_c, 9, 42, 63
6, 34076, Note_on_c, 9, 42, 0
6, 34080, Note_on_c, 9, 42, 61
6, 34124, Note_on_c, 9, 42, 0
6, 34128, Note_on_c, 9, 42, 63
6, 34172, Note_on_c, 9, 42, 0
6, 34176, Note_on_c, 9, 42, 64
6, 34220, Note_on_c, 9, 42, 0
6, 34224, Note_on_c, 9, 42, 64
6, 34268, Note_on_c, 9, 42, 0
6, 34272, Note_on_c, 9, 42, 63
6, 34316, Note_on_c, 9, 42, 0
6, 34320, Note_on_c, 9, 42, 64
6, 34364, Note_on_c, 9, 42, 0
6, 34368, Note_on_c, 9, 42, 63
6, 34368, Note_on_c, 9, 40, 127
6, 34368, Note_on_c, 9, 37, 101
6, 34412, Note_on_c, 9, 37, 0
6, 34412, Note_on_c, 9, 40, 0
6, 34412, Note_on_c, 9, 42, 0
6, 34416, Note_on_c, 9, 42, 61
6, 34460, Note_on_c, 9, 42, 0
6, 34464, Note_on_c, 9, 42, 61
6, 34464, Note_on_c, 9, 37, 127
6, 34508, Note_on_c, 9, 37, 0
6, 34508, Note_on_c, 9, 42, 0
6, 34512, Note_on_c, 9, 42, 61
6, 34556, Note_on_c, 9, 42, 0
6, 34560, Note_on_c, 9, 42, 61
6, 34604, Note_on_c, 9, 42, 0
6, 34608, Note_on_c, 9, 42, 61
6, 34652, Note_on_c, 9, 42, 0
6, 34656, Note_on_c, 9, 42, 63
6, 34700, Note_on_c, 9, 42, 0
6, 34704, Note_on_c, 9, 42, 63
6, 34748, Note_on_c, 9, 42, 0
6, 34752, Note_on_c, 9, 42, 63
6, 34752, Note_on_c, 9, 40, 127
6, 34752, Note_on_c, 9, 37, 101
6, 34796, Note_on_c, 9, 37, 0
6, 34796, Note_on_c, 9, 40, 0
6, 34796, Note_on_c, 9, 42, 0
6, 34800, Note_on_c, 9, 42, 63
6, 34844, Note_on_c, 9, 42, 0
6, 34848, Note_on_c, 9, 42, 61
6, 34892, Note_on_c, 9, 42, 0
6, 34896, Note_on_c, 9, 42, 63
6, 34940, Note_on_c, 9, 42, 0
6, 34944, Note_on_c, 9, 42, 64
6, 34988, Note_on_c, 9, 42, 0
6, 34992, Note_on_c, 9, 42, 64
6, 35036, Note_on_c, 9, 42, 0
6, 35040, Note_on_c, 9, 42, 63
6, 35084, Note_on_c, 9, 42, 0
6, 35088, Note_on_c, 9, 42, 64
6, 35132, Note_on_c, 9, 42, 0
6, 35136, Note_on_c, 9, 42, 63
6, 35136, Note_on_c, 9, 40, 127
6, 35136, Note_on_c, 9, 37, 101
6, 35180, Note_on_c, 9, 37, 0
6, 35180, Note_on_c, 9, 40, 0
6, 35180, Note_on_c, 9, 42, 0
6, 35184, Note_on_c, 9, 42, 61
6, 35228, Note_on_c, 9, 42, 0
6, 35232, Note_on_c, 9, 42, 61
6, 35232, Note_on_c, 9, 37, 127
6, 35276, Note_on_c, 9, 37, 0
6, 35276, Note_on_c, 9, 42, 0
6, 35280, Note_on_c, 9, 42, 61
6, 35324, Note_on_c, 9, 42, 0
6, 35328, Note_on_c, 9, 42, 61
6, 35372, Note_on_c, 9, 42, 0
6, 35376, Note_on_c, 9, 42, 61
6, 35420, Note_on_c, 9, 42, 0
6, 35424, Note_on_c, 9, 42, 63
6, 35468, Note_on_c, 9, 42, 0
6, 35472, Note_on_c, 9, 42, 63
6, 35516, Note_on_c, 9, 42, 0
6, 35520, Note_on_c, 9, 42, 63
6, 35520, Note_on_c, 9, 40, 127
6, 35520, Note_on_c, 9, 37, 101
6, 35564, Note_on_c, 9, 37, 0
6, 35564, Note_on_c, 9, 40, 0
6, 35564, Note_on_c, 9, 42, 0
6, 35568, Note_on_c, 9, 42, 63
6, 35612, Note_on_c, 9, 42, 0
6, 35616, Note_on_c, 9, 42, 61
6, 35660, Note_on_c, 9, 42, 0
6, 35664, Note_on_c, 9, 42, 63
6, 35708, Note_on_c, 9, 42, 0
6, 35712, Note_on_c, 9, 42, 64
6, 35756, Note_on_c, 9, 42, 0
6, 35760, Note_on_c, 9, 42, 64
6, 35804, Note_on_c, 9, 42, 0
6, 35808, Note_on_c, 9, 42, 63
6, 35852, Note_on_c, 9, 42, 0
6, 35856, Note_on_c, 9, 42, 64
6, 35900, Note_on_c, 9, 42, 0
6, 35904, Note_on_c, 9, 42, 63
6, 35904, Note_on_c, 9, 40, 127
6, 35904, Note_on_c, 9, 37, 101
6, 35948, Note_on_c, 9, 37, 0
6, 35948, Note_on_c, 9, 40, 0
6, 35948, Note_on_c, 9, 42, 0
6, 35952, Note_on_c, 9, 42, 61
6, 35996, Note_on_c, 9, 42, 0
6, 36000, Note_on_c, 9, 42, 61
6, 36000, Note_on_c, 9, 37, 127
6, 36044, Note_on_c, 9, 37, 0
6, 36044, Note_on_c, 9, 42, 0
6, 36048, Note_on_c, 9, 42, 61
6, 36092, Note_on_c, 9, 42, 0
6, 36096, Note_on_c, 9, 42, 61
6, 36140, Note_on_c, 9, 42, 0
6, 36144, Note_on_c, 9, 42, 61
6, 36188, Note_on_c, 9, 42, 0
6, 36192, Note_on_c, 9, 42, 63
6, 36236, Note_on_c, 9, 42, 0
6, 36240, Note_on_c, 9, 42, 63
6, 36284, Note_on_c, 9, 42, 0
6, 36288, Note_on_c, 9, 42, 63
6, 36288, Note_on_c, 9, 40, 127
6, 36288, Note_on_c, 9, 37, 101
6, 36332, Note_on_c, 9, 37, 0
6, 36332, Note_on_c, 9, 40, 0
6, 36332, Note_on_c, 9, 42, 0
6, 36336, Note_on_c, 9, 42, 63
6, 36380, Note_on_c, 9, 42, 0
6, 36384, Note_on_c, 9, 42, 61
6, 36428, Note_on_c, 9, 42, 0
6, 36432, Note_on_c, 9, 42, 63
6, 36476, Note_on_c, 9, 42, 0
6, 36480, Note_on_c, 9, 42, 64
6, 36524, Note_on_c, 9, 42, 0
6, 36528, Note_on_c, 9, 42, 64
6, 36572, Note_on_c, 9, 42, 0
6, 36576, Note_on_c, 9, 42, 63
6, 36620, Note_on_c, 9, 42, 0
6, 36624, Note_on_c, 9, 42, 64
6, 36668, Note_on_c, 9, 42, 0
6, 36672, Note_on_c, 9, 42, 63
6, 36672, Note_on_c, 9, 40, 127
6, 36672, Note_on_c, 9, 37, 101
6, 36716, Note_on_c, 9, 37, 0
6, 36716, Note_on_c, 9, 40, 0
6, 36716, Note_on_c, 9, 42, 0
6, 36720, Note_on_c, 9, 42, 61
6, 36764, Note_on_c, 9, 42, 0
6, 36768, Note_on_c, 9, 42, 61
6, 36768, Note_on_c, 9, 37, 127
6, 36812, Note_on_c, 9, 37, 0
6, 36812, Note_on_c, 9, 42, 0
6, 36816, Note_on_c, 9, 42, 61
6, 36860, Note_on_c, 9, 42, 0
6, 36864, Note_on_c, 9, 42, 61
6, 36908, Note_on_c, 9, 42, 0
6, 36912, Note_on_c, 9, 42, 61
6, 36956, Note_on_c, 9, 42, 0
6, 36960, Note_on_c, 9, 42, 63
6, 37004, Note_on_c, 9, 42, 0
6, 37008, Note_on_c, 9, 42, 63
6, 37052, Note_on_c, 9, 42, 0
6, 37056, Note_on_c, 9, 42, 63
6, 37056, Note_on_c, 9, 40, 127
6, 37056, Note_on_c, 9, 37, 101
6, 37100, Note_on_c, 9, 37, 0
6, 37100, Note_on_c, 9, 40, 0
6, 37100, Note_on_c, 9, 42, 0
6, 37104, Note_on_c, 9, 42, 63
6, 37148, Note_on_c, 9, 42, 0
6, 37152, Note_on_c, 9, 42, 61
6, 37196, Note_on_c, 9, 42, 0
6, 37200, Note_on_c, 9, 42, 63
6, 37244, Note_on_c, 9, 42, 0
6, 37248, Note_on_c, 9, 42, 64
6, 37292, Note_on_c, 9, 42, 0
6, 37296, Note_on_c, 9, 42, 64
6, 37340, Note_on_c, 9, 42, 0
6, 37344, Note_on_c, 9, 42, 63
6, 37388, Note_on_c, 9, 42, 0
6, 37392, Note_on_c, 9, 42, 64
6, 37436, Note_on_c, 9, 42, 0
6, 37440, Note_on_c, 9, 42, 63
6, 37440, Note_on_c, 9, 40, 127
6, 37440, Note_on_c, 9, 37, 101
6, 37484, Note_on_c, 9, 37, 0
6, 37484, Note_on_c, 9, 40, 0
6, 37484, Note_on_c, 9, 42, 0
6, 37488, Note_on_c, 9, 42, 61
6, 37532, Note_on_c, 9, 42, 0
6, 37536, Note_on_c, 9, 42, 61
6, 37536, Note_on_c, 9, 37, 127
6, 37580, Note_on_c, 9, 37, 0
6, 37580, Note_on_c, 9, 42, 0
6, 37584, Note_on_c, 9, 42, 61
6, 37628, Note_on_c, 9, 42, 0
6, 37632, Note_on_c, 9, 42, 61
6, 37676, Note_on_c, 9, 42, 0
6, 37680, Note_on_c, 9, 42, 61
6, 37724, Note_on_c, 9, 42, 0
6, 37728, Note_on_c, 9, 42, 63
6, 37772, Note_on_c, 9, 42, 0
6, 37776, Note_on_c, 9, 42, 63
6, 37820, Note_on_c, 9, 42, 0
6, 37824, Note_on_c, 9, 42, 63
6, 37824, Note_on_c, 9, 40, 127
6, 37824, Note_on_c, 9, 37, 101
6, 37868, Note_on_c, 9, 37, 0
6, 37868, Note_on_c, 9, 40, 0
6, 37868, Note_on_c, 9, 42, 0
6, 37872, Note_on_c, 9, 42, 63
6, 37916, Note_on_c, 9, 42, 0
6, 37920, Note_on_c, 9, 42, 61
6, 37964, Note_on_c, 9, 42, 0
6, 37968, Note_on_c, 9, 42, 63
6, 38012, Note_on_c, 9, 42, 0
6, 38016, Note_on_c, 9, 42, 64
6, 38060, Note_on_c, 9, 42, 0
6, 38064, Note_on_c, 9, 42, 64
6, 38108, Note_on_c, 9, 42, 0
6, 38112, Note_on_c, 9, 42, 63
6, 38156, Note_on_c, 9, 42, 0
6, 38160, Note_on_c, 9, 42, 64
6, 38204, Note_on_c, 9, 42, 0
6, 38208, Note_on_c, 9, 42, 63
6, 38208, Note_on_c, 9, 40, 127
6, 38208, Note_on_c, 9, 37, 101
6, 38252, Note_on_c, 9, 37, 0
6, 38252, Note_on_c, 9, 40, 0
6, 38252, Note_on_c, 9, 42, 0
6, 38256, Note_on_c, 9, 42, 61
6, 38300, Note_on_c, 9, 42, 0
6, 38304, Note_on_c, 9, 42, 61
6, 38304, Note_on_c, 9, 37, 127
6, 38348, Note_on_c, 9, 37, 0
6, 38348, Note_on_c, 9, 42, 0
6, 38352, Note_on_c, 9, 42, 61
6, 38396, Note_on_c, 9, 42, 0
6, 38400, Note_on_c, 9, 42, 61
6, 38444, Note_on_c, 9, 42, 0
6, 38448, Note_on_c, 9, 42, 61
6, 38492, Note_on_c, 9, 42, 0
6, 38496, Note_on_c, 9, 42, 63
6, 38540, Note_on_c, 9, 42, 0
6, 38544, Note_on_c, 9, 42, 63
6, 38588, Note_on_c, 9, 42, 0
6, 38592, Note_on_c, 9, 42, 63
6, 38592, Note_on_c, 9, 40, 127
6, 38592, Note_on_c, 9, 37, 101
6, 38636, Note_on_c, 9, 37, 0
6, 38636, Note_on_c, 9, 40, 0
6, 38636, Note_on_c, 9, 42, 0
6, 38640, Note_on_c, 9, 42, 63
6, 38684, Note_on_c, 9, 42, 0
6, 38688, Note_on_c, 9, 42, 61
6, 38732, Note_on_c, 9, 42, 0
6, 38736, Note_on_c, 9, 42, 63
6, 38780, Note_on_c, 9, 42, 0
6, 38784, Note_on_c, 9, 42, 64
6, 38828, Note_on_c, 9, 42, 0
6, 38832, Note_on_c, 9, 42, 64
6, 38876, Note_on_c, 9, 42, 0
6, 38880, Note_on_c, 9, 42, 63
6, 38924, Note_on_c, 9, 42, 0
6, 38928, Note_on_c, 9, 42, 64
6, 38972, Note_on_c, 9, 42, 0
6, 38976, Note_on_c, 9, 42, 63
6, 38976, Note_on_c, 9, 40, 127
6, 38976, Note_on_c, 9, 37, 101
6, 39020, Note_on_c, 9, 37, 0
6, 39020, Note_on_c, 9, 40, 0
6, 39020, Note_on_c, 9, 42, 0
6, 39024, Note_on_c, 9, 42, 61
6, 39068, Note_on_c, 9, 42, 0
6, 39072, Note_on_c, 9, 42, 61
6, 39072, Note_on_c, 9, 37, 127
6, 39116, Note_on_c, 9, 37, 0
6, 39116, Note_on_c, 9, 42, 0
6, 39120, Note_on_c, 9, 42, 61
6, 39164, Note_on_c, 9, 42, 0
6, 39168, Note_on_c, 9, 42, 61
6, 39212, Note_on_c, 9, 42, 0
6, 39216, Note_on_c, 9, 42, 61
6, 39260, Note_on_c, 9, 42, 0
6, 39264, Note_on_c, 9, 42, 63
6, 39308, Note_on_c, 9, 42, 0
6, 39312, Note_on_c, 9, 42, 63
6, 39356, Note_on_c, 9, 42, 0
6, 39360, Note_on_c, 9, 42, 63
6, 39360, Note_on_c, 9, 40, 127
6, 39360, Note_on_c, 9, 37, 101
6, 39404, Note_on_c, 9, 37, 0
6, 39404, Note_on_c, 9, 40, 0
6, 39404, Note_on_c, 9, 42, 0
6, 39408, Note_on_c, 9, 42, 63
6, 39452, Note_on_c, 9, 42, 0
6, 39936, Note_on_c, 9, 42, 61
6, 39980, Note_on_c, 9, 42, 0
6, 39984, Note_on_c, 9, 42, 61
6, 40028, Note_on_c, 9, 42, 0
6, 40032, Note_on_c, 9, 42, 63
6, 40076, Note_on_c, 9, 42, 0
6, 40080, Note_on_c, 9, 42, 63
6, 40124, Note_on_c, 9, 42, 0
6, 40128, Note_on_c, 9, 42, 63
6, 40128, Note_on_c, 9, 40, 127
6, 40128, Note_on_c, 9, 37, 101
6, 40172, Note_on_c, 9, 37, 0
6, 40172, Note_on_c, 9, 40, 0
6, 40172, Note_on_c, 9, 42, 0
6, 40176, Note_on_c, 9, 42, 63
6, 40220, Note_on_c, 9, 42, 0
6, 40224, Note_on_c, 9, 42, 61
6, 40268, Note_on_c, 9, 42, 0
6, 40272, Note_on_c, 9, 42, 63
6, 40316, Note_on_c, 9, 42, 0
6, 40320, Note_on_c, 9, 42, 64
6, 40364, Note_on_c, 9, 42, 0
6, 40368, Note_on_c, 9, 42, 64
6, 40412, Note_on_c, 9, 42, 0
6, 40416, Note_on_c, 9, 42, 63
6, 40460, Note_on_c, 9, 42, 0
6, 40464, Note_on_c, 9, 42, 64
6, 40508, Note_on_c, 9, 42, 0
6, 40512, Note_on_c, 9, 42, 63
6, 40512, Note_on_c, 9, 40, 127
6, 40512, Note_on_c, 9, 37, 101
6, 40556, Note_on_c, 9, 37, 0
6, 40556, Note_on_c, 9, 40, 0
6, 40556, Note_on_c, 9, 42, 0
6, 40560, Note_on_c, 9, 42, 61
6, 40604, Note_on_c, 9, 42, 0
6, 40608, Note_on_c, 9, 42, 61
6, 40608, Note_on_c, 9, 37, 127
6, 40652, Note_on_c, 9, 37, 0
6, 40652, Note_on_c, 9, 42, 0
6, 40656, Note_on_c, 9, 42, 61
6, 40700, Note_on_c, 9, 42, 0
6, 40704, Note_on_c, 9, 42, 61
6, 40748, Note_on_c, 9, 42, 0
6, 40752, Note_on_c, 9, 42, 61
6, 40796, Note_on_c, 9, 42, 0
6, 40800, Note_on_c, 9, 42, 63
6, 40844, Note_on_c, 9, 42, 0
6, 40848, Note_on_c, 9, 42, 63
6, 40892, Note_on_c, 9, 42, 0
6, 40896, Note_on_c, 9, 42, 63
6, 40896, Note_on_c, 9, 40, 127
6, 40896, Note_on_c, 9, 37, 101
6, 40940, Note_on_c, 9, 37, 0
6, 40940, Note_on_c, 9, 40, 0
6, 40940, Note_on_c, 9, 42, 0
6, 40944, Note_on_c, 9, 42, 63
6, 40988, Note_on_c, 9, 42, 0
6, 40992, Note_on_c, 9, 42, 61
6, 41036, Note_on_c, 9, 42, 0
6, 41040, Note_on_c, 9, 42, 63
6, 41084, Note_on_c, 9, 42, 0
6, 41088, Note_on_c, 9, 42, 64
6, 41132, Note_on_c, 9, 42, 0
6, 41136, Note_on_c, 9, 42, 64
6, 41180, Note_on_c, 9, 42, 0
6, 41184, Note_on_c, 9, 42, 63
6, 41228, Note_on_c, 9, 42, 0
6, 41232, Note_on_c, 9, 42, 64
6, 41276, Note_on_c, 9, 42, 0
6, 41280, Note_on_c, 9, 42, 63
6, 41280, Note_on_c, 9, 40, 127
6, 41280, Note_on_c, 9, 37, 101
6, 41324, Note_on_c, 9, 37, 0
6, 41324, Note_on_c, 9, 40, 0
6, 41324, Note_on_c, 9, 42, 0
6, 41328, Note_on_c, 9, 42, 61
6, 41372, Note_on_c, 9, 42, 0
6, 41376, Note_on_c, 9, 42, 61
6, 41376, Note_on_c, 9, 37, 127
6, 41420, Note_on_c, 9, 37, 0
6, 41420, Note_on_c, 9, 42, 0
6, 41424, Note_on_c, 9, 42, 61
6, 41468, Note_on_c, 9, 42, 0
6, 41472, Note_on_c, 9, 42, 61
6, 41516, Note_on_c, 9, 42, 0
6, 41520, Note_on_c, 9, 42, 61
6, 41564, Note_on_c, 9, 42, 0
6, 41568, Note_on_c, 9, 42, 63
6, 41612, Note_on_c, 9, 42, 0
6, 41616, Note_on_c, 9, 42, 63
6, 41660, Note_on_c, 9, 42, 0
6, 41664, Note_on_c, 9, 42, 63
6, 41664, Note_on_c, 9, 40, 127
6, 41664, Note_on_c, 9, 37, 101
6, 41708, Note_on_c, 9, 37, 0
6, 41708, Note_on_c, 9, 40, 0
6, 41708, Note_on_c, 9, 42, 0
6, 41712, Note_on_c, 9, 42, 63
6, 41756, Note_on_c, 9, 42, 0
6, 41760, Note_on_c, 9, 42, 61
6, 41804, Note_on_c, 9, 42, 0
6, 41808, Note_on_c, 9, 42, 63
6, 41852, Note_on_c, 9, 42, 0
6, 41856, Note_on_c, 9, 42, 64
6, 41900, Note_on_c, 9, 42, 0
6, 41904, Note_on_c, 9, 42, 64
6, 41948, Note_on_c, 9, 42, 0
6, 41952, Note_on_c, 9, 42, 63
6, 41996, Note_on_c, 9, 42, 0
6, 42000, Note_on_c, 9, 42, 64
6, 42044, Note_on_c, 9, 42, 0
6, 42048, Note_on_c, 9, 42, 63
6, 42048, Note_on_c, 9, 40, 127
6, 42048, Note_on_c, 9, 37, 101
6, 42092, Note_on_c, 9, 37, 0
6, 42092, Note_on_c, 9, 40, 0
6, 42092, Note_on_c, 9, 42, 0
6, 42096, Note_on_c, 9, 42, 61
6, 42140, Note_on_c, 9, 42, 0
6, 42144, Note_on_c, 9, 42, 61
6, 42144, Note_on_c, 9, 37, 127
6, 42188, Note_on_c, 9, 37, 0
6, 42188, Note_on_c, 9, 42, 0
6, 42192, Note_on_c, 9, 42, 61
6, 42236, Note_on_c, 9, 42, 0
6, 42240, Note_on_c, 9, 42, 61
6, 42284, Note_on_c, 9, 42, 0
6, 42288, Note_on_c, 9, 42, 61
6, 42332, Note_on_c, 9, 42, 0
6, 42336, Note_on_c, 9, 42, 63
6, 42380, Note_on_c, 9, 42, 0
6, 42384, Note_on_c, 9, 42, 63
6, 42428, Note_on_c, 9, 42, 0
6, 42432, Note_on_c, 9, 42, 63
6, 42432, Note_on_c, 9, 40, 127
6, 42432, Note_on_c, 9, 37, 101
6, 42476, Note_on_c, 9, 37, 0
6, 42476, Note_on_c, 9, 40, 0
6, 42476, Note_on_c, 9, 42, 0
6, 42480, Note_on_c, 9, 42, 63
6, 42524, Note_on_c, 9, 42, 0
6, 42528, Note_on_c, 9, 42, 61
6, 42572, Note_on_c, 9, 42, 0
6, 42576, Note_on_c, 9, 42, 63
6, 42620, Note_on_c, 9, 42, 0
6, 42624, Note_on_c, 9, 42, 64
6, 42668, Note_on_c, 9, 42, 0
6, 42672, Note_on_c, 9, 42, 64
6, 42716, Note_on_c, 9, 42, 0
6, 42720, Note_on_c, 9, 42, 63
6, 42764, Note_on_c, 9, 42, 0
6, 42768, Note_on_c, 9, 42, 64
6, 42812, Note_on_c, 9, 42, 0
6, 42816, Note_on_c, 9, 42, 63
6, 42816, Note_on_c, 9, 40, 127
6, 42816, Note_on_c, 9, 37, 101
6, 42860, Note_on_c, 9, 37, 0
6, 42860, Note_on_c, 9, 40, 0
6, 42860, Note_on_c, 9, 42, 0
6, 42864, Note_on_c, 9, 42, 61
6, 42908, Note_on_c, 9, 42, 0
6, 42912, Note_on_c, 9, 42, 61
6, 42912, Note_on_c, 9, 37, 127
6, 42956, Note_on_c, 9, 37, 0
6, 42956, Note_on_c, 9, 42, 0
6, 42960, Note_on_c, 9, 42, 61
6, 43004, Note_on_c, 9, 42, 0
6, 43008, Note_on_c, 9, 42, 61
6, 43052, Note_on_c, 9, 42, 0
6, 43056, Note_on_c, 9, 42, 61
6, 43100, Note_on_c, 9, 42, 0
6, 43104, Note_on_c, 9, 42, 63
6, 43148, Note_on_c, 9, 42, 0
6, 43152, Note_on_c, 9, 42, 63
6, 43196, Note_on_c, 9, 42, 0
6, 43200, Note_on_c, 9, 42, 63
6, 43200, Note_on_c, 9, 40, 127
6, 43200, Note_on_c, 9, 37, 101
6, 43244, Note_on_c, 9, 37, 0
6, 43244, Note_on_c, 9, 40, 0
6, 43244, Note_on_c, 9, 42, 0
6, 43248, Note_on_c, 9, 42, 63
6, 43292, Note_on_c, 9, 42, 0
6, 43296, Note_on_c, 9, 42, 61
6, 43340, Note_on_c, 9, 42, 0
6, 43344, Note_on_c, 9, 42, 63
6, 43388, Note_on_c, 9, 42, 0
6, 43392, Note_on_c, 9, 42, 64
6, 43436, Note_on_c, 9, 42, 0
6, 43440, Note_on_c, 9, 42, 64
6, 43484, Note_on_c, 9, 42, 0
6, 43488, Note_on_c, 9, 42, 63
6, 43532, Note_on_c, 9, 42, 0
6, 43536, Note_on_c, 9, 42, 64
6, 43580, Note_on_c, 9, 42, 0
6, 43584, Note_on_c, 9, 42, 63
6, 43584, Note_on_c, 9, 40, 127
6, 43584, Note_on_c, 9, 37, 101
6, 43628, Note_on_c, 9, 37, 0
6, 43628, Note_on_c, 9, 40, 0
6, 43628, Note_on_c, 9, 42, 0
6, 43632, Note_on_c, 9, 42, 61
6, 43676, Note_on_c, 9, 42, 0
6, 43680, Note_on_c, 9, 42, 61
6, 43680, Note_on_c, 9, 37, 127
6, 43724, Note_on_c, 9, 37, 0
6, 43724, Note_on_c, 9, 42, 0
6, 43728, Note_on_c, 9, 42, 61
6, 43772, Note_on_c, 9, 42, 0
6, 43776, Note_on_c, 9, 42, 61
6, 43820, Note_on_c, 9, 42, 0
6, 43824, Note_on_c, 9, 42, 61
6, 43868, Note_on_c, 9, 42, 0
6, 43872, Note_on_c, 9, 42, 63
6, 43916, Note_on_c, 9, 42, 0
6, 43920, Note_on_c, 9, 42, 63
6, 43964, Note_on_c, 9, 42, 0
6, 43968, Note_on_c, 9, 42, 63
6, 43968, Note_on_c, 9, 40, 127
6, 43968, Note_on_c, 9, 37, 101
6, 44012, Note_on_c, 9, 37, 0
6, 44012, Note_on_c, 9, 40, 0
6, 44012, Note_on_c, 9, 42, 0
6, 44016, Note_on_c, 9, 42, 63
6, 44060, Note_on_c, 9, 42, 0
6, 44064, Note_on_c, 9, 42, 61
6, 44108, Note_on_c, 9, 42, 0
6, 44112, Note_on_c, 9, 42, 63
6, 44156, Note_on_c, 9, 42, 0
6, 44160, Note_on_c, 9, 42, 64
6, 44204, Note_on_c, 9, 42, 0
6, 44208, Note_on_c, 9, 42, 64
6, 44252, Note_on_c, 9, 42, 0
6, 44256, Note_on_c, 9, 42, 63
6, 44300, Note_on_c, 9, 42, 0
6, 44304, Note_on_c, 9, 42, 64
6, 44348, Note_on_c, 9, 42, 0
6, 44352, Note_on_c, 9, 42, 63
6, 44352, Note_on_c, 9, 40, 127
6, 44352, Note_on_c, 9, 37, 101
6, 44396, Note_on_c, 9, 37, 0
6, 44396, Note_on_c, 9, 40, 0
6, 44396, Note_on_c, 9, 42, 0
6, 44400, Note_on_c, 9, 42, 61
6, 44444, Note_on_c, 9, 42, 0
6, 44448, Note_on_c, 9, 42, 61
6, 44448, Note_on_c, 9, 37, 127
6, 44492, Note_on_c, 9, 37, 0
6, 44492, Note_on_c, 9, 42, 0
6, 44496, Note_on_c, 9, 42, 61
6, 44540, Note_on_c, 9, 42, 0
6, 44544, Note_on_c, 9, 42, 61
6, 44588, Note_on_c, 9, 42, 0
6, 44592, Note_on_c, 9, 42, 61
6, 44636, Note_on_c, 9, 42, 0
6, 44640, Note_on_c, 9, 42, 63
6, 44684, Note_on_c, 9, 42, 0
6, 44688, Note_on_c, 9, 42, 63
6, 44732, Note_on_c, 9, 42, 0
6, 44736, Note_on_c, 9, 42, 63
6, 44736, Note_on_c, 9, 40, 127
6, 44736, Note_on_c, 9, 37, 101
6, 44780, Note_on_c, 9, 37, 0
6, 44780, Note_on_c, 9, 40, 0
6, 44780, Note_on_c, 9, 42, 0
6, 44784, Note_on_c, 9, 42, 63
6, 44828, Note_on_c, 9, 42, 0
6, 44832, Note_on_c, 9, 42, 61
6, 44876, Note_on_c, 9, 42, 0
6, 44880, Note_on_c, 9, 42, 63
6, 44924, Note_on_c, 9, 42, 0
6, 44928, Note_on_c, 9, 42, 64
6, 44972, Note_on_c, 9, 42, 0
6, 44976, Note_on_c, 9, 42, 64
6, 45020, Note_on_c, 9, 42, 0
6, 45024, Note_on_c, 9, 42, 63
6, 45068, Note_on_c, 9, 42, 0
6, 45072, Note_on_c, 9, 42, 64
6, 45116, Note_on_c, 9, 42, 0
6, 45120, Note_on_c, 9, 42, 63
6, 45120, Note_on_c, 9, 40, 127
6, 45120, Note_on_c, 9, 37, 101
6, 45164, Note_on_c, 9, 37, 0
6, 45164, Note_on_c, 9, 40, 0
6, 45164, Note_on_c, 9, 42, 0
6, 45168, Note_on_c, 9, 42, 61
6, 45212, Note_on_c, 9, 42, 0
6, 45216, Note_on_c, 9, 42, 61
6, 45216, Note_on_c, 9, 37, 127
6, 45260, Note_on_c, 9, 37, 0
6, 45260, Note_on_c, 9, 42, 0
6, 45264, Note_on_c, 9, 42, 61
6, 45308, Note_on_c, 9, 42, 0
6, 45312, Note_on_c, 9, 42, 61
6, 45356, Note_on_c, 9, 42, 0
6, 45360, Note_on_c, 9, 42, 61
6, 45404, Note_on_c, 9, 42, 0
6, 45408, Note_on_c, 9, 42, 63
6, 45452, Note_on_c, 9, 42, 0
6, 45456, Note_on_c, 9, 42, 63
6, 45500, Note_on_c, 9, 42, 0
6, 45504, Note_on_c, 9, 42, 63
6, 45504, Note_on_c, 9, 40, 127
6, 45504, Note_on_c, 9, 37, 101
6, 45548, Note_on_c, 9, 37, 0
6, 45548, Note_on_c, 9, 40, 0
6, 45548, Note_on_c, 9, 42, 0
6, 45552, Note_on_c, 9, 42, 63
6, 45596, Note_on_c, 9, 42, 0
6, 45600, Note_on_c, 9, 42, 61
6, 45644, Note_on_c, 9, 42, 0
6, 45648, Note_on_c, 9, 42, 63
6, 45692, Note_on_c, 9, 42, 0
6, 45696, Note_on_c, 9, 42, 64
6, 45740, Note_on_c, 9, 42, 0
6, 45744, Note_on_c, 9, 42, 64
6, 45788, Note_on_c, 9, 42, 0
6, 45792, Note_on_c, 9, 42, 63
6, 45836, Note_on_c, 9, 42, 0
6, 45840, Note_on_c, 9, 42, 64
6, 45884, Note_on_c, 9, 42, 0
6, 45888, Note_on_c, 9, 42, 63
6, 45888, Note_on_c, 9, 40, 127
6, 45888, Note_on_c, 9, 37, 101
6, 45932, Note_on_c, 9, 37, 0
6, 45932, Note_on_c, 9, 40, 0
6, 45932, Note_on_c, 9, 42, 0
6, 45936, Note_on_c, 9, 42, 61
6, 45980, Note_on_c, 9, 42, 0
6, 45984, Note_on_c, 9, 42, 61
6, 45984, Note_on_c, 9, 37, 127
6, 46028, Note_on_c, 9, 37, 0
6, 46028, Note_on_c, 9, 42, 0
6, 46032, Note_on_c, 9, 42, 61
6, 46076, Note_on_c, 9, 42, 0
6, 46080, Note_on_c, 9, 42, 61
6, 46124, Note_on_c, 9, 42, 0
6, 46128, Note_on_c, 9, 42, 61
6, 46172, Note_on_c, 9, 42, 0
6, 46176, Note_on_c, 9, 42, 63
6, 46220, Note_on_c, 9, 42, 0
6, 46224, Note_on_c, 9, 42, 63
6, 46268, Note_on_c, 9, 42, 0
6, 46272, Note_on_c, 9, 42, 63
6, 46272, Note_on_c, 9, 40, 127
6, 46272, Note_on_c, 9, 37, 101
6, 46316, Note_on_c, 9, 37, 0
6, 46316, Note_on_c, 9, 40, 0
6, 46316, Note_on_c, 9, 42, 0
6, 46320, Note_on_c, 9, 42, 63
6, 46364, Note_on_c, 9, 42, 0
6, 46368, Note_on_c, 9, 42, 61
6, 46412, Note_on_c, 9, 42, 0
6, 46416, Note_on_c, 9, 42, 63
6, 46460, Note_on_c, 9, 42, 0
6, 46464, Note_on_c, 9, 42, 64
6, 46508, Note_on_c, 9, 42, 0
6, 46512, Note_on_c, 9, 42, 64
6, 46556, Note_on_c, 9, 42, 0
6, 46560, Note_on_c, 9, 42, 63
6, 46604, Note_on_c, 9, 42, 0
6, 46608, Note_on_c, 9, 42, 64
6, 46652, Note_on_c, 9, 42, 0
6, 46656, Note_on_c, 9, 42, 63
6, 46656, Note_on_c, 9, 40, 127
6, 46656, Note_on_c, 9, 37, 101
6, 46700, Note_on_c, 9, 37, 0
6, 46700, Note_on_c, 9, 40, 0
6, 46700, Note_on_c, 9, 42, 0
6, 46704, Note_on_c, 9, 42, 61
6, 46748, Note_on_c, 9, 42, 0
6, 46752, Note_on_c, 9, 42, 61
6, 46752, Note_on_c, 9, 37, 127
6, 46796, Note_on_c, 9, 37, 0
6, 46796, Note_on_c, 9, 42, 0
6, 46800, Note_on_c, 9, 42, 61
6, 46844, Note_on_c, 9, 42, 0
6, 46848, Note_on_c, 9, 42, 61
6, 46892, Note_on_c, 9, 42, 0
6, 46896, Note_on_c, 9, 42, 61
6, 46940, Note_on_c, 9, 42, 0
6, 46944, Note_on_c, 9, 42, 63
6, 46988, Note_on_c, 9, 42, 0
6, 46992, Note_on_c, 9, 42, 63
6, 47036, Note_on_c, 9, 42, 0
6, 47040, Note_on_c, 9, 42, 63
6, 47040, Note_on_c, 9, 40, 127
6, 47040, Note_on_c, 9, 37, 101
6, 47084, Note_on_c, 9, 37, 0
6, 47084, Note_on_c, 9, 40, 0
6, 47084, Note_on_c, 9, 42, 0
6, 47088, Note_on_c, 9, 42, 63
6, 47132, Note_on_c, 9, 42, 0
6, 47136, Note_on_c, 9, 42, 61
6, 47180, Note_on_c, 9, 42, 0
6, 47184, Note_on_c, 9, 42, 63
6, 47228, Note_on_c, 9, 42, 0
6, 47232, Note_on_c, 9, 42, 64
6, 47276, Note_on_c, 9, 42, 0
6, 47280, Note_on_c, 9, 42, 64
6, 47324, Note_on_c, 9, 42, 0
6, 47328, Note_on_c, 9, 42, 63
6, 47372, Note_on_c, 9, 42, 0
6, 47376, Note_on_c, 9, 42, 64
6, 47420, Note_on_c, 9, 42, 0
6, 47424, Note_on_c, 9, 42, 63
6, 47424, Note_on_c, 9, 40, 127
6, 47424, Note_on_c, 9, 37, 101
6, 47468, Note_on_c, 9, 37, 0
6, 47468, Note_on_c, 9, 40, 0
6, 47468, Note_on_c, 9, 42, 0
6, 47472, Note_on_c, 9, 42, 61
6, 47516, Note_on_c, 9, 42, 0
6, 47520, Note_on_c, 9, 42, 61
6, 47520, Note_on_c, 9, 37, 127
6, 47564, Note_on_c, 9, 37, 0
6, 47564, Note_on_c, 9, 42, 0
6, 47568, Note_on_c, 9, 42, 61
6, 47612, Note_on_c, 9, 42, 0
6, 47616, Note_on_c, 9, 42, 61
6, 47660, Note_on_c, 9, 42, 0
6, 47664, Note_on_c, 9, 42, 61
6, 47708, Note_on_c, 9, 42, 0
6, 47712, Note_on_c, 9, 42, 63
6, 47756, Note_on_c, 9, 42, 0
6, 47760, Note_on_c, 9, 42, 63
6, 47804, Note_on_c, 9, 42, 0
6, 47808, Note_on_c, 9, 42, 63
6, 47808, Note_on_c, 9, 40, 127
6, 47808, Note_on_c, 9, 37, 101
6, 47852, Note_on_c, 9, 37, 0
6, 47852, Note_on_c, 9, 40, 0
6, 47852, Note_on_c, 9, 42, 0
6, 47856, Note_on_c, 9, 42, 63
6, 47900, Note_on_c, 9, 42, 0
6, 47904, Note_on_c, 9, 42, 61
6, 47948, Note_on_c, 9, 42, 0
6, 47952, Note_on_c, 9, 42, 63
6, 47996, Note_on_c, 9, 42, 0
6, 48000, Note_on_c, 9, 42, 64
6, 48044, Note_on_c, 9, 42, 0
6, 48048, Note_on_c, 9, 42, 64
6, 48092, Note_on_c, 9, 42, 0
6, 48096, Note_on_c, 9, 42, 63
6, 48140, Note_on_c, 9, 42, 0
6, 48144, Note_on_c, 9, 42, 64
6, 48188, Note_on_c, 9, 42, 0
6, 48192, Note_on_c, 9, 42, 63
6, 48192, Note_on_c, 9, 40, 127
6, 48192, Note_on_c, 9, 37, 101
6, 48236, Note_on_c, 9, 37, 0
6, 48236, Note_on_c, 9, 40, 0
6, 48236, Note_on_c, 9, 42, 0
6, 48240, Note_on_c, 9, 42, 61
6, 48284, Note_on_c, 9, 42, 0
6, 48288, Note_on_c, 9, 42, 61
6, 48288, Note_on_c, 9, 37, 127
6, 48332, Note_on_c, 9, 37, 0
6, 48332, Note_on_c, 9, 42, 0
6, 48336, Note_on_c, 9, 42, 61
6, 48380, Note_on_c, 9, 42, 0
6, 48384, Note_on_c, 9, 42, 61
6, 48428, Note_on_c, 9, 42, 0
6, 48432, Note_on_c, 9, 42, 61
6, 48476, Note_on_c, 9, 42, 0
6, 48480, Note_on_c, 9, 42, 63
6, 48524, Note_on_c, 9, 42, 0
6, 48528, Note_on_c, 9, 42, 63
6, 48572, Note_on_c, 9, 42, 0
6, 48576, Note_on_c, 9, 42, 63
6, 48576, Note_on_c, 9, 40, 127
6, 48576, Note_on_c, 9, 37, 101
6, 48620, Note_on_c, 9, 37, 0
6, 48620, Note_on_c, 9, 40, 0
6, 48620, Note_on_c, 9, 42, 0
6, 48624, Note_on_c, 9, 42, 63
6, 48668, Note_on_c, 9, 42, 0
6, 48672, Note_on_c, 9, 42, 61
6, 48716, Note_on_c, 9, 42, 0
6, 48720, Note_on_c, 9, 42, 63
6, 48764, Note_on_c, 9, 42, 0
6, 48768, Note_on_c, 9, 42, 64
6, 48812, Note_on_c, 9, 42, 0
6, 48816, Note_on_c, 9, 42, 64
6, 48860, Note_on_c, 9, 42, 0
6, 48864, Note_on_c, 9, 42, 63
6, 48908, Note_on_c, 9, 42, 0
6, 48912, Note_on_c, 9, 42, 64
6, 48956, Note_on_c, 9, 42, 0
6, 48960, Note_on_c, 9, 42, 63
6, 48960, Note_on_c, 9, 40, 127
6, 48960, Note_on_c, 9, 37, 101
6, 49004, Note_on_c, 9, 37, 0
6, 49004, Note_on_c, 9, 40, 0
6, 49004, Note_on_c, 9, 42, 0
6, 49008, Note_on_c, 9, 42, 61
6, 49052, Note_on_c, 9, 42, 0
6, 49056, Note_on_c, 9, 42, 61
6, 49056, Note_on_c, 9, 37, 127
6, 49100, Note_on_c, 9, 37, 0
6, 49100, Note_on_c, 9, 42, 0
6, 49104, Note_on_c, 9, 42, 61
6, 49148, Note_on_c, 9, 42, 0
6, 49152, Note_on_c, 9, 42, 61
6, 49196, Note_on_c, 9, 42, 0
6, 49200, Note_on_c, 9, 42, 61
6, 49244, Note_on_c, 9, 42, 0
6, 49248, Note_on_c, 9, 42, 63
6, 49292, Note_on_c, 9, 42, 0
6, 49296, Note_on_c, 9, 42, 63
6, 49340, Note_on_c, 9, 42, 0
6, 49344, Note_on_c, 9, 42, 63
6, 49344, Note_on_c, 9, 40, 127
6, 49344, Note_on_c, 9, 37, 101
6, 49388, Note_on_c, 9, 37, 0
6, 49388, Note_on_c, 9, 40, 0
6, 49388, Note_on_c, 9, 42, 0
6, 49392, Note_on_c, 9, 42, 63
6, 49436, Note_on_c, 9, 42, 0
6, 49440, Note_on_c, 9, 42, 61
6, 49484, Note_on_c, 9, 42, 0
6, 49488, Note_on_c, 9, 42, 63
6, 49532, Note_on_c, 9, 42, 0
6, 49536, Note_on_c, 9, 42, 64
6, 49580, Note_on_c, 9, 42, 0
6, 49584, Note_on_c, 9, 42, 64
6, 49628, Note_on_c, 9, 42, 0
6, 49632, Note_on_c, 9, 42, 63
6, 49676, Note_on_c, 9, 42, 0
6, 49680, Note_on_c, 9, 42, 64
6, 49724, Note_on_c, 9, 42, 0
6, 49728, Note_on_c, 9, 42, 63
6, 49728, Note_on_c, 9, 40, 127
6, 49728, Note_on_c, 9, 37, 101
6, 49772, Note_on_c, 9, 37, 0
6, 49772, Note_on_c, 9, 40, 0
6, 49772, Note_on_c, 9, 42, 0
6, 49776, Note_on_c, 9, 42, 61
6, 49820, Note_on_c, 9, 42, 0
6, 49824, Note_on_c, 9, 42, 61
6, 49824, Note_on_c, 9, 37, 127
6, 49868, Note_on_c, 9, 37, 0
6, 49868, Note_on_c, 9, 42, 0
6, 49872, Note_on_c, 9, 42, 61
6, 49916, Note_on_c, 9, 42, 0
6, 49920, Note_on_c, 9, 42, 61
6, 49964, Note_on_c, 9, 42, 0
6, 49968, Note_on_c, 9, 42, 61
6, 50012, Note_on_c, 9, 42, 0
6, 50016, Note_on_c, 9, 42, 63
6, 50060, Note_on_c, 9, 42, 0
6, 50064, Note_on_c, 9, 42, 63
6, 50108, Note_on_c, 9, 42, 0
6, 50112, Note_on_c, 9, 42, 63
6, 50112, Note_on_c, 9, 40, 127
6, 50112, Note_on_c, 9, 37, 101
6, 50156, Note_on_c, 9, 37, 0
6, 50156, Note_on_c, 9, 40, 0
6, 50156, Note_on_c, 9, 42, 0
6, 50160, Note_on_c, 9, 42, 63
6, 50204, Note_on_c, 9, 42, 0
6, 50208, Note_on_c, 9, 42, 61
6, 50252, Note_on_c, 9, 42, 0
6, 50256, Note_on_c, 9, 42, 63
6, 50300, Note_on_c, 9, 42, 0
6, 50304, Note_on_c, 9, 42, 64
6, 50348, Note_on_c, 9, 42, 0
6, 50352, Note_on_c, 9, 42, 64
6, 50396, Note_on_c, 9, 42, 0
6, 50400, Note_on_c, 9, 42, 63
6, 50444, Note_on_c, 9, 42, 0
6, 50448, Note_on_c, 9, 42, 64
6, 50492, Note_on_c, 9, 42, 0
6, 50496, Note_on_c, 9, 42, 63
6, 50496, Note_on_c, 9, 40, 127
6, 50496, Note_on_c, 9, 37, 101
6, 50540, Note_on_c, 9, 37, 0
6, 50540, Note_on_c, 9, 40, 0
6, 50540, Note_on_c, 9, 42, 0
6, 50544, Note_on_c, 9, 42, 61
6, 50588, Note_on_c, 9, 42, 0
6, 50592, Note_on_c, 9, 42, 61
6, 50592, Note_on_c, 9, 37, 127
6, 50636, Note_on_c, 9, 37, 0
6, 50636, Note_on_c, 9, 42, 0
6, 50640, Note_on_c, 9, 42, 61
6, 50684, Note_on_c, 9, 42, 0
6, 50688, Note_on_c, 9, 42, 61
6, 50732, Note_on_c, 9, 42, 0
6, 50736, Note_on_c, 9, 42, 61
6, 50780, Note_on_c, 9, 42, 0
6, 50784, Note_on_c, 9, 42, 63
6, 50828, Note_on_c, 9, 42, 0
6, 50832, Note_on_c, 9, 42, 63
6, 50876, Note_on_c, 9, 42, 0
6, 50880, Note_on_c, 9, 42, 63
6, 50880, Note_on_c, 9, 40, 127
6, 50880, Note_on_c, 9, 37, 101
6, 50924, Note_on_c, 9, 37, 0
6, 50924, Note_on_c, 9, 40, 0
6, 50924, Note_on_c, 9, 42, 0
6, 50928, Note_on_c, 9, 42, 63
6, 50972, Note_on_c, 9, 42, 0
6, 50976, Note_on_c, 9, 42, 61
6, 51020, Note_on_c, 9, 42, 0
6, 51024, Note_on_c, 9, 42, 63
6, 51068, Note_on_c, 9, 42, 0
6, 51072, Note_on_c, 9, 42, 64
6, 51116, Note_on_c, 9, 42, 0
6, 51120, Note_on_c, 9, 42, 64
6, 51164, Note_on_c, 9, 42, 0
6, 51168, Note_on_c, 9, 42, 63
6, 51212, Note_on_c, 9, 42, 0
6, 51216, Note_on_c, 9, 42, 64
6, 51260, Note_on_c, 9, 42, 0
6, 51264, Note_on_c, 9, 42, 63
6, 51264, Note_on_c, 9, 40, 127
6, 51264, Note_on_c, 9, 37, 101
6, 51308, Note_on_c, 9, 37, 0
6, 51308, Note_on_c, 9, 40, 0
6, 51308, Note_on_c, 9, 42, 0
6, 51312, Note_on_c, 9, 42, 61
6, 51356, Note_on_c, 9, 42, 0
6, 51360, Note_on_c, 9, 42, 61
6, 51360, Note_on_c, 9, 37, 127
6, 51404, Note_on_c, 9, 37, 0
6, 51404, Note_on_c, 9, 42, 0
6, 51408, Note_on_c, 9, 42, 61
6, 51452, Note_on_c, 9, 42, 0
6, 51456, Note_on_c, 9, 42, 61
6, 51500, Note_on_c, 9, 42, 0
6, 51504, Note_on_c, 9, 42, 61
6, 51548, Note_on_c, 9, 42, 0
6, 51552, Note_on_c, 9, 42, 63
6, 51596, Note_on_c, 9, 42, 0
6, 51600, Note_on_c, 9, 42, 63
6, 51644, Note_on_c, 9, 42, 0
6, 51648, Note_on_c, 9, 42, 63
6, 51648, Note_on_c, 9, 40, 127
6, 51648, Note_on_c, 9, 37, 101
6, 51692, Note_on_c, 9, 37, 0
6, 51692, Note_on_c, 9, 40, 0
6, 51692, Note_on_c, 9, 42, 0
6, 51696, Note_on_c, 9, 42, 63
6, 51740, Note_on_c, 9, 42, 0
6, 51744, Note_on_c, 9, 42, 61
6, 51788, Note_on_c, 9, 42, 0
6, 51792, Note_on_c, 9, 42, 63
6, 51836, Note_on_c, 9, 42, 0
6, 51840, Note_on_c, 9, 42, 64
6, 51884, Note_on_c, 9, 42, 0
6, 51888, Note_on_c, 9, 42, 64
6, 51932, Note_on_c, 9, 42, 0
6, 51936, Note_on_c, 9, 42, 63
6, 51980, Note_on_c, 9, 42, 0
6, 51984, Note_on_c, 9, 42, 64
6, 52028, Note_on_c, 9, 42, 0
6, 52032, Note_on_c, 9, 42, 63
6, 52032, Note_on_c, 9, 40, 127
6, 52032, Note_on_c, 9, 37, 101
6, 52076, Note_on_c, 9, 37, 0
6, 52076, Note_on_c, 9, 40, 0
6, 52076, Note_on_c, 9, 42, 0
6, 52080, Note_on_c, 9, 42, 61
6, 52124, Note_on_c, 9, 42, 0
6, 52128, Note_on_c, 9, 42, 61
6, 52128, Note_on_c, 9, 37, 127
6, 52172, Note_on_c, 9, 37, 0
6, 52172, Note_on_c, 9, 42, 0
6, 52176, Note_on_c, 9, 42, 61
6, 52220, Note_on_c, 9, 42, 0
6, 52224, Note_on_c, 9, 42, 61
6, 52268, Note_on_c, 9, 42, 0
6, 52272, Note_on_c, 9, 42, 61
6, 52316, Note_on_c, 9, 42, 0
6, 52320, Note_on_c, 9, 42, 63
6, 52364, Note_on_c, 9, 42, 0
6, 52368, Note_on_c, 9, 42, 63
6, 52412, Note_on_c, 9, 42, 0
6, 52416, Note_on_c, 9, 42, 63
6, 52460, Note_on_c, 9, 42, 0
6, 52464, Note_on_c, 9, 42, 63
6, 52508, Note_on_c, 9, 42, 0
6, 52512, Note_on_c, 9, 42, 61
6, 52556, Note_on_c, 9, 42, 0
6, 52560, Note_on_c, 9, 42, 63
6, 52604, Note_on_c, 9, 42, 0
6, 52608, Note_on_c, 9, 42, 64
6, 52652, Note_on_c, 9, 42, 0
6, 52656, Note_on_c, 9, 42, 64
6, 52700, Note_on_c, 9, 42, 0
6, 52704, Note_on_c, 9, 42, 63
6, 52748, Note_on_c, 9, 42, 0
6, 52752, Note_on_c, 9, 42, 64
6, 52796, Note_on_c, 9, 42, 0
6, 52800, Note_on_c, 9, 42, 63
6, 52844, Note_on_c, 9, 42, 0
6, 52848, Note_on_c, 9, 42, 61
6, 52892, Note_on_c, 9, 42, 0
6, 52896, Note_on_c, 9, 42, 61
6, 52940, Note_on_c, 9, 42, 0
6, 52944, Note_on_c, 9, 42, 61
6, 52988, Note_on_c, 9, 42, 0
6, 52992, Note_on_c, 9, 42, 61
6, 53036, Note_on_c, 9, 42, 0
6, 53040, Note_on_c, 9, 42, 61
6, 53084, Note_on_c, 9, 42, 0
6, 53088, Note_on_c, 9, 42, 63
6, 53132, Note_on_c, 9, 42, 0
6, 53136, Note_on_c, 9, 42, 63
6, 53180, Note_on_c, 9, 42, 0
6, 53184, Note_on_c, 9, 42, 63
6, 53228, Note_on_c, 9, 42, 0
6, 53232, Note_on_c, 9, 42, 63
6, 53276, Note_on_c, 9, 42, 0
6, 53280, Note_on_c, 9, 42, 61
6, 53324, Note_on_c, 9, 42, 0
6, 53328, Note_on_c, 9, 42, 63
6, 53372, Note_on_c, 9, 42, 0
6, 53376, Note_on_c, 9, 42, 64
6, 53420, Note_on_c, 9, 42, 0
6, 53424, Note_on_c, 9, 42, 64
6, 53468, Note_on_c, 9, 42, 0
6, 53472, Note_on_c, 9, 42, 63
6, 53516, Note_on_c, 9, 42, 0
6, 53520, Note_on_c, 9, 42, 64
6, 53564, Note_on_c, 9, 42, 0
6, 53568, Note_on_c, 9, 42, 63
6, 53612, Note_on_c, 9, 42, 0
6, 53616, Note_on_c, 9, 42, 61
6, 53660, Note_on_c, 9, 42, 0
6, 53664, Note_on_c, 9, 42, 61
6, 53708, Note_on_c, 9, 42, 0
6, 53712, Note_on_c, 9, 42, 61
6, 53756, Note_on_c, 9, 42, 0
6, 53760, Note_on_c, 9, 42, 61
6, 53804, Note_on_c, 9, 42, 0
6, 53808, Note_on_c, 9, 42, 61
6, 53852, Note_on_c, 9, 42, 0
6, 53856, Note_on_c, 9, 42, 63
6, 53900, Note_on_c, 9, 42, 0
6, 53904, Note_on_c, 9, 42, 63
6, 53948, Note_on_c, 9, 42, 0
6, 53952, Note_on_c, 9, 42, 63
6, 53996, Note_on_c, 9, 42, 0
6, 54000, Note_on_c, 9, 42, 63
6, 54044, Note_on_c, 9, 42, 0
6, 54048, Note_on_c, 9, 42, 61
6, 54092, Note_on_c, 9, 42, 0
6, 54096, Note_on_c, 9, 42, 63
6, 54140, Note_on_c, 9, 42, 0
6, 54144, Note_on_c, 9, 42, 64
6, 54188, Note_on_c, 9, 42, 0
6, 54192, Note_on_c, 9, 42, 64
6, 54236, Note_on_c, 9, 42, 0
6, 54240, Note_on_c, 9, 42, 63
6, 54284, Note_on_c, 9, 42, 0
6, 54288, Note_on_c, 9, 42, 64
6, 54332, Note_on_c, 9, 42, 0
6, 54336, Note_on_c, 9, 42, 63
6, 54380, Note_on_c, 9, 42, 0
6, 54384, Note_on_c, 9, 42, 61
6, 54428, Note_on_c, 9, 42, 0
6, 54432, Note_on_c, 9, 42, 61
6, 54476, Note_on_c, 9, 42, 0
6, 54480, Note_on_c, 9, 42, 61
6, 54524, Note_on_c, 9, 42, 0
6, 54528, Note_on_c, 9, 42, 61
6, 54572, Note_on_c, 9, 42, 0
6, 54576, Note_on_c, 9, 42, 61
6, 54620, Note_on_c, 9, 42, 0
6, 54624, Note_on_c, 9, 42, 63
6, 54668, Note_on_c, 9, 42, 0
6, 54672, Note_on_c, 9, 42, 63
6, 54716, Note_on_c, 9, 42, 0
6, 54720, Note_on_c, 9, 42, 63
6, 54764, Note_on_c, 9, 42, 0
6, 54768, Note_on_c, 9, 42, 63
6, 54812, Note_on_c, 9, 42, 0
6, 54816, Note_on_c, 9, 42, 61
6, 54860, Note_on_c, 9, 42, 0
6, 54864, Note_on_c, 9, 42, 63
6, 54908, Note_on_c, 9, 42, 0
6, 54912, Note_on_c, 9, 42, 64
6, 54956, Note_on_c, 9, 42, 0
6, 54960, Note_on_c, 9, 42, 64
6, 55004, Note_on_c, 9, 42, 0
6, 55008, Note_on_c, 9, 42, 63
6, 55052, Note_on_c, 9, 42, 0
6, 55056, Note_on_c, 9, 42, 64
6, 55100, Note_on_c, 9, 42, 0
6, 55104, Note_on_c, 9, 42, 63
6, 55148, Note_on_c, 9, 42, 0
6, 55152, Note_on_c, 9, 42, 61
6, 55196, Note_on_c, 9, 42, 0
6, 55200, Note_on_c, 9, 42, 61
6, 55244, Note_on_c, 9, 42, 0
6, 55248, Note_on_c, 9, 42, 61
6, 55292, Note_on_c, 9, 42, 0
6, 58368, Note_on_c, 9, 42, 61
6, 58412, Note_on_c, 9, 42, 0
6, 58416, Note_on_c, 9, 42, 61
6, 58460, Note_on_c, 9, 42, 0
6, 58464, Note_on_c, 9, 42, 63
6, 58508, Note_on_c, 9, 42, 0
6, 58512, Note_on_c, 9, 42, 63
6, 58556, Note_on_c, 9, 42, 0
6, 58560, Note_on_c, 9, 42, 63
6, 58560, Note_on_c, 9, 40, 127
6, 58560, Note_on_c, 9, 37, 101
6, 58604, Note_on_c, 9, 37, 0
6, 58604, Note_on_c, 9, 40, 0
6, 58604, Note_on_c, 9, 42, 0
6, 58608, Note_on_c, 9, 42, 63
6, 58652, Note_on_c, 9, 42, 0
6, 58656, Note_on_c, 9, 42, 61
6, 58700, Note_on_c, 9, 42, 0
6, 58704, Note_on_c, 9, 42, 63
6, 58748, Note_on_c, 9, 42, 0
6, 58752, Note_on_c, 9, 42, 64
6, 58796, Note_on_c, 9, 42, 0
6, 58800, Note_on_c, 9, 42, 64
6, 58844, Note_on_c, 9, 42, 0
6, 58848, Note_on_c, 9, 42, 63
6, 58892, Note_on_c, 9, 42, 0
6, 58896, Note_on_c, 9, 42, 64
6, 58940, Note_on_c, 9, 42, 0
6, 58944, Note_on_c, 9, 42, 63
6, 58944, Note_on_c, 9, 40, 127
6, 58944, Note_on_c, 9, 37, 101
6, 58988, Note_on_c, 9, 37, 0
6, 58988, Note_on_c, 9, 40, 0
6, 58988, Note_on_c, 9, 42, 0
6, 58992, Note_on_c, 9, 42, 61
6, 59036, Note_on_c, 9, 42, 0
6, 59040, Note_on_c, 9, 42, 61
6, 59040, Note_on_c, 9, 37, 127
6, 59084, Note_on_c, 9, 37, 0
6, 59084, Note_on_c, 9, 42, 0
6, 59088, Note_on_c, 9, 42, 61
6, 59132, Note_on_c, 9, 42, 0
6, 59136, Note_on_c, 9, 42, 61
6, 59180, Note_on_c, 9, 42, 0
6, 59184, Note_on_c, 9, 42, 61
6, 59228, Note_on_c, 9, 42, 0
6, 59232, Note_on_c, 9, 42, 63
6, 59276, Note_on_c, 9, 42, 0
6, 59280, Note_on_c, 9, 42, 63
6, 59324, Note_on_c, 9, 42, 0
6, 59328, Note_on_c, 9, 42, 63
6, 59328, Note_on_c, 9, 40, 127
6, 59328, Note_on_c, 9, 37, 101
6, 59372, Note_on_c, 9, 37, 0
6, 59372, Note_on_c, 9, 40, 0
6, 59372, Note_on_c, 9, 42, 0
6, 59376, Note_on_c, 9, 42, 63
6, 59420, Note_on_c, 9, 42, 0
6, 59424, Note_on_c, 9, 42, 61
6, 59468, Note_on_c, 9, 42, 0
6, 59472, Note_on_c, 9, 42, 63
6, 59516, Note_on_c, 9, 42, 0
6, 59520, Note_on_c, 9, 42, 64
6, 59564, Note_on_c, 9, 42, 0
6, 59568, Note_on_c, 9, 42, 64
6, 59612, Note_on_c, 9, 42, 0
6, 59616, Note_on_c, 9, 42, 63
6, 59660, Note_on_c, 9, 42, 0
6, 59664, Note_on_c, 9, 42, 64
6, 59708, Note_on_c, 9, 42, 0
6, 59712, Note_on_c, 9, 42, 63
6, 59712, Note_on_c, 9, 40, 127
6, 59712, Note_on_c, 9, 37, 101
6, 59756, Note_on_c, 9, 37, 0
6, 59756, Note_on_c, 9, 40, 0
6, 59756, Note_on_c, 9, 42, 0
6, 59760, Note_on_c, 9, 42, 61
6, 59804, Note_on_c, 9, 42, 0
6, 59808, Note_on_c, 9, 42, 61
6, 59808, Note_on_c, 9, 37, 127
6, 59852, Note_on_c, 9, 37, 0
6, 59852, Note_on_c, 9, 42, 0
6, 59856, Note_on_c, 9, 42, 61
6, 59900, Note_on_c, 9, 42, 0
6, 59904, Note_on_c, 9, 42, 61
6, 59948, Note_on_c, 9, 42, 0
6, 59952, Note_on_c, 9, 42, 61
6, 59996, Note_on_c, 9, 42, 0
6, 60000, Note_on_c, 9, 42, 63
6, 60044, Note_on_c, 9, 42, 0
6, 60048, Note_on_c, 9, 42, 63
6, 60092, Note_on_c, 9, 42, 0
6, 60096, Note_on_c, 9, 42, 63
6, 60096, Note_on_c, 9, 40, 127
6, 60096, Note_on_c, 9, 37, 101
6, 60140, Note_on_c, 9, 37, 0
6, 60140, Note_on_c, 9, 40, 0
6, 60140, Note_on_c, 9, 42, 0
6, 60144, Note_on_c, 9, 42, 63
6, 60188, Note_on_c, 9, 42, 0
6, 60192, Note_on_c, 9, 42, 61
6, 60236, Note_on_c, 9, 42, 0
6, 60240, Note_on_c, 9, 42, 63
6, 60284, Note_on_c, 9, 42, 0
6, 60288, Note_on_c, 9, 42, 64
6, 60332, Note_on_c, 9, 42, 0
6, 60336, Note_on_c, 9, 42, 64
6, 60380, Note_on_c, 9, 42, 0
6, 60384, Note_on_c, 9, 42, 63
6, 60428, Note_on_c, 9, 42, 0
6, 60432, Note_on_c, 9, 42, 64
6, 60476, Note_on_c, 9, 42, 0
6, 60480, Note_on_c, 9, 42, 63
6, 60480, Note_on_c, 9, 40, 127
6, 60480, Note_on_c, 9, 37, 101
6, 60524, Note_on_c, 9, 37, 0
6, 60524, Note_on_c, 9, 40, 0
6, 60524, Note_on_c, 9, 42, 0
6, 60528, Note_on_c, 9, 42, 61
6, 60572, Note_on_c, 9, 42, 0
6, 60576, Note_on_c, 9, 42, 61
6, 60576, Note_on_c, 9, 37, 127
6, 60620, Note_on_c, 9, 37, 0
6, 60620, Note_on_c, 9, 42, 0
6, 60624, Note_on_c, 9, 42, 61
6, 60668, Note_on_c, 9, 42, 0
6, 60672, Note_on_c, 9, 42, 61
6, 60716, Note_on_c, 9, 42, 0
6, 60720, Note_on_c, 9, 42, 61
6, 60764, Note_on_c, 9, 42, 0
6, 60768, Note_on_c, 9, 42, 63
6, 60812, Note_on_c, 9, 42, 0
6, 60816, Note_on_c, 9, 42, 63
6, 60860, Note_on_c, 9, 42, 0
6, 60864, Note_on_c, 9, 42, 63
6, 60864, Note_on_c, 9, 40, 127
6, 60864, Note_on_c, 9, 37, 101
6, 60908, Note_on_c, 9, 37, 0
6, 60908, Note_on_c, 9, 40, 0
6, 60908, Note_on_c, 9, 42, 0
6, 60912, Note_on_c, 9, 42, 63
6, 60956, Note_on_c, 9, 42, 0
6, 60960, Note_on_c, 9, 42, 61
6, 61004, Note_on_c, 9, 42, 0
6, 61008, Note_on_c, 9, 42, 63
6, 61052, Note_on_c, 9, 42, 0
6, 61056, Note_on_c, 9, 42, 64
6, 61100, Note_on_c, 9, 42, 0
6, 61104, Note_on_c, 9, 42, 64
6, 61148, Note_on_c, 9, 42, 0
6, 61152, Note_on_c, 9, 42, 63
6, 61196, Note_on_c, 9, 42, 0
6, 61200, Note_on_c, 9, 42, 64
6, 61244, Note_on_c, 9, 42, 0
6, 61248, Note_on_c, 9, 42, 63
6, 61248, Note_on_c, 9, 40, 127
6, 61248, Note_on_c, 9, 37, 101
6, 61292, Note_on_c, 9, 37, 0
6, 61292, Note_on_c, 9, 40, 0
6, 61292, Note_on_c, 9, 42, 0
6, 61296, Note_on_c, 9, 42, 61
6, 61340, Note_on_c, 9, 42, 0
6, 61344, Note_on_c, 9, 42, 61
6, 61344, Note_on_c, 9, 37, 127
6, 61388, Note_on_c, 9, 37, 0
6, 61388, Note_on_c, 9, 42, 0
6, 61392, Note_on_c, 9, 42, 61
6, 61436, Note_on_c, 9, 42, 0
6, 61440, Note_on_c, 9, 42, 61
6, 61484, Note_on_c, 9, 42, 0
6, 61488, Note_on_c, 9, 42, 61
6, 61532, Note_on_c, 9, 42, 0
6, 61536, Note_on_c, 9, 42, 63
6, 61580, Note_on_c, 9, 42, 0
6, 61584, Note_on_c, 9, 42, 63
6, 61628, Note_on_c, 9, 42, 0
6, 61632, Note_on_c, 9, 42, 63
6, 61632, Note_on_c, 9, 40, 127
6, 61632, Note_on_c, 9, 37, 101
6, 61676, Note_on_c, 9, 37, 0
6, 61676, Note_on_c, 9, 40, 0
6, 61676, Note_on_c, 9, 42, 0
6, 61680, Note_on_c, 9, 42, 63
6, 61724, Note_on_c, 9, 42, 0
6, 61728, Note_on_c, 9, 42, 61
6, 61772, Note_on_c, 9, 42, 0
6, 61776, Note_on_c, 9, 42, 63
6, 61820, Note_on_c, 9, 42, 0
6, 61824, Note_on_c, 9, 42, 64
6, 61868, Note_on_c, 9, 42, 0
6, 61872, Note_on_c, 9, 42, 64
6, 61916, Note_on_c, 9, 42, 0
6, 61920, Note_on_c, 9, 42, 63
6, 61964, Note_on_c, 9, 42, 0
6, 61968, Note_on_c, 9, 42, 64
6, 62012, Note_on_c, 9, 42, 0
6, 62016, Note_on_c, 9, 42, 63
6, 62016, Note_on_c, 9, 40, 127
6, 62016, Note_on_c, 9, 37, 101
6, 62060, Note_on_c, 9, 37, 0
6, 62060, Note_on_c, 9, 40, 0
6, 62060, Note_on_c, 9, 42, 0
6, 62064, Note_on_c, 9, 42, 61
6, 62108, Note_on_c, 9, 42, 0
6, 62112, Note_on_c, 9, 42, 61
6, 62112, Note_on_c, 9, 37, 127
6, 62156, Note_on_c, 9, 37, 0
6, 62156, Note_on_c, 9, 42, 0
6, 62160, Note_on_c, 9, 42, 61
6, 62204, Note_on_c, 9, 42, 0
6, 62208, Note_on_c, 9, 42, 61
6, 62252, Note_on_c, 9, 42, 0
6, 62256, Note_on_c, 9, 42, 61
6, 62300, Note_on_c, 9, 42, 0
6, 62304, Note_on_c, 9, 42, 63
6, 62348, Note_on_c, 9, 42, 0
6, 62352, Note_on_c, 9, 42, 63
6, 62396, Note_on_c, 9, 42, 0
6, 62400, Note_on_c, 9, 42, 63
6, 62400, Note_on_c, 9, 40, 127
6, 62400, Note_on_c, 9, 37, 101
6, 62444, Note_on_c, 9, 37, 0
6, 62444, Note_on_c, 9, 40, 0
6, 62444, Note_on_c, 9, 42, 0
6, 62448, Note_on_c, 9, 42, 63
6, 62492, Note_on_c, 9, 42, 0
6, 62496, Note_on_c, 9, 42, 61
6, 62540, Note_on_c, 9, 42, 0
6, 62544, Note_on_c, 9, 42, 63
6, 62588, Note_on_c, 9, 42, 0
6, 62592, Note_on_c, 9, 42, 64
6, 62636, Note_on_c, 9, 42, 0
6, 62640, Note_on_c, 9, 42, 64
6, 62684, Note_on_c, 9, 42, 0
6, 62688, Note_on_c, 9, 42, 63
6, 62732, Note_on_c, 9, 42, 0
6, 62736, Note_on_c, 9, 42, 64
6, 62780, Note_on_c, 9, 42, 0
6, 62784, Note_on_c, 9, 42, 63
6, 62784, Note_on_c, 9, 40, 127
6, 62784, Note_on_c, 9, 37, 101
6, 62828, Note_on_c, 9, 37, 0
6, 62828, Note_on_c, 9, 40, 0
6, 62828, Note_on_c, 9, 42, 0
6, 62832, Note_on_c, 9, 42, 61
6, 62876, Note_on_c, 9, 42, 0
6, 62880, Note_on_c, 9, 42, 61
6, 62880, Note_on_c, 9, 37, 127
6, 62924, Note_on_c, 9, 37, 0
6, 62924, Note_on_c, 9, 42, 0
6, 62928, Note_on_c, 9, 42, 61
6, 62972, Note_on_c, 9, 42, 0
6, 62976, Note_on_c, 9, 42, 61
6, 63020, Note_on_c, 9, 42, 0
6, 63024, Note_on_c, 9, 42, 61
6, 63068, Note_on_c, 9, 42, 0
6, 63072, Note_on_c, 9, 42, 63
6, 63116, Note_on_c, 9, 42, 0
6, 63120, Note_on_c, 9, 42, 63
6, 63164, Note_on_c, 9, 42, 0
6, 63168, Note_on_c, 9, 42, 63
6, 63168, Note_on_c, 9, 40, 127
6, 63168, Note_on_c, 9, 37, 101
6, 63212, Note_on_c, 9, 37, 0
6, 63212, Note_on_c, 9, 40, 0
6, 63212, Note_on_c, 9, 42, 0
6, 63216, Note_on_c, 9, 42, 63
6, 63260, Note_on_c, 9, 42, 0
6, 63264, Note_on_c, 9, 42, 61
6, 63308, Note_on_c, 9, 42, 0
6, 63312, Note_on_c, 9, 42, 63
6, 63356, Note_on_c, 9, 42, 0
6, 63360, Note_on_c, 9, 42, 64
6, 63404, Note_on_c, 9, 42, 0
6, 63408, Note_on_c, 9, 42, 64
6, 63452, Note_on_c, 9, 42, 0
6, 63456, Note_on_c, 9, 42, 63
6, 63500, Note_on_c, 9, 42, 0
6, 63504, Note_on_c, 9, 42, 64
6, 63548, Note_on_c, 9, 42, 0
6, 63552, Note_on_c, 9, 42, 63
6, 63552, Note_on_c, 9, 40, 127
6, 63552, Note_on_c, 9, 37, 101
6, 63596, Note_on_c, 9, 37, 0
6, 63596, Note_on_c, 9, 40, 0
6, 63596, Note_on_c, 9, 42, 0
6, 63600, Note_on_c, 9, 42, 61
6, 63644, Note_on_c, 9, 42, 0
6, 63648, Note_on_c, 9, 42, 61
6, 63648, Note_on_c, 9, 37, 127
6, 63692, Note_on_c, 9, 37, 0
6, 63692, Note_on_c, 9, 42, 0
6, 63696, Note_on_c, 9, 42, 61
6, 63740, Note_on_c, 9, 42, 0
6, 63744, Note_on_c, 9, 42, 61
6, 63788, Note_on_c, 9, 42, 0
6, 63792, Note_on_c, 9, 42, 61
6, 63836, Note_on_c, 9, 42, 0
6, 63840, Note_on_c, 9, 42, 63
6, 63884, Note_on_c, 9, 42, 0
6, 63888, Note_on_c, 9, 42, 63
6, 63932, Note_on_c, 9, 42, 0
6, 63936, Note_on_c, 9, 42, 63
6, 63936, Note_on_c, 9, 40, 127
6, 63936, Note_on_c, 9, 37, 101
6, 63980, Note_on_c, 9, 37, 0
6, 63980, Note_on_c, 9, 40, 0
6, 63980, Note_on_c, 9, 42, 0
6, 63984, Note_on_c, 9, 42, 63
6, 64028, Note_on_c, 9, 42, 0
6, 64032, Note_on_c, 9, 42, 61
6, 64076, Note_on_c, 9, 42, 0
6, 64080, Note_on_c, 9, 42, 63
6, 64124, Note_on_c, 9, 42, 0
6, 64128, Note_on_c, 9, 42, 64
6, 64172, Note_on_c, 9, 42, 0
6, 64176, Note_on_c, 9, 42, 64
6, 64220, Note_on_c, 9, 42, 0
6, 64224, Note_on_c, 9, 42, 63
6, 64268, Note_on_c, 9, 42, 0
6, 64272, Note_on_c, 9, 42, 64
6, 64316, Note_on_c, 9, 42, 0
6, 64320, Note_on_c, 9, 42, 63
6, 64320, Note_on_c, 9, 40, 127
6, 64320, Note_on_c, 9, 37, 101
6, 64364, Note_on_c, 9, 37, 0
6, 64364, Note_on_c, 9, 40, 0
6, 64364, Note_on_c, 9, 42, 0
6, 64368, Note_on_c, 9, 42, 61
6, 64412, Note_on_c, 9, 42, 0
6, 64416, Note_on_c, 9, 42, 61
6, 64416, Note_on_c, 9, 37, 127
6, 64460, Note_on_c, 9, 37, 0
6, 64460, Note_on_c, 9, 42, 0
6, 64464, Note_on_c, 9, 42, 61
6, 64508, Note_on_c, 9, 42, 0
6, 64512, Note_on_c, 9, 42, 61
6, 64556, Note_on_c, 9, 42, 0
6, 64560, Note_on_c, 9, 42, 61
6, 64604, Note_on_c, 9, 42, 0
6, 64608, Note_on_c, 9, 42, 63
6, 64652, Note_on_c, 9, 42, 0
6, 64656, Note_on_c, 9, 42, 63
6, 64700, Note_on_c, 9, 42, 0
6, 64704, Note_on_c, 9, 42, 63
6, 64704, Note_on_c, 9, 40, 127
6, 64704, Note_on_c, 9, 37, 101
6, 64748, Note_on_c, 9, 37, 0
6, 64748, Note_on_c, 9, 40, 0
6, 64748, Note_on_c, 9, 42, 0
6, 64752, Note_on_c, 9, 42, 63
6, 64796, Note_on_c, 9, 42, 0
6, 64800, Note_on_c, 9, 42, 61
6, 64844, Note_on_c, 9, 42, 0
6, 64848, Note_on_c, 9, 42, 63
6, 64892, Note_on_c, 9, 42, 0
6, 64896, Note_on_c, 9, 42, 64
6, 64940, Note_on_c, 9, 42, 0
6, 64944, Note_on_c, 9, 42, 64
6, 64988, Note_on_c, 9, 42, 0
6, 64992, Note_on_c, 9, 42, 63
6, 65036, Note_on_c, 9, 42, 0
6, 65040, Note_on_c, 9, 42, 64
6, 65084, Note_on_c, 9, 42, 0
6, 65088, Note_on_c, 9, 42, 63
6, 65088, Note_on_c, 9, 40, 127
6, 65088, Note_on_c, 9, 37, 101
6, 65132, Note_on_c, 9, 37, 0
6, 65132, Note_on_c, 9, 40, 0
6, 65132, Note_on_c, 9, 42, 0
6, 65136, Note_on_c, 9, 42, 61
6, 65180, Note_on_c, 9, 42, 0
6, 65184, Note_on_c, 9, 42, 61
6, 65184, Note_on_c, 9, 37, 127
6, 65228, Note_on_c, 9, 37, 0
6, 65228, Note_on_c, 9, 42, 0
6, 65232, Note_on_c, 9, 42, 61
6, 65276, Note_on_c, 9, 42, 0
6, 65280, Note_on_c, 9, 42, 61
6, 65324, Note_on_c, 9, 42, 0
6, 65328, Note_on_c, 9, 42, 61
6, 65372, Note_on_c, 9, 42, 0
6, 65376, Note_on_c, 9, 42, 63
6, 65420, Note_on_c, 9, 42, 0
6, 65424, Note_on_c, 9, 42, 63
6, 65468, Note_on_c, 9, 42, 0
6, 65472, Note_on_c, 9, 42, 63
6, 65472, Note_on_c, 9, 40, 127
6, 65472, Note_on_c, 9, 37, 101
6, 65516, Note_on_c, 9, 37, 0
6, 65516, Note_on_c, 9, 40, 0
6, 65516, Note_on_c, 9, 42, 0
6, 65520, Note_on_c, 9, 42, 63
6, 65564, Note_on_c, 9, 42, 0
6, 65568, Note_on_c, 9, 42, 61
6, 65612, Note_on_c, 9, 42, 0
6, 65616, Note_on_c, 9, 42, 63
6, 65660, Note_on_c, 9, 42, 0
6, 65664, Note_on_c, 9, 42, 64
6, 65708, Note_on_c, 9, 42, 0
6, 65712, Note_on_c, 9, 42, 64
6, 65756, Note_on_c, 9, 42, 0
6, 65760, Note_on_c, 9, 42, 63
6, 65804, Note_on_c, 9, 42, 0
6, 65808, Note_on_c, 9, 42, 64
6, 65852, Note_on_c, 9, 42, 0
6, 65856, Note_on_c, 9, 42, 63
6, 65856, Note_on_c, 9, 40, 127
6, 65856, Note_on_c, 9, 37, 101
6, 65900, Note_on_c, 9, 37, 0
6, 65900, Note_on_c, 9, 40, 0
6, 65900, Note_on_c, 9, 42, 0
6, 65904, Note_on_c, 9, 42, 61
6, 65948, Note_on_c, 9, 42, 0
6, 65952, Note_on_c, 9, 42, 61
6, 65952, Note_on_c, 9, 37, 127
6, 65996, Note_on_c, 9, 37, 0
6, 65996, Note_on_c, 9, 42, 0
6, 66000, Note_on_c, 9, 42, 61
6, 66044, Note_on_c, 9, 42, 0
6, 66048, Note_on_c, 9, 42, 61
6, 66092, Note_on_c, 9, 42, 0
6, 66096, Note_on_c, 9, 42, 61
6, 66140, Note_on_c, 9, 42, 0
6, 66144, Note_on_c, 9, 42, 63
6, 66188, Note_on_c, 9, 42, 0
6, 66192, Note_on_c, 9, 42, 63
6, 66236, Note_on_c, 9, 42, 0
6, 66240, Note_on_c, 9, 42, 63
6, 66240, Note_on_c, 9, 40, 127
6, 66240, Note_on_c, 9, 37, 101
6, 66284, Note_on_c, 9, 37, 0
6, 66284, Note_on_c, 9, 40, 0
6, 66284, Note_on_c, 9, 42, 0
6, 66288, Note_on_c, 9, 42, 63
6, 66332, Note_on_c, 9, 42, 0
6, 66336, Note_on_c, 9, 42, 61
6, 66380, Note_on_c, 9, 42, 0
6, 66384, Note_on_c, 9, 42, 63
6, 66428, Note_on_c, 9, 42, 0
6, 66432, Note_on_c, 9, 42, 64
6, 66476, Note_on_c, 9, 42, 0
6, 66480, Note_on_c, 9, 42, 64
6, 66524, Note_on_c, 9, 42, 0
6, 66528, Note_on_c, 9, 42, 63
6, 66572, Note_on_c, 9, 42, 0
6, 66576, Note_on_c, 9, 42, 64
6, 66620, Note_on_c, 9, 42, 0
6, 66624, Note_on_c, 9, 42, 63
6, 66624, Note_on_c, 9, 40, 127
6, 66624, Note_on_c, 9, 37, 101
6, 66668, Note_on_c, 9, 37, 0
6, 66668, Note_on_c, 9, 40, 0
6, 66668, Note_on_c, 9, 42, 0
6, 66672, Note_on_c, 9, 42, 61
6, 66716, Note_on_c, 9, 42, 0
6, 66720, Note_on_c, 9, 42, 61
6, 66720, Note_on_c, 9, 37, 127
6, 66764, Note_on_c, 9, 37, 0
6, 66764, Note_on_c, 9, 42, 0
6, 66768, Note_on_c, 9, 42, 61
6, 66812, Note_on_c, 9, 42, 0
6, 66816, Note_on_c, 9, 42, 61
6, 66860, Note_on_c, 9, 42, 0
6, 66864, Note_on_c, 9, 42, 61
6, 66908, Note_on_c, 9, 42, 0
6, 66912, Note_on_c, 9, 42, 63
6, 66956, Note_on_c, 9, 42, 0
6, 66960, Note_on_c, 9, 42, 63
6, 67004, Note_on_c, 9, 42, 0
6, 67008, Note_on_c, 9, 42, 63
6, 67008, Note_on_c, 9, 40, 127
6, 67008, Note_on_c, 9, 37, 101
6, 67052, Note_on_c, 9, 37, 0
6, 67052, Note_on_c, 9, 40, 0
6, 67052, Note_on_c, 9, 42, 0
6, 67056, Note_on_c, 9, 42, 63
6, 67100, Note_on_c, 9, 42, 0
6, 67104, Note_on_c, 9, 42, 61
6, 67148, Note_on_c, 9, 42, 0
6, 67152, Note_on_c, 9, 42, 63
6, 67196, Note_on_c, 9, 42, 0
6, 67200, Note_on_c, 9, 42, 64
6, 67244, Note_on_c, 9, 42, 0
6, 67248, Note_on_c, 9, 42, 64
6, 67292, Note_on_c, 9, 42, 0
6, 67296, Note_on_c, 9, 42, 63
6, 67340, Note_on_c, 9, 42, 0
6, 67344, Note_on_c, 9, 42, 64
6, 67388, Note_on_c, 9, 42, 0
6, 67392, Note_on_c, 9, 42, 63
6, 67392, Note_on_c, 9, 40, 127
6, 67392, Note_on_c, 9, 37, 101
6, 67436, Note_on_c, 9, 37, 0
6, 67436, Note_on_c, 9, 40, 0
6, 67436, Note_on_c, 9, 42, 0
6, 67440, Note_on_c, 9, 42, 61
6, 67484, Note_on_c, 9, 42, 0
6, 67488, Note_on_c, 9, 42, 61
6, 67488, Note_on_c, 9, 37, 127
6, 67532, Note_on_c, 9, 37, 0
6, 67532, Note_on_c, 9, 42, 0
6, 67536, Note_on_c, 9, 42, 61
6, 67580, Note_on_c, 9, 42, 0
6, 67584, Note_on_c, 9, 42, 61
6, 67628, Note_on_c, 9, 42, 0
6, 67632, Note_on_c, 9, 42, 61
6, 67676, Note_on_c, 9, 42, 0
6, 67680, Note_on_c, 9, 42, 63
6, 67724, Note_on_c, 9, 42, 0
6, 67728, Note_on_c, 9, 42, 63
6, 67772, Note_on_c, 9, 42, 0
6, 67776, Note_on_c, 9, 42, 63
6, 67776, Note_on_c, 9, 40, 127
6, 67776, Note_on_c, 9, 37, 101
6, 67820, Note_on_c, 9, 37, 0
6, 67820, Note_on_c, 9, 40, 0
6, 67820, Note_on_c, 9, 42, 0
6, 67824, Note_on_c, 9, 42, 63
6, 67868, Note_on_c, 9, 42, 0
6, 67872, Note_on_c, 9, 42, 61
6, 67916, Note_on_c, 9, 42, 0
6, 67920, Note_on_c, 9, 42, 63
6, 67964, Note_on_c, 9, 42, 0
6, 67968, Note_on_c, 9, 42, 64
6, 68012, Note_on_c, 9, 42, 0
6, 68016, Note_on_c, 9, 42, 64
6, 68060, Note_on_c, 9, 42, 0
6, 68064, Note_on_c, 9, 42, 63
6, 68108, Note_on_c, 9, 42, 0
6, 68112, Note_on_c, 9, 42, 64
6, 68156, Note_on_c, 9, 42, 0
6, 68160, Note_on_c, 9, 42, 63
6, 68160, Note_on_c, 9, 40, 127
6, 68160, Note_on_c, 9, 37, 101
6, 68204, Note_on_c, 9, 37, 0
6, 68204, Note_on_c, 9, 40, 0
6, 68204, Note_on_c, 9, 42, 0
6, 68208, Note_on_c, 9, 42, 61
6, 68252, Note_on_c, 9, 42, 0
6, 68256, Note_on_c, 9, 42, 61
6, 68256, Note_on_c, 9, 37, 127
6, 68300, Note_on_c, 9, 37, 0
6, 68300, Note_on_c, 9, 42, 0
6, 68304, Note_on_c, 9, 42, 61
6, 68348, Note_on_c, 9, 42, 0
6, 68352, Note_on_c, 9, 42, 61
6, 68396, Note_on_c, 9, 42, 0
6, 68400, Note_on_c, 9, 42, 61
6, 68444, Note_on_c, 9, 42, 0
6, 68448, Note_on_c, 9, 42, 63
6, 68492, Note_on_c, 9, 42, 0
6, 68496, Note_on_c, 9, 42, 63
6, 68540, Note_on_c, 9, 42, 0
6, 68544, Note_on_c, 9, 42, 63
6, 68544, Note_on_c, 9, 40, 127
6, 68544, Note_on_c, 9, 37, 101
6, 68588, Note_on_c, 9, 37, 0
6, 68588, Note_on_c, 9, 40, 0
6, 68588, Note_on_c, 9, 42, 0
6, 68592, Note_on_c, 9, 42, 63
6, 68636, Note_on_c, 9, 42, 0
6, 68640, Note_on_c, 9, 42, 61
6, 68684, Note_on_c, 9, 42, 0
6, 68688, Note_on_c, 9, 42, 63
6, 68732, Note_on_c, 9, 42, 0
6, 68736, Note_on_c, 9, 42, 64
6, 68780, Note_on_c, 9, 42, 0
6, 68784, Note_on_c, 9, 42, 64
6, 68828, Note_on_c, 9, 42, 0
6, 68832, Note_on_c, 9, 42, 63
6, 68876, Note_on_c, 9, 42, 0
6, 68880, Note_on_c, 9, 42, 64
6, 68924, Note_on_c, 9, 42, 0
6, 68928, Note_on_c, 9, 42, 63
6, 68928, Note_on_c, 9, 40, 127
6, 68928, Note_on_c, 9, 37, 101
6, 68972, Note_on_c, 9, 37, 0
6, 68972, Note_on_c, 9, 40, 0
6, 68972, Note_on_c, 9, 42, 0
6, 68976, Note_on_c, 9, 42, 61
6, 69020, Note_on_c, 9, 42, 0
6, 69024, Note_on_c, 9, 42, 61
6, 69024, Note_on_c, 9, 37, 127
6, 69068, Note_on_c, 9, 37, 0
6, 69068, Note_on_c, 9, 42, 0
6, 69072, Note_on_c, 9, 42, 61
6, 69116, Note_on_c, 9, 42, 0
6, 69120, Note_on_c, 9, 42, 61
6, 69164, Note_on_c, 9, 42, 0
6, 69168, Note_on_c, 9, 42, 61
6, 69212, Note_on_c, 9, 42, 0
6, 69216, Note_on_c, 9, 42, 63
6, 69260, Note_on_c, 9, 42, 0
6, 69264, Note_on_c, 9, 42, 63
6, 69308, Note_on_c, 9, 42, 0
6, 69312, Note_on_c, 9, 42, 63
6, 69312, Note_on_c, 9, 40, 127
6, 69312, Note_on_c, 9, 37, 101
6, 69356, Note_on_c, 9, 37, 0
6, 69356, Note_on_c, 9, 40, 0
6, 69356, Note_on_c, 9, 42, 0
6, 69360, Note_on_c, 9, 42, 63
6, 69404, Note_on_c, 9, 42, 0
6, 69408, Note_on_c, 9, 42, 61
6, 69452, Note_on_c, 9, 42, 0
6, 69456, Note_on_c, 9, 42, 63
6, 69500, Note_on_c, 9, 42, 0
6, 69504, Note_on_c, 9, 42, 64
6, 69548, Note_on_c, 9, 42, 0
6, 69552, Note_on_c, 9, 42, 64
6, 69596, Note_on_c, 9, 42, 0
6, 69600, Note_on_c, 9, 42, 63
6, 69644, Note_on_c, 9, 42, 0
6, 69648, Note_on_c, 9, 42, 64
6, 69692, Note_on_c, 9, 42, 0
6, 69696, Note_on_c, 9, 42, 63
6, 69696, Note_on_c, 9, 40, 127
6, 69696, Note_on_c, 9, 37, 101
6, 69740, Note_on_c, 9, 37, 0
6, 69740, Note_on_c, 9, 40, 0
6, 69740, Note_on_c, 9, 42, 0
6, 69744, Note_on_c, 9, 42, 61
6, 69788, Note_on_c, 9, 42, 0
6, 69792, Note_on_c, 9, 42, 61
6, 69792, Note_on_c, 9, 37, 127
6, 69836, Note_on_c, 9, 37, 0
6, 69836, Note_on_c, 9, 42, 0
6, 69840, Note_on_c, 9, 42, 61
6, 69884, Note_on_c, 9, 42, 0
6, 69888, Note_on_c, 9, 42, 61
6, 69932, Note_on_c, 9, 42, 0
6, 69936, Note_on_c, 9, 42, 61
6, 69980, Note_on_c, 9, 42, 0
6, 69984, Note_on_c, 9, 42, 63
6, 70028, Note_on_c, 9, 42, 0
6, 70032, Note_on_c, 9, 42, 63
6, 70076, Note_on_c, 9, 42, 0
6, 70080, Note_on_c, 9, 42, 63
6, 70080, Note_on_c, 9, 40, 127
6, 70080, Note_on_c, 9, 37, 101
6, 70124, Note_on_c, 9, 37, 0
6, 70124, Note_on_c, 9, 40, 0
6, 70124, Note_on_c, 9, 42, 0
6, 70128, Note_on_c, 9, 42, 63
6, 70172, Note_on_c, 9, 42, 0
6, 70176, Note_on_c, 9, 42, 61
6, 70220, Note_on_c, 9, 42, 0
6, 70224, Note_on_c, 9, 42, 63
6, 70268, Note_on_c, 9, 42, 0
6, 70272, Note_on_c, 9, 42, 64
6, 70316, Note_on_c, 9, 42, 0
6, 70320, Note_on_c, 9, 42, 64
6, 70364, Note_on_c, 9, 42, 0
6, 70368, Note_on_c, 9, 42, 63
6, 70412, Note_on_c, 9, 42, 0
6, 70416, Note_on_c, 9, 42, 64
6, 70460, Note_on_c, 9, 42, 0
6, 70464, Note_on_c, 9, 42, 63
6, 70464, Note_on_c, 9, 40, 127
6, 70464, Note_on_c, 9, 37, 101
6, 70508, Note_on_c, 9, 37, 0
6, 70508, Note_on_c, 9, 40, 0
6, 70508, Note_on_c, 9, 42, 0
6, 70512, Note_on_c, 9, 42, 61
6, 70556, Note_on_c, 9, 42, 0
6, 70560, Note_on_c, 9, 42, 61
6, 70560, Note_on_c, 9, 37, 127
6, 70604, Note_on_c, 9, 37, 0
6, 70604, Note_on_c, 9, 42, 0
6, 70608, Note_on_c, 9, 42, 61
6, 70652, Note_on_c, 9, 42, 0
6, 70656, Note_on_c, 9, 42, 61
6, 70700, Note_on_c, 9, 42, 0
6, 70704, Note_on_c, 9, 42, 61
6, 70748, Note_on_c, 9, 42, 0
6, 70752, Note_on_c, 9, 42, 63
6, 70796, Note_on_c, 9, 42, 0
6, 70800, Note_on_c, 9, 42, 63
6, 70844, Note_on_c, 9, 42, 0
6, 70848, Note_on_c, 9, 42, 63
6, 70848, Note_on_c, 9, 40, 127
6, 70848, Note_on_c, 9, 37, 101
6, 70892, Note_on_c, 9, 37, 0
6, 70892, Note_on_c, 9, 40, 0
6, 70892, Note_on_c, 9, 42, 0
6, 70896, Note_on_c, 9, 42, 63
6, 70940, Note_on_c, 9, 42, 0
6, 70944, Note_on_c, 9, 42, 61
6, 70988, Note_on_c, 9, 42, 0
6, 70992, Note_on_c, 9, 42, 63
6, 71036, Note_on_c, 9, 42, 0
6, 71040, Note_on_c, 9, 42, 64
6, 71084, Note_on_c, 9, 42, 0
6, 71088, Note_on_c, 9, 42, 64
6, 71132, Note_on_c, 9, 42, 0
6, 71136, Note_on_c, 9, 42, 63
6, 71180, Note_on_c, 9, 42, 0
6, 71184, Note_on_c, 9, 42, 64
6, 71228, Note_on_c, 9, 42, 0
6, 71232, Note_on_c, 9, 42, 63
6, 71232, Note_on_c, 9, 40, 127
6, 71232, Note_on_c, 9, 37, 101
6, 71276, Note_on_c, 9, 37, 0
6, 71276, Note_on_c, 9, 40, 0
6, 71276, Note_on_c, 9, 42, 0
6, 71280, Note_on_c, 9, 42, 61
6, 71324, Note_on_c, 9, 42, 0
6, 71328, Note_on_c, 9, 42, 61
6, 71328, Note_on_c, 9, 37, 127
6, 71372, Note_on_c, 9, 37, 0
6, 71372, Note_on_c, 9, 42, 0
6, 71376, Note_on_c, 9, 42, 61
6, 71420, Note_on_c, 9, 42, 0
6, 71424, Note_on_c, 9, 42, 61
6, 71468, Note_on_c, 9, 42, 0
6, 71472, Note_on_c, 9, 42, 61
6, 71516, Note_on_c, 9, 42, 0
6, 71520, Note_on_c, 9, 42, 63
6, 71564, Note_on_c, 9, 42, 0
6, 71568, Note_on_c, 9, 42, 63
6, 71612, Note_on_c, 9, 42, 0
6, 71616, Note_on_c, 9, 42, 63
6, 71616, Note_on_c, 9, 40, 127
6, 71616, Note_on_c, 9, 37, 101
6, 71660, Note_on_c, 9, 37, 0
6, 71660, Note_on_c, 9, 40, 0
6, 71660, Note_on_c, 9, 42, 0
6, 71664, Note_on_c, 9, 42, 63
6, 71708, Note_on_c, 9, 42, 0
6, 71712, Note_on_c, 9, 42, 61
6, 71756, Note_on_c, 9, 42, 0
6, 71760, Note_on_c, 9, 42, 63
6, 71804, Note_on_c, 9, 42, 0
6, 71808, Note_on_c, 9, 42, 64
6, 71852, Note_on_c, 9, 42, 0
6, 71856, Note_on_c, 9, 42, 64
6, 71900, Note_on_c, 9, 42, 0
6, 71904, Note_on_c, 9, 42, 63
6, 71948, Note_on_c, 9, 42, 0
6, 71952, Note_on_c, 9, 42, 64
6, 71996, Note_on_c, 9, 42, 0
6, 72000, Note_on_c, 9, 42, 63
6, 72000, Note_on_c, 9, 40, 127
6, 72000, Note_on_c, 9, 37, 101
6, 72044, Note_on_c, 9, 37, 0
6, 72044, Note_on_c, 9, 40, 0
6, 72044, Note_on_c, 9, 42, 0
6, 72048, Note_on_c, 9, 42, 61
6, 72092, Note_on_c, 9, 42, 0
6, 72096, Note_on_c, 9, 42, 61
6, 72096, Note_on_c, 9, 37, 127
6, 72140, Note_on_c, 9, 37, 0
6, 72140, Note_on_c, 9, 42, 0
6, 72144, Note_on_c, 9, 42, 61
6, 72188, Note_on_c, 9, 42, 0
6, 72192, Note_on_c, 9, 42, 61
6, 72236, Note_on_c, 9, 42, 0
6, 72240, Note_on_c, 9, 42, 61
6, 72284, Note_on_c, 9, 42, 0
6, 72288, Note_on_c, 9, 42, 63
6, 72332, Note_on_c, 9, 42, 0
6, 72336, Note_on_c, 9, 42, 63
6, 72380, Note_on_c, 9, 42, 0
6, 72384, Note_on_c, 9, 42, 63
6, 72428, Note_on_c, 9, 42, 0
6, 72432, Note_on_c, 9, 42, 63
6, 72476, Note_on_c, 9, 42, 0
6, 72480, Note_on_c, 9, 42, 61
6, 72524, Note_on_c, 9, 42, 0
6, 72528, Note_on_c, 9, 42, 63
6, 72572, Note_on_c, 9, 42, 0
6, 72576, Note_on_c, 9, 42, 64
6, 72620, Note_on_c, 9, 42, 0
6, 72624, Note_on_c, 9, 42, 64
6, 72668, Note_on_c, 9, 42, 0
6, 72672, Note_on_c, 9, 42, 63
6, 72716, Note_on_c, 9, 42, 0
6, 72720, Note_on_c, 9, 42, 64
6, 72764, Note_on_c, 9, 42, 0
6, 72768, Note_on_c, 9, 42, 63
6, 72812, Note_on_c, 9, 42, 0
6, 72816, Note_on_c, 9, 42, 61
6, 72860, Note_on_c, 9, 42, 0
6, 72864, Note_on_c, 9, 42, 61
6, 72908, Note_on_c, 9, 42, 0
6, 72912, Note_on_c, 9, 42, 61
6, 72956, Note_on_c, 9, 42, 0
6, 72960, Note_on_c, 9, 42, 61
6, 73004, Note_on_c, 9, 42, 0
6, 73008, Note_on_c, 9, 42, 61
6, 73052, Note_on_c, 9, 42, 0
6, 73056, Note_on_c, 9, 42, 63
6, 73100, Note_on_c, 9, 42, 0
6, 73104, Note_on_c, 9, 42, 63
6, 73148, Note_on_c, 9, 42, 0
6, 73152, Note_on_c, 9, 42, 63
6, 73196, Note_on_c, 9, 42, 0
6, 73200, Note_on_c, 9, 42, 63
6, 73244, Note_on_c, 9, 42, 0
6, 73248, Note_on_c, 9, 42, 61
6, 73292, Note_on_c, 9, 42, 0
6, 73296, Note_on_c, 9, 42, 63
6, 73340, Note_on_c, 9, 42, 0
6, 73344, Note_on_c, 9, 42, 64
6, 73388, Note_on_c, 9, 42, 0
6, 73392, Note_on_c, 9, 42, 64
6, 73436, Note_on_c, 9, 42, 0
6, 73440, Note_on_c, 9, 42, 63
6, 73484, Note_on_c, 9, 42, 0
6, 73488, Note_on_c, 9, 42, 64
6, 73532, Note_on_c, 9, 42, 0
6, 73536, Note_on_c, 9, 42, 63
6, 73580, Note_on_c, 9, 42, 0
6, 73584, Note_on_c, 9, 42, 61
6, 73628, Note_on_c, 9, 42, 0
6, 73632, Note_on_c, 9, 42, 61
6, 73676, Note_on_c, 9, 42, 0
6, 73680, Note_on_c, 9, 42, 61
6, 73724, Note_on_c, 9, 42, 0
6, 76795, Control_c, 9, 101, 0
6, 76796, Control_c, 9, 100, 0
6, 76797, Control_c, 9, 6, 12
6, 76798, Control_c, 9, 38, 0
6, 76800, Control_c, 9, 10, 64
6, 76800, Control_c, 9, 11, 127
6, 76800, Pitch_bend_c, 9, 8192
6, 76800, Program_c, 9, 24
6, 76800, Control_c, 9, 101, 0
6, 76801, Control_c, 9, 100, 0
6, 76802, Control_c, 9, 6, 12
6, 76803, Control_c, 9, 38, 0
6, 76803, Control_c, 9, 10, 64
6, 76803, Control_c, 9, 11, 127
6, 76803, Control_c, 9, 101, 0
6, 76804, Control_c, 9, 100, 0
6, 76805, Control_c, 9, 6, 12
6, 76806, Control_c, 9, 38, 0
6, 76806, Control_c, 9, 10, 64
6, 76806, Control_c, 9, 11, 127
6, 76806, Pitch_bend_c, 9, 8192
6, 76806, Program_c, 9, 24
6, 76806, End_track
7, 0, Start_track
7, 0, Channel_prefix, 9
7, 0, Title_t, "FPC (MIDI)"
7, 0, Program_c, 9, 24
7, 0, Control_c, 9, 7, 125
7, 0, Control_c, 9, 10, 64
7, 0, Control_c, 9, 91, 90
7, 0, Control_c, 9, 93, 54
7, 0, Control_c, 9, 11, 127
7, 0, Control_c, 9, 101, 0
7, 1, Control_c, 9, 100, 0
7, 2, Control_c, 9, 6, 12
7, 3, Control_c, 9, 38, 0
7, 3, Control_c, 9, 10, 64
7, 3, Control_c, 9, 11, 127
7, 3, Control_c, 9, 101, 0
7, 4, Control_c, 9, 100, 0
7, 5, Control_c, 9, 6, 12
7, 6, Control_c, 9, 38, 0
7, 6, Control_c, 9, 10, 64
7, 6, Control_c, 9, 11, 127
7, 6, Control_c, 9, 10, 64
7, 6, Control_c, 9, 11, 127
7, 6, Control_c, 9, 101, 0
7, 7, Control_c, 9, 100, 0
7, 8, Control_c, 9, 6, 12
7, 9, Control_c, 9, 38, 0
7, 9, Control_c, 9, 10, 64
7, 9, Control_c, 9, 11, 127
7, 9, Control_c, 9, 10, 64
7, 9, Control_c, 9, 11, 127
7, 9, Pitch_bend_c, 9, 8192
7, 39936, Note_on_c, 9, 36, 127
7, 39980, Note_on_c, 9, 36, 0
7, 40128, Note_on_c, 9, 36, 127
7, 40172, Note_on_c, 9, 36, 0
7, 40320, Note_on_c, 9, 36, 127
7, 40364, Note_on_c, 9, 36, 0
7, 40512, Note_on_c, 9, 36, 127
7, 40556, Note_on_c, 9, 36, 0
7, 40704, Note_on_c, 9, 36, 127
7, 40748, Note_on_c, 9, 36, 0
7, 40896, Note_on_c, 9, 36, 127
7, 40940, Note_on_c, 9, 36, 0
7, 41088, Note_on_c, 9, 36, 127
7, 41132, Note_on_c, 9, 36, 0
7, 41280, Note_on_c, 9, 36, 127
7, 41324, Note_on_c, 9, 36, 0
7, 41472, Note_on_c, 9, 36, 127
7, 41516, Note_on_c, 9, 36, 0
7, 41664, Note_on_c, 9, 36, 127
7, 41708, Note_on_c, 9, 36, 0
7, 41856, Note_on_c, 9, 36, 127
7, 41900, Note_on_c, 9, 36, 0
7, 42048, Note_on_c, 9, 36, 127
7, 42092, Note_on_c, 9, 36, 0
7, 42240, Note_on_c, 9, 36, 127
7, 42284, Note_on_c, 9, 36, 0
7, 42432, Note_on_c, 9, 36, 127
7, 42476, Note_on_c, 9, 36, 0
7, 42624, Note_on_c, 9, 36, 127
7, 42668, Note_on_c, 9, 36, 0
7, 42816, Note_on_c, 9, 36, 127
7, 42860, Note_on_c, 9, 36, 0
7, 43008, Note_on_c, 9, 36, 127
7, 43052, Note_on_c, 9, 36, 0
7, 43200, Note_on_c, 9, 36, 127
7, 43244, Note_on_c, 9, 36, 0
7, 43392, Note_on_c, 9, 36, 127
7, 43436, Note_on_c, 9, 36, 0
7, 43584, Note_on_c, 9, 36, 127
7, 43628, Note_on_c, 9, 36, 0
7, 43776, Note_on_c, 9, 36, 127
7, 43820, Note_on_c, 9, 36, 0
7, 43968, Note_on_c, 9, 36, 127
7, 44012, Note_on_c, 9, 36, 0
7, 44160, Note_on_c, 9, 36, 127
7, 44204, Note_on_c, 9, 36, 0
7, 44352, Note_on_c, 9, 36, 127
7, 44396, Note_on_c, 9, 36, 0
7, 44544, Note_on_c, 9, 36, 127
7, 44588, Note_on_c, 9, 36, 0
7, 44736, Note_on_c, 9, 36, 127
7, 44780, Note_on_c, 9, 36, 0
7, 44928, Note_on_c, 9, 36, 127
7, 44972, Note_on_c, 9, 36, 0
7, 45120, Note_on_c, 9, 36, 127
7, 45164, Note_on_c, 9, 36, 0
7, 45312, Note_on_c, 9, 36, 127
7, 45356, Note_on_c, 9, 36, 0
7, 45504, Note_on_c, 9, 36, 127
7, 45548, Note_on_c, 9, 36, 0
7, 45696, Note_on_c, 9, 36, 127
7, 45740, Note_on_c, 9, 36, 0
7, 45888, Note_on_c, 9, 36, 127
7, 45932, Note_on_c, 9, 36, 0
7, 46080, Note_on_c, 9, 36, 127
7, 46124, Note_on_c, 9, 36, 0
7, 46272, Note_on_c, 9, 36, 127
7, 46316, Note_on_c, 9, 36, 0
7, 46464, Note_on_c, 9, 36, 127
7, 46508, Note_on_c, 9, 36, 0
7, 46656, Note_on_c, 9, 36, 127
7, 46700, Note_on_c, 9, 36, 0
7, 46848, Note_on_c, 9, 36, 127
7, 46892, Note_on_c, 9, 36, 0
7, 47040, Note_on_c, 9, 36, 127
7, 47084, Note_on_c, 9, 36, 0
7, 47232, Note_on_c, 9, 36, 127
7, 47276, Note_on_c, 9, 36, 0
7, 47424, Note_on_c, 9, 36, 127
7, 47468, Note_on_c, 9, 36, 0
7, 47616, Note_on_c, 9, 36, 127
7, 47660, Note_on_c, 9, 36, 0
7, 47808, Note_on_c, 9, 36, 127
7, 47852, Note_on_c, 9, 36, 0
7, 48000, Note_on_c, 9, 36, 127
7, 48044, Note_on_c, 9, 36, 0
7, 48192, Note_on_c, 9, 36, 127
7, 48236, Note_on_c, 9, 36, 0
7, 48384, Note_on_c, 9, 36, 127
7, 48428, Note_on_c, 9, 36, 0
7, 48576, Note_on_c, 9, 36, 127
7, 48620, Note_on_c, 9, 36, 0
7, 48768, Note_on_c, 9, 36, 127
7, 48812, Note_on_c, 9, 36, 0
7, 48960, Note_on_c, 9, 36, 127
7, 49004, Note_on_c, 9, 36, 0
7, 49152, Note_on_c, 9, 36, 127
7, 49196, Note_on_c, 9, 36, 0
7, 49344, Note_on_c, 9, 36, 127
7, 49388, Note_on_c, 9, 36, 0
7, 49536, Note_on_c, 9, 36, 127
7, 49580, Note_on_c, 9, 36, 0
7, 49728, Note_on_c, 9, 36, 127
7, 49772, Note_on_c, 9, 36, 0
7, 49920, Note_on_c, 9, 36, 127
7, 49964, Note_on_c, 9, 36, 0
7, 50112, Note_on_c, 9, 36, 127
7, 50156, Note_on_c, 9, 36, 0
7, 50304, Note_on_c, 9, 36, 127
7, 50348, Note_on_c, 9, 36, 0
7, 50496, Note_on_c, 9, 36, 127
7, 50540, Note_on_c, 9, 36, 0
7, 50688, Note_on_c, 9, 36, 127
7, 50732, Note_on_c, 9, 36, 0
7, 50880, Note_on_c, 9, 36, 127
7, 50924, Note_on_c, 9, 36, 0
7, 51072, Note_on_c, 9, 36, 127
7, 51116, Note_on_c, 9, 36, 0
7, 51264, Note_on_c, 9, 36, 127
7, 51308, Note_on_c, 9, 36, 0
7, 51456, Note_on_c, 9, 36, 127
7, 51500, Note_on_c, 9, 36, 0
7, 51648, Note_on_c, 9, 36, 127
7, 51692, Note_on_c, 9, 36, 0
7, 51840, Note_on_c, 9, 36, 127
7, 51884, Note_on_c, 9, 36, 0
7, 52032, Note_on_c, 9, 36, 127
7, 52076, Note_on_c, 9, 36, 0
7, 58368, Note_on_c, 9, 36, 127
7, 58412, Note_on_c, 9, 36, 0
7, 58560, Note_on_c, 9, 36, 127
7, 58604, Note_on_c, 9, 36, 0
7, 58752, Note_on_c, 9, 36, 127
7, 58796, Note_on_c, 9, 36, 0
7, 58944, Note_on_c, 9, 36, 127
7, 58988, Note_on_c, 9, 36, 0
7, 59136, Note_on_c, 9, 36, 127
7, 59180, Note_on_c, 9, 36, 0
7, 59328, Note_on_c, 9, 36, 127
7, 59372, Note_on_c, 9, 36, 0
7, 59520, Note_on_c, 9, 36, 127
7, 59564, Note_on_c, 9, 36, 0
7, 59712, Note_on_c, 9, 36, 127
7, 59756, Note_on_c, 9, 36, 0
7, 59904, Note_on_c, 9, 36, 127
7, 59948, Note_on_c, 9, 36, 0
7, 60096, Note_on_c, 9, 36, 127
7, 60140, Note_on_c, 9, 36, 0
7, 60288, Note_on_c, 9, 36, 127
7, 60332, Note_on_c, 9, 36, 0
7, 60480, Note_on_c, 9, 36, 127
7, 60524, Note_on_c, 9, 36, 0
7, 60672, Note_on_c, 9, 36, 127
7, 60716, Note_on_c, 9, 36, 0
7, 60864, Note_on_c, 9, 36, 127
7, 60908, Note_on_c, 9, 36, 0
7, 61056, Note_on_c, 9, 36, 127
7, 61100, Note_on_c, 9, 36, 0
7, 61248, Note_on_c, 9, 36, 127
7, 61292, Note_on_c, 9, 36, 0
7, 61440, Note_on_c, 9, 36, 127
7, 61484, Note_on_c, 9, 36, 0
7, 61632, Note_on_c, 9, 36, 127
7, 61676, Note_on_c, 9, 36, 0
7, 61824, Note_on_c, 9, 36, 127
7, 61868, Note_on_c, 9, 36, 0
7, 62016, Note_on_c, 9, 36, 127
7, 62060, Note_on_c, 9, 36, 0
7, 62208, Note_on_c, 9, 36, 127
7, 62252, Note_on_c, 9, 36, 0
7, 62400, Note_on_c, 9, 36, 127
7, 62444, Note_on_c, 9, 36, 0
7, 62592, Note_on_c, 9, 36, 127
7, 62636, Note_on_c, 9, 36, 0
7, 62784, Note_on_c, 9, 36, 127
7, 62828, Note_on_c, 9, 36, 0
7, 62976, Note_on_c, 9, 36, 127
7, 63020, Note_on_c, 9, 36, 0
7, 63168, Note_on_c, 9, 36, 127
7, 63212, Note_on_c, 9, 36, 0
7, 63360, Note_on_c, 9, 36, 127
7, 63404, Note_on_c, 9, 36, 0
7, 63552, Note_on_c, 9, 36, 127
7, 63596, Note_on_c, 9, 36, 0
7, 63744, Note_on_c, 9, 36, 127
7, 63788, Note_on_c, 9, 36, 0
7, 63936, Note_on_c, 9, 36, 127
7, 63980, Note_on_c, 9, 36, 0
7, 64128, Note_on_c, 9, 36, 127
7, 64172, Note_on_c, 9, 36, 0
7, 64320, Note_on_c, 9, 36, 127
7, 64364, Note_on_c, 9, 36, 0
7, 64512, Note_on_c, 9, 36, 127
7, 64556, Note_on_c, 9, 36, 0
7, 64704, Note_on_c, 9, 36, 127
7, 64748, Note_on_c, 9, 36, 0
7, 64896, Note_on_c, 9, 36, 127
7, 64940, Note_on_c, 9, 36, 0
7, 65088, Note_on_c, 9, 36, 127
7, 65132, Note_on_c, 9, 36, 0
7, 65280, Note_on_c, 9, 36, 127
7, 65324, Note_on_c, 9, 36, 0
7, 65472, Note_on_c, 9, 36, 127
7, 65516, Note_on_c, 9, 36, 0
7, 65664, Note_on_c, 9, 36, 127
7, 65708, Note_on_c, 9, 36, 0
7, 65856, Note_on_c, 9, 36, 127
7, 65900, Note_on_c, 9, 36, 0
7, 66048, Note_on_c, 9, 36, 127
7, 66092, Note_on_c, 9, 36, 0
7, 66240, Note_on_c, 9, 36, 127
7, 66284, Note_on_c, 9, 36, 0
7, 66432, Note_on_c, 9, 36, 127
7, 66476, Note_on_c, 9, 36, 0
7, 66624, Note_on_c, 9, 36, 127
7, 66668, Note_on_c, 9, 36, 0
7, 66816, Note_on_c, 9, 36, 127
7, 66860, Note_on_c, 9, 36, 0
7, 67008, Note_on_c, 9, 36, 127
7, 67052, Note_on_c, 9, 36, 0
7, 67200, Note_on_c, 9, 36, 127
7, 67244, Note_on_c, 9, 36, 0
7, 67392, Note_on_c, 9, 36, 127
7, 67436, Note_on_c, 9, 36, 0
7, 67584, Note_on_c, 9, 36, 127
7, 67628, Note_on_c, 9, 36, 0
7, 67776, Note_on_c, 9, 36, 127
7, 67820, Note_on_c, 9, 36, 0
7, 67968, Note_on_c, 9, 36, 127
7, 68012, Note_on_c, 9, 36, 0
7, 68160, Note_on_c, 9, 36, 127
7, 68204, Note_on_c, 9, 36, 0
7, 68352, Note_on_c, 9, 36, 127
7, 68396, Note_on_c, 9, 36, 0
7, 68544, Note_on_c, 9, 36, 127
7, 68588, Note_on_c, 9, 36, 0
7, 68736, Note_on_c, 9, 36, 127
7, 68780, Note_on_c, 9, 36, 0
7, 68928, Note_on_c, 9, 36, 127
7, 68972, Note_on_c, 9, 36, 0
7, 69120, Note_on_c, 9, 36, 127
7, 69164, Note_on_c, 9, 36, 0
7, 69312, Note_on_c, 9, 36, 127
7, 69356, Note_on_c, 9, 36, 0
7, 69504, Note_on_c, 9, 36, 127
7, 69548, Note_on_c, 9, 36, 0
7, 69696, Note_on_c, 9, 36, 127
7, 69740, Note_on_c, 9, 36, 0
7, 69888, Note_on_c, 9, 36, 127
7, 69932, Note_on_c, 9, 36, 0
7, 70080, Note_on_c, 9, 36, 127
7, 70124, Note_on_c, 9, 36, 0
7, 70272, Note_on_c, 9, 36, 127
7, 70316, Note_on_c, 9, 36, 0
7, 70464, Note_on_c, 9, 36, 127
7, 70508, Note_on_c, 9, 36, 0
7, 76795, Control_c, 9, 101, 0
7, 76796, Control_c, 9, 100, 0
7, 76797, Control_c, 9, 6, 12
7, 76798, Control_c, 9, 38, 0
7, 76800, Control_c, 9, 10, 64
7, 76800, Control_c, 9, 11, 127
7, 76800, Pitch_bend_c, 9, 8192
7, 76800, Program_c, 9, 24
7, 76800, Control_c, 9, 101, 0
7, 76801, Control_c, 9, 100, 0
7, 76802, Control_c, 9, 6, 12
7, 76803, Control_c, 9, 38, 0
7, 76803, Control_c, 9, 10, 64
7, 76803, Control_c, 9, 11, 127
7, 76803, Control_c, 9, 101, 0
7, 76804, Control_c, 9, 100, 0
7, 76805, Control_c, 9, 6, 12
7, 76806, Control_c, 9, 38, 0
7, 76806, Control_c, 9, 10, 64
7, 76806, Control_c, 9, 11, 127
7, 76806, Pitch_bend_c, 9, 8192
7, 76806, Program_c, 9, 24
7, 76806, End_track
8, 0, Start_track
8, 0, Channel_prefix, 9
8, 0, Title_t, "FPC #3 (MI"
8, 0, Program_c, 9, 24
8, 0, Control_c, 9, 7, 127
8, 0, Control_c, 9, 10, 64
8, 0, Control_c, 9, 91, 90
8, 0, Control_c, 9, 93, 54
8, 0, Control_c, 9, 11, 127
8, 0, Control_c, 9, 101, 0
8, 1, Control_c, 9, 100, 0
8, 2, Control_c, 9, 6, 12
8, 3, Control_c, 9, 38, 0
8, 3, Control_c, 9, 10, 64
8, 3, Control_c, 9, 11, 127
8, 3, Control_c, 9, 101, 0
8, 4, Control_c, 9, 100, 0
8, 5, Control_c, 9, 6, 12
8, 6, Control_c, 9, 38, 0
8, 6, Control_c, 9, 10, 64
8, 6, Control_c, 9, 11, 127
8, 6, Control_c, 9, 10, 64
8, 6, Control_c, 9, 11, 127
8, 6, Control_c, 9, 101, 0
8, 7, Control_c, 9, 100, 0
8, 8, Control_c, 9, 6, 12
8, 9, Control_c, 9, 38, 0
8, 9, Control_c, 9, 10, 64
8, 9, Control_c, 9, 11, 127
8, 9, Control_c, 9, 10, 64
8, 9, Control_c, 9, 11, 127
8, 9, Pitch_bend_c, 9, 8192
8, 3072, Note_on_c, 9, 36, 127
8, 3116, Note_on_c, 9, 36, 0
8, 3264, Note_on_c, 9, 36, 127
8, 3308, Note_on_c, 9, 36, 0
8, 3456, Note_on_c, 9, 36, 127
8, 3500, Note_on_c, 9, 36, 0
8, 3648, Note_on_c, 9, 36, 127
8, 3692, Note_on_c, 9, 36, 0
8, 3840, Note_on_c, 9, 36, 127
8, 3884, Note_on_c, 9, 36, 0
8, 4032, Note_on_c, 9, 36, 127
8, 4076, Note_on_c, 9, 36, 0
8, 4224, Note_on_c, 9, 36, 127
8, 4268, Note_on_c, 9, 36, 0
8, 4416, Note_on_c, 9, 36, 127
8, 4460, Note_on_c, 9, 36, 0
8, 4608, Note_on_c, 9, 36, 127
8, 4652, Note_on_c, 9, 36, 0
8, 4800, Note_on_c, 9, 36, 127
8, 4844, Note_on_c, 9, 36, 0
8, 4992, Note_on_c, 9, 36, 127
8, 5036, Note_on_c, 9, 36, 0
8, 5184, Note_on_c, 9, 36, 127
8, 5228, Note_on_c, 9, 36, 0
8, 5376, Note_on_c, 9, 36, 127
8, 5420, Note_on_c, 9, 36, 0
8, 5568, Note_on_c, 9, 36, 127
8, 5612, Note_on_c, 9, 36, 0
8, 5760, Note_on_c, 9, 36, 127
8, 5804, Note_on_c, 9, 36, 0
8, 5952, Note_on_c, 9, 36, 127
8, 5996, Note_on_c, 9, 36, 0
8, 6144, Note_on_c, 9, 36, 127
8, 6188, Note_on_c, 9, 36, 0
8, 6336, Note_on_c, 9, 36, 127
8, 6380, Note_on_c, 9, 36, 0
8, 6528, Note_on_c, 9, 36, 127
8, 6572, Note_on_c, 9, 36, 0
8, 6720, Note_on_c, 9, 36, 127
8, 6764, Note_on_c, 9, 36, 0
8, 6912, Note_on_c, 9, 36, 127
8, 6956, Note_on_c, 9, 36, 0
8, 7104, Note_on_c, 9, 36, 127
8, 7148, Note_on_c, 9, 36, 0
8, 7296, Note_on_c, 9, 36, 127
8, 7340, Note_on_c, 9, 36, 0
8, 7488, Note_on_c, 9, 36, 127
8, 7532, Note_on_c, 9, 36, 0
8, 7680, Note_on_c, 9, 36, 127
8, 7724, Note_on_c, 9, 36, 0
8, 7872, Note_on_c, 9, 36, 127
8, 7916, Note_on_c, 9, 36, 0
8, 8064, Note_on_c, 9, 36, 127
8, 8108, Note_on_c, 9, 36, 0
8, 8256, Note_on_c, 9, 36, 127
8, 8300, Note_on_c, 9, 36, 0
8, 8448, Note_on_c, 9, 36, 127
8, 8492, Note_on_c, 9, 36, 0
8, 8640, Note_on_c, 9, 36, 127
8, 8684, Note_on_c, 9, 36, 0
8, 8832, Note_on_c, 9, 36, 127
8, 8876, Note_on_c, 9, 36, 0
8, 9024, Note_on_c, 9, 36, 127
8, 9068, Note_on_c, 9, 36, 0
8, 9216, Note_on_c, 9, 36, 127
8, 9260, Note_on_c, 9, 36, 0
8, 9408, Note_on_c, 9, 36, 127
8, 9452, Note_on_c, 9, 36, 0
8, 9600, Note_on_c, 9, 36, 127
8, 9644, Note_on_c, 9, 36, 0
8, 9792, Note_on_c, 9, 36, 127
8, 9836, Note_on_c, 9, 36, 0
8, 9984, Note_on_c, 9, 36, 127
8, 10028, Note_on_c, 9, 36, 0
8, 10176, Note_on_c, 9, 36, 127
8, 10220, Note_on_c, 9, 36, 0
8, 10368, Note_on_c, 9, 36, 127
8, 10412, Note_on_c, 9, 36, 0
8, 10560, Note_on_c, 9, 36, 127
8, 10604, Note_on_c, 9, 36, 0
8, 10752, Note_on_c, 9, 36, 127
8, 10796, Note_on_c, 9, 36, 0
8, 10944, Note_on_c, 9, 36, 127
8, 10988, Note_on_c, 9, 36, 0
8, 11136, Note_on_c, 9, 36, 127
8, 11180, Note_on_c, 9, 36, 0
8, 11328, Note_on_c, 9, 36, 127
8, 11372, Note_on_c, 9, 36, 0
8, 11520, Note_on_c, 9, 36, 127
8, 11564, Note_on_c, 9, 36, 0
8, 11712, Note_on_c, 9, 36, 127
8, 11756, Note_on_c, 9, 36, 0
8, 11904, Note_on_c, 9, 36, 127
8, 11948, Note_on_c, 9, 36, 0
8, 12096, Note_on_c, 9, 36, 127
8, 12140, Note_on_c, 9, 36, 0
8, 12288, Note_on_c, 9, 36, 127
8, 12332, Note_on_c, 9, 36, 0
8, 12480, Note_on_c, 9, 36, 127
8, 12524, Note_on_c, 9, 36, 0
8, 12672, Note_on_c, 9, 36, 127
8, 12716, Note_on_c, 9, 36, 0
8, 12864, Note_on_c, 9, 36, 127
8, 12908, Note_on_c, 9, 36, 0
8, 13056, Note_on_c, 9, 36, 127
8, 13100, Note_on_c, 9, 36, 0
8, 13248, Note_on_c, 9, 36, 127
8, 13292, Note_on_c, 9, 36, 0
8, 13440, Note_on_c, 9, 36, 127
8, 13484, Note_on_c, 9, 36, 0
8, 13632, Note_on_c, 9, 36, 127
8, 13676, Note_on_c, 9, 36, 0
8, 13824, Note_on_c, 9, 36, 127
8, 13868, Note_on_c, 9, 36, 0
8, 14016, Note_on_c, 9, 36, 127
8, 14060, Note_on_c, 9, 36, 0
8, 14208, Note_on_c, 9, 36, 127
8, 14252, Note_on_c, 9, 36, 0
8, 14400, Note_on_c, 9, 36, 127
8, 14444, Note_on_c, 9, 36, 0
8, 14592, Note_on_c, 9, 36, 127
8, 14636, Note_on_c, 9, 36, 0
8, 14784, Note_on_c, 9, 36, 127
8, 14828, Note_on_c, 9, 36, 0
8, 15360, Note_on_c, 9, 36, 127
8, 15404, Note_on_c, 9, 36, 0
8, 15552, Note_on_c, 9, 36, 127
8, 15596, Note_on_c, 9, 36, 0
8, 15744, Note_on_c, 9, 36, 127
8, 15788, Note_on_c, 9, 36, 0
8, 15936, Note_on_c, 9, 36, 127
8, 15980, Note_on_c, 9, 36, 0
8, 16128, Note_on_c, 9, 36, 127
8, 16172, Note_on_c, 9, 36, 0
8, 16320, Note_on_c, 9, 36, 127
8, 16364, Note_on_c, 9, 36, 0
8, 16512, Note_on_c, 9, 36, 127
8, 16556, Note_on_c, 9, 36, 0
8, 16704, Note_on_c, 9, 36, 127
8, 16748, Note_on_c, 9, 36, 0
8, 16896, Note_on_c, 9, 36, 127
8, 16940, Note_on_c, 9, 36, 0
8, 17088, Note_on_c, 9, 36, 127
8, 17132, Note_on_c, 9, 36, 0
8, 17280, Note_on_c, 9, 36, 127
8, 17324, Note_on_c, 9, 36, 0
8, 17472, Note_on_c, 9, 36, 127
8, 17516, Note_on_c, 9, 36, 0
8, 17664, Note_on_c, 9, 36, 127
8, 17708, Note_on_c, 9, 36, 0
8, 17856, Note_on_c, 9, 36, 127
8, 17900, Note_on_c, 9, 36, 0
8, 18048, Note_on_c, 9, 36, 127
8, 18092, Note_on_c, 9, 36, 0
8, 18240, Note_on_c, 9, 36, 127
8, 18284, Note_on_c, 9, 36, 0
8, 18432, Note_on_c, 9, 36, 127
8, 18476, Note_on_c, 9, 36, 0
8, 18624, Note_on_c, 9, 36, 127
8, 18668, Note_on_c, 9, 36, 0
8, 18816, Note_on_c, 9, 36, 127
8, 18860, Note_on_c, 9, 36, 0
8, 19008, Note_on_c, 9, 36, 127
8, 19052, Note_on_c, 9, 36, 0
8, 19200, Note_on_c, 9, 36, 127
8, 19244, Note_on_c, 9, 36, 0
8, 19392, Note_on_c, 9, 36, 127
8, 19436, Note_on_c, 9, 36, 0
8, 19584, Note_on_c, 9, 36, 127
8, 19628, Note_on_c, 9, 36, 0
8, 19776, Note_on_c, 9, 36, 127
8, 19820, Note_on_c, 9, 36, 0
8, 19968, Note_on_c, 9, 36, 127
8, 20012, Note_on_c, 9, 36, 0
8, 20160, Note_on_c, 9, 36, 127
8, 20204, Note_on_c, 9, 36, 0
8, 20352, Note_on_c, 9, 36, 127
8, 20396, Note_on_c, 9, 36, 0
8, 20544, Note_on_c, 9, 36, 127
8, 20588, Note_on_c, 9, 36, 0
8, 20736, Note_on_c, 9, 36, 127
8, 20780, Note_on_c, 9, 36, 0
8, 20928, Note_on_c, 9, 36, 127
8, 20972, Note_on_c, 9, 36, 0
8, 21120, Note_on_c, 9, 36, 127
8, 21164, Note_on_c, 9, 36, 0
8, 21312, Note_on_c, 9, 36, 127
8, 21356, Note_on_c, 9, 36, 0
8, 21504, Note_on_c, 9, 36, 127
8, 21548, Note_on_c, 9, 36, 0
8, 21696, Note_on_c, 9, 36, 127
8, 21740, Note_on_c, 9, 36, 0
8, 21888, Note_on_c, 9, 36, 127
8, 21932, Note_on_c, 9, 36, 0
8, 22080, Note_on_c, 9, 36, 127
8, 22124, Note_on_c, 9, 36, 0
8, 22272, Note_on_c, 9, 36, 127
8, 22316, Note_on_c, 9, 36, 0
8, 22464, Note_on_c, 9, 36, 127
8, 22508, Note_on_c, 9, 36, 0
8, 22656, Note_on_c, 9, 36, 127
8, 22700, Note_on_c, 9, 36, 0
8, 22848, Note_on_c, 9, 36, 127
8, 22892, Note_on_c, 9, 36, 0
8, 23040, Note_on_c, 9, 36, 127
8, 23084, Note_on_c, 9, 36, 0
8, 23232, Note_on_c, 9, 36, 127
8, 23276, Note_on_c, 9, 36, 0
8, 23424, Note_on_c, 9, 36, 127
8, 23468, Note_on_c, 9, 36, 0
8, 23616, Note_on_c, 9, 36, 127
8, 23660, Note_on_c, 9, 36, 0
8, 23808, Note_on_c, 9, 36, 127
8, 23852, Note_on_c, 9, 36, 0
8, 24000, Note_on_c, 9, 36, 127
8, 24044, Note_on_c, 9, 36, 0
8, 24192, Note_on_c, 9, 36, 127
8, 24236, Note_on_c, 9, 36, 0
8, 24384, Note_on_c, 9, 36, 127
8, 24428, Note_on_c, 9, 36, 0
8, 24576, Note_on_c, 9, 36, 127
8, 24620, Note_on_c, 9, 36, 0
8, 24768, Note_on_c, 9, 36, 127
8, 24812, Note_on_c, 9, 36, 0
8, 24960, Note_on_c, 9, 36, 127
8, 25004, Note_on_c, 9, 36, 0
8, 25152, Note_on_c, 9, 36, 127
8, 25196, Note_on_c, 9, 36, 0
8, 25344, Note_on_c, 9, 36, 127
8, 25388, Note_on_c, 9, 36, 0
8, 25536, Note_on_c, 9, 36, 127
8, 25580, Note_on_c, 9, 36, 0
8, 25728, Note_on_c, 9, 36, 127
8, 25772, Note_on_c, 9, 36, 0
8, 25920, Note_on_c, 9, 36, 127
8, 25964, Note_on_c, 9, 36, 0
8, 26112, Note_on_c, 9, 36, 127
8, 26156, Note_on_c, 9, 36, 0
8, 26304, Note_on_c, 9, 36, 127
8, 26348, Note_on_c, 9, 36, 0
8, 26496, Note_on_c, 9, 36, 127
8, 26540, Note_on_c, 9, 36, 0
8, 26688, Note_on_c, 9, 36, 127
8, 26732, Note_on_c, 9, 36, 0
8, 26880, Note_on_c, 9, 36, 127
8, 26924, Note_on_c, 9, 36, 0
8, 27072, Note_on_c, 9, 36, 127
8, 27116, Note_on_c, 9, 36, 0
8, 27264, Note_on_c, 9, 36, 127
8, 27308, Note_on_c, 9, 36, 0
8, 27456, Note_on_c, 9, 36, 127
8, 27500, Note_on_c, 9, 36, 0
8, 27648, Note_on_c, 9, 36, 127
8, 27692, Note_on_c, 9, 36, 0
8, 27840, Note_on_c, 9, 36, 127
8, 27884, Note_on_c, 9, 36, 0
8, 28032, Note_on_c, 9, 36, 127
8, 28076, Note_on_c, 9, 36, 0
8, 28224, Note_on_c, 9, 36, 127
8, 28268, Note_on_c, 9, 36, 0
8, 28416, Note_on_c, 9, 36, 127
8, 28460, Note_on_c, 9, 36, 0
8, 28608, Note_on_c, 9, 36, 127
8, 28652, Note_on_c, 9, 36, 0
8, 28800, Note_on_c, 9, 36, 127
8, 28844, Note_on_c, 9, 36, 0
8, 28992, Note_on_c, 9, 36, 127
8, 29036, Note_on_c, 9, 36, 0
8, 29184, Note_on_c, 9, 36, 127
8, 29228, Note_on_c, 9, 36, 0
8, 29376, Note_on_c, 9, 36, 127
8, 29420, Note_on_c, 9, 36, 0
8, 29568, Note_on_c, 9, 36, 127
8, 29612, Note_on_c, 9, 36, 0
8, 29760, Note_on_c, 9, 36, 127
8, 29804, Note_on_c, 9, 36, 0
8, 29952, Note_on_c, 9, 36, 127
8, 29996, Note_on_c, 9, 36, 0
8, 30144, Note_on_c, 9, 36, 127
8, 30188, Note_on_c, 9, 36, 0
8, 30336, Note_on_c, 9, 36, 127
8, 30380, Note_on_c, 9, 36, 0
8, 30528, Note_on_c, 9, 36, 127
8, 30572, Note_on_c, 9, 36, 0
8, 30720, Note_on_c, 9, 36, 127
8, 30764, Note_on_c, 9, 36, 0
8, 30912, Note_on_c, 9, 36, 127
8, 30956, Note_on_c, 9, 36, 0
8, 31104, Note_on_c, 9, 36, 127
8, 31148, Note_on_c, 9, 36, 0
8, 31296, Note_on_c, 9, 36, 127
8, 31340, Note_on_c, 9, 36, 0
8, 31488, Note_on_c, 9, 36, 127
8, 31532, Note_on_c, 9, 36, 0
8, 31680, Note_on_c, 9, 36, 127
8, 31724, Note_on_c, 9, 36, 0
8, 31872, Note_on_c, 9, 36, 127
8, 31916, Note_on_c, 9, 36, 0
8, 32064, Note_on_c, 9, 36, 127
8, 32108, Note_on_c, 9, 36, 0
8, 32256, Note_on_c, 9, 36, 127
8, 32300, Note_on_c, 9, 36, 0
8, 32448, Note_on_c, 9, 36, 127
8, 32492, Note_on_c, 9, 36, 0
8, 32640, Note_on_c, 9, 36, 127
8, 32684, Note_on_c, 9, 36, 0
8, 32832, Note_on_c, 9, 36, 127
8, 32876, Note_on_c, 9, 36, 0
8, 33024, Note_on_c, 9, 36, 127
8, 33068, Note_on_c, 9, 36, 0
8, 33216, Note_on_c, 9, 36, 127
8, 33260, Note_on_c, 9, 36, 0
8, 33408, Note_on_c, 9, 36, 127
8, 33452, Note_on_c, 9, 36, 0
8, 33600, Note_on_c, 9, 36, 127
8, 33644, Note_on_c, 9, 36, 0
8, 33792, Note_on_c, 9, 36, 127
8, 33836, Note_on_c, 9, 36, 0
8, 33984, Note_on_c, 9, 36, 127
8, 34028, Note_on_c, 9, 36, 0
8, 34176, Note_on_c, 9, 36, 127
8, 34220, Note_on_c, 9, 36, 0
8, 34368, Note_on_c, 9, 36, 127
8, 34412, Note_on_c, 9, 36, 0
8, 34560, Note_on_c, 9, 36, 127
8, 34604, Note_on_c, 9, 36, 0
8, 34752, Note_on_c, 9, 36, 127
8, 34796, Note_on_c, 9, 36, 0
8, 34944, Note_on_c, 9, 36, 127
8, 34988, Note_on_c, 9, 36, 0
8, 35136, Note_on_c, 9, 36, 127
8, 35180, Note_on_c, 9, 36, 0
8, 35328, Note_on_c, 9, 36, 127
8, 35372, Note_on_c, 9, 36, 0
8, 35520, Note_on_c, 9, 36, 127
8, 35564, Note_on_c, 9, 36, 0
8, 35712, Note_on_c, 9, 36, 127
8, 35756, Note_on_c, 9, 36, 0
8, 35904, Note_on_c, 9, 36, 127
8, 35948, Note_on_c, 9, 36, 0
8, 36096, Note_on_c, 9, 36, 127
8, 36140, Note_on_c, 9, 36, 0
8, 36288, Note_on_c, 9, 36, 127
8, 36332, Note_on_c, 9, 36, 0
8, 36480, Note_on_c, 9, 36, 127
8, 36524, Note_on_c, 9, 36, 0
8, 36672, Note_on_c, 9, 36, 127
8, 36716, Note_on_c, 9, 36, 0
8, 36864, Note_on_c, 9, 36, 127
8, 36908, Note_on_c, 9, 36, 0
8, 37056, Note_on_c, 9, 36, 127
8, 37100, Note_on_c, 9, 36, 0
8, 37248, Note_on_c, 9, 36, 127
8, 37292, Note_on_c, 9, 36, 0
8, 37440, Note_on_c, 9, 36, 127
8, 37484, Note_on_c, 9, 36, 0
8, 37632, Note_on_c, 9, 36, 127
8, 37676, Note_on_c, 9, 36, 0
8, 37824, Note_on_c, 9, 36, 127
8, 37868, Note_on_c, 9, 36, 0
8, 38016, Note_on_c, 9, 36, 127
8, 38060, Note_on_c, 9, 36, 0
8, 38208, Note_on_c, 9, 36, 127
8, 38252, Note_on_c, 9, 36, 0
8, 38400, Note_on_c, 9, 36, 127
8, 38444, Note_on_c, 9, 36, 0
8, 38592, Note_on_c, 9, 36, 127
8, 38636, Note_on_c, 9, 36, 0
8, 38784, Note_on_c, 9, 36, 127
8, 38828, Note_on_c, 9, 36, 0
8, 38976, Note_on_c, 9, 36, 127
8, 39020, Note_on_c, 9, 36, 0
8, 39168, Note_on_c, 9, 36, 127
8, 39212, Note_on_c, 9, 36, 0
8, 39360, Note_on_c, 9, 36, 127
8, 39404, Note_on_c, 9, 36, 0
8, 39936, Note_on_c, 9, 36, 127
8, 39980, Note_on_c, 9, 36, 0
8, 40128, Note_on_c, 9, 36, 127
8, 40172, Note_on_c, 9, 36, 0
8, 40320, Note_on_c, 9, 36, 127
8, 40364, Note_on_c, 9, 36, 0
8, 40512, Note_on_c, 9, 36, 127
8, 40556, Note_on_c, 9, 36, 0
8, 40704, Note_on_c, 9, 36, 127
8, 40748, Note_on_c, 9, 36, 0
8, 40896, Note_on_c, 9, 36, 127
8, 40940, Note_on_c, 9, 36, 0
8, 41088, Note_on_c, 9, 36, 127
8, 41132, Note_on_c, 9, 36, 0
8, 41280, Note_on_c, 9, 36, 127
8, 41324, Note_on_c, 9, 36, 0
8, 41472, Note_on_c, 9, 36, 127
8, 41516, Note_on_c, 9, 36, 0
8, 41664, Note_on_c, 9, 36, 127
8, 41708, Note_on_c, 9, 36, 0
8, 41856, Note_on_c, 9, 36, 127
8, 41900, Note_on_c, 9, 36, 0
8, 42048, Note_on_c, 9, 36, 127
8, 42092, Note_on_c, 9, 36, 0
8, 42240, Note_on_c, 9, 36, 127
8, 42284, Note_on_c, 9, 36, 0
8, 42432, Note_on_c, 9, 36, 127
8, 42476, Note_on_c, 9, 36, 0
8, 42624, Note_on_c, 9, 36, 127
8, 42668, Note_on_c, 9, 36, 0
8, 42816, Note_on_c, 9, 36, 127
8, 42860, Note_on_c, 9, 36, 0
8, 43008, Note_on_c, 9, 36, 127
8, 43052, Note_on_c, 9, 36, 0
8, 43200, Note_on_c, 9, 36, 127
8, 43244, Note_on_c, 9, 36, 0
8, 43392, Note_on_c, 9, 36, 127
8, 43436, Note_on_c, 9, 36, 0
8, 43584, Note_on_c, 9, 36, 127
8, 43628, Note_on_c, 9, 36, 0
8, 43776, Note_on_c, 9, 36, 127
8, 43820, Note_on_c, 9, 36, 0
8, 43968, Note_on_c, 9, 36, 127
8, 44012, Note_on_c, 9, 36, 0
8, 44160, Note_on_c, 9, 36, 127
8, 44204, Note_on_c, 9, 36, 0
8, 44352, Note_on_c, 9, 36, 127
8, 44396, Note_on_c, 9, 36, 0
8, 44544, Note_on_c, 9, 36, 127
8, 44588, Note_on_c, 9, 36, 0
8, 44736, Note_on_c, 9, 36, 127
8, 44780, Note_on_c, 9, 36, 0
8, 44928, Note_on_c, 9, 36, 127
8, 44972, Note_on_c, 9, 36, 0
8, 45120, Note_on_c, 9, 36, 127
8, 45164, Note_on_c, 9, 36, 0
8, 45312, Note_on_c, 9, 36, 127
8, 45356, Note_on_c, 9, 36, 0
8, 45504, Note_on_c, 9, 36, 127
8, 45548, Note_on_c, 9, 36, 0
8, 45696, Note_on_c, 9, 36, 127
8, 45740, Note_on_c, 9, 36, 0
8, 45888, Note_on_c, 9, 36, 127
8, 45932, Note_on_c, 9, 36, 0
8, 46080, Note_on_c, 9, 36, 127
8, 46124, Note_on_c, 9, 36, 0
8, 46272, Note_on_c, 9, 36, 127
8, 46316, Note_on_c, 9, 36, 0
8, 46464, Note_on_c, 9, 36, 127
8, 46508, Note_on_c, 9, 36, 0
8, 46656, Note_on_c, 9, 36, 127
8, 46700, Note_on_c, 9, 36, 0
8, 46848, Note_on_c, 9, 36, 127
8, 46892, Note_on_c, 9, 36, 0
8, 47040, Note_on_c, 9, 36, 127
8, 47084, Note_on_c, 9, 36, 0
8, 47232, Note_on_c, 9, 36, 127
8, 47276, Note_on_c, 9, 36, 0
8, 47424, Note_on_c, 9, 36, 127
8, 47468, Note_on_c, 9, 36, 0
8, 47616, Note_on_c, 9, 36, 127
8, 47660, Note_on_c, 9, 36, 0
8, 47808, Note_on_c, 9, 36, 127
8, 47852, Note_on_c, 9, 36, 0
8, 48000, Note_on_c, 9, 36, 127
8, 48044, Note_on_c, 9, 36, 0
8, 48192, Note_on_c, 9, 36, 127
8, 48236, Note_on_c, 9, 36, 0
8, 48384, Note_on_c, 9, 36, 127
8, 48428, Note_on_c, 9, 36, 0
8, 48576, Note_on_c, 9, 36, 127
8, 48620, Note_on_c, 9, 36, 0
8, 48768, Note_on_c, 9, 36, 127
8, 48812, Note_on_c, 9, 36, 0
8, 48960, Note_on_c, 9, 36, 127
8, 49004, Note_on_c, 9, 36, 0
8, 49152, Note_on_c, 9, 36, 127
8, 49196, Note_on_c, 9, 36, 0
8, 49344, Note_on_c, 9, 36, 127
8, 49388, Note_on_c, 9, 36, 0
8, 49536, Note_on_c, 9, 36, 127
8, 49580, Note_on_c, 9, 36, 0
8, 49728, Note_on_c, 9, 36, 127
8, 49772, Note_on_c, 9, 36, 0
8, 49920, Note_on_c, 9, 36, 127
8, 49964, Note_on_c, 9, 36, 0
8, 50112, Note_on_c, 9, 36, 127
8, 50156, Note_on_c, 9, 36, 0
8, 50304, Note_on_c, 9, 36, 127
8, 50348, Note_on_c, 9, 36, 0
8, 50496, Note_on_c, 9, 36, 127
8, 50540, Note_on_c, 9, 36, 0
8, 50688, Note_on_c, 9, 36, 127
8, 50732, Note_on_c, 9, 36, 0
8, 50880, Note_on_c, 9, 36, 127
8, 50924, Note_on_c, 9, 36, 0
8, 51072, Note_on_c, 9, 36, 127
8, 51116, Note_on_c, 9, 36, 0
8, 51264, Note_on_c, 9, 36, 127
8, 51308, Note_on_c, 9, 36, 0
8, 51456, Note_on_c, 9, 36, 127
8, 51500, Note_on_c, 9, 36, 0
8, 51648, Note_on_c, 9, 36, 127
8, 51692, Note_on_c, 9, 36, 0
8, 51840, Note_on_c, 9, 36, 127
8, 51884, Note_on_c, 9, 36, 0
8, 52032, Note_on_c, 9, 36, 127
8, 52076, Note_on_c, 9, 36, 0
8, 52224, Note_on_c, 9, 36, 127
8, 52268, Note_on_c, 9, 36, 0
8, 52416, Note_on_c, 9, 36, 127
8, 52460, Note_on_c, 9, 36, 0
8, 52608, Note_on_c, 9, 36, 127
8, 52652, Note_on_c, 9, 36, 0
8, 52800, Note_on_c, 9, 36, 127
8, 52844, Note_on_c, 9, 36, 0
8, 52992, Note_on_c, 9, 36, 127
8, 53036, Note_on_c, 9, 36, 0
8, 53184, Note_on_c, 9, 36, 127
8, 53228, Note_on_c, 9, 36, 0
8, 53376, Note_on_c, 9, 36, 127
8, 53420, Note_on_c, 9, 36, 0
8, 53568, Note_on_c, 9, 36, 127
8, 53612, Note_on_c, 9, 36, 0
8, 53760, Note_on_c, 9, 36, 127
8, 53804, Note_on_c, 9, 36, 0
8, 53952, Note_on_c, 9, 36, 127
8, 53996, Note_on_c, 9, 36, 0
8, 54144, Note_on_c, 9, 36, 127
8, 54188, Note_on_c, 9, 36, 0
8, 54336, Note_on_c, 9, 36, 127
8, 54380, Note_on_c, 9, 36, 0
8, 54528, Note_on_c, 9, 36, 127
8, 54572, Note_on_c, 9, 36, 0
8, 54720, Note_on_c, 9, 36, 127
8, 54764, Note_on_c, 9, 36, 0
8, 54912, Note_on_c, 9, 36, 127
8, 54956, Note_on_c, 9, 36, 0
8, 55104, Note_on_c, 9, 36, 127
8, 55148, Note_on_c, 9, 36, 0
8, 55296, Note_on_c, 9, 36, 127
8, 55340, Note_on_c, 9, 36, 0
8, 55488, Note_on_c, 9, 36, 127
8, 55532, Note_on_c, 9, 36, 0
8, 55680, Note_on_c, 9, 36, 127
8, 55724, Note_on_c, 9, 36, 0
8, 55872, Note_on_c, 9, 36, 127
8, 55916, Note_on_c, 9, 36, 0
8, 56064, Note_on_c, 9, 36, 127
8, 56108, Note_on_c, 9, 36, 0
8, 56256, Note_on_c, 9, 36, 127
8, 56300, Note_on_c, 9, 36, 0
8, 56448, Note_on_c, 9, 36, 127
8, 56492, Note_on_c, 9, 36, 0
8, 56640, Note_on_c, 9, 36, 127
8, 56684, Note_on_c, 9, 36, 0
8, 56832, Note_on_c, 9, 36, 127
8, 56876, Note_on_c, 9, 36, 0
8, 57024, Note_on_c, 9, 36, 127
8, 57068, Note_on_c, 9, 36, 0
8, 57216, Note_on_c, 9, 36, 127
8, 57260, Note_on_c, 9, 36, 0
8, 57408, Note_on_c, 9, 36, 127
8, 57452, Note_on_c, 9, 36, 0
8, 58368, Note_on_c, 9, 36, 127
8, 58412, Note_on_c, 9, 36, 0
8, 58560, Note_on_c, 9, 36, 127
8, 58604, Note_on_c, 9, 36, 0
8, 58752, Note_on_c, 9, 36, 127
8, 58796, Note_on_c, 9, 36, 0
8, 58944, Note_on_c, 9, 36, 127
8, 58988, Note_on_c, 9, 36, 0
8, 59136, Note_on_c, 9, 36, 127
8, 59180, Note_on_c, 9, 36, 0
8, 59328, Note_on_c, 9, 36, 127
8, 59372, Note_on_c, 9, 36, 0
8, 59520, Note_on_c, 9, 36, 127
8, 59564, Note_on_c, 9, 36, 0
8, 59712, Note_on_c, 9, 36, 127
8, 59756, Note_on_c, 9, 36, 0
8, 59904, Note_on_c, 9, 36, 127
8, 59948, Note_on_c, 9, 36, 0
8, 60096, Note_on_c, 9, 36, 127
8, 60140, Note_on_c, 9, 36, 0
8, 60288, Note_on_c, 9, 36, 127
8, 60332, Note_on_c, 9, 36, 0
8, 60480, Note_on_c, 9, 36, 127
8, 60524, Note_on_c, 9, 36, 0
8, 60672, Note_on_c, 9, 36, 127
8, 60716, Note_on_c, 9, 36, 0
8, 60864, Note_on_c, 9, 36, 127
8, 60908, Note_on_c, 9, 36, 0
8, 61056, Note_on_c, 9, 36, 127
8, 61100, Note_on_c, 9, 36, 0
8, 61248, Note_on_c, 9, 36, 127
8, 61292, Note_on_c, 9, 36, 0
8, 61440, Note_on_c, 9, 36, 127
8, 61484, Note_on_c, 9, 36, 0
8, 61632, Note_on_c, 9, 36, 127
8, 61676, Note_on_c, 9, 36, 0
8, 61824, Note_on_c, 9, 36, 127
8, 61868, Note_on_c, 9, 36, 0
8, 62016, Note_on_c, 9, 36, 127
8, 62060, Note_on_c, 9, 36, 0
8, 62208, Note_on_c, 9, 36, 127
8, 62252, Note_on_c, 9, 36, 0
8, 62400, Note_on_c, 9, 36, 127
8, 62444, Note_on_c, 9, 36, 0
8, 62592, Note_on_c, 9, 36, 127
8, 62636, Note_on_c, 9, 36, 0
8, 62784, Note_on_c, 9, 36, 127
8, 62828, Note_on_c, 9, 36, 0
8, 62976, Note_on_c, 9, 36, 127
8, 63020, Note_on_c, 9, 36, 0
8, 63168, Note_on_c, 9, 36, 127
8, 63212, Note_on_c, 9, 36, 0
8, 63360, Note_on_c, 9, 36, 127
8, 63404, Note_on_c, 9, 36, 0
8, 63552, Note_on_c, 9, 36, 127
8, 63596, Note_on_c, 9, 36, 0
8, 63744, Note_on_c, 9, 36, 127
8, 63788, Note_on_c, 9, 36, 0
8, 63936, Note_on_c, 9, 36, 127
8, 63980, Note_on_c, 9, 36, 0
8, 64128, Note_on_c, 9, 36, 127
8, 64172, Note_on_c, 9, 36, 0
8, 64320, Note_on_c, 9, 36, 127
8, 64364, Note_on_c, 9, 36, 0
8, 64512, Note_on_c, 9, 36, 127
8, 64556, Note_on_c, 9, 36, 0
8, 64704, Note_on_c, 9, 36, 127
8, 64748, Note_on_c, 9, 36, 0
8, 64896, Note_on_c, 9, 36, 127
8, 64940, Note_on_c, 9, 36, 0
8, 65088, Note_on_c, 9, 36, 127
8, 65132, Note_on_c, 9, 36, 0
8, 65280, Note_on_c, 9, 36, 127
8, 65324, Note_on_c, 9, 36, 0
8, 65472, Note_on_c, 9, 36, 127
8, 65516, Note_on_c, 9, 36, 0
8, 65664, Note_on_c, 9, 36, 127
8, 65708, Note_on_c, 9, 36, 0
8, 65856, Note_on_c, 9, 36, 127
8, 65900, Note_on_c, 9, 36, 0
8, 66048, Note_on_c, 9, 36, 127
8, 66092, Note_on_c, 9, 36, 0
8, 66240, Note_on_c, 9, 36, 127
8, 66284, Note_on_c, 9, 36, 0
8, 66432, Note_on_c, 9, 36, 127
8, 66476, Note_on_c, 9, 36, 0
8, 66624, Note_on_c, 9, 36, 127
8, 66668, Note_on_c, 9, 36, 0
8, 66816, Note_on_c, 9, 36, 127
8, 66860, Note_on_c, 9, 36, 0
8, 67008, Note_on_c, 9, 36, 127
8, 67052, Note_on_c, 9, 36, 0
8, 67200, Note_on_c, 9, 36, 127
8, 67244, Note_on_c, 9, 36, 0
8, 67392, Note_on_c, 9, 36, 127
8, 67436, Note_on_c, 9, 36, 0
8, 67584, Note_on_c, 9, 36, 127
8, 67628, Note_on_c, 9, 36, 0
8, 67776, Note_on_c, 9, 36, 127
8, 67820, Note_on_c, 9, 36, 0
8, 67968, Note_on_c, 9, 36, 127
8, 68012, Note_on_c, 9, 36, 0
8, 68160, Note_on_c, 9, 36, 127
8, 68204, Note_on_c, 9, 36, 0
8, 68352, Note_on_c, 9, 36, 127
8, 68396, Note_on_c, 9, 36, 0
8, 68544, Note_on_c, 9, 36, 127
8, 68588, Note_on_c, 9, 36, 0
8, 68736, Note_on_c, 9, 36, 127
8, 68780, Note_on_c, 9, 36, 0
8, 68928, Note_on_c, 9, 36, 127
8, 68972, Note_on_c, 9, 36, 0
8, 69120, Note_on_c, 9, 36, 127
8, 69164, Note_on_c, 9, 36, 0
8, 69312, Note_on_c, 9, 36, 127
8, 69356, Note_on_c, 9, 36, 0
8, 69504, Note_on_c, 9, 36, 127
8, 69548, Note_on_c, 9, 36, 0
8, 69696, Note_on_c, 9, 36, 127
8, 69740, Note_on_c, 9, 36, 0
8, 69888, Note_on_c, 9, 36, 127
8, 69932, Note_on_c, 9, 36, 0
8, 70080, Note_on_c, 9, 36, 127
8, 70124, Note_on_c, 9, 36, 0
8, 70272, Note_on_c, 9, 36, 127
8, 70316, Note_on_c, 9, 36, 0
8, 70464, Note_on_c, 9, 36, 127
8, 70508, Note_on_c, 9, 36, 0
8, 70656, Note_on_c, 9, 36, 127
8, 70700, Note_on_c, 9, 36, 0
8, 70848, Note_on_c, 9, 36, 127
8, 70892, Note_on_c, 9, 36, 0
8, 71040, Note_on_c, 9, 36, 127
8, 71084, Note_on_c, 9, 36, 0
8, 71232, Note_on_c, 9, 36, 127
8, 71276, Note_on_c, 9, 36, 0
8, 71424, Note_on_c, 9, 36, 127
8, 71468, Note_on_c, 9, 36, 0
8, 71616, Note_on_c, 9, 36, 127
8, 71660, Note_on_c, 9, 36, 0
8, 71808, Note_on_c, 9, 36, 127
8, 71852, Note_on_c, 9, 36, 0
8, 72000, Note_on_c, 9, 36, 127
8, 72044, Note_on_c, 9, 36, 0
8, 72192, Note_on_c, 9, 36, 127
8, 72236, Note_on_c, 9, 36, 0
8, 72384, Note_on_c, 9, 36, 127
8, 72428, Note_on_c, 9, 36, 0
8, 72576, Note_on_c, 9, 36, 127
8, 72620, Note_on_c, 9, 36, 0
8, 72768, Note_on_c, 9, 36, 127
8, 72812, Note_on_c, 9, 36, 0
8, 72960, Note_on_c, 9, 36, 127
8, 73004, Note_on_c, 9, 36, 0
8, 73152, Note_on_c, 9, 36, 127
8, 73196, Note_on_c, 9, 36, 0
8, 73344, Note_on_c, 9, 36, 127
8, 73388, Note_on_c, 9, 36, 0
8, 73536, Note_on_c, 9, 36, 127
8, 73580, Note_on_c, 9, 36, 0
8, 73728, Note_on_c, 9, 36, 127
8, 73772, Note_on_c, 9, 36, 0
8, 73920, Note_on_c, 9, 36, 127
8, 73964, Note_on_c, 9, 36, 0
8, 74112, Note_on_c, 9, 36, 127
8, 74156, Note_on_c, 9, 36, 0
8, 74304, Note_on_c, 9, 36, 127
8, 74348, Note_on_c, 9, 36, 0
8, 74496, Note_on_c, 9, 36, 127
8, 74540, Note_on_c, 9, 36, 0
8, 74688, Note_on_c, 9, 36, 127
8, 74732, Note_on_c, 9, 36, 0
8, 74880, Note_on_c, 9, 36, 127
8, 74924, Note_on_c, 9, 36, 0
8, 75072, Note_on_c, 9, 36, 127
8, 75116, Note_on_c, 9, 36, 0
8, 76795, Control_c, 9, 101, 0
8, 76796, Control_c, 9, 100, 0
8, 76797, Control_c, 9, 6, 12
8, 76798, Control_c, 9, 38, 0
8, 76800, Control_c, 9, 10, 64
8, 76800, Control_c, 9, 11, 127
8, 76800, Pitch_bend_c, 9, 8192
8, 76800, Program_c, 9, 24
8, 76800, Control_c, 9, 101, 0
8, 76801, Control_c, 9, 100, 0
8, 76802, Control_c, 9, 6, 12
8, 76803, Control_c, 9, 38, 0
8, 76803, Control_c, 9, 10, 64
8, 76803, Control_c, 9, 11, 127
8, 76803, Control_c, 9, 101, 0
8, 76804, Control_c, 9, 100, 0
8, 76805, Control_c, 9, 6, 12
8, 76806, Control_c, 9, 38, 0
8, 76806, Control_c, 9, 10, 64
8, 76806, Control_c, 9, 11, 127
8, 76806, Pitch_bend_c, 9, 8192
8, 76806, Program_c, 9, 24
8, 76806, End_track
9, 0, Start_track
9, 0, Channel_prefix, 8
9, 0, Title_t, "Keys #2 (M"
9, 0, Program_c, 8, 0
9, 0, Control_c, 8, 7, 0
9, 0, Control_c, 8, 10, 64
9, 0, Control_c, 8, 101, 0
9, 1, Control_c, 8, 100, 0
9, 2, Control_c, 8, 6, 12
9, 3, Control_c, 8, 38, 0
9, 3, Control_c, 8, 10, 64
9, 3, Control_c, 8, 7, 100
9, 3, Control_c, 8, 101, 0
9, 4, Control_c, 8, 100, 0
9, 5, Control_c, 8, 6, 12
9, 6, Control_c, 8, 38, 0
9, 6, Control_c, 8, 10, 64
9, 6, Control_c, 8, 7, 100
9, 6, Control_c, 8, 10, 64
9, 6, Control_c, 8, 7, 100
9, 6, Control_c, 8, 101, 0
9, 7, Control_c, 8, 100, 0
9, 8, Control_c, 8, 6, 12
9, 9, Control_c, 8, 38, 0
9, 9, Control_c, 8, 10, 64
9, 9, Control_c, 8, 7, 100
9, 9, Control_c, 8, 10, 64
9, 9, Control_c, 8, 7, 100
9, 9, Pitch_bend_c, 8, 8192
9, 576, Note_on_c, 8, 68, 1
9, 576, Lyric_t, "/DJ GOT US FALL INLOVE AGAIN "
9, 768, Note_on_c, 8, 71, 1
9, 768, Lyric_t, "\\EDITED BY MOJACKO "
9, 960, Note_on_c, 8, 68, 0
9, 1152, Note_on_c, 8, 71, 0
9, 1152, Note_on_c, 8, 71, 1
9, 1152, Lyric_t, "/undagrwnd@yahoo.com "
9, 1536, Note_on_c, 8, 71, 0
9, 1536, Note_on_c, 8, 70, 1
9, 1536, Lyric_t, "\\USHER, "
9, 1728, Note_on_c, 8, 68, 1
9, 1728, Lyric_t, "YEAH "
9, 1920, Note_on_c, 8, 68, 0
9, 1920, Note_on_c, 8, 70, 0
9, 2112, Note_on_c, 8, 68, 1
9, 2112, Lyric_t, "MAN "
9, 2304, Note_on_c, 8, 68, 0
9, 3168, Note_on_c, 8, 73, 1
9, 3168, Lyric_t, "/SO "
9, 3260, Note_on_c, 8, 73, 0
9, 3264, Note_on_c, 8, 73, 1
9, 3264, Lyric_t, "WE "
9, 3356, Note_on_c, 8, 73, 0
9, 3360, Note_on_c, 8, 73, 1
9, 3360, Lyric_t, "BACK "
9, 3452, Note_on_c, 8, 73, 0
9, 3456, Note_on_c, 8, 73, 1
9, 3456, Lyric_t, "IN "
9, 3548, Note_on_c, 8, 73, 0
9, 3552, Note_on_c, 8, 71, 1
9, 3552, Lyric_t, "THE "
9, 3644, Note_on_c, 8, 71, 0
9, 3648, Note_on_c, 8, 71, 1
9, 3648, Lyric_t, "CLUB "
9, 3836, Note_on_c, 8, 71, 0
9, 3840, Note_on_c, 8, 71, 1
9, 3840, Lyric_t, "\\GET "
9, 3932, Note_on_c, 8, 71, 0
9, 3936, Note_on_c, 8, 71, 1
9, 3936, Lyric_t, "THAT "
9, 4028, Note_on_c, 8, 71, 0
9, 4032, Note_on_c, 8, 71, 1
9, 4032, Lyric_t, "BO"
9, 4124, Note_on_c, 8, 71, 0
9, 4128, Note_on_c, 8, 71, 1
9, 4128, Lyric_t, "DIES "
9, 4220, Note_on_c, 8, 71, 0
9, 4224, Note_on_c, 8, 71, 1
9, 4224, Lyric_t, "ROCK"
9, 4316, Note_on_c, 8, 71, 0
9, 4320, Note_on_c, 8, 73, 1
9, 4320, Lyric_t, "IN "
9, 4412, Note_on_c, 8, 73, 0
9, 4416, Note_on_c, 8, 69, 1
9, 4416, Lyric_t, "FROM "
9, 4604, Note_on_c, 8, 69, 0
9, 4608, Note_on_c, 8, 66, 1
9, 4608, Lyric_t, "/SIDE "
9, 4796, Note_on_c, 8, 66, 0
9, 4800, Note_on_c, 8, 69, 1
9, 4800, Lyric_t, "TO "
9, 4988, Note_on_c, 8, 69, 0
9, 4992, Note_on_c, 8, 73, 1
9, 4992, Lyric_t, "SIDE, "
9, 5276, Note_on_c, 8, 73, 0
9, 5280, Note_on_c, 8, 66, 1
9, 5280, Lyric_t, "SIDE "
9, 5468, Note_on_c, 8, 66, 0
9, 5472, Note_on_c, 8, 66, 1
9, 5472, Lyric_t, "TO "
9, 5564, Note_on_c, 8, 66, 0
9, 5568, Note_on_c, 8, 69, 1
9, 5568, Lyric_t, "SI"
9, 5756, Note_on_c, 8, 69, 0
9, 5760, Note_on_c, 8, 73, 1
9, 5760, Lyric_t, "DE "
9, 6236, Note_on_c, 8, 73, 0
9, 6240, Note_on_c, 8, 73, 1
9, 6240, Lyric_t, "\\SO "
9, 6332, Note_on_c, 8, 73, 0
9, 6336, Note_on_c, 8, 73, 1
9, 6336, Lyric_t, "GLAD "
9, 6428, Note_on_c, 8, 73, 0
9, 6432, Note_on_c, 8, 73, 1
9, 6432, Lyric_t, "THE "
9, 6524, Note_on_c, 8, 73, 0
9, 6528, Note_on_c, 8, 73, 1
9, 6528, Lyric_t, "WEEK "
9, 6620, Note_on_c, 8, 73, 0
9, 6624, Note_on_c, 8, 71, 1
9, 6624, Lyric_t, "IS "
9, 6716, Note_on_c, 8, 71, 0
9, 6720, Note_on_c, 8, 71, 1
9, 6720, Lyric_t, "DONE "
9, 6908, Note_on_c, 8, 71, 0
9, 6912, Note_on_c, 8, 71, 1
9, 6912, Lyric_t, "/I "
9, 7004, Note_on_c, 8, 71, 0
9, 7008, Note_on_c, 8, 71, 1
9, 7008, Lyric_t, "FEEL "
9, 7100, Note_on_c, 8, 71, 0
9, 7104, Note_on_c, 8, 71, 1
9, 7104, Lyric_t, "LIKE "
9, 7196, Note_on_c, 8, 71, 0
9, 7200, Note_on_c, 8, 71, 1
9, 7200, Lyric_t, "A "
9, 7292, Note_on_c, 8, 71, 0
9, 7296, Note_on_c, 8, 71, 1
9, 7296, Lyric_t, "ZOM"
9, 7388, Note_on_c, 8, 71, 0
9, 7392, Note_on_c, 8, 73, 1
9, 7392, Lyric_t, "BIE "
9, 7484, Note_on_c, 8, 73, 0
9, 7488, Note_on_c, 8, 69, 1
9, 7488, Lyric_t, "GONE "
9, 7676, Note_on_c, 8, 69, 0
9, 7680, Note_on_c, 8, 66, 1
9, 7680, Lyric_t, "\\BACK "
9, 7868, Note_on_c, 8, 66, 0
9, 7872, Note_on_c, 8, 69, 1
9, 7872, Lyric_t, "TO "
9, 8060, Note_on_c, 8, 69, 0
9, 8064, Note_on_c, 8, 73, 1
9, 8064, Lyric_t, "LIFE, "
9, 8348, Note_on_c, 8, 73, 0
9, 8352, Note_on_c, 8, 66, 1
9, 8352, Lyric_t, "BACK "
9, 8540, Note_on_c, 8, 66, 0
9, 8544, Note_on_c, 8, 66, 1
9, 8544, Lyric_t, "TO "
9, 8636, Note_on_c, 8, 66, 0
9, 8640, Note_on_c, 8, 69, 1
9, 8640, Lyric_t, "LI"
9, 8828, Note_on_c, 8, 69, 0
9, 8832, Note_on_c, 8, 73, 1
9, 8832, Lyric_t, "FE "
9, 9212, Note_on_c, 8, 73, 0
9, 9216, Note_on_c, 8, 73, 1
9, 9216, Lyric_t, "/HANDS "
9, 9500, Note_on_c, 8, 73, 0
9, 9504, Note_on_c, 8, 69, 1
9, 9504, Lyric_t, "UP! "
9, 9788, Note_on_c, 8, 69, 0
9, 9888, Note_on_c, 8, 69, 1
9, 9888, Lyric_t, "AND "
9, 9980, Note_on_c, 8, 69, 0
9, 9984, Note_on_c, 8, 71, 1
9, 9984, Lyric_t, "SU"
9, 10076, Note_on_c, 8, 71, 0
9, 10080, Note_on_c, 8, 71, 1
9, 10080, Lyric_t, "DEN"
9, 10172, Note_on_c, 8, 71, 0
9, 10176, Note_on_c, 8, 71, 1
9, 10176, Lyric_t, "LY "
9, 10268, Note_on_c, 8, 71, 0
9, 10272, Note_on_c, 8, 71, 1
9, 10272, Lyric_t, "\\WE "
9, 10364, Note_on_c, 8, 71, 0
9, 10368, Note_on_c, 8, 71, 1
9, 10368, Lyric_t, "ALL "
9, 10460, Note_on_c, 8, 71, 0
9, 10464, Note_on_c, 8, 71, 1
9, 10464, Lyric_t, "GOT "
9, 10556, Note_on_c, 8, 71, 0
9, 10560, Note_on_c, 8, 73, 1
9, 10560, Lyric_t, "OUR "
9, 10652, Note_on_c, 8, 73, 0
9, 10656, Note_on_c, 8, 74, 1
9, 10656, Lyric_t, "HA"
9, 10748, Note_on_c, 8, 74, 0
9, 10752, Note_on_c, 8, 73, 1
9, 10752, Lyric_t, "NDS "
9, 11036, Note_on_c, 8, 73, 0
9, 11040, Note_on_c, 8, 69, 1
9, 11040, Lyric_t, "UP "
9, 11324, Note_on_c, 8, 69, 0
9, 11424, Note_on_c, 8, 69, 1
9, 11424, Lyric_t, "/NO "
9, 11516, Note_on_c, 8, 69, 0
9, 11520, Note_on_c, 8, 71, 1
9, 11520, Lyric_t, "CON"
9, 11612, Note_on_c, 8, 71, 0
9, 11616, Note_on_c, 8, 71, 1
9, 11616, Lyric_t, "TROL "
9, 11708, Note_on_c, 8, 71, 0
9, 11712, Note_on_c, 8, 71, 1
9, 11712, Lyric_t, "OF "
9, 11804, Note_on_c, 8, 71, 0
9, 11808, Note_on_c, 8, 71, 1
9, 11808, Lyric_t, "MY "
9, 11900, Note_on_c, 8, 71, 0
9, 11904, Note_on_c, 8, 71, 1
9, 11904, Lyric_t, "BO"
9, 11996, Note_on_c, 8, 71, 0
9, 12000, Note_on_c, 8, 71, 1
9, 12000, Lyric_t, "DY "
9, 12092, Note_on_c, 8, 71, 0
9, 12096, Note_on_c, 8, 69, 1
9, 12096, Lyric_t, "AIN'T "
9, 12188, Note_on_c, 8, 69, 0
9, 12192, Note_on_c, 8, 68, 1
9, 12192, Lyric_t, "I "
9, 12284, Note_on_c, 8, 68, 0
9, 12384, Note_on_c, 8, 73, 1
9, 12384, Lyric_t, "\\SE"
9, 12476, Note_on_c, 8, 73, 0
9, 12480, Note_on_c, 8, 73, 1
9, 12480, Lyric_t, "EN "
9, 12572, Note_on_c, 8, 73, 0
9, 12576, Note_on_c, 8, 73, 1
9, 12576, Lyric_t, "YOU "
9, 12668, Note_on_c, 8, 73, 0
9, 12672, Note_on_c, 8, 73, 1
9, 12672, Lyric_t, "BE"
9, 12764, Note_on_c, 8, 73, 0
9, 12768, Note_on_c, 8, 71, 1
9, 12768, Lyric_t, "FO"
9, 12860, Note_on_c, 8, 71, 0
9, 12864, Note_on_c, 8, 71, 1
9, 12864, Lyric_t, "RE "
9, 13052, Note_on_c, 8, 71, 0
9, 13056, Note_on_c, 8, 71, 1
9, 13056, Lyric_t, "/THINK "
9, 13148, Note_on_c, 8, 71, 0
9, 13152, Note_on_c, 8, 71, 1
9, 13152, Lyric_t, "I'D "
9, 13244, Note_on_c, 8, 71, 0
9, 13248, Note_on_c, 8, 71, 1
9, 13248, Lyric_t, "RE"
9, 13340, Note_on_c, 8, 71, 0
9, 13344, Note_on_c, 8, 71, 1
9, 13344, Lyric_t, "MEM"
9, 13436, Note_on_c, 8, 71, 0
9, 13440, Note_on_c, 8, 71, 1
9, 13440, Lyric_t, "BER "
9, 13532, Note_on_c, 8, 71, 0
9, 13536, Note_on_c, 8, 73, 1
9, 13536, Lyric_t, "THOSE "
9, 13628, Note_on_c, 8, 73, 0
9, 13632, Note_on_c, 8, 69, 1
9, 13820, Note_on_c, 8, 69, 0
9, 13824, Note_on_c, 8, 66, 1
9, 13824, Lyric_t, "\\EYES, "
9, 14012, Note_on_c, 8, 66, 0
9, 14016, Note_on_c, 8, 69, 1
9, 14016, Lyric_t, "EYES, "
9, 14204, Note_on_c, 8, 69, 0
9, 14208, Note_on_c, 8, 73, 1
9, 14208, Lyric_t, "EYES, "
9, 14492, Note_on_c, 8, 73, 0
9, 14496, Note_on_c, 8, 66, 1
9, 14496, Lyric_t, "EYES, "
9, 14684, Note_on_c, 8, 66, 0
9, 14688, Note_on_c, 8, 66, 1
9, 14688, Lyric_t, "EYES, "
9, 14780, Note_on_c, 8, 66, 0
9, 14784, Note_on_c, 8, 69, 1
9, 14784, Lyric_t, "EYES "
9, 14880, Note_on_c, 8, 73, 1
9, 14880, Lyric_t, "/CO'Z "
9, 14972, Note_on_c, 8, 73, 0
9, 14972, Note_on_c, 8, 69, 0
9, 14976, Note_on_c, 8, 78, 1
9, 14976, Lyric_t, "BA"
9, 15068, Note_on_c, 8, 78, 0
9, 15072, Note_on_c, 8, 78, 1
9, 15072, Lyric_t, "BY "
9, 15164, Note_on_c, 8, 78, 0
9, 15168, Note_on_c, 8, 80, 1
9, 15168, Lyric_t, "TO"
9, 15260, Note_on_c, 8, 80, 0
9, 15264, Note_on_c, 8, 81, 1
9, 15264, Lyric_t, "NIGHT "
9, 15644, Note_on_c, 8, 81, 0
9, 16032, Note_on_c, 8, 73, 1
9, 16032, Lyric_t, "\\THE "
9, 16124, Note_on_c, 8, 73, 0
9, 16128, Note_on_c, 8, 81, 1
9, 16128, Lyric_t, "DJ "
9, 16220, Note_on_c, 8, 81, 0
9, 16224, Note_on_c, 8, 81, 1
9, 16224, Lyric_t, "GOT "
9, 16316, Note_on_c, 8, 81, 0
9, 16320, Note_on_c, 8, 80, 1
9, 16320, Lyric_t, "US "
9, 16412, Note_on_c, 8, 80, 0
9, 16416, Note_on_c, 8, 80, 1
9, 16416, Lyric_t, "FALL"
9, 16508, Note_on_c, 8, 80, 0
9, 16512, Note_on_c, 8, 78, 1
9, 16512, Lyric_t, "ING "
9, 16700, Note_on_c, 8, 78, 0
9, 16704, Note_on_c, 8, 76, 1
9, 16704, Lyric_t, "IN "
9, 16796, Note_on_c, 8, 76, 0
9, 16800, Note_on_c, 8, 76, 1
9, 16800, Lyric_t, "LOVE "
9, 16988, Note_on_c, 8, 76, 0
9, 16992, Note_on_c, 8, 78, 1
9, 16992, Lyric_t, "AGA"
9, 17084, Note_on_c, 8, 78, 0
9, 17088, Note_on_c, 8, 78, 1
9, 17088, Lyric_t, "IN "
9, 17468, Note_on_c, 8, 78, 0
9, 17952, Note_on_c, 8, 73, 1
9, 17952, Lyric_t, "/YAEH, "
9, 18044, Note_on_c, 8, 73, 0
9, 18048, Note_on_c, 8, 78, 1
9, 18048, Lyric_t, "BA"
9, 18140, Note_on_c, 8, 78, 0
9, 18144, Note_on_c, 8, 78, 1
9, 18144, Lyric_t, "BY "
9, 18236, Note_on_c, 8, 78, 0
9, 18240, Note_on_c, 8, 80, 1
9, 18240, Lyric_t, "TO"
9, 18332, Note_on_c, 8, 80, 0
9, 18336, Note_on_c, 8, 81, 1
9, 18336, Lyric_t, "NIGHT "
9, 18716, Note_on_c, 8, 81, 0
9, 19104, Note_on_c, 8, 73, 1
9, 19104, Lyric_t, "\\THE "
9, 19196, Note_on_c, 8, 73, 0
9, 19200, Note_on_c, 8, 81, 1
9, 19200, Lyric_t, "DJ "
9, 19292, Note_on_c, 8, 81, 0
9, 19296, Note_on_c, 8, 81, 1
9, 19296, Lyric_t, "GOT "
9, 19388, Note_on_c, 8, 81, 0
9, 19392, Note_on_c, 8, 80, 1
9, 19392, Lyric_t, "US "
9, 19484, Note_on_c, 8, 80, 0
9, 19488, Note_on_c, 8, 80, 1
9, 19488, Lyric_t, "FALL"
9, 19580, Note_on_c, 8, 80, 0
9, 19584, Note_on_c, 8, 78, 1
9, 19584, Lyric_t, "ING "
9, 19772, Note_on_c, 8, 78, 0
9, 19776, Note_on_c, 8, 76, 1
9, 19776, Lyric_t, "IN "
9, 19868, Note_on_c, 8, 76, 0
9, 19872, Note_on_c, 8, 76, 1
9, 19872, Lyric_t, "LOVE "
9, 20060, Note_on_c, 8, 76, 0
9, 20064, Note_on_c, 8, 78, 1
9, 20064, Lyric_t, "A"
9, 20156, Note_on_c, 8, 78, 0
9, 20160, Note_on_c, 8, 78, 1
9, 20160, Lyric_t, "GAIN "
9, 20540, Note_on_c, 8, 78, 0
9, 21408, Note_on_c, 8, 69, 1
9, 21408, Lyric_t, "/SO "
9, 21500, Note_on_c, 8, 69, 0
9, 21504, Note_on_c, 8, 71, 1
9, 21504, Lyric_t, "DANCE, "
9, 21692, Note_on_c, 8, 71, 0
9, 21696, Note_on_c, 8, 71, 1
9, 21696, Lyric_t, "DANCE "
9, 21884, Note_on_c, 8, 71, 0
9, 21888, Note_on_c, 8, 71, 1
9, 21888, Lyric_t, "LIKE "
9, 22028, Note_on_c, 8, 71, 0
9, 22032, Note_on_c, 8, 71, 1
9, 22032, Lyric_t, "IT'S "
9, 22172, Note_on_c, 8, 71, 0
9, 22176, Note_on_c, 8, 69, 1
9, 22176, Lyric_t, "\\THE "
9, 22268, Note_on_c, 8, 69, 0
9, 22272, Note_on_c, 8, 71, 1
9, 22272, Lyric_t, "LAST, "
9, 22460, Note_on_c, 8, 71, 0
9, 22464, Note_on_c, 8, 71, 1
9, 22464, Lyric_t, "LAST "
9, 22652, Note_on_c, 8, 71, 0
9, 22656, Note_on_c, 8, 71, 1
9, 22656, Lyric_t, "NIGHT "
9, 22796, Note_on_c, 8, 71, 0
9, 22800, Note_on_c, 8, 71, 1
9, 22800, Lyric_t, "OF "
9, 22940, Note_on_c, 8, 71, 0
9, 22944, Note_on_c, 8, 69, 1
9, 22944, Lyric_t, "YOUR "
9, 23036, Note_on_c, 8, 69, 0
9, 23040, Note_on_c, 8, 71, 1
9, 23040, Lyric_t, "/LIFE, "
9, 23228, Note_on_c, 8, 71, 0
9, 23232, Note_on_c, 8, 71, 1
9, 23232, Lyric_t, "LIFE "
9, 23420, Note_on_c, 8, 71, 0
9, 23424, Note_on_c, 8, 71, 1
9, 23424, Lyric_t, "GON' "
9, 23564, Note_on_c, 8, 71, 0
9, 23568, Note_on_c, 8, 73, 1
9, 23568, Lyric_t, "GET "
9, 23708, Note_on_c, 8, 73, 0
9, 23712, Note_on_c, 8, 69, 1
9, 23712, Lyric_t, "YOUR "
9, 23804, Note_on_c, 8, 69, 0
9, 23808, Note_on_c, 8, 69, 1
9, 23808, Lyric_t, "RIG"
9, 23900, Note_on_c, 8, 69, 0
9, 23904, Note_on_c, 8, 66, 1
9, 23904, Lyric_t, "HT "
9, 24092, Note_on_c, 8, 66, 0
9, 24096, Note_on_c, 8, 73, 1
9, 24096, Lyric_t, "\\CO'Z "
9, 24188, Note_on_c, 8, 73, 0
9, 24192, Note_on_c, 8, 78, 1
9, 24192, Lyric_t, "BA"
9, 24284, Note_on_c, 8, 78, 0
9, 24288, Note_on_c, 8, 78, 1
9, 24288, Lyric_t, "BY "
9, 24380, Note_on_c, 8, 78, 0
9, 24384, Note_on_c, 8, 80, 1
9, 24384, Lyric_t, "TO"
9, 24476, Note_on_c, 8, 80, 0
9, 24480, Note_on_c, 8, 81, 1
9, 24480, Lyric_t, "NIGHT "
9, 24860, Note_on_c, 8, 81, 0
9, 25248, Note_on_c, 8, 73, 1
9, 25248, Lyric_t, "/THE "
9, 25340, Note_on_c, 8, 73, 0
9, 25344, Note_on_c, 8, 81, 1
9, 25344, Lyric_t, "DJ "
9, 25436, Note_on_c, 8, 81, 0
9, 25440, Note_on_c, 8, 81, 1
9, 25440, Lyric_t, "GOT "
9, 25532, Note_on_c, 8, 81, 0
9, 25536, Note_on_c, 8, 80, 1
9, 25536, Lyric_t, "US "
9, 25628, Note_on_c, 8, 80, 0
9, 25632, Note_on_c, 8, 80, 1
9, 25632, Lyric_t, "FA"
9, 25724, Note_on_c, 8, 80, 0
9, 25728, Note_on_c, 8, 78, 1
9, 25728, Lyric_t, "LLING "
9, 25916, Note_on_c, 8, 78, 0
9, 25920, Note_on_c, 8, 76, 1
9, 25920, Lyric_t, "IN "
9, 26012, Note_on_c, 8, 76, 0
9, 26016, Note_on_c, 8, 76, 1
9, 26016, Lyric_t, "LOVE "
9, 26204, Note_on_c, 8, 76, 0
9, 26208, Note_on_c, 8, 78, 1
9, 26208, Lyric_t, "A"
9, 26300, Note_on_c, 8, 78, 0
9, 26304, Note_on_c, 8, 78, 1
9, 26304, Lyric_t, "GAIN "
9, 26684, Note_on_c, 8, 78, 0
9, 27744, Note_on_c, 8, 73, 1
9, 27744, Lyric_t, "\\KEEP "
9, 27836, Note_on_c, 8, 73, 0
9, 27840, Note_on_c, 8, 73, 1
9, 27840, Lyric_t, "DOW"
9, 27932, Note_on_c, 8, 73, 0
9, 27936, Note_on_c, 8, 73, 1
9, 27936, Lyric_t, "NING "
9, 28028, Note_on_c, 8, 73, 0
9, 28032, Note_on_c, 8, 73, 1
9, 28032, Lyric_t, "DRINKS "
9, 28124, Note_on_c, 8, 73, 0
9, 28128, Note_on_c, 8, 71, 1
9, 28128, Lyric_t, "LIKE "
9, 28220, Note_on_c, 8, 71, 0
9, 28224, Note_on_c, 8, 71, 1
9, 28224, Lyric_t, "THIS "
9, 28412, Note_on_c, 8, 71, 0
9, 28416, Note_on_c, 8, 71, 1
9, 28416, Lyric_t, "/NO "
9, 28508, Note_on_c, 8, 71, 0
9, 28512, Note_on_c, 8, 71, 1
9, 28512, Lyric_t, "TO"
9, 28604, Note_on_c, 8, 71, 0
9, 28608, Note_on_c, 8, 71, 1
9, 28608, Lyric_t, "MO"
9, 28700, Note_on_c, 8, 71, 0
9, 28704, Note_on_c, 8, 71, 1
9, 28704, Lyric_t, "RO"
9, 28796, Note_on_c, 8, 71, 0
9, 28800, Note_on_c, 8, 71, 1
9, 28800, Lyric_t, "W "
9, 28892, Note_on_c, 8, 71, 0
9, 28896, Note_on_c, 8, 73, 1
9, 28896, Lyric_t, "THERE "
9, 28988, Note_on_c, 8, 73, 0
9, 28992, Note_on_c, 8, 69, 1
9, 28992, Lyric_t, "JUST "
9, 29180, Note_on_c, 8, 69, 0
9, 29184, Note_on_c, 8, 66, 1
9, 29184, Lyric_t, "RIGHT "
9, 29372, Note_on_c, 8, 66, 0
9, 29376, Note_on_c, 8, 69, 1
9, 29376, Lyric_t, "\\NOW, "
9, 29564, Note_on_c, 8, 69, 0
9, 29568, Note_on_c, 8, 73, 1
9, 29568, Lyric_t, "NOW, "
9, 29852, Note_on_c, 8, 73, 0
9, 29856, Note_on_c, 8, 66, 1
9, 29856, Lyric_t, "NOW, "
9, 30044, Note_on_c, 8, 66, 0
9, 30048, Note_on_c, 8, 66, 1
9, 30048, Lyric_t, "NOW, "
9, 30140, Note_on_c, 8, 66, 0
9, 30144, Note_on_c, 8, 69, 1
9, 30144, Lyric_t, "NOW, "
9, 30332, Note_on_c, 8, 69, 0
9, 30336, Note_on_c, 8, 73, 1
9, 30336, Lyric_t, "NOW "
9, 30812, Note_on_c, 8, 73, 0
9, 30816, Note_on_c, 8, 73, 1
9, 30816, Lyric_t, "/GONE "
9, 30908, Note_on_c, 8, 73, 0
9, 30912, Note_on_c, 8, 73, 1
9, 30912, Lyric_t, "SET "
9, 31004, Note_on_c, 8, 73, 0
9, 31008, Note_on_c, 8, 73, 1
9, 31008, Lyric_t, "THE "
9, 31100, Note_on_c, 8, 73, 0
9, 31104, Note_on_c, 8, 73, 1
9, 31104, Lyric_t, "ROOF "
9, 31196, Note_on_c, 8, 73, 0
9, 31200, Note_on_c, 8, 71, 1
9, 31200, Lyric_t, "ON "
9, 31292, Note_on_c, 8, 71, 0
9, 31296, Note_on_c, 8, 71, 1
9, 31296, Lyric_t, "FIRE "
9, 31484, Note_on_c, 8, 71, 0
9, 31488, Note_on_c, 8, 71, 1
9, 31488, Lyric_t, "\\GON"
9, 31580, Note_on_c, 8, 71, 0
9, 31584, Note_on_c, 8, 71, 1
9, 31584, Lyric_t, "NA "
9, 31676, Note_on_c, 8, 71, 0
9, 31680, Note_on_c, 8, 71, 1
9, 31680, Lyric_t, "BURN "
9, 31772, Note_on_c, 8, 71, 0
9, 31776, Note_on_c, 8, 71, 1
9, 31776, Lyric_t, "THIS "
9, 31868, Note_on_c, 8, 71, 0
9, 31872, Note_on_c, 8, 71, 1
9, 31872, Lyric_t, "WHOLE "
9, 31964, Note_on_c, 8, 71, 0
9, 31968, Note_on_c, 8, 73, 1
9, 31968, Lyric_t, "PLA"
9, 32060, Note_on_c, 8, 73, 0
9, 32064, Note_on_c, 8, 69, 1
9, 32064, Lyric_t, "CE "
9, 32252, Note_on_c, 8, 69, 0
9, 32256, Note_on_c, 8, 66, 1
9, 32256, Lyric_t, "/DOWN, "
9, 32444, Note_on_c, 8, 66, 0
9, 32448, Note_on_c, 8, 69, 1
9, 32448, Lyric_t, "DOWN, "
9, 32636, Note_on_c, 8, 69, 0
9, 32640, Note_on_c, 8, 73, 1
9, 32640, Lyric_t, "DOWN, "
9, 32924, Note_on_c, 8, 73, 0
9, 32928, Note_on_c, 8, 66, 1
9, 32928, Lyric_t, "DOWN, "
9, 33116, Note_on_c, 8, 66, 0
9, 33120, Note_on_c, 8, 66, 1
9, 33120, Lyric_t, "DOWN, "
9, 33212, Note_on_c, 8, 66, 0
9, 33216, Note_on_c, 8, 69, 1
9, 33216, Lyric_t, "DO"
9, 33404, Note_on_c, 8, 69, 0
9, 33408, Note_on_c, 8, 73, 1
9, 33408, Lyric_t, "WN "
9, 33788, Note_on_c, 8, 73, 0
9, 33792, Note_on_c, 8, 73, 1
9, 33792, Lyric_t, "\\HANDS "
9, 34076, Note_on_c, 8, 73, 0
9, 34080, Note_on_c, 8, 69, 1
9, 34080, Lyric_t, "UP! "
9, 34364, Note_on_c, 8, 69, 0
9, 34464, Note_on_c, 8, 69, 1
9, 34464, Lyric_t, "/WHEN "
9, 34556, Note_on_c, 8, 69, 0
9, 34560, Note_on_c, 8, 71, 1
9, 34560, Lyric_t, "THE "
9, 34652, Note_on_c, 8, 71, 0
9, 34656, Note_on_c, 8, 71, 1
9, 34656, Lyric_t, "MU"
9, 34748, Note_on_c, 8, 71, 0
9, 34752, Note_on_c, 8, 71, 1
9, 34752, Lyric_t, "SIC "
9, 34844, Note_on_c, 8, 71, 0
9, 34848, Note_on_c, 8, 71, 1
9, 34848, Lyric_t, "DROPS "
9, 34940, Note_on_c, 8, 71, 0
9, 34944, Note_on_c, 8, 71, 1
9, 34944, Lyric_t, "\\WE "
9, 35036, Note_on_c, 8, 71, 0
9, 35040, Note_on_c, 8, 71, 1
9, 35040, Lyric_t, "BOTH "
9, 35132, Note_on_c, 8, 71, 0
9, 35136, Note_on_c, 8, 73, 1
9, 35136, Lyric_t, "PUT "
9, 35228, Note_on_c, 8, 73, 0
9, 35232, Note_on_c, 8, 74, 1
9, 35232, Lyric_t, "OUR "
9, 35324, Note_on_c, 8, 74, 0
9, 35328, Note_on_c, 8, 73, 1
9, 35328, Lyric_t, "/HANDS "
9, 35612, Note_on_c, 8, 73, 0
9, 35616, Note_on_c, 8, 69, 1
9, 35616, Lyric_t, "UP! "
9, 35900, Note_on_c, 8, 69, 0
9, 36000, Note_on_c, 8, 69, 1
9, 36000, Lyric_t, "\\PUT "
9, 36092, Note_on_c, 8, 69, 0
9, 36096, Note_on_c, 8, 71, 1
9, 36096, Lyric_t, "YOUR "
9, 36188, Note_on_c, 8, 71, 0
9, 36192, Note_on_c, 8, 71, 1
9, 36192, Lyric_t, "HA"
9, 36284, Note_on_c, 8, 71, 0
9, 36288, Note_on_c, 8, 71, 1
9, 36288, Lyric_t, "NDS "
9, 36380, Note_on_c, 8, 71, 0
9, 36384, Note_on_c, 8, 71, 1
9, 36384, Lyric_t, "ON "
9, 36476, Note_on_c, 8, 71, 0
9, 36480, Note_on_c, 8, 71, 1
9, 36480, Lyric_t, "MY "
9, 36572, Note_on_c, 8, 71, 0
9, 36576, Note_on_c, 8, 71, 1
9, 36576, Lyric_t, "BO"
9, 36668, Note_on_c, 8, 71, 0
9, 36672, Note_on_c, 8, 69, 1
9, 36672, Lyric_t, "D"
9, 36764, Note_on_c, 8, 69, 0
9, 36768, Note_on_c, 8, 68, 1
9, 36768, Lyric_t, "Y "
9, 36860, Note_on_c, 8, 68, 0
9, 36960, Note_on_c, 8, 73, 1
9, 36960, Lyric_t, "/SWEAR "
9, 37052, Note_on_c, 8, 73, 0
9, 37056, Note_on_c, 8, 73, 1
9, 37056, Lyric_t, "I "
9, 37148, Note_on_c, 8, 73, 0
9, 37152, Note_on_c, 8, 73, 1
9, 37152, Lyric_t, "SEEN "
9, 37244, Note_on_c, 8, 73, 0
9, 37248, Note_on_c, 8, 73, 1
9, 37248, Lyric_t, "YOU "
9, 37340, Note_on_c, 8, 73, 0
9, 37344, Note_on_c, 8, 71, 1
9, 37344, Lyric_t, "BE"
9, 37436, Note_on_c, 8, 71, 0
9, 37440, Note_on_c, 8, 71, 1
9, 37440, Lyric_t, "FORE "
9, 37628, Note_on_c, 8, 71, 0
9, 37632, Note_on_c, 8, 71, 1
9, 37632, Lyric_t, "\\I "
9, 37724, Note_on_c, 8, 71, 0
9, 37728, Note_on_c, 8, 71, 1
9, 37728, Lyric_t, "THINK "
9, 37820, Note_on_c, 8, 71, 0
9, 37824, Note_on_c, 8, 71, 1
9, 37824, Lyric_t, "I "
9, 37916, Note_on_c, 8, 71, 0
9, 37920, Note_on_c, 8, 71, 1
9, 37920, Lyric_t, "RE"
9, 38012, Note_on_c, 8, 71, 0
9, 38016, Note_on_c, 8, 71, 1
9, 38016, Lyric_t, "MEM"
9, 38108, Note_on_c, 8, 71, 0
9, 38112, Note_on_c, 8, 73, 1
9, 38112, Lyric_t, "BER "
9, 38204, Note_on_c, 8, 73, 0
9, 38208, Note_on_c, 8, 69, 1
9, 38208, Lyric_t, "THOSE "
9, 38396, Note_on_c, 8, 69, 0
9, 38400, Note_on_c, 8, 66, 1
9, 38400, Lyric_t, "/EYES, "
9, 38588, Note_on_c, 8, 66, 0
9, 38592, Note_on_c, 8, 69, 1
9, 38592, Lyric_t, "EYES, "
9, 38780, Note_on_c, 8, 69, 0
9, 38784, Note_on_c, 8, 73, 1
9, 38784, Lyric_t, "EYES, "
9, 39068, Note_on_c, 8, 73, 0
9, 39072, Note_on_c, 8, 66, 1
9, 39072, Lyric_t, "\\EYES, "
9, 39260, Note_on_c, 8, 66, 0
9, 39264, Note_on_c, 8, 66, 1
9, 39264, Lyric_t, "EYES, "
9, 39356, Note_on_c, 8, 66, 0
9, 39360, Note_on_c, 8, 69, 1
9, 39360, Lyric_t, "EYES "
9, 39456, Note_on_c, 8, 73, 1
9, 39456, Lyric_t, "/CO'Z "
9, 39548, Note_on_c, 8, 73, 0
9, 39548, Note_on_c, 8, 69, 0
9, 39552, Note_on_c, 8, 78, 1
9, 39552, Lyric_t, "BA"
9, 39644, Note_on_c, 8, 78, 0
9, 39648, Note_on_c, 8, 78, 1
9, 39648, Lyric_t, "BY "
9, 39740, Note_on_c, 8, 78, 0
9, 39744, Note_on_c, 8, 80, 1
9, 39744, Lyric_t, "TO"
9, 39836, Note_on_c, 8, 80, 0
9, 39840, Note_on_c, 8, 81, 1
9, 39840, Lyric_t, "NIGHT "
9, 40220, Note_on_c, 8, 81, 0
9, 40608, Note_on_c, 8, 73, 1
9, 40608, Lyric_t, "\\THE "
9, 40700, Note_on_c, 8, 73, 0
9, 40704, Note_on_c, 8, 81, 1
9, 40704, Lyric_t, "DJ "
9, 40796, Note_on_c, 8, 81, 0
9, 40800, Note_on_c, 8, 81, 1
9, 40800, Lyric_t, "GOT "
9, 40892, Note_on_c, 8, 81, 0
9, 40896, Note_on_c, 8, 80, 1
9, 40896, Lyric_t, "US "
9, 40988, Note_on_c, 8, 80, 0
9, 40992, Note_on_c, 8, 80, 1
9, 40992, Lyric_t, "FA"
9, 41084, Note_on_c, 8, 80, 0
9, 41088, Note_on_c, 8, 78, 1
9, 41088, Lyric_t, "LLIN "
9, 41276, Note_on_c, 8, 78, 0
9, 41280, Note_on_c, 8, 76, 1
9, 41280, Lyric_t, "IN "
9, 41372, Note_on_c, 8, 76, 0
9, 41376, Note_on_c, 8, 76, 1
9, 41376, Lyric_t, "LOVE "
9, 41564, Note_on_c, 8, 76, 0
9, 41568, Note_on_c, 8, 78, 1
9, 41568, Lyric_t, "A"
9, 41660, Note_on_c, 8, 78, 0
9, 41664, Note_on_c, 8, 78, 1
9, 41664, Lyric_t, "GAIN "
9, 42044, Note_on_c, 8, 78, 0
9, 42528, Note_on_c, 8, 73, 1
9, 42528, Lyric_t, "/CO'Z "
9, 42620, Note_on_c, 8, 73, 0
9, 42624, Note_on_c, 8, 78, 1
9, 42624, Lyric_t, "BA"
9, 42716, Note_on_c, 8, 78, 0
9, 42720, Note_on_c, 8, 78, 1
9, 42720, Lyric_t, "BY "
9, 42812, Note_on_c, 8, 78, 0
9, 42816, Note_on_c, 8, 80, 1
9, 42816, Lyric_t, "TO"
9, 42908, Note_on_c, 8, 80, 0
9, 42912, Note_on_c, 8, 81, 1
9, 42912, Lyric_t, "NIGHT "
9, 43292, Note_on_c, 8, 81, 0
9, 43680, Note_on_c, 8, 73, 1
9, 43680, Lyric_t, "\\THE "
9, 43772, Note_on_c, 8, 73, 0
9, 43776, Note_on_c, 8, 81, 1
9, 43776, Lyric_t, "DJ "
9, 43868, Note_on_c, 8, 81, 0
9, 43872, Note_on_c, 8, 81, 1
9, 43872, Lyric_t, "GOT "
9, 43964, Note_on_c, 8, 81, 0
9, 43968, Note_on_c, 8, 80, 1
9, 43968, Lyric_t, "US "
9, 44060, Note_on_c, 8, 80, 0
9, 44064, Note_on_c, 8, 80, 1
9, 44064, Lyric_t, "FA"
9, 44156, Note_on_c, 8, 80, 0
9, 44160, Note_on_c, 8, 78, 1
9, 44160, Lyric_t, "LLIN "
9, 44348, Note_on_c, 8, 78, 0
9, 44352, Note_on_c, 8, 76, 1
9, 44352, Lyric_t, "IN "
9, 44444, Note_on_c, 8, 76, 0
9, 44448, Note_on_c, 8, 76, 1
9, 44448, Lyric_t, "LOVE "
9, 44636, Note_on_c, 8, 76, 0
9, 44640, Note_on_c, 8, 78, 1
9, 44640, Lyric_t, "A"
9, 44732, Note_on_c, 8, 78, 0
9, 44736, Note_on_c, 8, 78, 1
9, 44736, Lyric_t, "GAIN "
9, 45116, Note_on_c, 8, 78, 0
9, 45984, Note_on_c, 8, 69, 1
9, 45984, Lyric_t, "/SO "
9, 46076, Note_on_c, 8, 69, 0
9, 46080, Note_on_c, 8, 71, 1
9, 46080, Lyric_t, "DANCE, "
9, 46268, Note_on_c, 8, 71, 0
9, 46272, Note_on_c, 8, 71, 1
9, 46272, Lyric_t, "DANCE "
9, 46460, Note_on_c, 8, 71, 0
9, 46464, Note_on_c, 8, 71, 1
9, 46464, Lyric_t, "LIKE "
9, 46604, Note_on_c, 8, 71, 0
9, 46608, Note_on_c, 8, 71, 1
9, 46608, Lyric_t, "IT'S "
9, 46748, Note_on_c, 8, 71, 0
9, 46752, Note_on_c, 8, 69, 1
9, 46752, Lyric_t, "\\THE "
9, 46844, Note_on_c, 8, 69, 0
9, 46848, Note_on_c, 8, 71, 1
9, 46848, Lyric_t, "LAST, "
9, 47036, Note_on_c, 8, 71, 0
9, 47040, Note_on_c, 8, 71, 1
9, 47040, Lyric_t, "LAST "
9, 47228, Note_on_c, 8, 71, 0
9, 47232, Note_on_c, 8, 71, 1
9, 47232, Lyric_t, "NIGHT "
9, 47372, Note_on_c, 8, 71, 0
9, 47376, Note_on_c, 8, 71, 1
9, 47376, Lyric_t, "OF "
9, 47516, Note_on_c, 8, 71, 0
9, 47520, Note_on_c, 8, 69, 1
9, 47520, Lyric_t, "YOUR "
9, 47612, Note_on_c, 8, 69, 0
9, 47616, Note_on_c, 8, 71, 1
9, 47616, Lyric_t, "/LIFE, "
9, 47804, Note_on_c, 8, 71, 0
9, 47808, Note_on_c, 8, 71, 1
9, 47808, Lyric_t, "LIFE "
9, 47996, Note_on_c, 8, 71, 0
9, 48000, Note_on_c, 8, 71, 1
9, 48000, Lyric_t, "GON "
9, 48140, Note_on_c, 8, 71, 0
9, 48144, Note_on_c, 8, 73, 1
9, 48144, Lyric_t, "GET "
9, 48284, Note_on_c, 8, 73, 0
9, 48288, Note_on_c, 8, 69, 1
9, 48288, Lyric_t, "YOUR "
9, 48380, Note_on_c, 8, 69, 0
9, 48384, Note_on_c, 8, 69, 1
9, 48384, Lyric_t, "RI"
9, 48476, Note_on_c, 8, 69, 0
9, 48480, Note_on_c, 8, 66, 1
9, 48480, Lyric_t, "GHT "
9, 48668, Note_on_c, 8, 66, 0
9, 48672, Note_on_c, 8, 73, 1
9, 48672, Lyric_t, "\\CO'Z "
9, 48764, Note_on_c, 8, 73, 0
9, 48768, Note_on_c, 8, 78, 1
9, 48768, Lyric_t, "BA"
9, 48860, Note_on_c, 8, 78, 0
9, 48864, Note_on_c, 8, 78, 1
9, 48864, Lyric_t, "BY "
9, 48956, Note_on_c, 8, 78, 0
9, 48960, Note_on_c, 8, 80, 1
9, 48960, Lyric_t, "TO"
9, 49052, Note_on_c, 8, 80, 0
9, 49056, Note_on_c, 8, 81, 1
9, 49056, Lyric_t, "NIGHT "
9, 49436, Note_on_c, 8, 81, 0
9, 49824, Note_on_c, 8, 73, 1
9, 49824, Lyric_t, "/THE "
9, 49916, Note_on_c, 8, 73, 0
9, 49920, Note_on_c, 8, 81, 1
9, 49920, Lyric_t, "DJ "
9, 50012, Note_on_c, 8, 81, 0
9, 50016, Note_on_c, 8, 81, 1
9, 50016, Lyric_t, "GOT "
9, 50108, Note_on_c, 8, 81, 0
9, 50112, Note_on_c, 8, 80, 1
9, 50112, Lyric_t, "US "
9, 50204, Note_on_c, 8, 80, 0
9, 50208, Note_on_c, 8, 80, 1
9, 50208, Lyric_t, "FA"
9, 50300, Note_on_c, 8, 80, 0
9, 50304, Note_on_c, 8, 78, 1
9, 50304, Lyric_t, "LLIN "
9, 50492, Note_on_c, 8, 78, 0
9, 50496, Note_on_c, 8, 76, 1
9, 50496, Lyric_t, "IN "
9, 50588, Note_on_c, 8, 76, 0
9, 50592, Note_on_c, 8, 76, 1
9, 50592, Lyric_t, "LOVE "
9, 50780, Note_on_c, 8, 76, 0
9, 50784, Note_on_c, 8, 78, 1
9, 50784, Lyric_t, "A"
9, 50876, Note_on_c, 8, 78, 0
9, 50880, Note_on_c, 8, 78, 1
9, 50880, Lyric_t, "GAIN "
9, 51260, Note_on_c, 8, 78, 0
9, 52224, Note_on_c, 8, 81, 1
9, 52316, Note_on_c, 8, 81, 0
9, 52320, Note_on_c, 8, 78, 1
9, 52412, Note_on_c, 8, 78, 0
9, 52416, Note_on_c, 8, 73, 1
9, 52508, Note_on_c, 8, 73, 0
9, 52512, Note_on_c, 8, 81, 1
9, 52700, Note_on_c, 8, 81, 0
9, 52704, Note_on_c, 8, 78, 1
9, 52796, Note_on_c, 8, 78, 0
9, 52800, Note_on_c, 8, 73, 1
9, 52892, Note_on_c, 8, 73, 0
9, 52896, Note_on_c, 8, 81, 1
9, 52988, Note_on_c, 8, 81, 0
9, 52992, Note_on_c, 8, 81, 1
9, 53084, Note_on_c, 8, 81, 0
9, 53088, Note_on_c, 8, 78, 1
9, 53180, Note_on_c, 8, 78, 0
9, 53184, Note_on_c, 8, 73, 1
9, 53276, Note_on_c, 8, 73, 0
9, 53280, Note_on_c, 8, 81, 1
9, 53468, Note_on_c, 8, 81, 0
9, 53472, Note_on_c, 8, 78, 1
9, 53564, Note_on_c, 8, 78, 0
9, 53568, Note_on_c, 8, 73, 1
9, 53660, Note_on_c, 8, 73, 0
9, 53760, Note_on_c, 8, 81, 1
9, 53852, Note_on_c, 8, 81, 0
9, 53856, Note_on_c, 8, 78, 1
9, 53948, Note_on_c, 8, 78, 0
9, 53952, Note_on_c, 8, 73, 1
9, 54044, Note_on_c, 8, 73, 0
9, 54048, Note_on_c, 8, 81, 1
9, 54236, Note_on_c, 8, 81, 0
9, 54240, Note_on_c, 8, 78, 1
9, 54332, Note_on_c, 8, 78, 0
9, 54336, Note_on_c, 8, 73, 1
9, 54428, Note_on_c, 8, 73, 0
9, 54432, Note_on_c, 8, 81, 1
9, 54524, Note_on_c, 8, 81, 0
9, 54528, Note_on_c, 8, 81, 1
9, 54620, Note_on_c, 8, 81, 0
9, 54624, Note_on_c, 8, 78, 1
9, 54716, Note_on_c, 8, 78, 0
9, 54720, Note_on_c, 8, 73, 1
9, 54812, Note_on_c, 8, 73, 0
9, 54816, Note_on_c, 8, 81, 1
9, 55004, Note_on_c, 8, 81, 0
9, 55008, Note_on_c, 8, 78, 1
9, 55100, Note_on_c, 8, 78, 0
9, 55104, Note_on_c, 8, 73, 1
9, 55196, Note_on_c, 8, 73, 0
9, 55392, Note_on_c, 8, 73, 1
9, 55484, Note_on_c, 8, 73, 0
9, 55488, Note_on_c, 8, 78, 1
9, 55580, Note_on_c, 8, 78, 0
9, 55584, Note_on_c, 8, 81, 1
9, 55772, Note_on_c, 8, 81, 0
9, 55776, Note_on_c, 8, 80, 1
9, 55964, Note_on_c, 8, 80, 0
9, 55968, Note_on_c, 8, 78, 1
9, 56060, Note_on_c, 8, 78, 0
9, 56064, Note_on_c, 8, 80, 1
9, 56348, Note_on_c, 8, 80, 0
9, 56352, Note_on_c, 8, 78, 1
9, 56636, Note_on_c, 8, 78, 0
9, 56640, Note_on_c, 8, 76, 1
9, 56828, Note_on_c, 8, 76, 0
9, 56832, Note_on_c, 8, 78, 1
9, 57116, Note_on_c, 8, 78, 0
9, 57120, Note_on_c, 8, 76, 1
9, 57404, Note_on_c, 8, 76, 0
9, 57408, Note_on_c, 8, 69, 1
9, 57884, Note_on_c, 8, 69, 0
9, 57888, Note_on_c, 8, 73, 1
9, 57888, Lyric_t, "/CO'Z "
9, 57980, Note_on_c, 8, 73, 0
9, 57984, Note_on_c, 8, 78, 1
9, 57984, Lyric_t, "BA"
9, 58076, Note_on_c, 8, 78, 0
9, 58080, Note_on_c, 8, 78, 1
9, 58080, Lyric_t, "BY "
9, 58172, Note_on_c, 8, 78, 0
9, 58176, Note_on_c, 8, 80, 1
9, 58176, Lyric_t, "TO"
9, 58268, Note_on_c, 8, 80, 0
9, 58272, Note_on_c, 8, 81, 1
9, 58272, Lyric_t, "NIGHT "
9, 58652, Note_on_c, 8, 81, 0
9, 59040, Note_on_c, 8, 73, 1
9, 59040, Lyric_t, "\\THE "
9, 59132, Note_on_c, 8, 73, 0
9, 59136, Note_on_c, 8, 81, 1
9, 59136, Lyric_t, "DJ "
9, 59228, Note_on_c, 8, 81, 0
9, 59232, Note_on_c, 8, 81, 1
9, 59232, Lyric_t, "GOT "
9, 59324, Note_on_c, 8, 81, 0
9, 59328, Note_on_c, 8, 80, 1
9, 59328, Lyric_t, "US "
9, 59420, Note_on_c, 8, 80, 0
9, 59424, Note_on_c, 8, 80, 1
9, 59424, Lyric_t, "FA"
9, 59516, Note_on_c, 8, 80, 0
9, 59520, Note_on_c, 8, 78, 1
9, 59520, Lyric_t, "LLIN "
9, 59708, Note_on_c, 8, 78, 0
9, 59712, Note_on_c, 8, 76, 1
9, 59712, Lyric_t, "IN "
9, 59804, Note_on_c, 8, 76, 0
9, 59808, Note_on_c, 8, 76, 1
9, 59808, Lyric_t, "LOVE "
9, 59996, Note_on_c, 8, 76, 0
9, 60000, Note_on_c, 8, 78, 1
9, 60000, Lyric_t, "AGAIN "
9, 60092, Note_on_c, 8, 78, 0
9, 60096, Note_on_c, 8, 78, 1
9, 60476, Note_on_c, 8, 78, 0
9, 60960, Note_on_c, 8, 73, 1
9, 60960, Lyric_t, "/CO'Z "
9, 61052, Note_on_c, 8, 73, 0
9, 61056, Note_on_c, 8, 78, 1
9, 61056, Lyric_t, "BA"
9, 61148, Note_on_c, 8, 78, 0
9, 61152, Note_on_c, 8, 78, 1
9, 61152, Lyric_t, "BY "
9, 61244, Note_on_c, 8, 78, 0
9, 61248, Note_on_c, 8, 80, 1
9, 61248, Lyric_t, "TO"
9, 61340, Note_on_c, 8, 80, 0
9, 61344, Note_on_c, 8, 81, 1
9, 61344, Lyric_t, "NIGHT "
9, 61724, Note_on_c, 8, 81, 0
9, 62112, Note_on_c, 8, 73, 1
9, 62112, Lyric_t, "\\THE "
9, 62204, Note_on_c, 8, 73, 0
9, 62208, Note_on_c, 8, 81, 1
9, 62208, Lyric_t, "DJ "
9, 62300, Note_on_c, 8, 81, 0
9, 62304, Note_on_c, 8, 81, 1
9, 62304, Lyric_t, "GOT "
9, 62396, Note_on_c, 8, 81, 0
9, 62400, Note_on_c, 8, 80, 1
9, 62400, Lyric_t, "US "
9, 62492, Note_on_c, 8, 80, 0
9, 62496, Note_on_c, 8, 80, 1
9, 62496, Lyric_t, "FALL "
9, 62588, Note_on_c, 8, 80, 0
9, 62592, Note_on_c, 8, 78, 1
9, 62592, Lyric_t, "IN "
9, 62780, Note_on_c, 8, 78, 0
9, 62784, Note_on_c, 8, 76, 1
9, 62784, Lyric_t, "IN "
9, 62876, Note_on_c, 8, 76, 0
9, 62880, Note_on_c, 8, 76, 1
9, 62880, Lyric_t, "LOVE "
9, 63068, Note_on_c, 8, 76, 0
9, 63072, Note_on_c, 8, 78, 1
9, 63072, Lyric_t, "A"
9, 63164, Note_on_c, 8, 78, 0
9, 63168, Note_on_c, 8, 78, 1
9, 63168, Lyric_t, "GAIN "
9, 63548, Note_on_c, 8, 78, 0
9, 64416, Note_on_c, 8, 69, 1
9, 64416, Lyric_t, "/SO "
9, 64508, Note_on_c, 8, 69, 0
9, 64512, Note_on_c, 8, 71, 1
9, 64512, Lyric_t, "DANCE, "
9, 64700, Note_on_c, 8, 71, 0
9, 64704, Note_on_c, 8, 71, 1
9, 64704, Lyric_t, "DANCE "
9, 64892, Note_on_c, 8, 71, 0
9, 64896, Note_on_c, 8, 71, 1
9, 64896, Lyric_t, "LIKE "
9, 65036, Note_on_c, 8, 71, 0
9, 65040, Note_on_c, 8, 71, 1
9, 65040, Lyric_t, "IT'S "
9, 65180, Note_on_c, 8, 71, 0
9, 65184, Note_on_c, 8, 69, 1
9, 65184, Lyric_t, "\\THE "
9, 65276, Note_on_c, 8, 69, 0
9, 65280, Note_on_c, 8, 71, 1
9, 65280, Lyric_t, "LAST, "
9, 65468, Note_on_c, 8, 71, 0
9, 65472, Note_on_c, 8, 71, 1
9, 65472, Lyric_t, "LAST "
9, 65660, Note_on_c, 8, 71, 0
9, 65664, Note_on_c, 8, 71, 1
9, 65664, Lyric_t, "NIGHT "
9, 65804, Note_on_c, 8, 71, 0
9, 65808, Note_on_c, 8, 71, 1
9, 65808, Lyric_t, "OF "
9, 65948, Note_on_c, 8, 71, 0
9, 65952, Note_on_c, 8, 69, 1
9, 65952, Lyric_t, "YOUR "
9, 66044, Note_on_c, 8, 69, 0
9, 66048, Note_on_c, 8, 71, 1
9, 66048, Lyric_t, "/LIFE, "
9, 66236, Note_on_c, 8, 71, 0
9, 66240, Note_on_c, 8, 71, 1
9, 66240, Lyric_t, "LIFE "
9, 66428, Note_on_c, 8, 71, 0
9, 66432, Note_on_c, 8, 71, 1
9, 66432, Lyric_t, "GON "
9, 66572, Note_on_c, 8, 71, 0
9, 66576, Note_on_c, 8, 73, 1
9, 66576, Lyric_t, "GET "
9, 66716, Note_on_c, 8, 73, 0
9, 66720, Note_on_c, 8, 69, 1
9, 66720, Lyric_t, "YOURS "
9, 66812, Note_on_c, 8, 69, 0
9, 66816, Note_on_c, 8, 69, 1
9, 66816, Lyric_t, "RI"
9, 66908, Note_on_c, 8, 69, 0
9, 66912, Note_on_c, 8, 66, 1
9, 66912, Lyric_t, "GHT "
9, 67100, Note_on_c, 8, 66, 0
9, 67104, Note_on_c, 8, 73, 1
9, 67104, Lyric_t, "\\CO'Z "
9, 67196, Note_on_c, 8, 73, 0
9, 67200, Note_on_c, 8, 78, 1
9, 67200, Lyric_t, "BA"
9, 67292, Note_on_c, 8, 78, 0
9, 67296, Note_on_c, 8, 78, 1
9, 67296, Lyric_t, "BY "
9, 67388, Note_on_c, 8, 78, 0
9, 67392, Note_on_c, 8, 80, 1
9, 67392, Lyric_t, "TO"
9, 67484, Note_on_c, 8, 80, 0
9, 67488, Note_on_c, 8, 81, 1
9, 67488, Lyric_t, "NIGHT "
9, 67868, Note_on_c, 8, 81, 0
9, 68256, Note_on_c, 8, 73, 1
9, 68256, Lyric_t, "/THE "
9, 68348, Note_on_c, 8, 73, 0
9, 68352, Note_on_c, 8, 81, 1
9, 68352, Lyric_t, "DJ "
9, 68444, Note_on_c, 8, 81, 0
9, 68448, Note_on_c, 8, 81, 1
9, 68448, Lyric_t, "GOT "
9, 68540, Note_on_c, 8, 81, 0
9, 68544, Note_on_c, 8, 80, 1
9, 68544, Lyric_t, "US "
9, 68636, Note_on_c, 8, 80, 0
9, 68640, Note_on_c, 8, 80, 1
9, 68640, Lyric_t, "FA"
9, 68732, Note_on_c, 8, 80, 0
9, 68736, Note_on_c, 8, 78, 1
9, 68736, Lyric_t, "LLIN "
9, 68924, Note_on_c, 8, 78, 0
9, 68928, Note_on_c, 8, 76, 1
9, 68928, Lyric_t, "IN "
9, 69020, Note_on_c, 8, 76, 0
9, 69024, Note_on_c, 8, 76, 1
9, 69024, Lyric_t, "LOVE "
9, 69212, Note_on_c, 8, 76, 0
9, 69216, Note_on_c, 8, 78, 1
9, 69216, Lyric_t, "A"
9, 69308, Note_on_c, 8, 78, 0
9, 69312, Note_on_c, 8, 78, 1
9, 69312, Lyric_t, "GAIN "
9, 69692, Note_on_c, 8, 78, 0
9, 70464, Note_on_c, 8, 68, 1
9, 70464, Lyric_t, "\\CO'Z "
9, 70656, Note_on_c, 8, 68, 0
9, 70656, Note_on_c, 8, 68, 1
9, 70656, Lyric_t, "BABY "
9, 70848, Note_on_c, 8, 68, 0
9, 70848, Note_on_c, 8, 68, 1
9, 70848, Lyric_t, "TONIGHT "
9, 71040, Note_on_c, 8, 68, 0
9, 71040, Note_on_c, 8, 68, 1
9, 71040, Lyric_t, "/BABY "
9, 71232, Note_on_c, 8, 68, 0
9, 71232, Note_on_c, 8, 68, 1
9, 71232, Lyric_t, "TONIGHT "
9, 71424, Note_on_c, 8, 68, 0
9, 71424, Note_on_c, 8, 70, 1
9, 71616, Note_on_c, 8, 70, 0
9, 71616, Note_on_c, 8, 68, 1
9, 71616, Lyric_t, "\\DJ "
9, 71808, Note_on_c, 8, 68, 0
9, 72000, Note_on_c, 8, 70, 1
9, 72000, Lyric_t, "GOT US "
9, 72192, Note_on_c, 8, 70, 0
9, 72192, Note_on_c, 8, 70, 1
9, 72192, Lyric_t, "FALLIN "
9, 72384, Note_on_c, 8, 70, 0
9, 72576, Note_on_c, 8, 70, 1
9, 72576, Lyric_t, "IN LOVE "
9, 72768, Note_on_c, 8, 70, 0
9, 72768, Note_on_c, 8, 64, 1
9, 72768, Lyric_t, "AGAIN "
9, 72960, Note_on_c, 8, 68, 1
9, 73152, Note_on_c, 8, 64, 0
9, 73344, Note_on_c, 8, 68, 0
9, 73824, Note_on_c, 8, 73, 1
9, 73916, Note_on_c, 8, 73, 0
9, 73920, Note_on_c, 8, 78, 1
9, 74012, Note_on_c, 8, 78, 0
9, 74016, Note_on_c, 8, 81, 1
9, 74204, Note_on_c, 8, 81, 0
9, 74208, Note_on_c, 8, 80, 1
9, 74208, Lyric_t, "/EDITED BY MOJACKO "
9, 74396, Note_on_c, 8, 80, 0
9, 74400, Note_on_c, 8, 78, 1
9, 74492, Note_on_c, 8, 78, 0
9, 74496, Note_on_c, 8, 80, 1
9, 74780, Note_on_c, 8, 80, 0
9, 74784, Note_on_c, 8, 78, 1
9, 74784, Lyric_t, "\\undagrwnd@yahoo.com "
9, 75068, Note_on_c, 8, 78, 0
9, 75072, Note_on_c, 8, 76, 1
9, 75260, Note_on_c, 8, 76, 0
9, 75264, Note_on_c, 8, 78, 1
9, 75264, Lyric_t, "/GLENNFRED Q, PAMINTUAN "
9, 75548, Note_on_c, 8, 78, 0
9, 75552, Note_on_c, 8, 76, 1
9, 75836, Note_on_c, 8, 76, 0
9, 75840, Note_on_c, 8, 69, 1
9, 75840, Lyric_t, "\\GOD BLESS "
9, 76316, Note_on_c, 8, 69, 0
9, 76795, Control_c, 8, 101, 0
9, 76796, Control_c, 8, 100, 0
9, 76797, Control_c, 8, 6, 12
9, 76798, Control_c, 8, 38, 0
9, 76800, Control_c, 8, 10, 64
9, 76800, Control_c, 8, 7, 100
9, 76800, Pitch_bend_c, 8, 8192
9, 76800, Program_c, 8, 0
9, 76800, Control_c, 8, 101, 0
9, 76801, Control_c, 8, 100, 0
9, 76802, Control_c, 8, 6, 12
9, 76803, Control_c, 8, 38, 0
9, 76803, Control_c, 8, 10, 64
9, 76803, Control_c, 8, 7, 100
9, 76803, Control_c, 8, 101, 0
9, 76804, Control_c, 8, 100, 0
9, 76805, Control_c, 8, 6, 12
9, 76806, Control_c, 8, 38, 0
9, 76806, Control_c, 8, 10, 64
9, 76806, Control_c, 8, 7, 100
9, 76806, Pitch_bend_c, 8, 8192
9, 76806, Program_c, 8, 0
9, 76806, End_track
10, 0, Start_track
10, 0, Channel_prefix, 10
10, 0, Title_t, "Keys (MIDI"
10, 0, Program_c, 10, 81
10, 0, Control_c, 10, 7, 94
10, 0, Control_c, 10, 10, 64
10, 0, Control_c, 10, 91, 56
10, 0, Control_c, 10, 93, 23
10, 0, Control_c, 10, 11, 127
10, 0, Control_c, 10, 101, 0
10, 1, Control_c, 10, 100, 0
10, 2, Control_c, 10, 6, 12
10, 3, Control_c, 10, 38, 0
10, 3, Control_c, 10, 10, 64
10, 3, Control_c, 10, 11, 127
10, 3, Control_c, 10, 101, 0
10, 4, Control_c, 10, 100, 0
10, 5, Control_c, 10, 6, 12
10, 6, Control_c, 10, 38, 0
10, 6, Control_c, 10, 10, 64
10, 6, Control_c, 10, 11, 127
10, 6, Control_c, 10, 10, 64
10, 6, Control_c, 10, 11, 127
10, 6, Control_c, 10, 101, 0
10, 7, Control_c, 10, 100, 0
10, 8, Control_c, 10, 6, 12
10, 9, Control_c, 10, 38, 0
10, 9, Control_c, 10, 10, 64
10, 9, Control_c, 10, 11, 127
10, 9, Control_c, 10, 10, 64
10, 9, Control_c, 10, 11, 127
10, 9, Pitch_bend_c, 10, 8192
10, 9, Note_on_c, 10, 57, 100
10, 9, Note_on_c, 10, 54, 100
10, 188, Note_on_c, 10, 54, 0
10, 188, Note_on_c, 10, 57, 0
10, 192, Note_on_c, 10, 57, 100
10, 192, Note_on_c, 10, 54, 100
10, 380, Note_on_c, 10, 54, 0
10, 380, Note_on_c, 10, 57, 0
10, 384, Note_on_c, 10, 57, 100
10, 384, Note_on_c, 10, 54, 100
10, 524, Note_on_c, 10, 54, 0
10, 524, Note_on_c, 10, 57, 0
10, 528, Note_on_c, 10, 57, 100
10, 528, Note_on_c, 10, 61, 100
10, 668, Note_on_c, 10, 61, 0
10, 668, Note_on_c, 10, 57, 0
10, 672, Note_on_c, 10, 61, 100
10, 672, Note_on_c, 10, 57, 100
10, 764, Note_on_c, 10, 57, 0
10, 764, Note_on_c, 10, 61, 0
10, 768, Note_on_c, 10, 52, 100
10, 768, Note_on_c, 10, 56, 100
10, 956, Note_on_c, 10, 56, 0
10, 956, Note_on_c, 10, 52, 0
10, 960, Note_on_c, 10, 52, 100
10, 960, Note_on_c, 10, 56, 100
10, 1148, Note_on_c, 10, 56, 0
10, 1148, Note_on_c, 10, 52, 0
10, 1152, Note_on_c, 10, 56, 100
10, 1152, Note_on_c, 10, 52, 100
10, 1292, Note_on_c, 10, 52, 0
10, 1292, Note_on_c, 10, 56, 0
10, 1296, Note_on_c, 10, 61, 100
10, 1296, Note_on_c, 10, 57, 100
10, 1436, Note_on_c, 10, 57, 0
10, 1436, Note_on_c, 10, 61, 0
10, 1440, Note_on_c, 10, 61, 100
10, 1440, Note_on_c, 10, 57, 100
10, 1532, Note_on_c, 10, 57, 0
10, 1532, Note_on_c, 10, 61, 0
10, 1536, Note_on_c, 10, 54, 100
10, 1536, Note_on_c, 10, 50, 100
10, 1724, Note_on_c, 10, 50, 0
10, 1724, Note_on_c, 10, 54, 0
10, 1728, Note_on_c, 10, 54, 100
10, 1728, Note_on_c, 10, 50, 100
10, 1916, Note_on_c, 10, 50, 0
10, 1916, Note_on_c, 10, 54, 0
10, 1920, Note_on_c, 10, 50, 100
10, 1920, Note_on_c, 10, 54, 100
10, 2060, Note_on_c, 10, 54, 0
10, 2060, Note_on_c, 10, 50, 0
10, 2064, Note_on_c, 10, 57, 100
10, 2064, Note_on_c, 10, 61, 100
10, 2204, Note_on_c, 10, 61, 0
10, 2204, Note_on_c, 10, 57, 0
10, 2208, Note_on_c, 10, 61, 100
10, 2208, Note_on_c, 10, 57, 100
10, 2300, Note_on_c, 10, 57, 0
10, 2300, Note_on_c, 10, 61, 0
10, 2304, Note_on_c, 10, 50, 100
10, 2304, Note_on_c, 10, 54, 100
10, 2492, Note_on_c, 10, 54, 0
10, 2492, Note_on_c, 10, 50, 0
10, 2496, Note_on_c, 10, 54, 100
10, 2496, Note_on_c, 10, 50, 100
10, 2684, Note_on_c, 10, 50, 0
10, 2684, Note_on_c, 10, 54, 0
10, 2688, Note_on_c, 10, 54, 100
10, 2688, Note_on_c, 10, 50, 100
10, 2828, Note_on_c, 10, 50, 0
10, 2828, Note_on_c, 10, 54, 0
10, 2832, Note_on_c, 10, 57, 100
10, 2832, Note_on_c, 10, 61, 100
10, 2972, Note_on_c, 10, 61, 0
10, 2972, Note_on_c, 10, 57, 0
10, 2976, Note_on_c, 10, 57, 100
10, 2976, Note_on_c, 10, 61, 100
10, 3068, Note_on_c, 10, 61, 0
10, 3068, Note_on_c, 10, 57, 0
10, 3072, Note_on_c, 10, 54, 100
10, 3260, Note_on_c, 10, 54, 0
10, 3264, Note_on_c, 10, 54, 100
10, 3452, Note_on_c, 10, 54, 0
10, 3456, Note_on_c, 10, 54, 100
10, 3596, Note_on_c, 10, 54, 0
10, 3600, Note_on_c, 10, 57, 100
10, 3740, Note_on_c, 10, 57, 0
10, 3744, Note_on_c, 10, 57, 100
10, 3836, Note_on_c, 10, 57, 0
10, 3840, Note_on_c, 10, 52, 100
10, 4028, Note_on_c, 10, 52, 0
10, 4032, Note_on_c, 10, 52, 100
10, 4220, Note_on_c, 10, 52, 0
10, 4224, Note_on_c, 10, 52, 100
10, 4364, Note_on_c, 10, 52, 0
10, 4368, Note_on_c, 10, 57, 100
10, 4508, Note_on_c, 10, 57, 0
10, 4512, Note_on_c, 10, 57, 100
10, 4604, Note_on_c, 10, 57, 0
10, 4608, Note_on_c, 10, 50, 100
10, 4796, Note_on_c, 10, 50, 0
10, 4800, Note_on_c, 10, 50, 100
10, 4988, Note_on_c, 10, 50, 0
10, 4992, Note_on_c, 10, 50, 100
10, 5132, Note_on_c, 10, 50, 0
10, 5136, Note_on_c, 10, 57, 100
10, 5276, Note_on_c, 10, 57, 0
10, 5280, Note_on_c, 10, 57, 100
10, 5372, Note_on_c, 10, 57, 0
10, 5376, Note_on_c, 10, 50, 100
10, 5564, Note_on_c, 10, 50, 0
10, 5568, Note_on_c, 10, 50, 100
10, 5756, Note_on_c, 10, 50, 0
10, 5760, Note_on_c, 10, 50, 100
10, 5900, Note_on_c, 10, 50, 0
10, 5904, Note_on_c, 10, 57, 100
10, 6044, Note_on_c, 10, 57, 0
10, 6048, Note_on_c, 10, 57, 100
10, 6140, Note_on_c, 10, 57, 0
10, 6144, Note_on_c, 10, 54, 100
10, 6332, Note_on_c, 10, 54, 0
10, 6336, Note_on_c, 10, 54, 100
10, 6524, Note_on_c, 10, 54, 0
10, 6528, Note_on_c, 10, 54, 100
10, 6668, Note_on_c, 10, 54, 0
10, 6672, Note_on_c, 10, 57, 100
10, 6812, Note_on_c, 10, 57, 0
10, 6816, Note_on_c, 10, 57, 100
10, 6908, Note_on_c, 10, 57, 0
10, 6912, Note_on_c, 10, 52, 100
10, 7100, Note_on_c, 10, 52, 0
10, 7104, Note_on_c, 10, 52, 100
10, 7292, Note_on_c, 10, 52, 0
10, 7296, Note_on_c, 10, 52, 100
10, 7436, Note_on_c, 10, 52, 0
10, 7440, Note_on_c, 10, 57, 100
10, 7580, Note_on_c, 10, 57, 0
10, 7584, Note_on_c, 10, 57, 100
10, 7676, Note_on_c, 10, 57, 0
10, 7680, Note_on_c, 10, 50, 100
10, 7868, Note_on_c, 10, 50, 0
10, 7872, Note_on_c, 10, 50, 100
10, 8060, Note_on_c, 10, 50, 0
10, 8064, Note_on_c, 10, 50, 100
10, 8204, Note_on_c, 10, 50, 0
10, 8208, Note_on_c, 10, 57, 100
10, 8348, Note_on_c, 10, 57, 0
10, 8352, Note_on_c, 10, 57, 100
10, 8444, Note_on_c, 10, 57, 0
10, 8448, Note_on_c, 10, 50, 100
10, 8636, Note_on_c, 10, 50, 0
10, 8640, Note_on_c, 10, 50, 100
10, 8828, Note_on_c, 10, 50, 0
10, 8832, Note_on_c, 10, 50, 100
10, 8972, Note_on_c, 10, 50, 0
10, 8976, Note_on_c, 10, 57, 100
10, 9116, Note_on_c, 10, 57, 0
10, 9120, Note_on_c, 10, 57, 100
10, 9212, Note_on_c, 10, 57, 0
10, 9216, Note_on_c, 10, 57, 100
10, 9216, Note_on_c, 10, 54, 100
10, 9404, Note_on_c, 10, 54, 0
10, 9404, Note_on_c, 10, 57, 0
10, 9408, Note_on_c, 10, 57, 100
10, 9408, Note_on_c, 10, 54, 100
10, 9596, Note_on_c, 10, 54, 0
10, 9596, Note_on_c, 10, 57, 0
10, 9600, Note_on_c, 10, 57, 100
10, 9600, Note_on_c, 10, 54, 100
10, 9740, Note_on_c, 10, 54, 0
10, 9740, Note_on_c, 10, 57, 0
10, 9744, Note_on_c, 10, 57, 100
10, 9744, Note_on_c, 10, 61, 100
10, 9884, Note_on_c, 10, 61, 0
10, 9884, Note_on_c, 10, 57, 0
10, 9888, Note_on_c, 10, 61, 100
10, 9888, Note_on_c, 10, 57, 100
10, 9980, Note_on_c, 10, 57, 0
10, 9980, Note_on_c, 10, 61, 0
10, 9984, Note_on_c, 10, 52, 100
10, 9984, Note_on_c, 10, 56, 100
10, 10172, Note_on_c, 10, 56, 0
10, 10172, Note_on_c, 10, 52, 0
10, 10176, Note_on_c, 10, 52, 100
10, 10176, Note_on_c, 10, 56, 100
10, 10364, Note_on_c, 10, 56, 0
10, 10364, Note_on_c, 10, 52, 0
10, 10368, Note_on_c, 10, 56, 100
10, 10368, Note_on_c, 10, 52, 100
10, 10508, Note_on_c, 10, 52, 0
10, 10508, Note_on_c, 10, 56, 0
10, 10512, Note_on_c, 10, 61, 100
10, 10512, Note_on_c, 10, 57, 100
10, 10652, Note_on_c, 10, 57, 0
10, 10652, Note_on_c, 10, 61, 0
10, 10656, Note_on_c, 10, 61, 100
10, 10656, Note_on_c, 10, 57, 100
10, 10748, Note_on_c, 10, 57, 0
10, 10748, Note_on_c, 10, 61, 0
10, 10752, Note_on_c, 10, 54, 100
10, 10752, Note_on_c, 10, 50, 100
10, 10940, Note_on_c, 10, 50, 0
10, 10940, Note_on_c, 10, 54, 0
10, 10944, Note_on_c, 10, 54, 100
10, 10944, Note_on_c, 10, 50, 100
10, 11132, Note_on_c, 10, 50, 0
10, 11132, Note_on_c, 10, 54, 0
10, 11136, Note_on_c, 10, 50, 100
10, 11136, Note_on_c, 10, 54, 100
10, 11276, Note_on_c, 10, 54, 0
10, 11276, Note_on_c, 10, 50, 0
10, 11280, Note_on_c, 10, 57, 100
10, 11280, Note_on_c, 10, 61, 100
10, 11420, Note_on_c, 10, 61, 0
10, 11420, Note_on_c, 10, 57, 0
10, 11424, Note_on_c, 10, 61, 100
10, 11424, Note_on_c, 10, 57, 100
10, 11516, Note_on_c, 10, 57, 0
10, 11516, Note_on_c, 10, 61, 0
10, 11520, Note_on_c, 10, 50, 100
10, 11520, Note_on_c, 10, 54, 100
10, 11708, Note_on_c, 10, 54, 0
10, 11708, Note_on_c, 10, 50, 0
10, 11712, Note_on_c, 10, 54, 100
10, 11712, Note_on_c, 10, 50, 100
10, 11900, Note_on_c, 10, 50, 0
10, 11900, Note_on_c, 10, 54, 0
10, 11904, Note_on_c, 10, 54, 100
10, 11904, Note_on_c, 10, 50, 100
10, 12044, Note_on_c, 10, 50, 0
10, 12044, Note_on_c, 10, 54, 0
10, 12048, Note_on_c, 10, 57, 100
10, 12048, Note_on_c, 10, 61, 100
10, 12188, Note_on_c, 10, 61, 0
10, 12188, Note_on_c, 10, 57, 0
10, 12192, Note_on_c, 10, 57, 100
10, 12192, Note_on_c, 10, 61, 100
10, 12284, Note_on_c, 10, 61, 0
10, 12284, Note_on_c, 10, 57, 0
10, 12288, Note_on_c, 10, 54, 100
10, 12476, Note_on_c, 10, 54, 0
10, 12480, Note_on_c, 10, 54, 100
10, 12668, Note_on_c, 10, 54, 0
10, 12672, Note_on_c, 10, 54, 100
10, 12812, Note_on_c, 10, 54, 0
10, 12816, Note_on_c, 10, 57, 100
10, 12956, Note_on_c, 10, 57, 0
10, 12960, Note_on_c, 10, 57, 100
10, 13052, Note_on_c, 10, 57, 0
10, 13056, Note_on_c, 10, 52, 100
10, 13244, Note_on_c, 10, 52, 0
10, 13248, Note_on_c, 10, 52, 100
10, 13436, Note_on_c, 10, 52, 0
10, 13440, Note_on_c, 10, 52, 100
10, 13580, Note_on_c, 10, 52, 0
10, 13584, Note_on_c, 10, 57, 100
10, 13724, Note_on_c, 10, 57, 0
10, 13728, Note_on_c, 10, 57, 100
10, 13820, Note_on_c, 10, 57, 0
10, 13824, Note_on_c, 10, 50, 100
10, 14012, Note_on_c, 10, 50, 0
10, 14016, Note_on_c, 10, 50, 100
10, 14204, Note_on_c, 10, 50, 0
10, 14208, Note_on_c, 10, 50, 100
10, 14348, Note_on_c, 10, 50, 0
10, 14352, Note_on_c, 10, 57, 100
10, 14492, Note_on_c, 10, 57, 0
10, 14496, Note_on_c, 10, 57, 100
10, 14588, Note_on_c, 10, 57, 0
10, 14592, Note_on_c, 10, 50, 100
10, 14780, Note_on_c, 10, 50, 0
10, 14784, Note_on_c, 10, 50, 100
10, 14972, Note_on_c, 10, 50, 0
10, 15360, Note_on_c, 10, 61, 100
10, 15360, Note_on_c, 10, 57, 100
10, 15360, Note_on_c, 10, 54, 100
10, 15548, Note_on_c, 10, 54, 0
10, 15548, Note_on_c, 10, 57, 0
10, 15548, Note_on_c, 10, 61, 0
10, 15552, Note_on_c, 10, 54, 100
10, 15552, Note_on_c, 10, 57, 100
10, 15552, Note_on_c, 10, 61, 100
10, 15740, Note_on_c, 10, 61, 0
10, 15740, Note_on_c, 10, 57, 0
10, 15740, Note_on_c, 10, 54, 0
10, 15744, Note_on_c, 10, 54, 100
10, 15744, Note_on_c, 10, 57, 100
10, 15744, Note_on_c, 10, 61, 100
10, 15932, Note_on_c, 10, 61, 0
10, 15932, Note_on_c, 10, 57, 0
10, 15932, Note_on_c, 10, 54, 0
10, 15936, Note_on_c, 10, 61, 100
10, 15936, Note_on_c, 10, 57, 100
10, 15936, Note_on_c, 10, 54, 100
10, 16124, Note_on_c, 10, 54, 0
10, 16124, Note_on_c, 10, 57, 0
10, 16124, Note_on_c, 10, 61, 0
10, 16128, Note_on_c, 10, 52, 100
10, 16128, Note_on_c, 10, 59, 100
10, 16128, Note_on_c, 10, 56, 100
10, 16316, Note_on_c, 10, 56, 0
10, 16316, Note_on_c, 10, 59, 0
10, 16316, Note_on_c, 10, 52, 0
10, 16320, Note_on_c, 10, 52, 100
10, 16320, Note_on_c, 10, 59, 100
10, 16320, Note_on_c, 10, 56, 100
10, 16508, Note_on_c, 10, 56, 0
10, 16508, Note_on_c, 10, 59, 0
10, 16508, Note_on_c, 10, 52, 0
10, 16512, Note_on_c, 10, 59, 100
10, 16512, Note_on_c, 10, 52, 100
10, 16512, Note_on_c, 10, 56, 100
10, 16700, Note_on_c, 10, 56, 0
10, 16700, Note_on_c, 10, 52, 0
10, 16700, Note_on_c, 10, 59, 0
10, 16704, Note_on_c, 10, 59, 100
10, 16704, Note_on_c, 10, 52, 100
10, 16704, Note_on_c, 10, 56, 100
10, 16892, Note_on_c, 10, 56, 0
10, 16892, Note_on_c, 10, 52, 0
10, 16892, Note_on_c, 10, 59, 0
10, 16896, Note_on_c, 10, 57, 100
10, 16896, Note_on_c, 10, 54, 100
10, 16896, Note_on_c, 10, 50, 100
10, 17084, Note_on_c, 10, 50, 0
10, 17084, Note_on_c, 10, 54, 0
10, 17084, Note_on_c, 10, 57, 0
10, 17088, Note_on_c, 10, 50, 100
10, 17088, Note_on_c, 10, 54, 100
10, 17088, Note_on_c, 10, 57, 100
10, 17276, Note_on_c, 10, 57, 0
10, 17276, Note_on_c, 10, 54, 0
10, 17276, Note_on_c, 10, 50, 0
10, 17280, Note_on_c, 10, 54, 100
10, 17280, Note_on_c, 10, 57, 100
10, 17280, Note_on_c, 10, 50, 100
10, 17468, Note_on_c, 10, 50, 0
10, 17468, Note_on_c, 10, 57, 0
10, 17468, Note_on_c, 10, 54, 0
10, 17472, Note_on_c, 10, 50, 100
10, 17472, Note_on_c, 10, 57, 100
10, 17472, Note_on_c, 10, 54, 100
10, 17660, Note_on_c, 10, 54, 0
10, 17660, Note_on_c, 10, 57, 0
10, 17660, Note_on_c, 10, 50, 0
10, 17664, Note_on_c, 10, 50, 100
10, 17664, Note_on_c, 10, 54, 100
10, 17664, Note_on_c, 10, 57, 100
10, 17852, Note_on_c, 10, 57, 0
10, 17852, Note_on_c, 10, 54, 0
10, 17852, Note_on_c, 10, 50, 0
10, 17856, Note_on_c, 10, 50, 100
10, 17856, Note_on_c, 10, 54, 100
10, 17856, Note_on_c, 10, 57, 100
10, 18044, Note_on_c, 10, 57, 0
10, 18044, Note_on_c, 10, 54, 0
10, 18044, Note_on_c, 10, 50, 0
10, 18048, Note_on_c, 10, 50, 100
10, 18048, Note_on_c, 10, 57, 100
10, 18048, Note_on_c, 10, 54, 100
10, 18236, Note_on_c, 10, 54, 0
10, 18236, Note_on_c, 10, 57, 0
10, 18236, Note_on_c, 10, 50, 0
10, 18240, Note_on_c, 10, 50, 100
10, 18240, Note_on_c, 10, 57, 100
10, 18240, Note_on_c, 10, 54, 100
10, 18428, Note_on_c, 10, 54, 0
10, 18428, Note_on_c, 10, 57, 0
10, 18428, Note_on_c, 10, 50, 0
10, 18432, Note_on_c, 10, 61, 100
10, 18432, Note_on_c, 10, 57, 100
10, 18432, Note_on_c, 10, 54, 100
10, 18620, Note_on_c, 10, 54, 0
10, 18620, Note_on_c, 10, 57, 0
10, 18620, Note_on_c, 10, 61, 0
10, 18624, Note_on_c, 10, 54, 100
10, 18624, Note_on_c, 10, 57, 100
10, 18624, Note_on_c, 10, 61, 100
10, 18812, Note_on_c, 10, 61, 0
10, 18812, Note_on_c, 10, 57, 0
10, 18812, Note_on_c, 10, 54, 0
10, 18816, Note_on_c, 10, 54, 100
10, 18816, Note_on_c, 10, 57, 100
10, 18816, Note_on_c, 10, 61, 100
10, 19004, Note_on_c, 10, 61, 0
10, 19004, Note_on_c, 10, 57, 0
10, 19004, Note_on_c, 10, 54, 0
10, 19008, Note_on_c, 10, 61, 100
10, 19008, Note_on_c, 10, 57, 100
10, 19008, Note_on_c, 10, 54, 100
10, 19196, Note_on_c, 10, 54, 0
10, 19196, Note_on_c, 10, 57, 0
10, 19196, Note_on_c, 10, 61, 0
10, 19200, Note_on_c, 10, 52, 100
10, 19200, Note_on_c, 10, 59, 100
10, 19200, Note_on_c, 10, 56, 100
10, 19388, Note_on_c, 10, 56, 0
10, 19388, Note_on_c, 10, 59, 0
10, 19388, Note_on_c, 10, 52, 0
10, 19392, Note_on_c, 10, 52, 100
10, 19392, Note_on_c, 10, 59, 100
10, 19392, Note_on_c, 10, 56, 100
10, 19580, Note_on_c, 10, 56, 0
10, 19580, Note_on_c, 10, 59, 0
10, 19580, Note_on_c, 10, 52, 0
10, 19584, Note_on_c, 10, 59, 100
10, 19584, Note_on_c, 10, 52, 100
10, 19584, Note_on_c, 10, 56, 100
10, 19772, Note_on_c, 10, 56, 0
10, 19772, Note_on_c, 10, 52, 0
10, 19772, Note_on_c, 10, 59, 0
10, 19776, Note_on_c, 10, 59, 100
10, 19776, Note_on_c, 10, 52, 100
10, 19776, Note_on_c, 10, 56, 100
10, 19964, Note_on_c, 10, 56, 0
10, 19964, Note_on_c, 10, 52, 0
10, 19964, Note_on_c, 10, 59, 0
10, 19968, Note_on_c, 10, 57, 100
10, 19968, Note_on_c, 10, 54, 100
10, 19968, Note_on_c, 10, 50, 100
10, 20156, Note_on_c, 10, 50, 0
10, 20156, Note_on_c, 10, 54, 0
10, 20156, Note_on_c, 10, 57, 0
10, 20160, Note_on_c, 10, 50, 100
10, 20160, Note_on_c, 10, 54, 100
10, 20160, Note_on_c, 10, 57, 100
10, 20348, Note_on_c, 10, 57, 0
10, 20348, Note_on_c, 10, 54, 0
10, 20348, Note_on_c, 10, 50, 0
10, 20352, Note_on_c, 10, 54, 100
10, 20352, Note_on_c, 10, 57, 100
10, 20352, Note_on_c, 10, 50, 100
10, 20540, Note_on_c, 10, 50, 0
10, 20540, Note_on_c, 10, 57, 0
10, 20540, Note_on_c, 10, 54, 0
10, 20544, Note_on_c, 10, 50, 100
10, 20544, Note_on_c, 10, 57, 100
10, 20544, Note_on_c, 10, 54, 100
10, 20732, Note_on_c, 10, 54, 0
10, 20732, Note_on_c, 10, 57, 0
10, 20732, Note_on_c, 10, 50, 0
10, 20736, Note_on_c, 10, 50, 100
10, 20736, Note_on_c, 10, 54, 100
10, 20736, Note_on_c, 10, 57, 100
10, 20924, Note_on_c, 10, 57, 0
10, 20924, Note_on_c, 10, 54, 0
10, 20924, Note_on_c, 10, 50, 0
10, 20928, Note_on_c, 10, 50, 100
10, 20928, Note_on_c, 10, 54, 100
10, 20928, Note_on_c, 10, 57, 100
10, 21116, Note_on_c, 10, 57, 0
10, 21116, Note_on_c, 10, 54, 0
10, 21116, Note_on_c, 10, 50, 0
10, 21120, Note_on_c, 10, 50, 100
10, 21120, Note_on_c, 10, 57, 100
10, 21120, Note_on_c, 10, 54, 100
10, 21308, Note_on_c, 10, 54, 0
10, 21308, Note_on_c, 10, 57, 0
10, 21308, Note_on_c, 10, 50, 0
10, 21312, Note_on_c, 10, 50, 100
10, 21312, Note_on_c, 10, 57, 100
10, 21312, Note_on_c, 10, 54, 100
10, 21500, Note_on_c, 10, 54, 0
10, 21500, Note_on_c, 10, 57, 0
10, 21500, Note_on_c, 10, 50, 0
10, 21504, Note_on_c, 10, 61, 100
10, 21504, Note_on_c, 10, 57, 100
10, 21504, Note_on_c, 10, 54, 100
10, 21692, Note_on_c, 10, 54, 0
10, 21692, Note_on_c, 10, 57, 0
10, 21692, Note_on_c, 10, 61, 0
10, 21696, Note_on_c, 10, 54, 100
10, 21696, Note_on_c, 10, 57, 100
10, 21696, Note_on_c, 10, 61, 100
10, 21884, Note_on_c, 10, 61, 0
10, 21884, Note_on_c, 10, 57, 0
10, 21884, Note_on_c, 10, 54, 0
10, 21888, Note_on_c, 10, 54, 100
10, 21888, Note_on_c, 10, 57, 100
10, 21888, Note_on_c, 10, 61, 100
10, 22076, Note_on_c, 10, 61, 0
10, 22076, Note_on_c, 10, 57, 0
10, 22076, Note_on_c, 10, 54, 0
10, 22080, Note_on_c, 10, 61, 100
10, 22080, Note_on_c, 10, 57, 100
10, 22080, Note_on_c, 10, 54, 100
10, 22268, Note_on_c, 10, 54, 0
10, 22268, Note_on_c, 10, 57, 0
10, 22268, Note_on_c, 10, 61, 0
10, 22272, Note_on_c, 10, 52, 100
10, 22272, Note_on_c, 10, 59, 100
10, 22272, Note_on_c, 10, 56, 100
10, 22460, Note_on_c, 10, 56, 0
10, 22460, Note_on_c, 10, 59, 0
10, 22460, Note_on_c, 10, 52, 0
10, 22464, Note_on_c, 10, 52, 100
10, 22464, Note_on_c, 10, 59, 100
10, 22464, Note_on_c, 10, 56, 100
10, 22652, Note_on_c, 10, 56, 0
10, 22652, Note_on_c, 10, 59, 0
10, 22652, Note_on_c, 10, 52, 0
10, 22656, Note_on_c, 10, 59, 100
10, 22656, Note_on_c, 10, 52, 100
10, 22656, Note_on_c, 10, 56, 100
10, 22844, Note_on_c, 10, 56, 0
10, 22844, Note_on_c, 10, 52, 0
10, 22844, Note_on_c, 10, 59, 0
10, 22848, Note_on_c, 10, 59, 100
10, 22848, Note_on_c, 10, 52, 100
10, 22848, Note_on_c, 10, 56, 100
10, 23036, Note_on_c, 10, 56, 0
10, 23036, Note_on_c, 10, 52, 0
10, 23036, Note_on_c, 10, 59, 0
10, 23040, Note_on_c, 10, 57, 100
10, 23040, Note_on_c, 10, 54, 100
10, 23040, Note_on_c, 10, 50, 100
10, 23228, Note_on_c, 10, 50, 0
10, 23228, Note_on_c, 10, 54, 0
10, 23228, Note_on_c, 10, 57, 0
10, 23232, Note_on_c, 10, 50, 100
10, 23232, Note_on_c, 10, 54, 100
10, 23232, Note_on_c, 10, 57, 100
10, 23420, Note_on_c, 10, 57, 0
10, 23420, Note_on_c, 10, 54, 0
10, 23420, Note_on_c, 10, 50, 0
10, 23424, Note_on_c, 10, 54, 100
10, 23424, Note_on_c, 10, 57, 100
10, 23424, Note_on_c, 10, 50, 100
10, 23612, Note_on_c, 10, 50, 0
10, 23612, Note_on_c, 10, 57, 0
10, 23612, Note_on_c, 10, 54, 0
10, 23616, Note_on_c, 10, 50, 100
10, 23616, Note_on_c, 10, 57, 100
10, 23616, Note_on_c, 10, 54, 100
10, 23804, Note_on_c, 10, 54, 0
10, 23804, Note_on_c, 10, 57, 0
10, 23804, Note_on_c, 10, 50, 0
10, 23808, Note_on_c, 10, 50, 100
10, 23808, Note_on_c, 10, 54, 100
10, 23808, Note_on_c, 10, 57, 100
10, 23996, Note_on_c, 10, 57, 0
10, 23996, Note_on_c, 10, 54, 0
10, 23996, Note_on_c, 10, 50, 0
10, 24000, Note_on_c, 10, 50, 100
10, 24000, Note_on_c, 10, 54, 100
10, 24000, Note_on_c, 10, 57, 100
10, 24188, Note_on_c, 10, 57, 0
10, 24188, Note_on_c, 10, 54, 0
10, 24188, Note_on_c, 10, 50, 0
10, 24192, Note_on_c, 10, 50, 100
10, 24192, Note_on_c, 10, 57, 100
10, 24192, Note_on_c, 10, 54, 100
10, 24380, Note_on_c, 10, 54, 0
10, 24380, Note_on_c, 10, 57, 0
10, 24380, Note_on_c, 10, 50, 0
10, 24384, Note_on_c, 10, 50, 100
10, 24384, Note_on_c, 10, 57, 100
10, 24384, Note_on_c, 10, 54, 100
10, 24572, Note_on_c, 10, 54, 0
10, 24572, Note_on_c, 10, 57, 0
10, 24572, Note_on_c, 10, 50, 0
10, 24576, Note_on_c, 10, 61, 100
10, 24576, Note_on_c, 10, 57, 100
10, 24576, Note_on_c, 10, 54, 100
10, 24764, Note_on_c, 10, 54, 0
10, 24764, Note_on_c, 10, 57, 0
10, 24764, Note_on_c, 10, 61, 0
10, 24768, Note_on_c, 10, 54, 100
10, 24768, Note_on_c, 10, 57, 100
10, 24768, Note_on_c, 10, 61, 100
10, 24956, Note_on_c, 10, 61, 0
10, 24956, Note_on_c, 10, 57, 0
10, 24956, Note_on_c, 10, 54, 0
10, 24960, Note_on_c, 10, 54, 100
10, 24960, Note_on_c, 10, 57, 100
10, 24960, Note_on_c, 10, 61, 100
10, 25148, Note_on_c, 10, 61, 0
10, 25148, Note_on_c, 10, 57, 0
10, 25148, Note_on_c, 10, 54, 0
10, 25152, Note_on_c, 10, 61, 100
10, 25152, Note_on_c, 10, 57, 100
10, 25152, Note_on_c, 10, 54, 100
10, 25340, Note_on_c, 10, 54, 0
10, 25340, Note_on_c, 10, 57, 0
10, 25340, Note_on_c, 10, 61, 0
10, 25344, Note_on_c, 10, 52, 100
10, 25344, Note_on_c, 10, 59, 100
10, 25344, Note_on_c, 10, 56, 100
10, 25532, Note_on_c, 10, 56, 0
10, 25532, Note_on_c, 10, 59, 0
10, 25532, Note_on_c, 10, 52, 0
10, 25536, Note_on_c, 10, 52, 100
10, 25536, Note_on_c, 10, 59, 100
10, 25536, Note_on_c, 10, 56, 100
10, 25724, Note_on_c, 10, 56, 0
10, 25724, Note_on_c, 10, 59, 0
10, 25724, Note_on_c, 10, 52, 0
10, 25728, Note_on_c, 10, 59, 100
10, 25728, Note_on_c, 10, 52, 100
10, 25728, Note_on_c, 10, 56, 100
10, 25916, Note_on_c, 10, 56, 0
10, 25916, Note_on_c, 10, 52, 0
10, 25916, Note_on_c, 10, 59, 0
10, 25920, Note_on_c, 10, 59, 100
10, 25920, Note_on_c, 10, 52, 100
10, 25920, Note_on_c, 10, 56, 100
10, 26108, Note_on_c, 10, 56, 0
10, 26108, Note_on_c, 10, 52, 0
10, 26108, Note_on_c, 10, 59, 0
10, 26112, Note_on_c, 10, 57, 100
10, 26112, Note_on_c, 10, 54, 100
10, 26112, Note_on_c, 10, 50, 100
10, 26300, Note_on_c, 10, 50, 0
10, 26300, Note_on_c, 10, 54, 0
10, 26300, Note_on_c, 10, 57, 0
10, 26304, Note_on_c, 10, 50, 100
10, 26304, Note_on_c, 10, 54, 100
10, 26304, Note_on_c, 10, 57, 100
10, 26492, Note_on_c, 10, 57, 0
10, 26492, Note_on_c, 10, 54, 0
10, 26492, Note_on_c, 10, 50, 0
10, 26496, Note_on_c, 10, 54, 100
10, 26496, Note_on_c, 10, 57, 100
10, 26496, Note_on_c, 10, 50, 100
10, 26684, Note_on_c, 10, 50, 0
10, 26684, Note_on_c, 10, 57, 0
10, 26684, Note_on_c, 10, 54, 0
10, 26688, Note_on_c, 10, 50, 100
10, 26688, Note_on_c, 10, 57, 100
10, 26688, Note_on_c, 10, 54, 100
10, 26876, Note_on_c, 10, 54, 0
10, 26876, Note_on_c, 10, 57, 0
10, 26876, Note_on_c, 10, 50, 0
10, 26880, Note_on_c, 10, 50, 100
10, 26880, Note_on_c, 10, 54, 100
10, 26880, Note_on_c, 10, 57, 100
10, 27068, Note_on_c, 10, 57, 0
10, 27068, Note_on_c, 10, 54, 0
10, 27068, Note_on_c, 10, 50, 0
10, 27072, Note_on_c, 10, 50, 100
10, 27072, Note_on_c, 10, 54, 100
10, 27072, Note_on_c, 10, 57, 100
10, 27260, Note_on_c, 10, 57, 0
10, 27260, Note_on_c, 10, 54, 0
10, 27260, Note_on_c, 10, 50, 0
10, 27264, Note_on_c, 10, 50, 100
10, 27264, Note_on_c, 10, 57, 100
10, 27264, Note_on_c, 10, 54, 100
10, 27452, Note_on_c, 10, 54, 0
10, 27452, Note_on_c, 10, 57, 0
10, 27452, Note_on_c, 10, 50, 0
10, 27456, Note_on_c, 10, 50, 100
10, 27456, Note_on_c, 10, 57, 100
10, 27456, Note_on_c, 10, 54, 100
10, 27644, Note_on_c, 10, 54, 0
10, 27644, Note_on_c, 10, 57, 0
10, 27644, Note_on_c, 10, 50, 0
10, 27648, Note_on_c, 10, 57, 100
10, 27648, Note_on_c, 10, 54, 100
10, 27836, Note_on_c, 10, 54, 0
10, 27836, Note_on_c, 10, 57, 0
10, 27840, Note_on_c, 10, 57, 100
10, 27840, Note_on_c, 10, 54, 100
10, 28028, Note_on_c, 10, 54, 0
10, 28028, Note_on_c, 10, 57, 0
10, 28032, Note_on_c, 10, 57, 100
10, 28032, Note_on_c, 10, 54, 100
10, 28172, Note_on_c, 10, 54, 0
10, 28172, Note_on_c, 10, 57, 0
10, 28176, Note_on_c, 10, 57, 100
10, 28176, Note_on_c, 10, 61, 100
10, 28316, Note_on_c, 10, 61, 0
10, 28316, Note_on_c, 10, 57, 0
10, 28320, Note_on_c, 10, 61, 100
10, 28320, Note_on_c, 10, 57, 100
10, 28412, Note_on_c, 10, 57, 0
10, 28412, Note_on_c, 10, 61, 0
10, 28416, Note_on_c, 10, 52, 100
10, 28416, Note_on_c, 10, 56, 100
10, 28604, Note_on_c, 10, 56, 0
10, 28604, Note_on_c, 10, 52, 0
10, 28608, Note_on_c, 10, 52, 100
10, 28608, Note_on_c, 10, 56, 100
10, 28796, Note_on_c, 10, 56, 0
10, 28796, Note_on_c, 10, 52, 0
10, 28800, Note_on_c, 10, 56, 100
10, 28800, Note_on_c, 10, 52, 100
10, 28940, Note_on_c, 10, 52, 0
10, 28940, Note_on_c, 10, 56, 0
10, 28944, Note_on_c, 10, 61, 100
10, 28944, Note_on_c, 10, 57, 100
10, 29084, Note_on_c, 10, 57, 0
10, 29084, Note_on_c, 10, 61, 0
10, 29088, Note_on_c, 10, 61, 100
10, 29088, Note_on_c, 10, 57, 100
10, 29180, Note_on_c, 10, 57, 0
10, 29180, Note_on_c, 10, 61, 0
10, 29184, Note_on_c, 10, 54, 100
10, 29184, Note_on_c, 10, 50, 100
10, 29372, Note_on_c, 10, 50, 0
10, 29372, Note_on_c, 10, 54, 0
10, 29376, Note_on_c, 10, 54, 100
10, 29376, Note_on_c, 10, 50, 100
10, 29564, Note_on_c, 10, 50, 0
10, 29564, Note_on_c, 10, 54, 0
10, 29568, Note_on_c, 10, 50, 100
10, 29568, Note_on_c, 10, 54, 100
10, 29708, Note_on_c, 10, 54, 0
10, 29708, Note_on_c, 10, 50, 0
10, 29712, Note_on_c, 10, 57, 100
10, 29712, Note_on_c, 10, 61, 100
10, 29852, Note_on_c, 10, 61, 0
10, 29852, Note_on_c, 10, 57, 0
10, 29856, Note_on_c, 10, 61, 100
10, 29856, Note_on_c, 10, 57, 100
10, 29948, Note_on_c, 10, 57, 0
10, 29948, Note_on_c, 10, 61, 0
10, 29952, Note_on_c, 10, 50, 100
10, 29952, Note_on_c, 10, 54, 100
10, 30140, Note_on_c, 10, 54, 0
10, 30140, Note_on_c, 10, 50, 0
10, 30144, Note_on_c, 10, 54, 100
10, 30144, Note_on_c, 10, 50, 100
10, 30332, Note_on_c, 10, 50, 0
10, 30332, Note_on_c, 10, 54, 0
10, 30336, Note_on_c, 10, 54, 100
10, 30336, Note_on_c, 10, 50, 100
10, 30476, Note_on_c, 10, 50, 0
10, 30476, Note_on_c, 10, 54, 0
10, 30480, Note_on_c, 10, 57, 100
10, 30480, Note_on_c, 10, 61, 100
10, 30620, Note_on_c, 10, 61, 0
10, 30620, Note_on_c, 10, 57, 0
10, 30624, Note_on_c, 10, 57, 100
10, 30624, Note_on_c, 10, 61, 100
10, 30716, Note_on_c, 10, 61, 0
10, 30716, Note_on_c, 10, 57, 0
10, 30720, Note_on_c, 10, 57, 100
10, 30720, Note_on_c, 10, 54, 100
10, 30908, Note_on_c, 10, 54, 0
10, 30908, Note_on_c, 10, 57, 0
10, 30912, Note_on_c, 10, 57, 100
10, 30912, Note_on_c, 10, 54, 100
10, 31100, Note_on_c, 10, 54, 0
10, 31100, Note_on_c, 10, 57, 0
10, 31104, Note_on_c, 10, 57, 100
10, 31104, Note_on_c, 10, 54, 100
10, 31244, Note_on_c, 10, 54, 0
10, 31244, Note_on_c, 10, 57, 0
10, 31248, Note_on_c, 10, 57, 100
10, 31248, Note_on_c, 10, 61, 100
10, 31388, Note_on_c, 10, 61, 0
10, 31388, Note_on_c, 10, 57, 0
10, 31392, Note_on_c, 10, 61, 100
10, 31392, Note_on_c, 10, 57, 100
10, 31484, Note_on_c, 10, 57, 0
10, 31484, Note_on_c, 10, 61, 0
10, 31488, Note_on_c, 10, 52, 100
10, 31488, Note_on_c, 10, 56, 100
10, 31676, Note_on_c, 10, 56, 0
10, 31676, Note_on_c, 10, 52, 0
10, 31680, Note_on_c, 10, 52, 100
10, 31680, Note_on_c, 10, 56, 100
10, 31868, Note_on_c, 10, 56, 0
10, 31868, Note_on_c, 10, 52, 0
10, 31872, Note_on_c, 10, 56, 100
10, 31872, Note_on_c, 10, 52, 100
10, 32012, Note_on_c, 10, 52, 0
10, 32012, Note_on_c, 10, 56, 0
10, 32016, Note_on_c, 10, 61, 100
10, 32016, Note_on_c, 10, 57, 100
10, 32156, Note_on_c, 10, 57, 0
10, 32156, Note_on_c, 10, 61, 0
10, 32160, Note_on_c, 10, 61, 100
10, 32160, Note_on_c, 10, 57, 100
10, 32252, Note_on_c, 10, 57, 0
10, 32252, Note_on_c, 10, 61, 0
10, 32256, Note_on_c, 10, 54, 100
10, 32256, Note_on_c, 10, 50, 100
10, 32444, Note_on_c, 10, 50, 0
10, 32444, Note_on_c, 10, 54, 0
10, 32448, Note_on_c, 10, 54, 100
10, 32448, Note_on_c, 10, 50, 100
10, 32636, Note_on_c, 10, 50, 0
10, 32636, Note_on_c, 10, 54, 0
10, 32640, Note_on_c, 10, 50, 100
10, 32640, Note_on_c, 10, 54, 100
10, 32780, Note_on_c, 10, 54, 0
10, 32780, Note_on_c, 10, 50, 0
10, 32784, Note_on_c, 10, 57, 100
10, 32784, Note_on_c, 10, 61, 100
10, 32924, Note_on_c, 10, 61, 0
10, 32924, Note_on_c, 10, 57, 0
10, 32928, Note_on_c, 10, 61, 100
10, 32928, Note_on_c, 10, 57, 100
10, 33020, Note_on_c, 10, 57, 0
10, 33020, Note_on_c, 10, 61, 0
10, 33024, Note_on_c, 10, 50, 100
10, 33024, Note_on_c, 10, 54, 100
10, 33212, Note_on_c, 10, 54, 0
10, 33212, Note_on_c, 10, 50, 0
10, 33216, Note_on_c, 10, 54, 100
10, 33216, Note_on_c, 10, 50, 100
10, 33404, Note_on_c, 10, 50, 0
10, 33404, Note_on_c, 10, 54, 0
10, 33408, Note_on_c, 10, 54, 100
10, 33408, Note_on_c, 10, 50, 100
10, 33548, Note_on_c, 10, 50, 0
10, 33548, Note_on_c, 10, 54, 0
10, 33552, Note_on_c, 10, 57, 100
10, 33552, Note_on_c, 10, 61, 100
10, 33692, Note_on_c, 10, 61, 0
10, 33692, Note_on_c, 10, 57, 0
10, 33696, Note_on_c, 10, 57, 100
10, 33696, Note_on_c, 10, 61, 100
10, 33788, Note_on_c, 10, 61, 0
10, 33788, Note_on_c, 10, 57, 0
10, 33792, Note_on_c, 10, 57, 100
10, 33792, Note_on_c, 10, 54, 100
10, 33980, Note_on_c, 10, 54, 0
10, 33980, Note_on_c, 10, 57, 0
10, 33984, Note_on_c, 10, 57, 100
10, 33984, Note_on_c, 10, 54, 100
10, 34172, Note_on_c, 10, 54, 0
10, 34172, Note_on_c, 10, 57, 0
10, 34176, Note_on_c, 10, 57, 100
10, 34176, Note_on_c, 10, 54, 100
10, 34316, Note_on_c, 10, 54, 0
10, 34316, Note_on_c, 10, 57, 0
10, 34320, Note_on_c, 10, 57, 100
10, 34320, Note_on_c, 10, 61, 100
10, 34460, Note_on_c, 10, 61, 0
10, 34460, Note_on_c, 10, 57, 0
10, 34464, Note_on_c, 10, 61, 100
10, 34464, Note_on_c, 10, 57, 100
10, 34556, Note_on_c, 10, 57, 0
10, 34556, Note_on_c, 10, 61, 0
10, 34560, Note_on_c, 10, 52, 100
10, 34560, Note_on_c, 10, 56, 100
10, 34748, Note_on_c, 10, 56, 0
10, 34748, Note_on_c, 10, 52, 0
10, 34752, Note_on_c, 10, 52, 100
10, 34752, Note_on_c, 10, 56, 100
10, 34940, Note_on_c, 10, 56, 0
10, 34940, Note_on_c, 10, 52, 0
10, 34944, Note_on_c, 10, 56, 100
10, 34944, Note_on_c, 10, 52, 100
10, 35084, Note_on_c, 10, 52, 0
10, 35084, Note_on_c, 10, 56, 0
10, 35088, Note_on_c, 10, 61, 100
10, 35088, Note_on_c, 10, 57, 100
10, 35228, Note_on_c, 10, 57, 0
10, 35228, Note_on_c, 10, 61, 0
10, 35232, Note_on_c, 10, 61, 100
10, 35232, Note_on_c, 10, 57, 100
10, 35324, Note_on_c, 10, 57, 0
10, 35324, Note_on_c, 10, 61, 0
10, 35328, Note_on_c, 10, 54, 100
10, 35328, Note_on_c, 10, 50, 100
10, 35516, Note_on_c, 10, 50, 0
10, 35516, Note_on_c, 10, 54, 0
10, 35520, Note_on_c, 10, 54, 100
10, 35520, Note_on_c, 10, 50, 100
10, 35708, Note_on_c, 10, 50, 0
10, 35708, Note_on_c, 10, 54, 0
10, 35712, Note_on_c, 10, 50, 100
10, 35712, Note_on_c, 10, 54, 100
10, 35852, Note_on_c, 10, 54, 0
10, 35852, Note_on_c, 10, 50, 0
10, 35856, Note_on_c, 10, 57, 100
10, 35856, Note_on_c, 10, 61, 100
10, 35996, Note_on_c, 10, 61, 0
10, 35996, Note_on_c, 10, 57, 0
10, 36000, Note_on_c, 10, 61, 100
10, 36000, Note_on_c, 10, 57, 100
10, 36092, Note_on_c, 10, 57, 0
10, 36092, Note_on_c, 10, 61, 0
10, 36096, Note_on_c, 10, 50, 100
10, 36096, Note_on_c, 10, 54, 100
10, 36284, Note_on_c, 10, 54, 0
10, 36284, Note_on_c, 10, 50, 0
10, 36288, Note_on_c, 10, 54, 100
10, 36288, Note_on_c, 10, 50, 100
10, 36476, Note_on_c, 10, 50, 0
10, 36476, Note_on_c, 10, 54, 0
10, 36480, Note_on_c, 10, 54, 100
10, 36480, Note_on_c, 10, 50, 100
10, 36620, Note_on_c, 10, 50, 0
10, 36620, Note_on_c, 10, 54, 0
10, 36624, Note_on_c, 10, 57, 100
10, 36624, Note_on_c, 10, 61, 100
10, 36764, Note_on_c, 10, 61, 0
10, 36764, Note_on_c, 10, 57, 0
10, 36768, Note_on_c, 10, 57, 100
10, 36768, Note_on_c, 10, 61, 100
10, 36860, Note_on_c, 10, 61, 0
10, 36860, Note_on_c, 10, 57, 0
10, 36864, Note_on_c, 10, 54, 100
10, 37052, Note_on_c, 10, 54, 0
10, 37056, Note_on_c, 10, 54, 100
10, 37244, Note_on_c, 10, 54, 0
10, 37248, Note_on_c, 10, 54, 100
10, 37388, Note_on_c, 10, 54, 0
10, 37392, Note_on_c, 10, 57, 100
10, 37532, Note_on_c, 10, 57, 0
10, 37536, Note_on_c, 10, 57, 100
10, 37628, Note_on_c, 10, 57, 0
10, 37632, Note_on_c, 10, 52, 100
10, 37820, Note_on_c, 10, 52, 0
10, 37824, Note_on_c, 10, 52, 100
10, 38012, Note_on_c, 10, 52, 0
10, 38016, Note_on_c, 10, 52, 100
10, 38156, Note_on_c, 10, 52, 0
10, 38160, Note_on_c, 10, 57, 100
10, 38300, Note_on_c, 10, 57, 0
10, 38304, Note_on_c, 10, 57, 100
10, 38396, Note_on_c, 10, 57, 0
10, 38400, Note_on_c, 10, 50, 100
10, 38588, Note_on_c, 10, 50, 0
10, 38592, Note_on_c, 10, 50, 100
10, 38780, Note_on_c, 10, 50, 0
10, 38784, Note_on_c, 10, 50, 100
10, 38924, Note_on_c, 10, 50, 0
10, 38928, Note_on_c, 10, 57, 100
10, 39068, Note_on_c, 10, 57, 0
10, 39072, Note_on_c, 10, 57, 100
10, 39164, Note_on_c, 10, 57, 0
10, 39168, Note_on_c, 10, 50, 100
10, 39356, Note_on_c, 10, 50, 0
10, 39360, Note_on_c, 10, 50, 100
10, 39548, Note_on_c, 10, 50, 0
10, 39936, Note_on_c, 10, 61, 100
10, 39936, Note_on_c, 10, 57, 100
10, 39936, Note_on_c, 10, 54, 100
10, 40124, Note_on_c, 10, 54, 0
10, 40124, Note_on_c, 10, 57, 0
10, 40124, Note_on_c, 10, 61, 0
10, 40128, Note_on_c, 10, 54, 100
10, 40128, Note_on_c, 10, 57, 100
10, 40128, Note_on_c, 10, 61, 100
10, 40316, Note_on_c, 10, 61, 0
10, 40316, Note_on_c, 10, 57, 0
10, 40316, Note_on_c, 10, 54, 0
10, 40320, Note_on_c, 10, 54, 100
10, 40320, Note_on_c, 10, 57, 100
10, 40320, Note_on_c, 10, 61, 100
10, 40508, Note_on_c, 10, 61, 0
10, 40508, Note_on_c, 10, 57, 0
10, 40508, Note_on_c, 10, 54, 0
10, 40512, Note_on_c, 10, 61, 100
10, 40512, Note_on_c, 10, 57, 100
10, 40512, Note_on_c, 10, 54, 100
10, 40700, Note_on_c, 10, 54, 0
10, 40700, Note_on_c, 10, 57, 0
10, 40700, Note_on_c, 10, 61, 0
10, 40704, Note_on_c, 10, 52, 100
10, 40704, Note_on_c, 10, 59, 100
10, 40704, Note_on_c, 10, 56, 100
10, 40892, Note_on_c, 10, 56, 0
10, 40892, Note_on_c, 10, 59, 0
10, 40892, Note_on_c, 10, 52, 0
10, 40896, Note_on_c, 10, 52, 100
10, 40896, Note_on_c, 10, 59, 100
10, 40896, Note_on_c, 10, 56, 100
10, 41084, Note_on_c, 10, 56, 0
10, 41084, Note_on_c, 10, 59, 0
10, 41084, Note_on_c, 10, 52, 0
10, 41088, Note_on_c, 10, 59, 100
10, 41088, Note_on_c, 10, 52, 100
10, 41088, Note_on_c, 10, 56, 100
10, 41276, Note_on_c, 10, 56, 0
10, 41276, Note_on_c, 10, 52, 0
10, 41276, Note_on_c, 10, 59, 0
10, 41280, Note_on_c, 10, 59, 100
10, 41280, Note_on_c, 10, 52, 100
10, 41280, Note_on_c, 10, 56, 100
10, 41468, Note_on_c, 10, 56, 0
10, 41468, Note_on_c, 10, 52, 0
10, 41468, Note_on_c, 10, 59, 0
10, 41472, Note_on_c, 10, 57, 100
10, 41472, Note_on_c, 10, 54, 100
10, 41472, Note_on_c, 10, 50, 100
10, 41660, Note_on_c, 10, 50, 0
10, 41660, Note_on_c, 10, 54, 0
10, 41660, Note_on_c, 10, 57, 0
10, 41664, Note_on_c, 10, 50, 100
10, 41664, Note_on_c, 10, 54, 100
10, 41664, Note_on_c, 10, 57, 100
10, 41852, Note_on_c, 10, 57, 0
10, 41852, Note_on_c, 10, 54, 0
10, 41852, Note_on_c, 10, 50, 0
10, 41856, Note_on_c, 10, 54, 100
10, 41856, Note_on_c, 10, 57, 100
10, 41856, Note_on_c, 10, 50, 100
10, 42044, Note_on_c, 10, 50, 0
10, 42044, Note_on_c, 10, 57, 0
10, 42044, Note_on_c, 10, 54, 0
10, 42048, Note_on_c, 10, 50, 100
10, 42048, Note_on_c, 10, 57, 100
10, 42048, Note_on_c, 10, 54, 100
10, 42236, Note_on_c, 10, 54, 0
10, 42236, Note_on_c, 10, 57, 0
10, 42236, Note_on_c, 10, 50, 0
10, 42240, Note_on_c, 10, 50, 100
10, 42240, Note_on_c, 10, 54, 100
10, 42240, Note_on_c, 10, 57, 100
10, 42428, Note_on_c, 10, 57, 0
10, 42428, Note_on_c, 10, 54, 0
10, 42428, Note_on_c, 10, 50, 0
10, 42432, Note_on_c, 10, 50, 100
10, 42432, Note_on_c, 10, 54, 100
10, 42432, Note_on_c, 10, 57, 100
10, 42620, Note_on_c, 10, 57, 0
10, 42620, Note_on_c, 10, 54, 0
10, 42620, Note_on_c, 10, 50, 0
10, 42624, Note_on_c, 10, 50, 100
10, 42624, Note_on_c, 10, 57, 100
10, 42624, Note_on_c, 10, 54, 100
10, 42812, Note_on_c, 10, 54, 0
10, 42812, Note_on_c, 10, 57, 0
10, 42812, Note_on_c, 10, 50, 0
10, 42816, Note_on_c, 10, 50, 100
10, 42816, Note_on_c, 10, 57, 100
10, 42816, Note_on_c, 10, 54, 100
10, 43004, Note_on_c, 10, 54, 0
10, 43004, Note_on_c, 10, 57, 0
10, 43004, Note_on_c, 10, 50, 0
10, 43008, Note_on_c, 10, 61, 100
10, 43008, Note_on_c, 10, 57, 100
10, 43008, Note_on_c, 10, 54, 100
10, 43196, Note_on_c, 10, 54, 0
10, 43196, Note_on_c, 10, 57, 0
10, 43196, Note_on_c, 10, 61, 0
10, 43200, Note_on_c, 10, 54, 100
10, 43200, Note_on_c, 10, 57, 100
10, 43200, Note_on_c, 10, 61, 100
10, 43388, Note_on_c, 10, 61, 0
10, 43388, Note_on_c, 10, 57, 0
10, 43388, Note_on_c, 10, 54, 0
10, 43392, Note_on_c, 10, 54, 100
10, 43392, Note_on_c, 10, 57, 100
10, 43392, Note_on_c, 10, 61, 100
10, 43580, Note_on_c, 10, 61, 0
10, 43580, Note_on_c, 10, 57, 0
10, 43580, Note_on_c, 10, 54, 0
10, 43584, Note_on_c, 10, 61, 100
10, 43584, Note_on_c, 10, 57, 100
10, 43584, Note_on_c, 10, 54, 100
10, 43772, Note_on_c, 10, 54, 0
10, 43772, Note_on_c, 10, 57, 0
10, 43772, Note_on_c, 10, 61, 0
10, 43776, Note_on_c, 10, 52, 100
10, 43776, Note_on_c, 10, 59, 100
10, 43776, Note_on_c, 10, 56, 100
10, 43964, Note_on_c, 10, 56, 0
10, 43964, Note_on_c, 10, 59, 0
10, 43964, Note_on_c, 10, 52, 0
10, 43968, Note_on_c, 10, 52, 100
10, 43968, Note_on_c, 10, 59, 100
10, 43968, Note_on_c, 10, 56, 100
10, 44156, Note_on_c, 10, 56, 0
10, 44156, Note_on_c, 10, 59, 0
10, 44156, Note_on_c, 10, 52, 0
10, 44160, Note_on_c, 10, 59, 100
10, 44160, Note_on_c, 10, 52, 100
10, 44160, Note_on_c, 10, 56, 100
10, 44348, Note_on_c, 10, 56, 0
10, 44348, Note_on_c, 10, 52, 0
10, 44348, Note_on_c, 10, 59, 0
10, 44352, Note_on_c, 10, 59, 100
10, 44352, Note_on_c, 10, 52, 100
10, 44352, Note_on_c, 10, 56, 100
10, 44540, Note_on_c, 10, 56, 0
10, 44540, Note_on_c, 10, 52, 0
10, 44540, Note_on_c, 10, 59, 0
10, 44544, Note_on_c, 10, 57, 100
10, 44544, Note_on_c, 10, 54, 100
10, 44544, Note_on_c, 10, 50, 100
10, 44732, Note_on_c, 10, 50, 0
10, 44732, Note_on_c, 10, 54, 0
10, 44732, Note_on_c, 10, 57, 0
10, 44736, Note_on_c, 10, 50, 100
10, 44736, Note_on_c, 10, 54, 100
10, 44736, Note_on_c, 10, 57, 100
10, 44924, Note_on_c, 10, 57, 0
10, 44924, Note_on_c, 10, 54, 0
10, 44924, Note_on_c, 10, 50, 0
10, 44928, Note_on_c, 10, 54, 100
10, 44928, Note_on_c, 10, 57, 100
10, 44928, Note_on_c, 10, 50, 100
10, 45116, Note_on_c, 10, 50, 0
10, 45116, Note_on_c, 10, 57, 0
10, 45116, Note_on_c, 10, 54, 0
10, 45120, Note_on_c, 10, 50, 100
10, 45120, Note_on_c, 10, 57, 100
10, 45120, Note_on_c, 10, 54, 100
10, 45308, Note_on_c, 10, 54, 0
10, 45308, Note_on_c, 10, 57, 0
10, 45308, Note_on_c, 10, 50, 0
10, 45312, Note_on_c, 10, 50, 100
10, 45312, Note_on_c, 10, 54, 100
10, 45312, Note_on_c, 10, 57, 100
10, 45500, Note_on_c, 10, 57, 0
10, 45500, Note_on_c, 10, 54, 0
10, 45500, Note_on_c, 10, 50, 0
10, 45504, Note_on_c, 10, 50, 100
10, 45504, Note_on_c, 10, 54, 100
10, 45504, Note_on_c, 10, 57, 100
10, 45692, Note_on_c, 10, 57, 0
10, 45692, Note_on_c, 10, 54, 0
10, 45692, Note_on_c, 10, 50, 0
10, 45696, Note_on_c, 10, 50, 100
10, 45696, Note_on_c, 10, 57, 100
10, 45696, Note_on_c, 10, 54, 100
10, 45884, Note_on_c, 10, 54, 0
10, 45884, Note_on_c, 10, 57, 0
10, 45884, Note_on_c, 10, 50, 0
10, 45888, Note_on_c, 10, 50, 100
10, 45888, Note_on_c, 10, 57, 100
10, 45888, Note_on_c, 10, 54, 100
10, 46076, Note_on_c, 10, 54, 0
10, 46076, Note_on_c, 10, 57, 0
10, 46076, Note_on_c, 10, 50, 0
10, 46080, Note_on_c, 10, 61, 100
10, 46080, Note_on_c, 10, 57, 100
10, 46080, Note_on_c, 10, 54, 100
10, 46268, Note_on_c, 10, 54, 0
10, 46268, Note_on_c, 10, 57, 0
10, 46268, Note_on_c, 10, 61, 0
10, 46272, Note_on_c, 10, 54, 100
10, 46272, Note_on_c, 10, 57, 100
10, 46272, Note_on_c, 10, 61, 100
10, 46460, Note_on_c, 10, 61, 0
10, 46460, Note_on_c, 10, 57, 0
10, 46460, Note_on_c, 10, 54, 0
10, 46464, Note_on_c, 10, 54, 100
10, 46464, Note_on_c, 10, 57, 100
10, 46464, Note_on_c, 10, 61, 100
10, 46652, Note_on_c, 10, 61, 0
10, 46652, Note_on_c, 10, 57, 0
10, 46652, Note_on_c, 10, 54, 0
10, 46656, Note_on_c, 10, 61, 100
10, 46656, Note_on_c, 10, 57, 100
10, 46656, Note_on_c, 10, 54, 100
10, 46844, Note_on_c, 10, 54, 0
10, 46844, Note_on_c, 10, 57, 0
10, 46844, Note_on_c, 10, 61, 0
10, 46848, Note_on_c, 10, 52, 100
10, 46848, Note_on_c, 10, 59, 100
10, 46848, Note_on_c, 10, 56, 100
10, 47036, Note_on_c, 10, 56, 0
10, 47036, Note_on_c, 10, 59, 0
10, 47036, Note_on_c, 10, 52, 0
10, 47040, Note_on_c, 10, 52, 100
10, 47040, Note_on_c, 10, 59, 100
10, 47040, Note_on_c, 10, 56, 100
10, 47228, Note_on_c, 10, 56, 0
10, 47228, Note_on_c, 10, 59, 0
10, 47228, Note_on_c, 10, 52, 0
10, 47232, Note_on_c, 10, 59, 100
10, 47232, Note_on_c, 10, 52, 100
10, 47232, Note_on_c, 10, 56, 100
10, 47420, Note_on_c, 10, 56, 0
10, 47420, Note_on_c, 10, 52, 0
10, 47420, Note_on_c, 10, 59, 0
10, 47424, Note_on_c, 10, 59, 100
10, 47424, Note_on_c, 10, 52, 100
10, 47424, Note_on_c, 10, 56, 100
10, 47612, Note_on_c, 10, 56, 0
10, 47612, Note_on_c, 10, 52, 0
10, 47612, Note_on_c, 10, 59, 0
10, 47616, Note_on_c, 10, 57, 100
10, 47616, Note_on_c, 10, 54, 100
10, 47616, Note_on_c, 10, 50, 100
10, 47804, Note_on_c, 10, 50, 0
10, 47804, Note_on_c, 10, 54, 0
10, 47804, Note_on_c, 10, 57, 0
10, 47808, Note_on_c, 10, 50, 100
10, 47808, Note_on_c, 10, 54, 100
10, 47808, Note_on_c, 10, 57, 100
10, 47996, Note_on_c, 10, 57, 0
10, 47996, Note_on_c, 10, 54, 0
10, 47996, Note_on_c, 10, 50, 0
10, 48000, Note_on_c, 10, 54, 100
10, 48000, Note_on_c, 10, 57, 100
10, 48000, Note_on_c, 10, 50, 100
10, 48188, Note_on_c, 10, 50, 0
10, 48188, Note_on_c, 10, 57, 0
10, 48188, Note_on_c, 10, 54, 0
10, 48192, Note_on_c, 10, 50, 100
10, 48192, Note_on_c, 10, 57, 100
10, 48192, Note_on_c, 10, 54, 100
10, 48380, Note_on_c, 10, 54, 0
10, 48380, Note_on_c, 10, 57, 0
10, 48380, Note_on_c, 10, 50, 0
10, 48384, Note_on_c, 10, 50, 100
10, 48384, Note_on_c, 10, 54, 100
10, 48384, Note_on_c, 10, 57, 100
10, 48572, Note_on_c, 10, 57, 0
10, 48572, Note_on_c, 10, 54, 0
10, 48572, Note_on_c, 10, 50, 0
10, 48576, Note_on_c, 10, 50, 100
10, 48576, Note_on_c, 10, 54, 100
10, 48576, Note_on_c, 10, 57, 100
10, 48764, Note_on_c, 10, 57, 0
10, 48764, Note_on_c, 10, 54, 0
10, 48764, Note_on_c, 10, 50, 0
10, 48768, Note_on_c, 10, 50, 100
10, 48768, Note_on_c, 10, 57, 100
10, 48768, Note_on_c, 10, 54, 100
10, 48956, Note_on_c, 10, 54, 0
10, 48956, Note_on_c, 10, 57, 0
10, 48956, Note_on_c, 10, 50, 0
10, 48960, Note_on_c, 10, 50, 100
10, 48960, Note_on_c, 10, 57, 100
10, 48960, Note_on_c, 10, 54, 100
10, 49148, Note_on_c, 10, 54, 0
10, 49148, Note_on_c, 10, 57, 0
10, 49148, Note_on_c, 10, 50, 0
10, 49152, Note_on_c, 10, 61, 100
10, 49152, Note_on_c, 10, 57, 100
10, 49152, Note_on_c, 10, 54, 100
10, 49340, Note_on_c, 10, 54, 0
10, 49340, Note_on_c, 10, 57, 0
10, 49340, Note_on_c, 10, 61, 0
10, 49344, Note_on_c, 10, 54, 100
10, 49344, Note_on_c, 10, 57, 100
10, 49344, Note_on_c, 10, 61, 100
10, 49532, Note_on_c, 10, 61, 0
10, 49532, Note_on_c, 10, 57, 0
10, 49532, Note_on_c, 10, 54, 0
10, 49536, Note_on_c, 10, 54, 100
10, 49536, Note_on_c, 10, 57, 100
10, 49536, Note_on_c, 10, 61, 100
10, 49724, Note_on_c, 10, 61, 0
10, 49724, Note_on_c, 10, 57, 0
10, 49724, Note_on_c, 10, 54, 0
10, 49728, Note_on_c, 10, 61, 100
10, 49728, Note_on_c, 10, 57, 100
10, 49728, Note_on_c, 10, 54, 100
10, 49916, Note_on_c, 10, 54, 0
10, 49916, Note_on_c, 10, 57, 0
10, 49916, Note_on_c, 10, 61, 0
10, 49920, Note_on_c, 10, 52, 100
10, 49920, Note_on_c, 10, 59, 100
10, 49920, Note_on_c, 10, 56, 100
10, 50108, Note_on_c, 10, 56, 0
10, 50108, Note_on_c, 10, 59, 0
10, 50108, Note_on_c, 10, 52, 0
10, 50112, Note_on_c, 10, 52, 100
10, 50112, Note_on_c, 10, 59, 100
10, 50112, Note_on_c, 10, 56, 100
10, 50300, Note_on_c, 10, 56, 0
10, 50300, Note_on_c, 10, 59, 0
10, 50300, Note_on_c, 10, 52, 0
10, 50304, Note_on_c, 10, 59, 100
10, 50304, Note_on_c, 10, 52, 100
10, 50304, Note_on_c, 10, 56, 100
10, 50492, Note_on_c, 10, 56, 0
10, 50492, Note_on_c, 10, 52, 0
10, 50492, Note_on_c, 10, 59, 0
10, 50496, Note_on_c, 10, 59, 100
10, 50496, Note_on_c, 10, 52, 100
10, 50496, Note_on_c, 10, 56, 100
10, 50684, Note_on_c, 10, 56, 0
10, 50684, Note_on_c, 10, 52, 0
10, 50684, Note_on_c, 10, 59, 0
10, 50688, Note_on_c, 10, 57, 100
10, 50688, Note_on_c, 10, 54, 100
10, 50688, Note_on_c, 10, 50, 100
10, 50876, Note_on_c, 10, 50, 0
10, 50876, Note_on_c, 10, 54, 0
10, 50876, Note_on_c, 10, 57, 0
10, 50880, Note_on_c, 10, 50, 100
10, 50880, Note_on_c, 10, 54, 100
10, 50880, Note_on_c, 10, 57, 100
10, 51068, Note_on_c, 10, 57, 0
10, 51068, Note_on_c, 10, 54, 0
10, 51068, Note_on_c, 10, 50, 0
10, 51072, Note_on_c, 10, 54, 100
10, 51072, Note_on_c, 10, 57, 100
10, 51072, Note_on_c, 10, 50, 100
10, 51260, Note_on_c, 10, 50, 0
10, 51260, Note_on_c, 10, 57, 0
10, 51260, Note_on_c, 10, 54, 0
10, 51264, Note_on_c, 10, 50, 100
10, 51264, Note_on_c, 10, 57, 100
10, 51264, Note_on_c, 10, 54, 100
10, 51452, Note_on_c, 10, 54, 0
10, 51452, Note_on_c, 10, 57, 0
10, 51452, Note_on_c, 10, 50, 0
10, 51456, Note_on_c, 10, 50, 100
10, 51456, Note_on_c, 10, 54, 100
10, 51456, Note_on_c, 10, 57, 100
10, 51644, Note_on_c, 10, 57, 0
10, 51644, Note_on_c, 10, 54, 0
10, 51644, Note_on_c, 10, 50, 0
10, 51648, Note_on_c, 10, 50, 100
10, 51648, Note_on_c, 10, 54, 100
10, 51648, Note_on_c, 10, 57, 100
10, 51836, Note_on_c, 10, 57, 0
10, 51836, Note_on_c, 10, 54, 0
10, 51836, Note_on_c, 10, 50, 0
10, 51840, Note_on_c, 10, 50, 100
10, 51840, Note_on_c, 10, 57, 100
10, 51840, Note_on_c, 10, 54, 100
10, 52028, Note_on_c, 10, 54, 0
10, 52028, Note_on_c, 10, 57, 0
10, 52028, Note_on_c, 10, 50, 0
10, 52032, Note_on_c, 10, 50, 100
10, 52032, Note_on_c, 10, 57, 100
10, 52032, Note_on_c, 10, 54, 100
10, 52220, Note_on_c, 10, 54, 0
10, 52220, Note_on_c, 10, 57, 0
10, 52220, Note_on_c, 10, 50, 0
10, 52224, Note_on_c, 10, 61, 100
10, 52224, Note_on_c, 10, 57, 100
10, 52224, Note_on_c, 10, 54, 100
10, 52412, Note_on_c, 10, 54, 0
10, 52412, Note_on_c, 10, 57, 0
10, 52412, Note_on_c, 10, 61, 0
10, 52416, Note_on_c, 10, 54, 100
10, 52416, Note_on_c, 10, 57, 100
10, 52416, Note_on_c, 10, 61, 100
10, 52604, Note_on_c, 10, 61, 0
10, 52604, Note_on_c, 10, 57, 0
10, 52604, Note_on_c, 10, 54, 0
10, 52608, Note_on_c, 10, 54, 100
10, 52608, Note_on_c, 10, 57, 100
10, 52608, Note_on_c, 10, 61, 100
10, 52796, Note_on_c, 10, 61, 0
10, 52796, Note_on_c, 10, 57, 0
10, 52796, Note_on_c, 10, 54, 0
10, 52800, Note_on_c, 10, 61, 100
10, 52800, Note_on_c, 10, 57, 100
10, 52800, Note_on_c, 10, 54, 100
10, 52988, Note_on_c, 10, 54, 0
10, 52988, Note_on_c, 10, 57, 0
10, 52988, Note_on_c, 10, 61, 0
10, 52992, Note_on_c, 10, 52, 100
10, 52992, Note_on_c, 10, 59, 100
10, 52992, Note_on_c, 10, 56, 100
10, 53180, Note_on_c, 10, 56, 0
10, 53180, Note_on_c, 10, 59, 0
10, 53180, Note_on_c, 10, 52, 0
10, 53184, Note_on_c, 10, 52, 100
10, 53184, Note_on_c, 10, 59, 100
10, 53184, Note_on_c, 10, 56, 100
10, 53372, Note_on_c, 10, 56, 0
10, 53372, Note_on_c, 10, 59, 0
10, 53372, Note_on_c, 10, 52, 0
10, 53376, Note_on_c, 10, 59, 100
10, 53376, Note_on_c, 10, 52, 100
10, 53376, Note_on_c, 10, 56, 100
10, 53564, Note_on_c, 10, 56, 0
10, 53564, Note_on_c, 10, 52, 0
10, 53564, Note_on_c, 10, 59, 0
10, 53568, Note_on_c, 10, 59, 100
10, 53568, Note_on_c, 10, 52, 100
10, 53568, Note_on_c, 10, 56, 100
10, 53756, Note_on_c, 10, 56, 0
10, 53756, Note_on_c, 10, 52, 0
10, 53756, Note_on_c, 10, 59, 0
10, 53760, Note_on_c, 10, 57, 100
10, 53760, Note_on_c, 10, 54, 100
10, 53760, Note_on_c, 10, 50, 100
10, 53948, Note_on_c, 10, 50, 0
10, 53948, Note_on_c, 10, 54, 0
10, 53948, Note_on_c, 10, 57, 0
10, 53952, Note_on_c, 10, 50, 100
10, 53952, Note_on_c, 10, 54, 100
10, 53952, Note_on_c, 10, 57, 100
10, 54140, Note_on_c, 10, 57, 0
10, 54140, Note_on_c, 10, 54, 0
10, 54140, Note_on_c, 10, 50, 0
10, 54144, Note_on_c, 10, 54, 100
10, 54144, Note_on_c, 10, 57, 100
10, 54144, Note_on_c, 10, 50, 100
10, 54332, Note_on_c, 10, 50, 0
10, 54332, Note_on_c, 10, 57, 0
10, 54332, Note_on_c, 10, 54, 0
10, 54336, Note_on_c, 10, 50, 100
10, 54336, Note_on_c, 10, 57, 100
10, 54336, Note_on_c, 10, 54, 100
10, 54524, Note_on_c, 10, 54, 0
10, 54524, Note_on_c, 10, 57, 0
10, 54524, Note_on_c, 10, 50, 0
10, 54528, Note_on_c, 10, 50, 100
10, 54528, Note_on_c, 10, 54, 100
10, 54528, Note_on_c, 10, 57, 100
10, 54716, Note_on_c, 10, 57, 0
10, 54716, Note_on_c, 10, 54, 0
10, 54716, Note_on_c, 10, 50, 0
10, 54720, Note_on_c, 10, 50, 100
10, 54720, Note_on_c, 10, 54, 100
10, 54720, Note_on_c, 10, 57, 100
10, 54908, Note_on_c, 10, 57, 0
10, 54908, Note_on_c, 10, 54, 0
10, 54908, Note_on_c, 10, 50, 0
10, 54912, Note_on_c, 10, 50, 100
10, 54912, Note_on_c, 10, 57, 100
10, 54912, Note_on_c, 10, 54, 100
10, 55100, Note_on_c, 10, 54, 0
10, 55100, Note_on_c, 10, 57, 0
10, 55100, Note_on_c, 10, 50, 0
10, 55104, Note_on_c, 10, 50, 100
10, 55104, Note_on_c, 10, 57, 100
10, 55104, Note_on_c, 10, 54, 100
10, 55292, Note_on_c, 10, 54, 0
10, 55292, Note_on_c, 10, 57, 0
10, 55292, Note_on_c, 10, 50, 0
10, 55296, Note_on_c, 10, 66, 100
10, 56060, Note_on_c, 10, 66, 0
10, 56064, Note_on_c, 10, 64, 100
10, 56828, Note_on_c, 10, 64, 0
10, 56832, Note_on_c, 10, 62, 100
10, 57884, Note_on_c, 10, 62, 0
10, 58368, Note_on_c, 10, 61, 100
10, 58368, Note_on_c, 10, 57, 100
10, 58368, Note_on_c, 10, 54, 100
10, 58556, Note_on_c, 10, 54, 0
10, 58556, Note_on_c, 10, 57, 0
10, 58556, Note_on_c, 10, 61, 0
10, 58560, Note_on_c, 10, 54, 100
10, 58560, Note_on_c, 10, 57, 100
10, 58560, Note_on_c, 10, 61, 100
10, 58748, Note_on_c, 10, 61, 0
10, 58748, Note_on_c, 10, 57, 0
10, 58748, Note_on_c, 10, 54, 0
10, 58752, Note_on_c, 10, 54, 100
10, 58752, Note_on_c, 10, 57, 100
10, 58752, Note_on_c, 10, 61, 100
10, 58940, Note_on_c, 10, 61, 0
10, 58940, Note_on_c, 10, 57, 0
10, 58940, Note_on_c, 10, 54, 0
10, 58944, Note_on_c, 10, 61, 100
10, 58944, Note_on_c, 10, 57, 100
10, 58944, Note_on_c, 10, 54, 100
10, 59132, Note_on_c, 10, 54, 0
10, 59132, Note_on_c, 10, 57, 0
10, 59132, Note_on_c, 10, 61, 0
10, 59136, Note_on_c, 10, 52, 100
10, 59136, Note_on_c, 10, 59, 100
10, 59136, Note_on_c, 10, 56, 100
10, 59324, Note_on_c, 10, 56, 0
10, 59324, Note_on_c, 10, 59, 0
10, 59324, Note_on_c, 10, 52, 0
10, 59328, Note_on_c, 10, 52, 100
10, 59328, Note_on_c, 10, 59, 100
10, 59328, Note_on_c, 10, 56, 100
10, 59516, Note_on_c, 10, 56, 0
10, 59516, Note_on_c, 10, 59, 0
10, 59516, Note_on_c, 10, 52, 0
10, 59520, Note_on_c, 10, 59, 100
10, 59520, Note_on_c, 10, 52, 100
10, 59520, Note_on_c, 10, 56, 100
10, 59708, Note_on_c, 10, 56, 0
10, 59708, Note_on_c, 10, 52, 0
10, 59708, Note_on_c, 10, 59, 0
10, 59712, Note_on_c, 10, 59, 100
10, 59712, Note_on_c, 10, 52, 100
10, 59712, Note_on_c, 10, 56, 100
10, 59900, Note_on_c, 10, 56, 0
10, 59900, Note_on_c, 10, 52, 0
10, 59900, Note_on_c, 10, 59, 0
10, 59904, Note_on_c, 10, 57, 100
10, 59904, Note_on_c, 10, 54, 100
10, 59904, Note_on_c, 10, 50, 100
10, 60092, Note_on_c, 10, 50, 0
10, 60092, Note_on_c, 10, 54, 0
10, 60092, Note_on_c, 10, 57, 0
10, 60096, Note_on_c, 10, 50, 100
10, 60096, Note_on_c, 10, 54, 100
10, 60096, Note_on_c, 10, 57, 100
10, 60284, Note_on_c, 10, 57, 0
10, 60284, Note_on_c, 10, 54, 0
10, 60284, Note_on_c, 10, 50, 0
10, 60288, Note_on_c, 10, 54, 100
10, 60288, Note_on_c, 10, 57, 100
10, 60288, Note_on_c, 10, 50, 100
10, 60476, Note_on_c, 10, 50, 0
10, 60476, Note_on_c, 10, 57, 0
10, 60476, Note_on_c, 10, 54, 0
10, 60480, Note_on_c, 10, 50, 100
10, 60480, Note_on_c, 10, 57, 100
10, 60480, Note_on_c, 10, 54, 100
10, 60668, Note_on_c, 10, 54, 0
10, 60668, Note_on_c, 10, 57, 0
10, 60668, Note_on_c, 10, 50, 0
10, 60672, Note_on_c, 10, 50, 100
10, 60672, Note_on_c, 10, 54, 100
10, 60672, Note_on_c, 10, 57, 100
10, 60860, Note_on_c, 10, 57, 0
10, 60860, Note_on_c, 10, 54, 0
10, 60860, Note_on_c, 10, 50, 0
10, 60864, Note_on_c, 10, 50, 100
10, 60864, Note_on_c, 10, 54, 100
10, 60864, Note_on_c, 10, 57, 100
10, 61052, Note_on_c, 10, 57, 0
10, 61052, Note_on_c, 10, 54, 0
10, 61052, Note_on_c, 10, 50, 0
10, 61056, Note_on_c, 10, 50, 100
10, 61056, Note_on_c, 10, 57, 100
10, 61056, Note_on_c, 10, 54, 100
10, 61244, Note_on_c, 10, 54, 0
10, 61244, Note_on_c, 10, 57, 0
10, 61244, Note_on_c, 10, 50, 0
10, 61248, Note_on_c, 10, 50, 100
10, 61248, Note_on_c, 10, 57, 100
10, 61248, Note_on_c, 10, 54, 100
10, 61436, Note_on_c, 10, 54, 0
10, 61436, Note_on_c, 10, 57, 0
10, 61436, Note_on_c, 10, 50, 0
10, 61440, Note_on_c, 10, 61, 100
10, 61440, Note_on_c, 10, 57, 100
10, 61440, Note_on_c, 10, 54, 100
10, 61628, Note_on_c, 10, 54, 0
10, 61628, Note_on_c, 10, 57, 0
10, 61628, Note_on_c, 10, 61, 0
10, 61632, Note_on_c, 10, 54, 100
10, 61632, Note_on_c, 10, 57, 100
10, 61632, Note_on_c, 10, 61, 100
10, 61820, Note_on_c, 10, 61, 0
10, 61820, Note_on_c, 10, 57, 0
10, 61820, Note_on_c, 10, 54, 0
10, 61824, Note_on_c, 10, 54, 100
10, 61824, Note_on_c, 10, 57, 100
10, 61824, Note_on_c, 10, 61, 100
10, 62012, Note_on_c, 10, 61, 0
10, 62012, Note_on_c, 10, 57, 0
10, 62012, Note_on_c, 10, 54, 0
10, 62016, Note_on_c, 10, 61, 100
10, 62016, Note_on_c, 10, 57, 100
10, 62016, Note_on_c, 10, 54, 100
10, 62204, Note_on_c, 10, 54, 0
10, 62204, Note_on_c, 10, 57, 0
10, 62204, Note_on_c, 10, 61, 0
10, 62208, Note_on_c, 10, 52, 100
10, 62208, Note_on_c, 10, 59, 100
10, 62208, Note_on_c, 10, 56, 100
10, 62396, Note_on_c, 10, 56, 0
10, 62396, Note_on_c, 10, 59, 0
10, 62396, Note_on_c, 10, 52, 0
10, 62400, Note_on_c, 10, 52, 100
10, 62400, Note_on_c, 10, 59, 100
10, 62400, Note_on_c, 10, 56, 100
10, 62588, Note_on_c, 10, 56, 0
10, 62588, Note_on_c, 10, 59, 0
10, 62588, Note_on_c, 10, 52, 0
10, 62592, Note_on_c, 10, 59, 100
10, 62592, Note_on_c, 10, 52, 100
10, 62592, Note_on_c, 10, 56, 100
10, 62780, Note_on_c, 10, 56, 0
10, 62780, Note_on_c, 10, 52, 0
10, 62780, Note_on_c, 10, 59, 0
10, 62784, Note_on_c, 10, 59, 100
10, 62784, Note_on_c, 10, 52, 100
10, 62784, Note_on_c, 10, 56, 100
10, 62972, Note_on_c, 10, 56, 0
10, 62972, Note_on_c, 10, 52, 0
10, 62972, Note_on_c, 10, 59, 0
10, 62976, Note_on_c, 10, 57, 100
10, 62976, Note_on_c, 10, 54, 100
10, 62976, Note_on_c, 10, 50, 100
10, 63164, Note_on_c, 10, 50, 0
10, 63164, Note_on_c, 10, 54, 0
10, 63164, Note_on_c, 10, 57, 0
10, 63168, Note_on_c, 10, 50, 100
10, 63168, Note_on_c, 10, 54, 100
10, 63168, Note_on_c, 10, 57, 100
10, 63356, Note_on_c, 10, 57, 0
10, 63356, Note_on_c, 10, 54, 0
10, 63356, Note_on_c, 10, 50, 0
10, 63360, Note_on_c, 10, 54, 100
10, 63360, Note_on_c, 10, 57, 100
10, 63360, Note_on_c, 10, 50, 100
10, 63548, Note_on_c, 10, 50, 0
10, 63548, Note_on_c, 10, 57, 0
10, 63548, Note_on_c, 10, 54, 0
10, 63552, Note_on_c, 10, 50, 100
10, 63552, Note_on_c, 10, 57, 100
10, 63552, Note_on_c, 10, 54, 100
10, 63740, Note_on_c, 10, 54, 0
10, 63740, Note_on_c, 10, 57, 0
10, 63740, Note_on_c, 10, 50, 0
10, 63744, Note_on_c, 10, 50, 100
10, 63744, Note_on_c, 10, 54, 100
10, 63744, Note_on_c, 10, 57, 100
10, 63932, Note_on_c, 10, 57, 0
10, 63932, Note_on_c, 10, 54, 0
10, 63932, Note_on_c, 10, 50, 0
10, 63936, Note_on_c, 10, 50, 100
10, 63936, Note_on_c, 10, 54, 100
10, 63936, Note_on_c, 10, 57, 100
10, 64124, Note_on_c, 10, 57, 0
10, 64124, Note_on_c, 10, 54, 0
10, 64124, Note_on_c, 10, 50, 0
10, 64128, Note_on_c, 10, 50, 100
10, 64128, Note_on_c, 10, 57, 100
10, 64128, Note_on_c, 10, 54, 100
10, 64316, Note_on_c, 10, 54, 0
10, 64316, Note_on_c, 10, 57, 0
10, 64316, Note_on_c, 10, 50, 0
10, 64320, Note_on_c, 10, 50, 100
10, 64320, Note_on_c, 10, 57, 100
10, 64320, Note_on_c, 10, 54, 100
10, 64508, Note_on_c, 10, 54, 0
10, 64508, Note_on_c, 10, 57, 0
10, 64508, Note_on_c, 10, 50, 0
10, 64512, Note_on_c, 10, 61, 100
10, 64512, Note_on_c, 10, 57, 100
10, 64512, Note_on_c, 10, 54, 100
10, 64700, Note_on_c, 10, 54, 0
10, 64700, Note_on_c, 10, 57, 0
10, 64700, Note_on_c, 10, 61, 0
10, 64704, Note_on_c, 10, 54, 100
10, 64704, Note_on_c, 10, 57, 100
10, 64704, Note_on_c, 10, 61, 100
10, 64892, Note_on_c, 10, 61, 0
10, 64892, Note_on_c, 10, 57, 0
10, 64892, Note_on_c, 10, 54, 0
10, 64896, Note_on_c, 10, 54, 100
10, 64896, Note_on_c, 10, 57, 100
10, 64896, Note_on_c, 10, 61, 100
10, 65084, Note_on_c, 10, 61, 0
10, 65084, Note_on_c, 10, 57, 0
10, 65084, Note_on_c, 10, 54, 0
10, 65088, Note_on_c, 10, 61, 100
10, 65088, Note_on_c, 10, 57, 100
10, 65088, Note_on_c, 10, 54, 100
10, 65276, Note_on_c, 10, 54, 0
10, 65276, Note_on_c, 10, 57, 0
10, 65276, Note_on_c, 10, 61, 0
10, 65280, Note_on_c, 10, 52, 100
10, 65280, Note_on_c, 10, 59, 100
10, 65280, Note_on_c, 10, 56, 100
10, 65468, Note_on_c, 10, 56, 0
10, 65468, Note_on_c, 10, 59, 0
10, 65468, Note_on_c, 10, 52, 0
10, 65472, Note_on_c, 10, 52, 100
10, 65472, Note_on_c, 10, 59, 100
10, 65472, Note_on_c, 10, 56, 100
10, 65660, Note_on_c, 10, 56, 0
10, 65660, Note_on_c, 10, 59, 0
10, 65660, Note_on_c, 10, 52, 0
10, 65664, Note_on_c, 10, 59, 100
10, 65664, Note_on_c, 10, 52, 100
10, 65664, Note_on_c, 10, 56, 100
10, 65852, Note_on_c, 10, 56, 0
10, 65852, Note_on_c, 10, 52, 0
10, 65852, Note_on_c, 10, 59, 0
10, 65856, Note_on_c, 10, 59, 100
10, 65856, Note_on_c, 10, 52, 100
10, 65856, Note_on_c, 10, 56, 100
10, 66044, Note_on_c, 10, 56, 0
10, 66044, Note_on_c, 10, 52, 0
10, 66044, Note_on_c, 10, 59, 0
10, 66048, Note_on_c, 10, 57, 100
10, 66048, Note_on_c, 10, 54, 100
10, 66048, Note_on_c, 10, 50, 100
10, 66236, Note_on_c, 10, 50, 0
10, 66236, Note_on_c, 10, 54, 0
10, 66236, Note_on_c, 10, 57, 0
10, 66240, Note_on_c, 10, 50, 100
10, 66240, Note_on_c, 10, 54, 100
10, 66240, Note_on_c, 10, 57, 100
10, 66428, Note_on_c, 10, 57, 0
10, 66428, Note_on_c, 10, 54, 0
10, 66428, Note_on_c, 10, 50, 0
10, 66432, Note_on_c, 10, 54, 100
10, 66432, Note_on_c, 10, 57, 100
10, 66432, Note_on_c, 10, 50, 100
10, 66620, Note_on_c, 10, 50, 0
10, 66620, Note_on_c, 10, 57, 0
10, 66620, Note_on_c, 10, 54, 0
10, 66624, Note_on_c, 10, 50, 100
10, 66624, Note_on_c, 10, 57, 100
10, 66624, Note_on_c, 10, 54, 100
10, 66812, Note_on_c, 10, 54, 0
10, 66812, Note_on_c, 10, 57, 0
10, 66812, Note_on_c, 10, 50, 0
10, 66816, Note_on_c, 10, 50, 100
10, 66816, Note_on_c, 10, 54, 100
10, 66816, Note_on_c, 10, 57, 100
10, 67004, Note_on_c, 10, 57, 0
10, 67004, Note_on_c, 10, 54, 0
10, 67004, Note_on_c, 10, 50, 0
10, 67008, Note_on_c, 10, 50, 100
10, 67008, Note_on_c, 10, 54, 100
10, 67008, Note_on_c, 10, 57, 100
10, 67196, Note_on_c, 10, 57, 0
10, 67196, Note_on_c, 10, 54, 0
10, 67196, Note_on_c, 10, 50, 0
10, 67200, Note_on_c, 10, 50, 100
10, 67200, Note_on_c, 10, 57, 100
10, 67200, Note_on_c, 10, 54, 100
10, 67388, Note_on_c, 10, 54, 0
10, 67388, Note_on_c, 10, 57, 0
10, 67388, Note_on_c, 10, 50, 0
10, 67392, Note_on_c, 10, 50, 100
10, 67392, Note_on_c, 10, 57, 100
10, 67392, Note_on_c, 10, 54, 100
10, 67580, Note_on_c, 10, 54, 0
10, 67580, Note_on_c, 10, 57, 0
10, 67580, Note_on_c, 10, 50, 0
10, 67584, Note_on_c, 10, 61, 100
10, 67584, Note_on_c, 10, 57, 100
10, 67584, Note_on_c, 10, 54, 100
10, 67772, Note_on_c, 10, 54, 0
10, 67772, Note_on_c, 10, 57, 0
10, 67772, Note_on_c, 10, 61, 0
10, 67776, Note_on_c, 10, 54, 100
10, 67776, Note_on_c, 10, 57, 100
10, 67776, Note_on_c, 10, 61, 100
10, 67964, Note_on_c, 10, 61, 0
10, 67964, Note_on_c, 10, 57, 0
10, 67964, Note_on_c, 10, 54, 0
10, 67968, Note_on_c, 10, 54, 100
10, 67968, Note_on_c, 10, 57, 100
10, 67968, Note_on_c, 10, 61, 100
10, 68156, Note_on_c, 10, 61, 0
10, 68156, Note_on_c, 10, 57, 0
10, 68156, Note_on_c, 10, 54, 0
10, 68160, Note_on_c, 10, 61, 100
10, 68160, Note_on_c, 10, 57, 100
10, 68160, Note_on_c, 10, 54, 100
10, 68348, Note_on_c, 10, 54, 0
10, 68348, Note_on_c, 10, 57, 0
10, 68348, Note_on_c, 10, 61, 0
10, 68352, Note_on_c, 10, 52, 100
10, 68352, Note_on_c, 10, 59, 100
10, 68352, Note_on_c, 10, 56, 100
10, 68540, Note_on_c, 10, 56, 0
10, 68540, Note_on_c, 10, 59, 0
10, 68540, Note_on_c, 10, 52, 0
10, 68544, Note_on_c, 10, 52, 100
10, 68544, Note_on_c, 10, 59, 100
10, 68544, Note_on_c, 10, 56, 100
10, 68732, Note_on_c, 10, 56, 0
10, 68732, Note_on_c, 10, 59, 0
10, 68732, Note_on_c, 10, 52, 0
10, 68736, Note_on_c, 10, 59, 100
10, 68736, Note_on_c, 10, 52, 100
10, 68736, Note_on_c, 10, 56, 100
10, 68924, Note_on_c, 10, 56, 0
10, 68924, Note_on_c, 10, 52, 0
10, 68924, Note_on_c, 10, 59, 0
10, 68928, Note_on_c, 10, 59, 100
10, 68928, Note_on_c, 10, 52, 100
10, 68928, Note_on_c, 10, 56, 100
10, 69116, Note_on_c, 10, 56, 0
10, 69116, Note_on_c, 10, 52, 0
10, 69116, Note_on_c, 10, 59, 0
10, 69120, Note_on_c, 10, 57, 100
10, 69120, Note_on_c, 10, 54, 100
10, 69120, Note_on_c, 10, 50, 100
10, 69308, Note_on_c, 10, 50, 0
10, 69308, Note_on_c, 10, 54, 0
10, 69308, Note_on_c, 10, 57, 0
10, 69312, Note_on_c, 10, 50, 100
10, 69312, Note_on_c, 10, 54, 100
10, 69312, Note_on_c, 10, 57, 100
10, 69500, Note_on_c, 10, 57, 0
10, 69500, Note_on_c, 10, 54, 0
10, 69500, Note_on_c, 10, 50, 0
10, 69504, Note_on_c, 10, 54, 100
10, 69504, Note_on_c, 10, 57, 100
10, 69504, Note_on_c, 10, 50, 100
10, 69692, Note_on_c, 10, 50, 0
10, 69692, Note_on_c, 10, 57, 0
10, 69692, Note_on_c, 10, 54, 0
10, 69696, Note_on_c, 10, 50, 100
10, 69696, Note_on_c, 10, 57, 100
10, 69696, Note_on_c, 10, 54, 100
10, 69884, Note_on_c, 10, 54, 0
10, 69884, Note_on_c, 10, 57, 0
10, 69884, Note_on_c, 10, 50, 0
10, 69888, Note_on_c, 10, 50, 100
10, 69888, Note_on_c, 10, 54, 100
10, 69888, Note_on_c, 10, 57, 100
10, 70076, Note_on_c, 10, 57, 0
10, 70076, Note_on_c, 10, 54, 0
10, 70076, Note_on_c, 10, 50, 0
10, 70080, Note_on_c, 10, 50, 100
10, 70080, Note_on_c, 10, 54, 100
10, 70080, Note_on_c, 10, 57, 100
10, 70268, Note_on_c, 10, 57, 0
10, 70268, Note_on_c, 10, 54, 0
10, 70268, Note_on_c, 10, 50, 0
10, 70272, Note_on_c, 10, 50, 100
10, 70272, Note_on_c, 10, 57, 100
10, 70272, Note_on_c, 10, 54, 100
10, 70460, Note_on_c, 10, 54, 0
10, 70460, Note_on_c, 10, 57, 0
10, 70460, Note_on_c, 10, 50, 0
10, 70464, Note_on_c, 10, 50, 100
10, 70464, Note_on_c, 10, 57, 100
10, 70464, Note_on_c, 10, 54, 100
10, 70652, Note_on_c, 10, 54, 0
10, 70652, Note_on_c, 10, 57, 0
10, 70652, Note_on_c, 10, 50, 0
10, 70656, Note_on_c, 10, 57, 100
10, 70656, Note_on_c, 10, 54, 100
10, 70844, Note_on_c, 10, 54, 0
10, 70844, Note_on_c, 10, 57, 0
10, 70848, Note_on_c, 10, 57, 100
10, 70848, Note_on_c, 10, 54, 100
10, 71036, Note_on_c, 10, 54, 0
10, 71036, Note_on_c, 10, 57, 0
10, 71040, Note_on_c, 10, 57, 100
10, 71040, Note_on_c, 10, 54, 100
10, 71180, Note_on_c, 10, 54, 0
10, 71180, Note_on_c, 10, 57, 0
10, 71184, Note_on_c, 10, 57, 100
10, 71184, Note_on_c, 10, 61, 100
10, 71324, Note_on_c, 10, 61, 0
10, 71324, Note_on_c, 10, 57, 0
10, 71328, Note_on_c, 10, 61, 100
10, 71328, Note_on_c, 10, 57, 100
10, 71420, Note_on_c, 10, 57, 0
10, 71420, Note_on_c, 10, 61, 0
10, 71424, Note_on_c, 10, 52, 100
10, 71424, Note_on_c, 10, 56, 100
10, 71612, Note_on_c, 10, 56, 0
10, 71612, Note_on_c, 10, 52, 0
10, 71616, Note_on_c, 10, 52, 100
10, 71616, Note_on_c, 10, 56, 100
10, 71804, Note_on_c, 10, 56, 0
10, 71804, Note_on_c, 10, 52, 0
10, 71808, Note_on_c, 10, 56, 100
10, 71808, Note_on_c, 10, 52, 100
10, 71948, Note_on_c, 10, 52, 0
10, 71948, Note_on_c, 10, 56, 0
10, 71952, Note_on_c, 10, 61, 100
10, 71952, Note_on_c, 10, 57, 100
10, 72092, Note_on_c, 10, 57, 0
10, 72092, Note_on_c, 10, 61, 0
10, 72096, Note_on_c, 10, 61, 100
10, 72096, Note_on_c, 10, 57, 100
10, 72188, Note_on_c, 10, 57, 0
10, 72188, Note_on_c, 10, 61, 0
10, 72192, Note_on_c, 10, 54, 100
10, 72192, Note_on_c, 10, 50, 100
10, 72380, Note_on_c, 10, 50, 0
10, 72380, Note_on_c, 10, 54, 0
10, 72384, Note_on_c, 10, 54, 100
10, 72384, Note_on_c, 10, 50, 100
10, 72572, Note_on_c, 10, 50, 0
10, 72572, Note_on_c, 10, 54, 0
10, 72576, Note_on_c, 10, 50, 100
10, 72576, Note_on_c, 10, 54, 100
10, 72716, Note_on_c, 10, 54, 0
10, 72716, Note_on_c, 10, 50, 0
10, 72720, Note_on_c, 10, 57, 100
10, 72720, Note_on_c, 10, 61, 100
10, 72860, Note_on_c, 10, 61, 0
10, 72860, Note_on_c, 10, 57, 0
10, 72864, Note_on_c, 10, 61, 100
10, 72864, Note_on_c, 10, 57, 100
10, 72956, Note_on_c, 10, 57, 0
10, 72956, Note_on_c, 10, 61, 0
10, 72960, Note_on_c, 10, 50, 100
10, 72960, Note_on_c, 10, 54, 100
10, 73148, Note_on_c, 10, 54, 0
10, 73148, Note_on_c, 10, 50, 0
10, 73152, Note_on_c, 10, 54, 100
10, 73152, Note_on_c, 10, 50, 100
10, 73340, Note_on_c, 10, 50, 0
10, 73340, Note_on_c, 10, 54, 0
10, 73344, Note_on_c, 10, 54, 100
10, 73344, Note_on_c, 10, 50, 100
10, 73484, Note_on_c, 10, 50, 0
10, 73484, Note_on_c, 10, 54, 0
10, 73488, Note_on_c, 10, 57, 100
10, 73488, Note_on_c, 10, 61, 100
10, 73628, Note_on_c, 10, 61, 0
10, 73628, Note_on_c, 10, 57, 0
10, 73632, Note_on_c, 10, 57, 100
10, 73632, Note_on_c, 10, 61, 100
10, 73724, Note_on_c, 10, 61, 0
10, 73724, Note_on_c, 10, 57, 0
10, 73728, Note_on_c, 10, 66, 100
10, 74492, Note_on_c, 10, 66, 0
10, 74496, Note_on_c, 10, 64, 100
10, 75260, Note_on_c, 10, 64, 0
10, 75264, Note_on_c, 10, 62, 100
10, 76316, Note_on_c, 10, 62, 0
10, 76795, Control_c, 10, 101, 0
10, 76796, Control_c, 10, 100, 0
10, 76797, Control_c, 10, 6, 12
10, 76798, Control_c, 10, 38, 0
10, 76800, Control_c, 10, 10, 64
10, 76800, Control_c, 10, 11, 127
10, 76800, Pitch_bend_c, 10, 8192
10, 76800, Program_c, 10, 81
10, 76800, Control_c, 10, 101, 0
10, 76801, Control_c, 10, 100, 0
10, 76802, Control_c, 10, 6, 12
10, 76803, Control_c, 10, 38, 0
10, 76803, Control_c, 10, 10, 64
10, 76803, Control_c, 10, 11, 127
10, 76803, Control_c, 10, 101, 0
10, 76804, Control_c, 10, 100, 0
10, 76805, Control_c, 10, 6, 12
10, 76806, Control_c, 10, 38, 0
10, 76806, Control_c, 10, 10, 64
10, 76806, Control_c, 10, 11, 127
10, 76806, Pitch_bend_c, 10, 8192
10, 76806, Program_c, 10, 81
10, 76806, End_track
0, 0, End_of_file
