0, 0, Header, 0, 1, 96
1, 0, Start_track
1, 0, Title_t, "DON'T START ME TO TALKIN'       ;Words and music by Sonny Boy Williamson"
1, 0, Copyright_t, "(C) 1994 Tune 1000 Corporation  ;1955 Arc Music"
1, 0, Time_signature, 4, 2, 24, 8
1, 0, Tempo, 521739
1, 0, Key_signature, 1, "major"
1, 0, System_exclusive, 5, 126, 127, 9, 1, 247
1, 0, Lyric_t, "ALL rights reserved. Not for broadcast or "
1, 0, Lyric_t, "\015"
1, 0, Lyric_t, "transmission of any kind. "
1, 0, Lyric_t, "\015"
1, 0, Lyric_t, "DO NOT DUPLICATE. NOT FOR RENTAL. "
1, 0, Lyric_t, "\015"
1, 98, Program_c, 0, 0
1, 99, Control_c, 0, 7, 90
1, 99, Control_c, 0, 10, 64
1, 99, Control_c, 0, 11, 127
1, 100, Control_c, 0, 91, 50
1, 100, Control_c, 0, 93, 20
1, 103, Program_c, 1, 32
1, 104, Control_c, 1, 7, 105
1, 104, Control_c, 1, 10, 64
1, 104, Control_c, 1, 11, 127
1, 105, Control_c, 1, 91, 10
1, 105, Control_c, 1, 93, 10
1, 108, Program_c, 2, 28
1, 109, Control_c, 2, 7, 85
1, 109, Control_c, 2, 10, 7
1, 109, Control_c, 2, 11, 127
1, 110, Control_c, 2, 91, 38
1, 110, Control_c, 2, 93, 20
1, 113, Program_c, 3, 22
1, 114, Control_c, 3, 7, 100
1, 114, Control_c, 3, 10, 64
1, 114, Control_c, 3, 11, 127
1, 115, Control_c, 3, 91, 40
1, 115, Control_c, 3, 93, 10
1, 118, Program_c, 5, 26
1, 119, Control_c, 5, 7, 90
1, 119, Control_c, 5, 10, 81
1, 119, Control_c, 5, 11, 127
1, 120, Control_c, 5, 91, 50
1, 120, Control_c, 5, 93, 0
1, 123, Program_c, 6, 22
1, 124, Control_c, 6, 7, 105
1, 124, Control_c, 6, 10, 87
1, 124, Control_c, 6, 11, 127
1, 125, Control_c, 6, 91, 50
1, 125, Control_c, 6, 93, 10
1, 128, Program_c, 7, 27
1, 129, Control_c, 7, 7, 50
1, 129, Control_c, 7, 10, 85
1, 129, Control_c, 7, 11, 127
1, 130, Control_c, 7, 91, 50
1, 130, Control_c, 7, 93, 0
1, 134, Control_c, 9, 7, 105
1, 134, Control_c, 9, 11, 127
1, 135, Control_c, 9, 91, 50
1, 135, Control_c, 9, 93, 0
1, 384, Time_signature, 4, 2, 24, 8
1, 384, Note_on_c, 1, 43, 98
1, 384, Note_on_c, 5, 62, 114
1, 384, Note_on_c, 7, 62, 124
1, 385, Note_on_c, 9, 42, 103
1, 385, Note_on_c, 9, 35, 109
1, 385, Control_c, 1, 1, 0
1, 385, Pitch_bend_c, 1, 8192
1, 385, Note_on_c, 0, 79, 116
1, 385, Note_on_c, 0, 74, 110
1, 385, Note_on_c, 0, 67, 112
1, 385, Note_on_c, 0, 55, 98
1, 385, Control_c, 5, 1, 0
1, 385, Pitch_bend_c, 5, 8192
1, 385, Control_c, 7, 1, 0
1, 385, Pitch_bend_c, 7, 8192
1, 386, Note_off_c, 9, 35, 64
1, 386, Note_off_c, 9, 42, 64
1, 386, Control_c, 9, 1, 0
1, 386, Pitch_bend_c, 9, 8192
1, 386, Control_c, 0, 1, 0
1, 386, Pitch_bend_c, 0, 8192
1, 386, Note_on_c, 2, 54, 118
1, 386, Note_on_c, 5, 67, 113
1, 386, Note_on_c, 7, 67, 123
1, 386, Note_on_c, 6, 66, 104
1, 386, Pitch_bend_c, 6, 8192
1, 387, Control_c, 2, 1, 0
1, 387, Pitch_bend_c, 2, 8192
1, 387, Control_c, 6, 1, 0
1, 392, Note_off_c, 2, 54, 64
1, 393, Note_on_c, 2, 55, 109
1, 397, Pitch_bend_c, 6, 12544
1, 404, Pitch_bend_c, 6, 12576
1, 407, Pitch_bend_c, 6, 12608
1, 412, Pitch_bend_c, 6, 12640
1, 415, Pitch_bend_c, 6, 12608
1, 423, Note_off_c, 0, 67, 64
1, 424, Note_off_c, 0, 79, 64
1, 424, Note_off_c, 0, 74, 64
1, 424, Pitch_bend_c, 6, 12576
1, 427, Pitch_bend_c, 6, 12544
1, 430, Pitch_bend_c, 6, 12512
1, 436, Pitch_bend_c, 6, 12480
1, 438, Pitch_bend_c, 6, 12512
1, 442, Note_off_c, 2, 55, 64
1, 443, Note_off_c, 0, 55, 64
1, 445, Pitch_bend_c, 6, 12544
1, 446, Note_on_c, 2, 55, 100
1, 447, Note_on_c, 0, 62, 102
1, 447, Note_on_c, 0, 74, 93
1, 447, Note_on_c, 0, 79, 86
1, 447, Note_on_c, 0, 67, 80
1, 448, Note_on_c, 9, 42, 71
1, 448, Note_off_c, 5, 67, 64
1, 448, Note_off_c, 7, 67, 64
1, 449, Note_off_c, 9, 42, 64
1, 450, Note_on_c, 5, 67, 87
1, 450, Note_on_c, 7, 67, 97
1, 457, Note_off_c, 0, 79, 64
1, 457, Note_off_c, 0, 62, 64
1, 460, Note_off_c, 0, 74, 64
1, 461, Note_off_c, 0, 67, 64
1, 471, Pitch_bend_c, 6, 12576
1, 473, Note_off_c, 1, 43, 64
1, 473, Note_off_c, 2, 55, 64
1, 474, Note_off_c, 6, 66, 64
1, 477, Note_on_c, 2, 55, 113
1, 479, Note_on_c, 9, 42, 78
1, 479, Note_on_c, 0, 79, 114
1, 479, Note_on_c, 0, 74, 105
1, 479, Note_off_c, 5, 67, 64
1, 479, Note_off_c, 7, 67, 64
1, 479, Pitch_bend_c, 6, 8192
1, 480, Note_off_c, 9, 42, 64
1, 480, Note_on_c, 9, 38, 94
1, 480, Note_on_c, 0, 67, 87
1, 480, Note_on_c, 6, 67, 107
1, 481, Note_off_c, 9, 38, 64
1, 481, Note_on_c, 1, 41, 99
1, 487, Note_on_c, 5, 67, 109
1, 487, Note_on_c, 7, 67, 119
1, 495, Note_off_c, 0, 79, 64
1, 500, Note_off_c, 0, 67, 64
1, 500, Note_off_c, 0, 74, 64
1, 500, Note_off_c, 2, 55, 64
1, 510, Note_on_c, 2, 53, 101
1, 510, Note_off_c, 5, 62, 64
1, 510, Note_off_c, 7, 62, 64
1, 510, Note_off_c, 6, 67, 64
1, 513, Note_on_c, 0, 77, 118
1, 513, Note_on_c, 0, 67, 75
1, 517, Note_on_c, 6, 65, 102
1, 520, Note_on_c, 5, 65, 96
1, 520, Note_on_c, 7, 65, 106
1, 525, Note_off_c, 0, 67, 64
1, 533, Note_off_c, 0, 77, 64
1, 536, Note_off_c, 5, 67, 64
1, 536, Note_off_c, 7, 67, 64
1, 541, Note_off_c, 2, 53, 64
1, 541, Note_on_c, 2, 50, 101
1, 543, Note_on_c, 0, 74, 105
1, 544, Note_on_c, 9, 42, 66
1, 545, Note_off_c, 9, 42, 64
1, 546, Note_off_c, 5, 65, 64
1, 546, Note_on_c, 5, 62, 47
1, 546, Note_off_c, 7, 65, 64
1, 546, Note_on_c, 7, 62, 57
1, 547, Note_off_c, 6, 65, 64
1, 547, Note_on_c, 6, 62, 77
1, 563, Note_off_c, 0, 74, 64
1, 568, Note_off_c, 1, 41, 64
1, 574, Note_off_c, 2, 50, 64
1, 575, Note_on_c, 1, 38, 90
1, 575, Note_on_c, 0, 77, 116
1, 575, Note_on_c, 0, 67, 105
1, 575, Note_off_c, 5, 62, 64
1, 575, Note_off_c, 7, 62, 64
1, 576, Note_on_c, 9, 42, 79
1, 576, Note_on_c, 0, 55, 96
1, 576, Note_on_c, 2, 49, 110
1, 577, Note_off_c, 9, 42, 64
1, 577, Note_on_c, 9, 35, 107
1, 577, Note_off_c, 6, 62, 64
1, 577, Note_on_c, 6, 65, 114
1, 578, Note_off_c, 9, 35, 64
1, 578, Note_on_c, 5, 65, 100
1, 578, Note_on_c, 7, 65, 110
1, 608, Note_off_c, 2, 49, 64
1, 609, Note_on_c, 2, 48, 107
1, 616, Pitch_bend_c, 6, 8096
1, 618, Pitch_bend_c, 6, 7840
1, 620, Note_off_c, 0, 77, 64
1, 621, Note_off_c, 0, 67, 64
1, 621, Pitch_bend_c, 6, 7296
1, 624, Pitch_bend_c, 6, 4608
1, 627, Pitch_bend_c, 6, 4576
1, 630, Note_off_c, 6, 65, 64
1, 630, Pitch_bend_c, 6, 4448
1, 636, Note_off_c, 0, 55, 64
1, 639, Note_on_c, 0, 77, 90
1, 639, Note_on_c, 0, 74, 100
1, 639, Note_on_c, 0, 62, 100
1, 640, Note_on_c, 0, 67, 72
1, 641, Note_on_c, 9, 42, 77
1, 642, Note_off_c, 9, 42, 64
1, 645, Note_off_c, 0, 62, 64
1, 645, Note_off_c, 2, 48, 64
1, 648, Note_off_c, 0, 67, 64
1, 650, Note_off_c, 0, 77, 64
1, 652, Note_off_c, 0, 74, 64
1, 664, Note_off_c, 5, 65, 64
1, 664, Note_off_c, 7, 65, 64
1, 668, Note_off_c, 1, 38, 64
1, 671, Note_on_c, 0, 74, 105
1, 671, Note_on_c, 0, 77, 112
1, 672, Note_on_c, 1, 38, 101
1, 673, Note_on_c, 9, 42, 82
1, 673, Note_on_c, 9, 38, 99
1, 673, Note_on_c, 0, 67, 78
1, 674, Note_off_c, 9, 38, 64
1, 674, Note_off_c, 9, 42, 64
1, 680, Note_off_c, 0, 67, 64
1, 724, Note_off_c, 0, 77, 64
1, 730, Note_off_c, 0, 74, 64
1, 735, Note_on_c, 9, 42, 72
1, 735, Note_on_c, 0, 67, 127
1, 736, Note_off_c, 9, 42, 64
1, 736, Note_on_c, 0, 62, 80
1, 737, Note_on_c, 2, 50, 78
1, 748, Note_off_c, 0, 62, 64
1, 754, Note_off_c, 0, 67, 64
1, 764, Note_off_c, 1, 38, 64
1, 764, Note_off_c, 2, 50, 64
1, 767, Note_on_c, 9, 42, 83
1, 767, Note_on_c, 9, 35, 107
1, 767, Note_on_c, 0, 79, 127
1, 767, Note_on_c, 0, 73, 117
1, 768, Note_off_c, 9, 35, 64
1, 768, Note_off_c, 9, 42, 64
1, 768, Note_on_c, 2, 53, 112
1, 768, Note_on_c, 6, 72, 101
1, 768, Pitch_bend_c, 6, 8352
1, 769, Note_on_c, 1, 43, 98
1, 769, Note_on_c, 0, 55, 101
1, 769, Pitch_bend_c, 6, 8416
1, 770, Note_on_c, 5, 66, 105
1, 770, Note_on_c, 7, 66, 115
1, 774, Pitch_bend_c, 6, 8448
1, 777, Pitch_bend_c, 6, 8480
1, 781, Note_off_c, 5, 66, 64
1, 781, Note_on_c, 5, 67, 94
1, 781, Note_off_c, 7, 66, 64
1, 781, Note_on_c, 7, 67, 104
1, 782, Pitch_bend_c, 6, 8448
1, 783, Note_off_c, 0, 73, 64
1, 785, Note_off_c, 0, 79, 64
1, 788, Pitch_bend_c, 6, 8480
1, 790, Pitch_bend_c, 6, 8544
1, 791, Pitch_bend_c, 6, 8640
1, 793, Pitch_bend_c, 6, 8704
1, 794, Pitch_bend_c, 6, 8800
1, 796, Note_off_c, 0, 55, 64
1, 796, Pitch_bend_c, 6, 8896
1, 797, Note_off_c, 2, 53, 64
1, 797, Pitch_bend_c, 6, 8992
1, 798, Pitch_bend_c, 6, 9088
1, 799, Note_on_c, 0, 79, 59
1, 799, Note_on_c, 0, 74, 100
1, 799, Note_on_c, 2, 54, 108
1, 800, Pitch_bend_c, 6, 9152
1, 801, Pitch_bend_c, 6, 9280
1, 803, Pitch_bend_c, 6, 9344
1, 804, Pitch_bend_c, 6, 9440
1, 805, Pitch_bend_c, 6, 9536
1, 807, Pitch_bend_c, 6, 9664
1, 808, Pitch_bend_c, 6, 9728
1, 810, Pitch_bend_c, 6, 9888
1, 811, Pitch_bend_c, 6, 10048
1, 812, Note_off_c, 0, 74, 64
1, 812, Note_off_c, 0, 79, 64
1, 813, Pitch_bend_c, 6, 10208
1, 814, Pitch_bend_c, 6, 10432
1, 815, Pitch_bend_c, 6, 10624
1, 817, Pitch_bend_c, 6, 10816
1, 818, Pitch_bend_c, 6, 10944
1, 820, Pitch_bend_c, 6, 11104
1, 821, Pitch_bend_c, 6, 11200
1, 823, Pitch_bend_c, 6, 11264
1, 826, Pitch_bend_c, 6, 11200
1, 827, Note_off_c, 5, 67, 64
1, 827, Note_off_c, 7, 67, 64
1, 829, Note_off_c, 6, 72, 64
1, 829, Pitch_bend_c, 6, 8192
1, 829, Note_on_c, 6, 74, 94
1, 830, Note_on_c, 2, 55, 111
1, 831, Note_on_c, 0, 74, 112
1, 831, Note_on_c, 0, 79, 120
1, 832, Note_on_c, 9, 42, 76
1, 832, Note_on_c, 5, 67, 83
1, 832, Note_on_c, 7, 67, 93
1, 833, Note_off_c, 9, 42, 64
1, 836, Pitch_bend_c, 6, 8512
1, 837, Note_off_c, 2, 54, 64
1, 839, Pitch_bend_c, 6, 8448
1, 850, Note_off_c, 0, 79, 64
1, 851, Note_off_c, 0, 74, 64
1, 852, Pitch_bend_c, 6, 8416
1, 854, Note_off_c, 6, 74, 64
1, 860, Note_off_c, 2, 55, 64
1, 860, Note_on_c, 6, 72, 98
1, 860, Pitch_bend_c, 6, 8512
1, 862, Note_on_c, 2, 53, 125
1, 863, Note_on_c, 9, 42, 81
1, 863, Note_on_c, 9, 38, 104
1, 863, Note_on_c, 0, 79, 98
1, 863, Note_on_c, 0, 73, 111
1, 863, Note_on_c, 5, 61, 88
1, 863, Note_on_c, 7, 61, 98
1, 864, Note_off_c, 9, 38, 64
1, 864, Note_off_c, 9, 42, 64
1, 864, Pitch_bend_c, 6, 8544
1, 865, Note_on_c, 1, 47, 92
1, 866, Note_off_c, 1, 43, 64
1, 866, Note_off_c, 5, 67, 64
1, 866, Note_off_c, 7, 67, 64
1, 867, Note_on_c, 5, 66, 93
1, 867, Note_on_c, 7, 66, 103
1, 871, Pitch_bend_c, 6, 8512
1, 872, Note_off_c, 5, 66, 64
1, 872, Note_on_c, 5, 67, 85
1, 872, Note_off_c, 7, 66, 64
1, 872, Note_on_c, 7, 67, 95
1, 873, Pitch_bend_c, 6, 8544
1, 874, Pitch_bend_c, 6, 8608
1, 875, Note_off_c, 5, 61, 64
1, 875, Note_on_c, 5, 62, 58
1, 875, Note_off_c, 7, 61, 64
1, 875, Note_on_c, 7, 62, 68
1, 876, Pitch_bend_c, 6, 8704
1, 877, Pitch_bend_c, 6, 8800
1, 878, Note_off_c, 0, 79, 64
1, 879, Note_off_c, 0, 73, 64
1, 879, Pitch_bend_c, 6, 8896
1, 880, Pitch_bend_c, 6, 9024
1, 882, Pitch_bend_c, 6, 9088
1, 883, Pitch_bend_c, 6, 9152
1, 885, Pitch_bend_c, 6, 9280
1, 886, Pitch_bend_c, 6, 9344
1, 887, Pitch_bend_c, 6, 9472
1, 889, Pitch_bend_c, 6, 9600
1, 890, Note_off_c, 2, 53, 64
1, 890, Pitch_bend_c, 6, 9728
1, 892, Pitch_bend_c, 6, 9888
1, 893, Note_on_c, 2, 54, 105
1, 893, Pitch_bend_c, 6, 10048
1, 895, Note_on_c, 0, 79, 78
1, 895, Note_on_c, 0, 74, 101
1, 895, Pitch_bend_c, 6, 10240
1, 896, Pitch_bend_c, 6, 10432
1, 897, Pitch_bend_c, 6, 10592
1, 899, Pitch_bend_c, 6, 10752
1, 900, Pitch_bend_c, 6, 10912
1, 902, Pitch_bend_c, 6, 11072
1, 903, Pitch_bend_c, 6, 11232
1, 904, Pitch_bend_c, 6, 11392
1, 906, Pitch_bend_c, 6, 11520
1, 907, Pitch_bend_c, 6, 11648
1, 909, Note_off_c, 0, 79, 64
1, 909, Pitch_bend_c, 6, 11744
1, 910, Note_off_c, 0, 74, 64
1, 910, Pitch_bend_c, 6, 11840
1, 913, Pitch_bend_c, 6, 11872
1, 917, Pitch_bend_c, 6, 11744
1, 919, Note_off_c, 5, 67, 64
1, 919, Note_off_c, 7, 67, 64
1, 919, Pitch_bend_c, 6, 11392
1, 920, Pitch_bend_c, 6, 10848
1, 922, Note_off_c, 6, 72, 64
1, 923, Note_off_c, 2, 54, 64
1, 923, Note_on_c, 6, 74, 104
1, 923, Pitch_bend_c, 6, 8512
1, 925, Note_on_c, 2, 55, 100
1, 925, Note_on_c, 5, 67, 85
1, 925, Note_on_c, 7, 67, 95
1, 927, Note_on_c, 9, 42, 74
1, 927, Note_on_c, 0, 74, 112
1, 927, Note_on_c, 0, 79, 118
1, 928, Note_off_c, 9, 42, 64
1, 944, Note_off_c, 0, 79, 64
1, 949, Note_off_c, 0, 74, 64
1, 952, Note_off_c, 5, 67, 64
1, 952, Note_off_c, 5, 62, 64
1, 952, Note_off_c, 7, 67, 64
1, 952, Note_off_c, 7, 62, 64
1, 952, Note_off_c, 6, 74, 64
1, 952, Pitch_bend_c, 6, 8448
1, 953, Note_off_c, 2, 55, 64
1, 956, Pitch_bend_c, 6, 8192
1, 956, Note_on_c, 6, 72, 97
1, 957, Note_on_c, 5, 61, 95
1, 957, Note_on_c, 7, 61, 105
1, 957, Pitch_bend_c, 6, 8544
1, 958, Note_off_c, 1, 47, 64
1, 958, Note_on_c, 2, 53, 118
1, 958, Pitch_bend_c, 6, 8512
1, 959, Note_on_c, 9, 42, 81
1, 959, Note_on_c, 9, 35, 107
1, 959, Note_on_c, 0, 79, 104
1, 959, Note_on_c, 0, 73, 114
1, 959, Note_on_c, 0, 74, 70
1, 959, Pitch_bend_c, 6, 8544
1, 960, Note_off_c, 9, 35, 64
1, 960, Note_off_c, 9, 42, 64
1, 961, Note_on_c, 1, 50, 102
1, 961, Note_on_c, 5, 66, 90
1, 961, Note_on_c, 7, 66, 100
1, 962, Pitch_bend_c, 6, 8608
1, 963, Note_off_c, 0, 74, 64
1, 963, Pitch_bend_c, 6, 8640
1, 965, Pitch_bend_c, 6, 8672
1, 966, Pitch_bend_c, 6, 8736
1, 968, Pitch_bend_c, 6, 8832
1, 969, Pitch_bend_c, 6, 8928
1, 971, Pitch_bend_c, 6, 9024
1, 972, Note_off_c, 5, 61, 64
1, 972, Note_off_c, 7, 61, 64
1, 972, Pitch_bend_c, 6, 9120
1, 973, Note_off_c, 5, 66, 64
1, 973, Note_on_c, 5, 62, 85
1, 973, Note_on_c, 5, 67, 78
1, 973, Note_off_c, 7, 66, 64
1, 973, Note_on_c, 7, 62, 95
1, 973, Note_on_c, 7, 67, 88
1, 974, Note_off_c, 0, 79, 64
1, 974, Pitch_bend_c, 6, 9216
1, 975, Pitch_bend_c, 6, 9312
1, 976, Note_off_c, 0, 73, 64
1, 976, Pitch_bend_c, 6, 9440
1, 978, Pitch_bend_c, 6, 9536
1, 979, Pitch_bend_c, 6, 9632
1, 981, Pitch_bend_c, 6, 9696
1, 982, Pitch_bend_c, 6, 9824
1, 984, Pitch_bend_c, 6, 9888
1, 985, Pitch_bend_c, 6, 10016
1, 987, Note_off_c, 2, 53, 64
1, 987, Pitch_bend_c, 6, 10112
1, 988, Pitch_bend_c, 6, 10240
1, 989, Note_on_c, 2, 50, 85
1, 990, Pitch_bend_c, 6, 10336
1, 991, Note_on_c, 0, 79, 74
1, 991, Note_on_c, 0, 74, 101
1, 991, Pitch_bend_c, 6, 10496
1, 992, Pitch_bend_c, 6, 10656
1, 994, Pitch_bend_c, 6, 10816
1, 995, Pitch_bend_c, 6, 10944
1, 997, Pitch_bend_c, 6, 11136
1, 998, Pitch_bend_c, 6, 11328
1, 999, Pitch_bend_c, 6, 11520
1, 1001, Pitch_bend_c, 6, 11680
1, 1002, Pitch_bend_c, 6, 11808
1, 1004, Note_off_c, 0, 74, 64
1, 1004, Pitch_bend_c, 6, 11904
1, 1005, Note_off_c, 0, 79, 64
1, 1005, Pitch_bend_c, 6, 12000
1, 1007, Pitch_bend_c, 6, 12032
1, 1008, Pitch_bend_c, 6, 12064
1, 1014, Pitch_bend_c, 6, 12096
1, 1016, Note_off_c, 5, 67, 64
1, 1016, Note_off_c, 7, 67, 64
1, 1016, Pitch_bend_c, 6, 12032
1, 1017, Note_off_c, 2, 50, 64
1, 1018, Pitch_bend_c, 6, 11680
1, 1020, Pitch_bend_c, 6, 11072
1, 1021, Note_off_c, 6, 72, 64
1, 1021, Pitch_bend_c, 6, 12064
1, 1022, Note_on_c, 2, 49, 100
1, 1022, Note_on_c, 6, 74, 104
1, 1022, Pitch_bend_c, 6, 8384
1, 1023, Note_on_c, 9, 42, 71
1, 1023, Note_on_c, 0, 74, 107
1, 1023, Note_on_c, 0, 79, 104
1, 1023, Pitch_bend_c, 6, 8416
1, 1024, Note_off_c, 9, 42, 64
1, 1024, Note_on_c, 5, 67, 82
1, 1024, Note_on_c, 7, 67, 92
1, 1033, Pitch_bend_c, 6, 8448
1, 1042, Pitch_bend_c, 6, 8512
1, 1043, Note_off_c, 6, 74, 64
1, 1044, Note_off_c, 0, 74, 64
1, 1049, Note_off_c, 5, 62, 64
1, 1049, Note_off_c, 7, 62, 64
1, 1053, Note_off_c, 2, 49, 64
1, 1054, Note_on_c, 5, 62, 101
1, 1054, Note_on_c, 7, 62, 111
1, 1055, Note_on_c, 1, 38, 96
1, 1055, Note_on_c, 0, 72, 118
1, 1056, Note_off_c, 5, 67, 64
1, 1056, Note_off_c, 7, 67, 64
1, 1057, Note_on_c, 9, 42, 78
1, 1057, Note_on_c, 9, 38, 106
1, 1057, Note_on_c, 2, 48, 119
1, 1057, Note_on_c, 5, 67, 82
1, 1057, Note_on_c, 7, 67, 92
1, 1058, Note_off_c, 9, 38, 64
1, 1058, Note_off_c, 9, 42, 64
1, 1058, Pitch_bend_c, 6, 8192
1, 1059, Note_off_c, 1, 50, 64
1, 1059, Note_on_c, 6, 72, 94
1, 1059, Pitch_bend_c, 6, 11328
1, 1062, Pitch_bend_c, 6, 11424
1, 1064, Pitch_bend_c, 6, 11520
1, 1065, Pitch_bend_c, 6, 11648
1, 1066, Pitch_bend_c, 6, 11712
1, 1068, Note_off_c, 0, 79, 64
1, 1073, Pitch_bend_c, 6, 11680
1, 1082, Pitch_bend_c, 6, 11712
1, 1085, Note_off_c, 2, 48, 64
1, 1086, Note_on_c, 2, 46, 108
1, 1087, Note_on_c, 0, 79, 58
1, 1087, Note_on_c, 0, 70, 103
1, 1087, Pitch_bend_c, 6, 11648
1, 1088, Pitch_bend_c, 6, 11456
1, 1090, Pitch_bend_c, 6, 11136
1, 1091, Note_off_c, 0, 72, 64
1, 1091, Pitch_bend_c, 6, 10816
1, 1092, Pitch_bend_c, 6, 10400
1, 1094, Pitch_bend_c, 6, 9952
1, 1095, Pitch_bend_c, 6, 9536
1, 1097, Pitch_bend_c, 6, 9120
1, 1098, Pitch_bend_c, 6, 8800
1, 1099, Note_off_c, 0, 79, 64
1, 1099, Note_off_c, 6, 72, 64
1, 1101, Note_on_c, 6, 72, 86
1, 1101, Pitch_bend_c, 6, 8192
1, 1104, Pitch_bend_c, 6, 256
1, 1106, Pitch_bend_c, 6, 288
1, 1107, Pitch_bend_c, 6, 320
1, 1109, Note_off_c, 0, 70, 64
1, 1112, Note_off_c, 5, 67, 64
1, 1112, Note_off_c, 7, 67, 64
1, 1115, Note_off_c, 2, 46, 64
1, 1115, Note_on_c, 5, 67, 101
1, 1115, Note_on_c, 7, 67, 111
1, 1119, Note_on_c, 0, 67, 124
1, 1119, Note_on_c, 0, 62, 81
1, 1121, Note_on_c, 9, 42, 76
1, 1121, Note_on_c, 2, 43, 117
1, 1122, Note_off_c, 9, 42, 64
1, 1126, Note_off_c, 6, 72, 64
1, 1129, Note_off_c, 0, 62, 64
1, 1129, Note_on_c, 6, 67, 60
1, 1129, Pitch_bend_c, 6, 8416
1, 1130, Pitch_bend_c, 6, 8768
1, 1132, Pitch_bend_c, 6, 8832
1, 1135, Pitch_bend_c, 6, 8864
1, 1139, Pitch_bend_c, 6, 8832
1, 1141, Note_off_c, 0, 67, 64
1, 1142, Note_off_c, 5, 62, 64
1, 1142, Note_off_c, 7, 62, 64
1, 1143, Pitch_bend_c, 6, 8800
1, 1145, Pitch_bend_c, 6, 8768
1, 1146, Pitch_bend_c, 6, 8736
1, 1149, Pitch_bend_c, 6, 8704
1, 1151, Note_on_c, 1, 43, 99
1, 1151, Note_on_c, 0, 67, 116
1, 1151, Note_on_c, 0, 55, 120
1, 1151, Note_off_c, 5, 67, 64
1, 1151, Note_off_c, 7, 67, 64
1, 1152, Note_off_c, 6, 67, 64
1, 1152, Pitch_bend_c, 6, 8768
1, 1153, Note_on_c, 9, 42, 79
1, 1153, Note_on_c, 9, 35, 107
1, 1154, Note_off_c, 9, 35, 64
1, 1154, Note_off_c, 9, 42, 64
1, 1155, Note_off_c, 1, 38, 64
1, 1178, Note_off_c, 0, 55, 64
1, 1191, Note_off_c, 2, 43, 64
1, 1193, Note_off_c, 0, 67, 64
1, 1214, Note_on_c, 9, 38, 121
1, 1215, Note_off_c, 9, 38, 64
1, 1215, Note_on_c, 0, 55, 122
1, 1215, Note_on_c, 0, 67, 127
1, 1215, Note_on_c, 5, 55, 37
1, 1215, Note_on_c, 7, 55, 47
1, 1217, Note_on_c, 9, 42, 71
1, 1218, Note_off_c, 9, 42, 64
1, 1236, Note_off_c, 0, 67, 64
1, 1238, Note_off_c, 0, 55, 64
1, 1246, Note_off_c, 1, 43, 64
1, 1247, Note_on_c, 0, 58, 101
1, 1247, Note_on_c, 0, 70, 114
1, 1247, Note_on_c, 2, 47, 89
1, 1247, Pitch_bend_c, 6, 8192
1, 1249, Note_on_c, 9, 42, 88
1, 1249, Note_on_c, 1, 47, 95
1, 1249, Note_on_c, 6, 66, 109
1, 1250, Note_off_c, 9, 42, 64
1, 1250, Note_on_c, 9, 38, 124
1, 1250, Note_on_c, 5, 59, 61
1, 1250, Note_on_c, 7, 59, 71
1, 1251, Note_off_c, 9, 38, 64
1, 1252, Note_on_c, 5, 62, 68
1, 1252, Note_on_c, 7, 62, 78
1, 1256, Note_on_c, 5, 67, 26
1, 1256, Note_on_c, 7, 67, 36
1, 1259, Pitch_bend_c, 6, 12096
1, 1262, Pitch_bend_c, 6, 12128
1, 1265, Pitch_bend_c, 6, 12160
1, 1268, Pitch_bend_c, 6, 12224
1, 1270, Pitch_bend_c, 6, 12288
1, 1272, Note_off_c, 0, 70, 64
1, 1274, Note_off_c, 2, 47, 64
1, 1277, Note_off_c, 0, 58, 64
1, 1279, Note_on_c, 0, 72, 108
1, 1279, Note_on_c, 0, 60, 93
1, 1279, Note_on_c, 2, 48, 103
1, 1279, Pitch_bend_c, 6, 12320
1, 1285, Pitch_bend_c, 6, 12352
1, 1288, Pitch_bend_c, 6, 12416
1, 1294, Pitch_bend_c, 6, 12448
1, 1304, Note_off_c, 0, 72, 64
1, 1305, Note_off_c, 2, 48, 64
1, 1306, Pitch_bend_c, 6, 12480
1, 1310, Note_off_c, 6, 66, 64
1, 1311, Note_on_c, 9, 42, 72
1, 1311, Note_on_c, 0, 61, 97
1, 1311, Note_on_c, 0, 73, 123
1, 1311, Note_on_c, 2, 49, 112
1, 1311, Note_off_c, 5, 55, 64
1, 1311, Note_off_c, 7, 55, 64
1, 1312, Note_off_c, 9, 42, 64
1, 1314, Note_off_c, 0, 60, 64
1, 1314, Pitch_bend_c, 6, 8192
1, 1315, Note_on_c, 6, 67, 96
1, 1323, Note_off_c, 5, 59, 64
1, 1323, Note_off_c, 7, 59, 64
1, 1341, Note_off_c, 1, 47, 64
1, 1341, Note_off_c, 0, 73, 64
1, 1341, Note_off_c, 2, 49, 64
1, 1343, Note_on_c, 0, 62, 110
1, 1343, Note_on_c, 0, 74, 105
1, 1343, Note_on_c, 2, 50, 107
1, 1344, Note_on_c, 1, 50, 99
1, 1345, Note_on_c, 9, 42, 86
1, 1345, Note_on_c, 9, 35, 108
1, 1346, Note_off_c, 9, 35, 64
1, 1346, Note_off_c, 9, 42, 64
1, 1347, Note_off_c, 6, 67, 64
1, 1348, Note_on_c, 6, 67, 102
1, 1351, Note_off_c, 0, 61, 64
1, 1370, Note_off_c, 2, 50, 64
1, 1371, Note_off_c, 0, 62, 64
1, 1373, Note_off_c, 0, 74, 64
1, 1375, Note_on_c, 2, 53, 115
1, 1376, Note_on_c, 0, 67, 104
1, 1376, Note_on_c, 0, 79, 127
1, 1400, Note_off_c, 0, 67, 64
1, 1403, Note_off_c, 2, 53, 64
1, 1403, Note_off_c, 6, 67, 64
1, 1405, Note_off_c, 5, 67, 64
1, 1405, Note_off_c, 7, 67, 64
1, 1406, Note_on_c, 2, 50, 105
1, 1406, Note_on_c, 5, 67, 54
1, 1406, Note_on_c, 7, 67, 64
1, 1407, Note_on_c, 6, 67, 110
1, 1408, Note_on_c, 9, 42, 72
1, 1408, Note_on_c, 0, 62, 104
1, 1408, Note_off_c, 5, 62, 64
1, 1408, Note_off_c, 7, 62, 64
1, 1409, Note_off_c, 9, 42, 64
1, 1409, Note_on_c, 0, 74, 102
1, 1409, Note_on_c, 5, 62, 59
1, 1409, Note_on_c, 7, 62, 69
1, 1414, Note_off_c, 0, 79, 64
1, 1422, Lyric_t, "\012"
1, 1436, Note_off_c, 0, 74, 64
1, 1436, Note_off_c, 0, 62, 64
1, 1436, Note_off_c, 2, 50, 64
1, 1436, Note_off_c, 6, 67, 64
1, 1439, Note_on_c, 9, 42, 85
1, 1439, Note_on_c, 9, 38, 118
1, 1439, Note_on_c, 0, 61, 89
1, 1439, Note_on_c, 0, 73, 127
1, 1440, Note_off_c, 9, 38, 64
1, 1440, Note_off_c, 9, 42, 64
1, 1440, Note_on_c, 2, 48, 126
1, 1440, Note_on_c, 6, 67, 108
1, 1441, Note_off_c, 1, 50, 64
1, 1441, Note_off_c, 5, 62, 64
1, 1441, Note_off_c, 7, 62, 64
1, 1442, Note_on_c, 1, 38, 102
1, 1442, Note_on_c, 5, 62, 81
1, 1442, Note_on_c, 7, 62, 91
1, 1444, Note_off_c, 5, 67, 64
1, 1444, Note_off_c, 7, 67, 64
1, 1445, Note_on_c, 5, 59, 51
1, 1445, Note_on_c, 5, 67, 74
1, 1445, Note_on_c, 7, 59, 61
1, 1445, Note_on_c, 7, 67, 84
1, 1463, Note_off_c, 0, 61, 64
1, 1470, Note_off_c, 0, 73, 64
1, 1471, Note_on_c, 0, 60, 102
1, 1472, Note_on_c, 0, 72, 104
1, 1489, Note_off_c, 0, 72, 64
1, 1497, Note_off_c, 2, 48, 64
1, 1500, Note_off_c, 6, 67, 64
1, 1501, Note_off_c, 0, 60, 64
1, 1501, Note_off_c, 5, 67, 64
1, 1501, Note_off_c, 7, 67, 64
1, 1503, Note_on_c, 0, 70, 117
1, 1503, Note_on_c, 0, 58, 103
1, 1503, Note_on_c, 5, 67, 66
1, 1503, Note_on_c, 7, 67, 76
1, 1505, Note_on_c, 9, 42, 65
1, 1505, Note_on_c, 2, 46, 100
1, 1505, Note_off_c, 5, 62, 64
1, 1505, Note_off_c, 7, 62, 64
1, 1506, Note_off_c, 9, 42, 64
1, 1506, Note_on_c, 5, 62, 70
1, 1506, Note_on_c, 7, 62, 80
1, 1506, Note_on_c, 6, 67, 110
1, 1508, Note_off_c, 5, 59, 64
1, 1508, Note_off_c, 7, 59, 64
1, 1510, Note_on_c, 5, 59, 49
1, 1510, Note_on_c, 7, 59, 59
1, 1522, Note_off_c, 0, 58, 64
1, 1533, Note_off_c, 1, 38, 64
1, 1534, Note_off_c, 0, 70, 64
1, 1534, Note_off_c, 2, 46, 64
1, 1535, Note_off_c, 5, 59, 64
1, 1535, Note_off_c, 7, 59, 64
1, 1536, Note_on_c, 9, 35, 107
1, 1536, Note_off_c, 5, 62, 64
1, 1536, Note_on_c, 5, 59, 85
1, 1536, Note_off_c, 7, 62, 64
1, 1536, Note_on_c, 7, 59, 95
1, 1536, Note_off_c, 6, 67, 64
1, 1537, Note_off_c, 9, 35, 64
1, 1537, Note_on_c, 9, 42, 85
1, 1537, Note_on_c, 0, 55, 116
1, 1537, Note_on_c, 0, 67, 112
1, 1538, Note_off_c, 9, 42, 64
1, 1538, Note_on_c, 1, 43, 98
1, 1538, Note_on_c, 2, 43, 110
1, 1538, Note_on_c, 5, 62, 104
1, 1538, Note_on_c, 7, 62, 114
1, 1539, Note_off_c, 5, 67, 64
1, 1539, Note_off_c, 7, 67, 64
1, 1540, Note_on_c, 5, 67, 94
1, 1540, Note_on_c, 7, 67, 104
1, 1541, Note_on_c, 6, 67, 106
1, 1563, Note_off_c, 0, 55, 64
1, 1572, Note_off_c, 0, 67, 64
1, 1577, Note_off_c, 2, 43, 64
1, 1580, Note_off_c, 5, 59, 64
1, 1580, Note_off_c, 7, 59, 64
1, 1582, Note_off_c, 5, 62, 64
1, 1582, Note_off_c, 7, 62, 64
1, 1583, Note_off_c, 5, 67, 64
1, 1583, Note_off_c, 7, 67, 64
1, 1585, Pitch_bend_c, 6, 6016
1, 1588, Pitch_bend_c, 6, 5600
1, 1590, Pitch_bend_c, 6, 5152
1, 1593, Pitch_bend_c, 6, 4736
1, 1596, Pitch_bend_c, 6, 4288
1, 1597, Note_on_c, 9, 38, 37
1, 1598, Note_off_c, 9, 38, 64
1, 1599, Pitch_bend_c, 6, 64
1, 1600, Note_off_c, 6, 67, 64
1, 1601, Note_on_c, 0, 48, 108
1, 1601, Note_on_c, 0, 60, 102
1, 1602, Note_on_c, 2, 46, 111
1, 1602, Note_on_c, 5, 50, 23
1, 1602, Note_on_c, 7, 50, 33
1, 1605, Note_on_c, 9, 38, 41
1, 1606, Note_off_c, 9, 38, 64
1, 1615, Note_on_c, 9, 38, 51
1, 1616, Note_off_c, 9, 38, 64
1, 1619, Note_off_c, 0, 48, 64
1, 1621, Note_off_c, 0, 60, 64
1, 1623, Note_on_c, 9, 38, 62
1, 1623, Note_off_c, 5, 50, 64
1, 1623, Note_off_c, 7, 50, 64
1, 1624, Note_off_c, 9, 38, 64
1, 1625, Note_off_c, 1, 43, 64
1, 1628, Note_off_c, 2, 46, 64
1, 1632, Note_on_c, 1, 38, 96
1, 1632, Note_on_c, 0, 61, 127
1, 1633, Note_on_c, 0, 49, 120
1, 1633, Note_on_c, 5, 50, 41
1, 1633, Note_on_c, 7, 50, 51
1, 1634, Note_on_c, 9, 38, 78
1, 1634, Note_on_c, 2, 47, 115
1, 1634, Pitch_bend_c, 6, 8192
1, 1635, Note_off_c, 9, 38, 64
1, 1636, Note_on_c, 5, 54, 49
1, 1636, Note_on_c, 7, 54, 59
1, 1636, Note_on_c, 6, 62, 96
1, 1638, Note_on_c, 5, 60, 44
1, 1638, Note_on_c, 7, 60, 54
1, 1641, Pitch_bend_c, 6, 8512
1, 1647, Pitch_bend_c, 6, 8576
1, 1650, Pitch_bend_c, 6, 8608
1, 1652, Pitch_bend_c, 6, 8640
1, 1664, Note_off_c, 2, 47, 64
1, 1665, Note_on_c, 2, 48, 108
1, 1666, Pitch_bend_c, 6, 8608
1, 1668, Pitch_bend_c, 6, 8576
1, 1674, Pitch_bend_c, 6, 8512
1, 1676, Note_off_c, 0, 49, 64
1, 1677, Note_off_c, 0, 61, 64
1, 1686, Pitch_bend_c, 6, 8352
1, 1688, Pitch_bend_c, 6, 8384
1, 1691, Note_off_c, 2, 48, 64
1, 1691, Pitch_bend_c, 6, 8416
1, 1694, Pitch_bend_c, 6, 8448
1, 1695, Note_on_c, 9, 35, 107
1, 1695, Note_on_c, 0, 62, 127
1, 1695, Note_on_c, 0, 50, 124
1, 1695, Note_off_c, 6, 62, 64
1, 1695, Pitch_bend_c, 6, 8512
1, 1696, Note_off_c, 9, 35, 64
1, 1696, Note_on_c, 9, 38, 110
1, 1696, Note_on_c, 2, 49, 108
1, 1697, Note_off_c, 9, 38, 64
1, 1698, Note_off_c, 5, 54, 64
1, 1698, Note_off_c, 7, 54, 64
1, 1699, Note_on_c, 5, 54, 82
1, 1699, Note_on_c, 7, 54, 92
1, 1699, Pitch_bend_c, 6, 8192
1, 1700, Note_off_c, 5, 60, 64
1, 1700, Note_off_c, 7, 60, 64
1, 1700, Note_on_c, 6, 62, 109
1, 1701, Note_on_c, 5, 60, 85
1, 1701, Note_on_c, 7, 60, 95
1, 1704, Note_on_c, 5, 62, 53
1, 1704, Note_on_c, 7, 62, 63
1, 1717, Note_off_c, 1, 38, 64
1, 1718, Pitch_bend_c, 6, 8704
1, 1724, Note_off_c, 2, 49, 64
1, 1724, Pitch_bend_c, 6, 8672
1, 1727, Pitch_bend_c, 6, 8640
1, 1728, Note_on_c, 2, 50, 111
1, 1729, Note_on_c, 1, 38, 101
1, 1738, Pitch_bend_c, 6, 8608
1, 1741, Pitch_bend_c, 6, 8576
1, 1748, Pitch_bend_c, 6, 8512
1, 1751, Pitch_bend_c, 6, 8448
1, 1754, Pitch_bend_c, 6, 8416
1, 1757, Pitch_bend_c, 6, 8384
1, 1762, Pitch_bend_c, 6, 8352
1, 1765, Pitch_bend_c, 6, 8384
1, 1777, Pitch_bend_c, 6, 8352
1, 1780, Pitch_bend_c, 6, 8320
1, 1782, Pitch_bend_c, 6, 8288
1, 1784, Note_off_c, 2, 50, 64
1, 1785, Pitch_bend_c, 6, 8224
1, 1788, Pitch_bend_c, 6, 8192
1, 1790, Lyric_t, "Well, "
1, 1790, Note_on_c, 3, 67, 127
1, 1790, Note_off_c, 6, 62, 64
1, 1790, Pitch_bend_c, 6, 8352
1, 1791, Control_c, 3, 1, 0
1, 1791, Pitch_bend_c, 3, 8192
1, 1791, Note_on_c, 2, 50, 71
1, 1792, Note_on_c, 9, 38, 91
1, 1793, Note_off_c, 9, 38, 64
1, 1812, Note_off_c, 1, 38, 64
1, 1822, Note_off_c, 2, 50, 64
1, 1824, Note_on_c, 2, 50, 113
1, 1825, Note_on_c, 1, 38, 108
1, 1826, Note_on_c, 9, 38, 115
1, 1827, Note_off_c, 9, 38, 64
1, 1829, Note_off_c, 0, 50, 64
1, 1834, Note_off_c, 0, 62, 64
1, 1853, Note_off_c, 5, 60, 64
1, 1853, Note_off_c, 7, 60, 64
1, 1855, Note_off_c, 5, 50, 64
1, 1855, Note_off_c, 7, 50, 64
1, 1856, Note_off_c, 3, 67, 64
1, 1856, Note_off_c, 5, 62, 64
1, 1856, Note_off_c, 7, 62, 64
1, 1859, Lyric_t, "I'm "
1, 1859, Note_on_c, 3, 65, 121
1, 1860, Note_off_c, 5, 54, 64
1, 1860, Note_off_c, 7, 54, 64
1, 1889, Note_on_c, 9, 35, 98
1, 1889, Note_on_c, 9, 38, 34
1, 1890, Note_off_c, 9, 38, 64
1, 1890, Note_off_c, 9, 35, 64
1, 1899, Note_on_c, 9, 38, 38
1, 1900, Note_off_c, 9, 38, 64
1, 1905, Note_off_c, 1, 38, 64
1, 1908, Note_off_c, 3, 65, 64
1, 1908, Note_on_c, 9, 38, 47
1, 1908, Note_off_c, 2, 50, 64
1, 1909, Note_off_c, 9, 38, 64
1, 1915, Note_on_c, 9, 38, 69
1, 1916, Note_off_c, 9, 38, 64
1, 1920, Note_on_c, 1, 43, 103
1, 1921, Note_on_c, 9, 42, 50
1, 1921, Note_on_c, 9, 35, 109
1, 1921, Note_on_c, 9, 38, 107
1, 1921, Note_on_c, 0, 79, 110
1, 1921, Note_on_c, 0, 55, 95
1, 1921, Note_on_c, 0, 74, 90
1, 1921, Note_on_c, 0, 62, 94
1, 1921, Note_on_c, 2, 55, 104
1, 1921, Note_on_c, 5, 59, 89
1, 1921, Note_on_c, 7, 59, 99
1, 1922, Note_off_c, 9, 38, 64
1, 1922, Note_off_c, 9, 35, 64
1, 1922, Note_off_c, 9, 42, 64
1, 1923, Note_on_c, 5, 62, 104
1, 1923, Note_on_c, 7, 62, 114
1, 1925, Note_on_c, 5, 67, 100
1, 1925, Note_on_c, 7, 67, 110
1, 1952, Note_off_c, 1, 43, 64
1, 1952, Note_off_c, 2, 55, 64
1, 1955, Note_off_c, 0, 62, 64
1, 1955, Note_off_c, 0, 74, 64
1, 1955, Note_off_c, 5, 62, 64
1, 1955, Note_off_c, 7, 62, 64
1, 1956, Note_off_c, 5, 59, 64
1, 1956, Note_off_c, 7, 59, 64
1, 1957, Note_off_c, 0, 79, 64
1, 1958, Note_off_c, 5, 67, 64
1, 1958, Note_off_c, 7, 67, 64
1, 1963, Note_off_c, 0, 55, 64
1, 1985, Lyric_t, "goin' "
1, 1985, Note_on_c, 3, 67, 120
1, 2016, Note_off_c, 3, 67, 64
1, 2019, Lyric_t, "down "
1, 2019, Note_on_c, 3, 67, 112
1, 2049, Note_off_c, 3, 67, 64
1, 2050, Lyric_t, "to "
1, 2050, Note_on_c, 3, 67, 109
1, 2080, Note_off_c, 3, 67, 64
1, 2082, Lyric_t, "Ro"
1, 2082, Note_on_c, 3, 67, 107
1, 2131, Note_off_c, 3, 67, 64
1, 2134, Lyric_t, "se's, "
1, 2134, Lyric_t, "\015"
1, 2134, Note_on_c, 3, 67, 100
1, 2168, Note_on_c, 9, 38, 36
1, 2169, Note_off_c, 9, 38, 64
1, 2174, Note_on_c, 2, 46, 115
1, 2175, Note_on_c, 0, 70, 111
1, 2178, Note_on_c, 9, 38, 42
1, 2179, Note_off_c, 9, 38, 64
1, 2188, Note_on_c, 9, 38, 56
1, 2189, Note_off_c, 9, 38, 64
1, 2196, Note_on_c, 9, 38, 64
1, 2197, Note_off_c, 9, 38, 64
1, 2205, Note_off_c, 2, 46, 64
1, 2206, Note_on_c, 9, 38, 97
1, 2206, Note_on_c, 1, 38, 91
1, 2206, Note_on_c, 2, 48, 122
1, 2207, Note_off_c, 9, 38, 64
1, 2207, Note_on_c, 9, 35, 104
1, 2207, Note_on_c, 0, 72, 97
1, 2208, Note_off_c, 3, 67, 64
1, 2208, Note_off_c, 9, 35, 64
1, 2208, Note_off_c, 0, 70, 64
1, 2208, Note_on_c, 5, 60, 85
1, 2208, Note_on_c, 7, 60, 95
1, 2209, Note_on_c, 5, 64, 99
1, 2209, Note_on_c, 7, 64, 109
1, 2210, Note_on_c, 5, 69, 100
1, 2210, Note_on_c, 7, 69, 110
1, 2237, Note_off_c, 2, 48, 64
1, 2237, Note_on_c, 2, 49, 111
1, 2239, Note_off_c, 0, 72, 64
1, 2239, Note_on_c, 0, 74, 89
1, 2266, Note_off_c, 0, 74, 64
1, 2267, Note_off_c, 2, 49, 64
1, 2270, Note_on_c, 0, 77, 69
1, 2270, Note_on_c, 2, 50, 107
1, 2277, Note_on_c, 9, 38, 33
1, 2278, Note_off_c, 9, 38, 64
1, 2284, Note_on_c, 9, 38, 42
1, 2285, Note_off_c, 9, 38, 64
1, 2285, Note_off_c, 1, 38, 64
1, 2295, Note_on_c, 9, 38, 56
1, 2295, Note_off_c, 5, 60, 64
1, 2295, Note_off_c, 7, 60, 64
1, 2296, Note_off_c, 9, 38, 64
1, 2300, Note_off_c, 0, 77, 64
1, 2301, Note_off_c, 5, 69, 64
1, 2301, Note_off_c, 5, 64, 64
1, 2301, Note_off_c, 7, 69, 64
1, 2301, Note_off_c, 7, 64, 64
1, 2302, Note_on_c, 1, 43, 85
1, 2303, Note_on_c, 9, 35, 108
1, 2303, Note_on_c, 0, 79, 108
1, 2303, Note_on_c, 0, 62, 98
1, 2303, Note_on_c, 0, 55, 98
1, 2303, Note_on_c, 2, 55, 114
1, 2303, Note_on_c, 5, 59, 51
1, 2303, Note_on_c, 7, 59, 61
1, 2304, Note_off_c, 9, 35, 64
1, 2305, Note_on_c, 9, 38, 109
1, 2305, Note_on_c, 5, 62, 92
1, 2305, Note_on_c, 7, 62, 102
1, 2306, Note_off_c, 9, 38, 64
1, 2306, Note_on_c, 5, 67, 97
1, 2306, Note_on_c, 7, 67, 107
1, 2308, Note_off_c, 2, 50, 64
1, 2332, Note_off_c, 2, 55, 64
1, 2336, Lyric_t, "stop "
1, 2336, Note_on_c, 3, 67, 117
1, 2341, Note_off_c, 5, 59, 64
1, 2341, Note_off_c, 7, 59, 64
1, 2345, Note_off_c, 0, 55, 64
1, 2345, Note_off_c, 0, 62, 64
1, 2345, Note_off_c, 0, 79, 64
1, 2349, Note_off_c, 5, 62, 64
1, 2349, Note_off_c, 7, 62, 64
1, 2350, Note_off_c, 5, 67, 64
1, 2350, Note_off_c, 7, 67, 64
1, 2356, Note_off_c, 1, 43, 64
1, 2358, Note_off_c, 3, 67, 64
1, 2368, Lyric_t, "at "
1, 2368, Note_on_c, 3, 67, 117
1, 2393, Note_off_c, 3, 67, 64
1, 2402, Lyric_t, "Fan"
1, 2402, Note_on_c, 3, 67, 119
1, 2430, Note_off_c, 3, 67, 64
1, 2434, Lyric_t, "ny "
1, 2434, Note_on_c, 3, 67, 122
1, 2465, Lyric_t, "Mae's. "
1, 2465, Lyric_t, "\015"
1, 2465, Note_on_c, 3, 70, 113
1, 2468, Note_off_c, 3, 67, 64
1, 2548, Lyric_t, "\012"
1, 2557, Note_on_c, 9, 38, 16
1, 2558, Note_off_c, 9, 38, 64
1, 2559, Note_on_c, 0, 70, 107
1, 2559, Note_on_c, 2, 46, 107
1, 2561, Note_on_c, 1, 38, 102
1, 2565, Note_on_c, 9, 38, 27
1, 2566, Note_off_c, 9, 38, 64
1, 2569, Note_off_c, 3, 70, 64
1, 2573, Note_on_c, 9, 38, 36
1, 2574, Note_off_c, 9, 38, 64
1, 2583, Note_on_c, 9, 38, 47
1, 2584, Note_off_c, 9, 38, 64
1, 2589, Note_off_c, 2, 46, 64
1, 2590, Note_off_c, 0, 70, 64
1, 2591, Note_on_c, 9, 35, 105
1, 2591, Note_on_c, 1, 41, 88
1, 2591, Note_on_c, 0, 72, 91
1, 2591, Note_on_c, 2, 48, 115
1, 2591, Note_on_c, 5, 60, 87
1, 2591, Note_on_c, 7, 60, 97
1, 2592, Note_off_c, 9, 35, 64
1, 2592, Note_on_c, 5, 64, 94
1, 2592, Note_on_c, 7, 64, 104
1, 2593, Note_on_c, 9, 38, 111
1, 2594, Note_off_c, 9, 38, 64
1, 2594, Note_on_c, 5, 69, 90
1, 2594, Note_on_c, 7, 69, 100
1, 2601, Note_off_c, 1, 38, 64
1, 2620, Note_off_c, 2, 48, 64
1, 2623, Note_on_c, 2, 49, 108
1, 2625, Note_on_c, 0, 74, 70
1, 2630, Note_off_c, 0, 72, 64
1, 2645, Note_off_c, 0, 74, 64
1, 2652, Note_off_c, 2, 49, 64
1, 2654, Note_on_c, 1, 46, 84
1, 2655, Note_on_c, 0, 77, 79
1, 2655, Note_on_c, 2, 50, 108
1, 2657, Note_on_c, 9, 38, 28
1, 2658, Note_off_c, 9, 38, 64
1, 2662, Note_off_c, 1, 41, 64
1, 2667, Note_on_c, 9, 38, 36
1, 2668, Note_off_c, 9, 38, 64
1, 2676, Note_on_c, 9, 38, 46
1, 2677, Note_off_c, 9, 38, 64
1, 2680, Note_off_c, 0, 77, 64
1, 2681, Note_off_c, 5, 64, 64
1, 2681, Note_off_c, 5, 60, 64
1, 2681, Note_off_c, 7, 64, 64
1, 2681, Note_off_c, 7, 60, 64
1, 2683, Note_off_c, 5, 69, 64
1, 2683, Note_off_c, 7, 69, 64
1, 2686, Note_on_c, 9, 38, 111
1, 2687, Note_off_c, 9, 38, 64
1, 2687, Note_on_c, 2, 55, 117
1, 2688, Note_on_c, 9, 35, 106
1, 2689, Note_off_c, 9, 35, 64
1, 2689, Note_on_c, 1, 43, 97
1, 2689, Note_on_c, 0, 62, 95
1, 2689, Note_on_c, 0, 55, 100
1, 2689, Note_on_c, 0, 74, 101
1, 2689, Note_on_c, 0, 79, 107
1, 2690, Note_on_c, 5, 59, 78
1, 2690, Note_on_c, 7, 59, 88
1, 2691, Note_off_c, 2, 50, 64
1, 2691, Note_on_c, 5, 62, 85
1, 2691, Note_on_c, 7, 62, 95
1, 2692, Note_on_c, 5, 67, 97
1, 2692, Note_on_c, 7, 67, 107
1, 2694, Note_off_c, 1, 46, 64
1, 2714, Lyric_t, "Gon"
1, 2714, Note_on_c, 3, 67, 117
1, 2714, Note_off_c, 2, 55, 64
1, 2722, Note_off_c, 5, 59, 64
1, 2722, Note_off_c, 7, 59, 64
1, 2723, Note_off_c, 0, 74, 64
1, 2723, Note_off_c, 0, 55, 64
1, 2724, Note_off_c, 0, 62, 64
1, 2725, Note_off_c, 0, 79, 64
1, 2727, Note_off_c, 5, 62, 64
1, 2727, Note_off_c, 7, 62, 64
1, 2729, Note_off_c, 5, 67, 64
1, 2729, Note_off_c, 7, 67, 64
1, 2735, Note_off_c, 1, 43, 64
1, 2739, Note_off_c, 3, 67, 64
1, 2742, Lyric_t, "na "
1, 2742, Note_on_c, 3, 67, 113
1, 2764, Note_off_c, 3, 67, 64
1, 2766, Lyric_t, "tell "
1, 2766, Note_on_c, 3, 67, 117
1, 2795, Note_off_c, 3, 67, 64
1, 2809, Lyric_t, "Fan"
1, 2809, Note_on_c, 3, 67, 116
1, 2833, Note_off_c, 3, 67, 64
1, 2835, Lyric_t, "ny "
1, 2835, Note_on_c, 3, 67, 113
1, 2862, Note_off_c, 3, 67, 64
1, 2863, Lyric_t, "what "
1, 2863, Note_on_c, 3, 67, 117
1, 2886, Note_off_c, 3, 67, 64
1, 2888, Lyric_t, "I "
1, 2888, Note_on_c, 3, 67, 114
1, 2916, Note_off_c, 3, 67, 64
1, 2918, Lyric_t, "heard "
1, 2918, Lyric_t, "\015"
1, 2918, Note_on_c, 3, 64, 121
1, 2941, Note_on_c, 9, 38, 35
1, 2942, Note_off_c, 9, 38, 64
1, 2943, Note_on_c, 2, 46, 108
1, 2945, Note_on_c, 0, 70, 105
1, 2953, Note_on_c, 9, 38, 42
1, 2954, Note_off_c, 9, 38, 64
1, 2961, Note_off_c, 3, 64, 64
1, 2964, Note_on_c, 9, 38, 50
1, 2965, Note_off_c, 9, 38, 64
1, 2972, Note_off_c, 0, 70, 64
1, 2973, Note_off_c, 2, 46, 64
1, 2975, Note_on_c, 9, 35, 107
1, 2975, Note_on_c, 9, 38, 94
1, 2975, Note_on_c, 1, 38, 102
1, 2976, Note_off_c, 9, 38, 64
1, 2976, Note_off_c, 9, 35, 64
1, 2976, Note_on_c, 2, 48, 120
1, 2977, Note_on_c, 0, 72, 91
1, 2979, Note_on_c, 5, 60, 100
1, 2979, Note_on_c, 7, 60, 110
1, 2980, Note_on_c, 5, 64, 99
1, 2980, Note_on_c, 7, 64, 109
1, 2981, Note_on_c, 5, 69, 94
1, 2981, Note_on_c, 7, 69, 104
1, 3006, Note_off_c, 2, 48, 64
1, 3007, Note_on_c, 2, 49, 109
1, 3009, Note_on_c, 0, 74, 86
1, 3010, Note_off_c, 0, 72, 64
1, 3029, Note_on_c, 9, 38, 22
1, 3030, Note_off_c, 9, 38, 64
1, 3034, Note_off_c, 0, 74, 64
1, 3037, Note_off_c, 2, 49, 64
1, 3039, Note_on_c, 2, 50, 108
1, 3040, Note_on_c, 9, 38, 27
1, 3041, Note_off_c, 9, 38, 64
1, 3041, Note_on_c, 0, 77, 89
1, 3051, Note_on_c, 9, 38, 38
1, 3052, Note_off_c, 9, 38, 64
1, 3060, Note_on_c, 9, 38, 55
1, 3061, Note_off_c, 9, 38, 64
1, 3063, Note_off_c, 0, 77, 64
1, 3063, Note_off_c, 5, 64, 64
1, 3063, Note_off_c, 5, 60, 64
1, 3063, Note_off_c, 7, 64, 64
1, 3063, Note_off_c, 7, 60, 64
1, 3071, Note_on_c, 9, 35, 106
1, 3071, Note_on_c, 2, 55, 121
1, 3072, Note_off_c, 9, 35, 64
1, 3072, Note_on_c, 0, 62, 93
1, 3072, Note_on_c, 0, 55, 100
1, 3072, Note_on_c, 0, 79, 107
1, 3072, Note_on_c, 0, 74, 105
1, 3072, Note_off_c, 2, 50, 64
1, 3072, Note_off_c, 5, 69, 64
1, 3072, Note_off_c, 7, 69, 64
1, 3073, Note_on_c, 9, 38, 111
1, 3073, Note_on_c, 1, 43, 101
1, 3074, Note_off_c, 9, 38, 64
1, 3074, Note_on_c, 5, 59, 60
1, 3074, Note_on_c, 7, 59, 70
1, 3075, Note_on_c, 5, 62, 98
1, 3075, Note_on_c, 7, 62, 108
1, 3076, Note_on_c, 5, 67, 93
1, 3076, Note_on_c, 7, 67, 103
1, 3077, Note_off_c, 1, 38, 64
1, 3098, Note_off_c, 2, 55, 64
1, 3103, Note_off_c, 0, 74, 64
1, 3104, Note_off_c, 0, 55, 64
1, 3106, Lyric_t, "her "
1, 3106, Note_on_c, 3, 67, 117
1, 3106, Note_off_c, 0, 62, 64
1, 3106, Note_off_c, 5, 59, 64
1, 3106, Note_off_c, 7, 59, 64
1, 3108, Note_off_c, 0, 79, 64
1, 3115, Note_off_c, 5, 67, 64
1, 3115, Note_off_c, 5, 62, 64
1, 3115, Note_off_c, 7, 67, 64
1, 3115, Note_off_c, 7, 62, 64
1, 3120, Note_off_c, 1, 43, 64
1, 3144, Lyric_t, "boy"
1, 3144, Note_on_c, 3, 70, 120
1, 3145, Note_off_c, 3, 67, 64
1, 3182, Note_off_c, 3, 70, 64
1, 3183, Lyric_t, "friend "
1, 3183, Note_on_c, 3, 70, 122
1, 3221, Lyric_t, "said. "
1, 3221, Lyric_t, "\015"
1, 3221, Note_on_c, 3, 67, 119
1, 3228, Note_off_c, 3, 70, 64
1, 3245, Lyric_t, "\012"
1, 3285, Note_off_c, 3, 67, 64
1, 3291, Lyric_t, "Don't "
1, 3291, Note_on_c, 3, 69, 115
1, 3317, Note_off_c, 3, 69, 64
1, 3320, Note_on_c, 9, 38, 23
1, 3321, Note_off_c, 9, 38, 64
1, 3329, Note_on_c, 9, 38, 29
1, 3329, Note_on_c, 0, 70, 97
1, 3329, Note_on_c, 2, 46, 107
1, 3330, Note_off_c, 9, 38, 64
1, 3339, Note_on_c, 9, 38, 38
1, 3340, Note_off_c, 9, 38, 64
1, 3349, Note_on_c, 9, 38, 48
1, 3350, Note_off_c, 9, 38, 64
1, 3354, Note_off_c, 2, 46, 64
1, 3357, Note_off_c, 0, 70, 64
1, 3359, Note_on_c, 9, 35, 105
1, 3359, Note_on_c, 1, 38, 101
1, 3360, Note_off_c, 9, 35, 64
1, 3360, Note_on_c, 9, 38, 97
1, 3361, Note_off_c, 9, 38, 64
1, 3361, Note_on_c, 0, 72, 91
1, 3361, Note_on_c, 2, 48, 109
1, 3387, Note_off_c, 2, 48, 64
1, 3391, Note_on_c, 2, 49, 105
1, 3393, Note_on_c, 0, 74, 83
1, 3396, Note_off_c, 0, 72, 64
1, 3412, Note_on_c, 9, 38, 32
1, 3413, Note_off_c, 9, 38, 64
1, 3418, Note_off_c, 0, 74, 64
1, 3418, Note_off_c, 2, 49, 64
1, 3423, Note_on_c, 2, 50, 105
1, 3425, Note_on_c, 0, 77, 77
1, 3427, Note_on_c, 9, 38, 39
1, 3428, Note_off_c, 9, 38, 64
1, 3437, Note_on_c, 9, 38, 46
1, 3438, Note_off_c, 9, 38, 64
1, 3446, Note_on_c, 9, 38, 54
1, 3447, Note_off_c, 9, 38, 64
1, 3449, Note_off_c, 2, 50, 64
1, 3450, Note_off_c, 0, 77, 64
1, 3455, Note_on_c, 9, 35, 109
1, 3455, Note_on_c, 1, 36, 99
1, 3455, Note_on_c, 2, 48, 121
1, 3456, Note_off_c, 9, 35, 64
1, 3456, Note_on_c, 9, 38, 112
1, 3456, Note_off_c, 1, 38, 64
1, 3457, Note_off_c, 9, 38, 64
1, 3457, Note_on_c, 0, 79, 110
1, 3457, Note_on_c, 2, 55, 108
1, 3499, Lyric_t, "start "
1, 3499, Note_on_c, 3, 70, 123
1, 3511, Note_off_c, 1, 36, 64
1, 3515, Note_off_c, 2, 55, 64
1, 3517, Note_off_c, 2, 48, 64
1, 3521, Note_on_c, 2, 48, 58
1, 3521, Note_on_c, 5, 74, 98
1, 3521, Note_on_c, 7, 74, 108
1, 3550, Note_off_c, 2, 48, 64
1, 3550, Note_off_c, 5, 74, 64
1, 3550, Note_off_c, 7, 74, 64
1, 3553, Note_on_c, 2, 48, 123
1, 3554, Note_on_c, 2, 57, 111
1, 3555, Note_on_c, 5, 73, 91
1, 3555, Note_on_c, 7, 73, 101
1, 3567, Note_off_c, 3, 70, 64
1, 3571, Lyric_t, "me "
1, 3571, Note_on_c, 3, 70, 122
1, 3586, Note_on_c, 5, 72, 93
1, 3586, Note_on_c, 7, 72, 103
1, 3588, Note_off_c, 5, 73, 64
1, 3588, Note_off_c, 7, 73, 64
1, 3600, Note_off_c, 3, 70, 64
1, 3602, Lyric_t, "to "
1, 3602, Note_on_c, 3, 70, 105
1, 3615, Note_on_c, 5, 67, 85
1, 3615, Note_on_c, 7, 67, 95
1, 3618, Note_off_c, 2, 57, 64
1, 3620, Note_off_c, 5, 72, 64
1, 3620, Note_off_c, 7, 72, 64
1, 3624, Note_off_c, 2, 48, 64
1, 3631, Note_off_c, 3, 70, 64
1, 3633, Lyric_t, "talk"
1, 3633, Note_on_c, 3, 70, 115
1, 3643, Note_off_c, 5, 67, 64
1, 3643, Note_off_c, 7, 67, 64
1, 3647, Note_on_c, 1, 36, 96
1, 3647, Note_on_c, 2, 48, 76
1, 3649, Note_on_c, 5, 70, 95
1, 3649, Note_on_c, 7, 70, 105
1, 3670, Lyric_t, "in', "
1, 3670, Lyric_t, "\015"
1, 3670, Note_on_c, 3, 67, 117
1, 3671, Note_off_c, 3, 70, 64
1, 3706, Note_off_c, 2, 48, 64
1, 3708, Note_off_c, 5, 70, 64
1, 3708, Note_off_c, 7, 70, 64
1, 3709, Note_on_c, 9, 38, 102
1, 3709, Note_on_c, 2, 48, 78
1, 3710, Note_off_c, 9, 38, 64
1, 3713, Note_on_c, 0, 64, 71
1, 3713, Note_on_c, 0, 55, 71
1, 3713, Note_on_c, 5, 72, 96
1, 3713, Note_on_c, 7, 72, 106
1, 3714, Note_on_c, 0, 60, 75
1, 3714, Note_on_c, 0, 76, 68
1, 3714, Note_on_c, 0, 67, 72
1, 3719, Note_off_c, 3, 67, 64
1, 3719, Note_off_c, 0, 67, 64
1, 3719, Note_off_c, 0, 64, 64
1, 3719, Note_off_c, 0, 55, 64
1, 3720, Note_off_c, 0, 60, 64
1, 3721, Note_off_c, 0, 76, 64
1, 3725, Note_off_c, 0, 79, 64
1, 3741, Note_on_c, 9, 38, 119
1, 3741, Note_off_c, 2, 48, 64
1, 3741, Note_off_c, 5, 72, 64
1, 3741, Note_off_c, 7, 72, 64
1, 3742, Note_off_c, 9, 38, 64
1, 3743, Note_on_c, 2, 48, 85
1, 3745, Note_off_c, 1, 36, 64
1, 3745, Note_on_c, 1, 43, 100
1, 3746, Note_on_c, 5, 70, 90
1, 3746, Note_on_c, 7, 70, 100
1, 3783, Note_off_c, 5, 70, 64
1, 3783, Note_off_c, 7, 70, 64
1, 3802, Note_off_c, 2, 48, 64
1, 3802, Note_on_c, 5, 62, 78
1, 3802, Note_on_c, 7, 62, 88
1, 3806, Note_on_c, 2, 48, 83
1, 3807, Note_on_c, 9, 51, 122
1, 3807, Note_off_c, 5, 62, 64
1, 3807, Note_off_c, 7, 62, 64
1, 3808, Note_off_c, 9, 51, 64
1, 3808, Note_on_c, 5, 63, 67
1, 3808, Note_on_c, 7, 63, 77
1, 3820, Note_off_c, 5, 63, 64
1, 3820, Note_on_c, 5, 64, 70
1, 3820, Note_off_c, 7, 63, 64
1, 3820, Note_on_c, 7, 64, 80
1, 3835, Note_off_c, 1, 43, 64
1, 3838, Note_off_c, 2, 48, 64
1, 3839, Note_on_c, 9, 51, 104
1, 3839, Note_on_c, 9, 35, 106
1, 3839, Note_on_c, 2, 48, 102
1, 3840, Note_off_c, 9, 35, 64
1, 3840, Note_off_c, 9, 51, 64
1, 3840, Note_on_c, 9, 38, 65
1, 3841, Note_off_c, 9, 38, 64
1, 3841, Note_on_c, 1, 43, 90
1, 3841, Note_on_c, 2, 55, 103
1, 3842, Note_on_c, 5, 70, 89
1, 3842, Note_on_c, 7, 70, 99
1, 3850, Note_off_c, 5, 64, 64
1, 3850, Note_off_c, 7, 64, 64
1, 3865, Note_off_c, 5, 70, 64
1, 3865, Note_off_c, 7, 70, 64
1, 3874, Note_on_c, 5, 74, 105
1, 3874, Note_on_c, 7, 74, 115
1, 3892, Lyric_t, "I'll "
1, 3892, Note_on_c, 3, 64, 122
1, 3898, Note_off_c, 2, 48, 64
1, 3901, Note_on_c, 2, 48, 66
1, 3903, Note_on_c, 9, 38, 52
1, 3903, Note_on_c, 5, 73, 81
1, 3903, Note_on_c, 7, 73, 91
1, 3904, Note_off_c, 9, 38, 64
1, 3904, Note_on_c, 9, 51, 88
1, 3905, Note_off_c, 9, 51, 64
1, 3908, Note_off_c, 5, 74, 64
1, 3908, Note_off_c, 7, 74, 64
1, 3918, Note_off_c, 2, 55, 64
1, 3929, Note_off_c, 1, 43, 64
1, 3933, Note_off_c, 2, 48, 64
1, 3933, Note_on_c, 5, 71, 100
1, 3933, Note_on_c, 7, 71, 110
1, 3934, Note_on_c, 2, 48, 112
1, 3934, Note_off_c, 5, 73, 64
1, 3934, Note_off_c, 7, 73, 64
1, 3935, Note_on_c, 9, 51, 99
1, 3935, Note_on_c, 2, 57, 117
1, 3936, Note_off_c, 9, 51, 64
1, 3936, Note_on_c, 9, 38, 75
1, 3937, Note_off_c, 9, 38, 64
1, 3937, Note_on_c, 1, 36, 91
1, 3951, Note_off_c, 5, 71, 64
1, 3951, Note_on_c, 5, 72, 83
1, 3951, Note_off_c, 7, 71, 64
1, 3951, Note_on_c, 7, 72, 93
1, 3958, Lyric_t, "tell "
1, 3958, Note_on_c, 3, 67, 121
1, 3959, Note_off_c, 3, 64, 64
1, 3964, Note_on_c, 5, 70, 61
1, 3964, Note_on_c, 7, 70, 71
1, 3968, Note_off_c, 5, 72, 64
1, 3968, Note_off_c, 7, 72, 64
1, 3992, Note_off_c, 5, 70, 64
1, 3992, Note_off_c, 7, 70, 64
1, 3995, Note_on_c, 5, 67, 70
1, 3995, Note_on_c, 7, 67, 80
1, 3998, Note_off_c, 2, 48, 64
1, 3999, Note_on_c, 9, 51, 92
1, 3999, Note_on_c, 0, 79, 97
1, 3999, Note_on_c, 0, 64, 78
1, 3999, Note_on_c, 0, 72, 94
1, 3999, Note_on_c, 0, 60, 83
1, 3999, Note_on_c, 0, 55, 77
1, 4000, Note_off_c, 9, 51, 64
1, 4001, Note_on_c, 9, 38, 52
1, 4002, Note_off_c, 9, 38, 64
1, 4023, Lyric_t, "ev"
1, 4023, Note_on_c, 3, 70, 116
1, 4023, Note_off_c, 5, 67, 64
1, 4023, Note_off_c, 7, 67, 64
1, 4024, Note_off_c, 3, 67, 64
1, 4024, Note_off_c, 2, 57, 64
1, 4030, Note_on_c, 5, 69, 101
1, 4030, Note_on_c, 7, 69, 111
1, 4031, Note_on_c, 9, 51, 96
1, 4031, Note_on_c, 9, 35, 106
1, 4031, Note_off_c, 1, 36, 64
1, 4032, Note_off_c, 9, 35, 64
1, 4032, Note_off_c, 9, 51, 64
1, 4032, Note_on_c, 1, 40, 95
1, 4033, Note_on_c, 9, 38, 76
1, 4033, Note_on_c, 2, 48, 95
1, 4034, Note_off_c, 9, 38, 64
1, 4041, Note_off_c, 5, 69, 64
1, 4041, Note_on_c, 5, 70, 94
1, 4041, Note_off_c, 7, 69, 64
1, 4041, Note_on_c, 7, 70, 104
1, 4056, Note_off_c, 3, 70, 64
1, 4058, Lyric_t, "ery"
1, 4058, Note_on_c, 3, 69, 115
1, 4093, Note_off_c, 2, 48, 64
1, 4095, Note_on_c, 9, 51, 82
1, 4095, Note_on_c, 2, 48, 85
1, 4096, Lyric_t, "thing "
1, 4096, Note_off_c, 3, 69, 64
1, 4096, Note_on_c, 3, 67, 119
1, 4096, Note_off_c, 9, 51, 64
1, 4097, Note_on_c, 9, 38, 51
1, 4097, Note_off_c, 5, 70, 64
1, 4097, Note_off_c, 7, 70, 64
1, 4098, Note_off_c, 9, 38, 64
1, 4098, Note_on_c, 5, 72, 69
1, 4098, Note_on_c, 7, 72, 79
1, 4126, Note_off_c, 5, 72, 64
1, 4126, Note_off_c, 7, 72, 64
1, 4127, Note_on_c, 9, 51, 102
1, 4127, Note_on_c, 9, 38, 76
1, 4127, Note_off_c, 1, 40, 64
1, 4128, Note_off_c, 9, 38, 64
1, 4128, Note_off_c, 9, 51, 64
1, 4128, Note_on_c, 1, 41, 89
1, 4128, Note_off_c, 2, 48, 64
1, 4129, Note_on_c, 2, 48, 109
1, 4131, Note_on_c, 5, 67, 76
1, 4131, Note_on_c, 7, 67, 86
1, 4156, Lyric_t, "I "
1, 4156, Note_on_c, 3, 64, 118
1, 4159, Note_off_c, 3, 67, 64
1, 4171, Note_off_c, 5, 67, 64
1, 4171, Note_off_c, 7, 67, 64
1, 4172, Note_off_c, 0, 60, 64
1, 4190, Note_off_c, 2, 48, 64
1, 4191, Note_on_c, 9, 51, 90
1, 4191, Note_on_c, 9, 38, 52
1, 4192, Note_off_c, 9, 38, 64
1, 4192, Note_off_c, 9, 51, 64
1, 4192, Note_on_c, 0, 60, 90
1, 4192, Note_on_c, 2, 48, 84
1, 4195, Note_off_c, 0, 64, 64
1, 4196, Note_off_c, 0, 72, 64
1, 4197, Note_off_c, 0, 55, 64
1, 4198, Note_off_c, 1, 41, 64
1, 4203, Note_off_c, 0, 79, 64
1, 4206, Lyric_t, "know. "
1, 4206, Lyric_t, "\015"
1, 4206, Note_on_c, 3, 67, 115
1, 4207, Note_off_c, 3, 64, 64
1, 4208, Note_off_c, 0, 60, 64
1, 4216, Note_off_c, 2, 48, 64
1, 4223, Note_on_c, 9, 51, 102
1, 4223, Note_on_c, 0, 73, 117
1, 4223, Note_on_c, 0, 79, 124
1, 4224, Note_off_c, 9, 51, 64
1, 4224, Note_on_c, 9, 38, 75
1, 4224, Note_on_c, 2, 43, 101
1, 4225, Note_off_c, 9, 38, 64
1, 4225, Note_on_c, 9, 35, 106
1, 4225, Note_on_c, 1, 43, 101
1, 4226, Note_off_c, 9, 35, 64
1, 4228, Note_on_c, 5, 58, 94
1, 4228, Note_on_c, 7, 58, 104
1, 4234, Note_off_c, 5, 58, 64
1, 4234, Note_on_c, 5, 59, 93
1, 4234, Note_off_c, 7, 58, 64
1, 4234, Note_on_c, 7, 59, 103
1, 4246, Note_off_c, 0, 73, 64
1, 4252, Note_off_c, 2, 43, 64
1, 4257, Note_on_c, 0, 74, 88
1, 4268, Note_off_c, 0, 79, 64
1, 4272, Note_off_c, 0, 74, 64
1, 4279, Note_off_c, 3, 67, 64
1, 4282, Note_off_c, 5, 59, 64
1, 4282, Note_off_c, 7, 59, 64
1, 4287, Note_on_c, 9, 51, 76
1, 4287, Note_on_c, 0, 79, 96
1, 4287, Note_on_c, 2, 43, 103
1, 4288, Note_off_c, 9, 51, 64
1, 4288, Note_on_c, 9, 38, 53
1, 4288, Note_on_c, 0, 74, 87
1, 4289, Note_off_c, 9, 38, 64
1, 4317, Note_off_c, 0, 79, 64
1, 4319, Note_on_c, 9, 51, 94
1, 4319, Note_off_c, 1, 43, 64
1, 4320, Note_off_c, 9, 51, 64
1, 4320, Note_on_c, 1, 40, 88
1, 4320, Note_on_c, 0, 67, 93
1, 4320, Note_on_c, 2, 47, 113
1, 4321, Note_on_c, 9, 38, 74
1, 4321, Note_off_c, 2, 43, 64
1, 4322, Note_off_c, 9, 38, 64
1, 4324, Note_off_c, 0, 74, 64
1, 4353, Note_on_c, 0, 74, 100
1, 4363, Note_off_c, 2, 47, 64
1, 4383, Note_on_c, 9, 38, 52
1, 4383, Note_on_c, 2, 47, 104
1, 4384, Note_off_c, 9, 38, 64
1, 4385, Note_on_c, 9, 51, 77
1, 4385, Note_on_c, 0, 73, 103
1, 4386, Note_off_c, 9, 51, 64
1, 4390, Note_off_c, 0, 74, 64
1, 4404, Note_off_c, 0, 73, 64
1, 4408, Note_off_c, 1, 40, 64
1, 4414, Note_on_c, 1, 38, 90
1, 4415, Note_on_c, 9, 51, 94
1, 4415, Note_on_c, 9, 35, 107
1, 4415, Note_on_c, 9, 38, 73
1, 4415, Note_off_c, 2, 47, 64
1, 4416, Note_off_c, 9, 38, 64
1, 4416, Note_off_c, 9, 35, 64
1, 4416, Note_off_c, 9, 51, 64
1, 4416, Note_on_c, 0, 72, 114
1, 4416, Note_on_c, 2, 50, 109
1, 4444, Note_off_c, 0, 67, 64
1, 4447, Note_on_c, 0, 70, 95
1, 4450, Note_on_c, 0, 59, 65
1, 4454, Note_off_c, 0, 72, 64
1, 4456, Note_off_c, 2, 50, 64
1, 4458, Note_off_c, 0, 59, 64
1, 4472, Note_off_c, 0, 70, 64
1, 4479, Note_on_c, 9, 51, 90
1, 4479, Note_on_c, 0, 67, 84
1, 4479, Note_on_c, 2, 50, 107
1, 4480, Note_off_c, 9, 51, 64
1, 4481, Note_on_c, 9, 38, 52
1, 4482, Note_off_c, 9, 38, 64
1, 4488, Lyric_t, "\012"
1, 4504, Note_off_c, 0, 67, 64
1, 4508, Note_off_c, 2, 50, 64
1, 4510, Note_on_c, 1, 40, 99
1, 4511, Note_on_c, 9, 51, 96
1, 4511, Note_on_c, 0, 70, 114
1, 4511, Note_on_c, 2, 52, 113
1, 4512, Note_off_c, 9, 51, 64
1, 4512, Note_on_c, 9, 38, 72
1, 4513, Note_off_c, 9, 38, 64
1, 4513, Note_off_c, 1, 38, 64
1, 4563, Note_off_c, 0, 70, 64
1, 4565, Note_off_c, 2, 52, 64
1, 4573, Note_on_c, 2, 52, 109
1, 4575, Note_on_c, 9, 51, 90
1, 4575, Note_on_c, 0, 67, 90
1, 4575, Note_on_c, 0, 62, 97
1, 4575, Note_on_c, 5, 60, 76
1, 4575, Note_on_c, 7, 60, 86
1, 4576, Note_off_c, 9, 51, 64
1, 4576, Note_on_c, 9, 38, 55
1, 4577, Note_off_c, 9, 38, 64
1, 4579, Note_on_c, 5, 64, 46
1, 4579, Note_on_c, 7, 64, 56
1, 4597, Note_off_c, 5, 64, 64
1, 4597, Note_off_c, 7, 64, 64
1, 4598, Note_off_c, 1, 40, 64
1, 4599, Note_off_c, 5, 60, 64
1, 4599, Note_off_c, 7, 60, 64
1, 4602, Note_off_c, 2, 52, 64
1, 4606, Note_on_c, 1, 31, 91
1, 4606, Note_on_c, 2, 43, 105
1, 4607, Note_on_c, 9, 51, 96
1, 4607, Note_on_c, 9, 35, 107
1, 4607, Note_on_c, 9, 38, 77
1, 4608, Note_off_c, 9, 38, 64
1, 4608, Note_off_c, 9, 35, 64
1, 4608, Note_off_c, 9, 51, 64
1, 4609, Note_on_c, 5, 58, 79
1, 4609, Note_on_c, 7, 58, 89
1, 4627, Note_off_c, 5, 58, 64
1, 4627, Note_on_c, 5, 59, 62
1, 4627, Note_off_c, 7, 58, 64
1, 4627, Note_on_c, 7, 59, 72
1, 4644, Note_off_c, 2, 43, 64
1, 4659, Note_on_c, 5, 55, 43
1, 4659, Note_on_c, 7, 55, 53
1, 4660, Note_off_c, 5, 59, 64
1, 4660, Note_off_c, 7, 59, 64
1, 4669, Note_on_c, 2, 43, 98
1, 4670, Note_on_c, 9, 38, 55
1, 4671, Note_off_c, 9, 38, 64
1, 4671, Note_on_c, 9, 51, 86
1, 4671, Note_on_c, 0, 55, 78
1, 4671, Note_on_c, 0, 65, 90
1, 4672, Note_off_c, 9, 51, 64
1, 4678, Note_off_c, 0, 67, 64
1, 4683, Note_off_c, 5, 55, 64
1, 4683, Note_off_c, 7, 55, 64
1, 4684, Note_off_c, 0, 62, 64
1, 4684, Note_off_c, 0, 55, 64
1, 4692, Note_off_c, 0, 65, 64
1, 4702, Note_on_c, 1, 35, 91
1, 4703, Note_on_c, 9, 51, 92
1, 4703, Note_on_c, 9, 38, 72
1, 4703, Note_on_c, 0, 62, 90
1, 4703, Note_on_c, 0, 67, 100
1, 4703, Note_on_c, 2, 47, 108
1, 4704, Note_off_c, 9, 38, 64
1, 4704, Note_off_c, 9, 51, 64
1, 4704, Note_off_c, 2, 43, 64
1, 4709, Note_off_c, 1, 31, 64
1, 4739, Note_off_c, 2, 47, 64
1, 4754, Note_off_c, 0, 62, 64
1, 4760, Note_off_c, 0, 67, 64
1, 4765, Note_on_c, 2, 47, 109
1, 4766, Note_on_c, 9, 38, 53
1, 4767, Note_off_c, 9, 38, 64
1, 4767, Note_on_c, 9, 51, 88
1, 4767, Note_on_c, 0, 67, 76
1, 4767, Note_on_c, 0, 62, 105
1, 4768, Note_off_c, 9, 51, 64
1, 4768, Note_on_c, 5, 55, 46
1, 4768, Note_on_c, 7, 55, 56
1, 4795, Note_off_c, 1, 35, 64
1, 4797, Note_on_c, 1, 38, 97
1, 4799, Note_on_c, 9, 51, 93
1, 4799, Note_on_c, 9, 35, 107
1, 4799, Note_on_c, 9, 38, 70
1, 4799, Note_off_c, 2, 47, 64
1, 4800, Note_off_c, 9, 38, 64
1, 4800, Note_off_c, 9, 35, 64
1, 4800, Note_off_c, 9, 51, 64
1, 4801, Note_on_c, 2, 50, 117
1, 4835, Note_off_c, 2, 50, 64
1, 4856, Lyric_t, "I'm "
1, 4856, Note_on_c, 3, 71, 122
1, 4861, Note_on_c, 2, 50, 113
1, 4862, Note_on_c, 9, 38, 51
1, 4863, Note_off_c, 9, 38, 64
1, 4863, Note_on_c, 9, 51, 89
1, 4863, Note_on_c, 0, 55, 75
1, 4864, Note_off_c, 9, 51, 64
1, 4866, Note_off_c, 0, 62, 64
1, 4872, Note_off_c, 0, 67, 64
1, 4873, Note_off_c, 0, 55, 64
1, 4887, Note_off_c, 1, 38, 64
1, 4888, Note_off_c, 2, 50, 64
1, 4893, Note_on_c, 1, 40, 87
1, 4894, Note_on_c, 9, 38, 74
1, 4894, Note_on_c, 2, 52, 122
1, 4895, Note_off_c, 3, 71, 64
1, 4895, Note_off_c, 9, 38, 64
1, 4895, Note_on_c, 9, 51, 97
1, 4895, Note_on_c, 0, 67, 76
1, 4895, Note_on_c, 0, 62, 78
1, 4896, Note_off_c, 9, 51, 64
1, 4899, Lyric_t, "gon"
1, 4899, Note_on_c, 3, 71, 123
1, 4911, Note_off_c, 0, 67, 64
1, 4913, Note_off_c, 0, 62, 64
1, 4916, Note_off_c, 5, 55, 64
1, 4916, Note_off_c, 7, 55, 64
1, 4949, Note_off_c, 2, 52, 64
1, 4956, Note_on_c, 2, 50, 109
1, 4958, Note_off_c, 3, 71, 64
1, 4958, Note_on_c, 9, 38, 52
1, 4959, Note_off_c, 9, 38, 64
1, 4959, Note_on_c, 9, 51, 90
1, 4960, Note_off_c, 9, 51, 64
1, 4960, Note_off_c, 1, 40, 64
1, 4962, Lyric_t, "na "
1, 4962, Note_on_c, 3, 71, 123
1, 4983, Note_off_c, 2, 50, 64
1, 4986, Lyric_t, "break "
1, 4986, Note_on_c, 3, 69, 121
1, 4987, Note_off_c, 3, 71, 64
1, 4987, Note_on_c, 5, 60, 68
1, 4987, Note_on_c, 7, 60, 78
1, 4991, Note_on_c, 9, 51, 100
1, 4991, Note_on_c, 9, 35, 107
1, 4991, Note_on_c, 9, 38, 74
1, 4991, Note_on_c, 0, 50, 56
1, 4992, Note_off_c, 9, 38, 64
1, 4992, Note_off_c, 9, 35, 64
1, 4992, Note_off_c, 9, 51, 64
1, 4992, Note_on_c, 1, 38, 97
1, 4992, Note_on_c, 5, 64, 81
1, 4992, Note_on_c, 7, 64, 91
1, 4996, Note_on_c, 5, 69, 73
1, 4996, Note_on_c, 7, 69, 83
1, 4998, Note_off_c, 0, 50, 64
1, 5021, Note_on_c, 2, 53, 98
1, 5024, Note_on_c, 2, 56, 74
1, 5029, Note_off_c, 2, 56, 64
1, 5029, Note_on_c, 2, 57, 54
1, 5030, Note_off_c, 2, 53, 64
1, 5030, Note_on_c, 2, 54, 74
1, 5040, Note_off_c, 3, 69, 64
1, 5042, Note_off_c, 2, 57, 64
1, 5043, Lyric_t, "up "
1, 5043, Note_on_c, 3, 69, 118
1, 5051, Note_off_c, 2, 54, 64
1, 5054, Note_on_c, 9, 38, 52
1, 5054, Note_on_c, 2, 54, 85
1, 5055, Note_off_c, 9, 38, 64
1, 5055, Note_on_c, 9, 51, 90
1, 5055, Note_on_c, 0, 69, 94
1, 5055, Note_on_c, 0, 66, 91
1, 5055, Note_on_c, 0, 62, 100
1, 5055, Note_on_c, 2, 57, 93
1, 5056, Note_off_c, 9, 51, 64
1, 5065, Note_off_c, 0, 66, 64
1, 5068, Note_off_c, 0, 69, 64
1, 5070, Note_off_c, 0, 62, 64
1, 5079, Note_off_c, 1, 38, 64
1, 5084, Note_off_c, 2, 57, 64
1, 5084, Note_off_c, 2, 54, 64
1, 5086, Note_on_c, 9, 38, 75
1, 5086, Note_on_c, 2, 54, 97
1, 5087, Note_off_c, 9, 38, 64
1, 5087, Note_on_c, 9, 51, 96
1, 5087, Note_on_c, 2, 57, 102
1, 5088, Note_off_c, 9, 51, 64
1, 5089, Note_on_c, 1, 38, 98
1, 5096, Note_off_c, 3, 69, 64
1, 5098, Lyric_t, "this "
1, 5098, Note_on_c, 3, 69, 115
1, 5117, Note_off_c, 2, 54, 64
1, 5118, Note_on_c, 2, 54, 110
1, 5119, Note_off_c, 2, 57, 64
1, 5120, Note_on_c, 2, 57, 109
1, 5142, Note_off_c, 3, 69, 64
1, 5143, Lyric_t, "sig"
1, 5143, Note_on_c, 3, 71, 117
1, 5150, Note_on_c, 9, 38, 56
1, 5150, Note_off_c, 2, 54, 64
1, 5151, Note_off_c, 9, 38, 64
1, 5151, Note_on_c, 9, 51, 89
1, 5151, Note_on_c, 0, 50, 80
1, 5152, Note_off_c, 9, 51, 64
1, 5152, Note_off_c, 2, 57, 64
1, 5152, Note_on_c, 2, 54, 109
1, 5153, Note_on_c, 2, 57, 109
1, 5166, Note_off_c, 0, 50, 64
1, 5167, Note_off_c, 1, 38, 64
1, 5177, Note_off_c, 3, 71, 64
1, 5180, Lyric_t, "ni"
1, 5180, Note_on_c, 3, 71, 115
1, 5182, Note_on_c, 1, 38, 91
1, 5183, Note_on_c, 9, 51, 100
1, 5183, Note_on_c, 9, 35, 108
1, 5183, Note_on_c, 9, 38, 76
1, 5183, Note_on_c, 0, 62, 91
1, 5183, Note_on_c, 0, 69, 95
1, 5184, Note_off_c, 9, 38, 64
1, 5184, Note_off_c, 9, 35, 64
1, 5184, Note_off_c, 9, 51, 64
1, 5184, Note_off_c, 2, 57, 64
1, 5184, Note_off_c, 2, 54, 64
1, 5185, Note_on_c, 2, 54, 116
1, 5186, Note_on_c, 2, 57, 112
1, 5206, Note_off_c, 3, 71, 64
1, 5209, Lyric_t, "fy"
1, 5209, Note_on_c, 3, 71, 114
1, 5216, Note_off_c, 0, 69, 64
1, 5217, Note_off_c, 0, 62, 64
1, 5238, Note_off_c, 3, 71, 64
1, 5239, Lyric_t, "ing, "
1, 5239, Lyric_t, "\015"
1, 5239, Note_on_c, 3, 71, 116
1, 5243, Note_off_c, 2, 54, 64
1, 5244, Note_off_c, 2, 57, 64
1, 5247, Note_on_c, 9, 51, 88
1, 5247, Note_on_c, 9, 38, 52
1, 5247, Note_on_c, 0, 50, 69
1, 5247, Note_on_c, 2, 54, 103
1, 5248, Note_off_c, 9, 38, 64
1, 5248, Note_off_c, 9, 51, 64
1, 5248, Note_on_c, 0, 57, 60
1, 5248, Note_on_c, 2, 57, 109
1, 5257, Note_off_c, 0, 50, 64
1, 5259, Note_off_c, 0, 57, 64
1, 5268, Note_off_c, 1, 38, 64
1, 5278, Note_on_c, 1, 38, 96
1, 5279, Note_on_c, 9, 51, 100
1, 5279, Note_on_c, 0, 69, 101
1, 5279, Note_on_c, 0, 62, 104
1, 5279, Note_off_c, 5, 60, 64
1, 5279, Note_off_c, 7, 60, 64
1, 5280, Note_off_c, 9, 51, 64
1, 5280, Note_on_c, 9, 38, 78
1, 5280, Note_off_c, 2, 54, 64
1, 5280, Note_off_c, 5, 69, 64
1, 5280, Note_off_c, 5, 64, 64
1, 5280, Note_off_c, 7, 69, 64
1, 5280, Note_off_c, 7, 64, 64
1, 5281, Note_off_c, 9, 38, 64
1, 5281, Note_on_c, 2, 54, 113
1, 5282, Note_off_c, 3, 71, 64
1, 5282, Note_off_c, 2, 57, 64
1, 5283, Note_on_c, 2, 57, 119
1, 5309, Note_off_c, 0, 62, 64
1, 5311, Note_off_c, 0, 69, 64
1, 5342, Note_off_c, 2, 54, 64
1, 5342, Note_on_c, 2, 53, 70
1, 5343, Note_on_c, 0, 57, 78
1, 5344, Note_off_c, 2, 57, 64
1, 5345, Note_on_c, 9, 51, 90
1, 5345, Note_on_c, 9, 38, 50
1, 5345, Note_on_c, 0, 69, 78
1, 5345, Note_on_c, 0, 62, 74
1, 5346, Note_off_c, 9, 38, 64
1, 5346, Note_off_c, 9, 51, 64
1, 5346, Note_on_c, 2, 56, 85
1, 5353, Note_off_c, 2, 53, 64
1, 5353, Note_on_c, 2, 52, 27
1, 5354, Note_off_c, 0, 57, 64
1, 5354, Note_off_c, 2, 56, 64
1, 5354, Note_on_c, 2, 55, 58
1, 5357, Note_off_c, 0, 69, 64
1, 5357, Note_off_c, 2, 52, 64
1, 5359, Note_off_c, 0, 62, 64
1, 5364, Note_on_c, 5, 58, 60
1, 5364, Note_on_c, 7, 58, 70
1, 5365, Note_off_c, 1, 38, 64
1, 5369, Note_off_c, 2, 55, 64
1, 5370, Note_on_c, 5, 62, 74
1, 5370, Note_on_c, 7, 62, 84
1, 5374, Note_on_c, 1, 36, 88
1, 5374, Note_on_c, 5, 67, 68
1, 5374, Note_on_c, 7, 67, 78
1, 5376, Note_on_c, 9, 35, 106
1, 5377, Note_off_c, 9, 35, 64
1, 5377, Note_on_c, 9, 51, 100
1, 5377, Note_on_c, 9, 38, 76
1, 5378, Note_off_c, 9, 38, 64
1, 5378, Note_off_c, 9, 51, 64
1, 5379, Note_on_c, 2, 48, 107
1, 5417, Lyric_t, "'cause "
1, 5417, Note_on_c, 3, 67, 122
1, 5439, Note_on_c, 0, 67, 90
1, 5439, Note_on_c, 0, 60, 86
1, 5441, Note_on_c, 9, 51, 89
1, 5441, Note_on_c, 9, 38, 55
1, 5442, Note_off_c, 9, 38, 64
1, 5442, Note_off_c, 9, 51, 64
1, 5457, Note_off_c, 0, 60, 64
1, 5457, Note_off_c, 0, 67, 64
1, 5459, Lyric_t, "some"
1, 5459, Note_on_c, 3, 71, 121
1, 5460, Note_off_c, 1, 36, 64
1, 5460, Note_off_c, 2, 48, 64
1, 5465, Note_off_c, 3, 67, 64
1, 5469, Note_on_c, 2, 52, 113
1, 5471, Note_on_c, 1, 36, 98
1, 5472, Note_on_c, 9, 51, 94
1, 5473, Note_off_c, 9, 51, 64
1, 5474, Note_on_c, 9, 38, 78
1, 5475, Note_off_c, 9, 38, 64
1, 5498, Lyric_t, "bod"
1, 5498, Note_on_c, 3, 69, 121
1, 5502, Note_off_c, 3, 71, 64
1, 5528, Note_off_c, 3, 69, 64
1, 5529, Lyric_t, "y's "
1, 5529, Note_on_c, 3, 69, 117
1, 5535, Note_on_c, 9, 51, 93
1, 5535, Note_on_c, 9, 38, 53
1, 5536, Note_off_c, 9, 38, 64
1, 5536, Note_off_c, 9, 51, 64
1, 5536, Note_on_c, 0, 58, 66
1, 5548, Note_off_c, 0, 58, 64
1, 5561, Note_off_c, 1, 36, 64
1, 5562, Lyric_t, "got "
1, 5562, Note_on_c, 3, 67, 118
1, 5563, Note_off_c, 3, 69, 64
1, 5567, Note_on_c, 9, 51, 94
1, 5567, Note_on_c, 9, 35, 107
1, 5567, Note_on_c, 9, 38, 76
1, 5567, Note_on_c, 1, 36, 91
1, 5567, Note_on_c, 2, 53, 120
1, 5568, Note_off_c, 9, 38, 64
1, 5568, Note_off_c, 9, 35, 64
1, 5568, Note_off_c, 9, 51, 64
1, 5569, Note_on_c, 0, 67, 82
1, 5569, Note_on_c, 0, 60, 82
1, 5569, Note_off_c, 2, 52, 64
1, 5590, Note_off_c, 0, 60, 64
1, 5593, Lyric_t, "to "
1, 5593, Note_off_c, 3, 67, 64
1, 5593, Note_on_c, 3, 64, 119
1, 5594, Note_off_c, 0, 67, 64
1, 5622, Lyric_t, "go. "
1, 5622, Lyric_t, "\015"
1, 5622, Note_on_c, 3, 67, 120
1, 5628, Note_off_c, 3, 64, 64
1, 5630, Note_on_c, 9, 38, 49
1, 5631, Note_off_c, 9, 38, 64
1, 5631, Note_on_c, 9, 51, 93
1, 5631, Note_on_c, 0, 58, 77
1, 5632, Note_off_c, 9, 51, 64
1, 5642, Note_off_c, 0, 58, 64
1, 5653, Note_off_c, 1, 36, 64
1, 5657, Note_off_c, 2, 53, 64
1, 5661, Note_on_c, 2, 54, 115
1, 5663, Note_on_c, 9, 51, 96
1, 5663, Note_on_c, 9, 38, 75
1, 5663, Note_on_c, 0, 67, 81
1, 5663, Note_on_c, 0, 60, 83
1, 5664, Note_off_c, 9, 38, 64
1, 5664, Note_off_c, 9, 51, 64
1, 5664, Note_on_c, 1, 36, 90
1, 5687, Note_off_c, 0, 60, 64
1, 5700, Note_off_c, 3, 67, 64
1, 5703, Note_off_c, 0, 67, 64
1, 5720, Note_off_c, 2, 54, 64
1, 5724, Note_on_c, 2, 55, 107
1, 5725, Note_off_c, 5, 67, 64
1, 5725, Note_off_c, 5, 62, 64
1, 5725, Note_off_c, 7, 67, 64
1, 5725, Note_off_c, 7, 62, 64
1, 5727, Note_on_c, 9, 51, 90
1, 5727, Note_on_c, 9, 38, 55
1, 5727, Note_on_c, 0, 67, 75
1, 5728, Note_off_c, 9, 38, 64
1, 5728, Note_off_c, 9, 51, 64
1, 5729, Note_off_c, 5, 58, 64
1, 5729, Note_off_c, 7, 58, 64
1, 5738, Note_off_c, 1, 36, 64
1, 5740, Note_off_c, 0, 67, 64
1, 5755, Note_off_c, 2, 55, 64
1, 5758, Note_on_c, 2, 43, 108
1, 5759, Note_on_c, 9, 51, 99
1, 5759, Note_on_c, 9, 35, 106
1, 5759, Note_on_c, 9, 38, 75
1, 5759, Note_on_c, 5, 59, 54
1, 5759, Note_on_c, 7, 59, 64
1, 5760, Note_off_c, 9, 38, 64
1, 5760, Note_off_c, 9, 35, 64
1, 5760, Note_off_c, 9, 51, 64
1, 5760, Note_on_c, 1, 43, 98
1, 5761, Note_on_c, 0, 43, 112
1, 5762, Note_on_c, 5, 62, 77
1, 5762, Note_on_c, 7, 62, 87
1, 5763, Note_on_c, 5, 67, 74
1, 5763, Note_on_c, 7, 67, 84
1, 5793, Note_off_c, 0, 43, 64
1, 5822, Note_on_c, 9, 38, 51
1, 5823, Note_off_c, 9, 38, 64
1, 5823, Note_on_c, 9, 51, 100
1, 5823, Note_on_c, 0, 43, 100
1, 5823, Note_on_c, 0, 74, 91
1, 5823, Note_on_c, 0, 67, 85
1, 5824, Note_off_c, 9, 51, 64
1, 5826, Note_off_c, 2, 43, 64
1, 5842, Note_off_c, 0, 43, 64
1, 5845, Note_off_c, 0, 67, 64
1, 5845, Note_off_c, 0, 74, 64
1, 5852, Note_off_c, 5, 59, 64
1, 5852, Note_off_c, 7, 59, 64
1, 5854, Note_on_c, 9, 38, 76
1, 5854, Note_off_c, 1, 43, 64
1, 5854, Note_on_c, 2, 47, 87
1, 5855, Note_off_c, 9, 38, 64
1, 5855, Note_on_c, 9, 51, 99
1, 5855, Note_on_c, 0, 67, 83
1, 5855, Note_on_c, 0, 47, 107
1, 5855, Note_on_c, 0, 71, 101
1, 5855, Note_on_c, 2, 55, 77
1, 5856, Note_off_c, 9, 51, 64
1, 5856, Note_on_c, 1, 35, 92
1, 5857, Note_on_c, 5, 59, 54
1, 5857, Note_on_c, 7, 59, 64
1, 5859, Note_off_c, 5, 62, 64
1, 5859, Note_off_c, 7, 62, 64
1, 5860, Note_on_c, 5, 62, 53
1, 5860, Note_on_c, 7, 62, 63
1, 5885, Note_off_c, 2, 47, 64
1, 5886, Note_off_c, 2, 55, 64
1, 5887, Note_on_c, 2, 47, 85
1, 5887, Note_on_c, 2, 55, 80
1, 5900, Note_off_c, 0, 47, 64
1, 5902, Note_off_c, 0, 71, 64
1, 5905, Note_off_c, 0, 67, 64
1, 5912, Note_off_c, 5, 59, 64
1, 5912, Note_off_c, 7, 59, 64
1, 5914, Note_off_c, 2, 47, 64
1, 5916, Note_on_c, 5, 59, 43
1, 5916, Note_on_c, 7, 59, 53
1, 5917, Note_on_c, 9, 38, 56
1, 5917, Note_off_c, 2, 55, 64
1, 5918, Note_off_c, 9, 38, 64
1, 5918, Note_on_c, 2, 47, 99
1, 5919, Note_on_c, 9, 51, 90
1, 5919, Note_on_c, 0, 47, 88
1, 5919, Note_on_c, 0, 71, 93
1, 5919, Note_on_c, 0, 67, 80
1, 5919, Note_on_c, 2, 55, 91
1, 5920, Note_off_c, 9, 51, 64
1, 5920, Pitch_bend_c, 6, 8192
1, 5921, Note_on_c, 6, 66, 84
1, 5922, Pitch_bend_c, 6, 8160
1, 5923, Pitch_bend_c, 6, 8192
1, 5924, Pitch_bend_c, 6, 8160
1, 5930, Pitch_bend_c, 6, 8256
1, 5933, Note_off_c, 0, 67, 64
1, 5933, Pitch_bend_c, 6, 12352
1, 5936, Pitch_bend_c, 6, 12416
1, 5939, Note_off_c, 0, 71, 64
1, 5939, Pitch_bend_c, 6, 12448
1, 5940, Note_off_c, 0, 47, 64
1, 5942, Pitch_bend_c, 6, 12480
1, 5943, Note_off_c, 5, 59, 64
1, 5943, Note_off_c, 7, 59, 64
1, 5944, Pitch_bend_c, 6, 12512
1, 5947, Note_off_c, 2, 55, 64
1, 5947, Note_off_c, 2, 47, 64
1, 5947, Note_off_c, 5, 62, 64
1, 5947, Note_off_c, 7, 62, 64
1, 5948, Note_on_c, 5, 62, 53
1, 5948, Note_on_c, 7, 62, 63
1, 5950, Note_on_c, 9, 38, 79
1, 5950, Note_on_c, 2, 48, 113
1, 5950, Note_off_c, 6, 66, 64
1, 5951, Note_off_c, 9, 38, 64
1, 5951, Note_on_c, 9, 51, 97
1, 5951, Note_on_c, 9, 35, 107
1, 5951, Note_on_c, 1, 36, 97
1, 5951, Note_on_c, 0, 48, 105
1, 5951, Note_on_c, 0, 67, 96
1, 5951, Note_on_c, 0, 72, 110
1, 5951, Note_on_c, 2, 55, 103
1, 5952, Note_off_c, 9, 35, 64
1, 5952, Note_off_c, 9, 51, 64
1, 5955, Note_off_c, 1, 35, 64
1, 5955, Pitch_bend_c, 6, 8192
1, 5956, Note_on_c, 6, 67, 102
1, 5956, Pitch_bend_c, 6, 8256
1, 5958, Pitch_bend_c, 6, 8224
1, 5959, Pitch_bend_c, 6, 8288
1, 5960, Pitch_bend_c, 6, 8320
1, 5967, Pitch_bend_c, 6, 8352
1, 5975, Pitch_bend_c, 6, 8384
1, 5981, Note_off_c, 2, 55, 64
1, 5981, Note_off_c, 2, 48, 64
1, 5982, Note_on_c, 2, 48, 95
1, 5984, Note_on_c, 2, 55, 89
1, 5984, Note_off_c, 6, 67, 64
1, 5984, Pitch_bend_c, 6, 8448
1, 5985, Pitch_bend_c, 6, 8192
1, 5985, Note_on_c, 6, 67, 68
1, 5986, Pitch_bend_c, 6, 8256
1, 5993, Pitch_bend_c, 6, 8288
1, 5995, Note_off_c, 0, 67, 64
1, 5995, Note_off_c, 0, 48, 64
1, 5998, Note_off_c, 0, 72, 64
1, 6003, Pitch_bend_c, 6, 8320
1, 6006, Note_off_c, 6, 67, 64
1, 6006, Pitch_bend_c, 6, 8448
1, 6012, Pitch_bend_c, 6, 8192
1, 6013, Note_off_c, 2, 55, 64
1, 6013, Note_off_c, 2, 48, 64
1, 6013, Note_off_c, 5, 67, 64
1, 6013, Note_off_c, 7, 67, 64
1, 6013, Note_on_c, 6, 67, 91
1, 6013, Pitch_bend_c, 6, 8256
1, 6014, Note_on_c, 9, 38, 56
1, 6014, Note_on_c, 2, 48, 108
1, 6014, Pitch_bend_c, 6, 8224
1, 6015, Note_off_c, 9, 38, 64
1, 6015, Note_on_c, 0, 48, 83
1, 6015, Note_on_c, 0, 72, 68
1, 6015, Note_on_c, 0, 67, 72
1, 6015, Note_on_c, 2, 55, 98
1, 6016, Note_on_c, 5, 67, 71
1, 6016, Note_on_c, 7, 67, 81
1, 6016, Pitch_bend_c, 6, 8256
1, 6017, Note_on_c, 9, 51, 93
1, 6018, Note_off_c, 9, 51, 64
1, 6018, Note_off_c, 5, 62, 64
1, 6018, Note_off_c, 7, 62, 64
1, 6019, Note_on_c, 5, 62, 70
1, 6019, Note_on_c, 7, 62, 80
1, 6025, Pitch_bend_c, 6, 8288
1, 6028, Pitch_bend_c, 6, 8320
1, 6031, Note_off_c, 0, 67, 64
1, 6031, Pitch_bend_c, 6, 8352
1, 6032, Note_off_c, 0, 72, 64
1, 6034, Pitch_bend_c, 6, 8384
1, 6038, Note_off_c, 0, 48, 64
1, 6039, Note_off_c, 6, 67, 64
1, 6039, Pitch_bend_c, 6, 8416
1, 6043, Pitch_bend_c, 6, 8192
1, 6044, Note_off_c, 2, 55, 64
1, 6044, Note_off_c, 2, 48, 64
1, 6044, Note_off_c, 5, 62, 64
1, 6044, Note_off_c, 7, 62, 64
1, 6044, Note_on_c, 6, 67, 97
1, 6044, Pitch_bend_c, 6, 8480
1, 6046, Note_on_c, 1, 37, 82
1, 6046, Note_on_c, 2, 49, 119
1, 6046, Pitch_bend_c, 6, 8448
1, 6047, Note_on_c, 9, 38, 75
1, 6047, Note_on_c, 0, 67, 86
1, 6047, Note_on_c, 0, 49, 107
1, 6047, Note_on_c, 0, 73, 111
1, 6047, Note_on_c, 2, 55, 111
1, 6048, Note_off_c, 9, 38, 64
1, 6048, Note_on_c, 5, 62, 71
1, 6048, Note_on_c, 7, 62, 81
1, 6049, Note_on_c, 9, 51, 100
1, 6049, Note_off_c, 5, 67, 64
1, 6049, Note_off_c, 7, 67, 64
1, 6050, Note_off_c, 9, 51, 64
1, 6050, Note_off_c, 1, 36, 64
1, 6065, Pitch_bend_c, 6, 8480
1, 6068, Note_off_c, 0, 49, 64
1, 6068, Pitch_bend_c, 6, 8512
1, 6070, Pitch_bend_c, 6, 8544
1, 6073, Note_off_c, 6, 67, 64
1, 6076, Note_off_c, 2, 49, 64
1, 6076, Pitch_bend_c, 6, 8192
1, 6077, Note_off_c, 2, 55, 64
1, 6077, Note_on_c, 6, 67, 108
1, 6077, Pitch_bend_c, 6, 8704
1, 6078, Note_on_c, 2, 49, 113
1, 6078, Pitch_bend_c, 6, 8608
1, 6079, Note_on_c, 2, 55, 109
1, 6083, Pitch_bend_c, 6, 8640
1, 6086, Lyric_t, "\012"
1, 6086, Pitch_bend_c, 6, 8672
1, 6088, Note_off_c, 0, 73, 64
1, 6088, Pitch_bend_c, 6, 8608
1, 6091, Pitch_bend_c, 6, 8640
1, 6093, Note_off_c, 0, 67, 64
1, 6100, Pitch_bend_c, 6, 8512
1, 6102, Pitch_bend_c, 6, 8256
1, 6103, Pitch_bend_c, 6, 8672
1, 6104, Note_off_c, 6, 67, 64
1, 6104, Pitch_bend_c, 6, 8192
1, 6105, Note_on_c, 6, 67, 96
1, 6105, Pitch_bend_c, 6, 8576
1, 6107, Note_off_c, 2, 49, 64
1, 6108, Note_on_c, 5, 67, 49
1, 6108, Note_on_c, 7, 67, 59
1, 6109, Note_off_c, 2, 55, 64
1, 6110, Note_on_c, 9, 38, 53
1, 6110, Pitch_bend_c, 6, 8544
1, 6111, Note_off_c, 9, 38, 64
1, 6111, Note_on_c, 9, 51, 92
1, 6111, Note_on_c, 0, 49, 77
1, 6111, Note_on_c, 0, 73, 68
1, 6111, Note_on_c, 0, 67, 62
1, 6111, Note_on_c, 2, 49, 112
1, 6111, Note_on_c, 2, 55, 104
1, 6112, Note_off_c, 9, 51, 64
1, 6116, Pitch_bend_c, 6, 8512
1, 6124, Pitch_bend_c, 6, 8544
1, 6125, Note_off_c, 0, 67, 64
1, 6130, Note_off_c, 0, 73, 64
1, 6133, Note_off_c, 0, 49, 64
1, 6133, Pitch_bend_c, 6, 8576
1, 6135, Pitch_bend_c, 6, 8608
1, 6136, Note_off_c, 6, 67, 64
1, 6138, Note_off_c, 1, 37, 64
1, 6139, Note_off_c, 2, 49, 64
1, 6140, Note_off_c, 5, 62, 64
1, 6140, Note_off_c, 7, 62, 64
1, 6141, Note_on_c, 5, 62, 73
1, 6141, Note_on_c, 7, 62, 83
1, 6142, Note_on_c, 1, 38, 94
1, 6142, Pitch_bend_c, 6, 8192
1, 6143, Note_on_c, 9, 51, 106
1, 6143, Note_on_c, 9, 35, 107
1, 6143, Note_on_c, 9, 38, 74
1, 6143, Note_on_c, 0, 69, 90
1, 6143, Note_on_c, 0, 74, 107
1, 6143, Note_on_c, 2, 50, 123
1, 6143, Note_off_c, 5, 67, 64
1, 6143, Note_off_c, 7, 67, 64
1, 6144, Note_off_c, 9, 38, 64
1, 6144, Note_off_c, 9, 35, 64
1, 6144, Note_off_c, 9, 51, 64
1, 6144, Note_off_c, 2, 55, 64
1, 6144, Note_on_c, 5, 67, 44
1, 6144, Note_on_c, 7, 67, 54
1, 6145, Note_on_c, 0, 50, 101
1, 6145, Note_on_c, 2, 55, 119
1, 6145, Note_on_c, 6, 67, 106
1, 6155, Pitch_bend_c, 6, 8896
1, 6158, Pitch_bend_c, 6, 8864
1, 6161, Pitch_bend_c, 6, 8928
1, 6164, Note_off_c, 5, 67, 64
1, 6164, Note_off_c, 5, 62, 64
1, 6164, Note_off_c, 7, 67, 64
1, 6164, Note_off_c, 7, 62, 64
1, 6164, Pitch_bend_c, 6, 8896
1, 6167, Pitch_bend_c, 6, 8768
1, 6170, Note_off_c, 6, 67, 64
1, 6170, Note_on_c, 6, 64, 92
1, 6170, Pitch_bend_c, 6, 8256
1, 6171, Note_off_c, 2, 50, 64
1, 6171, Pitch_bend_c, 6, 8192
1, 6176, Note_off_c, 2, 55, 64
1, 6183, Note_off_c, 0, 50, 64
1, 6184, Note_off_c, 0, 69, 64
1, 6187, Note_off_c, 0, 74, 64
1, 6194, Note_off_c, 6, 64, 64
1, 6204, Note_on_c, 6, 62, 73
1, 6207, Note_on_c, 9, 38, 55
1, 6207, Note_on_c, 0, 48, 98
1, 6207, Note_on_c, 0, 72, 114
1, 6207, Note_on_c, 2, 45, 101
1, 6207, Note_on_c, 5, 54, 51
1, 6207, Note_on_c, 7, 54, 61
1, 6208, Note_off_c, 9, 38, 64
1, 6208, Note_on_c, 9, 51, 85
1, 6209, Note_off_c, 9, 51, 64
1, 6230, Note_off_c, 0, 48, 64
1, 6231, Note_off_c, 0, 72, 64
1, 6236, Note_off_c, 1, 38, 64
1, 6236, Note_on_c, 5, 60, 38
1, 6236, Note_on_c, 7, 60, 48
1, 6239, Note_on_c, 9, 38, 73
1, 6239, Note_on_c, 0, 49, 111
1, 6239, Note_on_c, 0, 73, 120
1, 6239, Note_on_c, 5, 64, 67
1, 6239, Note_on_c, 7, 64, 77
1, 6240, Note_off_c, 9, 38, 64
1, 6240, Note_on_c, 9, 51, 108
1, 6240, Note_on_c, 2, 50, 118
1, 6241, Note_off_c, 9, 51, 64
1, 6241, Note_on_c, 1, 33, 85
1, 6242, Note_on_c, 5, 69, 53
1, 6242, Note_on_c, 7, 69, 63
1, 6245, Note_off_c, 2, 45, 64
1, 6253, Note_off_c, 5, 60, 64
1, 6253, Note_off_c, 7, 60, 64
1, 6256, Note_off_c, 5, 54, 64
1, 6256, Note_off_c, 5, 64, 64
1, 6256, Note_off_c, 5, 69, 64
1, 6256, Note_off_c, 7, 54, 64
1, 6256, Note_off_c, 7, 64, 64
1, 6256, Note_off_c, 7, 69, 64
1, 6279, Note_off_c, 6, 62, 64
1, 6280, Note_off_c, 2, 50, 64
1, 6285, Note_off_c, 0, 49, 64
1, 6290, Note_off_c, 0, 73, 64
1, 6303, Note_on_c, 9, 51, 83
1, 6303, Note_on_c, 9, 38, 53
1, 6303, Note_on_c, 0, 50, 112
1, 6303, Note_on_c, 0, 74, 104
1, 6304, Note_off_c, 9, 38, 64
1, 6304, Note_off_c, 9, 51, 64
1, 6304, Note_on_c, 2, 50, 91
1, 6304, Note_on_c, 5, 60, 76
1, 6304, Note_on_c, 7, 60, 86
1, 6306, Note_on_c, 5, 64, 97
1, 6306, Note_on_c, 7, 64, 107
1, 6308, Note_on_c, 5, 69, 91
1, 6308, Note_on_c, 7, 69, 101
1, 6334, Note_off_c, 1, 33, 64
1, 6335, Note_on_c, 9, 35, 108
1, 6335, Note_on_c, 9, 38, 74
1, 6335, Note_on_c, 1, 38, 92
1, 6336, Note_off_c, 9, 38, 64
1, 6336, Note_off_c, 9, 35, 64
1, 6337, Note_on_c, 9, 51, 99
1, 6338, Note_off_c, 9, 51, 64
1, 6383, Note_off_c, 0, 50, 64
1, 6392, Note_off_c, 2, 50, 64
1, 6392, Note_off_c, 5, 69, 64
1, 6392, Note_off_c, 7, 69, 64
1, 6393, Note_on_c, 5, 69, 59
1, 6393, Note_on_c, 7, 69, 69
1, 6394, Note_off_c, 5, 64, 64
1, 6394, Note_off_c, 7, 64, 64
1, 6395, Note_on_c, 5, 64, 66
1, 6395, Note_on_c, 7, 64, 76
1, 6397, Note_off_c, 5, 60, 64
1, 6397, Note_off_c, 7, 60, 64
1, 6399, Note_on_c, 0, 66, 83
1, 6399, Note_on_c, 0, 72, 93
1, 6399, Note_on_c, 0, 50, 102
1, 6399, Note_on_c, 0, 69, 84
1, 6399, Note_on_c, 5, 54, 16
1, 6399, Note_on_c, 7, 54, 26
1, 6400, Note_on_c, 9, 51, 78
1, 6400, Note_on_c, 9, 38, 53
1, 6400, Note_on_c, 2, 50, 85
1, 6401, Note_off_c, 9, 38, 64
1, 6401, Note_off_c, 9, 51, 64
1, 6410, Note_off_c, 0, 69, 64
1, 6413, Note_off_c, 0, 66, 64
1, 6414, Note_off_c, 0, 50, 64
1, 6417, Note_off_c, 0, 72, 64
1, 6430, Note_off_c, 1, 38, 64
1, 6431, Note_on_c, 1, 38, 95
1, 6431, Note_off_c, 2, 50, 64
1, 6431, Note_off_c, 5, 64, 64
1, 6431, Note_on_c, 5, 60, 58
1, 6431, Note_off_c, 7, 64, 64
1, 6431, Note_on_c, 7, 60, 68
1, 6432, Note_on_c, 5, 64, 78
1, 6432, Note_on_c, 7, 64, 88
1, 6433, Note_on_c, 9, 51, 114
1, 6433, Note_on_c, 9, 38, 72
1, 6433, Note_on_c, 2, 50, 125
1, 6433, Note_off_c, 5, 69, 64
1, 6433, Note_off_c, 7, 69, 64
1, 6434, Note_off_c, 9, 38, 64
1, 6434, Note_off_c, 9, 51, 64
1, 6434, Note_on_c, 5, 69, 70
1, 6434, Note_on_c, 7, 69, 80
1, 6450, Note_off_c, 5, 60, 64
1, 6450, Note_off_c, 7, 60, 64
1, 6453, Note_off_c, 5, 69, 64
1, 6453, Note_off_c, 7, 69, 64
1, 6454, Lyric_t, "Jack "
1, 6454, Note_on_c, 3, 67, 120
1, 6456, Note_off_c, 5, 54, 64
1, 6456, Note_off_c, 5, 64, 64
1, 6456, Note_off_c, 7, 54, 64
1, 6456, Note_off_c, 7, 64, 64
1, 6463, Note_on_c, 0, 66, 66
1, 6463, Note_on_c, 0, 72, 81
1, 6463, Note_on_c, 0, 69, 72
1, 6472, Note_off_c, 0, 69, 64
1, 6473, Note_off_c, 0, 66, 64
1, 6474, Note_off_c, 0, 72, 64
1, 6492, Note_on_c, 9, 38, 34
1, 6493, Note_off_c, 9, 38, 64
1, 6495, Note_on_c, 9, 51, 76
1, 6495, Note_on_c, 0, 50, 110
1, 6496, Note_off_c, 9, 51, 64
1, 6501, Note_on_c, 9, 38, 42
1, 6501, Note_off_c, 0, 50, 64
1, 6502, Note_off_c, 3, 67, 64
1, 6502, Note_off_c, 9, 38, 64
1, 6502, Note_off_c, 0, 74, 64
1, 6504, Note_off_c, 2, 50, 64
1, 6505, Lyric_t, "gave "
1, 6505, Note_on_c, 3, 67, 121
1, 6510, Note_on_c, 9, 38, 54
1, 6511, Note_off_c, 9, 38, 64
1, 6519, Note_on_c, 9, 38, 66
1, 6520, Note_off_c, 9, 38, 64
1, 6520, Note_off_c, 1, 38, 64
1, 6527, Note_on_c, 9, 35, 108
1, 6527, Note_on_c, 1, 43, 91
1, 6527, Note_on_c, 2, 55, 122
1, 6528, Note_off_c, 9, 35, 64
1, 6528, Note_on_c, 9, 38, 105
1, 6528, Note_on_c, 0, 79, 105
1, 6529, Note_off_c, 9, 38, 64
1, 6529, Note_on_c, 9, 51, 116
1, 6529, Note_on_c, 0, 55, 112
1, 6529, Note_on_c, 0, 62, 108
1, 6529, Note_on_c, 0, 67, 100
1, 6529, Note_on_c, 0, 74, 93
1, 6529, Note_on_c, 5, 59, 63
1, 6529, Note_on_c, 7, 59, 73
1, 6530, Note_off_c, 9, 51, 64
1, 6532, Note_on_c, 5, 62, 90
1, 6532, Note_on_c, 7, 62, 100
1, 6534, Note_on_c, 5, 67, 88
1, 6534, Note_on_c, 7, 67, 98
1, 6540, Note_off_c, 3, 67, 64
1, 6541, Lyric_t, "his "
1, 6541, Note_on_c, 3, 67, 117
1, 6559, Note_off_c, 0, 55, 64
1, 6559, Note_off_c, 0, 79, 64
1, 6560, Note_off_c, 0, 62, 64
1, 6561, Note_off_c, 0, 74, 64
1, 6563, Note_off_c, 0, 67, 64
1, 6564, Note_off_c, 2, 55, 64
1, 6564, Note_off_c, 5, 59, 64
1, 6564, Note_off_c, 7, 59, 64
1, 6565, Note_off_c, 5, 62, 64
1, 6565, Note_off_c, 7, 62, 64
1, 6569, Note_off_c, 5, 67, 64
1, 6569, Note_off_c, 7, 67, 64
1, 6573, Note_off_c, 3, 67, 64
1, 6574, Lyric_t, "wife "
1, 6574, Note_on_c, 3, 67, 117
1, 6587, Note_off_c, 1, 43, 64
1, 6606, Note_off_c, 3, 67, 64
1, 6612, Lyric_t, "two "
1, 6612, Note_on_c, 3, 70, 122
1, 6656, Lyric_t, "dol"
1, 6656, Note_on_c, 3, 67, 119
1, 6664, Note_off_c, 3, 70, 64
1, 6690, Note_off_c, 3, 67, 64
1, 6691, Lyric_t, "lars "
1, 6691, Note_on_c, 3, 67, 112
1, 6722, Note_off_c, 3, 67, 64
1, 6723, Lyric_t, "go "
1, 6723, Note_on_c, 3, 67, 116
1, 6754, Note_off_c, 3, 67, 64
1, 6755, Lyric_t, "down "
1, 6755, Note_on_c, 3, 67, 116
1, 6781, Note_on_c, 9, 38, 83
1, 6782, Note_off_c, 9, 38, 64
1, 6783, Note_on_c, 0, 70, 114
1, 6784, Note_on_c, 2, 46, 73
1, 6791, Note_off_c, 3, 67, 64
1, 6792, Lyric_t, "town "
1, 6792, Lyric_t, "\015"
1, 6792, Note_on_c, 3, 67, 113
1, 6805, Note_off_c, 0, 70, 64
1, 6814, Note_on_c, 1, 38, 98
1, 6815, Note_on_c, 9, 35, 104
1, 6815, Note_on_c, 9, 38, 95
1, 6815, Note_on_c, 0, 72, 86
1, 6815, Note_off_c, 2, 46, 64
1, 6815, Note_on_c, 2, 48, 113
1, 6816, Note_off_c, 9, 38, 64
1, 6816, Note_off_c, 9, 35, 64
1, 6816, Note_on_c, 5, 59, 75
1, 6816, Note_on_c, 7, 59, 85
1, 6818, Note_on_c, 5, 63, 94
1, 6818, Note_on_c, 7, 63, 104
1, 6820, Note_on_c, 5, 68, 83
1, 6820, Note_on_c, 7, 68, 93
1, 6832, Note_off_c, 3, 67, 64
1, 6833, Note_off_c, 5, 59, 64
1, 6833, Note_on_c, 5, 60, 61
1, 6833, Note_off_c, 7, 59, 64
1, 6833, Note_on_c, 7, 60, 71
1, 6834, Note_off_c, 5, 63, 64
1, 6834, Note_on_c, 5, 64, 79
1, 6834, Note_off_c, 7, 63, 64
1, 6834, Note_on_c, 7, 64, 89
1, 6835, Note_off_c, 5, 68, 64
1, 6835, Note_on_c, 5, 69, 74
1, 6835, Note_off_c, 7, 68, 64
1, 6835, Note_on_c, 7, 69, 84
1, 6843, Note_off_c, 0, 72, 64
1, 6844, Note_off_c, 2, 48, 64
1, 6847, Note_on_c, 2, 49, 105
1, 6849, Note_on_c, 0, 74, 84
1, 6875, Note_off_c, 2, 49, 64
1, 6876, Note_off_c, 0, 74, 64
1, 6879, Note_on_c, 0, 77, 114
1, 6879, Note_on_c, 2, 50, 109
1, 6880, Note_on_c, 9, 38, 23
1, 6881, Note_off_c, 9, 38, 64
1, 6889, Note_on_c, 9, 38, 34
1, 6890, Note_off_c, 9, 38, 64
1, 6897, Note_on_c, 9, 38, 47
1, 6897, Note_off_c, 0, 77, 64
1, 6898, Note_off_c, 9, 38, 64
1, 6901, Note_off_c, 5, 64, 64
1, 6901, Note_off_c, 5, 60, 64
1, 6901, Note_off_c, 7, 64, 64
1, 6901, Note_off_c, 7, 60, 64
1, 6904, Note_on_c, 9, 38, 49
1, 6905, Note_off_c, 9, 38, 64
1, 6910, Note_on_c, 1, 43, 91
1, 6911, Note_on_c, 0, 74, 112
1, 6912, Note_on_c, 9, 38, 102
1, 6912, Note_on_c, 0, 79, 118
1, 6912, Note_on_c, 0, 62, 107
1, 6912, Note_on_c, 0, 55, 110
1, 6912, Note_on_c, 2, 55, 123
1, 6912, Note_off_c, 5, 69, 64
1, 6912, Note_on_c, 5, 59, 43
1, 6912, Note_off_c, 7, 69, 64
1, 6912, Note_on_c, 7, 59, 53
1, 6913, Note_off_c, 9, 38, 64
1, 6913, Note_on_c, 9, 35, 108
1, 6914, Note_off_c, 9, 35, 64
1, 6914, Note_off_c, 2, 50, 64
1, 6914, Note_on_c, 5, 62, 66
1, 6914, Note_on_c, 7, 62, 76
1, 6917, Note_on_c, 5, 67, 49
1, 6917, Note_on_c, 7, 67, 59
1, 6918, Note_off_c, 1, 38, 64
1, 6941, Note_off_c, 5, 59, 64
1, 6941, Note_off_c, 7, 59, 64
1, 6942, Note_off_c, 0, 62, 64
1, 6943, Note_off_c, 0, 55, 64
1, 6945, Note_off_c, 0, 79, 64
1, 6945, Note_off_c, 0, 74, 64
1, 6945, Note_off_c, 5, 67, 64
1, 6945, Note_off_c, 7, 67, 64
1, 6946, Note_off_c, 2, 55, 64
1, 6947, Note_off_c, 5, 62, 64
1, 6947, Note_off_c, 7, 62, 64
1, 6964, Note_off_c, 1, 43, 64
1, 6977, Lyric_t, "and "
1, 6977, Note_on_c, 3, 65, 116
1, 7013, Lyric_t, "get "
1, 7013, Note_on_c, 3, 67, 118
1, 7014, Note_off_c, 3, 65, 64
1, 7075, Lyric_t, "some "
1, 7075, Note_on_c, 3, 65, 107
1, 7078, Note_off_c, 3, 67, 64
1, 7106, Lyric_t, "mar"
1, 7106, Note_on_c, 3, 67, 116
1, 7108, Note_off_c, 3, 65, 64
1, 7130, Lyric_t, "ket. "
1, 7130, Lyric_t, "\015"
1, 7130, Note_on_c, 3, 65, 111
1, 7133, Note_off_c, 3, 67, 64
1, 7163, Note_on_c, 9, 38, 19
1, 7164, Note_off_c, 9, 38, 64
1, 7166, Note_on_c, 2, 46, 107
1, 7169, Note_on_c, 0, 70, 126
1, 7171, Note_on_c, 9, 38, 24
1, 7172, Note_off_c, 3, 65, 64
1, 7172, Note_off_c, 9, 38, 64
1, 7179, Note_on_c, 9, 38, 33
1, 7180, Note_off_c, 9, 38, 64
1, 7185, Note_on_c, 9, 38, 37
1, 7186, Note_off_c, 9, 38, 64
1, 7192, Note_on_c, 9, 38, 41
1, 7193, Note_off_c, 9, 38, 64
1, 7196, Note_off_c, 2, 46, 64
1, 7198, Note_on_c, 1, 38, 95
1, 7198, Note_on_c, 2, 48, 117
1, 7199, Note_on_c, 9, 35, 104
1, 7200, Note_off_c, 9, 35, 64
1, 7200, Note_off_c, 0, 70, 64
1, 7201, Note_on_c, 0, 72, 94
1, 7203, Note_on_c, 9, 38, 97
1, 7204, Note_off_c, 9, 38, 64
1, 7204, Note_on_c, 5, 63, 102
1, 7204, Note_on_c, 5, 59, 70
1, 7204, Note_on_c, 7, 63, 112
1, 7204, Note_on_c, 7, 59, 80
1, 7205, Lyric_t, "\012"
1, 7206, Note_on_c, 5, 68, 83
1, 7206, Note_on_c, 7, 68, 93
1, 7211, Note_off_c, 5, 59, 64
1, 7211, Note_off_c, 5, 63, 64
1, 7211, Note_on_c, 5, 60, 65
1, 7211, Note_on_c, 5, 64, 96
1, 7211, Note_off_c, 7, 59, 64
1, 7211, Note_off_c, 7, 63, 64
1, 7211, Note_on_c, 7, 60, 75
1, 7211, Note_on_c, 7, 64, 106
1, 7212, Note_off_c, 5, 68, 64
1, 7212, Note_on_c, 5, 69, 80
1, 7212, Note_off_c, 7, 68, 64
1, 7212, Note_on_c, 7, 69, 90
1, 7228, Note_off_c, 0, 72, 64
1, 7229, Note_off_c, 2, 48, 64
1, 7231, Note_on_c, 2, 49, 113
1, 7232, Note_on_c, 0, 74, 95
1, 7256, Note_off_c, 5, 69, 64
1, 7256, Note_off_c, 7, 69, 64
1, 7259, Note_off_c, 0, 74, 64
1, 7259, Note_off_c, 2, 49, 64
1, 7262, Note_on_c, 2, 50, 112
1, 7263, Note_on_c, 0, 77, 112
1, 7266, Note_on_c, 5, 69, 37
1, 7266, Note_on_c, 7, 69, 47
1, 7284, Note_off_c, 0, 77, 64
1, 7285, Note_off_c, 5, 69, 64
1, 7285, Note_off_c, 7, 69, 64
1, 7288, Note_on_c, 9, 38, 70
1, 7289, Note_off_c, 9, 38, 64
1, 7289, Note_off_c, 5, 64, 64
1, 7289, Note_off_c, 7, 64, 64
1, 7291, Note_off_c, 5, 60, 64
1, 7291, Note_off_c, 7, 60, 64
1, 7292, Note_on_c, 9, 38, 107
1, 7293, Note_off_c, 9, 38, 64
1, 7293, Note_off_c, 2, 50, 64
1, 7294, Note_on_c, 2, 55, 126
1, 7295, Note_on_c, 9, 35, 106
1, 7296, Note_off_c, 9, 35, 64
1, 7296, Note_on_c, 1, 43, 91
1, 7296, Note_on_c, 0, 74, 108
1, 7296, Note_on_c, 0, 79, 107
1, 7297, Note_on_c, 0, 55, 110
1, 7297, Note_on_c, 0, 62, 101
1, 7298, Note_on_c, 5, 62, 80
1, 7298, Note_on_c, 7, 62, 90
1, 7299, Note_on_c, 5, 67, 81
1, 7299, Note_on_c, 7, 67, 91
1, 7307, Note_off_c, 1, 38, 64
1, 7324, Note_off_c, 0, 62, 64
1, 7326, Note_off_c, 0, 74, 64
1, 7326, Note_off_c, 0, 79, 64
1, 7326, Note_off_c, 0, 55, 64
1, 7327, Note_off_c, 2, 55, 64
1, 7327, Note_off_c, 5, 62, 64
1, 7327, Note_off_c, 7, 62, 64
1, 7329, Note_off_c, 5, 67, 64
1, 7329, Note_off_c, 7, 67, 64
1, 7355, Lyric_t, "Gets "
1, 7355, Note_on_c, 3, 65, 118
1, 7356, Note_off_c, 1, 43, 64
1, 7392, Lyric_t, "out "
1, 7392, Note_on_c, 3, 67, 117
1, 7394, Note_off_c, 3, 65, 64
1, 7422, Note_off_c, 3, 67, 64
1, 7423, Lyric_t, "on "
1, 7423, Note_on_c, 3, 67, 113
1, 7452, Note_off_c, 3, 67, 64
1, 7453, Lyric_t, "the "
1, 7453, Note_on_c, 3, 67, 113
1, 7489, Lyric_t, "streets, "
1, 7489, Lyric_t, "\015"
1, 7489, Note_on_c, 3, 70, 120
1, 7490, Note_off_c, 3, 67, 64
1, 7551, Note_on_c, 0, 70, 127
1, 7552, Note_on_c, 2, 46, 109
1, 7555, Note_on_c, 9, 38, 22
1, 7556, Note_off_c, 9, 38, 64
1, 7565, Note_on_c, 9, 38, 30
1, 7566, Note_off_c, 3, 70, 64
1, 7566, Note_off_c, 9, 38, 64
1, 7571, Note_off_c, 0, 70, 64
1, 7574, Note_on_c, 9, 38, 46
1, 7575, Note_off_c, 9, 38, 64
1, 7583, Note_on_c, 9, 35, 104
1, 7583, Note_on_c, 1, 38, 94
1, 7583, Note_off_c, 2, 46, 64
1, 7584, Note_off_c, 9, 35, 64
1, 7584, Note_on_c, 9, 38, 84
1, 7584, Note_on_c, 2, 48, 113
1, 7585, Note_off_c, 9, 38, 64
1, 7585, Note_on_c, 0, 72, 91
1, 7585, Note_on_c, 5, 63, 97
1, 7585, Note_on_c, 5, 59, 46
1, 7585, Note_on_c, 7, 63, 107
1, 7585, Note_on_c, 7, 59, 56
1, 7587, Note_on_c, 5, 68, 87
1, 7587, Note_on_c, 7, 68, 97
1, 7592, Note_off_c, 5, 63, 64
1, 7592, Note_on_c, 5, 64, 86
1, 7592, Note_off_c, 7, 63, 64
1, 7592, Note_on_c, 7, 64, 96
1, 7593, Note_off_c, 5, 68, 64
1, 7593, Note_on_c, 5, 69, 81
1, 7593, Note_off_c, 7, 68, 64
1, 7593, Note_on_c, 7, 69, 91
1, 7595, Note_off_c, 5, 59, 64
1, 7595, Note_on_c, 5, 60, 40
1, 7595, Note_off_c, 7, 59, 64
1, 7595, Note_on_c, 7, 60, 50
1, 7610, Note_off_c, 0, 72, 64
1, 7613, Note_off_c, 2, 48, 64
1, 7616, Note_on_c, 2, 49, 109
1, 7617, Note_on_c, 0, 74, 90
1, 7638, Note_off_c, 0, 74, 64
1, 7645, Note_off_c, 2, 49, 64
1, 7647, Note_on_c, 0, 77, 112
1, 7648, Note_on_c, 2, 50, 109
1, 7667, Note_off_c, 0, 77, 64
1, 7669, Note_off_c, 5, 60, 64
1, 7669, Note_off_c, 7, 60, 64
1, 7676, Note_off_c, 5, 64, 64
1, 7676, Note_off_c, 7, 64, 64
1, 7678, Note_off_c, 5, 69, 64
1, 7678, Note_off_c, 7, 69, 64
1, 7679, Note_on_c, 9, 35, 105
1, 7679, Note_off_c, 1, 38, 64
1, 7679, Note_on_c, 1, 43, 84
1, 7679, Note_on_c, 0, 74, 112
1, 7679, Note_on_c, 0, 55, 112
1, 7679, Note_on_c, 0, 79, 120
1, 7679, Note_on_c, 0, 62, 107
1, 7680, Note_off_c, 9, 35, 64
1, 7681, Note_on_c, 9, 38, 88
1, 7681, Note_on_c, 2, 55, 122
1, 7681, Note_on_c, 5, 62, 78
1, 7681, Note_on_c, 7, 62, 88
1, 7682, Note_off_c, 9, 38, 64
1, 7682, Note_off_c, 2, 50, 64
1, 7683, Note_on_c, 5, 67, 75
1, 7683, Note_on_c, 7, 67, 85
1, 7703, Note_off_c, 0, 74, 64
1, 7705, Note_off_c, 0, 62, 64
1, 7707, Note_off_c, 0, 55, 64
1, 7708, Note_off_c, 0, 79, 64
1, 7709, Note_off_c, 5, 62, 64
1, 7709, Note_off_c, 7, 62, 64
1, 7710, Note_off_c, 5, 67, 64
1, 7710, Note_off_c, 7, 67, 64
1, 7720, Note_off_c, 2, 55, 64
1, 7740, Note_off_c, 1, 43, 64
1, 7742, Lyric_t, "old "
1, 7742, Note_on_c, 3, 67, 119
1, 7774, Lyric_t, "George "
1, 7774, Note_on_c, 3, 70, 125
1, 7777, Note_off_c, 3, 67, 64
1, 7868, Lyric_t, "stopped "
1, 7868, Note_off_c, 3, 70, 64
1, 7868, Note_on_c, 3, 67, 116
1, 7916, Note_off_c, 3, 67, 64
1, 7917, Lyric_t, "her. "
1, 7917, Lyric_t, "\015"
1, 7917, Note_on_c, 3, 67, 113
1, 7933, Note_on_c, 2, 46, 107
1, 7935, Note_on_c, 0, 70, 127
1, 7937, Note_on_c, 9, 38, 17
1, 7938, Note_off_c, 9, 38, 64
1, 7945, Note_on_c, 9, 38, 29
1, 7946, Note_off_c, 9, 38, 64
1, 7951, Note_off_c, 3, 67, 64
1, 7952, Note_on_c, 9, 38, 38
1, 7953, Note_off_c, 9, 38, 64
1, 7960, Note_off_c, 0, 70, 64
1, 7961, Note_on_c, 9, 38, 47
1, 7962, Note_off_c, 9, 38, 64
1, 7965, Note_off_c, 2, 46, 64
1, 7967, Note_on_c, 1, 38, 91
1, 7967, Note_on_c, 0, 72, 88
1, 7967, Note_on_c, 2, 48, 105
1, 7968, Note_on_c, 9, 35, 104
1, 7968, Note_on_c, 9, 38, 92
1, 7969, Note_off_c, 9, 38, 64
1, 7969, Note_off_c, 9, 35, 64
1, 7970, Note_on_c, 5, 64, 85
1, 7970, Note_on_c, 5, 60, 82
1, 7970, Note_on_c, 7, 64, 95
1, 7970, Note_on_c, 7, 60, 92
1, 7972, Note_on_c, 5, 69, 85
1, 7972, Note_on_c, 7, 69, 95
1, 7988, Lyric_t, "\012"
1, 7989, Note_off_c, 0, 72, 64
1, 7993, Note_off_c, 2, 48, 64
1, 7999, Note_on_c, 0, 74, 87
1, 7999, Note_on_c, 2, 49, 102
1, 8019, Note_off_c, 0, 74, 64
1, 8026, Note_off_c, 2, 49, 64
1, 8030, Note_on_c, 2, 50, 106
1, 8031, Note_on_c, 0, 77, 118
1, 8048, Note_off_c, 0, 77, 64
1, 8055, Note_off_c, 5, 60, 64
1, 8055, Note_off_c, 7, 60, 64
1, 8060, Note_on_c, 9, 38, 103
1, 8061, Note_off_c, 9, 38, 64
1, 8063, Note_on_c, 9, 35, 105
1, 8063, Note_on_c, 0, 62, 102
1, 8063, Note_on_c, 0, 74, 102
1, 8063, Note_on_c, 0, 79, 114
1, 8063, Note_on_c, 0, 55, 100
1, 8063, Note_off_c, 5, 69, 64
1, 8063, Note_off_c, 5, 64, 64
1, 8063, Note_off_c, 7, 69, 64
1, 8063, Note_off_c, 7, 64, 64
1, 8064, Note_off_c, 9, 35, 64
1, 8064, Note_on_c, 1, 43, 88
1, 8064, Note_on_c, 2, 55, 118
1, 8065, Note_on_c, 5, 62, 90
1, 8065, Note_on_c, 5, 67, 92
1, 8065, Note_on_c, 7, 62, 100
1, 8065, Note_on_c, 7, 67, 102
1, 8068, Note_off_c, 2, 50, 64
1, 8071, Note_off_c, 1, 38, 64
1, 8093, Note_off_c, 0, 62, 64
1, 8093, Note_off_c, 5, 62, 64
1, 8093, Note_off_c, 7, 62, 64
1, 8095, Note_off_c, 0, 55, 64
1, 8095, Note_off_c, 0, 79, 64
1, 8095, Note_off_c, 5, 67, 64
1, 8095, Note_off_c, 7, 67, 64
1, 8099, Note_off_c, 0, 74, 64
1, 8104, Note_off_c, 2, 55, 64
1, 8120, Note_off_c, 1, 43, 64
1, 8128, Lyric_t, "He "
1, 8128, Note_on_c, 3, 65, 116
1, 8159, Note_off_c, 3, 65, 64
1, 8163, Lyric_t, "knocked "
1, 8163, Note_on_c, 3, 67, 121
1, 8226, Note_off_c, 3, 67, 64
1, 8232, Lyric_t, "her "
1, 8232, Note_on_c, 3, 65, 102
1, 8261, Lyric_t, "down "
1, 8261, Lyric_t, "\015"
1, 8261, Note_on_c, 3, 70, 120
1, 8262, Note_off_c, 3, 65, 64
1, 8318, Note_on_c, 9, 38, 30
1, 8319, Note_off_c, 9, 38, 64
1, 8319, Note_on_c, 2, 46, 109
1, 8321, Note_on_c, 0, 70, 127
1, 8327, Note_on_c, 9, 38, 40
1, 8328, Note_off_c, 9, 38, 64
1, 8334, Note_off_c, 3, 70, 64
1, 8335, Note_on_c, 9, 38, 47
1, 8336, Note_off_c, 9, 38, 64
1, 8341, Note_off_c, 0, 70, 64
1, 8343, Note_on_c, 9, 38, 53
1, 8344, Note_off_c, 9, 38, 64
1, 8348, Note_off_c, 2, 46, 64
1, 8350, Note_on_c, 1, 38, 105
1, 8351, Note_on_c, 9, 35, 105
1, 8351, Note_on_c, 9, 38, 92
1, 8352, Note_off_c, 9, 38, 64
1, 8352, Note_off_c, 9, 35, 64
1, 8352, Note_on_c, 0, 72, 90
1, 8352, Note_on_c, 2, 48, 111
1, 8354, Note_on_c, 5, 64, 87
1, 8354, Note_on_c, 7, 64, 97
1, 8355, Note_on_c, 5, 68, 100
1, 8355, Note_on_c, 7, 68, 110
1, 8356, Note_off_c, 5, 68, 64
1, 8356, Note_on_c, 5, 69, 91
1, 8356, Note_off_c, 7, 68, 64
1, 8356, Note_on_c, 7, 69, 101
1, 8377, Note_off_c, 0, 72, 64
1, 8380, Note_off_c, 2, 48, 64
1, 8383, Note_on_c, 2, 49, 107
1, 8385, Note_on_c, 0, 74, 85
1, 8407, Note_off_c, 0, 74, 64
1, 8412, Note_off_c, 2, 49, 64
1, 8415, Note_on_c, 0, 77, 120
1, 8415, Note_on_c, 2, 50, 112
1, 8416, Note_on_c, 9, 38, 67
1, 8417, Note_off_c, 9, 38, 64
1, 8434, Note_off_c, 0, 77, 64
1, 8438, Note_off_c, 5, 64, 64
1, 8438, Note_off_c, 7, 64, 64
1, 8445, Note_off_c, 5, 69, 64
1, 8445, Note_off_c, 7, 69, 64
1, 8446, Note_on_c, 9, 38, 104
1, 8446, Note_off_c, 1, 38, 64
1, 8446, Note_on_c, 1, 43, 91
1, 8446, Note_on_c, 5, 59, 61
1, 8446, Note_on_c, 7, 59, 71
1, 8447, Note_off_c, 9, 38, 64
1, 8447, Note_on_c, 9, 35, 106
1, 8447, Note_on_c, 0, 74, 108
1, 8447, Note_on_c, 0, 79, 114
1, 8447, Note_off_c, 2, 50, 64
1, 8447, Note_on_c, 2, 55, 117
1, 8448, Note_off_c, 9, 35, 64
1, 8448, Note_on_c, 0, 62, 107
1, 8448, Note_on_c, 0, 55, 107
1, 8448, Note_on_c, 5, 62, 73
1, 8448, Note_on_c, 7, 62, 83
1, 8451, Note_on_c, 5, 67, 56
1, 8451, Note_on_c, 7, 67, 66
1, 8472, Note_off_c, 5, 59, 64
1, 8472, Note_off_c, 7, 59, 64
1, 8477, Note_off_c, 0, 55, 64
1, 8477, Note_off_c, 0, 62, 64
1, 8477, Note_off_c, 0, 79, 64
1, 8478, Note_off_c, 5, 62, 64
1, 8478, Note_off_c, 7, 62, 64
1, 8479, Note_off_c, 5, 67, 64
1, 8479, Note_off_c, 7, 67, 64
1, 8481, Note_off_c, 2, 55, 64
1, 8484, Note_off_c, 0, 74, 64
1, 8500, Note_off_c, 1, 43, 64
1, 8509, Lyric_t, "and "
1, 8509, Note_on_c, 3, 67, 118
1, 8537, Note_off_c, 3, 67, 64
1, 8540, Lyric_t, "black"
1, 8540, Note_on_c, 3, 67, 112
1, 8570, Note_off_c, 3, 67, 64
1, 8571, Lyric_t, "ened "
1, 8571, Note_on_c, 3, 67, 113
1, 8599, Note_off_c, 3, 67, 64
1, 8600, Lyric_t, "her "
1, 8600, Note_on_c, 3, 67, 113
1, 8630, Note_off_c, 3, 67, 64
1, 8631, Lyric_t, "eye. "
1, 8631, Lyric_t, "\015"
1, 8631, Note_on_c, 3, 67, 122
1, 8690, Note_off_c, 3, 67, 64
1, 8703, Note_on_c, 0, 70, 126
1, 8705, Note_on_c, 2, 46, 105
1, 8706, Note_on_c, 9, 38, 23
1, 8707, Note_off_c, 9, 38, 64
1, 8715, Note_on_c, 9, 38, 30
1, 8716, Note_off_c, 9, 38, 64
1, 8720, Lyric_t, "\012"
1, 8722, Note_on_c, 9, 38, 37
1, 8723, Note_off_c, 9, 38, 64
1, 8723, Note_off_c, 0, 70, 64
1, 8729, Note_on_c, 9, 38, 51
1, 8730, Note_off_c, 9, 38, 64
1, 8730, Note_on_c, 5, 59, 54
1, 8730, Note_on_c, 7, 59, 64
1, 8732, Note_on_c, 5, 63, 93
1, 8732, Note_on_c, 7, 63, 103
1, 8734, Note_off_c, 2, 46, 64
1, 8734, Note_on_c, 5, 68, 100
1, 8734, Note_on_c, 7, 68, 110
1, 8735, Note_on_c, 9, 35, 104
1, 8735, Note_on_c, 1, 38, 95
1, 8735, Note_on_c, 0, 72, 85
1, 8736, Note_off_c, 9, 35, 64
1, 8736, Note_on_c, 9, 38, 101
1, 8736, Note_on_c, 2, 48, 115
1, 8737, Note_off_c, 9, 38, 64
1, 8742, Note_off_c, 5, 68, 64
1, 8742, Note_off_c, 5, 63, 64
1, 8742, Note_on_c, 5, 64, 85
1, 8742, Note_on_c, 5, 69, 91
1, 8742, Note_off_c, 7, 68, 64
1, 8742, Note_off_c, 7, 63, 64
1, 8742, Note_on_c, 7, 64, 95
1, 8742, Note_on_c, 7, 69, 101
1, 8743, Note_off_c, 5, 59, 64
1, 8743, Note_on_c, 5, 60, 49
1, 8743, Note_off_c, 7, 59, 64
1, 8743, Note_on_c, 7, 60, 59
1, 8757, Note_off_c, 0, 72, 64
1, 8762, Note_off_c, 2, 48, 64
1, 8767, Note_on_c, 0, 74, 88
1, 8767, Note_on_c, 2, 49, 112
1, 8787, Note_off_c, 0, 74, 64
1, 8797, Note_off_c, 2, 49, 64
1, 8799, Note_on_c, 0, 77, 112
1, 8799, Note_on_c, 2, 50, 112
1, 8800, Note_on_c, 9, 38, 61
1, 8801, Note_off_c, 9, 38, 64
1, 8814, Note_off_c, 5, 60, 64
1, 8814, Note_off_c, 7, 60, 64
1, 8815, Note_off_c, 0, 77, 64
1, 8815, Note_off_c, 5, 69, 64
1, 8815, Note_off_c, 7, 69, 64
1, 8816, Note_off_c, 5, 64, 64
1, 8816, Note_off_c, 7, 64, 64
1, 8827, Note_on_c, 5, 59, 65
1, 8827, Note_on_c, 7, 59, 75
1, 8831, Note_on_c, 9, 35, 107
1, 8831, Note_on_c, 0, 55, 116
1, 8831, Note_on_c, 0, 74, 107
1, 8831, Note_on_c, 0, 62, 110
1, 8831, Note_on_c, 0, 79, 116
1, 8831, Note_on_c, 5, 62, 58
1, 8831, Note_on_c, 5, 67, 77
1, 8831, Note_on_c, 7, 62, 68
1, 8831, Note_on_c, 7, 67, 87
1, 8832, Note_off_c, 9, 35, 64
1, 8832, Note_on_c, 1, 43, 89
1, 8832, Note_off_c, 2, 50, 64
1, 8833, Note_on_c, 9, 38, 107
1, 8834, Note_off_c, 9, 38, 64
1, 8834, Note_on_c, 2, 43, 110
1, 8837, Note_off_c, 1, 38, 64
1, 8856, Note_off_c, 0, 79, 64
1, 8856, Note_off_c, 0, 62, 64
1, 8857, Note_off_c, 5, 62, 64
1, 8857, Note_off_c, 7, 62, 64
1, 8858, Note_off_c, 0, 55, 64
1, 8859, Note_off_c, 0, 74, 64
1, 8863, Note_off_c, 5, 59, 64
1, 8863, Note_off_c, 7, 59, 64
1, 8866, Note_off_c, 5, 67, 64
1, 8866, Note_off_c, 7, 67, 64
1, 8879, Note_off_c, 2, 43, 64
1, 8888, Note_off_c, 1, 43, 64
1, 8898, Lyric_t, "She "
1, 8898, Note_on_c, 3, 65, 105
1, 8933, Lyric_t, "gets "
1, 8933, Note_on_c, 3, 67, 115
1, 8935, Note_off_c, 3, 65, 64
1, 8959, Lyric_t, "back "
1, 8959, Note_on_c, 3, 65, 116
1, 8962, Note_off_c, 3, 67, 64
1, 8986, Lyric_t, "home, "
1, 8986, Lyric_t, "\015"
1, 8986, Note_on_c, 3, 67, 117
1, 8988, Note_off_c, 3, 65, 64
1, 9020, Note_off_c, 3, 67, 64
1, 9020, Note_on_c, 3, 70, 105
1, 9082, Note_on_c, 9, 38, 23
1, 9083, Note_off_c, 9, 38, 64
1, 9086, Note_on_c, 2, 46, 109
1, 9087, Note_on_c, 0, 70, 120
1, 9090, Note_on_c, 9, 38, 29
1, 9091, Note_off_c, 9, 38, 64
1, 9093, Note_off_c, 3, 70, 64
1, 9098, Note_on_c, 9, 38, 36
1, 9099, Note_off_c, 9, 38, 64
1, 9105, Note_on_c, 9, 38, 42
1, 9106, Note_off_c, 9, 38, 64
1, 9111, Note_off_c, 0, 70, 64
1, 9113, Note_on_c, 9, 38, 56
1, 9114, Note_off_c, 9, 38, 64
1, 9116, Note_off_c, 2, 46, 64
1, 9117, Note_on_c, 2, 48, 112
1, 9118, Note_on_c, 1, 38, 92
1, 9118, Note_on_c, 5, 59, 85
1, 9118, Note_on_c, 7, 59, 95
1, 9119, Note_on_c, 0, 72, 90
1, 9120, Note_on_c, 9, 35, 106
1, 9120, Note_on_c, 9, 38, 88
1, 9120, Note_on_c, 5, 63, 99
1, 9120, Note_on_c, 7, 63, 109
1, 9121, Note_off_c, 9, 38, 64
1, 9121, Note_off_c, 9, 35, 64
1, 9125, Note_on_c, 5, 68, 58
1, 9125, Note_on_c, 7, 68, 68
1, 9128, Note_off_c, 5, 63, 64
1, 9128, Note_off_c, 5, 59, 64
1, 9128, Note_on_c, 5, 64, 90
1, 9128, Note_on_c, 5, 60, 79
1, 9128, Note_off_c, 7, 63, 64
1, 9128, Note_off_c, 7, 59, 64
1, 9128, Note_on_c, 7, 64, 100
1, 9128, Note_on_c, 7, 60, 89
1, 9131, Note_off_c, 5, 68, 64
1, 9131, Note_off_c, 7, 68, 64
1, 9132, Note_on_c, 5, 69, 63
1, 9132, Note_on_c, 7, 69, 73
1, 9143, Note_off_c, 0, 72, 64
1, 9149, Note_on_c, 2, 49, 110
1, 9150, Lyric_t, "tell "
1, 9150, Note_on_c, 3, 70, 115
1, 9151, Note_on_c, 0, 74, 88
1, 9151, Note_off_c, 2, 48, 64
1, 9166, Note_off_c, 0, 74, 64
1, 9178, Note_off_c, 3, 70, 64
1, 9179, Lyric_t, "her "
1, 9179, Note_on_c, 3, 70, 115
1, 9179, Note_off_c, 2, 49, 64
1, 9182, Note_on_c, 2, 50, 108
1, 9183, Note_on_c, 0, 77, 108
1, 9184, Note_on_c, 9, 38, 62
1, 9185, Note_off_c, 9, 38, 64
1, 9196, Note_off_c, 0, 77, 64
1, 9203, Note_off_c, 5, 60, 64
1, 9203, Note_off_c, 7, 60, 64
1, 9210, Note_off_c, 3, 70, 64
1, 9210, Note_off_c, 5, 69, 64
1, 9210, Note_off_c, 5, 64, 64
1, 9210, Note_off_c, 7, 69, 64
1, 9210, Note_off_c, 7, 64, 64
1, 9211, Lyric_t, "hus"
1, 9211, Note_on_c, 3, 71, 118
1, 9212, Note_off_c, 2, 50, 64
1, 9212, Note_on_c, 5, 62, 44
1, 9212, Note_on_c, 7, 62, 54
1, 9214, Note_on_c, 9, 38, 110
1, 9214, Note_on_c, 2, 54, 127
1, 9215, Note_off_c, 9, 38, 64
1, 9215, Note_on_c, 9, 35, 107
1, 9215, Note_on_c, 1, 43, 94
1, 9215, Note_on_c, 0, 74, 112
1, 9215, Note_on_c, 0, 55, 116
1, 9215, Note_on_c, 0, 79, 120
1, 9215, Note_on_c, 0, 62, 110
1, 9215, Note_on_c, 5, 67, 62
1, 9215, Note_on_c, 7, 67, 72
1, 9216, Note_off_c, 9, 35, 64
1, 9217, Note_off_c, 1, 38, 64
1, 9249, Note_on_c, 2, 55, 104
1, 9250, Note_off_c, 2, 54, 64
1, 9254, Note_off_c, 5, 62, 64
1, 9254, Note_off_c, 7, 62, 64
1, 9267, Note_off_c, 5, 67, 64
1, 9267, Note_off_c, 7, 67, 64
1, 9271, Note_off_c, 1, 43, 64
1, 9277, Note_off_c, 2, 55, 64
1, 9280, Note_on_c, 2, 55, 116
1, 9309, Note_off_c, 3, 71, 64
1, 9310, Lyric_t, "band "
1, 9310, Note_on_c, 3, 71, 120
1, 9312, Note_off_c, 2, 55, 64
1, 9313, Note_on_c, 2, 54, 127
1, 9345, Note_off_c, 2, 54, 64
1, 9345, Note_on_c, 2, 55, 101
1, 9373, Note_off_c, 2, 55, 64
1, 9376, Note_off_c, 3, 71, 64
1, 9377, Lyric_t, "a "
1, 9377, Note_on_c, 3, 69, 117
1, 9377, Note_on_c, 2, 55, 113
1, 9407, Note_off_c, 2, 55, 64
1, 9409, Note_on_c, 2, 54, 127
1, 9410, Lyric_t, "lie. "
1, 9410, Lyric_t, "\015"
1, 9410, Note_on_c, 3, 67, 122
1, 9417, Note_off_c, 3, 69, 64
1, 9437, Note_off_c, 2, 54, 64
1, 9438, Note_on_c, 2, 55, 103
1, 9442, Lyric_t, "\012"
1, 9467, Note_off_c, 2, 55, 64
1, 9470, Note_on_c, 9, 38, 33
1, 9471, Note_off_c, 9, 38, 64
1, 9471, Note_on_c, 2, 55, 113
1, 9479, Note_on_c, 9, 38, 40
1, 9480, Note_off_c, 9, 38, 64
1, 9486, Note_on_c, 9, 38, 47
1, 9487, Note_off_c, 9, 38, 64
1, 9495, Note_on_c, 9, 38, 55
1, 9496, Note_off_c, 9, 38, 64
1, 9497, Note_off_c, 0, 62, 64
1, 9501, Note_off_c, 0, 79, 64
1, 9501, Note_off_c, 0, 55, 64
1, 9503, Note_on_c, 2, 54, 127
1, 9504, Note_on_c, 9, 38, 100
1, 9504, Note_off_c, 0, 74, 64
1, 9504, Note_off_c, 2, 55, 64
1, 9505, Lyric_t, "Don't "
1, 9505, Note_on_c, 3, 69, 116
1, 9505, Note_off_c, 9, 38, 64
1, 9507, Note_on_c, 1, 43, 84
1, 9511, Note_off_c, 3, 67, 64
1, 9535, Note_on_c, 9, 51, 110
1, 9536, Note_off_c, 9, 51, 64
1, 9536, Note_on_c, 9, 38, 99
1, 9537, Note_off_c, 9, 38, 64
1, 9537, Note_off_c, 2, 54, 64
1, 9537, Note_on_c, 2, 55, 111
1, 9565, Note_off_c, 2, 55, 64
1, 9567, Note_on_c, 9, 51, 102
1, 9568, Note_off_c, 9, 51, 64
1, 9568, Note_on_c, 9, 38, 106
1, 9569, Note_off_c, 9, 38, 64
1, 9569, Note_on_c, 2, 55, 109
1, 9570, Note_off_c, 3, 69, 64
1, 9587, Note_off_c, 1, 43, 64
1, 9599, Note_on_c, 9, 51, 127
1, 9599, Note_off_c, 2, 55, 64
1, 9600, Note_off_c, 9, 51, 64
1, 9601, Note_on_c, 9, 35, 109
1, 9601, Note_on_c, 1, 36, 106
1, 9601, Note_on_c, 2, 48, 117
1, 9602, Note_off_c, 9, 35, 64
1, 9633, Note_on_c, 5, 74, 103
1, 9633, Note_on_c, 7, 74, 113
1, 9651, Note_off_c, 2, 48, 64
1, 9654, Lyric_t, "start "
1, 9654, Note_on_c, 3, 70, 120
1, 9663, Note_on_c, 9, 51, 78
1, 9663, Note_on_c, 9, 38, 52
1, 9663, Note_on_c, 5, 73, 85
1, 9663, Note_on_c, 7, 73, 95
1, 9664, Note_off_c, 9, 38, 64
1, 9664, Note_off_c, 9, 51, 64
1, 9664, Note_off_c, 5, 74, 64
1, 9664, Note_off_c, 7, 74, 64
1, 9665, Note_on_c, 0, 67, 88
1, 9665, Note_on_c, 0, 64, 93
1, 9665, Note_on_c, 0, 60, 76
1, 9675, Note_off_c, 0, 64, 64
1, 9675, Note_off_c, 0, 67, 64
1, 9677, Note_off_c, 0, 60, 64
1, 9691, Note_off_c, 5, 73, 64
1, 9691, Note_off_c, 7, 73, 64
1, 9692, Note_on_c, 5, 72, 94
1, 9692, Note_on_c, 7, 72, 104
1, 9695, Note_on_c, 9, 51, 102
1, 9696, Note_off_c, 9, 51, 64
1, 9696, Note_on_c, 9, 38, 75
1, 9697, Note_off_c, 9, 38, 64
1, 9697, Note_on_c, 0, 65, 112
1, 9697, Note_on_c, 0, 60, 101
1, 9697, Note_on_c, 0, 69, 112
1, 9697, Note_on_c, 2, 51, 121
1, 9698, Note_on_c, 1, 40, 91
1, 9700, Note_off_c, 1, 36, 64
1, 9716, Note_off_c, 3, 70, 64
1, 9721, Lyric_t, "me "
1, 9721, Note_on_c, 3, 69, 118
1, 9722, Note_off_c, 5, 72, 64
1, 9722, Note_on_c, 5, 70, 81
1, 9722, Note_off_c, 7, 72, 64
1, 9722, Note_on_c, 7, 70, 91
1, 9730, Note_off_c, 0, 69, 64
1, 9734, Note_off_c, 0, 65, 64
1, 9740, Note_off_c, 0, 60, 64
1, 9753, Note_off_c, 3, 69, 64
1, 9754, Lyric_t, "to "
1, 9754, Note_on_c, 3, 69, 105
1, 9754, Note_on_c, 5, 72, 103
1, 9754, Note_on_c, 7, 72, 113
1, 9758, Note_off_c, 5, 70, 64
1, 9758, Note_off_c, 7, 70, 64
1, 9759, Note_on_c, 0, 69, 101
1, 9759, Note_on_c, 0, 65, 100
1, 9759, Note_on_c, 0, 60, 90
1, 9759, Note_on_c, 2, 52, 111
1, 9760, Note_off_c, 2, 51, 64
1, 9761, Note_on_c, 9, 51, 92
1, 9761, Note_on_c, 9, 38, 52
1, 9762, Note_off_c, 9, 38, 64
1, 9762, Note_off_c, 9, 51, 64
1, 9784, Note_off_c, 0, 65, 64
1, 9786, Note_off_c, 3, 69, 64
1, 9786, Note_off_c, 5, 72, 64
1, 9786, Note_off_c, 7, 72, 64
1, 9787, Lyric_t, "talk"
1, 9787, Note_on_c, 3, 67, 118
1, 9787, Note_off_c, 0, 69, 64
1, 9787, Note_on_c, 5, 70, 76
1, 9787, Note_on_c, 7, 70, 86
1, 9793, Note_on_c, 9, 51, 102
1, 9793, Note_on_c, 9, 35, 107
1, 9793, Note_on_c, 9, 38, 76
1, 9793, Note_on_c, 1, 43, 86
1, 9793, Note_on_c, 0, 64, 64
1, 9794, Note_off_c, 9, 38, 64
1, 9794, Note_off_c, 9, 35, 64
1, 9794, Note_off_c, 9, 51, 64
1, 9794, Note_on_c, 2, 55, 109
1, 9795, Note_off_c, 2, 52, 64
1, 9799, Note_off_c, 0, 60, 64
1, 9801, Note_off_c, 1, 40, 64
1, 9815, Note_off_c, 0, 64, 64
1, 9819, Note_off_c, 5, 70, 64
1, 9819, Note_on_c, 5, 72, 104
1, 9819, Note_off_c, 7, 70, 64
1, 9819, Note_on_c, 7, 72, 114
1, 9821, Note_off_c, 2, 55, 64
1, 9851, Note_off_c, 5, 72, 64
1, 9851, Note_off_c, 7, 72, 64
1, 9852, Note_on_c, 5, 70, 85
1, 9852, Note_on_c, 7, 70, 95
1, 9855, Note_on_c, 9, 51, 94
1, 9855, Note_on_c, 2, 55, 114
1, 9856, Note_off_c, 9, 51, 64
1, 9856, Note_on_c, 0, 60, 61
1, 9857, Note_on_c, 9, 38, 51
1, 9858, Note_off_c, 9, 38, 64
1, 9863, Note_off_c, 0, 60, 64
1, 9885, Note_off_c, 1, 43, 64
1, 9885, Note_off_c, 5, 70, 64
1, 9885, Note_off_c, 7, 70, 64
1, 9886, Note_on_c, 5, 72, 101
1, 9886, Note_on_c, 7, 72, 111
1, 9887, Note_on_c, 9, 51, 112
1, 9887, Note_on_c, 9, 38, 76
1, 9887, Note_on_c, 0, 64, 90
1, 9887, Note_on_c, 0, 67, 80
1, 9888, Note_off_c, 9, 38, 64
1, 9888, Note_off_c, 9, 51, 64
1, 9888, Note_off_c, 2, 55, 64
1, 9888, Note_on_c, 2, 57, 113
1, 9889, Note_on_c, 1, 45, 80
1, 9893, Lyric_t, "in', "
1, 9893, Lyric_t, "\015"
1, 9893, Note_on_c, 3, 69, 118
1, 9895, Note_off_c, 3, 67, 64
1, 9920, Note_off_c, 2, 57, 64
1, 9922, Note_off_c, 5, 72, 64
1, 9922, Note_off_c, 7, 72, 64
1, 9937, Note_off_c, 3, 69, 64
1, 9949, Note_on_c, 5, 62, 97
1, 9949, Note_on_c, 7, 62, 107
1, 9950, Note_on_c, 2, 57, 107
1, 9950, Note_off_c, 5, 62, 64
1, 9950, Note_on_c, 5, 63, 88
1, 9950, Note_off_c, 7, 62, 64
1, 9950, Note_on_c, 7, 63, 98
1, 9951, Note_on_c, 9, 51, 88
1, 9951, Note_on_c, 9, 38, 52
1, 9951, Note_on_c, 0, 60, 64
1, 9952, Note_off_c, 9, 38, 64
1, 9952, Note_off_c, 9, 51, 64
1, 9953, Note_off_c, 0, 67, 64
1, 9958, Note_off_c, 0, 64, 64
1, 9959, Note_off_c, 5, 63, 64
1, 9959, Note_on_c, 5, 64, 88
1, 9959, Note_off_c, 7, 63, 64
1, 9959, Note_on_c, 7, 64, 98
1, 9960, Note_off_c, 0, 60, 64
1, 9981, Note_off_c, 1, 45, 64
1, 9982, Note_off_c, 2, 57, 64
1, 9983, Note_on_c, 1, 46, 78
1, 9984, Note_on_c, 9, 51, 100
1, 9984, Note_on_c, 9, 35, 108
1, 9984, Note_on_c, 9, 38, 75
1, 9985, Note_off_c, 9, 38, 64
1, 9985, Note_off_c, 9, 35, 64
1, 9985, Note_off_c, 9, 51, 64
1, 9985, Note_on_c, 2, 58, 110
1, 9987, Note_on_c, 5, 70, 100
1, 9987, Note_on_c, 7, 70, 110
1, 9992, Note_off_c, 5, 64, 64
1, 9992, Note_off_c, 7, 64, 64
1, 10009, Note_off_c, 5, 70, 64
1, 10009, Note_off_c, 7, 70, 64
1, 10019, Note_on_c, 5, 74, 107
1, 10019, Note_on_c, 7, 74, 117
1, 10040, Lyric_t, "I'll "
1, 10040, Note_on_c, 3, 64, 123
1, 10047, Note_on_c, 9, 51, 88
1, 10047, Note_on_c, 0, 72, 83
1, 10047, Note_on_c, 0, 60, 68
1, 10048, Note_off_c, 9, 51, 64
1, 10048, Note_on_c, 9, 38, 53
1, 10048, Note_off_c, 5, 74, 64
1, 10048, Note_off_c, 7, 74, 64
1, 10049, Note_off_c, 9, 38, 64
1, 10051, Note_on_c, 5, 73, 88
1, 10051, Note_on_c, 7, 73, 98
1, 10054, Note_off_c, 0, 60, 64
1, 10056, Note_off_c, 2, 58, 64
1, 10061, Note_off_c, 0, 72, 64
1, 10079, Note_on_c, 9, 51, 104
1, 10079, Note_off_c, 1, 46, 64
1, 10079, Note_on_c, 0, 72, 118
1, 10079, Note_on_c, 0, 77, 127
1, 10079, Note_on_c, 0, 69, 114
1, 10080, Note_off_c, 9, 51, 64
1, 10080, Note_off_c, 5, 73, 64
1, 10080, Note_off_c, 7, 73, 64
1, 10081, Note_on_c, 9, 38, 74
1, 10081, Note_on_c, 1, 45, 81
1, 10081, Note_on_c, 2, 57, 114
1, 10082, Note_off_c, 9, 38, 64
1, 10082, Note_on_c, 5, 72, 95
1, 10082, Note_on_c, 7, 72, 105
1, 10106, Lyric_t, "tell "
1, 10106, Note_on_c, 3, 67, 121
1, 10108, Note_off_c, 3, 64, 64
1, 10117, Note_off_c, 2, 57, 64
1, 10118, Note_off_c, 0, 77, 64
1, 10118, Note_off_c, 0, 72, 64
1, 10118, Note_off_c, 5, 72, 64
1, 10118, Note_off_c, 7, 72, 64
1, 10119, Note_on_c, 5, 70, 78
1, 10119, Note_on_c, 7, 70, 88
1, 10120, Note_off_c, 0, 69, 64
1, 10142, Note_on_c, 2, 57, 109
1, 10143, Note_on_c, 9, 38, 52
1, 10143, Note_on_c, 0, 72, 74
1, 10143, Note_on_c, 0, 77, 71
1, 10144, Note_off_c, 9, 38, 64
1, 10144, Note_on_c, 9, 51, 93
1, 10144, Note_on_c, 0, 69, 62
1, 10145, Note_off_c, 9, 51, 64
1, 10149, Note_off_c, 5, 70, 64
1, 10149, Note_on_c, 5, 72, 94
1, 10149, Note_off_c, 7, 70, 64
1, 10149, Note_on_c, 7, 72, 104
1, 10159, Note_off_c, 0, 69, 64
1, 10163, Note_off_c, 0, 77, 64
1, 10165, Note_off_c, 0, 72, 64
1, 10174, Note_off_c, 3, 67, 64
1, 10175, Note_off_c, 1, 45, 64
1, 10175, Note_on_c, 2, 55, 116
1, 10176, Lyric_t, "ev"
1, 10176, Note_on_c, 3, 70, 117
1, 10176, Note_on_c, 9, 51, 94
1, 10176, Note_on_c, 9, 35, 108
1, 10176, Note_on_c, 9, 38, 73
1, 10176, Note_off_c, 2, 57, 64
1, 10177, Note_off_c, 9, 38, 64
1, 10177, Note_off_c, 9, 35, 64
1, 10177, Note_off_c, 9, 51, 64
1, 10177, Note_on_c, 0, 76, 67
1, 10177, Note_on_c, 0, 67, 67
1, 10178, Note_on_c, 1, 43, 84
1, 10183, Note_on_c, 5, 70, 62
1, 10183, Note_on_c, 7, 70, 72
1, 10187, Note_off_c, 5, 72, 64
1, 10187, Note_off_c, 7, 72, 64
1, 10206, Note_off_c, 2, 55, 64
1, 10209, Note_off_c, 3, 70, 64
1, 10210, Lyric_t, "ery"
1, 10210, Note_on_c, 3, 70, 118
1, 10214, Note_off_c, 5, 70, 64
1, 10214, Note_on_c, 5, 72, 85
1, 10214, Note_off_c, 7, 70, 64
1, 10214, Note_on_c, 7, 72, 95
1, 10215, Note_off_c, 0, 67, 64
1, 10216, Note_off_c, 0, 76, 64
1, 10237, Note_on_c, 2, 55, 109
1, 10239, Note_on_c, 9, 51, 93
1, 10239, Note_on_c, 0, 72, 75
1, 10240, Note_off_c, 9, 51, 64
1, 10241, Lyric_t, "thing "
1, 10241, Note_on_c, 3, 69, 118
1, 10241, Note_on_c, 9, 38, 52
1, 10241, Note_on_c, 0, 67, 44
1, 10242, Note_off_c, 3, 70, 64
1, 10242, Note_off_c, 9, 38, 64
1, 10243, Note_off_c, 5, 72, 64
1, 10243, Note_off_c, 7, 72, 64
1, 10245, Note_on_c, 5, 70, 91
1, 10245, Note_on_c, 7, 70, 101
1, 10247, Note_off_c, 0, 67, 64
1, 10250, Note_off_c, 0, 72, 64
1, 10269, Note_off_c, 1, 43, 64
1, 10269, Note_off_c, 2, 55, 64
1, 10271, Note_on_c, 9, 51, 100
1, 10271, Note_on_c, 1, 40, 91
1, 10271, Note_on_c, 0, 72, 94
1, 10271, Note_on_c, 0, 67, 83
1, 10271, Note_on_c, 2, 52, 121
1, 10272, Note_off_c, 9, 51, 64
1, 10272, Note_on_c, 9, 38, 72
1, 10273, Note_off_c, 9, 38, 64
1, 10274, Note_off_c, 5, 70, 64
1, 10274, Note_off_c, 7, 70, 64
1, 10275, Note_on_c, 5, 72, 99
1, 10275, Note_on_c, 7, 72, 109
1, 10279, Lyric_t, "I "
1, 10279, Note_on_c, 3, 67, 116
1, 10281, Note_off_c, 3, 69, 64
1, 10305, Note_off_c, 2, 52, 64
1, 10305, Note_off_c, 5, 72, 64
1, 10305, Note_off_c, 7, 72, 64
1, 10319, Note_off_c, 3, 67, 64
1, 10320, Lyric_t, "know. "
1, 10320, Lyric_t, "\015"
1, 10320, Note_on_c, 3, 67, 115
1, 10333, Note_on_c, 2, 52, 113
1, 10335, Note_on_c, 9, 51, 90
1, 10335, Note_on_c, 0, 64, 62
1, 10336, Note_off_c, 9, 51, 64
1, 10336, Note_on_c, 9, 38, 55
1, 10337, Note_off_c, 9, 38, 64
1, 10340, Note_on_c, 5, 55, 72
1, 10340, Note_on_c, 7, 55, 82
1, 10347, Note_off_c, 0, 64, 64
1, 10347, Note_off_c, 0, 67, 64
1, 10355, Note_off_c, 0, 72, 64
1, 10361, Note_off_c, 5, 55, 64
1, 10361, Note_off_c, 7, 55, 64
1, 10366, Note_on_c, 6, 73, 106
1, 10367, Note_on_c, 9, 51, 97
1, 10367, Note_on_c, 9, 35, 107
1, 10367, Note_on_c, 9, 38, 77
1, 10367, Note_on_c, 2, 43, 115
1, 10368, Note_off_c, 9, 38, 64
1, 10368, Note_off_c, 9, 35, 64
1, 10368, Note_off_c, 9, 51, 64
1, 10368, Pitch_bend_c, 6, 7872
1, 10369, Note_off_c, 1, 40, 64
1, 10369, Note_on_c, 1, 31, 84
1, 10369, Pitch_bend_c, 6, 7840
1, 10371, Note_on_c, 5, 59, 59
1, 10371, Note_on_c, 7, 59, 69
1, 10371, Pitch_bend_c, 6, 7808
1, 10374, Note_off_c, 2, 52, 64
1, 10374, Note_on_c, 5, 62, 43
1, 10374, Note_on_c, 7, 62, 53
1, 10374, Pitch_bend_c, 6, 7840
1, 10377, Pitch_bend_c, 6, 11648
1, 10380, Pitch_bend_c, 6, 11680
1, 10383, Pitch_bend_c, 6, 11712
1, 10385, Note_off_c, 3, 67, 64
1, 10386, Pitch_bend_c, 6, 11808
1, 10388, Pitch_bend_c, 6, 11840
1, 10391, Pitch_bend_c, 6, 11904
1, 10394, Pitch_bend_c, 6, 11936
1, 10397, Pitch_bend_c, 6, 11968
1, 10408, Pitch_bend_c, 6, 12000
1, 10417, Pitch_bend_c, 6, 12064
1, 10430, Note_on_c, 9, 38, 55
1, 10430, Pitch_bend_c, 6, 12000
1, 10431, Note_off_c, 9, 38, 64
1, 10431, Note_on_c, 9, 51, 90
1, 10432, Note_off_c, 9, 51, 64
1, 10433, Note_on_c, 0, 60, 84
1, 10439, Note_off_c, 0, 60, 64
1, 10450, Pitch_bend_c, 6, 12064
1, 10453, Note_off_c, 2, 43, 64
1, 10455, Note_off_c, 6, 73, 64
1, 10461, Pitch_bend_c, 6, 8192
1, 10462, Note_on_c, 6, 74, 104
1, 10463, Note_on_c, 9, 51, 96
1, 10463, Note_on_c, 9, 38, 72
1, 10463, Note_on_c, 0, 73, 126
1, 10463, Note_on_c, 0, 79, 127
1, 10463, Note_on_c, 2, 46, 123
1, 10463, Pitch_bend_c, 6, 7872
1, 10464, Note_off_c, 9, 38, 64
1, 10464, Note_off_c, 9, 51, 64
1, 10465, Note_on_c, 1, 35, 84
1, 10465, Pitch_bend_c, 6, 7936
1, 10472, Note_off_c, 1, 31, 64
1, 10483, Note_off_c, 0, 73, 64
1, 10491, Note_off_c, 6, 74, 64
1, 10494, Note_off_c, 0, 79, 64
1, 10494, Note_on_c, 6, 74, 104
1, 10497, Note_on_c, 0, 74, 86
1, 10520, Note_off_c, 2, 46, 64
1, 10523, Note_off_c, 6, 74, 64
1, 10525, Note_on_c, 6, 74, 108
1, 10526, Note_on_c, 9, 38, 53
1, 10526, Note_on_c, 2, 47, 115
1, 10527, Note_off_c, 9, 38, 64
1, 10527, Note_on_c, 9, 51, 86
1, 10528, Note_off_c, 9, 51, 64
1, 10529, Note_on_c, 0, 67, 97
1, 10531, Note_off_c, 0, 74, 64
1, 10556, Note_off_c, 6, 74, 64
1, 10558, Note_on_c, 6, 74, 98
1, 10559, Note_on_c, 9, 51, 96
1, 10560, Note_off_c, 9, 51, 64
1, 10560, Note_on_c, 9, 35, 107
1, 10560, Note_on_c, 9, 38, 70
1, 10561, Note_off_c, 9, 38, 64
1, 10561, Note_off_c, 9, 35, 64
1, 10561, Note_on_c, 0, 74, 118
1, 10562, Note_on_c, 1, 38, 84
1, 10562, Note_off_c, 2, 47, 64
1, 10562, Note_on_c, 2, 50, 113
1, 10566, Note_off_c, 5, 62, 64
1, 10566, Note_off_c, 7, 62, 64
1, 10569, Note_off_c, 5, 59, 64
1, 10569, Note_off_c, 7, 59, 64
1, 10571, Note_off_c, 1, 35, 64
1, 10582, Note_off_c, 0, 74, 64
1, 10587, Note_off_c, 6, 74, 64
1, 10587, Pitch_bend_c, 6, 8192
1, 10588, Note_on_c, 6, 74, 103
1, 10589, Pitch_bend_c, 6, 8096
1, 10590, Pitch_bend_c, 6, 8192
1, 10591, Pitch_bend_c, 6, 8288
1, 10592, Note_off_c, 2, 50, 64
1, 10592, Pitch_bend_c, 6, 8384
1, 10593, Note_on_c, 0, 73, 127
1, 10598, Pitch_bend_c, 6, 8320
1, 10601, Pitch_bend_c, 6, 8288
1, 10604, Pitch_bend_c, 6, 8192
1, 10610, Pitch_bend_c, 6, 8320
1, 10611, Note_off_c, 0, 73, 64
1, 10613, Pitch_bend_c, 6, 8416
1, 10619, Note_on_c, 5, 55, 43
1, 10619, Note_on_c, 7, 55, 53
1, 10620, Note_off_c, 6, 74, 64
1, 10622, Note_on_c, 9, 38, 51
1, 10623, Note_off_c, 9, 38, 64
1, 10623, Note_on_c, 9, 51, 89
1, 10623, Note_on_c, 0, 72, 127
1, 10623, Note_on_c, 6, 74, 101
1, 10624, Note_off_c, 9, 51, 64
1, 10625, Note_on_c, 2, 50, 115
1, 10625, Note_on_c, 5, 59, 16
1, 10625, Note_on_c, 7, 59, 26
1, 10640, Lyric_t, "\012"
1, 10645, Note_off_c, 0, 72, 64
1, 10649, Note_off_c, 5, 59, 64
1, 10649, Note_off_c, 7, 59, 64
1, 10651, Note_off_c, 6, 74, 64
1, 10654, Note_on_c, 9, 38, 74
1, 10654, Note_off_c, 2, 50, 64
1, 10655, Note_off_c, 9, 38, 64
1, 10655, Note_on_c, 9, 51, 97
1, 10655, Note_on_c, 0, 70, 127
1, 10656, Note_off_c, 9, 51, 64
1, 10656, Note_on_c, 6, 74, 107
1, 10657, Note_on_c, 1, 40, 91
1, 10657, Note_on_c, 2, 52, 122
1, 10659, Note_on_c, 5, 60, 68
1, 10659, Note_on_c, 7, 60, 78
1, 10661, Note_on_c, 5, 64, 81
1, 10661, Note_on_c, 7, 64, 91
1, 10664, Note_off_c, 1, 38, 64
1, 10664, Note_off_c, 0, 67, 64
1, 10665, Note_off_c, 5, 55, 64
1, 10665, Note_off_c, 7, 55, 64
1, 10690, Note_off_c, 5, 64, 64
1, 10690, Note_off_c, 7, 64, 64
1, 10691, Note_off_c, 2, 52, 64
1, 10691, Note_off_c, 5, 60, 64
1, 10691, Note_off_c, 7, 60, 64
1, 10693, Pitch_bend_c, 6, 8256
1, 10697, Pitch_bend_c, 6, 8192
1, 10712, Note_off_c, 0, 70, 64
1, 10712, Note_off_c, 6, 74, 64
1, 10718, Note_on_c, 9, 38, 52
1, 10719, Note_off_c, 9, 38, 64
1, 10719, Note_on_c, 9, 51, 93
1, 10720, Note_off_c, 9, 51, 64
1, 10720, Note_on_c, 2, 52, 117
1, 10721, Note_on_c, 0, 70, 117
1, 10724, Note_on_c, 5, 55, 23
1, 10724, Note_on_c, 7, 55, 33
1, 10748, Note_on_c, 6, 70, 106
1, 10752, Note_on_c, 9, 51, 99
1, 10752, Note_on_c, 9, 35, 106
1, 10752, Note_on_c, 9, 38, 74
1, 10752, Pitch_bend_c, 6, 8768
1, 10753, Note_off_c, 9, 38, 64
1, 10753, Note_off_c, 9, 35, 64
1, 10753, Note_off_c, 9, 51, 64
1, 10753, Pitch_bend_c, 6, 8672
1, 10754, Note_off_c, 1, 40, 64
1, 10754, Note_on_c, 1, 43, 91
1, 10754, Note_on_c, 2, 55, 120
1, 10754, Note_on_c, 5, 58, 81
1, 10754, Note_on_c, 7, 58, 91
1, 10756, Note_off_c, 2, 52, 64
1, 10756, Pitch_bend_c, 6, 8608
1, 10759, Note_on_c, 5, 62, 74
1, 10759, Note_on_c, 7, 62, 84
1, 10759, Pitch_bend_c, 6, 8544
1, 10762, Note_off_c, 0, 70, 64
1, 10765, Pitch_bend_c, 6, 8480
1, 10767, Pitch_bend_c, 6, 8448
1, 10770, Pitch_bend_c, 6, 8384
1, 10773, Pitch_bend_c, 6, 8288
1, 10775, Pitch_bend_c, 6, 8320
1, 10777, Note_off_c, 5, 58, 64
1, 10777, Note_on_c, 5, 59, 62
1, 10777, Note_off_c, 7, 58, 64
1, 10777, Note_on_c, 7, 59, 72
1, 10779, Pitch_bend_c, 6, 8288
1, 10782, Pitch_bend_c, 6, 4032
1, 10784, Pitch_bend_c, 6, 4064
1, 10785, Note_on_c, 0, 67, 101
1, 10791, Note_off_c, 2, 55, 64
1, 10799, Pitch_bend_c, 6, 4128
1, 10802, Pitch_bend_c, 6, 4224
1, 10803, Note_off_c, 6, 70, 64
1, 10805, Note_off_c, 0, 67, 64
1, 10813, Pitch_bend_c, 6, 8192
1, 10814, Note_on_c, 9, 38, 52
1, 10814, Note_on_c, 6, 72, 111
1, 10814, Note_on_c, 6, 67, 111
1, 10814, Pitch_bend_c, 6, 8256
1, 10815, Note_off_c, 9, 38, 64
1, 10815, Note_on_c, 9, 51, 94
1, 10815, Pitch_bend_c, 6, 8224
1, 10816, Note_off_c, 9, 51, 64
1, 10817, Note_on_c, 0, 62, 67
1, 10817, Note_on_c, 2, 55, 121
1, 10836, Note_off_c, 0, 62, 64
1, 10846, Note_on_c, 9, 38, 75
1, 10847, Note_off_c, 9, 38, 64
1, 10847, Note_on_c, 9, 51, 106
1, 10847, Note_off_c, 6, 67, 64
1, 10848, Note_off_c, 9, 51, 64
1, 10849, Note_on_c, 1, 40, 90
1, 10849, Note_on_c, 0, 65, 101
1, 10849, Note_on_c, 0, 62, 96
1, 10849, Note_on_c, 6, 70, 114
1, 10851, Note_on_c, 2, 52, 118
1, 10851, Note_off_c, 6, 72, 64
1, 10853, Note_off_c, 2, 55, 64
1, 10856, Note_off_c, 1, 43, 64
1, 10856, Note_off_c, 5, 59, 64
1, 10856, Note_off_c, 5, 62, 64
1, 10856, Note_off_c, 5, 55, 64
1, 10856, Note_off_c, 7, 59, 64
1, 10856, Note_off_c, 7, 62, 64
1, 10856, Note_off_c, 7, 55, 64
1, 10877, Note_off_c, 6, 70, 64
1, 10880, Note_on_c, 6, 69, 91
1, 10888, Note_off_c, 2, 52, 64
1, 10896, Note_off_c, 0, 62, 64
1, 10897, Note_off_c, 0, 65, 64
1, 10909, Note_off_c, 6, 69, 64
1, 10910, Note_on_c, 9, 38, 56
1, 10910, Note_on_c, 6, 62, 112
1, 10911, Note_off_c, 9, 38, 64
1, 10911, Note_on_c, 9, 51, 90
1, 10911, Note_on_c, 0, 62, 110
1, 10911, Note_on_c, 0, 67, 122
1, 10911, Note_on_c, 2, 52, 114
1, 10911, Note_on_c, 5, 59, 59
1, 10911, Note_on_c, 7, 59, 69
1, 10911, Note_on_c, 6, 67, 116
1, 10912, Note_off_c, 9, 51, 64
1, 10913, Note_on_c, 5, 62, 85
1, 10913, Note_on_c, 7, 62, 95
1, 10914, Note_on_c, 5, 67, 76
1, 10914, Note_on_c, 7, 67, 86
1, 10925, Note_off_c, 5, 59, 64
1, 10925, Note_off_c, 7, 59, 64
1, 10926, Note_off_c, 5, 67, 64
1, 10926, Note_off_c, 5, 62, 64
1, 10926, Note_off_c, 7, 67, 64
1, 10926, Note_off_c, 7, 62, 64
1, 10942, Pitch_bend_c, 6, 7872
1, 10943, Note_on_c, 9, 51, 102
1, 10943, Note_on_c, 9, 35, 107
1, 10943, Note_on_c, 9, 38, 76
1, 10944, Note_off_c, 9, 38, 64
1, 10944, Note_off_c, 9, 35, 64
1, 10944, Note_off_c, 9, 51, 64
1, 10945, Note_on_c, 1, 38, 84
1, 10945, Note_on_c, 2, 50, 115
1, 10945, Note_off_c, 6, 67, 64
1, 10946, Note_off_c, 2, 52, 64
1, 10947, Pitch_bend_c, 6, 8192
1, 10948, Note_on_c, 6, 67, 119
1, 10949, Note_off_c, 1, 40, 64
1, 10949, Pitch_bend_c, 6, 8032
1, 10952, Note_off_c, 6, 62, 64
1, 10966, Pitch_bend_c, 6, 8064
1, 10976, Note_off_c, 2, 50, 64
1, 10983, Pitch_bend_c, 6, 8096
1, 10998, Pitch_bend_c, 6, 8064
1, 11003, Pitch_bend_c, 6, 8032
1, 11006, Note_on_c, 2, 50, 111
1, 11006, Pitch_bend_c, 6, 7744
1, 11007, Note_on_c, 9, 38, 109
1, 11008, Lyric_t, "I'm "
1, 11008, Note_on_c, 3, 71, 124
1, 11008, Note_off_c, 9, 38, 64
1, 11008, Note_on_c, 9, 51, 89
1, 11009, Note_off_c, 9, 51, 64
1, 11009, Note_on_c, 5, 55, 30
1, 11009, Note_on_c, 7, 55, 40
1, 11009, Pitch_bend_c, 6, 4000
1, 11012, Pitch_bend_c, 6, 3968
1, 11015, Pitch_bend_c, 6, 3936
1, 11018, Pitch_bend_c, 6, 3872
1, 11022, Note_off_c, 6, 67, 64
1, 11022, Pitch_bend_c, 6, 4000
1, 11034, Pitch_bend_c, 6, 8192
1, 11038, Note_off_c, 2, 50, 64
1, 11039, Note_on_c, 9, 51, 106
1, 11039, Note_on_c, 2, 52, 119
1, 11040, Note_off_c, 9, 51, 64
1, 11040, Note_on_c, 9, 38, 115
1, 11041, Note_off_c, 9, 38, 64
1, 11041, Note_off_c, 1, 38, 64
1, 11041, Note_on_c, 1, 35, 84
1, 11042, Note_on_c, 5, 59, 83
1, 11042, Note_on_c, 7, 59, 93
1, 11043, Note_on_c, 5, 62, 83
1, 11043, Note_on_c, 7, 62, 93
1, 11045, Note_on_c, 5, 67, 26
1, 11045, Note_on_c, 7, 67, 36
1, 11070, Note_off_c, 3, 71, 64
1, 11071, Lyric_t, "gon"
1, 11071, Note_on_c, 3, 71, 118
1, 11073, Note_off_c, 2, 52, 64
1, 11081, Note_off_c, 5, 67, 64
1, 11081, Note_off_c, 7, 67, 64
1, 11082, Note_off_c, 0, 62, 64
1, 11082, Note_off_c, 5, 62, 64
1, 11082, Note_off_c, 7, 62, 64
1, 11085, Note_off_c, 5, 55, 64
1, 11085, Note_off_c, 7, 55, 64
1, 11087, Note_off_c, 5, 59, 64
1, 11087, Note_off_c, 7, 59, 64
1, 11088, Note_off_c, 0, 67, 64
1, 11101, Note_off_c, 3, 71, 64
1, 11102, Lyric_t, "na "
1, 11102, Note_on_c, 3, 71, 105
1, 11103, Note_on_c, 9, 51, 93
1, 11103, Note_on_c, 2, 52, 114
1, 11104, Note_off_c, 9, 51, 64
1, 11105, Note_on_c, 9, 38, 50
1, 11105, Note_on_c, 0, 62, 108
1, 11105, Note_on_c, 0, 69, 122
1, 11106, Note_off_c, 9, 38, 64
1, 11117, Note_off_c, 1, 35, 64
1, 11132, Note_off_c, 3, 71, 64
1, 11134, Lyric_t, "break "
1, 11134, Note_on_c, 3, 69, 120
1, 11134, Note_on_c, 1, 38, 90
1, 11135, Note_on_c, 9, 51, 100
1, 11135, Note_on_c, 9, 35, 107
1, 11136, Note_off_c, 9, 35, 64
1, 11136, Note_off_c, 9, 51, 64
1, 11137, Note_on_c, 9, 38, 76
1, 11137, Note_on_c, 5, 54, 40
1, 11137, Note_on_c, 7, 54, 50
1, 11138, Note_off_c, 9, 38, 64
1, 11138, Note_on_c, 2, 57, 119
1, 11139, Note_on_c, 5, 60, 33
1, 11139, Note_on_c, 7, 60, 43
1, 11140, Note_on_c, 5, 62, 30
1, 11140, Note_on_c, 7, 62, 40
1, 11143, Note_off_c, 2, 52, 64
1, 11186, Note_off_c, 0, 69, 64
1, 11187, Note_off_c, 0, 62, 64
1, 11191, Note_off_c, 3, 69, 64
1, 11194, Lyric_t, "up "
1, 11194, Note_on_c, 3, 69, 118
1, 11199, Note_on_c, 9, 51, 88
1, 11199, Note_on_c, 0, 50, 107
1, 11199, Note_on_c, 0, 57, 102
1, 11200, Note_off_c, 9, 51, 64
1, 11201, Note_on_c, 9, 38, 55
1, 11202, Note_off_c, 9, 38, 64
1, 11209, Note_off_c, 0, 57, 64
1, 11211, Note_off_c, 0, 50, 64
1, 11219, Note_off_c, 1, 38, 64
1, 11220, Note_off_c, 2, 57, 64
1, 11230, Note_on_c, 1, 38, 96
1, 11231, Note_on_c, 9, 51, 104
1, 11231, Note_on_c, 0, 62, 127
1, 11231, Note_on_c, 0, 69, 122
1, 11231, Note_on_c, 2, 53, 127
1, 11232, Note_off_c, 9, 51, 64
1, 11234, Note_on_c, 9, 38, 78
1, 11235, Note_off_c, 9, 38, 64
1, 11255, Note_off_c, 3, 69, 64
1, 11258, Lyric_t, "this "
1, 11258, Note_on_c, 3, 69, 117
1, 11264, Note_on_c, 2, 54, 111
1, 11265, Note_off_c, 2, 53, 64
1, 11284, Note_off_c, 0, 69, 64
1, 11284, Note_off_c, 0, 62, 64
1, 11291, Note_off_c, 2, 54, 64
1, 11294, Note_on_c, 2, 57, 119
1, 11295, Note_on_c, 9, 51, 99
1, 11295, Note_on_c, 9, 38, 53
1, 11295, Note_on_c, 0, 62, 98
1, 11295, Note_on_c, 0, 74, 116
1, 11296, Note_off_c, 9, 38, 64
1, 11296, Note_off_c, 9, 51, 64
1, 11309, Note_off_c, 3, 69, 64
1, 11310, Lyric_t, "sig"
1, 11310, Note_on_c, 3, 69, 115
1, 11322, Note_off_c, 5, 60, 64
1, 11322, Note_off_c, 7, 60, 64
1, 11324, Note_off_c, 2, 57, 64
1, 11324, Note_off_c, 5, 62, 64
1, 11324, Note_off_c, 7, 62, 64
1, 11326, Note_off_c, 1, 38, 64
1, 11326, Note_on_c, 1, 33, 84
1, 11327, Note_on_c, 9, 51, 104
1, 11327, Note_on_c, 9, 35, 107
1, 11327, Note_on_c, 9, 38, 76
1, 11327, Note_on_c, 2, 59, 119
1, 11328, Note_off_c, 9, 38, 64
1, 11328, Note_off_c, 9, 35, 64
1, 11328, Note_off_c, 9, 51, 64
1, 11334, Note_off_c, 5, 54, 64
1, 11334, Note_off_c, 7, 54, 64
1, 11343, Note_off_c, 3, 69, 64
1, 11346, Lyric_t, "ni"
1, 11346, Note_on_c, 3, 69, 115
1, 11356, Note_off_c, 2, 59, 64
1, 11359, Note_on_c, 2, 57, 91
1, 11381, Lyric_t, "fy"
1, 11381, Note_on_c, 3, 71, 115
1, 11385, Note_off_c, 3, 69, 64
1, 11386, Note_off_c, 2, 57, 64
1, 11390, Note_on_c, 9, 38, 49
1, 11390, Note_on_c, 2, 59, 111
1, 11391, Note_off_c, 9, 38, 64
1, 11391, Note_on_c, 9, 51, 100
1, 11391, Note_on_c, 5, 60, 63
1, 11391, Note_on_c, 7, 60, 73
1, 11392, Note_off_c, 9, 51, 64
1, 11392, Note_off_c, 0, 62, 64
1, 11392, Note_on_c, 5, 64, 83
1, 11392, Note_on_c, 7, 64, 93
1, 11393, Note_on_c, 0, 50, 84
1, 11393, Note_on_c, 0, 57, 83
1, 11393, Note_on_c, 5, 69, 79
1, 11393, Note_on_c, 7, 69, 89
1, 11405, Note_off_c, 0, 74, 64
1, 11406, Note_off_c, 0, 57, 64
1, 11408, Note_off_c, 0, 50, 64
1, 11415, Note_off_c, 3, 71, 64
1, 11416, Lyric_t, "ing, "
1, 11416, Lyric_t, "\015"
1, 11416, Note_on_c, 3, 71, 115
1, 11419, Note_off_c, 2, 59, 64
1, 11421, Note_on_c, 1, 38, 86
1, 11423, Note_on_c, 9, 51, 106
1, 11423, Note_on_c, 9, 38, 75
1, 11423, Note_on_c, 2, 57, 111
1, 11424, Note_off_c, 9, 38, 64
1, 11424, Note_off_c, 9, 51, 64
1, 11424, Note_on_c, 0, 69, 94
1, 11424, Note_on_c, 0, 62, 104
1, 11426, Note_off_c, 1, 33, 64
1, 11450, Note_off_c, 2, 57, 64
1, 11455, Note_on_c, 2, 59, 111
1, 11462, Note_off_c, 0, 62, 64
1, 11470, Note_off_c, 0, 69, 64
1, 11475, Note_off_c, 5, 60, 64
1, 11475, Note_off_c, 7, 60, 64
1, 11477, Note_off_c, 5, 69, 64
1, 11477, Note_off_c, 7, 69, 64
1, 11480, Note_off_c, 2, 59, 64
1, 11481, Note_off_c, 5, 64, 64
1, 11481, Note_off_c, 7, 64, 64
1, 11486, Note_on_c, 2, 57, 111
1, 11487, Note_on_c, 9, 51, 100
1, 11487, Note_on_c, 9, 38, 55
1, 11487, Note_on_c, 0, 57, 80
1, 11487, Note_on_c, 0, 69, 80
1, 11488, Note_off_c, 9, 38, 64
1, 11488, Note_off_c, 9, 51, 64
1, 11498, Note_off_c, 0, 57, 64
1, 11499, Note_off_c, 0, 69, 64
1, 11509, Note_off_c, 3, 71, 64
1, 11513, Note_off_c, 1, 38, 64
1, 11517, Note_on_c, 1, 36, 90
1, 11519, Note_on_c, 9, 51, 106
1, 11519, Note_on_c, 9, 35, 106
1, 11519, Note_on_c, 9, 38, 75
1, 11519, Note_on_c, 0, 48, 86
1, 11520, Note_off_c, 9, 38, 64
1, 11520, Note_off_c, 9, 35, 64
1, 11520, Note_off_c, 9, 51, 64
1, 11520, Note_on_c, 2, 48, 119
1, 11520, Note_on_c, 5, 52, 23
1, 11520, Note_on_c, 7, 52, 33
1, 11521, Note_on_c, 5, 58, 50
1, 11521, Note_on_c, 7, 58, 60
1, 11522, Note_off_c, 2, 57, 64
1, 11522, Note_on_c, 5, 62, 68
1, 11522, Note_on_c, 7, 62, 78
1, 11523, Note_on_c, 5, 67, 38
1, 11523, Note_on_c, 7, 67, 48
1, 11551, Note_on_c, 0, 60, 108
1, 11551, Note_on_c, 0, 72, 114
1, 11553, Note_off_c, 0, 48, 64
1, 11564, Note_off_c, 2, 48, 64
1, 11571, Note_off_c, 0, 60, 64
1, 11575, Note_off_c, 0, 72, 64
1, 11582, Note_on_c, 9, 38, 51
1, 11583, Note_off_c, 9, 38, 64
1, 11583, Note_on_c, 9, 51, 92
1, 11584, Note_off_c, 9, 51, 64
1, 11585, Note_on_c, 0, 48, 87
1, 11585, Note_on_c, 0, 55, 97
1, 11594, Note_off_c, 0, 48, 64
1, 11595, Note_off_c, 0, 55, 64
1, 11606, Note_off_c, 1, 36, 64
1, 11614, Note_on_c, 9, 38, 76
1, 11614, Note_on_c, 1, 36, 91
1, 11614, Note_on_c, 2, 51, 127
1, 11615, Note_off_c, 9, 38, 64
1, 11615, Note_on_c, 9, 51, 106
1, 11615, Note_on_c, 0, 60, 124
1, 11615, Note_on_c, 0, 72, 127
1, 11616, Note_off_c, 9, 51, 64
1, 11618, Lyric_t, "some"
1, 11618, Note_on_c, 3, 70, 127
1, 11643, Note_off_c, 2, 51, 64
1, 11645, Note_on_c, 2, 52, 113
1, 11666, Note_off_c, 0, 60, 64
1, 11668, Note_off_c, 0, 72, 64
1, 11677, Note_on_c, 9, 38, 56
1, 11678, Note_off_c, 9, 38, 64
1, 11678, Note_off_c, 2, 52, 64
1, 11678, Note_on_c, 2, 55, 117
1, 11679, Note_on_c, 0, 72, 74
1, 11679, Note_on_c, 0, 60, 78
1, 11680, Note_on_c, 9, 51, 97
1, 11681, Note_off_c, 9, 51, 64
1, 11708, Note_off_c, 0, 60, 64
1, 11709, Note_off_c, 3, 70, 64
1, 11709, Note_off_c, 2, 55, 64
1, 11710, Note_on_c, 9, 38, 79
1, 11711, Note_off_c, 9, 38, 64
1, 11711, Note_on_c, 1, 34, 90
1, 11711, Note_on_c, 2, 57, 119
1, 11712, Lyric_t, "bod"
1, 11712, Note_on_c, 3, 67, 115
1, 11712, Note_on_c, 9, 51, 94
1, 11712, Note_on_c, 9, 35, 106
1, 11713, Note_off_c, 9, 35, 64
1, 11713, Note_off_c, 9, 51, 64
1, 11713, Note_on_c, 0, 67, 67
1, 11714, Note_on_c, 0, 60, 53
1, 11715, Note_off_c, 0, 72, 64
1, 11720, Note_off_c, 1, 36, 64
1, 11735, Note_off_c, 0, 60, 64
1, 11735, Note_off_c, 2, 57, 64
1, 11737, Note_off_c, 0, 67, 64
1, 11742, Note_on_c, 2, 55, 100
1, 11771, Note_off_c, 2, 55, 64
1, 11774, Note_on_c, 9, 38, 56
1, 11774, Note_on_c, 2, 57, 109
1, 11775, Note_off_c, 9, 38, 64
1, 11775, Note_on_c, 9, 51, 96
1, 11776, Note_off_c, 3, 67, 64
1, 11776, Note_off_c, 9, 51, 64
1, 11777, Note_off_c, 5, 52, 64
1, 11777, Note_off_c, 7, 52, 64
1, 11778, Lyric_t, "y's "
1, 11778, Note_on_c, 3, 67, 116
1, 11779, Note_off_c, 5, 58, 64
1, 11779, Note_on_c, 5, 52, 44
1, 11779, Note_off_c, 7, 58, 64
1, 11779, Note_on_c, 7, 52, 54
1, 11801, Note_off_c, 1, 34, 64
1, 11801, Note_off_c, 2, 57, 64
1, 11802, Note_off_c, 5, 67, 64
1, 11802, Note_off_c, 7, 67, 64
1, 11805, Note_on_c, 2, 55, 115
1, 11806, Note_on_c, 1, 33, 88
1, 11807, Note_on_c, 9, 51, 104
1, 11807, Note_on_c, 9, 38, 75
1, 11807, Note_on_c, 0, 60, 69
1, 11807, Note_on_c, 0, 67, 70
1, 11808, Note_off_c, 9, 38, 64
1, 11808, Note_off_c, 9, 51, 64
1, 11808, Note_off_c, 5, 62, 64
1, 11808, Note_off_c, 7, 62, 64
1, 11809, Lyric_t, "got "
1, 11809, Note_on_c, 3, 70, 118
1, 11810, Note_on_c, 5, 62, 81
1, 11810, Note_on_c, 7, 62, 91
1, 11811, Note_on_c, 5, 58, 56
1, 11811, Note_on_c, 7, 58, 66
1, 11812, Note_on_c, 5, 67, 61
1, 11812, Note_on_c, 7, 67, 71
1, 11816, Note_off_c, 3, 67, 64
1, 11831, Note_off_c, 0, 67, 64
1, 11835, Note_off_c, 0, 60, 64
1, 11835, Note_off_c, 2, 55, 64
1, 11838, Note_on_c, 2, 53, 109
1, 11858, Note_off_c, 5, 67, 64
1, 11858, Note_off_c, 7, 67, 64
1, 11860, Note_off_c, 5, 58, 64
1, 11860, Note_off_c, 7, 58, 64
1, 11863, Note_off_c, 3, 70, 64
1, 11864, Note_off_c, 5, 62, 64
1, 11864, Note_off_c, 7, 62, 64
1, 11866, Note_off_c, 5, 52, 64
1, 11866, Note_off_c, 7, 52, 64
1, 11868, Lyric_t, "to "
1, 11868, Note_on_c, 3, 67, 114
1, 11868, Note_off_c, 2, 53, 64
1, 11869, Note_on_c, 2, 55, 111
1, 11870, Note_on_c, 9, 38, 53
1, 11871, Note_off_c, 9, 38, 64
1, 11871, Note_on_c, 9, 51, 97
1, 11872, Note_off_c, 9, 51, 64
1, 11880, Note_off_c, 1, 33, 64
1, 11897, Note_off_c, 3, 67, 64
1, 11900, Lyric_t, "go. "
1, 11900, Lyric_t, "\015"
1, 11900, Note_on_c, 3, 67, 118
1, 11901, Note_on_c, 1, 31, 95
1, 11902, Note_off_c, 2, 55, 64
1, 11903, Note_on_c, 9, 51, 108
1, 11903, Note_on_c, 9, 35, 106
1, 11903, Note_on_c, 9, 38, 74
1, 11904, Note_off_c, 9, 38, 64
1, 11904, Note_off_c, 9, 35, 64
1, 11904, Note_off_c, 9, 51, 64
1, 11904, Note_on_c, 2, 43, 109
1, 11905, Note_on_c, 5, 59, 54
1, 11905, Note_on_c, 7, 59, 64
1, 11906, Note_on_c, 5, 67, 16
1, 11906, Note_on_c, 7, 67, 26
1, 11907, Note_on_c, 5, 62, 76
1, 11907, Note_on_c, 7, 62, 86
1, 11954, Note_off_c, 5, 67, 64
1, 11954, Note_off_c, 7, 67, 64
1, 11957, Note_off_c, 5, 62, 64
1, 11957, Note_off_c, 5, 59, 64
1, 11957, Note_off_c, 7, 62, 64
1, 11957, Note_off_c, 7, 59, 64
1, 11964, Note_off_c, 2, 43, 64
1, 11967, Note_on_c, 9, 51, 96
1, 11967, Note_on_c, 9, 38, 104
1, 11967, Note_on_c, 0, 43, 112
1, 11967, Note_on_c, 0, 67, 101
1, 11967, Note_on_c, 0, 62, 90
1, 11968, Note_off_c, 9, 38, 64
1, 11968, Note_off_c, 9, 51, 64
1, 11992, Note_off_c, 0, 62, 64
1, 11993, Note_off_c, 0, 43, 64
1, 11996, Note_off_c, 0, 67, 64
1, 11999, Note_on_c, 9, 51, 102
1, 11999, Note_on_c, 9, 38, 114
1, 11999, Note_on_c, 1, 35, 91
1, 11999, Note_on_c, 0, 71, 104
1, 11999, Note_on_c, 0, 47, 90
1, 11999, Note_on_c, 0, 62, 75
1, 11999, Note_on_c, 2, 55, 114
1, 12000, Note_off_c, 9, 38, 64
1, 12000, Note_off_c, 9, 51, 64
1, 12000, Note_on_c, 5, 55, 26
1, 12000, Note_on_c, 7, 55, 36
1, 12003, Note_on_c, 5, 59, 40
1, 12003, Note_on_c, 7, 59, 50
1, 12004, Note_off_c, 1, 31, 64
1, 12006, Note_on_c, 5, 62, 54
1, 12006, Note_on_c, 7, 62, 64
1, 12017, Note_off_c, 3, 67, 64
1, 12025, Note_off_c, 0, 47, 64
1, 12043, Note_off_c, 0, 62, 64
1, 12044, Note_off_c, 0, 71, 64
1, 12053, Note_off_c, 2, 55, 64
1, 12056, Note_on_c, 6, 67, 106
1, 12056, Pitch_bend_c, 6, 8448
1, 12061, Note_on_c, 2, 55, 107
1, 12063, Note_on_c, 9, 38, 53
1, 12063, Note_on_c, 0, 47, 94
1, 12063, Note_on_c, 0, 71, 90
1, 12063, Note_on_c, 0, 62, 77
1, 12064, Note_off_c, 9, 38, 64
1, 12065, Note_on_c, 9, 51, 102
1, 12066, Note_off_c, 9, 51, 64
1, 12077, Note_off_c, 0, 62, 64
1, 12082, Note_off_c, 0, 71, 64
1, 12085, Note_off_c, 0, 47, 64
1, 12089, Note_off_c, 2, 55, 64
1, 12091, Note_off_c, 6, 67, 64
1, 12094, Note_on_c, 2, 53, 115
1, 12094, Pitch_bend_c, 6, 8192
1, 12095, Note_on_c, 9, 51, 106
1, 12095, Note_on_c, 9, 38, 74
1, 12095, Note_on_c, 0, 72, 122
1, 12095, Note_on_c, 0, 48, 112
1, 12095, Note_on_c, 0, 64, 110
1, 12096, Note_off_c, 9, 38, 64
1, 12096, Note_off_c, 9, 51, 64
1, 12096, Note_on_c, 6, 66, 105
1, 12096, Pitch_bend_c, 6, 8672
1, 12097, Note_on_c, 9, 35, 107
1, 12097, Note_on_c, 1, 38, 90
1, 12098, Note_off_c, 9, 35, 64
1, 12102, Note_off_c, 1, 35, 64
1, 12102, Pitch_bend_c, 6, 8640
1, 12104, Pitch_bend_c, 6, 8608
1, 12107, Pitch_bend_c, 6, 8480
1, 12110, Pitch_bend_c, 6, 8352
1, 12113, Pitch_bend_c, 6, 11968
1, 12116, Pitch_bend_c, 6, 12064
1, 12119, Pitch_bend_c, 6, 12128
1, 12122, Pitch_bend_c, 6, 12224
1, 12124, Note_off_c, 2, 53, 64
1, 12124, Pitch_bend_c, 6, 12288
1, 12125, Note_on_c, 2, 50, 103
1, 12127, Pitch_bend_c, 6, 12320
1, 12130, Pitch_bend_c, 6, 12352
1, 12135, Note_off_c, 0, 48, 64
1, 12136, Note_off_c, 0, 64, 64
1, 12138, Note_off_c, 0, 72, 64
1, 12150, Note_off_c, 2, 50, 64
1, 12156, Note_off_c, 6, 66, 64
1, 12157, Note_on_c, 2, 49, 109
1, 12158, Note_off_c, 5, 59, 64
1, 12158, Note_off_c, 7, 59, 64
1, 12159, Note_on_c, 0, 48, 94
1, 12159, Note_on_c, 0, 72, 98
1, 12160, Note_on_c, 9, 51, 108
1, 12160, Note_on_c, 9, 38, 53
1, 12160, Pitch_bend_c, 6, 8192
1, 12161, Note_off_c, 9, 38, 64
1, 12161, Note_off_c, 9, 51, 64
1, 12161, Note_on_c, 6, 67, 102
1, 12162, Pitch_bend_c, 6, 8352
1, 12176, Note_off_c, 0, 48, 64
1, 12179, Note_off_c, 0, 72, 64
1, 12184, Note_off_c, 1, 38, 64
1, 12184, Note_off_c, 2, 49, 64
1, 12184, Pitch_bend_c, 6, 8416
1, 12187, Pitch_bend_c, 6, 8448
1, 12189, Note_off_c, 6, 67, 64
1, 12190, Note_on_c, 2, 48, 112
1, 12190, Note_off_c, 5, 62, 64
1, 12190, Note_off_c, 7, 62, 64
1, 12191, Note_on_c, 1, 35, 88
1, 12191, Note_on_c, 0, 73, 120
1, 12191, Note_on_c, 5, 62, 61
1, 12191, Note_on_c, 7, 62, 71
1, 12192, Note_on_c, 9, 51, 108
1, 12192, Note_on_c, 0, 49, 94
1, 12192, Pitch_bend_c, 6, 8192
1, 12193, Note_off_c, 9, 51, 64
1, 12193, Note_on_c, 9, 38, 72
1, 12193, Note_on_c, 5, 59, 44
1, 12193, Note_on_c, 7, 59, 54
1, 12194, Note_off_c, 9, 38, 64
1, 12194, Note_on_c, 6, 66, 106
1, 12200, Pitch_bend_c, 6, 8512
1, 12206, Pitch_bend_c, 6, 8672
1, 12208, Pitch_bend_c, 6, 8768
1, 12211, Pitch_bend_c, 6, 12288
1, 12216, Note_off_c, 2, 48, 64
1, 12217, Pitch_bend_c, 6, 12320
1, 12220, Pitch_bend_c, 6, 12352
1, 12222, Note_on_c, 2, 46, 104
1, 12223, Pitch_bend_c, 6, 12384
1, 12225, Pitch_bend_c, 6, 12416
1, 12231, Pitch_bend_c, 6, 12384
1, 12233, Note_off_c, 0, 49, 64
1, 12234, Pitch_bend_c, 6, 12416
1, 12239, Note_off_c, 0, 73, 64
1, 12248, Note_off_c, 6, 66, 64
1, 12252, Note_off_c, 2, 46, 64
1, 12253, Note_on_c, 2, 50, 113
1, 12253, Pitch_bend_c, 6, 8192
1, 12254, Note_on_c, 6, 67, 99
1, 12255, Note_on_c, 9, 51, 104
1, 12255, Note_on_c, 0, 49, 92
1, 12255, Note_on_c, 0, 73, 101
1, 12255, Note_off_c, 5, 55, 64
1, 12255, Note_off_c, 7, 55, 64
1, 12255, Pitch_bend_c, 6, 8256
1, 12256, Note_off_c, 9, 51, 64
1, 12257, Note_on_c, 5, 55, 55
1, 12257, Note_on_c, 7, 55, 65
1, 12257, Pitch_bend_c, 6, 8288
1, 12259, Note_off_c, 5, 59, 64
1, 12259, Note_off_c, 7, 59, 64
1, 12260, Pitch_bend_c, 6, 8256
1, 12263, Pitch_bend_c, 6, 8288
1, 12271, Pitch_bend_c, 6, 8384
1, 12274, Pitch_bend_c, 6, 8448
1, 12279, Note_off_c, 0, 73, 64
1, 12279, Note_off_c, 6, 67, 64
1, 12280, Note_off_c, 0, 49, 64
1, 12283, Note_off_c, 1, 35, 64
1, 12283, Note_on_c, 6, 66, 106
1, 12285, Note_on_c, 1, 31, 85
1, 12287, Note_off_c, 2, 50, 64
1, 12287, Note_on_c, 2, 43, 113
1, 12288, Note_on_c, 9, 51, 106
1, 12288, Note_on_c, 0, 50, 87
1, 12289, Note_off_c, 9, 51, 64
1, 12289, Note_on_c, 9, 35, 105
1, 12289, Note_on_c, 9, 38, 76
1, 12289, Note_on_c, 0, 74, 102
1, 12290, Note_off_c, 9, 38, 64
1, 12290, Note_off_c, 9, 35, 64
1, 12290, Note_off_c, 5, 62, 64
1, 12290, Note_on_c, 5, 59, 61
1, 12290, Note_off_c, 7, 62, 64
1, 12290, Note_on_c, 7, 59, 71
1, 12291, Note_on_c, 5, 62, 56
1, 12291, Note_on_c, 7, 62, 66
1, 12293, Pitch_bend_c, 6, 8576
1, 12296, Pitch_bend_c, 6, 8704
1, 12299, Pitch_bend_c, 6, 12224
1, 12301, Pitch_bend_c, 6, 12256
1, 12305, Pitch_bend_c, 6, 12288
1, 12317, Note_off_c, 5, 62, 64
1, 12317, Note_off_c, 7, 62, 64
1, 12318, Note_off_c, 5, 59, 64
1, 12318, Note_off_c, 7, 59, 64
1, 12319, Pitch_bend_c, 6, 12320
1, 12320, Note_off_c, 5, 55, 64
1, 12320, Note_off_c, 7, 55, 64
1, 12321, Note_off_c, 0, 50, 64
1, 12322, Pitch_bend_c, 6, 12352
1, 12330, Pitch_bend_c, 6, 12320
1, 12333, Pitch_bend_c, 6, 12288
1, 12334, Note_off_c, 0, 74, 64
1, 12336, Pitch_bend_c, 6, 12224
1, 12340, Pitch_bend_c, 6, 12192
1, 12342, Pitch_bend_c, 6, 12224
1, 12344, Note_on_c, 9, 38, 29
1, 12345, Note_off_c, 9, 38, 64
1, 12345, Pitch_bend_c, 6, 12288
1, 12348, Note_off_c, 2, 43, 64
1, 12348, Pitch_bend_c, 6, 12352
1, 12350, Note_on_c, 2, 46, 103
1, 12351, Pitch_bend_c, 6, 12384
1, 12352, Note_on_c, 9, 38, 36
1, 12353, Note_off_c, 9, 38, 64
1, 12353, Note_on_c, 0, 60, 100
1, 12353, Note_on_c, 0, 48, 83
1, 12354, Note_on_c, 5, 45, 19
1, 12354, Note_on_c, 7, 45, 29
1, 12364, Note_on_c, 9, 38, 45
1, 12365, Note_off_c, 9, 38, 64
1, 12369, Note_off_c, 5, 45, 64
1, 12369, Note_off_c, 7, 45, 64
1, 12372, Note_off_c, 0, 60, 64
1, 12373, Note_on_c, 9, 38, 59
1, 12374, Note_off_c, 9, 38, 64
1, 12374, Note_off_c, 0, 48, 64
1, 12374, Pitch_bend_c, 6, 12416
1, 12376, Pitch_bend_c, 6, 12448
1, 12378, Note_off_c, 2, 46, 64
1, 12381, Note_on_c, 1, 36, 92
1, 12381, Note_on_c, 2, 47, 114
1, 12383, Note_off_c, 1, 31, 64
1, 12383, Note_off_c, 6, 66, 64
1, 12383, Pitch_bend_c, 6, 8192
1, 12384, Note_on_c, 9, 38, 91
1, 12384, Note_on_c, 6, 62, 83
1, 12384, Pitch_bend_c, 6, 8544
1, 12385, Note_off_c, 9, 38, 64
1, 12385, Note_on_c, 0, 61, 127
1, 12385, Note_on_c, 5, 50, 40
1, 12385, Note_on_c, 7, 50, 50
1, 12386, Note_on_c, 0, 49, 107
1, 12386, Note_on_c, 5, 54, 46
1, 12386, Note_on_c, 7, 54, 56
1, 12389, Note_on_c, 5, 60, 26
1, 12389, Note_on_c, 7, 60, 36
1, 12404, Note_off_c, 5, 60, 64
1, 12404, Note_off_c, 7, 60, 64
1, 12408, Note_off_c, 2, 47, 64
1, 12413, Note_on_c, 2, 48, 106
1, 12413, Pitch_bend_c, 6, 8512
1, 12414, Note_off_c, 0, 49, 64
1, 12414, Note_off_c, 5, 50, 64
1, 12414, Note_off_c, 7, 50, 64
1, 12416, Note_off_c, 5, 54, 64
1, 12416, Note_off_c, 7, 54, 64
1, 12425, Pitch_bend_c, 6, 8544
1, 12426, Note_off_c, 0, 61, 64
1, 12438, Note_off_c, 2, 48, 64
1, 12439, Pitch_bend_c, 6, 8480
1, 12441, Note_off_c, 6, 62, 64
1, 12441, Pitch_bend_c, 6, 8576
1, 12443, Pitch_bend_c, 6, 8192
1, 12444, Note_on_c, 2, 49, 113
1, 12444, Note_on_c, 6, 62, 114
1, 12447, Note_on_c, 0, 50, 116
1, 12447, Note_on_c, 0, 62, 122
1, 12448, Note_on_c, 5, 50, 21
1, 12448, Note_on_c, 7, 50, 31
1, 12450, Note_on_c, 5, 54, 62
1, 12450, Note_on_c, 7, 54, 72
1, 12451, Note_on_c, 9, 38, 112
1, 12451, Note_on_c, 5, 60, 70
1, 12451, Note_on_c, 7, 60, 80
1, 12452, Note_off_c, 9, 38, 64
1, 12467, Pitch_bend_c, 6, 8576
1, 12473, Note_off_c, 2, 49, 64
1, 12473, Pitch_bend_c, 6, 8544
1, 12476, Pitch_bend_c, 6, 8480
1, 12477, Note_on_c, 2, 50, 114
1, 12478, Note_on_c, 1, 38, 86
1, 12480, Note_off_c, 1, 36, 64
1, 12481, Note_on_c, 9, 35, 107
1, 12481, Pitch_bend_c, 6, 8448
1, 12482, Note_off_c, 9, 35, 64
1, 12484, Pitch_bend_c, 6, 8416
1, 12487, Pitch_bend_c, 6, 8448
1, 12493, Pitch_bend_c, 6, 8480
1, 12495, Pitch_bend_c, 6, 8448
1, 12501, Pitch_bend_c, 6, 8480
1, 12504, Pitch_bend_c, 6, 8512
1, 12507, Note_off_c, 2, 50, 64
1, 12507, Pitch_bend_c, 6, 8544
1, 12510, Note_on_c, 2, 50, 97
1, 12510, Pitch_bend_c, 6, 8576
1, 12522, Pitch_bend_c, 6, 8544
1, 12525, Pitch_bend_c, 6, 8512
1, 12536, Pitch_bend_c, 6, 8544
1, 12539, Note_off_c, 2, 50, 64
1, 12539, Pitch_bend_c, 6, 8480
1, 12542, Note_on_c, 2, 50, 105
1, 12542, Pitch_bend_c, 6, 5920
1, 12543, Note_on_c, 9, 38, 77
1, 12544, Note_off_c, 9, 38, 64
1, 12544, Note_on_c, 9, 51, 97
1, 12545, Note_off_c, 9, 51, 64
1, 12545, Pitch_bend_c, 6, 5504
1, 12546, Note_off_c, 0, 62, 64
1, 12548, Pitch_bend_c, 6, 5120
1, 12550, Pitch_bend_c, 6, 4736
1, 12554, Note_off_c, 0, 50, 64
1, 12554, Pitch_bend_c, 6, 416
1, 12557, Pitch_bend_c, 6, 352
1, 12559, Pitch_bend_c, 6, 256
1, 12562, Pitch_bend_c, 6, 160
1, 12563, Note_off_c, 6, 62, 64
1, 12568, Note_off_c, 1, 38, 64
1, 12573, Note_off_c, 2, 50, 64
1, 12574, Note_on_c, 2, 50, 121
1, 12575, Note_on_c, 9, 38, 93
1, 12576, Note_off_c, 9, 38, 64
1, 12576, Note_on_c, 1, 38, 92
1, 12577, Note_on_c, 9, 51, 104
1, 12578, Note_off_c, 9, 51, 64
1, 12605, Note_off_c, 2, 50, 64
1, 12607, Note_on_c, 2, 50, 103
1, 12631, Note_off_c, 5, 60, 64
1, 12631, Note_off_c, 7, 60, 64
1, 12632, Note_off_c, 5, 54, 64
1, 12632, Note_off_c, 7, 54, 64
1, 12633, Note_off_c, 5, 50, 64
1, 12633, Note_off_c, 7, 50, 64
1, 12634, Note_on_c, 5, 55, 49
1, 12634, Note_on_c, 7, 55, 59
1, 12636, Note_off_c, 2, 50, 64
1, 12637, Note_on_c, 9, 38, 105
1, 12638, Note_off_c, 9, 38, 64
1, 12638, Note_on_c, 5, 59, 40
1, 12638, Note_on_c, 7, 59, 50
1, 12639, Note_on_c, 2, 50, 100
1, 12640, Note_off_c, 1, 38, 64
1, 12641, Note_on_c, 9, 51, 99
1, 12642, Note_off_c, 9, 51, 64
1, 12669, Note_off_c, 2, 50, 64
1, 12670, Note_on_c, 1, 31, 91
1, 12671, Note_on_c, 9, 35, 105
1, 12672, Note_off_c, 9, 35, 64
1, 12672, Note_on_c, 9, 49, 104
1, 12672, Note_on_c, 6, 66, 124
1, 12672, Pitch_bend_c, 6, 8512
1, 12673, Note_off_c, 9, 49, 64
1, 12673, Note_on_c, 0, 55, 98
1, 12673, Note_on_c, 0, 62, 101
1, 12673, Note_on_c, 0, 67, 102
1, 12673, Note_on_c, 0, 74, 94
1, 12673, Note_on_c, 0, 79, 105
1, 12673, Note_on_c, 2, 43, 111
1, 12675, Note_on_c, 5, 62, 37
1, 12675, Note_on_c, 7, 62, 47
1, 12678, Pitch_bend_c, 6, 8480
1, 12683, Pitch_bend_c, 6, 12544
1, 12686, Pitch_bend_c, 6, 12576
1, 12702, Pitch_bend_c, 6, 12544
1, 12707, Pitch_bend_c, 6, 12512
1, 12710, Pitch_bend_c, 6, 12480
1, 12716, Note_off_c, 2, 43, 64
1, 12719, Pitch_bend_c, 6, 12512
1, 12724, Pitch_bend_c, 6, 12544
1, 12729, Note_off_c, 6, 66, 64
1, 12733, Pitch_bend_c, 6, 8192
1, 12734, Note_on_c, 6, 67, 115
1, 12735, Note_on_c, 2, 43, 105
1, 12737, Note_on_c, 9, 51, 96
1, 12738, Note_off_c, 9, 51, 64
1, 12763, Note_off_c, 6, 67, 64
1, 12766, Note_on_c, 1, 35, 85
1, 12767, Note_on_c, 2, 47, 113
1, 12767, Note_off_c, 5, 59, 64
1, 12767, Note_off_c, 7, 59, 64
1, 12768, Note_on_c, 9, 51, 108
1, 12768, Note_off_c, 2, 43, 64
1, 12768, Note_on_c, 5, 59, 75
1, 12768, Note_on_c, 7, 59, 85
1, 12769, Note_off_c, 9, 51, 64
1, 12769, Note_on_c, 9, 38, 124
1, 12769, Note_off_c, 5, 62, 64
1, 12769, Note_off_c, 7, 62, 64
1, 12769, Note_on_c, 6, 66, 126
1, 12769, Pitch_bend_c, 6, 8352
1, 12770, Note_off_c, 9, 38, 64
1, 12770, Note_on_c, 5, 62, 77
1, 12770, Note_on_c, 7, 62, 87
1, 12773, Note_off_c, 1, 31, 64
1, 12779, Pitch_bend_c, 6, 12288
1, 12781, Pitch_bend_c, 6, 12320
1, 12784, Pitch_bend_c, 6, 12352
1, 12787, Pitch_bend_c, 6, 12384
1, 12790, Pitch_bend_c, 6, 12416
1, 12793, Pitch_bend_c, 6, 12448
1, 12796, Pitch_bend_c, 6, 12416
1, 12804, Pitch_bend_c, 6, 12384
1, 12809, Note_off_c, 2, 47, 64
1, 12813, Pitch_bend_c, 6, 12352
1, 12818, Note_off_c, 0, 67, 64
1, 12821, Note_off_c, 0, 79, 64
1, 12822, Note_off_c, 0, 74, 64
1, 12824, Pitch_bend_c, 6, 12544
1, 12826, Note_off_c, 6, 66, 64
1, 12830, Note_on_c, 2, 47, 111
1, 12832, Pitch_bend_c, 6, 8192
1, 12833, Note_on_c, 9, 51, 99
1, 12833, Note_on_c, 0, 79, 101
1, 12833, Note_on_c, 0, 74, 97
1, 12833, Note_on_c, 0, 67, 93
1, 12833, Note_on_c, 6, 67, 111
1, 12833, Pitch_bend_c, 6, 8256
1, 12834, Note_off_c, 9, 51, 64
1, 12834, Note_off_c, 5, 55, 64
1, 12834, Note_off_c, 7, 55, 64
1, 12835, Note_on_c, 5, 55, 46
1, 12835, Note_on_c, 7, 55, 56
1, 12844, Note_off_c, 0, 74, 64
1, 12844, Note_off_c, 0, 62, 64
1, 12844, Note_off_c, 0, 55, 64
1, 12846, Note_off_c, 0, 79, 64
1, 12847, Note_off_c, 0, 67, 64
1, 12851, Pitch_bend_c, 6, 7808
1, 12854, Note_off_c, 6, 67, 64
1, 12854, Pitch_bend_c, 6, 8224
1, 12857, Note_off_c, 5, 55, 64
1, 12857, Note_off_c, 7, 55, 64
1, 12859, Note_off_c, 5, 62, 64
1, 12859, Note_off_c, 7, 62, 64
1, 12860, Note_off_c, 5, 59, 64
1, 12860, Note_off_c, 7, 59, 64
1, 12861, Note_off_c, 2, 47, 64
1, 12862, Note_on_c, 1, 38, 83
1, 12862, Pitch_bend_c, 6, 8192
1, 12863, Note_on_c, 9, 35, 108
1, 12863, Note_on_c, 6, 66, 124
1, 12864, Note_off_c, 9, 35, 64
1, 12864, Note_on_c, 2, 50, 117
1, 12865, Note_on_c, 9, 51, 99
1, 12866, Note_off_c, 9, 51, 64
1, 12871, Note_off_c, 1, 35, 64
1, 12873, Pitch_bend_c, 6, 8384
1, 12875, Pitch_bend_c, 6, 8352
1, 12878, Pitch_bend_c, 6, 12352
1, 12881, Pitch_bend_c, 6, 12384
1, 12890, Pitch_bend_c, 6, 12416
1, 12892, Pitch_bend_c, 6, 12384
1, 12912, Note_off_c, 2, 50, 64
1, 12925, Note_off_c, 6, 66, 64
1, 12926, Note_on_c, 5, 55, 26
1, 12926, Note_on_c, 7, 55, 36
1, 12928, Note_on_c, 2, 50, 111
1, 12929, Note_on_c, 9, 51, 99
1, 12929, Note_on_c, 0, 62, 90
1, 12930, Note_off_c, 9, 51, 64
1, 12930, Pitch_bend_c, 6, 8192
1, 12931, Note_on_c, 6, 67, 107
1, 12934, Note_off_c, 0, 62, 64
1, 12955, Note_off_c, 6, 67, 64
1, 12956, Note_off_c, 2, 50, 64
1, 12956, Note_on_c, 5, 59, 41
1, 12956, Note_on_c, 7, 59, 51
1, 12958, Note_on_c, 5, 62, 63
1, 12958, Note_on_c, 7, 62, 73
1, 12959, Note_on_c, 9, 38, 124
1, 12959, Note_on_c, 1, 40, 88
1, 12959, Note_on_c, 6, 66, 123
1, 12960, Note_off_c, 9, 38, 64
1, 12961, Note_on_c, 9, 51, 104
1, 12961, Note_on_c, 0, 74, 80
1, 12961, Note_on_c, 0, 67, 85
1, 12961, Note_on_c, 0, 79, 89
1, 12961, Note_on_c, 2, 52, 115
1, 12961, Note_on_c, 5, 67, 26
1, 12961, Note_on_c, 7, 67, 36
1, 12962, Note_off_c, 9, 51, 64
1, 12972, Note_off_c, 1, 38, 64
1, 12976, Pitch_bend_c, 6, 12384
1, 12984, Pitch_bend_c, 6, 12352
1, 12988, Pitch_bend_c, 6, 12320
1, 12990, Pitch_bend_c, 6, 12288
1, 12993, Pitch_bend_c, 6, 12256
1, 12996, Pitch_bend_c, 6, 12160
1, 12997, Note_off_c, 2, 52, 64
1, 12998, Note_off_c, 0, 74, 64
1, 12999, Pitch_bend_c, 6, 11968
1, 13000, Note_off_c, 6, 66, 64
1, 13000, Pitch_bend_c, 6, 12320
1, 13003, Note_off_c, 0, 79, 64
1, 13004, Note_off_c, 0, 67, 64
1, 13023, Note_on_c, 2, 52, 109
1, 13023, Note_off_c, 5, 59, 64
1, 13023, Note_off_c, 7, 59, 64
1, 13025, Note_on_c, 9, 51, 100
1, 13025, Note_on_c, 0, 74, 77
1, 13025, Note_on_c, 0, 79, 50
1, 13026, Note_off_c, 9, 51, 64
1, 13028, Note_off_c, 5, 62, 64
1, 13028, Note_off_c, 7, 62, 64
1, 13034, Note_off_c, 0, 79, 64
1, 13040, Note_off_c, 0, 74, 64
1, 13048, Note_off_c, 1, 40, 64
1, 13053, Note_off_c, 2, 52, 64
1, 13055, Note_on_c, 9, 35, 105
1, 13055, Note_on_c, 1, 43, 89
1, 13056, Note_off_c, 9, 35, 64
1, 13056, Note_on_c, 2, 55, 116
1, 13057, Note_on_c, 9, 51, 102
1, 13058, Note_off_c, 9, 51, 64
1, 13097, Note_off_c, 2, 55, 64
1, 13114, Note_off_c, 5, 67, 64
1, 13114, Note_off_c, 7, 67, 64
1, 13119, Note_on_c, 9, 51, 104
1, 13119, Note_on_c, 0, 62, 104
1, 13120, Note_off_c, 9, 51, 64
1, 13120, Note_on_c, 0, 55, 90
1, 13120, Note_on_c, 2, 55, 117
1, 13121, Note_off_c, 5, 55, 64
1, 13121, Note_off_c, 7, 55, 64
1, 13123, Pitch_bend_c, 6, 8192
1, 13125, Note_on_c, 6, 66, 117
1, 13131, Note_off_c, 0, 55, 64
1, 13132, Note_off_c, 0, 62, 64
1, 13132, Pitch_bend_c, 6, 12544
1, 13143, Pitch_bend_c, 6, 12096
1, 13149, Note_off_c, 1, 43, 64
1, 13150, Note_on_c, 9, 38, 116
1, 13150, Note_on_c, 1, 40, 92
1, 13150, Note_on_c, 5, 59, 53
1, 13150, Note_on_c, 7, 59, 63
1, 13151, Note_off_c, 9, 38, 64
1, 13151, Note_on_c, 9, 51, 106
1, 13151, Note_on_c, 0, 73, 117
1, 13151, Note_on_c, 0, 79, 127
1, 13151, Note_off_c, 2, 55, 64
1, 13151, Note_on_c, 5, 62, 65
1, 13151, Note_on_c, 7, 62, 75
1, 13152, Note_off_c, 9, 51, 64
1, 13153, Note_on_c, 2, 52, 110
1, 13155, Pitch_bend_c, 6, 12512
1, 13158, Pitch_bend_c, 6, 12544
1, 13163, Pitch_bend_c, 6, 12512
1, 13175, Note_off_c, 0, 73, 64
1, 13177, Pitch_bend_c, 6, 12480
1, 13183, Note_on_c, 0, 74, 86
1, 13186, Pitch_bend_c, 6, 12448
1, 13189, Pitch_bend_c, 6, 12416
1, 13191, Note_off_c, 2, 52, 64
1, 13196, Note_off_c, 0, 79, 64
1, 13207, Note_off_c, 0, 74, 64
1, 13211, Note_off_c, 6, 66, 64
1, 13211, Pitch_bend_c, 6, 12544
1, 13214, Note_on_c, 2, 52, 101
1, 13214, Note_off_c, 5, 59, 64
1, 13214, Note_off_c, 7, 59, 64
1, 13215, Note_on_c, 0, 67, 89
1, 13215, Note_off_c, 5, 62, 64
1, 13215, Note_on_c, 5, 59, 63
1, 13215, Note_off_c, 7, 62, 64
1, 13215, Note_on_c, 7, 59, 73
1, 13216, Note_on_c, 9, 51, 102
1, 13216, Note_on_c, 5, 62, 78
1, 13216, Note_on_c, 7, 62, 88
1, 13216, Pitch_bend_c, 6, 8192
1, 13217, Note_off_c, 9, 51, 64
1, 13218, Note_on_c, 6, 67, 120
1, 13218, Pitch_bend_c, 6, 8352
1, 13220, Pitch_bend_c, 6, 8320
1, 13221, Pitch_bend_c, 6, 8352
1, 13231, Note_off_c, 5, 62, 64
1, 13231, Note_off_c, 7, 62, 64
1, 13232, Pitch_bend_c, 6, 8320
1, 13234, Note_off_c, 5, 59, 64
1, 13234, Note_off_c, 7, 59, 64
1, 13235, Pitch_bend_c, 6, 8352
1, 13239, Note_off_c, 0, 67, 64
1, 13244, Note_off_c, 6, 67, 64
1, 13245, Note_off_c, 2, 52, 64
1, 13247, Note_on_c, 9, 35, 107
1, 13247, Note_on_c, 0, 79, 124
1, 13247, Note_on_c, 0, 73, 107
1, 13248, Note_off_c, 9, 35, 64
1, 13248, Note_on_c, 2, 50, 108
1, 13249, Note_on_c, 9, 51, 102
1, 13249, Note_on_c, 1, 38, 94
1, 13250, Note_off_c, 9, 51, 64
1, 13250, Pitch_bend_c, 6, 8192
1, 13252, Note_on_c, 6, 66, 122
1, 13252, Pitch_bend_c, 6, 8448
1, 13255, Pitch_bend_c, 6, 8416
1, 13258, Note_off_c, 1, 40, 64
1, 13264, Pitch_bend_c, 6, 12384
1, 13265, Note_off_c, 0, 73, 64
1, 13267, Pitch_bend_c, 6, 12416
1, 13272, Pitch_bend_c, 6, 12448
1, 13281, Note_on_c, 0, 74, 94
1, 13281, Pitch_bend_c, 6, 12416
1, 13289, Note_off_c, 2, 50, 64
1, 13290, Note_off_c, 0, 79, 64
1, 13300, Note_off_c, 0, 74, 64
1, 13308, Note_on_c, 5, 55, 19
1, 13308, Note_on_c, 7, 55, 29
1, 13308, Pitch_bend_c, 6, 12256
1, 13310, Note_on_c, 2, 50, 111
1, 13310, Note_on_c, 5, 59, 26
1, 13310, Note_on_c, 7, 59, 36
1, 13310, Note_off_c, 6, 66, 64
1, 13310, Pitch_bend_c, 6, 12384
1, 13311, Note_on_c, 0, 67, 97
1, 13312, Note_on_c, 9, 51, 96
1, 13313, Note_off_c, 9, 51, 64
1, 13314, Pitch_bend_c, 6, 8192
1, 13316, Note_on_c, 6, 67, 120
1, 13316, Pitch_bend_c, 6, 8448
1, 13333, Note_off_c, 0, 67, 64
1, 13340, Note_off_c, 6, 67, 64
1, 13341, Note_off_c, 2, 50, 64
1, 13342, Note_off_c, 5, 59, 64
1, 13342, Note_off_c, 7, 59, 64
1, 13343, Note_on_c, 0, 79, 124
1, 13343, Note_on_c, 0, 73, 107
1, 13343, Note_on_c, 5, 59, 73
1, 13343, Note_on_c, 7, 59, 83
1, 13344, Note_on_c, 9, 38, 114
1, 13344, Note_on_c, 5, 62, 80
1, 13344, Note_on_c, 7, 62, 90
1, 13344, Note_on_c, 6, 66, 127
1, 13345, Note_off_c, 9, 38, 64
1, 13345, Note_on_c, 9, 51, 99
1, 13345, Note_on_c, 1, 35, 84
1, 13345, Note_on_c, 2, 47, 111
1, 13346, Note_off_c, 9, 51, 64
1, 13349, Note_off_c, 1, 38, 64
1, 13355, Pitch_bend_c, 6, 8512
1, 13360, Pitch_bend_c, 6, 8192
1, 13361, Note_off_c, 0, 73, 64
1, 13363, Pitch_bend_c, 6, 12512
1, 13366, Pitch_bend_c, 6, 12544
1, 13374, Pitch_bend_c, 6, 12576
1, 13375, Note_on_c, 0, 74, 95
1, 13383, Pitch_bend_c, 6, 12544
1, 13385, Note_off_c, 0, 79, 64
1, 13386, Note_off_c, 2, 47, 64
1, 13392, Pitch_bend_c, 6, 12512
1, 13401, Pitch_bend_c, 6, 12544
1, 13403, Note_off_c, 5, 55, 64
1, 13403, Note_off_c, 7, 55, 64
1, 13403, Pitch_bend_c, 6, 12672
1, 13405, Note_off_c, 6, 66, 64
1, 13406, Note_off_c, 0, 74, 64
1, 13406, Note_on_c, 2, 47, 111
1, 13407, Note_on_c, 9, 51, 97
1, 13407, Note_on_c, 0, 67, 76
1, 13408, Note_off_c, 9, 51, 64
1, 13408, Note_on_c, 5, 55, 44
1, 13408, Note_on_c, 7, 55, 54
1, 13409, Note_off_c, 5, 59, 64
1, 13409, Note_off_c, 7, 59, 64
1, 13410, Note_on_c, 5, 59, 49
1, 13410, Note_on_c, 7, 59, 59
1, 13410, Pitch_bend_c, 6, 8192
1, 13411, Note_on_c, 6, 67, 115
1, 13412, Pitch_bend_c, 6, 8448
1, 13413, Pitch_bend_c, 6, 8416
1, 13417, Pitch_bend_c, 6, 8384
1, 13423, Pitch_bend_c, 6, 8352
1, 13426, Pitch_bend_c, 6, 8320
1, 13427, Note_off_c, 0, 67, 64
1, 13435, Note_off_c, 6, 67, 64
1, 13435, Pitch_bend_c, 6, 8448
1, 13436, Note_off_c, 2, 47, 64
1, 13436, Note_off_c, 5, 55, 64
1, 13436, Note_off_c, 7, 55, 64
1, 13439, Note_on_c, 9, 51, 77
1, 13439, Note_off_c, 5, 59, 64
1, 13439, Note_off_c, 7, 59, 64
1, 13440, Note_off_c, 9, 51, 64
1, 13440, Note_on_c, 9, 38, 106
1, 13441, Note_off_c, 9, 38, 64
1, 13441, Note_on_c, 9, 35, 108
1, 13441, Note_on_c, 1, 31, 82
1, 13441, Note_on_c, 0, 74, 83
1, 13441, Note_on_c, 0, 67, 71
1, 13441, Note_on_c, 2, 43, 103
1, 13441, Pitch_bend_c, 6, 8192
1, 13442, Note_off_c, 9, 35, 64
1, 13442, Note_off_c, 1, 35, 64
1, 13442, Note_on_c, 6, 66, 127
1, 13442, Pitch_bend_c, 6, 8512
1, 13444, Pitch_bend_c, 6, 8576
1, 13445, Pitch_bend_c, 6, 8608
1, 13446, Pitch_bend_c, 6, 8576
1, 13448, Pitch_bend_c, 6, 8544
1, 13451, Pitch_bend_c, 6, 8512
1, 13454, Pitch_bend_c, 6, 8480
1, 13457, Pitch_bend_c, 6, 12544
1, 13471, Note_on_c, 9, 51, 68
1, 13471, Note_on_c, 9, 38, 90
1, 13472, Note_off_c, 9, 38, 64
1, 13472, Note_off_c, 9, 51, 64
1, 13472, Pitch_bend_c, 6, 12512
1, 13477, Pitch_bend_c, 6, 12480
1, 13478, Note_off_c, 0, 67, 64
1, 13480, Note_off_c, 2, 43, 64
1, 13489, Pitch_bend_c, 6, 12448
1, 13492, Note_off_c, 0, 74, 64
1, 13492, Pitch_bend_c, 6, 12480
1, 13495, Pitch_bend_c, 6, 12512
1, 13497, Note_off_c, 6, 66, 64
1, 13501, Note_on_c, 2, 43, 94
1, 13502, Note_on_c, 6, 67, 117
1, 13502, Pitch_bend_c, 6, 8416
1, 13503, Note_on_c, 9, 51, 79
1, 13503, Note_on_c, 9, 38, 108
1, 13503, Note_on_c, 0, 62, 83
1, 13503, Note_on_c, 0, 74, 68
1, 13503, Note_on_c, 5, 55, 53
1, 13503, Note_on_c, 7, 55, 63
1, 13504, Note_off_c, 9, 38, 64
1, 13504, Note_off_c, 9, 51, 64
1, 13504, Pitch_bend_c, 6, 8384
1, 13505, Note_on_c, 0, 67, 80
1, 13505, Pitch_bend_c, 6, 8352
1, 13513, Note_off_c, 0, 62, 64
1, 13514, Pitch_bend_c, 6, 8320
1, 13517, Pitch_bend_c, 6, 8288
1, 13519, Note_off_c, 0, 67, 64
1, 13520, Pitch_bend_c, 6, 8256
1, 13521, Note_off_c, 0, 74, 64
1, 13523, Pitch_bend_c, 6, 8192
1, 13526, Pitch_bend_c, 6, 7936
1, 13527, Note_off_c, 6, 67, 64
1, 13527, Pitch_bend_c, 6, 8320
1, 13532, Pitch_bend_c, 6, 8192
1, 13534, Note_on_c, 2, 47, 109
1, 13534, Note_on_c, 6, 66, 127
1, 13535, Note_on_c, 9, 51, 92
1, 13535, Note_on_c, 9, 38, 102
1, 13535, Note_on_c, 1, 35, 84
1, 13535, Note_off_c, 2, 43, 64
1, 13535, Note_on_c, 5, 59, 56
1, 13535, Note_on_c, 7, 59, 66
1, 13536, Note_off_c, 9, 38, 64
1, 13536, Note_off_c, 9, 51, 64
1, 13536, Note_off_c, 5, 62, 64
1, 13536, Note_off_c, 7, 62, 64
1, 13536, Pitch_bend_c, 6, 8576
1, 13537, Note_on_c, 5, 62, 61
1, 13537, Note_on_c, 7, 62, 71
1, 13540, Pitch_bend_c, 6, 8512
1, 13543, Pitch_bend_c, 6, 12448
1, 13544, Note_off_c, 1, 31, 64
1, 13546, Pitch_bend_c, 6, 12480
1, 13549, Pitch_bend_c, 6, 12512
1, 13552, Pitch_bend_c, 6, 12544
1, 13565, Note_off_c, 2, 47, 64
1, 13567, Note_on_c, 9, 51, 90
1, 13567, Note_on_c, 9, 38, 127
1, 13568, Note_off_c, 9, 38, 64
1, 13568, Note_off_c, 9, 51, 64
1, 13570, Pitch_bend_c, 6, 12512
1, 13572, Pitch_bend_c, 6, 12480
1, 13578, Pitch_bend_c, 6, 12448
1, 13589, Pitch_bend_c, 6, 12512
1, 13590, Note_off_c, 6, 66, 64
1, 13594, Pitch_bend_c, 6, 8192
1, 13595, Note_off_c, 5, 62, 64
1, 13595, Note_off_c, 7, 62, 64
1, 13595, Note_on_c, 6, 67, 108
1, 13595, Pitch_bend_c, 6, 8352
1, 13596, Note_off_c, 5, 59, 64
1, 13596, Note_off_c, 7, 59, 64
1, 13596, Pitch_bend_c, 6, 8320
1, 13597, Note_on_c, 2, 47, 112
1, 13598, Note_on_c, 5, 59, 74
1, 13598, Note_on_c, 7, 59, 84
1, 13599, Note_on_c, 9, 51, 99
1, 13599, Note_on_c, 9, 38, 116
1, 13599, Note_on_c, 0, 70, 117
1, 13599, Note_on_c, 5, 62, 82
1, 13599, Note_on_c, 7, 62, 92
1, 13600, Note_off_c, 9, 38, 64
1, 13600, Note_off_c, 9, 51, 64
1, 13601, Note_on_c, 0, 65, 89
1, 13606, Pitch_bend_c, 6, 8288
1, 13613, Note_off_c, 0, 70, 64
1, 13617, Note_off_c, 5, 62, 64
1, 13617, Note_off_c, 5, 55, 64
1, 13617, Note_off_c, 7, 62, 64
1, 13617, Note_off_c, 7, 55, 64
1, 13618, Note_off_c, 0, 65, 64
1, 13620, Note_off_c, 6, 67, 64
1, 13623, Note_off_c, 5, 59, 64
1, 13623, Note_off_c, 7, 59, 64
1, 13624, Pitch_bend_c, 6, 8192
1, 13625, Note_on_c, 6, 66, 126
1, 13628, Note_off_c, 2, 47, 64
1, 13628, Pitch_bend_c, 6, 8480
1, 13630, Note_on_c, 9, 38, 127
1, 13630, Note_on_c, 1, 38, 84
1, 13630, Note_on_c, 2, 50, 111
1, 13631, Note_off_c, 9, 38, 64
1, 13631, Note_on_c, 9, 51, 110
1, 13631, Note_on_c, 9, 35, 103
1, 13631, Pitch_bend_c, 6, 8512
1, 13632, Note_off_c, 9, 35, 64
1, 13632, Note_off_c, 9, 51, 64
1, 13632, Note_on_c, 0, 67, 95
1, 13633, Note_on_c, 0, 62, 93
1, 13637, Note_off_c, 1, 35, 64
1, 13637, Pitch_bend_c, 6, 12544
1, 13652, Pitch_bend_c, 6, 12576
1, 13658, Pitch_bend_c, 6, 12544
1, 13661, Note_on_c, 9, 38, 114
1, 13662, Note_off_c, 9, 38, 64
1, 13663, Note_on_c, 9, 51, 110
1, 13664, Note_off_c, 9, 51, 64
1, 13667, Note_off_c, 2, 50, 64
1, 13670, Pitch_bend_c, 6, 12480
1, 13676, Note_off_c, 0, 62, 64
1, 13678, Note_off_c, 0, 67, 64
1, 13678, Pitch_bend_c, 6, 12384
1, 13687, Note_off_c, 6, 66, 64
1, 13687, Pitch_bend_c, 6, 12576
1, 13693, Note_on_c, 9, 38, 127
1, 13693, Note_on_c, 2, 50, 105
1, 13694, Note_off_c, 9, 38, 64
1, 13694, Note_on_c, 5, 55, 49
1, 13694, Note_on_c, 7, 55, 59
1, 13694, Pitch_bend_c, 6, 8192
1, 13695, Note_on_c, 9, 51, 119
1, 13695, Note_on_c, 0, 62, 124
1, 13695, Note_on_c, 0, 67, 122
1, 13695, Note_on_c, 5, 59, 16
1, 13695, Note_on_c, 7, 59, 26
1, 13695, Note_on_c, 6, 67, 113
1, 13695, Pitch_bend_c, 6, 8320
1, 13696, Note_off_c, 9, 51, 64
1, 13697, Pitch_bend_c, 6, 8288
1, 13718, Note_off_c, 6, 67, 64
1, 13722, Note_off_c, 2, 50, 64
1, 13724, Note_off_c, 0, 62, 64
1, 13725, Note_off_c, 1, 38, 64
1, 13725, Note_off_c, 5, 59, 64
1, 13725, Note_off_c, 7, 59, 64
1, 13726, Note_on_c, 9, 38, 127
1, 13726, Note_on_c, 1, 40, 87
1, 13727, Note_off_c, 9, 38, 64
1, 13727, Note_on_c, 9, 51, 114
1, 13727, Note_on_c, 2, 52, 113
1, 13727, Note_on_c, 5, 59, 55
1, 13727, Note_on_c, 7, 59, 65
1, 13728, Note_off_c, 9, 51, 64
1, 13728, Note_on_c, 5, 62, 71
1, 13728, Note_on_c, 7, 62, 81
1, 13728, Note_on_c, 6, 66, 127
1, 13729, Note_off_c, 0, 67, 64
1, 13729, Note_on_c, 0, 55, 88
1, 13743, Pitch_bend_c, 6, 12416
1, 13751, Pitch_bend_c, 6, 12384
1, 13757, Note_off_c, 0, 55, 64
1, 13757, Pitch_bend_c, 6, 12352
1, 13758, Note_on_c, 9, 38, 127
1, 13759, Note_off_c, 9, 38, 64
1, 13759, Note_on_c, 9, 51, 119
1, 13760, Note_off_c, 9, 51, 64
1, 13760, Pitch_bend_c, 6, 12320
1, 13763, Pitch_bend_c, 6, 12288
1, 13764, Note_off_c, 2, 52, 64
1, 13766, Pitch_bend_c, 6, 12256
1, 13768, Pitch_bend_c, 6, 12096
1, 13771, Pitch_bend_c, 6, 11712
1, 13772, Note_off_c, 6, 66, 64
1, 13772, Pitch_bend_c, 6, 12320
1, 13789, Note_on_c, 9, 38, 127
1, 13789, Note_on_c, 2, 52, 105
1, 13789, Note_off_c, 5, 55, 64
1, 13789, Note_off_c, 7, 55, 64
1, 13790, Note_off_c, 9, 38, 64
1, 13790, Note_off_c, 5, 59, 64
1, 13790, Note_on_c, 5, 55, 54
1, 13790, Note_off_c, 7, 59, 64
1, 13790, Note_on_c, 7, 55, 64
1, 13791, Note_on_c, 9, 51, 125
1, 13791, Note_on_c, 0, 67, 124
1, 13791, Note_on_c, 0, 61, 120
1, 13791, Note_on_c, 5, 59, 81
1, 13791, Note_on_c, 7, 59, 91
1, 13792, Note_off_c, 9, 51, 64
1, 13792, Note_off_c, 5, 62, 64
1, 13792, Note_off_c, 7, 62, 64
1, 13793, Note_on_c, 5, 62, 83
1, 13793, Note_on_c, 7, 62, 93
1, 13794, Note_on_c, 5, 66, 16
1, 13794, Note_on_c, 7, 66, 26
1, 13803, Note_off_c, 5, 66, 64
1, 13803, Note_off_c, 7, 66, 64
1, 13807, Note_off_c, 5, 62, 64
1, 13807, Note_off_c, 5, 55, 64
1, 13807, Note_off_c, 7, 62, 64
1, 13807, Note_off_c, 7, 55, 64
1, 13811, Note_off_c, 5, 59, 64
1, 13811, Note_off_c, 7, 59, 64
1, 13818, Note_off_c, 0, 61, 64
1, 13823, Note_off_c, 2, 52, 64
1, 13824, Note_on_c, 9, 51, 127
1, 13824, Note_on_c, 9, 35, 105
1, 13824, Note_on_c, 0, 62, 77
1, 13824, Note_on_c, 2, 55, 115
1, 13825, Note_off_c, 9, 35, 64
1, 13825, Note_off_c, 9, 51, 64
1, 13825, Note_on_c, 1, 41, 79
1, 13827, Note_off_c, 1, 40, 64
1, 13851, Note_off_c, 2, 55, 64
1, 13865, Note_off_c, 0, 62, 64
1, 13868, Note_off_c, 0, 67, 64
1, 13882, Pitch_bend_c, 6, 8192
1, 13884, Note_on_c, 5, 55, 16
1, 13884, Note_on_c, 7, 55, 26
1, 13885, Note_on_c, 6, 66, 120
1, 13887, Note_on_c, 0, 55, 65
1, 13887, Note_on_c, 2, 55, 108
1, 13887, Note_on_c, 5, 59, 38
1, 13887, Note_on_c, 7, 59, 48
1, 13888, Note_on_c, 9, 51, 102
1, 13889, Note_off_c, 9, 51, 64
1, 13893, Pitch_bend_c, 6, 12512
1, 13897, Note_off_c, 0, 55, 64
1, 13899, Pitch_bend_c, 6, 12544
1, 13910, Pitch_bend_c, 6, 12512
1, 13916, Pitch_bend_c, 6, 12480
1, 13917, Note_off_c, 5, 59, 64
1, 13917, Note_off_c, 7, 59, 64
1, 13918, Note_off_c, 2, 55, 64
1, 13919, Note_on_c, 5, 59, 56
1, 13919, Note_on_c, 7, 59, 66
1, 13920, Note_on_c, 9, 51, 100
1, 13920, Note_on_c, 1, 40, 90
1, 13920, Note_on_c, 5, 62, 56
1, 13920, Note_on_c, 7, 62, 66
1, 13921, Note_off_c, 9, 51, 64
1, 13921, Note_on_c, 9, 38, 118
1, 13921, Note_on_c, 2, 54, 114
1, 13922, Note_off_c, 9, 38, 64
1, 13924, Pitch_bend_c, 6, 12448
1, 13928, Note_off_c, 1, 41, 64
1, 13930, Pitch_bend_c, 6, 12416
1, 13938, Pitch_bend_c, 6, 12384
1, 13950, Note_off_c, 2, 54, 64
1, 13951, Note_on_c, 2, 55, 105
1, 13956, Pitch_bend_c, 6, 12352
1, 13968, Pitch_bend_c, 6, 12384
1, 13971, Pitch_bend_c, 6, 12416
1, 13974, Note_off_c, 6, 66, 64
1, 13978, Note_off_c, 2, 55, 64
1, 13979, Pitch_bend_c, 6, 8192
1, 13980, Note_on_c, 6, 67, 122
1, 13981, Note_off_c, 5, 55, 64
1, 13981, Note_off_c, 7, 55, 64
1, 13982, Note_off_c, 5, 59, 64
1, 13982, Note_on_c, 5, 55, 60
1, 13982, Note_off_c, 7, 59, 64
1, 13982, Note_on_c, 7, 55, 70
1, 13983, Note_on_c, 0, 67, 120
1, 13983, Note_on_c, 0, 62, 118
1, 13983, Note_on_c, 2, 54, 102
1, 13984, Note_on_c, 5, 59, 59
1, 13984, Note_on_c, 7, 59, 69
1, 13985, Note_on_c, 9, 51, 99
1, 13986, Note_off_c, 9, 51, 64
1, 13986, Note_off_c, 5, 62, 64
1, 13986, Note_off_c, 7, 62, 64
1, 14008, Note_off_c, 6, 67, 64
1, 14010, Note_off_c, 1, 40, 64
1, 14012, Note_off_c, 2, 54, 64
1, 14012, Note_off_c, 5, 59, 64
1, 14012, Note_off_c, 7, 59, 64
1, 14013, Note_on_c, 6, 66, 121
1, 14014, Note_on_c, 1, 38, 88
1, 14014, Note_off_c, 5, 55, 64
1, 14014, Note_off_c, 7, 55, 64
1, 14015, Note_on_c, 2, 55, 118
1, 14016, Note_on_c, 9, 51, 97
1, 14017, Note_off_c, 9, 51, 64
1, 14017, Note_on_c, 9, 35, 105
1, 14018, Note_off_c, 9, 35, 64
1, 14024, Pitch_bend_c, 6, 8640
1, 14027, Pitch_bend_c, 6, 12448
1, 14033, Pitch_bend_c, 6, 12480
1, 14039, Pitch_bend_c, 6, 12512
1, 14042, Pitch_bend_c, 6, 12544
1, 14045, Note_off_c, 2, 55, 64
1, 14046, Note_on_c, 2, 54, 99
1, 14048, Pitch_bend_c, 6, 12512
1, 14051, Pitch_bend_c, 6, 12480
1, 14055, Pitch_bend_c, 6, 12448
1, 14061, Pitch_bend_c, 6, 12416
1, 14069, Pitch_bend_c, 6, 12448
1, 14072, Pitch_bend_c, 6, 12224
1, 14074, Note_off_c, 2, 54, 64
1, 14075, Pitch_bend_c, 6, 12000
1, 14077, Note_on_c, 5, 55, 53
1, 14077, Note_on_c, 7, 55, 63
1, 14078, Note_on_c, 2, 55, 110
1, 14078, Pitch_bend_c, 6, 11776
1, 14079, Note_on_c, 9, 51, 94
1, 14079, Note_off_c, 6, 66, 64
1, 14079, Pitch_bend_c, 6, 12416
1, 14080, Note_off_c, 9, 51, 64
1, 14080, Note_off_c, 0, 67, 64
1, 14080, Note_on_c, 5, 59, 16
1, 14080, Note_on_c, 7, 59, 26
1, 14080, Note_on_c, 6, 67, 120
1, 14080, Pitch_bend_c, 6, 8480
1, 14081, Note_on_c, 0, 55, 76
1, 14092, Pitch_bend_c, 6, 8448
1, 14094, Note_off_c, 0, 62, 64
1, 14095, Note_off_c, 0, 55, 64
1, 14100, Pitch_bend_c, 6, 8416
1, 14103, Pitch_bend_c, 6, 8384
1, 14106, Note_off_c, 2, 55, 64
1, 14106, Note_off_c, 5, 59, 64
1, 14106, Note_off_c, 7, 59, 64
1, 14106, Pitch_bend_c, 6, 8352
1, 14107, Note_off_c, 6, 67, 64
1, 14107, Pitch_bend_c, 6, 8448
1, 14109, Pitch_bend_c, 6, 8192
1, 14110, Note_on_c, 2, 54, 125
1, 14110, Note_on_c, 5, 59, 75
1, 14110, Note_on_c, 7, 59, 85
1, 14111, Note_on_c, 9, 51, 106
1, 14111, Note_on_c, 9, 38, 124
1, 14111, Note_on_c, 5, 62, 89
1, 14111, Note_on_c, 7, 62, 99
1, 14111, Note_on_c, 6, 66, 121
1, 14111, Pitch_bend_c, 6, 8224
1, 14112, Note_off_c, 9, 38, 64
1, 14112, Note_off_c, 9, 51, 64
1, 14112, Note_on_c, 0, 62, 90
1, 14112, Pitch_bend_c, 6, 8256
1, 14113, Note_on_c, 1, 35, 87
1, 14113, Note_on_c, 0, 67, 87
1, 14113, Note_on_c, 5, 67, 72
1, 14113, Note_on_c, 7, 67, 82
1, 14113, Pitch_bend_c, 6, 8352
1, 14114, Pitch_bend_c, 6, 8480
1, 14116, Pitch_bend_c, 6, 8512
1, 14118, Note_off_c, 1, 38, 64
1, 14120, Pitch_bend_c, 6, 12288
1, 14123, Pitch_bend_c, 6, 12320
1, 14125, Pitch_bend_c, 6, 12352
1, 14128, Pitch_bend_c, 6, 12384
1, 14131, Pitch_bend_c, 6, 12416
1, 14137, Pitch_bend_c, 6, 12384
1, 14142, Note_off_c, 2, 54, 64
1, 14142, Note_on_c, 2, 55, 106
1, 14146, Pitch_bend_c, 6, 12352
1, 14149, Pitch_bend_c, 6, 12288
1, 14152, Pitch_bend_c, 6, 12256
1, 14154, Note_off_c, 0, 67, 64
1, 14155, Pitch_bend_c, 6, 12192
1, 14157, Note_off_c, 0, 62, 64
1, 14158, Pitch_bend_c, 6, 11744
1, 14160, Pitch_bend_c, 6, 12352
1, 14161, Note_off_c, 6, 66, 64
1, 14163, Note_off_c, 5, 67, 64
1, 14163, Note_off_c, 7, 67, 64
1, 14166, Note_off_c, 5, 55, 64
1, 14166, Note_off_c, 7, 55, 64
1, 14168, Note_off_c, 5, 62, 64
1, 14168, Note_off_c, 7, 62, 64
1, 14169, Note_off_c, 5, 59, 64
1, 14169, Note_off_c, 7, 59, 64
1, 14170, Note_off_c, 2, 55, 64
1, 14173, Note_on_c, 2, 55, 109
1, 14175, Note_on_c, 9, 51, 97
1, 14175, Note_on_c, 0, 64, 90
1, 14175, Note_on_c, 0, 48, 85
1, 14175, Note_on_c, 0, 67, 76
1, 14176, Note_off_c, 9, 51, 64
1, 14177, Note_on_c, 5, 59, 28
1, 14177, Note_on_c, 7, 59, 38
1, 14182, Note_off_c, 1, 35, 64
1, 14186, Note_off_c, 0, 67, 64
1, 14189, Note_off_c, 0, 64, 64
1, 14191, Note_off_c, 0, 48, 64
1, 14192, Note_off_c, 5, 59, 64
1, 14192, Note_off_c, 7, 59, 64
1, 14204, Pitch_bend_c, 6, 8192
1, 14205, Note_on_c, 5, 52, 26
1, 14205, Note_on_c, 7, 52, 36
1, 14206, Note_on_c, 5, 58, 51
1, 14206, Note_on_c, 7, 58, 61
1, 14206, Note_on_c, 6, 72, 121
1, 14206, Pitch_bend_c, 6, 8864
1, 14207, Note_on_c, 9, 51, 100
1, 14207, Note_on_c, 9, 35, 106
1, 14207, Note_off_c, 2, 55, 64
1, 14207, Pitch_bend_c, 6, 8832
1, 14208, Note_off_c, 9, 35, 64
1, 14208, Note_off_c, 9, 51, 64
1, 14209, Note_on_c, 1, 36, 96
1, 14209, Note_on_c, 2, 48, 116
1, 14209, Note_on_c, 5, 62, 69
1, 14209, Note_on_c, 7, 62, 79
1, 14211, Pitch_bend_c, 6, 8800
1, 14217, Pitch_bend_c, 6, 8736
1, 14220, Pitch_bend_c, 6, 8864
1, 14223, Pitch_bend_c, 6, 9056
1, 14226, Pitch_bend_c, 6, 9248
1, 14229, Pitch_bend_c, 6, 9504
1, 14232, Pitch_bend_c, 6, 9728
1, 14235, Pitch_bend_c, 6, 9888
1, 14238, Pitch_bend_c, 6, 10048
1, 14240, Pitch_bend_c, 6, 10144
1, 14243, Pitch_bend_c, 6, 10272
1, 14246, Pitch_bend_c, 6, 10304
1, 14249, Pitch_bend_c, 6, 10400
1, 14252, Pitch_bend_c, 6, 10496
1, 14255, Pitch_bend_c, 6, 10592
1, 14257, Pitch_bend_c, 6, 10720
1, 14261, Pitch_bend_c, 6, 10880
1, 14264, Pitch_bend_c, 6, 11072
1, 14266, Pitch_bend_c, 6, 11264
1, 14269, Pitch_bend_c, 6, 11488
1, 14270, Note_off_c, 5, 58, 64
1, 14270, Note_off_c, 7, 58, 64
1, 14271, Note_on_c, 9, 51, 97
1, 14272, Note_off_c, 9, 51, 64
1, 14272, Note_on_c, 5, 58, 49
1, 14272, Note_on_c, 7, 58, 59
1, 14272, Pitch_bend_c, 6, 11712
1, 14273, Note_off_c, 2, 48, 64
1, 14273, Note_off_c, 5, 62, 64
1, 14273, Note_off_c, 7, 62, 64
1, 14274, Pitch_bend_c, 6, 11904
1, 14275, Note_on_c, 2, 48, 98
1, 14278, Pitch_bend_c, 6, 12128
1, 14281, Pitch_bend_c, 6, 12352
1, 14283, Pitch_bend_c, 6, 12544
1, 14286, Pitch_bend_c, 6, 12800
1, 14289, Pitch_bend_c, 6, 12992
1, 14292, Pitch_bend_c, 6, 13216
1, 14295, Pitch_bend_c, 6, 13376
1, 14298, Note_off_c, 5, 58, 64
1, 14298, Note_off_c, 7, 58, 64
1, 14298, Pitch_bend_c, 6, 13536
1, 14300, Pitch_bend_c, 6, 13632
1, 14302, Note_off_c, 1, 36, 64
1, 14302, Note_on_c, 5, 58, 59
1, 14302, Note_on_c, 7, 58, 69
1, 14303, Note_on_c, 1, 40, 86
1, 14303, Note_on_c, 5, 62, 82
1, 14303, Note_on_c, 7, 62, 92
1, 14303, Pitch_bend_c, 6, 13760
1, 14304, Note_on_c, 9, 51, 104
1, 14304, Note_off_c, 2, 48, 64
1, 14305, Note_off_c, 9, 51, 64
1, 14305, Note_on_c, 9, 38, 118
1, 14305, Note_on_c, 5, 67, 75
1, 14305, Note_on_c, 7, 67, 85
1, 14306, Note_off_c, 9, 38, 64
1, 14306, Pitch_bend_c, 6, 13888
1, 14307, Note_on_c, 2, 51, 119
1, 14309, Pitch_bend_c, 6, 14016
1, 14312, Pitch_bend_c, 6, 14144
1, 14316, Pitch_bend_c, 6, 14240
1, 14318, Pitch_bend_c, 6, 14368
1, 14321, Pitch_bend_c, 6, 14464
1, 14324, Pitch_bend_c, 6, 14528
1, 14327, Pitch_bend_c, 6, 14560
1, 14333, Pitch_bend_c, 6, 14624
1, 14346, Pitch_bend_c, 6, 14656
1, 14350, Pitch_bend_c, 6, 14784
1, 14353, Pitch_bend_c, 6, 14848
1, 14355, Pitch_bend_c, 6, 14944
1, 14358, Pitch_bend_c, 6, 14976
1, 14359, Note_off_c, 2, 51, 64
1, 14361, Note_off_c, 5, 58, 64
1, 14361, Note_off_c, 7, 58, 64
1, 14361, Pitch_bend_c, 6, 15008
1, 14362, Note_off_c, 5, 62, 64
1, 14362, Note_off_c, 7, 62, 64
1, 14364, Note_off_c, 5, 67, 64
1, 14364, Note_off_c, 7, 67, 64
1, 14365, Note_on_c, 5, 58, 67
1, 14365, Note_on_c, 7, 58, 77
1, 14366, Note_on_c, 5, 62, 85
1, 14366, Note_on_c, 7, 62, 95
1, 14367, Note_on_c, 9, 51, 94
1, 14367, Note_on_c, 0, 55, 57
1, 14367, Note_on_c, 0, 72, 89
1, 14367, Note_on_c, 5, 67, 74
1, 14367, Note_on_c, 7, 67, 84
1, 14368, Note_off_c, 9, 51, 64
1, 14369, Note_on_c, 0, 67, 74
1, 14369, Note_on_c, 2, 52, 101
1, 14374, Note_off_c, 0, 55, 64
1, 14385, Note_off_c, 5, 67, 64
1, 14385, Note_off_c, 7, 67, 64
1, 14386, Note_off_c, 0, 67, 64
1, 14386, Note_off_c, 5, 58, 64
1, 14386, Note_off_c, 7, 58, 64
1, 14387, Pitch_bend_c, 6, 15072
1, 14388, Note_off_c, 5, 62, 64
1, 14388, Note_off_c, 7, 62, 64
1, 14389, Note_off_c, 5, 52, 64
1, 14389, Note_off_c, 7, 52, 64
1, 14389, Pitch_bend_c, 6, 15104
1, 14391, Note_off_c, 0, 72, 64
1, 14392, Pitch_bend_c, 6, 15168
1, 14395, Pitch_bend_c, 6, 15264
1, 14398, Note_on_c, 1, 43, 84
1, 14398, Pitch_bend_c, 6, 15392
1, 14399, Note_on_c, 9, 51, 102
1, 14400, Note_off_c, 9, 51, 64
1, 14401, Note_on_c, 9, 35, 104
1, 14402, Note_off_c, 9, 35, 64
1, 14402, Note_on_c, 2, 55, 111
1, 14402, Pitch_bend_c, 6, 15424
1, 14403, Note_off_c, 2, 52, 64
1, 14404, Note_off_c, 1, 40, 64
1, 14405, Pitch_bend_c, 6, 15456
1, 14431, Pitch_bend_c, 6, 15488
1, 14434, Pitch_bend_c, 6, 15552
1, 14435, Note_off_c, 2, 55, 64
1, 14437, Pitch_bend_c, 6, 15616
1, 14439, Pitch_bend_c, 6, 15648
1, 14442, Pitch_bend_c, 6, 15712
1, 14458, Note_on_c, 5, 52, 16
1, 14458, Note_on_c, 7, 52, 26
1, 14460, Note_on_c, 5, 58, 51
1, 14460, Note_on_c, 7, 58, 61
1, 14463, Note_on_c, 9, 51, 99
1, 14463, Note_on_c, 2, 55, 105
1, 14464, Note_off_c, 9, 51, 64
1, 14464, Note_on_c, 5, 62, 43
1, 14464, Note_on_c, 7, 62, 53
1, 14492, Note_off_c, 1, 43, 64
1, 14493, Note_off_c, 5, 62, 64
1, 14493, Note_off_c, 5, 58, 64
1, 14493, Note_off_c, 7, 62, 64
1, 14493, Note_off_c, 7, 58, 64
1, 14494, Note_on_c, 1, 45, 82
1, 14494, Note_on_c, 5, 58, 63
1, 14494, Note_on_c, 7, 58, 73
1, 14494, Pitch_bend_c, 6, 15648
1, 14495, Note_on_c, 9, 51, 106
1, 14495, Note_on_c, 5, 62, 81
1, 14495, Note_on_c, 7, 62, 91
1, 14496, Note_off_c, 9, 51, 64
1, 14496, Note_off_c, 2, 55, 64
1, 14497, Note_on_c, 9, 38, 114
1, 14497, Note_on_c, 2, 57, 109
1, 14498, Note_off_c, 9, 38, 64
1, 14498, Note_on_c, 5, 67, 68
1, 14498, Note_on_c, 7, 67, 78
1, 14500, Pitch_bend_c, 6, 15712
1, 14508, Pitch_bend_c, 6, 15744
1, 14511, Pitch_bend_c, 6, 15712
1, 14517, Pitch_bend_c, 6, 15648
1, 14526, Pitch_bend_c, 6, 15616
1, 14534, Pitch_bend_c, 6, 15648
1, 14536, Note_off_c, 2, 57, 64
1, 14546, Pitch_bend_c, 6, 15712
1, 14551, Pitch_bend_c, 6, 15744
1, 14554, Note_off_c, 5, 58, 64
1, 14554, Note_off_c, 7, 58, 64
1, 14554, Pitch_bend_c, 6, 15712
1, 14558, Note_on_c, 2, 57, 107
1, 14558, Note_off_c, 5, 62, 64
1, 14558, Note_off_c, 7, 62, 64
1, 14559, Note_on_c, 9, 51, 94
1, 14559, Note_on_c, 5, 62, 85
1, 14559, Note_on_c, 7, 62, 95
1, 14560, Note_off_c, 9, 51, 64
1, 14560, Note_on_c, 5, 58, 73
1, 14560, Note_on_c, 7, 58, 83
1, 14561, Note_on_c, 0, 48, 71
1, 14561, Note_on_c, 0, 55, 75
1, 14562, Pitch_bend_c, 6, 15648
1, 14568, Pitch_bend_c, 6, 15552
1, 14571, Pitch_bend_c, 6, 15328
1, 14572, Note_off_c, 0, 55, 64
1, 14572, Note_off_c, 0, 48, 64
1, 14572, Note_off_c, 5, 58, 64
1, 14572, Note_off_c, 7, 58, 64
1, 14574, Pitch_bend_c, 6, 12768
1, 14575, Note_off_c, 5, 67, 64
1, 14575, Note_off_c, 7, 67, 64
1, 14576, Note_off_c, 5, 62, 64
1, 14576, Note_off_c, 7, 62, 64
1, 14577, Pitch_bend_c, 6, 10528
1, 14578, Note_off_c, 5, 52, 64
1, 14578, Note_off_c, 7, 52, 64
1, 14580, Note_off_c, 1, 45, 64
1, 14580, Pitch_bend_c, 6, 10304
1, 14582, Note_off_c, 6, 72, 64
1, 14589, Note_on_c, 1, 46, 78
1, 14589, Pitch_bend_c, 6, 8192
1, 14591, Note_on_c, 9, 51, 104
1, 14591, Note_on_c, 0, 78, 107
1, 14591, Note_on_c, 0, 84, 127
1, 14591, Note_on_c, 6, 72, 120
1, 14592, Note_off_c, 9, 51, 64
1, 14592, Note_on_c, 9, 35, 104
1, 14592, Note_off_c, 2, 57, 64
1, 14593, Note_off_c, 9, 35, 64
1, 14593, Note_on_c, 2, 58, 113
1, 14595, Pitch_bend_c, 6, 8480
1, 14598, Pitch_bend_c, 6, 8512
1, 14601, Pitch_bend_c, 6, 8640
1, 14603, Pitch_bend_c, 6, 8736
1, 14606, Pitch_bend_c, 6, 8832
1, 14607, Note_off_c, 0, 78, 64
1, 14609, Pitch_bend_c, 6, 9056
1, 14612, Pitch_bend_c, 6, 9280
1, 14615, Pitch_bend_c, 6, 9600
1, 14618, Pitch_bend_c, 6, 10016
1, 14620, Pitch_bend_c, 6, 10464
1, 14623, Note_on_c, 0, 79, 91
1, 14623, Pitch_bend_c, 6, 10848
1, 14626, Pitch_bend_c, 6, 11232
1, 14627, Note_off_c, 2, 58, 64
1, 14629, Pitch_bend_c, 6, 11520
1, 14632, Pitch_bend_c, 6, 11744
1, 14634, Pitch_bend_c, 6, 11936
1, 14635, Note_off_c, 0, 84, 64
1, 14637, Note_off_c, 0, 79, 64
1, 14637, Pitch_bend_c, 6, 12128
1, 14640, Pitch_bend_c, 6, 12320
1, 14643, Pitch_bend_c, 6, 12480
1, 14646, Pitch_bend_c, 6, 12608
1, 14649, Pitch_bend_c, 6, 12768
1, 14652, Note_on_c, 5, 52, 30
1, 14652, Note_on_c, 7, 52, 40
1, 14652, Pitch_bend_c, 6, 12960
1, 14654, Note_on_c, 2, 58, 108
1, 14655, Note_on_c, 9, 51, 94
1, 14655, Note_on_c, 5, 58, 46
1, 14655, Note_on_c, 7, 58, 56
1, 14655, Pitch_bend_c, 6, 13152
1, 14656, Note_off_c, 9, 51, 64
1, 14656, Note_on_c, 0, 79, 118
1, 14656, Note_on_c, 0, 84, 118
1, 14658, Pitch_bend_c, 6, 13376
1, 14661, Pitch_bend_c, 6, 13536
1, 14663, Note_off_c, 5, 58, 64
1, 14663, Note_off_c, 7, 58, 64
1, 14664, Pitch_bend_c, 6, 13600
1, 14667, Pitch_bend_c, 6, 13632
1, 14673, Pitch_bend_c, 6, 13696
1, 14675, Note_off_c, 0, 84, 64
1, 14675, Pitch_bend_c, 6, 13760
1, 14676, Note_off_c, 0, 79, 64
1, 14679, Pitch_bend_c, 6, 13856
1, 14682, Pitch_bend_c, 6, 14016
1, 14684, Pitch_bend_c, 6, 14176
1, 14685, Note_on_c, 5, 58, 54
1, 14685, Note_on_c, 7, 58, 64
1, 14687, Note_on_c, 9, 38, 114
1, 14687, Note_on_c, 1, 45, 82
1, 14687, Note_off_c, 2, 58, 64
1, 14687, Note_on_c, 5, 62, 87
1, 14687, Note_on_c, 7, 62, 97
1, 14687, Pitch_bend_c, 6, 14336
1, 14688, Note_off_c, 9, 38, 64
1, 14688, Note_on_c, 9, 51, 99
1, 14689, Note_off_c, 9, 51, 64
1, 14689, Note_on_c, 0, 84, 90
1, 14689, Note_on_c, 0, 78, 99
1, 14689, Note_on_c, 2, 57, 112
1, 14689, Note_on_c, 5, 67, 81
1, 14689, Note_on_c, 7, 67, 91
1, 14691, Pitch_bend_c, 6, 14464
1, 14692, Note_off_c, 1, 46, 64
1, 14694, Pitch_bend_c, 6, 14496
1, 14699, Pitch_bend_c, 6, 14528
1, 14703, Pitch_bend_c, 6, 14560
1, 14705, Note_off_c, 0, 78, 64
1, 14705, Pitch_bend_c, 6, 14624
1, 14708, Pitch_bend_c, 6, 14688
1, 14711, Pitch_bend_c, 6, 14784
1, 14714, Pitch_bend_c, 6, 14848
1, 14717, Pitch_bend_c, 6, 14976
1, 14720, Note_off_c, 2, 57, 64
1, 14720, Pitch_bend_c, 6, 15008
1, 14721, Note_on_c, 0, 79, 91
1, 14722, Pitch_bend_c, 6, 15104
1, 14725, Pitch_bend_c, 6, 15136
1, 14731, Pitch_bend_c, 6, 15168
1, 14733, Note_off_c, 0, 84, 64
1, 14734, Pitch_bend_c, 6, 15264
1, 14735, Note_off_c, 0, 79, 64
1, 14737, Pitch_bend_c, 6, 15296
1, 14739, Pitch_bend_c, 6, 15328
1, 14742, Pitch_bend_c, 6, 15424
1, 14745, Pitch_bend_c, 6, 15456
1, 14748, Note_off_c, 5, 58, 64
1, 14748, Note_off_c, 7, 58, 64
1, 14748, Pitch_bend_c, 6, 15488
1, 14750, Note_on_c, 2, 57, 107
1, 14750, Note_off_c, 5, 62, 64
1, 14750, Note_off_c, 7, 62, 64
1, 14751, Note_on_c, 0, 79, 108
1, 14751, Note_on_c, 5, 62, 73
1, 14751, Note_on_c, 7, 62, 83
1, 14751, Pitch_bend_c, 6, 15552
1, 14752, Note_on_c, 0, 84, 108
1, 14752, Note_on_c, 5, 58, 62
1, 14752, Note_on_c, 7, 58, 72
1, 14753, Note_on_c, 9, 51, 99
1, 14754, Note_off_c, 9, 51, 64
1, 14759, Pitch_bend_c, 6, 15584
1, 14768, Note_off_c, 0, 84, 64
1, 14768, Pitch_bend_c, 6, 15616
1, 14771, Note_off_c, 0, 79, 64
1, 14774, Note_off_c, 1, 45, 64
1, 14775, Note_off_c, 5, 67, 64
1, 14775, Note_off_c, 7, 67, 64
1, 14777, Note_off_c, 5, 58, 64
1, 14777, Note_off_c, 7, 58, 64
1, 14781, Note_off_c, 5, 52, 64
1, 14781, Note_off_c, 7, 52, 64
1, 14782, Note_on_c, 1, 43, 77
1, 14783, Note_on_c, 0, 84, 84
1, 14783, Note_off_c, 2, 57, 64
1, 14784, Note_on_c, 0, 78, 107
1, 14784, Note_off_c, 5, 62, 64
1, 14784, Note_off_c, 7, 62, 64
1, 14785, Note_on_c, 9, 51, 106
1, 14785, Note_on_c, 9, 35, 105
1, 14785, Note_on_c, 2, 55, 107
1, 14785, Note_on_c, 5, 62, 72
1, 14785, Note_on_c, 7, 62, 82
1, 14786, Note_off_c, 9, 35, 64
1, 14786, Note_off_c, 9, 51, 64
1, 14797, Pitch_bend_c, 6, 15584
1, 14800, Note_off_c, 0, 78, 64
1, 14800, Pitch_bend_c, 6, 15616
1, 14801, Note_off_c, 0, 84, 64
1, 14815, Note_on_c, 0, 84, 69
1, 14817, Note_on_c, 0, 79, 97
1, 14817, Note_off_c, 2, 55, 64
1, 14830, Note_off_c, 0, 79, 64
1, 14832, Pitch_bend_c, 6, 15648
1, 14833, Note_off_c, 0, 84, 64
1, 14844, Note_on_c, 2, 55, 113
1, 14845, Pitch_bend_c, 6, 15616
1, 14846, Note_on_c, 5, 52, 26
1, 14846, Note_on_c, 7, 52, 36
1, 14847, Note_on_c, 9, 51, 102
1, 14847, Note_on_c, 0, 84, 95
1, 14847, Note_on_c, 0, 79, 112
1, 14848, Note_off_c, 9, 51, 64
1, 14848, Note_off_c, 5, 62, 64
1, 14848, Note_on_c, 5, 58, 59
1, 14848, Note_off_c, 7, 62, 64
1, 14848, Note_on_c, 7, 58, 69
1, 14851, Pitch_bend_c, 6, 15584
1, 14854, Pitch_bend_c, 6, 15552
1, 14857, Pitch_bend_c, 6, 15488
1, 14861, Pitch_bend_c, 6, 15392
1, 14863, Pitch_bend_c, 6, 15136
1, 14864, Note_off_c, 0, 84, 64
1, 14866, Note_off_c, 0, 79, 64
1, 14866, Pitch_bend_c, 6, 14720
1, 14869, Pitch_bend_c, 6, 14144
1, 14872, Pitch_bend_c, 6, 13376
1, 14875, Note_off_c, 5, 58, 64
1, 14875, Note_off_c, 7, 58, 64
1, 14875, Pitch_bend_c, 6, 12544
1, 14877, Note_off_c, 2, 55, 64
1, 14879, Note_on_c, 9, 38, 110
1, 14879, Note_on_c, 1, 40, 91
1, 14879, Note_on_c, 0, 84, 90
1, 14879, Note_on_c, 0, 78, 107
1, 14879, Note_on_c, 2, 52, 114
1, 14879, Note_on_c, 5, 58, 68
1, 14879, Note_on_c, 5, 62, 80
1, 14879, Note_on_c, 7, 58, 78
1, 14879, Note_on_c, 7, 62, 90
1, 14879, Note_off_c, 6, 72, 64
1, 14880, Note_off_c, 9, 38, 64
1, 14880, Note_on_c, 9, 51, 106
1, 14881, Note_off_c, 9, 51, 64
1, 14881, Note_on_c, 5, 67, 68
1, 14881, Note_on_c, 7, 67, 78
1, 14884, Pitch_bend_c, 6, 8192
1, 14885, Note_off_c, 1, 43, 64
1, 14886, Note_on_c, 6, 72, 119
1, 14892, Pitch_bend_c, 6, 8832
1, 14895, Pitch_bend_c, 6, 8800
1, 14896, Note_off_c, 0, 78, 64
1, 14898, Pitch_bend_c, 6, 8704
1, 14901, Pitch_bend_c, 6, 8640
1, 14904, Pitch_bend_c, 6, 8512
1, 14907, Pitch_bend_c, 6, 8448
1, 14910, Pitch_bend_c, 6, 8704
1, 14911, Note_on_c, 0, 79, 88
1, 14911, Note_off_c, 6, 72, 64
1, 14914, Note_off_c, 2, 52, 64
1, 14916, Pitch_bend_c, 6, 8192
1, 14917, Note_on_c, 6, 70, 115
1, 14922, Note_off_c, 5, 67, 64
1, 14922, Note_off_c, 7, 67, 64
1, 14923, Note_off_c, 0, 79, 64
1, 14923, Pitch_bend_c, 6, 8512
1, 14924, Note_off_c, 5, 58, 64
1, 14924, Note_off_c, 7, 58, 64
1, 14925, Note_off_c, 0, 84, 64
1, 14926, Note_off_c, 5, 62, 64
1, 14926, Note_off_c, 7, 62, 64
1, 14926, Pitch_bend_c, 6, 8544
1, 14928, Note_off_c, 5, 52, 64
1, 14928, Note_off_c, 7, 52, 64
1, 14935, Pitch_bend_c, 6, 8576
1, 14938, Pitch_bend_c, 6, 8448
1, 14940, Note_off_c, 6, 70, 64
1, 14940, Pitch_bend_c, 6, 8544
1, 14941, Note_on_c, 2, 52, 113
1, 14942, Pitch_bend_c, 6, 8192
1, 14943, Note_on_c, 9, 51, 102
1, 14943, Note_on_c, 0, 79, 93
1, 14943, Note_on_c, 0, 84, 80
1, 14943, Note_on_c, 6, 72, 114
1, 14944, Note_off_c, 9, 51, 64
1, 14944, Pitch_bend_c, 6, 8448
1, 14946, Pitch_bend_c, 6, 8480
1, 14952, Pitch_bend_c, 6, 8448
1, 14955, Pitch_bend_c, 6, 8416
1, 14956, Note_off_c, 0, 79, 64
1, 14958, Note_off_c, 0, 84, 64
1, 14958, Pitch_bend_c, 6, 8352
1, 14961, Pitch_bend_c, 6, 8320
1, 14967, Pitch_bend_c, 6, 8352
1, 14970, Pitch_bend_c, 6, 8416
1, 14971, Note_off_c, 1, 40, 64
1, 14973, Pitch_bend_c, 6, 8224
1, 14975, Note_on_c, 9, 51, 102
1, 14975, Note_on_c, 9, 35, 106
1, 14975, Note_on_c, 1, 31, 76
1, 14975, Note_on_c, 0, 91, 122
1, 14975, Note_on_c, 0, 85, 114
1, 14975, Note_on_c, 0, 55, 81
1, 14975, Note_on_c, 0, 62, 76
1, 14975, Note_on_c, 2, 43, 111
1, 14975, Pitch_bend_c, 6, 8032
1, 14976, Note_off_c, 9, 35, 64
1, 14976, Note_off_c, 9, 51, 64
1, 14976, Pitch_bend_c, 6, 8192
1, 14977, Note_off_c, 2, 52, 64
1, 14977, Note_on_c, 6, 67, 115
1, 14978, Note_on_c, 5, 59, 43
1, 14978, Note_on_c, 7, 59, 53
1, 14978, Note_off_c, 6, 72, 64
1, 14978, Pitch_bend_c, 6, 8928
1, 14980, Note_on_c, 5, 62, 49
1, 14980, Note_on_c, 7, 62, 59
1, 14985, Pitch_bend_c, 6, 8864
1, 14986, Note_off_c, 0, 62, 64
1, 14987, Pitch_bend_c, 6, 8800
1, 14990, Pitch_bend_c, 6, 8736
1, 14991, Note_off_c, 0, 85, 64
1, 14992, Note_off_c, 0, 55, 64
1, 14993, Note_off_c, 0, 91, 64
1, 14993, Pitch_bend_c, 6, 8704
1, 14996, Pitch_bend_c, 6, 8608
1, 14999, Pitch_bend_c, 6, 8544
1, 15002, Pitch_bend_c, 6, 8448
1, 15004, Pitch_bend_c, 6, 8064
1, 15007, Note_on_c, 0, 91, 51
1, 15007, Note_on_c, 0, 86, 102
1, 15008, Note_on_c, 6, 71, 117
1, 15010, Note_off_c, 2, 43, 64
1, 15010, Note_off_c, 6, 67, 64
1, 15014, Pitch_bend_c, 6, 8832
1, 15017, Pitch_bend_c, 6, 8864
1, 15020, Pitch_bend_c, 6, 8928
1, 15022, Pitch_bend_c, 6, 8960
1, 15023, Note_off_c, 0, 86, 64
1, 15024, Note_off_c, 0, 91, 64
1, 15028, Pitch_bend_c, 6, 8928
1, 15031, Pitch_bend_c, 6, 8768
1, 15034, Note_off_c, 5, 59, 64
1, 15034, Note_off_c, 7, 59, 64
1, 15034, Pitch_bend_c, 6, 8608
1, 15035, Note_off_c, 6, 71, 64
1, 15035, Pitch_bend_c, 6, 8928
1, 15037, Note_on_c, 5, 55, 19
1, 15037, Note_on_c, 7, 55, 29
1, 15038, Note_on_c, 2, 43, 107
1, 15039, Note_on_c, 9, 51, 99
1, 15039, Note_on_c, 0, 79, 105
1, 15039, Pitch_bend_c, 6, 8192
1, 15040, Note_off_c, 9, 51, 64
1, 15041, Note_on_c, 6, 74, 114
1, 15041, Pitch_bend_c, 6, 8320
1, 15042, Note_on_c, 5, 59, 30
1, 15042, Note_on_c, 7, 59, 40
1, 15043, Pitch_bend_c, 6, 8384
1, 15047, Pitch_bend_c, 6, 8448
1, 15050, Pitch_bend_c, 6, 8512
1, 15052, Pitch_bend_c, 6, 8544
1, 15055, Pitch_bend_c, 6, 8576
1, 15056, Note_off_c, 0, 79, 64
1, 15058, Pitch_bend_c, 6, 8544
1, 15061, Pitch_bend_c, 6, 8576
1, 15064, Pitch_bend_c, 6, 8640
1, 15067, Note_off_c, 5, 59, 64
1, 15067, Note_off_c, 5, 62, 64
1, 15067, Note_off_c, 7, 59, 64
1, 15067, Note_off_c, 7, 62, 64
1, 15070, Note_on_c, 5, 59, 61
1, 15070, Note_on_c, 7, 59, 71
1, 15071, Note_on_c, 9, 51, 104
1, 15071, Note_on_c, 1, 35, 85
1, 15071, Note_on_c, 0, 91, 110
1, 15071, Note_on_c, 0, 85, 109
1, 15071, Note_on_c, 0, 79, 64
1, 15071, Note_on_c, 5, 62, 81
1, 15071, Note_on_c, 7, 62, 91
1, 15072, Note_off_c, 9, 51, 64
1, 15072, Note_off_c, 2, 43, 64
1, 15072, Pitch_bend_c, 6, 8832
1, 15073, Note_on_c, 9, 38, 112
1, 15073, Note_on_c, 2, 47, 112
1, 15073, Note_on_c, 5, 67, 68
1, 15073, Note_on_c, 7, 67, 78
1, 15074, Note_off_c, 9, 38, 64
1, 15075, Pitch_bend_c, 6, 9024
1, 15077, Note_off_c, 1, 31, 64
1, 15078, Pitch_bend_c, 6, 5120
1, 15082, Note_off_c, 0, 79, 64
1, 15084, Pitch_bend_c, 6, 5152
1, 15086, Note_off_c, 0, 85, 64
1, 15091, Note_off_c, 0, 91, 64
1, 15093, Pitch_bend_c, 6, 5216
1, 15096, Pitch_bend_c, 6, 5152
1, 15099, Pitch_bend_c, 6, 5088
1, 15101, Pitch_bend_c, 6, 4960
1, 15103, Note_on_c, 0, 91, 58
1, 15103, Note_on_c, 0, 86, 94
1, 15103, Note_off_c, 6, 74, 64
1, 15103, Pitch_bend_c, 6, 5152
1, 15105, Note_off_c, 2, 47, 64
1, 15109, Pitch_bend_c, 6, 8192
1, 15110, Note_on_c, 6, 71, 113
1, 15111, Pitch_bend_c, 6, 8928
1, 15112, Pitch_bend_c, 6, 8992
1, 15116, Note_off_c, 0, 91, 64
1, 15119, Pitch_bend_c, 6, 8960
1, 15120, Note_off_c, 0, 86, 64
1, 15122, Note_off_c, 5, 67, 64
1, 15122, Note_off_c, 7, 67, 64
1, 15127, Pitch_bend_c, 6, 8992
1, 15134, Note_on_c, 2, 47, 105
1, 15134, Note_off_c, 6, 71, 64
1, 15135, Note_on_c, 9, 51, 102
1, 15135, Note_on_c, 0, 79, 90
1, 15135, Note_off_c, 5, 59, 64
1, 15135, Note_off_c, 7, 59, 64
1, 15136, Note_off_c, 9, 51, 64
1, 15136, Note_off_c, 5, 62, 64
1, 15136, Note_on_c, 5, 59, 63
1, 15136, Note_off_c, 7, 62, 64
1, 15136, Note_on_c, 7, 59, 73
1, 15137, Note_on_c, 5, 62, 77
1, 15137, Note_on_c, 7, 62, 87
1, 15138, Pitch_bend_c, 6, 8192
1, 15139, Note_on_c, 5, 67, 26
1, 15139, Note_on_c, 7, 67, 36
1, 15139, Note_on_c, 6, 72, 101
1, 15139, Pitch_bend_c, 6, 8896
1, 15140, Pitch_bend_c, 6, 8864
1, 15144, Pitch_bend_c, 6, 8832
1, 15147, Pitch_bend_c, 6, 8800
1, 15150, Note_off_c, 5, 67, 64
1, 15150, Note_off_c, 5, 59, 64
1, 15150, Note_off_c, 7, 67, 64
1, 15150, Note_off_c, 7, 59, 64
1, 15150, Pitch_bend_c, 6, 8704
1, 15151, Note_off_c, 5, 62, 64
1, 15151, Note_off_c, 7, 62, 64
1, 15152, Pitch_bend_c, 6, 8544
1, 15153, Note_off_c, 5, 55, 64
1, 15153, Note_off_c, 7, 55, 64
1, 15154, Note_off_c, 0, 79, 64
1, 15156, Pitch_bend_c, 6, 8448
1, 15158, Pitch_bend_c, 6, 8320
1, 15161, Pitch_bend_c, 6, 8192
1, 15163, Pitch_bend_c, 6, 8704
1, 15164, Note_off_c, 6, 72, 64
1, 15166, Note_on_c, 1, 38, 81
1, 15167, Note_on_c, 0, 62, 89
1, 15167, Note_on_c, 0, 55, 95
1, 15167, Note_on_c, 0, 79, 64
1, 15168, Note_off_c, 2, 47, 64
1, 15169, Note_on_c, 9, 51, 102
1, 15169, Note_on_c, 9, 35, 105
1, 15169, Note_on_c, 0, 91, 76
1, 15169, Note_on_c, 2, 50, 109
1, 15169, Pitch_bend_c, 6, 8192
1, 15170, Note_off_c, 9, 35, 64
1, 15170, Note_off_c, 9, 51, 64
1, 15171, Note_on_c, 6, 73, 117
1, 15173, Note_off_c, 1, 35, 64
1, 15173, Note_off_c, 0, 91, 64
1, 15177, Pitch_bend_c, 6, 8928
1, 15180, Note_off_c, 0, 62, 64
1, 15180, Pitch_bend_c, 6, 8896
1, 15183, Pitch_bend_c, 6, 12640
1, 15184, Note_off_c, 0, 55, 64
1, 15187, Note_off_c, 0, 79, 64
1, 15194, Pitch_bend_c, 6, 12608
1, 15199, Note_off_c, 2, 50, 64
1, 15199, Note_off_c, 6, 73, 64
1, 15200, Note_on_c, 0, 91, 118
1, 15200, Note_on_c, 0, 85, 111
1, 15201, Note_on_c, 0, 79, 70
1, 15205, Pitch_bend_c, 6, 8192
1, 15208, Note_on_c, 6, 71, 101
1, 15208, Pitch_bend_c, 6, 8640
1, 15212, Note_off_c, 0, 79, 64
1, 15214, Note_off_c, 0, 85, 64
1, 15222, Pitch_bend_c, 6, 8800
1, 15228, Note_off_c, 6, 71, 64
1, 15229, Note_on_c, 5, 55, 23
1, 15229, Note_on_c, 7, 55, 33
1, 15230, Note_on_c, 2, 50, 107
1, 15230, Note_on_c, 5, 59, 40
1, 15230, Note_on_c, 7, 59, 50
1, 15231, Note_on_c, 9, 51, 99
1, 15231, Pitch_bend_c, 6, 8192
1, 15232, Note_off_c, 9, 51, 64
1, 15232, Note_on_c, 6, 72, 106
1, 15233, Note_on_c, 0, 86, 97
1, 15249, Note_off_c, 0, 86, 64
1, 15254, Note_off_c, 0, 91, 64
1, 15259, Note_off_c, 5, 59, 64
1, 15259, Note_off_c, 7, 59, 64
1, 15259, Note_on_c, 6, 71, 115
1, 15260, Pitch_bend_c, 6, 8416
1, 15262, Note_on_c, 1, 40, 90
1, 15262, Note_off_c, 2, 50, 64
1, 15262, Pitch_bend_c, 6, 8576
1, 15263, Note_on_c, 9, 38, 108
1, 15263, Note_on_c, 5, 62, 73
1, 15263, Note_on_c, 7, 62, 83
1, 15263, Note_off_c, 6, 72, 64
1, 15264, Note_off_c, 9, 38, 64
1, 15264, Note_on_c, 0, 79, 90
1, 15265, Note_on_c, 9, 51, 108
1, 15265, Note_on_c, 0, 55, 63
1, 15265, Note_on_c, 2, 52, 113
1, 15265, Note_on_c, 5, 67, 55
1, 15265, Note_on_c, 7, 67, 65
1, 15265, Pitch_bend_c, 6, 8544
1, 15266, Note_off_c, 9, 51, 64
1, 15268, Pitch_bend_c, 6, 8384
1, 15270, Note_off_c, 1, 38, 64
1, 15271, Note_off_c, 0, 55, 64
1, 15272, Pitch_bend_c, 6, 12320
1, 15274, Pitch_bend_c, 6, 12384
1, 15278, Pitch_bend_c, 6, 12448
1, 15280, Pitch_bend_c, 6, 12512
1, 15283, Pitch_bend_c, 6, 12544
1, 15286, Pitch_bend_c, 6, 12512
1, 15289, Pitch_bend_c, 6, 12224
1, 15290, Note_off_c, 0, 79, 64
1, 15292, Note_off_c, 6, 71, 64
1, 15292, Pitch_bend_c, 6, 12448
1, 15297, Note_on_c, 0, 91, 114
1, 15297, Note_on_c, 0, 86, 118
1, 15298, Pitch_bend_c, 6, 8192
1, 15299, Note_on_c, 6, 70, 115
1, 15300, Note_off_c, 2, 52, 64
1, 15317, Note_off_c, 0, 86, 64
1, 15322, Note_off_c, 0, 91, 64
1, 15323, Note_off_c, 5, 62, 64
1, 15323, Note_off_c, 7, 62, 64
1, 15325, Note_on_c, 2, 52, 107
1, 15325, Note_on_c, 5, 59, 73
1, 15325, Note_on_c, 7, 59, 83
1, 15326, Note_on_c, 5, 62, 61
1, 15326, Note_on_c, 7, 62, 71
1, 15326, Note_off_c, 6, 70, 64
1, 15327, Note_on_c, 9, 51, 97
1, 15328, Note_off_c, 9, 51, 64
1, 15328, Note_on_c, 0, 62, 83
1, 15329, Note_on_c, 0, 55, 76
1, 15329, Note_on_c, 0, 79, 97
1, 15333, Note_on_c, 6, 62, 104
1, 15335, Note_on_c, 6, 67, 66
1, 15337, Note_off_c, 0, 55, 64
1, 15339, Note_off_c, 0, 62, 64
1, 15347, Note_off_c, 0, 79, 64
1, 15355, Note_off_c, 5, 59, 64
1, 15355, Note_off_c, 7, 59, 64
1, 15357, Note_off_c, 5, 62, 64
1, 15357, Note_off_c, 7, 62, 64
1, 15358, Note_off_c, 5, 67, 64
1, 15358, Note_off_c, 7, 67, 64
1, 15358, Note_off_c, 6, 62, 64
1, 15359, Note_on_c, 9, 51, 102
1, 15359, Note_on_c, 9, 35, 105
1, 15359, Note_on_c, 1, 43, 83
1, 15359, Note_on_c, 0, 91, 122
1, 15359, Note_on_c, 0, 86, 122
1, 15359, Note_on_c, 2, 55, 118
1, 15359, Note_on_c, 5, 62, 70
1, 15359, Note_on_c, 7, 62, 80
1, 15360, Note_off_c, 9, 35, 64
1, 15360, Note_off_c, 9, 51, 64
1, 15360, Note_off_c, 1, 40, 64
1, 15360, Note_off_c, 2, 52, 64
1, 15360, Note_off_c, 6, 67, 64
1, 15361, Note_on_c, 5, 67, 23
1, 15361, Note_on_c, 7, 67, 33
1, 15364, Note_on_c, 6, 62, 104
1, 15367, Note_on_c, 6, 67, 74
1, 15391, Note_off_c, 0, 91, 64
1, 15392, Note_on_c, 0, 79, 94
1, 15393, Note_off_c, 0, 86, 64
1, 15393, Note_off_c, 6, 67, 64
1, 15394, Note_off_c, 2, 55, 64
1, 15398, Note_on_c, 6, 67, 108
1, 15398, Note_on_c, 6, 71, 100
1, 15410, Note_off_c, 0, 79, 64
1, 15410, Note_off_c, 6, 62, 64
1, 15415, Note_off_c, 6, 71, 64
1, 15415, Note_off_c, 6, 67, 64
1, 15418, Note_on_c, 6, 73, 109
1, 15421, Note_on_c, 2, 55, 108
1, 15423, Note_on_c, 9, 51, 94
1, 15424, Note_off_c, 9, 51, 64
1, 15425, Note_on_c, 0, 91, 127
1, 15425, Note_on_c, 0, 86, 127
1, 15435, Note_off_c, 6, 73, 64
1, 15446, Note_off_c, 0, 86, 64
1, 15448, Note_off_c, 0, 91, 64
1, 15450, Note_on_c, 6, 73, 113
1, 15451, Pitch_bend_c, 6, 8864
1, 15453, Pitch_bend_c, 6, 8736
1, 15454, Note_off_c, 5, 67, 64
1, 15454, Note_off_c, 5, 62, 64
1, 15454, Note_on_c, 5, 59, 70
1, 15454, Note_off_c, 7, 67, 64
1, 15454, Note_off_c, 7, 62, 64
1, 15454, Note_on_c, 7, 59, 80
1, 15454, Pitch_bend_c, 6, 8704
1, 15455, Note_on_c, 9, 51, 104
1, 15455, Note_on_c, 9, 38, 106
1, 15455, Note_off_c, 1, 43, 64
1, 15455, Note_on_c, 1, 40, 86
1, 15455, Note_on_c, 0, 62, 96
1, 15455, Note_on_c, 0, 55, 98
1, 15455, Note_off_c, 2, 55, 64
1, 15455, Note_on_c, 5, 62, 88
1, 15455, Note_on_c, 7, 62, 98
1, 15456, Note_off_c, 9, 38, 64
1, 15456, Note_off_c, 9, 51, 64
1, 15456, Note_on_c, 0, 79, 88
1, 15456, Note_on_c, 2, 52, 113
1, 15456, Note_on_c, 5, 67, 77
1, 15456, Note_on_c, 7, 67, 87
1, 15457, Pitch_bend_c, 6, 8736
1, 15459, Pitch_bend_c, 6, 8896
1, 15462, Pitch_bend_c, 6, 9216
1, 15465, Pitch_bend_c, 6, 9760
1, 15467, Note_off_c, 0, 55, 64
1, 15467, Note_off_c, 0, 62, 64
1, 15468, Pitch_bend_c, 6, 10432
1, 15471, Pitch_bend_c, 6, 11200
1, 15474, Pitch_bend_c, 6, 11808
1, 15477, Note_off_c, 0, 79, 64
1, 15477, Pitch_bend_c, 6, 12128
1, 15480, Pitch_bend_c, 6, 11808
1, 15484, Note_off_c, 6, 73, 64
1, 15484, Pitch_bend_c, 6, 11200
1, 15488, Note_on_c, 0, 91, 120
1, 15489, Note_on_c, 0, 86, 118
1, 15489, Note_off_c, 2, 52, 64
1, 15489, Pitch_bend_c, 6, 8192
1, 15490, Note_on_c, 6, 71, 111
1, 15508, Note_off_c, 0, 86, 64
1, 15510, Note_off_c, 0, 91, 64
1, 15512, Note_off_c, 6, 71, 64
1, 15513, Note_off_c, 5, 59, 64
1, 15513, Note_off_c, 7, 59, 64
1, 15517, Note_on_c, 2, 52, 111
1, 15517, Note_off_c, 5, 62, 64
1, 15517, Note_on_c, 5, 59, 68
1, 15517, Note_off_c, 7, 62, 64
1, 15517, Note_on_c, 7, 59, 78
1, 15517, Note_on_c, 6, 72, 112
1, 15518, Note_off_c, 5, 67, 64
1, 15518, Note_on_c, 5, 62, 81
1, 15518, Note_off_c, 7, 67, 64
1, 15518, Note_on_c, 7, 62, 91
1, 15519, Note_on_c, 9, 51, 99
1, 15519, Note_on_c, 0, 79, 100
1, 15520, Note_off_c, 9, 51, 64
1, 15531, Note_off_c, 5, 62, 64
1, 15531, Note_off_c, 7, 62, 64
1, 15537, Note_off_c, 5, 59, 64
1, 15537, Note_off_c, 7, 59, 64
1, 15538, Note_off_c, 5, 55, 64
1, 15538, Note_off_c, 7, 55, 64
1, 15539, Note_off_c, 0, 79, 64
1, 15541, Note_off_c, 6, 72, 64
1, 15547, Note_on_c, 6, 73, 113
1, 15548, Note_off_c, 2, 52, 64
1, 15550, Note_on_c, 1, 38, 94
1, 15551, Note_on_c, 9, 51, 102
1, 15551, Note_on_c, 9, 35, 107
1, 15551, Note_on_c, 0, 91, 127
1, 15551, Note_on_c, 0, 86, 127
1, 15551, Note_on_c, 2, 50, 112
1, 15552, Note_off_c, 9, 35, 64
1, 15552, Note_off_c, 9, 51, 64
1, 15553, Note_off_c, 1, 40, 64
1, 15556, Pitch_bend_c, 6, 12128
1, 15558, Pitch_bend_c, 6, 12160
1, 15562, Pitch_bend_c, 6, 12224
1, 15576, Pitch_bend_c, 6, 12288
1, 15577, Note_off_c, 0, 91, 64
1, 15578, Note_off_c, 0, 86, 64
1, 15579, Pitch_bend_c, 6, 12384
1, 15582, Note_off_c, 2, 50, 64
1, 15582, Pitch_bend_c, 6, 12288
1, 15583, Note_on_c, 0, 79, 80
1, 15583, Note_off_c, 6, 73, 64
1, 15589, Pitch_bend_c, 6, 8192
1, 15590, Note_on_c, 6, 71, 96
1, 15590, Pitch_bend_c, 6, 8704
1, 15603, Note_off_c, 0, 79, 64
1, 15611, Note_on_c, 5, 55, 32
1, 15611, Note_on_c, 7, 55, 42
1, 15613, Note_on_c, 5, 59, 56
1, 15613, Note_on_c, 7, 59, 66
1, 15614, Note_on_c, 2, 50, 109
1, 15614, Note_off_c, 6, 71, 64
1, 15615, Note_on_c, 9, 51, 96
1, 15615, Note_on_c, 0, 91, 127
1, 15615, Note_on_c, 0, 86, 120
1, 15616, Note_off_c, 9, 51, 64
1, 15617, Pitch_bend_c, 6, 8192
1, 15617, Note_on_c, 6, 72, 101
1, 15618, Pitch_bend_c, 6, 8480
1, 15619, Pitch_bend_c, 6, 8448
1, 15629, Pitch_bend_c, 6, 8416
1, 15631, Pitch_bend_c, 6, 8352
1, 15639, Note_off_c, 0, 86, 64
1, 15640, Note_off_c, 0, 91, 64
1, 15643, Note_off_c, 5, 59, 64
1, 15643, Note_off_c, 7, 59, 64
1, 15645, Note_on_c, 5, 59, 70
1, 15645, Note_on_c, 7, 59, 80
1, 15645, Note_off_c, 6, 72, 64
1, 15646, Note_off_c, 2, 50, 64
1, 15646, Note_on_c, 5, 62, 89
1, 15646, Note_on_c, 7, 62, 99
1, 15647, Note_on_c, 9, 51, 106
1, 15647, Note_on_c, 1, 35, 85
1, 15647, Note_on_c, 0, 79, 98
1, 15647, Note_on_c, 0, 62, 108
1, 15647, Note_on_c, 0, 55, 116
1, 15647, Note_on_c, 2, 52, 112
1, 15647, Note_on_c, 5, 67, 80
1, 15647, Note_on_c, 7, 67, 90
1, 15648, Note_off_c, 9, 51, 64
1, 15649, Note_on_c, 9, 38, 118
1, 15649, Pitch_bend_c, 6, 8192
1, 15650, Note_off_c, 9, 38, 64
1, 15650, Note_off_c, 1, 38, 64
1, 15650, Note_on_c, 6, 73, 108
1, 15651, Pitch_bend_c, 6, 8512
1, 15652, Pitch_bend_c, 6, 8352
1, 15656, Pitch_bend_c, 6, 8672
1, 15659, Pitch_bend_c, 6, 12288
1, 15662, Pitch_bend_c, 6, 12352
1, 15663, Note_off_c, 0, 62, 64
1, 15665, Pitch_bend_c, 6, 12288
1, 15670, Note_off_c, 0, 79, 64
1, 15679, Note_on_c, 0, 91, 116
1, 15679, Note_on_c, 0, 86, 116
1, 15679, Pitch_bend_c, 6, 12352
1, 15680, Note_off_c, 2, 52, 64
1, 15682, Note_on_c, 0, 62, 90
1, 15682, Pitch_bend_c, 6, 12384
1, 15683, Note_off_c, 5, 67, 64
1, 15683, Note_off_c, 7, 67, 64
1, 15683, Note_off_c, 6, 73, 64
1, 15688, Note_off_c, 5, 62, 64
1, 15688, Note_off_c, 7, 62, 64
1, 15690, Note_on_c, 6, 71, 106
1, 15690, Pitch_bend_c, 6, 8544
1, 15691, Note_off_c, 5, 59, 64
1, 15691, Note_off_c, 7, 59, 64
1, 15691, Pitch_bend_c, 6, 8608
1, 15695, Note_off_c, 0, 62, 64
1, 15697, Note_off_c, 5, 55, 64
1, 15697, Note_off_c, 7, 55, 64
1, 15704, Note_off_c, 0, 55, 64
1, 15704, Note_off_c, 0, 91, 64
1, 15710, Note_on_c, 2, 52, 103
1, 15711, Note_on_c, 9, 51, 87
1, 15711, Note_on_c, 0, 79, 98
1, 15712, Note_off_c, 9, 51, 64
1, 15714, Note_off_c, 0, 86, 64
1, 15714, Note_off_c, 6, 71, 64
1, 15715, Note_on_c, 6, 72, 111
1, 15723, Note_off_c, 1, 35, 64
1, 15733, Note_off_c, 0, 79, 64
1, 15733, Pitch_bend_c, 6, 8512
1, 15735, Pitch_bend_c, 6, 8416
1, 15740, Note_on_c, 5, 54, 19
1, 15740, Note_on_c, 7, 54, 29
1, 15742, Note_on_c, 5, 60, 54
1, 15742, Note_on_c, 7, 60, 64
1, 15742, Note_off_c, 6, 72, 64
1, 15743, Note_on_c, 9, 51, 112
1, 15743, Note_on_c, 0, 50, 91
1, 15743, Note_on_c, 2, 57, 118
1, 15744, Note_off_c, 9, 51, 64
1, 15744, Note_on_c, 1, 38, 105
1, 15744, Note_on_c, 5, 64, 65
1, 15744, Note_on_c, 7, 64, 75
1, 15745, Note_on_c, 9, 35, 107
1, 15746, Note_off_c, 9, 35, 64
1, 15747, Note_off_c, 2, 52, 64
1, 15749, Pitch_bend_c, 6, 8192
1, 15750, Note_on_c, 6, 72, 116
1, 15752, Pitch_bend_c, 6, 8864
1, 15753, Pitch_bend_c, 6, 9056
1, 15756, Pitch_bend_c, 6, 9088
1, 15762, Pitch_bend_c, 6, 9120
1, 15765, Pitch_bend_c, 6, 9280
1, 15768, Pitch_bend_c, 6, 9472
1, 15771, Pitch_bend_c, 6, 9664
1, 15774, Pitch_bend_c, 6, 9888
1, 15776, Pitch_bend_c, 6, 10080
1, 15779, Pitch_bend_c, 6, 10272
1, 15782, Pitch_bend_c, 6, 10432
1, 15785, Pitch_bend_c, 6, 10624
1, 15788, Pitch_bend_c, 6, 10816
1, 15791, Pitch_bend_c, 6, 11040
1, 15793, Pitch_bend_c, 6, 11296
1, 15796, Pitch_bend_c, 6, 11616
1, 15799, Pitch_bend_c, 6, 11872
1, 15802, Pitch_bend_c, 6, 12128
1, 15805, Note_off_c, 5, 54, 64
1, 15805, Note_off_c, 7, 54, 64
1, 15805, Pitch_bend_c, 6, 12352
1, 15806, Note_off_c, 5, 60, 64
1, 15806, Note_on_c, 5, 54, 37
1, 15806, Note_off_c, 7, 60, 64
1, 15806, Note_on_c, 7, 54, 47
1, 15807, Note_on_c, 9, 51, 92
1, 15807, Note_on_c, 0, 86, 127
1, 15807, Note_on_c, 0, 81, 127
1, 15808, Note_off_c, 9, 51, 64
1, 15808, Pitch_bend_c, 6, 12512
1, 15811, Pitch_bend_c, 6, 12640
1, 15813, Note_off_c, 0, 50, 64
1, 15814, Pitch_bend_c, 6, 12704
1, 15816, Note_off_c, 2, 57, 64
1, 15816, Pitch_bend_c, 6, 12800
1, 15819, Pitch_bend_c, 6, 12832
1, 15822, Pitch_bend_c, 6, 12928
1, 15825, Pitch_bend_c, 6, 13024
1, 15826, Note_off_c, 0, 81, 64
1, 15827, Note_off_c, 0, 86, 64
1, 15828, Note_off_c, 1, 38, 64
1, 15828, Pitch_bend_c, 6, 13152
1, 15831, Pitch_bend_c, 6, 13280
1, 15832, Note_off_c, 5, 64, 64
1, 15832, Note_off_c, 7, 64, 64
1, 15833, Pitch_bend_c, 6, 13440
1, 15836, Pitch_bend_c, 6, 13600
1, 15838, Note_on_c, 5, 60, 70
1, 15838, Note_on_c, 7, 60, 80
1, 15839, Note_on_c, 9, 51, 106
1, 15839, Note_on_c, 9, 38, 112
1, 15839, Note_on_c, 1, 38, 97
1, 15839, Note_on_c, 2, 53, 127
1, 15839, Note_on_c, 5, 64, 85
1, 15839, Note_on_c, 5, 69, 72
1, 15839, Note_on_c, 7, 64, 95
1, 15839, Note_on_c, 7, 69, 82
1, 15839, Pitch_bend_c, 6, 13728
1, 15840, Note_off_c, 9, 38, 64
1, 15840, Note_off_c, 9, 51, 64
1, 15842, Pitch_bend_c, 6, 13888
1, 15845, Pitch_bend_c, 6, 14016
1, 15847, Pitch_bend_c, 6, 14144
1, 15851, Pitch_bend_c, 6, 14208
1, 15853, Pitch_bend_c, 6, 14304
1, 15856, Pitch_bend_c, 6, 14368
1, 15860, Pitch_bend_c, 6, 14400
1, 15865, Pitch_bend_c, 6, 14464
1, 15871, Pitch_bend_c, 6, 14496
1, 15874, Pitch_bend_c, 6, 14528
1, 15877, Pitch_bend_c, 6, 14560
1, 15880, Pitch_bend_c, 6, 14624
1, 15883, Pitch_bend_c, 6, 14688
1, 15886, Pitch_bend_c, 6, 14720
1, 15888, Pitch_bend_c, 6, 14816
1, 15891, Pitch_bend_c, 6, 14848
1, 15894, Pitch_bend_c, 6, 14880
1, 15896, Note_off_c, 2, 53, 64
1, 15897, Pitch_bend_c, 6, 14976
1, 15900, Note_off_c, 5, 60, 64
1, 15900, Note_off_c, 7, 60, 64
1, 15900, Pitch_bend_c, 6, 15008
1, 15902, Note_on_c, 2, 54, 105
1, 15902, Note_off_c, 5, 64, 64
1, 15902, Note_on_c, 5, 60, 67
1, 15902, Note_off_c, 7, 64, 64
1, 15902, Note_on_c, 7, 60, 77
1, 15903, Note_on_c, 9, 51, 99
1, 15903, Note_on_c, 0, 81, 127
1, 15903, Note_on_c, 0, 86, 127
1, 15903, Note_on_c, 0, 74, 127
1, 15903, Note_on_c, 0, 50, 104
1, 15903, Note_on_c, 0, 57, 97
1, 15903, Note_on_c, 5, 64, 79
1, 15903, Note_on_c, 7, 64, 89
1, 15903, Pitch_bend_c, 6, 15072
1, 15904, Note_off_c, 9, 51, 64
1, 15904, Note_off_c, 5, 69, 64
1, 15904, Note_off_c, 7, 69, 64
1, 15906, Pitch_bend_c, 6, 15104
1, 15908, Pitch_bend_c, 6, 15136
1, 15914, Pitch_bend_c, 6, 15168
1, 15916, Pitch_bend_c, 6, 15232
1, 15919, Pitch_bend_c, 6, 15264
1, 15924, Note_off_c, 1, 38, 64
1, 15925, Pitch_bend_c, 6, 15296
1, 15928, Pitch_bend_c, 6, 15264
1, 15931, Pitch_bend_c, 6, 15232
1, 15934, Note_on_c, 1, 38, 99
1, 15934, Note_off_c, 5, 64, 64
1, 15934, Note_off_c, 5, 60, 64
1, 15934, Note_off_c, 7, 64, 64
1, 15934, Note_off_c, 7, 60, 64
1, 15934, Pitch_bend_c, 6, 15072
1, 15935, Note_on_c, 9, 51, 104
1, 15935, Note_on_c, 5, 60, 43
1, 15935, Note_on_c, 7, 60, 53
1, 15936, Note_off_c, 9, 51, 64
1, 15936, Note_on_c, 2, 57, 114
1, 15937, Note_on_c, 9, 35, 108
1, 15937, Note_off_c, 2, 54, 64
1, 15937, Note_on_c, 5, 68, 16
1, 15937, Note_off_c, 5, 68, 64
1, 15937, Note_on_c, 5, 64, 70
1, 15937, Note_on_c, 7, 68, 26
1, 15937, Note_off_c, 7, 68, 64
1, 15937, Note_on_c, 7, 64, 80
1, 15937, Pitch_bend_c, 6, 15008
1, 15938, Note_off_c, 9, 35, 64
1, 15940, Pitch_bend_c, 6, 15072
1, 15942, Note_off_c, 5, 64, 64
1, 15942, Note_off_c, 5, 60, 64
1, 15942, Note_off_c, 7, 64, 64
1, 15942, Note_off_c, 7, 60, 64
1, 15943, Note_off_c, 5, 54, 64
1, 15943, Note_off_c, 7, 54, 64
1, 15943, Pitch_bend_c, 6, 15136
1, 15945, Pitch_bend_c, 6, 15296
1, 15948, Pitch_bend_c, 6, 15328
1, 15951, Note_off_c, 0, 74, 64
1, 15952, Pitch_bend_c, 6, 15392
1, 15963, Pitch_bend_c, 6, 15456
1, 15965, Note_off_c, 0, 57, 64
1, 15966, Pitch_bend_c, 6, 15488
1, 15969, Pitch_bend_c, 6, 15552
1, 15975, Pitch_bend_c, 6, 15584
1, 15980, Pitch_bend_c, 6, 15616
1, 15986, Pitch_bend_c, 6, 15648
1, 15992, Note_off_c, 0, 86, 64
1, 15993, Note_off_c, 0, 81, 64
1, 15994, Note_off_c, 2, 57, 64
1, 15995, Pitch_bend_c, 6, 15712
1, 15996, Note_on_c, 5, 54, 58
1, 15996, Note_on_c, 7, 54, 68
1, 15997, Note_off_c, 0, 50, 64
1, 15998, Note_on_c, 2, 59, 109
1, 15998, Note_on_c, 5, 60, 37
1, 15998, Note_on_c, 7, 60, 47
1, 15999, Note_on_c, 9, 51, 96
1, 15999, Note_on_c, 0, 57, 98
1, 15999, Note_on_c, 0, 74, 77
1, 16000, Note_off_c, 9, 51, 64
1, 16008, Note_off_c, 0, 74, 64
1, 16009, Pitch_bend_c, 6, 15744
1, 16015, Note_off_c, 0, 57, 64
1, 16018, Pitch_bend_c, 6, 15776
1, 16019, Note_off_c, 1, 38, 64
1, 16026, Note_off_c, 5, 60, 64
1, 16026, Note_off_c, 7, 60, 64
1, 16026, Pitch_bend_c, 6, 15808
1, 16028, Note_off_c, 2, 59, 64
1, 16029, Note_on_c, 5, 60, 67
1, 16029, Note_on_c, 7, 60, 77
1, 16030, Note_on_c, 1, 38, 97
1, 16030, Note_on_c, 5, 64, 91
1, 16030, Note_on_c, 7, 64, 101
1, 16031, Note_on_c, 9, 51, 108
1, 16031, Note_on_c, 9, 38, 118
1, 16031, Note_on_c, 0, 74, 74
1, 16031, Note_on_c, 0, 81, 112
1, 16031, Note_on_c, 0, 86, 127
1, 16031, Note_on_c, 0, 50, 90
1, 16032, Note_off_c, 9, 38, 64
1, 16032, Note_off_c, 9, 51, 64
1, 16032, Note_on_c, 2, 57, 113
1, 16032, Note_on_c, 5, 69, 77
1, 16032, Note_on_c, 7, 69, 87
1, 16038, Pitch_bend_c, 6, 15776
1, 16044, Pitch_bend_c, 6, 15808
1, 16063, Note_off_c, 0, 74, 64
1, 16072, Pitch_bend_c, 6, 15776
1, 16081, Pitch_bend_c, 6, 15808
1, 16083, Note_off_c, 0, 50, 64
1, 16091, Note_off_c, 2, 57, 64
1, 16092, Note_off_c, 5, 64, 64
1, 16092, Note_off_c, 5, 60, 64
1, 16092, Note_off_c, 7, 64, 64
1, 16092, Note_off_c, 7, 60, 64
1, 16093, Note_on_c, 5, 60, 76
1, 16093, Note_on_c, 7, 60, 86
1, 16094, Note_on_c, 0, 57, 83
1, 16094, Note_on_c, 2, 54, 109
1, 16094, Note_off_c, 5, 69, 64
1, 16094, Note_on_c, 5, 64, 92
1, 16094, Note_off_c, 7, 69, 64
1, 16094, Note_on_c, 7, 64, 102
1, 16095, Note_on_c, 9, 51, 102
1, 16095, Note_off_c, 0, 86, 64
1, 16095, Note_on_c, 0, 74, 91
1, 16095, Note_on_c, 5, 69, 37
1, 16095, Note_on_c, 7, 69, 47
1, 16096, Note_off_c, 9, 51, 64
1, 16101, Note_off_c, 5, 69, 64
1, 16101, Note_off_c, 7, 69, 64
1, 16104, Pitch_bend_c, 6, 15776
1, 16105, Note_off_c, 5, 64, 64
1, 16105, Note_off_c, 5, 60, 64
1, 16105, Note_off_c, 7, 64, 64
1, 16105, Note_off_c, 7, 60, 64
1, 16106, Note_off_c, 0, 81, 64
1, 16107, Pitch_bend_c, 6, 15616
1, 16108, Note_off_c, 0, 74, 64
1, 16109, Pitch_bend_c, 6, 15232
1, 16110, Note_off_c, 0, 57, 64
1, 16110, Note_off_c, 5, 54, 64
1, 16110, Note_off_c, 7, 54, 64
1, 16112, Pitch_bend_c, 6, 12064
1, 16115, Pitch_bend_c, 6, 11616
1, 16118, Pitch_bend_c, 6, 9120
1, 16120, Note_off_c, 1, 38, 64
1, 16121, Note_off_c, 6, 72, 64
1, 16121, Pitch_bend_c, 6, 9088
1, 16125, Note_on_c, 1, 36, 95
1, 16127, Note_on_c, 9, 51, 102
1, 16127, Note_on_c, 9, 35, 106
1, 16127, Note_on_c, 0, 52, 102
1, 16127, Note_on_c, 0, 76, 90
1, 16127, Note_on_c, 0, 84, 122
1, 16128, Note_off_c, 9, 35, 64
1, 16128, Note_off_c, 9, 51, 64
1, 16128, Note_on_c, 2, 48, 113
1, 16128, Note_on_c, 6, 72, 112
1, 16128, Pitch_bend_c, 6, 8800
1, 16130, Note_off_c, 2, 54, 64
1, 16138, Pitch_bend_c, 6, 8416
1, 16141, Pitch_bend_c, 6, 8480
1, 16143, Pitch_bend_c, 6, 8608
1, 16146, Pitch_bend_c, 6, 8800
1, 16149, Pitch_bend_c, 6, 9024
1, 16152, Pitch_bend_c, 6, 9248
1, 16155, Pitch_bend_c, 6, 9536
1, 16158, Pitch_bend_c, 6, 9920
1, 16161, Pitch_bend_c, 6, 10240
1, 16164, Pitch_bend_c, 6, 10624
1, 16166, Pitch_bend_c, 6, 10880
1, 16168, Note_off_c, 0, 76, 64
1, 16169, Pitch_bend_c, 6, 11136
1, 16172, Pitch_bend_c, 6, 11328
1, 16173, Note_off_c, 0, 84, 64
1, 16175, Note_off_c, 0, 52, 64
1, 16175, Pitch_bend_c, 6, 11552
1, 16178, Pitch_bend_c, 6, 11744
1, 16181, Pitch_bend_c, 6, 12000
1, 16184, Note_on_c, 5, 52, 16
1, 16184, Note_on_c, 7, 52, 26
1, 16184, Pitch_bend_c, 6, 12192
1, 16186, Note_on_c, 5, 58, 40
1, 16186, Note_on_c, 7, 58, 50
1, 16186, Pitch_bend_c, 6, 12384
1, 16189, Pitch_bend_c, 6, 12608
1, 16190, Note_on_c, 0, 60, 97
1, 16190, Note_on_c, 0, 52, 77
1, 16190, Note_on_c, 5, 62, 32
1, 16190, Note_on_c, 7, 62, 42
1, 16191, Note_on_c, 9, 51, 97
1, 16191, Note_on_c, 0, 76, 96
1, 16191, Note_on_c, 0, 84, 105
1, 16192, Note_off_c, 9, 51, 64
1, 16192, Pitch_bend_c, 6, 12768
1, 16194, Pitch_bend_c, 6, 12864
1, 16198, Pitch_bend_c, 6, 13024
1, 16201, Pitch_bend_c, 6, 13152
1, 16203, Note_off_c, 0, 60, 64
1, 16203, Pitch_bend_c, 6, 13248
1, 16204, Note_off_c, 0, 84, 64
1, 16206, Pitch_bend_c, 6, 13280
1, 16207, Note_off_c, 1, 36, 64
1, 16207, Note_off_c, 0, 76, 64
1, 16207, Note_off_c, 0, 52, 64
1, 16209, Pitch_bend_c, 6, 13376
1, 16212, Pitch_bend_c, 6, 13440
1, 16215, Pitch_bend_c, 6, 13536
1, 16218, Note_off_c, 5, 52, 64
1, 16218, Note_off_c, 7, 52, 64
1, 16218, Pitch_bend_c, 6, 13632
1, 16219, Note_on_c, 5, 52, 46
1, 16219, Note_on_c, 7, 52, 56
1, 16220, Note_on_c, 1, 36, 98
1, 16220, Note_off_c, 5, 58, 64
1, 16220, Note_off_c, 7, 58, 64
1, 16221, Note_off_c, 5, 62, 64
1, 16221, Note_on_c, 5, 58, 66
1, 16221, Note_off_c, 7, 62, 64
1, 16221, Note_on_c, 7, 58, 76
1, 16221, Pitch_bend_c, 6, 13792
1, 16222, Note_on_c, 5, 62, 71
1, 16222, Note_on_c, 7, 62, 81
1, 16223, Note_on_c, 9, 51, 106
1, 16223, Note_on_c, 9, 38, 120
1, 16223, Note_off_c, 2, 48, 64
1, 16224, Note_off_c, 9, 38, 64
1, 16224, Note_off_c, 9, 51, 64
1, 16224, Pitch_bend_c, 6, 13920
1, 16225, Note_on_c, 2, 52, 121
1, 16227, Pitch_bend_c, 6, 14048
1, 16230, Pitch_bend_c, 6, 14144
1, 16232, Pitch_bend_c, 6, 14208
1, 16236, Pitch_bend_c, 6, 14304
1, 16238, Pitch_bend_c, 6, 14336
1, 16241, Pitch_bend_c, 6, 14400
1, 16244, Pitch_bend_c, 6, 14464
1, 16247, Pitch_bend_c, 6, 14496
1, 16253, Pitch_bend_c, 6, 14528
1, 16258, Pitch_bend_c, 6, 14560
1, 16261, Pitch_bend_c, 6, 14624
1, 16267, Pitch_bend_c, 6, 14656
1, 16273, Pitch_bend_c, 6, 14720
1, 16275, Pitch_bend_c, 6, 14784
1, 16278, Pitch_bend_c, 6, 14848
1, 16281, Pitch_bend_c, 6, 14880
1, 16283, Note_off_c, 5, 58, 64
1, 16283, Note_off_c, 7, 58, 64
1, 16284, Pitch_bend_c, 6, 14944
1, 16285, Note_off_c, 5, 62, 64
1, 16285, Note_off_c, 7, 62, 64
1, 16286, Note_on_c, 5, 62, 84
1, 16286, Note_on_c, 7, 62, 94
1, 16287, Note_on_c, 9, 51, 93
1, 16287, Note_on_c, 0, 72, 122
1, 16287, Note_on_c, 0, 79, 120
1, 16287, Note_on_c, 0, 52, 105
1, 16287, Note_on_c, 0, 60, 114
1, 16287, Pitch_bend_c, 6, 14976
1, 16288, Note_off_c, 9, 51, 64
1, 16288, Note_on_c, 5, 58, 66
1, 16288, Note_on_c, 7, 58, 76
1, 16289, Pitch_bend_c, 6, 15008
1, 16290, Note_on_c, 5, 67, 16
1, 16290, Note_on_c, 7, 67, 26
1, 16292, Pitch_bend_c, 6, 15072
1, 16295, Pitch_bend_c, 6, 15104
1, 16298, Pitch_bend_c, 6, 15136
1, 16302, Note_off_c, 5, 67, 64
1, 16302, Note_off_c, 5, 58, 64
1, 16302, Note_off_c, 7, 67, 64
1, 16302, Note_off_c, 7, 58, 64
1, 16307, Note_off_c, 5, 62, 64
1, 16307, Note_off_c, 7, 62, 64
1, 16311, Note_off_c, 5, 52, 64
1, 16311, Note_off_c, 7, 52, 64
1, 16315, Note_off_c, 1, 36, 64
1, 16316, Note_off_c, 2, 52, 64
1, 16318, Note_on_c, 1, 36, 77
1, 16319, Note_on_c, 9, 51, 104
1, 16319, Note_on_c, 9, 35, 107
1, 16320, Note_off_c, 9, 35, 64
1, 16320, Note_off_c, 9, 51, 64
1, 16321, Note_on_c, 2, 53, 121
1, 16321, Note_on_c, 5, 58, 16
1, 16321, Note_on_c, 7, 58, 26
1, 16323, Note_on_c, 5, 62, 67
1, 16323, Note_on_c, 7, 62, 77
1, 16330, Pitch_bend_c, 6, 15168
1, 16333, Pitch_bend_c, 6, 15232
1, 16339, Pitch_bend_c, 6, 15264
1, 16345, Pitch_bend_c, 6, 15296
1, 16363, Note_off_c, 0, 60, 64
1, 16370, Pitch_bend_c, 6, 15328
1, 16376, Note_off_c, 5, 62, 64
1, 16376, Note_off_c, 7, 62, 64
1, 16376, Pitch_bend_c, 6, 15296
1, 16379, Note_off_c, 0, 52, 64
1, 16379, Note_off_c, 5, 58, 64
1, 16379, Note_off_c, 7, 58, 64
1, 16379, Pitch_bend_c, 6, 15328
1, 16381, Note_on_c, 5, 52, 19
1, 16381, Note_on_c, 7, 52, 29
1, 16381, Pitch_bend_c, 6, 15296
1, 16382, Note_on_c, 5, 58, 68
1, 16382, Note_on_c, 7, 58, 78
1, 16383, Note_on_c, 9, 51, 99
1, 16383, Note_on_c, 0, 52, 62
1, 16383, Note_on_c, 0, 60, 90
1, 16384, Note_off_c, 9, 51, 64
1, 16385, Note_on_c, 5, 62, 76
1, 16385, Note_on_c, 7, 62, 86
1, 16387, Pitch_bend_c, 6, 15328
1, 16390, Note_off_c, 0, 79, 64
1, 16390, Pitch_bend_c, 6, 15296
1, 16392, Note_off_c, 0, 72, 64
1, 16396, Pitch_bend_c, 6, 15328
1, 16404, Note_off_c, 0, 60, 64
1, 16406, Note_off_c, 1, 36, 64
1, 16408, Note_off_c, 0, 52, 64
1, 16410, Note_off_c, 2, 53, 64
1, 16411, Pitch_bend_c, 6, 15392
1, 16413, Note_off_c, 6, 72, 64
1, 16414, Note_off_c, 5, 62, 64
1, 16414, Note_off_c, 7, 62, 64
1, 16415, Note_on_c, 9, 38, 110
1, 16415, Note_on_c, 1, 36, 96
1, 16415, Note_on_c, 0, 72, 87
1, 16415, Note_on_c, 0, 76, 90
1, 16415, Note_on_c, 2, 54, 122
1, 16415, Note_off_c, 5, 58, 64
1, 16415, Note_off_c, 7, 58, 64
1, 16416, Note_off_c, 9, 38, 64
1, 16416, Note_on_c, 9, 51, 108
1, 16417, Note_off_c, 9, 51, 64
1, 16417, Note_on_c, 0, 52, 60
1, 16418, Note_on_c, 5, 67, 86
1, 16418, Note_on_c, 5, 62, 90
1, 16418, Note_on_c, 5, 58, 55
1, 16418, Note_on_c, 7, 67, 96
1, 16418, Note_on_c, 7, 62, 100
1, 16418, Note_on_c, 7, 58, 65
1, 16418, Pitch_bend_c, 6, 8192
1, 16420, Note_on_c, 6, 74, 115
1, 16422, Pitch_bend_c, 6, 7136
1, 16423, Pitch_bend_c, 6, 7008
1, 16428, Pitch_bend_c, 6, 7104
1, 16434, Pitch_bend_c, 6, 7136
1, 16446, Pitch_bend_c, 6, 7168
1, 16449, Note_off_c, 0, 52, 64
1, 16452, Pitch_bend_c, 6, 7136
1, 16457, Pitch_bend_c, 6, 7104
1, 16460, Pitch_bend_c, 6, 7072
1, 16463, Pitch_bend_c, 6, 6976
1, 16466, Pitch_bend_c, 6, 6720
1, 16469, Note_off_c, 5, 58, 64
1, 16469, Note_off_c, 7, 58, 64
1, 16469, Pitch_bend_c, 6, 6336
1, 16470, Note_off_c, 5, 67, 64
1, 16470, Note_off_c, 7, 67, 64
1, 16472, Pitch_bend_c, 6, 5792
1, 16473, Note_off_c, 5, 62, 64
1, 16473, Note_off_c, 7, 62, 64
1, 16475, Pitch_bend_c, 6, 5120
1, 16476, Note_off_c, 2, 54, 64
1, 16478, Note_on_c, 2, 55, 109
1, 16478, Pitch_bend_c, 6, 4352
1, 16479, Note_on_c, 9, 51, 93
1, 16479, Note_on_c, 0, 55, 90
1, 16480, Note_off_c, 9, 51, 64
1, 16480, Note_off_c, 5, 52, 64
1, 16480, Note_off_c, 7, 52, 64
1, 16481, Pitch_bend_c, 6, 3648
1, 16483, Pitch_bend_c, 6, 2912
1, 16486, Pitch_bend_c, 6, 2272
1, 16488, Note_off_c, 0, 55, 64
1, 16489, Pitch_bend_c, 6, 1728
1, 16492, Note_off_c, 6, 74, 64
1, 16492, Note_on_c, 6, 71, 82
1, 16493, Pitch_bend_c, 6, 8608
1, 16494, Pitch_bend_c, 6, 8512
1, 16495, Pitch_bend_c, 6, 8544
1, 16499, Pitch_bend_c, 6, 8704
1, 16502, Pitch_bend_c, 6, 8896
1, 16505, Pitch_bend_c, 6, 8960
1, 16506, Note_off_c, 1, 36, 64
1, 16506, Note_off_c, 0, 72, 64
1, 16508, Pitch_bend_c, 6, 4160
1, 16510, Note_on_c, 1, 31, 88
1, 16511, Note_on_c, 0, 43, 105
1, 16511, Note_off_c, 2, 55, 64
1, 16511, Pitch_bend_c, 6, 4256
1, 16513, Note_on_c, 9, 51, 106
1, 16513, Note_on_c, 9, 35, 106
1, 16513, Note_on_c, 2, 43, 107
1, 16514, Note_off_c, 9, 35, 64
1, 16514, Note_off_c, 9, 51, 64
1, 16514, Note_on_c, 5, 59, 67
1, 16514, Note_on_c, 5, 55, 26
1, 16514, Note_on_c, 5, 62, 70
1, 16514, Note_on_c, 7, 59, 77
1, 16514, Note_on_c, 7, 55, 36
1, 16514, Note_on_c, 7, 62, 80
1, 16516, Pitch_bend_c, 6, 4384
1, 16523, Note_off_c, 6, 71, 64
1, 16523, Pitch_bend_c, 6, 8192
1, 16524, Note_on_c, 6, 70, 72
1, 16524, Note_on_c, 6, 67, 112
1, 16536, Note_off_c, 6, 70, 64
1, 16550, Note_off_c, 0, 76, 64
1, 16551, Note_off_c, 0, 43, 64
1, 16552, Note_off_c, 6, 67, 64
1, 16573, Note_off_c, 5, 59, 64
1, 16573, Note_off_c, 7, 59, 64
1, 16575, Note_on_c, 9, 51, 93
1, 16575, Note_on_c, 0, 43, 105
1, 16576, Note_off_c, 9, 51, 64
1, 16576, Note_on_c, 9, 38, 112
1, 16576, Note_on_c, 0, 67, 69
1, 16577, Note_off_c, 9, 38, 64
1, 16577, Note_on_c, 0, 71, 83
1, 16587, Note_off_c, 0, 71, 64
1, 16589, Note_off_c, 0, 67, 64
1, 16596, Note_off_c, 0, 43, 64
1, 16607, Note_on_c, 9, 51, 106
1, 16607, Note_on_c, 9, 38, 120
1, 16607, Note_on_c, 1, 35, 90
1, 16607, Note_off_c, 5, 62, 64
1, 16607, Note_off_c, 7, 62, 64
1, 16607, Note_on_c, 6, 71, 115
1, 16607, Pitch_bend_c, 6, 8896
1, 16608, Note_off_c, 9, 38, 64
1, 16608, Note_off_c, 9, 51, 64
1, 16608, Note_off_c, 1, 31, 64
1, 16608, Note_on_c, 0, 67, 108
1, 16608, Note_on_c, 0, 71, 122
1, 16608, Note_on_c, 0, 47, 120
1, 16608, Note_on_c, 0, 74, 124
1, 16608, Pitch_bend_c, 6, 8864
1, 16609, Note_on_c, 2, 47, 117
1, 16609, Note_on_c, 5, 62, 78
1, 16609, Note_on_c, 7, 62, 88
1, 16610, Note_on_c, 5, 59, 58
1, 16610, Note_on_c, 5, 67, 62
1, 16610, Note_on_c, 7, 59, 68
1, 16610, Note_on_c, 7, 67, 72
1, 16612, Note_off_c, 2, 43, 64
1, 16621, Pitch_bend_c, 6, 8896
1, 16624, Pitch_bend_c, 6, 8928
1, 16630, Pitch_bend_c, 6, 8960
1, 16633, Pitch_bend_c, 6, 8832
1, 16635, Pitch_bend_c, 6, 8864
1, 16636, Note_off_c, 6, 71, 64
1, 16638, Pitch_bend_c, 6, 8192
1, 16639, Note_on_c, 6, 67, 101
1, 16640, Pitch_bend_c, 6, 8736
1, 16641, Pitch_bend_c, 6, 8704
1, 16649, Note_off_c, 0, 47, 64
1, 16652, Note_off_c, 0, 67, 64
1, 16652, Note_off_c, 0, 71, 64
1, 16653, Note_off_c, 0, 74, 64
1, 16659, Pitch_bend_c, 6, 8640
1, 16662, Pitch_bend_c, 6, 8576
1, 16664, Pitch_bend_c, 6, 8256
1, 16666, Note_off_c, 5, 67, 64
1, 16666, Note_off_c, 7, 67, 64
1, 16666, Note_off_c, 6, 67, 64
1, 16666, Note_on_c, 6, 71, 113
1, 16666, Pitch_bend_c, 6, 8192
1, 16667, Note_off_c, 5, 59, 64
1, 16667, Note_off_c, 5, 55, 64
1, 16667, Note_off_c, 7, 59, 64
1, 16667, Note_off_c, 7, 55, 64
1, 16668, Pitch_bend_c, 6, 8928
1, 16669, Pitch_bend_c, 6, 8864
1, 16670, Pitch_bend_c, 6, 8832
1, 16671, Note_on_c, 9, 51, 96
1, 16671, Note_on_c, 0, 47, 96
1, 16671, Note_on_c, 0, 74, 78
1, 16671, Note_on_c, 0, 67, 71
1, 16671, Note_on_c, 0, 71, 90
1, 16672, Note_off_c, 9, 51, 64
1, 16672, Note_off_c, 5, 62, 64
1, 16672, Note_off_c, 7, 62, 64
1, 16673, Note_on_c, 5, 59, 59
1, 16673, Note_on_c, 7, 59, 69
1, 16674, Pitch_bend_c, 6, 8864
1, 16676, Note_off_c, 5, 59, 64
1, 16676, Note_off_c, 7, 59, 64
1, 16683, Pitch_bend_c, 6, 8832
1, 16685, Pitch_bend_c, 6, 8800
1, 16688, Pitch_bend_c, 6, 8832
1, 16690, Note_off_c, 0, 71, 64
1, 16690, Note_off_c, 0, 67, 64
1, 16690, Note_off_c, 0, 74, 64
1, 16691, Pitch_bend_c, 6, 8768
1, 16694, Note_off_c, 6, 71, 64
1, 16694, Pitch_bend_c, 6, 8192
1, 16695, Note_off_c, 0, 47, 64
1, 16701, Note_on_c, 1, 36, 99
1, 16701, Note_off_c, 2, 47, 64
1, 16701, Note_on_c, 6, 70, 115
1, 16701, Pitch_bend_c, 6, 9152
1, 16702, Note_on_c, 5, 55, 23
1, 16702, Note_on_c, 7, 55, 33
1, 16702, Pitch_bend_c, 6, 9120
1, 16703, Note_on_c, 9, 35, 107
1, 16703, Note_on_c, 0, 72, 116
1, 16703, Pitch_bend_c, 6, 9088
1, 16704, Note_off_c, 9, 35, 64
1, 16704, Note_on_c, 9, 51, 110
1, 16704, Note_on_c, 0, 67, 100
1, 16704, Note_on_c, 0, 48, 114
1, 16704, Note_on_c, 5, 59, 67
1, 16704, Note_on_c, 7, 59, 77
1, 16704, Pitch_bend_c, 6, 8992
1, 16705, Note_off_c, 9, 51, 64
1, 16705, Note_off_c, 1, 35, 64
1, 16705, Note_on_c, 2, 48, 113
1, 16706, Note_on_c, 5, 62, 80
1, 16706, Note_on_c, 7, 62, 90
1, 16707, Note_on_c, 5, 67, 46
1, 16707, Note_on_c, 7, 67, 56
1, 16718, Pitch_bend_c, 6, 8960
1, 16721, Pitch_bend_c, 6, 8864
1, 16723, Pitch_bend_c, 6, 8704
1, 16726, Pitch_bend_c, 6, 8544
1, 16730, Pitch_bend_c, 6, 5184
1, 16732, Pitch_bend_c, 6, 4992
1, 16736, Pitch_bend_c, 6, 4800
1, 16739, Pitch_bend_c, 6, 4640
1, 16741, Pitch_bend_c, 6, 4448
1, 16745, Note_off_c, 0, 48, 64
1, 16746, Note_off_c, 0, 67, 64
1, 16748, Note_off_c, 0, 72, 64
1, 16750, Pitch_bend_c, 6, 4384
1, 16753, Pitch_bend_c, 6, 4416
1, 16756, Note_off_c, 5, 67, 64
1, 16756, Note_off_c, 7, 67, 64
1, 16756, Pitch_bend_c, 6, 4544
1, 16759, Note_off_c, 5, 62, 64
1, 16759, Note_off_c, 7, 62, 64
1, 16759, Pitch_bend_c, 6, 4640
1, 16760, Note_off_c, 5, 59, 64
1, 16760, Note_off_c, 7, 59, 64
1, 16760, Note_off_c, 6, 70, 64
1, 16764, Note_off_c, 5, 55, 64
1, 16764, Note_off_c, 7, 55, 64
1, 16765, Pitch_bend_c, 6, 8192
1, 16766, Note_on_c, 6, 67, 104
1, 16767, Note_on_c, 9, 51, 100
1, 16767, Note_on_c, 0, 72, 88
1, 16767, Note_on_c, 0, 48, 91
1, 16767, Note_on_c, 0, 67, 73
1, 16767, Pitch_bend_c, 6, 8864
1, 16768, Note_off_c, 9, 51, 64
1, 16777, Pitch_bend_c, 6, 8832
1, 16780, Pitch_bend_c, 6, 8864
1, 16782, Note_off_c, 0, 67, 64
1, 16784, Note_off_c, 0, 48, 64
1, 16785, Note_off_c, 0, 72, 64
1, 16788, Pitch_bend_c, 6, 8832
1, 16791, Pitch_bend_c, 6, 8736
1, 16794, Pitch_bend_c, 6, 8640
1, 16796, Note_off_c, 2, 48, 64
1, 16796, Note_on_c, 5, 55, 26
1, 16796, Note_on_c, 7, 55, 36
1, 16797, Pitch_bend_c, 6, 8192
1, 16797, Note_on_c, 6, 64, 117
1, 16798, Note_on_c, 1, 37, 90
1, 16798, Note_on_c, 5, 59, 66
1, 16798, Note_on_c, 7, 59, 76
1, 16799, Note_on_c, 9, 51, 106
1, 16799, Note_on_c, 9, 38, 108
1, 16799, Note_off_c, 1, 36, 64
1, 16800, Note_off_c, 9, 38, 64
1, 16800, Note_off_c, 9, 51, 64
1, 16800, Note_on_c, 0, 67, 84
1, 16800, Note_on_c, 0, 73, 127
1, 16800, Note_on_c, 2, 50, 115
1, 16800, Note_on_c, 5, 62, 78
1, 16800, Note_on_c, 7, 62, 88
1, 16800, Note_off_c, 6, 67, 64
1, 16801, Note_on_c, 0, 49, 107
1, 16802, Note_on_c, 5, 67, 30
1, 16802, Note_on_c, 7, 67, 40
1, 16841, Note_off_c, 0, 49, 64
1, 16844, Note_off_c, 0, 73, 64
1, 16844, Note_off_c, 0, 67, 64
1, 16859, Note_off_c, 5, 67, 64
1, 16859, Note_off_c, 5, 59, 64
1, 16859, Note_off_c, 7, 67, 64
1, 16859, Note_off_c, 7, 59, 64
1, 16862, Note_off_c, 5, 55, 64
1, 16862, Note_off_c, 7, 55, 64
1, 16863, Note_on_c, 9, 51, 106
1, 16863, Note_on_c, 0, 49, 83
1, 16864, Note_off_c, 9, 51, 64
1, 16864, Note_on_c, 0, 73, 99
1, 16864, Note_off_c, 5, 62, 64
1, 16864, Note_off_c, 7, 62, 64
1, 16865, Note_on_c, 0, 67, 71
1, 16874, Note_off_c, 0, 67, 64
1, 16881, Note_off_c, 0, 73, 64
1, 16889, Note_off_c, 1, 37, 64
1, 16889, Note_off_c, 0, 49, 64
1, 16889, Note_off_c, 2, 50, 64
1, 16891, Note_off_c, 6, 64, 64
1, 16895, Note_on_c, 1, 38, 96
1, 16895, Note_on_c, 2, 43, 117
1, 16896, Note_on_c, 9, 35, 106
1, 16896, Note_on_c, 0, 50, 102
1, 16896, Note_on_c, 0, 69, 104
1, 16896, Note_on_c, 0, 74, 114
1, 16896, Note_on_c, 5, 55, 16
1, 16896, Note_off_c, 5, 55, 64
1, 16896, Note_on_c, 7, 55, 26
1, 16896, Note_off_c, 7, 55, 64
1, 16896, Note_on_c, 6, 67, 115
1, 16896, Pitch_bend_c, 6, 8672
1, 16897, Note_off_c, 9, 35, 64
1, 16897, Note_on_c, 9, 51, 104
1, 16897, Note_on_c, 5, 59, 23
1, 16897, Note_on_c, 7, 59, 33
1, 16898, Note_off_c, 9, 51, 64
1, 16904, Pitch_bend_c, 6, 8640
1, 16907, Pitch_bend_c, 6, 8576
1, 16910, Pitch_bend_c, 6, 8512
1, 16914, Pitch_bend_c, 6, 8448
1, 16916, Pitch_bend_c, 6, 8416
1, 16922, Note_off_c, 5, 59, 64
1, 16922, Note_off_c, 7, 59, 64
1, 16925, Pitch_bend_c, 6, 8448
1, 16939, Pitch_bend_c, 6, 8128
1, 16942, Note_off_c, 6, 67, 64
1, 16942, Pitch_bend_c, 6, 8416
1, 16957, Note_on_c, 5, 60, 46
1, 16957, Note_on_c, 7, 60, 56
1, 16958, Note_off_c, 0, 69, 64
1, 16959, Note_on_c, 9, 51, 100
1, 16959, Note_on_c, 5, 54, 16
1, 16959, Note_on_c, 7, 54, 26
1, 16960, Note_off_c, 9, 51, 64
1, 16960, Note_off_c, 0, 74, 64
1, 16961, Note_on_c, 0, 66, 88
1, 16963, Note_off_c, 0, 50, 64
1, 16973, Note_off_c, 0, 66, 64
1, 16977, Note_off_c, 2, 43, 64
1, 16979, Lyric_t, "\012"
1, 16988, Pitch_bend_c, 6, 8192
1, 16989, Note_on_c, 6, 62, 112
1, 16990, Note_off_c, 5, 60, 64
1, 16990, Note_off_c, 7, 60, 64
1, 16990, Pitch_bend_c, 6, 9024
1, 16991, Note_on_c, 9, 51, 106
1, 16991, Note_on_c, 9, 38, 116
1, 16991, Note_off_c, 1, 38, 64
1, 16991, Note_on_c, 1, 33, 91
1, 16991, Note_on_c, 2, 50, 117
1, 16991, Note_on_c, 5, 60, 46
1, 16991, Note_on_c, 7, 60, 56
1, 16992, Note_off_c, 9, 38, 64
1, 16992, Note_off_c, 9, 51, 64
1, 16992, Pitch_bend_c, 6, 8992
1, 16993, Note_on_c, 0, 69, 77
1, 16993, Note_on_c, 0, 72, 84
1, 16993, Note_on_c, 0, 66, 63
1, 16993, Note_on_c, 0, 50, 75
1, 16994, Note_on_c, 5, 64, 19
1, 16994, Note_on_c, 7, 64, 29
1, 17002, Note_off_c, 0, 50, 64
1, 17004, Pitch_bend_c, 6, 8960
1, 17011, Note_off_c, 0, 69, 64
1, 17013, Note_off_c, 0, 66, 64
1, 17018, Note_off_c, 0, 72, 64
1, 17035, Pitch_bend_c, 6, 8992
1, 17041, Pitch_bend_c, 6, 9024
1, 17044, Note_off_c, 6, 62, 64
1, 17046, Pitch_bend_c, 6, 8192
1, 17047, Note_on_c, 6, 62, 120
1, 17048, Pitch_bend_c, 6, 9024
1, 17049, Pitch_bend_c, 6, 8992
1, 17051, Note_off_c, 5, 60, 64
1, 17051, Note_off_c, 7, 60, 64
1, 17052, Note_off_c, 2, 50, 64
1, 17052, Note_off_c, 5, 64, 64
1, 17052, Note_off_c, 7, 64, 64
1, 17054, Note_on_c, 5, 60, 73
1, 17054, Note_on_c, 7, 60, 83
1, 17055, Note_on_c, 9, 51, 94
1, 17055, Note_on_c, 0, 50, 124
1, 17055, Note_on_c, 0, 66, 111
1, 17055, Note_on_c, 0, 74, 116
1, 17055, Note_on_c, 0, 69, 101
1, 17055, Note_on_c, 2, 50, 119
1, 17055, Note_on_c, 5, 64, 82
1, 17055, Note_on_c, 7, 64, 92
1, 17056, Note_off_c, 9, 51, 64
1, 17056, Note_on_c, 9, 38, 117
1, 17056, Pitch_bend_c, 6, 8960
1, 17057, Note_off_c, 9, 38, 64
1, 17057, Note_on_c, 5, 69, 19
1, 17057, Note_on_c, 7, 69, 29
1, 17062, Pitch_bend_c, 6, 8928
1, 17064, Pitch_bend_c, 6, 8896
1, 17070, Pitch_bend_c, 6, 8864
1, 17083, Note_off_c, 1, 33, 64
1, 17086, Note_on_c, 1, 38, 94
1, 17089, Note_on_c, 9, 35, 106
1, 17090, Note_off_c, 9, 35, 64
1, 17096, Pitch_bend_c, 6, 8832
1, 17133, Note_off_c, 0, 50, 64
1, 17149, Note_off_c, 2, 50, 64
1, 17150, Note_off_c, 0, 69, 64
1, 17150, Note_off_c, 5, 69, 64
1, 17150, Note_off_c, 5, 64, 64
1, 17150, Note_off_c, 7, 69, 64
1, 17150, Note_off_c, 7, 64, 64
1, 17151, Note_on_c, 9, 51, 104
1, 17151, Note_on_c, 0, 50, 90
1, 17151, Note_on_c, 2, 50, 107
1, 17151, Note_on_c, 5, 64, 76
1, 17151, Note_on_c, 7, 64, 86
1, 17152, Note_off_c, 9, 51, 64
1, 17152, Note_on_c, 9, 38, 113
1, 17153, Note_off_c, 9, 38, 64
1, 17153, Note_off_c, 0, 66, 64
1, 17158, Note_off_c, 0, 74, 64
1, 17173, Note_off_c, 1, 38, 64
1, 17174, Pitch_bend_c, 6, 8192
1, 17181, Note_off_c, 5, 64, 64
1, 17181, Note_off_c, 5, 54, 64
1, 17181, Note_off_c, 7, 64, 64
1, 17181, Note_off_c, 7, 54, 64
1, 17181, Note_off_c, 6, 62, 64
1, 17182, Note_on_c, 1, 38, 101
1, 17182, Note_off_c, 5, 60, 64
1, 17182, Note_on_c, 5, 54, 73
1, 17182, Note_off_c, 7, 60, 64
1, 17182, Note_on_c, 7, 54, 83
1, 17183, Note_on_c, 9, 51, 108
1, 17183, Note_on_c, 0, 66, 72
1, 17183, Note_on_c, 0, 74, 76
1, 17183, Note_on_c, 0, 69, 80
1, 17183, Note_on_c, 5, 60, 101
1, 17183, Note_on_c, 7, 60, 111
1, 17184, Note_off_c, 9, 51, 64
1, 17184, Note_on_c, 9, 38, 121
1, 17184, Note_off_c, 2, 50, 64
1, 17184, Note_on_c, 5, 64, 100
1, 17184, Note_on_c, 7, 64, 110
1, 17185, Note_off_c, 9, 38, 64
1, 17185, Note_on_c, 2, 50, 117
1, 17185, Note_on_c, 5, 69, 89
1, 17185, Note_on_c, 7, 69, 99
1, 17192, Note_off_c, 0, 74, 64
1, 17199, Note_off_c, 0, 50, 64
1, 17214, Note_on_c, 0, 74, 27
1, 17215, Note_off_c, 0, 69, 64
1, 17218, Note_off_c, 0, 66, 64
1, 17226, Note_off_c, 0, 74, 64
1, 17232, Note_off_c, 5, 60, 64
1, 17232, Note_off_c, 7, 60, 64
1, 17234, Note_off_c, 5, 54, 64
1, 17234, Note_off_c, 5, 64, 64
1, 17234, Note_off_c, 5, 69, 64
1, 17234, Note_off_c, 7, 54, 64
1, 17234, Note_off_c, 7, 64, 64
1, 17234, Note_off_c, 7, 69, 64
1, 17239, Note_on_c, 9, 38, 25
1, 17240, Note_off_c, 9, 38, 64
1, 17247, Note_on_c, 0, 50, 94
1, 17248, Note_on_c, 9, 51, 94
1, 17249, Note_off_c, 9, 51, 64
1, 17251, Note_on_c, 9, 38, 34
1, 17252, Note_off_c, 9, 38, 64
1, 17256, Note_off_c, 1, 38, 64
1, 17256, Note_off_c, 0, 50, 64
1, 17261, Note_on_c, 9, 38, 45
1, 17262, Note_off_c, 9, 38, 64
1, 17262, Note_off_c, 2, 50, 64
1, 17269, Note_on_c, 9, 38, 52
1, 17270, Note_off_c, 9, 38, 64
1, 17279, Note_on_c, 9, 35, 107
1, 17279, Note_on_c, 0, 74, 116
1, 17279, Note_on_c, 0, 67, 95
1, 17279, Note_on_c, 2, 55, 115
1, 17280, Note_off_c, 9, 35, 64
1, 17280, Note_on_c, 9, 38, 101
1, 17280, Note_on_c, 1, 31, 101
1, 17280, Note_on_c, 5, 55, 66
1, 17280, Note_on_c, 7, 55, 76
1, 17281, Note_off_c, 9, 38, 64
1, 17281, Note_on_c, 5, 62, 89
1, 17281, Note_on_c, 5, 59, 91
1, 17281, Note_on_c, 7, 62, 99
1, 17281, Note_on_c, 7, 59, 101
1, 17282, Note_on_c, 5, 67, 30
1, 17282, Note_on_c, 7, 67, 40
1, 17319, Note_off_c, 0, 74, 64
1, 17320, Note_off_c, 0, 67, 64
1, 17322, Note_off_c, 5, 55, 64
1, 17322, Note_off_c, 7, 55, 64
1, 17323, Note_off_c, 5, 62, 64
1, 17323, Note_off_c, 7, 62, 64
1, 17324, Note_off_c, 1, 31, 64
1, 17327, Note_off_c, 5, 59, 64
1, 17327, Note_off_c, 5, 67, 64
1, 17327, Note_off_c, 7, 59, 64
1, 17327, Note_off_c, 7, 67, 64
1, 17329, Note_off_c, 2, 55, 64
1, 17347, Lyric_t, "She "
1, 17347, Note_on_c, 3, 67, 126
1, 17374, Lyric_t, "bor"
1, 17374, Note_on_c, 3, 70, 114
1, 17378, Note_off_c, 3, 67, 64
1, 17404, Lyric_t, "rowed "
1, 17404, Note_on_c, 3, 67, 117
1, 17406, Note_off_c, 3, 70, 64
1, 17434, Lyric_t, "some "
1, 17434, Note_on_c, 3, 65, 117
1, 17441, Note_off_c, 3, 67, 64
1, 17465, Note_off_c, 3, 65, 64
1, 17466, Lyric_t, "mon"
1, 17466, Note_on_c, 3, 65, 118
1, 17499, Lyric_t, "ey, "
1, 17499, Lyric_t, "\015"
1, 17499, Note_on_c, 3, 62, 113
1, 17503, Note_off_c, 3, 65, 64
1, 17534, Note_on_c, 2, 46, 99
1, 17535, Note_on_c, 0, 70, 123
1, 17537, Note_on_c, 9, 38, 26
1, 17538, Note_off_c, 9, 38, 64
1, 17540, Note_off_c, 3, 62, 64
1, 17546, Note_on_c, 9, 38, 31
1, 17547, Note_off_c, 9, 38, 64
1, 17554, Note_on_c, 9, 38, 40
1, 17555, Note_off_c, 9, 38, 64
1, 17561, Note_on_c, 9, 38, 46
1, 17562, Note_off_c, 9, 38, 64
1, 17563, Note_off_c, 2, 46, 64
1, 17565, Note_on_c, 2, 48, 105
1, 17566, Note_on_c, 1, 38, 94
1, 17567, Note_on_c, 9, 35, 99
1, 17568, Note_off_c, 9, 35, 64
1, 17568, Note_on_c, 9, 38, 101
1, 17568, Note_on_c, 0, 72, 93
1, 17569, Note_off_c, 9, 38, 64
1, 17569, Note_off_c, 0, 70, 64
1, 17569, Note_on_c, 5, 64, 81
1, 17569, Note_on_c, 5, 69, 82
1, 17569, Note_on_c, 5, 60, 61
1, 17569, Note_on_c, 7, 64, 91
1, 17569, Note_on_c, 7, 69, 92
1, 17569, Note_on_c, 7, 60, 71
1, 17593, Note_off_c, 2, 48, 64
1, 17597, Note_on_c, 2, 49, 112
1, 17600, Note_off_c, 0, 72, 64
1, 17601, Note_on_c, 0, 74, 83
1, 17626, Note_off_c, 5, 60, 64
1, 17626, Note_off_c, 7, 60, 64
1, 17627, Note_off_c, 2, 49, 64
1, 17630, Note_on_c, 2, 50, 113
1, 17630, Note_off_c, 5, 64, 64
1, 17630, Note_off_c, 7, 64, 64
1, 17631, Note_off_c, 0, 74, 64
1, 17631, Note_on_c, 0, 77, 86
1, 17631, Note_off_c, 5, 69, 64
1, 17631, Note_off_c, 7, 69, 64
1, 17653, Note_off_c, 0, 77, 64
1, 17659, Note_off_c, 1, 38, 64
1, 17662, Note_on_c, 5, 55, 54
1, 17662, Note_on_c, 7, 55, 64
1, 17663, Note_on_c, 1, 31, 90
1, 17663, Note_on_c, 0, 62, 100
1, 17663, Note_on_c, 0, 79, 116
1, 17663, Note_on_c, 0, 55, 104
1, 17663, Note_on_c, 0, 74, 118
1, 17663, Note_on_c, 2, 55, 121
1, 17663, Note_on_c, 5, 59, 82
1, 17663, Note_on_c, 5, 67, 35
1, 17663, Note_on_c, 7, 59, 92
1, 17663, Note_on_c, 7, 67, 45
1, 17664, Note_on_c, 9, 38, 105
1, 17665, Note_off_c, 9, 38, 64
1, 17665, Note_on_c, 9, 35, 107
1, 17665, Note_on_c, 5, 62, 76
1, 17665, Note_on_c, 7, 62, 86
1, 17666, Note_off_c, 9, 35, 64
1, 17672, Note_off_c, 2, 50, 64
1, 17697, Note_off_c, 0, 55, 64
1, 17698, Lyric_t, "go "
1, 17698, Note_on_c, 3, 67, 119
1, 17700, Note_off_c, 0, 74, 64
1, 17700, Note_off_c, 0, 62, 64
1, 17701, Note_off_c, 2, 55, 64
1, 17702, Note_off_c, 0, 79, 64
1, 17702, Note_off_c, 5, 67, 64
1, 17702, Note_off_c, 5, 55, 64
1, 17702, Note_off_c, 7, 67, 64
1, 17702, Note_off_c, 7, 55, 64
1, 17705, Note_off_c, 5, 62, 64
1, 17705, Note_off_c, 7, 62, 64
1, 17706, Note_off_c, 5, 59, 64
1, 17706, Note_off_c, 7, 59, 64
1, 17718, Note_off_c, 1, 31, 64
1, 17728, Lyric_t, "to "
1, 17728, Note_on_c, 3, 65, 112
1, 17734, Note_off_c, 3, 67, 64
1, 17744, Note_off_c, 3, 65, 64
1, 17745, Lyric_t, "the "
1, 17745, Note_on_c, 3, 65, 105
1, 17761, Note_off_c, 3, 65, 64
1, 17762, Lyric_t, "beau"
1, 17762, Note_on_c, 3, 67, 113
1, 17822, Note_off_c, 3, 67, 64
1, 17823, Lyric_t, "ty "
1, 17823, Note_on_c, 3, 67, 114
1, 17854, Lyric_t, "shop. "
1, 17854, Lyric_t, "\015"
1, 17854, Note_on_c, 3, 70, 109
1, 17863, Note_off_c, 3, 67, 64
1, 17909, Note_off_c, 3, 70, 64
1, 17914, Note_on_c, 9, 38, 32
1, 17915, Note_off_c, 9, 38, 64
1, 17917, Note_on_c, 2, 46, 107
1, 17919, Note_on_c, 0, 70, 127
1, 17923, Note_on_c, 9, 38, 39
1, 17924, Note_off_c, 9, 38, 64
1, 17924, Note_on_c, 5, 60, 24
1, 17924, Note_on_c, 7, 60, 34
1, 17933, Note_on_c, 9, 38, 47
1, 17934, Note_off_c, 9, 38, 64
1, 17940, Lyric_t, "\012"
1, 17942, Note_on_c, 9, 38, 64
1, 17943, Note_off_c, 9, 38, 64
1, 17947, Note_off_c, 2, 46, 64
1, 17948, Note_off_c, 0, 70, 64
1, 17949, Note_on_c, 2, 48, 119
1, 17949, Note_off_c, 5, 60, 64
1, 17949, Note_off_c, 7, 60, 64
1, 17950, Note_on_c, 1, 38, 91
1, 17951, Note_on_c, 9, 35, 101
1, 17951, Note_on_c, 9, 38, 98
1, 17951, Note_on_c, 0, 72, 91
1, 17952, Note_off_c, 9, 38, 64
1, 17952, Note_off_c, 9, 35, 64
1, 17953, Note_on_c, 5, 60, 69
1, 17953, Note_on_c, 7, 60, 79
1, 17954, Note_on_c, 5, 64, 84
1, 17954, Note_on_c, 7, 64, 94
1, 17955, Note_on_c, 5, 69, 78
1, 17955, Note_on_c, 7, 69, 88
1, 17979, Note_off_c, 2, 48, 64
1, 17982, Note_on_c, 2, 49, 117
1, 17983, Note_off_c, 0, 72, 64
1, 17984, Note_on_c, 0, 74, 83
1, 18010, Note_off_c, 5, 60, 64
1, 18010, Note_off_c, 7, 60, 64
1, 18011, Note_off_c, 0, 74, 64
1, 18012, Note_off_c, 5, 69, 64
1, 18012, Note_off_c, 5, 64, 64
1, 18012, Note_off_c, 7, 69, 64
1, 18012, Note_off_c, 7, 64, 64
1, 18013, Note_off_c, 2, 49, 64
1, 18014, Note_on_c, 2, 50, 115
1, 18015, Note_on_c, 0, 77, 91
1, 18035, Note_off_c, 0, 77, 64
1, 18040, Note_off_c, 1, 38, 64
1, 18045, Note_on_c, 5, 55, 53
1, 18045, Note_on_c, 7, 55, 63
1, 18046, Note_on_c, 9, 38, 108
1, 18046, Note_on_c, 1, 31, 91
1, 18046, Note_off_c, 2, 50, 64
1, 18046, Note_on_c, 5, 59, 83
1, 18046, Note_on_c, 5, 67, 24
1, 18046, Note_on_c, 7, 59, 93
1, 18046, Note_on_c, 7, 67, 34
1, 18047, Note_off_c, 9, 38, 64
1, 18047, Note_on_c, 9, 35, 105
1, 18047, Note_on_c, 0, 74, 114
1, 18047, Note_on_c, 0, 62, 105
1, 18047, Note_on_c, 0, 55, 108
1, 18047, Note_on_c, 0, 79, 118
1, 18047, Note_on_c, 5, 62, 80
1, 18047, Note_on_c, 7, 62, 90
1, 18048, Note_off_c, 9, 35, 64
1, 18048, Note_on_c, 2, 55, 117
1, 18082, Note_off_c, 0, 55, 64
1, 18082, Note_off_c, 0, 62, 64
1, 18082, Note_off_c, 2, 55, 64
1, 18087, Note_off_c, 0, 79, 64
1, 18087, Note_off_c, 5, 55, 64
1, 18087, Note_off_c, 7, 55, 64
1, 18088, Note_off_c, 0, 74, 64
1, 18091, Note_off_c, 5, 59, 64
1, 18091, Note_off_c, 5, 67, 64
1, 18091, Note_off_c, 5, 62, 64
1, 18091, Note_off_c, 7, 59, 64
1, 18091, Note_off_c, 7, 67, 64
1, 18091, Note_off_c, 7, 62, 64
1, 18102, Note_off_c, 1, 31, 64
1, 18112, Lyric_t, "She "
1, 18112, Note_on_c, 3, 65, 123
1, 18141, Lyric_t, "honked "
1, 18141, Note_on_c, 3, 67, 117
1, 18143, Note_off_c, 3, 65, 64
1, 18168, Lyric_t, "his "
1, 18168, Note_on_c, 3, 65, 114
1, 18169, Note_off_c, 3, 67, 64
1, 18198, Lyric_t, "horn, "
1, 18198, Lyric_t, "\015"
1, 18198, Note_on_c, 3, 70, 112
1, 18202, Note_off_c, 3, 65, 64
1, 18277, Note_off_c, 3, 70, 64
1, 18296, Note_on_c, 9, 38, 22
1, 18297, Note_off_c, 9, 38, 64
1, 18303, Note_on_c, 0, 70, 127
1, 18303, Note_on_c, 2, 46, 107
1, 18306, Note_on_c, 9, 38, 34
1, 18307, Note_off_c, 9, 38, 64
1, 18315, Note_on_c, 9, 38, 43
1, 18316, Note_off_c, 9, 38, 64
1, 18325, Note_on_c, 9, 38, 59
1, 18326, Note_off_c, 9, 38, 64
1, 18326, Note_off_c, 0, 70, 64
1, 18334, Note_on_c, 9, 38, 104
1, 18334, Note_on_c, 1, 38, 90
1, 18334, Note_off_c, 2, 46, 64
1, 18335, Note_off_c, 9, 38, 64
1, 18335, Note_on_c, 9, 35, 103
1, 18335, Note_on_c, 0, 72, 94
1, 18335, Note_on_c, 5, 64, 83
1, 18335, Note_on_c, 7, 64, 93
1, 18336, Note_off_c, 9, 35, 64
1, 18336, Note_on_c, 2, 48, 112
1, 18337, Note_on_c, 5, 60, 68
1, 18337, Note_on_c, 7, 60, 78
1, 18339, Note_on_c, 5, 69, 84
1, 18339, Note_on_c, 7, 69, 94
1, 18367, Note_on_c, 0, 74, 78
1, 18367, Note_off_c, 2, 48, 64
1, 18367, Note_on_c, 2, 49, 103
1, 18370, Note_off_c, 0, 72, 64
1, 18396, Note_off_c, 0, 74, 64
1, 18397, Note_off_c, 5, 60, 64
1, 18397, Note_off_c, 7, 60, 64
1, 18398, Note_off_c, 2, 49, 64
1, 18398, Note_off_c, 5, 69, 64
1, 18398, Note_off_c, 5, 64, 64
1, 18398, Note_off_c, 7, 69, 64
1, 18398, Note_off_c, 7, 64, 64
1, 18399, Note_on_c, 0, 77, 95
1, 18401, Note_on_c, 2, 50, 107
1, 18417, Note_off_c, 0, 77, 64
1, 18430, Lyric_t, "she "
1, 18430, Note_on_c, 3, 71, 119
1, 18430, Note_on_c, 9, 38, 108
1, 18431, Note_off_c, 9, 38, 64
1, 18431, Note_on_c, 9, 35, 105
1, 18431, Note_on_c, 1, 31, 84
1, 18431, Note_on_c, 0, 62, 102
1, 18431, Note_on_c, 0, 55, 112
1, 18431, Note_on_c, 0, 79, 127
1, 18431, Note_on_c, 0, 74, 114
1, 18431, Note_on_c, 2, 55, 113
1, 18431, Note_on_c, 5, 55, 56
1, 18431, Note_on_c, 7, 55, 66
1, 18432, Note_off_c, 9, 35, 64
1, 18432, Note_off_c, 1, 38, 64
1, 18432, Note_on_c, 5, 59, 79
1, 18432, Note_on_c, 7, 59, 89
1, 18433, Note_off_c, 2, 50, 64
1, 18433, Note_on_c, 5, 67, 26
1, 18433, Note_on_c, 5, 62, 56
1, 18433, Note_on_c, 7, 67, 36
1, 18433, Note_on_c, 7, 62, 66
1, 18468, Note_off_c, 0, 55, 64
1, 18469, Note_off_c, 0, 62, 64
1, 18469, Note_off_c, 2, 55, 64
1, 18471, Note_off_c, 0, 74, 64
1, 18471, Note_off_c, 5, 62, 64
1, 18471, Note_off_c, 5, 55, 64
1, 18471, Note_off_c, 7, 62, 64
1, 18471, Note_off_c, 7, 55, 64
1, 18472, Note_off_c, 5, 67, 64
1, 18472, Note_off_c, 7, 67, 64
1, 18474, Note_off_c, 5, 59, 64
1, 18474, Note_off_c, 7, 59, 64
1, 18475, Note_off_c, 0, 79, 64
1, 18489, Lyric_t, "be"
1, 18489, Note_on_c, 3, 69, 113
1, 18489, Note_off_c, 1, 31, 64
1, 18496, Note_off_c, 3, 71, 64
1, 18527, Lyric_t, "gan "
1, 18527, Note_on_c, 3, 67, 116
1, 18531, Note_off_c, 3, 69, 64
1, 18587, Note_off_c, 3, 67, 64
1, 18589, Lyric_t, "to "
1, 18589, Note_on_c, 3, 67, 115
1, 18627, Lyric_t, "stop. "
1, 18627, Lyric_t, "\015"
1, 18627, Note_on_c, 3, 64, 117
1, 18632, Note_off_c, 3, 67, 64
1, 18675, Note_off_c, 3, 64, 64
1, 18682, Note_on_c, 9, 38, 24
1, 18683, Note_off_c, 9, 38, 64
1, 18687, Note_on_c, 0, 70, 127
1, 18688, Note_on_c, 2, 46, 107
1, 18691, Note_on_c, 9, 38, 34
1, 18692, Note_off_c, 9, 38, 64
1, 18701, Note_on_c, 9, 38, 48
1, 18702, Note_off_c, 9, 38, 64
1, 18709, Note_on_c, 9, 38, 56
1, 18710, Note_off_c, 9, 38, 64
1, 18711, Lyric_t, "\012"
1, 18712, Note_off_c, 0, 70, 64
1, 18719, Note_on_c, 9, 38, 105
1, 18719, Note_on_c, 0, 72, 100
1, 18720, Note_off_c, 9, 38, 64
1, 18720, Note_on_c, 9, 35, 104
1, 18720, Note_on_c, 1, 38, 94
1, 18720, Note_off_c, 2, 46, 64
1, 18721, Note_off_c, 9, 35, 64
1, 18721, Note_on_c, 2, 48, 100
1, 18721, Note_on_c, 5, 64, 93
1, 18721, Note_on_c, 7, 64, 103
1, 18722, Note_on_c, 5, 69, 46
1, 18722, Note_on_c, 7, 69, 56
1, 18723, Note_on_c, 5, 60, 93
1, 18723, Note_on_c, 7, 60, 103
1, 18748, Note_off_c, 0, 72, 64
1, 18748, Note_off_c, 2, 48, 64
1, 18752, Note_on_c, 2, 49, 109
1, 18753, Note_on_c, 0, 74, 94
1, 18772, Note_off_c, 0, 74, 64
1, 18780, Note_off_c, 2, 49, 64
1, 18783, Note_off_c, 5, 69, 64
1, 18783, Note_off_c, 7, 69, 64
1, 18784, Note_on_c, 2, 50, 112
1, 18785, Note_on_c, 0, 77, 88
1, 18787, Note_off_c, 5, 64, 64
1, 18787, Note_off_c, 7, 64, 64
1, 18788, Note_off_c, 5, 60, 64
1, 18788, Note_off_c, 7, 60, 64
1, 18797, Note_off_c, 0, 77, 64
1, 18814, Note_on_c, 5, 55, 37
1, 18814, Note_on_c, 7, 55, 47
1, 18815, Note_on_c, 9, 38, 108
1, 18816, Note_off_c, 9, 38, 64
1, 18816, Note_on_c, 9, 35, 106
1, 18816, Note_on_c, 2, 55, 120
1, 18817, Note_off_c, 9, 35, 64
1, 18817, Note_off_c, 1, 38, 64
1, 18817, Note_on_c, 1, 31, 90
1, 18817, Note_on_c, 0, 62, 104
1, 18817, Note_on_c, 0, 74, 116
1, 18817, Note_on_c, 0, 79, 118
1, 18817, Note_on_c, 0, 55, 118
1, 18817, Note_off_c, 2, 50, 64
1, 18817, Note_on_c, 5, 62, 85
1, 18817, Note_on_c, 7, 62, 95
1, 18818, Note_on_c, 5, 67, 77
1, 18818, Note_on_c, 7, 67, 87
1, 18844, Note_off_c, 0, 55, 64
1, 18848, Note_off_c, 2, 55, 64
1, 18849, Note_off_c, 0, 74, 64
1, 18850, Note_off_c, 0, 79, 64
1, 18850, Note_off_c, 0, 62, 64
1, 18857, Note_off_c, 5, 55, 64
1, 18857, Note_off_c, 7, 55, 64
1, 18858, Note_off_c, 5, 62, 64
1, 18858, Note_off_c, 7, 62, 64
1, 18859, Note_off_c, 5, 67, 64
1, 18859, Note_off_c, 7, 67, 64
1, 18872, Note_off_c, 1, 31, 64
1, 18878, Lyric_t, "Said, "
1, 18878, Note_on_c, 3, 67, 123
1, 18912, Lyric_t, """Take "
1, 18912, Note_on_c, 3, 70, 116
1, 18915, Note_off_c, 3, 67, 64
1, 18975, Lyric_t, "me, "
1, 18975, Note_on_c, 3, 67, 112
1, 18978, Note_off_c, 3, 70, 64
1, 19008, Note_off_c, 3, 67, 64
1, 19010, Lyric_t, "ba"
1, 19010, Note_on_c, 3, 67, 112
1, 19042, Lyric_t, "by, "
1, 19042, Lyric_t, "\015"
1, 19042, Note_on_c, 3, 64, 110
1, 19046, Note_off_c, 3, 67, 64
1, 19068, Note_on_c, 9, 38, 27
1, 19069, Note_off_c, 9, 38, 64
1, 19072, Note_on_c, 2, 46, 104
1, 19073, Note_on_c, 0, 70, 127
1, 19077, Note_on_c, 9, 38, 39
1, 19078, Note_off_c, 9, 38, 64
1, 19086, Note_off_c, 3, 64, 64
1, 19086, Note_on_c, 9, 38, 45
1, 19087, Note_off_c, 9, 38, 64
1, 19094, Note_on_c, 9, 38, 52
1, 19095, Note_off_c, 9, 38, 64
1, 19097, Note_off_c, 0, 70, 64
1, 19102, Note_on_c, 9, 38, 90
1, 19102, Note_off_c, 2, 46, 64
1, 19103, Note_off_c, 9, 38, 64
1, 19103, Note_on_c, 1, 38, 88
1, 19103, Note_on_c, 5, 60, 69
1, 19103, Note_on_c, 7, 60, 79
1, 19104, Note_on_c, 5, 69, 88
1, 19104, Note_on_c, 7, 69, 98
1, 19105, Note_on_c, 9, 35, 104
1, 19105, Note_on_c, 0, 72, 75
1, 19105, Note_on_c, 2, 48, 100
1, 19105, Note_on_c, 5, 64, 93
1, 19105, Note_on_c, 7, 64, 103
1, 19106, Note_off_c, 9, 35, 64
1, 19132, Note_off_c, 2, 48, 64
1, 19133, Note_off_c, 0, 72, 64
1, 19136, Note_on_c, 2, 49, 105
1, 19137, Note_on_c, 0, 74, 75
1, 19158, Note_off_c, 0, 74, 64
1, 19165, Note_off_c, 2, 49, 64
1, 19168, Note_on_c, 2, 50, 109
1, 19169, Note_on_c, 0, 77, 93
1, 19181, Note_off_c, 5, 69, 64
1, 19181, Note_off_c, 7, 69, 64
1, 19182, Note_off_c, 5, 64, 64
1, 19182, Note_off_c, 7, 64, 64
1, 19186, Note_off_c, 0, 77, 64
1, 19187, Note_off_c, 5, 60, 64
1, 19187, Note_off_c, 7, 60, 64
1, 19198, Note_on_c, 5, 59, 87
1, 19198, Note_on_c, 7, 59, 97
1, 19199, Note_on_c, 9, 35, 106
1, 19199, Note_off_c, 1, 38, 64
1, 19199, Note_off_c, 2, 50, 64
1, 19199, Note_on_c, 5, 62, 88
1, 19199, Note_on_c, 7, 62, 98
1, 19200, Note_off_c, 9, 35, 64
1, 19200, Note_on_c, 9, 38, 101
1, 19200, Note_on_c, 1, 31, 90
1, 19200, Note_on_c, 0, 74, 120
1, 19200, Note_on_c, 0, 62, 97
1, 19200, Note_on_c, 0, 79, 116
1, 19200, Note_on_c, 2, 55, 113
1, 19201, Note_off_c, 9, 38, 64
1, 19201, Note_on_c, 0, 55, 104
1, 19201, Note_on_c, 5, 67, 46
1, 19201, Note_on_c, 7, 67, 56
1, 19202, Note_on_c, 5, 55, 16
1, 19202, Note_on_c, 7, 55, 26
1, 19231, Note_off_c, 5, 55, 64
1, 19231, Note_off_c, 7, 55, 64
1, 19234, Note_off_c, 0, 55, 64
1, 19234, Note_off_c, 0, 79, 64
1, 19234, Note_off_c, 2, 55, 64
1, 19236, Note_off_c, 0, 62, 64
1, 19238, Note_off_c, 5, 67, 64
1, 19238, Note_off_c, 7, 67, 64
1, 19239, Note_off_c, 5, 62, 64
1, 19239, Note_off_c, 7, 62, 64
1, 19240, Note_off_c, 0, 74, 64
1, 19240, Note_off_c, 5, 59, 64
1, 19240, Note_off_c, 7, 59, 64
1, 19255, Note_off_c, 1, 31, 64
1, 19263, Lyric_t, "a"
1, 19263, Note_on_c, 3, 65, 117
1, 19298, Lyric_t, "round "
1, 19298, Note_on_c, 3, 67, 117
1, 19301, Note_off_c, 3, 65, 64
1, 19363, Note_off_c, 3, 67, 64
1, 19364, Lyric_t, "the "
1, 19364, Note_on_c, 3, 67, 113
1, 19392, Note_off_c, 3, 67, 64
1, 19394, Lyric_t, "block. "
1, 19394, Lyric_t, "\015"
1, 19394, Note_on_c, 3, 67, 114
1, 19439, Note_off_c, 3, 67, 64
1, 19445, Lyric_t, "\012"
1, 19447, Note_on_c, 9, 38, 22
1, 19448, Note_off_c, 9, 38, 64
1, 19455, Note_on_c, 2, 46, 108
1, 19457, Note_on_c, 9, 38, 32
1, 19457, Note_on_c, 0, 70, 127
1, 19458, Note_off_c, 9, 38, 64
1, 19469, Note_on_c, 9, 38, 46
1, 19470, Note_off_c, 9, 38, 64
1, 19475, Note_off_c, 0, 70, 64
1, 19478, Note_on_c, 9, 38, 56
1, 19479, Note_off_c, 9, 38, 64
1, 19486, Note_on_c, 1, 38, 95
1, 19487, Note_on_c, 9, 35, 105
1, 19487, Note_on_c, 9, 38, 96
1, 19487, Note_off_c, 2, 46, 64
1, 19488, Note_off_c, 9, 38, 64
1, 19488, Note_off_c, 9, 35, 64
1, 19488, Note_on_c, 2, 48, 113
1, 19489, Note_on_c, 0, 72, 98
1, 19489, Note_on_c, 5, 64, 94
1, 19489, Note_on_c, 5, 60, 76
1, 19489, Note_on_c, 7, 64, 104
1, 19489, Note_on_c, 7, 60, 86
1, 19490, Note_on_c, 5, 69, 85
1, 19490, Note_on_c, 7, 69, 95
1, 19514, Note_off_c, 2, 48, 64
1, 19519, Note_on_c, 2, 49, 109
1, 19521, Note_off_c, 0, 72, 64
1, 19522, Note_on_c, 0, 74, 80
1, 19536, Note_off_c, 0, 74, 64
1, 19538, Note_off_c, 5, 69, 64
1, 19538, Note_off_c, 7, 69, 64
1, 19543, Note_off_c, 5, 64, 64
1, 19543, Note_off_c, 7, 64, 64
1, 19544, Note_off_c, 5, 60, 64
1, 19544, Note_off_c, 7, 60, 64
1, 19545, Lyric_t, "I'm "
1, 19545, Note_on_c, 3, 67, 120
1, 19548, Note_off_c, 2, 49, 64
1, 19551, Note_on_c, 2, 50, 111
1, 19553, Note_on_c, 0, 77, 100
1, 19573, Note_off_c, 0, 77, 64
1, 19582, Note_off_c, 3, 67, 64
1, 19583, Lyric_t, "goin' "
1, 19583, Note_on_c, 3, 67, 123
1, 19583, Note_on_c, 9, 38, 107
1, 19583, Note_on_c, 1, 31, 84
1, 19583, Note_off_c, 2, 50, 64
1, 19583, Note_on_c, 5, 55, 56
1, 19583, Note_on_c, 7, 55, 66
1, 19584, Note_off_c, 9, 38, 64
1, 19584, Note_on_c, 2, 55, 113
1, 19584, Note_on_c, 5, 59, 91
1, 19584, Note_on_c, 7, 59, 101
1, 19585, Note_on_c, 9, 35, 106
1, 19585, Note_on_c, 0, 79, 116
1, 19585, Note_on_c, 0, 74, 116
1, 19585, Note_on_c, 0, 62, 112
1, 19585, Note_on_c, 0, 55, 114
1, 19585, Note_on_c, 5, 62, 90
1, 19585, Note_on_c, 7, 62, 100
1, 19586, Note_off_c, 9, 35, 64
1, 19586, Note_on_c, 5, 67, 74
1, 19586, Note_on_c, 7, 67, 84
1, 19587, Note_off_c, 1, 38, 64
1, 19610, Note_off_c, 0, 55, 64
1, 19611, Note_off_c, 0, 74, 64
1, 19612, Note_off_c, 0, 79, 64
1, 19613, Note_off_c, 0, 62, 64
1, 19616, Note_off_c, 2, 55, 64
1, 19616, Note_off_c, 5, 62, 64
1, 19616, Note_off_c, 7, 62, 64
1, 19618, Note_off_c, 5, 55, 64
1, 19618, Note_off_c, 7, 55, 64
1, 19619, Note_off_c, 5, 59, 64
1, 19619, Note_off_c, 5, 67, 64
1, 19619, Note_off_c, 7, 59, 64
1, 19619, Note_off_c, 7, 67, 64
1, 19626, Note_off_c, 3, 67, 64
1, 19627, Lyric_t, "to "
1, 19627, Note_on_c, 3, 67, 118
1, 19639, Note_off_c, 1, 31, 64
1, 19651, Note_off_c, 3, 67, 64
1, 19653, Lyric_t, "the "
1, 19653, Note_on_c, 3, 67, 117
1, 19678, Note_off_c, 3, 67, 64
1, 19679, Lyric_t, "beau"
1, 19679, Note_on_c, 3, 67, 116
1, 19697, Note_off_c, 3, 67, 64
1, 19700, Lyric_t, "ty "
1, 19700, Note_on_c, 3, 67, 117
1, 19730, Lyric_t, "shop, "
1, 19730, Lyric_t, "\015"
1, 19730, Note_off_c, 3, 67, 64
1, 19730, Note_on_c, 3, 65, 123
1, 19774, Lyric_t, "where "
1, 19774, Note_on_c, 3, 67, 117
1, 19776, Note_off_c, 3, 65, 64
1, 19798, Note_off_c, 3, 67, 64
1, 19801, Lyric_t, "I "
1, 19801, Note_on_c, 3, 67, 117
1, 19823, Lyric_t, "can "
1, 19823, Note_on_c, 3, 65, 117
1, 19827, Note_off_c, 3, 67, 64
1, 19839, Note_on_c, 9, 38, 29
1, 19839, Note_on_c, 0, 70, 127
1, 19840, Note_off_c, 9, 38, 64
1, 19841, Note_on_c, 2, 46, 113
1, 19847, Note_on_c, 9, 38, 39
1, 19848, Note_off_c, 9, 38, 64
1, 19856, Note_on_c, 9, 38, 50
1, 19856, Note_off_c, 0, 70, 64
1, 19857, Note_off_c, 9, 38, 64
1, 19864, Note_on_c, 9, 38, 59
1, 19865, Note_off_c, 9, 38, 64
1, 19868, Note_off_c, 3, 65, 64
1, 19870, Note_on_c, 5, 60, 75
1, 19870, Note_on_c, 7, 60, 85
1, 19871, Note_on_c, 1, 38, 94
1, 19871, Note_on_c, 5, 64, 95
1, 19871, Note_on_c, 7, 64, 105
1, 19872, Note_on_c, 9, 38, 102
1, 19872, Note_on_c, 0, 72, 98
1, 19872, Note_off_c, 2, 46, 64
1, 19873, Note_off_c, 9, 38, 64
1, 19873, Note_on_c, 9, 35, 104
1, 19873, Note_on_c, 2, 48, 111
1, 19874, Note_off_c, 9, 35, 64
1, 19874, Note_on_c, 5, 69, 85
1, 19874, Note_on_c, 7, 69, 95
1, 19900, Note_off_c, 0, 72, 64
1, 19901, Note_off_c, 2, 48, 64
1, 19903, Note_on_c, 2, 49, 113
1, 19905, Note_on_c, 0, 74, 80
1, 19919, Note_off_c, 5, 60, 64
1, 19919, Note_off_c, 7, 60, 64
1, 19920, Note_off_c, 5, 69, 64
1, 19920, Note_off_c, 7, 69, 64
1, 19922, Note_off_c, 0, 74, 64
1, 19922, Note_off_c, 5, 64, 64
1, 19922, Note_off_c, 7, 64, 64
1, 19932, Note_off_c, 2, 49, 64
1, 19935, Note_on_c, 2, 50, 108
1, 19937, Note_on_c, 0, 77, 101
1, 19955, Note_off_c, 0, 77, 64
1, 19966, Note_on_c, 9, 38, 111
1, 19966, Note_off_c, 1, 38, 64
1, 19967, Note_off_c, 9, 38, 64
1, 19967, Note_on_c, 1, 31, 91
1, 19967, Note_on_c, 0, 79, 116
1, 19967, Note_on_c, 2, 55, 120
1, 19968, Lyric_t, "get "
1, 19968, Note_on_c, 3, 71, 123
1, 19968, Note_on_c, 9, 35, 106
1, 19968, Note_on_c, 0, 62, 107
1, 19968, Note_on_c, 0, 74, 116
1, 19968, Note_on_c, 0, 55, 114
1, 19968, Note_off_c, 2, 50, 64
1, 19969, Note_off_c, 9, 35, 64
1, 19969, Note_on_c, 5, 59, 83
1, 19969, Note_on_c, 5, 55, 30
1, 19969, Note_on_c, 7, 59, 93
1, 19969, Note_on_c, 7, 55, 40
1, 19970, Note_on_c, 5, 62, 93
1, 19970, Note_on_c, 5, 67, 91
1, 19970, Note_on_c, 7, 62, 103
1, 19970, Note_on_c, 7, 67, 101
1, 19996, Note_off_c, 0, 74, 64
1, 19996, Note_off_c, 0, 62, 64
1, 19996, Note_off_c, 5, 55, 64
1, 19996, Note_off_c, 7, 55, 64
1, 19997, Note_off_c, 0, 55, 64
1, 19999, Note_off_c, 0, 79, 64
1, 20002, Note_off_c, 5, 67, 64
1, 20002, Note_off_c, 7, 67, 64
1, 20004, Note_off_c, 5, 62, 64
1, 20004, Note_off_c, 7, 62, 64
1, 20005, Note_off_c, 5, 59, 64
1, 20005, Note_off_c, 7, 59, 64
1, 20015, Note_off_c, 1, 31, 64
1, 20025, Note_off_c, 2, 55, 64
1, 20027, Note_off_c, 3, 71, 64
1, 20030, Lyric_t, "my "
1, 20030, Note_on_c, 3, 71, 119
1, 20030, Note_on_c, 2, 55, 103
1, 20058, Note_off_c, 2, 55, 64
1, 20062, Note_on_c, 2, 54, 121
1, 20065, Note_off_c, 3, 71, 64
1, 20067, Lyric_t, "hair "
1, 20067, Note_on_c, 3, 71, 118
1, 20121, Note_off_c, 3, 71, 64
1, 20122, Note_off_c, 2, 54, 64
1, 20125, Note_on_c, 2, 55, 108
1, 20126, Note_on_c, 5, 73, 97
1, 20126, Note_on_c, 7, 73, 107
1, 20127, Lyric_t, "a "
1, 20127, Note_on_c, 3, 69, 119
1, 20137, Note_off_c, 5, 73, 64
1, 20137, Note_off_c, 7, 73, 64
1, 20138, Note_on_c, 5, 74, 87
1, 20138, Note_on_c, 7, 74, 97
1, 20158, Note_off_c, 2, 55, 64
1, 20159, Note_on_c, 2, 54, 123
1, 20159, Note_off_c, 5, 74, 64
1, 20159, Note_off_c, 7, 74, 64
1, 20161, Lyric_t, "set."" "
1, 20161, Lyric_t, "\015"
1, 20161, Note_off_c, 3, 69, 64
1, 20161, Note_on_c, 3, 67, 121
1, 20162, Note_on_c, 5, 74, 103
1, 20162, Note_on_c, 7, 74, 113
1, 20193, Lyric_t, "\012"
1, 20219, Note_off_c, 2, 54, 64
1, 20220, Note_on_c, 9, 38, 32
1, 20220, Note_off_c, 5, 74, 64
1, 20220, Note_off_c, 7, 74, 64
1, 20221, Note_off_c, 9, 38, 64
1, 20222, Note_on_c, 5, 74, 97
1, 20222, Note_on_c, 7, 74, 107
1, 20223, Note_on_c, 2, 55, 113
1, 20231, Note_on_c, 9, 38, 39
1, 20232, Note_off_c, 9, 38, 64
1, 20239, Note_on_c, 9, 38, 63
1, 20240, Note_off_c, 9, 38, 64
1, 20252, Note_on_c, 9, 38, 105
1, 20253, Note_off_c, 9, 38, 64
1, 20254, Note_off_c, 2, 55, 64
1, 20255, Note_on_c, 2, 54, 126
1, 20255, Note_off_c, 5, 74, 64
1, 20255, Note_off_c, 7, 74, 64
1, 20256, Note_off_c, 3, 67, 64
1, 20256, Note_on_c, 5, 74, 103
1, 20256, Note_on_c, 7, 74, 113
1, 20257, Lyric_t, "Don't "
1, 20257, Note_on_c, 3, 69, 121
1, 20257, Note_on_c, 9, 35, 104
1, 20258, Note_off_c, 9, 35, 64
1, 20258, Note_on_c, 1, 35, 95
1, 20287, Note_on_c, 9, 51, 108
1, 20287, Note_on_c, 9, 38, 115
1, 20288, Note_off_c, 9, 38, 64
1, 20288, Note_off_c, 9, 51, 64
1, 20309, Note_off_c, 3, 69, 64
1, 20316, Note_off_c, 2, 54, 64
1, 20319, Note_on_c, 9, 51, 87
1, 20319, Note_on_c, 9, 38, 110
1, 20319, Note_on_c, 2, 55, 111
1, 20320, Note_off_c, 9, 38, 64
1, 20320, Note_off_c, 9, 51, 64
1, 20320, Note_off_c, 5, 74, 64
1, 20320, Note_off_c, 7, 74, 64
1, 20322, Note_on_c, 5, 74, 97
1, 20322, Note_on_c, 7, 74, 107
1, 20352, Note_on_c, 9, 51, 104
1, 20352, Note_on_c, 9, 35, 127
1, 20352, Note_on_c, 1, 36, 96
1, 20352, Note_off_c, 2, 55, 64
1, 20353, Note_off_c, 9, 35, 64
1, 20353, Note_off_c, 9, 51, 64
1, 20353, Note_on_c, 2, 48, 121
1, 20357, Note_off_c, 1, 35, 64
1, 20359, Note_off_c, 5, 74, 64
1, 20359, Note_off_c, 7, 74, 64
1, 20383, Note_on_c, 9, 51, 83
1, 20383, Note_on_c, 5, 74, 89
1, 20383, Note_on_c, 7, 74, 99
1, 20384, Note_off_c, 9, 51, 64
1, 20412, Lyric_t, "start "
1, 20412, Note_on_c, 3, 70, 125
1, 20414, Note_on_c, 5, 73, 100
1, 20414, Note_on_c, 7, 73, 110
1, 20415, Note_on_c, 9, 51, 85
1, 20415, Note_off_c, 5, 74, 64
1, 20415, Note_off_c, 7, 74, 64
1, 20416, Note_off_c, 9, 51, 64
1, 20421, Note_off_c, 2, 48, 64
1, 20445, Note_on_c, 5, 72, 74
1, 20445, Note_on_c, 7, 72, 84
1, 20447, Note_on_c, 9, 51, 112
1, 20447, Note_on_c, 9, 38, 127
1, 20447, Note_on_c, 1, 40, 87
1, 20448, Note_off_c, 9, 38, 64
1, 20448, Note_off_c, 9, 51, 64
1, 20448, Note_off_c, 5, 73, 64
1, 20448, Note_off_c, 7, 73, 64
1, 20449, Note_on_c, 2, 51, 125
1, 20454, Note_off_c, 1, 36, 64
1, 20478, Note_on_c, 5, 70, 87
1, 20478, Note_on_c, 7, 70, 97
1, 20479, Note_on_c, 9, 51, 93
1, 20479, Note_off_c, 5, 72, 64
1, 20479, Note_off_c, 7, 72, 64
1, 20480, Lyric_t, "me "
1, 20480, Note_on_c, 3, 69, 120
1, 20480, Note_off_c, 9, 51, 64
1, 20483, Note_off_c, 3, 70, 64
1, 20505, Note_off_c, 2, 51, 64
1, 20509, Note_off_c, 5, 70, 64
1, 20509, Note_off_c, 7, 70, 64
1, 20510, Note_on_c, 2, 52, 111
1, 20511, Note_off_c, 3, 69, 64
1, 20511, Note_on_c, 9, 51, 99
1, 20511, Note_on_c, 5, 72, 94
1, 20511, Note_on_c, 7, 72, 104
1, 20512, Lyric_t, "to "
1, 20512, Note_on_c, 3, 69, 105
1, 20512, Note_off_c, 9, 51, 64
1, 20543, Note_off_c, 3, 69, 64
1, 20543, Note_on_c, 1, 43, 91
1, 20544, Lyric_t, "talk"
1, 20544, Note_on_c, 3, 67, 113
1, 20544, Note_on_c, 9, 51, 104
1, 20544, Note_off_c, 2, 52, 64
1, 20544, Note_off_c, 5, 72, 64
1, 20544, Note_off_c, 7, 72, 64
1, 20545, Note_off_c, 9, 51, 64
1, 20545, Note_on_c, 9, 35, 109
1, 20545, Note_on_c, 2, 55, 111
1, 20545, Note_on_c, 5, 70, 96
1, 20545, Note_on_c, 7, 70, 106
1, 20546, Note_off_c, 9, 35, 64
1, 20546, Note_off_c, 1, 40, 64
1, 20576, Note_on_c, 9, 51, 97
1, 20577, Note_off_c, 9, 51, 64
1, 20577, Note_on_c, 0, 84, 124
1, 20577, Note_on_c, 0, 78, 111
1, 20578, Note_on_c, 5, 72, 87
1, 20578, Note_on_c, 7, 72, 97
1, 20581, Note_off_c, 5, 70, 64
1, 20581, Note_off_c, 7, 70, 64
1, 20601, Lyric_t, "in', "
1, 20601, Lyric_t, "\015"
1, 20601, Note_on_c, 3, 69, 114
1, 20603, Note_off_c, 3, 67, 64
1, 20606, Note_off_c, 2, 55, 64
1, 20607, Note_on_c, 9, 51, 99
1, 20607, Note_on_c, 2, 55, 108
1, 20607, Note_off_c, 5, 72, 64
1, 20607, Note_off_c, 7, 72, 64
1, 20608, Note_off_c, 9, 51, 64
1, 20608, Note_on_c, 0, 79, 96
1, 20608, Note_on_c, 5, 70, 99
1, 20608, Note_on_c, 7, 70, 109
1, 20609, Note_off_c, 0, 78, 64
1, 20612, Note_off_c, 0, 84, 64
1, 20631, Note_off_c, 1, 43, 64
1, 20634, Note_off_c, 5, 70, 64
1, 20634, Note_off_c, 7, 70, 64
1, 20638, Note_off_c, 3, 69, 64
1, 20638, Note_on_c, 1, 45, 82
1, 20638, Note_off_c, 0, 79, 64
1, 20638, Note_off_c, 2, 55, 64
1, 20639, Note_on_c, 9, 51, 114
1, 20640, Note_off_c, 9, 51, 64
1, 20641, Note_on_c, 9, 38, 127
1, 20641, Note_on_c, 0, 72, 100
1, 20642, Note_off_c, 9, 38, 64
1, 20642, Note_on_c, 5, 65, 96
1, 20642, Note_on_c, 7, 65, 106
1, 20643, Note_on_c, 2, 57, 109
1, 20643, Note_off_c, 5, 65, 64
1, 20643, Note_on_c, 5, 66, 88
1, 20643, Note_off_c, 7, 65, 64
1, 20643, Note_on_c, 7, 66, 98
1, 20649, Note_off_c, 5, 66, 64
1, 20649, Note_on_c, 5, 67, 92
1, 20649, Note_off_c, 7, 66, 64
1, 20649, Note_on_c, 7, 67, 102
1, 20671, Note_on_c, 9, 51, 87
1, 20672, Note_off_c, 9, 51, 64
1, 20672, Note_on_c, 0, 79, 118
1, 20680, Note_off_c, 0, 72, 64
1, 20680, Note_off_c, 5, 67, 64
1, 20680, Note_off_c, 7, 67, 64
1, 20699, Note_off_c, 0, 79, 64
1, 20700, Note_off_c, 2, 57, 64
1, 20702, Note_on_c, 2, 57, 105
1, 20703, Note_on_c, 9, 51, 90
1, 20703, Note_on_c, 0, 72, 98
1, 20704, Note_off_c, 9, 51, 64
1, 20704, Note_on_c, 5, 64, 81
1, 20704, Note_on_c, 7, 64, 91
1, 20724, Note_off_c, 0, 72, 64
1, 20730, Note_off_c, 5, 64, 64
1, 20730, Note_off_c, 7, 64, 64
1, 20731, Note_off_c, 1, 45, 64
1, 20733, Note_on_c, 1, 46, 84
1, 20735, Note_on_c, 9, 51, 102
1, 20735, Note_on_c, 9, 35, 109
1, 20735, Note_on_c, 0, 81, 122
1, 20735, Note_on_c, 0, 77, 112
1, 20735, Note_off_c, 2, 57, 64
1, 20736, Note_off_c, 9, 35, 64
1, 20736, Note_off_c, 9, 51, 64
1, 20737, Note_on_c, 2, 58, 113
1, 20767, Note_on_c, 0, 72, 104
1, 20768, Note_on_c, 9, 51, 92
1, 20768, Note_on_c, 5, 74, 103
1, 20768, Note_on_c, 7, 74, 113
1, 20769, Note_off_c, 9, 51, 64
1, 20769, Note_off_c, 0, 77, 64
1, 20769, Note_off_c, 0, 81, 64
1, 20791, Note_off_c, 0, 72, 64
1, 20794, Lyric_t, "I'll "
1, 20794, Note_on_c, 3, 64, 124
1, 20794, Note_off_c, 5, 74, 64
1, 20794, Note_off_c, 7, 74, 64
1, 20796, Note_on_c, 5, 73, 91
1, 20796, Note_on_c, 7, 73, 101
1, 20799, Note_on_c, 0, 81, 120
1, 20799, Note_on_c, 0, 77, 110
1, 20801, Note_on_c, 9, 51, 93
1, 20802, Note_off_c, 9, 51, 64
1, 20819, Note_off_c, 5, 73, 64
1, 20819, Note_off_c, 7, 73, 64
1, 20826, Note_off_c, 2, 58, 64
1, 20827, Note_on_c, 5, 72, 94
1, 20827, Note_on_c, 7, 72, 104
1, 20829, Note_off_c, 1, 46, 64
1, 20830, Note_off_c, 0, 81, 64
1, 20831, Note_on_c, 9, 38, 114
1, 20831, Note_on_c, 1, 45, 86
1, 20831, Note_on_c, 0, 72, 96
1, 20832, Note_off_c, 9, 38, 64
1, 20832, Note_on_c, 9, 51, 106
1, 20832, Note_on_c, 2, 57, 111
1, 20833, Note_off_c, 9, 51, 64
1, 20833, Note_off_c, 0, 77, 64
1, 20849, Note_off_c, 5, 72, 64
1, 20849, Note_off_c, 7, 72, 64
1, 20852, Note_off_c, 0, 72, 64
1, 20857, Note_on_c, 5, 70, 81
1, 20857, Note_on_c, 7, 70, 91
1, 20863, Note_on_c, 9, 51, 92
1, 20863, Note_on_c, 0, 79, 112
1, 20863, Note_on_c, 0, 76, 108
1, 20864, Note_off_c, 3, 64, 64
1, 20864, Note_off_c, 9, 51, 64
1, 20865, Lyric_t, "tell "
1, 20865, Note_on_c, 3, 67, 120
1, 20885, Note_off_c, 5, 70, 64
1, 20885, Note_off_c, 7, 70, 64
1, 20891, Note_off_c, 0, 79, 64
1, 20891, Note_off_c, 2, 57, 64
1, 20892, Note_on_c, 5, 72, 105
1, 20892, Note_on_c, 7, 72, 115
1, 20894, Note_off_c, 0, 76, 64
1, 20894, Note_on_c, 2, 57, 103
1, 20895, Note_on_c, 9, 51, 89
1, 20895, Note_on_c, 0, 72, 83
1, 20896, Note_off_c, 9, 51, 64
1, 20912, Note_off_c, 5, 72, 64
1, 20912, Note_off_c, 7, 72, 64
1, 20916, Note_off_c, 0, 72, 64
1, 20922, Note_off_c, 1, 45, 64
1, 20925, Lyric_t, "ev"
1, 20925, Note_on_c, 3, 70, 111
1, 20926, Note_off_c, 2, 57, 64
1, 20927, Note_on_c, 9, 51, 108
1, 20927, Note_on_c, 1, 43, 83
1, 20927, Note_on_c, 0, 79, 120
1, 20927, Note_on_c, 0, 76, 112
1, 20927, Note_on_c, 5, 70, 85
1, 20927, Note_on_c, 7, 70, 95
1, 20928, Note_off_c, 9, 51, 64
1, 20929, Note_on_c, 9, 35, 108
1, 20929, Note_on_c, 2, 55, 111
1, 20930, Note_off_c, 9, 35, 64
1, 20934, Note_off_c, 3, 67, 64
1, 20952, Note_off_c, 5, 70, 64
1, 20952, Note_off_c, 7, 70, 64
1, 20956, Note_off_c, 3, 70, 64
1, 20958, Lyric_t, "ery"
1, 20958, Note_on_c, 3, 70, 117
1, 20960, Note_on_c, 9, 51, 96
1, 20961, Note_off_c, 9, 51, 64
1, 20962, Note_on_c, 5, 72, 99
1, 20962, Note_on_c, 7, 72, 109
1, 20983, Note_off_c, 5, 72, 64
1, 20983, Note_off_c, 7, 72, 64
1, 20989, Lyric_t, "thing "
1, 20989, Note_on_c, 3, 69, 115
1, 20989, Note_off_c, 2, 55, 64
1, 20990, Note_on_c, 2, 55, 107
1, 20992, Note_off_c, 3, 70, 64
1, 20992, Note_on_c, 9, 51, 96
1, 20993, Note_off_c, 9, 51, 64
1, 20993, Note_on_c, 0, 72, 124
1, 20993, Note_on_c, 5, 70, 87
1, 20993, Note_on_c, 7, 70, 97
1, 21007, Note_off_c, 0, 76, 64
1, 21012, Note_off_c, 1, 43, 64
1, 21015, Note_off_c, 5, 70, 64
1, 21015, Note_off_c, 7, 70, 64
1, 21021, Note_on_c, 1, 40, 82
1, 21023, Note_on_c, 9, 38, 110
1, 21023, Note_off_c, 2, 55, 64
1, 21023, Note_on_c, 2, 52, 114
1, 21024, Note_off_c, 9, 38, 64
1, 21024, Note_on_c, 9, 51, 116
1, 21025, Note_off_c, 9, 51, 64
1, 21026, Note_on_c, 5, 66, 107
1, 21026, Note_on_c, 7, 66, 117
1, 21032, Note_off_c, 0, 79, 64
1, 21038, Note_off_c, 5, 66, 64
1, 21038, Note_on_c, 5, 67, 91
1, 21038, Note_off_c, 7, 66, 64
1, 21038, Note_on_c, 7, 67, 101
1, 21043, Lyric_t, "I "
1, 21043, Note_on_c, 3, 67, 117
1, 21044, Note_off_c, 3, 69, 64
1, 21055, Note_on_c, 9, 51, 89
1, 21056, Note_off_c, 9, 51, 64
1, 21057, Note_on_c, 0, 79, 94
1, 21057, Note_on_c, 0, 76, 97
1, 21058, Note_off_c, 0, 72, 64
1, 21064, Note_off_c, 5, 67, 64
1, 21064, Note_off_c, 7, 67, 64
1, 21082, Note_off_c, 0, 79, 64
1, 21083, Note_off_c, 3, 67, 64
1, 21083, Note_off_c, 2, 52, 64
1, 21085, Lyric_t, "know. "
1, 21085, Lyric_t, "\015"
1, 21085, Note_on_c, 3, 67, 115
1, 21085, Note_off_c, 0, 76, 64
1, 21085, Note_on_c, 5, 64, 84
1, 21085, Note_on_c, 7, 64, 94
1, 21087, Note_on_c, 0, 72, 98
1, 21087, Note_on_c, 2, 52, 103
1, 21088, Note_on_c, 9, 51, 106
1, 21089, Note_off_c, 9, 51, 64
1, 21107, Note_off_c, 0, 72, 64
1, 21109, Note_off_c, 5, 64, 64
1, 21109, Note_off_c, 7, 64, 64
1, 21119, Note_on_c, 9, 35, 108
1, 21119, Note_off_c, 1, 40, 64
1, 21119, Note_on_c, 1, 31, 86
1, 21120, Note_off_c, 9, 35, 64
1, 21121, Note_on_c, 9, 51, 112
1, 21121, Note_on_c, 0, 79, 127
1, 21121, Note_on_c, 0, 73, 123
1, 21121, Note_on_c, 2, 43, 109
1, 21122, Note_off_c, 9, 51, 64
1, 21122, Note_off_c, 2, 52, 64
1, 21142, Note_off_c, 0, 73, 64
1, 21151, Note_on_c, 9, 51, 92
1, 21152, Note_off_c, 9, 51, 64
1, 21153, Note_on_c, 0, 74, 98
1, 21167, Note_off_c, 3, 67, 64
1, 21167, Note_off_c, 0, 79, 64
1, 21168, Note_off_c, 0, 74, 64
1, 21183, Note_on_c, 9, 51, 97
1, 21184, Note_off_c, 9, 51, 64
1, 21184, Note_on_c, 0, 79, 114
1, 21184, Note_on_c, 0, 74, 110
1, 21188, Note_on_c, 5, 55, 30
1, 21188, Note_on_c, 7, 55, 40
1, 21205, Note_off_c, 0, 74, 64
1, 21206, Note_off_c, 0, 79, 64
1, 21215, Note_on_c, 9, 51, 106
1, 21215, Note_on_c, 9, 38, 110
1, 21215, Note_off_c, 1, 31, 64
1, 21215, Note_on_c, 1, 35, 85
1, 21215, Note_on_c, 0, 79, 83
1, 21215, Note_off_c, 2, 43, 64
1, 21215, Note_on_c, 2, 47, 92
1, 21216, Note_off_c, 9, 38, 64
1, 21216, Note_off_c, 9, 51, 64
1, 21216, Note_on_c, 0, 73, 107
1, 21219, Note_on_c, 6, 66, 104
1, 21220, Note_on_c, 5, 59, 46
1, 21220, Note_on_c, 7, 59, 56
1, 21221, Note_on_c, 5, 62, 47
1, 21221, Note_on_c, 7, 62, 57
1, 21228, Pitch_bend_c, 6, 8640
1, 21231, Pitch_bend_c, 6, 12832
1, 21234, Pitch_bend_c, 6, 12896
1, 21235, Note_off_c, 0, 73, 64
1, 21237, Pitch_bend_c, 6, 12928
1, 21240, Pitch_bend_c, 6, 12992
1, 21242, Pitch_bend_c, 6, 13056
1, 21247, Note_on_c, 9, 51, 99
1, 21248, Note_off_c, 9, 51, 64
1, 21249, Note_on_c, 0, 74, 95
1, 21254, Pitch_bend_c, 6, 13088
1, 21262, Note_off_c, 0, 74, 64
1, 21263, Note_off_c, 0, 79, 64
1, 21268, Pitch_bend_c, 6, 13056
1, 21274, Pitch_bend_c, 6, 13024
1, 21276, Note_off_c, 2, 47, 64
1, 21276, Pitch_bend_c, 6, 12992
1, 21278, Note_on_c, 2, 47, 107
1, 21279, Note_on_c, 9, 51, 99
1, 21279, Note_on_c, 0, 74, 118
1, 21279, Note_on_c, 0, 79, 104
1, 21279, Note_off_c, 5, 59, 64
1, 21279, Note_off_c, 7, 59, 64
1, 21280, Note_off_c, 9, 51, 64
1, 21280, Note_off_c, 5, 62, 64
1, 21280, Note_off_c, 7, 62, 64
1, 21280, Pitch_bend_c, 6, 12960
1, 21282, Note_on_c, 5, 59, 80
1, 21282, Note_on_c, 7, 59, 90
1, 21282, Pitch_bend_c, 6, 12928
1, 21283, Note_on_c, 5, 62, 81
1, 21283, Note_on_c, 7, 62, 91
1, 21288, Pitch_bend_c, 6, 12896
1, 21293, Note_off_c, 5, 55, 64
1, 21293, Note_off_c, 7, 55, 64
1, 21294, Note_off_c, 5, 62, 64
1, 21294, Note_off_c, 7, 62, 64
1, 21294, Pitch_bend_c, 6, 12832
1, 21296, Pitch_bend_c, 6, 12800
1, 21298, Note_off_c, 0, 74, 64
1, 21298, Note_off_c, 5, 59, 64
1, 21298, Note_off_c, 7, 59, 64
1, 21299, Note_off_c, 0, 79, 64
1, 21300, Pitch_bend_c, 6, 12704
1, 21302, Pitch_bend_c, 6, 12640
1, 21309, Pitch_bend_c, 6, 12672
1, 21310, Note_on_c, 1, 38, 89
1, 21311, Note_on_c, 9, 51, 114
1, 21311, Note_on_c, 0, 79, 95
1, 21311, Note_on_c, 0, 73, 107
1, 21311, Note_on_c, 0, 59, 86
1, 21311, Note_on_c, 2, 50, 113
1, 21312, Note_off_c, 9, 51, 64
1, 21312, Note_off_c, 2, 47, 64
1, 21312, Pitch_bend_c, 6, 12736
1, 21313, Note_on_c, 9, 35, 108
1, 21313, Note_on_c, 0, 53, 67
1, 21314, Note_off_c, 9, 35, 64
1, 21314, Note_off_c, 1, 35, 64
1, 21314, Pitch_bend_c, 6, 12800
1, 21317, Pitch_bend_c, 6, 12832
1, 21320, Note_off_c, 0, 53, 64
1, 21325, Note_off_c, 0, 59, 64
1, 21328, Note_off_c, 0, 73, 64
1, 21329, Pitch_bend_c, 6, 12800
1, 21334, Pitch_bend_c, 6, 12768
1, 21337, Pitch_bend_c, 6, 12800
1, 21343, Note_on_c, 9, 51, 89
1, 21343, Pitch_bend_c, 6, 12832
1, 21344, Note_off_c, 9, 51, 64
1, 21344, Note_on_c, 0, 74, 90
1, 21357, Note_off_c, 0, 74, 64
1, 21360, Note_off_c, 0, 79, 64
1, 21372, Note_off_c, 2, 50, 64
1, 21374, Pitch_bend_c, 6, 12800
1, 21375, Note_on_c, 9, 51, 100
1, 21375, Note_on_c, 0, 79, 108
1, 21375, Note_on_c, 0, 74, 104
1, 21375, Note_on_c, 2, 50, 105
1, 21376, Note_off_c, 9, 51, 64
1, 21377, Note_on_c, 5, 55, 30
1, 21377, Note_on_c, 7, 55, 40
1, 21380, Pitch_bend_c, 6, 12768
1, 21391, Pitch_bend_c, 6, 12800
1, 21394, Pitch_bend_c, 6, 12832
1, 21398, Note_off_c, 0, 79, 64
1, 21399, Note_off_c, 6, 66, 64
1, 21405, Note_off_c, 0, 74, 64
1, 21405, Note_off_c, 2, 50, 64
1, 21405, Pitch_bend_c, 6, 8192
1, 21406, Note_on_c, 1, 40, 81
1, 21406, Note_on_c, 6, 67, 104
1, 21407, Note_on_c, 9, 51, 112
1, 21407, Note_on_c, 0, 67, 116
1, 21407, Note_on_c, 2, 52, 117
1, 21407, Note_off_c, 5, 55, 64
1, 21407, Note_off_c, 7, 55, 64
1, 21408, Note_off_c, 9, 51, 64
1, 21408, Note_on_c, 9, 38, 121
1, 21409, Note_off_c, 9, 38, 64
1, 21410, Note_on_c, 5, 60, 74
1, 21410, Note_on_c, 7, 60, 84
1, 21412, Note_on_c, 5, 64, 81
1, 21412, Note_on_c, 7, 64, 91
1, 21412, Pitch_bend_c, 6, 8832
1, 21415, Note_off_c, 1, 38, 64
1, 21418, Pitch_bend_c, 6, 8864
1, 21420, Pitch_bend_c, 6, 8928
1, 21423, Lyric_t, "\012"
1, 21423, Pitch_bend_c, 6, 8960
1, 21426, Pitch_bend_c, 6, 8928
1, 21429, Pitch_bend_c, 6, 8960
1, 21432, Pitch_bend_c, 6, 9088
1, 21433, Note_off_c, 0, 67, 64
1, 21434, Pitch_bend_c, 6, 9280
1, 21438, Pitch_bend_c, 6, 9504
1, 21439, Note_on_c, 9, 51, 90
1, 21439, Note_on_c, 0, 74, 114
1, 21440, Note_off_c, 9, 51, 64
1, 21441, Pitch_bend_c, 6, 9312
1, 21443, Pitch_bend_c, 6, 544
1, 21446, Pitch_bend_c, 6, 576
1, 21447, Note_off_c, 5, 64, 64
1, 21447, Note_off_c, 7, 64, 64
1, 21449, Pitch_bend_c, 6, 640
1, 21451, Note_off_c, 5, 60, 64
1, 21451, Note_off_c, 7, 60, 64
1, 21458, Pitch_bend_c, 6, 672
1, 21460, Pitch_bend_c, 6, 640
1, 21465, Note_off_c, 2, 52, 64
1, 21466, Pitch_bend_c, 6, 544
1, 21467, Note_off_c, 0, 74, 64
1, 21468, Pitch_bend_c, 6, 640
1, 21469, Note_off_c, 6, 67, 64
1, 21469, Pitch_bend_c, 6, 8192
1, 21469, Note_on_c, 6, 65, 85
1, 21469, Note_on_c, 6, 62, 86
1, 21470, Note_on_c, 2, 52, 105
1, 21470, Note_off_c, 6, 65, 64
1, 21470, Pitch_bend_c, 6, 8576
1, 21471, Note_on_c, 9, 51, 90
1, 21471, Note_on_c, 0, 67, 90
1, 21472, Note_off_c, 9, 51, 64
1, 21473, Note_on_c, 5, 45, 33
1, 21473, Note_on_c, 7, 45, 43
1, 21475, Note_on_c, 5, 55, 21
1, 21475, Note_on_c, 7, 55, 31
1, 21494, Note_off_c, 6, 62, 64
1, 21501, Note_off_c, 1, 40, 64
1, 21501, Note_off_c, 5, 55, 64
1, 21501, Note_off_c, 7, 55, 64
1, 21502, Note_on_c, 1, 43, 84
1, 21502, Note_on_c, 6, 73, 102
1, 21503, Note_on_c, 9, 51, 110
1, 21503, Note_on_c, 0, 73, 120
1, 21504, Note_off_c, 9, 51, 64
1, 21505, Note_on_c, 9, 35, 108
1, 21505, Note_off_c, 2, 52, 64
1, 21505, Note_on_c, 5, 55, 60
1, 21505, Note_on_c, 7, 55, 70
1, 21506, Note_off_c, 9, 35, 64
1, 21506, Note_on_c, 2, 55, 109
1, 21507, Note_off_c, 5, 45, 64
1, 21507, Note_on_c, 5, 58, 60
1, 21507, Note_on_c, 5, 62, 16
1, 21507, Note_off_c, 7, 45, 64
1, 21507, Note_on_c, 7, 58, 70
1, 21507, Note_on_c, 7, 62, 26
1, 21507, Note_on_c, 6, 78, 26
1, 21511, Note_off_c, 6, 73, 64
1, 21511, Note_on_c, 6, 74, 89
1, 21514, Note_off_c, 6, 78, 64
1, 21514, Note_on_c, 6, 79, 21
1, 21519, Note_off_c, 0, 67, 64
1, 21520, Note_off_c, 6, 79, 64
1, 21523, Note_off_c, 5, 58, 64
1, 21523, Note_off_c, 7, 58, 64
1, 21529, Note_off_c, 0, 73, 64
1, 21535, Note_on_c, 9, 51, 88
1, 21536, Note_off_c, 9, 51, 64
1, 21536, Note_on_c, 0, 67, 89
1, 21545, Note_off_c, 5, 62, 64
1, 21545, Note_off_c, 7, 62, 64
1, 21562, Note_off_c, 2, 55, 64
1, 21562, Pitch_bend_c, 6, 8512
1, 21566, Note_on_c, 2, 55, 108
1, 21567, Note_on_c, 9, 51, 96
1, 21567, Note_on_c, 0, 72, 124
1, 21568, Note_off_c, 9, 51, 64
1, 21573, Pitch_bend_c, 6, 8448
1, 21576, Pitch_bend_c, 6, 8416
1, 21580, Note_off_c, 0, 67, 64
1, 21582, Pitch_bend_c, 6, 8448
1, 21585, Pitch_bend_c, 6, 8576
1, 21587, Pitch_bend_c, 6, 8800
1, 21590, Pitch_bend_c, 6, 5056
1, 21593, Pitch_bend_c, 6, 5088
1, 21596, Note_off_c, 2, 55, 64
1, 21596, Note_off_c, 6, 74, 64
1, 21596, Pitch_bend_c, 6, 5152
1, 21598, Note_on_c, 1, 40, 90
1, 21599, Note_on_c, 9, 51, 116
1, 21599, Note_on_c, 9, 38, 112
1, 21600, Note_off_c, 9, 38, 64
1, 21600, Note_off_c, 9, 51, 64
1, 21600, Note_on_c, 2, 52, 108
1, 21600, Pitch_bend_c, 6, 8192
1, 21601, Note_on_c, 0, 70, 107
1, 21602, Note_on_c, 5, 59, 41
1, 21602, Note_on_c, 7, 59, 51
1, 21602, Note_on_c, 6, 73, 104
1, 21604, Pitch_bend_c, 6, 10912
1, 21606, Note_off_c, 1, 43, 64
1, 21608, Pitch_bend_c, 6, 11680
1, 21610, Note_off_c, 0, 72, 64
1, 21611, Pitch_bend_c, 6, 12160
1, 21614, Pitch_bend_c, 6, 12512
1, 21617, Pitch_bend_c, 6, 12672
1, 21620, Pitch_bend_c, 6, 12736
1, 21622, Pitch_bend_c, 6, 12672
1, 21623, Note_off_c, 0, 70, 64
1, 21625, Pitch_bend_c, 6, 12640
1, 21628, Pitch_bend_c, 6, 12544
1, 21631, Note_on_c, 9, 51, 88
1, 21631, Note_on_c, 0, 67, 80
1, 21631, Pitch_bend_c, 6, 12480
1, 21632, Note_off_c, 9, 51, 64
1, 21634, Pitch_bend_c, 6, 12416
1, 21647, Note_off_c, 0, 67, 64
1, 21649, Pitch_bend_c, 6, 12480
1, 21658, Note_off_c, 2, 52, 64
1, 21662, Note_on_c, 0, 65, 110
1, 21662, Note_on_c, 2, 52, 106
1, 21663, Note_on_c, 9, 51, 96
1, 21663, Note_on_c, 0, 69, 94
1, 21664, Note_off_c, 9, 51, 64
1, 21666, Note_on_c, 5, 62, 83
1, 21666, Note_on_c, 7, 62, 93
1, 21667, Note_on_c, 5, 67, 82
1, 21667, Note_on_c, 7, 67, 92
1, 21669, Pitch_bend_c, 6, 12416
1, 21675, Note_off_c, 0, 69, 64
1, 21680, Pitch_bend_c, 6, 12480
1, 21683, Pitch_bend_c, 6, 12608
1, 21686, Pitch_bend_c, 6, 12768
1, 21689, Pitch_bend_c, 6, 12992
1, 21690, Note_off_c, 6, 73, 64
1, 21692, Note_off_c, 2, 52, 64
1, 21694, Note_on_c, 1, 38, 91
1, 21694, Pitch_bend_c, 6, 8192
1, 21695, Note_on_c, 9, 51, 100
1, 21695, Note_on_c, 9, 35, 108
1, 21695, Note_on_c, 2, 50, 103
1, 21696, Note_off_c, 9, 35, 64
1, 21696, Note_off_c, 9, 51, 64
1, 21696, Note_on_c, 6, 72, 104
1, 21697, Pitch_bend_c, 6, 9120
1, 21698, Pitch_bend_c, 6, 9152
1, 21699, Pitch_bend_c, 6, 9120
1, 21702, Note_off_c, 1, 40, 64
1, 21705, Pitch_bend_c, 6, 9152
1, 21708, Pitch_bend_c, 6, 9248
1, 21711, Pitch_bend_c, 6, 9280
1, 21714, Pitch_bend_c, 6, 9056
1, 21717, Pitch_bend_c, 6, 4768
1, 21719, Pitch_bend_c, 6, 4800
1, 21728, Note_on_c, 9, 51, 94
1, 21729, Note_off_c, 9, 51, 64
1, 21731, Pitch_bend_c, 6, 4768
1, 21733, Pitch_bend_c, 6, 4736
1, 21736, Note_off_c, 0, 65, 64
1, 21740, Pitch_bend_c, 6, 4704
1, 21743, Note_off_c, 6, 72, 64
1, 21743, Pitch_bend_c, 6, 4768
1, 21755, Note_off_c, 2, 50, 64
1, 21758, Note_on_c, 2, 50, 103
1, 21761, Note_on_c, 9, 51, 100
1, 21761, Note_on_c, 0, 65, 124
1, 21762, Note_off_c, 9, 51, 64
1, 21787, Note_off_c, 5, 62, 64
1, 21787, Note_off_c, 5, 59, 64
1, 21787, Note_off_c, 7, 62, 64
1, 21787, Note_off_c, 7, 59, 64
1, 21788, Note_off_c, 2, 50, 64
1, 21791, Lyric_t, "Well, "
1, 21791, Note_on_c, 3, 71, 119
1, 21791, Note_on_c, 1, 35, 81
1, 21791, Note_on_c, 5, 59, 71
1, 21791, Note_on_c, 7, 59, 81
1, 21792, Note_on_c, 2, 52, 108
1, 21792, Pitch_bend_c, 6, 8192
1, 21793, Note_on_c, 9, 51, 114
1, 21793, Note_on_c, 9, 38, 112
1, 21793, Note_on_c, 5, 62, 74
1, 21793, Note_on_c, 7, 62, 84
1, 21794, Note_off_c, 9, 38, 64
1, 21794, Note_off_c, 9, 51, 64
1, 21794, Note_off_c, 1, 38, 64
1, 21802, Note_off_c, 5, 67, 64
1, 21802, Note_off_c, 7, 67, 64
1, 21807, Note_off_c, 5, 55, 64
1, 21807, Note_off_c, 7, 55, 64
1, 21809, Note_off_c, 5, 62, 64
1, 21809, Note_off_c, 7, 62, 64
1, 21811, Note_off_c, 5, 59, 64
1, 21811, Note_off_c, 7, 59, 64
1, 21824, Note_on_c, 9, 51, 94
1, 21825, Note_off_c, 9, 51, 64
1, 21829, Note_off_c, 0, 65, 64
1, 21849, Note_off_c, 2, 52, 64
1, 21851, Note_off_c, 3, 71, 64
1, 21854, Lyric_t, "to "
1, 21854, Note_on_c, 3, 71, 115
1, 21854, Note_on_c, 2, 52, 94
1, 21856, Note_on_c, 9, 51, 94
1, 21857, Note_off_c, 9, 51, 64
1, 21857, Note_on_c, 0, 65, 63
1, 21864, Note_off_c, 0, 65, 64
1, 21884, Note_on_c, 5, 50, 24
1, 21884, Note_on_c, 7, 50, 34
1, 21886, Lyric_t, "break "
1, 21886, Note_on_c, 3, 69, 123
1, 21886, Note_off_c, 2, 52, 64
1, 21886, Note_on_c, 5, 54, 37
1, 21886, Note_on_c, 7, 54, 47
1, 21887, Note_on_c, 9, 51, 104
1, 21887, Note_on_c, 9, 35, 108
1, 21887, Note_on_c, 1, 38, 84
1, 21887, Note_on_c, 2, 57, 113
1, 21887, Note_on_c, 5, 60, 46
1, 21887, Note_on_c, 7, 60, 56
1, 21888, Note_off_c, 9, 35, 64
1, 21888, Note_off_c, 9, 51, 64
1, 21889, Note_on_c, 5, 62, 61
1, 21889, Note_on_c, 7, 62, 71
1, 21891, Note_off_c, 3, 71, 64
1, 21893, Note_off_c, 1, 35, 64
1, 21919, Note_on_c, 9, 51, 94
1, 21920, Note_off_c, 9, 51, 64
1, 21939, Note_off_c, 3, 69, 64
1, 21942, Lyric_t, "up "
1, 21942, Note_on_c, 3, 69, 116
1, 21950, Note_off_c, 2, 57, 64
1, 21951, Note_on_c, 9, 51, 100
1, 21952, Note_off_c, 9, 51, 64
1, 21952, Note_on_c, 0, 66, 99
1, 21953, Note_on_c, 0, 60, 124
1, 21953, Note_on_c, 0, 69, 102
1, 21971, Note_off_c, 1, 38, 64
1, 21972, Note_off_c, 0, 66, 64
1, 21976, Note_off_c, 0, 69, 64
1, 21976, Note_off_c, 0, 60, 64
1, 21982, Note_on_c, 9, 38, 112
1, 21983, Note_off_c, 9, 38, 64
1, 21983, Note_on_c, 9, 51, 110
1, 21983, Note_on_c, 1, 38, 90
1, 21984, Note_off_c, 9, 51, 64
1, 21984, Note_on_c, 2, 53, 121
1, 22001, Note_off_c, 3, 69, 64
1, 22002, Lyric_t, "this "
1, 22002, Note_on_c, 3, 69, 121
1, 22012, Note_off_c, 2, 53, 64
1, 22015, Note_on_c, 9, 51, 93
1, 22015, Note_on_c, 2, 54, 101
1, 22016, Note_off_c, 9, 51, 64
1, 22036, Note_off_c, 3, 69, 64
1, 22038, Lyric_t, "sig"
1, 22038, Note_on_c, 3, 69, 117
1, 22045, Note_off_c, 2, 54, 64
1, 22047, Note_on_c, 9, 51, 92
1, 22047, Note_on_c, 0, 66, 111
1, 22047, Note_on_c, 0, 60, 118
1, 22047, Note_on_c, 0, 69, 107
1, 22047, Note_on_c, 2, 57, 109
1, 22048, Note_off_c, 9, 51, 64
1, 22066, Note_off_c, 1, 38, 64
1, 22068, Note_off_c, 3, 69, 64
1, 22069, Lyric_t, "ni"
1, 22069, Note_on_c, 3, 69, 115
1, 22077, Note_off_c, 2, 57, 64
1, 22079, Note_on_c, 9, 51, 106
1, 22079, Note_on_c, 1, 38, 91
1, 22079, Note_on_c, 2, 59, 109
1, 22080, Note_off_c, 9, 51, 64
1, 22081, Note_on_c, 9, 35, 107
1, 22082, Note_off_c, 9, 35, 64
1, 22096, Note_off_c, 3, 69, 64
1, 22098, Lyric_t, "fy"
1, 22098, Note_on_c, 3, 69, 114
1, 22105, Note_off_c, 2, 59, 64
1, 22111, Note_on_c, 9, 51, 92
1, 22111, Note_on_c, 2, 57, 98
1, 22112, Note_off_c, 9, 51, 64
1, 22121, Lyric_t, "in', "
1, 22121, Lyric_t, "\015"
1, 22121, Note_on_c, 3, 71, 116
1, 22124, Note_off_c, 3, 69, 64
1, 22138, Note_off_c, 0, 60, 64
1, 22138, Note_off_c, 2, 57, 64
1, 22139, Note_off_c, 5, 60, 64
1, 22139, Note_off_c, 7, 60, 64
1, 22140, Note_off_c, 0, 69, 64
1, 22140, Note_off_c, 5, 62, 64
1, 22140, Note_off_c, 7, 62, 64
1, 22141, Note_off_c, 0, 66, 64
1, 22142, Note_on_c, 2, 59, 104
1, 22142, Note_on_c, 5, 60, 67
1, 22142, Note_on_c, 7, 60, 77
1, 22143, Note_on_c, 9, 51, 92
1, 22143, Note_on_c, 0, 50, 104
1, 22143, Note_on_c, 5, 62, 63
1, 22143, Note_on_c, 7, 62, 73
1, 22144, Note_off_c, 9, 51, 64
1, 22159, Note_off_c, 5, 60, 64
1, 22159, Note_off_c, 7, 60, 64
1, 22160, Note_off_c, 5, 62, 64
1, 22160, Note_off_c, 7, 62, 64
1, 22161, Note_off_c, 5, 50, 64
1, 22161, Note_off_c, 7, 50, 64
1, 22162, Note_off_c, 1, 38, 64
1, 22165, Note_off_c, 5, 54, 64
1, 22165, Note_off_c, 7, 54, 64
1, 22170, Note_off_c, 2, 59, 64
1, 22174, Note_on_c, 1, 38, 87
1, 22174, Note_on_c, 0, 66, 109
1, 22174, Note_on_c, 0, 69, 114
1, 22175, Note_on_c, 9, 51, 106
1, 22175, Note_on_c, 2, 57, 111
1, 22176, Note_off_c, 9, 51, 64
1, 22176, Note_on_c, 9, 38, 121
1, 22177, Note_off_c, 9, 38, 64
1, 22192, Note_off_c, 3, 71, 64
1, 22207, Note_on_c, 9, 51, 90
1, 22208, Note_off_c, 9, 51, 64
1, 22234, Note_off_c, 0, 50, 64
1, 22236, Note_off_c, 2, 57, 64
1, 22238, Note_on_c, 0, 57, 80
1, 22239, Note_on_c, 9, 51, 82
1, 22239, Note_on_c, 2, 54, 111
1, 22240, Note_off_c, 9, 51, 64
1, 22241, Note_on_c, 0, 60, 96
1, 22249, Note_off_c, 0, 69, 64
1, 22256, Note_off_c, 0, 66, 64
1, 22257, Note_off_c, 0, 57, 64
1, 22258, Note_off_c, 1, 38, 64
1, 22261, Lyric_t, "woh, "
1, 22261, Note_on_c, 3, 79, 127
1, 22262, Note_off_c, 0, 60, 64
1, 22270, Note_on_c, 1, 36, 94
1, 22270, Note_off_c, 2, 54, 64
1, 22270, Note_on_c, 5, 48, 30
1, 22270, Note_on_c, 7, 48, 40
1, 22271, Note_on_c, 9, 51, 106
1, 22271, Note_on_c, 9, 35, 107
1, 22271, Note_on_c, 0, 48, 95
1, 22271, Note_on_c, 5, 52, 47
1, 22271, Note_on_c, 7, 52, 57
1, 22272, Note_off_c, 9, 35, 64
1, 22272, Note_off_c, 9, 51, 64
1, 22272, Note_on_c, 2, 48, 113
1, 22273, Note_on_c, 5, 58, 35
1, 22273, Note_on_c, 7, 58, 45
1, 22303, Note_on_c, 9, 51, 87
1, 22303, Note_on_c, 0, 67, 104
1, 22303, Note_on_c, 0, 64, 108
1, 22304, Note_off_c, 9, 51, 64
1, 22311, Note_off_c, 0, 48, 64
1, 22316, Note_off_c, 0, 64, 64
1, 22317, Note_off_c, 0, 67, 64
1, 22324, Note_on_c, 3, 74, 116
1, 22325, Note_off_c, 3, 79, 64
1, 22335, Note_on_c, 9, 51, 92
1, 22335, Note_on_c, 0, 48, 95
1, 22336, Note_off_c, 9, 51, 64
1, 22347, Note_off_c, 2, 48, 64
1, 22354, Note_off_c, 1, 36, 64
1, 22356, Note_off_c, 0, 48, 64
1, 22367, Note_on_c, 9, 51, 114
1, 22367, Note_on_c, 1, 36, 83
1, 22367, Note_on_c, 0, 64, 127
1, 22367, Note_on_c, 0, 67, 127
1, 22367, Note_on_c, 2, 51, 113
1, 22368, Note_off_c, 9, 51, 64
1, 22368, Note_on_c, 9, 38, 112
1, 22369, Note_off_c, 9, 38, 64
1, 22382, Note_off_c, 3, 74, 64
1, 22396, Note_off_c, 2, 51, 64
1, 22398, Note_on_c, 2, 52, 115
1, 22399, Note_on_c, 9, 51, 92
1, 22400, Note_off_c, 9, 51, 64
1, 22406, Lyric_t, "some"
1, 22406, Note_on_c, 3, 79, 127
1, 22417, Note_off_c, 0, 64, 64
1, 22420, Note_off_c, 0, 67, 64
1, 22427, Note_off_c, 2, 52, 64
1, 22430, Note_on_c, 2, 55, 108
1, 22431, Note_on_c, 9, 51, 94
1, 22432, Note_off_c, 9, 51, 64
1, 22433, Note_on_c, 0, 64, 107
1, 22433, Note_on_c, 0, 67, 100
1, 22448, Lyric_t, "bod"
1, 22448, Note_off_c, 3, 79, 64
1, 22448, Note_on_c, 3, 76, 123
1, 22453, Note_off_c, 1, 36, 64
1, 22459, Note_off_c, 2, 55, 64
1, 22463, Note_on_c, 9, 51, 106
1, 22463, Note_on_c, 9, 35, 108
1, 22463, Note_on_c, 1, 36, 83
1, 22463, Note_on_c, 2, 57, 112
1, 22464, Note_off_c, 9, 35, 64
1, 22464, Note_off_c, 9, 51, 64
1, 22464, Note_off_c, 5, 52, 64
1, 22464, Note_off_c, 7, 52, 64
1, 22484, Note_off_c, 3, 76, 64
1, 22485, Lyric_t, "y's "
1, 22485, Note_on_c, 3, 74, 122
1, 22495, Note_on_c, 9, 51, 90
1, 22496, Note_off_c, 9, 51, 64
1, 22513, Note_off_c, 0, 64, 64
1, 22514, Note_off_c, 0, 67, 64
1, 22519, Note_off_c, 2, 57, 64
1, 22520, Note_off_c, 3, 74, 64
1, 22522, Lyric_t, "got "
1, 22522, Note_on_c, 3, 71, 121
1, 22526, Note_on_c, 2, 55, 108
1, 22527, Note_on_c, 9, 51, 94
1, 22527, Note_on_c, 0, 48, 107
1, 22527, Note_off_c, 5, 58, 64
1, 22527, Note_on_c, 5, 52, 58
1, 22527, Note_off_c, 7, 58, 64
1, 22527, Note_on_c, 7, 52, 68
1, 22528, Note_off_c, 9, 51, 64
1, 22528, Note_on_c, 5, 58, 77
1, 22528, Note_on_c, 7, 58, 87
1, 22530, Note_on_c, 5, 60, 74
1, 22530, Note_on_c, 7, 60, 84
1, 22547, Note_off_c, 1, 36, 64
1, 22550, Note_off_c, 3, 71, 64
1, 22554, Lyric_t, "to "
1, 22554, Note_on_c, 3, 69, 115
1, 22558, Note_on_c, 1, 36, 89
1, 22559, Note_on_c, 9, 51, 112
1, 22559, Note_on_c, 0, 67, 124
1, 22559, Note_on_c, 2, 53, 117
1, 22560, Note_off_c, 9, 51, 64
1, 22560, Note_off_c, 2, 55, 64
1, 22562, Note_on_c, 9, 38, 124
1, 22563, Note_off_c, 9, 38, 64
1, 22586, Lyric_t, "go. "
1, 22586, Lyric_t, "\015"
1, 22586, Note_on_c, 3, 70, 120
1, 22588, Note_off_c, 3, 69, 64
1, 22591, Note_on_c, 9, 51, 93
1, 22592, Note_off_c, 9, 51, 64
1, 22607, Note_on_c, 3, 69, 108
1, 22610, Note_off_c, 3, 70, 64
1, 22615, Note_off_c, 5, 60, 64
1, 22615, Note_off_c, 7, 60, 64
1, 22618, Note_off_c, 5, 58, 64
1, 22618, Note_off_c, 7, 58, 64
1, 22619, Note_off_c, 2, 53, 64
1, 22621, Note_off_c, 5, 48, 64
1, 22621, Note_off_c, 7, 48, 64
1, 22622, Note_off_c, 0, 48, 64
1, 22622, Note_on_c, 2, 55, 117
1, 22622, Note_off_c, 5, 52, 64
1, 22622, Note_off_c, 7, 52, 64
1, 22623, Note_on_c, 9, 51, 93
1, 22623, Note_on_c, 0, 55, 83
1, 22624, Note_off_c, 9, 51, 64
1, 22630, Note_off_c, 0, 55, 64
1, 22631, Note_on_c, 3, 67, 111
1, 22633, Note_off_c, 3, 69, 64
1, 22646, Note_off_c, 0, 67, 64
1, 22650, Note_off_c, 1, 36, 64
1, 22655, Note_on_c, 9, 51, 108
1, 22655, Note_on_c, 9, 35, 108
1, 22655, Note_on_c, 1, 31, 89
1, 22655, Note_on_c, 0, 43, 95
1, 22656, Note_off_c, 9, 35, 64
1, 22656, Note_off_c, 9, 51, 64
1, 22656, Note_off_c, 2, 55, 64
1, 22657, Note_on_c, 0, 67, 97
1, 22657, Note_on_c, 0, 71, 105
1, 22657, Note_on_c, 2, 43, 109
1, 22657, Note_on_c, 5, 59, 62
1, 22657, Note_on_c, 7, 59, 72
1, 22658, Note_on_c, 5, 62, 75
1, 22658, Note_on_c, 7, 62, 85
1, 22659, Note_on_c, 5, 67, 23
1, 22659, Note_on_c, 7, 67, 33
1, 22687, Note_on_c, 9, 51, 90
1, 22688, Note_off_c, 9, 51, 64
1, 22691, Note_off_c, 0, 43, 64
1, 22698, Note_off_c, 0, 71, 64
1, 22702, Note_off_c, 0, 67, 64
1, 22714, Note_off_c, 2, 43, 64
1, 22719, Note_on_c, 9, 51, 93
1, 22719, Note_on_c, 0, 43, 108
1, 22719, Note_on_c, 0, 71, 100
1, 22719, Note_on_c, 0, 67, 89
1, 22720, Note_off_c, 9, 51, 64
1, 22720, Note_off_c, 5, 59, 64
1, 22720, Note_off_c, 7, 59, 64
1, 22722, Note_off_c, 5, 62, 64
1, 22722, Note_off_c, 7, 62, 64
1, 22725, Note_off_c, 5, 67, 64
1, 22725, Note_off_c, 7, 67, 64
1, 22738, Note_off_c, 0, 67, 64
1, 22739, Note_off_c, 3, 67, 64
1, 22740, Note_off_c, 0, 71, 64
1, 22741, Note_off_c, 0, 43, 64
1, 22747, Note_on_c, 6, 66, 104
1, 22749, Note_on_c, 9, 38, 101
1, 22750, Note_off_c, 9, 38, 64
1, 22751, Note_on_c, 1, 35, 87
1, 22751, Note_on_c, 0, 71, 112
1, 22751, Note_on_c, 2, 55, 116
1, 22752, Note_on_c, 9, 51, 102
1, 22752, Note_on_c, 0, 67, 112
1, 22752, Note_on_c, 0, 47, 114
1, 22752, Note_on_c, 6, 70, 76
1, 22753, Note_off_c, 9, 51, 64
1, 22753, Note_off_c, 1, 31, 64
1, 22753, Note_on_c, 5, 59, 43
1, 22753, Note_on_c, 7, 59, 53
1, 22754, Note_on_c, 5, 62, 51
1, 22754, Note_on_c, 7, 62, 61
1, 22756, Note_off_c, 6, 70, 64
1, 22759, Pitch_bend_c, 6, 12704
1, 22761, Pitch_bend_c, 6, 12768
1, 22764, Pitch_bend_c, 6, 12800
1, 22767, Pitch_bend_c, 6, 12864
1, 22770, Pitch_bend_c, 6, 12928
1, 22781, Pitch_bend_c, 6, 12960
1, 22783, Note_on_c, 9, 51, 90
1, 22784, Note_off_c, 9, 51, 64
1, 22784, Pitch_bend_c, 6, 13024
1, 22787, Pitch_bend_c, 6, 13088
1, 22793, Pitch_bend_c, 6, 13056
1, 22795, Pitch_bend_c, 6, 13024
1, 22798, Note_off_c, 0, 47, 64
1, 22798, Pitch_bend_c, 6, 12992
1, 22799, Note_off_c, 0, 67, 64
1, 22804, Pitch_bend_c, 6, 12960
1, 22807, Pitch_bend_c, 6, 12992
1, 22810, Pitch_bend_c, 6, 12896
1, 22812, Note_off_c, 2, 55, 64
1, 22812, Pitch_bend_c, 6, 12832
1, 22813, Note_off_c, 5, 62, 64
1, 22813, Note_off_c, 5, 59, 64
1, 22813, Note_off_c, 7, 62, 64
1, 22813, Note_off_c, 7, 59, 64
1, 22813, Note_off_c, 6, 66, 64
1, 22815, Note_on_c, 9, 51, 96
1, 22815, Note_on_c, 2, 55, 107
1, 22815, Note_on_c, 5, 59, 61
1, 22815, Note_on_c, 7, 59, 71
1, 22816, Note_off_c, 9, 51, 64
1, 22816, Note_on_c, 0, 67, 75
1, 22816, Note_on_c, 0, 47, 93
1, 22817, Note_on_c, 5, 62, 62
1, 22817, Note_on_c, 7, 62, 72
1, 22818, Note_on_c, 5, 67, 51
1, 22818, Note_on_c, 7, 67, 61
1, 22818, Pitch_bend_c, 6, 8192
1, 22819, Note_on_c, 6, 67, 100
1, 22820, Pitch_bend_c, 6, 8800
1, 22822, Note_off_c, 0, 71, 64
1, 22828, Pitch_bend_c, 6, 8768
1, 22829, Note_off_c, 5, 67, 64
1, 22829, Note_off_c, 7, 67, 64
1, 22830, Note_off_c, 5, 62, 64
1, 22830, Note_off_c, 7, 62, 64
1, 22830, Pitch_bend_c, 6, 8736
1, 22832, Note_off_c, 0, 67, 64
1, 22832, Note_off_c, 5, 59, 64
1, 22832, Note_off_c, 7, 59, 64
1, 22836, Pitch_bend_c, 6, 8544
1, 22837, Note_off_c, 0, 47, 64
1, 22841, Note_off_c, 6, 67, 64
1, 22841, Pitch_bend_c, 6, 8768
1, 22847, Note_on_c, 1, 38, 90
1, 22847, Note_on_c, 0, 72, 120
1, 22847, Note_on_c, 0, 67, 102
1, 22847, Note_off_c, 2, 55, 64
1, 22848, Note_on_c, 9, 51, 110
1, 22848, Note_on_c, 9, 35, 107
1, 22848, Note_on_c, 2, 53, 115
1, 22848, Pitch_bend_c, 6, 8192
1, 22849, Note_off_c, 9, 35, 64
1, 22849, Note_off_c, 9, 51, 64
1, 22849, Note_on_c, 0, 48, 120
1, 22850, Note_on_c, 6, 66, 108
1, 22850, Pitch_bend_c, 6, 8864
1, 22852, Pitch_bend_c, 6, 8736
1, 22856, Note_off_c, 1, 35, 64
1, 22856, Pitch_bend_c, 6, 8704
1, 22859, Pitch_bend_c, 6, 8672
1, 22862, Pitch_bend_c, 6, 12704
1, 22864, Pitch_bend_c, 6, 12768
1, 22867, Pitch_bend_c, 6, 12800
1, 22870, Pitch_bend_c, 6, 12832
1, 22872, Note_off_c, 2, 53, 64
1, 22873, Pitch_bend_c, 6, 12896
1, 22877, Note_on_c, 2, 50, 107
1, 22879, Note_on_c, 9, 51, 96
1, 22880, Note_off_c, 9, 51, 64
1, 22884, Pitch_bend_c, 6, 12864
1, 22890, Pitch_bend_c, 6, 12896
1, 22893, Pitch_bend_c, 6, 12960
1, 22896, Pitch_bend_c, 6, 12992
1, 22897, Note_off_c, 0, 48, 64
1, 22899, Note_off_c, 0, 67, 64
1, 22899, Pitch_bend_c, 6, 13024
1, 22901, Note_off_c, 0, 72, 64
1, 22904, Note_off_c, 6, 66, 64
1, 22905, Note_off_c, 2, 50, 64
1, 22909, Note_on_c, 2, 49, 103
1, 22910, Pitch_bend_c, 6, 8192
1, 22911, Note_on_c, 9, 51, 99
1, 22911, Note_on_c, 0, 72, 72
1, 22911, Note_on_c, 0, 67, 78
1, 22911, Note_on_c, 0, 48, 90
1, 22912, Note_off_c, 9, 51, 64
1, 22912, Note_on_c, 6, 67, 93
1, 22912, Pitch_bend_c, 6, 8768
1, 22914, Pitch_bend_c, 6, 8736
1, 22927, Note_off_c, 0, 67, 64
1, 22927, Note_off_c, 0, 72, 64
1, 22929, Pitch_bend_c, 6, 8544
1, 22930, Note_off_c, 0, 48, 64
1, 22930, Note_off_c, 6, 67, 64
1, 22937, Note_off_c, 2, 49, 64
1, 22942, Note_on_c, 2, 48, 112
1, 22942, Pitch_bend_c, 6, 8192
1, 22942, Note_on_c, 6, 66, 111
1, 22943, Note_on_c, 9, 38, 108
1, 22943, Note_on_c, 1, 35, 81
1, 22943, Note_on_c, 5, 55, 33
1, 22943, Note_on_c, 7, 55, 43
1, 22944, Note_off_c, 9, 38, 64
1, 22944, Note_on_c, 9, 51, 112
1, 22944, Note_on_c, 0, 73, 107
1, 22945, Note_off_c, 9, 51, 64
1, 22945, Note_on_c, 0, 49, 107
1, 22945, Note_on_c, 5, 59, 50
1, 22945, Note_on_c, 7, 59, 60
1, 22946, Note_off_c, 1, 38, 64
1, 22946, Note_on_c, 5, 62, 66
1, 22946, Note_on_c, 7, 62, 76
1, 22947, Note_on_c, 5, 67, 35
1, 22947, Note_on_c, 7, 67, 45
1, 22949, Pitch_bend_c, 6, 8800
1, 22952, Pitch_bend_c, 6, 8992
1, 22955, Pitch_bend_c, 6, 12832
1, 22960, Pitch_bend_c, 6, 12896
1, 22963, Pitch_bend_c, 6, 12928
1, 22965, Pitch_bend_c, 6, 12992
1, 22967, Note_off_c, 2, 48, 64
1, 22969, Pitch_bend_c, 6, 13024
1, 22974, Note_on_c, 2, 50, 108
1, 22977, Note_on_c, 9, 51, 104
1, 22977, Pitch_bend_c, 6, 12992
1, 22978, Note_off_c, 9, 51, 64
1, 22980, Note_off_c, 0, 73, 64
1, 22980, Pitch_bend_c, 6, 12960
1, 22983, Pitch_bend_c, 6, 12928
1, 22986, Note_off_c, 0, 49, 64
1, 22991, Pitch_bend_c, 6, 12960
1, 22994, Pitch_bend_c, 6, 12992
1, 22997, Pitch_bend_c, 6, 12672
1, 22998, Note_off_c, 6, 66, 64
1, 22998, Pitch_bend_c, 6, 12960
1, 23005, Note_on_c, 2, 55, 110
1, 23005, Pitch_bend_c, 6, 8192
1, 23006, Note_on_c, 6, 67, 99
1, 23007, Note_on_c, 0, 49, 85
1, 23007, Note_off_c, 2, 50, 64
1, 23008, Note_on_c, 9, 51, 110
1, 23008, Note_on_c, 0, 73, 91
1, 23009, Note_off_c, 9, 51, 64
1, 23015, Note_off_c, 5, 59, 64
1, 23015, Note_off_c, 7, 59, 64
1, 23026, Note_off_c, 6, 67, 64
1, 23027, Note_off_c, 0, 73, 64
1, 23029, Note_off_c, 0, 49, 64
1, 23036, Note_off_c, 2, 55, 64
1, 23039, Note_on_c, 1, 31, 87
1, 23039, Note_off_c, 5, 62, 64
1, 23039, Note_off_c, 7, 62, 64
1, 23040, Note_on_c, 9, 35, 108
1, 23040, Note_on_c, 2, 43, 115
1, 23040, Note_on_c, 6, 67, 106
1, 23041, Note_off_c, 9, 35, 64
1, 23041, Note_on_c, 9, 51, 119
1, 23041, Note_off_c, 1, 35, 64
1, 23041, Note_on_c, 0, 50, 101
1, 23041, Note_on_c, 0, 74, 112
1, 23041, Note_on_c, 0, 69, 102
1, 23041, Note_on_c, 5, 59, 71
1, 23041, Note_on_c, 7, 59, 81
1, 23042, Note_off_c, 9, 51, 64
1, 23042, Note_off_c, 5, 67, 64
1, 23042, Note_on_c, 5, 62, 79
1, 23042, Note_off_c, 7, 67, 64
1, 23042, Note_on_c, 7, 62, 89
1, 23043, Note_on_c, 5, 67, 61
1, 23043, Note_on_c, 7, 67, 71
1, 23058, Pitch_bend_c, 6, 8672
1, 23060, Pitch_bend_c, 6, 8800
1, 23065, Note_off_c, 5, 67, 64
1, 23065, Note_off_c, 7, 67, 64
1, 23067, Pitch_bend_c, 6, 640
1, 23068, Note_off_c, 5, 62, 64
1, 23068, Note_off_c, 5, 55, 64
1, 23068, Note_off_c, 7, 62, 64
1, 23068, Note_off_c, 7, 55, 64
1, 23073, Note_off_c, 5, 59, 64
1, 23073, Note_off_c, 7, 59, 64
1, 23083, Pitch_bend_c, 6, 576
1, 23085, Note_off_c, 0, 50, 64
1, 23089, Pitch_bend_c, 6, 608
1, 23092, Note_off_c, 0, 69, 64
1, 23096, Note_off_c, 2, 43, 64
1, 23098, Pitch_bend_c, 6, 640
1, 23101, Pitch_bend_c, 6, 704
1, 23102, Note_off_c, 6, 67, 64
1, 23102, Pitch_bend_c, 6, 8192
1, 23102, Note_on_c, 6, 65, 86
1, 23102, Note_on_c, 6, 62, 81
1, 23103, Note_on_c, 9, 51, 69
1, 23104, Note_off_c, 9, 51, 64
1, 23104, Note_off_c, 0, 74, 64
1, 23104, Note_on_c, 2, 46, 108
1, 23105, Note_on_c, 0, 50, 79
1, 23105, Note_on_c, 0, 66, 85
1, 23105, Note_off_c, 6, 65, 64
1, 23110, Pitch_bend_c, 6, 8480
1, 23113, Pitch_bend_c, 6, 8512
1, 23116, Pitch_bend_c, 6, 8544
1, 23118, Note_off_c, 0, 50, 64
1, 23119, Pitch_bend_c, 6, 8576
1, 23120, Note_off_c, 0, 66, 64
1, 23125, Pitch_bend_c, 6, 8608
1, 23128, Note_off_c, 6, 62, 64
1, 23128, Pitch_bend_c, 6, 8640
1, 23132, Note_off_c, 1, 31, 64
1, 23133, Note_off_c, 2, 46, 64
1, 23133, Pitch_bend_c, 6, 8192
1, 23134, Note_on_c, 6, 62, 88
1, 23136, Note_on_c, 9, 51, 125
1, 23136, Note_on_c, 1, 36, 91
1, 23136, Note_on_c, 5, 60, 32
1, 23136, Note_on_c, 7, 60, 42
1, 23137, Note_off_c, 9, 51, 64
1, 23137, Note_on_c, 9, 38, 95
1, 23137, Note_on_c, 0, 74, 101
1, 23137, Note_on_c, 0, 69, 93
1, 23137, Note_on_c, 0, 50, 110
1, 23137, Note_on_c, 0, 66, 61
1, 23137, Note_on_c, 2, 47, 116
1, 23137, Pitch_bend_c, 6, 8672
1, 23138, Note_off_c, 9, 38, 64
1, 23138, Note_on_c, 5, 64, 38
1, 23138, Note_on_c, 7, 64, 48
1, 23142, Note_off_c, 0, 66, 64
1, 23147, Pitch_bend_c, 6, 8640
1, 23153, Pitch_bend_c, 6, 8576
1, 23156, Pitch_bend_c, 6, 8512
1, 23158, Note_off_c, 6, 62, 64
1, 23158, Pitch_bend_c, 6, 8672
1, 23163, Note_off_c, 2, 47, 64
1, 23168, Note_off_c, 0, 50, 64
1, 23168, Note_on_c, 2, 48, 109
1, 23170, Note_off_c, 0, 69, 64
1, 23174, Note_off_c, 0, 74, 64
1, 23195, Note_off_c, 2, 48, 64
1, 23196, Note_off_c, 5, 64, 64
1, 23196, Note_off_c, 5, 60, 64
1, 23196, Note_off_c, 7, 64, 64
1, 23196, Note_off_c, 7, 60, 64
1, 23199, Note_on_c, 0, 50, 127
1, 23199, Note_on_c, 0, 74, 127
1, 23199, Note_on_c, 0, 66, 123
1, 23199, Note_on_c, 2, 49, 111
1, 23199, Note_on_c, 5, 60, 81
1, 23199, Note_on_c, 5, 64, 92
1, 23199, Note_on_c, 7, 60, 91
1, 23199, Note_on_c, 7, 64, 102
1, 23199, Pitch_bend_c, 6, 8192
1, 23200, Note_on_c, 9, 51, 119
1, 23200, Note_on_c, 6, 61, 106
1, 23201, Note_off_c, 9, 51, 64
1, 23201, Note_on_c, 5, 69, 97
1, 23201, Note_on_c, 7, 69, 107
1, 23202, Note_on_c, 9, 38, 108
1, 23203, Note_off_c, 9, 38, 64
1, 23204, Pitch_bend_c, 6, 8640
1, 23207, Pitch_bend_c, 6, 8736
1, 23210, Pitch_bend_c, 6, 12544
1, 23215, Pitch_bend_c, 6, 12576
1, 23227, Note_off_c, 2, 49, 64
1, 23227, Pitch_bend_c, 6, 12544
1, 23231, Note_off_c, 1, 36, 64
1, 23232, Note_on_c, 1, 38, 91
1, 23232, Note_on_c, 2, 50, 116
1, 23233, Note_on_c, 9, 35, 109
1, 23234, Note_off_c, 9, 35, 64
1, 23236, Pitch_bend_c, 6, 12512
1, 23241, Pitch_bend_c, 6, 12480
1, 23244, Pitch_bend_c, 6, 12448
1, 23247, Pitch_bend_c, 6, 12416
1, 23250, Pitch_bend_c, 6, 12384
1, 23252, Pitch_bend_c, 6, 12352
1, 23255, Pitch_bend_c, 6, 12384
1, 23258, Pitch_bend_c, 6, 12416
1, 23261, Note_off_c, 2, 50, 64
1, 23261, Pitch_bend_c, 6, 12512
1, 23263, Note_on_c, 2, 50, 103
1, 23264, Pitch_bend_c, 6, 12576
1, 23267, Pitch_bend_c, 6, 12608
1, 23269, Pitch_bend_c, 6, 12576
1, 23272, Pitch_bend_c, 6, 12512
1, 23275, Pitch_bend_c, 6, 12416
1, 23278, Pitch_bend_c, 6, 12352
1, 23284, Pitch_bend_c, 6, 12384
1, 23286, Pitch_bend_c, 6, 12480
1, 23290, Pitch_bend_c, 6, 12544
1, 23292, Pitch_bend_c, 6, 12576
1, 23293, Note_off_c, 2, 50, 64
1, 23295, Note_on_c, 9, 51, 85
1, 23296, Note_off_c, 9, 51, 64
1, 23296, Note_on_c, 2, 50, 111
1, 23296, Pitch_bend_c, 6, 12480
1, 23297, Note_on_c, 9, 38, 79
1, 23298, Note_off_c, 9, 38, 64
1, 23298, Note_off_c, 5, 64, 64
1, 23298, Note_off_c, 7, 64, 64
1, 23299, Pitch_bend_c, 6, 12320
1, 23301, Pitch_bend_c, 6, 12128
1, 23306, Note_off_c, 6, 61, 64
1, 23306, Pitch_bend_c, 6, 12576
1, 23319, Note_off_c, 1, 38, 64
1, 23325, Note_off_c, 2, 50, 64
1, 23328, Note_on_c, 2, 50, 116
1, 23328, Note_off_c, 5, 60, 64
1, 23328, Note_off_c, 7, 60, 64
1, 23329, Note_on_c, 9, 51, 125
1, 23329, Note_on_c, 9, 38, 118
1, 23329, Note_on_c, 1, 38, 96
1, 23329, Note_off_c, 5, 69, 64
1, 23329, Note_on_c, 5, 60, 51
1, 23329, Note_off_c, 7, 69, 64
1, 23329, Note_on_c, 7, 60, 61
1, 23330, Note_off_c, 9, 38, 64
1, 23330, Note_off_c, 9, 51, 64
1, 23330, Note_on_c, 5, 64, 86
1, 23330, Note_on_c, 7, 64, 96
1, 23331, Note_on_c, 5, 69, 70
1, 23331, Note_on_c, 7, 69, 80
1, 23346, Note_off_c, 0, 66, 64
1, 23352, Note_off_c, 0, 50, 64
1, 23359, Note_off_c, 2, 50, 64
1, 23360, Note_off_c, 0, 74, 64
1, 23361, Note_on_c, 2, 50, 111
1, 23364, Note_off_c, 5, 64, 64
1, 23364, Note_off_c, 7, 64, 64
1, 23365, Note_off_c, 5, 60, 64
1, 23365, Note_off_c, 7, 60, 64
1, 23366, Note_off_c, 5, 69, 64
1, 23366, Note_off_c, 7, 69, 64
1, 23391, Note_off_c, 2, 50, 64
1, 23393, Note_on_c, 2, 50, 115
1, 23394, Note_on_c, 9, 38, 112
1, 23395, Note_off_c, 9, 38, 64
1, 23418, Pitch_bend_c, 6, 8192
1, 23423, Note_off_c, 2, 50, 64
1, 23424, Note_off_c, 1, 38, 64
1, 23424, Note_on_c, 1, 31, 108
1, 23424, Note_on_c, 5, 55, 50
1, 23424, Note_on_c, 7, 55, 60
1, 23424, Note_on_c, 6, 72, 105
1, 23425, Note_on_c, 9, 51, 96
1, 23425, Note_on_c, 9, 35, 107
1, 23425, Note_on_c, 0, 91, 116
1, 23425, Note_on_c, 0, 87, 94
1, 23425, Note_on_c, 2, 43, 118
1, 23426, Note_off_c, 9, 35, 64
1, 23426, Note_off_c, 9, 51, 64
1, 23426, Note_on_c, 9, 38, 106
1, 23426, Note_on_c, 5, 59, 56
1, 23426, Note_on_c, 7, 59, 66
1, 23427, Note_off_c, 9, 38, 64
1, 23427, Note_on_c, 5, 62, 72
1, 23427, Note_on_c, 7, 62, 82
1, 23429, Note_on_c, 5, 67, 43
1, 23429, Note_on_c, 7, 67, 53
1, 23430, Note_off_c, 0, 87, 64
1, 23438, Pitch_bend_c, 6, 9440
1, 23441, Note_off_c, 0, 91, 64
1, 23441, Pitch_bend_c, 6, 9600
1, 23444, Pitch_bend_c, 6, 9824
1, 23447, Pitch_bend_c, 6, 10112
1, 23450, Pitch_bend_c, 6, 10400
1, 23453, Pitch_bend_c, 6, 10624
1, 23455, Note_on_c, 0, 91, 73
1, 23456, Pitch_bend_c, 6, 10848
1, 23457, Note_on_c, 9, 51, 83
1, 23457, Note_on_c, 9, 38, 94
1, 23457, Note_on_c, 0, 86, 118
1, 23458, Note_off_c, 9, 38, 64
1, 23458, Note_off_c, 9, 51, 64
1, 23458, Pitch_bend_c, 6, 11040
1, 23461, Pitch_bend_c, 6, 11232
1, 23464, Pitch_bend_c, 6, 11392
1, 23467, Pitch_bend_c, 6, 11616
1, 23470, Pitch_bend_c, 6, 11840
1, 23472, Note_off_c, 0, 86, 64
1, 23473, Note_off_c, 2, 43, 64
1, 23473, Pitch_bend_c, 6, 12096
1, 23474, Note_off_c, 0, 91, 64
1, 23476, Pitch_bend_c, 6, 12448
1, 23478, Pitch_bend_c, 6, 12704
1, 23481, Pitch_bend_c, 6, 12992
1, 23484, Pitch_bend_c, 6, 13248
1, 23487, Pitch_bend_c, 6, 13440
1, 23488, Note_on_c, 9, 51, 100
1, 23489, Note_off_c, 9, 51, 64
1, 23489, Note_on_c, 0, 91, 114
1, 23489, Note_on_c, 0, 86, 120
1, 23490, Note_on_c, 9, 38, 102
1, 23490, Pitch_bend_c, 6, 13632
1, 23491, Note_off_c, 9, 38, 64
1, 23493, Pitch_bend_c, 6, 13792
1, 23495, Pitch_bend_c, 6, 13920
1, 23498, Pitch_bend_c, 6, 14080
1, 23501, Pitch_bend_c, 6, 14240
1, 23504, Note_off_c, 0, 86, 64
1, 23504, Note_off_c, 0, 91, 64
1, 23504, Pitch_bend_c, 6, 14368
1, 23508, Pitch_bend_c, 6, 14464
1, 23511, Pitch_bend_c, 6, 14560
1, 23514, Pitch_bend_c, 6, 14688
1, 23516, Pitch_bend_c, 6, 14816
1, 23517, Note_on_c, 1, 35, 91
1, 23518, Note_off_c, 1, 31, 64
1, 23519, Pitch_bend_c, 6, 14880
1, 23520, Note_on_c, 9, 35, 107
1, 23520, Note_on_c, 2, 46, 121
1, 23521, Note_off_c, 9, 35, 64
1, 23521, Note_on_c, 9, 51, 97
1, 23521, Note_on_c, 0, 91, 112
1, 23521, Note_on_c, 0, 86, 120
1, 23522, Note_off_c, 9, 51, 64
1, 23522, Note_on_c, 9, 38, 104
1, 23522, Pitch_bend_c, 6, 14976
1, 23523, Note_off_c, 9, 38, 64
1, 23525, Pitch_bend_c, 6, 15072
1, 23528, Pitch_bend_c, 6, 15104
1, 23531, Pitch_bend_c, 6, 15136
1, 23533, Pitch_bend_c, 6, 15168
1, 23534, Note_off_c, 0, 86, 64
1, 23535, Note_off_c, 0, 91, 64
1, 23536, Pitch_bend_c, 6, 15232
1, 23542, Pitch_bend_c, 6, 15264
1, 23547, Pitch_bend_c, 6, 15296
1, 23553, Note_on_c, 9, 51, 102
1, 23553, Note_on_c, 0, 91, 97
1, 23553, Note_on_c, 0, 86, 112
1, 23554, Note_off_c, 9, 51, 64
1, 23554, Note_on_c, 9, 38, 114
1, 23555, Note_off_c, 9, 38, 64
1, 23565, Note_off_c, 0, 86, 64
1, 23565, Note_off_c, 0, 91, 64
1, 23577, Note_off_c, 2, 46, 64
1, 23582, Note_on_c, 2, 47, 115
1, 23584, Note_on_c, 0, 91, 112
1, 23584, Note_on_c, 0, 86, 127
1, 23585, Note_on_c, 9, 51, 97
1, 23585, Note_on_c, 9, 38, 95
1, 23585, Pitch_bend_c, 6, 15264
1, 23586, Note_off_c, 9, 38, 64
1, 23586, Note_off_c, 9, 51, 64
1, 23596, Note_off_c, 0, 86, 64
1, 23596, Note_off_c, 0, 91, 64
1, 23596, Pitch_bend_c, 6, 15136
1, 23605, Pitch_bend_c, 6, 15296
1, 23606, Note_off_c, 6, 72, 64
1, 23609, Pitch_bend_c, 6, 8192
1, 23610, Note_on_c, 6, 72, 101
1, 23613, Note_on_c, 1, 38, 91
1, 23616, Note_on_c, 9, 51, 99
1, 23616, Note_on_c, 9, 35, 108
1, 23616, Pitch_bend_c, 6, 9344
1, 23617, Note_off_c, 9, 35, 64
1, 23617, Note_off_c, 9, 51, 64
1, 23617, Note_on_c, 9, 38, 121
1, 23617, Note_on_c, 0, 86, 127
1, 23617, Note_on_c, 0, 91, 114
1, 23618, Note_off_c, 9, 38, 64
1, 23618, Note_off_c, 2, 47, 64
1, 23618, Note_on_c, 2, 50, 118
1, 23623, Note_off_c, 1, 35, 64
1, 23625, Pitch_bend_c, 6, 9248
1, 23626, Note_off_c, 5, 59, 64
1, 23626, Note_off_c, 7, 59, 64
1, 23627, Pitch_bend_c, 6, 9216
1, 23628, Note_off_c, 0, 91, 64
1, 23628, Note_off_c, 0, 86, 64
1, 23633, Pitch_bend_c, 6, 9248
1, 23636, Pitch_bend_c, 6, 9472
1, 23639, Pitch_bend_c, 6, 9792
1, 23642, Pitch_bend_c, 6, 10112
1, 23644, Pitch_bend_c, 6, 10432
1, 23648, Note_on_c, 9, 51, 94
1, 23648, Note_on_c, 0, 91, 110
1, 23648, Note_on_c, 0, 86, 127
1, 23648, Pitch_bend_c, 6, 10720
1, 23649, Note_off_c, 9, 51, 64
1, 23649, Note_on_c, 9, 38, 90
1, 23650, Note_off_c, 9, 38, 64
1, 23650, Pitch_bend_c, 6, 11008
1, 23653, Pitch_bend_c, 6, 11296
1, 23656, Pitch_bend_c, 6, 11616
1, 23659, Pitch_bend_c, 6, 11872
1, 23660, Note_off_c, 0, 86, 64
1, 23661, Note_off_c, 0, 91, 64
1, 23662, Pitch_bend_c, 6, 12128
1, 23665, Pitch_bend_c, 6, 12448
1, 23668, Pitch_bend_c, 6, 12704
1, 23670, Pitch_bend_c, 6, 12960
1, 23673, Pitch_bend_c, 6, 13152
1, 23674, Note_off_c, 2, 50, 64
1, 23676, Pitch_bend_c, 6, 13376
1, 23679, Note_on_c, 9, 51, 119
1, 23679, Note_on_c, 2, 50, 109
1, 23679, Pitch_bend_c, 6, 13568
1, 23680, Note_off_c, 9, 51, 64
1, 23680, Note_on_c, 9, 38, 108
1, 23681, Note_off_c, 9, 38, 64
1, 23681, Note_on_c, 0, 91, 122
1, 23681, Note_on_c, 0, 86, 127
1, 23682, Pitch_bend_c, 6, 13696
1, 23683, Note_off_c, 5, 62, 64
1, 23683, Note_on_c, 5, 59, 55
1, 23683, Note_off_c, 7, 62, 64
1, 23683, Note_on_c, 7, 59, 65
1, 23684, Note_off_c, 5, 67, 64
1, 23684, Note_on_c, 5, 62, 83
1, 23684, Note_off_c, 7, 67, 64
1, 23684, Note_on_c, 7, 62, 93
1, 23684, Pitch_bend_c, 6, 13856
1, 23685, Note_on_c, 5, 67, 67
1, 23685, Note_on_c, 7, 67, 77
1, 23687, Pitch_bend_c, 6, 13920
1, 23691, Pitch_bend_c, 6, 14048
1, 23693, Note_off_c, 0, 86, 64
1, 23693, Note_off_c, 0, 91, 64
1, 23693, Pitch_bend_c, 6, 14176
1, 23697, Pitch_bend_c, 6, 14336
1, 23699, Pitch_bend_c, 6, 14464
1, 23702, Pitch_bend_c, 6, 14560
1, 23705, Pitch_bend_c, 6, 14688
1, 23708, Pitch_bend_c, 6, 14816
1, 23709, Note_on_c, 1, 40, 89
1, 23710, Note_off_c, 1, 38, 64
1, 23710, Note_off_c, 2, 50, 64
1, 23711, Note_on_c, 9, 35, 108
1, 23711, Pitch_bend_c, 6, 14880
1, 23712, Note_off_c, 9, 35, 64
1, 23712, Note_on_c, 9, 38, 90
1, 23713, Note_off_c, 9, 38, 64
1, 23713, Note_on_c, 9, 51, 97
1, 23713, Note_on_c, 0, 86, 127
1, 23713, Note_on_c, 0, 91, 120
1, 23714, Note_off_c, 9, 51, 64
1, 23714, Note_on_c, 2, 52, 117
1, 23714, Pitch_bend_c, 6, 14976
1, 23716, Pitch_bend_c, 6, 15008
1, 23719, Pitch_bend_c, 6, 15104
1, 23722, Pitch_bend_c, 6, 15136
1, 23725, Pitch_bend_c, 6, 15168
1, 23726, Note_off_c, 0, 91, 64
1, 23726, Note_off_c, 0, 86, 64
1, 23728, Pitch_bend_c, 6, 15232
1, 23733, Note_off_c, 5, 55, 64
1, 23733, Note_off_c, 7, 55, 64
1, 23734, Pitch_bend_c, 6, 15264
1, 23736, Pitch_bend_c, 6, 15328
1, 23739, Pitch_bend_c, 6, 15392
1, 23742, Pitch_bend_c, 6, 15424
1, 23744, Note_on_c, 9, 51, 122
1, 23744, Note_on_c, 9, 38, 110
1, 23745, Note_off_c, 9, 38, 64
1, 23745, Note_off_c, 9, 51, 64
1, 23745, Note_on_c, 0, 91, 114
1, 23745, Note_on_c, 0, 86, 127
1, 23748, Pitch_bend_c, 6, 15456
1, 23751, Pitch_bend_c, 6, 15488
1, 23756, Pitch_bend_c, 6, 15552
1, 23757, Note_off_c, 0, 86, 64
1, 23758, Note_off_c, 0, 91, 64
1, 23762, Note_off_c, 5, 59, 64
1, 23762, Note_off_c, 7, 59, 64
1, 23768, Note_off_c, 5, 62, 64
1, 23768, Note_off_c, 7, 62, 64
1, 23771, Note_off_c, 2, 52, 64
1, 23773, Note_on_c, 5, 59, 33
1, 23773, Note_on_c, 7, 59, 43
1, 23775, Note_on_c, 9, 38, 96
1, 23775, Note_on_c, 2, 52, 101
1, 23776, Note_off_c, 9, 38, 64
1, 23777, Note_on_c, 9, 51, 92
1, 23777, Note_on_c, 0, 91, 124
1, 23777, Note_on_c, 0, 86, 127
1, 23778, Note_off_c, 9, 51, 64
1, 23788, Note_off_c, 0, 86, 64
1, 23790, Note_off_c, 0, 91, 64
1, 23797, Pitch_bend_c, 6, 15456
1, 23800, Note_off_c, 5, 67, 64
1, 23800, Note_off_c, 7, 67, 64
1, 23800, Pitch_bend_c, 6, 15168
1, 23801, Note_off_c, 5, 59, 64
1, 23801, Note_off_c, 7, 59, 64
1, 23803, Pitch_bend_c, 6, 12096
1, 23804, Note_on_c, 5, 59, 67
1, 23804, Note_on_c, 7, 59, 77
1, 23806, Note_on_c, 5, 62, 79
1, 23806, Note_on_c, 7, 62, 89
1, 23806, Pitch_bend_c, 6, 11648
1, 23807, Note_on_c, 9, 35, 108
1, 23807, Note_on_c, 1, 43, 91
1, 23807, Note_on_c, 5, 67, 65
1, 23807, Note_on_c, 7, 67, 75
1, 23808, Note_off_c, 9, 35, 64
1, 23808, Note_on_c, 9, 51, 116
1, 23808, Note_on_c, 9, 38, 114
1, 23808, Note_off_c, 2, 52, 64
1, 23808, Note_off_c, 6, 72, 64
1, 23809, Note_off_c, 9, 38, 64
1, 23809, Note_off_c, 9, 51, 64
1, 23809, Note_on_c, 0, 91, 120
1, 23809, Note_on_c, 0, 86, 127
1, 23809, Note_on_c, 2, 55, 115
1, 23811, Note_off_c, 1, 40, 64
1, 23812, Pitch_bend_c, 6, 8192
1, 23814, Note_on_c, 6, 72, 100
1, 23821, Note_off_c, 0, 86, 64
1, 23822, Note_off_c, 0, 91, 64
1, 23822, Pitch_bend_c, 6, 9536
1, 23825, Pitch_bend_c, 6, 9664
1, 23828, Pitch_bend_c, 6, 9952
1, 23831, Pitch_bend_c, 6, 10336
1, 23834, Pitch_bend_c, 6, 10880
1, 23836, Pitch_bend_c, 6, 11456
1, 23839, Note_on_c, 9, 51, 93
1, 23839, Note_on_c, 9, 38, 96
1, 23839, Pitch_bend_c, 6, 12000
1, 23840, Note_off_c, 9, 38, 64
1, 23840, Note_off_c, 9, 51, 64
1, 23841, Note_on_c, 0, 91, 108
1, 23841, Note_on_c, 0, 86, 127
1, 23842, Pitch_bend_c, 6, 12480
1, 23845, Pitch_bend_c, 6, 12864
1, 23848, Pitch_bend_c, 6, 13248
1, 23851, Pitch_bend_c, 6, 13568
1, 23853, Pitch_bend_c, 6, 13856
1, 23854, Note_off_c, 0, 86, 64
1, 23855, Note_off_c, 0, 91, 64
1, 23856, Pitch_bend_c, 6, 14080
1, 23859, Pitch_bend_c, 6, 14336
1, 23862, Pitch_bend_c, 6, 14528
1, 23865, Pitch_bend_c, 6, 14720
1, 23868, Note_off_c, 2, 55, 64
1, 23868, Pitch_bend_c, 6, 14880
1, 23870, Pitch_bend_c, 6, 15008
1, 23871, Note_on_c, 9, 51, 116
1, 23871, Note_on_c, 9, 38, 106
1, 23871, Note_on_c, 2, 55, 107
1, 23872, Note_off_c, 9, 38, 64
1, 23872, Note_off_c, 9, 51, 64
1, 23873, Note_on_c, 0, 86, 127
1, 23873, Note_on_c, 0, 91, 112
1, 23874, Pitch_bend_c, 6, 15136
1, 23877, Pitch_bend_c, 6, 15232
1, 23879, Pitch_bend_c, 6, 15296
1, 23883, Pitch_bend_c, 6, 15328
1, 23885, Note_off_c, 0, 91, 64
1, 23885, Pitch_bend_c, 6, 15392
1, 23886, Note_off_c, 0, 86, 64
1, 23889, Pitch_bend_c, 6, 15424
1, 23891, Pitch_bend_c, 6, 15456
1, 23893, Note_off_c, 1, 43, 64
1, 23894, Pitch_bend_c, 6, 15488
1, 23897, Pitch_bend_c, 6, 15552
1, 23900, Pitch_bend_c, 6, 15584
1, 23902, Note_on_c, 1, 40, 95
1, 23903, Note_on_c, 9, 51, 93
1, 23903, Note_on_c, 9, 35, 109
1, 23903, Note_off_c, 2, 55, 64
1, 23903, Note_on_c, 2, 52, 93
1, 23904, Note_off_c, 9, 35, 64
1, 23904, Note_off_c, 9, 51, 64
1, 23904, Note_on_c, 9, 38, 101
1, 23905, Note_off_c, 9, 38, 64
1, 23905, Note_on_c, 0, 86, 127
1, 23905, Note_on_c, 0, 91, 116
1, 23906, Pitch_bend_c, 6, 15616
1, 23917, Note_off_c, 0, 91, 64
1, 23917, Note_off_c, 0, 86, 64
1, 23920, Pitch_bend_c, 6, 15648
1, 23923, Pitch_bend_c, 6, 15712
1, 23925, Pitch_bend_c, 6, 15744
1, 23931, Pitch_bend_c, 6, 15776
1, 23935, Note_on_c, 9, 51, 114
1, 23936, Note_off_c, 9, 51, 64
1, 23936, Note_on_c, 9, 38, 114
1, 23937, Note_off_c, 9, 38, 64
1, 23937, Note_on_c, 0, 91, 118
1, 23937, Note_on_c, 0, 86, 127
1, 23940, Pitch_bend_c, 6, 15808
1, 23948, Pitch_bend_c, 6, 15872
1, 23949, Note_off_c, 0, 86, 64
1, 23949, Note_off_c, 0, 91, 64
1, 23963, Note_off_c, 2, 52, 64
1, 23966, Note_on_c, 2, 52, 105
1, 23966, Pitch_bend_c, 6, 15904
1, 23967, Note_on_c, 9, 51, 94
1, 23967, Note_on_c, 9, 38, 98
1, 23968, Note_off_c, 9, 38, 64
1, 23968, Note_off_c, 9, 51, 64
1, 23969, Note_on_c, 0, 91, 127
1, 23969, Note_on_c, 0, 86, 127
1, 23972, Pitch_bend_c, 6, 15872
1, 23975, Pitch_bend_c, 6, 15744
1, 23977, Pitch_bend_c, 6, 15232
1, 23980, Pitch_bend_c, 6, 12000
1, 23982, Note_off_c, 0, 86, 64
1, 23983, Note_off_c, 0, 91, 64
1, 23983, Pitch_bend_c, 6, 11680
1, 23986, Pitch_bend_c, 6, 11136
1, 23989, Pitch_bend_c, 6, 10496
1, 23992, Note_off_c, 6, 72, 64
1, 23996, Pitch_bend_c, 6, 8192
1, 23997, Note_on_c, 6, 72, 102
1, 23998, Note_off_c, 1, 40, 64
1, 23998, Note_on_c, 1, 38, 90
1, 23999, Note_on_c, 9, 51, 114
1, 23999, Note_on_c, 9, 35, 108
1, 23999, Note_on_c, 9, 38, 106
1, 23999, Note_on_c, 2, 50, 109
1, 24000, Note_off_c, 9, 38, 64
1, 24000, Note_off_c, 9, 35, 64
1, 24000, Note_off_c, 9, 51, 64
1, 24000, Pitch_bend_c, 6, 9792
1, 24001, Note_on_c, 0, 91, 118
1, 24001, Note_on_c, 0, 86, 127
1, 24001, Note_off_c, 2, 52, 64
1, 24004, Pitch_bend_c, 6, 9888
1, 24006, Pitch_bend_c, 6, 10208
1, 24010, Pitch_bend_c, 6, 10720
1, 24012, Pitch_bend_c, 6, 11456
1, 24014, Note_off_c, 0, 86, 64
1, 24015, Pitch_bend_c, 6, 12320
1, 24016, Note_off_c, 0, 91, 64
1, 24018, Pitch_bend_c, 6, 13120
1, 24021, Pitch_bend_c, 6, 13792
1, 24024, Pitch_bend_c, 6, 14336
1, 24027, Pitch_bend_c, 6, 14720
1, 24030, Note_on_c, 9, 38, 89
1, 24030, Pitch_bend_c, 6, 15072
1, 24031, Note_off_c, 9, 38, 64
1, 24031, Note_on_c, 9, 51, 94
1, 24031, Note_on_c, 0, 91, 105
1, 24032, Note_off_c, 9, 51, 64
1, 24032, Note_on_c, 0, 86, 124
1, 24032, Pitch_bend_c, 6, 15296
1, 24035, Pitch_bend_c, 6, 15488
1, 24038, Pitch_bend_c, 6, 15648
1, 24041, Pitch_bend_c, 6, 15808
1, 24044, Pitch_bend_c, 6, 15904
1, 24047, Pitch_bend_c, 6, 16000
1, 24049, Pitch_bend_c, 6, 16032
1, 24051, Note_off_c, 6, 72, 64
1, 24057, Pitch_bend_c, 6, 8192
1, 24058, Note_off_c, 2, 50, 64
1, 24059, Note_on_c, 6, 73, 85
1, 24060, Pitch_bend_c, 6, 8864
1, 24061, Note_on_c, 2, 50, 97
1, 24061, Note_off_c, 5, 59, 64
1, 24061, Note_off_c, 7, 59, 64
1, 24061, Pitch_bend_c, 6, 8704
1, 24062, Note_off_c, 0, 91, 64
1, 24062, Note_off_c, 5, 67, 64
1, 24062, Note_off_c, 5, 62, 64
1, 24062, Note_on_c, 5, 59, 60
1, 24062, Note_off_c, 7, 67, 64
1, 24062, Note_off_c, 7, 62, 64
1, 24062, Note_on_c, 7, 59, 70
1, 24062, Pitch_bend_c, 6, 8352
1, 24063, Note_on_c, 9, 51, 119
1, 24063, Note_on_c, 5, 62, 89
1, 24063, Note_on_c, 7, 62, 99
1, 24063, Pitch_bend_c, 6, 8192
1, 24064, Note_off_c, 9, 51, 64
1, 24064, Note_on_c, 9, 38, 108
1, 24065, Note_off_c, 9, 38, 64
1, 24065, Note_on_c, 0, 79, 124
1, 24065, Note_on_c, 5, 67, 76
1, 24065, Note_on_c, 7, 67, 86
1, 24065, Pitch_bend_c, 6, 2528
1, 24069, Pitch_bend_c, 6, 2400
1, 24071, Note_off_c, 0, 86, 64
1, 24071, Pitch_bend_c, 6, 2176
1, 24074, Pitch_bend_c, 6, 1952
1, 24076, Note_off_c, 6, 73, 64
1, 24077, Pitch_bend_c, 6, 8192
1, 24077, Note_on_c, 6, 70, 77
1, 24080, Note_off_c, 5, 62, 64
1, 24080, Note_off_c, 7, 62, 64
1, 24081, Note_off_c, 5, 67, 64
1, 24081, Note_off_c, 5, 59, 64
1, 24081, Note_off_c, 7, 67, 64
1, 24081, Note_off_c, 7, 59, 64
1, 24083, Pitch_bend_c, 6, 8864
1, 24093, Note_off_c, 1, 38, 64
1, 24093, Note_off_c, 2, 50, 64
1, 24094, Note_on_c, 9, 38, 95
1, 24094, Note_on_c, 1, 35, 85
1, 24094, Pitch_bend_c, 6, 8832
1, 24095, Note_off_c, 9, 38, 64
1, 24095, Note_on_c, 9, 51, 106
1, 24095, Note_on_c, 9, 35, 108
1, 24095, Note_on_c, 2, 47, 115
1, 24096, Note_off_c, 9, 35, 64
1, 24096, Note_off_c, 9, 51, 64
1, 24096, Pitch_bend_c, 6, 8192
1, 24096, Note_on_c, 6, 67, 79
1, 24097, Note_on_c, 0, 86, 127
1, 24111, Note_off_c, 6, 70, 64
1, 24113, Pitch_bend_c, 6, 8640
1, 24115, Note_off_c, 0, 86, 64
1, 24116, Pitch_bend_c, 6, 8608
1, 24119, Pitch_bend_c, 6, 8512
1, 24122, Pitch_bend_c, 6, 8448
1, 24124, Note_off_c, 6, 67, 64
1, 24127, Note_on_c, 9, 51, 122
1, 24127, Note_on_c, 9, 38, 108
1, 24128, Note_off_c, 9, 38, 64
1, 24128, Note_off_c, 9, 51, 64
1, 24129, Note_on_c, 0, 85, 127
1, 24144, Note_off_c, 0, 85, 64
1, 24144, Note_off_c, 0, 79, 64
1, 24154, Note_off_c, 2, 47, 64
1, 24158, Note_on_c, 2, 47, 105
1, 24158, Note_on_c, 5, 59, 58
1, 24158, Note_on_c, 7, 59, 68
1, 24159, Note_on_c, 9, 51, 110
1, 24159, Note_on_c, 9, 38, 96
1, 24159, Note_on_c, 0, 79, 93
1, 24159, Note_on_c, 5, 62, 81
1, 24159, Note_on_c, 7, 62, 91
1, 24160, Note_off_c, 9, 38, 64
1, 24160, Note_off_c, 9, 51, 64
1, 24160, Note_on_c, 0, 84, 127
1, 24160, Note_on_c, 5, 67, 61
1, 24160, Note_on_c, 7, 67, 71
1, 24177, Note_off_c, 0, 84, 64
1, 24177, Note_off_c, 0, 79, 64
1, 24188, Pitch_bend_c, 6, 8192
1, 24190, Note_on_c, 1, 31, 103
1, 24190, Note_on_c, 6, 72, 103
1, 24190, Pitch_bend_c, 6, 9056
1, 24191, Note_on_c, 9, 51, 122
1, 24191, Note_on_c, 9, 35, 108
1, 24191, Pitch_bend_c, 6, 8992
1, 24192, Note_off_c, 9, 35, 64
1, 24192, Note_off_c, 9, 51, 64
1, 24192, Note_on_c, 9, 38, 116
1, 24192, Note_on_c, 0, 79, 110
1, 24192, Note_on_c, 0, 84, 127
1, 24192, Note_on_c, 2, 43, 108
1, 24192, Pitch_bend_c, 6, 8864
1, 24193, Note_off_c, 9, 38, 64
1, 24193, Note_off_c, 1, 35, 64
1, 24194, Note_off_c, 2, 47, 64
1, 24208, Note_off_c, 0, 84, 64
1, 24208, Note_off_c, 0, 79, 64
1, 24209, Pitch_bend_c, 6, 8928
1, 24211, Pitch_bend_c, 6, 9024
1, 24214, Pitch_bend_c, 6, 9120
1, 24217, Pitch_bend_c, 6, 9280
1, 24220, Pitch_bend_c, 6, 9440
1, 24223, Note_on_c, 9, 51, 108
1, 24223, Note_on_c, 9, 38, 91
1, 24223, Pitch_bend_c, 6, 9632
1, 24224, Note_off_c, 9, 38, 64
1, 24224, Note_off_c, 9, 51, 64
1, 24224, Note_on_c, 0, 84, 127
1, 24225, Note_on_c, 0, 79, 104
1, 24226, Pitch_bend_c, 6, 9792
1, 24228, Pitch_bend_c, 6, 9952
1, 24231, Pitch_bend_c, 6, 10208
1, 24234, Pitch_bend_c, 6, 10432
1, 24237, Pitch_bend_c, 6, 10688
1, 24238, Note_off_c, 0, 79, 64
1, 24238, Note_off_c, 0, 84, 64
1, 24240, Pitch_bend_c, 6, 10912
1, 24243, Pitch_bend_c, 6, 11136
1, 24246, Pitch_bend_c, 6, 11392
1, 24249, Pitch_bend_c, 6, 11616
1, 24251, Pitch_bend_c, 6, 11840
1, 24253, Note_off_c, 2, 43, 64
1, 24254, Note_on_c, 9, 38, 108
1, 24254, Note_on_c, 2, 43, 104
1, 24254, Pitch_bend_c, 6, 12096
1, 24255, Note_off_c, 9, 38, 64
1, 24255, Note_on_c, 9, 51, 114
1, 24256, Note_off_c, 9, 51, 64
1, 24257, Note_on_c, 0, 84, 127
1, 24257, Note_on_c, 0, 79, 114
1, 24257, Pitch_bend_c, 6, 12384
1, 24260, Pitch_bend_c, 6, 12672
1, 24263, Pitch_bend_c, 6, 12960
1, 24266, Pitch_bend_c, 6, 13248
1, 24269, Pitch_bend_c, 6, 13472
1, 24270, Note_off_c, 0, 79, 64
1, 24270, Note_off_c, 0, 84, 64
1, 24271, Pitch_bend_c, 6, 13728
1, 24274, Pitch_bend_c, 6, 13920
1, 24277, Pitch_bend_c, 6, 14144
1, 24280, Pitch_bend_c, 6, 14304
1, 24283, Pitch_bend_c, 6, 14464
1, 24286, Pitch_bend_c, 6, 14624
1, 24287, Note_on_c, 9, 51, 108
1, 24287, Note_on_c, 9, 35, 108
1, 24287, Note_on_c, 9, 38, 98
1, 24287, Note_off_c, 1, 31, 64
1, 24287, Note_on_c, 1, 35, 91
1, 24288, Note_off_c, 9, 38, 64
1, 24288, Note_off_c, 9, 35, 64
1, 24288, Note_off_c, 9, 51, 64
1, 24289, Note_on_c, 0, 79, 114
1, 24289, Note_on_c, 0, 84, 127
1, 24289, Note_off_c, 2, 43, 64
1, 24289, Note_on_c, 2, 47, 104
1, 24289, Pitch_bend_c, 6, 14688
1, 24292, Pitch_bend_c, 6, 14784
1, 24295, Pitch_bend_c, 6, 14816
1, 24298, Pitch_bend_c, 6, 14848
1, 24300, Pitch_bend_c, 6, 14880
1, 24304, Note_off_c, 0, 84, 64
1, 24304, Note_off_c, 0, 79, 64
1, 24304, Pitch_bend_c, 6, 14976
1, 24306, Pitch_bend_c, 6, 15008
1, 24309, Pitch_bend_c, 6, 15104
1, 24312, Pitch_bend_c, 6, 15136
1, 24314, Pitch_bend_c, 6, 15168
1, 24318, Pitch_bend_c, 6, 15232
1, 24319, Note_on_c, 9, 51, 116
1, 24319, Note_on_c, 9, 38, 106
1, 24320, Note_off_c, 9, 38, 64
1, 24320, Note_off_c, 9, 51, 64
1, 24320, Note_on_c, 0, 79, 97
1, 24320, Pitch_bend_c, 6, 15264
1, 24321, Note_on_c, 0, 84, 124
1, 24324, Pitch_bend_c, 6, 15296
1, 24326, Pitch_bend_c, 6, 15328
1, 24329, Pitch_bend_c, 6, 15392
1, 24333, Note_off_c, 0, 84, 64
1, 24335, Pitch_bend_c, 6, 15424
1, 24337, Note_off_c, 0, 79, 64
1, 24337, Pitch_bend_c, 6, 15456
1, 24347, Note_off_c, 2, 47, 64
1, 24351, Note_on_c, 9, 51, 110
1, 24351, Note_on_c, 9, 38, 96
1, 24351, Note_on_c, 0, 79, 90
1, 24351, Note_on_c, 0, 84, 122
1, 24351, Note_on_c, 2, 47, 106
1, 24352, Note_off_c, 9, 38, 64
1, 24352, Note_off_c, 9, 51, 64
1, 24363, Pitch_bend_c, 6, 15392
1, 24364, Note_off_c, 0, 84, 64
1, 24365, Note_off_c, 0, 79, 64
1, 24366, Pitch_bend_c, 6, 12672
1, 24369, Pitch_bend_c, 6, 12128
1, 24372, Pitch_bend_c, 6, 9216
1, 24373, Note_off_c, 6, 72, 64
1, 24379, Note_off_c, 5, 59, 64
1, 24379, Note_off_c, 7, 59, 64
1, 24380, Note_off_c, 5, 67, 64
1, 24380, Note_off_c, 7, 67, 64
1, 24381, Note_on_c, 1, 38, 88
1, 24382, Pitch_bend_c, 6, 8192
1, 24383, Note_on_c, 9, 51, 127
1, 24383, Note_on_c, 9, 35, 108
1, 24383, Note_on_c, 9, 38, 110
1, 24383, Note_on_c, 0, 79, 114
1, 24383, Note_on_c, 0, 84, 127
1, 24383, Note_on_c, 6, 72, 101
1, 24384, Note_off_c, 9, 38, 64
1, 24384, Note_off_c, 9, 35, 64
1, 24384, Note_off_c, 9, 51, 64
1, 24384, Note_off_c, 2, 47, 64
1, 24384, Note_on_c, 2, 50, 111
1, 24384, Pitch_bend_c, 6, 8672
1, 24386, Pitch_bend_c, 6, 8608
1, 24387, Note_off_c, 1, 35, 64
1, 24389, Note_off_c, 5, 62, 64
1, 24389, Note_off_c, 7, 62, 64
1, 24392, Pitch_bend_c, 6, 8640
1, 24395, Pitch_bend_c, 6, 8672
1, 24398, Note_off_c, 0, 84, 64
1, 24398, Pitch_bend_c, 6, 8736
1, 24399, Note_off_c, 0, 79, 64
1, 24401, Pitch_bend_c, 6, 8832
1, 24403, Pitch_bend_c, 6, 8928
1, 24406, Pitch_bend_c, 6, 9120
1, 24409, Pitch_bend_c, 6, 9440
1, 24412, Pitch_bend_c, 6, 9728
1, 24415, Note_on_c, 9, 51, 104
1, 24415, Note_on_c, 9, 38, 102
1, 24415, Note_on_c, 0, 84, 127
1, 24415, Pitch_bend_c, 6, 10080
1, 24416, Note_off_c, 9, 38, 64
1, 24416, Note_off_c, 9, 51, 64
1, 24417, Note_on_c, 0, 79, 102
1, 24418, Pitch_bend_c, 6, 10432
1, 24420, Pitch_bend_c, 6, 10688
1, 24423, Pitch_bend_c, 6, 10912
1, 24425, Pitch_bend_c, 6, 11104
1, 24429, Note_off_c, 0, 79, 64
1, 24429, Note_off_c, 0, 84, 64
1, 24429, Pitch_bend_c, 6, 11200
1, 24432, Pitch_bend_c, 6, 11424
1, 24435, Pitch_bend_c, 6, 11616
1, 24437, Pitch_bend_c, 6, 11872
1, 24440, Pitch_bend_c, 6, 12288
1, 24442, Note_off_c, 2, 50, 64
1, 24443, Pitch_bend_c, 6, 12512
1, 24445, Note_on_c, 2, 50, 103
1, 24446, Note_on_c, 9, 38, 110
1, 24446, Pitch_bend_c, 6, 12768
1, 24447, Note_off_c, 9, 38, 64
1, 24447, Note_on_c, 9, 51, 119
1, 24448, Note_off_c, 9, 51, 64
1, 24448, Note_on_c, 0, 84, 127
1, 24448, Note_on_c, 0, 79, 104
1, 24448, Note_on_c, 5, 59, 37
1, 24448, Note_on_c, 7, 59, 47
1, 24449, Note_on_c, 5, 62, 75
1, 24449, Note_on_c, 7, 62, 85
1, 24449, Pitch_bend_c, 6, 12960
1, 24450, Note_on_c, 5, 67, 68
1, 24450, Note_on_c, 7, 67, 78
1, 24452, Pitch_bend_c, 6, 13152
1, 24454, Pitch_bend_c, 6, 13376
1, 24457, Pitch_bend_c, 6, 13536
1, 24460, Pitch_bend_c, 6, 13632
1, 24461, Note_off_c, 0, 79, 64
1, 24461, Note_off_c, 0, 84, 64
1, 24463, Pitch_bend_c, 6, 13760
1, 24467, Pitch_bend_c, 6, 13888
1, 24470, Pitch_bend_c, 6, 13952
1, 24472, Pitch_bend_c, 6, 14048
1, 24475, Note_off_c, 2, 50, 64
1, 24475, Pitch_bend_c, 6, 14176
1, 24478, Note_on_c, 9, 38, 102
1, 24478, Note_on_c, 1, 40, 87
1, 24478, Note_on_c, 2, 52, 112
1, 24478, Pitch_bend_c, 6, 14240
1, 24479, Note_off_c, 9, 38, 64
1, 24479, Note_on_c, 9, 51, 110
1, 24479, Note_on_c, 9, 35, 108
1, 24480, Note_off_c, 9, 35, 64
1, 24480, Note_off_c, 9, 51, 64
1, 24480, Note_on_c, 0, 84, 127
1, 24481, Note_off_c, 1, 38, 64
1, 24481, Note_on_c, 0, 79, 107
1, 24481, Pitch_bend_c, 6, 14336
1, 24484, Pitch_bend_c, 6, 14400
1, 24486, Note_off_c, 5, 59, 64
1, 24486, Note_off_c, 7, 59, 64
1, 24487, Note_on_c, 5, 59, 33
1, 24487, Note_on_c, 7, 59, 43
1, 24487, Pitch_bend_c, 6, 14496
1, 24489, Pitch_bend_c, 6, 14560
1, 24492, Pitch_bend_c, 6, 14656
1, 24493, Note_off_c, 0, 84, 64
1, 24495, Pitch_bend_c, 6, 14720
1, 24496, Note_off_c, 0, 79, 64
1, 24498, Pitch_bend_c, 6, 14784
1, 24501, Pitch_bend_c, 6, 14816
1, 24504, Note_off_c, 5, 59, 64
1, 24504, Note_off_c, 7, 59, 64
1, 24504, Pitch_bend_c, 6, 14880
1, 24505, Note_off_c, 5, 67, 64
1, 24505, Note_off_c, 7, 67, 64
1, 24506, Note_off_c, 5, 62, 64
1, 24506, Note_off_c, 7, 62, 64
1, 24506, Pitch_bend_c, 6, 14944
1, 24509, Pitch_bend_c, 6, 14976
1, 24511, Note_on_c, 9, 51, 127
1, 24511, Note_on_c, 9, 38, 106
1, 24511, Note_on_c, 0, 79, 91
1, 24511, Note_on_c, 0, 84, 127
1, 24512, Note_off_c, 9, 38, 64
1, 24512, Note_off_c, 9, 51, 64
1, 24512, Pitch_bend_c, 6, 15008
1, 24515, Pitch_bend_c, 6, 15072
1, 24518, Pitch_bend_c, 6, 15104
1, 24523, Pitch_bend_c, 6, 15136
1, 24525, Note_off_c, 0, 84, 64
1, 24526, Pitch_bend_c, 6, 15168
1, 24528, Note_off_c, 0, 79, 64
1, 24539, Note_off_c, 2, 52, 64
1, 24541, Pitch_bend_c, 6, 15136
1, 24542, Note_on_c, 9, 38, 110
1, 24542, Note_on_c, 2, 52, 105
1, 24543, Note_off_c, 9, 38, 64
1, 24543, Note_on_c, 9, 51, 125
1, 24543, Note_on_c, 0, 84, 124
1, 24543, Note_on_c, 0, 79, 85
1, 24544, Note_off_c, 9, 51, 64
1, 24544, Pitch_bend_c, 6, 14944
1, 24546, Pitch_bend_c, 6, 12608
1, 24550, Pitch_bend_c, 6, 12224
1, 24552, Pitch_bend_c, 6, 9504
1, 24554, Note_off_c, 6, 72, 64
1, 24562, Note_off_c, 0, 79, 64
1, 24562, Note_off_c, 0, 84, 64
1, 24574, Note_off_c, 1, 40, 64
1, 24574, Note_on_c, 1, 43, 87
1, 24574, Note_on_c, 5, 55, 37
1, 24574, Note_on_c, 7, 55, 47
1, 24575, Note_on_c, 9, 45, 114
1, 24575, Note_on_c, 9, 35, 108
1, 24575, Note_off_c, 2, 52, 64
1, 24575, Note_on_c, 2, 55, 114
1, 24575, Note_on_c, 5, 59, 51
1, 24575, Note_on_c, 7, 59, 61
1, 24576, Note_off_c, 9, 35, 64
1, 24576, Note_off_c, 9, 45, 64
1, 24576, Note_on_c, 0, 79, 96
1, 24576, Note_on_c, 0, 82, 127
1, 24577, Note_on_c, 5, 62, 49
1, 24577, Note_on_c, 7, 62, 59
1, 24578, Note_on_c, 9, 38, 116
1, 24578, Pitch_bend_c, 6, 8192
1, 24579, Note_off_c, 9, 38, 64
1, 24580, Note_on_c, 6, 72, 100
1, 24583, Pitch_bend_c, 6, 8448
1, 24584, Pitch_bend_c, 6, 8512
1, 24590, Pitch_bend_c, 6, 8448
1, 24593, Pitch_bend_c, 6, 8352
1, 24596, Pitch_bend_c, 6, 8288
1, 24599, Pitch_bend_c, 6, 8320
1, 24601, Pitch_bend_c, 6, 8512
1, 24604, Pitch_bend_c, 6, 8800
1, 24607, Note_on_c, 9, 45, 99
1, 24607, Pitch_bend_c, 6, 9088
1, 24608, Note_off_c, 9, 45, 64
1, 24610, Pitch_bend_c, 6, 9472
1, 24611, Note_on_c, 9, 38, 91
1, 24612, Note_off_c, 9, 38, 64
1, 24613, Pitch_bend_c, 6, 9888
1, 24615, Pitch_bend_c, 6, 10400
1, 24619, Pitch_bend_c, 6, 10944
1, 24622, Pitch_bend_c, 6, 11552
1, 24625, Pitch_bend_c, 6, 12192
1, 24627, Note_off_c, 0, 82, 64
1, 24628, Pitch_bend_c, 6, 12640
1, 24629, Note_off_c, 0, 79, 64
1, 24630, Pitch_bend_c, 6, 12960
1, 24633, Note_off_c, 2, 55, 64
1, 24633, Pitch_bend_c, 6, 13024
1, 24636, Pitch_bend_c, 6, 12608
1, 24637, Note_on_c, 2, 55, 107
1, 24638, Note_off_c, 5, 55, 64
1, 24638, Note_off_c, 7, 55, 64
1, 24640, Note_off_c, 6, 72, 64
1, 24641, Note_on_c, 9, 45, 98
1, 24641, Note_on_c, 0, 79, 122
1, 24641, Note_on_c, 0, 82, 127
1, 24641, Note_off_c, 5, 59, 64
1, 24641, Note_off_c, 7, 59, 64
1, 24641, Note_on_c, 6, 74, 101
1, 24641, Pitch_bend_c, 6, 8384
1, 24642, Note_off_c, 9, 45, 64
1, 24642, Note_on_c, 9, 38, 71
1, 24643, Note_off_c, 9, 38, 64
1, 24643, Pitch_bend_c, 6, 8288
1, 24650, Pitch_bend_c, 6, 8320
1, 24653, Pitch_bend_c, 6, 8288
1, 24656, Note_off_c, 0, 82, 64
1, 24659, Note_off_c, 0, 79, 64
1, 24661, Pitch_bend_c, 6, 8256
1, 24664, Pitch_bend_c, 6, 8288
1, 24665, Note_off_c, 2, 55, 64
1, 24667, Note_off_c, 6, 74, 64
1, 24670, Note_on_c, 2, 54, 121
1, 24670, Note_off_c, 5, 62, 64
1, 24670, Note_on_c, 5, 59, 70
1, 24670, Note_off_c, 7, 62, 64
1, 24670, Note_on_c, 7, 59, 80
1, 24671, Note_on_c, 9, 38, 104
1, 24671, Note_on_c, 1, 40, 96
1, 24671, Note_on_c, 5, 62, 74
1, 24671, Note_on_c, 7, 62, 84
1, 24672, Note_off_c, 9, 38, 64
1, 24672, Note_on_c, 9, 35, 109
1, 24673, Note_off_c, 9, 35, 64
1, 24673, Note_on_c, 9, 45, 92
1, 24673, Note_on_c, 5, 67, 53
1, 24673, Note_on_c, 7, 67, 63
1, 24674, Note_off_c, 9, 45, 64
1, 24674, Pitch_bend_c, 6, 8192
1, 24676, Note_on_c, 6, 72, 96
1, 24676, Pitch_bend_c, 6, 8704
1, 24679, Pitch_bend_c, 6, 8736
1, 24681, Note_off_c, 1, 43, 64
1, 24683, Pitch_bend_c, 6, 8800
1, 24685, Pitch_bend_c, 6, 8864
1, 24688, Pitch_bend_c, 6, 8992
1, 24691, Pitch_bend_c, 6, 9120
1, 24694, Pitch_bend_c, 6, 9312
1, 24696, Pitch_bend_c, 6, 9536
1, 24700, Pitch_bend_c, 6, 9856
1, 24701, Note_off_c, 2, 54, 64
1, 24701, Note_on_c, 2, 55, 98
1, 24702, Pitch_bend_c, 6, 10208
1, 24705, Note_on_c, 9, 45, 102
1, 24705, Note_on_c, 9, 38, 106
1, 24705, Pitch_bend_c, 6, 10656
1, 24706, Note_off_c, 9, 38, 64
1, 24706, Note_off_c, 9, 45, 64
1, 24708, Pitch_bend_c, 6, 11232
1, 24711, Pitch_bend_c, 6, 11808
1, 24714, Pitch_bend_c, 6, 12384
1, 24717, Pitch_bend_c, 6, 12864
1, 24720, Pitch_bend_c, 6, 13216
1, 24723, Pitch_bend_c, 6, 13312
1, 24725, Pitch_bend_c, 6, 13280
1, 24729, Note_off_c, 2, 55, 64
1, 24731, Note_off_c, 6, 72, 64
1, 24732, Note_on_c, 6, 74, 104
1, 24733, Note_on_c, 2, 54, 106
1, 24733, Pitch_bend_c, 6, 8192
1, 24735, Note_off_c, 5, 59, 64
1, 24735, Note_off_c, 7, 59, 64
1, 24736, Note_on_c, 9, 45, 87
1, 24737, Note_off_c, 9, 45, 64
1, 24737, Note_on_c, 9, 38, 106
1, 24737, Note_on_c, 0, 73, 127
1, 24737, Note_on_c, 0, 77, 127
1, 24738, Note_off_c, 9, 38, 64
1, 24740, Note_on_c, 5, 59, 37
1, 24740, Note_on_c, 7, 59, 47
1, 24740, Pitch_bend_c, 6, 8256
1, 24743, Pitch_bend_c, 6, 8192
1, 24757, Pitch_bend_c, 6, 8000
1, 24761, Note_off_c, 6, 74, 64
1, 24762, Note_off_c, 5, 59, 64
1, 24762, Note_off_c, 7, 59, 64
1, 24762, Pitch_bend_c, 6, 8192
1, 24763, Note_off_c, 2, 54, 64
1, 24763, Note_on_c, 6, 70, 104
1, 24766, Note_on_c, 2, 55, 118
1, 24767, Note_on_c, 9, 35, 109
1, 24767, Note_on_c, 1, 38, 86
1, 24767, Note_off_c, 5, 62, 64
1, 24767, Note_off_c, 7, 62, 64
1, 24768, Note_off_c, 9, 35, 64
1, 24768, Note_on_c, 9, 45, 99
1, 24769, Note_off_c, 9, 45, 64
1, 24769, Note_on_c, 9, 38, 112
1, 24769, Note_on_c, 0, 74, 105
1, 24769, Note_off_c, 5, 67, 64
1, 24769, Note_on_c, 5, 62, 68
1, 24769, Note_off_c, 7, 67, 64
1, 24769, Note_on_c, 7, 62, 78
1, 24770, Note_off_c, 9, 38, 64
1, 24770, Note_on_c, 5, 59, 43
1, 24770, Note_on_c, 5, 67, 54
1, 24770, Note_on_c, 7, 59, 53
1, 24770, Note_on_c, 7, 67, 64
1, 24776, Note_off_c, 0, 73, 64
1, 24777, Note_off_c, 1, 40, 64
1, 24784, Note_off_c, 5, 67, 64
1, 24784, Note_off_c, 5, 62, 64
1, 24784, Note_off_c, 7, 67, 64
1, 24784, Note_off_c, 7, 62, 64
1, 24787, Note_off_c, 5, 59, 64
1, 24787, Note_off_c, 7, 59, 64
1, 24798, Note_on_c, 2, 54, 83
1, 24799, Note_on_c, 9, 45, 104
1, 24799, Note_off_c, 2, 55, 64
1, 24800, Note_off_c, 9, 45, 64
1, 24800, Note_on_c, 9, 38, 102
1, 24801, Note_off_c, 9, 38, 64
1, 24805, Note_off_c, 0, 77, 64
1, 24812, Note_off_c, 0, 74, 64
1, 24826, Note_off_c, 2, 54, 64
1, 24830, Note_on_c, 2, 55, 107
1, 24830, Note_on_c, 5, 55, 33
1, 24830, Note_on_c, 7, 55, 43
1, 24831, Note_on_c, 0, 73, 126
1, 24831, Note_on_c, 0, 77, 127
1, 24832, Note_on_c, 9, 45, 85
1, 24832, Note_on_c, 9, 38, 108
1, 24833, Note_off_c, 9, 38, 64
1, 24833, Note_off_c, 9, 45, 64
1, 24858, Note_off_c, 2, 55, 64
1, 24860, Note_off_c, 0, 73, 64
1, 24862, Note_on_c, 9, 38, 110
1, 24862, Note_on_c, 5, 59, 66
1, 24862, Note_on_c, 7, 59, 76
1, 24863, Note_off_c, 9, 38, 64
1, 24863, Note_on_c, 9, 45, 102
1, 24863, Note_on_c, 9, 35, 111
1, 24863, Note_on_c, 2, 54, 121
1, 24863, Note_on_c, 5, 62, 76
1, 24863, Note_on_c, 7, 62, 86
1, 24863, Note_off_c, 6, 70, 64
1, 24864, Note_off_c, 9, 35, 64
1, 24864, Note_off_c, 9, 45, 64
1, 24864, Note_on_c, 1, 35, 89
1, 24864, Note_on_c, 5, 67, 40
1, 24864, Note_on_c, 7, 67, 50
1, 24864, Note_on_c, 6, 67, 105
1, 24865, Note_on_c, 0, 72, 96
1, 24868, Note_off_c, 1, 38, 64
1, 24894, Note_on_c, 9, 38, 118
1, 24895, Note_off_c, 9, 38, 64
1, 24895, Note_on_c, 9, 45, 98
1, 24895, Note_on_c, 2, 55, 102
1, 24896, Note_off_c, 9, 45, 64
1, 24896, Note_off_c, 2, 54, 64
1, 24897, Note_off_c, 6, 67, 64
1, 24900, Note_off_c, 5, 55, 64
1, 24900, Note_off_c, 7, 55, 64
1, 24903, Note_off_c, 5, 59, 64
1, 24903, Note_off_c, 5, 62, 64
1, 24903, Note_off_c, 7, 59, 64
1, 24903, Note_off_c, 7, 62, 64
1, 24905, Note_off_c, 5, 67, 64
1, 24905, Note_off_c, 7, 67, 64
1, 24910, Note_off_c, 0, 72, 64
1, 24911, Note_off_c, 0, 77, 64
1, 24924, Note_off_c, 2, 55, 64
1, 24926, Note_on_c, 9, 38, 126
1, 24927, Note_off_c, 9, 38, 64
1, 24927, Note_on_c, 9, 45, 124
1, 24927, Note_on_c, 0, 77, 95
1, 24927, Note_on_c, 0, 70, 105
1, 24927, Note_on_c, 2, 55, 104
1, 24928, Note_off_c, 9, 45, 64
1, 24941, Note_off_c, 1, 35, 64
1, 24946, Note_off_c, 0, 77, 64
1, 24949, Note_off_c, 0, 70, 64
1, 24955, Note_off_c, 2, 55, 64
1, 24959, Note_on_c, 9, 51, 112
1, 24959, Note_on_c, 9, 35, 111
1, 24960, Note_off_c, 9, 35, 64
1, 24960, Note_off_c, 9, 51, 64
1, 24960, Note_on_c, 1, 36, 105
1, 24960, Note_on_c, 2, 48, 112
1, 24960, Note_on_c, 5, 52, 26
1, 24960, Note_on_c, 7, 52, 36
1, 24961, Note_on_c, 0, 67, 114
1, 24961, Note_on_c, 0, 72, 116
1, 24963, Note_on_c, 5, 58, 26
1, 24963, Note_on_c, 7, 58, 36
1, 24999, Note_off_c, 5, 58, 64
1, 24999, Note_off_c, 7, 58, 64
1, 25008, Note_off_c, 5, 52, 64
1, 25008, Note_off_c, 7, 52, 64
1, 25011, Note_off_c, 0, 67, 64
1, 25014, Note_off_c, 0, 72, 64
1, 25023, Note_on_c, 9, 51, 77
1, 25024, Note_off_c, 9, 51, 64
1, 25039, Note_off_c, 2, 48, 64
1, 25055, Note_on_c, 9, 51, 114
1, 25055, Note_on_c, 1, 40, 91
1, 25055, Note_on_c, 5, 52, 44
1, 25055, Note_on_c, 7, 52, 54
1, 25056, Note_off_c, 9, 51, 64
1, 25056, Note_on_c, 9, 38, 118
1, 25056, Note_on_c, 2, 51, 123
1, 25056, Note_on_c, 6, 70, 106
1, 25057, Note_off_c, 9, 38, 64
1, 25057, Note_on_c, 0, 60, 98
1, 25057, Note_on_c, 0, 55, 102
1, 25057, Note_on_c, 0, 72, 127
1, 25057, Note_on_c, 0, 67, 105
1, 25057, Note_on_c, 5, 58, 70
1, 25057, Note_on_c, 7, 58, 80
1, 25058, Note_on_c, 5, 62, 76
1, 25058, Note_on_c, 7, 62, 86
1, 25059, Note_on_c, 5, 67, 41
1, 25059, Note_on_c, 7, 67, 51
1, 25062, Note_off_c, 1, 36, 64
1, 25089, Pitch_bend_c, 6, 4992
1, 25091, Pitch_bend_c, 6, 5024
1, 25094, Pitch_bend_c, 6, 5120
1, 25097, Pitch_bend_c, 6, 5152
1, 25100, Pitch_bend_c, 6, 5184
1, 25103, Pitch_bend_c, 6, 5152
1, 25106, Pitch_bend_c, 6, 4992
1, 25108, Pitch_bend_c, 6, 4864
1, 25111, Pitch_bend_c, 6, 4736
1, 25113, Note_off_c, 0, 67, 64
1, 25113, Note_off_c, 0, 72, 64
1, 25114, Note_off_c, 6, 70, 64
1, 25114, Pitch_bend_c, 6, 8192
1, 25115, Note_on_c, 6, 64, 86
1, 25116, Pitch_bend_c, 6, 8576
1, 25117, Note_off_c, 2, 51, 64
1, 25120, Note_on_c, 2, 52, 109
1, 25121, Note_on_c, 9, 51, 93
1, 25121, Note_off_c, 5, 67, 64
1, 25121, Note_off_c, 5, 62, 64
1, 25121, Note_off_c, 7, 67, 64
1, 25121, Note_off_c, 7, 62, 64
1, 25122, Note_off_c, 9, 51, 64
1, 25122, Note_on_c, 5, 62, 82
1, 25122, Note_on_c, 7, 62, 92
1, 25122, Pitch_bend_c, 6, 8544
1, 25123, Note_on_c, 5, 67, 73
1, 25123, Note_on_c, 7, 67, 83
1, 25133, Pitch_bend_c, 6, 8576
1, 25136, Note_off_c, 0, 55, 64
1, 25142, Note_off_c, 5, 67, 64
1, 25142, Note_off_c, 7, 67, 64
1, 25145, Pitch_bend_c, 6, 8544
1, 25146, Note_off_c, 0, 60, 64
1, 25148, Note_off_c, 1, 40, 64
1, 25148, Note_off_c, 5, 52, 64
1, 25148, Note_off_c, 5, 58, 64
1, 25148, Note_off_c, 7, 52, 64
1, 25148, Note_off_c, 7, 58, 64
1, 25148, Pitch_bend_c, 6, 8192
1, 25149, Note_off_c, 5, 62, 64
1, 25149, Note_off_c, 7, 62, 64
1, 25150, Note_on_c, 1, 43, 86
1, 25150, Note_off_c, 6, 64, 64
1, 25151, Note_on_c, 9, 35, 107
1, 25151, Note_on_c, 0, 72, 85
1, 25152, Note_off_c, 9, 35, 64
1, 25152, Note_on_c, 0, 67, 80
1, 25152, Note_off_c, 2, 52, 64
1, 25152, Note_on_c, 6, 67, 109
1, 25152, Pitch_bend_c, 6, 8736
1, 25153, Note_on_c, 9, 51, 82
1, 25154, Note_off_c, 9, 51, 64
1, 25154, Note_on_c, 2, 55, 112
1, 25155, Pitch_bend_c, 6, 8704
1, 25156, Pitch_bend_c, 6, 8736
1, 25159, Pitch_bend_c, 6, 8704
1, 25162, Pitch_bend_c, 6, 8672
1, 25165, Pitch_bend_c, 6, 8640
1, 25168, Pitch_bend_c, 6, 8608
1, 25171, Pitch_bend_c, 6, 8544
1, 25174, Pitch_bend_c, 6, 8512
1, 25176, Pitch_bend_c, 6, 8480
1, 25180, Pitch_bend_c, 6, 8448
1, 25197, Pitch_bend_c, 6, 8480
1, 25200, Pitch_bend_c, 6, 8544
1, 25202, Pitch_bend_c, 6, 8672
1, 25205, Pitch_bend_c, 6, 8768
1, 25208, Pitch_bend_c, 6, 8832
1, 25212, Note_off_c, 0, 67, 64
1, 25212, Note_off_c, 0, 72, 64
1, 25212, Note_off_c, 2, 55, 64
1, 25214, Pitch_bend_c, 6, 8800
1, 25215, Note_on_c, 9, 51, 88
1, 25215, Note_on_c, 2, 55, 105
1, 25215, Note_on_c, 5, 52, 16
1, 25215, Note_on_c, 7, 52, 26
1, 25216, Note_off_c, 9, 51, 64
1, 25217, Note_on_c, 0, 55, 82
1, 25217, Note_on_c, 0, 60, 79
1, 25217, Pitch_bend_c, 6, 8736
1, 25218, Note_on_c, 5, 58, 23
1, 25218, Note_on_c, 7, 58, 33
1, 25219, Pitch_bend_c, 6, 8672
1, 25222, Pitch_bend_c, 6, 8640
1, 25225, Pitch_bend_c, 6, 8576
1, 25228, Pitch_bend_c, 6, 8544
1, 25230, Note_off_c, 0, 60, 64
1, 25231, Pitch_bend_c, 6, 8512
1, 25234, Note_off_c, 0, 55, 64
1, 25237, Pitch_bend_c, 6, 8544
1, 25240, Note_off_c, 6, 67, 64
1, 25245, Note_off_c, 1, 43, 64
1, 25246, Note_off_c, 2, 55, 64
1, 25246, Note_off_c, 5, 58, 64
1, 25246, Note_off_c, 7, 58, 64
1, 25247, Note_on_c, 9, 51, 99
1, 25247, Note_on_c, 1, 45, 82
1, 25248, Note_off_c, 9, 51, 64
1, 25248, Note_on_c, 5, 58, 59
1, 25248, Note_on_c, 7, 58, 69
1, 25248, Note_on_c, 6, 69, 102
1, 25248, Pitch_bend_c, 6, 8512
1, 25249, Note_on_c, 9, 38, 114
1, 25249, Note_on_c, 0, 72, 124
1, 25249, Note_on_c, 0, 67, 104
1, 25249, Note_on_c, 2, 57, 109
1, 25249, Note_on_c, 5, 62, 73
1, 25249, Note_on_c, 7, 62, 83
1, 25249, Pitch_bend_c, 6, 8608
1, 25250, Note_off_c, 9, 38, 64
1, 25251, Note_on_c, 5, 67, 44
1, 25251, Note_on_c, 7, 67, 54
1, 25258, Pitch_bend_c, 6, 8640
1, 25261, Pitch_bend_c, 6, 8672
1, 25264, Pitch_bend_c, 6, 8704
1, 25267, Pitch_bend_c, 6, 8800
1, 25269, Pitch_bend_c, 6, 8896
1, 25272, Pitch_bend_c, 6, 8992
1, 25275, Pitch_bend_c, 6, 9152
1, 25278, Pitch_bend_c, 6, 9280
1, 25281, Pitch_bend_c, 6, 9472
1, 25284, Pitch_bend_c, 6, 9696
1, 25286, Note_off_c, 0, 67, 64
1, 25287, Note_off_c, 5, 67, 64
1, 25287, Note_off_c, 7, 67, 64
1, 25287, Pitch_bend_c, 6, 9920
1, 25289, Pitch_bend_c, 6, 10176
1, 25290, Note_off_c, 0, 72, 64
1, 25290, Note_off_c, 5, 58, 64
1, 25290, Note_off_c, 7, 58, 64
1, 25292, Note_off_c, 5, 52, 64
1, 25292, Note_off_c, 7, 52, 64
1, 25292, Pitch_bend_c, 6, 10496
1, 25293, Note_off_c, 5, 62, 64
1, 25293, Note_off_c, 7, 62, 64
1, 25295, Pitch_bend_c, 6, 10880
1, 25298, Pitch_bend_c, 6, 11392
1, 25301, Pitch_bend_c, 6, 12000
1, 25303, Pitch_bend_c, 6, 12704
1, 25305, Note_off_c, 2, 57, 64
1, 25307, Pitch_bend_c, 6, 13408
1, 25310, Note_on_c, 2, 57, 89
1, 25310, Pitch_bend_c, 6, 13984
1, 25311, Note_on_c, 9, 51, 86
1, 25312, Note_off_c, 9, 51, 64
1, 25312, Pitch_bend_c, 6, 14368
1, 25313, Note_on_c, 0, 69, 127
1, 25313, Note_on_c, 0, 65, 127
1, 25315, Note_off_c, 6, 69, 64
1, 25315, Pitch_bend_c, 6, 14496
1, 25317, Pitch_bend_c, 6, 8192
1, 25336, Note_off_c, 1, 45, 64
1, 25337, Note_off_c, 2, 57, 64
1, 25342, Note_on_c, 1, 46, 88
1, 25343, Note_on_c, 9, 35, 107
1, 25344, Note_off_c, 9, 35, 64
1, 25344, Note_on_c, 9, 51, 102
1, 25344, Note_off_c, 0, 65, 64
1, 25344, Note_on_c, 2, 58, 115
1, 25345, Note_off_c, 9, 51, 64
1, 25346, Note_off_c, 0, 69, 64
1, 25346, Note_on_c, 0, 67, 71
1, 25346, Note_on_c, 0, 64, 60
1, 25380, Note_off_c, 0, 67, 64
1, 25393, Note_off_c, 0, 64, 64
1, 25405, Note_off_c, 2, 58, 64
1, 25407, Note_on_c, 2, 58, 91
1, 25408, Note_on_c, 9, 51, 94
1, 25408, Note_on_c, 5, 52, 28
1, 25408, Note_on_c, 7, 52, 38
1, 25409, Note_off_c, 9, 51, 64
1, 25436, Note_off_c, 1, 46, 64
1, 25438, Note_off_c, 2, 58, 64
1, 25439, Note_on_c, 9, 51, 90
1, 25439, Note_on_c, 9, 38, 118
1, 25439, Note_on_c, 1, 45, 81
1, 25439, Note_on_c, 5, 58, 69
1, 25439, Note_on_c, 7, 58, 79
1, 25440, Note_off_c, 9, 38, 64
1, 25440, Note_off_c, 9, 51, 64
1, 25440, Note_on_c, 5, 62, 79
1, 25440, Note_on_c, 7, 62, 89
1, 25440, Note_on_c, 6, 70, 106
1, 25441, Note_on_c, 0, 67, 120
1, 25441, Note_on_c, 0, 64, 116
1, 25441, Note_on_c, 2, 57, 109
1, 25442, Note_on_c, 5, 67, 53
1, 25442, Note_on_c, 7, 67, 63
1, 25448, Pitch_bend_c, 6, 9312
1, 25451, Pitch_bend_c, 6, 9152
1, 25454, Pitch_bend_c, 6, 9056
1, 25462, Pitch_bend_c, 6, 9088
1, 25465, Pitch_bend_c, 6, 9120
1, 25468, Pitch_bend_c, 6, 9056
1, 25474, Pitch_bend_c, 6, 9088
1, 25477, Pitch_bend_c, 6, 4896
1, 25488, Pitch_bend_c, 6, 4736
1, 25490, Note_off_c, 6, 70, 64
1, 25491, Note_off_c, 0, 64, 64
1, 25501, Note_off_c, 2, 57, 64
1, 25503, Note_on_c, 2, 57, 91
1, 25503, Pitch_bend_c, 6, 8192
1, 25504, Note_off_c, 5, 58, 64
1, 25504, Note_off_c, 7, 58, 64
1, 25505, Note_on_c, 9, 51, 93
1, 25505, Note_on_c, 0, 60, 71
1, 25505, Note_on_c, 5, 58, 59
1, 25505, Note_on_c, 7, 58, 69
1, 25505, Note_on_c, 6, 64, 72
1, 25506, Note_off_c, 9, 51, 64
1, 25506, Note_off_c, 5, 62, 64
1, 25506, Note_off_c, 7, 62, 64
1, 25507, Note_on_c, 5, 62, 78
1, 25507, Note_on_c, 7, 62, 88
1, 25515, Note_off_c, 0, 60, 64
1, 25515, Note_off_c, 0, 67, 64
1, 25530, Note_off_c, 1, 45, 64
1, 25531, Note_off_c, 2, 57, 64
1, 25534, Note_off_c, 6, 64, 64
1, 25535, Note_on_c, 9, 35, 105
1, 25535, Note_on_c, 1, 43, 84
1, 25535, Note_on_c, 2, 55, 104
1, 25536, Note_off_c, 9, 35, 64
1, 25536, Note_on_c, 9, 51, 94
1, 25537, Note_off_c, 9, 51, 64
1, 25537, Note_on_c, 0, 67, 104
1, 25537, Note_on_c, 0, 60, 94
1, 25541, Note_on_c, 6, 67, 109
1, 25545, Pitch_bend_c, 6, 8896
1, 25549, Pitch_bend_c, 6, 8800
1, 25555, Pitch_bend_c, 6, 8736
1, 25563, Pitch_bend_c, 6, 8640
1, 25566, Pitch_bend_c, 6, 8608
1, 25572, Pitch_bend_c, 6, 8576
1, 25575, Pitch_bend_c, 6, 8608
1, 25577, Pitch_bend_c, 6, 8640
1, 25586, Pitch_bend_c, 6, 8608
1, 25589, Pitch_bend_c, 6, 8544
1, 25592, Note_off_c, 5, 52, 64
1, 25592, Note_off_c, 7, 52, 64
1, 25592, Pitch_bend_c, 6, 8480
1, 25593, Note_off_c, 0, 60, 64
1, 25594, Pitch_bend_c, 6, 8448
1, 25596, Note_off_c, 2, 55, 64
1, 25596, Note_off_c, 5, 58, 64
1, 25596, Note_off_c, 7, 58, 64
1, 25598, Note_off_c, 0, 67, 64
1, 25598, Note_on_c, 2, 55, 96
1, 25598, Note_on_c, 5, 52, 41
1, 25598, Note_on_c, 7, 52, 51
1, 25601, Note_on_c, 9, 51, 90
1, 25602, Note_off_c, 9, 51, 64
1, 25606, Pitch_bend_c, 6, 8480
1, 25615, Pitch_bend_c, 6, 8448
1, 25618, Pitch_bend_c, 6, 8384
1, 25621, Pitch_bend_c, 6, 8352
1, 25624, Pitch_bend_c, 6, 8320
1, 25628, Note_off_c, 2, 55, 64
1, 25628, Note_off_c, 6, 67, 64
1, 25628, Pitch_bend_c, 6, 8480
1, 25630, Note_on_c, 2, 52, 107
1, 25631, Note_on_c, 9, 38, 110
1, 25631, Note_off_c, 1, 43, 64
1, 25631, Note_on_c, 1, 40, 79
1, 25631, Note_on_c, 0, 67, 105
1, 25631, Note_off_c, 5, 62, 64
1, 25631, Note_on_c, 5, 58, 46
1, 25631, Note_off_c, 7, 62, 64
1, 25631, Note_on_c, 7, 58, 56
1, 25632, Note_off_c, 9, 38, 64
1, 25632, Note_on_c, 9, 51, 97
1, 25632, Note_on_c, 0, 60, 91
1, 25632, Pitch_bend_c, 6, 8192
1, 25633, Note_off_c, 9, 51, 64
1, 25633, Note_off_c, 5, 67, 64
1, 25633, Note_on_c, 5, 62, 73
1, 25633, Note_off_c, 7, 67, 64
1, 25633, Note_on_c, 7, 62, 83
1, 25633, Note_on_c, 6, 69, 106
1, 25634, Note_on_c, 5, 67, 54
1, 25634, Note_on_c, 7, 67, 64
1, 25634, Pitch_bend_c, 6, 8800
1, 25641, Pitch_bend_c, 6, 8832
1, 25644, Note_off_c, 0, 60, 64
1, 25650, Pitch_bend_c, 6, 8800
1, 25653, Pitch_bend_c, 6, 8768
1, 25659, Pitch_bend_c, 6, 8704
1, 25660, Note_off_c, 0, 67, 64
1, 25667, Pitch_bend_c, 6, 8768
1, 25670, Pitch_bend_c, 6, 8928
1, 25673, Pitch_bend_c, 6, 9120
1, 25676, Pitch_bend_c, 6, 9376
1, 25678, Pitch_bend_c, 6, 9696
1, 25682, Note_off_c, 5, 58, 64
1, 25682, Note_off_c, 7, 58, 64
1, 25682, Pitch_bend_c, 6, 10048
1, 25683, Note_off_c, 5, 67, 64
1, 25683, Note_off_c, 7, 67, 64
1, 25685, Note_off_c, 5, 62, 64
1, 25685, Note_off_c, 7, 62, 64
1, 25685, Pitch_bend_c, 6, 10496
1, 25687, Pitch_bend_c, 6, 10944
1, 25688, Note_off_c, 5, 52, 64
1, 25688, Note_off_c, 7, 52, 64
1, 25689, Note_off_c, 2, 52, 64
1, 25690, Pitch_bend_c, 6, 11360
1, 25693, Note_on_c, 2, 52, 96
1, 25693, Pitch_bend_c, 6, 11744
1, 25695, Note_on_c, 9, 51, 94
1, 25695, Note_on_c, 0, 55, 90
1, 25696, Note_off_c, 9, 51, 64
1, 25696, Pitch_bend_c, 6, 11968
1, 25697, Note_on_c, 0, 62, 66
1, 25699, Pitch_bend_c, 6, 12128
1, 25701, Note_off_c, 0, 62, 64
1, 25702, Pitch_bend_c, 6, 12192
1, 25704, Pitch_bend_c, 6, 12224
1, 25707, Pitch_bend_c, 6, 12192
1, 25710, Note_off_c, 0, 55, 64
1, 25710, Pitch_bend_c, 6, 12032
1, 25711, Note_off_c, 6, 69, 64
1, 25711, Pitch_bend_c, 6, 12128
1, 25725, Note_off_c, 1, 40, 64
1, 25726, Note_on_c, 2, 43, 111
1, 25727, Note_on_c, 9, 51, 90
1, 25727, Note_on_c, 9, 35, 106
1, 25727, Note_on_c, 5, 55, 21
1, 25727, Note_on_c, 7, 55, 31
1, 25728, Note_off_c, 9, 35, 64
1, 25728, Note_off_c, 9, 51, 64
1, 25728, Pitch_bend_c, 6, 8192
1, 25729, Note_on_c, 1, 31, 88
1, 25729, Note_on_c, 0, 91, 127
1, 25729, Note_on_c, 0, 85, 127
1, 25729, Note_off_c, 2, 52, 64
1, 25729, Note_on_c, 6, 66, 106
1, 25730, Note_on_c, 5, 59, 40
1, 25730, Note_on_c, 7, 59, 50
1, 25730, Pitch_bend_c, 6, 8384
1, 25731, Note_on_c, 5, 62, 30
1, 25731, Note_on_c, 7, 62, 40
1, 25732, Pitch_bend_c, 6, 8320
1, 25736, Pitch_bend_c, 6, 8288
1, 25739, Pitch_bend_c, 6, 12416
1, 25742, Pitch_bend_c, 6, 12448
1, 25745, Pitch_bend_c, 6, 12512
1, 25747, Pitch_bend_c, 6, 12544
1, 25749, Note_off_c, 0, 85, 64
1, 25751, Pitch_bend_c, 6, 12576
1, 25754, Pitch_bend_c, 6, 12608
1, 25761, Note_on_c, 0, 86, 100
1, 25762, Pitch_bend_c, 6, 12576
1, 25765, Note_off_c, 0, 91, 64
1, 25768, Pitch_bend_c, 6, 12544
1, 25774, Note_off_c, 5, 62, 64
1, 25774, Note_off_c, 7, 62, 64
1, 25777, Note_off_c, 5, 59, 64
1, 25777, Note_off_c, 7, 59, 64
1, 25778, Note_off_c, 5, 55, 64
1, 25778, Note_off_c, 7, 55, 64
1, 25791, Note_on_c, 0, 79, 101
1, 25792, Note_on_c, 9, 51, 88
1, 25793, Note_off_c, 9, 51, 64
1, 25797, Note_off_c, 2, 43, 64
1, 25797, Pitch_bend_c, 6, 12512
1, 25798, Note_off_c, 0, 86, 64
1, 25806, Pitch_bend_c, 6, 12480
1, 25814, Pitch_bend_c, 6, 12512
1, 25815, Note_off_c, 0, 79, 64
1, 25819, Note_off_c, 1, 31, 64
1, 25822, Note_on_c, 5, 55, 28
1, 25822, Note_on_c, 7, 55, 38
1, 25823, Note_on_c, 9, 51, 90
1, 25823, Note_on_c, 9, 38, 110
1, 25823, Note_on_c, 0, 79, 83
1, 25823, Note_on_c, 0, 86, 127
1, 25823, Note_on_c, 2, 46, 113
1, 25823, Note_on_c, 5, 59, 70
1, 25823, Note_on_c, 7, 59, 80
1, 25823, Pitch_bend_c, 6, 12544
1, 25824, Note_off_c, 9, 38, 64
1, 25824, Note_off_c, 9, 51, 64
1, 25824, Note_on_c, 1, 35, 85
1, 25825, Note_on_c, 5, 62, 83
1, 25825, Note_on_c, 7, 62, 93
1, 25826, Note_on_c, 5, 67, 56
1, 25826, Note_on_c, 7, 67, 66
1, 25826, Pitch_bend_c, 6, 12672
1, 25828, Pitch_bend_c, 6, 12704
1, 25831, Pitch_bend_c, 6, 12736
1, 25837, Pitch_bend_c, 6, 12576
1, 25840, Pitch_bend_c, 6, 12544
1, 25843, Note_off_c, 0, 86, 64
1, 25846, Pitch_bend_c, 6, 12512
1, 25847, Note_off_c, 6, 66, 64
1, 25847, Pitch_bend_c, 6, 12704
1, 25855, Note_on_c, 0, 85, 127
1, 25855, Pitch_bend_c, 6, 8192
1, 25856, Note_on_c, 6, 65, 108
1, 25856, Pitch_bend_c, 6, 9056
1, 25858, Pitch_bend_c, 6, 8960
1, 25863, Pitch_bend_c, 6, 8928
1, 25865, Pitch_bend_c, 6, 8864
1, 25869, Note_off_c, 0, 85, 64
1, 25869, Pitch_bend_c, 6, 8800
1, 25872, Pitch_bend_c, 6, 8736
1, 25873, Note_off_c, 0, 79, 64
1, 25875, Pitch_bend_c, 6, 8672
1, 25878, Pitch_bend_c, 6, 8608
1, 25880, Pitch_bend_c, 6, 8544
1, 25881, Note_off_c, 2, 46, 64
1, 25883, Pitch_bend_c, 6, 8416
1, 25884, Pitch_bend_c, 6, 8192
1, 25884, Note_on_c, 6, 62, 93
1, 25886, Note_on_c, 2, 47, 104
1, 25887, Note_on_c, 9, 51, 93
1, 25887, Note_on_c, 0, 79, 73
1, 25887, Note_on_c, 0, 84, 124
1, 25888, Note_off_c, 9, 51, 64
1, 25888, Note_off_c, 5, 59, 64
1, 25888, Note_off_c, 7, 59, 64
1, 25888, Note_off_c, 6, 65, 64
1, 25889, Note_on_c, 5, 59, 58
1, 25889, Note_on_c, 7, 59, 68
1, 25891, Pitch_bend_c, 6, 8512
1, 25895, Note_off_c, 5, 62, 64
1, 25895, Note_off_c, 7, 62, 64
1, 25896, Note_off_c, 5, 67, 64
1, 25896, Note_off_c, 7, 67, 64
1, 25899, Note_off_c, 5, 59, 64
1, 25899, Note_off_c, 7, 59, 64
1, 25900, Note_off_c, 5, 55, 64
1, 25900, Note_off_c, 7, 55, 64
1, 25900, Pitch_bend_c, 6, 8544
1, 25903, Pitch_bend_c, 6, 8576
1, 25908, Pitch_bend_c, 6, 8608
1, 25909, Note_off_c, 0, 84, 64
1, 25909, Note_off_c, 0, 79, 64
1, 25911, Pitch_bend_c, 6, 8640
1, 25914, Note_off_c, 6, 62, 64
1, 25917, Pitch_bend_c, 6, 8192
1, 25918, Note_off_c, 2, 47, 64
1, 25918, Note_on_c, 6, 60, 114
1, 25919, Note_on_c, 9, 51, 97
1, 25919, Note_on_c, 9, 35, 107
1, 25919, Note_on_c, 0, 82, 127
1, 25919, Note_on_c, 0, 79, 78
1, 25919, Note_on_c, 2, 50, 106
1, 25920, Note_off_c, 9, 35, 64
1, 25920, Note_off_c, 9, 51, 64
1, 25920, Note_off_c, 1, 35, 64
1, 25920, Note_on_c, 1, 38, 83
1, 25925, Note_off_c, 0, 79, 64
1, 25945, Note_off_c, 0, 82, 64
1, 25951, Note_on_c, 0, 79, 110
1, 25966, Note_off_c, 6, 60, 64
1, 25977, Note_off_c, 0, 79, 64
1, 25982, Note_off_c, 2, 50, 64
1, 25983, Note_on_c, 9, 51, 93
1, 25983, Note_on_c, 0, 79, 64
1, 25983, Note_on_c, 0, 82, 127
1, 25983, Note_on_c, 2, 50, 107
1, 25983, Note_on_c, 5, 55, 33
1, 25983, Note_on_c, 7, 55, 43
1, 25984, Note_off_c, 9, 51, 64
1, 26002, Note_off_c, 0, 79, 64
1, 26014, Note_off_c, 1, 38, 64
1, 26014, Note_off_c, 2, 50, 64
1, 26015, Note_on_c, 9, 51, 97
1, 26015, Note_on_c, 9, 38, 112
1, 26015, Note_on_c, 0, 79, 105
1, 26016, Note_off_c, 9, 38, 64
1, 26016, Note_off_c, 9, 51, 64
1, 26016, Note_on_c, 5, 59, 16
1, 26016, Note_on_c, 7, 59, 26
1, 26017, Note_on_c, 1, 40, 86
1, 26017, Note_off_c, 0, 82, 64
1, 26017, Note_on_c, 2, 52, 111
1, 26017, Note_on_c, 5, 62, 46
1, 26017, Note_on_c, 7, 62, 56
1, 26019, Note_on_c, 5, 67, 30
1, 26019, Note_on_c, 7, 67, 40
1, 26027, Note_off_c, 5, 67, 64
1, 26027, Note_off_c, 7, 67, 64
1, 26029, Note_off_c, 5, 62, 64
1, 26029, Note_off_c, 5, 55, 64
1, 26029, Note_off_c, 7, 62, 64
1, 26029, Note_off_c, 7, 55, 64
1, 26033, Note_off_c, 5, 59, 64
1, 26033, Note_off_c, 7, 59, 64
1, 26036, Note_off_c, 0, 79, 64
1, 26048, Note_on_c, 0, 79, 95
1, 26048, Note_on_c, 0, 82, 127
1, 26055, Note_off_c, 0, 79, 64
1, 26075, Note_off_c, 2, 52, 64
1, 26078, Note_on_c, 2, 52, 107
1, 26078, Note_on_c, 5, 55, 16
1, 26078, Note_on_c, 7, 55, 26
1, 26079, Note_on_c, 9, 51, 92
1, 26079, Note_off_c, 0, 82, 64
1, 26080, Note_off_c, 9, 51, 64
1, 26080, Note_on_c, 0, 79, 105
1, 26103, Note_off_c, 0, 79, 64
1, 26106, Note_off_c, 2, 52, 64
1, 26107, Note_off_c, 1, 40, 64
1, 26111, Note_on_c, 9, 51, 99
1, 26111, Note_on_c, 9, 35, 105
1, 26111, Note_on_c, 1, 43, 84
1, 26111, Note_on_c, 2, 55, 109
1, 26111, Note_on_c, 5, 59, 16
1, 26111, Note_on_c, 7, 59, 26
1, 26112, Note_off_c, 9, 35, 64
1, 26112, Note_off_c, 9, 51, 64
1, 26112, Note_on_c, 5, 62, 16
1, 26112, Note_on_c, 7, 62, 26
1, 26113, Note_on_c, 0, 82, 127
1, 26143, Note_off_c, 0, 82, 64
1, 26144, Note_on_c, 0, 79, 102
1, 26144, Note_on_c, 6, 70, 106
1, 26146, Note_on_c, 0, 62, 81
1, 26146, Note_on_c, 0, 55, 70
1, 26154, Note_off_c, 0, 55, 64
1, 26159, Note_off_c, 0, 62, 64
1, 26166, Note_off_c, 0, 79, 64
1, 26170, Note_off_c, 2, 55, 64
1, 26171, Note_off_c, 5, 55, 64
1, 26171, Note_off_c, 7, 55, 64
1, 26173, Note_on_c, 2, 55, 109
1, 26173, Pitch_bend_c, 6, 8864
1, 26175, Note_on_c, 9, 51, 96
1, 26175, Note_on_c, 0, 82, 127
1, 26176, Note_off_c, 9, 51, 64
1, 26176, Pitch_bend_c, 6, 8640
1, 26178, Note_on_c, 5, 55, 46
1, 26178, Note_on_c, 7, 55, 56
1, 26178, Pitch_bend_c, 6, 4704
1, 26181, Pitch_bend_c, 6, 4736
1, 26187, Pitch_bend_c, 6, 4768
1, 26190, Pitch_bend_c, 6, 4800
1, 26195, Pitch_bend_c, 6, 4768
1, 26199, Note_off_c, 1, 43, 64
1, 26199, Pitch_bend_c, 6, 4736
1, 26202, Note_off_c, 6, 70, 64
1, 26206, Note_on_c, 9, 38, 114
1, 26206, Note_on_c, 1, 40, 90
1, 26206, Note_off_c, 0, 82, 64
1, 26206, Note_on_c, 2, 52, 115
1, 26206, Note_off_c, 5, 62, 64
1, 26206, Note_off_c, 5, 59, 64
1, 26206, Note_off_c, 7, 62, 64
1, 26206, Note_off_c, 7, 59, 64
1, 26206, Pitch_bend_c, 6, 8192
1, 26207, Note_off_c, 9, 38, 64
1, 26207, Note_on_c, 9, 51, 90
1, 26207, Note_off_c, 2, 55, 64
1, 26207, Note_on_c, 5, 59, 59
1, 26207, Note_on_c, 5, 62, 70
1, 26207, Note_on_c, 7, 59, 69
1, 26207, Note_on_c, 7, 62, 80
1, 26207, Note_on_c, 6, 67, 96
1, 26208, Note_off_c, 9, 51, 64
1, 26209, Note_on_c, 0, 79, 104
1, 26213, Pitch_bend_c, 6, 8768
1, 26215, Pitch_bend_c, 6, 8800
1, 26218, Pitch_bend_c, 6, 8896
1, 26221, Pitch_bend_c, 6, 8960
1, 26224, Pitch_bend_c, 6, 8992
1, 26232, Note_off_c, 0, 79, 64
1, 26233, Pitch_bend_c, 6, 8960
1, 26236, Pitch_bend_c, 6, 8928
1, 26238, Pitch_bend_c, 6, 8896
1, 26240, Note_on_c, 0, 62, 98
1, 26240, Note_on_c, 0, 55, 93
1, 26241, Note_on_c, 0, 82, 127
1, 26241, Pitch_bend_c, 6, 8864
1, 26245, Pitch_bend_c, 6, 8800
1, 26247, Pitch_bend_c, 6, 8736
1, 26250, Note_off_c, 0, 62, 64
1, 26250, Pitch_bend_c, 6, 8704
1, 26253, Pitch_bend_c, 6, 8192
1, 26255, Pitch_bend_c, 6, 8864
1, 26256, Note_off_c, 0, 55, 64
1, 26256, Note_off_c, 6, 67, 64
1, 26266, Note_off_c, 2, 52, 64
1, 26267, Note_off_c, 5, 59, 64
1, 26267, Note_off_c, 7, 59, 64
1, 26269, Note_on_c, 2, 52, 104
1, 26269, Note_off_c, 5, 62, 64
1, 26269, Note_off_c, 7, 62, 64
1, 26270, Note_on_c, 5, 59, 65
1, 26270, Note_on_c, 7, 59, 75
1, 26271, Note_on_c, 9, 51, 92
1, 26271, Note_on_c, 5, 62, 84
1, 26271, Note_on_c, 7, 62, 94
1, 26272, Note_off_c, 9, 51, 64
1, 26273, Note_on_c, 0, 79, 101
1, 26273, Note_on_c, 5, 67, 38
1, 26273, Note_on_c, 7, 67, 48
1, 26278, Note_off_c, 0, 82, 64
1, 26284, Note_off_c, 5, 55, 64
1, 26284, Note_off_c, 7, 55, 64
1, 26290, Note_off_c, 5, 67, 64
1, 26290, Note_off_c, 7, 67, 64
1, 26292, Note_off_c, 5, 62, 64
1, 26292, Note_off_c, 7, 62, 64
1, 26293, Note_off_c, 0, 79, 64
1, 26293, Note_off_c, 5, 59, 64
1, 26293, Note_off_c, 7, 59, 64
1, 26294, Pitch_bend_c, 6, 8192
1, 26296, Note_on_c, 6, 67, 110
1, 26299, Note_off_c, 2, 52, 64
1, 26301, Note_on_c, 2, 50, 102
1, 26302, Note_on_c, 1, 38, 81
1, 26303, Note_on_c, 9, 51, 89
1, 26304, Note_off_c, 9, 51, 64
1, 26304, Note_on_c, 9, 35, 108
1, 26305, Note_off_c, 9, 35, 64
1, 26305, Note_on_c, 0, 82, 127
1, 26308, Note_off_c, 1, 40, 64
1, 26313, Pitch_bend_c, 6, 8608
1, 26316, Pitch_bend_c, 6, 8640
1, 26319, Pitch_bend_c, 6, 8608
1, 26322, Pitch_bend_c, 6, 8640
1, 26324, Pitch_bend_c, 6, 8608
1, 26327, Pitch_bend_c, 6, 288
1, 26334, Note_off_c, 0, 82, 64
1, 26336, Note_on_c, 0, 79, 108
1, 26337, Pitch_bend_c, 6, 320
1, 26339, Pitch_bend_c, 6, 352
1, 26343, Pitch_bend_c, 6, 384
1, 26351, Pitch_bend_c, 6, 416
1, 26359, Note_off_c, 0, 79, 64
1, 26359, Note_off_c, 2, 50, 64
1, 26359, Pitch_bend_c, 6, 384
1, 26361, Note_off_c, 6, 67, 64
1, 26362, Pitch_bend_c, 6, 8192
1, 26362, Note_on_c, 6, 62, 73
1, 26363, Note_on_c, 5, 55, 46
1, 26363, Note_on_c, 7, 55, 56
1, 26365, Note_on_c, 2, 50, 105
1, 26367, Note_on_c, 9, 51, 85
1, 26367, Note_on_c, 9, 38, 121
1, 26368, Note_off_c, 9, 38, 64
1, 26368, Note_off_c, 9, 51, 64
1, 26369, Note_on_c, 0, 82, 127
1, 26379, Pitch_bend_c, 6, 8576
1, 26382, Pitch_bend_c, 6, 8608
1, 26390, Pitch_bend_c, 6, 8640
1, 26395, Note_off_c, 0, 82, 64
1, 26395, Note_off_c, 6, 62, 64
1, 26398, Note_off_c, 2, 50, 64
1, 26398, Note_on_c, 5, 59, 61
1, 26398, Note_on_c, 7, 59, 71
1, 26399, Note_on_c, 9, 51, 97
1, 26399, Note_on_c, 2, 52, 112
1, 26399, Note_on_c, 5, 62, 86
1, 26399, Note_on_c, 7, 62, 96
1, 26400, Note_off_c, 9, 51, 64
1, 26400, Note_on_c, 5, 67, 72
1, 26400, Note_on_c, 7, 67, 82
1, 26400, Note_on_c, 6, 60, 73
1, 26400, Pitch_bend_c, 6, 8192
1, 26401, Note_on_c, 9, 38, 127
1, 26401, Note_on_c, 1, 35, 82
1, 26401, Note_on_c, 0, 79, 105
1, 26402, Note_off_c, 9, 38, 64
1, 26402, Pitch_bend_c, 6, 8608
1, 26405, Note_off_c, 1, 38, 64
1, 26416, Pitch_bend_c, 6, 8576
1, 26420, Pitch_bend_c, 6, 8512
1, 26422, Pitch_bend_c, 6, 8480
1, 26424, Note_off_c, 0, 79, 64
1, 26426, Pitch_bend_c, 6, 8384
1, 26428, Note_off_c, 6, 60, 64
1, 26428, Pitch_bend_c, 6, 8608
1, 26433, Note_on_c, 0, 82, 126
1, 26435, Note_off_c, 5, 67, 64
1, 26435, Note_off_c, 7, 67, 64
1, 26440, Note_off_c, 5, 55, 64
1, 26440, Note_off_c, 5, 59, 64
1, 26440, Note_off_c, 5, 62, 64
1, 26440, Note_off_c, 7, 55, 64
1, 26440, Note_off_c, 7, 59, 64
1, 26440, Note_off_c, 7, 62, 64
1, 26457, Note_off_c, 2, 52, 64
1, 26459, Note_off_c, 0, 82, 64
1, 26461, Note_on_c, 2, 52, 101
1, 26463, Note_on_c, 9, 51, 90
1, 26464, Note_off_c, 9, 51, 64
1, 26465, Note_on_c, 0, 79, 76
1, 26472, Note_off_c, 1, 35, 64
1, 26480, Note_off_c, 0, 79, 64
1, 26492, Pitch_bend_c, 6, 8192
1, 26493, Note_on_c, 6, 68, 107
1, 26494, Note_on_c, 2, 57, 104
1, 26494, Note_on_c, 5, 50, 50
1, 26494, Note_on_c, 7, 50, 60
1, 26495, Note_on_c, 9, 51, 90
1, 26495, Note_on_c, 0, 79, 110
1, 26495, Note_on_c, 0, 84, 127
1, 26495, Note_on_c, 5, 54, 56
1, 26495, Note_on_c, 7, 54, 66
1, 26495, Pitch_bend_c, 6, 8736
1, 26496, Note_off_c, 9, 51, 64
1, 26496, Note_on_c, 9, 35, 107
1, 26497, Note_off_c, 9, 35, 64
1, 26497, Note_on_c, 1, 38, 92
1, 26497, Note_on_c, 5, 60, 47
1, 26497, Note_on_c, 7, 60, 57
1, 26498, Note_on_c, 5, 62, 16
1, 26498, Note_on_c, 7, 62, 26
1, 26502, Note_off_c, 2, 52, 64
1, 26515, Pitch_bend_c, 6, 8768
1, 26520, Pitch_bend_c, 6, 8800
1, 26523, Pitch_bend_c, 6, 8864
1, 26526, Pitch_bend_c, 6, 8896
1, 26528, Pitch_bend_c, 6, 9024
1, 26532, Pitch_bend_c, 6, 9120
1, 26535, Pitch_bend_c, 6, 9248
1, 26538, Pitch_bend_c, 6, 9376
1, 26541, Pitch_bend_c, 6, 9472
1, 26544, Pitch_bend_c, 6, 9568
1, 26547, Pitch_bend_c, 6, 9664
1, 26549, Pitch_bend_c, 6, 9760
1, 26552, Pitch_bend_c, 6, 9856
1, 26553, Note_off_c, 0, 79, 64
1, 26555, Note_off_c, 2, 57, 64
1, 26555, Pitch_bend_c, 6, 9920
1, 26556, Note_off_c, 0, 84, 64
1, 26558, Pitch_bend_c, 6, 10016
1, 26559, Note_on_c, 9, 51, 94
1, 26560, Note_off_c, 9, 51, 64
1, 26561, Note_on_c, 0, 84, 108
1, 26561, Note_on_c, 0, 79, 118
1, 26561, Pitch_bend_c, 6, 10080
1, 26564, Pitch_bend_c, 6, 10144
1, 26566, Pitch_bend_c, 6, 10240
1, 26570, Pitch_bend_c, 6, 10336
1, 26572, Pitch_bend_c, 6, 10432
1, 26575, Pitch_bend_c, 6, 10528
1, 26578, Pitch_bend_c, 6, 10624
1, 26580, Pitch_bend_c, 6, 10720
1, 26581, Note_off_c, 1, 38, 64
1, 26584, Pitch_bend_c, 6, 10816
1, 26587, Pitch_bend_c, 6, 10880
1, 26589, Note_off_c, 5, 60, 64
1, 26589, Note_off_c, 5, 50, 64
1, 26589, Note_off_c, 7, 60, 64
1, 26589, Note_off_c, 7, 50, 64
1, 26590, Note_on_c, 9, 38, 112
1, 26590, Note_on_c, 5, 50, 46
1, 26590, Note_on_c, 7, 50, 56
1, 26590, Pitch_bend_c, 6, 11008
1, 26591, Note_off_c, 9, 38, 64
1, 26591, Note_on_c, 9, 51, 93
1, 26591, Note_on_c, 2, 53, 113
1, 26592, Note_off_c, 9, 51, 64
1, 26593, Note_on_c, 1, 38, 91
1, 26593, Note_off_c, 0, 84, 64
1, 26593, Pitch_bend_c, 6, 11104
1, 26594, Note_off_c, 0, 79, 64
1, 26596, Note_on_c, 5, 60, 46
1, 26596, Note_on_c, 7, 60, 56
1, 26596, Pitch_bend_c, 6, 11200
1, 26598, Note_off_c, 5, 62, 64
1, 26598, Note_off_c, 7, 62, 64
1, 26599, Pitch_bend_c, 6, 11328
1, 26601, Pitch_bend_c, 6, 11424
1, 26604, Pitch_bend_c, 6, 11552
1, 26607, Pitch_bend_c, 6, 11680
1, 26610, Pitch_bend_c, 6, 11776
1, 26613, Pitch_bend_c, 6, 11904
1, 26616, Pitch_bend_c, 6, 12032
1, 26618, Pitch_bend_c, 6, 12096
1, 26619, Note_off_c, 2, 53, 64
1, 26621, Pitch_bend_c, 6, 12160
1, 26622, Note_on_c, 2, 54, 95
1, 26625, Pitch_bend_c, 6, 12192
1, 26628, Pitch_bend_c, 6, 12224
1, 26652, Note_on_c, 2, 57, 108
1, 26653, Note_off_c, 2, 54, 64
1, 26655, Note_on_c, 9, 51, 94
1, 26656, Note_off_c, 9, 51, 64
1, 26656, Note_off_c, 5, 60, 64
1, 26656, Note_off_c, 7, 60, 64
1, 26656, Pitch_bend_c, 6, 12192
1, 26657, Note_on_c, 0, 79, 127
1, 26657, Note_on_c, 0, 84, 127
1, 26661, Note_off_c, 5, 50, 64
1, 26661, Note_off_c, 7, 50, 64
1, 26665, Pitch_bend_c, 6, 12224
1, 26669, Note_off_c, 5, 54, 64
1, 26669, Note_off_c, 7, 54, 64
1, 26677, Note_off_c, 1, 38, 64
1, 26679, Note_off_c, 0, 79, 64
1, 26682, Note_off_c, 2, 57, 64
1, 26682, Pitch_bend_c, 6, 12192
1, 26687, Note_on_c, 9, 51, 97
1, 26687, Note_on_c, 9, 35, 107
1, 26687, Note_on_c, 1, 38, 90
1, 26687, Note_on_c, 2, 59, 111
1, 26688, Note_off_c, 9, 35, 64
1, 26688, Note_off_c, 9, 51, 64
1, 26689, Note_on_c, 0, 81, 90
1, 26694, Note_on_c, 5, 60, 60
1, 26694, Note_on_c, 7, 60, 70
1, 26695, Note_on_c, 5, 62, 63
1, 26695, Note_on_c, 7, 62, 73
1, 26716, Note_off_c, 2, 59, 64
1, 26718, Note_on_c, 2, 57, 87
1, 26720, Pitch_bend_c, 6, 12160
1, 26732, Pitch_bend_c, 6, 12192
1, 26742, Note_off_c, 5, 60, 64
1, 26742, Note_off_c, 7, 60, 64
1, 26744, Note_off_c, 0, 84, 64
1, 26745, Note_off_c, 2, 57, 64
1, 26746, Note_off_c, 5, 62, 64
1, 26746, Note_off_c, 7, 62, 64
1, 26749, Note_off_c, 0, 81, 64
1, 26750, Note_on_c, 2, 59, 105
1, 26751, Note_on_c, 9, 51, 89
1, 26752, Note_off_c, 9, 51, 64
1, 26769, Note_off_c, 1, 38, 64
1, 26778, Pitch_bend_c, 6, 12160
1, 26780, Note_off_c, 2, 59, 64
1, 26782, Note_on_c, 9, 38, 112
1, 26783, Note_off_c, 9, 38, 64
1, 26783, Note_on_c, 9, 51, 90
1, 26783, Note_on_c, 1, 38, 94
1, 26783, Note_on_c, 0, 81, 127
1, 26783, Note_on_c, 0, 84, 127
1, 26783, Note_on_c, 2, 57, 115
1, 26784, Note_off_c, 9, 51, 64
1, 26784, Note_on_c, 5, 54, 55
1, 26784, Note_on_c, 7, 54, 65
1, 26785, Note_on_c, 5, 60, 73
1, 26785, Note_on_c, 7, 60, 83
1, 26787, Note_on_c, 5, 62, 63
1, 26787, Note_on_c, 7, 62, 73
1, 26792, Pitch_bend_c, 6, 12192
1, 26797, Pitch_bend_c, 6, 12224
1, 26809, Pitch_bend_c, 6, 12192
1, 26812, Pitch_bend_c, 6, 12224
1, 26816, Pitch_bend_c, 6, 12192
1, 26831, Note_off_c, 0, 81, 64
1, 26835, Pitch_bend_c, 6, 12160
1, 26836, Note_off_c, 5, 62, 64
1, 26836, Note_off_c, 7, 62, 64
1, 26838, Pitch_bend_c, 6, 12128
1, 26839, Note_off_c, 0, 84, 64
1, 26841, Pitch_bend_c, 6, 12096
1, 26842, Note_off_c, 2, 57, 64
1, 26842, Note_off_c, 5, 54, 64
1, 26842, Note_off_c, 7, 54, 64
1, 26844, Pitch_bend_c, 6, 12000
1, 26845, Note_off_c, 5, 60, 64
1, 26845, Note_off_c, 7, 60, 64
1, 26847, Note_on_c, 9, 51, 93
1, 26847, Note_on_c, 0, 84, 61
1, 26847, Note_on_c, 0, 81, 90
1, 26847, Note_on_c, 2, 54, 111
1, 26847, Pitch_bend_c, 6, 11872
1, 26848, Note_off_c, 9, 51, 64
1, 26848, Note_off_c, 6, 68, 64
1, 26848, Pitch_bend_c, 6, 12160
1, 26864, Note_off_c, 0, 81, 64
1, 26864, Note_off_c, 0, 84, 64
1, 26874, Note_off_c, 1, 38, 64
1, 26875, Pitch_bend_c, 6, 8192
1, 26879, Note_on_c, 9, 51, 94
1, 26879, Note_on_c, 9, 35, 107
1, 26879, Note_on_c, 1, 36, 92
1, 26879, Note_on_c, 0, 84, 98
1, 26879, Note_on_c, 0, 79, 110
1, 26879, Note_on_c, 5, 52, 35
1, 26879, Note_on_c, 7, 52, 45
1, 26880, Note_off_c, 9, 35, 64
1, 26880, Note_off_c, 9, 51, 64
1, 26880, Note_off_c, 2, 54, 64
1, 26880, Note_on_c, 2, 48, 115
1, 26880, Note_on_c, 5, 58, 46
1, 26880, Note_on_c, 7, 58, 56
1, 26880, Note_on_c, 6, 65, 110
1, 26886, Pitch_bend_c, 6, 8960
1, 26889, Pitch_bend_c, 6, 8928
1, 26891, Pitch_bend_c, 6, 8896
1, 26895, Pitch_bend_c, 6, 8800
1, 26897, Pitch_bend_c, 6, 8736
1, 26903, Pitch_bend_c, 6, 8800
1, 26906, Pitch_bend_c, 6, 8864
1, 26909, Pitch_bend_c, 6, 8928
1, 26917, Pitch_bend_c, 6, 8896
1, 26925, Note_off_c, 0, 79, 64
1, 26935, Pitch_bend_c, 6, 9088
1, 26938, Pitch_bend_c, 6, 9280
1, 26939, Note_off_c, 0, 84, 64
1, 26939, Note_off_c, 2, 48, 64
1, 26940, Pitch_bend_c, 6, 9504
1, 26943, Note_on_c, 0, 79, 53
1, 26943, Note_on_c, 0, 76, 97
1, 26944, Note_on_c, 9, 51, 97
1, 26944, Pitch_bend_c, 6, 9728
1, 26945, Note_off_c, 9, 51, 64
1, 26947, Pitch_bend_c, 6, 9792
1, 26948, Note_off_c, 5, 52, 64
1, 26948, Note_off_c, 7, 52, 64
1, 26950, Pitch_bend_c, 6, 9888
1, 26951, Note_off_c, 0, 79, 64
1, 26952, Note_off_c, 0, 76, 64
1, 26952, Pitch_bend_c, 6, 9920
1, 26955, Note_off_c, 5, 58, 64
1, 26955, Note_off_c, 7, 58, 64
1, 26955, Pitch_bend_c, 6, 10016
1, 26958, Pitch_bend_c, 6, 10080
1, 26960, Pitch_bend_c, 6, 10144
1, 26963, Note_off_c, 1, 36, 64
1, 26963, Pitch_bend_c, 6, 10176
1, 26969, Pitch_bend_c, 6, 10144
1, 26974, Note_on_c, 9, 38, 112
1, 26974, Note_on_c, 5, 48, 35
1, 26974, Note_on_c, 7, 48, 45
1, 26975, Note_off_c, 9, 38, 64
1, 26975, Note_on_c, 1, 36, 89
1, 26975, Note_on_c, 0, 79, 127
1, 26975, Note_on_c, 0, 76, 127
1, 26975, Note_on_c, 2, 51, 120
1, 26976, Note_on_c, 9, 51, 96
1, 26976, Note_on_c, 5, 52, 70
1, 26976, Note_on_c, 7, 52, 80
1, 26977, Note_off_c, 9, 51, 64
1, 26977, Note_on_c, 5, 58, 54
1, 26977, Note_on_c, 7, 58, 64
1, 26978, Note_on_c, 5, 60, 26
1, 26978, Note_on_c, 7, 60, 36
1, 26978, Pitch_bend_c, 6, 10176
1, 26981, Pitch_bend_c, 6, 10304
1, 26984, Pitch_bend_c, 6, 10464
1, 26987, Pitch_bend_c, 6, 10656
1, 26989, Pitch_bend_c, 6, 10848
1, 26992, Pitch_bend_c, 6, 10944
1, 26995, Pitch_bend_c, 6, 11040
1, 26998, Pitch_bend_c, 6, 11072
1, 27001, Pitch_bend_c, 6, 11136
1, 27003, Note_off_c, 2, 51, 64
1, 27004, Pitch_bend_c, 6, 11168
1, 27006, Note_on_c, 2, 52, 113
1, 27006, Pitch_bend_c, 6, 11264
1, 27009, Pitch_bend_c, 6, 11360
1, 27012, Pitch_bend_c, 6, 11456
1, 27015, Pitch_bend_c, 6, 11584
1, 27019, Pitch_bend_c, 6, 11744
1, 27021, Pitch_bend_c, 6, 11872
1, 27024, Pitch_bend_c, 6, 12032
1, 27027, Pitch_bend_c, 6, 12160
1, 27030, Pitch_bend_c, 6, 12288
1, 27033, Pitch_bend_c, 6, 12352
1, 27035, Note_off_c, 2, 52, 64
1, 27036, Pitch_bend_c, 6, 12416
1, 27037, Note_on_c, 2, 55, 109
1, 27038, Note_off_c, 0, 79, 64
1, 27039, Pitch_bend_c, 6, 12448
1, 27041, Note_on_c, 9, 51, 92
1, 27041, Note_off_c, 0, 76, 64
1, 27041, Note_on_c, 0, 72, 80
1, 27042, Note_off_c, 9, 51, 64
1, 27054, Note_off_c, 0, 72, 64
1, 27068, Note_off_c, 2, 55, 64
1, 27070, Note_on_c, 2, 57, 115
1, 27070, Note_off_c, 5, 58, 64
1, 27070, Note_off_c, 7, 58, 64
1, 27070, Pitch_bend_c, 6, 12416
1, 27071, Note_on_c, 9, 35, 107
1, 27071, Note_on_c, 0, 72, 101
1, 27071, Note_on_c, 0, 81, 127
1, 27071, Note_on_c, 0, 77, 127
1, 27071, Note_on_c, 5, 58, 59
1, 27071, Note_on_c, 7, 58, 69
1, 27072, Note_off_c, 9, 35, 64
1, 27073, Note_on_c, 9, 51, 100
1, 27073, Note_on_c, 1, 40, 91
1, 27074, Note_off_c, 9, 51, 64
1, 27075, Note_off_c, 1, 36, 64
1, 27075, Pitch_bend_c, 6, 12384
1, 27096, Pitch_bend_c, 6, 12416
1, 27104, Pitch_bend_c, 6, 12448
1, 27112, Note_off_c, 0, 72, 64
1, 27113, Note_off_c, 0, 77, 64
1, 27114, Note_off_c, 0, 81, 64
1, 27122, Pitch_bend_c, 6, 12480
1, 27128, Note_off_c, 2, 57, 64
1, 27128, Pitch_bend_c, 6, 12512
1, 27134, Note_on_c, 2, 55, 105
1, 27135, Note_on_c, 0, 81, 102
1, 27135, Note_on_c, 0, 77, 107
1, 27135, Note_on_c, 0, 72, 89
1, 27137, Note_on_c, 9, 51, 93
1, 27138, Note_off_c, 9, 51, 64
1, 27139, Pitch_bend_c, 6, 12544
1, 27157, Note_off_c, 0, 81, 64
1, 27162, Note_off_c, 1, 40, 64
1, 27162, Note_off_c, 0, 77, 64
1, 27162, Pitch_bend_c, 6, 12512
1, 27164, Note_off_c, 5, 58, 64
1, 27164, Note_off_c, 7, 58, 64
1, 27165, Note_off_c, 2, 55, 64
1, 27165, Note_off_c, 5, 60, 64
1, 27165, Note_off_c, 7, 60, 64
1, 27165, Pitch_bend_c, 6, 12480
1, 27166, Note_on_c, 5, 58, 72
1, 27166, Note_on_c, 7, 58, 82
1, 27167, Note_on_c, 9, 38, 116
1, 27167, Pitch_bend_c, 6, 12416
1, 27168, Note_off_c, 9, 38, 64
1, 27168, Note_on_c, 1, 41, 85
1, 27168, Note_on_c, 2, 53, 118
1, 27168, Note_on_c, 5, 60, 84
1, 27168, Note_on_c, 7, 60, 94
1, 27169, Note_on_c, 9, 51, 97
1, 27169, Note_on_c, 0, 79, 75
1, 27169, Note_on_c, 0, 76, 64
1, 27170, Note_off_c, 9, 51, 64
1, 27171, Pitch_bend_c, 6, 12224
1, 27173, Pitch_bend_c, 6, 11904
1, 27176, Pitch_bend_c, 6, 11520
1, 27179, Pitch_bend_c, 6, 11136
1, 27182, Pitch_bend_c, 6, 10752
1, 27185, Pitch_bend_c, 6, 10464
1, 27188, Pitch_bend_c, 6, 10112
1, 27190, Pitch_bend_c, 6, 9760
1, 27193, Pitch_bend_c, 6, 9472
1, 27197, Pitch_bend_c, 6, 9280
1, 27200, Pitch_bend_c, 6, 9152
1, 27201, Note_off_c, 0, 76, 64
1, 27202, Pitch_bend_c, 6, 9088
1, 27205, Pitch_bend_c, 6, 9024
1, 27207, Note_off_c, 0, 79, 64
1, 27208, Note_off_c, 0, 72, 64
1, 27208, Pitch_bend_c, 6, 4896
1, 27211, Note_off_c, 5, 48, 64
1, 27211, Note_off_c, 7, 48, 64
1, 27211, Pitch_bend_c, 6, 4800
1, 27214, Note_off_c, 6, 65, 64
1, 27214, Pitch_bend_c, 6, 4736
1, 27217, Pitch_bend_c, 6, 8192
1, 27219, Note_on_c, 6, 62, 112
1, 27220, Note_off_c, 5, 58, 64
1, 27220, Note_off_c, 7, 58, 64
1, 27220, Pitch_bend_c, 6, 8512
1, 27221, Note_off_c, 5, 60, 64
1, 27221, Note_off_c, 7, 60, 64
1, 27224, Note_off_c, 2, 53, 64
1, 27229, Note_off_c, 5, 52, 64
1, 27229, Note_off_c, 7, 52, 64
1, 27230, Note_on_c, 2, 55, 110
1, 27230, Pitch_bend_c, 6, 8448
1, 27231, Note_on_c, 9, 51, 83
1, 27232, Note_off_c, 9, 51, 64
1, 27232, Note_on_c, 0, 79, 76
1, 27232, Note_on_c, 0, 76, 71
1, 27233, Note_on_c, 0, 72, 70
1, 27233, Pitch_bend_c, 6, 8416
1, 27236, Pitch_bend_c, 6, 8384
1, 27239, Pitch_bend_c, 6, 8320
1, 27242, Note_off_c, 0, 76, 64
1, 27242, Note_off_c, 0, 79, 64
1, 27242, Pitch_bend_c, 6, 8192
1, 27244, Pitch_bend_c, 6, 8096
1, 27245, Note_off_c, 0, 72, 64
1, 27246, Note_off_c, 6, 62, 64
1, 27246, Pitch_bend_c, 6, 8416
1, 27252, Note_off_c, 1, 41, 64
1, 27260, Note_off_c, 2, 55, 64
1, 27261, Pitch_bend_c, 6, 8192
1, 27263, Note_on_c, 9, 51, 99
1, 27263, Note_on_c, 9, 35, 107
1, 27263, Note_on_c, 1, 43, 98
1, 27264, Note_off_c, 9, 35, 64
1, 27264, Note_off_c, 9, 51, 64
1, 27264, Note_on_c, 2, 43, 115
1, 27264, Note_on_c, 6, 62, 88
1, 27264, Note_on_c, 6, 67, 99
1, 27265, Note_on_c, 0, 77, 127
1, 27265, Note_on_c, 0, 73, 127
1, 27265, Note_on_c, 5, 59, 56
1, 27265, Note_on_c, 7, 59, 66
1, 27266, Note_on_c, 5, 62, 80
1, 27266, Note_on_c, 7, 62, 90
1, 27267, Note_on_c, 5, 67, 56
1, 27267, Note_on_c, 7, 67, 66
1, 27294, Note_off_c, 0, 73, 64
1, 27297, Note_on_c, 0, 74, 84
1, 27298, Note_off_c, 6, 67, 64
1, 27301, Note_off_c, 6, 62, 64
1, 27320, Note_on_c, 6, 78, 107
1, 27320, Pitch_bend_c, 6, 8128
1, 27321, Pitch_bend_c, 6, 8096
1, 27322, Pitch_bend_c, 6, 7968
1, 27323, Note_off_c, 0, 74, 64
1, 27326, Note_off_c, 0, 77, 64
1, 27326, Pitch_bend_c, 6, 7936
1, 27327, Note_on_c, 9, 51, 92
1, 27327, Note_on_c, 0, 67, 107
1, 27328, Note_off_c, 9, 51, 64
1, 27328, Note_on_c, 9, 38, 110
1, 27329, Note_off_c, 9, 38, 64
1, 27329, Pitch_bend_c, 6, 11424
1, 27331, Note_off_c, 2, 43, 64
1, 27331, Pitch_bend_c, 6, 11584
1, 27334, Pitch_bend_c, 6, 11776
1, 27337, Pitch_bend_c, 6, 11936
1, 27340, Pitch_bend_c, 6, 12032
1, 27343, Pitch_bend_c, 6, 12096
1, 27349, Pitch_bend_c, 6, 12032
1, 27350, Note_off_c, 0, 67, 64
1, 27353, Note_off_c, 1, 43, 64
1, 27354, Pitch_bend_c, 6, 12096
1, 27358, Note_on_c, 2, 49, 125
1, 27359, Note_on_c, 9, 51, 93
1, 27359, Note_on_c, 9, 38, 112
1, 27359, Note_on_c, 1, 38, 92
1, 27360, Note_off_c, 9, 38, 64
1, 27360, Note_off_c, 9, 51, 64
1, 27360, Note_on_c, 0, 67, 87
1, 27361, Note_on_c, 0, 74, 127
1, 27365, Note_off_c, 2, 49, 64
1, 27365, Note_on_c, 2, 50, 123
1, 27369, Pitch_bend_c, 6, 12032
1, 27377, Pitch_bend_c, 6, 11968
1, 27384, Note_off_c, 0, 74, 64
1, 27393, Note_on_c, 0, 73, 126
1, 27403, Pitch_bend_c, 6, 12032
1, 27410, Note_off_c, 0, 73, 64
1, 27415, Pitch_bend_c, 6, 11968
1, 27423, Note_on_c, 0, 72, 122
1, 27427, Note_on_c, 9, 38, 22
1, 27428, Note_off_c, 9, 38, 64
1, 27434, Note_on_c, 9, 38, 29
1, 27435, Note_off_c, 9, 38, 64
1, 27438, Pitch_bend_c, 6, 12032
1, 27440, Note_off_c, 1, 38, 64
1, 27440, Pitch_bend_c, 6, 12128
1, 27442, Note_on_c, 9, 38, 38
1, 27442, Note_off_c, 0, 67, 64
1, 27442, Note_off_c, 6, 78, 64
1, 27443, Note_off_c, 9, 38, 64
1, 27443, Note_off_c, 0, 72, 64
1, 27449, Note_on_c, 9, 38, 44
1, 27450, Note_off_c, 9, 38, 64
1, 27451, Note_off_c, 2, 50, 64
1, 27453, Pitch_bend_c, 6, 8192
1, 27455, Note_on_c, 9, 35, 108
1, 27455, Note_on_c, 1, 38, 91
1, 27455, Note_on_c, 6, 76, 103
1, 27456, Note_off_c, 9, 35, 64
1, 27456, Note_on_c, 9, 38, 106
1, 27456, Note_on_c, 0, 70, 127
1, 27457, Note_off_c, 9, 38, 64
1, 27457, Note_on_c, 2, 49, 122
1, 27464, Note_off_c, 2, 49, 64
1, 27464, Note_on_c, 2, 50, 109
1, 27484, Note_off_c, 0, 70, 64
1, 27489, Note_on_c, 0, 67, 80
1, 27505, Note_off_c, 6, 76, 64
1, 27507, Note_off_c, 0, 67, 64
1, 27516, Note_off_c, 2, 50, 64
1, 27519, Note_on_c, 0, 65, 110
1, 27521, Note_on_c, 2, 49, 108
1, 27523, Note_on_c, 6, 74, 93
1, 27531, Note_on_c, 9, 38, 28
1, 27532, Note_off_c, 9, 38, 64
1, 27536, Note_off_c, 0, 65, 64
1, 27538, Note_on_c, 9, 38, 45
1, 27538, Note_off_c, 1, 38, 64
1, 27539, Note_off_c, 9, 38, 64
1, 27545, Note_on_c, 9, 38, 61
1, 27546, Note_off_c, 9, 38, 64
1, 27546, Note_off_c, 5, 67, 64
1, 27546, Note_off_c, 7, 67, 64
1, 27547, Note_off_c, 5, 62, 64
1, 27547, Note_off_c, 7, 62, 64
1, 27549, Note_off_c, 2, 49, 64
1, 27550, Note_off_c, 5, 59, 64
1, 27550, Note_off_c, 7, 59, 64
1, 27551, Note_on_c, 1, 38, 95
1, 27551, Note_on_c, 0, 67, 127
1, 27551, Note_off_c, 6, 74, 64
1, 27553, Note_on_c, 9, 38, 94
1, 27553, Note_on_c, 2, 48, 117
1, 27554, Note_off_c, 9, 38, 64
1, 27558, Note_on_c, 6, 72, 103
1, 27585, Note_on_c, 0, 62, 80
1, 27589, Note_off_c, 0, 67, 64
1, 27605, Note_off_c, 0, 62, 64
1, 27606, Note_off_c, 2, 48, 64
1, 27610, Note_on_c, 6, 70, 88
1, 27617, Note_on_c, 0, 65, 96
1, 27617, Note_on_c, 0, 62, 60
1, 27621, Note_off_c, 1, 38, 64
1, 27622, Note_on_c, 9, 38, 26
1, 27623, Note_off_c, 9, 38, 64
1, 27628, Note_off_c, 0, 62, 64
1, 27628, Note_off_c, 6, 72, 64
1, 27631, Note_on_c, 9, 38, 46
1, 27631, Note_off_c, 0, 65, 64
1, 27632, Note_off_c, 9, 38, 64
1, 27639, Note_on_c, 9, 38, 56
1, 27640, Note_off_c, 9, 38, 64
1, 27646, Note_on_c, 1, 43, 102
1, 27646, Note_off_c, 6, 70, 64
1, 27647, Note_on_c, 2, 55, 127
1, 27648, Note_on_c, 9, 38, 99
1, 27649, Note_off_c, 9, 38, 64
1, 27649, Note_on_c, 0, 67, 127
1, 27649, Note_on_c, 0, 62, 127
1, 27651, Note_on_c, 5, 62, 72
1, 27651, Note_on_c, 7, 62, 82
1, 27651, Note_on_c, 6, 71, 106
1, 27653, Note_on_c, 5, 67, 99
1, 27653, Note_on_c, 7, 67, 109
1, 27686, Note_off_c, 5, 67, 64
1, 27686, Note_off_c, 7, 67, 64
1, 27687, Note_off_c, 2, 55, 64
1, 27687, Note_off_c, 5, 62, 64
1, 27687, Note_off_c, 7, 62, 64
1, 27691, Note_off_c, 6, 71, 64
1, 27692, Note_off_c, 1, 43, 64
1, 27693, Note_off_c, 0, 62, 64
1, 27693, Note_on_c, 2, 50, 97
1, 27696, Note_on_c, 9, 38, 84
1, 27696, Note_on_c, 1, 38, 95
1, 27696, Note_on_c, 0, 53, 104
1, 27697, Note_off_c, 9, 38, 64
1, 27697, Note_on_c, 9, 51, 94
1, 27697, Note_off_c, 0, 67, 64
1, 27697, Note_on_c, 0, 65, 118
1, 27698, Note_off_c, 9, 51, 64
1, 27705, Note_on_c, 5, 62, 80
1, 27705, Note_on_c, 7, 62, 90
1, 27725, Note_off_c, 0, 65, 64
1, 27728, Note_off_c, 0, 53, 64
1, 27734, Note_off_c, 1, 38, 64
1, 27739, Note_on_c, 6, 66, 102
1, 27739, Pitch_bend_c, 6, 8288
1, 27740, Note_off_c, 2, 50, 64
1, 27740, Pitch_bend_c, 6, 8832
1, 27741, Note_on_c, 2, 53, 113
1, 27743, Note_on_c, 9, 51, 86
1, 27743, Note_on_c, 9, 35, 104
1, 27743, Note_on_c, 1, 41, 101
1, 27744, Note_off_c, 9, 35, 64
1, 27744, Note_off_c, 9, 51, 64
1, 27744, Note_on_c, 9, 38, 87
1, 27744, Note_off_c, 5, 62, 64
1, 27744, Note_off_c, 7, 62, 64
1, 27744, Pitch_bend_c, 6, 8800
1, 27745, Note_off_c, 9, 38, 64
1, 27745, Note_on_c, 0, 53, 116
1, 27745, Note_on_c, 0, 65, 127
1, 27746, Note_on_c, 5, 64, 81
1, 27746, Note_on_c, 7, 64, 91
1, 27748, Pitch_bend_c, 6, 8704
1, 27750, Pitch_bend_c, 6, 8640
1, 27753, Pitch_bend_c, 6, 12512
1, 27756, Pitch_bend_c, 6, 12608
1, 27759, Pitch_bend_c, 6, 12640
1, 27761, Pitch_bend_c, 6, 12704
1, 27764, Pitch_bend_c, 6, 12736
1, 27767, Pitch_bend_c, 6, 12768
1, 27779, Note_off_c, 1, 41, 64
1, 27787, Note_off_c, 0, 65, 64
1, 27787, Note_off_c, 0, 53, 64
1, 27788, Pitch_bend_c, 6, 12800
1, 27790, Note_on_c, 2, 55, 124
1, 27791, Pitch_bend_c, 6, 12960
1, 27792, Note_on_c, 9, 38, 115
1, 27792, Note_off_c, 2, 53, 64
1, 27793, Note_off_c, 9, 38, 64
1, 27793, Note_on_c, 9, 51, 99
1, 27793, Note_on_c, 1, 43, 99
1, 27793, Note_on_c, 0, 67, 127
1, 27793, Note_on_c, 0, 55, 127
1, 27794, Note_off_c, 9, 51, 64
1, 27794, Note_off_c, 6, 66, 64
1, 27794, Pitch_bend_c, 6, 13088
1, 27795, Note_off_c, 5, 64, 64
1, 27795, Note_off_c, 7, 64, 64
1, 27800, Note_on_c, 5, 59, 76
1, 27800, Note_on_c, 7, 59, 86
1, 27800, Pitch_bend_c, 6, 8192
1, 27802, Note_on_c, 5, 62, 75
1, 27802, Note_on_c, 7, 62, 85
1, 27802, Note_on_c, 6, 66, 105
1, 27803, Note_on_c, 5, 67, 75
1, 27803, Note_on_c, 7, 67, 85
1, 27807, Note_on_c, 9, 35, 108
1, 27808, Note_off_c, 9, 35, 64
1, 27816, Pitch_bend_c, 6, 12512
1, 27819, Pitch_bend_c, 6, 12576
1, 27821, Pitch_bend_c, 6, 12608
1, 27824, Pitch_bend_c, 6, 12640
1, 27827, Pitch_bend_c, 6, 12704
1, 27832, Pitch_bend_c, 6, 12736
1, 27838, Pitch_bend_c, 6, 12704
1, 27850, Pitch_bend_c, 6, 12672
1, 27858, Pitch_bend_c, 6, 12640
1, 27862, Note_off_c, 1, 43, 64
1, 27882, Pitch_bend_c, 6, 12608
1, 27888, Pitch_bend_c, 6, 12576
1, 27891, Pitch_bend_c, 6, 12512
1, 27893, Pitch_bend_c, 6, 12480
1, 27899, Pitch_bend_c, 6, 12512
1, 27908, Pitch_bend_c, 6, 12416
1, 27919, Pitch_bend_c, 6, 12576
1, 27922, Pitch_bend_c, 6, 12608
1, 27927, Pitch_bend_c, 6, 12640
1, 27939, Note_on_c, 1, 31, 80
1, 27941, Note_off_c, 2, 55, 64
1, 27957, Pitch_bend_c, 6, 12608
1, 27968, Pitch_bend_c, 6, 12640
1, 27974, Pitch_bend_c, 6, 12608
1, 27979, Pitch_bend_c, 6, 12576
1, 27985, Pitch_bend_c, 6, 12512
1, 27988, Pitch_bend_c, 6, 12576
1, 27994, Pitch_bend_c, 6, 12608
1, 28002, Pitch_bend_c, 6, 12640
1, 28005, Pitch_bend_c, 6, 12672
1, 28020, Pitch_bend_c, 6, 12640
1, 28022, Pitch_bend_c, 6, 12672
1, 28031, Pitch_bend_c, 6, 12704
1, 28058, Pitch_bend_c, 6, 12672
1, 28061, Pitch_bend_c, 6, 12704
1, 28089, Pitch_bend_c, 6, 12672
1, 28095, Pitch_bend_c, 6, 12640
1, 28098, Pitch_bend_c, 6, 12608
1, 28103, Note_off_c, 6, 66, 64
1, 28143, Note_off_c, 0, 67, 64
1, 28145, Note_off_c, 0, 55, 64
1, 28225, Pitch_bend_c, 6, 8192
1, 28312, Note_off_c, 1, 31, 64
1, 28343, Note_off_c, 5, 62, 64
1, 28343, Note_off_c, 7, 62, 64
1, 28344, Note_off_c, 5, 67, 64
1, 28344, Note_off_c, 7, 67, 64
1, 28345, Note_off_c, 5, 59, 64
1, 28345, Note_off_c, 7, 59, 64
1, 28345, End_track
0, 0, End_of_file
