0, 0, Header, 1, 9, 96
1, 0, Start_track
1, 0, Key_signature, -2, "major"
1, 0, SMPTE_offset, 96, 0, 3, 0, 0
1, 0, System_exclusive, 5, 126, 127, 9, 1, 247
1, 0, Tempo, 1200000
1, 0, Time_signature, 4, 2, 24, 8
1, 758, Tempo, 1153846
1, 4788, Tempo, 1200000
1, 5128, Tempo, 1153846
1, 5276, Tempo, 1132075
1, 5448, Tempo, 1200000
1, 8494, Tempo, 1153846
1, 8817, Tempo, 1132075
1, 9754, Tempo, 1153846
1, 9860, Tempo, 1200000
1, 9938, Tempo, 1153846
1, 10000, Tempo, 1132075
1, 10107, Tempo, 1111111
1, 10236, Tempo, 1090909
1, 11336, Tempo, 1111111
1, 11572, Tempo, 1132075
1, 13033, Tempo, 1111111
1, 13113, Tempo, 1090909
1, 14075, Tempo, 1090909
1, 14535, Tempo, 1111111
1, 14562, Tempo, 1153846
1, 14594, Tempo, 1090909
1, 19051, Tempo, 1090909
1, 19129, Tempo, 1111111
1, 19166, Tempo, 1132075
1, 19196, Tempo, 1111111
1, 19235, Tempo, 1090909
1, 19288, Tempo, 1090909
1, 20674, Tempo, 1090909
1, 20753, Tempo, 1111111
1, 21112, Tempo, 1090909
1, 23554, Tempo, 1090909
1, 23658, Tempo, 1071428
1, 23730, Tempo, 1090909
1, 23751, Tempo, 1090909
1, 23765, Tempo, 1132075
1, 23800, Tempo, 1111111
1, 23866, Tempo, 1090909
1, 24146, Tempo, 1090909
1, 25141, Tempo, 1071428
1, 25288, Tempo, 1090909
1, 27855, Tempo, 1132075
1, 27940, Tempo, 1200000
1, 28089, Tempo, 1250000
1, 28130, Tempo, 1200000
1, 28204, Tempo, 1111111
1, 28305, Tempo, 1132075
1, 28378, Tempo, 1153846
1, 28378, End_track
2, 0, Start_track
2, 0, MIDI_port, 0
2, 0, Sequencer_specific, 7, 0, 0, 0, 106, 0, 4, 0
2, 0, Title_t, "\012"
2, 98, Program_c, 0, 26
2, 99, Control_c, 0, 7, 95
2, 99, Control_c, 0, 10, 64
2, 99, Control_c, 0, 11, 127
2, 100, Control_c, 0, 91, 67
2, 100, Control_c, 0, 93, 0
2, 677, Note_on_c, 0, 65, 114
2, 677, Pitch_bend_c, 0, 8448
2, 678, Control_c, 0, 1, 0
2, 682, Pitch_bend_c, 0, 8416
2, 683, Pitch_bend_c, 0, 8384
2, 685, Pitch_bend_c, 0, 8352
2, 686, Pitch_bend_c, 0, 8320
2, 687, Pitch_bend_c, 0, 8288
2, 690, Pitch_bend_c, 0, 8224
2, 691, Pitch_bend_c, 0, 8192
2, 695, Pitch_bend_c, 0, 8224
2, 696, Pitch_bend_c, 0, 8192
2, 700, Pitch_bend_c, 0, 8160
2, 705, Pitch_bend_c, 0, 8192
2, 706, Note_on_c, 0, 65, 0
2, 708, Note_on_c, 0, 67, 112
2, 709, Pitch_bend_c, 0, 8224
2, 712, Pitch_bend_c, 0, 8192
2, 727, Pitch_bend_c, 0, 8160
2, 729, Pitch_bend_c, 0, 8128
2, 730, Pitch_bend_c, 0, 8064
2, 731, Pitch_bend_c, 0, 8032
2, 732, Pitch_bend_c, 0, 8064
2, 734, Pitch_bend_c, 0, 7936
2, 735, Note_on_c, 0, 67, 0
2, 735, Pitch_bend_c, 0, 8064
2, 737, Note_on_c, 0, 70, 111
2, 737, Pitch_bend_c, 0, 7776
2, 738, Pitch_bend_c, 0, 7936
2, 739, Pitch_bend_c, 0, 8032
2, 740, Pitch_bend_c, 0, 8000
2, 743, Pitch_bend_c, 0, 7968
2, 744, Pitch_bend_c, 0, 7936
2, 746, Pitch_bend_c, 0, 7904
2, 747, Pitch_bend_c, 0, 7872
2, 748, Pitch_bend_c, 0, 7808
2, 749, Pitch_bend_c, 0, 7776
2, 755, Pitch_bend_c, 0, 7808
2, 756, Pitch_bend_c, 0, 7776
2, 757, Pitch_bend_c, 0, 7808
2, 759, Pitch_bend_c, 0, 7840
2, 761, Pitch_bend_c, 0, 7872
2, 762, Pitch_bend_c, 0, 16000
2, 764, Note_on_c, 0, 70, 0
2, 766, Pitch_bend_c, 0, 8192
2, 767, Note_on_c, 0, 72, 112
2, 768, Pitch_bend_c, 0, 8288
2, 771, Pitch_bend_c, 0, 8224
2, 772, Pitch_bend_c, 0, 8192
2, 775, Pitch_bend_c, 0, 8224
2, 776, Pitch_bend_c, 0, 8512
2, 777, Pitch_bend_c, 0, 9088
2, 779, Pitch_bend_c, 0, 11392
2, 780, Pitch_bend_c, 0, 11488
2, 781, Pitch_bend_c, 0, 11552
2, 783, Note_on_c, 0, 72, 0
2, 783, Pitch_bend_c, 0, 11648
2, 801, Note_on_c, 0, 70, 112
2, 801, Pitch_bend_c, 0, 8128
2, 802, Pitch_bend_c, 0, 8160
2, 806, Pitch_bend_c, 0, 8128
2, 807, Pitch_bend_c, 0, 16160
2, 810, Pitch_bend_c, 0, 16096
2, 813, Pitch_bend_c, 0, 16128
2, 814, Pitch_bend_c, 0, 7968
2, 816, Pitch_bend_c, 0, 8000
2, 819, Pitch_bend_c, 0, 8064
2, 820, Pitch_bend_c, 0, 8096
2, 821, Note_on_c, 0, 70, 0
2, 824, Pitch_bend_c, 0, 8192
2, 825, Note_on_c, 0, 67, 58
2, 825, Pitch_bend_c, 0, 8128
2, 826, Pitch_bend_c, 0, 8064
2, 830, Pitch_bend_c, 0, 8128
2, 832, Pitch_bend_c, 0, 8160
2, 833, Pitch_bend_c, 0, 8192
2, 834, Note_on_c, 0, 67, 0
2, 835, Note_on_c, 0, 70, 114
2, 836, Pitch_bend_c, 0, 8000
2, 843, Pitch_bend_c, 0, 8032
2, 846, Pitch_bend_c, 0, 8064
2, 848, Pitch_bend_c, 0, 8096
2, 849, Note_on_c, 0, 70, 0
2, 851, Pitch_bend_c, 0, 8192
2, 852, Note_on_c, 0, 72, 107
2, 852, Pitch_bend_c, 0, 8000
2, 853, Pitch_bend_c, 0, 7936
2, 861, Pitch_bend_c, 0, 7904
2, 862, Pitch_bend_c, 0, 7872
2, 863, Note_on_c, 0, 72, 0
2, 863, Pitch_bend_c, 0, 8000
2, 865, Pitch_bend_c, 0, 8192
2, 866, Note_on_c, 0, 70, 114
2, 866, Pitch_bend_c, 0, 8000
2, 880, Pitch_bend_c, 0, 7968
2, 883, Pitch_bend_c, 0, 7936
2, 885, Pitch_bend_c, 0, 7904
2, 887, Pitch_bend_c, 0, 7872
2, 888, Pitch_bend_c, 0, 7840
2, 889, Pitch_bend_c, 0, 7808
2, 890, Pitch_bend_c, 0, 7776
2, 894, Pitch_bend_c, 0, 7808
2, 897, Pitch_bend_c, 0, 7840
2, 906, Pitch_bend_c, 0, 7872
2, 910, Pitch_bend_c, 0, 7840
2, 915, Note_on_c, 0, 70, 0
2, 918, Note_on_c, 0, 73, 106
2, 918, Pitch_bend_c, 0, 8032
2, 919, Pitch_bend_c, 0, 7968
2, 922, Pitch_bend_c, 0, 8000
2, 924, Pitch_bend_c, 0, 7968
2, 925, Pitch_bend_c, 0, 7872
2, 926, Pitch_bend_c, 0, 7840
2, 927, Pitch_bend_c, 0, 7808
2, 929, Pitch_bend_c, 0, 7776
2, 934, Pitch_bend_c, 0, 7840
2, 935, Pitch_bend_c, 0, 7872
2, 938, Pitch_bend_c, 0, 7936
2, 939, Pitch_bend_c, 0, 7968
2, 943, Pitch_bend_c, 0, 8000
2, 944, Pitch_bend_c, 0, 8032
2, 947, Pitch_bend_c, 0, 8128
2, 948, Pitch_bend_c, 0, 8192
2, 950, Pitch_bend_c, 0, 8352
2, 951, Pitch_bend_c, 0, 8704
2, 952, Pitch_bend_c, 0, 9280
2, 953, Pitch_bend_c, 0, 10048
2, 955, Pitch_bend_c, 0, 10880
2, 956, Pitch_bend_c, 0, 11520
2, 957, Pitch_bend_c, 0, 11936
2, 958, Pitch_bend_c, 0, 12096
2, 960, Note_on_c, 0, 73, 0
2, 1213, Note_on_c, 0, 75, 116
2, 1213, Pitch_bend_c, 0, 8128
2, 1216, Pitch_bend_c, 0, 8032
2, 1217, Pitch_bend_c, 0, 8128
2, 1218, Pitch_bend_c, 0, 8160
2, 1221, Pitch_bend_c, 0, 8224
2, 1222, Pitch_bend_c, 0, 8256
2, 1223, Pitch_bend_c, 0, 8352
2, 1225, Pitch_bend_c, 0, 8480
2, 1226, Pitch_bend_c, 0, 8640
2, 1227, Pitch_bend_c, 0, 8800
2, 1229, Pitch_bend_c, 0, 8992
2, 1230, Pitch_bend_c, 0, 9184
2, 1231, Pitch_bend_c, 0, 9312
2, 1233, Pitch_bend_c, 0, 9408
2, 1234, Pitch_bend_c, 0, 9440
2, 1235, Pitch_bend_c, 0, 9536
2, 1236, Pitch_bend_c, 0, 8192
2, 1238, Pitch_bend_c, 0, 9664
2, 1242, Pitch_bend_c, 0, 9760
2, 1243, Pitch_bend_c, 0, 9920
2, 1245, Pitch_bend_c, 0, 10080
2, 1246, Pitch_bend_c, 0, 10304
2, 1247, Pitch_bend_c, 0, 10592
2, 1248, Pitch_bend_c, 0, 10848
2, 1250, Pitch_bend_c, 0, 11168
2, 1251, Pitch_bend_c, 0, 11552
2, 1252, Pitch_bend_c, 0, 11968
2, 1254, Pitch_bend_c, 0, 12384
2, 1255, Pitch_bend_c, 0, 12704
2, 1256, Pitch_bend_c, 0, 12960
2, 1257, Pitch_bend_c, 0, 13056
2, 1259, Pitch_bend_c, 0, 12992
2, 1260, Pitch_bend_c, 0, 12896
2, 1261, Note_on_c, 0, 75, 0
2, 1261, Pitch_bend_c, 0, 12960
2, 1286, Pitch_bend_c, 0, 8192
2, 1287, Note_on_c, 0, 75, 114
2, 1287, Pitch_bend_c, 0, 8064
2, 1290, Pitch_bend_c, 0, 8000
2, 1291, Pitch_bend_c, 0, 7904
2, 1292, Pitch_bend_c, 0, 7872
2, 1293, Pitch_bend_c, 0, 7808
2, 1295, Pitch_bend_c, 0, 7776
2, 1296, Pitch_bend_c, 0, 7744
2, 1297, Pitch_bend_c, 0, 7680
2, 1303, Pitch_bend_c, 0, 7744
2, 1304, Pitch_bend_c, 0, 7776
2, 1305, Pitch_bend_c, 0, 5216
2, 1306, Note_on_c, 0, 75, 0
2, 1306, Pitch_bend_c, 0, 7744
2, 1307, Pitch_bend_c, 0, 8192
2, 1308, Note_on_c, 0, 72, 111
2, 1308, Pitch_bend_c, 0, 12000
2, 1310, Pitch_bend_c, 0, 12032
2, 1314, Pitch_bend_c, 0, 12000
2, 1318, Pitch_bend_c, 0, 12032
2, 1321, Pitch_bend_c, 0, 12000
2, 1322, Pitch_bend_c, 0, 11936
2, 1323, Pitch_bend_c, 0, 12000
2, 1325, Pitch_bend_c, 0, 12032
2, 1326, Pitch_bend_c, 0, 11840
2, 1327, Note_on_c, 0, 72, 0
2, 1327, Pitch_bend_c, 0, 11936
2, 1343, Note_on_c, 0, 70, 104
2, 1343, Pitch_bend_c, 0, 8448
2, 1346, Pitch_bend_c, 0, 8480
2, 1350, Pitch_bend_c, 0, 8448
2, 1351, Pitch_bend_c, 0, 8416
2, 1352, Pitch_bend_c, 0, 8352
2, 1355, Pitch_bend_c, 0, 8320
2, 1356, Pitch_bend_c, 0, 8288
2, 1357, Pitch_bend_c, 0, 8224
2, 1360, Pitch_bend_c, 0, 8192
2, 1364, Pitch_bend_c, 0, 8256
2, 1365, Pitch_bend_c, 0, 8544
2, 1367, Pitch_bend_c, 0, 9120
2, 1368, Pitch_bend_c, 0, 9856
2, 1369, Pitch_bend_c, 0, 10496
2, 1371, Pitch_bend_c, 0, 10816
2, 1372, Pitch_bend_c, 0, 10592
2, 1373, Pitch_bend_c, 0, 8416
2, 1374, Pitch_bend_c, 0, 8320
2, 1376, Pitch_bend_c, 0, 8224
2, 1377, Pitch_bend_c, 0, 8160
2, 1378, Pitch_bend_c, 0, 8096
2, 1379, Pitch_bend_c, 0, 8160
2, 1381, Pitch_bend_c, 0, 8384
2, 1382, Pitch_bend_c, 0, 8800
2, 1383, Pitch_bend_c, 0, 9216
2, 1385, Pitch_bend_c, 0, 9600
2, 1386, Pitch_bend_c, 0, 9696
2, 1387, Pitch_bend_c, 0, 9408
2, 1389, Note_on_c, 0, 70, 0
2, 1389, Pitch_bend_c, 0, 9216
2, 1415, Pitch_bend_c, 0, 8192
2, 1416, Note_on_c, 0, 67, 112
2, 1420, Pitch_bend_c, 0, 8160
2, 1421, Pitch_bend_c, 0, 8128
2, 1423, Pitch_bend_c, 0, 8096
2, 1424, Pitch_bend_c, 0, 8128
2, 1425, Pitch_bend_c, 0, 8160
2, 1426, Pitch_bend_c, 0, 8064
2, 1427, Note_on_c, 0, 67, 0
2, 1427, Pitch_bend_c, 0, 8128
2, 1429, Pitch_bend_c, 0, 8192
2, 1430, Note_on_c, 0, 70, 93
2, 1430, Pitch_bend_c, 0, 8288
2, 1431, Pitch_bend_c, 0, 8384
2, 1434, Pitch_bend_c, 0, 8352
2, 1435, Pitch_bend_c, 0, 8288
2, 1436, Pitch_bend_c, 0, 8256
2, 1438, Note_on_c, 0, 70, 0
2, 1438, Pitch_bend_c, 0, 8416
2, 1445, Note_on_c, 0, 73, 113
2, 1445, Pitch_bend_c, 0, 8384
2, 1448, Pitch_bend_c, 0, 8288
2, 1449, Pitch_bend_c, 0, 8256
2, 1452, Pitch_bend_c, 0, 8224
2, 1453, Pitch_bend_c, 0, 8256
2, 1454, Pitch_bend_c, 0, 8288
2, 1456, Pitch_bend_c, 0, 8256
2, 1460, Pitch_bend_c, 0, 8288
2, 1464, Pitch_bend_c, 0, 8256
2, 1466, Pitch_bend_c, 0, 8224
2, 1468, Pitch_bend_c, 0, 8256
2, 1469, Pitch_bend_c, 0, 8512
2, 1470, Pitch_bend_c, 0, 8928
2, 1471, Pitch_bend_c, 0, 9664
2, 1473, Pitch_bend_c, 0, 10528
2, 1474, Pitch_bend_c, 0, 11232
2, 1475, Pitch_bend_c, 0, 11808
2, 1477, Pitch_bend_c, 0, 12128
2, 1478, Pitch_bend_c, 0, 12256
2, 1479, Pitch_bend_c, 0, 12352
2, 1481, Note_on_c, 0, 73, 0
2, 1496, Pitch_bend_c, 0, 8192
2, 1497, Note_on_c, 0, 75, 110
2, 1497, Pitch_bend_c, 0, 8352
2, 1499, Pitch_bend_c, 0, 8416
2, 1501, Pitch_bend_c, 0, 8352
2, 1502, Pitch_bend_c, 0, 8320
2, 1504, Pitch_bend_c, 0, 8256
2, 1505, Pitch_bend_c, 0, 8192
2, 1506, Pitch_bend_c, 0, 8128
2, 1507, Pitch_bend_c, 0, 8032
2, 1509, Pitch_bend_c, 0, 8000
2, 1510, Note_on_c, 0, 75, 0
2, 1510, Pitch_bend_c, 0, 8192
2, 1513, Note_on_c, 0, 73, 111
2, 1513, Pitch_bend_c, 0, 8032
2, 1516, Pitch_bend_c, 0, 8000
2, 1517, Pitch_bend_c, 0, 7968
2, 1520, Pitch_bend_c, 0, 7936
2, 1521, Pitch_bend_c, 0, 7968
2, 1522, Pitch_bend_c, 0, 7936
2, 1524, Pitch_bend_c, 0, 7968
2, 1526, Pitch_bend_c, 0, 8000
2, 1527, Pitch_bend_c, 0, 8032
2, 1529, Pitch_bend_c, 0, 8000
2, 1534, Pitch_bend_c, 0, 8032
2, 1536, Pitch_bend_c, 0, 8000
2, 1538, Pitch_bend_c, 0, 8032
2, 1539, Pitch_bend_c, 0, 8064
2, 1540, Pitch_bend_c, 0, 8128
2, 1542, Pitch_bend_c, 0, 8224
2, 1543, Pitch_bend_c, 0, 8256
2, 1544, Pitch_bend_c, 0, 8352
2, 1546, Pitch_bend_c, 0, 8384
2, 1547, Pitch_bend_c, 0, 8448
2, 1548, Pitch_bend_c, 0, 8544
2, 1549, Pitch_bend_c, 0, 8576
2, 1551, Pitch_bend_c, 0, 8672
2, 1552, Pitch_bend_c, 0, 8704
2, 1555, Pitch_bend_c, 0, 8736
2, 1556, Pitch_bend_c, 0, 8768
2, 1557, Pitch_bend_c, 0, 8832
2, 1559, Pitch_bend_c, 0, 8864
2, 1560, Pitch_bend_c, 0, 8992
2, 1561, Pitch_bend_c, 0, 9056
2, 1562, Pitch_bend_c, 0, 9184
2, 1564, Pitch_bend_c, 0, 9344
2, 1565, Pitch_bend_c, 0, 9472
2, 1566, Pitch_bend_c, 0, 9536
2, 1567, Pitch_bend_c, 0, 9632
2, 1569, Pitch_bend_c, 0, 9760
2, 1570, Pitch_bend_c, 0, 9856
2, 1571, Pitch_bend_c, 0, 10048
2, 1573, Pitch_bend_c, 0, 10208
2, 1574, Pitch_bend_c, 0, 10304
2, 1575, Pitch_bend_c, 0, 10400
2, 1576, Pitch_bend_c, 0, 10432
2, 1580, Pitch_bend_c, 0, 10400
2, 1585, Pitch_bend_c, 0, 10368
2, 1586, Pitch_bend_c, 0, 10304
2, 1587, Pitch_bend_c, 0, 10240
2, 1588, Pitch_bend_c, 0, 10048
2, 1590, Pitch_bend_c, 0, 9696
2, 1591, Pitch_bend_c, 0, 9440
2, 1592, Pitch_bend_c, 0, 9184
2, 1594, Pitch_bend_c, 0, 9056
2, 1596, Pitch_bend_c, 0, 9120
2, 1598, Pitch_bend_c, 0, 9152
2, 1599, Pitch_bend_c, 0, 9312
2, 1600, Pitch_bend_c, 0, 9664
2, 1602, Pitch_bend_c, 0, 10144
2, 1603, Pitch_bend_c, 0, 10688
2, 1604, Pitch_bend_c, 0, 11168
2, 1606, Pitch_bend_c, 0, 11392
2, 1607, Pitch_bend_c, 0, 11520
2, 1609, Pitch_bend_c, 0, 11456
2, 1611, Pitch_bend_c, 0, 11232
2, 1612, Pitch_bend_c, 0, 10720
2, 1613, Pitch_bend_c, 0, 10080
2, 1614, Pitch_bend_c, 0, 9472
2, 1616, Pitch_bend_c, 0, 8992
2, 1617, Pitch_bend_c, 0, 8896
2, 1620, Pitch_bend_c, 0, 9184
2, 1621, Pitch_bend_c, 0, 9664
2, 1622, Pitch_bend_c, 0, 10368
2, 1623, Pitch_bend_c, 0, 11072
2, 1625, Pitch_bend_c, 0, 11648
2, 1626, Pitch_bend_c, 0, 11936
2, 1628, Pitch_bend_c, 0, 12064
2, 1630, Pitch_bend_c, 0, 11840
2, 1631, Pitch_bend_c, 0, 11328
2, 1633, Pitch_bend_c, 0, 8896
2, 1634, Pitch_bend_c, 0, 8864
2, 1635, Pitch_bend_c, 0, 8768
2, 1637, Pitch_bend_c, 0, 8736
2, 1639, Note_on_c, 0, 73, 0
2, 1639, Pitch_bend_c, 0, 8896
2, 1703, Pitch_bend_c, 0, 8192
2, 1704, Note_on_c, 0, 76, 109
2, 1704, Pitch_bend_c, 0, 7712
2, 1705, Pitch_bend_c, 0, 7328
2, 1706, Pitch_bend_c, 0, 7488
2, 1707, Pitch_bend_c, 0, 7584
2, 1708, Pitch_bend_c, 0, 7712
2, 1709, Pitch_bend_c, 0, 7840
2, 1711, Pitch_bend_c, 0, 7936
2, 1712, Pitch_bend_c, 0, 8032
2, 1713, Pitch_bend_c, 0, 7968
2, 1714, Pitch_bend_c, 0, 7904
2, 1716, Pitch_bend_c, 0, 7712
2, 1717, Pitch_bend_c, 0, 7328
2, 1719, Pitch_bend_c, 0, 4736
2, 1720, Pitch_bend_c, 0, 4608
2, 1721, Pitch_bend_c, 0, 4352
2, 1723, Pitch_bend_c, 0, 4128
2, 1724, Pitch_bend_c, 0, 3904
2, 1725, Pitch_bend_c, 0, 3840
2, 1726, Pitch_bend_c, 0, 4352
2, 1727, Note_on_c, 0, 76, 0
2, 1729, Note_on_c, 0, 73, 106
2, 1729, Pitch_bend_c, 0, 8352
2, 1730, Pitch_bend_c, 0, 8192
2, 1731, Pitch_bend_c, 0, 8224
2, 1733, Pitch_bend_c, 0, 8256
2, 1734, Pitch_bend_c, 0, 8352
2, 1736, Pitch_bend_c, 0, 8384
2, 1737, Pitch_bend_c, 0, 8448
2, 1738, Note_on_c, 0, 73, 0
2, 1742, Note_on_c, 0, 70, 86
2, 1742, Pitch_bend_c, 0, 8192
2, 1743, Pitch_bend_c, 0, 8384
2, 1745, Pitch_bend_c, 0, 8352
2, 1748, Pitch_bend_c, 0, 8320
2, 1750, Pitch_bend_c, 0, 8288
2, 1751, Pitch_bend_c, 0, 8224
2, 1752, Pitch_bend_c, 0, 8192
2, 1755, Pitch_bend_c, 0, 8224
2, 1756, Pitch_bend_c, 0, 8256
2, 1757, Pitch_bend_c, 0, 8288
2, 1759, Pitch_bend_c, 0, 8544
2, 1760, Pitch_bend_c, 0, 9152
2, 1762, Pitch_bend_c, 0, 11392
2, 1763, Pitch_bend_c, 0, 11424
2, 1764, Pitch_bend_c, 0, 11392
2, 1766, Pitch_bend_c, 0, 11040
2, 1767, Pitch_bend_c, 0, 8832
2, 1768, Pitch_bend_c, 0, 8800
2, 1769, Pitch_bend_c, 0, 8672
2, 1771, Pitch_bend_c, 0, 8544
2, 1772, Pitch_bend_c, 0, 8448
2, 1773, Pitch_bend_c, 0, 8416
2, 1775, Pitch_bend_c, 0, 8640
2, 1776, Pitch_bend_c, 0, 9120
2, 1777, Pitch_bend_c, 0, 9696
2, 1778, Pitch_bend_c, 0, 10336
2, 1780, Pitch_bend_c, 0, 10880
2, 1781, Pitch_bend_c, 0, 11264
2, 1782, Pitch_bend_c, 0, 11584
2, 1784, Pitch_bend_c, 0, 11776
2, 1785, Pitch_bend_c, 0, 11872
2, 1786, Pitch_bend_c, 0, 11840
2, 1787, Pitch_bend_c, 0, 11328
2, 1789, Pitch_bend_c, 0, 8640
2, 1790, Note_on_c, 0, 70, 0
2, 1790, Pitch_bend_c, 0, 11872
2, 1793, Note_on_c, 0, 73, 105
2, 1793, Pitch_bend_c, 0, 8160
2, 1794, Pitch_bend_c, 0, 8192
2, 1800, Pitch_bend_c, 0, 8160
2, 1801, Pitch_bend_c, 0, 8128
2, 1802, Pitch_bend_c, 0, 8064
2, 1804, Pitch_bend_c, 0, 8160
2, 1805, Pitch_bend_c, 0, 8352
2, 1806, Pitch_bend_c, 0, 8608
2, 1808, Pitch_bend_c, 0, 8928
2, 1809, Note_on_c, 0, 73, 0
2, 1809, Pitch_bend_c, 0, 9024
2, 1812, Note_on_c, 0, 75, 105
2, 1812, Pitch_bend_c, 0, 8192
2, 1813, Pitch_bend_c, 0, 8256
2, 1817, Pitch_bend_c, 0, 8320
2, 1822, Pitch_bend_c, 0, 8256
2, 1824, Pitch_bend_c, 0, 8224
2, 1825, Pitch_bend_c, 0, 8192
2, 1826, Pitch_bend_c, 0, 8128
2, 1827, Note_on_c, 0, 75, 0
2, 1827, Pitch_bend_c, 0, 8320
2, 1830, Note_on_c, 0, 73, 107
2, 1830, Pitch_bend_c, 0, 8064
2, 1839, Pitch_bend_c, 0, 8000
2, 1840, Pitch_bend_c, 0, 7936
2, 1843, Pitch_bend_c, 0, 7968
2, 1845, Pitch_bend_c, 0, 8032
2, 1846, Pitch_bend_c, 0, 8128
2, 1847, Pitch_bend_c, 0, 8224
2, 1848, Pitch_bend_c, 0, 8416
2, 1850, Pitch_bend_c, 0, 8832
2, 1851, Pitch_bend_c, 0, 9280
2, 1852, Pitch_bend_c, 0, 9696
2, 1854, Pitch_bend_c, 0, 10080
2, 1855, Pitch_bend_c, 0, 10208
2, 1856, Pitch_bend_c, 0, 10048
2, 1857, Pitch_bend_c, 0, 9760
2, 1859, Pitch_bend_c, 0, 9376
2, 1860, Pitch_bend_c, 0, 8992
2, 1861, Pitch_bend_c, 0, 8768
2, 1862, Note_on_c, 0, 73, 0
2, 1862, Pitch_bend_c, 0, 10048
2, 1864, Pitch_bend_c, 0, 8192
2, 1865, Note_on_c, 0, 70, 90
2, 1865, Pitch_bend_c, 0, 8512
2, 1866, Pitch_bend_c, 0, 8480
2, 1869, Pitch_bend_c, 0, 8448
2, 1870, Pitch_bend_c, 0, 8416
2, 1871, Pitch_bend_c, 0, 8352
2, 1873, Pitch_bend_c, 0, 8320
2, 1874, Pitch_bend_c, 0, 8256
2, 1877, Pitch_bend_c, 0, 8224
2, 1879, Pitch_bend_c, 0, 8192
2, 1881, Pitch_bend_c, 0, 8160
2, 1882, Pitch_bend_c, 0, 8096
2, 1885, Pitch_bend_c, 0, 8160
2, 1886, Pitch_bend_c, 0, 8224
2, 1887, Pitch_bend_c, 0, 8288
2, 1889, Pitch_bend_c, 0, 8320
2, 1890, Note_on_c, 0, 70, 0
2, 1890, Pitch_bend_c, 0, 8192
2, 1891, Note_on_c, 0, 73, 108
2, 1891, Pitch_bend_c, 0, 7744
2, 1892, Pitch_bend_c, 0, 7968
2, 1897, Pitch_bend_c, 0, 7936
2, 1898, Pitch_bend_c, 0, 7808
2, 1900, Pitch_bend_c, 0, 7776
2, 1904, Pitch_bend_c, 0, 7872
2, 1905, Pitch_bend_c, 0, 7936
2, 1906, Pitch_bend_c, 0, 7968
2, 1914, Pitch_bend_c, 0, 8000
2, 1915, Pitch_bend_c, 0, 8032
2, 1916, Pitch_bend_c, 0, 8128
2, 1918, Pitch_bend_c, 0, 8192
2, 1919, Pitch_bend_c, 0, 8224
2, 1920, Pitch_bend_c, 0, 8288
2, 1922, Pitch_bend_c, 0, 8352
2, 1923, Pitch_bend_c, 0, 8448
2, 1924, Pitch_bend_c, 0, 8544
2, 1926, Pitch_bend_c, 0, 8672
2, 1927, Pitch_bend_c, 0, 8736
2, 1928, Pitch_bend_c, 0, 8832
2, 1930, Pitch_bend_c, 0, 8896
2, 1931, Pitch_bend_c, 0, 8992
2, 1932, Pitch_bend_c, 0, 9152
2, 1934, Pitch_bend_c, 0, 9376
2, 1935, Pitch_bend_c, 0, 9632
2, 1936, Pitch_bend_c, 0, 9824
2, 1938, Pitch_bend_c, 0, 10048
2, 1939, Pitch_bend_c, 0, 10144
2, 1940, Pitch_bend_c, 0, 10208
2, 1943, Note_on_c, 0, 73, 0
2, 2172, Pitch_bend_c, 0, 8192
2, 2173, Note_on_c, 0, 76, 112
2, 2173, Pitch_bend_c, 0, 10304
2, 2177, Pitch_bend_c, 0, 10240
2, 2178, Pitch_bend_c, 0, 10208
2, 2179, Pitch_bend_c, 0, 10144
2, 2180, Pitch_bend_c, 0, 10112
2, 2185, Pitch_bend_c, 0, 10016
2, 2186, Pitch_bend_c, 0, 9952
2, 2187, Pitch_bend_c, 0, 9920
2, 2188, Pitch_bend_c, 0, 9856
2, 2190, Pitch_bend_c, 0, 9824
2, 2193, Pitch_bend_c, 0, 9760
2, 2198, Pitch_bend_c, 0, 9728
2, 2200, Pitch_bend_c, 0, 9664
2, 2203, Pitch_bend_c, 0, 9632
2, 2205, Pitch_bend_c, 0, 9568
2, 2206, Pitch_bend_c, 0, 9472
2, 2207, Pitch_bend_c, 0, 9440
2, 2208, Pitch_bend_c, 0, 9376
2, 2209, Pitch_bend_c, 0, 9344
2, 2211, Pitch_bend_c, 0, 9280
2, 2212, Pitch_bend_c, 0, 9248
2, 2214, Pitch_bend_c, 0, 9184
2, 2215, Pitch_bend_c, 0, 9152
2, 2216, Pitch_bend_c, 0, 9088
2, 2218, Pitch_bend_c, 0, 8992
2, 2221, Pitch_bend_c, 0, 8960
2, 2222, Pitch_bend_c, 0, 8896
2, 2224, Pitch_bend_c, 0, 8800
2, 2225, Pitch_bend_c, 0, 8768
2, 2226, Pitch_bend_c, 0, 8704
2, 2228, Pitch_bend_c, 0, 8672
2, 2229, Pitch_bend_c, 0, 8576
2, 2230, Pitch_bend_c, 0, 8512
2, 2232, Pitch_bend_c, 0, 8416
2, 2233, Pitch_bend_c, 0, 8288
2, 2234, Pitch_bend_c, 0, 8064
2, 2236, Pitch_bend_c, 0, 7840
2, 2237, Pitch_bend_c, 0, 7520
2, 2238, Pitch_bend_c, 0, 7264
2, 2240, Pitch_bend_c, 0, 6976
2, 2241, Pitch_bend_c, 0, 6656
2, 2242, Pitch_bend_c, 0, 6336
2, 2243, Pitch_bend_c, 0, 5984
2, 2245, Pitch_bend_c, 0, 5664
2, 2246, Pitch_bend_c, 0, 5440
2, 2247, Pitch_bend_c, 0, 5248
2, 2249, Pitch_bend_c, 0, 5152
2, 2251, Note_on_c, 0, 76, 0
2, 2251, Pitch_bend_c, 0, 5984
2, 2254, Pitch_bend_c, 0, 8192
2, 2255, Note_on_c, 0, 75, 109
2, 2255, Pitch_bend_c, 0, 8576
2, 2257, Pitch_bend_c, 0, 8544
2, 2258, Pitch_bend_c, 0, 8448
2, 2259, Pitch_bend_c, 0, 8352
2, 2260, Pitch_bend_c, 0, 8256
2, 2262, Pitch_bend_c, 0, 8128
2, 2263, Pitch_bend_c, 0, 8000
2, 2264, Pitch_bend_c, 0, 7936
2, 2266, Note_on_c, 0, 75, 0
2, 2266, Pitch_bend_c, 0, 8256
2, 2275, Pitch_bend_c, 0, 8192
2, 2276, Note_on_c, 0, 73, 111
2, 2276, Pitch_bend_c, 0, 8128
2, 2277, Pitch_bend_c, 0, 8224
2, 2278, Pitch_bend_c, 0, 8192
2, 2280, Pitch_bend_c, 0, 8160
2, 2282, Pitch_bend_c, 0, 8128
2, 2285, Pitch_bend_c, 0, 8160
2, 2291, Pitch_bend_c, 0, 8128
2, 2297, Pitch_bend_c, 0, 8160
2, 2299, Pitch_bend_c, 0, 8192
2, 2309, Pitch_bend_c, 0, 8160
2, 2310, Pitch_bend_c, 0, 8064
2, 2311, Pitch_bend_c, 0, 8000
2, 2312, Pitch_bend_c, 0, 7936
2, 2315, Pitch_bend_c, 0, 8032
2, 2317, Pitch_bend_c, 0, 8224
2, 2318, Pitch_bend_c, 0, 8576
2, 2319, Pitch_bend_c, 0, 9056
2, 2320, Pitch_bend_c, 0, 9664
2, 2321, Pitch_bend_c, 0, 10144
2, 2323, Pitch_bend_c, 0, 10400
2, 2324, Pitch_bend_c, 0, 10208
2, 2325, Note_on_c, 0, 73, 0
2, 2339, Pitch_bend_c, 0, 8192
2, 2340, Note_on_c, 0, 70, 102
2, 2340, Pitch_bend_c, 0, 8448
2, 2341, Pitch_bend_c, 0, 8512
2, 2342, Pitch_bend_c, 0, 8480
2, 2343, Pitch_bend_c, 0, 8448
2, 2345, Pitch_bend_c, 0, 8384
2, 2346, Pitch_bend_c, 0, 8352
2, 2347, Pitch_bend_c, 0, 8288
2, 2349, Pitch_bend_c, 0, 8256
2, 2350, Pitch_bend_c, 0, 8224
2, 2354, Pitch_bend_c, 0, 8192
2, 2364, Pitch_bend_c, 0, 8160
2, 2366, Pitch_bend_c, 0, 8128
2, 2371, Pitch_bend_c, 0, 8192
2, 2372, Pitch_bend_c, 0, 8320
2, 2373, Pitch_bend_c, 0, 8800
2, 2375, Pitch_bend_c, 0, 9408
2, 2376, Pitch_bend_c, 0, 10080
2, 2377, Pitch_bend_c, 0, 10592
2, 2379, Pitch_bend_c, 0, 10752
2, 2380, Pitch_bend_c, 0, 10400
2, 2381, Pitch_bend_c, 0, 9728
2, 2382, Pitch_bend_c, 0, 9056
2, 2384, Pitch_bend_c, 0, 8448
2, 2385, Pitch_bend_c, 0, 8192
2, 2387, Pitch_bend_c, 0, 8224
2, 2389, Pitch_bend_c, 0, 8480
2, 2390, Pitch_bend_c, 0, 8928
2, 2391, Pitch_bend_c, 0, 9344
2, 2393, Pitch_bend_c, 0, 9472
2, 2394, Pitch_bend_c, 0, 9216
2, 2395, Note_on_c, 0, 70, 0
2, 2395, Pitch_bend_c, 0, 8192
2, 2396, Note_on_c, 0, 65, 96
2, 2396, Pitch_bend_c, 0, 9248
2, 2398, Pitch_bend_c, 0, 9536
2, 2399, Pitch_bend_c, 0, 11936
2, 2401, Pitch_bend_c, 0, 11968
2, 2402, Pitch_bend_c, 0, 12032
2, 2403, Pitch_bend_c, 0, 16096
2, 2406, Pitch_bend_c, 0, 16064
2, 2407, Pitch_bend_c, 0, 16032
2, 2410, Pitch_bend_c, 0, 16064
2, 2411, Pitch_bend_c, 0, 16192
2, 2412, Note_on_c, 0, 65, 0
2, 2414, Note_on_c, 0, 70, 109
2, 2414, Pitch_bend_c, 0, 8352
2, 2416, Pitch_bend_c, 0, 8416
2, 2419, Pitch_bend_c, 0, 8384
2, 2420, Pitch_bend_c, 0, 8320
2, 2421, Pitch_bend_c, 0, 8192
2, 2422, Pitch_bend_c, 0, 8128
2, 2424, Pitch_bend_c, 0, 8000
2, 2427, Note_on_c, 0, 70, 0
2, 2427, Note_on_c, 0, 72, 77
2, 2427, Pitch_bend_c, 0, 12000
2, 2430, Note_on_c, 0, 72, 0
2, 2431, Note_on_c, 0, 73, 98
2, 2431, Pitch_bend_c, 0, 8192
2, 2433, Pitch_bend_c, 0, 8160
2, 2434, Pitch_bend_c, 0, 8128
2, 2436, Pitch_bend_c, 0, 8064
2, 2437, Pitch_bend_c, 0, 8000
2, 2438, Pitch_bend_c, 0, 7968
2, 2440, Pitch_bend_c, 0, 8000
2, 2444, Pitch_bend_c, 0, 7968
2, 2450, Pitch_bend_c, 0, 7936
2, 2453, Pitch_bend_c, 0, 7968
2, 2455, Pitch_bend_c, 0, 8000
2, 2457, Pitch_bend_c, 0, 8032
2, 2458, Pitch_bend_c, 0, 8128
2, 2459, Pitch_bend_c, 0, 8160
2, 2461, Pitch_bend_c, 0, 8256
2, 2462, Pitch_bend_c, 0, 8384
2, 2463, Pitch_bend_c, 0, 8576
2, 2465, Pitch_bend_c, 0, 8864
2, 2466, Pitch_bend_c, 0, 9344
2, 2468, Pitch_bend_c, 0, 9920
2, 2469, Pitch_bend_c, 0, 10464
2, 2470, Pitch_bend_c, 0, 10976
2, 2471, Pitch_bend_c, 0, 11232
2, 2473, Pitch_bend_c, 0, 11392
2, 2474, Pitch_bend_c, 0, 11488
2, 2477, Pitch_bend_c, 0, 11232
2, 2478, Pitch_bend_c, 0, 8832
2, 2479, Note_on_c, 0, 73, 0
2, 2479, Pitch_bend_c, 0, 11232
2, 2480, Note_on_c, 0, 75, 109
2, 2480, Pitch_bend_c, 0, 8192
2, 2481, Pitch_bend_c, 0, 8672
2, 2482, Pitch_bend_c, 0, 8576
2, 2484, Pitch_bend_c, 0, 8640
2, 2487, Pitch_bend_c, 0, 8544
2, 2490, Pitch_bend_c, 0, 8448
2, 2491, Pitch_bend_c, 0, 8352
2, 2492, Pitch_bend_c, 0, 16383
2, 2493, Note_on_c, 0, 75, 0
2, 2494, Pitch_bend_c, 0, 8192
2, 2495, Note_on_c, 0, 77, 105
2, 2495, Pitch_bend_c, 0, 8288
2, 2501, Pitch_bend_c, 0, 8224
2, 2503, Pitch_bend_c, 0, 8192
2, 2504, Pitch_bend_c, 0, 8064
2, 2505, Pitch_bend_c, 0, 7968
2, 2506, Note_on_c, 0, 77, 0
2, 2506, Pitch_bend_c, 0, 8288
2, 2508, Pitch_bend_c, 0, 8192
2, 2509, Note_on_c, 0, 73, 76
2, 2509, Pitch_bend_c, 0, 8000
2, 2512, Pitch_bend_c, 0, 8160
2, 2514, Pitch_bend_c, 0, 8608
2, 2515, Pitch_bend_c, 0, 11136
2, 2516, Pitch_bend_c, 0, 11328
2, 2517, Pitch_bend_c, 0, 11520
2, 2520, Note_on_c, 0, 73, 0
2, 2530, Pitch_bend_c, 0, 8192
2, 2531, Note_on_c, 0, 70, 71
2, 2531, Pitch_bend_c, 0, 8512
2, 2533, Pitch_bend_c, 0, 8576
2, 2537, Pitch_bend_c, 0, 8544
2, 2541, Pitch_bend_c, 0, 8512
2, 2542, Pitch_bend_c, 0, 8480
2, 2546, Pitch_bend_c, 0, 8448
2, 2548, Pitch_bend_c, 0, 8480
2, 2551, Pitch_bend_c, 0, 8448
2, 2553, Pitch_bend_c, 0, 8416
2, 2555, Pitch_bend_c, 0, 8320
2, 2556, Pitch_bend_c, 0, 8192
2, 2557, Pitch_bend_c, 0, 8096
2, 2559, Pitch_bend_c, 0, 8000
2, 2560, Pitch_bend_c, 0, 7968
2, 2562, Pitch_bend_c, 0, 8256
2, 2564, Pitch_bend_c, 0, 8896
2, 2566, Pitch_bend_c, 0, 9632
2, 2567, Pitch_bend_c, 0, 10304
2, 2568, Pitch_bend_c, 0, 10592
2, 2570, Pitch_bend_c, 0, 10240
2, 2571, Pitch_bend_c, 0, 9568
2, 2572, Pitch_bend_c, 0, 8864
2, 2573, Pitch_bend_c, 0, 8288
2, 2575, Pitch_bend_c, 0, 8032
2, 2576, Pitch_bend_c, 0, 7936
2, 2579, Note_on_c, 0, 70, 0
2, 2579, Pitch_bend_c, 0, 8864
2, 2586, Pitch_bend_c, 0, 8192
2, 2587, Note_on_c, 0, 72, 82
2, 2587, Pitch_bend_c, 0, 8224
2, 2589, Pitch_bend_c, 0, 8256
2, 2590, Pitch_bend_c, 0, 8320
2, 2592, Pitch_bend_c, 0, 8640
2, 2593, Pitch_bend_c, 0, 9152
2, 2594, Pitch_bend_c, 0, 9920
2, 2595, Pitch_bend_c, 0, 10752
2, 2597, Pitch_bend_c, 0, 11488
2, 2598, Pitch_bend_c, 0, 12000
2, 2600, Pitch_bend_c, 0, 12288
2, 2601, Pitch_bend_c, 0, 12352
2, 2602, Note_on_c, 0, 72, 0
2, 2610, Pitch_bend_c, 0, 8192
2, 2611, Note_on_c, 0, 72, 91
2, 2611, Pitch_bend_c, 0, 9472
2, 2613, Pitch_bend_c, 0, 9728
2, 2615, Pitch_bend_c, 0, 10080
2, 2616, Pitch_bend_c, 0, 10400
2, 2617, Pitch_bend_c, 0, 10688
2, 2618, Pitch_bend_c, 0, 10816
2, 2621, Pitch_bend_c, 0, 10528
2, 2622, Pitch_bend_c, 0, 10016
2, 2624, Pitch_bend_c, 0, 9312
2, 2625, Pitch_bend_c, 0, 8640
2, 2626, Pitch_bend_c, 0, 8192
2, 2627, Note_on_c, 0, 72, 0
2, 2627, Pitch_bend_c, 0, 10528
2, 2631, Note_on_c, 0, 70, 91
2, 2631, Pitch_bend_c, 0, 8032
2, 2635, Pitch_bend_c, 0, 8064
2, 2638, Pitch_bend_c, 0, 7968
2, 2639, Pitch_bend_c, 0, 16320
2, 2640, Pitch_bend_c, 0, 16288
2, 2641, Pitch_bend_c, 0, 16320
2, 2643, Note_on_c, 0, 70, 0
2, 2643, Pitch_bend_c, 0, 8512
2, 2644, Pitch_bend_c, 0, 8192
2, 2646, Note_on_c, 0, 70, 71
2, 2651, Note_on_c, 0, 70, 0
2, 2654, Note_on_c, 0, 67, 43
2, 2654, Pitch_bend_c, 0, 8128
2, 2655, Pitch_bend_c, 0, 8224
2, 2658, Pitch_bend_c, 0, 8192
2, 2659, Pitch_bend_c, 0, 8224
2, 2663, Note_on_c, 0, 67, 0
2, 2663, Pitch_bend_c, 0, 8192
2, 2664, Note_on_c, 0, 70, 70
2, 2664, Pitch_bend_c, 0, 8064
2, 2671, Pitch_bend_c, 0, 8128
2, 2672, Pitch_bend_c, 0, 8096
2, 2680, Pitch_bend_c, 0, 8128
2, 2682, Pitch_bend_c, 0, 8160
2, 2688, Pitch_bend_c, 0, 8128
2, 2689, Pitch_bend_c, 0, 8160
2, 2690, Pitch_bend_c, 0, 8256
2, 2691, Pitch_bend_c, 0, 8512
2, 2693, Pitch_bend_c, 0, 8832
2, 2694, Pitch_bend_c, 0, 9024
2, 2696, Pitch_bend_c, 0, 9056
2, 2697, Pitch_bend_c, 0, 8896
2, 2698, Pitch_bend_c, 0, 8544
2, 2699, Pitch_bend_c, 0, 8224
2, 2701, Pitch_bend_c, 0, 8032
2, 2702, Pitch_bend_c, 0, 7904
2, 2703, Pitch_bend_c, 0, 7936
2, 2704, Pitch_bend_c, 0, 8256
2, 2706, Pitch_bend_c, 0, 10592
2, 2707, Pitch_bend_c, 0, 10784
2, 2708, Pitch_bend_c, 0, 11008
2, 2710, Pitch_bend_c, 0, 11104
2, 2711, Pitch_bend_c, 0, 10880
2, 2712, Pitch_bend_c, 0, 8512
2, 2714, Pitch_bend_c, 0, 8352
2, 2715, Pitch_bend_c, 0, 8192
2, 2716, Pitch_bend_c, 0, 8096
2, 2718, Note_on_c, 0, 70, 0
2, 2718, Pitch_bend_c, 0, 8512
2, 2937, Note_on_c, 0, 79, 126
2, 2937, Pitch_bend_c, 0, 8448
2, 2938, Pitch_bend_c, 0, 8544
2, 2939, Pitch_bend_c, 0, 8448
2, 2940, Pitch_bend_c, 0, 8384
2, 2942, Pitch_bend_c, 0, 8320
2, 2943, Pitch_bend_c, 0, 8384
2, 2945, Pitch_bend_c, 0, 8736
2, 2946, Pitch_bend_c, 0, 9248
2, 2947, Pitch_bend_c, 0, 9824
2, 2948, Pitch_bend_c, 0, 10496
2, 2949, Pitch_bend_c, 0, 11136
2, 2951, Pitch_bend_c, 0, 11584
2, 2952, Pitch_bend_c, 0, 12032
2, 2954, Pitch_bend_c, 0, 12320
2, 2955, Pitch_bend_c, 0, 12448
2, 2956, Pitch_bend_c, 0, 12576
2, 2963, Pitch_bend_c, 0, 12512
2, 2972, Pitch_bend_c, 0, 12576
2, 2975, Pitch_bend_c, 0, 12512
2, 2977, Pitch_bend_c, 0, 12448
2, 2978, Pitch_bend_c, 0, 12320
2, 2980, Pitch_bend_c, 0, 12224
2, 2981, Pitch_bend_c, 0, 11936
2, 2982, Pitch_bend_c, 0, 11456
2, 2984, Pitch_bend_c, 0, 10848
2, 2985, Pitch_bend_c, 0, 10080
2, 2986, Pitch_bend_c, 0, 9408
2, 2987, Pitch_bend_c, 0, 8832
2, 2989, Pitch_bend_c, 0, 8544
2, 2990, Pitch_bend_c, 0, 8448
2, 2991, Note_on_c, 0, 79, 0
2, 2991, Pitch_bend_c, 0, 10080
2, 2994, Note_on_c, 0, 77, 114
2, 2994, Pitch_bend_c, 0, 8736
2, 2996, Pitch_bend_c, 0, 8672
2, 2997, Pitch_bend_c, 0, 8736
2, 2998, Pitch_bend_c, 0, 8800
2, 3000, Pitch_bend_c, 0, 8832
2, 3004, Pitch_bend_c, 0, 8800
2, 3006, Pitch_bend_c, 0, 8832
2, 3008, Pitch_bend_c, 0, 8928
2, 3009, Pitch_bend_c, 0, 8832
2, 3010, Pitch_bend_c, 0, 6624
2, 3011, Note_on_c, 0, 77, 0
2, 3011, Pitch_bend_c, 0, 8800
2, 3012, Pitch_bend_c, 0, 8192
2, 3013, Note_on_c, 0, 74, 112
2, 3013, Pitch_bend_c, 0, 12672
2, 3014, Pitch_bend_c, 0, 12640
2, 3016, Pitch_bend_c, 0, 12576
2, 3018, Pitch_bend_c, 0, 12640
2, 3022, Pitch_bend_c, 0, 12576
2, 3023, Pitch_bend_c, 0, 12544
2, 3027, Pitch_bend_c, 0, 12576
2, 3028, Note_on_c, 0, 74, 0
2, 3028, Pitch_bend_c, 0, 8192
2, 3029, Note_on_c, 0, 77, 114
2, 3030, Pitch_bend_c, 0, 8832
2, 3032, Pitch_bend_c, 0, 8896
2, 3036, Pitch_bend_c, 0, 8800
2, 3037, Pitch_bend_c, 0, 8672
2, 3038, Pitch_bend_c, 0, 8544
2, 3040, Pitch_bend_c, 0, 8384
2, 3041, Pitch_bend_c, 0, 8192
2, 3042, Pitch_bend_c, 0, 8000
2, 3044, Note_on_c, 0, 77, 0
2, 3044, Pitch_bend_c, 0, 8544
2, 3046, Pitch_bend_c, 0, 8192
2, 3047, Note_on_c, 0, 72, 110
2, 3047, Pitch_bend_c, 0, 8512
2, 3050, Pitch_bend_c, 0, 8480
2, 3052, Pitch_bend_c, 0, 8512
2, 3053, Pitch_bend_c, 0, 8544
2, 3054, Pitch_bend_c, 0, 8608
2, 3056, Pitch_bend_c, 0, 8640
2, 3057, Pitch_bend_c, 0, 8800
2, 3058, Pitch_bend_c, 0, 9056
2, 3059, Pitch_bend_c, 0, 9600
2, 3061, Pitch_bend_c, 0, 10304
2, 3062, Pitch_bend_c, 0, 11136
2, 3063, Pitch_bend_c, 0, 11936
2, 3064, Pitch_bend_c, 0, 12512
2, 3066, Pitch_bend_c, 0, 12608
2, 3067, Note_on_c, 0, 72, 0
2, 3069, Pitch_bend_c, 0, 8192
2, 3072, Pitch_bend_c, 0, 11200
2, 3073, Pitch_bend_c, 0, 12224
2, 3076, Pitch_bend_c, 0, 12352
2, 3078, Pitch_bend_c, 0, 12480
2, 3079, Pitch_bend_c, 0, 8192
2, 3079, Note_on_c, 0, 70, 98
2, 3094, Pitch_bend_c, 0, 8480
2, 3095, Pitch_bend_c, 0, 8512
2, 3103, Pitch_bend_c, 0, 8480
2, 3104, Pitch_bend_c, 0, 8416
2, 3106, Pitch_bend_c, 0, 8320
2, 3107, Pitch_bend_c, 0, 8256
2, 3108, Pitch_bend_c, 0, 8192
2, 3110, Pitch_bend_c, 0, 8160
2, 3113, Pitch_bend_c, 0, 8192
2, 3115, Pitch_bend_c, 0, 8224
2, 3116, Pitch_bend_c, 0, 8384
2, 3117, Pitch_bend_c, 0, 8672
2, 3119, Pitch_bend_c, 0, 8960
2, 3120, Pitch_bend_c, 0, 9184
2, 3121, Pitch_bend_c, 0, 9344
2, 3123, Pitch_bend_c, 0, 9312
2, 3124, Pitch_bend_c, 0, 9024
2, 3125, Pitch_bend_c, 0, 8608
2, 3127, Pitch_bend_c, 0, 8256
2, 3128, Pitch_bend_c, 0, 8032
2, 3129, Pitch_bend_c, 0, 7904
2, 3131, Pitch_bend_c, 0, 7936
2, 3132, Pitch_bend_c, 0, 8064
2, 3133, Pitch_bend_c, 0, 8320
2, 3134, Pitch_bend_c, 0, 8704
2, 3136, Pitch_bend_c, 0, 9152
2, 3137, Pitch_bend_c, 0, 9440
2, 3138, Pitch_bend_c, 0, 9504
2, 3139, Pitch_bend_c, 0, 9216
2, 3141, Pitch_bend_c, 0, 8832
2, 3142, Pitch_bend_c, 0, 8384
2, 3143, Pitch_bend_c, 0, 8064
2, 3145, Pitch_bend_c, 0, 7936
2, 3146, Pitch_bend_c, 0, 7904
2, 3147, Pitch_bend_c, 0, 7936
2, 3149, Pitch_bend_c, 0, 7904
2, 3150, Pitch_bend_c, 0, 7936
2, 3151, Pitch_bend_c, 0, 7776
2, 3152, Note_on_c, 0, 70, 0
2, 3180, Note_on_c, 0, 67, 83
2, 3180, Pitch_bend_c, 0, 8352
2, 3181, Pitch_bend_c, 0, 8384
2, 3187, Pitch_bend_c, 0, 8352
2, 3188, Pitch_bend_c, 0, 8288
2, 3189, Pitch_bend_c, 0, 8256
2, 3191, Pitch_bend_c, 0, 8064
2, 3192, Note_on_c, 0, 67, 0
2, 3192, Pitch_bend_c, 0, 8192
2, 3193, Note_on_c, 0, 70, 95
2, 3193, Pitch_bend_c, 0, 8064
2, 3195, Pitch_bend_c, 0, 8096
2, 3196, Pitch_bend_c, 0, 8128
2, 3199, Pitch_bend_c, 0, 8160
2, 3200, Pitch_bend_c, 0, 8192
2, 3202, Note_on_c, 0, 70, 0
2, 3202, Pitch_bend_c, 0, 8256
2, 3204, Note_on_c, 0, 72, 98
2, 3204, Pitch_bend_c, 0, 8544
2, 3206, Pitch_bend_c, 0, 8608
2, 3207, Pitch_bend_c, 0, 8544
2, 3208, Pitch_bend_c, 0, 8480
2, 3209, Pitch_bend_c, 0, 8448
2, 3211, Pitch_bend_c, 0, 8672
2, 3212, Pitch_bend_c, 0, 11296
2, 3214, Pitch_bend_c, 0, 11552
2, 3215, Pitch_bend_c, 0, 12000
2, 3216, Pitch_bend_c, 0, 12544
2, 3217, Pitch_bend_c, 0, 13152
2, 3219, Pitch_bend_c, 0, 13440
2, 3220, Note_on_c, 0, 72, 0
2, 3226, Pitch_bend_c, 0, 8192
2, 3227, Note_on_c, 0, 72, 78
2, 3230, Pitch_bend_c, 0, 8352
2, 3231, Pitch_bend_c, 0, 8832
2, 3232, Pitch_bend_c, 0, 11072
2, 3233, Pitch_bend_c, 0, 11328
2, 3235, Pitch_bend_c, 0, 11744
2, 3236, Pitch_bend_c, 0, 12384
2, 3237, Pitch_bend_c, 0, 13088
2, 3239, Pitch_bend_c, 0, 13600
2, 3240, Pitch_bend_c, 0, 13920
2, 3241, Pitch_bend_c, 0, 14144
2, 3242, Pitch_bend_c, 0, 14304
2, 3244, Pitch_bend_c, 0, 14368
2, 3245, Pitch_bend_c, 0, 14464
2, 3246, Pitch_bend_c, 0, 14496
2, 3250, Pitch_bend_c, 0, 14464
2, 3253, Pitch_bend_c, 0, 14400
2, 3257, Pitch_bend_c, 0, 14368
2, 3261, Pitch_bend_c, 0, 14336
2, 3262, Pitch_bend_c, 0, 14208
2, 3263, Pitch_bend_c, 0, 13856
2, 3264, Pitch_bend_c, 0, 10240
2, 3266, Pitch_bend_c, 0, 9728
2, 3267, Pitch_bend_c, 0, 5888
2, 3268, Note_on_c, 0, 72, 0
2, 3270, Pitch_bend_c, 0, 8192
2, 3284, Note_on_c, 0, 77, 115
2, 3284, Pitch_bend_c, 0, 7776
2, 3287, Pitch_bend_c, 0, 8000
2, 3288, Pitch_bend_c, 0, 10656
2, 3290, Pitch_bend_c, 0, 11136
2, 3291, Pitch_bend_c, 0, 14080
2, 3292, Pitch_bend_c, 0, 14336
2, 3294, Pitch_bend_c, 0, 14656
2, 3295, Pitch_bend_c, 0, 15104
2, 3296, Pitch_bend_c, 0, 15520
2, 3298, Pitch_bend_c, 0, 15744
2, 3299, Pitch_bend_c, 0, 15872
2, 3301, Pitch_bend_c, 0, 15904
2, 3308, Pitch_bend_c, 0, 15808
2, 3309, Pitch_bend_c, 0, 15744
2, 3310, Pitch_bend_c, 0, 15648
2, 3312, Pitch_bend_c, 0, 15520
2, 3313, Pitch_bend_c, 0, 15488
2, 3314, Pitch_bend_c, 0, 15264
2, 3315, Pitch_bend_c, 0, 15008
2, 3317, Pitch_bend_c, 0, 14336
2, 3318, Pitch_bend_c, 0, 11584
2, 3319, Pitch_bend_c, 0, 11392
2, 3320, Pitch_bend_c, 0, 10976
2, 3322, Pitch_bend_c, 0, 10464
2, 3323, Pitch_bend_c, 0, 9792
2, 3324, Pitch_bend_c, 0, 9280
2, 3326, Pitch_bend_c, 0, 8896
2, 3327, Pitch_bend_c, 0, 8544
2, 3328, Pitch_bend_c, 0, 8288
2, 3329, Note_on_c, 0, 77, 0
2, 3329, Pitch_bend_c, 0, 9792
2, 3330, Pitch_bend_c, 0, 8192
2, 3331, Note_on_c, 0, 77, 83
2, 3331, Pitch_bend_c, 0, 7712
2, 3336, Pitch_bend_c, 0, 7680
2, 3339, Pitch_bend_c, 0, 7712
2, 3340, Note_on_c, 0, 77, 0
2, 3340, Pitch_bend_c, 0, 7776
2, 3341, Pitch_bend_c, 0, 8192
2, 3345, Note_on_c, 0, 70, 65
2, 3345, Pitch_bend_c, 0, 8480
2, 3348, Pitch_bend_c, 0, 8512
2, 3349, Pitch_bend_c, 0, 8480
2, 3352, Pitch_bend_c, 0, 8448
2, 3354, Pitch_bend_c, 0, 8416
2, 3355, Pitch_bend_c, 0, 8384
2, 3357, Pitch_bend_c, 0, 8320
2, 3358, Pitch_bend_c, 0, 8224
2, 3359, Pitch_bend_c, 0, 8288
2, 3360, Pitch_bend_c, 0, 8576
2, 3362, Pitch_bend_c, 0, 9120
2, 3363, Pitch_bend_c, 0, 9728
2, 3364, Pitch_bend_c, 0, 10080
2, 3366, Pitch_bend_c, 0, 9888
2, 3367, Pitch_bend_c, 0, 9344
2, 3368, Pitch_bend_c, 0, 8672
2, 3370, Pitch_bend_c, 0, 8192
2, 3371, Pitch_bend_c, 0, 8000
2, 3372, Pitch_bend_c, 0, 7936
2, 3374, Pitch_bend_c, 0, 8000
2, 3375, Pitch_bend_c, 0, 8192
2, 3376, Pitch_bend_c, 0, 8352
2, 3378, Pitch_bend_c, 0, 8544
2, 3379, Note_on_c, 0, 70, 0
2, 3379, Pitch_bend_c, 0, 8608
2, 3387, Pitch_bend_c, 0, 8192
2, 3388, Note_on_c, 0, 72, 76
2, 3388, Pitch_bend_c, 0, 9408
2, 3390, Pitch_bend_c, 0, 9664
2, 3392, Pitch_bend_c, 0, 10080
2, 3393, Pitch_bend_c, 0, 10624
2, 3394, Pitch_bend_c, 0, 11296
2, 3395, Pitch_bend_c, 0, 12000
2, 3397, Pitch_bend_c, 0, 12672
2, 3398, Pitch_bend_c, 0, 13440
2, 3399, Pitch_bend_c, 0, 14176
2, 3400, Pitch_bend_c, 0, 14880
2, 3402, Pitch_bend_c, 0, 15424
2, 3403, Pitch_bend_c, 0, 15744
2, 3404, Pitch_bend_c, 0, 15904
2, 3406, Pitch_bend_c, 0, 16000
2, 3412, Pitch_bend_c, 0, 15936
2, 3415, Pitch_bend_c, 0, 15904
2, 3416, Pitch_bend_c, 0, 15872
2, 3423, Pitch_bend_c, 0, 15808
2, 3425, Pitch_bend_c, 0, 15776
2, 3428, Pitch_bend_c, 0, 15744
2, 3429, Pitch_bend_c, 0, 15712
2, 3430, Pitch_bend_c, 0, 15648
2, 3432, Pitch_bend_c, 0, 15616
2, 3433, Pitch_bend_c, 0, 15584
2, 3435, Pitch_bend_c, 0, 15488
2, 3436, Pitch_bend_c, 0, 15424
2, 3437, Pitch_bend_c, 0, 15328
2, 3439, Pitch_bend_c, 0, 15296
2, 3440, Pitch_bend_c, 0, 15168
2, 3441, Pitch_bend_c, 0, 14976
2, 3442, Pitch_bend_c, 0, 14784
2, 3444, Pitch_bend_c, 0, 14560
2, 3445, Pitch_bend_c, 0, 14400
2, 3446, Pitch_bend_c, 0, 14304
2, 3448, Pitch_bend_c, 0, 14208
2, 3449, Pitch_bend_c, 0, 13952
2, 3450, Pitch_bend_c, 0, 11264
2, 3451, Pitch_bend_c, 0, 10816
2, 3453, Pitch_bend_c, 0, 7936
2, 3454, Note_on_c, 0, 72, 0
2, 3508, Note_on_c, 0, 69, 124
2, 3508, Pitch_bend_c, 0, 8192
2, 3509, Pitch_bend_c, 0, 8480
2, 3510, Pitch_bend_c, 0, 8416
2, 3511, Pitch_bend_c, 0, 8384
2, 3515, Pitch_bend_c, 0, 8512
2, 3516, Pitch_bend_c, 0, 12160
2, 3517, Pitch_bend_c, 0, 12256
2, 3519, Pitch_bend_c, 0, 12320
2, 3520, Pitch_bend_c, 0, 12384
2, 3522, Pitch_bend_c, 0, 12448
2, 3523, Pitch_bend_c, 0, 12480
2, 3525, Pitch_bend_c, 0, 12512
2, 3532, Pitch_bend_c, 0, 12544
2, 3534, Pitch_bend_c, 0, 12576
2, 3537, Pitch_bend_c, 0, 12608
2, 3538, Pitch_bend_c, 0, 12640
2, 3539, Pitch_bend_c, 0, 12704
2, 3541, Pitch_bend_c, 0, 12768
2, 3542, Pitch_bend_c, 0, 12928
2, 3544, Pitch_bend_c, 0, 13024
2, 3546, Note_on_c, 0, 69, 0
2, 3546, Note_on_c, 0, 65, 115
2, 3546, Pitch_bend_c, 0, 8672
2, 3553, Pitch_bend_c, 0, 8512
2, 3554, Pitch_bend_c, 0, 8480
2, 3555, Pitch_bend_c, 0, 8416
2, 3557, Pitch_bend_c, 0, 8288
2, 3558, Note_on_c, 0, 65, 0
2, 3558, Pitch_bend_c, 0, 8672
2, 3559, Pitch_bend_c, 0, 8192
2, 3560, Note_on_c, 0, 63, 73
2, 3560, Pitch_bend_c, 0, 8128
2, 3565, Pitch_bend_c, 0, 8096
2, 3567, Note_on_c, 0, 63, 0
2, 3567, Pitch_bend_c, 0, 8192
2, 3572, Note_on_c, 0, 65, 99
2, 3572, Pitch_bend_c, 0, 8416
2, 3578, Pitch_bend_c, 0, 8448
2, 3579, Pitch_bend_c, 0, 8480
2, 3581, Pitch_bend_c, 0, 8512
2, 3582, Pitch_bend_c, 0, 8544
2, 3583, Pitch_bend_c, 0, 8576
2, 3585, Pitch_bend_c, 0, 8544
2, 3586, Pitch_bend_c, 0, 8192
2, 3587, Note_on_c, 0, 61, 76
2, 3591, Note_on_c, 0, 65, 0
2, 3591, Pitch_bend_c, 0, 8224
2, 3593, Pitch_bend_c, 0, 8288
2, 3594, Pitch_bend_c, 0, 8320
2, 3595, Pitch_bend_c, 0, 8352
2, 3596, Pitch_bend_c, 0, 8320
2, 3598, Pitch_bend_c, 0, 8288
2, 3599, Pitch_bend_c, 0, 8224
2, 3601, Pitch_bend_c, 0, 8192
2, 3602, Pitch_bend_c, 0, 8128
2, 3603, Pitch_bend_c, 0, 8032
2, 3606, Pitch_bend_c, 0, 8096
2, 3607, Pitch_bend_c, 0, 8384
2, 3608, Pitch_bend_c, 0, 8928
2, 3609, Pitch_bend_c, 0, 9536
2, 3611, Pitch_bend_c, 0, 10144
2, 3612, Pitch_bend_c, 0, 10528
2, 3613, Pitch_bend_c, 0, 10688
2, 3615, Pitch_bend_c, 0, 10656
2, 3616, Pitch_bend_c, 0, 10560
2, 3617, Pitch_bend_c, 0, 10240
2, 3619, Note_on_c, 0, 61, 0
2, 3619, Pitch_bend_c, 0, 9856
2, 3620, Pitch_bend_c, 0, 8192
2, 3621, Note_on_c, 0, 58, 74
2, 3621, Pitch_bend_c, 0, 8064
2, 3622, Pitch_bend_c, 0, 8128
2, 3626, Pitch_bend_c, 0, 8160
2, 3632, Pitch_bend_c, 0, 8128
2, 3636, Pitch_bend_c, 0, 8096
2, 3638, Pitch_bend_c, 0, 8128
2, 3643, Pitch_bend_c, 0, 8096
2, 3646, Pitch_bend_c, 0, 8064
2, 3649, Pitch_bend_c, 0, 8032
2, 3652, Pitch_bend_c, 0, 8000
2, 3655, Pitch_bend_c, 0, 8032
2, 3656, Pitch_bend_c, 0, 8128
2, 3657, Pitch_bend_c, 0, 8288
2, 3659, Pitch_bend_c, 0, 8544
2, 3660, Pitch_bend_c, 0, 8768
2, 3661, Pitch_bend_c, 0, 8864
2, 3664, Note_on_c, 0, 65, 87
2, 3664, Pitch_bend_c, 0, 8640
2, 3665, Pitch_bend_c, 0, 8672
2, 3667, Pitch_bend_c, 0, 8704
2, 3668, Pitch_bend_c, 0, 8064
2, 3669, Pitch_bend_c, 0, 8800
2, 3670, Note_on_c, 0, 58, 0
2, 3670, Pitch_bend_c, 0, 8736
2, 3671, Pitch_bend_c, 0, 8544
2, 3672, Note_on_c, 0, 65, 0
2, 3672, Pitch_bend_c, 0, 8704
2, 3676, Note_on_c, 0, 70, 111
2, 3676, Pitch_bend_c, 0, 8384
2, 3679, Pitch_bend_c, 0, 8352
2, 3681, Pitch_bend_c, 0, 8320
2, 3682, Pitch_bend_c, 0, 8256
2, 3683, Pitch_bend_c, 0, 8224
2, 3684, Pitch_bend_c, 0, 8256
2, 3686, Pitch_bend_c, 0, 8288
2, 3687, Pitch_bend_c, 0, 8320
2, 3691, Pitch_bend_c, 0, 8288
2, 3692, Pitch_bend_c, 0, 8320
2, 3693, Pitch_bend_c, 0, 8384
2, 3695, Pitch_bend_c, 0, 8480
2, 3696, Pitch_bend_c, 0, 8576
2, 3699, Note_on_c, 0, 70, 0
2, 3699, Pitch_bend_c, 0, 8544
2, 3700, Note_on_c, 0, 70, 111
2, 3700, Pitch_bend_c, 0, 8224
2, 3704, Pitch_bend_c, 0, 8256
2, 3707, Pitch_bend_c, 0, 8512
2, 3708, Pitch_bend_c, 0, 9056
2, 3709, Pitch_bend_c, 0, 9632
2, 3711, Pitch_bend_c, 0, 10144
2, 3712, Pitch_bend_c, 0, 10304
2, 3713, Pitch_bend_c, 0, 9952
2, 3715, Pitch_bend_c, 0, 9408
2, 3716, Pitch_bend_c, 0, 8896
2, 3717, Pitch_bend_c, 0, 8480
2, 3719, Pitch_bend_c, 0, 8352
2, 3720, Pitch_bend_c, 0, 8320
2, 3721, Pitch_bend_c, 0, 8352
2, 3728, Pitch_bend_c, 0, 8320
2, 3729, Pitch_bend_c, 0, 8288
2, 3731, Pitch_bend_c, 0, 8256
2, 3733, Pitch_bend_c, 0, 8224
2, 3735, Pitch_bend_c, 0, 8256
2, 3736, Note_on_c, 0, 70, 0
2, 3736, Pitch_bend_c, 0, 8320
2, 3738, Pitch_bend_c, 0, 8192
2, 3739, Note_on_c, 0, 74, 116
2, 3739, Pitch_bend_c, 0, 7872
2, 3740, Pitch_bend_c, 0, 8064
2, 3742, Pitch_bend_c, 0, 8192
2, 3755, Pitch_bend_c, 0, 7744
2, 3756, Pitch_bend_c, 0, 7712
2, 3758, Pitch_bend_c, 0, 7648
2, 3759, Pitch_bend_c, 0, 7616
2, 3760, Pitch_bend_c, 0, 7648
2, 3761, Pitch_bend_c, 0, 7712
2, 3763, Note_on_c, 0, 74, 0
2, 3763, Pitch_bend_c, 0, 7904
2, 3765, Pitch_bend_c, 0, 8192
2, 3766, Note_on_c, 0, 74, 116
2, 3766, Pitch_bend_c, 0, 8512
2, 3767, Pitch_bend_c, 0, 8064
2, 3769, Pitch_bend_c, 0, 8096
2, 3773, Pitch_bend_c, 0, 8000
2, 3774, Pitch_bend_c, 0, 7904
2, 3777, Pitch_bend_c, 0, 7840
2, 3780, Pitch_bend_c, 0, 7776
2, 3782, Pitch_bend_c, 0, 12000
2, 3783, Pitch_bend_c, 0, 12064
2, 3784, Note_on_c, 0, 74, 0
2, 3785, Pitch_bend_c, 0, 8192
2, 3786, Note_on_c, 0, 75, 116
2, 3789, Pitch_bend_c, 0, 8128
2, 3792, Pitch_bend_c, 0, 8160
2, 3793, Pitch_bend_c, 0, 8128
2, 3795, Pitch_bend_c, 0, 8160
2, 3796, Pitch_bend_c, 0, 8128
2, 3797, Pitch_bend_c, 0, 8032
2, 3798, Pitch_bend_c, 0, 8064
2, 3800, Pitch_bend_c, 0, 8160
2, 3802, Pitch_bend_c, 0, 8192
2, 3803, Pitch_bend_c, 0, 8224
2, 3805, Pitch_bend_c, 0, 8320
2, 3806, Pitch_bend_c, 0, 8416
2, 3807, Pitch_bend_c, 0, 8544
2, 3809, Pitch_bend_c, 0, 8640
2, 3810, Pitch_bend_c, 0, 8672
2, 3811, Pitch_bend_c, 0, 8768
2, 3813, Pitch_bend_c, 0, 8864
2, 3814, Pitch_bend_c, 0, 8960
2, 3815, Pitch_bend_c, 0, 9056
2, 3817, Pitch_bend_c, 0, 9120
2, 3818, Pitch_bend_c, 0, 9280
2, 3819, Pitch_bend_c, 0, 9344
2, 3821, Pitch_bend_c, 0, 9536
2, 3822, Pitch_bend_c, 0, 9760
2, 3823, Pitch_bend_c, 0, 9984
2, 3824, Pitch_bend_c, 0, 10304
2, 3825, Pitch_bend_c, 0, 10784
2, 3827, Pitch_bend_c, 0, 11328
2, 3828, Pitch_bend_c, 0, 12000
2, 3829, Pitch_bend_c, 0, 12704
2, 3831, Pitch_bend_c, 0, 13344
2, 3832, Pitch_bend_c, 0, 13824
2, 3834, Pitch_bend_c, 0, 14048
2, 3835, Pitch_bend_c, 0, 14144
2, 3836, Pitch_bend_c, 0, 13952
2, 3838, Pitch_bend_c, 0, 11360
2, 3839, Pitch_bend_c, 0, 10912
2, 3840, Pitch_bend_c, 0, 10304
2, 3841, Note_on_c, 0, 75, 0
2, 3841, Note_on_c, 0, 77, 113
2, 3841, Pitch_bend_c, 0, 8576
2, 3846, Pitch_bend_c, 0, 8544
2, 3847, Pitch_bend_c, 0, 8576
2, 3848, Pitch_bend_c, 0, 8544
2, 3851, Pitch_bend_c, 0, 8480
2, 3854, Pitch_bend_c, 0, 8416
2, 3855, Pitch_bend_c, 0, 8384
2, 3857, Pitch_bend_c, 0, 8320
2, 3859, Pitch_bend_c, 0, 8288
2, 3862, Pitch_bend_c, 0, 8320
2, 3866, Pitch_bend_c, 0, 8384
2, 3868, Pitch_bend_c, 0, 8416
2, 3874, Pitch_bend_c, 0, 8384
2, 3875, Pitch_bend_c, 0, 8416
2, 3876, Pitch_bend_c, 0, 8576
2, 3878, Pitch_bend_c, 0, 8896
2, 3879, Pitch_bend_c, 0, 9280
2, 3880, Pitch_bend_c, 0, 9696
2, 3881, Pitch_bend_c, 0, 10048
2, 3883, Pitch_bend_c, 0, 10272
2, 3884, Pitch_bend_c, 0, 10368
2, 3887, Pitch_bend_c, 0, 10208
2, 3888, Pitch_bend_c, 0, 9856
2, 3889, Pitch_bend_c, 0, 9504
2, 3890, Pitch_bend_c, 0, 9088
2, 3891, Pitch_bend_c, 0, 8800
2, 3893, Pitch_bend_c, 0, 8672
2, 3894, Pitch_bend_c, 0, 8640
2, 3895, Pitch_bend_c, 0, 8672
2, 3897, Pitch_bend_c, 0, 8896
2, 3898, Pitch_bend_c, 0, 9280
2, 3899, Pitch_bend_c, 0, 9696
2, 3901, Pitch_bend_c, 0, 10048
2, 3902, Pitch_bend_c, 0, 10272
2, 3903, Pitch_bend_c, 0, 10304
2, 3904, Pitch_bend_c, 0, 10272
2, 3906, Pitch_bend_c, 0, 10016
2, 3907, Pitch_bend_c, 0, 9600
2, 3908, Pitch_bend_c, 0, 9184
2, 3910, Pitch_bend_c, 0, 8800
2, 3911, Pitch_bend_c, 0, 8576
2, 3912, Pitch_bend_c, 0, 8544
2, 3913, Note_on_c, 0, 77, 0
2, 3953, Note_on_c, 0, 75, 116
2, 3953, Pitch_bend_c, 0, 8192
2, 3954, Pitch_bend_c, 0, 8544
2, 3957, Pitch_bend_c, 0, 8448
2, 3959, Pitch_bend_c, 0, 8256
2, 3960, Pitch_bend_c, 0, 8128
2, 3962, Pitch_bend_c, 0, 8064
2, 3964, Pitch_bend_c, 0, 8032
2, 3965, Pitch_bend_c, 0, 7904
2, 3966, Pitch_bend_c, 0, 7872
2, 3968, Pitch_bend_c, 0, 7808
2, 3969, Note_on_c, 0, 75, 0
2, 3969, Pitch_bend_c, 0, 8064
2, 3977, Pitch_bend_c, 0, 8192
2, 3978, Note_on_c, 0, 73, 115
2, 3978, Pitch_bend_c, 0, 8672
2, 3979, Pitch_bend_c, 0, 8448
2, 3980, Pitch_bend_c, 0, 8416
2, 3982, Pitch_bend_c, 0, 8384
2, 3983, Pitch_bend_c, 0, 8352
2, 3984, Pitch_bend_c, 0, 8288
2, 3987, Pitch_bend_c, 0, 8256
2, 3989, Pitch_bend_c, 0, 8288
2, 3990, Note_on_c, 0, 73, 0
2, 3990, Pitch_bend_c, 0, 8384
2, 3999, Pitch_bend_c, 0, 8192
2, 4000, Note_on_c, 0, 75, 114
2, 4001, Pitch_bend_c, 0, 8672
2, 4002, Pitch_bend_c, 0, 8640
2, 4009, Pitch_bend_c, 0, 8576
2, 4011, Note_on_c, 0, 75, 0
2, 4011, Pitch_bend_c, 0, 8800
2, 4025, Pitch_bend_c, 0, 8192
2, 4026, Note_on_c, 0, 76, 114
2, 4027, Pitch_bend_c, 0, 8608
2, 4029, Pitch_bend_c, 0, 8672
2, 4030, Pitch_bend_c, 0, 8768
2, 4033, Pitch_bend_c, 0, 8800
2, 4034, Pitch_bend_c, 0, 8768
2, 4035, Pitch_bend_c, 0, 8512
2, 4037, Pitch_bend_c, 0, 8224
2, 4038, Pitch_bend_c, 0, 7840
2, 4039, Pitch_bend_c, 0, 7328
2, 4040, Pitch_bend_c, 0, 6752
2, 4042, Pitch_bend_c, 0, 6176
2, 4043, Pitch_bend_c, 0, 5600
2, 4044, Pitch_bend_c, 0, 5248
2, 4046, Pitch_bend_c, 0, 5056
2, 4047, Pitch_bend_c, 0, 5024
2, 4048, Pitch_bend_c, 0, 4896
2, 4049, Pitch_bend_c, 0, 4704
2, 4051, Pitch_bend_c, 0, 4384
2, 4052, Pitch_bend_c, 0, 4064
2, 4054, Pitch_bend_c, 0, 3840
2, 4055, Pitch_bend_c, 0, 3712
2, 4056, Pitch_bend_c, 0, 3680
2, 4059, Pitch_bend_c, 0, 3648
2, 4060, Pitch_bend_c, 0, 3680
2, 4061, Pitch_bend_c, 0, 3552
2, 4062, Note_on_c, 0, 76, 0
2, 4062, Pitch_bend_c, 0, 3712
2, 4064, Note_on_c, 0, 73, 111
2, 4064, Pitch_bend_c, 0, 8192
2, 4065, Pitch_bend_c, 0, 8128
2, 4066, Pitch_bend_c, 0, 8160
2, 4067, Pitch_bend_c, 0, 8128
2, 4069, Pitch_bend_c, 0, 8064
2, 4073, Pitch_bend_c, 0, 8128
2, 4074, Pitch_bend_c, 0, 8032
2, 4076, Pitch_bend_c, 0, 8064
2, 4077, Pitch_bend_c, 0, 8192
2, 4079, Pitch_bend_c, 0, 8416
2, 4080, Pitch_bend_c, 0, 8864
2, 4081, Pitch_bend_c, 0, 9344
2, 4082, Pitch_bend_c, 0, 9856
2, 4083, Pitch_bend_c, 0, 10432
2, 4085, Pitch_bend_c, 0, 10976
2, 4086, Pitch_bend_c, 0, 11328
2, 4087, Pitch_bend_c, 0, 11552
2, 4089, Pitch_bend_c, 0, 11648
2, 4090, Pitch_bend_c, 0, 11616
2, 4091, Pitch_bend_c, 0, 11360
2, 4092, Note_on_c, 0, 73, 0
2, 4104, Pitch_bend_c, 0, 8192
2, 4105, Note_on_c, 0, 70, 97
2, 4105, Pitch_bend_c, 0, 8384
2, 4106, Pitch_bend_c, 0, 8480
2, 4109, Pitch_bend_c, 0, 8448
2, 4110, Pitch_bend_c, 0, 8416
2, 4111, Pitch_bend_c, 0, 8384
2, 4112, Pitch_bend_c, 0, 8288
2, 4114, Pitch_bend_c, 0, 8224
2, 4115, Pitch_bend_c, 0, 8160
2, 4116, Pitch_bend_c, 0, 8064
2, 4118, Pitch_bend_c, 0, 8032
2, 4121, Pitch_bend_c, 0, 8064
2, 4123, Pitch_bend_c, 0, 8192
2, 4124, Pitch_bend_c, 0, 8512
2, 4125, Pitch_bend_c, 0, 8928
2, 4127, Pitch_bend_c, 0, 9248
2, 4128, Pitch_bend_c, 0, 9440
2, 4129, Pitch_bend_c, 0, 9184
2, 4131, Pitch_bend_c, 0, 8832
2, 4132, Pitch_bend_c, 0, 8416
2, 4133, Pitch_bend_c, 0, 8160
2, 4135, Pitch_bend_c, 0, 8032
2, 4136, Pitch_bend_c, 0, 8064
2, 4138, Pitch_bend_c, 0, 8224
2, 4139, Pitch_bend_c, 0, 8544
2, 4140, Pitch_bend_c, 0, 8928
2, 4141, Pitch_bend_c, 0, 9248
2, 4143, Pitch_bend_c, 0, 9376
2, 4144, Pitch_bend_c, 0, 9088
2, 4145, Pitch_bend_c, 0, 8672
2, 4147, Pitch_bend_c, 0, 8288
2, 4148, Pitch_bend_c, 0, 8032
2, 4149, Pitch_bend_c, 0, 7936
2, 4152, Pitch_bend_c, 0, 7968
2, 4153, Pitch_bend_c, 0, 8032
2, 4154, Pitch_bend_c, 0, 8096
2, 4156, Pitch_bend_c, 0, 8192
2, 4157, Pitch_bend_c, 0, 8224
2, 4158, Note_on_c, 0, 70, 0
2, 4158, Pitch_bend_c, 0, 8192
2, 4171, Note_on_c, 0, 65, 96
2, 4171, Pitch_bend_c, 0, 8384
2, 4174, Pitch_bend_c, 0, 8416
2, 4177, Pitch_bend_c, 0, 8448
2, 4178, Pitch_bend_c, 0, 8480
2, 4179, Pitch_bend_c, 0, 8512
2, 4181, Note_on_c, 0, 65, 0
2, 4183, Note_on_c, 0, 67, 81
2, 4183, Pitch_bend_c, 0, 8448
2, 4189, Pitch_bend_c, 0, 8416
2, 4192, Pitch_bend_c, 0, 8384
2, 4195, Pitch_bend_c, 0, 8352
2, 4196, Pitch_bend_c, 0, 8320
2, 4199, Pitch_bend_c, 0, 8288
2, 4202, Pitch_bend_c, 0, 8256
2, 4204, Pitch_bend_c, 0, 8224
2, 4205, Pitch_bend_c, 0, 8192
2, 4216, Pitch_bend_c, 0, 7872
2, 4218, Pitch_bend_c, 0, 8192
2, 4219, Note_on_c, 0, 67, 0
2, 4219, Note_on_c, 0, 70, 104
2, 4243, Pitch_bend_c, 0, 8160
2, 4245, Pitch_bend_c, 0, 8128
2, 4246, Pitch_bend_c, 0, 8096
2, 4250, Pitch_bend_c, 0, 8064
2, 4254, Pitch_bend_c, 0, 8032
2, 4256, Pitch_bend_c, 0, 8000
2, 4258, Pitch_bend_c, 0, 7968
2, 4262, Pitch_bend_c, 0, 7936
2, 4264, Pitch_bend_c, 0, 7904
2, 4268, Pitch_bend_c, 0, 7936
2, 4269, Pitch_bend_c, 0, 8000
2, 4271, Note_on_c, 0, 70, 0
2, 4271, Pitch_bend_c, 0, 8032
2, 4272, Note_on_c, 0, 73, 96
2, 4273, Pitch_bend_c, 0, 8128
2, 4276, Pitch_bend_c, 0, 8064
2, 4279, Pitch_bend_c, 0, 8032
2, 4280, Pitch_bend_c, 0, 8000
2, 4285, Pitch_bend_c, 0, 8032
2, 4287, Pitch_bend_c, 0, 8064
2, 4292, Pitch_bend_c, 0, 8032
2, 4293, Pitch_bend_c, 0, 8000
2, 4295, Pitch_bend_c, 0, 7968
2, 4296, Pitch_bend_c, 0, 7936
2, 4299, Pitch_bend_c, 0, 7872
2, 4301, Pitch_bend_c, 0, 7840
2, 4303, Pitch_bend_c, 0, 7808
2, 4306, Pitch_bend_c, 0, 7840
2, 4309, Pitch_bend_c, 0, 7872
2, 4310, Pitch_bend_c, 0, 7936
2, 4311, Pitch_bend_c, 0, 8000
2, 4313, Pitch_bend_c, 0, 8128
2, 4314, Pitch_bend_c, 0, 8416
2, 4315, Pitch_bend_c, 0, 8928
2, 4317, Pitch_bend_c, 0, 11168
2, 4318, Pitch_bend_c, 0, 11328
2, 4319, Pitch_bend_c, 0, 11552
2, 4320, Pitch_bend_c, 0, 11904
2, 4322, Pitch_bend_c, 0, 12160
2, 4323, Pitch_bend_c, 0, 12384
2, 4324, Pitch_bend_c, 0, 12480
2, 4325, Note_on_c, 0, 73, 0
2, 4441, Pitch_bend_c, 0, 8192
2, 4444, Note_on_c, 0, 78, 116
2, 4444, Pitch_bend_c, 0, 9216
2, 4445, Pitch_bend_c, 0, 9504
2, 4446, Pitch_bend_c, 0, 9440
2, 4448, Pitch_bend_c, 0, 9504
2, 4449, Pitch_bend_c, 0, 9760
2, 4450, Pitch_bend_c, 0, 10080
2, 4451, Pitch_bend_c, 0, 10560
2, 4453, Pitch_bend_c, 0, 11072
2, 4454, Pitch_bend_c, 0, 11328
2, 4455, Pitch_bend_c, 0, 11584
2, 4457, Pitch_bend_c, 0, 11776
2, 4458, Pitch_bend_c, 0, 11808
2, 4459, Pitch_bend_c, 0, 11872
2, 4460, Pitch_bend_c, 0, 11968
2, 4462, Pitch_bend_c, 0, 12032
2, 4463, Pitch_bend_c, 0, 12128
2, 4468, Pitch_bend_c, 0, 12096
2, 4471, Pitch_bend_c, 0, 12032
2, 4472, Pitch_bend_c, 0, 11968
2, 4474, Pitch_bend_c, 0, 11936
2, 4475, Pitch_bend_c, 0, 11808
2, 4476, Pitch_bend_c, 0, 11648
2, 4477, Pitch_bend_c, 0, 11552
2, 4479, Pitch_bend_c, 0, 11424
2, 4480, Pitch_bend_c, 0, 11264
2, 4482, Pitch_bend_c, 0, 11168
2, 4483, Pitch_bend_c, 0, 11008
2, 4484, Pitch_bend_c, 0, 10784
2, 4485, Pitch_bend_c, 0, 10528
2, 4487, Pitch_bend_c, 0, 10240
2, 4488, Pitch_bend_c, 0, 10048
2, 4489, Pitch_bend_c, 0, 9888
2, 4490, Pitch_bend_c, 0, 9664
2, 4492, Pitch_bend_c, 0, 9504
2, 4493, Pitch_bend_c, 0, 9280
2, 4494, Pitch_bend_c, 0, 9120
2, 4496, Pitch_bend_c, 0, 8896
2, 4497, Pitch_bend_c, 0, 8640
2, 4498, Pitch_bend_c, 0, 8352
2, 4499, Pitch_bend_c, 0, 8192
2, 4501, Pitch_bend_c, 0, 7968
2, 4502, Pitch_bend_c, 0, 7936
2, 4503, Pitch_bend_c, 0, 8640
2, 4504, Note_on_c, 0, 78, 0
2, 4507, Pitch_bend_c, 0, 8192
2, 4508, Note_on_c, 0, 77, 115
2, 4508, Pitch_bend_c, 0, 7904
2, 4509, Pitch_bend_c, 0, 8064
2, 4512, Pitch_bend_c, 0, 8000
2, 4513, Pitch_bend_c, 0, 7968
2, 4514, Pitch_bend_c, 0, 7904
2, 4518, Pitch_bend_c, 0, 7872
2, 4520, Pitch_bend_c, 0, 7904
2, 4521, Note_on_c, 0, 77, 0
2, 4521, Pitch_bend_c, 0, 8000
2, 4524, Pitch_bend_c, 0, 8192
2, 4536, Note_on_c, 0, 80, 124
2, 4536, Pitch_bend_c, 0, 5120
2, 4537, Pitch_bend_c, 0, 4992
2, 4540, Pitch_bend_c, 0, 5056
2, 4541, Pitch_bend_c, 0, 5184
2, 4542, Pitch_bend_c, 0, 5408
2, 4544, Pitch_bend_c, 0, 5632
2, 4545, Pitch_bend_c, 0, 5856
2, 4546, Pitch_bend_c, 0, 6144
2, 4547, Pitch_bend_c, 0, 6432
2, 4549, Pitch_bend_c, 0, 6784
2, 4550, Pitch_bend_c, 0, 7168
2, 4551, Pitch_bend_c, 0, 7520
2, 4553, Pitch_bend_c, 0, 7808
2, 4554, Pitch_bend_c, 0, 8032
2, 4555, Pitch_bend_c, 0, 8096
2, 4556, Pitch_bend_c, 0, 8160
2, 4558, Pitch_bend_c, 0, 8096
2, 4559, Pitch_bend_c, 0, 7968
2, 4560, Pitch_bend_c, 0, 7872
2, 4562, Pitch_bend_c, 0, 7744
2, 4563, Pitch_bend_c, 0, 7648
2, 4564, Note_on_c, 0, 80, 0
2, 4564, Pitch_bend_c, 0, 8096
2, 4613, Pitch_bend_c, 0, 8192
2, 4614, Note_on_c, 0, 79, 116
2, 4614, Pitch_bend_c, 0, 8960
2, 4622, Pitch_bend_c, 0, 8896
2, 4627, Note_on_c, 0, 79, 0
2, 4627, Pitch_bend_c, 0, 8992
2, 4631, Pitch_bend_c, 0, 8192
2, 4632, Note_on_c, 0, 77, 102
2, 4632, Pitch_bend_c, 0, 8800
2, 4642, Pitch_bend_c, 0, 8736
2, 4644, Note_on_c, 0, 77, 0
2, 4644, Pitch_bend_c, 0, 8800
2, 4645, Pitch_bend_c, 0, 8192
2, 4646, Note_on_c, 0, 72, 109
2, 4646, Pitch_bend_c, 0, 9152
2, 4648, Pitch_bend_c, 0, 9408
2, 4649, Pitch_bend_c, 0, 9856
2, 4651, Pitch_bend_c, 0, 10432
2, 4652, Pitch_bend_c, 0, 11232
2, 4653, Pitch_bend_c, 0, 11840
2, 4654, Pitch_bend_c, 0, 12288
2, 4656, Pitch_bend_c, 0, 12512
2, 4657, Pitch_bend_c, 0, 12288
2, 4659, Pitch_bend_c, 0, 8864
2, 4660, Pitch_bend_c, 0, 8672
2, 4661, Pitch_bend_c, 0, 8448
2, 4662, Pitch_bend_c, 0, 8288
2, 4664, Pitch_bend_c, 0, 8192
2, 4668, Note_on_c, 0, 72, 0
2, 4668, Pitch_bend_c, 0, 8448
2, 4671, Pitch_bend_c, 0, 8192
2, 4672, Note_on_c, 0, 70, 70
2, 4673, Pitch_bend_c, 0, 8224
2, 4676, Pitch_bend_c, 0, 8256
2, 4679, Pitch_bend_c, 0, 8288
2, 4681, Note_on_c, 0, 70, 0
2, 4681, Pitch_bend_c, 0, 8320
2, 4683, Pitch_bend_c, 0, 8192
2, 4684, Note_on_c, 0, 67, 34
2, 4687, Pitch_bend_c, 0, 8224
2, 4689, Pitch_bend_c, 0, 8256
2, 4690, Pitch_bend_c, 0, 8288
2, 4695, Pitch_bend_c, 0, 8256
2, 4697, Pitch_bend_c, 0, 8032
2, 4698, Note_on_c, 0, 67, 0
2, 4698, Pitch_bend_c, 0, 8192
2, 4699, Note_on_c, 0, 70, 87
2, 4699, Pitch_bend_c, 0, 8288
2, 4700, Pitch_bend_c, 0, 8192
2, 4702, Pitch_bend_c, 0, 8224
2, 4707, Pitch_bend_c, 0, 8256
2, 4708, Pitch_bend_c, 0, 8192
2, 4712, Pitch_bend_c, 0, 8288
2, 4713, Pitch_bend_c, 0, 8448
2, 4714, Pitch_bend_c, 0, 8576
2, 4716, Pitch_bend_c, 0, 8608
2, 4717, Pitch_bend_c, 0, 8448
2, 4718, Pitch_bend_c, 0, 8224
2, 4720, Pitch_bend_c, 0, 8096
2, 4721, Pitch_bend_c, 0, 7936
2, 4722, Pitch_bend_c, 0, 7904
2, 4723, Pitch_bend_c, 0, 7936
2, 4725, Pitch_bend_c, 0, 8064
2, 4726, Pitch_bend_c, 0, 8448
2, 4727, Pitch_bend_c, 0, 8928
2, 4729, Pitch_bend_c, 0, 9408
2, 4730, Pitch_bend_c, 0, 9664
2, 4731, Pitch_bend_c, 0, 9472
2, 4732, Pitch_bend_c, 0, 9024
2, 4734, Pitch_bend_c, 0, 8512
2, 4735, Pitch_bend_c, 0, 8128
2, 4736, Pitch_bend_c, 0, 7904
2, 4738, Pitch_bend_c, 0, 7840
2, 4739, Pitch_bend_c, 0, 7872
2, 4740, Pitch_bend_c, 0, 8096
2, 4742, Pitch_bend_c, 0, 8544
2, 4743, Pitch_bend_c, 0, 9152
2, 4744, Pitch_bend_c, 0, 9792
2, 4746, Pitch_bend_c, 0, 10208
2, 4747, Pitch_bend_c, 0, 10272
2, 4748, Pitch_bend_c, 0, 10176
2, 4750, Note_on_c, 0, 70, 0
2, 4750, Pitch_bend_c, 0, 9824
2, 4752, Pitch_bend_c, 0, 8192
2, 4753, Note_on_c, 0, 72, 83
2, 4753, Pitch_bend_c, 0, 8992
2, 4756, Pitch_bend_c, 0, 8896
2, 4758, Pitch_bend_c, 0, 8736
2, 4759, Pitch_bend_c, 0, 8512
2, 4761, Pitch_bend_c, 0, 8320
2, 4762, Pitch_bend_c, 0, 8256
2, 4763, Pitch_bend_c, 0, 8448
2, 4764, Pitch_bend_c, 0, 8896
2, 4766, Pitch_bend_c, 0, 11136
2, 4767, Pitch_bend_c, 0, 11424
2, 4768, Pitch_bend_c, 0, 11808
2, 4770, Pitch_bend_c, 0, 12320
2, 4771, Pitch_bend_c, 0, 12800
2, 4772, Pitch_bend_c, 0, 13024
2, 4774, Note_on_c, 0, 72, 0
2, 4774, Pitch_bend_c, 0, 13120
2, 4796, Note_on_c, 0, 70, 112
2, 4796, Pitch_bend_c, 0, 8192
2, 4797, Pitch_bend_c, 0, 8800
2, 4799, Pitch_bend_c, 0, 8672
2, 4800, Pitch_bend_c, 0, 8576
2, 4801, Pitch_bend_c, 0, 8544
2, 4803, Pitch_bend_c, 0, 8512
2, 4804, Pitch_bend_c, 0, 8544
2, 4805, Pitch_bend_c, 0, 8576
2, 4809, Pitch_bend_c, 0, 8544
2, 4812, Pitch_bend_c, 0, 8512
2, 4816, Pitch_bend_c, 0, 8480
2, 4817, Note_on_c, 0, 70, 0
2, 4817, Pitch_bend_c, 0, 8544
2, 4820, Note_on_c, 0, 68, 83
2, 4820, Pitch_bend_c, 0, 8224
2, 4824, Pitch_bend_c, 0, 8192
2, 4827, Note_on_c, 0, 68, 0
2, 4827, Pitch_bend_c, 0, 8160
2, 4832, Pitch_bend_c, 0, 8192
2, 4835, Note_on_c, 0, 63, 102
2, 4836, Pitch_bend_c, 0, 8224
2, 4839, Pitch_bend_c, 0, 8256
2, 4842, Pitch_bend_c, 0, 8288
2, 4843, Pitch_bend_c, 0, 8448
2, 4844, Pitch_bend_c, 0, 11008
2, 4846, Pitch_bend_c, 0, 11488
2, 4847, Pitch_bend_c, 0, 11968
2, 4848, Pitch_bend_c, 0, 12384
2, 4850, Pitch_bend_c, 0, 12640
2, 4851, Pitch_bend_c, 0, 12128
2, 4852, Pitch_bend_c, 0, 9696
2, 4853, Pitch_bend_c, 0, 9504
2, 4855, Pitch_bend_c, 0, 9280
2, 4856, Pitch_bend_c, 0, 8960
2, 4857, Pitch_bend_c, 0, 8672
2, 4859, Pitch_bend_c, 0, 8576
2, 4860, Pitch_bend_c, 0, 8544
2, 4861, Pitch_bend_c, 0, 8480
2, 4862, Pitch_bend_c, 0, 8416
2, 4864, Pitch_bend_c, 0, 0
2, 4865, Pitch_bend_c, 0, 128
2, 4866, Pitch_bend_c, 0, 192
2, 4868, Pitch_bend_c, 0, 224
2, 4869, Pitch_bend_c, 0, 288
2, 4871, Pitch_bend_c, 0, 224
2, 4872, Pitch_bend_c, 0, 128
2, 4873, Note_on_c, 0, 63, 0
2, 4873, Pitch_bend_c, 0, 8192
2, 4877, Note_on_c, 0, 58, 92
2, 4877, Pitch_bend_c, 0, 8320
2, 4878, Pitch_bend_c, 0, 8160
2, 4880, Pitch_bend_c, 0, 8032
2, 4881, Pitch_bend_c, 0, 7904
2, 4882, Pitch_bend_c, 0, 8288
2, 4883, Note_on_c, 0, 58, 0
2, 4890, Note_on_c, 0, 63, 77
2, 4890, Pitch_bend_c, 0, 8064
2, 4891, Pitch_bend_c, 0, 8032
2, 4894, Pitch_bend_c, 0, 8064
2, 4902, Pitch_bend_c, 0, 8032
2, 4903, Pitch_bend_c, 0, 8000
2, 4909, Pitch_bend_c, 0, 7968
2, 4911, Pitch_bend_c, 0, 8000
2, 4912, Note_on_c, 0, 65, 118
2, 4912, Pitch_bend_c, 0, 8288
2, 4913, Pitch_bend_c, 0, 8064
2, 4914, Pitch_bend_c, 0, 8192
2, 4915, Pitch_bend_c, 0, 8256
2, 4916, Note_on_c, 0, 63, 0
2, 4916, Pitch_bend_c, 0, 8320
2, 4918, Pitch_bend_c, 0, 8384
2, 4919, Pitch_bend_c, 0, 8448
2, 4920, Pitch_bend_c, 0, 8608
2, 4921, Note_on_c, 0, 65, 0
2, 4921, Pitch_bend_c, 0, 8064
2, 4923, Pitch_bend_c, 0, 8000
2, 4924, Pitch_bend_c, 0, 8192
2, 4925, Note_on_c, 0, 61, 92
2, 4925, Pitch_bend_c, 0, 8448
2, 4926, Pitch_bend_c, 0, 8384
2, 4927, Pitch_bend_c, 0, 8192
2, 4928, Pitch_bend_c, 0, 8448
2, 4929, Pitch_bend_c, 0, 8256
2, 4931, Pitch_bend_c, 0, 8288
2, 4932, Pitch_bend_c, 0, 8352
2, 4933, Pitch_bend_c, 0, 8448
2, 4935, Pitch_bend_c, 0, 8544
2, 4936, Pitch_bend_c, 0, 8768
2, 4937, Pitch_bend_c, 0, 9120
2, 4938, Pitch_bend_c, 0, 9408
2, 4940, Pitch_bend_c, 0, 9664
2, 4941, Pitch_bend_c, 0, 9952
2, 4943, Pitch_bend_c, 0, 10304
2, 4944, Pitch_bend_c, 0, 10848
2, 4945, Pitch_bend_c, 0, 11520
2, 4946, Pitch_bend_c, 0, 12064
2, 4948, Pitch_bend_c, 0, 12416
2, 4949, Pitch_bend_c, 0, 12256
2, 4950, Pitch_bend_c, 0, 11744
2, 4951, Note_on_c, 0, 61, 0
2, 4952, Pitch_bend_c, 0, 8192
2, 4954, Note_on_c, 0, 58, 91
2, 4957, Pitch_bend_c, 0, 8224
2, 4959, Pitch_bend_c, 0, 8256
2, 4961, Pitch_bend_c, 0, 8160
2, 4963, Note_on_c, 0, 58, 0
2, 4963, Pitch_bend_c, 0, 8192
2, 4964, Note_on_c, 0, 56, 68
2, 4964, Pitch_bend_c, 0, 8032
2, 4965, Pitch_bend_c, 0, 8096
2, 4970, Pitch_bend_c, 0, 8064
2, 4971, Note_on_c, 0, 56, 0
2, 4971, Pitch_bend_c, 0, 8192
2, 4974, Note_on_c, 0, 53, 64
2, 4974, Pitch_bend_c, 0, 8064
2, 4975, Pitch_bend_c, 0, 8032
2, 4978, Pitch_bend_c, 0, 8000
2, 4980, Pitch_bend_c, 0, 7936
2, 4981, Pitch_bend_c, 0, 7904
2, 4983, Pitch_bend_c, 0, 7872
2, 4984, Pitch_bend_c, 0, 7840
2, 4985, Pitch_bend_c, 0, 7808
2, 4990, Pitch_bend_c, 0, 7904
2, 4992, Pitch_bend_c, 0, 8288
2, 4993, Pitch_bend_c, 0, 8800
2, 4994, Pitch_bend_c, 0, 9216
2, 4995, Pitch_bend_c, 0, 9504
2, 4997, Pitch_bend_c, 0, 9280
2, 4998, Pitch_bend_c, 0, 8768
2, 4999, Pitch_bend_c, 0, 8320
2, 5000, Pitch_bend_c, 0, 7904
2, 5002, Pitch_bend_c, 0, 5728
2, 5003, Pitch_bend_c, 0, 5856
2, 5004, Pitch_bend_c, 0, 5952
2, 5005, Note_on_c, 0, 53, 0
2, 5005, Pitch_bend_c, 0, 8320
2, 5089, Note_on_c, 0, 68, 116
2, 5089, Pitch_bend_c, 0, 8192
2, 5090, Pitch_bend_c, 0, 8448
2, 5091, Pitch_bend_c, 0, 8576
2, 5092, Pitch_bend_c, 0, 8608
2, 5096, Pitch_bend_c, 0, 8640
2, 5097, Pitch_bend_c, 0, 8608
2, 5099, Pitch_bend_c, 0, 8480
2, 5100, Note_on_c, 0, 68, 0
2, 5100, Note_on_c, 0, 64, 96
2, 5100, Pitch_bend_c, 0, 12160
2, 5107, Note_on_c, 0, 64, 0
2, 5109, Pitch_bend_c, 0, 8192
2, 5111, Note_on_c, 0, 63, 103
2, 5111, Pitch_bend_c, 0, 8256
2, 5116, Pitch_bend_c, 0, 8192
2, 5117, Note_on_c, 0, 63, 0
2, 5119, Note_on_c, 0, 61, 96
2, 5119, Pitch_bend_c, 0, 8128
2, 5120, Pitch_bend_c, 0, 8160
2, 5126, Note_on_c, 0, 61, 0
2, 5126, Pitch_bend_c, 0, 8224
2, 5128, Note_on_c, 0, 58, 88
2, 5128, Pitch_bend_c, 0, 8064
2, 5131, Pitch_bend_c, 0, 8096
2, 5144, Pitch_bend_c, 0, 8128
2, 5152, Pitch_bend_c, 0, 8096
2, 5164, Note_on_c, 0, 58, 0
2, 5165, Pitch_bend_c, 0, 8192
2, 5166, Note_on_c, 0, 61, 112
2, 5166, Pitch_bend_c, 0, 8160
2, 5167, Pitch_bend_c, 0, 8192
2, 5172, Pitch_bend_c, 0, 8288
2, 5174, Pitch_bend_c, 0, 8352
2, 5175, Note_on_c, 0, 61, 0
2, 5177, Pitch_bend_c, 0, 8192
2, 5178, Note_on_c, 0, 58, 101
2, 5178, Pitch_bend_c, 0, 8096
2, 5179, Pitch_bend_c, 0, 8128
2, 5180, Pitch_bend_c, 0, 8160
2, 5181, Pitch_bend_c, 0, 8192
2, 5183, Pitch_bend_c, 0, 8128
2, 5185, Note_on_c, 0, 58, 0
2, 5185, Note_on_c, 0, 56, 89
2, 5185, Pitch_bend_c, 0, 8192
2, 5186, Pitch_bend_c, 0, 7712
2, 5188, Pitch_bend_c, 0, 7872
2, 5189, Pitch_bend_c, 0, 7968
2, 5191, Pitch_bend_c, 0, 8096
2, 5192, Pitch_bend_c, 0, 8192
2, 5196, Note_on_c, 0, 56, 0
2, 5198, Note_on_c, 0, 53, 99
2, 5198, Pitch_bend_c, 0, 7872
2, 5199, Pitch_bend_c, 0, 7840
2, 5200, Pitch_bend_c, 0, 7872
2, 5202, Pitch_bend_c, 0, 7904
2, 5207, Pitch_bend_c, 0, 7872
2, 5209, Pitch_bend_c, 0, 7840
2, 5230, Pitch_bend_c, 0, 7808
2, 5239, Pitch_bend_c, 0, 7840
2, 5246, Pitch_bend_c, 0, 7808
2, 5247, Pitch_bend_c, 0, 7776
2, 5248, Pitch_bend_c, 0, 7744
2, 5250, Pitch_bend_c, 0, 7712
2, 5251, Pitch_bend_c, 0, 7680
2, 5255, Pitch_bend_c, 0, 7712
2, 5256, Pitch_bend_c, 0, 7776
2, 5257, Pitch_bend_c, 0, 7808
2, 5260, Pitch_bend_c, 0, 7840
2, 5273, Pitch_bend_c, 0, 7872
2, 5276, Note_on_c, 0, 53, 0
2, 5276, Pitch_bend_c, 0, 7840
2, 5282, Pitch_bend_c, 0, 8192
2, 5283, Note_on_c, 0, 56, 118
2, 5283, Pitch_bend_c, 0, 8032
2, 5284, Pitch_bend_c, 0, 8064
2, 5287, Pitch_bend_c, 0, 8032
2, 5288, Pitch_bend_c, 0, 16256
2, 5289, Pitch_bend_c, 0, 16224
2, 5290, Pitch_bend_c, 0, 16032
2, 5292, Pitch_bend_c, 0, 8000
2, 5294, Pitch_bend_c, 0, 8032
2, 5297, Pitch_bend_c, 0, 8064
2, 5301, Pitch_bend_c, 0, 8096
2, 5302, Pitch_bend_c, 0, 8064
2, 5304, Note_on_c, 0, 56, 0
2, 5304, Note_on_c, 0, 53, 91
2, 5304, Pitch_bend_c, 0, 7808
2, 5311, Pitch_bend_c, 0, 7840
2, 5312, Pitch_bend_c, 0, 7872
2, 5315, Pitch_bend_c, 0, 7616
2, 5316, Note_on_c, 0, 53, 0
2, 5316, Pitch_bend_c, 0, 8192
2, 5317, Note_on_c, 0, 56, 95
2, 5317, Pitch_bend_c, 0, 8032
2, 5323, Pitch_bend_c, 0, 8064
2, 5328, Pitch_bend_c, 0, 8032
2, 5330, Pitch_bend_c, 0, 8000
2, 5332, Pitch_bend_c, 0, 7968
2, 5334, Pitch_bend_c, 0, 7936
2, 5336, Pitch_bend_c, 0, 8064
2, 5337, Pitch_bend_c, 0, 16160
2, 5338, Pitch_bend_c, 0, 16128
2, 5347, Pitch_bend_c, 0, 16096
2, 5350, Pitch_bend_c, 0, 16128
2, 5352, Pitch_bend_c, 0, 16160
2, 5360, Pitch_bend_c, 0, 16128
2, 5361, Pitch_bend_c, 0, 16160
2, 5366, Pitch_bend_c, 0, 16192
2, 5372, Pitch_bend_c, 0, 16160
2, 5374, Pitch_bend_c, 0, 16128
2, 5376, Pitch_bend_c, 0, 16096
2, 5381, Pitch_bend_c, 0, 16128
2, 5382, Pitch_bend_c, 0, 16000
2, 5383, Pitch_bend_c, 0, 15680
2, 5384, Note_on_c, 0, 56, 0
2, 5384, Pitch_bend_c, 0, 16128
2, 5443, Lyric_t, "Wom"
2, 5464, Lyric_t, "an, "
2, 5477, Lyric_t, "I "
2, 5509, Lyric_t, "don't "
2, 5527, Lyric_t, "want "
2, 5541, Lyric_t, "a "
2, 5555, Lyric_t, "soul "
2, 5555, Lyric_t, "\015"
2, 5698, Pitch_bend_c, 0, 8192
2, 5699, Note_on_c, 0, 63, 120
2, 5699, Pitch_bend_c, 0, 8320
2, 5703, Pitch_bend_c, 0, 8576
2, 5704, Pitch_bend_c, 0, 9024
2, 5706, Pitch_bend_c, 0, 9696
2, 5707, Pitch_bend_c, 0, 10496
2, 5708, Pitch_bend_c, 0, 11168
2, 5709, Pitch_bend_c, 0, 11744
2, 5711, Pitch_bend_c, 0, 12128
2, 5712, Pitch_bend_c, 0, 12384
2, 5713, Pitch_bend_c, 0, 12640
2, 5715, Pitch_bend_c, 0, 12832
2, 5716, Pitch_bend_c, 0, 12960
2, 5717, Pitch_bend_c, 0, 13024
2, 5719, Pitch_bend_c, 0, 13152
2, 5720, Pitch_bend_c, 0, 13376
2, 5722, Pitch_bend_c, 0, 13632
2, 5723, Pitch_bend_c, 0, 13824
2, 5724, Pitch_bend_c, 0, 13920
2, 5727, Pitch_bend_c, 0, 13888
2, 5728, Pitch_bend_c, 0, 13856
2, 5729, Pitch_bend_c, 0, 13920
2, 5731, Pitch_bend_c, 0, 13888
2, 5733, Pitch_bend_c, 0, 13856
2, 5735, Note_on_c, 0, 63, 0
2, 5735, Pitch_bend_c, 0, 13888
2, 5753, Pitch_bend_c, 0, 8192
2, 5753, Note_on_c, 0, 63, 118
2, 5754, Pitch_bend_c, 0, 8480
2, 5755, Pitch_bend_c, 0, 8384
2, 5756, Pitch_bend_c, 0, 8416
2, 5757, Pitch_bend_c, 0, 8448
2, 5758, Pitch_bend_c, 0, 8544
2, 5760, Pitch_bend_c, 0, 8672
2, 5761, Pitch_bend_c, 0, 8608
2, 5763, Pitch_bend_c, 0, 8480
2, 5764, Pitch_bend_c, 0, 8576
2, 5765, Pitch_bend_c, 0, 8672
2, 5766, Pitch_bend_c, 0, 8736
2, 5768, Note_on_c, 0, 63, 0
2, 5768, Note_on_c, 0, 60, 103
2, 5768, Pitch_bend_c, 0, 12000
2, 5769, Pitch_bend_c, 0, 12032
2, 5771, Pitch_bend_c, 0, 11936
2, 5772, Pitch_bend_c, 0, 11968
2, 5773, Pitch_bend_c, 0, 12128
2, 5775, Pitch_bend_c, 0, 12224
2, 5776, Pitch_bend_c, 0, 12384
2, 5777, Pitch_bend_c, 0, 12416
2, 5779, Note_on_c, 0, 60, 0
2, 5780, Pitch_bend_c, 0, 8192
2, 5781, Note_on_c, 0, 58, 77
2, 5781, Pitch_bend_c, 0, 8128
2, 5782, Pitch_bend_c, 0, 8192
2, 5789, Pitch_bend_c, 0, 8160
2, 5791, Pitch_bend_c, 0, 8128
2, 5792, Pitch_bend_c, 0, 8096
2, 5799, Pitch_bend_c, 0, 8064
2, 5800, Pitch_bend_c, 0, 8032
2, 5801, Pitch_bend_c, 0, 8000
2, 5803, Pitch_bend_c, 0, 7968
2, 5804, Pitch_bend_c, 0, 8096
2, 5806, Pitch_bend_c, 0, 8352
2, 5807, Pitch_bend_c, 0, 8864
2, 5808, Pitch_bend_c, 0, 9408
2, 5809, Pitch_bend_c, 0, 9792
2, 5811, Pitch_bend_c, 0, 9952
2, 5812, Pitch_bend_c, 0, 9632
2, 5813, Pitch_bend_c, 0, 9056
2, 5815, Pitch_bend_c, 0, 8480
2, 5816, Pitch_bend_c, 0, 8096
2, 5817, Pitch_bend_c, 0, 7904
2, 5820, Pitch_bend_c, 0, 8032
2, 5821, Pitch_bend_c, 0, 8192
2, 5823, Pitch_bend_c, 0, 8320
2, 5824, Pitch_bend_c, 0, 8480
2, 5825, Pitch_bend_c, 0, 8448
2, 5826, Pitch_bend_c, 0, 8320
2, 5828, Pitch_bend_c, 0, 8224
2, 5829, Pitch_bend_c, 0, 8192
2, 5830, Pitch_bend_c, 0, 8128
2, 5837, Pitch_bend_c, 0, 8096
2, 5838, Pitch_bend_c, 0, 8064
2, 5839, Pitch_bend_c, 0, 8032
2, 5841, Pitch_bend_c, 0, 7968
2, 5842, Pitch_bend_c, 0, 7936
2, 5844, Pitch_bend_c, 0, 7904
2, 5845, Pitch_bend_c, 0, 7872
2, 5846, Pitch_bend_c, 0, 7840
2, 5847, Pitch_bend_c, 0, 7808
2, 5849, Pitch_bend_c, 0, 7936
2, 5850, Note_on_c, 0, 58, 0
2, 5853, Pitch_bend_c, 0, 8192
2, 5854, Note_on_c, 0, 61, 120
2, 5854, Pitch_bend_c, 0, 8576
2, 5855, Pitch_bend_c, 0, 8352
2, 5857, Pitch_bend_c, 0, 8288
2, 5858, Pitch_bend_c, 0, 8256
2, 5859, Pitch_bend_c, 0, 8224
2, 5861, Pitch_bend_c, 0, 8192
2, 5862, Pitch_bend_c, 0, 8224
2, 5864, Pitch_bend_c, 0, 8192
2, 5869, Pitch_bend_c, 0, 8160
2, 5870, Pitch_bend_c, 0, 16352
2, 5871, Pitch_bend_c, 0, 16288
2, 5872, Pitch_bend_c, 0, 16256
2, 5874, Pitch_bend_c, 0, 16224
2, 5875, Pitch_bend_c, 0, 16160
2, 5878, Pitch_bend_c, 0, 16096
2, 5880, Pitch_bend_c, 0, 16320
2, 5881, Note_on_c, 0, 61, 0
2, 5885, Note_on_c, 0, 65, 119
2, 5885, Pitch_bend_c, 0, 8384
2, 5886, Pitch_bend_c, 0, 8352
2, 5888, Pitch_bend_c, 0, 8320
2, 5890, Pitch_bend_c, 0, 8352
2, 5891, Pitch_bend_c, 0, 8320
2, 5893, Pitch_bend_c, 0, 8288
2, 5899, Pitch_bend_c, 0, 8416
2, 5901, Pitch_bend_c, 0, 8192
2, 5901, Note_on_c, 0, 70, 121
2, 5909, Note_on_c, 0, 65, 0
2, 5910, Note_on_c, 0, 70, 0
2, 5920, Note_on_c, 0, 69, 114
2, 5920, Pitch_bend_c, 0, 8416
2, 5922, Pitch_bend_c, 0, 8448
2, 5925, Pitch_bend_c, 0, 8416
2, 5926, Pitch_bend_c, 0, 8352
2, 5928, Pitch_bend_c, 0, 8256
2, 5929, Pitch_bend_c, 0, 8160
2, 5930, Pitch_bend_c, 0, 8096
2, 5932, Pitch_bend_c, 0, 11904
2, 5933, Pitch_bend_c, 0, 11936
2, 5934, Pitch_bend_c, 0, 11968
2, 5937, Pitch_bend_c, 0, 12000
2, 5938, Pitch_bend_c, 0, 12032
2, 5939, Pitch_bend_c, 0, 12064
2, 5941, Pitch_bend_c, 0, 12128
2, 5942, Pitch_bend_c, 0, 12192
2, 5947, Pitch_bend_c, 0, 12128
2, 5948, Pitch_bend_c, 0, 12096
2, 5950, Pitch_bend_c, 0, 12064
2, 5952, Pitch_bend_c, 0, 12096
2, 5956, Pitch_bend_c, 0, 12160
2, 5957, Pitch_bend_c, 0, 12448
2, 5959, Pitch_bend_c, 0, 12960
2, 5960, Pitch_bend_c, 0, 13600
2, 5961, Pitch_bend_c, 0, 14208
2, 5963, Pitch_bend_c, 0, 14496
2, 5965, Pitch_bend_c, 0, 14176
2, 5967, Pitch_bend_c, 0, 11936
2, 5968, Pitch_bend_c, 0, 12000
2, 5969, Pitch_bend_c, 0, 12032
2, 5971, Pitch_bend_c, 0, 12064
2, 5972, Pitch_bend_c, 0, 12128
2, 5973, Pitch_bend_c, 0, 12096
2, 5974, Pitch_bend_c, 0, 12320
2, 5976, Pitch_bend_c, 0, 12928
2, 5977, Pitch_bend_c, 0, 15200
2, 5980, Pitch_bend_c, 0, 15104
2, 5981, Pitch_bend_c, 0, 14880
2, 5982, Pitch_bend_c, 0, 14304
2, 5983, Pitch_bend_c, 0, 11872
2, 5985, Pitch_bend_c, 0, 11936
2, 5986, Pitch_bend_c, 0, 11968
2, 5987, Pitch_bend_c, 0, 12000
2, 5988, Pitch_bend_c, 0, 12064
2, 5990, Pitch_bend_c, 0, 12128
2, 5991, Pitch_bend_c, 0, 12576
2, 5992, Pitch_bend_c, 0, 13216
2, 5994, Pitch_bend_c, 0, 13824
2, 5995, Pitch_bend_c, 0, 14240
2, 5996, Pitch_bend_c, 0, 14016
2, 5997, Pitch_bend_c, 0, 13344
2, 5999, Pitch_bend_c, 0, 12768
2, 6000, Pitch_bend_c, 0, 12352
2, 6001, Note_on_c, 0, 69, 0
2, 6001, Pitch_bend_c, 0, 14240
2, 6017, Lyric_t, "hang"
2, 6038, Lyric_t, "in' "
2, 6054, Lyric_t, "a"
2, 6072, Lyric_t, "round "
2, 6093, Lyric_t, "my "
2, 6118, Lyric_t, "house "
2, 6217, Lyric_t, "when "
2, 6230, Lyric_t, "I'm "
2, 6247, Lyric_t, "not "
2, 6262, Lyric_t, "at "
2, 6278, Lyric_t, "home. "
2, 6278, Lyric_t, "\015"
2, 6278, Lyric_t, "\012"
2, 6369, Note_on_c, 0, 70, 84
2, 6369, Pitch_bend_c, 0, 8192
2, 6378, Pitch_bend_c, 0, 8128
2, 6379, Pitch_bend_c, 0, 8064
2, 6381, Pitch_bend_c, 0, 8000
2, 6382, Pitch_bend_c, 0, 7936
2, 6385, Note_on_c, 0, 70, 0
2, 6385, Pitch_bend_c, 0, 8192
2, 6387, Note_on_c, 0, 73, 107
2, 6387, Pitch_bend_c, 0, 8160
2, 6388, Pitch_bend_c, 0, 8192
2, 6394, Pitch_bend_c, 0, 8224
2, 6395, Pitch_bend_c, 0, 8192
2, 6396, Note_on_c, 0, 73, 0
2, 6399, Note_on_c, 0, 75, 112
2, 6399, Pitch_bend_c, 0, 8896
2, 6400, Pitch_bend_c, 0, 8800
2, 6403, Pitch_bend_c, 0, 8768
2, 6404, Pitch_bend_c, 0, 8736
2, 6406, Pitch_bend_c, 0, 8864
2, 6407, Pitch_bend_c, 0, 9280
2, 6408, Pitch_bend_c, 0, 11584
2, 6409, Pitch_bend_c, 0, 11968
2, 6411, Pitch_bend_c, 0, 12576
2, 6412, Pitch_bend_c, 0, 14880
2, 6413, Pitch_bend_c, 0, 14976
2, 6415, Pitch_bend_c, 0, 15104
2, 6416, Pitch_bend_c, 0, 15264
2, 6417, Pitch_bend_c, 0, 15360
2, 6418, Note_on_c, 0, 75, 0
2, 6418, Pitch_bend_c, 0, 15392
2, 6431, Pitch_bend_c, 0, 8192
2, 6432, Note_on_c, 0, 75, 109
2, 6432, Pitch_bend_c, 0, 8224
2, 6436, Pitch_bend_c, 0, 8352
2, 6437, Pitch_bend_c, 0, 8864
2, 6438, Pitch_bend_c, 0, 11808
2, 6440, Pitch_bend_c, 0, 12224
2, 6441, Pitch_bend_c, 0, 12896
2, 6442, Pitch_bend_c, 0, 13632
2, 6443, Pitch_bend_c, 0, 14400
2, 6445, Pitch_bend_c, 0, 14720
2, 6446, Pitch_bend_c, 0, 14784
2, 6447, Pitch_bend_c, 0, 14592
2, 6449, Pitch_bend_c, 0, 14016
2, 6450, Note_on_c, 0, 75, 0
2, 6450, Pitch_bend_c, 0, 14720
2, 6463, Pitch_bend_c, 0, 8192
2, 6464, Note_on_c, 0, 75, 109
2, 6464, Pitch_bend_c, 0, 8256
2, 6466, Pitch_bend_c, 0, 8224
2, 6468, Pitch_bend_c, 0, 8064
2, 6469, Pitch_bend_c, 0, 7904
2, 6470, Pitch_bend_c, 0, 7776
2, 6472, Pitch_bend_c, 0, 7808
2, 6473, Note_on_c, 0, 75, 0
2, 6473, Note_on_c, 0, 72, 92
2, 6473, Pitch_bend_c, 0, 11616
2, 6474, Pitch_bend_c, 0, 11648
2, 6476, Pitch_bend_c, 0, 11680
2, 6477, Pitch_bend_c, 0, 11744
2, 6479, Pitch_bend_c, 0, 11872
2, 6480, Pitch_bend_c, 0, 12032
2, 6481, Note_on_c, 0, 72, 0
2, 6483, Note_on_c, 0, 70, 89
2, 6483, Pitch_bend_c, 0, 8384
2, 6489, Pitch_bend_c, 0, 8352
2, 6490, Pitch_bend_c, 0, 8288
2, 6491, Pitch_bend_c, 0, 8224
2, 6493, Pitch_bend_c, 0, 8192
2, 6494, Pitch_bend_c, 0, 8128
2, 6495, Pitch_bend_c, 0, 8096
2, 6497, Pitch_bend_c, 0, 8192
2, 6498, Pitch_bend_c, 0, 8576
2, 6499, Pitch_bend_c, 0, 11008
2, 6501, Pitch_bend_c, 0, 11072
2, 6503, Pitch_bend_c, 0, 10720
2, 6505, Pitch_bend_c, 0, 8192
2, 6507, Pitch_bend_c, 0, 8128
2, 6508, Pitch_bend_c, 0, 11072
2, 6509, Note_on_c, 0, 70, 0
2, 6510, Pitch_bend_c, 0, 8192
2, 6511, Note_on_c, 0, 73, 116
2, 6511, Pitch_bend_c, 0, 8704
2, 6516, Pitch_bend_c, 0, 8736
2, 6518, Pitch_bend_c, 0, 8832
2, 6520, Note_on_c, 0, 73, 0
2, 6520, Pitch_bend_c, 0, 9024
2, 6522, Note_on_c, 0, 70, 113
2, 6522, Pitch_bend_c, 0, 8192
2, 6523, Pitch_bend_c, 0, 8384
2, 6524, Pitch_bend_c, 0, 8320
2, 6527, Pitch_bend_c, 0, 8416
2, 6528, Pitch_bend_c, 0, 8672
2, 6529, Pitch_bend_c, 0, 8992
2, 6530, Pitch_bend_c, 0, 9120
2, 6532, Pitch_bend_c, 0, 64
2, 6533, Pitch_bend_c, 0, 96
2, 6536, Pitch_bend_c, 0, 128
2, 6537, Pitch_bend_c, 0, 160
2, 6539, Note_on_c, 0, 70, 0
2, 6539, Pitch_bend_c, 0, 8192
2, 6539, Note_on_c, 0, 65, 102
2, 6541, Pitch_bend_c, 0, 8256
2, 6543, Pitch_bend_c, 0, 8288
2, 6546, Pitch_bend_c, 0, 8256
2, 6548, Pitch_bend_c, 0, 8192
2, 6550, Pitch_bend_c, 0, 8160
2, 6552, Pitch_bend_c, 0, 8128
2, 6553, Pitch_bend_c, 0, 8096
2, 6557, Pitch_bend_c, 0, 8064
2, 6559, Pitch_bend_c, 0, 8032
2, 6560, Note_on_c, 0, 65, 0
2, 6588, Pitch_bend_c, 0, 8192
2, 6589, Note_on_c, 0, 75, 113
2, 6589, Pitch_bend_c, 0, 8896
2, 6591, Pitch_bend_c, 0, 9056
2, 6593, Pitch_bend_c, 0, 9504
2, 6594, Pitch_bend_c, 0, 10144
2, 6595, Pitch_bend_c, 0, 12576
2, 6597, Pitch_bend_c, 0, 12864
2, 6598, Pitch_bend_c, 0, 13344
2, 6599, Pitch_bend_c, 0, 13920
2, 6601, Pitch_bend_c, 0, 14592
2, 6602, Pitch_bend_c, 0, 15008
2, 6603, Pitch_bend_c, 0, 15296
2, 6604, Pitch_bend_c, 0, 15392
2, 6606, Pitch_bend_c, 0, 15488
2, 6607, Pitch_bend_c, 0, 15552
2, 6611, Pitch_bend_c, 0, 15488
2, 6612, Pitch_bend_c, 0, 15392
2, 6613, Pitch_bend_c, 0, 15360
2, 6615, Pitch_bend_c, 0, 15264
2, 6616, Pitch_bend_c, 0, 15168
2, 6617, Pitch_bend_c, 0, 15072
2, 6619, Pitch_bend_c, 0, 14912
2, 6620, Pitch_bend_c, 0, 14784
2, 6621, Pitch_bend_c, 0, 14592
2, 6623, Pitch_bend_c, 0, 14336
2, 6624, Pitch_bend_c, 0, 14016
2, 6625, Pitch_bend_c, 0, 13472
2, 6626, Pitch_bend_c, 0, 12768
2, 6628, Pitch_bend_c, 0, 10496
2, 6629, Pitch_bend_c, 0, 10272
2, 6630, Pitch_bend_c, 0, 9760
2, 6632, Pitch_bend_c, 0, 9088
2, 6633, Pitch_bend_c, 0, 8320
2, 6634, Pitch_bend_c, 0, 7904
2, 6635, Pitch_bend_c, 0, 7776
2, 6637, Pitch_bend_c, 0, 7872
2, 6638, Pitch_bend_c, 0, 8064
2, 6639, Note_on_c, 0, 75, 0
2, 6639, Pitch_bend_c, 0, 8320
2, 6641, Note_on_c, 0, 73, 108
2, 6641, Pitch_bend_c, 0, 8128
2, 6645, Pitch_bend_c, 0, 8160
2, 6646, Pitch_bend_c, 0, 8192
2, 6648, Pitch_bend_c, 0, 8224
2, 6649, Note_on_c, 0, 73, 0
2, 6651, Pitch_bend_c, 0, 8192
2, 6652, Note_on_c, 0, 70, 81
2, 6652, Pitch_bend_c, 0, 8352
2, 6657, Pitch_bend_c, 0, 8320
2, 6659, Pitch_bend_c, 0, 8288
2, 6661, Pitch_bend_c, 0, 8256
2, 6669, Pitch_bend_c, 0, 8224
2, 6673, Pitch_bend_c, 0, 8192
2, 6676, Pitch_bend_c, 0, 8160
2, 6678, Pitch_bend_c, 0, 8128
2, 6682, Note_on_c, 0, 70, 0
2, 6682, Pitch_bend_c, 0, 8224
2, 6683, Note_on_c, 0, 73, 109
2, 6683, Pitch_bend_c, 0, 8000
2, 6696, Pitch_bend_c, 0, 8032
2, 6698, Pitch_bend_c, 0, 8064
2, 6699, Pitch_bend_c, 0, 8128
2, 6700, Pitch_bend_c, 0, 8192
2, 6702, Pitch_bend_c, 0, 8256
2, 6703, Pitch_bend_c, 0, 8352
2, 6705, Pitch_bend_c, 0, 8384
2, 6706, Pitch_bend_c, 0, 8448
2, 6707, Pitch_bend_c, 0, 8544
2, 6708, Pitch_bend_c, 0, 8672
2, 6710, Pitch_bend_c, 0, 8864
2, 6711, Pitch_bend_c, 0, 9056
2, 6712, Pitch_bend_c, 0, 9312
2, 6714, Pitch_bend_c, 0, 9664
2, 6715, Pitch_bend_c, 0, 10080
2, 6716, Pitch_bend_c, 0, 10528
2, 6718, Pitch_bend_c, 0, 11008
2, 6719, Pitch_bend_c, 0, 11328
2, 6720, Pitch_bend_c, 0, 11552
2, 6721, Pitch_bend_c, 0, 11680
2, 6724, Note_on_c, 0, 73, 0
2, 6724, Pitch_bend_c, 0, 11648
2, 6812, Lyric_t, "Woh, "
2, 7014, Lyric_t, "I "
2, 7032, Lyric_t, "don't "
2, 7051, Lyric_t, "want "
2, 7075, Lyric_t, "a "
2, 7101, Lyric_t, "soul, "
2, 7138, Lyric_t, "ba"
2, 7159, Lyric_t, "by, "
2, 7159, Lyric_t, "\015"
2, 7163, Pitch_bend_c, 0, 8192
2, 7164, Note_on_c, 0, 65, 81
2, 7164, Pitch_bend_c, 0, 7968
2, 7167, Pitch_bend_c, 0, 8000
2, 7168, Pitch_bend_c, 0, 11904
2, 7170, Pitch_bend_c, 0, 11936
2, 7171, Pitch_bend_c, 0, 12032
2, 7172, Pitch_bend_c, 0, 16000
2, 7173, Pitch_bend_c, 0, 16032
2, 7176, Pitch_bend_c, 0, 16064
2, 7178, Pitch_bend_c, 0, 16096
2, 7180, Note_on_c, 0, 65, 0
2, 7180, Pitch_bend_c, 0, 16128
2, 7185, Pitch_bend_c, 0, 8192
2, 7186, Note_on_c, 0, 70, 100
2, 7186, Pitch_bend_c, 0, 8064
2, 7189, Pitch_bend_c, 0, 8096
2, 7191, Pitch_bend_c, 0, 8128
2, 7192, Pitch_bend_c, 0, 8160
2, 7193, Pitch_bend_c, 0, 8192
2, 7196, Note_on_c, 0, 70, 0
2, 7199, Note_on_c, 0, 75, 116
2, 7199, Pitch_bend_c, 0, 8448
2, 7206, Pitch_bend_c, 0, 8480
2, 7209, Pitch_bend_c, 0, 8256
2, 7210, Note_on_c, 0, 75, 0
2, 7217, Pitch_bend_c, 0, 8192
2, 7218, Note_on_c, 0, 75, 113
2, 7218, Pitch_bend_c, 0, 8544
2, 7219, Pitch_bend_c, 0, 8480
2, 7222, Pitch_bend_c, 0, 8448
2, 7223, Pitch_bend_c, 0, 8480
2, 7233, Pitch_bend_c, 0, 8448
2, 7236, Pitch_bend_c, 0, 8352
2, 7237, Pitch_bend_c, 0, 12480
2, 7239, Pitch_bend_c, 0, 12512
2, 7240, Pitch_bend_c, 0, 12608
2, 7241, Pitch_bend_c, 0, 12672
2, 7242, Pitch_bend_c, 0, 8448
2, 7245, Pitch_bend_c, 0, 8416
2, 7250, Note_on_c, 0, 75, 0
2, 7252, Pitch_bend_c, 0, 8192
2, 7253, Note_on_c, 0, 73, 106
2, 7253, Pitch_bend_c, 0, 8000
2, 7255, Pitch_bend_c, 0, 8032
2, 7258, Pitch_bend_c, 0, 8064
2, 7260, Pitch_bend_c, 0, 8128
2, 7263, Pitch_bend_c, 0, 8064
2, 7271, Pitch_bend_c, 0, 8032
2, 7287, Pitch_bend_c, 0, 8128
2, 7288, Pitch_bend_c, 0, 8288
2, 7290, Pitch_bend_c, 0, 8768
2, 7291, Pitch_bend_c, 0, 11008
2, 7293, Pitch_bend_c, 0, 11232
2, 7294, Pitch_bend_c, 0, 11520
2, 7295, Pitch_bend_c, 0, 11776
2, 7296, Pitch_bend_c, 0, 11936
2, 7298, Note_on_c, 0, 73, 0
2, 7298, Pitch_bend_c, 0, 11232
2, 7301, Pitch_bend_c, 0, 8192
2, 7302, Pitch_bend_c, 0, 7712
2, 7305, Pitch_bend_c, 0, 7808
2, 7307, Pitch_bend_c, 0, 7872
2, 7310, Pitch_bend_c, 0, 8192
2, 7311, Note_on_c, 0, 70, 91
2, 7311, Pitch_bend_c, 0, 8256
2, 7314, Pitch_bend_c, 0, 8224
2, 7316, Pitch_bend_c, 0, 8192
2, 7317, Pitch_bend_c, 0, 8160
2, 7318, Pitch_bend_c, 0, 8128
2, 7319, Pitch_bend_c, 0, 8096
2, 7321, Pitch_bend_c, 0, 8064
2, 7322, Note_on_c, 0, 70, 0
2, 7322, Pitch_bend_c, 0, 8160
2, 7324, Pitch_bend_c, 0, 8192
2, 7325, Note_on_c, 0, 70, 87
2, 7325, Pitch_bend_c, 0, 7936
2, 7326, Pitch_bend_c, 0, 7968
2, 7333, Pitch_bend_c, 0, 8000
2, 7334, Pitch_bend_c, 0, 7968
2, 7337, Pitch_bend_c, 0, 8096
2, 7338, Pitch_bend_c, 0, 8288
2, 7339, Pitch_bend_c, 0, 8576
2, 7341, Pitch_bend_c, 0, 8832
2, 7342, Pitch_bend_c, 0, 8864
2, 7343, Pitch_bend_c, 0, 8640
2, 7344, Pitch_bend_c, 0, 8320
2, 7346, Pitch_bend_c, 0, 8096
2, 7347, Pitch_bend_c, 0, 7904
2, 7348, Pitch_bend_c, 0, 7840
2, 7350, Pitch_bend_c, 0, 7904
2, 7351, Pitch_bend_c, 0, 8160
2, 7352, Pitch_bend_c, 0, 8608
2, 7353, Pitch_bend_c, 0, 9216
2, 7355, Pitch_bend_c, 0, 9792
2, 7356, Pitch_bend_c, 0, 9984
2, 7357, Pitch_bend_c, 0, 9568
2, 7359, Pitch_bend_c, 0, 8960
2, 7360, Pitch_bend_c, 0, 8384
2, 7361, Pitch_bend_c, 0, 8064
2, 7362, Pitch_bend_c, 0, 8000
2, 7364, Pitch_bend_c, 0, 8032
2, 7365, Note_on_c, 0, 70, 0
2, 7365, Pitch_bend_c, 0, 8960
2, 7451, Lyric_t, "hang"
2, 7479, Lyric_t, "in' "
2, 7497, Lyric_t, "a"
2, 7516, Lyric_t, "round "
2, 7537, Lyric_t, "my "
2, 7558, Lyric_t, "house "
2, 7649, Lyric_t, "when "
2, 7664, Lyric_t, "I'm "
2, 7680, Lyric_t, "not "
2, 7699, Lyric_t, "at "
2, 7717, Lyric_t, "home. "
2, 7717, Lyric_t, "\015"
2, 7717, Lyric_t, "\012"
2, 7777, Pitch_bend_c, 0, 8192
2, 7778, Note_on_c, 0, 64, 97
2, 7778, Pitch_bend_c, 0, 8096
2, 7779, Pitch_bend_c, 0, 8064
2, 7783, Pitch_bend_c, 0, 8192
2, 7797, Pitch_bend_c, 0, 12224
2, 7799, Pitch_bend_c, 0, 12256
2, 7800, Pitch_bend_c, 0, 12288
2, 7804, Pitch_bend_c, 0, 12256
2, 7805, Pitch_bend_c, 0, 12224
2, 7807, Note_on_c, 0, 73, 117
2, 7849, Note_on_c, 0, 64, 0
2, 7856, Note_on_c, 0, 73, 0
2, 7857, Pitch_bend_c, 0, 8192
2, 7858, Pitch_bend_c, 0, 8128
2, 7869, Pitch_bend_c, 0, 8192
2, 7870, Note_on_c, 0, 61, 81
2, 7871, Pitch_bend_c, 0, 11456
2, 7872, Pitch_bend_c, 0, 12160
2, 7874, Pitch_bend_c, 0, 12096
2, 7875, Pitch_bend_c, 0, 12032
2, 7878, Pitch_bend_c, 0, 16096
2, 7883, Pitch_bend_c, 0, 16160
2, 7884, Pitch_bend_c, 0, 16192
2, 7885, Pitch_bend_c, 0, 16224
2, 7893, Pitch_bend_c, 0, 16192
2, 7895, Pitch_bend_c, 0, 16128
2, 7898, Pitch_bend_c, 0, 16096
2, 7900, Pitch_bend_c, 0, 16224
2, 7901, Note_on_c, 0, 70, 116
2, 7948, Note_on_c, 0, 70, 0
2, 7950, Note_on_c, 0, 61, 0
2, 7963, Pitch_bend_c, 0, 8192
2, 7964, Note_on_c, 0, 61, 83
2, 7964, Pitch_bend_c, 0, 7808
2, 7965, Pitch_bend_c, 0, 7744
2, 7967, Pitch_bend_c, 0, 7808
2, 7968, Pitch_bend_c, 0, 11680
2, 7970, Pitch_bend_c, 0, 11776
2, 7971, Pitch_bend_c, 0, 11872
2, 7972, Pitch_bend_c, 0, 11936
2, 7974, Pitch_bend_c, 0, 12064
2, 7976, Pitch_bend_c, 0, 12096
2, 7979, Pitch_bend_c, 0, 12160
2, 7982, Pitch_bend_c, 0, 12128
2, 7984, Pitch_bend_c, 0, 12096
2, 7985, Pitch_bend_c, 0, 12064
2, 7986, Note_on_c, 0, 61, 0
2, 7986, Pitch_bend_c, 0, 8192
2, 7987, Note_on_c, 0, 65, 77
2, 7987, Pitch_bend_c, 0, 8000
2, 7991, Pitch_bend_c, 0, 8032
2, 7992, Pitch_bend_c, 0, 8064
2, 7993, Pitch_bend_c, 0, 8096
2, 7996, Pitch_bend_c, 0, 8192
2, 7996, Note_on_c, 0, 70, 122
2, 8011, Note_on_c, 0, 65, 0
2, 8012, Pitch_bend_c, 0, 8448
2, 8013, Pitch_bend_c, 0, 8416
2, 8014, Pitch_bend_c, 0, 8192
2, 8014, Note_on_c, 0, 65, 112
2, 8026, Note_on_c, 0, 70, 0
2, 8027, Note_on_c, 0, 70, 99
2, 8037, Note_on_c, 0, 65, 0
2, 8038, Pitch_bend_c, 0, 8352
2, 8039, Pitch_bend_c, 0, 8384
2, 8040, Pitch_bend_c, 0, 8416
2, 8041, Note_on_c, 0, 70, 0
2, 8046, Note_on_c, 0, 69, 109
2, 8046, Pitch_bend_c, 0, 7808
2, 8050, Pitch_bend_c, 0, 7840
2, 8052, Pitch_bend_c, 0, 7872
2, 8056, Pitch_bend_c, 0, 7904
2, 8057, Pitch_bend_c, 0, 11776
2, 8061, Pitch_bend_c, 0, 11808
2, 8064, Pitch_bend_c, 0, 11840
2, 8065, Pitch_bend_c, 0, 11872
2, 8069, Pitch_bend_c, 0, 11840
2, 8073, Pitch_bend_c, 0, 11872
2, 8081, Note_on_c, 0, 73, 106
2, 8081, Pitch_bend_c, 0, 8512
2, 8083, Note_on_c, 0, 69, 0
2, 8084, Pitch_bend_c, 0, 8544
2, 8085, Pitch_bend_c, 0, 8576
2, 8086, Pitch_bend_c, 0, 8608
2, 8088, Pitch_bend_c, 0, 8672
2, 8089, Note_on_c, 0, 73, 0
2, 8091, Note_on_c, 0, 70, 113
2, 8091, Pitch_bend_c, 0, 8096
2, 8092, Pitch_bend_c, 0, 8128
2, 8094, Pitch_bend_c, 0, 8160
2, 8097, Pitch_bend_c, 0, 8192
2, 8098, Pitch_bend_c, 0, 8352
2, 8099, Pitch_bend_c, 0, 8640
2, 8100, Pitch_bend_c, 0, 8864
2, 8102, Pitch_bend_c, 0, 128
2, 8103, Pitch_bend_c, 0, 160
2, 8104, Pitch_bend_c, 0, 128
2, 8108, Pitch_bend_c, 0, 96
2, 8110, Note_on_c, 0, 70, 0
2, 8110, Pitch_bend_c, 0, 8192
2, 8110, Note_on_c, 0, 65, 81
2, 8120, Pitch_bend_c, 0, 8160
2, 8121, Pitch_bend_c, 0, 8096
2, 8124, Pitch_bend_c, 0, 8064
2, 8125, Pitch_bend_c, 0, 8032
2, 8126, Pitch_bend_c, 0, 8000
2, 8129, Pitch_bend_c, 0, 7936
2, 8131, Pitch_bend_c, 0, 7968
2, 8132, Note_on_c, 0, 65, 0
2, 8157, Pitch_bend_c, 0, 8192
2, 8158, Note_on_c, 0, 76, 115
2, 8158, Pitch_bend_c, 0, 9248
2, 8159, Pitch_bend_c, 0, 9088
2, 8160, Pitch_bend_c, 0, 9056
2, 8162, Pitch_bend_c, 0, 8864
2, 8164, Pitch_bend_c, 0, 8512
2, 8165, Pitch_bend_c, 0, 7968
2, 8166, Pitch_bend_c, 0, 5440
2, 8167, Pitch_bend_c, 0, 5216
2, 8169, Pitch_bend_c, 0, 4736
2, 8170, Pitch_bend_c, 0, 4352
2, 8171, Pitch_bend_c, 0, 3936
2, 8173, Pitch_bend_c, 0, 3776
2, 8174, Pitch_bend_c, 0, 3808
2, 8175, Pitch_bend_c, 0, 3840
2, 8176, Note_on_c, 0, 76, 0
2, 8176, Pitch_bend_c, 0, 4352
2, 8178, Note_on_c, 0, 73, 84
2, 8178, Pitch_bend_c, 0, 8032
2, 8181, Pitch_bend_c, 0, 8000
2, 8183, Pitch_bend_c, 0, 8032
2, 8185, Pitch_bend_c, 0, 8064
2, 8186, Pitch_bend_c, 0, 8192
2, 8187, Note_on_c, 0, 73, 0
2, 8187, Pitch_bend_c, 0, 8256
2, 8190, Note_on_c, 0, 70, 95
2, 8190, Pitch_bend_c, 0, 8384
2, 8193, Pitch_bend_c, 0, 8416
2, 8194, Pitch_bend_c, 0, 8448
2, 8197, Pitch_bend_c, 0, 8480
2, 8199, Pitch_bend_c, 0, 8416
2, 8200, Pitch_bend_c, 0, 8384
2, 8202, Pitch_bend_c, 0, 8320
2, 8203, Pitch_bend_c, 0, 8256
2, 8205, Pitch_bend_c, 0, 8224
2, 8208, Pitch_bend_c, 0, 8256
2, 8221, Pitch_bend_c, 0, 8224
2, 8222, Pitch_bend_c, 0, 8320
2, 8223, Note_on_c, 0, 70, 0
2, 8223, Note_on_c, 0, 73, 109
2, 8223, Pitch_bend_c, 0, 8192
2, 8228, Pitch_bend_c, 0, 8224
2, 8229, Pitch_bend_c, 0, 8192
2, 8232, Pitch_bend_c, 0, 8160
2, 8234, Pitch_bend_c, 0, 8128
2, 8235, Pitch_bend_c, 0, 8064
2, 8237, Pitch_bend_c, 0, 8128
2, 8238, Pitch_bend_c, 0, 8416
2, 8239, Pitch_bend_c, 0, 8864
2, 8241, Pitch_bend_c, 0, 9440
2, 8242, Pitch_bend_c, 0, 9984
2, 8243, Pitch_bend_c, 0, 10432
2, 8245, Pitch_bend_c, 0, 10848
2, 8246, Pitch_bend_c, 0, 11168
2, 8247, Pitch_bend_c, 0, 11392
2, 8249, Pitch_bend_c, 0, 11552
2, 8250, Pitch_bend_c, 0, 11776
2, 8251, Note_on_c, 0, 73, 0
2, 8352, Lyric_t, "I "
2, 8375, Lyric_t, "don't "
2, 8391, Lyric_t, "want "
2, 8407, Lyric_t, "you "
2, 8420, Lyric_t, "to "
2, 8444, Lyric_t, "an"
2, 8469, Lyric_t, "swer "
2, 8489, Lyric_t, "the "
2, 8507, Lyric_t, "door "
2, 8507, Lyric_t, "\015"
2, 8529, Lyric_t, "for "
2, 8550, Lyric_t, "no"
2, 8574, Lyric_t, "bod"
2, 8590, Lyric_t, "y, "
2, 8608, Lyric_t, "ba"
2, 8637, Lyric_t, "by, "
2, 8637, Lyric_t, "\015"
2, 8637, Lyric_t, "\012"
2, 8733, Note_on_c, 0, 67, 110
2, 8733, Pitch_bend_c, 0, 8416
2, 8736, Pitch_bend_c, 0, 8192
2, 8736, Note_on_c, 0, 70, 111
2, 8751, Note_on_c, 0, 70, 0
2, 8752, Note_on_c, 0, 70, 111
2, 8759, Note_on_c, 0, 67, 0
2, 8760, Pitch_bend_c, 0, 7872
2, 8761, Pitch_bend_c, 0, 15712
2, 8763, Note_on_c, 0, 70, 0
2, 8766, Note_on_c, 0, 73, 106
2, 8766, Pitch_bend_c, 0, 7872
2, 8769, Pitch_bend_c, 0, 7840
2, 8771, Pitch_bend_c, 0, 7808
2, 8775, Pitch_bend_c, 0, 7776
2, 8777, Pitch_bend_c, 0, 7552
2, 8778, Note_on_c, 0, 73, 0
2, 8778, Pitch_bend_c, 0, 7840
2, 8789, Pitch_bend_c, 0, 8192
2, 8790, Note_on_c, 0, 75, 114
2, 8790, Pitch_bend_c, 0, 8160
2, 8793, Pitch_bend_c, 0, 8064
2, 8795, Pitch_bend_c, 0, 8032
2, 8798, Pitch_bend_c, 0, 8000
2, 8799, Pitch_bend_c, 0, 7936
2, 8802, Pitch_bend_c, 0, 8064
2, 8803, Pitch_bend_c, 0, 10464
2, 8805, Pitch_bend_c, 0, 11008
2, 8806, Pitch_bend_c, 0, 13664
2, 8807, Pitch_bend_c, 0, 13728
2, 8808, Pitch_bend_c, 0, 13824
2, 8810, Pitch_bend_c, 0, 13920
2, 8812, Pitch_bend_c, 0, 13536
2, 8814, Pitch_bend_c, 0, 9408
2, 8815, Pitch_bend_c, 0, 8992
2, 8816, Pitch_bend_c, 0, 8192
2, 8818, Note_on_c, 0, 75, 0
2, 8821, Note_on_c, 0, 73, 107
2, 8825, Pitch_bend_c, 0, 8288
2, 8829, Note_on_c, 0, 73, 0
2, 8829, Pitch_bend_c, 0, 8192
2, 8830, Pitch_bend_c, 0, 8288
2, 8832, Note_on_c, 0, 70, 96
2, 8833, Pitch_bend_c, 0, 8256
2, 8836, Pitch_bend_c, 0, 8224
2, 8837, Pitch_bend_c, 0, 8192
2, 8844, Pitch_bend_c, 0, 8160
2, 8845, Pitch_bend_c, 0, 8128
2, 8848, Pitch_bend_c, 0, 8096
2, 8850, Pitch_bend_c, 0, 8128
2, 8853, Pitch_bend_c, 0, 8160
2, 8860, Pitch_bend_c, 0, 8192
2, 8871, Pitch_bend_c, 0, 8160
2, 8873, Pitch_bend_c, 0, 8128
2, 8875, Pitch_bend_c, 0, 8096
2, 8877, Pitch_bend_c, 0, 8064
2, 8879, Pitch_bend_c, 0, 8192
2, 8881, Note_on_c, 0, 73, 105
2, 8881, Pitch_bend_c, 0, 7552
2, 8882, Note_on_c, 0, 70, 0
2, 8882, Pitch_bend_c, 0, 7872
2, 8885, Pitch_bend_c, 0, 7840
2, 8886, Pitch_bend_c, 0, 7776
2, 8887, Pitch_bend_c, 0, 7680
2, 8890, Pitch_bend_c, 0, 7648
2, 8892, Pitch_bend_c, 0, 7680
2, 8893, Pitch_bend_c, 0, 7744
2, 8894, Pitch_bend_c, 0, 7776
2, 8895, Pitch_bend_c, 0, 7840
2, 8897, Pitch_bend_c, 0, 7872
2, 8898, Pitch_bend_c, 0, 7968
2, 8899, Pitch_bend_c, 0, 8064
2, 8901, Pitch_bend_c, 0, 8224
2, 8902, Pitch_bend_c, 0, 8544
2, 8903, Pitch_bend_c, 0, 8928
2, 8904, Pitch_bend_c, 0, 9376
2, 8906, Pitch_bend_c, 0, 9920
2, 8907, Pitch_bend_c, 0, 10400
2, 8908, Pitch_bend_c, 0, 10752
2, 8910, Pitch_bend_c, 0, 11040
2, 8911, Pitch_bend_c, 0, 11168
2, 8912, Pitch_bend_c, 0, 11136
2, 8914, Note_on_c, 0, 73, 0
2, 8914, Pitch_bend_c, 0, 11072
2, 9075, Lyric_t, "oh, "
2, 9110, Lyric_t, "when "
2, 9131, Lyric_t, "you're "
2, 9151, Lyric_t, "home "
2, 9151, Lyric_t, "\015"
2, 9244, Lyric_t, "and "
2, 9262, Lyric_t, "you "
2, 9278, Lyric_t, "know "
2, 9293, Lyric_t, "you're "
2, 9307, Lyric_t, "all "
2, 9326, Lyric_t, "a"
2, 9338, Lyric_t, "lone. "
2, 9338, Lyric_t, "\015"
2, 9338, Lyric_t, "\012"
2, 9427, Pitch_bend_c, 0, 8192
2, 9427, Note_on_c, 0, 75, 115
2, 9428, Pitch_bend_c, 0, 8672
2, 9431, Pitch_bend_c, 0, 8864
2, 9433, Pitch_bend_c, 0, 9216
2, 9434, Pitch_bend_c, 0, 9824
2, 9435, Pitch_bend_c, 0, 10528
2, 9436, Pitch_bend_c, 0, 11264
2, 9438, Pitch_bend_c, 0, 11872
2, 9439, Pitch_bend_c, 0, 12288
2, 9440, Pitch_bend_c, 0, 12480
2, 9444, Pitch_bend_c, 0, 12416
2, 9446, Pitch_bend_c, 0, 12320
2, 9447, Pitch_bend_c, 0, 12224
2, 9448, Pitch_bend_c, 0, 12096
2, 9450, Pitch_bend_c, 0, 11872
2, 9451, Pitch_bend_c, 0, 11456
2, 9452, Pitch_bend_c, 0, 9280
2, 9453, Pitch_bend_c, 0, 9120
2, 9455, Pitch_bend_c, 0, 8864
2, 9456, Pitch_bend_c, 0, 8576
2, 9457, Pitch_bend_c, 0, 8256
2, 9459, Pitch_bend_c, 0, 8192
2, 9460, Pitch_bend_c, 0, 8160
2, 9461, Pitch_bend_c, 0, 8192
2, 9462, Pitch_bend_c, 0, 8576
2, 9463, Note_on_c, 0, 75, 0
2, 9464, Pitch_bend_c, 0, 8192
2, 9465, Note_on_c, 0, 73, 117
2, 9465, Pitch_bend_c, 0, 8288
2, 9466, Pitch_bend_c, 0, 8256
2, 9467, Pitch_bend_c, 0, 8288
2, 9470, Pitch_bend_c, 0, 8352
2, 9474, Note_on_c, 0, 73, 0
2, 9474, Note_on_c, 0, 70, 111
2, 9474, Pitch_bend_c, 0, 8192
2, 9480, Pitch_bend_c, 0, 8160
2, 9481, Pitch_bend_c, 0, 8128
2, 9484, Pitch_bend_c, 0, 8096
2, 9487, Pitch_bend_c, 0, 8064
2, 9492, Pitch_bend_c, 0, 8032
2, 9493, Pitch_bend_c, 0, 8000
2, 9497, Pitch_bend_c, 0, 8064
2, 9498, Pitch_bend_c, 0, 8096
2, 9500, Note_on_c, 0, 70, 0
2, 9501, Pitch_bend_c, 0, 8192
2, 9502, Note_on_c, 0, 73, 118
2, 9502, Pitch_bend_c, 0, 8288
2, 9503, Pitch_bend_c, 0, 8352
2, 9509, Pitch_bend_c, 0, 7840
2, 9511, Note_on_c, 0, 73, 0
2, 9511, Note_on_c, 0, 70, 114
2, 9511, Pitch_bend_c, 0, 8192
2, 9515, Pitch_bend_c, 0, 8224
2, 9516, Pitch_bend_c, 0, 8192
2, 9517, Pitch_bend_c, 0, 8160
2, 9520, Pitch_bend_c, 0, 8096
2, 9521, Note_on_c, 0, 70, 0
2, 9521, Note_on_c, 0, 67, 97
2, 9521, Pitch_bend_c, 0, 12256
2, 9522, Pitch_bend_c, 0, 12224
2, 9523, Pitch_bend_c, 0, 12256
2, 9524, Pitch_bend_c, 0, 12288
2, 9527, Pitch_bend_c, 0, 12320
2, 9528, Pitch_bend_c, 0, 12384
2, 9529, Pitch_bend_c, 0, 12448
2, 9530, Pitch_bend_c, 0, 12480
2, 9532, Note_on_c, 0, 67, 0
2, 9532, Pitch_bend_c, 0, 8192
2, 9532, Note_on_c, 0, 65, 96
2, 9543, Pitch_bend_c, 0, 8160
2, 9547, Pitch_bend_c, 0, 8192
2, 9554, Pitch_bend_c, 0, 8288
2, 9555, Pitch_bend_c, 0, 8352
2, 9557, Pitch_bend_c, 0, 8416
2, 9558, Pitch_bend_c, 0, 4544
2, 9560, Pitch_bend_c, 0, 4512
2, 9562, Note_on_c, 0, 65, 0
2, 9564, Pitch_bend_c, 0, 8192
2, 9565, Note_on_c, 0, 70, 119
2, 9565, Pitch_bend_c, 0, 8544
2, 9570, Pitch_bend_c, 0, 8512
2, 9571, Pitch_bend_c, 0, 8672
2, 9572, Note_on_c, 0, 70, 0
2, 9574, Note_on_c, 0, 68, 115
2, 9574, Pitch_bend_c, 0, 8160
2, 9575, Pitch_bend_c, 0, 8288
2, 9578, Pitch_bend_c, 0, 8384
2, 9579, Pitch_bend_c, 0, 8544
2, 9581, Pitch_bend_c, 0, 8736
2, 9582, Pitch_bend_c, 0, 8864
2, 9583, Pitch_bend_c, 0, 8992
2, 9585, Pitch_bend_c, 0, 8864
2, 9586, Note_on_c, 0, 68, 0
2, 9586, Note_on_c, 0, 65, 93
2, 9586, Pitch_bend_c, 0, 8320
2, 9587, Pitch_bend_c, 0, 8416
2, 9597, Pitch_bend_c, 0, 8192
2, 9597, Note_on_c, 0, 63, 91
2, 9598, Note_on_c, 0, 65, 0
2, 9605, Pitch_bend_c, 0, 8224
2, 9607, Pitch_bend_c, 0, 8256
2, 9612, Pitch_bend_c, 0, 8320
2, 9613, Pitch_bend_c, 0, 8544
2, 9615, Pitch_bend_c, 0, 9024
2, 9616, Pitch_bend_c, 0, 9728
2, 9617, Pitch_bend_c, 0, 10528
2, 9618, Pitch_bend_c, 0, 11328
2, 9620, Pitch_bend_c, 0, 11968
2, 9621, Pitch_bend_c, 0, 12512
2, 9622, Pitch_bend_c, 0, 12928
2, 9623, Pitch_bend_c, 0, 13216
2, 9625, Pitch_bend_c, 0, 13408
2, 9626, Pitch_bend_c, 0, 13184
2, 9627, Pitch_bend_c, 0, 9760
2, 9628, Pitch_bend_c, 0, 8192
2, 9629, Note_on_c, 0, 65, 114
2, 9630, Note_on_c, 0, 63, 0
2, 9630, Pitch_bend_c, 0, 8448
2, 9633, Pitch_bend_c, 0, 8352
2, 9634, Pitch_bend_c, 0, 8224
2, 9636, Pitch_bend_c, 0, 8192
2, 9640, Pitch_bend_c, 0, 8224
2, 9641, Pitch_bend_c, 0, 8192
2, 9646, Pitch_bend_c, 0, 8160
2, 9647, Pitch_bend_c, 0, 8128
2, 9650, Pitch_bend_c, 0, 8192
2, 9651, Note_on_c, 0, 63, 120
2, 9651, Pitch_bend_c, 0, 8224
2, 9652, Pitch_bend_c, 0, 8480
2, 9654, Note_on_c, 0, 65, 0
2, 9654, Pitch_bend_c, 0, 8416
2, 9656, Pitch_bend_c, 0, 8480
2, 9658, Pitch_bend_c, 0, 8640
2, 9659, Pitch_bend_c, 0, 9184
2, 9660, Pitch_bend_c, 0, 11424
2, 9661, Pitch_bend_c, 0, 8672
2, 9662, Pitch_bend_c, 0, 11552
2, 9663, Pitch_bend_c, 0, 11648
2, 9664, Pitch_bend_c, 0, 11712
2, 9665, Pitch_bend_c, 0, 11744
2, 9667, Pitch_bend_c, 0, 11648
2, 9668, Pitch_bend_c, 0, 11200
2, 9669, Pitch_bend_c, 0, 8320
2, 9670, Pitch_bend_c, 0, 8192
2, 9671, Pitch_bend_c, 0, 8096
2, 9672, Pitch_bend_c, 0, 8256
2, 9673, Pitch_bend_c, 0, 7808
2, 9674, Pitch_bend_c, 0, 8000
2, 9675, Note_on_c, 0, 63, 0
2, 9675, Pitch_bend_c, 0, 8192
2, 9676, Note_on_c, 0, 61, 88
2, 9676, Pitch_bend_c, 0, 8768
2, 9677, Pitch_bend_c, 0, 8288
2, 9679, Pitch_bend_c, 0, 8256
2, 9680, Pitch_bend_c, 0, 8224
2, 9682, Pitch_bend_c, 0, 8384
2, 9683, Pitch_bend_c, 0, 8512
2, 9684, Pitch_bend_c, 0, 8672
2, 9686, Pitch_bend_c, 0, 8192
2, 9686, Note_on_c, 0, 58, 85
2, 9687, Note_on_c, 0, 61, 0
2, 9689, Pitch_bend_c, 0, 8160
2, 9692, Note_on_c, 0, 58, 0
2, 9692, Pitch_bend_c, 0, 8128
2, 9697, Pitch_bend_c, 0, 8192
2, 9697, Note_on_c, 0, 63, 109
2, 9698, Pitch_bend_c, 0, 8224
2, 9701, Pitch_bend_c, 0, 8256
2, 9703, Pitch_bend_c, 0, 8320
2, 9705, Pitch_bend_c, 0, 8352
2, 9706, Pitch_bend_c, 0, 8320
2, 9709, Pitch_bend_c, 0, 8256
2, 9712, Pitch_bend_c, 0, 8224
2, 9713, Pitch_bend_c, 0, 8192
2, 9720, Pitch_bend_c, 0, 8000
2, 9721, Note_on_c, 0, 63, 0
2, 9721, Pitch_bend_c, 0, 8224
2, 9723, Note_on_c, 0, 61, 106
2, 9723, Pitch_bend_c, 0, 8288
2, 9724, Pitch_bend_c, 0, 8192
2, 9726, Pitch_bend_c, 0, 8128
2, 9728, Pitch_bend_c, 0, 8096
2, 9729, Pitch_bend_c, 0, 8064
2, 9730, Pitch_bend_c, 0, 8032
2, 9731, Pitch_bend_c, 0, 8064
2, 9733, Pitch_bend_c, 0, 8128
2, 9734, Pitch_bend_c, 0, 8160
2, 9735, Pitch_bend_c, 0, 8192
2, 9738, Pitch_bend_c, 0, 8352
2, 9739, Note_on_c, 0, 61, 0
2, 9739, Pitch_bend_c, 0, 8576
2, 9742, Pitch_bend_c, 0, 8192
2, 9743, Note_on_c, 0, 58, 98
2, 9743, Pitch_bend_c, 0, 8096
2, 9745, Pitch_bend_c, 0, 8128
2, 9748, Pitch_bend_c, 0, 7968
2, 9749, Pitch_bend_c, 0, 7808
2, 9750, Pitch_bend_c, 0, 4960
2, 9751, Pitch_bend_c, 0, 0
2, 9753, Pitch_bend_c, 0, 64
2, 9758, Pitch_bend_c, 0, 96
2, 9761, Note_on_c, 0, 58, 0
2, 9761, Pitch_bend_c, 0, 8192
2, 9765, Note_on_c, 0, 53, 72
2, 9769, Pitch_bend_c, 0, 7712
2, 9770, Pitch_bend_c, 0, 7648
2, 9773, Pitch_bend_c, 0, 7808
2, 9777, Pitch_bend_c, 0, 7776
2, 9779, Pitch_bend_c, 0, 7808
2, 9780, Pitch_bend_c, 0, 7840
2, 9782, Pitch_bend_c, 0, 7904
2, 9787, Pitch_bend_c, 0, 7872
2, 9790, Pitch_bend_c, 0, 7840
2, 9792, Pitch_bend_c, 0, 7808
2, 9794, Pitch_bend_c, 0, 7840
2, 9795, Pitch_bend_c, 0, 8352
2, 9796, Pitch_bend_c, 0, 8896
2, 9798, Pitch_bend_c, 0, 9440
2, 9799, Pitch_bend_c, 0, 9952
2, 9803, Note_on_c, 0, 53, 0
2, 9823, Note_on_c, 0, 61, 100
2, 9823, Pitch_bend_c, 0, 8288
2, 9824, Pitch_bend_c, 0, 7904
2, 9825, Pitch_bend_c, 0, 7840
2, 9826, Pitch_bend_c, 0, 8192
2, 9826, Note_on_c, 0, 65, 119
2, 9830, Note_on_c, 0, 70, 107
2, 9881, Note_on_c, 0, 61, 0
2, 9882, Note_on_c, 0, 65, 0
2, 9886, Note_on_c, 0, 61, 105
2, 9888, Note_on_c, 0, 65, 101
2, 9889, Note_on_c, 0, 70, 0
2, 9892, Note_on_c, 0, 70, 74
2, 9902, Note_on_c, 0, 61, 0
2, 9902, Note_on_c, 0, 62, 90
2, 10014, Note_on_c, 0, 65, 0
2, 10014, Note_on_c, 0, 62, 0
2, 10032, Note_on_c, 0, 70, 0
2, 10074, Lyric_t, "I "
2, 10096, Lyric_t, "don't "
2, 10116, Lyric_t, "want "
2, 10136, Lyric_t, "your "
2, 10156, Lyric_t, "sis"
2, 10176, Lyric_t, "ter "
2, 10199, Lyric_t, "com"
2, 10217, Lyric_t, "in' "
2, 10242, Lyric_t, "by, "
2, 10242, Lyric_t, "\015"
2, 10255, Note_on_c, 0, 65, 100
2, 10255, Pitch_bend_c, 0, 8352
2, 10263, Pitch_bend_c, 0, 8320
2, 10268, Pitch_bend_c, 0, 8288
2, 10269, Pitch_bend_c, 0, 8256
2, 10270, Pitch_bend_c, 0, 8192
2, 10270, Note_on_c, 0, 70, 116
2, 10273, Note_on_c, 0, 65, 0
2, 10273, Pitch_bend_c, 0, 8224
2, 10274, Pitch_bend_c, 0, 8192
2, 10277, Pitch_bend_c, 0, 8160
2, 10278, Pitch_bend_c, 0, 8128
2, 10281, Pitch_bend_c, 0, 8096
2, 10282, Pitch_bend_c, 0, 8032
2, 10283, Note_on_c, 0, 70, 0
2, 10285, Pitch_bend_c, 0, 8192
2, 10286, Note_on_c, 0, 70, 116
2, 10286, Pitch_bend_c, 0, 8128
2, 10287, Pitch_bend_c, 0, 8064
2, 10290, Pitch_bend_c, 0, 8128
2, 10291, Pitch_bend_c, 0, 8352
2, 10292, Pitch_bend_c, 0, 8864
2, 10294, Pitch_bend_c, 0, 9472
2, 10295, Pitch_bend_c, 0, 10016
2, 10296, Pitch_bend_c, 0, 10272
2, 10299, Pitch_bend_c, 0, 9920
2, 10300, Pitch_bend_c, 0, 9376
2, 10302, Pitch_bend_c, 0, 8800
2, 10303, Pitch_bend_c, 0, 8320
2, 10304, Pitch_bend_c, 0, 8128
2, 10305, Pitch_bend_c, 0, 8064
2, 10307, Pitch_bend_c, 0, 8192
2, 10308, Pitch_bend_c, 0, 8512
2, 10309, Pitch_bend_c, 0, 9152
2, 10311, Pitch_bend_c, 0, 9856
2, 10312, Pitch_bend_c, 0, 10400
2, 10313, Pitch_bend_c, 0, 10560
2, 10315, Pitch_bend_c, 0, 10304
2, 10316, Pitch_bend_c, 0, 9760
2, 10317, Pitch_bend_c, 0, 9152
2, 10318, Pitch_bend_c, 0, 8544
2, 10320, Pitch_bend_c, 0, 8192
2, 10321, Pitch_bend_c, 0, 8032
2, 10330, Pitch_bend_c, 0, 8064
2, 10332, Pitch_bend_c, 0, 8096
2, 10335, Pitch_bend_c, 0, 7968
2, 10336, Note_on_c, 0, 70, 0
2, 10336, Pitch_bend_c, 0, 8192
2, 10337, Note_on_c, 0, 73, 120
2, 10337, Pitch_bend_c, 0, 8544
2, 10344, Pitch_bend_c, 0, 8512
2, 10345, Note_on_c, 0, 73, 0
2, 10348, Note_on_c, 0, 70, 101
2, 10348, Pitch_bend_c, 0, 8192
2, 10351, Pitch_bend_c, 0, 8224
2, 10353, Pitch_bend_c, 0, 8256
2, 10354, Pitch_bend_c, 0, 8416
2, 10356, Pitch_bend_c, 0, 8544
2, 10357, Pitch_bend_c, 0, 0
2, 10360, Pitch_bend_c, 0, 64
2, 10361, Pitch_bend_c, 0, 96
2, 10362, Pitch_bend_c, 0, 128
2, 10363, Pitch_bend_c, 0, 160
2, 10365, Pitch_bend_c, 0, 224
2, 10366, Pitch_bend_c, 0, 256
2, 10367, Note_on_c, 0, 70, 0
2, 10368, Pitch_bend_c, 0, 8192
2, 10369, Note_on_c, 0, 65, 69
2, 10369, Pitch_bend_c, 0, 8416
2, 10370, Pitch_bend_c, 0, 8480
2, 10372, Pitch_bend_c, 0, 8448
2, 10374, Pitch_bend_c, 0, 8416
2, 10376, Pitch_bend_c, 0, 8352
2, 10378, Pitch_bend_c, 0, 8288
2, 10379, Pitch_bend_c, 0, 8256
2, 10380, Pitch_bend_c, 0, 8224
2, 10383, Pitch_bend_c, 0, 8192
2, 10391, Note_on_c, 0, 65, 0
2, 10391, Pitch_bend_c, 0, 8224
2, 10423, Lyric_t, "be"
2, 10450, Lyric_t, "cause "
2, 10477, Lyric_t, "the "
2, 10490, Lyric_t, "lit"
2, 10502, Lyric_t, "tle "
2, 10513, Lyric_t, "girl, "
2, 10543, Lyric_t, "she "
2, 10563, Lyric_t, "talk "
2, 10592, Lyric_t, "too "
2, 10618, Lyric_t, "much. "
2, 10618, Lyric_t, "\015"
2, 10618, Lyric_t, "\012"
2, 10653, Pitch_bend_c, 0, 8192
2, 10654, Note_on_c, 0, 75, 116
2, 10654, Pitch_bend_c, 0, 8160
2, 10655, Pitch_bend_c, 0, 8256
2, 10657, Pitch_bend_c, 0, 8352
2, 10658, Pitch_bend_c, 0, 8480
2, 10659, Pitch_bend_c, 0, 8352
2, 10660, Pitch_bend_c, 0, 8256
2, 10662, Pitch_bend_c, 0, 8224
2, 10663, Pitch_bend_c, 0, 8192
2, 10664, Pitch_bend_c, 0, 8160
2, 10667, Pitch_bend_c, 0, 8448
2, 10668, Pitch_bend_c, 0, 10784
2, 10669, Pitch_bend_c, 0, 11136
2, 10671, Pitch_bend_c, 0, 11680
2, 10672, Pitch_bend_c, 0, 12224
2, 10673, Pitch_bend_c, 0, 12768
2, 10675, Pitch_bend_c, 0, 12864
2, 10676, Pitch_bend_c, 0, 12416
2, 10677, Pitch_bend_c, 0, 9344
2, 10678, Pitch_bend_c, 0, 9056
2, 10680, Pitch_bend_c, 0, 8640
2, 10681, Pitch_bend_c, 0, 8256
2, 10682, Pitch_bend_c, 0, 7936
2, 10683, Pitch_bend_c, 0, 7872
2, 10685, Pitch_bend_c, 0, 7936
2, 10686, Note_on_c, 0, 75, 0
2, 10686, Pitch_bend_c, 0, 8640
2, 10688, Pitch_bend_c, 0, 8192
2, 10689, Note_on_c, 0, 73, 111
2, 10689, Pitch_bend_c, 0, 8160
2, 10690, Pitch_bend_c, 0, 8192
2, 10693, Pitch_bend_c, 0, 8224
2, 10695, Pitch_bend_c, 0, 8256
2, 10696, Note_on_c, 0, 73, 0
2, 10697, Note_on_c, 0, 70, 95
2, 10697, Pitch_bend_c, 0, 8192
2, 10698, Pitch_bend_c, 0, 8576
2, 10700, Pitch_bend_c, 0, 8608
2, 10703, Pitch_bend_c, 0, 8576
2, 10704, Pitch_bend_c, 0, 8544
2, 10705, Pitch_bend_c, 0, 8448
2, 10707, Pitch_bend_c, 0, 8352
2, 10708, Pitch_bend_c, 0, 8288
2, 10709, Pitch_bend_c, 0, 8224
2, 10712, Pitch_bend_c, 0, 8192
2, 10713, Pitch_bend_c, 0, 8224
2, 10723, Pitch_bend_c, 0, 8192
2, 10729, Pitch_bend_c, 0, 8224
2, 10730, Pitch_bend_c, 0, 8480
2, 10732, Pitch_bend_c, 0, 8992
2, 10733, Pitch_bend_c, 0, 9696
2, 10734, Pitch_bend_c, 0, 10400
2, 10735, Pitch_bend_c, 0, 10880
2, 10737, Pitch_bend_c, 0, 11072
2, 10738, Pitch_bend_c, 0, 10624
2, 10739, Pitch_bend_c, 0, 8128
2, 10740, Pitch_bend_c, 0, 8096
2, 10743, Pitch_bend_c, 0, 8032
2, 10744, Pitch_bend_c, 0, 7968
2, 10745, Pitch_bend_c, 0, 8064
2, 10747, Pitch_bend_c, 0, 8288
2, 10748, Pitch_bend_c, 0, 8928
2, 10749, Pitch_bend_c, 0, 9696
2, 10751, Pitch_bend_c, 0, 10336
2, 10752, Pitch_bend_c, 0, 10592
2, 10753, Pitch_bend_c, 0, 10240
2, 10755, Pitch_bend_c, 0, 9600
2, 10756, Pitch_bend_c, 0, 8896
2, 10758, Note_on_c, 0, 70, 0
2, 10758, Pitch_bend_c, 0, 10592
2, 10798, Lyric_t, "If "
2, 10823, Lyric_t, "she "
2, 10841, Lyric_t, "wan"
2, 10859, Lyric_t, "na "
2, 10876, Lyric_t, "come "
2, 10895, Lyric_t, "by "
2, 10919, Lyric_t, "to "
2, 10935, Lyric_t, "vis"
2, 10952, Lyric_t, "it "
2, 10965, Lyric_t, "us, "
2, 10965, Lyric_t, "\015"
2, 11001, Note_on_c, 0, 75, 116
2, 11001, Pitch_bend_c, 0, 8192
2, 11002, Pitch_bend_c, 0, 8000
2, 11003, Pitch_bend_c, 0, 8192
2, 11005, Pitch_bend_c, 0, 8224
2, 11006, Pitch_bend_c, 0, 8192
2, 11009, Pitch_bend_c, 0, 8256
2, 11010, Pitch_bend_c, 0, 8576
2, 11011, Pitch_bend_c, 0, 9184
2, 11013, Pitch_bend_c, 0, 11968
2, 11015, Pitch_bend_c, 0, 12224
2, 11016, Pitch_bend_c, 0, 12576
2, 11017, Pitch_bend_c, 0, 12992
2, 11019, Pitch_bend_c, 0, 13440
2, 11020, Pitch_bend_c, 0, 13664
2, 11021, Pitch_bend_c, 0, 13760
2, 11026, Pitch_bend_c, 0, 13728
2, 11027, Pitch_bend_c, 0, 13664
2, 11028, Pitch_bend_c, 0, 13632
2, 11030, Pitch_bend_c, 0, 13568
2, 11031, Pitch_bend_c, 0, 13664
2, 11032, Note_on_c, 0, 75, 0
2, 11032, Pitch_bend_c, 0, 13728
2, 11036, Pitch_bend_c, 0, 8192
2, 11037, Note_on_c, 0, 76, 112
2, 11037, Pitch_bend_c, 0, 9472
2, 11038, Pitch_bend_c, 0, 8064
2, 11040, Pitch_bend_c, 0, 7616
2, 11041, Pitch_bend_c, 0, 5120
2, 11042, Pitch_bend_c, 0, 4832
2, 11044, Pitch_bend_c, 0, 4480
2, 11045, Pitch_bend_c, 0, 4160
2, 11046, Pitch_bend_c, 0, 3840
2, 11048, Pitch_bend_c, 0, 3904
2, 11049, Pitch_bend_c, 0, 3936
2, 11052, Note_on_c, 0, 76, 0
2, 11052, Pitch_bend_c, 0, 4480
2, 11054, Pitch_bend_c, 0, 8192
2, 11055, Note_on_c, 0, 73, 110
2, 11055, Pitch_bend_c, 0, 8224
2, 11056, Pitch_bend_c, 0, 8352
2, 11057, Pitch_bend_c, 0, 8384
2, 11058, Pitch_bend_c, 0, 8416
2, 11059, Pitch_bend_c, 0, 8448
2, 11061, Pitch_bend_c, 0, 8544
2, 11062, Pitch_bend_c, 0, 8608
2, 11064, Note_on_c, 0, 73, 0
2, 11064, Pitch_bend_c, 0, 8864
2, 11067, Pitch_bend_c, 0, 8192
2, 11068, Note_on_c, 0, 70, 70
2, 11068, Pitch_bend_c, 0, 8416
2, 11069, Pitch_bend_c, 0, 8448
2, 11072, Pitch_bend_c, 0, 8416
2, 11073, Pitch_bend_c, 0, 8352
2, 11074, Pitch_bend_c, 0, 8320
2, 11076, Pitch_bend_c, 0, 8288
2, 11077, Pitch_bend_c, 0, 8256
2, 11079, Pitch_bend_c, 0, 8224
2, 11080, Pitch_bend_c, 0, 8192
2, 11086, Pitch_bend_c, 0, 8224
2, 11087, Pitch_bend_c, 0, 8448
2, 11089, Pitch_bend_c, 0, 8928
2, 11090, Pitch_bend_c, 0, 9568
2, 11091, Pitch_bend_c, 0, 10176
2, 11093, Pitch_bend_c, 0, 10496
2, 11094, Pitch_bend_c, 0, 10272
2, 11095, Pitch_bend_c, 0, 9664
2, 11097, Pitch_bend_c, 0, 9024
2, 11098, Pitch_bend_c, 0, 8416
2, 11100, Pitch_bend_c, 0, 8128
2, 11101, Pitch_bend_c, 0, 8096
2, 11103, Pitch_bend_c, 0, 8160
2, 11104, Pitch_bend_c, 0, 8384
2, 11105, Pitch_bend_c, 0, 8896
2, 11107, Pitch_bend_c, 0, 9568
2, 11108, Pitch_bend_c, 0, 10176
2, 11110, Pitch_bend_c, 0, 10496
2, 11111, Pitch_bend_c, 0, 10304
2, 11112, Pitch_bend_c, 0, 9760
2, 11114, Pitch_bend_c, 0, 9088
2, 11115, Pitch_bend_c, 0, 8480
2, 11117, Pitch_bend_c, 0, 8160
2, 11118, Pitch_bend_c, 0, 8000
2, 11121, Pitch_bend_c, 0, 8032
2, 11124, Note_on_c, 0, 70, 0
2, 11124, Pitch_bend_c, 0, 9088
2, 11163, Lyric_t, "tell "
2, 11195, Lyric_t, "her "
2, 11217, Lyric_t, "to "
2, 11242, Lyric_t, "meet "
2, 11267, Lyric_t, "us "
2, 11291, Lyric_t, "Sun"
2, 11314, Lyric_t, "day "
2, 11369, Lyric_t, "down "
2, 11426, Lyric_t, "at "
2, 11452, Lyric_t, "the "
2, 11479, Lyric_t, "church. "
2, 11479, Lyric_t, "\015"
2, 11479, Lyric_t, "\012"
2, 11642, Lyric_t, "'Cause "
2, 11660, Lyric_t, "I "
2, 11682, Lyric_t, "don't "
2, 11703, Lyric_t, "want "
2, 11719, Lyric_t, "a "
2, 11741, Lyric_t, "soul, "
2, 11783, Lyric_t, "ba"
2, 11807, Pitch_bend_c, 0, 8192
2, 11808, Note_on_c, 0, 67, 116
2, 11808, Pitch_bend_c, 0, 8672
2, 11809, Pitch_bend_c, 0, 8640
2, 11810, Pitch_bend_c, 0, 8192
2, 11810, Note_on_c, 0, 70, 114
2, 11814, Lyric_t, "by, "
2, 11814, Lyric_t, "\015"
2, 11825, Note_on_c, 0, 67, 0
2, 11825, Pitch_bend_c, 0, 7808
2, 11826, Pitch_bend_c, 0, 7520
2, 11827, Note_on_c, 0, 70, 0
2, 11829, Pitch_bend_c, 0, 8192
2, 11830, Note_on_c, 0, 70, 108
2, 11830, Pitch_bend_c, 0, 7872
2, 11831, Pitch_bend_c, 0, 7840
2, 11834, Pitch_bend_c, 0, 7872
2, 11838, Pitch_bend_c, 0, 7840
2, 11841, Pitch_bend_c, 0, 7808
2, 11844, Pitch_bend_c, 0, 7936
2, 11845, Note_on_c, 0, 70, 0
2, 11847, Pitch_bend_c, 0, 8192
2, 11848, Note_on_c, 0, 73, 114
2, 11848, Pitch_bend_c, 0, 8288
2, 11851, Pitch_bend_c, 0, 8256
2, 11852, Pitch_bend_c, 0, 8192
2, 11853, Pitch_bend_c, 0, 8160
2, 11854, Pitch_bend_c, 0, 8128
2, 11860, Pitch_bend_c, 0, 8064
2, 11863, Note_on_c, 0, 73, 0
2, 11863, Pitch_bend_c, 0, 8256
2, 11869, Pitch_bend_c, 0, 8192
2, 11872, Note_on_c, 0, 76, 116
2, 11873, Pitch_bend_c, 0, 8128
2, 11874, Pitch_bend_c, 0, 8064
2, 11875, Pitch_bend_c, 0, 8128
2, 11880, Pitch_bend_c, 0, 8064
2, 11882, Pitch_bend_c, 0, 8384
2, 11884, Pitch_bend_c, 0, 10912
2, 11885, Pitch_bend_c, 0, 11200
2, 11886, Pitch_bend_c, 0, 11648
2, 11888, Pitch_bend_c, 0, 12064
2, 11889, Pitch_bend_c, 0, 12576
2, 11891, Note_on_c, 0, 76, 0
2, 11891, Pitch_bend_c, 0, 12736
2, 11905, Pitch_bend_c, 0, 8192
2, 11906, Note_on_c, 0, 73, 112
2, 11906, Pitch_bend_c, 0, 8416
2, 11907, Pitch_bend_c, 0, 8352
2, 11909, Pitch_bend_c, 0, 8384
2, 11910, Pitch_bend_c, 0, 8416
2, 11911, Pitch_bend_c, 0, 8384
2, 11914, Pitch_bend_c, 0, 8352
2, 11916, Pitch_bend_c, 0, 8256
2, 11918, Pitch_bend_c, 0, 8224
2, 11920, Pitch_bend_c, 0, 8192
2, 11923, Pitch_bend_c, 0, 8160
2, 11926, Pitch_bend_c, 0, 8128
2, 11930, Pitch_bend_c, 0, 8160
2, 11931, Pitch_bend_c, 0, 8192
2, 11932, Pitch_bend_c, 0, 8256
2, 11934, Pitch_bend_c, 0, 8288
2, 11935, Note_on_c, 0, 73, 0
2, 11937, Pitch_bend_c, 0, 8192
2, 11938, Note_on_c, 0, 70, 77
2, 11938, Pitch_bend_c, 0, 8064
2, 11939, Pitch_bend_c, 0, 8096
2, 11944, Pitch_bend_c, 0, 8064
2, 11947, Pitch_bend_c, 0, 8032
2, 11949, Note_on_c, 0, 70, 0
2, 11950, Pitch_bend_c, 0, 8192
2, 11951, Note_on_c, 0, 70, 95
2, 11952, Pitch_bend_c, 0, 8160
2, 11954, Pitch_bend_c, 0, 8256
2, 11955, Pitch_bend_c, 0, 8480
2, 11957, Pitch_bend_c, 0, 8768
2, 11958, Pitch_bend_c, 0, 9056
2, 11959, Pitch_bend_c, 0, 9184
2, 11961, Pitch_bend_c, 0, 9024
2, 11962, Pitch_bend_c, 0, 8640
2, 11963, Pitch_bend_c, 0, 8320
2, 11965, Pitch_bend_c, 0, 8000
2, 11966, Pitch_bend_c, 0, 7872
2, 11968, Pitch_bend_c, 0, 7936
2, 11969, Pitch_bend_c, 0, 8256
2, 11971, Pitch_bend_c, 0, 8800
2, 11972, Pitch_bend_c, 0, 9440
2, 11973, Pitch_bend_c, 0, 9952
2, 11975, Pitch_bend_c, 0, 10048
2, 11976, Pitch_bend_c, 0, 9792
2, 11977, Pitch_bend_c, 0, 9440
2, 11979, Pitch_bend_c, 0, 9056
2, 11980, Pitch_bend_c, 0, 8704
2, 11982, Pitch_bend_c, 0, 8544
2, 11983, Pitch_bend_c, 0, 8416
2, 11985, Pitch_bend_c, 0, 8320
2, 11986, Pitch_bend_c, 0, 8224
2, 11987, Pitch_bend_c, 0, 8192
2, 11989, Pitch_bend_c, 0, 8128
2, 11990, Pitch_bend_c, 0, 8096
2, 11993, Pitch_bend_c, 0, 8064
2, 11996, Pitch_bend_c, 0, 8032
2, 11998, Pitch_bend_c, 0, 8000
2, 12000, Pitch_bend_c, 0, 8128
2, 12001, Note_on_c, 0, 70, 0
2, 12006, Note_on_c, 0, 67, 34
2, 12006, Pitch_bend_c, 0, 8192
2, 12010, Pitch_bend_c, 0, 8128
2, 12012, Pitch_bend_c, 0, 8096
2, 12015, Pitch_bend_c, 0, 8160
2, 12016, Pitch_bend_c, 0, 8064
2, 12018, Note_on_c, 0, 67, 0
2, 12018, Pitch_bend_c, 0, 8128
2, 12020, Pitch_bend_c, 0, 8192
2, 12021, Note_on_c, 0, 70, 107
2, 12021, Pitch_bend_c, 0, 8128
2, 12024, Pitch_bend_c, 0, 8160
2, 12026, Pitch_bend_c, 0, 8192
2, 12029, Pitch_bend_c, 0, 8224
2, 12030, Pitch_bend_c, 0, 8256
2, 12031, Pitch_bend_c, 0, 8288
2, 12033, Note_on_c, 0, 70, 0
2, 12034, Pitch_bend_c, 0, 8192
2, 12035, Note_on_c, 0, 72, 112
2, 12036, Pitch_bend_c, 0, 8544
2, 12037, Pitch_bend_c, 0, 8320
2, 12038, Pitch_bend_c, 0, 8288
2, 12039, Pitch_bend_c, 0, 8352
2, 12041, Pitch_bend_c, 0, 8480
2, 12042, Pitch_bend_c, 0, 8416
2, 12045, Pitch_bend_c, 0, 8352
2, 12046, Pitch_bend_c, 0, 8256
2, 12049, Pitch_bend_c, 0, 8288
2, 12050, Pitch_bend_c, 0, 8480
2, 12051, Note_on_c, 0, 72, 0
2, 12056, Note_on_c, 0, 72, 111
2, 12057, Pitch_bend_c, 0, 8448
2, 12058, Pitch_bend_c, 0, 8480
2, 12061, Pitch_bend_c, 0, 8448
2, 12062, Pitch_bend_c, 0, 8416
2, 12063, Pitch_bend_c, 0, 8320
2, 12067, Pitch_bend_c, 0, 8288
2, 12069, Pitch_bend_c, 0, 8352
2, 12070, Pitch_bend_c, 0, 8448
2, 12072, Pitch_bend_c, 0, 8512
2, 12073, Pitch_bend_c, 0, 8640
2, 12074, Pitch_bend_c, 0, 8736
2, 12076, Pitch_bend_c, 0, 8832
2, 12077, Pitch_bend_c, 0, 8928
2, 12078, Pitch_bend_c, 0, 9056
2, 12080, Pitch_bend_c, 0, 9088
2, 12081, Pitch_bend_c, 0, 9152
2, 12083, Pitch_bend_c, 0, 9216
2, 12084, Pitch_bend_c, 0, 9248
2, 12086, Pitch_bend_c, 0, 9280
2, 12087, Pitch_bend_c, 0, 9312
2, 12088, Pitch_bend_c, 0, 9408
2, 12090, Pitch_bend_c, 0, 9472
2, 12091, Pitch_bend_c, 0, 9536
2, 12093, Pitch_bend_c, 0, 9632
2, 12094, Pitch_bend_c, 0, 9664
2, 12096, Pitch_bend_c, 0, 9696
2, 12098, Pitch_bend_c, 0, 9728
2, 12100, Pitch_bend_c, 0, 9856
2, 12101, Pitch_bend_c, 0, 10016
2, 12103, Pitch_bend_c, 0, 10208
2, 12104, Pitch_bend_c, 0, 10400
2, 12106, Pitch_bend_c, 0, 10592
2, 12107, Pitch_bend_c, 0, 10720
2, 12108, Pitch_bend_c, 0, 10880
2, 12110, Pitch_bend_c, 0, 11040
2, 12111, Pitch_bend_c, 0, 11104
2, 12113, Pitch_bend_c, 0, 11136
2, 12114, Pitch_bend_c, 0, 11104
2, 12115, Pitch_bend_c, 0, 10944
2, 12117, Pitch_bend_c, 0, 10592
2, 12118, Pitch_bend_c, 0, 10112
2, 12119, Pitch_bend_c, 0, 9664
2, 12121, Pitch_bend_c, 0, 9408
2, 12122, Pitch_bend_c, 0, 9440
2, 12124, Pitch_bend_c, 0, 9888
2, 12125, Pitch_bend_c, 0, 10528
2, 12127, Pitch_bend_c, 0, 11264
2, 12128, Pitch_bend_c, 0, 12000
2, 12129, Pitch_bend_c, 0, 12480
2, 12131, Pitch_bend_c, 0, 12768
2, 12132, Pitch_bend_c, 0, 12832
2, 12133, Pitch_bend_c, 0, 12544
2, 12135, Pitch_bend_c, 0, 10208
2, 12136, Pitch_bend_c, 0, 10048
2, 12137, Pitch_bend_c, 0, 9952
2, 12140, Pitch_bend_c, 0, 10272
2, 12141, Lyric_t, "hang"
2, 12142, Pitch_bend_c, 0, 10944
2, 12143, Pitch_bend_c, 0, 11712
2, 12145, Pitch_bend_c, 0, 12480
2, 12146, Pitch_bend_c, 0, 12960
2, 12147, Pitch_bend_c, 0, 13216
2, 12149, Pitch_bend_c, 0, 12992
2, 12150, Pitch_bend_c, 0, 10656
2, 12152, Pitch_bend_c, 0, 10336
2, 12153, Pitch_bend_c, 0, 9824
2, 12155, Pitch_bend_c, 0, 9280
2, 12156, Pitch_bend_c, 0, 8736
2, 12157, Note_on_c, 0, 72, 0
2, 12157, Pitch_bend_c, 0, 10656
2, 12176, Lyric_t, "in' "
2, 12195, Lyric_t, "a"
2, 12219, Lyric_t, "round "
2, 12247, Lyric_t, "my "
2, 12276, Lyric_t, "house "
2, 12375, Lyric_t, "when "
2, 12399, Lyric_t, "I'm "
2, 12415, Lyric_t, "not "
2, 12433, Lyric_t, "at "
2, 12457, Lyric_t, "home. "
2, 12457, Lyric_t, "\015"
2, 12457, Lyric_t, "\012"
2, 12536, Pitch_bend_c, 0, 8192
2, 12542, Note_on_c, 0, 77, 117
2, 12542, Pitch_bend_c, 0, 8384
2, 12546, Pitch_bend_c, 0, 8416
2, 12548, Pitch_bend_c, 0, 8544
2, 12549, Pitch_bend_c, 0, 8672
2, 12550, Pitch_bend_c, 0, 8832
2, 12552, Pitch_bend_c, 0, 8992
2, 12553, Pitch_bend_c, 0, 9248
2, 12554, Pitch_bend_c, 0, 9536
2, 12556, Pitch_bend_c, 0, 9920
2, 12557, Pitch_bend_c, 0, 10400
2, 12559, Pitch_bend_c, 0, 10880
2, 12560, Pitch_bend_c, 0, 11392
2, 12562, Pitch_bend_c, 0, 11744
2, 12563, Pitch_bend_c, 0, 11936
2, 12564, Pitch_bend_c, 0, 12000
2, 12566, Note_on_c, 0, 77, 0
2, 12569, Note_on_c, 0, 77, 116
2, 12569, Pitch_bend_c, 0, 8416
2, 12575, Pitch_bend_c, 0, 8384
2, 12578, Pitch_bend_c, 0, 8320
2, 12584, Pitch_bend_c, 0, 8288
2, 12585, Note_on_c, 0, 77, 0
2, 12591, Pitch_bend_c, 0, 8192
2, 12592, Note_on_c, 0, 75, 113
2, 12592, Pitch_bend_c, 0, 8352
2, 12593, Pitch_bend_c, 0, 8448
2, 12602, Pitch_bend_c, 0, 8416
2, 12604, Note_on_c, 0, 75, 0
2, 12604, Pitch_bend_c, 0, 8352
2, 12610, Note_on_c, 0, 76, 112
2, 12610, Pitch_bend_c, 0, 12576
2, 12612, Pitch_bend_c, 0, 12480
2, 12622, Note_on_c, 0, 76, 0
2, 12622, Pitch_bend_c, 0, 12512
2, 12632, Note_on_c, 0, 72, 111
2, 12632, Pitch_bend_c, 0, 8544
2, 12635, Pitch_bend_c, 0, 8480
2, 12637, Pitch_bend_c, 0, 8448
2, 12638, Pitch_bend_c, 0, 8352
2, 12643, Pitch_bend_c, 0, 8608
2, 12644, Pitch_bend_c, 0, 12096
2, 12645, Pitch_bend_c, 0, 12128
2, 12648, Pitch_bend_c, 0, 12192
2, 12650, Pitch_bend_c, 0, 12224
2, 12651, Pitch_bend_c, 0, 12320
2, 12652, Pitch_bend_c, 0, 8160
2, 12654, Pitch_bend_c, 0, 8192
2, 12658, Pitch_bend_c, 0, 8288
2, 12659, Pitch_bend_c, 0, 8416
2, 12661, Note_on_c, 0, 72, 0
2, 12661, Note_on_c, 0, 69, 85
2, 12661, Pitch_bend_c, 0, 12096
2, 12662, Pitch_bend_c, 0, 12224
2, 12671, Pitch_bend_c, 0, 12256
2, 12672, Pitch_bend_c, 0, 12288
2, 12674, Note_on_c, 0, 69, 0
2, 12674, Pitch_bend_c, 0, 8192
2, 12675, Note_on_c, 0, 71, 109
2, 12676, Pitch_bend_c, 0, 12512
2, 12677, Pitch_bend_c, 0, 12416
2, 12679, Pitch_bend_c, 0, 12448
2, 12682, Pitch_bend_c, 0, 12512
2, 12684, Pitch_bend_c, 0, 12448
2, 12685, Pitch_bend_c, 0, 12416
2, 12687, Pitch_bend_c, 0, 12352
2, 12688, Pitch_bend_c, 0, 12288
2, 12692, Pitch_bend_c, 0, 12320
2, 12693, Note_on_c, 0, 71, 0
2, 12693, Pitch_bend_c, 0, 12448
2, 12695, Pitch_bend_c, 0, 8192
2, 12696, Note_on_c, 0, 67, 62
2, 12696, Pitch_bend_c, 0, 8160
2, 12697, Pitch_bend_c, 0, 8192
2, 12703, Pitch_bend_c, 0, 8160
2, 12704, Pitch_bend_c, 0, 8128
2, 12706, Pitch_bend_c, 0, 8096
2, 12708, Pitch_bend_c, 0, 8064
2, 12710, Pitch_bend_c, 0, 8096
2, 12711, Pitch_bend_c, 0, 8192
2, 12712, Note_on_c, 0, 67, 0
2, 12714, Note_on_c, 0, 70, 112
2, 12714, Pitch_bend_c, 0, 8160
2, 12715, Pitch_bend_c, 0, 8128
2, 12719, Pitch_bend_c, 0, 8160
2, 12722, Pitch_bend_c, 0, 8224
2, 12723, Pitch_bend_c, 0, 8416
2, 12725, Pitch_bend_c, 0, 8800
2, 12726, Pitch_bend_c, 0, 9248
2, 12727, Pitch_bend_c, 0, 9696
2, 12729, Pitch_bend_c, 0, 9952
2, 12732, Pitch_bend_c, 0, 9568
2, 12733, Pitch_bend_c, 0, 9024
2, 12735, Pitch_bend_c, 0, 8512
2, 12736, Pitch_bend_c, 0, 8128
2, 12737, Pitch_bend_c, 0, 8000
2, 12739, Pitch_bend_c, 0, 8064
2, 12740, Pitch_bend_c, 0, 8256
2, 12742, Pitch_bend_c, 0, 8608
2, 12743, Pitch_bend_c, 0, 9024
2, 12744, Pitch_bend_c, 0, 9344
2, 12746, Pitch_bend_c, 0, 9408
2, 12747, Pitch_bend_c, 0, 9248
2, 12748, Pitch_bend_c, 0, 9024
2, 12750, Pitch_bend_c, 0, 8800
2, 12751, Note_on_c, 0, 70, 0
2, 12751, Pitch_bend_c, 0, 9344
2, 12753, Pitch_bend_c, 0, 8192
2, 12754, Note_on_c, 0, 73, 105
2, 12754, Pitch_bend_c, 0, 8544
2, 12757, Pitch_bend_c, 0, 8512
2, 12758, Pitch_bend_c, 0, 8448
2, 12759, Pitch_bend_c, 0, 8416
2, 12761, Pitch_bend_c, 0, 8352
2, 12762, Pitch_bend_c, 0, 8256
2, 12764, Pitch_bend_c, 0, 8192
2, 12765, Pitch_bend_c, 0, 8160
2, 12768, Pitch_bend_c, 0, 8192
2, 12773, Pitch_bend_c, 0, 8160
2, 12777, Pitch_bend_c, 0, 8128
2, 12778, Pitch_bend_c, 0, 8064
2, 12779, Pitch_bend_c, 0, 8032
2, 12786, Pitch_bend_c, 0, 8064
2, 12788, Pitch_bend_c, 0, 8160
2, 12789, Pitch_bend_c, 0, 8224
2, 12790, Pitch_bend_c, 0, 8416
2, 12792, Pitch_bend_c, 0, 8768
2, 12793, Pitch_bend_c, 0, 9376
2, 12794, Pitch_bend_c, 0, 10144
2, 12796, Pitch_bend_c, 0, 10976
2, 12797, Pitch_bend_c, 0, 11616
2, 12799, Pitch_bend_c, 0, 11968
2, 12800, Note_on_c, 0, 73, 0
2, 12864, Pitch_bend_c, 0, 8192
2, 12865, Note_on_c, 0, 70, 116
2, 12865, Pitch_bend_c, 0, 8384
2, 12871, Pitch_bend_c, 0, 8416
2, 12874, Pitch_bend_c, 0, 8448
2, 12876, Pitch_bend_c, 0, 8512
2, 12877, Note_on_c, 0, 70, 0
2, 12877, Pitch_bend_c, 0, 8544
2, 12880, Pitch_bend_c, 0, 8192
2, 12881, Note_on_c, 0, 65, 109
2, 12881, Pitch_bend_c, 0, 8640
2, 12882, Pitch_bend_c, 0, 8608
2, 12883, Pitch_bend_c, 0, 8576
2, 12888, Pitch_bend_c, 0, 8544
2, 12890, Pitch_bend_c, 0, 8480
2, 12891, Pitch_bend_c, 0, 8096
2, 12893, Note_on_c, 0, 65, 0
2, 12893, Pitch_bend_c, 0, 8576
2, 12896, Lyric_t, "Yes, "
2, 12899, Pitch_bend_c, 0, 8192
2, 12900, Note_on_c, 0, 63, 78
2, 12901, Pitch_bend_c, 0, 8032
2, 12902, Pitch_bend_c, 0, 8064
2, 12906, Pitch_bend_c, 0, 8096
2, 12907, Pitch_bend_c, 0, 8128
2, 12911, Pitch_bend_c, 0, 8032
2, 12912, Note_on_c, 0, 63, 0
2, 12912, Pitch_bend_c, 0, 8064
2, 12916, Pitch_bend_c, 0, 8192
2, 12917, Note_on_c, 0, 65, 118
2, 12917, Pitch_bend_c, 0, 8160
2, 12922, Pitch_bend_c, 0, 8128
2, 12924, Pitch_bend_c, 0, 8096
2, 12928, Pitch_bend_c, 0, 8064
2, 12929, Pitch_bend_c, 0, 8000
2, 12930, Note_on_c, 0, 65, 0
2, 12930, Pitch_bend_c, 0, 8160
2, 12938, Pitch_bend_c, 0, 8192
2, 12939, Note_on_c, 0, 61, 71
2, 12940, Pitch_bend_c, 0, 8160
2, 12942, Pitch_bend_c, 0, 8192
2, 12943, Pitch_bend_c, 0, 8224
2, 12950, Pitch_bend_c, 0, 8192
2, 12960, Pitch_bend_c, 0, 8224
2, 12961, Pitch_bend_c, 0, 8256
2, 12963, Pitch_bend_c, 0, 8288
2, 12965, Pitch_bend_c, 0, 8352
2, 12966, Pitch_bend_c, 0, 8384
2, 12967, Pitch_bend_c, 0, 8448
2, 12969, Pitch_bend_c, 0, 8544
2, 12970, Pitch_bend_c, 0, 8672
2, 12971, Pitch_bend_c, 0, 8800
2, 12973, Pitch_bend_c, 0, 8992
2, 12974, Pitch_bend_c, 0, 9248
2, 12976, Note_on_c, 0, 61, 0
2, 12976, Pitch_bend_c, 0, 9472
2, 12986, Lyric_t, "I "
2, 13017, Lyric_t, "don't "
2, 13047, Lyric_t, "want "
2, 13083, Lyric_t, "you "
2, 13099, Lyric_t, "to "
2, 13115, Lyric_t, "an"
2, 13144, Lyric_t, "swer "
2, 13158, Lyric_t, "the "
2, 13174, Lyric_t, "door "
2, 13174, Lyric_t, "\015"
2, 13211, Lyric_t, "for "
2, 13232, Lyric_t, "no"
2, 13253, Lyric_t, "bod"
2, 13273, Lyric_t, "y, "
2, 13291, Lyric_t, "ba"
2, 13319, Lyric_t, "by, "
2, 13319, Lyric_t, "\015"
2, 13319, Lyric_t, "\012"
2, 13343, Pitch_bend_c, 0, 8192
2, 13344, Note_on_c, 0, 67, 126
2, 13344, Pitch_bend_c, 0, 8256
2, 13346, Pitch_bend_c, 0, 8192
2, 13346, Note_on_c, 0, 70, 126
2, 13364, Note_on_c, 0, 70, 0
2, 13365, Note_on_c, 0, 70, 113
2, 13371, Note_on_c, 0, 67, 0
2, 13374, Pitch_bend_c, 0, 7968
2, 13375, Pitch_bend_c, 0, 7936
2, 13376, Pitch_bend_c, 0, 7712
2, 13377, Pitch_bend_c, 0, 7488
2, 13378, Note_on_c, 0, 70, 0
2, 13384, Pitch_bend_c, 0, 8192
2, 13385, Note_on_c, 0, 73, 116
2, 13385, Pitch_bend_c, 0, 8512
2, 13388, Pitch_bend_c, 0, 8416
2, 13390, Pitch_bend_c, 0, 8288
2, 13391, Pitch_bend_c, 0, 8160
2, 13393, Pitch_bend_c, 0, 8064
2, 13394, Pitch_bend_c, 0, 8032
2, 13395, Pitch_bend_c, 0, 8288
2, 13396, Note_on_c, 0, 73, 0
2, 13410, Pitch_bend_c, 0, 8192
2, 13411, Note_on_c, 0, 75, 116
2, 13411, Pitch_bend_c, 0, 8320
2, 13414, Pitch_bend_c, 0, 8224
2, 13417, Pitch_bend_c, 0, 8320
2, 13418, Pitch_bend_c, 0, 8256
2, 13420, Pitch_bend_c, 0, 8544
2, 13421, Pitch_bend_c, 0, 9088
2, 13422, Pitch_bend_c, 0, 11552
2, 13424, Pitch_bend_c, 0, 11872
2, 13425, Pitch_bend_c, 0, 12416
2, 13427, Pitch_bend_c, 0, 14880
2, 13428, Pitch_bend_c, 0, 15072
2, 13429, Pitch_bend_c, 0, 15264
2, 13431, Pitch_bend_c, 0, 15552
2, 13432, Pitch_bend_c, 0, 15840
2, 13434, Pitch_bend_c, 0, 15968
2, 13435, Pitch_bend_c, 0, 16032
2, 13437, Pitch_bend_c, 0, 16064
2, 13438, Pitch_bend_c, 0, 16032
2, 13441, Pitch_bend_c, 0, 15968
2, 13442, Pitch_bend_c, 0, 15936
2, 13443, Pitch_bend_c, 0, 15872
2, 13445, Pitch_bend_c, 0, 15840
2, 13450, Pitch_bend_c, 0, 15776
2, 13452, Pitch_bend_c, 0, 15744
2, 13454, Pitch_bend_c, 0, 15680
2, 13458, Pitch_bend_c, 0, 15648
2, 13459, Pitch_bend_c, 0, 15584
2, 13460, Pitch_bend_c, 0, 15456
2, 13462, Pitch_bend_c, 0, 15200
2, 13463, Pitch_bend_c, 0, 11648
2, 13464, Pitch_bend_c, 0, 8896
2, 13466, Pitch_bend_c, 0, 8640
2, 13467, Pitch_bend_c, 0, 8352
2, 13469, Pitch_bend_c, 0, 8064
2, 13470, Pitch_bend_c, 0, 7904
2, 13471, Note_on_c, 0, 75, 0
2, 13471, Pitch_bend_c, 0, 8896
2, 13473, Pitch_bend_c, 0, 8192
2, 13474, Note_on_c, 0, 73, 111
2, 13474, Pitch_bend_c, 0, 8416
2, 13475, Pitch_bend_c, 0, 8224
2, 13476, Pitch_bend_c, 0, 8256
2, 13478, Pitch_bend_c, 0, 8352
2, 13479, Pitch_bend_c, 0, 8384
2, 13482, Note_on_c, 0, 73, 0
2, 13483, Pitch_bend_c, 0, 8192
2, 13484, Note_on_c, 0, 70, 103
2, 13491, Pitch_bend_c, 0, 8128
2, 13492, Pitch_bend_c, 0, 8032
2, 13493, Pitch_bend_c, 0, 7904
2, 13495, Pitch_bend_c, 0, 7840
2, 13496, Pitch_bend_c, 0, 7776
2, 13499, Pitch_bend_c, 0, 7872
2, 13500, Pitch_bend_c, 0, 8128
2, 13502, Pitch_bend_c, 0, 8576
2, 13503, Pitch_bend_c, 0, 9152
2, 13504, Pitch_bend_c, 0, 9632
2, 13506, Pitch_bend_c, 0, 9920
2, 13509, Pitch_bend_c, 0, 9792
2, 13510, Pitch_bend_c, 0, 9632
2, 13512, Pitch_bend_c, 0, 9440
2, 13513, Pitch_bend_c, 0, 9248
2, 13514, Pitch_bend_c, 0, 9088
2, 13516, Pitch_bend_c, 0, 8960
2, 13517, Pitch_bend_c, 0, 8864
2, 13518, Pitch_bend_c, 0, 8768
2, 13520, Pitch_bend_c, 0, 8608
2, 13521, Pitch_bend_c, 0, 8480
2, 13523, Pitch_bend_c, 0, 8320
2, 13524, Pitch_bend_c, 0, 8192
2, 13526, Note_on_c, 0, 70, 0
2, 13526, Note_on_c, 0, 73, 120
2, 13526, Pitch_bend_c, 0, 8000
2, 13527, Pitch_bend_c, 0, 8160
2, 13530, Pitch_bend_c, 0, 8128
2, 13532, Pitch_bend_c, 0, 8032
2, 13533, Pitch_bend_c, 0, 7968
2, 13534, Pitch_bend_c, 0, 7872
2, 13536, Pitch_bend_c, 0, 7808
2, 13537, Pitch_bend_c, 0, 7936
2, 13538, Pitch_bend_c, 0, 8192
2, 13541, Pitch_bend_c, 0, 9472
2, 13543, Pitch_bend_c, 0, 10240
2, 13544, Pitch_bend_c, 0, 10880
2, 13545, Pitch_bend_c, 0, 11360
2, 13547, Pitch_bend_c, 0, 11552
2, 13548, Pitch_bend_c, 0, 11648
2, 13549, Note_on_c, 0, 73, 0
2, 13580, Lyric_t, "oh, "
2, 13703, Lyric_t, "when "
2, 13737, Lyric_t, "you're "
2, 13764, Lyric_t, "home "
2, 13764, Lyric_t, "\015"
2, 13863, Lyric_t, "and "
2, 13892, Lyric_t, "you "
2, 13911, Lyric_t, "know "
2, 13928, Lyric_t, "you're "
2, 13949, Lyric_t, "all "
2, 13976, Lyric_t, "a"
2, 13991, Lyric_t, "lone. "
2, 13991, Lyric_t, "\015"
2, 13991, Lyric_t, "\012"
2, 14043, Pitch_bend_c, 0, 8192
2, 14044, Note_on_c, 0, 63, 116
2, 14044, Pitch_bend_c, 0, 8256
2, 14047, Pitch_bend_c, 0, 8288
2, 14048, Pitch_bend_c, 0, 8320
2, 14050, Pitch_bend_c, 0, 8384
2, 14051, Pitch_bend_c, 0, 8480
2, 14053, Pitch_bend_c, 0, 8768
2, 14054, Pitch_bend_c, 0, 9248
2, 14055, Pitch_bend_c, 0, 9824
2, 14057, Pitch_bend_c, 0, 10368
2, 14058, Pitch_bend_c, 0, 10752
2, 14060, Note_on_c, 0, 63, 0
2, 14060, Pitch_bend_c, 0, 10912
2, 14073, Pitch_bend_c, 0, 8192
2, 14074, Note_on_c, 0, 61, 114
2, 14074, Pitch_bend_c, 0, 8064
2, 14077, Pitch_bend_c, 0, 8032
2, 14080, Pitch_bend_c, 0, 8000
2, 14083, Pitch_bend_c, 0, 8032
2, 14084, Pitch_bend_c, 0, 8064
2, 14085, Note_on_c, 0, 61, 0
2, 14088, Pitch_bend_c, 0, 8192
2, 14089, Note_on_c, 0, 58, 96
2, 14098, Pitch_bend_c, 0, 8224
2, 14101, Pitch_bend_c, 0, 8192
2, 14114, Note_on_c, 0, 58, 0
2, 14114, Pitch_bend_c, 0, 8224
2, 14116, Pitch_bend_c, 0, 8192
2, 14117, Note_on_c, 0, 61, 109
2, 14117, Pitch_bend_c, 0, 7936
2, 14118, Pitch_bend_c, 0, 7904
2, 14119, Pitch_bend_c, 0, 7872
2, 14123, Pitch_bend_c, 0, 7904
2, 14124, Pitch_bend_c, 0, 7936
2, 14126, Pitch_bend_c, 0, 7968
2, 14127, Pitch_bend_c, 0, 8000
2, 14129, Note_on_c, 0, 61, 0
2, 14129, Note_on_c, 0, 63, 110
2, 14129, Pitch_bend_c, 0, 7968
2, 14130, Pitch_bend_c, 0, 8000
2, 14137, Pitch_bend_c, 0, 7968
2, 14139, Pitch_bend_c, 0, 7936
2, 14142, Pitch_bend_c, 0, 7872
2, 14143, Pitch_bend_c, 0, 7808
2, 14144, Note_on_c, 0, 63, 0
2, 14144, Pitch_bend_c, 0, 7968
2, 14156, Note_on_c, 0, 61, 118
2, 14156, Pitch_bend_c, 0, 8288
2, 14157, Pitch_bend_c, 0, 8064
2, 14158, Pitch_bend_c, 0, 8128
2, 14161, Pitch_bend_c, 0, 8160
2, 14164, Pitch_bend_c, 0, 8128
2, 14167, Pitch_bend_c, 0, 8064
2, 14169, Pitch_bend_c, 0, 8032
2, 14173, Pitch_bend_c, 0, 8064
2, 14175, Pitch_bend_c, 0, 8128
2, 14176, Pitch_bend_c, 0, 8288
2, 14178, Pitch_bend_c, 0, 8576
2, 14179, Pitch_bend_c, 0, 8992
2, 14180, Pitch_bend_c, 0, 9536
2, 14182, Pitch_bend_c, 0, 10016
2, 14183, Pitch_bend_c, 0, 10368
2, 14185, Pitch_bend_c, 0, 10528
2, 14186, Pitch_bend_c, 0, 10432
2, 14188, Pitch_bend_c, 0, 10080
2, 14189, Pitch_bend_c, 0, 9568
2, 14190, Pitch_bend_c, 0, 9056
2, 14191, Pitch_bend_c, 0, 10528
2, 14192, Note_on_c, 0, 61, 0
2, 14192, Note_on_c, 0, 58, 99
2, 14192, Pitch_bend_c, 0, 8224
2, 14198, Pitch_bend_c, 0, 8128
2, 14200, Note_on_c, 0, 58, 0
2, 14200, Pitch_bend_c, 0, 8192
2, 14201, Note_on_c, 0, 56, 93
2, 14201, Pitch_bend_c, 0, 8224
2, 14202, Pitch_bend_c, 0, 8192
2, 14204, Note_on_c, 0, 45, 45
2, 14206, Note_on_c, 0, 45, 0
2, 14206, Pitch_bend_c, 0, 8224
2, 14208, Pitch_bend_c, 0, 8320
2, 14209, Pitch_bend_c, 0, 8192
2, 14210, Note_on_c, 0, 56, 0
2, 14210, Note_on_c, 0, 53, 105
2, 14210, Pitch_bend_c, 0, 8000
2, 14213, Pitch_bend_c, 0, 8032
2, 14215, Pitch_bend_c, 0, 8064
2, 14216, Pitch_bend_c, 0, 8032
2, 14217, Pitch_bend_c, 0, 8000
2, 14226, Pitch_bend_c, 0, 7968
2, 14228, Pitch_bend_c, 0, 8000
2, 14233, Pitch_bend_c, 0, 7968
2, 14234, Pitch_bend_c, 0, 7936
2, 14236, Pitch_bend_c, 0, 7904
2, 14239, Pitch_bend_c, 0, 7872
2, 14243, Pitch_bend_c, 0, 7840
2, 14246, Pitch_bend_c, 0, 7808
2, 14251, Pitch_bend_c, 0, 7264
2, 14252, Note_on_c, 0, 53, 0
2, 14301, Pitch_bend_c, 0, 8192
2, 14302, Note_on_c, 0, 58, 127
2, 14303, Pitch_bend_c, 0, 7648
2, 14304, Pitch_bend_c, 0, 8192
2, 14304, Note_on_c, 0, 67, 127
2, 14304, Note_on_c, 0, 61, 127
2, 14324, Note_on_c, 0, 58, 0
2, 14325, Note_on_c, 0, 61, 0
2, 14326, Pitch_bend_c, 0, 7552
2, 14327, Note_on_c, 0, 67, 0
2, 14457, Pitch_bend_c, 0, 8192
2, 14458, Note_on_c, 0, 65, 111
2, 14458, Pitch_bend_c, 0, 8864
2, 14459, Pitch_bend_c, 0, 8928
2, 14461, Pitch_bend_c, 0, 8896
2, 14462, Pitch_bend_c, 0, 8864
2, 14464, Pitch_bend_c, 0, 8800
2, 14465, Pitch_bend_c, 0, 8768
2, 14467, Pitch_bend_c, 0, 8672
2, 14468, Pitch_bend_c, 0, 8608
2, 14469, Pitch_bend_c, 0, 8384
2, 14471, Note_on_c, 0, 65, 0
2, 14471, Pitch_bend_c, 0, 8768
2, 14492, Pitch_bend_c, 0, 8192
2, 14493, Note_on_c, 0, 70, 122
2, 14493, Pitch_bend_c, 0, 8320
2, 14494, Pitch_bend_c, 0, 8288
2, 14497, Pitch_bend_c, 0, 8320
2, 14498, Pitch_bend_c, 0, 8352
2, 14500, Pitch_bend_c, 0, 8320
2, 14501, Pitch_bend_c, 0, 8256
2, 14502, Pitch_bend_c, 0, 8192
2, 14504, Pitch_bend_c, 0, 8160
2, 14505, Pitch_bend_c, 0, 8064
2, 14507, Pitch_bend_c, 0, 8032
2, 14508, Pitch_bend_c, 0, 7968
2, 14510, Pitch_bend_c, 0, 7904
2, 14511, Pitch_bend_c, 0, 7872
2, 14514, Pitch_bend_c, 0, 7840
2, 14515, Pitch_bend_c, 0, 7872
2, 14518, Pitch_bend_c, 0, 8000
2, 14519, Pitch_bend_c, 0, 8352
2, 14521, Pitch_bend_c, 0, 8896
2, 14522, Pitch_bend_c, 0, 9536
2, 14524, Pitch_bend_c, 0, 10048
2, 14525, Pitch_bend_c, 0, 10272
2, 14528, Pitch_bend_c, 0, 9856
2, 14529, Pitch_bend_c, 0, 7680
2, 14530, Pitch_bend_c, 0, 7712
2, 14533, Pitch_bend_c, 0, 7680
2, 14535, Pitch_bend_c, 0, 7744
2, 14536, Pitch_bend_c, 0, 7808
2, 14537, Pitch_bend_c, 0, 8032
2, 14539, Pitch_bend_c, 0, 8416
2, 14540, Pitch_bend_c, 0, 8768
2, 14542, Pitch_bend_c, 0, 9024
2, 14543, Pitch_bend_c, 0, 8992
2, 14544, Pitch_bend_c, 0, 8640
2, 14546, Pitch_bend_c, 0, 8192
2, 14547, Pitch_bend_c, 0, 7904
2, 14549, Pitch_bend_c, 0, 7744
2, 14550, Pitch_bend_c, 0, 7712
2, 14551, Pitch_bend_c, 0, 7776
2, 14552, Note_on_c, 0, 70, 0
2, 14552, Pitch_bend_c, 0, 8192
2, 14556, Note_on_c, 0, 70, 117
2, 14556, Pitch_bend_c, 0, 8064
2, 14557, Pitch_bend_c, 0, 8256
2, 14559, Pitch_bend_c, 0, 8192
2, 14560, Pitch_bend_c, 0, 8096
2, 14563, Pitch_bend_c, 0, 8032
2, 14566, Pitch_bend_c, 0, 8000
2, 14568, Pitch_bend_c, 0, 7936
2, 14569, Pitch_bend_c, 0, 7840
2, 14570, Pitch_bend_c, 0, 7360
2, 14571, Note_on_c, 0, 70, 0
2, 14571, Pitch_bend_c, 0, 8032
2, 14588, Pitch_bend_c, 0, 8192
2, 14589, Note_on_c, 0, 75, 126
2, 14589, Pitch_bend_c, 0, 8576
2, 14590, Pitch_bend_c, 0, 8352
2, 14592, Pitch_bend_c, 0, 8416
2, 14593, Pitch_bend_c, 0, 8736
2, 14595, Pitch_bend_c, 0, 9184
2, 14596, Pitch_bend_c, 0, 9920
2, 14598, Pitch_bend_c, 0, 12288
2, 14599, Pitch_bend_c, 0, 12480
2, 14601, Pitch_bend_c, 0, 12864
2, 14602, Pitch_bend_c, 0, 13344
2, 14603, Pitch_bend_c, 0, 13952
2, 14605, Pitch_bend_c, 0, 14496
2, 14606, Pitch_bend_c, 0, 14880
2, 14607, Pitch_bend_c, 0, 15200
2, 14609, Pitch_bend_c, 0, 15456
2, 14610, Pitch_bend_c, 0, 15680
2, 14612, Pitch_bend_c, 0, 15840
2, 14613, Pitch_bend_c, 0, 15968
2, 14614, Pitch_bend_c, 0, 16032
2, 14616, Pitch_bend_c, 0, 16064
2, 14617, Pitch_bend_c, 0, 16128
2, 14620, Pitch_bend_c, 0, 16160
2, 14623, Pitch_bend_c, 0, 16224
2, 14624, Pitch_bend_c, 0, 16256
2, 14626, Pitch_bend_c, 0, 16320
2, 14628, Pitch_bend_c, 0, 16383
2, 14629, Note_on_c, 0, 75, 0
2, 14657, Pitch_bend_c, 0, 8192
2, 14658, Note_on_c, 0, 75, 118
2, 14658, Pitch_bend_c, 0, 9344
2, 14659, Pitch_bend_c, 0, 10048
2, 14660, Pitch_bend_c, 0, 10464
2, 14662, Pitch_bend_c, 0, 11040
2, 14663, Pitch_bend_c, 0, 13376
2, 14665, Pitch_bend_c, 0, 13568
2, 14666, Pitch_bend_c, 0, 13920
2, 14667, Pitch_bend_c, 0, 14304
2, 14669, Pitch_bend_c, 0, 14816
2, 14670, Pitch_bend_c, 0, 15200
2, 14671, Pitch_bend_c, 0, 15488
2, 14673, Pitch_bend_c, 0, 15744
2, 14674, Pitch_bend_c, 0, 15872
2, 14676, Pitch_bend_c, 0, 16032
2, 14677, Pitch_bend_c, 0, 16064
2, 14678, Pitch_bend_c, 0, 16160
2, 14680, Pitch_bend_c, 0, 16224
2, 14681, Pitch_bend_c, 0, 16256
2, 14683, Pitch_bend_c, 0, 16320
2, 14707, Pitch_bend_c, 0, 16256
2, 14708, Pitch_bend_c, 0, 16320
2, 14722, Pitch_bend_c, 0, 16256
2, 14742, Pitch_bend_c, 0, 16224
2, 14757, Pitch_bend_c, 0, 16160
2, 14762, Pitch_bend_c, 0, 16224
2, 14768, Pitch_bend_c, 0, 16160
2, 14786, Pitch_bend_c, 0, 16128
2, 14797, Pitch_bend_c, 0, 16064
2, 14816, Pitch_bend_c, 0, 16032
2, 14824, Pitch_bend_c, 0, 15968
2, 14826, Note_on_c, 0, 75, 0
2, 14826, Pitch_bend_c, 0, 16160
2, 14868, Pitch_bend_c, 0, 8192
2, 14868, Note_on_c, 0, 70, 109
2, 14869, Pitch_bend_c, 0, 8128
2, 14871, Pitch_bend_c, 0, 8160
2, 14872, Pitch_bend_c, 0, 8128
2, 14874, Pitch_bend_c, 0, 8096
2, 14875, Pitch_bend_c, 0, 8032
2, 14876, Pitch_bend_c, 0, 7936
2, 14878, Pitch_bend_c, 0, 7840
2, 14879, Pitch_bend_c, 0, 7776
2, 14881, Pitch_bend_c, 0, 8032
2, 14882, Note_on_c, 0, 70, 0
2, 14886, Pitch_bend_c, 0, 8192
2, 14887, Note_on_c, 0, 73, 116
2, 14887, Pitch_bend_c, 0, 8704
2, 14888, Pitch_bend_c, 0, 8384
2, 14892, Pitch_bend_c, 0, 8352
2, 14894, Pitch_bend_c, 0, 8256
2, 14898, Pitch_bend_c, 0, 8224
2, 14900, Pitch_bend_c, 0, 8192
2, 14902, Note_on_c, 0, 73, 0
2, 14902, Pitch_bend_c, 0, 8384
2, 14909, Pitch_bend_c, 0, 8192
2, 14910, Note_on_c, 0, 75, 116
2, 14910, Pitch_bend_c, 0, 8416
2, 14914, Pitch_bend_c, 0, 8352
2, 14915, Pitch_bend_c, 0, 8192
2, 14917, Pitch_bend_c, 0, 8064
2, 14921, Pitch_bend_c, 0, 8032
2, 14922, Pitch_bend_c, 0, 8416
2, 14923, Note_on_c, 0, 75, 0
2, 14932, Note_on_c, 0, 75, 116
2, 14932, Pitch_bend_c, 0, 8224
2, 14933, Pitch_bend_c, 0, 8192
2, 14934, Pitch_bend_c, 0, 8320
2, 14935, Pitch_bend_c, 0, 8224
2, 14937, Pitch_bend_c, 0, 8192
2, 14938, Pitch_bend_c, 0, 8160
2, 14943, Pitch_bend_c, 0, 8064
2, 14945, Pitch_bend_c, 0, 8032
2, 14947, Pitch_bend_c, 0, 8064
2, 14948, Pitch_bend_c, 0, 8160
2, 14950, Pitch_bend_c, 0, 8256
2, 14951, Pitch_bend_c, 0, 8480
2, 14952, Pitch_bend_c, 0, 8768
2, 14954, Pitch_bend_c, 0, 9216
2, 14955, Pitch_bend_c, 0, 9760
2, 14957, Pitch_bend_c, 0, 10400
2, 14958, Pitch_bend_c, 0, 11040
2, 14959, Pitch_bend_c, 0, 11552
2, 14961, Pitch_bend_c, 0, 11872
2, 14962, Pitch_bend_c, 0, 12000
2, 14963, Pitch_bend_c, 0, 12032
2, 14965, Pitch_bend_c, 0, 11808
2, 14966, Note_on_c, 0, 75, 0
2, 14966, Pitch_bend_c, 0, 11872
2, 14969, Pitch_bend_c, 0, 8192
2, 14970, Note_on_c, 0, 77, 112
2, 14970, Pitch_bend_c, 0, 8896
2, 14972, Pitch_bend_c, 0, 8832
2, 14974, Pitch_bend_c, 0, 8800
2, 14975, Pitch_bend_c, 0, 8736
2, 14978, Pitch_bend_c, 0, 8672
2, 14981, Pitch_bend_c, 0, 8736
2, 14985, Pitch_bend_c, 0, 8800
2, 14987, Pitch_bend_c, 0, 8832
2, 14989, Note_on_c, 0, 77, 0
2, 14992, Pitch_bend_c, 0, 8192
2, 14993, Note_on_c, 0, 73, 109
2, 14993, Pitch_bend_c, 0, 8128
2, 14997, Pitch_bend_c, 0, 8160
2, 15004, Pitch_bend_c, 0, 8128
2, 15010, Pitch_bend_c, 0, 8064
2, 15014, Pitch_bend_c, 0, 8032
2, 15015, Pitch_bend_c, 0, 8064
2, 15018, Pitch_bend_c, 0, 8032
2, 15019, Pitch_bend_c, 0, 8128
2, 15020, Note_on_c, 0, 73, 0
2, 15022, Pitch_bend_c, 0, 8192
2, 15023, Note_on_c, 0, 70, 80
2, 15023, Pitch_bend_c, 0, 8064
2, 15027, Pitch_bend_c, 0, 8032
2, 15029, Pitch_bend_c, 0, 7968
2, 15030, Pitch_bend_c, 0, 7936
2, 15032, Pitch_bend_c, 0, 7904
2, 15033, Pitch_bend_c, 0, 7872
2, 15034, Pitch_bend_c, 0, 7840
2, 15036, Pitch_bend_c, 0, 7744
2, 15038, Pitch_bend_c, 0, 7904
2, 15040, Pitch_bend_c, 0, 8256
2, 15041, Pitch_bend_c, 0, 8960
2, 15042, Pitch_bend_c, 0, 9696
2, 15044, Pitch_bend_c, 0, 10240
2, 15045, Pitch_bend_c, 0, 10624
2, 15047, Pitch_bend_c, 0, 10464
2, 15048, Pitch_bend_c, 0, 9888
2, 15049, Pitch_bend_c, 0, 7680
2, 15055, Pitch_bend_c, 0, 7648
2, 15057, Pitch_bend_c, 0, 7776
2, 15058, Pitch_bend_c, 0, 7936
2, 15059, Pitch_bend_c, 0, 8096
2, 15061, Pitch_bend_c, 0, 8192
2, 15063, Note_on_c, 0, 70, 0
2, 15074, Note_on_c, 0, 67, 66
2, 15074, Pitch_bend_c, 0, 8288
2, 15077, Pitch_bend_c, 0, 8320
2, 15078, Pitch_bend_c, 0, 8384
2, 15080, Pitch_bend_c, 0, 8416
2, 15081, Pitch_bend_c, 0, 8448
2, 15082, Pitch_bend_c, 0, 8416
2, 15085, Pitch_bend_c, 0, 8384
2, 15087, Pitch_bend_c, 0, 8352
2, 15089, Pitch_bend_c, 0, 8192
2, 15089, Note_on_c, 0, 70, 111
2, 15090, Note_on_c, 0, 67, 0
2, 15090, Pitch_bend_c, 0, 8096
2, 15091, Pitch_bend_c, 0, 8192
2, 15094, Pitch_bend_c, 0, 8160
2, 15095, Pitch_bend_c, 0, 8192
2, 15099, Pitch_bend_c, 0, 8224
2, 15104, Pitch_bend_c, 0, 8416
2, 15105, Note_on_c, 0, 70, 0
2, 15105, Pitch_bend_c, 0, 8640
2, 15112, Note_on_c, 0, 72, 110
2, 15112, Pitch_bend_c, 0, 8448
2, 15114, Pitch_bend_c, 0, 8416
2, 15116, Pitch_bend_c, 0, 8352
2, 15118, Pitch_bend_c, 0, 8320
2, 15120, Pitch_bend_c, 0, 8288
2, 15121, Pitch_bend_c, 0, 8320
2, 15123, Pitch_bend_c, 0, 8512
2, 15124, Pitch_bend_c, 0, 8864
2, 15126, Pitch_bend_c, 0, 9312
2, 15127, Pitch_bend_c, 0, 9824
2, 15128, Pitch_bend_c, 0, 10240
2, 15130, Pitch_bend_c, 0, 10496
2, 15131, Pitch_bend_c, 0, 10656
2, 15132, Pitch_bend_c, 0, 10688
2, 15134, Pitch_bend_c, 0, 10656
2, 15135, Note_on_c, 0, 72, 0
2, 15145, Note_on_c, 0, 72, 86
2, 15145, Pitch_bend_c, 0, 8192
2, 15146, Pitch_bend_c, 0, 8096
2, 15147, Pitch_bend_c, 0, 8128
2, 15150, Pitch_bend_c, 0, 8160
2, 15151, Pitch_bend_c, 0, 8192
2, 15152, Pitch_bend_c, 0, 8256
2, 15154, Pitch_bend_c, 0, 8448
2, 15155, Pitch_bend_c, 0, 8640
2, 15157, Pitch_bend_c, 0, 8832
2, 15158, Pitch_bend_c, 0, 8992
2, 15160, Pitch_bend_c, 0, 9088
2, 15161, Pitch_bend_c, 0, 9120
2, 15162, Pitch_bend_c, 0, 9152
2, 15165, Pitch_bend_c, 0, 9216
2, 15171, Pitch_bend_c, 0, 9248
2, 15172, Pitch_bend_c, 0, 9280
2, 15174, Pitch_bend_c, 0, 9344
2, 15175, Pitch_bend_c, 0, 9472
2, 15176, Pitch_bend_c, 0, 9632
2, 15178, Pitch_bend_c, 0, 9856
2, 15179, Pitch_bend_c, 0, 10048
2, 15180, Pitch_bend_c, 0, 10240
2, 15182, Pitch_bend_c, 0, 10400
2, 15183, Pitch_bend_c, 0, 10464
2, 15185, Pitch_bend_c, 0, 10496
2, 15187, Note_on_c, 0, 72, 0
2, 15191, Note_on_c, 0, 75, 109
2, 15191, Pitch_bend_c, 0, 7936
2, 15192, Pitch_bend_c, 0, 8000
2, 15193, Pitch_bend_c, 0, 8032
2, 15195, Pitch_bend_c, 0, 8000
2, 15196, Pitch_bend_c, 0, 7936
2, 15198, Pitch_bend_c, 0, 7904
2, 15200, Pitch_bend_c, 0, 7936
2, 15206, Pitch_bend_c, 0, 7904
2, 15207, Note_on_c, 0, 75, 0
2, 15207, Pitch_bend_c, 0, 8000
2, 15210, Note_on_c, 0, 77, 115
2, 15210, Pitch_bend_c, 0, 8928
2, 15211, Pitch_bend_c, 0, 8832
2, 15213, Pitch_bend_c, 0, 8896
2, 15215, Pitch_bend_c, 0, 8832
2, 15217, Pitch_bend_c, 0, 8736
2, 15218, Pitch_bend_c, 0, 8672
2, 15220, Pitch_bend_c, 0, 8640
2, 15221, Pitch_bend_c, 0, 8576
2, 15222, Pitch_bend_c, 0, 8544
2, 15223, Pitch_bend_c, 0, 8736
2, 15224, Note_on_c, 0, 77, 0
2, 15230, Pitch_bend_c, 0, 8192
2, 15231, Note_on_c, 0, 72, 112
2, 15231, Pitch_bend_c, 0, 8256
2, 15233, Pitch_bend_c, 0, 8288
2, 15235, Pitch_bend_c, 0, 8224
2, 15238, Pitch_bend_c, 0, 8320
2, 15239, Pitch_bend_c, 0, 8640
2, 15241, Pitch_bend_c, 0, 9216
2, 15242, Pitch_bend_c, 0, 9952
2, 15243, Pitch_bend_c, 0, 10656
2, 15245, Pitch_bend_c, 0, 11104
2, 15246, Pitch_bend_c, 0, 11296
2, 15247, Pitch_bend_c, 0, 11136
2, 15249, Pitch_bend_c, 0, 10944
2, 15250, Note_on_c, 0, 72, 0
2, 15259, Note_on_c, 0, 70, 95
2, 15259, Pitch_bend_c, 0, 8128
2, 15262, Pitch_bend_c, 0, 8160
2, 15264, Pitch_bend_c, 0, 8192
2, 15265, Pitch_bend_c, 0, 8224
2, 15268, Pitch_bend_c, 0, 8192
2, 15269, Pitch_bend_c, 0, 8128
2, 15270, Pitch_bend_c, 0, 8192
2, 15272, Pitch_bend_c, 0, 8672
2, 15273, Pitch_bend_c, 0, 9440
2, 15274, Pitch_bend_c, 0, 10112
2, 15276, Pitch_bend_c, 0, 10400
2, 15277, Pitch_bend_c, 0, 10048
2, 15279, Pitch_bend_c, 0, 9344
2, 15280, Pitch_bend_c, 0, 8576
2, 15282, Pitch_bend_c, 0, 8096
2, 15283, Pitch_bend_c, 0, 7904
2, 15285, Pitch_bend_c, 0, 7968
2, 15286, Pitch_bend_c, 0, 8192
2, 15287, Pitch_bend_c, 0, 8640
2, 15289, Pitch_bend_c, 0, 9088
2, 15290, Pitch_bend_c, 0, 9472
2, 15291, Pitch_bend_c, 0, 9664
2, 15293, Pitch_bend_c, 0, 9632
2, 15295, Pitch_bend_c, 0, 9568
2, 15296, Note_on_c, 0, 70, 0
2, 15296, Pitch_bend_c, 0, 9472
2, 15299, Note_on_c, 0, 67, 75
2, 15299, Pitch_bend_c, 0, 8448
2, 15300, Pitch_bend_c, 0, 8480
2, 15302, Pitch_bend_c, 0, 8544
2, 15303, Pitch_bend_c, 0, 8576
2, 15305, Pitch_bend_c, 0, 8608
2, 15309, Pitch_bend_c, 0, 8576
2, 15310, Pitch_bend_c, 0, 8544
2, 15312, Pitch_bend_c, 0, 8512
2, 15313, Note_on_c, 0, 67, 0
2, 15313, Pitch_bend_c, 0, 8608
2, 15316, Pitch_bend_c, 0, 8192
2, 15317, Note_on_c, 0, 70, 108
2, 15317, Pitch_bend_c, 0, 8000
2, 15318, Pitch_bend_c, 0, 7936
2, 15320, Pitch_bend_c, 0, 7968
2, 15321, Pitch_bend_c, 0, 8000
2, 15322, Pitch_bend_c, 0, 8032
2, 15324, Pitch_bend_c, 0, 8064
2, 15325, Pitch_bend_c, 0, 8096
2, 15327, Pitch_bend_c, 0, 8128
2, 15328, Pitch_bend_c, 0, 8160
2, 15329, Pitch_bend_c, 0, 8192
2, 15331, Pitch_bend_c, 0, 8224
2, 15332, Note_on_c, 0, 70, 0
2, 15344, Note_on_c, 0, 73, 100
2, 15344, Pitch_bend_c, 0, 8448
2, 15346, Pitch_bend_c, 0, 8416
2, 15347, Pitch_bend_c, 0, 8352
2, 15350, Pitch_bend_c, 0, 8288
2, 15351, Pitch_bend_c, 0, 8256
2, 15352, Pitch_bend_c, 0, 8288
2, 15354, Pitch_bend_c, 0, 8384
2, 15355, Pitch_bend_c, 0, 8512
2, 15357, Pitch_bend_c, 0, 8704
2, 15358, Pitch_bend_c, 0, 8928
2, 15359, Pitch_bend_c, 0, 9184
2, 15361, Pitch_bend_c, 0, 9440
2, 15362, Pitch_bend_c, 0, 9632
2, 15364, Pitch_bend_c, 0, 9952
2, 15365, Pitch_bend_c, 0, 10368
2, 15366, Pitch_bend_c, 0, 10880
2, 15368, Pitch_bend_c, 0, 11392
2, 15369, Pitch_bend_c, 0, 11808
2, 15371, Pitch_bend_c, 0, 12064
2, 15372, Note_on_c, 0, 73, 0
2, 15372, Pitch_bend_c, 0, 12160
2, 15382, Note_on_c, 0, 73, 96
2, 15382, Pitch_bend_c, 0, 8256
2, 15384, Pitch_bend_c, 0, 8288
2, 15386, Pitch_bend_c, 0, 8384
2, 15388, Pitch_bend_c, 0, 8448
2, 15389, Pitch_bend_c, 0, 8576
2, 15391, Pitch_bend_c, 0, 8672
2, 15392, Pitch_bend_c, 0, 8736
2, 15394, Pitch_bend_c, 0, 8768
2, 15395, Pitch_bend_c, 0, 8864
2, 15397, Pitch_bend_c, 0, 8896
2, 15398, Pitch_bend_c, 0, 9024
2, 15399, Pitch_bend_c, 0, 9120
2, 15401, Pitch_bend_c, 0, 9184
2, 15402, Pitch_bend_c, 0, 9280
2, 15404, Pitch_bend_c, 0, 9312
2, 15405, Pitch_bend_c, 0, 9344
2, 15408, Pitch_bend_c, 0, 9376
2, 15409, Pitch_bend_c, 0, 9440
2, 15410, Pitch_bend_c, 0, 9472
2, 15413, Pitch_bend_c, 0, 9504
2, 15415, Pitch_bend_c, 0, 9536
2, 15416, Pitch_bend_c, 0, 9632
2, 15417, Pitch_bend_c, 0, 9760
2, 15419, Pitch_bend_c, 0, 9920
2, 15420, Pitch_bend_c, 0, 10144
2, 15422, Pitch_bend_c, 0, 10528
2, 15423, Pitch_bend_c, 0, 10976
2, 15424, Pitch_bend_c, 0, 11392
2, 15426, Pitch_bend_c, 0, 11808
2, 15428, Pitch_bend_c, 0, 12064
2, 15429, Pitch_bend_c, 0, 12160
2, 15430, Pitch_bend_c, 0, 12128
2, 15432, Pitch_bend_c, 0, 11808
2, 15433, Pitch_bend_c, 0, 12064
2, 15434, Note_on_c, 0, 73, 0
2, 15453, Pitch_bend_c, 0, 8192
2, 15454, Pitch_bend_c, 0, 8384
2, 15457, Pitch_bend_c, 0, 8416
2, 15458, Note_on_c, 0, 76, 105
2, 15458, Pitch_bend_c, 0, 8480
2, 15460, Pitch_bend_c, 0, 8576
2, 15461, Pitch_bend_c, 0, 8672
2, 15462, Pitch_bend_c, 0, 8800
2, 15464, Pitch_bend_c, 0, 9056
2, 15465, Pitch_bend_c, 0, 9440
2, 15467, Pitch_bend_c, 0, 9952
2, 15468, Pitch_bend_c, 0, 10592
2, 15469, Pitch_bend_c, 0, 11168
2, 15471, Pitch_bend_c, 0, 11648
2, 15472, Pitch_bend_c, 0, 11872
2, 15473, Pitch_bend_c, 0, 11968
2, 15475, Pitch_bend_c, 0, 12032
2, 15482, Pitch_bend_c, 0, 11968
2, 15488, Pitch_bend_c, 0, 11936
2, 15507, Pitch_bend_c, 0, 11968
2, 15508, Pitch_bend_c, 0, 12064
2, 15510, Pitch_bend_c, 0, 12160
2, 15511, Pitch_bend_c, 0, 12320
2, 15512, Pitch_bend_c, 0, 12384
2, 15514, Pitch_bend_c, 0, 12416
2, 15515, Pitch_bend_c, 0, 12320
2, 15517, Pitch_bend_c, 0, 12224
2, 15518, Pitch_bend_c, 0, 12032
2, 15520, Pitch_bend_c, 0, 11872
2, 15521, Pitch_bend_c, 0, 11744
2, 15522, Pitch_bend_c, 0, 11680
2, 15525, Pitch_bend_c, 0, 11936
2, 15527, Pitch_bend_c, 0, 12384
2, 15528, Pitch_bend_c, 0, 12992
2, 15530, Pitch_bend_c, 0, 13536
2, 15531, Pitch_bend_c, 0, 13888
2, 15532, Pitch_bend_c, 0, 14048
2, 15534, Pitch_bend_c, 0, 13952
2, 15535, Pitch_bend_c, 0, 13344
2, 15537, Pitch_bend_c, 0, 10720
2, 15540, Pitch_bend_c, 0, 10688
2, 15542, Pitch_bend_c, 0, 10784
2, 15543, Pitch_bend_c, 0, 11264
2, 15545, Pitch_bend_c, 0, 11936
2, 15546, Pitch_bend_c, 0, 12736
2, 15548, Pitch_bend_c, 0, 13376
2, 15549, Pitch_bend_c, 0, 13632
2, 15550, Pitch_bend_c, 0, 13504
2, 15552, Pitch_bend_c, 0, 11008
2, 15553, Pitch_bend_c, 0, 13376
2, 15557, Note_on_c, 0, 76, 0
2, 15583, Pitch_bend_c, 0, 8192
2, 15584, Note_on_c, 0, 65, 114
2, 15584, Pitch_bend_c, 0, 8160
2, 15585, Pitch_bend_c, 0, 8544
2, 15586, Pitch_bend_c, 0, 8608
2, 15593, Pitch_bend_c, 0, 8576
2, 15595, Pitch_bend_c, 0, 8832
2, 15596, Pitch_bend_c, 0, 9088
2, 15597, Note_on_c, 0, 65, 0
2, 15598, Pitch_bend_c, 0, 8192
2, 15598, Note_on_c, 0, 68, 102
2, 15599, Pitch_bend_c, 0, 8512
2, 15604, Pitch_bend_c, 0, 8544
2, 15605, Pitch_bend_c, 0, 8576
2, 15607, Pitch_bend_c, 0, 8608
2, 15608, Pitch_bend_c, 0, 8480
2, 15609, Pitch_bend_c, 0, 8224
2, 15610, Note_on_c, 0, 68, 0
2, 15610, Pitch_bend_c, 0, 8544
2, 15615, Note_on_c, 0, 72, 107
2, 15615, Pitch_bend_c, 0, 8128
2, 15624, Pitch_bend_c, 0, 8032
2, 15625, Note_on_c, 0, 72, 0
2, 15628, Pitch_bend_c, 0, 8192
2, 15629, Note_on_c, 0, 70, 112
2, 15630, Pitch_bend_c, 0, 7968
2, 15632, Pitch_bend_c, 0, 7936
2, 15634, Pitch_bend_c, 0, 16032
2, 15635, Pitch_bend_c, 0, 16064
2, 15636, Pitch_bend_c, 0, 16160
2, 15638, Pitch_bend_c, 0, 16352
2, 15641, Pitch_bend_c, 0, 8096
2, 15642, Pitch_bend_c, 0, 8128
2, 15643, Pitch_bend_c, 0, 8160
2, 15647, Pitch_bend_c, 0, 8128
2, 15653, Pitch_bend_c, 0, 8096
2, 15654, Pitch_bend_c, 0, 8064
2, 15657, Note_on_c, 0, 70, 0
2, 15657, Pitch_bend_c, 0, 8192
2, 15658, Note_on_c, 0, 67, 92
2, 15670, Note_on_c, 0, 67, 0
2, 15670, Note_on_c, 0, 70, 114
2, 15670, Pitch_bend_c, 0, 8032
2, 15671, Pitch_bend_c, 0, 8192
2, 15673, Pitch_bend_c, 0, 8128
2, 15675, Pitch_bend_c, 0, 8064
2, 15676, Pitch_bend_c, 0, 8000
2, 15679, Pitch_bend_c, 0, 8032
2, 15680, Pitch_bend_c, 0, 8000
2, 15682, Pitch_bend_c, 0, 8032
2, 15683, Pitch_bend_c, 0, 8000
2, 15686, Pitch_bend_c, 0, 8032
2, 15687, Pitch_bend_c, 0, 8000
2, 15688, Note_on_c, 0, 70, 0
2, 15690, Pitch_bend_c, 0, 8192
2, 15691, Note_on_c, 0, 70, 114
2, 15692, Pitch_bend_c, 0, 8256
2, 15695, Pitch_bend_c, 0, 8224
2, 15696, Pitch_bend_c, 0, 8160
2, 15698, Pitch_bend_c, 0, 8064
2, 15699, Pitch_bend_c, 0, 8032
2, 15700, Pitch_bend_c, 0, 8000
2, 15703, Pitch_bend_c, 0, 8032
2, 15705, Pitch_bend_c, 0, 8000
2, 15706, Pitch_bend_c, 0, 7968
2, 15707, Pitch_bend_c, 0, 7936
2, 15710, Pitch_bend_c, 0, 7904
2, 15713, Pitch_bend_c, 0, 7872
2, 15714, Pitch_bend_c, 0, 8000
2, 15715, Note_on_c, 0, 70, 0
2, 15730, Note_on_c, 0, 73, 118
2, 15730, Pitch_bend_c, 0, 8224
2, 15734, Pitch_bend_c, 0, 8192
2, 15735, Pitch_bend_c, 0, 8032
2, 15736, Pitch_bend_c, 0, 7968
2, 15738, Pitch_bend_c, 0, 7840
2, 15739, Pitch_bend_c, 0, 7744
2, 15740, Pitch_bend_c, 0, 7776
2, 15742, Pitch_bend_c, 0, 7840
2, 15743, Pitch_bend_c, 0, 7936
2, 15744, Pitch_bend_c, 0, 8032
2, 15746, Pitch_bend_c, 0, 8064
2, 15751, Pitch_bend_c, 0, 8128
2, 15753, Pitch_bend_c, 0, 8064
2, 15756, Pitch_bend_c, 0, 8128
2, 15758, Pitch_bend_c, 0, 8160
2, 15761, Pitch_bend_c, 0, 8192
2, 15766, Pitch_bend_c, 0, 8224
2, 15768, Pitch_bend_c, 0, 8256
2, 15770, Pitch_bend_c, 0, 8288
2, 15771, Pitch_bend_c, 0, 8384
2, 15773, Pitch_bend_c, 0, 8416
2, 15774, Pitch_bend_c, 0, 8448
2, 15775, Pitch_bend_c, 0, 8512
2, 15778, Pitch_bend_c, 0, 8544
2, 15780, Pitch_bend_c, 0, 8576
2, 15781, Pitch_bend_c, 0, 8608
2, 15782, Pitch_bend_c, 0, 8704
2, 15784, Pitch_bend_c, 0, 8832
2, 15785, Pitch_bend_c, 0, 8992
2, 15787, Pitch_bend_c, 0, 9184
2, 15788, Pitch_bend_c, 0, 9600
2, 15790, Pitch_bend_c, 0, 10112
2, 15791, Pitch_bend_c, 0, 10752
2, 15792, Pitch_bend_c, 0, 11456
2, 15794, Pitch_bend_c, 0, 12000
2, 15795, Pitch_bend_c, 0, 12416
2, 15797, Pitch_bend_c, 0, 12640
2, 15798, Pitch_bend_c, 0, 12608
2, 15799, Note_on_c, 0, 73, 0
2, 15839, Pitch_bend_c, 0, 8192
2, 15840, Note_on_c, 0, 77, 116
2, 15840, Pitch_bend_c, 0, 8096
2, 15841, Pitch_bend_c, 0, 7776
2, 15842, Pitch_bend_c, 0, 7680
2, 15846, Pitch_bend_c, 0, 7776
2, 15847, Pitch_bend_c, 0, 8288
2, 15849, Pitch_bend_c, 0, 10816
2, 15850, Pitch_bend_c, 0, 11072
2, 15851, Pitch_bend_c, 0, 11328
2, 15853, Pitch_bend_c, 0, 11424
2, 15854, Note_on_c, 0, 77, 0
2, 15864, Note_on_c, 0, 77, 116
2, 15864, Pitch_bend_c, 0, 8640
2, 15865, Pitch_bend_c, 0, 8576
2, 15867, Pitch_bend_c, 0, 8544
2, 15870, Pitch_bend_c, 0, 8576
2, 15876, Note_on_c, 0, 77, 0
2, 15880, Note_on_c, 0, 70, 111
2, 15880, Pitch_bend_c, 0, 8480
2, 15881, Pitch_bend_c, 0, 8448
2, 15883, Pitch_bend_c, 0, 8480
2, 15885, Pitch_bend_c, 0, 8512
2, 15887, Pitch_bend_c, 0, 8448
2, 15889, Pitch_bend_c, 0, 8416
2, 15890, Pitch_bend_c, 0, 8384
2, 15892, Pitch_bend_c, 0, 8320
2, 15893, Pitch_bend_c, 0, 8288
2, 15895, Pitch_bend_c, 0, 8256
2, 15901, Pitch_bend_c, 0, 8224
2, 15903, Pitch_bend_c, 0, 8256
2, 15915, Note_on_c, 0, 70, 0
2, 15915, Pitch_bend_c, 0, 8320
2, 15918, Pitch_bend_c, 0, 8192
2, 15918, Note_on_c, 0, 73, 112
2, 15919, Pitch_bend_c, 0, 8000
2, 15927, Pitch_bend_c, 0, 8032
2, 15928, Pitch_bend_c, 0, 8064
2, 15931, Pitch_bend_c, 0, 8128
2, 15932, Pitch_bend_c, 0, 8064
2, 15935, Pitch_bend_c, 0, 8032
2, 15936, Pitch_bend_c, 0, 8000
2, 15938, Pitch_bend_c, 0, 7968
2, 15940, Pitch_bend_c, 0, 8000
2, 15942, Pitch_bend_c, 0, 8064
2, 15943, Pitch_bend_c, 0, 8128
2, 15945, Pitch_bend_c, 0, 8192
2, 15946, Pitch_bend_c, 0, 8224
2, 15947, Pitch_bend_c, 0, 8256
2, 15949, Pitch_bend_c, 0, 8288
2, 15952, Pitch_bend_c, 0, 8352
2, 15956, Pitch_bend_c, 0, 8384
2, 15958, Pitch_bend_c, 0, 8416
2, 15960, Pitch_bend_c, 0, 8448
2, 15962, Pitch_bend_c, 0, 8512
2, 15963, Pitch_bend_c, 0, 8576
2, 15965, Pitch_bend_c, 0, 8672
2, 15966, Pitch_bend_c, 0, 8768
2, 15967, Pitch_bend_c, 0, 8928
2, 15968, Pitch_bend_c, 0, 9152
2, 15970, Pitch_bend_c, 0, 9376
2, 15972, Pitch_bend_c, 0, 9664
2, 15973, Pitch_bend_c, 0, 10048
2, 15974, Pitch_bend_c, 0, 10400
2, 15976, Pitch_bend_c, 0, 10720
2, 15977, Pitch_bend_c, 0, 10976
2, 15978, Pitch_bend_c, 0, 11072
2, 15981, Note_on_c, 0, 73, 0
2, 16090, Pitch_bend_c, 0, 8192
2, 16091, Note_on_c, 0, 70, 116
2, 16091, Pitch_bend_c, 0, 8512
2, 16092, Pitch_bend_c, 0, 8352
2, 16093, Pitch_bend_c, 0, 8224
2, 16094, Pitch_bend_c, 0, 8192
2, 16096, Pitch_bend_c, 0, 8128
2, 16098, Pitch_bend_c, 0, 8160
2, 16099, Pitch_bend_c, 0, 8192
2, 16100, Note_on_c, 0, 70, 0
2, 16125, Note_on_c, 0, 80, 127
2, 16126, Pitch_bend_c, 0, 4896
2, 16128, Pitch_bend_c, 0, 4768
2, 16129, Pitch_bend_c, 0, 4672
2, 16130, Pitch_bend_c, 0, 4704
2, 16131, Pitch_bend_c, 0, 4928
2, 16132, Pitch_bend_c, 0, 5216
2, 16133, Pitch_bend_c, 0, 5696
2, 16134, Pitch_bend_c, 0, 6368
2, 16135, Pitch_bend_c, 0, 7008
2, 16137, Pitch_bend_c, 0, 7648
2, 16138, Pitch_bend_c, 0, 8096
2, 16139, Pitch_bend_c, 0, 8416
2, 16141, Pitch_bend_c, 0, 8736
2, 16142, Pitch_bend_c, 0, 8896
2, 16143, Pitch_bend_c, 0, 8960
2, 16144, Pitch_bend_c, 0, 9088
2, 16145, Pitch_bend_c, 0, 9152
2, 16146, Pitch_bend_c, 0, 9216
2, 16147, Pitch_bend_c, 0, 9280
2, 16158, Pitch_bend_c, 0, 9216
2, 16161, Pitch_bend_c, 0, 9152
2, 16163, Pitch_bend_c, 0, 9216
2, 16170, Pitch_bend_c, 0, 9152
2, 16171, Pitch_bend_c, 0, 9088
2, 16172, Pitch_bend_c, 0, 9024
2, 16174, Pitch_bend_c, 0, 8960
2, 16175, Pitch_bend_c, 0, 8896
2, 16177, Pitch_bend_c, 0, 8832
2, 16178, Pitch_bend_c, 0, 8768
2, 16181, Pitch_bend_c, 0, 8736
2, 16182, Pitch_bend_c, 0, 8672
2, 16183, Pitch_bend_c, 0, 8608
2, 16184, Pitch_bend_c, 0, 8544
2, 16185, Pitch_bend_c, 0, 8416
2, 16186, Pitch_bend_c, 0, 8288
2, 16187, Pitch_bend_c, 0, 8192
2, 16189, Pitch_bend_c, 0, 8032
2, 16190, Pitch_bend_c, 0, 7808
2, 16191, Pitch_bend_c, 0, 7392
2, 16192, Pitch_bend_c, 0, 7008
2, 16193, Pitch_bend_c, 0, 6560
2, 16194, Pitch_bend_c, 0, 6144
2, 16195, Pitch_bend_c, 0, 5792
2, 16197, Pitch_bend_c, 0, 5504
2, 16198, Pitch_bend_c, 0, 5216
2, 16199, Pitch_bend_c, 0, 4992
2, 16200, Pitch_bend_c, 0, 4832
2, 16201, Pitch_bend_c, 0, 4704
2, 16203, Pitch_bend_c, 0, 4672
2, 16210, Pitch_bend_c, 0, 4608
2, 16212, Note_on_c, 0, 80, 0
2, 16212, Pitch_bend_c, 0, 4832
2, 16216, Pitch_bend_c, 0, 8192
2, 16217, Note_on_c, 0, 77, 116
2, 16217, Pitch_bend_c, 0, 9088
2, 16218, Pitch_bend_c, 0, 8992
2, 16220, Pitch_bend_c, 0, 9056
2, 16222, Pitch_bend_c, 0, 8992
2, 16223, Pitch_bend_c, 0, 8928
2, 16225, Pitch_bend_c, 0, 8896
2, 16228, Pitch_bend_c, 0, 8928
2, 16229, Pitch_bend_c, 0, 8992
2, 16232, Note_on_c, 0, 77, 0
2, 16232, Pitch_bend_c, 0, 9056
2, 16237, Pitch_bend_c, 0, 8192
2, 16238, Note_on_c, 0, 75, 116
2, 16238, Pitch_bend_c, 0, 8864
2, 16241, Pitch_bend_c, 0, 8800
2, 16243, Pitch_bend_c, 0, 8768
2, 16244, Pitch_bend_c, 0, 8672
2, 16245, Pitch_bend_c, 0, 8640
2, 16246, Pitch_bend_c, 0, 8576
2, 16247, Pitch_bend_c, 0, 8544
2, 16251, Note_on_c, 0, 75, 0
2, 16251, Pitch_bend_c, 0, 8672
2, 16257, Note_on_c, 0, 76, 116
2, 16257, Pitch_bend_c, 0, 8192
2, 16258, Pitch_bend_c, 0, 12896
2, 16259, Pitch_bend_c, 0, 12832
2, 16261, Pitch_bend_c, 0, 12896
2, 16264, Pitch_bend_c, 0, 12768
2, 16265, Pitch_bend_c, 0, 12672
2, 16266, Pitch_bend_c, 0, 12480
2, 16268, Pitch_bend_c, 0, 12288
2, 16269, Pitch_bend_c, 0, 12064
2, 16270, Pitch_bend_c, 0, 11936
2, 16271, Pitch_bend_c, 0, 11776
2, 16272, Pitch_bend_c, 0, 11744
2, 16273, Pitch_bend_c, 0, 11680
2, 16275, Note_on_c, 0, 76, 0
2, 16275, Pitch_bend_c, 0, 12064
2, 16277, Pitch_bend_c, 0, 8192
2, 16278, Note_on_c, 0, 73, 119
2, 16278, Pitch_bend_c, 0, 8160
2, 16279, Pitch_bend_c, 0, 8032
2, 16280, Pitch_bend_c, 0, 8064
2, 16281, Pitch_bend_c, 0, 8128
2, 16283, Pitch_bend_c, 0, 8064
2, 16285, Pitch_bend_c, 0, 8000
2, 16287, Pitch_bend_c, 0, 8064
2, 16289, Pitch_bend_c, 0, 8224
2, 16290, Pitch_bend_c, 0, 8416
2, 16291, Pitch_bend_c, 0, 8576
2, 16292, Pitch_bend_c, 0, 8704
2, 16293, Pitch_bend_c, 0, 8832
2, 16294, Pitch_bend_c, 0, 8896
2, 16295, Pitch_bend_c, 0, 8992
2, 16296, Pitch_bend_c, 0, 9120
2, 16298, Pitch_bend_c, 0, 9184
2, 16299, Pitch_bend_c, 0, 9280
2, 16300, Pitch_bend_c, 0, 9344
2, 16301, Pitch_bend_c, 0, 9472
2, 16302, Pitch_bend_c, 0, 9632
2, 16303, Pitch_bend_c, 0, 9824
2, 16304, Pitch_bend_c, 0, 10080
2, 16306, Pitch_bend_c, 0, 10304
2, 16307, Pitch_bend_c, 0, 10592
2, 16308, Pitch_bend_c, 0, 10880
2, 16309, Pitch_bend_c, 0, 11136
2, 16310, Pitch_bend_c, 0, 11296
2, 16311, Pitch_bend_c, 0, 11392
2, 16312, Pitch_bend_c, 0, 11488
2, 16315, Pitch_bend_c, 0, 11456
2, 16316, Pitch_bend_c, 0, 11296
2, 16317, Pitch_bend_c, 0, 10752
2, 16318, Pitch_bend_c, 0, 10112
2, 16319, Note_on_c, 0, 73, 0
2, 16319, Note_on_c, 0, 75, 114
2, 16319, Pitch_bend_c, 0, 8992
2, 16321, Pitch_bend_c, 0, 8896
2, 16322, Pitch_bend_c, 0, 8576
2, 16324, Pitch_bend_c, 0, 8448
2, 16325, Pitch_bend_c, 0, 8256
2, 16326, Pitch_bend_c, 0, 8224
2, 16327, Pitch_bend_c, 0, 8448
2, 16328, Pitch_bend_c, 0, 8480
2, 16329, Pitch_bend_c, 0, 8448
2, 16331, Pitch_bend_c, 0, 8640
2, 16332, Pitch_bend_c, 0, 8768
2, 16333, Note_on_c, 0, 75, 0
2, 16333, Pitch_bend_c, 0, 8960
2, 16335, Pitch_bend_c, 0, 8192
2, 16336, Note_on_c, 0, 77, 115
2, 16336, Pitch_bend_c, 0, 9184
2, 16339, Pitch_bend_c, 0, 9088
2, 16342, Pitch_bend_c, 0, 9056
2, 16343, Pitch_bend_c, 0, 8992
2, 16344, Pitch_bend_c, 0, 8896
2, 16346, Note_on_c, 0, 77, 0
2, 16346, Pitch_bend_c, 0, 9088
2, 16355, Pitch_bend_c, 0, 8192
2, 16357, Note_on_c, 0, 72, 114
2, 16357, Pitch_bend_c, 0, 8416
2, 16363, Pitch_bend_c, 0, 8352
2, 16364, Pitch_bend_c, 0, 8288
2, 16366, Pitch_bend_c, 0, 8224
2, 16369, Pitch_bend_c, 0, 8544
2, 16371, Pitch_bend_c, 0, 12352
2, 16375, Pitch_bend_c, 0, 12320
2, 16377, Pitch_bend_c, 0, 12288
2, 16378, Pitch_bend_c, 0, 8000
2, 16380, Pitch_bend_c, 0, 8096
2, 16381, Pitch_bend_c, 0, 8160
2, 16382, Pitch_bend_c, 0, 8192
2, 16383, Note_on_c, 0, 72, 0
2, 16384, Note_on_c, 0, 69, 90
2, 16384, Pitch_bend_c, 0, 12064
2, 16386, Pitch_bend_c, 0, 12096
2, 16389, Pitch_bend_c, 0, 12128
2, 16390, Pitch_bend_c, 0, 12160
2, 16393, Note_on_c, 0, 69, 0
2, 16396, Pitch_bend_c, 0, 8192
2, 16397, Note_on_c, 0, 72, 114
2, 16397, Pitch_bend_c, 0, 8160
2, 16398, Pitch_bend_c, 0, 8128
2, 16399, Pitch_bend_c, 0, 8096
2, 16400, Pitch_bend_c, 0, 7968
2, 16401, Pitch_bend_c, 0, 7904
2, 16402, Pitch_bend_c, 0, 7840
2, 16407, Pitch_bend_c, 0, 7808
2, 16409, Pitch_bend_c, 0, 7744
2, 16410, Pitch_bend_c, 0, 7712
2, 16411, Pitch_bend_c, 0, 7744
2, 16413, Note_on_c, 0, 72, 0
2, 16413, Pitch_bend_c, 0, 7840
2, 16415, Pitch_bend_c, 0, 8192
2, 16416, Note_on_c, 0, 66, 97
2, 16416, Pitch_bend_c, 0, 11328
2, 16417, Pitch_bend_c, 0, 12288
2, 16422, Pitch_bend_c, 0, 12192
2, 16423, Note_on_c, 0, 66, 0
2, 16423, Pitch_bend_c, 0, 12288
2, 16432, Note_on_c, 0, 72, 114
2, 16432, Pitch_bend_c, 0, 8192
2, 16433, Pitch_bend_c, 0, 8640
2, 16435, Pitch_bend_c, 0, 8608
2, 16436, Pitch_bend_c, 0, 8544
2, 16438, Pitch_bend_c, 0, 8480
2, 16441, Pitch_bend_c, 0, 8448
2, 16443, Pitch_bend_c, 0, 8480
2, 16444, Pitch_bend_c, 0, 8608
2, 16445, Pitch_bend_c, 0, 8736
2, 16446, Pitch_bend_c, 0, 8928
2, 16447, Pitch_bend_c, 0, 9216
2, 16448, Pitch_bend_c, 0, 9440
2, 16449, Pitch_bend_c, 0, 9728
2, 16451, Pitch_bend_c, 0, 10080
2, 16452, Pitch_bend_c, 0, 10528
2, 16453, Pitch_bend_c, 0, 11104
2, 16454, Pitch_bend_c, 0, 11712
2, 16455, Pitch_bend_c, 0, 12288
2, 16456, Pitch_bend_c, 0, 12768
2, 16457, Pitch_bend_c, 0, 13088
2, 16458, Pitch_bend_c, 0, 13312
2, 16460, Pitch_bend_c, 0, 13440
2, 16461, Note_on_c, 0, 72, 0
2, 16461, Pitch_bend_c, 0, 8192
2, 16462, Note_on_c, 0, 77, 114
2, 16467, Note_on_c, 0, 77, 0
2, 16467, Pitch_bend_c, 0, 4768
2, 16476, Pitch_bend_c, 0, 8192
2, 16476, Note_on_c, 0, 70, 113
2, 16477, Pitch_bend_c, 0, 8512
2, 16479, Pitch_bend_c, 0, 8544
2, 16480, Pitch_bend_c, 0, 8512
2, 16482, Pitch_bend_c, 0, 8448
2, 16483, Pitch_bend_c, 0, 8480
2, 16484, Pitch_bend_c, 0, 8448
2, 16487, Pitch_bend_c, 0, 8416
2, 16488, Pitch_bend_c, 0, 8320
2, 16489, Pitch_bend_c, 0, 8256
2, 16490, Pitch_bend_c, 0, 8192
2, 16491, Pitch_bend_c, 0, 8160
2, 16492, Pitch_bend_c, 0, 8096
2, 16493, Pitch_bend_c, 0, 8064
2, 16497, Pitch_bend_c, 0, 8096
2, 16499, Pitch_bend_c, 0, 8064
2, 16503, Pitch_bend_c, 0, 8128
2, 16504, Pitch_bend_c, 0, 8192
2, 16505, Pitch_bend_c, 0, 8320
2, 16506, Pitch_bend_c, 0, 8448
2, 16507, Pitch_bend_c, 0, 8544
2, 16508, Pitch_bend_c, 0, 8576
2, 16509, Pitch_bend_c, 0, 8544
2, 16511, Pitch_bend_c, 0, 8512
2, 16512, Pitch_bend_c, 0, 8448
2, 16513, Pitch_bend_c, 0, 8192
2, 16513, Note_on_c, 0, 75, 113
2, 16520, Note_on_c, 0, 70, 0
2, 16521, Pitch_bend_c, 0, 8000
2, 16522, Note_on_c, 0, 75, 0
2, 16522, Pitch_bend_c, 0, 7616
2, 16538, Note_on_c, 0, 67, 81
2, 16538, Pitch_bend_c, 0, 8416
2, 16540, Pitch_bend_c, 0, 8448
2, 16542, Pitch_bend_c, 0, 8416
2, 16546, Pitch_bend_c, 0, 8384
2, 16550, Pitch_bend_c, 0, 8416
2, 16554, Pitch_bend_c, 0, 8384
2, 16555, Pitch_bend_c, 0, 8352
2, 16556, Pitch_bend_c, 0, 8320
2, 16557, Pitch_bend_c, 0, 8384
2, 16558, Pitch_bend_c, 0, 8544
2, 16559, Pitch_bend_c, 0, 8896
2, 16560, Pitch_bend_c, 0, 9344
2, 16561, Pitch_bend_c, 0, 9792
2, 16563, Pitch_bend_c, 0, 10080
2, 16564, Pitch_bend_c, 0, 10112
2, 16565, Pitch_bend_c, 0, 9856
2, 16566, Pitch_bend_c, 0, 9408
2, 16567, Pitch_bend_c, 0, 8928
2, 16568, Pitch_bend_c, 0, 8512
2, 16569, Pitch_bend_c, 0, 8320
2, 16570, Pitch_bend_c, 0, 8288
2, 16574, Pitch_bend_c, 0, 8448
2, 16575, Pitch_bend_c, 0, 8704
2, 16576, Pitch_bend_c, 0, 9024
2, 16578, Pitch_bend_c, 0, 9440
2, 16579, Pitch_bend_c, 0, 9664
2, 16580, Pitch_bend_c, 0, 9728
2, 16581, Pitch_bend_c, 0, 9536
2, 16582, Pitch_bend_c, 0, 9216
2, 16583, Pitch_bend_c, 0, 8800
2, 16584, Pitch_bend_c, 0, 8448
2, 16585, Pitch_bend_c, 0, 8192
2, 16589, Pitch_bend_c, 0, 8352
2, 16590, Pitch_bend_c, 0, 8736
2, 16591, Pitch_bend_c, 0, 9248
2, 16592, Pitch_bend_c, 0, 9792
2, 16594, Pitch_bend_c, 0, 10208
2, 16595, Pitch_bend_c, 0, 10304
2, 16596, Pitch_bend_c, 0, 10016
2, 16597, Pitch_bend_c, 0, 9440
2, 16598, Pitch_bend_c, 0, 8864
2, 16599, Pitch_bend_c, 0, 8448
2, 16601, Pitch_bend_c, 0, 8192
2, 16604, Pitch_bend_c, 0, 8288
2, 16605, Pitch_bend_c, 0, 8736
2, 16606, Pitch_bend_c, 0, 9344
2, 16607, Pitch_bend_c, 0, 9952
2, 16609, Pitch_bend_c, 0, 10240
2, 16610, Pitch_bend_c, 0, 9984
2, 16611, Pitch_bend_c, 0, 9408
2, 16612, Pitch_bend_c, 0, 8800
2, 16613, Pitch_bend_c, 0, 8128
2, 16614, Pitch_bend_c, 0, 7712
2, 16616, Pitch_bend_c, 0, 7456
2, 16617, Note_on_c, 0, 67, 0
2, 16617, Pitch_bend_c, 0, 8800
2, 16715, Note_on_c, 0, 63, 114
2, 16715, Pitch_bend_c, 0, 8832
2, 16718, Pitch_bend_c, 0, 8800
2, 16719, Pitch_bend_c, 0, 8736
2, 16721, Pitch_bend_c, 0, 8512
2, 16722, Pitch_bend_c, 0, 8448
2, 16723, Pitch_bend_c, 0, 8352
2, 16725, Pitch_bend_c, 0, 8256
2, 16726, Pitch_bend_c, 0, 8320
2, 16727, Pitch_bend_c, 0, 8256
2, 16729, Pitch_bend_c, 0, 8192
2, 16730, Note_on_c, 0, 67, 113
2, 16738, Note_on_c, 0, 63, 0
2, 16740, Pitch_bend_c, 0, 8096
2, 16742, Pitch_bend_c, 0, 8032
2, 16743, Pitch_bend_c, 0, 7840
2, 16744, Pitch_bend_c, 0, 7616
2, 16745, Note_on_c, 0, 67, 0
2, 16745, Note_on_c, 0, 70, 117
2, 16746, Pitch_bend_c, 0, 8064
2, 16749, Pitch_bend_c, 0, 8032
2, 16751, Pitch_bend_c, 0, 8064
2, 16752, Pitch_bend_c, 0, 8096
2, 16754, Pitch_bend_c, 0, 8064
2, 16755, Pitch_bend_c, 0, 8000
2, 16758, Note_on_c, 0, 70, 0
2, 16758, Pitch_bend_c, 0, 8032
2, 16760, Pitch_bend_c, 0, 8192
2, 16761, Note_on_c, 0, 73, 116
2, 16762, Pitch_bend_c, 0, 8416
2, 16763, Pitch_bend_c, 0, 8448
2, 16764, Pitch_bend_c, 0, 8416
2, 16765, Pitch_bend_c, 0, 8448
2, 16767, Pitch_bend_c, 0, 8192
2, 16768, Pitch_bend_c, 0, 8160
2, 16769, Pitch_bend_c, 0, 8128
2, 16771, Pitch_bend_c, 0, 8032
2, 16775, Pitch_bend_c, 0, 8064
2, 16778, Pitch_bend_c, 0, 8128
2, 16779, Pitch_bend_c, 0, 8064
2, 16780, Pitch_bend_c, 0, 8000
2, 16783, Pitch_bend_c, 0, 8032
2, 16785, Pitch_bend_c, 0, 8128
2, 16786, Pitch_bend_c, 0, 8608
2, 16787, Pitch_bend_c, 0, 11168
2, 16789, Pitch_bend_c, 0, 11488
2, 16790, Pitch_bend_c, 0, 11936
2, 16792, Pitch_bend_c, 0, 12480
2, 16793, Pitch_bend_c, 0, 13056
2, 16795, Pitch_bend_c, 0, 13312
2, 16796, Pitch_bend_c, 0, 13408
2, 16798, Pitch_bend_c, 0, 13152
2, 16799, Pitch_bend_c, 0, 10400
2, 16800, Pitch_bend_c, 0, 10080
2, 16802, Note_on_c, 0, 73, 0
2, 16802, Pitch_bend_c, 0, 9632
2, 16804, Note_on_c, 0, 74, 116
2, 16804, Pitch_bend_c, 0, 12576
2, 16805, Pitch_bend_c, 0, 12768
2, 16809, Pitch_bend_c, 0, 12736
2, 16810, Pitch_bend_c, 0, 12672
2, 16811, Pitch_bend_c, 0, 12640
2, 16813, Pitch_bend_c, 0, 12544
2, 16819, Pitch_bend_c, 0, 12768
2, 16820, Note_on_c, 0, 74, 0
2, 16821, Pitch_bend_c, 0, 8192
2, 16822, Note_on_c, 0, 75, 116
2, 16822, Pitch_bend_c, 0, 8576
2, 16829, Pitch_bend_c, 0, 8544
2, 16831, Pitch_bend_c, 0, 8576
2, 16835, Pitch_bend_c, 0, 8640
2, 16842, Pitch_bend_c, 0, 8576
2, 16844, Pitch_bend_c, 0, 8640
2, 16846, Pitch_bend_c, 0, 8672
2, 16849, Pitch_bend_c, 0, 8736
2, 16853, Pitch_bend_c, 0, 8800
2, 16855, Pitch_bend_c, 0, 9056
2, 16856, Pitch_bend_c, 0, 9408
2, 16858, Pitch_bend_c, 0, 9984
2, 16859, Pitch_bend_c, 0, 10720
2, 16860, Pitch_bend_c, 0, 11456
2, 16862, Pitch_bend_c, 0, 12128
2, 16863, Pitch_bend_c, 0, 12672
2, 16864, Pitch_bend_c, 0, 12992
2, 16866, Pitch_bend_c, 0, 13152
2, 16867, Pitch_bend_c, 0, 13280
2, 16869, Pitch_bend_c, 0, 13344
2, 16870, Pitch_bend_c, 0, 13376
2, 16871, Pitch_bend_c, 0, 13440
2, 16873, Pitch_bend_c, 0, 13472
2, 16878, Pitch_bend_c, 0, 13440
2, 16880, Pitch_bend_c, 0, 13344
2, 16881, Pitch_bend_c, 0, 12896
2, 16883, Pitch_bend_c, 0, 10592
2, 16884, Pitch_bend_c, 0, 10400
2, 16886, Pitch_bend_c, 0, 10080
2, 16887, Pitch_bend_c, 0, 9728
2, 16888, Pitch_bend_c, 0, 9280
2, 16890, Pitch_bend_c, 0, 8992
2, 16891, Pitch_bend_c, 0, 8800
2, 16893, Pitch_bend_c, 0, 8672
2, 16894, Pitch_bend_c, 0, 8640
2, 16895, Pitch_bend_c, 0, 8576
2, 16897, Note_on_c, 0, 75, 0
2, 16897, Pitch_bend_c, 0, 8992
2, 16899, Pitch_bend_c, 0, 8192
2, 16900, Note_on_c, 0, 75, 110
2, 16900, Pitch_bend_c, 0, 8576
2, 16904, Pitch_bend_c, 0, 8544
2, 16914, Note_on_c, 0, 75, 0
2, 16914, Pitch_bend_c, 0, 8992
2, 16915, Pitch_bend_c, 0, 8192
2, 16916, Note_on_c, 0, 75, 116
2, 16917, Pitch_bend_c, 0, 8960
2, 16918, Pitch_bend_c, 0, 8672
2, 16919, Pitch_bend_c, 0, 8640
2, 16921, Pitch_bend_c, 0, 8576
2, 16922, Pitch_bend_c, 0, 8544
2, 16923, Pitch_bend_c, 0, 8480
2, 16925, Pitch_bend_c, 0, 8448
2, 16926, Pitch_bend_c, 0, 8416
2, 16928, Note_on_c, 0, 75, 0
2, 16928, Pitch_bend_c, 0, 8576
2, 16932, Pitch_bend_c, 0, 8192
2, 16933, Note_on_c, 0, 73, 116
2, 16933, Pitch_bend_c, 0, 9344
2, 16934, Pitch_bend_c, 0, 8608
2, 16937, Pitch_bend_c, 0, 8672
2, 16940, Pitch_bend_c, 0, 8704
2, 16942, Pitch_bend_c, 0, 8672
2, 16944, Pitch_bend_c, 0, 8608
2, 16945, Pitch_bend_c, 0, 8544
2, 16947, Pitch_bend_c, 0, 8448
2, 16948, Pitch_bend_c, 0, 8384
2, 16949, Pitch_bend_c, 0, 8352
2, 16951, Pitch_bend_c, 0, 8288
2, 16952, Pitch_bend_c, 0, 8352
2, 16954, Pitch_bend_c, 0, 8416
2, 16955, Pitch_bend_c, 0, 8576
2, 16956, Pitch_bend_c, 0, 8768
2, 16958, Pitch_bend_c, 0, 9024
2, 16959, Pitch_bend_c, 0, 9344
2, 16961, Pitch_bend_c, 0, 9792
2, 16962, Pitch_bend_c, 0, 10368
2, 16963, Pitch_bend_c, 0, 11040
2, 16965, Pitch_bend_c, 0, 11808
2, 16966, Pitch_bend_c, 0, 12608
2, 16968, Pitch_bend_c, 0, 13280
2, 16969, Pitch_bend_c, 0, 13792
2, 16970, Pitch_bend_c, 0, 14048
2, 16972, Pitch_bend_c, 0, 14144
2, 16973, Pitch_bend_c, 0, 14048
2, 16975, Pitch_bend_c, 0, 13536
2, 16977, Pitch_bend_c, 0, 10304
2, 16978, Pitch_bend_c, 0, 10048
2, 16979, Pitch_bend_c, 0, 9696
2, 16980, Pitch_bend_c, 0, 9344
2, 16982, Pitch_bend_c, 0, 9024
2, 16983, Pitch_bend_c, 0, 8992
2, 16985, Pitch_bend_c, 0, 9120
2, 16986, Pitch_bend_c, 0, 9376
2, 16988, Pitch_bend_c, 0, 9984
2, 16989, Pitch_bend_c, 0, 12736
2, 16990, Pitch_bend_c, 0, 12928
2, 16992, Pitch_bend_c, 0, 13248
2, 16993, Pitch_bend_c, 0, 13536
2, 16994, Pitch_bend_c, 0, 13888
2, 16996, Pitch_bend_c, 0, 13952
2, 16997, Pitch_bend_c, 0, 13760
2, 16999, Pitch_bend_c, 0, 10592
2, 17000, Pitch_bend_c, 0, 10272
2, 17001, Pitch_bend_c, 0, 9856
2, 17003, Pitch_bend_c, 0, 9440
2, 17004, Pitch_bend_c, 0, 9056
2, 17006, Pitch_bend_c, 0, 9344
2, 17007, Pitch_bend_c, 0, 11776
2, 17008, Pitch_bend_c, 0, 12000
2, 17010, Pitch_bend_c, 0, 12384
2, 17011, Pitch_bend_c, 0, 12864
2, 17012, Pitch_bend_c, 0, 13280
2, 17014, Pitch_bend_c, 0, 13440
2, 17015, Pitch_bend_c, 0, 13312
2, 17017, Pitch_bend_c, 0, 10592
2, 17018, Pitch_bend_c, 0, 10208
2, 17019, Pitch_bend_c, 0, 9600
2, 17021, Pitch_bend_c, 0, 8864
2, 17022, Note_on_c, 0, 73, 0
2, 17041, Note_on_c, 0, 70, 102
2, 17041, Pitch_bend_c, 0, 8256
2, 17042, Pitch_bend_c, 0, 8320
2, 17044, Pitch_bend_c, 0, 8288
2, 17046, Pitch_bend_c, 0, 8256
2, 17048, Pitch_bend_c, 0, 8224
2, 17049, Pitch_bend_c, 0, 8192
2, 17052, Pitch_bend_c, 0, 8160
2, 17053, Pitch_bend_c, 0, 8128
2, 17056, Pitch_bend_c, 0, 8096
2, 17058, Note_on_c, 0, 70, 0
2, 17058, Pitch_bend_c, 0, 8192
2, 17072, Note_on_c, 0, 72, 98
2, 17074, Pitch_bend_c, 0, 8160
2, 17075, Pitch_bend_c, 0, 8128
2, 17077, Pitch_bend_c, 0, 8160
2, 17079, Pitch_bend_c, 0, 8256
2, 17080, Pitch_bend_c, 0, 8512
2, 17081, Pitch_bend_c, 0, 8832
2, 17083, Pitch_bend_c, 0, 9152
2, 17084, Pitch_bend_c, 0, 9408
2, 17085, Pitch_bend_c, 0, 9600
2, 17087, Pitch_bend_c, 0, 9696
2, 17088, Pitch_bend_c, 0, 9792
2, 17090, Note_on_c, 0, 72, 0
2, 17103, Pitch_bend_c, 0, 8192
2, 17104, Note_on_c, 0, 72, 95
2, 17104, Pitch_bend_c, 0, 8032
2, 17108, Pitch_bend_c, 0, 8000
2, 17109, Pitch_bend_c, 0, 7968
2, 17111, Pitch_bend_c, 0, 7904
2, 17112, Pitch_bend_c, 0, 7872
2, 17114, Pitch_bend_c, 0, 7840
2, 17120, Note_on_c, 0, 72, 0
2, 17120, Pitch_bend_c, 0, 8000
2, 17122, Pitch_bend_c, 0, 8192
2, 17123, Note_on_c, 0, 70, 78
2, 17123, Pitch_bend_c, 0, 8096
2, 17124, Pitch_bend_c, 0, 8064
2, 17126, Pitch_bend_c, 0, 8096
2, 17129, Pitch_bend_c, 0, 8128
2, 17130, Pitch_bend_c, 0, 8160
2, 17131, Pitch_bend_c, 0, 8192
2, 17139, Note_on_c, 0, 70, 0
2, 17142, Note_on_c, 0, 67, 34
2, 17142, Pitch_bend_c, 0, 8128
2, 17143, Pitch_bend_c, 0, 8064
2, 17144, Pitch_bend_c, 0, 8096
2, 17148, Pitch_bend_c, 0, 8064
2, 17151, Pitch_bend_c, 0, 8032
2, 17155, Pitch_bend_c, 0, 8064
2, 17156, Note_on_c, 0, 67, 0
2, 17158, Pitch_bend_c, 0, 8192
2, 17159, Note_on_c, 0, 70, 71
2, 17159, Pitch_bend_c, 0, 8064
2, 17169, Pitch_bend_c, 0, 8096
2, 17172, Pitch_bend_c, 0, 8160
2, 17173, Pitch_bend_c, 0, 8192
2, 17176, Pitch_bend_c, 0, 8288
2, 17177, Pitch_bend_c, 0, 8480
2, 17179, Pitch_bend_c, 0, 8768
2, 17180, Pitch_bend_c, 0, 9024
2, 17182, Pitch_bend_c, 0, 9184
2, 17183, Pitch_bend_c, 0, 9216
2, 17184, Pitch_bend_c, 0, 9056
2, 17186, Pitch_bend_c, 0, 8704
2, 17187, Pitch_bend_c, 0, 8384
2, 17189, Pitch_bend_c, 0, 8160
2, 17190, Pitch_bend_c, 0, 8000
2, 17193, Pitch_bend_c, 0, 8064
2, 17194, Pitch_bend_c, 0, 8160
2, 17195, Pitch_bend_c, 0, 8224
2, 17197, Pitch_bend_c, 0, 8320
2, 17198, Pitch_bend_c, 0, 8352
2, 17199, Pitch_bend_c, 0, 8256
2, 17201, Pitch_bend_c, 0, 8160
2, 17202, Pitch_bend_c, 0, 8064
2, 17204, Pitch_bend_c, 0, 8032
2, 17205, Pitch_bend_c, 0, 8064
2, 17207, Pitch_bend_c, 0, 8128
2, 17208, Pitch_bend_c, 0, 8192
2, 17211, Pitch_bend_c, 0, 8224
2, 17212, Pitch_bend_c, 0, 8256
2, 17214, Note_on_c, 0, 70, 0
2, 17214, Pitch_bend_c, 0, 8288
2, 17216, Pitch_bend_c, 0, 8192
2, 17217, Note_on_c, 0, 70, 85
2, 17217, Pitch_bend_c, 0, 8288
2, 17218, Pitch_bend_c, 0, 8320
2, 17221, Pitch_bend_c, 0, 8288
2, 17223, Pitch_bend_c, 0, 8224
2, 17224, Pitch_bend_c, 0, 8192
2, 17225, Pitch_bend_c, 0, 8160
2, 17227, Pitch_bend_c, 0, 8128
2, 17228, Pitch_bend_c, 0, 8096
2, 17229, Pitch_bend_c, 0, 8064
2, 17232, Pitch_bend_c, 0, 8032
2, 17237, Note_on_c, 0, 70, 0
2, 17237, Pitch_bend_c, 0, 8160
2, 17242, Note_on_c, 0, 73, 95
2, 17243, Pitch_bend_c, 0, 8224
2, 17245, Pitch_bend_c, 0, 8256
2, 17246, Pitch_bend_c, 0, 8288
2, 17247, Pitch_bend_c, 0, 8448
2, 17249, Pitch_bend_c, 0, 8736
2, 17250, Pitch_bend_c, 0, 9312
2, 17252, Pitch_bend_c, 0, 9984
2, 17253, Pitch_bend_c, 0, 12160
2, 17255, Pitch_bend_c, 0, 12352
2, 17257, Pitch_bend_c, 0, 12512
2, 17258, Pitch_bend_c, 0, 12672
2, 17259, Pitch_bend_c, 0, 12864
2, 17260, Note_on_c, 0, 73, 0
2, 17276, Note_on_c, 0, 73, 81
2, 17276, Pitch_bend_c, 0, 8128
2, 17277, Pitch_bend_c, 0, 8064
2, 17279, Pitch_bend_c, 0, 8128
2, 17280, Pitch_bend_c, 0, 8160
2, 17282, Pitch_bend_c, 0, 8224
2, 17283, Pitch_bend_c, 0, 8352
2, 17284, Pitch_bend_c, 0, 8448
2, 17286, Pitch_bend_c, 0, 8672
2, 17287, Pitch_bend_c, 0, 8768
2, 17289, Pitch_bend_c, 0, 8896
2, 17290, Pitch_bend_c, 0, 9024
2, 17292, Pitch_bend_c, 0, 9152
2, 17293, Pitch_bend_c, 0, 9280
2, 17294, Pitch_bend_c, 0, 9440
2, 17296, Pitch_bend_c, 0, 9600
2, 17297, Pitch_bend_c, 0, 9760
2, 17298, Pitch_bend_c, 0, 9952
2, 17300, Pitch_bend_c, 0, 10144
2, 17301, Pitch_bend_c, 0, 10400
2, 17303, Pitch_bend_c, 0, 10720
2, 17305, Pitch_bend_c, 0, 11040
2, 17306, Pitch_bend_c, 0, 11360
2, 17307, Pitch_bend_c, 0, 11680
2, 17309, Pitch_bend_c, 0, 11936
2, 17310, Pitch_bend_c, 0, 12128
2, 17312, Pitch_bend_c, 0, 12256
2, 17313, Pitch_bend_c, 0, 12288
2, 17317, Pitch_bend_c, 0, 12224
2, 17318, Pitch_bend_c, 0, 12096
2, 17320, Pitch_bend_c, 0, 11808
2, 17321, Pitch_bend_c, 0, 11360
2, 17323, Pitch_bend_c, 0, 10880
2, 17324, Pitch_bend_c, 0, 10464
2, 17325, Pitch_bend_c, 0, 10240
2, 17327, Pitch_bend_c, 0, 10144
2, 17328, Pitch_bend_c, 0, 10304
2, 17329, Pitch_bend_c, 0, 10688
2, 17331, Pitch_bend_c, 0, 11200
2, 17332, Pitch_bend_c, 0, 11808
2, 17334, Pitch_bend_c, 0, 12416
2, 17335, Pitch_bend_c, 0, 12896
2, 17336, Pitch_bend_c, 0, 13152
2, 17338, Pitch_bend_c, 0, 13184
2, 17339, Pitch_bend_c, 0, 12928
2, 17340, Pitch_bend_c, 0, 12352
2, 17342, Pitch_bend_c, 0, 9792
2, 17344, Pitch_bend_c, 0, 9760
2, 17345, Pitch_bend_c, 0, 9696
2, 17347, Pitch_bend_c, 0, 9760
2, 17348, Pitch_bend_c, 0, 10048
2, 17349, Pitch_bend_c, 0, 10688
2, 17351, Pitch_bend_c, 0, 11456
2, 17352, Pitch_bend_c, 0, 12128
2, 17353, Pitch_bend_c, 0, 12544
2, 17355, Pitch_bend_c, 0, 12736
2, 17356, Pitch_bend_c, 0, 12544
2, 17358, Note_on_c, 0, 73, 0
2, 17444, Pitch_bend_c, 0, 8192
2, 17445, Note_on_c, 0, 70, 127
2, 17445, Pitch_bend_c, 0, 8352
2, 17446, Pitch_bend_c, 0, 8224
2, 17449, Pitch_bend_c, 0, 8256
2, 17451, Pitch_bend_c, 0, 8288
2, 17453, Pitch_bend_c, 0, 8320
2, 17456, Pitch_bend_c, 0, 8416
2, 17458, Pitch_bend_c, 0, 8640
2, 17459, Pitch_bend_c, 0, 9024
2, 17461, Pitch_bend_c, 0, 9408
2, 17462, Pitch_bend_c, 0, 9664
2, 17465, Pitch_bend_c, 0, 9312
2, 17466, Pitch_bend_c, 0, 8768
2, 17468, Pitch_bend_c, 0, 8288
2, 17469, Pitch_bend_c, 0, 8032
2, 17471, Pitch_bend_c, 0, 7936
2, 17472, Pitch_bend_c, 0, 8000
2, 17473, Pitch_bend_c, 0, 8224
2, 17475, Pitch_bend_c, 0, 8576
2, 17476, Pitch_bend_c, 0, 8960
2, 17478, Pitch_bend_c, 0, 9248
2, 17481, Pitch_bend_c, 0, 9056
2, 17482, Pitch_bend_c, 0, 8832
2, 17484, Pitch_bend_c, 0, 8576
2, 17485, Pitch_bend_c, 0, 8320
2, 17486, Pitch_bend_c, 0, 8192
2, 17486, Note_on_c, 0, 67, 111
2, 17490, Note_on_c, 0, 70, 0
2, 17491, Pitch_bend_c, 0, 8256
2, 17493, Pitch_bend_c, 0, 8192
2, 17494, Pitch_bend_c, 0, 8128
2, 17495, Pitch_bend_c, 0, 8032
2, 17498, Pitch_bend_c, 0, 8000
2, 17500, Note_on_c, 0, 67, 0
2, 17501, Pitch_bend_c, 0, 8192
2, 17502, Note_on_c, 0, 73, 126
2, 17502, Pitch_bend_c, 0, 7680
2, 17505, Pitch_bend_c, 0, 7616
2, 17507, Pitch_bend_c, 0, 7552
2, 17508, Pitch_bend_c, 0, 7584
2, 17510, Pitch_bend_c, 0, 7552
2, 17511, Pitch_bend_c, 0, 7584
2, 17512, Pitch_bend_c, 0, 7648
2, 17514, Pitch_bend_c, 0, 7776
2, 17515, Pitch_bend_c, 0, 7936
2, 17516, Pitch_bend_c, 0, 8192
2, 17518, Pitch_bend_c, 0, 8512
2, 17519, Pitch_bend_c, 0, 9056
2, 17521, Pitch_bend_c, 0, 9792
2, 17522, Pitch_bend_c, 0, 10624
2, 17523, Pitch_bend_c, 0, 11392
2, 17525, Pitch_bend_c, 0, 12000
2, 17526, Pitch_bend_c, 0, 12352
2, 17527, Note_on_c, 0, 73, 0
2, 17629, Pitch_bend_c, 0, 8192
2, 17629, Note_on_c, 0, 70, 112
2, 17630, Pitch_bend_c, 0, 8288
2, 17631, Pitch_bend_c, 0, 8256
2, 17636, Pitch_bend_c, 0, 8224
2, 17638, Pitch_bend_c, 0, 8192
2, 17639, Pitch_bend_c, 0, 8000
2, 17640, Pitch_bend_c, 0, 7776
2, 17641, Note_on_c, 0, 70, 0
2, 17641, Pitch_bend_c, 0, 8256
2, 17656, Pitch_bend_c, 0, 8192
2, 17662, Note_on_c, 0, 79, 123
2, 17662, Pitch_bend_c, 0, 8768
2, 17663, Pitch_bend_c, 0, 8544
2, 17664, Pitch_bend_c, 0, 8608
2, 17667, Pitch_bend_c, 0, 8544
2, 17670, Pitch_bend_c, 0, 8608
2, 17671, Pitch_bend_c, 0, 8736
2, 17673, Pitch_bend_c, 0, 8960
2, 17674, Pitch_bend_c, 0, 9344
2, 17675, Pitch_bend_c, 0, 9760
2, 17677, Pitch_bend_c, 0, 10144
2, 17678, Pitch_bend_c, 0, 10560
2, 17679, Pitch_bend_c, 0, 10848
2, 17681, Pitch_bend_c, 0, 11136
2, 17682, Pitch_bend_c, 0, 11360
2, 17684, Pitch_bend_c, 0, 11520
2, 17685, Pitch_bend_c, 0, 11712
2, 17686, Pitch_bend_c, 0, 11808
2, 17688, Pitch_bend_c, 0, 11872
2, 17689, Pitch_bend_c, 0, 11936
2, 17707, Pitch_bend_c, 0, 12000
2, 17709, Pitch_bend_c, 0, 12096
2, 17710, Pitch_bend_c, 0, 12224
2, 17712, Pitch_bend_c, 0, 12384
2, 17713, Pitch_bend_c, 0, 12512
2, 17714, Pitch_bend_c, 0, 12576
2, 17716, Pitch_bend_c, 0, 12640
2, 17723, Pitch_bend_c, 0, 12704
2, 17727, Pitch_bend_c, 0, 12640
2, 17728, Pitch_bend_c, 0, 12448
2, 17730, Pitch_bend_c, 0, 12160
2, 17731, Pitch_bend_c, 0, 11648
2, 17732, Note_on_c, 0, 79, 0
2, 17732, Pitch_bend_c, 0, 12704
2, 17757, Pitch_bend_c, 0, 8192
2, 17758, Note_on_c, 0, 77, 115
2, 17758, Pitch_bend_c, 0, 8640
2, 17759, Pitch_bend_c, 0, 8896
2, 17761, Pitch_bend_c, 0, 8736
2, 17762, Pitch_bend_c, 0, 8640
2, 17764, Pitch_bend_c, 0, 8480
2, 17766, Pitch_bend_c, 0, 8416
2, 17774, Pitch_bend_c, 0, 8544
2, 17775, Pitch_bend_c, 0, 8576
2, 17776, Pitch_bend_c, 0, 8672
2, 17778, Pitch_bend_c, 0, 8992
2, 17779, Pitch_bend_c, 0, 9344
2, 17780, Pitch_bend_c, 0, 9792
2, 17782, Pitch_bend_c, 0, 10272
2, 17783, Pitch_bend_c, 0, 10528
2, 17785, Pitch_bend_c, 0, 10656
2, 17786, Pitch_bend_c, 0, 10624
2, 17787, Pitch_bend_c, 0, 10304
2, 17789, Pitch_bend_c, 0, 9792
2, 17790, Pitch_bend_c, 0, 9248
2, 17791, Pitch_bend_c, 0, 8800
2, 17793, Pitch_bend_c, 0, 8576
2, 17794, Pitch_bend_c, 0, 8544
2, 17797, Pitch_bend_c, 0, 8480
2, 17799, Pitch_bend_c, 0, 8544
2, 17800, Pitch_bend_c, 0, 8576
2, 17801, Pitch_bend_c, 0, 8672
2, 17803, Pitch_bend_c, 0, 8832
2, 17804, Pitch_bend_c, 0, 8992
2, 17806, Pitch_bend_c, 0, 9088
2, 17807, Pitch_bend_c, 0, 9152
2, 17813, Pitch_bend_c, 0, 9056
2, 17814, Pitch_bend_c, 0, 8928
2, 17815, Pitch_bend_c, 0, 8832
2, 17817, Note_on_c, 0, 77, 0
2, 17817, Pitch_bend_c, 0, 9152
2, 17819, Note_on_c, 0, 75, 114
2, 17819, Pitch_bend_c, 0, 8448
2, 17823, Pitch_bend_c, 0, 8416
2, 17824, Pitch_bend_c, 0, 8352
2, 17831, Pitch_bend_c, 0, 8416
2, 17835, Pitch_bend_c, 0, 8352
2, 17837, Note_on_c, 0, 75, 0
2, 17837, Pitch_bend_c, 0, 8448
2, 17839, Pitch_bend_c, 0, 8192
2, 17840, Note_on_c, 0, 77, 112
2, 17840, Pitch_bend_c, 0, 8320
2, 17842, Pitch_bend_c, 0, 8288
2, 17847, Note_on_c, 0, 77, 0
2, 17858, Pitch_bend_c, 0, 8192
2, 17858, Note_on_c, 0, 72, 106
2, 17866, Pitch_bend_c, 0, 8128
2, 17868, Pitch_bend_c, 0, 8096
2, 17869, Pitch_bend_c, 0, 12064
2, 17875, Pitch_bend_c, 0, 12096
2, 17876, Pitch_bend_c, 0, 8128
2, 17881, Pitch_bend_c, 0, 8160
2, 17882, Pitch_bend_c, 0, 8224
2, 17884, Pitch_bend_c, 0, 8320
2, 17885, Note_on_c, 0, 72, 0
2, 17885, Note_on_c, 0, 69, 90
2, 17885, Pitch_bend_c, 0, 12256
2, 17890, Pitch_bend_c, 0, 12288
2, 17891, Pitch_bend_c, 0, 12320
2, 17894, Pitch_bend_c, 0, 12352
2, 17898, Pitch_bend_c, 0, 12384
2, 17901, Note_on_c, 0, 69, 0
2, 17901, Pitch_bend_c, 0, 8192
2, 17901, Note_on_c, 0, 67, 31
2, 17903, Pitch_bend_c, 0, 8064
2, 17906, Pitch_bend_c, 0, 8096
2, 17909, Pitch_bend_c, 0, 8064
2, 17912, Pitch_bend_c, 0, 8032
2, 17919, Pitch_bend_c, 0, 8192
2, 17919, Note_on_c, 0, 70, 106
2, 17920, Note_on_c, 0, 67, 0
2, 17923, Pitch_bend_c, 0, 8256
2, 17925, Pitch_bend_c, 0, 8224
2, 17934, Pitch_bend_c, 0, 8192
2, 17938, Pitch_bend_c, 0, 8160
2, 17943, Note_on_c, 0, 70, 0
2, 17943, Pitch_bend_c, 0, 8192
2, 17948, Note_on_c, 0, 72, 106
2, 17948, Pitch_bend_c, 0, 8224
2, 17957, Pitch_bend_c, 0, 8192
2, 17961, Pitch_bend_c, 0, 8160
2, 17962, Pitch_bend_c, 0, 12128
2, 17966, Pitch_bend_c, 0, 12192
2, 17967, Pitch_bend_c, 0, 12224
2, 17969, Pitch_bend_c, 0, 8128
2, 17972, Pitch_bend_c, 0, 8032
2, 17973, Pitch_bend_c, 0, 8000
2, 17974, Pitch_bend_c, 0, 8096
2, 17976, Pitch_bend_c, 0, 8192
2, 17981, Note_on_c, 0, 72, 0
2, 17981, Note_on_c, 0, 69, 89
2, 17981, Pitch_bend_c, 0, 12288
2, 17982, Pitch_bend_c, 0, 12224
2, 17985, Pitch_bend_c, 0, 12256
2, 17987, Pitch_bend_c, 0, 12288
2, 17988, Pitch_bend_c, 0, 12320
2, 17992, Pitch_bend_c, 0, 12352
2, 17996, Pitch_bend_c, 0, 12320
2, 17998, Note_on_c, 0, 69, 0
2, 17998, Pitch_bend_c, 0, 8192
2, 17998, Note_on_c, 0, 67, 38
2, 18002, Pitch_bend_c, 0, 8160
2, 18006, Pitch_bend_c, 0, 8096
2, 18007, Pitch_bend_c, 0, 8064
2, 18009, Pitch_bend_c, 0, 8032
2, 18013, Note_on_c, 0, 67, 0
2, 18013, Pitch_bend_c, 0, 8192
2, 18013, Note_on_c, 0, 70, 103
2, 18026, Pitch_bend_c, 0, 8160
2, 18027, Pitch_bend_c, 0, 8128
2, 18030, Pitch_bend_c, 0, 8224
2, 18031, Pitch_bend_c, 0, 8544
2, 18033, Pitch_bend_c, 0, 8960
2, 18034, Pitch_bend_c, 0, 9344
2, 18035, Pitch_bend_c, 0, 9472
2, 18037, Pitch_bend_c, 0, 9312
2, 18038, Pitch_bend_c, 0, 8896
2, 18040, Pitch_bend_c, 0, 8480
2, 18041, Pitch_bend_c, 0, 8192
2, 18042, Pitch_bend_c, 0, 8032
2, 18045, Pitch_bend_c, 0, 8096
2, 18047, Pitch_bend_c, 0, 8256
2, 18048, Pitch_bend_c, 0, 8544
2, 18050, Pitch_bend_c, 0, 8832
2, 18051, Pitch_bend_c, 0, 9024
2, 18052, Note_on_c, 0, 70, 0
2, 18259, Pitch_bend_c, 0, 4544
2, 18259, Note_on_c, 0, 80, 127
2, 18260, Pitch_bend_c, 0, 4384
2, 18266, Pitch_bend_c, 0, 4320
2, 18269, Pitch_bend_c, 0, 4256
2, 18271, Pitch_bend_c, 0, 4192
2, 18273, Pitch_bend_c, 0, 4128
2, 18277, Note_on_c, 0, 80, 0
2, 18277, Pitch_bend_c, 0, 4384
2, 18278, Pitch_bend_c, 0, 8192
2, 18284, Note_on_c, 0, 77, 116
2, 18284, Pitch_bend_c, 0, 8640
2, 18285, Pitch_bend_c, 0, 8672
2, 18286, Pitch_bend_c, 0, 8640
2, 18291, Pitch_bend_c, 0, 8576
2, 18292, Pitch_bend_c, 0, 8544
2, 18296, Pitch_bend_c, 0, 8576
2, 18297, Note_on_c, 0, 77, 0
2, 18297, Pitch_bend_c, 0, 8672
2, 18309, Pitch_bend_c, 0, 8192
2, 18310, Note_on_c, 0, 79, 117
2, 18310, Pitch_bend_c, 0, 8320
2, 18311, Pitch_bend_c, 0, 8448
2, 18312, Pitch_bend_c, 0, 8384
2, 18314, Pitch_bend_c, 0, 8480
2, 18315, Pitch_bend_c, 0, 8672
2, 18317, Pitch_bend_c, 0, 8896
2, 18318, Pitch_bend_c, 0, 9248
2, 18320, Pitch_bend_c, 0, 9696
2, 18321, Pitch_bend_c, 0, 10208
2, 18322, Pitch_bend_c, 0, 10784
2, 18324, Pitch_bend_c, 0, 11232
2, 18325, Pitch_bend_c, 0, 11648
2, 18326, Pitch_bend_c, 0, 12000
2, 18328, Pitch_bend_c, 0, 12224
2, 18329, Pitch_bend_c, 0, 12384
2, 18331, Pitch_bend_c, 0, 12448
2, 18334, Pitch_bend_c, 0, 12384
2, 18335, Note_on_c, 0, 79, 0
2, 18335, Pitch_bend_c, 0, 12320
2, 18370, Pitch_bend_c, 0, 8192
2, 18371, Note_on_c, 0, 77, 115
2, 18371, Pitch_bend_c, 0, 8544
2, 18375, Pitch_bend_c, 0, 8480
2, 18378, Pitch_bend_c, 0, 8416
2, 18379, Pitch_bend_c, 0, 8384
2, 18381, Pitch_bend_c, 0, 8320
2, 18382, Pitch_bend_c, 0, 8288
2, 18383, Pitch_bend_c, 0, 8224
2, 18385, Note_on_c, 0, 77, 0
2, 18385, Pitch_bend_c, 0, 8384
2, 18391, Pitch_bend_c, 0, 8192
2, 18392, Note_on_c, 0, 75, 114
2, 18392, Pitch_bend_c, 0, 8544
2, 18393, Pitch_bend_c, 0, 8576
2, 18395, Pitch_bend_c, 0, 8640
2, 18399, Pitch_bend_c, 0, 8576
2, 18400, Pitch_bend_c, 0, 8480
2, 18402, Pitch_bend_c, 0, 8448
2, 18403, Note_on_c, 0, 75, 0
2, 18404, Pitch_bend_c, 0, 8416
2, 18407, Note_on_c, 0, 77, 108
2, 18407, Pitch_bend_c, 0, 8640
2, 18410, Pitch_bend_c, 0, 8576
2, 18413, Pitch_bend_c, 0, 8544
2, 18414, Pitch_bend_c, 0, 8480
2, 18415, Pitch_bend_c, 0, 8192
2, 18416, Note_on_c, 0, 77, 0
2, 18416, Pitch_bend_c, 0, 8640
2, 18424, Pitch_bend_c, 0, 8192
2, 18425, Note_on_c, 0, 72, 110
2, 18426, Pitch_bend_c, 0, 8352
2, 18427, Pitch_bend_c, 0, 8256
2, 18431, Pitch_bend_c, 0, 8320
2, 18432, Pitch_bend_c, 0, 8288
2, 18435, Pitch_bend_c, 0, 8256
2, 18437, Pitch_bend_c, 0, 8192
2, 18441, Pitch_bend_c, 0, 12288
2, 18445, Pitch_bend_c, 0, 12320
2, 18446, Pitch_bend_c, 0, 12352
2, 18448, Pitch_bend_c, 0, 12512
2, 18449, Pitch_bend_c, 0, 12608
2, 18451, Pitch_bend_c, 0, 8224
2, 18452, Pitch_bend_c, 0, 8192
2, 18454, Pitch_bend_c, 0, 8352
2, 18455, Pitch_bend_c, 0, 8480
2, 18456, Pitch_bend_c, 0, 8608
2, 18458, Note_on_c, 0, 72, 0
2, 18458, Note_on_c, 0, 69, 73
2, 18458, Pitch_bend_c, 0, 12288
2, 18459, Pitch_bend_c, 0, 12256
2, 18462, Pitch_bend_c, 0, 12288
2, 18463, Pitch_bend_c, 0, 12320
2, 18465, Pitch_bend_c, 0, 12352
2, 18467, Pitch_bend_c, 0, 12384
2, 18468, Note_on_c, 0, 69, 0
2, 18469, Note_on_c, 0, 72, 106
2, 18469, Pitch_bend_c, 0, 8192
2, 18470, Pitch_bend_c, 0, 8672
2, 18475, Pitch_bend_c, 0, 8640
2, 18478, Pitch_bend_c, 0, 8608
2, 18479, Pitch_bend_c, 0, 8512
2, 18480, Pitch_bend_c, 0, 8448
2, 18482, Pitch_bend_c, 0, 8416
2, 18483, Note_on_c, 0, 72, 0
2, 18483, Pitch_bend_c, 0, 8640
2, 18485, Pitch_bend_c, 0, 8192
2, 18486, Note_on_c, 0, 67, 83
2, 18487, Pitch_bend_c, 0, 8160
2, 18489, Pitch_bend_c, 0, 8128
2, 18494, Pitch_bend_c, 0, 8096
2, 18500, Pitch_bend_c, 0, 8064
2, 18501, Note_on_c, 0, 67, 0
2, 18501, Note_on_c, 0, 70, 108
2, 18501, Pitch_bend_c, 0, 8192
2, 18502, Pitch_bend_c, 0, 8352
2, 18503, Pitch_bend_c, 0, 8320
2, 18505, Pitch_bend_c, 0, 8352
2, 18509, Pitch_bend_c, 0, 8320
2, 18511, Pitch_bend_c, 0, 8288
2, 18512, Pitch_bend_c, 0, 8256
2, 18513, Pitch_bend_c, 0, 8192
2, 18515, Pitch_bend_c, 0, 8160
2, 18516, Pitch_bend_c, 0, 8128
2, 18518, Pitch_bend_c, 0, 8096
2, 18519, Pitch_bend_c, 0, 8064
2, 18524, Note_on_c, 0, 70, 0
2, 18524, Pitch_bend_c, 0, 8192
2, 18529, Note_on_c, 0, 73, 110
2, 18529, Pitch_bend_c, 0, 8224
2, 18533, Pitch_bend_c, 0, 8256
2, 18534, Pitch_bend_c, 0, 8288
2, 18536, Pitch_bend_c, 0, 8256
2, 18537, Pitch_bend_c, 0, 8224
2, 18539, Pitch_bend_c, 0, 8160
2, 18540, Pitch_bend_c, 0, 8064
2, 18543, Pitch_bend_c, 0, 8032
2, 18550, Pitch_bend_c, 0, 8160
2, 18551, Pitch_bend_c, 0, 8416
2, 18552, Pitch_bend_c, 0, 9024
2, 18554, Pitch_bend_c, 0, 11936
2, 18556, Pitch_bend_c, 0, 12128
2, 18557, Pitch_bend_c, 0, 12384
2, 18558, Pitch_bend_c, 0, 12672
2, 18560, Pitch_bend_c, 0, 12928
2, 18561, Note_on_c, 0, 73, 0
2, 18600, Pitch_bend_c, 0, 8192
2, 18601, Note_on_c, 0, 69, 116
2, 18601, Pitch_bend_c, 0, 8512
2, 18605, Pitch_bend_c, 0, 8480
2, 18606, Pitch_bend_c, 0, 8416
2, 18607, Pitch_bend_c, 0, 8352
2, 18609, Pitch_bend_c, 0, 8320
2, 18610, Pitch_bend_c, 0, 8224
2, 18612, Pitch_bend_c, 0, 12288
2, 18613, Pitch_bend_c, 0, 12320
2, 18617, Pitch_bend_c, 0, 12352
2, 18620, Pitch_bend_c, 0, 12384
2, 18627, Pitch_bend_c, 0, 12352
2, 18630, Pitch_bend_c, 0, 12288
2, 18631, Note_on_c, 0, 69, 0
2, 18631, Pitch_bend_c, 0, 12320
2, 18643, Note_on_c, 0, 65, 118
2, 18643, Pitch_bend_c, 0, 8352
2, 18646, Pitch_bend_c, 0, 8384
2, 18649, Pitch_bend_c, 0, 8416
2, 18655, Pitch_bend_c, 0, 8352
2, 18657, Pitch_bend_c, 0, 8288
2, 18658, Pitch_bend_c, 0, 8416
2, 18659, Note_on_c, 0, 65, 0
2, 18662, Note_on_c, 0, 63, 106
2, 18662, Pitch_bend_c, 0, 8128
2, 18664, Pitch_bend_c, 0, 8160
2, 18665, Pitch_bend_c, 0, 8128
2, 18672, Pitch_bend_c, 0, 8096
2, 18674, Note_on_c, 0, 63, 0
2, 18674, Pitch_bend_c, 0, 8160
2, 18677, Note_on_c, 0, 65, 119
2, 18677, Pitch_bend_c, 0, 8288
2, 18689, Pitch_bend_c, 0, 8352
2, 18690, Note_on_c, 0, 65, 0
2, 18692, Pitch_bend_c, 0, 8192
2, 18693, Note_on_c, 0, 61, 106
2, 18693, Pitch_bend_c, 0, 8288
2, 18697, Pitch_bend_c, 0, 8352
2, 18698, Pitch_bend_c, 0, 8416
2, 18700, Pitch_bend_c, 0, 8448
2, 18703, Pitch_bend_c, 0, 8352
2, 18704, Pitch_bend_c, 0, 8288
2, 18706, Pitch_bend_c, 0, 8480
2, 18707, Pitch_bend_c, 0, 8928
2, 18709, Pitch_bend_c, 0, 9664
2, 18710, Pitch_bend_c, 0, 10496
2, 18711, Pitch_bend_c, 0, 11168
2, 18713, Pitch_bend_c, 0, 11648
2, 18714, Pitch_bend_c, 0, 11872
2, 18715, Pitch_bend_c, 0, 11936
2, 18716, Note_on_c, 0, 61, 0
2, 18719, Note_on_c, 0, 58, 89
2, 18719, Pitch_bend_c, 0, 8192
2, 18720, Pitch_bend_c, 0, 8160
2, 18723, Pitch_bend_c, 0, 8192
2, 18725, Pitch_bend_c, 0, 8224
2, 18728, Pitch_bend_c, 0, 8256
2, 18729, Pitch_bend_c, 0, 8224
2, 18731, Pitch_bend_c, 0, 8192
2, 18736, Pitch_bend_c, 0, 8000
2, 18737, Note_on_c, 0, 58, 0
2, 18737, Pitch_bend_c, 0, 8224
2, 18750, Note_on_c, 0, 63, 118
2, 18750, Pitch_bend_c, 0, 8576
2, 18751, Pitch_bend_c, 0, 8480
2, 18752, Pitch_bend_c, 0, 8576
2, 18755, Pitch_bend_c, 0, 8544
2, 18756, Pitch_bend_c, 0, 8480
2, 18758, Pitch_bend_c, 0, 8512
2, 18760, Pitch_bend_c, 0, 8832
2, 18761, Pitch_bend_c, 0, 9280
2, 18762, Pitch_bend_c, 0, 9824
2, 18764, Pitch_bend_c, 0, 10304
2, 18765, Note_on_c, 0, 63, 0
2, 18777, Pitch_bend_c, 0, 8192
2, 18778, Note_on_c, 0, 63, 118
2, 18778, Pitch_bend_c, 0, 8288
2, 18779, Pitch_bend_c, 0, 8192
2, 18780, Pitch_bend_c, 0, 8224
2, 18782, Pitch_bend_c, 0, 8192
2, 18784, Pitch_bend_c, 0, 8224
2, 18785, Pitch_bend_c, 0, 8192
2, 18786, Pitch_bend_c, 0, 8224
2, 18790, Pitch_bend_c, 0, 8192
2, 18792, Pitch_bend_c, 0, 8160
2, 18793, Note_on_c, 0, 63, 0
2, 18793, Pitch_bend_c, 0, 8192
2, 18805, Note_on_c, 0, 61, 102
2, 18805, Pitch_bend_c, 0, 8160
2, 18807, Pitch_bend_c, 0, 8192
2, 18816, Pitch_bend_c, 0, 8160
2, 18819, Pitch_bend_c, 0, 8128
2, 18822, Pitch_bend_c, 0, 8096
2, 18823, Pitch_bend_c, 0, 8064
2, 18832, Pitch_bend_c, 0, 8160
2, 18833, Pitch_bend_c, 0, 8288
2, 18835, Pitch_bend_c, 0, 8672
2, 18836, Pitch_bend_c, 0, 9216
2, 18838, Pitch_bend_c, 0, 9920
2, 18839, Pitch_bend_c, 0, 10528
2, 18840, Pitch_bend_c, 0, 10848
2, 18842, Pitch_bend_c, 0, 10912
2, 18843, Pitch_bend_c, 0, 10784
2, 18844, Pitch_bend_c, 0, 10624
2, 18845, Note_on_c, 0, 61, 0
2, 18868, Pitch_bend_c, 0, 8192
2, 18869, Note_on_c, 0, 68, 116
2, 18870, Pitch_bend_c, 0, 8224
2, 18871, Pitch_bend_c, 0, 8288
2, 18872, Pitch_bend_c, 0, 8256
2, 18874, Pitch_bend_c, 0, 8224
2, 18875, Pitch_bend_c, 0, 8192
2, 18887, Pitch_bend_c, 0, 8160
2, 18889, Pitch_bend_c, 0, 8192
2, 18905, Pitch_bend_c, 0, 8224
2, 18906, Pitch_bend_c, 0, 8352
2, 18907, Pitch_bend_c, 0, 8672
2, 18909, Pitch_bend_c, 0, 8896
2, 18910, Note_on_c, 0, 68, 0
2, 18910, Note_on_c, 0, 65, 87
2, 18911, Pitch_bend_c, 0, 8192
2, 18912, Pitch_bend_c, 0, 8256
2, 18913, Pitch_bend_c, 0, 8224
2, 18915, Pitch_bend_c, 0, 8192
2, 18920, Pitch_bend_c, 0, 8288
2, 18921, Note_on_c, 0, 65, 0
2, 18921, Note_on_c, 0, 63, 115
2, 18921, Pitch_bend_c, 0, 8064
2, 18922, Pitch_bend_c, 0, 8160
2, 18923, Pitch_bend_c, 0, 8192
2, 18924, Pitch_bend_c, 0, 8128
2, 18925, Pitch_bend_c, 0, 8096
2, 18927, Pitch_bend_c, 0, 8000
2, 18928, Note_on_c, 0, 63, 0
2, 18930, Pitch_bend_c, 0, 8192
2, 18931, Note_on_c, 0, 61, 106
2, 18931, Pitch_bend_c, 0, 8384
2, 18932, Pitch_bend_c, 0, 8000
2, 18933, Pitch_bend_c, 0, 8096
2, 18935, Pitch_bend_c, 0, 8064
2, 18937, Pitch_bend_c, 0, 8160
2, 18938, Pitch_bend_c, 0, 8192
2, 18938, Note_on_c, 0, 58, 80
2, 18939, Note_on_c, 0, 61, 0
2, 18939, Pitch_bend_c, 0, 8224
2, 18940, Pitch_bend_c, 0, 8192
2, 18943, Pitch_bend_c, 0, 8160
2, 18944, Pitch_bend_c, 0, 8000
2, 18946, Pitch_bend_c, 0, 7712
2, 18947, Pitch_bend_c, 0, 7168
2, 18948, Note_on_c, 0, 58, 0
2, 18949, Pitch_bend_c, 0, 8192
2, 18950, Note_on_c, 0, 63, 116
2, 18950, Pitch_bend_c, 0, 8128
2, 18951, Pitch_bend_c, 0, 8192
2, 18957, Pitch_bend_c, 0, 8160
2, 18958, Pitch_bend_c, 0, 8128
2, 18961, Pitch_bend_c, 0, 8096
2, 18962, Pitch_bend_c, 0, 8064
2, 18966, Pitch_bend_c, 0, 8032
2, 18969, Pitch_bend_c, 0, 8000
2, 18975, Pitch_bend_c, 0, 8064
2, 18977, Pitch_bend_c, 0, 8128
2, 18978, Note_on_c, 0, 63, 0
2, 18978, Note_on_c, 0, 60, 100
2, 18978, Pitch_bend_c, 0, 12032
2, 18979, Pitch_bend_c, 0, 12064
2, 18982, Pitch_bend_c, 0, 12288
2, 18984, Pitch_bend_c, 0, 12352
2, 18985, Note_on_c, 0, 60, 0
2, 18985, Pitch_bend_c, 0, 12448
2, 18986, Note_on_c, 0, 58, 89
2, 18986, Pitch_bend_c, 0, 8064
2, 18989, Pitch_bend_c, 0, 8096
2, 18990, Pitch_bend_c, 0, 8128
2, 18991, Pitch_bend_c, 0, 8160
2, 18993, Note_on_c, 0, 58, 0
2, 18993, Pitch_bend_c, 0, 8192
2, 18996, Note_on_c, 0, 56, 98
2, 18998, Pitch_bend_c, 0, 8224
2, 19000, Pitch_bend_c, 0, 8192
2, 19001, Pitch_bend_c, 0, 8256
2, 19005, Pitch_bend_c, 0, 8192
2, 19005, Note_on_c, 0, 53, 90
2, 19006, Note_on_c, 0, 56, 0
2, 19006, Pitch_bend_c, 0, 7936
2, 19012, Pitch_bend_c, 0, 7968
2, 19014, Pitch_bend_c, 0, 7936
2, 19017, Pitch_bend_c, 0, 7904
2, 19022, Pitch_bend_c, 0, 7936
2, 19024, Pitch_bend_c, 0, 7968
2, 19025, Pitch_bend_c, 0, 8064
2, 19026, Pitch_bend_c, 0, 8288
2, 19028, Pitch_bend_c, 0, 8672
2, 19029, Pitch_bend_c, 0, 9088
2, 19031, Pitch_bend_c, 0, 9408
2, 19033, Pitch_bend_c, 0, 9088
2, 19035, Pitch_bend_c, 0, 8640
2, 19036, Pitch_bend_c, 0, 8224
2, 19038, Pitch_bend_c, 0, 7936
2, 19039, Pitch_bend_c, 0, 7808
2, 19044, Note_on_c, 0, 53, 0
2, 19067, Pitch_bend_c, 0, 8192
2, 19068, Pitch_bend_c, 0, 8704
2, 19069, Pitch_bend_c, 0, 8192
2, 19070, Note_on_c, 0, 61, 120
2, 19070, Note_on_c, 0, 67, 116
2, 19070, Note_on_c, 0, 70, 127
2, 19192, Note_on_c, 0, 61, 0
2, 19194, Note_on_c, 0, 67, 0
2, 19194, Pitch_bend_c, 0, 8384
2, 19197, Pitch_bend_c, 0, 8352
2, 19198, Pitch_bend_c, 0, 8384
2, 19200, Pitch_bend_c, 0, 8192
2, 19201, Note_on_c, 0, 62, 68
2, 19203, Note_on_c, 0, 65, 85
2, 19204, Note_on_c, 0, 70, 0
2, 19205, Note_on_c, 0, 70, 39
2, 19260, Lyric_t, "If "
2, 19287, Lyric_t, "your "
2, 19300, Note_on_c, 0, 62, 0
2, 19300, Note_on_c, 0, 65, 0
2, 19300, Note_on_c, 0, 70, 0
2, 19307, Lyric_t, "moth"
2, 19325, Lyric_t, "er "
2, 19346, Lyric_t, "wan"
2, 19366, Lyric_t, "na "
2, 19386, Lyric_t, "vis"
2, 19404, Lyric_t, "it "
2, 19420, Lyric_t, "us, "
2, 19420, Lyric_t, "\015"
2, 19446, Note_on_c, 0, 65, 104
2, 19446, Pitch_bend_c, 0, 8000
2, 19450, Pitch_bend_c, 0, 7968
2, 19452, Pitch_bend_c, 0, 7936
2, 19456, Pitch_bend_c, 0, 7968
2, 19457, Pitch_bend_c, 0, 8000
2, 19459, Pitch_bend_c, 0, 8192
2, 19459, Note_on_c, 0, 70, 116
2, 19464, Note_on_c, 0, 65, 0
2, 19465, Pitch_bend_c, 0, 8160
2, 19467, Pitch_bend_c, 0, 8192
2, 19471, Pitch_bend_c, 0, 8160
2, 19472, Pitch_bend_c, 0, 8128
2, 19474, Pitch_bend_c, 0, 8096
2, 19475, Pitch_bend_c, 0, 8064
2, 19476, Note_on_c, 0, 70, 0
2, 19477, Note_on_c, 0, 70, 116
2, 19477, Pitch_bend_c, 0, 8096
2, 19479, Pitch_bend_c, 0, 8064
2, 19481, Pitch_bend_c, 0, 8096
2, 19483, Pitch_bend_c, 0, 8128
2, 19485, Pitch_bend_c, 0, 8160
2, 19486, Pitch_bend_c, 0, 8192
2, 19489, Note_on_c, 0, 70, 0
2, 19489, Pitch_bend_c, 0, 8224
2, 19490, Note_on_c, 0, 70, 115
2, 19490, Pitch_bend_c, 0, 8672
2, 19491, Pitch_bend_c, 0, 8640
2, 19492, Pitch_bend_c, 0, 8608
2, 19493, Pitch_bend_c, 0, 8640
2, 19495, Pitch_bend_c, 0, 8608
2, 19496, Pitch_bend_c, 0, 8576
2, 19498, Pitch_bend_c, 0, 8544
2, 19499, Pitch_bend_c, 0, 8448
2, 19500, Pitch_bend_c, 0, 8352
2, 19502, Pitch_bend_c, 0, 8224
2, 19503, Pitch_bend_c, 0, 8192
2, 19505, Pitch_bend_c, 0, 8160
2, 19507, Pitch_bend_c, 0, 8192
2, 19509, Pitch_bend_c, 0, 8256
2, 19510, Pitch_bend_c, 0, 8352
2, 19512, Pitch_bend_c, 0, 8512
2, 19513, Pitch_bend_c, 0, 8704
2, 19514, Pitch_bend_c, 0, 8864
2, 19516, Pitch_bend_c, 0, 8992
2, 19518, Pitch_bend_c, 0, 8960
2, 19520, Pitch_bend_c, 0, 8768
2, 19521, Pitch_bend_c, 0, 8512
2, 19523, Pitch_bend_c, 0, 8320
2, 19524, Pitch_bend_c, 0, 8192
2, 19526, Pitch_bend_c, 0, 8160
2, 19527, Pitch_bend_c, 0, 8192
2, 19529, Pitch_bend_c, 0, 8288
2, 19530, Pitch_bend_c, 0, 8544
2, 19533, Pitch_bend_c, 0, 8896
2, 19534, Pitch_bend_c, 0, 9152
2, 19535, Pitch_bend_c, 0, 9120
2, 19537, Pitch_bend_c, 0, 9184
2, 19538, Pitch_bend_c, 0, 8768
2, 19540, Pitch_bend_c, 0, 8416
2, 19541, Pitch_bend_c, 0, 8192
2, 19542, Pitch_bend_c, 0, 8064
2, 19544, Pitch_bend_c, 0, 8128
2, 19545, Pitch_bend_c, 0, 8416
2, 19547, Pitch_bend_c, 0, 8864
2, 19548, Note_on_c, 0, 70, 0
2, 19548, Pitch_bend_c, 0, 9376
2, 19630, Lyric_t, "tell "
2, 19644, Lyric_t, "her "
2, 19665, Lyric_t, "I "
2, 19683, Lyric_t, "get "
2, 19701, Lyric_t, "home "
2, 19718, Lyric_t, "a"
2, 19737, Lyric_t, "bout "
2, 19753, Lyric_t, "the "
2, 19771, Lyric_t, "break "
2, 19789, Lyric_t, "of "
2, 19805, Lyric_t, "day. "
2, 19805, Lyric_t, "\015"
2, 19805, Lyric_t, "\012"
2, 19838, Pitch_bend_c, 0, 8192
2, 19839, Note_on_c, 0, 65, 114
2, 19839, Pitch_bend_c, 0, 8000
2, 19840, Pitch_bend_c, 0, 8096
2, 19846, Pitch_bend_c, 0, 8064
2, 19849, Pitch_bend_c, 0, 8032
2, 19855, Pitch_bend_c, 0, 7872
2, 19857, Note_on_c, 0, 65, 0
2, 19857, Note_on_c, 0, 67, 99
2, 19857, Pitch_bend_c, 0, 12064
2, 19858, Pitch_bend_c, 0, 12160
2, 19862, Pitch_bend_c, 0, 12096
2, 19863, Pitch_bend_c, 0, 12032
2, 19865, Pitch_bend_c, 0, 12000
2, 19866, Pitch_bend_c, 0, 11968
2, 19867, Pitch_bend_c, 0, 11904
2, 19868, Note_on_c, 0, 67, 0
2, 19868, Pitch_bend_c, 0, 12096
2, 19869, Pitch_bend_c, 0, 8192
2, 19870, Note_on_c, 0, 70, 114
2, 19870, Pitch_bend_c, 0, 8576
2, 19873, Pitch_bend_c, 0, 8544
2, 19874, Pitch_bend_c, 0, 8480
2, 19876, Pitch_bend_c, 0, 8416
2, 19877, Pitch_bend_c, 0, 8320
2, 19878, Pitch_bend_c, 0, 8288
2, 19880, Pitch_bend_c, 0, 8256
2, 19883, Pitch_bend_c, 0, 8288
2, 19884, Pitch_bend_c, 0, 8256
2, 19887, Pitch_bend_c, 0, 8224
2, 19888, Pitch_bend_c, 0, 8192
2, 19890, Pitch_bend_c, 0, 8160
2, 19891, Pitch_bend_c, 0, 8128
2, 19892, Pitch_bend_c, 0, 8096
2, 19893, Pitch_bend_c, 0, 8064
2, 19898, Note_on_c, 0, 70, 0
2, 19898, Pitch_bend_c, 0, 12032
2, 19901, Pitch_bend_c, 0, 8192
2, 19903, Note_on_c, 0, 73, 116
2, 19903, Pitch_bend_c, 0, 8160
2, 19906, Pitch_bend_c, 0, 8128
2, 19907, Pitch_bend_c, 0, 8064
2, 19909, Pitch_bend_c, 0, 8000
2, 19910, Pitch_bend_c, 0, 7936
2, 19911, Pitch_bend_c, 0, 7840
2, 19914, Pitch_bend_c, 0, 7808
2, 19917, Pitch_bend_c, 0, 7840
2, 19918, Pitch_bend_c, 0, 7872
2, 19922, Pitch_bend_c, 0, 7936
2, 19924, Pitch_bend_c, 0, 7872
2, 19925, Pitch_bend_c, 0, 7840
2, 19927, Pitch_bend_c, 0, 7776
2, 19928, Pitch_bend_c, 0, 7680
2, 19929, Pitch_bend_c, 0, 7648
2, 19931, Pitch_bend_c, 0, 7680
2, 19932, Pitch_bend_c, 0, 7744
2, 19934, Pitch_bend_c, 0, 7808
2, 19935, Pitch_bend_c, 0, 7840
2, 19940, Pitch_bend_c, 0, 7872
2, 19941, Pitch_bend_c, 0, 8000
2, 19942, Pitch_bend_c, 0, 8192
2, 19944, Pitch_bend_c, 0, 8608
2, 19945, Pitch_bend_c, 0, 9312
2, 19946, Pitch_bend_c, 0, 12288
2, 19948, Pitch_bend_c, 0, 12480
2, 19949, Pitch_bend_c, 0, 12640
2, 19951, Pitch_bend_c, 0, 12768
2, 19952, Pitch_bend_c, 0, 12896
2, 19953, Pitch_bend_c, 0, 12864
2, 19954, Note_on_c, 0, 73, 0
2, 19999, Lyric_t, "And "
2, 20026, Lyric_t, "that's "
2, 20049, Lyric_t, "too "
2, 20069, Lyric_t, "late "
2, 20093, Lyric_t, "to "
2, 20120, Lyric_t, "vis"
2, 20138, Lyric_t, "it "
2, 20156, Lyric_t, "an"
2, 20170, Lyric_t, "y"
2, 20187, Lyric_t, "bod"
2, 20203, Lyric_t, "y, "
2, 20226, Lyric_t, "ba"
2, 20251, Pitch_bend_c, 0, 8192
2, 20253, Note_on_c, 0, 68, 102
2, 20253, Lyric_t, "by, "
2, 20253, Lyric_t, "\015"
2, 20254, Pitch_bend_c, 0, 8448
2, 20255, Pitch_bend_c, 0, 8192
2, 20255, Note_on_c, 0, 73, 107
2, 20273, Note_on_c, 0, 68, 0
2, 20274, Note_on_c, 0, 73, 0
2, 20274, Pitch_bend_c, 0, 7936
2, 20276, Pitch_bend_c, 0, 8192
2, 20277, Note_on_c, 0, 70, 114
2, 20277, Pitch_bend_c, 0, 8640
2, 20278, Pitch_bend_c, 0, 8448
2, 20280, Pitch_bend_c, 0, 8416
2, 20283, Pitch_bend_c, 0, 8384
2, 20284, Pitch_bend_c, 0, 8352
2, 20286, Note_on_c, 0, 70, 0
2, 20286, Pitch_bend_c, 0, 8480
2, 20287, Note_on_c, 0, 68, 112
2, 20287, Pitch_bend_c, 0, 8192
2, 20288, Pitch_bend_c, 0, 8160
2, 20289, Pitch_bend_c, 0, 8192
2, 20290, Pitch_bend_c, 0, 8128
2, 20293, Pitch_bend_c, 0, 8064
2, 20295, Pitch_bend_c, 0, 8000
2, 20296, Pitch_bend_c, 0, 8032
2, 20299, Pitch_bend_c, 0, 8064
2, 20300, Pitch_bend_c, 0, 8000
2, 20301, Pitch_bend_c, 0, 8128
2, 20303, Pitch_bend_c, 0, 8576
2, 20304, Pitch_bend_c, 0, 11968
2, 20306, Pitch_bend_c, 0, 12096
2, 20307, Pitch_bend_c, 0, 11968
2, 20309, Pitch_bend_c, 0, 9696
2, 20310, Pitch_bend_c, 0, 9376
2, 20311, Pitch_bend_c, 0, 8896
2, 20313, Pitch_bend_c, 0, 8480
2, 20314, Pitch_bend_c, 0, 8096
2, 20316, Pitch_bend_c, 0, 7968
2, 20318, Pitch_bend_c, 0, 8032
2, 20320, Pitch_bend_c, 0, 8480
2, 20321, Pitch_bend_c, 0, 11104
2, 20324, Pitch_bend_c, 0, 11072
2, 20325, Pitch_bend_c, 0, 10624
2, 20327, Note_on_c, 0, 68, 0
2, 20327, Pitch_bend_c, 0, 11104
2, 20396, Lyric_t, "so "
2, 20440, Lyric_t, "tell "
2, 20463, Lyric_t, "her "
2, 20486, Lyric_t, "to "
2, 20510, Lyric_t, "please "
2, 20610, Lyric_t, "stay "
2, 20629, Lyric_t, "a"
2, 20655, Lyric_t, "way. "
2, 20655, Lyric_t, "\015"
2, 20655, Lyric_t, "\012"
2, 20765, Lyric_t, "'Cause "
2, 20786, Lyric_t, "I "
2, 20813, Lyric_t, "don't "
2, 20838, Lyric_t, "want "
2, 20856, Lyric_t, "a "
2, 20878, Lyric_t, "soul, "
2, 20907, Lyric_t, "ba"
2, 20927, Lyric_t, "by, "
2, 20927, Lyric_t, "\015"
2, 20948, Pitch_bend_c, 0, 8192
2, 20949, Note_on_c, 0, 67, 122
2, 20949, Pitch_bend_c, 0, 8928
2, 20950, Pitch_bend_c, 0, 8896
2, 20951, Pitch_bend_c, 0, 8192
2, 20951, Note_on_c, 0, 70, 122
2, 20957, Note_on_c, 0, 70, 0
2, 20959, Pitch_bend_c, 0, 8672
2, 20960, Note_on_c, 0, 67, 0
2, 20960, Pitch_bend_c, 0, 8544
2, 20968, Note_on_c, 0, 70, 112
2, 20968, Pitch_bend_c, 0, 8192
2, 20969, Pitch_bend_c, 0, 8032
2, 20971, Pitch_bend_c, 0, 8000
2, 20972, Pitch_bend_c, 0, 7968
2, 20974, Pitch_bend_c, 0, 7904
2, 20975, Pitch_bend_c, 0, 7872
2, 20980, Pitch_bend_c, 0, 7936
2, 20981, Pitch_bend_c, 0, 7840
2, 20982, Note_on_c, 0, 70, 0
2, 20982, Pitch_bend_c, 0, 7968
2, 20986, Pitch_bend_c, 0, 8192
2, 20986, Note_on_c, 0, 73, 111
2, 20987, Pitch_bend_c, 0, 8224
2, 20988, Pitch_bend_c, 0, 8256
2, 20991, Pitch_bend_c, 0, 8224
2, 20995, Pitch_bend_c, 0, 8256
2, 20996, Pitch_bend_c, 0, 8288
2, 20999, Pitch_bend_c, 0, 8352
2, 21000, Pitch_bend_c, 0, 8384
2, 21002, Note_on_c, 0, 73, 0
2, 21007, Pitch_bend_c, 0, 8192
2, 21008, Note_on_c, 0, 75, 116
2, 21008, Pitch_bend_c, 0, 8352
2, 21013, Pitch_bend_c, 0, 8320
2, 21015, Pitch_bend_c, 0, 8224
2, 21016, Pitch_bend_c, 0, 8192
2, 21017, Pitch_bend_c, 0, 8160
2, 21019, Pitch_bend_c, 0, 8064
2, 21023, Pitch_bend_c, 0, 8128
2, 21025, Pitch_bend_c, 0, 8192
2, 21026, Pitch_bend_c, 0, 8256
2, 21028, Pitch_bend_c, 0, 8448
2, 21029, Pitch_bend_c, 0, 8960
2, 21030, Pitch_bend_c, 0, 11328
2, 21032, Pitch_bend_c, 0, 11584
2, 21033, Pitch_bend_c, 0, 12128
2, 21035, Pitch_bend_c, 0, 12768
2, 21036, Note_on_c, 0, 75, 0
2, 21036, Pitch_bend_c, 0, 13440
2, 21050, Pitch_bend_c, 0, 8192
2, 21051, Note_on_c, 0, 73, 112
2, 21051, Pitch_bend_c, 0, 8576
2, 21052, Pitch_bend_c, 0, 8512
2, 21055, Pitch_bend_c, 0, 8448
2, 21056, Pitch_bend_c, 0, 8384
2, 21057, Pitch_bend_c, 0, 8352
2, 21059, Pitch_bend_c, 0, 8288
2, 21060, Pitch_bend_c, 0, 8224
2, 21064, Pitch_bend_c, 0, 8192
2, 21066, Pitch_bend_c, 0, 8224
2, 21067, Pitch_bend_c, 0, 8192
2, 21069, Pitch_bend_c, 0, 8160
2, 21070, Pitch_bend_c, 0, 8224
2, 21072, Pitch_bend_c, 0, 8512
2, 21073, Pitch_bend_c, 0, 10880
2, 21074, Pitch_bend_c, 0, 11072
2, 21076, Pitch_bend_c, 0, 11328
2, 21077, Pitch_bend_c, 0, 11520
2, 21079, Pitch_bend_c, 0, 11616
2, 21080, Pitch_bend_c, 0, 11360
2, 21081, Pitch_bend_c, 0, 10752
2, 21082, Note_on_c, 0, 73, 0
2, 21082, Pitch_bend_c, 0, 11328
2, 21084, Pitch_bend_c, 0, 8192
2, 21097, Note_on_c, 0, 70, 107
2, 21097, Pitch_bend_c, 0, 8096
2, 21103, Pitch_bend_c, 0, 8032
2, 21104, Pitch_bend_c, 0, 7936
2, 21106, Pitch_bend_c, 0, 7872
2, 21107, Pitch_bend_c, 0, 7808
2, 21109, Pitch_bend_c, 0, 7776
2, 21110, Pitch_bend_c, 0, 7712
2, 21115, Pitch_bend_c, 0, 7744
2, 21119, Pitch_bend_c, 0, 7776
2, 21120, Pitch_bend_c, 0, 7744
2, 21126, Pitch_bend_c, 0, 7840
2, 21127, Pitch_bend_c, 0, 7968
2, 21129, Pitch_bend_c, 0, 8192
2, 21130, Pitch_bend_c, 0, 8608
2, 21131, Pitch_bend_c, 0, 8992
2, 21133, Pitch_bend_c, 0, 9408
2, 21134, Pitch_bend_c, 0, 9696
2, 21135, Pitch_bend_c, 0, 9856
2, 21137, Pitch_bend_c, 0, 9600
2, 21138, Pitch_bend_c, 0, 8992
2, 21139, Pitch_bend_c, 0, 8384
2, 21141, Pitch_bend_c, 0, 7904
2, 21142, Pitch_bend_c, 0, 7648
2, 21144, Pitch_bend_c, 0, 7712
2, 21145, Pitch_bend_c, 0, 7936
2, 21147, Pitch_bend_c, 0, 8352
2, 21148, Pitch_bend_c, 0, 10848
2, 21149, Pitch_bend_c, 0, 11008
2, 21151, Pitch_bend_c, 0, 11040
2, 21152, Pitch_bend_c, 0, 10848
2, 21154, Pitch_bend_c, 0, 8448
2, 21155, Pitch_bend_c, 0, 8288
2, 21156, Pitch_bend_c, 0, 8096
2, 21158, Pitch_bend_c, 0, 7904
2, 21160, Pitch_bend_c, 0, 7776
2, 21161, Pitch_bend_c, 0, 7904
2, 21162, Pitch_bend_c, 0, 8224
2, 21163, Pitch_bend_c, 0, 8768
2, 21165, Pitch_bend_c, 0, 9312
2, 21166, Pitch_bend_c, 0, 9728
2, 21168, Pitch_bend_c, 0, 9888
2, 21169, Pitch_bend_c, 0, 9792
2, 21170, Note_on_c, 0, 70, 0
2, 21250, Lyric_t, "hang"
2, 21282, Lyric_t, "in' "
2, 21301, Lyric_t, "a"
2, 21322, Lyric_t, "round "
2, 21340, Lyric_t, "my "
2, 21366, Lyric_t, "house "
2, 21443, Lyric_t, "when "
2, 21463, Lyric_t, "I'm "
2, 21479, Lyric_t, "not "
2, 21499, Lyric_t, "at "
2, 21523, Lyric_t, "home. "
2, 21523, Lyric_t, "\015"
2, 21523, Lyric_t, "\012"
2, 21565, Note_on_c, 0, 64, 116
2, 21565, Pitch_bend_c, 0, 8192
2, 21566, Pitch_bend_c, 0, 8096
2, 21567, Pitch_bend_c, 0, 8128
2, 21568, Pitch_bend_c, 0, 8096
2, 21571, Pitch_bend_c, 0, 8064
2, 21574, Pitch_bend_c, 0, 8032
2, 21575, Pitch_bend_c, 0, 8000
2, 21579, Pitch_bend_c, 0, 7968
2, 21582, Pitch_bend_c, 0, 7936
2, 21583, Pitch_bend_c, 0, 7904
2, 21590, Pitch_bend_c, 0, 7936
2, 21592, Pitch_bend_c, 0, 8192
2, 21593, Pitch_bend_c, 0, 11936
2, 21595, Pitch_bend_c, 0, 11968
2, 21597, Pitch_bend_c, 0, 12032
2, 21599, Pitch_bend_c, 0, 12064
2, 21601, Pitch_bend_c, 0, 12128
2, 21604, Pitch_bend_c, 0, 12160
2, 21606, Pitch_bend_c, 0, 12096
2, 21607, Note_on_c, 0, 73, 112
2, 21648, Note_on_c, 0, 64, 0
2, 21650, Note_on_c, 0, 73, 0
2, 21661, Note_on_c, 0, 62, 90
2, 21661, Pitch_bend_c, 0, 8384
2, 21662, Pitch_bend_c, 0, 8000
2, 21663, Pitch_bend_c, 0, 8064
2, 21665, Pitch_bend_c, 0, 8096
2, 21667, Pitch_bend_c, 0, 8128
2, 21672, Pitch_bend_c, 0, 8096
2, 21674, Pitch_bend_c, 0, 8064
2, 21676, Pitch_bend_c, 0, 8032
2, 21677, Pitch_bend_c, 0, 8000
2, 21678, Pitch_bend_c, 0, 8032
2, 21680, Pitch_bend_c, 0, 11904
2, 21681, Pitch_bend_c, 0, 11936
2, 21683, Pitch_bend_c, 0, 11968
2, 21684, Pitch_bend_c, 0, 12000
2, 21686, Pitch_bend_c, 0, 12064
2, 21688, Pitch_bend_c, 0, 12096
2, 21690, Pitch_bend_c, 0, 12128
2, 21691, Pitch_bend_c, 0, 12160
2, 21692, Pitch_bend_c, 0, 12192
2, 21697, Pitch_bend_c, 0, 12160
2, 21698, Note_on_c, 0, 71, 98
2, 21750, Note_on_c, 0, 62, 0
2, 21757, Note_on_c, 0, 71, 0
2, 21759, Note_on_c, 0, 65, 120
2, 21759, Pitch_bend_c, 0, 8384
2, 21760, Pitch_bend_c, 0, 8352
2, 21771, Pitch_bend_c, 0, 8384
2, 21772, Pitch_bend_c, 0, 8416
2, 21774, Note_on_c, 0, 65, 0
2, 21775, Pitch_bend_c, 0, 8192
2, 21776, Note_on_c, 0, 63, 97
2, 21776, Pitch_bend_c, 0, 8064
2, 21777, Pitch_bend_c, 0, 7744
2, 21782, Pitch_bend_c, 0, 7968
2, 21783, Pitch_bend_c, 0, 8160
2, 21789, Pitch_bend_c, 0, 8128
2, 21792, Note_on_c, 0, 63, 0
2, 21792, Pitch_bend_c, 0, 8192
2, 21795, Note_on_c, 0, 61, 61
2, 21796, Pitch_bend_c, 0, 8032
2, 21797, Pitch_bend_c, 0, 8064
2, 21800, Pitch_bend_c, 0, 8096
2, 21801, Pitch_bend_c, 0, 8128
2, 21803, Pitch_bend_c, 0, 8160
2, 21804, Pitch_bend_c, 0, 8192
2, 21805, Pitch_bend_c, 0, 8224
2, 21808, Pitch_bend_c, 0, 8192
2, 21809, Pitch_bend_c, 0, 8160
2, 21811, Pitch_bend_c, 0, 8224
2, 21812, Pitch_bend_c, 0, 8672
2, 21814, Pitch_bend_c, 0, 11680
2, 21815, Pitch_bend_c, 0, 11776
2, 21816, Pitch_bend_c, 0, 11840
2, 21818, Pitch_bend_c, 0, 11776
2, 21819, Pitch_bend_c, 0, 9568
2, 21821, Pitch_bend_c, 0, 9280
2, 21822, Pitch_bend_c, 0, 8992
2, 21824, Pitch_bend_c, 0, 8672
2, 21825, Pitch_bend_c, 0, 8320
2, 21826, Pitch_bend_c, 0, 8352
2, 21828, Pitch_bend_c, 0, 8288
2, 21831, Pitch_bend_c, 0, 8320
2, 21832, Pitch_bend_c, 0, 8288
2, 21834, Note_on_c, 0, 61, 0
2, 21834, Pitch_bend_c, 0, 8352
2, 21840, Pitch_bend_c, 0, 8192
2, 21841, Note_on_c, 0, 63, 84
2, 21841, Pitch_bend_c, 0, 8096
2, 21842, Pitch_bend_c, 0, 7904
2, 21844, Pitch_bend_c, 0, 12000
2, 21845, Pitch_bend_c, 0, 12032
2, 21846, Pitch_bend_c, 0, 15968
2, 21850, Pitch_bend_c, 0, 16032
2, 21852, Pitch_bend_c, 0, 16064
2, 21853, Pitch_bend_c, 0, 16128
2, 21855, Note_on_c, 0, 63, 0
2, 21855, Note_on_c, 0, 70, 114
2, 21855, Pitch_bend_c, 0, 8192
2, 21860, Pitch_bend_c, 0, 8160
2, 21862, Pitch_bend_c, 0, 8128
2, 21863, Pitch_bend_c, 0, 8096
2, 21871, Note_on_c, 0, 70, 0
2, 21873, Pitch_bend_c, 0, 8192
2, 21874, Note_on_c, 0, 70, 111
2, 21874, Pitch_bend_c, 0, 8096
2, 21875, Pitch_bend_c, 0, 8032
2, 21879, Pitch_bend_c, 0, 8064
2, 21881, Pitch_bend_c, 0, 8096
2, 21886, Note_on_c, 0, 70, 0
2, 21887, Pitch_bend_c, 0, 8192
2, 21888, Note_on_c, 0, 70, 115
2, 21888, Pitch_bend_c, 0, 8288
2, 21889, Pitch_bend_c, 0, 8192
2, 21891, Pitch_bend_c, 0, 8160
2, 21894, Pitch_bend_c, 0, 8064
2, 21895, Pitch_bend_c, 0, 8032
2, 21897, Pitch_bend_c, 0, 7968
2, 21898, Pitch_bend_c, 0, 7936
2, 21899, Pitch_bend_c, 0, 7968
2, 21901, Pitch_bend_c, 0, 8000
2, 21904, Pitch_bend_c, 0, 8032
2, 21910, Pitch_bend_c, 0, 8000
2, 21916, Pitch_bend_c, 0, 8064
2, 21917, Pitch_bend_c, 0, 8192
2, 21917, Note_on_c, 0, 73, 114
2, 21919, Note_on_c, 0, 70, 0
2, 21920, Pitch_bend_c, 0, 8736
2, 21922, Pitch_bend_c, 0, 8768
2, 21923, Pitch_bend_c, 0, 8832
2, 21925, Pitch_bend_c, 0, 8896
2, 21926, Pitch_bend_c, 0, 8992
2, 21928, Pitch_bend_c, 0, 9184
2, 21929, Pitch_bend_c, 0, 9376
2, 21930, Pitch_bend_c, 0, 9664
2, 21932, Pitch_bend_c, 0, 9952
2, 21933, Pitch_bend_c, 0, 10208
2, 21934, Pitch_bend_c, 0, 10368
2, 21936, Pitch_bend_c, 0, 10464
2, 21937, Pitch_bend_c, 0, 10528
2, 21940, Pitch_bend_c, 0, 10432
2, 21941, Pitch_bend_c, 0, 10304
2, 21942, Note_on_c, 0, 73, 0
2, 21979, Pitch_bend_c, 0, 8192
2, 21983, Note_on_c, 0, 75, 116
2, 21983, Pitch_bend_c, 0, 8064
2, 21984, Pitch_bend_c, 0, 7904
2, 21988, Pitch_bend_c, 0, 8000
2, 21989, Pitch_bend_c, 0, 8192
2, 21990, Pitch_bend_c, 0, 8736
2, 21992, Pitch_bend_c, 0, 11584
2, 21993, Pitch_bend_c, 0, 11968
2, 21994, Pitch_bend_c, 0, 12512
2, 21996, Pitch_bend_c, 0, 13152
2, 21997, Pitch_bend_c, 0, 13728
2, 21998, Pitch_bend_c, 0, 13952
2, 22000, Pitch_bend_c, 0, 13760
2, 22001, Pitch_bend_c, 0, 10816
2, 22003, Pitch_bend_c, 0, 10400
2, 22004, Pitch_bend_c, 0, 7872
2, 22005, Pitch_bend_c, 0, 7904
2, 22007, Pitch_bend_c, 0, 10816
2, 22008, Note_on_c, 0, 75, 0
2, 22009, Pitch_bend_c, 0, 8192
2, 22010, Note_on_c, 0, 73, 109
2, 22010, Pitch_bend_c, 0, 8256
2, 22012, Pitch_bend_c, 0, 8192
2, 22016, Note_on_c, 0, 73, 0
2, 22019, Note_on_c, 0, 70, 107
2, 22019, Pitch_bend_c, 0, 8384
2, 22022, Pitch_bend_c, 0, 8352
2, 22023, Pitch_bend_c, 0, 8320
2, 22024, Pitch_bend_c, 0, 8288
2, 22026, Pitch_bend_c, 0, 8224
2, 22027, Pitch_bend_c, 0, 8192
2, 22028, Pitch_bend_c, 0, 8128
2, 22035, Pitch_bend_c, 0, 8160
2, 22038, Pitch_bend_c, 0, 8192
2, 22041, Pitch_bend_c, 0, 8384
2, 22042, Pitch_bend_c, 0, 8864
2, 22044, Pitch_bend_c, 0, 9504
2, 22045, Pitch_bend_c, 0, 10208
2, 22046, Pitch_bend_c, 0, 10752
2, 22048, Pitch_bend_c, 0, 10944
2, 22049, Pitch_bend_c, 0, 10496
2, 22051, Pitch_bend_c, 0, 7904
2, 22052, Pitch_bend_c, 0, 7936
2, 22054, Pitch_bend_c, 0, 8000
2, 22055, Pitch_bend_c, 0, 8032
2, 22057, Pitch_bend_c, 0, 8064
2, 22058, Pitch_bend_c, 0, 8128
2, 22059, Pitch_bend_c, 0, 8512
2, 22061, Pitch_bend_c, 0, 11232
2, 22062, Pitch_bend_c, 0, 11296
2, 22065, Pitch_bend_c, 0, 11008
2, 22066, Pitch_bend_c, 0, 8640
2, 22068, Pitch_bend_c, 0, 8480
2, 22069, Pitch_bend_c, 0, 8288
2, 22070, Pitch_bend_c, 0, 8192
2, 22072, Pitch_bend_c, 0, 8064
2, 22073, Pitch_bend_c, 0, 8096
2, 22074, Pitch_bend_c, 0, 8256
2, 22076, Pitch_bend_c, 0, 8832
2, 22077, Pitch_bend_c, 0, 9504
2, 22079, Pitch_bend_c, 0, 10208
2, 22080, Pitch_bend_c, 0, 10656
2, 22082, Pitch_bend_c, 0, 10560
2, 22083, Pitch_bend_c, 0, 10144
2, 22084, Pitch_bend_c, 0, 9536
2, 22086, Pitch_bend_c, 0, 8864
2, 22087, Pitch_bend_c, 0, 8256
2, 22088, Pitch_bend_c, 0, 7936
2, 22089, Note_on_c, 0, 70, 0
2, 22089, Pitch_bend_c, 0, 10144
2, 22112, Lyric_t, "Yes, "
2, 22202, Lyric_t, "I "
2, 22233, Lyric_t, "don't "
2, 22263, Lyric_t, "want "
2, 22299, Lyric_t, "you "
2, 22315, Lyric_t, "to "
2, 22331, Lyric_t, "o"
2, 22360, Lyric_t, "pen "
2, 22374, Lyric_t, "the "
2, 22390, Lyric_t, "door "
2, 22390, Lyric_t, "\015"
2, 22427, Lyric_t, "for "
2, 22448, Lyric_t, "an"
2, 22462, Lyric_t, "y"
2, 22478, Lyric_t, "bod"
2, 22492, Lyric_t, "y, "
2, 22507, Lyric_t, "ba"
2, 22535, Lyric_t, "by, "
2, 22535, Lyric_t, "\015"
2, 22535, Lyric_t, "\012"
2, 22555, Pitch_bend_c, 0, 8192
2, 22556, Note_on_c, 0, 67, 127
2, 22556, Pitch_bend_c, 0, 8992
2, 22557, Pitch_bend_c, 0, 8192
2, 22557, Note_on_c, 0, 70, 127
2, 22562, Note_on_c, 0, 67, 0
2, 22562, Pitch_bend_c, 0, 8992
2, 22563, Pitch_bend_c, 0, 8960
2, 22564, Pitch_bend_c, 0, 8928
2, 22567, Pitch_bend_c, 0, 8896
2, 22570, Pitch_bend_c, 0, 8832
2, 22571, Pitch_bend_c, 0, 8928
2, 22572, Note_on_c, 0, 70, 0
2, 22573, Pitch_bend_c, 0, 8864
2, 22574, Pitch_bend_c, 0, 8768
2, 22576, Pitch_bend_c, 0, 8736
2, 22577, Pitch_bend_c, 0, 8192
2, 22578, Note_on_c, 0, 70, 112
2, 22578, Pitch_bend_c, 0, 8064
2, 22582, Pitch_bend_c, 0, 8032
2, 22583, Pitch_bend_c, 0, 8000
2, 22584, Pitch_bend_c, 0, 7904
2, 22587, Pitch_bend_c, 0, 7936
2, 22588, Note_on_c, 0, 70, 0
2, 22588, Pitch_bend_c, 0, 8064
2, 22589, Pitch_bend_c, 0, 8192
2, 22590, Note_on_c, 0, 73, 114
2, 22590, Pitch_bend_c, 0, 8864
2, 22591, Pitch_bend_c, 0, 8608
2, 22594, Pitch_bend_c, 0, 8416
2, 22595, Pitch_bend_c, 0, 8384
2, 22598, Pitch_bend_c, 0, 8288
2, 22602, Pitch_bend_c, 0, 8256
2, 22604, Pitch_bend_c, 0, 8224
2, 22606, Pitch_bend_c, 0, 8192
2, 22609, Pitch_bend_c, 0, 8160
2, 22611, Note_on_c, 0, 73, 0
2, 22611, Pitch_bend_c, 0, 8256
2, 22620, Pitch_bend_c, 0, 8192
2, 22621, Note_on_c, 0, 75, 116
2, 22621, Pitch_bend_c, 0, 8544
2, 22622, Pitch_bend_c, 0, 8480
2, 22623, Pitch_bend_c, 0, 8448
2, 22625, Pitch_bend_c, 0, 8416
2, 22626, Pitch_bend_c, 0, 8352
2, 22630, Pitch_bend_c, 0, 8256
2, 22631, Pitch_bend_c, 0, 8192
2, 22633, Pitch_bend_c, 0, 8256
2, 22634, Pitch_bend_c, 0, 8672
2, 22636, Pitch_bend_c, 0, 11264
2, 22637, Pitch_bend_c, 0, 11488
2, 22638, Pitch_bend_c, 0, 11808
2, 22640, Pitch_bend_c, 0, 12192
2, 22641, Pitch_bend_c, 0, 12576
2, 22643, Note_on_c, 0, 75, 0
2, 22643, Pitch_bend_c, 0, 12704
2, 22657, Pitch_bend_c, 0, 8192
2, 22658, Note_on_c, 0, 70, 112
2, 22658, Pitch_bend_c, 0, 8416
2, 22661, Pitch_bend_c, 0, 8448
2, 22662, Pitch_bend_c, 0, 8416
2, 22663, Pitch_bend_c, 0, 8384
2, 22666, Pitch_bend_c, 0, 8352
2, 22668, Pitch_bend_c, 0, 8288
2, 22669, Pitch_bend_c, 0, 8224
2, 22670, Pitch_bend_c, 0, 8160
2, 22672, Pitch_bend_c, 0, 8128
2, 22673, Pitch_bend_c, 0, 8096
2, 22674, Pitch_bend_c, 0, 8064
2, 22676, Pitch_bend_c, 0, 8032
2, 22679, Pitch_bend_c, 0, 8000
2, 22681, Pitch_bend_c, 0, 7968
2, 22683, Pitch_bend_c, 0, 7936
2, 22684, Pitch_bend_c, 0, 7904
2, 22685, Pitch_bend_c, 0, 7840
2, 22690, Pitch_bend_c, 0, 7872
2, 22691, Pitch_bend_c, 0, 7904
2, 22693, Pitch_bend_c, 0, 8032
2, 22694, Pitch_bend_c, 0, 8288
2, 22696, Pitch_bend_c, 0, 8896
2, 22697, Pitch_bend_c, 0, 11232
2, 22698, Pitch_bend_c, 0, 11392
2, 22700, Pitch_bend_c, 0, 11584
2, 22701, Pitch_bend_c, 0, 11712
2, 22703, Pitch_bend_c, 0, 11776
2, 22704, Pitch_bend_c, 0, 9312
2, 22705, Pitch_bend_c, 0, 8896
2, 22707, Pitch_bend_c, 0, 8512
2, 22708, Pitch_bend_c, 0, 8192
2, 22709, Pitch_bend_c, 0, 7840
2, 22711, Pitch_bend_c, 0, 7904
2, 22712, Pitch_bend_c, 0, 8032
2, 22714, Pitch_bend_c, 0, 10304
2, 22715, Pitch_bend_c, 0, 10688
2, 22716, Pitch_bend_c, 0, 11136
2, 22718, Pitch_bend_c, 0, 11520
2, 22719, Pitch_bend_c, 0, 11712
2, 22721, Pitch_bend_c, 0, 9472
2, 22722, Pitch_bend_c, 0, 9088
2, 22723, Pitch_bend_c, 0, 8608
2, 22725, Pitch_bend_c, 0, 8224
2, 22726, Pitch_bend_c, 0, 7808
2, 22727, Pitch_bend_c, 0, 7744
2, 22729, Pitch_bend_c, 0, 7904
2, 22730, Pitch_bend_c, 0, 8192
2, 22731, Pitch_bend_c, 0, 8576
2, 22733, Pitch_bend_c, 0, 8960
2, 22736, Note_on_c, 0, 70, 0
2, 22736, Pitch_bend_c, 0, 8704
2, 22748, Lyric_t, "oh, "
2, 22823, Lyric_t, "when "
2, 22857, Lyric_t, "you're "
2, 22884, Lyric_t, "home "
2, 22884, Lyric_t, "\015"
2, 22983, Lyric_t, "and "
2, 23012, Lyric_t, "you "
2, 23031, Lyric_t, "know "
2, 23048, Lyric_t, "you're "
2, 23069, Lyric_t, "all "
2, 23096, Lyric_t, "a"
2, 23111, Lyric_t, "lone. "
2, 23111, Lyric_t, "\015"
2, 23111, Lyric_t, "\012"
2, 23146, Pitch_bend_c, 0, 8192
2, 23149, Note_on_c, 0, 64, 120
2, 23149, Pitch_bend_c, 0, 8352
2, 23150, Pitch_bend_c, 0, 8384
2, 23152, Pitch_bend_c, 0, 8320
2, 23153, Pitch_bend_c, 0, 8288
2, 23154, Pitch_bend_c, 0, 8224
2, 23156, Pitch_bend_c, 0, 8192
2, 23157, Pitch_bend_c, 0, 8096
2, 23159, Pitch_bend_c, 0, 8032
2, 23160, Pitch_bend_c, 0, 7936
2, 23161, Pitch_bend_c, 0, 8128
2, 23163, Pitch_bend_c, 0, 11904
2, 23164, Pitch_bend_c, 0, 11936
2, 23166, Pitch_bend_c, 0, 11968
2, 23168, Pitch_bend_c, 0, 12064
2, 23169, Pitch_bend_c, 0, 12160
2, 23171, Pitch_bend_c, 0, 12224
2, 23172, Pitch_bend_c, 0, 12320
2, 23174, Pitch_bend_c, 0, 12288
2, 23175, Pitch_bend_c, 0, 8864
2, 23176, Pitch_bend_c, 0, 12160
2, 23177, Note_on_c, 0, 64, 0
2, 23177, Pitch_bend_c, 0, 8192
2, 23178, Note_on_c, 0, 65, 116
2, 23182, Pitch_bend_c, 0, 8224
2, 23184, Pitch_bend_c, 0, 8256
2, 23185, Pitch_bend_c, 0, 8288
2, 23188, Pitch_bend_c, 0, 8384
2, 23191, Pitch_bend_c, 0, 8192
2, 23191, Note_on_c, 0, 70, 117
2, 23212, Note_on_c, 0, 65, 0
2, 23213, Note_on_c, 0, 70, 0
2, 23214, Pitch_bend_c, 0, 8224
2, 23217, Pitch_bend_c, 0, 8192
2, 23218, Note_on_c, 0, 68, 116
2, 23218, Pitch_bend_c, 0, 8352
2, 23219, Pitch_bend_c, 0, 8448
2, 23220, Pitch_bend_c, 0, 8512
2, 23221, Pitch_bend_c, 0, 8704
2, 23223, Pitch_bend_c, 0, 8864
2, 23224, Pitch_bend_c, 0, 8832
2, 23226, Note_on_c, 0, 68, 0
2, 23226, Note_on_c, 0, 64, 110
2, 23226, Pitch_bend_c, 0, 12160
2, 23227, Pitch_bend_c, 0, 12192
2, 23229, Pitch_bend_c, 0, 12096
2, 23230, Pitch_bend_c, 0, 12160
2, 23231, Pitch_bend_c, 0, 12224
2, 23233, Pitch_bend_c, 0, 12288
2, 23235, Pitch_bend_c, 0, 12352
2, 23236, Note_on_c, 0, 64, 0
2, 23238, Note_on_c, 0, 63, 112
2, 23238, Pitch_bend_c, 0, 8000
2, 23239, Pitch_bend_c, 0, 8128
2, 23240, Pitch_bend_c, 0, 8192
2, 23241, Pitch_bend_c, 0, 8160
2, 23243, Pitch_bend_c, 0, 8128
2, 23244, Pitch_bend_c, 0, 8064
2, 23246, Pitch_bend_c, 0, 8032
2, 23247, Pitch_bend_c, 0, 8000
2, 23250, Pitch_bend_c, 0, 7968
2, 23251, Pitch_bend_c, 0, 7936
2, 23258, Pitch_bend_c, 0, 7968
2, 23260, Pitch_bend_c, 0, 7936
2, 23261, Note_on_c, 0, 63, 0
2, 23262, Note_on_c, 0, 63, 118
2, 23262, Pitch_bend_c, 0, 8064
2, 23264, Pitch_bend_c, 0, 8320
2, 23266, Pitch_bend_c, 0, 8256
2, 23267, Pitch_bend_c, 0, 8192
2, 23269, Pitch_bend_c, 0, 8160
2, 23271, Pitch_bend_c, 0, 8192
2, 23273, Note_on_c, 0, 63, 0
2, 23273, Note_on_c, 0, 60, 91
2, 23273, Pitch_bend_c, 0, 12096
2, 23276, Pitch_bend_c, 0, 12128
2, 23277, Pitch_bend_c, 0, 12096
2, 23280, Note_on_c, 0, 60, 0
2, 23282, Note_on_c, 0, 58, 99
2, 23282, Pitch_bend_c, 0, 8160
2, 23285, Pitch_bend_c, 0, 8192
2, 23297, Pitch_bend_c, 0, 7968
2, 23298, Note_on_c, 0, 58, 0
2, 23298, Pitch_bend_c, 0, 8192
2, 23312, Note_on_c, 0, 58, 96
2, 23312, Pitch_bend_c, 0, 8128
2, 23313, Pitch_bend_c, 0, 8160
2, 23314, Pitch_bend_c, 0, 8192
2, 23319, Pitch_bend_c, 0, 8032
2, 23320, Pitch_bend_c, 0, 7840
2, 23321, Pitch_bend_c, 0, 8160
2, 23332, Note_on_c, 0, 58, 0
2, 23335, Note_on_c, 0, 58, 84
2, 23336, Pitch_bend_c, 0, 8192
2, 23344, Pitch_bend_c, 0, 8064
2, 23345, Pitch_bend_c, 0, 7904
2, 23346, Note_on_c, 0, 58, 0
2, 23346, Pitch_bend_c, 0, 8192
2, 23348, Note_on_c, 0, 61, 120
2, 23349, Pitch_bend_c, 0, 7872
2, 23351, Pitch_bend_c, 0, 7936
2, 23352, Pitch_bend_c, 0, 7968
2, 23353, Pitch_bend_c, 0, 8000
2, 23355, Pitch_bend_c, 0, 8064
2, 23356, Pitch_bend_c, 0, 8128
2, 23363, Pitch_bend_c, 0, 8064
2, 23364, Pitch_bend_c, 0, 15584
2, 23367, Note_on_c, 0, 61, 0
2, 23367, Note_on_c, 0, 63, 120
2, 23367, Pitch_bend_c, 0, 8096
2, 23369, Pitch_bend_c, 0, 8224
2, 23370, Pitch_bend_c, 0, 8192
2, 23374, Pitch_bend_c, 0, 8224
2, 23375, Pitch_bend_c, 0, 8192
2, 23378, Pitch_bend_c, 0, 8160
2, 23379, Pitch_bend_c, 0, 7872
2, 23381, Pitch_bend_c, 0, 7552
2, 23382, Note_on_c, 0, 63, 0
2, 23382, Pitch_bend_c, 0, 8192
2, 23388, Note_on_c, 0, 61, 122
2, 23389, Pitch_bend_c, 0, 8288
2, 23392, Pitch_bend_c, 0, 8352
2, 23393, Pitch_bend_c, 0, 8320
2, 23395, Pitch_bend_c, 0, 8288
2, 23396, Pitch_bend_c, 0, 8256
2, 23398, Pitch_bend_c, 0, 8192
2, 23399, Pitch_bend_c, 0, 8160
2, 23400, Pitch_bend_c, 0, 8096
2, 23402, Pitch_bend_c, 0, 7936
2, 23403, Pitch_bend_c, 0, 7872
2, 23406, Pitch_bend_c, 0, 8064
2, 23407, Pitch_bend_c, 0, 8448
2, 23408, Pitch_bend_c, 0, 8992
2, 23410, Pitch_bend_c, 0, 9600
2, 23412, Pitch_bend_c, 0, 10240
2, 23413, Pitch_bend_c, 0, 10784
2, 23415, Pitch_bend_c, 0, 11136
2, 23416, Pitch_bend_c, 0, 11200
2, 23417, Pitch_bend_c, 0, 10944
2, 23418, Pitch_bend_c, 0, 10400
2, 23420, Pitch_bend_c, 0, 9824
2, 23421, Note_on_c, 0, 61, 0
2, 23421, Pitch_bend_c, 0, 11136
2, 23423, Note_on_c, 0, 58, 114
2, 23423, Pitch_bend_c, 0, 8224
2, 23424, Pitch_bend_c, 0, 8256
2, 23427, Pitch_bend_c, 0, 8288
2, 23428, Pitch_bend_c, 0, 8352
2, 23430, Pitch_bend_c, 0, 8320
2, 23433, Note_on_c, 0, 58, 0
2, 23433, Pitch_bend_c, 0, 8192
2, 23434, Note_on_c, 0, 56, 107
2, 23435, Pitch_bend_c, 0, 8224
2, 23436, Pitch_bend_c, 0, 8192
2, 23441, Note_on_c, 0, 56, 0
2, 23442, Note_on_c, 0, 53, 94
2, 23442, Pitch_bend_c, 0, 7936
2, 23443, Pitch_bend_c, 0, 7968
2, 23444, Pitch_bend_c, 0, 8000
2, 23451, Pitch_bend_c, 0, 8032
2, 23456, Pitch_bend_c, 0, 8000
2, 23461, Pitch_bend_c, 0, 7968
2, 23463, Pitch_bend_c, 0, 8000
2, 23482, Pitch_bend_c, 0, 7968
2, 23483, Pitch_bend_c, 0, 7936
2, 23485, Pitch_bend_c, 0, 7904
2, 23488, Pitch_bend_c, 0, 7872
2, 23489, Pitch_bend_c, 0, 7936
2, 23490, Note_on_c, 0, 53, 0
2, 23519, Pitch_bend_c, 0, 8192
2, 23520, Pitch_bend_c, 0, 4320
2, 23522, Pitch_bend_c, 0, 4704
2, 23523, Pitch_bend_c, 0, 8192
2, 23523, Note_on_c, 0, 68, 105
2, 23523, Note_on_c, 0, 70, 119
2, 23533, Note_on_c, 0, 68, 0
2, 23536, Note_on_c, 0, 65, 105
2, 23548, Note_on_c, 0, 63, 111
2, 23549, Note_on_c, 0, 70, 0
2, 23550, Note_on_c, 0, 65, 0
2, 23550, Pitch_bend_c, 0, 8064
2, 23554, Pitch_bend_c, 0, 8032
2, 23560, Pitch_bend_c, 0, 8000
2, 23561, Note_on_c, 0, 63, 0
2, 23563, Pitch_bend_c, 0, 8192
2, 23564, Note_on_c, 0, 61, 107
2, 23564, Pitch_bend_c, 0, 8032
2, 23566, Pitch_bend_c, 0, 8064
2, 23578, Pitch_bend_c, 0, 8032
2, 23583, Pitch_bend_c, 0, 8000
2, 23591, Pitch_bend_c, 0, 7968
2, 23593, Pitch_bend_c, 0, 8000
2, 23594, Pitch_bend_c, 0, 8192
2, 23595, Note_on_c, 0, 61, 0
2, 23597, Note_on_c, 0, 58, 109
2, 23603, Pitch_bend_c, 0, 8096
2, 23605, Pitch_bend_c, 0, 8192
2, 23606, Note_on_c, 0, 58, 0
2, 23607, Note_on_c, 0, 56, 97
2, 23607, Pitch_bend_c, 0, 8128
2, 23612, Pitch_bend_c, 0, 8096
2, 23613, Pitch_bend_c, 0, 8128
2, 23617, Pitch_bend_c, 0, 8192
2, 23617, Note_on_c, 0, 53, 94
2, 23618, Note_on_c, 0, 56, 0
2, 23618, Pitch_bend_c, 0, 7840
2, 23622, Pitch_bend_c, 0, 7872
2, 23623, Pitch_bend_c, 0, 7904
2, 23635, Pitch_bend_c, 0, 7872
2, 23651, Pitch_bend_c, 0, 7840
2, 23654, Pitch_bend_c, 0, 7808
2, 23656, Pitch_bend_c, 0, 7744
2, 23657, Note_on_c, 0, 53, 0
2, 23657, Pitch_bend_c, 0, 7680
2, 23680, Note_on_c, 0, 61, 114
2, 23682, Pitch_bend_c, 0, 8192
2, 23683, Note_on_c, 0, 67, 119
2, 23685, Note_on_c, 0, 70, 122
2, 23800, Note_on_c, 0, 61, 0
2, 23801, Note_on_c, 0, 67, 0
2, 23804, Pitch_bend_c, 0, 8288
2, 23806, Pitch_bend_c, 0, 8352
2, 23807, Pitch_bend_c, 0, 8192
2, 23807, Note_on_c, 0, 62, 80
2, 23809, Note_on_c, 0, 65, 81
2, 23810, Note_on_c, 0, 70, 0
2, 23811, Note_on_c, 0, 70, 34
2, 23864, Lyric_t, "Now, "
2, 23879, Lyric_t, "if "
2, 23896, Lyric_t, "you "
2, 23909, Lyric_t, "feel "
2, 23928, Lyric_t, "a "
2, 23929, Note_on_c, 0, 70, 0
2, 23931, Note_on_c, 0, 62, 0
2, 23931, Note_on_c, 0, 65, 0
2, 23944, Lyric_t, "lit"
2, 23959, Lyric_t, "tle "
2, 23984, Lyric_t, "sick, "
2, 24014, Lyric_t, "ba"
2, 24028, Note_on_c, 0, 64, 89
2, 24028, Pitch_bend_c, 0, 8064
2, 24032, Pitch_bend_c, 0, 8000
2, 24033, Pitch_bend_c, 0, 7968
2, 24035, Pitch_bend_c, 0, 11200
2, 24036, Pitch_bend_c, 0, 11392
2, 24038, Pitch_bend_c, 0, 11584
2, 24038, Lyric_t, "by, "
2, 24038, Lyric_t, "\015"
2, 24039, Pitch_bend_c, 0, 11776
2, 24040, Pitch_bend_c, 0, 12000
2, 24042, Pitch_bend_c, 0, 12064
2, 24044, Pitch_bend_c, 0, 12096
2, 24045, Pitch_bend_c, 0, 12128
2, 24046, Pitch_bend_c, 0, 12160
2, 24052, Pitch_bend_c, 0, 12192
2, 24053, Pitch_bend_c, 0, 12160
2, 24056, Pitch_bend_c, 0, 12096
2, 24057, Pitch_bend_c, 0, 12160
2, 24058, Note_on_c, 0, 64, 0
2, 24058, Pitch_bend_c, 0, 8192
2, 24058, Note_on_c, 0, 74, 111
2, 24077, Pitch_bend_c, 0, 8288
2, 24081, Pitch_bend_c, 0, 8256
2, 24085, Pitch_bend_c, 0, 8192
2, 24088, Pitch_bend_c, 0, 8320
2, 24089, Pitch_bend_c, 0, 8512
2, 24091, Pitch_bend_c, 0, 8832
2, 24092, Pitch_bend_c, 0, 9088
2, 24094, Pitch_bend_c, 0, 9024
2, 24095, Pitch_bend_c, 0, 9152
2, 24097, Pitch_bend_c, 0, 9184
2, 24099, Pitch_bend_c, 0, 9312
2, 24101, Pitch_bend_c, 0, 9024
2, 24102, Pitch_bend_c, 0, 8704
2, 24104, Pitch_bend_c, 0, 8448
2, 24105, Pitch_bend_c, 0, 8320
2, 24108, Pitch_bend_c, 0, 8416
2, 24109, Pitch_bend_c, 0, 8640
2, 24111, Pitch_bend_c, 0, 8960
2, 24112, Pitch_bend_c, 0, 9344
2, 24114, Pitch_bend_c, 0, 9664
2, 24115, Pitch_bend_c, 0, 9920
2, 24116, Pitch_bend_c, 0, 9984
2, 24119, Pitch_bend_c, 0, 9952
2, 24121, Pitch_bend_c, 0, 9600
2, 24122, Pitch_bend_c, 0, 9184
2, 24123, Pitch_bend_c, 0, 8768
2, 24125, Pitch_bend_c, 0, 8384
2, 24126, Pitch_bend_c, 0, 8256
2, 24130, Pitch_bend_c, 0, 8288
2, 24132, Pitch_bend_c, 0, 8384
2, 24133, Pitch_bend_c, 0, 8512
2, 24135, Pitch_bend_c, 0, 8640
2, 24136, Pitch_bend_c, 0, 8704
2, 24137, Pitch_bend_c, 0, 8768
2, 24139, Pitch_bend_c, 0, 8704
2, 24140, Note_on_c, 0, 74, 0
2, 24140, Pitch_bend_c, 0, 8640
2, 24240, Lyric_t, "and "
2, 24260, Lyric_t, "you "
2, 24279, Lyric_t, "know "
2, 24300, Lyric_t, "you're "
2, 24316, Lyric_t, "home "
2, 24343, Lyric_t, "all "
2, 24361, Lyric_t, "a"
2, 24381, Lyric_t, "lone, "
2, 24381, Lyric_t, "\015"
2, 24381, Lyric_t, "\012"
2, 24399, Pitch_bend_c, 0, 8192
2, 24400, Note_on_c, 0, 67, 119
2, 24400, Pitch_bend_c, 0, 9056
2, 24401, Pitch_bend_c, 0, 9024
2, 24402, Pitch_bend_c, 0, 8192
2, 24403, Note_on_c, 0, 70, 117
2, 24407, Pitch_bend_c, 0, 8960
2, 24408, Pitch_bend_c, 0, 8896
2, 24410, Note_on_c, 0, 70, 0
2, 24410, Pitch_bend_c, 0, 8800
2, 24411, Pitch_bend_c, 0, 8544
2, 24413, Note_on_c, 0, 67, 0
2, 24413, Pitch_bend_c, 0, 8288
2, 24418, Pitch_bend_c, 0, 8192
2, 24419, Note_on_c, 0, 70, 108
2, 24423, Pitch_bend_c, 0, 8224
2, 24426, Pitch_bend_c, 0, 8192
2, 24427, Pitch_bend_c, 0, 8064
2, 24429, Pitch_bend_c, 0, 7968
2, 24430, Pitch_bend_c, 0, 7904
2, 24431, Pitch_bend_c, 0, 8096
2, 24432, Note_on_c, 0, 70, 0
2, 24432, Pitch_bend_c, 0, 8192
2, 24436, Note_on_c, 0, 73, 113
2, 24437, Pitch_bend_c, 0, 9504
2, 24438, Pitch_bend_c, 0, 9376
2, 24439, Pitch_bend_c, 0, 9024
2, 24440, Pitch_bend_c, 0, 8864
2, 24442, Pitch_bend_c, 0, 8608
2, 24443, Pitch_bend_c, 0, 8448
2, 24444, Pitch_bend_c, 0, 8384
2, 24446, Pitch_bend_c, 0, 8288
2, 24447, Pitch_bend_c, 0, 8256
2, 24449, Pitch_bend_c, 0, 8224
2, 24450, Note_on_c, 0, 73, 0
2, 24450, Pitch_bend_c, 0, 8384
2, 24455, Pitch_bend_c, 0, 8192
2, 24456, Note_on_c, 0, 75, 109
2, 24456, Pitch_bend_c, 0, 8160
2, 24457, Pitch_bend_c, 0, 8128
2, 24460, Pitch_bend_c, 0, 8064
2, 24462, Pitch_bend_c, 0, 8000
2, 24463, Pitch_bend_c, 0, 7904
2, 24465, Pitch_bend_c, 0, 7936
2, 24466, Pitch_bend_c, 0, 7520
2, 24467, Note_on_c, 0, 75, 0
2, 24467, Pitch_bend_c, 0, 8064
2, 24475, Pitch_bend_c, 0, 8192
2, 24476, Note_on_c, 0, 73, 111
2, 24476, Pitch_bend_c, 0, 8416
2, 24477, Pitch_bend_c, 0, 8384
2, 24479, Pitch_bend_c, 0, 8352
2, 24482, Pitch_bend_c, 0, 8288
2, 24484, Pitch_bend_c, 0, 8256
2, 24487, Pitch_bend_c, 0, 8288
2, 24488, Pitch_bend_c, 0, 8352
2, 24490, Pitch_bend_c, 0, 8448
2, 24491, Pitch_bend_c, 0, 8704
2, 24493, Pitch_bend_c, 0, 9024
2, 24494, Pitch_bend_c, 0, 9472
2, 24495, Pitch_bend_c, 0, 10048
2, 24497, Pitch_bend_c, 0, 10560
2, 24498, Pitch_bend_c, 0, 11040
2, 24500, Pitch_bend_c, 0, 11328
2, 24501, Pitch_bend_c, 0, 11456
2, 24503, Pitch_bend_c, 0, 11136
2, 24504, Pitch_bend_c, 0, 8512
2, 24506, Note_on_c, 0, 73, 0
2, 24506, Pitch_bend_c, 0, 11040
2, 24515, Pitch_bend_c, 0, 8192
2, 24516, Note_on_c, 0, 70, 85
2, 24517, Pitch_bend_c, 0, 8160
2, 24520, Pitch_bend_c, 0, 8128
2, 24522, Pitch_bend_c, 0, 8096
2, 24523, Pitch_bend_c, 0, 8064
2, 24524, Pitch_bend_c, 0, 7808
2, 24525, Note_on_c, 0, 70, 0
2, 24525, Pitch_bend_c, 0, 8160
2, 24526, Note_on_c, 0, 68, 71
2, 24526, Pitch_bend_c, 0, 8064
2, 24527, Pitch_bend_c, 0, 8096
2, 24529, Pitch_bend_c, 0, 8128
2, 24531, Pitch_bend_c, 0, 8160
2, 24532, Pitch_bend_c, 0, 8192
2, 24537, Pitch_bend_c, 0, 8128
2, 24538, Pitch_bend_c, 0, 8032
2, 24539, Pitch_bend_c, 0, 8064
2, 24541, Pitch_bend_c, 0, 8384
2, 24543, Pitch_bend_c, 0, 8992
2, 24544, Pitch_bend_c, 0, 9728
2, 24545, Pitch_bend_c, 0, 10368
2, 24547, Pitch_bend_c, 0, 10528
2, 24548, Pitch_bend_c, 0, 10144
2, 24550, Pitch_bend_c, 0, 7936
2, 24551, Pitch_bend_c, 0, 7904
2, 24554, Pitch_bend_c, 0, 7872
2, 24556, Pitch_bend_c, 0, 7840
2, 24557, Pitch_bend_c, 0, 7936
2, 24558, Pitch_bend_c, 0, 8192
2, 24559, Pitch_bend_c, 0, 8864
2, 24561, Pitch_bend_c, 0, 9632
2, 24562, Pitch_bend_c, 0, 10336
2, 24564, Note_on_c, 0, 68, 0
2, 24564, Pitch_bend_c, 0, 10720
2, 24592, Lyric_t, "I "
2, 24609, Lyric_t, "don't "
2, 24627, Lyric_t, "want "
2, 24645, Lyric_t, "the "
2, 24661, Lyric_t, "doc"
2, 24682, Lyric_t, "tor "
2, 24704, Lyric_t, "at "
2, 24719, Lyric_t, "my "
2, 24740, Lyric_t, "house, "
2, 24764, Lyric_t, "ba"
2, 24787, Lyric_t, "by; "
2, 24787, Lyric_t, "\015"
2, 24797, Pitch_bend_c, 0, 8192
2, 24800, Note_on_c, 0, 75, 123
2, 24800, Pitch_bend_c, 0, 7776
2, 24803, Pitch_bend_c, 0, 8000
2, 24804, Pitch_bend_c, 0, 8448
2, 24806, Pitch_bend_c, 0, 11264
2, 24807, Pitch_bend_c, 0, 11584
2, 24809, Pitch_bend_c, 0, 12128
2, 24810, Pitch_bend_c, 0, 12864
2, 24812, Pitch_bend_c, 0, 13728
2, 24813, Pitch_bend_c, 0, 14304
2, 24814, Pitch_bend_c, 0, 14688
2, 24816, Pitch_bend_c, 0, 14912
2, 24817, Pitch_bend_c, 0, 15072
2, 24818, Pitch_bend_c, 0, 15168
2, 24824, Pitch_bend_c, 0, 15104
2, 24825, Pitch_bend_c, 0, 15008
2, 24827, Pitch_bend_c, 0, 14912
2, 24828, Pitch_bend_c, 0, 14720
2, 24830, Pitch_bend_c, 0, 14528
2, 24831, Note_on_c, 0, 75, 0
2, 24831, Pitch_bend_c, 0, 15008
2, 24834, Note_on_c, 0, 76, 106
2, 24834, Pitch_bend_c, 0, 5600
2, 24837, Pitch_bend_c, 0, 5216
2, 24839, Pitch_bend_c, 0, 4672
2, 24840, Pitch_bend_c, 0, 4160
2, 24841, Pitch_bend_c, 0, 3712
2, 24843, Pitch_bend_c, 0, 3584
2, 24844, Pitch_bend_c, 0, 3712
2, 24846, Pitch_bend_c, 0, 3904
2, 24847, Note_on_c, 0, 76, 0
2, 24847, Note_on_c, 0, 72, 96
2, 24847, Pitch_bend_c, 0, 12000
2, 24852, Pitch_bend_c, 0, 12032
2, 24853, Pitch_bend_c, 0, 12064
2, 24855, Pitch_bend_c, 0, 12128
2, 24856, Note_on_c, 0, 72, 0
2, 24856, Pitch_bend_c, 0, 8192
2, 24856, Note_on_c, 0, 70, 114
2, 24865, Pitch_bend_c, 0, 8448
2, 24866, Pitch_bend_c, 0, 8384
2, 24868, Pitch_bend_c, 0, 8352
2, 24872, Pitch_bend_c, 0, 8320
2, 24873, Pitch_bend_c, 0, 8256
2, 24874, Pitch_bend_c, 0, 8224
2, 24876, Pitch_bend_c, 0, 8192
2, 24877, Pitch_bend_c, 0, 8096
2, 24880, Pitch_bend_c, 0, 8064
2, 24881, Pitch_bend_c, 0, 8032
2, 24883, Pitch_bend_c, 0, 7968
2, 24884, Pitch_bend_c, 0, 7904
2, 24885, Pitch_bend_c, 0, 7840
2, 24889, Note_on_c, 0, 70, 0
2, 24889, Pitch_bend_c, 0, 7712
2, 24890, Pitch_bend_c, 0, 8192
2, 24891, Note_on_c, 0, 73, 116
2, 24892, Pitch_bend_c, 0, 8384
2, 24896, Pitch_bend_c, 0, 8416
2, 24898, Pitch_bend_c, 0, 8448
2, 24899, Pitch_bend_c, 0, 8512
2, 24906, Pitch_bend_c, 0, 8544
2, 24908, Pitch_bend_c, 0, 8608
2, 24909, Pitch_bend_c, 0, 8672
2, 24912, Pitch_bend_c, 0, 8704
2, 24913, Pitch_bend_c, 0, 8736
2, 24915, Pitch_bend_c, 0, 8832
2, 24916, Pitch_bend_c, 0, 8992
2, 24917, Pitch_bend_c, 0, 9216
2, 24919, Pitch_bend_c, 0, 9760
2, 24920, Pitch_bend_c, 0, 10400
2, 24922, Pitch_bend_c, 0, 11072
2, 24923, Pitch_bend_c, 0, 11712
2, 24924, Pitch_bend_c, 0, 12128
2, 24926, Note_on_c, 0, 73, 0
2, 24991, Lyric_t, "you "
2, 25026, Lyric_t, "just "
2, 25058, Lyric_t, "suf"
2, 25078, Lyric_t, "fer "
2, 25114, Lyric_t, "till "
2, 25144, Lyric_t, "I "
2, 25226, Lyric_t, "get "
2, 25252, Lyric_t, "home. "
2, 25252, Lyric_t, "\015"
2, 25252, Lyric_t, "\012"
2, 25373, Lyric_t, "'Cause "
2, 25394, Lyric_t, "I "
2, 25421, Lyric_t, "don't "
2, 25446, Lyric_t, "want "
2, 25464, Lyric_t, "a "
2, 25486, Lyric_t, "soul, "
2, 25515, Lyric_t, "ba"
2, 25535, Lyric_t, "by, "
2, 25535, Lyric_t, "\015"
2, 25559, Pitch_bend_c, 0, 8192
2, 25560, Note_on_c, 0, 67, 122
2, 25560, Pitch_bend_c, 0, 8992
2, 25561, Pitch_bend_c, 0, 9024
2, 25562, Pitch_bend_c, 0, 8192
2, 25562, Note_on_c, 0, 70, 120
2, 25567, Pitch_bend_c, 0, 8992
2, 25568, Pitch_bend_c, 0, 8928
2, 25570, Pitch_bend_c, 0, 8864
2, 25571, Note_on_c, 0, 70, 0
2, 25571, Pitch_bend_c, 0, 8768
2, 25573, Pitch_bend_c, 0, 8640
2, 25574, Pitch_bend_c, 0, 8416
2, 25575, Note_on_c, 0, 67, 0
2, 25580, Note_on_c, 0, 70, 112
2, 25580, Pitch_bend_c, 0, 8192
2, 25581, Pitch_bend_c, 0, 8224
2, 25582, Pitch_bend_c, 0, 8256
2, 25585, Pitch_bend_c, 0, 8224
2, 25586, Pitch_bend_c, 0, 8192
2, 25588, Pitch_bend_c, 0, 8160
2, 25590, Pitch_bend_c, 0, 8128
2, 25591, Pitch_bend_c, 0, 8096
2, 25593, Pitch_bend_c, 0, 8064
2, 25594, Pitch_bend_c, 0, 8128
2, 25595, Note_on_c, 0, 70, 0
2, 25595, Pitch_bend_c, 0, 8160
2, 25598, Pitch_bend_c, 0, 8192
2, 25600, Note_on_c, 0, 73, 116
2, 25600, Pitch_bend_c, 0, 8448
2, 25604, Pitch_bend_c, 0, 8416
2, 25606, Pitch_bend_c, 0, 8352
2, 25607, Pitch_bend_c, 0, 8256
2, 25608, Pitch_bend_c, 0, 8224
2, 25612, Pitch_bend_c, 0, 8192
2, 25614, Pitch_bend_c, 0, 8224
2, 25615, Note_on_c, 0, 73, 0
2, 25615, Pitch_bend_c, 0, 8352
2, 25621, Pitch_bend_c, 0, 8192
2, 25622, Note_on_c, 0, 75, 116
2, 25622, Pitch_bend_c, 0, 8256
2, 25626, Pitch_bend_c, 0, 8224
2, 25629, Pitch_bend_c, 0, 8192
2, 25630, Pitch_bend_c, 0, 8224
2, 25632, Pitch_bend_c, 0, 8320
2, 25634, Pitch_bend_c, 0, 8544
2, 25636, Pitch_bend_c, 0, 8896
2, 25637, Pitch_bend_c, 0, 9440
2, 25638, Pitch_bend_c, 0, 10144
2, 25640, Pitch_bend_c, 0, 10912
2, 25641, Pitch_bend_c, 0, 11552
2, 25642, Pitch_bend_c, 0, 12000
2, 25644, Pitch_bend_c, 0, 12224
2, 25645, Pitch_bend_c, 0, 12288
2, 25647, Note_on_c, 0, 75, 0
2, 25647, Pitch_bend_c, 0, 12032
2, 25650, Pitch_bend_c, 0, 8192
2, 25651, Note_on_c, 0, 77, 115
2, 25651, Pitch_bend_c, 0, 8576
2, 25652, Pitch_bend_c, 0, 8640
2, 25658, Pitch_bend_c, 0, 8576
2, 25659, Pitch_bend_c, 0, 8640
2, 25662, Pitch_bend_c, 0, 8672
2, 25664, Pitch_bend_c, 0, 8736
2, 25666, Pitch_bend_c, 0, 8800
2, 25667, Note_on_c, 0, 77, 0
2, 25675, Pitch_bend_c, 0, 8192
2, 25676, Note_on_c, 0, 73, 116
2, 25677, Pitch_bend_c, 0, 8352
2, 25680, Pitch_bend_c, 0, 8288
2, 25681, Pitch_bend_c, 0, 8384
2, 25683, Pitch_bend_c, 0, 8512
2, 25684, Pitch_bend_c, 0, 8704
2, 25685, Pitch_bend_c, 0, 8992
2, 25687, Pitch_bend_c, 0, 9216
2, 25688, Pitch_bend_c, 0, 9472
2, 25690, Pitch_bend_c, 0, 9696
2, 25691, Pitch_bend_c, 0, 9984
2, 25692, Pitch_bend_c, 0, 10304
2, 25694, Pitch_bend_c, 0, 10720
2, 25695, Pitch_bend_c, 0, 11232
2, 25697, Pitch_bend_c, 0, 11808
2, 25698, Pitch_bend_c, 0, 12288
2, 25699, Pitch_bend_c, 0, 12672
2, 25701, Note_on_c, 0, 73, 0
2, 25701, Pitch_bend_c, 0, 12800
2, 25715, Note_on_c, 0, 70, 110
2, 25715, Pitch_bend_c, 0, 7872
2, 25717, Pitch_bend_c, 0, 7840
2, 25718, Pitch_bend_c, 0, 7904
2, 25720, Pitch_bend_c, 0, 7936
2, 25721, Pitch_bend_c, 0, 7968
2, 25724, Pitch_bend_c, 0, 7904
2, 25725, Pitch_bend_c, 0, 7808
2, 25726, Pitch_bend_c, 0, 7680
2, 25728, Pitch_bend_c, 0, 7648
2, 25729, Pitch_bend_c, 0, 7584
2, 25732, Pitch_bend_c, 0, 7648
2, 25735, Pitch_bend_c, 0, 7680
2, 25736, Pitch_bend_c, 0, 7712
2, 25738, Pitch_bend_c, 0, 7872
2, 25739, Pitch_bend_c, 0, 8224
2, 25740, Pitch_bend_c, 0, 8832
2, 25742, Pitch_bend_c, 0, 9536
2, 25743, Pitch_bend_c, 0, 10208
2, 25744, Pitch_bend_c, 0, 10656
2, 25746, Pitch_bend_c, 0, 10848
2, 25747, Pitch_bend_c, 0, 10592
2, 25749, Pitch_bend_c, 0, 8160
2, 25750, Pitch_bend_c, 0, 8064
2, 25752, Pitch_bend_c, 0, 8000
2, 25753, Pitch_bend_c, 0, 7904
2, 25754, Pitch_bend_c, 0, 7808
2, 25757, Pitch_bend_c, 0, 8032
2, 25759, Pitch_bend_c, 0, 8576
2, 25760, Pitch_bend_c, 0, 11200
2, 25761, Pitch_bend_c, 0, 11296
2, 25763, Pitch_bend_c, 0, 11360
2, 25765, Pitch_bend_c, 0, 11008
2, 25766, Pitch_bend_c, 0, 8288
2, 25767, Pitch_bend_c, 0, 8192
2, 25769, Pitch_bend_c, 0, 8096
2, 25770, Pitch_bend_c, 0, 8000
2, 25772, Pitch_bend_c, 0, 7904
2, 25773, Pitch_bend_c, 0, 7872
2, 25774, Pitch_bend_c, 0, 7968
2, 25776, Pitch_bend_c, 0, 8352
2, 25777, Pitch_bend_c, 0, 9024
2, 25779, Pitch_bend_c, 0, 9760
2, 25780, Pitch_bend_c, 0, 10240
2, 25781, Pitch_bend_c, 0, 10080
2, 25782, Note_on_c, 0, 70, 0
2, 25858, Lyric_t, "hang"
2, 25890, Lyric_t, "in' "
2, 25909, Lyric_t, "a"
2, 25930, Lyric_t, "round "
2, 25948, Lyric_t, "my "
2, 25974, Lyric_t, "house "
2, 26051, Lyric_t, "when "
2, 26071, Lyric_t, "I'm "
2, 26087, Lyric_t, "not "
2, 26107, Lyric_t, "at "
2, 26131, Lyric_t, "home. "
2, 26131, Lyric_t, "\015"
2, 26131, Lyric_t, "\012"
2, 26139, Note_on_c, 0, 63, 108
2, 26139, Pitch_bend_c, 0, 8576
2, 26141, Pitch_bend_c, 0, 8672
2, 26142, Pitch_bend_c, 0, 8736
2, 26144, Pitch_bend_c, 0, 8960
2, 26145, Pitch_bend_c, 0, 9344
2, 26146, Pitch_bend_c, 0, 9920
2, 26148, Pitch_bend_c, 0, 10624
2, 26149, Pitch_bend_c, 0, 11264
2, 26151, Pitch_bend_c, 0, 11808
2, 26152, Pitch_bend_c, 0, 12192
2, 26153, Pitch_bend_c, 0, 12480
2, 26155, Pitch_bend_c, 0, 12704
2, 26156, Pitch_bend_c, 0, 12896
2, 26157, Pitch_bend_c, 0, 13088
2, 26159, Pitch_bend_c, 0, 13344
2, 26161, Pitch_bend_c, 0, 13536
2, 26162, Pitch_bend_c, 0, 13728
2, 26164, Pitch_bend_c, 0, 13888
2, 26165, Pitch_bend_c, 0, 13952
2, 26166, Pitch_bend_c, 0, 14048
2, 26168, Pitch_bend_c, 0, 14144
2, 26169, Pitch_bend_c, 0, 14272
2, 26171, Pitch_bend_c, 0, 14432
2, 26172, Pitch_bend_c, 0, 14528
2, 26173, Pitch_bend_c, 0, 14592
2, 26175, Pitch_bend_c, 0, 14656
2, 26176, Pitch_bend_c, 0, 14720
2, 26178, Pitch_bend_c, 0, 14784
2, 26179, Pitch_bend_c, 0, 14816
2, 26180, Pitch_bend_c, 0, 14880
2, 26182, Pitch_bend_c, 0, 14912
2, 26183, Pitch_bend_c, 0, 14944
2, 26184, Pitch_bend_c, 0, 14976
2, 26189, Pitch_bend_c, 0, 15008
2, 26190, Pitch_bend_c, 0, 15072
2, 26192, Pitch_bend_c, 0, 15104
2, 26193, Pitch_bend_c, 0, 15168
2, 26194, Pitch_bend_c, 0, 15200
2, 26208, Pitch_bend_c, 0, 15232
2, 26209, Pitch_bend_c, 0, 15296
2, 26210, Pitch_bend_c, 0, 15392
2, 26212, Pitch_bend_c, 0, 15456
2, 26213, Pitch_bend_c, 0, 15520
2, 26214, Pitch_bend_c, 0, 15584
2, 26220, Pitch_bend_c, 0, 15488
2, 26222, Pitch_bend_c, 0, 15296
2, 26223, Pitch_bend_c, 0, 15136
2, 26224, Pitch_bend_c, 0, 15008
2, 26226, Pitch_bend_c, 0, 14912
2, 26227, Pitch_bend_c, 0, 14944
2, 26228, Pitch_bend_c, 0, 15072
2, 26230, Pitch_bend_c, 0, 15328
2, 26231, Pitch_bend_c, 0, 15680
2, 26233, Pitch_bend_c, 0, 15968
2, 26234, Pitch_bend_c, 0, 16256
2, 26235, Pitch_bend_c, 0, 16383
2, 26237, Pitch_bend_c, 0, 16224
2, 26238, Pitch_bend_c, 0, 15904
2, 26240, Pitch_bend_c, 0, 15520
2, 26241, Pitch_bend_c, 0, 15232
2, 26242, Pitch_bend_c, 0, 15104
2, 26244, Pitch_bend_c, 0, 15200
2, 26245, Pitch_bend_c, 0, 15424
2, 26247, Pitch_bend_c, 0, 15680
2, 26248, Pitch_bend_c, 0, 15872
2, 26250, Pitch_bend_c, 0, 16064
2, 26252, Pitch_bend_c, 0, 15968
2, 26254, Note_on_c, 0, 63, 0
2, 26273, Note_on_c, 0, 58, 114
2, 26273, Pitch_bend_c, 0, 8320
2, 26274, Pitch_bend_c, 0, 8352
2, 26280, Pitch_bend_c, 0, 8320
2, 26285, Note_on_c, 0, 58, 0
2, 26288, Pitch_bend_c, 0, 8192
2, 26289, Note_on_c, 0, 61, 121
2, 26291, Pitch_bend_c, 0, 8224
2, 26292, Pitch_bend_c, 0, 8256
2, 26293, Pitch_bend_c, 0, 8288
2, 26297, Pitch_bend_c, 0, 8256
2, 26300, Pitch_bend_c, 0, 8288
2, 26301, Note_on_c, 0, 61, 0
2, 26303, Pitch_bend_c, 0, 8192
2, 26304, Note_on_c, 0, 63, 119
2, 26305, Pitch_bend_c, 0, 8256
2, 26306, Pitch_bend_c, 0, 8320
2, 26309, Pitch_bend_c, 0, 8384
2, 26310, Pitch_bend_c, 0, 8416
2, 26311, Pitch_bend_c, 0, 8448
2, 26314, Note_on_c, 0, 63, 0
2, 26314, Pitch_bend_c, 0, 8416
2, 26327, Pitch_bend_c, 0, 8192
2, 26327, Note_on_c, 0, 64, 111
2, 26329, Pitch_bend_c, 0, 7744
2, 26331, Pitch_bend_c, 0, 7712
2, 26332, Pitch_bend_c, 0, 7648
2, 26333, Pitch_bend_c, 0, 7488
2, 26335, Pitch_bend_c, 0, 7104
2, 26336, Pitch_bend_c, 0, 6464
2, 26338, Pitch_bend_c, 0, 5792
2, 26339, Pitch_bend_c, 0, 5120
2, 26341, Pitch_bend_c, 0, 4640
2, 26342, Pitch_bend_c, 0, 4384
2, 26343, Pitch_bend_c, 0, 4256
2, 26345, Pitch_bend_c, 0, 4192
2, 26347, Pitch_bend_c, 0, 4160
2, 26349, Pitch_bend_c, 0, 4128
2, 26350, Pitch_bend_c, 0, 4032
2, 26351, Note_on_c, 0, 64, 0
2, 26354, Pitch_bend_c, 0, 8192
2, 26355, Note_on_c, 0, 61, 109
2, 26355, Pitch_bend_c, 0, 8128
2, 26363, Pitch_bend_c, 0, 8160
2, 26365, Note_on_c, 0, 61, 0
2, 26365, Pitch_bend_c, 0, 8384
2, 26367, Pitch_bend_c, 0, 8192
2, 26368, Note_on_c, 0, 58, 80
2, 26368, Pitch_bend_c, 0, 8128
2, 26375, Pitch_bend_c, 0, 8160
2, 26378, Pitch_bend_c, 0, 8192
2, 26383, Pitch_bend_c, 0, 8160
2, 26391, Pitch_bend_c, 0, 8192
2, 26393, Note_on_c, 0, 58, 0
2, 26396, Note_on_c, 0, 61, 120
2, 26397, Pitch_bend_c, 0, 7872
2, 26398, Pitch_bend_c, 0, 7936
2, 26400, Pitch_bend_c, 0, 8000
2, 26401, Pitch_bend_c, 0, 8032
2, 26402, Pitch_bend_c, 0, 8064
2, 26404, Pitch_bend_c, 0, 8128
2, 26405, Pitch_bend_c, 0, 8096
2, 26407, Pitch_bend_c, 0, 8128
2, 26408, Note_on_c, 0, 61, 0
2, 26410, Pitch_bend_c, 0, 8192
2, 26411, Note_on_c, 0, 62, 120
2, 26411, Pitch_bend_c, 0, 8288
2, 26413, Pitch_bend_c, 0, 8160
2, 26415, Pitch_bend_c, 0, 8128
2, 26416, Pitch_bend_c, 0, 8032
2, 26419, Pitch_bend_c, 0, 8192
2, 26421, Pitch_bend_c, 0, 8320
2, 26422, Note_on_c, 0, 62, 0
2, 26425, Pitch_bend_c, 0, 8192
2, 26426, Note_on_c, 0, 65, 121
2, 26426, Pitch_bend_c, 0, 8288
2, 26432, Pitch_bend_c, 0, 8256
2, 26435, Pitch_bend_c, 0, 8288
2, 26436, Note_on_c, 0, 65, 0
2, 26440, Note_on_c, 0, 70, 124
2, 26440, Pitch_bend_c, 0, 8384
2, 26450, Pitch_bend_c, 0, 8352
2, 26453, Pitch_bend_c, 0, 8320
2, 26456, Note_on_c, 0, 70, 0
2, 26456, Pitch_bend_c, 0, 8416
2, 26459, Pitch_bend_c, 0, 8192
2, 26460, Note_on_c, 0, 69, 111
2, 26461, Pitch_bend_c, 0, 4448
2, 26464, Pitch_bend_c, 0, 4512
2, 26465, Pitch_bend_c, 0, 4576
2, 26467, Pitch_bend_c, 0, 4512
2, 26468, Pitch_bend_c, 0, 4448
2, 26469, Pitch_bend_c, 0, 4384
2, 26471, Note_on_c, 0, 69, 0
2, 26471, Pitch_bend_c, 0, 4576
2, 26475, Pitch_bend_c, 0, 8192
2, 26476, Note_on_c, 0, 70, 122
2, 26476, Pitch_bend_c, 0, 8320
2, 26477, Pitch_bend_c, 0, 8352
2, 26480, Pitch_bend_c, 0, 8320
2, 26495, Note_on_c, 0, 70, 0
2, 26501, Pitch_bend_c, 0, 8192
2, 26502, Note_on_c, 0, 68, 114
2, 26502, Pitch_bend_c, 0, 9408
2, 26503, Pitch_bend_c, 0, 8448
2, 26505, Pitch_bend_c, 0, 8352
2, 26507, Pitch_bend_c, 0, 8288
2, 26509, Pitch_bend_c, 0, 8192
2, 26510, Pitch_bend_c, 0, 11872
2, 26511, Pitch_bend_c, 0, 12096
2, 26513, Pitch_bend_c, 0, 16032
2, 26514, Pitch_bend_c, 0, 16064
2, 26515, Pitch_bend_c, 0, 16128
2, 26517, Pitch_bend_c, 0, 16224
2, 26518, Pitch_bend_c, 0, 16320
2, 26520, Pitch_bend_c, 0, 16352
2, 26522, Pitch_bend_c, 0, 16288
2, 26524, Pitch_bend_c, 0, 16224
2, 26525, Pitch_bend_c, 0, 16192
2, 26527, Pitch_bend_c, 0, 16352
2, 26528, Note_on_c, 0, 68, 0
2, 26531, Pitch_bend_c, 0, 8192
2, 26532, Note_on_c, 0, 73, 115
2, 26532, Pitch_bend_c, 0, 8512
2, 26540, Pitch_bend_c, 0, 8544
2, 26541, Pitch_bend_c, 0, 8864
2, 26542, Note_on_c, 0, 73, 0
2, 26544, Pitch_bend_c, 0, 8192
2, 26545, Note_on_c, 0, 75, 116
2, 26545, Pitch_bend_c, 0, 8320
2, 26552, Pitch_bend_c, 0, 8352
2, 26553, Pitch_bend_c, 0, 8480
2, 26555, Note_on_c, 0, 75, 0
2, 26567, Pitch_bend_c, 0, 8192
2, 26569, Note_on_c, 0, 76, 117
2, 26569, Pitch_bend_c, 0, 8480
2, 26574, Pitch_bend_c, 0, 8384
2, 26575, Pitch_bend_c, 0, 8224
2, 26577, Pitch_bend_c, 0, 8128
2, 26578, Pitch_bend_c, 0, 7936
2, 26580, Pitch_bend_c, 0, 7648
2, 26581, Pitch_bend_c, 0, 7104
2, 26582, Pitch_bend_c, 0, 4672
2, 26584, Pitch_bend_c, 0, 4512
2, 26585, Pitch_bend_c, 0, 4384
2, 26587, Pitch_bend_c, 0, 4256
2, 26588, Pitch_bend_c, 0, 4128
2, 26589, Pitch_bend_c, 0, 3840
2, 26590, Note_on_c, 0, 76, 0
2, 26590, Pitch_bend_c, 0, 4512
2, 26593, Pitch_bend_c, 0, 8192
2, 26593, Note_on_c, 0, 73, 110
2, 26594, Pitch_bend_c, 0, 8384
2, 26598, Pitch_bend_c, 0, 8416
2, 26601, Pitch_bend_c, 0, 8192
2, 26602, Note_on_c, 0, 73, 0
2, 26602, Note_on_c, 0, 70, 101
2, 26604, Pitch_bend_c, 0, 8224
2, 26606, Pitch_bend_c, 0, 8256
2, 26607, Pitch_bend_c, 0, 8288
2, 26610, Pitch_bend_c, 0, 8256
2, 26611, Pitch_bend_c, 0, 8224
2, 26613, Pitch_bend_c, 0, 8192
2, 26614, Pitch_bend_c, 0, 8128
2, 26615, Pitch_bend_c, 0, 8064
2, 26617, Pitch_bend_c, 0, 8000
2, 26619, Pitch_bend_c, 0, 8096
2, 26621, Pitch_bend_c, 0, 8192
2, 26622, Pitch_bend_c, 0, 10528
2, 26624, Pitch_bend_c, 0, 10752
2, 26625, Pitch_bend_c, 0, 11008
2, 26626, Pitch_bend_c, 0, 11168
2, 26629, Pitch_bend_c, 0, 8992
2, 26631, Pitch_bend_c, 0, 8768
2, 26632, Pitch_bend_c, 0, 8512
2, 26633, Pitch_bend_c, 0, 8288
2, 26635, Pitch_bend_c, 0, 8128
2, 26636, Pitch_bend_c, 0, 8096
2, 26638, Pitch_bend_c, 0, 8160
2, 26639, Pitch_bend_c, 0, 8384
2, 26641, Pitch_bend_c, 0, 8704
2, 26642, Pitch_bend_c, 0, 9056
2, 26643, Pitch_bend_c, 0, 9216
2, 26645, Pitch_bend_c, 0, 8928
2, 26646, Pitch_bend_c, 0, 8480
2, 26648, Pitch_bend_c, 0, 8192
2, 26649, Pitch_bend_c, 0, 8032
2, 26652, Pitch_bend_c, 0, 8096
2, 26653, Note_on_c, 0, 70, 0
2, 26720, Lyric_t, "Yes, "
2, 26810, Lyric_t, "I "
2, 26841, Lyric_t, "don't "
2, 26871, Lyric_t, "want "
2, 26907, Lyric_t, "you "
2, 26923, Lyric_t, "to "
2, 26939, Lyric_t, "o"
2, 26968, Lyric_t, "pen "
2, 26982, Lyric_t, "the "
2, 26998, Lyric_t, "door "
2, 26998, Lyric_t, "\015"
2, 27035, Lyric_t, "for "
2, 27056, Lyric_t, "no"
2, 27077, Lyric_t, "bod"
2, 27097, Lyric_t, "y, "
2, 27115, Lyric_t, "ba"
2, 27120, Pitch_bend_c, 0, 8192
2, 27124, Note_on_c, 0, 72, 108
2, 27124, Pitch_bend_c, 0, 8512
2, 27125, Pitch_bend_c, 0, 8608
2, 27126, Pitch_bend_c, 0, 8544
2, 27128, Pitch_bend_c, 0, 8448
2, 27129, Pitch_bend_c, 0, 8480
2, 27130, Pitch_bend_c, 0, 8416
2, 27132, Pitch_bend_c, 0, 8352
2, 27134, Pitch_bend_c, 0, 8320
2, 27136, Pitch_bend_c, 0, 8544
2, 27137, Pitch_bend_c, 0, 9120
2, 27139, Pitch_bend_c, 0, 11456
2, 27140, Pitch_bend_c, 0, 11616
2, 27141, Pitch_bend_c, 0, 11808
2, 27143, Pitch_bend_c, 0, 12064
2, 27143, Lyric_t, "by, "
2, 27143, Lyric_t, "\015"
2, 27144, Pitch_bend_c, 0, 12352
2, 27146, Pitch_bend_c, 0, 12448
2, 27147, Pitch_bend_c, 0, 12096
2, 27149, Pitch_bend_c, 0, 9536
2, 27150, Pitch_bend_c, 0, 9280
2, 27152, Pitch_bend_c, 0, 8864
2, 27153, Pitch_bend_c, 0, 8448
2, 27154, Pitch_bend_c, 0, 8032
2, 27156, Pitch_bend_c, 0, 7904
2, 27158, Pitch_bend_c, 0, 7936
2, 27160, Pitch_bend_c, 0, 8000
2, 27161, Pitch_bend_c, 0, 8096
2, 27162, Pitch_bend_c, 0, 8128
2, 27164, Pitch_bend_c, 0, 8160
2, 27165, Pitch_bend_c, 0, 8000
2, 27166, Note_on_c, 0, 72, 0
2, 27169, Pitch_bend_c, 0, 8192
2, 27170, Note_on_c, 0, 70, 111
2, 27170, Pitch_bend_c, 0, 8544
2, 27172, Pitch_bend_c, 0, 8512
2, 27176, Pitch_bend_c, 0, 8480
2, 27179, Pitch_bend_c, 0, 8512
2, 27180, Note_on_c, 0, 70, 0
2, 27181, Pitch_bend_c, 0, 8192
2, 27182, Note_on_c, 0, 67, 111
2, 27183, Pitch_bend_c, 0, 8000
2, 27185, Pitch_bend_c, 0, 7968
2, 27186, Pitch_bend_c, 0, 7936
2, 27193, Pitch_bend_c, 0, 7744
2, 27195, Note_on_c, 0, 67, 0
2, 27195, Pitch_bend_c, 0, 8192
2, 27195, Note_on_c, 0, 70, 111
2, 27196, Pitch_bend_c, 0, 8480
2, 27197, Pitch_bend_c, 0, 8352
2, 27199, Pitch_bend_c, 0, 8320
2, 27200, Pitch_bend_c, 0, 8288
2, 27204, Pitch_bend_c, 0, 8192
2, 27205, Note_on_c, 0, 70, 0
2, 27208, Note_on_c, 0, 69, 111
2, 27208, Pitch_bend_c, 0, 7776
2, 27209, Pitch_bend_c, 0, 7872
2, 27210, Pitch_bend_c, 0, 7904
2, 27212, Pitch_bend_c, 0, 7968
2, 27213, Pitch_bend_c, 0, 8096
2, 27215, Pitch_bend_c, 0, 8288
2, 27216, Pitch_bend_c, 0, 8640
2, 27217, Pitch_bend_c, 0, 9120
2, 27219, Pitch_bend_c, 0, 9696
2, 27220, Pitch_bend_c, 0, 10240
2, 27222, Pitch_bend_c, 0, 10752
2, 27223, Pitch_bend_c, 0, 11104
2, 27224, Pitch_bend_c, 0, 11392
2, 27226, Pitch_bend_c, 0, 11616
2, 27227, Pitch_bend_c, 0, 11776
2, 27228, Pitch_bend_c, 0, 11904
2, 27230, Pitch_bend_c, 0, 11968
2, 27236, Pitch_bend_c, 0, 12000
2, 27246, Pitch_bend_c, 0, 11968
2, 27250, Pitch_bend_c, 0, 11936
2, 27257, Pitch_bend_c, 0, 11968
2, 27259, Pitch_bend_c, 0, 12000
2, 27263, Pitch_bend_c, 0, 11872
2, 27265, Pitch_bend_c, 0, 11552
2, 27266, Pitch_bend_c, 0, 11200
2, 27268, Pitch_bend_c, 0, 10848
2, 27269, Pitch_bend_c, 0, 10592
2, 27270, Pitch_bend_c, 0, 10656
2, 27272, Pitch_bend_c, 0, 11040
2, 27273, Pitch_bend_c, 0, 11552
2, 27275, Pitch_bend_c, 0, 12224
2, 27276, Pitch_bend_c, 0, 12896
2, 27278, Pitch_bend_c, 0, 13280
2, 27279, Pitch_bend_c, 0, 13536
2, 27281, Pitch_bend_c, 0, 13248
2, 27282, Pitch_bend_c, 0, 10144
2, 27284, Pitch_bend_c, 0, 10016
2, 27285, Pitch_bend_c, 0, 9952
2, 27286, Pitch_bend_c, 0, 10176
2, 27288, Pitch_bend_c, 0, 10624
2, 27289, Pitch_bend_c, 0, 11296
2, 27291, Pitch_bend_c, 0, 11968
2, 27292, Pitch_bend_c, 0, 12480
2, 27293, Pitch_bend_c, 0, 12800
2, 27295, Pitch_bend_c, 0, 13024
2, 27295, Lyric_t, "yeah, "
2, 27296, Pitch_bend_c, 0, 12960
2, 27297, Pitch_bend_c, 0, 10752
2, 27299, Pitch_bend_c, 0, 10688
2, 27300, Note_on_c, 0, 69, 0
2, 27300, Pitch_bend_c, 0, 12800
2, 27349, Lyric_t, "when "
2, 27370, Lyric_t, "you're "
2, 27391, Lyric_t, "home "
2, 27474, Lyric_t, "all "
2, 27589, Lyric_t, "a"
2, 27611, Lyric_t, "lone. "
2, 27611, Lyric_t, "\015"
2, 27740, Pitch_bend_c, 0, 8192
2, 27741, Note_on_c, 0, 68, 111
2, 27741, Pitch_bend_c, 0, 8544
2, 27742, Pitch_bend_c, 0, 8192
2, 27742, Note_on_c, 0, 70, 122
2, 27800, Note_on_c, 0, 70, 0
2, 27805, Note_on_c, 0, 70, 120
2, 27836, Note_on_c, 0, 68, 0
2, 27837, Note_on_c, 0, 70, 0
2, 27839, Note_on_c, 0, 67, 122
2, 27839, Note_on_c, 0, 70, 114
2, 27899, Note_on_c, 0, 70, 0
2, 27901, Pitch_bend_c, 0, 8160
2, 27903, Pitch_bend_c, 0, 8192
2, 27903, Note_on_c, 0, 70, 115
2, 27930, Note_on_c, 0, 67, 0
2, 27931, Pitch_bend_c, 0, 8448
2, 27932, Pitch_bend_c, 0, 8416
2, 27934, Note_on_c, 0, 70, 0
2, 27934, Note_on_c, 0, 66, 117
2, 27934, Pitch_bend_c, 0, 8192
2, 27937, Note_on_c, 0, 70, 116
2, 27995, Note_on_c, 0, 70, 0
2, 27998, Note_on_c, 0, 70, 118
2, 28026, Note_on_c, 0, 66, 0
2, 28027, Pitch_bend_c, 0, 8480
2, 28028, Pitch_bend_c, 0, 8416
2, 28029, Note_on_c, 0, 70, 0
2, 28029, Note_on_c, 0, 65, 119
2, 28029, Pitch_bend_c, 0, 8224
2, 28032, Pitch_bend_c, 0, 8192
2, 28032, Note_on_c, 0, 70, 122
2, 28073, Note_on_c, 0, 65, 0
2, 28073, Pitch_bend_c, 0, 8224
2, 28074, Note_on_c, 0, 70, 0
2, 28127, Pitch_bend_c, 0, 8192
2, 28128, Note_on_c, 0, 73, 127
2, 28129, Pitch_bend_c, 0, 8544
2, 28130, Pitch_bend_c, 0, 8416
2, 28134, Pitch_bend_c, 0, 8384
2, 28135, Pitch_bend_c, 0, 8352
2, 28137, Pitch_bend_c, 0, 8288
2, 28138, Pitch_bend_c, 0, 8256
2, 28139, Pitch_bend_c, 0, 8224
2, 28141, Pitch_bend_c, 0, 8192
2, 28145, Pitch_bend_c, 0, 8224
2, 28155, Pitch_bend_c, 0, 8352
2, 28156, Pitch_bend_c, 0, 8608
2, 28158, Pitch_bend_c, 0, 9184
2, 28159, Pitch_bend_c, 0, 11648
2, 28160, Pitch_bend_c, 0, 11776
2, 28162, Pitch_bend_c, 0, 11936
2, 28163, Pitch_bend_c, 0, 12096
2, 28165, Pitch_bend_c, 0, 12160
2, 28166, Note_on_c, 0, 73, 0
2, 28188, Pitch_bend_c, 0, 8192
2, 28189, Note_on_c, 0, 70, 109
2, 28190, Pitch_bend_c, 0, 9024
2, 28191, Pitch_bend_c, 0, 8480
2, 28196, Pitch_bend_c, 0, 8448
2, 28198, Pitch_bend_c, 0, 8384
2, 28200, Pitch_bend_c, 0, 8352
2, 28201, Pitch_bend_c, 0, 8320
2, 28203, Pitch_bend_c, 0, 8288
2, 28207, Pitch_bend_c, 0, 8320
2, 28208, Pitch_bend_c, 0, 8352
2, 28211, Pitch_bend_c, 0, 8320
2, 28214, Pitch_bend_c, 0, 8288
2, 28220, Pitch_bend_c, 0, 8256
2, 28221, Pitch_bend_c, 0, 8224
2, 28222, Pitch_bend_c, 0, 8192
2, 28227, Pitch_bend_c, 0, 8160
2, 28228, Pitch_bend_c, 0, 8128
2, 28230, Pitch_bend_c, 0, 8064
2, 28231, Pitch_bend_c, 0, 8032
2, 28232, Pitch_bend_c, 0, 8000
2, 28233, Pitch_bend_c, 0, 7968
2, 28236, Pitch_bend_c, 0, 8000
2, 28238, Pitch_bend_c, 0, 8032
2, 28240, Pitch_bend_c, 0, 8064
2, 28241, Pitch_bend_c, 0, 8160
2, 28242, Pitch_bend_c, 0, 8352
2, 28243, Pitch_bend_c, 0, 8672
2, 28244, Pitch_bend_c, 0, 9152
2, 28246, Pitch_bend_c, 0, 9600
2, 28247, Pitch_bend_c, 0, 9984
2, 28248, Pitch_bend_c, 0, 10176
2, 28250, Note_on_c, 0, 70, 0
2, 28250, Pitch_bend_c, 0, 8192
2, 28251, Pitch_bend_c, 0, 11296
2, 28252, Note_on_c, 0, 72, 103
2, 28253, Pitch_bend_c, 0, 12512
2, 28255, Pitch_bend_c, 0, 12480
2, 28256, Pitch_bend_c, 0, 12384
2, 28258, Pitch_bend_c, 0, 12320
2, 28264, Pitch_bend_c, 0, 12352
2, 28267, Pitch_bend_c, 0, 12384
2, 28269, Pitch_bend_c, 0, 12352
2, 28270, Pitch_bend_c, 0, 12320
2, 28273, Pitch_bend_c, 0, 12288
2, 28275, Pitch_bend_c, 0, 12224
2, 28278, Pitch_bend_c, 0, 12192
2, 28280, Pitch_bend_c, 0, 11744
2, 28281, Note_on_c, 0, 72, 0
2, 28281, Pitch_bend_c, 0, 12320
2, 28284, Note_on_c, 0, 70, 114
2, 28284, Pitch_bend_c, 0, 8192
2, 28285, Pitch_bend_c, 0, 8128
2, 28288, Pitch_bend_c, 0, 8160
2, 28290, Pitch_bend_c, 0, 8192
2, 28291, Pitch_bend_c, 0, 8352
2, 28292, Pitch_bend_c, 0, 8320
2, 28293, Pitch_bend_c, 0, 4800
2, 28294, Pitch_bend_c, 0, 1
2, 28306, Note_on_c, 0, 70, 0
2, 28307, Note_on_c, 0, 65, 98
2, 28307, Pitch_bend_c, 0, 8192
2, 28308, Pitch_bend_c, 0, 8160
2, 28309, Pitch_bend_c, 0, 8192
2, 28310, Pitch_bend_c, 0, 8160
2, 28312, Pitch_bend_c, 0, 8192
2, 28313, Pitch_bend_c, 0, 8288
2, 28314, Pitch_bend_c, 0, 8256
2, 28315, Pitch_bend_c, 0, 4352
2, 28316, Note_on_c, 0, 65, 0
2, 28317, Note_on_c, 0, 63, 102
2, 28317, Pitch_bend_c, 0, 8416
2, 28318, Pitch_bend_c, 0, 8384
2, 28319, Pitch_bend_c, 0, 8320
2, 28321, Pitch_bend_c, 0, 8288
2, 28322, Pitch_bend_c, 0, 8256
2, 28323, Pitch_bend_c, 0, 8192
2, 28326, Pitch_bend_c, 0, 8224
2, 28327, Pitch_bend_c, 0, 8320
2, 28328, Pitch_bend_c, 0, 8160
2, 28330, Pitch_bend_c, 0, 4704
2, 28331, Pitch_bend_c, 0, 4640
2, 28332, Pitch_bend_c, 0, 1
2, 28349, Note_on_c, 0, 63, 0
2, 28354, Pitch_bend_c, 0, 8192
2, 28355, Note_on_c, 0, 58, 66
2, 28355, Pitch_bend_c, 0, 8224
2, 28360, Pitch_bend_c, 0, 8256
2, 28362, Note_on_c, 0, 58, 0
2, 28364, Pitch_bend_c, 0, 8192
2, 28365, Note_on_c, 0, 56, 64
2, 28371, Pitch_bend_c, 0, 8256
2, 28372, Note_on_c, 0, 56, 0
2, 28375, Pitch_bend_c, 0, 8192
2, 28376, Note_on_c, 0, 53, 73
2, 28376, Pitch_bend_c, 0, 8288
2, 28377, Pitch_bend_c, 0, 7936
2, 28378, Pitch_bend_c, 0, 7968
2, 28379, Pitch_bend_c, 0, 8032
2, 28381, Pitch_bend_c, 0, 8096
2, 28382, Note_on_c, 0, 53, 0
2, 28382, Pitch_bend_c, 0, 8192
2, 28385, Note_on_c, 0, 51, 91
2, 28385, Pitch_bend_c, 0, 8000
2, 28386, Pitch_bend_c, 0, 8032
2, 28387, Pitch_bend_c, 0, 8000
2, 28388, Pitch_bend_c, 0, 7968
2, 28389, Pitch_bend_c, 0, 7936
2, 28391, Pitch_bend_c, 0, 7904
2, 28393, Pitch_bend_c, 0, 7936
2, 28394, Pitch_bend_c, 0, 8000
2, 28395, Pitch_bend_c, 0, 8128
2, 28396, Pitch_bend_c, 0, 8192
2, 28397, Pitch_bend_c, 0, 4128
2, 28398, Pitch_bend_c, 0, 4192
2, 28399, Pitch_bend_c, 0, 4224
2, 28401, Pitch_bend_c, 0, 4256
2, 28402, Pitch_bend_c, 0, 4288
2, 28403, Pitch_bend_c, 0, 4256
2, 28408, Pitch_bend_c, 0, 4224
2, 28409, Pitch_bend_c, 0, 4192
2, 28411, Pitch_bend_c, 0, 4160
2, 28412, Pitch_bend_c, 0, 4128
2, 28413, Pitch_bend_c, 0, 4064
2, 28414, Pitch_bend_c, 0, 4032
2, 28415, Pitch_bend_c, 0, 4000
2, 28417, Pitch_bend_c, 0, 3968
2, 28420, Pitch_bend_c, 0, 3936
2, 28422, Pitch_bend_c, 0, 3904
2, 28424, Pitch_bend_c, 0, 3872
2, 28426, Pitch_bend_c, 0, 3840
2, 28429, Pitch_bend_c, 0, 3808
2, 28430, Note_on_c, 0, 51, 0
2, 28430, Pitch_bend_c, 0, 3776
2, 28431, Pitch_bend_c, 0, 3904
2, 28433, Pitch_bend_c, 0, 4128
2, 28434, Pitch_bend_c, 0, 4384
2, 28435, Pitch_bend_c, 0, 4640
2, 28436, Pitch_bend_c, 0, 4832
2, 28438, Pitch_bend_c, 0, 4928
2, 28439, Pitch_bend_c, 0, 4832
2, 28440, Pitch_bend_c, 0, 4192
2, 28442, Pitch_bend_c, 0, 3808
2, 28443, Pitch_bend_c, 0, 3584
2, 28444, Pitch_bend_c, 0, 3392
2, 28445, Pitch_bend_c, 0, 3328
2, 28447, Pitch_bend_c, 0, 3456
2, 28448, Pitch_bend_c, 0, 3840
2, 28449, Pitch_bend_c, 0, 4384
2, 28450, Pitch_bend_c, 0, 5120
2, 28451, Pitch_bend_c, 0, 5632
2, 28452, Pitch_bend_c, 0, 5760
2, 28453, Pitch_bend_c, 0, 5632
2, 28454, Pitch_bend_c, 0, 5024
2, 28456, Pitch_bend_c, 0, 4416
2, 28457, Pitch_bend_c, 0, 3904
2, 28458, Pitch_bend_c, 0, 3520
2, 28460, Pitch_bend_c, 0, 3584
2, 28461, Pitch_bend_c, 0, 3616
2, 28462, Pitch_bend_c, 0, 3840
2, 28463, Pitch_bend_c, 0, 4224
2, 28465, Pitch_bend_c, 0, 4448
2, 28466, Pitch_bend_c, 0, 4512
2, 28467, Pitch_bend_c, 0, 8192
2, 28467, End_track
3, 0, Start_track
3, 0, MIDI_port, 0
3, 0, Sequencer_specific, 7, 0, 0, 0, 106, 0, 4, 0
3, 103, Program_c, 1, 35
3, 104, Control_c, 1, 7, 105
3, 104, Control_c, 1, 10, 64
3, 104, Control_c, 1, 11, 127
3, 105, Control_c, 1, 91, 35
3, 105, Control_c, 1, 93, 0
3, 768, Note_on_c, 1, 34, 105
3, 769, Control_c, 1, 1, 0
3, 769, Pitch_bend_c, 1, 8192
3, 860, Note_on_c, 1, 34, 0
3, 863, Note_on_c, 1, 29, 101
3, 959, Note_on_c, 1, 29, 0
3, 961, Note_on_c, 1, 34, 96
3, 1053, Note_on_c, 1, 34, 0
3, 1055, Note_on_c, 1, 29, 99
3, 1117, Note_on_c, 1, 29, 0
3, 1119, Note_on_c, 1, 34, 91
3, 1150, Note_on_c, 1, 34, 0
3, 1152, Note_on_c, 1, 39, 86
3, 1245, Note_on_c, 1, 39, 0
3, 1247, Note_on_c, 1, 37, 93
3, 1343, Note_on_c, 1, 37, 0
3, 1345, Note_on_c, 1, 36, 98
3, 1439, Note_on_c, 1, 36, 0
3, 1441, Note_on_c, 1, 35, 98
3, 1533, Note_on_c, 1, 35, 0
3, 1535, Note_on_c, 1, 34, 88
3, 1628, Note_on_c, 1, 34, 0
3, 1631, Note_on_c, 1, 38, 97
3, 1725, Note_on_c, 1, 38, 0
3, 1727, Note_on_c, 1, 41, 94
3, 1823, Note_on_c, 1, 41, 0
3, 1825, Note_on_c, 1, 43, 91
3, 1853, Note_on_c, 1, 43, 0
3, 1855, Note_on_c, 1, 41, 76
3, 1885, Note_on_c, 1, 41, 0
3, 1887, Note_on_c, 1, 43, 91
3, 1917, Note_on_c, 1, 43, 0
3, 1919, Note_on_c, 1, 34, 96
3, 2013, Note_on_c, 1, 34, 0
3, 2015, Note_on_c, 1, 38, 98
3, 2109, Note_on_c, 1, 38, 0
3, 2111, Note_on_c, 1, 41, 86
3, 2206, Note_on_c, 1, 41, 0
3, 2208, Note_on_c, 1, 43, 86
3, 2237, Note_on_c, 1, 43, 0
3, 2239, Note_on_c, 1, 41, 87
3, 2269, Note_on_c, 1, 41, 0
3, 2271, Note_on_c, 1, 43, 84
3, 2302, Note_on_c, 1, 43, 0
3, 2304, Note_on_c, 1, 39, 85
3, 2397, Note_on_c, 1, 39, 0
3, 2399, Note_on_c, 1, 37, 89
3, 2493, Note_on_c, 1, 37, 0
3, 2495, Note_on_c, 1, 36, 89
3, 2590, Note_on_c, 1, 36, 0
3, 2592, Note_on_c, 1, 34, 91
3, 2621, Note_on_c, 1, 34, 0
3, 2623, Note_on_c, 1, 36, 85
3, 2653, Note_on_c, 1, 36, 0
3, 2655, Note_on_c, 1, 38, 88
3, 2685, Note_on_c, 1, 38, 0
3, 2687, Note_on_c, 1, 39, 90
3, 2781, Note_on_c, 1, 39, 0
3, 2783, Note_on_c, 1, 34, 91
3, 2876, Note_on_c, 1, 34, 0
3, 2879, Note_on_c, 1, 39, 88
3, 2974, Note_on_c, 1, 39, 0
3, 2976, Note_on_c, 1, 36, 92
3, 3039, Note_on_c, 1, 36, 0
3, 3041, Note_on_c, 1, 35, 92
3, 3071, Note_on_c, 1, 35, 0
3, 3073, Note_on_c, 1, 34, 96
3, 3162, Note_on_c, 1, 34, 0
3, 3167, Note_on_c, 1, 38, 90
3, 3261, Note_on_c, 1, 38, 0
3, 3263, Note_on_c, 1, 41, 84
3, 3359, Note_on_c, 1, 41, 0
3, 3361, Note_on_c, 1, 43, 84
3, 3389, Note_on_c, 1, 43, 0
3, 3391, Note_on_c, 1, 41, 77
3, 3421, Note_on_c, 1, 41, 0
3, 3423, Note_on_c, 1, 43, 90
3, 3453, Note_on_c, 1, 43, 0
3, 3455, Note_on_c, 1, 34, 83
3, 3549, Note_on_c, 1, 34, 0
3, 3551, Note_on_c, 1, 38, 98
3, 3646, Note_on_c, 1, 38, 0
3, 3648, Note_on_c, 1, 41, 83
3, 3741, Note_on_c, 1, 41, 0
3, 3743, Note_on_c, 1, 43, 88
3, 3773, Note_on_c, 1, 43, 0
3, 3775, Note_on_c, 1, 41, 84
3, 3805, Note_on_c, 1, 41, 0
3, 3807, Note_on_c, 1, 43, 86
3, 3837, Note_on_c, 1, 43, 0
3, 3839, Note_on_c, 1, 41, 84
3, 3933, Note_on_c, 1, 41, 0
3, 3935, Note_on_c, 1, 36, 88
3, 4031, Note_on_c, 1, 36, 0
3, 4033, Note_on_c, 1, 41, 88
3, 4125, Note_on_c, 1, 41, 0
3, 4127, Note_on_c, 1, 36, 88
3, 4159, Note_on_c, 1, 36, 0
3, 4161, Note_on_c, 1, 41, 98
3, 4189, Note_on_c, 1, 41, 0
3, 4191, Note_on_c, 1, 40, 85
3, 4221, Note_on_c, 1, 40, 0
3, 4223, Note_on_c, 1, 39, 85
3, 4317, Note_on_c, 1, 39, 0
3, 4319, Note_on_c, 1, 37, 86
3, 4411, Note_on_c, 1, 37, 0
3, 4415, Note_on_c, 1, 36, 84
3, 4509, Note_on_c, 1, 36, 0
3, 4511, Note_on_c, 1, 35, 88
3, 4605, Note_on_c, 1, 35, 0
3, 4607, Note_on_c, 1, 34, 88
3, 4701, Note_on_c, 1, 34, 0
3, 4703, Note_on_c, 1, 38, 91
3, 4797, Note_on_c, 1, 38, 0
3, 4799, Note_on_c, 1, 39, 86
3, 4893, Note_on_c, 1, 39, 0
3, 4895, Note_on_c, 1, 40, 80
3, 4989, Note_on_c, 1, 40, 0
3, 4991, Note_on_c, 1, 41, 86
3, 5035, Note_on_c, 1, 41, 0
3, 5055, Note_on_c, 1, 41, 78
3, 5079, Note_on_c, 1, 41, 0
3, 5089, Note_on_c, 1, 41, 84
3, 5139, Note_on_c, 1, 41, 0
3, 5151, Note_on_c, 1, 41, 74
3, 5170, Note_on_c, 1, 41, 0
3, 5185, Note_on_c, 1, 41, 86
3, 5237, Note_on_c, 1, 41, 0
3, 5248, Note_on_c, 1, 41, 72
3, 5260, Note_on_c, 1, 41, 0
3, 5281, Note_on_c, 1, 41, 99
3, 5311, Note_on_c, 1, 41, 0
3, 5313, Note_on_c, 1, 29, 95
3, 5333, Note_on_c, 1, 29, 0
3, 5345, Note_on_c, 1, 29, 94
3, 5374, Note_on_c, 1, 29, 0
3, 5376, Note_on_c, 1, 34, 117
3, 5468, Note_on_c, 1, 34, 0
3, 5471, Note_on_c, 1, 38, 99
3, 5561, Note_on_c, 1, 38, 0
3, 5567, Note_on_c, 1, 41, 98
3, 5662, Note_on_c, 1, 41, 0
3, 5664, Note_on_c, 1, 40, 95
3, 5754, Note_on_c, 1, 40, 0
3, 5759, Note_on_c, 1, 39, 95
3, 5853, Note_on_c, 1, 39, 0
3, 5855, Note_on_c, 1, 37, 97
3, 5950, Note_on_c, 1, 37, 0
3, 5952, Note_on_c, 1, 36, 88
3, 6045, Note_on_c, 1, 36, 0
3, 6047, Note_on_c, 1, 35, 98
3, 6141, Note_on_c, 1, 35, 0
3, 6143, Note_on_c, 1, 34, 102
3, 6237, Note_on_c, 1, 34, 0
3, 6239, Note_on_c, 1, 38, 98
3, 6333, Note_on_c, 1, 38, 0
3, 6335, Note_on_c, 1, 41, 91
3, 6429, Note_on_c, 1, 41, 0
3, 6431, Note_on_c, 1, 43, 88
3, 6461, Note_on_c, 1, 43, 0
3, 6463, Note_on_c, 1, 41, 88
3, 6493, Note_on_c, 1, 41, 0
3, 6495, Note_on_c, 1, 43, 91
3, 6527, Note_on_c, 1, 43, 0
3, 6529, Note_on_c, 1, 34, 100
3, 6620, Note_on_c, 1, 34, 0
3, 6623, Note_on_c, 1, 38, 104
3, 6717, Note_on_c, 1, 38, 0
3, 6719, Note_on_c, 1, 41, 93
3, 6769, Note_on_c, 1, 41, 0
3, 6783, Note_on_c, 1, 41, 86
3, 6813, Note_on_c, 1, 41, 0
3, 6815, Note_on_c, 1, 43, 91
3, 6845, Note_on_c, 1, 43, 0
3, 6847, Note_on_c, 1, 41, 80
3, 6877, Note_on_c, 1, 41, 0
3, 6879, Note_on_c, 1, 43, 91
3, 6910, Note_on_c, 1, 43, 0
3, 6912, Note_on_c, 1, 39, 88
3, 7004, Note_on_c, 1, 39, 0
3, 7007, Note_on_c, 1, 37, 96
3, 7101, Note_on_c, 1, 37, 0
3, 7103, Note_on_c, 1, 36, 98
3, 7197, Note_on_c, 1, 36, 0
3, 7199, Note_on_c, 1, 34, 100
3, 7260, Note_on_c, 1, 34, 0
3, 7263, Note_on_c, 1, 38, 90
3, 7293, Note_on_c, 1, 38, 0
3, 7295, Note_on_c, 1, 39, 96
3, 7389, Note_on_c, 1, 39, 0
3, 7391, Note_on_c, 1, 37, 93
3, 7485, Note_on_c, 1, 37, 0
3, 7487, Note_on_c, 1, 36, 95
3, 7581, Note_on_c, 1, 36, 0
3, 7583, Note_on_c, 1, 35, 97
3, 7677, Note_on_c, 1, 35, 0
3, 7679, Note_on_c, 1, 34, 109
3, 7773, Note_on_c, 1, 34, 0
3, 7775, Note_on_c, 1, 38, 98
3, 7869, Note_on_c, 1, 38, 0
3, 7871, Note_on_c, 1, 41, 98
3, 7965, Note_on_c, 1, 41, 0
3, 7967, Note_on_c, 1, 43, 88
3, 7997, Note_on_c, 1, 43, 0
3, 7999, Note_on_c, 1, 41, 86
3, 8027, Note_on_c, 1, 41, 0
3, 8031, Note_on_c, 1, 43, 92
3, 8062, Note_on_c, 1, 43, 0
3, 8064, Note_on_c, 1, 34, 93
3, 8157, Note_on_c, 1, 34, 0
3, 8159, Note_on_c, 1, 38, 91
3, 8253, Note_on_c, 1, 38, 0
3, 8255, Note_on_c, 1, 41, 99
3, 8349, Note_on_c, 1, 41, 0
3, 8351, Note_on_c, 1, 43, 96
3, 8381, Note_on_c, 1, 43, 0
3, 8383, Note_on_c, 1, 41, 85
3, 8411, Note_on_c, 1, 41, 0
3, 8415, Note_on_c, 1, 43, 91
3, 8445, Note_on_c, 1, 43, 0
3, 8447, Note_on_c, 1, 41, 91
3, 8527, Note_on_c, 1, 41, 0
3, 8543, Note_on_c, 1, 41, 91
3, 8636, Note_on_c, 1, 41, 0
3, 8641, Note_on_c, 1, 41, 86
3, 8703, Note_on_c, 1, 41, 0
3, 8705, Note_on_c, 1, 36, 87
3, 8732, Note_on_c, 1, 36, 0
3, 8737, Note_on_c, 1, 41, 95
3, 8765, Note_on_c, 1, 41, 0
3, 8767, Note_on_c, 1, 36, 82
3, 8797, Note_on_c, 1, 36, 0
3, 8799, Note_on_c, 1, 41, 95
3, 8830, Note_on_c, 1, 41, 0
3, 8832, Note_on_c, 1, 39, 90
3, 8926, Note_on_c, 1, 39, 0
3, 8928, Note_on_c, 1, 37, 87
3, 9021, Note_on_c, 1, 37, 0
3, 9023, Note_on_c, 1, 36, 88
3, 9118, Note_on_c, 1, 36, 0
3, 9120, Note_on_c, 1, 35, 98
3, 9213, Note_on_c, 1, 35, 0
3, 9215, Note_on_c, 1, 34, 88
3, 9309, Note_on_c, 1, 34, 0
3, 9311, Note_on_c, 1, 38, 91
3, 9405, Note_on_c, 1, 38, 0
3, 9407, Note_on_c, 1, 39, 93
3, 9501, Note_on_c, 1, 39, 0
3, 9503, Note_on_c, 1, 40, 103
3, 9597, Note_on_c, 1, 40, 0
3, 9599, Note_on_c, 1, 41, 95
3, 9651, Note_on_c, 1, 41, 0
3, 9663, Note_on_c, 1, 41, 71
3, 9684, Note_on_c, 1, 41, 0
3, 9695, Note_on_c, 1, 41, 91
3, 9742, Note_on_c, 1, 41, 0
3, 9759, Note_on_c, 1, 41, 74
3, 9778, Note_on_c, 1, 41, 0
3, 9791, Note_on_c, 1, 41, 88
3, 9836, Note_on_c, 1, 41, 0
3, 9855, Note_on_c, 1, 41, 73
3, 9864, Note_on_c, 1, 41, 0
3, 9887, Note_on_c, 1, 41, 94
3, 9917, Note_on_c, 1, 41, 0
3, 9919, Note_on_c, 1, 36, 93
3, 9949, Note_on_c, 1, 36, 0
3, 9951, Note_on_c, 1, 41, 96
3, 9983, Note_on_c, 1, 41, 0
3, 9985, Note_on_c, 1, 46, 100
3, 10032, Note_on_c, 1, 46, 0
3, 10047, Note_on_c, 1, 46, 105
3, 10075, Note_on_c, 1, 46, 0
3, 10079, Note_on_c, 1, 44, 91
3, 10126, Note_on_c, 1, 44, 0
3, 10143, Note_on_c, 1, 44, 102
3, 10173, Note_on_c, 1, 44, 0
3, 10175, Note_on_c, 1, 43, 97
3, 10219, Note_on_c, 1, 43, 0
3, 10239, Note_on_c, 1, 43, 104
3, 10269, Note_on_c, 1, 43, 0
3, 10271, Note_on_c, 1, 41, 92
3, 10301, Note_on_c, 1, 41, 0
3, 10303, Note_on_c, 1, 44, 100
3, 10333, Note_on_c, 1, 44, 0
3, 10335, Note_on_c, 1, 45, 91
3, 10365, Note_on_c, 1, 45, 0
3, 10367, Note_on_c, 1, 46, 100
3, 10420, Note_on_c, 1, 46, 0
3, 10433, Note_on_c, 1, 46, 93
3, 10463, Note_on_c, 1, 46, 0
3, 10465, Note_on_c, 1, 44, 95
3, 10505, Note_on_c, 1, 44, 0
3, 10527, Note_on_c, 1, 44, 92
3, 10557, Note_on_c, 1, 44, 0
3, 10559, Note_on_c, 1, 43, 91
3, 10605, Note_on_c, 1, 43, 0
3, 10623, Note_on_c, 1, 43, 106
3, 10653, Note_on_c, 1, 43, 0
3, 10655, Note_on_c, 1, 41, 98
3, 10685, Note_on_c, 1, 41, 0
3, 10687, Note_on_c, 1, 44, 92
3, 10716, Note_on_c, 1, 44, 0
3, 10719, Note_on_c, 1, 45, 91
3, 10749, Note_on_c, 1, 45, 0
3, 10751, Note_on_c, 1, 46, 102
3, 10805, Note_on_c, 1, 46, 0
3, 10815, Note_on_c, 1, 46, 95
3, 10844, Note_on_c, 1, 46, 0
3, 10847, Note_on_c, 1, 44, 90
3, 10893, Note_on_c, 1, 44, 0
3, 10911, Note_on_c, 1, 44, 93
3, 10941, Note_on_c, 1, 44, 0
3, 10943, Note_on_c, 1, 43, 98
3, 10987, Note_on_c, 1, 43, 0
3, 11007, Note_on_c, 1, 43, 101
3, 11037, Note_on_c, 1, 43, 0
3, 11039, Note_on_c, 1, 41, 95
3, 11069, Note_on_c, 1, 41, 0
3, 11071, Note_on_c, 1, 44, 93
3, 11099, Note_on_c, 1, 44, 0
3, 11103, Note_on_c, 1, 45, 91
3, 11133, Note_on_c, 1, 45, 0
3, 11135, Note_on_c, 1, 46, 79
3, 11159, Note_on_c, 1, 46, 0
3, 11167, Note_on_c, 1, 46, 83
3, 11184, Note_on_c, 1, 46, 0
3, 11199, Note_on_c, 1, 46, 97
3, 11229, Note_on_c, 1, 46, 0
3, 11231, Note_on_c, 1, 44, 88
3, 11253, Note_on_c, 1, 44, 0
3, 11263, Note_on_c, 1, 44, 90
3, 11277, Note_on_c, 1, 44, 0
3, 11295, Note_on_c, 1, 44, 99
3, 11325, Note_on_c, 1, 44, 0
3, 11327, Note_on_c, 1, 43, 99
3, 11346, Note_on_c, 1, 43, 0
3, 11359, Note_on_c, 1, 43, 98
3, 11373, Note_on_c, 1, 43, 0
3, 11391, Note_on_c, 1, 43, 102
3, 11421, Note_on_c, 1, 43, 0
3, 11423, Note_on_c, 1, 41, 99
3, 11445, Note_on_c, 1, 41, 0
3, 11455, Note_on_c, 1, 41, 94
3, 11466, Note_on_c, 1, 41, 0
3, 11487, Note_on_c, 1, 41, 98
3, 11517, Note_on_c, 1, 41, 0
3, 11519, Note_on_c, 1, 39, 102
3, 11613, Note_on_c, 1, 39, 0
3, 11615, Note_on_c, 1, 37, 100
3, 11709, Note_on_c, 1, 37, 0
3, 11711, Note_on_c, 1, 36, 98
3, 11805, Note_on_c, 1, 36, 0
3, 11807, Note_on_c, 1, 34, 86
3, 11837, Note_on_c, 1, 34, 0
3, 11839, Note_on_c, 1, 36, 97
3, 11869, Note_on_c, 1, 36, 0
3, 11871, Note_on_c, 1, 38, 97
3, 11901, Note_on_c, 1, 38, 0
3, 11903, Note_on_c, 1, 39, 86
3, 11997, Note_on_c, 1, 39, 0
3, 11999, Note_on_c, 1, 37, 107
3, 12092, Note_on_c, 1, 37, 0
3, 12095, Note_on_c, 1, 36, 98
3, 12189, Note_on_c, 1, 36, 0
3, 12191, Note_on_c, 1, 35, 96
3, 12286, Note_on_c, 1, 35, 0
3, 12288, Note_on_c, 1, 34, 99
3, 12381, Note_on_c, 1, 34, 0
3, 12383, Note_on_c, 1, 38, 109
3, 12472, Note_on_c, 1, 38, 0
3, 12479, Note_on_c, 1, 41, 95
3, 12573, Note_on_c, 1, 41, 0
3, 12575, Note_on_c, 1, 43, 95
3, 12605, Note_on_c, 1, 43, 0
3, 12607, Note_on_c, 1, 41, 91
3, 12637, Note_on_c, 1, 41, 0
3, 12639, Note_on_c, 1, 43, 96
3, 12669, Note_on_c, 1, 43, 0
3, 12671, Note_on_c, 1, 34, 85
3, 12762, Note_on_c, 1, 34, 0
3, 12767, Note_on_c, 1, 38, 98
3, 12861, Note_on_c, 1, 38, 0
3, 12863, Note_on_c, 1, 41, 98
3, 12957, Note_on_c, 1, 41, 0
3, 12959, Note_on_c, 1, 43, 98
3, 12989, Note_on_c, 1, 43, 0
3, 12991, Note_on_c, 1, 41, 95
3, 13021, Note_on_c, 1, 41, 0
3, 13023, Note_on_c, 1, 43, 97
3, 13053, Note_on_c, 1, 43, 0
3, 13055, Note_on_c, 1, 41, 95
3, 13108, Note_on_c, 1, 41, 0
3, 13119, Note_on_c, 1, 41, 72
3, 13142, Note_on_c, 1, 41, 0
3, 13152, Note_on_c, 1, 41, 97
3, 13203, Note_on_c, 1, 41, 0
3, 13215, Note_on_c, 1, 41, 75
3, 13233, Note_on_c, 1, 41, 0
3, 13248, Note_on_c, 1, 41, 91
3, 13297, Note_on_c, 1, 41, 0
3, 13311, Note_on_c, 1, 41, 71
3, 13323, Note_on_c, 1, 41, 0
3, 13343, Note_on_c, 1, 41, 97
3, 13374, Note_on_c, 1, 41, 0
3, 13376, Note_on_c, 1, 36, 89
3, 13405, Note_on_c, 1, 36, 0
3, 13408, Note_on_c, 1, 41, 98
3, 13437, Note_on_c, 1, 41, 0
3, 13439, Note_on_c, 1, 39, 97
3, 13484, Note_on_c, 1, 39, 0
3, 13503, Note_on_c, 1, 39, 102
3, 13533, Note_on_c, 1, 39, 0
3, 13535, Note_on_c, 1, 37, 99
3, 13577, Note_on_c, 1, 37, 0
3, 13599, Note_on_c, 1, 37, 102
3, 13629, Note_on_c, 1, 37, 0
3, 13631, Note_on_c, 1, 36, 96
3, 13678, Note_on_c, 1, 36, 0
3, 13696, Note_on_c, 1, 36, 105
3, 13725, Note_on_c, 1, 36, 0
3, 13727, Note_on_c, 1, 35, 98
3, 13789, Note_on_c, 1, 35, 0
3, 13791, Note_on_c, 1, 33, 109
3, 13821, Note_on_c, 1, 33, 0
3, 13823, Note_on_c, 1, 34, 117
3, 13917, Note_on_c, 1, 34, 0
3, 13919, Note_on_c, 1, 38, 98
3, 13981, Note_on_c, 1, 38, 0
3, 13983, Note_on_c, 1, 39, 74
3, 14009, Note_on_c, 1, 39, 0
3, 14015, Note_on_c, 1, 39, 105
3, 14077, Note_on_c, 1, 39, 0
3, 14079, Note_on_c, 1, 40, 86
3, 14104, Note_on_c, 1, 40, 0
3, 14111, Note_on_c, 1, 40, 98
3, 14173, Note_on_c, 1, 40, 0
3, 14175, Note_on_c, 1, 41, 91
3, 14203, Note_on_c, 1, 41, 0
3, 14209, Note_on_c, 1, 41, 74
3, 14229, Note_on_c, 1, 41, 0
3, 14239, Note_on_c, 1, 41, 78
3, 14255, Note_on_c, 1, 41, 0
3, 14271, Note_on_c, 1, 41, 101
3, 14287, Note_on_c, 1, 41, 0
3, 14303, Note_on_c, 1, 41, 103
3, 14327, Note_on_c, 1, 41, 0
3, 14335, Note_on_c, 1, 41, 88
3, 14354, Note_on_c, 1, 41, 0
3, 14367, Note_on_c, 1, 41, 88
3, 14383, Note_on_c, 1, 41, 0
3, 14399, Note_on_c, 1, 41, 96
3, 14422, Note_on_c, 1, 41, 0
3, 14431, Note_on_c, 1, 41, 91
3, 14447, Note_on_c, 1, 41, 0
3, 14463, Note_on_c, 1, 41, 91
3, 14475, Note_on_c, 1, 41, 0
3, 14495, Note_on_c, 1, 41, 108
3, 14525, Note_on_c, 1, 41, 0
3, 14527, Note_on_c, 1, 36, 109
3, 14557, Note_on_c, 1, 36, 0
3, 14559, Note_on_c, 1, 29, 105
3, 14590, Note_on_c, 1, 29, 0
3, 14592, Note_on_c, 1, 34, 103
3, 14633, Note_on_c, 1, 34, 0
3, 14655, Note_on_c, 1, 34, 92
3, 14686, Note_on_c, 1, 34, 0
3, 14688, Note_on_c, 1, 38, 103
3, 14722, Note_on_c, 1, 38, 0
3, 14751, Note_on_c, 1, 38, 104
3, 14781, Note_on_c, 1, 38, 0
3, 14783, Note_on_c, 1, 41, 96
3, 14822, Note_on_c, 1, 41, 0
3, 14848, Note_on_c, 1, 41, 101
3, 14877, Note_on_c, 1, 41, 0
3, 14879, Note_on_c, 1, 40, 92
3, 14973, Note_on_c, 1, 40, 0
3, 14975, Note_on_c, 1, 39, 99
3, 15019, Note_on_c, 1, 39, 0
3, 15039, Note_on_c, 1, 39, 97
3, 15069, Note_on_c, 1, 39, 0
3, 15072, Note_on_c, 1, 37, 92
3, 15110, Note_on_c, 1, 37, 0
3, 15135, Note_on_c, 1, 37, 96
3, 15165, Note_on_c, 1, 37, 0
3, 15167, Note_on_c, 1, 36, 88
3, 15205, Note_on_c, 1, 36, 0
3, 15231, Note_on_c, 1, 36, 97
3, 15261, Note_on_c, 1, 36, 0
3, 15263, Note_on_c, 1, 35, 95
3, 15320, Note_on_c, 1, 35, 0
3, 15327, Note_on_c, 1, 33, 103
3, 15359, Note_on_c, 1, 33, 0
3, 15361, Note_on_c, 1, 34, 102
3, 15394, Note_on_c, 1, 34, 0
3, 15423, Note_on_c, 1, 34, 96
3, 15454, Note_on_c, 1, 34, 0
3, 15456, Note_on_c, 1, 38, 97
3, 15496, Note_on_c, 1, 38, 0
3, 15519, Note_on_c, 1, 38, 98
3, 15550, Note_on_c, 1, 38, 0
3, 15552, Note_on_c, 1, 41, 91
3, 15595, Note_on_c, 1, 41, 0
3, 15617, Note_on_c, 1, 41, 97
3, 15645, Note_on_c, 1, 41, 0
3, 15647, Note_on_c, 1, 43, 84
3, 15677, Note_on_c, 1, 43, 0
3, 15679, Note_on_c, 1, 41, 83
3, 15709, Note_on_c, 1, 41, 0
3, 15711, Note_on_c, 1, 43, 98
3, 15741, Note_on_c, 1, 43, 0
3, 15743, Note_on_c, 1, 34, 93
3, 15781, Note_on_c, 1, 34, 0
3, 15807, Note_on_c, 1, 34, 95
3, 15839, Note_on_c, 1, 34, 0
3, 15841, Note_on_c, 1, 38, 91
3, 15881, Note_on_c, 1, 38, 0
3, 15903, Note_on_c, 1, 38, 96
3, 15935, Note_on_c, 1, 38, 0
3, 15937, Note_on_c, 1, 41, 97
3, 15975, Note_on_c, 1, 41, 0
3, 15999, Note_on_c, 1, 41, 98
3, 16029, Note_on_c, 1, 41, 0
3, 16031, Note_on_c, 1, 43, 95
3, 16061, Note_on_c, 1, 43, 0
3, 16063, Note_on_c, 1, 41, 88
3, 16093, Note_on_c, 1, 41, 0
3, 16095, Note_on_c, 1, 43, 102
3, 16120, Note_on_c, 1, 43, 0
3, 16127, Note_on_c, 1, 39, 99
3, 16165, Note_on_c, 1, 39, 0
3, 16191, Note_on_c, 1, 39, 100
3, 16221, Note_on_c, 1, 39, 0
3, 16223, Note_on_c, 1, 37, 86
3, 16266, Note_on_c, 1, 37, 0
3, 16287, Note_on_c, 1, 37, 95
3, 16317, Note_on_c, 1, 37, 0
3, 16319, Note_on_c, 1, 36, 95
3, 16361, Note_on_c, 1, 36, 0
3, 16385, Note_on_c, 1, 36, 96
3, 16414, Note_on_c, 1, 36, 0
3, 16416, Note_on_c, 1, 34, 93
3, 16445, Note_on_c, 1, 34, 0
3, 16447, Note_on_c, 1, 36, 93
3, 16476, Note_on_c, 1, 36, 0
3, 16479, Note_on_c, 1, 38, 97
3, 16509, Note_on_c, 1, 38, 0
3, 16511, Note_on_c, 1, 39, 80
3, 16560, Note_on_c, 1, 39, 0
3, 16575, Note_on_c, 1, 39, 103
3, 16605, Note_on_c, 1, 39, 0
3, 16607, Note_on_c, 1, 37, 102
3, 16643, Note_on_c, 1, 37, 0
3, 16671, Note_on_c, 1, 37, 99
3, 16701, Note_on_c, 1, 37, 0
3, 16703, Note_on_c, 1, 36, 91
3, 16742, Note_on_c, 1, 36, 0
3, 16767, Note_on_c, 1, 36, 89
3, 16797, Note_on_c, 1, 36, 0
3, 16799, Note_on_c, 1, 35, 102
3, 16859, Note_on_c, 1, 35, 0
3, 16863, Note_on_c, 1, 33, 101
3, 16893, Note_on_c, 1, 33, 0
3, 16895, Note_on_c, 1, 34, 90
3, 16931, Note_on_c, 1, 34, 0
3, 16959, Note_on_c, 1, 34, 85
3, 16989, Note_on_c, 1, 34, 0
3, 16991, Note_on_c, 1, 38, 89
3, 17031, Note_on_c, 1, 38, 0
3, 17055, Note_on_c, 1, 38, 91
3, 17085, Note_on_c, 1, 38, 0
3, 17087, Note_on_c, 1, 41, 98
3, 17128, Note_on_c, 1, 41, 0
3, 17152, Note_on_c, 1, 41, 94
3, 17181, Note_on_c, 1, 41, 0
3, 17183, Note_on_c, 1, 43, 88
3, 17214, Note_on_c, 1, 43, 0
3, 17216, Note_on_c, 1, 41, 79
3, 17244, Note_on_c, 1, 41, 0
3, 17247, Note_on_c, 1, 43, 94
3, 17277, Note_on_c, 1, 43, 0
3, 17279, Note_on_c, 1, 34, 84
3, 17320, Note_on_c, 1, 34, 0
3, 17343, Note_on_c, 1, 34, 81
3, 17373, Note_on_c, 1, 34, 0
3, 17375, Note_on_c, 1, 38, 91
3, 17416, Note_on_c, 1, 38, 0
3, 17439, Note_on_c, 1, 38, 91
3, 17469, Note_on_c, 1, 38, 0
3, 17471, Note_on_c, 1, 41, 94
3, 17515, Note_on_c, 1, 41, 0
3, 17535, Note_on_c, 1, 41, 86
3, 17565, Note_on_c, 1, 41, 0
3, 17567, Note_on_c, 1, 43, 91
3, 17597, Note_on_c, 1, 43, 0
3, 17599, Note_on_c, 1, 41, 86
3, 17628, Note_on_c, 1, 41, 0
3, 17631, Note_on_c, 1, 43, 92
3, 17661, Note_on_c, 1, 43, 0
3, 17663, Note_on_c, 1, 41, 92
3, 17713, Note_on_c, 1, 41, 0
3, 17728, Note_on_c, 1, 41, 79
3, 17748, Note_on_c, 1, 41, 0
3, 17760, Note_on_c, 1, 41, 90
3, 17805, Note_on_c, 1, 41, 0
3, 17823, Note_on_c, 1, 41, 69
3, 17842, Note_on_c, 1, 41, 0
3, 17855, Note_on_c, 1, 41, 88
3, 17903, Note_on_c, 1, 41, 0
3, 17919, Note_on_c, 1, 41, 81
3, 17933, Note_on_c, 1, 41, 0
3, 17951, Note_on_c, 1, 41, 96
3, 17981, Note_on_c, 1, 41, 0
3, 17983, Note_on_c, 1, 36, 85
3, 18011, Note_on_c, 1, 36, 0
3, 18015, Note_on_c, 1, 41, 92
3, 18045, Note_on_c, 1, 41, 0
3, 18047, Note_on_c, 1, 39, 86
3, 18085, Note_on_c, 1, 39, 0
3, 18111, Note_on_c, 1, 39, 96
3, 18141, Note_on_c, 1, 39, 0
3, 18143, Note_on_c, 1, 37, 100
3, 18186, Note_on_c, 1, 37, 0
3, 18207, Note_on_c, 1, 37, 91
3, 18237, Note_on_c, 1, 37, 0
3, 18239, Note_on_c, 1, 36, 91
3, 18280, Note_on_c, 1, 36, 0
3, 18303, Note_on_c, 1, 36, 93
3, 18333, Note_on_c, 1, 36, 0
3, 18335, Note_on_c, 1, 35, 104
3, 18396, Note_on_c, 1, 35, 0
3, 18399, Note_on_c, 1, 33, 103
3, 18429, Note_on_c, 1, 33, 0
3, 18431, Note_on_c, 1, 34, 107
3, 18473, Note_on_c, 1, 34, 0
3, 18496, Note_on_c, 1, 34, 102
3, 18525, Note_on_c, 1, 34, 0
3, 18527, Note_on_c, 1, 38, 99
3, 18574, Note_on_c, 1, 38, 0
3, 18591, Note_on_c, 1, 38, 98
3, 18623, Note_on_c, 1, 38, 0
3, 18625, Note_on_c, 1, 39, 103
3, 18669, Note_on_c, 1, 39, 0
3, 18687, Note_on_c, 1, 39, 107
3, 18716, Note_on_c, 1, 39, 0
3, 18719, Note_on_c, 1, 40, 98
3, 18768, Note_on_c, 1, 40, 0
3, 18783, Note_on_c, 1, 40, 110
3, 18813, Note_on_c, 1, 40, 0
3, 18815, Note_on_c, 1, 41, 89
3, 18840, Note_on_c, 1, 41, 0
3, 18849, Note_on_c, 1, 41, 76
3, 18864, Note_on_c, 1, 41, 0
3, 18879, Note_on_c, 1, 41, 83
3, 18895, Note_on_c, 1, 41, 0
3, 18911, Note_on_c, 1, 41, 102
3, 18937, Note_on_c, 1, 41, 0
3, 18945, Note_on_c, 1, 41, 71
3, 18960, Note_on_c, 1, 41, 0
3, 18977, Note_on_c, 1, 41, 88
3, 18994, Note_on_c, 1, 41, 0
3, 19008, Note_on_c, 1, 41, 98
3, 19030, Note_on_c, 1, 41, 0
3, 19041, Note_on_c, 1, 41, 77
3, 19052, Note_on_c, 1, 41, 0
3, 19072, Note_on_c, 1, 41, 95
3, 19084, Note_on_c, 1, 41, 0
3, 19103, Note_on_c, 1, 41, 98
3, 19135, Note_on_c, 1, 41, 0
3, 19137, Note_on_c, 1, 36, 96
3, 19166, Note_on_c, 1, 36, 0
3, 19168, Note_on_c, 1, 41, 104
3, 19198, Note_on_c, 1, 41, 0
3, 19200, Note_on_c, 1, 46, 102
3, 19250, Note_on_c, 1, 46, 0
3, 19265, Note_on_c, 1, 46, 105
3, 19294, Note_on_c, 1, 46, 0
3, 19296, Note_on_c, 1, 44, 93
3, 19334, Note_on_c, 1, 44, 0
3, 19358, Note_on_c, 1, 44, 97
3, 19389, Note_on_c, 1, 44, 0
3, 19391, Note_on_c, 1, 43, 87
3, 19438, Note_on_c, 1, 43, 0
3, 19455, Note_on_c, 1, 43, 102
3, 19485, Note_on_c, 1, 43, 0
3, 19487, Note_on_c, 1, 41, 101
3, 19517, Note_on_c, 1, 41, 0
3, 19519, Note_on_c, 1, 44, 102
3, 19548, Note_on_c, 1, 44, 0
3, 19551, Note_on_c, 1, 45, 98
3, 19581, Note_on_c, 1, 45, 0
3, 19583, Note_on_c, 1, 46, 100
3, 19632, Note_on_c, 1, 46, 0
3, 19647, Note_on_c, 1, 46, 102
3, 19677, Note_on_c, 1, 46, 0
3, 19679, Note_on_c, 1, 44, 92
3, 19719, Note_on_c, 1, 44, 0
3, 19742, Note_on_c, 1, 44, 96
3, 19773, Note_on_c, 1, 44, 0
3, 19775, Note_on_c, 1, 43, 83
3, 19820, Note_on_c, 1, 43, 0
3, 19839, Note_on_c, 1, 43, 94
3, 19869, Note_on_c, 1, 43, 0
3, 19871, Note_on_c, 1, 41, 89
3, 19901, Note_on_c, 1, 41, 0
3, 19903, Note_on_c, 1, 44, 102
3, 19930, Note_on_c, 1, 44, 0
3, 19935, Note_on_c, 1, 45, 93
3, 19965, Note_on_c, 1, 45, 0
3, 19967, Note_on_c, 1, 46, 95
3, 20015, Note_on_c, 1, 46, 0
3, 20031, Note_on_c, 1, 46, 102
3, 20060, Note_on_c, 1, 46, 0
3, 20063, Note_on_c, 1, 44, 96
3, 20106, Note_on_c, 1, 44, 0
3, 20127, Note_on_c, 1, 44, 92
3, 20157, Note_on_c, 1, 44, 0
3, 20159, Note_on_c, 1, 43, 90
3, 20200, Note_on_c, 1, 43, 0
3, 20223, Note_on_c, 1, 43, 104
3, 20253, Note_on_c, 1, 43, 0
3, 20255, Note_on_c, 1, 41, 93
3, 20285, Note_on_c, 1, 41, 0
3, 20287, Note_on_c, 1, 44, 97
3, 20315, Note_on_c, 1, 44, 0
3, 20319, Note_on_c, 1, 45, 96
3, 20349, Note_on_c, 1, 45, 0
3, 20351, Note_on_c, 1, 46, 88
3, 20374, Note_on_c, 1, 46, 0
3, 20383, Note_on_c, 1, 46, 95
3, 20403, Note_on_c, 1, 46, 0
3, 20415, Note_on_c, 1, 46, 95
3, 20445, Note_on_c, 1, 46, 0
3, 20447, Note_on_c, 1, 44, 89
3, 20472, Note_on_c, 1, 44, 0
3, 20479, Note_on_c, 1, 44, 83
3, 20498, Note_on_c, 1, 44, 0
3, 20511, Note_on_c, 1, 44, 96
3, 20540, Note_on_c, 1, 44, 0
3, 20543, Note_on_c, 1, 43, 91
3, 20565, Note_on_c, 1, 43, 0
3, 20575, Note_on_c, 1, 43, 98
3, 20588, Note_on_c, 1, 43, 0
3, 20607, Note_on_c, 1, 43, 91
3, 20637, Note_on_c, 1, 43, 0
3, 20639, Note_on_c, 1, 42, 111
3, 20669, Note_on_c, 1, 42, 0
3, 20671, Note_on_c, 1, 41, 97
3, 20701, Note_on_c, 1, 41, 0
3, 20703, Note_on_c, 1, 40, 98
3, 20733, Note_on_c, 1, 40, 0
3, 20735, Note_on_c, 1, 39, 93
3, 20774, Note_on_c, 1, 39, 0
3, 20799, Note_on_c, 1, 39, 86
3, 20829, Note_on_c, 1, 39, 0
3, 20831, Note_on_c, 1, 37, 85
3, 20870, Note_on_c, 1, 37, 0
3, 20894, Note_on_c, 1, 37, 102
3, 20925, Note_on_c, 1, 37, 0
3, 20927, Note_on_c, 1, 36, 98
3, 20968, Note_on_c, 1, 36, 0
3, 20992, Note_on_c, 1, 36, 99
3, 21023, Note_on_c, 1, 36, 0
3, 21025, Note_on_c, 1, 34, 92
3, 21051, Note_on_c, 1, 34, 0
3, 21055, Note_on_c, 1, 36, 94
3, 21085, Note_on_c, 1, 36, 0
3, 21087, Note_on_c, 1, 38, 98
3, 21117, Note_on_c, 1, 38, 0
3, 21119, Note_on_c, 1, 39, 88
3, 21168, Note_on_c, 1, 39, 0
3, 21183, Note_on_c, 1, 39, 100
3, 21214, Note_on_c, 1, 39, 0
3, 21216, Note_on_c, 1, 37, 105
3, 21254, Note_on_c, 1, 37, 0
3, 21279, Note_on_c, 1, 37, 107
3, 21309, Note_on_c, 1, 37, 0
3, 21311, Note_on_c, 1, 36, 102
3, 21354, Note_on_c, 1, 36, 0
3, 21375, Note_on_c, 1, 36, 97
3, 21405, Note_on_c, 1, 36, 0
3, 21407, Note_on_c, 1, 35, 97
3, 21447, Note_on_c, 1, 35, 0
3, 21471, Note_on_c, 1, 35, 97
3, 21501, Note_on_c, 1, 35, 0
3, 21503, Note_on_c, 1, 34, 95
3, 21552, Note_on_c, 1, 34, 0
3, 21567, Note_on_c, 1, 34, 93
3, 21597, Note_on_c, 1, 34, 0
3, 21599, Note_on_c, 1, 38, 98
3, 21642, Note_on_c, 1, 38, 0
3, 21662, Note_on_c, 1, 38, 101
3, 21693, Note_on_c, 1, 38, 0
3, 21695, Note_on_c, 1, 41, 97
3, 21736, Note_on_c, 1, 41, 0
3, 21759, Note_on_c, 1, 41, 98
3, 21786, Note_on_c, 1, 41, 0
3, 21791, Note_on_c, 1, 43, 91
3, 21821, Note_on_c, 1, 43, 0
3, 21823, Note_on_c, 1, 41, 98
3, 21852, Note_on_c, 1, 41, 0
3, 21854, Note_on_c, 1, 43, 97
3, 21885, Note_on_c, 1, 43, 0
3, 21887, Note_on_c, 1, 34, 93
3, 21923, Note_on_c, 1, 34, 0
3, 21951, Note_on_c, 1, 34, 99
3, 21981, Note_on_c, 1, 34, 0
3, 21983, Note_on_c, 1, 38, 98
3, 22021, Note_on_c, 1, 38, 0
3, 22047, Note_on_c, 1, 38, 103
3, 22078, Note_on_c, 1, 38, 0
3, 22080, Note_on_c, 1, 41, 99
3, 22115, Note_on_c, 1, 41, 0
3, 22143, Note_on_c, 1, 41, 99
3, 22170, Note_on_c, 1, 41, 0
3, 22175, Note_on_c, 1, 43, 91
3, 22205, Note_on_c, 1, 43, 0
3, 22207, Note_on_c, 1, 41, 98
3, 22234, Note_on_c, 1, 41, 0
3, 22238, Note_on_c, 1, 43, 96
3, 22269, Note_on_c, 1, 43, 0
3, 22271, Note_on_c, 1, 41, 99
3, 22298, Note_on_c, 1, 41, 0
3, 22303, Note_on_c, 1, 41, 84
3, 22326, Note_on_c, 1, 41, 0
3, 22335, Note_on_c, 1, 41, 87
3, 22347, Note_on_c, 1, 41, 0
3, 22367, Note_on_c, 1, 41, 95
3, 22419, Note_on_c, 1, 41, 0
3, 22431, Note_on_c, 1, 41, 79
3, 22447, Note_on_c, 1, 41, 0
3, 22464, Note_on_c, 1, 41, 92
3, 22509, Note_on_c, 1, 41, 0
3, 22527, Note_on_c, 1, 41, 77
3, 22542, Note_on_c, 1, 41, 0
3, 22559, Note_on_c, 1, 41, 94
3, 22589, Note_on_c, 1, 41, 0
3, 22591, Note_on_c, 1, 36, 82
3, 22620, Note_on_c, 1, 36, 0
3, 22623, Note_on_c, 1, 41, 95
3, 22653, Note_on_c, 1, 41, 0
3, 22655, Note_on_c, 1, 39, 96
3, 22694, Note_on_c, 1, 39, 0
3, 22718, Note_on_c, 1, 39, 97
3, 22749, Note_on_c, 1, 39, 0
3, 22751, Note_on_c, 1, 37, 102
3, 22797, Note_on_c, 1, 37, 0
3, 22815, Note_on_c, 1, 37, 103
3, 22847, Note_on_c, 1, 37, 0
3, 22849, Note_on_c, 1, 36, 96
3, 22896, Note_on_c, 1, 36, 0
3, 22913, Note_on_c, 1, 36, 97
3, 22942, Note_on_c, 1, 36, 0
3, 22944, Note_on_c, 1, 35, 98
3, 22991, Note_on_c, 1, 35, 0
3, 23007, Note_on_c, 1, 35, 92
3, 23037, Note_on_c, 1, 35, 0
3, 23039, Note_on_c, 1, 34, 97
3, 23077, Note_on_c, 1, 34, 0
3, 23103, Note_on_c, 1, 34, 103
3, 23133, Note_on_c, 1, 34, 0
3, 23135, Note_on_c, 1, 38, 98
3, 23175, Note_on_c, 1, 38, 0
3, 23199, Note_on_c, 1, 38, 98
3, 23229, Note_on_c, 1, 38, 0
3, 23231, Note_on_c, 1, 39, 97
3, 23272, Note_on_c, 1, 39, 0
3, 23295, Note_on_c, 1, 39, 102
3, 23325, Note_on_c, 1, 39, 0
3, 23327, Note_on_c, 1, 40, 88
3, 23370, Note_on_c, 1, 40, 0
3, 23391, Note_on_c, 1, 40, 99
3, 23421, Note_on_c, 1, 40, 0
3, 23423, Note_on_c, 1, 41, 97
3, 23453, Note_on_c, 1, 41, 0
3, 23455, Note_on_c, 1, 29, 84
3, 23471, Note_on_c, 1, 29, 0
3, 23487, Note_on_c, 1, 29, 86
3, 23503, Note_on_c, 1, 29, 0
3, 23519, Note_on_c, 1, 29, 110
3, 23542, Note_on_c, 1, 29, 0
3, 23551, Note_on_c, 1, 29, 89
3, 23570, Note_on_c, 1, 29, 0
3, 23585, Note_on_c, 1, 29, 112
3, 23603, Note_on_c, 1, 29, 0
3, 23617, Note_on_c, 1, 29, 115
3, 23638, Note_on_c, 1, 29, 0
3, 23648, Note_on_c, 1, 29, 94
3, 23663, Note_on_c, 1, 29, 0
3, 23679, Note_on_c, 1, 29, 113
3, 23690, Note_on_c, 1, 29, 0
3, 23711, Note_on_c, 1, 29, 110
3, 23741, Note_on_c, 1, 29, 0
3, 23743, Note_on_c, 1, 31, 110
3, 23773, Note_on_c, 1, 31, 0
3, 23775, Note_on_c, 1, 33, 124
3, 23806, Note_on_c, 1, 33, 0
3, 23808, Note_on_c, 1, 34, 97
3, 23850, Note_on_c, 1, 34, 0
3, 23871, Note_on_c, 1, 34, 100
3, 23901, Note_on_c, 1, 34, 0
3, 23903, Note_on_c, 1, 38, 103
3, 23948, Note_on_c, 1, 38, 0
3, 23967, Note_on_c, 1, 38, 96
3, 23997, Note_on_c, 1, 38, 0
3, 23999, Note_on_c, 1, 41, 95
3, 24041, Note_on_c, 1, 41, 0
3, 24063, Note_on_c, 1, 41, 93
3, 24093, Note_on_c, 1, 41, 0
3, 24095, Note_on_c, 1, 43, 97
3, 24125, Note_on_c, 1, 43, 0
3, 24127, Note_on_c, 1, 41, 91
3, 24157, Note_on_c, 1, 41, 0
3, 24159, Note_on_c, 1, 38, 103
3, 24189, Note_on_c, 1, 38, 0
3, 24191, Note_on_c, 1, 34, 103
3, 24231, Note_on_c, 1, 34, 0
3, 24255, Note_on_c, 1, 34, 103
3, 24287, Note_on_c, 1, 34, 0
3, 24289, Note_on_c, 1, 38, 98
3, 24332, Note_on_c, 1, 38, 0
3, 24352, Note_on_c, 1, 38, 98
3, 24383, Note_on_c, 1, 38, 0
3, 24385, Note_on_c, 1, 41, 93
3, 24424, Note_on_c, 1, 41, 0
3, 24448, Note_on_c, 1, 41, 91
3, 24477, Note_on_c, 1, 41, 0
3, 24479, Note_on_c, 1, 43, 96
3, 24509, Note_on_c, 1, 43, 0
3, 24511, Note_on_c, 1, 41, 91
3, 24541, Note_on_c, 1, 41, 0
3, 24543, Note_on_c, 1, 38, 94
3, 24573, Note_on_c, 1, 38, 0
3, 24575, Note_on_c, 1, 34, 99
3, 24617, Note_on_c, 1, 34, 0
3, 24639, Note_on_c, 1, 34, 100
3, 24669, Note_on_c, 1, 34, 0
3, 24671, Note_on_c, 1, 38, 98
3, 24712, Note_on_c, 1, 38, 0
3, 24735, Note_on_c, 1, 38, 101
3, 24765, Note_on_c, 1, 38, 0
3, 24767, Note_on_c, 1, 41, 97
3, 24805, Note_on_c, 1, 41, 0
3, 24831, Note_on_c, 1, 41, 98
3, 24861, Note_on_c, 1, 41, 0
3, 24863, Note_on_c, 1, 43, 93
3, 24893, Note_on_c, 1, 43, 0
3, 24895, Note_on_c, 1, 41, 82
3, 24925, Note_on_c, 1, 41, 0
3, 24927, Note_on_c, 1, 43, 87
3, 24957, Note_on_c, 1, 43, 0
3, 24959, Note_on_c, 1, 46, 85
3, 25016, Note_on_c, 1, 46, 0
3, 25024, Note_on_c, 1, 46, 102
3, 25053, Note_on_c, 1, 46, 0
3, 25055, Note_on_c, 1, 44, 100
3, 25099, Note_on_c, 1, 44, 0
3, 25119, Note_on_c, 1, 44, 105
3, 25149, Note_on_c, 1, 44, 0
3, 25151, Note_on_c, 1, 43, 94
3, 25172, Note_on_c, 1, 43, 0
3, 25183, Note_on_c, 1, 43, 78
3, 25198, Note_on_c, 1, 43, 0
3, 25215, Note_on_c, 1, 43, 101
3, 25245, Note_on_c, 1, 43, 0
3, 25247, Note_on_c, 1, 41, 98
3, 25277, Note_on_c, 1, 41, 0
3, 25279, Note_on_c, 1, 43, 99
3, 25309, Note_on_c, 1, 43, 0
3, 25311, Note_on_c, 1, 41, 102
3, 25341, Note_on_c, 1, 41, 0
3, 25343, Note_on_c, 1, 39, 102
3, 25384, Note_on_c, 1, 39, 0
3, 25407, Note_on_c, 1, 39, 103
3, 25439, Note_on_c, 1, 39, 0
3, 25441, Note_on_c, 1, 37, 96
3, 25478, Note_on_c, 1, 37, 0
3, 25503, Note_on_c, 1, 37, 109
3, 25533, Note_on_c, 1, 37, 0
3, 25535, Note_on_c, 1, 36, 92
3, 25581, Note_on_c, 1, 36, 0
3, 25599, Note_on_c, 1, 36, 105
3, 25629, Note_on_c, 1, 36, 0
3, 25631, Note_on_c, 1, 34, 95
3, 25661, Note_on_c, 1, 34, 0
3, 25663, Note_on_c, 1, 36, 97
3, 25692, Note_on_c, 1, 36, 0
3, 25695, Note_on_c, 1, 38, 96
3, 25725, Note_on_c, 1, 38, 0
3, 25727, Note_on_c, 1, 39, 92
3, 25773, Note_on_c, 1, 39, 0
3, 25791, Note_on_c, 1, 39, 105
3, 25821, Note_on_c, 1, 39, 0
3, 25823, Note_on_c, 1, 37, 100
3, 25862, Note_on_c, 1, 37, 0
3, 25887, Note_on_c, 1, 37, 105
3, 25917, Note_on_c, 1, 37, 0
3, 25919, Note_on_c, 1, 36, 99
3, 25965, Note_on_c, 1, 36, 0
3, 25983, Note_on_c, 1, 36, 106
3, 26013, Note_on_c, 1, 36, 0
3, 26015, Note_on_c, 1, 35, 103
3, 26075, Note_on_c, 1, 35, 0
3, 26079, Note_on_c, 1, 29, 91
3, 26109, Note_on_c, 1, 29, 0
3, 26111, Note_on_c, 1, 34, 105
3, 26156, Note_on_c, 1, 34, 0
3, 26175, Note_on_c, 1, 34, 99
3, 26205, Note_on_c, 1, 34, 0
3, 26207, Note_on_c, 1, 38, 95
3, 26251, Note_on_c, 1, 38, 0
3, 26271, Note_on_c, 1, 38, 98
3, 26301, Note_on_c, 1, 38, 0
3, 26303, Note_on_c, 1, 41, 91
3, 26345, Note_on_c, 1, 41, 0
3, 26367, Note_on_c, 1, 41, 93
3, 26397, Note_on_c, 1, 41, 0
3, 26399, Note_on_c, 1, 43, 97
3, 26428, Note_on_c, 1, 43, 0
3, 26431, Note_on_c, 1, 41, 73
3, 26461, Note_on_c, 1, 41, 0
3, 26463, Note_on_c, 1, 43, 95
3, 26494, Note_on_c, 1, 43, 0
3, 26496, Note_on_c, 1, 34, 93
3, 26535, Note_on_c, 1, 34, 0
3, 26559, Note_on_c, 1, 34, 82
3, 26589, Note_on_c, 1, 34, 0
3, 26591, Note_on_c, 1, 38, 95
3, 26633, Note_on_c, 1, 38, 0
3, 26655, Note_on_c, 1, 38, 94
3, 26685, Note_on_c, 1, 38, 0
3, 26687, Note_on_c, 1, 41, 91
3, 26724, Note_on_c, 1, 41, 0
3, 26751, Note_on_c, 1, 41, 91
3, 26781, Note_on_c, 1, 41, 0
3, 26783, Note_on_c, 1, 43, 91
3, 26812, Note_on_c, 1, 43, 0
3, 26815, Note_on_c, 1, 41, 79
3, 26845, Note_on_c, 1, 41, 0
3, 26847, Note_on_c, 1, 43, 94
3, 26877, Note_on_c, 1, 43, 0
3, 26879, Note_on_c, 1, 41, 91
3, 26927, Note_on_c, 1, 41, 0
3, 26945, Note_on_c, 1, 41, 83
3, 26960, Note_on_c, 1, 41, 0
3, 26977, Note_on_c, 1, 41, 102
3, 27023, Note_on_c, 1, 41, 0
3, 27039, Note_on_c, 1, 41, 75
3, 27054, Note_on_c, 1, 41, 0
3, 27072, Note_on_c, 1, 41, 91
3, 27121, Note_on_c, 1, 41, 0
3, 27136, Note_on_c, 1, 41, 95
3, 27148, Note_on_c, 1, 41, 0
3, 27167, Note_on_c, 1, 41, 105
3, 27198, Note_on_c, 1, 41, 0
3, 27200, Note_on_c, 1, 36, 97
3, 27230, Note_on_c, 1, 36, 0
3, 27232, Note_on_c, 1, 38, 101
3, 27262, Note_on_c, 1, 38, 0
3, 27264, Note_on_c, 1, 39, 89
3, 27314, Note_on_c, 1, 39, 0
3, 27329, Note_on_c, 1, 39, 102
3, 27359, Note_on_c, 1, 39, 0
3, 27361, Note_on_c, 1, 37, 102
3, 27400, Note_on_c, 1, 37, 0
3, 27423, Note_on_c, 1, 37, 111
3, 27453, Note_on_c, 1, 37, 0
3, 27455, Note_on_c, 1, 36, 92
3, 27495, Note_on_c, 1, 36, 0
3, 27519, Note_on_c, 1, 36, 95
3, 27549, Note_on_c, 1, 36, 0
3, 27551, Note_on_c, 1, 35, 105
3, 27596, Note_on_c, 1, 35, 0
3, 27615, Note_on_c, 1, 35, 106
3, 27645, Note_on_c, 1, 35, 0
3, 27647, Note_on_c, 1, 34, 100
3, 27690, Note_on_c, 1, 34, 0
3, 27711, Note_on_c, 1, 34, 100
3, 27741, Note_on_c, 1, 34, 0
3, 27743, Note_on_c, 1, 38, 104
3, 27789, Note_on_c, 1, 38, 0
3, 27807, Note_on_c, 1, 38, 106
3, 27837, Note_on_c, 1, 38, 0
3, 27839, Note_on_c, 1, 39, 105
3, 27880, Note_on_c, 1, 39, 0
3, 27903, Note_on_c, 1, 39, 107
3, 27932, Note_on_c, 1, 39, 0
3, 27935, Note_on_c, 1, 40, 105
3, 27984, Note_on_c, 1, 40, 0
3, 27999, Note_on_c, 1, 40, 99
3, 28031, Note_on_c, 1, 40, 0
3, 28033, Note_on_c, 1, 41, 103
3, 28106, Note_on_c, 1, 41, 0
3, 28127, Note_on_c, 1, 35, 120
3, 28171, Note_on_c, 1, 35, 0
3, 28193, Note_on_c, 1, 34, 119
3, 28429, Note_on_c, 1, 34, 0
3, 28429, End_track
4, 0, Start_track
4, 0, MIDI_port, 0
4, 0, Sequencer_specific, 7, 0, 0, 0, 106, 0, 4, 0
4, 108, Program_c, 2, 18
4, 109, Control_c, 2, 7, 105
4, 109, Control_c, 2, 10, 45
4, 109, Control_c, 2, 11, 58
4, 110, Control_c, 2, 91, 62
4, 110, Control_c, 2, 93, 55
4, 768, Note_on_c, 2, 77, 73
4, 768, Note_on_c, 2, 74, 79
4, 768, Note_on_c, 2, 70, 67
4, 768, Note_on_c, 2, 68, 67
4, 768, Control_c, 2, 11, 60
4, 769, Control_c, 2, 1, 0
4, 769, Pitch_bend_c, 2, 8192
4, 779, Control_c, 2, 11, 63
4, 787, Control_c, 2, 11, 65
4, 799, Control_c, 2, 11, 68
4, 816, Control_c, 2, 11, 70
4, 827, Control_c, 2, 11, 73
4, 838, Control_c, 2, 11, 75
4, 856, Control_c, 2, 11, 78
4, 882, Control_c, 2, 11, 80
4, 919, Control_c, 2, 11, 78
4, 925, Control_c, 2, 11, 75
4, 938, Control_c, 2, 11, 73
4, 962, Control_c, 2, 11, 70
4, 992, Control_c, 2, 11, 68
4, 1139, Note_on_c, 2, 70, 0
4, 1139, Note_on_c, 2, 68, 0
4, 1150, Note_on_c, 2, 77, 0
4, 1151, Note_on_c, 2, 74, 0
4, 1151, Note_on_c, 2, 75, 70
4, 1151, Note_on_c, 2, 67, 67
4, 1151, Note_on_c, 2, 70, 69
4, 1183, Control_c, 2, 11, 70
4, 1207, Control_c, 2, 11, 68
4, 1215, Control_c, 2, 11, 65
4, 1230, Control_c, 2, 11, 63
4, 1238, Control_c, 2, 11, 60
4, 1280, Control_c, 2, 11, 63
4, 1287, Control_c, 2, 11, 65
4, 1293, Control_c, 2, 11, 68
4, 1302, Control_c, 2, 11, 70
4, 1309, Control_c, 2, 11, 73
4, 1314, Control_c, 2, 11, 76
4, 1320, Control_c, 2, 11, 78
4, 1339, Control_c, 2, 11, 76
4, 1349, Control_c, 2, 11, 73
4, 1357, Control_c, 2, 11, 71
4, 1362, Control_c, 2, 11, 68
4, 1371, Control_c, 2, 11, 66
4, 1395, Control_c, 2, 11, 68
4, 1409, Control_c, 2, 11, 71
4, 1430, Control_c, 2, 11, 73
4, 1438, Control_c, 2, 11, 76
4, 1445, Control_c, 2, 11, 79
4, 1472, Control_c, 2, 11, 76
4, 1482, Control_c, 2, 11, 74
4, 1489, Control_c, 2, 11, 71
4, 1497, Control_c, 2, 11, 69
4, 1518, Control_c, 2, 11, 71
4, 1527, Control_c, 2, 11, 74
4, 1534, Note_on_c, 2, 75, 0
4, 1534, Note_on_c, 2, 67, 0
4, 1534, Note_on_c, 2, 70, 0
4, 1535, Note_on_c, 2, 70, 65
4, 1535, Note_on_c, 2, 68, 63
4, 1535, Note_on_c, 2, 77, 70
4, 1536, Note_on_c, 2, 74, 62
4, 1536, Control_c, 2, 11, 76
4, 1547, Control_c, 2, 11, 79
4, 1565, Control_c, 2, 11, 81
4, 1578, Control_c, 2, 11, 84
4, 1591, Control_c, 2, 11, 86
4, 1603, Control_c, 2, 11, 89
4, 1611, Control_c, 2, 11, 91
4, 1617, Control_c, 2, 11, 94
4, 1646, Control_c, 2, 11, 91
4, 1651, Control_c, 2, 11, 89
4, 1660, Control_c, 2, 11, 86
4, 1668, Control_c, 2, 11, 84
4, 1686, Control_c, 2, 11, 81
4, 1730, Control_c, 2, 11, 84
4, 1741, Control_c, 2, 11, 86
4, 1753, Control_c, 2, 11, 89
4, 1760, Control_c, 2, 11, 91
4, 1765, Control_c, 2, 11, 94
4, 1788, Control_c, 2, 11, 92
4, 1794, Control_c, 2, 11, 89
4, 1804, Control_c, 2, 11, 92
4, 1808, Control_c, 2, 11, 94
4, 1818, Control_c, 2, 11, 97
4, 1826, Control_c, 2, 11, 99
4, 1837, Control_c, 2, 11, 102
4, 1847, Control_c, 2, 11, 104
4, 1861, Control_c, 2, 11, 107
4, 1871, Control_c, 2, 11, 104
4, 1876, Control_c, 2, 11, 102
4, 1884, Control_c, 2, 11, 99
4, 1894, Control_c, 2, 11, 97
4, 1899, Control_c, 2, 11, 94
4, 1906, Control_c, 2, 11, 92
4, 1946, Control_c, 2, 11, 94
4, 1983, Control_c, 2, 11, 92
4, 2006, Control_c, 2, 11, 94
4, 2011, Control_c, 2, 11, 97
4, 2034, Control_c, 2, 11, 94
4, 2039, Control_c, 2, 11, 91
4, 2046, Control_c, 2, 11, 88
4, 2056, Control_c, 2, 11, 86
4, 2103, Control_c, 2, 11, 88
4, 2112, Control_c, 2, 11, 91
4, 2125, Control_c, 2, 11, 93
4, 2136, Control_c, 2, 11, 96
4, 2154, Control_c, 2, 11, 98
4, 2195, Control_c, 2, 11, 96
4, 2203, Control_c, 2, 11, 93
4, 2210, Control_c, 2, 11, 91
4, 2220, Control_c, 2, 11, 88
4, 2232, Control_c, 2, 11, 86
4, 2246, Control_c, 2, 11, 83
4, 2257, Control_c, 2, 11, 81
4, 2268, Control_c, 2, 11, 78
4, 2290, Note_on_c, 2, 70, 0
4, 2293, Control_c, 2, 11, 81
4, 2301, Control_c, 2, 11, 83
4, 2302, Note_on_c, 2, 68, 0
4, 2302, Note_on_c, 2, 77, 0
4, 2303, Note_on_c, 2, 74, 0
4, 2303, Note_on_c, 2, 75, 74
4, 2303, Note_on_c, 2, 70, 72
4, 2303, Note_on_c, 2, 67, 70
4, 2308, Control_c, 2, 11, 86
4, 2331, Control_c, 2, 11, 88
4, 2357, Control_c, 2, 11, 91
4, 2387, Control_c, 2, 11, 88
4, 2396, Control_c, 2, 11, 86
4, 2407, Control_c, 2, 11, 83
4, 2421, Control_c, 2, 11, 81
4, 2458, Control_c, 2, 11, 83
4, 2469, Control_c, 2, 11, 86
4, 2480, Control_c, 2, 11, 88
4, 2518, Control_c, 2, 11, 86
4, 2529, Control_c, 2, 11, 83
4, 2561, Control_c, 2, 11, 81
4, 2619, Control_c, 2, 11, 83
4, 2628, Control_c, 2, 11, 86
4, 2637, Control_c, 2, 11, 88
4, 2644, Control_c, 2, 11, 91
4, 2648, Control_c, 2, 11, 93
4, 2655, Control_c, 2, 11, 96
4, 2664, Control_c, 2, 11, 99
4, 2678, Control_c, 2, 11, 97
4, 2683, Control_c, 2, 11, 94
4, 2689, Control_c, 2, 11, 91
4, 2695, Control_c, 2, 11, 88
4, 2700, Control_c, 2, 11, 86
4, 2708, Control_c, 2, 11, 83
4, 2719, Control_c, 2, 11, 81
4, 2729, Control_c, 2, 11, 78
4, 2788, Control_c, 2, 11, 81
4, 2811, Control_c, 2, 11, 83
4, 2832, Control_c, 2, 11, 86
4, 2851, Control_c, 2, 11, 88
4, 2867, Control_c, 2, 11, 91
4, 2872, Control_c, 2, 11, 93
4, 2883, Control_c, 2, 11, 96
4, 2894, Control_c, 2, 11, 98
4, 2895, Control_c, 2, 11, 100
4, 2900, Control_c, 2, 11, 102
4, 2919, Control_c, 2, 11, 99
4, 2924, Control_c, 2, 11, 97
4, 2934, Control_c, 2, 11, 94
4, 2940, Control_c, 2, 11, 92
4, 2944, Control_c, 2, 11, 89
4, 2951, Control_c, 2, 11, 87
4, 2960, Control_c, 2, 11, 84
4, 2971, Control_c, 2, 11, 82
4, 2984, Control_c, 2, 11, 79
4, 2994, Control_c, 2, 11, 77
4, 3008, Control_c, 2, 11, 74
4, 3021, Control_c, 2, 11, 72
4, 3033, Control_c, 2, 11, 74
4, 3039, Control_c, 2, 11, 77
4, 3045, Control_c, 2, 11, 79
4, 3052, Control_c, 2, 11, 82
4, 3058, Control_c, 2, 11, 84
4, 3070, Note_on_c, 2, 75, 0
4, 3070, Note_on_c, 2, 70, 0
4, 3070, Note_on_c, 2, 67, 0
4, 3071, Note_on_c, 2, 70, 64
4, 3071, Note_on_c, 2, 68, 64
4, 3071, Note_on_c, 2, 77, 70
4, 3071, Note_on_c, 2, 74, 70
4, 3071, Control_c, 2, 11, 87
4, 3081, Control_c, 2, 11, 89
4, 3089, Control_c, 2, 11, 92
4, 3099, Control_c, 2, 11, 94
4, 3118, Control_c, 2, 11, 97
4, 3134, Control_c, 2, 11, 100
4, 3140, Control_c, 2, 11, 102
4, 3160, Control_c, 2, 11, 100
4, 3166, Control_c, 2, 11, 97
4, 3174, Control_c, 2, 11, 94
4, 3180, Control_c, 2, 11, 91
4, 3187, Control_c, 2, 11, 89
4, 3197, Control_c, 2, 11, 86
4, 3205, Control_c, 2, 11, 84
4, 3213, Control_c, 2, 11, 81
4, 3226, Control_c, 2, 11, 79
4, 3238, Control_c, 2, 11, 76
4, 3251, Control_c, 2, 11, 74
4, 3296, Control_c, 2, 11, 76
4, 3306, Control_c, 2, 11, 79
4, 3319, Control_c, 2, 11, 81
4, 3332, Control_c, 2, 11, 84
4, 3345, Control_c, 2, 11, 86
4, 3358, Control_c, 2, 11, 89
4, 3366, Control_c, 2, 11, 91
4, 3373, Control_c, 2, 11, 94
4, 3379, Control_c, 2, 11, 97
4, 3383, Control_c, 2, 11, 100
4, 3384, Control_c, 2, 11, 101
4, 3390, Control_c, 2, 11, 104
4, 3410, Control_c, 2, 11, 101
4, 3414, Control_c, 2, 11, 99
4, 3420, Control_c, 2, 11, 96
4, 3440, Control_c, 2, 11, 99
4, 3446, Control_c, 2, 11, 102
4, 3452, Control_c, 2, 11, 104
4, 3482, Control_c, 2, 11, 102
4, 3486, Control_c, 2, 11, 99
4, 3493, Control_c, 2, 11, 97
4, 3500, Control_c, 2, 11, 94
4, 3507, Control_c, 2, 11, 92
4, 3520, Control_c, 2, 11, 89
4, 3531, Control_c, 2, 11, 87
4, 3544, Control_c, 2, 11, 84
4, 3555, Control_c, 2, 11, 82
4, 3570, Control_c, 2, 11, 79
4, 3604, Control_c, 2, 11, 82
4, 3621, Control_c, 2, 11, 84
4, 3633, Control_c, 2, 11, 87
4, 3646, Control_c, 2, 11, 89
4, 3669, Control_c, 2, 11, 87
4, 3677, Control_c, 2, 11, 84
4, 3687, Control_c, 2, 11, 81
4, 3698, Control_c, 2, 11, 79
4, 3709, Control_c, 2, 11, 76
4, 3720, Control_c, 2, 11, 74
4, 3754, Control_c, 2, 11, 76
4, 3775, Control_c, 2, 11, 79
4, 3787, Control_c, 2, 11, 76
4, 3793, Control_c, 2, 11, 73
4, 3809, Control_c, 2, 11, 76
4, 3815, Control_c, 2, 11, 78
4, 3826, Note_on_c, 2, 74, 0
4, 3827, Note_on_c, 2, 68, 0
4, 3829, Note_on_c, 2, 70, 0
4, 3831, Note_on_c, 2, 77, 0
4, 3831, Control_c, 2, 11, 81
4, 3838, Control_c, 2, 11, 84
4, 3839, Note_on_c, 2, 75, 70
4, 3839, Note_on_c, 2, 72, 80
4, 3839, Note_on_c, 2, 69, 74
4, 3844, Control_c, 2, 11, 86
4, 3868, Control_c, 2, 11, 84
4, 3874, Control_c, 2, 11, 81
4, 3880, Control_c, 2, 11, 78
4, 3885, Control_c, 2, 11, 76
4, 3895, Control_c, 2, 11, 73
4, 3903, Control_c, 2, 11, 71
4, 3913, Control_c, 2, 11, 68
4, 3929, Control_c, 2, 11, 66
4, 3952, Control_c, 2, 11, 68
4, 3962, Control_c, 2, 11, 71
4, 3969, Control_c, 2, 11, 73
4, 3979, Control_c, 2, 11, 76
4, 3992, Control_c, 2, 11, 78
4, 4006, Control_c, 2, 11, 81
4, 4024, Control_c, 2, 11, 83
4, 4035, Control_c, 2, 11, 86
4, 4071, Control_c, 2, 11, 83
4, 4076, Control_c, 2, 11, 81
4, 4085, Control_c, 2, 11, 78
4, 4093, Control_c, 2, 11, 76
4, 4104, Control_c, 2, 11, 73
4, 4112, Control_c, 2, 11, 71
4, 4122, Control_c, 2, 11, 68
4, 4133, Control_c, 2, 11, 66
4, 4151, Control_c, 2, 11, 68
4, 4157, Control_c, 2, 11, 71
4, 4170, Control_c, 2, 11, 73
4, 4182, Control_c, 2, 11, 76
4, 4191, Control_c, 2, 11, 78
4, 4202, Control_c, 2, 11, 81
4, 4217, Control_c, 2, 11, 84
4, 4222, Note_on_c, 2, 72, 0
4, 4222, Note_on_c, 2, 69, 0
4, 4223, Note_on_c, 2, 70, 69
4, 4223, Note_on_c, 2, 67, 62
4, 4236, Control_c, 2, 11, 81
4, 4243, Control_c, 2, 11, 78
4, 4247, Control_c, 2, 11, 75
4, 4252, Control_c, 2, 11, 72
4, 4259, Control_c, 2, 11, 70
4, 4273, Control_c, 2, 11, 67
4, 4301, Control_c, 2, 11, 70
4, 4316, Control_c, 2, 11, 72
4, 4331, Control_c, 2, 11, 75
4, 4350, Control_c, 2, 11, 77
4, 4369, Control_c, 2, 11, 80
4, 4394, Control_c, 2, 11, 82
4, 4408, Control_c, 2, 11, 85
4, 4418, Control_c, 2, 11, 87
4, 4455, Control_c, 2, 11, 85
4, 4470, Control_c, 2, 11, 82
4, 4489, Control_c, 2, 11, 80
4, 4500, Control_c, 2, 11, 77
4, 4510, Control_c, 2, 11, 75
4, 4553, Control_c, 2, 11, 77
4, 4564, Control_c, 2, 11, 80
4, 4581, Control_c, 2, 11, 82
4, 4588, Control_c, 2, 11, 85
4, 4593, Note_on_c, 2, 70, 0
4, 4594, Note_on_c, 2, 75, 0
4, 4594, Note_on_c, 2, 67, 0
4, 4595, Control_c, 2, 11, 87
4, 4607, Note_on_c, 2, 70, 69
4, 4607, Note_on_c, 2, 68, 69
4, 4607, Note_on_c, 2, 74, 75
4, 4607, Note_on_c, 2, 77, 75
4, 4619, Control_c, 2, 11, 84
4, 4624, Control_c, 2, 11, 82
4, 4635, Control_c, 2, 11, 79
4, 4643, Control_c, 2, 11, 77
4, 4649, Control_c, 2, 11, 74
4, 4657, Control_c, 2, 11, 72
4, 4676, Control_c, 2, 11, 74
4, 4683, Control_c, 2, 11, 77
4, 4693, Control_c, 2, 11, 79
4, 4705, Control_c, 2, 11, 82
4, 4723, Control_c, 2, 11, 84
4, 4733, Control_c, 2, 11, 87
4, 4771, Control_c, 2, 11, 84
4, 4784, Control_c, 2, 11, 82
4, 4796, Control_c, 2, 11, 79
4, 4821, Control_c, 2, 11, 82
4, 4828, Control_c, 2, 11, 84
4, 4835, Control_c, 2, 11, 87
4, 4847, Control_c, 2, 11, 89
4, 4858, Control_c, 2, 11, 92
4, 4866, Control_c, 2, 11, 94
4, 4899, Control_c, 2, 11, 92
4, 4905, Control_c, 2, 11, 89
4, 4910, Control_c, 2, 11, 87
4, 4916, Control_c, 2, 11, 84
4, 4925, Control_c, 2, 11, 82
4, 4936, Control_c, 2, 11, 79
4, 4963, Control_c, 2, 11, 82
4, 4967, Control_c, 2, 11, 85
4, 4974, Control_c, 2, 11, 87
4, 4979, Control_c, 2, 11, 90
4, 4986, Control_c, 2, 11, 92
4, 4987, Note_on_c, 2, 74, 0
4, 4991, Note_on_c, 2, 70, 0
4, 4992, Note_on_c, 2, 77, 0
4, 4994, Note_on_c, 2, 68, 0
4, 5004, Control_c, 2, 11, 89
4, 5008, Control_c, 2, 11, 86
4, 5012, Control_c, 2, 11, 84
4, 5016, Control_c, 2, 11, 81
4, 5022, Note_on_c, 2, 72, 82
4, 5022, Note_on_c, 2, 75, 69
4, 5022, Note_on_c, 2, 69, 66
4, 5022, Control_c, 2, 11, 79
4, 5029, Control_c, 2, 11, 76
4, 5055, Control_c, 2, 11, 79
4, 5067, Control_c, 2, 11, 81
4, 5078, Control_c, 2, 11, 84
4, 5088, Control_c, 2, 11, 86
4, 5102, Control_c, 2, 11, 89
4, 5108, Control_c, 2, 11, 91
4, 5117, Control_c, 2, 11, 94
4, 5126, Control_c, 2, 11, 96
4, 5136, Control_c, 2, 11, 99
4, 5148, Control_c, 2, 11, 101
4, 5159, Control_c, 2, 11, 104
4, 5171, Control_c, 2, 11, 106
4, 5190, Control_c, 2, 11, 104
4, 5194, Control_c, 2, 11, 101
4, 5201, Control_c, 2, 11, 99
4, 5210, Control_c, 2, 11, 102
4, 5212, Control_c, 2, 11, 104
4, 5213, Control_c, 2, 11, 106
4, 5214, Control_c, 2, 11, 107
4, 5221, Control_c, 2, 11, 110
4, 5227, Control_c, 2, 11, 112
4, 5231, Control_c, 2, 11, 115
4, 5250, Control_c, 2, 11, 112
4, 5253, Control_c, 2, 11, 109
4, 5257, Control_c, 2, 11, 106
4, 5264, Control_c, 2, 11, 104
4, 5268, Control_c, 2, 11, 101
4, 5272, Control_c, 2, 11, 98
4, 5281, Control_c, 2, 11, 102
4, 5285, Control_c, 2, 11, 105
4, 5289, Control_c, 2, 11, 108
4, 5293, Control_c, 2, 11, 110
4, 5297, Control_c, 2, 11, 113
4, 5314, Control_c, 2, 11, 110
4, 5315, Control_c, 2, 11, 108
4, 5316, Control_c, 2, 11, 106
4, 5318, Control_c, 2, 11, 104
4, 5319, Control_c, 2, 11, 102
4, 5321, Control_c, 2, 11, 100
4, 5322, Control_c, 2, 11, 98
4, 5323, Control_c, 2, 11, 97
4, 5331, Control_c, 2, 11, 100
4, 5333, Control_c, 2, 11, 102
4, 5334, Control_c, 2, 11, 105
4, 5336, Control_c, 2, 11, 107
4, 5337, Control_c, 2, 11, 110
4, 5338, Control_c, 2, 11, 112
4, 5340, Control_c, 2, 11, 114
4, 5341, Control_c, 2, 11, 115
4, 5342, Control_c, 2, 11, 117
4, 5344, Control_c, 2, 11, 119
4, 5345, Control_c, 2, 11, 121
4, 5347, Control_c, 2, 11, 124
4, 5348, Control_c, 2, 11, 125
4, 5355, Control_c, 2, 11, 121
4, 5356, Control_c, 2, 11, 119
4, 5358, Control_c, 2, 11, 117
4, 5359, Control_c, 2, 11, 114
4, 5360, Control_c, 2, 11, 112
4, 5362, Control_c, 2, 11, 111
4, 5363, Control_c, 2, 11, 109
4, 5365, Control_c, 2, 11, 107
4, 5366, Control_c, 2, 11, 106
4, 5367, Control_c, 2, 11, 104
4, 5369, Note_on_c, 2, 72, 0
4, 5369, Control_c, 2, 11, 103
4, 5371, Note_on_c, 2, 75, 0
4, 5371, Control_c, 2, 11, 100
4, 5373, Control_c, 2, 11, 99
4, 5374, Control_c, 2, 11, 97
4, 5375, Note_on_c, 2, 70, 65
4, 5375, Note_on_c, 2, 68, 68
4, 5375, Control_c, 2, 11, 95
4, 5376, Note_on_c, 2, 69, 0
4, 5376, Note_on_c, 2, 77, 64
4, 5376, Note_on_c, 2, 74, 70
4, 5377, Control_c, 2, 11, 94
4, 5378, Control_c, 2, 11, 92
4, 5380, Control_c, 2, 11, 90
4, 5381, Control_c, 2, 11, 88
4, 5384, Control_c, 2, 11, 86
4, 5388, Control_c, 2, 11, 83
4, 5396, Control_c, 2, 11, 81
4, 5403, Control_c, 2, 11, 78
4, 5422, Control_c, 2, 11, 81
4, 5428, Control_c, 2, 11, 83
4, 5432, Control_c, 2, 11, 86
4, 5438, Control_c, 2, 11, 88
4, 5443, Control_c, 2, 11, 91
4, 5450, Control_c, 2, 11, 93
4, 5455, Control_c, 2, 11, 96
4, 5462, Control_c, 2, 11, 98
4, 5480, Control_c, 2, 11, 95
4, 5486, Control_c, 2, 11, 93
4, 5491, Control_c, 2, 11, 90
4, 5502, Control_c, 2, 11, 88
4, 5512, Control_c, 2, 11, 85
4, 5519, Control_c, 2, 11, 83
4, 5527, Control_c, 2, 11, 80
4, 5538, Control_c, 2, 11, 78
4, 5548, Control_c, 2, 11, 75
4, 5559, Control_c, 2, 11, 73
4, 5589, Control_c, 2, 11, 75
4, 5600, Control_c, 2, 11, 78
4, 5616, Control_c, 2, 11, 80
4, 5630, Control_c, 2, 11, 83
4, 5641, Control_c, 2, 11, 85
4, 5651, Control_c, 2, 11, 88
4, 5659, Control_c, 2, 11, 90
4, 5674, Control_c, 2, 11, 93
4, 5682, Control_c, 2, 11, 95
4, 5696, Control_c, 2, 11, 98
4, 5703, Control_c, 2, 11, 100
4, 5720, Control_c, 2, 11, 97
4, 5721, Control_c, 2, 11, 96
4, 5722, Control_c, 2, 11, 94
4, 5724, Control_c, 2, 11, 92
4, 5725, Control_c, 2, 11, 91
4, 5726, Control_c, 2, 11, 89
4, 5730, Control_c, 2, 11, 86
4, 5735, Control_c, 2, 11, 84
4, 5739, Control_c, 2, 11, 81
4, 5743, Control_c, 2, 11, 79
4, 5745, Note_on_c, 2, 68, 0
4, 5753, Note_on_c, 2, 77, 0
4, 5758, Note_on_c, 2, 70, 0
4, 5759, Note_on_c, 2, 74, 0
4, 5759, Note_on_c, 2, 70, 69
4, 5759, Note_on_c, 2, 67, 72
4, 5759, Note_on_c, 2, 75, 63
4, 5762, Control_c, 2, 11, 82
4, 5765, Control_c, 2, 11, 85
4, 5768, Control_c, 2, 11, 87
4, 5769, Control_c, 2, 11, 89
4, 5770, Control_c, 2, 11, 90
4, 5772, Control_c, 2, 11, 92
4, 5776, Control_c, 2, 11, 95
4, 5782, Control_c, 2, 11, 98
4, 5788, Control_c, 2, 11, 101
4, 5806, Control_c, 2, 11, 98
4, 5813, Control_c, 2, 11, 95
4, 5817, Control_c, 2, 11, 93
4, 5821, Control_c, 2, 11, 90
4, 5827, Control_c, 2, 11, 88
4, 5837, Control_c, 2, 11, 85
4, 5847, Control_c, 2, 11, 83
4, 5860, Control_c, 2, 11, 80
4, 5879, Control_c, 2, 11, 78
4, 5915, Control_c, 2, 11, 80
4, 5929, Control_c, 2, 11, 83
4, 5944, Control_c, 2, 11, 85
4, 5951, Control_c, 2, 11, 88
4, 5958, Control_c, 2, 11, 90
4, 5985, Control_c, 2, 11, 87
4, 5995, Control_c, 2, 11, 85
4, 6002, Control_c, 2, 11, 82
4, 6010, Control_c, 2, 11, 80
4, 6016, Control_c, 2, 11, 77
4, 6025, Control_c, 2, 11, 74
4, 6040, Control_c, 2, 11, 72
4, 6062, Control_c, 2, 11, 74
4, 6070, Control_c, 2, 11, 77
4, 6079, Control_c, 2, 11, 79
4, 6090, Control_c, 2, 11, 82
4, 6097, Control_c, 2, 11, 84
4, 6116, Control_c, 2, 11, 80
4, 6119, Control_c, 2, 11, 78
4, 6131, Note_on_c, 2, 67, 0
4, 6133, Control_c, 2, 11, 80
4, 6137, Control_c, 2, 11, 83
4, 6140, Note_on_c, 2, 70, 0
4, 6142, Note_on_c, 2, 75, 0
4, 6142, Control_c, 2, 11, 86
4, 6144, Note_on_c, 2, 70, 73
4, 6144, Note_on_c, 2, 68, 75
4, 6145, Note_on_c, 2, 74, 73
4, 6145, Note_on_c, 2, 77, 72
4, 6148, Control_c, 2, 11, 88
4, 6156, Control_c, 2, 11, 91
4, 6174, Control_c, 2, 11, 88
4, 6179, Control_c, 2, 11, 86
4, 6185, Control_c, 2, 11, 83
4, 6212, Control_c, 2, 11, 86
4, 6219, Control_c, 2, 11, 89
4, 6223, Control_c, 2, 11, 91
4, 6229, Control_c, 2, 11, 94
4, 6250, Control_c, 2, 11, 91
4, 6254, Control_c, 2, 11, 88
4, 6262, Control_c, 2, 11, 86
4, 6274, Control_c, 2, 11, 83
4, 6283, Control_c, 2, 11, 81
4, 6292, Control_c, 2, 11, 78
4, 6313, Control_c, 2, 11, 76
4, 6324, Control_c, 2, 11, 73
4, 6336, Control_c, 2, 11, 71
4, 6364, Control_c, 2, 11, 73
4, 6371, Control_c, 2, 11, 76
4, 6378, Control_c, 2, 11, 78
4, 6415, Control_c, 2, 11, 81
4, 6423, Control_c, 2, 11, 83
4, 6432, Control_c, 2, 11, 86
4, 6462, Control_c, 2, 11, 88
4, 6467, Control_c, 2, 11, 91
4, 6477, Control_c, 2, 11, 94
4, 6495, Control_c, 2, 11, 96
4, 6501, Control_c, 2, 11, 99
4, 6505, Control_c, 2, 11, 102
4, 6516, Control_c, 2, 11, 98
4, 6521, Control_c, 2, 11, 96
4, 6534, Control_c, 2, 11, 93
4, 6541, Control_c, 2, 11, 90
4, 6559, Control_c, 2, 11, 93
4, 6565, Control_c, 2, 11, 95
4, 6581, Control_c, 2, 11, 98
4, 6596, Control_c, 2, 11, 100
4, 6629, Control_c, 2, 11, 98
4, 6640, Control_c, 2, 11, 95
4, 6642, Control_c, 2, 11, 93
4, 6643, Control_c, 2, 11, 92
4, 6646, Control_c, 2, 11, 89
4, 6650, Control_c, 2, 11, 86
4, 6655, Control_c, 2, 11, 84
4, 6664, Control_c, 2, 11, 81
4, 6682, Control_c, 2, 11, 79
4, 6709, Control_c, 2, 11, 76
4, 6730, Control_c, 2, 11, 74
4, 6778, Control_c, 2, 11, 76
4, 6799, Control_c, 2, 11, 79
4, 6808, Control_c, 2, 11, 81
4, 6818, Control_c, 2, 11, 84
4, 6825, Control_c, 2, 11, 86
4, 6830, Control_c, 2, 11, 89
4, 6837, Control_c, 2, 11, 92
4, 6846, Control_c, 2, 11, 94
4, 6851, Control_c, 2, 11, 97
4, 6862, Control_c, 2, 11, 94
4, 6866, Control_c, 2, 11, 91
4, 6872, Control_c, 2, 11, 89
4, 6877, Control_c, 2, 11, 86
4, 6881, Control_c, 2, 11, 83
4, 6887, Control_c, 2, 11, 81
4, 6896, Control_c, 2, 11, 78
4, 6899, Note_on_c, 2, 70, 0
4, 6903, Control_c, 2, 11, 76
4, 6910, Note_on_c, 2, 77, 0
4, 6910, Control_c, 2, 11, 73
4, 6911, Note_on_c, 2, 68, 0
4, 6911, Note_on_c, 2, 75, 76
4, 6911, Note_on_c, 2, 67, 70
4, 6911, Note_on_c, 2, 70, 69
4, 6912, Note_on_c, 2, 74, 0
4, 6916, Control_c, 2, 11, 71
4, 6924, Control_c, 2, 11, 68
4, 6931, Control_c, 2, 11, 66
4, 6964, Control_c, 2, 11, 68
4, 6976, Control_c, 2, 11, 71
4, 6987, Control_c, 2, 11, 73
4, 7001, Control_c, 2, 11, 76
4, 7008, Control_c, 2, 11, 78
4, 7019, Control_c, 2, 11, 81
4, 7027, Control_c, 2, 11, 83
4, 7035, Control_c, 2, 11, 86
4, 7050, Control_c, 2, 11, 83
4, 7056, Control_c, 2, 11, 81
4, 7062, Control_c, 2, 11, 78
4, 7067, Control_c, 2, 11, 75
4, 7088, Control_c, 2, 11, 78
4, 7096, Control_c, 2, 11, 80
4, 7100, Control_c, 2, 11, 83
4, 7106, Control_c, 2, 11, 85
4, 7114, Control_c, 2, 11, 88
4, 7133, Control_c, 2, 11, 85
4, 7140, Control_c, 2, 11, 83
4, 7147, Control_c, 2, 11, 80
4, 7155, Control_c, 2, 11, 78
4, 7162, Control_c, 2, 11, 75
4, 7169, Control_c, 2, 11, 73
4, 7180, Control_c, 2, 11, 70
4, 7187, Control_c, 2, 11, 68
4, 7205, Control_c, 2, 11, 70
4, 7211, Control_c, 2, 11, 73
4, 7221, Control_c, 2, 11, 75
4, 7228, Control_c, 2, 11, 78
4, 7251, Control_c, 2, 11, 75
4, 7256, Control_c, 2, 11, 72
4, 7261, Control_c, 2, 11, 70
4, 7269, Control_c, 2, 11, 67
4, 7287, Control_c, 2, 11, 70
4, 7294, Control_c, 2, 11, 72
4, 7302, Control_c, 2, 11, 75
4, 7308, Control_c, 2, 11, 78
4, 7318, Control_c, 2, 11, 80
4, 7326, Control_c, 2, 11, 83
4, 7348, Control_c, 2, 11, 80
4, 7353, Control_c, 2, 11, 78
4, 7363, Control_c, 2, 11, 75
4, 7370, Control_c, 2, 11, 73
4, 7377, Control_c, 2, 11, 70
4, 7382, Control_c, 2, 11, 68
4, 7389, Control_c, 2, 11, 65
4, 7405, Control_c, 2, 11, 68
4, 7412, Control_c, 2, 11, 70
4, 7425, Control_c, 2, 11, 73
4, 7433, Control_c, 2, 11, 75
4, 7445, Control_c, 2, 11, 78
4, 7454, Control_c, 2, 11, 80
4, 7469, Control_c, 2, 11, 83
4, 7495, Control_c, 2, 11, 80
4, 7510, Control_c, 2, 11, 78
4, 7518, Control_c, 2, 11, 75
4, 7527, Control_c, 2, 11, 73
4, 7532, Control_c, 2, 11, 70
4, 7539, Control_c, 2, 11, 68
4, 7571, Control_c, 2, 11, 70
4, 7578, Control_c, 2, 11, 73
4, 7585, Control_c, 2, 11, 75
4, 7594, Control_c, 2, 11, 78
4, 7608, Control_c, 2, 11, 80
4, 7641, Control_c, 2, 11, 78
4, 7674, Note_on_c, 2, 75, 0
4, 7674, Control_c, 2, 11, 80
4, 7675, Note_on_c, 2, 67, 0
4, 7678, Note_on_c, 2, 70, 0
4, 7679, Note_on_c, 2, 70, 63
4, 7679, Note_on_c, 2, 68, 70
4, 7679, Note_on_c, 2, 74, 69
4, 7679, Note_on_c, 2, 77, 68
4, 7682, Control_c, 2, 11, 83
4, 7715, Control_c, 2, 11, 80
4, 7724, Control_c, 2, 11, 78
4, 7733, Control_c, 2, 11, 75
4, 7739, Control_c, 2, 11, 73
4, 7748, Control_c, 2, 11, 70
4, 7756, Control_c, 2, 11, 68
4, 7762, Control_c, 2, 11, 65
4, 7768, Control_c, 2, 11, 62
4, 7776, Control_c, 2, 11, 60
4, 7796, Control_c, 2, 11, 62
4, 7803, Control_c, 2, 11, 65
4, 7813, Control_c, 2, 11, 67
4, 7824, Control_c, 2, 11, 70
4, 7840, Control_c, 2, 11, 72
4, 7850, Control_c, 2, 11, 75
4, 7861, Control_c, 2, 11, 77
4, 7883, Control_c, 2, 11, 80
4, 7897, Control_c, 2, 11, 82
4, 7923, Control_c, 2, 11, 80
4, 7930, Control_c, 2, 11, 77
4, 7938, Control_c, 2, 11, 75
4, 7944, Control_c, 2, 11, 72
4, 7949, Control_c, 2, 11, 70
4, 7974, Control_c, 2, 11, 72
4, 7986, Control_c, 2, 11, 75
4, 7997, Control_c, 2, 11, 77
4, 8004, Control_c, 2, 11, 80
4, 8018, Control_c, 2, 11, 82
4, 8037, Control_c, 2, 11, 85
4, 8048, Control_c, 2, 11, 87
4, 8054, Control_c, 2, 11, 90
4, 8076, Control_c, 2, 11, 87
4, 8084, Control_c, 2, 11, 85
4, 8091, Control_c, 2, 11, 82
4, 8098, Control_c, 2, 11, 80
4, 8107, Control_c, 2, 11, 77
4, 8116, Control_c, 2, 11, 75
4, 8123, Control_c, 2, 11, 72
4, 8129, Control_c, 2, 11, 69
4, 8139, Control_c, 2, 11, 67
4, 8164, Control_c, 2, 11, 70
4, 8174, Control_c, 2, 11, 72
4, 8183, Control_c, 2, 11, 75
4, 8193, Control_c, 2, 11, 77
4, 8205, Control_c, 2, 11, 80
4, 8227, Control_c, 2, 11, 82
4, 8247, Control_c, 2, 11, 85
4, 8257, Control_c, 2, 11, 87
4, 8270, Control_c, 2, 11, 90
4, 8308, Control_c, 2, 11, 87
4, 8322, Control_c, 2, 11, 85
4, 8329, Control_c, 2, 11, 82
4, 8352, Control_c, 2, 11, 85
4, 8358, Control_c, 2, 11, 87
4, 8365, Control_c, 2, 11, 90
4, 8385, Control_c, 2, 11, 92
4, 8420, Control_c, 2, 11, 89
4, 8424, Control_c, 2, 11, 87
4, 8428, Control_c, 2, 11, 84
4, 8432, Control_c, 2, 11, 81
4, 8439, Control_c, 2, 11, 79
4, 8446, Note_on_c, 2, 70, 0
4, 8446, Note_on_c, 2, 68, 0
4, 8446, Note_on_c, 2, 74, 0
4, 8446, Note_on_c, 2, 77, 0
4, 8446, Control_c, 2, 11, 76
4, 8447, Note_on_c, 2, 75, 78
4, 8448, Note_on_c, 2, 72, 76
4, 8449, Note_on_c, 2, 69, 63
4, 8456, Control_c, 2, 11, 74
4, 8472, Control_c, 2, 11, 71
4, 8485, Control_c, 2, 11, 69
4, 8497, Control_c, 2, 11, 72
4, 8504, Control_c, 2, 11, 74
4, 8508, Control_c, 2, 11, 77
4, 8518, Control_c, 2, 11, 79
4, 8537, Control_c, 2, 11, 82
4, 8551, Control_c, 2, 11, 84
4, 8558, Control_c, 2, 11, 87
4, 8566, Control_c, 2, 11, 89
4, 8581, Control_c, 2, 11, 87
4, 8585, Control_c, 2, 11, 84
4, 8589, Control_c, 2, 11, 81
4, 8595, Control_c, 2, 11, 79
4, 8599, Control_c, 2, 11, 76
4, 8603, Control_c, 2, 11, 73
4, 8607, Control_c, 2, 11, 70
4, 8611, Control_c, 2, 11, 68
4, 8635, Control_c, 2, 11, 71
4, 8641, Control_c, 2, 11, 73
4, 8647, Control_c, 2, 11, 76
4, 8658, Control_c, 2, 11, 78
4, 8690, Control_c, 2, 11, 81
4, 8699, Control_c, 2, 11, 83
4, 8727, Control_c, 2, 11, 81
4, 8741, Control_c, 2, 11, 78
4, 8767, Control_c, 2, 11, 81
4, 8776, Control_c, 2, 11, 83
4, 8782, Control_c, 2, 11, 86
4, 8800, Control_c, 2, 11, 83
4, 8820, Note_on_c, 2, 72, 0
4, 8821, Note_on_c, 2, 69, 0
4, 8823, Note_on_c, 2, 75, 0
4, 8823, Control_c, 2, 11, 85
4, 8830, Control_c, 2, 11, 88
4, 8832, Note_on_c, 2, 75, 65
4, 8833, Note_on_c, 2, 70, 65
4, 8833, Note_on_c, 2, 67, 75
4, 8837, Control_c, 2, 11, 90
4, 8844, Control_c, 2, 11, 93
4, 8852, Control_c, 2, 11, 95
4, 8895, Control_c, 2, 11, 98
4, 8902, Control_c, 2, 11, 100
4, 8919, Control_c, 2, 11, 97
4, 8925, Control_c, 2, 11, 95
4, 8943, Control_c, 2, 11, 97
4, 8966, Control_c, 2, 11, 95
4, 8991, Control_c, 2, 11, 97
4, 9020, Control_c, 2, 11, 95
4, 9027, Control_c, 2, 11, 92
4, 9040, Control_c, 2, 11, 90
4, 9054, Control_c, 2, 11, 93
4, 9056, Control_c, 2, 11, 94
4, 9059, Control_c, 2, 11, 97
4, 9085, Control_c, 2, 11, 94
4, 9089, Control_c, 2, 11, 92
4, 9094, Control_c, 2, 11, 89
4, 9103, Control_c, 2, 11, 86
4, 9116, Control_c, 2, 11, 89
4, 9122, Control_c, 2, 11, 92
4, 9131, Control_c, 2, 11, 94
4, 9144, Control_c, 2, 11, 97
4, 9152, Control_c, 2, 11, 99
4, 9177, Control_c, 2, 11, 97
4, 9187, Control_c, 2, 11, 94
4, 9196, Control_c, 2, 11, 92
4, 9203, Control_c, 2, 11, 89
4, 9206, Note_on_c, 2, 70, 0
4, 9215, Note_on_c, 2, 75, 0
4, 9215, Note_on_c, 2, 74, 73
4, 9215, Note_on_c, 2, 70, 70
4, 9215, Note_on_c, 2, 68, 61
4, 9215, Note_on_c, 2, 77, 77
4, 9216, Note_on_c, 2, 67, 0
4, 9217, Control_c, 2, 11, 87
4, 9228, Control_c, 2, 11, 84
4, 9237, Control_c, 2, 11, 87
4, 9248, Control_c, 2, 11, 89
4, 9257, Control_c, 2, 11, 92
4, 9262, Control_c, 2, 11, 94
4, 9296, Control_c, 2, 11, 92
4, 9312, Control_c, 2, 11, 89
4, 9321, Control_c, 2, 11, 87
4, 9327, Control_c, 2, 11, 84
4, 9332, Control_c, 2, 11, 82
4, 9382, Control_c, 2, 11, 84
4, 9397, Control_c, 2, 11, 87
4, 9443, Control_c, 2, 11, 84
4, 9449, Control_c, 2, 11, 82
4, 9459, Control_c, 2, 11, 79
4, 9470, Control_c, 2, 11, 77
4, 9477, Control_c, 2, 11, 74
4, 9508, Control_c, 2, 11, 77
4, 9518, Control_c, 2, 11, 79
4, 9528, Control_c, 2, 11, 82
4, 9539, Control_c, 2, 11, 85
4, 9561, Control_c, 2, 11, 87
4, 9591, Note_on_c, 2, 74, 0
4, 9592, Note_on_c, 2, 68, 0
4, 9593, Note_on_c, 2, 70, 0
4, 9595, Note_on_c, 2, 77, 0
4, 9602, Control_c, 2, 11, 84
4, 9609, Control_c, 2, 11, 82
4, 9616, Control_c, 2, 11, 79
4, 9621, Control_c, 2, 11, 77
4, 9627, Control_c, 2, 11, 74
4, 9631, Note_on_c, 2, 75, 68
4, 9631, Note_on_c, 2, 72, 75
4, 9631, Note_on_c, 2, 69, 69
4, 9637, Control_c, 2, 11, 71
4, 9664, Control_c, 2, 11, 74
4, 9686, Control_c, 2, 11, 76
4, 9702, Control_c, 2, 11, 79
4, 9723, Control_c, 2, 11, 81
4, 9743, Control_c, 2, 11, 84
4, 9756, Control_c, 2, 11, 86
4, 9779, Control_c, 2, 11, 89
4, 9791, Control_c, 2, 11, 91
4, 9796, Control_c, 2, 11, 94
4, 9815, Control_c, 2, 11, 96
4, 9839, Control_c, 2, 11, 99
4, 9864, Control_c, 2, 11, 101
4, 9877, Control_c, 2, 11, 104
4, 9890, Control_c, 2, 11, 106
4, 9910, Control_c, 2, 11, 109
4, 9926, Control_c, 2, 11, 111
4, 9936, Control_c, 2, 11, 114
4, 9941, Control_c, 2, 11, 117
4, 9948, Control_c, 2, 11, 119
4, 9978, Note_on_c, 2, 75, 0
4, 9978, Note_on_c, 2, 72, 0
4, 9978, Note_on_c, 2, 69, 0
4, 9983, Note_on_c, 2, 68, 62
4, 9983, Note_on_c, 2, 70, 72
4, 9983, Note_on_c, 2, 74, 80
4, 9983, Note_on_c, 2, 77, 82
4, 9999, Control_c, 2, 11, 117
4, 10005, Control_c, 2, 11, 114
4, 10011, Control_c, 2, 11, 111
4, 10016, Control_c, 2, 11, 109
4, 10023, Control_c, 2, 11, 106
4, 10029, Control_c, 2, 11, 103
4, 10051, Control_c, 2, 11, 101
4, 10056, Control_c, 2, 11, 98
4, 10062, Control_c, 2, 11, 96
4, 10066, Control_c, 2, 11, 93
4, 10072, Control_c, 2, 11, 90
4, 10080, Control_c, 2, 11, 88
4, 10098, Control_c, 2, 11, 85
4, 10107, Control_c, 2, 11, 83
4, 10117, Control_c, 2, 11, 80
4, 10144, Control_c, 2, 11, 78
4, 10157, Control_c, 2, 11, 75
4, 10180, Control_c, 2, 11, 78
4, 10184, Control_c, 2, 11, 81
4, 10188, Control_c, 2, 11, 84
4, 10191, Control_c, 2, 11, 86
4, 10194, Control_c, 2, 11, 89
4, 10195, Control_c, 2, 11, 90
4, 10199, Control_c, 2, 11, 93
4, 10205, Control_c, 2, 11, 96
4, 10224, Control_c, 2, 11, 92
4, 10226, Control_c, 2, 11, 91
4, 10230, Control_c, 2, 11, 88
4, 10237, Control_c, 2, 11, 86
4, 10245, Control_c, 2, 11, 83
4, 10250, Control_c, 2, 11, 80
4, 10254, Control_c, 2, 11, 78
4, 10259, Control_c, 2, 11, 75
4, 10264, Control_c, 2, 11, 72
4, 10285, Control_c, 2, 11, 75
4, 10294, Control_c, 2, 11, 77
4, 10312, Control_c, 2, 11, 80
4, 10321, Control_c, 2, 11, 82
4, 10327, Control_c, 2, 11, 85
4, 10333, Control_c, 2, 11, 88
4, 10338, Control_c, 2, 11, 91
4, 10343, Control_c, 2, 11, 94
4, 10348, Control_c, 2, 11, 96
4, 10353, Note_on_c, 2, 74, 0
4, 10354, Note_on_c, 2, 77, 0
4, 10355, Note_on_c, 2, 70, 0
4, 10355, Control_c, 2, 11, 99
4, 10357, Note_on_c, 2, 68, 0
4, 10362, Control_c, 2, 11, 102
4, 10363, Control_c, 2, 11, 103
4, 10367, Note_on_c, 2, 68, 66
4, 10367, Note_on_c, 2, 74, 75
4, 10367, Note_on_c, 2, 70, 69
4, 10367, Note_on_c, 2, 77, 75
4, 10394, Control_c, 2, 11, 101
4, 10398, Control_c, 2, 11, 98
4, 10402, Control_c, 2, 11, 95
4, 10406, Control_c, 2, 11, 92
4, 10410, Control_c, 2, 11, 89
4, 10416, Control_c, 2, 11, 86
4, 10424, Control_c, 2, 11, 84
4, 10432, Control_c, 2, 11, 81
4, 10444, Control_c, 2, 11, 79
4, 10454, Control_c, 2, 11, 76
4, 10477, Control_c, 2, 11, 79
4, 10484, Control_c, 2, 11, 81
4, 10490, Control_c, 2, 11, 84
4, 10495, Control_c, 2, 11, 86
4, 10515, Control_c, 2, 11, 89
4, 10533, Control_c, 2, 11, 86
4, 10538, Control_c, 2, 11, 84
4, 10545, Control_c, 2, 11, 81
4, 10552, Control_c, 2, 11, 78
4, 10559, Control_c, 2, 11, 76
4, 10571, Control_c, 2, 11, 73
4, 10607, Control_c, 2, 11, 76
4, 10617, Control_c, 2, 11, 78
4, 10625, Control_c, 2, 11, 81
4, 10632, Control_c, 2, 11, 83
4, 10640, Control_c, 2, 11, 86
4, 10648, Control_c, 2, 11, 88
4, 10659, Control_c, 2, 11, 91
4, 10667, Control_c, 2, 11, 94
4, 10677, Control_c, 2, 11, 96
4, 10702, Control_c, 2, 11, 94
4, 10707, Control_c, 2, 11, 91
4, 10711, Control_c, 2, 11, 88
4, 10717, Control_c, 2, 11, 86
4, 10724, Control_c, 2, 11, 83
4, 10736, Control_c, 2, 11, 81
4, 10743, Note_on_c, 2, 74, 0
4, 10743, Note_on_c, 2, 70, 0
4, 10743, Note_on_c, 2, 77, 0
4, 10745, Note_on_c, 2, 68, 0
4, 10746, Control_c, 2, 11, 78
4, 10751, Note_on_c, 2, 68, 71
4, 10751, Note_on_c, 2, 77, 82
4, 10751, Note_on_c, 2, 74, 70
4, 10751, Note_on_c, 2, 70, 69
4, 10754, Control_c, 2, 11, 76
4, 10783, Control_c, 2, 11, 78
4, 10795, Control_c, 2, 11, 81
4, 10819, Control_c, 2, 11, 83
4, 10828, Control_c, 2, 11, 86
4, 10842, Control_c, 2, 11, 88
4, 10852, Control_c, 2, 11, 91
4, 10883, Control_c, 2, 11, 89
4, 10906, Control_c, 2, 11, 86
4, 10918, Control_c, 2, 11, 84
4, 10925, Control_c, 2, 11, 81
4, 10955, Control_c, 2, 11, 79
4, 10980, Control_c, 2, 11, 76
4, 11025, Control_c, 2, 11, 79
4, 11033, Control_c, 2, 11, 81
4, 11039, Control_c, 2, 11, 84
4, 11046, Control_c, 2, 11, 86
4, 11057, Control_c, 2, 11, 89
4, 11079, Control_c, 2, 11, 86
4, 11086, Control_c, 2, 11, 84
4, 11094, Control_c, 2, 11, 81
4, 11105, Control_c, 2, 11, 79
4, 11113, Control_c, 2, 11, 76
4, 11125, Note_on_c, 2, 70, 0
4, 11126, Note_on_c, 2, 77, 0
4, 11128, Note_on_c, 2, 68, 0
4, 11128, Note_on_c, 2, 74, 0
4, 11129, Control_c, 2, 11, 74
4, 11135, Note_on_c, 2, 77, 79
4, 11135, Note_on_c, 2, 74, 79
4, 11135, Note_on_c, 2, 68, 71
4, 11135, Note_on_c, 2, 70, 75
4, 11150, Control_c, 2, 11, 76
4, 11157, Control_c, 2, 11, 79
4, 11171, Control_c, 2, 11, 81
4, 11183, Control_c, 2, 11, 84
4, 11190, Control_c, 2, 11, 86
4, 11203, Control_c, 2, 11, 89
4, 11222, Note_on_c, 2, 70, 0
4, 11224, Note_on_c, 2, 77, 0
4, 11225, Note_on_c, 2, 68, 0
4, 11225, Control_c, 2, 11, 91
4, 11226, Note_on_c, 2, 74, 0
4, 11231, Note_on_c, 2, 68, 69
4, 11231, Note_on_c, 2, 74, 67
4, 11231, Note_on_c, 2, 77, 82
4, 11231, Note_on_c, 2, 70, 76
4, 11232, Control_c, 2, 11, 94
4, 11252, Control_c, 2, 11, 91
4, 11255, Note_on_c, 2, 70, 0
4, 11259, Control_c, 2, 11, 88
4, 11263, Note_on_c, 2, 70, 74
4, 11272, Control_c, 2, 11, 86
4, 11277, Control_c, 2, 11, 83
4, 11287, Control_c, 2, 11, 81
4, 11290, Note_on_c, 2, 70, 0
4, 11291, Note_on_c, 2, 77, 0
4, 11292, Note_on_c, 2, 68, 0
4, 11292, Note_on_c, 2, 74, 0
4, 11295, Note_on_c, 2, 68, 71
4, 11295, Note_on_c, 2, 77, 70
4, 11295, Note_on_c, 2, 70, 69
4, 11295, Note_on_c, 2, 74, 82
4, 11306, Control_c, 2, 11, 78
4, 11317, Control_c, 2, 11, 76
4, 11323, Note_on_c, 2, 70, 0
4, 11324, Note_on_c, 2, 77, 0
4, 11324, Note_on_c, 2, 74, 0
4, 11325, Note_on_c, 2, 68, 0
4, 11328, Note_on_c, 2, 68, 76
4, 11328, Note_on_c, 2, 74, 77
4, 11329, Note_on_c, 2, 77, 81
4, 11329, Note_on_c, 2, 70, 75
4, 11352, Note_on_c, 2, 70, 0
4, 11353, Note_on_c, 2, 77, 0
4, 11354, Note_on_c, 2, 68, 0
4, 11355, Note_on_c, 2, 74, 0
4, 11357, Control_c, 2, 11, 78
4, 11359, Note_on_c, 2, 68, 73
4, 11359, Note_on_c, 2, 77, 79
4, 11359, Note_on_c, 2, 74, 76
4, 11360, Note_on_c, 2, 70, 80
4, 11364, Control_c, 2, 11, 81
4, 11372, Control_c, 2, 11, 83
4, 11384, Note_on_c, 2, 77, 0
4, 11384, Note_on_c, 2, 70, 0
4, 11385, Note_on_c, 2, 68, 0
4, 11385, Note_on_c, 2, 74, 0
4, 11387, Control_c, 2, 11, 86
4, 11391, Note_on_c, 2, 68, 70
4, 11391, Note_on_c, 2, 77, 77
4, 11391, Note_on_c, 2, 74, 85
4, 11391, Note_on_c, 2, 70, 79
4, 11398, Control_c, 2, 11, 88
4, 11406, Control_c, 2, 11, 91
4, 11413, Control_c, 2, 11, 93
4, 11416, Note_on_c, 2, 70, 0
4, 11418, Note_on_c, 2, 68, 0
4, 11418, Note_on_c, 2, 77, 0
4, 11418, Note_on_c, 2, 74, 0
4, 11423, Note_on_c, 2, 68, 70
4, 11423, Note_on_c, 2, 77, 87
4, 11423, Note_on_c, 2, 74, 87
4, 11424, Note_on_c, 2, 70, 79
4, 11429, Control_c, 2, 11, 96
4, 11441, Control_c, 2, 11, 98
4, 11447, Note_on_c, 2, 70, 0
4, 11449, Note_on_c, 2, 77, 0
4, 11449, Note_on_c, 2, 74, 0
4, 11450, Note_on_c, 2, 68, 0
4, 11453, Control_c, 2, 11, 101
4, 11455, Note_on_c, 2, 68, 67
4, 11455, Note_on_c, 2, 77, 72
4, 11455, Note_on_c, 2, 74, 82
4, 11455, Note_on_c, 2, 70, 80
4, 11461, Control_c, 2, 11, 98
4, 11478, Note_on_c, 2, 70, 0
4, 11479, Control_c, 2, 11, 102
4, 11481, Note_on_c, 2, 77, 0
4, 11481, Note_on_c, 2, 74, 0
4, 11482, Note_on_c, 2, 68, 0
4, 11482, Control_c, 2, 11, 104
4, 11487, Note_on_c, 2, 68, 67
4, 11487, Note_on_c, 2, 77, 66
4, 11487, Note_on_c, 2, 70, 70
4, 11487, Note_on_c, 2, 74, 75
4, 11489, Control_c, 2, 11, 107
4, 11497, Control_c, 2, 11, 109
4, 11508, Control_c, 2, 11, 112
4, 11509, Note_on_c, 2, 68, 0
4, 11515, Note_on_c, 2, 70, 0
4, 11520, Note_on_c, 2, 77, 0
4, 11521, Note_on_c, 2, 70, 67
4, 11521, Note_on_c, 2, 75, 70
4, 11521, Note_on_c, 2, 67, 67
4, 11521, Control_c, 2, 11, 109
4, 11522, Note_on_c, 2, 74, 0
4, 11522, Control_c, 2, 11, 107
4, 11526, Control_c, 2, 11, 104
4, 11533, Control_c, 2, 11, 102
4, 11539, Control_c, 2, 11, 99
4, 11545, Control_c, 2, 11, 96
4, 11550, Control_c, 2, 11, 94
4, 11557, Control_c, 2, 11, 91
4, 11572, Control_c, 2, 11, 89
4, 11601, Control_c, 2, 11, 91
4, 11605, Control_c, 2, 11, 94
4, 11614, Control_c, 2, 11, 96
4, 11624, Control_c, 2, 11, 99
4, 11629, Control_c, 2, 11, 102
4, 11639, Control_c, 2, 11, 104
4, 11651, Control_c, 2, 11, 101
4, 11655, Control_c, 2, 11, 99
4, 11675, Control_c, 2, 11, 101
4, 11686, Control_c, 2, 11, 104
4, 11700, Control_c, 2, 11, 106
4, 11709, Control_c, 2, 11, 109
4, 11724, Control_c, 2, 11, 106
4, 11737, Control_c, 2, 11, 104
4, 11745, Control_c, 2, 11, 101
4, 11751, Control_c, 2, 11, 99
4, 11766, Control_c, 2, 11, 96
4, 11772, Control_c, 2, 11, 94
4, 11778, Control_c, 2, 11, 91
4, 11791, Control_c, 2, 11, 89
4, 11800, Control_c, 2, 11, 86
4, 11811, Control_c, 2, 11, 84
4, 11839, Control_c, 2, 11, 87
4, 11844, Control_c, 2, 11, 89
4, 11849, Control_c, 2, 11, 92
4, 11857, Control_c, 2, 11, 95
4, 11870, Control_c, 2, 11, 97
4, 11878, Control_c, 2, 11, 100
4, 11885, Control_c, 2, 11, 102
4, 11892, Control_c, 2, 11, 105
4, 11910, Control_c, 2, 11, 102
4, 11917, Control_c, 2, 11, 100
4, 11923, Control_c, 2, 11, 97
4, 11932, Control_c, 2, 11, 95
4, 11939, Control_c, 2, 11, 92
4, 11945, Control_c, 2, 11, 90
4, 11950, Control_c, 2, 11, 87
4, 11964, Control_c, 2, 11, 85
4, 11971, Control_c, 2, 11, 82
4, 11978, Control_c, 2, 11, 80
4, 11983, Control_c, 2, 11, 77
4, 12006, Control_c, 2, 11, 80
4, 12019, Control_c, 2, 11, 82
4, 12027, Control_c, 2, 11, 85
4, 12034, Control_c, 2, 11, 88
4, 12042, Control_c, 2, 11, 90
4, 12057, Control_c, 2, 11, 93
4, 12075, Control_c, 2, 11, 95
4, 12082, Control_c, 2, 11, 98
4, 12088, Control_c, 2, 11, 100
4, 12107, Control_c, 2, 11, 98
4, 12111, Control_c, 2, 11, 95
4, 12119, Control_c, 2, 11, 93
4, 12125, Control_c, 2, 11, 90
4, 12133, Control_c, 2, 11, 88
4, 12147, Control_c, 2, 11, 85
4, 12161, Control_c, 2, 11, 83
4, 12187, Control_c, 2, 11, 85
4, 12191, Control_c, 2, 11, 88
4, 12195, Control_c, 2, 11, 91
4, 12199, Control_c, 2, 11, 94
4, 12207, Control_c, 2, 11, 96
4, 12216, Control_c, 2, 11, 99
4, 12220, Control_c, 2, 11, 101
4, 12225, Control_c, 2, 11, 104
4, 12238, Control_c, 2, 11, 106
4, 12258, Control_c, 2, 11, 103
4, 12262, Control_c, 2, 11, 101
4, 12276, Note_on_c, 2, 70, 0
4, 12276, Note_on_c, 2, 75, 0
4, 12282, Control_c, 2, 11, 103
4, 12287, Note_on_c, 2, 68, 72
4, 12287, Note_on_c, 2, 74, 70
4, 12287, Note_on_c, 2, 77, 82
4, 12287, Note_on_c, 2, 70, 69
4, 12288, Note_on_c, 2, 67, 0
4, 12298, Control_c, 2, 11, 101
4, 12302, Control_c, 2, 11, 98
4, 12312, Control_c, 2, 11, 96
4, 12326, Control_c, 2, 11, 93
4, 12334, Control_c, 2, 11, 91
4, 12345, Control_c, 2, 11, 88
4, 12355, Control_c, 2, 11, 86
4, 12362, Control_c, 2, 11, 83
4, 12369, Control_c, 2, 11, 81
4, 12411, Control_c, 2, 11, 78
4, 12429, Control_c, 2, 11, 76
4, 12447, Control_c, 2, 11, 73
4, 12468, Control_c, 2, 11, 71
4, 12483, Control_c, 2, 11, 68
4, 12517, Control_c, 2, 11, 71
4, 12539, Control_c, 2, 11, 73
4, 12558, Control_c, 2, 11, 76
4, 12578, Control_c, 2, 11, 78
4, 12608, Control_c, 2, 11, 81
4, 12642, Control_c, 2, 11, 78
4, 12653, Control_c, 2, 11, 76
4, 12664, Control_c, 2, 11, 73
4, 12677, Control_c, 2, 11, 71
4, 12701, Control_c, 2, 11, 68
4, 12722, Control_c, 2, 11, 66
4, 12744, Control_c, 2, 11, 68
4, 12759, Control_c, 2, 11, 71
4, 12770, Control_c, 2, 11, 73
4, 12781, Control_c, 2, 11, 76
4, 12791, Control_c, 2, 11, 78
4, 12812, Control_c, 2, 11, 81
4, 12823, Control_c, 2, 11, 83
4, 12863, Control_c, 2, 11, 81
4, 12868, Control_c, 2, 11, 78
4, 12872, Control_c, 2, 11, 75
4, 12876, Control_c, 2, 11, 73
4, 12895, Control_c, 2, 11, 70
4, 12933, Control_c, 2, 11, 73
4, 12949, Control_c, 2, 11, 75
4, 12974, Control_c, 2, 11, 78
4, 13014, Control_c, 2, 11, 76
4, 13018, Control_c, 2, 11, 73
4, 13024, Control_c, 2, 11, 70
4, 13035, Control_c, 2, 11, 73
4, 13039, Control_c, 2, 11, 75
4, 13043, Control_c, 2, 11, 78
4, 13048, Control_c, 2, 11, 80
4, 13054, Note_on_c, 2, 68, 0
4, 13054, Note_on_c, 2, 74, 0
4, 13054, Note_on_c, 2, 70, 0
4, 13056, Note_on_c, 2, 77, 0
4, 13056, Note_on_c, 2, 75, 73
4, 13057, Note_on_c, 2, 69, 70
4, 13057, Note_on_c, 2, 72, 74
4, 13070, Control_c, 2, 11, 78
4, 13079, Control_c, 2, 11, 75
4, 13087, Control_c, 2, 11, 73
4, 13092, Control_c, 2, 11, 70
4, 13098, Control_c, 2, 11, 68
4, 13105, Control_c, 2, 11, 65
4, 13115, Control_c, 2, 11, 63
4, 13123, Control_c, 2, 11, 60
4, 13139, Control_c, 2, 11, 63
4, 13150, Control_c, 2, 11, 65
4, 13164, Control_c, 2, 11, 68
4, 13176, Control_c, 2, 11, 70
4, 13185, Control_c, 2, 11, 73
4, 13200, Control_c, 2, 11, 75
4, 13209, Control_c, 2, 11, 78
4, 13227, Control_c, 2, 11, 80
4, 13241, Control_c, 2, 11, 83
4, 13271, Control_c, 2, 11, 80
4, 13278, Control_c, 2, 11, 78
4, 13288, Control_c, 2, 11, 75
4, 13304, Control_c, 2, 11, 73
4, 13314, Control_c, 2, 11, 70
4, 13322, Control_c, 2, 11, 68
4, 13362, Control_c, 2, 11, 70
4, 13369, Control_c, 2, 11, 73
4, 13377, Control_c, 2, 11, 75
4, 13385, Control_c, 2, 11, 78
4, 13398, Control_c, 2, 11, 80
4, 13408, Control_c, 2, 11, 83
4, 13417, Control_c, 2, 11, 85
4, 13424, Control_c, 2, 11, 88
4, 13432, Control_c, 2, 11, 90
4, 13439, Note_on_c, 2, 67, 70
4, 13439, Note_on_c, 2, 70, 80
4, 13440, Note_on_c, 2, 69, 0
4, 13440, Note_on_c, 2, 72, 0
4, 13459, Control_c, 2, 11, 87
4, 13464, Control_c, 2, 11, 85
4, 13470, Control_c, 2, 11, 82
4, 13480, Control_c, 2, 11, 80
4, 13489, Control_c, 2, 11, 77
4, 13494, Control_c, 2, 11, 75
4, 13505, Control_c, 2, 11, 72
4, 13522, Control_c, 2, 11, 70
4, 13559, Control_c, 2, 11, 72
4, 13573, Control_c, 2, 11, 75
4, 13584, Control_c, 2, 11, 77
4, 13600, Control_c, 2, 11, 80
4, 13625, Control_c, 2, 11, 82
4, 13680, Control_c, 2, 11, 80
4, 13697, Control_c, 2, 11, 77
4, 13714, Control_c, 2, 11, 75
4, 13746, Control_c, 2, 11, 77
4, 13752, Control_c, 2, 11, 80
4, 13761, Control_c, 2, 11, 82
4, 13767, Control_c, 2, 11, 85
4, 13774, Control_c, 2, 11, 88
4, 13778, Control_c, 2, 11, 90
4, 13779, Control_c, 2, 11, 92
4, 13782, Control_c, 2, 11, 94
4, 13786, Control_c, 2, 11, 97
4, 13791, Control_c, 2, 11, 100
4, 13797, Control_c, 2, 11, 102
4, 13811, Control_c, 2, 11, 105
4, 13816, Control_c, 2, 11, 107
4, 13822, Note_on_c, 2, 67, 0
4, 13822, Note_on_c, 2, 70, 0
4, 13823, Note_on_c, 2, 75, 0
4, 13823, Note_on_c, 2, 70, 72
4, 13823, Note_on_c, 2, 68, 64
4, 13823, Note_on_c, 2, 77, 82
4, 13823, Note_on_c, 2, 74, 70
4, 13829, Control_c, 2, 11, 105
4, 13835, Control_c, 2, 11, 102
4, 13840, Control_c, 2, 11, 99
4, 13844, Control_c, 2, 11, 96
4, 13848, Control_c, 2, 11, 93
4, 13854, Control_c, 2, 11, 91
4, 13860, Control_c, 2, 11, 88
4, 13866, Control_c, 2, 11, 85
4, 13877, Control_c, 2, 11, 83
4, 13888, Control_c, 2, 11, 80
4, 13899, Control_c, 2, 11, 78
4, 13911, Control_c, 2, 11, 75
4, 13921, Control_c, 2, 11, 73
4, 13947, Control_c, 2, 11, 75
4, 13951, Control_c, 2, 11, 78
4, 13960, Control_c, 2, 11, 81
4, 13965, Control_c, 2, 11, 83
4, 13969, Control_c, 2, 11, 86
4, 13973, Control_c, 2, 11, 89
4, 13979, Control_c, 2, 11, 91
4, 13987, Control_c, 2, 11, 94
4, 13994, Control_c, 2, 11, 97
4, 14001, Control_c, 2, 11, 100
4, 14006, Control_c, 2, 11, 102
4, 14032, Control_c, 2, 11, 100
4, 14037, Control_c, 2, 11, 97
4, 14042, Control_c, 2, 11, 94
4, 14047, Control_c, 2, 11, 91
4, 14052, Control_c, 2, 11, 89
4, 14057, Control_c, 2, 11, 86
4, 14064, Control_c, 2, 11, 84
4, 14074, Control_c, 2, 11, 81
4, 14081, Control_c, 2, 11, 78
4, 14105, Control_c, 2, 11, 81
4, 14107, Control_c, 2, 11, 83
4, 14111, Control_c, 2, 11, 86
4, 14115, Control_c, 2, 11, 88
4, 14119, Control_c, 2, 11, 91
4, 14123, Control_c, 2, 11, 94
4, 14133, Control_c, 2, 11, 96
4, 14140, Control_c, 2, 11, 99
4, 14145, Control_c, 2, 11, 101
4, 14155, Control_c, 2, 11, 104
4, 14162, Control_c, 2, 11, 101
4, 14166, Control_c, 2, 11, 99
4, 14170, Control_c, 2, 11, 96
4, 14176, Control_c, 2, 11, 93
4, 14179, Control_c, 2, 11, 90
4, 14184, Control_c, 2, 11, 88
4, 14192, Control_c, 2, 11, 85
4, 14198, Control_c, 2, 11, 83
4, 14203, Control_c, 2, 11, 80
4, 14206, Note_on_c, 2, 77, 0
4, 14206, Note_on_c, 2, 74, 0
4, 14207, Note_on_c, 2, 70, 0
4, 14208, Note_on_c, 2, 68, 0
4, 14224, Control_c, 2, 11, 83
4, 14231, Control_c, 2, 11, 85
4, 14235, Control_c, 2, 11, 88
4, 14239, Note_on_c, 2, 75, 58
4, 14240, Note_on_c, 2, 72, 65
4, 14240, Control_c, 2, 11, 90
4, 14241, Note_on_c, 2, 69, 61
4, 14251, Control_c, 2, 11, 93
4, 14261, Control_c, 2, 11, 95
4, 14265, Note_on_c, 2, 75, 0
4, 14265, Note_on_c, 2, 72, 0
4, 14265, Note_on_c, 2, 69, 0
4, 14269, Control_c, 2, 11, 98
4, 14271, Note_on_c, 2, 75, 61
4, 14272, Note_on_c, 2, 69, 65
4, 14272, Note_on_c, 2, 72, 72
4, 14279, Control_c, 2, 11, 100
4, 14294, Control_c, 2, 11, 103
4, 14296, Note_on_c, 2, 72, 0
4, 14298, Note_on_c, 2, 75, 0
4, 14298, Note_on_c, 2, 69, 0
4, 14303, Note_on_c, 2, 75, 68
4, 14303, Note_on_c, 2, 69, 67
4, 14303, Note_on_c, 2, 72, 77
4, 14313, Control_c, 2, 11, 100
4, 14317, Control_c, 2, 11, 97
4, 14321, Control_c, 2, 11, 94
4, 14323, Control_c, 2, 11, 93
4, 14327, Control_c, 2, 11, 90
4, 14329, Note_on_c, 2, 69, 0
4, 14330, Note_on_c, 2, 72, 0
4, 14331, Note_on_c, 2, 75, 0
4, 14332, Control_c, 2, 11, 88
4, 14335, Note_on_c, 2, 75, 73
4, 14335, Note_on_c, 2, 69, 75
4, 14336, Note_on_c, 2, 72, 94
4, 14338, Control_c, 2, 11, 85
4, 14345, Control_c, 2, 11, 83
4, 14350, Control_c, 2, 11, 80
4, 14358, Note_on_c, 2, 69, 0
4, 14359, Note_on_c, 2, 72, 0
4, 14359, Control_c, 2, 11, 78
4, 14360, Note_on_c, 2, 75, 0
4, 14365, Control_c, 2, 11, 75
4, 14367, Note_on_c, 2, 75, 63
4, 14367, Note_on_c, 2, 72, 85
4, 14367, Note_on_c, 2, 69, 73
4, 14376, Control_c, 2, 11, 73
4, 14392, Note_on_c, 2, 69, 0
4, 14393, Note_on_c, 2, 72, 0
4, 14395, Note_on_c, 2, 75, 0
4, 14396, Control_c, 2, 11, 76
4, 14399, Note_on_c, 2, 75, 75
4, 14399, Note_on_c, 2, 72, 83
4, 14399, Note_on_c, 2, 69, 74
4, 14403, Control_c, 2, 11, 78
4, 14416, Control_c, 2, 11, 81
4, 14437, Control_c, 2, 11, 83
4, 14451, Control_c, 2, 11, 86
4, 14462, Control_c, 2, 11, 88
4, 14470, Control_c, 2, 11, 91
4, 14477, Control_c, 2, 11, 93
4, 14489, Control_c, 2, 11, 96
4, 14491, Note_on_c, 2, 72, 0
4, 14492, Note_on_c, 2, 69, 0
4, 14493, Note_on_c, 2, 75, 0
4, 14495, Note_on_c, 2, 75, 71
4, 14495, Note_on_c, 2, 69, 72
4, 14495, Note_on_c, 2, 72, 89
4, 14499, Control_c, 2, 11, 98
4, 14516, Control_c, 2, 11, 101
4, 14520, Note_on_c, 2, 75, 0
4, 14520, Note_on_c, 2, 69, 0
4, 14520, Note_on_c, 2, 72, 0
4, 14526, Control_c, 2, 11, 103
4, 14527, Note_on_c, 2, 75, 76
4, 14527, Note_on_c, 2, 69, 67
4, 14527, Note_on_c, 2, 72, 82
4, 14538, Control_c, 2, 11, 106
4, 14546, Control_c, 2, 11, 108
4, 14550, Note_on_c, 2, 69, 0
4, 14550, Note_on_c, 2, 72, 0
4, 14552, Note_on_c, 2, 75, 0
4, 14559, Note_on_c, 2, 75, 71
4, 14559, Note_on_c, 2, 72, 89
4, 14559, Note_on_c, 2, 69, 70
4, 14568, Control_c, 2, 11, 111
4, 14574, Note_on_c, 2, 72, 0
4, 14575, Note_on_c, 2, 75, 0
4, 14575, Control_c, 2, 11, 113
4, 14576, Note_on_c, 2, 69, 0
4, 14592, Note_on_c, 2, 70, 74
4, 14592, Note_on_c, 2, 77, 72
4, 14593, Note_on_c, 2, 68, 67
4, 14593, Note_on_c, 2, 74, 82
4, 14593, Control_c, 2, 11, 111
4, 14599, Control_c, 2, 11, 108
4, 14609, Control_c, 2, 11, 106
4, 14619, Control_c, 2, 11, 103
4, 14623, Control_c, 2, 11, 100
4, 14628, Control_c, 2, 11, 98
4, 14659, Control_c, 2, 11, 95
4, 14752, Control_c, 2, 11, 93
4, 14762, Control_c, 2, 11, 90
4, 14770, Control_c, 2, 11, 88
4, 14777, Control_c, 2, 11, 85
4, 14800, Control_c, 2, 11, 83
4, 14828, Control_c, 2, 11, 80
4, 14876, Control_c, 2, 11, 83
4, 14881, Control_c, 2, 11, 85
4, 14890, Control_c, 2, 11, 88
4, 14920, Control_c, 2, 11, 85
4, 14948, Control_c, 2, 11, 88
4, 14953, Control_c, 2, 11, 91
4, 14958, Control_c, 2, 11, 93
4, 14961, Note_on_c, 2, 70, 0
4, 14966, Control_c, 2, 11, 96
4, 14975, Note_on_c, 2, 77, 0
4, 14975, Note_on_c, 2, 70, 84
4, 14975, Note_on_c, 2, 67, 77
4, 14975, Note_on_c, 2, 75, 80
4, 14975, Control_c, 2, 11, 99
4, 14976, Note_on_c, 2, 68, 0
4, 14976, Note_on_c, 2, 74, 0
4, 14981, Control_c, 2, 11, 101
4, 15004, Control_c, 2, 11, 98
4, 15011, Control_c, 2, 11, 96
4, 15019, Control_c, 2, 11, 93
4, 15030, Control_c, 2, 11, 91
4, 15038, Control_c, 2, 11, 88
4, 15061, Control_c, 2, 11, 86
4, 15085, Control_c, 2, 11, 88
4, 15092, Control_c, 2, 11, 91
4, 15101, Control_c, 2, 11, 94
4, 15135, Control_c, 2, 11, 91
4, 15144, Control_c, 2, 11, 89
4, 15155, Control_c, 2, 11, 86
4, 15165, Control_c, 2, 11, 84
4, 15186, Control_c, 2, 11, 86
4, 15190, Control_c, 2, 11, 89
4, 15195, Control_c, 2, 11, 91
4, 15219, Control_c, 2, 11, 94
4, 15234, Control_c, 2, 11, 96
4, 15246, Control_c, 2, 11, 99
4, 15250, Control_c, 2, 11, 101
4, 15284, Control_c, 2, 11, 99
4, 15289, Control_c, 2, 11, 96
4, 15296, Control_c, 2, 11, 94
4, 15303, Control_c, 2, 11, 91
4, 15323, Control_c, 2, 11, 89
4, 15333, Control_c, 2, 11, 86
4, 15346, Note_on_c, 2, 70, 0
4, 15358, Note_on_c, 2, 67, 0
4, 15358, Note_on_c, 2, 75, 0
4, 15358, Control_c, 2, 11, 84
4, 15359, Note_on_c, 2, 74, 82
4, 15359, Note_on_c, 2, 70, 76
4, 15359, Note_on_c, 2, 68, 71
4, 15359, Note_on_c, 2, 77, 90
4, 15391, Control_c, 2, 11, 86
4, 15396, Control_c, 2, 11, 89
4, 15402, Control_c, 2, 11, 91
4, 15409, Control_c, 2, 11, 94
4, 15428, Control_c, 2, 11, 96
4, 15435, Control_c, 2, 11, 99
4, 15468, Control_c, 2, 11, 97
4, 15473, Control_c, 2, 11, 94
4, 15479, Control_c, 2, 11, 91
4, 15489, Control_c, 2, 11, 89
4, 15501, Control_c, 2, 11, 86
4, 15513, Control_c, 2, 11, 84
4, 15526, Control_c, 2, 11, 81
4, 15590, Control_c, 2, 11, 84
4, 15604, Control_c, 2, 11, 86
4, 15630, Control_c, 2, 11, 89
4, 15648, Control_c, 2, 11, 91
4, 15679, Control_c, 2, 11, 89
4, 15692, Control_c, 2, 11, 86
4, 15699, Control_c, 2, 11, 84
4, 15711, Control_c, 2, 11, 81
4, 15740, Control_c, 2, 11, 79
4, 15761, Control_c, 2, 11, 81
4, 15791, Control_c, 2, 11, 84
4, 15808, Control_c, 2, 11, 86
4, 15823, Control_c, 2, 11, 89
4, 15848, Control_c, 2, 11, 91
4, 15856, Control_c, 2, 11, 94
4, 15881, Control_c, 2, 11, 96
4, 15911, Control_c, 2, 11, 99
4, 15927, Control_c, 2, 11, 101
4, 15957, Control_c, 2, 11, 99
4, 15963, Control_c, 2, 11, 96
4, 15976, Control_c, 2, 11, 94
4, 15985, Control_c, 2, 11, 91
4, 15998, Control_c, 2, 11, 89
4, 16025, Control_c, 2, 11, 86
4, 16031, Control_c, 2, 11, 84
4, 16036, Control_c, 2, 11, 81
4, 16049, Control_c, 2, 11, 79
4, 16056, Control_c, 2, 11, 76
4, 16064, Control_c, 2, 11, 74
4, 16079, Control_c, 2, 11, 71
4, 16093, Control_c, 2, 11, 74
4, 16101, Control_c, 2, 11, 76
4, 16107, Control_c, 2, 11, 79
4, 16112, Control_c, 2, 11, 81
4, 16115, Note_on_c, 2, 70, 0
4, 16117, Control_c, 2, 11, 84
4, 16119, Note_on_c, 2, 77, 0
4, 16124, Control_c, 2, 11, 86
4, 16126, Note_on_c, 2, 74, 0
4, 16126, Note_on_c, 2, 68, 0
4, 16127, Note_on_c, 2, 67, 70
4, 16127, Note_on_c, 2, 75, 74
4, 16127, Note_on_c, 2, 70, 75
4, 16130, Control_c, 2, 11, 89
4, 16138, Control_c, 2, 11, 91
4, 16153, Control_c, 2, 11, 89
4, 16161, Control_c, 2, 11, 86
4, 16174, Control_c, 2, 11, 84
4, 16185, Control_c, 2, 11, 81
4, 16203, Control_c, 2, 11, 84
4, 16210, Control_c, 2, 11, 86
4, 16218, Control_c, 2, 11, 89
4, 16223, Control_c, 2, 11, 91
4, 16230, Control_c, 2, 11, 94
4, 16251, Control_c, 2, 11, 91
4, 16258, Control_c, 2, 11, 89
4, 16269, Control_c, 2, 11, 86
4, 16277, Control_c, 2, 11, 84
4, 16288, Control_c, 2, 11, 81
4, 16308, Control_c, 2, 11, 84
4, 16313, Control_c, 2, 11, 87
4, 16319, Control_c, 2, 11, 90
4, 16325, Control_c, 2, 11, 93
4, 16332, Control_c, 2, 11, 95
4, 16380, Control_c, 2, 11, 93
4, 16384, Control_c, 2, 11, 90
4, 16389, Control_c, 2, 11, 87
4, 16393, Control_c, 2, 11, 84
4, 16398, Control_c, 2, 11, 82
4, 16409, Control_c, 2, 11, 79
4, 16464, Control_c, 2, 11, 82
4, 16479, Control_c, 2, 11, 84
4, 16495, Control_c, 2, 11, 87
4, 16510, Control_c, 2, 11, 89
4, 16521, Control_c, 2, 11, 92
4, 16533, Control_c, 2, 11, 94
4, 16572, Control_c, 2, 11, 92
4, 16584, Control_c, 2, 11, 89
4, 16593, Control_c, 2, 11, 87
4, 16602, Control_c, 2, 11, 84
4, 16614, Control_c, 2, 11, 82
4, 16636, Control_c, 2, 11, 79
4, 16679, Control_c, 2, 11, 82
4, 16689, Control_c, 2, 11, 84
4, 16697, Control_c, 2, 11, 87
4, 16704, Control_c, 2, 11, 89
4, 16711, Control_c, 2, 11, 92
4, 16724, Control_c, 2, 11, 94
4, 16745, Control_c, 2, 11, 97
4, 16773, Control_c, 2, 11, 99
4, 16786, Control_c, 2, 11, 102
4, 16835, Control_c, 2, 11, 99
4, 16853, Control_c, 2, 11, 97
4, 16862, Control_c, 2, 11, 94
4, 16886, Note_on_c, 2, 67, 0
4, 16886, Note_on_c, 2, 75, 0
4, 16891, Note_on_c, 2, 70, 0
4, 16896, Note_on_c, 2, 70, 70
4, 16897, Note_on_c, 2, 77, 83
4, 16897, Note_on_c, 2, 68, 81
4, 16897, Note_on_c, 2, 74, 86
4, 16899, Control_c, 2, 11, 97
4, 16910, Control_c, 2, 11, 99
4, 16921, Control_c, 2, 11, 102
4, 16934, Control_c, 2, 11, 104
4, 16996, Control_c, 2, 11, 102
4, 17002, Control_c, 2, 11, 99
4, 17017, Control_c, 2, 11, 97
4, 17030, Control_c, 2, 11, 94
4, 17038, Control_c, 2, 11, 92
4, 17047, Control_c, 2, 11, 89
4, 17053, Control_c, 2, 11, 87
4, 17067, Control_c, 2, 11, 84
4, 17092, Control_c, 2, 11, 82
4, 17136, Control_c, 2, 11, 85
4, 17141, Control_c, 2, 11, 87
4, 17150, Control_c, 2, 11, 90
4, 17164, Control_c, 2, 11, 92
4, 17173, Control_c, 2, 11, 95
4, 17183, Control_c, 2, 11, 97
4, 17209, Control_c, 2, 11, 95
4, 17216, Control_c, 2, 11, 92
4, 17224, Control_c, 2, 11, 90
4, 17231, Control_c, 2, 11, 87
4, 17246, Control_c, 2, 11, 85
4, 17267, Control_c, 2, 11, 82
4, 17282, Control_c, 2, 11, 80
4, 17314, Control_c, 2, 11, 82
4, 17331, Control_c, 2, 11, 85
4, 17348, Control_c, 2, 11, 87
4, 17358, Control_c, 2, 11, 90
4, 17371, Control_c, 2, 11, 92
4, 17392, Control_c, 2, 11, 95
4, 17424, Control_c, 2, 11, 92
4, 17433, Control_c, 2, 11, 90
4, 17444, Control_c, 2, 11, 87
4, 17458, Control_c, 2, 11, 85
4, 17495, Control_c, 2, 11, 87
4, 17506, Control_c, 2, 11, 90
4, 17513, Control_c, 2, 11, 92
4, 17541, Control_c, 2, 11, 90
4, 17549, Control_c, 2, 11, 87
4, 17558, Control_c, 2, 11, 85
4, 17571, Control_c, 2, 11, 82
4, 17586, Control_c, 2, 11, 80
4, 17598, Control_c, 2, 11, 77
4, 17616, Control_c, 2, 11, 75
4, 17642, Control_c, 2, 11, 77
4, 17649, Control_c, 2, 11, 80
4, 17651, Note_on_c, 2, 70, 0
4, 17652, Note_on_c, 2, 77, 0
4, 17652, Note_on_c, 2, 68, 0
4, 17652, Note_on_c, 2, 74, 0
4, 17656, Control_c, 2, 11, 82
4, 17660, Control_c, 2, 11, 85
4, 17663, Note_on_c, 2, 75, 72
4, 17663, Note_on_c, 2, 69, 70
4, 17663, Note_on_c, 2, 72, 82
4, 17667, Control_c, 2, 11, 87
4, 17715, Control_c, 2, 11, 85
4, 17722, Control_c, 2, 11, 82
4, 17735, Control_c, 2, 11, 80
4, 17748, Control_c, 2, 11, 77
4, 17760, Control_c, 2, 11, 75
4, 17781, Control_c, 2, 11, 72
4, 17792, Control_c, 2, 11, 70
4, 17815, Control_c, 2, 11, 72
4, 17827, Control_c, 2, 11, 75
4, 17836, Control_c, 2, 11, 77
4, 17860, Control_c, 2, 11, 80
4, 17887, Control_c, 2, 11, 82
4, 17926, Control_c, 2, 11, 85
4, 17940, Control_c, 2, 11, 87
4, 17948, Control_c, 2, 11, 90
4, 17977, Control_c, 2, 11, 87
4, 17984, Control_c, 2, 11, 85
4, 17990, Control_c, 2, 11, 82
4, 18013, Control_c, 2, 11, 80
4, 18035, Control_c, 2, 11, 77
4, 18038, Note_on_c, 2, 75, 0
4, 18044, Control_c, 2, 11, 75
4, 18046, Note_on_c, 2, 69, 0
4, 18046, Note_on_c, 2, 72, 0
4, 18047, Note_on_c, 2, 75, 74
4, 18047, Note_on_c, 2, 70, 72
4, 18047, Note_on_c, 2, 67, 71
4, 18065, Control_c, 2, 11, 72
4, 18105, Control_c, 2, 11, 75
4, 18120, Control_c, 2, 11, 77
4, 18128, Control_c, 2, 11, 80
4, 18149, Control_c, 2, 11, 82
4, 18160, Control_c, 2, 11, 85
4, 18186, Control_c, 2, 11, 87
4, 18198, Control_c, 2, 11, 90
4, 18211, Control_c, 2, 11, 92
4, 18223, Control_c, 2, 11, 95
4, 18270, Control_c, 2, 11, 92
4, 18278, Control_c, 2, 11, 90
4, 18285, Control_c, 2, 11, 87
4, 18293, Control_c, 2, 11, 85
4, 18310, Control_c, 2, 11, 87
4, 18315, Control_c, 2, 11, 90
4, 18321, Control_c, 2, 11, 93
4, 18329, Control_c, 2, 11, 96
4, 18346, Control_c, 2, 11, 93
4, 18348, Control_c, 2, 11, 90
4, 18353, Control_c, 2, 11, 88
4, 18358, Control_c, 2, 11, 85
4, 18363, Control_c, 2, 11, 82
4, 18367, Control_c, 2, 11, 79
4, 18372, Control_c, 2, 11, 76
4, 18377, Control_c, 2, 11, 74
4, 18387, Control_c, 2, 11, 71
4, 18408, Control_c, 2, 11, 74
4, 18414, Control_c, 2, 11, 77
4, 18421, Note_on_c, 2, 70, 0
4, 18426, Control_c, 2, 11, 79
4, 18430, Note_on_c, 2, 75, 0
4, 18430, Note_on_c, 2, 67, 0
4, 18431, Note_on_c, 2, 74, 78
4, 18431, Note_on_c, 2, 68, 72
4, 18431, Note_on_c, 2, 70, 72
4, 18431, Note_on_c, 2, 77, 83
4, 18437, Control_c, 2, 11, 82
4, 18475, Control_c, 2, 11, 84
4, 18490, Control_c, 2, 11, 87
4, 18508, Control_c, 2, 11, 84
4, 18518, Control_c, 2, 11, 81
4, 18526, Control_c, 2, 11, 79
4, 18536, Control_c, 2, 11, 76
4, 18560, Control_c, 2, 11, 79
4, 18564, Control_c, 2, 11, 82
4, 18600, Control_c, 2, 11, 80
4, 18617, Control_c, 2, 11, 77
4, 18631, Control_c, 2, 11, 75
4, 18668, Control_c, 2, 11, 77
4, 18683, Control_c, 2, 11, 80
4, 18690, Control_c, 2, 11, 82
4, 18697, Control_c, 2, 11, 85
4, 18702, Control_c, 2, 11, 87
4, 18720, Control_c, 2, 11, 90
4, 18727, Control_c, 2, 11, 92
4, 18732, Control_c, 2, 11, 95
4, 18759, Control_c, 2, 11, 92
4, 18763, Control_c, 2, 11, 89
4, 18767, Control_c, 2, 11, 86
4, 18774, Control_c, 2, 11, 84
4, 18782, Control_c, 2, 11, 81
4, 18792, Control_c, 2, 11, 79
4, 18803, Control_c, 2, 11, 76
4, 18804, Note_on_c, 2, 74, 0
4, 18811, Note_on_c, 2, 70, 0
4, 18811, Note_on_c, 2, 77, 0
4, 18812, Note_on_c, 2, 68, 0
4, 18815, Control_c, 2, 11, 79
4, 18822, Control_c, 2, 11, 81
4, 18829, Control_c, 2, 11, 84
4, 18837, Control_c, 2, 11, 86
4, 18845, Control_c, 2, 11, 89
4, 18847, Note_on_c, 2, 75, 73
4, 18847, Note_on_c, 2, 72, 77
4, 18847, Note_on_c, 2, 69, 74
4, 18852, Control_c, 2, 11, 92
4, 18867, Control_c, 2, 11, 94
4, 18873, Note_on_c, 2, 69, 0
4, 18874, Note_on_c, 2, 72, 0
4, 18874, Control_c, 2, 11, 92
4, 18876, Note_on_c, 2, 75, 0
4, 18878, Control_c, 2, 11, 89
4, 18879, Note_on_c, 2, 75, 73
4, 18879, Note_on_c, 2, 72, 75
4, 18879, Note_on_c, 2, 69, 69
4, 18906, Note_on_c, 2, 75, 0
4, 18906, Note_on_c, 2, 72, 0
4, 18907, Note_on_c, 2, 69, 0
4, 18910, Control_c, 2, 11, 87
4, 18912, Note_on_c, 2, 75, 74
4, 18912, Note_on_c, 2, 69, 79
4, 18912, Note_on_c, 2, 72, 90
4, 18922, Control_c, 2, 11, 84
4, 18937, Note_on_c, 2, 75, 0
4, 18937, Note_on_c, 2, 69, 0
4, 18937, Note_on_c, 2, 72, 0
4, 18943, Note_on_c, 2, 75, 73
4, 18943, Note_on_c, 2, 69, 75
4, 18943, Note_on_c, 2, 72, 77
4, 18944, Control_c, 2, 11, 82
4, 18961, Control_c, 2, 11, 79
4, 18966, Note_on_c, 2, 69, 0
4, 18966, Note_on_c, 2, 72, 0
4, 18967, Note_on_c, 2, 75, 0
4, 18975, Note_on_c, 2, 75, 73
4, 18975, Note_on_c, 2, 69, 75
4, 18975, Note_on_c, 2, 72, 88
4, 18998, Note_on_c, 2, 69, 0
4, 18998, Note_on_c, 2, 72, 0
4, 19001, Note_on_c, 2, 75, 0
4, 19001, Control_c, 2, 11, 77
4, 19007, Note_on_c, 2, 75, 73
4, 19008, Note_on_c, 2, 69, 76
4, 19008, Note_on_c, 2, 72, 87
4, 19024, Control_c, 2, 11, 79
4, 19080, Control_c, 2, 11, 82
4, 19092, Control_c, 2, 11, 84
4, 19096, Note_on_c, 2, 72, 0
4, 19097, Note_on_c, 2, 75, 0
4, 19097, Note_on_c, 2, 69, 0
4, 19103, Note_on_c, 2, 75, 73
4, 19103, Note_on_c, 2, 69, 71
4, 19103, Note_on_c, 2, 72, 78
4, 19104, Control_c, 2, 11, 87
4, 19109, Control_c, 2, 11, 90
4, 19111, Control_c, 2, 11, 91
4, 19114, Control_c, 2, 11, 94
4, 19122, Control_c, 2, 11, 96
4, 19126, Note_on_c, 2, 72, 0
4, 19127, Note_on_c, 2, 69, 0
4, 19128, Note_on_c, 2, 75, 0
4, 19130, Control_c, 2, 11, 99
4, 19132, Control_c, 2, 11, 100
4, 19134, Control_c, 2, 11, 103
4, 19135, Note_on_c, 2, 75, 79
4, 19135, Note_on_c, 2, 69, 74
4, 19135, Note_on_c, 2, 72, 89
4, 19144, Control_c, 2, 11, 100
4, 19145, Control_c, 2, 11, 99
4, 19152, Control_c, 2, 11, 96
4, 19158, Note_on_c, 2, 72, 0
4, 19159, Note_on_c, 2, 69, 0
4, 19159, Control_c, 2, 11, 99
4, 19160, Note_on_c, 2, 75, 0
4, 19163, Control_c, 2, 11, 103
4, 19167, Note_on_c, 2, 75, 70
4, 19167, Note_on_c, 2, 69, 74
4, 19167, Note_on_c, 2, 72, 82
4, 19167, Control_c, 2, 11, 105
4, 19184, Control_c, 2, 11, 108
4, 19186, Note_on_c, 2, 72, 0
4, 19187, Note_on_c, 2, 75, 0
4, 19187, Note_on_c, 2, 69, 0
4, 19192, Control_c, 2, 11, 110
4, 19200, Control_c, 2, 11, 107
4, 19201, Note_on_c, 2, 70, 74
4, 19201, Note_on_c, 2, 68, 72
4, 19201, Note_on_c, 2, 77, 72
4, 19201, Note_on_c, 2, 74, 72
4, 19202, Control_c, 2, 11, 105
4, 19203, Control_c, 2, 11, 104
4, 19298, Control_c, 2, 11, 101
4, 19299, Control_c, 2, 11, 99
4, 19316, Control_c, 2, 11, 102
4, 19367, Control_c, 2, 11, 99
4, 19397, Control_c, 2, 11, 97
4, 19410, Control_c, 2, 11, 94
4, 19460, Control_c, 2, 11, 97
4, 19467, Control_c, 2, 11, 99
4, 19471, Control_c, 2, 11, 102
4, 19477, Control_c, 2, 11, 105
4, 19487, Control_c, 2, 11, 107
4, 19493, Control_c, 2, 11, 110
4, 19521, Control_c, 2, 11, 107
4, 19527, Control_c, 2, 11, 105
4, 19531, Control_c, 2, 11, 102
4, 19535, Control_c, 2, 11, 99
4, 19539, Control_c, 2, 11, 96
4, 19544, Control_c, 2, 11, 94
4, 19549, Control_c, 2, 11, 91
4, 19553, Control_c, 2, 11, 89
4, 19557, Control_c, 2, 11, 86
4, 19564, Control_c, 2, 11, 84
4, 19571, Note_on_c, 2, 77, 0
4, 19572, Note_on_c, 2, 74, 0
4, 19573, Note_on_c, 2, 70, 0
4, 19573, Note_on_c, 2, 68, 0
4, 19583, Note_on_c, 2, 74, 67
4, 19583, Note_on_c, 2, 68, 70
4, 19583, Note_on_c, 2, 77, 82
4, 19583, Note_on_c, 2, 70, 70
4, 19584, Control_c, 2, 11, 86
4, 19593, Control_c, 2, 11, 89
4, 19608, Control_c, 2, 11, 91
4, 19617, Control_c, 2, 11, 94
4, 19625, Control_c, 2, 11, 96
4, 19642, Control_c, 2, 11, 99
4, 19653, Control_c, 2, 11, 101
4, 19663, Control_c, 2, 11, 104
4, 19668, Control_c, 2, 11, 106
4, 19672, Control_c, 2, 11, 109
4, 19707, Control_c, 2, 11, 106
4, 19721, Control_c, 2, 11, 104
4, 19734, Control_c, 2, 11, 101
4, 19745, Control_c, 2, 11, 99
4, 19759, Control_c, 2, 11, 96
4, 19769, Control_c, 2, 11, 94
4, 19781, Control_c, 2, 11, 91
4, 19794, Control_c, 2, 11, 89
4, 19802, Control_c, 2, 11, 86
4, 19832, Control_c, 2, 11, 89
4, 19836, Control_c, 2, 11, 92
4, 19842, Control_c, 2, 11, 95
4, 19855, Control_c, 2, 11, 97
4, 19868, Control_c, 2, 11, 100
4, 19876, Control_c, 2, 11, 102
4, 19893, Control_c, 2, 11, 105
4, 19916, Control_c, 2, 11, 107
4, 19934, Control_c, 2, 11, 110
4, 19952, Control_c, 2, 11, 112
4, 19960, Note_on_c, 2, 77, 0
4, 19961, Note_on_c, 2, 74, 0
4, 19961, Note_on_c, 2, 70, 0
4, 19963, Note_on_c, 2, 68, 0
4, 19967, Note_on_c, 2, 68, 71
4, 19967, Note_on_c, 2, 74, 69
4, 19967, Note_on_c, 2, 77, 83
4, 19967, Note_on_c, 2, 70, 76
4, 19972, Control_c, 2, 11, 109
4, 19978, Control_c, 2, 11, 107
4, 19983, Control_c, 2, 11, 104
4, 19989, Control_c, 2, 11, 101
4, 19993, Control_c, 2, 11, 99
4, 20001, Control_c, 2, 11, 96
4, 20010, Control_c, 2, 11, 94
4, 20015, Control_c, 2, 11, 91
4, 20023, Control_c, 2, 11, 89
4, 20030, Control_c, 2, 11, 86
4, 20061, Control_c, 2, 11, 89
4, 20065, Control_c, 2, 11, 92
4, 20069, Control_c, 2, 11, 94
4, 20084, Control_c, 2, 11, 97
4, 20107, Control_c, 2, 11, 99
4, 20118, Control_c, 2, 11, 102
4, 20138, Control_c, 2, 11, 104
4, 20149, Control_c, 2, 11, 107
4, 20178, Control_c, 2, 11, 104
4, 20184, Control_c, 2, 11, 102
4, 20196, Control_c, 2, 11, 99
4, 20219, Control_c, 2, 11, 96
4, 20230, Control_c, 2, 11, 94
4, 20246, Control_c, 2, 11, 97
4, 20288, Control_c, 2, 11, 94
4, 20293, Control_c, 2, 11, 91
4, 20300, Control_c, 2, 11, 89
4, 20321, Control_c, 2, 11, 91
4, 20326, Control_c, 2, 11, 94
4, 20336, Control_c, 2, 11, 97
4, 20339, Note_on_c, 2, 77, 0
4, 20340, Note_on_c, 2, 70, 0
4, 20341, Note_on_c, 2, 74, 0
4, 20343, Note_on_c, 2, 68, 0
4, 20347, Control_c, 2, 11, 99
4, 20351, Note_on_c, 2, 68, 77
4, 20351, Note_on_c, 2, 70, 76
4, 20351, Note_on_c, 2, 74, 81
4, 20351, Note_on_c, 2, 77, 83
4, 20372, Control_c, 2, 11, 97
4, 20383, Control_c, 2, 11, 94
4, 20389, Control_c, 2, 11, 92
4, 20398, Control_c, 2, 11, 89
4, 20404, Control_c, 2, 11, 87
4, 20412, Control_c, 2, 11, 84
4, 20441, Note_on_c, 2, 70, 0
4, 20442, Note_on_c, 2, 74, 0
4, 20442, Note_on_c, 2, 77, 0
4, 20444, Control_c, 2, 11, 87
4, 20446, Note_on_c, 2, 68, 0
4, 20447, Note_on_c, 2, 68, 66
4, 20447, Note_on_c, 2, 77, 75
4, 20447, Note_on_c, 2, 74, 90
4, 20447, Note_on_c, 2, 70, 79
4, 20454, Control_c, 2, 11, 89
4, 20464, Control_c, 2, 11, 92
4, 20475, Control_c, 2, 11, 94
4, 20483, Control_c, 2, 11, 97
4, 20497, Control_c, 2, 11, 99
4, 20502, Control_c, 2, 11, 102
4, 20511, Control_c, 2, 11, 104
4, 20537, Note_on_c, 2, 70, 0
4, 20538, Note_on_c, 2, 77, 0
4, 20538, Note_on_c, 2, 74, 0
4, 20542, Control_c, 2, 11, 102
4, 20543, Note_on_c, 2, 74, 80
4, 20543, Note_on_c, 2, 70, 66
4, 20543, Note_on_c, 2, 77, 74
4, 20549, Control_c, 2, 11, 99
4, 20563, Control_c, 2, 11, 97
4, 20566, Note_on_c, 2, 68, 0
4, 20570, Note_on_c, 2, 70, 0
4, 20570, Note_on_c, 2, 77, 0
4, 20572, Note_on_c, 2, 74, 0
4, 20575, Note_on_c, 2, 68, 66
4, 20576, Note_on_c, 2, 77, 67
4, 20576, Note_on_c, 2, 74, 64
4, 20576, Note_on_c, 2, 70, 72
4, 20582, Control_c, 2, 11, 94
4, 20597, Control_c, 2, 11, 92
4, 20603, Control_c, 2, 11, 89
4, 20604, Note_on_c, 2, 77, 0
4, 20604, Note_on_c, 2, 70, 0
4, 20605, Note_on_c, 2, 74, 0
4, 20609, Note_on_c, 2, 77, 81
4, 20609, Note_on_c, 2, 70, 70
4, 20609, Note_on_c, 2, 74, 71
4, 20631, Note_on_c, 2, 70, 0
4, 20632, Note_on_c, 2, 77, 0
4, 20633, Note_on_c, 2, 74, 0
4, 20633, Control_c, 2, 11, 92
4, 20634, Note_on_c, 2, 68, 0
4, 20637, Control_c, 2, 11, 95
4, 20639, Note_on_c, 2, 68, 72
4, 20639, Note_on_c, 2, 74, 68
4, 20639, Note_on_c, 2, 77, 82
4, 20639, Note_on_c, 2, 70, 84
4, 20641, Control_c, 2, 11, 97
4, 20658, Control_c, 2, 11, 100
4, 20662, Note_on_c, 2, 68, 0
4, 20663, Note_on_c, 2, 70, 0
4, 20664, Note_on_c, 2, 77, 0
4, 20665, Note_on_c, 2, 74, 0
4, 20671, Note_on_c, 2, 68, 65
4, 20671, Note_on_c, 2, 77, 81
4, 20671, Note_on_c, 2, 74, 82
4, 20671, Note_on_c, 2, 70, 78
4, 20678, Control_c, 2, 11, 102
4, 20695, Note_on_c, 2, 70, 0
4, 20696, Note_on_c, 2, 77, 0
4, 20696, Note_on_c, 2, 74, 0
4, 20696, Control_c, 2, 11, 105
4, 20697, Note_on_c, 2, 68, 0
4, 20703, Note_on_c, 2, 68, 74
4, 20703, Note_on_c, 2, 77, 85
4, 20703, Note_on_c, 2, 70, 85
4, 20703, Note_on_c, 2, 74, 74
4, 20706, Control_c, 2, 11, 107
4, 20717, Control_c, 2, 11, 110
4, 20727, Note_on_c, 2, 68, 0
4, 20731, Note_on_c, 2, 70, 0
4, 20733, Note_on_c, 2, 77, 0
4, 20736, Note_on_c, 2, 70, 67
4, 20737, Note_on_c, 2, 67, 76
4, 20737, Note_on_c, 2, 75, 83
4, 20738, Note_on_c, 2, 74, 0
4, 20754, Control_c, 2, 11, 107
4, 20761, Control_c, 2, 11, 105
4, 20767, Control_c, 2, 11, 102
4, 20776, Control_c, 2, 11, 100
4, 20787, Control_c, 2, 11, 97
4, 20797, Control_c, 2, 11, 95
4, 20805, Control_c, 2, 11, 92
4, 20816, Control_c, 2, 11, 90
4, 20841, Control_c, 2, 11, 87
4, 20851, Control_c, 2, 11, 85
4, 20862, Control_c, 2, 11, 82
4, 20893, Control_c, 2, 11, 85
4, 20899, Control_c, 2, 11, 87
4, 20903, Control_c, 2, 11, 90
4, 20919, Control_c, 2, 11, 92
4, 20932, Control_c, 2, 11, 95
4, 20945, Control_c, 2, 11, 97
4, 20958, Control_c, 2, 11, 95
4, 20972, Control_c, 2, 11, 92
4, 20981, Control_c, 2, 11, 90
4, 20992, Control_c, 2, 11, 87
4, 21008, Control_c, 2, 11, 85
4, 21025, Control_c, 2, 11, 82
4, 21047, Control_c, 2, 11, 80
4, 21086, Control_c, 2, 11, 82
4, 21093, Control_c, 2, 11, 85
4, 21098, Control_c, 2, 11, 87
4, 21105, Control_c, 2, 11, 90
4, 21109, Control_c, 2, 11, 93
4, 21119, Control_c, 2, 11, 95
4, 21127, Control_c, 2, 11, 98
4, 21136, Control_c, 2, 11, 100
4, 21183, Control_c, 2, 11, 98
4, 21192, Control_c, 2, 11, 95
4, 21213, Control_c, 2, 11, 98
4, 21218, Control_c, 2, 11, 100
4, 21228, Control_c, 2, 11, 103
4, 21251, Control_c, 2, 11, 100
4, 21259, Control_c, 2, 11, 98
4, 21269, Control_c, 2, 11, 95
4, 21279, Control_c, 2, 11, 93
4, 21288, Control_c, 2, 11, 90
4, 21298, Control_c, 2, 11, 88
4, 21331, Control_c, 2, 11, 85
4, 21345, Control_c, 2, 11, 83
4, 21361, Control_c, 2, 11, 80
4, 21394, Control_c, 2, 11, 78
4, 21442, Control_c, 2, 11, 80
4, 21466, Control_c, 2, 11, 83
4, 21474, Control_c, 2, 11, 85
4, 21485, Control_c, 2, 11, 88
4, 21495, Note_on_c, 2, 70, 0
4, 21496, Control_c, 2, 11, 90
4, 21502, Control_c, 2, 11, 93
4, 21503, Note_on_c, 2, 68, 77
4, 21503, Note_on_c, 2, 70, 77
4, 21503, Note_on_c, 2, 77, 79
4, 21503, Note_on_c, 2, 74, 80
4, 21504, Note_on_c, 2, 67, 0
4, 21504, Note_on_c, 2, 75, 0
4, 21533, Control_c, 2, 11, 90
4, 21557, Control_c, 2, 11, 88
4, 21577, Control_c, 2, 11, 85
4, 21607, Control_c, 2, 11, 83
4, 21638, Control_c, 2, 11, 80
4, 21661, Control_c, 2, 11, 78
4, 21685, Control_c, 2, 11, 75
4, 21747, Control_c, 2, 11, 78
4, 21766, Control_c, 2, 11, 80
4, 21784, Control_c, 2, 11, 83
4, 21799, Control_c, 2, 11, 85
4, 21818, Control_c, 2, 11, 88
4, 21843, Control_c, 2, 11, 90
4, 21868, Control_c, 2, 11, 93
4, 21908, Control_c, 2, 11, 90
4, 21916, Control_c, 2, 11, 88
4, 21925, Control_c, 2, 11, 85
4, 21935, Control_c, 2, 11, 83
4, 21967, Control_c, 2, 11, 80
4, 21990, Control_c, 2, 11, 78
4, 22012, Control_c, 2, 11, 75
4, 22053, Control_c, 2, 11, 78
4, 22065, Control_c, 2, 11, 80
4, 22078, Control_c, 2, 11, 83
4, 22089, Control_c, 2, 11, 85
4, 22126, Control_c, 2, 11, 83
4, 22139, Control_c, 2, 11, 80
4, 22146, Control_c, 2, 11, 78
4, 22158, Control_c, 2, 11, 75
4, 22173, Control_c, 2, 11, 73
4, 22188, Control_c, 2, 11, 70
4, 22206, Control_c, 2, 11, 68
4, 22220, Control_c, 2, 11, 65
4, 22235, Control_c, 2, 11, 63
4, 22264, Note_on_c, 2, 77, 0
4, 22268, Control_c, 2, 11, 65
4, 22270, Note_on_c, 2, 68, 0
4, 22270, Note_on_c, 2, 70, 0
4, 22270, Note_on_c, 2, 74, 0
4, 22271, Note_on_c, 2, 72, 87
4, 22271, Note_on_c, 2, 75, 69
4, 22271, Note_on_c, 2, 69, 76
4, 22275, Control_c, 2, 11, 68
4, 22279, Control_c, 2, 11, 70
4, 22286, Control_c, 2, 11, 73
4, 22290, Control_c, 2, 11, 75
4, 22297, Control_c, 2, 11, 78
4, 22320, Control_c, 2, 11, 80
4, 22331, Control_c, 2, 11, 83
4, 22338, Control_c, 2, 11, 85
4, 22349, Control_c, 2, 11, 88
4, 22362, Control_c, 2, 11, 90
4, 22384, Control_c, 2, 11, 88
4, 22395, Control_c, 2, 11, 85
4, 22402, Control_c, 2, 11, 83
4, 22424, Control_c, 2, 11, 85
4, 22429, Control_c, 2, 11, 88
4, 22435, Control_c, 2, 11, 91
4, 22442, Control_c, 2, 11, 93
4, 22450, Control_c, 2, 11, 96
4, 22476, Control_c, 2, 11, 93
4, 22481, Control_c, 2, 11, 90
4, 22491, Control_c, 2, 11, 88
4, 22501, Control_c, 2, 11, 85
4, 22505, Control_c, 2, 11, 82
4, 22514, Control_c, 2, 11, 80
4, 22528, Control_c, 2, 11, 77
4, 22549, Control_c, 2, 11, 75
4, 22565, Control_c, 2, 11, 72
4, 22576, Control_c, 2, 11, 75
4, 22578, Control_c, 2, 11, 77
4, 22582, Control_c, 2, 11, 79
4, 22603, Control_c, 2, 11, 82
4, 22611, Control_c, 2, 11, 84
4, 22620, Control_c, 2, 11, 87
4, 22624, Control_c, 2, 11, 90
4, 22626, Control_c, 2, 11, 92
4, 22627, Control_c, 2, 11, 93
4, 22650, Note_on_c, 2, 69, 0
4, 22651, Note_on_c, 2, 72, 0
4, 22652, Control_c, 2, 11, 91
4, 22655, Note_on_c, 2, 70, 69
4, 22655, Note_on_c, 2, 67, 67
4, 22678, Control_c, 2, 11, 93
4, 22682, Control_c, 2, 11, 96
4, 22688, Control_c, 2, 11, 99
4, 22721, Control_c, 2, 11, 101
4, 22741, Control_c, 2, 11, 99
4, 22753, Control_c, 2, 11, 96
4, 22761, Control_c, 2, 11, 94
4, 22769, Control_c, 2, 11, 91
4, 22802, Control_c, 2, 11, 88
4, 22809, Control_c, 2, 11, 86
4, 22835, Control_c, 2, 11, 83
4, 22852, Control_c, 2, 11, 81
4, 22874, Control_c, 2, 11, 83
4, 22878, Control_c, 2, 11, 86
4, 22885, Control_c, 2, 11, 88
4, 22892, Control_c, 2, 11, 91
4, 22898, Control_c, 2, 11, 93
4, 22907, Control_c, 2, 11, 96
4, 22934, Control_c, 2, 11, 94
4, 22940, Control_c, 2, 11, 91
4, 22945, Control_c, 2, 11, 89
4, 22949, Control_c, 2, 11, 86
4, 22953, Control_c, 2, 11, 84
4, 22970, Control_c, 2, 11, 81
4, 23004, Control_c, 2, 11, 84
4, 23014, Control_c, 2, 11, 87
4, 23022, Control_c, 2, 11, 90
4, 23023, Note_on_c, 2, 70, 0
4, 23025, Control_c, 2, 11, 92
4, 23029, Note_on_c, 2, 75, 0
4, 23029, Control_c, 2, 11, 95
4, 23035, Control_c, 2, 11, 97
4, 23038, Note_on_c, 2, 67, 0
4, 23039, Note_on_c, 2, 70, 72
4, 23039, Note_on_c, 2, 68, 61
4, 23039, Note_on_c, 2, 74, 69
4, 23039, Note_on_c, 2, 77, 79
4, 23072, Control_c, 2, 11, 95
4, 23079, Control_c, 2, 11, 92
4, 23087, Control_c, 2, 11, 89
4, 23095, Control_c, 2, 11, 87
4, 23104, Control_c, 2, 11, 84
4, 23117, Control_c, 2, 11, 82
4, 23134, Control_c, 2, 11, 79
4, 23152, Control_c, 2, 11, 82
4, 23157, Control_c, 2, 11, 84
4, 23165, Control_c, 2, 11, 87
4, 23178, Control_c, 2, 11, 89
4, 23186, Control_c, 2, 11, 92
4, 23190, Control_c, 2, 11, 94
4, 23200, Control_c, 2, 11, 97
4, 23233, Control_c, 2, 11, 94
4, 23237, Control_c, 2, 11, 92
4, 23244, Control_c, 2, 11, 89
4, 23249, Control_c, 2, 11, 87
4, 23254, Control_c, 2, 11, 84
4, 23271, Control_c, 2, 11, 82
4, 23285, Control_c, 2, 11, 79
4, 23305, Control_c, 2, 11, 82
4, 23314, Control_c, 2, 11, 84
4, 23320, Control_c, 2, 11, 87
4, 23324, Control_c, 2, 11, 89
4, 23328, Control_c, 2, 11, 92
4, 23335, Control_c, 2, 11, 94
4, 23343, Control_c, 2, 11, 97
4, 23351, Control_c, 2, 11, 99
4, 23358, Control_c, 2, 11, 102
4, 23363, Control_c, 2, 11, 104
4, 23394, Control_c, 2, 11, 102
4, 23398, Control_c, 2, 11, 99
4, 23402, Control_c, 2, 11, 97
4, 23418, Note_on_c, 2, 74, 0
4, 23422, Note_on_c, 2, 68, 0
4, 23422, Note_on_c, 2, 77, 0
4, 23423, Note_on_c, 2, 70, 0
4, 23427, Control_c, 2, 11, 100
4, 23431, Control_c, 2, 11, 103
4, 23450, Control_c, 2, 11, 100
4, 23455, Note_on_c, 2, 75, 65
4, 23455, Note_on_c, 2, 72, 66
4, 23455, Note_on_c, 2, 69, 64
4, 23457, Control_c, 2, 11, 97
4, 23461, Control_c, 2, 11, 95
4, 23464, Control_c, 2, 11, 92
4, 23468, Control_c, 2, 11, 90
4, 23480, Note_on_c, 2, 69, 0
4, 23482, Note_on_c, 2, 75, 0
4, 23482, Note_on_c, 2, 72, 0
4, 23487, Note_on_c, 2, 75, 65
4, 23487, Note_on_c, 2, 69, 62
4, 23487, Note_on_c, 2, 72, 74
4, 23493, Control_c, 2, 11, 92
4, 23501, Control_c, 2, 11, 95
4, 23511, Note_on_c, 2, 69, 0
4, 23511, Note_on_c, 2, 72, 0
4, 23513, Note_on_c, 2, 75, 0
4, 23519, Note_on_c, 2, 75, 77
4, 23519, Note_on_c, 2, 69, 78
4, 23520, Note_on_c, 2, 72, 89
4, 23529, Control_c, 2, 11, 97
4, 23543, Note_on_c, 2, 75, 0
4, 23543, Note_on_c, 2, 69, 0
4, 23543, Note_on_c, 2, 72, 0
4, 23551, Note_on_c, 2, 75, 77
4, 23552, Note_on_c, 2, 69, 76
4, 23552, Note_on_c, 2, 72, 89
4, 23564, Control_c, 2, 11, 100
4, 23575, Note_on_c, 2, 69, 0
4, 23576, Note_on_c, 2, 75, 0
4, 23576, Note_on_c, 2, 72, 0
4, 23584, Note_on_c, 2, 75, 80
4, 23584, Note_on_c, 2, 69, 81
4, 23584, Note_on_c, 2, 72, 83
4, 23595, Control_c, 2, 11, 102
4, 23605, Control_c, 2, 11, 105
4, 23609, Note_on_c, 2, 69, 0
4, 23610, Note_on_c, 2, 75, 0
4, 23610, Note_on_c, 2, 72, 0
4, 23617, Note_on_c, 2, 75, 81
4, 23617, Note_on_c, 2, 69, 81
4, 23617, Note_on_c, 2, 72, 81
4, 23632, Control_c, 2, 11, 107
4, 23668, Control_c, 2, 11, 110
4, 23677, Note_on_c, 2, 75, 0
4, 23679, Note_on_c, 2, 75, 62
4, 23706, Note_on_c, 2, 69, 0
4, 23707, Note_on_c, 2, 72, 0
4, 23707, Note_on_c, 2, 75, 0
4, 23713, Note_on_c, 2, 75, 84
4, 23713, Note_on_c, 2, 72, 83
4, 23713, Note_on_c, 2, 69, 82
4, 23733, Control_c, 2, 11, 112
4, 23735, Note_on_c, 2, 69, 0
4, 23736, Note_on_c, 2, 72, 0
4, 23737, Note_on_c, 2, 75, 0
4, 23743, Note_on_c, 2, 75, 86
4, 23743, Note_on_c, 2, 72, 80
4, 23743, Note_on_c, 2, 69, 80
4, 23766, Note_on_c, 2, 69, 0
4, 23767, Note_on_c, 2, 72, 0
4, 23768, Note_on_c, 2, 75, 0
4, 23775, Note_on_c, 2, 75, 79
4, 23775, Note_on_c, 2, 72, 88
4, 23776, Note_on_c, 2, 69, 81
4, 23790, Note_on_c, 2, 75, 0
4, 23790, Note_on_c, 2, 72, 0
4, 23792, Note_on_c, 2, 69, 0
4, 23808, Note_on_c, 2, 68, 86
4, 23808, Note_on_c, 2, 70, 83
4, 23808, Note_on_c, 2, 74, 82
4, 23808, Note_on_c, 2, 77, 87
4, 23899, Control_c, 2, 11, 110
4, 23916, Control_c, 2, 11, 107
4, 23927, Control_c, 2, 11, 105
4, 23942, Control_c, 2, 11, 102
4, 23957, Control_c, 2, 11, 100
4, 23982, Control_c, 2, 11, 97
4, 24005, Control_c, 2, 11, 95
4, 24015, Control_c, 2, 11, 92
4, 24024, Control_c, 2, 11, 90
4, 24033, Control_c, 2, 11, 87
4, 24044, Control_c, 2, 11, 85
4, 24063, Control_c, 2, 11, 87
4, 24067, Control_c, 2, 11, 90
4, 24071, Control_c, 2, 11, 93
4, 24078, Control_c, 2, 11, 95
4, 24086, Control_c, 2, 11, 98
4, 24094, Control_c, 2, 11, 100
4, 24103, Control_c, 2, 11, 103
4, 24114, Control_c, 2, 11, 105
4, 24124, Control_c, 2, 11, 108
4, 24163, Control_c, 2, 11, 105
4, 24169, Control_c, 2, 11, 103
4, 24174, Control_c, 2, 11, 100
4, 24181, Note_on_c, 2, 77, 0
4, 24181, Control_c, 2, 11, 98
4, 24182, Note_on_c, 2, 70, 0
4, 24182, Note_on_c, 2, 74, 0
4, 24183, Note_on_c, 2, 68, 0
4, 24189, Control_c, 2, 11, 95
4, 24191, Note_on_c, 2, 74, 78
4, 24191, Note_on_c, 2, 70, 79
4, 24191, Note_on_c, 2, 77, 85
4, 24191, Note_on_c, 2, 68, 76
4, 24199, Control_c, 2, 11, 93
4, 24213, Control_c, 2, 11, 90
4, 24253, Control_c, 2, 11, 93
4, 24258, Control_c, 2, 11, 96
4, 24268, Control_c, 2, 11, 98
4, 24276, Control_c, 2, 11, 101
4, 24287, Control_c, 2, 11, 103
4, 24293, Control_c, 2, 11, 106
4, 24337, Control_c, 2, 11, 103
4, 24349, Control_c, 2, 11, 101
4, 24356, Control_c, 2, 11, 98
4, 24368, Control_c, 2, 11, 96
4, 24377, Control_c, 2, 11, 93
4, 24385, Control_c, 2, 11, 91
4, 24395, Control_c, 2, 11, 88
4, 24404, Control_c, 2, 11, 86
4, 24411, Control_c, 2, 11, 83
4, 24422, Control_c, 2, 11, 81
4, 24437, Control_c, 2, 11, 78
4, 24452, Control_c, 2, 11, 76
4, 24481, Control_c, 2, 11, 73
4, 24521, Control_c, 2, 11, 76
4, 24529, Control_c, 2, 11, 78
4, 24539, Control_c, 2, 11, 81
4, 24549, Control_c, 2, 11, 83
4, 24558, Control_c, 2, 11, 86
4, 24566, Control_c, 2, 11, 88
4, 24567, Note_on_c, 2, 77, 0
4, 24568, Note_on_c, 2, 70, 0
4, 24570, Note_on_c, 2, 68, 0
4, 24571, Note_on_c, 2, 74, 0
4, 24575, Note_on_c, 2, 77, 82
4, 24575, Note_on_c, 2, 70, 84
4, 24575, Note_on_c, 2, 74, 79
4, 24575, Note_on_c, 2, 68, 72
4, 24575, Control_c, 2, 11, 91
4, 24584, Control_c, 2, 11, 93
4, 24591, Control_c, 2, 11, 96
4, 24626, Control_c, 2, 11, 93
4, 24631, Control_c, 2, 11, 90
4, 24638, Control_c, 2, 11, 88
4, 24653, Control_c, 2, 11, 85
4, 24662, Control_c, 2, 11, 83
4, 24677, Control_c, 2, 11, 80
4, 24696, Control_c, 2, 11, 78
4, 24706, Control_c, 2, 11, 75
4, 24733, Control_c, 2, 11, 73
4, 24747, Control_c, 2, 11, 70
4, 24788, Control_c, 2, 11, 73
4, 24812, Control_c, 2, 11, 75
4, 24821, Control_c, 2, 11, 78
4, 24834, Control_c, 2, 11, 80
4, 24850, Control_c, 2, 11, 83
4, 24878, Control_c, 2, 11, 80
4, 24917, Control_c, 2, 11, 83
4, 24926, Control_c, 2, 11, 85
4, 24934, Control_c, 2, 11, 88
4, 24944, Control_c, 2, 11, 90
4, 24951, Note_on_c, 2, 70, 0
4, 24952, Note_on_c, 2, 77, 0
4, 24952, Control_c, 2, 11, 93
4, 24953, Note_on_c, 2, 74, 0
4, 24954, Note_on_c, 2, 68, 0
4, 24959, Note_on_c, 2, 74, 67
4, 24959, Note_on_c, 2, 68, 68
4, 24959, Note_on_c, 2, 77, 83
4, 24959, Note_on_c, 2, 70, 79
4, 24968, Control_c, 2, 11, 90
4, 24973, Control_c, 2, 11, 87
4, 24979, Control_c, 2, 11, 85
4, 24982, Note_on_c, 2, 70, 0
4, 24983, Note_on_c, 2, 77, 0
4, 24985, Note_on_c, 2, 74, 0
4, 24991, Note_on_c, 2, 70, 60
4, 24991, Note_on_c, 2, 74, 64
4, 24991, Note_on_c, 2, 77, 66
4, 25016, Note_on_c, 2, 77, 0
4, 25017, Note_on_c, 2, 70, 0
4, 25017, Note_on_c, 2, 74, 0
4, 25018, Note_on_c, 2, 68, 0
4, 25018, Control_c, 2, 11, 87
4, 25023, Note_on_c, 2, 68, 61
4, 25023, Note_on_c, 2, 70, 66
4, 25023, Note_on_c, 2, 74, 80
4, 25023, Note_on_c, 2, 77, 75
4, 25029, Control_c, 2, 11, 90
4, 25034, Control_c, 2, 11, 92
4, 25044, Control_c, 2, 11, 95
4, 25050, Note_on_c, 2, 70, 0
4, 25051, Note_on_c, 2, 74, 0
4, 25051, Note_on_c, 2, 77, 0
4, 25052, Note_on_c, 2, 68, 0
4, 25054, Control_c, 2, 11, 97
4, 25055, Note_on_c, 2, 77, 80
4, 25055, Note_on_c, 2, 68, 73
4, 25055, Note_on_c, 2, 74, 82
4, 25055, Note_on_c, 2, 70, 89
4, 25077, Control_c, 2, 11, 94
4, 25078, Control_c, 2, 11, 93
4, 25080, Note_on_c, 2, 70, 0
4, 25080, Control_c, 2, 11, 91
4, 25083, Note_on_c, 2, 77, 0
4, 25084, Note_on_c, 2, 74, 0
4, 25085, Control_c, 2, 11, 89
4, 25089, Note_on_c, 2, 77, 59
4, 25089, Note_on_c, 2, 74, 68
4, 25089, Note_on_c, 2, 70, 64
4, 25101, Control_c, 2, 11, 86
4, 25109, Control_c, 2, 11, 84
4, 25111, Note_on_c, 2, 77, 0
4, 25111, Note_on_c, 2, 70, 0
4, 25112, Note_on_c, 2, 74, 0
4, 25119, Note_on_c, 2, 74, 70
4, 25119, Note_on_c, 2, 70, 65
4, 25119, Note_on_c, 2, 77, 73
4, 25120, Control_c, 2, 11, 87
4, 25127, Control_c, 2, 11, 89
4, 25135, Control_c, 2, 11, 92
4, 25143, Note_on_c, 2, 70, 0
4, 25143, Note_on_c, 2, 77, 0
4, 25144, Note_on_c, 2, 74, 0
4, 25145, Note_on_c, 2, 68, 0
4, 25146, Control_c, 2, 11, 94
4, 25151, Note_on_c, 2, 68, 83
4, 25151, Note_on_c, 2, 77, 83
4, 25151, Note_on_c, 2, 74, 83
4, 25151, Note_on_c, 2, 70, 83
4, 25157, Control_c, 2, 11, 97
4, 25174, Note_on_c, 2, 68, 0
4, 25174, Note_on_c, 2, 77, 0
4, 25174, Note_on_c, 2, 74, 0
4, 25174, Note_on_c, 2, 70, 0
4, 25183, Note_on_c, 2, 70, 82
4, 25183, Note_on_c, 2, 77, 82
4, 25184, Note_on_c, 2, 74, 82
4, 25185, Note_on_c, 2, 68, 82
4, 25191, Control_c, 2, 11, 94
4, 25200, Control_c, 2, 11, 92
4, 25206, Note_on_c, 2, 70, 0
4, 25206, Note_on_c, 2, 77, 0
4, 25207, Note_on_c, 2, 74, 0
4, 25208, Control_c, 2, 11, 89
4, 25214, Note_on_c, 2, 74, 82
4, 25214, Note_on_c, 2, 77, 82
4, 25214, Note_on_c, 2, 70, 82
4, 25216, Control_c, 2, 11, 87
4, 25223, Note_on_c, 2, 68, 0
4, 25237, Note_on_c, 2, 74, 0
4, 25243, Note_on_c, 2, 77, 0
4, 25244, Note_on_c, 2, 70, 0
4, 25247, Note_on_c, 2, 68, 80
4, 25247, Note_on_c, 2, 74, 80
4, 25247, Note_on_c, 2, 70, 80
4, 25247, Note_on_c, 2, 77, 80
4, 25248, Control_c, 2, 11, 89
4, 25255, Control_c, 2, 11, 92
4, 25265, Control_c, 2, 11, 94
4, 25275, Note_on_c, 2, 70, 0
4, 25275, Note_on_c, 2, 77, 0
4, 25276, Note_on_c, 2, 74, 0
4, 25279, Note_on_c, 2, 74, 79
4, 25279, Note_on_c, 2, 77, 79
4, 25279, Note_on_c, 2, 70, 79
4, 25288, Control_c, 2, 11, 97
4, 25297, Control_c, 2, 11, 99
4, 25305, Note_on_c, 2, 77, 0
4, 25305, Note_on_c, 2, 70, 0
4, 25306, Note_on_c, 2, 74, 0
4, 25309, Note_on_c, 2, 68, 0
4, 25311, Note_on_c, 2, 68, 78
4, 25311, Note_on_c, 2, 77, 78
4, 25311, Note_on_c, 2, 74, 78
4, 25311, Note_on_c, 2, 70, 78
4, 25324, Control_c, 2, 11, 102
4, 25332, Note_on_c, 2, 74, 0
4, 25340, Note_on_c, 2, 68, 0
4, 25341, Note_on_c, 2, 77, 0
4, 25341, Note_on_c, 2, 70, 0
4, 25343, Note_on_c, 2, 70, 78
4, 25343, Control_c, 2, 11, 104
4, 25344, Note_on_c, 2, 67, 78
4, 25345, Note_on_c, 2, 75, 78
4, 25369, Control_c, 2, 11, 102
4, 25384, Control_c, 2, 11, 99
4, 25423, Control_c, 2, 11, 97
4, 25458, Control_c, 2, 11, 99
4, 25490, Control_c, 2, 11, 102
4, 25537, Control_c, 2, 11, 99
4, 25546, Control_c, 2, 11, 97
4, 25557, Control_c, 2, 11, 94
4, 25586, Control_c, 2, 11, 92
4, 25606, Control_c, 2, 11, 89
4, 25628, Control_c, 2, 11, 92
4, 25629, Control_c, 2, 11, 94
4, 25633, Control_c, 2, 11, 96
4, 25644, Control_c, 2, 11, 99
4, 25665, Control_c, 2, 11, 101
4, 25694, Control_c, 2, 11, 99
4, 25710, Control_c, 2, 11, 96
4, 25718, Note_on_c, 2, 70, 0
4, 25718, Note_on_c, 2, 67, 0
4, 25718, Note_on_c, 2, 75, 0
4, 25721, Control_c, 2, 11, 94
4, 25727, Note_on_c, 2, 75, 79
4, 25727, Note_on_c, 2, 70, 79
4, 25727, Note_on_c, 2, 67, 80
4, 25731, Control_c, 2, 11, 91
4, 25758, Control_c, 2, 11, 89
4, 25783, Control_c, 2, 11, 91
4, 25790, Control_c, 2, 11, 94
4, 25991, Control_c, 2, 11, 91
4, 26001, Control_c, 2, 11, 89
4, 26032, Control_c, 2, 11, 86
4, 26083, Control_c, 2, 11, 84
4, 26098, Control_c, 2, 11, 81
4, 26105, Note_on_c, 2, 75, 0
4, 26106, Control_c, 2, 11, 79
4, 26109, Note_on_c, 2, 70, 0
4, 26110, Note_on_c, 2, 67, 0
4, 26111, Note_on_c, 2, 70, 67
4, 26111, Note_on_c, 2, 68, 73
4, 26111, Note_on_c, 2, 74, 82
4, 26111, Note_on_c, 2, 77, 83
4, 26119, Control_c, 2, 11, 81
4, 26123, Control_c, 2, 11, 84
4, 26129, Control_c, 2, 11, 86
4, 26155, Control_c, 2, 11, 89
4, 26171, Control_c, 2, 11, 86
4, 26232, Control_c, 2, 11, 84
4, 26276, Control_c, 2, 11, 86
4, 26286, Control_c, 2, 11, 89
4, 26313, Control_c, 2, 11, 86
4, 26318, Control_c, 2, 11, 84
4, 26331, Control_c, 2, 11, 81
4, 26341, Control_c, 2, 11, 79
4, 26374, Control_c, 2, 11, 81
4, 26385, Control_c, 2, 11, 84
4, 26398, Control_c, 2, 11, 86
4, 26404, Control_c, 2, 11, 89
4, 26426, Control_c, 2, 11, 86
4, 26433, Control_c, 2, 11, 83
4, 26445, Control_c, 2, 11, 81
4, 26455, Control_c, 2, 11, 78
4, 26466, Control_c, 2, 11, 76
4, 26511, Control_c, 2, 11, 78
4, 26535, Control_c, 2, 11, 81
4, 26550, Control_c, 2, 11, 83
4, 26576, Control_c, 2, 11, 86
4, 26585, Control_c, 2, 11, 88
4, 26592, Control_c, 2, 11, 91
4, 26624, Control_c, 2, 11, 88
4, 26643, Control_c, 2, 11, 86
4, 26651, Control_c, 2, 11, 83
4, 26668, Control_c, 2, 11, 81
4, 26687, Control_c, 2, 11, 78
4, 26705, Control_c, 2, 11, 76
4, 26719, Control_c, 2, 11, 73
4, 26741, Control_c, 2, 11, 76
4, 26752, Control_c, 2, 11, 78
4, 26766, Control_c, 2, 11, 81
4, 26792, Control_c, 2, 11, 83
4, 26815, Control_c, 2, 11, 86
4, 26824, Control_c, 2, 11, 88
4, 26836, Control_c, 2, 11, 91
4, 26855, Control_c, 2, 11, 94
4, 26861, Control_c, 2, 11, 96
4, 26866, Note_on_c, 2, 68, 0
4, 26868, Control_c, 2, 11, 99
4, 26871, Note_on_c, 2, 70, 0
4, 26878, Note_on_c, 2, 74, 0
4, 26878, Note_on_c, 2, 77, 0
4, 26879, Note_on_c, 2, 75, 69
4, 26879, Note_on_c, 2, 69, 75
4, 26879, Note_on_c, 2, 72, 78
4, 26879, Control_c, 2, 11, 101
4, 26891, Control_c, 2, 11, 99
4, 26895, Control_c, 2, 11, 96
4, 26899, Control_c, 2, 11, 93
4, 26905, Control_c, 2, 11, 91
4, 26910, Control_c, 2, 11, 88
4, 26924, Control_c, 2, 11, 86
4, 26934, Control_c, 2, 11, 83
4, 26946, Control_c, 2, 11, 81
4, 26974, Control_c, 2, 11, 83
4, 26987, Control_c, 2, 11, 86
4, 26996, Control_c, 2, 11, 88
4, 27025, Control_c, 2, 11, 91
4, 27037, Control_c, 2, 11, 93
4, 27048, Control_c, 2, 11, 96
4, 27060, Control_c, 2, 11, 98
4, 27084, Control_c, 2, 11, 101
4, 27113, Control_c, 2, 11, 103
4, 27188, Control_c, 2, 11, 101
4, 27194, Control_c, 2, 11, 98
4, 27232, Control_c, 2, 11, 100
4, 27236, Control_c, 2, 11, 103
4, 27245, Control_c, 2, 11, 106
4, 27253, Note_on_c, 2, 69, 0
4, 27257, Note_on_c, 2, 75, 0
4, 27262, Note_on_c, 2, 72, 0
4, 27263, Note_on_c, 2, 75, 72
4, 27263, Note_on_c, 2, 67, 76
4, 27263, Note_on_c, 2, 70, 76
4, 27304, Control_c, 2, 11, 108
4, 27424, Control_c, 2, 11, 111
4, 27441, Control_c, 2, 11, 114
4, 27443, Control_c, 2, 11, 115
4, 27444, Control_c, 2, 11, 117
4, 27457, Control_c, 2, 11, 120
4, 27479, Control_c, 2, 11, 117
4, 27487, Control_c, 2, 11, 114
4, 27495, Control_c, 2, 11, 112
4, 27508, Control_c, 2, 11, 109
4, 27517, Control_c, 2, 11, 107
4, 27527, Control_c, 2, 11, 104
4, 27535, Control_c, 2, 11, 102
4, 27589, Control_c, 2, 11, 104
4, 27605, Control_c, 2, 11, 107
4, 27616, Control_c, 2, 11, 109
4, 27627, Control_c, 2, 11, 112
4, 27638, Control_c, 2, 11, 114
4, 27640, Note_on_c, 2, 67, 0
4, 27640, Note_on_c, 2, 70, 0
4, 27641, Note_on_c, 2, 75, 0
4, 27675, Control_c, 2, 11, 112
4, 27696, Control_c, 2, 11, 109
4, 27706, Control_c, 2, 11, 107
4, 27711, Note_on_c, 2, 79, 74
4, 27711, Note_on_c, 2, 82, 71
4, 27711, Note_on_c, 2, 74, 70
4, 27711, Note_on_c, 2, 77, 75
4, 27718, Control_c, 2, 11, 104
4, 27735, Control_c, 2, 11, 102
4, 27736, Note_on_c, 2, 82, 0
4, 27736, Note_on_c, 2, 74, 0
4, 27737, Note_on_c, 2, 77, 0
4, 27739, Note_on_c, 2, 79, 0
4, 27742, Control_c, 2, 11, 99
4, 27743, Note_on_c, 2, 79, 76
4, 27744, Note_on_c, 2, 74, 82
4, 27744, Note_on_c, 2, 77, 82
4, 27744, Note_on_c, 2, 82, 86
4, 27748, Control_c, 2, 11, 97
4, 27768, Control_c, 2, 11, 94
4, 27783, Control_c, 2, 11, 92
4, 27805, Control_c, 2, 11, 94
4, 27810, Control_c, 2, 11, 97
4, 27819, Control_c, 2, 11, 99
4, 27825, Control_c, 2, 11, 102
4, 27828, Note_on_c, 2, 82, 0
4, 27830, Note_on_c, 2, 79, 0
4, 27831, Control_c, 2, 11, 104
4, 27835, Note_on_c, 2, 77, 0
4, 27836, Note_on_c, 2, 74, 0
4, 27836, Control_c, 2, 11, 107
4, 27839, Note_on_c, 2, 75, 89
4, 27839, Note_on_c, 2, 82, 84
4, 27839, Note_on_c, 2, 79, 90
4, 27839, Note_on_c, 2, 72, 81
4, 27867, Control_c, 2, 11, 104
4, 27872, Control_c, 2, 11, 102
4, 27879, Control_c, 2, 11, 99
4, 27895, Control_c, 2, 11, 97
4, 27903, Control_c, 2, 11, 94
4, 27911, Control_c, 2, 11, 92
4, 27921, Control_c, 2, 11, 89
4, 27922, Note_on_c, 2, 82, 0
4, 27927, Control_c, 2, 11, 87
4, 27928, Note_on_c, 2, 79, 0
4, 27929, Note_on_c, 2, 75, 0
4, 27934, Note_on_c, 2, 72, 0
4, 27935, Note_on_c, 2, 73, 80
4, 27935, Note_on_c, 2, 78, 82
4, 27935, Note_on_c, 2, 82, 80
4, 27935, Note_on_c, 2, 76, 80
4, 27960, Control_c, 2, 11, 90
4, 27962, Control_c, 2, 11, 91
4, 27964, Control_c, 2, 11, 94
4, 27968, Control_c, 2, 11, 96
4, 27975, Control_c, 2, 11, 99
4, 27981, Control_c, 2, 11, 101
4, 27998, Control_c, 2, 11, 104
4, 28002, Control_c, 2, 11, 106
4, 28009, Control_c, 2, 11, 109
4, 28020, Note_on_c, 2, 82, 0
4, 28025, Control_c, 2, 11, 111
4, 28030, Note_on_c, 2, 73, 0
4, 28030, Note_on_c, 2, 78, 0
4, 28030, Note_on_c, 2, 76, 0
4, 28031, Note_on_c, 2, 74, 84
4, 28031, Note_on_c, 2, 77, 85
4, 28031, Note_on_c, 2, 82, 87
4, 28031, Control_c, 2, 11, 114
4, 28048, Note_on_c, 2, 82, 0
4, 28051, Note_on_c, 2, 77, 0
4, 28053, Control_c, 2, 11, 112
4, 28054, Note_on_c, 2, 72, 82
4, 28057, Note_on_c, 2, 74, 0
4, 28059, Note_on_c, 2, 71, 70
4, 28059, Control_c, 2, 11, 109
4, 28060, Note_on_c, 2, 72, 0
4, 28063, Note_on_c, 2, 69, 71
4, 28063, Control_c, 2, 11, 106
4, 28065, Note_on_c, 2, 71, 0
4, 28067, Note_on_c, 2, 67, 71
4, 28068, Control_c, 2, 11, 103
4, 28069, Note_on_c, 2, 69, 0
4, 28072, Note_on_c, 2, 65, 70
4, 28073, Note_on_c, 2, 67, 0
4, 28076, Note_on_c, 2, 64, 72
4, 28076, Control_c, 2, 11, 101
4, 28077, Note_on_c, 2, 65, 0
4, 28080, Note_on_c, 2, 62, 69
4, 28081, Note_on_c, 2, 64, 0
4, 28081, Control_c, 2, 11, 98
4, 28084, Note_on_c, 2, 62, 0
4, 28084, Note_on_c, 2, 60, 70
4, 28087, Note_on_c, 2, 60, 0
4, 28088, Note_on_c, 2, 59, 62
4, 28088, Control_c, 2, 11, 96
4, 28090, Note_on_c, 2, 59, 0
4, 28093, Control_c, 2, 11, 93
4, 28098, Control_c, 2, 11, 90
4, 28103, Control_c, 2, 11, 88
4, 28121, Control_c, 2, 11, 90
4, 28123, Control_c, 2, 11, 93
4, 28124, Control_c, 2, 11, 95
4, 28125, Control_c, 2, 11, 98
4, 28126, Control_c, 2, 11, 100
4, 28127, Note_on_c, 2, 69, 83
4, 28127, Note_on_c, 2, 75, 84
4, 28127, Note_on_c, 2, 80, 81
4, 28128, Control_c, 2, 11, 101
4, 28132, Control_c, 2, 11, 104
4, 28176, Control_c, 2, 11, 107
4, 28180, Control_c, 2, 11, 109
4, 28188, Note_on_c, 2, 80, 0
4, 28189, Note_on_c, 2, 75, 0
4, 28190, Note_on_c, 2, 69, 0
4, 28191, Note_on_c, 2, 68, 67
4, 28191, Note_on_c, 2, 74, 69
4, 28191, Note_on_c, 2, 79, 66
4, 28193, Control_c, 2, 11, 112
4, 28200, Control_c, 2, 11, 114
4, 28236, Control_c, 2, 11, 112
4, 28247, Control_c, 2, 11, 109
4, 28258, Control_c, 2, 11, 107
4, 28287, Control_c, 2, 11, 104
4, 28313, Control_c, 2, 11, 102
4, 28332, Control_c, 2, 11, 99
4, 28346, Control_c, 2, 11, 97
4, 28358, Control_c, 2, 11, 94
4, 28370, Control_c, 2, 11, 92
4, 28393, Control_c, 2, 11, 89
4, 28405, Control_c, 2, 11, 87
4, 28418, Note_on_c, 2, 68, 0
4, 28418, Note_on_c, 2, 74, 0
4, 28418, Note_on_c, 2, 79, 0
4, 28426, Control_c, 2, 11, 84
4, 28459, Control_c, 2, 11, 87
4, 28460, Control_c, 2, 11, 90
4, 28462, Control_c, 2, 11, 93
4, 28463, Control_c, 2, 11, 97
4, 28464, Control_c, 2, 11, 101
4, 28466, Control_c, 2, 11, 105
4, 28467, Control_c, 2, 11, 109
4, 28469, Control_c, 2, 11, 113
4, 28470, Control_c, 2, 11, 117
4, 28471, Control_c, 2, 11, 123
4, 28473, Control_c, 2, 11, 126
4, 28473, End_track
5, 0, Start_track
5, 0, MIDI_port, 0
5, 0, Sequencer_specific, 7, 0, 0, 0, 106, 0, 4, 0
5, 113, Program_c, 3, 73
5, 114, Control_c, 3, 7, 100
5, 114, Control_c, 3, 10, 60
5, 114, Control_c, 3, 11, 127
5, 115, Control_c, 3, 91, 55
5, 115, Control_c, 3, 93, 6
5, 5443, Note_on_c, 3, 68, 93
5, 5443, Pitch_bend_c, 3, 8192
5, 5444, Control_c, 3, 1, 0
5, 5451, Pitch_bend_c, 3, 8160
5, 5453, Pitch_bend_c, 3, 8128
5, 5454, Pitch_bend_c, 3, 8096
5, 5457, Pitch_bend_c, 3, 8064
5, 5462, Note_on_c, 3, 68, 0
5, 5462, Pitch_bend_c, 3, 8192
5, 5464, Pitch_bend_c, 3, 8064
5, 5464, Note_on_c, 3, 68, 90
5, 5473, Note_on_c, 3, 68, 0
5, 5473, Pitch_bend_c, 3, 8192
5, 5477, Note_on_c, 3, 68, 101
5, 5478, Pitch_bend_c, 3, 8160
5, 5480, Pitch_bend_c, 3, 8128
5, 5482, Pitch_bend_c, 3, 8096
5, 5483, Pitch_bend_c, 3, 8064
5, 5485, Pitch_bend_c, 3, 8032
5, 5493, Pitch_bend_c, 3, 8064
5, 5494, Pitch_bend_c, 3, 7968
5, 5495, Note_on_c, 3, 68, 0
5, 5495, Pitch_bend_c, 3, 8096
5, 5506, Pitch_bend_c, 3, 8192
5, 5509, Note_on_c, 3, 68, 95
5, 5510, Pitch_bend_c, 3, 8224
5, 5514, Pitch_bend_c, 3, 8192
5, 5519, Pitch_bend_c, 3, 8160
5, 5520, Pitch_bend_c, 3, 8128
5, 5522, Pitch_bend_c, 3, 8032
5, 5523, Pitch_bend_c, 3, 7872
5, 5524, Note_on_c, 3, 68, 0
5, 5524, Pitch_bend_c, 3, 8192
5, 5527, Note_on_c, 3, 65, 100
5, 5537, Note_on_c, 3, 65, 0
5, 5541, Pitch_bend_c, 3, 8128
5, 5541, Note_on_c, 3, 65, 88
5, 5542, Pitch_bend_c, 3, 8192
5, 5545, Pitch_bend_c, 3, 8128
5, 5546, Pitch_bend_c, 3, 8096
5, 5548, Pitch_bend_c, 3, 8064
5, 5551, Pitch_bend_c, 3, 8032
5, 5553, Note_on_c, 3, 65, 0
5, 5553, Pitch_bend_c, 3, 8192
5, 5555, Note_on_c, 3, 63, 86
5, 5555, Pitch_bend_c, 3, 8064
5, 5556, Pitch_bend_c, 3, 8032
5, 5557, Pitch_bend_c, 3, 8064
5, 5561, Pitch_bend_c, 3, 8096
5, 5562, Pitch_bend_c, 3, 8128
5, 5564, Pitch_bend_c, 3, 8384
5, 5565, Pitch_bend_c, 3, 10656
5, 5566, Pitch_bend_c, 3, 10752
5, 5568, Pitch_bend_c, 3, 10784
5, 5569, Pitch_bend_c, 3, 10688
5, 5570, Pitch_bend_c, 3, 10272
5, 5572, Pitch_bend_c, 3, 9600
5, 5573, Pitch_bend_c, 3, 8896
5, 5575, Pitch_bend_c, 3, 8320
5, 5576, Pitch_bend_c, 3, 8128
5, 5577, Pitch_bend_c, 3, 8096
5, 5583, Pitch_bend_c, 3, 8128
5, 5584, Note_on_c, 3, 63, 0
5, 5584, Pitch_bend_c, 3, 8896
5, 5586, Pitch_bend_c, 3, 8192
5, 5587, Note_on_c, 3, 61, 76
5, 5587, Pitch_bend_c, 3, 8160
5, 5588, Pitch_bend_c, 3, 7968
5, 5589, Pitch_bend_c, 3, 8000
5, 5590, Pitch_bend_c, 3, 8032
5, 5593, Pitch_bend_c, 3, 8096
5, 5594, Note_on_c, 3, 61, 0
5, 5597, Pitch_bend_c, 3, 8192
5, 5598, Note_on_c, 3, 58, 77
5, 5599, Pitch_bend_c, 3, 8224
5, 5605, Pitch_bend_c, 3, 8192
5, 5609, Pitch_bend_c, 3, 8160
5, 5614, Pitch_bend_c, 3, 8128
5, 5618, Pitch_bend_c, 3, 8096
5, 5620, Pitch_bend_c, 3, 8064
5, 5623, Pitch_bend_c, 3, 8032
5, 5624, Pitch_bend_c, 3, 8000
5, 5632, Pitch_bend_c, 3, 8032
5, 5639, Pitch_bend_c, 3, 8096
5, 5640, Pitch_bend_c, 3, 8160
5, 5642, Pitch_bend_c, 3, 8224
5, 5643, Pitch_bend_c, 3, 8288
5, 5645, Pitch_bend_c, 3, 8320
5, 5647, Pitch_bend_c, 3, 8256
5, 5649, Pitch_bend_c, 3, 8192
5, 5650, Pitch_bend_c, 3, 8160
5, 5652, Pitch_bend_c, 3, 8096
5, 5653, Pitch_bend_c, 3, 8064
5, 5654, Pitch_bend_c, 3, 8032
5, 5657, Pitch_bend_c, 3, 8064
5, 5660, Pitch_bend_c, 3, 8096
5, 5661, Pitch_bend_c, 3, 8128
5, 5664, Pitch_bend_c, 3, 8096
5, 5667, Pitch_bend_c, 3, 8064
5, 5668, Pitch_bend_c, 3, 8032
5, 5670, Pitch_bend_c, 3, 8000
5, 5672, Pitch_bend_c, 3, 7968
5, 5674, Pitch_bend_c, 3, 7936
5, 5675, Pitch_bend_c, 3, 7968
5, 5676, Pitch_bend_c, 3, 8064
5, 5678, Pitch_bend_c, 3, 8192
5, 5679, Pitch_bend_c, 3, 8384
5, 5680, Pitch_bend_c, 3, 8608
5, 5682, Pitch_bend_c, 3, 8768
5, 5683, Pitch_bend_c, 3, 8800
5, 5686, Pitch_bend_c, 3, 8768
5, 5687, Note_on_c, 3, 58, 0
5, 6016, Pitch_bend_c, 3, 8192
5, 6017, Pitch_bend_c, 3, 8640
5, 6017, Note_on_c, 3, 68, 101
5, 6020, Pitch_bend_c, 3, 8512
5, 6021, Pitch_bend_c, 3, 8384
5, 6023, Pitch_bend_c, 3, 8288
5, 6024, Pitch_bend_c, 3, 8192
5, 6034, Pitch_bend_c, 3, 8128
5, 6035, Note_on_c, 3, 68, 0
5, 6035, Pitch_bend_c, 3, 8256
5, 6038, Note_on_c, 3, 68, 100
5, 6038, Pitch_bend_c, 3, 8224
5, 6039, Pitch_bend_c, 3, 8192
5, 6051, Pitch_bend_c, 3, 8224
5, 6052, Note_on_c, 3, 68, 0
5, 6054, Note_on_c, 3, 65, 105
5, 6054, Pitch_bend_c, 3, 8192
5, 6055, Pitch_bend_c, 3, 8320
5, 6058, Pitch_bend_c, 3, 8256
5, 6060, Pitch_bend_c, 3, 8224
5, 6061, Pitch_bend_c, 3, 8192
5, 6063, Pitch_bend_c, 3, 8160
5, 6064, Pitch_bend_c, 3, 8128
5, 6065, Pitch_bend_c, 3, 8096
5, 6066, Note_on_c, 3, 65, 0
5, 6066, Pitch_bend_c, 3, 8224
5, 6071, Pitch_bend_c, 3, 8192
5, 6072, Note_on_c, 3, 68, 102
5, 6073, Pitch_bend_c, 3, 8256
5, 6076, Pitch_bend_c, 3, 8224
5, 6079, Pitch_bend_c, 3, 8192
5, 6081, Pitch_bend_c, 3, 8128
5, 6083, Pitch_bend_c, 3, 7840
5, 6084, Pitch_bend_c, 3, 8192
5, 6085, Note_on_c, 3, 68, 0
5, 6093, Note_on_c, 3, 65, 105
5, 6093, Pitch_bend_c, 3, 8288
5, 6099, Pitch_bend_c, 3, 8224
5, 6100, Pitch_bend_c, 3, 8192
5, 6103, Pitch_bend_c, 3, 8096
5, 6104, Note_on_c, 3, 65, 0
5, 6104, Pitch_bend_c, 3, 8288
5, 6117, Pitch_bend_c, 3, 8192
5, 6118, Note_on_c, 3, 63, 103
5, 6119, Pitch_bend_c, 3, 8576
5, 6122, Pitch_bend_c, 3, 8544
5, 6123, Pitch_bend_c, 3, 8672
5, 6125, Pitch_bend_c, 3, 11168
5, 6126, Pitch_bend_c, 3, 11584
5, 6127, Pitch_bend_c, 3, 12128
5, 6129, Pitch_bend_c, 3, 12608
5, 6130, Pitch_bend_c, 3, 12672
5, 6131, Pitch_bend_c, 3, 9408
5, 6133, Pitch_bend_c, 3, 9152
5, 6134, Pitch_bend_c, 3, 8800
5, 6136, Pitch_bend_c, 3, 8352
5, 6137, Pitch_bend_c, 3, 7968
5, 6138, Pitch_bend_c, 3, 7808
5, 6140, Pitch_bend_c, 3, 7776
5, 6141, Pitch_bend_c, 3, 7840
5, 6144, Pitch_bend_c, 3, 7808
5, 6145, Pitch_bend_c, 3, 7744
5, 6146, Note_on_c, 3, 63, 0
5, 6146, Pitch_bend_c, 3, 7808
5, 6147, Note_on_c, 3, 61, 80
5, 6147, Pitch_bend_c, 3, 7968
5, 6148, Pitch_bend_c, 3, 7776
5, 6149, Pitch_bend_c, 3, 7904
5, 6152, Pitch_bend_c, 3, 7872
5, 6154, Note_on_c, 3, 61, 0
5, 6156, Note_on_c, 3, 58, 63
5, 6156, Pitch_bend_c, 3, 8192
5, 6164, Pitch_bend_c, 3, 8160
5, 6165, Pitch_bend_c, 3, 8128
5, 6168, Pitch_bend_c, 3, 8096
5, 6171, Pitch_bend_c, 3, 8128
5, 6172, Pitch_bend_c, 3, 8160
5, 6178, Pitch_bend_c, 3, 8128
5, 6181, Pitch_bend_c, 3, 8160
5, 6183, Pitch_bend_c, 3, 8000
5, 6184, Note_on_c, 3, 58, 0
5, 6184, Pitch_bend_c, 3, 8160
5, 6216, Pitch_bend_c, 3, 8192
5, 6217, Note_on_c, 3, 58, 70
5, 6229, Note_on_c, 3, 58, 0
5, 6230, Note_on_c, 3, 58, 83
5, 6239, Pitch_bend_c, 3, 8160
5, 6241, Pitch_bend_c, 3, 8192
5, 6244, Note_on_c, 3, 58, 0
5, 6247, Note_on_c, 3, 58, 92
5, 6248, Pitch_bend_c, 3, 8224
5, 6250, Pitch_bend_c, 3, 8192
5, 6254, Pitch_bend_c, 3, 8160
5, 6259, Pitch_bend_c, 3, 8128
5, 6262, Note_on_c, 3, 58, 0
5, 6262, Note_on_c, 3, 61, 99
5, 6262, Pitch_bend_c, 3, 8192
5, 6263, Pitch_bend_c, 3, 7904
5, 6265, Pitch_bend_c, 3, 7936
5, 6272, Pitch_bend_c, 3, 7872
5, 6273, Note_on_c, 3, 61, 0
5, 6277, Pitch_bend_c, 3, 8192
5, 6278, Pitch_bend_c, 3, 8160
5, 6278, Note_on_c, 3, 58, 81
5, 6281, Pitch_bend_c, 3, 8192
5, 6283, Pitch_bend_c, 3, 8256
5, 6284, Pitch_bend_c, 3, 8480
5, 6286, Pitch_bend_c, 3, 8416
5, 6287, Note_on_c, 3, 58, 0
5, 6287, Note_on_c, 3, 55, 76
5, 6287, Pitch_bend_c, 3, 12224
5, 6289, Pitch_bend_c, 3, 12288
5, 6293, Pitch_bend_c, 3, 12256
5, 6297, Note_on_c, 3, 55, 0
5, 6297, Pitch_bend_c, 3, 8192
5, 6298, Note_on_c, 3, 53, 73
5, 6299, Pitch_bend_c, 3, 8064
5, 6301, Pitch_bend_c, 3, 8096
5, 6303, Pitch_bend_c, 3, 8128
5, 6305, Pitch_bend_c, 3, 8192
5, 6306, Pitch_bend_c, 3, 8160
5, 6309, Pitch_bend_c, 3, 8096
5, 6312, Pitch_bend_c, 3, 8064
5, 6320, Pitch_bend_c, 3, 8032
5, 6321, Pitch_bend_c, 3, 8000
5, 6322, Pitch_bend_c, 3, 7968
5, 6327, Pitch_bend_c, 3, 8000
5, 6333, Pitch_bend_c, 3, 7968
5, 6334, Pitch_bend_c, 3, 7904
5, 6335, Pitch_bend_c, 3, 7552
5, 6336, Note_on_c, 3, 53, 0
5, 6812, Pitch_bend_c, 3, 8192
5, 6812, Note_on_c, 3, 67, 99
5, 6813, Pitch_bend_c, 3, 7936
5, 6814, Pitch_bend_c, 3, 8064
5, 6815, Pitch_bend_c, 3, 8096
5, 6816, Pitch_bend_c, 3, 8192
5, 6817, Pitch_bend_c, 3, 8352
5, 6819, Pitch_bend_c, 3, 8640
5, 6820, Pitch_bend_c, 3, 9088
5, 6821, Pitch_bend_c, 3, 9600
5, 6823, Pitch_bend_c, 3, 10208
5, 6824, Pitch_bend_c, 3, 10752
5, 6826, Pitch_bend_c, 3, 11232
5, 6827, Pitch_bend_c, 3, 11616
5, 6828, Pitch_bend_c, 3, 11872
5, 6830, Pitch_bend_c, 3, 12000
5, 6832, Pitch_bend_c, 3, 11968
5, 6834, Pitch_bend_c, 3, 11936
5, 6836, Pitch_bend_c, 3, 11904
5, 6841, Pitch_bend_c, 3, 11872
5, 6842, Pitch_bend_c, 3, 11904
5, 6845, Pitch_bend_c, 3, 11872
5, 6847, Pitch_bend_c, 3, 11840
5, 6850, Pitch_bend_c, 3, 11808
5, 6854, Pitch_bend_c, 3, 11776
5, 6864, Pitch_bend_c, 3, 11744
5, 6866, Pitch_bend_c, 3, 11712
5, 6871, Pitch_bend_c, 3, 11680
5, 6874, Pitch_bend_c, 3, 11648
5, 6875, Pitch_bend_c, 3, 11616
5, 6877, Pitch_bend_c, 3, 11584
5, 6878, Pitch_bend_c, 3, 11552
5, 6879, Pitch_bend_c, 3, 11520
5, 6881, Pitch_bend_c, 3, 11456
5, 6882, Pitch_bend_c, 3, 11424
5, 6883, Pitch_bend_c, 3, 11296
5, 6885, Pitch_bend_c, 3, 11168
5, 6886, Pitch_bend_c, 3, 10784
5, 6887, Pitch_bend_c, 3, 10304
5, 6889, Pitch_bend_c, 3, 9760
5, 6890, Pitch_bend_c, 3, 9184
5, 6892, Pitch_bend_c, 3, 8736
5, 6893, Pitch_bend_c, 3, 8448
5, 6895, Pitch_bend_c, 3, 8160
5, 6896, Pitch_bend_c, 3, 8000
5, 6897, Pitch_bend_c, 3, 7872
5, 6899, Pitch_bend_c, 3, 7840
5, 6900, Pitch_bend_c, 3, 7808
5, 6903, Pitch_bend_c, 3, 8160
5, 6904, Note_on_c, 3, 67, 0
5, 6906, Note_on_c, 3, 65, 102
5, 6906, Pitch_bend_c, 3, 8192
5, 6907, Pitch_bend_c, 3, 8096
5, 6908, Pitch_bend_c, 3, 8128
5, 6912, Pitch_bend_c, 3, 8096
5, 6916, Pitch_bend_c, 3, 8064
5, 6918, Pitch_bend_c, 3, 8032
5, 6919, Pitch_bend_c, 3, 8000
5, 6920, Pitch_bend_c, 3, 7904
5, 6922, Note_on_c, 3, 65, 0
5, 6922, Pitch_bend_c, 3, 8096
5, 6930, Note_on_c, 3, 63, 86
5, 6930, Pitch_bend_c, 3, 8192
5, 6931, Pitch_bend_c, 3, 8064
5, 6932, Pitch_bend_c, 3, 8032
5, 6933, Pitch_bend_c, 3, 8064
5, 6936, Pitch_bend_c, 3, 8096
5, 6938, Pitch_bend_c, 3, 8128
5, 6940, Pitch_bend_c, 3, 7904
5, 6941, Note_on_c, 3, 63, 0
5, 6941, Pitch_bend_c, 3, 8064
5, 6943, Pitch_bend_c, 3, 8192
5, 6944, Note_on_c, 3, 61, 77
5, 6945, Pitch_bend_c, 3, 7904
5, 6946, Pitch_bend_c, 3, 7968
5, 6947, Pitch_bend_c, 3, 8000
5, 6953, Pitch_bend_c, 3, 7968
5, 6962, Note_on_c, 3, 61, 0
5, 6965, Pitch_bend_c, 3, 8192
5, 6966, Note_on_c, 3, 58, 51
5, 6966, Pitch_bend_c, 3, 8032
5, 6971, Pitch_bend_c, 3, 8064
5, 6974, Pitch_bend_c, 3, 8128
5, 6975, Pitch_bend_c, 3, 8160
5, 6981, Pitch_bend_c, 3, 8128
5, 6984, Note_on_c, 3, 58, 0
5, 6984, Pitch_bend_c, 3, 8160
5, 7013, Pitch_bend_c, 3, 8192
5, 7014, Note_on_c, 3, 58, 71
5, 7014, Pitch_bend_c, 3, 8224
5, 7017, Pitch_bend_c, 3, 8256
5, 7026, Pitch_bend_c, 3, 8224
5, 7028, Pitch_bend_c, 3, 8192
5, 7030, Note_on_c, 3, 58, 0
5, 7030, Pitch_bend_c, 3, 8256
5, 7031, Pitch_bend_c, 3, 8192
5, 7032, Note_on_c, 3, 61, 101
5, 7032, Pitch_bend_c, 3, 8512
5, 7033, Pitch_bend_c, 3, 8128
5, 7038, Pitch_bend_c, 3, 8160
5, 7041, Pitch_bend_c, 3, 8128
5, 7045, Pitch_bend_c, 3, 8096
5, 7046, Note_on_c, 3, 61, 0
5, 7046, Pitch_bend_c, 3, 8128
5, 7051, Note_on_c, 3, 63, 88
5, 7051, Pitch_bend_c, 3, 8032
5, 7053, Pitch_bend_c, 3, 8064
5, 7057, Pitch_bend_c, 3, 8096
5, 7059, Pitch_bend_c, 3, 8128
5, 7062, Pitch_bend_c, 3, 8064
5, 7065, Pitch_bend_c, 3, 7712
5, 7066, Note_on_c, 3, 63, 0
5, 7066, Pitch_bend_c, 3, 8096
5, 7075, Pitch_bend_c, 3, 8192
5, 7075, Note_on_c, 3, 63, 86
5, 7076, Pitch_bend_c, 3, 8160
5, 7082, Pitch_bend_c, 3, 8096
5, 7084, Pitch_bend_c, 3, 8064
5, 7085, Pitch_bend_c, 3, 8032
5, 7087, Pitch_bend_c, 3, 8000
5, 7088, Pitch_bend_c, 3, 7936
5, 7091, Note_on_c, 3, 63, 0
5, 7091, Pitch_bend_c, 3, 8096
5, 7100, Pitch_bend_c, 3, 8192
5, 7101, Note_on_c, 3, 61, 68
5, 7105, Pitch_bend_c, 3, 8000
5, 7109, Pitch_bend_c, 3, 8032
5, 7117, Pitch_bend_c, 3, 8000
5, 7119, Pitch_bend_c, 3, 7968
5, 7121, Pitch_bend_c, 3, 7936
5, 7122, Pitch_bend_c, 3, 7904
5, 7125, Pitch_bend_c, 3, 8064
5, 7126, Pitch_bend_c, 3, 8512
5, 7127, Pitch_bend_c, 3, 9120
5, 7129, Pitch_bend_c, 3, 9696
5, 7130, Pitch_bend_c, 3, 10048
5, 7132, Pitch_bend_c, 3, 9984
5, 7133, Pitch_bend_c, 3, 9664
5, 7134, Note_on_c, 3, 61, 0
5, 7138, Note_on_c, 3, 58, 42
5, 7138, Pitch_bend_c, 3, 8128
5, 7140, Pitch_bend_c, 3, 8160
5, 7144, Pitch_bend_c, 3, 8192
5, 7145, Pitch_bend_c, 3, 8160
5, 7149, Pitch_bend_c, 3, 8032
5, 7150, Note_on_c, 3, 58, 0
5, 7150, Pitch_bend_c, 3, 8160
5, 7159, Note_on_c, 3, 61, 54
5, 7159, Pitch_bend_c, 3, 8192
5, 7160, Pitch_bend_c, 3, 7904
5, 7161, Pitch_bend_c, 3, 7968
5, 7170, Pitch_bend_c, 3, 8000
5, 7175, Pitch_bend_c, 3, 7968
5, 7179, Pitch_bend_c, 3, 8000
5, 7181, Pitch_bend_c, 3, 8096
5, 7182, Pitch_bend_c, 3, 8448
5, 7183, Pitch_bend_c, 3, 8992
5, 7184, Pitch_bend_c, 3, 9600
5, 7186, Pitch_bend_c, 3, 10080
5, 7187, Pitch_bend_c, 3, 10272
5, 7189, Pitch_bend_c, 3, 10080
5, 7190, Pitch_bend_c, 3, 9568
5, 7192, Pitch_bend_c, 3, 8960
5, 7193, Pitch_bend_c, 3, 8384
5, 7194, Pitch_bend_c, 3, 8032
5, 7195, Note_on_c, 3, 61, 0
5, 7195, Pitch_bend_c, 3, 10080
5, 7449, Pitch_bend_c, 3, 8192
5, 7451, Note_on_c, 3, 68, 101
5, 7451, Pitch_bend_c, 3, 8320
5, 7456, Pitch_bend_c, 3, 8288
5, 7457, Pitch_bend_c, 3, 8192
5, 7460, Pitch_bend_c, 3, 8160
5, 7464, Pitch_bend_c, 3, 8128
5, 7474, Pitch_bend_c, 3, 8192
5, 7476, Note_on_c, 3, 68, 0
5, 7479, Note_on_c, 3, 68, 101
5, 7480, Pitch_bend_c, 3, 8224
5, 7483, Pitch_bend_c, 3, 8192
5, 7497, Note_on_c, 3, 68, 0
5, 7497, Note_on_c, 3, 65, 103
5, 7498, Pitch_bend_c, 3, 8480
5, 7499, Pitch_bend_c, 3, 8288
5, 7502, Pitch_bend_c, 3, 8256
5, 7503, Pitch_bend_c, 3, 8224
5, 7504, Pitch_bend_c, 3, 8192
5, 7506, Pitch_bend_c, 3, 8160
5, 7507, Pitch_bend_c, 3, 8128
5, 7508, Note_on_c, 3, 65, 0
5, 7508, Pitch_bend_c, 3, 8256
5, 7514, Pitch_bend_c, 3, 8192
5, 7516, Note_on_c, 3, 68, 101
5, 7516, Pitch_bend_c, 3, 8160
5, 7519, Pitch_bend_c, 3, 8224
5, 7520, Pitch_bend_c, 3, 8256
5, 7521, Pitch_bend_c, 3, 8224
5, 7523, Pitch_bend_c, 3, 8192
5, 7530, Pitch_bend_c, 3, 8128
5, 7531, Note_on_c, 3, 68, 0
5, 7531, Pitch_bend_c, 3, 8064
5, 7537, Note_on_c, 3, 68, 97
5, 7537, Pitch_bend_c, 3, 8352
5, 7541, Pitch_bend_c, 3, 8384
5, 7546, Pitch_bend_c, 3, 8352
5, 7553, Note_on_c, 3, 68, 0
5, 7557, Pitch_bend_c, 3, 8192
5, 7558, Note_on_c, 3, 63, 104
5, 7558, Pitch_bend_c, 3, 8672
5, 7559, Pitch_bend_c, 3, 8896
5, 7561, Pitch_bend_c, 3, 9120
5, 7562, Pitch_bend_c, 3, 9632
5, 7564, Pitch_bend_c, 3, 10368
5, 7565, Pitch_bend_c, 3, 11072
5, 7567, Pitch_bend_c, 3, 11616
5, 7568, Pitch_bend_c, 3, 11840
5, 7569, Pitch_bend_c, 3, 11776
5, 7571, Pitch_bend_c, 3, 11264
5, 7572, Pitch_bend_c, 3, 8192
5, 7573, Pitch_bend_c, 3, 8128
5, 7576, Pitch_bend_c, 3, 8096
5, 7579, Pitch_bend_c, 3, 8224
5, 7580, Pitch_bend_c, 3, 8288
5, 7582, Note_on_c, 3, 63, 0
5, 7582, Pitch_bend_c, 3, 8384
5, 7584, Pitch_bend_c, 3, 8192
5, 7584, Note_on_c, 3, 61, 97
5, 7585, Pitch_bend_c, 3, 8928
5, 7586, Pitch_bend_c, 3, 8384
5, 7590, Pitch_bend_c, 3, 8416
5, 7593, Note_on_c, 3, 61, 0
5, 7594, Pitch_bend_c, 3, 8192
5, 7594, Note_on_c, 3, 58, 74
5, 7595, Pitch_bend_c, 3, 7968
5, 7597, Pitch_bend_c, 3, 8000
5, 7598, Pitch_bend_c, 3, 8096
5, 7600, Pitch_bend_c, 3, 8160
5, 7601, Pitch_bend_c, 3, 8192
5, 7618, Pitch_bend_c, 3, 8160
5, 7629, Pitch_bend_c, 3, 8128
5, 7642, Pitch_bend_c, 3, 8224
5, 7644, Pitch_bend_c, 3, 8384
5, 7645, Pitch_bend_c, 3, 8512
5, 7646, Pitch_bend_c, 3, 8640
5, 7648, Note_on_c, 3, 58, 0
5, 7649, Note_on_c, 3, 58, 75
5, 7649, Pitch_bend_c, 3, 8256
5, 7657, Pitch_bend_c, 3, 8224
5, 7663, Note_on_c, 3, 58, 0
5, 7663, Pitch_bend_c, 3, 8256
5, 7664, Note_on_c, 3, 58, 90
5, 7664, Pitch_bend_c, 3, 8224
5, 7670, Pitch_bend_c, 3, 8192
5, 7675, Pitch_bend_c, 3, 8224
5, 7677, Note_on_c, 3, 58, 0
5, 7680, Note_on_c, 3, 58, 96
5, 7680, Pitch_bend_c, 3, 8192
5, 7682, Pitch_bend_c, 3, 8224
5, 7691, Pitch_bend_c, 3, 8192
5, 7695, Pitch_bend_c, 3, 8160
5, 7697, Note_on_c, 3, 58, 0
5, 7697, Pitch_bend_c, 3, 8192
5, 7699, Note_on_c, 3, 61, 105
5, 7700, Pitch_bend_c, 3, 8128
5, 7701, Pitch_bend_c, 3, 8224
5, 7704, Pitch_bend_c, 3, 8192
5, 7705, Pitch_bend_c, 3, 8160
5, 7706, Pitch_bend_c, 3, 8064
5, 7708, Pitch_bend_c, 3, 7872
5, 7709, Note_on_c, 3, 61, 0
5, 7709, Pitch_bend_c, 3, 8192
5, 7717, Note_on_c, 3, 57, 78
5, 7717, Pitch_bend_c, 3, 12160
5, 7718, Pitch_bend_c, 3, 12192
5, 7723, Pitch_bend_c, 3, 12256
5, 7724, Pitch_bend_c, 3, 12064
5, 7726, Pitch_bend_c, 3, 11872
5, 7727, Pitch_bend_c, 3, 4032
5, 7728, Pitch_bend_c, 3, 4064
5, 7731, Pitch_bend_c, 3, 4096
5, 7733, Pitch_bend_c, 3, 4128
5, 7735, Note_on_c, 3, 57, 0
5, 7737, Pitch_bend_c, 3, 8192
5, 7738, Note_on_c, 3, 53, 72
5, 7738, Pitch_bend_c, 3, 7968
5, 7745, Pitch_bend_c, 3, 7936
5, 7749, Pitch_bend_c, 3, 7904
5, 7750, Pitch_bend_c, 3, 7872
5, 7758, Pitch_bend_c, 3, 7840
5, 7760, Pitch_bend_c, 3, 7808
5, 7761, Pitch_bend_c, 3, 7776
5, 7762, Pitch_bend_c, 3, 7744
5, 7765, Pitch_bend_c, 3, 7808
5, 7766, Pitch_bend_c, 3, 7840
5, 7768, Pitch_bend_c, 3, 7872
5, 7772, Pitch_bend_c, 3, 7840
5, 7773, Pitch_bend_c, 3, 7808
5, 7774, Pitch_bend_c, 3, 7776
5, 7777, Pitch_bend_c, 3, 7744
5, 7779, Note_on_c, 3, 53, 0
5, 7779, Pitch_bend_c, 3, 7840
5, 8352, Note_on_c, 3, 68, 99
5, 8354, Pitch_bend_c, 3, 8192
5, 8356, Pitch_bend_c, 3, 8448
5, 8358, Pitch_bend_c, 3, 8352
5, 8360, Pitch_bend_c, 3, 8256
5, 8361, Pitch_bend_c, 3, 8192
5, 8363, Pitch_bend_c, 3, 8128
5, 8364, Pitch_bend_c, 3, 8096
5, 8370, Note_on_c, 3, 68, 0
5, 8375, Note_on_c, 3, 68, 98
5, 8377, Pitch_bend_c, 3, 8192
5, 8378, Pitch_bend_c, 3, 8256
5, 8380, Pitch_bend_c, 3, 8192
5, 8384, Pitch_bend_c, 3, 8160
5, 8387, Pitch_bend_c, 3, 8128
5, 8389, Note_on_c, 3, 68, 0
5, 8390, Pitch_bend_c, 3, 8096
5, 8391, Note_on_c, 3, 68, 99
5, 8392, Pitch_bend_c, 3, 8128
5, 8397, Pitch_bend_c, 3, 8160
5, 8400, Pitch_bend_c, 3, 8192
5, 8401, Pitch_bend_c, 3, 8224
5, 8406, Note_on_c, 3, 68, 0
5, 8407, Note_on_c, 3, 68, 99
5, 8407, Pitch_bend_c, 3, 8160
5, 8409, Pitch_bend_c, 3, 8128
5, 8412, Pitch_bend_c, 3, 8096
5, 8413, Pitch_bend_c, 3, 8064
5, 8414, Pitch_bend_c, 3, 8032
5, 8415, Pitch_bend_c, 3, 8128
5, 8419, Pitch_bend_c, 3, 8192
5, 8420, Note_on_c, 3, 68, 0
5, 8420, Note_on_c, 3, 65, 104
5, 8430, Pitch_bend_c, 3, 8128
5, 8431, Pitch_bend_c, 3, 8096
5, 8433, Pitch_bend_c, 3, 8000
5, 8434, Note_on_c, 3, 65, 0
5, 8443, Pitch_bend_c, 3, 8192
5, 8444, Note_on_c, 3, 68, 97
5, 8445, Pitch_bend_c, 3, 8320
5, 8446, Pitch_bend_c, 3, 8256
5, 8447, Pitch_bend_c, 3, 8288
5, 8450, Pitch_bend_c, 3, 8320
5, 8451, Pitch_bend_c, 3, 8288
5, 8453, Pitch_bend_c, 3, 8256
5, 8454, Pitch_bend_c, 3, 8192
5, 8455, Pitch_bend_c, 3, 8160
5, 8457, Pitch_bend_c, 3, 8096
5, 8458, Pitch_bend_c, 3, 8032
5, 8460, Pitch_bend_c, 3, 8064
5, 8462, Pitch_bend_c, 3, 8096
5, 8464, Pitch_bend_c, 3, 8160
5, 8465, Pitch_bend_c, 3, 8192
5, 8467, Note_on_c, 3, 68, 0
5, 8469, Note_on_c, 3, 65, 104
5, 8470, Pitch_bend_c, 3, 8416
5, 8479, Pitch_bend_c, 3, 8160
5, 8481, Pitch_bend_c, 3, 8128
5, 8482, Pitch_bend_c, 3, 8096
5, 8486, Pitch_bend_c, 3, 7744
5, 8487, Note_on_c, 3, 65, 0
5, 8487, Pitch_bend_c, 3, 8160
5, 8488, Pitch_bend_c, 3, 8192
5, 8489, Note_on_c, 3, 65, 103
5, 8489, Pitch_bend_c, 3, 8416
5, 8492, Pitch_bend_c, 3, 8160
5, 8496, Pitch_bend_c, 3, 8128
5, 8498, Pitch_bend_c, 3, 8096
5, 8503, Pitch_bend_c, 3, 8192
5, 8504, Note_on_c, 3, 65, 0
5, 8507, Note_on_c, 3, 65, 103
5, 8508, Pitch_bend_c, 3, 8128
5, 8511, Pitch_bend_c, 3, 8160
5, 8514, Pitch_bend_c, 3, 8128
5, 8515, Pitch_bend_c, 3, 8096
5, 8518, Pitch_bend_c, 3, 8032
5, 8520, Pitch_bend_c, 3, 8000
5, 8522, Pitch_bend_c, 3, 8128
5, 8523, Note_on_c, 3, 65, 0
5, 8523, Pitch_bend_c, 3, 8192
5, 8529, Note_on_c, 3, 61, 95
5, 8529, Pitch_bend_c, 3, 8416
5, 8530, Pitch_bend_c, 3, 8256
5, 8531, Pitch_bend_c, 3, 8288
5, 8534, Pitch_bend_c, 3, 8352
5, 8538, Pitch_bend_c, 3, 8288
5, 8540, Pitch_bend_c, 3, 8192
5, 8541, Pitch_bend_c, 3, 8160
5, 8542, Note_on_c, 3, 61, 0
5, 8542, Pitch_bend_c, 3, 8352
5, 8550, Note_on_c, 3, 63, 102
5, 8550, Pitch_bend_c, 3, 8192
5, 8551, Pitch_bend_c, 3, 8256
5, 8552, Pitch_bend_c, 3, 8192
5, 8555, Pitch_bend_c, 3, 8224
5, 8556, Pitch_bend_c, 3, 8256
5, 8559, Pitch_bend_c, 3, 8224
5, 8561, Pitch_bend_c, 3, 8192
5, 8565, Pitch_bend_c, 3, 8160
5, 8568, Pitch_bend_c, 3, 8128
5, 8570, Note_on_c, 3, 63, 0
5, 8570, Pitch_bend_c, 3, 8192
5, 8574, Note_on_c, 3, 63, 94
5, 8575, Pitch_bend_c, 3, 8224
5, 8576, Pitch_bend_c, 3, 8256
5, 8583, Pitch_bend_c, 3, 8224
5, 8584, Pitch_bend_c, 3, 8192
5, 8586, Pitch_bend_c, 3, 8128
5, 8587, Pitch_bend_c, 3, 7872
5, 8588, Note_on_c, 3, 63, 0
5, 8588, Pitch_bend_c, 3, 8256
5, 8590, Pitch_bend_c, 3, 8032
5, 8590, Note_on_c, 3, 61, 90
5, 8596, Pitch_bend_c, 3, 8096
5, 8597, Pitch_bend_c, 3, 8064
5, 8598, Pitch_bend_c, 3, 8032
5, 8599, Note_on_c, 3, 61, 0
5, 8599, Pitch_bend_c, 3, 8064
5, 8607, Pitch_bend_c, 3, 8192
5, 8608, Pitch_bend_c, 3, 8576
5, 8608, Note_on_c, 3, 65, 104
5, 8609, Pitch_bend_c, 3, 8128
5, 8614, Pitch_bend_c, 3, 8160
5, 8615, Pitch_bend_c, 3, 8192
5, 8617, Pitch_bend_c, 3, 8160
5, 8619, Pitch_bend_c, 3, 8128
5, 8620, Pitch_bend_c, 3, 8096
5, 8623, Pitch_bend_c, 3, 8064
5, 8625, Pitch_bend_c, 3, 8032
5, 8629, Pitch_bend_c, 3, 8064
5, 8630, Pitch_bend_c, 3, 8096
5, 8631, Pitch_bend_c, 3, 8128
5, 8633, Note_on_c, 3, 65, 0
5, 8636, Pitch_bend_c, 3, 8192
5, 8637, Note_on_c, 3, 68, 96
5, 8637, Pitch_bend_c, 3, 8160
5, 8638, Pitch_bend_c, 3, 8192
5, 8648, Pitch_bend_c, 3, 8160
5, 8649, Pitch_bend_c, 3, 8192
5, 8652, Pitch_bend_c, 3, 8160
5, 8656, Pitch_bend_c, 3, 8128
5, 8657, Pitch_bend_c, 3, 8096
5, 8661, Pitch_bend_c, 3, 8192
5, 8662, Pitch_bend_c, 3, 8416
5, 8664, Pitch_bend_c, 3, 8896
5, 8665, Pitch_bend_c, 3, 11360
5, 8667, Pitch_bend_c, 3, 11488
5, 8668, Pitch_bend_c, 3, 11552
5, 8669, Note_on_c, 3, 68, 0
5, 9075, Note_on_c, 3, 69, 111
5, 9075, Pitch_bend_c, 3, 8192
5, 9076, Pitch_bend_c, 3, 8576
5, 9081, Pitch_bend_c, 3, 8544
5, 9082, Pitch_bend_c, 3, 8512
5, 9084, Pitch_bend_c, 3, 8480
5, 9086, Pitch_bend_c, 3, 12064
5, 9088, Pitch_bend_c, 3, 12160
5, 9089, Pitch_bend_c, 3, 12288
5, 9091, Pitch_bend_c, 3, 12384
5, 9092, Pitch_bend_c, 3, 12480
5, 9093, Pitch_bend_c, 3, 12512
5, 9096, Pitch_bend_c, 3, 12544
5, 9097, Pitch_bend_c, 3, 12576
5, 9107, Note_on_c, 3, 69, 0
5, 9110, Note_on_c, 3, 70, 105
5, 9110, Pitch_bend_c, 3, 8192
5, 9111, Pitch_bend_c, 3, 8512
5, 9120, Pitch_bend_c, 3, 8480
5, 9121, Pitch_bend_c, 3, 8512
5, 9126, Note_on_c, 3, 70, 0
5, 9130, Pitch_bend_c, 3, 8192
5, 9131, Note_on_c, 3, 68, 99
5, 9131, Pitch_bend_c, 3, 8224
5, 9132, Pitch_bend_c, 3, 8256
5, 9138, Pitch_bend_c, 3, 8224
5, 9139, Pitch_bend_c, 3, 8192
5, 9142, Pitch_bend_c, 3, 8160
5, 9143, Pitch_bend_c, 3, 8032
5, 9144, Pitch_bend_c, 3, 7904
5, 9146, Note_on_c, 3, 68, 0
5, 9146, Pitch_bend_c, 3, 7776
5, 9150, Pitch_bend_c, 3, 8192
5, 9151, Note_on_c, 3, 63, 103
5, 9152, Pitch_bend_c, 3, 8224
5, 9153, Pitch_bend_c, 3, 8256
5, 9154, Pitch_bend_c, 3, 8192
5, 9155, Pitch_bend_c, 3, 8256
5, 9156, Pitch_bend_c, 3, 8640
5, 9158, Pitch_bend_c, 3, 9216
5, 9159, Pitch_bend_c, 3, 9888
5, 9161, Pitch_bend_c, 3, 10432
5, 9162, Pitch_bend_c, 3, 10592
5, 9163, Pitch_bend_c, 3, 10336
5, 9164, Pitch_bend_c, 3, 9920
5, 9166, Pitch_bend_c, 3, 9376
5, 9167, Pitch_bend_c, 3, 8800
5, 9169, Pitch_bend_c, 3, 8448
5, 9171, Pitch_bend_c, 3, 8288
5, 9172, Pitch_bend_c, 3, 8256
5, 9173, Pitch_bend_c, 3, 8384
5, 9174, Note_on_c, 3, 63, 0
5, 9174, Pitch_bend_c, 3, 8800
5, 9177, Pitch_bend_c, 3, 8416
5, 9177, Note_on_c, 3, 61, 91
5, 9178, Pitch_bend_c, 3, 8096
5, 9179, Pitch_bend_c, 3, 8064
5, 9181, Pitch_bend_c, 3, 8128
5, 9182, Pitch_bend_c, 3, 8160
5, 9183, Pitch_bend_c, 3, 8192
5, 9184, Note_on_c, 3, 61, 0
5, 9187, Note_on_c, 3, 58, 76
5, 9187, Pitch_bend_c, 3, 8288
5, 9192, Pitch_bend_c, 3, 8256
5, 9194, Pitch_bend_c, 3, 8224
5, 9195, Pitch_bend_c, 3, 8192
5, 9197, Pitch_bend_c, 3, 8160
5, 9199, Pitch_bend_c, 3, 8128
5, 9214, Pitch_bend_c, 3, 8160
5, 9218, Pitch_bend_c, 3, 8128
5, 9225, Pitch_bend_c, 3, 8160
5, 9234, Pitch_bend_c, 3, 8192
5, 9237, Pitch_bend_c, 3, 8032
5, 9238, Pitch_bend_c, 3, 4480
5, 9240, Pitch_bend_c, 3, 4448
5, 9241, Note_on_c, 3, 58, 0
5, 9241, Pitch_bend_c, 3, 4384
5, 9242, Pitch_bend_c, 3, 8192
5, 9244, Note_on_c, 3, 57, 77
5, 9245, Pitch_bend_c, 3, 8288
5, 9247, Pitch_bend_c, 3, 8224
5, 9248, Pitch_bend_c, 3, 8160
5, 9250, Pitch_bend_c, 3, 8192
5, 9251, Pitch_bend_c, 3, 12096
5, 9252, Pitch_bend_c, 3, 12128
5, 9253, Pitch_bend_c, 3, 12096
5, 9259, Pitch_bend_c, 3, 12288
5, 9260, Note_on_c, 3, 57, 0
5, 9262, Pitch_bend_c, 3, 8128
5, 9262, Note_on_c, 3, 58, 70
5, 9273, Pitch_bend_c, 3, 8160
5, 9274, Note_on_c, 3, 58, 0
5, 9277, Pitch_bend_c, 3, 8192
5, 9278, Note_on_c, 3, 58, 73
5, 9279, Pitch_bend_c, 3, 8160
5, 9290, Pitch_bend_c, 3, 8128
5, 9291, Note_on_c, 3, 58, 0
5, 9291, Pitch_bend_c, 3, 8192
5, 9293, Note_on_c, 3, 58, 80
5, 9294, Pitch_bend_c, 3, 8160
5, 9300, Pitch_bend_c, 3, 8192
5, 9303, Pitch_bend_c, 3, 8064
5, 9304, Pitch_bend_c, 3, 7904
5, 9306, Pitch_bend_c, 3, 7680
5, 9307, Note_on_c, 3, 58, 0
5, 9307, Pitch_bend_c, 3, 8416
5, 9307, Note_on_c, 3, 57, 77
5, 9311, Pitch_bend_c, 3, 8352
5, 9312, Pitch_bend_c, 3, 8256
5, 9314, Pitch_bend_c, 3, 8224
5, 9315, Pitch_bend_c, 3, 12160
5, 9318, Pitch_bend_c, 3, 12128
5, 9321, Pitch_bend_c, 3, 12096
5, 9323, Pitch_bend_c, 3, 12128
5, 9326, Note_on_c, 3, 57, 0
5, 9326, Note_on_c, 3, 61, 83
5, 9326, Pitch_bend_c, 3, 8192
5, 9331, Pitch_bend_c, 3, 8000
5, 9332, Pitch_bend_c, 3, 8032
5, 9335, Note_on_c, 3, 61, 0
5, 9338, Pitch_bend_c, 3, 8192
5, 9338, Note_on_c, 3, 58, 63
5, 9339, Pitch_bend_c, 3, 8160
5, 9340, Pitch_bend_c, 3, 8192
5, 9342, Pitch_bend_c, 3, 8224
5, 9344, Pitch_bend_c, 3, 8480
5, 9346, Pitch_bend_c, 3, 8800
5, 9347, Pitch_bend_c, 3, 9088
5, 9348, Pitch_bend_c, 3, 256
5, 9350, Pitch_bend_c, 3, 192
5, 9351, Pitch_bend_c, 3, 128
5, 9352, Pitch_bend_c, 3, 96
5, 9354, Pitch_bend_c, 3, 64
5, 9355, Pitch_bend_c, 3, 0
5, 9356, Pitch_bend_c, 3, 64
5, 9358, Pitch_bend_c, 3, 0
5, 9360, Note_on_c, 3, 58, 0
5, 9360, Note_on_c, 3, 53, 63
5, 9360, Pitch_bend_c, 3, 8128
5, 9361, Pitch_bend_c, 3, 8160
5, 9362, Pitch_bend_c, 3, 8192
5, 9365, Pitch_bend_c, 3, 8160
5, 9366, Pitch_bend_c, 3, 8128
5, 9367, Pitch_bend_c, 3, 8096
5, 9369, Pitch_bend_c, 3, 8032
5, 9370, Pitch_bend_c, 3, 8160
5, 9371, Pitch_bend_c, 3, 8192
5, 9373, Pitch_bend_c, 3, 8224
5, 9374, Pitch_bend_c, 3, 8288
5, 9375, Pitch_bend_c, 3, 8192
5, 9377, Pitch_bend_c, 3, 8160
5, 9378, Pitch_bend_c, 3, 8096
5, 9379, Pitch_bend_c, 3, 8000
5, 9384, Pitch_bend_c, 3, 8032
5, 9385, Pitch_bend_c, 3, 8096
5, 9392, Pitch_bend_c, 3, 8064
5, 9394, Pitch_bend_c, 3, 8032
5, 9395, Pitch_bend_c, 3, 8000
5, 9399, Pitch_bend_c, 3, 7968
5, 9401, Note_on_c, 3, 53, 0
5, 9401, Pitch_bend_c, 3, 7936
5, 10073, Pitch_bend_c, 3, 8192
5, 10074, Pitch_bend_c, 3, 8352
5, 10074, Note_on_c, 3, 56, 101
5, 10075, Pitch_bend_c, 3, 8320
5, 10076, Pitch_bend_c, 3, 8288
5, 10079, Pitch_bend_c, 3, 8256
5, 10081, Pitch_bend_c, 3, 8224
5, 10084, Pitch_bend_c, 3, 8192
5, 10094, Note_on_c, 3, 56, 0
5, 10096, Note_on_c, 3, 58, 90
5, 10096, Pitch_bend_c, 3, 8160
5, 10097, Pitch_bend_c, 3, 8192
5, 10104, Pitch_bend_c, 3, 8160
5, 10108, Pitch_bend_c, 3, 8032
5, 10109, Note_on_c, 3, 58, 0
5, 10109, Pitch_bend_c, 3, 8160
5, 10115, Pitch_bend_c, 3, 8192
5, 10116, Note_on_c, 3, 58, 86
5, 10116, Pitch_bend_c, 3, 8288
5, 10117, Pitch_bend_c, 3, 8320
5, 10120, Pitch_bend_c, 3, 8288
5, 10123, Pitch_bend_c, 3, 8256
5, 10129, Note_on_c, 3, 58, 0
5, 10129, Pitch_bend_c, 3, 8288
5, 10135, Pitch_bend_c, 3, 8192
5, 10136, Note_on_c, 3, 56, 74
5, 10136, Pitch_bend_c, 3, 8256
5, 10140, Pitch_bend_c, 3, 8192
5, 10142, Pitch_bend_c, 3, 8128
5, 10144, Note_on_c, 3, 56, 0
5, 10144, Pitch_bend_c, 3, 8256
5, 10155, Pitch_bend_c, 3, 8192
5, 10156, Note_on_c, 3, 61, 103
5, 10157, Pitch_bend_c, 3, 8096
5, 10164, Pitch_bend_c, 3, 8064
5, 10165, Pitch_bend_c, 3, 8032
5, 10166, Pitch_bend_c, 3, 8000
5, 10168, Pitch_bend_c, 3, 8032
5, 10169, Pitch_bend_c, 3, 8064
5, 10170, Pitch_bend_c, 3, 8160
5, 10171, Note_on_c, 3, 61, 0
5, 10175, Pitch_bend_c, 3, 8192
5, 10176, Note_on_c, 3, 58, 71
5, 10185, Pitch_bend_c, 3, 8160
5, 10186, Pitch_bend_c, 3, 7904
5, 10188, Note_on_c, 3, 58, 0
5, 10188, Pitch_bend_c, 3, 8192
5, 10199, Pitch_bend_c, 3, 8224
5, 10199, Note_on_c, 3, 58, 76
5, 10205, Pitch_bend_c, 3, 8192
5, 10212, Note_on_c, 3, 58, 0
5, 10212, Pitch_bend_c, 3, 8224
5, 10216, Pitch_bend_c, 3, 8192
5, 10217, Note_on_c, 3, 56, 51
5, 10218, Pitch_bend_c, 3, 8160
5, 10222, Pitch_bend_c, 3, 8224
5, 10224, Pitch_bend_c, 3, 8192
5, 10231, Note_on_c, 3, 56, 0
5, 10242, Note_on_c, 3, 58, 79
5, 10243, Pitch_bend_c, 3, 8160
5, 10244, Pitch_bend_c, 3, 8192
5, 10246, Pitch_bend_c, 3, 8160
5, 10250, Pitch_bend_c, 3, 8128
5, 10254, Pitch_bend_c, 3, 8096
5, 10260, Pitch_bend_c, 3, 8064
5, 10265, Pitch_bend_c, 3, 8160
5, 10266, Pitch_bend_c, 3, 8288
5, 10267, Pitch_bend_c, 3, 8480
5, 10269, Pitch_bend_c, 3, 8576
5, 10272, Pitch_bend_c, 3, 8512
5, 10273, Pitch_bend_c, 3, 8416
5, 10274, Note_on_c, 3, 58, 0
5, 10274, Pitch_bend_c, 3, 8384
5, 10422, Pitch_bend_c, 3, 8192
5, 10423, Note_on_c, 3, 56, 92
5, 10423, Pitch_bend_c, 3, 8448
5, 10427, Pitch_bend_c, 3, 8352
5, 10428, Pitch_bend_c, 3, 8448
5, 10429, Pitch_bend_c, 3, 8480
5, 10432, Note_on_c, 3, 56, 0
5, 10432, Pitch_bend_c, 3, 8512
5, 10449, Pitch_bend_c, 3, 8192
5, 10450, Pitch_bend_c, 3, 8480
5, 10450, Note_on_c, 3, 58, 94
5, 10451, Pitch_bend_c, 3, 8320
5, 10454, Pitch_bend_c, 3, 8288
5, 10456, Pitch_bend_c, 3, 8256
5, 10458, Pitch_bend_c, 3, 8288
5, 10462, Pitch_bend_c, 3, 8320
5, 10463, Pitch_bend_c, 3, 8288
5, 10466, Pitch_bend_c, 3, 8256
5, 10467, Pitch_bend_c, 3, 8192
5, 10470, Pitch_bend_c, 3, 8160
5, 10471, Pitch_bend_c, 3, 8000
5, 10473, Note_on_c, 3, 58, 0
5, 10473, Pitch_bend_c, 3, 8256
5, 10477, Note_on_c, 3, 56, 78
5, 10480, Pitch_bend_c, 3, 8224
5, 10484, Pitch_bend_c, 3, 8192
5, 10488, Note_on_c, 3, 56, 0
5, 10488, Pitch_bend_c, 3, 8224
5, 10489, Pitch_bend_c, 3, 8192
5, 10490, Note_on_c, 3, 58, 78
5, 10490, Pitch_bend_c, 3, 8160
5, 10496, Pitch_bend_c, 3, 8192
5, 10499, Note_on_c, 3, 58, 0
5, 10502, Note_on_c, 3, 58, 84
5, 10503, Pitch_bend_c, 3, 8256
5, 10507, Pitch_bend_c, 3, 8224
5, 10511, Note_on_c, 3, 58, 0
5, 10511, Pitch_bend_c, 3, 8288
5, 10513, Note_on_c, 3, 58, 96
5, 10513, Pitch_bend_c, 3, 8192
5, 10530, Note_on_c, 3, 58, 0
5, 10543, Note_on_c, 3, 58, 81
5, 10543, Pitch_bend_c, 3, 8256
5, 10554, Note_on_c, 3, 58, 0
5, 10563, Pitch_bend_c, 3, 8192
5, 10563, Note_on_c, 3, 61, 105
5, 10564, Pitch_bend_c, 3, 8256
5, 10565, Pitch_bend_c, 3, 8224
5, 10567, Pitch_bend_c, 3, 8160
5, 10571, Pitch_bend_c, 3, 8192
5, 10575, Pitch_bend_c, 3, 8128
5, 10577, Pitch_bend_c, 3, 8096
5, 10578, Pitch_bend_c, 3, 8064
5, 10579, Pitch_bend_c, 3, 8000
5, 10581, Note_on_c, 3, 61, 0
5, 10581, Pitch_bend_c, 3, 8192
5, 10592, Note_on_c, 3, 56, 65
5, 10593, Pitch_bend_c, 3, 8256
5, 10598, Pitch_bend_c, 3, 8224
5, 10600, Pitch_bend_c, 3, 8192
5, 10604, Pitch_bend_c, 3, 8128
5, 10606, Pitch_bend_c, 3, 8032
5, 10607, Note_on_c, 3, 56, 0
5, 10607, Pitch_bend_c, 3, 8224
5, 10617, Pitch_bend_c, 3, 8192
5, 10618, Note_on_c, 3, 56, 50
5, 10632, Pitch_bend_c, 3, 8160
5, 10634, Note_on_c, 3, 56, 0
5, 10634, Pitch_bend_c, 3, 8192
5, 10798, Note_on_c, 3, 56, 99
5, 10799, Pitch_bend_c, 3, 8256
5, 10800, Pitch_bend_c, 3, 8320
5, 10803, Pitch_bend_c, 3, 8288
5, 10806, Pitch_bend_c, 3, 8256
5, 10808, Pitch_bend_c, 3, 6144
5, 10811, Note_on_c, 3, 56, 0
5, 10811, Pitch_bend_c, 3, 8320
5, 10823, Pitch_bend_c, 3, 8192
5, 10823, Note_on_c, 3, 58, 91
5, 10824, Pitch_bend_c, 3, 8256
5, 10827, Pitch_bend_c, 3, 8224
5, 10840, Note_on_c, 3, 58, 0
5, 10841, Pitch_bend_c, 3, 8288
5, 10841, Note_on_c, 3, 58, 74
5, 10851, Pitch_bend_c, 3, 8256
5, 10854, Pitch_bend_c, 3, 8128
5, 10855, Note_on_c, 3, 58, 0
5, 10855, Pitch_bend_c, 3, 8288
5, 10858, Pitch_bend_c, 3, 8192
5, 10859, Note_on_c, 3, 56, 83
5, 10860, Pitch_bend_c, 3, 8224
5, 10864, Pitch_bend_c, 3, 8192
5, 10867, Pitch_bend_c, 3, 8064
5, 10869, Note_on_c, 3, 56, 0
5, 10869, Pitch_bend_c, 3, 8224
5, 10876, Note_on_c, 3, 58, 83
5, 10876, Pitch_bend_c, 3, 8192
5, 10877, Pitch_bend_c, 3, 8224
5, 10889, Pitch_bend_c, 3, 8192
5, 10892, Note_on_c, 3, 58, 0
5, 10892, Pitch_bend_c, 3, 8256
5, 10895, Pitch_bend_c, 3, 8192
5, 10895, Note_on_c, 3, 58, 85
5, 10908, Note_on_c, 3, 58, 0
5, 10908, Pitch_bend_c, 3, 8256
5, 10919, Note_on_c, 3, 56, 66
5, 10919, Pitch_bend_c, 3, 8224
5, 10922, Pitch_bend_c, 3, 8160
5, 10923, Note_on_c, 3, 56, 0
5, 10923, Pitch_bend_c, 3, 8224
5, 10935, Note_on_c, 3, 61, 103
5, 10935, Pitch_bend_c, 3, 8160
5, 10937, Pitch_bend_c, 3, 8224
5, 10939, Pitch_bend_c, 3, 8192
5, 10941, Pitch_bend_c, 3, 8128
5, 10943, Pitch_bend_c, 3, 8096
5, 10944, Pitch_bend_c, 3, 8064
5, 10945, Pitch_bend_c, 3, 7968
5, 10947, Pitch_bend_c, 3, 8032
5, 10950, Pitch_bend_c, 3, 8128
5, 10951, Pitch_bend_c, 3, 8320
5, 10952, Note_on_c, 3, 61, 0
5, 10952, Pitch_bend_c, 3, 8192
5, 10952, Note_on_c, 3, 58, 74
5, 10953, Pitch_bend_c, 3, 8224
5, 10963, Note_on_c, 3, 58, 0
5, 10964, Pitch_bend_c, 3, 8192
5, 10965, Note_on_c, 3, 61, 101
5, 10966, Pitch_bend_c, 3, 7968
5, 10969, Pitch_bend_c, 3, 8064
5, 10971, Pitch_bend_c, 3, 8096
5, 10972, Pitch_bend_c, 3, 8128
5, 10976, Pitch_bend_c, 3, 8160
5, 10979, Pitch_bend_c, 3, 8192
5, 10980, Pitch_bend_c, 3, 8384
5, 10982, Pitch_bend_c, 3, 8768
5, 10983, Pitch_bend_c, 3, 9280
5, 10984, Pitch_bend_c, 3, 9728
5, 10986, Note_on_c, 3, 61, 0
5, 10986, Pitch_bend_c, 3, 10144
5, 11161, Pitch_bend_c, 3, 8192
5, 11163, Pitch_bend_c, 3, 9024
5, 11163, Note_on_c, 3, 68, 101
5, 11166, Pitch_bend_c, 3, 9184
5, 11167, Pitch_bend_c, 3, 8896
5, 11169, Pitch_bend_c, 3, 8704
5, 11170, Pitch_bend_c, 3, 8416
5, 11172, Pitch_bend_c, 3, 8288
5, 11173, Pitch_bend_c, 3, 8256
5, 11174, Pitch_bend_c, 3, 8224
5, 11175, Pitch_bend_c, 3, 8192
5, 11178, Pitch_bend_c, 3, 8128
5, 11180, Pitch_bend_c, 3, 8032
5, 11182, Pitch_bend_c, 3, 7968
5, 11184, Pitch_bend_c, 3, 8032
5, 11185, Pitch_bend_c, 3, 8160
5, 11187, Pitch_bend_c, 3, 8192
5, 11188, Pitch_bend_c, 3, 8224
5, 11189, Pitch_bend_c, 3, 8256
5, 11192, Note_on_c, 3, 68, 0
5, 11194, Pitch_bend_c, 3, 8192
5, 11195, Note_on_c, 3, 68, 103
5, 11200, Pitch_bend_c, 3, 8224
5, 11201, Pitch_bend_c, 3, 8192
5, 11213, Note_on_c, 3, 68, 0
5, 11213, Pitch_bend_c, 3, 8256
5, 11217, Pitch_bend_c, 3, 8640
5, 11217, Note_on_c, 3, 65, 106
5, 11223, Pitch_bend_c, 3, 8224
5, 11224, Pitch_bend_c, 3, 8192
5, 11226, Pitch_bend_c, 3, 8096
5, 11227, Pitch_bend_c, 3, 7808
5, 11228, Pitch_bend_c, 3, 7520
5, 11229, Note_on_c, 3, 65, 0
5, 11241, Pitch_bend_c, 3, 8192
5, 11242, Note_on_c, 3, 68, 96
5, 11246, Pitch_bend_c, 3, 8256
5, 11250, Pitch_bend_c, 3, 8192
5, 11254, Pitch_bend_c, 3, 8160
5, 11256, Pitch_bend_c, 3, 8192
5, 11262, Pitch_bend_c, 3, 8160
5, 11263, Note_on_c, 3, 68, 0
5, 11263, Pitch_bend_c, 3, 8192
5, 11267, Pitch_bend_c, 3, 8256
5, 11267, Note_on_c, 3, 65, 94
5, 11270, Pitch_bend_c, 3, 8192
5, 11273, Pitch_bend_c, 3, 8096
5, 11274, Pitch_bend_c, 3, 8000
5, 11275, Note_on_c, 3, 65, 0
5, 11275, Pitch_bend_c, 3, 8256
5, 11290, Pitch_bend_c, 3, 8192
5, 11291, Note_on_c, 3, 68, 98
5, 11292, Pitch_bend_c, 3, 8384
5, 11296, Pitch_bend_c, 3, 8320
5, 11298, Pitch_bend_c, 3, 8256
5, 11300, Pitch_bend_c, 3, 8192
5, 11301, Pitch_bend_c, 3, 8224
5, 11304, Pitch_bend_c, 3, 8192
5, 11311, Note_on_c, 3, 68, 0
5, 11311, Pitch_bend_c, 3, 8224
5, 11313, Pitch_bend_c, 3, 8192
5, 11314, Pitch_bend_c, 3, 8544
5, 11314, Note_on_c, 3, 65, 104
5, 11327, Pitch_bend_c, 3, 8160
5, 11328, Pitch_bend_c, 3, 8096
5, 11329, Pitch_bend_c, 3, 8000
5, 11331, Note_on_c, 3, 65, 0
5, 11331, Pitch_bend_c, 3, 7840
5, 11336, Pitch_bend_c, 3, 8192
5, 11369, Pitch_bend_c, 3, 8288
5, 11369, Note_on_c, 3, 69, 99
5, 11370, Pitch_bend_c, 3, 8256
5, 11372, Pitch_bend_c, 3, 8288
5, 11376, Pitch_bend_c, 3, 8256
5, 11377, Pitch_bend_c, 3, 8224
5, 11378, Pitch_bend_c, 3, 8192
5, 11380, Pitch_bend_c, 3, 8128
5, 11381, Pitch_bend_c, 3, 8064
5, 11382, Pitch_bend_c, 3, 8160
5, 11384, Pitch_bend_c, 3, 12064
5, 11385, Pitch_bend_c, 3, 12096
5, 11387, Pitch_bend_c, 3, 12128
5, 11388, Pitch_bend_c, 3, 12160
5, 11390, Pitch_bend_c, 3, 12224
5, 11397, Pitch_bend_c, 3, 12192
5, 11401, Pitch_bend_c, 3, 12160
5, 11402, Pitch_bend_c, 3, 12192
5, 11413, Pitch_bend_c, 3, 12160
5, 11416, Pitch_bend_c, 3, 12128
5, 11417, Pitch_bend_c, 3, 12096
5, 11419, Pitch_bend_c, 3, 12032
5, 11422, Pitch_bend_c, 3, 12064
5, 11423, Note_on_c, 3, 69, 0
5, 11423, Pitch_bend_c, 3, 12128
5, 11426, Note_on_c, 3, 68, 96
5, 11426, Pitch_bend_c, 3, 8288
5, 11432, Pitch_bend_c, 3, 8256
5, 11433, Pitch_bend_c, 3, 8288
5, 11437, Pitch_bend_c, 3, 8224
5, 11440, Pitch_bend_c, 3, 7968
5, 11441, Note_on_c, 3, 68, 0
5, 11441, Pitch_bend_c, 3, 8288
5, 11452, Note_on_c, 3, 65, 105
5, 11452, Pitch_bend_c, 3, 8320
5, 11457, Pitch_bend_c, 3, 8352
5, 11461, Pitch_bend_c, 3, 8288
5, 11462, Pitch_bend_c, 3, 8192
5, 11464, Pitch_bend_c, 3, 7808
5, 11465, Pitch_bend_c, 3, 8352
5, 11466, Note_on_c, 3, 65, 0
5, 11478, Pitch_bend_c, 3, 8192
5, 11479, Note_on_c, 3, 68, 95
5, 11480, Pitch_bend_c, 3, 8608
5, 11481, Pitch_bend_c, 3, 8544
5, 11483, Pitch_bend_c, 3, 8576
5, 11484, Pitch_bend_c, 3, 8640
5, 11488, Pitch_bend_c, 3, 8448
5, 11490, Pitch_bend_c, 3, 8384
5, 11491, Pitch_bend_c, 3, 8448
5, 11494, Pitch_bend_c, 3, 8480
5, 11495, Pitch_bend_c, 3, 8448
5, 11497, Pitch_bend_c, 3, 8416
5, 11498, Pitch_bend_c, 3, 8384
5, 11500, Pitch_bend_c, 3, 8352
5, 11501, Pitch_bend_c, 3, 8384
5, 11502, Pitch_bend_c, 3, 8608
5, 11504, Note_on_c, 3, 68, 0
5, 11509, Note_on_c, 3, 63, 100
5, 11509, Pitch_bend_c, 3, 8192
5, 11510, Pitch_bend_c, 3, 8256
5, 11515, Pitch_bend_c, 3, 8288
5, 11519, Pitch_bend_c, 3, 8320
5, 11520, Pitch_bend_c, 3, 8352
5, 11521, Pitch_bend_c, 3, 8544
5, 11523, Pitch_bend_c, 3, 8832
5, 11524, Pitch_bend_c, 3, 9280
5, 11525, Pitch_bend_c, 3, 9760
5, 11527, Pitch_bend_c, 3, 10272
5, 11528, Pitch_bend_c, 3, 10688
5, 11529, Pitch_bend_c, 3, 10944
5, 11531, Pitch_bend_c, 3, 11104
5, 11534, Pitch_bend_c, 3, 11008
5, 11535, Pitch_bend_c, 3, 10624
5, 11537, Pitch_bend_c, 3, 10080
5, 11538, Pitch_bend_c, 3, 9408
5, 11539, Pitch_bend_c, 3, 8736
5, 11541, Pitch_bend_c, 3, 8352
5, 11542, Pitch_bend_c, 3, 8128
5, 11544, Pitch_bend_c, 3, 8032
5, 11545, Pitch_bend_c, 3, 8000
5, 11552, Note_on_c, 3, 63, 0
5, 11552, Pitch_bend_c, 3, 8032
5, 11555, Pitch_bend_c, 3, 8192
5, 11556, Pitch_bend_c, 3, 8288
5, 11556, Note_on_c, 3, 61, 87
5, 11562, Pitch_bend_c, 3, 8160
5, 11563, Pitch_bend_c, 3, 8192
5, 11565, Pitch_bend_c, 3, 8352
5, 11566, Pitch_bend_c, 3, 8480
5, 11567, Pitch_bend_c, 3, 8608
5, 11568, Note_on_c, 3, 61, 0
5, 11568, Note_on_c, 3, 58, 51
5, 11568, Pitch_bend_c, 3, 8192
5, 11579, Pitch_bend_c, 3, 8128
5, 11580, Pitch_bend_c, 3, 8096
5, 11581, Pitch_bend_c, 3, 8064
5, 11583, Pitch_bend_c, 3, 8032
5, 11588, Pitch_bend_c, 3, 8064
5, 11591, Pitch_bend_c, 3, 8128
5, 11592, Pitch_bend_c, 3, 8192
5, 11594, Pitch_bend_c, 3, 8320
5, 11595, Pitch_bend_c, 3, 8416
5, 11596, Pitch_bend_c, 3, 8480
5, 11599, Pitch_bend_c, 3, 8384
5, 11600, Pitch_bend_c, 3, 8256
5, 11602, Pitch_bend_c, 3, 8192
5, 11603, Pitch_bend_c, 3, 8128
5, 11604, Pitch_bend_c, 3, 8064
5, 11606, Pitch_bend_c, 3, 8032
5, 11607, Pitch_bend_c, 3, 8000
5, 11609, Pitch_bend_c, 3, 8032
5, 11610, Pitch_bend_c, 3, 8096
5, 11611, Pitch_bend_c, 3, 8160
5, 11613, Pitch_bend_c, 3, 8192
5, 11617, Pitch_bend_c, 3, 8160
5, 11618, Pitch_bend_c, 3, 8096
5, 11619, Note_on_c, 3, 58, 0
5, 11641, Pitch_bend_c, 3, 8192
5, 11642, Note_on_c, 3, 56, 101
5, 11642, Pitch_bend_c, 3, 8320
5, 11651, Pitch_bend_c, 3, 8288
5, 11653, Pitch_bend_c, 3, 8256
5, 11654, Pitch_bend_c, 3, 8224
5, 11655, Pitch_bend_c, 3, 8160
5, 11657, Pitch_bend_c, 3, 8096
5, 11658, Note_on_c, 3, 56, 0
5, 11658, Pitch_bend_c, 3, 8288
5, 11659, Pitch_bend_c, 3, 8192
5, 11660, Note_on_c, 3, 57, 74
5, 11661, Pitch_bend_c, 3, 10976
5, 11663, Pitch_bend_c, 3, 12160
5, 11672, Pitch_bend_c, 3, 12128
5, 11674, Pitch_bend_c, 3, 12288
5, 11675, Note_on_c, 3, 57, 0
5, 11682, Pitch_bend_c, 3, 8320
5, 11682, Note_on_c, 3, 61, 96
5, 11686, Pitch_bend_c, 3, 8352
5, 11688, Pitch_bend_c, 3, 8320
5, 11689, Pitch_bend_c, 3, 8288
5, 11692, Pitch_bend_c, 3, 8256
5, 11693, Pitch_bend_c, 3, 8192
5, 11695, Pitch_bend_c, 3, 8160
5, 11700, Note_on_c, 3, 61, 0
5, 11700, Pitch_bend_c, 3, 8256
5, 11702, Pitch_bend_c, 3, 8192
5, 11703, Pitch_bend_c, 3, 8416
5, 11703, Note_on_c, 3, 61, 91
5, 11704, Pitch_bend_c, 3, 8320
5, 11708, Pitch_bend_c, 3, 8288
5, 11711, Pitch_bend_c, 3, 8256
5, 11712, Pitch_bend_c, 3, 8224
5, 11713, Pitch_bend_c, 3, 8192
5, 11715, Pitch_bend_c, 3, 8448
5, 11716, Pitch_bend_c, 3, 8640
5, 11717, Note_on_c, 3, 61, 0
5, 11718, Pitch_bend_c, 3, 8192
5, 11719, Pitch_bend_c, 3, 8128
5, 11719, Note_on_c, 3, 61, 80
5, 11720, Pitch_bend_c, 3, 8096
5, 11726, Pitch_bend_c, 3, 8128
5, 11731, Note_on_c, 3, 61, 0
5, 11741, Pitch_bend_c, 3, 8224
5, 11741, Note_on_c, 3, 61, 91
5, 11750, Pitch_bend_c, 3, 8192
5, 11751, Pitch_bend_c, 3, 8160
5, 11752, Pitch_bend_c, 3, 8128
5, 11762, Pitch_bend_c, 3, 8064
5, 11765, Pitch_bend_c, 3, 8128
5, 11766, Pitch_bend_c, 3, 8288
5, 11767, Pitch_bend_c, 3, 8544
5, 11769, Pitch_bend_c, 3, 8768
5, 11770, Note_on_c, 3, 61, 0
5, 11782, Pitch_bend_c, 3, 8192
5, 11783, Note_on_c, 3, 60, 89
5, 11784, Pitch_bend_c, 3, 8160
5, 11787, Pitch_bend_c, 3, 8192
5, 11795, Pitch_bend_c, 3, 8160
5, 11796, Pitch_bend_c, 3, 8128
5, 11798, Pitch_bend_c, 3, 8096
5, 11802, Pitch_bend_c, 3, 8032
5, 11809, Pitch_bend_c, 3, 8064
5, 11810, Note_on_c, 3, 60, 0
5, 11810, Pitch_bend_c, 3, 8096
5, 11813, Pitch_bend_c, 3, 8192
5, 11814, Note_on_c, 3, 61, 81
5, 11815, Pitch_bend_c, 3, 8448
5, 11816, Pitch_bend_c, 3, 8320
5, 11817, Pitch_bend_c, 3, 8352
5, 11818, Pitch_bend_c, 3, 8384
5, 11820, Pitch_bend_c, 3, 8416
5, 11821, Pitch_bend_c, 3, 8448
5, 11825, Pitch_bend_c, 3, 8352
5, 11827, Pitch_bend_c, 3, 8288
5, 11828, Pitch_bend_c, 3, 8224
5, 11830, Pitch_bend_c, 3, 8192
5, 11831, Pitch_bend_c, 3, 8160
5, 11834, Pitch_bend_c, 3, 8192
5, 11835, Pitch_bend_c, 3, 8224
5, 11836, Pitch_bend_c, 3, 8352
5, 11838, Note_on_c, 3, 61, 0
5, 11838, Pitch_bend_c, 3, 8448
5, 12140, Pitch_bend_c, 3, 8192
5, 12141, Pitch_bend_c, 3, 8032
5, 12141, Note_on_c, 3, 68, 100
5, 12142, Pitch_bend_c, 3, 8736
5, 12143, Pitch_bend_c, 3, 8256
5, 12144, Pitch_bend_c, 3, 8224
5, 12147, Pitch_bend_c, 3, 8256
5, 12151, Pitch_bend_c, 3, 8224
5, 12152, Pitch_bend_c, 3, 8192
5, 12166, Pitch_bend_c, 3, 8160
5, 12167, Pitch_bend_c, 3, 8128
5, 12169, Pitch_bend_c, 3, 8160
5, 12172, Pitch_bend_c, 3, 8192
5, 12175, Note_on_c, 3, 68, 0
5, 12176, Note_on_c, 3, 68, 99
5, 12176, Pitch_bend_c, 3, 8288
5, 12182, Pitch_bend_c, 3, 8256
5, 12184, Pitch_bend_c, 3, 8192
5, 12188, Pitch_bend_c, 3, 8160
5, 12190, Pitch_bend_c, 3, 7968
5, 12191, Pitch_bend_c, 3, 7808
5, 12192, Note_on_c, 3, 68, 0
5, 12192, Pitch_bend_c, 3, 8192
5, 12195, Note_on_c, 3, 65, 105
5, 12204, Pitch_bend_c, 3, 8256
5, 12205, Pitch_bend_c, 3, 8288
5, 12207, Note_on_c, 3, 65, 0
5, 12207, Pitch_bend_c, 3, 8352
5, 12218, Pitch_bend_c, 3, 8192
5, 12219, Pitch_bend_c, 3, 8224
5, 12219, Note_on_c, 3, 68, 97
5, 12220, Pitch_bend_c, 3, 8256
5, 12222, Pitch_bend_c, 3, 8320
5, 12225, Pitch_bend_c, 3, 8256
5, 12227, Pitch_bend_c, 3, 8224
5, 12228, Pitch_bend_c, 3, 8192
5, 12233, Pitch_bend_c, 3, 8224
5, 12235, Pitch_bend_c, 3, 8192
5, 12236, Note_on_c, 3, 68, 0
5, 12236, Pitch_bend_c, 3, 8288
5, 12237, Pitch_bend_c, 3, 8192
5, 12247, Pitch_bend_c, 3, 8384
5, 12247, Note_on_c, 3, 63, 99
5, 12248, Pitch_bend_c, 3, 8480
5, 12252, Pitch_bend_c, 3, 8544
5, 12254, Pitch_bend_c, 3, 8672
5, 12255, Pitch_bend_c, 3, 8800
5, 12256, Pitch_bend_c, 3, 8960
5, 12258, Pitch_bend_c, 3, 9120
5, 12259, Pitch_bend_c, 3, 9344
5, 12260, Pitch_bend_c, 3, 9664
5, 12262, Pitch_bend_c, 3, 10016
5, 12263, Pitch_bend_c, 3, 10336
5, 12264, Pitch_bend_c, 3, 10592
5, 12266, Note_on_c, 3, 63, 0
5, 12275, Pitch_bend_c, 3, 8192
5, 12276, Pitch_bend_c, 3, 8000
5, 12276, Note_on_c, 3, 63, 89
5, 12277, Pitch_bend_c, 3, 8064
5, 12285, Pitch_bend_c, 3, 8032
5, 12286, Pitch_bend_c, 3, 8000
5, 12291, Pitch_bend_c, 3, 8192
5, 12292, Note_on_c, 3, 63, 0
5, 12292, Pitch_bend_c, 3, 8416
5, 12294, Pitch_bend_c, 3, 8192
5, 12295, Pitch_bend_c, 3, 8256
5, 12295, Note_on_c, 3, 61, 88
5, 12296, Pitch_bend_c, 3, 8032
5, 12307, Pitch_bend_c, 3, 8096
5, 12308, Note_on_c, 3, 61, 0
5, 12310, Pitch_bend_c, 3, 8192
5, 12311, Note_on_c, 3, 58, 50
5, 12311, Pitch_bend_c, 3, 8224
5, 12320, Pitch_bend_c, 3, 8160
5, 12322, Pitch_bend_c, 3, 8128
5, 12326, Pitch_bend_c, 3, 8096
5, 12330, Pitch_bend_c, 3, 8064
5, 12331, Pitch_bend_c, 3, 8096
5, 12333, Pitch_bend_c, 3, 8192
5, 12334, Pitch_bend_c, 3, 8256
5, 12335, Pitch_bend_c, 3, 8384
5, 12337, Pitch_bend_c, 3, 8416
5, 12338, Pitch_bend_c, 3, 8384
5, 12339, Pitch_bend_c, 3, 8288
5, 12341, Pitch_bend_c, 3, 8192
5, 12342, Pitch_bend_c, 3, 8096
5, 12343, Pitch_bend_c, 3, 8032
5, 12345, Pitch_bend_c, 3, 8000
5, 12346, Pitch_bend_c, 3, 7968
5, 12347, Pitch_bend_c, 3, 8000
5, 12349, Pitch_bend_c, 3, 8064
5, 12350, Pitch_bend_c, 3, 8192
5, 12352, Pitch_bend_c, 3, 8224
5, 12353, Pitch_bend_c, 3, 8256
5, 12355, Pitch_bend_c, 3, 8224
5, 12356, Pitch_bend_c, 3, 8160
5, 12357, Pitch_bend_c, 3, 8096
5, 12359, Pitch_bend_c, 3, 8064
5, 12360, Pitch_bend_c, 3, 8256
5, 12361, Note_on_c, 3, 58, 0
5, 12375, Pitch_bend_c, 3, 8288
5, 12375, Note_on_c, 3, 57, 96
5, 12376, Pitch_bend_c, 3, 8256
5, 12378, Pitch_bend_c, 3, 8224
5, 12381, Pitch_bend_c, 3, 8192
5, 12382, Pitch_bend_c, 3, 8160
5, 12385, Pitch_bend_c, 3, 8192
5, 12386, Pitch_bend_c, 3, 11392
5, 12387, Pitch_bend_c, 3, 11616
5, 12389, Pitch_bend_c, 3, 11808
5, 12390, Pitch_bend_c, 3, 12000
5, 12392, Pitch_bend_c, 3, 12192
5, 12398, Note_on_c, 3, 57, 0
5, 12399, Note_on_c, 3, 58, 81
5, 12399, Pitch_bend_c, 3, 8128
5, 12400, Pitch_bend_c, 3, 8096
5, 12412, Pitch_bend_c, 3, 8192
5, 12413, Note_on_c, 3, 58, 0
5, 12415, Note_on_c, 3, 58, 87
5, 12416, Pitch_bend_c, 3, 8064
5, 12418, Pitch_bend_c, 3, 8032
5, 12419, Pitch_bend_c, 3, 8064
5, 12422, Pitch_bend_c, 3, 8096
5, 12429, Pitch_bend_c, 3, 8128
5, 12431, Pitch_bend_c, 3, 8160
5, 12433, Note_on_c, 3, 58, 0
5, 12433, Note_on_c, 3, 61, 92
5, 12433, Pitch_bend_c, 3, 8128
5, 12443, Pitch_bend_c, 3, 7968
5, 12445, Note_on_c, 3, 61, 0
5, 12445, Pitch_bend_c, 3, 8128
5, 12457, Pitch_bend_c, 3, 8192
5, 12457, Note_on_c, 3, 58, 82
5, 12458, Pitch_bend_c, 3, 8160
5, 12461, Pitch_bend_c, 3, 8192
5, 12463, Pitch_bend_c, 3, 8288
5, 12464, Pitch_bend_c, 3, 8416
5, 12465, Pitch_bend_c, 3, 8192
5, 12467, Note_on_c, 3, 58, 0
5, 12467, Pitch_bend_c, 3, 12256
5, 12467, Note_on_c, 3, 55, 43
5, 12468, Pitch_bend_c, 3, 12288
5, 12470, Pitch_bend_c, 3, 12256
5, 12472, Pitch_bend_c, 3, 12224
5, 12477, Pitch_bend_c, 3, 12256
5, 12478, Pitch_bend_c, 3, 12224
5, 12480, Note_on_c, 3, 55, 0
5, 12480, Pitch_bend_c, 3, 8192
5, 12480, Note_on_c, 3, 53, 80
5, 12484, Pitch_bend_c, 3, 8288
5, 12485, Pitch_bend_c, 3, 8256
5, 12487, Pitch_bend_c, 3, 8352
5, 12488, Pitch_bend_c, 3, 8288
5, 12491, Pitch_bend_c, 3, 8320
5, 12492, Pitch_bend_c, 3, 8288
5, 12493, Pitch_bend_c, 3, 8224
5, 12495, Pitch_bend_c, 3, 8192
5, 12496, Pitch_bend_c, 3, 8160
5, 12498, Pitch_bend_c, 3, 8096
5, 12499, Pitch_bend_c, 3, 8000
5, 12505, Pitch_bend_c, 3, 8032
5, 12509, Pitch_bend_c, 3, 8000
5, 12515, Note_on_c, 3, 53, 0
5, 12895, Pitch_bend_c, 3, 8192
5, 12896, Note_on_c, 3, 67, 101
5, 12901, Pitch_bend_c, 3, 8288
5, 12902, Pitch_bend_c, 3, 12064
5, 12903, Pitch_bend_c, 3, 12096
5, 12906, Pitch_bend_c, 3, 12128
5, 12910, Pitch_bend_c, 3, 12160
5, 12917, Pitch_bend_c, 3, 12256
5, 12918, Pitch_bend_c, 3, 12320
5, 12920, Pitch_bend_c, 3, 12448
5, 12921, Pitch_bend_c, 3, 12544
5, 12922, Pitch_bend_c, 3, 12576
5, 12926, Pitch_bend_c, 3, 12512
5, 12928, Pitch_bend_c, 3, 12352
5, 12929, Pitch_bend_c, 3, 12192
5, 12930, Pitch_bend_c, 3, 12032
5, 12932, Pitch_bend_c, 3, 12000
5, 12935, Pitch_bend_c, 3, 12128
5, 12936, Pitch_bend_c, 3, 12288
5, 12937, Pitch_bend_c, 3, 12416
5, 12938, Pitch_bend_c, 3, 12544
5, 12940, Pitch_bend_c, 3, 12608
5, 12942, Pitch_bend_c, 3, 12640
5, 12944, Pitch_bend_c, 3, 12608
5, 12947, Pitch_bend_c, 3, 12544
5, 12948, Pitch_bend_c, 3, 12416
5, 12950, Pitch_bend_c, 3, 12288
5, 12951, Pitch_bend_c, 3, 12128
5, 12952, Pitch_bend_c, 3, 12032
5, 12955, Pitch_bend_c, 3, 12160
5, 12957, Pitch_bend_c, 3, 12288
5, 12958, Pitch_bend_c, 3, 12416
5, 12959, Pitch_bend_c, 3, 12544
5, 12961, Pitch_bend_c, 3, 12576
5, 12962, Pitch_bend_c, 3, 12544
5, 12964, Pitch_bend_c, 3, 12512
5, 12965, Pitch_bend_c, 3, 12480
5, 12966, Pitch_bend_c, 3, 12352
5, 12968, Pitch_bend_c, 3, 12224
5, 12969, Pitch_bend_c, 3, 12096
5, 12970, Pitch_bend_c, 3, 12032
5, 12973, Pitch_bend_c, 3, 12064
5, 12974, Pitch_bend_c, 3, 12096
5, 12979, Pitch_bend_c, 3, 12064
5, 12980, Pitch_bend_c, 3, 12032
5, 12982, Note_on_c, 3, 67, 0
5, 12985, Pitch_bend_c, 3, 8192
5, 12986, Note_on_c, 3, 65, 105
5, 12986, Pitch_bend_c, 3, 8416
5, 12997, Pitch_bend_c, 3, 8160
5, 12999, Pitch_bend_c, 3, 8128
5, 13000, Pitch_bend_c, 3, 8096
5, 13001, Pitch_bend_c, 3, 8000
5, 13003, Pitch_bend_c, 3, 7808
5, 13004, Note_on_c, 3, 65, 0
5, 13004, Pitch_bend_c, 3, 7680
5, 13016, Pitch_bend_c, 3, 8192
5, 13017, Pitch_bend_c, 3, 8224
5, 13017, Note_on_c, 3, 68, 99
5, 13018, Pitch_bend_c, 3, 8256
5, 13022, Pitch_bend_c, 3, 8224
5, 13027, Pitch_bend_c, 3, 8192
5, 13030, Pitch_bend_c, 3, 8160
5, 13031, Pitch_bend_c, 3, 8064
5, 13032, Pitch_bend_c, 3, 8032
5, 13034, Note_on_c, 3, 68, 0
5, 13034, Pitch_bend_c, 3, 8192
5, 13047, Note_on_c, 3, 67, 103
5, 13048, Pitch_bend_c, 3, 8256
5, 13049, Pitch_bend_c, 3, 8320
5, 13050, Pitch_bend_c, 3, 8256
5, 13051, Pitch_bend_c, 3, 8032
5, 13053, Pitch_bend_c, 3, 7936
5, 13054, Pitch_bend_c, 3, 8000
5, 13055, Pitch_bend_c, 3, 12000
5, 13072, Pitch_bend_c, 3, 11968
5, 13075, Pitch_bend_c, 3, 12000
5, 13078, Note_on_c, 3, 67, 0
5, 13078, Pitch_bend_c, 3, 11840
5, 13083, Note_on_c, 3, 65, 104
5, 13083, Pitch_bend_c, 3, 8896
5, 13085, Pitch_bend_c, 3, 8192
5, 13088, Pitch_bend_c, 3, 8160
5, 13089, Pitch_bend_c, 3, 8128
5, 13093, Pitch_bend_c, 3, 8096
5, 13095, Pitch_bend_c, 3, 8064
5, 13097, Note_on_c, 3, 65, 0
5, 13097, Pitch_bend_c, 3, 8192
5, 13099, Note_on_c, 3, 65, 97
5, 13099, Pitch_bend_c, 3, 7360
5, 13102, Pitch_bend_c, 3, 7456
5, 13103, Pitch_bend_c, 3, 7712
5, 13105, Pitch_bend_c, 3, 7904
5, 13106, Pitch_bend_c, 3, 8064
5, 13107, Pitch_bend_c, 3, 8096
5, 13110, Note_on_c, 3, 65, 0
5, 13114, Pitch_bend_c, 3, 8192
5, 13115, Pitch_bend_c, 3, 11936
5, 13115, Note_on_c, 3, 67, 95
5, 13118, Pitch_bend_c, 3, 12096
5, 13119, Pitch_bend_c, 3, 12128
5, 13122, Pitch_bend_c, 3, 12096
5, 13123, Pitch_bend_c, 3, 12064
5, 13125, Pitch_bend_c, 3, 12000
5, 13128, Pitch_bend_c, 3, 12032
5, 13129, Pitch_bend_c, 3, 12000
5, 13130, Note_on_c, 3, 67, 0
5, 13130, Pitch_bend_c, 3, 12096
5, 13143, Pitch_bend_c, 3, 8192
5, 13144, Note_on_c, 3, 65, 96
5, 13144, Pitch_bend_c, 3, 8160
5, 13152, Pitch_bend_c, 3, 8128
5, 13154, Pitch_bend_c, 3, 8096
5, 13158, Note_on_c, 3, 65, 0
5, 13158, Note_on_c, 3, 63, 76
5, 13158, Pitch_bend_c, 3, 8192
5, 13159, Pitch_bend_c, 3, 7968
5, 13162, Pitch_bend_c, 3, 7936
5, 13167, Pitch_bend_c, 3, 7968
5, 13169, Pitch_bend_c, 3, 8000
5, 13171, Note_on_c, 3, 63, 0
5, 13174, Pitch_bend_c, 3, 8192
5, 13174, Note_on_c, 3, 65, 93
5, 13176, Pitch_bend_c, 3, 8000
5, 13177, Pitch_bend_c, 3, 8096
5, 13182, Pitch_bend_c, 3, 8128
5, 13183, Pitch_bend_c, 3, 8096
5, 13193, Pitch_bend_c, 3, 8064
5, 13195, Pitch_bend_c, 3, 8000
5, 13196, Note_on_c, 3, 65, 0
5, 13196, Pitch_bend_c, 3, 8096
5, 13210, Pitch_bend_c, 3, 8192
5, 13211, Pitch_bend_c, 3, 8288
5, 13211, Note_on_c, 3, 61, 99
5, 13212, Pitch_bend_c, 3, 8096
5, 13216, Pitch_bend_c, 3, 8192
5, 13220, Pitch_bend_c, 3, 8160
5, 13222, Pitch_bend_c, 3, 8032
5, 13223, Pitch_bend_c, 3, 7808
5, 13224, Note_on_c, 3, 61, 0
5, 13224, Pitch_bend_c, 3, 8160
5, 13232, Note_on_c, 3, 63, 101
5, 13233, Pitch_bend_c, 3, 8192
5, 13235, Pitch_bend_c, 3, 8160
5, 13237, Pitch_bend_c, 3, 8128
5, 13238, Pitch_bend_c, 3, 8160
5, 13242, Pitch_bend_c, 3, 8128
5, 13245, Pitch_bend_c, 3, 8096
5, 13246, Pitch_bend_c, 3, 8064
5, 13249, Pitch_bend_c, 3, 8096
5, 13251, Note_on_c, 3, 63, 0
5, 13251, Pitch_bend_c, 3, 7872
5, 13253, Note_on_c, 3, 63, 94
5, 13253, Pitch_bend_c, 3, 8192
5, 13254, Pitch_bend_c, 3, 8064
5, 13261, Pitch_bend_c, 3, 8032
5, 13263, Pitch_bend_c, 3, 8000
5, 13266, Pitch_bend_c, 3, 7904
5, 13267, Pitch_bend_c, 3, 7840
5, 13268, Note_on_c, 3, 63, 0
5, 13268, Pitch_bend_c, 3, 8032
5, 13272, Pitch_bend_c, 3, 8192
5, 13273, Pitch_bend_c, 3, 8032
5, 13273, Note_on_c, 3, 61, 81
5, 13274, Pitch_bend_c, 3, 8064
5, 13281, Note_on_c, 3, 61, 0
5, 13290, Pitch_bend_c, 3, 8192
5, 13291, Note_on_c, 3, 65, 105
5, 13291, Pitch_bend_c, 3, 8576
5, 13302, Pitch_bend_c, 3, 8128
5, 13303, Pitch_bend_c, 3, 8096
5, 13306, Pitch_bend_c, 3, 8064
5, 13307, Pitch_bend_c, 3, 8096
5, 13314, Pitch_bend_c, 3, 8064
5, 13316, Note_on_c, 3, 65, 0
5, 13318, Pitch_bend_c, 3, 8192
5, 13319, Note_on_c, 3, 68, 100
5, 13320, Pitch_bend_c, 3, 8128
5, 13321, Pitch_bend_c, 3, 8160
5, 13324, Pitch_bend_c, 3, 8192
5, 13328, Pitch_bend_c, 3, 8160
5, 13330, Pitch_bend_c, 3, 8128
5, 13333, Pitch_bend_c, 3, 8096
5, 13338, Pitch_bend_c, 3, 8064
5, 13342, Pitch_bend_c, 3, 8032
5, 13344, Pitch_bend_c, 3, 8064
5, 13346, Pitch_bend_c, 3, 8192
5, 13347, Pitch_bend_c, 3, 8544
5, 13349, Pitch_bend_c, 3, 8992
5, 13350, Pitch_bend_c, 3, 9472
5, 13351, Pitch_bend_c, 3, 9856
5, 13353, Note_on_c, 3, 68, 0
5, 13353, Pitch_bend_c, 3, 10016
5, 13579, Pitch_bend_c, 3, 8192
5, 13580, Pitch_bend_c, 3, 8480
5, 13580, Note_on_c, 3, 69, 101
5, 13581, Pitch_bend_c, 3, 8672
5, 13582, Pitch_bend_c, 3, 8640
5, 13586, Pitch_bend_c, 3, 8576
5, 13589, Pitch_bend_c, 3, 8512
5, 13590, Pitch_bend_c, 3, 8448
5, 13592, Pitch_bend_c, 3, 12512
5, 13596, Pitch_bend_c, 3, 12480
5, 13597, Pitch_bend_c, 3, 12448
5, 13601, Pitch_bend_c, 3, 12480
5, 13603, Pitch_bend_c, 3, 12512
5, 13604, Pitch_bend_c, 3, 12544
5, 13605, Pitch_bend_c, 3, 12576
5, 13609, Pitch_bend_c, 3, 12544
5, 13612, Pitch_bend_c, 3, 12576
5, 13613, Pitch_bend_c, 3, 12640
5, 13615, Pitch_bend_c, 3, 12704
5, 13616, Pitch_bend_c, 3, 12768
5, 13618, Pitch_bend_c, 3, 12864
5, 13625, Pitch_bend_c, 3, 12800
5, 13626, Pitch_bend_c, 3, 12768
5, 13627, Pitch_bend_c, 3, 12704
5, 13629, Pitch_bend_c, 3, 12640
5, 13630, Pitch_bend_c, 3, 12576
5, 13631, Pitch_bend_c, 3, 12544
5, 13637, Pitch_bend_c, 3, 12576
5, 13640, Pitch_bend_c, 3, 12608
5, 13641, Pitch_bend_c, 3, 12640
5, 13643, Pitch_bend_c, 3, 12704
5, 13644, Pitch_bend_c, 3, 12768
5, 13645, Pitch_bend_c, 3, 12864
5, 13647, Pitch_bend_c, 3, 12896
5, 13651, Pitch_bend_c, 3, 12864
5, 13652, Pitch_bend_c, 3, 12768
5, 13654, Pitch_bend_c, 3, 12672
5, 13655, Pitch_bend_c, 3, 12576
5, 13656, Pitch_bend_c, 3, 12512
5, 13658, Pitch_bend_c, 3, 12448
5, 13659, Pitch_bend_c, 3, 12480
5, 13662, Pitch_bend_c, 3, 12512
5, 13663, Pitch_bend_c, 3, 12576
5, 13665, Pitch_bend_c, 3, 12640
5, 13666, Pitch_bend_c, 3, 12672
5, 13667, Pitch_bend_c, 3, 12704
5, 13669, Pitch_bend_c, 3, 12672
5, 13672, Pitch_bend_c, 3, 12640
5, 13677, Pitch_bend_c, 3, 12608
5, 13684, Pitch_bend_c, 3, 12576
5, 13688, Pitch_bend_c, 3, 12544
5, 13689, Pitch_bend_c, 3, 12512
5, 13690, Pitch_bend_c, 3, 12480
5, 13692, Pitch_bend_c, 3, 12448
5, 13695, Note_on_c, 3, 69, 0
5, 13695, Pitch_bend_c, 3, 12576
5, 13703, Note_on_c, 3, 69, 109
5, 13703, Pitch_bend_c, 3, 8640
5, 13704, Pitch_bend_c, 3, 8608
5, 13705, Pitch_bend_c, 3, 8544
5, 13707, Pitch_bend_c, 3, 8480
5, 13708, Pitch_bend_c, 3, 8448
5, 13709, Pitch_bend_c, 3, 8416
5, 13712, Pitch_bend_c, 3, 8448
5, 13713, Pitch_bend_c, 3, 8704
5, 13715, Pitch_bend_c, 3, 12448
5, 13725, Pitch_bend_c, 3, 12480
5, 13733, Note_on_c, 3, 69, 0
5, 13737, Pitch_bend_c, 3, 8192
5, 13737, Note_on_c, 3, 68, 94
5, 13738, Pitch_bend_c, 3, 7552
5, 13741, Pitch_bend_c, 3, 8256
5, 13742, Pitch_bend_c, 3, 8352
5, 13744, Pitch_bend_c, 3, 8416
5, 13745, Pitch_bend_c, 3, 8384
5, 13746, Pitch_bend_c, 3, 8256
5, 13748, Pitch_bend_c, 3, 8192
5, 13751, Pitch_bend_c, 3, 8224
5, 13752, Pitch_bend_c, 3, 8416
5, 13753, Note_on_c, 3, 68, 0
5, 13761, Pitch_bend_c, 3, 8192
5, 13764, Note_on_c, 3, 63, 104
5, 13765, Pitch_bend_c, 3, 8256
5, 13767, Pitch_bend_c, 3, 8320
5, 13768, Pitch_bend_c, 3, 8384
5, 13770, Pitch_bend_c, 3, 8416
5, 13775, Pitch_bend_c, 3, 8544
5, 13777, Pitch_bend_c, 3, 8800
5, 13778, Pitch_bend_c, 3, 9152
5, 13779, Pitch_bend_c, 3, 9760
5, 13784, Note_on_c, 3, 63, 0
5, 13789, Pitch_bend_c, 3, 8192
5, 13790, Pitch_bend_c, 3, 8480
5, 13790, Note_on_c, 3, 63, 84
5, 13791, Pitch_bend_c, 3, 8384
5, 13793, Pitch_bend_c, 3, 8256
5, 13794, Pitch_bend_c, 3, 8224
5, 13795, Pitch_bend_c, 3, 8192
5, 13797, Pitch_bend_c, 3, 8096
5, 13798, Pitch_bend_c, 3, 8064
5, 13800, Pitch_bend_c, 3, 8032
5, 13801, Pitch_bend_c, 3, 8000
5, 13803, Pitch_bend_c, 3, 7968
5, 13804, Pitch_bend_c, 3, 7904
5, 13805, Note_on_c, 3, 63, 0
5, 13805, Pitch_bend_c, 3, 8064
5, 13808, Note_on_c, 3, 61, 71
5, 13808, Pitch_bend_c, 3, 8192
5, 13809, Pitch_bend_c, 3, 8032
5, 13812, Pitch_bend_c, 3, 8064
5, 13815, Pitch_bend_c, 3, 8096
5, 13816, Pitch_bend_c, 3, 8128
5, 13819, Pitch_bend_c, 3, 8096
5, 13820, Pitch_bend_c, 3, 8064
5, 13822, Pitch_bend_c, 3, 8032
5, 13823, Pitch_bend_c, 3, 7968
5, 13825, Pitch_bend_c, 3, 8000
5, 13827, Pitch_bend_c, 3, 8064
5, 13828, Pitch_bend_c, 3, 8192
5, 13830, Pitch_bend_c, 3, 8288
5, 13831, Pitch_bend_c, 3, 8320
5, 13833, Pitch_bend_c, 3, 8288
5, 13834, Pitch_bend_c, 3, 8192
5, 13836, Pitch_bend_c, 3, 8096
5, 13837, Pitch_bend_c, 3, 8000
5, 13838, Pitch_bend_c, 3, 7968
5, 13842, Pitch_bend_c, 3, 8000
5, 13845, Pitch_bend_c, 3, 7968
5, 13852, Pitch_bend_c, 3, 8000
5, 13853, Pitch_bend_c, 3, 8032
5, 13855, Note_on_c, 3, 61, 0
5, 13862, Pitch_bend_c, 3, 8192
5, 13863, Note_on_c, 3, 57, 91
5, 13867, Pitch_bend_c, 3, 8160
5, 13869, Pitch_bend_c, 3, 8192
5, 13871, Pitch_bend_c, 3, 8224
5, 13873, Pitch_bend_c, 3, 8480
5, 13874, Pitch_bend_c, 3, 12096
5, 13880, Pitch_bend_c, 3, 12064
5, 13884, Pitch_bend_c, 3, 12096
5, 13885, Pitch_bend_c, 3, 12128
5, 13887, Pitch_bend_c, 3, 12160
5, 13888, Pitch_bend_c, 3, 12288
5, 13889, Note_on_c, 3, 57, 0
5, 13892, Note_on_c, 3, 58, 83
5, 13892, Pitch_bend_c, 3, 8192
5, 13893, Pitch_bend_c, 3, 8160
5, 13901, Pitch_bend_c, 3, 8128
5, 13908, Note_on_c, 3, 58, 0
5, 13908, Pitch_bend_c, 3, 8160
5, 13910, Pitch_bend_c, 3, 8192
5, 13911, Note_on_c, 3, 58, 76
5, 13922, Pitch_bend_c, 3, 8160
5, 13925, Pitch_bend_c, 3, 8032
5, 13926, Pitch_bend_c, 3, 7936
5, 13927, Note_on_c, 3, 58, 0
5, 13927, Pitch_bend_c, 3, 8192
5, 13928, Note_on_c, 3, 58, 97
5, 13940, Pitch_bend_c, 3, 8224
5, 13941, Note_on_c, 3, 58, 0
5, 13948, Pitch_bend_c, 3, 8192
5, 13949, Note_on_c, 3, 57, 94
5, 13949, Pitch_bend_c, 3, 8448
5, 13950, Pitch_bend_c, 3, 8416
5, 13951, Pitch_bend_c, 3, 8352
5, 13953, Pitch_bend_c, 3, 8288
5, 13954, Pitch_bend_c, 3, 8192
5, 13955, Pitch_bend_c, 3, 8160
5, 13958, Pitch_bend_c, 3, 8192
5, 13960, Pitch_bend_c, 3, 12192
5, 13962, Pitch_bend_c, 3, 12160
5, 13965, Pitch_bend_c, 3, 12128
5, 13967, Pitch_bend_c, 3, 12096
5, 13974, Pitch_bend_c, 3, 12128
5, 13976, Note_on_c, 3, 57, 0
5, 13976, Note_on_c, 3, 61, 100
5, 13976, Pitch_bend_c, 3, 8160
5, 13982, Pitch_bend_c, 3, 8128
5, 13986, Pitch_bend_c, 3, 8160
5, 13987, Note_on_c, 3, 61, 0
5, 13987, Pitch_bend_c, 3, 8224
5, 13990, Pitch_bend_c, 3, 8192
5, 13991, Pitch_bend_c, 3, 8160
5, 13991, Note_on_c, 3, 58, 79
5, 13992, Pitch_bend_c, 3, 8128
5, 13995, Pitch_bend_c, 3, 8192
5, 13996, Pitch_bend_c, 3, 8288
5, 13998, Pitch_bend_c, 3, 8512
5, 13999, Pitch_bend_c, 3, 8736
5, 14000, Pitch_bend_c, 3, 256
5, 14005, Pitch_bend_c, 3, 224
5, 14012, Pitch_bend_c, 3, 256
5, 14013, Note_on_c, 3, 58, 0
5, 14013, Pitch_bend_c, 3, 8192
5, 14013, Note_on_c, 3, 53, 68
5, 14019, Pitch_bend_c, 3, 8000
5, 14020, Pitch_bend_c, 3, 8096
5, 14023, Pitch_bend_c, 3, 8160
5, 14026, Pitch_bend_c, 3, 8096
5, 14027, Pitch_bend_c, 3, 8064
5, 14029, Pitch_bend_c, 3, 8000
5, 14030, Pitch_bend_c, 3, 7936
5, 14031, Pitch_bend_c, 3, 7904
5, 14033, Pitch_bend_c, 3, 7872
5, 14037, Pitch_bend_c, 3, 7904
5, 14043, Pitch_bend_c, 3, 7936
5, 14048, Pitch_bend_c, 3, 7904
5, 14050, Pitch_bend_c, 3, 7872
5, 14055, Pitch_bend_c, 3, 7904
5, 14058, Pitch_bend_c, 3, 7936
5, 14059, Pitch_bend_c, 3, 7872
5, 14060, Pitch_bend_c, 3, 7904
5, 14064, Pitch_bend_c, 3, 8000
5, 14067, Pitch_bend_c, 3, 7968
5, 14070, Pitch_bend_c, 3, 7936
5, 14071, Pitch_bend_c, 3, 7904
5, 14072, Pitch_bend_c, 3, 7872
5, 14074, Note_on_c, 3, 53, 0
5, 19260, Note_on_c, 3, 56, 92
5, 19260, Pitch_bend_c, 3, 8192
5, 19261, Pitch_bend_c, 3, 8224
5, 19273, Pitch_bend_c, 3, 8160
5, 19274, Pitch_bend_c, 3, 7936
5, 19275, Pitch_bend_c, 3, 7680
5, 19276, Note_on_c, 3, 56, 0
5, 19276, Pitch_bend_c, 3, 8192
5, 19287, Pitch_bend_c, 3, 8224
5, 19287, Note_on_c, 3, 58, 91
5, 19293, Pitch_bend_c, 3, 8192
5, 19300, Pitch_bend_c, 3, 8160
5, 19301, Pitch_bend_c, 3, 8128
5, 19302, Pitch_bend_c, 3, 8096
5, 19304, Pitch_bend_c, 3, 8128
5, 19305, Note_on_c, 3, 58, 0
5, 19305, Pitch_bend_c, 3, 8192
5, 19307, Pitch_bend_c, 3, 8224
5, 19307, Note_on_c, 3, 58, 90
5, 19320, Pitch_bend_c, 3, 8192
5, 19323, Note_on_c, 3, 58, 0
5, 19323, Pitch_bend_c, 3, 8224
5, 19325, Pitch_bend_c, 3, 8064
5, 19325, Note_on_c, 3, 56, 68
5, 19327, Pitch_bend_c, 3, 8160
5, 19336, Pitch_bend_c, 3, 8096
5, 19337, Pitch_bend_c, 3, 7936
5, 19338, Note_on_c, 3, 56, 0
5, 19338, Pitch_bend_c, 3, 8160
5, 19345, Pitch_bend_c, 3, 8192
5, 19346, Note_on_c, 3, 58, 84
5, 19354, Pitch_bend_c, 3, 8160
5, 19355, Pitch_bend_c, 3, 8192
5, 19358, Pitch_bend_c, 3, 8160
5, 19361, Pitch_bend_c, 3, 7840
5, 19362, Note_on_c, 3, 58, 0
5, 19362, Pitch_bend_c, 3, 8160
5, 19365, Pitch_bend_c, 3, 8192
5, 19366, Note_on_c, 3, 56, 80
5, 19369, Pitch_bend_c, 3, 8160
5, 19372, Pitch_bend_c, 3, 8064
5, 19373, Note_on_c, 3, 56, 0
5, 19373, Pitch_bend_c, 3, 8192
5, 19386, Pitch_bend_c, 3, 8608
5, 19386, Note_on_c, 3, 61, 100
5, 19389, Pitch_bend_c, 3, 8576
5, 19391, Pitch_bend_c, 3, 8544
5, 19397, Pitch_bend_c, 3, 8512
5, 19401, Pitch_bend_c, 3, 8416
5, 19402, Note_on_c, 3, 61, 0
5, 19402, Pitch_bend_c, 3, 8544
5, 19403, Pitch_bend_c, 3, 8192
5, 19404, Note_on_c, 3, 58, 79
5, 19416, Note_on_c, 3, 58, 0
5, 19420, Note_on_c, 3, 58, 76
5, 19431, Pitch_bend_c, 3, 8096
5, 19436, Pitch_bend_c, 3, 7776
5, 19438, Note_on_c, 3, 58, 0
5, 19438, Pitch_bend_c, 3, 7456
5, 19629, Pitch_bend_c, 3, 8192
5, 19630, Note_on_c, 3, 58, 101
5, 19631, Pitch_bend_c, 3, 8096
5, 19632, Pitch_bend_c, 3, 8032
5, 19633, Pitch_bend_c, 3, 7968
5, 19634, Pitch_bend_c, 3, 7872
5, 19635, Pitch_bend_c, 3, 7936
5, 19637, Pitch_bend_c, 3, 8000
5, 19638, Pitch_bend_c, 3, 8064
5, 19640, Pitch_bend_c, 3, 8128
5, 19641, Pitch_bend_c, 3, 7904
5, 19642, Pitch_bend_c, 3, 7936
5, 19643, Note_on_c, 3, 58, 0
5, 19644, Pitch_bend_c, 3, 8192
5, 19644, Note_on_c, 3, 58, 87
5, 19645, Pitch_bend_c, 3, 8128
5, 19648, Pitch_bend_c, 3, 8160
5, 19651, Pitch_bend_c, 3, 8128
5, 19658, Pitch_bend_c, 3, 7840
5, 19659, Note_on_c, 3, 58, 0
5, 19659, Pitch_bend_c, 3, 8128
5, 19665, Pitch_bend_c, 3, 8192
5, 19665, Note_on_c, 3, 56, 88
5, 19666, Pitch_bend_c, 3, 8224
5, 19671, Note_on_c, 3, 56, 0
5, 19682, Pitch_bend_c, 3, 8192
5, 19683, Note_on_c, 3, 58, 92
5, 19684, Pitch_bend_c, 3, 8128
5, 19687, Pitch_bend_c, 3, 8160
5, 19690, Pitch_bend_c, 3, 8128
5, 19697, Pitch_bend_c, 3, 8160
5, 19698, Note_on_c, 3, 58, 0
5, 19700, Pitch_bend_c, 3, 8192
5, 19701, Note_on_c, 3, 58, 81
5, 19709, Pitch_bend_c, 3, 8256
5, 19710, Pitch_bend_c, 3, 8288
5, 19712, Note_on_c, 3, 58, 0
5, 19718, Pitch_bend_c, 3, 8096
5, 19718, Note_on_c, 3, 56, 93
5, 19721, Pitch_bend_c, 3, 8128
5, 19722, Pitch_bend_c, 3, 8064
5, 19723, Pitch_bend_c, 3, 7968
5, 19724, Note_on_c, 3, 56, 0
5, 19724, Pitch_bend_c, 3, 8160
5, 19736, Pitch_bend_c, 3, 8192
5, 19737, Note_on_c, 3, 58, 85
5, 19743, Pitch_bend_c, 3, 8160
5, 19747, Pitch_bend_c, 3, 8128
5, 19749, Pitch_bend_c, 3, 7808
5, 19751, Pitch_bend_c, 3, 7520
5, 19752, Note_on_c, 3, 58, 0
5, 19752, Pitch_bend_c, 3, 8192
5, 19753, Pitch_bend_c, 3, 8000
5, 19753, Note_on_c, 3, 56, 87
5, 19756, Pitch_bend_c, 3, 8032
5, 19758, Pitch_bend_c, 3, 7904
5, 19759, Pitch_bend_c, 3, 7744
5, 19760, Note_on_c, 3, 56, 0
5, 19760, Pitch_bend_c, 3, 8064
5, 19770, Pitch_bend_c, 3, 8192
5, 19771, Note_on_c, 3, 57, 94
5, 19772, Pitch_bend_c, 3, 11488
5, 19773, Pitch_bend_c, 3, 12000
5, 19774, Pitch_bend_c, 3, 12032
5, 19776, Pitch_bend_c, 3, 12064
5, 19777, Pitch_bend_c, 3, 12128
5, 19779, Pitch_bend_c, 3, 12224
5, 19785, Note_on_c, 3, 57, 0
5, 19788, Pitch_bend_c, 3, 8192
5, 19789, Pitch_bend_c, 3, 8128
5, 19789, Note_on_c, 3, 56, 81
5, 19793, Pitch_bend_c, 3, 8096
5, 19794, Pitch_bend_c, 3, 7936
5, 19796, Pitch_bend_c, 3, 7808
5, 19797, Note_on_c, 3, 56, 0
5, 19804, Pitch_bend_c, 3, 8192
5, 19805, Pitch_bend_c, 3, 9440
5, 19805, Note_on_c, 3, 61, 105
5, 19806, Pitch_bend_c, 3, 8352
5, 19808, Pitch_bend_c, 3, 8384
5, 19809, Pitch_bend_c, 3, 8416
5, 19811, Pitch_bend_c, 3, 8384
5, 19812, Pitch_bend_c, 3, 8416
5, 19813, Pitch_bend_c, 3, 8224
5, 19816, Pitch_bend_c, 3, 8256
5, 19819, Pitch_bend_c, 3, 8352
5, 19820, Pitch_bend_c, 3, 8128
5, 19822, Note_on_c, 3, 61, 0
5, 19822, Pitch_bend_c, 3, 7968
5, 19999, Note_on_c, 3, 56, 103
5, 19999, Pitch_bend_c, 3, 8224
5, 20000, Pitch_bend_c, 3, 8192
5, 20001, Pitch_bend_c, 3, 8224
5, 20002, Pitch_bend_c, 3, 8192
5, 20008, Pitch_bend_c, 3, 8160
5, 20009, Pitch_bend_c, 3, 8064
5, 20011, Note_on_c, 3, 56, 0
5, 20011, Pitch_bend_c, 3, 8192
5, 20026, Note_on_c, 3, 58, 102
5, 20028, Pitch_bend_c, 3, 8032
5, 20031, Pitch_bend_c, 3, 8064
5, 20032, Pitch_bend_c, 3, 8160
5, 20033, Pitch_bend_c, 3, 8192
5, 20035, Pitch_bend_c, 3, 8288
5, 20037, Pitch_bend_c, 3, 8320
5, 20038, Pitch_bend_c, 3, 8352
5, 20039, Pitch_bend_c, 3, 8480
5, 20041, Note_on_c, 3, 58, 0
5, 20048, Pitch_bend_c, 3, 8192
5, 20049, Pitch_bend_c, 3, 8448
5, 20049, Note_on_c, 3, 61, 105
5, 20050, Pitch_bend_c, 3, 8064
5, 20052, Pitch_bend_c, 3, 7936
5, 20053, Pitch_bend_c, 3, 8128
5, 20055, Pitch_bend_c, 3, 8288
5, 20056, Pitch_bend_c, 3, 8512
5, 20057, Pitch_bend_c, 3, 8480
5, 20059, Pitch_bend_c, 3, 8512
5, 20060, Pitch_bend_c, 3, 8416
5, 20061, Pitch_bend_c, 3, 8352
5, 20062, Note_on_c, 3, 61, 0
5, 20062, Pitch_bend_c, 3, 8512
5, 20068, Pitch_bend_c, 3, 8192
5, 20069, Note_on_c, 3, 63, 101
5, 20069, Pitch_bend_c, 3, 8480
5, 20075, Pitch_bend_c, 3, 8416
5, 20080, Pitch_bend_c, 3, 8352
5, 20082, Pitch_bend_c, 3, 8256
5, 20083, Pitch_bend_c, 3, 8096
5, 20084, Note_on_c, 3, 63, 0
5, 20084, Pitch_bend_c, 3, 8416
5, 20092, Pitch_bend_c, 3, 8192
5, 20093, Note_on_c, 3, 61, 105
5, 20093, Pitch_bend_c, 3, 8512
5, 20096, Pitch_bend_c, 3, 8576
5, 20100, Pitch_bend_c, 3, 8544
5, 20102, Pitch_bend_c, 3, 8512
5, 20104, Pitch_bend_c, 3, 8480
5, 20105, Pitch_bend_c, 3, 8416
5, 20106, Note_on_c, 3, 61, 0
5, 20106, Pitch_bend_c, 3, 8576
5, 20120, Note_on_c, 3, 63, 105
5, 20120, Pitch_bend_c, 3, 8192
5, 20121, Pitch_bend_c, 3, 8576
5, 20127, Pitch_bend_c, 3, 8640
5, 20128, Pitch_bend_c, 3, 8608
5, 20130, Pitch_bend_c, 3, 8576
5, 20131, Pitch_bend_c, 3, 8480
5, 20133, Pitch_bend_c, 3, 8352
5, 20134, Pitch_bend_c, 3, 8128
5, 20135, Pitch_bend_c, 3, 8576
5, 20136, Note_on_c, 3, 63, 0
5, 20137, Pitch_bend_c, 3, 8192
5, 20138, Note_on_c, 3, 61, 88
5, 20139, Pitch_bend_c, 3, 8352
5, 20144, Pitch_bend_c, 3, 8704
5, 20145, Pitch_bend_c, 3, 8672
5, 20146, Pitch_bend_c, 3, 8640
5, 20147, Note_on_c, 3, 61, 0
5, 20155, Pitch_bend_c, 3, 8192
5, 20156, Note_on_c, 3, 63, 99
5, 20157, Pitch_bend_c, 3, 8416
5, 20165, Pitch_bend_c, 3, 8256
5, 20167, Pitch_bend_c, 3, 8032
5, 20168, Note_on_c, 3, 63, 0
5, 20168, Pitch_bend_c, 3, 8416
5, 20170, Pitch_bend_c, 3, 8640
5, 20170, Note_on_c, 3, 61, 104
5, 20171, Pitch_bend_c, 3, 8416
5, 20172, Pitch_bend_c, 3, 8512
5, 20176, Pitch_bend_c, 3, 8480
5, 20184, Note_on_c, 3, 61, 0
5, 20186, Pitch_bend_c, 3, 8192
5, 20187, Note_on_c, 3, 58, 84
5, 20187, Pitch_bend_c, 3, 8160
5, 20194, Pitch_bend_c, 3, 8192
5, 20198, Pitch_bend_c, 3, 8160
5, 20200, Note_on_c, 3, 58, 0
5, 20203, Note_on_c, 3, 58, 82
5, 20203, Pitch_bend_c, 3, 8096
5, 20209, Pitch_bend_c, 3, 8128
5, 20218, Pitch_bend_c, 3, 7904
5, 20219, Pitch_bend_c, 3, 7680
5, 20220, Note_on_c, 3, 58, 0
5, 20220, Pitch_bend_c, 3, 8096
5, 20226, Note_on_c, 3, 58, 82
5, 20243, Note_on_c, 3, 58, 0
5, 20252, Pitch_bend_c, 3, 8192
5, 20253, Note_on_c, 3, 61, 93
5, 20253, Pitch_bend_c, 3, 9120
5, 20254, Pitch_bend_c, 3, 8544
5, 20256, Pitch_bend_c, 3, 8512
5, 20258, Pitch_bend_c, 3, 8544
5, 20260, Pitch_bend_c, 3, 8608
5, 20263, Pitch_bend_c, 3, 8576
5, 20265, Pitch_bend_c, 3, 8544
5, 20266, Pitch_bend_c, 3, 8512
5, 20267, Pitch_bend_c, 3, 8448
5, 20270, Pitch_bend_c, 3, 8608
5, 20271, Pitch_bend_c, 3, 9024
5, 20273, Pitch_bend_c, 3, 9536
5, 20274, Pitch_bend_c, 3, 9984
5, 20275, Pitch_bend_c, 3, 10208
5, 20277, Pitch_bend_c, 3, 10176
5, 20278, Note_on_c, 3, 61, 0
5, 20396, Note_on_c, 3, 67, 97
5, 20396, Pitch_bend_c, 3, 8192
5, 20397, Pitch_bend_c, 3, 8288
5, 20398, Pitch_bend_c, 3, 8160
5, 20400, Pitch_bend_c, 3, 8096
5, 20401, Pitch_bend_c, 3, 8032
5, 20402, Pitch_bend_c, 3, 11840
5, 20405, Pitch_bend_c, 3, 11808
5, 20406, Pitch_bend_c, 3, 11840
5, 20409, Pitch_bend_c, 3, 11872
5, 20410, Pitch_bend_c, 3, 11904
5, 20415, Pitch_bend_c, 3, 11936
5, 20416, Pitch_bend_c, 3, 11904
5, 20422, Note_on_c, 3, 67, 0
5, 20439, Pitch_bend_c, 3, 8192
5, 20440, Note_on_c, 3, 68, 97
5, 20440, Pitch_bend_c, 3, 8224
5, 20441, Pitch_bend_c, 3, 8256
5, 20445, Pitch_bend_c, 3, 8224
5, 20448, Pitch_bend_c, 3, 8192
5, 20453, Pitch_bend_c, 3, 8160
5, 20455, Pitch_bend_c, 3, 8192
5, 20458, Pitch_bend_c, 3, 8160
5, 20459, Note_on_c, 3, 68, 0
5, 20459, Pitch_bend_c, 3, 8192
5, 20463, Note_on_c, 3, 68, 97
5, 20464, Pitch_bend_c, 3, 8224
5, 20478, Note_on_c, 3, 68, 0
5, 20486, Note_on_c, 3, 65, 103
5, 20492, Pitch_bend_c, 3, 8192
5, 20495, Pitch_bend_c, 3, 8160
5, 20496, Pitch_bend_c, 3, 8000
5, 20498, Pitch_bend_c, 3, 7904
5, 20499, Note_on_c, 3, 65, 0
5, 20499, Pitch_bend_c, 3, 8192
5, 20510, Note_on_c, 3, 68, 95
5, 20511, Pitch_bend_c, 3, 8128
5, 20512, Pitch_bend_c, 3, 8192
5, 20522, Pitch_bend_c, 3, 8160
5, 20524, Pitch_bend_c, 3, 8128
5, 20525, Note_on_c, 3, 68, 0
5, 20525, Pitch_bend_c, 3, 8192
5, 20528, Note_on_c, 3, 65, 103
5, 20529, Pitch_bend_c, 3, 8128
5, 20533, Pitch_bend_c, 3, 8192
5, 20534, Pitch_bend_c, 3, 8160
5, 20537, Pitch_bend_c, 3, 8128
5, 20538, Pitch_bend_c, 3, 8000
5, 20540, Note_on_c, 3, 65, 0
5, 20540, Pitch_bend_c, 3, 7904
5, 20553, Pitch_bend_c, 3, 8096
5, 20553, Note_on_c, 3, 68, 94
5, 20554, Pitch_bend_c, 3, 8160
5, 20562, Pitch_bend_c, 3, 8096
5, 20563, Pitch_bend_c, 3, 8032
5, 20564, Pitch_bend_c, 3, 11840
5, 20566, Pitch_bend_c, 3, 11872
5, 20567, Pitch_bend_c, 3, 15872
5, 20568, Pitch_bend_c, 3, 15904
5, 20570, Pitch_bend_c, 3, 15936
5, 20571, Pitch_bend_c, 3, 16000
5, 20572, Pitch_bend_c, 3, 16064
5, 20574, Pitch_bend_c, 3, 16096
5, 20577, Pitch_bend_c, 3, 16128
5, 20578, Pitch_bend_c, 3, 16096
5, 20579, Pitch_bend_c, 3, 16064
5, 20582, Pitch_bend_c, 3, 16032
5, 20585, Pitch_bend_c, 3, 16064
5, 20589, Pitch_bend_c, 3, 16128
5, 20591, Pitch_bend_c, 3, 16160
5, 20592, Note_on_c, 3, 68, 0
5, 20609, Pitch_bend_c, 3, 8192
5, 20610, Note_on_c, 3, 68, 97
5, 20610, Pitch_bend_c, 3, 7232
5, 20611, Pitch_bend_c, 3, 8864
5, 20613, Pitch_bend_c, 3, 8832
5, 20614, Pitch_bend_c, 3, 8768
5, 20616, Pitch_bend_c, 3, 8544
5, 20617, Pitch_bend_c, 3, 8160
5, 20618, Pitch_bend_c, 3, 8064
5, 20620, Pitch_bend_c, 3, 7936
5, 20623, Pitch_bend_c, 3, 8096
5, 20624, Pitch_bend_c, 3, 7936
5, 20625, Pitch_bend_c, 3, 8064
5, 20626, Note_on_c, 3, 68, 0
5, 20628, Pitch_bend_c, 3, 8192
5, 20629, Pitch_bend_c, 3, 8160
5, 20629, Note_on_c, 3, 65, 101
5, 20632, Pitch_bend_c, 3, 7968
5, 20633, Pitch_bend_c, 3, 8032
5, 20635, Pitch_bend_c, 3, 8096
5, 20636, Pitch_bend_c, 3, 8128
5, 20638, Pitch_bend_c, 3, 8064
5, 20639, Note_on_c, 3, 65, 0
5, 20639, Pitch_bend_c, 3, 8032
5, 20654, Pitch_bend_c, 3, 8192
5, 20655, Note_on_c, 3, 67, 97
5, 20655, Pitch_bend_c, 3, 8224
5, 20656, Pitch_bend_c, 3, 7968
5, 20659, Pitch_bend_c, 3, 11904
5, 20663, Pitch_bend_c, 3, 11872
5, 20664, Pitch_bend_c, 3, 11840
5, 20666, Pitch_bend_c, 3, 11872
5, 20668, Pitch_bend_c, 3, 11904
5, 20669, Pitch_bend_c, 3, 11936
5, 20676, Pitch_bend_c, 3, 11968
5, 20679, Pitch_bend_c, 3, 12000
5, 20684, Pitch_bend_c, 3, 12160
5, 20686, Pitch_bend_c, 3, 12384
5, 20687, Pitch_bend_c, 3, 12640
5, 20688, Note_on_c, 3, 67, 0
5, 20688, Pitch_bend_c, 3, 8192
5, 20689, Note_on_c, 3, 65, 75
5, 20696, Note_on_c, 3, 65, 0
5, 20699, Note_on_c, 3, 63, 88
5, 20699, Pitch_bend_c, 3, 8640
5, 20700, Pitch_bend_c, 3, 8608
5, 20703, Pitch_bend_c, 3, 8640
5, 20709, Pitch_bend_c, 3, 544
5, 20710, Pitch_bend_c, 3, 480
5, 20711, Pitch_bend_c, 3, 384
5, 20713, Pitch_bend_c, 3, 320
5, 20714, Pitch_bend_c, 3, 224
5, 20716, Note_on_c, 3, 63, 0
5, 20716, Pitch_bend_c, 3, 480
5, 20719, Pitch_bend_c, 3, 8192
5, 20720, Note_on_c, 3, 58, 58
5, 20721, Pitch_bend_c, 3, 8128
5, 20729, Pitch_bend_c, 3, 8096
5, 20732, Pitch_bend_c, 3, 8064
5, 20738, Pitch_bend_c, 3, 8032
5, 20751, Pitch_bend_c, 3, 8000
5, 20754, Pitch_bend_c, 3, 7968
5, 20758, Pitch_bend_c, 3, 7840
5, 20759, Pitch_bend_c, 3, 7744
5, 20760, Note_on_c, 3, 58, 0
5, 20760, Pitch_bend_c, 3, 8000
5, 20765, Note_on_c, 3, 56, 107
5, 20765, Pitch_bend_c, 3, 8192
5, 20766, Pitch_bend_c, 3, 8288
5, 20767, Pitch_bend_c, 3, 8320
5, 20768, Pitch_bend_c, 3, 8448
5, 20769, Pitch_bend_c, 3, 8416
5, 20771, Pitch_bend_c, 3, 8224
5, 20772, Pitch_bend_c, 3, 8192
5, 20776, Pitch_bend_c, 3, 8320
5, 20777, Pitch_bend_c, 3, 8288
5, 20779, Pitch_bend_c, 3, 8224
5, 20780, Pitch_bend_c, 3, 8032
5, 20781, Pitch_bend_c, 3, 7936
5, 20783, Note_on_c, 3, 56, 0
5, 20783, Pitch_bend_c, 3, 8320
5, 20786, Note_on_c, 3, 58, 79
5, 20786, Pitch_bend_c, 3, 8064
5, 20788, Pitch_bend_c, 3, 8096
5, 20794, Pitch_bend_c, 3, 8032
5, 20796, Pitch_bend_c, 3, 7840
5, 20797, Pitch_bend_c, 3, 7584
5, 20799, Pitch_bend_c, 3, 7264
5, 20800, Note_on_c, 3, 58, 0
5, 20800, Pitch_bend_c, 3, 8096
5, 20810, Pitch_bend_c, 3, 8192
5, 20813, Pitch_bend_c, 3, 8320
5, 20813, Note_on_c, 3, 63, 90
5, 20814, Pitch_bend_c, 3, 8416
5, 20816, Pitch_bend_c, 3, 8448
5, 20817, Pitch_bend_c, 3, 8480
5, 20819, Pitch_bend_c, 3, 8544
5, 20820, Pitch_bend_c, 3, 8576
5, 20823, Pitch_bend_c, 3, 8480
5, 20824, Pitch_bend_c, 3, 8416
5, 20826, Pitch_bend_c, 3, 8352
5, 20827, Pitch_bend_c, 3, 8320
5, 20828, Pitch_bend_c, 3, 8288
5, 20830, Note_on_c, 3, 63, 0
5, 20830, Pitch_bend_c, 3, 8480
5, 20837, Pitch_bend_c, 3, 8192
5, 20838, Note_on_c, 3, 63, 93
5, 20838, Pitch_bend_c, 3, 8512
5, 20844, Pitch_bend_c, 3, 8480
5, 20847, Pitch_bend_c, 3, 8416
5, 20848, Pitch_bend_c, 3, 8384
5, 20850, Pitch_bend_c, 3, 8320
5, 20851, Note_on_c, 3, 63, 0
5, 20851, Pitch_bend_c, 3, 8480
5, 20856, Note_on_c, 3, 63, 87
5, 20863, Pitch_bend_c, 3, 8448
5, 20864, Pitch_bend_c, 3, 8416
5, 20866, Pitch_bend_c, 3, 8352
5, 20867, Pitch_bend_c, 3, 8288
5, 20869, Note_on_c, 3, 63, 0
5, 20869, Pitch_bend_c, 3, 8480
5, 20878, Pitch_bend_c, 3, 8192
5, 20878, Note_on_c, 3, 61, 87
5, 20879, Pitch_bend_c, 3, 8416
5, 20880, Pitch_bend_c, 3, 8480
5, 20884, Pitch_bend_c, 3, 8448
5, 20885, Pitch_bend_c, 3, 8416
5, 20887, Pitch_bend_c, 3, 8384
5, 20888, Pitch_bend_c, 3, 8320
5, 20890, Pitch_bend_c, 3, 8288
5, 20891, Pitch_bend_c, 3, 8352
5, 20892, Pitch_bend_c, 3, 8416
5, 20894, Pitch_bend_c, 3, 8448
5, 20895, Note_on_c, 3, 61, 0
5, 20906, Pitch_bend_c, 3, 8192
5, 20907, Note_on_c, 3, 60, 81
5, 20907, Pitch_bend_c, 3, 8480
5, 20908, Pitch_bend_c, 3, 8320
5, 20910, Pitch_bend_c, 3, 8128
5, 20912, Pitch_bend_c, 3, 8192
5, 20913, Pitch_bend_c, 3, 8224
5, 20915, Pitch_bend_c, 3, 8352
5, 20916, Pitch_bend_c, 3, 8384
5, 20919, Pitch_bend_c, 3, 8352
5, 20920, Pitch_bend_c, 3, 8320
5, 20921, Pitch_bend_c, 3, 8256
5, 20923, Note_on_c, 3, 60, 0
5, 20923, Pitch_bend_c, 3, 8384
5, 20927, Pitch_bend_c, 3, 8192
5, 20927, Note_on_c, 3, 61, 81
5, 20928, Pitch_bend_c, 3, 8288
5, 20929, Pitch_bend_c, 3, 8352
5, 20931, Pitch_bend_c, 3, 8448
5, 20933, Pitch_bend_c, 3, 8512
5, 20935, Pitch_bend_c, 3, 8544
5, 20937, Pitch_bend_c, 3, 8512
5, 20939, Pitch_bend_c, 3, 8480
5, 20940, Pitch_bend_c, 3, 8416
5, 20941, Pitch_bend_c, 3, 8352
5, 20943, Pitch_bend_c, 3, 8288
5, 20944, Pitch_bend_c, 3, 8256
5, 20947, Pitch_bend_c, 3, 8416
5, 20956, Note_on_c, 3, 61, 0
5, 21249, Pitch_bend_c, 3, 8192
5, 21250, Note_on_c, 3, 67, 101
5, 21250, Pitch_bend_c, 3, 8448
5, 21251, Pitch_bend_c, 3, 8128
5, 21252, Pitch_bend_c, 3, 8032
5, 21254, Pitch_bend_c, 3, 11808
5, 21260, Pitch_bend_c, 3, 11840
5, 21263, Pitch_bend_c, 3, 11904
5, 21264, Pitch_bend_c, 3, 11968
5, 21265, Pitch_bend_c, 3, 12000
5, 21267, Pitch_bend_c, 3, 12032
5, 21268, Pitch_bend_c, 3, 12064
5, 21269, Pitch_bend_c, 3, 12032
5, 21275, Pitch_bend_c, 3, 12064
5, 21277, Pitch_bend_c, 3, 12096
5, 21280, Note_on_c, 3, 67, 0
5, 21282, Note_on_c, 3, 68, 99
5, 21282, Pitch_bend_c, 3, 8192
5, 21283, Pitch_bend_c, 3, 8160
5, 21288, Pitch_bend_c, 3, 8128
5, 21291, Pitch_bend_c, 3, 8096
5, 21295, Pitch_bend_c, 3, 8064
5, 21298, Note_on_c, 3, 68, 0
5, 21298, Pitch_bend_c, 3, 8192
5, 21301, Pitch_bend_c, 3, 8864
5, 21301, Note_on_c, 3, 65, 103
5, 21302, Pitch_bend_c, 3, 8192
5, 21309, Pitch_bend_c, 3, 8160
5, 21310, Pitch_bend_c, 3, 8128
5, 21312, Pitch_bend_c, 3, 7904
5, 21313, Note_on_c, 3, 65, 0
5, 21313, Pitch_bend_c, 3, 8192
5, 21322, Pitch_bend_c, 3, 8256
5, 21322, Note_on_c, 3, 68, 94
5, 21326, Pitch_bend_c, 3, 8224
5, 21328, Pitch_bend_c, 3, 8192
5, 21336, Note_on_c, 3, 68, 0
5, 21336, Pitch_bend_c, 3, 8224
5, 21339, Pitch_bend_c, 3, 8192
5, 21340, Note_on_c, 3, 65, 101
5, 21341, Pitch_bend_c, 3, 8256
5, 21342, Pitch_bend_c, 3, 8288
5, 21346, Pitch_bend_c, 3, 8256
5, 21348, Pitch_bend_c, 3, 8192
5, 21352, Pitch_bend_c, 3, 8160
5, 21353, Pitch_bend_c, 3, 8192
5, 21354, Note_on_c, 3, 65, 0
5, 21354, Pitch_bend_c, 3, 8256
5, 21366, Pitch_bend_c, 3, 8192
5, 21366, Note_on_c, 3, 63, 103
5, 21367, Pitch_bend_c, 3, 8928
5, 21370, Pitch_bend_c, 3, 8768
5, 21372, Pitch_bend_c, 3, 8800
5, 21376, Pitch_bend_c, 3, 8992
5, 21377, Pitch_bend_c, 3, 9280
5, 21378, Pitch_bend_c, 3, 9664
5, 21380, Pitch_bend_c, 3, 9920
5, 21382, Pitch_bend_c, 3, 10080
5, 21384, Pitch_bend_c, 3, 9984
5, 21386, Pitch_bend_c, 3, 9728
5, 21387, Pitch_bend_c, 3, 9280
5, 21389, Pitch_bend_c, 3, 8896
5, 21390, Pitch_bend_c, 3, 8640
5, 21392, Pitch_bend_c, 3, 8800
5, 21395, Pitch_bend_c, 3, 8512
5, 21396, Pitch_bend_c, 3, 8896
5, 21397, Note_on_c, 3, 63, 0
5, 21398, Pitch_bend_c, 3, 8192
5, 21399, Pitch_bend_c, 3, 9216
5, 21399, Note_on_c, 3, 61, 100
5, 21400, Pitch_bend_c, 3, 8768
5, 21403, Pitch_bend_c, 3, 8800
5, 21407, Note_on_c, 3, 61, 0
5, 21408, Pitch_bend_c, 3, 8192
5, 21409, Note_on_c, 3, 58, 88
5, 21409, Pitch_bend_c, 3, 8032
5, 21410, Pitch_bend_c, 3, 8096
5, 21413, Pitch_bend_c, 3, 8128
5, 21420, Pitch_bend_c, 3, 8096
5, 21426, Pitch_bend_c, 3, 8128
5, 21430, Pitch_bend_c, 3, 8096
5, 21433, Pitch_bend_c, 3, 8064
5, 21437, Pitch_bend_c, 3, 8096
5, 21438, Pitch_bend_c, 3, 8064
5, 21440, Pitch_bend_c, 3, 8032
5, 21441, Pitch_bend_c, 3, 7968
5, 21442, Note_on_c, 3, 58, 0
5, 21442, Pitch_bend_c, 3, 8096
5, 21443, Pitch_bend_c, 3, 8352
5, 21443, Note_on_c, 3, 57, 99
5, 21444, Pitch_bend_c, 3, 8320
5, 21446, Pitch_bend_c, 3, 8256
5, 21448, Pitch_bend_c, 3, 8192
5, 21449, Pitch_bend_c, 3, 8160
5, 21451, Pitch_bend_c, 3, 12064
5, 21457, Pitch_bend_c, 3, 12096
5, 21459, Pitch_bend_c, 3, 12128
5, 21460, Pitch_bend_c, 3, 12160
5, 21461, Note_on_c, 3, 57, 0
5, 21463, Note_on_c, 3, 58, 99
5, 21463, Pitch_bend_c, 3, 8192
5, 21464, Pitch_bend_c, 3, 8064
5, 21465, Pitch_bend_c, 3, 8096
5, 21467, Pitch_bend_c, 3, 8128
5, 21476, Pitch_bend_c, 3, 8160
5, 21478, Note_on_c, 3, 58, 0
5, 21479, Note_on_c, 3, 58, 87
5, 21479, Pitch_bend_c, 3, 8096
5, 21483, Pitch_bend_c, 3, 8128
5, 21485, Pitch_bend_c, 3, 8096
5, 21488, Pitch_bend_c, 3, 8128
5, 21489, Pitch_bend_c, 3, 8096
5, 21493, Pitch_bend_c, 3, 8064
5, 21494, Pitch_bend_c, 3, 8032
5, 21496, Pitch_bend_c, 3, 7840
5, 21497, Note_on_c, 3, 58, 0
5, 21497, Pitch_bend_c, 3, 8096
5, 21498, Pitch_bend_c, 3, 8192
5, 21499, Note_on_c, 3, 61, 100
5, 21499, Pitch_bend_c, 3, 8672
5, 21500, Pitch_bend_c, 3, 8448
5, 21501, Pitch_bend_c, 3, 8416
5, 21502, Pitch_bend_c, 3, 8384
5, 21503, Pitch_bend_c, 3, 8416
5, 21505, Pitch_bend_c, 3, 8448
5, 21508, Pitch_bend_c, 3, 8384
5, 21509, Pitch_bend_c, 3, 8352
5, 21510, Pitch_bend_c, 3, 8256
5, 21511, Pitch_bend_c, 3, 8448
5, 21512, Note_on_c, 3, 61, 0
5, 21523, Pitch_bend_c, 3, 8160
5, 21523, Note_on_c, 3, 58, 81
5, 21525, Pitch_bend_c, 3, 8128
5, 21528, Pitch_bend_c, 3, 8160
5, 21529, Pitch_bend_c, 3, 8320
5, 21532, Pitch_bend_c, 3, 128
5, 21533, Pitch_bend_c, 3, 96
5, 21535, Pitch_bend_c, 3, 64
5, 21539, Pitch_bend_c, 3, 96
5, 21540, Pitch_bend_c, 3, 160
5, 21541, Pitch_bend_c, 3, 128
5, 21543, Note_on_c, 3, 58, 0
5, 21543, Note_on_c, 3, 53, 88
5, 21543, Pitch_bend_c, 3, 8000
5, 21546, Pitch_bend_c, 3, 8064
5, 21547, Pitch_bend_c, 3, 8160
5, 21549, Pitch_bend_c, 3, 8288
5, 21550, Pitch_bend_c, 3, 8352
5, 21553, Pitch_bend_c, 3, 8256
5, 21554, Pitch_bend_c, 3, 8128
5, 21555, Pitch_bend_c, 3, 8064
5, 21558, Pitch_bend_c, 3, 8032
5, 21560, Pitch_bend_c, 3, 8000
5, 21563, Pitch_bend_c, 3, 7968
5, 21564, Pitch_bend_c, 3, 7904
5, 21577, Pitch_bend_c, 3, 7872
5, 21579, Pitch_bend_c, 3, 7584
5, 21580, Note_on_c, 3, 53, 0
5, 22111, Pitch_bend_c, 3, 8192
5, 22112, Note_on_c, 3, 67, 101
5, 22117, Pitch_bend_c, 3, 8288
5, 22118, Pitch_bend_c, 3, 12064
5, 22119, Pitch_bend_c, 3, 12096
5, 22122, Pitch_bend_c, 3, 12128
5, 22126, Pitch_bend_c, 3, 12160
5, 22133, Pitch_bend_c, 3, 12256
5, 22134, Pitch_bend_c, 3, 12320
5, 22136, Pitch_bend_c, 3, 12448
5, 22137, Pitch_bend_c, 3, 12544
5, 22138, Pitch_bend_c, 3, 12576
5, 22142, Pitch_bend_c, 3, 12512
5, 22144, Pitch_bend_c, 3, 12352
5, 22145, Pitch_bend_c, 3, 12192
5, 22146, Pitch_bend_c, 3, 12032
5, 22148, Pitch_bend_c, 3, 12000
5, 22151, Pitch_bend_c, 3, 12128
5, 22152, Pitch_bend_c, 3, 12288
5, 22153, Pitch_bend_c, 3, 12416
5, 22154, Pitch_bend_c, 3, 12544
5, 22156, Pitch_bend_c, 3, 12608
5, 22158, Pitch_bend_c, 3, 12640
5, 22160, Pitch_bend_c, 3, 12608
5, 22163, Pitch_bend_c, 3, 12544
5, 22164, Pitch_bend_c, 3, 12416
5, 22166, Pitch_bend_c, 3, 12288
5, 22167, Pitch_bend_c, 3, 12128
5, 22168, Pitch_bend_c, 3, 12032
5, 22171, Pitch_bend_c, 3, 12160
5, 22173, Pitch_bend_c, 3, 12288
5, 22174, Pitch_bend_c, 3, 12416
5, 22175, Pitch_bend_c, 3, 12544
5, 22177, Pitch_bend_c, 3, 12576
5, 22178, Pitch_bend_c, 3, 12544
5, 22180, Pitch_bend_c, 3, 12512
5, 22181, Pitch_bend_c, 3, 12480
5, 22182, Pitch_bend_c, 3, 12352
5, 22184, Pitch_bend_c, 3, 12224
5, 22185, Pitch_bend_c, 3, 12096
5, 22186, Pitch_bend_c, 3, 12032
5, 22189, Pitch_bend_c, 3, 12064
5, 22190, Pitch_bend_c, 3, 12096
5, 22195, Pitch_bend_c, 3, 12064
5, 22196, Pitch_bend_c, 3, 12032
5, 22198, Note_on_c, 3, 67, 0
5, 22201, Pitch_bend_c, 3, 8192
5, 22202, Note_on_c, 3, 65, 105
5, 22213, Pitch_bend_c, 3, 8160
5, 22215, Pitch_bend_c, 3, 8128
5, 22216, Pitch_bend_c, 3, 8096
5, 22217, Pitch_bend_c, 3, 8000
5, 22219, Pitch_bend_c, 3, 7808
5, 22220, Note_on_c, 3, 65, 0
5, 22220, Pitch_bend_c, 3, 7680
5, 22232, Pitch_bend_c, 3, 8192
5, 22233, Note_on_c, 3, 68, 99
5, 22234, Pitch_bend_c, 3, 8256
5, 22238, Pitch_bend_c, 3, 8224
5, 22243, Pitch_bend_c, 3, 8192
5, 22246, Pitch_bend_c, 3, 8160
5, 22247, Pitch_bend_c, 3, 8064
5, 22248, Pitch_bend_c, 3, 8032
5, 22250, Note_on_c, 3, 68, 0
5, 22250, Pitch_bend_c, 3, 8192
5, 22263, Note_on_c, 3, 67, 103
5, 22264, Pitch_bend_c, 3, 8352
5, 22265, Pitch_bend_c, 3, 8320
5, 22266, Pitch_bend_c, 3, 8256
5, 22267, Pitch_bend_c, 3, 8032
5, 22269, Pitch_bend_c, 3, 7936
5, 22270, Pitch_bend_c, 3, 8000
5, 22271, Pitch_bend_c, 3, 12000
5, 22288, Pitch_bend_c, 3, 11968
5, 22291, Pitch_bend_c, 3, 12000
5, 22294, Note_on_c, 3, 67, 0
5, 22294, Pitch_bend_c, 3, 11840
5, 22299, Note_on_c, 3, 65, 104
5, 22299, Pitch_bend_c, 3, 8896
5, 22301, Pitch_bend_c, 3, 8192
5, 22304, Pitch_bend_c, 3, 8160
5, 22305, Pitch_bend_c, 3, 8128
5, 22309, Pitch_bend_c, 3, 8096
5, 22311, Pitch_bend_c, 3, 8064
5, 22313, Note_on_c, 3, 65, 0
5, 22313, Pitch_bend_c, 3, 8192
5, 22315, Pitch_bend_c, 3, 7360
5, 22315, Note_on_c, 3, 65, 97
5, 22318, Pitch_bend_c, 3, 7456
5, 22319, Pitch_bend_c, 3, 7712
5, 22321, Pitch_bend_c, 3, 7904
5, 22322, Pitch_bend_c, 3, 8064
5, 22323, Pitch_bend_c, 3, 8096
5, 22326, Note_on_c, 3, 65, 0
5, 22330, Pitch_bend_c, 3, 8192
5, 22331, Note_on_c, 3, 67, 95
5, 22331, Pitch_bend_c, 3, 12128
5, 22334, Pitch_bend_c, 3, 12096
5, 22335, Pitch_bend_c, 3, 12128
5, 22338, Pitch_bend_c, 3, 12096
5, 22339, Pitch_bend_c, 3, 12064
5, 22341, Pitch_bend_c, 3, 12000
5, 22344, Pitch_bend_c, 3, 12032
5, 22345, Pitch_bend_c, 3, 12000
5, 22346, Note_on_c, 3, 67, 0
5, 22346, Pitch_bend_c, 3, 12096
5, 22359, Pitch_bend_c, 3, 8192
5, 22360, Pitch_bend_c, 3, 8160
5, 22360, Note_on_c, 3, 65, 96
5, 22368, Pitch_bend_c, 3, 8128
5, 22370, Pitch_bend_c, 3, 8096
5, 22374, Note_on_c, 3, 65, 0
5, 22374, Note_on_c, 3, 63, 76
5, 22374, Pitch_bend_c, 3, 8192
5, 22375, Pitch_bend_c, 3, 7968
5, 22378, Pitch_bend_c, 3, 7936
5, 22383, Pitch_bend_c, 3, 7968
5, 22385, Pitch_bend_c, 3, 8000
5, 22387, Note_on_c, 3, 63, 0
5, 22390, Pitch_bend_c, 3, 7936
5, 22390, Note_on_c, 3, 65, 93
5, 22392, Pitch_bend_c, 3, 8032
5, 22393, Pitch_bend_c, 3, 8096
5, 22398, Pitch_bend_c, 3, 8128
5, 22399, Pitch_bend_c, 3, 8096
5, 22409, Pitch_bend_c, 3, 8064
5, 22411, Pitch_bend_c, 3, 8000
5, 22412, Note_on_c, 3, 65, 0
5, 22412, Pitch_bend_c, 3, 8096
5, 22426, Pitch_bend_c, 3, 8192
5, 22427, Pitch_bend_c, 3, 8288
5, 22427, Note_on_c, 3, 61, 99
5, 22428, Pitch_bend_c, 3, 8160
5, 22432, Pitch_bend_c, 3, 8192
5, 22436, Pitch_bend_c, 3, 8160
5, 22438, Pitch_bend_c, 3, 8032
5, 22439, Pitch_bend_c, 3, 7808
5, 22440, Note_on_c, 3, 61, 0
5, 22440, Pitch_bend_c, 3, 8160
5, 22448, Note_on_c, 3, 63, 101
5, 22449, Pitch_bend_c, 3, 8192
5, 22451, Pitch_bend_c, 3, 8160
5, 22453, Pitch_bend_c, 3, 8128
5, 22454, Pitch_bend_c, 3, 8160
5, 22458, Pitch_bend_c, 3, 8128
5, 22460, Note_on_c, 3, 63, 0
5, 22461, Pitch_bend_c, 3, 8096
5, 22462, Note_on_c, 3, 63, 94
5, 22462, Pitch_bend_c, 3, 8064
5, 22465, Pitch_bend_c, 3, 8096
5, 22467, Pitch_bend_c, 3, 7872
5, 22469, Pitch_bend_c, 3, 8192
5, 22470, Pitch_bend_c, 3, 8064
5, 22476, Note_on_c, 3, 63, 0
5, 22477, Pitch_bend_c, 3, 8032
5, 22478, Note_on_c, 3, 63, 94
5, 22479, Pitch_bend_c, 3, 8000
5, 22482, Pitch_bend_c, 3, 7904
5, 22483, Pitch_bend_c, 3, 7840
5, 22484, Pitch_bend_c, 3, 8032
5, 22488, Pitch_bend_c, 3, 8192
5, 22490, Pitch_bend_c, 3, 8064
5, 22492, Note_on_c, 3, 63, 0
5, 22492, Note_on_c, 3, 61, 81
5, 22500, Note_on_c, 3, 61, 0
5, 22506, Pitch_bend_c, 3, 8192
5, 22507, Note_on_c, 3, 65, 105
5, 22507, Pitch_bend_c, 3, 8384
5, 22518, Pitch_bend_c, 3, 8128
5, 22519, Pitch_bend_c, 3, 8096
5, 22522, Pitch_bend_c, 3, 8064
5, 22523, Pitch_bend_c, 3, 8096
5, 22530, Pitch_bend_c, 3, 8064
5, 22532, Note_on_c, 3, 65, 0
5, 22532, Pitch_bend_c, 3, 8000
5, 22534, Pitch_bend_c, 3, 8192
5, 22535, Note_on_c, 3, 68, 100
5, 22536, Pitch_bend_c, 3, 8128
5, 22537, Pitch_bend_c, 3, 8160
5, 22540, Pitch_bend_c, 3, 8192
5, 22544, Pitch_bend_c, 3, 8160
5, 22546, Pitch_bend_c, 3, 8128
5, 22549, Pitch_bend_c, 3, 8096
5, 22554, Pitch_bend_c, 3, 8064
5, 22558, Pitch_bend_c, 3, 8032
5, 22560, Pitch_bend_c, 3, 8064
5, 22562, Pitch_bend_c, 3, 8192
5, 22563, Pitch_bend_c, 3, 8544
5, 22565, Pitch_bend_c, 3, 8992
5, 22566, Pitch_bend_c, 3, 9472
5, 22567, Pitch_bend_c, 3, 9856
5, 22569, Note_on_c, 3, 68, 0
5, 22569, Pitch_bend_c, 3, 10016
5, 22747, Pitch_bend_c, 3, 8192
5, 22748, Note_on_c, 3, 69, 101
5, 22748, Pitch_bend_c, 3, 8576
5, 22749, Pitch_bend_c, 3, 8672
5, 22750, Pitch_bend_c, 3, 8640
5, 22754, Pitch_bend_c, 3, 8576
5, 22757, Pitch_bend_c, 3, 8512
5, 22758, Pitch_bend_c, 3, 8448
5, 22760, Pitch_bend_c, 3, 12512
5, 22764, Pitch_bend_c, 3, 12480
5, 22765, Pitch_bend_c, 3, 12448
5, 22769, Pitch_bend_c, 3, 12480
5, 22771, Pitch_bend_c, 3, 12512
5, 22772, Pitch_bend_c, 3, 12544
5, 22773, Pitch_bend_c, 3, 12576
5, 22777, Pitch_bend_c, 3, 12544
5, 22780, Pitch_bend_c, 3, 12576
5, 22781, Pitch_bend_c, 3, 12640
5, 22783, Pitch_bend_c, 3, 12704
5, 22784, Pitch_bend_c, 3, 12768
5, 22786, Pitch_bend_c, 3, 12864
5, 22793, Pitch_bend_c, 3, 12800
5, 22794, Pitch_bend_c, 3, 12768
5, 22795, Pitch_bend_c, 3, 12704
5, 22797, Pitch_bend_c, 3, 12640
5, 22798, Pitch_bend_c, 3, 12576
5, 22799, Pitch_bend_c, 3, 12544
5, 22805, Pitch_bend_c, 3, 12576
5, 22808, Pitch_bend_c, 3, 12608
5, 22809, Pitch_bend_c, 3, 12640
5, 22811, Pitch_bend_c, 3, 12704
5, 22812, Note_on_c, 3, 69, 0
5, 22823, Note_on_c, 3, 69, 109
5, 22823, Pitch_bend_c, 3, 8640
5, 22824, Pitch_bend_c, 3, 8608
5, 22825, Pitch_bend_c, 3, 8544
5, 22827, Pitch_bend_c, 3, 8480
5, 22828, Pitch_bend_c, 3, 8448
5, 22829, Pitch_bend_c, 3, 8416
5, 22832, Pitch_bend_c, 3, 8448
5, 22833, Pitch_bend_c, 3, 8704
5, 22835, Pitch_bend_c, 3, 12448
5, 22845, Pitch_bend_c, 3, 12480
5, 22853, Note_on_c, 3, 69, 0
5, 22857, Pitch_bend_c, 3, 8192
5, 22857, Note_on_c, 3, 68, 94
5, 22858, Pitch_bend_c, 3, 8096
5, 22861, Pitch_bend_c, 3, 8256
5, 22862, Pitch_bend_c, 3, 8352
5, 22864, Pitch_bend_c, 3, 8416
5, 22865, Pitch_bend_c, 3, 8384
5, 22866, Pitch_bend_c, 3, 8256
5, 22868, Pitch_bend_c, 3, 8192
5, 22871, Pitch_bend_c, 3, 8224
5, 22872, Pitch_bend_c, 3, 8416
5, 22873, Note_on_c, 3, 68, 0
5, 22881, Pitch_bend_c, 3, 8192
5, 22884, Note_on_c, 3, 63, 104
5, 22885, Pitch_bend_c, 3, 8256
5, 22887, Pitch_bend_c, 3, 8320
5, 22888, Pitch_bend_c, 3, 8384
5, 22890, Pitch_bend_c, 3, 8416
5, 22895, Pitch_bend_c, 3, 8544
5, 22897, Pitch_bend_c, 3, 8800
5, 22898, Pitch_bend_c, 3, 9152
5, 22899, Pitch_bend_c, 3, 9760
5, 22900, Note_on_c, 3, 63, 0
5, 22909, Pitch_bend_c, 3, 8192
5, 22910, Note_on_c, 3, 63, 84
5, 22910, Pitch_bend_c, 3, 8480
5, 22911, Pitch_bend_c, 3, 8320
5, 22913, Pitch_bend_c, 3, 8256
5, 22914, Pitch_bend_c, 3, 8224
5, 22915, Pitch_bend_c, 3, 8192
5, 22917, Pitch_bend_c, 3, 8096
5, 22918, Pitch_bend_c, 3, 8064
5, 22920, Pitch_bend_c, 3, 8032
5, 22921, Pitch_bend_c, 3, 8000
5, 22923, Pitch_bend_c, 3, 7968
5, 22924, Pitch_bend_c, 3, 7904
5, 22925, Note_on_c, 3, 63, 0
5, 22925, Pitch_bend_c, 3, 8064
5, 22928, Pitch_bend_c, 3, 8192
5, 22928, Note_on_c, 3, 61, 71
5, 22929, Pitch_bend_c, 3, 7872
5, 22932, Pitch_bend_c, 3, 8064
5, 22935, Pitch_bend_c, 3, 8096
5, 22936, Pitch_bend_c, 3, 8128
5, 22939, Pitch_bend_c, 3, 8096
5, 22940, Pitch_bend_c, 3, 8064
5, 22942, Pitch_bend_c, 3, 8032
5, 22943, Pitch_bend_c, 3, 7968
5, 22945, Pitch_bend_c, 3, 8000
5, 22947, Pitch_bend_c, 3, 8064
5, 22948, Pitch_bend_c, 3, 8192
5, 22950, Pitch_bend_c, 3, 8288
5, 22951, Pitch_bend_c, 3, 8320
5, 22953, Pitch_bend_c, 3, 8288
5, 22954, Pitch_bend_c, 3, 8192
5, 22956, Pitch_bend_c, 3, 8096
5, 22957, Pitch_bend_c, 3, 8000
5, 22958, Pitch_bend_c, 3, 7968
5, 22962, Pitch_bend_c, 3, 8000
5, 22965, Pitch_bend_c, 3, 7968
5, 22972, Pitch_bend_c, 3, 8000
5, 22973, Pitch_bend_c, 3, 8032
5, 22975, Note_on_c, 3, 61, 0
5, 22982, Pitch_bend_c, 3, 8192
5, 22983, Note_on_c, 3, 57, 91
5, 22987, Pitch_bend_c, 3, 8160
5, 22989, Pitch_bend_c, 3, 8192
5, 22991, Pitch_bend_c, 3, 8224
5, 22993, Pitch_bend_c, 3, 8480
5, 22994, Pitch_bend_c, 3, 12096
5, 23000, Pitch_bend_c, 3, 12064
5, 23004, Pitch_bend_c, 3, 12096
5, 23005, Pitch_bend_c, 3, 12128
5, 23007, Pitch_bend_c, 3, 12160
5, 23008, Pitch_bend_c, 3, 12288
5, 23009, Note_on_c, 3, 57, 0
5, 23012, Note_on_c, 3, 58, 83
5, 23012, Pitch_bend_c, 3, 8192
5, 23021, Pitch_bend_c, 3, 8128
5, 23028, Note_on_c, 3, 58, 0
5, 23028, Pitch_bend_c, 3, 8160
5, 23030, Pitch_bend_c, 3, 8192
5, 23031, Note_on_c, 3, 58, 76
5, 23042, Pitch_bend_c, 3, 8160
5, 23045, Pitch_bend_c, 3, 8032
5, 23046, Pitch_bend_c, 3, 7936
5, 23047, Note_on_c, 3, 58, 0
5, 23047, Pitch_bend_c, 3, 8192
5, 23048, Note_on_c, 3, 58, 97
5, 23060, Pitch_bend_c, 3, 8224
5, 23061, Note_on_c, 3, 58, 0
5, 23068, Pitch_bend_c, 3, 8192
5, 23069, Pitch_bend_c, 3, 8448
5, 23069, Note_on_c, 3, 57, 94
5, 23070, Pitch_bend_c, 3, 8416
5, 23071, Pitch_bend_c, 3, 8352
5, 23073, Pitch_bend_c, 3, 8288
5, 23074, Pitch_bend_c, 3, 8192
5, 23075, Pitch_bend_c, 3, 8160
5, 23078, Pitch_bend_c, 3, 8192
5, 23080, Pitch_bend_c, 3, 12192
5, 23082, Pitch_bend_c, 3, 12160
5, 23085, Pitch_bend_c, 3, 12128
5, 23087, Pitch_bend_c, 3, 12096
5, 23094, Pitch_bend_c, 3, 12128
5, 23096, Note_on_c, 3, 57, 0
5, 23096, Pitch_bend_c, 3, 8192
5, 23096, Note_on_c, 3, 61, 100
5, 23102, Pitch_bend_c, 3, 8128
5, 23106, Pitch_bend_c, 3, 8160
5, 23107, Note_on_c, 3, 61, 0
5, 23107, Pitch_bend_c, 3, 8224
5, 23110, Pitch_bend_c, 3, 8192
5, 23111, Pitch_bend_c, 3, 8160
5, 23111, Note_on_c, 3, 58, 79
5, 23112, Pitch_bend_c, 3, 8128
5, 23115, Pitch_bend_c, 3, 8192
5, 23116, Pitch_bend_c, 3, 8288
5, 23118, Pitch_bend_c, 3, 8512
5, 23119, Pitch_bend_c, 3, 8736
5, 23120, Pitch_bend_c, 3, 256
5, 23125, Pitch_bend_c, 3, 224
5, 23132, Pitch_bend_c, 3, 256
5, 23133, Note_on_c, 3, 58, 0
5, 23133, Pitch_bend_c, 3, 8192
5, 23133, Note_on_c, 3, 53, 68
5, 23139, Pitch_bend_c, 3, 8000
5, 23140, Pitch_bend_c, 3, 8096
5, 23143, Pitch_bend_c, 3, 8160
5, 23146, Pitch_bend_c, 3, 8096
5, 23147, Pitch_bend_c, 3, 8064
5, 23149, Pitch_bend_c, 3, 8000
5, 23150, Pitch_bend_c, 3, 7936
5, 23151, Pitch_bend_c, 3, 7904
5, 23153, Pitch_bend_c, 3, 7872
5, 23157, Pitch_bend_c, 3, 7904
5, 23163, Pitch_bend_c, 3, 7936
5, 23168, Pitch_bend_c, 3, 7904
5, 23170, Pitch_bend_c, 3, 7872
5, 23175, Pitch_bend_c, 3, 7904
5, 23178, Pitch_bend_c, 3, 7936
5, 23179, Pitch_bend_c, 3, 7872
5, 23180, Pitch_bend_c, 3, 7904
5, 23184, Pitch_bend_c, 3, 8000
5, 23187, Pitch_bend_c, 3, 7968
5, 23190, Pitch_bend_c, 3, 7936
5, 23191, Pitch_bend_c, 3, 7904
5, 23192, Pitch_bend_c, 3, 7872
5, 23194, Note_on_c, 3, 53, 0
5, 23863, Pitch_bend_c, 3, 8192
5, 23864, Note_on_c, 3, 56, 91
5, 23871, Pitch_bend_c, 3, 8160
5, 23873, Pitch_bend_c, 3, 8128
5, 23875, Note_on_c, 3, 56, 0
5, 23875, Pitch_bend_c, 3, 8096
5, 23878, Pitch_bend_c, 3, 8192
5, 23879, Note_on_c, 3, 57, 78
5, 23879, Pitch_bend_c, 3, 11616
5, 23880, Pitch_bend_c, 3, 12064
5, 23881, Pitch_bend_c, 3, 12096
5, 23886, Pitch_bend_c, 3, 12128
5, 23889, Pitch_bend_c, 3, 12160
5, 23894, Note_on_c, 3, 57, 0
5, 23895, Pitch_bend_c, 3, 8192
5, 23896, Pitch_bend_c, 3, 8096
5, 23896, Note_on_c, 3, 58, 88
5, 23899, Pitch_bend_c, 3, 8128
5, 23903, Pitch_bend_c, 3, 8160
5, 23907, Note_on_c, 3, 58, 0
5, 23909, Pitch_bend_c, 3, 8192
5, 23909, Note_on_c, 3, 58, 97
5, 23915, Pitch_bend_c, 3, 8096
5, 23925, Note_on_c, 3, 58, 0
5, 23928, Note_on_c, 3, 58, 85
5, 23928, Pitch_bend_c, 3, 8128
5, 23934, Pitch_bend_c, 3, 8096
5, 23939, Pitch_bend_c, 3, 8032
5, 23940, Pitch_bend_c, 3, 7968
5, 23942, Note_on_c, 3, 58, 0
5, 23942, Pitch_bend_c, 3, 8128
5, 23943, Pitch_bend_c, 3, 8192
5, 23944, Pitch_bend_c, 3, 8928
5, 23944, Note_on_c, 3, 61, 107
5, 23945, Pitch_bend_c, 3, 8288
5, 23947, Pitch_bend_c, 3, 8352
5, 23948, Pitch_bend_c, 3, 8384
5, 23950, Pitch_bend_c, 3, 8416
5, 23951, Pitch_bend_c, 3, 8448
5, 23955, Pitch_bend_c, 3, 8480
5, 23956, Note_on_c, 3, 61, 0
5, 23958, Pitch_bend_c, 3, 8192
5, 23959, Pitch_bend_c, 3, 8480
5, 23959, Note_on_c, 3, 61, 103
5, 23960, Pitch_bend_c, 3, 8512
5, 23961, Pitch_bend_c, 3, 8480
5, 23963, Pitch_bend_c, 3, 8512
5, 23966, Pitch_bend_c, 3, 8480
5, 23968, Pitch_bend_c, 3, 8448
5, 23970, Pitch_bend_c, 3, 8384
5, 23971, Note_on_c, 3, 61, 0
5, 23971, Pitch_bend_c, 3, 8512
5, 23984, Note_on_c, 3, 61, 104
5, 23984, Pitch_bend_c, 3, 8192
5, 23985, Pitch_bend_c, 3, 8224
5, 23986, Pitch_bend_c, 3, 8288
5, 23994, Pitch_bend_c, 3, 8352
5, 23996, Pitch_bend_c, 3, 8512
5, 23997, Pitch_bend_c, 3, 8768
5, 23998, Pitch_bend_c, 3, 9120
5, 24000, Pitch_bend_c, 3, 9408
5, 24001, Pitch_bend_c, 3, 9472
5, 24003, Pitch_bend_c, 3, 9184
5, 24004, Pitch_bend_c, 3, 9120
5, 24005, Note_on_c, 3, 61, 0
5, 24013, Pitch_bend_c, 3, 8192
5, 24014, Note_on_c, 3, 58, 79
5, 24021, Pitch_bend_c, 3, 8160
5, 24027, Pitch_bend_c, 3, 8128
5, 24036, Note_on_c, 3, 58, 0
5, 24036, Pitch_bend_c, 3, 8192
5, 24038, Note_on_c, 3, 58, 66
5, 24038, Pitch_bend_c, 3, 8096
5, 24040, Pitch_bend_c, 3, 8064
5, 24054, Pitch_bend_c, 3, 8032
5, 24056, Pitch_bend_c, 3, 8000
5, 24058, Note_on_c, 3, 58, 0
5, 24058, Pitch_bend_c, 3, 8064
5, 24239, Pitch_bend_c, 3, 8192
5, 24240, Note_on_c, 3, 56, 96
5, 24249, Pitch_bend_c, 3, 8160
5, 24250, Pitch_bend_c, 3, 8128
5, 24252, Pitch_bend_c, 3, 8096
5, 24253, Pitch_bend_c, 3, 8000
5, 24254, Pitch_bend_c, 3, 7840
5, 24256, Pitch_bend_c, 3, 7648
5, 24257, Note_on_c, 3, 56, 0
5, 24257, Pitch_bend_c, 3, 7488
5, 24260, Pitch_bend_c, 3, 8192
5, 24260, Note_on_c, 3, 58, 103
5, 24262, Pitch_bend_c, 3, 7776
5, 24263, Pitch_bend_c, 3, 7808
5, 24265, Pitch_bend_c, 3, 7968
5, 24266, Pitch_bend_c, 3, 8096
5, 24267, Pitch_bend_c, 3, 8160
5, 24269, Pitch_bend_c, 3, 8192
5, 24270, Pitch_bend_c, 3, 8160
5, 24271, Note_on_c, 3, 58, 0
5, 24278, Pitch_bend_c, 3, 8192
5, 24279, Pitch_bend_c, 3, 8256
5, 24279, Note_on_c, 3, 58, 91
5, 24280, Pitch_bend_c, 3, 8192
5, 24288, Pitch_bend_c, 3, 8160
5, 24292, Pitch_bend_c, 3, 7936
5, 24294, Pitch_bend_c, 3, 8192
5, 24295, Note_on_c, 3, 58, 0
5, 24300, Note_on_c, 3, 56, 85
5, 24307, Pitch_bend_c, 3, 8160
5, 24308, Pitch_bend_c, 3, 8032
5, 24310, Pitch_bend_c, 3, 7808
5, 24311, Note_on_c, 3, 56, 0
5, 24311, Pitch_bend_c, 3, 8192
5, 24316, Note_on_c, 3, 58, 94
5, 24323, Pitch_bend_c, 3, 8160
5, 24327, Pitch_bend_c, 3, 8064
5, 24328, Pitch_bend_c, 3, 7744
5, 24330, Pitch_bend_c, 3, 7424
5, 24332, Pitch_bend_c, 3, 7520
5, 24334, Pitch_bend_c, 3, 7872
5, 24335, Note_on_c, 3, 58, 0
5, 24343, Pitch_bend_c, 3, 8224
5, 24343, Note_on_c, 3, 58, 98
5, 24349, Pitch_bend_c, 3, 8256
5, 24350, Pitch_bend_c, 3, 8224
5, 24352, Pitch_bend_c, 3, 8192
5, 24354, Pitch_bend_c, 3, 8160
5, 24356, Pitch_bend_c, 3, 8128
5, 24360, Note_on_c, 3, 58, 0
5, 24360, Pitch_bend_c, 3, 8192
5, 24361, Note_on_c, 3, 58, 96
5, 24368, Pitch_bend_c, 3, 8224
5, 24369, Pitch_bend_c, 3, 8256
5, 24371, Pitch_bend_c, 3, 8288
5, 24372, Pitch_bend_c, 3, 8256
5, 24373, Pitch_bend_c, 3, 8288
5, 24375, Pitch_bend_c, 3, 8320
5, 24376, Note_on_c, 3, 58, 0
5, 24380, Pitch_bend_c, 3, 8192
5, 24381, Note_on_c, 3, 61, 106
5, 24382, Pitch_bend_c, 3, 8512
5, 24383, Pitch_bend_c, 3, 8544
5, 24384, Pitch_bend_c, 3, 8352
5, 24386, Pitch_bend_c, 3, 8192
5, 24387, Pitch_bend_c, 3, 8224
5, 24389, Pitch_bend_c, 3, 8192
5, 24390, Pitch_bend_c, 3, 8384
5, 24391, Pitch_bend_c, 3, 8512
5, 24398, Pitch_bend_c, 3, 8544
5, 24400, Pitch_bend_c, 3, 8512
5, 24401, Pitch_bend_c, 3, 8480
5, 24402, Pitch_bend_c, 3, 8416
5, 24404, Pitch_bend_c, 3, 8384
5, 24405, Pitch_bend_c, 3, 8352
5, 24406, Pitch_bend_c, 3, 8384
5, 24408, Pitch_bend_c, 3, 8512
5, 24409, Pitch_bend_c, 3, 8768
5, 24411, Pitch_bend_c, 3, 9312
5, 24412, Pitch_bend_c, 3, 9920
5, 24413, Pitch_bend_c, 3, 10464
5, 24415, Pitch_bend_c, 3, 10752
5, 24416, Note_on_c, 3, 61, 0
5, 24416, Pitch_bend_c, 3, 10816
5, 24592, Pitch_bend_c, 3, 8192
5, 24592, Note_on_c, 3, 58, 99
5, 24593, Pitch_bend_c, 3, 8160
5, 24594, Pitch_bend_c, 3, 8320
5, 24596, Pitch_bend_c, 3, 8352
5, 24599, Note_on_c, 3, 58, 0
5, 24609, Pitch_bend_c, 3, 8128
5, 24609, Note_on_c, 3, 63, 105
5, 24615, Pitch_bend_c, 3, 8000
5, 24616, Pitch_bend_c, 3, 7968
5, 24617, Pitch_bend_c, 3, 8032
5, 24618, Pitch_bend_c, 3, 8160
5, 24620, Pitch_bend_c, 3, 8320
5, 24621, Pitch_bend_c, 3, 8576
5, 24622, Note_on_c, 3, 63, 0
5, 24623, Pitch_bend_c, 3, 8192
5, 24627, Note_on_c, 3, 63, 97
5, 24628, Pitch_bend_c, 3, 7840
5, 24629, Pitch_bend_c, 3, 7872
5, 24631, Pitch_bend_c, 3, 7904
5, 24632, Pitch_bend_c, 3, 7936
5, 24634, Pitch_bend_c, 3, 7904
5, 24635, Pitch_bend_c, 3, 7872
5, 24638, Pitch_bend_c, 3, 7840
5, 24640, Pitch_bend_c, 3, 7680
5, 24641, Note_on_c, 3, 63, 0
5, 24641, Pitch_bend_c, 3, 7904
5, 24644, Pitch_bend_c, 3, 8192
5, 24645, Note_on_c, 3, 61, 89
5, 24645, Pitch_bend_c, 3, 7936
5, 24647, Pitch_bend_c, 3, 7968
5, 24654, Pitch_bend_c, 3, 7936
5, 24655, Note_on_c, 3, 61, 0
5, 24655, Pitch_bend_c, 3, 7968
5, 24661, Note_on_c, 3, 63, 105
5, 24661, Pitch_bend_c, 3, 8128
5, 24664, Pitch_bend_c, 3, 8064
5, 24666, Pitch_bend_c, 3, 8096
5, 24667, Pitch_bend_c, 3, 8064
5, 24668, Pitch_bend_c, 3, 8032
5, 24670, Pitch_bend_c, 3, 8192
5, 24671, Pitch_bend_c, 3, 8416
5, 24672, Pitch_bend_c, 3, 8736
5, 24674, Pitch_bend_c, 3, 9216
5, 24675, Pitch_bend_c, 3, 9504
5, 24676, Note_on_c, 3, 63, 0
5, 24681, Pitch_bend_c, 3, 8192
5, 24682, Pitch_bend_c, 3, 7872
5, 24682, Note_on_c, 3, 63, 94
5, 24683, Pitch_bend_c, 3, 7904
5, 24688, Pitch_bend_c, 3, 7872
5, 24692, Pitch_bend_c, 3, 7680
5, 24693, Note_on_c, 3, 63, 0
5, 24693, Pitch_bend_c, 3, 7872
5, 24703, Pitch_bend_c, 3, 8192
5, 24704, Note_on_c, 3, 61, 100
5, 24704, Pitch_bend_c, 3, 8064
5, 24708, Pitch_bend_c, 3, 8096
5, 24713, Pitch_bend_c, 3, 8064
5, 24714, Pitch_bend_c, 3, 8032
5, 24717, Note_on_c, 3, 61, 0
5, 24717, Pitch_bend_c, 3, 8064
5, 24719, Pitch_bend_c, 3, 8192
5, 24719, Note_on_c, 3, 61, 77
5, 24731, Pitch_bend_c, 3, 7904
5, 24734, Note_on_c, 3, 61, 0
5, 24739, Pitch_bend_c, 3, 8192
5, 24740, Note_on_c, 3, 63, 96
5, 24740, Pitch_bend_c, 3, 7936
5, 24745, Pitch_bend_c, 3, 7904
5, 24746, Pitch_bend_c, 3, 7872
5, 24748, Pitch_bend_c, 3, 7840
5, 24749, Pitch_bend_c, 3, 7808
5, 24750, Pitch_bend_c, 3, 7936
5, 24752, Note_on_c, 3, 63, 0
5, 24752, Pitch_bend_c, 3, 8032
5, 24764, Note_on_c, 3, 58, 75
5, 24764, Pitch_bend_c, 3, 8192
5, 24765, Pitch_bend_c, 3, 8160
5, 24773, Pitch_bend_c, 3, 8128
5, 24782, Note_on_c, 3, 58, 0
5, 24782, Pitch_bend_c, 3, 8160
5, 24787, Note_on_c, 3, 58, 76
5, 24787, Pitch_bend_c, 3, 8192
5, 24788, Pitch_bend_c, 3, 8160
5, 24797, Pitch_bend_c, 3, 8128
5, 24800, Pitch_bend_c, 3, 8096
5, 24803, Pitch_bend_c, 3, 8128
5, 24806, Pitch_bend_c, 3, 8096
5, 24807, Pitch_bend_c, 3, 7936
5, 24809, Note_on_c, 3, 58, 0
5, 24809, Pitch_bend_c, 3, 8128
5, 24991, Note_on_c, 3, 67, 101
5, 24991, Pitch_bend_c, 3, 8192
5, 24992, Pitch_bend_c, 3, 8416
5, 24993, Pitch_bend_c, 3, 8064
5, 24995, Pitch_bend_c, 3, 8000
5, 24996, Pitch_bend_c, 3, 11776
5, 25000, Pitch_bend_c, 3, 11808
5, 25004, Pitch_bend_c, 3, 11840
5, 25005, Pitch_bend_c, 3, 11808
5, 25008, Pitch_bend_c, 3, 11776
5, 25012, Pitch_bend_c, 3, 11648
5, 25013, Pitch_bend_c, 3, 11680
5, 25015, Pitch_bend_c, 3, 11712
5, 25017, Pitch_bend_c, 3, 11904
5, 25021, Pitch_bend_c, 3, 11936
5, 25024, Pitch_bend_c, 3, 11968
5, 25026, Note_on_c, 3, 67, 0
5, 25026, Pitch_bend_c, 3, 8192
5, 25026, Note_on_c, 3, 68, 101
5, 25027, Pitch_bend_c, 3, 8000
5, 25028, Pitch_bend_c, 3, 8128
5, 25033, Pitch_bend_c, 3, 8160
5, 25035, Pitch_bend_c, 3, 8064
5, 25038, Pitch_bend_c, 3, 8032
5, 25039, Pitch_bend_c, 3, 8000
5, 25041, Note_on_c, 3, 68, 0
5, 25041, Pitch_bend_c, 3, 7840
5, 25056, Pitch_bend_c, 3, 8192
5, 25058, Pitch_bend_c, 3, 8128
5, 25058, Note_on_c, 3, 68, 101
5, 25059, Pitch_bend_c, 3, 8096
5, 25061, Pitch_bend_c, 3, 8224
5, 25063, Pitch_bend_c, 3, 8192
5, 25066, Pitch_bend_c, 3, 8096
5, 25069, Pitch_bend_c, 3, 8064
5, 25070, Pitch_bend_c, 3, 7968
5, 25071, Pitch_bend_c, 3, 7936
5, 25074, Pitch_bend_c, 3, 7968
5, 25075, Note_on_c, 3, 68, 0
5, 25075, Pitch_bend_c, 3, 8096
5, 25077, Pitch_bend_c, 3, 8192
5, 25078, Note_on_c, 3, 65, 107
5, 25078, Pitch_bend_c, 3, 8032
5, 25079, Pitch_bend_c, 3, 8000
5, 25085, Pitch_bend_c, 3, 8032
5, 25089, Pitch_bend_c, 3, 8064
5, 25091, Pitch_bend_c, 3, 8032
5, 25093, Pitch_bend_c, 3, 8000
5, 25094, Pitch_bend_c, 3, 7776
5, 25095, Pitch_bend_c, 3, 8032
5, 25096, Note_on_c, 3, 65, 0
5, 25114, Pitch_bend_c, 3, 8192
5, 25114, Note_on_c, 3, 65, 102
5, 25116, Pitch_bend_c, 3, 8128
5, 25119, Pitch_bend_c, 3, 8096
5, 25120, Pitch_bend_c, 3, 8064
5, 25121, Pitch_bend_c, 3, 8032
5, 25123, Pitch_bend_c, 3, 8000
5, 25124, Pitch_bend_c, 3, 7712
5, 25126, Pitch_bend_c, 3, 7424
5, 25127, Note_on_c, 3, 65, 0
5, 25127, Pitch_bend_c, 3, 8032
5, 25138, Pitch_bend_c, 3, 8192
5, 25144, Note_on_c, 3, 68, 99
5, 25145, Pitch_bend_c, 3, 8128
5, 25150, Pitch_bend_c, 3, 8096
5, 25151, Pitch_bend_c, 3, 8000
5, 25153, Pitch_bend_c, 3, 7936
5, 25154, Pitch_bend_c, 3, 11552
5, 25157, Pitch_bend_c, 3, 11680
5, 25158, Pitch_bend_c, 3, 15744
5, 25159, Pitch_bend_c, 3, 15776
5, 25161, Pitch_bend_c, 3, 15840
5, 25162, Pitch_bend_c, 3, 15936
5, 25165, Note_on_c, 3, 68, 0
5, 25165, Pitch_bend_c, 3, 15808
5, 25173, Note_on_c, 3, 65, 108
5, 25173, Pitch_bend_c, 3, 8192
5, 25174, Pitch_bend_c, 3, 8608
5, 25179, Pitch_bend_c, 3, 8160
5, 25186, Pitch_bend_c, 3, 8096
5, 25187, Pitch_bend_c, 3, 8064
5, 25188, Pitch_bend_c, 3, 7840
5, 25190, Note_on_c, 3, 65, 0
5, 25190, Pitch_bend_c, 3, 7648
5, 25203, Pitch_bend_c, 3, 8064
5, 25203, Note_on_c, 3, 68, 99
5, 25204, Pitch_bend_c, 3, 8096
5, 25205, Pitch_bend_c, 3, 8192
5, 25209, Pitch_bend_c, 3, 8160
5, 25211, Pitch_bend_c, 3, 8128
5, 25213, Pitch_bend_c, 3, 8064
5, 25214, Pitch_bend_c, 3, 8032
5, 25217, Pitch_bend_c, 3, 8000
5, 25221, Pitch_bend_c, 3, 7968
5, 25223, Pitch_bend_c, 3, 7744
5, 25224, Note_on_c, 3, 68, 0
5, 25224, Pitch_bend_c, 3, 8064
5, 25225, Pitch_bend_c, 3, 8192
5, 25226, Note_on_c, 3, 65, 102
5, 25226, Pitch_bend_c, 3, 7936
5, 25228, Pitch_bend_c, 3, 7840
5, 25229, Pitch_bend_c, 3, 7904
5, 25235, Pitch_bend_c, 3, 8032
5, 25236, Note_on_c, 3, 65, 0
5, 25252, Pitch_bend_c, 3, 8192
5, 25252, Note_on_c, 3, 67, 101
5, 25253, Pitch_bend_c, 3, 7808
5, 25254, Pitch_bend_c, 3, 7968
5, 25256, Pitch_bend_c, 3, 8000
5, 25257, Pitch_bend_c, 3, 7904
5, 25259, Pitch_bend_c, 3, 7840
5, 25260, Pitch_bend_c, 3, 7872
5, 25261, Pitch_bend_c, 3, 11552
5, 25263, Pitch_bend_c, 3, 11584
5, 25264, Pitch_bend_c, 3, 11648
5, 25266, Pitch_bend_c, 3, 11680
5, 25267, Pitch_bend_c, 3, 11744
5, 25268, Pitch_bend_c, 3, 11776
5, 25270, Pitch_bend_c, 3, 11840
5, 25271, Pitch_bend_c, 3, 11872
5, 25279, Pitch_bend_c, 3, 11904
5, 25280, Pitch_bend_c, 3, 11712
5, 25281, Note_on_c, 3, 67, 0
5, 25281, Pitch_bend_c, 3, 11776
5, 25283, Pitch_bend_c, 3, 8192
5, 25284, Note_on_c, 3, 65, 107
5, 25295, Note_on_c, 3, 65, 0
5, 25298, Note_on_c, 3, 64, 105
5, 25299, Pitch_bend_c, 3, 8352
5, 25303, Pitch_bend_c, 3, 8320
5, 25305, Pitch_bend_c, 3, 8288
5, 25306, Pitch_bend_c, 3, 8256
5, 25307, Pitch_bend_c, 3, 8192
5, 25308, Pitch_bend_c, 3, 7808
5, 25310, Note_on_c, 3, 64, 0
5, 25310, Pitch_bend_c, 3, 8320
5, 25311, Pitch_bend_c, 3, 8192
5, 25312, Note_on_c, 3, 63, 103
5, 25316, Pitch_bend_c, 3, 8160
5, 25317, Pitch_bend_c, 3, 8128
5, 25319, Pitch_bend_c, 3, 8064
5, 25323, Pitch_bend_c, 3, 8032
5, 25324, Pitch_bend_c, 3, 8064
5, 25325, Pitch_bend_c, 3, 8032
5, 25327, Note_on_c, 3, 63, 0
5, 25327, Pitch_bend_c, 3, 8000
5, 25329, Pitch_bend_c, 3, 8192
5, 25330, Pitch_bend_c, 3, 8576
5, 25330, Note_on_c, 3, 61, 90
5, 25331, Pitch_bend_c, 3, 8192
5, 25333, Pitch_bend_c, 3, 8160
5, 25338, Pitch_bend_c, 3, 8128
5, 25339, Pitch_bend_c, 3, 8096
5, 25340, Pitch_bend_c, 3, 8064
5, 25342, Pitch_bend_c, 3, 8032
5, 25344, Pitch_bend_c, 3, 8000
5, 25345, Note_on_c, 3, 61, 0
5, 25345, Note_on_c, 3, 58, 70
5, 25346, Pitch_bend_c, 3, 8032
5, 25347, Pitch_bend_c, 3, 8128
5, 25348, Pitch_bend_c, 3, 8288
5, 25349, Pitch_bend_c, 3, 8384
5, 25352, Pitch_bend_c, 3, 8192
5, 25353, Pitch_bend_c, 3, 8160
5, 25354, Pitch_bend_c, 3, 8192
5, 25359, Pitch_bend_c, 3, 8000
5, 25361, Pitch_bend_c, 3, 8160
5, 25362, Pitch_bend_c, 3, 7968
5, 25365, Pitch_bend_c, 3, 8128
5, 25366, Pitch_bend_c, 3, 7840
5, 25367, Pitch_bend_c, 3, 7744
5, 25368, Note_on_c, 3, 58, 0
5, 25368, Pitch_bend_c, 3, 8000
5, 25370, Pitch_bend_c, 3, 8096
5, 25373, Note_on_c, 3, 56, 95
5, 25373, Pitch_bend_c, 3, 8192
5, 25374, Pitch_bend_c, 3, 8288
5, 25375, Pitch_bend_c, 3, 8352
5, 25376, Pitch_bend_c, 3, 8480
5, 25377, Pitch_bend_c, 3, 8416
5, 25378, Pitch_bend_c, 3, 8256
5, 25379, Pitch_bend_c, 3, 8224
5, 25380, Pitch_bend_c, 3, 8576
5, 25381, Pitch_bend_c, 3, 8896
5, 25382, Pitch_bend_c, 3, 9184
5, 25383, Pitch_bend_c, 3, 9280
5, 25384, Pitch_bend_c, 3, 8320
5, 25385, Pitch_bend_c, 3, 8288
5, 25386, Pitch_bend_c, 3, 8768
5, 25387, Pitch_bend_c, 3, 8416
5, 25388, Pitch_bend_c, 3, 8032
5, 25389, Pitch_bend_c, 3, 7936
5, 25390, Pitch_bend_c, 3, 8032
5, 25391, Note_on_c, 3, 56, 0
5, 25391, Pitch_bend_c, 3, 8320
5, 25394, Note_on_c, 3, 58, 79
5, 25394, Pitch_bend_c, 3, 8192
5, 25396, Pitch_bend_c, 3, 8096
5, 25397, Pitch_bend_c, 3, 8352
5, 25398, Pitch_bend_c, 3, 8416
5, 25399, Pitch_bend_c, 3, 8512
5, 25400, Pitch_bend_c, 3, 8416
5, 25402, Pitch_bend_c, 3, 8032
5, 25403, Pitch_bend_c, 3, 8192
5, 25404, Pitch_bend_c, 3, 8064
5, 25405, Pitch_bend_c, 3, 7584
5, 25407, Pitch_bend_c, 3, 7264
5, 25408, Note_on_c, 3, 58, 0
5, 25408, Pitch_bend_c, 3, 8096
5, 25418, Pitch_bend_c, 3, 8192
5, 25421, Pitch_bend_c, 3, 8320
5, 25421, Note_on_c, 3, 63, 90
5, 25422, Pitch_bend_c, 3, 8416
5, 25424, Pitch_bend_c, 3, 8448
5, 25425, Pitch_bend_c, 3, 8480
5, 25427, Pitch_bend_c, 3, 8544
5, 25428, Pitch_bend_c, 3, 8576
5, 25431, Pitch_bend_c, 3, 8480
5, 25432, Pitch_bend_c, 3, 8416
5, 25434, Pitch_bend_c, 3, 8352
5, 25435, Pitch_bend_c, 3, 8320
5, 25436, Pitch_bend_c, 3, 8288
5, 25438, Note_on_c, 3, 63, 0
5, 25438, Pitch_bend_c, 3, 8480
5, 25445, Pitch_bend_c, 3, 8192
5, 25446, Pitch_bend_c, 3, 8512
5, 25446, Note_on_c, 3, 63, 93
5, 25452, Pitch_bend_c, 3, 8480
5, 25455, Pitch_bend_c, 3, 8416
5, 25456, Pitch_bend_c, 3, 8384
5, 25458, Pitch_bend_c, 3, 8320
5, 25459, Note_on_c, 3, 63, 0
5, 25459, Pitch_bend_c, 3, 8256
5, 25464, Pitch_bend_c, 3, 8480
5, 25464, Note_on_c, 3, 63, 87
5, 25471, Pitch_bend_c, 3, 8448
5, 25472, Pitch_bend_c, 3, 8416
5, 25474, Pitch_bend_c, 3, 8352
5, 25475, Pitch_bend_c, 3, 8288
5, 25477, Note_on_c, 3, 63, 0
5, 25477, Pitch_bend_c, 3, 8480
5, 25486, Pitch_bend_c, 3, 8192
5, 25486, Note_on_c, 3, 61, 87
5, 25487, Pitch_bend_c, 3, 8768
5, 25488, Pitch_bend_c, 3, 8512
5, 25489, Pitch_bend_c, 3, 8480
5, 25492, Pitch_bend_c, 3, 8448
5, 25493, Pitch_bend_c, 3, 8416
5, 25495, Pitch_bend_c, 3, 8384
5, 25496, Pitch_bend_c, 3, 8320
5, 25498, Pitch_bend_c, 3, 8288
5, 25499, Pitch_bend_c, 3, 8352
5, 25500, Pitch_bend_c, 3, 8416
5, 25502, Pitch_bend_c, 3, 8448
5, 25503, Note_on_c, 3, 61, 0
5, 25514, Pitch_bend_c, 3, 8192
5, 25515, Pitch_bend_c, 3, 8480
5, 25515, Note_on_c, 3, 60, 81
5, 25516, Pitch_bend_c, 3, 8256
5, 25518, Pitch_bend_c, 3, 8128
5, 25520, Pitch_bend_c, 3, 8192
5, 25521, Pitch_bend_c, 3, 8224
5, 25523, Pitch_bend_c, 3, 8352
5, 25524, Pitch_bend_c, 3, 8384
5, 25527, Pitch_bend_c, 3, 8352
5, 25528, Pitch_bend_c, 3, 8320
5, 25529, Pitch_bend_c, 3, 8256
5, 25531, Note_on_c, 3, 60, 0
5, 25531, Pitch_bend_c, 3, 8384
5, 25535, Pitch_bend_c, 3, 8192
5, 25535, Note_on_c, 3, 61, 81
5, 25536, Pitch_bend_c, 3, 8288
5, 25537, Pitch_bend_c, 3, 8352
5, 25539, Pitch_bend_c, 3, 8448
5, 25541, Pitch_bend_c, 3, 8512
5, 25543, Pitch_bend_c, 3, 8544
5, 25545, Pitch_bend_c, 3, 8512
5, 25547, Pitch_bend_c, 3, 8480
5, 25548, Pitch_bend_c, 3, 8416
5, 25549, Pitch_bend_c, 3, 8352
5, 25551, Pitch_bend_c, 3, 8288
5, 25552, Pitch_bend_c, 3, 8256
5, 25555, Pitch_bend_c, 3, 8416
5, 25564, Note_on_c, 3, 61, 0
5, 25857, Pitch_bend_c, 3, 8192
5, 25858, Note_on_c, 3, 67, 101
5, 25858, Pitch_bend_c, 3, 8384
5, 25859, Pitch_bend_c, 3, 8064
5, 25860, Pitch_bend_c, 3, 8032
5, 25862, Pitch_bend_c, 3, 11808
5, 25868, Pitch_bend_c, 3, 11840
5, 25871, Pitch_bend_c, 3, 11904
5, 25872, Pitch_bend_c, 3, 11968
5, 25873, Pitch_bend_c, 3, 12000
5, 25875, Pitch_bend_c, 3, 12032
5, 25876, Pitch_bend_c, 3, 12064
5, 25877, Pitch_bend_c, 3, 12032
5, 25883, Pitch_bend_c, 3, 12064
5, 25885, Pitch_bend_c, 3, 12096
5, 25888, Note_on_c, 3, 67, 0
5, 25890, Note_on_c, 3, 68, 99
5, 25890, Pitch_bend_c, 3, 8192
5, 25891, Pitch_bend_c, 3, 8160
5, 25896, Pitch_bend_c, 3, 8128
5, 25899, Pitch_bend_c, 3, 8096
5, 25903, Pitch_bend_c, 3, 8064
5, 25906, Note_on_c, 3, 68, 0
5, 25906, Pitch_bend_c, 3, 8192
5, 25909, Note_on_c, 3, 65, 103
5, 25909, Pitch_bend_c, 3, 8544
5, 25910, Pitch_bend_c, 3, 8192
5, 25917, Pitch_bend_c, 3, 8160
5, 25918, Pitch_bend_c, 3, 8128
5, 25920, Pitch_bend_c, 3, 7904
5, 25921, Note_on_c, 3, 65, 0
5, 25921, Pitch_bend_c, 3, 8192
5, 25930, Note_on_c, 3, 68, 94
5, 25930, Pitch_bend_c, 3, 8416
5, 25931, Pitch_bend_c, 3, 8256
5, 25934, Pitch_bend_c, 3, 8224
5, 25936, Pitch_bend_c, 3, 8192
5, 25944, Note_on_c, 3, 68, 0
5, 25944, Pitch_bend_c, 3, 8224
5, 25947, Pitch_bend_c, 3, 8192
5, 25948, Note_on_c, 3, 65, 101
5, 25949, Pitch_bend_c, 3, 8288
5, 25954, Pitch_bend_c, 3, 8256
5, 25956, Pitch_bend_c, 3, 8192
5, 25960, Pitch_bend_c, 3, 8160
5, 25961, Pitch_bend_c, 3, 8192
5, 25962, Note_on_c, 3, 65, 0
5, 25962, Pitch_bend_c, 3, 8256
5, 25974, Note_on_c, 3, 63, 103
5, 25974, Pitch_bend_c, 3, 8192
5, 25975, Pitch_bend_c, 3, 8928
5, 25978, Pitch_bend_c, 3, 8768
5, 25980, Pitch_bend_c, 3, 8800
5, 25984, Pitch_bend_c, 3, 8992
5, 25985, Pitch_bend_c, 3, 9280
5, 25986, Pitch_bend_c, 3, 9664
5, 25988, Pitch_bend_c, 3, 9920
5, 25990, Pitch_bend_c, 3, 10080
5, 25992, Pitch_bend_c, 3, 9984
5, 25994, Pitch_bend_c, 3, 9728
5, 25995, Pitch_bend_c, 3, 9280
5, 25997, Pitch_bend_c, 3, 8896
5, 25998, Pitch_bend_c, 3, 8640
5, 26000, Pitch_bend_c, 3, 8800
5, 26003, Pitch_bend_c, 3, 8512
5, 26004, Pitch_bend_c, 3, 8896
5, 26005, Note_on_c, 3, 63, 0
5, 26006, Pitch_bend_c, 3, 8192
5, 26007, Pitch_bend_c, 3, 8896
5, 26007, Note_on_c, 3, 61, 100
5, 26008, Pitch_bend_c, 3, 8768
5, 26011, Pitch_bend_c, 3, 8800
5, 26015, Note_on_c, 3, 61, 0
5, 26016, Pitch_bend_c, 3, 8192
5, 26017, Note_on_c, 3, 58, 88
5, 26017, Pitch_bend_c, 3, 8032
5, 26018, Pitch_bend_c, 3, 8096
5, 26021, Pitch_bend_c, 3, 8128
5, 26028, Pitch_bend_c, 3, 8096
5, 26034, Pitch_bend_c, 3, 8128
5, 26038, Pitch_bend_c, 3, 8096
5, 26041, Pitch_bend_c, 3, 8064
5, 26045, Pitch_bend_c, 3, 8096
5, 26046, Pitch_bend_c, 3, 8064
5, 26048, Pitch_bend_c, 3, 8032
5, 26049, Pitch_bend_c, 3, 7968
5, 26050, Note_on_c, 3, 58, 0
5, 26050, Pitch_bend_c, 3, 8096
5, 26051, Note_on_c, 3, 57, 99
5, 26051, Pitch_bend_c, 3, 8352
5, 26052, Pitch_bend_c, 3, 8320
5, 26054, Pitch_bend_c, 3, 8256
5, 26056, Pitch_bend_c, 3, 8192
5, 26057, Pitch_bend_c, 3, 8160
5, 26059, Pitch_bend_c, 3, 12064
5, 26065, Pitch_bend_c, 3, 12096
5, 26067, Pitch_bend_c, 3, 12128
5, 26068, Pitch_bend_c, 3, 12160
5, 26069, Note_on_c, 3, 57, 0
5, 26071, Note_on_c, 3, 58, 99
5, 26071, Pitch_bend_c, 3, 8192
5, 26072, Pitch_bend_c, 3, 8128
5, 26073, Pitch_bend_c, 3, 8096
5, 26075, Pitch_bend_c, 3, 8128
5, 26084, Pitch_bend_c, 3, 8160
5, 26086, Note_on_c, 3, 58, 0
5, 26087, Note_on_c, 3, 58, 87
5, 26087, Pitch_bend_c, 3, 8192
5, 26091, Pitch_bend_c, 3, 8128
5, 26093, Pitch_bend_c, 3, 8096
5, 26096, Pitch_bend_c, 3, 8128
5, 26097, Pitch_bend_c, 3, 8096
5, 26101, Pitch_bend_c, 3, 8064
5, 26102, Pitch_bend_c, 3, 8032
5, 26104, Pitch_bend_c, 3, 7840
5, 26105, Note_on_c, 3, 58, 0
5, 26105, Pitch_bend_c, 3, 8096
5, 26106, Pitch_bend_c, 3, 8192
5, 26107, Note_on_c, 3, 61, 100
5, 26107, Pitch_bend_c, 3, 8512
5, 26108, Pitch_bend_c, 3, 8352
5, 26109, Pitch_bend_c, 3, 8416
5, 26110, Pitch_bend_c, 3, 8384
5, 26111, Pitch_bend_c, 3, 8416
5, 26113, Pitch_bend_c, 3, 8448
5, 26116, Pitch_bend_c, 3, 8384
5, 26117, Pitch_bend_c, 3, 8352
5, 26118, Pitch_bend_c, 3, 8256
5, 26119, Pitch_bend_c, 3, 8448
5, 26120, Note_on_c, 3, 61, 0
5, 26131, Pitch_bend_c, 3, 8160
5, 26131, Note_on_c, 3, 58, 81
5, 26133, Pitch_bend_c, 3, 8128
5, 26136, Pitch_bend_c, 3, 8160
5, 26137, Pitch_bend_c, 3, 8320
5, 26140, Pitch_bend_c, 3, 128
5, 26141, Pitch_bend_c, 3, 96
5, 26143, Pitch_bend_c, 3, 64
5, 26147, Pitch_bend_c, 3, 96
5, 26148, Pitch_bend_c, 3, 160
5, 26149, Pitch_bend_c, 3, 128
5, 26151, Note_on_c, 3, 58, 0
5, 26151, Note_on_c, 3, 53, 88
5, 26151, Pitch_bend_c, 3, 8000
5, 26154, Pitch_bend_c, 3, 8064
5, 26155, Pitch_bend_c, 3, 8160
5, 26157, Pitch_bend_c, 3, 8288
5, 26158, Pitch_bend_c, 3, 8352
5, 26161, Pitch_bend_c, 3, 8256
5, 26162, Pitch_bend_c, 3, 8128
5, 26163, Pitch_bend_c, 3, 8064
5, 26166, Pitch_bend_c, 3, 8032
5, 26168, Pitch_bend_c, 3, 8000
5, 26171, Pitch_bend_c, 3, 7968
5, 26172, Pitch_bend_c, 3, 7904
5, 26185, Pitch_bend_c, 3, 7872
5, 26187, Pitch_bend_c, 3, 7584
5, 26188, Note_on_c, 3, 53, 0
5, 26719, Pitch_bend_c, 3, 8192
5, 26720, Note_on_c, 3, 67, 101
5, 26725, Pitch_bend_c, 3, 8288
5, 26726, Pitch_bend_c, 3, 12064
5, 26727, Pitch_bend_c, 3, 12096
5, 26730, Pitch_bend_c, 3, 12128
5, 26734, Pitch_bend_c, 3, 12160
5, 26741, Pitch_bend_c, 3, 12256
5, 26742, Pitch_bend_c, 3, 12320
5, 26744, Pitch_bend_c, 3, 12448
5, 26745, Pitch_bend_c, 3, 12544
5, 26746, Pitch_bend_c, 3, 12576
5, 26750, Pitch_bend_c, 3, 12512
5, 26752, Pitch_bend_c, 3, 12352
5, 26753, Pitch_bend_c, 3, 12192
5, 26754, Pitch_bend_c, 3, 12032
5, 26756, Pitch_bend_c, 3, 12000
5, 26759, Pitch_bend_c, 3, 12128
5, 26760, Pitch_bend_c, 3, 12288
5, 26761, Pitch_bend_c, 3, 12416
5, 26762, Pitch_bend_c, 3, 12544
5, 26764, Pitch_bend_c, 3, 12608
5, 26766, Pitch_bend_c, 3, 12640
5, 26768, Pitch_bend_c, 3, 12608
5, 26771, Pitch_bend_c, 3, 12544
5, 26772, Pitch_bend_c, 3, 12416
5, 26774, Pitch_bend_c, 3, 12288
5, 26775, Pitch_bend_c, 3, 12128
5, 26776, Pitch_bend_c, 3, 12032
5, 26779, Pitch_bend_c, 3, 12160
5, 26781, Pitch_bend_c, 3, 12288
5, 26782, Pitch_bend_c, 3, 12416
5, 26783, Pitch_bend_c, 3, 12544
5, 26785, Pitch_bend_c, 3, 12576
5, 26786, Pitch_bend_c, 3, 12544
5, 26788, Pitch_bend_c, 3, 12512
5, 26789, Pitch_bend_c, 3, 12480
5, 26790, Pitch_bend_c, 3, 12352
5, 26792, Pitch_bend_c, 3, 12224
5, 26793, Pitch_bend_c, 3, 12096
5, 26794, Pitch_bend_c, 3, 12032
5, 26797, Pitch_bend_c, 3, 12064
5, 26798, Pitch_bend_c, 3, 12096
5, 26803, Pitch_bend_c, 3, 12064
5, 26804, Pitch_bend_c, 3, 12032
5, 26806, Note_on_c, 3, 67, 0
5, 26809, Pitch_bend_c, 3, 8192
5, 26810, Note_on_c, 3, 65, 105
5, 26810, Pitch_bend_c, 3, 8896
5, 26821, Pitch_bend_c, 3, 8160
5, 26823, Pitch_bend_c, 3, 8128
5, 26824, Pitch_bend_c, 3, 8096
5, 26825, Pitch_bend_c, 3, 8000
5, 26827, Pitch_bend_c, 3, 7808
5, 26828, Note_on_c, 3, 65, 0
5, 26828, Pitch_bend_c, 3, 8128
5, 26840, Pitch_bend_c, 3, 8192
5, 26841, Note_on_c, 3, 68, 99
5, 26842, Pitch_bend_c, 3, 8256
5, 26846, Pitch_bend_c, 3, 8224
5, 26851, Pitch_bend_c, 3, 8192
5, 26854, Pitch_bend_c, 3, 8160
5, 26855, Pitch_bend_c, 3, 8064
5, 26856, Pitch_bend_c, 3, 8032
5, 26858, Note_on_c, 3, 68, 0
5, 26858, Pitch_bend_c, 3, 8192
5, 26871, Note_on_c, 3, 67, 103
5, 26872, Pitch_bend_c, 3, 8288
5, 26873, Pitch_bend_c, 3, 8320
5, 26874, Pitch_bend_c, 3, 8256
5, 26875, Pitch_bend_c, 3, 8032
5, 26877, Pitch_bend_c, 3, 7936
5, 26878, Pitch_bend_c, 3, 8000
5, 26879, Pitch_bend_c, 3, 12000
5, 26896, Pitch_bend_c, 3, 11968
5, 26899, Pitch_bend_c, 3, 12000
5, 26902, Note_on_c, 3, 67, 0
5, 26907, Pitch_bend_c, 3, 8160
5, 26907, Note_on_c, 3, 65, 104
5, 26909, Pitch_bend_c, 3, 8192
5, 26912, Pitch_bend_c, 3, 8160
5, 26913, Pitch_bend_c, 3, 8128
5, 26917, Pitch_bend_c, 3, 8096
5, 26919, Pitch_bend_c, 3, 8064
5, 26921, Note_on_c, 3, 65, 0
5, 26921, Pitch_bend_c, 3, 8192
5, 26923, Pitch_bend_c, 3, 8128
5, 26923, Note_on_c, 3, 65, 97
5, 26926, Pitch_bend_c, 3, 7456
5, 26927, Pitch_bend_c, 3, 7712
5, 26929, Pitch_bend_c, 3, 7904
5, 26930, Pitch_bend_c, 3, 8064
5, 26931, Pitch_bend_c, 3, 8096
5, 26934, Note_on_c, 3, 65, 0
5, 26938, Pitch_bend_c, 3, 8192
5, 26939, Note_on_c, 3, 67, 95
5, 26939, Pitch_bend_c, 3, 12128
5, 26942, Pitch_bend_c, 3, 12096
5, 26943, Pitch_bend_c, 3, 12128
5, 26946, Pitch_bend_c, 3, 12096
5, 26947, Pitch_bend_c, 3, 12064
5, 26949, Pitch_bend_c, 3, 12000
5, 26952, Pitch_bend_c, 3, 12032
5, 26953, Pitch_bend_c, 3, 12000
5, 26954, Note_on_c, 3, 67, 0
5, 26954, Pitch_bend_c, 3, 12096
5, 26967, Pitch_bend_c, 3, 8192
5, 26968, Note_on_c, 3, 65, 96
5, 26968, Pitch_bend_c, 3, 8160
5, 26976, Pitch_bend_c, 3, 8128
5, 26978, Pitch_bend_c, 3, 8096
5, 26982, Note_on_c, 3, 65, 0
5, 26982, Pitch_bend_c, 3, 8192
5, 26982, Note_on_c, 3, 63, 76
5, 26983, Pitch_bend_c, 3, 7968
5, 26986, Pitch_bend_c, 3, 7936
5, 26991, Pitch_bend_c, 3, 7968
5, 26993, Pitch_bend_c, 3, 8000
5, 26995, Note_on_c, 3, 63, 0
5, 26998, Note_on_c, 3, 65, 93
5, 26998, Pitch_bend_c, 3, 7936
5, 27000, Pitch_bend_c, 3, 8032
5, 27001, Pitch_bend_c, 3, 8096
5, 27006, Pitch_bend_c, 3, 8128
5, 27007, Pitch_bend_c, 3, 8096
5, 27017, Pitch_bend_c, 3, 8064
5, 27019, Pitch_bend_c, 3, 8000
5, 27020, Note_on_c, 3, 65, 0
5, 27020, Pitch_bend_c, 3, 8096
5, 27034, Pitch_bend_c, 3, 8192
5, 27035, Note_on_c, 3, 61, 99
5, 27035, Pitch_bend_c, 3, 8288
5, 27036, Pitch_bend_c, 3, 8128
5, 27040, Pitch_bend_c, 3, 8192
5, 27044, Pitch_bend_c, 3, 8160
5, 27046, Pitch_bend_c, 3, 8032
5, 27047, Pitch_bend_c, 3, 7808
5, 27048, Note_on_c, 3, 61, 0
5, 27048, Pitch_bend_c, 3, 8160
5, 27056, Note_on_c, 3, 63, 101
5, 27057, Pitch_bend_c, 3, 8192
5, 27059, Pitch_bend_c, 3, 8160
5, 27061, Pitch_bend_c, 3, 8128
5, 27062, Pitch_bend_c, 3, 8160
5, 27066, Pitch_bend_c, 3, 8128
5, 27069, Pitch_bend_c, 3, 8096
5, 27070, Pitch_bend_c, 3, 8064
5, 27073, Pitch_bend_c, 3, 8096
5, 27075, Note_on_c, 3, 63, 0
5, 27075, Pitch_bend_c, 3, 8128
5, 27077, Pitch_bend_c, 3, 8192
5, 27077, Note_on_c, 3, 63, 94
5, 27078, Pitch_bend_c, 3, 8064
5, 27085, Pitch_bend_c, 3, 8032
5, 27087, Pitch_bend_c, 3, 8000
5, 27090, Pitch_bend_c, 3, 7904
5, 27091, Pitch_bend_c, 3, 7840
5, 27092, Note_on_c, 3, 63, 0
5, 27092, Pitch_bend_c, 3, 8032
5, 27096, Pitch_bend_c, 3, 8192
5, 27097, Note_on_c, 3, 61, 81
5, 27097, Pitch_bend_c, 3, 8000
5, 27098, Pitch_bend_c, 3, 8064
5, 27105, Note_on_c, 3, 61, 0
5, 27114, Pitch_bend_c, 3, 8192
5, 27115, Note_on_c, 3, 65, 105
5, 27126, Pitch_bend_c, 3, 8128
5, 27127, Pitch_bend_c, 3, 8096
5, 27130, Pitch_bend_c, 3, 8064
5, 27131, Pitch_bend_c, 3, 8096
5, 27138, Pitch_bend_c, 3, 8064
5, 27140, Note_on_c, 3, 65, 0
5, 27142, Pitch_bend_c, 3, 8192
5, 27143, Note_on_c, 3, 68, 100
5, 27144, Pitch_bend_c, 3, 8128
5, 27145, Pitch_bend_c, 3, 8160
5, 27148, Pitch_bend_c, 3, 8192
5, 27152, Pitch_bend_c, 3, 8160
5, 27154, Pitch_bend_c, 3, 8128
5, 27157, Pitch_bend_c, 3, 8096
5, 27162, Pitch_bend_c, 3, 8064
5, 27166, Pitch_bend_c, 3, 8032
5, 27168, Pitch_bend_c, 3, 8064
5, 27170, Pitch_bend_c, 3, 8192
5, 27171, Pitch_bend_c, 3, 8544
5, 27173, Pitch_bend_c, 3, 8992
5, 27174, Pitch_bend_c, 3, 9472
5, 27175, Pitch_bend_c, 3, 9856
5, 27177, Note_on_c, 3, 68, 0
5, 27177, Pitch_bend_c, 3, 10016
5, 27292, Pitch_bend_c, 3, 8192
5, 27295, Note_on_c, 3, 69, 94
5, 27296, Pitch_bend_c, 3, 8128
5, 27297, Pitch_bend_c, 3, 7936
5, 27299, Pitch_bend_c, 3, 7904
5, 27300, Pitch_bend_c, 3, 7808
5, 27301, Pitch_bend_c, 3, 7712
5, 27302, Pitch_bend_c, 3, 11520
5, 27305, Pitch_bend_c, 3, 11584
5, 27307, Pitch_bend_c, 3, 11648
5, 27308, Pitch_bend_c, 3, 11680
5, 27309, Pitch_bend_c, 3, 11744
5, 27311, Pitch_bend_c, 3, 11808
5, 27312, Pitch_bend_c, 3, 11840
5, 27313, Pitch_bend_c, 3, 11872
5, 27315, Pitch_bend_c, 3, 11904
5, 27316, Pitch_bend_c, 3, 11936
5, 27317, Pitch_bend_c, 3, 12000
5, 27319, Pitch_bend_c, 3, 12096
5, 27320, Pitch_bend_c, 3, 12160
5, 27321, Pitch_bend_c, 3, 12224
5, 27323, Pitch_bend_c, 3, 12256
5, 27325, Pitch_bend_c, 3, 12224
5, 27327, Pitch_bend_c, 3, 12160
5, 27328, Pitch_bend_c, 3, 12096
5, 27329, Pitch_bend_c, 3, 12000
5, 27330, Pitch_bend_c, 3, 11968
5, 27332, Pitch_bend_c, 3, 11936
5, 27337, Pitch_bend_c, 3, 11904
5, 27338, Pitch_bend_c, 3, 11872
5, 27340, Pitch_bend_c, 3, 11840
5, 27342, Pitch_bend_c, 3, 11808
5, 27345, Pitch_bend_c, 3, 11840
5, 27346, Note_on_c, 3, 69, 0
5, 27346, Pitch_bend_c, 3, 11904
5, 27348, Pitch_bend_c, 3, 8192
5, 27349, Pitch_bend_c, 3, 7936
5, 27349, Note_on_c, 3, 68, 98
5, 27350, Pitch_bend_c, 3, 7968
5, 27353, Pitch_bend_c, 3, 8000
5, 27355, Pitch_bend_c, 3, 7968
5, 27357, Pitch_bend_c, 3, 7936
5, 27364, Pitch_bend_c, 3, 7904
5, 27366, Pitch_bend_c, 3, 7968
5, 27367, Note_on_c, 3, 68, 0
5, 27369, Pitch_bend_c, 3, 8192
5, 27370, Pitch_bend_c, 3, 7904
5, 27370, Note_on_c, 3, 65, 72
5, 27375, Note_on_c, 3, 65, 0
5, 27375, Pitch_bend_c, 3, 7872
5, 27391, Pitch_bend_c, 3, 8192
5, 27391, Note_on_c, 3, 68, 104
5, 27392, Pitch_bend_c, 3, 8000
5, 27395, Pitch_bend_c, 3, 8032
5, 27411, Pitch_bend_c, 3, 8000
5, 27415, Pitch_bend_c, 3, 7968
5, 27421, Pitch_bend_c, 3, 7936
5, 27427, Pitch_bend_c, 3, 7904
5, 27428, Pitch_bend_c, 3, 7840
5, 27429, Pitch_bend_c, 3, 7808
5, 27430, Pitch_bend_c, 3, 7776
5, 27432, Pitch_bend_c, 3, 7680
5, 27433, Pitch_bend_c, 3, 7904
5, 27451, Note_on_c, 3, 68, 0
5, 27471, Pitch_bend_c, 3, 8192
5, 27474, Note_on_c, 3, 63, 105
5, 27477, Pitch_bend_c, 3, 8224
5, 27478, Pitch_bend_c, 3, 8192
5, 27479, Pitch_bend_c, 3, 8160
5, 27481, Pitch_bend_c, 3, 8064
5, 27482, Pitch_bend_c, 3, 8096
5, 27485, Pitch_bend_c, 3, 8000
5, 27487, Pitch_bend_c, 3, 8096
5, 27488, Pitch_bend_c, 3, 8256
5, 27490, Pitch_bend_c, 3, 8608
5, 27491, Pitch_bend_c, 3, 9120
5, 27493, Pitch_bend_c, 3, 9664
5, 27494, Pitch_bend_c, 3, 10272
5, 27495, Pitch_bend_c, 3, 10784
5, 27497, Pitch_bend_c, 3, 11136
5, 27498, Pitch_bend_c, 3, 11328
5, 27499, Pitch_bend_c, 3, 11392
5, 27500, Pitch_bend_c, 3, 11456
5, 27502, Pitch_bend_c, 3, 11424
5, 27504, Pitch_bend_c, 3, 11392
5, 27506, Pitch_bend_c, 3, 11328
5, 27507, Pitch_bend_c, 3, 11296
5, 27508, Pitch_bend_c, 3, 11264
5, 27510, Pitch_bend_c, 3, 11232
5, 27511, Pitch_bend_c, 3, 11136
5, 27512, Pitch_bend_c, 3, 10944
5, 27513, Pitch_bend_c, 3, 10400
5, 27515, Pitch_bend_c, 3, 9696
5, 27516, Pitch_bend_c, 3, 8960
5, 27518, Pitch_bend_c, 3, 8320
5, 27519, Pitch_bend_c, 3, 8000
5, 27520, Pitch_bend_c, 3, 7808
5, 27522, Pitch_bend_c, 3, 7680
5, 27523, Pitch_bend_c, 3, 7616
5, 27524, Pitch_bend_c, 3, 7552
5, 27528, Pitch_bend_c, 3, 7808
5, 27529, Note_on_c, 3, 63, 0
5, 27529, Pitch_bend_c, 3, 8192
5, 27530, Pitch_bend_c, 3, 8032
5, 27530, Note_on_c, 3, 61, 97
5, 27535, Pitch_bend_c, 3, 7968
5, 27536, Pitch_bend_c, 3, 8000
5, 27538, Pitch_bend_c, 3, 8032
5, 27539, Note_on_c, 3, 61, 0
5, 27539, Pitch_bend_c, 3, 8192
5, 27540, Pitch_bend_c, 3, 8128
5, 27540, Note_on_c, 3, 63, 103
5, 27546, Pitch_bend_c, 3, 8096
5, 27547, Pitch_bend_c, 3, 8000
5, 27549, Pitch_bend_c, 3, 7968
5, 27550, Pitch_bend_c, 3, 7936
5, 27551, Pitch_bend_c, 3, 7872
5, 27554, Pitch_bend_c, 3, 7904
5, 27559, Pitch_bend_c, 3, 7872
5, 27562, Pitch_bend_c, 3, 7840
5, 27563, Pitch_bend_c, 3, 7872
5, 27571, Pitch_bend_c, 3, 7936
5, 27572, Pitch_bend_c, 3, 8064
5, 27574, Pitch_bend_c, 3, 8416
5, 27575, Pitch_bend_c, 3, 8960
5, 27576, Pitch_bend_c, 3, 9760
5, 27578, Pitch_bend_c, 3, 10560
5, 27579, Pitch_bend_c, 3, 11232
5, 27580, Pitch_bend_c, 3, 11648
5, 27582, Pitch_bend_c, 3, 11808
5, 27583, Pitch_bend_c, 3, 11712
5, 27584, Pitch_bend_c, 3, 9472
5, 27586, Pitch_bend_c, 3, 9280
5, 27587, Pitch_bend_c, 3, 11808
5, 27588, Note_on_c, 3, 63, 0
5, 27588, Pitch_bend_c, 3, 8192
5, 27589, Note_on_c, 3, 65, 109
5, 27590, Pitch_bend_c, 3, 8128
5, 27591, Pitch_bend_c, 3, 8160
5, 27593, Pitch_bend_c, 3, 8192
5, 27594, Pitch_bend_c, 3, 8128
5, 27596, Pitch_bend_c, 3, 8064
5, 27597, Pitch_bend_c, 3, 8032
5, 27598, Pitch_bend_c, 3, 7968
5, 27603, Pitch_bend_c, 3, 8000
5, 27604, Pitch_bend_c, 3, 8032
5, 27605, Pitch_bend_c, 3, 7968
5, 27607, Note_on_c, 3, 65, 0
5, 27607, Pitch_bend_c, 3, 8032
5, 27610, Pitch_bend_c, 3, 8192
5, 27611, Pitch_bend_c, 3, 8544
5, 27611, Note_on_c, 3, 61, 104
5, 27612, Pitch_bend_c, 3, 8128
5, 27614, Pitch_bend_c, 3, 8160
5, 27615, Pitch_bend_c, 3, 8192
5, 27617, Pitch_bend_c, 3, 8256
5, 27618, Pitch_bend_c, 3, 8352
5, 27620, Pitch_bend_c, 3, 8320
5, 27622, Pitch_bend_c, 3, 8288
5, 27623, Pitch_bend_c, 3, 8224
5, 27625, Pitch_bend_c, 3, 8160
5, 27626, Pitch_bend_c, 3, 8128
5, 27627, Pitch_bend_c, 3, 8064
5, 27629, Pitch_bend_c, 3, 8032
5, 27630, Pitch_bend_c, 3, 8000
5, 27631, Pitch_bend_c, 3, 7968
5, 27632, Pitch_bend_c, 3, 7936
5, 27638, Pitch_bend_c, 3, 7904
5, 27639, Pitch_bend_c, 3, 7936
5, 27643, Pitch_bend_c, 3, 7968
5, 27645, Pitch_bend_c, 3, 8000
5, 27646, Pitch_bend_c, 3, 8032
5, 27647, Pitch_bend_c, 3, 8064
5, 27648, Pitch_bend_c, 3, 8128
5, 27650, Pitch_bend_c, 3, 8224
5, 27651, Pitch_bend_c, 3, 8384
5, 27652, Pitch_bend_c, 3, 8736
5, 27654, Pitch_bend_c, 3, 9184
5, 27655, Pitch_bend_c, 3, 9856
5, 27656, Pitch_bend_c, 3, 10528
5, 27658, Pitch_bend_c, 3, 11072
5, 27659, Pitch_bend_c, 3, 11520
5, 27660, Pitch_bend_c, 3, 11744
5, 27662, Pitch_bend_c, 3, 11872
5, 27663, Pitch_bend_c, 3, 11904
5, 27664, Pitch_bend_c, 3, 11840
5, 27666, Note_on_c, 3, 61, 0
5, 27666, Pitch_bend_c, 3, 11776
5, 27668, Pitch_bend_c, 3, 8192
5, 27669, Pitch_bend_c, 3, 8064
5, 27669, Note_on_c, 3, 58, 74
5, 27671, Pitch_bend_c, 3, 8128
5, 27672, Pitch_bend_c, 3, 8192
5, 27674, Pitch_bend_c, 3, 8224
5, 27675, Pitch_bend_c, 3, 8256
5, 27676, Pitch_bend_c, 3, 8288
5, 27678, Pitch_bend_c, 3, 8256
5, 27680, Pitch_bend_c, 3, 8224
5, 27682, Pitch_bend_c, 3, 8192
5, 27687, Pitch_bend_c, 3, 8160
5, 27690, Pitch_bend_c, 3, 8192
5, 27702, Pitch_bend_c, 3, 8160
5, 27703, Pitch_bend_c, 3, 8192
5, 27704, Pitch_bend_c, 3, 8224
5, 27706, Pitch_bend_c, 3, 8352
5, 27707, Pitch_bend_c, 3, 8512
5, 27708, Pitch_bend_c, 3, 8608
5, 27710, Pitch_bend_c, 3, 8576
5, 27711, Pitch_bend_c, 3, 8480
5, 27712, Pitch_bend_c, 3, 8288
5, 27713, Pitch_bend_c, 3, 8192
5, 27715, Pitch_bend_c, 3, 8128
5, 27720, Pitch_bend_c, 3, 8096
5, 27721, Pitch_bend_c, 3, 8128
5, 27723, Pitch_bend_c, 3, 8192
5, 27724, Pitch_bend_c, 3, 8320
5, 27726, Pitch_bend_c, 3, 8512
5, 27727, Pitch_bend_c, 3, 8672
5, 27728, Pitch_bend_c, 3, 8736
5, 27729, Pitch_bend_c, 3, 8608
5, 27731, Pitch_bend_c, 3, 8384
5, 27732, Pitch_bend_c, 3, 8192
5, 27733, Pitch_bend_c, 3, 8096
5, 27734, Pitch_bend_c, 3, 8032
5, 27736, Pitch_bend_c, 3, 8000
5, 27737, Pitch_bend_c, 3, 7968
5, 27739, Pitch_bend_c, 3, 7936
5, 27740, Pitch_bend_c, 3, 8000
5, 27741, Pitch_bend_c, 3, 8096
5, 27743, Pitch_bend_c, 3, 8192
5, 27744, Pitch_bend_c, 3, 8288
5, 27745, Pitch_bend_c, 3, 8256
5, 27746, Pitch_bend_c, 3, 8192
5, 27748, Pitch_bend_c, 3, 8096
5, 27749, Pitch_bend_c, 3, 8000
5, 27750, Pitch_bend_c, 3, 7936
5, 27752, Pitch_bend_c, 3, 7872
5, 27756, Pitch_bend_c, 3, 7936
5, 27757, Pitch_bend_c, 3, 8000
5, 27758, Pitch_bend_c, 3, 7744
5, 27760, Note_on_c, 3, 58, 0
5, 27760, Pitch_bend_c, 3, 8192
5, 27760, End_track
6, 0, Start_track
6, 0, MIDI_port, 0
6, 0, Sequencer_specific, 7, 0, 0, 0, 106, 0, 4, 0
6, 119, Control_c, 5, 11, 127
6, 120, Control_c, 5, 91, 70
6, 120, Control_c, 5, 93, 0
6, 123, Program_c, 5, 29
6, 124, Control_c, 5, 7, 85
6, 124, Control_c, 5, 10, 65
6, 675, Note_on_c, 5, 65, 75
6, 675, Pitch_bend_c, 5, 8448
6, 676, Control_c, 5, 1, 0
6, 680, Pitch_bend_c, 5, 8416
6, 681, Pitch_bend_c, 5, 8384
6, 683, Pitch_bend_c, 5, 8352
6, 684, Pitch_bend_c, 5, 8320
6, 685, Pitch_bend_c, 5, 8288
6, 688, Pitch_bend_c, 5, 8224
6, 689, Pitch_bend_c, 5, 8192
6, 693, Pitch_bend_c, 5, 8224
6, 694, Pitch_bend_c, 5, 8192
6, 698, Pitch_bend_c, 5, 8160
6, 703, Pitch_bend_c, 5, 8192
6, 704, Note_on_c, 5, 65, 0
6, 706, Note_on_c, 5, 67, 73
6, 707, Pitch_bend_c, 5, 8224
6, 710, Pitch_bend_c, 5, 8192
6, 725, Pitch_bend_c, 5, 8160
6, 727, Pitch_bend_c, 5, 8128
6, 728, Pitch_bend_c, 5, 8064
6, 729, Pitch_bend_c, 5, 8032
6, 730, Pitch_bend_c, 5, 8064
6, 732, Pitch_bend_c, 5, 7936
6, 733, Note_on_c, 5, 67, 0
6, 733, Pitch_bend_c, 5, 8064
6, 735, Note_on_c, 5, 70, 71
6, 735, Pitch_bend_c, 5, 7776
6, 736, Pitch_bend_c, 5, 7936
6, 737, Pitch_bend_c, 5, 8032
6, 738, Pitch_bend_c, 5, 8000
6, 741, Pitch_bend_c, 5, 7968
6, 742, Pitch_bend_c, 5, 7936
6, 744, Pitch_bend_c, 5, 7904
6, 745, Pitch_bend_c, 5, 7872
6, 746, Pitch_bend_c, 5, 7808
6, 747, Pitch_bend_c, 5, 7776
6, 753, Pitch_bend_c, 5, 7808
6, 754, Pitch_bend_c, 5, 7776
6, 755, Pitch_bend_c, 5, 7808
6, 757, Pitch_bend_c, 5, 7840
6, 759, Pitch_bend_c, 5, 7872
6, 760, Pitch_bend_c, 5, 16000
6, 762, Note_on_c, 5, 70, 0
6, 764, Pitch_bend_c, 5, 8192
6, 765, Note_on_c, 5, 72, 89
6, 766, Pitch_bend_c, 5, 8288
6, 769, Pitch_bend_c, 5, 8224
6, 770, Pitch_bend_c, 5, 8192
6, 773, Pitch_bend_c, 5, 8224
6, 774, Pitch_bend_c, 5, 8512
6, 775, Pitch_bend_c, 5, 9088
6, 777, Pitch_bend_c, 5, 11392
6, 778, Pitch_bend_c, 5, 11488
6, 779, Pitch_bend_c, 5, 11552
6, 781, Note_on_c, 5, 72, 0
6, 781, Pitch_bend_c, 5, 11648
6, 799, Note_on_c, 5, 70, 89
6, 799, Pitch_bend_c, 5, 8128
6, 800, Pitch_bend_c, 5, 8160
6, 804, Pitch_bend_c, 5, 8128
6, 805, Pitch_bend_c, 5, 16160
6, 808, Pitch_bend_c, 5, 16096
6, 811, Pitch_bend_c, 5, 16128
6, 812, Pitch_bend_c, 5, 7968
6, 814, Pitch_bend_c, 5, 8000
6, 817, Pitch_bend_c, 5, 8064
6, 818, Pitch_bend_c, 5, 8096
6, 819, Note_on_c, 5, 70, 0
6, 822, Pitch_bend_c, 5, 8192
6, 823, Note_on_c, 5, 67, 35
6, 823, Pitch_bend_c, 5, 8128
6, 824, Pitch_bend_c, 5, 8064
6, 828, Pitch_bend_c, 5, 8128
6, 830, Pitch_bend_c, 5, 8160
6, 831, Pitch_bend_c, 5, 8192
6, 832, Note_on_c, 5, 67, 0
6, 833, Note_on_c, 5, 70, 91
6, 834, Pitch_bend_c, 5, 8000
6, 841, Pitch_bend_c, 5, 8032
6, 844, Pitch_bend_c, 5, 8064
6, 846, Pitch_bend_c, 5, 8096
6, 847, Note_on_c, 5, 70, 0
6, 849, Pitch_bend_c, 5, 8192
6, 850, Note_on_c, 5, 72, 84
6, 850, Pitch_bend_c, 5, 8000
6, 851, Pitch_bend_c, 5, 7936
6, 859, Pitch_bend_c, 5, 7904
6, 860, Pitch_bend_c, 5, 7872
6, 861, Note_on_c, 5, 72, 0
6, 861, Pitch_bend_c, 5, 8000
6, 863, Pitch_bend_c, 5, 8192
6, 864, Note_on_c, 5, 70, 91
6, 864, Pitch_bend_c, 5, 8000
6, 878, Pitch_bend_c, 5, 7968
6, 881, Pitch_bend_c, 5, 7936
6, 883, Pitch_bend_c, 5, 7904
6, 885, Pitch_bend_c, 5, 7872
6, 886, Pitch_bend_c, 5, 7840
6, 887, Pitch_bend_c, 5, 7808
6, 888, Pitch_bend_c, 5, 7776
6, 892, Pitch_bend_c, 5, 7808
6, 895, Pitch_bend_c, 5, 7840
6, 904, Pitch_bend_c, 5, 7872
6, 908, Pitch_bend_c, 5, 7840
6, 913, Note_on_c, 5, 70, 0
6, 916, Note_on_c, 5, 73, 83
6, 916, Pitch_bend_c, 5, 8032
6, 917, Pitch_bend_c, 5, 7968
6, 920, Pitch_bend_c, 5, 8000
6, 922, Pitch_bend_c, 5, 7968
6, 923, Pitch_bend_c, 5, 7872
6, 924, Pitch_bend_c, 5, 7840
6, 925, Pitch_bend_c, 5, 7808
6, 927, Pitch_bend_c, 5, 7776
6, 932, Pitch_bend_c, 5, 7840
6, 933, Pitch_bend_c, 5, 7872
6, 936, Pitch_bend_c, 5, 7936
6, 937, Pitch_bend_c, 5, 7968
6, 941, Pitch_bend_c, 5, 8000
6, 942, Pitch_bend_c, 5, 8032
6, 945, Pitch_bend_c, 5, 8128
6, 946, Pitch_bend_c, 5, 8192
6, 948, Pitch_bend_c, 5, 8352
6, 949, Pitch_bend_c, 5, 8704
6, 950, Pitch_bend_c, 5, 9280
6, 951, Pitch_bend_c, 5, 10048
6, 953, Pitch_bend_c, 5, 10880
6, 954, Pitch_bend_c, 5, 11520
6, 955, Pitch_bend_c, 5, 11936
6, 956, Pitch_bend_c, 5, 12096
6, 958, Note_on_c, 5, 73, 0
6, 1211, Note_on_c, 5, 75, 93
6, 1211, Pitch_bend_c, 5, 8128
6, 1214, Pitch_bend_c, 5, 8032
6, 1215, Pitch_bend_c, 5, 8128
6, 1216, Pitch_bend_c, 5, 8160
6, 1219, Pitch_bend_c, 5, 8224
6, 1220, Pitch_bend_c, 5, 8256
6, 1221, Pitch_bend_c, 5, 8352
6, 1223, Pitch_bend_c, 5, 8480
6, 1224, Pitch_bend_c, 5, 8640
6, 1225, Pitch_bend_c, 5, 8800
6, 1227, Pitch_bend_c, 5, 8992
6, 1228, Pitch_bend_c, 5, 9184
6, 1229, Pitch_bend_c, 5, 9312
6, 1231, Pitch_bend_c, 5, 9408
6, 1232, Pitch_bend_c, 5, 9440
6, 1233, Pitch_bend_c, 5, 9536
6, 1234, Pitch_bend_c, 5, 8192
6, 1236, Pitch_bend_c, 5, 9664
6, 1240, Pitch_bend_c, 5, 9760
6, 1241, Pitch_bend_c, 5, 9920
6, 1243, Pitch_bend_c, 5, 10080
6, 1244, Pitch_bend_c, 5, 10304
6, 1245, Pitch_bend_c, 5, 10592
6, 1246, Pitch_bend_c, 5, 10848
6, 1248, Pitch_bend_c, 5, 11168
6, 1249, Pitch_bend_c, 5, 11552
6, 1250, Pitch_bend_c, 5, 11968
6, 1252, Pitch_bend_c, 5, 12384
6, 1253, Pitch_bend_c, 5, 12704
6, 1254, Pitch_bend_c, 5, 12960
6, 1255, Pitch_bend_c, 5, 13056
6, 1257, Pitch_bend_c, 5, 12992
6, 1258, Pitch_bend_c, 5, 12896
6, 1259, Note_on_c, 5, 75, 0
6, 1259, Pitch_bend_c, 5, 12960
6, 1284, Pitch_bend_c, 5, 8192
6, 1285, Note_on_c, 5, 75, 91
6, 1285, Pitch_bend_c, 5, 8064
6, 1288, Pitch_bend_c, 5, 8000
6, 1289, Pitch_bend_c, 5, 7904
6, 1290, Pitch_bend_c, 5, 7872
6, 1291, Pitch_bend_c, 5, 7808
6, 1293, Pitch_bend_c, 5, 7776
6, 1294, Pitch_bend_c, 5, 7744
6, 1295, Pitch_bend_c, 5, 7680
6, 1301, Pitch_bend_c, 5, 7744
6, 1302, Pitch_bend_c, 5, 7776
6, 1303, Pitch_bend_c, 5, 5216
6, 1304, Note_on_c, 5, 75, 0
6, 1304, Pitch_bend_c, 5, 7744
6, 1305, Pitch_bend_c, 5, 8192
6, 1306, Note_on_c, 5, 72, 88
6, 1306, Pitch_bend_c, 5, 12000
6, 1308, Pitch_bend_c, 5, 12032
6, 1312, Pitch_bend_c, 5, 12000
6, 1316, Pitch_bend_c, 5, 12032
6, 1319, Pitch_bend_c, 5, 12000
6, 1320, Pitch_bend_c, 5, 11936
6, 1321, Pitch_bend_c, 5, 12000
6, 1323, Pitch_bend_c, 5, 12032
6, 1324, Pitch_bend_c, 5, 11840
6, 1325, Note_on_c, 5, 72, 0
6, 1325, Pitch_bend_c, 5, 11936
6, 1341, Note_on_c, 5, 70, 81
6, 1341, Pitch_bend_c, 5, 8448
6, 1344, Pitch_bend_c, 5, 8480
6, 1348, Pitch_bend_c, 5, 8448
6, 1349, Pitch_bend_c, 5, 8416
6, 1350, Pitch_bend_c, 5, 8352
6, 1353, Pitch_bend_c, 5, 8320
6, 1354, Pitch_bend_c, 5, 8288
6, 1355, Pitch_bend_c, 5, 8224
6, 1358, Pitch_bend_c, 5, 8192
6, 1362, Pitch_bend_c, 5, 8256
6, 1363, Pitch_bend_c, 5, 8544
6, 1365, Pitch_bend_c, 5, 9120
6, 1366, Pitch_bend_c, 5, 9856
6, 1367, Pitch_bend_c, 5, 10496
6, 1369, Pitch_bend_c, 5, 10816
6, 1370, Pitch_bend_c, 5, 10592
6, 1371, Pitch_bend_c, 5, 8416
6, 1372, Pitch_bend_c, 5, 8320
6, 1374, Pitch_bend_c, 5, 8224
6, 1375, Pitch_bend_c, 5, 8160
6, 1376, Pitch_bend_c, 5, 8096
6, 1377, Pitch_bend_c, 5, 8160
6, 1379, Pitch_bend_c, 5, 8384
6, 1380, Pitch_bend_c, 5, 8800
6, 1381, Pitch_bend_c, 5, 9216
6, 1383, Pitch_bend_c, 5, 9600
6, 1384, Pitch_bend_c, 5, 9696
6, 1385, Pitch_bend_c, 5, 9408
6, 1387, Note_on_c, 5, 70, 0
6, 1387, Pitch_bend_c, 5, 9216
6, 1413, Pitch_bend_c, 5, 8192
6, 1414, Note_on_c, 5, 67, 89
6, 1418, Pitch_bend_c, 5, 8160
6, 1419, Pitch_bend_c, 5, 8128
6, 1421, Pitch_bend_c, 5, 8096
6, 1422, Pitch_bend_c, 5, 8128
6, 1423, Pitch_bend_c, 5, 8160
6, 1424, Pitch_bend_c, 5, 8064
6, 1425, Note_on_c, 5, 67, 0
6, 1425, Pitch_bend_c, 5, 8128
6, 1427, Pitch_bend_c, 5, 8192
6, 1428, Note_on_c, 5, 70, 70
6, 1428, Pitch_bend_c, 5, 8288
6, 1429, Pitch_bend_c, 5, 8384
6, 1432, Pitch_bend_c, 5, 8352
6, 1433, Pitch_bend_c, 5, 8288
6, 1434, Pitch_bend_c, 5, 8256
6, 1436, Note_on_c, 5, 70, 0
6, 1436, Pitch_bend_c, 5, 8416
6, 1443, Note_on_c, 5, 73, 90
6, 1443, Pitch_bend_c, 5, 8384
6, 1446, Pitch_bend_c, 5, 8288
6, 1447, Pitch_bend_c, 5, 8256
6, 1450, Pitch_bend_c, 5, 8224
6, 1451, Pitch_bend_c, 5, 8256
6, 1452, Pitch_bend_c, 5, 8288
6, 1454, Pitch_bend_c, 5, 8256
6, 1458, Pitch_bend_c, 5, 8288
6, 1462, Pitch_bend_c, 5, 8256
6, 1464, Pitch_bend_c, 5, 8224
6, 1466, Pitch_bend_c, 5, 8256
6, 1467, Pitch_bend_c, 5, 8512
6, 1468, Pitch_bend_c, 5, 8928
6, 1469, Pitch_bend_c, 5, 9664
6, 1471, Pitch_bend_c, 5, 10528
6, 1472, Pitch_bend_c, 5, 11232
6, 1473, Pitch_bend_c, 5, 11808
6, 1475, Pitch_bend_c, 5, 12128
6, 1476, Pitch_bend_c, 5, 12256
6, 1477, Pitch_bend_c, 5, 12352
6, 1479, Note_on_c, 5, 73, 0
6, 1494, Pitch_bend_c, 5, 8192
6, 1495, Note_on_c, 5, 75, 87
6, 1495, Pitch_bend_c, 5, 8352
6, 1497, Pitch_bend_c, 5, 8416
6, 1499, Pitch_bend_c, 5, 8352
6, 1500, Pitch_bend_c, 5, 8320
6, 1502, Pitch_bend_c, 5, 8256
6, 1503, Pitch_bend_c, 5, 8192
6, 1504, Pitch_bend_c, 5, 8128
6, 1505, Pitch_bend_c, 5, 8032
6, 1507, Pitch_bend_c, 5, 8000
6, 1508, Note_on_c, 5, 75, 0
6, 1508, Pitch_bend_c, 5, 8192
6, 1511, Note_on_c, 5, 73, 88
6, 1511, Pitch_bend_c, 5, 8032
6, 1514, Pitch_bend_c, 5, 8000
6, 1515, Pitch_bend_c, 5, 7968
6, 1518, Pitch_bend_c, 5, 7936
6, 1519, Pitch_bend_c, 5, 7968
6, 1520, Pitch_bend_c, 5, 7936
6, 1522, Pitch_bend_c, 5, 7968
6, 1524, Pitch_bend_c, 5, 8000
6, 1525, Pitch_bend_c, 5, 8032
6, 1527, Pitch_bend_c, 5, 8000
6, 1532, Pitch_bend_c, 5, 8032
6, 1534, Pitch_bend_c, 5, 8000
6, 1536, Pitch_bend_c, 5, 8032
6, 1537, Pitch_bend_c, 5, 8064
6, 1538, Pitch_bend_c, 5, 8128
6, 1540, Pitch_bend_c, 5, 8224
6, 1541, Pitch_bend_c, 5, 8256
6, 1542, Pitch_bend_c, 5, 8352
6, 1544, Pitch_bend_c, 5, 8384
6, 1545, Pitch_bend_c, 5, 8448
6, 1546, Pitch_bend_c, 5, 8544
6, 1547, Pitch_bend_c, 5, 8576
6, 1549, Pitch_bend_c, 5, 8672
6, 1550, Pitch_bend_c, 5, 8704
6, 1553, Pitch_bend_c, 5, 8736
6, 1554, Pitch_bend_c, 5, 8768
6, 1555, Pitch_bend_c, 5, 8832
6, 1557, Pitch_bend_c, 5, 8864
6, 1558, Pitch_bend_c, 5, 8992
6, 1559, Pitch_bend_c, 5, 9056
6, 1560, Pitch_bend_c, 5, 9184
6, 1562, Pitch_bend_c, 5, 9344
6, 1563, Pitch_bend_c, 5, 9472
6, 1564, Pitch_bend_c, 5, 9536
6, 1565, Pitch_bend_c, 5, 9632
6, 1567, Pitch_bend_c, 5, 9760
6, 1568, Pitch_bend_c, 5, 9856
6, 1569, Pitch_bend_c, 5, 10048
6, 1571, Pitch_bend_c, 5, 10208
6, 1572, Pitch_bend_c, 5, 10304
6, 1573, Pitch_bend_c, 5, 10400
6, 1574, Pitch_bend_c, 5, 10432
6, 1578, Pitch_bend_c, 5, 10400
6, 1583, Pitch_bend_c, 5, 10368
6, 1584, Pitch_bend_c, 5, 10304
6, 1585, Pitch_bend_c, 5, 10240
6, 1586, Pitch_bend_c, 5, 10048
6, 1588, Pitch_bend_c, 5, 9696
6, 1589, Pitch_bend_c, 5, 9440
6, 1590, Pitch_bend_c, 5, 9184
6, 1592, Pitch_bend_c, 5, 9056
6, 1594, Pitch_bend_c, 5, 9120
6, 1596, Pitch_bend_c, 5, 9152
6, 1597, Pitch_bend_c, 5, 9312
6, 1598, Pitch_bend_c, 5, 9664
6, 1600, Pitch_bend_c, 5, 10144
6, 1601, Pitch_bend_c, 5, 10688
6, 1602, Pitch_bend_c, 5, 11168
6, 1604, Pitch_bend_c, 5, 11392
6, 1605, Pitch_bend_c, 5, 11520
6, 1607, Pitch_bend_c, 5, 11456
6, 1609, Pitch_bend_c, 5, 11232
6, 1610, Pitch_bend_c, 5, 10720
6, 1611, Pitch_bend_c, 5, 10080
6, 1612, Pitch_bend_c, 5, 9472
6, 1614, Pitch_bend_c, 5, 8992
6, 1615, Pitch_bend_c, 5, 8896
6, 1618, Pitch_bend_c, 5, 9184
6, 1619, Pitch_bend_c, 5, 9664
6, 1620, Pitch_bend_c, 5, 10368
6, 1621, Pitch_bend_c, 5, 11072
6, 1623, Pitch_bend_c, 5, 11648
6, 1624, Pitch_bend_c, 5, 11936
6, 1626, Pitch_bend_c, 5, 12064
6, 1628, Pitch_bend_c, 5, 11840
6, 1629, Pitch_bend_c, 5, 11328
6, 1631, Pitch_bend_c, 5, 8896
6, 1632, Pitch_bend_c, 5, 8864
6, 1633, Pitch_bend_c, 5, 8768
6, 1635, Pitch_bend_c, 5, 8736
6, 1637, Note_on_c, 5, 73, 0
6, 1637, Pitch_bend_c, 5, 8896
6, 1701, Pitch_bend_c, 5, 8192
6, 1702, Note_on_c, 5, 76, 86
6, 1702, Pitch_bend_c, 5, 7712
6, 1703, Pitch_bend_c, 5, 7328
6, 1704, Pitch_bend_c, 5, 7488
6, 1705, Pitch_bend_c, 5, 7584
6, 1706, Pitch_bend_c, 5, 7712
6, 1707, Pitch_bend_c, 5, 7840
6, 1709, Pitch_bend_c, 5, 7936
6, 1710, Pitch_bend_c, 5, 8032
6, 1711, Pitch_bend_c, 5, 7968
6, 1712, Pitch_bend_c, 5, 7904
6, 1714, Pitch_bend_c, 5, 7712
6, 1715, Pitch_bend_c, 5, 7328
6, 1717, Pitch_bend_c, 5, 4736
6, 1718, Pitch_bend_c, 5, 4608
6, 1719, Pitch_bend_c, 5, 4352
6, 1721, Pitch_bend_c, 5, 4128
6, 1722, Pitch_bend_c, 5, 3904
6, 1723, Pitch_bend_c, 5, 3840
6, 1724, Pitch_bend_c, 5, 4352
6, 1725, Note_on_c, 5, 76, 0
6, 1727, Note_on_c, 5, 73, 83
6, 1727, Pitch_bend_c, 5, 8352
6, 1728, Pitch_bend_c, 5, 8192
6, 1729, Pitch_bend_c, 5, 8224
6, 1731, Pitch_bend_c, 5, 8256
6, 1732, Pitch_bend_c, 5, 8352
6, 1734, Pitch_bend_c, 5, 8384
6, 1735, Pitch_bend_c, 5, 8448
6, 1736, Note_on_c, 5, 73, 0
6, 1740, Note_on_c, 5, 70, 63
6, 1740, Pitch_bend_c, 5, 8192
6, 1741, Pitch_bend_c, 5, 8384
6, 1743, Pitch_bend_c, 5, 8352
6, 1746, Pitch_bend_c, 5, 8320
6, 1748, Pitch_bend_c, 5, 8288
6, 1749, Pitch_bend_c, 5, 8224
6, 1750, Pitch_bend_c, 5, 8192
6, 1753, Pitch_bend_c, 5, 8224
6, 1754, Pitch_bend_c, 5, 8256
6, 1755, Pitch_bend_c, 5, 8288
6, 1757, Pitch_bend_c, 5, 8544
6, 1758, Pitch_bend_c, 5, 9152
6, 1760, Pitch_bend_c, 5, 11392
6, 1761, Pitch_bend_c, 5, 11424
6, 1762, Pitch_bend_c, 5, 11392
6, 1764, Pitch_bend_c, 5, 11040
6, 1765, Pitch_bend_c, 5, 8832
6, 1766, Pitch_bend_c, 5, 8800
6, 1767, Pitch_bend_c, 5, 8672
6, 1769, Pitch_bend_c, 5, 8544
6, 1770, Pitch_bend_c, 5, 8448
6, 1771, Pitch_bend_c, 5, 8416
6, 1773, Pitch_bend_c, 5, 8640
6, 1774, Pitch_bend_c, 5, 9120
6, 1775, Pitch_bend_c, 5, 9696
6, 1776, Pitch_bend_c, 5, 10336
6, 1778, Pitch_bend_c, 5, 10880
6, 1779, Pitch_bend_c, 5, 11264
6, 1780, Pitch_bend_c, 5, 11584
6, 1782, Pitch_bend_c, 5, 11776
6, 1783, Pitch_bend_c, 5, 11872
6, 1784, Pitch_bend_c, 5, 11840
6, 1785, Pitch_bend_c, 5, 11328
6, 1787, Pitch_bend_c, 5, 8640
6, 1788, Note_on_c, 5, 70, 0
6, 1788, Pitch_bend_c, 5, 11872
6, 1791, Note_on_c, 5, 73, 82
6, 1791, Pitch_bend_c, 5, 8160
6, 1792, Pitch_bend_c, 5, 8192
6, 1798, Pitch_bend_c, 5, 8160
6, 1799, Pitch_bend_c, 5, 8128
6, 1800, Pitch_bend_c, 5, 8064
6, 1802, Pitch_bend_c, 5, 8160
6, 1803, Pitch_bend_c, 5, 8352
6, 1804, Pitch_bend_c, 5, 8608
6, 1806, Pitch_bend_c, 5, 8928
6, 1807, Note_on_c, 5, 73, 0
6, 1807, Pitch_bend_c, 5, 9024
6, 1810, Note_on_c, 5, 75, 82
6, 1810, Pitch_bend_c, 5, 8192
6, 1811, Pitch_bend_c, 5, 8256
6, 1815, Pitch_bend_c, 5, 8320
6, 1820, Pitch_bend_c, 5, 8256
6, 1822, Pitch_bend_c, 5, 8224
6, 1823, Pitch_bend_c, 5, 8192
6, 1824, Pitch_bend_c, 5, 8128
6, 1825, Note_on_c, 5, 75, 0
6, 1825, Pitch_bend_c, 5, 8320
6, 1828, Note_on_c, 5, 73, 84
6, 1828, Pitch_bend_c, 5, 8064
6, 1837, Pitch_bend_c, 5, 8000
6, 1838, Pitch_bend_c, 5, 7936
6, 1841, Pitch_bend_c, 5, 7968
6, 1843, Pitch_bend_c, 5, 8032
6, 1844, Pitch_bend_c, 5, 8128
6, 1845, Pitch_bend_c, 5, 8224
6, 1846, Pitch_bend_c, 5, 8416
6, 1848, Pitch_bend_c, 5, 8832
6, 1849, Pitch_bend_c, 5, 9280
6, 1850, Pitch_bend_c, 5, 9696
6, 1852, Pitch_bend_c, 5, 10080
6, 1853, Pitch_bend_c, 5, 10208
6, 1854, Pitch_bend_c, 5, 10048
6, 1855, Pitch_bend_c, 5, 9760
6, 1857, Pitch_bend_c, 5, 9376
6, 1858, Pitch_bend_c, 5, 8992
6, 1859, Pitch_bend_c, 5, 8768
6, 1860, Note_on_c, 5, 73, 0
6, 1860, Pitch_bend_c, 5, 10048
6, 1862, Pitch_bend_c, 5, 8192
6, 1863, Note_on_c, 5, 70, 67
6, 1863, Pitch_bend_c, 5, 8512
6, 1864, Pitch_bend_c, 5, 8480
6, 1867, Pitch_bend_c, 5, 8448
6, 1868, Pitch_bend_c, 5, 8416
6, 1869, Pitch_bend_c, 5, 8352
6, 1871, Pitch_bend_c, 5, 8320
6, 1872, Pitch_bend_c, 5, 8256
6, 1875, Pitch_bend_c, 5, 8224
6, 1877, Pitch_bend_c, 5, 8192
6, 1879, Pitch_bend_c, 5, 8160
6, 1880, Pitch_bend_c, 5, 8096
6, 1883, Pitch_bend_c, 5, 8160
6, 1884, Pitch_bend_c, 5, 8224
6, 1885, Pitch_bend_c, 5, 8288
6, 1887, Pitch_bend_c, 5, 8320
6, 1888, Note_on_c, 5, 70, 0
6, 1888, Pitch_bend_c, 5, 8192
6, 1889, Note_on_c, 5, 73, 85
6, 1889, Pitch_bend_c, 5, 7744
6, 1890, Pitch_bend_c, 5, 7968
6, 1895, Pitch_bend_c, 5, 7936
6, 1896, Pitch_bend_c, 5, 7808
6, 1898, Pitch_bend_c, 5, 7776
6, 1902, Pitch_bend_c, 5, 7872
6, 1903, Pitch_bend_c, 5, 7936
6, 1904, Pitch_bend_c, 5, 7968
6, 1912, Pitch_bend_c, 5, 8000
6, 1913, Pitch_bend_c, 5, 8032
6, 1914, Pitch_bend_c, 5, 8128
6, 1916, Pitch_bend_c, 5, 8192
6, 1917, Pitch_bend_c, 5, 8224
6, 1918, Pitch_bend_c, 5, 8288
6, 1920, Pitch_bend_c, 5, 8352
6, 1921, Pitch_bend_c, 5, 8448
6, 1922, Pitch_bend_c, 5, 8544
6, 1924, Pitch_bend_c, 5, 8672
6, 1925, Pitch_bend_c, 5, 8736
6, 1926, Pitch_bend_c, 5, 8832
6, 1928, Pitch_bend_c, 5, 8896
6, 1929, Pitch_bend_c, 5, 8992
6, 1930, Pitch_bend_c, 5, 9152
6, 1932, Pitch_bend_c, 5, 9376
6, 1933, Pitch_bend_c, 5, 9632
6, 1934, Pitch_bend_c, 5, 9824
6, 1936, Pitch_bend_c, 5, 10048
6, 1937, Pitch_bend_c, 5, 10144
6, 1938, Pitch_bend_c, 5, 10208
6, 1941, Note_on_c, 5, 73, 0
6, 2170, Pitch_bend_c, 5, 8192
6, 2171, Note_on_c, 5, 76, 89
6, 2171, Pitch_bend_c, 5, 10304
6, 2175, Pitch_bend_c, 5, 10240
6, 2176, Pitch_bend_c, 5, 10208
6, 2177, Pitch_bend_c, 5, 10144
6, 2178, Pitch_bend_c, 5, 10112
6, 2183, Pitch_bend_c, 5, 10016
6, 2184, Pitch_bend_c, 5, 9952
6, 2185, Pitch_bend_c, 5, 9920
6, 2186, Pitch_bend_c, 5, 9856
6, 2188, Pitch_bend_c, 5, 9824
6, 2191, Pitch_bend_c, 5, 9760
6, 2196, Pitch_bend_c, 5, 9728
6, 2198, Pitch_bend_c, 5, 9664
6, 2201, Pitch_bend_c, 5, 9632
6, 2203, Pitch_bend_c, 5, 9568
6, 2204, Pitch_bend_c, 5, 9472
6, 2205, Pitch_bend_c, 5, 9440
6, 2206, Pitch_bend_c, 5, 9376
6, 2207, Pitch_bend_c, 5, 9344
6, 2209, Pitch_bend_c, 5, 9280
6, 2210, Pitch_bend_c, 5, 9248
6, 2212, Pitch_bend_c, 5, 9184
6, 2213, Pitch_bend_c, 5, 9152
6, 2214, Pitch_bend_c, 5, 9088
6, 2216, Pitch_bend_c, 5, 8992
6, 2219, Pitch_bend_c, 5, 8960
6, 2220, Pitch_bend_c, 5, 8896
6, 2222, Pitch_bend_c, 5, 8800
6, 2223, Pitch_bend_c, 5, 8768
6, 2224, Pitch_bend_c, 5, 8704
6, 2226, Pitch_bend_c, 5, 8672
6, 2227, Pitch_bend_c, 5, 8576
6, 2228, Pitch_bend_c, 5, 8512
6, 2230, Pitch_bend_c, 5, 8416
6, 2231, Pitch_bend_c, 5, 8288
6, 2232, Pitch_bend_c, 5, 8064
6, 2234, Pitch_bend_c, 5, 7840
6, 2235, Pitch_bend_c, 5, 7520
6, 2236, Pitch_bend_c, 5, 7264
6, 2238, Pitch_bend_c, 5, 6976
6, 2239, Pitch_bend_c, 5, 6656
6, 2240, Pitch_bend_c, 5, 6336
6, 2241, Pitch_bend_c, 5, 5984
6, 2243, Pitch_bend_c, 5, 5664
6, 2244, Pitch_bend_c, 5, 5440
6, 2245, Pitch_bend_c, 5, 5248
6, 2247, Pitch_bend_c, 5, 5152
6, 2249, Note_on_c, 5, 76, 0
6, 2249, Pitch_bend_c, 5, 5984
6, 2252, Pitch_bend_c, 5, 8192
6, 2253, Note_on_c, 5, 75, 86
6, 2253, Pitch_bend_c, 5, 8576
6, 2255, Pitch_bend_c, 5, 8544
6, 2256, Pitch_bend_c, 5, 8448
6, 2257, Pitch_bend_c, 5, 8352
6, 2258, Pitch_bend_c, 5, 8256
6, 2260, Pitch_bend_c, 5, 8128
6, 2261, Pitch_bend_c, 5, 8000
6, 2262, Pitch_bend_c, 5, 7936
6, 2264, Note_on_c, 5, 75, 0
6, 2264, Pitch_bend_c, 5, 8256
6, 2273, Pitch_bend_c, 5, 8192
6, 2274, Note_on_c, 5, 73, 88
6, 2274, Pitch_bend_c, 5, 8128
6, 2275, Pitch_bend_c, 5, 8224
6, 2276, Pitch_bend_c, 5, 8192
6, 2278, Pitch_bend_c, 5, 8160
6, 2280, Pitch_bend_c, 5, 8128
6, 2283, Pitch_bend_c, 5, 8160
6, 2289, Pitch_bend_c, 5, 8128
6, 2295, Pitch_bend_c, 5, 8160
6, 2297, Pitch_bend_c, 5, 8192
6, 2307, Pitch_bend_c, 5, 8160
6, 2308, Pitch_bend_c, 5, 8064
6, 2309, Pitch_bend_c, 5, 8000
6, 2310, Pitch_bend_c, 5, 7936
6, 2313, Pitch_bend_c, 5, 8032
6, 2315, Pitch_bend_c, 5, 8224
6, 2316, Pitch_bend_c, 5, 8576
6, 2317, Pitch_bend_c, 5, 9056
6, 2318, Pitch_bend_c, 5, 9664
6, 2319, Pitch_bend_c, 5, 10144
6, 2321, Pitch_bend_c, 5, 10400
6, 2322, Pitch_bend_c, 5, 10208
6, 2323, Note_on_c, 5, 73, 0
6, 2337, Pitch_bend_c, 5, 8192
6, 2338, Note_on_c, 5, 70, 79
6, 2338, Pitch_bend_c, 5, 8448
6, 2339, Pitch_bend_c, 5, 8512
6, 2340, Pitch_bend_c, 5, 8480
6, 2341, Pitch_bend_c, 5, 8448
6, 2343, Pitch_bend_c, 5, 8384
6, 2344, Pitch_bend_c, 5, 8352
6, 2345, Pitch_bend_c, 5, 8288
6, 2347, Pitch_bend_c, 5, 8256
6, 2348, Pitch_bend_c, 5, 8224
6, 2352, Pitch_bend_c, 5, 8192
6, 2362, Pitch_bend_c, 5, 8160
6, 2364, Pitch_bend_c, 5, 8128
6, 2369, Pitch_bend_c, 5, 8192
6, 2370, Pitch_bend_c, 5, 8320
6, 2371, Pitch_bend_c, 5, 8800
6, 2373, Pitch_bend_c, 5, 9408
6, 2374, Pitch_bend_c, 5, 10080
6, 2375, Pitch_bend_c, 5, 10592
6, 2377, Pitch_bend_c, 5, 10752
6, 2378, Pitch_bend_c, 5, 10400
6, 2379, Pitch_bend_c, 5, 9728
6, 2380, Pitch_bend_c, 5, 9056
6, 2382, Pitch_bend_c, 5, 8448
6, 2383, Pitch_bend_c, 5, 8192
6, 2385, Pitch_bend_c, 5, 8224
6, 2387, Pitch_bend_c, 5, 8480
6, 2388, Pitch_bend_c, 5, 8928
6, 2389, Pitch_bend_c, 5, 9344
6, 2391, Pitch_bend_c, 5, 9472
6, 2392, Pitch_bend_c, 5, 9216
6, 2393, Note_on_c, 5, 70, 0
6, 2393, Pitch_bend_c, 5, 8192
6, 2394, Note_on_c, 5, 65, 73
6, 2394, Pitch_bend_c, 5, 9248
6, 2396, Pitch_bend_c, 5, 9536
6, 2397, Pitch_bend_c, 5, 11936
6, 2399, Pitch_bend_c, 5, 11968
6, 2400, Pitch_bend_c, 5, 12032
6, 2401, Pitch_bend_c, 5, 16096
6, 2404, Pitch_bend_c, 5, 16064
6, 2405, Pitch_bend_c, 5, 16032
6, 2408, Pitch_bend_c, 5, 16064
6, 2409, Pitch_bend_c, 5, 16192
6, 2410, Note_on_c, 5, 65, 0
6, 2412, Note_on_c, 5, 70, 86
6, 2412, Pitch_bend_c, 5, 8352
6, 2414, Pitch_bend_c, 5, 8416
6, 2417, Pitch_bend_c, 5, 8384
6, 2418, Pitch_bend_c, 5, 8320
6, 2419, Pitch_bend_c, 5, 8192
6, 2420, Pitch_bend_c, 5, 8128
6, 2422, Pitch_bend_c, 5, 8000
6, 2425, Note_on_c, 5, 70, 0
6, 2425, Note_on_c, 5, 72, 54
6, 2425, Pitch_bend_c, 5, 12000
6, 2428, Note_on_c, 5, 72, 0
6, 2429, Note_on_c, 5, 73, 75
6, 2429, Pitch_bend_c, 5, 8192
6, 2431, Pitch_bend_c, 5, 8160
6, 2432, Pitch_bend_c, 5, 8128
6, 2434, Pitch_bend_c, 5, 8064
6, 2435, Pitch_bend_c, 5, 8000
6, 2436, Pitch_bend_c, 5, 7968
6, 2438, Pitch_bend_c, 5, 8000
6, 2442, Pitch_bend_c, 5, 7968
6, 2448, Pitch_bend_c, 5, 7936
6, 2451, Pitch_bend_c, 5, 7968
6, 2453, Pitch_bend_c, 5, 8000
6, 2455, Pitch_bend_c, 5, 8032
6, 2456, Pitch_bend_c, 5, 8128
6, 2457, Pitch_bend_c, 5, 8160
6, 2459, Pitch_bend_c, 5, 8256
6, 2460, Pitch_bend_c, 5, 8384
6, 2461, Pitch_bend_c, 5, 8576
6, 2463, Pitch_bend_c, 5, 8864
6, 2464, Pitch_bend_c, 5, 9344
6, 2466, Pitch_bend_c, 5, 9920
6, 2467, Pitch_bend_c, 5, 10464
6, 2468, Pitch_bend_c, 5, 10976
6, 2469, Pitch_bend_c, 5, 11232
6, 2471, Pitch_bend_c, 5, 11392
6, 2472, Pitch_bend_c, 5, 11488
6, 2475, Pitch_bend_c, 5, 11232
6, 2476, Pitch_bend_c, 5, 8832
6, 2477, Note_on_c, 5, 73, 0
6, 2477, Pitch_bend_c, 5, 11232
6, 2478, Note_on_c, 5, 75, 86
6, 2478, Pitch_bend_c, 5, 8192
6, 2479, Pitch_bend_c, 5, 8672
6, 2480, Pitch_bend_c, 5, 8576
6, 2482, Pitch_bend_c, 5, 8640
6, 2485, Pitch_bend_c, 5, 8544
6, 2488, Pitch_bend_c, 5, 8448
6, 2489, Pitch_bend_c, 5, 8352
6, 2490, Pitch_bend_c, 5, 16383
6, 2491, Note_on_c, 5, 75, 0
6, 2492, Pitch_bend_c, 5, 8192
6, 2493, Note_on_c, 5, 77, 82
6, 2493, Pitch_bend_c, 5, 8288
6, 2499, Pitch_bend_c, 5, 8224
6, 2501, Pitch_bend_c, 5, 8192
6, 2502, Pitch_bend_c, 5, 8064
6, 2503, Pitch_bend_c, 5, 7968
6, 2504, Note_on_c, 5, 77, 0
6, 2504, Pitch_bend_c, 5, 8288
6, 2506, Pitch_bend_c, 5, 8192
6, 2507, Note_on_c, 5, 73, 53
6, 2507, Pitch_bend_c, 5, 8000
6, 2510, Pitch_bend_c, 5, 8160
6, 2512, Pitch_bend_c, 5, 8608
6, 2513, Pitch_bend_c, 5, 11136
6, 2514, Pitch_bend_c, 5, 11328
6, 2515, Pitch_bend_c, 5, 11520
6, 2518, Note_on_c, 5, 73, 0
6, 2528, Pitch_bend_c, 5, 8192
6, 2529, Note_on_c, 5, 70, 48
6, 2529, Pitch_bend_c, 5, 8512
6, 2531, Pitch_bend_c, 5, 8576
6, 2535, Pitch_bend_c, 5, 8544
6, 2539, Pitch_bend_c, 5, 8512
6, 2540, Pitch_bend_c, 5, 8480
6, 2544, Pitch_bend_c, 5, 8448
6, 2546, Pitch_bend_c, 5, 8480
6, 2549, Pitch_bend_c, 5, 8448
6, 2551, Pitch_bend_c, 5, 8416
6, 2553, Pitch_bend_c, 5, 8320
6, 2554, Pitch_bend_c, 5, 8192
6, 2555, Pitch_bend_c, 5, 8096
6, 2557, Pitch_bend_c, 5, 8000
6, 2558, Pitch_bend_c, 5, 7968
6, 2560, Pitch_bend_c, 5, 8256
6, 2562, Pitch_bend_c, 5, 8896
6, 2564, Pitch_bend_c, 5, 9632
6, 2565, Pitch_bend_c, 5, 10304
6, 2566, Pitch_bend_c, 5, 10592
6, 2568, Pitch_bend_c, 5, 10240
6, 2569, Pitch_bend_c, 5, 9568
6, 2570, Pitch_bend_c, 5, 8864
6, 2571, Pitch_bend_c, 5, 8288
6, 2573, Pitch_bend_c, 5, 8032
6, 2574, Pitch_bend_c, 5, 7936
6, 2577, Note_on_c, 5, 70, 0
6, 2577, Pitch_bend_c, 5, 8864
6, 2584, Pitch_bend_c, 5, 8192
6, 2585, Note_on_c, 5, 72, 59
6, 2585, Pitch_bend_c, 5, 8224
6, 2587, Pitch_bend_c, 5, 8256
6, 2588, Pitch_bend_c, 5, 8320
6, 2590, Pitch_bend_c, 5, 8640
6, 2591, Pitch_bend_c, 5, 9152
6, 2592, Pitch_bend_c, 5, 9920
6, 2593, Pitch_bend_c, 5, 10752
6, 2595, Pitch_bend_c, 5, 11488
6, 2596, Pitch_bend_c, 5, 12000
6, 2598, Pitch_bend_c, 5, 12288
6, 2599, Pitch_bend_c, 5, 12352
6, 2600, Note_on_c, 5, 72, 0
6, 2608, Pitch_bend_c, 5, 8192
6, 2609, Note_on_c, 5, 72, 68
6, 2609, Pitch_bend_c, 5, 9472
6, 2611, Pitch_bend_c, 5, 9728
6, 2613, Pitch_bend_c, 5, 10080
6, 2614, Pitch_bend_c, 5, 10400
6, 2615, Pitch_bend_c, 5, 10688
6, 2616, Pitch_bend_c, 5, 10816
6, 2619, Pitch_bend_c, 5, 10528
6, 2620, Pitch_bend_c, 5, 10016
6, 2622, Pitch_bend_c, 5, 9312
6, 2623, Pitch_bend_c, 5, 8640
6, 2624, Pitch_bend_c, 5, 8192
6, 2625, Note_on_c, 5, 72, 0
6, 2625, Pitch_bend_c, 5, 10528
6, 2629, Note_on_c, 5, 70, 68
6, 2629, Pitch_bend_c, 5, 8032
6, 2633, Pitch_bend_c, 5, 8064
6, 2636, Pitch_bend_c, 5, 7968
6, 2637, Pitch_bend_c, 5, 16320
6, 2638, Pitch_bend_c, 5, 16288
6, 2639, Pitch_bend_c, 5, 16320
6, 2641, Note_on_c, 5, 70, 0
6, 2641, Pitch_bend_c, 5, 8512
6, 2642, Pitch_bend_c, 5, 8192
6, 2644, Note_on_c, 5, 70, 48
6, 2649, Note_on_c, 5, 70, 0
6, 2652, Note_on_c, 5, 67, 20
6, 2652, Pitch_bend_c, 5, 8128
6, 2653, Pitch_bend_c, 5, 8224
6, 2656, Pitch_bend_c, 5, 8192
6, 2657, Pitch_bend_c, 5, 8224
6, 2661, Note_on_c, 5, 67, 0
6, 2661, Pitch_bend_c, 5, 8192
6, 2662, Note_on_c, 5, 70, 47
6, 2662, Pitch_bend_c, 5, 8064
6, 2669, Pitch_bend_c, 5, 8128
6, 2670, Pitch_bend_c, 5, 8096
6, 2678, Pitch_bend_c, 5, 8128
6, 2680, Pitch_bend_c, 5, 8160
6, 2686, Pitch_bend_c, 5, 8128
6, 2687, Pitch_bend_c, 5, 8160
6, 2688, Pitch_bend_c, 5, 8256
6, 2689, Pitch_bend_c, 5, 8512
6, 2691, Pitch_bend_c, 5, 8832
6, 2692, Pitch_bend_c, 5, 9024
6, 2694, Pitch_bend_c, 5, 9056
6, 2695, Pitch_bend_c, 5, 8896
6, 2696, Pitch_bend_c, 5, 8544
6, 2697, Pitch_bend_c, 5, 8224
6, 2699, Pitch_bend_c, 5, 8032
6, 2700, Pitch_bend_c, 5, 7904
6, 2701, Pitch_bend_c, 5, 7936
6, 2702, Pitch_bend_c, 5, 8256
6, 2704, Pitch_bend_c, 5, 10592
6, 2705, Pitch_bend_c, 5, 10784
6, 2706, Pitch_bend_c, 5, 11008
6, 2708, Pitch_bend_c, 5, 11104
6, 2709, Pitch_bend_c, 5, 10880
6, 2710, Pitch_bend_c, 5, 8512
6, 2712, Pitch_bend_c, 5, 8352
6, 2713, Pitch_bend_c, 5, 8192
6, 2714, Pitch_bend_c, 5, 8096
6, 2716, Note_on_c, 5, 70, 0
6, 2716, Pitch_bend_c, 5, 8512
6, 2935, Note_on_c, 5, 79, 103
6, 2935, Pitch_bend_c, 5, 8448
6, 2936, Pitch_bend_c, 5, 8544
6, 2937, Pitch_bend_c, 5, 8448
6, 2938, Pitch_bend_c, 5, 8384
6, 2940, Pitch_bend_c, 5, 8320
6, 2941, Pitch_bend_c, 5, 8384
6, 2943, Pitch_bend_c, 5, 8736
6, 2944, Pitch_bend_c, 5, 9248
6, 2945, Pitch_bend_c, 5, 9824
6, 2946, Pitch_bend_c, 5, 10496
6, 2947, Pitch_bend_c, 5, 11136
6, 2949, Pitch_bend_c, 5, 11584
6, 2950, Pitch_bend_c, 5, 12032
6, 2952, Pitch_bend_c, 5, 12320
6, 2953, Pitch_bend_c, 5, 12448
6, 2954, Pitch_bend_c, 5, 12576
6, 2961, Pitch_bend_c, 5, 12512
6, 2970, Pitch_bend_c, 5, 12576
6, 2973, Pitch_bend_c, 5, 12512
6, 2975, Pitch_bend_c, 5, 12448
6, 2976, Pitch_bend_c, 5, 12320
6, 2978, Pitch_bend_c, 5, 12224
6, 2979, Pitch_bend_c, 5, 11936
6, 2980, Pitch_bend_c, 5, 11456
6, 2982, Pitch_bend_c, 5, 10848
6, 2983, Pitch_bend_c, 5, 10080
6, 2984, Pitch_bend_c, 5, 9408
6, 2985, Pitch_bend_c, 5, 8832
6, 2987, Pitch_bend_c, 5, 8544
6, 2988, Pitch_bend_c, 5, 8448
6, 2989, Note_on_c, 5, 79, 0
6, 2989, Pitch_bend_c, 5, 10080
6, 2992, Note_on_c, 5, 77, 91
6, 2992, Pitch_bend_c, 5, 8736
6, 2994, Pitch_bend_c, 5, 8672
6, 2995, Pitch_bend_c, 5, 8736
6, 2996, Pitch_bend_c, 5, 8800
6, 2998, Pitch_bend_c, 5, 8832
6, 3002, Pitch_bend_c, 5, 8800
6, 3004, Pitch_bend_c, 5, 8832
6, 3006, Pitch_bend_c, 5, 8928
6, 3007, Pitch_bend_c, 5, 8832
6, 3008, Pitch_bend_c, 5, 6624
6, 3009, Note_on_c, 5, 77, 0
6, 3009, Pitch_bend_c, 5, 8800
6, 3010, Pitch_bend_c, 5, 8192
6, 3011, Note_on_c, 5, 74, 89
6, 3011, Pitch_bend_c, 5, 12672
6, 3012, Pitch_bend_c, 5, 12640
6, 3014, Pitch_bend_c, 5, 12576
6, 3016, Pitch_bend_c, 5, 12640
6, 3020, Pitch_bend_c, 5, 12576
6, 3021, Pitch_bend_c, 5, 12544
6, 3025, Pitch_bend_c, 5, 12576
6, 3026, Note_on_c, 5, 74, 0
6, 3026, Pitch_bend_c, 5, 8192
6, 3027, Note_on_c, 5, 77, 91
6, 3028, Pitch_bend_c, 5, 8832
6, 3030, Pitch_bend_c, 5, 8896
6, 3034, Pitch_bend_c, 5, 8800
6, 3035, Pitch_bend_c, 5, 8672
6, 3036, Pitch_bend_c, 5, 8544
6, 3038, Pitch_bend_c, 5, 8384
6, 3039, Pitch_bend_c, 5, 8192
6, 3040, Pitch_bend_c, 5, 8000
6, 3042, Note_on_c, 5, 77, 0
6, 3042, Pitch_bend_c, 5, 8544
6, 3044, Pitch_bend_c, 5, 8192
6, 3045, Note_on_c, 5, 72, 87
6, 3045, Pitch_bend_c, 5, 8512
6, 3048, Pitch_bend_c, 5, 8480
6, 3050, Pitch_bend_c, 5, 8512
6, 3051, Pitch_bend_c, 5, 8544
6, 3052, Pitch_bend_c, 5, 8608
6, 3054, Pitch_bend_c, 5, 8640
6, 3055, Pitch_bend_c, 5, 8800
6, 3056, Pitch_bend_c, 5, 9056
6, 3057, Pitch_bend_c, 5, 9600
6, 3059, Pitch_bend_c, 5, 10304
6, 3060, Pitch_bend_c, 5, 11136
6, 3061, Pitch_bend_c, 5, 11936
6, 3062, Pitch_bend_c, 5, 12512
6, 3064, Pitch_bend_c, 5, 12608
6, 3065, Note_on_c, 5, 72, 0
6, 3067, Pitch_bend_c, 5, 8192
6, 3070, Pitch_bend_c, 5, 11200
6, 3071, Pitch_bend_c, 5, 12224
6, 3074, Pitch_bend_c, 5, 12352
6, 3076, Pitch_bend_c, 5, 12480
6, 3077, Pitch_bend_c, 5, 8192
6, 3077, Note_on_c, 5, 70, 75
6, 3092, Pitch_bend_c, 5, 8480
6, 3093, Pitch_bend_c, 5, 8512
6, 3101, Pitch_bend_c, 5, 8480
6, 3102, Pitch_bend_c, 5, 8416
6, 3104, Pitch_bend_c, 5, 8320
6, 3105, Pitch_bend_c, 5, 8256
6, 3106, Pitch_bend_c, 5, 8192
6, 3108, Pitch_bend_c, 5, 8160
6, 3111, Pitch_bend_c, 5, 8192
6, 3113, Pitch_bend_c, 5, 8224
6, 3114, Pitch_bend_c, 5, 8384
6, 3115, Pitch_bend_c, 5, 8672
6, 3117, Pitch_bend_c, 5, 8960
6, 3118, Pitch_bend_c, 5, 9184
6, 3119, Pitch_bend_c, 5, 9344
6, 3121, Pitch_bend_c, 5, 9312
6, 3122, Pitch_bend_c, 5, 9024
6, 3123, Pitch_bend_c, 5, 8608
6, 3125, Pitch_bend_c, 5, 8256
6, 3126, Pitch_bend_c, 5, 8032
6, 3127, Pitch_bend_c, 5, 7904
6, 3129, Pitch_bend_c, 5, 7936
6, 3130, Pitch_bend_c, 5, 8064
6, 3131, Pitch_bend_c, 5, 8320
6, 3132, Pitch_bend_c, 5, 8704
6, 3134, Pitch_bend_c, 5, 9152
6, 3135, Pitch_bend_c, 5, 9440
6, 3136, Pitch_bend_c, 5, 9504
6, 3137, Pitch_bend_c, 5, 9216
6, 3139, Pitch_bend_c, 5, 8832
6, 3140, Pitch_bend_c, 5, 8384
6, 3141, Pitch_bend_c, 5, 8064
6, 3143, Pitch_bend_c, 5, 7936
6, 3144, Pitch_bend_c, 5, 7904
6, 3145, Pitch_bend_c, 5, 7936
6, 3147, Pitch_bend_c, 5, 7904
6, 3148, Pitch_bend_c, 5, 7936
6, 3149, Pitch_bend_c, 5, 7776
6, 3150, Note_on_c, 5, 70, 0
6, 3178, Note_on_c, 5, 67, 60
6, 3178, Pitch_bend_c, 5, 8352
6, 3179, Pitch_bend_c, 5, 8384
6, 3185, Pitch_bend_c, 5, 8352
6, 3186, Pitch_bend_c, 5, 8288
6, 3187, Pitch_bend_c, 5, 8256
6, 3189, Pitch_bend_c, 5, 8064
6, 3190, Note_on_c, 5, 67, 0
6, 3190, Pitch_bend_c, 5, 8192
6, 3191, Note_on_c, 5, 70, 72
6, 3191, Pitch_bend_c, 5, 8064
6, 3193, Pitch_bend_c, 5, 8096
6, 3194, Pitch_bend_c, 5, 8128
6, 3197, Pitch_bend_c, 5, 8160
6, 3198, Pitch_bend_c, 5, 8192
6, 3200, Note_on_c, 5, 70, 0
6, 3200, Pitch_bend_c, 5, 8256
6, 3202, Note_on_c, 5, 72, 75
6, 3202, Pitch_bend_c, 5, 8544
6, 3204, Pitch_bend_c, 5, 8608
6, 3205, Pitch_bend_c, 5, 8544
6, 3206, Pitch_bend_c, 5, 8480
6, 3207, Pitch_bend_c, 5, 8448
6, 3209, Pitch_bend_c, 5, 8672
6, 3210, Pitch_bend_c, 5, 11296
6, 3212, Pitch_bend_c, 5, 11552
6, 3213, Pitch_bend_c, 5, 12000
6, 3214, Pitch_bend_c, 5, 12544
6, 3215, Pitch_bend_c, 5, 13152
6, 3217, Pitch_bend_c, 5, 13440
6, 3218, Note_on_c, 5, 72, 0
6, 3224, Pitch_bend_c, 5, 8192
6, 3225, Note_on_c, 5, 72, 55
6, 3228, Pitch_bend_c, 5, 8352
6, 3229, Pitch_bend_c, 5, 8832
6, 3230, Pitch_bend_c, 5, 11072
6, 3231, Pitch_bend_c, 5, 11328
6, 3233, Pitch_bend_c, 5, 11744
6, 3234, Pitch_bend_c, 5, 12384
6, 3235, Pitch_bend_c, 5, 13088
6, 3237, Pitch_bend_c, 5, 13600
6, 3238, Pitch_bend_c, 5, 13920
6, 3239, Pitch_bend_c, 5, 14144
6, 3240, Pitch_bend_c, 5, 14304
6, 3242, Pitch_bend_c, 5, 14368
6, 3243, Pitch_bend_c, 5, 14464
6, 3244, Pitch_bend_c, 5, 14496
6, 3248, Pitch_bend_c, 5, 14464
6, 3251, Pitch_bend_c, 5, 14400
6, 3255, Pitch_bend_c, 5, 14368
6, 3259, Pitch_bend_c, 5, 14336
6, 3260, Pitch_bend_c, 5, 14208
6, 3261, Pitch_bend_c, 5, 13856
6, 3262, Pitch_bend_c, 5, 10240
6, 3264, Pitch_bend_c, 5, 9728
6, 3265, Pitch_bend_c, 5, 5888
6, 3266, Note_on_c, 5, 72, 0
6, 3268, Pitch_bend_c, 5, 8192
6, 3282, Note_on_c, 5, 77, 92
6, 3282, Pitch_bend_c, 5, 7776
6, 3285, Pitch_bend_c, 5, 8000
6, 3286, Pitch_bend_c, 5, 10656
6, 3288, Pitch_bend_c, 5, 11136
6, 3289, Pitch_bend_c, 5, 14080
6, 3290, Pitch_bend_c, 5, 14336
6, 3292, Pitch_bend_c, 5, 14656
6, 3293, Pitch_bend_c, 5, 15104
6, 3294, Pitch_bend_c, 5, 15520
6, 3296, Pitch_bend_c, 5, 15744
6, 3297, Pitch_bend_c, 5, 15872
6, 3299, Pitch_bend_c, 5, 15904
6, 3306, Pitch_bend_c, 5, 15808
6, 3307, Pitch_bend_c, 5, 15744
6, 3308, Pitch_bend_c, 5, 15648
6, 3310, Pitch_bend_c, 5, 15520
6, 3311, Pitch_bend_c, 5, 15488
6, 3312, Pitch_bend_c, 5, 15264
6, 3313, Pitch_bend_c, 5, 15008
6, 3315, Pitch_bend_c, 5, 14336
6, 3316, Pitch_bend_c, 5, 11584
6, 3317, Pitch_bend_c, 5, 11392
6, 3318, Pitch_bend_c, 5, 10976
6, 3320, Pitch_bend_c, 5, 10464
6, 3321, Pitch_bend_c, 5, 9792
6, 3322, Pitch_bend_c, 5, 9280
6, 3324, Pitch_bend_c, 5, 8896
6, 3325, Pitch_bend_c, 5, 8544
6, 3326, Pitch_bend_c, 5, 8288
6, 3327, Note_on_c, 5, 77, 0
6, 3327, Pitch_bend_c, 5, 9792
6, 3328, Pitch_bend_c, 5, 8192
6, 3329, Note_on_c, 5, 77, 60
6, 3329, Pitch_bend_c, 5, 7712
6, 3334, Pitch_bend_c, 5, 7680
6, 3337, Pitch_bend_c, 5, 7712
6, 3338, Note_on_c, 5, 77, 0
6, 3338, Pitch_bend_c, 5, 7776
6, 3339, Pitch_bend_c, 5, 8192
6, 3343, Note_on_c, 5, 70, 42
6, 3343, Pitch_bend_c, 5, 8480
6, 3346, Pitch_bend_c, 5, 8512
6, 3347, Pitch_bend_c, 5, 8480
6, 3350, Pitch_bend_c, 5, 8448
6, 3352, Pitch_bend_c, 5, 8416
6, 3353, Pitch_bend_c, 5, 8384
6, 3355, Pitch_bend_c, 5, 8320
6, 3356, Pitch_bend_c, 5, 8224
6, 3357, Pitch_bend_c, 5, 8288
6, 3358, Pitch_bend_c, 5, 8576
6, 3360, Pitch_bend_c, 5, 9120
6, 3361, Pitch_bend_c, 5, 9728
6, 3362, Pitch_bend_c, 5, 10080
6, 3364, Pitch_bend_c, 5, 9888
6, 3365, Pitch_bend_c, 5, 9344
6, 3366, Pitch_bend_c, 5, 8672
6, 3368, Pitch_bend_c, 5, 8192
6, 3369, Pitch_bend_c, 5, 8000
6, 3370, Pitch_bend_c, 5, 7936
6, 3372, Pitch_bend_c, 5, 8000
6, 3373, Pitch_bend_c, 5, 8192
6, 3374, Pitch_bend_c, 5, 8352
6, 3376, Pitch_bend_c, 5, 8544
6, 3377, Note_on_c, 5, 70, 0
6, 3377, Pitch_bend_c, 5, 8608
6, 3385, Pitch_bend_c, 5, 8192
6, 3386, Note_on_c, 5, 72, 53
6, 3386, Pitch_bend_c, 5, 9408
6, 3388, Pitch_bend_c, 5, 9664
6, 3390, Pitch_bend_c, 5, 10080
6, 3391, Pitch_bend_c, 5, 10624
6, 3392, Pitch_bend_c, 5, 11296
6, 3393, Pitch_bend_c, 5, 12000
6, 3395, Pitch_bend_c, 5, 12672
6, 3396, Pitch_bend_c, 5, 13440
6, 3397, Pitch_bend_c, 5, 14176
6, 3398, Pitch_bend_c, 5, 14880
6, 3400, Pitch_bend_c, 5, 15424
6, 3401, Pitch_bend_c, 5, 15744
6, 3402, Pitch_bend_c, 5, 15904
6, 3404, Pitch_bend_c, 5, 16000
6, 3410, Pitch_bend_c, 5, 15936
6, 3413, Pitch_bend_c, 5, 15904
6, 3414, Pitch_bend_c, 5, 15872
6, 3421, Pitch_bend_c, 5, 15808
6, 3423, Pitch_bend_c, 5, 15776
6, 3426, Pitch_bend_c, 5, 15744
6, 3427, Pitch_bend_c, 5, 15712
6, 3428, Pitch_bend_c, 5, 15648
6, 3430, Pitch_bend_c, 5, 15616
6, 3431, Pitch_bend_c, 5, 15584
6, 3433, Pitch_bend_c, 5, 15488
6, 3434, Pitch_bend_c, 5, 15424
6, 3435, Pitch_bend_c, 5, 15328
6, 3437, Pitch_bend_c, 5, 15296
6, 3438, Pitch_bend_c, 5, 15168
6, 3439, Pitch_bend_c, 5, 14976
6, 3440, Pitch_bend_c, 5, 14784
6, 3442, Pitch_bend_c, 5, 14560
6, 3443, Pitch_bend_c, 5, 14400
6, 3444, Pitch_bend_c, 5, 14304
6, 3446, Pitch_bend_c, 5, 14208
6, 3447, Pitch_bend_c, 5, 13952
6, 3448, Pitch_bend_c, 5, 11264
6, 3449, Pitch_bend_c, 5, 10816
6, 3451, Pitch_bend_c, 5, 7936
6, 3452, Note_on_c, 5, 72, 0
6, 3506, Note_on_c, 5, 69, 101
6, 3506, Pitch_bend_c, 5, 8192
6, 3507, Pitch_bend_c, 5, 8480
6, 3508, Pitch_bend_c, 5, 8416
6, 3509, Pitch_bend_c, 5, 8384
6, 3513, Pitch_bend_c, 5, 8512
6, 3514, Pitch_bend_c, 5, 12160
6, 3515, Pitch_bend_c, 5, 12256
6, 3517, Pitch_bend_c, 5, 12320
6, 3518, Pitch_bend_c, 5, 12384
6, 3520, Pitch_bend_c, 5, 12448
6, 3521, Pitch_bend_c, 5, 12480
6, 3523, Pitch_bend_c, 5, 12512
6, 3530, Pitch_bend_c, 5, 12544
6, 3532, Pitch_bend_c, 5, 12576
6, 3535, Pitch_bend_c, 5, 12608
6, 3536, Pitch_bend_c, 5, 12640
6, 3537, Pitch_bend_c, 5, 12704
6, 3539, Pitch_bend_c, 5, 12768
6, 3540, Pitch_bend_c, 5, 12928
6, 3542, Pitch_bend_c, 5, 13024
6, 3544, Note_on_c, 5, 69, 0
6, 3544, Note_on_c, 5, 65, 92
6, 3544, Pitch_bend_c, 5, 8672
6, 3551, Pitch_bend_c, 5, 8512
6, 3552, Pitch_bend_c, 5, 8480
6, 3553, Pitch_bend_c, 5, 8416
6, 3555, Pitch_bend_c, 5, 8288
6, 3556, Note_on_c, 5, 65, 0
6, 3556, Pitch_bend_c, 5, 8672
6, 3557, Pitch_bend_c, 5, 8192
6, 3558, Note_on_c, 5, 63, 50
6, 3558, Pitch_bend_c, 5, 8128
6, 3563, Pitch_bend_c, 5, 8096
6, 3565, Note_on_c, 5, 63, 0
6, 3565, Pitch_bend_c, 5, 8192
6, 3570, Note_on_c, 5, 65, 76
6, 3570, Pitch_bend_c, 5, 8416
6, 3576, Pitch_bend_c, 5, 8448
6, 3577, Pitch_bend_c, 5, 8480
6, 3579, Pitch_bend_c, 5, 8512
6, 3580, Pitch_bend_c, 5, 8544
6, 3581, Pitch_bend_c, 5, 8576
6, 3583, Pitch_bend_c, 5, 8544
6, 3584, Pitch_bend_c, 5, 8192
6, 3585, Note_on_c, 5, 61, 53
6, 3589, Note_on_c, 5, 65, 0
6, 3589, Pitch_bend_c, 5, 8224
6, 3591, Pitch_bend_c, 5, 8288
6, 3592, Pitch_bend_c, 5, 8320
6, 3593, Pitch_bend_c, 5, 8352
6, 3594, Pitch_bend_c, 5, 8320
6, 3596, Pitch_bend_c, 5, 8288
6, 3597, Pitch_bend_c, 5, 8224
6, 3599, Pitch_bend_c, 5, 8192
6, 3600, Pitch_bend_c, 5, 8128
6, 3601, Pitch_bend_c, 5, 8032
6, 3604, Pitch_bend_c, 5, 8096
6, 3605, Pitch_bend_c, 5, 8384
6, 3606, Pitch_bend_c, 5, 8928
6, 3607, Pitch_bend_c, 5, 9536
6, 3609, Pitch_bend_c, 5, 10144
6, 3610, Pitch_bend_c, 5, 10528
6, 3611, Pitch_bend_c, 5, 10688
6, 3613, Pitch_bend_c, 5, 10656
6, 3614, Pitch_bend_c, 5, 10560
6, 3615, Pitch_bend_c, 5, 10240
6, 3617, Note_on_c, 5, 61, 0
6, 3617, Pitch_bend_c, 5, 9856
6, 3618, Pitch_bend_c, 5, 8192
6, 3619, Note_on_c, 5, 58, 51
6, 3619, Pitch_bend_c, 5, 8064
6, 3620, Pitch_bend_c, 5, 8128
6, 3624, Pitch_bend_c, 5, 8160
6, 3630, Pitch_bend_c, 5, 8128
6, 3634, Pitch_bend_c, 5, 8096
6, 3636, Pitch_bend_c, 5, 8128
6, 3641, Pitch_bend_c, 5, 8096
6, 3644, Pitch_bend_c, 5, 8064
6, 3647, Pitch_bend_c, 5, 8032
6, 3650, Pitch_bend_c, 5, 8000
6, 3653, Pitch_bend_c, 5, 8032
6, 3654, Pitch_bend_c, 5, 8128
6, 3655, Pitch_bend_c, 5, 8288
6, 3657, Pitch_bend_c, 5, 8544
6, 3658, Pitch_bend_c, 5, 8768
6, 3659, Pitch_bend_c, 5, 8864
6, 3662, Note_on_c, 5, 65, 64
6, 3662, Pitch_bend_c, 5, 8640
6, 3663, Pitch_bend_c, 5, 8672
6, 3665, Pitch_bend_c, 5, 8704
6, 3666, Pitch_bend_c, 5, 8064
6, 3667, Pitch_bend_c, 5, 8800
6, 3668, Note_on_c, 5, 58, 0
6, 3668, Pitch_bend_c, 5, 8736
6, 3669, Pitch_bend_c, 5, 8544
6, 3670, Note_on_c, 5, 65, 0
6, 3670, Pitch_bend_c, 5, 8704
6, 3674, Note_on_c, 5, 70, 88
6, 3674, Pitch_bend_c, 5, 8384
6, 3677, Pitch_bend_c, 5, 8352
6, 3679, Pitch_bend_c, 5, 8320
6, 3680, Pitch_bend_c, 5, 8256
6, 3681, Pitch_bend_c, 5, 8224
6, 3682, Pitch_bend_c, 5, 8256
6, 3684, Pitch_bend_c, 5, 8288
6, 3685, Pitch_bend_c, 5, 8320
6, 3689, Pitch_bend_c, 5, 8288
6, 3690, Pitch_bend_c, 5, 8320
6, 3691, Pitch_bend_c, 5, 8384
6, 3693, Pitch_bend_c, 5, 8480
6, 3694, Pitch_bend_c, 5, 8576
6, 3697, Note_on_c, 5, 70, 0
6, 3697, Pitch_bend_c, 5, 8544
6, 3698, Note_on_c, 5, 70, 88
6, 3698, Pitch_bend_c, 5, 8224
6, 3702, Pitch_bend_c, 5, 8256
6, 3705, Pitch_bend_c, 5, 8512
6, 3706, Pitch_bend_c, 5, 9056
6, 3707, Pitch_bend_c, 5, 9632
6, 3709, Pitch_bend_c, 5, 10144
6, 3710, Pitch_bend_c, 5, 10304
6, 3711, Pitch_bend_c, 5, 9952
6, 3713, Pitch_bend_c, 5, 9408
6, 3714, Pitch_bend_c, 5, 8896
6, 3715, Pitch_bend_c, 5, 8480
6, 3717, Pitch_bend_c, 5, 8352
6, 3718, Pitch_bend_c, 5, 8320
6, 3719, Pitch_bend_c, 5, 8352
6, 3726, Pitch_bend_c, 5, 8320
6, 3727, Pitch_bend_c, 5, 8288
6, 3729, Pitch_bend_c, 5, 8256
6, 3731, Pitch_bend_c, 5, 8224
6, 3733, Pitch_bend_c, 5, 8256
6, 3734, Note_on_c, 5, 70, 0
6, 3734, Pitch_bend_c, 5, 8320
6, 3736, Pitch_bend_c, 5, 8192
6, 3737, Note_on_c, 5, 74, 93
6, 3737, Pitch_bend_c, 5, 7872
6, 3738, Pitch_bend_c, 5, 8064
6, 3740, Pitch_bend_c, 5, 8192
6, 3753, Pitch_bend_c, 5, 7744
6, 3754, Pitch_bend_c, 5, 7712
6, 3756, Pitch_bend_c, 5, 7648
6, 3757, Pitch_bend_c, 5, 7616
6, 3758, Pitch_bend_c, 5, 7648
6, 3759, Pitch_bend_c, 5, 7712
6, 3761, Note_on_c, 5, 74, 0
6, 3761, Pitch_bend_c, 5, 7904
6, 3763, Pitch_bend_c, 5, 8192
6, 3764, Note_on_c, 5, 74, 93
6, 3764, Pitch_bend_c, 5, 8512
6, 3765, Pitch_bend_c, 5, 8064
6, 3767, Pitch_bend_c, 5, 8096
6, 3771, Pitch_bend_c, 5, 8000
6, 3772, Pitch_bend_c, 5, 7904
6, 3775, Pitch_bend_c, 5, 7840
6, 3778, Pitch_bend_c, 5, 7776
6, 3780, Pitch_bend_c, 5, 12000
6, 3781, Pitch_bend_c, 5, 12064
6, 3782, Note_on_c, 5, 74, 0
6, 3783, Pitch_bend_c, 5, 8192
6, 3784, Note_on_c, 5, 75, 93
6, 3787, Pitch_bend_c, 5, 8128
6, 3790, Pitch_bend_c, 5, 8160
6, 3791, Pitch_bend_c, 5, 8128
6, 3793, Pitch_bend_c, 5, 8160
6, 3794, Pitch_bend_c, 5, 8128
6, 3795, Pitch_bend_c, 5, 8032
6, 3796, Pitch_bend_c, 5, 8064
6, 3798, Pitch_bend_c, 5, 8160
6, 3800, Pitch_bend_c, 5, 8192
6, 3801, Pitch_bend_c, 5, 8224
6, 3803, Pitch_bend_c, 5, 8320
6, 3804, Pitch_bend_c, 5, 8416
6, 3805, Pitch_bend_c, 5, 8544
6, 3807, Pitch_bend_c, 5, 8640
6, 3808, Pitch_bend_c, 5, 8672
6, 3809, Pitch_bend_c, 5, 8768
6, 3811, Pitch_bend_c, 5, 8864
6, 3812, Pitch_bend_c, 5, 8960
6, 3813, Pitch_bend_c, 5, 9056
6, 3815, Pitch_bend_c, 5, 9120
6, 3816, Pitch_bend_c, 5, 9280
6, 3817, Pitch_bend_c, 5, 9344
6, 3819, Pitch_bend_c, 5, 9536
6, 3820, Pitch_bend_c, 5, 9760
6, 3821, Pitch_bend_c, 5, 9984
6, 3822, Pitch_bend_c, 5, 10304
6, 3823, Pitch_bend_c, 5, 10784
6, 3825, Pitch_bend_c, 5, 11328
6, 3826, Pitch_bend_c, 5, 12000
6, 3827, Pitch_bend_c, 5, 12704
6, 3829, Pitch_bend_c, 5, 13344
6, 3830, Pitch_bend_c, 5, 13824
6, 3832, Pitch_bend_c, 5, 14048
6, 3833, Pitch_bend_c, 5, 14144
6, 3834, Pitch_bend_c, 5, 13952
6, 3836, Pitch_bend_c, 5, 11360
6, 3837, Pitch_bend_c, 5, 10912
6, 3838, Pitch_bend_c, 5, 10304
6, 3839, Note_on_c, 5, 75, 0
6, 3839, Note_on_c, 5, 77, 90
6, 3839, Pitch_bend_c, 5, 8576
6, 3844, Pitch_bend_c, 5, 8544
6, 3845, Pitch_bend_c, 5, 8576
6, 3846, Pitch_bend_c, 5, 8544
6, 3849, Pitch_bend_c, 5, 8480
6, 3852, Pitch_bend_c, 5, 8416
6, 3853, Pitch_bend_c, 5, 8384
6, 3855, Pitch_bend_c, 5, 8320
6, 3857, Pitch_bend_c, 5, 8288
6, 3860, Pitch_bend_c, 5, 8320
6, 3864, Pitch_bend_c, 5, 8384
6, 3866, Pitch_bend_c, 5, 8416
6, 3872, Pitch_bend_c, 5, 8384
6, 3873, Pitch_bend_c, 5, 8416
6, 3874, Pitch_bend_c, 5, 8576
6, 3876, Pitch_bend_c, 5, 8896
6, 3877, Pitch_bend_c, 5, 9280
6, 3878, Pitch_bend_c, 5, 9696
6, 3879, Pitch_bend_c, 5, 10048
6, 3881, Pitch_bend_c, 5, 10272
6, 3882, Pitch_bend_c, 5, 10368
6, 3885, Pitch_bend_c, 5, 10208
6, 3886, Pitch_bend_c, 5, 9856
6, 3887, Pitch_bend_c, 5, 9504
6, 3888, Pitch_bend_c, 5, 9088
6, 3889, Pitch_bend_c, 5, 8800
6, 3891, Pitch_bend_c, 5, 8672
6, 3892, Pitch_bend_c, 5, 8640
6, 3893, Pitch_bend_c, 5, 8672
6, 3895, Pitch_bend_c, 5, 8896
6, 3896, Pitch_bend_c, 5, 9280
6, 3897, Pitch_bend_c, 5, 9696
6, 3899, Pitch_bend_c, 5, 10048
6, 3900, Pitch_bend_c, 5, 10272
6, 3901, Pitch_bend_c, 5, 10304
6, 3902, Pitch_bend_c, 5, 10272
6, 3904, Pitch_bend_c, 5, 10016
6, 3905, Pitch_bend_c, 5, 9600
6, 3906, Pitch_bend_c, 5, 9184
6, 3908, Pitch_bend_c, 5, 8800
6, 3909, Pitch_bend_c, 5, 8576
6, 3910, Pitch_bend_c, 5, 8544
6, 3911, Note_on_c, 5, 77, 0
6, 3951, Note_on_c, 5, 75, 93
6, 3951, Pitch_bend_c, 5, 8192
6, 3952, Pitch_bend_c, 5, 8544
6, 3955, Pitch_bend_c, 5, 8448
6, 3957, Pitch_bend_c, 5, 8256
6, 3958, Pitch_bend_c, 5, 8128
6, 3960, Pitch_bend_c, 5, 8064
6, 3962, Pitch_bend_c, 5, 8032
6, 3963, Pitch_bend_c, 5, 7904
6, 3964, Pitch_bend_c, 5, 7872
6, 3966, Pitch_bend_c, 5, 7808
6, 3967, Note_on_c, 5, 75, 0
6, 3967, Pitch_bend_c, 5, 8064
6, 3975, Pitch_bend_c, 5, 8192
6, 3976, Note_on_c, 5, 73, 92
6, 3976, Pitch_bend_c, 5, 8672
6, 3977, Pitch_bend_c, 5, 8448
6, 3978, Pitch_bend_c, 5, 8416
6, 3980, Pitch_bend_c, 5, 8384
6, 3981, Pitch_bend_c, 5, 8352
6, 3982, Pitch_bend_c, 5, 8288
6, 3985, Pitch_bend_c, 5, 8256
6, 3987, Pitch_bend_c, 5, 8288
6, 3988, Note_on_c, 5, 73, 0
6, 3988, Pitch_bend_c, 5, 8384
6, 3997, Pitch_bend_c, 5, 8192
6, 3998, Note_on_c, 5, 75, 91
6, 3999, Pitch_bend_c, 5, 8672
6, 4000, Pitch_bend_c, 5, 8640
6, 4007, Pitch_bend_c, 5, 8576
6, 4009, Note_on_c, 5, 75, 0
6, 4009, Pitch_bend_c, 5, 8800
6, 4023, Pitch_bend_c, 5, 8192
6, 4024, Note_on_c, 5, 76, 91
6, 4025, Pitch_bend_c, 5, 8608
6, 4027, Pitch_bend_c, 5, 8672
6, 4028, Pitch_bend_c, 5, 8768
6, 4031, Pitch_bend_c, 5, 8800
6, 4032, Pitch_bend_c, 5, 8768
6, 4033, Pitch_bend_c, 5, 8512
6, 4035, Pitch_bend_c, 5, 8224
6, 4036, Pitch_bend_c, 5, 7840
6, 4037, Pitch_bend_c, 5, 7328
6, 4038, Pitch_bend_c, 5, 6752
6, 4040, Pitch_bend_c, 5, 6176
6, 4041, Pitch_bend_c, 5, 5600
6, 4042, Pitch_bend_c, 5, 5248
6, 4044, Pitch_bend_c, 5, 5056
6, 4045, Pitch_bend_c, 5, 5024
6, 4046, Pitch_bend_c, 5, 4896
6, 4047, Pitch_bend_c, 5, 4704
6, 4049, Pitch_bend_c, 5, 4384
6, 4050, Pitch_bend_c, 5, 4064
6, 4052, Pitch_bend_c, 5, 3840
6, 4053, Pitch_bend_c, 5, 3712
6, 4054, Pitch_bend_c, 5, 3680
6, 4057, Pitch_bend_c, 5, 3648
6, 4058, Pitch_bend_c, 5, 3680
6, 4059, Pitch_bend_c, 5, 3552
6, 4060, Note_on_c, 5, 76, 0
6, 4060, Pitch_bend_c, 5, 3712
6, 4062, Note_on_c, 5, 73, 88
6, 4062, Pitch_bend_c, 5, 8192
6, 4063, Pitch_bend_c, 5, 8128
6, 4064, Pitch_bend_c, 5, 8160
6, 4065, Pitch_bend_c, 5, 8128
6, 4067, Pitch_bend_c, 5, 8064
6, 4071, Pitch_bend_c, 5, 8128
6, 4072, Pitch_bend_c, 5, 8032
6, 4074, Pitch_bend_c, 5, 8064
6, 4075, Pitch_bend_c, 5, 8192
6, 4077, Pitch_bend_c, 5, 8416
6, 4078, Pitch_bend_c, 5, 8864
6, 4079, Pitch_bend_c, 5, 9344
6, 4080, Pitch_bend_c, 5, 9856
6, 4081, Pitch_bend_c, 5, 10432
6, 4083, Pitch_bend_c, 5, 10976
6, 4084, Pitch_bend_c, 5, 11328
6, 4085, Pitch_bend_c, 5, 11552
6, 4087, Pitch_bend_c, 5, 11648
6, 4088, Pitch_bend_c, 5, 11616
6, 4089, Pitch_bend_c, 5, 11360
6, 4090, Note_on_c, 5, 73, 0
6, 4102, Pitch_bend_c, 5, 8192
6, 4103, Note_on_c, 5, 70, 74
6, 4103, Pitch_bend_c, 5, 8384
6, 4104, Pitch_bend_c, 5, 8480
6, 4107, Pitch_bend_c, 5, 8448
6, 4108, Pitch_bend_c, 5, 8416
6, 4109, Pitch_bend_c, 5, 8384
6, 4110, Pitch_bend_c, 5, 8288
6, 4112, Pitch_bend_c, 5, 8224
6, 4113, Pitch_bend_c, 5, 8160
6, 4114, Pitch_bend_c, 5, 8064
6, 4116, Pitch_bend_c, 5, 8032
6, 4119, Pitch_bend_c, 5, 8064
6, 4121, Pitch_bend_c, 5, 8192
6, 4122, Pitch_bend_c, 5, 8512
6, 4123, Pitch_bend_c, 5, 8928
6, 4125, Pitch_bend_c, 5, 9248
6, 4126, Pitch_bend_c, 5, 9440
6, 4127, Pitch_bend_c, 5, 9184
6, 4129, Pitch_bend_c, 5, 8832
6, 4130, Pitch_bend_c, 5, 8416
6, 4131, Pitch_bend_c, 5, 8160
6, 4133, Pitch_bend_c, 5, 8032
6, 4134, Pitch_bend_c, 5, 8064
6, 4136, Pitch_bend_c, 5, 8224
6, 4137, Pitch_bend_c, 5, 8544
6, 4138, Pitch_bend_c, 5, 8928
6, 4139, Pitch_bend_c, 5, 9248
6, 4141, Pitch_bend_c, 5, 9376
6, 4142, Pitch_bend_c, 5, 9088
6, 4143, Pitch_bend_c, 5, 8672
6, 4145, Pitch_bend_c, 5, 8288
6, 4146, Pitch_bend_c, 5, 8032
6, 4147, Pitch_bend_c, 5, 7936
6, 4150, Pitch_bend_c, 5, 7968
6, 4151, Pitch_bend_c, 5, 8032
6, 4152, Pitch_bend_c, 5, 8096
6, 4154, Pitch_bend_c, 5, 8192
6, 4155, Pitch_bend_c, 5, 8224
6, 4156, Note_on_c, 5, 70, 0
6, 4156, Pitch_bend_c, 5, 8192
6, 4169, Note_on_c, 5, 65, 73
6, 4169, Pitch_bend_c, 5, 8384
6, 4172, Pitch_bend_c, 5, 8416
6, 4175, Pitch_bend_c, 5, 8448
6, 4176, Pitch_bend_c, 5, 8480
6, 4177, Pitch_bend_c, 5, 8512
6, 4179, Note_on_c, 5, 65, 0
6, 4181, Note_on_c, 5, 67, 58
6, 4181, Pitch_bend_c, 5, 8448
6, 4187, Pitch_bend_c, 5, 8416
6, 4190, Pitch_bend_c, 5, 8384
6, 4193, Pitch_bend_c, 5, 8352
6, 4194, Pitch_bend_c, 5, 8320
6, 4197, Pitch_bend_c, 5, 8288
6, 4200, Pitch_bend_c, 5, 8256
6, 4202, Pitch_bend_c, 5, 8224
6, 4203, Pitch_bend_c, 5, 8192
6, 4214, Pitch_bend_c, 5, 7872
6, 4216, Pitch_bend_c, 5, 8192
6, 4217, Note_on_c, 5, 67, 0
6, 4217, Note_on_c, 5, 70, 81
6, 4241, Pitch_bend_c, 5, 8160
6, 4243, Pitch_bend_c, 5, 8128
6, 4244, Pitch_bend_c, 5, 8096
6, 4248, Pitch_bend_c, 5, 8064
6, 4252, Pitch_bend_c, 5, 8032
6, 4254, Pitch_bend_c, 5, 8000
6, 4256, Pitch_bend_c, 5, 7968
6, 4260, Pitch_bend_c, 5, 7936
6, 4262, Pitch_bend_c, 5, 7904
6, 4266, Pitch_bend_c, 5, 7936
6, 4267, Pitch_bend_c, 5, 8000
6, 4269, Note_on_c, 5, 70, 0
6, 4269, Pitch_bend_c, 5, 8032
6, 4270, Note_on_c, 5, 73, 73
6, 4271, Pitch_bend_c, 5, 8128
6, 4274, Pitch_bend_c, 5, 8064
6, 4277, Pitch_bend_c, 5, 8032
6, 4278, Pitch_bend_c, 5, 8000
6, 4283, Pitch_bend_c, 5, 8032
6, 4285, Pitch_bend_c, 5, 8064
6, 4290, Pitch_bend_c, 5, 8032
6, 4291, Pitch_bend_c, 5, 8000
6, 4293, Pitch_bend_c, 5, 7968
6, 4294, Pitch_bend_c, 5, 7936
6, 4297, Pitch_bend_c, 5, 7872
6, 4299, Pitch_bend_c, 5, 7840
6, 4301, Pitch_bend_c, 5, 7808
6, 4304, Pitch_bend_c, 5, 7840
6, 4307, Pitch_bend_c, 5, 7872
6, 4308, Pitch_bend_c, 5, 7936
6, 4309, Pitch_bend_c, 5, 8000
6, 4311, Pitch_bend_c, 5, 8128
6, 4312, Pitch_bend_c, 5, 8416
6, 4313, Pitch_bend_c, 5, 8928
6, 4315, Pitch_bend_c, 5, 11168
6, 4316, Pitch_bend_c, 5, 11328
6, 4317, Pitch_bend_c, 5, 11552
6, 4318, Pitch_bend_c, 5, 11904
6, 4320, Pitch_bend_c, 5, 12160
6, 4321, Pitch_bend_c, 5, 12384
6, 4322, Pitch_bend_c, 5, 12480
6, 4323, Note_on_c, 5, 73, 0
6, 4439, Pitch_bend_c, 5, 8192
6, 4442, Note_on_c, 5, 78, 93
6, 4442, Pitch_bend_c, 5, 9216
6, 4443, Pitch_bend_c, 5, 9504
6, 4444, Pitch_bend_c, 5, 9440
6, 4446, Pitch_bend_c, 5, 9504
6, 4447, Pitch_bend_c, 5, 9760
6, 4448, Pitch_bend_c, 5, 10080
6, 4449, Pitch_bend_c, 5, 10560
6, 4451, Pitch_bend_c, 5, 11072
6, 4452, Pitch_bend_c, 5, 11328
6, 4453, Pitch_bend_c, 5, 11584
6, 4455, Pitch_bend_c, 5, 11776
6, 4456, Pitch_bend_c, 5, 11808
6, 4457, Pitch_bend_c, 5, 11872
6, 4458, Pitch_bend_c, 5, 11968
6, 4460, Pitch_bend_c, 5, 12032
6, 4461, Pitch_bend_c, 5, 12128
6, 4466, Pitch_bend_c, 5, 12096
6, 4469, Pitch_bend_c, 5, 12032
6, 4470, Pitch_bend_c, 5, 11968
6, 4472, Pitch_bend_c, 5, 11936
6, 4473, Pitch_bend_c, 5, 11808
6, 4474, Pitch_bend_c, 5, 11648
6, 4475, Pitch_bend_c, 5, 11552
6, 4477, Pitch_bend_c, 5, 11424
6, 4478, Pitch_bend_c, 5, 11264
6, 4480, Pitch_bend_c, 5, 11168
6, 4481, Pitch_bend_c, 5, 11008
6, 4482, Pitch_bend_c, 5, 10784
6, 4483, Pitch_bend_c, 5, 10528
6, 4485, Pitch_bend_c, 5, 10240
6, 4486, Pitch_bend_c, 5, 10048
6, 4487, Pitch_bend_c, 5, 9888
6, 4488, Pitch_bend_c, 5, 9664
6, 4490, Pitch_bend_c, 5, 9504
6, 4491, Pitch_bend_c, 5, 9280
6, 4492, Pitch_bend_c, 5, 9120
6, 4494, Pitch_bend_c, 5, 8896
6, 4495, Pitch_bend_c, 5, 8640
6, 4496, Pitch_bend_c, 5, 8352
6, 4497, Pitch_bend_c, 5, 8192
6, 4499, Pitch_bend_c, 5, 7968
6, 4500, Pitch_bend_c, 5, 7936
6, 4501, Pitch_bend_c, 5, 8640
6, 4502, Note_on_c, 5, 78, 0
6, 4505, Pitch_bend_c, 5, 8192
6, 4506, Note_on_c, 5, 77, 92
6, 4506, Pitch_bend_c, 5, 7904
6, 4507, Pitch_bend_c, 5, 8064
6, 4510, Pitch_bend_c, 5, 8000
6, 4511, Pitch_bend_c, 5, 7968
6, 4512, Pitch_bend_c, 5, 7904
6, 4516, Pitch_bend_c, 5, 7872
6, 4518, Pitch_bend_c, 5, 7904
6, 4519, Note_on_c, 5, 77, 0
6, 4519, Pitch_bend_c, 5, 8000
6, 4522, Pitch_bend_c, 5, 8192
6, 4534, Note_on_c, 5, 80, 101
6, 4534, Pitch_bend_c, 5, 5120
6, 4535, Pitch_bend_c, 5, 4992
6, 4538, Pitch_bend_c, 5, 5056
6, 4539, Pitch_bend_c, 5, 5184
6, 4540, Pitch_bend_c, 5, 5408
6, 4542, Pitch_bend_c, 5, 5632
6, 4543, Pitch_bend_c, 5, 5856
6, 4544, Pitch_bend_c, 5, 6144
6, 4545, Pitch_bend_c, 5, 6432
6, 4547, Pitch_bend_c, 5, 6784
6, 4548, Pitch_bend_c, 5, 7168
6, 4549, Pitch_bend_c, 5, 7520
6, 4551, Pitch_bend_c, 5, 7808
6, 4552, Pitch_bend_c, 5, 8032
6, 4553, Pitch_bend_c, 5, 8096
6, 4554, Pitch_bend_c, 5, 8160
6, 4556, Pitch_bend_c, 5, 8096
6, 4557, Pitch_bend_c, 5, 7968
6, 4558, Pitch_bend_c, 5, 7872
6, 4560, Pitch_bend_c, 5, 7744
6, 4561, Pitch_bend_c, 5, 7648
6, 4562, Note_on_c, 5, 80, 0
6, 4562, Pitch_bend_c, 5, 8096
6, 4611, Pitch_bend_c, 5, 8192
6, 4612, Note_on_c, 5, 79, 93
6, 4612, Pitch_bend_c, 5, 8960
6, 4620, Pitch_bend_c, 5, 8896
6, 4625, Note_on_c, 5, 79, 0
6, 4625, Pitch_bend_c, 5, 8992
6, 4629, Pitch_bend_c, 5, 8192
6, 4630, Note_on_c, 5, 77, 79
6, 4630, Pitch_bend_c, 5, 8800
6, 4640, Pitch_bend_c, 5, 8736
6, 4642, Note_on_c, 5, 77, 0
6, 4642, Pitch_bend_c, 5, 8800
6, 4643, Pitch_bend_c, 5, 8192
6, 4644, Note_on_c, 5, 72, 86
6, 4644, Pitch_bend_c, 5, 9152
6, 4646, Pitch_bend_c, 5, 9408
6, 4647, Pitch_bend_c, 5, 9856
6, 4649, Pitch_bend_c, 5, 10432
6, 4650, Pitch_bend_c, 5, 11232
6, 4651, Pitch_bend_c, 5, 11840
6, 4652, Pitch_bend_c, 5, 12288
6, 4654, Pitch_bend_c, 5, 12512
6, 4655, Pitch_bend_c, 5, 12288
6, 4657, Pitch_bend_c, 5, 8864
6, 4658, Pitch_bend_c, 5, 8672
6, 4659, Pitch_bend_c, 5, 8448
6, 4660, Pitch_bend_c, 5, 8288
6, 4662, Pitch_bend_c, 5, 8192
6, 4666, Note_on_c, 5, 72, 0
6, 4666, Pitch_bend_c, 5, 8448
6, 4669, Pitch_bend_c, 5, 8192
6, 4670, Note_on_c, 5, 70, 47
6, 4671, Pitch_bend_c, 5, 8224
6, 4674, Pitch_bend_c, 5, 8256
6, 4677, Pitch_bend_c, 5, 8288
6, 4679, Note_on_c, 5, 70, 0
6, 4679, Pitch_bend_c, 5, 8320
6, 4681, Pitch_bend_c, 5, 8192
6, 4682, Note_on_c, 5, 67, 18
6, 4685, Pitch_bend_c, 5, 8224
6, 4687, Pitch_bend_c, 5, 8256
6, 4688, Pitch_bend_c, 5, 8288
6, 4693, Pitch_bend_c, 5, 8256
6, 4695, Pitch_bend_c, 5, 8032
6, 4696, Note_on_c, 5, 67, 0
6, 4696, Pitch_bend_c, 5, 8192
6, 4697, Note_on_c, 5, 70, 64
6, 4697, Pitch_bend_c, 5, 8288
6, 4698, Pitch_bend_c, 5, 8192
6, 4700, Pitch_bend_c, 5, 8224
6, 4705, Pitch_bend_c, 5, 8256
6, 4706, Pitch_bend_c, 5, 8192
6, 4710, Pitch_bend_c, 5, 8288
6, 4711, Pitch_bend_c, 5, 8448
6, 4712, Pitch_bend_c, 5, 8576
6, 4714, Pitch_bend_c, 5, 8608
6, 4715, Pitch_bend_c, 5, 8448
6, 4716, Pitch_bend_c, 5, 8224
6, 4718, Pitch_bend_c, 5, 8096
6, 4719, Pitch_bend_c, 5, 7936
6, 4720, Pitch_bend_c, 5, 7904
6, 4721, Pitch_bend_c, 5, 7936
6, 4723, Pitch_bend_c, 5, 8064
6, 4724, Pitch_bend_c, 5, 8448
6, 4725, Pitch_bend_c, 5, 8928
6, 4727, Pitch_bend_c, 5, 9408
6, 4728, Pitch_bend_c, 5, 9664
6, 4729, Pitch_bend_c, 5, 9472
6, 4730, Pitch_bend_c, 5, 9024
6, 4732, Pitch_bend_c, 5, 8512
6, 4733, Pitch_bend_c, 5, 8128
6, 4734, Pitch_bend_c, 5, 7904
6, 4736, Pitch_bend_c, 5, 7840
6, 4737, Pitch_bend_c, 5, 7872
6, 4738, Pitch_bend_c, 5, 8096
6, 4740, Pitch_bend_c, 5, 8544
6, 4741, Pitch_bend_c, 5, 9152
6, 4742, Pitch_bend_c, 5, 9792
6, 4744, Pitch_bend_c, 5, 10208
6, 4745, Pitch_bend_c, 5, 10272
6, 4746, Pitch_bend_c, 5, 10176
6, 4748, Note_on_c, 5, 70, 0
6, 4748, Pitch_bend_c, 5, 9824
6, 4750, Pitch_bend_c, 5, 8192
6, 4751, Note_on_c, 5, 72, 60
6, 4751, Pitch_bend_c, 5, 8992
6, 4754, Pitch_bend_c, 5, 8896
6, 4756, Pitch_bend_c, 5, 8736
6, 4757, Pitch_bend_c, 5, 8512
6, 4759, Pitch_bend_c, 5, 8320
6, 4760, Pitch_bend_c, 5, 8256
6, 4761, Pitch_bend_c, 5, 8448
6, 4762, Pitch_bend_c, 5, 8896
6, 4764, Pitch_bend_c, 5, 11136
6, 4765, Pitch_bend_c, 5, 11424
6, 4766, Pitch_bend_c, 5, 11808
6, 4768, Pitch_bend_c, 5, 12320
6, 4769, Pitch_bend_c, 5, 12800
6, 4770, Pitch_bend_c, 5, 13024
6, 4772, Note_on_c, 5, 72, 0
6, 4772, Pitch_bend_c, 5, 13120
6, 4794, Note_on_c, 5, 70, 89
6, 4794, Pitch_bend_c, 5, 8192
6, 4795, Pitch_bend_c, 5, 8800
6, 4797, Pitch_bend_c, 5, 8672
6, 4798, Pitch_bend_c, 5, 8576
6, 4799, Pitch_bend_c, 5, 8544
6, 4801, Pitch_bend_c, 5, 8512
6, 4802, Pitch_bend_c, 5, 8544
6, 4803, Pitch_bend_c, 5, 8576
6, 4807, Pitch_bend_c, 5, 8544
6, 4810, Pitch_bend_c, 5, 8512
6, 4814, Pitch_bend_c, 5, 8480
6, 4815, Note_on_c, 5, 70, 0
6, 4815, Pitch_bend_c, 5, 8544
6, 4818, Note_on_c, 5, 68, 60
6, 4818, Pitch_bend_c, 5, 8224
6, 4822, Pitch_bend_c, 5, 8192
6, 4825, Note_on_c, 5, 68, 0
6, 4825, Pitch_bend_c, 5, 8160
6, 4830, Pitch_bend_c, 5, 8192
6, 4833, Note_on_c, 5, 63, 79
6, 4834, Pitch_bend_c, 5, 8224
6, 4837, Pitch_bend_c, 5, 8256
6, 4840, Pitch_bend_c, 5, 8288
6, 4841, Pitch_bend_c, 5, 8448
6, 4842, Pitch_bend_c, 5, 11008
6, 4844, Pitch_bend_c, 5, 11488
6, 4845, Pitch_bend_c, 5, 11968
6, 4846, Pitch_bend_c, 5, 12384
6, 4848, Pitch_bend_c, 5, 12640
6, 4849, Pitch_bend_c, 5, 12128
6, 4850, Pitch_bend_c, 5, 9696
6, 4851, Pitch_bend_c, 5, 9504
6, 4853, Pitch_bend_c, 5, 9280
6, 4854, Pitch_bend_c, 5, 8960
6, 4855, Pitch_bend_c, 5, 8672
6, 4857, Pitch_bend_c, 5, 8576
6, 4858, Pitch_bend_c, 5, 8544
6, 4859, Pitch_bend_c, 5, 8480
6, 4860, Pitch_bend_c, 5, 8416
6, 4862, Pitch_bend_c, 5, 0
6, 4863, Pitch_bend_c, 5, 128
6, 4864, Pitch_bend_c, 5, 192
6, 4866, Pitch_bend_c, 5, 224
6, 4867, Pitch_bend_c, 5, 288
6, 4869, Pitch_bend_c, 5, 224
6, 4870, Pitch_bend_c, 5, 128
6, 4871, Note_on_c, 5, 63, 0
6, 4871, Pitch_bend_c, 5, 8192
6, 4875, Note_on_c, 5, 58, 69
6, 4875, Pitch_bend_c, 5, 8320
6, 4876, Pitch_bend_c, 5, 8160
6, 4878, Pitch_bend_c, 5, 8032
6, 4879, Pitch_bend_c, 5, 7904
6, 4880, Pitch_bend_c, 5, 8288
6, 4881, Note_on_c, 5, 58, 0
6, 4888, Note_on_c, 5, 63, 54
6, 4888, Pitch_bend_c, 5, 8064
6, 4889, Pitch_bend_c, 5, 8032
6, 4892, Pitch_bend_c, 5, 8064
6, 4900, Pitch_bend_c, 5, 8032
6, 4901, Pitch_bend_c, 5, 8000
6, 4907, Pitch_bend_c, 5, 7968
6, 4909, Pitch_bend_c, 5, 8000
6, 4910, Note_on_c, 5, 65, 95
6, 4910, Pitch_bend_c, 5, 8288
6, 4911, Pitch_bend_c, 5, 8064
6, 4912, Pitch_bend_c, 5, 8192
6, 4913, Pitch_bend_c, 5, 8256
6, 4914, Note_on_c, 5, 63, 0
6, 4914, Pitch_bend_c, 5, 8320
6, 4916, Pitch_bend_c, 5, 8384
6, 4917, Pitch_bend_c, 5, 8448
6, 4918, Pitch_bend_c, 5, 8608
6, 4919, Note_on_c, 5, 65, 0
6, 4919, Pitch_bend_c, 5, 8064
6, 4921, Pitch_bend_c, 5, 8000
6, 4922, Pitch_bend_c, 5, 8192
6, 4923, Note_on_c, 5, 61, 69
6, 4923, Pitch_bend_c, 5, 8448
6, 4924, Pitch_bend_c, 5, 8384
6, 4925, Pitch_bend_c, 5, 8192
6, 4926, Pitch_bend_c, 5, 8448
6, 4927, Pitch_bend_c, 5, 8256
6, 4929, Pitch_bend_c, 5, 8288
6, 4930, Pitch_bend_c, 5, 8352
6, 4931, Pitch_bend_c, 5, 8448
6, 4933, Pitch_bend_c, 5, 8544
6, 4934, Pitch_bend_c, 5, 8768
6, 4935, Pitch_bend_c, 5, 9120
6, 4936, Pitch_bend_c, 5, 9408
6, 4938, Pitch_bend_c, 5, 9664
6, 4939, Pitch_bend_c, 5, 9952
6, 4941, Pitch_bend_c, 5, 10304
6, 4942, Pitch_bend_c, 5, 10848
6, 4943, Pitch_bend_c, 5, 11520
6, 4944, Pitch_bend_c, 5, 12064
6, 4946, Pitch_bend_c, 5, 12416
6, 4947, Pitch_bend_c, 5, 12256
6, 4948, Pitch_bend_c, 5, 11744
6, 4949, Note_on_c, 5, 61, 0
6, 4950, Pitch_bend_c, 5, 8192
6, 4952, Note_on_c, 5, 58, 68
6, 4955, Pitch_bend_c, 5, 8224
6, 4957, Pitch_bend_c, 5, 8256
6, 4959, Pitch_bend_c, 5, 8160
6, 4961, Note_on_c, 5, 58, 0
6, 4961, Pitch_bend_c, 5, 8192
6, 4962, Note_on_c, 5, 56, 45
6, 4962, Pitch_bend_c, 5, 8032
6, 4963, Pitch_bend_c, 5, 8096
6, 4968, Pitch_bend_c, 5, 8064
6, 4969, Note_on_c, 5, 56, 0
6, 4969, Pitch_bend_c, 5, 8192
6, 4972, Note_on_c, 5, 53, 41
6, 4972, Pitch_bend_c, 5, 8064
6, 4973, Pitch_bend_c, 5, 8032
6, 4976, Pitch_bend_c, 5, 8000
6, 4978, Pitch_bend_c, 5, 7936
6, 4979, Pitch_bend_c, 5, 7904
6, 4981, Pitch_bend_c, 5, 7872
6, 4982, Pitch_bend_c, 5, 7840
6, 4983, Pitch_bend_c, 5, 7808
6, 4988, Pitch_bend_c, 5, 7904
6, 4990, Pitch_bend_c, 5, 8288
6, 4991, Pitch_bend_c, 5, 8800
6, 4992, Pitch_bend_c, 5, 9216
6, 4993, Pitch_bend_c, 5, 9504
6, 4995, Pitch_bend_c, 5, 9280
6, 4996, Pitch_bend_c, 5, 8768
6, 4997, Pitch_bend_c, 5, 8320
6, 4998, Pitch_bend_c, 5, 7904
6, 5000, Pitch_bend_c, 5, 5728
6, 5001, Pitch_bend_c, 5, 5856
6, 5002, Pitch_bend_c, 5, 5952
6, 5003, Note_on_c, 5, 53, 0
6, 5003, Pitch_bend_c, 5, 8320
6, 5087, Note_on_c, 5, 68, 93
6, 5087, Pitch_bend_c, 5, 8192
6, 5088, Pitch_bend_c, 5, 8448
6, 5089, Pitch_bend_c, 5, 8576
6, 5090, Pitch_bend_c, 5, 8608
6, 5094, Pitch_bend_c, 5, 8640
6, 5095, Pitch_bend_c, 5, 8608
6, 5097, Pitch_bend_c, 5, 8480
6, 5098, Note_on_c, 5, 68, 0
6, 5098, Note_on_c, 5, 64, 73
6, 5098, Pitch_bend_c, 5, 12160
6, 5105, Note_on_c, 5, 64, 0
6, 5107, Pitch_bend_c, 5, 8192
6, 5109, Note_on_c, 5, 63, 80
6, 5109, Pitch_bend_c, 5, 8256
6, 5114, Pitch_bend_c, 5, 8192
6, 5115, Note_on_c, 5, 63, 0
6, 5117, Note_on_c, 5, 61, 73
6, 5117, Pitch_bend_c, 5, 8128
6, 5118, Pitch_bend_c, 5, 8160
6, 5124, Note_on_c, 5, 61, 0
6, 5124, Pitch_bend_c, 5, 8224
6, 5126, Note_on_c, 5, 58, 65
6, 5126, Pitch_bend_c, 5, 8064
6, 5129, Pitch_bend_c, 5, 8096
6, 5142, Pitch_bend_c, 5, 8128
6, 5150, Pitch_bend_c, 5, 8096
6, 5162, Note_on_c, 5, 58, 0
6, 5163, Pitch_bend_c, 5, 8192
6, 5164, Note_on_c, 5, 61, 89
6, 5164, Pitch_bend_c, 5, 8160
6, 5165, Pitch_bend_c, 5, 8192
6, 5170, Pitch_bend_c, 5, 8288
6, 5172, Pitch_bend_c, 5, 8352
6, 5173, Note_on_c, 5, 61, 0
6, 5175, Pitch_bend_c, 5, 8192
6, 5176, Note_on_c, 5, 58, 78
6, 5176, Pitch_bend_c, 5, 8096
6, 5177, Pitch_bend_c, 5, 8128
6, 5178, Pitch_bend_c, 5, 8160
6, 5179, Pitch_bend_c, 5, 8192
6, 5181, Pitch_bend_c, 5, 8128
6, 5183, Note_on_c, 5, 58, 0
6, 5183, Note_on_c, 5, 56, 66
6, 5183, Pitch_bend_c, 5, 8192
6, 5184, Pitch_bend_c, 5, 7712
6, 5186, Pitch_bend_c, 5, 7872
6, 5187, Pitch_bend_c, 5, 7968
6, 5189, Pitch_bend_c, 5, 8096
6, 5190, Pitch_bend_c, 5, 8192
6, 5194, Note_on_c, 5, 56, 0
6, 5196, Note_on_c, 5, 53, 76
6, 5196, Pitch_bend_c, 5, 7872
6, 5197, Pitch_bend_c, 5, 7840
6, 5198, Pitch_bend_c, 5, 7872
6, 5200, Pitch_bend_c, 5, 7904
6, 5205, Pitch_bend_c, 5, 7872
6, 5207, Pitch_bend_c, 5, 7840
6, 5228, Pitch_bend_c, 5, 7808
6, 5237, Pitch_bend_c, 5, 7840
6, 5244, Pitch_bend_c, 5, 7808
6, 5245, Pitch_bend_c, 5, 7776
6, 5246, Pitch_bend_c, 5, 7744
6, 5248, Pitch_bend_c, 5, 7712
6, 5249, Pitch_bend_c, 5, 7680
6, 5253, Pitch_bend_c, 5, 7712
6, 5254, Pitch_bend_c, 5, 7776
6, 5255, Pitch_bend_c, 5, 7808
6, 5258, Pitch_bend_c, 5, 7840
6, 5271, Pitch_bend_c, 5, 7872
6, 5274, Note_on_c, 5, 53, 0
6, 5274, Pitch_bend_c, 5, 7840
6, 5280, Pitch_bend_c, 5, 8192
6, 5281, Note_on_c, 5, 56, 95
6, 5281, Pitch_bend_c, 5, 8032
6, 5282, Pitch_bend_c, 5, 8064
6, 5285, Pitch_bend_c, 5, 8032
6, 5286, Pitch_bend_c, 5, 16256
6, 5287, Pitch_bend_c, 5, 16224
6, 5288, Pitch_bend_c, 5, 16032
6, 5290, Pitch_bend_c, 5, 8000
6, 5292, Pitch_bend_c, 5, 8032
6, 5295, Pitch_bend_c, 5, 8064
6, 5299, Pitch_bend_c, 5, 8096
6, 5300, Pitch_bend_c, 5, 8064
6, 5302, Note_on_c, 5, 56, 0
6, 5302, Note_on_c, 5, 53, 68
6, 5302, Pitch_bend_c, 5, 7808
6, 5309, Pitch_bend_c, 5, 7840
6, 5310, Pitch_bend_c, 5, 7872
6, 5313, Pitch_bend_c, 5, 7616
6, 5314, Note_on_c, 5, 53, 0
6, 5314, Pitch_bend_c, 5, 8192
6, 5315, Note_on_c, 5, 56, 72
6, 5315, Pitch_bend_c, 5, 8032
6, 5321, Pitch_bend_c, 5, 8064
6, 5326, Pitch_bend_c, 5, 8032
6, 5328, Pitch_bend_c, 5, 8000
6, 5330, Pitch_bend_c, 5, 7968
6, 5332, Pitch_bend_c, 5, 7936
6, 5334, Pitch_bend_c, 5, 8064
6, 5335, Pitch_bend_c, 5, 16160
6, 5336, Pitch_bend_c, 5, 16128
6, 5345, Pitch_bend_c, 5, 16096
6, 5348, Pitch_bend_c, 5, 16128
6, 5350, Pitch_bend_c, 5, 16160
6, 5358, Pitch_bend_c, 5, 16128
6, 5359, Pitch_bend_c, 5, 16160
6, 5364, Pitch_bend_c, 5, 16192
6, 5370, Pitch_bend_c, 5, 16160
6, 5372, Pitch_bend_c, 5, 16128
6, 5374, Pitch_bend_c, 5, 16096
6, 5379, Pitch_bend_c, 5, 16128
6, 5380, Pitch_bend_c, 5, 16000
6, 5381, Pitch_bend_c, 5, 15680
6, 5382, Note_on_c, 5, 56, 0
6, 5382, Pitch_bend_c, 5, 16128
6, 5696, Pitch_bend_c, 5, 8192
6, 5697, Note_on_c, 5, 63, 97
6, 5697, Pitch_bend_c, 5, 8320
6, 5701, Pitch_bend_c, 5, 8576
6, 5702, Pitch_bend_c, 5, 9024
6, 5704, Pitch_bend_c, 5, 9696
6, 5705, Pitch_bend_c, 5, 10496
6, 5706, Pitch_bend_c, 5, 11168
6, 5707, Pitch_bend_c, 5, 11744
6, 5709, Pitch_bend_c, 5, 12128
6, 5710, Pitch_bend_c, 5, 12384
6, 5711, Pitch_bend_c, 5, 12640
6, 5713, Pitch_bend_c, 5, 12832
6, 5714, Pitch_bend_c, 5, 12960
6, 5715, Pitch_bend_c, 5, 13024
6, 5717, Pitch_bend_c, 5, 13152
6, 5718, Pitch_bend_c, 5, 13376
6, 5720, Pitch_bend_c, 5, 13632
6, 5721, Pitch_bend_c, 5, 13824
6, 5722, Pitch_bend_c, 5, 13920
6, 5725, Pitch_bend_c, 5, 13888
6, 5726, Pitch_bend_c, 5, 13856
6, 5727, Pitch_bend_c, 5, 13920
6, 5729, Pitch_bend_c, 5, 13888
6, 5731, Pitch_bend_c, 5, 13856
6, 5733, Note_on_c, 5, 63, 0
6, 5733, Pitch_bend_c, 5, 13888
6, 5751, Pitch_bend_c, 5, 8192
6, 5751, Note_on_c, 5, 63, 95
6, 5752, Pitch_bend_c, 5, 8480
6, 5753, Pitch_bend_c, 5, 8384
6, 5754, Pitch_bend_c, 5, 8416
6, 5755, Pitch_bend_c, 5, 8448
6, 5756, Pitch_bend_c, 5, 8544
6, 5758, Pitch_bend_c, 5, 8672
6, 5759, Pitch_bend_c, 5, 8608
6, 5761, Pitch_bend_c, 5, 8480
6, 5762, Pitch_bend_c, 5, 8576
6, 5763, Pitch_bend_c, 5, 8672
6, 5764, Pitch_bend_c, 5, 8736
6, 5766, Note_on_c, 5, 63, 0
6, 5766, Note_on_c, 5, 60, 80
6, 5766, Pitch_bend_c, 5, 12000
6, 5767, Pitch_bend_c, 5, 12032
6, 5769, Pitch_bend_c, 5, 11936
6, 5770, Pitch_bend_c, 5, 11968
6, 5771, Pitch_bend_c, 5, 12128
6, 5773, Pitch_bend_c, 5, 12224
6, 5774, Pitch_bend_c, 5, 12384
6, 5775, Pitch_bend_c, 5, 12416
6, 5777, Note_on_c, 5, 60, 0
6, 5778, Pitch_bend_c, 5, 8192
6, 5779, Note_on_c, 5, 58, 54
6, 5779, Pitch_bend_c, 5, 8128
6, 5780, Pitch_bend_c, 5, 8192
6, 5787, Pitch_bend_c, 5, 8160
6, 5789, Pitch_bend_c, 5, 8128
6, 5790, Pitch_bend_c, 5, 8096
6, 5797, Pitch_bend_c, 5, 8064
6, 5798, Pitch_bend_c, 5, 8032
6, 5799, Pitch_bend_c, 5, 8000
6, 5801, Pitch_bend_c, 5, 7968
6, 5802, Pitch_bend_c, 5, 8096
6, 5804, Pitch_bend_c, 5, 8352
6, 5805, Pitch_bend_c, 5, 8864
6, 5806, Pitch_bend_c, 5, 9408
6, 5807, Pitch_bend_c, 5, 9792
6, 5809, Pitch_bend_c, 5, 9952
6, 5810, Pitch_bend_c, 5, 9632
6, 5811, Pitch_bend_c, 5, 9056
6, 5813, Pitch_bend_c, 5, 8480
6, 5814, Pitch_bend_c, 5, 8096
6, 5815, Pitch_bend_c, 5, 7904
6, 5818, Pitch_bend_c, 5, 8032
6, 5819, Pitch_bend_c, 5, 8192
6, 5821, Pitch_bend_c, 5, 8320
6, 5822, Pitch_bend_c, 5, 8480
6, 5823, Pitch_bend_c, 5, 8448
6, 5824, Pitch_bend_c, 5, 8320
6, 5826, Pitch_bend_c, 5, 8224
6, 5827, Pitch_bend_c, 5, 8192
6, 5828, Pitch_bend_c, 5, 8128
6, 5835, Pitch_bend_c, 5, 8096
6, 5836, Pitch_bend_c, 5, 8064
6, 5837, Pitch_bend_c, 5, 8032
6, 5839, Pitch_bend_c, 5, 7968
6, 5840, Pitch_bend_c, 5, 7936
6, 5842, Pitch_bend_c, 5, 7904
6, 5843, Pitch_bend_c, 5, 7872
6, 5844, Pitch_bend_c, 5, 7840
6, 5845, Pitch_bend_c, 5, 7808
6, 5847, Pitch_bend_c, 5, 7936
6, 5848, Note_on_c, 5, 58, 0
6, 5851, Pitch_bend_c, 5, 8192
6, 5852, Note_on_c, 5, 61, 97
6, 5852, Pitch_bend_c, 5, 8576
6, 5853, Pitch_bend_c, 5, 8352
6, 5855, Pitch_bend_c, 5, 8288
6, 5856, Pitch_bend_c, 5, 8256
6, 5857, Pitch_bend_c, 5, 8224
6, 5859, Pitch_bend_c, 5, 8192
6, 5860, Pitch_bend_c, 5, 8224
6, 5862, Pitch_bend_c, 5, 8192
6, 5867, Pitch_bend_c, 5, 8160
6, 5868, Pitch_bend_c, 5, 16352
6, 5869, Pitch_bend_c, 5, 16288
6, 5870, Pitch_bend_c, 5, 16256
6, 5872, Pitch_bend_c, 5, 16224
6, 5873, Pitch_bend_c, 5, 16160
6, 5876, Pitch_bend_c, 5, 16096
6, 5878, Pitch_bend_c, 5, 16320
6, 5879, Note_on_c, 5, 61, 0
6, 5883, Note_on_c, 5, 65, 96
6, 5883, Pitch_bend_c, 5, 8384
6, 5884, Pitch_bend_c, 5, 8352
6, 5886, Pitch_bend_c, 5, 8320
6, 5888, Pitch_bend_c, 5, 8352
6, 5889, Pitch_bend_c, 5, 8320
6, 5891, Pitch_bend_c, 5, 8288
6, 5897, Pitch_bend_c, 5, 8416
6, 5899, Pitch_bend_c, 5, 8192
6, 5899, Note_on_c, 5, 70, 98
6, 5907, Note_on_c, 5, 65, 0
6, 5908, Note_on_c, 5, 70, 0
6, 5918, Note_on_c, 5, 69, 91
6, 5918, Pitch_bend_c, 5, 8416
6, 5920, Pitch_bend_c, 5, 8448
6, 5923, Pitch_bend_c, 5, 8416
6, 5924, Pitch_bend_c, 5, 8352
6, 5926, Pitch_bend_c, 5, 8256
6, 5927, Pitch_bend_c, 5, 8160
6, 5928, Pitch_bend_c, 5, 8096
6, 5930, Pitch_bend_c, 5, 11904
6, 5931, Pitch_bend_c, 5, 11936
6, 5932, Pitch_bend_c, 5, 11968
6, 5935, Pitch_bend_c, 5, 12000
6, 5936, Pitch_bend_c, 5, 12032
6, 5937, Pitch_bend_c, 5, 12064
6, 5939, Pitch_bend_c, 5, 12128
6, 5940, Pitch_bend_c, 5, 12192
6, 5945, Pitch_bend_c, 5, 12128
6, 5946, Pitch_bend_c, 5, 12096
6, 5948, Pitch_bend_c, 5, 12064
6, 5950, Pitch_bend_c, 5, 12096
6, 5954, Pitch_bend_c, 5, 12160
6, 5955, Pitch_bend_c, 5, 12448
6, 5957, Pitch_bend_c, 5, 12960
6, 5958, Pitch_bend_c, 5, 13600
6, 5959, Pitch_bend_c, 5, 14208
6, 5961, Pitch_bend_c, 5, 14496
6, 5963, Pitch_bend_c, 5, 14176
6, 5965, Pitch_bend_c, 5, 11936
6, 5966, Pitch_bend_c, 5, 12000
6, 5967, Pitch_bend_c, 5, 12032
6, 5969, Pitch_bend_c, 5, 12064
6, 5970, Pitch_bend_c, 5, 12128
6, 5971, Pitch_bend_c, 5, 12096
6, 5972, Pitch_bend_c, 5, 12320
6, 5974, Pitch_bend_c, 5, 12928
6, 5975, Pitch_bend_c, 5, 15200
6, 5978, Pitch_bend_c, 5, 15104
6, 5979, Pitch_bend_c, 5, 14880
6, 5980, Pitch_bend_c, 5, 14304
6, 5981, Pitch_bend_c, 5, 11872
6, 5983, Pitch_bend_c, 5, 11936
6, 5984, Pitch_bend_c, 5, 11968
6, 5985, Pitch_bend_c, 5, 12000
6, 5986, Pitch_bend_c, 5, 12064
6, 5988, Pitch_bend_c, 5, 12128
6, 5989, Pitch_bend_c, 5, 12576
6, 5990, Pitch_bend_c, 5, 13216
6, 5992, Pitch_bend_c, 5, 13824
6, 5993, Pitch_bend_c, 5, 14240
6, 5994, Pitch_bend_c, 5, 14016
6, 5995, Pitch_bend_c, 5, 13344
6, 5997, Pitch_bend_c, 5, 12768
6, 5998, Pitch_bend_c, 5, 12352
6, 5999, Note_on_c, 5, 69, 0
6, 5999, Pitch_bend_c, 5, 14240
6, 6367, Note_on_c, 5, 70, 61
6, 6367, Pitch_bend_c, 5, 8192
6, 6376, Pitch_bend_c, 5, 8128
6, 6377, Pitch_bend_c, 5, 8064
6, 6379, Pitch_bend_c, 5, 8000
6, 6380, Pitch_bend_c, 5, 7936
6, 6383, Note_on_c, 5, 70, 0
6, 6383, Pitch_bend_c, 5, 8192
6, 6385, Note_on_c, 5, 73, 84
6, 6385, Pitch_bend_c, 5, 8160
6, 6386, Pitch_bend_c, 5, 8192
6, 6392, Pitch_bend_c, 5, 8224
6, 6393, Pitch_bend_c, 5, 8192
6, 6394, Note_on_c, 5, 73, 0
6, 6397, Note_on_c, 5, 75, 89
6, 6397, Pitch_bend_c, 5, 8896
6, 6398, Pitch_bend_c, 5, 8800
6, 6401, Pitch_bend_c, 5, 8768
6, 6402, Pitch_bend_c, 5, 8736
6, 6404, Pitch_bend_c, 5, 8864
6, 6405, Pitch_bend_c, 5, 9280
6, 6406, Pitch_bend_c, 5, 11584
6, 6407, Pitch_bend_c, 5, 11968
6, 6409, Pitch_bend_c, 5, 12576
6, 6410, Pitch_bend_c, 5, 14880
6, 6411, Pitch_bend_c, 5, 14976
6, 6413, Pitch_bend_c, 5, 15104
6, 6414, Pitch_bend_c, 5, 15264
6, 6415, Pitch_bend_c, 5, 15360
6, 6416, Note_on_c, 5, 75, 0
6, 6416, Pitch_bend_c, 5, 15392
6, 6429, Pitch_bend_c, 5, 8192
6, 6430, Note_on_c, 5, 75, 86
6, 6430, Pitch_bend_c, 5, 8224
6, 6434, Pitch_bend_c, 5, 8352
6, 6435, Pitch_bend_c, 5, 8864
6, 6436, Pitch_bend_c, 5, 11808
6, 6438, Pitch_bend_c, 5, 12224
6, 6439, Pitch_bend_c, 5, 12896
6, 6440, Pitch_bend_c, 5, 13632
6, 6441, Pitch_bend_c, 5, 14400
6, 6443, Pitch_bend_c, 5, 14720
6, 6444, Pitch_bend_c, 5, 14784
6, 6445, Pitch_bend_c, 5, 14592
6, 6447, Pitch_bend_c, 5, 14016
6, 6448, Note_on_c, 5, 75, 0
6, 6448, Pitch_bend_c, 5, 14720
6, 6461, Pitch_bend_c, 5, 8192
6, 6462, Note_on_c, 5, 75, 86
6, 6462, Pitch_bend_c, 5, 8256
6, 6464, Pitch_bend_c, 5, 8224
6, 6466, Pitch_bend_c, 5, 8064
6, 6467, Pitch_bend_c, 5, 7904
6, 6468, Pitch_bend_c, 5, 7776
6, 6470, Pitch_bend_c, 5, 7808
6, 6471, Note_on_c, 5, 75, 0
6, 6471, Note_on_c, 5, 72, 69
6, 6471, Pitch_bend_c, 5, 11616
6, 6472, Pitch_bend_c, 5, 11648
6, 6474, Pitch_bend_c, 5, 11680
6, 6475, Pitch_bend_c, 5, 11744
6, 6477, Pitch_bend_c, 5, 11872
6, 6478, Pitch_bend_c, 5, 12032
6, 6479, Note_on_c, 5, 72, 0
6, 6481, Note_on_c, 5, 70, 66
6, 6481, Pitch_bend_c, 5, 8384
6, 6487, Pitch_bend_c, 5, 8352
6, 6488, Pitch_bend_c, 5, 8288
6, 6489, Pitch_bend_c, 5, 8224
6, 6491, Pitch_bend_c, 5, 8192
6, 6492, Pitch_bend_c, 5, 8128
6, 6493, Pitch_bend_c, 5, 8096
6, 6495, Pitch_bend_c, 5, 8192
6, 6496, Pitch_bend_c, 5, 8576
6, 6497, Pitch_bend_c, 5, 11008
6, 6499, Pitch_bend_c, 5, 11072
6, 6501, Pitch_bend_c, 5, 10720
6, 6503, Pitch_bend_c, 5, 8192
6, 6505, Pitch_bend_c, 5, 8128
6, 6506, Pitch_bend_c, 5, 11072
6, 6507, Note_on_c, 5, 70, 0
6, 6508, Pitch_bend_c, 5, 8192
6, 6509, Note_on_c, 5, 73, 93
6, 6509, Pitch_bend_c, 5, 8704
6, 6514, Pitch_bend_c, 5, 8736
6, 6516, Pitch_bend_c, 5, 8832
6, 6518, Note_on_c, 5, 73, 0
6, 6518, Pitch_bend_c, 5, 9024
6, 6520, Note_on_c, 5, 70, 90
6, 6520, Pitch_bend_c, 5, 8192
6, 6521, Pitch_bend_c, 5, 8384
6, 6522, Pitch_bend_c, 5, 8320
6, 6525, Pitch_bend_c, 5, 8416
6, 6526, Pitch_bend_c, 5, 8672
6, 6527, Pitch_bend_c, 5, 8992
6, 6528, Pitch_bend_c, 5, 9120
6, 6530, Pitch_bend_c, 5, 64
6, 6531, Pitch_bend_c, 5, 96
6, 6534, Pitch_bend_c, 5, 128
6, 6535, Pitch_bend_c, 5, 160
6, 6537, Note_on_c, 5, 70, 0
6, 6537, Pitch_bend_c, 5, 8192
6, 6537, Note_on_c, 5, 65, 79
6, 6539, Pitch_bend_c, 5, 8256
6, 6541, Pitch_bend_c, 5, 8288
6, 6544, Pitch_bend_c, 5, 8256
6, 6546, Pitch_bend_c, 5, 8192
6, 6548, Pitch_bend_c, 5, 8160
6, 6550, Pitch_bend_c, 5, 8128
6, 6551, Pitch_bend_c, 5, 8096
6, 6555, Pitch_bend_c, 5, 8064
6, 6557, Pitch_bend_c, 5, 8032
6, 6558, Note_on_c, 5, 65, 0
6, 6586, Pitch_bend_c, 5, 8192
6, 6587, Note_on_c, 5, 75, 90
6, 6587, Pitch_bend_c, 5, 8896
6, 6589, Pitch_bend_c, 5, 9056
6, 6591, Pitch_bend_c, 5, 9504
6, 6592, Pitch_bend_c, 5, 10144
6, 6593, Pitch_bend_c, 5, 12576
6, 6595, Pitch_bend_c, 5, 12864
6, 6596, Pitch_bend_c, 5, 13344
6, 6597, Pitch_bend_c, 5, 13920
6, 6599, Pitch_bend_c, 5, 14592
6, 6600, Pitch_bend_c, 5, 15008
6, 6601, Pitch_bend_c, 5, 15296
6, 6602, Pitch_bend_c, 5, 15392
6, 6604, Pitch_bend_c, 5, 15488
6, 6605, Pitch_bend_c, 5, 15552
6, 6609, Pitch_bend_c, 5, 15488
6, 6610, Pitch_bend_c, 5, 15392
6, 6611, Pitch_bend_c, 5, 15360
6, 6613, Pitch_bend_c, 5, 15264
6, 6614, Pitch_bend_c, 5, 15168
6, 6615, Pitch_bend_c, 5, 15072
6, 6617, Pitch_bend_c, 5, 14912
6, 6618, Pitch_bend_c, 5, 14784
6, 6619, Pitch_bend_c, 5, 14592
6, 6621, Pitch_bend_c, 5, 14336
6, 6622, Pitch_bend_c, 5, 14016
6, 6623, Pitch_bend_c, 5, 13472
6, 6624, Pitch_bend_c, 5, 12768
6, 6626, Pitch_bend_c, 5, 10496
6, 6627, Pitch_bend_c, 5, 10272
6, 6628, Pitch_bend_c, 5, 9760
6, 6630, Pitch_bend_c, 5, 9088
6, 6631, Pitch_bend_c, 5, 8320
6, 6632, Pitch_bend_c, 5, 7904
6, 6633, Pitch_bend_c, 5, 7776
6, 6635, Pitch_bend_c, 5, 7872
6, 6636, Pitch_bend_c, 5, 8064
6, 6637, Note_on_c, 5, 75, 0
6, 6637, Pitch_bend_c, 5, 8320
6, 6639, Note_on_c, 5, 73, 85
6, 6639, Pitch_bend_c, 5, 8128
6, 6643, Pitch_bend_c, 5, 8160
6, 6644, Pitch_bend_c, 5, 8192
6, 6646, Pitch_bend_c, 5, 8224
6, 6647, Note_on_c, 5, 73, 0
6, 6649, Pitch_bend_c, 5, 8192
6, 6650, Note_on_c, 5, 70, 58
6, 6650, Pitch_bend_c, 5, 8352
6, 6655, Pitch_bend_c, 5, 8320
6, 6657, Pitch_bend_c, 5, 8288
6, 6659, Pitch_bend_c, 5, 8256
6, 6667, Pitch_bend_c, 5, 8224
6, 6671, Pitch_bend_c, 5, 8192
6, 6674, Pitch_bend_c, 5, 8160
6, 6676, Pitch_bend_c, 5, 8128
6, 6680, Note_on_c, 5, 70, 0
6, 6680, Pitch_bend_c, 5, 8224
6, 6681, Note_on_c, 5, 73, 86
6, 6681, Pitch_bend_c, 5, 8000
6, 6694, Pitch_bend_c, 5, 8032
6, 6696, Pitch_bend_c, 5, 8064
6, 6697, Pitch_bend_c, 5, 8128
6, 6698, Pitch_bend_c, 5, 8192
6, 6700, Pitch_bend_c, 5, 8256
6, 6701, Pitch_bend_c, 5, 8352
6, 6703, Pitch_bend_c, 5, 8384
6, 6704, Pitch_bend_c, 5, 8448
6, 6705, Pitch_bend_c, 5, 8544
6, 6706, Pitch_bend_c, 5, 8672
6, 6708, Pitch_bend_c, 5, 8864
6, 6709, Pitch_bend_c, 5, 9056
6, 6710, Pitch_bend_c, 5, 9312
6, 6712, Pitch_bend_c, 5, 9664
6, 6713, Pitch_bend_c, 5, 10080
6, 6714, Pitch_bend_c, 5, 10528
6, 6716, Pitch_bend_c, 5, 11008
6, 6717, Pitch_bend_c, 5, 11328
6, 6718, Pitch_bend_c, 5, 11552
6, 6719, Pitch_bend_c, 5, 11680
6, 6722, Note_on_c, 5, 73, 0
6, 6722, Pitch_bend_c, 5, 11648
6, 7161, Pitch_bend_c, 5, 8192
6, 7162, Note_on_c, 5, 65, 58
6, 7162, Pitch_bend_c, 5, 7968
6, 7165, Pitch_bend_c, 5, 8000
6, 7166, Pitch_bend_c, 5, 11904
6, 7168, Pitch_bend_c, 5, 11936
6, 7169, Pitch_bend_c, 5, 12032
6, 7170, Pitch_bend_c, 5, 16000
6, 7171, Pitch_bend_c, 5, 16032
6, 7174, Pitch_bend_c, 5, 16064
6, 7176, Pitch_bend_c, 5, 16096
6, 7178, Note_on_c, 5, 65, 0
6, 7178, Pitch_bend_c, 5, 16128
6, 7183, Pitch_bend_c, 5, 8192
6, 7184, Note_on_c, 5, 70, 77
6, 7184, Pitch_bend_c, 5, 8064
6, 7187, Pitch_bend_c, 5, 8096
6, 7189, Pitch_bend_c, 5, 8128
6, 7190, Pitch_bend_c, 5, 8160
6, 7191, Pitch_bend_c, 5, 8192
6, 7194, Note_on_c, 5, 70, 0
6, 7197, Note_on_c, 5, 75, 93
6, 7197, Pitch_bend_c, 5, 8448
6, 7204, Pitch_bend_c, 5, 8480
6, 7207, Pitch_bend_c, 5, 8256
6, 7208, Note_on_c, 5, 75, 0
6, 7215, Pitch_bend_c, 5, 8192
6, 7216, Note_on_c, 5, 75, 90
6, 7216, Pitch_bend_c, 5, 8544
6, 7217, Pitch_bend_c, 5, 8480
6, 7220, Pitch_bend_c, 5, 8448
6, 7221, Pitch_bend_c, 5, 8480
6, 7231, Pitch_bend_c, 5, 8448
6, 7234, Pitch_bend_c, 5, 8352
6, 7235, Pitch_bend_c, 5, 12480
6, 7237, Pitch_bend_c, 5, 12512
6, 7238, Pitch_bend_c, 5, 12608
6, 7239, Pitch_bend_c, 5, 12672
6, 7240, Pitch_bend_c, 5, 8448
6, 7243, Pitch_bend_c, 5, 8416
6, 7248, Note_on_c, 5, 75, 0
6, 7250, Pitch_bend_c, 5, 8192
6, 7251, Note_on_c, 5, 73, 83
6, 7251, Pitch_bend_c, 5, 8000
6, 7253, Pitch_bend_c, 5, 8032
6, 7256, Pitch_bend_c, 5, 8064
6, 7258, Pitch_bend_c, 5, 8128
6, 7261, Pitch_bend_c, 5, 8064
6, 7269, Pitch_bend_c, 5, 8032
6, 7285, Pitch_bend_c, 5, 8128
6, 7286, Pitch_bend_c, 5, 8288
6, 7288, Pitch_bend_c, 5, 8768
6, 7289, Pitch_bend_c, 5, 11008
6, 7291, Pitch_bend_c, 5, 11232
6, 7292, Pitch_bend_c, 5, 11520
6, 7293, Pitch_bend_c, 5, 11776
6, 7294, Pitch_bend_c, 5, 11936
6, 7296, Note_on_c, 5, 73, 0
6, 7296, Pitch_bend_c, 5, 11232
6, 7299, Pitch_bend_c, 5, 8192
6, 7300, Pitch_bend_c, 5, 7712
6, 7303, Pitch_bend_c, 5, 7808
6, 7305, Pitch_bend_c, 5, 7872
6, 7308, Pitch_bend_c, 5, 8192
6, 7309, Note_on_c, 5, 70, 68
6, 7309, Pitch_bend_c, 5, 8256
6, 7312, Pitch_bend_c, 5, 8224
6, 7314, Pitch_bend_c, 5, 8192
6, 7315, Pitch_bend_c, 5, 8160
6, 7316, Pitch_bend_c, 5, 8128
6, 7317, Pitch_bend_c, 5, 8096
6, 7319, Pitch_bend_c, 5, 8064
6, 7320, Note_on_c, 5, 70, 0
6, 7320, Pitch_bend_c, 5, 8160
6, 7322, Pitch_bend_c, 5, 8192
6, 7323, Note_on_c, 5, 70, 64
6, 7323, Pitch_bend_c, 5, 7936
6, 7324, Pitch_bend_c, 5, 7968
6, 7331, Pitch_bend_c, 5, 8000
6, 7332, Pitch_bend_c, 5, 7968
6, 7335, Pitch_bend_c, 5, 8096
6, 7336, Pitch_bend_c, 5, 8288
6, 7337, Pitch_bend_c, 5, 8576
6, 7339, Pitch_bend_c, 5, 8832
6, 7340, Pitch_bend_c, 5, 8864
6, 7341, Pitch_bend_c, 5, 8640
6, 7342, Pitch_bend_c, 5, 8320
6, 7344, Pitch_bend_c, 5, 8096
6, 7345, Pitch_bend_c, 5, 7904
6, 7346, Pitch_bend_c, 5, 7840
6, 7348, Pitch_bend_c, 5, 7904
6, 7349, Pitch_bend_c, 5, 8160
6, 7350, Pitch_bend_c, 5, 8608
6, 7351, Pitch_bend_c, 5, 9216
6, 7353, Pitch_bend_c, 5, 9792
6, 7354, Pitch_bend_c, 5, 9984
6, 7355, Pitch_bend_c, 5, 9568
6, 7357, Pitch_bend_c, 5, 8960
6, 7358, Pitch_bend_c, 5, 8384
6, 7359, Pitch_bend_c, 5, 8064
6, 7360, Pitch_bend_c, 5, 8000
6, 7362, Pitch_bend_c, 5, 8032
6, 7363, Note_on_c, 5, 70, 0
6, 7363, Pitch_bend_c, 5, 8960
6, 7775, Pitch_bend_c, 5, 8192
6, 7776, Note_on_c, 5, 64, 74
6, 7776, Pitch_bend_c, 5, 8096
6, 7777, Pitch_bend_c, 5, 8064
6, 7781, Pitch_bend_c, 5, 8192
6, 7795, Pitch_bend_c, 5, 12224
6, 7797, Pitch_bend_c, 5, 12256
6, 7798, Pitch_bend_c, 5, 12288
6, 7802, Pitch_bend_c, 5, 12256
6, 7803, Pitch_bend_c, 5, 12224
6, 7805, Note_on_c, 5, 73, 94
6, 7847, Note_on_c, 5, 64, 0
6, 7854, Note_on_c, 5, 73, 0
6, 7855, Pitch_bend_c, 5, 8192
6, 7856, Pitch_bend_c, 5, 8128
6, 7867, Pitch_bend_c, 5, 8192
6, 7868, Note_on_c, 5, 61, 58
6, 7869, Pitch_bend_c, 5, 11456
6, 7870, Pitch_bend_c, 5, 12160
6, 7872, Pitch_bend_c, 5, 12096
6, 7873, Pitch_bend_c, 5, 12032
6, 7876, Pitch_bend_c, 5, 16096
6, 7881, Pitch_bend_c, 5, 16160
6, 7882, Pitch_bend_c, 5, 16192
6, 7883, Pitch_bend_c, 5, 16224
6, 7891, Pitch_bend_c, 5, 16192
6, 7893, Pitch_bend_c, 5, 16128
6, 7896, Pitch_bend_c, 5, 16096
6, 7898, Pitch_bend_c, 5, 16224
6, 7899, Note_on_c, 5, 70, 93
6, 7946, Note_on_c, 5, 70, 0
6, 7948, Note_on_c, 5, 61, 0
6, 7961, Pitch_bend_c, 5, 8192
6, 7962, Note_on_c, 5, 61, 60
6, 7962, Pitch_bend_c, 5, 7808
6, 7963, Pitch_bend_c, 5, 7744
6, 7965, Pitch_bend_c, 5, 7808
6, 7966, Pitch_bend_c, 5, 11680
6, 7968, Pitch_bend_c, 5, 11776
6, 7969, Pitch_bend_c, 5, 11872
6, 7970, Pitch_bend_c, 5, 11936
6, 7972, Pitch_bend_c, 5, 12064
6, 7974, Pitch_bend_c, 5, 12096
6, 7977, Pitch_bend_c, 5, 12160
6, 7980, Pitch_bend_c, 5, 12128
6, 7982, Pitch_bend_c, 5, 12096
6, 7983, Pitch_bend_c, 5, 12064
6, 7984, Note_on_c, 5, 61, 0
6, 7984, Pitch_bend_c, 5, 8192
6, 7985, Note_on_c, 5, 65, 54
6, 7985, Pitch_bend_c, 5, 8000
6, 7989, Pitch_bend_c, 5, 8032
6, 7990, Pitch_bend_c, 5, 8064
6, 7991, Pitch_bend_c, 5, 8096
6, 7994, Pitch_bend_c, 5, 8192
6, 7994, Note_on_c, 5, 70, 99
6, 8009, Note_on_c, 5, 65, 0
6, 8010, Pitch_bend_c, 5, 8448
6, 8011, Pitch_bend_c, 5, 8416
6, 8012, Pitch_bend_c, 5, 8192
6, 8012, Note_on_c, 5, 65, 89
6, 8024, Note_on_c, 5, 70, 0
6, 8025, Note_on_c, 5, 70, 76
6, 8035, Note_on_c, 5, 65, 0
6, 8036, Pitch_bend_c, 5, 8352
6, 8037, Pitch_bend_c, 5, 8384
6, 8038, Pitch_bend_c, 5, 8416
6, 8039, Note_on_c, 5, 70, 0
6, 8044, Note_on_c, 5, 69, 86
6, 8044, Pitch_bend_c, 5, 7808
6, 8048, Pitch_bend_c, 5, 7840
6, 8050, Pitch_bend_c, 5, 7872
6, 8054, Pitch_bend_c, 5, 7904
6, 8055, Pitch_bend_c, 5, 11776
6, 8059, Pitch_bend_c, 5, 11808
6, 8062, Pitch_bend_c, 5, 11840
6, 8063, Pitch_bend_c, 5, 11872
6, 8067, Pitch_bend_c, 5, 11840
6, 8071, Pitch_bend_c, 5, 11872
6, 8079, Note_on_c, 5, 73, 83
6, 8079, Pitch_bend_c, 5, 8512
6, 8081, Note_on_c, 5, 69, 0
6, 8082, Pitch_bend_c, 5, 8544
6, 8083, Pitch_bend_c, 5, 8576
6, 8084, Pitch_bend_c, 5, 8608
6, 8086, Pitch_bend_c, 5, 8672
6, 8087, Note_on_c, 5, 73, 0
6, 8089, Note_on_c, 5, 70, 90
6, 8089, Pitch_bend_c, 5, 8096
6, 8090, Pitch_bend_c, 5, 8128
6, 8092, Pitch_bend_c, 5, 8160
6, 8095, Pitch_bend_c, 5, 8192
6, 8096, Pitch_bend_c, 5, 8352
6, 8097, Pitch_bend_c, 5, 8640
6, 8098, Pitch_bend_c, 5, 8864
6, 8100, Pitch_bend_c, 5, 128
6, 8101, Pitch_bend_c, 5, 160
6, 8102, Pitch_bend_c, 5, 128
6, 8106, Pitch_bend_c, 5, 96
6, 8108, Note_on_c, 5, 70, 0
6, 8108, Pitch_bend_c, 5, 8192
6, 8108, Note_on_c, 5, 65, 58
6, 8118, Pitch_bend_c, 5, 8160
6, 8119, Pitch_bend_c, 5, 8096
6, 8122, Pitch_bend_c, 5, 8064
6, 8123, Pitch_bend_c, 5, 8032
6, 8124, Pitch_bend_c, 5, 8000
6, 8127, Pitch_bend_c, 5, 7936
6, 8129, Pitch_bend_c, 5, 7968
6, 8130, Note_on_c, 5, 65, 0
6, 8155, Pitch_bend_c, 5, 8192
6, 8156, Note_on_c, 5, 76, 92
6, 8156, Pitch_bend_c, 5, 9248
6, 8157, Pitch_bend_c, 5, 9088
6, 8158, Pitch_bend_c, 5, 9056
6, 8160, Pitch_bend_c, 5, 8864
6, 8162, Pitch_bend_c, 5, 8512
6, 8163, Pitch_bend_c, 5, 7968
6, 8164, Pitch_bend_c, 5, 5440
6, 8165, Pitch_bend_c, 5, 5216
6, 8167, Pitch_bend_c, 5, 4736
6, 8168, Pitch_bend_c, 5, 4352
6, 8169, Pitch_bend_c, 5, 3936
6, 8171, Pitch_bend_c, 5, 3776
6, 8172, Pitch_bend_c, 5, 3808
6, 8173, Pitch_bend_c, 5, 3840
6, 8174, Note_on_c, 5, 76, 0
6, 8174, Pitch_bend_c, 5, 4352
6, 8176, Note_on_c, 5, 73, 61
6, 8176, Pitch_bend_c, 5, 8032
6, 8179, Pitch_bend_c, 5, 8000
6, 8181, Pitch_bend_c, 5, 8032
6, 8183, Pitch_bend_c, 5, 8064
6, 8184, Pitch_bend_c, 5, 8192
6, 8185, Note_on_c, 5, 73, 0
6, 8185, Pitch_bend_c, 5, 8256
6, 8188, Note_on_c, 5, 70, 72
6, 8188, Pitch_bend_c, 5, 8384
6, 8191, Pitch_bend_c, 5, 8416
6, 8192, Pitch_bend_c, 5, 8448
6, 8195, Pitch_bend_c, 5, 8480
6, 8197, Pitch_bend_c, 5, 8416
6, 8198, Pitch_bend_c, 5, 8384
6, 8200, Pitch_bend_c, 5, 8320
6, 8201, Pitch_bend_c, 5, 8256
6, 8203, Pitch_bend_c, 5, 8224
6, 8206, Pitch_bend_c, 5, 8256
6, 8219, Pitch_bend_c, 5, 8224
6, 8220, Pitch_bend_c, 5, 8320
6, 8221, Note_on_c, 5, 70, 0
6, 8221, Note_on_c, 5, 73, 86
6, 8221, Pitch_bend_c, 5, 8192
6, 8226, Pitch_bend_c, 5, 8224
6, 8227, Pitch_bend_c, 5, 8192
6, 8230, Pitch_bend_c, 5, 8160
6, 8232, Pitch_bend_c, 5, 8128
6, 8233, Pitch_bend_c, 5, 8064
6, 8235, Pitch_bend_c, 5, 8128
6, 8236, Pitch_bend_c, 5, 8416
6, 8237, Pitch_bend_c, 5, 8864
6, 8239, Pitch_bend_c, 5, 9440
6, 8240, Pitch_bend_c, 5, 9984
6, 8241, Pitch_bend_c, 5, 10432
6, 8243, Pitch_bend_c, 5, 10848
6, 8244, Pitch_bend_c, 5, 11168
6, 8245, Pitch_bend_c, 5, 11392
6, 8247, Pitch_bend_c, 5, 11552
6, 8248, Pitch_bend_c, 5, 11776
6, 8249, Note_on_c, 5, 73, 0
6, 8731, Note_on_c, 5, 67, 87
6, 8731, Pitch_bend_c, 5, 8416
6, 8734, Pitch_bend_c, 5, 8192
6, 8734, Note_on_c, 5, 70, 88
6, 8749, Note_on_c, 5, 70, 0
6, 8750, Note_on_c, 5, 70, 88
6, 8757, Note_on_c, 5, 67, 0
6, 8758, Pitch_bend_c, 5, 7872
6, 8759, Pitch_bend_c, 5, 15712
6, 8761, Note_on_c, 5, 70, 0
6, 8764, Note_on_c, 5, 73, 83
6, 8764, Pitch_bend_c, 5, 7872
6, 8767, Pitch_bend_c, 5, 7840
6, 8769, Pitch_bend_c, 5, 7808
6, 8773, Pitch_bend_c, 5, 7776
6, 8775, Pitch_bend_c, 5, 7552
6, 8776, Note_on_c, 5, 73, 0
6, 8776, Pitch_bend_c, 5, 7840
6, 8787, Pitch_bend_c, 5, 8192
6, 8788, Note_on_c, 5, 75, 91
6, 8788, Pitch_bend_c, 5, 8160
6, 8791, Pitch_bend_c, 5, 8064
6, 8793, Pitch_bend_c, 5, 8032
6, 8796, Pitch_bend_c, 5, 8000
6, 8797, Pitch_bend_c, 5, 7936
6, 8800, Pitch_bend_c, 5, 8064
6, 8801, Pitch_bend_c, 5, 10464
6, 8803, Pitch_bend_c, 5, 11008
6, 8804, Pitch_bend_c, 5, 13664
6, 8805, Pitch_bend_c, 5, 13728
6, 8806, Pitch_bend_c, 5, 13824
6, 8808, Pitch_bend_c, 5, 13920
6, 8810, Pitch_bend_c, 5, 13536
6, 8812, Pitch_bend_c, 5, 9408
6, 8813, Pitch_bend_c, 5, 8992
6, 8814, Pitch_bend_c, 5, 8192
6, 8816, Note_on_c, 5, 75, 0
6, 8819, Note_on_c, 5, 73, 84
6, 8823, Pitch_bend_c, 5, 8288
6, 8827, Note_on_c, 5, 73, 0
6, 8827, Pitch_bend_c, 5, 8192
6, 8828, Pitch_bend_c, 5, 8288
6, 8830, Note_on_c, 5, 70, 73
6, 8831, Pitch_bend_c, 5, 8256
6, 8834, Pitch_bend_c, 5, 8224
6, 8835, Pitch_bend_c, 5, 8192
6, 8842, Pitch_bend_c, 5, 8160
6, 8843, Pitch_bend_c, 5, 8128
6, 8846, Pitch_bend_c, 5, 8096
6, 8848, Pitch_bend_c, 5, 8128
6, 8851, Pitch_bend_c, 5, 8160
6, 8858, Pitch_bend_c, 5, 8192
6, 8869, Pitch_bend_c, 5, 8160
6, 8871, Pitch_bend_c, 5, 8128
6, 8873, Pitch_bend_c, 5, 8096
6, 8875, Pitch_bend_c, 5, 8064
6, 8877, Pitch_bend_c, 5, 8192
6, 8879, Note_on_c, 5, 73, 82
6, 8879, Pitch_bend_c, 5, 7552
6, 8880, Note_on_c, 5, 70, 0
6, 8880, Pitch_bend_c, 5, 7872
6, 8883, Pitch_bend_c, 5, 7840
6, 8884, Pitch_bend_c, 5, 7776
6, 8885, Pitch_bend_c, 5, 7680
6, 8888, Pitch_bend_c, 5, 7648
6, 8890, Pitch_bend_c, 5, 7680
6, 8891, Pitch_bend_c, 5, 7744
6, 8892, Pitch_bend_c, 5, 7776
6, 8893, Pitch_bend_c, 5, 7840
6, 8895, Pitch_bend_c, 5, 7872
6, 8896, Pitch_bend_c, 5, 7968
6, 8897, Pitch_bend_c, 5, 8064
6, 8899, Pitch_bend_c, 5, 8224
6, 8900, Pitch_bend_c, 5, 8544
6, 8901, Pitch_bend_c, 5, 8928
6, 8902, Pitch_bend_c, 5, 9376
6, 8904, Pitch_bend_c, 5, 9920
6, 8905, Pitch_bend_c, 5, 10400
6, 8906, Pitch_bend_c, 5, 10752
6, 8908, Pitch_bend_c, 5, 11040
6, 8909, Pitch_bend_c, 5, 11168
6, 8910, Pitch_bend_c, 5, 11136
6, 8912, Note_on_c, 5, 73, 0
6, 8912, Pitch_bend_c, 5, 11072
6, 9425, Pitch_bend_c, 5, 8192
6, 9425, Note_on_c, 5, 75, 92
6, 9426, Pitch_bend_c, 5, 8672
6, 9429, Pitch_bend_c, 5, 8864
6, 9431, Pitch_bend_c, 5, 9216
6, 9432, Pitch_bend_c, 5, 9824
6, 9433, Pitch_bend_c, 5, 10528
6, 9434, Pitch_bend_c, 5, 11264
6, 9436, Pitch_bend_c, 5, 11872
6, 9437, Pitch_bend_c, 5, 12288
6, 9438, Pitch_bend_c, 5, 12480
6, 9442, Pitch_bend_c, 5, 12416
6, 9444, Pitch_bend_c, 5, 12320
6, 9445, Pitch_bend_c, 5, 12224
6, 9446, Pitch_bend_c, 5, 12096
6, 9448, Pitch_bend_c, 5, 11872
6, 9449, Pitch_bend_c, 5, 11456
6, 9450, Pitch_bend_c, 5, 9280
6, 9451, Pitch_bend_c, 5, 9120
6, 9453, Pitch_bend_c, 5, 8864
6, 9454, Pitch_bend_c, 5, 8576
6, 9455, Pitch_bend_c, 5, 8256
6, 9457, Pitch_bend_c, 5, 8192
6, 9458, Pitch_bend_c, 5, 8160
6, 9459, Pitch_bend_c, 5, 8192
6, 9460, Pitch_bend_c, 5, 8576
6, 9461, Note_on_c, 5, 75, 0
6, 9462, Pitch_bend_c, 5, 8192
6, 9463, Note_on_c, 5, 73, 94
6, 9463, Pitch_bend_c, 5, 8288
6, 9464, Pitch_bend_c, 5, 8256
6, 9465, Pitch_bend_c, 5, 8288
6, 9468, Pitch_bend_c, 5, 8352
6, 9472, Note_on_c, 5, 73, 0
6, 9472, Note_on_c, 5, 70, 88
6, 9472, Pitch_bend_c, 5, 8192
6, 9478, Pitch_bend_c, 5, 8160
6, 9479, Pitch_bend_c, 5, 8128
6, 9482, Pitch_bend_c, 5, 8096
6, 9485, Pitch_bend_c, 5, 8064
6, 9490, Pitch_bend_c, 5, 8032
6, 9491, Pitch_bend_c, 5, 8000
6, 9495, Pitch_bend_c, 5, 8064
6, 9496, Pitch_bend_c, 5, 8096
6, 9498, Note_on_c, 5, 70, 0
6, 9499, Pitch_bend_c, 5, 8192
6, 9500, Note_on_c, 5, 73, 95
6, 9500, Pitch_bend_c, 5, 8288
6, 9501, Pitch_bend_c, 5, 8352
6, 9507, Pitch_bend_c, 5, 7840
6, 9509, Note_on_c, 5, 73, 0
6, 9509, Note_on_c, 5, 70, 91
6, 9509, Pitch_bend_c, 5, 8192
6, 9513, Pitch_bend_c, 5, 8224
6, 9514, Pitch_bend_c, 5, 8192
6, 9515, Pitch_bend_c, 5, 8160
6, 9518, Pitch_bend_c, 5, 8096
6, 9519, Note_on_c, 5, 70, 0
6, 9519, Note_on_c, 5, 67, 74
6, 9519, Pitch_bend_c, 5, 12256
6, 9520, Pitch_bend_c, 5, 12224
6, 9521, Pitch_bend_c, 5, 12256
6, 9522, Pitch_bend_c, 5, 12288
6, 9525, Pitch_bend_c, 5, 12320
6, 9526, Pitch_bend_c, 5, 12384
6, 9527, Pitch_bend_c, 5, 12448
6, 9528, Pitch_bend_c, 5, 12480
6, 9530, Note_on_c, 5, 67, 0
6, 9530, Pitch_bend_c, 5, 8192
6, 9530, Note_on_c, 5, 65, 73
6, 9541, Pitch_bend_c, 5, 8160
6, 9545, Pitch_bend_c, 5, 8192
6, 9552, Pitch_bend_c, 5, 8288
6, 9553, Pitch_bend_c, 5, 8352
6, 9555, Pitch_bend_c, 5, 8416
6, 9556, Pitch_bend_c, 5, 4544
6, 9558, Pitch_bend_c, 5, 4512
6, 9560, Note_on_c, 5, 65, 0
6, 9562, Pitch_bend_c, 5, 8192
6, 9563, Note_on_c, 5, 70, 96
6, 9563, Pitch_bend_c, 5, 8544
6, 9568, Pitch_bend_c, 5, 8512
6, 9569, Pitch_bend_c, 5, 8672
6, 9570, Note_on_c, 5, 70, 0
6, 9572, Note_on_c, 5, 68, 92
6, 9572, Pitch_bend_c, 5, 8160
6, 9573, Pitch_bend_c, 5, 8288
6, 9576, Pitch_bend_c, 5, 8384
6, 9577, Pitch_bend_c, 5, 8544
6, 9579, Pitch_bend_c, 5, 8736
6, 9580, Pitch_bend_c, 5, 8864
6, 9581, Pitch_bend_c, 5, 8992
6, 9583, Pitch_bend_c, 5, 8864
6, 9584, Note_on_c, 5, 68, 0
6, 9584, Note_on_c, 5, 65, 70
6, 9584, Pitch_bend_c, 5, 8320
6, 9585, Pitch_bend_c, 5, 8416
6, 9595, Pitch_bend_c, 5, 8192
6, 9595, Note_on_c, 5, 63, 68
6, 9596, Note_on_c, 5, 65, 0
6, 9603, Pitch_bend_c, 5, 8224
6, 9605, Pitch_bend_c, 5, 8256
6, 9610, Pitch_bend_c, 5, 8320
6, 9611, Pitch_bend_c, 5, 8544
6, 9613, Pitch_bend_c, 5, 9024
6, 9614, Pitch_bend_c, 5, 9728
6, 9615, Pitch_bend_c, 5, 10528
6, 9616, Pitch_bend_c, 5, 11328
6, 9618, Pitch_bend_c, 5, 11968
6, 9619, Pitch_bend_c, 5, 12512
6, 9620, Pitch_bend_c, 5, 12928
6, 9621, Pitch_bend_c, 5, 13216
6, 9623, Pitch_bend_c, 5, 13408
6, 9624, Pitch_bend_c, 5, 13184
6, 9625, Pitch_bend_c, 5, 9760
6, 9626, Pitch_bend_c, 5, 8192
6, 9627, Note_on_c, 5, 65, 91
6, 9628, Note_on_c, 5, 63, 0
6, 9628, Pitch_bend_c, 5, 8448
6, 9631, Pitch_bend_c, 5, 8352
6, 9632, Pitch_bend_c, 5, 8224
6, 9634, Pitch_bend_c, 5, 8192
6, 9638, Pitch_bend_c, 5, 8224
6, 9639, Pitch_bend_c, 5, 8192
6, 9644, Pitch_bend_c, 5, 8160
6, 9645, Pitch_bend_c, 5, 8128
6, 9648, Pitch_bend_c, 5, 8192
6, 9649, Note_on_c, 5, 63, 97
6, 9649, Pitch_bend_c, 5, 8224
6, 9650, Pitch_bend_c, 5, 8480
6, 9652, Note_on_c, 5, 65, 0
6, 9652, Pitch_bend_c, 5, 8416
6, 9654, Pitch_bend_c, 5, 8480
6, 9656, Pitch_bend_c, 5, 8640
6, 9657, Pitch_bend_c, 5, 9184
6, 9658, Pitch_bend_c, 5, 11424
6, 9659, Pitch_bend_c, 5, 8672
6, 9660, Pitch_bend_c, 5, 11552
6, 9661, Pitch_bend_c, 5, 11648
6, 9662, Pitch_bend_c, 5, 11712
6, 9663, Pitch_bend_c, 5, 11744
6, 9665, Pitch_bend_c, 5, 11648
6, 9666, Pitch_bend_c, 5, 11200
6, 9667, Pitch_bend_c, 5, 8320
6, 9668, Pitch_bend_c, 5, 8192
6, 9669, Pitch_bend_c, 5, 8096
6, 9670, Pitch_bend_c, 5, 8256
6, 9671, Pitch_bend_c, 5, 7808
6, 9672, Pitch_bend_c, 5, 8000
6, 9673, Note_on_c, 5, 63, 0
6, 9673, Pitch_bend_c, 5, 8192
6, 9674, Note_on_c, 5, 61, 65
6, 9674, Pitch_bend_c, 5, 8768
6, 9675, Pitch_bend_c, 5, 8288
6, 9677, Pitch_bend_c, 5, 8256
6, 9678, Pitch_bend_c, 5, 8224
6, 9680, Pitch_bend_c, 5, 8384
6, 9681, Pitch_bend_c, 5, 8512
6, 9682, Pitch_bend_c, 5, 8672
6, 9684, Pitch_bend_c, 5, 8192
6, 9684, Note_on_c, 5, 58, 62
6, 9685, Note_on_c, 5, 61, 0
6, 9687, Pitch_bend_c, 5, 8160
6, 9690, Note_on_c, 5, 58, 0
6, 9690, Pitch_bend_c, 5, 8128
6, 9695, Pitch_bend_c, 5, 8192
6, 9695, Note_on_c, 5, 63, 86
6, 9696, Pitch_bend_c, 5, 8224
6, 9699, Pitch_bend_c, 5, 8256
6, 9701, Pitch_bend_c, 5, 8320
6, 9703, Pitch_bend_c, 5, 8352
6, 9704, Pitch_bend_c, 5, 8320
6, 9707, Pitch_bend_c, 5, 8256
6, 9710, Pitch_bend_c, 5, 8224
6, 9711, Pitch_bend_c, 5, 8192
6, 9718, Pitch_bend_c, 5, 8000
6, 9719, Note_on_c, 5, 63, 0
6, 9719, Pitch_bend_c, 5, 8224
6, 9721, Note_on_c, 5, 61, 83
6, 9721, Pitch_bend_c, 5, 8288
6, 9722, Pitch_bend_c, 5, 8192
6, 9724, Pitch_bend_c, 5, 8128
6, 9726, Pitch_bend_c, 5, 8096
6, 9727, Pitch_bend_c, 5, 8064
6, 9728, Pitch_bend_c, 5, 8032
6, 9729, Pitch_bend_c, 5, 8064
6, 9731, Pitch_bend_c, 5, 8128
6, 9732, Pitch_bend_c, 5, 8160
6, 9733, Pitch_bend_c, 5, 8192
6, 9736, Pitch_bend_c, 5, 8352
6, 9737, Note_on_c, 5, 61, 0
6, 9737, Pitch_bend_c, 5, 8576
6, 9740, Pitch_bend_c, 5, 8192
6, 9741, Note_on_c, 5, 58, 75
6, 9741, Pitch_bend_c, 5, 8096
6, 9743, Pitch_bend_c, 5, 8128
6, 9746, Pitch_bend_c, 5, 7968
6, 9747, Pitch_bend_c, 5, 7808
6, 9748, Pitch_bend_c, 5, 4960
6, 9749, Pitch_bend_c, 5, 0
6, 9751, Pitch_bend_c, 5, 64
6, 9756, Pitch_bend_c, 5, 96
6, 9759, Note_on_c, 5, 58, 0
6, 9759, Pitch_bend_c, 5, 8192
6, 9763, Note_on_c, 5, 53, 49
6, 9767, Pitch_bend_c, 5, 7712
6, 9768, Pitch_bend_c, 5, 7648
6, 9771, Pitch_bend_c, 5, 7808
6, 9775, Pitch_bend_c, 5, 7776
6, 9777, Pitch_bend_c, 5, 7808
6, 9778, Pitch_bend_c, 5, 7840
6, 9780, Pitch_bend_c, 5, 7904
6, 9785, Pitch_bend_c, 5, 7872
6, 9788, Pitch_bend_c, 5, 7840
6, 9790, Pitch_bend_c, 5, 7808
6, 9792, Pitch_bend_c, 5, 7840
6, 9793, Pitch_bend_c, 5, 8352
6, 9794, Pitch_bend_c, 5, 8896
6, 9796, Pitch_bend_c, 5, 9440
6, 9797, Pitch_bend_c, 5, 9952
6, 9801, Note_on_c, 5, 53, 0
6, 9821, Note_on_c, 5, 61, 77
6, 9821, Pitch_bend_c, 5, 8288
6, 9822, Pitch_bend_c, 5, 7904
6, 9823, Pitch_bend_c, 5, 7840
6, 9824, Pitch_bend_c, 5, 8192
6, 9824, Note_on_c, 5, 65, 96
6, 9828, Note_on_c, 5, 70, 84
6, 9879, Note_on_c, 5, 61, 0
6, 9880, Note_on_c, 5, 65, 0
6, 9884, Note_on_c, 5, 61, 82
6, 9886, Note_on_c, 5, 65, 78
6, 9887, Note_on_c, 5, 70, 0
6, 9890, Note_on_c, 5, 70, 51
6, 9900, Note_on_c, 5, 61, 0
6, 9900, Note_on_c, 5, 62, 67
6, 10012, Note_on_c, 5, 65, 0
6, 10012, Note_on_c, 5, 62, 0
6, 10030, Note_on_c, 5, 70, 0
6, 10253, Note_on_c, 5, 65, 77
6, 10253, Pitch_bend_c, 5, 8352
6, 10261, Pitch_bend_c, 5, 8320
6, 10266, Pitch_bend_c, 5, 8288
6, 10267, Pitch_bend_c, 5, 8256
6, 10268, Pitch_bend_c, 5, 8192
6, 10268, Note_on_c, 5, 70, 93
6, 10271, Note_on_c, 5, 65, 0
6, 10271, Pitch_bend_c, 5, 8224
6, 10272, Pitch_bend_c, 5, 8192
6, 10275, Pitch_bend_c, 5, 8160
6, 10276, Pitch_bend_c, 5, 8128
6, 10279, Pitch_bend_c, 5, 8096
6, 10280, Pitch_bend_c, 5, 8032
6, 10281, Note_on_c, 5, 70, 0
6, 10283, Pitch_bend_c, 5, 8192
6, 10284, Note_on_c, 5, 70, 93
6, 10284, Pitch_bend_c, 5, 8128
6, 10285, Pitch_bend_c, 5, 8064
6, 10288, Pitch_bend_c, 5, 8128
6, 10289, Pitch_bend_c, 5, 8352
6, 10290, Pitch_bend_c, 5, 8864
6, 10292, Pitch_bend_c, 5, 9472
6, 10293, Pitch_bend_c, 5, 10016
6, 10294, Pitch_bend_c, 5, 10272
6, 10297, Pitch_bend_c, 5, 9920
6, 10298, Pitch_bend_c, 5, 9376
6, 10300, Pitch_bend_c, 5, 8800
6, 10301, Pitch_bend_c, 5, 8320
6, 10302, Pitch_bend_c, 5, 8128
6, 10303, Pitch_bend_c, 5, 8064
6, 10305, Pitch_bend_c, 5, 8192
6, 10306, Pitch_bend_c, 5, 8512
6, 10307, Pitch_bend_c, 5, 9152
6, 10309, Pitch_bend_c, 5, 9856
6, 10310, Pitch_bend_c, 5, 10400
6, 10311, Pitch_bend_c, 5, 10560
6, 10313, Pitch_bend_c, 5, 10304
6, 10314, Pitch_bend_c, 5, 9760
6, 10315, Pitch_bend_c, 5, 9152
6, 10316, Pitch_bend_c, 5, 8544
6, 10318, Pitch_bend_c, 5, 8192
6, 10319, Pitch_bend_c, 5, 8032
6, 10328, Pitch_bend_c, 5, 8064
6, 10330, Pitch_bend_c, 5, 8096
6, 10333, Pitch_bend_c, 5, 7968
6, 10334, Note_on_c, 5, 70, 0
6, 10334, Pitch_bend_c, 5, 8192
6, 10335, Note_on_c, 5, 73, 97
6, 10335, Pitch_bend_c, 5, 8544
6, 10342, Pitch_bend_c, 5, 8512
6, 10343, Note_on_c, 5, 73, 0
6, 10346, Note_on_c, 5, 70, 78
6, 10346, Pitch_bend_c, 5, 8192
6, 10349, Pitch_bend_c, 5, 8224
6, 10351, Pitch_bend_c, 5, 8256
6, 10352, Pitch_bend_c, 5, 8416
6, 10354, Pitch_bend_c, 5, 8544
6, 10355, Pitch_bend_c, 5, 0
6, 10358, Pitch_bend_c, 5, 64
6, 10359, Pitch_bend_c, 5, 96
6, 10360, Pitch_bend_c, 5, 128
6, 10361, Pitch_bend_c, 5, 160
6, 10363, Pitch_bend_c, 5, 224
6, 10364, Pitch_bend_c, 5, 256
6, 10365, Note_on_c, 5, 70, 0
6, 10366, Pitch_bend_c, 5, 8192
6, 10367, Note_on_c, 5, 65, 46
6, 10367, Pitch_bend_c, 5, 8416
6, 10368, Pitch_bend_c, 5, 8480
6, 10370, Pitch_bend_c, 5, 8448
6, 10372, Pitch_bend_c, 5, 8416
6, 10374, Pitch_bend_c, 5, 8352
6, 10376, Pitch_bend_c, 5, 8288
6, 10377, Pitch_bend_c, 5, 8256
6, 10378, Pitch_bend_c, 5, 8224
6, 10381, Pitch_bend_c, 5, 8192
6, 10389, Note_on_c, 5, 65, 0
6, 10389, Pitch_bend_c, 5, 8224
6, 10651, Pitch_bend_c, 5, 8192
6, 10652, Note_on_c, 5, 75, 93
6, 10652, Pitch_bend_c, 5, 8160
6, 10653, Pitch_bend_c, 5, 8256
6, 10655, Pitch_bend_c, 5, 8352
6, 10656, Pitch_bend_c, 5, 8480
6, 10657, Pitch_bend_c, 5, 8352
6, 10658, Pitch_bend_c, 5, 8256
6, 10660, Pitch_bend_c, 5, 8224
6, 10661, Pitch_bend_c, 5, 8192
6, 10662, Pitch_bend_c, 5, 8160
6, 10665, Pitch_bend_c, 5, 8448
6, 10666, Pitch_bend_c, 5, 10784
6, 10667, Pitch_bend_c, 5, 11136
6, 10669, Pitch_bend_c, 5, 11680
6, 10670, Pitch_bend_c, 5, 12224
6, 10671, Pitch_bend_c, 5, 12768
6, 10673, Pitch_bend_c, 5, 12864
6, 10674, Pitch_bend_c, 5, 12416
6, 10675, Pitch_bend_c, 5, 9344
6, 10676, Pitch_bend_c, 5, 9056
6, 10678, Pitch_bend_c, 5, 8640
6, 10679, Pitch_bend_c, 5, 8256
6, 10680, Pitch_bend_c, 5, 7936
6, 10681, Pitch_bend_c, 5, 7872
6, 10683, Pitch_bend_c, 5, 7936
6, 10684, Note_on_c, 5, 75, 0
6, 10684, Pitch_bend_c, 5, 8640
6, 10686, Pitch_bend_c, 5, 8192
6, 10687, Note_on_c, 5, 73, 88
6, 10687, Pitch_bend_c, 5, 8160
6, 10688, Pitch_bend_c, 5, 8192
6, 10691, Pitch_bend_c, 5, 8224
6, 10693, Pitch_bend_c, 5, 8256
6, 10694, Note_on_c, 5, 73, 0
6, 10695, Note_on_c, 5, 70, 72
6, 10695, Pitch_bend_c, 5, 8192
6, 10696, Pitch_bend_c, 5, 8576
6, 10698, Pitch_bend_c, 5, 8608
6, 10701, Pitch_bend_c, 5, 8576
6, 10702, Pitch_bend_c, 5, 8544
6, 10703, Pitch_bend_c, 5, 8448
6, 10705, Pitch_bend_c, 5, 8352
6, 10706, Pitch_bend_c, 5, 8288
6, 10707, Pitch_bend_c, 5, 8224
6, 10710, Pitch_bend_c, 5, 8192
6, 10711, Pitch_bend_c, 5, 8224
6, 10721, Pitch_bend_c, 5, 8192
6, 10727, Pitch_bend_c, 5, 8224
6, 10728, Pitch_bend_c, 5, 8480
6, 10730, Pitch_bend_c, 5, 8992
6, 10731, Pitch_bend_c, 5, 9696
6, 10732, Pitch_bend_c, 5, 10400
6, 10733, Pitch_bend_c, 5, 10880
6, 10735, Pitch_bend_c, 5, 11072
6, 10736, Pitch_bend_c, 5, 10624
6, 10737, Pitch_bend_c, 5, 8128
6, 10738, Pitch_bend_c, 5, 8096
6, 10741, Pitch_bend_c, 5, 8032
6, 10742, Pitch_bend_c, 5, 7968
6, 10743, Pitch_bend_c, 5, 8064
6, 10745, Pitch_bend_c, 5, 8288
6, 10746, Pitch_bend_c, 5, 8928
6, 10747, Pitch_bend_c, 5, 9696
6, 10749, Pitch_bend_c, 5, 10336
6, 10750, Pitch_bend_c, 5, 10592
6, 10751, Pitch_bend_c, 5, 10240
6, 10753, Pitch_bend_c, 5, 9600
6, 10754, Pitch_bend_c, 5, 8896
6, 10756, Note_on_c, 5, 70, 0
6, 10756, Pitch_bend_c, 5, 10592
6, 10999, Note_on_c, 5, 75, 93
6, 10999, Pitch_bend_c, 5, 8192
6, 11000, Pitch_bend_c, 5, 8000
6, 11001, Pitch_bend_c, 5, 8192
6, 11003, Pitch_bend_c, 5, 8224
6, 11004, Pitch_bend_c, 5, 8192
6, 11007, Pitch_bend_c, 5, 8256
6, 11008, Pitch_bend_c, 5, 8576
6, 11009, Pitch_bend_c, 5, 9184
6, 11011, Pitch_bend_c, 5, 11968
6, 11013, Pitch_bend_c, 5, 12224
6, 11014, Pitch_bend_c, 5, 12576
6, 11015, Pitch_bend_c, 5, 12992
6, 11017, Pitch_bend_c, 5, 13440
6, 11018, Pitch_bend_c, 5, 13664
6, 11019, Pitch_bend_c, 5, 13760
6, 11024, Pitch_bend_c, 5, 13728
6, 11025, Pitch_bend_c, 5, 13664
6, 11026, Pitch_bend_c, 5, 13632
6, 11028, Pitch_bend_c, 5, 13568
6, 11029, Pitch_bend_c, 5, 13664
6, 11030, Note_on_c, 5, 75, 0
6, 11030, Pitch_bend_c, 5, 13728
6, 11034, Pitch_bend_c, 5, 8192
6, 11035, Note_on_c, 5, 76, 89
6, 11035, Pitch_bend_c, 5, 9472
6, 11036, Pitch_bend_c, 5, 8064
6, 11038, Pitch_bend_c, 5, 7616
6, 11039, Pitch_bend_c, 5, 5120
6, 11040, Pitch_bend_c, 5, 4832
6, 11042, Pitch_bend_c, 5, 4480
6, 11043, Pitch_bend_c, 5, 4160
6, 11044, Pitch_bend_c, 5, 3840
6, 11046, Pitch_bend_c, 5, 3904
6, 11047, Pitch_bend_c, 5, 3936
6, 11050, Note_on_c, 5, 76, 0
6, 11050, Pitch_bend_c, 5, 4480
6, 11052, Pitch_bend_c, 5, 8192
6, 11053, Note_on_c, 5, 73, 87
6, 11053, Pitch_bend_c, 5, 8224
6, 11054, Pitch_bend_c, 5, 8352
6, 11055, Pitch_bend_c, 5, 8384
6, 11056, Pitch_bend_c, 5, 8416
6, 11057, Pitch_bend_c, 5, 8448
6, 11059, Pitch_bend_c, 5, 8544
6, 11060, Pitch_bend_c, 5, 8608
6, 11062, Note_on_c, 5, 73, 0
6, 11062, Pitch_bend_c, 5, 8864
6, 11065, Pitch_bend_c, 5, 8192
6, 11066, Note_on_c, 5, 70, 47
6, 11066, Pitch_bend_c, 5, 8416
6, 11067, Pitch_bend_c, 5, 8448
6, 11070, Pitch_bend_c, 5, 8416
6, 11071, Pitch_bend_c, 5, 8352
6, 11072, Pitch_bend_c, 5, 8320
6, 11074, Pitch_bend_c, 5, 8288
6, 11075, Pitch_bend_c, 5, 8256
6, 11077, Pitch_bend_c, 5, 8224
6, 11078, Pitch_bend_c, 5, 8192
6, 11084, Pitch_bend_c, 5, 8224
6, 11085, Pitch_bend_c, 5, 8448
6, 11087, Pitch_bend_c, 5, 8928
6, 11088, Pitch_bend_c, 5, 9568
6, 11089, Pitch_bend_c, 5, 10176
6, 11091, Pitch_bend_c, 5, 10496
6, 11092, Pitch_bend_c, 5, 10272
6, 11093, Pitch_bend_c, 5, 9664
6, 11095, Pitch_bend_c, 5, 9024
6, 11096, Pitch_bend_c, 5, 8416
6, 11098, Pitch_bend_c, 5, 8128
6, 11099, Pitch_bend_c, 5, 8096
6, 11101, Pitch_bend_c, 5, 8160
6, 11102, Pitch_bend_c, 5, 8384
6, 11103, Pitch_bend_c, 5, 8896
6, 11105, Pitch_bend_c, 5, 9568
6, 11106, Pitch_bend_c, 5, 10176
6, 11108, Pitch_bend_c, 5, 10496
6, 11109, Pitch_bend_c, 5, 10304
6, 11110, Pitch_bend_c, 5, 9760
6, 11112, Pitch_bend_c, 5, 9088
6, 11113, Pitch_bend_c, 5, 8480
6, 11115, Pitch_bend_c, 5, 8160
6, 11116, Pitch_bend_c, 5, 8000
6, 11119, Pitch_bend_c, 5, 8032
6, 11122, Note_on_c, 5, 70, 0
6, 11122, Pitch_bend_c, 5, 9088
6, 11805, Pitch_bend_c, 5, 8192
6, 11806, Note_on_c, 5, 67, 93
6, 11806, Pitch_bend_c, 5, 8672
6, 11807, Pitch_bend_c, 5, 8640
6, 11808, Pitch_bend_c, 5, 8192
6, 11808, Note_on_c, 5, 70, 91
6, 11823, Note_on_c, 5, 67, 0
6, 11823, Pitch_bend_c, 5, 7808
6, 11824, Pitch_bend_c, 5, 7520
6, 11825, Note_on_c, 5, 70, 0
6, 11827, Pitch_bend_c, 5, 8192
6, 11828, Note_on_c, 5, 70, 85
6, 11828, Pitch_bend_c, 5, 7872
6, 11829, Pitch_bend_c, 5, 7840
6, 11832, Pitch_bend_c, 5, 7872
6, 11836, Pitch_bend_c, 5, 7840
6, 11839, Pitch_bend_c, 5, 7808
6, 11842, Pitch_bend_c, 5, 7936
6, 11843, Note_on_c, 5, 70, 0
6, 11845, Pitch_bend_c, 5, 8192
6, 11846, Note_on_c, 5, 73, 91
6, 11846, Pitch_bend_c, 5, 8288
6, 11849, Pitch_bend_c, 5, 8256
6, 11850, Pitch_bend_c, 5, 8192
6, 11851, Pitch_bend_c, 5, 8160
6, 11852, Pitch_bend_c, 5, 8128
6, 11858, Pitch_bend_c, 5, 8064
6, 11861, Note_on_c, 5, 73, 0
6, 11861, Pitch_bend_c, 5, 8256
6, 11867, Pitch_bend_c, 5, 8192
6, 11870, Note_on_c, 5, 76, 93
6, 11871, Pitch_bend_c, 5, 8128
6, 11872, Pitch_bend_c, 5, 8064
6, 11873, Pitch_bend_c, 5, 8128
6, 11878, Pitch_bend_c, 5, 8064
6, 11880, Pitch_bend_c, 5, 8384
6, 11882, Pitch_bend_c, 5, 10912
6, 11883, Pitch_bend_c, 5, 11200
6, 11884, Pitch_bend_c, 5, 11648
6, 11886, Pitch_bend_c, 5, 12064
6, 11887, Pitch_bend_c, 5, 12576
6, 11889, Note_on_c, 5, 76, 0
6, 11889, Pitch_bend_c, 5, 12736
6, 11903, Pitch_bend_c, 5, 8192
6, 11904, Note_on_c, 5, 73, 89
6, 11904, Pitch_bend_c, 5, 8416
6, 11905, Pitch_bend_c, 5, 8352
6, 11907, Pitch_bend_c, 5, 8384
6, 11908, Pitch_bend_c, 5, 8416
6, 11909, Pitch_bend_c, 5, 8384
6, 11912, Pitch_bend_c, 5, 8352
6, 11914, Pitch_bend_c, 5, 8256
6, 11916, Pitch_bend_c, 5, 8224
6, 11918, Pitch_bend_c, 5, 8192
6, 11921, Pitch_bend_c, 5, 8160
6, 11924, Pitch_bend_c, 5, 8128
6, 11928, Pitch_bend_c, 5, 8160
6, 11929, Pitch_bend_c, 5, 8192
6, 11930, Pitch_bend_c, 5, 8256
6, 11932, Pitch_bend_c, 5, 8288
6, 11933, Note_on_c, 5, 73, 0
6, 11935, Pitch_bend_c, 5, 8192
6, 11936, Note_on_c, 5, 70, 54
6, 11936, Pitch_bend_c, 5, 8064
6, 11937, Pitch_bend_c, 5, 8096
6, 11942, Pitch_bend_c, 5, 8064
6, 11945, Pitch_bend_c, 5, 8032
6, 11947, Note_on_c, 5, 70, 0
6, 11948, Pitch_bend_c, 5, 8192
6, 11949, Note_on_c, 5, 70, 72
6, 11950, Pitch_bend_c, 5, 8160
6, 11952, Pitch_bend_c, 5, 8256
6, 11953, Pitch_bend_c, 5, 8480
6, 11955, Pitch_bend_c, 5, 8768
6, 11956, Pitch_bend_c, 5, 9056
6, 11957, Pitch_bend_c, 5, 9184
6, 11959, Pitch_bend_c, 5, 9024
6, 11960, Pitch_bend_c, 5, 8640
6, 11961, Pitch_bend_c, 5, 8320
6, 11963, Pitch_bend_c, 5, 8000
6, 11964, Pitch_bend_c, 5, 7872
6, 11966, Pitch_bend_c, 5, 7936
6, 11967, Pitch_bend_c, 5, 8256
6, 11969, Pitch_bend_c, 5, 8800
6, 11970, Pitch_bend_c, 5, 9440
6, 11971, Pitch_bend_c, 5, 9952
6, 11973, Pitch_bend_c, 5, 10048
6, 11974, Pitch_bend_c, 5, 9792
6, 11975, Pitch_bend_c, 5, 9440
6, 11977, Pitch_bend_c, 5, 9056
6, 11978, Pitch_bend_c, 5, 8704
6, 11980, Pitch_bend_c, 5, 8544
6, 11981, Pitch_bend_c, 5, 8416
6, 11983, Pitch_bend_c, 5, 8320
6, 11984, Pitch_bend_c, 5, 8224
6, 11985, Pitch_bend_c, 5, 8192
6, 11987, Pitch_bend_c, 5, 8128
6, 11988, Pitch_bend_c, 5, 8096
6, 11991, Pitch_bend_c, 5, 8064
6, 11994, Pitch_bend_c, 5, 8032
6, 11996, Pitch_bend_c, 5, 8000
6, 11998, Pitch_bend_c, 5, 8128
6, 11999, Note_on_c, 5, 70, 0
6, 12004, Note_on_c, 5, 67, 18
6, 12004, Pitch_bend_c, 5, 8192
6, 12008, Pitch_bend_c, 5, 8128
6, 12010, Pitch_bend_c, 5, 8096
6, 12013, Pitch_bend_c, 5, 8160
6, 12014, Pitch_bend_c, 5, 8064
6, 12016, Note_on_c, 5, 67, 0
6, 12016, Pitch_bend_c, 5, 8128
6, 12018, Pitch_bend_c, 5, 8192
6, 12019, Note_on_c, 5, 70, 84
6, 12019, Pitch_bend_c, 5, 8128
6, 12022, Pitch_bend_c, 5, 8160
6, 12024, Pitch_bend_c, 5, 8192
6, 12027, Pitch_bend_c, 5, 8224
6, 12028, Pitch_bend_c, 5, 8256
6, 12029, Pitch_bend_c, 5, 8288
6, 12031, Note_on_c, 5, 70, 0
6, 12032, Pitch_bend_c, 5, 8192
6, 12033, Note_on_c, 5, 72, 89
6, 12034, Pitch_bend_c, 5, 8544
6, 12035, Pitch_bend_c, 5, 8320
6, 12036, Pitch_bend_c, 5, 8288
6, 12037, Pitch_bend_c, 5, 8352
6, 12039, Pitch_bend_c, 5, 8480
6, 12040, Pitch_bend_c, 5, 8416
6, 12043, Pitch_bend_c, 5, 8352
6, 12044, Pitch_bend_c, 5, 8256
6, 12047, Pitch_bend_c, 5, 8288
6, 12048, Pitch_bend_c, 5, 8480
6, 12049, Note_on_c, 5, 72, 0
6, 12054, Note_on_c, 5, 72, 88
6, 12055, Pitch_bend_c, 5, 8448
6, 12056, Pitch_bend_c, 5, 8480
6, 12059, Pitch_bend_c, 5, 8448
6, 12060, Pitch_bend_c, 5, 8416
6, 12061, Pitch_bend_c, 5, 8320
6, 12065, Pitch_bend_c, 5, 8288
6, 12067, Pitch_bend_c, 5, 8352
6, 12068, Pitch_bend_c, 5, 8448
6, 12070, Pitch_bend_c, 5, 8512
6, 12071, Pitch_bend_c, 5, 8640
6, 12072, Pitch_bend_c, 5, 8736
6, 12074, Pitch_bend_c, 5, 8832
6, 12075, Pitch_bend_c, 5, 8928
6, 12076, Pitch_bend_c, 5, 9056
6, 12078, Pitch_bend_c, 5, 9088
6, 12079, Pitch_bend_c, 5, 9152
6, 12081, Pitch_bend_c, 5, 9216
6, 12082, Pitch_bend_c, 5, 9248
6, 12084, Pitch_bend_c, 5, 9280
6, 12085, Pitch_bend_c, 5, 9312
6, 12086, Pitch_bend_c, 5, 9408
6, 12088, Pitch_bend_c, 5, 9472
6, 12089, Pitch_bend_c, 5, 9536
6, 12091, Pitch_bend_c, 5, 9632
6, 12092, Pitch_bend_c, 5, 9664
6, 12094, Pitch_bend_c, 5, 9696
6, 12096, Pitch_bend_c, 5, 9728
6, 12098, Pitch_bend_c, 5, 9856
6, 12099, Pitch_bend_c, 5, 10016
6, 12101, Pitch_bend_c, 5, 10208
6, 12102, Pitch_bend_c, 5, 10400
6, 12104, Pitch_bend_c, 5, 10592
6, 12105, Pitch_bend_c, 5, 10720
6, 12106, Pitch_bend_c, 5, 10880
6, 12108, Pitch_bend_c, 5, 11040
6, 12109, Pitch_bend_c, 5, 11104
6, 12111, Pitch_bend_c, 5, 11136
6, 12112, Pitch_bend_c, 5, 11104
6, 12113, Pitch_bend_c, 5, 10944
6, 12115, Pitch_bend_c, 5, 10592
6, 12116, Pitch_bend_c, 5, 10112
6, 12117, Pitch_bend_c, 5, 9664
6, 12119, Pitch_bend_c, 5, 9408
6, 12120, Pitch_bend_c, 5, 9440
6, 12122, Pitch_bend_c, 5, 9888
6, 12123, Pitch_bend_c, 5, 10528
6, 12125, Pitch_bend_c, 5, 11264
6, 12126, Pitch_bend_c, 5, 12000
6, 12127, Pitch_bend_c, 5, 12480
6, 12129, Pitch_bend_c, 5, 12768
6, 12130, Pitch_bend_c, 5, 12832
6, 12131, Pitch_bend_c, 5, 12544
6, 12133, Pitch_bend_c, 5, 10208
6, 12134, Pitch_bend_c, 5, 10048
6, 12135, Pitch_bend_c, 5, 9952
6, 12138, Pitch_bend_c, 5, 10272
6, 12140, Pitch_bend_c, 5, 10944
6, 12141, Pitch_bend_c, 5, 11712
6, 12143, Pitch_bend_c, 5, 12480
6, 12144, Pitch_bend_c, 5, 12960
6, 12145, Pitch_bend_c, 5, 13216
6, 12147, Pitch_bend_c, 5, 12992
6, 12148, Pitch_bend_c, 5, 10656
6, 12150, Pitch_bend_c, 5, 10336
6, 12151, Pitch_bend_c, 5, 9824
6, 12153, Pitch_bend_c, 5, 9280
6, 12154, Pitch_bend_c, 5, 8736
6, 12155, Note_on_c, 5, 72, 0
6, 12155, Pitch_bend_c, 5, 10656
6, 12534, Pitch_bend_c, 5, 8192
6, 12540, Note_on_c, 5, 77, 94
6, 12540, Pitch_bend_c, 5, 8384
6, 12544, Pitch_bend_c, 5, 8416
6, 12546, Pitch_bend_c, 5, 8544
6, 12547, Pitch_bend_c, 5, 8672
6, 12548, Pitch_bend_c, 5, 8832
6, 12550, Pitch_bend_c, 5, 8992
6, 12551, Pitch_bend_c, 5, 9248
6, 12552, Pitch_bend_c, 5, 9536
6, 12554, Pitch_bend_c, 5, 9920
6, 12555, Pitch_bend_c, 5, 10400
6, 12557, Pitch_bend_c, 5, 10880
6, 12558, Pitch_bend_c, 5, 11392
6, 12560, Pitch_bend_c, 5, 11744
6, 12561, Pitch_bend_c, 5, 11936
6, 12562, Pitch_bend_c, 5, 12000
6, 12564, Note_on_c, 5, 77, 0
6, 12567, Note_on_c, 5, 77, 93
6, 12567, Pitch_bend_c, 5, 8416
6, 12573, Pitch_bend_c, 5, 8384
6, 12576, Pitch_bend_c, 5, 8320
6, 12582, Pitch_bend_c, 5, 8288
6, 12583, Note_on_c, 5, 77, 0
6, 12589, Pitch_bend_c, 5, 8192
6, 12590, Note_on_c, 5, 75, 90
6, 12590, Pitch_bend_c, 5, 8352
6, 12591, Pitch_bend_c, 5, 8448
6, 12600, Pitch_bend_c, 5, 8416
6, 12602, Note_on_c, 5, 75, 0
6, 12602, Pitch_bend_c, 5, 8352
6, 12608, Note_on_c, 5, 76, 89
6, 12608, Pitch_bend_c, 5, 12576
6, 12610, Pitch_bend_c, 5, 12480
6, 12620, Note_on_c, 5, 76, 0
6, 12620, Pitch_bend_c, 5, 12512
6, 12630, Note_on_c, 5, 72, 88
6, 12630, Pitch_bend_c, 5, 8544
6, 12633, Pitch_bend_c, 5, 8480
6, 12635, Pitch_bend_c, 5, 8448
6, 12636, Pitch_bend_c, 5, 8352
6, 12641, Pitch_bend_c, 5, 8608
6, 12642, Pitch_bend_c, 5, 12096
6, 12643, Pitch_bend_c, 5, 12128
6, 12646, Pitch_bend_c, 5, 12192
6, 12648, Pitch_bend_c, 5, 12224
6, 12649, Pitch_bend_c, 5, 12320
6, 12650, Pitch_bend_c, 5, 8160
6, 12652, Pitch_bend_c, 5, 8192
6, 12656, Pitch_bend_c, 5, 8288
6, 12657, Pitch_bend_c, 5, 8416
6, 12659, Note_on_c, 5, 72, 0
6, 12659, Note_on_c, 5, 69, 62
6, 12659, Pitch_bend_c, 5, 12096
6, 12660, Pitch_bend_c, 5, 12224
6, 12669, Pitch_bend_c, 5, 12256
6, 12670, Pitch_bend_c, 5, 12288
6, 12672, Note_on_c, 5, 69, 0
6, 12672, Pitch_bend_c, 5, 8192
6, 12673, Note_on_c, 5, 71, 86
6, 12674, Pitch_bend_c, 5, 12512
6, 12675, Pitch_bend_c, 5, 12416
6, 12677, Pitch_bend_c, 5, 12448
6, 12680, Pitch_bend_c, 5, 12512
6, 12682, Pitch_bend_c, 5, 12448
6, 12683, Pitch_bend_c, 5, 12416
6, 12685, Pitch_bend_c, 5, 12352
6, 12686, Pitch_bend_c, 5, 12288
6, 12690, Pitch_bend_c, 5, 12320
6, 12691, Note_on_c, 5, 71, 0
6, 12691, Pitch_bend_c, 5, 12448
6, 12693, Pitch_bend_c, 5, 8192
6, 12694, Note_on_c, 5, 67, 39
6, 12694, Pitch_bend_c, 5, 8160
6, 12695, Pitch_bend_c, 5, 8192
6, 12701, Pitch_bend_c, 5, 8160
6, 12702, Pitch_bend_c, 5, 8128
6, 12704, Pitch_bend_c, 5, 8096
6, 12706, Pitch_bend_c, 5, 8064
6, 12708, Pitch_bend_c, 5, 8096
6, 12709, Pitch_bend_c, 5, 8192
6, 12710, Note_on_c, 5, 67, 0
6, 12712, Note_on_c, 5, 70, 89
6, 12712, Pitch_bend_c, 5, 8160
6, 12713, Pitch_bend_c, 5, 8128
6, 12717, Pitch_bend_c, 5, 8160
6, 12720, Pitch_bend_c, 5, 8224
6, 12721, Pitch_bend_c, 5, 8416
6, 12723, Pitch_bend_c, 5, 8800
6, 12724, Pitch_bend_c, 5, 9248
6, 12725, Pitch_bend_c, 5, 9696
6, 12727, Pitch_bend_c, 5, 9952
6, 12730, Pitch_bend_c, 5, 9568
6, 12731, Pitch_bend_c, 5, 9024
6, 12733, Pitch_bend_c, 5, 8512
6, 12734, Pitch_bend_c, 5, 8128
6, 12735, Pitch_bend_c, 5, 8000
6, 12737, Pitch_bend_c, 5, 8064
6, 12738, Pitch_bend_c, 5, 8256
6, 12740, Pitch_bend_c, 5, 8608
6, 12741, Pitch_bend_c, 5, 9024
6, 12742, Pitch_bend_c, 5, 9344
6, 12744, Pitch_bend_c, 5, 9408
6, 12745, Pitch_bend_c, 5, 9248
6, 12746, Pitch_bend_c, 5, 9024
6, 12748, Pitch_bend_c, 5, 8800
6, 12749, Note_on_c, 5, 70, 0
6, 12749, Pitch_bend_c, 5, 9344
6, 12751, Pitch_bend_c, 5, 8192
6, 12752, Note_on_c, 5, 73, 82
6, 12752, Pitch_bend_c, 5, 8544
6, 12755, Pitch_bend_c, 5, 8512
6, 12756, Pitch_bend_c, 5, 8448
6, 12757, Pitch_bend_c, 5, 8416
6, 12759, Pitch_bend_c, 5, 8352
6, 12760, Pitch_bend_c, 5, 8256
6, 12762, Pitch_bend_c, 5, 8192
6, 12763, Pitch_bend_c, 5, 8160
6, 12766, Pitch_bend_c, 5, 8192
6, 12771, Pitch_bend_c, 5, 8160
6, 12775, Pitch_bend_c, 5, 8128
6, 12776, Pitch_bend_c, 5, 8064
6, 12777, Pitch_bend_c, 5, 8032
6, 12784, Pitch_bend_c, 5, 8064
6, 12786, Pitch_bend_c, 5, 8160
6, 12787, Pitch_bend_c, 5, 8224
6, 12788, Pitch_bend_c, 5, 8416
6, 12790, Pitch_bend_c, 5, 8768
6, 12791, Pitch_bend_c, 5, 9376
6, 12792, Pitch_bend_c, 5, 10144
6, 12794, Pitch_bend_c, 5, 10976
6, 12795, Pitch_bend_c, 5, 11616
6, 12797, Pitch_bend_c, 5, 11968
6, 12798, Note_on_c, 5, 73, 0
6, 12862, Pitch_bend_c, 5, 8192
6, 12863, Note_on_c, 5, 70, 93
6, 12863, Pitch_bend_c, 5, 8384
6, 12869, Pitch_bend_c, 5, 8416
6, 12872, Pitch_bend_c, 5, 8448
6, 12874, Pitch_bend_c, 5, 8512
6, 12875, Note_on_c, 5, 70, 0
6, 12875, Pitch_bend_c, 5, 8544
6, 12878, Pitch_bend_c, 5, 8192
6, 12879, Note_on_c, 5, 65, 86
6, 12879, Pitch_bend_c, 5, 8640
6, 12880, Pitch_bend_c, 5, 8608
6, 12881, Pitch_bend_c, 5, 8576
6, 12886, Pitch_bend_c, 5, 8544
6, 12888, Pitch_bend_c, 5, 8480
6, 12889, Pitch_bend_c, 5, 8096
6, 12891, Note_on_c, 5, 65, 0
6, 12891, Pitch_bend_c, 5, 8576
6, 12897, Pitch_bend_c, 5, 8192
6, 12898, Note_on_c, 5, 63, 55
6, 12899, Pitch_bend_c, 5, 8032
6, 12900, Pitch_bend_c, 5, 8064
6, 12904, Pitch_bend_c, 5, 8096
6, 12905, Pitch_bend_c, 5, 8128
6, 12909, Pitch_bend_c, 5, 8032
6, 12910, Note_on_c, 5, 63, 0
6, 12910, Pitch_bend_c, 5, 8064
6, 12914, Pitch_bend_c, 5, 8192
6, 12915, Note_on_c, 5, 65, 95
6, 12915, Pitch_bend_c, 5, 8160
6, 12920, Pitch_bend_c, 5, 8128
6, 12922, Pitch_bend_c, 5, 8096
6, 12926, Pitch_bend_c, 5, 8064
6, 12927, Pitch_bend_c, 5, 8000
6, 12928, Note_on_c, 5, 65, 0
6, 12928, Pitch_bend_c, 5, 8160
6, 12936, Pitch_bend_c, 5, 8192
6, 12937, Note_on_c, 5, 61, 48
6, 12938, Pitch_bend_c, 5, 8160
6, 12940, Pitch_bend_c, 5, 8192
6, 12941, Pitch_bend_c, 5, 8224
6, 12948, Pitch_bend_c, 5, 8192
6, 12958, Pitch_bend_c, 5, 8224
6, 12959, Pitch_bend_c, 5, 8256
6, 12961, Pitch_bend_c, 5, 8288
6, 12963, Pitch_bend_c, 5, 8352
6, 12964, Pitch_bend_c, 5, 8384
6, 12965, Pitch_bend_c, 5, 8448
6, 12967, Pitch_bend_c, 5, 8544
6, 12968, Pitch_bend_c, 5, 8672
6, 12969, Pitch_bend_c, 5, 8800
6, 12971, Pitch_bend_c, 5, 8992
6, 12972, Pitch_bend_c, 5, 9248
6, 12974, Note_on_c, 5, 61, 0
6, 12974, Pitch_bend_c, 5, 9472
6, 13341, Pitch_bend_c, 5, 8192
6, 13342, Note_on_c, 5, 67, 103
6, 13342, Pitch_bend_c, 5, 8256
6, 13344, Pitch_bend_c, 5, 8192
6, 13344, Note_on_c, 5, 70, 103
6, 13362, Note_on_c, 5, 70, 0
6, 13363, Note_on_c, 5, 70, 90
6, 13369, Note_on_c, 5, 67, 0
6, 13372, Pitch_bend_c, 5, 7968
6, 13373, Pitch_bend_c, 5, 7936
6, 13374, Pitch_bend_c, 5, 7712
6, 13375, Pitch_bend_c, 5, 7488
6, 13376, Note_on_c, 5, 70, 0
6, 13382, Pitch_bend_c, 5, 8192
6, 13383, Note_on_c, 5, 73, 93
6, 13383, Pitch_bend_c, 5, 8512
6, 13386, Pitch_bend_c, 5, 8416
6, 13388, Pitch_bend_c, 5, 8288
6, 13389, Pitch_bend_c, 5, 8160
6, 13391, Pitch_bend_c, 5, 8064
6, 13392, Pitch_bend_c, 5, 8032
6, 13393, Pitch_bend_c, 5, 8288
6, 13394, Note_on_c, 5, 73, 0
6, 13408, Pitch_bend_c, 5, 8192
6, 13409, Note_on_c, 5, 75, 93
6, 13409, Pitch_bend_c, 5, 8320
6, 13412, Pitch_bend_c, 5, 8224
6, 13415, Pitch_bend_c, 5, 8320
6, 13416, Pitch_bend_c, 5, 8256
6, 13418, Pitch_bend_c, 5, 8544
6, 13419, Pitch_bend_c, 5, 9088
6, 13420, Pitch_bend_c, 5, 11552
6, 13422, Pitch_bend_c, 5, 11872
6, 13423, Pitch_bend_c, 5, 12416
6, 13425, Pitch_bend_c, 5, 14880
6, 13426, Pitch_bend_c, 5, 15072
6, 13427, Pitch_bend_c, 5, 15264
6, 13429, Pitch_bend_c, 5, 15552
6, 13430, Pitch_bend_c, 5, 15840
6, 13432, Pitch_bend_c, 5, 15968
6, 13433, Pitch_bend_c, 5, 16032
6, 13435, Pitch_bend_c, 5, 16064
6, 13436, Pitch_bend_c, 5, 16032
6, 13439, Pitch_bend_c, 5, 15968
6, 13440, Pitch_bend_c, 5, 15936
6, 13441, Pitch_bend_c, 5, 15872
6, 13443, Pitch_bend_c, 5, 15840
6, 13448, Pitch_bend_c, 5, 15776
6, 13450, Pitch_bend_c, 5, 15744
6, 13452, Pitch_bend_c, 5, 15680
6, 13456, Pitch_bend_c, 5, 15648
6, 13457, Pitch_bend_c, 5, 15584
6, 13458, Pitch_bend_c, 5, 15456
6, 13460, Pitch_bend_c, 5, 15200
6, 13461, Pitch_bend_c, 5, 11648
6, 13462, Pitch_bend_c, 5, 8896
6, 13464, Pitch_bend_c, 5, 8640
6, 13465, Pitch_bend_c, 5, 8352
6, 13467, Pitch_bend_c, 5, 8064
6, 13468, Pitch_bend_c, 5, 7904
6, 13469, Note_on_c, 5, 75, 0
6, 13469, Pitch_bend_c, 5, 8896
6, 13471, Pitch_bend_c, 5, 8192
6, 13472, Note_on_c, 5, 73, 88
6, 13472, Pitch_bend_c, 5, 8416
6, 13473, Pitch_bend_c, 5, 8224
6, 13474, Pitch_bend_c, 5, 8256
6, 13476, Pitch_bend_c, 5, 8352
6, 13477, Pitch_bend_c, 5, 8384
6, 13480, Note_on_c, 5, 73, 0
6, 13481, Pitch_bend_c, 5, 8192
6, 13482, Note_on_c, 5, 70, 80
6, 13489, Pitch_bend_c, 5, 8128
6, 13490, Pitch_bend_c, 5, 8032
6, 13491, Pitch_bend_c, 5, 7904
6, 13493, Pitch_bend_c, 5, 7840
6, 13494, Pitch_bend_c, 5, 7776
6, 13497, Pitch_bend_c, 5, 7872
6, 13498, Pitch_bend_c, 5, 8128
6, 13500, Pitch_bend_c, 5, 8576
6, 13501, Pitch_bend_c, 5, 9152
6, 13502, Pitch_bend_c, 5, 9632
6, 13504, Pitch_bend_c, 5, 9920
6, 13507, Pitch_bend_c, 5, 9792
6, 13508, Pitch_bend_c, 5, 9632
6, 13510, Pitch_bend_c, 5, 9440
6, 13511, Pitch_bend_c, 5, 9248
6, 13512, Pitch_bend_c, 5, 9088
6, 13514, Pitch_bend_c, 5, 8960
6, 13515, Pitch_bend_c, 5, 8864
6, 13516, Pitch_bend_c, 5, 8768
6, 13518, Pitch_bend_c, 5, 8608
6, 13519, Pitch_bend_c, 5, 8480
6, 13521, Pitch_bend_c, 5, 8320
6, 13522, Pitch_bend_c, 5, 8192
6, 13524, Note_on_c, 5, 70, 0
6, 13524, Note_on_c, 5, 73, 97
6, 13524, Pitch_bend_c, 5, 8000
6, 13525, Pitch_bend_c, 5, 8160
6, 13528, Pitch_bend_c, 5, 8128
6, 13530, Pitch_bend_c, 5, 8032
6, 13531, Pitch_bend_c, 5, 7968
6, 13532, Pitch_bend_c, 5, 7872
6, 13534, Pitch_bend_c, 5, 7808
6, 13535, Pitch_bend_c, 5, 7936
6, 13536, Pitch_bend_c, 5, 8192
6, 13539, Pitch_bend_c, 5, 9472
6, 13541, Pitch_bend_c, 5, 10240
6, 13542, Pitch_bend_c, 5, 10880
6, 13543, Pitch_bend_c, 5, 11360
6, 13545, Pitch_bend_c, 5, 11552
6, 13546, Pitch_bend_c, 5, 11648
6, 13547, Note_on_c, 5, 73, 0
6, 14041, Pitch_bend_c, 5, 8192
6, 14042, Note_on_c, 5, 63, 93
6, 14042, Pitch_bend_c, 5, 8256
6, 14045, Pitch_bend_c, 5, 8288
6, 14046, Pitch_bend_c, 5, 8320
6, 14048, Pitch_bend_c, 5, 8384
6, 14049, Pitch_bend_c, 5, 8480
6, 14051, Pitch_bend_c, 5, 8768
6, 14052, Pitch_bend_c, 5, 9248
6, 14053, Pitch_bend_c, 5, 9824
6, 14055, Pitch_bend_c, 5, 10368
6, 14056, Pitch_bend_c, 5, 10752
6, 14058, Note_on_c, 5, 63, 0
6, 14058, Pitch_bend_c, 5, 10912
6, 14071, Pitch_bend_c, 5, 8192
6, 14072, Note_on_c, 5, 61, 91
6, 14072, Pitch_bend_c, 5, 8064
6, 14075, Pitch_bend_c, 5, 8032
6, 14078, Pitch_bend_c, 5, 8000
6, 14081, Pitch_bend_c, 5, 8032
6, 14082, Pitch_bend_c, 5, 8064
6, 14083, Note_on_c, 5, 61, 0
6, 14086, Pitch_bend_c, 5, 8192
6, 14087, Note_on_c, 5, 58, 73
6, 14096, Pitch_bend_c, 5, 8224
6, 14099, Pitch_bend_c, 5, 8192
6, 14112, Note_on_c, 5, 58, 0
6, 14112, Pitch_bend_c, 5, 8224
6, 14114, Pitch_bend_c, 5, 8192
6, 14115, Note_on_c, 5, 61, 86
6, 14115, Pitch_bend_c, 5, 7936
6, 14116, Pitch_bend_c, 5, 7904
6, 14117, Pitch_bend_c, 5, 7872
6, 14121, Pitch_bend_c, 5, 7904
6, 14122, Pitch_bend_c, 5, 7936
6, 14124, Pitch_bend_c, 5, 7968
6, 14125, Pitch_bend_c, 5, 8000
6, 14127, Note_on_c, 5, 61, 0
6, 14127, Note_on_c, 5, 63, 87
6, 14127, Pitch_bend_c, 5, 7968
6, 14128, Pitch_bend_c, 5, 8000
6, 14135, Pitch_bend_c, 5, 7968
6, 14137, Pitch_bend_c, 5, 7936
6, 14140, Pitch_bend_c, 5, 7872
6, 14141, Pitch_bend_c, 5, 7808
6, 14142, Note_on_c, 5, 63, 0
6, 14142, Pitch_bend_c, 5, 7968
6, 14154, Note_on_c, 5, 61, 95
6, 14154, Pitch_bend_c, 5, 8288
6, 14155, Pitch_bend_c, 5, 8064
6, 14156, Pitch_bend_c, 5, 8128
6, 14159, Pitch_bend_c, 5, 8160
6, 14162, Pitch_bend_c, 5, 8128
6, 14165, Pitch_bend_c, 5, 8064
6, 14167, Pitch_bend_c, 5, 8032
6, 14171, Pitch_bend_c, 5, 8064
6, 14173, Pitch_bend_c, 5, 8128
6, 14174, Pitch_bend_c, 5, 8288
6, 14176, Pitch_bend_c, 5, 8576
6, 14177, Pitch_bend_c, 5, 8992
6, 14178, Pitch_bend_c, 5, 9536
6, 14180, Pitch_bend_c, 5, 10016
6, 14181, Pitch_bend_c, 5, 10368
6, 14183, Pitch_bend_c, 5, 10528
6, 14184, Pitch_bend_c, 5, 10432
6, 14186, Pitch_bend_c, 5, 10080
6, 14187, Pitch_bend_c, 5, 9568
6, 14188, Pitch_bend_c, 5, 9056
6, 14189, Pitch_bend_c, 5, 10528
6, 14190, Note_on_c, 5, 61, 0
6, 14190, Note_on_c, 5, 58, 76
6, 14190, Pitch_bend_c, 5, 8224
6, 14196, Pitch_bend_c, 5, 8128
6, 14198, Note_on_c, 5, 58, 0
6, 14198, Pitch_bend_c, 5, 8192
6, 14199, Note_on_c, 5, 56, 70
6, 14199, Pitch_bend_c, 5, 8224
6, 14200, Pitch_bend_c, 5, 8192
6, 14202, Note_on_c, 5, 45, 22
6, 14204, Note_on_c, 5, 45, 0
6, 14204, Pitch_bend_c, 5, 8224
6, 14206, Pitch_bend_c, 5, 8320
6, 14207, Pitch_bend_c, 5, 8192
6, 14208, Note_on_c, 5, 56, 0
6, 14208, Note_on_c, 5, 53, 82
6, 14208, Pitch_bend_c, 5, 8000
6, 14211, Pitch_bend_c, 5, 8032
6, 14213, Pitch_bend_c, 5, 8064
6, 14214, Pitch_bend_c, 5, 8032
6, 14215, Pitch_bend_c, 5, 8000
6, 14224, Pitch_bend_c, 5, 7968
6, 14226, Pitch_bend_c, 5, 8000
6, 14231, Pitch_bend_c, 5, 7968
6, 14232, Pitch_bend_c, 5, 7936
6, 14234, Pitch_bend_c, 5, 7904
6, 14237, Pitch_bend_c, 5, 7872
6, 14241, Pitch_bend_c, 5, 7840
6, 14244, Pitch_bend_c, 5, 7808
6, 14249, Pitch_bend_c, 5, 7264
6, 14250, Note_on_c, 5, 53, 0
6, 14299, Pitch_bend_c, 5, 8192
6, 14300, Note_on_c, 5, 58, 104
6, 14301, Pitch_bend_c, 5, 7648
6, 14302, Pitch_bend_c, 5, 8192
6, 14302, Note_on_c, 5, 67, 106
6, 14302, Note_on_c, 5, 61, 106
6, 14322, Note_on_c, 5, 58, 0
6, 14323, Note_on_c, 5, 61, 0
6, 14324, Pitch_bend_c, 5, 7552
6, 14325, Note_on_c, 5, 67, 0
6, 14455, Pitch_bend_c, 5, 8192
6, 14456, Note_on_c, 5, 65, 88
6, 14456, Pitch_bend_c, 5, 8864
6, 14457, Pitch_bend_c, 5, 8928
6, 14459, Pitch_bend_c, 5, 8896
6, 14460, Pitch_bend_c, 5, 8864
6, 14462, Pitch_bend_c, 5, 8800
6, 14463, Pitch_bend_c, 5, 8768
6, 14465, Pitch_bend_c, 5, 8672
6, 14466, Pitch_bend_c, 5, 8608
6, 14467, Pitch_bend_c, 5, 8384
6, 14469, Note_on_c, 5, 65, 0
6, 14469, Pitch_bend_c, 5, 8768
6, 14490, Pitch_bend_c, 5, 8192
6, 14491, Note_on_c, 5, 70, 99
6, 14491, Pitch_bend_c, 5, 8320
6, 14492, Pitch_bend_c, 5, 8288
6, 14495, Pitch_bend_c, 5, 8320
6, 14496, Pitch_bend_c, 5, 8352
6, 14498, Pitch_bend_c, 5, 8320
6, 14499, Pitch_bend_c, 5, 8256
6, 14500, Pitch_bend_c, 5, 8192
6, 14502, Pitch_bend_c, 5, 8160
6, 14503, Pitch_bend_c, 5, 8064
6, 14505, Pitch_bend_c, 5, 8032
6, 14506, Pitch_bend_c, 5, 7968
6, 14508, Pitch_bend_c, 5, 7904
6, 14509, Pitch_bend_c, 5, 7872
6, 14512, Pitch_bend_c, 5, 7840
6, 14513, Pitch_bend_c, 5, 7872
6, 14516, Pitch_bend_c, 5, 8000
6, 14517, Pitch_bend_c, 5, 8352
6, 14519, Pitch_bend_c, 5, 8896
6, 14520, Pitch_bend_c, 5, 9536
6, 14522, Pitch_bend_c, 5, 10048
6, 14523, Pitch_bend_c, 5, 10272
6, 14526, Pitch_bend_c, 5, 9856
6, 14527, Pitch_bend_c, 5, 7680
6, 14528, Pitch_bend_c, 5, 7712
6, 14531, Pitch_bend_c, 5, 7680
6, 14533, Pitch_bend_c, 5, 7744
6, 14534, Pitch_bend_c, 5, 7808
6, 14535, Pitch_bend_c, 5, 8032
6, 14537, Pitch_bend_c, 5, 8416
6, 14538, Pitch_bend_c, 5, 8768
6, 14540, Pitch_bend_c, 5, 9024
6, 14541, Pitch_bend_c, 5, 8992
6, 14542, Pitch_bend_c, 5, 8640
6, 14544, Pitch_bend_c, 5, 8192
6, 14545, Pitch_bend_c, 5, 7904
6, 14547, Pitch_bend_c, 5, 7744
6, 14548, Pitch_bend_c, 5, 7712
6, 14549, Pitch_bend_c, 5, 7776
6, 14550, Note_on_c, 5, 70, 0
6, 14550, Pitch_bend_c, 5, 8192
6, 14554, Note_on_c, 5, 70, 94
6, 14554, Pitch_bend_c, 5, 8064
6, 14555, Pitch_bend_c, 5, 8256
6, 14557, Pitch_bend_c, 5, 8192
6, 14558, Pitch_bend_c, 5, 8096
6, 14561, Pitch_bend_c, 5, 8032
6, 14564, Pitch_bend_c, 5, 8000
6, 14566, Pitch_bend_c, 5, 7936
6, 14567, Pitch_bend_c, 5, 7840
6, 14568, Pitch_bend_c, 5, 7360
6, 14569, Note_on_c, 5, 70, 0
6, 14569, Pitch_bend_c, 5, 8032
6, 14586, Pitch_bend_c, 5, 8192
6, 14587, Note_on_c, 5, 75, 103
6, 14587, Pitch_bend_c, 5, 8576
6, 14588, Pitch_bend_c, 5, 8352
6, 14590, Pitch_bend_c, 5, 8416
6, 14591, Pitch_bend_c, 5, 8736
6, 14593, Pitch_bend_c, 5, 9184
6, 14594, Pitch_bend_c, 5, 9920
6, 14596, Pitch_bend_c, 5, 12288
6, 14597, Pitch_bend_c, 5, 12480
6, 14599, Pitch_bend_c, 5, 12864
6, 14600, Pitch_bend_c, 5, 13344
6, 14601, Pitch_bend_c, 5, 13952
6, 14603, Pitch_bend_c, 5, 14496
6, 14604, Pitch_bend_c, 5, 14880
6, 14605, Pitch_bend_c, 5, 15200
6, 14607, Pitch_bend_c, 5, 15456
6, 14608, Pitch_bend_c, 5, 15680
6, 14610, Pitch_bend_c, 5, 15840
6, 14611, Pitch_bend_c, 5, 15968
6, 14612, Pitch_bend_c, 5, 16032
6, 14614, Pitch_bend_c, 5, 16064
6, 14615, Pitch_bend_c, 5, 16128
6, 14618, Pitch_bend_c, 5, 16160
6, 14621, Pitch_bend_c, 5, 16224
6, 14622, Pitch_bend_c, 5, 16256
6, 14624, Pitch_bend_c, 5, 16320
6, 14626, Pitch_bend_c, 5, 16383
6, 14627, Note_on_c, 5, 75, 0
6, 14655, Pitch_bend_c, 5, 8192
6, 14656, Note_on_c, 5, 75, 95
6, 14656, Pitch_bend_c, 5, 9344
6, 14657, Pitch_bend_c, 5, 10048
6, 14658, Pitch_bend_c, 5, 10464
6, 14660, Pitch_bend_c, 5, 11040
6, 14661, Pitch_bend_c, 5, 13376
6, 14663, Pitch_bend_c, 5, 13568
6, 14664, Pitch_bend_c, 5, 13920
6, 14665, Pitch_bend_c, 5, 14304
6, 14667, Pitch_bend_c, 5, 14816
6, 14668, Pitch_bend_c, 5, 15200
6, 14669, Pitch_bend_c, 5, 15488
6, 14671, Pitch_bend_c, 5, 15744
6, 14672, Pitch_bend_c, 5, 15872
6, 14674, Pitch_bend_c, 5, 16032
6, 14675, Pitch_bend_c, 5, 16064
6, 14676, Pitch_bend_c, 5, 16160
6, 14678, Pitch_bend_c, 5, 16224
6, 14679, Pitch_bend_c, 5, 16256
6, 14681, Pitch_bend_c, 5, 16320
6, 14705, Pitch_bend_c, 5, 16256
6, 14706, Pitch_bend_c, 5, 16320
6, 14720, Pitch_bend_c, 5, 16256
6, 14740, Pitch_bend_c, 5, 16224
6, 14755, Pitch_bend_c, 5, 16160
6, 14760, Pitch_bend_c, 5, 16224
6, 14766, Pitch_bend_c, 5, 16160
6, 14784, Pitch_bend_c, 5, 16128
6, 14795, Pitch_bend_c, 5, 16064
6, 14814, Pitch_bend_c, 5, 16032
6, 14822, Pitch_bend_c, 5, 15968
6, 14824, Note_on_c, 5, 75, 0
6, 14824, Pitch_bend_c, 5, 16160
6, 14866, Pitch_bend_c, 5, 8192
6, 14866, Note_on_c, 5, 70, 86
6, 14867, Pitch_bend_c, 5, 8128
6, 14869, Pitch_bend_c, 5, 8160
6, 14870, Pitch_bend_c, 5, 8128
6, 14872, Pitch_bend_c, 5, 8096
6, 14873, Pitch_bend_c, 5, 8032
6, 14874, Pitch_bend_c, 5, 7936
6, 14876, Pitch_bend_c, 5, 7840
6, 14877, Pitch_bend_c, 5, 7776
6, 14879, Pitch_bend_c, 5, 8032
6, 14880, Note_on_c, 5, 70, 0
6, 14884, Pitch_bend_c, 5, 8192
6, 14885, Note_on_c, 5, 73, 93
6, 14885, Pitch_bend_c, 5, 8704
6, 14886, Pitch_bend_c, 5, 8384
6, 14890, Pitch_bend_c, 5, 8352
6, 14892, Pitch_bend_c, 5, 8256
6, 14896, Pitch_bend_c, 5, 8224
6, 14898, Pitch_bend_c, 5, 8192
6, 14900, Note_on_c, 5, 73, 0
6, 14900, Pitch_bend_c, 5, 8384
6, 14907, Pitch_bend_c, 5, 8192
6, 14908, Note_on_c, 5, 75, 93
6, 14908, Pitch_bend_c, 5, 8416
6, 14912, Pitch_bend_c, 5, 8352
6, 14913, Pitch_bend_c, 5, 8192
6, 14915, Pitch_bend_c, 5, 8064
6, 14919, Pitch_bend_c, 5, 8032
6, 14920, Pitch_bend_c, 5, 8416
6, 14921, Note_on_c, 5, 75, 0
6, 14930, Note_on_c, 5, 75, 93
6, 14930, Pitch_bend_c, 5, 8224
6, 14931, Pitch_bend_c, 5, 8192
6, 14932, Pitch_bend_c, 5, 8320
6, 14933, Pitch_bend_c, 5, 8224
6, 14935, Pitch_bend_c, 5, 8192
6, 14936, Pitch_bend_c, 5, 8160
6, 14941, Pitch_bend_c, 5, 8064
6, 14943, Pitch_bend_c, 5, 8032
6, 14945, Pitch_bend_c, 5, 8064
6, 14946, Pitch_bend_c, 5, 8160
6, 14948, Pitch_bend_c, 5, 8256
6, 14949, Pitch_bend_c, 5, 8480
6, 14950, Pitch_bend_c, 5, 8768
6, 14952, Pitch_bend_c, 5, 9216
6, 14953, Pitch_bend_c, 5, 9760
6, 14955, Pitch_bend_c, 5, 10400
6, 14956, Pitch_bend_c, 5, 11040
6, 14957, Pitch_bend_c, 5, 11552
6, 14959, Pitch_bend_c, 5, 11872
6, 14960, Pitch_bend_c, 5, 12000
6, 14961, Pitch_bend_c, 5, 12032
6, 14963, Pitch_bend_c, 5, 11808
6, 14964, Note_on_c, 5, 75, 0
6, 14964, Pitch_bend_c, 5, 11872
6, 14967, Pitch_bend_c, 5, 8192
6, 14968, Note_on_c, 5, 77, 89
6, 14968, Pitch_bend_c, 5, 8896
6, 14970, Pitch_bend_c, 5, 8832
6, 14972, Pitch_bend_c, 5, 8800
6, 14973, Pitch_bend_c, 5, 8736
6, 14976, Pitch_bend_c, 5, 8672
6, 14979, Pitch_bend_c, 5, 8736
6, 14983, Pitch_bend_c, 5, 8800
6, 14985, Pitch_bend_c, 5, 8832
6, 14987, Note_on_c, 5, 77, 0
6, 14990, Pitch_bend_c, 5, 8192
6, 14991, Note_on_c, 5, 73, 86
6, 14991, Pitch_bend_c, 5, 8128
6, 14995, Pitch_bend_c, 5, 8160
6, 15002, Pitch_bend_c, 5, 8128
6, 15008, Pitch_bend_c, 5, 8064
6, 15012, Pitch_bend_c, 5, 8032
6, 15013, Pitch_bend_c, 5, 8064
6, 15016, Pitch_bend_c, 5, 8032
6, 15017, Pitch_bend_c, 5, 8128
6, 15018, Note_on_c, 5, 73, 0
6, 15020, Pitch_bend_c, 5, 8192
6, 15021, Note_on_c, 5, 70, 57
6, 15021, Pitch_bend_c, 5, 8064
6, 15025, Pitch_bend_c, 5, 8032
6, 15027, Pitch_bend_c, 5, 7968
6, 15028, Pitch_bend_c, 5, 7936
6, 15030, Pitch_bend_c, 5, 7904
6, 15031, Pitch_bend_c, 5, 7872
6, 15032, Pitch_bend_c, 5, 7840
6, 15034, Pitch_bend_c, 5, 7744
6, 15036, Pitch_bend_c, 5, 7904
6, 15038, Pitch_bend_c, 5, 8256
6, 15039, Pitch_bend_c, 5, 8960
6, 15040, Pitch_bend_c, 5, 9696
6, 15042, Pitch_bend_c, 5, 10240
6, 15043, Pitch_bend_c, 5, 10624
6, 15045, Pitch_bend_c, 5, 10464
6, 15046, Pitch_bend_c, 5, 9888
6, 15047, Pitch_bend_c, 5, 7680
6, 15053, Pitch_bend_c, 5, 7648
6, 15055, Pitch_bend_c, 5, 7776
6, 15056, Pitch_bend_c, 5, 7936
6, 15057, Pitch_bend_c, 5, 8096
6, 15059, Pitch_bend_c, 5, 8192
6, 15061, Note_on_c, 5, 70, 0
6, 15072, Note_on_c, 5, 67, 43
6, 15072, Pitch_bend_c, 5, 8288
6, 15075, Pitch_bend_c, 5, 8320
6, 15076, Pitch_bend_c, 5, 8384
6, 15078, Pitch_bend_c, 5, 8416
6, 15079, Pitch_bend_c, 5, 8448
6, 15080, Pitch_bend_c, 5, 8416
6, 15083, Pitch_bend_c, 5, 8384
6, 15085, Pitch_bend_c, 5, 8352
6, 15087, Pitch_bend_c, 5, 8192
6, 15087, Note_on_c, 5, 70, 88
6, 15088, Note_on_c, 5, 67, 0
6, 15088, Pitch_bend_c, 5, 8096
6, 15089, Pitch_bend_c, 5, 8192
6, 15092, Pitch_bend_c, 5, 8160
6, 15093, Pitch_bend_c, 5, 8192
6, 15097, Pitch_bend_c, 5, 8224
6, 15102, Pitch_bend_c, 5, 8416
6, 15103, Note_on_c, 5, 70, 0
6, 15103, Pitch_bend_c, 5, 8640
6, 15110, Note_on_c, 5, 72, 87
6, 15110, Pitch_bend_c, 5, 8448
6, 15112, Pitch_bend_c, 5, 8416
6, 15114, Pitch_bend_c, 5, 8352
6, 15116, Pitch_bend_c, 5, 8320
6, 15118, Pitch_bend_c, 5, 8288
6, 15119, Pitch_bend_c, 5, 8320
6, 15121, Pitch_bend_c, 5, 8512
6, 15122, Pitch_bend_c, 5, 8864
6, 15124, Pitch_bend_c, 5, 9312
6, 15125, Pitch_bend_c, 5, 9824
6, 15126, Pitch_bend_c, 5, 10240
6, 15128, Pitch_bend_c, 5, 10496
6, 15129, Pitch_bend_c, 5, 10656
6, 15130, Pitch_bend_c, 5, 10688
6, 15132, Pitch_bend_c, 5, 10656
6, 15133, Note_on_c, 5, 72, 0
6, 15143, Note_on_c, 5, 72, 63
6, 15143, Pitch_bend_c, 5, 8192
6, 15144, Pitch_bend_c, 5, 8096
6, 15145, Pitch_bend_c, 5, 8128
6, 15148, Pitch_bend_c, 5, 8160
6, 15149, Pitch_bend_c, 5, 8192
6, 15150, Pitch_bend_c, 5, 8256
6, 15152, Pitch_bend_c, 5, 8448
6, 15153, Pitch_bend_c, 5, 8640
6, 15155, Pitch_bend_c, 5, 8832
6, 15156, Pitch_bend_c, 5, 8992
6, 15158, Pitch_bend_c, 5, 9088
6, 15159, Pitch_bend_c, 5, 9120
6, 15160, Pitch_bend_c, 5, 9152
6, 15163, Pitch_bend_c, 5, 9216
6, 15169, Pitch_bend_c, 5, 9248
6, 15170, Pitch_bend_c, 5, 9280
6, 15172, Pitch_bend_c, 5, 9344
6, 15173, Pitch_bend_c, 5, 9472
6, 15174, Pitch_bend_c, 5, 9632
6, 15176, Pitch_bend_c, 5, 9856
6, 15177, Pitch_bend_c, 5, 10048
6, 15178, Pitch_bend_c, 5, 10240
6, 15180, Pitch_bend_c, 5, 10400
6, 15181, Pitch_bend_c, 5, 10464
6, 15183, Pitch_bend_c, 5, 10496
6, 15185, Note_on_c, 5, 72, 0
6, 15189, Note_on_c, 5, 75, 86
6, 15189, Pitch_bend_c, 5, 7936
6, 15190, Pitch_bend_c, 5, 8000
6, 15191, Pitch_bend_c, 5, 8032
6, 15193, Pitch_bend_c, 5, 8000
6, 15194, Pitch_bend_c, 5, 7936
6, 15196, Pitch_bend_c, 5, 7904
6, 15198, Pitch_bend_c, 5, 7936
6, 15204, Pitch_bend_c, 5, 7904
6, 15205, Note_on_c, 5, 75, 0
6, 15205, Pitch_bend_c, 5, 8000
6, 15208, Note_on_c, 5, 77, 92
6, 15208, Pitch_bend_c, 5, 8928
6, 15209, Pitch_bend_c, 5, 8832
6, 15211, Pitch_bend_c, 5, 8896
6, 15213, Pitch_bend_c, 5, 8832
6, 15215, Pitch_bend_c, 5, 8736
6, 15216, Pitch_bend_c, 5, 8672
6, 15218, Pitch_bend_c, 5, 8640
6, 15219, Pitch_bend_c, 5, 8576
6, 15220, Pitch_bend_c, 5, 8544
6, 15221, Pitch_bend_c, 5, 8736
6, 15222, Note_on_c, 5, 77, 0
6, 15228, Pitch_bend_c, 5, 8192
6, 15229, Note_on_c, 5, 72, 89
6, 15229, Pitch_bend_c, 5, 8256
6, 15231, Pitch_bend_c, 5, 8288
6, 15233, Pitch_bend_c, 5, 8224
6, 15236, Pitch_bend_c, 5, 8320
6, 15237, Pitch_bend_c, 5, 8640
6, 15239, Pitch_bend_c, 5, 9216
6, 15240, Pitch_bend_c, 5, 9952
6, 15241, Pitch_bend_c, 5, 10656
6, 15243, Pitch_bend_c, 5, 11104
6, 15244, Pitch_bend_c, 5, 11296
6, 15245, Pitch_bend_c, 5, 11136
6, 15247, Pitch_bend_c, 5, 10944
6, 15248, Note_on_c, 5, 72, 0
6, 15257, Note_on_c, 5, 70, 72
6, 15257, Pitch_bend_c, 5, 8128
6, 15260, Pitch_bend_c, 5, 8160
6, 15262, Pitch_bend_c, 5, 8192
6, 15263, Pitch_bend_c, 5, 8224
6, 15266, Pitch_bend_c, 5, 8192
6, 15267, Pitch_bend_c, 5, 8128
6, 15268, Pitch_bend_c, 5, 8192
6, 15270, Pitch_bend_c, 5, 8672
6, 15271, Pitch_bend_c, 5, 9440
6, 15272, Pitch_bend_c, 5, 10112
6, 15274, Pitch_bend_c, 5, 10400
6, 15275, Pitch_bend_c, 5, 10048
6, 15277, Pitch_bend_c, 5, 9344
6, 15278, Pitch_bend_c, 5, 8576
6, 15280, Pitch_bend_c, 5, 8096
6, 15281, Pitch_bend_c, 5, 7904
6, 15283, Pitch_bend_c, 5, 7968
6, 15284, Pitch_bend_c, 5, 8192
6, 15285, Pitch_bend_c, 5, 8640
6, 15287, Pitch_bend_c, 5, 9088
6, 15288, Pitch_bend_c, 5, 9472
6, 15289, Pitch_bend_c, 5, 9664
6, 15291, Pitch_bend_c, 5, 9632
6, 15293, Pitch_bend_c, 5, 9568
6, 15294, Note_on_c, 5, 70, 0
6, 15294, Pitch_bend_c, 5, 9472
6, 15297, Note_on_c, 5, 67, 52
6, 15297, Pitch_bend_c, 5, 8448
6, 15298, Pitch_bend_c, 5, 8480
6, 15300, Pitch_bend_c, 5, 8544
6, 15301, Pitch_bend_c, 5, 8576
6, 15303, Pitch_bend_c, 5, 8608
6, 15307, Pitch_bend_c, 5, 8576
6, 15308, Pitch_bend_c, 5, 8544
6, 15310, Pitch_bend_c, 5, 8512
6, 15311, Note_on_c, 5, 67, 0
6, 15311, Pitch_bend_c, 5, 8608
6, 15314, Pitch_bend_c, 5, 8192
6, 15315, Note_on_c, 5, 70, 85
6, 15315, Pitch_bend_c, 5, 8000
6, 15316, Pitch_bend_c, 5, 7936
6, 15318, Pitch_bend_c, 5, 7968
6, 15319, Pitch_bend_c, 5, 8000
6, 15320, Pitch_bend_c, 5, 8032
6, 15322, Pitch_bend_c, 5, 8064
6, 15323, Pitch_bend_c, 5, 8096
6, 15325, Pitch_bend_c, 5, 8128
6, 15326, Pitch_bend_c, 5, 8160
6, 15327, Pitch_bend_c, 5, 8192
6, 15329, Pitch_bend_c, 5, 8224
6, 15330, Note_on_c, 5, 70, 0
6, 15342, Note_on_c, 5, 73, 77
6, 15342, Pitch_bend_c, 5, 8448
6, 15344, Pitch_bend_c, 5, 8416
6, 15345, Pitch_bend_c, 5, 8352
6, 15348, Pitch_bend_c, 5, 8288
6, 15349, Pitch_bend_c, 5, 8256
6, 15350, Pitch_bend_c, 5, 8288
6, 15352, Pitch_bend_c, 5, 8384
6, 15353, Pitch_bend_c, 5, 8512
6, 15355, Pitch_bend_c, 5, 8704
6, 15356, Pitch_bend_c, 5, 8928
6, 15357, Pitch_bend_c, 5, 9184
6, 15359, Pitch_bend_c, 5, 9440
6, 15360, Pitch_bend_c, 5, 9632
6, 15362, Pitch_bend_c, 5, 9952
6, 15363, Pitch_bend_c, 5, 10368
6, 15364, Pitch_bend_c, 5, 10880
6, 15366, Pitch_bend_c, 5, 11392
6, 15367, Pitch_bend_c, 5, 11808
6, 15369, Pitch_bend_c, 5, 12064
6, 15370, Note_on_c, 5, 73, 0
6, 15370, Pitch_bend_c, 5, 12160
6, 15380, Note_on_c, 5, 73, 73
6, 15380, Pitch_bend_c, 5, 8256
6, 15382, Pitch_bend_c, 5, 8288
6, 15384, Pitch_bend_c, 5, 8384
6, 15386, Pitch_bend_c, 5, 8448
6, 15387, Pitch_bend_c, 5, 8576
6, 15389, Pitch_bend_c, 5, 8672
6, 15390, Pitch_bend_c, 5, 8736
6, 15392, Pitch_bend_c, 5, 8768
6, 15393, Pitch_bend_c, 5, 8864
6, 15395, Pitch_bend_c, 5, 8896
6, 15396, Pitch_bend_c, 5, 9024
6, 15397, Pitch_bend_c, 5, 9120
6, 15399, Pitch_bend_c, 5, 9184
6, 15400, Pitch_bend_c, 5, 9280
6, 15402, Pitch_bend_c, 5, 9312
6, 15403, Pitch_bend_c, 5, 9344
6, 15406, Pitch_bend_c, 5, 9376
6, 15407, Pitch_bend_c, 5, 9440
6, 15408, Pitch_bend_c, 5, 9472
6, 15411, Pitch_bend_c, 5, 9504
6, 15413, Pitch_bend_c, 5, 9536
6, 15414, Pitch_bend_c, 5, 9632
6, 15415, Pitch_bend_c, 5, 9760
6, 15417, Pitch_bend_c, 5, 9920
6, 15418, Pitch_bend_c, 5, 10144
6, 15420, Pitch_bend_c, 5, 10528
6, 15421, Pitch_bend_c, 5, 10976
6, 15422, Pitch_bend_c, 5, 11392
6, 15424, Pitch_bend_c, 5, 11808
6, 15426, Pitch_bend_c, 5, 12064
6, 15427, Pitch_bend_c, 5, 12160
6, 15428, Pitch_bend_c, 5, 12128
6, 15430, Pitch_bend_c, 5, 11808
6, 15431, Pitch_bend_c, 5, 12064
6, 15432, Note_on_c, 5, 73, 0
6, 15451, Pitch_bend_c, 5, 8192
6, 15452, Pitch_bend_c, 5, 8384
6, 15455, Pitch_bend_c, 5, 8416
6, 15456, Note_on_c, 5, 76, 82
6, 15456, Pitch_bend_c, 5, 8480
6, 15458, Pitch_bend_c, 5, 8576
6, 15459, Pitch_bend_c, 5, 8672
6, 15460, Pitch_bend_c, 5, 8800
6, 15462, Pitch_bend_c, 5, 9056
6, 15463, Pitch_bend_c, 5, 9440
6, 15465, Pitch_bend_c, 5, 9952
6, 15466, Pitch_bend_c, 5, 10592
6, 15467, Pitch_bend_c, 5, 11168
6, 15469, Pitch_bend_c, 5, 11648
6, 15470, Pitch_bend_c, 5, 11872
6, 15471, Pitch_bend_c, 5, 11968
6, 15473, Pitch_bend_c, 5, 12032
6, 15480, Pitch_bend_c, 5, 11968
6, 15486, Pitch_bend_c, 5, 11936
6, 15505, Pitch_bend_c, 5, 11968
6, 15506, Pitch_bend_c, 5, 12064
6, 15508, Pitch_bend_c, 5, 12160
6, 15509, Pitch_bend_c, 5, 12320
6, 15510, Pitch_bend_c, 5, 12384
6, 15512, Pitch_bend_c, 5, 12416
6, 15513, Pitch_bend_c, 5, 12320
6, 15515, Pitch_bend_c, 5, 12224
6, 15516, Pitch_bend_c, 5, 12032
6, 15518, Pitch_bend_c, 5, 11872
6, 15519, Pitch_bend_c, 5, 11744
6, 15520, Pitch_bend_c, 5, 11680
6, 15523, Pitch_bend_c, 5, 11936
6, 15525, Pitch_bend_c, 5, 12384
6, 15526, Pitch_bend_c, 5, 12992
6, 15528, Pitch_bend_c, 5, 13536
6, 15529, Pitch_bend_c, 5, 13888
6, 15530, Pitch_bend_c, 5, 14048
6, 15532, Pitch_bend_c, 5, 13952
6, 15533, Pitch_bend_c, 5, 13344
6, 15535, Pitch_bend_c, 5, 10720
6, 15538, Pitch_bend_c, 5, 10688
6, 15540, Pitch_bend_c, 5, 10784
6, 15541, Pitch_bend_c, 5, 11264
6, 15543, Pitch_bend_c, 5, 11936
6, 15544, Pitch_bend_c, 5, 12736
6, 15546, Pitch_bend_c, 5, 13376
6, 15547, Pitch_bend_c, 5, 13632
6, 15548, Pitch_bend_c, 5, 13504
6, 15550, Pitch_bend_c, 5, 11008
6, 15551, Pitch_bend_c, 5, 13376
6, 15555, Note_on_c, 5, 76, 0
6, 15581, Pitch_bend_c, 5, 8192
6, 15582, Note_on_c, 5, 65, 91
6, 15582, Pitch_bend_c, 5, 8160
6, 15583, Pitch_bend_c, 5, 8544
6, 15584, Pitch_bend_c, 5, 8608
6, 15591, Pitch_bend_c, 5, 8576
6, 15593, Pitch_bend_c, 5, 8832
6, 15594, Pitch_bend_c, 5, 9088
6, 15595, Note_on_c, 5, 65, 0
6, 15596, Pitch_bend_c, 5, 8192
6, 15596, Note_on_c, 5, 68, 79
6, 15597, Pitch_bend_c, 5, 8512
6, 15602, Pitch_bend_c, 5, 8544
6, 15603, Pitch_bend_c, 5, 8576
6, 15605, Pitch_bend_c, 5, 8608
6, 15606, Pitch_bend_c, 5, 8480
6, 15607, Pitch_bend_c, 5, 8224
6, 15608, Note_on_c, 5, 68, 0
6, 15608, Pitch_bend_c, 5, 8544
6, 15613, Note_on_c, 5, 72, 84
6, 15613, Pitch_bend_c, 5, 8128
6, 15622, Pitch_bend_c, 5, 8032
6, 15623, Note_on_c, 5, 72, 0
6, 15626, Pitch_bend_c, 5, 8192
6, 15627, Note_on_c, 5, 70, 89
6, 15628, Pitch_bend_c, 5, 7968
6, 15630, Pitch_bend_c, 5, 7936
6, 15632, Pitch_bend_c, 5, 16032
6, 15633, Pitch_bend_c, 5, 16064
6, 15634, Pitch_bend_c, 5, 16160
6, 15636, Pitch_bend_c, 5, 16352
6, 15639, Pitch_bend_c, 5, 8096
6, 15640, Pitch_bend_c, 5, 8128
6, 15641, Pitch_bend_c, 5, 8160
6, 15645, Pitch_bend_c, 5, 8128
6, 15651, Pitch_bend_c, 5, 8096
6, 15652, Pitch_bend_c, 5, 8064
6, 15655, Note_on_c, 5, 70, 0
6, 15655, Pitch_bend_c, 5, 8192
6, 15656, Note_on_c, 5, 67, 69
6, 15668, Note_on_c, 5, 67, 0
6, 15668, Note_on_c, 5, 70, 91
6, 15668, Pitch_bend_c, 5, 8032
6, 15669, Pitch_bend_c, 5, 8192
6, 15671, Pitch_bend_c, 5, 8128
6, 15673, Pitch_bend_c, 5, 8064
6, 15674, Pitch_bend_c, 5, 8000
6, 15677, Pitch_bend_c, 5, 8032
6, 15678, Pitch_bend_c, 5, 8000
6, 15680, Pitch_bend_c, 5, 8032
6, 15681, Pitch_bend_c, 5, 8000
6, 15684, Pitch_bend_c, 5, 8032
6, 15685, Pitch_bend_c, 5, 8000
6, 15686, Note_on_c, 5, 70, 0
6, 15688, Pitch_bend_c, 5, 8192
6, 15689, Note_on_c, 5, 70, 91
6, 15690, Pitch_bend_c, 5, 8256
6, 15693, Pitch_bend_c, 5, 8224
6, 15694, Pitch_bend_c, 5, 8160
6, 15696, Pitch_bend_c, 5, 8064
6, 15697, Pitch_bend_c, 5, 8032
6, 15698, Pitch_bend_c, 5, 8000
6, 15701, Pitch_bend_c, 5, 8032
6, 15703, Pitch_bend_c, 5, 8000
6, 15704, Pitch_bend_c, 5, 7968
6, 15705, Pitch_bend_c, 5, 7936
6, 15708, Pitch_bend_c, 5, 7904
6, 15711, Pitch_bend_c, 5, 7872
6, 15712, Pitch_bend_c, 5, 8000
6, 15713, Note_on_c, 5, 70, 0
6, 15728, Note_on_c, 5, 73, 95
6, 15728, Pitch_bend_c, 5, 8224
6, 15732, Pitch_bend_c, 5, 8192
6, 15733, Pitch_bend_c, 5, 8032
6, 15734, Pitch_bend_c, 5, 7968
6, 15736, Pitch_bend_c, 5, 7840
6, 15737, Pitch_bend_c, 5, 7744
6, 15738, Pitch_bend_c, 5, 7776
6, 15740, Pitch_bend_c, 5, 7840
6, 15741, Pitch_bend_c, 5, 7936
6, 15742, Pitch_bend_c, 5, 8032
6, 15744, Pitch_bend_c, 5, 8064
6, 15749, Pitch_bend_c, 5, 8128
6, 15751, Pitch_bend_c, 5, 8064
6, 15754, Pitch_bend_c, 5, 8128
6, 15756, Pitch_bend_c, 5, 8160
6, 15759, Pitch_bend_c, 5, 8192
6, 15764, Pitch_bend_c, 5, 8224
6, 15766, Pitch_bend_c, 5, 8256
6, 15768, Pitch_bend_c, 5, 8288
6, 15769, Pitch_bend_c, 5, 8384
6, 15771, Pitch_bend_c, 5, 8416
6, 15772, Pitch_bend_c, 5, 8448
6, 15773, Pitch_bend_c, 5, 8512
6, 15776, Pitch_bend_c, 5, 8544
6, 15778, Pitch_bend_c, 5, 8576
6, 15779, Pitch_bend_c, 5, 8608
6, 15780, Pitch_bend_c, 5, 8704
6, 15782, Pitch_bend_c, 5, 8832
6, 15783, Pitch_bend_c, 5, 8992
6, 15785, Pitch_bend_c, 5, 9184
6, 15786, Pitch_bend_c, 5, 9600
6, 15788, Pitch_bend_c, 5, 10112
6, 15789, Pitch_bend_c, 5, 10752
6, 15790, Pitch_bend_c, 5, 11456
6, 15792, Pitch_bend_c, 5, 12000
6, 15793, Pitch_bend_c, 5, 12416
6, 15795, Pitch_bend_c, 5, 12640
6, 15796, Pitch_bend_c, 5, 12608
6, 15797, Note_on_c, 5, 73, 0
6, 15837, Pitch_bend_c, 5, 8192
6, 15838, Note_on_c, 5, 77, 93
6, 15838, Pitch_bend_c, 5, 8096
6, 15839, Pitch_bend_c, 5, 7776
6, 15840, Pitch_bend_c, 5, 7680
6, 15844, Pitch_bend_c, 5, 7776
6, 15845, Pitch_bend_c, 5, 8288
6, 15847, Pitch_bend_c, 5, 10816
6, 15848, Pitch_bend_c, 5, 11072
6, 15849, Pitch_bend_c, 5, 11328
6, 15851, Pitch_bend_c, 5, 11424
6, 15852, Note_on_c, 5, 77, 0
6, 15862, Note_on_c, 5, 77, 93
6, 15862, Pitch_bend_c, 5, 8640
6, 15863, Pitch_bend_c, 5, 8576
6, 15865, Pitch_bend_c, 5, 8544
6, 15868, Pitch_bend_c, 5, 8576
6, 15874, Note_on_c, 5, 77, 0
6, 15878, Note_on_c, 5, 70, 88
6, 15878, Pitch_bend_c, 5, 8480
6, 15879, Pitch_bend_c, 5, 8448
6, 15881, Pitch_bend_c, 5, 8480
6, 15883, Pitch_bend_c, 5, 8512
6, 15885, Pitch_bend_c, 5, 8448
6, 15887, Pitch_bend_c, 5, 8416
6, 15888, Pitch_bend_c, 5, 8384
6, 15890, Pitch_bend_c, 5, 8320
6, 15891, Pitch_bend_c, 5, 8288
6, 15893, Pitch_bend_c, 5, 8256
6, 15899, Pitch_bend_c, 5, 8224
6, 15901, Pitch_bend_c, 5, 8256
6, 15913, Note_on_c, 5, 70, 0
6, 15913, Pitch_bend_c, 5, 8320
6, 15916, Pitch_bend_c, 5, 8192
6, 15916, Note_on_c, 5, 73, 89
6, 15917, Pitch_bend_c, 5, 8000
6, 15925, Pitch_bend_c, 5, 8032
6, 15926, Pitch_bend_c, 5, 8064
6, 15929, Pitch_bend_c, 5, 8128
6, 15930, Pitch_bend_c, 5, 8064
6, 15933, Pitch_bend_c, 5, 8032
6, 15934, Pitch_bend_c, 5, 8000
6, 15936, Pitch_bend_c, 5, 7968
6, 15938, Pitch_bend_c, 5, 8000
6, 15940, Pitch_bend_c, 5, 8064
6, 15941, Pitch_bend_c, 5, 8128
6, 15943, Pitch_bend_c, 5, 8192
6, 15944, Pitch_bend_c, 5, 8224
6, 15945, Pitch_bend_c, 5, 8256
6, 15947, Pitch_bend_c, 5, 8288
6, 15950, Pitch_bend_c, 5, 8352
6, 15954, Pitch_bend_c, 5, 8384
6, 15956, Pitch_bend_c, 5, 8416
6, 15958, Pitch_bend_c, 5, 8448
6, 15960, Pitch_bend_c, 5, 8512
6, 15961, Pitch_bend_c, 5, 8576
6, 15963, Pitch_bend_c, 5, 8672
6, 15964, Pitch_bend_c, 5, 8768
6, 15965, Pitch_bend_c, 5, 8928
6, 15966, Pitch_bend_c, 5, 9152
6, 15968, Pitch_bend_c, 5, 9376
6, 15970, Pitch_bend_c, 5, 9664
6, 15971, Pitch_bend_c, 5, 10048
6, 15972, Pitch_bend_c, 5, 10400
6, 15974, Pitch_bend_c, 5, 10720
6, 15975, Pitch_bend_c, 5, 10976
6, 15976, Pitch_bend_c, 5, 11072
6, 15979, Note_on_c, 5, 73, 0
6, 16088, Pitch_bend_c, 5, 8192
6, 16089, Note_on_c, 5, 70, 93
6, 16089, Pitch_bend_c, 5, 8512
6, 16090, Pitch_bend_c, 5, 8352
6, 16091, Pitch_bend_c, 5, 8224
6, 16092, Pitch_bend_c, 5, 8192
6, 16094, Pitch_bend_c, 5, 8128
6, 16096, Pitch_bend_c, 5, 8160
6, 16097, Pitch_bend_c, 5, 8192
6, 16098, Note_on_c, 5, 70, 0
6, 16123, Note_on_c, 5, 80, 117
6, 16124, Pitch_bend_c, 5, 4896
6, 16126, Pitch_bend_c, 5, 4768
6, 16127, Pitch_bend_c, 5, 4672
6, 16128, Pitch_bend_c, 5, 4704
6, 16129, Pitch_bend_c, 5, 4928
6, 16130, Pitch_bend_c, 5, 5216
6, 16131, Pitch_bend_c, 5, 5696
6, 16132, Pitch_bend_c, 5, 6368
6, 16133, Pitch_bend_c, 5, 7008
6, 16135, Pitch_bend_c, 5, 7648
6, 16136, Pitch_bend_c, 5, 8096
6, 16137, Pitch_bend_c, 5, 8416
6, 16139, Pitch_bend_c, 5, 8736
6, 16140, Pitch_bend_c, 5, 8896
6, 16141, Pitch_bend_c, 5, 8960
6, 16142, Pitch_bend_c, 5, 9088
6, 16143, Pitch_bend_c, 5, 9152
6, 16144, Pitch_bend_c, 5, 9216
6, 16145, Pitch_bend_c, 5, 9280
6, 16156, Pitch_bend_c, 5, 9216
6, 16159, Pitch_bend_c, 5, 9152
6, 16161, Pitch_bend_c, 5, 9216
6, 16168, Pitch_bend_c, 5, 9152
6, 16169, Pitch_bend_c, 5, 9088
6, 16170, Pitch_bend_c, 5, 9024
6, 16172, Pitch_bend_c, 5, 8960
6, 16173, Pitch_bend_c, 5, 8896
6, 16175, Pitch_bend_c, 5, 8832
6, 16176, Pitch_bend_c, 5, 8768
6, 16179, Pitch_bend_c, 5, 8736
6, 16180, Pitch_bend_c, 5, 8672
6, 16181, Pitch_bend_c, 5, 8608
6, 16182, Pitch_bend_c, 5, 8544
6, 16183, Pitch_bend_c, 5, 8416
6, 16184, Pitch_bend_c, 5, 8288
6, 16185, Pitch_bend_c, 5, 8192
6, 16187, Pitch_bend_c, 5, 8032
6, 16188, Pitch_bend_c, 5, 7808
6, 16189, Pitch_bend_c, 5, 7392
6, 16190, Pitch_bend_c, 5, 7008
6, 16191, Pitch_bend_c, 5, 6560
6, 16192, Pitch_bend_c, 5, 6144
6, 16193, Pitch_bend_c, 5, 5792
6, 16195, Pitch_bend_c, 5, 5504
6, 16196, Pitch_bend_c, 5, 5216
6, 16197, Pitch_bend_c, 5, 4992
6, 16198, Pitch_bend_c, 5, 4832
6, 16199, Pitch_bend_c, 5, 4704
6, 16201, Pitch_bend_c, 5, 4672
6, 16208, Pitch_bend_c, 5, 4608
6, 16210, Note_on_c, 5, 80, 0
6, 16210, Pitch_bend_c, 5, 4832
6, 16214, Pitch_bend_c, 5, 8192
6, 16215, Note_on_c, 5, 77, 93
6, 16215, Pitch_bend_c, 5, 9088
6, 16216, Pitch_bend_c, 5, 8992
6, 16218, Pitch_bend_c, 5, 9056
6, 16220, Pitch_bend_c, 5, 8992
6, 16221, Pitch_bend_c, 5, 8928
6, 16223, Pitch_bend_c, 5, 8896
6, 16226, Pitch_bend_c, 5, 8928
6, 16227, Pitch_bend_c, 5, 8992
6, 16230, Note_on_c, 5, 77, 0
6, 16230, Pitch_bend_c, 5, 9056
6, 16235, Pitch_bend_c, 5, 8192
6, 16236, Note_on_c, 5, 75, 93
6, 16236, Pitch_bend_c, 5, 8864
6, 16239, Pitch_bend_c, 5, 8800
6, 16241, Pitch_bend_c, 5, 8768
6, 16242, Pitch_bend_c, 5, 8672
6, 16243, Pitch_bend_c, 5, 8640
6, 16244, Pitch_bend_c, 5, 8576
6, 16245, Pitch_bend_c, 5, 8544
6, 16249, Note_on_c, 5, 75, 0
6, 16249, Pitch_bend_c, 5, 8672
6, 16255, Note_on_c, 5, 76, 93
6, 16255, Pitch_bend_c, 5, 8192
6, 16256, Pitch_bend_c, 5, 12896
6, 16257, Pitch_bend_c, 5, 12832
6, 16259, Pitch_bend_c, 5, 12896
6, 16262, Pitch_bend_c, 5, 12768
6, 16263, Pitch_bend_c, 5, 12672
6, 16264, Pitch_bend_c, 5, 12480
6, 16266, Pitch_bend_c, 5, 12288
6, 16267, Pitch_bend_c, 5, 12064
6, 16268, Pitch_bend_c, 5, 11936
6, 16269, Pitch_bend_c, 5, 11776
6, 16270, Pitch_bend_c, 5, 11744
6, 16271, Pitch_bend_c, 5, 11680
6, 16273, Note_on_c, 5, 76, 0
6, 16273, Pitch_bend_c, 5, 12064
6, 16275, Pitch_bend_c, 5, 8192
6, 16276, Note_on_c, 5, 73, 96
6, 16276, Pitch_bend_c, 5, 8160
6, 16277, Pitch_bend_c, 5, 8032
6, 16278, Pitch_bend_c, 5, 8064
6, 16279, Pitch_bend_c, 5, 8128
6, 16281, Pitch_bend_c, 5, 8064
6, 16283, Pitch_bend_c, 5, 8000
6, 16285, Pitch_bend_c, 5, 8064
6, 16287, Pitch_bend_c, 5, 8224
6, 16288, Pitch_bend_c, 5, 8416
6, 16289, Pitch_bend_c, 5, 8576
6, 16290, Pitch_bend_c, 5, 8704
6, 16291, Pitch_bend_c, 5, 8832
6, 16292, Pitch_bend_c, 5, 8896
6, 16293, Pitch_bend_c, 5, 8992
6, 16294, Pitch_bend_c, 5, 9120
6, 16296, Pitch_bend_c, 5, 9184
6, 16297, Pitch_bend_c, 5, 9280
6, 16298, Pitch_bend_c, 5, 9344
6, 16299, Pitch_bend_c, 5, 9472
6, 16300, Pitch_bend_c, 5, 9632
6, 16301, Pitch_bend_c, 5, 9824
6, 16302, Pitch_bend_c, 5, 10080
6, 16304, Pitch_bend_c, 5, 10304
6, 16305, Pitch_bend_c, 5, 10592
6, 16306, Pitch_bend_c, 5, 10880
6, 16307, Pitch_bend_c, 5, 11136
6, 16308, Pitch_bend_c, 5, 11296
6, 16309, Pitch_bend_c, 5, 11392
6, 16310, Pitch_bend_c, 5, 11488
6, 16313, Pitch_bend_c, 5, 11456
6, 16314, Pitch_bend_c, 5, 11296
6, 16315, Pitch_bend_c, 5, 10752
6, 16316, Pitch_bend_c, 5, 10112
6, 16317, Note_on_c, 5, 73, 0
6, 16317, Note_on_c, 5, 75, 91
6, 16317, Pitch_bend_c, 5, 8992
6, 16319, Pitch_bend_c, 5, 8896
6, 16320, Pitch_bend_c, 5, 8576
6, 16322, Pitch_bend_c, 5, 8448
6, 16323, Pitch_bend_c, 5, 8256
6, 16324, Pitch_bend_c, 5, 8224
6, 16325, Pitch_bend_c, 5, 8448
6, 16326, Pitch_bend_c, 5, 8480
6, 16327, Pitch_bend_c, 5, 8448
6, 16329, Pitch_bend_c, 5, 8640
6, 16330, Pitch_bend_c, 5, 8768
6, 16331, Note_on_c, 5, 75, 0
6, 16331, Pitch_bend_c, 5, 8960
6, 16333, Pitch_bend_c, 5, 8192
6, 16334, Note_on_c, 5, 77, 92
6, 16334, Pitch_bend_c, 5, 9184
6, 16337, Pitch_bend_c, 5, 9088
6, 16340, Pitch_bend_c, 5, 9056
6, 16341, Pitch_bend_c, 5, 8992
6, 16342, Pitch_bend_c, 5, 8896
6, 16344, Note_on_c, 5, 77, 0
6, 16344, Pitch_bend_c, 5, 9088
6, 16353, Pitch_bend_c, 5, 8192
6, 16355, Note_on_c, 5, 72, 91
6, 16355, Pitch_bend_c, 5, 8416
6, 16361, Pitch_bend_c, 5, 8352
6, 16362, Pitch_bend_c, 5, 8288
6, 16364, Pitch_bend_c, 5, 8224
6, 16367, Pitch_bend_c, 5, 8544
6, 16369, Pitch_bend_c, 5, 12352
6, 16373, Pitch_bend_c, 5, 12320
6, 16375, Pitch_bend_c, 5, 12288
6, 16376, Pitch_bend_c, 5, 8000
6, 16378, Pitch_bend_c, 5, 8096
6, 16379, Pitch_bend_c, 5, 8160
6, 16380, Pitch_bend_c, 5, 8192
6, 16381, Note_on_c, 5, 72, 0
6, 16382, Note_on_c, 5, 69, 67
6, 16382, Pitch_bend_c, 5, 12064
6, 16384, Pitch_bend_c, 5, 12096
6, 16387, Pitch_bend_c, 5, 12128
6, 16388, Pitch_bend_c, 5, 12160
6, 16391, Note_on_c, 5, 69, 0
6, 16394, Pitch_bend_c, 5, 8192
6, 16395, Note_on_c, 5, 72, 91
6, 16395, Pitch_bend_c, 5, 8160
6, 16396, Pitch_bend_c, 5, 8128
6, 16397, Pitch_bend_c, 5, 8096
6, 16398, Pitch_bend_c, 5, 7968
6, 16399, Pitch_bend_c, 5, 7904
6, 16400, Pitch_bend_c, 5, 7840
6, 16405, Pitch_bend_c, 5, 7808
6, 16407, Pitch_bend_c, 5, 7744
6, 16408, Pitch_bend_c, 5, 7712
6, 16409, Pitch_bend_c, 5, 7744
6, 16411, Note_on_c, 5, 72, 0
6, 16411, Pitch_bend_c, 5, 7840
6, 16413, Pitch_bend_c, 5, 8192
6, 16414, Note_on_c, 5, 66, 74
6, 16414, Pitch_bend_c, 5, 11328
6, 16415, Pitch_bend_c, 5, 12288
6, 16420, Pitch_bend_c, 5, 12192
6, 16421, Note_on_c, 5, 66, 0
6, 16421, Pitch_bend_c, 5, 12288
6, 16430, Note_on_c, 5, 72, 91
6, 16430, Pitch_bend_c, 5, 8192
6, 16431, Pitch_bend_c, 5, 8640
6, 16433, Pitch_bend_c, 5, 8608
6, 16434, Pitch_bend_c, 5, 8544
6, 16436, Pitch_bend_c, 5, 8480
6, 16439, Pitch_bend_c, 5, 8448
6, 16441, Pitch_bend_c, 5, 8480
6, 16442, Pitch_bend_c, 5, 8608
6, 16443, Pitch_bend_c, 5, 8736
6, 16444, Pitch_bend_c, 5, 8928
6, 16445, Pitch_bend_c, 5, 9216
6, 16446, Pitch_bend_c, 5, 9440
6, 16447, Pitch_bend_c, 5, 9728
6, 16449, Pitch_bend_c, 5, 10080
6, 16450, Pitch_bend_c, 5, 10528
6, 16451, Pitch_bend_c, 5, 11104
6, 16452, Pitch_bend_c, 5, 11712
6, 16453, Pitch_bend_c, 5, 12288
6, 16454, Pitch_bend_c, 5, 12768
6, 16455, Pitch_bend_c, 5, 13088
6, 16456, Pitch_bend_c, 5, 13312
6, 16458, Pitch_bend_c, 5, 13440
6, 16459, Note_on_c, 5, 72, 0
6, 16459, Pitch_bend_c, 5, 8192
6, 16460, Note_on_c, 5, 77, 91
6, 16465, Note_on_c, 5, 77, 0
6, 16465, Pitch_bend_c, 5, 4768
6, 16474, Pitch_bend_c, 5, 8192
6, 16474, Note_on_c, 5, 70, 90
6, 16475, Pitch_bend_c, 5, 8512
6, 16477, Pitch_bend_c, 5, 8544
6, 16478, Pitch_bend_c, 5, 8512
6, 16480, Pitch_bend_c, 5, 8448
6, 16481, Pitch_bend_c, 5, 8480
6, 16482, Pitch_bend_c, 5, 8448
6, 16485, Pitch_bend_c, 5, 8416
6, 16486, Pitch_bend_c, 5, 8320
6, 16487, Pitch_bend_c, 5, 8256
6, 16488, Pitch_bend_c, 5, 8192
6, 16489, Pitch_bend_c, 5, 8160
6, 16490, Pitch_bend_c, 5, 8096
6, 16491, Pitch_bend_c, 5, 8064
6, 16495, Pitch_bend_c, 5, 8096
6, 16497, Pitch_bend_c, 5, 8064
6, 16501, Pitch_bend_c, 5, 8128
6, 16502, Pitch_bend_c, 5, 8192
6, 16503, Pitch_bend_c, 5, 8320
6, 16504, Pitch_bend_c, 5, 8448
6, 16505, Pitch_bend_c, 5, 8544
6, 16506, Pitch_bend_c, 5, 8576
6, 16507, Pitch_bend_c, 5, 8544
6, 16509, Pitch_bend_c, 5, 8512
6, 16510, Pitch_bend_c, 5, 8448
6, 16511, Pitch_bend_c, 5, 8192
6, 16511, Note_on_c, 5, 75, 90
6, 16518, Note_on_c, 5, 70, 0
6, 16519, Pitch_bend_c, 5, 8000
6, 16520, Note_on_c, 5, 75, 0
6, 16520, Pitch_bend_c, 5, 7616
6, 16536, Note_on_c, 5, 67, 58
6, 16536, Pitch_bend_c, 5, 8416
6, 16538, Pitch_bend_c, 5, 8448
6, 16540, Pitch_bend_c, 5, 8416
6, 16544, Pitch_bend_c, 5, 8384
6, 16548, Pitch_bend_c, 5, 8416
6, 16552, Pitch_bend_c, 5, 8384
6, 16553, Pitch_bend_c, 5, 8352
6, 16554, Pitch_bend_c, 5, 8320
6, 16555, Pitch_bend_c, 5, 8384
6, 16556, Pitch_bend_c, 5, 8544
6, 16557, Pitch_bend_c, 5, 8896
6, 16558, Pitch_bend_c, 5, 9344
6, 16559, Pitch_bend_c, 5, 9792
6, 16561, Pitch_bend_c, 5, 10080
6, 16562, Pitch_bend_c, 5, 10112
6, 16563, Pitch_bend_c, 5, 9856
6, 16564, Pitch_bend_c, 5, 9408
6, 16565, Pitch_bend_c, 5, 8928
6, 16566, Pitch_bend_c, 5, 8512
6, 16567, Pitch_bend_c, 5, 8320
6, 16568, Pitch_bend_c, 5, 8288
6, 16572, Pitch_bend_c, 5, 8448
6, 16573, Pitch_bend_c, 5, 8704
6, 16574, Pitch_bend_c, 5, 9024
6, 16576, Pitch_bend_c, 5, 9440
6, 16577, Pitch_bend_c, 5, 9664
6, 16578, Pitch_bend_c, 5, 9728
6, 16579, Pitch_bend_c, 5, 9536
6, 16580, Pitch_bend_c, 5, 9216
6, 16581, Pitch_bend_c, 5, 8800
6, 16582, Pitch_bend_c, 5, 8448
6, 16583, Pitch_bend_c, 5, 8192
6, 16587, Pitch_bend_c, 5, 8352
6, 16588, Pitch_bend_c, 5, 8736
6, 16589, Pitch_bend_c, 5, 9248
6, 16590, Pitch_bend_c, 5, 9792
6, 16592, Pitch_bend_c, 5, 10208
6, 16593, Pitch_bend_c, 5, 10304
6, 16594, Pitch_bend_c, 5, 10016
6, 16595, Pitch_bend_c, 5, 9440
6, 16596, Pitch_bend_c, 5, 8864
6, 16597, Pitch_bend_c, 5, 8448
6, 16599, Pitch_bend_c, 5, 8192
6, 16602, Pitch_bend_c, 5, 8288
6, 16603, Pitch_bend_c, 5, 8736
6, 16604, Pitch_bend_c, 5, 9344
6, 16605, Pitch_bend_c, 5, 9952
6, 16607, Pitch_bend_c, 5, 10240
6, 16608, Pitch_bend_c, 5, 9984
6, 16609, Pitch_bend_c, 5, 9408
6, 16610, Pitch_bend_c, 5, 8800
6, 16611, Pitch_bend_c, 5, 8128
6, 16612, Pitch_bend_c, 5, 7712
6, 16614, Pitch_bend_c, 5, 7456
6, 16615, Note_on_c, 5, 67, 0
6, 16615, Pitch_bend_c, 5, 8800
6, 16713, Note_on_c, 5, 63, 91
6, 16713, Pitch_bend_c, 5, 8832
6, 16716, Pitch_bend_c, 5, 8800
6, 16717, Pitch_bend_c, 5, 8736
6, 16719, Pitch_bend_c, 5, 8512
6, 16720, Pitch_bend_c, 5, 8448
6, 16721, Pitch_bend_c, 5, 8352
6, 16723, Pitch_bend_c, 5, 8256
6, 16724, Pitch_bend_c, 5, 8320
6, 16725, Pitch_bend_c, 5, 8256
6, 16727, Pitch_bend_c, 5, 8192
6, 16728, Note_on_c, 5, 67, 90
6, 16736, Note_on_c, 5, 63, 0
6, 16738, Pitch_bend_c, 5, 8096
6, 16740, Pitch_bend_c, 5, 8032
6, 16741, Pitch_bend_c, 5, 7840
6, 16742, Pitch_bend_c, 5, 7616
6, 16743, Note_on_c, 5, 67, 0
6, 16743, Note_on_c, 5, 70, 94
6, 16744, Pitch_bend_c, 5, 8064
6, 16747, Pitch_bend_c, 5, 8032
6, 16749, Pitch_bend_c, 5, 8064
6, 16750, Pitch_bend_c, 5, 8096
6, 16752, Pitch_bend_c, 5, 8064
6, 16753, Pitch_bend_c, 5, 8000
6, 16756, Note_on_c, 5, 70, 0
6, 16756, Pitch_bend_c, 5, 8032
6, 16758, Pitch_bend_c, 5, 8192
6, 16759, Note_on_c, 5, 73, 93
6, 16760, Pitch_bend_c, 5, 8416
6, 16761, Pitch_bend_c, 5, 8448
6, 16762, Pitch_bend_c, 5, 8416
6, 16763, Pitch_bend_c, 5, 8448
6, 16765, Pitch_bend_c, 5, 8192
6, 16766, Pitch_bend_c, 5, 8160
6, 16767, Pitch_bend_c, 5, 8128
6, 16769, Pitch_bend_c, 5, 8032
6, 16773, Pitch_bend_c, 5, 8064
6, 16776, Pitch_bend_c, 5, 8128
6, 16777, Pitch_bend_c, 5, 8064
6, 16778, Pitch_bend_c, 5, 8000
6, 16781, Pitch_bend_c, 5, 8032
6, 16783, Pitch_bend_c, 5, 8128
6, 16784, Pitch_bend_c, 5, 8608
6, 16785, Pitch_bend_c, 5, 11168
6, 16787, Pitch_bend_c, 5, 11488
6, 16788, Pitch_bend_c, 5, 11936
6, 16790, Pitch_bend_c, 5, 12480
6, 16791, Pitch_bend_c, 5, 13056
6, 16793, Pitch_bend_c, 5, 13312
6, 16794, Pitch_bend_c, 5, 13408
6, 16796, Pitch_bend_c, 5, 13152
6, 16797, Pitch_bend_c, 5, 10400
6, 16798, Pitch_bend_c, 5, 10080
6, 16800, Note_on_c, 5, 73, 0
6, 16800, Pitch_bend_c, 5, 9632
6, 16802, Note_on_c, 5, 74, 93
6, 16802, Pitch_bend_c, 5, 12576
6, 16803, Pitch_bend_c, 5, 12768
6, 16807, Pitch_bend_c, 5, 12736
6, 16808, Pitch_bend_c, 5, 12672
6, 16809, Pitch_bend_c, 5, 12640
6, 16811, Pitch_bend_c, 5, 12544
6, 16817, Pitch_bend_c, 5, 12768
6, 16818, Note_on_c, 5, 74, 0
6, 16819, Pitch_bend_c, 5, 8192
6, 16820, Note_on_c, 5, 75, 93
6, 16820, Pitch_bend_c, 5, 8576
6, 16827, Pitch_bend_c, 5, 8544
6, 16829, Pitch_bend_c, 5, 8576
6, 16833, Pitch_bend_c, 5, 8640
6, 16840, Pitch_bend_c, 5, 8576
6, 16842, Pitch_bend_c, 5, 8640
6, 16844, Pitch_bend_c, 5, 8672
6, 16847, Pitch_bend_c, 5, 8736
6, 16851, Pitch_bend_c, 5, 8800
6, 16853, Pitch_bend_c, 5, 9056
6, 16854, Pitch_bend_c, 5, 9408
6, 16856, Pitch_bend_c, 5, 9984
6, 16857, Pitch_bend_c, 5, 10720
6, 16858, Pitch_bend_c, 5, 11456
6, 16860, Pitch_bend_c, 5, 12128
6, 16861, Pitch_bend_c, 5, 12672
6, 16862, Pitch_bend_c, 5, 12992
6, 16864, Pitch_bend_c, 5, 13152
6, 16865, Pitch_bend_c, 5, 13280
6, 16867, Pitch_bend_c, 5, 13344
6, 16868, Pitch_bend_c, 5, 13376
6, 16869, Pitch_bend_c, 5, 13440
6, 16871, Pitch_bend_c, 5, 13472
6, 16876, Pitch_bend_c, 5, 13440
6, 16878, Pitch_bend_c, 5, 13344
6, 16879, Pitch_bend_c, 5, 12896
6, 16881, Pitch_bend_c, 5, 10592
6, 16882, Pitch_bend_c, 5, 10400
6, 16884, Pitch_bend_c, 5, 10080
6, 16885, Pitch_bend_c, 5, 9728
6, 16886, Pitch_bend_c, 5, 9280
6, 16888, Pitch_bend_c, 5, 8992
6, 16889, Pitch_bend_c, 5, 8800
6, 16891, Pitch_bend_c, 5, 8672
6, 16892, Pitch_bend_c, 5, 8640
6, 16893, Pitch_bend_c, 5, 8576
6, 16895, Note_on_c, 5, 75, 0
6, 16895, Pitch_bend_c, 5, 8992
6, 16897, Pitch_bend_c, 5, 8192
6, 16898, Note_on_c, 5, 75, 87
6, 16898, Pitch_bend_c, 5, 8576
6, 16902, Pitch_bend_c, 5, 8544
6, 16912, Note_on_c, 5, 75, 0
6, 16912, Pitch_bend_c, 5, 8992
6, 16913, Pitch_bend_c, 5, 8192
6, 16914, Note_on_c, 5, 75, 93
6, 16915, Pitch_bend_c, 5, 8960
6, 16916, Pitch_bend_c, 5, 8672
6, 16917, Pitch_bend_c, 5, 8640
6, 16919, Pitch_bend_c, 5, 8576
6, 16920, Pitch_bend_c, 5, 8544
6, 16921, Pitch_bend_c, 5, 8480
6, 16923, Pitch_bend_c, 5, 8448
6, 16924, Pitch_bend_c, 5, 8416
6, 16926, Note_on_c, 5, 75, 0
6, 16926, Pitch_bend_c, 5, 8576
6, 16930, Pitch_bend_c, 5, 8192
6, 16931, Note_on_c, 5, 73, 93
6, 16931, Pitch_bend_c, 5, 9344
6, 16932, Pitch_bend_c, 5, 8608
6, 16935, Pitch_bend_c, 5, 8672
6, 16938, Pitch_bend_c, 5, 8704
6, 16940, Pitch_bend_c, 5, 8672
6, 16942, Pitch_bend_c, 5, 8608
6, 16943, Pitch_bend_c, 5, 8544
6, 16945, Pitch_bend_c, 5, 8448
6, 16946, Pitch_bend_c, 5, 8384
6, 16947, Pitch_bend_c, 5, 8352
6, 16949, Pitch_bend_c, 5, 8288
6, 16950, Pitch_bend_c, 5, 8352
6, 16952, Pitch_bend_c, 5, 8416
6, 16953, Pitch_bend_c, 5, 8576
6, 16954, Pitch_bend_c, 5, 8768
6, 16956, Pitch_bend_c, 5, 9024
6, 16957, Pitch_bend_c, 5, 9344
6, 16959, Pitch_bend_c, 5, 9792
6, 16960, Pitch_bend_c, 5, 10368
6, 16961, Pitch_bend_c, 5, 11040
6, 16963, Pitch_bend_c, 5, 11808
6, 16964, Pitch_bend_c, 5, 12608
6, 16966, Pitch_bend_c, 5, 13280
6, 16967, Pitch_bend_c, 5, 13792
6, 16968, Pitch_bend_c, 5, 14048
6, 16970, Pitch_bend_c, 5, 14144
6, 16971, Pitch_bend_c, 5, 14048
6, 16973, Pitch_bend_c, 5, 13536
6, 16975, Pitch_bend_c, 5, 10304
6, 16976, Pitch_bend_c, 5, 10048
6, 16977, Pitch_bend_c, 5, 9696
6, 16978, Pitch_bend_c, 5, 9344
6, 16980, Pitch_bend_c, 5, 9024
6, 16981, Pitch_bend_c, 5, 8992
6, 16983, Pitch_bend_c, 5, 9120
6, 16984, Pitch_bend_c, 5, 9376
6, 16986, Pitch_bend_c, 5, 9984
6, 16987, Pitch_bend_c, 5, 12736
6, 16988, Pitch_bend_c, 5, 12928
6, 16990, Pitch_bend_c, 5, 13248
6, 16991, Pitch_bend_c, 5, 13536
6, 16992, Pitch_bend_c, 5, 13888
6, 16994, Pitch_bend_c, 5, 13952
6, 16995, Pitch_bend_c, 5, 13760
6, 16997, Pitch_bend_c, 5, 10592
6, 16998, Pitch_bend_c, 5, 10272
6, 16999, Pitch_bend_c, 5, 9856
6, 17001, Pitch_bend_c, 5, 9440
6, 17002, Pitch_bend_c, 5, 9056
6, 17004, Pitch_bend_c, 5, 9344
6, 17005, Pitch_bend_c, 5, 11776
6, 17006, Pitch_bend_c, 5, 12000
6, 17008, Pitch_bend_c, 5, 12384
6, 17009, Pitch_bend_c, 5, 12864
6, 17010, Pitch_bend_c, 5, 13280
6, 17012, Pitch_bend_c, 5, 13440
6, 17013, Pitch_bend_c, 5, 13312
6, 17015, Pitch_bend_c, 5, 10592
6, 17016, Pitch_bend_c, 5, 10208
6, 17017, Pitch_bend_c, 5, 9600
6, 17019, Pitch_bend_c, 5, 8864
6, 17020, Note_on_c, 5, 73, 0
6, 17039, Note_on_c, 5, 70, 79
6, 17039, Pitch_bend_c, 5, 8256
6, 17040, Pitch_bend_c, 5, 8320
6, 17042, Pitch_bend_c, 5, 8288
6, 17044, Pitch_bend_c, 5, 8256
6, 17046, Pitch_bend_c, 5, 8224
6, 17047, Pitch_bend_c, 5, 8192
6, 17050, Pitch_bend_c, 5, 8160
6, 17051, Pitch_bend_c, 5, 8128
6, 17054, Pitch_bend_c, 5, 8096
6, 17056, Note_on_c, 5, 70, 0
6, 17056, Pitch_bend_c, 5, 8192
6, 17070, Note_on_c, 5, 72, 75
6, 17072, Pitch_bend_c, 5, 8160
6, 17073, Pitch_bend_c, 5, 8128
6, 17075, Pitch_bend_c, 5, 8160
6, 17077, Pitch_bend_c, 5, 8256
6, 17078, Pitch_bend_c, 5, 8512
6, 17079, Pitch_bend_c, 5, 8832
6, 17081, Pitch_bend_c, 5, 9152
6, 17082, Pitch_bend_c, 5, 9408
6, 17083, Pitch_bend_c, 5, 9600
6, 17085, Pitch_bend_c, 5, 9696
6, 17086, Pitch_bend_c, 5, 9792
6, 17088, Note_on_c, 5, 72, 0
6, 17101, Pitch_bend_c, 5, 8192
6, 17102, Note_on_c, 5, 72, 72
6, 17102, Pitch_bend_c, 5, 8032
6, 17106, Pitch_bend_c, 5, 8000
6, 17107, Pitch_bend_c, 5, 7968
6, 17109, Pitch_bend_c, 5, 7904
6, 17110, Pitch_bend_c, 5, 7872
6, 17112, Pitch_bend_c, 5, 7840
6, 17118, Note_on_c, 5, 72, 0
6, 17118, Pitch_bend_c, 5, 8000
6, 17120, Pitch_bend_c, 5, 8192
6, 17121, Note_on_c, 5, 70, 55
6, 17121, Pitch_bend_c, 5, 8096
6, 17122, Pitch_bend_c, 5, 8064
6, 17124, Pitch_bend_c, 5, 8096
6, 17127, Pitch_bend_c, 5, 8128
6, 17128, Pitch_bend_c, 5, 8160
6, 17129, Pitch_bend_c, 5, 8192
6, 17137, Note_on_c, 5, 70, 0
6, 17140, Note_on_c, 5, 67, 18
6, 17140, Pitch_bend_c, 5, 8128
6, 17141, Pitch_bend_c, 5, 8064
6, 17142, Pitch_bend_c, 5, 8096
6, 17146, Pitch_bend_c, 5, 8064
6, 17149, Pitch_bend_c, 5, 8032
6, 17153, Pitch_bend_c, 5, 8064
6, 17154, Note_on_c, 5, 67, 0
6, 17156, Pitch_bend_c, 5, 8192
6, 17157, Note_on_c, 5, 70, 48
6, 17157, Pitch_bend_c, 5, 8064
6, 17167, Pitch_bend_c, 5, 8096
6, 17170, Pitch_bend_c, 5, 8160
6, 17171, Pitch_bend_c, 5, 8192
6, 17174, Pitch_bend_c, 5, 8288
6, 17175, Pitch_bend_c, 5, 8480
6, 17177, Pitch_bend_c, 5, 8768
6, 17178, Pitch_bend_c, 5, 9024
6, 17180, Pitch_bend_c, 5, 9184
6, 17181, Pitch_bend_c, 5, 9216
6, 17182, Pitch_bend_c, 5, 9056
6, 17184, Pitch_bend_c, 5, 8704
6, 17185, Pitch_bend_c, 5, 8384
6, 17187, Pitch_bend_c, 5, 8160
6, 17188, Pitch_bend_c, 5, 8000
6, 17191, Pitch_bend_c, 5, 8064
6, 17192, Pitch_bend_c, 5, 8160
6, 17193, Pitch_bend_c, 5, 8224
6, 17195, Pitch_bend_c, 5, 8320
6, 17196, Pitch_bend_c, 5, 8352
6, 17197, Pitch_bend_c, 5, 8256
6, 17199, Pitch_bend_c, 5, 8160
6, 17200, Pitch_bend_c, 5, 8064
6, 17202, Pitch_bend_c, 5, 8032
6, 17203, Pitch_bend_c, 5, 8064
6, 17205, Pitch_bend_c, 5, 8128
6, 17206, Pitch_bend_c, 5, 8192
6, 17209, Pitch_bend_c, 5, 8224
6, 17210, Pitch_bend_c, 5, 8256
6, 17212, Note_on_c, 5, 70, 0
6, 17212, Pitch_bend_c, 5, 8288
6, 17214, Pitch_bend_c, 5, 8192
6, 17215, Note_on_c, 5, 70, 62
6, 17215, Pitch_bend_c, 5, 8288
6, 17216, Pitch_bend_c, 5, 8320
6, 17219, Pitch_bend_c, 5, 8288
6, 17221, Pitch_bend_c, 5, 8224
6, 17222, Pitch_bend_c, 5, 8192
6, 17223, Pitch_bend_c, 5, 8160
6, 17225, Pitch_bend_c, 5, 8128
6, 17226, Pitch_bend_c, 5, 8096
6, 17227, Pitch_bend_c, 5, 8064
6, 17230, Pitch_bend_c, 5, 8032
6, 17235, Note_on_c, 5, 70, 0
6, 17235, Pitch_bend_c, 5, 8160
6, 17240, Note_on_c, 5, 73, 72
6, 17241, Pitch_bend_c, 5, 8224
6, 17243, Pitch_bend_c, 5, 8256
6, 17244, Pitch_bend_c, 5, 8288
6, 17245, Pitch_bend_c, 5, 8448
6, 17247, Pitch_bend_c, 5, 8736
6, 17248, Pitch_bend_c, 5, 9312
6, 17250, Pitch_bend_c, 5, 9984
6, 17251, Pitch_bend_c, 5, 12160
6, 17253, Pitch_bend_c, 5, 12352
6, 17255, Pitch_bend_c, 5, 12512
6, 17256, Pitch_bend_c, 5, 12672
6, 17257, Pitch_bend_c, 5, 12864
6, 17258, Note_on_c, 5, 73, 0
6, 17274, Note_on_c, 5, 73, 58
6, 17274, Pitch_bend_c, 5, 8128
6, 17275, Pitch_bend_c, 5, 8064
6, 17277, Pitch_bend_c, 5, 8128
6, 17278, Pitch_bend_c, 5, 8160
6, 17280, Pitch_bend_c, 5, 8224
6, 17281, Pitch_bend_c, 5, 8352
6, 17282, Pitch_bend_c, 5, 8448
6, 17284, Pitch_bend_c, 5, 8672
6, 17285, Pitch_bend_c, 5, 8768
6, 17287, Pitch_bend_c, 5, 8896
6, 17288, Pitch_bend_c, 5, 9024
6, 17290, Pitch_bend_c, 5, 9152
6, 17291, Pitch_bend_c, 5, 9280
6, 17292, Pitch_bend_c, 5, 9440
6, 17294, Pitch_bend_c, 5, 9600
6, 17295, Pitch_bend_c, 5, 9760
6, 17296, Pitch_bend_c, 5, 9952
6, 17298, Pitch_bend_c, 5, 10144
6, 17299, Pitch_bend_c, 5, 10400
6, 17301, Pitch_bend_c, 5, 10720
6, 17303, Pitch_bend_c, 5, 11040
6, 17304, Pitch_bend_c, 5, 11360
6, 17305, Pitch_bend_c, 5, 11680
6, 17307, Pitch_bend_c, 5, 11936
6, 17308, Pitch_bend_c, 5, 12128
6, 17310, Pitch_bend_c, 5, 12256
6, 17311, Pitch_bend_c, 5, 12288
6, 17315, Pitch_bend_c, 5, 12224
6, 17316, Pitch_bend_c, 5, 12096
6, 17318, Pitch_bend_c, 5, 11808
6, 17319, Pitch_bend_c, 5, 11360
6, 17321, Pitch_bend_c, 5, 10880
6, 17322, Pitch_bend_c, 5, 10464
6, 17323, Pitch_bend_c, 5, 10240
6, 17325, Pitch_bend_c, 5, 10144
6, 17326, Pitch_bend_c, 5, 10304
6, 17327, Pitch_bend_c, 5, 10688
6, 17329, Pitch_bend_c, 5, 11200
6, 17330, Pitch_bend_c, 5, 11808
6, 17332, Pitch_bend_c, 5, 12416
6, 17333, Pitch_bend_c, 5, 12896
6, 17334, Pitch_bend_c, 5, 13152
6, 17336, Pitch_bend_c, 5, 13184
6, 17337, Pitch_bend_c, 5, 12928
6, 17338, Pitch_bend_c, 5, 12352
6, 17340, Pitch_bend_c, 5, 9792
6, 17342, Pitch_bend_c, 5, 9760
6, 17343, Pitch_bend_c, 5, 9696
6, 17345, Pitch_bend_c, 5, 9760
6, 17346, Pitch_bend_c, 5, 10048
6, 17347, Pitch_bend_c, 5, 10688
6, 17349, Pitch_bend_c, 5, 11456
6, 17350, Pitch_bend_c, 5, 12128
6, 17351, Pitch_bend_c, 5, 12544
6, 17353, Pitch_bend_c, 5, 12736
6, 17354, Pitch_bend_c, 5, 12544
6, 17356, Note_on_c, 5, 73, 0
6, 17442, Pitch_bend_c, 5, 8192
6, 17443, Note_on_c, 5, 70, 104
6, 17443, Pitch_bend_c, 5, 8352
6, 17444, Pitch_bend_c, 5, 8224
6, 17447, Pitch_bend_c, 5, 8256
6, 17449, Pitch_bend_c, 5, 8288
6, 17451, Pitch_bend_c, 5, 8320
6, 17454, Pitch_bend_c, 5, 8416
6, 17456, Pitch_bend_c, 5, 8640
6, 17457, Pitch_bend_c, 5, 9024
6, 17459, Pitch_bend_c, 5, 9408
6, 17460, Pitch_bend_c, 5, 9664
6, 17463, Pitch_bend_c, 5, 9312
6, 17464, Pitch_bend_c, 5, 8768
6, 17466, Pitch_bend_c, 5, 8288
6, 17467, Pitch_bend_c, 5, 8032
6, 17469, Pitch_bend_c, 5, 7936
6, 17470, Pitch_bend_c, 5, 8000
6, 17471, Pitch_bend_c, 5, 8224
6, 17473, Pitch_bend_c, 5, 8576
6, 17474, Pitch_bend_c, 5, 8960
6, 17476, Pitch_bend_c, 5, 9248
6, 17479, Pitch_bend_c, 5, 9056
6, 17480, Pitch_bend_c, 5, 8832
6, 17482, Pitch_bend_c, 5, 8576
6, 17483, Pitch_bend_c, 5, 8320
6, 17484, Pitch_bend_c, 5, 8192
6, 17484, Note_on_c, 5, 67, 88
6, 17488, Note_on_c, 5, 70, 0
6, 17489, Pitch_bend_c, 5, 8256
6, 17491, Pitch_bend_c, 5, 8192
6, 17492, Pitch_bend_c, 5, 8128
6, 17493, Pitch_bend_c, 5, 8032
6, 17496, Pitch_bend_c, 5, 8000
6, 17498, Note_on_c, 5, 67, 0
6, 17499, Pitch_bend_c, 5, 8192
6, 17500, Note_on_c, 5, 73, 103
6, 17500, Pitch_bend_c, 5, 7680
6, 17503, Pitch_bend_c, 5, 7616
6, 17505, Pitch_bend_c, 5, 7552
6, 17506, Pitch_bend_c, 5, 7584
6, 17508, Pitch_bend_c, 5, 7552
6, 17509, Pitch_bend_c, 5, 7584
6, 17510, Pitch_bend_c, 5, 7648
6, 17512, Pitch_bend_c, 5, 7776
6, 17513, Pitch_bend_c, 5, 7936
6, 17514, Pitch_bend_c, 5, 8192
6, 17516, Pitch_bend_c, 5, 8512
6, 17517, Pitch_bend_c, 5, 9056
6, 17519, Pitch_bend_c, 5, 9792
6, 17520, Pitch_bend_c, 5, 10624
6, 17521, Pitch_bend_c, 5, 11392
6, 17523, Pitch_bend_c, 5, 12000
6, 17524, Pitch_bend_c, 5, 12352
6, 17525, Note_on_c, 5, 73, 0
6, 17627, Pitch_bend_c, 5, 8192
6, 17627, Note_on_c, 5, 70, 89
6, 17628, Pitch_bend_c, 5, 8288
6, 17629, Pitch_bend_c, 5, 8256
6, 17634, Pitch_bend_c, 5, 8224
6, 17636, Pitch_bend_c, 5, 8192
6, 17637, Pitch_bend_c, 5, 8000
6, 17638, Pitch_bend_c, 5, 7776
6, 17639, Note_on_c, 5, 70, 0
6, 17639, Pitch_bend_c, 5, 8256
6, 17654, Pitch_bend_c, 5, 8192
6, 17660, Note_on_c, 5, 79, 100
6, 17660, Pitch_bend_c, 5, 8768
6, 17661, Pitch_bend_c, 5, 8544
6, 17662, Pitch_bend_c, 5, 8608
6, 17665, Pitch_bend_c, 5, 8544
6, 17668, Pitch_bend_c, 5, 8608
6, 17669, Pitch_bend_c, 5, 8736
6, 17671, Pitch_bend_c, 5, 8960
6, 17672, Pitch_bend_c, 5, 9344
6, 17673, Pitch_bend_c, 5, 9760
6, 17675, Pitch_bend_c, 5, 10144
6, 17676, Pitch_bend_c, 5, 10560
6, 17677, Pitch_bend_c, 5, 10848
6, 17679, Pitch_bend_c, 5, 11136
6, 17680, Pitch_bend_c, 5, 11360
6, 17682, Pitch_bend_c, 5, 11520
6, 17683, Pitch_bend_c, 5, 11712
6, 17684, Pitch_bend_c, 5, 11808
6, 17686, Pitch_bend_c, 5, 11872
6, 17687, Pitch_bend_c, 5, 11936
6, 17705, Pitch_bend_c, 5, 12000
6, 17707, Pitch_bend_c, 5, 12096
6, 17708, Pitch_bend_c, 5, 12224
6, 17710, Pitch_bend_c, 5, 12384
6, 17711, Pitch_bend_c, 5, 12512
6, 17712, Pitch_bend_c, 5, 12576
6, 17714, Pitch_bend_c, 5, 12640
6, 17721, Pitch_bend_c, 5, 12704
6, 17725, Pitch_bend_c, 5, 12640
6, 17726, Pitch_bend_c, 5, 12448
6, 17728, Pitch_bend_c, 5, 12160
6, 17729, Pitch_bend_c, 5, 11648
6, 17730, Note_on_c, 5, 79, 0
6, 17730, Pitch_bend_c, 5, 12704
6, 17755, Pitch_bend_c, 5, 8192
6, 17756, Note_on_c, 5, 77, 92
6, 17756, Pitch_bend_c, 5, 8640
6, 17757, Pitch_bend_c, 5, 8896
6, 17759, Pitch_bend_c, 5, 8736
6, 17760, Pitch_bend_c, 5, 8640
6, 17762, Pitch_bend_c, 5, 8480
6, 17764, Pitch_bend_c, 5, 8416
6, 17772, Pitch_bend_c, 5, 8544
6, 17773, Pitch_bend_c, 5, 8576
6, 17774, Pitch_bend_c, 5, 8672
6, 17776, Pitch_bend_c, 5, 8992
6, 17777, Pitch_bend_c, 5, 9344
6, 17778, Pitch_bend_c, 5, 9792
6, 17780, Pitch_bend_c, 5, 10272
6, 17781, Pitch_bend_c, 5, 10528
6, 17783, Pitch_bend_c, 5, 10656
6, 17784, Pitch_bend_c, 5, 10624
6, 17785, Pitch_bend_c, 5, 10304
6, 17787, Pitch_bend_c, 5, 9792
6, 17788, Pitch_bend_c, 5, 9248
6, 17789, Pitch_bend_c, 5, 8800
6, 17791, Pitch_bend_c, 5, 8576
6, 17792, Pitch_bend_c, 5, 8544
6, 17795, Pitch_bend_c, 5, 8480
6, 17797, Pitch_bend_c, 5, 8544
6, 17798, Pitch_bend_c, 5, 8576
6, 17799, Pitch_bend_c, 5, 8672
6, 17801, Pitch_bend_c, 5, 8832
6, 17802, Pitch_bend_c, 5, 8992
6, 17804, Pitch_bend_c, 5, 9088
6, 17805, Pitch_bend_c, 5, 9152
6, 17811, Pitch_bend_c, 5, 9056
6, 17812, Pitch_bend_c, 5, 8928
6, 17813, Pitch_bend_c, 5, 8832
6, 17815, Note_on_c, 5, 77, 0
6, 17815, Pitch_bend_c, 5, 9152
6, 17817, Note_on_c, 5, 75, 91
6, 17817, Pitch_bend_c, 5, 8448
6, 17821, Pitch_bend_c, 5, 8416
6, 17822, Pitch_bend_c, 5, 8352
6, 17829, Pitch_bend_c, 5, 8416
6, 17833, Pitch_bend_c, 5, 8352
6, 17835, Note_on_c, 5, 75, 0
6, 17835, Pitch_bend_c, 5, 8448
6, 17837, Pitch_bend_c, 5, 8192
6, 17838, Note_on_c, 5, 77, 89
6, 17838, Pitch_bend_c, 5, 8320
6, 17840, Pitch_bend_c, 5, 8288
6, 17845, Note_on_c, 5, 77, 0
6, 17856, Pitch_bend_c, 5, 8192
6, 17856, Note_on_c, 5, 72, 83
6, 17864, Pitch_bend_c, 5, 8128
6, 17866, Pitch_bend_c, 5, 8096
6, 17867, Pitch_bend_c, 5, 12064
6, 17873, Pitch_bend_c, 5, 12096
6, 17874, Pitch_bend_c, 5, 8128
6, 17879, Pitch_bend_c, 5, 8160
6, 17880, Pitch_bend_c, 5, 8224
6, 17882, Pitch_bend_c, 5, 8320
6, 17883, Note_on_c, 5, 72, 0
6, 17883, Note_on_c, 5, 69, 67
6, 17883, Pitch_bend_c, 5, 12256
6, 17888, Pitch_bend_c, 5, 12288
6, 17889, Pitch_bend_c, 5, 12320
6, 17892, Pitch_bend_c, 5, 12352
6, 17896, Pitch_bend_c, 5, 12384
6, 17899, Note_on_c, 5, 69, 0
6, 17899, Pitch_bend_c, 5, 8192
6, 17899, Note_on_c, 5, 67, 18
6, 17901, Pitch_bend_c, 5, 8064
6, 17904, Pitch_bend_c, 5, 8096
6, 17907, Pitch_bend_c, 5, 8064
6, 17910, Pitch_bend_c, 5, 8032
6, 17917, Pitch_bend_c, 5, 8192
6, 17917, Note_on_c, 5, 70, 83
6, 17918, Note_on_c, 5, 67, 0
6, 17921, Pitch_bend_c, 5, 8256
6, 17923, Pitch_bend_c, 5, 8224
6, 17932, Pitch_bend_c, 5, 8192
6, 17936, Pitch_bend_c, 5, 8160
6, 17941, Note_on_c, 5, 70, 0
6, 17941, Pitch_bend_c, 5, 8192
6, 17946, Note_on_c, 5, 72, 83
6, 17946, Pitch_bend_c, 5, 8224
6, 17955, Pitch_bend_c, 5, 8192
6, 17959, Pitch_bend_c, 5, 8160
6, 17960, Pitch_bend_c, 5, 12128
6, 17964, Pitch_bend_c, 5, 12192
6, 17965, Pitch_bend_c, 5, 12224
6, 17967, Pitch_bend_c, 5, 8128
6, 17970, Pitch_bend_c, 5, 8032
6, 17971, Pitch_bend_c, 5, 8000
6, 17972, Pitch_bend_c, 5, 8096
6, 17974, Pitch_bend_c, 5, 8192
6, 17979, Note_on_c, 5, 72, 0
6, 17979, Note_on_c, 5, 69, 66
6, 17979, Pitch_bend_c, 5, 12288
6, 17980, Pitch_bend_c, 5, 12224
6, 17983, Pitch_bend_c, 5, 12256
6, 17985, Pitch_bend_c, 5, 12288
6, 17986, Pitch_bend_c, 5, 12320
6, 17990, Pitch_bend_c, 5, 12352
6, 17994, Pitch_bend_c, 5, 12320
6, 17996, Note_on_c, 5, 69, 0
6, 17996, Pitch_bend_c, 5, 8192
6, 17996, Note_on_c, 5, 67, 18
6, 18000, Pitch_bend_c, 5, 8160
6, 18004, Pitch_bend_c, 5, 8096
6, 18005, Pitch_bend_c, 5, 8064
6, 18007, Pitch_bend_c, 5, 8032
6, 18011, Note_on_c, 5, 67, 0
6, 18011, Pitch_bend_c, 5, 8192
6, 18011, Note_on_c, 5, 70, 80
6, 18024, Pitch_bend_c, 5, 8160
6, 18025, Pitch_bend_c, 5, 8128
6, 18028, Pitch_bend_c, 5, 8224
6, 18029, Pitch_bend_c, 5, 8544
6, 18031, Pitch_bend_c, 5, 8960
6, 18032, Pitch_bend_c, 5, 9344
6, 18033, Pitch_bend_c, 5, 9472
6, 18035, Pitch_bend_c, 5, 9312
6, 18036, Pitch_bend_c, 5, 8896
6, 18038, Pitch_bend_c, 5, 8480
6, 18039, Pitch_bend_c, 5, 8192
6, 18040, Pitch_bend_c, 5, 8032
6, 18043, Pitch_bend_c, 5, 8096
6, 18045, Pitch_bend_c, 5, 8256
6, 18046, Pitch_bend_c, 5, 8544
6, 18048, Pitch_bend_c, 5, 8832
6, 18049, Pitch_bend_c, 5, 9024
6, 18050, Note_on_c, 5, 70, 0
6, 18257, Pitch_bend_c, 5, 4544
6, 18257, Note_on_c, 5, 80, 110
6, 18258, Pitch_bend_c, 5, 4384
6, 18264, Pitch_bend_c, 5, 4320
6, 18267, Pitch_bend_c, 5, 4256
6, 18269, Pitch_bend_c, 5, 4192
6, 18271, Pitch_bend_c, 5, 4128
6, 18275, Note_on_c, 5, 80, 0
6, 18275, Pitch_bend_c, 5, 4384
6, 18276, Pitch_bend_c, 5, 8192
6, 18282, Note_on_c, 5, 77, 93
6, 18282, Pitch_bend_c, 5, 8640
6, 18283, Pitch_bend_c, 5, 8672
6, 18284, Pitch_bend_c, 5, 8640
6, 18289, Pitch_bend_c, 5, 8576
6, 18290, Pitch_bend_c, 5, 8544
6, 18294, Pitch_bend_c, 5, 8576
6, 18295, Note_on_c, 5, 77, 0
6, 18295, Pitch_bend_c, 5, 8672
6, 18307, Pitch_bend_c, 5, 8192
6, 18308, Note_on_c, 5, 79, 94
6, 18308, Pitch_bend_c, 5, 8320
6, 18309, Pitch_bend_c, 5, 8448
6, 18310, Pitch_bend_c, 5, 8384
6, 18312, Pitch_bend_c, 5, 8480
6, 18313, Pitch_bend_c, 5, 8672
6, 18315, Pitch_bend_c, 5, 8896
6, 18316, Pitch_bend_c, 5, 9248
6, 18318, Pitch_bend_c, 5, 9696
6, 18319, Pitch_bend_c, 5, 10208
6, 18320, Pitch_bend_c, 5, 10784
6, 18322, Pitch_bend_c, 5, 11232
6, 18323, Pitch_bend_c, 5, 11648
6, 18324, Pitch_bend_c, 5, 12000
6, 18326, Pitch_bend_c, 5, 12224
6, 18327, Pitch_bend_c, 5, 12384
6, 18329, Pitch_bend_c, 5, 12448
6, 18332, Pitch_bend_c, 5, 12384
6, 18333, Note_on_c, 5, 79, 0
6, 18333, Pitch_bend_c, 5, 12320
6, 18368, Pitch_bend_c, 5, 8192
6, 18369, Note_on_c, 5, 77, 92
6, 18369, Pitch_bend_c, 5, 8544
6, 18373, Pitch_bend_c, 5, 8480
6, 18376, Pitch_bend_c, 5, 8416
6, 18377, Pitch_bend_c, 5, 8384
6, 18379, Pitch_bend_c, 5, 8320
6, 18380, Pitch_bend_c, 5, 8288
6, 18381, Pitch_bend_c, 5, 8224
6, 18383, Note_on_c, 5, 77, 0
6, 18383, Pitch_bend_c, 5, 8384
6, 18389, Pitch_bend_c, 5, 8192
6, 18390, Note_on_c, 5, 75, 91
6, 18390, Pitch_bend_c, 5, 8544
6, 18391, Pitch_bend_c, 5, 8576
6, 18393, Pitch_bend_c, 5, 8640
6, 18397, Pitch_bend_c, 5, 8576
6, 18398, Pitch_bend_c, 5, 8480
6, 18400, Pitch_bend_c, 5, 8448
6, 18401, Note_on_c, 5, 75, 0
6, 18402, Pitch_bend_c, 5, 8416
6, 18405, Note_on_c, 5, 77, 85
6, 18405, Pitch_bend_c, 5, 8640
6, 18408, Pitch_bend_c, 5, 8576
6, 18411, Pitch_bend_c, 5, 8544
6, 18412, Pitch_bend_c, 5, 8480
6, 18413, Pitch_bend_c, 5, 8192
6, 18414, Note_on_c, 5, 77, 0
6, 18414, Pitch_bend_c, 5, 8640
6, 18422, Pitch_bend_c, 5, 8192
6, 18423, Note_on_c, 5, 72, 87
6, 18424, Pitch_bend_c, 5, 8352
6, 18425, Pitch_bend_c, 5, 8256
6, 18429, Pitch_bend_c, 5, 8320
6, 18430, Pitch_bend_c, 5, 8288
6, 18433, Pitch_bend_c, 5, 8256
6, 18435, Pitch_bend_c, 5, 8192
6, 18439, Pitch_bend_c, 5, 12288
6, 18443, Pitch_bend_c, 5, 12320
6, 18444, Pitch_bend_c, 5, 12352
6, 18446, Pitch_bend_c, 5, 12512
6, 18447, Pitch_bend_c, 5, 12608
6, 18449, Pitch_bend_c, 5, 8224
6, 18450, Pitch_bend_c, 5, 8192
6, 18452, Pitch_bend_c, 5, 8352
6, 18453, Pitch_bend_c, 5, 8480
6, 18454, Pitch_bend_c, 5, 8608
6, 18456, Note_on_c, 5, 72, 0
6, 18456, Note_on_c, 5, 69, 50
6, 18456, Pitch_bend_c, 5, 12288
6, 18457, Pitch_bend_c, 5, 12256
6, 18460, Pitch_bend_c, 5, 12288
6, 18461, Pitch_bend_c, 5, 12320
6, 18463, Pitch_bend_c, 5, 12352
6, 18465, Pitch_bend_c, 5, 12384
6, 18466, Note_on_c, 5, 69, 0
6, 18467, Note_on_c, 5, 72, 83
6, 18467, Pitch_bend_c, 5, 8192
6, 18468, Pitch_bend_c, 5, 8672
6, 18473, Pitch_bend_c, 5, 8640
6, 18476, Pitch_bend_c, 5, 8608
6, 18477, Pitch_bend_c, 5, 8512
6, 18478, Pitch_bend_c, 5, 8448
6, 18480, Pitch_bend_c, 5, 8416
6, 18481, Note_on_c, 5, 72, 0
6, 18481, Pitch_bend_c, 5, 8640
6, 18483, Pitch_bend_c, 5, 8192
6, 18484, Note_on_c, 5, 67, 60
6, 18485, Pitch_bend_c, 5, 8160
6, 18487, Pitch_bend_c, 5, 8128
6, 18492, Pitch_bend_c, 5, 8096
6, 18498, Pitch_bend_c, 5, 8064
6, 18499, Note_on_c, 5, 67, 0
6, 18499, Note_on_c, 5, 70, 85
6, 18499, Pitch_bend_c, 5, 8192
6, 18500, Pitch_bend_c, 5, 8352
6, 18501, Pitch_bend_c, 5, 8320
6, 18503, Pitch_bend_c, 5, 8352
6, 18507, Pitch_bend_c, 5, 8320
6, 18509, Pitch_bend_c, 5, 8288
6, 18510, Pitch_bend_c, 5, 8256
6, 18511, Pitch_bend_c, 5, 8192
6, 18513, Pitch_bend_c, 5, 8160
6, 18514, Pitch_bend_c, 5, 8128
6, 18516, Pitch_bend_c, 5, 8096
6, 18517, Pitch_bend_c, 5, 8064
6, 18522, Note_on_c, 5, 70, 0
6, 18522, Pitch_bend_c, 5, 8192
6, 18527, Note_on_c, 5, 73, 87
6, 18527, Pitch_bend_c, 5, 8224
6, 18531, Pitch_bend_c, 5, 8256
6, 18532, Pitch_bend_c, 5, 8288
6, 18534, Pitch_bend_c, 5, 8256
6, 18535, Pitch_bend_c, 5, 8224
6, 18537, Pitch_bend_c, 5, 8160
6, 18538, Pitch_bend_c, 5, 8064
6, 18541, Pitch_bend_c, 5, 8032
6, 18548, Pitch_bend_c, 5, 8160
6, 18549, Pitch_bend_c, 5, 8416
6, 18550, Pitch_bend_c, 5, 9024
6, 18552, Pitch_bend_c, 5, 11936
6, 18554, Pitch_bend_c, 5, 12128
6, 18555, Pitch_bend_c, 5, 12384
6, 18556, Pitch_bend_c, 5, 12672
6, 18558, Pitch_bend_c, 5, 12928
6, 18559, Note_on_c, 5, 73, 0
6, 18598, Pitch_bend_c, 5, 8192
6, 18599, Note_on_c, 5, 69, 93
6, 18599, Pitch_bend_c, 5, 8512
6, 18603, Pitch_bend_c, 5, 8480
6, 18604, Pitch_bend_c, 5, 8416
6, 18605, Pitch_bend_c, 5, 8352
6, 18607, Pitch_bend_c, 5, 8320
6, 18608, Pitch_bend_c, 5, 8224
6, 18610, Pitch_bend_c, 5, 12288
6, 18611, Pitch_bend_c, 5, 12320
6, 18615, Pitch_bend_c, 5, 12352
6, 18618, Pitch_bend_c, 5, 12384
6, 18625, Pitch_bend_c, 5, 12352
6, 18628, Pitch_bend_c, 5, 12288
6, 18629, Note_on_c, 5, 69, 0
6, 18629, Pitch_bend_c, 5, 12320
6, 18641, Note_on_c, 5, 65, 95
6, 18641, Pitch_bend_c, 5, 8352
6, 18644, Pitch_bend_c, 5, 8384
6, 18647, Pitch_bend_c, 5, 8416
6, 18653, Pitch_bend_c, 5, 8352
6, 18655, Pitch_bend_c, 5, 8288
6, 18656, Pitch_bend_c, 5, 8416
6, 18657, Note_on_c, 5, 65, 0
6, 18660, Note_on_c, 5, 63, 83
6, 18660, Pitch_bend_c, 5, 8128
6, 18662, Pitch_bend_c, 5, 8160
6, 18663, Pitch_bend_c, 5, 8128
6, 18670, Pitch_bend_c, 5, 8096
6, 18672, Note_on_c, 5, 63, 0
6, 18672, Pitch_bend_c, 5, 8160
6, 18675, Note_on_c, 5, 65, 96
6, 18675, Pitch_bend_c, 5, 8288
6, 18687, Pitch_bend_c, 5, 8352
6, 18688, Note_on_c, 5, 65, 0
6, 18690, Pitch_bend_c, 5, 8192
6, 18691, Note_on_c, 5, 61, 83
6, 18691, Pitch_bend_c, 5, 8288
6, 18695, Pitch_bend_c, 5, 8352
6, 18696, Pitch_bend_c, 5, 8416
6, 18698, Pitch_bend_c, 5, 8448
6, 18701, Pitch_bend_c, 5, 8352
6, 18702, Pitch_bend_c, 5, 8288
6, 18704, Pitch_bend_c, 5, 8480
6, 18705, Pitch_bend_c, 5, 8928
6, 18707, Pitch_bend_c, 5, 9664
6, 18708, Pitch_bend_c, 5, 10496
6, 18709, Pitch_bend_c, 5, 11168
6, 18711, Pitch_bend_c, 5, 11648
6, 18712, Pitch_bend_c, 5, 11872
6, 18713, Pitch_bend_c, 5, 11936
6, 18714, Note_on_c, 5, 61, 0
6, 18717, Note_on_c, 5, 58, 66
6, 18717, Pitch_bend_c, 5, 8192
6, 18718, Pitch_bend_c, 5, 8160
6, 18721, Pitch_bend_c, 5, 8192
6, 18723, Pitch_bend_c, 5, 8224
6, 18726, Pitch_bend_c, 5, 8256
6, 18727, Pitch_bend_c, 5, 8224
6, 18729, Pitch_bend_c, 5, 8192
6, 18734, Pitch_bend_c, 5, 8000
6, 18735, Note_on_c, 5, 58, 0
6, 18735, Pitch_bend_c, 5, 8224
6, 18748, Note_on_c, 5, 63, 95
6, 18748, Pitch_bend_c, 5, 8576
6, 18749, Pitch_bend_c, 5, 8480
6, 18750, Pitch_bend_c, 5, 8576
6, 18753, Pitch_bend_c, 5, 8544
6, 18754, Pitch_bend_c, 5, 8480
6, 18756, Pitch_bend_c, 5, 8512
6, 18758, Pitch_bend_c, 5, 8832
6, 18759, Pitch_bend_c, 5, 9280
6, 18760, Pitch_bend_c, 5, 9824
6, 18762, Pitch_bend_c, 5, 10304
6, 18763, Note_on_c, 5, 63, 0
6, 18775, Pitch_bend_c, 5, 8192
6, 18776, Note_on_c, 5, 63, 95
6, 18776, Pitch_bend_c, 5, 8288
6, 18777, Pitch_bend_c, 5, 8192
6, 18778, Pitch_bend_c, 5, 8224
6, 18780, Pitch_bend_c, 5, 8192
6, 18782, Pitch_bend_c, 5, 8224
6, 18783, Pitch_bend_c, 5, 8192
6, 18784, Pitch_bend_c, 5, 8224
6, 18788, Pitch_bend_c, 5, 8192
6, 18790, Pitch_bend_c, 5, 8160
6, 18791, Note_on_c, 5, 63, 0
6, 18791, Pitch_bend_c, 5, 8192
6, 18803, Note_on_c, 5, 61, 79
6, 18803, Pitch_bend_c, 5, 8160
6, 18805, Pitch_bend_c, 5, 8192
6, 18814, Pitch_bend_c, 5, 8160
6, 18817, Pitch_bend_c, 5, 8128
6, 18820, Pitch_bend_c, 5, 8096
6, 18821, Pitch_bend_c, 5, 8064
6, 18830, Pitch_bend_c, 5, 8160
6, 18831, Pitch_bend_c, 5, 8288
6, 18833, Pitch_bend_c, 5, 8672
6, 18834, Pitch_bend_c, 5, 9216
6, 18836, Pitch_bend_c, 5, 9920
6, 18837, Pitch_bend_c, 5, 10528
6, 18838, Pitch_bend_c, 5, 10848
6, 18840, Pitch_bend_c, 5, 10912
6, 18841, Pitch_bend_c, 5, 10784
6, 18842, Pitch_bend_c, 5, 10624
6, 18843, Note_on_c, 5, 61, 0
6, 18866, Pitch_bend_c, 5, 8192
6, 18867, Note_on_c, 5, 68, 93
6, 18868, Pitch_bend_c, 5, 8224
6, 18869, Pitch_bend_c, 5, 8288
6, 18870, Pitch_bend_c, 5, 8256
6, 18872, Pitch_bend_c, 5, 8224
6, 18873, Pitch_bend_c, 5, 8192
6, 18885, Pitch_bend_c, 5, 8160
6, 18887, Pitch_bend_c, 5, 8192
6, 18903, Pitch_bend_c, 5, 8224
6, 18904, Pitch_bend_c, 5, 8352
6, 18905, Pitch_bend_c, 5, 8672
6, 18907, Pitch_bend_c, 5, 8896
6, 18908, Note_on_c, 5, 68, 0
6, 18908, Note_on_c, 5, 65, 64
6, 18909, Pitch_bend_c, 5, 8192
6, 18910, Pitch_bend_c, 5, 8256
6, 18911, Pitch_bend_c, 5, 8224
6, 18913, Pitch_bend_c, 5, 8192
6, 18918, Pitch_bend_c, 5, 8288
6, 18919, Note_on_c, 5, 65, 0
6, 18919, Note_on_c, 5, 63, 92
6, 18919, Pitch_bend_c, 5, 8064
6, 18920, Pitch_bend_c, 5, 8160
6, 18921, Pitch_bend_c, 5, 8192
6, 18922, Pitch_bend_c, 5, 8128
6, 18923, Pitch_bend_c, 5, 8096
6, 18925, Pitch_bend_c, 5, 8000
6, 18926, Note_on_c, 5, 63, 0
6, 18928, Pitch_bend_c, 5, 8192
6, 18929, Note_on_c, 5, 61, 83
6, 18929, Pitch_bend_c, 5, 8384
6, 18930, Pitch_bend_c, 5, 8000
6, 18931, Pitch_bend_c, 5, 8096
6, 18933, Pitch_bend_c, 5, 8064
6, 18935, Pitch_bend_c, 5, 8160
6, 18936, Pitch_bend_c, 5, 8192
6, 18936, Note_on_c, 5, 58, 57
6, 18937, Note_on_c, 5, 61, 0
6, 18937, Pitch_bend_c, 5, 8224
6, 18938, Pitch_bend_c, 5, 8192
6, 18941, Pitch_bend_c, 5, 8160
6, 18942, Pitch_bend_c, 5, 8000
6, 18944, Pitch_bend_c, 5, 7712
6, 18945, Pitch_bend_c, 5, 7168
6, 18946, Note_on_c, 5, 58, 0
6, 18947, Pitch_bend_c, 5, 8192
6, 18948, Note_on_c, 5, 63, 93
6, 18948, Pitch_bend_c, 5, 8128
6, 18949, Pitch_bend_c, 5, 8192
6, 18955, Pitch_bend_c, 5, 8160
6, 18956, Pitch_bend_c, 5, 8128
6, 18959, Pitch_bend_c, 5, 8096
6, 18960, Pitch_bend_c, 5, 8064
6, 18964, Pitch_bend_c, 5, 8032
6, 18967, Pitch_bend_c, 5, 8000
6, 18973, Pitch_bend_c, 5, 8064
6, 18975, Pitch_bend_c, 5, 8128
6, 18976, Note_on_c, 5, 63, 0
6, 18976, Note_on_c, 5, 60, 77
6, 18976, Pitch_bend_c, 5, 12032
6, 18977, Pitch_bend_c, 5, 12064
6, 18980, Pitch_bend_c, 5, 12288
6, 18982, Pitch_bend_c, 5, 12352
6, 18983, Note_on_c, 5, 60, 0
6, 18983, Pitch_bend_c, 5, 12448
6, 18984, Note_on_c, 5, 58, 66
6, 18984, Pitch_bend_c, 5, 8064
6, 18987, Pitch_bend_c, 5, 8096
6, 18988, Pitch_bend_c, 5, 8128
6, 18989, Pitch_bend_c, 5, 8160
6, 18991, Note_on_c, 5, 58, 0
6, 18991, Pitch_bend_c, 5, 8192
6, 18994, Note_on_c, 5, 56, 75
6, 18996, Pitch_bend_c, 5, 8224
6, 18998, Pitch_bend_c, 5, 8192
6, 18999, Pitch_bend_c, 5, 8256
6, 19003, Pitch_bend_c, 5, 8192
6, 19003, Note_on_c, 5, 53, 67
6, 19004, Note_on_c, 5, 56, 0
6, 19004, Pitch_bend_c, 5, 7936
6, 19010, Pitch_bend_c, 5, 7968
6, 19012, Pitch_bend_c, 5, 7936
6, 19015, Pitch_bend_c, 5, 7904
6, 19020, Pitch_bend_c, 5, 7936
6, 19022, Pitch_bend_c, 5, 7968
6, 19023, Pitch_bend_c, 5, 8064
6, 19024, Pitch_bend_c, 5, 8288
6, 19026, Pitch_bend_c, 5, 8672
6, 19027, Pitch_bend_c, 5, 9088
6, 19029, Pitch_bend_c, 5, 9408
6, 19031, Pitch_bend_c, 5, 9088
6, 19033, Pitch_bend_c, 5, 8640
6, 19034, Pitch_bend_c, 5, 8224
6, 19036, Pitch_bend_c, 5, 7936
6, 19037, Pitch_bend_c, 5, 7808
6, 19042, Note_on_c, 5, 53, 0
6, 19065, Pitch_bend_c, 5, 8192
6, 19066, Pitch_bend_c, 5, 8704
6, 19067, Pitch_bend_c, 5, 8192
6, 19068, Note_on_c, 5, 61, 97
6, 19068, Note_on_c, 5, 67, 93
6, 19068, Note_on_c, 5, 70, 104
6, 19190, Note_on_c, 5, 61, 0
6, 19192, Note_on_c, 5, 67, 0
6, 19192, Pitch_bend_c, 5, 8384
6, 19195, Pitch_bend_c, 5, 8352
6, 19196, Pitch_bend_c, 5, 8384
6, 19198, Pitch_bend_c, 5, 8192
6, 19199, Note_on_c, 5, 62, 45
6, 19201, Note_on_c, 5, 65, 62
6, 19202, Note_on_c, 5, 70, 0
6, 19203, Note_on_c, 5, 70, 18
6, 19298, Note_on_c, 5, 62, 0
6, 19298, Note_on_c, 5, 65, 0
6, 19298, Note_on_c, 5, 70, 0
6, 19444, Note_on_c, 5, 65, 81
6, 19444, Pitch_bend_c, 5, 8000
6, 19448, Pitch_bend_c, 5, 7968
6, 19450, Pitch_bend_c, 5, 7936
6, 19454, Pitch_bend_c, 5, 7968
6, 19455, Pitch_bend_c, 5, 8000
6, 19457, Pitch_bend_c, 5, 8192
6, 19457, Note_on_c, 5, 70, 93
6, 19462, Note_on_c, 5, 65, 0
6, 19463, Pitch_bend_c, 5, 8160
6, 19465, Pitch_bend_c, 5, 8192
6, 19469, Pitch_bend_c, 5, 8160
6, 19470, Pitch_bend_c, 5, 8128
6, 19472, Pitch_bend_c, 5, 8096
6, 19473, Pitch_bend_c, 5, 8064
6, 19474, Note_on_c, 5, 70, 0
6, 19475, Note_on_c, 5, 70, 93
6, 19475, Pitch_bend_c, 5, 8096
6, 19477, Pitch_bend_c, 5, 8064
6, 19479, Pitch_bend_c, 5, 8096
6, 19481, Pitch_bend_c, 5, 8128
6, 19483, Pitch_bend_c, 5, 8160
6, 19484, Pitch_bend_c, 5, 8192
6, 19487, Note_on_c, 5, 70, 0
6, 19487, Pitch_bend_c, 5, 8224
6, 19488, Note_on_c, 5, 70, 92
6, 19488, Pitch_bend_c, 5, 8672
6, 19489, Pitch_bend_c, 5, 8640
6, 19490, Pitch_bend_c, 5, 8608
6, 19491, Pitch_bend_c, 5, 8640
6, 19493, Pitch_bend_c, 5, 8608
6, 19494, Pitch_bend_c, 5, 8576
6, 19496, Pitch_bend_c, 5, 8544
6, 19497, Pitch_bend_c, 5, 8448
6, 19498, Pitch_bend_c, 5, 8352
6, 19500, Pitch_bend_c, 5, 8224
6, 19501, Pitch_bend_c, 5, 8192
6, 19503, Pitch_bend_c, 5, 8160
6, 19505, Pitch_bend_c, 5, 8192
6, 19507, Pitch_bend_c, 5, 8256
6, 19508, Pitch_bend_c, 5, 8352
6, 19510, Pitch_bend_c, 5, 8512
6, 19511, Pitch_bend_c, 5, 8704
6, 19512, Pitch_bend_c, 5, 8864
6, 19514, Pitch_bend_c, 5, 8992
6, 19516, Pitch_bend_c, 5, 8960
6, 19518, Pitch_bend_c, 5, 8768
6, 19519, Pitch_bend_c, 5, 8512
6, 19521, Pitch_bend_c, 5, 8320
6, 19522, Pitch_bend_c, 5, 8192
6, 19524, Pitch_bend_c, 5, 8160
6, 19525, Pitch_bend_c, 5, 8192
6, 19527, Pitch_bend_c, 5, 8288
6, 19528, Pitch_bend_c, 5, 8544
6, 19531, Pitch_bend_c, 5, 8896
6, 19532, Pitch_bend_c, 5, 9152
6, 19533, Pitch_bend_c, 5, 9120
6, 19535, Pitch_bend_c, 5, 9184
6, 19536, Pitch_bend_c, 5, 8768
6, 19538, Pitch_bend_c, 5, 8416
6, 19539, Pitch_bend_c, 5, 8192
6, 19540, Pitch_bend_c, 5, 8064
6, 19542, Pitch_bend_c, 5, 8128
6, 19543, Pitch_bend_c, 5, 8416
6, 19545, Pitch_bend_c, 5, 8864
6, 19546, Note_on_c, 5, 70, 0
6, 19546, Pitch_bend_c, 5, 9376
6, 19836, Pitch_bend_c, 5, 8192
6, 19837, Note_on_c, 5, 65, 91
6, 19837, Pitch_bend_c, 5, 8000
6, 19838, Pitch_bend_c, 5, 8096
6, 19844, Pitch_bend_c, 5, 8064
6, 19847, Pitch_bend_c, 5, 8032
6, 19853, Pitch_bend_c, 5, 7872
6, 19855, Note_on_c, 5, 65, 0
6, 19855, Note_on_c, 5, 67, 76
6, 19855, Pitch_bend_c, 5, 12064
6, 19856, Pitch_bend_c, 5, 12160
6, 19860, Pitch_bend_c, 5, 12096
6, 19861, Pitch_bend_c, 5, 12032
6, 19863, Pitch_bend_c, 5, 12000
6, 19864, Pitch_bend_c, 5, 11968
6, 19865, Pitch_bend_c, 5, 11904
6, 19866, Note_on_c, 5, 67, 0
6, 19866, Pitch_bend_c, 5, 12096
6, 19867, Pitch_bend_c, 5, 8192
6, 19868, Note_on_c, 5, 70, 91
6, 19868, Pitch_bend_c, 5, 8576
6, 19871, Pitch_bend_c, 5, 8544
6, 19872, Pitch_bend_c, 5, 8480
6, 19874, Pitch_bend_c, 5, 8416
6, 19875, Pitch_bend_c, 5, 8320
6, 19876, Pitch_bend_c, 5, 8288
6, 19878, Pitch_bend_c, 5, 8256
6, 19881, Pitch_bend_c, 5, 8288
6, 19882, Pitch_bend_c, 5, 8256
6, 19885, Pitch_bend_c, 5, 8224
6, 19886, Pitch_bend_c, 5, 8192
6, 19888, Pitch_bend_c, 5, 8160
6, 19889, Pitch_bend_c, 5, 8128
6, 19890, Pitch_bend_c, 5, 8096
6, 19891, Pitch_bend_c, 5, 8064
6, 19896, Note_on_c, 5, 70, 0
6, 19896, Pitch_bend_c, 5, 12032
6, 19899, Pitch_bend_c, 5, 8192
6, 19901, Note_on_c, 5, 73, 93
6, 19901, Pitch_bend_c, 5, 8160
6, 19904, Pitch_bend_c, 5, 8128
6, 19905, Pitch_bend_c, 5, 8064
6, 19907, Pitch_bend_c, 5, 8000
6, 19908, Pitch_bend_c, 5, 7936
6, 19909, Pitch_bend_c, 5, 7840
6, 19912, Pitch_bend_c, 5, 7808
6, 19915, Pitch_bend_c, 5, 7840
6, 19916, Pitch_bend_c, 5, 7872
6, 19920, Pitch_bend_c, 5, 7936
6, 19922, Pitch_bend_c, 5, 7872
6, 19923, Pitch_bend_c, 5, 7840
6, 19925, Pitch_bend_c, 5, 7776
6, 19926, Pitch_bend_c, 5, 7680
6, 19927, Pitch_bend_c, 5, 7648
6, 19929, Pitch_bend_c, 5, 7680
6, 19930, Pitch_bend_c, 5, 7744
6, 19932, Pitch_bend_c, 5, 7808
6, 19933, Pitch_bend_c, 5, 7840
6, 19938, Pitch_bend_c, 5, 7872
6, 19939, Pitch_bend_c, 5, 8000
6, 19940, Pitch_bend_c, 5, 8192
6, 19942, Pitch_bend_c, 5, 8608
6, 19943, Pitch_bend_c, 5, 9312
6, 19944, Pitch_bend_c, 5, 12288
6, 19946, Pitch_bend_c, 5, 12480
6, 19947, Pitch_bend_c, 5, 12640
6, 19949, Pitch_bend_c, 5, 12768
6, 19950, Pitch_bend_c, 5, 12896
6, 19951, Pitch_bend_c, 5, 12864
6, 19952, Note_on_c, 5, 73, 0
6, 20249, Pitch_bend_c, 5, 8192
6, 20251, Note_on_c, 5, 68, 79
6, 20252, Pitch_bend_c, 5, 8448
6, 20253, Pitch_bend_c, 5, 8192
6, 20253, Note_on_c, 5, 73, 84
6, 20271, Note_on_c, 5, 68, 0
6, 20272, Note_on_c, 5, 73, 0
6, 20272, Pitch_bend_c, 5, 7936
6, 20274, Pitch_bend_c, 5, 8192
6, 20275, Note_on_c, 5, 70, 91
6, 20275, Pitch_bend_c, 5, 8640
6, 20276, Pitch_bend_c, 5, 8448
6, 20278, Pitch_bend_c, 5, 8416
6, 20281, Pitch_bend_c, 5, 8384
6, 20282, Pitch_bend_c, 5, 8352
6, 20284, Note_on_c, 5, 70, 0
6, 20284, Pitch_bend_c, 5, 8480
6, 20285, Note_on_c, 5, 68, 89
6, 20285, Pitch_bend_c, 5, 8192
6, 20286, Pitch_bend_c, 5, 8160
6, 20287, Pitch_bend_c, 5, 8192
6, 20288, Pitch_bend_c, 5, 8128
6, 20291, Pitch_bend_c, 5, 8064
6, 20293, Pitch_bend_c, 5, 8000
6, 20294, Pitch_bend_c, 5, 8032
6, 20297, Pitch_bend_c, 5, 8064
6, 20298, Pitch_bend_c, 5, 8000
6, 20299, Pitch_bend_c, 5, 8128
6, 20301, Pitch_bend_c, 5, 8576
6, 20302, Pitch_bend_c, 5, 11968
6, 20304, Pitch_bend_c, 5, 12096
6, 20305, Pitch_bend_c, 5, 11968
6, 20307, Pitch_bend_c, 5, 9696
6, 20308, Pitch_bend_c, 5, 9376
6, 20309, Pitch_bend_c, 5, 8896
6, 20311, Pitch_bend_c, 5, 8480
6, 20312, Pitch_bend_c, 5, 8096
6, 20314, Pitch_bend_c, 5, 7968
6, 20316, Pitch_bend_c, 5, 8032
6, 20318, Pitch_bend_c, 5, 8480
6, 20319, Pitch_bend_c, 5, 11104
6, 20322, Pitch_bend_c, 5, 11072
6, 20323, Pitch_bend_c, 5, 10624
6, 20325, Note_on_c, 5, 68, 0
6, 20325, Pitch_bend_c, 5, 11104
6, 20946, Pitch_bend_c, 5, 8192
6, 20947, Note_on_c, 5, 67, 99
6, 20947, Pitch_bend_c, 5, 8928
6, 20948, Pitch_bend_c, 5, 8896
6, 20949, Pitch_bend_c, 5, 8192
6, 20949, Note_on_c, 5, 70, 99
6, 20955, Note_on_c, 5, 70, 0
6, 20957, Pitch_bend_c, 5, 8672
6, 20958, Note_on_c, 5, 67, 0
6, 20958, Pitch_bend_c, 5, 8544
6, 20966, Note_on_c, 5, 70, 89
6, 20966, Pitch_bend_c, 5, 8192
6, 20967, Pitch_bend_c, 5, 8032
6, 20969, Pitch_bend_c, 5, 8000
6, 20970, Pitch_bend_c, 5, 7968
6, 20972, Pitch_bend_c, 5, 7904
6, 20973, Pitch_bend_c, 5, 7872
6, 20978, Pitch_bend_c, 5, 7936
6, 20979, Pitch_bend_c, 5, 7840
6, 20980, Note_on_c, 5, 70, 0
6, 20980, Pitch_bend_c, 5, 7968
6, 20984, Pitch_bend_c, 5, 8192
6, 20984, Note_on_c, 5, 73, 88
6, 20985, Pitch_bend_c, 5, 8224
6, 20986, Pitch_bend_c, 5, 8256
6, 20989, Pitch_bend_c, 5, 8224
6, 20993, Pitch_bend_c, 5, 8256
6, 20994, Pitch_bend_c, 5, 8288
6, 20997, Pitch_bend_c, 5, 8352
6, 20998, Pitch_bend_c, 5, 8384
6, 21000, Note_on_c, 5, 73, 0
6, 21005, Pitch_bend_c, 5, 8192
6, 21006, Note_on_c, 5, 75, 93
6, 21006, Pitch_bend_c, 5, 8352
6, 21011, Pitch_bend_c, 5, 8320
6, 21013, Pitch_bend_c, 5, 8224
6, 21014, Pitch_bend_c, 5, 8192
6, 21015, Pitch_bend_c, 5, 8160
6, 21017, Pitch_bend_c, 5, 8064
6, 21021, Pitch_bend_c, 5, 8128
6, 21023, Pitch_bend_c, 5, 8192
6, 21024, Pitch_bend_c, 5, 8256
6, 21026, Pitch_bend_c, 5, 8448
6, 21027, Pitch_bend_c, 5, 8960
6, 21028, Pitch_bend_c, 5, 11328
6, 21030, Pitch_bend_c, 5, 11584
6, 21031, Pitch_bend_c, 5, 12128
6, 21033, Pitch_bend_c, 5, 12768
6, 21034, Note_on_c, 5, 75, 0
6, 21034, Pitch_bend_c, 5, 13440
6, 21048, Pitch_bend_c, 5, 8192
6, 21049, Note_on_c, 5, 73, 89
6, 21049, Pitch_bend_c, 5, 8576
6, 21050, Pitch_bend_c, 5, 8512
6, 21053, Pitch_bend_c, 5, 8448
6, 21054, Pitch_bend_c, 5, 8384
6, 21055, Pitch_bend_c, 5, 8352
6, 21057, Pitch_bend_c, 5, 8288
6, 21058, Pitch_bend_c, 5, 8224
6, 21062, Pitch_bend_c, 5, 8192
6, 21064, Pitch_bend_c, 5, 8224
6, 21065, Pitch_bend_c, 5, 8192
6, 21067, Pitch_bend_c, 5, 8160
6, 21068, Pitch_bend_c, 5, 8224
6, 21070, Pitch_bend_c, 5, 8512
6, 21071, Pitch_bend_c, 5, 10880
6, 21072, Pitch_bend_c, 5, 11072
6, 21074, Pitch_bend_c, 5, 11328
6, 21075, Pitch_bend_c, 5, 11520
6, 21077, Pitch_bend_c, 5, 11616
6, 21078, Pitch_bend_c, 5, 11360
6, 21079, Pitch_bend_c, 5, 10752
6, 21080, Note_on_c, 5, 73, 0
6, 21080, Pitch_bend_c, 5, 11328
6, 21082, Pitch_bend_c, 5, 8192
6, 21095, Note_on_c, 5, 70, 84
6, 21095, Pitch_bend_c, 5, 8096
6, 21101, Pitch_bend_c, 5, 8032
6, 21102, Pitch_bend_c, 5, 7936
6, 21104, Pitch_bend_c, 5, 7872
6, 21105, Pitch_bend_c, 5, 7808
6, 21107, Pitch_bend_c, 5, 7776
6, 21108, Pitch_bend_c, 5, 7712
6, 21113, Pitch_bend_c, 5, 7744
6, 21117, Pitch_bend_c, 5, 7776
6, 21118, Pitch_bend_c, 5, 7744
6, 21124, Pitch_bend_c, 5, 7840
6, 21125, Pitch_bend_c, 5, 7968
6, 21127, Pitch_bend_c, 5, 8192
6, 21128, Pitch_bend_c, 5, 8608
6, 21129, Pitch_bend_c, 5, 8992
6, 21131, Pitch_bend_c, 5, 9408
6, 21132, Pitch_bend_c, 5, 9696
6, 21133, Pitch_bend_c, 5, 9856
6, 21135, Pitch_bend_c, 5, 9600
6, 21136, Pitch_bend_c, 5, 8992
6, 21137, Pitch_bend_c, 5, 8384
6, 21139, Pitch_bend_c, 5, 7904
6, 21140, Pitch_bend_c, 5, 7648
6, 21142, Pitch_bend_c, 5, 7712
6, 21143, Pitch_bend_c, 5, 7936
6, 21145, Pitch_bend_c, 5, 8352
6, 21146, Pitch_bend_c, 5, 10848
6, 21147, Pitch_bend_c, 5, 11008
6, 21149, Pitch_bend_c, 5, 11040
6, 21150, Pitch_bend_c, 5, 10848
6, 21152, Pitch_bend_c, 5, 8448
6, 21153, Pitch_bend_c, 5, 8288
6, 21154, Pitch_bend_c, 5, 8096
6, 21156, Pitch_bend_c, 5, 7904
6, 21158, Pitch_bend_c, 5, 7776
6, 21159, Pitch_bend_c, 5, 7904
6, 21160, Pitch_bend_c, 5, 8224
6, 21161, Pitch_bend_c, 5, 8768
6, 21163, Pitch_bend_c, 5, 9312
6, 21164, Pitch_bend_c, 5, 9728
6, 21166, Pitch_bend_c, 5, 9888
6, 21167, Pitch_bend_c, 5, 9792
6, 21168, Note_on_c, 5, 70, 0
6, 21563, Note_on_c, 5, 64, 93
6, 21563, Pitch_bend_c, 5, 8192
6, 21564, Pitch_bend_c, 5, 8096
6, 21565, Pitch_bend_c, 5, 8128
6, 21566, Pitch_bend_c, 5, 8096
6, 21569, Pitch_bend_c, 5, 8064
6, 21572, Pitch_bend_c, 5, 8032
6, 21573, Pitch_bend_c, 5, 8000
6, 21577, Pitch_bend_c, 5, 7968
6, 21580, Pitch_bend_c, 5, 7936
6, 21581, Pitch_bend_c, 5, 7904
6, 21588, Pitch_bend_c, 5, 7936
6, 21590, Pitch_bend_c, 5, 8192
6, 21591, Pitch_bend_c, 5, 11936
6, 21593, Pitch_bend_c, 5, 11968
6, 21595, Pitch_bend_c, 5, 12032
6, 21597, Pitch_bend_c, 5, 12064
6, 21599, Pitch_bend_c, 5, 12128
6, 21602, Pitch_bend_c, 5, 12160
6, 21604, Pitch_bend_c, 5, 12096
6, 21605, Note_on_c, 5, 73, 89
6, 21646, Note_on_c, 5, 64, 0
6, 21648, Note_on_c, 5, 73, 0
6, 21659, Note_on_c, 5, 62, 67
6, 21659, Pitch_bend_c, 5, 8384
6, 21660, Pitch_bend_c, 5, 8000
6, 21661, Pitch_bend_c, 5, 8064
6, 21663, Pitch_bend_c, 5, 8096
6, 21665, Pitch_bend_c, 5, 8128
6, 21670, Pitch_bend_c, 5, 8096
6, 21672, Pitch_bend_c, 5, 8064
6, 21674, Pitch_bend_c, 5, 8032
6, 21675, Pitch_bend_c, 5, 8000
6, 21676, Pitch_bend_c, 5, 8032
6, 21678, Pitch_bend_c, 5, 11904
6, 21679, Pitch_bend_c, 5, 11936
6, 21681, Pitch_bend_c, 5, 11968
6, 21682, Pitch_bend_c, 5, 12000
6, 21684, Pitch_bend_c, 5, 12064
6, 21686, Pitch_bend_c, 5, 12096
6, 21688, Pitch_bend_c, 5, 12128
6, 21689, Pitch_bend_c, 5, 12160
6, 21690, Pitch_bend_c, 5, 12192
6, 21695, Pitch_bend_c, 5, 12160
6, 21696, Note_on_c, 5, 71, 75
6, 21748, Note_on_c, 5, 62, 0
6, 21755, Note_on_c, 5, 71, 0
6, 21757, Note_on_c, 5, 65, 97
6, 21757, Pitch_bend_c, 5, 8384
6, 21758, Pitch_bend_c, 5, 8352
6, 21769, Pitch_bend_c, 5, 8384
6, 21770, Pitch_bend_c, 5, 8416
6, 21772, Note_on_c, 5, 65, 0
6, 21773, Pitch_bend_c, 5, 8192
6, 21774, Note_on_c, 5, 63, 74
6, 21774, Pitch_bend_c, 5, 8064
6, 21775, Pitch_bend_c, 5, 7744
6, 21780, Pitch_bend_c, 5, 7968
6, 21781, Pitch_bend_c, 5, 8160
6, 21787, Pitch_bend_c, 5, 8128
6, 21790, Note_on_c, 5, 63, 0
6, 21790, Pitch_bend_c, 5, 8192
6, 21793, Note_on_c, 5, 61, 38
6, 21794, Pitch_bend_c, 5, 8032
6, 21795, Pitch_bend_c, 5, 8064
6, 21798, Pitch_bend_c, 5, 8096
6, 21799, Pitch_bend_c, 5, 8128
6, 21801, Pitch_bend_c, 5, 8160
6, 21802, Pitch_bend_c, 5, 8192
6, 21803, Pitch_bend_c, 5, 8224
6, 21806, Pitch_bend_c, 5, 8192
6, 21807, Pitch_bend_c, 5, 8160
6, 21809, Pitch_bend_c, 5, 8224
6, 21810, Pitch_bend_c, 5, 8672
6, 21812, Pitch_bend_c, 5, 11680
6, 21813, Pitch_bend_c, 5, 11776
6, 21814, Pitch_bend_c, 5, 11840
6, 21816, Pitch_bend_c, 5, 11776
6, 21817, Pitch_bend_c, 5, 9568
6, 21819, Pitch_bend_c, 5, 9280
6, 21820, Pitch_bend_c, 5, 8992
6, 21822, Pitch_bend_c, 5, 8672
6, 21823, Pitch_bend_c, 5, 8320
6, 21824, Pitch_bend_c, 5, 8352
6, 21826, Pitch_bend_c, 5, 8288
6, 21829, Pitch_bend_c, 5, 8320
6, 21830, Pitch_bend_c, 5, 8288
6, 21832, Note_on_c, 5, 61, 0
6, 21832, Pitch_bend_c, 5, 8352
6, 21838, Pitch_bend_c, 5, 8192
6, 21839, Note_on_c, 5, 63, 61
6, 21839, Pitch_bend_c, 5, 8096
6, 21840, Pitch_bend_c, 5, 7904
6, 21842, Pitch_bend_c, 5, 12000
6, 21843, Pitch_bend_c, 5, 12032
6, 21844, Pitch_bend_c, 5, 15968
6, 21848, Pitch_bend_c, 5, 16032
6, 21850, Pitch_bend_c, 5, 16064
6, 21851, Pitch_bend_c, 5, 16128
6, 21853, Note_on_c, 5, 63, 0
6, 21853, Note_on_c, 5, 70, 91
6, 21853, Pitch_bend_c, 5, 8192
6, 21858, Pitch_bend_c, 5, 8160
6, 21860, Pitch_bend_c, 5, 8128
6, 21861, Pitch_bend_c, 5, 8096
6, 21869, Note_on_c, 5, 70, 0
6, 21871, Pitch_bend_c, 5, 8192
6, 21872, Note_on_c, 5, 70, 88
6, 21872, Pitch_bend_c, 5, 8096
6, 21873, Pitch_bend_c, 5, 8032
6, 21877, Pitch_bend_c, 5, 8064
6, 21879, Pitch_bend_c, 5, 8096
6, 21884, Note_on_c, 5, 70, 0
6, 21885, Pitch_bend_c, 5, 8192
6, 21886, Note_on_c, 5, 70, 92
6, 21886, Pitch_bend_c, 5, 8288
6, 21887, Pitch_bend_c, 5, 8192
6, 21889, Pitch_bend_c, 5, 8160
6, 21892, Pitch_bend_c, 5, 8064
6, 21893, Pitch_bend_c, 5, 8032
6, 21895, Pitch_bend_c, 5, 7968
6, 21896, Pitch_bend_c, 5, 7936
6, 21897, Pitch_bend_c, 5, 7968
6, 21899, Pitch_bend_c, 5, 8000
6, 21902, Pitch_bend_c, 5, 8032
6, 21908, Pitch_bend_c, 5, 8000
6, 21914, Pitch_bend_c, 5, 8064
6, 21915, Pitch_bend_c, 5, 8192
6, 21915, Note_on_c, 5, 73, 91
6, 21917, Note_on_c, 5, 70, 0
6, 21918, Pitch_bend_c, 5, 8736
6, 21920, Pitch_bend_c, 5, 8768
6, 21921, Pitch_bend_c, 5, 8832
6, 21923, Pitch_bend_c, 5, 8896
6, 21924, Pitch_bend_c, 5, 8992
6, 21926, Pitch_bend_c, 5, 9184
6, 21927, Pitch_bend_c, 5, 9376
6, 21928, Pitch_bend_c, 5, 9664
6, 21930, Pitch_bend_c, 5, 9952
6, 21931, Pitch_bend_c, 5, 10208
6, 21932, Pitch_bend_c, 5, 10368
6, 21934, Pitch_bend_c, 5, 10464
6, 21935, Pitch_bend_c, 5, 10528
6, 21938, Pitch_bend_c, 5, 10432
6, 21939, Pitch_bend_c, 5, 10304
6, 21940, Note_on_c, 5, 73, 0
6, 21977, Pitch_bend_c, 5, 8192
6, 21981, Note_on_c, 5, 75, 93
6, 21981, Pitch_bend_c, 5, 8064
6, 21982, Pitch_bend_c, 5, 7904
6, 21986, Pitch_bend_c, 5, 8000
6, 21987, Pitch_bend_c, 5, 8192
6, 21988, Pitch_bend_c, 5, 8736
6, 21990, Pitch_bend_c, 5, 11584
6, 21991, Pitch_bend_c, 5, 11968
6, 21992, Pitch_bend_c, 5, 12512
6, 21994, Pitch_bend_c, 5, 13152
6, 21995, Pitch_bend_c, 5, 13728
6, 21996, Pitch_bend_c, 5, 13952
6, 21998, Pitch_bend_c, 5, 13760
6, 21999, Pitch_bend_c, 5, 10816
6, 22001, Pitch_bend_c, 5, 10400
6, 22002, Pitch_bend_c, 5, 7872
6, 22003, Pitch_bend_c, 5, 7904
6, 22005, Pitch_bend_c, 5, 10816
6, 22006, Note_on_c, 5, 75, 0
6, 22007, Pitch_bend_c, 5, 8192
6, 22008, Note_on_c, 5, 73, 86
6, 22008, Pitch_bend_c, 5, 8256
6, 22010, Pitch_bend_c, 5, 8192
6, 22014, Note_on_c, 5, 73, 0
6, 22017, Note_on_c, 5, 70, 84
6, 22017, Pitch_bend_c, 5, 8384
6, 22020, Pitch_bend_c, 5, 8352
6, 22021, Pitch_bend_c, 5, 8320
6, 22022, Pitch_bend_c, 5, 8288
6, 22024, Pitch_bend_c, 5, 8224
6, 22025, Pitch_bend_c, 5, 8192
6, 22026, Pitch_bend_c, 5, 8128
6, 22033, Pitch_bend_c, 5, 8160
6, 22036, Pitch_bend_c, 5, 8192
6, 22039, Pitch_bend_c, 5, 8384
6, 22040, Pitch_bend_c, 5, 8864
6, 22042, Pitch_bend_c, 5, 9504
6, 22043, Pitch_bend_c, 5, 10208
6, 22044, Pitch_bend_c, 5, 10752
6, 22046, Pitch_bend_c, 5, 10944
6, 22047, Pitch_bend_c, 5, 10496
6, 22049, Pitch_bend_c, 5, 7904
6, 22050, Pitch_bend_c, 5, 7936
6, 22052, Pitch_bend_c, 5, 8000
6, 22053, Pitch_bend_c, 5, 8032
6, 22055, Pitch_bend_c, 5, 8064
6, 22056, Pitch_bend_c, 5, 8128
6, 22057, Pitch_bend_c, 5, 8512
6, 22059, Pitch_bend_c, 5, 11232
6, 22060, Pitch_bend_c, 5, 11296
6, 22063, Pitch_bend_c, 5, 11008
6, 22064, Pitch_bend_c, 5, 8640
6, 22066, Pitch_bend_c, 5, 8480
6, 22067, Pitch_bend_c, 5, 8288
6, 22068, Pitch_bend_c, 5, 8192
6, 22070, Pitch_bend_c, 5, 8064
6, 22071, Pitch_bend_c, 5, 8096
6, 22072, Pitch_bend_c, 5, 8256
6, 22074, Pitch_bend_c, 5, 8832
6, 22075, Pitch_bend_c, 5, 9504
6, 22077, Pitch_bend_c, 5, 10208
6, 22078, Pitch_bend_c, 5, 10656
6, 22080, Pitch_bend_c, 5, 10560
6, 22081, Pitch_bend_c, 5, 10144
6, 22082, Pitch_bend_c, 5, 9536
6, 22084, Pitch_bend_c, 5, 8864
6, 22085, Pitch_bend_c, 5, 8256
6, 22086, Pitch_bend_c, 5, 7936
6, 22087, Note_on_c, 5, 70, 0
6, 22087, Pitch_bend_c, 5, 10144
6, 22553, Pitch_bend_c, 5, 8192
6, 22554, Note_on_c, 5, 67, 105
6, 22554, Pitch_bend_c, 5, 8992
6, 22555, Pitch_bend_c, 5, 8192
6, 22555, Note_on_c, 5, 70, 105
6, 22560, Note_on_c, 5, 67, 0
6, 22560, Pitch_bend_c, 5, 8992
6, 22561, Pitch_bend_c, 5, 8960
6, 22562, Pitch_bend_c, 5, 8928
6, 22565, Pitch_bend_c, 5, 8896
6, 22568, Pitch_bend_c, 5, 8832
6, 22569, Pitch_bend_c, 5, 8928
6, 22570, Note_on_c, 5, 70, 0
6, 22571, Pitch_bend_c, 5, 8864
6, 22572, Pitch_bend_c, 5, 8768
6, 22574, Pitch_bend_c, 5, 8736
6, 22575, Pitch_bend_c, 5, 8192
6, 22576, Note_on_c, 5, 70, 89
6, 22576, Pitch_bend_c, 5, 8064
6, 22580, Pitch_bend_c, 5, 8032
6, 22581, Pitch_bend_c, 5, 8000
6, 22582, Pitch_bend_c, 5, 7904
6, 22585, Pitch_bend_c, 5, 7936
6, 22586, Note_on_c, 5, 70, 0
6, 22586, Pitch_bend_c, 5, 8064
6, 22587, Pitch_bend_c, 5, 8192
6, 22588, Note_on_c, 5, 73, 91
6, 22588, Pitch_bend_c, 5, 8864
6, 22589, Pitch_bend_c, 5, 8608
6, 22592, Pitch_bend_c, 5, 8416
6, 22593, Pitch_bend_c, 5, 8384
6, 22596, Pitch_bend_c, 5, 8288
6, 22600, Pitch_bend_c, 5, 8256
6, 22602, Pitch_bend_c, 5, 8224
6, 22604, Pitch_bend_c, 5, 8192
6, 22607, Pitch_bend_c, 5, 8160
6, 22609, Note_on_c, 5, 73, 0
6, 22609, Pitch_bend_c, 5, 8256
6, 22618, Pitch_bend_c, 5, 8192
6, 22619, Note_on_c, 5, 75, 93
6, 22619, Pitch_bend_c, 5, 8544
6, 22620, Pitch_bend_c, 5, 8480
6, 22621, Pitch_bend_c, 5, 8448
6, 22623, Pitch_bend_c, 5, 8416
6, 22624, Pitch_bend_c, 5, 8352
6, 22628, Pitch_bend_c, 5, 8256
6, 22629, Pitch_bend_c, 5, 8192
6, 22631, Pitch_bend_c, 5, 8256
6, 22632, Pitch_bend_c, 5, 8672
6, 22634, Pitch_bend_c, 5, 11264
6, 22635, Pitch_bend_c, 5, 11488
6, 22636, Pitch_bend_c, 5, 11808
6, 22638, Pitch_bend_c, 5, 12192
6, 22639, Pitch_bend_c, 5, 12576
6, 22641, Note_on_c, 5, 75, 0
6, 22641, Pitch_bend_c, 5, 12704
6, 22655, Pitch_bend_c, 5, 8192
6, 22656, Note_on_c, 5, 70, 89
6, 22656, Pitch_bend_c, 5, 8416
6, 22659, Pitch_bend_c, 5, 8448
6, 22660, Pitch_bend_c, 5, 8416
6, 22661, Pitch_bend_c, 5, 8384
6, 22664, Pitch_bend_c, 5, 8352
6, 22666, Pitch_bend_c, 5, 8288
6, 22667, Pitch_bend_c, 5, 8224
6, 22668, Pitch_bend_c, 5, 8160
6, 22670, Pitch_bend_c, 5, 8128
6, 22671, Pitch_bend_c, 5, 8096
6, 22672, Pitch_bend_c, 5, 8064
6, 22674, Pitch_bend_c, 5, 8032
6, 22677, Pitch_bend_c, 5, 8000
6, 22679, Pitch_bend_c, 5, 7968
6, 22681, Pitch_bend_c, 5, 7936
6, 22682, Pitch_bend_c, 5, 7904
6, 22683, Pitch_bend_c, 5, 7840
6, 22688, Pitch_bend_c, 5, 7872
6, 22689, Pitch_bend_c, 5, 7904
6, 22691, Pitch_bend_c, 5, 8032
6, 22692, Pitch_bend_c, 5, 8288
6, 22694, Pitch_bend_c, 5, 8896
6, 22695, Pitch_bend_c, 5, 11232
6, 22696, Pitch_bend_c, 5, 11392
6, 22698, Pitch_bend_c, 5, 11584
6, 22699, Pitch_bend_c, 5, 11712
6, 22701, Pitch_bend_c, 5, 11776
6, 22702, Pitch_bend_c, 5, 9312
6, 22703, Pitch_bend_c, 5, 8896
6, 22705, Pitch_bend_c, 5, 8512
6, 22706, Pitch_bend_c, 5, 8192
6, 22707, Pitch_bend_c, 5, 7840
6, 22709, Pitch_bend_c, 5, 7904
6, 22710, Pitch_bend_c, 5, 8032
6, 22712, Pitch_bend_c, 5, 10304
6, 22713, Pitch_bend_c, 5, 10688
6, 22714, Pitch_bend_c, 5, 11136
6, 22716, Pitch_bend_c, 5, 11520
6, 22717, Pitch_bend_c, 5, 11712
6, 22719, Pitch_bend_c, 5, 9472
6, 22720, Pitch_bend_c, 5, 9088
6, 22721, Pitch_bend_c, 5, 8608
6, 22723, Pitch_bend_c, 5, 8224
6, 22724, Pitch_bend_c, 5, 7808
6, 22725, Pitch_bend_c, 5, 7744
6, 22727, Pitch_bend_c, 5, 7904
6, 22728, Pitch_bend_c, 5, 8192
6, 22729, Pitch_bend_c, 5, 8576
6, 22731, Pitch_bend_c, 5, 8960
6, 22734, Note_on_c, 5, 70, 0
6, 22734, Pitch_bend_c, 5, 8704
6, 23144, Pitch_bend_c, 5, 8192
6, 23147, Note_on_c, 5, 64, 97
6, 23147, Pitch_bend_c, 5, 8352
6, 23148, Pitch_bend_c, 5, 8384
6, 23150, Pitch_bend_c, 5, 8320
6, 23151, Pitch_bend_c, 5, 8288
6, 23152, Pitch_bend_c, 5, 8224
6, 23154, Pitch_bend_c, 5, 8192
6, 23155, Pitch_bend_c, 5, 8096
6, 23157, Pitch_bend_c, 5, 8032
6, 23158, Pitch_bend_c, 5, 7936
6, 23159, Pitch_bend_c, 5, 8128
6, 23161, Pitch_bend_c, 5, 11904
6, 23162, Pitch_bend_c, 5, 11936
6, 23164, Pitch_bend_c, 5, 11968
6, 23166, Pitch_bend_c, 5, 12064
6, 23167, Pitch_bend_c, 5, 12160
6, 23169, Pitch_bend_c, 5, 12224
6, 23170, Pitch_bend_c, 5, 12320
6, 23172, Pitch_bend_c, 5, 12288
6, 23173, Pitch_bend_c, 5, 8864
6, 23174, Pitch_bend_c, 5, 12160
6, 23175, Note_on_c, 5, 64, 0
6, 23175, Pitch_bend_c, 5, 8192
6, 23176, Note_on_c, 5, 65, 93
6, 23180, Pitch_bend_c, 5, 8224
6, 23182, Pitch_bend_c, 5, 8256
6, 23183, Pitch_bend_c, 5, 8288
6, 23186, Pitch_bend_c, 5, 8384
6, 23189, Pitch_bend_c, 5, 8192
6, 23189, Note_on_c, 5, 70, 94
6, 23210, Note_on_c, 5, 65, 0
6, 23211, Note_on_c, 5, 70, 0
6, 23212, Pitch_bend_c, 5, 8224
6, 23215, Pitch_bend_c, 5, 8192
6, 23216, Note_on_c, 5, 68, 93
6, 23216, Pitch_bend_c, 5, 8352
6, 23217, Pitch_bend_c, 5, 8448
6, 23218, Pitch_bend_c, 5, 8512
6, 23219, Pitch_bend_c, 5, 8704
6, 23221, Pitch_bend_c, 5, 8864
6, 23222, Pitch_bend_c, 5, 8832
6, 23224, Note_on_c, 5, 68, 0
6, 23224, Note_on_c, 5, 64, 87
6, 23224, Pitch_bend_c, 5, 12160
6, 23225, Pitch_bend_c, 5, 12192
6, 23227, Pitch_bend_c, 5, 12096
6, 23228, Pitch_bend_c, 5, 12160
6, 23229, Pitch_bend_c, 5, 12224
6, 23231, Pitch_bend_c, 5, 12288
6, 23233, Pitch_bend_c, 5, 12352
6, 23234, Note_on_c, 5, 64, 0
6, 23236, Note_on_c, 5, 63, 89
6, 23236, Pitch_bend_c, 5, 8000
6, 23237, Pitch_bend_c, 5, 8128
6, 23238, Pitch_bend_c, 5, 8192
6, 23239, Pitch_bend_c, 5, 8160
6, 23241, Pitch_bend_c, 5, 8128
6, 23242, Pitch_bend_c, 5, 8064
6, 23244, Pitch_bend_c, 5, 8032
6, 23245, Pitch_bend_c, 5, 8000
6, 23248, Pitch_bend_c, 5, 7968
6, 23249, Pitch_bend_c, 5, 7936
6, 23256, Pitch_bend_c, 5, 7968
6, 23258, Pitch_bend_c, 5, 7936
6, 23259, Note_on_c, 5, 63, 0
6, 23260, Note_on_c, 5, 63, 95
6, 23260, Pitch_bend_c, 5, 8064
6, 23262, Pitch_bend_c, 5, 8320
6, 23264, Pitch_bend_c, 5, 8256
6, 23265, Pitch_bend_c, 5, 8192
6, 23267, Pitch_bend_c, 5, 8160
6, 23269, Pitch_bend_c, 5, 8192
6, 23271, Note_on_c, 5, 63, 0
6, 23271, Note_on_c, 5, 60, 68
6, 23271, Pitch_bend_c, 5, 12096
6, 23274, Pitch_bend_c, 5, 12128
6, 23275, Pitch_bend_c, 5, 12096
6, 23278, Note_on_c, 5, 60, 0
6, 23280, Note_on_c, 5, 58, 76
6, 23280, Pitch_bend_c, 5, 8160
6, 23283, Pitch_bend_c, 5, 8192
6, 23295, Pitch_bend_c, 5, 7968
6, 23296, Note_on_c, 5, 58, 0
6, 23296, Pitch_bend_c, 5, 8192
6, 23310, Note_on_c, 5, 58, 73
6, 23310, Pitch_bend_c, 5, 8128
6, 23311, Pitch_bend_c, 5, 8160
6, 23312, Pitch_bend_c, 5, 8192
6, 23317, Pitch_bend_c, 5, 8032
6, 23318, Pitch_bend_c, 5, 7840
6, 23319, Pitch_bend_c, 5, 8160
6, 23330, Note_on_c, 5, 58, 0
6, 23333, Note_on_c, 5, 58, 61
6, 23334, Pitch_bend_c, 5, 8192
6, 23342, Pitch_bend_c, 5, 8064
6, 23343, Pitch_bend_c, 5, 7904
6, 23344, Note_on_c, 5, 58, 0
6, 23344, Pitch_bend_c, 5, 8192
6, 23346, Note_on_c, 5, 61, 97
6, 23347, Pitch_bend_c, 5, 7872
6, 23349, Pitch_bend_c, 5, 7936
6, 23350, Pitch_bend_c, 5, 7968
6, 23351, Pitch_bend_c, 5, 8000
6, 23353, Pitch_bend_c, 5, 8064
6, 23354, Pitch_bend_c, 5, 8128
6, 23361, Pitch_bend_c, 5, 8064
6, 23362, Pitch_bend_c, 5, 15584
6, 23365, Note_on_c, 5, 61, 0
6, 23365, Note_on_c, 5, 63, 97
6, 23365, Pitch_bend_c, 5, 8096
6, 23367, Pitch_bend_c, 5, 8224
6, 23368, Pitch_bend_c, 5, 8192
6, 23372, Pitch_bend_c, 5, 8224
6, 23373, Pitch_bend_c, 5, 8192
6, 23376, Pitch_bend_c, 5, 8160
6, 23377, Pitch_bend_c, 5, 7872
6, 23379, Pitch_bend_c, 5, 7552
6, 23380, Note_on_c, 5, 63, 0
6, 23380, Pitch_bend_c, 5, 8192
6, 23386, Note_on_c, 5, 61, 99
6, 23387, Pitch_bend_c, 5, 8288
6, 23390, Pitch_bend_c, 5, 8352
6, 23391, Pitch_bend_c, 5, 8320
6, 23393, Pitch_bend_c, 5, 8288
6, 23394, Pitch_bend_c, 5, 8256
6, 23396, Pitch_bend_c, 5, 8192
6, 23397, Pitch_bend_c, 5, 8160
6, 23398, Pitch_bend_c, 5, 8096
6, 23400, Pitch_bend_c, 5, 7936
6, 23401, Pitch_bend_c, 5, 7872
6, 23404, Pitch_bend_c, 5, 8064
6, 23405, Pitch_bend_c, 5, 8448
6, 23406, Pitch_bend_c, 5, 8992
6, 23408, Pitch_bend_c, 5, 9600
6, 23410, Pitch_bend_c, 5, 10240
6, 23411, Pitch_bend_c, 5, 10784
6, 23413, Pitch_bend_c, 5, 11136
6, 23414, Pitch_bend_c, 5, 11200
6, 23415, Pitch_bend_c, 5, 10944
6, 23416, Pitch_bend_c, 5, 10400
6, 23418, Pitch_bend_c, 5, 9824
6, 23419, Note_on_c, 5, 61, 0
6, 23419, Pitch_bend_c, 5, 11136
6, 23421, Note_on_c, 5, 58, 91
6, 23421, Pitch_bend_c, 5, 8224
6, 23422, Pitch_bend_c, 5, 8256
6, 23425, Pitch_bend_c, 5, 8288
6, 23426, Pitch_bend_c, 5, 8352
6, 23428, Pitch_bend_c, 5, 8320
6, 23431, Note_on_c, 5, 58, 0
6, 23431, Pitch_bend_c, 5, 8192
6, 23432, Note_on_c, 5, 56, 84
6, 23433, Pitch_bend_c, 5, 8224
6, 23434, Pitch_bend_c, 5, 8192
6, 23439, Note_on_c, 5, 56, 0
6, 23440, Note_on_c, 5, 53, 71
6, 23440, Pitch_bend_c, 5, 7936
6, 23441, Pitch_bend_c, 5, 7968
6, 23442, Pitch_bend_c, 5, 8000
6, 23449, Pitch_bend_c, 5, 8032
6, 23454, Pitch_bend_c, 5, 8000
6, 23459, Pitch_bend_c, 5, 7968
6, 23461, Pitch_bend_c, 5, 8000
6, 23480, Pitch_bend_c, 5, 7968
6, 23481, Pitch_bend_c, 5, 7936
6, 23483, Pitch_bend_c, 5, 7904
6, 23486, Pitch_bend_c, 5, 7872
6, 23487, Pitch_bend_c, 5, 7936
6, 23488, Note_on_c, 5, 53, 0
6, 23517, Pitch_bend_c, 5, 8192
6, 23518, Pitch_bend_c, 5, 4320
6, 23520, Pitch_bend_c, 5, 4704
6, 23521, Pitch_bend_c, 5, 8192
6, 23521, Note_on_c, 5, 68, 82
6, 23521, Note_on_c, 5, 70, 96
6, 23531, Note_on_c, 5, 68, 0
6, 23534, Note_on_c, 5, 65, 82
6, 23546, Note_on_c, 5, 63, 88
6, 23547, Note_on_c, 5, 70, 0
6, 23548, Note_on_c, 5, 65, 0
6, 23548, Pitch_bend_c, 5, 8064
6, 23552, Pitch_bend_c, 5, 8032
6, 23558, Pitch_bend_c, 5, 8000
6, 23559, Note_on_c, 5, 63, 0
6, 23561, Pitch_bend_c, 5, 8192
6, 23562, Note_on_c, 5, 61, 84
6, 23562, Pitch_bend_c, 5, 8032
6, 23564, Pitch_bend_c, 5, 8064
6, 23576, Pitch_bend_c, 5, 8032
6, 23581, Pitch_bend_c, 5, 8000
6, 23589, Pitch_bend_c, 5, 7968
6, 23591, Pitch_bend_c, 5, 8000
6, 23592, Pitch_bend_c, 5, 8192
6, 23593, Note_on_c, 5, 61, 0
6, 23595, Note_on_c, 5, 58, 86
6, 23601, Pitch_bend_c, 5, 8096
6, 23603, Pitch_bend_c, 5, 8192
6, 23604, Note_on_c, 5, 58, 0
6, 23605, Note_on_c, 5, 56, 74
6, 23605, Pitch_bend_c, 5, 8128
6, 23610, Pitch_bend_c, 5, 8096
6, 23611, Pitch_bend_c, 5, 8128
6, 23615, Pitch_bend_c, 5, 8192
6, 23615, Note_on_c, 5, 53, 71
6, 23616, Note_on_c, 5, 56, 0
6, 23616, Pitch_bend_c, 5, 7840
6, 23620, Pitch_bend_c, 5, 7872
6, 23621, Pitch_bend_c, 5, 7904
6, 23633, Pitch_bend_c, 5, 7872
6, 23649, Pitch_bend_c, 5, 7840
6, 23652, Pitch_bend_c, 5, 7808
6, 23654, Pitch_bend_c, 5, 7744
6, 23655, Note_on_c, 5, 53, 0
6, 23655, Pitch_bend_c, 5, 7680
6, 23678, Note_on_c, 5, 61, 91
6, 23680, Pitch_bend_c, 5, 8192
6, 23681, Note_on_c, 5, 67, 96
6, 23683, Note_on_c, 5, 70, 99
6, 23798, Note_on_c, 5, 61, 0
6, 23799, Note_on_c, 5, 67, 0
6, 23802, Pitch_bend_c, 5, 8288
6, 23804, Pitch_bend_c, 5, 8352
6, 23805, Pitch_bend_c, 5, 8192
6, 23805, Note_on_c, 5, 62, 57
6, 23807, Note_on_c, 5, 65, 58
6, 23808, Note_on_c, 5, 70, 0
6, 23809, Note_on_c, 5, 70, 18
6, 23927, Note_on_c, 5, 70, 0
6, 23929, Note_on_c, 5, 62, 0
6, 23929, Note_on_c, 5, 65, 0
6, 24026, Note_on_c, 5, 64, 66
6, 24026, Pitch_bend_c, 5, 8064
6, 24030, Pitch_bend_c, 5, 8000
6, 24031, Pitch_bend_c, 5, 7968
6, 24033, Pitch_bend_c, 5, 11200
6, 24034, Pitch_bend_c, 5, 11392
6, 24036, Pitch_bend_c, 5, 11584
6, 24037, Pitch_bend_c, 5, 11776
6, 24038, Pitch_bend_c, 5, 12000
6, 24040, Pitch_bend_c, 5, 12064
6, 24042, Pitch_bend_c, 5, 12096
6, 24043, Pitch_bend_c, 5, 12128
6, 24044, Pitch_bend_c, 5, 12160
6, 24050, Pitch_bend_c, 5, 12192
6, 24051, Pitch_bend_c, 5, 12160
6, 24054, Pitch_bend_c, 5, 12096
6, 24055, Pitch_bend_c, 5, 12160
6, 24056, Note_on_c, 5, 64, 0
6, 24056, Pitch_bend_c, 5, 8192
6, 24056, Note_on_c, 5, 74, 88
6, 24075, Pitch_bend_c, 5, 8288
6, 24079, Pitch_bend_c, 5, 8256
6, 24083, Pitch_bend_c, 5, 8192
6, 24086, Pitch_bend_c, 5, 8320
6, 24087, Pitch_bend_c, 5, 8512
6, 24089, Pitch_bend_c, 5, 8832
6, 24090, Pitch_bend_c, 5, 9088
6, 24092, Pitch_bend_c, 5, 9024
6, 24093, Pitch_bend_c, 5, 9152
6, 24095, Pitch_bend_c, 5, 9184
6, 24097, Pitch_bend_c, 5, 9312
6, 24099, Pitch_bend_c, 5, 9024
6, 24100, Pitch_bend_c, 5, 8704
6, 24102, Pitch_bend_c, 5, 8448
6, 24103, Pitch_bend_c, 5, 8320
6, 24106, Pitch_bend_c, 5, 8416
6, 24107, Pitch_bend_c, 5, 8640
6, 24109, Pitch_bend_c, 5, 8960
6, 24110, Pitch_bend_c, 5, 9344
6, 24112, Pitch_bend_c, 5, 9664
6, 24113, Pitch_bend_c, 5, 9920
6, 24114, Pitch_bend_c, 5, 9984
6, 24117, Pitch_bend_c, 5, 9952
6, 24119, Pitch_bend_c, 5, 9600
6, 24120, Pitch_bend_c, 5, 9184
6, 24121, Pitch_bend_c, 5, 8768
6, 24123, Pitch_bend_c, 5, 8384
6, 24124, Pitch_bend_c, 5, 8256
6, 24128, Pitch_bend_c, 5, 8288
6, 24130, Pitch_bend_c, 5, 8384
6, 24131, Pitch_bend_c, 5, 8512
6, 24133, Pitch_bend_c, 5, 8640
6, 24134, Pitch_bend_c, 5, 8704
6, 24135, Pitch_bend_c, 5, 8768
6, 24137, Pitch_bend_c, 5, 8704
6, 24138, Note_on_c, 5, 74, 0
6, 24138, Pitch_bend_c, 5, 8640
6, 24397, Pitch_bend_c, 5, 8192
6, 24398, Note_on_c, 5, 67, 96
6, 24398, Pitch_bend_c, 5, 9056
6, 24399, Pitch_bend_c, 5, 9024
6, 24400, Pitch_bend_c, 5, 8192
6, 24401, Note_on_c, 5, 70, 94
6, 24405, Pitch_bend_c, 5, 8960
6, 24406, Pitch_bend_c, 5, 8896
6, 24408, Note_on_c, 5, 70, 0
6, 24408, Pitch_bend_c, 5, 8800
6, 24409, Pitch_bend_c, 5, 8544
6, 24411, Note_on_c, 5, 67, 0
6, 24411, Pitch_bend_c, 5, 8288
6, 24416, Pitch_bend_c, 5, 8192
6, 24417, Note_on_c, 5, 70, 85
6, 24421, Pitch_bend_c, 5, 8224
6, 24424, Pitch_bend_c, 5, 8192
6, 24425, Pitch_bend_c, 5, 8064
6, 24427, Pitch_bend_c, 5, 7968
6, 24428, Pitch_bend_c, 5, 7904
6, 24429, Pitch_bend_c, 5, 8096
6, 24430, Note_on_c, 5, 70, 0
6, 24430, Pitch_bend_c, 5, 8192
6, 24434, Note_on_c, 5, 73, 90
6, 24435, Pitch_bend_c, 5, 9504
6, 24436, Pitch_bend_c, 5, 9376
6, 24437, Pitch_bend_c, 5, 9024
6, 24438, Pitch_bend_c, 5, 8864
6, 24440, Pitch_bend_c, 5, 8608
6, 24441, Pitch_bend_c, 5, 8448
6, 24442, Pitch_bend_c, 5, 8384
6, 24444, Pitch_bend_c, 5, 8288
6, 24445, Pitch_bend_c, 5, 8256
6, 24447, Pitch_bend_c, 5, 8224
6, 24448, Note_on_c, 5, 73, 0
6, 24448, Pitch_bend_c, 5, 8384
6, 24453, Pitch_bend_c, 5, 8192
6, 24454, Note_on_c, 5, 75, 86
6, 24454, Pitch_bend_c, 5, 8160
6, 24455, Pitch_bend_c, 5, 8128
6, 24458, Pitch_bend_c, 5, 8064
6, 24460, Pitch_bend_c, 5, 8000
6, 24461, Pitch_bend_c, 5, 7904
6, 24463, Pitch_bend_c, 5, 7936
6, 24464, Pitch_bend_c, 5, 7520
6, 24465, Note_on_c, 5, 75, 0
6, 24465, Pitch_bend_c, 5, 8064
6, 24473, Pitch_bend_c, 5, 8192
6, 24474, Note_on_c, 5, 73, 88
6, 24474, Pitch_bend_c, 5, 8416
6, 24475, Pitch_bend_c, 5, 8384
6, 24477, Pitch_bend_c, 5, 8352
6, 24480, Pitch_bend_c, 5, 8288
6, 24482, Pitch_bend_c, 5, 8256
6, 24485, Pitch_bend_c, 5, 8288
6, 24486, Pitch_bend_c, 5, 8352
6, 24488, Pitch_bend_c, 5, 8448
6, 24489, Pitch_bend_c, 5, 8704
6, 24491, Pitch_bend_c, 5, 9024
6, 24492, Pitch_bend_c, 5, 9472
6, 24493, Pitch_bend_c, 5, 10048
6, 24495, Pitch_bend_c, 5, 10560
6, 24496, Pitch_bend_c, 5, 11040
6, 24498, Pitch_bend_c, 5, 11328
6, 24499, Pitch_bend_c, 5, 11456
6, 24501, Pitch_bend_c, 5, 11136
6, 24502, Pitch_bend_c, 5, 8512
6, 24504, Note_on_c, 5, 73, 0
6, 24504, Pitch_bend_c, 5, 11040
6, 24513, Pitch_bend_c, 5, 8192
6, 24514, Note_on_c, 5, 70, 62
6, 24515, Pitch_bend_c, 5, 8160
6, 24518, Pitch_bend_c, 5, 8128
6, 24520, Pitch_bend_c, 5, 8096
6, 24521, Pitch_bend_c, 5, 8064
6, 24522, Pitch_bend_c, 5, 7808
6, 24523, Note_on_c, 5, 70, 0
6, 24523, Pitch_bend_c, 5, 8160
6, 24524, Note_on_c, 5, 68, 48
6, 24524, Pitch_bend_c, 5, 8064
6, 24525, Pitch_bend_c, 5, 8096
6, 24527, Pitch_bend_c, 5, 8128
6, 24529, Pitch_bend_c, 5, 8160
6, 24530, Pitch_bend_c, 5, 8192
6, 24535, Pitch_bend_c, 5, 8128
6, 24536, Pitch_bend_c, 5, 8032
6, 24537, Pitch_bend_c, 5, 8064
6, 24539, Pitch_bend_c, 5, 8384
6, 24541, Pitch_bend_c, 5, 8992
6, 24542, Pitch_bend_c, 5, 9728
6, 24543, Pitch_bend_c, 5, 10368
6, 24545, Pitch_bend_c, 5, 10528
6, 24546, Pitch_bend_c, 5, 10144
6, 24548, Pitch_bend_c, 5, 7936
6, 24549, Pitch_bend_c, 5, 7904
6, 24552, Pitch_bend_c, 5, 7872
6, 24554, Pitch_bend_c, 5, 7840
6, 24555, Pitch_bend_c, 5, 7936
6, 24556, Pitch_bend_c, 5, 8192
6, 24557, Pitch_bend_c, 5, 8864
6, 24559, Pitch_bend_c, 5, 9632
6, 24560, Pitch_bend_c, 5, 10336
6, 24562, Note_on_c, 5, 68, 0
6, 24562, Pitch_bend_c, 5, 10720
6, 24795, Pitch_bend_c, 5, 8192
6, 24798, Note_on_c, 5, 75, 100
6, 24798, Pitch_bend_c, 5, 7776
6, 24801, Pitch_bend_c, 5, 8000
6, 24802, Pitch_bend_c, 5, 8448
6, 24804, Pitch_bend_c, 5, 11264
6, 24805, Pitch_bend_c, 5, 11584
6, 24807, Pitch_bend_c, 5, 12128
6, 24808, Pitch_bend_c, 5, 12864
6, 24810, Pitch_bend_c, 5, 13728
6, 24811, Pitch_bend_c, 5, 14304
6, 24812, Pitch_bend_c, 5, 14688
6, 24814, Pitch_bend_c, 5, 14912
6, 24815, Pitch_bend_c, 5, 15072
6, 24816, Pitch_bend_c, 5, 15168
6, 24822, Pitch_bend_c, 5, 15104
6, 24823, Pitch_bend_c, 5, 15008
6, 24825, Pitch_bend_c, 5, 14912
6, 24826, Pitch_bend_c, 5, 14720
6, 24828, Pitch_bend_c, 5, 14528
6, 24829, Note_on_c, 5, 75, 0
6, 24829, Pitch_bend_c, 5, 15008
6, 24832, Note_on_c, 5, 76, 83
6, 24832, Pitch_bend_c, 5, 5600
6, 24835, Pitch_bend_c, 5, 5216
6, 24837, Pitch_bend_c, 5, 4672
6, 24838, Pitch_bend_c, 5, 4160
6, 24839, Pitch_bend_c, 5, 3712
6, 24841, Pitch_bend_c, 5, 3584
6, 24842, Pitch_bend_c, 5, 3712
6, 24844, Pitch_bend_c, 5, 3904
6, 24845, Note_on_c, 5, 76, 0
6, 24845, Note_on_c, 5, 72, 73
6, 24845, Pitch_bend_c, 5, 12000
6, 24850, Pitch_bend_c, 5, 12032
6, 24851, Pitch_bend_c, 5, 12064
6, 24853, Pitch_bend_c, 5, 12128
6, 24854, Note_on_c, 5, 72, 0
6, 24854, Pitch_bend_c, 5, 8192
6, 24854, Note_on_c, 5, 70, 91
6, 24863, Pitch_bend_c, 5, 8448
6, 24864, Pitch_bend_c, 5, 8384
6, 24866, Pitch_bend_c, 5, 8352
6, 24870, Pitch_bend_c, 5, 8320
6, 24871, Pitch_bend_c, 5, 8256
6, 24872, Pitch_bend_c, 5, 8224
6, 24874, Pitch_bend_c, 5, 8192
6, 24875, Pitch_bend_c, 5, 8096
6, 24878, Pitch_bend_c, 5, 8064
6, 24879, Pitch_bend_c, 5, 8032
6, 24881, Pitch_bend_c, 5, 7968
6, 24882, Pitch_bend_c, 5, 7904
6, 24883, Pitch_bend_c, 5, 7840
6, 24887, Note_on_c, 5, 70, 0
6, 24887, Pitch_bend_c, 5, 7712
6, 24888, Pitch_bend_c, 5, 8192
6, 24889, Note_on_c, 5, 73, 93
6, 24890, Pitch_bend_c, 5, 8384
6, 24894, Pitch_bend_c, 5, 8416
6, 24896, Pitch_bend_c, 5, 8448
6, 24897, Pitch_bend_c, 5, 8512
6, 24904, Pitch_bend_c, 5, 8544
6, 24906, Pitch_bend_c, 5, 8608
6, 24907, Pitch_bend_c, 5, 8672
6, 24910, Pitch_bend_c, 5, 8704
6, 24911, Pitch_bend_c, 5, 8736
6, 24913, Pitch_bend_c, 5, 8832
6, 24914, Pitch_bend_c, 5, 8992
6, 24915, Pitch_bend_c, 5, 9216
6, 24917, Pitch_bend_c, 5, 9760
6, 24918, Pitch_bend_c, 5, 10400
6, 24920, Pitch_bend_c, 5, 11072
6, 24921, Pitch_bend_c, 5, 11712
6, 24922, Pitch_bend_c, 5, 12128
6, 24924, Note_on_c, 5, 73, 0
6, 25557, Pitch_bend_c, 5, 8192
6, 25558, Note_on_c, 5, 67, 99
6, 25558, Pitch_bend_c, 5, 8992
6, 25559, Pitch_bend_c, 5, 9024
6, 25560, Pitch_bend_c, 5, 8192
6, 25560, Note_on_c, 5, 70, 97
6, 25565, Pitch_bend_c, 5, 8992
6, 25566, Pitch_bend_c, 5, 8928
6, 25568, Pitch_bend_c, 5, 8864
6, 25569, Note_on_c, 5, 70, 0
6, 25569, Pitch_bend_c, 5, 8768
6, 25571, Pitch_bend_c, 5, 8640
6, 25572, Pitch_bend_c, 5, 8416
6, 25573, Note_on_c, 5, 67, 0
6, 25578, Note_on_c, 5, 70, 89
6, 25578, Pitch_bend_c, 5, 8192
6, 25579, Pitch_bend_c, 5, 8224
6, 25580, Pitch_bend_c, 5, 8256
6, 25583, Pitch_bend_c, 5, 8224
6, 25584, Pitch_bend_c, 5, 8192
6, 25586, Pitch_bend_c, 5, 8160
6, 25588, Pitch_bend_c, 5, 8128
6, 25589, Pitch_bend_c, 5, 8096
6, 25591, Pitch_bend_c, 5, 8064
6, 25592, Pitch_bend_c, 5, 8128
6, 25593, Note_on_c, 5, 70, 0
6, 25593, Pitch_bend_c, 5, 8160
6, 25596, Pitch_bend_c, 5, 8192
6, 25598, Note_on_c, 5, 73, 93
6, 25598, Pitch_bend_c, 5, 8448
6, 25602, Pitch_bend_c, 5, 8416
6, 25604, Pitch_bend_c, 5, 8352
6, 25605, Pitch_bend_c, 5, 8256
6, 25606, Pitch_bend_c, 5, 8224
6, 25610, Pitch_bend_c, 5, 8192
6, 25612, Pitch_bend_c, 5, 8224
6, 25613, Note_on_c, 5, 73, 0
6, 25613, Pitch_bend_c, 5, 8352
6, 25619, Pitch_bend_c, 5, 8192
6, 25620, Note_on_c, 5, 75, 93
6, 25620, Pitch_bend_c, 5, 8256
6, 25624, Pitch_bend_c, 5, 8224
6, 25627, Pitch_bend_c, 5, 8192
6, 25628, Pitch_bend_c, 5, 8224
6, 25630, Pitch_bend_c, 5, 8320
6, 25632, Pitch_bend_c, 5, 8544
6, 25634, Pitch_bend_c, 5, 8896
6, 25635, Pitch_bend_c, 5, 9440
6, 25636, Pitch_bend_c, 5, 10144
6, 25638, Pitch_bend_c, 5, 10912
6, 25639, Pitch_bend_c, 5, 11552
6, 25640, Pitch_bend_c, 5, 12000
6, 25642, Pitch_bend_c, 5, 12224
6, 25643, Pitch_bend_c, 5, 12288
6, 25645, Note_on_c, 5, 75, 0
6, 25645, Pitch_bend_c, 5, 12032
6, 25648, Pitch_bend_c, 5, 8192
6, 25649, Note_on_c, 5, 77, 92
6, 25649, Pitch_bend_c, 5, 8576
6, 25650, Pitch_bend_c, 5, 8640
6, 25656, Pitch_bend_c, 5, 8576
6, 25657, Pitch_bend_c, 5, 8640
6, 25660, Pitch_bend_c, 5, 8672
6, 25662, Pitch_bend_c, 5, 8736
6, 25664, Pitch_bend_c, 5, 8800
6, 25665, Note_on_c, 5, 77, 0
6, 25673, Pitch_bend_c, 5, 8192
6, 25674, Note_on_c, 5, 73, 93
6, 25675, Pitch_bend_c, 5, 8352
6, 25678, Pitch_bend_c, 5, 8288
6, 25679, Pitch_bend_c, 5, 8384
6, 25681, Pitch_bend_c, 5, 8512
6, 25682, Pitch_bend_c, 5, 8704
6, 25683, Pitch_bend_c, 5, 8992
6, 25685, Pitch_bend_c, 5, 9216
6, 25686, Pitch_bend_c, 5, 9472
6, 25688, Pitch_bend_c, 5, 9696
6, 25689, Pitch_bend_c, 5, 9984
6, 25690, Pitch_bend_c, 5, 10304
6, 25692, Pitch_bend_c, 5, 10720
6, 25693, Pitch_bend_c, 5, 11232
6, 25695, Pitch_bend_c, 5, 11808
6, 25696, Pitch_bend_c, 5, 12288
6, 25697, Pitch_bend_c, 5, 12672
6, 25699, Note_on_c, 5, 73, 0
6, 25699, Pitch_bend_c, 5, 12800
6, 25713, Note_on_c, 5, 70, 87
6, 25713, Pitch_bend_c, 5, 7872
6, 25715, Pitch_bend_c, 5, 7840
6, 25716, Pitch_bend_c, 5, 7904
6, 25718, Pitch_bend_c, 5, 7936
6, 25719, Pitch_bend_c, 5, 7968
6, 25722, Pitch_bend_c, 5, 7904
6, 25723, Pitch_bend_c, 5, 7808
6, 25724, Pitch_bend_c, 5, 7680
6, 25726, Pitch_bend_c, 5, 7648
6, 25727, Pitch_bend_c, 5, 7584
6, 25730, Pitch_bend_c, 5, 7648
6, 25733, Pitch_bend_c, 5, 7680
6, 25734, Pitch_bend_c, 5, 7712
6, 25736, Pitch_bend_c, 5, 7872
6, 25737, Pitch_bend_c, 5, 8224
6, 25738, Pitch_bend_c, 5, 8832
6, 25740, Pitch_bend_c, 5, 9536
6, 25741, Pitch_bend_c, 5, 10208
6, 25742, Pitch_bend_c, 5, 10656
6, 25744, Pitch_bend_c, 5, 10848
6, 25745, Pitch_bend_c, 5, 10592
6, 25747, Pitch_bend_c, 5, 8160
6, 25748, Pitch_bend_c, 5, 8064
6, 25750, Pitch_bend_c, 5, 8000
6, 25751, Pitch_bend_c, 5, 7904
6, 25752, Pitch_bend_c, 5, 7808
6, 25755, Pitch_bend_c, 5, 8032
6, 25757, Pitch_bend_c, 5, 8576
6, 25758, Pitch_bend_c, 5, 11200
6, 25759, Pitch_bend_c, 5, 11296
6, 25761, Pitch_bend_c, 5, 11360
6, 25763, Pitch_bend_c, 5, 11008
6, 25764, Pitch_bend_c, 5, 8288
6, 25765, Pitch_bend_c, 5, 8192
6, 25767, Pitch_bend_c, 5, 8096
6, 25768, Pitch_bend_c, 5, 8000
6, 25770, Pitch_bend_c, 5, 7904
6, 25771, Pitch_bend_c, 5, 7872
6, 25772, Pitch_bend_c, 5, 7968
6, 25774, Pitch_bend_c, 5, 8352
6, 25775, Pitch_bend_c, 5, 9024
6, 25777, Pitch_bend_c, 5, 9760
6, 25778, Pitch_bend_c, 5, 10240
6, 25779, Pitch_bend_c, 5, 10080
6, 25780, Note_on_c, 5, 70, 0
6, 26137, Note_on_c, 5, 63, 85
6, 26137, Pitch_bend_c, 5, 8576
6, 26139, Pitch_bend_c, 5, 8672
6, 26140, Pitch_bend_c, 5, 8736
6, 26142, Pitch_bend_c, 5, 8960
6, 26143, Pitch_bend_c, 5, 9344
6, 26144, Pitch_bend_c, 5, 9920
6, 26146, Pitch_bend_c, 5, 10624
6, 26147, Pitch_bend_c, 5, 11264
6, 26149, Pitch_bend_c, 5, 11808
6, 26150, Pitch_bend_c, 5, 12192
6, 26151, Pitch_bend_c, 5, 12480
6, 26153, Pitch_bend_c, 5, 12704
6, 26154, Pitch_bend_c, 5, 12896
6, 26155, Pitch_bend_c, 5, 13088
6, 26157, Pitch_bend_c, 5, 13344
6, 26159, Pitch_bend_c, 5, 13536
6, 26160, Pitch_bend_c, 5, 13728
6, 26162, Pitch_bend_c, 5, 13888
6, 26163, Pitch_bend_c, 5, 13952
6, 26164, Pitch_bend_c, 5, 14048
6, 26166, Pitch_bend_c, 5, 14144
6, 26167, Pitch_bend_c, 5, 14272
6, 26169, Pitch_bend_c, 5, 14432
6, 26170, Pitch_bend_c, 5, 14528
6, 26171, Pitch_bend_c, 5, 14592
6, 26173, Pitch_bend_c, 5, 14656
6, 26174, Pitch_bend_c, 5, 14720
6, 26176, Pitch_bend_c, 5, 14784
6, 26177, Pitch_bend_c, 5, 14816
6, 26178, Pitch_bend_c, 5, 14880
6, 26180, Pitch_bend_c, 5, 14912
6, 26181, Pitch_bend_c, 5, 14944
6, 26182, Pitch_bend_c, 5, 14976
6, 26187, Pitch_bend_c, 5, 15008
6, 26188, Pitch_bend_c, 5, 15072
6, 26190, Pitch_bend_c, 5, 15104
6, 26191, Pitch_bend_c, 5, 15168
6, 26192, Pitch_bend_c, 5, 15200
6, 26206, Pitch_bend_c, 5, 15232
6, 26207, Pitch_bend_c, 5, 15296
6, 26208, Pitch_bend_c, 5, 15392
6, 26210, Pitch_bend_c, 5, 15456
6, 26211, Pitch_bend_c, 5, 15520
6, 26212, Pitch_bend_c, 5, 15584
6, 26218, Pitch_bend_c, 5, 15488
6, 26220, Pitch_bend_c, 5, 15296
6, 26221, Pitch_bend_c, 5, 15136
6, 26222, Pitch_bend_c, 5, 15008
6, 26224, Pitch_bend_c, 5, 14912
6, 26225, Pitch_bend_c, 5, 14944
6, 26226, Pitch_bend_c, 5, 15072
6, 26228, Pitch_bend_c, 5, 15328
6, 26229, Pitch_bend_c, 5, 15680
6, 26231, Pitch_bend_c, 5, 15968
6, 26232, Pitch_bend_c, 5, 16256
6, 26233, Pitch_bend_c, 5, 16383
6, 26235, Pitch_bend_c, 5, 16224
6, 26236, Pitch_bend_c, 5, 15904
6, 26238, Pitch_bend_c, 5, 15520
6, 26239, Pitch_bend_c, 5, 15232
6, 26240, Pitch_bend_c, 5, 15104
6, 26242, Pitch_bend_c, 5, 15200
6, 26243, Pitch_bend_c, 5, 15424
6, 26245, Pitch_bend_c, 5, 15680
6, 26246, Pitch_bend_c, 5, 15872
6, 26248, Pitch_bend_c, 5, 16064
6, 26250, Pitch_bend_c, 5, 15968
6, 26252, Note_on_c, 5, 63, 0
6, 26271, Note_on_c, 5, 58, 91
6, 26271, Pitch_bend_c, 5, 8320
6, 26272, Pitch_bend_c, 5, 8352
6, 26278, Pitch_bend_c, 5, 8320
6, 26283, Note_on_c, 5, 58, 0
6, 26286, Pitch_bend_c, 5, 8192
6, 26287, Note_on_c, 5, 61, 98
6, 26289, Pitch_bend_c, 5, 8224
6, 26290, Pitch_bend_c, 5, 8256
6, 26291, Pitch_bend_c, 5, 8288
6, 26295, Pitch_bend_c, 5, 8256
6, 26298, Pitch_bend_c, 5, 8288
6, 26299, Note_on_c, 5, 61, 0
6, 26301, Pitch_bend_c, 5, 8192
6, 26302, Note_on_c, 5, 63, 96
6, 26303, Pitch_bend_c, 5, 8256
6, 26304, Pitch_bend_c, 5, 8320
6, 26307, Pitch_bend_c, 5, 8384
6, 26308, Pitch_bend_c, 5, 8416
6, 26309, Pitch_bend_c, 5, 8448
6, 26312, Note_on_c, 5, 63, 0
6, 26312, Pitch_bend_c, 5, 8416
6, 26325, Pitch_bend_c, 5, 8192
6, 26325, Note_on_c, 5, 64, 88
6, 26327, Pitch_bend_c, 5, 7744
6, 26329, Pitch_bend_c, 5, 7712
6, 26330, Pitch_bend_c, 5, 7648
6, 26331, Pitch_bend_c, 5, 7488
6, 26333, Pitch_bend_c, 5, 7104
6, 26334, Pitch_bend_c, 5, 6464
6, 26336, Pitch_bend_c, 5, 5792
6, 26337, Pitch_bend_c, 5, 5120
6, 26339, Pitch_bend_c, 5, 4640
6, 26340, Pitch_bend_c, 5, 4384
6, 26341, Pitch_bend_c, 5, 4256
6, 26343, Pitch_bend_c, 5, 4192
6, 26345, Pitch_bend_c, 5, 4160
6, 26347, Pitch_bend_c, 5, 4128
6, 26348, Pitch_bend_c, 5, 4032
6, 26349, Note_on_c, 5, 64, 0
6, 26352, Pitch_bend_c, 5, 8192
6, 26353, Note_on_c, 5, 61, 86
6, 26353, Pitch_bend_c, 5, 8128
6, 26361, Pitch_bend_c, 5, 8160
6, 26363, Note_on_c, 5, 61, 0
6, 26363, Pitch_bend_c, 5, 8384
6, 26365, Pitch_bend_c, 5, 8192
6, 26366, Note_on_c, 5, 58, 57
6, 26366, Pitch_bend_c, 5, 8128
6, 26373, Pitch_bend_c, 5, 8160
6, 26376, Pitch_bend_c, 5, 8192
6, 26381, Pitch_bend_c, 5, 8160
6, 26389, Pitch_bend_c, 5, 8192
6, 26391, Note_on_c, 5, 58, 0
6, 26394, Note_on_c, 5, 61, 97
6, 26395, Pitch_bend_c, 5, 7872
6, 26396, Pitch_bend_c, 5, 7936
6, 26398, Pitch_bend_c, 5, 8000
6, 26399, Pitch_bend_c, 5, 8032
6, 26400, Pitch_bend_c, 5, 8064
6, 26402, Pitch_bend_c, 5, 8128
6, 26403, Pitch_bend_c, 5, 8096
6, 26405, Pitch_bend_c, 5, 8128
6, 26406, Note_on_c, 5, 61, 0
6, 26408, Pitch_bend_c, 5, 8192
6, 26409, Note_on_c, 5, 62, 97
6, 26409, Pitch_bend_c, 5, 8288
6, 26411, Pitch_bend_c, 5, 8160
6, 26413, Pitch_bend_c, 5, 8128
6, 26414, Pitch_bend_c, 5, 8032
6, 26417, Pitch_bend_c, 5, 8192
6, 26419, Pitch_bend_c, 5, 8320
6, 26420, Note_on_c, 5, 62, 0
6, 26423, Pitch_bend_c, 5, 8192
6, 26424, Note_on_c, 5, 65, 98
6, 26424, Pitch_bend_c, 5, 8288
6, 26430, Pitch_bend_c, 5, 8256
6, 26433, Pitch_bend_c, 5, 8288
6, 26434, Note_on_c, 5, 65, 0
6, 26438, Note_on_c, 5, 70, 101
6, 26438, Pitch_bend_c, 5, 8384
6, 26448, Pitch_bend_c, 5, 8352
6, 26451, Pitch_bend_c, 5, 8320
6, 26454, Note_on_c, 5, 70, 0
6, 26454, Pitch_bend_c, 5, 8416
6, 26457, Pitch_bend_c, 5, 8192
6, 26458, Note_on_c, 5, 69, 88
6, 26459, Pitch_bend_c, 5, 4448
6, 26462, Pitch_bend_c, 5, 4512
6, 26463, Pitch_bend_c, 5, 4576
6, 26465, Pitch_bend_c, 5, 4512
6, 26466, Pitch_bend_c, 5, 4448
6, 26467, Pitch_bend_c, 5, 4384
6, 26469, Note_on_c, 5, 69, 0
6, 26469, Pitch_bend_c, 5, 4576
6, 26473, Pitch_bend_c, 5, 8192
6, 26474, Note_on_c, 5, 70, 99
6, 26474, Pitch_bend_c, 5, 8320
6, 26475, Pitch_bend_c, 5, 8352
6, 26478, Pitch_bend_c, 5, 8320
6, 26493, Note_on_c, 5, 70, 0
6, 26499, Pitch_bend_c, 5, 8192
6, 26500, Note_on_c, 5, 68, 91
6, 26500, Pitch_bend_c, 5, 9408
6, 26501, Pitch_bend_c, 5, 8448
6, 26503, Pitch_bend_c, 5, 8352
6, 26505, Pitch_bend_c, 5, 8288
6, 26507, Pitch_bend_c, 5, 8192
6, 26508, Pitch_bend_c, 5, 11872
6, 26509, Pitch_bend_c, 5, 12096
6, 26511, Pitch_bend_c, 5, 16032
6, 26512, Pitch_bend_c, 5, 16064
6, 26513, Pitch_bend_c, 5, 16128
6, 26515, Pitch_bend_c, 5, 16224
6, 26516, Pitch_bend_c, 5, 16320
6, 26518, Pitch_bend_c, 5, 16352
6, 26520, Pitch_bend_c, 5, 16288
6, 26522, Pitch_bend_c, 5, 16224
6, 26523, Pitch_bend_c, 5, 16192
6, 26525, Pitch_bend_c, 5, 16352
6, 26526, Note_on_c, 5, 68, 0
6, 26529, Pitch_bend_c, 5, 8192
6, 26530, Note_on_c, 5, 73, 92
6, 26530, Pitch_bend_c, 5, 8512
6, 26538, Pitch_bend_c, 5, 8544
6, 26539, Pitch_bend_c, 5, 8864
6, 26540, Note_on_c, 5, 73, 0
6, 26542, Pitch_bend_c, 5, 8192
6, 26543, Note_on_c, 5, 75, 93
6, 26543, Pitch_bend_c, 5, 8320
6, 26550, Pitch_bend_c, 5, 8352
6, 26551, Pitch_bend_c, 5, 8480
6, 26553, Note_on_c, 5, 75, 0
6, 26565, Pitch_bend_c, 5, 8192
6, 26567, Note_on_c, 5, 76, 94
6, 26567, Pitch_bend_c, 5, 8480
6, 26572, Pitch_bend_c, 5, 8384
6, 26573, Pitch_bend_c, 5, 8224
6, 26575, Pitch_bend_c, 5, 8128
6, 26576, Pitch_bend_c, 5, 7936
6, 26578, Pitch_bend_c, 5, 7648
6, 26579, Pitch_bend_c, 5, 7104
6, 26580, Pitch_bend_c, 5, 4672
6, 26582, Pitch_bend_c, 5, 4512
6, 26583, Pitch_bend_c, 5, 4384
6, 26585, Pitch_bend_c, 5, 4256
6, 26586, Pitch_bend_c, 5, 4128
6, 26587, Pitch_bend_c, 5, 3840
6, 26588, Note_on_c, 5, 76, 0
6, 26588, Pitch_bend_c, 5, 4512
6, 26591, Pitch_bend_c, 5, 8192
6, 26591, Note_on_c, 5, 73, 91
6, 26592, Pitch_bend_c, 5, 8384
6, 26596, Pitch_bend_c, 5, 8416
6, 26599, Pitch_bend_c, 5, 8192
6, 26600, Note_on_c, 5, 73, 0
6, 26600, Note_on_c, 5, 70, 78
6, 26602, Pitch_bend_c, 5, 8224
6, 26604, Pitch_bend_c, 5, 8256
6, 26605, Pitch_bend_c, 5, 8288
6, 26608, Pitch_bend_c, 5, 8256
6, 26609, Pitch_bend_c, 5, 8224
6, 26611, Pitch_bend_c, 5, 8192
6, 26612, Pitch_bend_c, 5, 8128
6, 26613, Pitch_bend_c, 5, 8064
6, 26615, Pitch_bend_c, 5, 8000
6, 26617, Pitch_bend_c, 5, 8096
6, 26619, Pitch_bend_c, 5, 8192
6, 26620, Pitch_bend_c, 5, 10528
6, 26622, Pitch_bend_c, 5, 10752
6, 26623, Pitch_bend_c, 5, 11008
6, 26624, Pitch_bend_c, 5, 11168
6, 26627, Pitch_bend_c, 5, 8992
6, 26629, Pitch_bend_c, 5, 8768
6, 26630, Pitch_bend_c, 5, 8512
6, 26631, Pitch_bend_c, 5, 8288
6, 26633, Pitch_bend_c, 5, 8128
6, 26634, Pitch_bend_c, 5, 8096
6, 26636, Pitch_bend_c, 5, 8160
6, 26637, Pitch_bend_c, 5, 8384
6, 26639, Pitch_bend_c, 5, 8704
6, 26640, Pitch_bend_c, 5, 9056
6, 26641, Pitch_bend_c, 5, 9216
6, 26643, Pitch_bend_c, 5, 8928
6, 26644, Pitch_bend_c, 5, 8480
6, 26646, Pitch_bend_c, 5, 8192
6, 26647, Pitch_bend_c, 5, 8032
6, 26650, Pitch_bend_c, 5, 8096
6, 26651, Note_on_c, 5, 70, 0
6, 27118, Pitch_bend_c, 5, 8192
6, 27122, Note_on_c, 5, 72, 89
6, 27122, Pitch_bend_c, 5, 8512
6, 27123, Pitch_bend_c, 5, 8608
6, 27124, Pitch_bend_c, 5, 8544
6, 27126, Pitch_bend_c, 5, 8448
6, 27127, Pitch_bend_c, 5, 8480
6, 27128, Pitch_bend_c, 5, 8416
6, 27130, Pitch_bend_c, 5, 8352
6, 27132, Pitch_bend_c, 5, 8320
6, 27134, Pitch_bend_c, 5, 8544
6, 27135, Pitch_bend_c, 5, 9120
6, 27137, Pitch_bend_c, 5, 11456
6, 27138, Pitch_bend_c, 5, 11616
6, 27139, Pitch_bend_c, 5, 11808
6, 27141, Pitch_bend_c, 5, 12064
6, 27142, Pitch_bend_c, 5, 12352
6, 27144, Pitch_bend_c, 5, 12448
6, 27145, Pitch_bend_c, 5, 12096
6, 27147, Pitch_bend_c, 5, 9536
6, 27148, Pitch_bend_c, 5, 9280
6, 27150, Pitch_bend_c, 5, 8864
6, 27151, Pitch_bend_c, 5, 8448
6, 27152, Pitch_bend_c, 5, 8032
6, 27154, Pitch_bend_c, 5, 7904
6, 27156, Pitch_bend_c, 5, 7936
6, 27158, Pitch_bend_c, 5, 8000
6, 27159, Pitch_bend_c, 5, 8096
6, 27160, Pitch_bend_c, 5, 8128
6, 27162, Pitch_bend_c, 5, 8160
6, 27163, Pitch_bend_c, 5, 8000
6, 27164, Note_on_c, 5, 72, 0
6, 27167, Pitch_bend_c, 5, 8192
6, 27168, Note_on_c, 5, 70, 88
6, 27168, Pitch_bend_c, 5, 8544
6, 27170, Pitch_bend_c, 5, 8512
6, 27174, Pitch_bend_c, 5, 8480
6, 27177, Pitch_bend_c, 5, 8512
6, 27178, Note_on_c, 5, 70, 0
6, 27179, Pitch_bend_c, 5, 8192
6, 27180, Note_on_c, 5, 67, 91
6, 27181, Pitch_bend_c, 5, 8000
6, 27183, Pitch_bend_c, 5, 7968
6, 27184, Pitch_bend_c, 5, 7936
6, 27191, Pitch_bend_c, 5, 7744
6, 27193, Note_on_c, 5, 67, 0
6, 27193, Pitch_bend_c, 5, 8192
6, 27193, Note_on_c, 5, 70, 91
6, 27194, Pitch_bend_c, 5, 8480
6, 27195, Pitch_bend_c, 5, 8352
6, 27197, Pitch_bend_c, 5, 8320
6, 27198, Pitch_bend_c, 5, 8288
6, 27202, Pitch_bend_c, 5, 8192
6, 27203, Note_on_c, 5, 70, 0
6, 27206, Note_on_c, 5, 69, 88
6, 27206, Pitch_bend_c, 5, 7776
6, 27207, Pitch_bend_c, 5, 7872
6, 27208, Pitch_bend_c, 5, 7904
6, 27210, Pitch_bend_c, 5, 7968
6, 27211, Pitch_bend_c, 5, 8096
6, 27213, Pitch_bend_c, 5, 8288
6, 27214, Pitch_bend_c, 5, 8640
6, 27215, Pitch_bend_c, 5, 9120
6, 27217, Pitch_bend_c, 5, 9696
6, 27218, Pitch_bend_c, 5, 10240
6, 27220, Pitch_bend_c, 5, 10752
6, 27221, Pitch_bend_c, 5, 11104
6, 27222, Pitch_bend_c, 5, 11392
6, 27224, Pitch_bend_c, 5, 11616
6, 27225, Pitch_bend_c, 5, 11776
6, 27226, Pitch_bend_c, 5, 11904
6, 27228, Pitch_bend_c, 5, 11968
6, 27234, Pitch_bend_c, 5, 12000
6, 27244, Pitch_bend_c, 5, 11968
6, 27248, Pitch_bend_c, 5, 11936
6, 27255, Pitch_bend_c, 5, 11968
6, 27257, Pitch_bend_c, 5, 12000
6, 27261, Pitch_bend_c, 5, 11872
6, 27263, Pitch_bend_c, 5, 11552
6, 27264, Pitch_bend_c, 5, 11200
6, 27266, Pitch_bend_c, 5, 10848
6, 27267, Pitch_bend_c, 5, 10592
6, 27268, Pitch_bend_c, 5, 10656
6, 27270, Pitch_bend_c, 5, 11040
6, 27271, Pitch_bend_c, 5, 11552
6, 27273, Pitch_bend_c, 5, 12224
6, 27274, Pitch_bend_c, 5, 12896
6, 27276, Pitch_bend_c, 5, 13280
6, 27277, Pitch_bend_c, 5, 13536
6, 27279, Pitch_bend_c, 5, 13248
6, 27280, Pitch_bend_c, 5, 10144
6, 27282, Pitch_bend_c, 5, 10016
6, 27283, Pitch_bend_c, 5, 9952
6, 27284, Pitch_bend_c, 5, 10176
6, 27286, Pitch_bend_c, 5, 10624
6, 27287, Pitch_bend_c, 5, 11296
6, 27289, Pitch_bend_c, 5, 11968
6, 27290, Pitch_bend_c, 5, 12480
6, 27291, Pitch_bend_c, 5, 12800
6, 27293, Pitch_bend_c, 5, 13024
6, 27294, Pitch_bend_c, 5, 12960
6, 27295, Pitch_bend_c, 5, 10752
6, 27297, Pitch_bend_c, 5, 10688
6, 27298, Note_on_c, 5, 69, 0
6, 27298, Pitch_bend_c, 5, 12800
6, 27738, Pitch_bend_c, 5, 8192
6, 27739, Note_on_c, 5, 68, 88
6, 27739, Pitch_bend_c, 5, 8544
6, 27740, Pitch_bend_c, 5, 8192
6, 27740, Note_on_c, 5, 70, 99
6, 27798, Note_on_c, 5, 70, 0
6, 27803, Note_on_c, 5, 70, 97
6, 27834, Note_on_c, 5, 68, 0
6, 27835, Note_on_c, 5, 70, 0
6, 27837, Note_on_c, 5, 67, 99
6, 27837, Note_on_c, 5, 70, 91
6, 27897, Note_on_c, 5, 70, 0
6, 27899, Pitch_bend_c, 5, 8160
6, 27901, Pitch_bend_c, 5, 8192
6, 27901, Note_on_c, 5, 70, 92
6, 27928, Note_on_c, 5, 67, 0
6, 27929, Pitch_bend_c, 5, 8448
6, 27930, Pitch_bend_c, 5, 8416
6, 27932, Note_on_c, 5, 70, 0
6, 27932, Note_on_c, 5, 66, 94
6, 27932, Pitch_bend_c, 5, 8192
6, 27935, Note_on_c, 5, 70, 93
6, 27993, Note_on_c, 5, 70, 0
6, 27996, Note_on_c, 5, 70, 95
6, 28024, Note_on_c, 5, 66, 0
6, 28025, Pitch_bend_c, 5, 8480
6, 28026, Pitch_bend_c, 5, 8416
6, 28027, Note_on_c, 5, 70, 0
6, 28027, Note_on_c, 5, 65, 96
6, 28027, Pitch_bend_c, 5, 8224
6, 28030, Pitch_bend_c, 5, 8192
6, 28030, Note_on_c, 5, 70, 99
6, 28071, Note_on_c, 5, 65, 0
6, 28071, Pitch_bend_c, 5, 8224
6, 28072, Note_on_c, 5, 70, 0
6, 28125, Pitch_bend_c, 5, 8192
6, 28126, Note_on_c, 5, 73, 116
6, 28127, Pitch_bend_c, 5, 8544
6, 28128, Pitch_bend_c, 5, 8416
6, 28132, Pitch_bend_c, 5, 8384
6, 28133, Pitch_bend_c, 5, 8352
6, 28135, Pitch_bend_c, 5, 8288
6, 28136, Pitch_bend_c, 5, 8256
6, 28137, Pitch_bend_c, 5, 8224
6, 28139, Pitch_bend_c, 5, 8192
6, 28143, Pitch_bend_c, 5, 8224
6, 28153, Pitch_bend_c, 5, 8352
6, 28154, Pitch_bend_c, 5, 8608
6, 28156, Pitch_bend_c, 5, 9184
6, 28157, Pitch_bend_c, 5, 11648
6, 28158, Pitch_bend_c, 5, 11776
6, 28160, Pitch_bend_c, 5, 11936
6, 28161, Pitch_bend_c, 5, 12096
6, 28163, Pitch_bend_c, 5, 12160
6, 28164, Note_on_c, 5, 73, 0
6, 28186, Pitch_bend_c, 5, 8192
6, 28187, Note_on_c, 5, 70, 86
6, 28188, Pitch_bend_c, 5, 9024
6, 28189, Pitch_bend_c, 5, 8480
6, 28194, Pitch_bend_c, 5, 8448
6, 28196, Pitch_bend_c, 5, 8384
6, 28198, Pitch_bend_c, 5, 8352
6, 28199, Pitch_bend_c, 5, 8320
6, 28201, Pitch_bend_c, 5, 8288
6, 28205, Pitch_bend_c, 5, 8320
6, 28206, Pitch_bend_c, 5, 8352
6, 28209, Pitch_bend_c, 5, 8320
6, 28212, Pitch_bend_c, 5, 8288
6, 28218, Pitch_bend_c, 5, 8256
6, 28219, Pitch_bend_c, 5, 8224
6, 28220, Pitch_bend_c, 5, 8192
6, 28225, Pitch_bend_c, 5, 8160
6, 28226, Pitch_bend_c, 5, 8128
6, 28228, Pitch_bend_c, 5, 8064
6, 28229, Pitch_bend_c, 5, 8032
6, 28230, Pitch_bend_c, 5, 8000
6, 28231, Pitch_bend_c, 5, 7968
6, 28234, Pitch_bend_c, 5, 8000
6, 28236, Pitch_bend_c, 5, 8032
6, 28238, Pitch_bend_c, 5, 8064
6, 28239, Pitch_bend_c, 5, 8160
6, 28240, Pitch_bend_c, 5, 8352
6, 28241, Pitch_bend_c, 5, 8672
6, 28242, Pitch_bend_c, 5, 9152
6, 28244, Pitch_bend_c, 5, 9600
6, 28245, Pitch_bend_c, 5, 9984
6, 28246, Pitch_bend_c, 5, 10176
6, 28248, Note_on_c, 5, 70, 0
6, 28248, Pitch_bend_c, 5, 8192
6, 28249, Pitch_bend_c, 5, 11296
6, 28250, Note_on_c, 5, 72, 80
6, 28251, Pitch_bend_c, 5, 12512
6, 28253, Pitch_bend_c, 5, 12480
6, 28254, Pitch_bend_c, 5, 12384
6, 28256, Pitch_bend_c, 5, 12320
6, 28262, Pitch_bend_c, 5, 12352
6, 28265, Pitch_bend_c, 5, 12384
6, 28267, Pitch_bend_c, 5, 12352
6, 28268, Pitch_bend_c, 5, 12320
6, 28271, Pitch_bend_c, 5, 12288
6, 28273, Pitch_bend_c, 5, 12224
6, 28276, Pitch_bend_c, 5, 12192
6, 28278, Pitch_bend_c, 5, 11744
6, 28279, Note_on_c, 5, 72, 0
6, 28279, Pitch_bend_c, 5, 12320
6, 28282, Note_on_c, 5, 70, 91
6, 28282, Pitch_bend_c, 5, 8192
6, 28283, Pitch_bend_c, 5, 8128
6, 28286, Pitch_bend_c, 5, 8160
6, 28288, Pitch_bend_c, 5, 8192
6, 28289, Pitch_bend_c, 5, 8352
6, 28290, Pitch_bend_c, 5, 8320
6, 28291, Pitch_bend_c, 5, 4800
6, 28292, Pitch_bend_c, 5, 1
6, 28304, Note_on_c, 5, 70, 0
6, 28305, Note_on_c, 5, 65, 75
6, 28305, Pitch_bend_c, 5, 8192
6, 28306, Pitch_bend_c, 5, 8160
6, 28307, Pitch_bend_c, 5, 8192
6, 28308, Pitch_bend_c, 5, 8160
6, 28310, Pitch_bend_c, 5, 8192
6, 28311, Pitch_bend_c, 5, 8288
6, 28312, Pitch_bend_c, 5, 8256
6, 28313, Pitch_bend_c, 5, 4352
6, 28314, Note_on_c, 5, 65, 0
6, 28315, Note_on_c, 5, 63, 79
6, 28315, Pitch_bend_c, 5, 8416
6, 28316, Pitch_bend_c, 5, 8384
6, 28317, Pitch_bend_c, 5, 8320
6, 28319, Pitch_bend_c, 5, 8288
6, 28320, Pitch_bend_c, 5, 8256
6, 28321, Pitch_bend_c, 5, 8192
6, 28324, Pitch_bend_c, 5, 8224
6, 28325, Pitch_bend_c, 5, 8320
6, 28326, Pitch_bend_c, 5, 8160
6, 28328, Pitch_bend_c, 5, 4704
6, 28329, Pitch_bend_c, 5, 4640
6, 28330, Pitch_bend_c, 5, 1
6, 28347, Note_on_c, 5, 63, 0
6, 28352, Pitch_bend_c, 5, 8192
6, 28353, Note_on_c, 5, 58, 43
6, 28353, Pitch_bend_c, 5, 8224
6, 28358, Pitch_bend_c, 5, 8256
6, 28360, Note_on_c, 5, 58, 0
6, 28362, Pitch_bend_c, 5, 8192
6, 28363, Note_on_c, 5, 56, 41
6, 28369, Pitch_bend_c, 5, 8256
6, 28370, Note_on_c, 5, 56, 0
6, 28373, Pitch_bend_c, 5, 8192
6, 28374, Note_on_c, 5, 53, 50
6, 28374, Pitch_bend_c, 5, 8288
6, 28375, Pitch_bend_c, 5, 7936
6, 28376, Pitch_bend_c, 5, 7968
6, 28377, Pitch_bend_c, 5, 8032
6, 28379, Pitch_bend_c, 5, 8096
6, 28380, Note_on_c, 5, 53, 0
6, 28380, Pitch_bend_c, 5, 8192
6, 28383, Note_on_c, 5, 51, 68
6, 28383, Pitch_bend_c, 5, 8000
6, 28384, Pitch_bend_c, 5, 8032
6, 28385, Pitch_bend_c, 5, 8000
6, 28386, Pitch_bend_c, 5, 7968
6, 28387, Pitch_bend_c, 5, 7936
6, 28389, Pitch_bend_c, 5, 7904
6, 28391, Pitch_bend_c, 5, 7936
6, 28392, Pitch_bend_c, 5, 8000
6, 28393, Pitch_bend_c, 5, 8128
6, 28394, Pitch_bend_c, 5, 8192
6, 28395, Pitch_bend_c, 5, 4128
6, 28396, Pitch_bend_c, 5, 4192
6, 28397, Pitch_bend_c, 5, 4224
6, 28399, Pitch_bend_c, 5, 4256
6, 28400, Pitch_bend_c, 5, 4288
6, 28401, Pitch_bend_c, 5, 4256
6, 28406, Pitch_bend_c, 5, 4224
6, 28407, Pitch_bend_c, 5, 4192
6, 28409, Pitch_bend_c, 5, 4160
6, 28410, Pitch_bend_c, 5, 4128
6, 28411, Pitch_bend_c, 5, 4064
6, 28412, Pitch_bend_c, 5, 4032
6, 28413, Pitch_bend_c, 5, 4000
6, 28415, Pitch_bend_c, 5, 3968
6, 28418, Pitch_bend_c, 5, 3936
6, 28420, Pitch_bend_c, 5, 3904
6, 28422, Pitch_bend_c, 5, 3872
6, 28424, Pitch_bend_c, 5, 3840
6, 28427, Pitch_bend_c, 5, 3808
6, 28428, Note_on_c, 5, 51, 0
6, 28428, Pitch_bend_c, 5, 3776
6, 28429, Pitch_bend_c, 5, 3904
6, 28431, Pitch_bend_c, 5, 4128
6, 28432, Pitch_bend_c, 5, 4384
6, 28433, Pitch_bend_c, 5, 4640
6, 28434, Pitch_bend_c, 5, 4832
6, 28436, Pitch_bend_c, 5, 4928
6, 28437, Pitch_bend_c, 5, 4832
6, 28438, Pitch_bend_c, 5, 4192
6, 28440, Pitch_bend_c, 5, 3808
6, 28441, Pitch_bend_c, 5, 3584
6, 28442, Pitch_bend_c, 5, 3392
6, 28443, Pitch_bend_c, 5, 3328
6, 28445, Pitch_bend_c, 5, 3456
6, 28446, Pitch_bend_c, 5, 3840
6, 28447, Pitch_bend_c, 5, 4384
6, 28448, Pitch_bend_c, 5, 5120
6, 28449, Pitch_bend_c, 5, 5632
6, 28450, Pitch_bend_c, 5, 5760
6, 28451, Pitch_bend_c, 5, 5632
6, 28452, Pitch_bend_c, 5, 5024
6, 28454, Pitch_bend_c, 5, 4416
6, 28455, Pitch_bend_c, 5, 3904
6, 28456, Pitch_bend_c, 5, 3520
6, 28458, Pitch_bend_c, 5, 3584
6, 28459, Pitch_bend_c, 5, 3616
6, 28460, Pitch_bend_c, 5, 3840
6, 28461, Pitch_bend_c, 5, 4224
6, 28463, Pitch_bend_c, 5, 4448
6, 28464, Pitch_bend_c, 5, 4512
6, 28465, Pitch_bend_c, 5, 8192
6, 28465, End_track
7, 0, Start_track
7, 0, MIDI_port, 0
7, 0, Sequencer_specific, 7, 0, 0, 0, 106, 0, 4, 0
7, 124, Control_c, 7, 11, 127
7, 125, Control_c, 7, 91, 80
7, 125, Control_c, 7, 93, 35
7, 133, Program_c, 7, 26
7, 134, Control_c, 7, 7, 50
7, 134, Control_c, 7, 10, 8
7, 697, Note_on_c, 7, 65, 87
7, 697, Pitch_bend_c, 7, 8448
7, 698, Control_c, 7, 1, 0
7, 702, Pitch_bend_c, 7, 8416
7, 703, Pitch_bend_c, 7, 8384
7, 705, Pitch_bend_c, 7, 8352
7, 706, Pitch_bend_c, 7, 8320
7, 707, Pitch_bend_c, 7, 8288
7, 710, Pitch_bend_c, 7, 8224
7, 711, Pitch_bend_c, 7, 8192
7, 715, Pitch_bend_c, 7, 8224
7, 716, Pitch_bend_c, 7, 8192
7, 720, Pitch_bend_c, 7, 8160
7, 725, Pitch_bend_c, 7, 8192
7, 726, Note_on_c, 7, 65, 0
7, 728, Note_on_c, 7, 67, 85
7, 729, Pitch_bend_c, 7, 8224
7, 732, Pitch_bend_c, 7, 8192
7, 747, Pitch_bend_c, 7, 8160
7, 749, Pitch_bend_c, 7, 8128
7, 750, Pitch_bend_c, 7, 8064
7, 751, Pitch_bend_c, 7, 8032
7, 752, Pitch_bend_c, 7, 8064
7, 754, Pitch_bend_c, 7, 7936
7, 755, Note_on_c, 7, 67, 0
7, 755, Pitch_bend_c, 7, 8064
7, 757, Note_on_c, 7, 70, 84
7, 757, Pitch_bend_c, 7, 7776
7, 758, Pitch_bend_c, 7, 7936
7, 759, Pitch_bend_c, 7, 8032
7, 760, Pitch_bend_c, 7, 8000
7, 763, Pitch_bend_c, 7, 7968
7, 764, Pitch_bend_c, 7, 7936
7, 766, Pitch_bend_c, 7, 7904
7, 767, Pitch_bend_c, 7, 7872
7, 768, Pitch_bend_c, 7, 7808
7, 769, Pitch_bend_c, 7, 7776
7, 775, Pitch_bend_c, 7, 7808
7, 776, Pitch_bend_c, 7, 7776
7, 777, Pitch_bend_c, 7, 7808
7, 779, Pitch_bend_c, 7, 7840
7, 781, Pitch_bend_c, 7, 7872
7, 782, Pitch_bend_c, 7, 16000
7, 784, Note_on_c, 7, 70, 0
7, 786, Pitch_bend_c, 7, 8192
7, 787, Note_on_c, 7, 72, 85
7, 788, Pitch_bend_c, 7, 8288
7, 791, Pitch_bend_c, 7, 8224
7, 792, Pitch_bend_c, 7, 8192
7, 795, Pitch_bend_c, 7, 8224
7, 796, Pitch_bend_c, 7, 8512
7, 797, Pitch_bend_c, 7, 9088
7, 799, Pitch_bend_c, 7, 11392
7, 800, Pitch_bend_c, 7, 11488
7, 801, Pitch_bend_c, 7, 11552
7, 803, Note_on_c, 7, 72, 0
7, 803, Pitch_bend_c, 7, 11648
7, 821, Note_on_c, 7, 70, 85
7, 821, Pitch_bend_c, 7, 8128
7, 822, Pitch_bend_c, 7, 8160
7, 826, Pitch_bend_c, 7, 8128
7, 827, Pitch_bend_c, 7, 16160
7, 830, Pitch_bend_c, 7, 16096
7, 833, Pitch_bend_c, 7, 16128
7, 834, Pitch_bend_c, 7, 7968
7, 836, Pitch_bend_c, 7, 8000
7, 839, Pitch_bend_c, 7, 8064
7, 840, Pitch_bend_c, 7, 8096
7, 841, Note_on_c, 7, 70, 0
7, 844, Pitch_bend_c, 7, 8192
7, 845, Note_on_c, 7, 67, 31
7, 845, Pitch_bend_c, 7, 8128
7, 846, Pitch_bend_c, 7, 8064
7, 850, Pitch_bend_c, 7, 8128
7, 852, Pitch_bend_c, 7, 8160
7, 853, Pitch_bend_c, 7, 8192
7, 854, Note_on_c, 7, 67, 0
7, 855, Note_on_c, 7, 70, 87
7, 856, Pitch_bend_c, 7, 8000
7, 863, Pitch_bend_c, 7, 8032
7, 866, Pitch_bend_c, 7, 8064
7, 868, Pitch_bend_c, 7, 8096
7, 869, Note_on_c, 7, 70, 0
7, 871, Pitch_bend_c, 7, 8192
7, 872, Note_on_c, 7, 72, 80
7, 872, Pitch_bend_c, 7, 8000
7, 873, Pitch_bend_c, 7, 7936
7, 881, Pitch_bend_c, 7, 7904
7, 882, Pitch_bend_c, 7, 7872
7, 883, Note_on_c, 7, 72, 0
7, 883, Pitch_bend_c, 7, 8000
7, 885, Pitch_bend_c, 7, 8192
7, 886, Note_on_c, 7, 70, 87
7, 886, Pitch_bend_c, 7, 8000
7, 900, Pitch_bend_c, 7, 7968
7, 903, Pitch_bend_c, 7, 7936
7, 905, Pitch_bend_c, 7, 7904
7, 907, Pitch_bend_c, 7, 7872
7, 908, Pitch_bend_c, 7, 7840
7, 909, Pitch_bend_c, 7, 7808
7, 910, Pitch_bend_c, 7, 7776
7, 914, Pitch_bend_c, 7, 7808
7, 917, Pitch_bend_c, 7, 7840
7, 926, Pitch_bend_c, 7, 7872
7, 930, Pitch_bend_c, 7, 7840
7, 935, Note_on_c, 7, 70, 0
7, 938, Note_on_c, 7, 73, 79
7, 938, Pitch_bend_c, 7, 8032
7, 939, Pitch_bend_c, 7, 7968
7, 942, Pitch_bend_c, 7, 8000
7, 944, Pitch_bend_c, 7, 7968
7, 945, Pitch_bend_c, 7, 7872
7, 946, Pitch_bend_c, 7, 7840
7, 947, Pitch_bend_c, 7, 7808
7, 949, Pitch_bend_c, 7, 7776
7, 954, Pitch_bend_c, 7, 7840
7, 955, Pitch_bend_c, 7, 7872
7, 958, Pitch_bend_c, 7, 7936
7, 959, Pitch_bend_c, 7, 7968
7, 963, Pitch_bend_c, 7, 8000
7, 964, Pitch_bend_c, 7, 8032
7, 967, Pitch_bend_c, 7, 8128
7, 968, Pitch_bend_c, 7, 8192
7, 970, Pitch_bend_c, 7, 8352
7, 971, Pitch_bend_c, 7, 8704
7, 972, Pitch_bend_c, 7, 9280
7, 973, Pitch_bend_c, 7, 10048
7, 975, Pitch_bend_c, 7, 10880
7, 976, Pitch_bend_c, 7, 11520
7, 977, Pitch_bend_c, 7, 11936
7, 978, Pitch_bend_c, 7, 12096
7, 980, Note_on_c, 7, 73, 0
7, 1233, Note_on_c, 7, 75, 89
7, 1233, Pitch_bend_c, 7, 8128
7, 1236, Pitch_bend_c, 7, 8032
7, 1237, Pitch_bend_c, 7, 8128
7, 1238, Pitch_bend_c, 7, 8160
7, 1241, Pitch_bend_c, 7, 8224
7, 1242, Pitch_bend_c, 7, 8256
7, 1243, Pitch_bend_c, 7, 8352
7, 1245, Pitch_bend_c, 7, 8480
7, 1246, Pitch_bend_c, 7, 8640
7, 1247, Pitch_bend_c, 7, 8800
7, 1249, Pitch_bend_c, 7, 8992
7, 1250, Pitch_bend_c, 7, 9184
7, 1251, Pitch_bend_c, 7, 9312
7, 1253, Pitch_bend_c, 7, 9408
7, 1254, Pitch_bend_c, 7, 9440
7, 1255, Pitch_bend_c, 7, 9536
7, 1256, Pitch_bend_c, 7, 8192
7, 1258, Pitch_bend_c, 7, 9664
7, 1262, Pitch_bend_c, 7, 9760
7, 1263, Pitch_bend_c, 7, 9920
7, 1265, Pitch_bend_c, 7, 10080
7, 1266, Pitch_bend_c, 7, 10304
7, 1267, Pitch_bend_c, 7, 10592
7, 1268, Pitch_bend_c, 7, 10848
7, 1270, Pitch_bend_c, 7, 11168
7, 1271, Pitch_bend_c, 7, 11552
7, 1272, Pitch_bend_c, 7, 11968
7, 1274, Pitch_bend_c, 7, 12384
7, 1275, Pitch_bend_c, 7, 12704
7, 1276, Pitch_bend_c, 7, 12960
7, 1277, Pitch_bend_c, 7, 13056
7, 1279, Pitch_bend_c, 7, 12992
7, 1280, Pitch_bend_c, 7, 12896
7, 1281, Note_on_c, 7, 75, 0
7, 1281, Pitch_bend_c, 7, 12960
7, 1306, Pitch_bend_c, 7, 8192
7, 1307, Note_on_c, 7, 75, 87
7, 1307, Pitch_bend_c, 7, 8064
7, 1310, Pitch_bend_c, 7, 8000
7, 1311, Pitch_bend_c, 7, 7904
7, 1312, Pitch_bend_c, 7, 7872
7, 1313, Pitch_bend_c, 7, 7808
7, 1315, Pitch_bend_c, 7, 7776
7, 1316, Pitch_bend_c, 7, 7744
7, 1317, Pitch_bend_c, 7, 7680
7, 1323, Pitch_bend_c, 7, 7744
7, 1324, Pitch_bend_c, 7, 7776
7, 1325, Pitch_bend_c, 7, 5216
7, 1326, Note_on_c, 7, 75, 0
7, 1326, Pitch_bend_c, 7, 7744
7, 1327, Pitch_bend_c, 7, 8192
7, 1328, Note_on_c, 7, 72, 84
7, 1328, Pitch_bend_c, 7, 12000
7, 1330, Pitch_bend_c, 7, 12032
7, 1334, Pitch_bend_c, 7, 12000
7, 1338, Pitch_bend_c, 7, 12032
7, 1341, Pitch_bend_c, 7, 12000
7, 1342, Pitch_bend_c, 7, 11936
7, 1343, Pitch_bend_c, 7, 12000
7, 1345, Pitch_bend_c, 7, 12032
7, 1346, Pitch_bend_c, 7, 11840
7, 1347, Note_on_c, 7, 72, 0
7, 1347, Pitch_bend_c, 7, 11936
7, 1363, Note_on_c, 7, 70, 77
7, 1363, Pitch_bend_c, 7, 8448
7, 1366, Pitch_bend_c, 7, 8480
7, 1370, Pitch_bend_c, 7, 8448
7, 1371, Pitch_bend_c, 7, 8416
7, 1372, Pitch_bend_c, 7, 8352
7, 1375, Pitch_bend_c, 7, 8320
7, 1376, Pitch_bend_c, 7, 8288
7, 1377, Pitch_bend_c, 7, 8224
7, 1380, Pitch_bend_c, 7, 8192
7, 1384, Pitch_bend_c, 7, 8256
7, 1385, Pitch_bend_c, 7, 8544
7, 1387, Pitch_bend_c, 7, 9120
7, 1388, Pitch_bend_c, 7, 9856
7, 1389, Pitch_bend_c, 7, 10496
7, 1391, Pitch_bend_c, 7, 10816
7, 1392, Pitch_bend_c, 7, 10592
7, 1393, Pitch_bend_c, 7, 8416
7, 1394, Pitch_bend_c, 7, 8320
7, 1396, Pitch_bend_c, 7, 8224
7, 1397, Pitch_bend_c, 7, 8160
7, 1398, Pitch_bend_c, 7, 8096
7, 1399, Pitch_bend_c, 7, 8160
7, 1401, Pitch_bend_c, 7, 8384
7, 1402, Pitch_bend_c, 7, 8800
7, 1403, Pitch_bend_c, 7, 9216
7, 1405, Pitch_bend_c, 7, 9600
7, 1406, Pitch_bend_c, 7, 9696
7, 1407, Pitch_bend_c, 7, 9408
7, 1409, Note_on_c, 7, 70, 0
7, 1409, Pitch_bend_c, 7, 9216
7, 1435, Pitch_bend_c, 7, 8192
7, 1436, Note_on_c, 7, 67, 85
7, 1440, Pitch_bend_c, 7, 8160
7, 1441, Pitch_bend_c, 7, 8128
7, 1443, Pitch_bend_c, 7, 8096
7, 1444, Pitch_bend_c, 7, 8128
7, 1445, Pitch_bend_c, 7, 8160
7, 1446, Pitch_bend_c, 7, 8064
7, 1447, Note_on_c, 7, 67, 0
7, 1447, Pitch_bend_c, 7, 8128
7, 1449, Pitch_bend_c, 7, 8192
7, 1450, Note_on_c, 7, 70, 66
7, 1450, Pitch_bend_c, 7, 8288
7, 1451, Pitch_bend_c, 7, 8384
7, 1454, Pitch_bend_c, 7, 8352
7, 1455, Pitch_bend_c, 7, 8288
7, 1456, Pitch_bend_c, 7, 8256
7, 1458, Note_on_c, 7, 70, 0
7, 1458, Pitch_bend_c, 7, 8416
7, 1465, Note_on_c, 7, 73, 86
7, 1465, Pitch_bend_c, 7, 8384
7, 1468, Pitch_bend_c, 7, 8288
7, 1469, Pitch_bend_c, 7, 8256
7, 1472, Pitch_bend_c, 7, 8224
7, 1473, Pitch_bend_c, 7, 8256
7, 1474, Pitch_bend_c, 7, 8288
7, 1476, Pitch_bend_c, 7, 8256
7, 1480, Pitch_bend_c, 7, 8288
7, 1484, Pitch_bend_c, 7, 8256
7, 1486, Pitch_bend_c, 7, 8224
7, 1488, Pitch_bend_c, 7, 8256
7, 1489, Pitch_bend_c, 7, 8512
7, 1490, Pitch_bend_c, 7, 8928
7, 1491, Pitch_bend_c, 7, 9664
7, 1493, Pitch_bend_c, 7, 10528
7, 1494, Pitch_bend_c, 7, 11232
7, 1495, Pitch_bend_c, 7, 11808
7, 1497, Pitch_bend_c, 7, 12128
7, 1498, Pitch_bend_c, 7, 12256
7, 1499, Pitch_bend_c, 7, 12352
7, 1501, Note_on_c, 7, 73, 0
7, 1516, Pitch_bend_c, 7, 8192
7, 1517, Note_on_c, 7, 75, 83
7, 1517, Pitch_bend_c, 7, 8352
7, 1519, Pitch_bend_c, 7, 8416
7, 1521, Pitch_bend_c, 7, 8352
7, 1522, Pitch_bend_c, 7, 8320
7, 1524, Pitch_bend_c, 7, 8256
7, 1525, Pitch_bend_c, 7, 8192
7, 1526, Pitch_bend_c, 7, 8128
7, 1527, Pitch_bend_c, 7, 8032
7, 1529, Pitch_bend_c, 7, 8000
7, 1530, Note_on_c, 7, 75, 0
7, 1530, Pitch_bend_c, 7, 8192
7, 1533, Note_on_c, 7, 73, 84
7, 1533, Pitch_bend_c, 7, 8032
7, 1536, Pitch_bend_c, 7, 8000
7, 1537, Pitch_bend_c, 7, 7968
7, 1540, Pitch_bend_c, 7, 7936
7, 1541, Pitch_bend_c, 7, 7968
7, 1542, Pitch_bend_c, 7, 7936
7, 1544, Pitch_bend_c, 7, 7968
7, 1546, Pitch_bend_c, 7, 8000
7, 1547, Pitch_bend_c, 7, 8032
7, 1549, Pitch_bend_c, 7, 8000
7, 1554, Pitch_bend_c, 7, 8032
7, 1556, Pitch_bend_c, 7, 8000
7, 1558, Pitch_bend_c, 7, 8032
7, 1559, Pitch_bend_c, 7, 8064
7, 1560, Pitch_bend_c, 7, 8128
7, 1562, Pitch_bend_c, 7, 8224
7, 1563, Pitch_bend_c, 7, 8256
7, 1564, Pitch_bend_c, 7, 8352
7, 1566, Pitch_bend_c, 7, 8384
7, 1567, Pitch_bend_c, 7, 8448
7, 1568, Pitch_bend_c, 7, 8544
7, 1569, Pitch_bend_c, 7, 8576
7, 1571, Pitch_bend_c, 7, 8672
7, 1572, Pitch_bend_c, 7, 8704
7, 1575, Pitch_bend_c, 7, 8736
7, 1576, Pitch_bend_c, 7, 8768
7, 1577, Pitch_bend_c, 7, 8832
7, 1579, Pitch_bend_c, 7, 8864
7, 1580, Pitch_bend_c, 7, 8992
7, 1581, Pitch_bend_c, 7, 9056
7, 1582, Pitch_bend_c, 7, 9184
7, 1584, Pitch_bend_c, 7, 9344
7, 1585, Pitch_bend_c, 7, 9472
7, 1586, Pitch_bend_c, 7, 9536
7, 1587, Pitch_bend_c, 7, 9632
7, 1589, Pitch_bend_c, 7, 9760
7, 1590, Pitch_bend_c, 7, 9856
7, 1591, Pitch_bend_c, 7, 10048
7, 1593, Pitch_bend_c, 7, 10208
7, 1594, Pitch_bend_c, 7, 10304
7, 1595, Pitch_bend_c, 7, 10400
7, 1596, Pitch_bend_c, 7, 10432
7, 1600, Pitch_bend_c, 7, 10400
7, 1605, Pitch_bend_c, 7, 10368
7, 1606, Pitch_bend_c, 7, 10304
7, 1607, Pitch_bend_c, 7, 10240
7, 1608, Pitch_bend_c, 7, 10048
7, 1610, Pitch_bend_c, 7, 9696
7, 1611, Pitch_bend_c, 7, 9440
7, 1612, Pitch_bend_c, 7, 9184
7, 1614, Pitch_bend_c, 7, 9056
7, 1616, Pitch_bend_c, 7, 9120
7, 1618, Pitch_bend_c, 7, 9152
7, 1619, Pitch_bend_c, 7, 9312
7, 1620, Pitch_bend_c, 7, 9664
7, 1622, Pitch_bend_c, 7, 10144
7, 1623, Pitch_bend_c, 7, 10688
7, 1624, Pitch_bend_c, 7, 11168
7, 1626, Pitch_bend_c, 7, 11392
7, 1627, Pitch_bend_c, 7, 11520
7, 1629, Pitch_bend_c, 7, 11456
7, 1631, Pitch_bend_c, 7, 11232
7, 1632, Pitch_bend_c, 7, 10720
7, 1633, Pitch_bend_c, 7, 10080
7, 1634, Pitch_bend_c, 7, 9472
7, 1636, Pitch_bend_c, 7, 8992
7, 1637, Pitch_bend_c, 7, 8896
7, 1640, Pitch_bend_c, 7, 9184
7, 1641, Pitch_bend_c, 7, 9664
7, 1642, Pitch_bend_c, 7, 10368
7, 1643, Pitch_bend_c, 7, 11072
7, 1645, Pitch_bend_c, 7, 11648
7, 1646, Pitch_bend_c, 7, 11936
7, 1648, Pitch_bend_c, 7, 12064
7, 1650, Pitch_bend_c, 7, 11840
7, 1651, Pitch_bend_c, 7, 11328
7, 1653, Pitch_bend_c, 7, 8896
7, 1654, Pitch_bend_c, 7, 8864
7, 1655, Pitch_bend_c, 7, 8768
7, 1657, Pitch_bend_c, 7, 8736
7, 1659, Note_on_c, 7, 73, 0
7, 1659, Pitch_bend_c, 7, 8896
7, 1723, Pitch_bend_c, 7, 8192
7, 1724, Note_on_c, 7, 76, 82
7, 1724, Pitch_bend_c, 7, 7712
7, 1725, Pitch_bend_c, 7, 7328
7, 1726, Pitch_bend_c, 7, 7488
7, 1727, Pitch_bend_c, 7, 7584
7, 1728, Pitch_bend_c, 7, 7712
7, 1729, Pitch_bend_c, 7, 7840
7, 1731, Pitch_bend_c, 7, 7936
7, 1732, Pitch_bend_c, 7, 8032
7, 1733, Pitch_bend_c, 7, 7968
7, 1734, Pitch_bend_c, 7, 7904
7, 1736, Pitch_bend_c, 7, 7712
7, 1737, Pitch_bend_c, 7, 7328
7, 1739, Pitch_bend_c, 7, 4736
7, 1740, Pitch_bend_c, 7, 4608
7, 1741, Pitch_bend_c, 7, 4352
7, 1743, Pitch_bend_c, 7, 4128
7, 1744, Pitch_bend_c, 7, 3904
7, 1745, Pitch_bend_c, 7, 3840
7, 1746, Pitch_bend_c, 7, 4352
7, 1747, Note_on_c, 7, 76, 0
7, 1749, Note_on_c, 7, 73, 79
7, 1749, Pitch_bend_c, 7, 8352
7, 1750, Pitch_bend_c, 7, 8192
7, 1751, Pitch_bend_c, 7, 8224
7, 1753, Pitch_bend_c, 7, 8256
7, 1754, Pitch_bend_c, 7, 8352
7, 1756, Pitch_bend_c, 7, 8384
7, 1757, Pitch_bend_c, 7, 8448
7, 1758, Note_on_c, 7, 73, 0
7, 1762, Note_on_c, 7, 70, 59
7, 1762, Pitch_bend_c, 7, 8192
7, 1763, Pitch_bend_c, 7, 8384
7, 1765, Pitch_bend_c, 7, 8352
7, 1768, Pitch_bend_c, 7, 8320
7, 1770, Pitch_bend_c, 7, 8288
7, 1771, Pitch_bend_c, 7, 8224
7, 1772, Pitch_bend_c, 7, 8192
7, 1775, Pitch_bend_c, 7, 8224
7, 1776, Pitch_bend_c, 7, 8256
7, 1777, Pitch_bend_c, 7, 8288
7, 1779, Pitch_bend_c, 7, 8544
7, 1780, Pitch_bend_c, 7, 9152
7, 1782, Pitch_bend_c, 7, 11392
7, 1783, Pitch_bend_c, 7, 11424
7, 1784, Pitch_bend_c, 7, 11392
7, 1786, Pitch_bend_c, 7, 11040
7, 1787, Pitch_bend_c, 7, 8832
7, 1788, Pitch_bend_c, 7, 8800
7, 1789, Pitch_bend_c, 7, 8672
7, 1791, Pitch_bend_c, 7, 8544
7, 1792, Pitch_bend_c, 7, 8448
7, 1793, Pitch_bend_c, 7, 8416
7, 1795, Pitch_bend_c, 7, 8640
7, 1796, Pitch_bend_c, 7, 9120
7, 1797, Pitch_bend_c, 7, 9696
7, 1798, Pitch_bend_c, 7, 10336
7, 1800, Pitch_bend_c, 7, 10880
7, 1801, Pitch_bend_c, 7, 11264
7, 1802, Pitch_bend_c, 7, 11584
7, 1804, Pitch_bend_c, 7, 11776
7, 1805, Pitch_bend_c, 7, 11872
7, 1806, Pitch_bend_c, 7, 11840
7, 1807, Pitch_bend_c, 7, 11328
7, 1809, Pitch_bend_c, 7, 8640
7, 1810, Note_on_c, 7, 70, 0
7, 1810, Pitch_bend_c, 7, 11872
7, 1813, Note_on_c, 7, 73, 78
7, 1813, Pitch_bend_c, 7, 8160
7, 1814, Pitch_bend_c, 7, 8192
7, 1820, Pitch_bend_c, 7, 8160
7, 1821, Pitch_bend_c, 7, 8128
7, 1822, Pitch_bend_c, 7, 8064
7, 1824, Pitch_bend_c, 7, 8160
7, 1825, Pitch_bend_c, 7, 8352
7, 1826, Pitch_bend_c, 7, 8608
7, 1828, Pitch_bend_c, 7, 8928
7, 1829, Note_on_c, 7, 73, 0
7, 1829, Pitch_bend_c, 7, 9024
7, 1832, Note_on_c, 7, 75, 78
7, 1832, Pitch_bend_c, 7, 8192
7, 1833, Pitch_bend_c, 7, 8256
7, 1837, Pitch_bend_c, 7, 8320
7, 1842, Pitch_bend_c, 7, 8256
7, 1844, Pitch_bend_c, 7, 8224
7, 1845, Pitch_bend_c, 7, 8192
7, 1846, Pitch_bend_c, 7, 8128
7, 1847, Note_on_c, 7, 75, 0
7, 1847, Pitch_bend_c, 7, 8320
7, 1850, Note_on_c, 7, 73, 80
7, 1850, Pitch_bend_c, 7, 8064
7, 1859, Pitch_bend_c, 7, 8000
7, 1860, Pitch_bend_c, 7, 7936
7, 1863, Pitch_bend_c, 7, 7968
7, 1865, Pitch_bend_c, 7, 8032
7, 1866, Pitch_bend_c, 7, 8128
7, 1867, Pitch_bend_c, 7, 8224
7, 1868, Pitch_bend_c, 7, 8416
7, 1870, Pitch_bend_c, 7, 8832
7, 1871, Pitch_bend_c, 7, 9280
7, 1872, Pitch_bend_c, 7, 9696
7, 1874, Pitch_bend_c, 7, 10080
7, 1875, Pitch_bend_c, 7, 10208
7, 1876, Pitch_bend_c, 7, 10048
7, 1877, Pitch_bend_c, 7, 9760
7, 1879, Pitch_bend_c, 7, 9376
7, 1880, Pitch_bend_c, 7, 8992
7, 1881, Pitch_bend_c, 7, 8768
7, 1882, Note_on_c, 7, 73, 0
7, 1882, Pitch_bend_c, 7, 10048
7, 1884, Pitch_bend_c, 7, 8192
7, 1885, Note_on_c, 7, 70, 63
7, 1885, Pitch_bend_c, 7, 8512
7, 1886, Pitch_bend_c, 7, 8480
7, 1889, Pitch_bend_c, 7, 8448
7, 1890, Pitch_bend_c, 7, 8416
7, 1891, Pitch_bend_c, 7, 8352
7, 1893, Pitch_bend_c, 7, 8320
7, 1894, Pitch_bend_c, 7, 8256
7, 1897, Pitch_bend_c, 7, 8224
7, 1899, Pitch_bend_c, 7, 8192
7, 1901, Pitch_bend_c, 7, 8160
7, 1902, Pitch_bend_c, 7, 8096
7, 1905, Pitch_bend_c, 7, 8160
7, 1906, Pitch_bend_c, 7, 8224
7, 1907, Pitch_bend_c, 7, 8288
7, 1909, Pitch_bend_c, 7, 8320
7, 1910, Note_on_c, 7, 70, 0
7, 1910, Pitch_bend_c, 7, 8192
7, 1911, Note_on_c, 7, 73, 81
7, 1911, Pitch_bend_c, 7, 7744
7, 1912, Pitch_bend_c, 7, 7968
7, 1917, Pitch_bend_c, 7, 7936
7, 1918, Pitch_bend_c, 7, 7808
7, 1920, Pitch_bend_c, 7, 7776
7, 1924, Pitch_bend_c, 7, 7872
7, 1925, Pitch_bend_c, 7, 7936
7, 1926, Pitch_bend_c, 7, 7968
7, 1934, Pitch_bend_c, 7, 8000
7, 1935, Pitch_bend_c, 7, 8032
7, 1936, Pitch_bend_c, 7, 8128
7, 1938, Pitch_bend_c, 7, 8192
7, 1939, Pitch_bend_c, 7, 8224
7, 1940, Pitch_bend_c, 7, 8288
7, 1942, Pitch_bend_c, 7, 8352
7, 1943, Pitch_bend_c, 7, 8448
7, 1944, Pitch_bend_c, 7, 8544
7, 1946, Pitch_bend_c, 7, 8672
7, 1947, Pitch_bend_c, 7, 8736
7, 1948, Pitch_bend_c, 7, 8832
7, 1950, Pitch_bend_c, 7, 8896
7, 1951, Pitch_bend_c, 7, 8992
7, 1952, Pitch_bend_c, 7, 9152
7, 1954, Pitch_bend_c, 7, 9376
7, 1955, Pitch_bend_c, 7, 9632
7, 1956, Pitch_bend_c, 7, 9824
7, 1958, Pitch_bend_c, 7, 10048
7, 1959, Pitch_bend_c, 7, 10144
7, 1960, Pitch_bend_c, 7, 10208
7, 1963, Note_on_c, 7, 73, 0
7, 2192, Pitch_bend_c, 7, 8192
7, 2193, Note_on_c, 7, 76, 85
7, 2193, Pitch_bend_c, 7, 10304
7, 2197, Pitch_bend_c, 7, 10240
7, 2198, Pitch_bend_c, 7, 10208
7, 2199, Pitch_bend_c, 7, 10144
7, 2200, Pitch_bend_c, 7, 10112
7, 2205, Pitch_bend_c, 7, 10016
7, 2206, Pitch_bend_c, 7, 9952
7, 2207, Pitch_bend_c, 7, 9920
7, 2208, Pitch_bend_c, 7, 9856
7, 2210, Pitch_bend_c, 7, 9824
7, 2213, Pitch_bend_c, 7, 9760
7, 2218, Pitch_bend_c, 7, 9728
7, 2220, Pitch_bend_c, 7, 9664
7, 2223, Pitch_bend_c, 7, 9632
7, 2225, Pitch_bend_c, 7, 9568
7, 2226, Pitch_bend_c, 7, 9472
7, 2227, Pitch_bend_c, 7, 9440
7, 2228, Pitch_bend_c, 7, 9376
7, 2229, Pitch_bend_c, 7, 9344
7, 2231, Pitch_bend_c, 7, 9280
7, 2232, Pitch_bend_c, 7, 9248
7, 2234, Pitch_bend_c, 7, 9184
7, 2235, Pitch_bend_c, 7, 9152
7, 2236, Pitch_bend_c, 7, 9088
7, 2238, Pitch_bend_c, 7, 8992
7, 2241, Pitch_bend_c, 7, 8960
7, 2242, Pitch_bend_c, 7, 8896
7, 2244, Pitch_bend_c, 7, 8800
7, 2245, Pitch_bend_c, 7, 8768
7, 2246, Pitch_bend_c, 7, 8704
7, 2248, Pitch_bend_c, 7, 8672
7, 2249, Pitch_bend_c, 7, 8576
7, 2250, Pitch_bend_c, 7, 8512
7, 2252, Pitch_bend_c, 7, 8416
7, 2253, Pitch_bend_c, 7, 8288
7, 2254, Pitch_bend_c, 7, 8064
7, 2256, Pitch_bend_c, 7, 7840
7, 2257, Pitch_bend_c, 7, 7520
7, 2258, Pitch_bend_c, 7, 7264
7, 2260, Pitch_bend_c, 7, 6976
7, 2261, Pitch_bend_c, 7, 6656
7, 2262, Pitch_bend_c, 7, 6336
7, 2263, Pitch_bend_c, 7, 5984
7, 2265, Pitch_bend_c, 7, 5664
7, 2266, Pitch_bend_c, 7, 5440
7, 2267, Pitch_bend_c, 7, 5248
7, 2269, Pitch_bend_c, 7, 5152
7, 2271, Note_on_c, 7, 76, 0
7, 2271, Pitch_bend_c, 7, 5984
7, 2274, Pitch_bend_c, 7, 8192
7, 2275, Note_on_c, 7, 75, 82
7, 2275, Pitch_bend_c, 7, 8576
7, 2277, Pitch_bend_c, 7, 8544
7, 2278, Pitch_bend_c, 7, 8448
7, 2279, Pitch_bend_c, 7, 8352
7, 2280, Pitch_bend_c, 7, 8256
7, 2282, Pitch_bend_c, 7, 8128
7, 2283, Pitch_bend_c, 7, 8000
7, 2284, Pitch_bend_c, 7, 7936
7, 2286, Note_on_c, 7, 75, 0
7, 2286, Pitch_bend_c, 7, 8256
7, 2295, Pitch_bend_c, 7, 8192
7, 2296, Note_on_c, 7, 73, 84
7, 2296, Pitch_bend_c, 7, 8128
7, 2297, Pitch_bend_c, 7, 8224
7, 2298, Pitch_bend_c, 7, 8192
7, 2300, Pitch_bend_c, 7, 8160
7, 2302, Pitch_bend_c, 7, 8128
7, 2305, Pitch_bend_c, 7, 8160
7, 2311, Pitch_bend_c, 7, 8128
7, 2317, Pitch_bend_c, 7, 8160
7, 2319, Pitch_bend_c, 7, 8192
7, 2329, Pitch_bend_c, 7, 8160
7, 2330, Pitch_bend_c, 7, 8064
7, 2331, Pitch_bend_c, 7, 8000
7, 2332, Pitch_bend_c, 7, 7936
7, 2335, Pitch_bend_c, 7, 8032
7, 2337, Pitch_bend_c, 7, 8224
7, 2338, Pitch_bend_c, 7, 8576
7, 2339, Pitch_bend_c, 7, 9056
7, 2340, Pitch_bend_c, 7, 9664
7, 2341, Pitch_bend_c, 7, 10144
7, 2343, Pitch_bend_c, 7, 10400
7, 2344, Pitch_bend_c, 7, 10208
7, 2345, Note_on_c, 7, 73, 0
7, 2359, Pitch_bend_c, 7, 8192
7, 2360, Note_on_c, 7, 70, 75
7, 2360, Pitch_bend_c, 7, 8448
7, 2361, Pitch_bend_c, 7, 8512
7, 2362, Pitch_bend_c, 7, 8480
7, 2363, Pitch_bend_c, 7, 8448
7, 2365, Pitch_bend_c, 7, 8384
7, 2366, Pitch_bend_c, 7, 8352
7, 2367, Pitch_bend_c, 7, 8288
7, 2369, Pitch_bend_c, 7, 8256
7, 2370, Pitch_bend_c, 7, 8224
7, 2374, Pitch_bend_c, 7, 8192
7, 2384, Pitch_bend_c, 7, 8160
7, 2386, Pitch_bend_c, 7, 8128
7, 2391, Pitch_bend_c, 7, 8192
7, 2392, Pitch_bend_c, 7, 8320
7, 2393, Pitch_bend_c, 7, 8800
7, 2395, Pitch_bend_c, 7, 9408
7, 2396, Pitch_bend_c, 7, 10080
7, 2397, Pitch_bend_c, 7, 10592
7, 2399, Pitch_bend_c, 7, 10752
7, 2400, Pitch_bend_c, 7, 10400
7, 2401, Pitch_bend_c, 7, 9728
7, 2402, Pitch_bend_c, 7, 9056
7, 2404, Pitch_bend_c, 7, 8448
7, 2405, Pitch_bend_c, 7, 8192
7, 2407, Pitch_bend_c, 7, 8224
7, 2409, Pitch_bend_c, 7, 8480
7, 2410, Pitch_bend_c, 7, 8928
7, 2411, Pitch_bend_c, 7, 9344
7, 2413, Pitch_bend_c, 7, 9472
7, 2414, Pitch_bend_c, 7, 9216
7, 2415, Note_on_c, 7, 70, 0
7, 2415, Pitch_bend_c, 7, 8192
7, 2416, Note_on_c, 7, 65, 69
7, 2416, Pitch_bend_c, 7, 9248
7, 2418, Pitch_bend_c, 7, 9536
7, 2419, Pitch_bend_c, 7, 11936
7, 2421, Pitch_bend_c, 7, 11968
7, 2422, Pitch_bend_c, 7, 12032
7, 2423, Pitch_bend_c, 7, 16096
7, 2426, Pitch_bend_c, 7, 16064
7, 2427, Pitch_bend_c, 7, 16032
7, 2430, Pitch_bend_c, 7, 16064
7, 2431, Pitch_bend_c, 7, 16192
7, 2432, Note_on_c, 7, 65, 0
7, 2434, Note_on_c, 7, 70, 82
7, 2434, Pitch_bend_c, 7, 8352
7, 2436, Pitch_bend_c, 7, 8416
7, 2439, Pitch_bend_c, 7, 8384
7, 2440, Pitch_bend_c, 7, 8320
7, 2441, Pitch_bend_c, 7, 8192
7, 2442, Pitch_bend_c, 7, 8128
7, 2444, Pitch_bend_c, 7, 8000
7, 2447, Note_on_c, 7, 70, 0
7, 2447, Note_on_c, 7, 72, 50
7, 2447, Pitch_bend_c, 7, 12000
7, 2450, Note_on_c, 7, 72, 0
7, 2451, Note_on_c, 7, 73, 71
7, 2451, Pitch_bend_c, 7, 8192
7, 2453, Pitch_bend_c, 7, 8160
7, 2454, Pitch_bend_c, 7, 8128
7, 2456, Pitch_bend_c, 7, 8064
7, 2457, Pitch_bend_c, 7, 8000
7, 2458, Pitch_bend_c, 7, 7968
7, 2460, Pitch_bend_c, 7, 8000
7, 2464, Pitch_bend_c, 7, 7968
7, 2470, Pitch_bend_c, 7, 7936
7, 2473, Pitch_bend_c, 7, 7968
7, 2475, Pitch_bend_c, 7, 8000
7, 2477, Pitch_bend_c, 7, 8032
7, 2478, Pitch_bend_c, 7, 8128
7, 2479, Pitch_bend_c, 7, 8160
7, 2481, Pitch_bend_c, 7, 8256
7, 2482, Pitch_bend_c, 7, 8384
7, 2483, Pitch_bend_c, 7, 8576
7, 2485, Pitch_bend_c, 7, 8864
7, 2486, Pitch_bend_c, 7, 9344
7, 2488, Pitch_bend_c, 7, 9920
7, 2489, Pitch_bend_c, 7, 10464
7, 2490, Pitch_bend_c, 7, 10976
7, 2491, Pitch_bend_c, 7, 11232
7, 2493, Pitch_bend_c, 7, 11392
7, 2494, Pitch_bend_c, 7, 11488
7, 2497, Pitch_bend_c, 7, 11232
7, 2498, Pitch_bend_c, 7, 8832
7, 2499, Note_on_c, 7, 73, 0
7, 2499, Pitch_bend_c, 7, 11232
7, 2500, Note_on_c, 7, 75, 82
7, 2500, Pitch_bend_c, 7, 8192
7, 2501, Pitch_bend_c, 7, 8672
7, 2502, Pitch_bend_c, 7, 8576
7, 2504, Pitch_bend_c, 7, 8640
7, 2507, Pitch_bend_c, 7, 8544
7, 2510, Pitch_bend_c, 7, 8448
7, 2511, Pitch_bend_c, 7, 8352
7, 2512, Pitch_bend_c, 7, 16383
7, 2513, Note_on_c, 7, 75, 0
7, 2514, Pitch_bend_c, 7, 8192
7, 2515, Note_on_c, 7, 77, 78
7, 2515, Pitch_bend_c, 7, 8288
7, 2521, Pitch_bend_c, 7, 8224
7, 2523, Pitch_bend_c, 7, 8192
7, 2524, Pitch_bend_c, 7, 8064
7, 2525, Pitch_bend_c, 7, 7968
7, 2526, Note_on_c, 7, 77, 0
7, 2526, Pitch_bend_c, 7, 8288
7, 2528, Pitch_bend_c, 7, 8192
7, 2529, Note_on_c, 7, 73, 49
7, 2529, Pitch_bend_c, 7, 8000
7, 2532, Pitch_bend_c, 7, 8160
7, 2534, Pitch_bend_c, 7, 8608
7, 2535, Pitch_bend_c, 7, 11136
7, 2536, Pitch_bend_c, 7, 11328
7, 2537, Pitch_bend_c, 7, 11520
7, 2540, Note_on_c, 7, 73, 0
7, 2550, Pitch_bend_c, 7, 8192
7, 2551, Note_on_c, 7, 70, 44
7, 2551, Pitch_bend_c, 7, 8512
7, 2553, Pitch_bend_c, 7, 8576
7, 2557, Pitch_bend_c, 7, 8544
7, 2561, Pitch_bend_c, 7, 8512
7, 2562, Pitch_bend_c, 7, 8480
7, 2566, Pitch_bend_c, 7, 8448
7, 2568, Pitch_bend_c, 7, 8480
7, 2571, Pitch_bend_c, 7, 8448
7, 2573, Pitch_bend_c, 7, 8416
7, 2575, Pitch_bend_c, 7, 8320
7, 2576, Pitch_bend_c, 7, 8192
7, 2577, Pitch_bend_c, 7, 8096
7, 2579, Pitch_bend_c, 7, 8000
7, 2580, Pitch_bend_c, 7, 7968
7, 2582, Pitch_bend_c, 7, 8256
7, 2584, Pitch_bend_c, 7, 8896
7, 2586, Pitch_bend_c, 7, 9632
7, 2587, Pitch_bend_c, 7, 10304
7, 2588, Pitch_bend_c, 7, 10592
7, 2590, Pitch_bend_c, 7, 10240
7, 2591, Pitch_bend_c, 7, 9568
7, 2592, Pitch_bend_c, 7, 8864
7, 2593, Pitch_bend_c, 7, 8288
7, 2595, Pitch_bend_c, 7, 8032
7, 2596, Pitch_bend_c, 7, 7936
7, 2599, Note_on_c, 7, 70, 0
7, 2599, Pitch_bend_c, 7, 8864
7, 2606, Pitch_bend_c, 7, 8192
7, 2607, Note_on_c, 7, 72, 55
7, 2607, Pitch_bend_c, 7, 8224
7, 2609, Pitch_bend_c, 7, 8256
7, 2610, Pitch_bend_c, 7, 8320
7, 2612, Pitch_bend_c, 7, 8640
7, 2613, Pitch_bend_c, 7, 9152
7, 2614, Pitch_bend_c, 7, 9920
7, 2615, Pitch_bend_c, 7, 10752
7, 2617, Pitch_bend_c, 7, 11488
7, 2618, Pitch_bend_c, 7, 12000
7, 2620, Pitch_bend_c, 7, 12288
7, 2621, Pitch_bend_c, 7, 12352
7, 2622, Note_on_c, 7, 72, 0
7, 2630, Pitch_bend_c, 7, 8192
7, 2631, Note_on_c, 7, 72, 64
7, 2631, Pitch_bend_c, 7, 9472
7, 2633, Pitch_bend_c, 7, 9728
7, 2635, Pitch_bend_c, 7, 10080
7, 2636, Pitch_bend_c, 7, 10400
7, 2637, Pitch_bend_c, 7, 10688
7, 2638, Pitch_bend_c, 7, 10816
7, 2641, Pitch_bend_c, 7, 10528
7, 2642, Pitch_bend_c, 7, 10016
7, 2644, Pitch_bend_c, 7, 9312
7, 2645, Pitch_bend_c, 7, 8640
7, 2646, Pitch_bend_c, 7, 8192
7, 2647, Note_on_c, 7, 72, 0
7, 2647, Pitch_bend_c, 7, 10528
7, 2651, Note_on_c, 7, 70, 64
7, 2651, Pitch_bend_c, 7, 8032
7, 2655, Pitch_bend_c, 7, 8064
7, 2658, Pitch_bend_c, 7, 7968
7, 2659, Pitch_bend_c, 7, 16320
7, 2660, Pitch_bend_c, 7, 16288
7, 2661, Pitch_bend_c, 7, 16320
7, 2663, Note_on_c, 7, 70, 0
7, 2663, Pitch_bend_c, 7, 8512
7, 2664, Pitch_bend_c, 7, 8192
7, 2666, Note_on_c, 7, 70, 44
7, 2671, Note_on_c, 7, 70, 0
7, 2674, Note_on_c, 7, 67, 16
7, 2674, Pitch_bend_c, 7, 8128
7, 2675, Pitch_bend_c, 7, 8224
7, 2678, Pitch_bend_c, 7, 8192
7, 2679, Pitch_bend_c, 7, 8224
7, 2683, Note_on_c, 7, 67, 0
7, 2683, Pitch_bend_c, 7, 8192
7, 2684, Note_on_c, 7, 70, 43
7, 2684, Pitch_bend_c, 7, 8064
7, 2691, Pitch_bend_c, 7, 8128
7, 2692, Pitch_bend_c, 7, 8096
7, 2700, Pitch_bend_c, 7, 8128
7, 2702, Pitch_bend_c, 7, 8160
7, 2708, Pitch_bend_c, 7, 8128
7, 2709, Pitch_bend_c, 7, 8160
7, 2710, Pitch_bend_c, 7, 8256
7, 2711, Pitch_bend_c, 7, 8512
7, 2713, Pitch_bend_c, 7, 8832
7, 2714, Pitch_bend_c, 7, 9024
7, 2716, Pitch_bend_c, 7, 9056
7, 2717, Pitch_bend_c, 7, 8896
7, 2718, Pitch_bend_c, 7, 8544
7, 2719, Pitch_bend_c, 7, 8224
7, 2721, Pitch_bend_c, 7, 8032
7, 2722, Pitch_bend_c, 7, 7904
7, 2723, Pitch_bend_c, 7, 7936
7, 2724, Pitch_bend_c, 7, 8256
7, 2726, Pitch_bend_c, 7, 10592
7, 2727, Pitch_bend_c, 7, 10784
7, 2728, Pitch_bend_c, 7, 11008
7, 2730, Pitch_bend_c, 7, 11104
7, 2731, Pitch_bend_c, 7, 10880
7, 2732, Pitch_bend_c, 7, 8512
7, 2734, Pitch_bend_c, 7, 8352
7, 2735, Pitch_bend_c, 7, 8192
7, 2736, Pitch_bend_c, 7, 8096
7, 2738, Note_on_c, 7, 70, 0
7, 2738, Pitch_bend_c, 7, 8512
7, 2957, Note_on_c, 7, 79, 99
7, 2957, Pitch_bend_c, 7, 8448
7, 2958, Pitch_bend_c, 7, 8544
7, 2959, Pitch_bend_c, 7, 8448
7, 2960, Pitch_bend_c, 7, 8384
7, 2962, Pitch_bend_c, 7, 8320
7, 2963, Pitch_bend_c, 7, 8384
7, 2965, Pitch_bend_c, 7, 8736
7, 2966, Pitch_bend_c, 7, 9248
7, 2967, Pitch_bend_c, 7, 9824
7, 2968, Pitch_bend_c, 7, 10496
7, 2969, Pitch_bend_c, 7, 11136
7, 2971, Pitch_bend_c, 7, 11584
7, 2972, Pitch_bend_c, 7, 12032
7, 2974, Pitch_bend_c, 7, 12320
7, 2975, Pitch_bend_c, 7, 12448
7, 2976, Pitch_bend_c, 7, 12576
7, 2983, Pitch_bend_c, 7, 12512
7, 2992, Pitch_bend_c, 7, 12576
7, 2995, Pitch_bend_c, 7, 12512
7, 2997, Pitch_bend_c, 7, 12448
7, 2998, Pitch_bend_c, 7, 12320
7, 3000, Pitch_bend_c, 7, 12224
7, 3001, Pitch_bend_c, 7, 11936
7, 3002, Pitch_bend_c, 7, 11456
7, 3004, Pitch_bend_c, 7, 10848
7, 3005, Pitch_bend_c, 7, 10080
7, 3006, Pitch_bend_c, 7, 9408
7, 3007, Pitch_bend_c, 7, 8832
7, 3009, Pitch_bend_c, 7, 8544
7, 3010, Pitch_bend_c, 7, 8448
7, 3011, Note_on_c, 7, 79, 0
7, 3011, Pitch_bend_c, 7, 10080
7, 3014, Note_on_c, 7, 77, 87
7, 3014, Pitch_bend_c, 7, 8736
7, 3016, Pitch_bend_c, 7, 8672
7, 3017, Pitch_bend_c, 7, 8736
7, 3018, Pitch_bend_c, 7, 8800
7, 3020, Pitch_bend_c, 7, 8832
7, 3024, Pitch_bend_c, 7, 8800
7, 3026, Pitch_bend_c, 7, 8832
7, 3028, Pitch_bend_c, 7, 8928
7, 3029, Pitch_bend_c, 7, 8832
7, 3030, Pitch_bend_c, 7, 6624
7, 3031, Note_on_c, 7, 77, 0
7, 3031, Pitch_bend_c, 7, 8800
7, 3032, Pitch_bend_c, 7, 8192
7, 3033, Note_on_c, 7, 74, 85
7, 3033, Pitch_bend_c, 7, 12672
7, 3034, Pitch_bend_c, 7, 12640
7, 3036, Pitch_bend_c, 7, 12576
7, 3038, Pitch_bend_c, 7, 12640
7, 3042, Pitch_bend_c, 7, 12576
7, 3043, Pitch_bend_c, 7, 12544
7, 3047, Pitch_bend_c, 7, 12576
7, 3048, Note_on_c, 7, 74, 0
7, 3048, Pitch_bend_c, 7, 8192
7, 3049, Note_on_c, 7, 77, 87
7, 3050, Pitch_bend_c, 7, 8832
7, 3052, Pitch_bend_c, 7, 8896
7, 3056, Pitch_bend_c, 7, 8800
7, 3057, Pitch_bend_c, 7, 8672
7, 3058, Pitch_bend_c, 7, 8544
7, 3060, Pitch_bend_c, 7, 8384
7, 3061, Pitch_bend_c, 7, 8192
7, 3062, Pitch_bend_c, 7, 8000
7, 3064, Note_on_c, 7, 77, 0
7, 3064, Pitch_bend_c, 7, 8544
7, 3066, Pitch_bend_c, 7, 8192
7, 3067, Note_on_c, 7, 72, 83
7, 3067, Pitch_bend_c, 7, 8512
7, 3070, Pitch_bend_c, 7, 8480
7, 3072, Pitch_bend_c, 7, 8512
7, 3073, Pitch_bend_c, 7, 8544
7, 3074, Pitch_bend_c, 7, 8608
7, 3076, Pitch_bend_c, 7, 8640
7, 3077, Pitch_bend_c, 7, 8800
7, 3078, Pitch_bend_c, 7, 9056
7, 3079, Pitch_bend_c, 7, 9600
7, 3081, Pitch_bend_c, 7, 10304
7, 3082, Pitch_bend_c, 7, 11136
7, 3083, Pitch_bend_c, 7, 11936
7, 3084, Pitch_bend_c, 7, 12512
7, 3086, Pitch_bend_c, 7, 12608
7, 3087, Note_on_c, 7, 72, 0
7, 3089, Pitch_bend_c, 7, 8192
7, 3092, Pitch_bend_c, 7, 11200
7, 3093, Pitch_bend_c, 7, 12224
7, 3096, Pitch_bend_c, 7, 12352
7, 3098, Pitch_bend_c, 7, 12480
7, 3099, Pitch_bend_c, 7, 8192
7, 3099, Note_on_c, 7, 70, 71
7, 3114, Pitch_bend_c, 7, 8480
7, 3115, Pitch_bend_c, 7, 8512
7, 3123, Pitch_bend_c, 7, 8480
7, 3124, Pitch_bend_c, 7, 8416
7, 3126, Pitch_bend_c, 7, 8320
7, 3127, Pitch_bend_c, 7, 8256
7, 3128, Pitch_bend_c, 7, 8192
7, 3130, Pitch_bend_c, 7, 8160
7, 3133, Pitch_bend_c, 7, 8192
7, 3135, Pitch_bend_c, 7, 8224
7, 3136, Pitch_bend_c, 7, 8384
7, 3137, Pitch_bend_c, 7, 8672
7, 3139, Pitch_bend_c, 7, 8960
7, 3140, Pitch_bend_c, 7, 9184
7, 3141, Pitch_bend_c, 7, 9344
7, 3143, Pitch_bend_c, 7, 9312
7, 3144, Pitch_bend_c, 7, 9024
7, 3145, Pitch_bend_c, 7, 8608
7, 3147, Pitch_bend_c, 7, 8256
7, 3148, Pitch_bend_c, 7, 8032
7, 3149, Pitch_bend_c, 7, 7904
7, 3151, Pitch_bend_c, 7, 7936
7, 3152, Pitch_bend_c, 7, 8064
7, 3153, Pitch_bend_c, 7, 8320
7, 3154, Pitch_bend_c, 7, 8704
7, 3156, Pitch_bend_c, 7, 9152
7, 3157, Pitch_bend_c, 7, 9440
7, 3158, Pitch_bend_c, 7, 9504
7, 3159, Pitch_bend_c, 7, 9216
7, 3161, Pitch_bend_c, 7, 8832
7, 3162, Pitch_bend_c, 7, 8384
7, 3163, Pitch_bend_c, 7, 8064
7, 3165, Pitch_bend_c, 7, 7936
7, 3166, Pitch_bend_c, 7, 7904
7, 3167, Pitch_bend_c, 7, 7936
7, 3169, Pitch_bend_c, 7, 7904
7, 3170, Pitch_bend_c, 7, 7936
7, 3171, Pitch_bend_c, 7, 7776
7, 3172, Note_on_c, 7, 70, 0
7, 3200, Note_on_c, 7, 67, 56
7, 3200, Pitch_bend_c, 7, 8352
7, 3201, Pitch_bend_c, 7, 8384
7, 3207, Pitch_bend_c, 7, 8352
7, 3208, Pitch_bend_c, 7, 8288
7, 3209, Pitch_bend_c, 7, 8256
7, 3211, Pitch_bend_c, 7, 8064
7, 3212, Note_on_c, 7, 67, 0
7, 3212, Pitch_bend_c, 7, 8192
7, 3213, Note_on_c, 7, 70, 68
7, 3213, Pitch_bend_c, 7, 8064
7, 3215, Pitch_bend_c, 7, 8096
7, 3216, Pitch_bend_c, 7, 8128
7, 3219, Pitch_bend_c, 7, 8160
7, 3220, Pitch_bend_c, 7, 8192
7, 3222, Note_on_c, 7, 70, 0
7, 3222, Pitch_bend_c, 7, 8256
7, 3224, Note_on_c, 7, 72, 71
7, 3224, Pitch_bend_c, 7, 8544
7, 3226, Pitch_bend_c, 7, 8608
7, 3227, Pitch_bend_c, 7, 8544
7, 3228, Pitch_bend_c, 7, 8480
7, 3229, Pitch_bend_c, 7, 8448
7, 3231, Pitch_bend_c, 7, 8672
7, 3232, Pitch_bend_c, 7, 11296
7, 3234, Pitch_bend_c, 7, 11552
7, 3235, Pitch_bend_c, 7, 12000
7, 3236, Pitch_bend_c, 7, 12544
7, 3237, Pitch_bend_c, 7, 13152
7, 3239, Pitch_bend_c, 7, 13440
7, 3240, Note_on_c, 7, 72, 0
7, 3246, Pitch_bend_c, 7, 8192
7, 3247, Note_on_c, 7, 72, 51
7, 3250, Pitch_bend_c, 7, 8352
7, 3251, Pitch_bend_c, 7, 8832
7, 3252, Pitch_bend_c, 7, 11072
7, 3253, Pitch_bend_c, 7, 11328
7, 3255, Pitch_bend_c, 7, 11744
7, 3256, Pitch_bend_c, 7, 12384
7, 3257, Pitch_bend_c, 7, 13088
7, 3259, Pitch_bend_c, 7, 13600
7, 3260, Pitch_bend_c, 7, 13920
7, 3261, Pitch_bend_c, 7, 14144
7, 3262, Pitch_bend_c, 7, 14304
7, 3264, Pitch_bend_c, 7, 14368
7, 3265, Pitch_bend_c, 7, 14464
7, 3266, Pitch_bend_c, 7, 14496
7, 3270, Pitch_bend_c, 7, 14464
7, 3273, Pitch_bend_c, 7, 14400
7, 3277, Pitch_bend_c, 7, 14368
7, 3281, Pitch_bend_c, 7, 14336
7, 3282, Pitch_bend_c, 7, 14208
7, 3283, Pitch_bend_c, 7, 13856
7, 3284, Pitch_bend_c, 7, 10240
7, 3286, Pitch_bend_c, 7, 9728
7, 3287, Pitch_bend_c, 7, 5888
7, 3288, Note_on_c, 7, 72, 0
7, 3290, Pitch_bend_c, 7, 8192
7, 3304, Note_on_c, 7, 77, 88
7, 3304, Pitch_bend_c, 7, 7776
7, 3307, Pitch_bend_c, 7, 8000
7, 3308, Pitch_bend_c, 7, 10656
7, 3310, Pitch_bend_c, 7, 11136
7, 3311, Pitch_bend_c, 7, 14080
7, 3312, Pitch_bend_c, 7, 14336
7, 3314, Pitch_bend_c, 7, 14656
7, 3315, Pitch_bend_c, 7, 15104
7, 3316, Pitch_bend_c, 7, 15520
7, 3318, Pitch_bend_c, 7, 15744
7, 3319, Pitch_bend_c, 7, 15872
7, 3321, Pitch_bend_c, 7, 15904
7, 3328, Pitch_bend_c, 7, 15808
7, 3329, Pitch_bend_c, 7, 15744
7, 3330, Pitch_bend_c, 7, 15648
7, 3332, Pitch_bend_c, 7, 15520
7, 3333, Pitch_bend_c, 7, 15488
7, 3334, Pitch_bend_c, 7, 15264
7, 3335, Pitch_bend_c, 7, 15008
7, 3337, Pitch_bend_c, 7, 14336
7, 3338, Pitch_bend_c, 7, 11584
7, 3339, Pitch_bend_c, 7, 11392
7, 3340, Pitch_bend_c, 7, 10976
7, 3342, Pitch_bend_c, 7, 10464
7, 3343, Pitch_bend_c, 7, 9792
7, 3344, Pitch_bend_c, 7, 9280
7, 3346, Pitch_bend_c, 7, 8896
7, 3347, Pitch_bend_c, 7, 8544
7, 3348, Pitch_bend_c, 7, 8288
7, 3349, Note_on_c, 7, 77, 0
7, 3349, Pitch_bend_c, 7, 9792
7, 3350, Pitch_bend_c, 7, 8192
7, 3351, Note_on_c, 7, 77, 56
7, 3351, Pitch_bend_c, 7, 7712
7, 3356, Pitch_bend_c, 7, 7680
7, 3359, Pitch_bend_c, 7, 7712
7, 3360, Note_on_c, 7, 77, 0
7, 3360, Pitch_bend_c, 7, 7776
7, 3361, Pitch_bend_c, 7, 8192
7, 3365, Note_on_c, 7, 70, 38
7, 3365, Pitch_bend_c, 7, 8480
7, 3368, Pitch_bend_c, 7, 8512
7, 3369, Pitch_bend_c, 7, 8480
7, 3372, Pitch_bend_c, 7, 8448
7, 3374, Pitch_bend_c, 7, 8416
7, 3375, Pitch_bend_c, 7, 8384
7, 3377, Pitch_bend_c, 7, 8320
7, 3378, Pitch_bend_c, 7, 8224
7, 3379, Pitch_bend_c, 7, 8288
7, 3380, Pitch_bend_c, 7, 8576
7, 3382, Pitch_bend_c, 7, 9120
7, 3383, Pitch_bend_c, 7, 9728
7, 3384, Pitch_bend_c, 7, 10080
7, 3386, Pitch_bend_c, 7, 9888
7, 3387, Pitch_bend_c, 7, 9344
7, 3388, Pitch_bend_c, 7, 8672
7, 3390, Pitch_bend_c, 7, 8192
7, 3391, Pitch_bend_c, 7, 8000
7, 3392, Pitch_bend_c, 7, 7936
7, 3394, Pitch_bend_c, 7, 8000
7, 3395, Pitch_bend_c, 7, 8192
7, 3396, Pitch_bend_c, 7, 8352
7, 3398, Pitch_bend_c, 7, 8544
7, 3399, Note_on_c, 7, 70, 0
7, 3399, Pitch_bend_c, 7, 8608
7, 3407, Pitch_bend_c, 7, 8192
7, 3408, Note_on_c, 7, 72, 49
7, 3408, Pitch_bend_c, 7, 9408
7, 3410, Pitch_bend_c, 7, 9664
7, 3412, Pitch_bend_c, 7, 10080
7, 3413, Pitch_bend_c, 7, 10624
7, 3414, Pitch_bend_c, 7, 11296
7, 3415, Pitch_bend_c, 7, 12000
7, 3417, Pitch_bend_c, 7, 12672
7, 3418, Pitch_bend_c, 7, 13440
7, 3419, Pitch_bend_c, 7, 14176
7, 3420, Pitch_bend_c, 7, 14880
7, 3422, Pitch_bend_c, 7, 15424
7, 3423, Pitch_bend_c, 7, 15744
7, 3424, Pitch_bend_c, 7, 15904
7, 3426, Pitch_bend_c, 7, 16000
7, 3432, Pitch_bend_c, 7, 15936
7, 3435, Pitch_bend_c, 7, 15904
7, 3436, Pitch_bend_c, 7, 15872
7, 3443, Pitch_bend_c, 7, 15808
7, 3445, Pitch_bend_c, 7, 15776
7, 3448, Pitch_bend_c, 7, 15744
7, 3449, Pitch_bend_c, 7, 15712
7, 3450, Pitch_bend_c, 7, 15648
7, 3452, Pitch_bend_c, 7, 15616
7, 3453, Pitch_bend_c, 7, 15584
7, 3455, Pitch_bend_c, 7, 15488
7, 3456, Pitch_bend_c, 7, 15424
7, 3457, Pitch_bend_c, 7, 15328
7, 3459, Pitch_bend_c, 7, 15296
7, 3460, Pitch_bend_c, 7, 15168
7, 3461, Pitch_bend_c, 7, 14976
7, 3462, Pitch_bend_c, 7, 14784
7, 3464, Pitch_bend_c, 7, 14560
7, 3465, Pitch_bend_c, 7, 14400
7, 3466, Pitch_bend_c, 7, 14304
7, 3468, Pitch_bend_c, 7, 14208
7, 3469, Pitch_bend_c, 7, 13952
7, 3470, Pitch_bend_c, 7, 11264
7, 3471, Pitch_bend_c, 7, 10816
7, 3473, Pitch_bend_c, 7, 7936
7, 3474, Note_on_c, 7, 72, 0
7, 3528, Note_on_c, 7, 69, 97
7, 3528, Pitch_bend_c, 7, 8192
7, 3529, Pitch_bend_c, 7, 8480
7, 3530, Pitch_bend_c, 7, 8416
7, 3531, Pitch_bend_c, 7, 8384
7, 3535, Pitch_bend_c, 7, 8512
7, 3536, Pitch_bend_c, 7, 12160
7, 3537, Pitch_bend_c, 7, 12256
7, 3539, Pitch_bend_c, 7, 12320
7, 3540, Pitch_bend_c, 7, 12384
7, 3542, Pitch_bend_c, 7, 12448
7, 3543, Pitch_bend_c, 7, 12480
7, 3545, Pitch_bend_c, 7, 12512
7, 3552, Pitch_bend_c, 7, 12544
7, 3554, Pitch_bend_c, 7, 12576
7, 3557, Pitch_bend_c, 7, 12608
7, 3558, Pitch_bend_c, 7, 12640
7, 3559, Pitch_bend_c, 7, 12704
7, 3561, Pitch_bend_c, 7, 12768
7, 3562, Pitch_bend_c, 7, 12928
7, 3564, Pitch_bend_c, 7, 13024
7, 3566, Note_on_c, 7, 69, 0
7, 3566, Note_on_c, 7, 65, 88
7, 3566, Pitch_bend_c, 7, 8672
7, 3573, Pitch_bend_c, 7, 8512
7, 3574, Pitch_bend_c, 7, 8480
7, 3575, Pitch_bend_c, 7, 8416
7, 3577, Pitch_bend_c, 7, 8288
7, 3578, Note_on_c, 7, 65, 0
7, 3578, Pitch_bend_c, 7, 8672
7, 3579, Pitch_bend_c, 7, 8192
7, 3580, Note_on_c, 7, 63, 46
7, 3580, Pitch_bend_c, 7, 8128
7, 3585, Pitch_bend_c, 7, 8096
7, 3587, Note_on_c, 7, 63, 0
7, 3587, Pitch_bend_c, 7, 8192
7, 3592, Note_on_c, 7, 65, 72
7, 3592, Pitch_bend_c, 7, 8416
7, 3598, Pitch_bend_c, 7, 8448
7, 3599, Pitch_bend_c, 7, 8480
7, 3601, Pitch_bend_c, 7, 8512
7, 3602, Pitch_bend_c, 7, 8544
7, 3603, Pitch_bend_c, 7, 8576
7, 3605, Pitch_bend_c, 7, 8544
7, 3606, Pitch_bend_c, 7, 8192
7, 3607, Note_on_c, 7, 61, 49
7, 3611, Note_on_c, 7, 65, 0
7, 3611, Pitch_bend_c, 7, 8224
7, 3613, Pitch_bend_c, 7, 8288
7, 3614, Pitch_bend_c, 7, 8320
7, 3615, Pitch_bend_c, 7, 8352
7, 3616, Pitch_bend_c, 7, 8320
7, 3618, Pitch_bend_c, 7, 8288
7, 3619, Pitch_bend_c, 7, 8224
7, 3621, Pitch_bend_c, 7, 8192
7, 3622, Pitch_bend_c, 7, 8128
7, 3623, Pitch_bend_c, 7, 8032
7, 3626, Pitch_bend_c, 7, 8096
7, 3627, Pitch_bend_c, 7, 8384
7, 3628, Pitch_bend_c, 7, 8928
7, 3629, Pitch_bend_c, 7, 9536
7, 3631, Pitch_bend_c, 7, 10144
7, 3632, Pitch_bend_c, 7, 10528
7, 3633, Pitch_bend_c, 7, 10688
7, 3635, Pitch_bend_c, 7, 10656
7, 3636, Pitch_bend_c, 7, 10560
7, 3637, Pitch_bend_c, 7, 10240
7, 3639, Note_on_c, 7, 61, 0
7, 3639, Pitch_bend_c, 7, 9856
7, 3640, Pitch_bend_c, 7, 8192
7, 3641, Note_on_c, 7, 58, 47
7, 3641, Pitch_bend_c, 7, 8064
7, 3642, Pitch_bend_c, 7, 8128
7, 3646, Pitch_bend_c, 7, 8160
7, 3652, Pitch_bend_c, 7, 8128
7, 3656, Pitch_bend_c, 7, 8096
7, 3658, Pitch_bend_c, 7, 8128
7, 3663, Pitch_bend_c, 7, 8096
7, 3666, Pitch_bend_c, 7, 8064
7, 3669, Pitch_bend_c, 7, 8032
7, 3672, Pitch_bend_c, 7, 8000
7, 3675, Pitch_bend_c, 7, 8032
7, 3676, Pitch_bend_c, 7, 8128
7, 3677, Pitch_bend_c, 7, 8288
7, 3679, Pitch_bend_c, 7, 8544
7, 3680, Pitch_bend_c, 7, 8768
7, 3681, Pitch_bend_c, 7, 8864
7, 3684, Note_on_c, 7, 65, 60
7, 3684, Pitch_bend_c, 7, 8640
7, 3685, Pitch_bend_c, 7, 8672
7, 3687, Pitch_bend_c, 7, 8704
7, 3688, Pitch_bend_c, 7, 8064
7, 3689, Pitch_bend_c, 7, 8800
7, 3690, Note_on_c, 7, 58, 0
7, 3690, Pitch_bend_c, 7, 8736
7, 3691, Pitch_bend_c, 7, 8544
7, 3692, Note_on_c, 7, 65, 0
7, 3692, Pitch_bend_c, 7, 8704
7, 3696, Note_on_c, 7, 70, 84
7, 3696, Pitch_bend_c, 7, 8384
7, 3699, Pitch_bend_c, 7, 8352
7, 3701, Pitch_bend_c, 7, 8320
7, 3702, Pitch_bend_c, 7, 8256
7, 3703, Pitch_bend_c, 7, 8224
7, 3704, Pitch_bend_c, 7, 8256
7, 3706, Pitch_bend_c, 7, 8288
7, 3707, Pitch_bend_c, 7, 8320
7, 3711, Pitch_bend_c, 7, 8288
7, 3712, Pitch_bend_c, 7, 8320
7, 3713, Pitch_bend_c, 7, 8384
7, 3715, Pitch_bend_c, 7, 8480
7, 3716, Pitch_bend_c, 7, 8576
7, 3719, Note_on_c, 7, 70, 0
7, 3719, Pitch_bend_c, 7, 8544
7, 3720, Note_on_c, 7, 70, 84
7, 3720, Pitch_bend_c, 7, 8224
7, 3724, Pitch_bend_c, 7, 8256
7, 3727, Pitch_bend_c, 7, 8512
7, 3728, Pitch_bend_c, 7, 9056
7, 3729, Pitch_bend_c, 7, 9632
7, 3731, Pitch_bend_c, 7, 10144
7, 3732, Pitch_bend_c, 7, 10304
7, 3733, Pitch_bend_c, 7, 9952
7, 3735, Pitch_bend_c, 7, 9408
7, 3736, Pitch_bend_c, 7, 8896
7, 3737, Pitch_bend_c, 7, 8480
7, 3739, Pitch_bend_c, 7, 8352
7, 3740, Pitch_bend_c, 7, 8320
7, 3741, Pitch_bend_c, 7, 8352
7, 3748, Pitch_bend_c, 7, 8320
7, 3749, Pitch_bend_c, 7, 8288
7, 3751, Pitch_bend_c, 7, 8256
7, 3753, Pitch_bend_c, 7, 8224
7, 3755, Pitch_bend_c, 7, 8256
7, 3756, Note_on_c, 7, 70, 0
7, 3756, Pitch_bend_c, 7, 8320
7, 3758, Pitch_bend_c, 7, 8192
7, 3759, Note_on_c, 7, 74, 89
7, 3759, Pitch_bend_c, 7, 7872
7, 3760, Pitch_bend_c, 7, 8064
7, 3762, Pitch_bend_c, 7, 8192
7, 3775, Pitch_bend_c, 7, 7744
7, 3776, Pitch_bend_c, 7, 7712
7, 3778, Pitch_bend_c, 7, 7648
7, 3779, Pitch_bend_c, 7, 7616
7, 3780, Pitch_bend_c, 7, 7648
7, 3781, Pitch_bend_c, 7, 7712
7, 3783, Note_on_c, 7, 74, 0
7, 3783, Pitch_bend_c, 7, 7904
7, 3785, Pitch_bend_c, 7, 8192
7, 3786, Note_on_c, 7, 74, 89
7, 3786, Pitch_bend_c, 7, 8512
7, 3787, Pitch_bend_c, 7, 8064
7, 3789, Pitch_bend_c, 7, 8096
7, 3793, Pitch_bend_c, 7, 8000
7, 3794, Pitch_bend_c, 7, 7904
7, 3797, Pitch_bend_c, 7, 7840
7, 3800, Pitch_bend_c, 7, 7776
7, 3802, Pitch_bend_c, 7, 12000
7, 3803, Pitch_bend_c, 7, 12064
7, 3804, Note_on_c, 7, 74, 0
7, 3805, Pitch_bend_c, 7, 8192
7, 3806, Note_on_c, 7, 75, 89
7, 3809, Pitch_bend_c, 7, 8128
7, 3812, Pitch_bend_c, 7, 8160
7, 3813, Pitch_bend_c, 7, 8128
7, 3815, Pitch_bend_c, 7, 8160
7, 3816, Pitch_bend_c, 7, 8128
7, 3817, Pitch_bend_c, 7, 8032
7, 3818, Pitch_bend_c, 7, 8064
7, 3820, Pitch_bend_c, 7, 8160
7, 3822, Pitch_bend_c, 7, 8192
7, 3823, Pitch_bend_c, 7, 8224
7, 3825, Pitch_bend_c, 7, 8320
7, 3826, Pitch_bend_c, 7, 8416
7, 3827, Pitch_bend_c, 7, 8544
7, 3829, Pitch_bend_c, 7, 8640
7, 3830, Pitch_bend_c, 7, 8672
7, 3831, Pitch_bend_c, 7, 8768
7, 3833, Pitch_bend_c, 7, 8864
7, 3834, Pitch_bend_c, 7, 8960
7, 3835, Pitch_bend_c, 7, 9056
7, 3837, Pitch_bend_c, 7, 9120
7, 3838, Pitch_bend_c, 7, 9280
7, 3839, Pitch_bend_c, 7, 9344
7, 3841, Pitch_bend_c, 7, 9536
7, 3842, Pitch_bend_c, 7, 9760
7, 3843, Pitch_bend_c, 7, 9984
7, 3844, Pitch_bend_c, 7, 10304
7, 3845, Pitch_bend_c, 7, 10784
7, 3847, Pitch_bend_c, 7, 11328
7, 3848, Pitch_bend_c, 7, 12000
7, 3849, Pitch_bend_c, 7, 12704
7, 3851, Pitch_bend_c, 7, 13344
7, 3852, Pitch_bend_c, 7, 13824
7, 3854, Pitch_bend_c, 7, 14048
7, 3855, Pitch_bend_c, 7, 14144
7, 3856, Pitch_bend_c, 7, 13952
7, 3858, Pitch_bend_c, 7, 11360
7, 3859, Pitch_bend_c, 7, 10912
7, 3860, Pitch_bend_c, 7, 10304
7, 3861, Note_on_c, 7, 75, 0
7, 3861, Note_on_c, 7, 77, 86
7, 3861, Pitch_bend_c, 7, 8576
7, 3866, Pitch_bend_c, 7, 8544
7, 3867, Pitch_bend_c, 7, 8576
7, 3868, Pitch_bend_c, 7, 8544
7, 3871, Pitch_bend_c, 7, 8480
7, 3874, Pitch_bend_c, 7, 8416
7, 3875, Pitch_bend_c, 7, 8384
7, 3877, Pitch_bend_c, 7, 8320
7, 3879, Pitch_bend_c, 7, 8288
7, 3882, Pitch_bend_c, 7, 8320
7, 3886, Pitch_bend_c, 7, 8384
7, 3888, Pitch_bend_c, 7, 8416
7, 3894, Pitch_bend_c, 7, 8384
7, 3895, Pitch_bend_c, 7, 8416
7, 3896, Pitch_bend_c, 7, 8576
7, 3898, Pitch_bend_c, 7, 8896
7, 3899, Pitch_bend_c, 7, 9280
7, 3900, Pitch_bend_c, 7, 9696
7, 3901, Pitch_bend_c, 7, 10048
7, 3903, Pitch_bend_c, 7, 10272
7, 3904, Pitch_bend_c, 7, 10368
7, 3907, Pitch_bend_c, 7, 10208
7, 3908, Pitch_bend_c, 7, 9856
7, 3909, Pitch_bend_c, 7, 9504
7, 3910, Pitch_bend_c, 7, 9088
7, 3911, Pitch_bend_c, 7, 8800
7, 3913, Pitch_bend_c, 7, 8672
7, 3914, Pitch_bend_c, 7, 8640
7, 3915, Pitch_bend_c, 7, 8672
7, 3917, Pitch_bend_c, 7, 8896
7, 3918, Pitch_bend_c, 7, 9280
7, 3919, Pitch_bend_c, 7, 9696
7, 3921, Pitch_bend_c, 7, 10048
7, 3922, Pitch_bend_c, 7, 10272
7, 3923, Pitch_bend_c, 7, 10304
7, 3924, Pitch_bend_c, 7, 10272
7, 3926, Pitch_bend_c, 7, 10016
7, 3927, Pitch_bend_c, 7, 9600
7, 3928, Pitch_bend_c, 7, 9184
7, 3930, Pitch_bend_c, 7, 8800
7, 3931, Pitch_bend_c, 7, 8576
7, 3932, Pitch_bend_c, 7, 8544
7, 3933, Note_on_c, 7, 77, 0
7, 3973, Note_on_c, 7, 75, 89
7, 3973, Pitch_bend_c, 7, 8192
7, 3974, Pitch_bend_c, 7, 8544
7, 3977, Pitch_bend_c, 7, 8448
7, 3979, Pitch_bend_c, 7, 8256
7, 3980, Pitch_bend_c, 7, 8128
7, 3982, Pitch_bend_c, 7, 8064
7, 3984, Pitch_bend_c, 7, 8032
7, 3985, Pitch_bend_c, 7, 7904
7, 3986, Pitch_bend_c, 7, 7872
7, 3988, Pitch_bend_c, 7, 7808
7, 3989, Note_on_c, 7, 75, 0
7, 3989, Pitch_bend_c, 7, 8064
7, 3997, Pitch_bend_c, 7, 8192
7, 3998, Note_on_c, 7, 73, 88
7, 3998, Pitch_bend_c, 7, 8672
7, 3999, Pitch_bend_c, 7, 8448
7, 4000, Pitch_bend_c, 7, 8416
7, 4002, Pitch_bend_c, 7, 8384
7, 4003, Pitch_bend_c, 7, 8352
7, 4004, Pitch_bend_c, 7, 8288
7, 4007, Pitch_bend_c, 7, 8256
7, 4009, Pitch_bend_c, 7, 8288
7, 4010, Note_on_c, 7, 73, 0
7, 4010, Pitch_bend_c, 7, 8384
7, 4019, Pitch_bend_c, 7, 8192
7, 4020, Note_on_c, 7, 75, 87
7, 4021, Pitch_bend_c, 7, 8672
7, 4022, Pitch_bend_c, 7, 8640
7, 4029, Pitch_bend_c, 7, 8576
7, 4031, Note_on_c, 7, 75, 0
7, 4031, Pitch_bend_c, 7, 8800
7, 4045, Pitch_bend_c, 7, 8192
7, 4046, Note_on_c, 7, 76, 87
7, 4047, Pitch_bend_c, 7, 8608
7, 4049, Pitch_bend_c, 7, 8672
7, 4050, Pitch_bend_c, 7, 8768
7, 4053, Pitch_bend_c, 7, 8800
7, 4054, Pitch_bend_c, 7, 8768
7, 4055, Pitch_bend_c, 7, 8512
7, 4057, Pitch_bend_c, 7, 8224
7, 4058, Pitch_bend_c, 7, 7840
7, 4059, Pitch_bend_c, 7, 7328
7, 4060, Pitch_bend_c, 7, 6752
7, 4062, Pitch_bend_c, 7, 6176
7, 4063, Pitch_bend_c, 7, 5600
7, 4064, Pitch_bend_c, 7, 5248
7, 4066, Pitch_bend_c, 7, 5056
7, 4067, Pitch_bend_c, 7, 5024
7, 4068, Pitch_bend_c, 7, 4896
7, 4069, Pitch_bend_c, 7, 4704
7, 4071, Pitch_bend_c, 7, 4384
7, 4072, Pitch_bend_c, 7, 4064
7, 4074, Pitch_bend_c, 7, 3840
7, 4075, Pitch_bend_c, 7, 3712
7, 4076, Pitch_bend_c, 7, 3680
7, 4079, Pitch_bend_c, 7, 3648
7, 4080, Pitch_bend_c, 7, 3680
7, 4081, Pitch_bend_c, 7, 3552
7, 4082, Note_on_c, 7, 76, 0
7, 4082, Pitch_bend_c, 7, 3712
7, 4084, Note_on_c, 7, 73, 84
7, 4084, Pitch_bend_c, 7, 8192
7, 4085, Pitch_bend_c, 7, 8128
7, 4086, Pitch_bend_c, 7, 8160
7, 4087, Pitch_bend_c, 7, 8128
7, 4089, Pitch_bend_c, 7, 8064
7, 4093, Pitch_bend_c, 7, 8128
7, 4094, Pitch_bend_c, 7, 8032
7, 4096, Pitch_bend_c, 7, 8064
7, 4097, Pitch_bend_c, 7, 8192
7, 4099, Pitch_bend_c, 7, 8416
7, 4100, Pitch_bend_c, 7, 8864
7, 4101, Pitch_bend_c, 7, 9344
7, 4102, Pitch_bend_c, 7, 9856
7, 4103, Pitch_bend_c, 7, 10432
7, 4105, Pitch_bend_c, 7, 10976
7, 4106, Pitch_bend_c, 7, 11328
7, 4107, Pitch_bend_c, 7, 11552
7, 4109, Pitch_bend_c, 7, 11648
7, 4110, Pitch_bend_c, 7, 11616
7, 4111, Pitch_bend_c, 7, 11360
7, 4112, Note_on_c, 7, 73, 0
7, 4124, Pitch_bend_c, 7, 8192
7, 4125, Note_on_c, 7, 70, 70
7, 4125, Pitch_bend_c, 7, 8384
7, 4126, Pitch_bend_c, 7, 8480
7, 4129, Pitch_bend_c, 7, 8448
7, 4130, Pitch_bend_c, 7, 8416
7, 4131, Pitch_bend_c, 7, 8384
7, 4132, Pitch_bend_c, 7, 8288
7, 4134, Pitch_bend_c, 7, 8224
7, 4135, Pitch_bend_c, 7, 8160
7, 4136, Pitch_bend_c, 7, 8064
7, 4138, Pitch_bend_c, 7, 8032
7, 4141, Pitch_bend_c, 7, 8064
7, 4143, Pitch_bend_c, 7, 8192
7, 4144, Pitch_bend_c, 7, 8512
7, 4145, Pitch_bend_c, 7, 8928
7, 4147, Pitch_bend_c, 7, 9248
7, 4148, Pitch_bend_c, 7, 9440
7, 4149, Pitch_bend_c, 7, 9184
7, 4151, Pitch_bend_c, 7, 8832
7, 4152, Pitch_bend_c, 7, 8416
7, 4153, Pitch_bend_c, 7, 8160
7, 4155, Pitch_bend_c, 7, 8032
7, 4156, Pitch_bend_c, 7, 8064
7, 4158, Pitch_bend_c, 7, 8224
7, 4159, Pitch_bend_c, 7, 8544
7, 4160, Pitch_bend_c, 7, 8928
7, 4161, Pitch_bend_c, 7, 9248
7, 4163, Pitch_bend_c, 7, 9376
7, 4164, Pitch_bend_c, 7, 9088
7, 4165, Pitch_bend_c, 7, 8672
7, 4167, Pitch_bend_c, 7, 8288
7, 4168, Pitch_bend_c, 7, 8032
7, 4169, Pitch_bend_c, 7, 7936
7, 4172, Pitch_bend_c, 7, 7968
7, 4173, Pitch_bend_c, 7, 8032
7, 4174, Pitch_bend_c, 7, 8096
7, 4176, Pitch_bend_c, 7, 8192
7, 4177, Pitch_bend_c, 7, 8224
7, 4178, Note_on_c, 7, 70, 0
7, 4178, Pitch_bend_c, 7, 8192
7, 4191, Note_on_c, 7, 65, 69
7, 4191, Pitch_bend_c, 7, 8384
7, 4194, Pitch_bend_c, 7, 8416
7, 4197, Pitch_bend_c, 7, 8448
7, 4198, Pitch_bend_c, 7, 8480
7, 4199, Pitch_bend_c, 7, 8512
7, 4201, Note_on_c, 7, 65, 0
7, 4203, Note_on_c, 7, 67, 54
7, 4203, Pitch_bend_c, 7, 8448
7, 4209, Pitch_bend_c, 7, 8416
7, 4212, Pitch_bend_c, 7, 8384
7, 4215, Pitch_bend_c, 7, 8352
7, 4216, Pitch_bend_c, 7, 8320
7, 4219, Pitch_bend_c, 7, 8288
7, 4222, Pitch_bend_c, 7, 8256
7, 4224, Pitch_bend_c, 7, 8224
7, 4225, Pitch_bend_c, 7, 8192
7, 4236, Pitch_bend_c, 7, 7872
7, 4238, Pitch_bend_c, 7, 8192
7, 4239, Note_on_c, 7, 67, 0
7, 4239, Note_on_c, 7, 70, 77
7, 4263, Pitch_bend_c, 7, 8160
7, 4265, Pitch_bend_c, 7, 8128
7, 4266, Pitch_bend_c, 7, 8096
7, 4270, Pitch_bend_c, 7, 8064
7, 4274, Pitch_bend_c, 7, 8032
7, 4276, Pitch_bend_c, 7, 8000
7, 4278, Pitch_bend_c, 7, 7968
7, 4282, Pitch_bend_c, 7, 7936
7, 4284, Pitch_bend_c, 7, 7904
7, 4288, Pitch_bend_c, 7, 7936
7, 4289, Pitch_bend_c, 7, 8000
7, 4291, Note_on_c, 7, 70, 0
7, 4291, Pitch_bend_c, 7, 8032
7, 4292, Note_on_c, 7, 73, 69
7, 4293, Pitch_bend_c, 7, 8128
7, 4296, Pitch_bend_c, 7, 8064
7, 4299, Pitch_bend_c, 7, 8032
7, 4300, Pitch_bend_c, 7, 8000
7, 4305, Pitch_bend_c, 7, 8032
7, 4307, Pitch_bend_c, 7, 8064
7, 4312, Pitch_bend_c, 7, 8032
7, 4313, Pitch_bend_c, 7, 8000
7, 4315, Pitch_bend_c, 7, 7968
7, 4316, Pitch_bend_c, 7, 7936
7, 4319, Pitch_bend_c, 7, 7872
7, 4321, Pitch_bend_c, 7, 7840
7, 4323, Pitch_bend_c, 7, 7808
7, 4326, Pitch_bend_c, 7, 7840
7, 4329, Pitch_bend_c, 7, 7872
7, 4330, Pitch_bend_c, 7, 7936
7, 4331, Pitch_bend_c, 7, 8000
7, 4333, Pitch_bend_c, 7, 8128
7, 4334, Pitch_bend_c, 7, 8416
7, 4335, Pitch_bend_c, 7, 8928
7, 4337, Pitch_bend_c, 7, 11168
7, 4338, Pitch_bend_c, 7, 11328
7, 4339, Pitch_bend_c, 7, 11552
7, 4340, Pitch_bend_c, 7, 11904
7, 4342, Pitch_bend_c, 7, 12160
7, 4343, Pitch_bend_c, 7, 12384
7, 4344, Pitch_bend_c, 7, 12480
7, 4345, Note_on_c, 7, 73, 0
7, 4461, Pitch_bend_c, 7, 8192
7, 4464, Note_on_c, 7, 78, 89
7, 4464, Pitch_bend_c, 7, 9216
7, 4465, Pitch_bend_c, 7, 9504
7, 4466, Pitch_bend_c, 7, 9440
7, 4468, Pitch_bend_c, 7, 9504
7, 4469, Pitch_bend_c, 7, 9760
7, 4470, Pitch_bend_c, 7, 10080
7, 4471, Pitch_bend_c, 7, 10560
7, 4473, Pitch_bend_c, 7, 11072
7, 4474, Pitch_bend_c, 7, 11328
7, 4475, Pitch_bend_c, 7, 11584
7, 4477, Pitch_bend_c, 7, 11776
7, 4478, Pitch_bend_c, 7, 11808
7, 4479, Pitch_bend_c, 7, 11872
7, 4480, Pitch_bend_c, 7, 11968
7, 4482, Pitch_bend_c, 7, 12032
7, 4483, Pitch_bend_c, 7, 12128
7, 4488, Pitch_bend_c, 7, 12096
7, 4491, Pitch_bend_c, 7, 12032
7, 4492, Pitch_bend_c, 7, 11968
7, 4494, Pitch_bend_c, 7, 11936
7, 4495, Pitch_bend_c, 7, 11808
7, 4496, Pitch_bend_c, 7, 11648
7, 4497, Pitch_bend_c, 7, 11552
7, 4499, Pitch_bend_c, 7, 11424
7, 4500, Pitch_bend_c, 7, 11264
7, 4502, Pitch_bend_c, 7, 11168
7, 4503, Pitch_bend_c, 7, 11008
7, 4504, Pitch_bend_c, 7, 10784
7, 4505, Pitch_bend_c, 7, 10528
7, 4507, Pitch_bend_c, 7, 10240
7, 4508, Pitch_bend_c, 7, 10048
7, 4509, Pitch_bend_c, 7, 9888
7, 4510, Pitch_bend_c, 7, 9664
7, 4512, Pitch_bend_c, 7, 9504
7, 4513, Pitch_bend_c, 7, 9280
7, 4514, Pitch_bend_c, 7, 9120
7, 4516, Pitch_bend_c, 7, 8896
7, 4517, Pitch_bend_c, 7, 8640
7, 4518, Pitch_bend_c, 7, 8352
7, 4519, Pitch_bend_c, 7, 8192
7, 4521, Pitch_bend_c, 7, 7968
7, 4522, Pitch_bend_c, 7, 7936
7, 4523, Pitch_bend_c, 7, 8640
7, 4524, Note_on_c, 7, 78, 0
7, 4527, Pitch_bend_c, 7, 8192
7, 4528, Note_on_c, 7, 77, 88
7, 4528, Pitch_bend_c, 7, 7904
7, 4529, Pitch_bend_c, 7, 8064
7, 4532, Pitch_bend_c, 7, 8000
7, 4533, Pitch_bend_c, 7, 7968
7, 4534, Pitch_bend_c, 7, 7904
7, 4538, Pitch_bend_c, 7, 7872
7, 4540, Pitch_bend_c, 7, 7904
7, 4541, Note_on_c, 7, 77, 0
7, 4541, Pitch_bend_c, 7, 8000
7, 4544, Pitch_bend_c, 7, 8192
7, 4556, Note_on_c, 7, 80, 97
7, 4556, Pitch_bend_c, 7, 5120
7, 4557, Pitch_bend_c, 7, 4992
7, 4560, Pitch_bend_c, 7, 5056
7, 4561, Pitch_bend_c, 7, 5184
7, 4562, Pitch_bend_c, 7, 5408
7, 4564, Pitch_bend_c, 7, 5632
7, 4565, Pitch_bend_c, 7, 5856
7, 4566, Pitch_bend_c, 7, 6144
7, 4567, Pitch_bend_c, 7, 6432
7, 4569, Pitch_bend_c, 7, 6784
7, 4570, Pitch_bend_c, 7, 7168
7, 4571, Pitch_bend_c, 7, 7520
7, 4573, Pitch_bend_c, 7, 7808
7, 4574, Pitch_bend_c, 7, 8032
7, 4575, Pitch_bend_c, 7, 8096
7, 4576, Pitch_bend_c, 7, 8160
7, 4578, Pitch_bend_c, 7, 8096
7, 4579, Pitch_bend_c, 7, 7968
7, 4580, Pitch_bend_c, 7, 7872
7, 4582, Pitch_bend_c, 7, 7744
7, 4583, Pitch_bend_c, 7, 7648
7, 4584, Note_on_c, 7, 80, 0
7, 4584, Pitch_bend_c, 7, 8096
7, 4633, Pitch_bend_c, 7, 8192
7, 4634, Note_on_c, 7, 79, 89
7, 4634, Pitch_bend_c, 7, 8960
7, 4642, Pitch_bend_c, 7, 8896
7, 4647, Note_on_c, 7, 79, 0
7, 4647, Pitch_bend_c, 7, 8992
7, 4651, Pitch_bend_c, 7, 8192
7, 4652, Note_on_c, 7, 77, 75
7, 4652, Pitch_bend_c, 7, 8800
7, 4662, Pitch_bend_c, 7, 8736
7, 4664, Note_on_c, 7, 77, 0
7, 4664, Pitch_bend_c, 7, 8800
7, 4665, Pitch_bend_c, 7, 8192
7, 4666, Note_on_c, 7, 72, 82
7, 4666, Pitch_bend_c, 7, 9152
7, 4668, Pitch_bend_c, 7, 9408
7, 4669, Pitch_bend_c, 7, 9856
7, 4671, Pitch_bend_c, 7, 10432
7, 4672, Pitch_bend_c, 7, 11232
7, 4673, Pitch_bend_c, 7, 11840
7, 4674, Pitch_bend_c, 7, 12288
7, 4676, Pitch_bend_c, 7, 12512
7, 4677, Pitch_bend_c, 7, 12288
7, 4679, Pitch_bend_c, 7, 8864
7, 4680, Pitch_bend_c, 7, 8672
7, 4681, Pitch_bend_c, 7, 8448
7, 4682, Pitch_bend_c, 7, 8288
7, 4684, Pitch_bend_c, 7, 8192
7, 4688, Note_on_c, 7, 72, 0
7, 4688, Pitch_bend_c, 7, 8448
7, 4691, Pitch_bend_c, 7, 8192
7, 4692, Note_on_c, 7, 70, 43
7, 4693, Pitch_bend_c, 7, 8224
7, 4696, Pitch_bend_c, 7, 8256
7, 4699, Pitch_bend_c, 7, 8288
7, 4701, Note_on_c, 7, 70, 0
7, 4701, Pitch_bend_c, 7, 8320
7, 4703, Pitch_bend_c, 7, 8192
7, 4704, Note_on_c, 7, 67, 14
7, 4707, Pitch_bend_c, 7, 8224
7, 4709, Pitch_bend_c, 7, 8256
7, 4710, Pitch_bend_c, 7, 8288
7, 4715, Pitch_bend_c, 7, 8256
7, 4717, Pitch_bend_c, 7, 8032
7, 4718, Note_on_c, 7, 67, 0
7, 4718, Pitch_bend_c, 7, 8192
7, 4719, Note_on_c, 7, 70, 60
7, 4719, Pitch_bend_c, 7, 8288
7, 4720, Pitch_bend_c, 7, 8192
7, 4722, Pitch_bend_c, 7, 8224
7, 4727, Pitch_bend_c, 7, 8256
7, 4728, Pitch_bend_c, 7, 8192
7, 4732, Pitch_bend_c, 7, 8288
7, 4733, Pitch_bend_c, 7, 8448
7, 4734, Pitch_bend_c, 7, 8576
7, 4736, Pitch_bend_c, 7, 8608
7, 4737, Pitch_bend_c, 7, 8448
7, 4738, Pitch_bend_c, 7, 8224
7, 4740, Pitch_bend_c, 7, 8096
7, 4741, Pitch_bend_c, 7, 7936
7, 4742, Pitch_bend_c, 7, 7904
7, 4743, Pitch_bend_c, 7, 7936
7, 4745, Pitch_bend_c, 7, 8064
7, 4746, Pitch_bend_c, 7, 8448
7, 4747, Pitch_bend_c, 7, 8928
7, 4749, Pitch_bend_c, 7, 9408
7, 4750, Pitch_bend_c, 7, 9664
7, 4751, Pitch_bend_c, 7, 9472
7, 4752, Pitch_bend_c, 7, 9024
7, 4754, Pitch_bend_c, 7, 8512
7, 4755, Pitch_bend_c, 7, 8128
7, 4756, Pitch_bend_c, 7, 7904
7, 4758, Pitch_bend_c, 7, 7840
7, 4759, Pitch_bend_c, 7, 7872
7, 4760, Pitch_bend_c, 7, 8096
7, 4762, Pitch_bend_c, 7, 8544
7, 4763, Pitch_bend_c, 7, 9152
7, 4764, Pitch_bend_c, 7, 9792
7, 4766, Pitch_bend_c, 7, 10208
7, 4767, Pitch_bend_c, 7, 10272
7, 4768, Pitch_bend_c, 7, 10176
7, 4770, Note_on_c, 7, 70, 0
7, 4770, Pitch_bend_c, 7, 9824
7, 4772, Pitch_bend_c, 7, 8192
7, 4773, Note_on_c, 7, 72, 56
7, 4773, Pitch_bend_c, 7, 8992
7, 4776, Pitch_bend_c, 7, 8896
7, 4778, Pitch_bend_c, 7, 8736
7, 4779, Pitch_bend_c, 7, 8512
7, 4781, Pitch_bend_c, 7, 8320
7, 4782, Pitch_bend_c, 7, 8256
7, 4783, Pitch_bend_c, 7, 8448
7, 4784, Pitch_bend_c, 7, 8896
7, 4786, Pitch_bend_c, 7, 11136
7, 4787, Pitch_bend_c, 7, 11424
7, 4788, Pitch_bend_c, 7, 11808
7, 4790, Pitch_bend_c, 7, 12320
7, 4791, Pitch_bend_c, 7, 12800
7, 4792, Pitch_bend_c, 7, 13024
7, 4794, Note_on_c, 7, 72, 0
7, 4794, Pitch_bend_c, 7, 13120
7, 4816, Note_on_c, 7, 70, 85
7, 4816, Pitch_bend_c, 7, 8192
7, 4817, Pitch_bend_c, 7, 8800
7, 4819, Pitch_bend_c, 7, 8672
7, 4820, Pitch_bend_c, 7, 8576
7, 4821, Pitch_bend_c, 7, 8544
7, 4823, Pitch_bend_c, 7, 8512
7, 4824, Pitch_bend_c, 7, 8544
7, 4825, Pitch_bend_c, 7, 8576
7, 4829, Pitch_bend_c, 7, 8544
7, 4832, Pitch_bend_c, 7, 8512
7, 4836, Pitch_bend_c, 7, 8480
7, 4837, Note_on_c, 7, 70, 0
7, 4837, Pitch_bend_c, 7, 8544
7, 4840, Note_on_c, 7, 68, 56
7, 4840, Pitch_bend_c, 7, 8224
7, 4844, Pitch_bend_c, 7, 8192
7, 4847, Note_on_c, 7, 68, 0
7, 4847, Pitch_bend_c, 7, 8160
7, 4852, Pitch_bend_c, 7, 8192
7, 4855, Note_on_c, 7, 63, 75
7, 4856, Pitch_bend_c, 7, 8224
7, 4859, Pitch_bend_c, 7, 8256
7, 4862, Pitch_bend_c, 7, 8288
7, 4863, Pitch_bend_c, 7, 8448
7, 4864, Pitch_bend_c, 7, 11008
7, 4866, Pitch_bend_c, 7, 11488
7, 4867, Pitch_bend_c, 7, 11968
7, 4868, Pitch_bend_c, 7, 12384
7, 4870, Pitch_bend_c, 7, 12640
7, 4871, Pitch_bend_c, 7, 12128
7, 4872, Pitch_bend_c, 7, 9696
7, 4873, Pitch_bend_c, 7, 9504
7, 4875, Pitch_bend_c, 7, 9280
7, 4876, Pitch_bend_c, 7, 8960
7, 4877, Pitch_bend_c, 7, 8672
7, 4879, Pitch_bend_c, 7, 8576
7, 4880, Pitch_bend_c, 7, 8544
7, 4881, Pitch_bend_c, 7, 8480
7, 4882, Pitch_bend_c, 7, 8416
7, 4884, Pitch_bend_c, 7, 0
7, 4885, Pitch_bend_c, 7, 128
7, 4886, Pitch_bend_c, 7, 192
7, 4888, Pitch_bend_c, 7, 224
7, 4889, Pitch_bend_c, 7, 288
7, 4891, Pitch_bend_c, 7, 224
7, 4892, Pitch_bend_c, 7, 128
7, 4893, Note_on_c, 7, 63, 0
7, 4893, Pitch_bend_c, 7, 8192
7, 4897, Note_on_c, 7, 58, 65
7, 4897, Pitch_bend_c, 7, 8320
7, 4898, Pitch_bend_c, 7, 8160
7, 4900, Pitch_bend_c, 7, 8032
7, 4901, Pitch_bend_c, 7, 7904
7, 4902, Pitch_bend_c, 7, 8288
7, 4903, Note_on_c, 7, 58, 0
7, 4910, Note_on_c, 7, 63, 50
7, 4910, Pitch_bend_c, 7, 8064
7, 4911, Pitch_bend_c, 7, 8032
7, 4914, Pitch_bend_c, 7, 8064
7, 4922, Pitch_bend_c, 7, 8032
7, 4923, Pitch_bend_c, 7, 8000
7, 4929, Pitch_bend_c, 7, 7968
7, 4931, Pitch_bend_c, 7, 8000
7, 4932, Note_on_c, 7, 65, 91
7, 4932, Pitch_bend_c, 7, 8288
7, 4933, Pitch_bend_c, 7, 8064
7, 4934, Pitch_bend_c, 7, 8192
7, 4935, Pitch_bend_c, 7, 8256
7, 4936, Note_on_c, 7, 63, 0
7, 4936, Pitch_bend_c, 7, 8320
7, 4938, Pitch_bend_c, 7, 8384
7, 4939, Pitch_bend_c, 7, 8448
7, 4940, Pitch_bend_c, 7, 8608
7, 4941, Note_on_c, 7, 65, 0
7, 4941, Pitch_bend_c, 7, 8064
7, 4943, Pitch_bend_c, 7, 8000
7, 4944, Pitch_bend_c, 7, 8192
7, 4945, Note_on_c, 7, 61, 65
7, 4945, Pitch_bend_c, 7, 8448
7, 4946, Pitch_bend_c, 7, 8384
7, 4947, Pitch_bend_c, 7, 8192
7, 4948, Pitch_bend_c, 7, 8448
7, 4949, Pitch_bend_c, 7, 8256
7, 4951, Pitch_bend_c, 7, 8288
7, 4952, Pitch_bend_c, 7, 8352
7, 4953, Pitch_bend_c, 7, 8448
7, 4955, Pitch_bend_c, 7, 8544
7, 4956, Pitch_bend_c, 7, 8768
7, 4957, Pitch_bend_c, 7, 9120
7, 4958, Pitch_bend_c, 7, 9408
7, 4960, Pitch_bend_c, 7, 9664
7, 4961, Pitch_bend_c, 7, 9952
7, 4963, Pitch_bend_c, 7, 10304
7, 4964, Pitch_bend_c, 7, 10848
7, 4965, Pitch_bend_c, 7, 11520
7, 4966, Pitch_bend_c, 7, 12064
7, 4968, Pitch_bend_c, 7, 12416
7, 4969, Pitch_bend_c, 7, 12256
7, 4970, Pitch_bend_c, 7, 11744
7, 4971, Note_on_c, 7, 61, 0
7, 4972, Pitch_bend_c, 7, 8192
7, 4974, Note_on_c, 7, 58, 64
7, 4977, Pitch_bend_c, 7, 8224
7, 4979, Pitch_bend_c, 7, 8256
7, 4981, Pitch_bend_c, 7, 8160
7, 4983, Note_on_c, 7, 58, 0
7, 4983, Pitch_bend_c, 7, 8192
7, 4984, Note_on_c, 7, 56, 41
7, 4984, Pitch_bend_c, 7, 8032
7, 4985, Pitch_bend_c, 7, 8096
7, 4990, Pitch_bend_c, 7, 8064
7, 4991, Note_on_c, 7, 56, 0
7, 4991, Pitch_bend_c, 7, 8192
7, 4994, Note_on_c, 7, 53, 37
7, 4994, Pitch_bend_c, 7, 8064
7, 4995, Pitch_bend_c, 7, 8032
7, 4998, Pitch_bend_c, 7, 8000
7, 5000, Pitch_bend_c, 7, 7936
7, 5001, Pitch_bend_c, 7, 7904
7, 5003, Pitch_bend_c, 7, 7872
7, 5004, Pitch_bend_c, 7, 7840
7, 5005, Pitch_bend_c, 7, 7808
7, 5010, Pitch_bend_c, 7, 7904
7, 5012, Pitch_bend_c, 7, 8288
7, 5013, Pitch_bend_c, 7, 8800
7, 5014, Pitch_bend_c, 7, 9216
7, 5015, Pitch_bend_c, 7, 9504
7, 5017, Pitch_bend_c, 7, 9280
7, 5018, Pitch_bend_c, 7, 8768
7, 5019, Pitch_bend_c, 7, 8320
7, 5020, Pitch_bend_c, 7, 7904
7, 5022, Pitch_bend_c, 7, 5728
7, 5023, Pitch_bend_c, 7, 5856
7, 5024, Pitch_bend_c, 7, 5952
7, 5025, Note_on_c, 7, 53, 0
7, 5025, Pitch_bend_c, 7, 8320
7, 5109, Note_on_c, 7, 68, 89
7, 5109, Pitch_bend_c, 7, 8192
7, 5110, Pitch_bend_c, 7, 8448
7, 5111, Pitch_bend_c, 7, 8576
7, 5112, Pitch_bend_c, 7, 8608
7, 5116, Pitch_bend_c, 7, 8640
7, 5117, Pitch_bend_c, 7, 8608
7, 5119, Pitch_bend_c, 7, 8480
7, 5120, Note_on_c, 7, 68, 0
7, 5120, Note_on_c, 7, 64, 69
7, 5120, Pitch_bend_c, 7, 12160
7, 5127, Note_on_c, 7, 64, 0
7, 5129, Pitch_bend_c, 7, 8192
7, 5131, Note_on_c, 7, 63, 76
7, 5131, Pitch_bend_c, 7, 8256
7, 5136, Pitch_bend_c, 7, 8192
7, 5137, Note_on_c, 7, 63, 0
7, 5139, Note_on_c, 7, 61, 69
7, 5139, Pitch_bend_c, 7, 8128
7, 5140, Pitch_bend_c, 7, 8160
7, 5146, Note_on_c, 7, 61, 0
7, 5146, Pitch_bend_c, 7, 8224
7, 5148, Note_on_c, 7, 58, 61
7, 5148, Pitch_bend_c, 7, 8064
7, 5151, Pitch_bend_c, 7, 8096
7, 5164, Pitch_bend_c, 7, 8128
7, 5172, Pitch_bend_c, 7, 8096
7, 5184, Note_on_c, 7, 58, 0
7, 5185, Pitch_bend_c, 7, 8192
7, 5186, Note_on_c, 7, 61, 85
7, 5186, Pitch_bend_c, 7, 8160
7, 5187, Pitch_bend_c, 7, 8192
7, 5192, Pitch_bend_c, 7, 8288
7, 5194, Pitch_bend_c, 7, 8352
7, 5195, Note_on_c, 7, 61, 0
7, 5197, Pitch_bend_c, 7, 8192
7, 5198, Note_on_c, 7, 58, 74
7, 5198, Pitch_bend_c, 7, 8096
7, 5199, Pitch_bend_c, 7, 8128
7, 5200, Pitch_bend_c, 7, 8160
7, 5201, Pitch_bend_c, 7, 8192
7, 5203, Pitch_bend_c, 7, 8128
7, 5205, Note_on_c, 7, 58, 0
7, 5205, Note_on_c, 7, 56, 62
7, 5205, Pitch_bend_c, 7, 8192
7, 5206, Pitch_bend_c, 7, 7712
7, 5208, Pitch_bend_c, 7, 7872
7, 5209, Pitch_bend_c, 7, 7968
7, 5211, Pitch_bend_c, 7, 8096
7, 5212, Pitch_bend_c, 7, 8192
7, 5216, Note_on_c, 7, 56, 0
7, 5218, Note_on_c, 7, 53, 72
7, 5218, Pitch_bend_c, 7, 7872
7, 5219, Pitch_bend_c, 7, 7840
7, 5220, Pitch_bend_c, 7, 7872
7, 5222, Pitch_bend_c, 7, 7904
7, 5227, Pitch_bend_c, 7, 7872
7, 5229, Pitch_bend_c, 7, 7840
7, 5250, Pitch_bend_c, 7, 7808
7, 5259, Pitch_bend_c, 7, 7840
7, 5266, Pitch_bend_c, 7, 7808
7, 5267, Pitch_bend_c, 7, 7776
7, 5268, Pitch_bend_c, 7, 7744
7, 5270, Pitch_bend_c, 7, 7712
7, 5271, Pitch_bend_c, 7, 7680
7, 5275, Pitch_bend_c, 7, 7712
7, 5276, Pitch_bend_c, 7, 7776
7, 5277, Pitch_bend_c, 7, 7808
7, 5280, Pitch_bend_c, 7, 7840
7, 5293, Pitch_bend_c, 7, 7872
7, 5296, Note_on_c, 7, 53, 0
7, 5296, Pitch_bend_c, 7, 7840
7, 5302, Pitch_bend_c, 7, 8192
7, 5303, Note_on_c, 7, 56, 91
7, 5303, Pitch_bend_c, 7, 8032
7, 5304, Pitch_bend_c, 7, 8064
7, 5307, Pitch_bend_c, 7, 8032
7, 5308, Pitch_bend_c, 7, 16256
7, 5309, Pitch_bend_c, 7, 16224
7, 5310, Pitch_bend_c, 7, 16032
7, 5312, Pitch_bend_c, 7, 8000
7, 5314, Pitch_bend_c, 7, 8032
7, 5317, Pitch_bend_c, 7, 8064
7, 5321, Pitch_bend_c, 7, 8096
7, 5322, Pitch_bend_c, 7, 8064
7, 5324, Note_on_c, 7, 56, 0
7, 5324, Note_on_c, 7, 53, 64
7, 5324, Pitch_bend_c, 7, 7808
7, 5331, Pitch_bend_c, 7, 7840
7, 5332, Pitch_bend_c, 7, 7872
7, 5335, Pitch_bend_c, 7, 7616
7, 5336, Note_on_c, 7, 53, 0
7, 5336, Pitch_bend_c, 7, 8192
7, 5337, Note_on_c, 7, 56, 68
7, 5337, Pitch_bend_c, 7, 8032
7, 5343, Pitch_bend_c, 7, 8064
7, 5348, Pitch_bend_c, 7, 8032
7, 5350, Pitch_bend_c, 7, 8000
7, 5352, Pitch_bend_c, 7, 7968
7, 5354, Pitch_bend_c, 7, 7936
7, 5356, Pitch_bend_c, 7, 8064
7, 5357, Pitch_bend_c, 7, 16160
7, 5358, Pitch_bend_c, 7, 16128
7, 5367, Pitch_bend_c, 7, 16096
7, 5370, Pitch_bend_c, 7, 16128
7, 5372, Pitch_bend_c, 7, 16160
7, 5380, Pitch_bend_c, 7, 16128
7, 5381, Pitch_bend_c, 7, 16160
7, 5386, Pitch_bend_c, 7, 16192
7, 5392, Pitch_bend_c, 7, 16160
7, 5394, Pitch_bend_c, 7, 16128
7, 5396, Pitch_bend_c, 7, 16096
7, 5401, Pitch_bend_c, 7, 16128
7, 5402, Pitch_bend_c, 7, 16000
7, 5403, Pitch_bend_c, 7, 15680
7, 5404, Note_on_c, 7, 56, 0
7, 5404, Pitch_bend_c, 7, 16128
7, 5718, Pitch_bend_c, 7, 8192
7, 5719, Note_on_c, 7, 63, 93
7, 5719, Pitch_bend_c, 7, 8320
7, 5723, Pitch_bend_c, 7, 8576
7, 5724, Pitch_bend_c, 7, 9024
7, 5726, Pitch_bend_c, 7, 9696
7, 5727, Pitch_bend_c, 7, 10496
7, 5728, Pitch_bend_c, 7, 11168
7, 5729, Pitch_bend_c, 7, 11744
7, 5731, Pitch_bend_c, 7, 12128
7, 5732, Pitch_bend_c, 7, 12384
7, 5733, Pitch_bend_c, 7, 12640
7, 5735, Pitch_bend_c, 7, 12832
7, 5736, Pitch_bend_c, 7, 12960
7, 5737, Pitch_bend_c, 7, 13024
7, 5739, Pitch_bend_c, 7, 13152
7, 5740, Pitch_bend_c, 7, 13376
7, 5742, Pitch_bend_c, 7, 13632
7, 5743, Pitch_bend_c, 7, 13824
7, 5744, Pitch_bend_c, 7, 13920
7, 5747, Pitch_bend_c, 7, 13888
7, 5748, Pitch_bend_c, 7, 13856
7, 5749, Pitch_bend_c, 7, 13920
7, 5751, Pitch_bend_c, 7, 13888
7, 5753, Pitch_bend_c, 7, 13856
7, 5755, Note_on_c, 7, 63, 0
7, 5755, Pitch_bend_c, 7, 13888
7, 5773, Pitch_bend_c, 7, 8192
7, 5773, Note_on_c, 7, 63, 91
7, 5774, Pitch_bend_c, 7, 8480
7, 5775, Pitch_bend_c, 7, 8384
7, 5776, Pitch_bend_c, 7, 8416
7, 5777, Pitch_bend_c, 7, 8448
7, 5778, Pitch_bend_c, 7, 8544
7, 5780, Pitch_bend_c, 7, 8672
7, 5781, Pitch_bend_c, 7, 8608
7, 5783, Pitch_bend_c, 7, 8480
7, 5784, Pitch_bend_c, 7, 8576
7, 5785, Pitch_bend_c, 7, 8672
7, 5786, Pitch_bend_c, 7, 8736
7, 5788, Note_on_c, 7, 63, 0
7, 5788, Note_on_c, 7, 60, 76
7, 5788, Pitch_bend_c, 7, 12000
7, 5789, Pitch_bend_c, 7, 12032
7, 5791, Pitch_bend_c, 7, 11936
7, 5792, Pitch_bend_c, 7, 11968
7, 5793, Pitch_bend_c, 7, 12128
7, 5795, Pitch_bend_c, 7, 12224
7, 5796, Pitch_bend_c, 7, 12384
7, 5797, Pitch_bend_c, 7, 12416
7, 5799, Note_on_c, 7, 60, 0
7, 5800, Pitch_bend_c, 7, 8192
7, 5801, Note_on_c, 7, 58, 50
7, 5801, Pitch_bend_c, 7, 8128
7, 5802, Pitch_bend_c, 7, 8192
7, 5809, Pitch_bend_c, 7, 8160
7, 5811, Pitch_bend_c, 7, 8128
7, 5812, Pitch_bend_c, 7, 8096
7, 5819, Pitch_bend_c, 7, 8064
7, 5820, Pitch_bend_c, 7, 8032
7, 5821, Pitch_bend_c, 7, 8000
7, 5823, Pitch_bend_c, 7, 7968
7, 5824, Pitch_bend_c, 7, 8096
7, 5826, Pitch_bend_c, 7, 8352
7, 5827, Pitch_bend_c, 7, 8864
7, 5828, Pitch_bend_c, 7, 9408
7, 5829, Pitch_bend_c, 7, 9792
7, 5831, Pitch_bend_c, 7, 9952
7, 5832, Pitch_bend_c, 7, 9632
7, 5833, Pitch_bend_c, 7, 9056
7, 5835, Pitch_bend_c, 7, 8480
7, 5836, Pitch_bend_c, 7, 8096
7, 5837, Pitch_bend_c, 7, 7904
7, 5840, Pitch_bend_c, 7, 8032
7, 5841, Pitch_bend_c, 7, 8192
7, 5843, Pitch_bend_c, 7, 8320
7, 5844, Pitch_bend_c, 7, 8480
7, 5845, Pitch_bend_c, 7, 8448
7, 5846, Pitch_bend_c, 7, 8320
7, 5848, Pitch_bend_c, 7, 8224
7, 5849, Pitch_bend_c, 7, 8192
7, 5850, Pitch_bend_c, 7, 8128
7, 5857, Pitch_bend_c, 7, 8096
7, 5858, Pitch_bend_c, 7, 8064
7, 5859, Pitch_bend_c, 7, 8032
7, 5861, Pitch_bend_c, 7, 7968
7, 5862, Pitch_bend_c, 7, 7936
7, 5864, Pitch_bend_c, 7, 7904
7, 5865, Pitch_bend_c, 7, 7872
7, 5866, Pitch_bend_c, 7, 7840
7, 5867, Pitch_bend_c, 7, 7808
7, 5869, Pitch_bend_c, 7, 7936
7, 5870, Note_on_c, 7, 58, 0
7, 5873, Pitch_bend_c, 7, 8192
7, 5874, Note_on_c, 7, 61, 93
7, 5874, Pitch_bend_c, 7, 8576
7, 5875, Pitch_bend_c, 7, 8352
7, 5877, Pitch_bend_c, 7, 8288
7, 5878, Pitch_bend_c, 7, 8256
7, 5879, Pitch_bend_c, 7, 8224
7, 5881, Pitch_bend_c, 7, 8192
7, 5882, Pitch_bend_c, 7, 8224
7, 5884, Pitch_bend_c, 7, 8192
7, 5889, Pitch_bend_c, 7, 8160
7, 5890, Pitch_bend_c, 7, 16352
7, 5891, Pitch_bend_c, 7, 16288
7, 5892, Pitch_bend_c, 7, 16256
7, 5894, Pitch_bend_c, 7, 16224
7, 5895, Pitch_bend_c, 7, 16160
7, 5898, Pitch_bend_c, 7, 16096
7, 5900, Pitch_bend_c, 7, 16320
7, 5901, Note_on_c, 7, 61, 0
7, 5905, Note_on_c, 7, 65, 92
7, 5905, Pitch_bend_c, 7, 8384
7, 5906, Pitch_bend_c, 7, 8352
7, 5908, Pitch_bend_c, 7, 8320
7, 5910, Pitch_bend_c, 7, 8352
7, 5911, Pitch_bend_c, 7, 8320
7, 5913, Pitch_bend_c, 7, 8288
7, 5919, Pitch_bend_c, 7, 8416
7, 5921, Pitch_bend_c, 7, 8192
7, 5921, Note_on_c, 7, 70, 94
7, 5929, Note_on_c, 7, 65, 0
7, 5930, Note_on_c, 7, 70, 0
7, 5940, Note_on_c, 7, 69, 87
7, 5940, Pitch_bend_c, 7, 8416
7, 5942, Pitch_bend_c, 7, 8448
7, 5945, Pitch_bend_c, 7, 8416
7, 5946, Pitch_bend_c, 7, 8352
7, 5948, Pitch_bend_c, 7, 8256
7, 5949, Pitch_bend_c, 7, 8160
7, 5950, Pitch_bend_c, 7, 8096
7, 5952, Pitch_bend_c, 7, 11904
7, 5953, Pitch_bend_c, 7, 11936
7, 5954, Pitch_bend_c, 7, 11968
7, 5957, Pitch_bend_c, 7, 12000
7, 5958, Pitch_bend_c, 7, 12032
7, 5959, Pitch_bend_c, 7, 12064
7, 5961, Pitch_bend_c, 7, 12128
7, 5962, Pitch_bend_c, 7, 12192
7, 5967, Pitch_bend_c, 7, 12128
7, 5968, Pitch_bend_c, 7, 12096
7, 5970, Pitch_bend_c, 7, 12064
7, 5972, Pitch_bend_c, 7, 12096
7, 5976, Pitch_bend_c, 7, 12160
7, 5977, Pitch_bend_c, 7, 12448
7, 5979, Pitch_bend_c, 7, 12960
7, 5980, Pitch_bend_c, 7, 13600
7, 5981, Pitch_bend_c, 7, 14208
7, 5983, Pitch_bend_c, 7, 14496
7, 5985, Pitch_bend_c, 7, 14176
7, 5987, Pitch_bend_c, 7, 11936
7, 5988, Pitch_bend_c, 7, 12000
7, 5989, Pitch_bend_c, 7, 12032
7, 5991, Pitch_bend_c, 7, 12064
7, 5992, Pitch_bend_c, 7, 12128
7, 5993, Pitch_bend_c, 7, 12096
7, 5994, Pitch_bend_c, 7, 12320
7, 5996, Pitch_bend_c, 7, 12928
7, 5997, Pitch_bend_c, 7, 15200
7, 6000, Pitch_bend_c, 7, 15104
7, 6001, Pitch_bend_c, 7, 14880
7, 6002, Pitch_bend_c, 7, 14304
7, 6003, Pitch_bend_c, 7, 11872
7, 6005, Pitch_bend_c, 7, 11936
7, 6006, Pitch_bend_c, 7, 11968
7, 6007, Pitch_bend_c, 7, 12000
7, 6008, Pitch_bend_c, 7, 12064
7, 6010, Pitch_bend_c, 7, 12128
7, 6011, Pitch_bend_c, 7, 12576
7, 6012, Pitch_bend_c, 7, 13216
7, 6014, Pitch_bend_c, 7, 13824
7, 6015, Pitch_bend_c, 7, 14240
7, 6016, Pitch_bend_c, 7, 14016
7, 6017, Pitch_bend_c, 7, 13344
7, 6019, Pitch_bend_c, 7, 12768
7, 6020, Pitch_bend_c, 7, 12352
7, 6021, Note_on_c, 7, 69, 0
7, 6021, Pitch_bend_c, 7, 14240
7, 6389, Note_on_c, 7, 70, 57
7, 6389, Pitch_bend_c, 7, 8192
7, 6398, Pitch_bend_c, 7, 8128
7, 6399, Pitch_bend_c, 7, 8064
7, 6401, Pitch_bend_c, 7, 8000
7, 6402, Pitch_bend_c, 7, 7936
7, 6405, Note_on_c, 7, 70, 0
7, 6405, Pitch_bend_c, 7, 8192
7, 6407, Note_on_c, 7, 73, 80
7, 6407, Pitch_bend_c, 7, 8160
7, 6408, Pitch_bend_c, 7, 8192
7, 6414, Pitch_bend_c, 7, 8224
7, 6415, Pitch_bend_c, 7, 8192
7, 6416, Note_on_c, 7, 73, 0
7, 6419, Note_on_c, 7, 75, 85
7, 6419, Pitch_bend_c, 7, 8896
7, 6420, Pitch_bend_c, 7, 8800
7, 6423, Pitch_bend_c, 7, 8768
7, 6424, Pitch_bend_c, 7, 8736
7, 6426, Pitch_bend_c, 7, 8864
7, 6427, Pitch_bend_c, 7, 9280
7, 6428, Pitch_bend_c, 7, 11584
7, 6429, Pitch_bend_c, 7, 11968
7, 6431, Pitch_bend_c, 7, 12576
7, 6432, Pitch_bend_c, 7, 14880
7, 6433, Pitch_bend_c, 7, 14976
7, 6435, Pitch_bend_c, 7, 15104
7, 6436, Pitch_bend_c, 7, 15264
7, 6437, Pitch_bend_c, 7, 15360
7, 6438, Note_on_c, 7, 75, 0
7, 6438, Pitch_bend_c, 7, 15392
7, 6451, Pitch_bend_c, 7, 8192
7, 6452, Note_on_c, 7, 75, 82
7, 6452, Pitch_bend_c, 7, 8224
7, 6456, Pitch_bend_c, 7, 8352
7, 6457, Pitch_bend_c, 7, 8864
7, 6458, Pitch_bend_c, 7, 11808
7, 6460, Pitch_bend_c, 7, 12224
7, 6461, Pitch_bend_c, 7, 12896
7, 6462, Pitch_bend_c, 7, 13632
7, 6463, Pitch_bend_c, 7, 14400
7, 6465, Pitch_bend_c, 7, 14720
7, 6466, Pitch_bend_c, 7, 14784
7, 6467, Pitch_bend_c, 7, 14592
7, 6469, Pitch_bend_c, 7, 14016
7, 6470, Note_on_c, 7, 75, 0
7, 6470, Pitch_bend_c, 7, 14720
7, 6483, Pitch_bend_c, 7, 8192
7, 6484, Note_on_c, 7, 75, 82
7, 6484, Pitch_bend_c, 7, 8256
7, 6486, Pitch_bend_c, 7, 8224
7, 6488, Pitch_bend_c, 7, 8064
7, 6489, Pitch_bend_c, 7, 7904
7, 6490, Pitch_bend_c, 7, 7776
7, 6492, Pitch_bend_c, 7, 7808
7, 6493, Note_on_c, 7, 75, 0
7, 6493, Note_on_c, 7, 72, 65
7, 6493, Pitch_bend_c, 7, 11616
7, 6494, Pitch_bend_c, 7, 11648
7, 6496, Pitch_bend_c, 7, 11680
7, 6497, Pitch_bend_c, 7, 11744
7, 6499, Pitch_bend_c, 7, 11872
7, 6500, Pitch_bend_c, 7, 12032
7, 6501, Note_on_c, 7, 72, 0
7, 6503, Note_on_c, 7, 70, 62
7, 6503, Pitch_bend_c, 7, 8384
7, 6509, Pitch_bend_c, 7, 8352
7, 6510, Pitch_bend_c, 7, 8288
7, 6511, Pitch_bend_c, 7, 8224
7, 6513, Pitch_bend_c, 7, 8192
7, 6514, Pitch_bend_c, 7, 8128
7, 6515, Pitch_bend_c, 7, 8096
7, 6517, Pitch_bend_c, 7, 8192
7, 6518, Pitch_bend_c, 7, 8576
7, 6519, Pitch_bend_c, 7, 11008
7, 6521, Pitch_bend_c, 7, 11072
7, 6523, Pitch_bend_c, 7, 10720
7, 6525, Pitch_bend_c, 7, 8192
7, 6527, Pitch_bend_c, 7, 8128
7, 6528, Pitch_bend_c, 7, 11072
7, 6529, Note_on_c, 7, 70, 0
7, 6530, Pitch_bend_c, 7, 8192
7, 6531, Note_on_c, 7, 73, 89
7, 6531, Pitch_bend_c, 7, 8704
7, 6536, Pitch_bend_c, 7, 8736
7, 6538, Pitch_bend_c, 7, 8832
7, 6540, Note_on_c, 7, 73, 0
7, 6540, Pitch_bend_c, 7, 9024
7, 6542, Note_on_c, 7, 70, 86
7, 6542, Pitch_bend_c, 7, 8192
7, 6543, Pitch_bend_c, 7, 8384
7, 6544, Pitch_bend_c, 7, 8320
7, 6547, Pitch_bend_c, 7, 8416
7, 6548, Pitch_bend_c, 7, 8672
7, 6549, Pitch_bend_c, 7, 8992
7, 6550, Pitch_bend_c, 7, 9120
7, 6552, Pitch_bend_c, 7, 64
7, 6553, Pitch_bend_c, 7, 96
7, 6556, Pitch_bend_c, 7, 128
7, 6557, Pitch_bend_c, 7, 160
7, 6559, Note_on_c, 7, 70, 0
7, 6559, Pitch_bend_c, 7, 8192
7, 6559, Note_on_c, 7, 65, 75
7, 6561, Pitch_bend_c, 7, 8256
7, 6563, Pitch_bend_c, 7, 8288
7, 6566, Pitch_bend_c, 7, 8256
7, 6568, Pitch_bend_c, 7, 8192
7, 6570, Pitch_bend_c, 7, 8160
7, 6572, Pitch_bend_c, 7, 8128
7, 6573, Pitch_bend_c, 7, 8096
7, 6577, Pitch_bend_c, 7, 8064
7, 6579, Pitch_bend_c, 7, 8032
7, 6580, Note_on_c, 7, 65, 0
7, 6608, Pitch_bend_c, 7, 8192
7, 6609, Note_on_c, 7, 75, 86
7, 6609, Pitch_bend_c, 7, 8896
7, 6611, Pitch_bend_c, 7, 9056
7, 6613, Pitch_bend_c, 7, 9504
7, 6614, Pitch_bend_c, 7, 10144
7, 6615, Pitch_bend_c, 7, 12576
7, 6617, Pitch_bend_c, 7, 12864
7, 6618, Pitch_bend_c, 7, 13344
7, 6619, Pitch_bend_c, 7, 13920
7, 6621, Pitch_bend_c, 7, 14592
7, 6622, Pitch_bend_c, 7, 15008
7, 6623, Pitch_bend_c, 7, 15296
7, 6624, Pitch_bend_c, 7, 15392
7, 6626, Pitch_bend_c, 7, 15488
7, 6627, Pitch_bend_c, 7, 15552
7, 6631, Pitch_bend_c, 7, 15488
7, 6632, Pitch_bend_c, 7, 15392
7, 6633, Pitch_bend_c, 7, 15360
7, 6635, Pitch_bend_c, 7, 15264
7, 6636, Pitch_bend_c, 7, 15168
7, 6637, Pitch_bend_c, 7, 15072
7, 6639, Pitch_bend_c, 7, 14912
7, 6640, Pitch_bend_c, 7, 14784
7, 6641, Pitch_bend_c, 7, 14592
7, 6643, Pitch_bend_c, 7, 14336
7, 6644, Pitch_bend_c, 7, 14016
7, 6645, Pitch_bend_c, 7, 13472
7, 6646, Pitch_bend_c, 7, 12768
7, 6648, Pitch_bend_c, 7, 10496
7, 6649, Pitch_bend_c, 7, 10272
7, 6650, Pitch_bend_c, 7, 9760
7, 6652, Pitch_bend_c, 7, 9088
7, 6653, Pitch_bend_c, 7, 8320
7, 6654, Pitch_bend_c, 7, 7904
7, 6655, Pitch_bend_c, 7, 7776
7, 6657, Pitch_bend_c, 7, 7872
7, 6658, Pitch_bend_c, 7, 8064
7, 6659, Note_on_c, 7, 75, 0
7, 6659, Pitch_bend_c, 7, 8320
7, 6661, Note_on_c, 7, 73, 81
7, 6661, Pitch_bend_c, 7, 8128
7, 6665, Pitch_bend_c, 7, 8160
7, 6666, Pitch_bend_c, 7, 8192
7, 6668, Pitch_bend_c, 7, 8224
7, 6669, Note_on_c, 7, 73, 0
7, 6671, Pitch_bend_c, 7, 8192
7, 6672, Note_on_c, 7, 70, 54
7, 6672, Pitch_bend_c, 7, 8352
7, 6677, Pitch_bend_c, 7, 8320
7, 6679, Pitch_bend_c, 7, 8288
7, 6681, Pitch_bend_c, 7, 8256
7, 6689, Pitch_bend_c, 7, 8224
7, 6693, Pitch_bend_c, 7, 8192
7, 6696, Pitch_bend_c, 7, 8160
7, 6698, Pitch_bend_c, 7, 8128
7, 6702, Note_on_c, 7, 70, 0
7, 6702, Pitch_bend_c, 7, 8224
7, 6703, Note_on_c, 7, 73, 82
7, 6703, Pitch_bend_c, 7, 8000
7, 6716, Pitch_bend_c, 7, 8032
7, 6718, Pitch_bend_c, 7, 8064
7, 6719, Pitch_bend_c, 7, 8128
7, 6720, Pitch_bend_c, 7, 8192
7, 6722, Pitch_bend_c, 7, 8256
7, 6723, Pitch_bend_c, 7, 8352
7, 6725, Pitch_bend_c, 7, 8384
7, 6726, Pitch_bend_c, 7, 8448
7, 6727, Pitch_bend_c, 7, 8544
7, 6728, Pitch_bend_c, 7, 8672
7, 6730, Pitch_bend_c, 7, 8864
7, 6731, Pitch_bend_c, 7, 9056
7, 6732, Pitch_bend_c, 7, 9312
7, 6734, Pitch_bend_c, 7, 9664
7, 6735, Pitch_bend_c, 7, 10080
7, 6736, Pitch_bend_c, 7, 10528
7, 6738, Pitch_bend_c, 7, 11008
7, 6739, Pitch_bend_c, 7, 11328
7, 6740, Pitch_bend_c, 7, 11552
7, 6741, Pitch_bend_c, 7, 11680
7, 6744, Note_on_c, 7, 73, 0
7, 6744, Pitch_bend_c, 7, 11648
7, 7183, Pitch_bend_c, 7, 8192
7, 7184, Note_on_c, 7, 65, 54
7, 7184, Pitch_bend_c, 7, 7968
7, 7187, Pitch_bend_c, 7, 8000
7, 7188, Pitch_bend_c, 7, 11904
7, 7190, Pitch_bend_c, 7, 11936
7, 7191, Pitch_bend_c, 7, 12032
7, 7192, Pitch_bend_c, 7, 16000
7, 7193, Pitch_bend_c, 7, 16032
7, 7196, Pitch_bend_c, 7, 16064
7, 7198, Pitch_bend_c, 7, 16096
7, 7200, Note_on_c, 7, 65, 0
7, 7200, Pitch_bend_c, 7, 16128
7, 7205, Pitch_bend_c, 7, 8192
7, 7206, Note_on_c, 7, 70, 73
7, 7206, Pitch_bend_c, 7, 8064
7, 7209, Pitch_bend_c, 7, 8096
7, 7211, Pitch_bend_c, 7, 8128
7, 7212, Pitch_bend_c, 7, 8160
7, 7213, Pitch_bend_c, 7, 8192
7, 7216, Note_on_c, 7, 70, 0
7, 7219, Note_on_c, 7, 75, 89
7, 7219, Pitch_bend_c, 7, 8448
7, 7226, Pitch_bend_c, 7, 8480
7, 7229, Pitch_bend_c, 7, 8256
7, 7230, Note_on_c, 7, 75, 0
7, 7237, Pitch_bend_c, 7, 8192
7, 7238, Note_on_c, 7, 75, 86
7, 7238, Pitch_bend_c, 7, 8544
7, 7239, Pitch_bend_c, 7, 8480
7, 7242, Pitch_bend_c, 7, 8448
7, 7243, Pitch_bend_c, 7, 8480
7, 7253, Pitch_bend_c, 7, 8448
7, 7256, Pitch_bend_c, 7, 8352
7, 7257, Pitch_bend_c, 7, 12480
7, 7259, Pitch_bend_c, 7, 12512
7, 7260, Pitch_bend_c, 7, 12608
7, 7261, Pitch_bend_c, 7, 12672
7, 7262, Pitch_bend_c, 7, 8448
7, 7265, Pitch_bend_c, 7, 8416
7, 7270, Note_on_c, 7, 75, 0
7, 7272, Pitch_bend_c, 7, 8192
7, 7273, Note_on_c, 7, 73, 79
7, 7273, Pitch_bend_c, 7, 8000
7, 7275, Pitch_bend_c, 7, 8032
7, 7278, Pitch_bend_c, 7, 8064
7, 7280, Pitch_bend_c, 7, 8128
7, 7283, Pitch_bend_c, 7, 8064
7, 7291, Pitch_bend_c, 7, 8032
7, 7307, Pitch_bend_c, 7, 8128
7, 7308, Pitch_bend_c, 7, 8288
7, 7310, Pitch_bend_c, 7, 8768
7, 7311, Pitch_bend_c, 7, 11008
7, 7313, Pitch_bend_c, 7, 11232
7, 7314, Pitch_bend_c, 7, 11520
7, 7315, Pitch_bend_c, 7, 11776
7, 7316, Pitch_bend_c, 7, 11936
7, 7318, Note_on_c, 7, 73, 0
7, 7318, Pitch_bend_c, 7, 11232
7, 7321, Pitch_bend_c, 7, 8192
7, 7322, Pitch_bend_c, 7, 7712
7, 7325, Pitch_bend_c, 7, 7808
7, 7327, Pitch_bend_c, 7, 7872
7, 7330, Pitch_bend_c, 7, 8192
7, 7331, Note_on_c, 7, 70, 64
7, 7331, Pitch_bend_c, 7, 8256
7, 7334, Pitch_bend_c, 7, 8224
7, 7336, Pitch_bend_c, 7, 8192
7, 7337, Pitch_bend_c, 7, 8160
7, 7338, Pitch_bend_c, 7, 8128
7, 7339, Pitch_bend_c, 7, 8096
7, 7341, Pitch_bend_c, 7, 8064
7, 7342, Note_on_c, 7, 70, 0
7, 7342, Pitch_bend_c, 7, 8160
7, 7344, Pitch_bend_c, 7, 8192
7, 7345, Note_on_c, 7, 70, 60
7, 7345, Pitch_bend_c, 7, 7936
7, 7346, Pitch_bend_c, 7, 7968
7, 7353, Pitch_bend_c, 7, 8000
7, 7354, Pitch_bend_c, 7, 7968
7, 7357, Pitch_bend_c, 7, 8096
7, 7358, Pitch_bend_c, 7, 8288
7, 7359, Pitch_bend_c, 7, 8576
7, 7361, Pitch_bend_c, 7, 8832
7, 7362, Pitch_bend_c, 7, 8864
7, 7363, Pitch_bend_c, 7, 8640
7, 7364, Pitch_bend_c, 7, 8320
7, 7366, Pitch_bend_c, 7, 8096
7, 7367, Pitch_bend_c, 7, 7904
7, 7368, Pitch_bend_c, 7, 7840
7, 7370, Pitch_bend_c, 7, 7904
7, 7371, Pitch_bend_c, 7, 8160
7, 7372, Pitch_bend_c, 7, 8608
7, 7373, Pitch_bend_c, 7, 9216
7, 7375, Pitch_bend_c, 7, 9792
7, 7376, Pitch_bend_c, 7, 9984
7, 7377, Pitch_bend_c, 7, 9568
7, 7379, Pitch_bend_c, 7, 8960
7, 7380, Pitch_bend_c, 7, 8384
7, 7381, Pitch_bend_c, 7, 8064
7, 7382, Pitch_bend_c, 7, 8000
7, 7384, Pitch_bend_c, 7, 8032
7, 7385, Note_on_c, 7, 70, 0
7, 7385, Pitch_bend_c, 7, 8960
7, 7797, Pitch_bend_c, 7, 8192
7, 7798, Note_on_c, 7, 64, 70
7, 7798, Pitch_bend_c, 7, 8096
7, 7799, Pitch_bend_c, 7, 8064
7, 7803, Pitch_bend_c, 7, 8192
7, 7817, Pitch_bend_c, 7, 12224
7, 7819, Pitch_bend_c, 7, 12256
7, 7820, Pitch_bend_c, 7, 12288
7, 7824, Pitch_bend_c, 7, 12256
7, 7825, Pitch_bend_c, 7, 12224
7, 7827, Note_on_c, 7, 73, 90
7, 7869, Note_on_c, 7, 64, 0
7, 7876, Note_on_c, 7, 73, 0
7, 7877, Pitch_bend_c, 7, 8192
7, 7878, Pitch_bend_c, 7, 8128
7, 7889, Pitch_bend_c, 7, 8192
7, 7890, Note_on_c, 7, 61, 54
7, 7891, Pitch_bend_c, 7, 11456
7, 7892, Pitch_bend_c, 7, 12160
7, 7894, Pitch_bend_c, 7, 12096
7, 7895, Pitch_bend_c, 7, 12032
7, 7898, Pitch_bend_c, 7, 16096
7, 7903, Pitch_bend_c, 7, 16160
7, 7904, Pitch_bend_c, 7, 16192
7, 7905, Pitch_bend_c, 7, 16224
7, 7913, Pitch_bend_c, 7, 16192
7, 7915, Pitch_bend_c, 7, 16128
7, 7918, Pitch_bend_c, 7, 16096
7, 7920, Pitch_bend_c, 7, 16224
7, 7921, Note_on_c, 7, 70, 89
7, 7968, Note_on_c, 7, 70, 0
7, 7970, Note_on_c, 7, 61, 0
7, 7983, Pitch_bend_c, 7, 8192
7, 7984, Note_on_c, 7, 61, 56
7, 7984, Pitch_bend_c, 7, 7808
7, 7985, Pitch_bend_c, 7, 7744
7, 7987, Pitch_bend_c, 7, 7808
7, 7988, Pitch_bend_c, 7, 11680
7, 7990, Pitch_bend_c, 7, 11776
7, 7991, Pitch_bend_c, 7, 11872
7, 7992, Pitch_bend_c, 7, 11936
7, 7994, Pitch_bend_c, 7, 12064
7, 7996, Pitch_bend_c, 7, 12096
7, 7999, Pitch_bend_c, 7, 12160
7, 8002, Pitch_bend_c, 7, 12128
7, 8004, Pitch_bend_c, 7, 12096
7, 8005, Pitch_bend_c, 7, 12064
7, 8006, Note_on_c, 7, 61, 0
7, 8006, Pitch_bend_c, 7, 8192
7, 8007, Note_on_c, 7, 65, 50
7, 8007, Pitch_bend_c, 7, 8000
7, 8011, Pitch_bend_c, 7, 8032
7, 8012, Pitch_bend_c, 7, 8064
7, 8013, Pitch_bend_c, 7, 8096
7, 8016, Pitch_bend_c, 7, 8192
7, 8016, Note_on_c, 7, 70, 95
7, 8031, Note_on_c, 7, 65, 0
7, 8032, Pitch_bend_c, 7, 8448
7, 8033, Pitch_bend_c, 7, 8416
7, 8034, Pitch_bend_c, 7, 8192
7, 8034, Note_on_c, 7, 65, 85
7, 8046, Note_on_c, 7, 70, 0
7, 8047, Note_on_c, 7, 70, 72
7, 8057, Note_on_c, 7, 65, 0
7, 8058, Pitch_bend_c, 7, 8352
7, 8059, Pitch_bend_c, 7, 8384
7, 8060, Pitch_bend_c, 7, 8416
7, 8061, Note_on_c, 7, 70, 0
7, 8066, Note_on_c, 7, 69, 82
7, 8066, Pitch_bend_c, 7, 7808
7, 8070, Pitch_bend_c, 7, 7840
7, 8072, Pitch_bend_c, 7, 7872
7, 8076, Pitch_bend_c, 7, 7904
7, 8077, Pitch_bend_c, 7, 11776
7, 8081, Pitch_bend_c, 7, 11808
7, 8084, Pitch_bend_c, 7, 11840
7, 8085, Pitch_bend_c, 7, 11872
7, 8089, Pitch_bend_c, 7, 11840
7, 8093, Pitch_bend_c, 7, 11872
7, 8101, Note_on_c, 7, 73, 79
7, 8101, Pitch_bend_c, 7, 8512
7, 8103, Note_on_c, 7, 69, 0
7, 8104, Pitch_bend_c, 7, 8544
7, 8105, Pitch_bend_c, 7, 8576
7, 8106, Pitch_bend_c, 7, 8608
7, 8108, Pitch_bend_c, 7, 8672
7, 8109, Note_on_c, 7, 73, 0
7, 8111, Note_on_c, 7, 70, 86
7, 8111, Pitch_bend_c, 7, 8096
7, 8112, Pitch_bend_c, 7, 8128
7, 8114, Pitch_bend_c, 7, 8160
7, 8117, Pitch_bend_c, 7, 8192
7, 8118, Pitch_bend_c, 7, 8352
7, 8119, Pitch_bend_c, 7, 8640
7, 8120, Pitch_bend_c, 7, 8864
7, 8122, Pitch_bend_c, 7, 128
7, 8123, Pitch_bend_c, 7, 160
7, 8124, Pitch_bend_c, 7, 128
7, 8128, Pitch_bend_c, 7, 96
7, 8130, Note_on_c, 7, 70, 0
7, 8130, Pitch_bend_c, 7, 8192
7, 8130, Note_on_c, 7, 65, 54
7, 8140, Pitch_bend_c, 7, 8160
7, 8141, Pitch_bend_c, 7, 8096
7, 8144, Pitch_bend_c, 7, 8064
7, 8145, Pitch_bend_c, 7, 8032
7, 8146, Pitch_bend_c, 7, 8000
7, 8149, Pitch_bend_c, 7, 7936
7, 8151, Pitch_bend_c, 7, 7968
7, 8152, Note_on_c, 7, 65, 0
7, 8177, Pitch_bend_c, 7, 8192
7, 8178, Note_on_c, 7, 76, 88
7, 8178, Pitch_bend_c, 7, 9248
7, 8179, Pitch_bend_c, 7, 9088
7, 8180, Pitch_bend_c, 7, 9056
7, 8182, Pitch_bend_c, 7, 8864
7, 8184, Pitch_bend_c, 7, 8512
7, 8185, Pitch_bend_c, 7, 7968
7, 8186, Pitch_bend_c, 7, 5440
7, 8187, Pitch_bend_c, 7, 5216
7, 8189, Pitch_bend_c, 7, 4736
7, 8190, Pitch_bend_c, 7, 4352
7, 8191, Pitch_bend_c, 7, 3936
7, 8193, Pitch_bend_c, 7, 3776
7, 8194, Pitch_bend_c, 7, 3808
7, 8195, Pitch_bend_c, 7, 3840
7, 8196, Note_on_c, 7, 76, 0
7, 8196, Pitch_bend_c, 7, 4352
7, 8198, Note_on_c, 7, 73, 57
7, 8198, Pitch_bend_c, 7, 8032
7, 8201, Pitch_bend_c, 7, 8000
7, 8203, Pitch_bend_c, 7, 8032
7, 8205, Pitch_bend_c, 7, 8064
7, 8206, Pitch_bend_c, 7, 8192
7, 8207, Note_on_c, 7, 73, 0
7, 8207, Pitch_bend_c, 7, 8256
7, 8210, Note_on_c, 7, 70, 68
7, 8210, Pitch_bend_c, 7, 8384
7, 8213, Pitch_bend_c, 7, 8416
7, 8214, Pitch_bend_c, 7, 8448
7, 8217, Pitch_bend_c, 7, 8480
7, 8219, Pitch_bend_c, 7, 8416
7, 8220, Pitch_bend_c, 7, 8384
7, 8222, Pitch_bend_c, 7, 8320
7, 8223, Pitch_bend_c, 7, 8256
7, 8225, Pitch_bend_c, 7, 8224
7, 8228, Pitch_bend_c, 7, 8256
7, 8241, Pitch_bend_c, 7, 8224
7, 8242, Pitch_bend_c, 7, 8320
7, 8243, Note_on_c, 7, 70, 0
7, 8243, Note_on_c, 7, 73, 82
7, 8243, Pitch_bend_c, 7, 8192
7, 8248, Pitch_bend_c, 7, 8224
7, 8249, Pitch_bend_c, 7, 8192
7, 8252, Pitch_bend_c, 7, 8160
7, 8254, Pitch_bend_c, 7, 8128
7, 8255, Pitch_bend_c, 7, 8064
7, 8257, Pitch_bend_c, 7, 8128
7, 8258, Pitch_bend_c, 7, 8416
7, 8259, Pitch_bend_c, 7, 8864
7, 8261, Pitch_bend_c, 7, 9440
7, 8262, Pitch_bend_c, 7, 9984
7, 8263, Pitch_bend_c, 7, 10432
7, 8265, Pitch_bend_c, 7, 10848
7, 8266, Pitch_bend_c, 7, 11168
7, 8267, Pitch_bend_c, 7, 11392
7, 8269, Pitch_bend_c, 7, 11552
7, 8270, Pitch_bend_c, 7, 11776
7, 8271, Note_on_c, 7, 73, 0
7, 8753, Note_on_c, 7, 67, 83
7, 8753, Pitch_bend_c, 7, 8416
7, 8756, Pitch_bend_c, 7, 8192
7, 8756, Note_on_c, 7, 70, 84
7, 8771, Note_on_c, 7, 70, 0
7, 8772, Note_on_c, 7, 70, 84
7, 8779, Note_on_c, 7, 67, 0
7, 8780, Pitch_bend_c, 7, 7872
7, 8781, Pitch_bend_c, 7, 15712
7, 8783, Note_on_c, 7, 70, 0
7, 8786, Note_on_c, 7, 73, 79
7, 8786, Pitch_bend_c, 7, 7872
7, 8789, Pitch_bend_c, 7, 7840
7, 8791, Pitch_bend_c, 7, 7808
7, 8795, Pitch_bend_c, 7, 7776
7, 8797, Pitch_bend_c, 7, 7552
7, 8798, Note_on_c, 7, 73, 0
7, 8798, Pitch_bend_c, 7, 7840
7, 8809, Pitch_bend_c, 7, 8192
7, 8810, Note_on_c, 7, 75, 87
7, 8810, Pitch_bend_c, 7, 8160
7, 8813, Pitch_bend_c, 7, 8064
7, 8815, Pitch_bend_c, 7, 8032
7, 8818, Pitch_bend_c, 7, 8000
7, 8819, Pitch_bend_c, 7, 7936
7, 8822, Pitch_bend_c, 7, 8064
7, 8823, Pitch_bend_c, 7, 10464
7, 8825, Pitch_bend_c, 7, 11008
7, 8826, Pitch_bend_c, 7, 13664
7, 8827, Pitch_bend_c, 7, 13728
7, 8828, Pitch_bend_c, 7, 13824
7, 8830, Pitch_bend_c, 7, 13920
7, 8832, Pitch_bend_c, 7, 13536
7, 8834, Pitch_bend_c, 7, 9408
7, 8835, Pitch_bend_c, 7, 8992
7, 8836, Pitch_bend_c, 7, 8192
7, 8838, Note_on_c, 7, 75, 0
7, 8841, Note_on_c, 7, 73, 80
7, 8845, Pitch_bend_c, 7, 8288
7, 8849, Note_on_c, 7, 73, 0
7, 8849, Pitch_bend_c, 7, 8192
7, 8850, Pitch_bend_c, 7, 8288
7, 8852, Note_on_c, 7, 70, 69
7, 8853, Pitch_bend_c, 7, 8256
7, 8856, Pitch_bend_c, 7, 8224
7, 8857, Pitch_bend_c, 7, 8192
7, 8864, Pitch_bend_c, 7, 8160
7, 8865, Pitch_bend_c, 7, 8128
7, 8868, Pitch_bend_c, 7, 8096
7, 8870, Pitch_bend_c, 7, 8128
7, 8873, Pitch_bend_c, 7, 8160
7, 8880, Pitch_bend_c, 7, 8192
7, 8891, Pitch_bend_c, 7, 8160
7, 8893, Pitch_bend_c, 7, 8128
7, 8895, Pitch_bend_c, 7, 8096
7, 8897, Pitch_bend_c, 7, 8064
7, 8899, Pitch_bend_c, 7, 8192
7, 8901, Note_on_c, 7, 73, 78
7, 8901, Pitch_bend_c, 7, 7552
7, 8902, Note_on_c, 7, 70, 0
7, 8902, Pitch_bend_c, 7, 7872
7, 8905, Pitch_bend_c, 7, 7840
7, 8906, Pitch_bend_c, 7, 7776
7, 8907, Pitch_bend_c, 7, 7680
7, 8910, Pitch_bend_c, 7, 7648
7, 8912, Pitch_bend_c, 7, 7680
7, 8913, Pitch_bend_c, 7, 7744
7, 8914, Pitch_bend_c, 7, 7776
7, 8915, Pitch_bend_c, 7, 7840
7, 8917, Pitch_bend_c, 7, 7872
7, 8918, Pitch_bend_c, 7, 7968
7, 8919, Pitch_bend_c, 7, 8064
7, 8921, Pitch_bend_c, 7, 8224
7, 8922, Pitch_bend_c, 7, 8544
7, 8923, Pitch_bend_c, 7, 8928
7, 8924, Pitch_bend_c, 7, 9376
7, 8926, Pitch_bend_c, 7, 9920
7, 8927, Pitch_bend_c, 7, 10400
7, 8928, Pitch_bend_c, 7, 10752
7, 8930, Pitch_bend_c, 7, 11040
7, 8931, Pitch_bend_c, 7, 11168
7, 8932, Pitch_bend_c, 7, 11136
7, 8934, Note_on_c, 7, 73, 0
7, 8934, Pitch_bend_c, 7, 11072
7, 9447, Pitch_bend_c, 7, 8192
7, 9447, Note_on_c, 7, 75, 88
7, 9448, Pitch_bend_c, 7, 8672
7, 9451, Pitch_bend_c, 7, 8864
7, 9453, Pitch_bend_c, 7, 9216
7, 9454, Pitch_bend_c, 7, 9824
7, 9455, Pitch_bend_c, 7, 10528
7, 9456, Pitch_bend_c, 7, 11264
7, 9458, Pitch_bend_c, 7, 11872
7, 9459, Pitch_bend_c, 7, 12288
7, 9460, Pitch_bend_c, 7, 12480
7, 9464, Pitch_bend_c, 7, 12416
7, 9466, Pitch_bend_c, 7, 12320
7, 9467, Pitch_bend_c, 7, 12224
7, 9468, Pitch_bend_c, 7, 12096
7, 9470, Pitch_bend_c, 7, 11872
7, 9471, Pitch_bend_c, 7, 11456
7, 9472, Pitch_bend_c, 7, 9280
7, 9473, Pitch_bend_c, 7, 9120
7, 9475, Pitch_bend_c, 7, 8864
7, 9476, Pitch_bend_c, 7, 8576
7, 9477, Pitch_bend_c, 7, 8256
7, 9479, Pitch_bend_c, 7, 8192
7, 9480, Pitch_bend_c, 7, 8160
7, 9481, Pitch_bend_c, 7, 8192
7, 9482, Pitch_bend_c, 7, 8576
7, 9483, Note_on_c, 7, 75, 0
7, 9484, Pitch_bend_c, 7, 8192
7, 9485, Note_on_c, 7, 73, 90
7, 9485, Pitch_bend_c, 7, 8288
7, 9486, Pitch_bend_c, 7, 8256
7, 9487, Pitch_bend_c, 7, 8288
7, 9490, Pitch_bend_c, 7, 8352
7, 9494, Note_on_c, 7, 73, 0
7, 9494, Note_on_c, 7, 70, 84
7, 9494, Pitch_bend_c, 7, 8192
7, 9500, Pitch_bend_c, 7, 8160
7, 9501, Pitch_bend_c, 7, 8128
7, 9504, Pitch_bend_c, 7, 8096
7, 9507, Pitch_bend_c, 7, 8064
7, 9512, Pitch_bend_c, 7, 8032
7, 9513, Pitch_bend_c, 7, 8000
7, 9517, Pitch_bend_c, 7, 8064
7, 9518, Pitch_bend_c, 7, 8096
7, 9520, Note_on_c, 7, 70, 0
7, 9521, Pitch_bend_c, 7, 8192
7, 9522, Note_on_c, 7, 73, 91
7, 9522, Pitch_bend_c, 7, 8288
7, 9523, Pitch_bend_c, 7, 8352
7, 9529, Pitch_bend_c, 7, 7840
7, 9531, Note_on_c, 7, 73, 0
7, 9531, Note_on_c, 7, 70, 87
7, 9531, Pitch_bend_c, 7, 8192
7, 9535, Pitch_bend_c, 7, 8224
7, 9536, Pitch_bend_c, 7, 8192
7, 9537, Pitch_bend_c, 7, 8160
7, 9540, Pitch_bend_c, 7, 8096
7, 9541, Note_on_c, 7, 70, 0
7, 9541, Note_on_c, 7, 67, 70
7, 9541, Pitch_bend_c, 7, 12256
7, 9542, Pitch_bend_c, 7, 12224
7, 9543, Pitch_bend_c, 7, 12256
7, 9544, Pitch_bend_c, 7, 12288
7, 9547, Pitch_bend_c, 7, 12320
7, 9548, Pitch_bend_c, 7, 12384
7, 9549, Pitch_bend_c, 7, 12448
7, 9550, Pitch_bend_c, 7, 12480
7, 9552, Note_on_c, 7, 67, 0
7, 9552, Pitch_bend_c, 7, 8192
7, 9552, Note_on_c, 7, 65, 69
7, 9563, Pitch_bend_c, 7, 8160
7, 9567, Pitch_bend_c, 7, 8192
7, 9574, Pitch_bend_c, 7, 8288
7, 9575, Pitch_bend_c, 7, 8352
7, 9577, Pitch_bend_c, 7, 8416
7, 9578, Pitch_bend_c, 7, 4544
7, 9580, Pitch_bend_c, 7, 4512
7, 9582, Note_on_c, 7, 65, 0
7, 9584, Pitch_bend_c, 7, 8192
7, 9585, Note_on_c, 7, 70, 92
7, 9585, Pitch_bend_c, 7, 8544
7, 9590, Pitch_bend_c, 7, 8512
7, 9591, Pitch_bend_c, 7, 8672
7, 9592, Note_on_c, 7, 70, 0
7, 9594, Note_on_c, 7, 68, 88
7, 9594, Pitch_bend_c, 7, 8160
7, 9595, Pitch_bend_c, 7, 8288
7, 9598, Pitch_bend_c, 7, 8384
7, 9599, Pitch_bend_c, 7, 8544
7, 9601, Pitch_bend_c, 7, 8736
7, 9602, Pitch_bend_c, 7, 8864
7, 9603, Pitch_bend_c, 7, 8992
7, 9605, Pitch_bend_c, 7, 8864
7, 9606, Note_on_c, 7, 68, 0
7, 9606, Note_on_c, 7, 65, 66
7, 9606, Pitch_bend_c, 7, 8320
7, 9607, Pitch_bend_c, 7, 8416
7, 9617, Pitch_bend_c, 7, 8192
7, 9617, Note_on_c, 7, 63, 64
7, 9618, Note_on_c, 7, 65, 0
7, 9625, Pitch_bend_c, 7, 8224
7, 9627, Pitch_bend_c, 7, 8256
7, 9632, Pitch_bend_c, 7, 8320
7, 9633, Pitch_bend_c, 7, 8544
7, 9635, Pitch_bend_c, 7, 9024
7, 9636, Pitch_bend_c, 7, 9728
7, 9637, Pitch_bend_c, 7, 10528
7, 9638, Pitch_bend_c, 7, 11328
7, 9640, Pitch_bend_c, 7, 11968
7, 9641, Pitch_bend_c, 7, 12512
7, 9642, Pitch_bend_c, 7, 12928
7, 9643, Pitch_bend_c, 7, 13216
7, 9645, Pitch_bend_c, 7, 13408
7, 9646, Pitch_bend_c, 7, 13184
7, 9647, Pitch_bend_c, 7, 9760
7, 9648, Pitch_bend_c, 7, 8192
7, 9649, Note_on_c, 7, 65, 87
7, 9650, Note_on_c, 7, 63, 0
7, 9650, Pitch_bend_c, 7, 8448
7, 9653, Pitch_bend_c, 7, 8352
7, 9654, Pitch_bend_c, 7, 8224
7, 9656, Pitch_bend_c, 7, 8192
7, 9660, Pitch_bend_c, 7, 8224
7, 9661, Pitch_bend_c, 7, 8192
7, 9666, Pitch_bend_c, 7, 8160
7, 9667, Pitch_bend_c, 7, 8128
7, 9670, Pitch_bend_c, 7, 8192
7, 9671, Note_on_c, 7, 63, 93
7, 9671, Pitch_bend_c, 7, 8224
7, 9672, Pitch_bend_c, 7, 8480
7, 9674, Note_on_c, 7, 65, 0
7, 9674, Pitch_bend_c, 7, 8416
7, 9676, Pitch_bend_c, 7, 8480
7, 9678, Pitch_bend_c, 7, 8640
7, 9679, Pitch_bend_c, 7, 9184
7, 9680, Pitch_bend_c, 7, 11424
7, 9681, Pitch_bend_c, 7, 8672
7, 9682, Pitch_bend_c, 7, 11552
7, 9683, Pitch_bend_c, 7, 11648
7, 9684, Pitch_bend_c, 7, 11712
7, 9685, Pitch_bend_c, 7, 11744
7, 9687, Pitch_bend_c, 7, 11648
7, 9688, Pitch_bend_c, 7, 11200
7, 9689, Pitch_bend_c, 7, 8320
7, 9690, Pitch_bend_c, 7, 8192
7, 9691, Pitch_bend_c, 7, 8096
7, 9692, Pitch_bend_c, 7, 8256
7, 9693, Pitch_bend_c, 7, 7808
7, 9694, Pitch_bend_c, 7, 8000
7, 9695, Note_on_c, 7, 63, 0
7, 9695, Pitch_bend_c, 7, 8192
7, 9696, Note_on_c, 7, 61, 61
7, 9696, Pitch_bend_c, 7, 8768
7, 9697, Pitch_bend_c, 7, 8288
7, 9699, Pitch_bend_c, 7, 8256
7, 9700, Pitch_bend_c, 7, 8224
7, 9702, Pitch_bend_c, 7, 8384
7, 9703, Pitch_bend_c, 7, 8512
7, 9704, Pitch_bend_c, 7, 8672
7, 9706, Pitch_bend_c, 7, 8192
7, 9706, Note_on_c, 7, 58, 58
7, 9707, Note_on_c, 7, 61, 0
7, 9709, Pitch_bend_c, 7, 8160
7, 9712, Note_on_c, 7, 58, 0
7, 9712, Pitch_bend_c, 7, 8128
7, 9717, Pitch_bend_c, 7, 8192
7, 9717, Note_on_c, 7, 63, 82
7, 9718, Pitch_bend_c, 7, 8224
7, 9721, Pitch_bend_c, 7, 8256
7, 9723, Pitch_bend_c, 7, 8320
7, 9725, Pitch_bend_c, 7, 8352
7, 9726, Pitch_bend_c, 7, 8320
7, 9729, Pitch_bend_c, 7, 8256
7, 9732, Pitch_bend_c, 7, 8224
7, 9733, Pitch_bend_c, 7, 8192
7, 9740, Pitch_bend_c, 7, 8000
7, 9741, Note_on_c, 7, 63, 0
7, 9741, Pitch_bend_c, 7, 8224
7, 9743, Note_on_c, 7, 61, 79
7, 9743, Pitch_bend_c, 7, 8288
7, 9744, Pitch_bend_c, 7, 8192
7, 9746, Pitch_bend_c, 7, 8128
7, 9748, Pitch_bend_c, 7, 8096
7, 9749, Pitch_bend_c, 7, 8064
7, 9750, Pitch_bend_c, 7, 8032
7, 9751, Pitch_bend_c, 7, 8064
7, 9753, Pitch_bend_c, 7, 8128
7, 9754, Pitch_bend_c, 7, 8160
7, 9755, Pitch_bend_c, 7, 8192
7, 9758, Pitch_bend_c, 7, 8352
7, 9759, Note_on_c, 7, 61, 0
7, 9759, Pitch_bend_c, 7, 8576
7, 9762, Pitch_bend_c, 7, 8192
7, 9763, Note_on_c, 7, 58, 71
7, 9763, Pitch_bend_c, 7, 8096
7, 9765, Pitch_bend_c, 7, 8128
7, 9768, Pitch_bend_c, 7, 7968
7, 9769, Pitch_bend_c, 7, 7808
7, 9770, Pitch_bend_c, 7, 4960
7, 9771, Pitch_bend_c, 7, 0
7, 9773, Pitch_bend_c, 7, 64
7, 9778, Pitch_bend_c, 7, 96
7, 9781, Note_on_c, 7, 58, 0
7, 9781, Pitch_bend_c, 7, 8192
7, 9785, Note_on_c, 7, 53, 45
7, 9789, Pitch_bend_c, 7, 7712
7, 9790, Pitch_bend_c, 7, 7648
7, 9793, Pitch_bend_c, 7, 7808
7, 9797, Pitch_bend_c, 7, 7776
7, 9799, Pitch_bend_c, 7, 7808
7, 9800, Pitch_bend_c, 7, 7840
7, 9802, Pitch_bend_c, 7, 7904
7, 9807, Pitch_bend_c, 7, 7872
7, 9810, Pitch_bend_c, 7, 7840
7, 9812, Pitch_bend_c, 7, 7808
7, 9814, Pitch_bend_c, 7, 7840
7, 9815, Pitch_bend_c, 7, 8352
7, 9816, Pitch_bend_c, 7, 8896
7, 9818, Pitch_bend_c, 7, 9440
7, 9819, Pitch_bend_c, 7, 9952
7, 9823, Note_on_c, 7, 53, 0
7, 9843, Note_on_c, 7, 61, 73
7, 9843, Pitch_bend_c, 7, 8288
7, 9844, Pitch_bend_c, 7, 7904
7, 9845, Pitch_bend_c, 7, 7840
7, 9846, Pitch_bend_c, 7, 8192
7, 9846, Note_on_c, 7, 65, 92
7, 9850, Note_on_c, 7, 70, 80
7, 9901, Note_on_c, 7, 61, 0
7, 9902, Note_on_c, 7, 65, 0
7, 9906, Note_on_c, 7, 61, 78
7, 9908, Note_on_c, 7, 65, 74
7, 9909, Note_on_c, 7, 70, 0
7, 9912, Note_on_c, 7, 70, 47
7, 9922, Note_on_c, 7, 61, 0
7, 9922, Note_on_c, 7, 62, 63
7, 10034, Note_on_c, 7, 65, 0
7, 10034, Note_on_c, 7, 62, 0
7, 10052, Note_on_c, 7, 70, 0
7, 10275, Note_on_c, 7, 65, 73
7, 10275, Pitch_bend_c, 7, 8352
7, 10283, Pitch_bend_c, 7, 8320
7, 10288, Pitch_bend_c, 7, 8288
7, 10289, Pitch_bend_c, 7, 8256
7, 10290, Pitch_bend_c, 7, 8192
7, 10290, Note_on_c, 7, 70, 89
7, 10293, Note_on_c, 7, 65, 0
7, 10293, Pitch_bend_c, 7, 8224
7, 10294, Pitch_bend_c, 7, 8192
7, 10297, Pitch_bend_c, 7, 8160
7, 10298, Pitch_bend_c, 7, 8128
7, 10301, Pitch_bend_c, 7, 8096
7, 10302, Pitch_bend_c, 7, 8032
7, 10303, Note_on_c, 7, 70, 0
7, 10305, Pitch_bend_c, 7, 8192
7, 10306, Note_on_c, 7, 70, 89
7, 10306, Pitch_bend_c, 7, 8128
7, 10307, Pitch_bend_c, 7, 8064
7, 10310, Pitch_bend_c, 7, 8128
7, 10311, Pitch_bend_c, 7, 8352
7, 10312, Pitch_bend_c, 7, 8864
7, 10314, Pitch_bend_c, 7, 9472
7, 10315, Pitch_bend_c, 7, 10016
7, 10316, Pitch_bend_c, 7, 10272
7, 10319, Pitch_bend_c, 7, 9920
7, 10320, Pitch_bend_c, 7, 9376
7, 10322, Pitch_bend_c, 7, 8800
7, 10323, Pitch_bend_c, 7, 8320
7, 10324, Pitch_bend_c, 7, 8128
7, 10325, Pitch_bend_c, 7, 8064
7, 10327, Pitch_bend_c, 7, 8192
7, 10328, Pitch_bend_c, 7, 8512
7, 10329, Pitch_bend_c, 7, 9152
7, 10331, Pitch_bend_c, 7, 9856
7, 10332, Pitch_bend_c, 7, 10400
7, 10333, Pitch_bend_c, 7, 10560
7, 10335, Pitch_bend_c, 7, 10304
7, 10336, Pitch_bend_c, 7, 9760
7, 10337, Pitch_bend_c, 7, 9152
7, 10338, Pitch_bend_c, 7, 8544
7, 10340, Pitch_bend_c, 7, 8192
7, 10341, Pitch_bend_c, 7, 8032
7, 10350, Pitch_bend_c, 7, 8064
7, 10352, Pitch_bend_c, 7, 8096
7, 10355, Pitch_bend_c, 7, 7968
7, 10356, Note_on_c, 7, 70, 0
7, 10356, Pitch_bend_c, 7, 8192
7, 10357, Note_on_c, 7, 73, 93
7, 10357, Pitch_bend_c, 7, 8544
7, 10364, Pitch_bend_c, 7, 8512
7, 10365, Note_on_c, 7, 73, 0
7, 10368, Note_on_c, 7, 70, 74
7, 10368, Pitch_bend_c, 7, 8192
7, 10371, Pitch_bend_c, 7, 8224
7, 10373, Pitch_bend_c, 7, 8256
7, 10374, Pitch_bend_c, 7, 8416
7, 10376, Pitch_bend_c, 7, 8544
7, 10377, Pitch_bend_c, 7, 0
7, 10380, Pitch_bend_c, 7, 64
7, 10381, Pitch_bend_c, 7, 96
7, 10382, Pitch_bend_c, 7, 128
7, 10383, Pitch_bend_c, 7, 160
7, 10385, Pitch_bend_c, 7, 224
7, 10386, Pitch_bend_c, 7, 256
7, 10387, Note_on_c, 7, 70, 0
7, 10388, Pitch_bend_c, 7, 8192
7, 10389, Note_on_c, 7, 65, 42
7, 10389, Pitch_bend_c, 7, 8416
7, 10390, Pitch_bend_c, 7, 8480
7, 10392, Pitch_bend_c, 7, 8448
7, 10394, Pitch_bend_c, 7, 8416
7, 10396, Pitch_bend_c, 7, 8352
7, 10398, Pitch_bend_c, 7, 8288
7, 10399, Pitch_bend_c, 7, 8256
7, 10400, Pitch_bend_c, 7, 8224
7, 10403, Pitch_bend_c, 7, 8192
7, 10411, Note_on_c, 7, 65, 0
7, 10411, Pitch_bend_c, 7, 8224
7, 10673, Pitch_bend_c, 7, 8192
7, 10674, Note_on_c, 7, 75, 89
7, 10674, Pitch_bend_c, 7, 8160
7, 10675, Pitch_bend_c, 7, 8256
7, 10677, Pitch_bend_c, 7, 8352
7, 10678, Pitch_bend_c, 7, 8480
7, 10679, Pitch_bend_c, 7, 8352
7, 10680, Pitch_bend_c, 7, 8256
7, 10682, Pitch_bend_c, 7, 8224
7, 10683, Pitch_bend_c, 7, 8192
7, 10684, Pitch_bend_c, 7, 8160
7, 10687, Pitch_bend_c, 7, 8448
7, 10688, Pitch_bend_c, 7, 10784
7, 10689, Pitch_bend_c, 7, 11136
7, 10691, Pitch_bend_c, 7, 11680
7, 10692, Pitch_bend_c, 7, 12224
7, 10693, Pitch_bend_c, 7, 12768
7, 10695, Pitch_bend_c, 7, 12864
7, 10696, Pitch_bend_c, 7, 12416
7, 10697, Pitch_bend_c, 7, 9344
7, 10698, Pitch_bend_c, 7, 9056
7, 10700, Pitch_bend_c, 7, 8640
7, 10701, Pitch_bend_c, 7, 8256
7, 10702, Pitch_bend_c, 7, 7936
7, 10703, Pitch_bend_c, 7, 7872
7, 10705, Pitch_bend_c, 7, 7936
7, 10706, Note_on_c, 7, 75, 0
7, 10706, Pitch_bend_c, 7, 8640
7, 10708, Pitch_bend_c, 7, 8192
7, 10709, Note_on_c, 7, 73, 84
7, 10709, Pitch_bend_c, 7, 8160
7, 10710, Pitch_bend_c, 7, 8192
7, 10713, Pitch_bend_c, 7, 8224
7, 10715, Pitch_bend_c, 7, 8256
7, 10716, Note_on_c, 7, 73, 0
7, 10717, Note_on_c, 7, 70, 68
7, 10717, Pitch_bend_c, 7, 8192
7, 10718, Pitch_bend_c, 7, 8576
7, 10720, Pitch_bend_c, 7, 8608
7, 10723, Pitch_bend_c, 7, 8576
7, 10724, Pitch_bend_c, 7, 8544
7, 10725, Pitch_bend_c, 7, 8448
7, 10727, Pitch_bend_c, 7, 8352
7, 10728, Pitch_bend_c, 7, 8288
7, 10729, Pitch_bend_c, 7, 8224
7, 10732, Pitch_bend_c, 7, 8192
7, 10733, Pitch_bend_c, 7, 8224
7, 10743, Pitch_bend_c, 7, 8192
7, 10749, Pitch_bend_c, 7, 8224
7, 10750, Pitch_bend_c, 7, 8480
7, 10752, Pitch_bend_c, 7, 8992
7, 10753, Pitch_bend_c, 7, 9696
7, 10754, Pitch_bend_c, 7, 10400
7, 10755, Pitch_bend_c, 7, 10880
7, 10757, Pitch_bend_c, 7, 11072
7, 10758, Pitch_bend_c, 7, 10624
7, 10759, Pitch_bend_c, 7, 8128
7, 10760, Pitch_bend_c, 7, 8096
7, 10763, Pitch_bend_c, 7, 8032
7, 10764, Pitch_bend_c, 7, 7968
7, 10765, Pitch_bend_c, 7, 8064
7, 10767, Pitch_bend_c, 7, 8288
7, 10768, Pitch_bend_c, 7, 8928
7, 10769, Pitch_bend_c, 7, 9696
7, 10771, Pitch_bend_c, 7, 10336
7, 10772, Pitch_bend_c, 7, 10592
7, 10773, Pitch_bend_c, 7, 10240
7, 10775, Pitch_bend_c, 7, 9600
7, 10776, Pitch_bend_c, 7, 8896
7, 10778, Note_on_c, 7, 70, 0
7, 10778, Pitch_bend_c, 7, 10592
7, 11021, Note_on_c, 7, 75, 89
7, 11021, Pitch_bend_c, 7, 8192
7, 11022, Pitch_bend_c, 7, 8000
7, 11023, Pitch_bend_c, 7, 8192
7, 11025, Pitch_bend_c, 7, 8224
7, 11026, Pitch_bend_c, 7, 8192
7, 11029, Pitch_bend_c, 7, 8256
7, 11030, Pitch_bend_c, 7, 8576
7, 11031, Pitch_bend_c, 7, 9184
7, 11033, Pitch_bend_c, 7, 11968
7, 11035, Pitch_bend_c, 7, 12224
7, 11036, Pitch_bend_c, 7, 12576
7, 11037, Pitch_bend_c, 7, 12992
7, 11039, Pitch_bend_c, 7, 13440
7, 11040, Pitch_bend_c, 7, 13664
7, 11041, Pitch_bend_c, 7, 13760
7, 11046, Pitch_bend_c, 7, 13728
7, 11047, Pitch_bend_c, 7, 13664
7, 11048, Pitch_bend_c, 7, 13632
7, 11050, Pitch_bend_c, 7, 13568
7, 11051, Pitch_bend_c, 7, 13664
7, 11052, Note_on_c, 7, 75, 0
7, 11052, Pitch_bend_c, 7, 13728
7, 11056, Pitch_bend_c, 7, 8192
7, 11057, Note_on_c, 7, 76, 85
7, 11057, Pitch_bend_c, 7, 9472
7, 11058, Pitch_bend_c, 7, 8064
7, 11060, Pitch_bend_c, 7, 7616
7, 11061, Pitch_bend_c, 7, 5120
7, 11062, Pitch_bend_c, 7, 4832
7, 11064, Pitch_bend_c, 7, 4480
7, 11065, Pitch_bend_c, 7, 4160
7, 11066, Pitch_bend_c, 7, 3840
7, 11068, Pitch_bend_c, 7, 3904
7, 11069, Pitch_bend_c, 7, 3936
7, 11072, Note_on_c, 7, 76, 0
7, 11072, Pitch_bend_c, 7, 4480
7, 11074, Pitch_bend_c, 7, 8192
7, 11075, Note_on_c, 7, 73, 83
7, 11075, Pitch_bend_c, 7, 8224
7, 11076, Pitch_bend_c, 7, 8352
7, 11077, Pitch_bend_c, 7, 8384
7, 11078, Pitch_bend_c, 7, 8416
7, 11079, Pitch_bend_c, 7, 8448
7, 11081, Pitch_bend_c, 7, 8544
7, 11082, Pitch_bend_c, 7, 8608
7, 11084, Note_on_c, 7, 73, 0
7, 11084, Pitch_bend_c, 7, 8864
7, 11087, Pitch_bend_c, 7, 8192
7, 11088, Note_on_c, 7, 70, 43
7, 11088, Pitch_bend_c, 7, 8416
7, 11089, Pitch_bend_c, 7, 8448
7, 11092, Pitch_bend_c, 7, 8416
7, 11093, Pitch_bend_c, 7, 8352
7, 11094, Pitch_bend_c, 7, 8320
7, 11096, Pitch_bend_c, 7, 8288
7, 11097, Pitch_bend_c, 7, 8256
7, 11099, Pitch_bend_c, 7, 8224
7, 11100, Pitch_bend_c, 7, 8192
7, 11106, Pitch_bend_c, 7, 8224
7, 11107, Pitch_bend_c, 7, 8448
7, 11109, Pitch_bend_c, 7, 8928
7, 11110, Pitch_bend_c, 7, 9568
7, 11111, Pitch_bend_c, 7, 10176
7, 11113, Pitch_bend_c, 7, 10496
7, 11114, Pitch_bend_c, 7, 10272
7, 11115, Pitch_bend_c, 7, 9664
7, 11117, Pitch_bend_c, 7, 9024
7, 11118, Pitch_bend_c, 7, 8416
7, 11120, Pitch_bend_c, 7, 8128
7, 11121, Pitch_bend_c, 7, 8096
7, 11123, Pitch_bend_c, 7, 8160
7, 11124, Pitch_bend_c, 7, 8384
7, 11125, Pitch_bend_c, 7, 8896
7, 11127, Pitch_bend_c, 7, 9568
7, 11128, Pitch_bend_c, 7, 10176
7, 11130, Pitch_bend_c, 7, 10496
7, 11131, Pitch_bend_c, 7, 10304
7, 11132, Pitch_bend_c, 7, 9760
7, 11134, Pitch_bend_c, 7, 9088
7, 11135, Pitch_bend_c, 7, 8480
7, 11137, Pitch_bend_c, 7, 8160
7, 11138, Pitch_bend_c, 7, 8000
7, 11141, Pitch_bend_c, 7, 8032
7, 11144, Note_on_c, 7, 70, 0
7, 11144, Pitch_bend_c, 7, 9088
7, 11827, Pitch_bend_c, 7, 8192
7, 11828, Note_on_c, 7, 67, 89
7, 11828, Pitch_bend_c, 7, 8672
7, 11829, Pitch_bend_c, 7, 8640
7, 11830, Pitch_bend_c, 7, 8192
7, 11830, Note_on_c, 7, 70, 87
7, 11845, Note_on_c, 7, 67, 0
7, 11845, Pitch_bend_c, 7, 7808
7, 11846, Pitch_bend_c, 7, 7520
7, 11847, Note_on_c, 7, 70, 0
7, 11849, Pitch_bend_c, 7, 8192
7, 11850, Note_on_c, 7, 70, 81
7, 11850, Pitch_bend_c, 7, 7872
7, 11851, Pitch_bend_c, 7, 7840
7, 11854, Pitch_bend_c, 7, 7872
7, 11858, Pitch_bend_c, 7, 7840
7, 11861, Pitch_bend_c, 7, 7808
7, 11864, Pitch_bend_c, 7, 7936
7, 11865, Note_on_c, 7, 70, 0
7, 11867, Pitch_bend_c, 7, 8192
7, 11868, Note_on_c, 7, 73, 87
7, 11868, Pitch_bend_c, 7, 8288
7, 11871, Pitch_bend_c, 7, 8256
7, 11872, Pitch_bend_c, 7, 8192
7, 11873, Pitch_bend_c, 7, 8160
7, 11874, Pitch_bend_c, 7, 8128
7, 11880, Pitch_bend_c, 7, 8064
7, 11883, Note_on_c, 7, 73, 0
7, 11883, Pitch_bend_c, 7, 8256
7, 11889, Pitch_bend_c, 7, 8192
7, 11892, Note_on_c, 7, 76, 89
7, 11893, Pitch_bend_c, 7, 8128
7, 11894, Pitch_bend_c, 7, 8064
7, 11895, Pitch_bend_c, 7, 8128
7, 11900, Pitch_bend_c, 7, 8064
7, 11902, Pitch_bend_c, 7, 8384
7, 11904, Pitch_bend_c, 7, 10912
7, 11905, Pitch_bend_c, 7, 11200
7, 11906, Pitch_bend_c, 7, 11648
7, 11908, Pitch_bend_c, 7, 12064
7, 11909, Pitch_bend_c, 7, 12576
7, 11911, Note_on_c, 7, 76, 0
7, 11911, Pitch_bend_c, 7, 12736
7, 11925, Pitch_bend_c, 7, 8192
7, 11926, Note_on_c, 7, 73, 85
7, 11926, Pitch_bend_c, 7, 8416
7, 11927, Pitch_bend_c, 7, 8352
7, 11929, Pitch_bend_c, 7, 8384
7, 11930, Pitch_bend_c, 7, 8416
7, 11931, Pitch_bend_c, 7, 8384
7, 11934, Pitch_bend_c, 7, 8352
7, 11936, Pitch_bend_c, 7, 8256
7, 11938, Pitch_bend_c, 7, 8224
7, 11940, Pitch_bend_c, 7, 8192
7, 11943, Pitch_bend_c, 7, 8160
7, 11946, Pitch_bend_c, 7, 8128
7, 11950, Pitch_bend_c, 7, 8160
7, 11951, Pitch_bend_c, 7, 8192
7, 11952, Pitch_bend_c, 7, 8256
7, 11954, Pitch_bend_c, 7, 8288
7, 11955, Note_on_c, 7, 73, 0
7, 11957, Pitch_bend_c, 7, 8192
7, 11958, Note_on_c, 7, 70, 50
7, 11958, Pitch_bend_c, 7, 8064
7, 11959, Pitch_bend_c, 7, 8096
7, 11964, Pitch_bend_c, 7, 8064
7, 11967, Pitch_bend_c, 7, 8032
7, 11969, Note_on_c, 7, 70, 0
7, 11970, Pitch_bend_c, 7, 8192
7, 11971, Note_on_c, 7, 70, 68
7, 11972, Pitch_bend_c, 7, 8160
7, 11974, Pitch_bend_c, 7, 8256
7, 11975, Pitch_bend_c, 7, 8480
7, 11977, Pitch_bend_c, 7, 8768
7, 11978, Pitch_bend_c, 7, 9056
7, 11979, Pitch_bend_c, 7, 9184
7, 11981, Pitch_bend_c, 7, 9024
7, 11982, Pitch_bend_c, 7, 8640
7, 11983, Pitch_bend_c, 7, 8320
7, 11985, Pitch_bend_c, 7, 8000
7, 11986, Pitch_bend_c, 7, 7872
7, 11988, Pitch_bend_c, 7, 7936
7, 11989, Pitch_bend_c, 7, 8256
7, 11991, Pitch_bend_c, 7, 8800
7, 11992, Pitch_bend_c, 7, 9440
7, 11993, Pitch_bend_c, 7, 9952
7, 11995, Pitch_bend_c, 7, 10048
7, 11996, Pitch_bend_c, 7, 9792
7, 11997, Pitch_bend_c, 7, 9440
7, 11999, Pitch_bend_c, 7, 9056
7, 12000, Pitch_bend_c, 7, 8704
7, 12002, Pitch_bend_c, 7, 8544
7, 12003, Pitch_bend_c, 7, 8416
7, 12005, Pitch_bend_c, 7, 8320
7, 12006, Pitch_bend_c, 7, 8224
7, 12007, Pitch_bend_c, 7, 8192
7, 12009, Pitch_bend_c, 7, 8128
7, 12010, Pitch_bend_c, 7, 8096
7, 12013, Pitch_bend_c, 7, 8064
7, 12016, Pitch_bend_c, 7, 8032
7, 12018, Pitch_bend_c, 7, 8000
7, 12020, Pitch_bend_c, 7, 8128
7, 12021, Note_on_c, 7, 70, 0
7, 12026, Note_on_c, 7, 67, 14
7, 12026, Pitch_bend_c, 7, 8192
7, 12030, Pitch_bend_c, 7, 8128
7, 12032, Pitch_bend_c, 7, 8096
7, 12035, Pitch_bend_c, 7, 8160
7, 12036, Pitch_bend_c, 7, 8064
7, 12038, Note_on_c, 7, 67, 0
7, 12038, Pitch_bend_c, 7, 8128
7, 12040, Pitch_bend_c, 7, 8192
7, 12041, Note_on_c, 7, 70, 80
7, 12041, Pitch_bend_c, 7, 8128
7, 12044, Pitch_bend_c, 7, 8160
7, 12046, Pitch_bend_c, 7, 8192
7, 12049, Pitch_bend_c, 7, 8224
7, 12050, Pitch_bend_c, 7, 8256
7, 12051, Pitch_bend_c, 7, 8288
7, 12053, Note_on_c, 7, 70, 0
7, 12054, Pitch_bend_c, 7, 8192
7, 12055, Note_on_c, 7, 72, 85
7, 12056, Pitch_bend_c, 7, 8544
7, 12057, Pitch_bend_c, 7, 8320
7, 12058, Pitch_bend_c, 7, 8288
7, 12059, Pitch_bend_c, 7, 8352
7, 12061, Pitch_bend_c, 7, 8480
7, 12062, Pitch_bend_c, 7, 8416
7, 12065, Pitch_bend_c, 7, 8352
7, 12066, Pitch_bend_c, 7, 8256
7, 12069, Pitch_bend_c, 7, 8288
7, 12070, Pitch_bend_c, 7, 8480
7, 12071, Note_on_c, 7, 72, 0
7, 12076, Note_on_c, 7, 72, 84
7, 12077, Pitch_bend_c, 7, 8448
7, 12078, Pitch_bend_c, 7, 8480
7, 12081, Pitch_bend_c, 7, 8448
7, 12082, Pitch_bend_c, 7, 8416
7, 12083, Pitch_bend_c, 7, 8320
7, 12087, Pitch_bend_c, 7, 8288
7, 12089, Pitch_bend_c, 7, 8352
7, 12090, Pitch_bend_c, 7, 8448
7, 12092, Pitch_bend_c, 7, 8512
7, 12093, Pitch_bend_c, 7, 8640
7, 12094, Pitch_bend_c, 7, 8736
7, 12096, Pitch_bend_c, 7, 8832
7, 12097, Pitch_bend_c, 7, 8928
7, 12098, Pitch_bend_c, 7, 9056
7, 12100, Pitch_bend_c, 7, 9088
7, 12101, Pitch_bend_c, 7, 9152
7, 12103, Pitch_bend_c, 7, 9216
7, 12104, Pitch_bend_c, 7, 9248
7, 12106, Pitch_bend_c, 7, 9280
7, 12107, Pitch_bend_c, 7, 9312
7, 12108, Pitch_bend_c, 7, 9408
7, 12110, Pitch_bend_c, 7, 9472
7, 12111, Pitch_bend_c, 7, 9536
7, 12113, Pitch_bend_c, 7, 9632
7, 12114, Pitch_bend_c, 7, 9664
7, 12116, Pitch_bend_c, 7, 9696
7, 12118, Pitch_bend_c, 7, 9728
7, 12120, Pitch_bend_c, 7, 9856
7, 12121, Pitch_bend_c, 7, 10016
7, 12123, Pitch_bend_c, 7, 10208
7, 12124, Pitch_bend_c, 7, 10400
7, 12126, Pitch_bend_c, 7, 10592
7, 12127, Pitch_bend_c, 7, 10720
7, 12128, Pitch_bend_c, 7, 10880
7, 12130, Pitch_bend_c, 7, 11040
7, 12131, Pitch_bend_c, 7, 11104
7, 12133, Pitch_bend_c, 7, 11136
7, 12134, Pitch_bend_c, 7, 11104
7, 12135, Pitch_bend_c, 7, 10944
7, 12137, Pitch_bend_c, 7, 10592
7, 12138, Pitch_bend_c, 7, 10112
7, 12139, Pitch_bend_c, 7, 9664
7, 12141, Pitch_bend_c, 7, 9408
7, 12142, Pitch_bend_c, 7, 9440
7, 12144, Pitch_bend_c, 7, 9888
7, 12145, Pitch_bend_c, 7, 10528
7, 12147, Pitch_bend_c, 7, 11264
7, 12148, Pitch_bend_c, 7, 12000
7, 12149, Pitch_bend_c, 7, 12480
7, 12151, Pitch_bend_c, 7, 12768
7, 12152, Pitch_bend_c, 7, 12832
7, 12153, Pitch_bend_c, 7, 12544
7, 12155, Pitch_bend_c, 7, 10208
7, 12156, Pitch_bend_c, 7, 10048
7, 12157, Pitch_bend_c, 7, 9952
7, 12160, Pitch_bend_c, 7, 10272
7, 12162, Pitch_bend_c, 7, 10944
7, 12163, Pitch_bend_c, 7, 11712
7, 12165, Pitch_bend_c, 7, 12480
7, 12166, Pitch_bend_c, 7, 12960
7, 12167, Pitch_bend_c, 7, 13216
7, 12169, Pitch_bend_c, 7, 12992
7, 12170, Pitch_bend_c, 7, 10656
7, 12172, Pitch_bend_c, 7, 10336
7, 12173, Pitch_bend_c, 7, 9824
7, 12175, Pitch_bend_c, 7, 9280
7, 12176, Pitch_bend_c, 7, 8736
7, 12177, Note_on_c, 7, 72, 0
7, 12177, Pitch_bend_c, 7, 10656
7, 12556, Pitch_bend_c, 7, 8192
7, 12562, Note_on_c, 7, 77, 90
7, 12562, Pitch_bend_c, 7, 8384
7, 12566, Pitch_bend_c, 7, 8416
7, 12568, Pitch_bend_c, 7, 8544
7, 12569, Pitch_bend_c, 7, 8672
7, 12570, Pitch_bend_c, 7, 8832
7, 12572, Pitch_bend_c, 7, 8992
7, 12573, Pitch_bend_c, 7, 9248
7, 12574, Pitch_bend_c, 7, 9536
7, 12576, Pitch_bend_c, 7, 9920
7, 12577, Pitch_bend_c, 7, 10400
7, 12579, Pitch_bend_c, 7, 10880
7, 12580, Pitch_bend_c, 7, 11392
7, 12582, Pitch_bend_c, 7, 11744
7, 12583, Pitch_bend_c, 7, 11936
7, 12584, Pitch_bend_c, 7, 12000
7, 12586, Note_on_c, 7, 77, 0
7, 12589, Note_on_c, 7, 77, 89
7, 12589, Pitch_bend_c, 7, 8416
7, 12595, Pitch_bend_c, 7, 8384
7, 12598, Pitch_bend_c, 7, 8320
7, 12604, Pitch_bend_c, 7, 8288
7, 12605, Note_on_c, 7, 77, 0
7, 12611, Pitch_bend_c, 7, 8192
7, 12612, Note_on_c, 7, 75, 86
7, 12612, Pitch_bend_c, 7, 8352
7, 12613, Pitch_bend_c, 7, 8448
7, 12622, Pitch_bend_c, 7, 8416
7, 12624, Note_on_c, 7, 75, 0
7, 12624, Pitch_bend_c, 7, 8352
7, 12630, Note_on_c, 7, 76, 85
7, 12630, Pitch_bend_c, 7, 12576
7, 12632, Pitch_bend_c, 7, 12480
7, 12642, Note_on_c, 7, 76, 0
7, 12642, Pitch_bend_c, 7, 12512
7, 12652, Note_on_c, 7, 72, 84
7, 12652, Pitch_bend_c, 7, 8544
7, 12655, Pitch_bend_c, 7, 8480
7, 12657, Pitch_bend_c, 7, 8448
7, 12658, Pitch_bend_c, 7, 8352
7, 12663, Pitch_bend_c, 7, 8608
7, 12664, Pitch_bend_c, 7, 12096
7, 12665, Pitch_bend_c, 7, 12128
7, 12668, Pitch_bend_c, 7, 12192
7, 12670, Pitch_bend_c, 7, 12224
7, 12671, Pitch_bend_c, 7, 12320
7, 12672, Pitch_bend_c, 7, 8160
7, 12674, Pitch_bend_c, 7, 8192
7, 12678, Pitch_bend_c, 7, 8288
7, 12679, Pitch_bend_c, 7, 8416
7, 12681, Note_on_c, 7, 72, 0
7, 12681, Note_on_c, 7, 69, 58
7, 12681, Pitch_bend_c, 7, 12096
7, 12682, Pitch_bend_c, 7, 12224
7, 12691, Pitch_bend_c, 7, 12256
7, 12692, Pitch_bend_c, 7, 12288
7, 12694, Note_on_c, 7, 69, 0
7, 12694, Pitch_bend_c, 7, 8192
7, 12695, Note_on_c, 7, 71, 82
7, 12696, Pitch_bend_c, 7, 12512
7, 12697, Pitch_bend_c, 7, 12416
7, 12699, Pitch_bend_c, 7, 12448
7, 12702, Pitch_bend_c, 7, 12512
7, 12704, Pitch_bend_c, 7, 12448
7, 12705, Pitch_bend_c, 7, 12416
7, 12707, Pitch_bend_c, 7, 12352
7, 12708, Pitch_bend_c, 7, 12288
7, 12712, Pitch_bend_c, 7, 12320
7, 12713, Note_on_c, 7, 71, 0
7, 12713, Pitch_bend_c, 7, 12448
7, 12715, Pitch_bend_c, 7, 8192
7, 12716, Note_on_c, 7, 67, 35
7, 12716, Pitch_bend_c, 7, 8160
7, 12717, Pitch_bend_c, 7, 8192
7, 12723, Pitch_bend_c, 7, 8160
7, 12724, Pitch_bend_c, 7, 8128
7, 12726, Pitch_bend_c, 7, 8096
7, 12728, Pitch_bend_c, 7, 8064
7, 12730, Pitch_bend_c, 7, 8096
7, 12731, Pitch_bend_c, 7, 8192
7, 12732, Note_on_c, 7, 67, 0
7, 12734, Note_on_c, 7, 70, 85
7, 12734, Pitch_bend_c, 7, 8160
7, 12735, Pitch_bend_c, 7, 8128
7, 12739, Pitch_bend_c, 7, 8160
7, 12742, Pitch_bend_c, 7, 8224
7, 12743, Pitch_bend_c, 7, 8416
7, 12745, Pitch_bend_c, 7, 8800
7, 12746, Pitch_bend_c, 7, 9248
7, 12747, Pitch_bend_c, 7, 9696
7, 12749, Pitch_bend_c, 7, 9952
7, 12752, Pitch_bend_c, 7, 9568
7, 12753, Pitch_bend_c, 7, 9024
7, 12755, Pitch_bend_c, 7, 8512
7, 12756, Pitch_bend_c, 7, 8128
7, 12757, Pitch_bend_c, 7, 8000
7, 12759, Pitch_bend_c, 7, 8064
7, 12760, Pitch_bend_c, 7, 8256
7, 12762, Pitch_bend_c, 7, 8608
7, 12763, Pitch_bend_c, 7, 9024
7, 12764, Pitch_bend_c, 7, 9344
7, 12766, Pitch_bend_c, 7, 9408
7, 12767, Pitch_bend_c, 7, 9248
7, 12768, Pitch_bend_c, 7, 9024
7, 12770, Pitch_bend_c, 7, 8800
7, 12771, Note_on_c, 7, 70, 0
7, 12771, Pitch_bend_c, 7, 9344
7, 12773, Pitch_bend_c, 7, 8192
7, 12774, Note_on_c, 7, 73, 78
7, 12774, Pitch_bend_c, 7, 8544
7, 12777, Pitch_bend_c, 7, 8512
7, 12778, Pitch_bend_c, 7, 8448
7, 12779, Pitch_bend_c, 7, 8416
7, 12781, Pitch_bend_c, 7, 8352
7, 12782, Pitch_bend_c, 7, 8256
7, 12784, Pitch_bend_c, 7, 8192
7, 12785, Pitch_bend_c, 7, 8160
7, 12788, Pitch_bend_c, 7, 8192
7, 12793, Pitch_bend_c, 7, 8160
7, 12797, Pitch_bend_c, 7, 8128
7, 12798, Pitch_bend_c, 7, 8064
7, 12799, Pitch_bend_c, 7, 8032
7, 12806, Pitch_bend_c, 7, 8064
7, 12808, Pitch_bend_c, 7, 8160
7, 12809, Pitch_bend_c, 7, 8224
7, 12810, Pitch_bend_c, 7, 8416
7, 12812, Pitch_bend_c, 7, 8768
7, 12813, Pitch_bend_c, 7, 9376
7, 12814, Pitch_bend_c, 7, 10144
7, 12816, Pitch_bend_c, 7, 10976
7, 12817, Pitch_bend_c, 7, 11616
7, 12819, Pitch_bend_c, 7, 11968
7, 12820, Note_on_c, 7, 73, 0
7, 12884, Pitch_bend_c, 7, 8192
7, 12885, Note_on_c, 7, 70, 89
7, 12885, Pitch_bend_c, 7, 8384
7, 12891, Pitch_bend_c, 7, 8416
7, 12894, Pitch_bend_c, 7, 8448
7, 12896, Pitch_bend_c, 7, 8512
7, 12897, Note_on_c, 7, 70, 0
7, 12897, Pitch_bend_c, 7, 8544
7, 12900, Pitch_bend_c, 7, 8192
7, 12901, Note_on_c, 7, 65, 82
7, 12901, Pitch_bend_c, 7, 8640
7, 12902, Pitch_bend_c, 7, 8608
7, 12903, Pitch_bend_c, 7, 8576
7, 12908, Pitch_bend_c, 7, 8544
7, 12910, Pitch_bend_c, 7, 8480
7, 12911, Pitch_bend_c, 7, 8096
7, 12913, Note_on_c, 7, 65, 0
7, 12913, Pitch_bend_c, 7, 8576
7, 12919, Pitch_bend_c, 7, 8192
7, 12920, Note_on_c, 7, 63, 51
7, 12921, Pitch_bend_c, 7, 8032
7, 12922, Pitch_bend_c, 7, 8064
7, 12926, Pitch_bend_c, 7, 8096
7, 12927, Pitch_bend_c, 7, 8128
7, 12931, Pitch_bend_c, 7, 8032
7, 12932, Note_on_c, 7, 63, 0
7, 12932, Pitch_bend_c, 7, 8064
7, 12936, Pitch_bend_c, 7, 8192
7, 12937, Note_on_c, 7, 65, 91
7, 12937, Pitch_bend_c, 7, 8160
7, 12942, Pitch_bend_c, 7, 8128
7, 12944, Pitch_bend_c, 7, 8096
7, 12948, Pitch_bend_c, 7, 8064
7, 12949, Pitch_bend_c, 7, 8000
7, 12950, Note_on_c, 7, 65, 0
7, 12950, Pitch_bend_c, 7, 8160
7, 12958, Pitch_bend_c, 7, 8192
7, 12959, Note_on_c, 7, 61, 44
7, 12960, Pitch_bend_c, 7, 8160
7, 12962, Pitch_bend_c, 7, 8192
7, 12963, Pitch_bend_c, 7, 8224
7, 12970, Pitch_bend_c, 7, 8192
7, 12980, Pitch_bend_c, 7, 8224
7, 12981, Pitch_bend_c, 7, 8256
7, 12983, Pitch_bend_c, 7, 8288
7, 12985, Pitch_bend_c, 7, 8352
7, 12986, Pitch_bend_c, 7, 8384
7, 12987, Pitch_bend_c, 7, 8448
7, 12989, Pitch_bend_c, 7, 8544
7, 12990, Pitch_bend_c, 7, 8672
7, 12991, Pitch_bend_c, 7, 8800
7, 12993, Pitch_bend_c, 7, 8992
7, 12994, Pitch_bend_c, 7, 9248
7, 12996, Note_on_c, 7, 61, 0
7, 12996, Pitch_bend_c, 7, 9472
7, 13363, Pitch_bend_c, 7, 8192
7, 13364, Note_on_c, 7, 67, 99
7, 13364, Pitch_bend_c, 7, 8256
7, 13366, Pitch_bend_c, 7, 8192
7, 13366, Note_on_c, 7, 70, 99
7, 13384, Note_on_c, 7, 70, 0
7, 13385, Note_on_c, 7, 70, 86
7, 13391, Note_on_c, 7, 67, 0
7, 13394, Pitch_bend_c, 7, 7968
7, 13395, Pitch_bend_c, 7, 7936
7, 13396, Pitch_bend_c, 7, 7712
7, 13397, Pitch_bend_c, 7, 7488
7, 13398, Note_on_c, 7, 70, 0
7, 13404, Pitch_bend_c, 7, 8192
7, 13405, Note_on_c, 7, 73, 89
7, 13405, Pitch_bend_c, 7, 8512
7, 13408, Pitch_bend_c, 7, 8416
7, 13410, Pitch_bend_c, 7, 8288
7, 13411, Pitch_bend_c, 7, 8160
7, 13413, Pitch_bend_c, 7, 8064
7, 13414, Pitch_bend_c, 7, 8032
7, 13415, Pitch_bend_c, 7, 8288
7, 13416, Note_on_c, 7, 73, 0
7, 13430, Pitch_bend_c, 7, 8192
7, 13431, Note_on_c, 7, 75, 89
7, 13431, Pitch_bend_c, 7, 8320
7, 13434, Pitch_bend_c, 7, 8224
7, 13437, Pitch_bend_c, 7, 8320
7, 13438, Pitch_bend_c, 7, 8256
7, 13440, Pitch_bend_c, 7, 8544
7, 13441, Pitch_bend_c, 7, 9088
7, 13442, Pitch_bend_c, 7, 11552
7, 13444, Pitch_bend_c, 7, 11872
7, 13445, Pitch_bend_c, 7, 12416
7, 13447, Pitch_bend_c, 7, 14880
7, 13448, Pitch_bend_c, 7, 15072
7, 13449, Pitch_bend_c, 7, 15264
7, 13451, Pitch_bend_c, 7, 15552
7, 13452, Pitch_bend_c, 7, 15840
7, 13454, Pitch_bend_c, 7, 15968
7, 13455, Pitch_bend_c, 7, 16032
7, 13457, Pitch_bend_c, 7, 16064
7, 13458, Pitch_bend_c, 7, 16032
7, 13461, Pitch_bend_c, 7, 15968
7, 13462, Pitch_bend_c, 7, 15936
7, 13463, Pitch_bend_c, 7, 15872
7, 13465, Pitch_bend_c, 7, 15840
7, 13470, Pitch_bend_c, 7, 15776
7, 13472, Pitch_bend_c, 7, 15744
7, 13474, Pitch_bend_c, 7, 15680
7, 13478, Pitch_bend_c, 7, 15648
7, 13479, Pitch_bend_c, 7, 15584
7, 13480, Pitch_bend_c, 7, 15456
7, 13482, Pitch_bend_c, 7, 15200
7, 13483, Pitch_bend_c, 7, 11648
7, 13484, Pitch_bend_c, 7, 8896
7, 13486, Pitch_bend_c, 7, 8640
7, 13487, Pitch_bend_c, 7, 8352
7, 13489, Pitch_bend_c, 7, 8064
7, 13490, Pitch_bend_c, 7, 7904
7, 13491, Note_on_c, 7, 75, 0
7, 13491, Pitch_bend_c, 7, 8896
7, 13493, Pitch_bend_c, 7, 8192
7, 13494, Note_on_c, 7, 73, 84
7, 13494, Pitch_bend_c, 7, 8416
7, 13495, Pitch_bend_c, 7, 8224
7, 13496, Pitch_bend_c, 7, 8256
7, 13498, Pitch_bend_c, 7, 8352
7, 13499, Pitch_bend_c, 7, 8384
7, 13502, Note_on_c, 7, 73, 0
7, 13503, Pitch_bend_c, 7, 8192
7, 13504, Note_on_c, 7, 70, 76
7, 13511, Pitch_bend_c, 7, 8128
7, 13512, Pitch_bend_c, 7, 8032
7, 13513, Pitch_bend_c, 7, 7904
7, 13515, Pitch_bend_c, 7, 7840
7, 13516, Pitch_bend_c, 7, 7776
7, 13519, Pitch_bend_c, 7, 7872
7, 13520, Pitch_bend_c, 7, 8128
7, 13522, Pitch_bend_c, 7, 8576
7, 13523, Pitch_bend_c, 7, 9152
7, 13524, Pitch_bend_c, 7, 9632
7, 13526, Pitch_bend_c, 7, 9920
7, 13529, Pitch_bend_c, 7, 9792
7, 13530, Pitch_bend_c, 7, 9632
7, 13532, Pitch_bend_c, 7, 9440
7, 13533, Pitch_bend_c, 7, 9248
7, 13534, Pitch_bend_c, 7, 9088
7, 13536, Pitch_bend_c, 7, 8960
7, 13537, Pitch_bend_c, 7, 8864
7, 13538, Pitch_bend_c, 7, 8768
7, 13540, Pitch_bend_c, 7, 8608
7, 13541, Pitch_bend_c, 7, 8480
7, 13543, Pitch_bend_c, 7, 8320
7, 13544, Pitch_bend_c, 7, 8192
7, 13546, Note_on_c, 7, 70, 0
7, 13546, Note_on_c, 7, 73, 93
7, 13546, Pitch_bend_c, 7, 8000
7, 13547, Pitch_bend_c, 7, 8160
7, 13550, Pitch_bend_c, 7, 8128
7, 13552, Pitch_bend_c, 7, 8032
7, 13553, Pitch_bend_c, 7, 7968
7, 13554, Pitch_bend_c, 7, 7872
7, 13556, Pitch_bend_c, 7, 7808
7, 13557, Pitch_bend_c, 7, 7936
7, 13558, Pitch_bend_c, 7, 8192
7, 13561, Pitch_bend_c, 7, 9472
7, 13563, Pitch_bend_c, 7, 10240
7, 13564, Pitch_bend_c, 7, 10880
7, 13565, Pitch_bend_c, 7, 11360
7, 13567, Pitch_bend_c, 7, 11552
7, 13568, Pitch_bend_c, 7, 11648
7, 13569, Note_on_c, 7, 73, 0
7, 14063, Pitch_bend_c, 7, 8192
7, 14064, Note_on_c, 7, 63, 89
7, 14064, Pitch_bend_c, 7, 8256
7, 14067, Pitch_bend_c, 7, 8288
7, 14068, Pitch_bend_c, 7, 8320
7, 14070, Pitch_bend_c, 7, 8384
7, 14071, Pitch_bend_c, 7, 8480
7, 14073, Pitch_bend_c, 7, 8768
7, 14074, Pitch_bend_c, 7, 9248
7, 14075, Pitch_bend_c, 7, 9824
7, 14077, Pitch_bend_c, 7, 10368
7, 14078, Pitch_bend_c, 7, 10752
7, 14080, Note_on_c, 7, 63, 0
7, 14080, Pitch_bend_c, 7, 10912
7, 14093, Pitch_bend_c, 7, 8192
7, 14094, Note_on_c, 7, 61, 87
7, 14094, Pitch_bend_c, 7, 8064
7, 14097, Pitch_bend_c, 7, 8032
7, 14100, Pitch_bend_c, 7, 8000
7, 14103, Pitch_bend_c, 7, 8032
7, 14104, Pitch_bend_c, 7, 8064
7, 14105, Note_on_c, 7, 61, 0
7, 14108, Pitch_bend_c, 7, 8192
7, 14109, Note_on_c, 7, 58, 69
7, 14118, Pitch_bend_c, 7, 8224
7, 14121, Pitch_bend_c, 7, 8192
7, 14134, Note_on_c, 7, 58, 0
7, 14134, Pitch_bend_c, 7, 8224
7, 14136, Pitch_bend_c, 7, 8192
7, 14137, Note_on_c, 7, 61, 82
7, 14137, Pitch_bend_c, 7, 7936
7, 14138, Pitch_bend_c, 7, 7904
7, 14139, Pitch_bend_c, 7, 7872
7, 14143, Pitch_bend_c, 7, 7904
7, 14144, Pitch_bend_c, 7, 7936
7, 14146, Pitch_bend_c, 7, 7968
7, 14147, Pitch_bend_c, 7, 8000
7, 14149, Note_on_c, 7, 61, 0
7, 14149, Note_on_c, 7, 63, 83
7, 14149, Pitch_bend_c, 7, 7968
7, 14150, Pitch_bend_c, 7, 8000
7, 14157, Pitch_bend_c, 7, 7968
7, 14159, Pitch_bend_c, 7, 7936
7, 14162, Pitch_bend_c, 7, 7872
7, 14163, Pitch_bend_c, 7, 7808
7, 14164, Note_on_c, 7, 63, 0
7, 14164, Pitch_bend_c, 7, 7968
7, 14176, Note_on_c, 7, 61, 91
7, 14176, Pitch_bend_c, 7, 8288
7, 14177, Pitch_bend_c, 7, 8064
7, 14178, Pitch_bend_c, 7, 8128
7, 14181, Pitch_bend_c, 7, 8160
7, 14184, Pitch_bend_c, 7, 8128
7, 14187, Pitch_bend_c, 7, 8064
7, 14189, Pitch_bend_c, 7, 8032
7, 14193, Pitch_bend_c, 7, 8064
7, 14195, Pitch_bend_c, 7, 8128
7, 14196, Pitch_bend_c, 7, 8288
7, 14198, Pitch_bend_c, 7, 8576
7, 14199, Pitch_bend_c, 7, 8992
7, 14200, Pitch_bend_c, 7, 9536
7, 14202, Pitch_bend_c, 7, 10016
7, 14203, Pitch_bend_c, 7, 10368
7, 14205, Pitch_bend_c, 7, 10528
7, 14206, Pitch_bend_c, 7, 10432
7, 14208, Pitch_bend_c, 7, 10080
7, 14209, Pitch_bend_c, 7, 9568
7, 14210, Pitch_bend_c, 7, 9056
7, 14211, Pitch_bend_c, 7, 10528
7, 14212, Note_on_c, 7, 61, 0
7, 14212, Note_on_c, 7, 58, 72
7, 14212, Pitch_bend_c, 7, 8224
7, 14218, Pitch_bend_c, 7, 8128
7, 14220, Note_on_c, 7, 58, 0
7, 14220, Pitch_bend_c, 7, 8192
7, 14221, Note_on_c, 7, 56, 66
7, 14221, Pitch_bend_c, 7, 8224
7, 14222, Pitch_bend_c, 7, 8192
7, 14224, Note_on_c, 7, 45, 18
7, 14226, Note_on_c, 7, 45, 0
7, 14226, Pitch_bend_c, 7, 8224
7, 14228, Pitch_bend_c, 7, 8320
7, 14229, Pitch_bend_c, 7, 8192
7, 14230, Note_on_c, 7, 56, 0
7, 14230, Note_on_c, 7, 53, 78
7, 14230, Pitch_bend_c, 7, 8000
7, 14233, Pitch_bend_c, 7, 8032
7, 14235, Pitch_bend_c, 7, 8064
7, 14236, Pitch_bend_c, 7, 8032
7, 14237, Pitch_bend_c, 7, 8000
7, 14246, Pitch_bend_c, 7, 7968
7, 14248, Pitch_bend_c, 7, 8000
7, 14253, Pitch_bend_c, 7, 7968
7, 14254, Pitch_bend_c, 7, 7936
7, 14256, Pitch_bend_c, 7, 7904
7, 14259, Pitch_bend_c, 7, 7872
7, 14263, Pitch_bend_c, 7, 7840
7, 14266, Pitch_bend_c, 7, 7808
7, 14271, Pitch_bend_c, 7, 7264
7, 14272, Note_on_c, 7, 53, 0
7, 14321, Pitch_bend_c, 7, 8192
7, 14322, Note_on_c, 7, 58, 100
7, 14323, Pitch_bend_c, 7, 7648
7, 14324, Pitch_bend_c, 7, 8192
7, 14324, Note_on_c, 7, 67, 102
7, 14324, Note_on_c, 7, 61, 102
7, 14344, Note_on_c, 7, 58, 0
7, 14345, Note_on_c, 7, 61, 0
7, 14346, Pitch_bend_c, 7, 7552
7, 14347, Note_on_c, 7, 67, 0
7, 14477, Pitch_bend_c, 7, 8192
7, 14478, Note_on_c, 7, 65, 84
7, 14478, Pitch_bend_c, 7, 8864
7, 14479, Pitch_bend_c, 7, 8928
7, 14481, Pitch_bend_c, 7, 8896
7, 14482, Pitch_bend_c, 7, 8864
7, 14484, Pitch_bend_c, 7, 8800
7, 14485, Pitch_bend_c, 7, 8768
7, 14487, Pitch_bend_c, 7, 8672
7, 14488, Pitch_bend_c, 7, 8608
7, 14489, Pitch_bend_c, 7, 8384
7, 14491, Note_on_c, 7, 65, 0
7, 14491, Pitch_bend_c, 7, 8768
7, 14512, Pitch_bend_c, 7, 8192
7, 14513, Note_on_c, 7, 70, 95
7, 14513, Pitch_bend_c, 7, 8320
7, 14514, Pitch_bend_c, 7, 8288
7, 14517, Pitch_bend_c, 7, 8320
7, 14518, Pitch_bend_c, 7, 8352
7, 14520, Pitch_bend_c, 7, 8320
7, 14521, Pitch_bend_c, 7, 8256
7, 14522, Pitch_bend_c, 7, 8192
7, 14524, Pitch_bend_c, 7, 8160
7, 14525, Pitch_bend_c, 7, 8064
7, 14527, Pitch_bend_c, 7, 8032
7, 14528, Pitch_bend_c, 7, 7968
7, 14530, Pitch_bend_c, 7, 7904
7, 14531, Pitch_bend_c, 7, 7872
7, 14534, Pitch_bend_c, 7, 7840
7, 14535, Pitch_bend_c, 7, 7872
7, 14538, Pitch_bend_c, 7, 8000
7, 14539, Pitch_bend_c, 7, 8352
7, 14541, Pitch_bend_c, 7, 8896
7, 14542, Pitch_bend_c, 7, 9536
7, 14544, Pitch_bend_c, 7, 10048
7, 14545, Pitch_bend_c, 7, 10272
7, 14548, Pitch_bend_c, 7, 9856
7, 14549, Pitch_bend_c, 7, 7680
7, 14550, Pitch_bend_c, 7, 7712
7, 14553, Pitch_bend_c, 7, 7680
7, 14555, Pitch_bend_c, 7, 7744
7, 14556, Pitch_bend_c, 7, 7808
7, 14557, Pitch_bend_c, 7, 8032
7, 14559, Pitch_bend_c, 7, 8416
7, 14560, Pitch_bend_c, 7, 8768
7, 14562, Pitch_bend_c, 7, 9024
7, 14563, Pitch_bend_c, 7, 8992
7, 14564, Pitch_bend_c, 7, 8640
7, 14566, Pitch_bend_c, 7, 8192
7, 14567, Pitch_bend_c, 7, 7904
7, 14569, Pitch_bend_c, 7, 7744
7, 14570, Pitch_bend_c, 7, 7712
7, 14571, Pitch_bend_c, 7, 7776
7, 14572, Note_on_c, 7, 70, 0
7, 14572, Pitch_bend_c, 7, 8192
7, 14576, Note_on_c, 7, 70, 90
7, 14576, Pitch_bend_c, 7, 8064
7, 14577, Pitch_bend_c, 7, 8256
7, 14579, Pitch_bend_c, 7, 8192
7, 14580, Pitch_bend_c, 7, 8096
7, 14583, Pitch_bend_c, 7, 8032
7, 14586, Pitch_bend_c, 7, 8000
7, 14588, Pitch_bend_c, 7, 7936
7, 14589, Pitch_bend_c, 7, 7840
7, 14590, Pitch_bend_c, 7, 7360
7, 14591, Note_on_c, 7, 70, 0
7, 14591, Pitch_bend_c, 7, 8032
7, 14608, Pitch_bend_c, 7, 8192
7, 14609, Note_on_c, 7, 75, 99
7, 14609, Pitch_bend_c, 7, 8576
7, 14610, Pitch_bend_c, 7, 8352
7, 14612, Pitch_bend_c, 7, 8416
7, 14613, Pitch_bend_c, 7, 8736
7, 14615, Pitch_bend_c, 7, 9184
7, 14616, Pitch_bend_c, 7, 9920
7, 14618, Pitch_bend_c, 7, 12288
7, 14619, Pitch_bend_c, 7, 12480
7, 14621, Pitch_bend_c, 7, 12864
7, 14622, Pitch_bend_c, 7, 13344
7, 14623, Pitch_bend_c, 7, 13952
7, 14625, Pitch_bend_c, 7, 14496
7, 14626, Pitch_bend_c, 7, 14880
7, 14627, Pitch_bend_c, 7, 15200
7, 14629, Pitch_bend_c, 7, 15456
7, 14630, Pitch_bend_c, 7, 15680
7, 14632, Pitch_bend_c, 7, 15840
7, 14633, Pitch_bend_c, 7, 15968
7, 14634, Pitch_bend_c, 7, 16032
7, 14636, Pitch_bend_c, 7, 16064
7, 14637, Pitch_bend_c, 7, 16128
7, 14640, Pitch_bend_c, 7, 16160
7, 14643, Pitch_bend_c, 7, 16224
7, 14644, Pitch_bend_c, 7, 16256
7, 14646, Pitch_bend_c, 7, 16320
7, 14648, Pitch_bend_c, 7, 16383
7, 14649, Note_on_c, 7, 75, 0
7, 14677, Pitch_bend_c, 7, 8192
7, 14678, Note_on_c, 7, 75, 91
7, 14678, Pitch_bend_c, 7, 9344
7, 14679, Pitch_bend_c, 7, 10048
7, 14680, Pitch_bend_c, 7, 10464
7, 14682, Pitch_bend_c, 7, 11040
7, 14683, Pitch_bend_c, 7, 13376
7, 14685, Pitch_bend_c, 7, 13568
7, 14686, Pitch_bend_c, 7, 13920
7, 14687, Pitch_bend_c, 7, 14304
7, 14689, Pitch_bend_c, 7, 14816
7, 14690, Pitch_bend_c, 7, 15200
7, 14691, Pitch_bend_c, 7, 15488
7, 14693, Pitch_bend_c, 7, 15744
7, 14694, Pitch_bend_c, 7, 15872
7, 14696, Pitch_bend_c, 7, 16032
7, 14697, Pitch_bend_c, 7, 16064
7, 14698, Pitch_bend_c, 7, 16160
7, 14700, Pitch_bend_c, 7, 16224
7, 14701, Pitch_bend_c, 7, 16256
7, 14703, Pitch_bend_c, 7, 16320
7, 14727, Pitch_bend_c, 7, 16256
7, 14728, Pitch_bend_c, 7, 16320
7, 14742, Pitch_bend_c, 7, 16256
7, 14762, Pitch_bend_c, 7, 16224
7, 14777, Pitch_bend_c, 7, 16160
7, 14782, Pitch_bend_c, 7, 16224
7, 14788, Pitch_bend_c, 7, 16160
7, 14806, Pitch_bend_c, 7, 16128
7, 14817, Pitch_bend_c, 7, 16064
7, 14836, Pitch_bend_c, 7, 16032
7, 14844, Pitch_bend_c, 7, 15968
7, 14846, Note_on_c, 7, 75, 0
7, 14846, Pitch_bend_c, 7, 16160
7, 14888, Pitch_bend_c, 7, 8192
7, 14888, Note_on_c, 7, 70, 82
7, 14889, Pitch_bend_c, 7, 8128
7, 14891, Pitch_bend_c, 7, 8160
7, 14892, Pitch_bend_c, 7, 8128
7, 14894, Pitch_bend_c, 7, 8096
7, 14895, Pitch_bend_c, 7, 8032
7, 14896, Pitch_bend_c, 7, 7936
7, 14898, Pitch_bend_c, 7, 7840
7, 14899, Pitch_bend_c, 7, 7776
7, 14901, Pitch_bend_c, 7, 8032
7, 14902, Note_on_c, 7, 70, 0
7, 14906, Pitch_bend_c, 7, 8192
7, 14907, Note_on_c, 7, 73, 89
7, 14907, Pitch_bend_c, 7, 8704
7, 14908, Pitch_bend_c, 7, 8384
7, 14912, Pitch_bend_c, 7, 8352
7, 14914, Pitch_bend_c, 7, 8256
7, 14918, Pitch_bend_c, 7, 8224
7, 14920, Pitch_bend_c, 7, 8192
7, 14922, Note_on_c, 7, 73, 0
7, 14922, Pitch_bend_c, 7, 8384
7, 14929, Pitch_bend_c, 7, 8192
7, 14930, Note_on_c, 7, 75, 89
7, 14930, Pitch_bend_c, 7, 8416
7, 14934, Pitch_bend_c, 7, 8352
7, 14935, Pitch_bend_c, 7, 8192
7, 14937, Pitch_bend_c, 7, 8064
7, 14941, Pitch_bend_c, 7, 8032
7, 14942, Pitch_bend_c, 7, 8416
7, 14943, Note_on_c, 7, 75, 0
7, 14952, Note_on_c, 7, 75, 89
7, 14952, Pitch_bend_c, 7, 8224
7, 14953, Pitch_bend_c, 7, 8192
7, 14954, Pitch_bend_c, 7, 8320
7, 14955, Pitch_bend_c, 7, 8224
7, 14957, Pitch_bend_c, 7, 8192
7, 14958, Pitch_bend_c, 7, 8160
7, 14963, Pitch_bend_c, 7, 8064
7, 14965, Pitch_bend_c, 7, 8032
7, 14967, Pitch_bend_c, 7, 8064
7, 14968, Pitch_bend_c, 7, 8160
7, 14970, Pitch_bend_c, 7, 8256
7, 14971, Pitch_bend_c, 7, 8480
7, 14972, Pitch_bend_c, 7, 8768
7, 14974, Pitch_bend_c, 7, 9216
7, 14975, Pitch_bend_c, 7, 9760
7, 14977, Pitch_bend_c, 7, 10400
7, 14978, Pitch_bend_c, 7, 11040
7, 14979, Pitch_bend_c, 7, 11552
7, 14981, Pitch_bend_c, 7, 11872
7, 14982, Pitch_bend_c, 7, 12000
7, 14983, Pitch_bend_c, 7, 12032
7, 14985, Pitch_bend_c, 7, 11808
7, 14986, Note_on_c, 7, 75, 0
7, 14986, Pitch_bend_c, 7, 11872
7, 14989, Pitch_bend_c, 7, 8192
7, 14990, Note_on_c, 7, 77, 85
7, 14990, Pitch_bend_c, 7, 8896
7, 14992, Pitch_bend_c, 7, 8832
7, 14994, Pitch_bend_c, 7, 8800
7, 14995, Pitch_bend_c, 7, 8736
7, 14998, Pitch_bend_c, 7, 8672
7, 15001, Pitch_bend_c, 7, 8736
7, 15005, Pitch_bend_c, 7, 8800
7, 15007, Pitch_bend_c, 7, 8832
7, 15009, Note_on_c, 7, 77, 0
7, 15012, Pitch_bend_c, 7, 8192
7, 15013, Note_on_c, 7, 73, 82
7, 15013, Pitch_bend_c, 7, 8128
7, 15017, Pitch_bend_c, 7, 8160
7, 15024, Pitch_bend_c, 7, 8128
7, 15030, Pitch_bend_c, 7, 8064
7, 15034, Pitch_bend_c, 7, 8032
7, 15035, Pitch_bend_c, 7, 8064
7, 15038, Pitch_bend_c, 7, 8032
7, 15039, Pitch_bend_c, 7, 8128
7, 15040, Note_on_c, 7, 73, 0
7, 15042, Pitch_bend_c, 7, 8192
7, 15043, Note_on_c, 7, 70, 53
7, 15043, Pitch_bend_c, 7, 8064
7, 15047, Pitch_bend_c, 7, 8032
7, 15049, Pitch_bend_c, 7, 7968
7, 15050, Pitch_bend_c, 7, 7936
7, 15052, Pitch_bend_c, 7, 7904
7, 15053, Pitch_bend_c, 7, 7872
7, 15054, Pitch_bend_c, 7, 7840
7, 15056, Pitch_bend_c, 7, 7744
7, 15058, Pitch_bend_c, 7, 7904
7, 15060, Pitch_bend_c, 7, 8256
7, 15061, Pitch_bend_c, 7, 8960
7, 15062, Pitch_bend_c, 7, 9696
7, 15064, Pitch_bend_c, 7, 10240
7, 15065, Pitch_bend_c, 7, 10624
7, 15067, Pitch_bend_c, 7, 10464
7, 15068, Pitch_bend_c, 7, 9888
7, 15069, Pitch_bend_c, 7, 7680
7, 15075, Pitch_bend_c, 7, 7648
7, 15077, Pitch_bend_c, 7, 7776
7, 15078, Pitch_bend_c, 7, 7936
7, 15079, Pitch_bend_c, 7, 8096
7, 15081, Pitch_bend_c, 7, 8192
7, 15083, Note_on_c, 7, 70, 0
7, 15094, Note_on_c, 7, 67, 39
7, 15094, Pitch_bend_c, 7, 8288
7, 15097, Pitch_bend_c, 7, 8320
7, 15098, Pitch_bend_c, 7, 8384
7, 15100, Pitch_bend_c, 7, 8416
7, 15101, Pitch_bend_c, 7, 8448
7, 15102, Pitch_bend_c, 7, 8416
7, 15105, Pitch_bend_c, 7, 8384
7, 15107, Pitch_bend_c, 7, 8352
7, 15109, Pitch_bend_c, 7, 8192
7, 15109, Note_on_c, 7, 70, 84
7, 15110, Note_on_c, 7, 67, 0
7, 15110, Pitch_bend_c, 7, 8096
7, 15111, Pitch_bend_c, 7, 8192
7, 15114, Pitch_bend_c, 7, 8160
7, 15115, Pitch_bend_c, 7, 8192
7, 15119, Pitch_bend_c, 7, 8224
7, 15124, Pitch_bend_c, 7, 8416
7, 15125, Note_on_c, 7, 70, 0
7, 15125, Pitch_bend_c, 7, 8640
7, 15132, Note_on_c, 7, 72, 83
7, 15132, Pitch_bend_c, 7, 8448
7, 15134, Pitch_bend_c, 7, 8416
7, 15136, Pitch_bend_c, 7, 8352
7, 15138, Pitch_bend_c, 7, 8320
7, 15140, Pitch_bend_c, 7, 8288
7, 15141, Pitch_bend_c, 7, 8320
7, 15143, Pitch_bend_c, 7, 8512
7, 15144, Pitch_bend_c, 7, 8864
7, 15146, Pitch_bend_c, 7, 9312
7, 15147, Pitch_bend_c, 7, 9824
7, 15148, Pitch_bend_c, 7, 10240
7, 15150, Pitch_bend_c, 7, 10496
7, 15151, Pitch_bend_c, 7, 10656
7, 15152, Pitch_bend_c, 7, 10688
7, 15154, Pitch_bend_c, 7, 10656
7, 15155, Note_on_c, 7, 72, 0
7, 15165, Note_on_c, 7, 72, 59
7, 15165, Pitch_bend_c, 7, 8192
7, 15166, Pitch_bend_c, 7, 8096
7, 15167, Pitch_bend_c, 7, 8128
7, 15170, Pitch_bend_c, 7, 8160
7, 15171, Pitch_bend_c, 7, 8192
7, 15172, Pitch_bend_c, 7, 8256
7, 15174, Pitch_bend_c, 7, 8448
7, 15175, Pitch_bend_c, 7, 8640
7, 15177, Pitch_bend_c, 7, 8832
7, 15178, Pitch_bend_c, 7, 8992
7, 15180, Pitch_bend_c, 7, 9088
7, 15181, Pitch_bend_c, 7, 9120
7, 15182, Pitch_bend_c, 7, 9152
7, 15185, Pitch_bend_c, 7, 9216
7, 15191, Pitch_bend_c, 7, 9248
7, 15192, Pitch_bend_c, 7, 9280
7, 15194, Pitch_bend_c, 7, 9344
7, 15195, Pitch_bend_c, 7, 9472
7, 15196, Pitch_bend_c, 7, 9632
7, 15198, Pitch_bend_c, 7, 9856
7, 15199, Pitch_bend_c, 7, 10048
7, 15200, Pitch_bend_c, 7, 10240
7, 15202, Pitch_bend_c, 7, 10400
7, 15203, Pitch_bend_c, 7, 10464
7, 15205, Pitch_bend_c, 7, 10496
7, 15207, Note_on_c, 7, 72, 0
7, 15211, Note_on_c, 7, 75, 82
7, 15211, Pitch_bend_c, 7, 7936
7, 15212, Pitch_bend_c, 7, 8000
7, 15213, Pitch_bend_c, 7, 8032
7, 15215, Pitch_bend_c, 7, 8000
7, 15216, Pitch_bend_c, 7, 7936
7, 15218, Pitch_bend_c, 7, 7904
7, 15220, Pitch_bend_c, 7, 7936
7, 15226, Pitch_bend_c, 7, 7904
7, 15227, Note_on_c, 7, 75, 0
7, 15227, Pitch_bend_c, 7, 8000
7, 15230, Note_on_c, 7, 77, 88
7, 15230, Pitch_bend_c, 7, 8928
7, 15231, Pitch_bend_c, 7, 8832
7, 15233, Pitch_bend_c, 7, 8896
7, 15235, Pitch_bend_c, 7, 8832
7, 15237, Pitch_bend_c, 7, 8736
7, 15238, Pitch_bend_c, 7, 8672
7, 15240, Pitch_bend_c, 7, 8640
7, 15241, Pitch_bend_c, 7, 8576
7, 15242, Pitch_bend_c, 7, 8544
7, 15243, Pitch_bend_c, 7, 8736
7, 15244, Note_on_c, 7, 77, 0
7, 15250, Pitch_bend_c, 7, 8192
7, 15251, Note_on_c, 7, 72, 85
7, 15251, Pitch_bend_c, 7, 8256
7, 15253, Pitch_bend_c, 7, 8288
7, 15255, Pitch_bend_c, 7, 8224
7, 15258, Pitch_bend_c, 7, 8320
7, 15259, Pitch_bend_c, 7, 8640
7, 15261, Pitch_bend_c, 7, 9216
7, 15262, Pitch_bend_c, 7, 9952
7, 15263, Pitch_bend_c, 7, 10656
7, 15265, Pitch_bend_c, 7, 11104
7, 15266, Pitch_bend_c, 7, 11296
7, 15267, Pitch_bend_c, 7, 11136
7, 15269, Pitch_bend_c, 7, 10944
7, 15270, Note_on_c, 7, 72, 0
7, 15279, Note_on_c, 7, 70, 68
7, 15279, Pitch_bend_c, 7, 8128
7, 15282, Pitch_bend_c, 7, 8160
7, 15284, Pitch_bend_c, 7, 8192
7, 15285, Pitch_bend_c, 7, 8224
7, 15288, Pitch_bend_c, 7, 8192
7, 15289, Pitch_bend_c, 7, 8128
7, 15290, Pitch_bend_c, 7, 8192
7, 15292, Pitch_bend_c, 7, 8672
7, 15293, Pitch_bend_c, 7, 9440
7, 15294, Pitch_bend_c, 7, 10112
7, 15296, Pitch_bend_c, 7, 10400
7, 15297, Pitch_bend_c, 7, 10048
7, 15299, Pitch_bend_c, 7, 9344
7, 15300, Pitch_bend_c, 7, 8576
7, 15302, Pitch_bend_c, 7, 8096
7, 15303, Pitch_bend_c, 7, 7904
7, 15305, Pitch_bend_c, 7, 7968
7, 15306, Pitch_bend_c, 7, 8192
7, 15307, Pitch_bend_c, 7, 8640
7, 15309, Pitch_bend_c, 7, 9088
7, 15310, Pitch_bend_c, 7, 9472
7, 15311, Pitch_bend_c, 7, 9664
7, 15313, Pitch_bend_c, 7, 9632
7, 15315, Pitch_bend_c, 7, 9568
7, 15316, Note_on_c, 7, 70, 0
7, 15316, Pitch_bend_c, 7, 9472
7, 15319, Note_on_c, 7, 67, 48
7, 15319, Pitch_bend_c, 7, 8448
7, 15320, Pitch_bend_c, 7, 8480
7, 15322, Pitch_bend_c, 7, 8544
7, 15323, Pitch_bend_c, 7, 8576
7, 15325, Pitch_bend_c, 7, 8608
7, 15329, Pitch_bend_c, 7, 8576
7, 15330, Pitch_bend_c, 7, 8544
7, 15332, Pitch_bend_c, 7, 8512
7, 15333, Note_on_c, 7, 67, 0
7, 15333, Pitch_bend_c, 7, 8608
7, 15336, Pitch_bend_c, 7, 8192
7, 15337, Note_on_c, 7, 70, 81
7, 15337, Pitch_bend_c, 7, 8000
7, 15338, Pitch_bend_c, 7, 7936
7, 15340, Pitch_bend_c, 7, 7968
7, 15341, Pitch_bend_c, 7, 8000
7, 15342, Pitch_bend_c, 7, 8032
7, 15344, Pitch_bend_c, 7, 8064
7, 15345, Pitch_bend_c, 7, 8096
7, 15347, Pitch_bend_c, 7, 8128
7, 15348, Pitch_bend_c, 7, 8160
7, 15349, Pitch_bend_c, 7, 8192
7, 15351, Pitch_bend_c, 7, 8224
7, 15352, Note_on_c, 7, 70, 0
7, 15364, Note_on_c, 7, 73, 73
7, 15364, Pitch_bend_c, 7, 8448
7, 15366, Pitch_bend_c, 7, 8416
7, 15367, Pitch_bend_c, 7, 8352
7, 15370, Pitch_bend_c, 7, 8288
7, 15371, Pitch_bend_c, 7, 8256
7, 15372, Pitch_bend_c, 7, 8288
7, 15374, Pitch_bend_c, 7, 8384
7, 15375, Pitch_bend_c, 7, 8512
7, 15377, Pitch_bend_c, 7, 8704
7, 15378, Pitch_bend_c, 7, 8928
7, 15379, Pitch_bend_c, 7, 9184
7, 15381, Pitch_bend_c, 7, 9440
7, 15382, Pitch_bend_c, 7, 9632
7, 15384, Pitch_bend_c, 7, 9952
7, 15385, Pitch_bend_c, 7, 10368
7, 15386, Pitch_bend_c, 7, 10880
7, 15388, Pitch_bend_c, 7, 11392
7, 15389, Pitch_bend_c, 7, 11808
7, 15391, Pitch_bend_c, 7, 12064
7, 15392, Note_on_c, 7, 73, 0
7, 15392, Pitch_bend_c, 7, 12160
7, 15402, Note_on_c, 7, 73, 69
7, 15402, Pitch_bend_c, 7, 8256
7, 15404, Pitch_bend_c, 7, 8288
7, 15406, Pitch_bend_c, 7, 8384
7, 15408, Pitch_bend_c, 7, 8448
7, 15409, Pitch_bend_c, 7, 8576
7, 15411, Pitch_bend_c, 7, 8672
7, 15412, Pitch_bend_c, 7, 8736
7, 15414, Pitch_bend_c, 7, 8768
7, 15415, Pitch_bend_c, 7, 8864
7, 15417, Pitch_bend_c, 7, 8896
7, 15418, Pitch_bend_c, 7, 9024
7, 15419, Pitch_bend_c, 7, 9120
7, 15421, Pitch_bend_c, 7, 9184
7, 15422, Pitch_bend_c, 7, 9280
7, 15424, Pitch_bend_c, 7, 9312
7, 15425, Pitch_bend_c, 7, 9344
7, 15428, Pitch_bend_c, 7, 9376
7, 15429, Pitch_bend_c, 7, 9440
7, 15430, Pitch_bend_c, 7, 9472
7, 15433, Pitch_bend_c, 7, 9504
7, 15435, Pitch_bend_c, 7, 9536
7, 15436, Pitch_bend_c, 7, 9632
7, 15437, Pitch_bend_c, 7, 9760
7, 15439, Pitch_bend_c, 7, 9920
7, 15440, Pitch_bend_c, 7, 10144
7, 15442, Pitch_bend_c, 7, 10528
7, 15443, Pitch_bend_c, 7, 10976
7, 15444, Pitch_bend_c, 7, 11392
7, 15446, Pitch_bend_c, 7, 11808
7, 15448, Pitch_bend_c, 7, 12064
7, 15449, Pitch_bend_c, 7, 12160
7, 15450, Pitch_bend_c, 7, 12128
7, 15452, Pitch_bend_c, 7, 11808
7, 15453, Pitch_bend_c, 7, 12064
7, 15454, Note_on_c, 7, 73, 0
7, 15473, Pitch_bend_c, 7, 8192
7, 15474, Pitch_bend_c, 7, 8384
7, 15477, Pitch_bend_c, 7, 8416
7, 15478, Note_on_c, 7, 76, 78
7, 15478, Pitch_bend_c, 7, 8480
7, 15480, Pitch_bend_c, 7, 8576
7, 15481, Pitch_bend_c, 7, 8672
7, 15482, Pitch_bend_c, 7, 8800
7, 15484, Pitch_bend_c, 7, 9056
7, 15485, Pitch_bend_c, 7, 9440
7, 15487, Pitch_bend_c, 7, 9952
7, 15488, Pitch_bend_c, 7, 10592
7, 15489, Pitch_bend_c, 7, 11168
7, 15491, Pitch_bend_c, 7, 11648
7, 15492, Pitch_bend_c, 7, 11872
7, 15493, Pitch_bend_c, 7, 11968
7, 15495, Pitch_bend_c, 7, 12032
7, 15502, Pitch_bend_c, 7, 11968
7, 15508, Pitch_bend_c, 7, 11936
7, 15527, Pitch_bend_c, 7, 11968
7, 15528, Pitch_bend_c, 7, 12064
7, 15530, Pitch_bend_c, 7, 12160
7, 15531, Pitch_bend_c, 7, 12320
7, 15532, Pitch_bend_c, 7, 12384
7, 15534, Pitch_bend_c, 7, 12416
7, 15535, Pitch_bend_c, 7, 12320
7, 15537, Pitch_bend_c, 7, 12224
7, 15538, Pitch_bend_c, 7, 12032
7, 15540, Pitch_bend_c, 7, 11872
7, 15541, Pitch_bend_c, 7, 11744
7, 15542, Pitch_bend_c, 7, 11680
7, 15545, Pitch_bend_c, 7, 11936
7, 15547, Pitch_bend_c, 7, 12384
7, 15548, Pitch_bend_c, 7, 12992
7, 15550, Pitch_bend_c, 7, 13536
7, 15551, Pitch_bend_c, 7, 13888
7, 15552, Pitch_bend_c, 7, 14048
7, 15554, Pitch_bend_c, 7, 13952
7, 15555, Pitch_bend_c, 7, 13344
7, 15557, Pitch_bend_c, 7, 10720
7, 15560, Pitch_bend_c, 7, 10688
7, 15562, Pitch_bend_c, 7, 10784
7, 15563, Pitch_bend_c, 7, 11264
7, 15565, Pitch_bend_c, 7, 11936
7, 15566, Pitch_bend_c, 7, 12736
7, 15568, Pitch_bend_c, 7, 13376
7, 15569, Pitch_bend_c, 7, 13632
7, 15570, Pitch_bend_c, 7, 13504
7, 15572, Pitch_bend_c, 7, 11008
7, 15573, Pitch_bend_c, 7, 13376
7, 15577, Note_on_c, 7, 76, 0
7, 15603, Pitch_bend_c, 7, 8192
7, 15604, Note_on_c, 7, 65, 87
7, 15604, Pitch_bend_c, 7, 8160
7, 15605, Pitch_bend_c, 7, 8544
7, 15606, Pitch_bend_c, 7, 8608
7, 15613, Pitch_bend_c, 7, 8576
7, 15615, Pitch_bend_c, 7, 8832
7, 15616, Pitch_bend_c, 7, 9088
7, 15617, Note_on_c, 7, 65, 0
7, 15618, Pitch_bend_c, 7, 8192
7, 15618, Note_on_c, 7, 68, 75
7, 15619, Pitch_bend_c, 7, 8512
7, 15624, Pitch_bend_c, 7, 8544
7, 15625, Pitch_bend_c, 7, 8576
7, 15627, Pitch_bend_c, 7, 8608
7, 15628, Pitch_bend_c, 7, 8480
7, 15629, Pitch_bend_c, 7, 8224
7, 15630, Note_on_c, 7, 68, 0
7, 15630, Pitch_bend_c, 7, 8544
7, 15635, Note_on_c, 7, 72, 80
7, 15635, Pitch_bend_c, 7, 8128
7, 15644, Pitch_bend_c, 7, 8032
7, 15645, Note_on_c, 7, 72, 0
7, 15648, Pitch_bend_c, 7, 8192
7, 15649, Note_on_c, 7, 70, 85
7, 15650, Pitch_bend_c, 7, 7968
7, 15652, Pitch_bend_c, 7, 7936
7, 15654, Pitch_bend_c, 7, 16032
7, 15655, Pitch_bend_c, 7, 16064
7, 15656, Pitch_bend_c, 7, 16160
7, 15658, Pitch_bend_c, 7, 16352
7, 15661, Pitch_bend_c, 7, 8096
7, 15662, Pitch_bend_c, 7, 8128
7, 15663, Pitch_bend_c, 7, 8160
7, 15667, Pitch_bend_c, 7, 8128
7, 15673, Pitch_bend_c, 7, 8096
7, 15674, Pitch_bend_c, 7, 8064
7, 15677, Note_on_c, 7, 70, 0
7, 15677, Pitch_bend_c, 7, 8192
7, 15678, Note_on_c, 7, 67, 65
7, 15690, Note_on_c, 7, 67, 0
7, 15690, Note_on_c, 7, 70, 87
7, 15690, Pitch_bend_c, 7, 8032
7, 15691, Pitch_bend_c, 7, 8192
7, 15693, Pitch_bend_c, 7, 8128
7, 15695, Pitch_bend_c, 7, 8064
7, 15696, Pitch_bend_c, 7, 8000
7, 15699, Pitch_bend_c, 7, 8032
7, 15700, Pitch_bend_c, 7, 8000
7, 15702, Pitch_bend_c, 7, 8032
7, 15703, Pitch_bend_c, 7, 8000
7, 15706, Pitch_bend_c, 7, 8032
7, 15707, Pitch_bend_c, 7, 8000
7, 15708, Note_on_c, 7, 70, 0
7, 15710, Pitch_bend_c, 7, 8192
7, 15711, Note_on_c, 7, 70, 87
7, 15712, Pitch_bend_c, 7, 8256
7, 15715, Pitch_bend_c, 7, 8224
7, 15716, Pitch_bend_c, 7, 8160
7, 15718, Pitch_bend_c, 7, 8064
7, 15719, Pitch_bend_c, 7, 8032
7, 15720, Pitch_bend_c, 7, 8000
7, 15723, Pitch_bend_c, 7, 8032
7, 15725, Pitch_bend_c, 7, 8000
7, 15726, Pitch_bend_c, 7, 7968
7, 15727, Pitch_bend_c, 7, 7936
7, 15730, Pitch_bend_c, 7, 7904
7, 15733, Pitch_bend_c, 7, 7872
7, 15734, Pitch_bend_c, 7, 8000
7, 15735, Note_on_c, 7, 70, 0
7, 15750, Note_on_c, 7, 73, 91
7, 15750, Pitch_bend_c, 7, 8224
7, 15754, Pitch_bend_c, 7, 8192
7, 15755, Pitch_bend_c, 7, 8032
7, 15756, Pitch_bend_c, 7, 7968
7, 15758, Pitch_bend_c, 7, 7840
7, 15759, Pitch_bend_c, 7, 7744
7, 15760, Pitch_bend_c, 7, 7776
7, 15762, Pitch_bend_c, 7, 7840
7, 15763, Pitch_bend_c, 7, 7936
7, 15764, Pitch_bend_c, 7, 8032
7, 15766, Pitch_bend_c, 7, 8064
7, 15771, Pitch_bend_c, 7, 8128
7, 15773, Pitch_bend_c, 7, 8064
7, 15776, Pitch_bend_c, 7, 8128
7, 15778, Pitch_bend_c, 7, 8160
7, 15781, Pitch_bend_c, 7, 8192
7, 15786, Pitch_bend_c, 7, 8224
7, 15788, Pitch_bend_c, 7, 8256
7, 15790, Pitch_bend_c, 7, 8288
7, 15791, Pitch_bend_c, 7, 8384
7, 15793, Pitch_bend_c, 7, 8416
7, 15794, Pitch_bend_c, 7, 8448
7, 15795, Pitch_bend_c, 7, 8512
7, 15798, Pitch_bend_c, 7, 8544
7, 15800, Pitch_bend_c, 7, 8576
7, 15801, Pitch_bend_c, 7, 8608
7, 15802, Pitch_bend_c, 7, 8704
7, 15804, Pitch_bend_c, 7, 8832
7, 15805, Pitch_bend_c, 7, 8992
7, 15807, Pitch_bend_c, 7, 9184
7, 15808, Pitch_bend_c, 7, 9600
7, 15810, Pitch_bend_c, 7, 10112
7, 15811, Pitch_bend_c, 7, 10752
7, 15812, Pitch_bend_c, 7, 11456
7, 15814, Pitch_bend_c, 7, 12000
7, 15815, Pitch_bend_c, 7, 12416
7, 15817, Pitch_bend_c, 7, 12640
7, 15818, Pitch_bend_c, 7, 12608
7, 15819, Note_on_c, 7, 73, 0
7, 15859, Pitch_bend_c, 7, 8192
7, 15860, Note_on_c, 7, 77, 89
7, 15860, Pitch_bend_c, 7, 8096
7, 15861, Pitch_bend_c, 7, 7776
7, 15862, Pitch_bend_c, 7, 7680
7, 15866, Pitch_bend_c, 7, 7776
7, 15867, Pitch_bend_c, 7, 8288
7, 15869, Pitch_bend_c, 7, 10816
7, 15870, Pitch_bend_c, 7, 11072
7, 15871, Pitch_bend_c, 7, 11328
7, 15873, Pitch_bend_c, 7, 11424
7, 15874, Note_on_c, 7, 77, 0
7, 15884, Note_on_c, 7, 77, 89
7, 15884, Pitch_bend_c, 7, 8640
7, 15885, Pitch_bend_c, 7, 8576
7, 15887, Pitch_bend_c, 7, 8544
7, 15890, Pitch_bend_c, 7, 8576
7, 15896, Note_on_c, 7, 77, 0
7, 15900, Note_on_c, 7, 70, 84
7, 15900, Pitch_bend_c, 7, 8480
7, 15901, Pitch_bend_c, 7, 8448
7, 15903, Pitch_bend_c, 7, 8480
7, 15905, Pitch_bend_c, 7, 8512
7, 15907, Pitch_bend_c, 7, 8448
7, 15909, Pitch_bend_c, 7, 8416
7, 15910, Pitch_bend_c, 7, 8384
7, 15912, Pitch_bend_c, 7, 8320
7, 15913, Pitch_bend_c, 7, 8288
7, 15915, Pitch_bend_c, 7, 8256
7, 15921, Pitch_bend_c, 7, 8224
7, 15923, Pitch_bend_c, 7, 8256
7, 15935, Note_on_c, 7, 70, 0
7, 15935, Pitch_bend_c, 7, 8320
7, 15938, Pitch_bend_c, 7, 8192
7, 15938, Note_on_c, 7, 73, 85
7, 15939, Pitch_bend_c, 7, 8000
7, 15947, Pitch_bend_c, 7, 8032
7, 15948, Pitch_bend_c, 7, 8064
7, 15951, Pitch_bend_c, 7, 8128
7, 15952, Pitch_bend_c, 7, 8064
7, 15955, Pitch_bend_c, 7, 8032
7, 15956, Pitch_bend_c, 7, 8000
7, 15958, Pitch_bend_c, 7, 7968
7, 15960, Pitch_bend_c, 7, 8000
7, 15962, Pitch_bend_c, 7, 8064
7, 15963, Pitch_bend_c, 7, 8128
7, 15965, Pitch_bend_c, 7, 8192
7, 15966, Pitch_bend_c, 7, 8224
7, 15967, Pitch_bend_c, 7, 8256
7, 15969, Pitch_bend_c, 7, 8288
7, 15972, Pitch_bend_c, 7, 8352
7, 15976, Pitch_bend_c, 7, 8384
7, 15978, Pitch_bend_c, 7, 8416
7, 15980, Pitch_bend_c, 7, 8448
7, 15982, Pitch_bend_c, 7, 8512
7, 15983, Pitch_bend_c, 7, 8576
7, 15985, Pitch_bend_c, 7, 8672
7, 15986, Pitch_bend_c, 7, 8768
7, 15987, Pitch_bend_c, 7, 8928
7, 15988, Pitch_bend_c, 7, 9152
7, 15990, Pitch_bend_c, 7, 9376
7, 15992, Pitch_bend_c, 7, 9664
7, 15993, Pitch_bend_c, 7, 10048
7, 15994, Pitch_bend_c, 7, 10400
7, 15996, Pitch_bend_c, 7, 10720
7, 15997, Pitch_bend_c, 7, 10976
7, 15998, Pitch_bend_c, 7, 11072
7, 16001, Note_on_c, 7, 73, 0
7, 16110, Pitch_bend_c, 7, 8192
7, 16111, Note_on_c, 7, 70, 89
7, 16111, Pitch_bend_c, 7, 8512
7, 16112, Pitch_bend_c, 7, 8352
7, 16113, Pitch_bend_c, 7, 8224
7, 16114, Pitch_bend_c, 7, 8192
7, 16116, Pitch_bend_c, 7, 8128
7, 16118, Pitch_bend_c, 7, 8160
7, 16119, Pitch_bend_c, 7, 8192
7, 16120, Note_on_c, 7, 70, 0
7, 16145, Note_on_c, 7, 80, 113
7, 16146, Pitch_bend_c, 7, 4896
7, 16148, Pitch_bend_c, 7, 4768
7, 16149, Pitch_bend_c, 7, 4672
7, 16150, Pitch_bend_c, 7, 4704
7, 16151, Pitch_bend_c, 7, 4928
7, 16152, Pitch_bend_c, 7, 5216
7, 16153, Pitch_bend_c, 7, 5696
7, 16154, Pitch_bend_c, 7, 6368
7, 16155, Pitch_bend_c, 7, 7008
7, 16157, Pitch_bend_c, 7, 7648
7, 16158, Pitch_bend_c, 7, 8096
7, 16159, Pitch_bend_c, 7, 8416
7, 16161, Pitch_bend_c, 7, 8736
7, 16162, Pitch_bend_c, 7, 8896
7, 16163, Pitch_bend_c, 7, 8960
7, 16164, Pitch_bend_c, 7, 9088
7, 16165, Pitch_bend_c, 7, 9152
7, 16166, Pitch_bend_c, 7, 9216
7, 16167, Pitch_bend_c, 7, 9280
7, 16178, Pitch_bend_c, 7, 9216
7, 16181, Pitch_bend_c, 7, 9152
7, 16183, Pitch_bend_c, 7, 9216
7, 16190, Pitch_bend_c, 7, 9152
7, 16191, Pitch_bend_c, 7, 9088
7, 16192, Pitch_bend_c, 7, 9024
7, 16194, Pitch_bend_c, 7, 8960
7, 16195, Pitch_bend_c, 7, 8896
7, 16197, Pitch_bend_c, 7, 8832
7, 16198, Pitch_bend_c, 7, 8768
7, 16201, Pitch_bend_c, 7, 8736
7, 16202, Pitch_bend_c, 7, 8672
7, 16203, Pitch_bend_c, 7, 8608
7, 16204, Pitch_bend_c, 7, 8544
7, 16205, Pitch_bend_c, 7, 8416
7, 16206, Pitch_bend_c, 7, 8288
7, 16207, Pitch_bend_c, 7, 8192
7, 16209, Pitch_bend_c, 7, 8032
7, 16210, Pitch_bend_c, 7, 7808
7, 16211, Pitch_bend_c, 7, 7392
7, 16212, Pitch_bend_c, 7, 7008
7, 16213, Pitch_bend_c, 7, 6560
7, 16214, Pitch_bend_c, 7, 6144
7, 16215, Pitch_bend_c, 7, 5792
7, 16217, Pitch_bend_c, 7, 5504
7, 16218, Pitch_bend_c, 7, 5216
7, 16219, Pitch_bend_c, 7, 4992
7, 16220, Pitch_bend_c, 7, 4832
7, 16221, Pitch_bend_c, 7, 4704
7, 16223, Pitch_bend_c, 7, 4672
7, 16230, Pitch_bend_c, 7, 4608
7, 16232, Note_on_c, 7, 80, 0
7, 16232, Pitch_bend_c, 7, 4832
7, 16236, Pitch_bend_c, 7, 8192
7, 16237, Note_on_c, 7, 77, 89
7, 16237, Pitch_bend_c, 7, 9088
7, 16238, Pitch_bend_c, 7, 8992
7, 16240, Pitch_bend_c, 7, 9056
7, 16242, Pitch_bend_c, 7, 8992
7, 16243, Pitch_bend_c, 7, 8928
7, 16245, Pitch_bend_c, 7, 8896
7, 16248, Pitch_bend_c, 7, 8928
7, 16249, Pitch_bend_c, 7, 8992
7, 16252, Note_on_c, 7, 77, 0
7, 16252, Pitch_bend_c, 7, 9056
7, 16257, Pitch_bend_c, 7, 8192
7, 16258, Note_on_c, 7, 75, 89
7, 16258, Pitch_bend_c, 7, 8864
7, 16261, Pitch_bend_c, 7, 8800
7, 16263, Pitch_bend_c, 7, 8768
7, 16264, Pitch_bend_c, 7, 8672
7, 16265, Pitch_bend_c, 7, 8640
7, 16266, Pitch_bend_c, 7, 8576
7, 16267, Pitch_bend_c, 7, 8544
7, 16271, Note_on_c, 7, 75, 0
7, 16271, Pitch_bend_c, 7, 8672
7, 16277, Note_on_c, 7, 76, 89
7, 16277, Pitch_bend_c, 7, 8192
7, 16278, Pitch_bend_c, 7, 12896
7, 16279, Pitch_bend_c, 7, 12832
7, 16281, Pitch_bend_c, 7, 12896
7, 16284, Pitch_bend_c, 7, 12768
7, 16285, Pitch_bend_c, 7, 12672
7, 16286, Pitch_bend_c, 7, 12480
7, 16288, Pitch_bend_c, 7, 12288
7, 16289, Pitch_bend_c, 7, 12064
7, 16290, Pitch_bend_c, 7, 11936
7, 16291, Pitch_bend_c, 7, 11776
7, 16292, Pitch_bend_c, 7, 11744
7, 16293, Pitch_bend_c, 7, 11680
7, 16295, Note_on_c, 7, 76, 0
7, 16295, Pitch_bend_c, 7, 12064
7, 16297, Pitch_bend_c, 7, 8192
7, 16298, Note_on_c, 7, 73, 92
7, 16298, Pitch_bend_c, 7, 8160
7, 16299, Pitch_bend_c, 7, 8032
7, 16300, Pitch_bend_c, 7, 8064
7, 16301, Pitch_bend_c, 7, 8128
7, 16303, Pitch_bend_c, 7, 8064
7, 16305, Pitch_bend_c, 7, 8000
7, 16307, Pitch_bend_c, 7, 8064
7, 16309, Pitch_bend_c, 7, 8224
7, 16310, Pitch_bend_c, 7, 8416
7, 16311, Pitch_bend_c, 7, 8576
7, 16312, Pitch_bend_c, 7, 8704
7, 16313, Pitch_bend_c, 7, 8832
7, 16314, Pitch_bend_c, 7, 8896
7, 16315, Pitch_bend_c, 7, 8992
7, 16316, Pitch_bend_c, 7, 9120
7, 16318, Pitch_bend_c, 7, 9184
7, 16319, Pitch_bend_c, 7, 9280
7, 16320, Pitch_bend_c, 7, 9344
7, 16321, Pitch_bend_c, 7, 9472
7, 16322, Pitch_bend_c, 7, 9632
7, 16323, Pitch_bend_c, 7, 9824
7, 16324, Pitch_bend_c, 7, 10080
7, 16326, Pitch_bend_c, 7, 10304
7, 16327, Pitch_bend_c, 7, 10592
7, 16328, Pitch_bend_c, 7, 10880
7, 16329, Pitch_bend_c, 7, 11136
7, 16330, Pitch_bend_c, 7, 11296
7, 16331, Pitch_bend_c, 7, 11392
7, 16332, Pitch_bend_c, 7, 11488
7, 16335, Pitch_bend_c, 7, 11456
7, 16336, Pitch_bend_c, 7, 11296
7, 16337, Pitch_bend_c, 7, 10752
7, 16338, Pitch_bend_c, 7, 10112
7, 16339, Note_on_c, 7, 73, 0
7, 16339, Note_on_c, 7, 75, 87
7, 16339, Pitch_bend_c, 7, 8992
7, 16341, Pitch_bend_c, 7, 8896
7, 16342, Pitch_bend_c, 7, 8576
7, 16344, Pitch_bend_c, 7, 8448
7, 16345, Pitch_bend_c, 7, 8256
7, 16346, Pitch_bend_c, 7, 8224
7, 16347, Pitch_bend_c, 7, 8448
7, 16348, Pitch_bend_c, 7, 8480
7, 16349, Pitch_bend_c, 7, 8448
7, 16351, Pitch_bend_c, 7, 8640
7, 16352, Pitch_bend_c, 7, 8768
7, 16353, Note_on_c, 7, 75, 0
7, 16353, Pitch_bend_c, 7, 8960
7, 16355, Pitch_bend_c, 7, 8192
7, 16356, Note_on_c, 7, 77, 88
7, 16356, Pitch_bend_c, 7, 9184
7, 16359, Pitch_bend_c, 7, 9088
7, 16362, Pitch_bend_c, 7, 9056
7, 16363, Pitch_bend_c, 7, 8992
7, 16364, Pitch_bend_c, 7, 8896
7, 16366, Note_on_c, 7, 77, 0
7, 16366, Pitch_bend_c, 7, 9088
7, 16375, Pitch_bend_c, 7, 8192
7, 16377, Note_on_c, 7, 72, 87
7, 16377, Pitch_bend_c, 7, 8416
7, 16383, Pitch_bend_c, 7, 8352
7, 16384, Pitch_bend_c, 7, 8288
7, 16386, Pitch_bend_c, 7, 8224
7, 16389, Pitch_bend_c, 7, 8544
7, 16391, Pitch_bend_c, 7, 12352
7, 16395, Pitch_bend_c, 7, 12320
7, 16397, Pitch_bend_c, 7, 12288
7, 16398, Pitch_bend_c, 7, 8000
7, 16400, Pitch_bend_c, 7, 8096
7, 16401, Pitch_bend_c, 7, 8160
7, 16402, Pitch_bend_c, 7, 8192
7, 16403, Note_on_c, 7, 72, 0
7, 16404, Note_on_c, 7, 69, 63
7, 16404, Pitch_bend_c, 7, 12064
7, 16406, Pitch_bend_c, 7, 12096
7, 16409, Pitch_bend_c, 7, 12128
7, 16410, Pitch_bend_c, 7, 12160
7, 16413, Note_on_c, 7, 69, 0
7, 16416, Pitch_bend_c, 7, 8192
7, 16417, Note_on_c, 7, 72, 87
7, 16417, Pitch_bend_c, 7, 8160
7, 16418, Pitch_bend_c, 7, 8128
7, 16419, Pitch_bend_c, 7, 8096
7, 16420, Pitch_bend_c, 7, 7968
7, 16421, Pitch_bend_c, 7, 7904
7, 16422, Pitch_bend_c, 7, 7840
7, 16427, Pitch_bend_c, 7, 7808
7, 16429, Pitch_bend_c, 7, 7744
7, 16430, Pitch_bend_c, 7, 7712
7, 16431, Pitch_bend_c, 7, 7744
7, 16433, Note_on_c, 7, 72, 0
7, 16433, Pitch_bend_c, 7, 7840
7, 16435, Pitch_bend_c, 7, 8192
7, 16436, Note_on_c, 7, 66, 70
7, 16436, Pitch_bend_c, 7, 11328
7, 16437, Pitch_bend_c, 7, 12288
7, 16442, Pitch_bend_c, 7, 12192
7, 16443, Note_on_c, 7, 66, 0
7, 16443, Pitch_bend_c, 7, 12288
7, 16452, Note_on_c, 7, 72, 87
7, 16452, Pitch_bend_c, 7, 8192
7, 16453, Pitch_bend_c, 7, 8640
7, 16455, Pitch_bend_c, 7, 8608
7, 16456, Pitch_bend_c, 7, 8544
7, 16458, Pitch_bend_c, 7, 8480
7, 16461, Pitch_bend_c, 7, 8448
7, 16463, Pitch_bend_c, 7, 8480
7, 16464, Pitch_bend_c, 7, 8608
7, 16465, Pitch_bend_c, 7, 8736
7, 16466, Pitch_bend_c, 7, 8928
7, 16467, Pitch_bend_c, 7, 9216
7, 16468, Pitch_bend_c, 7, 9440
7, 16469, Pitch_bend_c, 7, 9728
7, 16471, Pitch_bend_c, 7, 10080
7, 16472, Pitch_bend_c, 7, 10528
7, 16473, Pitch_bend_c, 7, 11104
7, 16474, Pitch_bend_c, 7, 11712
7, 16475, Pitch_bend_c, 7, 12288
7, 16476, Pitch_bend_c, 7, 12768
7, 16477, Pitch_bend_c, 7, 13088
7, 16478, Pitch_bend_c, 7, 13312
7, 16480, Pitch_bend_c, 7, 13440
7, 16481, Note_on_c, 7, 72, 0
7, 16481, Pitch_bend_c, 7, 8192
7, 16482, Note_on_c, 7, 77, 87
7, 16487, Note_on_c, 7, 77, 0
7, 16487, Pitch_bend_c, 7, 4768
7, 16496, Pitch_bend_c, 7, 8192
7, 16496, Note_on_c, 7, 70, 86
7, 16497, Pitch_bend_c, 7, 8512
7, 16499, Pitch_bend_c, 7, 8544
7, 16500, Pitch_bend_c, 7, 8512
7, 16502, Pitch_bend_c, 7, 8448
7, 16503, Pitch_bend_c, 7, 8480
7, 16504, Pitch_bend_c, 7, 8448
7, 16507, Pitch_bend_c, 7, 8416
7, 16508, Pitch_bend_c, 7, 8320
7, 16509, Pitch_bend_c, 7, 8256
7, 16510, Pitch_bend_c, 7, 8192
7, 16511, Pitch_bend_c, 7, 8160
7, 16512, Pitch_bend_c, 7, 8096
7, 16513, Pitch_bend_c, 7, 8064
7, 16517, Pitch_bend_c, 7, 8096
7, 16519, Pitch_bend_c, 7, 8064
7, 16523, Pitch_bend_c, 7, 8128
7, 16524, Pitch_bend_c, 7, 8192
7, 16525, Pitch_bend_c, 7, 8320
7, 16526, Pitch_bend_c, 7, 8448
7, 16527, Pitch_bend_c, 7, 8544
7, 16528, Pitch_bend_c, 7, 8576
7, 16529, Pitch_bend_c, 7, 8544
7, 16531, Pitch_bend_c, 7, 8512
7, 16532, Pitch_bend_c, 7, 8448
7, 16533, Pitch_bend_c, 7, 8192
7, 16533, Note_on_c, 7, 75, 86
7, 16540, Note_on_c, 7, 70, 0
7, 16541, Pitch_bend_c, 7, 8000
7, 16542, Note_on_c, 7, 75, 0
7, 16542, Pitch_bend_c, 7, 7616
7, 16558, Note_on_c, 7, 67, 54
7, 16558, Pitch_bend_c, 7, 8416
7, 16560, Pitch_bend_c, 7, 8448
7, 16562, Pitch_bend_c, 7, 8416
7, 16566, Pitch_bend_c, 7, 8384
7, 16570, Pitch_bend_c, 7, 8416
7, 16574, Pitch_bend_c, 7, 8384
7, 16575, Pitch_bend_c, 7, 8352
7, 16576, Pitch_bend_c, 7, 8320
7, 16577, Pitch_bend_c, 7, 8384
7, 16578, Pitch_bend_c, 7, 8544
7, 16579, Pitch_bend_c, 7, 8896
7, 16580, Pitch_bend_c, 7, 9344
7, 16581, Pitch_bend_c, 7, 9792
7, 16583, Pitch_bend_c, 7, 10080
7, 16584, Pitch_bend_c, 7, 10112
7, 16585, Pitch_bend_c, 7, 9856
7, 16586, Pitch_bend_c, 7, 9408
7, 16587, Pitch_bend_c, 7, 8928
7, 16588, Pitch_bend_c, 7, 8512
7, 16589, Pitch_bend_c, 7, 8320
7, 16590, Pitch_bend_c, 7, 8288
7, 16594, Pitch_bend_c, 7, 8448
7, 16595, Pitch_bend_c, 7, 8704
7, 16596, Pitch_bend_c, 7, 9024
7, 16598, Pitch_bend_c, 7, 9440
7, 16599, Pitch_bend_c, 7, 9664
7, 16600, Pitch_bend_c, 7, 9728
7, 16601, Pitch_bend_c, 7, 9536
7, 16602, Pitch_bend_c, 7, 9216
7, 16603, Pitch_bend_c, 7, 8800
7, 16604, Pitch_bend_c, 7, 8448
7, 16605, Pitch_bend_c, 7, 8192
7, 16609, Pitch_bend_c, 7, 8352
7, 16610, Pitch_bend_c, 7, 8736
7, 16611, Pitch_bend_c, 7, 9248
7, 16612, Pitch_bend_c, 7, 9792
7, 16614, Pitch_bend_c, 7, 10208
7, 16615, Pitch_bend_c, 7, 10304
7, 16616, Pitch_bend_c, 7, 10016
7, 16617, Pitch_bend_c, 7, 9440
7, 16618, Pitch_bend_c, 7, 8864
7, 16619, Pitch_bend_c, 7, 8448
7, 16621, Pitch_bend_c, 7, 8192
7, 16624, Pitch_bend_c, 7, 8288
7, 16625, Pitch_bend_c, 7, 8736
7, 16626, Pitch_bend_c, 7, 9344
7, 16627, Pitch_bend_c, 7, 9952
7, 16629, Pitch_bend_c, 7, 10240
7, 16630, Pitch_bend_c, 7, 9984
7, 16631, Pitch_bend_c, 7, 9408
7, 16632, Pitch_bend_c, 7, 8800
7, 16633, Pitch_bend_c, 7, 8128
7, 16634, Pitch_bend_c, 7, 7712
7, 16636, Pitch_bend_c, 7, 7456
7, 16637, Note_on_c, 7, 67, 0
7, 16637, Pitch_bend_c, 7, 8800
7, 16735, Note_on_c, 7, 63, 87
7, 16735, Pitch_bend_c, 7, 8832
7, 16738, Pitch_bend_c, 7, 8800
7, 16739, Pitch_bend_c, 7, 8736
7, 16741, Pitch_bend_c, 7, 8512
7, 16742, Pitch_bend_c, 7, 8448
7, 16743, Pitch_bend_c, 7, 8352
7, 16745, Pitch_bend_c, 7, 8256
7, 16746, Pitch_bend_c, 7, 8320
7, 16747, Pitch_bend_c, 7, 8256
7, 16749, Pitch_bend_c, 7, 8192
7, 16750, Note_on_c, 7, 67, 86
7, 16758, Note_on_c, 7, 63, 0
7, 16760, Pitch_bend_c, 7, 8096
7, 16762, Pitch_bend_c, 7, 8032
7, 16763, Pitch_bend_c, 7, 7840
7, 16764, Pitch_bend_c, 7, 7616
7, 16765, Note_on_c, 7, 67, 0
7, 16765, Note_on_c, 7, 70, 90
7, 16766, Pitch_bend_c, 7, 8064
7, 16769, Pitch_bend_c, 7, 8032
7, 16771, Pitch_bend_c, 7, 8064
7, 16772, Pitch_bend_c, 7, 8096
7, 16774, Pitch_bend_c, 7, 8064
7, 16775, Pitch_bend_c, 7, 8000
7, 16778, Note_on_c, 7, 70, 0
7, 16778, Pitch_bend_c, 7, 8032
7, 16780, Pitch_bend_c, 7, 8192
7, 16781, Note_on_c, 7, 73, 89
7, 16782, Pitch_bend_c, 7, 8416
7, 16783, Pitch_bend_c, 7, 8448
7, 16784, Pitch_bend_c, 7, 8416
7, 16785, Pitch_bend_c, 7, 8448
7, 16787, Pitch_bend_c, 7, 8192
7, 16788, Pitch_bend_c, 7, 8160
7, 16789, Pitch_bend_c, 7, 8128
7, 16791, Pitch_bend_c, 7, 8032
7, 16795, Pitch_bend_c, 7, 8064
7, 16798, Pitch_bend_c, 7, 8128
7, 16799, Pitch_bend_c, 7, 8064
7, 16800, Pitch_bend_c, 7, 8000
7, 16803, Pitch_bend_c, 7, 8032
7, 16805, Pitch_bend_c, 7, 8128
7, 16806, Pitch_bend_c, 7, 8608
7, 16807, Pitch_bend_c, 7, 11168
7, 16809, Pitch_bend_c, 7, 11488
7, 16810, Pitch_bend_c, 7, 11936
7, 16812, Pitch_bend_c, 7, 12480
7, 16813, Pitch_bend_c, 7, 13056
7, 16815, Pitch_bend_c, 7, 13312
7, 16816, Pitch_bend_c, 7, 13408
7, 16818, Pitch_bend_c, 7, 13152
7, 16819, Pitch_bend_c, 7, 10400
7, 16820, Pitch_bend_c, 7, 10080
7, 16822, Note_on_c, 7, 73, 0
7, 16822, Pitch_bend_c, 7, 9632
7, 16824, Note_on_c, 7, 74, 89
7, 16824, Pitch_bend_c, 7, 12576
7, 16825, Pitch_bend_c, 7, 12768
7, 16829, Pitch_bend_c, 7, 12736
7, 16830, Pitch_bend_c, 7, 12672
7, 16831, Pitch_bend_c, 7, 12640
7, 16833, Pitch_bend_c, 7, 12544
7, 16839, Pitch_bend_c, 7, 12768
7, 16840, Note_on_c, 7, 74, 0
7, 16841, Pitch_bend_c, 7, 8192
7, 16842, Note_on_c, 7, 75, 89
7, 16842, Pitch_bend_c, 7, 8576
7, 16849, Pitch_bend_c, 7, 8544
7, 16851, Pitch_bend_c, 7, 8576
7, 16855, Pitch_bend_c, 7, 8640
7, 16862, Pitch_bend_c, 7, 8576
7, 16864, Pitch_bend_c, 7, 8640
7, 16866, Pitch_bend_c, 7, 8672
7, 16869, Pitch_bend_c, 7, 8736
7, 16873, Pitch_bend_c, 7, 8800
7, 16875, Pitch_bend_c, 7, 9056
7, 16876, Pitch_bend_c, 7, 9408
7, 16878, Pitch_bend_c, 7, 9984
7, 16879, Pitch_bend_c, 7, 10720
7, 16880, Pitch_bend_c, 7, 11456
7, 16882, Pitch_bend_c, 7, 12128
7, 16883, Pitch_bend_c, 7, 12672
7, 16884, Pitch_bend_c, 7, 12992
7, 16886, Pitch_bend_c, 7, 13152
7, 16887, Pitch_bend_c, 7, 13280
7, 16889, Pitch_bend_c, 7, 13344
7, 16890, Pitch_bend_c, 7, 13376
7, 16891, Pitch_bend_c, 7, 13440
7, 16893, Pitch_bend_c, 7, 13472
7, 16898, Pitch_bend_c, 7, 13440
7, 16900, Pitch_bend_c, 7, 13344
7, 16901, Pitch_bend_c, 7, 12896
7, 16903, Pitch_bend_c, 7, 10592
7, 16904, Pitch_bend_c, 7, 10400
7, 16906, Pitch_bend_c, 7, 10080
7, 16907, Pitch_bend_c, 7, 9728
7, 16908, Pitch_bend_c, 7, 9280
7, 16910, Pitch_bend_c, 7, 8992
7, 16911, Pitch_bend_c, 7, 8800
7, 16913, Pitch_bend_c, 7, 8672
7, 16914, Pitch_bend_c, 7, 8640
7, 16915, Pitch_bend_c, 7, 8576
7, 16917, Note_on_c, 7, 75, 0
7, 16917, Pitch_bend_c, 7, 8992
7, 16919, Pitch_bend_c, 7, 8192
7, 16920, Note_on_c, 7, 75, 83
7, 16920, Pitch_bend_c, 7, 8576
7, 16924, Pitch_bend_c, 7, 8544
7, 16934, Note_on_c, 7, 75, 0
7, 16934, Pitch_bend_c, 7, 8992
7, 16935, Pitch_bend_c, 7, 8192
7, 16936, Note_on_c, 7, 75, 89
7, 16937, Pitch_bend_c, 7, 8960
7, 16938, Pitch_bend_c, 7, 8672
7, 16939, Pitch_bend_c, 7, 8640
7, 16941, Pitch_bend_c, 7, 8576
7, 16942, Pitch_bend_c, 7, 8544
7, 16943, Pitch_bend_c, 7, 8480
7, 16945, Pitch_bend_c, 7, 8448
7, 16946, Pitch_bend_c, 7, 8416
7, 16948, Note_on_c, 7, 75, 0
7, 16948, Pitch_bend_c, 7, 8576
7, 16952, Pitch_bend_c, 7, 8192
7, 16953, Note_on_c, 7, 73, 89
7, 16953, Pitch_bend_c, 7, 9344
7, 16954, Pitch_bend_c, 7, 8608
7, 16957, Pitch_bend_c, 7, 8672
7, 16960, Pitch_bend_c, 7, 8704
7, 16962, Pitch_bend_c, 7, 8672
7, 16964, Pitch_bend_c, 7, 8608
7, 16965, Pitch_bend_c, 7, 8544
7, 16967, Pitch_bend_c, 7, 8448
7, 16968, Pitch_bend_c, 7, 8384
7, 16969, Pitch_bend_c, 7, 8352
7, 16971, Pitch_bend_c, 7, 8288
7, 16972, Pitch_bend_c, 7, 8352
7, 16974, Pitch_bend_c, 7, 8416
7, 16975, Pitch_bend_c, 7, 8576
7, 16976, Pitch_bend_c, 7, 8768
7, 16978, Pitch_bend_c, 7, 9024
7, 16979, Pitch_bend_c, 7, 9344
7, 16981, Pitch_bend_c, 7, 9792
7, 16982, Pitch_bend_c, 7, 10368
7, 16983, Pitch_bend_c, 7, 11040
7, 16985, Pitch_bend_c, 7, 11808
7, 16986, Pitch_bend_c, 7, 12608
7, 16988, Pitch_bend_c, 7, 13280
7, 16989, Pitch_bend_c, 7, 13792
7, 16990, Pitch_bend_c, 7, 14048
7, 16992, Pitch_bend_c, 7, 14144
7, 16993, Pitch_bend_c, 7, 14048
7, 16995, Pitch_bend_c, 7, 13536
7, 16997, Pitch_bend_c, 7, 10304
7, 16998, Pitch_bend_c, 7, 10048
7, 16999, Pitch_bend_c, 7, 9696
7, 17000, Pitch_bend_c, 7, 9344
7, 17002, Pitch_bend_c, 7, 9024
7, 17003, Pitch_bend_c, 7, 8992
7, 17005, Pitch_bend_c, 7, 9120
7, 17006, Pitch_bend_c, 7, 9376
7, 17008, Pitch_bend_c, 7, 9984
7, 17009, Pitch_bend_c, 7, 12736
7, 17010, Pitch_bend_c, 7, 12928
7, 17012, Pitch_bend_c, 7, 13248
7, 17013, Pitch_bend_c, 7, 13536
7, 17014, Pitch_bend_c, 7, 13888
7, 17016, Pitch_bend_c, 7, 13952
7, 17017, Pitch_bend_c, 7, 13760
7, 17019, Pitch_bend_c, 7, 10592
7, 17020, Pitch_bend_c, 7, 10272
7, 17021, Pitch_bend_c, 7, 9856
7, 17023, Pitch_bend_c, 7, 9440
7, 17024, Pitch_bend_c, 7, 9056
7, 17026, Pitch_bend_c, 7, 9344
7, 17027, Pitch_bend_c, 7, 11776
7, 17028, Pitch_bend_c, 7, 12000
7, 17030, Pitch_bend_c, 7, 12384
7, 17031, Pitch_bend_c, 7, 12864
7, 17032, Pitch_bend_c, 7, 13280
7, 17034, Pitch_bend_c, 7, 13440
7, 17035, Pitch_bend_c, 7, 13312
7, 17037, Pitch_bend_c, 7, 10592
7, 17038, Pitch_bend_c, 7, 10208
7, 17039, Pitch_bend_c, 7, 9600
7, 17041, Pitch_bend_c, 7, 8864
7, 17042, Note_on_c, 7, 73, 0
7, 17061, Note_on_c, 7, 70, 75
7, 17061, Pitch_bend_c, 7, 8256
7, 17062, Pitch_bend_c, 7, 8320
7, 17064, Pitch_bend_c, 7, 8288
7, 17066, Pitch_bend_c, 7, 8256
7, 17068, Pitch_bend_c, 7, 8224
7, 17069, Pitch_bend_c, 7, 8192
7, 17072, Pitch_bend_c, 7, 8160
7, 17073, Pitch_bend_c, 7, 8128
7, 17076, Pitch_bend_c, 7, 8096
7, 17078, Note_on_c, 7, 70, 0
7, 17078, Pitch_bend_c, 7, 8192
7, 17092, Note_on_c, 7, 72, 71
7, 17094, Pitch_bend_c, 7, 8160
7, 17095, Pitch_bend_c, 7, 8128
7, 17097, Pitch_bend_c, 7, 8160
7, 17099, Pitch_bend_c, 7, 8256
7, 17100, Pitch_bend_c, 7, 8512
7, 17101, Pitch_bend_c, 7, 8832
7, 17103, Pitch_bend_c, 7, 9152
7, 17104, Pitch_bend_c, 7, 9408
7, 17105, Pitch_bend_c, 7, 9600
7, 17107, Pitch_bend_c, 7, 9696
7, 17108, Pitch_bend_c, 7, 9792
7, 17110, Note_on_c, 7, 72, 0
7, 17123, Pitch_bend_c, 7, 8192
7, 17124, Note_on_c, 7, 72, 68
7, 17124, Pitch_bend_c, 7, 8032
7, 17128, Pitch_bend_c, 7, 8000
7, 17129, Pitch_bend_c, 7, 7968
7, 17131, Pitch_bend_c, 7, 7904
7, 17132, Pitch_bend_c, 7, 7872
7, 17134, Pitch_bend_c, 7, 7840
7, 17140, Note_on_c, 7, 72, 0
7, 17140, Pitch_bend_c, 7, 8000
7, 17142, Pitch_bend_c, 7, 8192
7, 17143, Note_on_c, 7, 70, 51
7, 17143, Pitch_bend_c, 7, 8096
7, 17144, Pitch_bend_c, 7, 8064
7, 17146, Pitch_bend_c, 7, 8096
7, 17149, Pitch_bend_c, 7, 8128
7, 17150, Pitch_bend_c, 7, 8160
7, 17151, Pitch_bend_c, 7, 8192
7, 17159, Note_on_c, 7, 70, 0
7, 17162, Note_on_c, 7, 67, 14
7, 17162, Pitch_bend_c, 7, 8128
7, 17163, Pitch_bend_c, 7, 8064
7, 17164, Pitch_bend_c, 7, 8096
7, 17168, Pitch_bend_c, 7, 8064
7, 17171, Pitch_bend_c, 7, 8032
7, 17175, Pitch_bend_c, 7, 8064
7, 17176, Note_on_c, 7, 67, 0
7, 17178, Pitch_bend_c, 7, 8192
7, 17179, Note_on_c, 7, 70, 44
7, 17179, Pitch_bend_c, 7, 8064
7, 17189, Pitch_bend_c, 7, 8096
7, 17192, Pitch_bend_c, 7, 8160
7, 17193, Pitch_bend_c, 7, 8192
7, 17196, Pitch_bend_c, 7, 8288
7, 17197, Pitch_bend_c, 7, 8480
7, 17199, Pitch_bend_c, 7, 8768
7, 17200, Pitch_bend_c, 7, 9024
7, 17202, Pitch_bend_c, 7, 9184
7, 17203, Pitch_bend_c, 7, 9216
7, 17204, Pitch_bend_c, 7, 9056
7, 17206, Pitch_bend_c, 7, 8704
7, 17207, Pitch_bend_c, 7, 8384
7, 17209, Pitch_bend_c, 7, 8160
7, 17210, Pitch_bend_c, 7, 8000
7, 17213, Pitch_bend_c, 7, 8064
7, 17214, Pitch_bend_c, 7, 8160
7, 17215, Pitch_bend_c, 7, 8224
7, 17217, Pitch_bend_c, 7, 8320
7, 17218, Pitch_bend_c, 7, 8352
7, 17219, Pitch_bend_c, 7, 8256
7, 17221, Pitch_bend_c, 7, 8160
7, 17222, Pitch_bend_c, 7, 8064
7, 17224, Pitch_bend_c, 7, 8032
7, 17225, Pitch_bend_c, 7, 8064
7, 17227, Pitch_bend_c, 7, 8128
7, 17228, Pitch_bend_c, 7, 8192
7, 17231, Pitch_bend_c, 7, 8224
7, 17232, Pitch_bend_c, 7, 8256
7, 17234, Note_on_c, 7, 70, 0
7, 17234, Pitch_bend_c, 7, 8288
7, 17236, Pitch_bend_c, 7, 8192
7, 17237, Note_on_c, 7, 70, 58
7, 17237, Pitch_bend_c, 7, 8288
7, 17238, Pitch_bend_c, 7, 8320
7, 17241, Pitch_bend_c, 7, 8288
7, 17243, Pitch_bend_c, 7, 8224
7, 17244, Pitch_bend_c, 7, 8192
7, 17245, Pitch_bend_c, 7, 8160
7, 17247, Pitch_bend_c, 7, 8128
7, 17248, Pitch_bend_c, 7, 8096
7, 17249, Pitch_bend_c, 7, 8064
7, 17252, Pitch_bend_c, 7, 8032
7, 17257, Note_on_c, 7, 70, 0
7, 17257, Pitch_bend_c, 7, 8160
7, 17262, Note_on_c, 7, 73, 68
7, 17263, Pitch_bend_c, 7, 8224
7, 17265, Pitch_bend_c, 7, 8256
7, 17266, Pitch_bend_c, 7, 8288
7, 17267, Pitch_bend_c, 7, 8448
7, 17269, Pitch_bend_c, 7, 8736
7, 17270, Pitch_bend_c, 7, 9312
7, 17272, Pitch_bend_c, 7, 9984
7, 17273, Pitch_bend_c, 7, 12160
7, 17275, Pitch_bend_c, 7, 12352
7, 17277, Pitch_bend_c, 7, 12512
7, 17278, Pitch_bend_c, 7, 12672
7, 17279, Pitch_bend_c, 7, 12864
7, 17280, Note_on_c, 7, 73, 0
7, 17296, Note_on_c, 7, 73, 54
7, 17296, Pitch_bend_c, 7, 8128
7, 17297, Pitch_bend_c, 7, 8064
7, 17299, Pitch_bend_c, 7, 8128
7, 17300, Pitch_bend_c, 7, 8160
7, 17302, Pitch_bend_c, 7, 8224
7, 17303, Pitch_bend_c, 7, 8352
7, 17304, Pitch_bend_c, 7, 8448
7, 17306, Pitch_bend_c, 7, 8672
7, 17307, Pitch_bend_c, 7, 8768
7, 17309, Pitch_bend_c, 7, 8896
7, 17310, Pitch_bend_c, 7, 9024
7, 17312, Pitch_bend_c, 7, 9152
7, 17313, Pitch_bend_c, 7, 9280
7, 17314, Pitch_bend_c, 7, 9440
7, 17316, Pitch_bend_c, 7, 9600
7, 17317, Pitch_bend_c, 7, 9760
7, 17318, Pitch_bend_c, 7, 9952
7, 17320, Pitch_bend_c, 7, 10144
7, 17321, Pitch_bend_c, 7, 10400
7, 17323, Pitch_bend_c, 7, 10720
7, 17325, Pitch_bend_c, 7, 11040
7, 17326, Pitch_bend_c, 7, 11360
7, 17327, Pitch_bend_c, 7, 11680
7, 17329, Pitch_bend_c, 7, 11936
7, 17330, Pitch_bend_c, 7, 12128
7, 17332, Pitch_bend_c, 7, 12256
7, 17333, Pitch_bend_c, 7, 12288
7, 17337, Pitch_bend_c, 7, 12224
7, 17338, Pitch_bend_c, 7, 12096
7, 17340, Pitch_bend_c, 7, 11808
7, 17341, Pitch_bend_c, 7, 11360
7, 17343, Pitch_bend_c, 7, 10880
7, 17344, Pitch_bend_c, 7, 10464
7, 17345, Pitch_bend_c, 7, 10240
7, 17347, Pitch_bend_c, 7, 10144
7, 17348, Pitch_bend_c, 7, 10304
7, 17349, Pitch_bend_c, 7, 10688
7, 17351, Pitch_bend_c, 7, 11200
7, 17352, Pitch_bend_c, 7, 11808
7, 17354, Pitch_bend_c, 7, 12416
7, 17355, Pitch_bend_c, 7, 12896
7, 17356, Pitch_bend_c, 7, 13152
7, 17358, Pitch_bend_c, 7, 13184
7, 17359, Pitch_bend_c, 7, 12928
7, 17360, Pitch_bend_c, 7, 12352
7, 17362, Pitch_bend_c, 7, 9792
7, 17364, Pitch_bend_c, 7, 9760
7, 17365, Pitch_bend_c, 7, 9696
7, 17367, Pitch_bend_c, 7, 9760
7, 17368, Pitch_bend_c, 7, 10048
7, 17369, Pitch_bend_c, 7, 10688
7, 17371, Pitch_bend_c, 7, 11456
7, 17372, Pitch_bend_c, 7, 12128
7, 17373, Pitch_bend_c, 7, 12544
7, 17375, Pitch_bend_c, 7, 12736
7, 17376, Pitch_bend_c, 7, 12544
7, 17378, Note_on_c, 7, 73, 0
7, 17464, Pitch_bend_c, 7, 8192
7, 17465, Note_on_c, 7, 70, 100
7, 17465, Pitch_bend_c, 7, 8352
7, 17466, Pitch_bend_c, 7, 8224
7, 17469, Pitch_bend_c, 7, 8256
7, 17471, Pitch_bend_c, 7, 8288
7, 17473, Pitch_bend_c, 7, 8320
7, 17476, Pitch_bend_c, 7, 8416
7, 17478, Pitch_bend_c, 7, 8640
7, 17479, Pitch_bend_c, 7, 9024
7, 17481, Pitch_bend_c, 7, 9408
7, 17482, Pitch_bend_c, 7, 9664
7, 17485, Pitch_bend_c, 7, 9312
7, 17486, Pitch_bend_c, 7, 8768
7, 17488, Pitch_bend_c, 7, 8288
7, 17489, Pitch_bend_c, 7, 8032
7, 17491, Pitch_bend_c, 7, 7936
7, 17492, Pitch_bend_c, 7, 8000
7, 17493, Pitch_bend_c, 7, 8224
7, 17495, Pitch_bend_c, 7, 8576
7, 17496, Pitch_bend_c, 7, 8960
7, 17498, Pitch_bend_c, 7, 9248
7, 17501, Pitch_bend_c, 7, 9056
7, 17502, Pitch_bend_c, 7, 8832
7, 17504, Pitch_bend_c, 7, 8576
7, 17505, Pitch_bend_c, 7, 8320
7, 17506, Pitch_bend_c, 7, 8192
7, 17506, Note_on_c, 7, 67, 84
7, 17510, Note_on_c, 7, 70, 0
7, 17511, Pitch_bend_c, 7, 8256
7, 17513, Pitch_bend_c, 7, 8192
7, 17514, Pitch_bend_c, 7, 8128
7, 17515, Pitch_bend_c, 7, 8032
7, 17518, Pitch_bend_c, 7, 8000
7, 17520, Note_on_c, 7, 67, 0
7, 17521, Pitch_bend_c, 7, 8192
7, 17522, Note_on_c, 7, 73, 99
7, 17522, Pitch_bend_c, 7, 7680
7, 17525, Pitch_bend_c, 7, 7616
7, 17527, Pitch_bend_c, 7, 7552
7, 17528, Pitch_bend_c, 7, 7584
7, 17530, Pitch_bend_c, 7, 7552
7, 17531, Pitch_bend_c, 7, 7584
7, 17532, Pitch_bend_c, 7, 7648
7, 17534, Pitch_bend_c, 7, 7776
7, 17535, Pitch_bend_c, 7, 7936
7, 17536, Pitch_bend_c, 7, 8192
7, 17538, Pitch_bend_c, 7, 8512
7, 17539, Pitch_bend_c, 7, 9056
7, 17541, Pitch_bend_c, 7, 9792
7, 17542, Pitch_bend_c, 7, 10624
7, 17543, Pitch_bend_c, 7, 11392
7, 17545, Pitch_bend_c, 7, 12000
7, 17546, Pitch_bend_c, 7, 12352
7, 17547, Note_on_c, 7, 73, 0
7, 17649, Pitch_bend_c, 7, 8192
7, 17649, Note_on_c, 7, 70, 85
7, 17650, Pitch_bend_c, 7, 8288
7, 17651, Pitch_bend_c, 7, 8256
7, 17656, Pitch_bend_c, 7, 8224
7, 17658, Pitch_bend_c, 7, 8192
7, 17659, Pitch_bend_c, 7, 8000
7, 17660, Pitch_bend_c, 7, 7776
7, 17661, Note_on_c, 7, 70, 0
7, 17661, Pitch_bend_c, 7, 8256
7, 17676, Pitch_bend_c, 7, 8192
7, 17682, Note_on_c, 7, 79, 96
7, 17682, Pitch_bend_c, 7, 8768
7, 17683, Pitch_bend_c, 7, 8544
7, 17684, Pitch_bend_c, 7, 8608
7, 17687, Pitch_bend_c, 7, 8544
7, 17690, Pitch_bend_c, 7, 8608
7, 17691, Pitch_bend_c, 7, 8736
7, 17693, Pitch_bend_c, 7, 8960
7, 17694, Pitch_bend_c, 7, 9344
7, 17695, Pitch_bend_c, 7, 9760
7, 17697, Pitch_bend_c, 7, 10144
7, 17698, Pitch_bend_c, 7, 10560
7, 17699, Pitch_bend_c, 7, 10848
7, 17701, Pitch_bend_c, 7, 11136
7, 17702, Pitch_bend_c, 7, 11360
7, 17704, Pitch_bend_c, 7, 11520
7, 17705, Pitch_bend_c, 7, 11712
7, 17706, Pitch_bend_c, 7, 11808
7, 17708, Pitch_bend_c, 7, 11872
7, 17709, Pitch_bend_c, 7, 11936
7, 17727, Pitch_bend_c, 7, 12000
7, 17729, Pitch_bend_c, 7, 12096
7, 17730, Pitch_bend_c, 7, 12224
7, 17732, Pitch_bend_c, 7, 12384
7, 17733, Pitch_bend_c, 7, 12512
7, 17734, Pitch_bend_c, 7, 12576
7, 17736, Pitch_bend_c, 7, 12640
7, 17743, Pitch_bend_c, 7, 12704
7, 17747, Pitch_bend_c, 7, 12640
7, 17748, Pitch_bend_c, 7, 12448
7, 17750, Pitch_bend_c, 7, 12160
7, 17751, Pitch_bend_c, 7, 11648
7, 17752, Note_on_c, 7, 79, 0
7, 17752, Pitch_bend_c, 7, 12704
7, 17777, Pitch_bend_c, 7, 8192
7, 17778, Note_on_c, 7, 77, 88
7, 17778, Pitch_bend_c, 7, 8640
7, 17779, Pitch_bend_c, 7, 8896
7, 17781, Pitch_bend_c, 7, 8736
7, 17782, Pitch_bend_c, 7, 8640
7, 17784, Pitch_bend_c, 7, 8480
7, 17786, Pitch_bend_c, 7, 8416
7, 17794, Pitch_bend_c, 7, 8544
7, 17795, Pitch_bend_c, 7, 8576
7, 17796, Pitch_bend_c, 7, 8672
7, 17798, Pitch_bend_c, 7, 8992
7, 17799, Pitch_bend_c, 7, 9344
7, 17800, Pitch_bend_c, 7, 9792
7, 17802, Pitch_bend_c, 7, 10272
7, 17803, Pitch_bend_c, 7, 10528
7, 17805, Pitch_bend_c, 7, 10656
7, 17806, Pitch_bend_c, 7, 10624
7, 17807, Pitch_bend_c, 7, 10304
7, 17809, Pitch_bend_c, 7, 9792
7, 17810, Pitch_bend_c, 7, 9248
7, 17811, Pitch_bend_c, 7, 8800
7, 17813, Pitch_bend_c, 7, 8576
7, 17814, Pitch_bend_c, 7, 8544
7, 17817, Pitch_bend_c, 7, 8480
7, 17819, Pitch_bend_c, 7, 8544
7, 17820, Pitch_bend_c, 7, 8576
7, 17821, Pitch_bend_c, 7, 8672
7, 17823, Pitch_bend_c, 7, 8832
7, 17824, Pitch_bend_c, 7, 8992
7, 17826, Pitch_bend_c, 7, 9088
7, 17827, Pitch_bend_c, 7, 9152
7, 17833, Pitch_bend_c, 7, 9056
7, 17834, Pitch_bend_c, 7, 8928
7, 17835, Pitch_bend_c, 7, 8832
7, 17837, Note_on_c, 7, 77, 0
7, 17837, Pitch_bend_c, 7, 9152
7, 17839, Note_on_c, 7, 75, 87
7, 17839, Pitch_bend_c, 7, 8448
7, 17843, Pitch_bend_c, 7, 8416
7, 17844, Pitch_bend_c, 7, 8352
7, 17851, Pitch_bend_c, 7, 8416
7, 17855, Pitch_bend_c, 7, 8352
7, 17857, Note_on_c, 7, 75, 0
7, 17857, Pitch_bend_c, 7, 8448
7, 17859, Pitch_bend_c, 7, 8192
7, 17860, Note_on_c, 7, 77, 85
7, 17860, Pitch_bend_c, 7, 8320
7, 17862, Pitch_bend_c, 7, 8288
7, 17867, Note_on_c, 7, 77, 0
7, 17878, Pitch_bend_c, 7, 8192
7, 17878, Note_on_c, 7, 72, 79
7, 17886, Pitch_bend_c, 7, 8128
7, 17888, Pitch_bend_c, 7, 8096
7, 17889, Pitch_bend_c, 7, 12064
7, 17895, Pitch_bend_c, 7, 12096
7, 17896, Pitch_bend_c, 7, 8128
7, 17901, Pitch_bend_c, 7, 8160
7, 17902, Pitch_bend_c, 7, 8224
7, 17904, Pitch_bend_c, 7, 8320
7, 17905, Note_on_c, 7, 72, 0
7, 17905, Note_on_c, 7, 69, 63
7, 17905, Pitch_bend_c, 7, 12256
7, 17910, Pitch_bend_c, 7, 12288
7, 17911, Pitch_bend_c, 7, 12320
7, 17914, Pitch_bend_c, 7, 12352
7, 17918, Pitch_bend_c, 7, 12384
7, 17921, Note_on_c, 7, 69, 0
7, 17921, Pitch_bend_c, 7, 8192
7, 17921, Note_on_c, 7, 67, 14
7, 17923, Pitch_bend_c, 7, 8064
7, 17926, Pitch_bend_c, 7, 8096
7, 17929, Pitch_bend_c, 7, 8064
7, 17932, Pitch_bend_c, 7, 8032
7, 17939, Pitch_bend_c, 7, 8192
7, 17939, Note_on_c, 7, 70, 79
7, 17940, Note_on_c, 7, 67, 0
7, 17943, Pitch_bend_c, 7, 8256
7, 17945, Pitch_bend_c, 7, 8224
7, 17954, Pitch_bend_c, 7, 8192
7, 17958, Pitch_bend_c, 7, 8160
7, 17963, Note_on_c, 7, 70, 0
7, 17963, Pitch_bend_c, 7, 8192
7, 17968, Note_on_c, 7, 72, 79
7, 17968, Pitch_bend_c, 7, 8224
7, 17977, Pitch_bend_c, 7, 8192
7, 17981, Pitch_bend_c, 7, 8160
7, 17982, Pitch_bend_c, 7, 12128
7, 17986, Pitch_bend_c, 7, 12192
7, 17987, Pitch_bend_c, 7, 12224
7, 17989, Pitch_bend_c, 7, 8128
7, 17992, Pitch_bend_c, 7, 8032
7, 17993, Pitch_bend_c, 7, 8000
7, 17994, Pitch_bend_c, 7, 8096
7, 17996, Pitch_bend_c, 7, 8192
7, 18001, Note_on_c, 7, 72, 0
7, 18001, Note_on_c, 7, 69, 62
7, 18001, Pitch_bend_c, 7, 12288
7, 18002, Pitch_bend_c, 7, 12224
7, 18005, Pitch_bend_c, 7, 12256
7, 18007, Pitch_bend_c, 7, 12288
7, 18008, Pitch_bend_c, 7, 12320
7, 18012, Pitch_bend_c, 7, 12352
7, 18016, Pitch_bend_c, 7, 12320
7, 18018, Note_on_c, 7, 69, 0
7, 18018, Pitch_bend_c, 7, 8192
7, 18018, Note_on_c, 7, 67, 14
7, 18022, Pitch_bend_c, 7, 8160
7, 18026, Pitch_bend_c, 7, 8096
7, 18027, Pitch_bend_c, 7, 8064
7, 18029, Pitch_bend_c, 7, 8032
7, 18033, Note_on_c, 7, 67, 0
7, 18033, Pitch_bend_c, 7, 8192
7, 18033, Note_on_c, 7, 70, 76
7, 18046, Pitch_bend_c, 7, 8160
7, 18047, Pitch_bend_c, 7, 8128
7, 18050, Pitch_bend_c, 7, 8224
7, 18051, Pitch_bend_c, 7, 8544
7, 18053, Pitch_bend_c, 7, 8960
7, 18054, Pitch_bend_c, 7, 9344
7, 18055, Pitch_bend_c, 7, 9472
7, 18057, Pitch_bend_c, 7, 9312
7, 18058, Pitch_bend_c, 7, 8896
7, 18060, Pitch_bend_c, 7, 8480
7, 18061, Pitch_bend_c, 7, 8192
7, 18062, Pitch_bend_c, 7, 8032
7, 18065, Pitch_bend_c, 7, 8096
7, 18067, Pitch_bend_c, 7, 8256
7, 18068, Pitch_bend_c, 7, 8544
7, 18070, Pitch_bend_c, 7, 8832
7, 18071, Pitch_bend_c, 7, 9024
7, 18072, Note_on_c, 7, 70, 0
7, 18279, Pitch_bend_c, 7, 4544
7, 18279, Note_on_c, 7, 80, 106
7, 18280, Pitch_bend_c, 7, 4384
7, 18286, Pitch_bend_c, 7, 4320
7, 18289, Pitch_bend_c, 7, 4256
7, 18291, Pitch_bend_c, 7, 4192
7, 18293, Pitch_bend_c, 7, 4128
7, 18297, Note_on_c, 7, 80, 0
7, 18297, Pitch_bend_c, 7, 4384
7, 18298, Pitch_bend_c, 7, 8192
7, 18304, Note_on_c, 7, 77, 89
7, 18304, Pitch_bend_c, 7, 8640
7, 18305, Pitch_bend_c, 7, 8672
7, 18306, Pitch_bend_c, 7, 8640
7, 18311, Pitch_bend_c, 7, 8576
7, 18312, Pitch_bend_c, 7, 8544
7, 18316, Pitch_bend_c, 7, 8576
7, 18317, Note_on_c, 7, 77, 0
7, 18317, Pitch_bend_c, 7, 8672
7, 18329, Pitch_bend_c, 7, 8192
7, 18330, Note_on_c, 7, 79, 90
7, 18330, Pitch_bend_c, 7, 8320
7, 18331, Pitch_bend_c, 7, 8448
7, 18332, Pitch_bend_c, 7, 8384
7, 18334, Pitch_bend_c, 7, 8480
7, 18335, Pitch_bend_c, 7, 8672
7, 18337, Pitch_bend_c, 7, 8896
7, 18338, Pitch_bend_c, 7, 9248
7, 18340, Pitch_bend_c, 7, 9696
7, 18341, Pitch_bend_c, 7, 10208
7, 18342, Pitch_bend_c, 7, 10784
7, 18344, Pitch_bend_c, 7, 11232
7, 18345, Pitch_bend_c, 7, 11648
7, 18346, Pitch_bend_c, 7, 12000
7, 18348, Pitch_bend_c, 7, 12224
7, 18349, Pitch_bend_c, 7, 12384
7, 18351, Pitch_bend_c, 7, 12448
7, 18354, Pitch_bend_c, 7, 12384
7, 18355, Note_on_c, 7, 79, 0
7, 18355, Pitch_bend_c, 7, 12320
7, 18390, Pitch_bend_c, 7, 8192
7, 18391, Note_on_c, 7, 77, 88
7, 18391, Pitch_bend_c, 7, 8544
7, 18395, Pitch_bend_c, 7, 8480
7, 18398, Pitch_bend_c, 7, 8416
7, 18399, Pitch_bend_c, 7, 8384
7, 18401, Pitch_bend_c, 7, 8320
7, 18402, Pitch_bend_c, 7, 8288
7, 18403, Pitch_bend_c, 7, 8224
7, 18405, Note_on_c, 7, 77, 0
7, 18405, Pitch_bend_c, 7, 8384
7, 18411, Pitch_bend_c, 7, 8192
7, 18412, Note_on_c, 7, 75, 87
7, 18412, Pitch_bend_c, 7, 8544
7, 18413, Pitch_bend_c, 7, 8576
7, 18415, Pitch_bend_c, 7, 8640
7, 18419, Pitch_bend_c, 7, 8576
7, 18420, Pitch_bend_c, 7, 8480
7, 18422, Pitch_bend_c, 7, 8448
7, 18423, Note_on_c, 7, 75, 0
7, 18424, Pitch_bend_c, 7, 8416
7, 18427, Note_on_c, 7, 77, 81
7, 18427, Pitch_bend_c, 7, 8640
7, 18430, Pitch_bend_c, 7, 8576
7, 18433, Pitch_bend_c, 7, 8544
7, 18434, Pitch_bend_c, 7, 8480
7, 18435, Pitch_bend_c, 7, 8192
7, 18436, Note_on_c, 7, 77, 0
7, 18436, Pitch_bend_c, 7, 8640
7, 18444, Pitch_bend_c, 7, 8192
7, 18445, Note_on_c, 7, 72, 83
7, 18446, Pitch_bend_c, 7, 8352
7, 18447, Pitch_bend_c, 7, 8256
7, 18451, Pitch_bend_c, 7, 8320
7, 18452, Pitch_bend_c, 7, 8288
7, 18455, Pitch_bend_c, 7, 8256
7, 18457, Pitch_bend_c, 7, 8192
7, 18461, Pitch_bend_c, 7, 12288
7, 18465, Pitch_bend_c, 7, 12320
7, 18466, Pitch_bend_c, 7, 12352
7, 18468, Pitch_bend_c, 7, 12512
7, 18469, Pitch_bend_c, 7, 12608
7, 18471, Pitch_bend_c, 7, 8224
7, 18472, Pitch_bend_c, 7, 8192
7, 18474, Pitch_bend_c, 7, 8352
7, 18475, Pitch_bend_c, 7, 8480
7, 18476, Pitch_bend_c, 7, 8608
7, 18478, Note_on_c, 7, 72, 0
7, 18478, Note_on_c, 7, 69, 46
7, 18478, Pitch_bend_c, 7, 12288
7, 18479, Pitch_bend_c, 7, 12256
7, 18482, Pitch_bend_c, 7, 12288
7, 18483, Pitch_bend_c, 7, 12320
7, 18485, Pitch_bend_c, 7, 12352
7, 18487, Pitch_bend_c, 7, 12384
7, 18488, Note_on_c, 7, 69, 0
7, 18489, Note_on_c, 7, 72, 79
7, 18489, Pitch_bend_c, 7, 8192
7, 18490, Pitch_bend_c, 7, 8672
7, 18495, Pitch_bend_c, 7, 8640
7, 18498, Pitch_bend_c, 7, 8608
7, 18499, Pitch_bend_c, 7, 8512
7, 18500, Pitch_bend_c, 7, 8448
7, 18502, Pitch_bend_c, 7, 8416
7, 18503, Note_on_c, 7, 72, 0
7, 18503, Pitch_bend_c, 7, 8640
7, 18505, Pitch_bend_c, 7, 8192
7, 18506, Note_on_c, 7, 67, 56
7, 18507, Pitch_bend_c, 7, 8160
7, 18509, Pitch_bend_c, 7, 8128
7, 18514, Pitch_bend_c, 7, 8096
7, 18520, Pitch_bend_c, 7, 8064
7, 18521, Note_on_c, 7, 67, 0
7, 18521, Note_on_c, 7, 70, 81
7, 18521, Pitch_bend_c, 7, 8192
7, 18522, Pitch_bend_c, 7, 8352
7, 18523, Pitch_bend_c, 7, 8320
7, 18525, Pitch_bend_c, 7, 8352
7, 18529, Pitch_bend_c, 7, 8320
7, 18531, Pitch_bend_c, 7, 8288
7, 18532, Pitch_bend_c, 7, 8256
7, 18533, Pitch_bend_c, 7, 8192
7, 18535, Pitch_bend_c, 7, 8160
7, 18536, Pitch_bend_c, 7, 8128
7, 18538, Pitch_bend_c, 7, 8096
7, 18539, Pitch_bend_c, 7, 8064
7, 18544, Note_on_c, 7, 70, 0
7, 18544, Pitch_bend_c, 7, 8192
7, 18549, Note_on_c, 7, 73, 83
7, 18549, Pitch_bend_c, 7, 8224
7, 18553, Pitch_bend_c, 7, 8256
7, 18554, Pitch_bend_c, 7, 8288
7, 18556, Pitch_bend_c, 7, 8256
7, 18557, Pitch_bend_c, 7, 8224
7, 18559, Pitch_bend_c, 7, 8160
7, 18560, Pitch_bend_c, 7, 8064
7, 18563, Pitch_bend_c, 7, 8032
7, 18570, Pitch_bend_c, 7, 8160
7, 18571, Pitch_bend_c, 7, 8416
7, 18572, Pitch_bend_c, 7, 9024
7, 18574, Pitch_bend_c, 7, 11936
7, 18576, Pitch_bend_c, 7, 12128
7, 18577, Pitch_bend_c, 7, 12384
7, 18578, Pitch_bend_c, 7, 12672
7, 18580, Pitch_bend_c, 7, 12928
7, 18581, Note_on_c, 7, 73, 0
7, 18620, Pitch_bend_c, 7, 8192
7, 18621, Note_on_c, 7, 69, 89
7, 18621, Pitch_bend_c, 7, 8512
7, 18625, Pitch_bend_c, 7, 8480
7, 18626, Pitch_bend_c, 7, 8416
7, 18627, Pitch_bend_c, 7, 8352
7, 18629, Pitch_bend_c, 7, 8320
7, 18630, Pitch_bend_c, 7, 8224
7, 18632, Pitch_bend_c, 7, 12288
7, 18633, Pitch_bend_c, 7, 12320
7, 18637, Pitch_bend_c, 7, 12352
7, 18640, Pitch_bend_c, 7, 12384
7, 18647, Pitch_bend_c, 7, 12352
7, 18650, Pitch_bend_c, 7, 12288
7, 18651, Note_on_c, 7, 69, 0
7, 18651, Pitch_bend_c, 7, 12320
7, 18663, Note_on_c, 7, 65, 91
7, 18663, Pitch_bend_c, 7, 8352
7, 18666, Pitch_bend_c, 7, 8384
7, 18669, Pitch_bend_c, 7, 8416
7, 18675, Pitch_bend_c, 7, 8352
7, 18677, Pitch_bend_c, 7, 8288
7, 18678, Pitch_bend_c, 7, 8416
7, 18679, Note_on_c, 7, 65, 0
7, 18682, Note_on_c, 7, 63, 79
7, 18682, Pitch_bend_c, 7, 8128
7, 18684, Pitch_bend_c, 7, 8160
7, 18685, Pitch_bend_c, 7, 8128
7, 18692, Pitch_bend_c, 7, 8096
7, 18694, Note_on_c, 7, 63, 0
7, 18694, Pitch_bend_c, 7, 8160
7, 18697, Note_on_c, 7, 65, 92
7, 18697, Pitch_bend_c, 7, 8288
7, 18709, Pitch_bend_c, 7, 8352
7, 18710, Note_on_c, 7, 65, 0
7, 18712, Pitch_bend_c, 7, 8192
7, 18713, Note_on_c, 7, 61, 79
7, 18713, Pitch_bend_c, 7, 8288
7, 18717, Pitch_bend_c, 7, 8352
7, 18718, Pitch_bend_c, 7, 8416
7, 18720, Pitch_bend_c, 7, 8448
7, 18723, Pitch_bend_c, 7, 8352
7, 18724, Pitch_bend_c, 7, 8288
7, 18726, Pitch_bend_c, 7, 8480
7, 18727, Pitch_bend_c, 7, 8928
7, 18729, Pitch_bend_c, 7, 9664
7, 18730, Pitch_bend_c, 7, 10496
7, 18731, Pitch_bend_c, 7, 11168
7, 18733, Pitch_bend_c, 7, 11648
7, 18734, Pitch_bend_c, 7, 11872
7, 18735, Pitch_bend_c, 7, 11936
7, 18736, Note_on_c, 7, 61, 0
7, 18739, Note_on_c, 7, 58, 62
7, 18739, Pitch_bend_c, 7, 8192
7, 18740, Pitch_bend_c, 7, 8160
7, 18743, Pitch_bend_c, 7, 8192
7, 18745, Pitch_bend_c, 7, 8224
7, 18748, Pitch_bend_c, 7, 8256
7, 18749, Pitch_bend_c, 7, 8224
7, 18751, Pitch_bend_c, 7, 8192
7, 18756, Pitch_bend_c, 7, 8000
7, 18757, Note_on_c, 7, 58, 0
7, 18757, Pitch_bend_c, 7, 8224
7, 18770, Note_on_c, 7, 63, 91
7, 18770, Pitch_bend_c, 7, 8576
7, 18771, Pitch_bend_c, 7, 8480
7, 18772, Pitch_bend_c, 7, 8576
7, 18775, Pitch_bend_c, 7, 8544
7, 18776, Pitch_bend_c, 7, 8480
7, 18778, Pitch_bend_c, 7, 8512
7, 18780, Pitch_bend_c, 7, 8832
7, 18781, Pitch_bend_c, 7, 9280
7, 18782, Pitch_bend_c, 7, 9824
7, 18784, Pitch_bend_c, 7, 10304
7, 18785, Note_on_c, 7, 63, 0
7, 18797, Pitch_bend_c, 7, 8192
7, 18798, Note_on_c, 7, 63, 91
7, 18798, Pitch_bend_c, 7, 8288
7, 18799, Pitch_bend_c, 7, 8192
7, 18800, Pitch_bend_c, 7, 8224
7, 18802, Pitch_bend_c, 7, 8192
7, 18804, Pitch_bend_c, 7, 8224
7, 18805, Pitch_bend_c, 7, 8192
7, 18806, Pitch_bend_c, 7, 8224
7, 18810, Pitch_bend_c, 7, 8192
7, 18812, Pitch_bend_c, 7, 8160
7, 18813, Note_on_c, 7, 63, 0
7, 18813, Pitch_bend_c, 7, 8192
7, 18825, Note_on_c, 7, 61, 75
7, 18825, Pitch_bend_c, 7, 8160
7, 18827, Pitch_bend_c, 7, 8192
7, 18836, Pitch_bend_c, 7, 8160
7, 18839, Pitch_bend_c, 7, 8128
7, 18842, Pitch_bend_c, 7, 8096
7, 18843, Pitch_bend_c, 7, 8064
7, 18852, Pitch_bend_c, 7, 8160
7, 18853, Pitch_bend_c, 7, 8288
7, 18855, Pitch_bend_c, 7, 8672
7, 18856, Pitch_bend_c, 7, 9216
7, 18858, Pitch_bend_c, 7, 9920
7, 18859, Pitch_bend_c, 7, 10528
7, 18860, Pitch_bend_c, 7, 10848
7, 18862, Pitch_bend_c, 7, 10912
7, 18863, Pitch_bend_c, 7, 10784
7, 18864, Pitch_bend_c, 7, 10624
7, 18865, Note_on_c, 7, 61, 0
7, 18888, Pitch_bend_c, 7, 8192
7, 18889, Note_on_c, 7, 68, 89
7, 18890, Pitch_bend_c, 7, 8224
7, 18891, Pitch_bend_c, 7, 8288
7, 18892, Pitch_bend_c, 7, 8256
7, 18894, Pitch_bend_c, 7, 8224
7, 18895, Pitch_bend_c, 7, 8192
7, 18907, Pitch_bend_c, 7, 8160
7, 18909, Pitch_bend_c, 7, 8192
7, 18925, Pitch_bend_c, 7, 8224
7, 18926, Pitch_bend_c, 7, 8352
7, 18927, Pitch_bend_c, 7, 8672
7, 18929, Pitch_bend_c, 7, 8896
7, 18930, Note_on_c, 7, 68, 0
7, 18930, Note_on_c, 7, 65, 60
7, 18931, Pitch_bend_c, 7, 8192
7, 18932, Pitch_bend_c, 7, 8256
7, 18933, Pitch_bend_c, 7, 8224
7, 18935, Pitch_bend_c, 7, 8192
7, 18940, Pitch_bend_c, 7, 8288
7, 18941, Note_on_c, 7, 65, 0
7, 18941, Note_on_c, 7, 63, 88
7, 18941, Pitch_bend_c, 7, 8064
7, 18942, Pitch_bend_c, 7, 8160
7, 18943, Pitch_bend_c, 7, 8192
7, 18944, Pitch_bend_c, 7, 8128
7, 18945, Pitch_bend_c, 7, 8096
7, 18947, Pitch_bend_c, 7, 8000
7, 18948, Note_on_c, 7, 63, 0
7, 18950, Pitch_bend_c, 7, 8192
7, 18951, Note_on_c, 7, 61, 79
7, 18951, Pitch_bend_c, 7, 8384
7, 18952, Pitch_bend_c, 7, 8000
7, 18953, Pitch_bend_c, 7, 8096
7, 18955, Pitch_bend_c, 7, 8064
7, 18957, Pitch_bend_c, 7, 8160
7, 18958, Pitch_bend_c, 7, 8192
7, 18958, Note_on_c, 7, 58, 53
7, 18959, Note_on_c, 7, 61, 0
7, 18959, Pitch_bend_c, 7, 8224
7, 18960, Pitch_bend_c, 7, 8192
7, 18963, Pitch_bend_c, 7, 8160
7, 18964, Pitch_bend_c, 7, 8000
7, 18966, Pitch_bend_c, 7, 7712
7, 18967, Pitch_bend_c, 7, 7168
7, 18968, Note_on_c, 7, 58, 0
7, 18969, Pitch_bend_c, 7, 8192
7, 18970, Note_on_c, 7, 63, 89
7, 18970, Pitch_bend_c, 7, 8128
7, 18971, Pitch_bend_c, 7, 8192
7, 18977, Pitch_bend_c, 7, 8160
7, 18978, Pitch_bend_c, 7, 8128
7, 18981, Pitch_bend_c, 7, 8096
7, 18982, Pitch_bend_c, 7, 8064
7, 18986, Pitch_bend_c, 7, 8032
7, 18989, Pitch_bend_c, 7, 8000
7, 18995, Pitch_bend_c, 7, 8064
7, 18997, Pitch_bend_c, 7, 8128
7, 18998, Note_on_c, 7, 63, 0
7, 18998, Note_on_c, 7, 60, 73
7, 18998, Pitch_bend_c, 7, 12032
7, 18999, Pitch_bend_c, 7, 12064
7, 19002, Pitch_bend_c, 7, 12288
7, 19004, Pitch_bend_c, 7, 12352
7, 19005, Note_on_c, 7, 60, 0
7, 19005, Pitch_bend_c, 7, 12448
7, 19006, Note_on_c, 7, 58, 62
7, 19006, Pitch_bend_c, 7, 8064
7, 19009, Pitch_bend_c, 7, 8096
7, 19010, Pitch_bend_c, 7, 8128
7, 19011, Pitch_bend_c, 7, 8160
7, 19013, Note_on_c, 7, 58, 0
7, 19013, Pitch_bend_c, 7, 8192
7, 19016, Note_on_c, 7, 56, 71
7, 19018, Pitch_bend_c, 7, 8224
7, 19020, Pitch_bend_c, 7, 8192
7, 19021, Pitch_bend_c, 7, 8256
7, 19025, Pitch_bend_c, 7, 8192
7, 19025, Note_on_c, 7, 53, 63
7, 19026, Note_on_c, 7, 56, 0
7, 19026, Pitch_bend_c, 7, 7936
7, 19032, Pitch_bend_c, 7, 7968
7, 19034, Pitch_bend_c, 7, 7936
7, 19037, Pitch_bend_c, 7, 7904
7, 19042, Pitch_bend_c, 7, 7936
7, 19044, Pitch_bend_c, 7, 7968
7, 19045, Pitch_bend_c, 7, 8064
7, 19046, Pitch_bend_c, 7, 8288
7, 19048, Pitch_bend_c, 7, 8672
7, 19049, Pitch_bend_c, 7, 9088
7, 19051, Pitch_bend_c, 7, 9408
7, 19053, Pitch_bend_c, 7, 9088
7, 19055, Pitch_bend_c, 7, 8640
7, 19056, Pitch_bend_c, 7, 8224
7, 19058, Pitch_bend_c, 7, 7936
7, 19059, Pitch_bend_c, 7, 7808
7, 19064, Note_on_c, 7, 53, 0
7, 19087, Pitch_bend_c, 7, 8192
7, 19088, Pitch_bend_c, 7, 8704
7, 19089, Pitch_bend_c, 7, 8192
7, 19090, Note_on_c, 7, 61, 93
7, 19090, Note_on_c, 7, 67, 89
7, 19090, Note_on_c, 7, 70, 100
7, 19212, Note_on_c, 7, 61, 0
7, 19214, Note_on_c, 7, 67, 0
7, 19214, Pitch_bend_c, 7, 8384
7, 19217, Pitch_bend_c, 7, 8352
7, 19218, Pitch_bend_c, 7, 8384
7, 19220, Pitch_bend_c, 7, 8192
7, 19221, Note_on_c, 7, 62, 41
7, 19223, Note_on_c, 7, 65, 58
7, 19224, Note_on_c, 7, 70, 0
7, 19225, Note_on_c, 7, 70, 14
7, 19320, Note_on_c, 7, 62, 0
7, 19320, Note_on_c, 7, 65, 0
7, 19320, Note_on_c, 7, 70, 0
7, 19466, Note_on_c, 7, 65, 77
7, 19466, Pitch_bend_c, 7, 8000
7, 19470, Pitch_bend_c, 7, 7968
7, 19472, Pitch_bend_c, 7, 7936
7, 19476, Pitch_bend_c, 7, 7968
7, 19477, Pitch_bend_c, 7, 8000
7, 19479, Pitch_bend_c, 7, 8192
7, 19479, Note_on_c, 7, 70, 89
7, 19484, Note_on_c, 7, 65, 0
7, 19485, Pitch_bend_c, 7, 8160
7, 19487, Pitch_bend_c, 7, 8192
7, 19491, Pitch_bend_c, 7, 8160
7, 19492, Pitch_bend_c, 7, 8128
7, 19494, Pitch_bend_c, 7, 8096
7, 19495, Pitch_bend_c, 7, 8064
7, 19496, Note_on_c, 7, 70, 0
7, 19497, Note_on_c, 7, 70, 89
7, 19497, Pitch_bend_c, 7, 8096
7, 19499, Pitch_bend_c, 7, 8064
7, 19501, Pitch_bend_c, 7, 8096
7, 19503, Pitch_bend_c, 7, 8128
7, 19505, Pitch_bend_c, 7, 8160
7, 19506, Pitch_bend_c, 7, 8192
7, 19509, Note_on_c, 7, 70, 0
7, 19509, Pitch_bend_c, 7, 8224
7, 19510, Note_on_c, 7, 70, 88
7, 19510, Pitch_bend_c, 7, 8672
7, 19511, Pitch_bend_c, 7, 8640
7, 19512, Pitch_bend_c, 7, 8608
7, 19513, Pitch_bend_c, 7, 8640
7, 19515, Pitch_bend_c, 7, 8608
7, 19516, Pitch_bend_c, 7, 8576
7, 19518, Pitch_bend_c, 7, 8544
7, 19519, Pitch_bend_c, 7, 8448
7, 19520, Pitch_bend_c, 7, 8352
7, 19522, Pitch_bend_c, 7, 8224
7, 19523, Pitch_bend_c, 7, 8192
7, 19525, Pitch_bend_c, 7, 8160
7, 19527, Pitch_bend_c, 7, 8192
7, 19529, Pitch_bend_c, 7, 8256
7, 19530, Pitch_bend_c, 7, 8352
7, 19532, Pitch_bend_c, 7, 8512
7, 19533, Pitch_bend_c, 7, 8704
7, 19534, Pitch_bend_c, 7, 8864
7, 19536, Pitch_bend_c, 7, 8992
7, 19538, Pitch_bend_c, 7, 8960
7, 19540, Pitch_bend_c, 7, 8768
7, 19541, Pitch_bend_c, 7, 8512
7, 19543, Pitch_bend_c, 7, 8320
7, 19544, Pitch_bend_c, 7, 8192
7, 19546, Pitch_bend_c, 7, 8160
7, 19547, Pitch_bend_c, 7, 8192
7, 19549, Pitch_bend_c, 7, 8288
7, 19550, Pitch_bend_c, 7, 8544
7, 19553, Pitch_bend_c, 7, 8896
7, 19554, Pitch_bend_c, 7, 9152
7, 19555, Pitch_bend_c, 7, 9120
7, 19557, Pitch_bend_c, 7, 9184
7, 19558, Pitch_bend_c, 7, 8768
7, 19560, Pitch_bend_c, 7, 8416
7, 19561, Pitch_bend_c, 7, 8192
7, 19562, Pitch_bend_c, 7, 8064
7, 19564, Pitch_bend_c, 7, 8128
7, 19565, Pitch_bend_c, 7, 8416
7, 19567, Pitch_bend_c, 7, 8864
7, 19568, Note_on_c, 7, 70, 0
7, 19568, Pitch_bend_c, 7, 9376
7, 19858, Pitch_bend_c, 7, 8192
7, 19859, Note_on_c, 7, 65, 87
7, 19859, Pitch_bend_c, 7, 8000
7, 19860, Pitch_bend_c, 7, 8096
7, 19866, Pitch_bend_c, 7, 8064
7, 19869, Pitch_bend_c, 7, 8032
7, 19875, Pitch_bend_c, 7, 7872
7, 19877, Note_on_c, 7, 65, 0
7, 19877, Note_on_c, 7, 67, 72
7, 19877, Pitch_bend_c, 7, 12064
7, 19878, Pitch_bend_c, 7, 12160
7, 19882, Pitch_bend_c, 7, 12096
7, 19883, Pitch_bend_c, 7, 12032
7, 19885, Pitch_bend_c, 7, 12000
7, 19886, Pitch_bend_c, 7, 11968
7, 19887, Pitch_bend_c, 7, 11904
7, 19888, Note_on_c, 7, 67, 0
7, 19888, Pitch_bend_c, 7, 12096
7, 19889, Pitch_bend_c, 7, 8192
7, 19890, Note_on_c, 7, 70, 87
7, 19890, Pitch_bend_c, 7, 8576
7, 19893, Pitch_bend_c, 7, 8544
7, 19894, Pitch_bend_c, 7, 8480
7, 19896, Pitch_bend_c, 7, 8416
7, 19897, Pitch_bend_c, 7, 8320
7, 19898, Pitch_bend_c, 7, 8288
7, 19900, Pitch_bend_c, 7, 8256
7, 19903, Pitch_bend_c, 7, 8288
7, 19904, Pitch_bend_c, 7, 8256
7, 19907, Pitch_bend_c, 7, 8224
7, 19908, Pitch_bend_c, 7, 8192
7, 19910, Pitch_bend_c, 7, 8160
7, 19911, Pitch_bend_c, 7, 8128
7, 19912, Pitch_bend_c, 7, 8096
7, 19913, Pitch_bend_c, 7, 8064
7, 19918, Note_on_c, 7, 70, 0
7, 19918, Pitch_bend_c, 7, 12032
7, 19921, Pitch_bend_c, 7, 8192
7, 19923, Note_on_c, 7, 73, 89
7, 19923, Pitch_bend_c, 7, 8160
7, 19926, Pitch_bend_c, 7, 8128
7, 19927, Pitch_bend_c, 7, 8064
7, 19929, Pitch_bend_c, 7, 8000
7, 19930, Pitch_bend_c, 7, 7936
7, 19931, Pitch_bend_c, 7, 7840
7, 19934, Pitch_bend_c, 7, 7808
7, 19937, Pitch_bend_c, 7, 7840
7, 19938, Pitch_bend_c, 7, 7872
7, 19942, Pitch_bend_c, 7, 7936
7, 19944, Pitch_bend_c, 7, 7872
7, 19945, Pitch_bend_c, 7, 7840
7, 19947, Pitch_bend_c, 7, 7776
7, 19948, Pitch_bend_c, 7, 7680
7, 19949, Pitch_bend_c, 7, 7648
7, 19951, Pitch_bend_c, 7, 7680
7, 19952, Pitch_bend_c, 7, 7744
7, 19954, Pitch_bend_c, 7, 7808
7, 19955, Pitch_bend_c, 7, 7840
7, 19960, Pitch_bend_c, 7, 7872
7, 19961, Pitch_bend_c, 7, 8000
7, 19962, Pitch_bend_c, 7, 8192
7, 19964, Pitch_bend_c, 7, 8608
7, 19965, Pitch_bend_c, 7, 9312
7, 19966, Pitch_bend_c, 7, 12288
7, 19968, Pitch_bend_c, 7, 12480
7, 19969, Pitch_bend_c, 7, 12640
7, 19971, Pitch_bend_c, 7, 12768
7, 19972, Pitch_bend_c, 7, 12896
7, 19973, Pitch_bend_c, 7, 12864
7, 19974, Note_on_c, 7, 73, 0
7, 20271, Pitch_bend_c, 7, 8192
7, 20273, Note_on_c, 7, 68, 75
7, 20274, Pitch_bend_c, 7, 8448
7, 20275, Pitch_bend_c, 7, 8192
7, 20275, Note_on_c, 7, 73, 80
7, 20293, Note_on_c, 7, 68, 0
7, 20294, Note_on_c, 7, 73, 0
7, 20294, Pitch_bend_c, 7, 7936
7, 20296, Pitch_bend_c, 7, 8192
7, 20297, Note_on_c, 7, 70, 87
7, 20297, Pitch_bend_c, 7, 8640
7, 20298, Pitch_bend_c, 7, 8448
7, 20300, Pitch_bend_c, 7, 8416
7, 20303, Pitch_bend_c, 7, 8384
7, 20304, Pitch_bend_c, 7, 8352
7, 20306, Note_on_c, 7, 70, 0
7, 20306, Pitch_bend_c, 7, 8480
7, 20307, Note_on_c, 7, 68, 85
7, 20307, Pitch_bend_c, 7, 8192
7, 20308, Pitch_bend_c, 7, 8160
7, 20309, Pitch_bend_c, 7, 8192
7, 20310, Pitch_bend_c, 7, 8128
7, 20313, Pitch_bend_c, 7, 8064
7, 20315, Pitch_bend_c, 7, 8000
7, 20316, Pitch_bend_c, 7, 8032
7, 20319, Pitch_bend_c, 7, 8064
7, 20320, Pitch_bend_c, 7, 8000
7, 20321, Pitch_bend_c, 7, 8128
7, 20323, Pitch_bend_c, 7, 8576
7, 20324, Pitch_bend_c, 7, 11968
7, 20326, Pitch_bend_c, 7, 12096
7, 20327, Pitch_bend_c, 7, 11968
7, 20329, Pitch_bend_c, 7, 9696
7, 20330, Pitch_bend_c, 7, 9376
7, 20331, Pitch_bend_c, 7, 8896
7, 20333, Pitch_bend_c, 7, 8480
7, 20334, Pitch_bend_c, 7, 8096
7, 20336, Pitch_bend_c, 7, 7968
7, 20338, Pitch_bend_c, 7, 8032
7, 20340, Pitch_bend_c, 7, 8480
7, 20341, Pitch_bend_c, 7, 11104
7, 20344, Pitch_bend_c, 7, 11072
7, 20345, Pitch_bend_c, 7, 10624
7, 20347, Note_on_c, 7, 68, 0
7, 20347, Pitch_bend_c, 7, 11104
7, 20968, Pitch_bend_c, 7, 8192
7, 20969, Note_on_c, 7, 67, 95
7, 20969, Pitch_bend_c, 7, 8928
7, 20970, Pitch_bend_c, 7, 8896
7, 20971, Pitch_bend_c, 7, 8192
7, 20971, Note_on_c, 7, 70, 95
7, 20977, Note_on_c, 7, 70, 0
7, 20979, Pitch_bend_c, 7, 8672
7, 20980, Note_on_c, 7, 67, 0
7, 20980, Pitch_bend_c, 7, 8544
7, 20988, Note_on_c, 7, 70, 85
7, 20988, Pitch_bend_c, 7, 8192
7, 20989, Pitch_bend_c, 7, 8032
7, 20991, Pitch_bend_c, 7, 8000
7, 20992, Pitch_bend_c, 7, 7968
7, 20994, Pitch_bend_c, 7, 7904
7, 20995, Pitch_bend_c, 7, 7872
7, 21000, Pitch_bend_c, 7, 7936
7, 21001, Pitch_bend_c, 7, 7840
7, 21002, Note_on_c, 7, 70, 0
7, 21002, Pitch_bend_c, 7, 7968
7, 21006, Pitch_bend_c, 7, 8192
7, 21006, Note_on_c, 7, 73, 84
7, 21007, Pitch_bend_c, 7, 8224
7, 21008, Pitch_bend_c, 7, 8256
7, 21011, Pitch_bend_c, 7, 8224
7, 21015, Pitch_bend_c, 7, 8256
7, 21016, Pitch_bend_c, 7, 8288
7, 21019, Pitch_bend_c, 7, 8352
7, 21020, Pitch_bend_c, 7, 8384
7, 21022, Note_on_c, 7, 73, 0
7, 21027, Pitch_bend_c, 7, 8192
7, 21028, Note_on_c, 7, 75, 89
7, 21028, Pitch_bend_c, 7, 8352
7, 21033, Pitch_bend_c, 7, 8320
7, 21035, Pitch_bend_c, 7, 8224
7, 21036, Pitch_bend_c, 7, 8192
7, 21037, Pitch_bend_c, 7, 8160
7, 21039, Pitch_bend_c, 7, 8064
7, 21043, Pitch_bend_c, 7, 8128
7, 21045, Pitch_bend_c, 7, 8192
7, 21046, Pitch_bend_c, 7, 8256
7, 21048, Pitch_bend_c, 7, 8448
7, 21049, Pitch_bend_c, 7, 8960
7, 21050, Pitch_bend_c, 7, 11328
7, 21052, Pitch_bend_c, 7, 11584
7, 21053, Pitch_bend_c, 7, 12128
7, 21055, Pitch_bend_c, 7, 12768
7, 21056, Note_on_c, 7, 75, 0
7, 21056, Pitch_bend_c, 7, 13440
7, 21070, Pitch_bend_c, 7, 8192
7, 21071, Note_on_c, 7, 73, 85
7, 21071, Pitch_bend_c, 7, 8576
7, 21072, Pitch_bend_c, 7, 8512
7, 21075, Pitch_bend_c, 7, 8448
7, 21076, Pitch_bend_c, 7, 8384
7, 21077, Pitch_bend_c, 7, 8352
7, 21079, Pitch_bend_c, 7, 8288
7, 21080, Pitch_bend_c, 7, 8224
7, 21084, Pitch_bend_c, 7, 8192
7, 21086, Pitch_bend_c, 7, 8224
7, 21087, Pitch_bend_c, 7, 8192
7, 21089, Pitch_bend_c, 7, 8160
7, 21090, Pitch_bend_c, 7, 8224
7, 21092, Pitch_bend_c, 7, 8512
7, 21093, Pitch_bend_c, 7, 10880
7, 21094, Pitch_bend_c, 7, 11072
7, 21096, Pitch_bend_c, 7, 11328
7, 21097, Pitch_bend_c, 7, 11520
7, 21099, Pitch_bend_c, 7, 11616
7, 21100, Pitch_bend_c, 7, 11360
7, 21101, Pitch_bend_c, 7, 10752
7, 21102, Note_on_c, 7, 73, 0
7, 21102, Pitch_bend_c, 7, 11328
7, 21104, Pitch_bend_c, 7, 8192
7, 21117, Note_on_c, 7, 70, 80
7, 21117, Pitch_bend_c, 7, 8096
7, 21123, Pitch_bend_c, 7, 8032
7, 21124, Pitch_bend_c, 7, 7936
7, 21126, Pitch_bend_c, 7, 7872
7, 21127, Pitch_bend_c, 7, 7808
7, 21129, Pitch_bend_c, 7, 7776
7, 21130, Pitch_bend_c, 7, 7712
7, 21135, Pitch_bend_c, 7, 7744
7, 21139, Pitch_bend_c, 7, 7776
7, 21140, Pitch_bend_c, 7, 7744
7, 21146, Pitch_bend_c, 7, 7840
7, 21147, Pitch_bend_c, 7, 7968
7, 21149, Pitch_bend_c, 7, 8192
7, 21150, Pitch_bend_c, 7, 8608
7, 21151, Pitch_bend_c, 7, 8992
7, 21153, Pitch_bend_c, 7, 9408
7, 21154, Pitch_bend_c, 7, 9696
7, 21155, Pitch_bend_c, 7, 9856
7, 21157, Pitch_bend_c, 7, 9600
7, 21158, Pitch_bend_c, 7, 8992
7, 21159, Pitch_bend_c, 7, 8384
7, 21161, Pitch_bend_c, 7, 7904
7, 21162, Pitch_bend_c, 7, 7648
7, 21164, Pitch_bend_c, 7, 7712
7, 21165, Pitch_bend_c, 7, 7936
7, 21167, Pitch_bend_c, 7, 8352
7, 21168, Pitch_bend_c, 7, 10848
7, 21169, Pitch_bend_c, 7, 11008
7, 21171, Pitch_bend_c, 7, 11040
7, 21172, Pitch_bend_c, 7, 10848
7, 21174, Pitch_bend_c, 7, 8448
7, 21175, Pitch_bend_c, 7, 8288
7, 21176, Pitch_bend_c, 7, 8096
7, 21178, Pitch_bend_c, 7, 7904
7, 21180, Pitch_bend_c, 7, 7776
7, 21181, Pitch_bend_c, 7, 7904
7, 21182, Pitch_bend_c, 7, 8224
7, 21183, Pitch_bend_c, 7, 8768
7, 21185, Pitch_bend_c, 7, 9312
7, 21186, Pitch_bend_c, 7, 9728
7, 21188, Pitch_bend_c, 7, 9888
7, 21189, Pitch_bend_c, 7, 9792
7, 21190, Note_on_c, 7, 70, 0
7, 21585, Note_on_c, 7, 64, 89
7, 21585, Pitch_bend_c, 7, 8192
7, 21586, Pitch_bend_c, 7, 8096
7, 21587, Pitch_bend_c, 7, 8128
7, 21588, Pitch_bend_c, 7, 8096
7, 21591, Pitch_bend_c, 7, 8064
7, 21594, Pitch_bend_c, 7, 8032
7, 21595, Pitch_bend_c, 7, 8000
7, 21599, Pitch_bend_c, 7, 7968
7, 21602, Pitch_bend_c, 7, 7936
7, 21603, Pitch_bend_c, 7, 7904
7, 21610, Pitch_bend_c, 7, 7936
7, 21612, Pitch_bend_c, 7, 8192
7, 21613, Pitch_bend_c, 7, 11936
7, 21615, Pitch_bend_c, 7, 11968
7, 21617, Pitch_bend_c, 7, 12032
7, 21619, Pitch_bend_c, 7, 12064
7, 21621, Pitch_bend_c, 7, 12128
7, 21624, Pitch_bend_c, 7, 12160
7, 21626, Pitch_bend_c, 7, 12096
7, 21627, Note_on_c, 7, 73, 85
7, 21668, Note_on_c, 7, 64, 0
7, 21670, Note_on_c, 7, 73, 0
7, 21681, Note_on_c, 7, 62, 63
7, 21681, Pitch_bend_c, 7, 8384
7, 21682, Pitch_bend_c, 7, 8000
7, 21683, Pitch_bend_c, 7, 8064
7, 21685, Pitch_bend_c, 7, 8096
7, 21687, Pitch_bend_c, 7, 8128
7, 21692, Pitch_bend_c, 7, 8096
7, 21694, Pitch_bend_c, 7, 8064
7, 21696, Pitch_bend_c, 7, 8032
7, 21697, Pitch_bend_c, 7, 8000
7, 21698, Pitch_bend_c, 7, 8032
7, 21700, Pitch_bend_c, 7, 11904
7, 21701, Pitch_bend_c, 7, 11936
7, 21703, Pitch_bend_c, 7, 11968
7, 21704, Pitch_bend_c, 7, 12000
7, 21706, Pitch_bend_c, 7, 12064
7, 21708, Pitch_bend_c, 7, 12096
7, 21710, Pitch_bend_c, 7, 12128
7, 21711, Pitch_bend_c, 7, 12160
7, 21712, Pitch_bend_c, 7, 12192
7, 21717, Pitch_bend_c, 7, 12160
7, 21718, Note_on_c, 7, 71, 71
7, 21770, Note_on_c, 7, 62, 0
7, 21777, Note_on_c, 7, 71, 0
7, 21779, Note_on_c, 7, 65, 93
7, 21779, Pitch_bend_c, 7, 8384
7, 21780, Pitch_bend_c, 7, 8352
7, 21791, Pitch_bend_c, 7, 8384
7, 21792, Pitch_bend_c, 7, 8416
7, 21794, Note_on_c, 7, 65, 0
7, 21795, Pitch_bend_c, 7, 8192
7, 21796, Note_on_c, 7, 63, 70
7, 21796, Pitch_bend_c, 7, 8064
7, 21797, Pitch_bend_c, 7, 7744
7, 21802, Pitch_bend_c, 7, 7968
7, 21803, Pitch_bend_c, 7, 8160
7, 21809, Pitch_bend_c, 7, 8128
7, 21812, Note_on_c, 7, 63, 0
7, 21812, Pitch_bend_c, 7, 8192
7, 21815, Note_on_c, 7, 61, 34
7, 21816, Pitch_bend_c, 7, 8032
7, 21817, Pitch_bend_c, 7, 8064
7, 21820, Pitch_bend_c, 7, 8096
7, 21821, Pitch_bend_c, 7, 8128
7, 21823, Pitch_bend_c, 7, 8160
7, 21824, Pitch_bend_c, 7, 8192
7, 21825, Pitch_bend_c, 7, 8224
7, 21828, Pitch_bend_c, 7, 8192
7, 21829, Pitch_bend_c, 7, 8160
7, 21831, Pitch_bend_c, 7, 8224
7, 21832, Pitch_bend_c, 7, 8672
7, 21834, Pitch_bend_c, 7, 11680
7, 21835, Pitch_bend_c, 7, 11776
7, 21836, Pitch_bend_c, 7, 11840
7, 21838, Pitch_bend_c, 7, 11776
7, 21839, Pitch_bend_c, 7, 9568
7, 21841, Pitch_bend_c, 7, 9280
7, 21842, Pitch_bend_c, 7, 8992
7, 21844, Pitch_bend_c, 7, 8672
7, 21845, Pitch_bend_c, 7, 8320
7, 21846, Pitch_bend_c, 7, 8352
7, 21848, Pitch_bend_c, 7, 8288
7, 21851, Pitch_bend_c, 7, 8320
7, 21852, Pitch_bend_c, 7, 8288
7, 21854, Note_on_c, 7, 61, 0
7, 21854, Pitch_bend_c, 7, 8352
7, 21860, Pitch_bend_c, 7, 8192
7, 21861, Note_on_c, 7, 63, 57
7, 21861, Pitch_bend_c, 7, 8096
7, 21862, Pitch_bend_c, 7, 7904
7, 21864, Pitch_bend_c, 7, 12000
7, 21865, Pitch_bend_c, 7, 12032
7, 21866, Pitch_bend_c, 7, 15968
7, 21870, Pitch_bend_c, 7, 16032
7, 21872, Pitch_bend_c, 7, 16064
7, 21873, Pitch_bend_c, 7, 16128
7, 21875, Note_on_c, 7, 63, 0
7, 21875, Note_on_c, 7, 70, 87
7, 21875, Pitch_bend_c, 7, 8192
7, 21880, Pitch_bend_c, 7, 8160
7, 21882, Pitch_bend_c, 7, 8128
7, 21883, Pitch_bend_c, 7, 8096
7, 21891, Note_on_c, 7, 70, 0
7, 21893, Pitch_bend_c, 7, 8192
7, 21894, Note_on_c, 7, 70, 84
7, 21894, Pitch_bend_c, 7, 8096
7, 21895, Pitch_bend_c, 7, 8032
7, 21899, Pitch_bend_c, 7, 8064
7, 21901, Pitch_bend_c, 7, 8096
7, 21906, Note_on_c, 7, 70, 0
7, 21907, Pitch_bend_c, 7, 8192
7, 21908, Note_on_c, 7, 70, 88
7, 21908, Pitch_bend_c, 7, 8288
7, 21909, Pitch_bend_c, 7, 8192
7, 21911, Pitch_bend_c, 7, 8160
7, 21914, Pitch_bend_c, 7, 8064
7, 21915, Pitch_bend_c, 7, 8032
7, 21917, Pitch_bend_c, 7, 7968
7, 21918, Pitch_bend_c, 7, 7936
7, 21919, Pitch_bend_c, 7, 7968
7, 21921, Pitch_bend_c, 7, 8000
7, 21924, Pitch_bend_c, 7, 8032
7, 21930, Pitch_bend_c, 7, 8000
7, 21936, Pitch_bend_c, 7, 8064
7, 21937, Pitch_bend_c, 7, 8192
7, 21937, Note_on_c, 7, 73, 87
7, 21939, Note_on_c, 7, 70, 0
7, 21940, Pitch_bend_c, 7, 8736
7, 21942, Pitch_bend_c, 7, 8768
7, 21943, Pitch_bend_c, 7, 8832
7, 21945, Pitch_bend_c, 7, 8896
7, 21946, Pitch_bend_c, 7, 8992
7, 21948, Pitch_bend_c, 7, 9184
7, 21949, Pitch_bend_c, 7, 9376
7, 21950, Pitch_bend_c, 7, 9664
7, 21952, Pitch_bend_c, 7, 9952
7, 21953, Pitch_bend_c, 7, 10208
7, 21954, Pitch_bend_c, 7, 10368
7, 21956, Pitch_bend_c, 7, 10464
7, 21957, Pitch_bend_c, 7, 10528
7, 21960, Pitch_bend_c, 7, 10432
7, 21961, Pitch_bend_c, 7, 10304
7, 21962, Note_on_c, 7, 73, 0
7, 21999, Pitch_bend_c, 7, 8192
7, 22003, Note_on_c, 7, 75, 89
7, 22003, Pitch_bend_c, 7, 8064
7, 22004, Pitch_bend_c, 7, 7904
7, 22008, Pitch_bend_c, 7, 8000
7, 22009, Pitch_bend_c, 7, 8192
7, 22010, Pitch_bend_c, 7, 8736
7, 22012, Pitch_bend_c, 7, 11584
7, 22013, Pitch_bend_c, 7, 11968
7, 22014, Pitch_bend_c, 7, 12512
7, 22016, Pitch_bend_c, 7, 13152
7, 22017, Pitch_bend_c, 7, 13728
7, 22018, Pitch_bend_c, 7, 13952
7, 22020, Pitch_bend_c, 7, 13760
7, 22021, Pitch_bend_c, 7, 10816
7, 22023, Pitch_bend_c, 7, 10400
7, 22024, Pitch_bend_c, 7, 7872
7, 22025, Pitch_bend_c, 7, 7904
7, 22027, Pitch_bend_c, 7, 10816
7, 22028, Note_on_c, 7, 75, 0
7, 22029, Pitch_bend_c, 7, 8192
7, 22030, Note_on_c, 7, 73, 82
7, 22030, Pitch_bend_c, 7, 8256
7, 22032, Pitch_bend_c, 7, 8192
7, 22036, Note_on_c, 7, 73, 0
7, 22039, Note_on_c, 7, 70, 80
7, 22039, Pitch_bend_c, 7, 8384
7, 22042, Pitch_bend_c, 7, 8352
7, 22043, Pitch_bend_c, 7, 8320
7, 22044, Pitch_bend_c, 7, 8288
7, 22046, Pitch_bend_c, 7, 8224
7, 22047, Pitch_bend_c, 7, 8192
7, 22048, Pitch_bend_c, 7, 8128
7, 22055, Pitch_bend_c, 7, 8160
7, 22058, Pitch_bend_c, 7, 8192
7, 22061, Pitch_bend_c, 7, 8384
7, 22062, Pitch_bend_c, 7, 8864
7, 22064, Pitch_bend_c, 7, 9504
7, 22065, Pitch_bend_c, 7, 10208
7, 22066, Pitch_bend_c, 7, 10752
7, 22068, Pitch_bend_c, 7, 10944
7, 22069, Pitch_bend_c, 7, 10496
7, 22071, Pitch_bend_c, 7, 7904
7, 22072, Pitch_bend_c, 7, 7936
7, 22074, Pitch_bend_c, 7, 8000
7, 22075, Pitch_bend_c, 7, 8032
7, 22077, Pitch_bend_c, 7, 8064
7, 22078, Pitch_bend_c, 7, 8128
7, 22079, Pitch_bend_c, 7, 8512
7, 22081, Pitch_bend_c, 7, 11232
7, 22082, Pitch_bend_c, 7, 11296
7, 22085, Pitch_bend_c, 7, 11008
7, 22086, Pitch_bend_c, 7, 8640
7, 22088, Pitch_bend_c, 7, 8480
7, 22089, Pitch_bend_c, 7, 8288
7, 22090, Pitch_bend_c, 7, 8192
7, 22092, Pitch_bend_c, 7, 8064
7, 22093, Pitch_bend_c, 7, 8096
7, 22094, Pitch_bend_c, 7, 8256
7, 22096, Pitch_bend_c, 7, 8832
7, 22097, Pitch_bend_c, 7, 9504
7, 22099, Pitch_bend_c, 7, 10208
7, 22100, Pitch_bend_c, 7, 10656
7, 22102, Pitch_bend_c, 7, 10560
7, 22103, Pitch_bend_c, 7, 10144
7, 22104, Pitch_bend_c, 7, 9536
7, 22106, Pitch_bend_c, 7, 8864
7, 22107, Pitch_bend_c, 7, 8256
7, 22108, Pitch_bend_c, 7, 7936
7, 22109, Note_on_c, 7, 70, 0
7, 22109, Pitch_bend_c, 7, 10144
7, 22575, Pitch_bend_c, 7, 8192
7, 22576, Note_on_c, 7, 67, 101
7, 22576, Pitch_bend_c, 7, 8992
7, 22577, Pitch_bend_c, 7, 8192
7, 22577, Note_on_c, 7, 70, 101
7, 22582, Note_on_c, 7, 67, 0
7, 22582, Pitch_bend_c, 7, 8992
7, 22583, Pitch_bend_c, 7, 8960
7, 22584, Pitch_bend_c, 7, 8928
7, 22587, Pitch_bend_c, 7, 8896
7, 22590, Pitch_bend_c, 7, 8832
7, 22591, Pitch_bend_c, 7, 8928
7, 22592, Note_on_c, 7, 70, 0
7, 22593, Pitch_bend_c, 7, 8864
7, 22594, Pitch_bend_c, 7, 8768
7, 22596, Pitch_bend_c, 7, 8736
7, 22597, Pitch_bend_c, 7, 8192
7, 22598, Note_on_c, 7, 70, 85
7, 22598, Pitch_bend_c, 7, 8064
7, 22602, Pitch_bend_c, 7, 8032
7, 22603, Pitch_bend_c, 7, 8000
7, 22604, Pitch_bend_c, 7, 7904
7, 22607, Pitch_bend_c, 7, 7936
7, 22608, Note_on_c, 7, 70, 0
7, 22608, Pitch_bend_c, 7, 8064
7, 22609, Pitch_bend_c, 7, 8192
7, 22610, Note_on_c, 7, 73, 87
7, 22610, Pitch_bend_c, 7, 8864
7, 22611, Pitch_bend_c, 7, 8608
7, 22614, Pitch_bend_c, 7, 8416
7, 22615, Pitch_bend_c, 7, 8384
7, 22618, Pitch_bend_c, 7, 8288
7, 22622, Pitch_bend_c, 7, 8256
7, 22624, Pitch_bend_c, 7, 8224
7, 22626, Pitch_bend_c, 7, 8192
7, 22629, Pitch_bend_c, 7, 8160
7, 22631, Note_on_c, 7, 73, 0
7, 22631, Pitch_bend_c, 7, 8256
7, 22640, Pitch_bend_c, 7, 8192
7, 22641, Note_on_c, 7, 75, 89
7, 22641, Pitch_bend_c, 7, 8544
7, 22642, Pitch_bend_c, 7, 8480
7, 22643, Pitch_bend_c, 7, 8448
7, 22645, Pitch_bend_c, 7, 8416
7, 22646, Pitch_bend_c, 7, 8352
7, 22650, Pitch_bend_c, 7, 8256
7, 22651, Pitch_bend_c, 7, 8192
7, 22653, Pitch_bend_c, 7, 8256
7, 22654, Pitch_bend_c, 7, 8672
7, 22656, Pitch_bend_c, 7, 11264
7, 22657, Pitch_bend_c, 7, 11488
7, 22658, Pitch_bend_c, 7, 11808
7, 22660, Pitch_bend_c, 7, 12192
7, 22661, Pitch_bend_c, 7, 12576
7, 22663, Note_on_c, 7, 75, 0
7, 22663, Pitch_bend_c, 7, 12704
7, 22677, Pitch_bend_c, 7, 8192
7, 22678, Note_on_c, 7, 70, 85
7, 22678, Pitch_bend_c, 7, 8416
7, 22681, Pitch_bend_c, 7, 8448
7, 22682, Pitch_bend_c, 7, 8416
7, 22683, Pitch_bend_c, 7, 8384
7, 22686, Pitch_bend_c, 7, 8352
7, 22688, Pitch_bend_c, 7, 8288
7, 22689, Pitch_bend_c, 7, 8224
7, 22690, Pitch_bend_c, 7, 8160
7, 22692, Pitch_bend_c, 7, 8128
7, 22693, Pitch_bend_c, 7, 8096
7, 22694, Pitch_bend_c, 7, 8064
7, 22696, Pitch_bend_c, 7, 8032
7, 22699, Pitch_bend_c, 7, 8000
7, 22701, Pitch_bend_c, 7, 7968
7, 22703, Pitch_bend_c, 7, 7936
7, 22704, Pitch_bend_c, 7, 7904
7, 22705, Pitch_bend_c, 7, 7840
7, 22710, Pitch_bend_c, 7, 7872
7, 22711, Pitch_bend_c, 7, 7904
7, 22713, Pitch_bend_c, 7, 8032
7, 22714, Pitch_bend_c, 7, 8288
7, 22716, Pitch_bend_c, 7, 8896
7, 22717, Pitch_bend_c, 7, 11232
7, 22718, Pitch_bend_c, 7, 11392
7, 22720, Pitch_bend_c, 7, 11584
7, 22721, Pitch_bend_c, 7, 11712
7, 22723, Pitch_bend_c, 7, 11776
7, 22724, Pitch_bend_c, 7, 9312
7, 22725, Pitch_bend_c, 7, 8896
7, 22727, Pitch_bend_c, 7, 8512
7, 22728, Pitch_bend_c, 7, 8192
7, 22729, Pitch_bend_c, 7, 7840
7, 22731, Pitch_bend_c, 7, 7904
7, 22732, Pitch_bend_c, 7, 8032
7, 22734, Pitch_bend_c, 7, 10304
7, 22735, Pitch_bend_c, 7, 10688
7, 22736, Pitch_bend_c, 7, 11136
7, 22738, Pitch_bend_c, 7, 11520
7, 22739, Pitch_bend_c, 7, 11712
7, 22741, Pitch_bend_c, 7, 9472
7, 22742, Pitch_bend_c, 7, 9088
7, 22743, Pitch_bend_c, 7, 8608
7, 22745, Pitch_bend_c, 7, 8224
7, 22746, Pitch_bend_c, 7, 7808
7, 22747, Pitch_bend_c, 7, 7744
7, 22749, Pitch_bend_c, 7, 7904
7, 22750, Pitch_bend_c, 7, 8192
7, 22751, Pitch_bend_c, 7, 8576
7, 22753, Pitch_bend_c, 7, 8960
7, 22756, Note_on_c, 7, 70, 0
7, 22756, Pitch_bend_c, 7, 8704
7, 23166, Pitch_bend_c, 7, 8192
7, 23169, Note_on_c, 7, 64, 93
7, 23169, Pitch_bend_c, 7, 8352
7, 23170, Pitch_bend_c, 7, 8384
7, 23172, Pitch_bend_c, 7, 8320
7, 23173, Pitch_bend_c, 7, 8288
7, 23174, Pitch_bend_c, 7, 8224
7, 23176, Pitch_bend_c, 7, 8192
7, 23177, Pitch_bend_c, 7, 8096
7, 23179, Pitch_bend_c, 7, 8032
7, 23180, Pitch_bend_c, 7, 7936
7, 23181, Pitch_bend_c, 7, 8128
7, 23183, Pitch_bend_c, 7, 11904
7, 23184, Pitch_bend_c, 7, 11936
7, 23186, Pitch_bend_c, 7, 11968
7, 23188, Pitch_bend_c, 7, 12064
7, 23189, Pitch_bend_c, 7, 12160
7, 23191, Pitch_bend_c, 7, 12224
7, 23192, Pitch_bend_c, 7, 12320
7, 23194, Pitch_bend_c, 7, 12288
7, 23195, Pitch_bend_c, 7, 8864
7, 23196, Pitch_bend_c, 7, 12160
7, 23197, Note_on_c, 7, 64, 0
7, 23197, Pitch_bend_c, 7, 8192
7, 23198, Note_on_c, 7, 65, 89
7, 23202, Pitch_bend_c, 7, 8224
7, 23204, Pitch_bend_c, 7, 8256
7, 23205, Pitch_bend_c, 7, 8288
7, 23208, Pitch_bend_c, 7, 8384
7, 23211, Pitch_bend_c, 7, 8192
7, 23211, Note_on_c, 7, 70, 90
7, 23232, Note_on_c, 7, 65, 0
7, 23233, Note_on_c, 7, 70, 0
7, 23234, Pitch_bend_c, 7, 8224
7, 23237, Pitch_bend_c, 7, 8192
7, 23238, Note_on_c, 7, 68, 89
7, 23238, Pitch_bend_c, 7, 8352
7, 23239, Pitch_bend_c, 7, 8448
7, 23240, Pitch_bend_c, 7, 8512
7, 23241, Pitch_bend_c, 7, 8704
7, 23243, Pitch_bend_c, 7, 8864
7, 23244, Pitch_bend_c, 7, 8832
7, 23246, Note_on_c, 7, 68, 0
7, 23246, Note_on_c, 7, 64, 83
7, 23246, Pitch_bend_c, 7, 12160
7, 23247, Pitch_bend_c, 7, 12192
7, 23249, Pitch_bend_c, 7, 12096
7, 23250, Pitch_bend_c, 7, 12160
7, 23251, Pitch_bend_c, 7, 12224
7, 23253, Pitch_bend_c, 7, 12288
7, 23255, Pitch_bend_c, 7, 12352
7, 23256, Note_on_c, 7, 64, 0
7, 23258, Note_on_c, 7, 63, 85
7, 23258, Pitch_bend_c, 7, 8000
7, 23259, Pitch_bend_c, 7, 8128
7, 23260, Pitch_bend_c, 7, 8192
7, 23261, Pitch_bend_c, 7, 8160
7, 23263, Pitch_bend_c, 7, 8128
7, 23264, Pitch_bend_c, 7, 8064
7, 23266, Pitch_bend_c, 7, 8032
7, 23267, Pitch_bend_c, 7, 8000
7, 23270, Pitch_bend_c, 7, 7968
7, 23271, Pitch_bend_c, 7, 7936
7, 23278, Pitch_bend_c, 7, 7968
7, 23280, Pitch_bend_c, 7, 7936
7, 23281, Note_on_c, 7, 63, 0
7, 23282, Note_on_c, 7, 63, 91
7, 23282, Pitch_bend_c, 7, 8064
7, 23284, Pitch_bend_c, 7, 8320
7, 23286, Pitch_bend_c, 7, 8256
7, 23287, Pitch_bend_c, 7, 8192
7, 23289, Pitch_bend_c, 7, 8160
7, 23291, Pitch_bend_c, 7, 8192
7, 23293, Note_on_c, 7, 63, 0
7, 23293, Note_on_c, 7, 60, 64
7, 23293, Pitch_bend_c, 7, 12096
7, 23296, Pitch_bend_c, 7, 12128
7, 23297, Pitch_bend_c, 7, 12096
7, 23300, Note_on_c, 7, 60, 0
7, 23302, Note_on_c, 7, 58, 72
7, 23302, Pitch_bend_c, 7, 8160
7, 23305, Pitch_bend_c, 7, 8192
7, 23317, Pitch_bend_c, 7, 7968
7, 23318, Note_on_c, 7, 58, 0
7, 23318, Pitch_bend_c, 7, 8192
7, 23332, Note_on_c, 7, 58, 69
7, 23332, Pitch_bend_c, 7, 8128
7, 23333, Pitch_bend_c, 7, 8160
7, 23334, Pitch_bend_c, 7, 8192
7, 23339, Pitch_bend_c, 7, 8032
7, 23340, Pitch_bend_c, 7, 7840
7, 23341, Pitch_bend_c, 7, 8160
7, 23352, Note_on_c, 7, 58, 0
7, 23355, Note_on_c, 7, 58, 57
7, 23356, Pitch_bend_c, 7, 8192
7, 23364, Pitch_bend_c, 7, 8064
7, 23365, Pitch_bend_c, 7, 7904
7, 23366, Note_on_c, 7, 58, 0
7, 23366, Pitch_bend_c, 7, 8192
7, 23368, Note_on_c, 7, 61, 93
7, 23369, Pitch_bend_c, 7, 7872
7, 23371, Pitch_bend_c, 7, 7936
7, 23372, Pitch_bend_c, 7, 7968
7, 23373, Pitch_bend_c, 7, 8000
7, 23375, Pitch_bend_c, 7, 8064
7, 23376, Pitch_bend_c, 7, 8128
7, 23383, Pitch_bend_c, 7, 8064
7, 23384, Pitch_bend_c, 7, 15584
7, 23387, Note_on_c, 7, 61, 0
7, 23387, Note_on_c, 7, 63, 93
7, 23387, Pitch_bend_c, 7, 8096
7, 23389, Pitch_bend_c, 7, 8224
7, 23390, Pitch_bend_c, 7, 8192
7, 23394, Pitch_bend_c, 7, 8224
7, 23395, Pitch_bend_c, 7, 8192
7, 23398, Pitch_bend_c, 7, 8160
7, 23399, Pitch_bend_c, 7, 7872
7, 23401, Pitch_bend_c, 7, 7552
7, 23402, Note_on_c, 7, 63, 0
7, 23402, Pitch_bend_c, 7, 8192
7, 23408, Note_on_c, 7, 61, 95
7, 23409, Pitch_bend_c, 7, 8288
7, 23412, Pitch_bend_c, 7, 8352
7, 23413, Pitch_bend_c, 7, 8320
7, 23415, Pitch_bend_c, 7, 8288
7, 23416, Pitch_bend_c, 7, 8256
7, 23418, Pitch_bend_c, 7, 8192
7, 23419, Pitch_bend_c, 7, 8160
7, 23420, Pitch_bend_c, 7, 8096
7, 23422, Pitch_bend_c, 7, 7936
7, 23423, Pitch_bend_c, 7, 7872
7, 23426, Pitch_bend_c, 7, 8064
7, 23427, Pitch_bend_c, 7, 8448
7, 23428, Pitch_bend_c, 7, 8992
7, 23430, Pitch_bend_c, 7, 9600
7, 23432, Pitch_bend_c, 7, 10240
7, 23433, Pitch_bend_c, 7, 10784
7, 23435, Pitch_bend_c, 7, 11136
7, 23436, Pitch_bend_c, 7, 11200
7, 23437, Pitch_bend_c, 7, 10944
7, 23438, Pitch_bend_c, 7, 10400
7, 23440, Pitch_bend_c, 7, 9824
7, 23441, Note_on_c, 7, 61, 0
7, 23441, Pitch_bend_c, 7, 11136
7, 23443, Note_on_c, 7, 58, 87
7, 23443, Pitch_bend_c, 7, 8224
7, 23444, Pitch_bend_c, 7, 8256
7, 23447, Pitch_bend_c, 7, 8288
7, 23448, Pitch_bend_c, 7, 8352
7, 23450, Pitch_bend_c, 7, 8320
7, 23453, Note_on_c, 7, 58, 0
7, 23453, Pitch_bend_c, 7, 8192
7, 23454, Note_on_c, 7, 56, 80
7, 23455, Pitch_bend_c, 7, 8224
7, 23456, Pitch_bend_c, 7, 8192
7, 23461, Note_on_c, 7, 56, 0
7, 23462, Note_on_c, 7, 53, 67
7, 23462, Pitch_bend_c, 7, 7936
7, 23463, Pitch_bend_c, 7, 7968
7, 23464, Pitch_bend_c, 7, 8000
7, 23471, Pitch_bend_c, 7, 8032
7, 23476, Pitch_bend_c, 7, 8000
7, 23481, Pitch_bend_c, 7, 7968
7, 23483, Pitch_bend_c, 7, 8000
7, 23502, Pitch_bend_c, 7, 7968
7, 23503, Pitch_bend_c, 7, 7936
7, 23505, Pitch_bend_c, 7, 7904
7, 23508, Pitch_bend_c, 7, 7872
7, 23509, Pitch_bend_c, 7, 7936
7, 23510, Note_on_c, 7, 53, 0
7, 23539, Pitch_bend_c, 7, 8192
7, 23540, Pitch_bend_c, 7, 4320
7, 23542, Pitch_bend_c, 7, 4704
7, 23543, Pitch_bend_c, 7, 8192
7, 23543, Note_on_c, 7, 68, 78
7, 23543, Note_on_c, 7, 70, 92
7, 23553, Note_on_c, 7, 68, 0
7, 23556, Note_on_c, 7, 65, 78
7, 23568, Note_on_c, 7, 63, 84
7, 23569, Note_on_c, 7, 70, 0
7, 23570, Note_on_c, 7, 65, 0
7, 23570, Pitch_bend_c, 7, 8064
7, 23574, Pitch_bend_c, 7, 8032
7, 23580, Pitch_bend_c, 7, 8000
7, 23581, Note_on_c, 7, 63, 0
7, 23583, Pitch_bend_c, 7, 8192
7, 23584, Note_on_c, 7, 61, 80
7, 23584, Pitch_bend_c, 7, 8032
7, 23586, Pitch_bend_c, 7, 8064
7, 23598, Pitch_bend_c, 7, 8032
7, 23603, Pitch_bend_c, 7, 8000
7, 23611, Pitch_bend_c, 7, 7968
7, 23613, Pitch_bend_c, 7, 8000
7, 23614, Pitch_bend_c, 7, 8192
7, 23615, Note_on_c, 7, 61, 0
7, 23617, Note_on_c, 7, 58, 82
7, 23623, Pitch_bend_c, 7, 8096
7, 23625, Pitch_bend_c, 7, 8192
7, 23626, Note_on_c, 7, 58, 0
7, 23627, Note_on_c, 7, 56, 70
7, 23627, Pitch_bend_c, 7, 8128
7, 23632, Pitch_bend_c, 7, 8096
7, 23633, Pitch_bend_c, 7, 8128
7, 23637, Pitch_bend_c, 7, 8192
7, 23637, Note_on_c, 7, 53, 67
7, 23638, Note_on_c, 7, 56, 0
7, 23638, Pitch_bend_c, 7, 7840
7, 23642, Pitch_bend_c, 7, 7872
7, 23643, Pitch_bend_c, 7, 7904
7, 23655, Pitch_bend_c, 7, 7872
7, 23671, Pitch_bend_c, 7, 7840
7, 23674, Pitch_bend_c, 7, 7808
7, 23676, Pitch_bend_c, 7, 7744
7, 23677, Note_on_c, 7, 53, 0
7, 23677, Pitch_bend_c, 7, 7680
7, 23700, Note_on_c, 7, 61, 87
7, 23702, Pitch_bend_c, 7, 8192
7, 23703, Note_on_c, 7, 67, 92
7, 23705, Note_on_c, 7, 70, 95
7, 23820, Note_on_c, 7, 61, 0
7, 23821, Note_on_c, 7, 67, 0
7, 23824, Pitch_bend_c, 7, 8288
7, 23826, Pitch_bend_c, 7, 8352
7, 23827, Pitch_bend_c, 7, 8192
7, 23827, Note_on_c, 7, 62, 53
7, 23829, Note_on_c, 7, 65, 54
7, 23830, Note_on_c, 7, 70, 0
7, 23831, Note_on_c, 7, 70, 14
7, 23949, Note_on_c, 7, 70, 0
7, 23951, Note_on_c, 7, 62, 0
7, 23951, Note_on_c, 7, 65, 0
7, 24048, Note_on_c, 7, 64, 62
7, 24048, Pitch_bend_c, 7, 8064
7, 24052, Pitch_bend_c, 7, 8000
7, 24053, Pitch_bend_c, 7, 7968
7, 24055, Pitch_bend_c, 7, 11200
7, 24056, Pitch_bend_c, 7, 11392
7, 24058, Pitch_bend_c, 7, 11584
7, 24059, Pitch_bend_c, 7, 11776
7, 24060, Pitch_bend_c, 7, 12000
7, 24062, Pitch_bend_c, 7, 12064
7, 24064, Pitch_bend_c, 7, 12096
7, 24065, Pitch_bend_c, 7, 12128
7, 24066, Pitch_bend_c, 7, 12160
7, 24072, Pitch_bend_c, 7, 12192
7, 24073, Pitch_bend_c, 7, 12160
7, 24076, Pitch_bend_c, 7, 12096
7, 24077, Pitch_bend_c, 7, 12160
7, 24078, Note_on_c, 7, 64, 0
7, 24078, Pitch_bend_c, 7, 8192
7, 24078, Note_on_c, 7, 74, 84
7, 24097, Pitch_bend_c, 7, 8288
7, 24101, Pitch_bend_c, 7, 8256
7, 24105, Pitch_bend_c, 7, 8192
7, 24108, Pitch_bend_c, 7, 8320
7, 24109, Pitch_bend_c, 7, 8512
7, 24111, Pitch_bend_c, 7, 8832
7, 24112, Pitch_bend_c, 7, 9088
7, 24114, Pitch_bend_c, 7, 9024
7, 24115, Pitch_bend_c, 7, 9152
7, 24117, Pitch_bend_c, 7, 9184
7, 24119, Pitch_bend_c, 7, 9312
7, 24121, Pitch_bend_c, 7, 9024
7, 24122, Pitch_bend_c, 7, 8704
7, 24124, Pitch_bend_c, 7, 8448
7, 24125, Pitch_bend_c, 7, 8320
7, 24128, Pitch_bend_c, 7, 8416
7, 24129, Pitch_bend_c, 7, 8640
7, 24131, Pitch_bend_c, 7, 8960
7, 24132, Pitch_bend_c, 7, 9344
7, 24134, Pitch_bend_c, 7, 9664
7, 24135, Pitch_bend_c, 7, 9920
7, 24136, Pitch_bend_c, 7, 9984
7, 24139, Pitch_bend_c, 7, 9952
7, 24141, Pitch_bend_c, 7, 9600
7, 24142, Pitch_bend_c, 7, 9184
7, 24143, Pitch_bend_c, 7, 8768
7, 24145, Pitch_bend_c, 7, 8384
7, 24146, Pitch_bend_c, 7, 8256
7, 24150, Pitch_bend_c, 7, 8288
7, 24152, Pitch_bend_c, 7, 8384
7, 24153, Pitch_bend_c, 7, 8512
7, 24155, Pitch_bend_c, 7, 8640
7, 24156, Pitch_bend_c, 7, 8704
7, 24157, Pitch_bend_c, 7, 8768
7, 24159, Pitch_bend_c, 7, 8704
7, 24160, Note_on_c, 7, 74, 0
7, 24160, Pitch_bend_c, 7, 8640
7, 24419, Pitch_bend_c, 7, 8192
7, 24420, Note_on_c, 7, 67, 92
7, 24420, Pitch_bend_c, 7, 9056
7, 24421, Pitch_bend_c, 7, 9024
7, 24422, Pitch_bend_c, 7, 8192
7, 24423, Note_on_c, 7, 70, 90
7, 24427, Pitch_bend_c, 7, 8960
7, 24428, Pitch_bend_c, 7, 8896
7, 24430, Note_on_c, 7, 70, 0
7, 24430, Pitch_bend_c, 7, 8800
7, 24431, Pitch_bend_c, 7, 8544
7, 24433, Note_on_c, 7, 67, 0
7, 24433, Pitch_bend_c, 7, 8288
7, 24438, Pitch_bend_c, 7, 8192
7, 24439, Note_on_c, 7, 70, 81
7, 24443, Pitch_bend_c, 7, 8224
7, 24446, Pitch_bend_c, 7, 8192
7, 24447, Pitch_bend_c, 7, 8064
7, 24449, Pitch_bend_c, 7, 7968
7, 24450, Pitch_bend_c, 7, 7904
7, 24451, Pitch_bend_c, 7, 8096
7, 24452, Note_on_c, 7, 70, 0
7, 24452, Pitch_bend_c, 7, 8192
7, 24456, Note_on_c, 7, 73, 86
7, 24457, Pitch_bend_c, 7, 9504
7, 24458, Pitch_bend_c, 7, 9376
7, 24459, Pitch_bend_c, 7, 9024
7, 24460, Pitch_bend_c, 7, 8864
7, 24462, Pitch_bend_c, 7, 8608
7, 24463, Pitch_bend_c, 7, 8448
7, 24464, Pitch_bend_c, 7, 8384
7, 24466, Pitch_bend_c, 7, 8288
7, 24467, Pitch_bend_c, 7, 8256
7, 24469, Pitch_bend_c, 7, 8224
7, 24470, Note_on_c, 7, 73, 0
7, 24470, Pitch_bend_c, 7, 8384
7, 24475, Pitch_bend_c, 7, 8192
7, 24476, Note_on_c, 7, 75, 82
7, 24476, Pitch_bend_c, 7, 8160
7, 24477, Pitch_bend_c, 7, 8128
7, 24480, Pitch_bend_c, 7, 8064
7, 24482, Pitch_bend_c, 7, 8000
7, 24483, Pitch_bend_c, 7, 7904
7, 24485, Pitch_bend_c, 7, 7936
7, 24486, Pitch_bend_c, 7, 7520
7, 24487, Note_on_c, 7, 75, 0
7, 24487, Pitch_bend_c, 7, 8064
7, 24495, Pitch_bend_c, 7, 8192
7, 24496, Note_on_c, 7, 73, 84
7, 24496, Pitch_bend_c, 7, 8416
7, 24497, Pitch_bend_c, 7, 8384
7, 24499, Pitch_bend_c, 7, 8352
7, 24502, Pitch_bend_c, 7, 8288
7, 24504, Pitch_bend_c, 7, 8256
7, 24507, Pitch_bend_c, 7, 8288
7, 24508, Pitch_bend_c, 7, 8352
7, 24510, Pitch_bend_c, 7, 8448
7, 24511, Pitch_bend_c, 7, 8704
7, 24513, Pitch_bend_c, 7, 9024
7, 24514, Pitch_bend_c, 7, 9472
7, 24515, Pitch_bend_c, 7, 10048
7, 24517, Pitch_bend_c, 7, 10560
7, 24518, Pitch_bend_c, 7, 11040
7, 24520, Pitch_bend_c, 7, 11328
7, 24521, Pitch_bend_c, 7, 11456
7, 24523, Pitch_bend_c, 7, 11136
7, 24524, Pitch_bend_c, 7, 8512
7, 24526, Note_on_c, 7, 73, 0
7, 24526, Pitch_bend_c, 7, 11040
7, 24535, Pitch_bend_c, 7, 8192
7, 24536, Note_on_c, 7, 70, 58
7, 24537, Pitch_bend_c, 7, 8160
7, 24540, Pitch_bend_c, 7, 8128
7, 24542, Pitch_bend_c, 7, 8096
7, 24543, Pitch_bend_c, 7, 8064
7, 24544, Pitch_bend_c, 7, 7808
7, 24545, Note_on_c, 7, 70, 0
7, 24545, Pitch_bend_c, 7, 8160
7, 24546, Note_on_c, 7, 68, 44
7, 24546, Pitch_bend_c, 7, 8064
7, 24547, Pitch_bend_c, 7, 8096
7, 24549, Pitch_bend_c, 7, 8128
7, 24551, Pitch_bend_c, 7, 8160
7, 24552, Pitch_bend_c, 7, 8192
7, 24557, Pitch_bend_c, 7, 8128
7, 24558, Pitch_bend_c, 7, 8032
7, 24559, Pitch_bend_c, 7, 8064
7, 24561, Pitch_bend_c, 7, 8384
7, 24563, Pitch_bend_c, 7, 8992
7, 24564, Pitch_bend_c, 7, 9728
7, 24565, Pitch_bend_c, 7, 10368
7, 24567, Pitch_bend_c, 7, 10528
7, 24568, Pitch_bend_c, 7, 10144
7, 24570, Pitch_bend_c, 7, 7936
7, 24571, Pitch_bend_c, 7, 7904
7, 24574, Pitch_bend_c, 7, 7872
7, 24576, Pitch_bend_c, 7, 7840
7, 24577, Pitch_bend_c, 7, 7936
7, 24578, Pitch_bend_c, 7, 8192
7, 24579, Pitch_bend_c, 7, 8864
7, 24581, Pitch_bend_c, 7, 9632
7, 24582, Pitch_bend_c, 7, 10336
7, 24584, Note_on_c, 7, 68, 0
7, 24584, Pitch_bend_c, 7, 10720
7, 24817, Pitch_bend_c, 7, 8192
7, 24820, Note_on_c, 7, 75, 96
7, 24820, Pitch_bend_c, 7, 7776
7, 24823, Pitch_bend_c, 7, 8000
7, 24824, Pitch_bend_c, 7, 8448
7, 24826, Pitch_bend_c, 7, 11264
7, 24827, Pitch_bend_c, 7, 11584
7, 24829, Pitch_bend_c, 7, 12128
7, 24830, Pitch_bend_c, 7, 12864
7, 24832, Pitch_bend_c, 7, 13728
7, 24833, Pitch_bend_c, 7, 14304
7, 24834, Pitch_bend_c, 7, 14688
7, 24836, Pitch_bend_c, 7, 14912
7, 24837, Pitch_bend_c, 7, 15072
7, 24838, Pitch_bend_c, 7, 15168
7, 24844, Pitch_bend_c, 7, 15104
7, 24845, Pitch_bend_c, 7, 15008
7, 24847, Pitch_bend_c, 7, 14912
7, 24848, Pitch_bend_c, 7, 14720
7, 24850, Pitch_bend_c, 7, 14528
7, 24851, Note_on_c, 7, 75, 0
7, 24851, Pitch_bend_c, 7, 15008
7, 24854, Note_on_c, 7, 76, 79
7, 24854, Pitch_bend_c, 7, 5600
7, 24857, Pitch_bend_c, 7, 5216
7, 24859, Pitch_bend_c, 7, 4672
7, 24860, Pitch_bend_c, 7, 4160
7, 24861, Pitch_bend_c, 7, 3712
7, 24863, Pitch_bend_c, 7, 3584
7, 24864, Pitch_bend_c, 7, 3712
7, 24866, Pitch_bend_c, 7, 3904
7, 24867, Note_on_c, 7, 76, 0
7, 24867, Note_on_c, 7, 72, 69
7, 24867, Pitch_bend_c, 7, 12000
7, 24872, Pitch_bend_c, 7, 12032
7, 24873, Pitch_bend_c, 7, 12064
7, 24875, Pitch_bend_c, 7, 12128
7, 24876, Note_on_c, 7, 72, 0
7, 24876, Pitch_bend_c, 7, 8192
7, 24876, Note_on_c, 7, 70, 87
7, 24885, Pitch_bend_c, 7, 8448
7, 24886, Pitch_bend_c, 7, 8384
7, 24888, Pitch_bend_c, 7, 8352
7, 24892, Pitch_bend_c, 7, 8320
7, 24893, Pitch_bend_c, 7, 8256
7, 24894, Pitch_bend_c, 7, 8224
7, 24896, Pitch_bend_c, 7, 8192
7, 24897, Pitch_bend_c, 7, 8096
7, 24900, Pitch_bend_c, 7, 8064
7, 24901, Pitch_bend_c, 7, 8032
7, 24903, Pitch_bend_c, 7, 7968
7, 24904, Pitch_bend_c, 7, 7904
7, 24905, Pitch_bend_c, 7, 7840
7, 24909, Note_on_c, 7, 70, 0
7, 24909, Pitch_bend_c, 7, 7712
7, 24910, Pitch_bend_c, 7, 8192
7, 24911, Note_on_c, 7, 73, 89
7, 24912, Pitch_bend_c, 7, 8384
7, 24916, Pitch_bend_c, 7, 8416
7, 24918, Pitch_bend_c, 7, 8448
7, 24919, Pitch_bend_c, 7, 8512
7, 24926, Pitch_bend_c, 7, 8544
7, 24928, Pitch_bend_c, 7, 8608
7, 24929, Pitch_bend_c, 7, 8672
7, 24932, Pitch_bend_c, 7, 8704
7, 24933, Pitch_bend_c, 7, 8736
7, 24935, Pitch_bend_c, 7, 8832
7, 24936, Pitch_bend_c, 7, 8992
7, 24937, Pitch_bend_c, 7, 9216
7, 24939, Pitch_bend_c, 7, 9760
7, 24940, Pitch_bend_c, 7, 10400
7, 24942, Pitch_bend_c, 7, 11072
7, 24943, Pitch_bend_c, 7, 11712
7, 24944, Pitch_bend_c, 7, 12128
7, 24946, Note_on_c, 7, 73, 0
7, 25579, Pitch_bend_c, 7, 8192
7, 25580, Note_on_c, 7, 67, 95
7, 25580, Pitch_bend_c, 7, 8992
7, 25581, Pitch_bend_c, 7, 9024
7, 25582, Pitch_bend_c, 7, 8192
7, 25582, Note_on_c, 7, 70, 93
7, 25587, Pitch_bend_c, 7, 8992
7, 25588, Pitch_bend_c, 7, 8928
7, 25590, Pitch_bend_c, 7, 8864
7, 25591, Note_on_c, 7, 70, 0
7, 25591, Pitch_bend_c, 7, 8768
7, 25593, Pitch_bend_c, 7, 8640
7, 25594, Pitch_bend_c, 7, 8416
7, 25595, Note_on_c, 7, 67, 0
7, 25600, Note_on_c, 7, 70, 85
7, 25600, Pitch_bend_c, 7, 8192
7, 25601, Pitch_bend_c, 7, 8224
7, 25602, Pitch_bend_c, 7, 8256
7, 25605, Pitch_bend_c, 7, 8224
7, 25606, Pitch_bend_c, 7, 8192
7, 25608, Pitch_bend_c, 7, 8160
7, 25610, Pitch_bend_c, 7, 8128
7, 25611, Pitch_bend_c, 7, 8096
7, 25613, Pitch_bend_c, 7, 8064
7, 25614, Pitch_bend_c, 7, 8128
7, 25615, Note_on_c, 7, 70, 0
7, 25615, Pitch_bend_c, 7, 8160
7, 25618, Pitch_bend_c, 7, 8192
7, 25620, Note_on_c, 7, 73, 89
7, 25620, Pitch_bend_c, 7, 8448
7, 25624, Pitch_bend_c, 7, 8416
7, 25626, Pitch_bend_c, 7, 8352
7, 25627, Pitch_bend_c, 7, 8256
7, 25628, Pitch_bend_c, 7, 8224
7, 25632, Pitch_bend_c, 7, 8192
7, 25634, Pitch_bend_c, 7, 8224
7, 25635, Note_on_c, 7, 73, 0
7, 25635, Pitch_bend_c, 7, 8352
7, 25641, Pitch_bend_c, 7, 8192
7, 25642, Note_on_c, 7, 75, 89
7, 25642, Pitch_bend_c, 7, 8256
7, 25646, Pitch_bend_c, 7, 8224
7, 25649, Pitch_bend_c, 7, 8192
7, 25650, Pitch_bend_c, 7, 8224
7, 25652, Pitch_bend_c, 7, 8320
7, 25654, Pitch_bend_c, 7, 8544
7, 25656, Pitch_bend_c, 7, 8896
7, 25657, Pitch_bend_c, 7, 9440
7, 25658, Pitch_bend_c, 7, 10144
7, 25660, Pitch_bend_c, 7, 10912
7, 25661, Pitch_bend_c, 7, 11552
7, 25662, Pitch_bend_c, 7, 12000
7, 25664, Pitch_bend_c, 7, 12224
7, 25665, Pitch_bend_c, 7, 12288
7, 25667, Note_on_c, 7, 75, 0
7, 25667, Pitch_bend_c, 7, 12032
7, 25670, Pitch_bend_c, 7, 8192
7, 25671, Note_on_c, 7, 77, 88
7, 25671, Pitch_bend_c, 7, 8576
7, 25672, Pitch_bend_c, 7, 8640
7, 25678, Pitch_bend_c, 7, 8576
7, 25679, Pitch_bend_c, 7, 8640
7, 25682, Pitch_bend_c, 7, 8672
7, 25684, Pitch_bend_c, 7, 8736
7, 25686, Pitch_bend_c, 7, 8800
7, 25687, Note_on_c, 7, 77, 0
7, 25695, Pitch_bend_c, 7, 8192
7, 25696, Note_on_c, 7, 73, 89
7, 25697, Pitch_bend_c, 7, 8352
7, 25700, Pitch_bend_c, 7, 8288
7, 25701, Pitch_bend_c, 7, 8384
7, 25703, Pitch_bend_c, 7, 8512
7, 25704, Pitch_bend_c, 7, 8704
7, 25705, Pitch_bend_c, 7, 8992
7, 25707, Pitch_bend_c, 7, 9216
7, 25708, Pitch_bend_c, 7, 9472
7, 25710, Pitch_bend_c, 7, 9696
7, 25711, Pitch_bend_c, 7, 9984
7, 25712, Pitch_bend_c, 7, 10304
7, 25714, Pitch_bend_c, 7, 10720
7, 25715, Pitch_bend_c, 7, 11232
7, 25717, Pitch_bend_c, 7, 11808
7, 25718, Pitch_bend_c, 7, 12288
7, 25719, Pitch_bend_c, 7, 12672
7, 25721, Note_on_c, 7, 73, 0
7, 25721, Pitch_bend_c, 7, 12800
7, 25735, Note_on_c, 7, 70, 83
7, 25735, Pitch_bend_c, 7, 7872
7, 25737, Pitch_bend_c, 7, 7840
7, 25738, Pitch_bend_c, 7, 7904
7, 25740, Pitch_bend_c, 7, 7936
7, 25741, Pitch_bend_c, 7, 7968
7, 25744, Pitch_bend_c, 7, 7904
7, 25745, Pitch_bend_c, 7, 7808
7, 25746, Pitch_bend_c, 7, 7680
7, 25748, Pitch_bend_c, 7, 7648
7, 25749, Pitch_bend_c, 7, 7584
7, 25752, Pitch_bend_c, 7, 7648
7, 25755, Pitch_bend_c, 7, 7680
7, 25756, Pitch_bend_c, 7, 7712
7, 25758, Pitch_bend_c, 7, 7872
7, 25759, Pitch_bend_c, 7, 8224
7, 25760, Pitch_bend_c, 7, 8832
7, 25762, Pitch_bend_c, 7, 9536
7, 25763, Pitch_bend_c, 7, 10208
7, 25764, Pitch_bend_c, 7, 10656
7, 25766, Pitch_bend_c, 7, 10848
7, 25767, Pitch_bend_c, 7, 10592
7, 25769, Pitch_bend_c, 7, 8160
7, 25770, Pitch_bend_c, 7, 8064
7, 25772, Pitch_bend_c, 7, 8000
7, 25773, Pitch_bend_c, 7, 7904
7, 25774, Pitch_bend_c, 7, 7808
7, 25777, Pitch_bend_c, 7, 8032
7, 25779, Pitch_bend_c, 7, 8576
7, 25780, Pitch_bend_c, 7, 11200
7, 25781, Pitch_bend_c, 7, 11296
7, 25783, Pitch_bend_c, 7, 11360
7, 25785, Pitch_bend_c, 7, 11008
7, 25786, Pitch_bend_c, 7, 8288
7, 25787, Pitch_bend_c, 7, 8192
7, 25789, Pitch_bend_c, 7, 8096
7, 25790, Pitch_bend_c, 7, 8000
7, 25792, Pitch_bend_c, 7, 7904
7, 25793, Pitch_bend_c, 7, 7872
7, 25794, Pitch_bend_c, 7, 7968
7, 25796, Pitch_bend_c, 7, 8352
7, 25797, Pitch_bend_c, 7, 9024
7, 25799, Pitch_bend_c, 7, 9760
7, 25800, Pitch_bend_c, 7, 10240
7, 25801, Pitch_bend_c, 7, 10080
7, 25802, Note_on_c, 7, 70, 0
7, 26159, Note_on_c, 7, 63, 81
7, 26159, Pitch_bend_c, 7, 8576
7, 26161, Pitch_bend_c, 7, 8672
7, 26162, Pitch_bend_c, 7, 8736
7, 26164, Pitch_bend_c, 7, 8960
7, 26165, Pitch_bend_c, 7, 9344
7, 26166, Pitch_bend_c, 7, 9920
7, 26168, Pitch_bend_c, 7, 10624
7, 26169, Pitch_bend_c, 7, 11264
7, 26171, Pitch_bend_c, 7, 11808
7, 26172, Pitch_bend_c, 7, 12192
7, 26173, Pitch_bend_c, 7, 12480
7, 26175, Pitch_bend_c, 7, 12704
7, 26176, Pitch_bend_c, 7, 12896
7, 26177, Pitch_bend_c, 7, 13088
7, 26179, Pitch_bend_c, 7, 13344
7, 26181, Pitch_bend_c, 7, 13536
7, 26182, Pitch_bend_c, 7, 13728
7, 26184, Pitch_bend_c, 7, 13888
7, 26185, Pitch_bend_c, 7, 13952
7, 26186, Pitch_bend_c, 7, 14048
7, 26188, Pitch_bend_c, 7, 14144
7, 26189, Pitch_bend_c, 7, 14272
7, 26191, Pitch_bend_c, 7, 14432
7, 26192, Pitch_bend_c, 7, 14528
7, 26193, Pitch_bend_c, 7, 14592
7, 26195, Pitch_bend_c, 7, 14656
7, 26196, Pitch_bend_c, 7, 14720
7, 26198, Pitch_bend_c, 7, 14784
7, 26199, Pitch_bend_c, 7, 14816
7, 26200, Pitch_bend_c, 7, 14880
7, 26202, Pitch_bend_c, 7, 14912
7, 26203, Pitch_bend_c, 7, 14944
7, 26204, Pitch_bend_c, 7, 14976
7, 26209, Pitch_bend_c, 7, 15008
7, 26210, Pitch_bend_c, 7, 15072
7, 26212, Pitch_bend_c, 7, 15104
7, 26213, Pitch_bend_c, 7, 15168
7, 26214, Pitch_bend_c, 7, 15200
7, 26228, Pitch_bend_c, 7, 15232
7, 26229, Pitch_bend_c, 7, 15296
7, 26230, Pitch_bend_c, 7, 15392
7, 26232, Pitch_bend_c, 7, 15456
7, 26233, Pitch_bend_c, 7, 15520
7, 26234, Pitch_bend_c, 7, 15584
7, 26240, Pitch_bend_c, 7, 15488
7, 26242, Pitch_bend_c, 7, 15296
7, 26243, Pitch_bend_c, 7, 15136
7, 26244, Pitch_bend_c, 7, 15008
7, 26246, Pitch_bend_c, 7, 14912
7, 26247, Pitch_bend_c, 7, 14944
7, 26248, Pitch_bend_c, 7, 15072
7, 26250, Pitch_bend_c, 7, 15328
7, 26251, Pitch_bend_c, 7, 15680
7, 26253, Pitch_bend_c, 7, 15968
7, 26254, Pitch_bend_c, 7, 16256
7, 26255, Pitch_bend_c, 7, 16383
7, 26257, Pitch_bend_c, 7, 16224
7, 26258, Pitch_bend_c, 7, 15904
7, 26260, Pitch_bend_c, 7, 15520
7, 26261, Pitch_bend_c, 7, 15232
7, 26262, Pitch_bend_c, 7, 15104
7, 26264, Pitch_bend_c, 7, 15200
7, 26265, Pitch_bend_c, 7, 15424
7, 26267, Pitch_bend_c, 7, 15680
7, 26268, Pitch_bend_c, 7, 15872
7, 26270, Pitch_bend_c, 7, 16064
7, 26272, Pitch_bend_c, 7, 15968
7, 26274, Note_on_c, 7, 63, 0
7, 26293, Note_on_c, 7, 58, 87
7, 26293, Pitch_bend_c, 7, 8320
7, 26294, Pitch_bend_c, 7, 8352
7, 26300, Pitch_bend_c, 7, 8320
7, 26305, Note_on_c, 7, 58, 0
7, 26308, Pitch_bend_c, 7, 8192
7, 26309, Note_on_c, 7, 61, 94
7, 26311, Pitch_bend_c, 7, 8224
7, 26312, Pitch_bend_c, 7, 8256
7, 26313, Pitch_bend_c, 7, 8288
7, 26317, Pitch_bend_c, 7, 8256
7, 26320, Pitch_bend_c, 7, 8288
7, 26321, Note_on_c, 7, 61, 0
7, 26323, Pitch_bend_c, 7, 8192
7, 26324, Note_on_c, 7, 63, 92
7, 26325, Pitch_bend_c, 7, 8256
7, 26326, Pitch_bend_c, 7, 8320
7, 26329, Pitch_bend_c, 7, 8384
7, 26330, Pitch_bend_c, 7, 8416
7, 26331, Pitch_bend_c, 7, 8448
7, 26334, Note_on_c, 7, 63, 0
7, 26334, Pitch_bend_c, 7, 8416
7, 26347, Pitch_bend_c, 7, 8192
7, 26347, Note_on_c, 7, 64, 84
7, 26349, Pitch_bend_c, 7, 7744
7, 26351, Pitch_bend_c, 7, 7712
7, 26352, Pitch_bend_c, 7, 7648
7, 26353, Pitch_bend_c, 7, 7488
7, 26355, Pitch_bend_c, 7, 7104
7, 26356, Pitch_bend_c, 7, 6464
7, 26358, Pitch_bend_c, 7, 5792
7, 26359, Pitch_bend_c, 7, 5120
7, 26361, Pitch_bend_c, 7, 4640
7, 26362, Pitch_bend_c, 7, 4384
7, 26363, Pitch_bend_c, 7, 4256
7, 26365, Pitch_bend_c, 7, 4192
7, 26367, Pitch_bend_c, 7, 4160
7, 26369, Pitch_bend_c, 7, 4128
7, 26370, Pitch_bend_c, 7, 4032
7, 26371, Note_on_c, 7, 64, 0
7, 26374, Pitch_bend_c, 7, 8192
7, 26375, Note_on_c, 7, 61, 82
7, 26375, Pitch_bend_c, 7, 8128
7, 26383, Pitch_bend_c, 7, 8160
7, 26385, Note_on_c, 7, 61, 0
7, 26385, Pitch_bend_c, 7, 8384
7, 26387, Pitch_bend_c, 7, 8192
7, 26388, Note_on_c, 7, 58, 53
7, 26388, Pitch_bend_c, 7, 8128
7, 26395, Pitch_bend_c, 7, 8160
7, 26398, Pitch_bend_c, 7, 8192
7, 26403, Pitch_bend_c, 7, 8160
7, 26411, Pitch_bend_c, 7, 8192
7, 26413, Note_on_c, 7, 58, 0
7, 26416, Note_on_c, 7, 61, 93
7, 26417, Pitch_bend_c, 7, 7872
7, 26418, Pitch_bend_c, 7, 7936
7, 26420, Pitch_bend_c, 7, 8000
7, 26421, Pitch_bend_c, 7, 8032
7, 26422, Pitch_bend_c, 7, 8064
7, 26424, Pitch_bend_c, 7, 8128
7, 26425, Pitch_bend_c, 7, 8096
7, 26427, Pitch_bend_c, 7, 8128
7, 26428, Note_on_c, 7, 61, 0
7, 26430, Pitch_bend_c, 7, 8192
7, 26431, Note_on_c, 7, 62, 93
7, 26431, Pitch_bend_c, 7, 8288
7, 26433, Pitch_bend_c, 7, 8160
7, 26435, Pitch_bend_c, 7, 8128
7, 26436, Pitch_bend_c, 7, 8032
7, 26439, Pitch_bend_c, 7, 8192
7, 26441, Pitch_bend_c, 7, 8320
7, 26442, Note_on_c, 7, 62, 0
7, 26445, Pitch_bend_c, 7, 8192
7, 26446, Note_on_c, 7, 65, 94
7, 26446, Pitch_bend_c, 7, 8288
7, 26452, Pitch_bend_c, 7, 8256
7, 26455, Pitch_bend_c, 7, 8288
7, 26456, Note_on_c, 7, 65, 0
7, 26460, Note_on_c, 7, 70, 97
7, 26460, Pitch_bend_c, 7, 8384
7, 26470, Pitch_bend_c, 7, 8352
7, 26473, Pitch_bend_c, 7, 8320
7, 26476, Note_on_c, 7, 70, 0
7, 26476, Pitch_bend_c, 7, 8416
7, 26479, Pitch_bend_c, 7, 8192
7, 26480, Note_on_c, 7, 69, 84
7, 26481, Pitch_bend_c, 7, 4448
7, 26484, Pitch_bend_c, 7, 4512
7, 26485, Pitch_bend_c, 7, 4576
7, 26487, Pitch_bend_c, 7, 4512
7, 26488, Pitch_bend_c, 7, 4448
7, 26489, Pitch_bend_c, 7, 4384
7, 26491, Note_on_c, 7, 69, 0
7, 26491, Pitch_bend_c, 7, 4576
7, 26495, Pitch_bend_c, 7, 8192
7, 26496, Note_on_c, 7, 70, 95
7, 26496, Pitch_bend_c, 7, 8320
7, 26497, Pitch_bend_c, 7, 8352
7, 26500, Pitch_bend_c, 7, 8320
7, 26515, Note_on_c, 7, 70, 0
7, 26521, Pitch_bend_c, 7, 8192
7, 26522, Note_on_c, 7, 68, 87
7, 26522, Pitch_bend_c, 7, 9408
7, 26523, Pitch_bend_c, 7, 8448
7, 26525, Pitch_bend_c, 7, 8352
7, 26527, Pitch_bend_c, 7, 8288
7, 26529, Pitch_bend_c, 7, 8192
7, 26530, Pitch_bend_c, 7, 11872
7, 26531, Pitch_bend_c, 7, 12096
7, 26533, Pitch_bend_c, 7, 16032
7, 26534, Pitch_bend_c, 7, 16064
7, 26535, Pitch_bend_c, 7, 16128
7, 26537, Pitch_bend_c, 7, 16224
7, 26538, Pitch_bend_c, 7, 16320
7, 26540, Pitch_bend_c, 7, 16352
7, 26542, Pitch_bend_c, 7, 16288
7, 26544, Pitch_bend_c, 7, 16224
7, 26545, Pitch_bend_c, 7, 16192
7, 26547, Pitch_bend_c, 7, 16352
7, 26548, Note_on_c, 7, 68, 0
7, 26551, Pitch_bend_c, 7, 8192
7, 26552, Note_on_c, 7, 73, 88
7, 26552, Pitch_bend_c, 7, 8512
7, 26560, Pitch_bend_c, 7, 8544
7, 26561, Pitch_bend_c, 7, 8864
7, 26562, Note_on_c, 7, 73, 0
7, 26564, Pitch_bend_c, 7, 8192
7, 26565, Note_on_c, 7, 75, 89
7, 26565, Pitch_bend_c, 7, 8320
7, 26572, Pitch_bend_c, 7, 8352
7, 26573, Pitch_bend_c, 7, 8480
7, 26575, Note_on_c, 7, 75, 0
7, 26587, Pitch_bend_c, 7, 8192
7, 26589, Note_on_c, 7, 76, 90
7, 26589, Pitch_bend_c, 7, 8480
7, 26594, Pitch_bend_c, 7, 8384
7, 26595, Pitch_bend_c, 7, 8224
7, 26597, Pitch_bend_c, 7, 8128
7, 26598, Pitch_bend_c, 7, 7936
7, 26600, Pitch_bend_c, 7, 7648
7, 26601, Pitch_bend_c, 7, 7104
7, 26602, Pitch_bend_c, 7, 4672
7, 26604, Pitch_bend_c, 7, 4512
7, 26605, Pitch_bend_c, 7, 4384
7, 26607, Pitch_bend_c, 7, 4256
7, 26608, Pitch_bend_c, 7, 4128
7, 26609, Pitch_bend_c, 7, 3840
7, 26610, Note_on_c, 7, 76, 0
7, 26610, Pitch_bend_c, 7, 4512
7, 26613, Pitch_bend_c, 7, 8192
7, 26613, Note_on_c, 7, 73, 87
7, 26614, Pitch_bend_c, 7, 8384
7, 26618, Pitch_bend_c, 7, 8416
7, 26621, Pitch_bend_c, 7, 8192
7, 26622, Note_on_c, 7, 73, 0
7, 26622, Note_on_c, 7, 70, 74
7, 26624, Pitch_bend_c, 7, 8224
7, 26626, Pitch_bend_c, 7, 8256
7, 26627, Pitch_bend_c, 7, 8288
7, 26630, Pitch_bend_c, 7, 8256
7, 26631, Pitch_bend_c, 7, 8224
7, 26633, Pitch_bend_c, 7, 8192
7, 26634, Pitch_bend_c, 7, 8128
7, 26635, Pitch_bend_c, 7, 8064
7, 26637, Pitch_bend_c, 7, 8000
7, 26639, Pitch_bend_c, 7, 8096
7, 26641, Pitch_bend_c, 7, 8192
7, 26642, Pitch_bend_c, 7, 10528
7, 26644, Pitch_bend_c, 7, 10752
7, 26645, Pitch_bend_c, 7, 11008
7, 26646, Pitch_bend_c, 7, 11168
7, 26649, Pitch_bend_c, 7, 8992
7, 26651, Pitch_bend_c, 7, 8768
7, 26652, Pitch_bend_c, 7, 8512
7, 26653, Pitch_bend_c, 7, 8288
7, 26655, Pitch_bend_c, 7, 8128
7, 26656, Pitch_bend_c, 7, 8096
7, 26658, Pitch_bend_c, 7, 8160
7, 26659, Pitch_bend_c, 7, 8384
7, 26661, Pitch_bend_c, 7, 8704
7, 26662, Pitch_bend_c, 7, 9056
7, 26663, Pitch_bend_c, 7, 9216
7, 26665, Pitch_bend_c, 7, 8928
7, 26666, Pitch_bend_c, 7, 8480
7, 26668, Pitch_bend_c, 7, 8192
7, 26669, Pitch_bend_c, 7, 8032
7, 26672, Pitch_bend_c, 7, 8096
7, 26673, Note_on_c, 7, 70, 0
7, 27140, Pitch_bend_c, 7, 8192
7, 27144, Note_on_c, 7, 72, 85
7, 27144, Pitch_bend_c, 7, 8512
7, 27145, Pitch_bend_c, 7, 8608
7, 27146, Pitch_bend_c, 7, 8544
7, 27148, Pitch_bend_c, 7, 8448
7, 27149, Pitch_bend_c, 7, 8480
7, 27150, Pitch_bend_c, 7, 8416
7, 27152, Pitch_bend_c, 7, 8352
7, 27154, Pitch_bend_c, 7, 8320
7, 27156, Pitch_bend_c, 7, 8544
7, 27157, Pitch_bend_c, 7, 9120
7, 27159, Pitch_bend_c, 7, 11456
7, 27160, Pitch_bend_c, 7, 11616
7, 27161, Pitch_bend_c, 7, 11808
7, 27163, Pitch_bend_c, 7, 12064
7, 27164, Pitch_bend_c, 7, 12352
7, 27166, Pitch_bend_c, 7, 12448
7, 27167, Pitch_bend_c, 7, 12096
7, 27169, Pitch_bend_c, 7, 9536
7, 27170, Pitch_bend_c, 7, 9280
7, 27172, Pitch_bend_c, 7, 8864
7, 27173, Pitch_bend_c, 7, 8448
7, 27174, Pitch_bend_c, 7, 8032
7, 27176, Pitch_bend_c, 7, 7904
7, 27178, Pitch_bend_c, 7, 7936
7, 27180, Pitch_bend_c, 7, 8000
7, 27181, Pitch_bend_c, 7, 8096
7, 27182, Pitch_bend_c, 7, 8128
7, 27184, Pitch_bend_c, 7, 8160
7, 27185, Pitch_bend_c, 7, 8000
7, 27186, Note_on_c, 7, 72, 0
7, 27189, Pitch_bend_c, 7, 8192
7, 27190, Note_on_c, 7, 70, 84
7, 27190, Pitch_bend_c, 7, 8544
7, 27192, Pitch_bend_c, 7, 8512
7, 27196, Pitch_bend_c, 7, 8480
7, 27199, Pitch_bend_c, 7, 8512
7, 27200, Note_on_c, 7, 70, 0
7, 27201, Pitch_bend_c, 7, 8192
7, 27202, Note_on_c, 7, 67, 87
7, 27203, Pitch_bend_c, 7, 8000
7, 27205, Pitch_bend_c, 7, 7968
7, 27206, Pitch_bend_c, 7, 7936
7, 27213, Pitch_bend_c, 7, 7744
7, 27215, Note_on_c, 7, 67, 0
7, 27215, Pitch_bend_c, 7, 8192
7, 27215, Note_on_c, 7, 70, 87
7, 27216, Pitch_bend_c, 7, 8480
7, 27217, Pitch_bend_c, 7, 8352
7, 27219, Pitch_bend_c, 7, 8320
7, 27220, Pitch_bend_c, 7, 8288
7, 27224, Pitch_bend_c, 7, 8192
7, 27225, Note_on_c, 7, 70, 0
7, 27228, Note_on_c, 7, 69, 84
7, 27228, Pitch_bend_c, 7, 7776
7, 27229, Pitch_bend_c, 7, 7872
7, 27230, Pitch_bend_c, 7, 7904
7, 27232, Pitch_bend_c, 7, 7968
7, 27233, Pitch_bend_c, 7, 8096
7, 27235, Pitch_bend_c, 7, 8288
7, 27236, Pitch_bend_c, 7, 8640
7, 27237, Pitch_bend_c, 7, 9120
7, 27239, Pitch_bend_c, 7, 9696
7, 27240, Pitch_bend_c, 7, 10240
7, 27242, Pitch_bend_c, 7, 10752
7, 27243, Pitch_bend_c, 7, 11104
7, 27244, Pitch_bend_c, 7, 11392
7, 27246, Pitch_bend_c, 7, 11616
7, 27247, Pitch_bend_c, 7, 11776
7, 27248, Pitch_bend_c, 7, 11904
7, 27250, Pitch_bend_c, 7, 11968
7, 27256, Pitch_bend_c, 7, 12000
7, 27266, Pitch_bend_c, 7, 11968
7, 27270, Pitch_bend_c, 7, 11936
7, 27277, Pitch_bend_c, 7, 11968
7, 27279, Pitch_bend_c, 7, 12000
7, 27283, Pitch_bend_c, 7, 11872
7, 27285, Pitch_bend_c, 7, 11552
7, 27286, Pitch_bend_c, 7, 11200
7, 27288, Pitch_bend_c, 7, 10848
7, 27289, Pitch_bend_c, 7, 10592
7, 27290, Pitch_bend_c, 7, 10656
7, 27292, Pitch_bend_c, 7, 11040
7, 27293, Pitch_bend_c, 7, 11552
7, 27295, Pitch_bend_c, 7, 12224
7, 27296, Pitch_bend_c, 7, 12896
7, 27298, Pitch_bend_c, 7, 13280
7, 27299, Pitch_bend_c, 7, 13536
7, 27301, Pitch_bend_c, 7, 13248
7, 27302, Pitch_bend_c, 7, 10144
7, 27304, Pitch_bend_c, 7, 10016
7, 27305, Pitch_bend_c, 7, 9952
7, 27306, Pitch_bend_c, 7, 10176
7, 27308, Pitch_bend_c, 7, 10624
7, 27309, Pitch_bend_c, 7, 11296
7, 27311, Pitch_bend_c, 7, 11968
7, 27312, Pitch_bend_c, 7, 12480
7, 27313, Pitch_bend_c, 7, 12800
7, 27315, Pitch_bend_c, 7, 13024
7, 27316, Pitch_bend_c, 7, 12960
7, 27317, Pitch_bend_c, 7, 10752
7, 27319, Pitch_bend_c, 7, 10688
7, 27320, Note_on_c, 7, 69, 0
7, 27320, Pitch_bend_c, 7, 12800
7, 27760, Pitch_bend_c, 7, 8192
7, 27761, Note_on_c, 7, 68, 84
7, 27761, Pitch_bend_c, 7, 8544
7, 27762, Pitch_bend_c, 7, 8192
7, 27762, Note_on_c, 7, 70, 95
7, 27820, Note_on_c, 7, 70, 0
7, 27825, Note_on_c, 7, 70, 93
7, 27856, Note_on_c, 7, 68, 0
7, 27857, Note_on_c, 7, 70, 0
7, 27859, Note_on_c, 7, 67, 95
7, 27859, Note_on_c, 7, 70, 87
7, 27919, Note_on_c, 7, 70, 0
7, 27921, Pitch_bend_c, 7, 8160
7, 27923, Pitch_bend_c, 7, 8192
7, 27923, Note_on_c, 7, 70, 88
7, 27950, Note_on_c, 7, 67, 0
7, 27951, Pitch_bend_c, 7, 8448
7, 27952, Pitch_bend_c, 7, 8416
7, 27954, Note_on_c, 7, 70, 0
7, 27954, Note_on_c, 7, 66, 90
7, 27954, Pitch_bend_c, 7, 8192
7, 27957, Note_on_c, 7, 70, 89
7, 28015, Note_on_c, 7, 70, 0
7, 28018, Note_on_c, 7, 70, 91
7, 28046, Note_on_c, 7, 66, 0
7, 28047, Pitch_bend_c, 7, 8480
7, 28048, Pitch_bend_c, 7, 8416
7, 28049, Note_on_c, 7, 70, 0
7, 28049, Note_on_c, 7, 65, 92
7, 28049, Pitch_bend_c, 7, 8224
7, 28052, Pitch_bend_c, 7, 8192
7, 28052, Note_on_c, 7, 70, 95
7, 28093, Note_on_c, 7, 65, 0
7, 28093, Pitch_bend_c, 7, 8224
7, 28094, Note_on_c, 7, 70, 0
7, 28147, Pitch_bend_c, 7, 8192
7, 28148, Note_on_c, 7, 73, 112
7, 28149, Pitch_bend_c, 7, 8544
7, 28150, Pitch_bend_c, 7, 8416
7, 28154, Pitch_bend_c, 7, 8384
7, 28155, Pitch_bend_c, 7, 8352
7, 28157, Pitch_bend_c, 7, 8288
7, 28158, Pitch_bend_c, 7, 8256
7, 28159, Pitch_bend_c, 7, 8224
7, 28161, Pitch_bend_c, 7, 8192
7, 28165, Pitch_bend_c, 7, 8224
7, 28175, Pitch_bend_c, 7, 8352
7, 28176, Pitch_bend_c, 7, 8608
7, 28178, Pitch_bend_c, 7, 9184
7, 28179, Pitch_bend_c, 7, 11648
7, 28180, Pitch_bend_c, 7, 11776
7, 28182, Pitch_bend_c, 7, 11936
7, 28183, Pitch_bend_c, 7, 12096
7, 28185, Pitch_bend_c, 7, 12160
7, 28186, Note_on_c, 7, 73, 0
7, 28208, Pitch_bend_c, 7, 8192
7, 28209, Note_on_c, 7, 70, 82
7, 28210, Pitch_bend_c, 7, 9024
7, 28211, Pitch_bend_c, 7, 8480
7, 28216, Pitch_bend_c, 7, 8448
7, 28218, Pitch_bend_c, 7, 8384
7, 28220, Pitch_bend_c, 7, 8352
7, 28221, Pitch_bend_c, 7, 8320
7, 28223, Pitch_bend_c, 7, 8288
7, 28227, Pitch_bend_c, 7, 8320
7, 28228, Pitch_bend_c, 7, 8352
7, 28231, Pitch_bend_c, 7, 8320
7, 28234, Pitch_bend_c, 7, 8288
7, 28240, Pitch_bend_c, 7, 8256
7, 28241, Pitch_bend_c, 7, 8224
7, 28242, Pitch_bend_c, 7, 8192
7, 28247, Pitch_bend_c, 7, 8160
7, 28248, Pitch_bend_c, 7, 8128
7, 28250, Pitch_bend_c, 7, 8064
7, 28251, Pitch_bend_c, 7, 8032
7, 28252, Pitch_bend_c, 7, 8000
7, 28253, Pitch_bend_c, 7, 7968
7, 28256, Pitch_bend_c, 7, 8000
7, 28258, Pitch_bend_c, 7, 8032
7, 28260, Pitch_bend_c, 7, 8064
7, 28261, Pitch_bend_c, 7, 8160
7, 28262, Pitch_bend_c, 7, 8352
7, 28263, Pitch_bend_c, 7, 8672
7, 28264, Pitch_bend_c, 7, 9152
7, 28266, Pitch_bend_c, 7, 9600
7, 28267, Pitch_bend_c, 7, 9984
7, 28268, Pitch_bend_c, 7, 10176
7, 28270, Note_on_c, 7, 70, 0
7, 28270, Pitch_bend_c, 7, 8192
7, 28271, Pitch_bend_c, 7, 11296
7, 28272, Note_on_c, 7, 72, 76
7, 28273, Pitch_bend_c, 7, 12512
7, 28275, Pitch_bend_c, 7, 12480
7, 28276, Pitch_bend_c, 7, 12384
7, 28278, Pitch_bend_c, 7, 12320
7, 28284, Pitch_bend_c, 7, 12352
7, 28287, Pitch_bend_c, 7, 12384
7, 28289, Pitch_bend_c, 7, 12352
7, 28290, Pitch_bend_c, 7, 12320
7, 28293, Pitch_bend_c, 7, 12288
7, 28295, Pitch_bend_c, 7, 12224
7, 28298, Pitch_bend_c, 7, 12192
7, 28300, Pitch_bend_c, 7, 11744
7, 28301, Note_on_c, 7, 72, 0
7, 28301, Pitch_bend_c, 7, 12320
7, 28304, Note_on_c, 7, 70, 87
7, 28304, Pitch_bend_c, 7, 8192
7, 28305, Pitch_bend_c, 7, 8128
7, 28308, Pitch_bend_c, 7, 8160
7, 28310, Pitch_bend_c, 7, 8192
7, 28311, Pitch_bend_c, 7, 8352
7, 28312, Pitch_bend_c, 7, 8320
7, 28313, Pitch_bend_c, 7, 4800
7, 28314, Pitch_bend_c, 7, 1
7, 28326, Note_on_c, 7, 70, 0
7, 28327, Note_on_c, 7, 65, 71
7, 28327, Pitch_bend_c, 7, 8192
7, 28328, Pitch_bend_c, 7, 8160
7, 28329, Pitch_bend_c, 7, 8192
7, 28330, Pitch_bend_c, 7, 8160
7, 28332, Pitch_bend_c, 7, 8192
7, 28333, Pitch_bend_c, 7, 8288
7, 28334, Pitch_bend_c, 7, 8256
7, 28335, Pitch_bend_c, 7, 4352
7, 28336, Note_on_c, 7, 65, 0
7, 28337, Note_on_c, 7, 63, 75
7, 28337, Pitch_bend_c, 7, 8416
7, 28338, Pitch_bend_c, 7, 8384
7, 28339, Pitch_bend_c, 7, 8320
7, 28341, Pitch_bend_c, 7, 8288
7, 28342, Pitch_bend_c, 7, 8256
7, 28343, Pitch_bend_c, 7, 8192
7, 28346, Pitch_bend_c, 7, 8224
7, 28347, Pitch_bend_c, 7, 8320
7, 28348, Pitch_bend_c, 7, 8160
7, 28350, Pitch_bend_c, 7, 4704
7, 28351, Pitch_bend_c, 7, 4640
7, 28352, Pitch_bend_c, 7, 1
7, 28369, Note_on_c, 7, 63, 0
7, 28374, Pitch_bend_c, 7, 8192
7, 28375, Note_on_c, 7, 58, 39
7, 28375, Pitch_bend_c, 7, 8224
7, 28380, Pitch_bend_c, 7, 8256
7, 28382, Note_on_c, 7, 58, 0
7, 28384, Pitch_bend_c, 7, 8192
7, 28385, Note_on_c, 7, 56, 37
7, 28391, Pitch_bend_c, 7, 8256
7, 28392, Note_on_c, 7, 56, 0
7, 28395, Pitch_bend_c, 7, 8192
7, 28396, Note_on_c, 7, 53, 46
7, 28396, Pitch_bend_c, 7, 8288
7, 28397, Pitch_bend_c, 7, 7936
7, 28398, Pitch_bend_c, 7, 7968
7, 28399, Pitch_bend_c, 7, 8032
7, 28401, Pitch_bend_c, 7, 8096
7, 28402, Note_on_c, 7, 53, 0
7, 28402, Pitch_bend_c, 7, 8192
7, 28405, Note_on_c, 7, 51, 64
7, 28405, Pitch_bend_c, 7, 8000
7, 28406, Pitch_bend_c, 7, 8032
7, 28407, Pitch_bend_c, 7, 8000
7, 28408, Pitch_bend_c, 7, 7968
7, 28409, Pitch_bend_c, 7, 7936
7, 28411, Pitch_bend_c, 7, 7904
7, 28413, Pitch_bend_c, 7, 7936
7, 28414, Pitch_bend_c, 7, 8000
7, 28415, Pitch_bend_c, 7, 8128
7, 28416, Pitch_bend_c, 7, 8192
7, 28417, Pitch_bend_c, 7, 4128
7, 28418, Pitch_bend_c, 7, 4192
7, 28419, Pitch_bend_c, 7, 4224
7, 28421, Pitch_bend_c, 7, 4256
7, 28422, Pitch_bend_c, 7, 4288
7, 28423, Pitch_bend_c, 7, 4256
7, 28428, Pitch_bend_c, 7, 4224
7, 28429, Pitch_bend_c, 7, 4192
7, 28431, Pitch_bend_c, 7, 4160
7, 28432, Pitch_bend_c, 7, 4128
7, 28433, Pitch_bend_c, 7, 4064
7, 28434, Pitch_bend_c, 7, 4032
7, 28435, Pitch_bend_c, 7, 4000
7, 28437, Pitch_bend_c, 7, 3968
7, 28440, Pitch_bend_c, 7, 3936
7, 28442, Pitch_bend_c, 7, 3904
7, 28444, Pitch_bend_c, 7, 3872
7, 28446, Pitch_bend_c, 7, 3840
7, 28449, Pitch_bend_c, 7, 3808
7, 28450, Note_on_c, 7, 51, 0
7, 28450, Pitch_bend_c, 7, 3776
7, 28451, Pitch_bend_c, 7, 3904
7, 28453, Pitch_bend_c, 7, 4128
7, 28454, Pitch_bend_c, 7, 4384
7, 28455, Pitch_bend_c, 7, 4640
7, 28456, Pitch_bend_c, 7, 4832
7, 28458, Pitch_bend_c, 7, 4928
7, 28459, Pitch_bend_c, 7, 4832
7, 28460, Pitch_bend_c, 7, 4192
7, 28462, Pitch_bend_c, 7, 3808
7, 28463, Pitch_bend_c, 7, 3584
7, 28464, Pitch_bend_c, 7, 3392
7, 28465, Pitch_bend_c, 7, 3328
7, 28467, Pitch_bend_c, 7, 3456
7, 28468, Pitch_bend_c, 7, 3840
7, 28469, Pitch_bend_c, 7, 4384
7, 28470, Pitch_bend_c, 7, 5120
7, 28471, Pitch_bend_c, 7, 5632
7, 28472, Pitch_bend_c, 7, 5760
7, 28473, Pitch_bend_c, 7, 5632
7, 28474, Pitch_bend_c, 7, 5024
7, 28476, Pitch_bend_c, 7, 4416
7, 28477, Pitch_bend_c, 7, 3904
7, 28478, Pitch_bend_c, 7, 3520
7, 28480, Pitch_bend_c, 7, 3584
7, 28481, Pitch_bend_c, 7, 3616
7, 28482, Pitch_bend_c, 7, 3840
7, 28483, Pitch_bend_c, 7, 4224
7, 28485, Pitch_bend_c, 7, 4448
7, 28486, Pitch_bend_c, 7, 4512
7, 28487, Pitch_bend_c, 7, 8192
7, 28487, End_track
8, 0, Start_track
8, 0, MIDI_port, 0
8, 0, Sequencer_specific, 7, 0, 0, 0, 106, 0, 4, 0
8, 129, Control_c, 8, 11, 127
8, 130, Control_c, 8, 91, 80
8, 130, Control_c, 8, 93, 45
8, 138, Program_c, 8, 26
8, 139, Control_c, 8, 7, 45
8, 139, Control_c, 8, 10, 121
8, 718, Note_on_c, 8, 65, 87
8, 718, Pitch_bend_c, 8, 8448
8, 719, Control_c, 8, 1, 0
8, 723, Pitch_bend_c, 8, 8416
8, 724, Pitch_bend_c, 8, 8384
8, 726, Pitch_bend_c, 8, 8352
8, 727, Pitch_bend_c, 8, 8320
8, 728, Pitch_bend_c, 8, 8288
8, 731, Pitch_bend_c, 8, 8224
8, 732, Pitch_bend_c, 8, 8192
8, 736, Pitch_bend_c, 8, 8224
8, 737, Pitch_bend_c, 8, 8192
8, 741, Pitch_bend_c, 8, 8160
8, 746, Pitch_bend_c, 8, 8192
8, 747, Note_on_c, 8, 65, 0
8, 749, Note_on_c, 8, 67, 85
8, 750, Pitch_bend_c, 8, 8224
8, 753, Pitch_bend_c, 8, 8192
8, 768, Pitch_bend_c, 8, 8160
8, 770, Pitch_bend_c, 8, 8128
8, 771, Pitch_bend_c, 8, 8064
8, 772, Pitch_bend_c, 8, 8032
8, 773, Pitch_bend_c, 8, 8064
8, 775, Pitch_bend_c, 8, 7936
8, 776, Note_on_c, 8, 67, 0
8, 776, Pitch_bend_c, 8, 8064
8, 778, Note_on_c, 8, 70, 84
8, 778, Pitch_bend_c, 8, 7776
8, 779, Pitch_bend_c, 8, 7936
8, 780, Pitch_bend_c, 8, 8032
8, 781, Pitch_bend_c, 8, 8000
8, 784, Pitch_bend_c, 8, 7968
8, 785, Pitch_bend_c, 8, 7936
8, 787, Pitch_bend_c, 8, 7904
8, 788, Pitch_bend_c, 8, 7872
8, 789, Pitch_bend_c, 8, 7808
8, 790, Pitch_bend_c, 8, 7776
8, 796, Pitch_bend_c, 8, 7808
8, 797, Pitch_bend_c, 8, 7776
8, 798, Pitch_bend_c, 8, 7808
8, 800, Pitch_bend_c, 8, 7840
8, 802, Pitch_bend_c, 8, 7872
8, 803, Pitch_bend_c, 8, 16000
8, 805, Note_on_c, 8, 70, 0
8, 807, Pitch_bend_c, 8, 8192
8, 808, Note_on_c, 8, 72, 85
8, 809, Pitch_bend_c, 8, 8288
8, 812, Pitch_bend_c, 8, 8224
8, 813, Pitch_bend_c, 8, 8192
8, 816, Pitch_bend_c, 8, 8224
8, 817, Pitch_bend_c, 8, 8512
8, 818, Pitch_bend_c, 8, 9088
8, 820, Pitch_bend_c, 8, 11392
8, 821, Pitch_bend_c, 8, 11488
8, 822, Pitch_bend_c, 8, 11552
8, 824, Note_on_c, 8, 72, 0
8, 824, Pitch_bend_c, 8, 11648
8, 842, Note_on_c, 8, 70, 85
8, 842, Pitch_bend_c, 8, 8128
8, 843, Pitch_bend_c, 8, 8160
8, 847, Pitch_bend_c, 8, 8128
8, 848, Pitch_bend_c, 8, 16160
8, 851, Pitch_bend_c, 8, 16096
8, 854, Pitch_bend_c, 8, 16128
8, 855, Pitch_bend_c, 8, 7968
8, 857, Pitch_bend_c, 8, 8000
8, 860, Pitch_bend_c, 8, 8064
8, 861, Pitch_bend_c, 8, 8096
8, 862, Note_on_c, 8, 70, 0
8, 865, Pitch_bend_c, 8, 8192
8, 866, Note_on_c, 8, 67, 31
8, 866, Pitch_bend_c, 8, 8128
8, 867, Pitch_bend_c, 8, 8064
8, 871, Pitch_bend_c, 8, 8128
8, 873, Pitch_bend_c, 8, 8160
8, 874, Pitch_bend_c, 8, 8192
8, 875, Note_on_c, 8, 67, 0
8, 876, Note_on_c, 8, 70, 87
8, 877, Pitch_bend_c, 8, 8000
8, 884, Pitch_bend_c, 8, 8032
8, 887, Pitch_bend_c, 8, 8064
8, 889, Pitch_bend_c, 8, 8096
8, 890, Note_on_c, 8, 70, 0
8, 892, Pitch_bend_c, 8, 8192
8, 893, Note_on_c, 8, 72, 80
8, 893, Pitch_bend_c, 8, 8000
8, 894, Pitch_bend_c, 8, 7936
8, 902, Pitch_bend_c, 8, 7904
8, 903, Pitch_bend_c, 8, 7872
8, 904, Note_on_c, 8, 72, 0
8, 904, Pitch_bend_c, 8, 8000
8, 906, Pitch_bend_c, 8, 8192
8, 907, Note_on_c, 8, 70, 87
8, 907, Pitch_bend_c, 8, 8000
8, 921, Pitch_bend_c, 8, 7968
8, 924, Pitch_bend_c, 8, 7936
8, 926, Pitch_bend_c, 8, 7904
8, 928, Pitch_bend_c, 8, 7872
8, 929, Pitch_bend_c, 8, 7840
8, 930, Pitch_bend_c, 8, 7808
8, 931, Pitch_bend_c, 8, 7776
8, 935, Pitch_bend_c, 8, 7808
8, 938, Pitch_bend_c, 8, 7840
8, 947, Pitch_bend_c, 8, 7872
8, 951, Pitch_bend_c, 8, 7840
8, 956, Note_on_c, 8, 70, 0
8, 959, Note_on_c, 8, 73, 79
8, 959, Pitch_bend_c, 8, 8032
8, 960, Pitch_bend_c, 8, 7968
8, 963, Pitch_bend_c, 8, 8000
8, 965, Pitch_bend_c, 8, 7968
8, 966, Pitch_bend_c, 8, 7872
8, 967, Pitch_bend_c, 8, 7840
8, 968, Pitch_bend_c, 8, 7808
8, 970, Pitch_bend_c, 8, 7776
8, 975, Pitch_bend_c, 8, 7840
8, 976, Pitch_bend_c, 8, 7872
8, 979, Pitch_bend_c, 8, 7936
8, 980, Pitch_bend_c, 8, 7968
8, 984, Pitch_bend_c, 8, 8000
8, 985, Pitch_bend_c, 8, 8032
8, 988, Pitch_bend_c, 8, 8128
8, 989, Pitch_bend_c, 8, 8192
8, 991, Pitch_bend_c, 8, 8352
8, 992, Pitch_bend_c, 8, 8704
8, 993, Pitch_bend_c, 8, 9280
8, 994, Pitch_bend_c, 8, 10048
8, 996, Pitch_bend_c, 8, 10880
8, 997, Pitch_bend_c, 8, 11520
8, 998, Pitch_bend_c, 8, 11936
8, 999, Pitch_bend_c, 8, 12096
8, 1001, Note_on_c, 8, 73, 0
8, 1254, Note_on_c, 8, 75, 89
8, 1254, Pitch_bend_c, 8, 8128
8, 1257, Pitch_bend_c, 8, 8032
8, 1258, Pitch_bend_c, 8, 8128
8, 1259, Pitch_bend_c, 8, 8160
8, 1262, Pitch_bend_c, 8, 8224
8, 1263, Pitch_bend_c, 8, 8256
8, 1264, Pitch_bend_c, 8, 8352
8, 1266, Pitch_bend_c, 8, 8480
8, 1267, Pitch_bend_c, 8, 8640
8, 1268, Pitch_bend_c, 8, 8800
8, 1270, Pitch_bend_c, 8, 8992
8, 1271, Pitch_bend_c, 8, 9184
8, 1272, Pitch_bend_c, 8, 9312
8, 1274, Pitch_bend_c, 8, 9408
8, 1275, Pitch_bend_c, 8, 9440
8, 1276, Pitch_bend_c, 8, 9536
8, 1277, Pitch_bend_c, 8, 8192
8, 1279, Pitch_bend_c, 8, 9664
8, 1283, Pitch_bend_c, 8, 9760
8, 1284, Pitch_bend_c, 8, 9920
8, 1286, Pitch_bend_c, 8, 10080
8, 1287, Pitch_bend_c, 8, 10304
8, 1288, Pitch_bend_c, 8, 10592
8, 1289, Pitch_bend_c, 8, 10848
8, 1291, Pitch_bend_c, 8, 11168
8, 1292, Pitch_bend_c, 8, 11552
8, 1293, Pitch_bend_c, 8, 11968
8, 1295, Pitch_bend_c, 8, 12384
8, 1296, Pitch_bend_c, 8, 12704
8, 1297, Pitch_bend_c, 8, 12960
8, 1298, Pitch_bend_c, 8, 13056
8, 1300, Pitch_bend_c, 8, 12992
8, 1301, Pitch_bend_c, 8, 12896
8, 1302, Note_on_c, 8, 75, 0
8, 1302, Pitch_bend_c, 8, 12960
8, 1327, Pitch_bend_c, 8, 8192
8, 1328, Note_on_c, 8, 75, 87
8, 1328, Pitch_bend_c, 8, 8064
8, 1331, Pitch_bend_c, 8, 8000
8, 1332, Pitch_bend_c, 8, 7904
8, 1333, Pitch_bend_c, 8, 7872
8, 1334, Pitch_bend_c, 8, 7808
8, 1336, Pitch_bend_c, 8, 7776
8, 1337, Pitch_bend_c, 8, 7744
8, 1338, Pitch_bend_c, 8, 7680
8, 1344, Pitch_bend_c, 8, 7744
8, 1345, Pitch_bend_c, 8, 7776
8, 1346, Pitch_bend_c, 8, 5216
8, 1347, Note_on_c, 8, 75, 0
8, 1347, Pitch_bend_c, 8, 7744
8, 1348, Pitch_bend_c, 8, 8192
8, 1349, Note_on_c, 8, 72, 84
8, 1349, Pitch_bend_c, 8, 12000
8, 1351, Pitch_bend_c, 8, 12032
8, 1355, Pitch_bend_c, 8, 12000
8, 1359, Pitch_bend_c, 8, 12032
8, 1362, Pitch_bend_c, 8, 12000
8, 1363, Pitch_bend_c, 8, 11936
8, 1364, Pitch_bend_c, 8, 12000
8, 1366, Pitch_bend_c, 8, 12032
8, 1367, Pitch_bend_c, 8, 11840
8, 1368, Note_on_c, 8, 72, 0
8, 1368, Pitch_bend_c, 8, 11936
8, 1384, Note_on_c, 8, 70, 77
8, 1384, Pitch_bend_c, 8, 8448
8, 1387, Pitch_bend_c, 8, 8480
8, 1391, Pitch_bend_c, 8, 8448
8, 1392, Pitch_bend_c, 8, 8416
8, 1393, Pitch_bend_c, 8, 8352
8, 1396, Pitch_bend_c, 8, 8320
8, 1397, Pitch_bend_c, 8, 8288
8, 1398, Pitch_bend_c, 8, 8224
8, 1401, Pitch_bend_c, 8, 8192
8, 1405, Pitch_bend_c, 8, 8256
8, 1406, Pitch_bend_c, 8, 8544
8, 1408, Pitch_bend_c, 8, 9120
8, 1409, Pitch_bend_c, 8, 9856
8, 1410, Pitch_bend_c, 8, 10496
8, 1412, Pitch_bend_c, 8, 10816
8, 1413, Pitch_bend_c, 8, 10592
8, 1414, Pitch_bend_c, 8, 8416
8, 1415, Pitch_bend_c, 8, 8320
8, 1417, Pitch_bend_c, 8, 8224
8, 1418, Pitch_bend_c, 8, 8160
8, 1419, Pitch_bend_c, 8, 8096
8, 1420, Pitch_bend_c, 8, 8160
8, 1422, Pitch_bend_c, 8, 8384
8, 1423, Pitch_bend_c, 8, 8800
8, 1424, Pitch_bend_c, 8, 9216
8, 1426, Pitch_bend_c, 8, 9600
8, 1427, Pitch_bend_c, 8, 9696
8, 1428, Pitch_bend_c, 8, 9408
8, 1430, Note_on_c, 8, 70, 0
8, 1430, Pitch_bend_c, 8, 9216
8, 1456, Pitch_bend_c, 8, 8192
8, 1457, Note_on_c, 8, 67, 85
8, 1461, Pitch_bend_c, 8, 8160
8, 1462, Pitch_bend_c, 8, 8128
8, 1464, Pitch_bend_c, 8, 8096
8, 1465, Pitch_bend_c, 8, 8128
8, 1466, Pitch_bend_c, 8, 8160
8, 1467, Pitch_bend_c, 8, 8064
8, 1468, Note_on_c, 8, 67, 0
8, 1468, Pitch_bend_c, 8, 8128
8, 1470, Pitch_bend_c, 8, 8192
8, 1471, Note_on_c, 8, 70, 66
8, 1471, Pitch_bend_c, 8, 8288
8, 1472, Pitch_bend_c, 8, 8384
8, 1475, Pitch_bend_c, 8, 8352
8, 1476, Pitch_bend_c, 8, 8288
8, 1477, Pitch_bend_c, 8, 8256
8, 1479, Note_on_c, 8, 70, 0
8, 1479, Pitch_bend_c, 8, 8416
8, 1486, Note_on_c, 8, 73, 86
8, 1486, Pitch_bend_c, 8, 8384
8, 1489, Pitch_bend_c, 8, 8288
8, 1490, Pitch_bend_c, 8, 8256
8, 1493, Pitch_bend_c, 8, 8224
8, 1494, Pitch_bend_c, 8, 8256
8, 1495, Pitch_bend_c, 8, 8288
8, 1497, Pitch_bend_c, 8, 8256
8, 1501, Pitch_bend_c, 8, 8288
8, 1505, Pitch_bend_c, 8, 8256
8, 1507, Pitch_bend_c, 8, 8224
8, 1509, Pitch_bend_c, 8, 8256
8, 1510, Pitch_bend_c, 8, 8512
8, 1511, Pitch_bend_c, 8, 8928
8, 1512, Pitch_bend_c, 8, 9664
8, 1514, Pitch_bend_c, 8, 10528
8, 1515, Pitch_bend_c, 8, 11232
8, 1516, Pitch_bend_c, 8, 11808
8, 1518, Pitch_bend_c, 8, 12128
8, 1519, Pitch_bend_c, 8, 12256
8, 1520, Pitch_bend_c, 8, 12352
8, 1522, Note_on_c, 8, 73, 0
8, 1537, Pitch_bend_c, 8, 8192
8, 1538, Note_on_c, 8, 75, 83
8, 1538, Pitch_bend_c, 8, 8352
8, 1540, Pitch_bend_c, 8, 8416
8, 1542, Pitch_bend_c, 8, 8352
8, 1543, Pitch_bend_c, 8, 8320
8, 1545, Pitch_bend_c, 8, 8256
8, 1546, Pitch_bend_c, 8, 8192
8, 1547, Pitch_bend_c, 8, 8128
8, 1548, Pitch_bend_c, 8, 8032
8, 1550, Pitch_bend_c, 8, 8000
8, 1551, Note_on_c, 8, 75, 0
8, 1551, Pitch_bend_c, 8, 8192
8, 1554, Note_on_c, 8, 73, 84
8, 1554, Pitch_bend_c, 8, 8032
8, 1557, Pitch_bend_c, 8, 8000
8, 1558, Pitch_bend_c, 8, 7968
8, 1561, Pitch_bend_c, 8, 7936
8, 1562, Pitch_bend_c, 8, 7968
8, 1563, Pitch_bend_c, 8, 7936
8, 1565, Pitch_bend_c, 8, 7968
8, 1567, Pitch_bend_c, 8, 8000
8, 1568, Pitch_bend_c, 8, 8032
8, 1570, Pitch_bend_c, 8, 8000
8, 1575, Pitch_bend_c, 8, 8032
8, 1577, Pitch_bend_c, 8, 8000
8, 1579, Pitch_bend_c, 8, 8032
8, 1580, Pitch_bend_c, 8, 8064
8, 1581, Pitch_bend_c, 8, 8128
8, 1583, Pitch_bend_c, 8, 8224
8, 1584, Pitch_bend_c, 8, 8256
8, 1585, Pitch_bend_c, 8, 8352
8, 1587, Pitch_bend_c, 8, 8384
8, 1588, Pitch_bend_c, 8, 8448
8, 1589, Pitch_bend_c, 8, 8544
8, 1590, Pitch_bend_c, 8, 8576
8, 1592, Pitch_bend_c, 8, 8672
8, 1593, Pitch_bend_c, 8, 8704
8, 1596, Pitch_bend_c, 8, 8736
8, 1597, Pitch_bend_c, 8, 8768
8, 1598, Pitch_bend_c, 8, 8832
8, 1600, Pitch_bend_c, 8, 8864
8, 1601, Pitch_bend_c, 8, 8992
8, 1602, Pitch_bend_c, 8, 9056
8, 1603, Pitch_bend_c, 8, 9184
8, 1605, Pitch_bend_c, 8, 9344
8, 1606, Pitch_bend_c, 8, 9472
8, 1607, Pitch_bend_c, 8, 9536
8, 1608, Pitch_bend_c, 8, 9632
8, 1610, Pitch_bend_c, 8, 9760
8, 1611, Pitch_bend_c, 8, 9856
8, 1612, Pitch_bend_c, 8, 10048
8, 1614, Pitch_bend_c, 8, 10208
8, 1615, Pitch_bend_c, 8, 10304
8, 1616, Pitch_bend_c, 8, 10400
8, 1617, Pitch_bend_c, 8, 10432
8, 1621, Pitch_bend_c, 8, 10400
8, 1626, Pitch_bend_c, 8, 10368
8, 1627, Pitch_bend_c, 8, 10304
8, 1628, Pitch_bend_c, 8, 10240
8, 1629, Pitch_bend_c, 8, 10048
8, 1631, Pitch_bend_c, 8, 9696
8, 1632, Pitch_bend_c, 8, 9440
8, 1633, Pitch_bend_c, 8, 9184
8, 1635, Pitch_bend_c, 8, 9056
8, 1637, Pitch_bend_c, 8, 9120
8, 1639, Pitch_bend_c, 8, 9152
8, 1640, Pitch_bend_c, 8, 9312
8, 1641, Pitch_bend_c, 8, 9664
8, 1643, Pitch_bend_c, 8, 10144
8, 1644, Pitch_bend_c, 8, 10688
8, 1645, Pitch_bend_c, 8, 11168
8, 1647, Pitch_bend_c, 8, 11392
8, 1648, Pitch_bend_c, 8, 11520
8, 1650, Pitch_bend_c, 8, 11456
8, 1652, Pitch_bend_c, 8, 11232
8, 1653, Pitch_bend_c, 8, 10720
8, 1654, Pitch_bend_c, 8, 10080
8, 1655, Pitch_bend_c, 8, 9472
8, 1657, Pitch_bend_c, 8, 8992
8, 1658, Pitch_bend_c, 8, 8896
8, 1661, Pitch_bend_c, 8, 9184
8, 1662, Pitch_bend_c, 8, 9664
8, 1663, Pitch_bend_c, 8, 10368
8, 1664, Pitch_bend_c, 8, 11072
8, 1666, Pitch_bend_c, 8, 11648
8, 1667, Pitch_bend_c, 8, 11936
8, 1669, Pitch_bend_c, 8, 12064
8, 1671, Pitch_bend_c, 8, 11840
8, 1672, Pitch_bend_c, 8, 11328
8, 1674, Pitch_bend_c, 8, 8896
8, 1675, Pitch_bend_c, 8, 8864
8, 1676, Pitch_bend_c, 8, 8768
8, 1678, Pitch_bend_c, 8, 8736
8, 1680, Note_on_c, 8, 73, 0
8, 1680, Pitch_bend_c, 8, 8896
8, 1744, Pitch_bend_c, 8, 8192
8, 1745, Note_on_c, 8, 76, 82
8, 1745, Pitch_bend_c, 8, 7712
8, 1746, Pitch_bend_c, 8, 7328
8, 1747, Pitch_bend_c, 8, 7488
8, 1748, Pitch_bend_c, 8, 7584
8, 1749, Pitch_bend_c, 8, 7712
8, 1750, Pitch_bend_c, 8, 7840
8, 1752, Pitch_bend_c, 8, 7936
8, 1753, Pitch_bend_c, 8, 8032
8, 1754, Pitch_bend_c, 8, 7968
8, 1755, Pitch_bend_c, 8, 7904
8, 1757, Pitch_bend_c, 8, 7712
8, 1758, Pitch_bend_c, 8, 7328
8, 1760, Pitch_bend_c, 8, 4736
8, 1761, Pitch_bend_c, 8, 4608
8, 1762, Pitch_bend_c, 8, 4352
8, 1764, Pitch_bend_c, 8, 4128
8, 1765, Pitch_bend_c, 8, 3904
8, 1766, Pitch_bend_c, 8, 3840
8, 1767, Pitch_bend_c, 8, 4352
8, 1768, Note_on_c, 8, 76, 0
8, 1770, Note_on_c, 8, 73, 79
8, 1770, Pitch_bend_c, 8, 8352
8, 1771, Pitch_bend_c, 8, 8192
8, 1772, Pitch_bend_c, 8, 8224
8, 1774, Pitch_bend_c, 8, 8256
8, 1775, Pitch_bend_c, 8, 8352
8, 1777, Pitch_bend_c, 8, 8384
8, 1778, Pitch_bend_c, 8, 8448
8, 1779, Note_on_c, 8, 73, 0
8, 1783, Note_on_c, 8, 70, 59
8, 1783, Pitch_bend_c, 8, 8192
8, 1784, Pitch_bend_c, 8, 8384
8, 1786, Pitch_bend_c, 8, 8352
8, 1789, Pitch_bend_c, 8, 8320
8, 1791, Pitch_bend_c, 8, 8288
8, 1792, Pitch_bend_c, 8, 8224
8, 1793, Pitch_bend_c, 8, 8192
8, 1796, Pitch_bend_c, 8, 8224
8, 1797, Pitch_bend_c, 8, 8256
8, 1798, Pitch_bend_c, 8, 8288
8, 1800, Pitch_bend_c, 8, 8544
8, 1801, Pitch_bend_c, 8, 9152
8, 1803, Pitch_bend_c, 8, 11392
8, 1804, Pitch_bend_c, 8, 11424
8, 1805, Pitch_bend_c, 8, 11392
8, 1807, Pitch_bend_c, 8, 11040
8, 1808, Pitch_bend_c, 8, 8832
8, 1809, Pitch_bend_c, 8, 8800
8, 1810, Pitch_bend_c, 8, 8672
8, 1812, Pitch_bend_c, 8, 8544
8, 1813, Pitch_bend_c, 8, 8448
8, 1814, Pitch_bend_c, 8, 8416
8, 1816, Pitch_bend_c, 8, 8640
8, 1817, Pitch_bend_c, 8, 9120
8, 1818, Pitch_bend_c, 8, 9696
8, 1819, Pitch_bend_c, 8, 10336
8, 1821, Pitch_bend_c, 8, 10880
8, 1822, Pitch_bend_c, 8, 11264
8, 1823, Pitch_bend_c, 8, 11584
8, 1825, Pitch_bend_c, 8, 11776
8, 1826, Pitch_bend_c, 8, 11872
8, 1827, Pitch_bend_c, 8, 11840
8, 1828, Pitch_bend_c, 8, 11328
8, 1830, Pitch_bend_c, 8, 8640
8, 1831, Note_on_c, 8, 70, 0
8, 1831, Pitch_bend_c, 8, 11872
8, 1834, Note_on_c, 8, 73, 78
8, 1834, Pitch_bend_c, 8, 8160
8, 1835, Pitch_bend_c, 8, 8192
8, 1841, Pitch_bend_c, 8, 8160
8, 1842, Pitch_bend_c, 8, 8128
8, 1843, Pitch_bend_c, 8, 8064
8, 1845, Pitch_bend_c, 8, 8160
8, 1846, Pitch_bend_c, 8, 8352
8, 1847, Pitch_bend_c, 8, 8608
8, 1849, Pitch_bend_c, 8, 8928
8, 1850, Note_on_c, 8, 73, 0
8, 1850, Pitch_bend_c, 8, 9024
8, 1853, Note_on_c, 8, 75, 78
8, 1853, Pitch_bend_c, 8, 8192
8, 1854, Pitch_bend_c, 8, 8256
8, 1858, Pitch_bend_c, 8, 8320
8, 1863, Pitch_bend_c, 8, 8256
8, 1865, Pitch_bend_c, 8, 8224
8, 1866, Pitch_bend_c, 8, 8192
8, 1867, Pitch_bend_c, 8, 8128
8, 1868, Note_on_c, 8, 75, 0
8, 1868, Pitch_bend_c, 8, 8320
8, 1871, Note_on_c, 8, 73, 80
8, 1871, Pitch_bend_c, 8, 8064
8, 1880, Pitch_bend_c, 8, 8000
8, 1881, Pitch_bend_c, 8, 7936
8, 1884, Pitch_bend_c, 8, 7968
8, 1886, Pitch_bend_c, 8, 8032
8, 1887, Pitch_bend_c, 8, 8128
8, 1888, Pitch_bend_c, 8, 8224
8, 1889, Pitch_bend_c, 8, 8416
8, 1891, Pitch_bend_c, 8, 8832
8, 1892, Pitch_bend_c, 8, 9280
8, 1893, Pitch_bend_c, 8, 9696
8, 1895, Pitch_bend_c, 8, 10080
8, 1896, Pitch_bend_c, 8, 10208
8, 1897, Pitch_bend_c, 8, 10048
8, 1898, Pitch_bend_c, 8, 9760
8, 1900, Pitch_bend_c, 8, 9376
8, 1901, Pitch_bend_c, 8, 8992
8, 1902, Pitch_bend_c, 8, 8768
8, 1903, Note_on_c, 8, 73, 0
8, 1903, Pitch_bend_c, 8, 10048
8, 1905, Pitch_bend_c, 8, 8192
8, 1906, Note_on_c, 8, 70, 63
8, 1906, Pitch_bend_c, 8, 8512
8, 1907, Pitch_bend_c, 8, 8480
8, 1910, Pitch_bend_c, 8, 8448
8, 1911, Pitch_bend_c, 8, 8416
8, 1912, Pitch_bend_c, 8, 8352
8, 1914, Pitch_bend_c, 8, 8320
8, 1915, Pitch_bend_c, 8, 8256
8, 1918, Pitch_bend_c, 8, 8224
8, 1920, Pitch_bend_c, 8, 8192
8, 1922, Pitch_bend_c, 8, 8160
8, 1923, Pitch_bend_c, 8, 8096
8, 1926, Pitch_bend_c, 8, 8160
8, 1927, Pitch_bend_c, 8, 8224
8, 1928, Pitch_bend_c, 8, 8288
8, 1930, Pitch_bend_c, 8, 8320
8, 1931, Note_on_c, 8, 70, 0
8, 1931, Pitch_bend_c, 8, 8192
8, 1932, Note_on_c, 8, 73, 81
8, 1932, Pitch_bend_c, 8, 7744
8, 1933, Pitch_bend_c, 8, 7968
8, 1938, Pitch_bend_c, 8, 7936
8, 1939, Pitch_bend_c, 8, 7808
8, 1941, Pitch_bend_c, 8, 7776
8, 1945, Pitch_bend_c, 8, 7872
8, 1946, Pitch_bend_c, 8, 7936
8, 1947, Pitch_bend_c, 8, 7968
8, 1955, Pitch_bend_c, 8, 8000
8, 1956, Pitch_bend_c, 8, 8032
8, 1957, Pitch_bend_c, 8, 8128
8, 1959, Pitch_bend_c, 8, 8192
8, 1960, Pitch_bend_c, 8, 8224
8, 1961, Pitch_bend_c, 8, 8288
8, 1963, Pitch_bend_c, 8, 8352
8, 1964, Pitch_bend_c, 8, 8448
8, 1965, Pitch_bend_c, 8, 8544
8, 1967, Pitch_bend_c, 8, 8672
8, 1968, Pitch_bend_c, 8, 8736
8, 1969, Pitch_bend_c, 8, 8832
8, 1971, Pitch_bend_c, 8, 8896
8, 1972, Pitch_bend_c, 8, 8992
8, 1973, Pitch_bend_c, 8, 9152
8, 1975, Pitch_bend_c, 8, 9376
8, 1976, Pitch_bend_c, 8, 9632
8, 1977, Pitch_bend_c, 8, 9824
8, 1979, Pitch_bend_c, 8, 10048
8, 1980, Pitch_bend_c, 8, 10144
8, 1981, Pitch_bend_c, 8, 10208
8, 1984, Note_on_c, 8, 73, 0
8, 2213, Pitch_bend_c, 8, 8192
8, 2214, Note_on_c, 8, 76, 85
8, 2214, Pitch_bend_c, 8, 10304
8, 2218, Pitch_bend_c, 8, 10240
8, 2219, Pitch_bend_c, 8, 10208
8, 2220, Pitch_bend_c, 8, 10144
8, 2221, Pitch_bend_c, 8, 10112
8, 2226, Pitch_bend_c, 8, 10016
8, 2227, Pitch_bend_c, 8, 9952
8, 2228, Pitch_bend_c, 8, 9920
8, 2229, Pitch_bend_c, 8, 9856
8, 2231, Pitch_bend_c, 8, 9824
8, 2234, Pitch_bend_c, 8, 9760
8, 2239, Pitch_bend_c, 8, 9728
8, 2241, Pitch_bend_c, 8, 9664
8, 2244, Pitch_bend_c, 8, 9632
8, 2246, Pitch_bend_c, 8, 9568
8, 2247, Pitch_bend_c, 8, 9472
8, 2248, Pitch_bend_c, 8, 9440
8, 2249, Pitch_bend_c, 8, 9376
8, 2250, Pitch_bend_c, 8, 9344
8, 2252, Pitch_bend_c, 8, 9280
8, 2253, Pitch_bend_c, 8, 9248
8, 2255, Pitch_bend_c, 8, 9184
8, 2256, Pitch_bend_c, 8, 9152
8, 2257, Pitch_bend_c, 8, 9088
8, 2259, Pitch_bend_c, 8, 8992
8, 2262, Pitch_bend_c, 8, 8960
8, 2263, Pitch_bend_c, 8, 8896
8, 2265, Pitch_bend_c, 8, 8800
8, 2266, Pitch_bend_c, 8, 8768
8, 2267, Pitch_bend_c, 8, 8704
8, 2269, Pitch_bend_c, 8, 8672
8, 2270, Pitch_bend_c, 8, 8576
8, 2271, Pitch_bend_c, 8, 8512
8, 2273, Pitch_bend_c, 8, 8416
8, 2274, Pitch_bend_c, 8, 8288
8, 2275, Pitch_bend_c, 8, 8064
8, 2277, Pitch_bend_c, 8, 7840
8, 2278, Pitch_bend_c, 8, 7520
8, 2279, Pitch_bend_c, 8, 7264
8, 2281, Pitch_bend_c, 8, 6976
8, 2282, Pitch_bend_c, 8, 6656
8, 2283, Pitch_bend_c, 8, 6336
8, 2284, Pitch_bend_c, 8, 5984
8, 2286, Pitch_bend_c, 8, 5664
8, 2287, Pitch_bend_c, 8, 5440
8, 2288, Pitch_bend_c, 8, 5248
8, 2290, Pitch_bend_c, 8, 5152
8, 2292, Note_on_c, 8, 76, 0
8, 2292, Pitch_bend_c, 8, 5984
8, 2295, Pitch_bend_c, 8, 8192
8, 2296, Note_on_c, 8, 75, 82
8, 2296, Pitch_bend_c, 8, 8576
8, 2298, Pitch_bend_c, 8, 8544
8, 2299, Pitch_bend_c, 8, 8448
8, 2300, Pitch_bend_c, 8, 8352
8, 2301, Pitch_bend_c, 8, 8256
8, 2303, Pitch_bend_c, 8, 8128
8, 2304, Pitch_bend_c, 8, 8000
8, 2305, Pitch_bend_c, 8, 7936
8, 2307, Note_on_c, 8, 75, 0
8, 2307, Pitch_bend_c, 8, 8256
8, 2316, Pitch_bend_c, 8, 8192
8, 2317, Note_on_c, 8, 73, 84
8, 2317, Pitch_bend_c, 8, 8128
8, 2318, Pitch_bend_c, 8, 8224
8, 2319, Pitch_bend_c, 8, 8192
8, 2321, Pitch_bend_c, 8, 8160
8, 2323, Pitch_bend_c, 8, 8128
8, 2326, Pitch_bend_c, 8, 8160
8, 2332, Pitch_bend_c, 8, 8128
8, 2338, Pitch_bend_c, 8, 8160
8, 2340, Pitch_bend_c, 8, 8192
8, 2350, Pitch_bend_c, 8, 8160
8, 2351, Pitch_bend_c, 8, 8064
8, 2352, Pitch_bend_c, 8, 8000
8, 2353, Pitch_bend_c, 8, 7936
8, 2356, Pitch_bend_c, 8, 8032
8, 2358, Pitch_bend_c, 8, 8224
8, 2359, Pitch_bend_c, 8, 8576
8, 2360, Pitch_bend_c, 8, 9056
8, 2361, Pitch_bend_c, 8, 9664
8, 2362, Pitch_bend_c, 8, 10144
8, 2364, Pitch_bend_c, 8, 10400
8, 2365, Pitch_bend_c, 8, 10208
8, 2366, Note_on_c, 8, 73, 0
8, 2380, Pitch_bend_c, 8, 8192
8, 2381, Note_on_c, 8, 70, 75
8, 2381, Pitch_bend_c, 8, 8448
8, 2382, Pitch_bend_c, 8, 8512
8, 2383, Pitch_bend_c, 8, 8480
8, 2384, Pitch_bend_c, 8, 8448
8, 2386, Pitch_bend_c, 8, 8384
8, 2387, Pitch_bend_c, 8, 8352
8, 2388, Pitch_bend_c, 8, 8288
8, 2390, Pitch_bend_c, 8, 8256
8, 2391, Pitch_bend_c, 8, 8224
8, 2395, Pitch_bend_c, 8, 8192
8, 2405, Pitch_bend_c, 8, 8160
8, 2407, Pitch_bend_c, 8, 8128
8, 2412, Pitch_bend_c, 8, 8192
8, 2413, Pitch_bend_c, 8, 8320
8, 2414, Pitch_bend_c, 8, 8800
8, 2416, Pitch_bend_c, 8, 9408
8, 2417, Pitch_bend_c, 8, 10080
8, 2418, Pitch_bend_c, 8, 10592
8, 2420, Pitch_bend_c, 8, 10752
8, 2421, Pitch_bend_c, 8, 10400
8, 2422, Pitch_bend_c, 8, 9728
8, 2423, Pitch_bend_c, 8, 9056
8, 2425, Pitch_bend_c, 8, 8448
8, 2426, Pitch_bend_c, 8, 8192
8, 2428, Pitch_bend_c, 8, 8224
8, 2430, Pitch_bend_c, 8, 8480
8, 2431, Pitch_bend_c, 8, 8928
8, 2432, Pitch_bend_c, 8, 9344
8, 2434, Pitch_bend_c, 8, 9472
8, 2435, Pitch_bend_c, 8, 9216
8, 2436, Note_on_c, 8, 70, 0
8, 2436, Pitch_bend_c, 8, 8192
8, 2437, Note_on_c, 8, 65, 69
8, 2437, Pitch_bend_c, 8, 9248
8, 2439, Pitch_bend_c, 8, 9536
8, 2440, Pitch_bend_c, 8, 11936
8, 2442, Pitch_bend_c, 8, 11968
8, 2443, Pitch_bend_c, 8, 12032
8, 2444, Pitch_bend_c, 8, 16096
8, 2447, Pitch_bend_c, 8, 16064
8, 2448, Pitch_bend_c, 8, 16032
8, 2451, Pitch_bend_c, 8, 16064
8, 2452, Pitch_bend_c, 8, 16192
8, 2453, Note_on_c, 8, 65, 0
8, 2455, Note_on_c, 8, 70, 82
8, 2455, Pitch_bend_c, 8, 8352
8, 2457, Pitch_bend_c, 8, 8416
8, 2460, Pitch_bend_c, 8, 8384
8, 2461, Pitch_bend_c, 8, 8320
8, 2462, Pitch_bend_c, 8, 8192
8, 2463, Pitch_bend_c, 8, 8128
8, 2465, Pitch_bend_c, 8, 8000
8, 2468, Note_on_c, 8, 70, 0
8, 2468, Note_on_c, 8, 72, 50
8, 2468, Pitch_bend_c, 8, 12000
8, 2471, Note_on_c, 8, 72, 0
8, 2472, Note_on_c, 8, 73, 71
8, 2472, Pitch_bend_c, 8, 8192
8, 2474, Pitch_bend_c, 8, 8160
8, 2475, Pitch_bend_c, 8, 8128
8, 2477, Pitch_bend_c, 8, 8064
8, 2478, Pitch_bend_c, 8, 8000
8, 2479, Pitch_bend_c, 8, 7968
8, 2481, Pitch_bend_c, 8, 8000
8, 2485, Pitch_bend_c, 8, 7968
8, 2491, Pitch_bend_c, 8, 7936
8, 2494, Pitch_bend_c, 8, 7968
8, 2496, Pitch_bend_c, 8, 8000
8, 2498, Pitch_bend_c, 8, 8032
8, 2499, Pitch_bend_c, 8, 8128
8, 2500, Pitch_bend_c, 8, 8160
8, 2502, Pitch_bend_c, 8, 8256
8, 2503, Pitch_bend_c, 8, 8384
8, 2504, Pitch_bend_c, 8, 8576
8, 2506, Pitch_bend_c, 8, 8864
8, 2507, Pitch_bend_c, 8, 9344
8, 2509, Pitch_bend_c, 8, 9920
8, 2510, Pitch_bend_c, 8, 10464
8, 2511, Pitch_bend_c, 8, 10976
8, 2512, Pitch_bend_c, 8, 11232
8, 2514, Pitch_bend_c, 8, 11392
8, 2515, Pitch_bend_c, 8, 11488
8, 2518, Pitch_bend_c, 8, 11232
8, 2519, Pitch_bend_c, 8, 8832
8, 2520, Note_on_c, 8, 73, 0
8, 2520, Pitch_bend_c, 8, 11232
8, 2521, Note_on_c, 8, 75, 82
8, 2521, Pitch_bend_c, 8, 8192
8, 2522, Pitch_bend_c, 8, 8672
8, 2523, Pitch_bend_c, 8, 8576
8, 2525, Pitch_bend_c, 8, 8640
8, 2528, Pitch_bend_c, 8, 8544
8, 2531, Pitch_bend_c, 8, 8448
8, 2532, Pitch_bend_c, 8, 8352
8, 2533, Pitch_bend_c, 8, 16383
8, 2534, Note_on_c, 8, 75, 0
8, 2535, Pitch_bend_c, 8, 8192
8, 2536, Note_on_c, 8, 77, 78
8, 2536, Pitch_bend_c, 8, 8288
8, 2542, Pitch_bend_c, 8, 8224
8, 2544, Pitch_bend_c, 8, 8192
8, 2545, Pitch_bend_c, 8, 8064
8, 2546, Pitch_bend_c, 8, 7968
8, 2547, Note_on_c, 8, 77, 0
8, 2547, Pitch_bend_c, 8, 8288
8, 2549, Pitch_bend_c, 8, 8192
8, 2550, Note_on_c, 8, 73, 49
8, 2550, Pitch_bend_c, 8, 8000
8, 2553, Pitch_bend_c, 8, 8160
8, 2555, Pitch_bend_c, 8, 8608
8, 2556, Pitch_bend_c, 8, 11136
8, 2557, Pitch_bend_c, 8, 11328
8, 2558, Pitch_bend_c, 8, 11520
8, 2561, Note_on_c, 8, 73, 0
8, 2571, Pitch_bend_c, 8, 8192
8, 2572, Note_on_c, 8, 70, 44
8, 2572, Pitch_bend_c, 8, 8512
8, 2574, Pitch_bend_c, 8, 8576
8, 2578, Pitch_bend_c, 8, 8544
8, 2582, Pitch_bend_c, 8, 8512
8, 2583, Pitch_bend_c, 8, 8480
8, 2587, Pitch_bend_c, 8, 8448
8, 2589, Pitch_bend_c, 8, 8480
8, 2592, Pitch_bend_c, 8, 8448
8, 2594, Pitch_bend_c, 8, 8416
8, 2596, Pitch_bend_c, 8, 8320
8, 2597, Pitch_bend_c, 8, 8192
8, 2598, Pitch_bend_c, 8, 8096
8, 2600, Pitch_bend_c, 8, 8000
8, 2601, Pitch_bend_c, 8, 7968
8, 2603, Pitch_bend_c, 8, 8256
8, 2605, Pitch_bend_c, 8, 8896
8, 2607, Pitch_bend_c, 8, 9632
8, 2608, Pitch_bend_c, 8, 10304
8, 2609, Pitch_bend_c, 8, 10592
8, 2611, Pitch_bend_c, 8, 10240
8, 2612, Pitch_bend_c, 8, 9568
8, 2613, Pitch_bend_c, 8, 8864
8, 2614, Pitch_bend_c, 8, 8288
8, 2616, Pitch_bend_c, 8, 8032
8, 2617, Pitch_bend_c, 8, 7936
8, 2620, Note_on_c, 8, 70, 0
8, 2620, Pitch_bend_c, 8, 8864
8, 2627, Pitch_bend_c, 8, 8192
8, 2628, Note_on_c, 8, 72, 55
8, 2628, Pitch_bend_c, 8, 8224
8, 2630, Pitch_bend_c, 8, 8256
8, 2631, Pitch_bend_c, 8, 8320
8, 2633, Pitch_bend_c, 8, 8640
8, 2634, Pitch_bend_c, 8, 9152
8, 2635, Pitch_bend_c, 8, 9920
8, 2636, Pitch_bend_c, 8, 10752
8, 2638, Pitch_bend_c, 8, 11488
8, 2639, Pitch_bend_c, 8, 12000
8, 2641, Pitch_bend_c, 8, 12288
8, 2642, Pitch_bend_c, 8, 12352
8, 2643, Note_on_c, 8, 72, 0
8, 2651, Pitch_bend_c, 8, 8192
8, 2652, Note_on_c, 8, 72, 64
8, 2652, Pitch_bend_c, 8, 9472
8, 2654, Pitch_bend_c, 8, 9728
8, 2656, Pitch_bend_c, 8, 10080
8, 2657, Pitch_bend_c, 8, 10400
8, 2658, Pitch_bend_c, 8, 10688
8, 2659, Pitch_bend_c, 8, 10816
8, 2662, Pitch_bend_c, 8, 10528
8, 2663, Pitch_bend_c, 8, 10016
8, 2665, Pitch_bend_c, 8, 9312
8, 2666, Pitch_bend_c, 8, 8640
8, 2667, Pitch_bend_c, 8, 8192
8, 2668, Note_on_c, 8, 72, 0
8, 2668, Pitch_bend_c, 8, 10528
8, 2672, Note_on_c, 8, 70, 64
8, 2672, Pitch_bend_c, 8, 8032
8, 2676, Pitch_bend_c, 8, 8064
8, 2679, Pitch_bend_c, 8, 7968
8, 2680, Pitch_bend_c, 8, 16320
8, 2681, Pitch_bend_c, 8, 16288
8, 2682, Pitch_bend_c, 8, 16320
8, 2684, Note_on_c, 8, 70, 0
8, 2684, Pitch_bend_c, 8, 8512
8, 2685, Pitch_bend_c, 8, 8192
8, 2687, Note_on_c, 8, 70, 44
8, 2692, Note_on_c, 8, 70, 0
8, 2695, Note_on_c, 8, 67, 16
8, 2695, Pitch_bend_c, 8, 8128
8, 2696, Pitch_bend_c, 8, 8224
8, 2699, Pitch_bend_c, 8, 8192
8, 2700, Pitch_bend_c, 8, 8224
8, 2704, Note_on_c, 8, 67, 0
8, 2704, Pitch_bend_c, 8, 8192
8, 2705, Note_on_c, 8, 70, 43
8, 2705, Pitch_bend_c, 8, 8064
8, 2712, Pitch_bend_c, 8, 8128
8, 2713, Pitch_bend_c, 8, 8096
8, 2721, Pitch_bend_c, 8, 8128
8, 2723, Pitch_bend_c, 8, 8160
8, 2729, Pitch_bend_c, 8, 8128
8, 2730, Pitch_bend_c, 8, 8160
8, 2731, Pitch_bend_c, 8, 8256
8, 2732, Pitch_bend_c, 8, 8512
8, 2734, Pitch_bend_c, 8, 8832
8, 2735, Pitch_bend_c, 8, 9024
8, 2737, Pitch_bend_c, 8, 9056
8, 2738, Pitch_bend_c, 8, 8896
8, 2739, Pitch_bend_c, 8, 8544
8, 2740, Pitch_bend_c, 8, 8224
8, 2742, Pitch_bend_c, 8, 8032
8, 2743, Pitch_bend_c, 8, 7904
8, 2744, Pitch_bend_c, 8, 7936
8, 2745, Pitch_bend_c, 8, 8256
8, 2747, Pitch_bend_c, 8, 10592
8, 2748, Pitch_bend_c, 8, 10784
8, 2749, Pitch_bend_c, 8, 11008
8, 2751, Pitch_bend_c, 8, 11104
8, 2752, Pitch_bend_c, 8, 10880
8, 2753, Pitch_bend_c, 8, 8512
8, 2755, Pitch_bend_c, 8, 8352
8, 2756, Pitch_bend_c, 8, 8192
8, 2757, Pitch_bend_c, 8, 8096
8, 2759, Note_on_c, 8, 70, 0
8, 2759, Pitch_bend_c, 8, 8512
8, 2978, Note_on_c, 8, 79, 99
8, 2978, Pitch_bend_c, 8, 8448
8, 2979, Pitch_bend_c, 8, 8544
8, 2980, Pitch_bend_c, 8, 8448
8, 2981, Pitch_bend_c, 8, 8384
8, 2983, Pitch_bend_c, 8, 8320
8, 2984, Pitch_bend_c, 8, 8384
8, 2986, Pitch_bend_c, 8, 8736
8, 2987, Pitch_bend_c, 8, 9248
8, 2988, Pitch_bend_c, 8, 9824
8, 2989, Pitch_bend_c, 8, 10496
8, 2990, Pitch_bend_c, 8, 11136
8, 2992, Pitch_bend_c, 8, 11584
8, 2993, Pitch_bend_c, 8, 12032
8, 2995, Pitch_bend_c, 8, 12320
8, 2996, Pitch_bend_c, 8, 12448
8, 2997, Pitch_bend_c, 8, 12576
8, 3004, Pitch_bend_c, 8, 12512
8, 3013, Pitch_bend_c, 8, 12576
8, 3016, Pitch_bend_c, 8, 12512
8, 3018, Pitch_bend_c, 8, 12448
8, 3019, Pitch_bend_c, 8, 12320
8, 3021, Pitch_bend_c, 8, 12224
8, 3022, Pitch_bend_c, 8, 11936
8, 3023, Pitch_bend_c, 8, 11456
8, 3025, Pitch_bend_c, 8, 10848
8, 3026, Pitch_bend_c, 8, 10080
8, 3027, Pitch_bend_c, 8, 9408
8, 3028, Pitch_bend_c, 8, 8832
8, 3030, Pitch_bend_c, 8, 8544
8, 3031, Pitch_bend_c, 8, 8448
8, 3032, Note_on_c, 8, 79, 0
8, 3032, Pitch_bend_c, 8, 10080
8, 3035, Note_on_c, 8, 77, 87
8, 3035, Pitch_bend_c, 8, 8736
8, 3037, Pitch_bend_c, 8, 8672
8, 3038, Pitch_bend_c, 8, 8736
8, 3039, Pitch_bend_c, 8, 8800
8, 3041, Pitch_bend_c, 8, 8832
8, 3045, Pitch_bend_c, 8, 8800
8, 3047, Pitch_bend_c, 8, 8832
8, 3049, Pitch_bend_c, 8, 8928
8, 3050, Pitch_bend_c, 8, 8832
8, 3051, Pitch_bend_c, 8, 6624
8, 3052, Note_on_c, 8, 77, 0
8, 3052, Pitch_bend_c, 8, 8800
8, 3053, Pitch_bend_c, 8, 8192
8, 3054, Note_on_c, 8, 74, 85
8, 3054, Pitch_bend_c, 8, 12672
8, 3055, Pitch_bend_c, 8, 12640
8, 3057, Pitch_bend_c, 8, 12576
8, 3059, Pitch_bend_c, 8, 12640
8, 3063, Pitch_bend_c, 8, 12576
8, 3064, Pitch_bend_c, 8, 12544
8, 3068, Pitch_bend_c, 8, 12576
8, 3069, Note_on_c, 8, 74, 0
8, 3069, Pitch_bend_c, 8, 8192
8, 3070, Note_on_c, 8, 77, 87
8, 3071, Pitch_bend_c, 8, 8832
8, 3073, Pitch_bend_c, 8, 8896
8, 3077, Pitch_bend_c, 8, 8800
8, 3078, Pitch_bend_c, 8, 8672
8, 3079, Pitch_bend_c, 8, 8544
8, 3081, Pitch_bend_c, 8, 8384
8, 3082, Pitch_bend_c, 8, 8192
8, 3083, Pitch_bend_c, 8, 8000
8, 3085, Note_on_c, 8, 77, 0
8, 3085, Pitch_bend_c, 8, 8544
8, 3087, Pitch_bend_c, 8, 8192
8, 3088, Note_on_c, 8, 72, 83
8, 3088, Pitch_bend_c, 8, 8512
8, 3091, Pitch_bend_c, 8, 8480
8, 3093, Pitch_bend_c, 8, 8512
8, 3094, Pitch_bend_c, 8, 8544
8, 3095, Pitch_bend_c, 8, 8608
8, 3097, Pitch_bend_c, 8, 8640
8, 3098, Pitch_bend_c, 8, 8800
8, 3099, Pitch_bend_c, 8, 9056
8, 3100, Pitch_bend_c, 8, 9600
8, 3102, Pitch_bend_c, 8, 10304
8, 3103, Pitch_bend_c, 8, 11136
8, 3104, Pitch_bend_c, 8, 11936
8, 3105, Pitch_bend_c, 8, 12512
8, 3107, Pitch_bend_c, 8, 12608
8, 3108, Note_on_c, 8, 72, 0
8, 3110, Pitch_bend_c, 8, 8192
8, 3113, Pitch_bend_c, 8, 11200
8, 3114, Pitch_bend_c, 8, 12224
8, 3117, Pitch_bend_c, 8, 12352
8, 3119, Pitch_bend_c, 8, 12480
8, 3120, Pitch_bend_c, 8, 8192
8, 3120, Note_on_c, 8, 70, 71
8, 3135, Pitch_bend_c, 8, 8480
8, 3136, Pitch_bend_c, 8, 8512
8, 3144, Pitch_bend_c, 8, 8480
8, 3145, Pitch_bend_c, 8, 8416
8, 3147, Pitch_bend_c, 8, 8320
8, 3148, Pitch_bend_c, 8, 8256
8, 3149, Pitch_bend_c, 8, 8192
8, 3151, Pitch_bend_c, 8, 8160
8, 3154, Pitch_bend_c, 8, 8192
8, 3156, Pitch_bend_c, 8, 8224
8, 3157, Pitch_bend_c, 8, 8384
8, 3158, Pitch_bend_c, 8, 8672
8, 3160, Pitch_bend_c, 8, 8960
8, 3161, Pitch_bend_c, 8, 9184
8, 3162, Pitch_bend_c, 8, 9344
8, 3164, Pitch_bend_c, 8, 9312
8, 3165, Pitch_bend_c, 8, 9024
8, 3166, Pitch_bend_c, 8, 8608
8, 3168, Pitch_bend_c, 8, 8256
8, 3169, Pitch_bend_c, 8, 8032
8, 3170, Pitch_bend_c, 8, 7904
8, 3172, Pitch_bend_c, 8, 7936
8, 3173, Pitch_bend_c, 8, 8064
8, 3174, Pitch_bend_c, 8, 8320
8, 3175, Pitch_bend_c, 8, 8704
8, 3177, Pitch_bend_c, 8, 9152
8, 3178, Pitch_bend_c, 8, 9440
8, 3179, Pitch_bend_c, 8, 9504
8, 3180, Pitch_bend_c, 8, 9216
8, 3182, Pitch_bend_c, 8, 8832
8, 3183, Pitch_bend_c, 8, 8384
8, 3184, Pitch_bend_c, 8, 8064
8, 3186, Pitch_bend_c, 8, 7936
8, 3187, Pitch_bend_c, 8, 7904
8, 3188, Pitch_bend_c, 8, 7936
8, 3190, Pitch_bend_c, 8, 7904
8, 3191, Pitch_bend_c, 8, 7936
8, 3192, Pitch_bend_c, 8, 7776
8, 3193, Note_on_c, 8, 70, 0
8, 3221, Note_on_c, 8, 67, 56
8, 3221, Pitch_bend_c, 8, 8352
8, 3222, Pitch_bend_c, 8, 8384
8, 3228, Pitch_bend_c, 8, 8352
8, 3229, Pitch_bend_c, 8, 8288
8, 3230, Pitch_bend_c, 8, 8256
8, 3232, Pitch_bend_c, 8, 8064
8, 3233, Note_on_c, 8, 67, 0
8, 3233, Pitch_bend_c, 8, 8192
8, 3234, Note_on_c, 8, 70, 68
8, 3234, Pitch_bend_c, 8, 8064
8, 3236, Pitch_bend_c, 8, 8096
8, 3237, Pitch_bend_c, 8, 8128
8, 3240, Pitch_bend_c, 8, 8160
8, 3241, Pitch_bend_c, 8, 8192
8, 3243, Note_on_c, 8, 70, 0
8, 3243, Pitch_bend_c, 8, 8256
8, 3245, Note_on_c, 8, 72, 71
8, 3245, Pitch_bend_c, 8, 8544
8, 3247, Pitch_bend_c, 8, 8608
8, 3248, Pitch_bend_c, 8, 8544
8, 3249, Pitch_bend_c, 8, 8480
8, 3250, Pitch_bend_c, 8, 8448
8, 3252, Pitch_bend_c, 8, 8672
8, 3253, Pitch_bend_c, 8, 11296
8, 3255, Pitch_bend_c, 8, 11552
8, 3256, Pitch_bend_c, 8, 12000
8, 3257, Pitch_bend_c, 8, 12544
8, 3258, Pitch_bend_c, 8, 13152
8, 3260, Pitch_bend_c, 8, 13440
8, 3261, Note_on_c, 8, 72, 0
8, 3267, Pitch_bend_c, 8, 8192
8, 3268, Note_on_c, 8, 72, 51
8, 3271, Pitch_bend_c, 8, 8352
8, 3272, Pitch_bend_c, 8, 8832
8, 3273, Pitch_bend_c, 8, 11072
8, 3274, Pitch_bend_c, 8, 11328
8, 3276, Pitch_bend_c, 8, 11744
8, 3277, Pitch_bend_c, 8, 12384
8, 3278, Pitch_bend_c, 8, 13088
8, 3280, Pitch_bend_c, 8, 13600
8, 3281, Pitch_bend_c, 8, 13920
8, 3282, Pitch_bend_c, 8, 14144
8, 3283, Pitch_bend_c, 8, 14304
8, 3285, Pitch_bend_c, 8, 14368
8, 3286, Pitch_bend_c, 8, 14464
8, 3287, Pitch_bend_c, 8, 14496
8, 3291, Pitch_bend_c, 8, 14464
8, 3294, Pitch_bend_c, 8, 14400
8, 3298, Pitch_bend_c, 8, 14368
8, 3302, Pitch_bend_c, 8, 14336
8, 3303, Pitch_bend_c, 8, 14208
8, 3304, Pitch_bend_c, 8, 13856
8, 3305, Pitch_bend_c, 8, 10240
8, 3307, Pitch_bend_c, 8, 9728
8, 3308, Pitch_bend_c, 8, 5888
8, 3309, Note_on_c, 8, 72, 0
8, 3311, Pitch_bend_c, 8, 8192
8, 3325, Note_on_c, 8, 77, 88
8, 3325, Pitch_bend_c, 8, 7776
8, 3328, Pitch_bend_c, 8, 8000
8, 3329, Pitch_bend_c, 8, 10656
8, 3331, Pitch_bend_c, 8, 11136
8, 3332, Pitch_bend_c, 8, 14080
8, 3333, Pitch_bend_c, 8, 14336
8, 3335, Pitch_bend_c, 8, 14656
8, 3336, Pitch_bend_c, 8, 15104
8, 3337, Pitch_bend_c, 8, 15520
8, 3339, Pitch_bend_c, 8, 15744
8, 3340, Pitch_bend_c, 8, 15872
8, 3342, Pitch_bend_c, 8, 15904
8, 3349, Pitch_bend_c, 8, 15808
8, 3350, Pitch_bend_c, 8, 15744
8, 3351, Pitch_bend_c, 8, 15648
8, 3353, Pitch_bend_c, 8, 15520
8, 3354, Pitch_bend_c, 8, 15488
8, 3355, Pitch_bend_c, 8, 15264
8, 3356, Pitch_bend_c, 8, 15008
8, 3358, Pitch_bend_c, 8, 14336
8, 3359, Pitch_bend_c, 8, 11584
8, 3360, Pitch_bend_c, 8, 11392
8, 3361, Pitch_bend_c, 8, 10976
8, 3363, Pitch_bend_c, 8, 10464
8, 3364, Pitch_bend_c, 8, 9792
8, 3365, Pitch_bend_c, 8, 9280
8, 3367, Pitch_bend_c, 8, 8896
8, 3368, Pitch_bend_c, 8, 8544
8, 3369, Pitch_bend_c, 8, 8288
8, 3370, Note_on_c, 8, 77, 0
8, 3370, Pitch_bend_c, 8, 9792
8, 3371, Pitch_bend_c, 8, 8192
8, 3372, Note_on_c, 8, 77, 56
8, 3372, Pitch_bend_c, 8, 7712
8, 3377, Pitch_bend_c, 8, 7680
8, 3380, Pitch_bend_c, 8, 7712
8, 3381, Note_on_c, 8, 77, 0
8, 3381, Pitch_bend_c, 8, 7776
8, 3382, Pitch_bend_c, 8, 8192
8, 3386, Note_on_c, 8, 70, 38
8, 3386, Pitch_bend_c, 8, 8480
8, 3389, Pitch_bend_c, 8, 8512
8, 3390, Pitch_bend_c, 8, 8480
8, 3393, Pitch_bend_c, 8, 8448
8, 3395, Pitch_bend_c, 8, 8416
8, 3396, Pitch_bend_c, 8, 8384
8, 3398, Pitch_bend_c, 8, 8320
8, 3399, Pitch_bend_c, 8, 8224
8, 3400, Pitch_bend_c, 8, 8288
8, 3401, Pitch_bend_c, 8, 8576
8, 3403, Pitch_bend_c, 8, 9120
8, 3404, Pitch_bend_c, 8, 9728
8, 3405, Pitch_bend_c, 8, 10080
8, 3407, Pitch_bend_c, 8, 9888
8, 3408, Pitch_bend_c, 8, 9344
8, 3409, Pitch_bend_c, 8, 8672
8, 3411, Pitch_bend_c, 8, 8192
8, 3412, Pitch_bend_c, 8, 8000
8, 3413, Pitch_bend_c, 8, 7936
8, 3415, Pitch_bend_c, 8, 8000
8, 3416, Pitch_bend_c, 8, 8192
8, 3417, Pitch_bend_c, 8, 8352
8, 3419, Pitch_bend_c, 8, 8544
8, 3420, Note_on_c, 8, 70, 0
8, 3420, Pitch_bend_c, 8, 8608
8, 3428, Pitch_bend_c, 8, 8192
8, 3429, Note_on_c, 8, 72, 49
8, 3429, Pitch_bend_c, 8, 9408
8, 3431, Pitch_bend_c, 8, 9664
8, 3433, Pitch_bend_c, 8, 10080
8, 3434, Pitch_bend_c, 8, 10624
8, 3435, Pitch_bend_c, 8, 11296
8, 3436, Pitch_bend_c, 8, 12000
8, 3438, Pitch_bend_c, 8, 12672
8, 3439, Pitch_bend_c, 8, 13440
8, 3440, Pitch_bend_c, 8, 14176
8, 3441, Pitch_bend_c, 8, 14880
8, 3443, Pitch_bend_c, 8, 15424
8, 3444, Pitch_bend_c, 8, 15744
8, 3445, Pitch_bend_c, 8, 15904
8, 3447, Pitch_bend_c, 8, 16000
8, 3453, Pitch_bend_c, 8, 15936
8, 3456, Pitch_bend_c, 8, 15904
8, 3457, Pitch_bend_c, 8, 15872
8, 3464, Pitch_bend_c, 8, 15808
8, 3466, Pitch_bend_c, 8, 15776
8, 3469, Pitch_bend_c, 8, 15744
8, 3470, Pitch_bend_c, 8, 15712
8, 3471, Pitch_bend_c, 8, 15648
8, 3473, Pitch_bend_c, 8, 15616
8, 3474, Pitch_bend_c, 8, 15584
8, 3476, Pitch_bend_c, 8, 15488
8, 3477, Pitch_bend_c, 8, 15424
8, 3478, Pitch_bend_c, 8, 15328
8, 3480, Pitch_bend_c, 8, 15296
8, 3481, Pitch_bend_c, 8, 15168
8, 3482, Pitch_bend_c, 8, 14976
8, 3483, Pitch_bend_c, 8, 14784
8, 3485, Pitch_bend_c, 8, 14560
8, 3486, Pitch_bend_c, 8, 14400
8, 3487, Pitch_bend_c, 8, 14304
8, 3489, Pitch_bend_c, 8, 14208
8, 3490, Pitch_bend_c, 8, 13952
8, 3491, Pitch_bend_c, 8, 11264
8, 3492, Pitch_bend_c, 8, 10816
8, 3494, Pitch_bend_c, 8, 7936
8, 3495, Note_on_c, 8, 72, 0
8, 3549, Note_on_c, 8, 69, 97
8, 3549, Pitch_bend_c, 8, 8192
8, 3550, Pitch_bend_c, 8, 8480
8, 3551, Pitch_bend_c, 8, 8416
8, 3552, Pitch_bend_c, 8, 8384
8, 3556, Pitch_bend_c, 8, 8512
8, 3557, Pitch_bend_c, 8, 12160
8, 3558, Pitch_bend_c, 8, 12256
8, 3560, Pitch_bend_c, 8, 12320
8, 3561, Pitch_bend_c, 8, 12384
8, 3563, Pitch_bend_c, 8, 12448
8, 3564, Pitch_bend_c, 8, 12480
8, 3566, Pitch_bend_c, 8, 12512
8, 3573, Pitch_bend_c, 8, 12544
8, 3575, Pitch_bend_c, 8, 12576
8, 3578, Pitch_bend_c, 8, 12608
8, 3579, Pitch_bend_c, 8, 12640
8, 3580, Pitch_bend_c, 8, 12704
8, 3582, Pitch_bend_c, 8, 12768
8, 3583, Pitch_bend_c, 8, 12928
8, 3585, Pitch_bend_c, 8, 13024
8, 3587, Note_on_c, 8, 69, 0
8, 3587, Note_on_c, 8, 65, 88
8, 3587, Pitch_bend_c, 8, 8672
8, 3594, Pitch_bend_c, 8, 8512
8, 3595, Pitch_bend_c, 8, 8480
8, 3596, Pitch_bend_c, 8, 8416
8, 3598, Pitch_bend_c, 8, 8288
8, 3599, Note_on_c, 8, 65, 0
8, 3599, Pitch_bend_c, 8, 8672
8, 3600, Pitch_bend_c, 8, 8192
8, 3601, Note_on_c, 8, 63, 46
8, 3601, Pitch_bend_c, 8, 8128
8, 3606, Pitch_bend_c, 8, 8096
8, 3608, Note_on_c, 8, 63, 0
8, 3608, Pitch_bend_c, 8, 8192
8, 3613, Note_on_c, 8, 65, 72
8, 3613, Pitch_bend_c, 8, 8416
8, 3619, Pitch_bend_c, 8, 8448
8, 3620, Pitch_bend_c, 8, 8480
8, 3622, Pitch_bend_c, 8, 8512
8, 3623, Pitch_bend_c, 8, 8544
8, 3624, Pitch_bend_c, 8, 8576
8, 3626, Pitch_bend_c, 8, 8544
8, 3627, Pitch_bend_c, 8, 8192
8, 3628, Note_on_c, 8, 61, 49
8, 3632, Note_on_c, 8, 65, 0
8, 3632, Pitch_bend_c, 8, 8224
8, 3634, Pitch_bend_c, 8, 8288
8, 3635, Pitch_bend_c, 8, 8320
8, 3636, Pitch_bend_c, 8, 8352
8, 3637, Pitch_bend_c, 8, 8320
8, 3639, Pitch_bend_c, 8, 8288
8, 3640, Pitch_bend_c, 8, 8224
8, 3642, Pitch_bend_c, 8, 8192
8, 3643, Pitch_bend_c, 8, 8128
8, 3644, Pitch_bend_c, 8, 8032
8, 3647, Pitch_bend_c, 8, 8096
8, 3648, Pitch_bend_c, 8, 8384
8, 3649, Pitch_bend_c, 8, 8928
8, 3650, Pitch_bend_c, 8, 9536
8, 3652, Pitch_bend_c, 8, 10144
8, 3653, Pitch_bend_c, 8, 10528
8, 3654, Pitch_bend_c, 8, 10688
8, 3656, Pitch_bend_c, 8, 10656
8, 3657, Pitch_bend_c, 8, 10560
8, 3658, Pitch_bend_c, 8, 10240
8, 3660, Note_on_c, 8, 61, 0
8, 3660, Pitch_bend_c, 8, 9856
8, 3661, Pitch_bend_c, 8, 8192
8, 3662, Note_on_c, 8, 58, 47
8, 3662, Pitch_bend_c, 8, 8064
8, 3663, Pitch_bend_c, 8, 8128
8, 3667, Pitch_bend_c, 8, 8160
8, 3673, Pitch_bend_c, 8, 8128
8, 3677, Pitch_bend_c, 8, 8096
8, 3679, Pitch_bend_c, 8, 8128
8, 3684, Pitch_bend_c, 8, 8096
8, 3687, Pitch_bend_c, 8, 8064
8, 3690, Pitch_bend_c, 8, 8032
8, 3693, Pitch_bend_c, 8, 8000
8, 3696, Pitch_bend_c, 8, 8032
8, 3697, Pitch_bend_c, 8, 8128
8, 3698, Pitch_bend_c, 8, 8288
8, 3700, Pitch_bend_c, 8, 8544
8, 3701, Pitch_bend_c, 8, 8768
8, 3702, Pitch_bend_c, 8, 8864
8, 3705, Note_on_c, 8, 65, 60
8, 3705, Pitch_bend_c, 8, 8640
8, 3706, Pitch_bend_c, 8, 8672
8, 3708, Pitch_bend_c, 8, 8704
8, 3709, Pitch_bend_c, 8, 8064
8, 3710, Pitch_bend_c, 8, 8800
8, 3711, Note_on_c, 8, 58, 0
8, 3711, Pitch_bend_c, 8, 8736
8, 3712, Pitch_bend_c, 8, 8544
8, 3713, Note_on_c, 8, 65, 0
8, 3713, Pitch_bend_c, 8, 8704
8, 3717, Note_on_c, 8, 70, 84
8, 3717, Pitch_bend_c, 8, 8384
8, 3720, Pitch_bend_c, 8, 8352
8, 3722, Pitch_bend_c, 8, 8320
8, 3723, Pitch_bend_c, 8, 8256
8, 3724, Pitch_bend_c, 8, 8224
8, 3725, Pitch_bend_c, 8, 8256
8, 3727, Pitch_bend_c, 8, 8288
8, 3728, Pitch_bend_c, 8, 8320
8, 3732, Pitch_bend_c, 8, 8288
8, 3733, Pitch_bend_c, 8, 8320
8, 3734, Pitch_bend_c, 8, 8384
8, 3736, Pitch_bend_c, 8, 8480
8, 3737, Pitch_bend_c, 8, 8576
8, 3740, Note_on_c, 8, 70, 0
8, 3740, Pitch_bend_c, 8, 8544
8, 3741, Note_on_c, 8, 70, 84
8, 3741, Pitch_bend_c, 8, 8224
8, 3745, Pitch_bend_c, 8, 8256
8, 3748, Pitch_bend_c, 8, 8512
8, 3749, Pitch_bend_c, 8, 9056
8, 3750, Pitch_bend_c, 8, 9632
8, 3752, Pitch_bend_c, 8, 10144
8, 3753, Pitch_bend_c, 8, 10304
8, 3754, Pitch_bend_c, 8, 9952
8, 3756, Pitch_bend_c, 8, 9408
8, 3757, Pitch_bend_c, 8, 8896
8, 3758, Pitch_bend_c, 8, 8480
8, 3760, Pitch_bend_c, 8, 8352
8, 3761, Pitch_bend_c, 8, 8320
8, 3762, Pitch_bend_c, 8, 8352
8, 3769, Pitch_bend_c, 8, 8320
8, 3770, Pitch_bend_c, 8, 8288
8, 3772, Pitch_bend_c, 8, 8256
8, 3774, Pitch_bend_c, 8, 8224
8, 3776, Pitch_bend_c, 8, 8256
8, 3777, Note_on_c, 8, 70, 0
8, 3777, Pitch_bend_c, 8, 8320
8, 3779, Pitch_bend_c, 8, 8192
8, 3780, Note_on_c, 8, 74, 89
8, 3780, Pitch_bend_c, 8, 7872
8, 3781, Pitch_bend_c, 8, 8064
8, 3783, Pitch_bend_c, 8, 8192
8, 3796, Pitch_bend_c, 8, 7744
8, 3797, Pitch_bend_c, 8, 7712
8, 3799, Pitch_bend_c, 8, 7648
8, 3800, Pitch_bend_c, 8, 7616
8, 3801, Pitch_bend_c, 8, 7648
8, 3802, Pitch_bend_c, 8, 7712
8, 3804, Note_on_c, 8, 74, 0
8, 3804, Pitch_bend_c, 8, 7904
8, 3806, Pitch_bend_c, 8, 8192
8, 3807, Note_on_c, 8, 74, 89
8, 3807, Pitch_bend_c, 8, 8512
8, 3808, Pitch_bend_c, 8, 8064
8, 3810, Pitch_bend_c, 8, 8096
8, 3814, Pitch_bend_c, 8, 8000
8, 3815, Pitch_bend_c, 8, 7904
8, 3818, Pitch_bend_c, 8, 7840
8, 3821, Pitch_bend_c, 8, 7776
8, 3823, Pitch_bend_c, 8, 12000
8, 3824, Pitch_bend_c, 8, 12064
8, 3825, Note_on_c, 8, 74, 0
8, 3826, Pitch_bend_c, 8, 8192
8, 3827, Note_on_c, 8, 75, 89
8, 3830, Pitch_bend_c, 8, 8128
8, 3833, Pitch_bend_c, 8, 8160
8, 3834, Pitch_bend_c, 8, 8128
8, 3836, Pitch_bend_c, 8, 8160
8, 3837, Pitch_bend_c, 8, 8128
8, 3838, Pitch_bend_c, 8, 8032
8, 3839, Pitch_bend_c, 8, 8064
8, 3841, Pitch_bend_c, 8, 8160
8, 3843, Pitch_bend_c, 8, 8192
8, 3844, Pitch_bend_c, 8, 8224
8, 3846, Pitch_bend_c, 8, 8320
8, 3847, Pitch_bend_c, 8, 8416
8, 3848, Pitch_bend_c, 8, 8544
8, 3850, Pitch_bend_c, 8, 8640
8, 3851, Pitch_bend_c, 8, 8672
8, 3852, Pitch_bend_c, 8, 8768
8, 3854, Pitch_bend_c, 8, 8864
8, 3855, Pitch_bend_c, 8, 8960
8, 3856, Pitch_bend_c, 8, 9056
8, 3858, Pitch_bend_c, 8, 9120
8, 3859, Pitch_bend_c, 8, 9280
8, 3860, Pitch_bend_c, 8, 9344
8, 3862, Pitch_bend_c, 8, 9536
8, 3863, Pitch_bend_c, 8, 9760
8, 3864, Pitch_bend_c, 8, 9984
8, 3865, Pitch_bend_c, 8, 10304
8, 3866, Pitch_bend_c, 8, 10784
8, 3868, Pitch_bend_c, 8, 11328
8, 3869, Pitch_bend_c, 8, 12000
8, 3870, Pitch_bend_c, 8, 12704
8, 3872, Pitch_bend_c, 8, 13344
8, 3873, Pitch_bend_c, 8, 13824
8, 3875, Pitch_bend_c, 8, 14048
8, 3876, Pitch_bend_c, 8, 14144
8, 3877, Pitch_bend_c, 8, 13952
8, 3879, Pitch_bend_c, 8, 11360
8, 3880, Pitch_bend_c, 8, 10912
8, 3881, Pitch_bend_c, 8, 10304
8, 3882, Note_on_c, 8, 75, 0
8, 3882, Note_on_c, 8, 77, 86
8, 3882, Pitch_bend_c, 8, 8576
8, 3887, Pitch_bend_c, 8, 8544
8, 3888, Pitch_bend_c, 8, 8576
8, 3889, Pitch_bend_c, 8, 8544
8, 3892, Pitch_bend_c, 8, 8480
8, 3895, Pitch_bend_c, 8, 8416
8, 3896, Pitch_bend_c, 8, 8384
8, 3898, Pitch_bend_c, 8, 8320
8, 3900, Pitch_bend_c, 8, 8288
8, 3903, Pitch_bend_c, 8, 8320
8, 3907, Pitch_bend_c, 8, 8384
8, 3909, Pitch_bend_c, 8, 8416
8, 3915, Pitch_bend_c, 8, 8384
8, 3916, Pitch_bend_c, 8, 8416
8, 3917, Pitch_bend_c, 8, 8576
8, 3919, Pitch_bend_c, 8, 8896
8, 3920, Pitch_bend_c, 8, 9280
8, 3921, Pitch_bend_c, 8, 9696
8, 3922, Pitch_bend_c, 8, 10048
8, 3924, Pitch_bend_c, 8, 10272
8, 3925, Pitch_bend_c, 8, 10368
8, 3928, Pitch_bend_c, 8, 10208
8, 3929, Pitch_bend_c, 8, 9856
8, 3930, Pitch_bend_c, 8, 9504
8, 3931, Pitch_bend_c, 8, 9088
8, 3932, Pitch_bend_c, 8, 8800
8, 3934, Pitch_bend_c, 8, 8672
8, 3935, Pitch_bend_c, 8, 8640
8, 3936, Pitch_bend_c, 8, 8672
8, 3938, Pitch_bend_c, 8, 8896
8, 3939, Pitch_bend_c, 8, 9280
8, 3940, Pitch_bend_c, 8, 9696
8, 3942, Pitch_bend_c, 8, 10048
8, 3943, Pitch_bend_c, 8, 10272
8, 3944, Pitch_bend_c, 8, 10304
8, 3945, Pitch_bend_c, 8, 10272
8, 3947, Pitch_bend_c, 8, 10016
8, 3948, Pitch_bend_c, 8, 9600
8, 3949, Pitch_bend_c, 8, 9184
8, 3951, Pitch_bend_c, 8, 8800
8, 3952, Pitch_bend_c, 8, 8576
8, 3953, Pitch_bend_c, 8, 8544
8, 3954, Note_on_c, 8, 77, 0
8, 3994, Note_on_c, 8, 75, 89
8, 3994, Pitch_bend_c, 8, 8192
8, 3995, Pitch_bend_c, 8, 8544
8, 3998, Pitch_bend_c, 8, 8448
8, 4000, Pitch_bend_c, 8, 8256
8, 4001, Pitch_bend_c, 8, 8128
8, 4003, Pitch_bend_c, 8, 8064
8, 4005, Pitch_bend_c, 8, 8032
8, 4006, Pitch_bend_c, 8, 7904
8, 4007, Pitch_bend_c, 8, 7872
8, 4009, Pitch_bend_c, 8, 7808
8, 4010, Note_on_c, 8, 75, 0
8, 4010, Pitch_bend_c, 8, 8064
8, 4018, Pitch_bend_c, 8, 8192
8, 4019, Note_on_c, 8, 73, 88
8, 4019, Pitch_bend_c, 8, 8672
8, 4020, Pitch_bend_c, 8, 8448
8, 4021, Pitch_bend_c, 8, 8416
8, 4023, Pitch_bend_c, 8, 8384
8, 4024, Pitch_bend_c, 8, 8352
8, 4025, Pitch_bend_c, 8, 8288
8, 4028, Pitch_bend_c, 8, 8256
8, 4030, Pitch_bend_c, 8, 8288
8, 4031, Note_on_c, 8, 73, 0
8, 4031, Pitch_bend_c, 8, 8384
8, 4040, Pitch_bend_c, 8, 8192
8, 4041, Note_on_c, 8, 75, 87
8, 4042, Pitch_bend_c, 8, 8672
8, 4043, Pitch_bend_c, 8, 8640
8, 4050, Pitch_bend_c, 8, 8576
8, 4052, Note_on_c, 8, 75, 0
8, 4052, Pitch_bend_c, 8, 8800
8, 4066, Pitch_bend_c, 8, 8192
8, 4067, Note_on_c, 8, 76, 87
8, 4068, Pitch_bend_c, 8, 8608
8, 4070, Pitch_bend_c, 8, 8672
8, 4071, Pitch_bend_c, 8, 8768
8, 4074, Pitch_bend_c, 8, 8800
8, 4075, Pitch_bend_c, 8, 8768
8, 4076, Pitch_bend_c, 8, 8512
8, 4078, Pitch_bend_c, 8, 8224
8, 4079, Pitch_bend_c, 8, 7840
8, 4080, Pitch_bend_c, 8, 7328
8, 4081, Pitch_bend_c, 8, 6752
8, 4083, Pitch_bend_c, 8, 6176
8, 4084, Pitch_bend_c, 8, 5600
8, 4085, Pitch_bend_c, 8, 5248
8, 4087, Pitch_bend_c, 8, 5056
8, 4088, Pitch_bend_c, 8, 5024
8, 4089, Pitch_bend_c, 8, 4896
8, 4090, Pitch_bend_c, 8, 4704
8, 4092, Pitch_bend_c, 8, 4384
8, 4093, Pitch_bend_c, 8, 4064
8, 4095, Pitch_bend_c, 8, 3840
8, 4096, Pitch_bend_c, 8, 3712
8, 4097, Pitch_bend_c, 8, 3680
8, 4100, Pitch_bend_c, 8, 3648
8, 4101, Pitch_bend_c, 8, 3680
8, 4102, Pitch_bend_c, 8, 3552
8, 4103, Note_on_c, 8, 76, 0
8, 4103, Pitch_bend_c, 8, 3712
8, 4105, Note_on_c, 8, 73, 84
8, 4105, Pitch_bend_c, 8, 8192
8, 4106, Pitch_bend_c, 8, 8128
8, 4107, Pitch_bend_c, 8, 8160
8, 4108, Pitch_bend_c, 8, 8128
8, 4110, Pitch_bend_c, 8, 8064
8, 4114, Pitch_bend_c, 8, 8128
8, 4115, Pitch_bend_c, 8, 8032
8, 4117, Pitch_bend_c, 8, 8064
8, 4118, Pitch_bend_c, 8, 8192
8, 4120, Pitch_bend_c, 8, 8416
8, 4121, Pitch_bend_c, 8, 8864
8, 4122, Pitch_bend_c, 8, 9344
8, 4123, Pitch_bend_c, 8, 9856
8, 4124, Pitch_bend_c, 8, 10432
8, 4126, Pitch_bend_c, 8, 10976
8, 4127, Pitch_bend_c, 8, 11328
8, 4128, Pitch_bend_c, 8, 11552
8, 4130, Pitch_bend_c, 8, 11648
8, 4131, Pitch_bend_c, 8, 11616
8, 4132, Pitch_bend_c, 8, 11360
8, 4133, Note_on_c, 8, 73, 0
8, 4145, Pitch_bend_c, 8, 8192
8, 4146, Note_on_c, 8, 70, 70
8, 4146, Pitch_bend_c, 8, 8384
8, 4147, Pitch_bend_c, 8, 8480
8, 4150, Pitch_bend_c, 8, 8448
8, 4151, Pitch_bend_c, 8, 8416
8, 4152, Pitch_bend_c, 8, 8384
8, 4153, Pitch_bend_c, 8, 8288
8, 4155, Pitch_bend_c, 8, 8224
8, 4156, Pitch_bend_c, 8, 8160
8, 4157, Pitch_bend_c, 8, 8064
8, 4159, Pitch_bend_c, 8, 8032
8, 4162, Pitch_bend_c, 8, 8064
8, 4164, Pitch_bend_c, 8, 8192
8, 4165, Pitch_bend_c, 8, 8512
8, 4166, Pitch_bend_c, 8, 8928
8, 4168, Pitch_bend_c, 8, 9248
8, 4169, Pitch_bend_c, 8, 9440
8, 4170, Pitch_bend_c, 8, 9184
8, 4172, Pitch_bend_c, 8, 8832
8, 4173, Pitch_bend_c, 8, 8416
8, 4174, Pitch_bend_c, 8, 8160
8, 4176, Pitch_bend_c, 8, 8032
8, 4177, Pitch_bend_c, 8, 8064
8, 4179, Pitch_bend_c, 8, 8224
8, 4180, Pitch_bend_c, 8, 8544
8, 4181, Pitch_bend_c, 8, 8928
8, 4182, Pitch_bend_c, 8, 9248
8, 4184, Pitch_bend_c, 8, 9376
8, 4185, Pitch_bend_c, 8, 9088
8, 4186, Pitch_bend_c, 8, 8672
8, 4188, Pitch_bend_c, 8, 8288
8, 4189, Pitch_bend_c, 8, 8032
8, 4190, Pitch_bend_c, 8, 7936
8, 4193, Pitch_bend_c, 8, 7968
8, 4194, Pitch_bend_c, 8, 8032
8, 4195, Pitch_bend_c, 8, 8096
8, 4197, Pitch_bend_c, 8, 8192
8, 4198, Pitch_bend_c, 8, 8224
8, 4199, Note_on_c, 8, 70, 0
8, 4199, Pitch_bend_c, 8, 8192
8, 4212, Note_on_c, 8, 65, 69
8, 4212, Pitch_bend_c, 8, 8384
8, 4215, Pitch_bend_c, 8, 8416
8, 4218, Pitch_bend_c, 8, 8448
8, 4219, Pitch_bend_c, 8, 8480
8, 4220, Pitch_bend_c, 8, 8512
8, 4222, Note_on_c, 8, 65, 0
8, 4224, Note_on_c, 8, 67, 54
8, 4224, Pitch_bend_c, 8, 8448
8, 4230, Pitch_bend_c, 8, 8416
8, 4233, Pitch_bend_c, 8, 8384
8, 4236, Pitch_bend_c, 8, 8352
8, 4237, Pitch_bend_c, 8, 8320
8, 4240, Pitch_bend_c, 8, 8288
8, 4243, Pitch_bend_c, 8, 8256
8, 4245, Pitch_bend_c, 8, 8224
8, 4246, Pitch_bend_c, 8, 8192
8, 4257, Pitch_bend_c, 8, 7872
8, 4259, Pitch_bend_c, 8, 8192
8, 4260, Note_on_c, 8, 67, 0
8, 4260, Note_on_c, 8, 70, 77
8, 4284, Pitch_bend_c, 8, 8160
8, 4286, Pitch_bend_c, 8, 8128
8, 4287, Pitch_bend_c, 8, 8096
8, 4291, Pitch_bend_c, 8, 8064
8, 4295, Pitch_bend_c, 8, 8032
8, 4297, Pitch_bend_c, 8, 8000
8, 4299, Pitch_bend_c, 8, 7968
8, 4303, Pitch_bend_c, 8, 7936
8, 4305, Pitch_bend_c, 8, 7904
8, 4309, Pitch_bend_c, 8, 7936
8, 4310, Pitch_bend_c, 8, 8000
8, 4312, Note_on_c, 8, 70, 0
8, 4312, Pitch_bend_c, 8, 8032
8, 4313, Note_on_c, 8, 73, 69
8, 4314, Pitch_bend_c, 8, 8128
8, 4317, Pitch_bend_c, 8, 8064
8, 4320, Pitch_bend_c, 8, 8032
8, 4321, Pitch_bend_c, 8, 8000
8, 4326, Pitch_bend_c, 8, 8032
8, 4328, Pitch_bend_c, 8, 8064
8, 4333, Pitch_bend_c, 8, 8032
8, 4334, Pitch_bend_c, 8, 8000
8, 4336, Pitch_bend_c, 8, 7968
8, 4337, Pitch_bend_c, 8, 7936
8, 4340, Pitch_bend_c, 8, 7872
8, 4342, Pitch_bend_c, 8, 7840
8, 4344, Pitch_bend_c, 8, 7808
8, 4347, Pitch_bend_c, 8, 7840
8, 4350, Pitch_bend_c, 8, 7872
8, 4351, Pitch_bend_c, 8, 7936
8, 4352, Pitch_bend_c, 8, 8000
8, 4354, Pitch_bend_c, 8, 8128
8, 4355, Pitch_bend_c, 8, 8416
8, 4356, Pitch_bend_c, 8, 8928
8, 4358, Pitch_bend_c, 8, 11168
8, 4359, Pitch_bend_c, 8, 11328
8, 4360, Pitch_bend_c, 8, 11552
8, 4361, Pitch_bend_c, 8, 11904
8, 4363, Pitch_bend_c, 8, 12160
8, 4364, Pitch_bend_c, 8, 12384
8, 4365, Pitch_bend_c, 8, 12480
8, 4366, Note_on_c, 8, 73, 0
8, 4482, Pitch_bend_c, 8, 8192
8, 4485, Note_on_c, 8, 78, 89
8, 4485, Pitch_bend_c, 8, 9216
8, 4486, Pitch_bend_c, 8, 9504
8, 4487, Pitch_bend_c, 8, 9440
8, 4489, Pitch_bend_c, 8, 9504
8, 4490, Pitch_bend_c, 8, 9760
8, 4491, Pitch_bend_c, 8, 10080
8, 4492, Pitch_bend_c, 8, 10560
8, 4494, Pitch_bend_c, 8, 11072
8, 4495, Pitch_bend_c, 8, 11328
8, 4496, Pitch_bend_c, 8, 11584
8, 4498, Pitch_bend_c, 8, 11776
8, 4499, Pitch_bend_c, 8, 11808
8, 4500, Pitch_bend_c, 8, 11872
8, 4501, Pitch_bend_c, 8, 11968
8, 4503, Pitch_bend_c, 8, 12032
8, 4504, Pitch_bend_c, 8, 12128
8, 4509, Pitch_bend_c, 8, 12096
8, 4512, Pitch_bend_c, 8, 12032
8, 4513, Pitch_bend_c, 8, 11968
8, 4515, Pitch_bend_c, 8, 11936
8, 4516, Pitch_bend_c, 8, 11808
8, 4517, Pitch_bend_c, 8, 11648
8, 4518, Pitch_bend_c, 8, 11552
8, 4520, Pitch_bend_c, 8, 11424
8, 4521, Pitch_bend_c, 8, 11264
8, 4523, Pitch_bend_c, 8, 11168
8, 4524, Pitch_bend_c, 8, 11008
8, 4525, Pitch_bend_c, 8, 10784
8, 4526, Pitch_bend_c, 8, 10528
8, 4528, Pitch_bend_c, 8, 10240
8, 4529, Pitch_bend_c, 8, 10048
8, 4530, Pitch_bend_c, 8, 9888
8, 4531, Pitch_bend_c, 8, 9664
8, 4533, Pitch_bend_c, 8, 9504
8, 4534, Pitch_bend_c, 8, 9280
8, 4535, Pitch_bend_c, 8, 9120
8, 4537, Pitch_bend_c, 8, 8896
8, 4538, Pitch_bend_c, 8, 8640
8, 4539, Pitch_bend_c, 8, 8352
8, 4540, Pitch_bend_c, 8, 8192
8, 4542, Pitch_bend_c, 8, 7968
8, 4543, Pitch_bend_c, 8, 7936
8, 4544, Pitch_bend_c, 8, 8640
8, 4545, Note_on_c, 8, 78, 0
8, 4548, Pitch_bend_c, 8, 8192
8, 4549, Note_on_c, 8, 77, 88
8, 4549, Pitch_bend_c, 8, 7904
8, 4550, Pitch_bend_c, 8, 8064
8, 4553, Pitch_bend_c, 8, 8000
8, 4554, Pitch_bend_c, 8, 7968
8, 4555, Pitch_bend_c, 8, 7904
8, 4559, Pitch_bend_c, 8, 7872
8, 4561, Pitch_bend_c, 8, 7904
8, 4562, Note_on_c, 8, 77, 0
8, 4562, Pitch_bend_c, 8, 8000
8, 4565, Pitch_bend_c, 8, 8192
8, 4577, Note_on_c, 8, 80, 97
8, 4577, Pitch_bend_c, 8, 5120
8, 4578, Pitch_bend_c, 8, 4992
8, 4581, Pitch_bend_c, 8, 5056
8, 4582, Pitch_bend_c, 8, 5184
8, 4583, Pitch_bend_c, 8, 5408
8, 4585, Pitch_bend_c, 8, 5632
8, 4586, Pitch_bend_c, 8, 5856
8, 4587, Pitch_bend_c, 8, 6144
8, 4588, Pitch_bend_c, 8, 6432
8, 4590, Pitch_bend_c, 8, 6784
8, 4591, Pitch_bend_c, 8, 7168
8, 4592, Pitch_bend_c, 8, 7520
8, 4594, Pitch_bend_c, 8, 7808
8, 4595, Pitch_bend_c, 8, 8032
8, 4596, Pitch_bend_c, 8, 8096
8, 4597, Pitch_bend_c, 8, 8160
8, 4599, Pitch_bend_c, 8, 8096
8, 4600, Pitch_bend_c, 8, 7968
8, 4601, Pitch_bend_c, 8, 7872
8, 4603, Pitch_bend_c, 8, 7744
8, 4604, Pitch_bend_c, 8, 7648
8, 4605, Note_on_c, 8, 80, 0
8, 4605, Pitch_bend_c, 8, 8096
8, 4654, Pitch_bend_c, 8, 8192
8, 4655, Note_on_c, 8, 79, 89
8, 4655, Pitch_bend_c, 8, 8960
8, 4663, Pitch_bend_c, 8, 8896
8, 4668, Note_on_c, 8, 79, 0
8, 4668, Pitch_bend_c, 8, 8992
8, 4672, Pitch_bend_c, 8, 8192
8, 4673, Note_on_c, 8, 77, 75
8, 4673, Pitch_bend_c, 8, 8800
8, 4683, Pitch_bend_c, 8, 8736
8, 4685, Note_on_c, 8, 77, 0
8, 4685, Pitch_bend_c, 8, 8800
8, 4686, Pitch_bend_c, 8, 8192
8, 4687, Note_on_c, 8, 72, 82
8, 4687, Pitch_bend_c, 8, 9152
8, 4689, Pitch_bend_c, 8, 9408
8, 4690, Pitch_bend_c, 8, 9856
8, 4692, Pitch_bend_c, 8, 10432
8, 4693, Pitch_bend_c, 8, 11232
8, 4694, Pitch_bend_c, 8, 11840
8, 4695, Pitch_bend_c, 8, 12288
8, 4697, Pitch_bend_c, 8, 12512
8, 4698, Pitch_bend_c, 8, 12288
8, 4700, Pitch_bend_c, 8, 8864
8, 4701, Pitch_bend_c, 8, 8672
8, 4702, Pitch_bend_c, 8, 8448
8, 4703, Pitch_bend_c, 8, 8288
8, 4705, Pitch_bend_c, 8, 8192
8, 4709, Note_on_c, 8, 72, 0
8, 4709, Pitch_bend_c, 8, 8448
8, 4712, Pitch_bend_c, 8, 8192
8, 4713, Note_on_c, 8, 70, 43
8, 4714, Pitch_bend_c, 8, 8224
8, 4717, Pitch_bend_c, 8, 8256
8, 4720, Pitch_bend_c, 8, 8288
8, 4722, Note_on_c, 8, 70, 0
8, 4722, Pitch_bend_c, 8, 8320
8, 4724, Pitch_bend_c, 8, 8192
8, 4725, Note_on_c, 8, 67, 14
8, 4728, Pitch_bend_c, 8, 8224
8, 4730, Pitch_bend_c, 8, 8256
8, 4731, Pitch_bend_c, 8, 8288
8, 4736, Pitch_bend_c, 8, 8256
8, 4738, Pitch_bend_c, 8, 8032
8, 4739, Note_on_c, 8, 67, 0
8, 4739, Pitch_bend_c, 8, 8192
8, 4740, Note_on_c, 8, 70, 60
8, 4740, Pitch_bend_c, 8, 8288
8, 4741, Pitch_bend_c, 8, 8192
8, 4743, Pitch_bend_c, 8, 8224
8, 4748, Pitch_bend_c, 8, 8256
8, 4749, Pitch_bend_c, 8, 8192
8, 4753, Pitch_bend_c, 8, 8288
8, 4754, Pitch_bend_c, 8, 8448
8, 4755, Pitch_bend_c, 8, 8576
8, 4757, Pitch_bend_c, 8, 8608
8, 4758, Pitch_bend_c, 8, 8448
8, 4759, Pitch_bend_c, 8, 8224
8, 4761, Pitch_bend_c, 8, 8096
8, 4762, Pitch_bend_c, 8, 7936
8, 4763, Pitch_bend_c, 8, 7904
8, 4764, Pitch_bend_c, 8, 7936
8, 4766, Pitch_bend_c, 8, 8064
8, 4767, Pitch_bend_c, 8, 8448
8, 4768, Pitch_bend_c, 8, 8928
8, 4770, Pitch_bend_c, 8, 9408
8, 4771, Pitch_bend_c, 8, 9664
8, 4772, Pitch_bend_c, 8, 9472
8, 4773, Pitch_bend_c, 8, 9024
8, 4775, Pitch_bend_c, 8, 8512
8, 4776, Pitch_bend_c, 8, 8128
8, 4777, Pitch_bend_c, 8, 7904
8, 4779, Pitch_bend_c, 8, 7840
8, 4780, Pitch_bend_c, 8, 7872
8, 4781, Pitch_bend_c, 8, 8096
8, 4783, Pitch_bend_c, 8, 8544
8, 4784, Pitch_bend_c, 8, 9152
8, 4785, Pitch_bend_c, 8, 9792
8, 4787, Pitch_bend_c, 8, 10208
8, 4788, Pitch_bend_c, 8, 10272
8, 4789, Pitch_bend_c, 8, 10176
8, 4791, Note_on_c, 8, 70, 0
8, 4791, Pitch_bend_c, 8, 9824
8, 4793, Pitch_bend_c, 8, 8192
8, 4794, Note_on_c, 8, 72, 56
8, 4794, Pitch_bend_c, 8, 8992
8, 4797, Pitch_bend_c, 8, 8896
8, 4799, Pitch_bend_c, 8, 8736
8, 4800, Pitch_bend_c, 8, 8512
8, 4802, Pitch_bend_c, 8, 8320
8, 4803, Pitch_bend_c, 8, 8256
8, 4804, Pitch_bend_c, 8, 8448
8, 4805, Pitch_bend_c, 8, 8896
8, 4807, Pitch_bend_c, 8, 11136
8, 4808, Pitch_bend_c, 8, 11424
8, 4809, Pitch_bend_c, 8, 11808
8, 4811, Pitch_bend_c, 8, 12320
8, 4812, Pitch_bend_c, 8, 12800
8, 4813, Pitch_bend_c, 8, 13024
8, 4815, Note_on_c, 8, 72, 0
8, 4815, Pitch_bend_c, 8, 13120
8, 4837, Note_on_c, 8, 70, 85
8, 4837, Pitch_bend_c, 8, 8192
8, 4838, Pitch_bend_c, 8, 8800
8, 4840, Pitch_bend_c, 8, 8672
8, 4841, Pitch_bend_c, 8, 8576
8, 4842, Pitch_bend_c, 8, 8544
8, 4844, Pitch_bend_c, 8, 8512
8, 4845, Pitch_bend_c, 8, 8544
8, 4846, Pitch_bend_c, 8, 8576
8, 4850, Pitch_bend_c, 8, 8544
8, 4853, Pitch_bend_c, 8, 8512
8, 4857, Pitch_bend_c, 8, 8480
8, 4858, Note_on_c, 8, 70, 0
8, 4858, Pitch_bend_c, 8, 8544
8, 4861, Note_on_c, 8, 68, 56
8, 4861, Pitch_bend_c, 8, 8224
8, 4865, Pitch_bend_c, 8, 8192
8, 4868, Note_on_c, 8, 68, 0
8, 4868, Pitch_bend_c, 8, 8160
8, 4873, Pitch_bend_c, 8, 8192
8, 4876, Note_on_c, 8, 63, 75
8, 4877, Pitch_bend_c, 8, 8224
8, 4880, Pitch_bend_c, 8, 8256
8, 4883, Pitch_bend_c, 8, 8288
8, 4884, Pitch_bend_c, 8, 8448
8, 4885, Pitch_bend_c, 8, 11008
8, 4887, Pitch_bend_c, 8, 11488
8, 4888, Pitch_bend_c, 8, 11968
8, 4889, Pitch_bend_c, 8, 12384
8, 4891, Pitch_bend_c, 8, 12640
8, 4892, Pitch_bend_c, 8, 12128
8, 4893, Pitch_bend_c, 8, 9696
8, 4894, Pitch_bend_c, 8, 9504
8, 4896, Pitch_bend_c, 8, 9280
8, 4897, Pitch_bend_c, 8, 8960
8, 4898, Pitch_bend_c, 8, 8672
8, 4900, Pitch_bend_c, 8, 8576
8, 4901, Pitch_bend_c, 8, 8544
8, 4902, Pitch_bend_c, 8, 8480
8, 4903, Pitch_bend_c, 8, 8416
8, 4905, Pitch_bend_c, 8, 0
8, 4906, Pitch_bend_c, 8, 128
8, 4907, Pitch_bend_c, 8, 192
8, 4909, Pitch_bend_c, 8, 224
8, 4910, Pitch_bend_c, 8, 288
8, 4912, Pitch_bend_c, 8, 224
8, 4913, Pitch_bend_c, 8, 128
8, 4914, Note_on_c, 8, 63, 0
8, 4914, Pitch_bend_c, 8, 8192
8, 4918, Note_on_c, 8, 58, 65
8, 4918, Pitch_bend_c, 8, 8320
8, 4919, Pitch_bend_c, 8, 8160
8, 4921, Pitch_bend_c, 8, 8032
8, 4922, Pitch_bend_c, 8, 7904
8, 4923, Pitch_bend_c, 8, 8288
8, 4924, Note_on_c, 8, 58, 0
8, 4931, Note_on_c, 8, 63, 50
8, 4931, Pitch_bend_c, 8, 8064
8, 4932, Pitch_bend_c, 8, 8032
8, 4935, Pitch_bend_c, 8, 8064
8, 4943, Pitch_bend_c, 8, 8032
8, 4944, Pitch_bend_c, 8, 8000
8, 4950, Pitch_bend_c, 8, 7968
8, 4952, Pitch_bend_c, 8, 8000
8, 4953, Note_on_c, 8, 65, 91
8, 4953, Pitch_bend_c, 8, 8288
8, 4954, Pitch_bend_c, 8, 8064
8, 4955, Pitch_bend_c, 8, 8192
8, 4956, Pitch_bend_c, 8, 8256
8, 4957, Note_on_c, 8, 63, 0
8, 4957, Pitch_bend_c, 8, 8320
8, 4959, Pitch_bend_c, 8, 8384
8, 4960, Pitch_bend_c, 8, 8448
8, 4961, Pitch_bend_c, 8, 8608
8, 4962, Note_on_c, 8, 65, 0
8, 4962, Pitch_bend_c, 8, 8064
8, 4964, Pitch_bend_c, 8, 8000
8, 4965, Pitch_bend_c, 8, 8192
8, 4966, Note_on_c, 8, 61, 65
8, 4966, Pitch_bend_c, 8, 8448
8, 4967, Pitch_bend_c, 8, 8384
8, 4968, Pitch_bend_c, 8, 8192
8, 4969, Pitch_bend_c, 8, 8448
8, 4970, Pitch_bend_c, 8, 8256
8, 4972, Pitch_bend_c, 8, 8288
8, 4973, Pitch_bend_c, 8, 8352
8, 4974, Pitch_bend_c, 8, 8448
8, 4976, Pitch_bend_c, 8, 8544
8, 4977, Pitch_bend_c, 8, 8768
8, 4978, Pitch_bend_c, 8, 9120
8, 4979, Pitch_bend_c, 8, 9408
8, 4981, Pitch_bend_c, 8, 9664
8, 4982, Pitch_bend_c, 8, 9952
8, 4984, Pitch_bend_c, 8, 10304
8, 4985, Pitch_bend_c, 8, 10848
8, 4986, Pitch_bend_c, 8, 11520
8, 4987, Pitch_bend_c, 8, 12064
8, 4989, Pitch_bend_c, 8, 12416
8, 4990, Pitch_bend_c, 8, 12256
8, 4991, Pitch_bend_c, 8, 11744
8, 4992, Note_on_c, 8, 61, 0
8, 4993, Pitch_bend_c, 8, 8192
8, 4995, Note_on_c, 8, 58, 64
8, 4998, Pitch_bend_c, 8, 8224
8, 5000, Pitch_bend_c, 8, 8256
8, 5002, Pitch_bend_c, 8, 8160
8, 5004, Note_on_c, 8, 58, 0
8, 5004, Pitch_bend_c, 8, 8192
8, 5005, Note_on_c, 8, 56, 41
8, 5005, Pitch_bend_c, 8, 8032
8, 5006, Pitch_bend_c, 8, 8096
8, 5011, Pitch_bend_c, 8, 8064
8, 5012, Note_on_c, 8, 56, 0
8, 5012, Pitch_bend_c, 8, 8192
8, 5015, Note_on_c, 8, 53, 37
8, 5015, Pitch_bend_c, 8, 8064
8, 5016, Pitch_bend_c, 8, 8032
8, 5019, Pitch_bend_c, 8, 8000
8, 5021, Pitch_bend_c, 8, 7936
8, 5022, Pitch_bend_c, 8, 7904
8, 5024, Pitch_bend_c, 8, 7872
8, 5025, Pitch_bend_c, 8, 7840
8, 5026, Pitch_bend_c, 8, 7808
8, 5031, Pitch_bend_c, 8, 7904
8, 5033, Pitch_bend_c, 8, 8288
8, 5034, Pitch_bend_c, 8, 8800
8, 5035, Pitch_bend_c, 8, 9216
8, 5036, Pitch_bend_c, 8, 9504
8, 5038, Pitch_bend_c, 8, 9280
8, 5039, Pitch_bend_c, 8, 8768
8, 5040, Pitch_bend_c, 8, 8320
8, 5041, Pitch_bend_c, 8, 7904
8, 5043, Pitch_bend_c, 8, 5728
8, 5044, Pitch_bend_c, 8, 5856
8, 5045, Pitch_bend_c, 8, 5952
8, 5046, Note_on_c, 8, 53, 0
8, 5046, Pitch_bend_c, 8, 8320
8, 5130, Note_on_c, 8, 68, 89
8, 5130, Pitch_bend_c, 8, 8192
8, 5131, Pitch_bend_c, 8, 8448
8, 5132, Pitch_bend_c, 8, 8576
8, 5133, Pitch_bend_c, 8, 8608
8, 5137, Pitch_bend_c, 8, 8640
8, 5138, Pitch_bend_c, 8, 8608
8, 5140, Pitch_bend_c, 8, 8480
8, 5141, Note_on_c, 8, 68, 0
8, 5141, Note_on_c, 8, 64, 69
8, 5141, Pitch_bend_c, 8, 12160
8, 5148, Note_on_c, 8, 64, 0
8, 5150, Pitch_bend_c, 8, 8192
8, 5152, Note_on_c, 8, 63, 76
8, 5152, Pitch_bend_c, 8, 8256
8, 5157, Pitch_bend_c, 8, 8192
8, 5158, Note_on_c, 8, 63, 0
8, 5160, Note_on_c, 8, 61, 69
8, 5160, Pitch_bend_c, 8, 8128
8, 5161, Pitch_bend_c, 8, 8160
8, 5167, Note_on_c, 8, 61, 0
8, 5167, Pitch_bend_c, 8, 8224
8, 5169, Note_on_c, 8, 58, 61
8, 5169, Pitch_bend_c, 8, 8064
8, 5172, Pitch_bend_c, 8, 8096
8, 5185, Pitch_bend_c, 8, 8128
8, 5193, Pitch_bend_c, 8, 8096
8, 5205, Note_on_c, 8, 58, 0
8, 5206, Pitch_bend_c, 8, 8192
8, 5207, Note_on_c, 8, 61, 85
8, 5207, Pitch_bend_c, 8, 8160
8, 5208, Pitch_bend_c, 8, 8192
8, 5213, Pitch_bend_c, 8, 8288
8, 5215, Pitch_bend_c, 8, 8352
8, 5216, Note_on_c, 8, 61, 0
8, 5218, Pitch_bend_c, 8, 8192
8, 5219, Note_on_c, 8, 58, 74
8, 5219, Pitch_bend_c, 8, 8096
8, 5220, Pitch_bend_c, 8, 8128
8, 5221, Pitch_bend_c, 8, 8160
8, 5222, Pitch_bend_c, 8, 8192
8, 5224, Pitch_bend_c, 8, 8128
8, 5226, Note_on_c, 8, 58, 0
8, 5226, Note_on_c, 8, 56, 62
8, 5226, Pitch_bend_c, 8, 8192
8, 5227, Pitch_bend_c, 8, 7712
8, 5229, Pitch_bend_c, 8, 7872
8, 5230, Pitch_bend_c, 8, 7968
8, 5232, Pitch_bend_c, 8, 8096
8, 5233, Pitch_bend_c, 8, 8192
8, 5237, Note_on_c, 8, 56, 0
8, 5239, Note_on_c, 8, 53, 72
8, 5239, Pitch_bend_c, 8, 7872
8, 5240, Pitch_bend_c, 8, 7840
8, 5241, Pitch_bend_c, 8, 7872
8, 5243, Pitch_bend_c, 8, 7904
8, 5248, Pitch_bend_c, 8, 7872
8, 5250, Pitch_bend_c, 8, 7840
8, 5271, Pitch_bend_c, 8, 7808
8, 5280, Pitch_bend_c, 8, 7840
8, 5287, Pitch_bend_c, 8, 7808
8, 5288, Pitch_bend_c, 8, 7776
8, 5289, Pitch_bend_c, 8, 7744
8, 5291, Pitch_bend_c, 8, 7712
8, 5292, Pitch_bend_c, 8, 7680
8, 5296, Pitch_bend_c, 8, 7712
8, 5297, Pitch_bend_c, 8, 7776
8, 5298, Pitch_bend_c, 8, 7808
8, 5301, Pitch_bend_c, 8, 7840
8, 5314, Pitch_bend_c, 8, 7872
8, 5317, Note_on_c, 8, 53, 0
8, 5317, Pitch_bend_c, 8, 7840
8, 5323, Pitch_bend_c, 8, 8192
8, 5324, Note_on_c, 8, 56, 91
8, 5324, Pitch_bend_c, 8, 8032
8, 5325, Pitch_bend_c, 8, 8064
8, 5328, Pitch_bend_c, 8, 8032
8, 5329, Pitch_bend_c, 8, 16256
8, 5330, Pitch_bend_c, 8, 16224
8, 5331, Pitch_bend_c, 8, 16032
8, 5333, Pitch_bend_c, 8, 8000
8, 5335, Pitch_bend_c, 8, 8032
8, 5338, Pitch_bend_c, 8, 8064
8, 5342, Pitch_bend_c, 8, 8096
8, 5343, Pitch_bend_c, 8, 8064
8, 5345, Note_on_c, 8, 56, 0
8, 5345, Note_on_c, 8, 53, 64
8, 5345, Pitch_bend_c, 8, 7808
8, 5352, Pitch_bend_c, 8, 7840
8, 5353, Pitch_bend_c, 8, 7872
8, 5356, Pitch_bend_c, 8, 7616
8, 5357, Note_on_c, 8, 53, 0
8, 5357, Pitch_bend_c, 8, 8192
8, 5358, Note_on_c, 8, 56, 68
8, 5358, Pitch_bend_c, 8, 8032
8, 5364, Pitch_bend_c, 8, 8064
8, 5369, Pitch_bend_c, 8, 8032
8, 5371, Pitch_bend_c, 8, 8000
8, 5373, Pitch_bend_c, 8, 7968
8, 5375, Pitch_bend_c, 8, 7936
8, 5377, Pitch_bend_c, 8, 8064
8, 5378, Pitch_bend_c, 8, 16160
8, 5379, Pitch_bend_c, 8, 16128
8, 5388, Pitch_bend_c, 8, 16096
8, 5391, Pitch_bend_c, 8, 16128
8, 5393, Pitch_bend_c, 8, 16160
8, 5401, Pitch_bend_c, 8, 16128
8, 5402, Pitch_bend_c, 8, 16160
8, 5407, Pitch_bend_c, 8, 16192
8, 5413, Pitch_bend_c, 8, 16160
8, 5415, Pitch_bend_c, 8, 16128
8, 5417, Pitch_bend_c, 8, 16096
8, 5422, Pitch_bend_c, 8, 16128
8, 5423, Pitch_bend_c, 8, 16000
8, 5424, Pitch_bend_c, 8, 15680
8, 5425, Note_on_c, 8, 56, 0
8, 5425, Pitch_bend_c, 8, 16128
8, 5739, Pitch_bend_c, 8, 8192
8, 5740, Note_on_c, 8, 63, 93
8, 5740, Pitch_bend_c, 8, 8320
8, 5744, Pitch_bend_c, 8, 8576
8, 5745, Pitch_bend_c, 8, 9024
8, 5747, Pitch_bend_c, 8, 9696
8, 5748, Pitch_bend_c, 8, 10496
8, 5749, Pitch_bend_c, 8, 11168
8, 5750, Pitch_bend_c, 8, 11744
8, 5752, Pitch_bend_c, 8, 12128
8, 5753, Pitch_bend_c, 8, 12384
8, 5754, Pitch_bend_c, 8, 12640
8, 5756, Pitch_bend_c, 8, 12832
8, 5757, Pitch_bend_c, 8, 12960
8, 5758, Pitch_bend_c, 8, 13024
8, 5760, Pitch_bend_c, 8, 13152
8, 5761, Pitch_bend_c, 8, 13376
8, 5763, Pitch_bend_c, 8, 13632
8, 5764, Pitch_bend_c, 8, 13824
8, 5765, Pitch_bend_c, 8, 13920
8, 5768, Pitch_bend_c, 8, 13888
8, 5769, Pitch_bend_c, 8, 13856
8, 5770, Pitch_bend_c, 8, 13920
8, 5772, Pitch_bend_c, 8, 13888
8, 5774, Pitch_bend_c, 8, 13856
8, 5776, Note_on_c, 8, 63, 0
8, 5776, Pitch_bend_c, 8, 13888
8, 5794, Pitch_bend_c, 8, 8192
8, 5794, Note_on_c, 8, 63, 91
8, 5795, Pitch_bend_c, 8, 8480
8, 5796, Pitch_bend_c, 8, 8384
8, 5797, Pitch_bend_c, 8, 8416
8, 5798, Pitch_bend_c, 8, 8448
8, 5799, Pitch_bend_c, 8, 8544
8, 5801, Pitch_bend_c, 8, 8672
8, 5802, Pitch_bend_c, 8, 8608
8, 5804, Pitch_bend_c, 8, 8480
8, 5805, Pitch_bend_c, 8, 8576
8, 5806, Pitch_bend_c, 8, 8672
8, 5807, Pitch_bend_c, 8, 8736
8, 5809, Note_on_c, 8, 63, 0
8, 5809, Note_on_c, 8, 60, 76
8, 5809, Pitch_bend_c, 8, 12000
8, 5810, Pitch_bend_c, 8, 12032
8, 5812, Pitch_bend_c, 8, 11936
8, 5813, Pitch_bend_c, 8, 11968
8, 5814, Pitch_bend_c, 8, 12128
8, 5816, Pitch_bend_c, 8, 12224
8, 5817, Pitch_bend_c, 8, 12384
8, 5818, Pitch_bend_c, 8, 12416
8, 5820, Note_on_c, 8, 60, 0
8, 5821, Pitch_bend_c, 8, 8192
8, 5822, Note_on_c, 8, 58, 50
8, 5822, Pitch_bend_c, 8, 8128
8, 5823, Pitch_bend_c, 8, 8192
8, 5830, Pitch_bend_c, 8, 8160
8, 5832, Pitch_bend_c, 8, 8128
8, 5833, Pitch_bend_c, 8, 8096
8, 5840, Pitch_bend_c, 8, 8064
8, 5841, Pitch_bend_c, 8, 8032
8, 5842, Pitch_bend_c, 8, 8000
8, 5844, Pitch_bend_c, 8, 7968
8, 5845, Pitch_bend_c, 8, 8096
8, 5847, Pitch_bend_c, 8, 8352
8, 5848, Pitch_bend_c, 8, 8864
8, 5849, Pitch_bend_c, 8, 9408
8, 5850, Pitch_bend_c, 8, 9792
8, 5852, Pitch_bend_c, 8, 9952
8, 5853, Pitch_bend_c, 8, 9632
8, 5854, Pitch_bend_c, 8, 9056
8, 5856, Pitch_bend_c, 8, 8480
8, 5857, Pitch_bend_c, 8, 8096
8, 5858, Pitch_bend_c, 8, 7904
8, 5861, Pitch_bend_c, 8, 8032
8, 5862, Pitch_bend_c, 8, 8192
8, 5864, Pitch_bend_c, 8, 8320
8, 5865, Pitch_bend_c, 8, 8480
8, 5866, Pitch_bend_c, 8, 8448
8, 5867, Pitch_bend_c, 8, 8320
8, 5869, Pitch_bend_c, 8, 8224
8, 5870, Pitch_bend_c, 8, 8192
8, 5871, Pitch_bend_c, 8, 8128
8, 5878, Pitch_bend_c, 8, 8096
8, 5879, Pitch_bend_c, 8, 8064
8, 5880, Pitch_bend_c, 8, 8032
8, 5882, Pitch_bend_c, 8, 7968
8, 5883, Pitch_bend_c, 8, 7936
8, 5885, Pitch_bend_c, 8, 7904
8, 5886, Pitch_bend_c, 8, 7872
8, 5887, Pitch_bend_c, 8, 7840
8, 5888, Pitch_bend_c, 8, 7808
8, 5890, Pitch_bend_c, 8, 7936
8, 5891, Note_on_c, 8, 58, 0
8, 5894, Pitch_bend_c, 8, 8192
8, 5895, Note_on_c, 8, 61, 93
8, 5895, Pitch_bend_c, 8, 8576
8, 5896, Pitch_bend_c, 8, 8352
8, 5898, Pitch_bend_c, 8, 8288
8, 5899, Pitch_bend_c, 8, 8256
8, 5900, Pitch_bend_c, 8, 8224
8, 5902, Pitch_bend_c, 8, 8192
8, 5903, Pitch_bend_c, 8, 8224
8, 5905, Pitch_bend_c, 8, 8192
8, 5910, Pitch_bend_c, 8, 8160
8, 5911, Pitch_bend_c, 8, 16352
8, 5912, Pitch_bend_c, 8, 16288
8, 5913, Pitch_bend_c, 8, 16256
8, 5915, Pitch_bend_c, 8, 16224
8, 5916, Pitch_bend_c, 8, 16160
8, 5919, Pitch_bend_c, 8, 16096
8, 5921, Pitch_bend_c, 8, 16320
8, 5922, Note_on_c, 8, 61, 0
8, 5926, Note_on_c, 8, 65, 92
8, 5926, Pitch_bend_c, 8, 8384
8, 5927, Pitch_bend_c, 8, 8352
8, 5929, Pitch_bend_c, 8, 8320
8, 5931, Pitch_bend_c, 8, 8352
8, 5932, Pitch_bend_c, 8, 8320
8, 5934, Pitch_bend_c, 8, 8288
8, 5940, Pitch_bend_c, 8, 8416
8, 5942, Pitch_bend_c, 8, 8192
8, 5942, Note_on_c, 8, 70, 94
8, 5950, Note_on_c, 8, 65, 0
8, 5951, Note_on_c, 8, 70, 0
8, 5961, Note_on_c, 8, 69, 87
8, 5961, Pitch_bend_c, 8, 8416
8, 5963, Pitch_bend_c, 8, 8448
8, 5966, Pitch_bend_c, 8, 8416
8, 5967, Pitch_bend_c, 8, 8352
8, 5969, Pitch_bend_c, 8, 8256
8, 5970, Pitch_bend_c, 8, 8160
8, 5971, Pitch_bend_c, 8, 8096
8, 5973, Pitch_bend_c, 8, 11904
8, 5974, Pitch_bend_c, 8, 11936
8, 5975, Pitch_bend_c, 8, 11968
8, 5978, Pitch_bend_c, 8, 12000
8, 5979, Pitch_bend_c, 8, 12032
8, 5980, Pitch_bend_c, 8, 12064
8, 5982, Pitch_bend_c, 8, 12128
8, 5983, Pitch_bend_c, 8, 12192
8, 5988, Pitch_bend_c, 8, 12128
8, 5989, Pitch_bend_c, 8, 12096
8, 5991, Pitch_bend_c, 8, 12064
8, 5993, Pitch_bend_c, 8, 12096
8, 5997, Pitch_bend_c, 8, 12160
8, 5998, Pitch_bend_c, 8, 12448
8, 6000, Pitch_bend_c, 8, 12960
8, 6001, Pitch_bend_c, 8, 13600
8, 6002, Pitch_bend_c, 8, 14208
8, 6004, Pitch_bend_c, 8, 14496
8, 6006, Pitch_bend_c, 8, 14176
8, 6008, Pitch_bend_c, 8, 11936
8, 6009, Pitch_bend_c, 8, 12000
8, 6010, Pitch_bend_c, 8, 12032
8, 6012, Pitch_bend_c, 8, 12064
8, 6013, Pitch_bend_c, 8, 12128
8, 6014, Pitch_bend_c, 8, 12096
8, 6015, Pitch_bend_c, 8, 12320
8, 6017, Pitch_bend_c, 8, 12928
8, 6018, Pitch_bend_c, 8, 15200
8, 6021, Pitch_bend_c, 8, 15104
8, 6022, Pitch_bend_c, 8, 14880
8, 6023, Pitch_bend_c, 8, 14304
8, 6024, Pitch_bend_c, 8, 11872
8, 6026, Pitch_bend_c, 8, 11936
8, 6027, Pitch_bend_c, 8, 11968
8, 6028, Pitch_bend_c, 8, 12000
8, 6029, Pitch_bend_c, 8, 12064
8, 6031, Pitch_bend_c, 8, 12128
8, 6032, Pitch_bend_c, 8, 12576
8, 6033, Pitch_bend_c, 8, 13216
8, 6035, Pitch_bend_c, 8, 13824
8, 6036, Pitch_bend_c, 8, 14240
8, 6037, Pitch_bend_c, 8, 14016
8, 6038, Pitch_bend_c, 8, 13344
8, 6040, Pitch_bend_c, 8, 12768
8, 6041, Pitch_bend_c, 8, 12352
8, 6042, Note_on_c, 8, 69, 0
8, 6042, Pitch_bend_c, 8, 14240
8, 6410, Note_on_c, 8, 70, 57
8, 6410, Pitch_bend_c, 8, 8192
8, 6419, Pitch_bend_c, 8, 8128
8, 6420, Pitch_bend_c, 8, 8064
8, 6422, Pitch_bend_c, 8, 8000
8, 6423, Pitch_bend_c, 8, 7936
8, 6426, Note_on_c, 8, 70, 0
8, 6426, Pitch_bend_c, 8, 8192
8, 6428, Note_on_c, 8, 73, 80
8, 6428, Pitch_bend_c, 8, 8160
8, 6429, Pitch_bend_c, 8, 8192
8, 6435, Pitch_bend_c, 8, 8224
8, 6436, Pitch_bend_c, 8, 8192
8, 6437, Note_on_c, 8, 73, 0
8, 6440, Note_on_c, 8, 75, 85
8, 6440, Pitch_bend_c, 8, 8896
8, 6441, Pitch_bend_c, 8, 8800
8, 6444, Pitch_bend_c, 8, 8768
8, 6445, Pitch_bend_c, 8, 8736
8, 6447, Pitch_bend_c, 8, 8864
8, 6448, Pitch_bend_c, 8, 9280
8, 6449, Pitch_bend_c, 8, 11584
8, 6450, Pitch_bend_c, 8, 11968
8, 6452, Pitch_bend_c, 8, 12576
8, 6453, Pitch_bend_c, 8, 14880
8, 6454, Pitch_bend_c, 8, 14976
8, 6456, Pitch_bend_c, 8, 15104
8, 6457, Pitch_bend_c, 8, 15264
8, 6458, Pitch_bend_c, 8, 15360
8, 6459, Note_on_c, 8, 75, 0
8, 6459, Pitch_bend_c, 8, 15392
8, 6472, Pitch_bend_c, 8, 8192
8, 6473, Note_on_c, 8, 75, 82
8, 6473, Pitch_bend_c, 8, 8224
8, 6477, Pitch_bend_c, 8, 8352
8, 6478, Pitch_bend_c, 8, 8864
8, 6479, Pitch_bend_c, 8, 11808
8, 6481, Pitch_bend_c, 8, 12224
8, 6482, Pitch_bend_c, 8, 12896
8, 6483, Pitch_bend_c, 8, 13632
8, 6484, Pitch_bend_c, 8, 14400
8, 6486, Pitch_bend_c, 8, 14720
8, 6487, Pitch_bend_c, 8, 14784
8, 6488, Pitch_bend_c, 8, 14592
8, 6490, Pitch_bend_c, 8, 14016
8, 6491, Note_on_c, 8, 75, 0
8, 6491, Pitch_bend_c, 8, 14720
8, 6504, Pitch_bend_c, 8, 8192
8, 6505, Note_on_c, 8, 75, 82
8, 6505, Pitch_bend_c, 8, 8256
8, 6507, Pitch_bend_c, 8, 8224
8, 6509, Pitch_bend_c, 8, 8064
8, 6510, Pitch_bend_c, 8, 7904
8, 6511, Pitch_bend_c, 8, 7776
8, 6513, Pitch_bend_c, 8, 7808
8, 6514, Note_on_c, 8, 75, 0
8, 6514, Note_on_c, 8, 72, 65
8, 6514, Pitch_bend_c, 8, 11616
8, 6515, Pitch_bend_c, 8, 11648
8, 6517, Pitch_bend_c, 8, 11680
8, 6518, Pitch_bend_c, 8, 11744
8, 6520, Pitch_bend_c, 8, 11872
8, 6521, Pitch_bend_c, 8, 12032
8, 6522, Note_on_c, 8, 72, 0
8, 6524, Note_on_c, 8, 70, 62
8, 6524, Pitch_bend_c, 8, 8384
8, 6530, Pitch_bend_c, 8, 8352
8, 6531, Pitch_bend_c, 8, 8288
8, 6532, Pitch_bend_c, 8, 8224
8, 6534, Pitch_bend_c, 8, 8192
8, 6535, Pitch_bend_c, 8, 8128
8, 6536, Pitch_bend_c, 8, 8096
8, 6538, Pitch_bend_c, 8, 8192
8, 6539, Pitch_bend_c, 8, 8576
8, 6540, Pitch_bend_c, 8, 11008
8, 6542, Pitch_bend_c, 8, 11072
8, 6544, Pitch_bend_c, 8, 10720
8, 6546, Pitch_bend_c, 8, 8192
8, 6548, Pitch_bend_c, 8, 8128
8, 6549, Pitch_bend_c, 8, 11072
8, 6550, Note_on_c, 8, 70, 0
8, 6551, Pitch_bend_c, 8, 8192
8, 6552, Note_on_c, 8, 73, 89
8, 6552, Pitch_bend_c, 8, 8704
8, 6557, Pitch_bend_c, 8, 8736
8, 6559, Pitch_bend_c, 8, 8832
8, 6561, Note_on_c, 8, 73, 0
8, 6561, Pitch_bend_c, 8, 9024
8, 6563, Note_on_c, 8, 70, 86
8, 6563, Pitch_bend_c, 8, 8192
8, 6564, Pitch_bend_c, 8, 8384
8, 6565, Pitch_bend_c, 8, 8320
8, 6568, Pitch_bend_c, 8, 8416
8, 6569, Pitch_bend_c, 8, 8672
8, 6570, Pitch_bend_c, 8, 8992
8, 6571, Pitch_bend_c, 8, 9120
8, 6573, Pitch_bend_c, 8, 64
8, 6574, Pitch_bend_c, 8, 96
8, 6577, Pitch_bend_c, 8, 128
8, 6578, Pitch_bend_c, 8, 160
8, 6580, Note_on_c, 8, 70, 0
8, 6580, Pitch_bend_c, 8, 8192
8, 6580, Note_on_c, 8, 65, 75
8, 6582, Pitch_bend_c, 8, 8256
8, 6584, Pitch_bend_c, 8, 8288
8, 6587, Pitch_bend_c, 8, 8256
8, 6589, Pitch_bend_c, 8, 8192
8, 6591, Pitch_bend_c, 8, 8160
8, 6593, Pitch_bend_c, 8, 8128
8, 6594, Pitch_bend_c, 8, 8096
8, 6598, Pitch_bend_c, 8, 8064
8, 6600, Pitch_bend_c, 8, 8032
8, 6601, Note_on_c, 8, 65, 0
8, 6629, Pitch_bend_c, 8, 8192
8, 6630, Note_on_c, 8, 75, 86
8, 6630, Pitch_bend_c, 8, 8896
8, 6632, Pitch_bend_c, 8, 9056
8, 6634, Pitch_bend_c, 8, 9504
8, 6635, Pitch_bend_c, 8, 10144
8, 6636, Pitch_bend_c, 8, 12576
8, 6638, Pitch_bend_c, 8, 12864
8, 6639, Pitch_bend_c, 8, 13344
8, 6640, Pitch_bend_c, 8, 13920
8, 6642, Pitch_bend_c, 8, 14592
8, 6643, Pitch_bend_c, 8, 15008
8, 6644, Pitch_bend_c, 8, 15296
8, 6645, Pitch_bend_c, 8, 15392
8, 6647, Pitch_bend_c, 8, 15488
8, 6648, Pitch_bend_c, 8, 15552
8, 6652, Pitch_bend_c, 8, 15488
8, 6653, Pitch_bend_c, 8, 15392
8, 6654, Pitch_bend_c, 8, 15360
8, 6656, Pitch_bend_c, 8, 15264
8, 6657, Pitch_bend_c, 8, 15168
8, 6658, Pitch_bend_c, 8, 15072
8, 6660, Pitch_bend_c, 8, 14912
8, 6661, Pitch_bend_c, 8, 14784
8, 6662, Pitch_bend_c, 8, 14592
8, 6664, Pitch_bend_c, 8, 14336
8, 6665, Pitch_bend_c, 8, 14016
8, 6666, Pitch_bend_c, 8, 13472
8, 6667, Pitch_bend_c, 8, 12768
8, 6669, Pitch_bend_c, 8, 10496
8, 6670, Pitch_bend_c, 8, 10272
8, 6671, Pitch_bend_c, 8, 9760
8, 6673, Pitch_bend_c, 8, 9088
8, 6674, Pitch_bend_c, 8, 8320
8, 6675, Pitch_bend_c, 8, 7904
8, 6676, Pitch_bend_c, 8, 7776
8, 6678, Pitch_bend_c, 8, 7872
8, 6679, Pitch_bend_c, 8, 8064
8, 6680, Note_on_c, 8, 75, 0
8, 6680, Pitch_bend_c, 8, 8320
8, 6682, Note_on_c, 8, 73, 81
8, 6682, Pitch_bend_c, 8, 8128
8, 6686, Pitch_bend_c, 8, 8160
8, 6687, Pitch_bend_c, 8, 8192
8, 6689, Pitch_bend_c, 8, 8224
8, 6690, Note_on_c, 8, 73, 0
8, 6692, Pitch_bend_c, 8, 8192
8, 6693, Note_on_c, 8, 70, 54
8, 6693, Pitch_bend_c, 8, 8352
8, 6698, Pitch_bend_c, 8, 8320
8, 6700, Pitch_bend_c, 8, 8288
8, 6702, Pitch_bend_c, 8, 8256
8, 6710, Pitch_bend_c, 8, 8224
8, 6714, Pitch_bend_c, 8, 8192
8, 6717, Pitch_bend_c, 8, 8160
8, 6719, Pitch_bend_c, 8, 8128
8, 6723, Note_on_c, 8, 70, 0
8, 6723, Pitch_bend_c, 8, 8224
8, 6724, Note_on_c, 8, 73, 82
8, 6724, Pitch_bend_c, 8, 8000
8, 6737, Pitch_bend_c, 8, 8032
8, 6739, Pitch_bend_c, 8, 8064
8, 6740, Pitch_bend_c, 8, 8128
8, 6741, Pitch_bend_c, 8, 8192
8, 6743, Pitch_bend_c, 8, 8256
8, 6744, Pitch_bend_c, 8, 8352
8, 6746, Pitch_bend_c, 8, 8384
8, 6747, Pitch_bend_c, 8, 8448
8, 6748, Pitch_bend_c, 8, 8544
8, 6749, Pitch_bend_c, 8, 8672
8, 6751, Pitch_bend_c, 8, 8864
8, 6752, Pitch_bend_c, 8, 9056
8, 6753, Pitch_bend_c, 8, 9312
8, 6755, Pitch_bend_c, 8, 9664
8, 6756, Pitch_bend_c, 8, 10080
8, 6757, Pitch_bend_c, 8, 10528
8, 6759, Pitch_bend_c, 8, 11008
8, 6760, Pitch_bend_c, 8, 11328
8, 6761, Pitch_bend_c, 8, 11552
8, 6762, Pitch_bend_c, 8, 11680
8, 6765, Note_on_c, 8, 73, 0
8, 6765, Pitch_bend_c, 8, 11648
8, 7204, Pitch_bend_c, 8, 8192
8, 7205, Note_on_c, 8, 65, 54
8, 7205, Pitch_bend_c, 8, 7968
8, 7208, Pitch_bend_c, 8, 8000
8, 7209, Pitch_bend_c, 8, 11904
8, 7211, Pitch_bend_c, 8, 11936
8, 7212, Pitch_bend_c, 8, 12032
8, 7213, Pitch_bend_c, 8, 16000
8, 7214, Pitch_bend_c, 8, 16032
8, 7217, Pitch_bend_c, 8, 16064
8, 7219, Pitch_bend_c, 8, 16096
8, 7221, Note_on_c, 8, 65, 0
8, 7221, Pitch_bend_c, 8, 16128
8, 7226, Pitch_bend_c, 8, 8192
8, 7227, Note_on_c, 8, 70, 73
8, 7227, Pitch_bend_c, 8, 8064
8, 7230, Pitch_bend_c, 8, 8096
8, 7232, Pitch_bend_c, 8, 8128
8, 7233, Pitch_bend_c, 8, 8160
8, 7234, Pitch_bend_c, 8, 8192
8, 7237, Note_on_c, 8, 70, 0
8, 7240, Note_on_c, 8, 75, 89
8, 7240, Pitch_bend_c, 8, 8448
8, 7247, Pitch_bend_c, 8, 8480
8, 7250, Pitch_bend_c, 8, 8256
8, 7251, Note_on_c, 8, 75, 0
8, 7258, Pitch_bend_c, 8, 8192
8, 7259, Note_on_c, 8, 75, 86
8, 7259, Pitch_bend_c, 8, 8544
8, 7260, Pitch_bend_c, 8, 8480
8, 7263, Pitch_bend_c, 8, 8448
8, 7264, Pitch_bend_c, 8, 8480
8, 7274, Pitch_bend_c, 8, 8448
8, 7277, Pitch_bend_c, 8, 8352
8, 7278, Pitch_bend_c, 8, 12480
8, 7280, Pitch_bend_c, 8, 12512
8, 7281, Pitch_bend_c, 8, 12608
8, 7282, Pitch_bend_c, 8, 12672
8, 7283, Pitch_bend_c, 8, 8448
8, 7286, Pitch_bend_c, 8, 8416
8, 7291, Note_on_c, 8, 75, 0
8, 7293, Pitch_bend_c, 8, 8192
8, 7294, Note_on_c, 8, 73, 79
8, 7294, Pitch_bend_c, 8, 8000
8, 7296, Pitch_bend_c, 8, 8032
8, 7299, Pitch_bend_c, 8, 8064
8, 7301, Pitch_bend_c, 8, 8128
8, 7304, Pitch_bend_c, 8, 8064
8, 7312, Pitch_bend_c, 8, 8032
8, 7328, Pitch_bend_c, 8, 8128
8, 7329, Pitch_bend_c, 8, 8288
8, 7331, Pitch_bend_c, 8, 8768
8, 7332, Pitch_bend_c, 8, 11008
8, 7334, Pitch_bend_c, 8, 11232
8, 7335, Pitch_bend_c, 8, 11520
8, 7336, Pitch_bend_c, 8, 11776
8, 7337, Pitch_bend_c, 8, 11936
8, 7339, Note_on_c, 8, 73, 0
8, 7339, Pitch_bend_c, 8, 11232
8, 7342, Pitch_bend_c, 8, 8192
8, 7343, Pitch_bend_c, 8, 7712
8, 7346, Pitch_bend_c, 8, 7808
8, 7348, Pitch_bend_c, 8, 7872
8, 7351, Pitch_bend_c, 8, 8192
8, 7352, Note_on_c, 8, 70, 64
8, 7352, Pitch_bend_c, 8, 8256
8, 7355, Pitch_bend_c, 8, 8224
8, 7357, Pitch_bend_c, 8, 8192
8, 7358, Pitch_bend_c, 8, 8160
8, 7359, Pitch_bend_c, 8, 8128
8, 7360, Pitch_bend_c, 8, 8096
8, 7362, Pitch_bend_c, 8, 8064
8, 7363, Note_on_c, 8, 70, 0
8, 7363, Pitch_bend_c, 8, 8160
8, 7365, Pitch_bend_c, 8, 8192
8, 7366, Note_on_c, 8, 70, 60
8, 7366, Pitch_bend_c, 8, 7936
8, 7367, Pitch_bend_c, 8, 7968
8, 7374, Pitch_bend_c, 8, 8000
8, 7375, Pitch_bend_c, 8, 7968
8, 7378, Pitch_bend_c, 8, 8096
8, 7379, Pitch_bend_c, 8, 8288
8, 7380, Pitch_bend_c, 8, 8576
8, 7382, Pitch_bend_c, 8, 8832
8, 7383, Pitch_bend_c, 8, 8864
8, 7384, Pitch_bend_c, 8, 8640
8, 7385, Pitch_bend_c, 8, 8320
8, 7387, Pitch_bend_c, 8, 8096
8, 7388, Pitch_bend_c, 8, 7904
8, 7389, Pitch_bend_c, 8, 7840
8, 7391, Pitch_bend_c, 8, 7904
8, 7392, Pitch_bend_c, 8, 8160
8, 7393, Pitch_bend_c, 8, 8608
8, 7394, Pitch_bend_c, 8, 9216
8, 7396, Pitch_bend_c, 8, 9792
8, 7397, Pitch_bend_c, 8, 9984
8, 7398, Pitch_bend_c, 8, 9568
8, 7400, Pitch_bend_c, 8, 8960
8, 7401, Pitch_bend_c, 8, 8384
8, 7402, Pitch_bend_c, 8, 8064
8, 7403, Pitch_bend_c, 8, 8000
8, 7405, Pitch_bend_c, 8, 8032
8, 7406, Note_on_c, 8, 70, 0
8, 7406, Pitch_bend_c, 8, 8960
8, 7818, Pitch_bend_c, 8, 8192
8, 7819, Note_on_c, 8, 64, 70
8, 7819, Pitch_bend_c, 8, 8096
8, 7820, Pitch_bend_c, 8, 8064
8, 7824, Pitch_bend_c, 8, 8192
8, 7838, Pitch_bend_c, 8, 12224
8, 7840, Pitch_bend_c, 8, 12256
8, 7841, Pitch_bend_c, 8, 12288
8, 7845, Pitch_bend_c, 8, 12256
8, 7846, Pitch_bend_c, 8, 12224
8, 7848, Note_on_c, 8, 73, 90
8, 7890, Note_on_c, 8, 64, 0
8, 7897, Note_on_c, 8, 73, 0
8, 7898, Pitch_bend_c, 8, 8192
8, 7899, Pitch_bend_c, 8, 8128
8, 7910, Pitch_bend_c, 8, 8192
8, 7911, Note_on_c, 8, 61, 54
8, 7912, Pitch_bend_c, 8, 11456
8, 7913, Pitch_bend_c, 8, 12160
8, 7915, Pitch_bend_c, 8, 12096
8, 7916, Pitch_bend_c, 8, 12032
8, 7919, Pitch_bend_c, 8, 16096
8, 7924, Pitch_bend_c, 8, 16160
8, 7925, Pitch_bend_c, 8, 16192
8, 7926, Pitch_bend_c, 8, 16224
8, 7934, Pitch_bend_c, 8, 16192
8, 7936, Pitch_bend_c, 8, 16128
8, 7939, Pitch_bend_c, 8, 16096
8, 7941, Pitch_bend_c, 8, 16224
8, 7942, Note_on_c, 8, 70, 89
8, 7989, Note_on_c, 8, 70, 0
8, 7991, Note_on_c, 8, 61, 0
8, 8004, Pitch_bend_c, 8, 8192
8, 8005, Note_on_c, 8, 61, 56
8, 8005, Pitch_bend_c, 8, 7808
8, 8006, Pitch_bend_c, 8, 7744
8, 8008, Pitch_bend_c, 8, 7808
8, 8009, Pitch_bend_c, 8, 11680
8, 8011, Pitch_bend_c, 8, 11776
8, 8012, Pitch_bend_c, 8, 11872
8, 8013, Pitch_bend_c, 8, 11936
8, 8015, Pitch_bend_c, 8, 12064
8, 8017, Pitch_bend_c, 8, 12096
8, 8020, Pitch_bend_c, 8, 12160
8, 8023, Pitch_bend_c, 8, 12128
8, 8025, Pitch_bend_c, 8, 12096
8, 8026, Pitch_bend_c, 8, 12064
8, 8027, Note_on_c, 8, 61, 0
8, 8027, Pitch_bend_c, 8, 8192
8, 8028, Note_on_c, 8, 65, 50
8, 8028, Pitch_bend_c, 8, 8000
8, 8032, Pitch_bend_c, 8, 8032
8, 8033, Pitch_bend_c, 8, 8064
8, 8034, Pitch_bend_c, 8, 8096
8, 8037, Pitch_bend_c, 8, 8192
8, 8037, Note_on_c, 8, 70, 95
8, 8052, Note_on_c, 8, 65, 0
8, 8053, Pitch_bend_c, 8, 8448
8, 8054, Pitch_bend_c, 8, 8416
8, 8055, Pitch_bend_c, 8, 8192
8, 8055, Note_on_c, 8, 65, 85
8, 8067, Note_on_c, 8, 70, 0
8, 8068, Note_on_c, 8, 70, 72
8, 8078, Note_on_c, 8, 65, 0
8, 8079, Pitch_bend_c, 8, 8352
8, 8080, Pitch_bend_c, 8, 8384
8, 8081, Pitch_bend_c, 8, 8416
8, 8082, Note_on_c, 8, 70, 0
8, 8087, Note_on_c, 8, 69, 82
8, 8087, Pitch_bend_c, 8, 7808
8, 8091, Pitch_bend_c, 8, 7840
8, 8093, Pitch_bend_c, 8, 7872
8, 8097, Pitch_bend_c, 8, 7904
8, 8098, Pitch_bend_c, 8, 11776
8, 8102, Pitch_bend_c, 8, 11808
8, 8105, Pitch_bend_c, 8, 11840
8, 8106, Pitch_bend_c, 8, 11872
8, 8110, Pitch_bend_c, 8, 11840
8, 8114, Pitch_bend_c, 8, 11872
8, 8122, Note_on_c, 8, 73, 79
8, 8122, Pitch_bend_c, 8, 8512
8, 8124, Note_on_c, 8, 69, 0
8, 8125, Pitch_bend_c, 8, 8544
8, 8126, Pitch_bend_c, 8, 8576
8, 8127, Pitch_bend_c, 8, 8608
8, 8129, Pitch_bend_c, 8, 8672
8, 8130, Note_on_c, 8, 73, 0
8, 8132, Note_on_c, 8, 70, 86
8, 8132, Pitch_bend_c, 8, 8096
8, 8133, Pitch_bend_c, 8, 8128
8, 8135, Pitch_bend_c, 8, 8160
8, 8138, Pitch_bend_c, 8, 8192
8, 8139, Pitch_bend_c, 8, 8352
8, 8140, Pitch_bend_c, 8, 8640
8, 8141, Pitch_bend_c, 8, 8864
8, 8143, Pitch_bend_c, 8, 128
8, 8144, Pitch_bend_c, 8, 160
8, 8145, Pitch_bend_c, 8, 128
8, 8149, Pitch_bend_c, 8, 96
8, 8151, Note_on_c, 8, 70, 0
8, 8151, Pitch_bend_c, 8, 8192
8, 8151, Note_on_c, 8, 65, 54
8, 8161, Pitch_bend_c, 8, 8160
8, 8162, Pitch_bend_c, 8, 8096
8, 8165, Pitch_bend_c, 8, 8064
8, 8166, Pitch_bend_c, 8, 8032
8, 8167, Pitch_bend_c, 8, 8000
8, 8170, Pitch_bend_c, 8, 7936
8, 8172, Pitch_bend_c, 8, 7968
8, 8173, Note_on_c, 8, 65, 0
8, 8198, Pitch_bend_c, 8, 8192
8, 8199, Note_on_c, 8, 76, 88
8, 8199, Pitch_bend_c, 8, 9248
8, 8200, Pitch_bend_c, 8, 9088
8, 8201, Pitch_bend_c, 8, 9056
8, 8203, Pitch_bend_c, 8, 8864
8, 8205, Pitch_bend_c, 8, 8512
8, 8206, Pitch_bend_c, 8, 7968
8, 8207, Pitch_bend_c, 8, 5440
8, 8208, Pitch_bend_c, 8, 5216
8, 8210, Pitch_bend_c, 8, 4736
8, 8211, Pitch_bend_c, 8, 4352
8, 8212, Pitch_bend_c, 8, 3936
8, 8214, Pitch_bend_c, 8, 3776
8, 8215, Pitch_bend_c, 8, 3808
8, 8216, Pitch_bend_c, 8, 3840
8, 8217, Note_on_c, 8, 76, 0
8, 8217, Pitch_bend_c, 8, 4352
8, 8219, Note_on_c, 8, 73, 57
8, 8219, Pitch_bend_c, 8, 8032
8, 8222, Pitch_bend_c, 8, 8000
8, 8224, Pitch_bend_c, 8, 8032
8, 8226, Pitch_bend_c, 8, 8064
8, 8227, Pitch_bend_c, 8, 8192
8, 8228, Note_on_c, 8, 73, 0
8, 8228, Pitch_bend_c, 8, 8256
8, 8231, Note_on_c, 8, 70, 68
8, 8231, Pitch_bend_c, 8, 8384
8, 8234, Pitch_bend_c, 8, 8416
8, 8235, Pitch_bend_c, 8, 8448
8, 8238, Pitch_bend_c, 8, 8480
8, 8240, Pitch_bend_c, 8, 8416
8, 8241, Pitch_bend_c, 8, 8384
8, 8243, Pitch_bend_c, 8, 8320
8, 8244, Pitch_bend_c, 8, 8256
8, 8246, Pitch_bend_c, 8, 8224
8, 8249, Pitch_bend_c, 8, 8256
8, 8262, Pitch_bend_c, 8, 8224
8, 8263, Pitch_bend_c, 8, 8320
8, 8264, Note_on_c, 8, 70, 0
8, 8264, Note_on_c, 8, 73, 82
8, 8264, Pitch_bend_c, 8, 8192
8, 8269, Pitch_bend_c, 8, 8224
8, 8270, Pitch_bend_c, 8, 8192
8, 8273, Pitch_bend_c, 8, 8160
8, 8275, Pitch_bend_c, 8, 8128
8, 8276, Pitch_bend_c, 8, 8064
8, 8278, Pitch_bend_c, 8, 8128
8, 8279, Pitch_bend_c, 8, 8416
8, 8280, Pitch_bend_c, 8, 8864
8, 8282, Pitch_bend_c, 8, 9440
8, 8283, Pitch_bend_c, 8, 9984
8, 8284, Pitch_bend_c, 8, 10432
8, 8286, Pitch_bend_c, 8, 10848
8, 8287, Pitch_bend_c, 8, 11168
8, 8288, Pitch_bend_c, 8, 11392
8, 8290, Pitch_bend_c, 8, 11552
8, 8291, Pitch_bend_c, 8, 11776
8, 8292, Note_on_c, 8, 73, 0
8, 8774, Note_on_c, 8, 67, 83
8, 8774, Pitch_bend_c, 8, 8416
8, 8777, Pitch_bend_c, 8, 8192
8, 8777, Note_on_c, 8, 70, 84
8, 8792, Note_on_c, 8, 70, 0
8, 8793, Note_on_c, 8, 70, 84
8, 8800, Note_on_c, 8, 67, 0
8, 8801, Pitch_bend_c, 8, 7872
8, 8802, Pitch_bend_c, 8, 15712
8, 8804, Note_on_c, 8, 70, 0
8, 8807, Note_on_c, 8, 73, 79
8, 8807, Pitch_bend_c, 8, 7872
8, 8810, Pitch_bend_c, 8, 7840
8, 8812, Pitch_bend_c, 8, 7808
8, 8816, Pitch_bend_c, 8, 7776
8, 8818, Pitch_bend_c, 8, 7552
8, 8819, Note_on_c, 8, 73, 0
8, 8819, Pitch_bend_c, 8, 7840
8, 8830, Pitch_bend_c, 8, 8192
8, 8831, Note_on_c, 8, 75, 87
8, 8831, Pitch_bend_c, 8, 8160
8, 8834, Pitch_bend_c, 8, 8064
8, 8836, Pitch_bend_c, 8, 8032
8, 8839, Pitch_bend_c, 8, 8000
8, 8840, Pitch_bend_c, 8, 7936
8, 8843, Pitch_bend_c, 8, 8064
8, 8844, Pitch_bend_c, 8, 10464
8, 8846, Pitch_bend_c, 8, 11008
8, 8847, Pitch_bend_c, 8, 13664
8, 8848, Pitch_bend_c, 8, 13728
8, 8849, Pitch_bend_c, 8, 13824
8, 8851, Pitch_bend_c, 8, 13920
8, 8853, Pitch_bend_c, 8, 13536
8, 8855, Pitch_bend_c, 8, 9408
8, 8856, Pitch_bend_c, 8, 8992
8, 8857, Pitch_bend_c, 8, 8192
8, 8859, Note_on_c, 8, 75, 0
8, 8862, Note_on_c, 8, 73, 80
8, 8866, Pitch_bend_c, 8, 8288
8, 8870, Note_on_c, 8, 73, 0
8, 8870, Pitch_bend_c, 8, 8192
8, 8871, Pitch_bend_c, 8, 8288
8, 8873, Note_on_c, 8, 70, 69
8, 8874, Pitch_bend_c, 8, 8256
8, 8877, Pitch_bend_c, 8, 8224
8, 8878, Pitch_bend_c, 8, 8192
8, 8885, Pitch_bend_c, 8, 8160
8, 8886, Pitch_bend_c, 8, 8128
8, 8889, Pitch_bend_c, 8, 8096
8, 8891, Pitch_bend_c, 8, 8128
8, 8894, Pitch_bend_c, 8, 8160
8, 8901, Pitch_bend_c, 8, 8192
8, 8912, Pitch_bend_c, 8, 8160
8, 8914, Pitch_bend_c, 8, 8128
8, 8916, Pitch_bend_c, 8, 8096
8, 8918, Pitch_bend_c, 8, 8064
8, 8920, Pitch_bend_c, 8, 8192
8, 8922, Note_on_c, 8, 73, 78
8, 8922, Pitch_bend_c, 8, 7552
8, 8923, Note_on_c, 8, 70, 0
8, 8923, Pitch_bend_c, 8, 7872
8, 8926, Pitch_bend_c, 8, 7840
8, 8927, Pitch_bend_c, 8, 7776
8, 8928, Pitch_bend_c, 8, 7680
8, 8931, Pitch_bend_c, 8, 7648
8, 8933, Pitch_bend_c, 8, 7680
8, 8934, Pitch_bend_c, 8, 7744
8, 8935, Pitch_bend_c, 8, 7776
8, 8936, Pitch_bend_c, 8, 7840
8, 8938, Pitch_bend_c, 8, 7872
8, 8939, Pitch_bend_c, 8, 7968
8, 8940, Pitch_bend_c, 8, 8064
8, 8942, Pitch_bend_c, 8, 8224
8, 8943, Pitch_bend_c, 8, 8544
8, 8944, Pitch_bend_c, 8, 8928
8, 8945, Pitch_bend_c, 8, 9376
8, 8947, Pitch_bend_c, 8, 9920
8, 8948, Pitch_bend_c, 8, 10400
8, 8949, Pitch_bend_c, 8, 10752
8, 8951, Pitch_bend_c, 8, 11040
8, 8952, Pitch_bend_c, 8, 11168
8, 8953, Pitch_bend_c, 8, 11136
8, 8955, Note_on_c, 8, 73, 0
8, 8955, Pitch_bend_c, 8, 11072
8, 9468, Pitch_bend_c, 8, 8192
8, 9468, Note_on_c, 8, 75, 88
8, 9469, Pitch_bend_c, 8, 8672
8, 9472, Pitch_bend_c, 8, 8864
8, 9474, Pitch_bend_c, 8, 9216
8, 9475, Pitch_bend_c, 8, 9824
8, 9476, Pitch_bend_c, 8, 10528
8, 9477, Pitch_bend_c, 8, 11264
8, 9479, Pitch_bend_c, 8, 11872
8, 9480, Pitch_bend_c, 8, 12288
8, 9481, Pitch_bend_c, 8, 12480
8, 9485, Pitch_bend_c, 8, 12416
8, 9487, Pitch_bend_c, 8, 12320
8, 9488, Pitch_bend_c, 8, 12224
8, 9489, Pitch_bend_c, 8, 12096
8, 9491, Pitch_bend_c, 8, 11872
8, 9492, Pitch_bend_c, 8, 11456
8, 9493, Pitch_bend_c, 8, 9280
8, 9494, Pitch_bend_c, 8, 9120
8, 9496, Pitch_bend_c, 8, 8864
8, 9497, Pitch_bend_c, 8, 8576
8, 9498, Pitch_bend_c, 8, 8256
8, 9500, Pitch_bend_c, 8, 8192
8, 9501, Pitch_bend_c, 8, 8160
8, 9502, Pitch_bend_c, 8, 8192
8, 9503, Pitch_bend_c, 8, 8576
8, 9504, Note_on_c, 8, 75, 0
8, 9505, Pitch_bend_c, 8, 8192
8, 9506, Note_on_c, 8, 73, 90
8, 9506, Pitch_bend_c, 8, 8288
8, 9507, Pitch_bend_c, 8, 8256
8, 9508, Pitch_bend_c, 8, 8288
8, 9511, Pitch_bend_c, 8, 8352
8, 9515, Note_on_c, 8, 73, 0
8, 9515, Note_on_c, 8, 70, 84
8, 9515, Pitch_bend_c, 8, 8192
8, 9521, Pitch_bend_c, 8, 8160
8, 9522, Pitch_bend_c, 8, 8128
8, 9525, Pitch_bend_c, 8, 8096
8, 9528, Pitch_bend_c, 8, 8064
8, 9533, Pitch_bend_c, 8, 8032
8, 9534, Pitch_bend_c, 8, 8000
8, 9538, Pitch_bend_c, 8, 8064
8, 9539, Pitch_bend_c, 8, 8096
8, 9541, Note_on_c, 8, 70, 0
8, 9542, Pitch_bend_c, 8, 8192
8, 9543, Note_on_c, 8, 73, 91
8, 9543, Pitch_bend_c, 8, 8288
8, 9544, Pitch_bend_c, 8, 8352
8, 9550, Pitch_bend_c, 8, 7840
8, 9552, Note_on_c, 8, 73, 0
8, 9552, Note_on_c, 8, 70, 87
8, 9552, Pitch_bend_c, 8, 8192
8, 9556, Pitch_bend_c, 8, 8224
8, 9557, Pitch_bend_c, 8, 8192
8, 9558, Pitch_bend_c, 8, 8160
8, 9561, Pitch_bend_c, 8, 8096
8, 9562, Note_on_c, 8, 70, 0
8, 9562, Note_on_c, 8, 67, 70
8, 9562, Pitch_bend_c, 8, 12256
8, 9563, Pitch_bend_c, 8, 12224
8, 9564, Pitch_bend_c, 8, 12256
8, 9565, Pitch_bend_c, 8, 12288
8, 9568, Pitch_bend_c, 8, 12320
8, 9569, Pitch_bend_c, 8, 12384
8, 9570, Pitch_bend_c, 8, 12448
8, 9571, Pitch_bend_c, 8, 12480
8, 9573, Note_on_c, 8, 67, 0
8, 9573, Pitch_bend_c, 8, 8192
8, 9573, Note_on_c, 8, 65, 69
8, 9584, Pitch_bend_c, 8, 8160
8, 9588, Pitch_bend_c, 8, 8192
8, 9595, Pitch_bend_c, 8, 8288
8, 9596, Pitch_bend_c, 8, 8352
8, 9598, Pitch_bend_c, 8, 8416
8, 9599, Pitch_bend_c, 8, 4544
8, 9601, Pitch_bend_c, 8, 4512
8, 9603, Note_on_c, 8, 65, 0
8, 9605, Pitch_bend_c, 8, 8192
8, 9606, Note_on_c, 8, 70, 92
8, 9606, Pitch_bend_c, 8, 8544
8, 9611, Pitch_bend_c, 8, 8512
8, 9612, Pitch_bend_c, 8, 8672
8, 9613, Note_on_c, 8, 70, 0
8, 9615, Note_on_c, 8, 68, 88
8, 9615, Pitch_bend_c, 8, 8160
8, 9616, Pitch_bend_c, 8, 8288
8, 9619, Pitch_bend_c, 8, 8384
8, 9620, Pitch_bend_c, 8, 8544
8, 9622, Pitch_bend_c, 8, 8736
8, 9623, Pitch_bend_c, 8, 8864
8, 9624, Pitch_bend_c, 8, 8992
8, 9626, Pitch_bend_c, 8, 8864
8, 9627, Note_on_c, 8, 68, 0
8, 9627, Note_on_c, 8, 65, 66
8, 9627, Pitch_bend_c, 8, 8320
8, 9628, Pitch_bend_c, 8, 8416
8, 9638, Pitch_bend_c, 8, 8192
8, 9638, Note_on_c, 8, 63, 64
8, 9639, Note_on_c, 8, 65, 0
8, 9646, Pitch_bend_c, 8, 8224
8, 9648, Pitch_bend_c, 8, 8256
8, 9653, Pitch_bend_c, 8, 8320
8, 9654, Pitch_bend_c, 8, 8544
8, 9656, Pitch_bend_c, 8, 9024
8, 9657, Pitch_bend_c, 8, 9728
8, 9658, Pitch_bend_c, 8, 10528
8, 9659, Pitch_bend_c, 8, 11328
8, 9661, Pitch_bend_c, 8, 11968
8, 9662, Pitch_bend_c, 8, 12512
8, 9663, Pitch_bend_c, 8, 12928
8, 9664, Pitch_bend_c, 8, 13216
8, 9666, Pitch_bend_c, 8, 13408
8, 9667, Pitch_bend_c, 8, 13184
8, 9668, Pitch_bend_c, 8, 9760
8, 9669, Pitch_bend_c, 8, 8192
8, 9670, Note_on_c, 8, 65, 87
8, 9671, Note_on_c, 8, 63, 0
8, 9671, Pitch_bend_c, 8, 8448
8, 9674, Pitch_bend_c, 8, 8352
8, 9675, Pitch_bend_c, 8, 8224
8, 9677, Pitch_bend_c, 8, 8192
8, 9681, Pitch_bend_c, 8, 8224
8, 9682, Pitch_bend_c, 8, 8192
8, 9687, Pitch_bend_c, 8, 8160
8, 9688, Pitch_bend_c, 8, 8128
8, 9691, Pitch_bend_c, 8, 8192
8, 9692, Note_on_c, 8, 63, 93
8, 9692, Pitch_bend_c, 8, 8224
8, 9693, Pitch_bend_c, 8, 8480
8, 9695, Note_on_c, 8, 65, 0
8, 9695, Pitch_bend_c, 8, 8416
8, 9697, Pitch_bend_c, 8, 8480
8, 9699, Pitch_bend_c, 8, 8640
8, 9700, Pitch_bend_c, 8, 9184
8, 9701, Pitch_bend_c, 8, 11424
8, 9702, Pitch_bend_c, 8, 8672
8, 9703, Pitch_bend_c, 8, 11552
8, 9704, Pitch_bend_c, 8, 11648
8, 9705, Pitch_bend_c, 8, 11712
8, 9706, Pitch_bend_c, 8, 11744
8, 9708, Pitch_bend_c, 8, 11648
8, 9709, Pitch_bend_c, 8, 11200
8, 9710, Pitch_bend_c, 8, 8320
8, 9711, Pitch_bend_c, 8, 8192
8, 9712, Pitch_bend_c, 8, 8096
8, 9713, Pitch_bend_c, 8, 8256
8, 9714, Pitch_bend_c, 8, 7808
8, 9715, Pitch_bend_c, 8, 8000
8, 9716, Note_on_c, 8, 63, 0
8, 9716, Pitch_bend_c, 8, 8192
8, 9717, Note_on_c, 8, 61, 61
8, 9717, Pitch_bend_c, 8, 8768
8, 9718, Pitch_bend_c, 8, 8288
8, 9720, Pitch_bend_c, 8, 8256
8, 9721, Pitch_bend_c, 8, 8224
8, 9723, Pitch_bend_c, 8, 8384
8, 9724, Pitch_bend_c, 8, 8512
8, 9725, Pitch_bend_c, 8, 8672
8, 9727, Pitch_bend_c, 8, 8192
8, 9727, Note_on_c, 8, 58, 58
8, 9728, Note_on_c, 8, 61, 0
8, 9730, Pitch_bend_c, 8, 8160
8, 9733, Note_on_c, 8, 58, 0
8, 9733, Pitch_bend_c, 8, 8128
8, 9738, Pitch_bend_c, 8, 8192
8, 9738, Note_on_c, 8, 63, 82
8, 9739, Pitch_bend_c, 8, 8224
8, 9742, Pitch_bend_c, 8, 8256
8, 9744, Pitch_bend_c, 8, 8320
8, 9746, Pitch_bend_c, 8, 8352
8, 9747, Pitch_bend_c, 8, 8320
8, 9750, Pitch_bend_c, 8, 8256
8, 9753, Pitch_bend_c, 8, 8224
8, 9754, Pitch_bend_c, 8, 8192
8, 9761, Pitch_bend_c, 8, 8000
8, 9762, Note_on_c, 8, 63, 0
8, 9762, Pitch_bend_c, 8, 8224
8, 9764, Note_on_c, 8, 61, 79
8, 9764, Pitch_bend_c, 8, 8288
8, 9765, Pitch_bend_c, 8, 8192
8, 9767, Pitch_bend_c, 8, 8128
8, 9769, Pitch_bend_c, 8, 8096
8, 9770, Pitch_bend_c, 8, 8064
8, 9771, Pitch_bend_c, 8, 8032
8, 9772, Pitch_bend_c, 8, 8064
8, 9774, Pitch_bend_c, 8, 8128
8, 9775, Pitch_bend_c, 8, 8160
8, 9776, Pitch_bend_c, 8, 8192
8, 9779, Pitch_bend_c, 8, 8352
8, 9780, Note_on_c, 8, 61, 0
8, 9780, Pitch_bend_c, 8, 8576
8, 9783, Pitch_bend_c, 8, 8192
8, 9784, Note_on_c, 8, 58, 71
8, 9784, Pitch_bend_c, 8, 8096
8, 9786, Pitch_bend_c, 8, 8128
8, 9789, Pitch_bend_c, 8, 7968
8, 9790, Pitch_bend_c, 8, 7808
8, 9791, Pitch_bend_c, 8, 4960
8, 9792, Pitch_bend_c, 8, 0
8, 9794, Pitch_bend_c, 8, 64
8, 9799, Pitch_bend_c, 8, 96
8, 9802, Note_on_c, 8, 58, 0
8, 9802, Pitch_bend_c, 8, 8192
8, 9806, Note_on_c, 8, 53, 45
8, 9810, Pitch_bend_c, 8, 7712
8, 9811, Pitch_bend_c, 8, 7648
8, 9814, Pitch_bend_c, 8, 7808
8, 9818, Pitch_bend_c, 8, 7776
8, 9820, Pitch_bend_c, 8, 7808
8, 9821, Pitch_bend_c, 8, 7840
8, 9823, Pitch_bend_c, 8, 7904
8, 9828, Pitch_bend_c, 8, 7872
8, 9831, Pitch_bend_c, 8, 7840
8, 9833, Pitch_bend_c, 8, 7808
8, 9835, Pitch_bend_c, 8, 7840
8, 9836, Pitch_bend_c, 8, 8352
8, 9837, Pitch_bend_c, 8, 8896
8, 9839, Pitch_bend_c, 8, 9440
8, 9840, Pitch_bend_c, 8, 9952
8, 9844, Note_on_c, 8, 53, 0
8, 9864, Note_on_c, 8, 61, 73
8, 9864, Pitch_bend_c, 8, 8288
8, 9865, Pitch_bend_c, 8, 7904
8, 9866, Pitch_bend_c, 8, 7840
8, 9867, Pitch_bend_c, 8, 8192
8, 9867, Note_on_c, 8, 65, 92
8, 9871, Note_on_c, 8, 70, 80
8, 9922, Note_on_c, 8, 61, 0
8, 9923, Note_on_c, 8, 65, 0
8, 9927, Note_on_c, 8, 61, 78
8, 9929, Note_on_c, 8, 65, 74
8, 9930, Note_on_c, 8, 70, 0
8, 9933, Note_on_c, 8, 70, 47
8, 9943, Note_on_c, 8, 61, 0
8, 9943, Note_on_c, 8, 62, 63
8, 10055, Note_on_c, 8, 65, 0
8, 10055, Note_on_c, 8, 62, 0
8, 10073, Note_on_c, 8, 70, 0
8, 10296, Note_on_c, 8, 65, 73
8, 10296, Pitch_bend_c, 8, 8352
8, 10304, Pitch_bend_c, 8, 8320
8, 10309, Pitch_bend_c, 8, 8288
8, 10310, Pitch_bend_c, 8, 8256
8, 10311, Pitch_bend_c, 8, 8192
8, 10311, Note_on_c, 8, 70, 89
8, 10314, Note_on_c, 8, 65, 0
8, 10314, Pitch_bend_c, 8, 8224
8, 10315, Pitch_bend_c, 8, 8192
8, 10318, Pitch_bend_c, 8, 8160
8, 10319, Pitch_bend_c, 8, 8128
8, 10322, Pitch_bend_c, 8, 8096
8, 10323, Pitch_bend_c, 8, 8032
8, 10324, Note_on_c, 8, 70, 0
8, 10326, Pitch_bend_c, 8, 8192
8, 10327, Note_on_c, 8, 70, 89
8, 10327, Pitch_bend_c, 8, 8128
8, 10328, Pitch_bend_c, 8, 8064
8, 10331, Pitch_bend_c, 8, 8128
8, 10332, Pitch_bend_c, 8, 8352
8, 10333, Pitch_bend_c, 8, 8864
8, 10335, Pitch_bend_c, 8, 9472
8, 10336, Pitch_bend_c, 8, 10016
8, 10337, Pitch_bend_c, 8, 10272
8, 10340, Pitch_bend_c, 8, 9920
8, 10341, Pitch_bend_c, 8, 9376
8, 10343, Pitch_bend_c, 8, 8800
8, 10344, Pitch_bend_c, 8, 8320
8, 10345, Pitch_bend_c, 8, 8128
8, 10346, Pitch_bend_c, 8, 8064
8, 10348, Pitch_bend_c, 8, 8192
8, 10349, Pitch_bend_c, 8, 8512
8, 10350, Pitch_bend_c, 8, 9152
8, 10352, Pitch_bend_c, 8, 9856
8, 10353, Pitch_bend_c, 8, 10400
8, 10354, Pitch_bend_c, 8, 10560
8, 10356, Pitch_bend_c, 8, 10304
8, 10357, Pitch_bend_c, 8, 9760
8, 10358, Pitch_bend_c, 8, 9152
8, 10359, Pitch_bend_c, 8, 8544
8, 10361, Pitch_bend_c, 8, 8192
8, 10362, Pitch_bend_c, 8, 8032
8, 10371, Pitch_bend_c, 8, 8064
8, 10373, Pitch_bend_c, 8, 8096
8, 10376, Pitch_bend_c, 8, 7968
8, 10377, Note_on_c, 8, 70, 0
8, 10377, Pitch_bend_c, 8, 8192
8, 10378, Note_on_c, 8, 73, 93
8, 10378, Pitch_bend_c, 8, 8544
8, 10385, Pitch_bend_c, 8, 8512
8, 10386, Note_on_c, 8, 73, 0
8, 10389, Note_on_c, 8, 70, 74
8, 10389, Pitch_bend_c, 8, 8192
8, 10392, Pitch_bend_c, 8, 8224
8, 10394, Pitch_bend_c, 8, 8256
8, 10395, Pitch_bend_c, 8, 8416
8, 10397, Pitch_bend_c, 8, 8544
8, 10398, Pitch_bend_c, 8, 0
8, 10401, Pitch_bend_c, 8, 64
8, 10402, Pitch_bend_c, 8, 96
8, 10403, Pitch_bend_c, 8, 128
8, 10404, Pitch_bend_c, 8, 160
8, 10406, Pitch_bend_c, 8, 224
8, 10407, Pitch_bend_c, 8, 256
8, 10408, Note_on_c, 8, 70, 0
8, 10409, Pitch_bend_c, 8, 8192
8, 10410, Note_on_c, 8, 65, 42
8, 10410, Pitch_bend_c, 8, 8416
8, 10411, Pitch_bend_c, 8, 8480
8, 10413, Pitch_bend_c, 8, 8448
8, 10415, Pitch_bend_c, 8, 8416
8, 10417, Pitch_bend_c, 8, 8352
8, 10419, Pitch_bend_c, 8, 8288
8, 10420, Pitch_bend_c, 8, 8256
8, 10421, Pitch_bend_c, 8, 8224
8, 10424, Pitch_bend_c, 8, 8192
8, 10432, Note_on_c, 8, 65, 0
8, 10432, Pitch_bend_c, 8, 8224
8, 10694, Pitch_bend_c, 8, 8192
8, 10695, Note_on_c, 8, 75, 89
8, 10695, Pitch_bend_c, 8, 8160
8, 10696, Pitch_bend_c, 8, 8256
8, 10698, Pitch_bend_c, 8, 8352
8, 10699, Pitch_bend_c, 8, 8480
8, 10700, Pitch_bend_c, 8, 8352
8, 10701, Pitch_bend_c, 8, 8256
8, 10703, Pitch_bend_c, 8, 8224
8, 10704, Pitch_bend_c, 8, 8192
8, 10705, Pitch_bend_c, 8, 8160
8, 10708, Pitch_bend_c, 8, 8448
8, 10709, Pitch_bend_c, 8, 10784
8, 10710, Pitch_bend_c, 8, 11136
8, 10712, Pitch_bend_c, 8, 11680
8, 10713, Pitch_bend_c, 8, 12224
8, 10714, Pitch_bend_c, 8, 12768
8, 10716, Pitch_bend_c, 8, 12864
8, 10717, Pitch_bend_c, 8, 12416
8, 10718, Pitch_bend_c, 8, 9344
8, 10719, Pitch_bend_c, 8, 9056
8, 10721, Pitch_bend_c, 8, 8640
8, 10722, Pitch_bend_c, 8, 8256
8, 10723, Pitch_bend_c, 8, 7936
8, 10724, Pitch_bend_c, 8, 7872
8, 10726, Pitch_bend_c, 8, 7936
8, 10727, Note_on_c, 8, 75, 0
8, 10727, Pitch_bend_c, 8, 8640
8, 10729, Pitch_bend_c, 8, 8192
8, 10730, Note_on_c, 8, 73, 84
8, 10730, Pitch_bend_c, 8, 8160
8, 10731, Pitch_bend_c, 8, 8192
8, 10734, Pitch_bend_c, 8, 8224
8, 10736, Pitch_bend_c, 8, 8256
8, 10737, Note_on_c, 8, 73, 0
8, 10738, Note_on_c, 8, 70, 68
8, 10738, Pitch_bend_c, 8, 8192
8, 10739, Pitch_bend_c, 8, 8576
8, 10741, Pitch_bend_c, 8, 8608
8, 10744, Pitch_bend_c, 8, 8576
8, 10745, Pitch_bend_c, 8, 8544
8, 10746, Pitch_bend_c, 8, 8448
8, 10748, Pitch_bend_c, 8, 8352
8, 10749, Pitch_bend_c, 8, 8288
8, 10750, Pitch_bend_c, 8, 8224
8, 10753, Pitch_bend_c, 8, 8192
8, 10754, Pitch_bend_c, 8, 8224
8, 10764, Pitch_bend_c, 8, 8192
8, 10770, Pitch_bend_c, 8, 8224
8, 10771, Pitch_bend_c, 8, 8480
8, 10773, Pitch_bend_c, 8, 8992
8, 10774, Pitch_bend_c, 8, 9696
8, 10775, Pitch_bend_c, 8, 10400
8, 10776, Pitch_bend_c, 8, 10880
8, 10778, Pitch_bend_c, 8, 11072
8, 10779, Pitch_bend_c, 8, 10624
8, 10780, Pitch_bend_c, 8, 8128
8, 10781, Pitch_bend_c, 8, 8096
8, 10784, Pitch_bend_c, 8, 8032
8, 10785, Pitch_bend_c, 8, 7968
8, 10786, Pitch_bend_c, 8, 8064
8, 10788, Pitch_bend_c, 8, 8288
8, 10789, Pitch_bend_c, 8, 8928
8, 10790, Pitch_bend_c, 8, 9696
8, 10792, Pitch_bend_c, 8, 10336
8, 10793, Pitch_bend_c, 8, 10592
8, 10794, Pitch_bend_c, 8, 10240
8, 10796, Pitch_bend_c, 8, 9600
8, 10797, Pitch_bend_c, 8, 8896
8, 10799, Note_on_c, 8, 70, 0
8, 10799, Pitch_bend_c, 8, 10592
8, 11042, Note_on_c, 8, 75, 89
8, 11042, Pitch_bend_c, 8, 8192
8, 11043, Pitch_bend_c, 8, 8000
8, 11044, Pitch_bend_c, 8, 8192
8, 11046, Pitch_bend_c, 8, 8224
8, 11047, Pitch_bend_c, 8, 8192
8, 11050, Pitch_bend_c, 8, 8256
8, 11051, Pitch_bend_c, 8, 8576
8, 11052, Pitch_bend_c, 8, 9184
8, 11054, Pitch_bend_c, 8, 11968
8, 11056, Pitch_bend_c, 8, 12224
8, 11057, Pitch_bend_c, 8, 12576
8, 11058, Pitch_bend_c, 8, 12992
8, 11060, Pitch_bend_c, 8, 13440
8, 11061, Pitch_bend_c, 8, 13664
8, 11062, Pitch_bend_c, 8, 13760
8, 11067, Pitch_bend_c, 8, 13728
8, 11068, Pitch_bend_c, 8, 13664
8, 11069, Pitch_bend_c, 8, 13632
8, 11071, Pitch_bend_c, 8, 13568
8, 11072, Pitch_bend_c, 8, 13664
8, 11073, Note_on_c, 8, 75, 0
8, 11073, Pitch_bend_c, 8, 13728
8, 11077, Pitch_bend_c, 8, 8192
8, 11078, Note_on_c, 8, 76, 85
8, 11078, Pitch_bend_c, 8, 9472
8, 11079, Pitch_bend_c, 8, 8064
8, 11081, Pitch_bend_c, 8, 7616
8, 11082, Pitch_bend_c, 8, 5120
8, 11083, Pitch_bend_c, 8, 4832
8, 11085, Pitch_bend_c, 8, 4480
8, 11086, Pitch_bend_c, 8, 4160
8, 11087, Pitch_bend_c, 8, 3840
8, 11089, Pitch_bend_c, 8, 3904
8, 11090, Pitch_bend_c, 8, 3936
8, 11093, Note_on_c, 8, 76, 0
8, 11093, Pitch_bend_c, 8, 4480
8, 11095, Pitch_bend_c, 8, 8192
8, 11096, Note_on_c, 8, 73, 83
8, 11096, Pitch_bend_c, 8, 8224
8, 11097, Pitch_bend_c, 8, 8352
8, 11098, Pitch_bend_c, 8, 8384
8, 11099, Pitch_bend_c, 8, 8416
8, 11100, Pitch_bend_c, 8, 8448
8, 11102, Pitch_bend_c, 8, 8544
8, 11103, Pitch_bend_c, 8, 8608
8, 11105, Note_on_c, 8, 73, 0
8, 11105, Pitch_bend_c, 8, 8864
8, 11108, Pitch_bend_c, 8, 8192
8, 11109, Note_on_c, 8, 70, 43
8, 11109, Pitch_bend_c, 8, 8416
8, 11110, Pitch_bend_c, 8, 8448
8, 11113, Pitch_bend_c, 8, 8416
8, 11114, Pitch_bend_c, 8, 8352
8, 11115, Pitch_bend_c, 8, 8320
8, 11117, Pitch_bend_c, 8, 8288
8, 11118, Pitch_bend_c, 8, 8256
8, 11120, Pitch_bend_c, 8, 8224
8, 11121, Pitch_bend_c, 8, 8192
8, 11127, Pitch_bend_c, 8, 8224
8, 11128, Pitch_bend_c, 8, 8448
8, 11130, Pitch_bend_c, 8, 8928
8, 11131, Pitch_bend_c, 8, 9568
8, 11132, Pitch_bend_c, 8, 10176
8, 11134, Pitch_bend_c, 8, 10496
8, 11135, Pitch_bend_c, 8, 10272
8, 11136, Pitch_bend_c, 8, 9664
8, 11138, Pitch_bend_c, 8, 9024
8, 11139, Pitch_bend_c, 8, 8416
8, 11141, Pitch_bend_c, 8, 8128
8, 11142, Pitch_bend_c, 8, 8096
8, 11144, Pitch_bend_c, 8, 8160
8, 11145, Pitch_bend_c, 8, 8384
8, 11146, Pitch_bend_c, 8, 8896
8, 11148, Pitch_bend_c, 8, 9568
8, 11149, Pitch_bend_c, 8, 10176
8, 11151, Pitch_bend_c, 8, 10496
8, 11152, Pitch_bend_c, 8, 10304
8, 11153, Pitch_bend_c, 8, 9760
8, 11155, Pitch_bend_c, 8, 9088
8, 11156, Pitch_bend_c, 8, 8480
8, 11158, Pitch_bend_c, 8, 8160
8, 11159, Pitch_bend_c, 8, 8000
8, 11162, Pitch_bend_c, 8, 8032
8, 11165, Note_on_c, 8, 70, 0
8, 11165, Pitch_bend_c, 8, 9088
8, 11848, Pitch_bend_c, 8, 8192
8, 11849, Note_on_c, 8, 67, 89
8, 11849, Pitch_bend_c, 8, 8672
8, 11850, Pitch_bend_c, 8, 8640
8, 11851, Pitch_bend_c, 8, 8192
8, 11851, Note_on_c, 8, 70, 87
8, 11866, Note_on_c, 8, 67, 0
8, 11866, Pitch_bend_c, 8, 7808
8, 11867, Pitch_bend_c, 8, 7520
8, 11868, Note_on_c, 8, 70, 0
8, 11870, Pitch_bend_c, 8, 8192
8, 11871, Note_on_c, 8, 70, 81
8, 11871, Pitch_bend_c, 8, 7872
8, 11872, Pitch_bend_c, 8, 7840
8, 11875, Pitch_bend_c, 8, 7872
8, 11879, Pitch_bend_c, 8, 7840
8, 11882, Pitch_bend_c, 8, 7808
8, 11885, Pitch_bend_c, 8, 7936
8, 11886, Note_on_c, 8, 70, 0
8, 11888, Pitch_bend_c, 8, 8192
8, 11889, Note_on_c, 8, 73, 87
8, 11889, Pitch_bend_c, 8, 8288
8, 11892, Pitch_bend_c, 8, 8256
8, 11893, Pitch_bend_c, 8, 8192
8, 11894, Pitch_bend_c, 8, 8160
8, 11895, Pitch_bend_c, 8, 8128
8, 11901, Pitch_bend_c, 8, 8064
8, 11904, Note_on_c, 8, 73, 0
8, 11904, Pitch_bend_c, 8, 8256
8, 11910, Pitch_bend_c, 8, 8192
8, 11913, Note_on_c, 8, 76, 89
8, 11914, Pitch_bend_c, 8, 8128
8, 11915, Pitch_bend_c, 8, 8064
8, 11916, Pitch_bend_c, 8, 8128
8, 11921, Pitch_bend_c, 8, 8064
8, 11923, Pitch_bend_c, 8, 8384
8, 11925, Pitch_bend_c, 8, 10912
8, 11926, Pitch_bend_c, 8, 11200
8, 11927, Pitch_bend_c, 8, 11648
8, 11929, Pitch_bend_c, 8, 12064
8, 11930, Pitch_bend_c, 8, 12576
8, 11932, Note_on_c, 8, 76, 0
8, 11932, Pitch_bend_c, 8, 12736
8, 11946, Pitch_bend_c, 8, 8192
8, 11947, Note_on_c, 8, 73, 85
8, 11947, Pitch_bend_c, 8, 8416
8, 11948, Pitch_bend_c, 8, 8352
8, 11950, Pitch_bend_c, 8, 8384
8, 11951, Pitch_bend_c, 8, 8416
8, 11952, Pitch_bend_c, 8, 8384
8, 11955, Pitch_bend_c, 8, 8352
8, 11957, Pitch_bend_c, 8, 8256
8, 11959, Pitch_bend_c, 8, 8224
8, 11961, Pitch_bend_c, 8, 8192
8, 11964, Pitch_bend_c, 8, 8160
8, 11967, Pitch_bend_c, 8, 8128
8, 11971, Pitch_bend_c, 8, 8160
8, 11972, Pitch_bend_c, 8, 8192
8, 11973, Pitch_bend_c, 8, 8256
8, 11975, Pitch_bend_c, 8, 8288
8, 11976, Note_on_c, 8, 73, 0
8, 11978, Pitch_bend_c, 8, 8192
8, 11979, Note_on_c, 8, 70, 50
8, 11979, Pitch_bend_c, 8, 8064
8, 11980, Pitch_bend_c, 8, 8096
8, 11985, Pitch_bend_c, 8, 8064
8, 11988, Pitch_bend_c, 8, 8032
8, 11990, Note_on_c, 8, 70, 0
8, 11991, Pitch_bend_c, 8, 8192
8, 11992, Note_on_c, 8, 70, 68
8, 11993, Pitch_bend_c, 8, 8160
8, 11995, Pitch_bend_c, 8, 8256
8, 11996, Pitch_bend_c, 8, 8480
8, 11998, Pitch_bend_c, 8, 8768
8, 11999, Pitch_bend_c, 8, 9056
8, 12000, Pitch_bend_c, 8, 9184
8, 12002, Pitch_bend_c, 8, 9024
8, 12003, Pitch_bend_c, 8, 8640
8, 12004, Pitch_bend_c, 8, 8320
8, 12006, Pitch_bend_c, 8, 8000
8, 12007, Pitch_bend_c, 8, 7872
8, 12009, Pitch_bend_c, 8, 7936
8, 12010, Pitch_bend_c, 8, 8256
8, 12012, Pitch_bend_c, 8, 8800
8, 12013, Pitch_bend_c, 8, 9440
8, 12014, Pitch_bend_c, 8, 9952
8, 12016, Pitch_bend_c, 8, 10048
8, 12017, Pitch_bend_c, 8, 9792
8, 12018, Pitch_bend_c, 8, 9440
8, 12020, Pitch_bend_c, 8, 9056
8, 12021, Pitch_bend_c, 8, 8704
8, 12023, Pitch_bend_c, 8, 8544
8, 12024, Pitch_bend_c, 8, 8416
8, 12026, Pitch_bend_c, 8, 8320
8, 12027, Pitch_bend_c, 8, 8224
8, 12028, Pitch_bend_c, 8, 8192
8, 12030, Pitch_bend_c, 8, 8128
8, 12031, Pitch_bend_c, 8, 8096
8, 12034, Pitch_bend_c, 8, 8064
8, 12037, Pitch_bend_c, 8, 8032
8, 12039, Pitch_bend_c, 8, 8000
8, 12041, Pitch_bend_c, 8, 8128
8, 12042, Note_on_c, 8, 70, 0
8, 12047, Note_on_c, 8, 67, 14
8, 12047, Pitch_bend_c, 8, 8192
8, 12051, Pitch_bend_c, 8, 8128
8, 12053, Pitch_bend_c, 8, 8096
8, 12056, Pitch_bend_c, 8, 8160
8, 12057, Pitch_bend_c, 8, 8064
8, 12059, Note_on_c, 8, 67, 0
8, 12059, Pitch_bend_c, 8, 8128
8, 12061, Pitch_bend_c, 8, 8192
8, 12062, Note_on_c, 8, 70, 80
8, 12062, Pitch_bend_c, 8, 8128
8, 12065, Pitch_bend_c, 8, 8160
8, 12067, Pitch_bend_c, 8, 8192
8, 12070, Pitch_bend_c, 8, 8224
8, 12071, Pitch_bend_c, 8, 8256
8, 12072, Pitch_bend_c, 8, 8288
8, 12074, Note_on_c, 8, 70, 0
8, 12075, Pitch_bend_c, 8, 8192
8, 12076, Note_on_c, 8, 72, 85
8, 12077, Pitch_bend_c, 8, 8544
8, 12078, Pitch_bend_c, 8, 8320
8, 12079, Pitch_bend_c, 8, 8288
8, 12080, Pitch_bend_c, 8, 8352
8, 12082, Pitch_bend_c, 8, 8480
8, 12083, Pitch_bend_c, 8, 8416
8, 12086, Pitch_bend_c, 8, 8352
8, 12087, Pitch_bend_c, 8, 8256
8, 12090, Pitch_bend_c, 8, 8288
8, 12091, Pitch_bend_c, 8, 8480
8, 12092, Note_on_c, 8, 72, 0
8, 12097, Note_on_c, 8, 72, 84
8, 12098, Pitch_bend_c, 8, 8448
8, 12099, Pitch_bend_c, 8, 8480
8, 12102, Pitch_bend_c, 8, 8448
8, 12103, Pitch_bend_c, 8, 8416
8, 12104, Pitch_bend_c, 8, 8320
8, 12108, Pitch_bend_c, 8, 8288
8, 12110, Pitch_bend_c, 8, 8352
8, 12111, Pitch_bend_c, 8, 8448
8, 12113, Pitch_bend_c, 8, 8512
8, 12114, Pitch_bend_c, 8, 8640
8, 12115, Pitch_bend_c, 8, 8736
8, 12117, Pitch_bend_c, 8, 8832
8, 12118, Pitch_bend_c, 8, 8928
8, 12119, Pitch_bend_c, 8, 9056
8, 12121, Pitch_bend_c, 8, 9088
8, 12122, Pitch_bend_c, 8, 9152
8, 12124, Pitch_bend_c, 8, 9216
8, 12125, Pitch_bend_c, 8, 9248
8, 12127, Pitch_bend_c, 8, 9280
8, 12128, Pitch_bend_c, 8, 9312
8, 12129, Pitch_bend_c, 8, 9408
8, 12131, Pitch_bend_c, 8, 9472
8, 12132, Pitch_bend_c, 8, 9536
8, 12134, Pitch_bend_c, 8, 9632
8, 12135, Pitch_bend_c, 8, 9664
8, 12137, Pitch_bend_c, 8, 9696
8, 12139, Pitch_bend_c, 8, 9728
8, 12141, Pitch_bend_c, 8, 9856
8, 12142, Pitch_bend_c, 8, 10016
8, 12144, Pitch_bend_c, 8, 10208
8, 12145, Pitch_bend_c, 8, 10400
8, 12147, Pitch_bend_c, 8, 10592
8, 12148, Pitch_bend_c, 8, 10720
8, 12149, Pitch_bend_c, 8, 10880
8, 12151, Pitch_bend_c, 8, 11040
8, 12152, Pitch_bend_c, 8, 11104
8, 12154, Pitch_bend_c, 8, 11136
8, 12155, Pitch_bend_c, 8, 11104
8, 12156, Pitch_bend_c, 8, 10944
8, 12158, Pitch_bend_c, 8, 10592
8, 12159, Pitch_bend_c, 8, 10112
8, 12160, Pitch_bend_c, 8, 9664
8, 12162, Pitch_bend_c, 8, 9408
8, 12163, Pitch_bend_c, 8, 9440
8, 12165, Pitch_bend_c, 8, 9888
8, 12166, Pitch_bend_c, 8, 10528
8, 12168, Pitch_bend_c, 8, 11264
8, 12169, Pitch_bend_c, 8, 12000
8, 12170, Pitch_bend_c, 8, 12480
8, 12172, Pitch_bend_c, 8, 12768
8, 12173, Pitch_bend_c, 8, 12832
8, 12174, Pitch_bend_c, 8, 12544
8, 12176, Pitch_bend_c, 8, 10208
8, 12177, Pitch_bend_c, 8, 10048
8, 12178, Pitch_bend_c, 8, 9952
8, 12181, Pitch_bend_c, 8, 10272
8, 12183, Pitch_bend_c, 8, 10944
8, 12184, Pitch_bend_c, 8, 11712
8, 12186, Pitch_bend_c, 8, 12480
8, 12187, Pitch_bend_c, 8, 12960
8, 12188, Pitch_bend_c, 8, 13216
8, 12190, Pitch_bend_c, 8, 12992
8, 12191, Pitch_bend_c, 8, 10656
8, 12193, Pitch_bend_c, 8, 10336
8, 12194, Pitch_bend_c, 8, 9824
8, 12196, Pitch_bend_c, 8, 9280
8, 12197, Pitch_bend_c, 8, 8736
8, 12198, Note_on_c, 8, 72, 0
8, 12198, Pitch_bend_c, 8, 10656
8, 12577, Pitch_bend_c, 8, 8192
8, 12583, Note_on_c, 8, 77, 90
8, 12583, Pitch_bend_c, 8, 8384
8, 12587, Pitch_bend_c, 8, 8416
8, 12589, Pitch_bend_c, 8, 8544
8, 12590, Pitch_bend_c, 8, 8672
8, 12591, Pitch_bend_c, 8, 8832
8, 12593, Pitch_bend_c, 8, 8992
8, 12594, Pitch_bend_c, 8, 9248
8, 12595, Pitch_bend_c, 8, 9536
8, 12597, Pitch_bend_c, 8, 9920
8, 12598, Pitch_bend_c, 8, 10400
8, 12600, Pitch_bend_c, 8, 10880
8, 12601, Pitch_bend_c, 8, 11392
8, 12603, Pitch_bend_c, 8, 11744
8, 12604, Pitch_bend_c, 8, 11936
8, 12605, Pitch_bend_c, 8, 12000
8, 12607, Note_on_c, 8, 77, 0
8, 12610, Note_on_c, 8, 77, 89
8, 12610, Pitch_bend_c, 8, 8416
8, 12616, Pitch_bend_c, 8, 8384
8, 12619, Pitch_bend_c, 8, 8320
8, 12625, Pitch_bend_c, 8, 8288
8, 12626, Note_on_c, 8, 77, 0
8, 12632, Pitch_bend_c, 8, 8192
8, 12633, Note_on_c, 8, 75, 86
8, 12633, Pitch_bend_c, 8, 8352
8, 12634, Pitch_bend_c, 8, 8448
8, 12643, Pitch_bend_c, 8, 8416
8, 12645, Note_on_c, 8, 75, 0
8, 12645, Pitch_bend_c, 8, 8352
8, 12651, Note_on_c, 8, 76, 85
8, 12651, Pitch_bend_c, 8, 12576
8, 12653, Pitch_bend_c, 8, 12480
8, 12663, Note_on_c, 8, 76, 0
8, 12663, Pitch_bend_c, 8, 12512
8, 12673, Note_on_c, 8, 72, 84
8, 12673, Pitch_bend_c, 8, 8544
8, 12676, Pitch_bend_c, 8, 8480
8, 12678, Pitch_bend_c, 8, 8448
8, 12679, Pitch_bend_c, 8, 8352
8, 12684, Pitch_bend_c, 8, 8608
8, 12685, Pitch_bend_c, 8, 12096
8, 12686, Pitch_bend_c, 8, 12128
8, 12689, Pitch_bend_c, 8, 12192
8, 12691, Pitch_bend_c, 8, 12224
8, 12692, Pitch_bend_c, 8, 12320
8, 12693, Pitch_bend_c, 8, 8160
8, 12695, Pitch_bend_c, 8, 8192
8, 12699, Pitch_bend_c, 8, 8288
8, 12700, Pitch_bend_c, 8, 8416
8, 12702, Note_on_c, 8, 72, 0
8, 12702, Note_on_c, 8, 69, 58
8, 12702, Pitch_bend_c, 8, 12096
8, 12703, Pitch_bend_c, 8, 12224
8, 12712, Pitch_bend_c, 8, 12256
8, 12713, Pitch_bend_c, 8, 12288
8, 12715, Note_on_c, 8, 69, 0
8, 12715, Pitch_bend_c, 8, 8192
8, 12716, Note_on_c, 8, 71, 82
8, 12717, Pitch_bend_c, 8, 12512
8, 12718, Pitch_bend_c, 8, 12416
8, 12720, Pitch_bend_c, 8, 12448
8, 12723, Pitch_bend_c, 8, 12512
8, 12725, Pitch_bend_c, 8, 12448
8, 12726, Pitch_bend_c, 8, 12416
8, 12728, Pitch_bend_c, 8, 12352
8, 12729, Pitch_bend_c, 8, 12288
8, 12733, Pitch_bend_c, 8, 12320
8, 12734, Note_on_c, 8, 71, 0
8, 12734, Pitch_bend_c, 8, 12448
8, 12736, Pitch_bend_c, 8, 8192
8, 12737, Note_on_c, 8, 67, 35
8, 12737, Pitch_bend_c, 8, 8160
8, 12738, Pitch_bend_c, 8, 8192
8, 12744, Pitch_bend_c, 8, 8160
8, 12745, Pitch_bend_c, 8, 8128
8, 12747, Pitch_bend_c, 8, 8096
8, 12749, Pitch_bend_c, 8, 8064
8, 12751, Pitch_bend_c, 8, 8096
8, 12752, Pitch_bend_c, 8, 8192
8, 12753, Note_on_c, 8, 67, 0
8, 12755, Note_on_c, 8, 70, 85
8, 12755, Pitch_bend_c, 8, 8160
8, 12756, Pitch_bend_c, 8, 8128
8, 12760, Pitch_bend_c, 8, 8160
8, 12763, Pitch_bend_c, 8, 8224
8, 12764, Pitch_bend_c, 8, 8416
8, 12766, Pitch_bend_c, 8, 8800
8, 12767, Pitch_bend_c, 8, 9248
8, 12768, Pitch_bend_c, 8, 9696
8, 12770, Pitch_bend_c, 8, 9952
8, 12773, Pitch_bend_c, 8, 9568
8, 12774, Pitch_bend_c, 8, 9024
8, 12776, Pitch_bend_c, 8, 8512
8, 12777, Pitch_bend_c, 8, 8128
8, 12778, Pitch_bend_c, 8, 8000
8, 12780, Pitch_bend_c, 8, 8064
8, 12781, Pitch_bend_c, 8, 8256
8, 12783, Pitch_bend_c, 8, 8608
8, 12784, Pitch_bend_c, 8, 9024
8, 12785, Pitch_bend_c, 8, 9344
8, 12787, Pitch_bend_c, 8, 9408
8, 12788, Pitch_bend_c, 8, 9248
8, 12789, Pitch_bend_c, 8, 9024
8, 12791, Pitch_bend_c, 8, 8800
8, 12792, Note_on_c, 8, 70, 0
8, 12792, Pitch_bend_c, 8, 9344
8, 12794, Pitch_bend_c, 8, 8192
8, 12795, Note_on_c, 8, 73, 78
8, 12795, Pitch_bend_c, 8, 8544
8, 12798, Pitch_bend_c, 8, 8512
8, 12799, Pitch_bend_c, 8, 8448
8, 12800, Pitch_bend_c, 8, 8416
8, 12802, Pitch_bend_c, 8, 8352
8, 12803, Pitch_bend_c, 8, 8256
8, 12805, Pitch_bend_c, 8, 8192
8, 12806, Pitch_bend_c, 8, 8160
8, 12809, Pitch_bend_c, 8, 8192
8, 12814, Pitch_bend_c, 8, 8160
8, 12818, Pitch_bend_c, 8, 8128
8, 12819, Pitch_bend_c, 8, 8064
8, 12820, Pitch_bend_c, 8, 8032
8, 12827, Pitch_bend_c, 8, 8064
8, 12829, Pitch_bend_c, 8, 8160
8, 12830, Pitch_bend_c, 8, 8224
8, 12831, Pitch_bend_c, 8, 8416
8, 12833, Pitch_bend_c, 8, 8768
8, 12834, Pitch_bend_c, 8, 9376
8, 12835, Pitch_bend_c, 8, 10144
8, 12837, Pitch_bend_c, 8, 10976
8, 12838, Pitch_bend_c, 8, 11616
8, 12840, Pitch_bend_c, 8, 11968
8, 12841, Note_on_c, 8, 73, 0
8, 12905, Pitch_bend_c, 8, 8192
8, 12906, Note_on_c, 8, 70, 89
8, 12906, Pitch_bend_c, 8, 8384
8, 12912, Pitch_bend_c, 8, 8416
8, 12915, Pitch_bend_c, 8, 8448
8, 12917, Pitch_bend_c, 8, 8512
8, 12918, Note_on_c, 8, 70, 0
8, 12918, Pitch_bend_c, 8, 8544
8, 12921, Pitch_bend_c, 8, 8192
8, 12922, Note_on_c, 8, 65, 82
8, 12922, Pitch_bend_c, 8, 8640
8, 12923, Pitch_bend_c, 8, 8608
8, 12924, Pitch_bend_c, 8, 8576
8, 12929, Pitch_bend_c, 8, 8544
8, 12931, Pitch_bend_c, 8, 8480
8, 12932, Pitch_bend_c, 8, 8096
8, 12934, Note_on_c, 8, 65, 0
8, 12934, Pitch_bend_c, 8, 8576
8, 12940, Pitch_bend_c, 8, 8192
8, 12941, Note_on_c, 8, 63, 51
8, 12942, Pitch_bend_c, 8, 8032
8, 12943, Pitch_bend_c, 8, 8064
8, 12947, Pitch_bend_c, 8, 8096
8, 12948, Pitch_bend_c, 8, 8128
8, 12952, Pitch_bend_c, 8, 8032
8, 12953, Note_on_c, 8, 63, 0
8, 12953, Pitch_bend_c, 8, 8064
8, 12957, Pitch_bend_c, 8, 8192
8, 12958, Note_on_c, 8, 65, 91
8, 12958, Pitch_bend_c, 8, 8160
8, 12963, Pitch_bend_c, 8, 8128
8, 12965, Pitch_bend_c, 8, 8096
8, 12969, Pitch_bend_c, 8, 8064
8, 12970, Pitch_bend_c, 8, 8000
8, 12971, Note_on_c, 8, 65, 0
8, 12971, Pitch_bend_c, 8, 8160
8, 12979, Pitch_bend_c, 8, 8192
8, 12980, Note_on_c, 8, 61, 44
8, 12981, Pitch_bend_c, 8, 8160
8, 12983, Pitch_bend_c, 8, 8192
8, 12984, Pitch_bend_c, 8, 8224
8, 12991, Pitch_bend_c, 8, 8192
8, 13001, Pitch_bend_c, 8, 8224
8, 13002, Pitch_bend_c, 8, 8256
8, 13004, Pitch_bend_c, 8, 8288
8, 13006, Pitch_bend_c, 8, 8352
8, 13007, Pitch_bend_c, 8, 8384
8, 13008, Pitch_bend_c, 8, 8448
8, 13010, Pitch_bend_c, 8, 8544
8, 13011, Pitch_bend_c, 8, 8672
8, 13012, Pitch_bend_c, 8, 8800
8, 13014, Pitch_bend_c, 8, 8992
8, 13015, Pitch_bend_c, 8, 9248
8, 13017, Note_on_c, 8, 61, 0
8, 13017, Pitch_bend_c, 8, 9472
8, 13384, Pitch_bend_c, 8, 8192
8, 13385, Note_on_c, 8, 67, 99
8, 13385, Pitch_bend_c, 8, 8256
8, 13387, Pitch_bend_c, 8, 8192
8, 13387, Note_on_c, 8, 70, 99
8, 13405, Note_on_c, 8, 70, 0
8, 13406, Note_on_c, 8, 70, 86
8, 13412, Note_on_c, 8, 67, 0
8, 13415, Pitch_bend_c, 8, 7968
8, 13416, Pitch_bend_c, 8, 7936
8, 13417, Pitch_bend_c, 8, 7712
8, 13418, Pitch_bend_c, 8, 7488
8, 13419, Note_on_c, 8, 70, 0
8, 13425, Pitch_bend_c, 8, 8192
8, 13426, Note_on_c, 8, 73, 89
8, 13426, Pitch_bend_c, 8, 8512
8, 13429, Pitch_bend_c, 8, 8416
8, 13431, Pitch_bend_c, 8, 8288
8, 13432, Pitch_bend_c, 8, 8160
8, 13434, Pitch_bend_c, 8, 8064
8, 13435, Pitch_bend_c, 8, 8032
8, 13436, Pitch_bend_c, 8, 8288
8, 13437, Note_on_c, 8, 73, 0
8, 13451, Pitch_bend_c, 8, 8192
8, 13452, Note_on_c, 8, 75, 89
8, 13452, Pitch_bend_c, 8, 8320
8, 13455, Pitch_bend_c, 8, 8224
8, 13458, Pitch_bend_c, 8, 8320
8, 13459, Pitch_bend_c, 8, 8256
8, 13461, Pitch_bend_c, 8, 8544
8, 13462, Pitch_bend_c, 8, 9088
8, 13463, Pitch_bend_c, 8, 11552
8, 13465, Pitch_bend_c, 8, 11872
8, 13466, Pitch_bend_c, 8, 12416
8, 13468, Pitch_bend_c, 8, 14880
8, 13469, Pitch_bend_c, 8, 15072
8, 13470, Pitch_bend_c, 8, 15264
8, 13472, Pitch_bend_c, 8, 15552
8, 13473, Pitch_bend_c, 8, 15840
8, 13475, Pitch_bend_c, 8, 15968
8, 13476, Pitch_bend_c, 8, 16032
8, 13478, Pitch_bend_c, 8, 16064
8, 13479, Pitch_bend_c, 8, 16032
8, 13482, Pitch_bend_c, 8, 15968
8, 13483, Pitch_bend_c, 8, 15936
8, 13484, Pitch_bend_c, 8, 15872
8, 13486, Pitch_bend_c, 8, 15840
8, 13491, Pitch_bend_c, 8, 15776
8, 13493, Pitch_bend_c, 8, 15744
8, 13495, Pitch_bend_c, 8, 15680
8, 13499, Pitch_bend_c, 8, 15648
8, 13500, Pitch_bend_c, 8, 15584
8, 13501, Pitch_bend_c, 8, 15456
8, 13503, Pitch_bend_c, 8, 15200
8, 13504, Pitch_bend_c, 8, 11648
8, 13505, Pitch_bend_c, 8, 8896
8, 13507, Pitch_bend_c, 8, 8640
8, 13508, Pitch_bend_c, 8, 8352
8, 13510, Pitch_bend_c, 8, 8064
8, 13511, Pitch_bend_c, 8, 7904
8, 13512, Note_on_c, 8, 75, 0
8, 13512, Pitch_bend_c, 8, 8896
8, 13514, Pitch_bend_c, 8, 8192
8, 13515, Note_on_c, 8, 73, 84
8, 13515, Pitch_bend_c, 8, 8416
8, 13516, Pitch_bend_c, 8, 8224
8, 13517, Pitch_bend_c, 8, 8256
8, 13519, Pitch_bend_c, 8, 8352
8, 13520, Pitch_bend_c, 8, 8384
8, 13523, Note_on_c, 8, 73, 0
8, 13524, Pitch_bend_c, 8, 8192
8, 13525, Note_on_c, 8, 70, 76
8, 13532, Pitch_bend_c, 8, 8128
8, 13533, Pitch_bend_c, 8, 8032
8, 13534, Pitch_bend_c, 8, 7904
8, 13536, Pitch_bend_c, 8, 7840
8, 13537, Pitch_bend_c, 8, 7776
8, 13540, Pitch_bend_c, 8, 7872
8, 13541, Pitch_bend_c, 8, 8128
8, 13543, Pitch_bend_c, 8, 8576
8, 13544, Pitch_bend_c, 8, 9152
8, 13545, Pitch_bend_c, 8, 9632
8, 13547, Pitch_bend_c, 8, 9920
8, 13550, Pitch_bend_c, 8, 9792
8, 13551, Pitch_bend_c, 8, 9632
8, 13553, Pitch_bend_c, 8, 9440
8, 13554, Pitch_bend_c, 8, 9248
8, 13555, Pitch_bend_c, 8, 9088
8, 13557, Pitch_bend_c, 8, 8960
8, 13558, Pitch_bend_c, 8, 8864
8, 13559, Pitch_bend_c, 8, 8768
8, 13561, Pitch_bend_c, 8, 8608
8, 13562, Pitch_bend_c, 8, 8480
8, 13564, Pitch_bend_c, 8, 8320
8, 13565, Pitch_bend_c, 8, 8192
8, 13567, Note_on_c, 8, 70, 0
8, 13567, Note_on_c, 8, 73, 93
8, 13567, Pitch_bend_c, 8, 8000
8, 13568, Pitch_bend_c, 8, 8160
8, 13571, Pitch_bend_c, 8, 8128
8, 13573, Pitch_bend_c, 8, 8032
8, 13574, Pitch_bend_c, 8, 7968
8, 13575, Pitch_bend_c, 8, 7872
8, 13577, Pitch_bend_c, 8, 7808
8, 13578, Pitch_bend_c, 8, 7936
8, 13579, Pitch_bend_c, 8, 8192
8, 13582, Pitch_bend_c, 8, 9472
8, 13584, Pitch_bend_c, 8, 10240
8, 13585, Pitch_bend_c, 8, 10880
8, 13586, Pitch_bend_c, 8, 11360
8, 13588, Pitch_bend_c, 8, 11552
8, 13589, Pitch_bend_c, 8, 11648
8, 13590, Note_on_c, 8, 73, 0
8, 14084, Pitch_bend_c, 8, 8192
8, 14085, Note_on_c, 8, 63, 89
8, 14085, Pitch_bend_c, 8, 8256
8, 14088, Pitch_bend_c, 8, 8288
8, 14089, Pitch_bend_c, 8, 8320
8, 14091, Pitch_bend_c, 8, 8384
8, 14092, Pitch_bend_c, 8, 8480
8, 14094, Pitch_bend_c, 8, 8768
8, 14095, Pitch_bend_c, 8, 9248
8, 14096, Pitch_bend_c, 8, 9824
8, 14098, Pitch_bend_c, 8, 10368
8, 14099, Pitch_bend_c, 8, 10752
8, 14101, Note_on_c, 8, 63, 0
8, 14101, Pitch_bend_c, 8, 10912
8, 14114, Pitch_bend_c, 8, 8192
8, 14115, Note_on_c, 8, 61, 87
8, 14115, Pitch_bend_c, 8, 8064
8, 14118, Pitch_bend_c, 8, 8032
8, 14121, Pitch_bend_c, 8, 8000
8, 14124, Pitch_bend_c, 8, 8032
8, 14125, Pitch_bend_c, 8, 8064
8, 14126, Note_on_c, 8, 61, 0
8, 14129, Pitch_bend_c, 8, 8192
8, 14130, Note_on_c, 8, 58, 69
8, 14139, Pitch_bend_c, 8, 8224
8, 14142, Pitch_bend_c, 8, 8192
8, 14155, Note_on_c, 8, 58, 0
8, 14155, Pitch_bend_c, 8, 8224
8, 14157, Pitch_bend_c, 8, 8192
8, 14158, Note_on_c, 8, 61, 82
8, 14158, Pitch_bend_c, 8, 7936
8, 14159, Pitch_bend_c, 8, 7904
8, 14160, Pitch_bend_c, 8, 7872
8, 14164, Pitch_bend_c, 8, 7904
8, 14165, Pitch_bend_c, 8, 7936
8, 14167, Pitch_bend_c, 8, 7968
8, 14168, Pitch_bend_c, 8, 8000
8, 14170, Note_on_c, 8, 61, 0
8, 14170, Note_on_c, 8, 63, 83
8, 14170, Pitch_bend_c, 8, 7968
8, 14171, Pitch_bend_c, 8, 8000
8, 14178, Pitch_bend_c, 8, 7968
8, 14180, Pitch_bend_c, 8, 7936
8, 14183, Pitch_bend_c, 8, 7872
8, 14184, Pitch_bend_c, 8, 7808
8, 14185, Note_on_c, 8, 63, 0
8, 14185, Pitch_bend_c, 8, 7968
8, 14197, Note_on_c, 8, 61, 91
8, 14197, Pitch_bend_c, 8, 8288
8, 14198, Pitch_bend_c, 8, 8064
8, 14199, Pitch_bend_c, 8, 8128
8, 14202, Pitch_bend_c, 8, 8160
8, 14205, Pitch_bend_c, 8, 8128
8, 14208, Pitch_bend_c, 8, 8064
8, 14210, Pitch_bend_c, 8, 8032
8, 14214, Pitch_bend_c, 8, 8064
8, 14216, Pitch_bend_c, 8, 8128
8, 14217, Pitch_bend_c, 8, 8288
8, 14219, Pitch_bend_c, 8, 8576
8, 14220, Pitch_bend_c, 8, 8992
8, 14221, Pitch_bend_c, 8, 9536
8, 14223, Pitch_bend_c, 8, 10016
8, 14224, Pitch_bend_c, 8, 10368
8, 14226, Pitch_bend_c, 8, 10528
8, 14227, Pitch_bend_c, 8, 10432
8, 14229, Pitch_bend_c, 8, 10080
8, 14230, Pitch_bend_c, 8, 9568
8, 14231, Pitch_bend_c, 8, 9056
8, 14232, Pitch_bend_c, 8, 10528
8, 14233, Note_on_c, 8, 61, 0
8, 14233, Note_on_c, 8, 58, 72
8, 14233, Pitch_bend_c, 8, 8224
8, 14239, Pitch_bend_c, 8, 8128
8, 14241, Note_on_c, 8, 58, 0
8, 14241, Pitch_bend_c, 8, 8192
8, 14242, Note_on_c, 8, 56, 66
8, 14242, Pitch_bend_c, 8, 8224
8, 14243, Pitch_bend_c, 8, 8192
8, 14245, Note_on_c, 8, 45, 18
8, 14247, Note_on_c, 8, 45, 0
8, 14247, Pitch_bend_c, 8, 8224
8, 14249, Pitch_bend_c, 8, 8320
8, 14250, Pitch_bend_c, 8, 8192
8, 14251, Note_on_c, 8, 56, 0
8, 14251, Note_on_c, 8, 53, 78
8, 14251, Pitch_bend_c, 8, 8000
8, 14254, Pitch_bend_c, 8, 8032
8, 14256, Pitch_bend_c, 8, 8064
8, 14257, Pitch_bend_c, 8, 8032
8, 14258, Pitch_bend_c, 8, 8000
8, 14267, Pitch_bend_c, 8, 7968
8, 14269, Pitch_bend_c, 8, 8000
8, 14274, Pitch_bend_c, 8, 7968
8, 14275, Pitch_bend_c, 8, 7936
8, 14277, Pitch_bend_c, 8, 7904
8, 14280, Pitch_bend_c, 8, 7872
8, 14284, Pitch_bend_c, 8, 7840
8, 14287, Pitch_bend_c, 8, 7808
8, 14292, Pitch_bend_c, 8, 7264
8, 14293, Note_on_c, 8, 53, 0
8, 14342, Pitch_bend_c, 8, 8192
8, 14343, Note_on_c, 8, 58, 100
8, 14344, Pitch_bend_c, 8, 7648
8, 14345, Pitch_bend_c, 8, 8192
8, 14345, Note_on_c, 8, 67, 102
8, 14345, Note_on_c, 8, 61, 102
8, 14365, Note_on_c, 8, 58, 0
8, 14366, Note_on_c, 8, 61, 0
8, 14367, Pitch_bend_c, 8, 7552
8, 14368, Note_on_c, 8, 67, 0
8, 14498, Pitch_bend_c, 8, 8192
8, 14499, Note_on_c, 8, 65, 84
8, 14499, Pitch_bend_c, 8, 8864
8, 14500, Pitch_bend_c, 8, 8928
8, 14502, Pitch_bend_c, 8, 8896
8, 14503, Pitch_bend_c, 8, 8864
8, 14505, Pitch_bend_c, 8, 8800
8, 14506, Pitch_bend_c, 8, 8768
8, 14508, Pitch_bend_c, 8, 8672
8, 14509, Pitch_bend_c, 8, 8608
8, 14510, Pitch_bend_c, 8, 8384
8, 14512, Note_on_c, 8, 65, 0
8, 14512, Pitch_bend_c, 8, 8768
8, 14533, Pitch_bend_c, 8, 8192
8, 14534, Note_on_c, 8, 70, 95
8, 14534, Pitch_bend_c, 8, 8320
8, 14535, Pitch_bend_c, 8, 8288
8, 14538, Pitch_bend_c, 8, 8320
8, 14539, Pitch_bend_c, 8, 8352
8, 14541, Pitch_bend_c, 8, 8320
8, 14542, Pitch_bend_c, 8, 8256
8, 14543, Pitch_bend_c, 8, 8192
8, 14545, Pitch_bend_c, 8, 8160
8, 14546, Pitch_bend_c, 8, 8064
8, 14548, Pitch_bend_c, 8, 8032
8, 14549, Pitch_bend_c, 8, 7968
8, 14551, Pitch_bend_c, 8, 7904
8, 14552, Pitch_bend_c, 8, 7872
8, 14555, Pitch_bend_c, 8, 7840
8, 14556, Pitch_bend_c, 8, 7872
8, 14559, Pitch_bend_c, 8, 8000
8, 14560, Pitch_bend_c, 8, 8352
8, 14562, Pitch_bend_c, 8, 8896
8, 14563, Pitch_bend_c, 8, 9536
8, 14565, Pitch_bend_c, 8, 10048
8, 14566, Pitch_bend_c, 8, 10272
8, 14569, Pitch_bend_c, 8, 9856
8, 14570, Pitch_bend_c, 8, 7680
8, 14571, Pitch_bend_c, 8, 7712
8, 14574, Pitch_bend_c, 8, 7680
8, 14576, Pitch_bend_c, 8, 7744
8, 14577, Pitch_bend_c, 8, 7808
8, 14578, Pitch_bend_c, 8, 8032
8, 14580, Pitch_bend_c, 8, 8416
8, 14581, Pitch_bend_c, 8, 8768
8, 14583, Pitch_bend_c, 8, 9024
8, 14584, Pitch_bend_c, 8, 8992
8, 14585, Pitch_bend_c, 8, 8640
8, 14587, Pitch_bend_c, 8, 8192
8, 14588, Pitch_bend_c, 8, 7904
8, 14590, Pitch_bend_c, 8, 7744
8, 14591, Pitch_bend_c, 8, 7712
8, 14592, Pitch_bend_c, 8, 7776
8, 14593, Note_on_c, 8, 70, 0
8, 14593, Pitch_bend_c, 8, 8192
8, 14597, Note_on_c, 8, 70, 90
8, 14597, Pitch_bend_c, 8, 8064
8, 14598, Pitch_bend_c, 8, 8256
8, 14600, Pitch_bend_c, 8, 8192
8, 14601, Pitch_bend_c, 8, 8096
8, 14604, Pitch_bend_c, 8, 8032
8, 14607, Pitch_bend_c, 8, 8000
8, 14609, Pitch_bend_c, 8, 7936
8, 14610, Pitch_bend_c, 8, 7840
8, 14611, Pitch_bend_c, 8, 7360
8, 14612, Note_on_c, 8, 70, 0
8, 14612, Pitch_bend_c, 8, 8032
8, 14629, Pitch_bend_c, 8, 8192
8, 14630, Note_on_c, 8, 75, 99
8, 14630, Pitch_bend_c, 8, 8576
8, 14631, Pitch_bend_c, 8, 8352
8, 14633, Pitch_bend_c, 8, 8416
8, 14634, Pitch_bend_c, 8, 8736
8, 14636, Pitch_bend_c, 8, 9184
8, 14637, Pitch_bend_c, 8, 9920
8, 14639, Pitch_bend_c, 8, 12288
8, 14640, Pitch_bend_c, 8, 12480
8, 14642, Pitch_bend_c, 8, 12864
8, 14643, Pitch_bend_c, 8, 13344
8, 14644, Pitch_bend_c, 8, 13952
8, 14646, Pitch_bend_c, 8, 14496
8, 14647, Pitch_bend_c, 8, 14880
8, 14648, Pitch_bend_c, 8, 15200
8, 14650, Pitch_bend_c, 8, 15456
8, 14651, Pitch_bend_c, 8, 15680
8, 14653, Pitch_bend_c, 8, 15840
8, 14654, Pitch_bend_c, 8, 15968
8, 14655, Pitch_bend_c, 8, 16032
8, 14657, Pitch_bend_c, 8, 16064
8, 14658, Pitch_bend_c, 8, 16128
8, 14661, Pitch_bend_c, 8, 16160
8, 14664, Pitch_bend_c, 8, 16224
8, 14665, Pitch_bend_c, 8, 16256
8, 14667, Pitch_bend_c, 8, 16320
8, 14669, Pitch_bend_c, 8, 16383
8, 14670, Note_on_c, 8, 75, 0
8, 14698, Pitch_bend_c, 8, 8192
8, 14699, Note_on_c, 8, 75, 91
8, 14699, Pitch_bend_c, 8, 9344
8, 14700, Pitch_bend_c, 8, 10048
8, 14701, Pitch_bend_c, 8, 10464
8, 14703, Pitch_bend_c, 8, 11040
8, 14704, Pitch_bend_c, 8, 13376
8, 14706, Pitch_bend_c, 8, 13568
8, 14707, Pitch_bend_c, 8, 13920
8, 14708, Pitch_bend_c, 8, 14304
8, 14710, Pitch_bend_c, 8, 14816
8, 14711, Pitch_bend_c, 8, 15200
8, 14712, Pitch_bend_c, 8, 15488
8, 14714, Pitch_bend_c, 8, 15744
8, 14715, Pitch_bend_c, 8, 15872
8, 14717, Pitch_bend_c, 8, 16032
8, 14718, Pitch_bend_c, 8, 16064
8, 14719, Pitch_bend_c, 8, 16160
8, 14721, Pitch_bend_c, 8, 16224
8, 14722, Pitch_bend_c, 8, 16256
8, 14724, Pitch_bend_c, 8, 16320
8, 14748, Pitch_bend_c, 8, 16256
8, 14749, Pitch_bend_c, 8, 16320
8, 14763, Pitch_bend_c, 8, 16256
8, 14783, Pitch_bend_c, 8, 16224
8, 14798, Pitch_bend_c, 8, 16160
8, 14803, Pitch_bend_c, 8, 16224
8, 14809, Pitch_bend_c, 8, 16160
8, 14827, Pitch_bend_c, 8, 16128
8, 14838, Pitch_bend_c, 8, 16064
8, 14857, Pitch_bend_c, 8, 16032
8, 14865, Pitch_bend_c, 8, 15968
8, 14867, Note_on_c, 8, 75, 0
8, 14867, Pitch_bend_c, 8, 16160
8, 14909, Pitch_bend_c, 8, 8192
8, 14909, Note_on_c, 8, 70, 82
8, 14910, Pitch_bend_c, 8, 8128
8, 14912, Pitch_bend_c, 8, 8160
8, 14913, Pitch_bend_c, 8, 8128
8, 14915, Pitch_bend_c, 8, 8096
8, 14916, Pitch_bend_c, 8, 8032
8, 14917, Pitch_bend_c, 8, 7936
8, 14919, Pitch_bend_c, 8, 7840
8, 14920, Pitch_bend_c, 8, 7776
8, 14922, Pitch_bend_c, 8, 8032
8, 14923, Note_on_c, 8, 70, 0
8, 14927, Pitch_bend_c, 8, 8192
8, 14928, Note_on_c, 8, 73, 89
8, 14928, Pitch_bend_c, 8, 8704
8, 14929, Pitch_bend_c, 8, 8384
8, 14933, Pitch_bend_c, 8, 8352
8, 14935, Pitch_bend_c, 8, 8256
8, 14939, Pitch_bend_c, 8, 8224
8, 14941, Pitch_bend_c, 8, 8192
8, 14943, Note_on_c, 8, 73, 0
8, 14943, Pitch_bend_c, 8, 8384
8, 14950, Pitch_bend_c, 8, 8192
8, 14951, Note_on_c, 8, 75, 89
8, 14951, Pitch_bend_c, 8, 8416
8, 14955, Pitch_bend_c, 8, 8352
8, 14956, Pitch_bend_c, 8, 8192
8, 14958, Pitch_bend_c, 8, 8064
8, 14962, Pitch_bend_c, 8, 8032
8, 14963, Pitch_bend_c, 8, 8416
8, 14964, Note_on_c, 8, 75, 0
8, 14973, Note_on_c, 8, 75, 89
8, 14973, Pitch_bend_c, 8, 8224
8, 14974, Pitch_bend_c, 8, 8192
8, 14975, Pitch_bend_c, 8, 8320
8, 14976, Pitch_bend_c, 8, 8224
8, 14978, Pitch_bend_c, 8, 8192
8, 14979, Pitch_bend_c, 8, 8160
8, 14984, Pitch_bend_c, 8, 8064
8, 14986, Pitch_bend_c, 8, 8032
8, 14988, Pitch_bend_c, 8, 8064
8, 14989, Pitch_bend_c, 8, 8160
8, 14991, Pitch_bend_c, 8, 8256
8, 14992, Pitch_bend_c, 8, 8480
8, 14993, Pitch_bend_c, 8, 8768
8, 14995, Pitch_bend_c, 8, 9216
8, 14996, Pitch_bend_c, 8, 9760
8, 14998, Pitch_bend_c, 8, 10400
8, 14999, Pitch_bend_c, 8, 11040
8, 15000, Pitch_bend_c, 8, 11552
8, 15002, Pitch_bend_c, 8, 11872
8, 15003, Pitch_bend_c, 8, 12000
8, 15004, Pitch_bend_c, 8, 12032
8, 15006, Pitch_bend_c, 8, 11808
8, 15007, Note_on_c, 8, 75, 0
8, 15007, Pitch_bend_c, 8, 11872
8, 15010, Pitch_bend_c, 8, 8192
8, 15011, Note_on_c, 8, 77, 85
8, 15011, Pitch_bend_c, 8, 8896
8, 15013, Pitch_bend_c, 8, 8832
8, 15015, Pitch_bend_c, 8, 8800
8, 15016, Pitch_bend_c, 8, 8736
8, 15019, Pitch_bend_c, 8, 8672
8, 15022, Pitch_bend_c, 8, 8736
8, 15026, Pitch_bend_c, 8, 8800
8, 15028, Pitch_bend_c, 8, 8832
8, 15030, Note_on_c, 8, 77, 0
8, 15033, Pitch_bend_c, 8, 8192
8, 15034, Note_on_c, 8, 73, 82
8, 15034, Pitch_bend_c, 8, 8128
8, 15038, Pitch_bend_c, 8, 8160
8, 15045, Pitch_bend_c, 8, 8128
8, 15051, Pitch_bend_c, 8, 8064
8, 15055, Pitch_bend_c, 8, 8032
8, 15056, Pitch_bend_c, 8, 8064
8, 15059, Pitch_bend_c, 8, 8032
8, 15060, Pitch_bend_c, 8, 8128
8, 15061, Note_on_c, 8, 73, 0
8, 15063, Pitch_bend_c, 8, 8192
8, 15064, Note_on_c, 8, 70, 53
8, 15064, Pitch_bend_c, 8, 8064
8, 15068, Pitch_bend_c, 8, 8032
8, 15070, Pitch_bend_c, 8, 7968
8, 15071, Pitch_bend_c, 8, 7936
8, 15073, Pitch_bend_c, 8, 7904
8, 15074, Pitch_bend_c, 8, 7872
8, 15075, Pitch_bend_c, 8, 7840
8, 15077, Pitch_bend_c, 8, 7744
8, 15079, Pitch_bend_c, 8, 7904
8, 15081, Pitch_bend_c, 8, 8256
8, 15082, Pitch_bend_c, 8, 8960
8, 15083, Pitch_bend_c, 8, 9696
8, 15085, Pitch_bend_c, 8, 10240
8, 15086, Pitch_bend_c, 8, 10624
8, 15088, Pitch_bend_c, 8, 10464
8, 15089, Pitch_bend_c, 8, 9888
8, 15090, Pitch_bend_c, 8, 7680
8, 15096, Pitch_bend_c, 8, 7648
8, 15098, Pitch_bend_c, 8, 7776
8, 15099, Pitch_bend_c, 8, 7936
8, 15100, Pitch_bend_c, 8, 8096
8, 15102, Pitch_bend_c, 8, 8192
8, 15104, Note_on_c, 8, 70, 0
8, 15115, Note_on_c, 8, 67, 39
8, 15115, Pitch_bend_c, 8, 8288
8, 15118, Pitch_bend_c, 8, 8320
8, 15119, Pitch_bend_c, 8, 8384
8, 15121, Pitch_bend_c, 8, 8416
8, 15122, Pitch_bend_c, 8, 8448
8, 15123, Pitch_bend_c, 8, 8416
8, 15126, Pitch_bend_c, 8, 8384
8, 15128, Pitch_bend_c, 8, 8352
8, 15130, Pitch_bend_c, 8, 8192
8, 15130, Note_on_c, 8, 70, 84
8, 15131, Note_on_c, 8, 67, 0
8, 15131, Pitch_bend_c, 8, 8096
8, 15132, Pitch_bend_c, 8, 8192
8, 15135, Pitch_bend_c, 8, 8160
8, 15136, Pitch_bend_c, 8, 8192
8, 15140, Pitch_bend_c, 8, 8224
8, 15145, Pitch_bend_c, 8, 8416
8, 15146, Note_on_c, 8, 70, 0
8, 15146, Pitch_bend_c, 8, 8640
8, 15153, Note_on_c, 8, 72, 83
8, 15153, Pitch_bend_c, 8, 8448
8, 15155, Pitch_bend_c, 8, 8416
8, 15157, Pitch_bend_c, 8, 8352
8, 15159, Pitch_bend_c, 8, 8320
8, 15161, Pitch_bend_c, 8, 8288
8, 15162, Pitch_bend_c, 8, 8320
8, 15164, Pitch_bend_c, 8, 8512
8, 15165, Pitch_bend_c, 8, 8864
8, 15167, Pitch_bend_c, 8, 9312
8, 15168, Pitch_bend_c, 8, 9824
8, 15169, Pitch_bend_c, 8, 10240
8, 15171, Pitch_bend_c, 8, 10496
8, 15172, Pitch_bend_c, 8, 10656
8, 15173, Pitch_bend_c, 8, 10688
8, 15175, Pitch_bend_c, 8, 10656
8, 15176, Note_on_c, 8, 72, 0
8, 15186, Note_on_c, 8, 72, 59
8, 15186, Pitch_bend_c, 8, 8192
8, 15187, Pitch_bend_c, 8, 8096
8, 15188, Pitch_bend_c, 8, 8128
8, 15191, Pitch_bend_c, 8, 8160
8, 15192, Pitch_bend_c, 8, 8192
8, 15193, Pitch_bend_c, 8, 8256
8, 15195, Pitch_bend_c, 8, 8448
8, 15196, Pitch_bend_c, 8, 8640
8, 15198, Pitch_bend_c, 8, 8832
8, 15199, Pitch_bend_c, 8, 8992
8, 15201, Pitch_bend_c, 8, 9088
8, 15202, Pitch_bend_c, 8, 9120
8, 15203, Pitch_bend_c, 8, 9152
8, 15206, Pitch_bend_c, 8, 9216
8, 15212, Pitch_bend_c, 8, 9248
8, 15213, Pitch_bend_c, 8, 9280
8, 15215, Pitch_bend_c, 8, 9344
8, 15216, Pitch_bend_c, 8, 9472
8, 15217, Pitch_bend_c, 8, 9632
8, 15219, Pitch_bend_c, 8, 9856
8, 15220, Pitch_bend_c, 8, 10048
8, 15221, Pitch_bend_c, 8, 10240
8, 15223, Pitch_bend_c, 8, 10400
8, 15224, Pitch_bend_c, 8, 10464
8, 15226, Pitch_bend_c, 8, 10496
8, 15228, Note_on_c, 8, 72, 0
8, 15232, Note_on_c, 8, 75, 82
8, 15232, Pitch_bend_c, 8, 7936
8, 15233, Pitch_bend_c, 8, 8000
8, 15234, Pitch_bend_c, 8, 8032
8, 15236, Pitch_bend_c, 8, 8000
8, 15237, Pitch_bend_c, 8, 7936
8, 15239, Pitch_bend_c, 8, 7904
8, 15241, Pitch_bend_c, 8, 7936
8, 15247, Pitch_bend_c, 8, 7904
8, 15248, Note_on_c, 8, 75, 0
8, 15248, Pitch_bend_c, 8, 8000
8, 15251, Note_on_c, 8, 77, 88
8, 15251, Pitch_bend_c, 8, 8928
8, 15252, Pitch_bend_c, 8, 8832
8, 15254, Pitch_bend_c, 8, 8896
8, 15256, Pitch_bend_c, 8, 8832
8, 15258, Pitch_bend_c, 8, 8736
8, 15259, Pitch_bend_c, 8, 8672
8, 15261, Pitch_bend_c, 8, 8640
8, 15262, Pitch_bend_c, 8, 8576
8, 15263, Pitch_bend_c, 8, 8544
8, 15264, Pitch_bend_c, 8, 8736
8, 15265, Note_on_c, 8, 77, 0
8, 15271, Pitch_bend_c, 8, 8192
8, 15272, Note_on_c, 8, 72, 85
8, 15272, Pitch_bend_c, 8, 8256
8, 15274, Pitch_bend_c, 8, 8288
8, 15276, Pitch_bend_c, 8, 8224
8, 15279, Pitch_bend_c, 8, 8320
8, 15280, Pitch_bend_c, 8, 8640
8, 15282, Pitch_bend_c, 8, 9216
8, 15283, Pitch_bend_c, 8, 9952
8, 15284, Pitch_bend_c, 8, 10656
8, 15286, Pitch_bend_c, 8, 11104
8, 15287, Pitch_bend_c, 8, 11296
8, 15288, Pitch_bend_c, 8, 11136
8, 15290, Pitch_bend_c, 8, 10944
8, 15291, Note_on_c, 8, 72, 0
8, 15300, Note_on_c, 8, 70, 68
8, 15300, Pitch_bend_c, 8, 8128
8, 15303, Pitch_bend_c, 8, 8160
8, 15305, Pitch_bend_c, 8, 8192
8, 15306, Pitch_bend_c, 8, 8224
8, 15309, Pitch_bend_c, 8, 8192
8, 15310, Pitch_bend_c, 8, 8128
8, 15311, Pitch_bend_c, 8, 8192
8, 15313, Pitch_bend_c, 8, 8672
8, 15314, Pitch_bend_c, 8, 9440
8, 15315, Pitch_bend_c, 8, 10112
8, 15317, Pitch_bend_c, 8, 10400
8, 15318, Pitch_bend_c, 8, 10048
8, 15320, Pitch_bend_c, 8, 9344
8, 15321, Pitch_bend_c, 8, 8576
8, 15323, Pitch_bend_c, 8, 8096
8, 15324, Pitch_bend_c, 8, 7904
8, 15326, Pitch_bend_c, 8, 7968
8, 15327, Pitch_bend_c, 8, 8192
8, 15328, Pitch_bend_c, 8, 8640
8, 15330, Pitch_bend_c, 8, 9088
8, 15331, Pitch_bend_c, 8, 9472
8, 15332, Pitch_bend_c, 8, 9664
8, 15334, Pitch_bend_c, 8, 9632
8, 15336, Pitch_bend_c, 8, 9568
8, 15337, Note_on_c, 8, 70, 0
8, 15337, Pitch_bend_c, 8, 9472
8, 15340, Note_on_c, 8, 67, 48
8, 15340, Pitch_bend_c, 8, 8448
8, 15341, Pitch_bend_c, 8, 8480
8, 15343, Pitch_bend_c, 8, 8544
8, 15344, Pitch_bend_c, 8, 8576
8, 15346, Pitch_bend_c, 8, 8608
8, 15350, Pitch_bend_c, 8, 8576
8, 15351, Pitch_bend_c, 8, 8544
8, 15353, Pitch_bend_c, 8, 8512
8, 15354, Note_on_c, 8, 67, 0
8, 15354, Pitch_bend_c, 8, 8608
8, 15357, Pitch_bend_c, 8, 8192
8, 15358, Note_on_c, 8, 70, 81
8, 15358, Pitch_bend_c, 8, 8000
8, 15359, Pitch_bend_c, 8, 7936
8, 15361, Pitch_bend_c, 8, 7968
8, 15362, Pitch_bend_c, 8, 8000
8, 15363, Pitch_bend_c, 8, 8032
8, 15365, Pitch_bend_c, 8, 8064
8, 15366, Pitch_bend_c, 8, 8096
8, 15368, Pitch_bend_c, 8, 8128
8, 15369, Pitch_bend_c, 8, 8160
8, 15370, Pitch_bend_c, 8, 8192
8, 15372, Pitch_bend_c, 8, 8224
8, 15373, Note_on_c, 8, 70, 0
8, 15385, Note_on_c, 8, 73, 73
8, 15385, Pitch_bend_c, 8, 8448
8, 15387, Pitch_bend_c, 8, 8416
8, 15388, Pitch_bend_c, 8, 8352
8, 15391, Pitch_bend_c, 8, 8288
8, 15392, Pitch_bend_c, 8, 8256
8, 15393, Pitch_bend_c, 8, 8288
8, 15395, Pitch_bend_c, 8, 8384
8, 15396, Pitch_bend_c, 8, 8512
8, 15398, Pitch_bend_c, 8, 8704
8, 15399, Pitch_bend_c, 8, 8928
8, 15400, Pitch_bend_c, 8, 9184
8, 15402, Pitch_bend_c, 8, 9440
8, 15403, Pitch_bend_c, 8, 9632
8, 15405, Pitch_bend_c, 8, 9952
8, 15406, Pitch_bend_c, 8, 10368
8, 15407, Pitch_bend_c, 8, 10880
8, 15409, Pitch_bend_c, 8, 11392
8, 15410, Pitch_bend_c, 8, 11808
8, 15412, Pitch_bend_c, 8, 12064
8, 15413, Note_on_c, 8, 73, 0
8, 15413, Pitch_bend_c, 8, 12160
8, 15423, Note_on_c, 8, 73, 69
8, 15423, Pitch_bend_c, 8, 8256
8, 15425, Pitch_bend_c, 8, 8288
8, 15427, Pitch_bend_c, 8, 8384
8, 15429, Pitch_bend_c, 8, 8448
8, 15430, Pitch_bend_c, 8, 8576
8, 15432, Pitch_bend_c, 8, 8672
8, 15433, Pitch_bend_c, 8, 8736
8, 15435, Pitch_bend_c, 8, 8768
8, 15436, Pitch_bend_c, 8, 8864
8, 15438, Pitch_bend_c, 8, 8896
8, 15439, Pitch_bend_c, 8, 9024
8, 15440, Pitch_bend_c, 8, 9120
8, 15442, Pitch_bend_c, 8, 9184
8, 15443, Pitch_bend_c, 8, 9280
8, 15445, Pitch_bend_c, 8, 9312
8, 15446, Pitch_bend_c, 8, 9344
8, 15449, Pitch_bend_c, 8, 9376
8, 15450, Pitch_bend_c, 8, 9440
8, 15451, Pitch_bend_c, 8, 9472
8, 15454, Pitch_bend_c, 8, 9504
8, 15456, Pitch_bend_c, 8, 9536
8, 15457, Pitch_bend_c, 8, 9632
8, 15458, Pitch_bend_c, 8, 9760
8, 15460, Pitch_bend_c, 8, 9920
8, 15461, Pitch_bend_c, 8, 10144
8, 15463, Pitch_bend_c, 8, 10528
8, 15464, Pitch_bend_c, 8, 10976
8, 15465, Pitch_bend_c, 8, 11392
8, 15467, Pitch_bend_c, 8, 11808
8, 15469, Pitch_bend_c, 8, 12064
8, 15470, Pitch_bend_c, 8, 12160
8, 15471, Pitch_bend_c, 8, 12128
8, 15473, Pitch_bend_c, 8, 11808
8, 15474, Pitch_bend_c, 8, 12064
8, 15475, Note_on_c, 8, 73, 0
8, 15494, Pitch_bend_c, 8, 8192
8, 15495, Pitch_bend_c, 8, 8384
8, 15498, Pitch_bend_c, 8, 8416
8, 15499, Note_on_c, 8, 76, 78
8, 15499, Pitch_bend_c, 8, 8480
8, 15501, Pitch_bend_c, 8, 8576
8, 15502, Pitch_bend_c, 8, 8672
8, 15503, Pitch_bend_c, 8, 8800
8, 15505, Pitch_bend_c, 8, 9056
8, 15506, Pitch_bend_c, 8, 9440
8, 15508, Pitch_bend_c, 8, 9952
8, 15509, Pitch_bend_c, 8, 10592
8, 15510, Pitch_bend_c, 8, 11168
8, 15512, Pitch_bend_c, 8, 11648
8, 15513, Pitch_bend_c, 8, 11872
8, 15514, Pitch_bend_c, 8, 11968
8, 15516, Pitch_bend_c, 8, 12032
8, 15523, Pitch_bend_c, 8, 11968
8, 15529, Pitch_bend_c, 8, 11936
8, 15548, Pitch_bend_c, 8, 11968
8, 15549, Pitch_bend_c, 8, 12064
8, 15551, Pitch_bend_c, 8, 12160
8, 15552, Pitch_bend_c, 8, 12320
8, 15553, Pitch_bend_c, 8, 12384
8, 15555, Pitch_bend_c, 8, 12416
8, 15556, Pitch_bend_c, 8, 12320
8, 15558, Pitch_bend_c, 8, 12224
8, 15559, Pitch_bend_c, 8, 12032
8, 15561, Pitch_bend_c, 8, 11872
8, 15562, Pitch_bend_c, 8, 11744
8, 15563, Pitch_bend_c, 8, 11680
8, 15566, Pitch_bend_c, 8, 11936
8, 15568, Pitch_bend_c, 8, 12384
8, 15569, Pitch_bend_c, 8, 12992
8, 15571, Pitch_bend_c, 8, 13536
8, 15572, Pitch_bend_c, 8, 13888
8, 15573, Pitch_bend_c, 8, 14048
8, 15575, Pitch_bend_c, 8, 13952
8, 15576, Pitch_bend_c, 8, 13344
8, 15578, Pitch_bend_c, 8, 10720
8, 15581, Pitch_bend_c, 8, 10688
8, 15583, Pitch_bend_c, 8, 10784
8, 15584, Pitch_bend_c, 8, 11264
8, 15586, Pitch_bend_c, 8, 11936
8, 15587, Pitch_bend_c, 8, 12736
8, 15589, Pitch_bend_c, 8, 13376
8, 15590, Pitch_bend_c, 8, 13632
8, 15591, Pitch_bend_c, 8, 13504
8, 15593, Pitch_bend_c, 8, 11008
8, 15594, Pitch_bend_c, 8, 13376
8, 15598, Note_on_c, 8, 76, 0
8, 15624, Pitch_bend_c, 8, 8192
8, 15625, Note_on_c, 8, 65, 87
8, 15625, Pitch_bend_c, 8, 8160
8, 15626, Pitch_bend_c, 8, 8544
8, 15627, Pitch_bend_c, 8, 8608
8, 15634, Pitch_bend_c, 8, 8576
8, 15636, Pitch_bend_c, 8, 8832
8, 15637, Pitch_bend_c, 8, 9088
8, 15638, Note_on_c, 8, 65, 0
8, 15639, Pitch_bend_c, 8, 8192
8, 15639, Note_on_c, 8, 68, 75
8, 15640, Pitch_bend_c, 8, 8512
8, 15645, Pitch_bend_c, 8, 8544
8, 15646, Pitch_bend_c, 8, 8576
8, 15648, Pitch_bend_c, 8, 8608
8, 15649, Pitch_bend_c, 8, 8480
8, 15650, Pitch_bend_c, 8, 8224
8, 15651, Note_on_c, 8, 68, 0
8, 15651, Pitch_bend_c, 8, 8544
8, 15656, Note_on_c, 8, 72, 80
8, 15656, Pitch_bend_c, 8, 8128
8, 15665, Pitch_bend_c, 8, 8032
8, 15666, Note_on_c, 8, 72, 0
8, 15669, Pitch_bend_c, 8, 8192
8, 15670, Note_on_c, 8, 70, 85
8, 15671, Pitch_bend_c, 8, 7968
8, 15673, Pitch_bend_c, 8, 7936
8, 15675, Pitch_bend_c, 8, 16032
8, 15676, Pitch_bend_c, 8, 16064
8, 15677, Pitch_bend_c, 8, 16160
8, 15679, Pitch_bend_c, 8, 16352
8, 15682, Pitch_bend_c, 8, 8096
8, 15683, Pitch_bend_c, 8, 8128
8, 15684, Pitch_bend_c, 8, 8160
8, 15688, Pitch_bend_c, 8, 8128
8, 15694, Pitch_bend_c, 8, 8096
8, 15695, Pitch_bend_c, 8, 8064
8, 15698, Note_on_c, 8, 70, 0
8, 15698, Pitch_bend_c, 8, 8192
8, 15699, Note_on_c, 8, 67, 65
8, 15711, Note_on_c, 8, 67, 0
8, 15711, Note_on_c, 8, 70, 87
8, 15711, Pitch_bend_c, 8, 8032
8, 15712, Pitch_bend_c, 8, 8192
8, 15714, Pitch_bend_c, 8, 8128
8, 15716, Pitch_bend_c, 8, 8064
8, 15717, Pitch_bend_c, 8, 8000
8, 15720, Pitch_bend_c, 8, 8032
8, 15721, Pitch_bend_c, 8, 8000
8, 15723, Pitch_bend_c, 8, 8032
8, 15724, Pitch_bend_c, 8, 8000
8, 15727, Pitch_bend_c, 8, 8032
8, 15728, Pitch_bend_c, 8, 8000
8, 15729, Note_on_c, 8, 70, 0
8, 15731, Pitch_bend_c, 8, 8192
8, 15732, Note_on_c, 8, 70, 87
8, 15733, Pitch_bend_c, 8, 8256
8, 15736, Pitch_bend_c, 8, 8224
8, 15737, Pitch_bend_c, 8, 8160
8, 15739, Pitch_bend_c, 8, 8064
8, 15740, Pitch_bend_c, 8, 8032
8, 15741, Pitch_bend_c, 8, 8000
8, 15744, Pitch_bend_c, 8, 8032
8, 15746, Pitch_bend_c, 8, 8000
8, 15747, Pitch_bend_c, 8, 7968
8, 15748, Pitch_bend_c, 8, 7936
8, 15751, Pitch_bend_c, 8, 7904
8, 15754, Pitch_bend_c, 8, 7872
8, 15755, Pitch_bend_c, 8, 8000
8, 15756, Note_on_c, 8, 70, 0
8, 15771, Note_on_c, 8, 73, 91
8, 15771, Pitch_bend_c, 8, 8224
8, 15775, Pitch_bend_c, 8, 8192
8, 15776, Pitch_bend_c, 8, 8032
8, 15777, Pitch_bend_c, 8, 7968
8, 15779, Pitch_bend_c, 8, 7840
8, 15780, Pitch_bend_c, 8, 7744
8, 15781, Pitch_bend_c, 8, 7776
8, 15783, Pitch_bend_c, 8, 7840
8, 15784, Pitch_bend_c, 8, 7936
8, 15785, Pitch_bend_c, 8, 8032
8, 15787, Pitch_bend_c, 8, 8064
8, 15792, Pitch_bend_c, 8, 8128
8, 15794, Pitch_bend_c, 8, 8064
8, 15797, Pitch_bend_c, 8, 8128
8, 15799, Pitch_bend_c, 8, 8160
8, 15802, Pitch_bend_c, 8, 8192
8, 15807, Pitch_bend_c, 8, 8224
8, 15809, Pitch_bend_c, 8, 8256
8, 15811, Pitch_bend_c, 8, 8288
8, 15812, Pitch_bend_c, 8, 8384
8, 15814, Pitch_bend_c, 8, 8416
8, 15815, Pitch_bend_c, 8, 8448
8, 15816, Pitch_bend_c, 8, 8512
8, 15819, Pitch_bend_c, 8, 8544
8, 15821, Pitch_bend_c, 8, 8576
8, 15822, Pitch_bend_c, 8, 8608
8, 15823, Pitch_bend_c, 8, 8704
8, 15825, Pitch_bend_c, 8, 8832
8, 15826, Pitch_bend_c, 8, 8992
8, 15828, Pitch_bend_c, 8, 9184
8, 15829, Pitch_bend_c, 8, 9600
8, 15831, Pitch_bend_c, 8, 10112
8, 15832, Pitch_bend_c, 8, 10752
8, 15833, Pitch_bend_c, 8, 11456
8, 15835, Pitch_bend_c, 8, 12000
8, 15836, Pitch_bend_c, 8, 12416
8, 15838, Pitch_bend_c, 8, 12640
8, 15839, Pitch_bend_c, 8, 12608
8, 15840, Note_on_c, 8, 73, 0
8, 15880, Pitch_bend_c, 8, 8192
8, 15881, Note_on_c, 8, 77, 89
8, 15881, Pitch_bend_c, 8, 8096
8, 15882, Pitch_bend_c, 8, 7776
8, 15883, Pitch_bend_c, 8, 7680
8, 15887, Pitch_bend_c, 8, 7776
8, 15888, Pitch_bend_c, 8, 8288
8, 15890, Pitch_bend_c, 8, 10816
8, 15891, Pitch_bend_c, 8, 11072
8, 15892, Pitch_bend_c, 8, 11328
8, 15894, Pitch_bend_c, 8, 11424
8, 15895, Note_on_c, 8, 77, 0
8, 15905, Note_on_c, 8, 77, 89
8, 15905, Pitch_bend_c, 8, 8640
8, 15906, Pitch_bend_c, 8, 8576
8, 15908, Pitch_bend_c, 8, 8544
8, 15911, Pitch_bend_c, 8, 8576
8, 15917, Note_on_c, 8, 77, 0
8, 15921, Note_on_c, 8, 70, 84
8, 15921, Pitch_bend_c, 8, 8480
8, 15922, Pitch_bend_c, 8, 8448
8, 15924, Pitch_bend_c, 8, 8480
8, 15926, Pitch_bend_c, 8, 8512
8, 15928, Pitch_bend_c, 8, 8448
8, 15930, Pitch_bend_c, 8, 8416
8, 15931, Pitch_bend_c, 8, 8384
8, 15933, Pitch_bend_c, 8, 8320
8, 15934, Pitch_bend_c, 8, 8288
8, 15936, Pitch_bend_c, 8, 8256
8, 15942, Pitch_bend_c, 8, 8224
8, 15944, Pitch_bend_c, 8, 8256
8, 15956, Note_on_c, 8, 70, 0
8, 15956, Pitch_bend_c, 8, 8320
8, 15959, Pitch_bend_c, 8, 8192
8, 15959, Note_on_c, 8, 73, 85
8, 15960, Pitch_bend_c, 8, 8000
8, 15968, Pitch_bend_c, 8, 8032
8, 15969, Pitch_bend_c, 8, 8064
8, 15972, Pitch_bend_c, 8, 8128
8, 15973, Pitch_bend_c, 8, 8064
8, 15976, Pitch_bend_c, 8, 8032
8, 15977, Pitch_bend_c, 8, 8000
8, 15979, Pitch_bend_c, 8, 7968
8, 15981, Pitch_bend_c, 8, 8000
8, 15983, Pitch_bend_c, 8, 8064
8, 15984, Pitch_bend_c, 8, 8128
8, 15986, Pitch_bend_c, 8, 8192
8, 15987, Pitch_bend_c, 8, 8224
8, 15988, Pitch_bend_c, 8, 8256
8, 15990, Pitch_bend_c, 8, 8288
8, 15993, Pitch_bend_c, 8, 8352
8, 15997, Pitch_bend_c, 8, 8384
8, 15999, Pitch_bend_c, 8, 8416
8, 16001, Pitch_bend_c, 8, 8448
8, 16003, Pitch_bend_c, 8, 8512
8, 16004, Pitch_bend_c, 8, 8576
8, 16006, Pitch_bend_c, 8, 8672
8, 16007, Pitch_bend_c, 8, 8768
8, 16008, Pitch_bend_c, 8, 8928
8, 16009, Pitch_bend_c, 8, 9152
8, 16011, Pitch_bend_c, 8, 9376
8, 16013, Pitch_bend_c, 8, 9664
8, 16014, Pitch_bend_c, 8, 10048
8, 16015, Pitch_bend_c, 8, 10400
8, 16017, Pitch_bend_c, 8, 10720
8, 16018, Pitch_bend_c, 8, 10976
8, 16019, Pitch_bend_c, 8, 11072
8, 16022, Note_on_c, 8, 73, 0
8, 16131, Pitch_bend_c, 8, 8192
8, 16132, Note_on_c, 8, 70, 89
8, 16132, Pitch_bend_c, 8, 8512
8, 16133, Pitch_bend_c, 8, 8352
8, 16134, Pitch_bend_c, 8, 8224
8, 16135, Pitch_bend_c, 8, 8192
8, 16137, Pitch_bend_c, 8, 8128
8, 16139, Pitch_bend_c, 8, 8160
8, 16140, Pitch_bend_c, 8, 8192
8, 16141, Note_on_c, 8, 70, 0
8, 16166, Note_on_c, 8, 80, 113
8, 16167, Pitch_bend_c, 8, 4896
8, 16169, Pitch_bend_c, 8, 4768
8, 16170, Pitch_bend_c, 8, 4672
8, 16171, Pitch_bend_c, 8, 4704
8, 16172, Pitch_bend_c, 8, 4928
8, 16173, Pitch_bend_c, 8, 5216
8, 16174, Pitch_bend_c, 8, 5696
8, 16175, Pitch_bend_c, 8, 6368
8, 16176, Pitch_bend_c, 8, 7008
8, 16178, Pitch_bend_c, 8, 7648
8, 16179, Pitch_bend_c, 8, 8096
8, 16180, Pitch_bend_c, 8, 8416
8, 16182, Pitch_bend_c, 8, 8736
8, 16183, Pitch_bend_c, 8, 8896
8, 16184, Pitch_bend_c, 8, 8960
8, 16185, Pitch_bend_c, 8, 9088
8, 16186, Pitch_bend_c, 8, 9152
8, 16187, Pitch_bend_c, 8, 9216
8, 16188, Pitch_bend_c, 8, 9280
8, 16199, Pitch_bend_c, 8, 9216
8, 16202, Pitch_bend_c, 8, 9152
8, 16204, Pitch_bend_c, 8, 9216
8, 16211, Pitch_bend_c, 8, 9152
8, 16212, Pitch_bend_c, 8, 9088
8, 16213, Pitch_bend_c, 8, 9024
8, 16215, Pitch_bend_c, 8, 8960
8, 16216, Pitch_bend_c, 8, 8896
8, 16218, Pitch_bend_c, 8, 8832
8, 16219, Pitch_bend_c, 8, 8768
8, 16222, Pitch_bend_c, 8, 8736
8, 16223, Pitch_bend_c, 8, 8672
8, 16224, Pitch_bend_c, 8, 8608
8, 16225, Pitch_bend_c, 8, 8544
8, 16226, Pitch_bend_c, 8, 8416
8, 16227, Pitch_bend_c, 8, 8288
8, 16228, Pitch_bend_c, 8, 8192
8, 16230, Pitch_bend_c, 8, 8032
8, 16231, Pitch_bend_c, 8, 7808
8, 16232, Pitch_bend_c, 8, 7392
8, 16233, Pitch_bend_c, 8, 7008
8, 16234, Pitch_bend_c, 8, 6560
8, 16235, Pitch_bend_c, 8, 6144
8, 16236, Pitch_bend_c, 8, 5792
8, 16238, Pitch_bend_c, 8, 5504
8, 16239, Pitch_bend_c, 8, 5216
8, 16240, Pitch_bend_c, 8, 4992
8, 16241, Pitch_bend_c, 8, 4832
8, 16242, Pitch_bend_c, 8, 4704
8, 16244, Pitch_bend_c, 8, 4672
8, 16251, Pitch_bend_c, 8, 4608
8, 16253, Note_on_c, 8, 80, 0
8, 16253, Pitch_bend_c, 8, 4832
8, 16257, Pitch_bend_c, 8, 8192
8, 16258, Note_on_c, 8, 77, 89
8, 16258, Pitch_bend_c, 8, 9088
8, 16259, Pitch_bend_c, 8, 8992
8, 16261, Pitch_bend_c, 8, 9056
8, 16263, Pitch_bend_c, 8, 8992
8, 16264, Pitch_bend_c, 8, 8928
8, 16266, Pitch_bend_c, 8, 8896
8, 16269, Pitch_bend_c, 8, 8928
8, 16270, Pitch_bend_c, 8, 8992
8, 16273, Note_on_c, 8, 77, 0
8, 16273, Pitch_bend_c, 8, 9056
8, 16278, Pitch_bend_c, 8, 8192
8, 16279, Note_on_c, 8, 75, 89
8, 16279, Pitch_bend_c, 8, 8864
8, 16282, Pitch_bend_c, 8, 8800
8, 16284, Pitch_bend_c, 8, 8768
8, 16285, Pitch_bend_c, 8, 8672
8, 16286, Pitch_bend_c, 8, 8640
8, 16287, Pitch_bend_c, 8, 8576
8, 16288, Pitch_bend_c, 8, 8544
8, 16292, Note_on_c, 8, 75, 0
8, 16292, Pitch_bend_c, 8, 8672
8, 16298, Note_on_c, 8, 76, 89
8, 16298, Pitch_bend_c, 8, 8192
8, 16299, Pitch_bend_c, 8, 12896
8, 16300, Pitch_bend_c, 8, 12832
8, 16302, Pitch_bend_c, 8, 12896
8, 16305, Pitch_bend_c, 8, 12768
8, 16306, Pitch_bend_c, 8, 12672
8, 16307, Pitch_bend_c, 8, 12480
8, 16309, Pitch_bend_c, 8, 12288
8, 16310, Pitch_bend_c, 8, 12064
8, 16311, Pitch_bend_c, 8, 11936
8, 16312, Pitch_bend_c, 8, 11776
8, 16313, Pitch_bend_c, 8, 11744
8, 16314, Pitch_bend_c, 8, 11680
8, 16316, Note_on_c, 8, 76, 0
8, 16316, Pitch_bend_c, 8, 12064
8, 16318, Pitch_bend_c, 8, 8192
8, 16319, Note_on_c, 8, 73, 92
8, 16319, Pitch_bend_c, 8, 8160
8, 16320, Pitch_bend_c, 8, 8032
8, 16321, Pitch_bend_c, 8, 8064
8, 16322, Pitch_bend_c, 8, 8128
8, 16324, Pitch_bend_c, 8, 8064
8, 16326, Pitch_bend_c, 8, 8000
8, 16328, Pitch_bend_c, 8, 8064
8, 16330, Pitch_bend_c, 8, 8224
8, 16331, Pitch_bend_c, 8, 8416
8, 16332, Pitch_bend_c, 8, 8576
8, 16333, Pitch_bend_c, 8, 8704
8, 16334, Pitch_bend_c, 8, 8832
8, 16335, Pitch_bend_c, 8, 8896
8, 16336, Pitch_bend_c, 8, 8992
8, 16337, Pitch_bend_c, 8, 9120
8, 16339, Pitch_bend_c, 8, 9184
8, 16340, Pitch_bend_c, 8, 9280
8, 16341, Pitch_bend_c, 8, 9344
8, 16342, Pitch_bend_c, 8, 9472
8, 16343, Pitch_bend_c, 8, 9632
8, 16344, Pitch_bend_c, 8, 9824
8, 16345, Pitch_bend_c, 8, 10080
8, 16347, Pitch_bend_c, 8, 10304
8, 16348, Pitch_bend_c, 8, 10592
8, 16349, Pitch_bend_c, 8, 10880
8, 16350, Pitch_bend_c, 8, 11136
8, 16351, Pitch_bend_c, 8, 11296
8, 16352, Pitch_bend_c, 8, 11392
8, 16353, Pitch_bend_c, 8, 11488
8, 16356, Pitch_bend_c, 8, 11456
8, 16357, Pitch_bend_c, 8, 11296
8, 16358, Pitch_bend_c, 8, 10752
8, 16359, Pitch_bend_c, 8, 10112
8, 16360, Note_on_c, 8, 73, 0
8, 16360, Note_on_c, 8, 75, 87
8, 16360, Pitch_bend_c, 8, 8992
8, 16362, Pitch_bend_c, 8, 8896
8, 16363, Pitch_bend_c, 8, 8576
8, 16365, Pitch_bend_c, 8, 8448
8, 16366, Pitch_bend_c, 8, 8256
8, 16367, Pitch_bend_c, 8, 8224
8, 16368, Pitch_bend_c, 8, 8448
8, 16369, Pitch_bend_c, 8, 8480
8, 16370, Pitch_bend_c, 8, 8448
8, 16372, Pitch_bend_c, 8, 8640
8, 16373, Pitch_bend_c, 8, 8768
8, 16374, Note_on_c, 8, 75, 0
8, 16374, Pitch_bend_c, 8, 8960
8, 16376, Pitch_bend_c, 8, 8192
8, 16377, Note_on_c, 8, 77, 88
8, 16377, Pitch_bend_c, 8, 9184
8, 16380, Pitch_bend_c, 8, 9088
8, 16383, Pitch_bend_c, 8, 9056
8, 16384, Pitch_bend_c, 8, 8992
8, 16385, Pitch_bend_c, 8, 8896
8, 16387, Note_on_c, 8, 77, 0
8, 16387, Pitch_bend_c, 8, 9088
8, 16396, Pitch_bend_c, 8, 8192
8, 16398, Note_on_c, 8, 72, 87
8, 16398, Pitch_bend_c, 8, 8416
8, 16404, Pitch_bend_c, 8, 8352
8, 16405, Pitch_bend_c, 8, 8288
8, 16407, Pitch_bend_c, 8, 8224
8, 16410, Pitch_bend_c, 8, 8544
8, 16412, Pitch_bend_c, 8, 12352
8, 16416, Pitch_bend_c, 8, 12320
8, 16418, Pitch_bend_c, 8, 12288
8, 16419, Pitch_bend_c, 8, 8000
8, 16421, Pitch_bend_c, 8, 8096
8, 16422, Pitch_bend_c, 8, 8160
8, 16423, Pitch_bend_c, 8, 8192
8, 16424, Note_on_c, 8, 72, 0
8, 16425, Note_on_c, 8, 69, 63
8, 16425, Pitch_bend_c, 8, 12064
8, 16427, Pitch_bend_c, 8, 12096
8, 16430, Pitch_bend_c, 8, 12128
8, 16431, Pitch_bend_c, 8, 12160
8, 16434, Note_on_c, 8, 69, 0
8, 16437, Pitch_bend_c, 8, 8192
8, 16438, Note_on_c, 8, 72, 87
8, 16438, Pitch_bend_c, 8, 8160
8, 16439, Pitch_bend_c, 8, 8128
8, 16440, Pitch_bend_c, 8, 8096
8, 16441, Pitch_bend_c, 8, 7968
8, 16442, Pitch_bend_c, 8, 7904
8, 16443, Pitch_bend_c, 8, 7840
8, 16448, Pitch_bend_c, 8, 7808
8, 16450, Pitch_bend_c, 8, 7744
8, 16451, Pitch_bend_c, 8, 7712
8, 16452, Pitch_bend_c, 8, 7744
8, 16454, Note_on_c, 8, 72, 0
8, 16454, Pitch_bend_c, 8, 7840
8, 16456, Pitch_bend_c, 8, 8192
8, 16457, Note_on_c, 8, 66, 70
8, 16457, Pitch_bend_c, 8, 11328
8, 16458, Pitch_bend_c, 8, 12288
8, 16463, Pitch_bend_c, 8, 12192
8, 16464, Note_on_c, 8, 66, 0
8, 16464, Pitch_bend_c, 8, 12288
8, 16473, Note_on_c, 8, 72, 87
8, 16473, Pitch_bend_c, 8, 8192
8, 16474, Pitch_bend_c, 8, 8640
8, 16476, Pitch_bend_c, 8, 8608
8, 16477, Pitch_bend_c, 8, 8544
8, 16479, Pitch_bend_c, 8, 8480
8, 16482, Pitch_bend_c, 8, 8448
8, 16484, Pitch_bend_c, 8, 8480
8, 16485, Pitch_bend_c, 8, 8608
8, 16486, Pitch_bend_c, 8, 8736
8, 16487, Pitch_bend_c, 8, 8928
8, 16488, Pitch_bend_c, 8, 9216
8, 16489, Pitch_bend_c, 8, 9440
8, 16490, Pitch_bend_c, 8, 9728
8, 16492, Pitch_bend_c, 8, 10080
8, 16493, Pitch_bend_c, 8, 10528
8, 16494, Pitch_bend_c, 8, 11104
8, 16495, Pitch_bend_c, 8, 11712
8, 16496, Pitch_bend_c, 8, 12288
8, 16497, Pitch_bend_c, 8, 12768
8, 16498, Pitch_bend_c, 8, 13088
8, 16499, Pitch_bend_c, 8, 13312
8, 16501, Pitch_bend_c, 8, 13440
8, 16502, Note_on_c, 8, 72, 0
8, 16502, Pitch_bend_c, 8, 8192
8, 16503, Note_on_c, 8, 77, 87
8, 16508, Note_on_c, 8, 77, 0
8, 16508, Pitch_bend_c, 8, 4768
8, 16517, Pitch_bend_c, 8, 8192
8, 16517, Note_on_c, 8, 70, 86
8, 16518, Pitch_bend_c, 8, 8512
8, 16520, Pitch_bend_c, 8, 8544
8, 16521, Pitch_bend_c, 8, 8512
8, 16523, Pitch_bend_c, 8, 8448
8, 16524, Pitch_bend_c, 8, 8480
8, 16525, Pitch_bend_c, 8, 8448
8, 16528, Pitch_bend_c, 8, 8416
8, 16529, Pitch_bend_c, 8, 8320
8, 16530, Pitch_bend_c, 8, 8256
8, 16531, Pitch_bend_c, 8, 8192
8, 16532, Pitch_bend_c, 8, 8160
8, 16533, Pitch_bend_c, 8, 8096
8, 16534, Pitch_bend_c, 8, 8064
8, 16538, Pitch_bend_c, 8, 8096
8, 16540, Pitch_bend_c, 8, 8064
8, 16544, Pitch_bend_c, 8, 8128
8, 16545, Pitch_bend_c, 8, 8192
8, 16546, Pitch_bend_c, 8, 8320
8, 16547, Pitch_bend_c, 8, 8448
8, 16548, Pitch_bend_c, 8, 8544
8, 16549, Pitch_bend_c, 8, 8576
8, 16550, Pitch_bend_c, 8, 8544
8, 16552, Pitch_bend_c, 8, 8512
8, 16553, Pitch_bend_c, 8, 8448
8, 16554, Pitch_bend_c, 8, 8192
8, 16554, Note_on_c, 8, 75, 86
8, 16561, Note_on_c, 8, 70, 0
8, 16562, Pitch_bend_c, 8, 8000
8, 16563, Note_on_c, 8, 75, 0
8, 16563, Pitch_bend_c, 8, 7616
8, 16579, Note_on_c, 8, 67, 54
8, 16579, Pitch_bend_c, 8, 8416
8, 16581, Pitch_bend_c, 8, 8448
8, 16583, Pitch_bend_c, 8, 8416
8, 16587, Pitch_bend_c, 8, 8384
8, 16591, Pitch_bend_c, 8, 8416
8, 16595, Pitch_bend_c, 8, 8384
8, 16596, Pitch_bend_c, 8, 8352
8, 16597, Pitch_bend_c, 8, 8320
8, 16598, Pitch_bend_c, 8, 8384
8, 16599, Pitch_bend_c, 8, 8544
8, 16600, Pitch_bend_c, 8, 8896
8, 16601, Pitch_bend_c, 8, 9344
8, 16602, Pitch_bend_c, 8, 9792
8, 16604, Pitch_bend_c, 8, 10080
8, 16605, Pitch_bend_c, 8, 10112
8, 16606, Pitch_bend_c, 8, 9856
8, 16607, Pitch_bend_c, 8, 9408
8, 16608, Pitch_bend_c, 8, 8928
8, 16609, Pitch_bend_c, 8, 8512
8, 16610, Pitch_bend_c, 8, 8320
8, 16611, Pitch_bend_c, 8, 8288
8, 16615, Pitch_bend_c, 8, 8448
8, 16616, Pitch_bend_c, 8, 8704
8, 16617, Pitch_bend_c, 8, 9024
8, 16619, Pitch_bend_c, 8, 9440
8, 16620, Pitch_bend_c, 8, 9664
8, 16621, Pitch_bend_c, 8, 9728
8, 16622, Pitch_bend_c, 8, 9536
8, 16623, Pitch_bend_c, 8, 9216
8, 16624, Pitch_bend_c, 8, 8800
8, 16625, Pitch_bend_c, 8, 8448
8, 16626, Pitch_bend_c, 8, 8192
8, 16630, Pitch_bend_c, 8, 8352
8, 16631, Pitch_bend_c, 8, 8736
8, 16632, Pitch_bend_c, 8, 9248
8, 16633, Pitch_bend_c, 8, 9792
8, 16635, Pitch_bend_c, 8, 10208
8, 16636, Pitch_bend_c, 8, 10304
8, 16637, Pitch_bend_c, 8, 10016
8, 16638, Pitch_bend_c, 8, 9440
8, 16639, Pitch_bend_c, 8, 8864
8, 16640, Pitch_bend_c, 8, 8448
8, 16642, Pitch_bend_c, 8, 8192
8, 16645, Pitch_bend_c, 8, 8288
8, 16646, Pitch_bend_c, 8, 8736
8, 16647, Pitch_bend_c, 8, 9344
8, 16648, Pitch_bend_c, 8, 9952
8, 16650, Pitch_bend_c, 8, 10240
8, 16651, Pitch_bend_c, 8, 9984
8, 16652, Pitch_bend_c, 8, 9408
8, 16653, Pitch_bend_c, 8, 8800
8, 16654, Pitch_bend_c, 8, 8128
8, 16655, Pitch_bend_c, 8, 7712
8, 16657, Pitch_bend_c, 8, 7456
8, 16658, Note_on_c, 8, 67, 0
8, 16658, Pitch_bend_c, 8, 8800
8, 16756, Note_on_c, 8, 63, 87
8, 16756, Pitch_bend_c, 8, 8832
8, 16759, Pitch_bend_c, 8, 8800
8, 16760, Pitch_bend_c, 8, 8736
8, 16762, Pitch_bend_c, 8, 8512
8, 16763, Pitch_bend_c, 8, 8448
8, 16764, Pitch_bend_c, 8, 8352
8, 16766, Pitch_bend_c, 8, 8256
8, 16767, Pitch_bend_c, 8, 8320
8, 16768, Pitch_bend_c, 8, 8256
8, 16770, Pitch_bend_c, 8, 8192
8, 16771, Note_on_c, 8, 67, 86
8, 16779, Note_on_c, 8, 63, 0
8, 16781, Pitch_bend_c, 8, 8096
8, 16783, Pitch_bend_c, 8, 8032
8, 16784, Pitch_bend_c, 8, 7840
8, 16785, Pitch_bend_c, 8, 7616
8, 16786, Note_on_c, 8, 67, 0
8, 16786, Note_on_c, 8, 70, 90
8, 16787, Pitch_bend_c, 8, 8064
8, 16790, Pitch_bend_c, 8, 8032
8, 16792, Pitch_bend_c, 8, 8064
8, 16793, Pitch_bend_c, 8, 8096
8, 16795, Pitch_bend_c, 8, 8064
8, 16796, Pitch_bend_c, 8, 8000
8, 16799, Note_on_c, 8, 70, 0
8, 16799, Pitch_bend_c, 8, 8032
8, 16801, Pitch_bend_c, 8, 8192
8, 16802, Note_on_c, 8, 73, 89
8, 16803, Pitch_bend_c, 8, 8416
8, 16804, Pitch_bend_c, 8, 8448
8, 16805, Pitch_bend_c, 8, 8416
8, 16806, Pitch_bend_c, 8, 8448
8, 16808, Pitch_bend_c, 8, 8192
8, 16809, Pitch_bend_c, 8, 8160
8, 16810, Pitch_bend_c, 8, 8128
8, 16812, Pitch_bend_c, 8, 8032
8, 16816, Pitch_bend_c, 8, 8064
8, 16819, Pitch_bend_c, 8, 8128
8, 16820, Pitch_bend_c, 8, 8064
8, 16821, Pitch_bend_c, 8, 8000
8, 16824, Pitch_bend_c, 8, 8032
8, 16826, Pitch_bend_c, 8, 8128
8, 16827, Pitch_bend_c, 8, 8608
8, 16828, Pitch_bend_c, 8, 11168
8, 16830, Pitch_bend_c, 8, 11488
8, 16831, Pitch_bend_c, 8, 11936
8, 16833, Pitch_bend_c, 8, 12480
8, 16834, Pitch_bend_c, 8, 13056
8, 16836, Pitch_bend_c, 8, 13312
8, 16837, Pitch_bend_c, 8, 13408
8, 16839, Pitch_bend_c, 8, 13152
8, 16840, Pitch_bend_c, 8, 10400
8, 16841, Pitch_bend_c, 8, 10080
8, 16843, Note_on_c, 8, 73, 0
8, 16843, Pitch_bend_c, 8, 9632
8, 16845, Note_on_c, 8, 74, 89
8, 16845, Pitch_bend_c, 8, 12576
8, 16846, Pitch_bend_c, 8, 12768
8, 16850, Pitch_bend_c, 8, 12736
8, 16851, Pitch_bend_c, 8, 12672
8, 16852, Pitch_bend_c, 8, 12640
8, 16854, Pitch_bend_c, 8, 12544
8, 16860, Pitch_bend_c, 8, 12768
8, 16861, Note_on_c, 8, 74, 0
8, 16862, Pitch_bend_c, 8, 8192
8, 16863, Note_on_c, 8, 75, 89
8, 16863, Pitch_bend_c, 8, 8576
8, 16870, Pitch_bend_c, 8, 8544
8, 16872, Pitch_bend_c, 8, 8576
8, 16876, Pitch_bend_c, 8, 8640
8, 16883, Pitch_bend_c, 8, 8576
8, 16885, Pitch_bend_c, 8, 8640
8, 16887, Pitch_bend_c, 8, 8672
8, 16890, Pitch_bend_c, 8, 8736
8, 16894, Pitch_bend_c, 8, 8800
8, 16896, Pitch_bend_c, 8, 9056
8, 16897, Pitch_bend_c, 8, 9408
8, 16899, Pitch_bend_c, 8, 9984
8, 16900, Pitch_bend_c, 8, 10720
8, 16901, Pitch_bend_c, 8, 11456
8, 16903, Pitch_bend_c, 8, 12128
8, 16904, Pitch_bend_c, 8, 12672
8, 16905, Pitch_bend_c, 8, 12992
8, 16907, Pitch_bend_c, 8, 13152
8, 16908, Pitch_bend_c, 8, 13280
8, 16910, Pitch_bend_c, 8, 13344
8, 16911, Pitch_bend_c, 8, 13376
8, 16912, Pitch_bend_c, 8, 13440
8, 16914, Pitch_bend_c, 8, 13472
8, 16919, Pitch_bend_c, 8, 13440
8, 16921, Pitch_bend_c, 8, 13344
8, 16922, Pitch_bend_c, 8, 12896
8, 16924, Pitch_bend_c, 8, 10592
8, 16925, Pitch_bend_c, 8, 10400
8, 16927, Pitch_bend_c, 8, 10080
8, 16928, Pitch_bend_c, 8, 9728
8, 16929, Pitch_bend_c, 8, 9280
8, 16931, Pitch_bend_c, 8, 8992
8, 16932, Pitch_bend_c, 8, 8800
8, 16934, Pitch_bend_c, 8, 8672
8, 16935, Pitch_bend_c, 8, 8640
8, 16936, Pitch_bend_c, 8, 8576
8, 16938, Note_on_c, 8, 75, 0
8, 16938, Pitch_bend_c, 8, 8992
8, 16940, Pitch_bend_c, 8, 8192
8, 16941, Note_on_c, 8, 75, 83
8, 16941, Pitch_bend_c, 8, 8576
8, 16945, Pitch_bend_c, 8, 8544
8, 16955, Note_on_c, 8, 75, 0
8, 16955, Pitch_bend_c, 8, 8992
8, 16956, Pitch_bend_c, 8, 8192
8, 16957, Note_on_c, 8, 75, 89
8, 16958, Pitch_bend_c, 8, 8960
8, 16959, Pitch_bend_c, 8, 8672
8, 16960, Pitch_bend_c, 8, 8640
8, 16962, Pitch_bend_c, 8, 8576
8, 16963, Pitch_bend_c, 8, 8544
8, 16964, Pitch_bend_c, 8, 8480
8, 16966, Pitch_bend_c, 8, 8448
8, 16967, Pitch_bend_c, 8, 8416
8, 16969, Note_on_c, 8, 75, 0
8, 16969, Pitch_bend_c, 8, 8576
8, 16973, Pitch_bend_c, 8, 8192
8, 16974, Note_on_c, 8, 73, 89
8, 16974, Pitch_bend_c, 8, 9344
8, 16975, Pitch_bend_c, 8, 8608
8, 16978, Pitch_bend_c, 8, 8672
8, 16981, Pitch_bend_c, 8, 8704
8, 16983, Pitch_bend_c, 8, 8672
8, 16985, Pitch_bend_c, 8, 8608
8, 16986, Pitch_bend_c, 8, 8544
8, 16988, Pitch_bend_c, 8, 8448
8, 16989, Pitch_bend_c, 8, 8384
8, 16990, Pitch_bend_c, 8, 8352
8, 16992, Pitch_bend_c, 8, 8288
8, 16993, Pitch_bend_c, 8, 8352
8, 16995, Pitch_bend_c, 8, 8416
8, 16996, Pitch_bend_c, 8, 8576
8, 16997, Pitch_bend_c, 8, 8768
8, 16999, Pitch_bend_c, 8, 9024
8, 17000, Pitch_bend_c, 8, 9344
8, 17002, Pitch_bend_c, 8, 9792
8, 17003, Pitch_bend_c, 8, 10368
8, 17004, Pitch_bend_c, 8, 11040
8, 17006, Pitch_bend_c, 8, 11808
8, 17007, Pitch_bend_c, 8, 12608
8, 17009, Pitch_bend_c, 8, 13280
8, 17010, Pitch_bend_c, 8, 13792
8, 17011, Pitch_bend_c, 8, 14048
8, 17013, Pitch_bend_c, 8, 14144
8, 17014, Pitch_bend_c, 8, 14048
8, 17016, Pitch_bend_c, 8, 13536
8, 17018, Pitch_bend_c, 8, 10304
8, 17019, Pitch_bend_c, 8, 10048
8, 17020, Pitch_bend_c, 8, 9696
8, 17021, Pitch_bend_c, 8, 9344
8, 17023, Pitch_bend_c, 8, 9024
8, 17024, Pitch_bend_c, 8, 8992
8, 17026, Pitch_bend_c, 8, 9120
8, 17027, Pitch_bend_c, 8, 9376
8, 17029, Pitch_bend_c, 8, 9984
8, 17030, Pitch_bend_c, 8, 12736
8, 17031, Pitch_bend_c, 8, 12928
8, 17033, Pitch_bend_c, 8, 13248
8, 17034, Pitch_bend_c, 8, 13536
8, 17035, Pitch_bend_c, 8, 13888
8, 17037, Pitch_bend_c, 8, 13952
8, 17038, Pitch_bend_c, 8, 13760
8, 17040, Pitch_bend_c, 8, 10592
8, 17041, Pitch_bend_c, 8, 10272
8, 17042, Pitch_bend_c, 8, 9856
8, 17044, Pitch_bend_c, 8, 9440
8, 17045, Pitch_bend_c, 8, 9056
8, 17047, Pitch_bend_c, 8, 9344
8, 17048, Pitch_bend_c, 8, 11776
8, 17049, Pitch_bend_c, 8, 12000
8, 17051, Pitch_bend_c, 8, 12384
8, 17052, Pitch_bend_c, 8, 12864
8, 17053, Pitch_bend_c, 8, 13280
8, 17055, Pitch_bend_c, 8, 13440
8, 17056, Pitch_bend_c, 8, 13312
8, 17058, Pitch_bend_c, 8, 10592
8, 17059, Pitch_bend_c, 8, 10208
8, 17060, Pitch_bend_c, 8, 9600
8, 17062, Pitch_bend_c, 8, 8864
8, 17063, Note_on_c, 8, 73, 0
8, 17082, Note_on_c, 8, 70, 75
8, 17082, Pitch_bend_c, 8, 8256
8, 17083, Pitch_bend_c, 8, 8320
8, 17085, Pitch_bend_c, 8, 8288
8, 17087, Pitch_bend_c, 8, 8256
8, 17089, Pitch_bend_c, 8, 8224
8, 17090, Pitch_bend_c, 8, 8192
8, 17093, Pitch_bend_c, 8, 8160
8, 17094, Pitch_bend_c, 8, 8128
8, 17097, Pitch_bend_c, 8, 8096
8, 17099, Note_on_c, 8, 70, 0
8, 17099, Pitch_bend_c, 8, 8192
8, 17113, Note_on_c, 8, 72, 71
8, 17115, Pitch_bend_c, 8, 8160
8, 17116, Pitch_bend_c, 8, 8128
8, 17118, Pitch_bend_c, 8, 8160
8, 17120, Pitch_bend_c, 8, 8256
8, 17121, Pitch_bend_c, 8, 8512
8, 17122, Pitch_bend_c, 8, 8832
8, 17124, Pitch_bend_c, 8, 9152
8, 17125, Pitch_bend_c, 8, 9408
8, 17126, Pitch_bend_c, 8, 9600
8, 17128, Pitch_bend_c, 8, 9696
8, 17129, Pitch_bend_c, 8, 9792
8, 17131, Note_on_c, 8, 72, 0
8, 17144, Pitch_bend_c, 8, 8192
8, 17145, Note_on_c, 8, 72, 68
8, 17145, Pitch_bend_c, 8, 8032
8, 17149, Pitch_bend_c, 8, 8000
8, 17150, Pitch_bend_c, 8, 7968
8, 17152, Pitch_bend_c, 8, 7904
8, 17153, Pitch_bend_c, 8, 7872
8, 17155, Pitch_bend_c, 8, 7840
8, 17161, Note_on_c, 8, 72, 0
8, 17161, Pitch_bend_c, 8, 8000
8, 17163, Pitch_bend_c, 8, 8192
8, 17164, Note_on_c, 8, 70, 51
8, 17164, Pitch_bend_c, 8, 8096
8, 17165, Pitch_bend_c, 8, 8064
8, 17167, Pitch_bend_c, 8, 8096
8, 17170, Pitch_bend_c, 8, 8128
8, 17171, Pitch_bend_c, 8, 8160
8, 17172, Pitch_bend_c, 8, 8192
8, 17180, Note_on_c, 8, 70, 0
8, 17183, Note_on_c, 8, 67, 14
8, 17183, Pitch_bend_c, 8, 8128
8, 17184, Pitch_bend_c, 8, 8064
8, 17185, Pitch_bend_c, 8, 8096
8, 17189, Pitch_bend_c, 8, 8064
8, 17192, Pitch_bend_c, 8, 8032
8, 17196, Pitch_bend_c, 8, 8064
8, 17197, Note_on_c, 8, 67, 0
8, 17199, Pitch_bend_c, 8, 8192
8, 17200, Note_on_c, 8, 70, 44
8, 17200, Pitch_bend_c, 8, 8064
8, 17210, Pitch_bend_c, 8, 8096
8, 17213, Pitch_bend_c, 8, 8160
8, 17214, Pitch_bend_c, 8, 8192
8, 17217, Pitch_bend_c, 8, 8288
8, 17218, Pitch_bend_c, 8, 8480
8, 17220, Pitch_bend_c, 8, 8768
8, 17221, Pitch_bend_c, 8, 9024
8, 17223, Pitch_bend_c, 8, 9184
8, 17224, Pitch_bend_c, 8, 9216
8, 17225, Pitch_bend_c, 8, 9056
8, 17227, Pitch_bend_c, 8, 8704
8, 17228, Pitch_bend_c, 8, 8384
8, 17230, Pitch_bend_c, 8, 8160
8, 17231, Pitch_bend_c, 8, 8000
8, 17234, Pitch_bend_c, 8, 8064
8, 17235, Pitch_bend_c, 8, 8160
8, 17236, Pitch_bend_c, 8, 8224
8, 17238, Pitch_bend_c, 8, 8320
8, 17239, Pitch_bend_c, 8, 8352
8, 17240, Pitch_bend_c, 8, 8256
8, 17242, Pitch_bend_c, 8, 8160
8, 17243, Pitch_bend_c, 8, 8064
8, 17245, Pitch_bend_c, 8, 8032
8, 17246, Pitch_bend_c, 8, 8064
8, 17248, Pitch_bend_c, 8, 8128
8, 17249, Pitch_bend_c, 8, 8192
8, 17252, Pitch_bend_c, 8, 8224
8, 17253, Pitch_bend_c, 8, 8256
8, 17255, Note_on_c, 8, 70, 0
8, 17255, Pitch_bend_c, 8, 8288
8, 17257, Pitch_bend_c, 8, 8192
8, 17258, Note_on_c, 8, 70, 58
8, 17258, Pitch_bend_c, 8, 8288
8, 17259, Pitch_bend_c, 8, 8320
8, 17262, Pitch_bend_c, 8, 8288
8, 17264, Pitch_bend_c, 8, 8224
8, 17265, Pitch_bend_c, 8, 8192
8, 17266, Pitch_bend_c, 8, 8160
8, 17268, Pitch_bend_c, 8, 8128
8, 17269, Pitch_bend_c, 8, 8096
8, 17270, Pitch_bend_c, 8, 8064
8, 17273, Pitch_bend_c, 8, 8032
8, 17278, Note_on_c, 8, 70, 0
8, 17278, Pitch_bend_c, 8, 8160
8, 17283, Note_on_c, 8, 73, 68
8, 17284, Pitch_bend_c, 8, 8224
8, 17286, Pitch_bend_c, 8, 8256
8, 17287, Pitch_bend_c, 8, 8288
8, 17288, Pitch_bend_c, 8, 8448
8, 17290, Pitch_bend_c, 8, 8736
8, 17291, Pitch_bend_c, 8, 9312
8, 17293, Pitch_bend_c, 8, 9984
8, 17294, Pitch_bend_c, 8, 12160
8, 17296, Pitch_bend_c, 8, 12352
8, 17298, Pitch_bend_c, 8, 12512
8, 17299, Pitch_bend_c, 8, 12672
8, 17300, Pitch_bend_c, 8, 12864
8, 17301, Note_on_c, 8, 73, 0
8, 17317, Note_on_c, 8, 73, 54
8, 17317, Pitch_bend_c, 8, 8128
8, 17318, Pitch_bend_c, 8, 8064
8, 17320, Pitch_bend_c, 8, 8128
8, 17321, Pitch_bend_c, 8, 8160
8, 17323, Pitch_bend_c, 8, 8224
8, 17324, Pitch_bend_c, 8, 8352
8, 17325, Pitch_bend_c, 8, 8448
8, 17327, Pitch_bend_c, 8, 8672
8, 17328, Pitch_bend_c, 8, 8768
8, 17330, Pitch_bend_c, 8, 8896
8, 17331, Pitch_bend_c, 8, 9024
8, 17333, Pitch_bend_c, 8, 9152
8, 17334, Pitch_bend_c, 8, 9280
8, 17335, Pitch_bend_c, 8, 9440
8, 17337, Pitch_bend_c, 8, 9600
8, 17338, Pitch_bend_c, 8, 9760
8, 17339, Pitch_bend_c, 8, 9952
8, 17341, Pitch_bend_c, 8, 10144
8, 17342, Pitch_bend_c, 8, 10400
8, 17344, Pitch_bend_c, 8, 10720
8, 17346, Pitch_bend_c, 8, 11040
8, 17347, Pitch_bend_c, 8, 11360
8, 17348, Pitch_bend_c, 8, 11680
8, 17350, Pitch_bend_c, 8, 11936
8, 17351, Pitch_bend_c, 8, 12128
8, 17353, Pitch_bend_c, 8, 12256
8, 17354, Pitch_bend_c, 8, 12288
8, 17358, Pitch_bend_c, 8, 12224
8, 17359, Pitch_bend_c, 8, 12096
8, 17361, Pitch_bend_c, 8, 11808
8, 17362, Pitch_bend_c, 8, 11360
8, 17364, Pitch_bend_c, 8, 10880
8, 17365, Pitch_bend_c, 8, 10464
8, 17366, Pitch_bend_c, 8, 10240
8, 17368, Pitch_bend_c, 8, 10144
8, 17369, Pitch_bend_c, 8, 10304
8, 17370, Pitch_bend_c, 8, 10688
8, 17372, Pitch_bend_c, 8, 11200
8, 17373, Pitch_bend_c, 8, 11808
8, 17375, Pitch_bend_c, 8, 12416
8, 17376, Pitch_bend_c, 8, 12896
8, 17377, Pitch_bend_c, 8, 13152
8, 17379, Pitch_bend_c, 8, 13184
8, 17380, Pitch_bend_c, 8, 12928
8, 17381, Pitch_bend_c, 8, 12352
8, 17383, Pitch_bend_c, 8, 9792
8, 17385, Pitch_bend_c, 8, 9760
8, 17386, Pitch_bend_c, 8, 9696
8, 17388, Pitch_bend_c, 8, 9760
8, 17389, Pitch_bend_c, 8, 10048
8, 17390, Pitch_bend_c, 8, 10688
8, 17392, Pitch_bend_c, 8, 11456
8, 17393, Pitch_bend_c, 8, 12128
8, 17394, Pitch_bend_c, 8, 12544
8, 17396, Pitch_bend_c, 8, 12736
8, 17397, Pitch_bend_c, 8, 12544
8, 17399, Note_on_c, 8, 73, 0
8, 17485, Pitch_bend_c, 8, 8192
8, 17486, Note_on_c, 8, 70, 100
8, 17486, Pitch_bend_c, 8, 8352
8, 17487, Pitch_bend_c, 8, 8224
8, 17490, Pitch_bend_c, 8, 8256
8, 17492, Pitch_bend_c, 8, 8288
8, 17494, Pitch_bend_c, 8, 8320
8, 17497, Pitch_bend_c, 8, 8416
8, 17499, Pitch_bend_c, 8, 8640
8, 17500, Pitch_bend_c, 8, 9024
8, 17502, Pitch_bend_c, 8, 9408
8, 17503, Pitch_bend_c, 8, 9664
8, 17506, Pitch_bend_c, 8, 9312
8, 17507, Pitch_bend_c, 8, 8768
8, 17509, Pitch_bend_c, 8, 8288
8, 17510, Pitch_bend_c, 8, 8032
8, 17512, Pitch_bend_c, 8, 7936
8, 17513, Pitch_bend_c, 8, 8000
8, 17514, Pitch_bend_c, 8, 8224
8, 17516, Pitch_bend_c, 8, 8576
8, 17517, Pitch_bend_c, 8, 8960
8, 17519, Pitch_bend_c, 8, 9248
8, 17522, Pitch_bend_c, 8, 9056
8, 17523, Pitch_bend_c, 8, 8832
8, 17525, Pitch_bend_c, 8, 8576
8, 17526, Pitch_bend_c, 8, 8320
8, 17527, Pitch_bend_c, 8, 8192
8, 17527, Note_on_c, 8, 67, 84
8, 17531, Note_on_c, 8, 70, 0
8, 17532, Pitch_bend_c, 8, 8256
8, 17534, Pitch_bend_c, 8, 8192
8, 17535, Pitch_bend_c, 8, 8128
8, 17536, Pitch_bend_c, 8, 8032
8, 17539, Pitch_bend_c, 8, 8000
8, 17541, Note_on_c, 8, 67, 0
8, 17542, Pitch_bend_c, 8, 8192
8, 17543, Note_on_c, 8, 73, 99
8, 17543, Pitch_bend_c, 8, 7680
8, 17546, Pitch_bend_c, 8, 7616
8, 17548, Pitch_bend_c, 8, 7552
8, 17549, Pitch_bend_c, 8, 7584
8, 17551, Pitch_bend_c, 8, 7552
8, 17552, Pitch_bend_c, 8, 7584
8, 17553, Pitch_bend_c, 8, 7648
8, 17555, Pitch_bend_c, 8, 7776
8, 17556, Pitch_bend_c, 8, 7936
8, 17557, Pitch_bend_c, 8, 8192
8, 17559, Pitch_bend_c, 8, 8512
8, 17560, Pitch_bend_c, 8, 9056
8, 17562, Pitch_bend_c, 8, 9792
8, 17563, Pitch_bend_c, 8, 10624
8, 17564, Pitch_bend_c, 8, 11392
8, 17566, Pitch_bend_c, 8, 12000
8, 17567, Pitch_bend_c, 8, 12352
8, 17568, Note_on_c, 8, 73, 0
8, 17670, Pitch_bend_c, 8, 8192
8, 17670, Note_on_c, 8, 70, 85
8, 17671, Pitch_bend_c, 8, 8288
8, 17672, Pitch_bend_c, 8, 8256
8, 17677, Pitch_bend_c, 8, 8224
8, 17679, Pitch_bend_c, 8, 8192
8, 17680, Pitch_bend_c, 8, 8000
8, 17681, Pitch_bend_c, 8, 7776
8, 17682, Note_on_c, 8, 70, 0
8, 17682, Pitch_bend_c, 8, 8256
8, 17697, Pitch_bend_c, 8, 8192
8, 17703, Note_on_c, 8, 79, 96
8, 17703, Pitch_bend_c, 8, 8768
8, 17704, Pitch_bend_c, 8, 8544
8, 17705, Pitch_bend_c, 8, 8608
8, 17708, Pitch_bend_c, 8, 8544
8, 17711, Pitch_bend_c, 8, 8608
8, 17712, Pitch_bend_c, 8, 8736
8, 17714, Pitch_bend_c, 8, 8960
8, 17715, Pitch_bend_c, 8, 9344
8, 17716, Pitch_bend_c, 8, 9760
8, 17718, Pitch_bend_c, 8, 10144
8, 17719, Pitch_bend_c, 8, 10560
8, 17720, Pitch_bend_c, 8, 10848
8, 17722, Pitch_bend_c, 8, 11136
8, 17723, Pitch_bend_c, 8, 11360
8, 17725, Pitch_bend_c, 8, 11520
8, 17726, Pitch_bend_c, 8, 11712
8, 17727, Pitch_bend_c, 8, 11808
8, 17729, Pitch_bend_c, 8, 11872
8, 17730, Pitch_bend_c, 8, 11936
8, 17748, Pitch_bend_c, 8, 12000
8, 17750, Pitch_bend_c, 8, 12096
8, 17751, Pitch_bend_c, 8, 12224
8, 17753, Pitch_bend_c, 8, 12384
8, 17754, Pitch_bend_c, 8, 12512
8, 17755, Pitch_bend_c, 8, 12576
8, 17757, Pitch_bend_c, 8, 12640
8, 17764, Pitch_bend_c, 8, 12704
8, 17768, Pitch_bend_c, 8, 12640
8, 17769, Pitch_bend_c, 8, 12448
8, 17771, Pitch_bend_c, 8, 12160
8, 17772, Pitch_bend_c, 8, 11648
8, 17773, Note_on_c, 8, 79, 0
8, 17773, Pitch_bend_c, 8, 12704
8, 17798, Pitch_bend_c, 8, 8192
8, 17799, Note_on_c, 8, 77, 88
8, 17799, Pitch_bend_c, 8, 8640
8, 17800, Pitch_bend_c, 8, 8896
8, 17802, Pitch_bend_c, 8, 8736
8, 17803, Pitch_bend_c, 8, 8640
8, 17805, Pitch_bend_c, 8, 8480
8, 17807, Pitch_bend_c, 8, 8416
8, 17815, Pitch_bend_c, 8, 8544
8, 17816, Pitch_bend_c, 8, 8576
8, 17817, Pitch_bend_c, 8, 8672
8, 17819, Pitch_bend_c, 8, 8992
8, 17820, Pitch_bend_c, 8, 9344
8, 17821, Pitch_bend_c, 8, 9792
8, 17823, Pitch_bend_c, 8, 10272
8, 17824, Pitch_bend_c, 8, 10528
8, 17826, Pitch_bend_c, 8, 10656
8, 17827, Pitch_bend_c, 8, 10624
8, 17828, Pitch_bend_c, 8, 10304
8, 17830, Pitch_bend_c, 8, 9792
8, 17831, Pitch_bend_c, 8, 9248
8, 17832, Pitch_bend_c, 8, 8800
8, 17834, Pitch_bend_c, 8, 8576
8, 17835, Pitch_bend_c, 8, 8544
8, 17838, Pitch_bend_c, 8, 8480
8, 17840, Pitch_bend_c, 8, 8544
8, 17841, Pitch_bend_c, 8, 8576
8, 17842, Pitch_bend_c, 8, 8672
8, 17844, Pitch_bend_c, 8, 8832
8, 17845, Pitch_bend_c, 8, 8992
8, 17847, Pitch_bend_c, 8, 9088
8, 17848, Pitch_bend_c, 8, 9152
8, 17854, Pitch_bend_c, 8, 9056
8, 17855, Pitch_bend_c, 8, 8928
8, 17856, Pitch_bend_c, 8, 8832
8, 17858, Note_on_c, 8, 77, 0
8, 17858, Pitch_bend_c, 8, 9152
8, 17860, Note_on_c, 8, 75, 87
8, 17860, Pitch_bend_c, 8, 8448
8, 17864, Pitch_bend_c, 8, 8416
8, 17865, Pitch_bend_c, 8, 8352
8, 17872, Pitch_bend_c, 8, 8416
8, 17876, Pitch_bend_c, 8, 8352
8, 17878, Note_on_c, 8, 75, 0
8, 17878, Pitch_bend_c, 8, 8448
8, 17880, Pitch_bend_c, 8, 8192
8, 17881, Note_on_c, 8, 77, 85
8, 17881, Pitch_bend_c, 8, 8320
8, 17883, Pitch_bend_c, 8, 8288
8, 17888, Note_on_c, 8, 77, 0
8, 17899, Pitch_bend_c, 8, 8192
8, 17899, Note_on_c, 8, 72, 79
8, 17907, Pitch_bend_c, 8, 8128
8, 17909, Pitch_bend_c, 8, 8096
8, 17910, Pitch_bend_c, 8, 12064
8, 17916, Pitch_bend_c, 8, 12096
8, 17917, Pitch_bend_c, 8, 8128
8, 17922, Pitch_bend_c, 8, 8160
8, 17923, Pitch_bend_c, 8, 8224
8, 17925, Pitch_bend_c, 8, 8320
8, 17926, Note_on_c, 8, 72, 0
8, 17926, Note_on_c, 8, 69, 63
8, 17926, Pitch_bend_c, 8, 12256
8, 17931, Pitch_bend_c, 8, 12288
8, 17932, Pitch_bend_c, 8, 12320
8, 17935, Pitch_bend_c, 8, 12352
8, 17939, Pitch_bend_c, 8, 12384
8, 17942, Note_on_c, 8, 69, 0
8, 17942, Pitch_bend_c, 8, 8192
8, 17942, Note_on_c, 8, 67, 14
8, 17944, Pitch_bend_c, 8, 8064
8, 17947, Pitch_bend_c, 8, 8096
8, 17950, Pitch_bend_c, 8, 8064
8, 17953, Pitch_bend_c, 8, 8032
8, 17960, Pitch_bend_c, 8, 8192
8, 17960, Note_on_c, 8, 70, 79
8, 17961, Note_on_c, 8, 67, 0
8, 17964, Pitch_bend_c, 8, 8256
8, 17966, Pitch_bend_c, 8, 8224
8, 17975, Pitch_bend_c, 8, 8192
8, 17979, Pitch_bend_c, 8, 8160
8, 17984, Note_on_c, 8, 70, 0
8, 17984, Pitch_bend_c, 8, 8192
8, 17989, Note_on_c, 8, 72, 79
8, 17989, Pitch_bend_c, 8, 8224
8, 17998, Pitch_bend_c, 8, 8192
8, 18002, Pitch_bend_c, 8, 8160
8, 18003, Pitch_bend_c, 8, 12128
8, 18007, Pitch_bend_c, 8, 12192
8, 18008, Pitch_bend_c, 8, 12224
8, 18010, Pitch_bend_c, 8, 8128
8, 18013, Pitch_bend_c, 8, 8032
8, 18014, Pitch_bend_c, 8, 8000
8, 18015, Pitch_bend_c, 8, 8096
8, 18017, Pitch_bend_c, 8, 8192
8, 18022, Note_on_c, 8, 72, 0
8, 18022, Note_on_c, 8, 69, 62
8, 18022, Pitch_bend_c, 8, 12288
8, 18023, Pitch_bend_c, 8, 12224
8, 18026, Pitch_bend_c, 8, 12256
8, 18028, Pitch_bend_c, 8, 12288
8, 18029, Pitch_bend_c, 8, 12320
8, 18033, Pitch_bend_c, 8, 12352
8, 18037, Pitch_bend_c, 8, 12320
8, 18039, Note_on_c, 8, 69, 0
8, 18039, Pitch_bend_c, 8, 8192
8, 18039, Note_on_c, 8, 67, 14
8, 18043, Pitch_bend_c, 8, 8160
8, 18047, Pitch_bend_c, 8, 8096
8, 18048, Pitch_bend_c, 8, 8064
8, 18050, Pitch_bend_c, 8, 8032
8, 18054, Note_on_c, 8, 67, 0
8, 18054, Pitch_bend_c, 8, 8192
8, 18054, Note_on_c, 8, 70, 76
8, 18067, Pitch_bend_c, 8, 8160
8, 18068, Pitch_bend_c, 8, 8128
8, 18071, Pitch_bend_c, 8, 8224
8, 18072, Pitch_bend_c, 8, 8544
8, 18074, Pitch_bend_c, 8, 8960
8, 18075, Pitch_bend_c, 8, 9344
8, 18076, Pitch_bend_c, 8, 9472
8, 18078, Pitch_bend_c, 8, 9312
8, 18079, Pitch_bend_c, 8, 8896
8, 18081, Pitch_bend_c, 8, 8480
8, 18082, Pitch_bend_c, 8, 8192
8, 18083, Pitch_bend_c, 8, 8032
8, 18086, Pitch_bend_c, 8, 8096
8, 18088, Pitch_bend_c, 8, 8256
8, 18089, Pitch_bend_c, 8, 8544
8, 18091, Pitch_bend_c, 8, 8832
8, 18092, Pitch_bend_c, 8, 9024
8, 18093, Note_on_c, 8, 70, 0
8, 18300, Pitch_bend_c, 8, 4544
8, 18300, Note_on_c, 8, 80, 106
8, 18301, Pitch_bend_c, 8, 4384
8, 18307, Pitch_bend_c, 8, 4320
8, 18310, Pitch_bend_c, 8, 4256
8, 18312, Pitch_bend_c, 8, 4192
8, 18314, Pitch_bend_c, 8, 4128
8, 18318, Note_on_c, 8, 80, 0
8, 18318, Pitch_bend_c, 8, 4384
8, 18319, Pitch_bend_c, 8, 8192
8, 18325, Note_on_c, 8, 77, 89
8, 18325, Pitch_bend_c, 8, 8640
8, 18326, Pitch_bend_c, 8, 8672
8, 18327, Pitch_bend_c, 8, 8640
8, 18332, Pitch_bend_c, 8, 8576
8, 18333, Pitch_bend_c, 8, 8544
8, 18337, Pitch_bend_c, 8, 8576
8, 18338, Note_on_c, 8, 77, 0
8, 18338, Pitch_bend_c, 8, 8672
8, 18350, Pitch_bend_c, 8, 8192
8, 18351, Note_on_c, 8, 79, 90
8, 18351, Pitch_bend_c, 8, 8320
8, 18352, Pitch_bend_c, 8, 8448
8, 18353, Pitch_bend_c, 8, 8384
8, 18355, Pitch_bend_c, 8, 8480
8, 18356, Pitch_bend_c, 8, 8672
8, 18358, Pitch_bend_c, 8, 8896
8, 18359, Pitch_bend_c, 8, 9248
8, 18361, Pitch_bend_c, 8, 9696
8, 18362, Pitch_bend_c, 8, 10208
8, 18363, Pitch_bend_c, 8, 10784
8, 18365, Pitch_bend_c, 8, 11232
8, 18366, Pitch_bend_c, 8, 11648
8, 18367, Pitch_bend_c, 8, 12000
8, 18369, Pitch_bend_c, 8, 12224
8, 18370, Pitch_bend_c, 8, 12384
8, 18372, Pitch_bend_c, 8, 12448
8, 18375, Pitch_bend_c, 8, 12384
8, 18376, Note_on_c, 8, 79, 0
8, 18376, Pitch_bend_c, 8, 12320
8, 18411, Pitch_bend_c, 8, 8192
8, 18412, Note_on_c, 8, 77, 88
8, 18412, Pitch_bend_c, 8, 8544
8, 18416, Pitch_bend_c, 8, 8480
8, 18419, Pitch_bend_c, 8, 8416
8, 18420, Pitch_bend_c, 8, 8384
8, 18422, Pitch_bend_c, 8, 8320
8, 18423, Pitch_bend_c, 8, 8288
8, 18424, Pitch_bend_c, 8, 8224
8, 18426, Note_on_c, 8, 77, 0
8, 18426, Pitch_bend_c, 8, 8384
8, 18432, Pitch_bend_c, 8, 8192
8, 18433, Note_on_c, 8, 75, 87
8, 18433, Pitch_bend_c, 8, 8544
8, 18434, Pitch_bend_c, 8, 8576
8, 18436, Pitch_bend_c, 8, 8640
8, 18440, Pitch_bend_c, 8, 8576
8, 18441, Pitch_bend_c, 8, 8480
8, 18443, Pitch_bend_c, 8, 8448
8, 18444, Note_on_c, 8, 75, 0
8, 18445, Pitch_bend_c, 8, 8416
8, 18448, Note_on_c, 8, 77, 81
8, 18448, Pitch_bend_c, 8, 8640
8, 18451, Pitch_bend_c, 8, 8576
8, 18454, Pitch_bend_c, 8, 8544
8, 18455, Pitch_bend_c, 8, 8480
8, 18456, Pitch_bend_c, 8, 8192
8, 18457, Note_on_c, 8, 77, 0
8, 18457, Pitch_bend_c, 8, 8640
8, 18465, Pitch_bend_c, 8, 8192
8, 18466, Note_on_c, 8, 72, 83
8, 18467, Pitch_bend_c, 8, 8352
8, 18468, Pitch_bend_c, 8, 8256
8, 18472, Pitch_bend_c, 8, 8320
8, 18473, Pitch_bend_c, 8, 8288
8, 18476, Pitch_bend_c, 8, 8256
8, 18478, Pitch_bend_c, 8, 8192
8, 18482, Pitch_bend_c, 8, 12288
8, 18486, Pitch_bend_c, 8, 12320
8, 18487, Pitch_bend_c, 8, 12352
8, 18489, Pitch_bend_c, 8, 12512
8, 18490, Pitch_bend_c, 8, 12608
8, 18492, Pitch_bend_c, 8, 8224
8, 18493, Pitch_bend_c, 8, 8192
8, 18495, Pitch_bend_c, 8, 8352
8, 18496, Pitch_bend_c, 8, 8480
8, 18497, Pitch_bend_c, 8, 8608
8, 18499, Note_on_c, 8, 72, 0
8, 18499, Note_on_c, 8, 69, 46
8, 18499, Pitch_bend_c, 8, 12288
8, 18500, Pitch_bend_c, 8, 12256
8, 18503, Pitch_bend_c, 8, 12288
8, 18504, Pitch_bend_c, 8, 12320
8, 18506, Pitch_bend_c, 8, 12352
8, 18508, Pitch_bend_c, 8, 12384
8, 18509, Note_on_c, 8, 69, 0
8, 18510, Note_on_c, 8, 72, 79
8, 18510, Pitch_bend_c, 8, 8192
8, 18511, Pitch_bend_c, 8, 8672
8, 18516, Pitch_bend_c, 8, 8640
8, 18519, Pitch_bend_c, 8, 8608
8, 18520, Pitch_bend_c, 8, 8512
8, 18521, Pitch_bend_c, 8, 8448
8, 18523, Pitch_bend_c, 8, 8416
8, 18524, Note_on_c, 8, 72, 0
8, 18524, Pitch_bend_c, 8, 8640
8, 18526, Pitch_bend_c, 8, 8192
8, 18527, Note_on_c, 8, 67, 56
8, 18528, Pitch_bend_c, 8, 8160
8, 18530, Pitch_bend_c, 8, 8128
8, 18535, Pitch_bend_c, 8, 8096
8, 18541, Pitch_bend_c, 8, 8064
8, 18542, Note_on_c, 8, 67, 0
8, 18542, Note_on_c, 8, 70, 81
8, 18542, Pitch_bend_c, 8, 8192
8, 18543, Pitch_bend_c, 8, 8352
8, 18544, Pitch_bend_c, 8, 8320
8, 18546, Pitch_bend_c, 8, 8352
8, 18550, Pitch_bend_c, 8, 8320
8, 18552, Pitch_bend_c, 8, 8288
8, 18553, Pitch_bend_c, 8, 8256
8, 18554, Pitch_bend_c, 8, 8192
8, 18556, Pitch_bend_c, 8, 8160
8, 18557, Pitch_bend_c, 8, 8128
8, 18559, Pitch_bend_c, 8, 8096
8, 18560, Pitch_bend_c, 8, 8064
8, 18565, Note_on_c, 8, 70, 0
8, 18565, Pitch_bend_c, 8, 8192
8, 18570, Note_on_c, 8, 73, 83
8, 18570, Pitch_bend_c, 8, 8224
8, 18574, Pitch_bend_c, 8, 8256
8, 18575, Pitch_bend_c, 8, 8288
8, 18577, Pitch_bend_c, 8, 8256
8, 18578, Pitch_bend_c, 8, 8224
8, 18580, Pitch_bend_c, 8, 8160
8, 18581, Pitch_bend_c, 8, 8064
8, 18584, Pitch_bend_c, 8, 8032
8, 18591, Pitch_bend_c, 8, 8160
8, 18592, Pitch_bend_c, 8, 8416
8, 18593, Pitch_bend_c, 8, 9024
8, 18595, Pitch_bend_c, 8, 11936
8, 18597, Pitch_bend_c, 8, 12128
8, 18598, Pitch_bend_c, 8, 12384
8, 18599, Pitch_bend_c, 8, 12672
8, 18601, Pitch_bend_c, 8, 12928
8, 18602, Note_on_c, 8, 73, 0
8, 18641, Pitch_bend_c, 8, 8192
8, 18642, Note_on_c, 8, 69, 89
8, 18642, Pitch_bend_c, 8, 8512
8, 18646, Pitch_bend_c, 8, 8480
8, 18647, Pitch_bend_c, 8, 8416
8, 18648, Pitch_bend_c, 8, 8352
8, 18650, Pitch_bend_c, 8, 8320
8, 18651, Pitch_bend_c, 8, 8224
8, 18653, Pitch_bend_c, 8, 12288
8, 18654, Pitch_bend_c, 8, 12320
8, 18658, Pitch_bend_c, 8, 12352
8, 18661, Pitch_bend_c, 8, 12384
8, 18668, Pitch_bend_c, 8, 12352
8, 18671, Pitch_bend_c, 8, 12288
8, 18672, Note_on_c, 8, 69, 0
8, 18672, Pitch_bend_c, 8, 12320
8, 18684, Note_on_c, 8, 65, 91
8, 18684, Pitch_bend_c, 8, 8352
8, 18687, Pitch_bend_c, 8, 8384
8, 18690, Pitch_bend_c, 8, 8416
8, 18696, Pitch_bend_c, 8, 8352
8, 18698, Pitch_bend_c, 8, 8288
8, 18699, Pitch_bend_c, 8, 8416
8, 18700, Note_on_c, 8, 65, 0
8, 18703, Note_on_c, 8, 63, 79
8, 18703, Pitch_bend_c, 8, 8128
8, 18705, Pitch_bend_c, 8, 8160
8, 18706, Pitch_bend_c, 8, 8128
8, 18713, Pitch_bend_c, 8, 8096
8, 18715, Note_on_c, 8, 63, 0
8, 18715, Pitch_bend_c, 8, 8160
8, 18718, Note_on_c, 8, 65, 92
8, 18718, Pitch_bend_c, 8, 8288
8, 18730, Pitch_bend_c, 8, 8352
8, 18731, Note_on_c, 8, 65, 0
8, 18733, Pitch_bend_c, 8, 8192
8, 18734, Note_on_c, 8, 61, 79
8, 18734, Pitch_bend_c, 8, 8288
8, 18738, Pitch_bend_c, 8, 8352
8, 18739, Pitch_bend_c, 8, 8416
8, 18741, Pitch_bend_c, 8, 8448
8, 18744, Pitch_bend_c, 8, 8352
8, 18745, Pitch_bend_c, 8, 8288
8, 18747, Pitch_bend_c, 8, 8480
8, 18748, Pitch_bend_c, 8, 8928
8, 18750, Pitch_bend_c, 8, 9664
8, 18751, Pitch_bend_c, 8, 10496
8, 18752, Pitch_bend_c, 8, 11168
8, 18754, Pitch_bend_c, 8, 11648
8, 18755, Pitch_bend_c, 8, 11872
8, 18756, Pitch_bend_c, 8, 11936
8, 18757, Note_on_c, 8, 61, 0
8, 18760, Note_on_c, 8, 58, 62
8, 18760, Pitch_bend_c, 8, 8192
8, 18761, Pitch_bend_c, 8, 8160
8, 18764, Pitch_bend_c, 8, 8192
8, 18766, Pitch_bend_c, 8, 8224
8, 18769, Pitch_bend_c, 8, 8256
8, 18770, Pitch_bend_c, 8, 8224
8, 18772, Pitch_bend_c, 8, 8192
8, 18777, Pitch_bend_c, 8, 8000
8, 18778, Note_on_c, 8, 58, 0
8, 18778, Pitch_bend_c, 8, 8224
8, 18791, Note_on_c, 8, 63, 91
8, 18791, Pitch_bend_c, 8, 8576
8, 18792, Pitch_bend_c, 8, 8480
8, 18793, Pitch_bend_c, 8, 8576
8, 18796, Pitch_bend_c, 8, 8544
8, 18797, Pitch_bend_c, 8, 8480
8, 18799, Pitch_bend_c, 8, 8512
8, 18801, Pitch_bend_c, 8, 8832
8, 18802, Pitch_bend_c, 8, 9280
8, 18803, Pitch_bend_c, 8, 9824
8, 18805, Pitch_bend_c, 8, 10304
8, 18806, Note_on_c, 8, 63, 0
8, 18818, Pitch_bend_c, 8, 8192
8, 18819, Note_on_c, 8, 63, 91
8, 18819, Pitch_bend_c, 8, 8288
8, 18820, Pitch_bend_c, 8, 8192
8, 18821, Pitch_bend_c, 8, 8224
8, 18823, Pitch_bend_c, 8, 8192
8, 18825, Pitch_bend_c, 8, 8224
8, 18826, Pitch_bend_c, 8, 8192
8, 18827, Pitch_bend_c, 8, 8224
8, 18831, Pitch_bend_c, 8, 8192
8, 18833, Pitch_bend_c, 8, 8160
8, 18834, Note_on_c, 8, 63, 0
8, 18834, Pitch_bend_c, 8, 8192
8, 18846, Note_on_c, 8, 61, 75
8, 18846, Pitch_bend_c, 8, 8160
8, 18848, Pitch_bend_c, 8, 8192
8, 18857, Pitch_bend_c, 8, 8160
8, 18860, Pitch_bend_c, 8, 8128
8, 18863, Pitch_bend_c, 8, 8096
8, 18864, Pitch_bend_c, 8, 8064
8, 18873, Pitch_bend_c, 8, 8160
8, 18874, Pitch_bend_c, 8, 8288
8, 18876, Pitch_bend_c, 8, 8672
8, 18877, Pitch_bend_c, 8, 9216
8, 18879, Pitch_bend_c, 8, 9920
8, 18880, Pitch_bend_c, 8, 10528
8, 18881, Pitch_bend_c, 8, 10848
8, 18883, Pitch_bend_c, 8, 10912
8, 18884, Pitch_bend_c, 8, 10784
8, 18885, Pitch_bend_c, 8, 10624
8, 18886, Note_on_c, 8, 61, 0
8, 18909, Pitch_bend_c, 8, 8192
8, 18910, Note_on_c, 8, 68, 89
8, 18911, Pitch_bend_c, 8, 8224
8, 18912, Pitch_bend_c, 8, 8288
8, 18913, Pitch_bend_c, 8, 8256
8, 18915, Pitch_bend_c, 8, 8224
8, 18916, Pitch_bend_c, 8, 8192
8, 18928, Pitch_bend_c, 8, 8160
8, 18930, Pitch_bend_c, 8, 8192
8, 18946, Pitch_bend_c, 8, 8224
8, 18947, Pitch_bend_c, 8, 8352
8, 18948, Pitch_bend_c, 8, 8672
8, 18950, Pitch_bend_c, 8, 8896
8, 18951, Note_on_c, 8, 68, 0
8, 18951, Note_on_c, 8, 65, 60
8, 18952, Pitch_bend_c, 8, 8192
8, 18953, Pitch_bend_c, 8, 8256
8, 18954, Pitch_bend_c, 8, 8224
8, 18956, Pitch_bend_c, 8, 8192
8, 18961, Pitch_bend_c, 8, 8288
8, 18962, Note_on_c, 8, 65, 0
8, 18962, Note_on_c, 8, 63, 88
8, 18962, Pitch_bend_c, 8, 8064
8, 18963, Pitch_bend_c, 8, 8160
8, 18964, Pitch_bend_c, 8, 8192
8, 18965, Pitch_bend_c, 8, 8128
8, 18966, Pitch_bend_c, 8, 8096
8, 18968, Pitch_bend_c, 8, 8000
8, 18969, Note_on_c, 8, 63, 0
8, 18971, Pitch_bend_c, 8, 8192
8, 18972, Note_on_c, 8, 61, 79
8, 18972, Pitch_bend_c, 8, 8384
8, 18973, Pitch_bend_c, 8, 8000
8, 18974, Pitch_bend_c, 8, 8096
8, 18976, Pitch_bend_c, 8, 8064
8, 18978, Pitch_bend_c, 8, 8160
8, 18979, Pitch_bend_c, 8, 8192
8, 18979, Note_on_c, 8, 58, 53
8, 18980, Note_on_c, 8, 61, 0
8, 18980, Pitch_bend_c, 8, 8224
8, 18981, Pitch_bend_c, 8, 8192
8, 18984, Pitch_bend_c, 8, 8160
8, 18985, Pitch_bend_c, 8, 8000
8, 18987, Pitch_bend_c, 8, 7712
8, 18988, Pitch_bend_c, 8, 7168
8, 18989, Note_on_c, 8, 58, 0
8, 18990, Pitch_bend_c, 8, 8192
8, 18991, Note_on_c, 8, 63, 89
8, 18991, Pitch_bend_c, 8, 8128
8, 18992, Pitch_bend_c, 8, 8192
8, 18998, Pitch_bend_c, 8, 8160
8, 18999, Pitch_bend_c, 8, 8128
8, 19002, Pitch_bend_c, 8, 8096
8, 19003, Pitch_bend_c, 8, 8064
8, 19007, Pitch_bend_c, 8, 8032
8, 19010, Pitch_bend_c, 8, 8000
8, 19016, Pitch_bend_c, 8, 8064
8, 19018, Pitch_bend_c, 8, 8128
8, 19019, Note_on_c, 8, 63, 0
8, 19019, Note_on_c, 8, 60, 73
8, 19019, Pitch_bend_c, 8, 12032
8, 19020, Pitch_bend_c, 8, 12064
8, 19023, Pitch_bend_c, 8, 12288
8, 19025, Pitch_bend_c, 8, 12352
8, 19026, Note_on_c, 8, 60, 0
8, 19026, Pitch_bend_c, 8, 12448
8, 19027, Note_on_c, 8, 58, 62
8, 19027, Pitch_bend_c, 8, 8064
8, 19030, Pitch_bend_c, 8, 8096
8, 19031, Pitch_bend_c, 8, 8128
8, 19032, Pitch_bend_c, 8, 8160
8, 19034, Note_on_c, 8, 58, 0
8, 19034, Pitch_bend_c, 8, 8192
8, 19037, Note_on_c, 8, 56, 71
8, 19039, Pitch_bend_c, 8, 8224
8, 19041, Pitch_bend_c, 8, 8192
8, 19042, Pitch_bend_c, 8, 8256
8, 19046, Pitch_bend_c, 8, 8192
8, 19046, Note_on_c, 8, 53, 63
8, 19047, Note_on_c, 8, 56, 0
8, 19047, Pitch_bend_c, 8, 7936
8, 19053, Pitch_bend_c, 8, 7968
8, 19055, Pitch_bend_c, 8, 7936
8, 19058, Pitch_bend_c, 8, 7904
8, 19063, Pitch_bend_c, 8, 7936
8, 19065, Pitch_bend_c, 8, 7968
8, 19066, Pitch_bend_c, 8, 8064
8, 19067, Pitch_bend_c, 8, 8288
8, 19069, Pitch_bend_c, 8, 8672
8, 19070, Pitch_bend_c, 8, 9088
8, 19072, Pitch_bend_c, 8, 9408
8, 19074, Pitch_bend_c, 8, 9088
8, 19076, Pitch_bend_c, 8, 8640
8, 19077, Pitch_bend_c, 8, 8224
8, 19079, Pitch_bend_c, 8, 7936
8, 19080, Pitch_bend_c, 8, 7808
8, 19085, Note_on_c, 8, 53, 0
8, 19108, Pitch_bend_c, 8, 8192
8, 19109, Pitch_bend_c, 8, 8704
8, 19110, Pitch_bend_c, 8, 8192
8, 19111, Note_on_c, 8, 61, 93
8, 19111, Note_on_c, 8, 67, 89
8, 19111, Note_on_c, 8, 70, 100
8, 19233, Note_on_c, 8, 61, 0
8, 19235, Note_on_c, 8, 67, 0
8, 19235, Pitch_bend_c, 8, 8384
8, 19238, Pitch_bend_c, 8, 8352
8, 19239, Pitch_bend_c, 8, 8384
8, 19241, Pitch_bend_c, 8, 8192
8, 19242, Note_on_c, 8, 62, 41
8, 19244, Note_on_c, 8, 65, 58
8, 19245, Note_on_c, 8, 70, 0
8, 19246, Note_on_c, 8, 70, 14
8, 19341, Note_on_c, 8, 62, 0
8, 19341, Note_on_c, 8, 65, 0
8, 19341, Note_on_c, 8, 70, 0
8, 19487, Note_on_c, 8, 65, 77
8, 19487, Pitch_bend_c, 8, 8000
8, 19491, Pitch_bend_c, 8, 7968
8, 19493, Pitch_bend_c, 8, 7936
8, 19497, Pitch_bend_c, 8, 7968
8, 19498, Pitch_bend_c, 8, 8000
8, 19500, Pitch_bend_c, 8, 8192
8, 19500, Note_on_c, 8, 70, 89
8, 19505, Note_on_c, 8, 65, 0
8, 19506, Pitch_bend_c, 8, 8160
8, 19508, Pitch_bend_c, 8, 8192
8, 19512, Pitch_bend_c, 8, 8160
8, 19513, Pitch_bend_c, 8, 8128
8, 19515, Pitch_bend_c, 8, 8096
8, 19516, Pitch_bend_c, 8, 8064
8, 19517, Note_on_c, 8, 70, 0
8, 19518, Note_on_c, 8, 70, 89
8, 19518, Pitch_bend_c, 8, 8096
8, 19520, Pitch_bend_c, 8, 8064
8, 19522, Pitch_bend_c, 8, 8096
8, 19524, Pitch_bend_c, 8, 8128
8, 19526, Pitch_bend_c, 8, 8160
8, 19527, Pitch_bend_c, 8, 8192
8, 19530, Note_on_c, 8, 70, 0
8, 19530, Pitch_bend_c, 8, 8224
8, 19531, Note_on_c, 8, 70, 88
8, 19531, Pitch_bend_c, 8, 8672
8, 19532, Pitch_bend_c, 8, 8640
8, 19533, Pitch_bend_c, 8, 8608
8, 19534, Pitch_bend_c, 8, 8640
8, 19536, Pitch_bend_c, 8, 8608
8, 19537, Pitch_bend_c, 8, 8576
8, 19539, Pitch_bend_c, 8, 8544
8, 19540, Pitch_bend_c, 8, 8448
8, 19541, Pitch_bend_c, 8, 8352
8, 19543, Pitch_bend_c, 8, 8224
8, 19544, Pitch_bend_c, 8, 8192
8, 19546, Pitch_bend_c, 8, 8160
8, 19548, Pitch_bend_c, 8, 8192
8, 19550, Pitch_bend_c, 8, 8256
8, 19551, Pitch_bend_c, 8, 8352
8, 19553, Pitch_bend_c, 8, 8512
8, 19554, Pitch_bend_c, 8, 8704
8, 19555, Pitch_bend_c, 8, 8864
8, 19557, Pitch_bend_c, 8, 8992
8, 19559, Pitch_bend_c, 8, 8960
8, 19561, Pitch_bend_c, 8, 8768
8, 19562, Pitch_bend_c, 8, 8512
8, 19564, Pitch_bend_c, 8, 8320
8, 19565, Pitch_bend_c, 8, 8192
8, 19567, Pitch_bend_c, 8, 8160
8, 19568, Pitch_bend_c, 8, 8192
8, 19570, Pitch_bend_c, 8, 8288
8, 19571, Pitch_bend_c, 8, 8544
8, 19574, Pitch_bend_c, 8, 8896
8, 19575, Pitch_bend_c, 8, 9152
8, 19576, Pitch_bend_c, 8, 9120
8, 19578, Pitch_bend_c, 8, 9184
8, 19579, Pitch_bend_c, 8, 8768
8, 19581, Pitch_bend_c, 8, 8416
8, 19582, Pitch_bend_c, 8, 8192
8, 19583, Pitch_bend_c, 8, 8064
8, 19585, Pitch_bend_c, 8, 8128
8, 19586, Pitch_bend_c, 8, 8416
8, 19588, Pitch_bend_c, 8, 8864
8, 19589, Note_on_c, 8, 70, 0
8, 19589, Pitch_bend_c, 8, 9376
8, 19879, Pitch_bend_c, 8, 8192
8, 19880, Note_on_c, 8, 65, 87
8, 19880, Pitch_bend_c, 8, 8000
8, 19881, Pitch_bend_c, 8, 8096
8, 19887, Pitch_bend_c, 8, 8064
8, 19890, Pitch_bend_c, 8, 8032
8, 19896, Pitch_bend_c, 8, 7872
8, 19898, Note_on_c, 8, 65, 0
8, 19898, Note_on_c, 8, 67, 72
8, 19898, Pitch_bend_c, 8, 12064
8, 19899, Pitch_bend_c, 8, 12160
8, 19903, Pitch_bend_c, 8, 12096
8, 19904, Pitch_bend_c, 8, 12032
8, 19906, Pitch_bend_c, 8, 12000
8, 19907, Pitch_bend_c, 8, 11968
8, 19908, Pitch_bend_c, 8, 11904
8, 19909, Note_on_c, 8, 67, 0
8, 19909, Pitch_bend_c, 8, 12096
8, 19910, Pitch_bend_c, 8, 8192
8, 19911, Note_on_c, 8, 70, 87
8, 19911, Pitch_bend_c, 8, 8576
8, 19914, Pitch_bend_c, 8, 8544
8, 19915, Pitch_bend_c, 8, 8480
8, 19917, Pitch_bend_c, 8, 8416
8, 19918, Pitch_bend_c, 8, 8320
8, 19919, Pitch_bend_c, 8, 8288
8, 19921, Pitch_bend_c, 8, 8256
8, 19924, Pitch_bend_c, 8, 8288
8, 19925, Pitch_bend_c, 8, 8256
8, 19928, Pitch_bend_c, 8, 8224
8, 19929, Pitch_bend_c, 8, 8192
8, 19931, Pitch_bend_c, 8, 8160
8, 19932, Pitch_bend_c, 8, 8128
8, 19933, Pitch_bend_c, 8, 8096
8, 19934, Pitch_bend_c, 8, 8064
8, 19939, Note_on_c, 8, 70, 0
8, 19939, Pitch_bend_c, 8, 12032
8, 19942, Pitch_bend_c, 8, 8192
8, 19944, Note_on_c, 8, 73, 89
8, 19944, Pitch_bend_c, 8, 8160
8, 19947, Pitch_bend_c, 8, 8128
8, 19948, Pitch_bend_c, 8, 8064
8, 19950, Pitch_bend_c, 8, 8000
8, 19951, Pitch_bend_c, 8, 7936
8, 19952, Pitch_bend_c, 8, 7840
8, 19955, Pitch_bend_c, 8, 7808
8, 19958, Pitch_bend_c, 8, 7840
8, 19959, Pitch_bend_c, 8, 7872
8, 19963, Pitch_bend_c, 8, 7936
8, 19965, Pitch_bend_c, 8, 7872
8, 19966, Pitch_bend_c, 8, 7840
8, 19968, Pitch_bend_c, 8, 7776
8, 19969, Pitch_bend_c, 8, 7680
8, 19970, Pitch_bend_c, 8, 7648
8, 19972, Pitch_bend_c, 8, 7680
8, 19973, Pitch_bend_c, 8, 7744
8, 19975, Pitch_bend_c, 8, 7808
8, 19976, Pitch_bend_c, 8, 7840
8, 19981, Pitch_bend_c, 8, 7872
8, 19982, Pitch_bend_c, 8, 8000
8, 19983, Pitch_bend_c, 8, 8192
8, 19985, Pitch_bend_c, 8, 8608
8, 19986, Pitch_bend_c, 8, 9312
8, 19987, Pitch_bend_c, 8, 12288
8, 19989, Pitch_bend_c, 8, 12480
8, 19990, Pitch_bend_c, 8, 12640
8, 19992, Pitch_bend_c, 8, 12768
8, 19993, Pitch_bend_c, 8, 12896
8, 19994, Pitch_bend_c, 8, 12864
8, 19995, Note_on_c, 8, 73, 0
8, 20292, Pitch_bend_c, 8, 8192
8, 20294, Note_on_c, 8, 68, 75
8, 20295, Pitch_bend_c, 8, 8448
8, 20296, Pitch_bend_c, 8, 8192
8, 20296, Note_on_c, 8, 73, 80
8, 20314, Note_on_c, 8, 68, 0
8, 20315, Note_on_c, 8, 73, 0
8, 20315, Pitch_bend_c, 8, 7936
8, 20317, Pitch_bend_c, 8, 8192
8, 20318, Note_on_c, 8, 70, 87
8, 20318, Pitch_bend_c, 8, 8640
8, 20319, Pitch_bend_c, 8, 8448
8, 20321, Pitch_bend_c, 8, 8416
8, 20324, Pitch_bend_c, 8, 8384
8, 20325, Pitch_bend_c, 8, 8352
8, 20327, Note_on_c, 8, 70, 0
8, 20327, Pitch_bend_c, 8, 8480
8, 20328, Note_on_c, 8, 68, 85
8, 20328, Pitch_bend_c, 8, 8192
8, 20329, Pitch_bend_c, 8, 8160
8, 20330, Pitch_bend_c, 8, 8192
8, 20331, Pitch_bend_c, 8, 8128
8, 20334, Pitch_bend_c, 8, 8064
8, 20336, Pitch_bend_c, 8, 8000
8, 20337, Pitch_bend_c, 8, 8032
8, 20340, Pitch_bend_c, 8, 8064
8, 20341, Pitch_bend_c, 8, 8000
8, 20342, Pitch_bend_c, 8, 8128
8, 20344, Pitch_bend_c, 8, 8576
8, 20345, Pitch_bend_c, 8, 11968
8, 20347, Pitch_bend_c, 8, 12096
8, 20348, Pitch_bend_c, 8, 11968
8, 20350, Pitch_bend_c, 8, 9696
8, 20351, Pitch_bend_c, 8, 9376
8, 20352, Pitch_bend_c, 8, 8896
8, 20354, Pitch_bend_c, 8, 8480
8, 20355, Pitch_bend_c, 8, 8096
8, 20357, Pitch_bend_c, 8, 7968
8, 20359, Pitch_bend_c, 8, 8032
8, 20361, Pitch_bend_c, 8, 8480
8, 20362, Pitch_bend_c, 8, 11104
8, 20365, Pitch_bend_c, 8, 11072
8, 20366, Pitch_bend_c, 8, 10624
8, 20368, Note_on_c, 8, 68, 0
8, 20368, Pitch_bend_c, 8, 11104
8, 20989, Pitch_bend_c, 8, 8192
8, 20990, Note_on_c, 8, 67, 95
8, 20990, Pitch_bend_c, 8, 8928
8, 20991, Pitch_bend_c, 8, 8896
8, 20992, Pitch_bend_c, 8, 8192
8, 20992, Note_on_c, 8, 70, 95
8, 20998, Note_on_c, 8, 70, 0
8, 21000, Pitch_bend_c, 8, 8672
8, 21001, Note_on_c, 8, 67, 0
8, 21001, Pitch_bend_c, 8, 8544
8, 21009, Note_on_c, 8, 70, 85
8, 21009, Pitch_bend_c, 8, 8192
8, 21010, Pitch_bend_c, 8, 8032
8, 21012, Pitch_bend_c, 8, 8000
8, 21013, Pitch_bend_c, 8, 7968
8, 21015, Pitch_bend_c, 8, 7904
8, 21016, Pitch_bend_c, 8, 7872
8, 21021, Pitch_bend_c, 8, 7936
8, 21022, Pitch_bend_c, 8, 7840
8, 21023, Note_on_c, 8, 70, 0
8, 21023, Pitch_bend_c, 8, 7968
8, 21027, Pitch_bend_c, 8, 8192
8, 21027, Note_on_c, 8, 73, 84
8, 21028, Pitch_bend_c, 8, 8224
8, 21029, Pitch_bend_c, 8, 8256
8, 21032, Pitch_bend_c, 8, 8224
8, 21036, Pitch_bend_c, 8, 8256
8, 21037, Pitch_bend_c, 8, 8288
8, 21040, Pitch_bend_c, 8, 8352
8, 21041, Pitch_bend_c, 8, 8384
8, 21043, Note_on_c, 8, 73, 0
8, 21048, Pitch_bend_c, 8, 8192
8, 21049, Note_on_c, 8, 75, 89
8, 21049, Pitch_bend_c, 8, 8352
8, 21054, Pitch_bend_c, 8, 8320
8, 21056, Pitch_bend_c, 8, 8224
8, 21057, Pitch_bend_c, 8, 8192
8, 21058, Pitch_bend_c, 8, 8160
8, 21060, Pitch_bend_c, 8, 8064
8, 21064, Pitch_bend_c, 8, 8128
8, 21066, Pitch_bend_c, 8, 8192
8, 21067, Pitch_bend_c, 8, 8256
8, 21069, Pitch_bend_c, 8, 8448
8, 21070, Pitch_bend_c, 8, 8960
8, 21071, Pitch_bend_c, 8, 11328
8, 21073, Pitch_bend_c, 8, 11584
8, 21074, Pitch_bend_c, 8, 12128
8, 21076, Pitch_bend_c, 8, 12768
8, 21077, Note_on_c, 8, 75, 0
8, 21077, Pitch_bend_c, 8, 13440
8, 21091, Pitch_bend_c, 8, 8192
8, 21092, Note_on_c, 8, 73, 85
8, 21092, Pitch_bend_c, 8, 8576
8, 21093, Pitch_bend_c, 8, 8512
8, 21096, Pitch_bend_c, 8, 8448
8, 21097, Pitch_bend_c, 8, 8384
8, 21098, Pitch_bend_c, 8, 8352
8, 21100, Pitch_bend_c, 8, 8288
8, 21101, Pitch_bend_c, 8, 8224
8, 21105, Pitch_bend_c, 8, 8192
8, 21107, Pitch_bend_c, 8, 8224
8, 21108, Pitch_bend_c, 8, 8192
8, 21110, Pitch_bend_c, 8, 8160
8, 21111, Pitch_bend_c, 8, 8224
8, 21113, Pitch_bend_c, 8, 8512
8, 21114, Pitch_bend_c, 8, 10880
8, 21115, Pitch_bend_c, 8, 11072
8, 21117, Pitch_bend_c, 8, 11328
8, 21118, Pitch_bend_c, 8, 11520
8, 21120, Pitch_bend_c, 8, 11616
8, 21121, Pitch_bend_c, 8, 11360
8, 21122, Pitch_bend_c, 8, 10752
8, 21123, Note_on_c, 8, 73, 0
8, 21123, Pitch_bend_c, 8, 11328
8, 21125, Pitch_bend_c, 8, 8192
8, 21138, Note_on_c, 8, 70, 80
8, 21138, Pitch_bend_c, 8, 8096
8, 21144, Pitch_bend_c, 8, 8032
8, 21145, Pitch_bend_c, 8, 7936
8, 21147, Pitch_bend_c, 8, 7872
8, 21148, Pitch_bend_c, 8, 7808
8, 21150, Pitch_bend_c, 8, 7776
8, 21151, Pitch_bend_c, 8, 7712
8, 21156, Pitch_bend_c, 8, 7744
8, 21160, Pitch_bend_c, 8, 7776
8, 21161, Pitch_bend_c, 8, 7744
8, 21167, Pitch_bend_c, 8, 7840
8, 21168, Pitch_bend_c, 8, 7968
8, 21170, Pitch_bend_c, 8, 8192
8, 21171, Pitch_bend_c, 8, 8608
8, 21172, Pitch_bend_c, 8, 8992
8, 21174, Pitch_bend_c, 8, 9408
8, 21175, Pitch_bend_c, 8, 9696
8, 21176, Pitch_bend_c, 8, 9856
8, 21178, Pitch_bend_c, 8, 9600
8, 21179, Pitch_bend_c, 8, 8992
8, 21180, Pitch_bend_c, 8, 8384
8, 21182, Pitch_bend_c, 8, 7904
8, 21183, Pitch_bend_c, 8, 7648
8, 21185, Pitch_bend_c, 8, 7712
8, 21186, Pitch_bend_c, 8, 7936
8, 21188, Pitch_bend_c, 8, 8352
8, 21189, Pitch_bend_c, 8, 10848
8, 21190, Pitch_bend_c, 8, 11008
8, 21192, Pitch_bend_c, 8, 11040
8, 21193, Pitch_bend_c, 8, 10848
8, 21195, Pitch_bend_c, 8, 8448
8, 21196, Pitch_bend_c, 8, 8288
8, 21197, Pitch_bend_c, 8, 8096
8, 21199, Pitch_bend_c, 8, 7904
8, 21201, Pitch_bend_c, 8, 7776
8, 21202, Pitch_bend_c, 8, 7904
8, 21203, Pitch_bend_c, 8, 8224
8, 21204, Pitch_bend_c, 8, 8768
8, 21206, Pitch_bend_c, 8, 9312
8, 21207, Pitch_bend_c, 8, 9728
8, 21209, Pitch_bend_c, 8, 9888
8, 21210, Pitch_bend_c, 8, 9792
8, 21211, Note_on_c, 8, 70, 0
8, 21606, Note_on_c, 8, 64, 89
8, 21606, Pitch_bend_c, 8, 8192
8, 21607, Pitch_bend_c, 8, 8096
8, 21608, Pitch_bend_c, 8, 8128
8, 21609, Pitch_bend_c, 8, 8096
8, 21612, Pitch_bend_c, 8, 8064
8, 21615, Pitch_bend_c, 8, 8032
8, 21616, Pitch_bend_c, 8, 8000
8, 21620, Pitch_bend_c, 8, 7968
8, 21623, Pitch_bend_c, 8, 7936
8, 21624, Pitch_bend_c, 8, 7904
8, 21631, Pitch_bend_c, 8, 7936
8, 21633, Pitch_bend_c, 8, 8192
8, 21634, Pitch_bend_c, 8, 11936
8, 21636, Pitch_bend_c, 8, 11968
8, 21638, Pitch_bend_c, 8, 12032
8, 21640, Pitch_bend_c, 8, 12064
8, 21642, Pitch_bend_c, 8, 12128
8, 21645, Pitch_bend_c, 8, 12160
8, 21647, Pitch_bend_c, 8, 12096
8, 21648, Note_on_c, 8, 73, 85
8, 21689, Note_on_c, 8, 64, 0
8, 21691, Note_on_c, 8, 73, 0
8, 21702, Note_on_c, 8, 62, 63
8, 21702, Pitch_bend_c, 8, 8384
8, 21703, Pitch_bend_c, 8, 8000
8, 21704, Pitch_bend_c, 8, 8064
8, 21706, Pitch_bend_c, 8, 8096
8, 21708, Pitch_bend_c, 8, 8128
8, 21713, Pitch_bend_c, 8, 8096
8, 21715, Pitch_bend_c, 8, 8064
8, 21717, Pitch_bend_c, 8, 8032
8, 21718, Pitch_bend_c, 8, 8000
8, 21719, Pitch_bend_c, 8, 8032
8, 21721, Pitch_bend_c, 8, 11904
8, 21722, Pitch_bend_c, 8, 11936
8, 21724, Pitch_bend_c, 8, 11968
8, 21725, Pitch_bend_c, 8, 12000
8, 21727, Pitch_bend_c, 8, 12064
8, 21729, Pitch_bend_c, 8, 12096
8, 21731, Pitch_bend_c, 8, 12128
8, 21732, Pitch_bend_c, 8, 12160
8, 21733, Pitch_bend_c, 8, 12192
8, 21738, Pitch_bend_c, 8, 12160
8, 21739, Note_on_c, 8, 71, 71
8, 21791, Note_on_c, 8, 62, 0
8, 21798, Note_on_c, 8, 71, 0
8, 21800, Note_on_c, 8, 65, 93
8, 21800, Pitch_bend_c, 8, 8384
8, 21801, Pitch_bend_c, 8, 8352
8, 21812, Pitch_bend_c, 8, 8384
8, 21813, Pitch_bend_c, 8, 8416
8, 21815, Note_on_c, 8, 65, 0
8, 21816, Pitch_bend_c, 8, 8192
8, 21817, Note_on_c, 8, 63, 70
8, 21817, Pitch_bend_c, 8, 8064
8, 21818, Pitch_bend_c, 8, 7744
8, 21823, Pitch_bend_c, 8, 7968
8, 21824, Pitch_bend_c, 8, 8160
8, 21830, Pitch_bend_c, 8, 8128
8, 21833, Note_on_c, 8, 63, 0
8, 21833, Pitch_bend_c, 8, 8192
8, 21836, Note_on_c, 8, 61, 34
8, 21837, Pitch_bend_c, 8, 8032
8, 21838, Pitch_bend_c, 8, 8064
8, 21841, Pitch_bend_c, 8, 8096
8, 21842, Pitch_bend_c, 8, 8128
8, 21844, Pitch_bend_c, 8, 8160
8, 21845, Pitch_bend_c, 8, 8192
8, 21846, Pitch_bend_c, 8, 8224
8, 21849, Pitch_bend_c, 8, 8192
8, 21850, Pitch_bend_c, 8, 8160
8, 21852, Pitch_bend_c, 8, 8224
8, 21853, Pitch_bend_c, 8, 8672
8, 21855, Pitch_bend_c, 8, 11680
8, 21856, Pitch_bend_c, 8, 11776
8, 21857, Pitch_bend_c, 8, 11840
8, 21859, Pitch_bend_c, 8, 11776
8, 21860, Pitch_bend_c, 8, 9568
8, 21862, Pitch_bend_c, 8, 9280
8, 21863, Pitch_bend_c, 8, 8992
8, 21865, Pitch_bend_c, 8, 8672
8, 21866, Pitch_bend_c, 8, 8320
8, 21867, Pitch_bend_c, 8, 8352
8, 21869, Pitch_bend_c, 8, 8288
8, 21872, Pitch_bend_c, 8, 8320
8, 21873, Pitch_bend_c, 8, 8288
8, 21875, Note_on_c, 8, 61, 0
8, 21875, Pitch_bend_c, 8, 8352
8, 21881, Pitch_bend_c, 8, 8192
8, 21882, Note_on_c, 8, 63, 57
8, 21882, Pitch_bend_c, 8, 8096
8, 21883, Pitch_bend_c, 8, 7904
8, 21885, Pitch_bend_c, 8, 12000
8, 21886, Pitch_bend_c, 8, 12032
8, 21887, Pitch_bend_c, 8, 15968
8, 21891, Pitch_bend_c, 8, 16032
8, 21893, Pitch_bend_c, 8, 16064
8, 21894, Pitch_bend_c, 8, 16128
8, 21896, Note_on_c, 8, 63, 0
8, 21896, Note_on_c, 8, 70, 87
8, 21896, Pitch_bend_c, 8, 8192
8, 21901, Pitch_bend_c, 8, 8160
8, 21903, Pitch_bend_c, 8, 8128
8, 21904, Pitch_bend_c, 8, 8096
8, 21912, Note_on_c, 8, 70, 0
8, 21914, Pitch_bend_c, 8, 8192
8, 21915, Note_on_c, 8, 70, 84
8, 21915, Pitch_bend_c, 8, 8096
8, 21916, Pitch_bend_c, 8, 8032
8, 21920, Pitch_bend_c, 8, 8064
8, 21922, Pitch_bend_c, 8, 8096
8, 21927, Note_on_c, 8, 70, 0
8, 21928, Pitch_bend_c, 8, 8192
8, 21929, Note_on_c, 8, 70, 88
8, 21929, Pitch_bend_c, 8, 8288
8, 21930, Pitch_bend_c, 8, 8192
8, 21932, Pitch_bend_c, 8, 8160
8, 21935, Pitch_bend_c, 8, 8064
8, 21936, Pitch_bend_c, 8, 8032
8, 21938, Pitch_bend_c, 8, 7968
8, 21939, Pitch_bend_c, 8, 7936
8, 21940, Pitch_bend_c, 8, 7968
8, 21942, Pitch_bend_c, 8, 8000
8, 21945, Pitch_bend_c, 8, 8032
8, 21951, Pitch_bend_c, 8, 8000
8, 21957, Pitch_bend_c, 8, 8064
8, 21958, Pitch_bend_c, 8, 8192
8, 21958, Note_on_c, 8, 73, 87
8, 21960, Note_on_c, 8, 70, 0
8, 21961, Pitch_bend_c, 8, 8736
8, 21963, Pitch_bend_c, 8, 8768
8, 21964, Pitch_bend_c, 8, 8832
8, 21966, Pitch_bend_c, 8, 8896
8, 21967, Pitch_bend_c, 8, 8992
8, 21969, Pitch_bend_c, 8, 9184
8, 21970, Pitch_bend_c, 8, 9376
8, 21971, Pitch_bend_c, 8, 9664
8, 21973, Pitch_bend_c, 8, 9952
8, 21974, Pitch_bend_c, 8, 10208
8, 21975, Pitch_bend_c, 8, 10368
8, 21977, Pitch_bend_c, 8, 10464
8, 21978, Pitch_bend_c, 8, 10528
8, 21981, Pitch_bend_c, 8, 10432
8, 21982, Pitch_bend_c, 8, 10304
8, 21983, Note_on_c, 8, 73, 0
8, 22020, Pitch_bend_c, 8, 8192
8, 22024, Note_on_c, 8, 75, 89
8, 22024, Pitch_bend_c, 8, 8064
8, 22025, Pitch_bend_c, 8, 7904
8, 22029, Pitch_bend_c, 8, 8000
8, 22030, Pitch_bend_c, 8, 8192
8, 22031, Pitch_bend_c, 8, 8736
8, 22033, Pitch_bend_c, 8, 11584
8, 22034, Pitch_bend_c, 8, 11968
8, 22035, Pitch_bend_c, 8, 12512
8, 22037, Pitch_bend_c, 8, 13152
8, 22038, Pitch_bend_c, 8, 13728
8, 22039, Pitch_bend_c, 8, 13952
8, 22041, Pitch_bend_c, 8, 13760
8, 22042, Pitch_bend_c, 8, 10816
8, 22044, Pitch_bend_c, 8, 10400
8, 22045, Pitch_bend_c, 8, 7872
8, 22046, Pitch_bend_c, 8, 7904
8, 22048, Pitch_bend_c, 8, 10816
8, 22049, Note_on_c, 8, 75, 0
8, 22050, Pitch_bend_c, 8, 8192
8, 22051, Note_on_c, 8, 73, 82
8, 22051, Pitch_bend_c, 8, 8256
8, 22053, Pitch_bend_c, 8, 8192
8, 22057, Note_on_c, 8, 73, 0
8, 22060, Note_on_c, 8, 70, 80
8, 22060, Pitch_bend_c, 8, 8384
8, 22063, Pitch_bend_c, 8, 8352
8, 22064, Pitch_bend_c, 8, 8320
8, 22065, Pitch_bend_c, 8, 8288
8, 22067, Pitch_bend_c, 8, 8224
8, 22068, Pitch_bend_c, 8, 8192
8, 22069, Pitch_bend_c, 8, 8128
8, 22076, Pitch_bend_c, 8, 8160
8, 22079, Pitch_bend_c, 8, 8192
8, 22082, Pitch_bend_c, 8, 8384
8, 22083, Pitch_bend_c, 8, 8864
8, 22085, Pitch_bend_c, 8, 9504
8, 22086, Pitch_bend_c, 8, 10208
8, 22087, Pitch_bend_c, 8, 10752
8, 22089, Pitch_bend_c, 8, 10944
8, 22090, Pitch_bend_c, 8, 10496
8, 22092, Pitch_bend_c, 8, 7904
8, 22093, Pitch_bend_c, 8, 7936
8, 22095, Pitch_bend_c, 8, 8000
8, 22096, Pitch_bend_c, 8, 8032
8, 22098, Pitch_bend_c, 8, 8064
8, 22099, Pitch_bend_c, 8, 8128
8, 22100, Pitch_bend_c, 8, 8512
8, 22102, Pitch_bend_c, 8, 11232
8, 22103, Pitch_bend_c, 8, 11296
8, 22106, Pitch_bend_c, 8, 11008
8, 22107, Pitch_bend_c, 8, 8640
8, 22109, Pitch_bend_c, 8, 8480
8, 22110, Pitch_bend_c, 8, 8288
8, 22111, Pitch_bend_c, 8, 8192
8, 22113, Pitch_bend_c, 8, 8064
8, 22114, Pitch_bend_c, 8, 8096
8, 22115, Pitch_bend_c, 8, 8256
8, 22117, Pitch_bend_c, 8, 8832
8, 22118, Pitch_bend_c, 8, 9504
8, 22120, Pitch_bend_c, 8, 10208
8, 22121, Pitch_bend_c, 8, 10656
8, 22123, Pitch_bend_c, 8, 10560
8, 22124, Pitch_bend_c, 8, 10144
8, 22125, Pitch_bend_c, 8, 9536
8, 22127, Pitch_bend_c, 8, 8864
8, 22128, Pitch_bend_c, 8, 8256
8, 22129, Pitch_bend_c, 8, 7936
8, 22130, Note_on_c, 8, 70, 0
8, 22130, Pitch_bend_c, 8, 10144
8, 22596, Pitch_bend_c, 8, 8192
8, 22597, Note_on_c, 8, 67, 101
8, 22597, Pitch_bend_c, 8, 8992
8, 22598, Pitch_bend_c, 8, 8192
8, 22598, Note_on_c, 8, 70, 101
8, 22603, Note_on_c, 8, 67, 0
8, 22603, Pitch_bend_c, 8, 8992
8, 22604, Pitch_bend_c, 8, 8960
8, 22605, Pitch_bend_c, 8, 8928
8, 22608, Pitch_bend_c, 8, 8896
8, 22611, Pitch_bend_c, 8, 8832
8, 22612, Pitch_bend_c, 8, 8928
8, 22613, Note_on_c, 8, 70, 0
8, 22614, Pitch_bend_c, 8, 8864
8, 22615, Pitch_bend_c, 8, 8768
8, 22617, Pitch_bend_c, 8, 8736
8, 22618, Pitch_bend_c, 8, 8192
8, 22619, Note_on_c, 8, 70, 85
8, 22619, Pitch_bend_c, 8, 8064
8, 22623, Pitch_bend_c, 8, 8032
8, 22624, Pitch_bend_c, 8, 8000
8, 22625, Pitch_bend_c, 8, 7904
8, 22628, Pitch_bend_c, 8, 7936
8, 22629, Note_on_c, 8, 70, 0
8, 22629, Pitch_bend_c, 8, 8064
8, 22630, Pitch_bend_c, 8, 8192
8, 22631, Note_on_c, 8, 73, 87
8, 22631, Pitch_bend_c, 8, 8864
8, 22632, Pitch_bend_c, 8, 8608
8, 22635, Pitch_bend_c, 8, 8416
8, 22636, Pitch_bend_c, 8, 8384
8, 22639, Pitch_bend_c, 8, 8288
8, 22643, Pitch_bend_c, 8, 8256
8, 22645, Pitch_bend_c, 8, 8224
8, 22647, Pitch_bend_c, 8, 8192
8, 22650, Pitch_bend_c, 8, 8160
8, 22652, Note_on_c, 8, 73, 0
8, 22652, Pitch_bend_c, 8, 8256
8, 22661, Pitch_bend_c, 8, 8192
8, 22662, Note_on_c, 8, 75, 89
8, 22662, Pitch_bend_c, 8, 8544
8, 22663, Pitch_bend_c, 8, 8480
8, 22664, Pitch_bend_c, 8, 8448
8, 22666, Pitch_bend_c, 8, 8416
8, 22667, Pitch_bend_c, 8, 8352
8, 22671, Pitch_bend_c, 8, 8256
8, 22672, Pitch_bend_c, 8, 8192
8, 22674, Pitch_bend_c, 8, 8256
8, 22675, Pitch_bend_c, 8, 8672
8, 22677, Pitch_bend_c, 8, 11264
8, 22678, Pitch_bend_c, 8, 11488
8, 22679, Pitch_bend_c, 8, 11808
8, 22681, Pitch_bend_c, 8, 12192
8, 22682, Pitch_bend_c, 8, 12576
8, 22684, Note_on_c, 8, 75, 0
8, 22684, Pitch_bend_c, 8, 12704
8, 22698, Pitch_bend_c, 8, 8192
8, 22699, Note_on_c, 8, 70, 85
8, 22699, Pitch_bend_c, 8, 8416
8, 22702, Pitch_bend_c, 8, 8448
8, 22703, Pitch_bend_c, 8, 8416
8, 22704, Pitch_bend_c, 8, 8384
8, 22707, Pitch_bend_c, 8, 8352
8, 22709, Pitch_bend_c, 8, 8288
8, 22710, Pitch_bend_c, 8, 8224
8, 22711, Pitch_bend_c, 8, 8160
8, 22713, Pitch_bend_c, 8, 8128
8, 22714, Pitch_bend_c, 8, 8096
8, 22715, Pitch_bend_c, 8, 8064
8, 22717, Pitch_bend_c, 8, 8032
8, 22720, Pitch_bend_c, 8, 8000
8, 22722, Pitch_bend_c, 8, 7968
8, 22724, Pitch_bend_c, 8, 7936
8, 22725, Pitch_bend_c, 8, 7904
8, 22726, Pitch_bend_c, 8, 7840
8, 22731, Pitch_bend_c, 8, 7872
8, 22732, Pitch_bend_c, 8, 7904
8, 22734, Pitch_bend_c, 8, 8032
8, 22735, Pitch_bend_c, 8, 8288
8, 22737, Pitch_bend_c, 8, 8896
8, 22738, Pitch_bend_c, 8, 11232
8, 22739, Pitch_bend_c, 8, 11392
8, 22741, Pitch_bend_c, 8, 11584
8, 22742, Pitch_bend_c, 8, 11712
8, 22744, Pitch_bend_c, 8, 11776
8, 22745, Pitch_bend_c, 8, 9312
8, 22746, Pitch_bend_c, 8, 8896
8, 22748, Pitch_bend_c, 8, 8512
8, 22749, Pitch_bend_c, 8, 8192
8, 22750, Pitch_bend_c, 8, 7840
8, 22752, Pitch_bend_c, 8, 7904
8, 22753, Pitch_bend_c, 8, 8032
8, 22755, Pitch_bend_c, 8, 10304
8, 22756, Pitch_bend_c, 8, 10688
8, 22757, Pitch_bend_c, 8, 11136
8, 22759, Pitch_bend_c, 8, 11520
8, 22760, Pitch_bend_c, 8, 11712
8, 22762, Pitch_bend_c, 8, 9472
8, 22763, Pitch_bend_c, 8, 9088
8, 22764, Pitch_bend_c, 8, 8608
8, 22766, Pitch_bend_c, 8, 8224
8, 22767, Pitch_bend_c, 8, 7808
8, 22768, Pitch_bend_c, 8, 7744
8, 22770, Pitch_bend_c, 8, 7904
8, 22771, Pitch_bend_c, 8, 8192
8, 22772, Pitch_bend_c, 8, 8576
8, 22774, Pitch_bend_c, 8, 8960
8, 22777, Note_on_c, 8, 70, 0
8, 22777, Pitch_bend_c, 8, 8704
8, 23187, Pitch_bend_c, 8, 8192
8, 23190, Note_on_c, 8, 64, 93
8, 23190, Pitch_bend_c, 8, 8352
8, 23191, Pitch_bend_c, 8, 8384
8, 23193, Pitch_bend_c, 8, 8320
8, 23194, Pitch_bend_c, 8, 8288
8, 23195, Pitch_bend_c, 8, 8224
8, 23197, Pitch_bend_c, 8, 8192
8, 23198, Pitch_bend_c, 8, 8096
8, 23200, Pitch_bend_c, 8, 8032
8, 23201, Pitch_bend_c, 8, 7936
8, 23202, Pitch_bend_c, 8, 8128
8, 23204, Pitch_bend_c, 8, 11904
8, 23205, Pitch_bend_c, 8, 11936
8, 23207, Pitch_bend_c, 8, 11968
8, 23209, Pitch_bend_c, 8, 12064
8, 23210, Pitch_bend_c, 8, 12160
8, 23212, Pitch_bend_c, 8, 12224
8, 23213, Pitch_bend_c, 8, 12320
8, 23215, Pitch_bend_c, 8, 12288
8, 23216, Pitch_bend_c, 8, 8864
8, 23217, Pitch_bend_c, 8, 12160
8, 23218, Note_on_c, 8, 64, 0
8, 23218, Pitch_bend_c, 8, 8192
8, 23219, Note_on_c, 8, 65, 89
8, 23223, Pitch_bend_c, 8, 8224
8, 23225, Pitch_bend_c, 8, 8256
8, 23226, Pitch_bend_c, 8, 8288
8, 23229, Pitch_bend_c, 8, 8384
8, 23232, Pitch_bend_c, 8, 8192
8, 23232, Note_on_c, 8, 70, 90
8, 23253, Note_on_c, 8, 65, 0
8, 23254, Note_on_c, 8, 70, 0
8, 23255, Pitch_bend_c, 8, 8224
8, 23258, Pitch_bend_c, 8, 8192
8, 23259, Note_on_c, 8, 68, 89
8, 23259, Pitch_bend_c, 8, 8352
8, 23260, Pitch_bend_c, 8, 8448
8, 23261, Pitch_bend_c, 8, 8512
8, 23262, Pitch_bend_c, 8, 8704
8, 23264, Pitch_bend_c, 8, 8864
8, 23265, Pitch_bend_c, 8, 8832
8, 23267, Note_on_c, 8, 68, 0
8, 23267, Note_on_c, 8, 64, 83
8, 23267, Pitch_bend_c, 8, 12160
8, 23268, Pitch_bend_c, 8, 12192
8, 23270, Pitch_bend_c, 8, 12096
8, 23271, Pitch_bend_c, 8, 12160
8, 23272, Pitch_bend_c, 8, 12224
8, 23274, Pitch_bend_c, 8, 12288
8, 23276, Pitch_bend_c, 8, 12352
8, 23277, Note_on_c, 8, 64, 0
8, 23279, Note_on_c, 8, 63, 85
8, 23279, Pitch_bend_c, 8, 8000
8, 23280, Pitch_bend_c, 8, 8128
8, 23281, Pitch_bend_c, 8, 8192
8, 23282, Pitch_bend_c, 8, 8160
8, 23284, Pitch_bend_c, 8, 8128
8, 23285, Pitch_bend_c, 8, 8064
8, 23287, Pitch_bend_c, 8, 8032
8, 23288, Pitch_bend_c, 8, 8000
8, 23291, Pitch_bend_c, 8, 7968
8, 23292, Pitch_bend_c, 8, 7936
8, 23299, Pitch_bend_c, 8, 7968
8, 23301, Pitch_bend_c, 8, 7936
8, 23302, Note_on_c, 8, 63, 0
8, 23303, Note_on_c, 8, 63, 91
8, 23303, Pitch_bend_c, 8, 8064
8, 23305, Pitch_bend_c, 8, 8320
8, 23307, Pitch_bend_c, 8, 8256
8, 23308, Pitch_bend_c, 8, 8192
8, 23310, Pitch_bend_c, 8, 8160
8, 23312, Pitch_bend_c, 8, 8192
8, 23314, Note_on_c, 8, 63, 0
8, 23314, Note_on_c, 8, 60, 64
8, 23314, Pitch_bend_c, 8, 12096
8, 23317, Pitch_bend_c, 8, 12128
8, 23318, Pitch_bend_c, 8, 12096
8, 23321, Note_on_c, 8, 60, 0
8, 23323, Note_on_c, 8, 58, 72
8, 23323, Pitch_bend_c, 8, 8160
8, 23326, Pitch_bend_c, 8, 8192
8, 23338, Pitch_bend_c, 8, 7968
8, 23339, Note_on_c, 8, 58, 0
8, 23339, Pitch_bend_c, 8, 8192
8, 23353, Note_on_c, 8, 58, 69
8, 23353, Pitch_bend_c, 8, 8128
8, 23354, Pitch_bend_c, 8, 8160
8, 23355, Pitch_bend_c, 8, 8192
8, 23360, Pitch_bend_c, 8, 8032
8, 23361, Pitch_bend_c, 8, 7840
8, 23362, Pitch_bend_c, 8, 8160
8, 23373, Note_on_c, 8, 58, 0
8, 23376, Note_on_c, 8, 58, 57
8, 23377, Pitch_bend_c, 8, 8192
8, 23385, Pitch_bend_c, 8, 8064
8, 23386, Pitch_bend_c, 8, 7904
8, 23387, Note_on_c, 8, 58, 0
8, 23387, Pitch_bend_c, 8, 8192
8, 23389, Note_on_c, 8, 61, 93
8, 23390, Pitch_bend_c, 8, 7872
8, 23392, Pitch_bend_c, 8, 7936
8, 23393, Pitch_bend_c, 8, 7968
8, 23394, Pitch_bend_c, 8, 8000
8, 23396, Pitch_bend_c, 8, 8064
8, 23397, Pitch_bend_c, 8, 8128
8, 23404, Pitch_bend_c, 8, 8064
8, 23405, Pitch_bend_c, 8, 15584
8, 23408, Note_on_c, 8, 61, 0
8, 23408, Note_on_c, 8, 63, 93
8, 23408, Pitch_bend_c, 8, 8096
8, 23410, Pitch_bend_c, 8, 8224
8, 23411, Pitch_bend_c, 8, 8192
8, 23415, Pitch_bend_c, 8, 8224
8, 23416, Pitch_bend_c, 8, 8192
8, 23419, Pitch_bend_c, 8, 8160
8, 23420, Pitch_bend_c, 8, 7872
8, 23422, Pitch_bend_c, 8, 7552
8, 23423, Note_on_c, 8, 63, 0
8, 23423, Pitch_bend_c, 8, 8192
8, 23429, Note_on_c, 8, 61, 95
8, 23430, Pitch_bend_c, 8, 8288
8, 23433, Pitch_bend_c, 8, 8352
8, 23434, Pitch_bend_c, 8, 8320
8, 23436, Pitch_bend_c, 8, 8288
8, 23437, Pitch_bend_c, 8, 8256
8, 23439, Pitch_bend_c, 8, 8192
8, 23440, Pitch_bend_c, 8, 8160
8, 23441, Pitch_bend_c, 8, 8096
8, 23443, Pitch_bend_c, 8, 7936
8, 23444, Pitch_bend_c, 8, 7872
8, 23447, Pitch_bend_c, 8, 8064
8, 23448, Pitch_bend_c, 8, 8448
8, 23449, Pitch_bend_c, 8, 8992
8, 23451, Pitch_bend_c, 8, 9600
8, 23453, Pitch_bend_c, 8, 10240
8, 23454, Pitch_bend_c, 8, 10784
8, 23456, Pitch_bend_c, 8, 11136
8, 23457, Pitch_bend_c, 8, 11200
8, 23458, Pitch_bend_c, 8, 10944
8, 23459, Pitch_bend_c, 8, 10400
8, 23461, Pitch_bend_c, 8, 9824
8, 23462, Note_on_c, 8, 61, 0
8, 23462, Pitch_bend_c, 8, 11136
8, 23464, Note_on_c, 8, 58, 87
8, 23464, Pitch_bend_c, 8, 8224
8, 23465, Pitch_bend_c, 8, 8256
8, 23468, Pitch_bend_c, 8, 8288
8, 23469, Pitch_bend_c, 8, 8352
8, 23471, Pitch_bend_c, 8, 8320
8, 23474, Note_on_c, 8, 58, 0
8, 23474, Pitch_bend_c, 8, 8192
8, 23475, Note_on_c, 8, 56, 80
8, 23476, Pitch_bend_c, 8, 8224
8, 23477, Pitch_bend_c, 8, 8192
8, 23482, Note_on_c, 8, 56, 0
8, 23483, Note_on_c, 8, 53, 67
8, 23483, Pitch_bend_c, 8, 7936
8, 23484, Pitch_bend_c, 8, 7968
8, 23485, Pitch_bend_c, 8, 8000
8, 23492, Pitch_bend_c, 8, 8032
8, 23497, Pitch_bend_c, 8, 8000
8, 23502, Pitch_bend_c, 8, 7968
8, 23504, Pitch_bend_c, 8, 8000
8, 23523, Pitch_bend_c, 8, 7968
8, 23524, Pitch_bend_c, 8, 7936
8, 23526, Pitch_bend_c, 8, 7904
8, 23529, Pitch_bend_c, 8, 7872
8, 23530, Pitch_bend_c, 8, 7936
8, 23531, Note_on_c, 8, 53, 0
8, 23560, Pitch_bend_c, 8, 8192
8, 23561, Pitch_bend_c, 8, 4320
8, 23563, Pitch_bend_c, 8, 4704
8, 23564, Pitch_bend_c, 8, 8192
8, 23564, Note_on_c, 8, 68, 78
8, 23564, Note_on_c, 8, 70, 92
8, 23574, Note_on_c, 8, 68, 0
8, 23577, Note_on_c, 8, 65, 78
8, 23589, Note_on_c, 8, 63, 84
8, 23590, Note_on_c, 8, 70, 0
8, 23591, Note_on_c, 8, 65, 0
8, 23591, Pitch_bend_c, 8, 8064
8, 23595, Pitch_bend_c, 8, 8032
8, 23601, Pitch_bend_c, 8, 8000
8, 23602, Note_on_c, 8, 63, 0
8, 23604, Pitch_bend_c, 8, 8192
8, 23605, Note_on_c, 8, 61, 80
8, 23605, Pitch_bend_c, 8, 8032
8, 23607, Pitch_bend_c, 8, 8064
8, 23619, Pitch_bend_c, 8, 8032
8, 23624, Pitch_bend_c, 8, 8000
8, 23632, Pitch_bend_c, 8, 7968
8, 23634, Pitch_bend_c, 8, 8000
8, 23635, Pitch_bend_c, 8, 8192
8, 23636, Note_on_c, 8, 61, 0
8, 23638, Note_on_c, 8, 58, 82
8, 23644, Pitch_bend_c, 8, 8096
8, 23646, Pitch_bend_c, 8, 8192
8, 23647, Note_on_c, 8, 58, 0
8, 23648, Note_on_c, 8, 56, 70
8, 23648, Pitch_bend_c, 8, 8128
8, 23653, Pitch_bend_c, 8, 8096
8, 23654, Pitch_bend_c, 8, 8128
8, 23658, Pitch_bend_c, 8, 8192
8, 23658, Note_on_c, 8, 53, 67
8, 23659, Note_on_c, 8, 56, 0
8, 23659, Pitch_bend_c, 8, 7840
8, 23663, Pitch_bend_c, 8, 7872
8, 23664, Pitch_bend_c, 8, 7904
8, 23676, Pitch_bend_c, 8, 7872
8, 23692, Pitch_bend_c, 8, 7840
8, 23695, Pitch_bend_c, 8, 7808
8, 23697, Pitch_bend_c, 8, 7744
8, 23698, Note_on_c, 8, 53, 0
8, 23698, Pitch_bend_c, 8, 7680
8, 23721, Note_on_c, 8, 61, 87
8, 23723, Pitch_bend_c, 8, 8192
8, 23724, Note_on_c, 8, 67, 92
8, 23726, Note_on_c, 8, 70, 95
8, 23841, Note_on_c, 8, 61, 0
8, 23842, Note_on_c, 8, 67, 0
8, 23845, Pitch_bend_c, 8, 8288
8, 23847, Pitch_bend_c, 8, 8352
8, 23848, Pitch_bend_c, 8, 8192
8, 23848, Note_on_c, 8, 62, 53
8, 23850, Note_on_c, 8, 65, 54
8, 23851, Note_on_c, 8, 70, 0
8, 23852, Note_on_c, 8, 70, 14
8, 23970, Note_on_c, 8, 70, 0
8, 23972, Note_on_c, 8, 62, 0
8, 23972, Note_on_c, 8, 65, 0
8, 24069, Note_on_c, 8, 64, 62
8, 24069, Pitch_bend_c, 8, 8064
8, 24073, Pitch_bend_c, 8, 8000
8, 24074, Pitch_bend_c, 8, 7968
8, 24076, Pitch_bend_c, 8, 11200
8, 24077, Pitch_bend_c, 8, 11392
8, 24079, Pitch_bend_c, 8, 11584
8, 24080, Pitch_bend_c, 8, 11776
8, 24081, Pitch_bend_c, 8, 12000
8, 24083, Pitch_bend_c, 8, 12064
8, 24085, Pitch_bend_c, 8, 12096
8, 24086, Pitch_bend_c, 8, 12128
8, 24087, Pitch_bend_c, 8, 12160
8, 24093, Pitch_bend_c, 8, 12192
8, 24094, Pitch_bend_c, 8, 12160
8, 24097, Pitch_bend_c, 8, 12096
8, 24098, Pitch_bend_c, 8, 12160
8, 24099, Note_on_c, 8, 64, 0
8, 24099, Pitch_bend_c, 8, 8192
8, 24099, Note_on_c, 8, 74, 84
8, 24118, Pitch_bend_c, 8, 8288
8, 24122, Pitch_bend_c, 8, 8256
8, 24126, Pitch_bend_c, 8, 8192
8, 24129, Pitch_bend_c, 8, 8320
8, 24130, Pitch_bend_c, 8, 8512
8, 24132, Pitch_bend_c, 8, 8832
8, 24133, Pitch_bend_c, 8, 9088
8, 24135, Pitch_bend_c, 8, 9024
8, 24136, Pitch_bend_c, 8, 9152
8, 24138, Pitch_bend_c, 8, 9184
8, 24140, Pitch_bend_c, 8, 9312
8, 24142, Pitch_bend_c, 8, 9024
8, 24143, Pitch_bend_c, 8, 8704
8, 24145, Pitch_bend_c, 8, 8448
8, 24146, Pitch_bend_c, 8, 8320
8, 24149, Pitch_bend_c, 8, 8416
8, 24150, Pitch_bend_c, 8, 8640
8, 24152, Pitch_bend_c, 8, 8960
8, 24153, Pitch_bend_c, 8, 9344
8, 24155, Pitch_bend_c, 8, 9664
8, 24156, Pitch_bend_c, 8, 9920
8, 24157, Pitch_bend_c, 8, 9984
8, 24160, Pitch_bend_c, 8, 9952
8, 24162, Pitch_bend_c, 8, 9600
8, 24163, Pitch_bend_c, 8, 9184
8, 24164, Pitch_bend_c, 8, 8768
8, 24166, Pitch_bend_c, 8, 8384
8, 24167, Pitch_bend_c, 8, 8256
8, 24171, Pitch_bend_c, 8, 8288
8, 24173, Pitch_bend_c, 8, 8384
8, 24174, Pitch_bend_c, 8, 8512
8, 24176, Pitch_bend_c, 8, 8640
8, 24177, Pitch_bend_c, 8, 8704
8, 24178, Pitch_bend_c, 8, 8768
8, 24180, Pitch_bend_c, 8, 8704
8, 24181, Note_on_c, 8, 74, 0
8, 24181, Pitch_bend_c, 8, 8640
8, 24440, Pitch_bend_c, 8, 8192
8, 24441, Note_on_c, 8, 67, 92
8, 24441, Pitch_bend_c, 8, 9056
8, 24442, Pitch_bend_c, 8, 9024
8, 24443, Pitch_bend_c, 8, 8192
8, 24444, Note_on_c, 8, 70, 90
8, 24448, Pitch_bend_c, 8, 8960
8, 24449, Pitch_bend_c, 8, 8896
8, 24451, Note_on_c, 8, 70, 0
8, 24451, Pitch_bend_c, 8, 8800
8, 24452, Pitch_bend_c, 8, 8544
8, 24454, Note_on_c, 8, 67, 0
8, 24454, Pitch_bend_c, 8, 8288
8, 24459, Pitch_bend_c, 8, 8192
8, 24460, Note_on_c, 8, 70, 81
8, 24464, Pitch_bend_c, 8, 8224
8, 24467, Pitch_bend_c, 8, 8192
8, 24468, Pitch_bend_c, 8, 8064
8, 24470, Pitch_bend_c, 8, 7968
8, 24471, Pitch_bend_c, 8, 7904
8, 24472, Pitch_bend_c, 8, 8096
8, 24473, Note_on_c, 8, 70, 0
8, 24473, Pitch_bend_c, 8, 8192
8, 24477, Note_on_c, 8, 73, 86
8, 24478, Pitch_bend_c, 8, 9504
8, 24479, Pitch_bend_c, 8, 9376
8, 24480, Pitch_bend_c, 8, 9024
8, 24481, Pitch_bend_c, 8, 8864
8, 24483, Pitch_bend_c, 8, 8608
8, 24484, Pitch_bend_c, 8, 8448
8, 24485, Pitch_bend_c, 8, 8384
8, 24487, Pitch_bend_c, 8, 8288
8, 24488, Pitch_bend_c, 8, 8256
8, 24490, Pitch_bend_c, 8, 8224
8, 24491, Note_on_c, 8, 73, 0
8, 24491, Pitch_bend_c, 8, 8384
8, 24496, Pitch_bend_c, 8, 8192
8, 24497, Note_on_c, 8, 75, 82
8, 24497, Pitch_bend_c, 8, 8160
8, 24498, Pitch_bend_c, 8, 8128
8, 24501, Pitch_bend_c, 8, 8064
8, 24503, Pitch_bend_c, 8, 8000
8, 24504, Pitch_bend_c, 8, 7904
8, 24506, Pitch_bend_c, 8, 7936
8, 24507, Pitch_bend_c, 8, 7520
8, 24508, Note_on_c, 8, 75, 0
8, 24508, Pitch_bend_c, 8, 8064
8, 24516, Pitch_bend_c, 8, 8192
8, 24517, Note_on_c, 8, 73, 84
8, 24517, Pitch_bend_c, 8, 8416
8, 24518, Pitch_bend_c, 8, 8384
8, 24520, Pitch_bend_c, 8, 8352
8, 24523, Pitch_bend_c, 8, 8288
8, 24525, Pitch_bend_c, 8, 8256
8, 24528, Pitch_bend_c, 8, 8288
8, 24529, Pitch_bend_c, 8, 8352
8, 24531, Pitch_bend_c, 8, 8448
8, 24532, Pitch_bend_c, 8, 8704
8, 24534, Pitch_bend_c, 8, 9024
8, 24535, Pitch_bend_c, 8, 9472
8, 24536, Pitch_bend_c, 8, 10048
8, 24538, Pitch_bend_c, 8, 10560
8, 24539, Pitch_bend_c, 8, 11040
8, 24541, Pitch_bend_c, 8, 11328
8, 24542, Pitch_bend_c, 8, 11456
8, 24544, Pitch_bend_c, 8, 11136
8, 24545, Pitch_bend_c, 8, 8512
8, 24547, Note_on_c, 8, 73, 0
8, 24547, Pitch_bend_c, 8, 11040
8, 24556, Pitch_bend_c, 8, 8192
8, 24557, Note_on_c, 8, 70, 58
8, 24558, Pitch_bend_c, 8, 8160
8, 24561, Pitch_bend_c, 8, 8128
8, 24563, Pitch_bend_c, 8, 8096
8, 24564, Pitch_bend_c, 8, 8064
8, 24565, Pitch_bend_c, 8, 7808
8, 24566, Note_on_c, 8, 70, 0
8, 24566, Pitch_bend_c, 8, 8160
8, 24567, Note_on_c, 8, 68, 44
8, 24567, Pitch_bend_c, 8, 8064
8, 24568, Pitch_bend_c, 8, 8096
8, 24570, Pitch_bend_c, 8, 8128
8, 24572, Pitch_bend_c, 8, 8160
8, 24573, Pitch_bend_c, 8, 8192
8, 24578, Pitch_bend_c, 8, 8128
8, 24579, Pitch_bend_c, 8, 8032
8, 24580, Pitch_bend_c, 8, 8064
8, 24582, Pitch_bend_c, 8, 8384
8, 24584, Pitch_bend_c, 8, 8992
8, 24585, Pitch_bend_c, 8, 9728
8, 24586, Pitch_bend_c, 8, 10368
8, 24588, Pitch_bend_c, 8, 10528
8, 24589, Pitch_bend_c, 8, 10144
8, 24591, Pitch_bend_c, 8, 7936
8, 24592, Pitch_bend_c, 8, 7904
8, 24595, Pitch_bend_c, 8, 7872
8, 24597, Pitch_bend_c, 8, 7840
8, 24598, Pitch_bend_c, 8, 7936
8, 24599, Pitch_bend_c, 8, 8192
8, 24600, Pitch_bend_c, 8, 8864
8, 24602, Pitch_bend_c, 8, 9632
8, 24603, Pitch_bend_c, 8, 10336
8, 24605, Note_on_c, 8, 68, 0
8, 24605, Pitch_bend_c, 8, 10720
8, 24838, Pitch_bend_c, 8, 8192
8, 24841, Note_on_c, 8, 75, 96
8, 24841, Pitch_bend_c, 8, 7776
8, 24844, Pitch_bend_c, 8, 8000
8, 24845, Pitch_bend_c, 8, 8448
8, 24847, Pitch_bend_c, 8, 11264
8, 24848, Pitch_bend_c, 8, 11584
8, 24850, Pitch_bend_c, 8, 12128
8, 24851, Pitch_bend_c, 8, 12864
8, 24853, Pitch_bend_c, 8, 13728
8, 24854, Pitch_bend_c, 8, 14304
8, 24855, Pitch_bend_c, 8, 14688
8, 24857, Pitch_bend_c, 8, 14912
8, 24858, Pitch_bend_c, 8, 15072
8, 24859, Pitch_bend_c, 8, 15168
8, 24865, Pitch_bend_c, 8, 15104
8, 24866, Pitch_bend_c, 8, 15008
8, 24868, Pitch_bend_c, 8, 14912
8, 24869, Pitch_bend_c, 8, 14720
8, 24871, Pitch_bend_c, 8, 14528
8, 24872, Note_on_c, 8, 75, 0
8, 24872, Pitch_bend_c, 8, 15008
8, 24875, Note_on_c, 8, 76, 79
8, 24875, Pitch_bend_c, 8, 5600
8, 24878, Pitch_bend_c, 8, 5216
8, 24880, Pitch_bend_c, 8, 4672
8, 24881, Pitch_bend_c, 8, 4160
8, 24882, Pitch_bend_c, 8, 3712
8, 24884, Pitch_bend_c, 8, 3584
8, 24885, Pitch_bend_c, 8, 3712
8, 24887, Pitch_bend_c, 8, 3904
8, 24888, Note_on_c, 8, 76, 0
8, 24888, Note_on_c, 8, 72, 69
8, 24888, Pitch_bend_c, 8, 12000
8, 24893, Pitch_bend_c, 8, 12032
8, 24894, Pitch_bend_c, 8, 12064
8, 24896, Pitch_bend_c, 8, 12128
8, 24897, Note_on_c, 8, 72, 0
8, 24897, Pitch_bend_c, 8, 8192
8, 24897, Note_on_c, 8, 70, 87
8, 24906, Pitch_bend_c, 8, 8448
8, 24907, Pitch_bend_c, 8, 8384
8, 24909, Pitch_bend_c, 8, 8352
8, 24913, Pitch_bend_c, 8, 8320
8, 24914, Pitch_bend_c, 8, 8256
8, 24915, Pitch_bend_c, 8, 8224
8, 24917, Pitch_bend_c, 8, 8192
8, 24918, Pitch_bend_c, 8, 8096
8, 24921, Pitch_bend_c, 8, 8064
8, 24922, Pitch_bend_c, 8, 8032
8, 24924, Pitch_bend_c, 8, 7968
8, 24925, Pitch_bend_c, 8, 7904
8, 24926, Pitch_bend_c, 8, 7840
8, 24930, Note_on_c, 8, 70, 0
8, 24930, Pitch_bend_c, 8, 7712
8, 24931, Pitch_bend_c, 8, 8192
8, 24932, Note_on_c, 8, 73, 89
8, 24933, Pitch_bend_c, 8, 8384
8, 24937, Pitch_bend_c, 8, 8416
8, 24939, Pitch_bend_c, 8, 8448
8, 24940, Pitch_bend_c, 8, 8512
8, 24947, Pitch_bend_c, 8, 8544
8, 24949, Pitch_bend_c, 8, 8608
8, 24950, Pitch_bend_c, 8, 8672
8, 24953, Pitch_bend_c, 8, 8704
8, 24954, Pitch_bend_c, 8, 8736
8, 24956, Pitch_bend_c, 8, 8832
8, 24957, Pitch_bend_c, 8, 8992
8, 24958, Pitch_bend_c, 8, 9216
8, 24960, Pitch_bend_c, 8, 9760
8, 24961, Pitch_bend_c, 8, 10400
8, 24963, Pitch_bend_c, 8, 11072
8, 24964, Pitch_bend_c, 8, 11712
8, 24965, Pitch_bend_c, 8, 12128
8, 24967, Note_on_c, 8, 73, 0
8, 25600, Pitch_bend_c, 8, 8192
8, 25601, Note_on_c, 8, 67, 95
8, 25601, Pitch_bend_c, 8, 8992
8, 25602, Pitch_bend_c, 8, 9024
8, 25603, Pitch_bend_c, 8, 8192
8, 25603, Note_on_c, 8, 70, 93
8, 25608, Pitch_bend_c, 8, 8992
8, 25609, Pitch_bend_c, 8, 8928
8, 25611, Pitch_bend_c, 8, 8864
8, 25612, Note_on_c, 8, 70, 0
8, 25612, Pitch_bend_c, 8, 8768
8, 25614, Pitch_bend_c, 8, 8640
8, 25615, Pitch_bend_c, 8, 8416
8, 25616, Note_on_c, 8, 67, 0
8, 25621, Note_on_c, 8, 70, 85
8, 25621, Pitch_bend_c, 8, 8192
8, 25622, Pitch_bend_c, 8, 8224
8, 25623, Pitch_bend_c, 8, 8256
8, 25626, Pitch_bend_c, 8, 8224
8, 25627, Pitch_bend_c, 8, 8192
8, 25629, Pitch_bend_c, 8, 8160
8, 25631, Pitch_bend_c, 8, 8128
8, 25632, Pitch_bend_c, 8, 8096
8, 25634, Pitch_bend_c, 8, 8064
8, 25635, Pitch_bend_c, 8, 8128
8, 25636, Note_on_c, 8, 70, 0
8, 25636, Pitch_bend_c, 8, 8160
8, 25639, Pitch_bend_c, 8, 8192
8, 25641, Note_on_c, 8, 73, 89
8, 25641, Pitch_bend_c, 8, 8448
8, 25645, Pitch_bend_c, 8, 8416
8, 25647, Pitch_bend_c, 8, 8352
8, 25648, Pitch_bend_c, 8, 8256
8, 25649, Pitch_bend_c, 8, 8224
8, 25653, Pitch_bend_c, 8, 8192
8, 25655, Pitch_bend_c, 8, 8224
8, 25656, Note_on_c, 8, 73, 0
8, 25656, Pitch_bend_c, 8, 8352
8, 25662, Pitch_bend_c, 8, 8192
8, 25663, Note_on_c, 8, 75, 89
8, 25663, Pitch_bend_c, 8, 8256
8, 25667, Pitch_bend_c, 8, 8224
8, 25670, Pitch_bend_c, 8, 8192
8, 25671, Pitch_bend_c, 8, 8224
8, 25673, Pitch_bend_c, 8, 8320
8, 25675, Pitch_bend_c, 8, 8544
8, 25677, Pitch_bend_c, 8, 8896
8, 25678, Pitch_bend_c, 8, 9440
8, 25679, Pitch_bend_c, 8, 10144
8, 25681, Pitch_bend_c, 8, 10912
8, 25682, Pitch_bend_c, 8, 11552
8, 25683, Pitch_bend_c, 8, 12000
8, 25685, Pitch_bend_c, 8, 12224
8, 25686, Pitch_bend_c, 8, 12288
8, 25688, Note_on_c, 8, 75, 0
8, 25688, Pitch_bend_c, 8, 12032
8, 25691, Pitch_bend_c, 8, 8192
8, 25692, Note_on_c, 8, 77, 88
8, 25692, Pitch_bend_c, 8, 8576
8, 25693, Pitch_bend_c, 8, 8640
8, 25699, Pitch_bend_c, 8, 8576
8, 25700, Pitch_bend_c, 8, 8640
8, 25703, Pitch_bend_c, 8, 8672
8, 25705, Pitch_bend_c, 8, 8736
8, 25707, Pitch_bend_c, 8, 8800
8, 25708, Note_on_c, 8, 77, 0
8, 25716, Pitch_bend_c, 8, 8192
8, 25717, Note_on_c, 8, 73, 89
8, 25718, Pitch_bend_c, 8, 8352
8, 25721, Pitch_bend_c, 8, 8288
8, 25722, Pitch_bend_c, 8, 8384
8, 25724, Pitch_bend_c, 8, 8512
8, 25725, Pitch_bend_c, 8, 8704
8, 25726, Pitch_bend_c, 8, 8992
8, 25728, Pitch_bend_c, 8, 9216
8, 25729, Pitch_bend_c, 8, 9472
8, 25731, Pitch_bend_c, 8, 9696
8, 25732, Pitch_bend_c, 8, 9984
8, 25733, Pitch_bend_c, 8, 10304
8, 25735, Pitch_bend_c, 8, 10720
8, 25736, Pitch_bend_c, 8, 11232
8, 25738, Pitch_bend_c, 8, 11808
8, 25739, Pitch_bend_c, 8, 12288
8, 25740, Pitch_bend_c, 8, 12672
8, 25742, Note_on_c, 8, 73, 0
8, 25742, Pitch_bend_c, 8, 12800
8, 25756, Note_on_c, 8, 70, 83
8, 25756, Pitch_bend_c, 8, 7872
8, 25758, Pitch_bend_c, 8, 7840
8, 25759, Pitch_bend_c, 8, 7904
8, 25761, Pitch_bend_c, 8, 7936
8, 25762, Pitch_bend_c, 8, 7968
8, 25765, Pitch_bend_c, 8, 7904
8, 25766, Pitch_bend_c, 8, 7808
8, 25767, Pitch_bend_c, 8, 7680
8, 25769, Pitch_bend_c, 8, 7648
8, 25770, Pitch_bend_c, 8, 7584
8, 25773, Pitch_bend_c, 8, 7648
8, 25776, Pitch_bend_c, 8, 7680
8, 25777, Pitch_bend_c, 8, 7712
8, 25779, Pitch_bend_c, 8, 7872
8, 25780, Pitch_bend_c, 8, 8224
8, 25781, Pitch_bend_c, 8, 8832
8, 25783, Pitch_bend_c, 8, 9536
8, 25784, Pitch_bend_c, 8, 10208
8, 25785, Pitch_bend_c, 8, 10656
8, 25787, Pitch_bend_c, 8, 10848
8, 25788, Pitch_bend_c, 8, 10592
8, 25790, Pitch_bend_c, 8, 8160
8, 25791, Pitch_bend_c, 8, 8064
8, 25793, Pitch_bend_c, 8, 8000
8, 25794, Pitch_bend_c, 8, 7904
8, 25795, Pitch_bend_c, 8, 7808
8, 25798, Pitch_bend_c, 8, 8032
8, 25800, Pitch_bend_c, 8, 8576
8, 25801, Pitch_bend_c, 8, 11200
8, 25802, Pitch_bend_c, 8, 11296
8, 25804, Pitch_bend_c, 8, 11360
8, 25806, Pitch_bend_c, 8, 11008
8, 25807, Pitch_bend_c, 8, 8288
8, 25808, Pitch_bend_c, 8, 8192
8, 25810, Pitch_bend_c, 8, 8096
8, 25811, Pitch_bend_c, 8, 8000
8, 25813, Pitch_bend_c, 8, 7904
8, 25814, Pitch_bend_c, 8, 7872
8, 25815, Pitch_bend_c, 8, 7968
8, 25817, Pitch_bend_c, 8, 8352
8, 25818, Pitch_bend_c, 8, 9024
8, 25820, Pitch_bend_c, 8, 9760
8, 25821, Pitch_bend_c, 8, 10240
8, 25822, Pitch_bend_c, 8, 10080
8, 25823, Note_on_c, 8, 70, 0
8, 26180, Note_on_c, 8, 63, 81
8, 26180, Pitch_bend_c, 8, 8576
8, 26182, Pitch_bend_c, 8, 8672
8, 26183, Pitch_bend_c, 8, 8736
8, 26185, Pitch_bend_c, 8, 8960
8, 26186, Pitch_bend_c, 8, 9344
8, 26187, Pitch_bend_c, 8, 9920
8, 26189, Pitch_bend_c, 8, 10624
8, 26190, Pitch_bend_c, 8, 11264
8, 26192, Pitch_bend_c, 8, 11808
8, 26193, Pitch_bend_c, 8, 12192
8, 26194, Pitch_bend_c, 8, 12480
8, 26196, Pitch_bend_c, 8, 12704
8, 26197, Pitch_bend_c, 8, 12896
8, 26198, Pitch_bend_c, 8, 13088
8, 26200, Pitch_bend_c, 8, 13344
8, 26202, Pitch_bend_c, 8, 13536
8, 26203, Pitch_bend_c, 8, 13728
8, 26205, Pitch_bend_c, 8, 13888
8, 26206, Pitch_bend_c, 8, 13952
8, 26207, Pitch_bend_c, 8, 14048
8, 26209, Pitch_bend_c, 8, 14144
8, 26210, Pitch_bend_c, 8, 14272
8, 26212, Pitch_bend_c, 8, 14432
8, 26213, Pitch_bend_c, 8, 14528
8, 26214, Pitch_bend_c, 8, 14592
8, 26216, Pitch_bend_c, 8, 14656
8, 26217, Pitch_bend_c, 8, 14720
8, 26219, Pitch_bend_c, 8, 14784
8, 26220, Pitch_bend_c, 8, 14816
8, 26221, Pitch_bend_c, 8, 14880
8, 26223, Pitch_bend_c, 8, 14912
8, 26224, Pitch_bend_c, 8, 14944
8, 26225, Pitch_bend_c, 8, 14976
8, 26230, Pitch_bend_c, 8, 15008
8, 26231, Pitch_bend_c, 8, 15072
8, 26233, Pitch_bend_c, 8, 15104
8, 26234, Pitch_bend_c, 8, 15168
8, 26235, Pitch_bend_c, 8, 15200
8, 26249, Pitch_bend_c, 8, 15232
8, 26250, Pitch_bend_c, 8, 15296
8, 26251, Pitch_bend_c, 8, 15392
8, 26253, Pitch_bend_c, 8, 15456
8, 26254, Pitch_bend_c, 8, 15520
8, 26255, Pitch_bend_c, 8, 15584
8, 26261, Pitch_bend_c, 8, 15488
8, 26263, Pitch_bend_c, 8, 15296
8, 26264, Pitch_bend_c, 8, 15136
8, 26265, Pitch_bend_c, 8, 15008
8, 26267, Pitch_bend_c, 8, 14912
8, 26268, Pitch_bend_c, 8, 14944
8, 26269, Pitch_bend_c, 8, 15072
8, 26271, Pitch_bend_c, 8, 15328
8, 26272, Pitch_bend_c, 8, 15680
8, 26274, Pitch_bend_c, 8, 15968
8, 26275, Pitch_bend_c, 8, 16256
8, 26276, Pitch_bend_c, 8, 16383
8, 26278, Pitch_bend_c, 8, 16224
8, 26279, Pitch_bend_c, 8, 15904
8, 26281, Pitch_bend_c, 8, 15520
8, 26282, Pitch_bend_c, 8, 15232
8, 26283, Pitch_bend_c, 8, 15104
8, 26285, Pitch_bend_c, 8, 15200
8, 26286, Pitch_bend_c, 8, 15424
8, 26288, Pitch_bend_c, 8, 15680
8, 26289, Pitch_bend_c, 8, 15872
8, 26291, Pitch_bend_c, 8, 16064
8, 26293, Pitch_bend_c, 8, 15968
8, 26295, Note_on_c, 8, 63, 0
8, 26314, Note_on_c, 8, 58, 87
8, 26314, Pitch_bend_c, 8, 8320
8, 26315, Pitch_bend_c, 8, 8352
8, 26321, Pitch_bend_c, 8, 8320
8, 26326, Note_on_c, 8, 58, 0
8, 26329, Pitch_bend_c, 8, 8192
8, 26330, Note_on_c, 8, 61, 94
8, 26332, Pitch_bend_c, 8, 8224
8, 26333, Pitch_bend_c, 8, 8256
8, 26334, Pitch_bend_c, 8, 8288
8, 26338, Pitch_bend_c, 8, 8256
8, 26341, Pitch_bend_c, 8, 8288
8, 26342, Note_on_c, 8, 61, 0
8, 26344, Pitch_bend_c, 8, 8192
8, 26345, Note_on_c, 8, 63, 92
8, 26346, Pitch_bend_c, 8, 8256
8, 26347, Pitch_bend_c, 8, 8320
8, 26350, Pitch_bend_c, 8, 8384
8, 26351, Pitch_bend_c, 8, 8416
8, 26352, Pitch_bend_c, 8, 8448
8, 26355, Note_on_c, 8, 63, 0
8, 26355, Pitch_bend_c, 8, 8416
8, 26368, Pitch_bend_c, 8, 8192
8, 26368, Note_on_c, 8, 64, 84
8, 26370, Pitch_bend_c, 8, 7744
8, 26372, Pitch_bend_c, 8, 7712
8, 26373, Pitch_bend_c, 8, 7648
8, 26374, Pitch_bend_c, 8, 7488
8, 26376, Pitch_bend_c, 8, 7104
8, 26377, Pitch_bend_c, 8, 6464
8, 26379, Pitch_bend_c, 8, 5792
8, 26380, Pitch_bend_c, 8, 5120
8, 26382, Pitch_bend_c, 8, 4640
8, 26383, Pitch_bend_c, 8, 4384
8, 26384, Pitch_bend_c, 8, 4256
8, 26386, Pitch_bend_c, 8, 4192
8, 26388, Pitch_bend_c, 8, 4160
8, 26390, Pitch_bend_c, 8, 4128
8, 26391, Pitch_bend_c, 8, 4032
8, 26392, Note_on_c, 8, 64, 0
8, 26395, Pitch_bend_c, 8, 8192
8, 26396, Note_on_c, 8, 61, 82
8, 26396, Pitch_bend_c, 8, 8128
8, 26404, Pitch_bend_c, 8, 8160
8, 26406, Note_on_c, 8, 61, 0
8, 26406, Pitch_bend_c, 8, 8384
8, 26408, Pitch_bend_c, 8, 8192
8, 26409, Note_on_c, 8, 58, 53
8, 26409, Pitch_bend_c, 8, 8128
8, 26416, Pitch_bend_c, 8, 8160
8, 26419, Pitch_bend_c, 8, 8192
8, 26424, Pitch_bend_c, 8, 8160
8, 26432, Pitch_bend_c, 8, 8192
8, 26434, Note_on_c, 8, 58, 0
8, 26437, Note_on_c, 8, 61, 93
8, 26438, Pitch_bend_c, 8, 7872
8, 26439, Pitch_bend_c, 8, 7936
8, 26441, Pitch_bend_c, 8, 8000
8, 26442, Pitch_bend_c, 8, 8032
8, 26443, Pitch_bend_c, 8, 8064
8, 26445, Pitch_bend_c, 8, 8128
8, 26446, Pitch_bend_c, 8, 8096
8, 26448, Pitch_bend_c, 8, 8128
8, 26449, Note_on_c, 8, 61, 0
8, 26451, Pitch_bend_c, 8, 8192
8, 26452, Note_on_c, 8, 62, 93
8, 26452, Pitch_bend_c, 8, 8288
8, 26454, Pitch_bend_c, 8, 8160
8, 26456, Pitch_bend_c, 8, 8128
8, 26457, Pitch_bend_c, 8, 8032
8, 26460, Pitch_bend_c, 8, 8192
8, 26462, Pitch_bend_c, 8, 8320
8, 26463, Note_on_c, 8, 62, 0
8, 26466, Pitch_bend_c, 8, 8192
8, 26467, Note_on_c, 8, 65, 94
8, 26467, Pitch_bend_c, 8, 8288
8, 26473, Pitch_bend_c, 8, 8256
8, 26476, Pitch_bend_c, 8, 8288
8, 26477, Note_on_c, 8, 65, 0
8, 26481, Note_on_c, 8, 70, 97
8, 26481, Pitch_bend_c, 8, 8384
8, 26491, Pitch_bend_c, 8, 8352
8, 26494, Pitch_bend_c, 8, 8320
8, 26497, Note_on_c, 8, 70, 0
8, 26497, Pitch_bend_c, 8, 8416
8, 26500, Pitch_bend_c, 8, 8192
8, 26501, Note_on_c, 8, 69, 84
8, 26502, Pitch_bend_c, 8, 4448
8, 26505, Pitch_bend_c, 8, 4512
8, 26506, Pitch_bend_c, 8, 4576
8, 26508, Pitch_bend_c, 8, 4512
8, 26509, Pitch_bend_c, 8, 4448
8, 26510, Pitch_bend_c, 8, 4384
8, 26512, Note_on_c, 8, 69, 0
8, 26512, Pitch_bend_c, 8, 4576
8, 26516, Pitch_bend_c, 8, 8192
8, 26517, Note_on_c, 8, 70, 95
8, 26517, Pitch_bend_c, 8, 8320
8, 26518, Pitch_bend_c, 8, 8352
8, 26521, Pitch_bend_c, 8, 8320
8, 26536, Note_on_c, 8, 70, 0
8, 26542, Pitch_bend_c, 8, 8192
8, 26543, Note_on_c, 8, 68, 87
8, 26543, Pitch_bend_c, 8, 9408
8, 26544, Pitch_bend_c, 8, 8448
8, 26546, Pitch_bend_c, 8, 8352
8, 26548, Pitch_bend_c, 8, 8288
8, 26550, Pitch_bend_c, 8, 8192
8, 26551, Pitch_bend_c, 8, 11872
8, 26552, Pitch_bend_c, 8, 12096
8, 26554, Pitch_bend_c, 8, 16032
8, 26555, Pitch_bend_c, 8, 16064
8, 26556, Pitch_bend_c, 8, 16128
8, 26558, Pitch_bend_c, 8, 16224
8, 26559, Pitch_bend_c, 8, 16320
8, 26561, Pitch_bend_c, 8, 16352
8, 26563, Pitch_bend_c, 8, 16288
8, 26565, Pitch_bend_c, 8, 16224
8, 26566, Pitch_bend_c, 8, 16192
8, 26568, Pitch_bend_c, 8, 16352
8, 26569, Note_on_c, 8, 68, 0
8, 26572, Pitch_bend_c, 8, 8192
8, 26573, Note_on_c, 8, 73, 88
8, 26573, Pitch_bend_c, 8, 8512
8, 26581, Pitch_bend_c, 8, 8544
8, 26582, Pitch_bend_c, 8, 8864
8, 26583, Note_on_c, 8, 73, 0
8, 26585, Pitch_bend_c, 8, 8192
8, 26586, Note_on_c, 8, 75, 89
8, 26586, Pitch_bend_c, 8, 8320
8, 26593, Pitch_bend_c, 8, 8352
8, 26594, Pitch_bend_c, 8, 8480
8, 26596, Note_on_c, 8, 75, 0
8, 26608, Pitch_bend_c, 8, 8192
8, 26610, Note_on_c, 8, 76, 90
8, 26610, Pitch_bend_c, 8, 8480
8, 26615, Pitch_bend_c, 8, 8384
8, 26616, Pitch_bend_c, 8, 8224
8, 26618, Pitch_bend_c, 8, 8128
8, 26619, Pitch_bend_c, 8, 7936
8, 26621, Pitch_bend_c, 8, 7648
8, 26622, Pitch_bend_c, 8, 7104
8, 26623, Pitch_bend_c, 8, 4672
8, 26625, Pitch_bend_c, 8, 4512
8, 26626, Pitch_bend_c, 8, 4384
8, 26628, Pitch_bend_c, 8, 4256
8, 26629, Pitch_bend_c, 8, 4128
8, 26630, Pitch_bend_c, 8, 3840
8, 26631, Note_on_c, 8, 76, 0
8, 26631, Pitch_bend_c, 8, 4512
8, 26634, Pitch_bend_c, 8, 8192
8, 26634, Note_on_c, 8, 73, 87
8, 26635, Pitch_bend_c, 8, 8384
8, 26639, Pitch_bend_c, 8, 8416
8, 26642, Pitch_bend_c, 8, 8192
8, 26643, Note_on_c, 8, 73, 0
8, 26643, Note_on_c, 8, 70, 74
8, 26645, Pitch_bend_c, 8, 8224
8, 26647, Pitch_bend_c, 8, 8256
8, 26648, Pitch_bend_c, 8, 8288
8, 26651, Pitch_bend_c, 8, 8256
8, 26652, Pitch_bend_c, 8, 8224
8, 26654, Pitch_bend_c, 8, 8192
8, 26655, Pitch_bend_c, 8, 8128
8, 26656, Pitch_bend_c, 8, 8064
8, 26658, Pitch_bend_c, 8, 8000
8, 26660, Pitch_bend_c, 8, 8096
8, 26662, Pitch_bend_c, 8, 8192
8, 26663, Pitch_bend_c, 8, 10528
8, 26665, Pitch_bend_c, 8, 10752
8, 26666, Pitch_bend_c, 8, 11008
8, 26667, Pitch_bend_c, 8, 11168
8, 26670, Pitch_bend_c, 8, 8992
8, 26672, Pitch_bend_c, 8, 8768
8, 26673, Pitch_bend_c, 8, 8512
8, 26674, Pitch_bend_c, 8, 8288
8, 26676, Pitch_bend_c, 8, 8128
8, 26677, Pitch_bend_c, 8, 8096
8, 26679, Pitch_bend_c, 8, 8160
8, 26680, Pitch_bend_c, 8, 8384
8, 26682, Pitch_bend_c, 8, 8704
8, 26683, Pitch_bend_c, 8, 9056
8, 26684, Pitch_bend_c, 8, 9216
8, 26686, Pitch_bend_c, 8, 8928
8, 26687, Pitch_bend_c, 8, 8480
8, 26689, Pitch_bend_c, 8, 8192
8, 26690, Pitch_bend_c, 8, 8032
8, 26693, Pitch_bend_c, 8, 8096
8, 26694, Note_on_c, 8, 70, 0
8, 27161, Pitch_bend_c, 8, 8192
8, 27165, Note_on_c, 8, 72, 85
8, 27165, Pitch_bend_c, 8, 8512
8, 27166, Pitch_bend_c, 8, 8608
8, 27167, Pitch_bend_c, 8, 8544
8, 27169, Pitch_bend_c, 8, 8448
8, 27170, Pitch_bend_c, 8, 8480
8, 27171, Pitch_bend_c, 8, 8416
8, 27173, Pitch_bend_c, 8, 8352
8, 27175, Pitch_bend_c, 8, 8320
8, 27177, Pitch_bend_c, 8, 8544
8, 27178, Pitch_bend_c, 8, 9120
8, 27180, Pitch_bend_c, 8, 11456
8, 27181, Pitch_bend_c, 8, 11616
8, 27182, Pitch_bend_c, 8, 11808
8, 27184, Pitch_bend_c, 8, 12064
8, 27185, Pitch_bend_c, 8, 12352
8, 27187, Pitch_bend_c, 8, 12448
8, 27188, Pitch_bend_c, 8, 12096
8, 27190, Pitch_bend_c, 8, 9536
8, 27191, Pitch_bend_c, 8, 9280
8, 27193, Pitch_bend_c, 8, 8864
8, 27194, Pitch_bend_c, 8, 8448
8, 27195, Pitch_bend_c, 8, 8032
8, 27197, Pitch_bend_c, 8, 7904
8, 27199, Pitch_bend_c, 8, 7936
8, 27201, Pitch_bend_c, 8, 8000
8, 27202, Pitch_bend_c, 8, 8096
8, 27203, Pitch_bend_c, 8, 8128
8, 27205, Pitch_bend_c, 8, 8160
8, 27206, Pitch_bend_c, 8, 8000
8, 27207, Note_on_c, 8, 72, 0
8, 27210, Pitch_bend_c, 8, 8192
8, 27211, Note_on_c, 8, 70, 84
8, 27211, Pitch_bend_c, 8, 8544
8, 27213, Pitch_bend_c, 8, 8512
8, 27217, Pitch_bend_c, 8, 8480
8, 27220, Pitch_bend_c, 8, 8512
8, 27221, Note_on_c, 8, 70, 0
8, 27222, Pitch_bend_c, 8, 8192
8, 27223, Note_on_c, 8, 67, 87
8, 27224, Pitch_bend_c, 8, 8000
8, 27226, Pitch_bend_c, 8, 7968
8, 27227, Pitch_bend_c, 8, 7936
8, 27234, Pitch_bend_c, 8, 7744
8, 27236, Note_on_c, 8, 67, 0
8, 27236, Pitch_bend_c, 8, 8192
8, 27236, Note_on_c, 8, 70, 87
8, 27237, Pitch_bend_c, 8, 8480
8, 27238, Pitch_bend_c, 8, 8352
8, 27240, Pitch_bend_c, 8, 8320
8, 27241, Pitch_bend_c, 8, 8288
8, 27245, Pitch_bend_c, 8, 8192
8, 27246, Note_on_c, 8, 70, 0
8, 27249, Note_on_c, 8, 69, 84
8, 27249, Pitch_bend_c, 8, 7776
8, 27250, Pitch_bend_c, 8, 7872
8, 27251, Pitch_bend_c, 8, 7904
8, 27253, Pitch_bend_c, 8, 7968
8, 27254, Pitch_bend_c, 8, 8096
8, 27256, Pitch_bend_c, 8, 8288
8, 27257, Pitch_bend_c, 8, 8640
8, 27258, Pitch_bend_c, 8, 9120
8, 27260, Pitch_bend_c, 8, 9696
8, 27261, Pitch_bend_c, 8, 10240
8, 27263, Pitch_bend_c, 8, 10752
8, 27264, Pitch_bend_c, 8, 11104
8, 27265, Pitch_bend_c, 8, 11392
8, 27267, Pitch_bend_c, 8, 11616
8, 27268, Pitch_bend_c, 8, 11776
8, 27269, Pitch_bend_c, 8, 11904
8, 27271, Pitch_bend_c, 8, 11968
8, 27277, Pitch_bend_c, 8, 12000
8, 27287, Pitch_bend_c, 8, 11968
8, 27291, Pitch_bend_c, 8, 11936
8, 27298, Pitch_bend_c, 8, 11968
8, 27300, Pitch_bend_c, 8, 12000
8, 27304, Pitch_bend_c, 8, 11872
8, 27306, Pitch_bend_c, 8, 11552
8, 27307, Pitch_bend_c, 8, 11200
8, 27309, Pitch_bend_c, 8, 10848
8, 27310, Pitch_bend_c, 8, 10592
8, 27311, Pitch_bend_c, 8, 10656
8, 27313, Pitch_bend_c, 8, 11040
8, 27314, Pitch_bend_c, 8, 11552
8, 27316, Pitch_bend_c, 8, 12224
8, 27317, Pitch_bend_c, 8, 12896
8, 27319, Pitch_bend_c, 8, 13280
8, 27320, Pitch_bend_c, 8, 13536
8, 27322, Pitch_bend_c, 8, 13248
8, 27323, Pitch_bend_c, 8, 10144
8, 27325, Pitch_bend_c, 8, 10016
8, 27326, Pitch_bend_c, 8, 9952
8, 27327, Pitch_bend_c, 8, 10176
8, 27329, Pitch_bend_c, 8, 10624
8, 27330, Pitch_bend_c, 8, 11296
8, 27332, Pitch_bend_c, 8, 11968
8, 27333, Pitch_bend_c, 8, 12480
8, 27334, Pitch_bend_c, 8, 12800
8, 27336, Pitch_bend_c, 8, 13024
8, 27337, Pitch_bend_c, 8, 12960
8, 27338, Pitch_bend_c, 8, 10752
8, 27340, Pitch_bend_c, 8, 10688
8, 27341, Note_on_c, 8, 69, 0
8, 27341, Pitch_bend_c, 8, 12800
8, 27781, Pitch_bend_c, 8, 8192
8, 27782, Note_on_c, 8, 68, 84
8, 27782, Pitch_bend_c, 8, 8544
8, 27783, Pitch_bend_c, 8, 8192
8, 27783, Note_on_c, 8, 70, 95
8, 27841, Note_on_c, 8, 70, 0
8, 27846, Note_on_c, 8, 70, 93
8, 27877, Note_on_c, 8, 68, 0
8, 27878, Note_on_c, 8, 70, 0
8, 27880, Note_on_c, 8, 67, 95
8, 27880, Note_on_c, 8, 70, 87
8, 27940, Note_on_c, 8, 70, 0
8, 27942, Pitch_bend_c, 8, 8160
8, 27944, Pitch_bend_c, 8, 8192
8, 27944, Note_on_c, 8, 70, 88
8, 27971, Note_on_c, 8, 67, 0
8, 27972, Pitch_bend_c, 8, 8448
8, 27973, Pitch_bend_c, 8, 8416
8, 27975, Note_on_c, 8, 70, 0
8, 27975, Note_on_c, 8, 66, 90
8, 27975, Pitch_bend_c, 8, 8192
8, 27978, Note_on_c, 8, 70, 89
8, 28036, Note_on_c, 8, 70, 0
8, 28039, Note_on_c, 8, 70, 91
8, 28067, Note_on_c, 8, 66, 0
8, 28068, Pitch_bend_c, 8, 8480
8, 28069, Pitch_bend_c, 8, 8416
8, 28070, Note_on_c, 8, 70, 0
8, 28070, Note_on_c, 8, 65, 92
8, 28070, Pitch_bend_c, 8, 8224
8, 28073, Pitch_bend_c, 8, 8192
8, 28073, Note_on_c, 8, 70, 95
8, 28114, Note_on_c, 8, 65, 0
8, 28114, Pitch_bend_c, 8, 8224
8, 28115, Note_on_c, 8, 70, 0
8, 28168, Pitch_bend_c, 8, 8192
8, 28169, Note_on_c, 8, 73, 112
8, 28170, Pitch_bend_c, 8, 8544
8, 28171, Pitch_bend_c, 8, 8416
8, 28175, Pitch_bend_c, 8, 8384
8, 28176, Pitch_bend_c, 8, 8352
8, 28178, Pitch_bend_c, 8, 8288
8, 28179, Pitch_bend_c, 8, 8256
8, 28180, Pitch_bend_c, 8, 8224
8, 28182, Pitch_bend_c, 8, 8192
8, 28186, Pitch_bend_c, 8, 8224
8, 28196, Pitch_bend_c, 8, 8352
8, 28197, Pitch_bend_c, 8, 8608
8, 28199, Pitch_bend_c, 8, 9184
8, 28200, Pitch_bend_c, 8, 11648
8, 28201, Pitch_bend_c, 8, 11776
8, 28203, Pitch_bend_c, 8, 11936
8, 28204, Pitch_bend_c, 8, 12096
8, 28206, Pitch_bend_c, 8, 12160
8, 28207, Note_on_c, 8, 73, 0
8, 28229, Pitch_bend_c, 8, 8192
8, 28230, Note_on_c, 8, 70, 82
8, 28231, Pitch_bend_c, 8, 9024
8, 28232, Pitch_bend_c, 8, 8480
8, 28237, Pitch_bend_c, 8, 8448
8, 28239, Pitch_bend_c, 8, 8384
8, 28241, Pitch_bend_c, 8, 8352
8, 28242, Pitch_bend_c, 8, 8320
8, 28244, Pitch_bend_c, 8, 8288
8, 28248, Pitch_bend_c, 8, 8320
8, 28249, Pitch_bend_c, 8, 8352
8, 28252, Pitch_bend_c, 8, 8320
8, 28255, Pitch_bend_c, 8, 8288
8, 28261, Pitch_bend_c, 8, 8256
8, 28262, Pitch_bend_c, 8, 8224
8, 28263, Pitch_bend_c, 8, 8192
8, 28268, Pitch_bend_c, 8, 8160
8, 28269, Pitch_bend_c, 8, 8128
8, 28271, Pitch_bend_c, 8, 8064
8, 28272, Pitch_bend_c, 8, 8032
8, 28273, Pitch_bend_c, 8, 8000
8, 28274, Pitch_bend_c, 8, 7968
8, 28277, Pitch_bend_c, 8, 8000
8, 28279, Pitch_bend_c, 8, 8032
8, 28281, Pitch_bend_c, 8, 8064
8, 28282, Pitch_bend_c, 8, 8160
8, 28283, Pitch_bend_c, 8, 8352
8, 28284, Pitch_bend_c, 8, 8672
8, 28285, Pitch_bend_c, 8, 9152
8, 28287, Pitch_bend_c, 8, 9600
8, 28288, Pitch_bend_c, 8, 9984
8, 28289, Pitch_bend_c, 8, 10176
8, 28291, Note_on_c, 8, 70, 0
8, 28291, Pitch_bend_c, 8, 8192
8, 28292, Pitch_bend_c, 8, 11296
8, 28293, Note_on_c, 8, 72, 76
8, 28294, Pitch_bend_c, 8, 12512
8, 28296, Pitch_bend_c, 8, 12480
8, 28297, Pitch_bend_c, 8, 12384
8, 28299, Pitch_bend_c, 8, 12320
8, 28305, Pitch_bend_c, 8, 12352
8, 28308, Pitch_bend_c, 8, 12384
8, 28310, Pitch_bend_c, 8, 12352
8, 28311, Pitch_bend_c, 8, 12320
8, 28314, Pitch_bend_c, 8, 12288
8, 28316, Pitch_bend_c, 8, 12224
8, 28319, Pitch_bend_c, 8, 12192
8, 28321, Pitch_bend_c, 8, 11744
8, 28322, Note_on_c, 8, 72, 0
8, 28322, Pitch_bend_c, 8, 12320
8, 28325, Note_on_c, 8, 70, 87
8, 28325, Pitch_bend_c, 8, 8192
8, 28326, Pitch_bend_c, 8, 8128
8, 28329, Pitch_bend_c, 8, 8160
8, 28331, Pitch_bend_c, 8, 8192
8, 28332, Pitch_bend_c, 8, 8352
8, 28333, Pitch_bend_c, 8, 8320
8, 28334, Pitch_bend_c, 8, 4800
8, 28335, Pitch_bend_c, 8, 1
8, 28347, Note_on_c, 8, 70, 0
8, 28348, Note_on_c, 8, 65, 71
8, 28348, Pitch_bend_c, 8, 8192
8, 28349, Pitch_bend_c, 8, 8160
8, 28350, Pitch_bend_c, 8, 8192
8, 28351, Pitch_bend_c, 8, 8160
8, 28353, Pitch_bend_c, 8, 8192
8, 28354, Pitch_bend_c, 8, 8288
8, 28355, Pitch_bend_c, 8, 8256
8, 28356, Pitch_bend_c, 8, 4352
8, 28357, Note_on_c, 8, 65, 0
8, 28358, Note_on_c, 8, 63, 75
8, 28358, Pitch_bend_c, 8, 8416
8, 28359, Pitch_bend_c, 8, 8384
8, 28360, Pitch_bend_c, 8, 8320
8, 28362, Pitch_bend_c, 8, 8288
8, 28363, Pitch_bend_c, 8, 8256
8, 28364, Pitch_bend_c, 8, 8192
8, 28367, Pitch_bend_c, 8, 8224
8, 28368, Pitch_bend_c, 8, 8320
8, 28369, Pitch_bend_c, 8, 8160
8, 28371, Pitch_bend_c, 8, 4704
8, 28372, Pitch_bend_c, 8, 4640
8, 28373, Pitch_bend_c, 8, 1
8, 28390, Note_on_c, 8, 63, 0
8, 28395, Pitch_bend_c, 8, 8192
8, 28396, Note_on_c, 8, 58, 39
8, 28396, Pitch_bend_c, 8, 8224
8, 28401, Pitch_bend_c, 8, 8256
8, 28403, Note_on_c, 8, 58, 0
8, 28405, Pitch_bend_c, 8, 8192
8, 28406, Note_on_c, 8, 56, 37
8, 28412, Pitch_bend_c, 8, 8256
8, 28413, Note_on_c, 8, 56, 0
8, 28416, Pitch_bend_c, 8, 8192
8, 28417, Note_on_c, 8, 53, 46
8, 28417, Pitch_bend_c, 8, 8288
8, 28418, Pitch_bend_c, 8, 7936
8, 28419, Pitch_bend_c, 8, 7968
8, 28420, Pitch_bend_c, 8, 8032
8, 28422, Pitch_bend_c, 8, 8096
8, 28423, Note_on_c, 8, 53, 0
8, 28423, Pitch_bend_c, 8, 8192
8, 28426, Note_on_c, 8, 51, 64
8, 28426, Pitch_bend_c, 8, 8000
8, 28427, Pitch_bend_c, 8, 8032
8, 28428, Pitch_bend_c, 8, 8000
8, 28429, Pitch_bend_c, 8, 7968
8, 28430, Pitch_bend_c, 8, 7936
8, 28432, Pitch_bend_c, 8, 7904
8, 28434, Pitch_bend_c, 8, 7936
8, 28435, Pitch_bend_c, 8, 8000
8, 28436, Pitch_bend_c, 8, 8128
8, 28437, Pitch_bend_c, 8, 8192
8, 28438, Pitch_bend_c, 8, 4128
8, 28439, Pitch_bend_c, 8, 4192
8, 28440, Pitch_bend_c, 8, 4224
8, 28442, Pitch_bend_c, 8, 4256
8, 28443, Pitch_bend_c, 8, 4288
8, 28444, Pitch_bend_c, 8, 4256
8, 28449, Pitch_bend_c, 8, 4224
8, 28450, Pitch_bend_c, 8, 4192
8, 28452, Pitch_bend_c, 8, 4160
8, 28453, Pitch_bend_c, 8, 4128
8, 28454, Pitch_bend_c, 8, 4064
8, 28455, Pitch_bend_c, 8, 4032
8, 28456, Pitch_bend_c, 8, 4000
8, 28458, Pitch_bend_c, 8, 3968
8, 28461, Pitch_bend_c, 8, 3936
8, 28463, Pitch_bend_c, 8, 3904
8, 28465, Pitch_bend_c, 8, 3872
8, 28467, Pitch_bend_c, 8, 3840
8, 28470, Pitch_bend_c, 8, 3808
8, 28471, Note_on_c, 8, 51, 0
8, 28471, Pitch_bend_c, 8, 3776
8, 28472, Pitch_bend_c, 8, 3904
8, 28474, Pitch_bend_c, 8, 4128
8, 28475, Pitch_bend_c, 8, 4384
8, 28476, Pitch_bend_c, 8, 4640
8, 28477, Pitch_bend_c, 8, 4832
8, 28479, Pitch_bend_c, 8, 4928
8, 28480, Pitch_bend_c, 8, 4832
8, 28481, Pitch_bend_c, 8, 4192
8, 28483, Pitch_bend_c, 8, 3808
8, 28484, Pitch_bend_c, 8, 3584
8, 28485, Pitch_bend_c, 8, 3392
8, 28486, Pitch_bend_c, 8, 3328
8, 28488, Pitch_bend_c, 8, 3456
8, 28489, Pitch_bend_c, 8, 3840
8, 28490, Pitch_bend_c, 8, 4384
8, 28491, Pitch_bend_c, 8, 5120
8, 28492, Pitch_bend_c, 8, 5632
8, 28493, Pitch_bend_c, 8, 5760
8, 28494, Pitch_bend_c, 8, 5632
8, 28495, Pitch_bend_c, 8, 5024
8, 28497, Pitch_bend_c, 8, 4416
8, 28498, Pitch_bend_c, 8, 3904
8, 28499, Pitch_bend_c, 8, 3520
8, 28501, Pitch_bend_c, 8, 3584
8, 28502, Pitch_bend_c, 8, 3616
8, 28503, Pitch_bend_c, 8, 3840
8, 28504, Pitch_bend_c, 8, 4224
8, 28506, Pitch_bend_c, 8, 4448
8, 28507, Pitch_bend_c, 8, 4512
8, 28508, Pitch_bend_c, 8, 8192
8, 28508, End_track
9, 0, Start_track
9, 0, MIDI_port, 0
9, 0, Sequencer_specific, 7, 0, 0, 0, 106, 0, 4, 0
9, 134, Control_c, 9, 11, 127
9, 135, Control_c, 9, 91, 60
9, 135, Control_c, 9, 93, 0
9, 144, Control_c, 9, 7, 105
9, 768, Note_on_c, 9, 51, 108
9, 768, Note_on_c, 9, 35, 121
9, 769, Note_on_c, 9, 51, 0
9, 769, Note_on_c, 9, 35, 0
9, 769, Control_c, 9, 1, 0
9, 769, Pitch_bend_c, 9, 8192
9, 799, Note_on_c, 9, 51, 66
9, 800, Note_on_c, 9, 51, 0
9, 832, Note_on_c, 9, 51, 57
9, 833, Note_on_c, 9, 51, 0
9, 863, Note_on_c, 9, 37, 90
9, 864, Note_on_c, 9, 37, 0
9, 865, Note_on_c, 9, 51, 89
9, 866, Note_on_c, 9, 51, 0
9, 897, Note_on_c, 9, 51, 63
9, 898, Note_on_c, 9, 51, 0
9, 928, Note_on_c, 9, 51, 52
9, 929, Note_on_c, 9, 51, 0
9, 960, Note_on_c, 9, 51, 90
9, 960, Note_on_c, 9, 35, 107
9, 961, Note_on_c, 9, 51, 0
9, 961, Note_on_c, 9, 35, 0
9, 992, Note_on_c, 9, 51, 67
9, 993, Note_on_c, 9, 51, 0
9, 1024, Note_on_c, 9, 51, 62
9, 1025, Note_on_c, 9, 51, 0
9, 1057, Note_on_c, 9, 37, 95
9, 1057, Note_on_c, 9, 51, 86
9, 1058, Note_on_c, 9, 37, 0
9, 1058, Note_on_c, 9, 51, 0
9, 1089, Note_on_c, 9, 51, 63
9, 1090, Note_on_c, 9, 51, 0
9, 1120, Note_on_c, 9, 35, 76
9, 1121, Note_on_c, 9, 35, 0
9, 1121, Note_on_c, 9, 51, 57
9, 1122, Note_on_c, 9, 51, 0
9, 1151, Note_on_c, 9, 35, 110
9, 1152, Note_on_c, 9, 35, 0
9, 1152, Note_on_c, 9, 51, 86
9, 1153, Note_on_c, 9, 51, 0
9, 1184, Note_on_c, 9, 51, 56
9, 1185, Note_on_c, 9, 51, 0
9, 1216, Note_on_c, 9, 51, 46
9, 1217, Note_on_c, 9, 51, 0
9, 1248, Note_on_c, 9, 37, 97
9, 1248, Note_on_c, 9, 51, 84
9, 1249, Note_on_c, 9, 37, 0
9, 1249, Note_on_c, 9, 51, 0
9, 1280, Note_on_c, 9, 51, 60
9, 1281, Note_on_c, 9, 51, 0
9, 1312, Note_on_c, 9, 51, 56
9, 1313, Note_on_c, 9, 51, 0
9, 1343, Note_on_c, 9, 51, 90
9, 1344, Note_on_c, 9, 51, 0
9, 1344, Note_on_c, 9, 35, 96
9, 1345, Note_on_c, 9, 35, 0
9, 1375, Note_on_c, 9, 51, 68
9, 1376, Note_on_c, 9, 51, 0
9, 1407, Note_on_c, 9, 51, 62
9, 1408, Note_on_c, 9, 51, 0
9, 1439, Note_on_c, 9, 51, 78
9, 1440, Note_on_c, 9, 51, 0
9, 1440, Note_on_c, 9, 37, 90
9, 1441, Note_on_c, 9, 37, 0
9, 1471, Note_on_c, 9, 51, 65
9, 1472, Note_on_c, 9, 51, 0
9, 1503, Note_on_c, 9, 51, 54
9, 1504, Note_on_c, 9, 51, 0
9, 1535, Note_on_c, 9, 51, 87
9, 1535, Note_on_c, 9, 35, 96
9, 1536, Note_on_c, 9, 51, 0
9, 1536, Note_on_c, 9, 35, 0
9, 1568, Note_on_c, 9, 51, 61
9, 1569, Note_on_c, 9, 51, 0
9, 1599, Note_on_c, 9, 51, 52
9, 1600, Note_on_c, 9, 51, 0
9, 1631, Note_on_c, 9, 37, 90
9, 1631, Note_on_c, 9, 51, 83
9, 1632, Note_on_c, 9, 37, 0
9, 1632, Note_on_c, 9, 51, 0
9, 1663, Note_on_c, 9, 51, 56
9, 1664, Note_on_c, 9, 51, 0
9, 1695, Note_on_c, 9, 51, 54
9, 1696, Note_on_c, 9, 51, 0
9, 1727, Note_on_c, 9, 51, 83
9, 1728, Note_on_c, 9, 51, 0
9, 1728, Note_on_c, 9, 35, 94
9, 1729, Note_on_c, 9, 35, 0
9, 1759, Note_on_c, 9, 51, 56
9, 1760, Note_on_c, 9, 51, 0
9, 1791, Note_on_c, 9, 51, 60
9, 1792, Note_on_c, 9, 51, 0
9, 1823, Note_on_c, 9, 37, 93
9, 1823, Note_on_c, 9, 51, 85
9, 1824, Note_on_c, 9, 37, 0
9, 1824, Note_on_c, 9, 51, 0
9, 1855, Note_on_c, 9, 51, 61
9, 1856, Note_on_c, 9, 51, 0
9, 1856, Note_on_c, 9, 35, 81
9, 1857, Note_on_c, 9, 35, 0
9, 1887, Note_on_c, 9, 51, 55
9, 1887, Note_on_c, 9, 35, 86
9, 1888, Note_on_c, 9, 51, 0
9, 1888, Note_on_c, 9, 35, 0
9, 1919, Note_on_c, 9, 35, 101
9, 1920, Note_on_c, 9, 35, 0
9, 1920, Note_on_c, 9, 51, 95
9, 1921, Note_on_c, 9, 51, 0
9, 1952, Note_on_c, 9, 51, 67
9, 1953, Note_on_c, 9, 51, 0
9, 1983, Note_on_c, 9, 51, 62
9, 1984, Note_on_c, 9, 51, 0
9, 2015, Note_on_c, 9, 51, 84
9, 2016, Note_on_c, 9, 51, 0
9, 2016, Note_on_c, 9, 37, 101
9, 2017, Note_on_c, 9, 37, 0
9, 2048, Note_on_c, 9, 51, 65
9, 2049, Note_on_c, 9, 51, 0
9, 2081, Note_on_c, 9, 51, 59
9, 2082, Note_on_c, 9, 51, 0
9, 2112, Note_on_c, 9, 51, 92
9, 2113, Note_on_c, 9, 51, 0
9, 2113, Note_on_c, 9, 35, 101
9, 2114, Note_on_c, 9, 35, 0
9, 2143, Note_on_c, 9, 51, 68
9, 2144, Note_on_c, 9, 51, 0
9, 2175, Note_on_c, 9, 51, 62
9, 2176, Note_on_c, 9, 51, 0
9, 2207, Note_on_c, 9, 51, 87
9, 2208, Note_on_c, 9, 51, 0
9, 2208, Note_on_c, 9, 37, 101
9, 2209, Note_on_c, 9, 37, 0
9, 2240, Note_on_c, 9, 51, 58
9, 2241, Note_on_c, 9, 51, 0
9, 2241, Note_on_c, 9, 35, 83
9, 2242, Note_on_c, 9, 35, 0
9, 2271, Note_on_c, 9, 35, 91
9, 2272, Note_on_c, 9, 35, 0
9, 2272, Note_on_c, 9, 51, 57
9, 2273, Note_on_c, 9, 51, 0
9, 2303, Note_on_c, 9, 35, 105
9, 2304, Note_on_c, 9, 35, 0
9, 2304, Note_on_c, 9, 51, 94
9, 2305, Note_on_c, 9, 51, 0
9, 2335, Note_on_c, 9, 51, 66
9, 2336, Note_on_c, 9, 51, 0
9, 2368, Note_on_c, 9, 51, 57
9, 2369, Note_on_c, 9, 51, 0
9, 2399, Note_on_c, 9, 37, 93
9, 2400, Note_on_c, 9, 37, 0
9, 2401, Note_on_c, 9, 51, 89
9, 2402, Note_on_c, 9, 51, 0
9, 2433, Note_on_c, 9, 51, 63
9, 2434, Note_on_c, 9, 51, 0
9, 2464, Note_on_c, 9, 51, 52
9, 2465, Note_on_c, 9, 51, 0
9, 2495, Note_on_c, 9, 35, 100
9, 2496, Note_on_c, 9, 35, 0
9, 2496, Note_on_c, 9, 51, 90
9, 2497, Note_on_c, 9, 51, 0
9, 2528, Note_on_c, 9, 51, 67
9, 2529, Note_on_c, 9, 51, 0
9, 2560, Note_on_c, 9, 51, 62
9, 2561, Note_on_c, 9, 51, 0
9, 2592, Note_on_c, 9, 37, 99
9, 2593, Note_on_c, 9, 37, 0
9, 2593, Note_on_c, 9, 51, 86
9, 2594, Note_on_c, 9, 51, 0
9, 2625, Note_on_c, 9, 51, 63
9, 2626, Note_on_c, 9, 51, 0
9, 2655, Note_on_c, 9, 35, 74
9, 2656, Note_on_c, 9, 35, 0
9, 2657, Note_on_c, 9, 51, 57
9, 2658, Note_on_c, 9, 51, 0
9, 2688, Note_on_c, 9, 51, 86
9, 2689, Note_on_c, 9, 51, 0
9, 2689, Note_on_c, 9, 35, 107
9, 2690, Note_on_c, 9, 35, 0
9, 2720, Note_on_c, 9, 51, 56
9, 2721, Note_on_c, 9, 51, 0
9, 2752, Note_on_c, 9, 51, 46
9, 2753, Note_on_c, 9, 51, 0
9, 2783, Note_on_c, 9, 37, 90
9, 2784, Note_on_c, 9, 37, 0
9, 2784, Note_on_c, 9, 51, 84
9, 2785, Note_on_c, 9, 51, 0
9, 2816, Note_on_c, 9, 51, 60
9, 2817, Note_on_c, 9, 51, 0
9, 2848, Note_on_c, 9, 51, 56
9, 2849, Note_on_c, 9, 51, 0
9, 2879, Note_on_c, 9, 51, 90
9, 2880, Note_on_c, 9, 51, 0
9, 2880, Note_on_c, 9, 35, 91
9, 2881, Note_on_c, 9, 35, 0
9, 2911, Note_on_c, 9, 51, 68
9, 2912, Note_on_c, 9, 51, 0
9, 2943, Note_on_c, 9, 51, 62
9, 2944, Note_on_c, 9, 51, 0
9, 2975, Note_on_c, 9, 51, 78
9, 2976, Note_on_c, 9, 51, 0
9, 2977, Note_on_c, 9, 37, 92
9, 2978, Note_on_c, 9, 37, 0
9, 3007, Note_on_c, 9, 51, 65
9, 3008, Note_on_c, 9, 51, 0
9, 3039, Note_on_c, 9, 51, 54
9, 3040, Note_on_c, 9, 51, 0
9, 3040, Note_on_c, 9, 35, 88
9, 3041, Note_on_c, 9, 35, 0
9, 3071, Note_on_c, 9, 51, 87
9, 3071, Note_on_c, 9, 35, 98
9, 3072, Note_on_c, 9, 51, 0
9, 3072, Note_on_c, 9, 35, 0
9, 3104, Note_on_c, 9, 51, 61
9, 3105, Note_on_c, 9, 51, 0
9, 3135, Note_on_c, 9, 51, 52
9, 3136, Note_on_c, 9, 51, 0
9, 3167, Note_on_c, 9, 51, 83
9, 3168, Note_on_c, 9, 51, 0
9, 3168, Note_on_c, 9, 37, 85
9, 3169, Note_on_c, 9, 37, 0
9, 3199, Note_on_c, 9, 51, 56
9, 3200, Note_on_c, 9, 51, 0
9, 3231, Note_on_c, 9, 51, 54
9, 3232, Note_on_c, 9, 51, 0
9, 3263, Note_on_c, 9, 51, 83
9, 3263, Note_on_c, 9, 35, 90
9, 3264, Note_on_c, 9, 51, 0
9, 3264, Note_on_c, 9, 35, 0
9, 3295, Note_on_c, 9, 51, 56
9, 3296, Note_on_c, 9, 51, 0
9, 3327, Note_on_c, 9, 51, 60
9, 3328, Note_on_c, 9, 51, 0
9, 3359, Note_on_c, 9, 37, 105
9, 3359, Note_on_c, 9, 51, 85
9, 3360, Note_on_c, 9, 37, 0
9, 3360, Note_on_c, 9, 51, 0
9, 3391, Note_on_c, 9, 51, 61
9, 3391, Note_on_c, 9, 35, 75
9, 3392, Note_on_c, 9, 51, 0
9, 3392, Note_on_c, 9, 35, 0
9, 3423, Note_on_c, 9, 51, 55
9, 3423, Note_on_c, 9, 35, 85
9, 3424, Note_on_c, 9, 51, 0
9, 3424, Note_on_c, 9, 35, 0
9, 3455, Note_on_c, 9, 35, 107
9, 3456, Note_on_c, 9, 35, 0
9, 3456, Note_on_c, 9, 51, 95
9, 3457, Note_on_c, 9, 51, 0
9, 3488, Note_on_c, 9, 51, 67
9, 3489, Note_on_c, 9, 51, 0
9, 3519, Note_on_c, 9, 51, 62
9, 3520, Note_on_c, 9, 51, 0
9, 3551, Note_on_c, 9, 51, 84
9, 3552, Note_on_c, 9, 51, 0
9, 3553, Note_on_c, 9, 37, 93
9, 3554, Note_on_c, 9, 37, 0
9, 3584, Note_on_c, 9, 51, 65
9, 3585, Note_on_c, 9, 51, 0
9, 3617, Note_on_c, 9, 51, 59
9, 3618, Note_on_c, 9, 51, 0
9, 3647, Note_on_c, 9, 35, 100
9, 3648, Note_on_c, 9, 35, 0
9, 3648, Note_on_c, 9, 51, 92
9, 3649, Note_on_c, 9, 51, 0
9, 3679, Note_on_c, 9, 51, 68
9, 3680, Note_on_c, 9, 51, 0
9, 3711, Note_on_c, 9, 51, 62
9, 3712, Note_on_c, 9, 51, 0
9, 3743, Note_on_c, 9, 37, 101
9, 3743, Note_on_c, 9, 51, 87
9, 3744, Note_on_c, 9, 37, 0
9, 3744, Note_on_c, 9, 51, 0
9, 3776, Note_on_c, 9, 51, 58
9, 3777, Note_on_c, 9, 51, 0
9, 3808, Note_on_c, 9, 51, 57
9, 3809, Note_on_c, 9, 51, 0
9, 3809, Note_on_c, 9, 35, 75
9, 3810, Note_on_c, 9, 35, 0
9, 3839, Note_on_c, 9, 35, 102
9, 3840, Note_on_c, 9, 35, 0
9, 3840, Note_on_c, 9, 51, 94
9, 3841, Note_on_c, 9, 51, 0
9, 3871, Note_on_c, 9, 51, 66
9, 3872, Note_on_c, 9, 51, 0
9, 3904, Note_on_c, 9, 51, 57
9, 3905, Note_on_c, 9, 51, 0
9, 3935, Note_on_c, 9, 37, 89
9, 3936, Note_on_c, 9, 37, 0
9, 3937, Note_on_c, 9, 51, 89
9, 3938, Note_on_c, 9, 51, 0
9, 3969, Note_on_c, 9, 51, 63
9, 3970, Note_on_c, 9, 51, 0
9, 4000, Note_on_c, 9, 51, 52
9, 4001, Note_on_c, 9, 51, 0
9, 4032, Note_on_c, 9, 51, 90
9, 4032, Note_on_c, 9, 35, 98
9, 4033, Note_on_c, 9, 51, 0
9, 4033, Note_on_c, 9, 35, 0
9, 4064, Note_on_c, 9, 51, 67
9, 4065, Note_on_c, 9, 51, 0
9, 4096, Note_on_c, 9, 51, 62
9, 4097, Note_on_c, 9, 51, 0
9, 4129, Note_on_c, 9, 37, 89
9, 4129, Note_on_c, 9, 51, 86
9, 4130, Note_on_c, 9, 37, 0
9, 4130, Note_on_c, 9, 51, 0
9, 4161, Note_on_c, 9, 51, 63
9, 4162, Note_on_c, 9, 51, 0
9, 4192, Note_on_c, 9, 35, 79
9, 4193, Note_on_c, 9, 35, 0
9, 4193, Note_on_c, 9, 51, 57
9, 4194, Note_on_c, 9, 51, 0
9, 4224, Note_on_c, 9, 51, 86
9, 4225, Note_on_c, 9, 51, 0
9, 4225, Note_on_c, 9, 35, 101
9, 4226, Note_on_c, 9, 35, 0
9, 4256, Note_on_c, 9, 51, 56
9, 4257, Note_on_c, 9, 51, 0
9, 4288, Note_on_c, 9, 51, 46
9, 4289, Note_on_c, 9, 51, 0
9, 4320, Note_on_c, 9, 37, 95
9, 4320, Note_on_c, 9, 51, 84
9, 4321, Note_on_c, 9, 37, 0
9, 4321, Note_on_c, 9, 51, 0
9, 4352, Note_on_c, 9, 51, 60
9, 4353, Note_on_c, 9, 51, 0
9, 4384, Note_on_c, 9, 51, 56
9, 4385, Note_on_c, 9, 51, 0
9, 4415, Note_on_c, 9, 51, 90
9, 4415, Note_on_c, 9, 35, 99
9, 4416, Note_on_c, 9, 51, 0
9, 4416, Note_on_c, 9, 35, 0
9, 4447, Note_on_c, 9, 51, 68
9, 4448, Note_on_c, 9, 51, 0
9, 4479, Note_on_c, 9, 51, 62
9, 4480, Note_on_c, 9, 51, 0
9, 4511, Note_on_c, 9, 51, 78
9, 4512, Note_on_c, 9, 51, 0
9, 4513, Note_on_c, 9, 37, 85
9, 4514, Note_on_c, 9, 37, 0
9, 4543, Note_on_c, 9, 51, 65
9, 4544, Note_on_c, 9, 51, 0
9, 4575, Note_on_c, 9, 51, 54
9, 4576, Note_on_c, 9, 51, 0
9, 4607, Note_on_c, 9, 51, 87
9, 4607, Note_on_c, 9, 35, 102
9, 4608, Note_on_c, 9, 51, 0
9, 4608, Note_on_c, 9, 35, 0
9, 4640, Note_on_c, 9, 51, 61
9, 4641, Note_on_c, 9, 51, 0
9, 4671, Note_on_c, 9, 51, 52
9, 4672, Note_on_c, 9, 51, 0
9, 4703, Note_on_c, 9, 51, 83
9, 4704, Note_on_c, 9, 51, 0
9, 4704, Note_on_c, 9, 37, 95
9, 4705, Note_on_c, 9, 37, 0
9, 4735, Note_on_c, 9, 51, 56
9, 4736, Note_on_c, 9, 51, 0
9, 4767, Note_on_c, 9, 51, 54
9, 4768, Note_on_c, 9, 51, 0
9, 4799, Note_on_c, 9, 51, 83
9, 4800, Note_on_c, 9, 51, 0
9, 4801, Note_on_c, 9, 35, 103
9, 4802, Note_on_c, 9, 35, 0
9, 4831, Note_on_c, 9, 51, 56
9, 4832, Note_on_c, 9, 51, 0
9, 4863, Note_on_c, 9, 51, 60
9, 4864, Note_on_c, 9, 51, 0
9, 4895, Note_on_c, 9, 51, 85
9, 4896, Note_on_c, 9, 51, 0
9, 4896, Note_on_c, 9, 37, 90
9, 4897, Note_on_c, 9, 37, 0
9, 4927, Note_on_c, 9, 51, 61
9, 4928, Note_on_c, 9, 51, 0
9, 4959, Note_on_c, 9, 51, 55
9, 4960, Note_on_c, 9, 51, 0
9, 4991, Note_on_c, 9, 35, 106
9, 4992, Note_on_c, 9, 35, 0
9, 4992, Note_on_c, 9, 51, 95
9, 4993, Note_on_c, 9, 51, 0
9, 5024, Note_on_c, 9, 51, 67
9, 5025, Note_on_c, 9, 51, 0
9, 5055, Note_on_c, 9, 51, 62
9, 5055, Note_on_c, 9, 35, 88
9, 5056, Note_on_c, 9, 51, 0
9, 5056, Note_on_c, 9, 35, 0
9, 5087, Note_on_c, 9, 37, 92
9, 5087, Note_on_c, 9, 51, 84
9, 5088, Note_on_c, 9, 37, 0
9, 5088, Note_on_c, 9, 51, 0
9, 5120, Note_on_c, 9, 51, 65
9, 5121, Note_on_c, 9, 51, 0
9, 5151, Note_on_c, 9, 35, 83
9, 5152, Note_on_c, 9, 35, 0
9, 5153, Note_on_c, 9, 51, 59
9, 5154, Note_on_c, 9, 51, 0
9, 5184, Note_on_c, 9, 51, 92
9, 5185, Note_on_c, 9, 51, 0
9, 5185, Note_on_c, 9, 35, 106
9, 5186, Note_on_c, 9, 35, 0
9, 5215, Note_on_c, 9, 51, 68
9, 5216, Note_on_c, 9, 51, 0
9, 5247, Note_on_c, 9, 51, 62
9, 5247, Note_on_c, 9, 35, 95
9, 5248, Note_on_c, 9, 51, 0
9, 5248, Note_on_c, 9, 35, 0
9, 5279, Note_on_c, 9, 51, 87
9, 5280, Note_on_c, 9, 51, 0
9, 5280, Note_on_c, 9, 37, 95
9, 5281, Note_on_c, 9, 37, 0
9, 5312, Note_on_c, 9, 51, 58
9, 5313, Note_on_c, 9, 51, 0
9, 5343, Note_on_c, 9, 47, 96
9, 5344, Note_on_c, 9, 47, 0
9, 5376, Note_on_c, 9, 51, 94
9, 5376, Note_on_c, 9, 35, 103
9, 5377, Note_on_c, 9, 51, 0
9, 5377, Note_on_c, 9, 35, 0
9, 5407, Note_on_c, 9, 51, 66
9, 5408, Note_on_c, 9, 51, 0
9, 5440, Note_on_c, 9, 51, 57
9, 5441, Note_on_c, 9, 51, 0
9, 5471, Note_on_c, 9, 37, 103
9, 5472, Note_on_c, 9, 37, 0
9, 5473, Note_on_c, 9, 51, 89
9, 5474, Note_on_c, 9, 51, 0
9, 5505, Note_on_c, 9, 51, 63
9, 5506, Note_on_c, 9, 51, 0
9, 5536, Note_on_c, 9, 51, 52
9, 5537, Note_on_c, 9, 51, 0
9, 5568, Note_on_c, 9, 51, 90
9, 5569, Note_on_c, 9, 51, 0
9, 5569, Note_on_c, 9, 35, 101
9, 5570, Note_on_c, 9, 35, 0
9, 5600, Note_on_c, 9, 51, 67
9, 5601, Note_on_c, 9, 51, 0
9, 5632, Note_on_c, 9, 51, 62
9, 5633, Note_on_c, 9, 51, 0
9, 5663, Note_on_c, 9, 37, 97
9, 5664, Note_on_c, 9, 37, 0
9, 5665, Note_on_c, 9, 51, 86
9, 5666, Note_on_c, 9, 51, 0
9, 5697, Note_on_c, 9, 51, 63
9, 5698, Note_on_c, 9, 51, 0
9, 5727, Note_on_c, 9, 35, 85
9, 5728, Note_on_c, 9, 35, 0
9, 5729, Note_on_c, 9, 51, 57
9, 5730, Note_on_c, 9, 51, 0
9, 5759, Note_on_c, 9, 35, 101
9, 5760, Note_on_c, 9, 35, 0
9, 5760, Note_on_c, 9, 51, 86
9, 5761, Note_on_c, 9, 51, 0
9, 5792, Note_on_c, 9, 51, 56
9, 5793, Note_on_c, 9, 51, 0
9, 5824, Note_on_c, 9, 51, 46
9, 5825, Note_on_c, 9, 51, 0
9, 5856, Note_on_c, 9, 51, 84
9, 5857, Note_on_c, 9, 51, 0
9, 5857, Note_on_c, 9, 37, 89
9, 5858, Note_on_c, 9, 37, 0
9, 5888, Note_on_c, 9, 51, 60
9, 5889, Note_on_c, 9, 51, 0
9, 5920, Note_on_c, 9, 51, 56
9, 5921, Note_on_c, 9, 51, 0
9, 5951, Note_on_c, 9, 51, 90
9, 5952, Note_on_c, 9, 51, 0
9, 5953, Note_on_c, 9, 35, 96
9, 5954, Note_on_c, 9, 35, 0
9, 5983, Note_on_c, 9, 51, 68
9, 5984, Note_on_c, 9, 51, 0
9, 6015, Note_on_c, 9, 51, 62
9, 6016, Note_on_c, 9, 51, 0
9, 6047, Note_on_c, 9, 37, 99
9, 6047, Note_on_c, 9, 51, 78
9, 6048, Note_on_c, 9, 37, 0
9, 6048, Note_on_c, 9, 51, 0
9, 6079, Note_on_c, 9, 51, 65
9, 6080, Note_on_c, 9, 51, 0
9, 6111, Note_on_c, 9, 51, 54
9, 6112, Note_on_c, 9, 51, 0
9, 6143, Note_on_c, 9, 51, 87
9, 6143, Note_on_c, 9, 35, 102
9, 6144, Note_on_c, 9, 51, 0
9, 6144, Note_on_c, 9, 35, 0
9, 6176, Note_on_c, 9, 51, 61
9, 6177, Note_on_c, 9, 51, 0
9, 6207, Note_on_c, 9, 51, 52
9, 6208, Note_on_c, 9, 51, 0
9, 6239, Note_on_c, 9, 51, 83
9, 6240, Note_on_c, 9, 51, 0
9, 6241, Note_on_c, 9, 37, 92
9, 6242, Note_on_c, 9, 37, 0
9, 6271, Note_on_c, 9, 51, 56
9, 6272, Note_on_c, 9, 51, 0
9, 6303, Note_on_c, 9, 51, 54
9, 6304, Note_on_c, 9, 51, 0
9, 6335, Note_on_c, 9, 51, 83
9, 6335, Note_on_c, 9, 35, 100
9, 6336, Note_on_c, 9, 51, 0
9, 6336, Note_on_c, 9, 35, 0
9, 6367, Note_on_c, 9, 51, 56
9, 6368, Note_on_c, 9, 51, 0
9, 6399, Note_on_c, 9, 51, 60
9, 6400, Note_on_c, 9, 51, 0
9, 6431, Note_on_c, 9, 37, 99
9, 6431, Note_on_c, 9, 51, 85
9, 6432, Note_on_c, 9, 37, 0
9, 6432, Note_on_c, 9, 51, 0
9, 6463, Note_on_c, 9, 51, 61
9, 6464, Note_on_c, 9, 51, 0
9, 6495, Note_on_c, 9, 51, 55
9, 6495, Note_on_c, 9, 35, 88
9, 6496, Note_on_c, 9, 51, 0
9, 6496, Note_on_c, 9, 35, 0
9, 6527, Note_on_c, 9, 35, 100
9, 6528, Note_on_c, 9, 35, 0
9, 6528, Note_on_c, 9, 51, 95
9, 6529, Note_on_c, 9, 51, 0
9, 6560, Note_on_c, 9, 51, 67
9, 6561, Note_on_c, 9, 51, 0
9, 6591, Note_on_c, 9, 51, 62
9, 6592, Note_on_c, 9, 51, 0
9, 6623, Note_on_c, 9, 51, 84
9, 6624, Note_on_c, 9, 51, 0
9, 6625, Note_on_c, 9, 37, 87
9, 6626, Note_on_c, 9, 37, 0
9, 6656, Note_on_c, 9, 51, 65
9, 6657, Note_on_c, 9, 51, 0
9, 6689, Note_on_c, 9, 51, 59
9, 6690, Note_on_c, 9, 51, 0
9, 6719, Note_on_c, 9, 35, 95
9, 6720, Note_on_c, 9, 35, 0
9, 6720, Note_on_c, 9, 51, 92
9, 6721, Note_on_c, 9, 51, 0
9, 6751, Note_on_c, 9, 51, 68
9, 6752, Note_on_c, 9, 51, 0
9, 6783, Note_on_c, 9, 51, 62
9, 6784, Note_on_c, 9, 51, 0
9, 6815, Note_on_c, 9, 37, 83
9, 6815, Note_on_c, 9, 51, 87
9, 6816, Note_on_c, 9, 37, 0
9, 6816, Note_on_c, 9, 51, 0
9, 6848, Note_on_c, 9, 51, 58
9, 6849, Note_on_c, 9, 51, 0
9, 6879, Note_on_c, 9, 35, 85
9, 6880, Note_on_c, 9, 35, 0
9, 6880, Note_on_c, 9, 51, 57
9, 6881, Note_on_c, 9, 51, 0
9, 6911, Note_on_c, 9, 35, 96
9, 6912, Note_on_c, 9, 35, 0
9, 6912, Note_on_c, 9, 51, 94
9, 6913, Note_on_c, 9, 51, 0
9, 6943, Note_on_c, 9, 51, 66
9, 6944, Note_on_c, 9, 51, 0
9, 6976, Note_on_c, 9, 51, 57
9, 6977, Note_on_c, 9, 51, 0
9, 7007, Note_on_c, 9, 37, 92
9, 7008, Note_on_c, 9, 37, 0
9, 7009, Note_on_c, 9, 51, 89
9, 7010, Note_on_c, 9, 51, 0
9, 7041, Note_on_c, 9, 51, 63
9, 7042, Note_on_c, 9, 51, 0
9, 7072, Note_on_c, 9, 51, 52
9, 7073, Note_on_c, 9, 51, 0
9, 7104, Note_on_c, 9, 51, 90
9, 7104, Note_on_c, 9, 35, 103
9, 7105, Note_on_c, 9, 51, 0
9, 7105, Note_on_c, 9, 35, 0
9, 7136, Note_on_c, 9, 51, 67
9, 7137, Note_on_c, 9, 51, 0
9, 7168, Note_on_c, 9, 51, 62
9, 7169, Note_on_c, 9, 51, 0
9, 7200, Note_on_c, 9, 37, 93
9, 7201, Note_on_c, 9, 37, 0
9, 7201, Note_on_c, 9, 51, 86
9, 7202, Note_on_c, 9, 51, 0
9, 7232, Note_on_c, 9, 35, 74
9, 7233, Note_on_c, 9, 35, 0
9, 7233, Note_on_c, 9, 51, 63
9, 7234, Note_on_c, 9, 51, 0
9, 7263, Note_on_c, 9, 35, 98
9, 7264, Note_on_c, 9, 35, 0
9, 7265, Note_on_c, 9, 51, 57
9, 7266, Note_on_c, 9, 51, 0
9, 7295, Note_on_c, 9, 35, 102
9, 7296, Note_on_c, 9, 35, 0
9, 7296, Note_on_c, 9, 51, 86
9, 7297, Note_on_c, 9, 51, 0
9, 7328, Note_on_c, 9, 51, 56
9, 7329, Note_on_c, 9, 51, 0
9, 7360, Note_on_c, 9, 51, 46
9, 7361, Note_on_c, 9, 51, 0
9, 7392, Note_on_c, 9, 37, 101
9, 7392, Note_on_c, 9, 51, 84
9, 7393, Note_on_c, 9, 37, 0
9, 7393, Note_on_c, 9, 51, 0
9, 7424, Note_on_c, 9, 51, 60
9, 7425, Note_on_c, 9, 51, 0
9, 7456, Note_on_c, 9, 51, 56
9, 7457, Note_on_c, 9, 51, 0
9, 7487, Note_on_c, 9, 51, 90
9, 7487, Note_on_c, 9, 35, 102
9, 7488, Note_on_c, 9, 51, 0
9, 7488, Note_on_c, 9, 35, 0
9, 7519, Note_on_c, 9, 51, 68
9, 7520, Note_on_c, 9, 51, 0
9, 7551, Note_on_c, 9, 51, 62
9, 7552, Note_on_c, 9, 51, 0
9, 7583, Note_on_c, 9, 51, 78
9, 7584, Note_on_c, 9, 51, 0
9, 7584, Note_on_c, 9, 37, 103
9, 7585, Note_on_c, 9, 37, 0
9, 7615, Note_on_c, 9, 51, 65
9, 7616, Note_on_c, 9, 51, 0
9, 7647, Note_on_c, 9, 51, 54
9, 7648, Note_on_c, 9, 51, 0
9, 7679, Note_on_c, 9, 51, 87
9, 7679, Note_on_c, 9, 35, 100
9, 7680, Note_on_c, 9, 51, 0
9, 7680, Note_on_c, 9, 35, 0
9, 7712, Note_on_c, 9, 51, 61
9, 7713, Note_on_c, 9, 51, 0
9, 7743, Note_on_c, 9, 51, 52
9, 7744, Note_on_c, 9, 51, 0
9, 7775, Note_on_c, 9, 37, 86
9, 7775, Note_on_c, 9, 51, 83
9, 7776, Note_on_c, 9, 37, 0
9, 7776, Note_on_c, 9, 51, 0
9, 7807, Note_on_c, 9, 51, 56
9, 7808, Note_on_c, 9, 51, 0
9, 7839, Note_on_c, 9, 51, 54
9, 7840, Note_on_c, 9, 51, 0
9, 7871, Note_on_c, 9, 51, 83
9, 7871, Note_on_c, 9, 35, 100
9, 7872, Note_on_c, 9, 51, 0
9, 7872, Note_on_c, 9, 35, 0
9, 7903, Note_on_c, 9, 51, 56
9, 7904, Note_on_c, 9, 51, 0
9, 7935, Note_on_c, 9, 51, 60
9, 7936, Note_on_c, 9, 51, 0
9, 7967, Note_on_c, 9, 51, 85
9, 7968, Note_on_c, 9, 51, 0
9, 7968, Note_on_c, 9, 37, 99
9, 7969, Note_on_c, 9, 37, 0
9, 7999, Note_on_c, 9, 51, 61
9, 7999, Note_on_c, 9, 35, 73
9, 8000, Note_on_c, 9, 51, 0
9, 8000, Note_on_c, 9, 35, 0
9, 8031, Note_on_c, 9, 51, 55
9, 8031, Note_on_c, 9, 35, 91
9, 8032, Note_on_c, 9, 51, 0
9, 8032, Note_on_c, 9, 35, 0
9, 8063, Note_on_c, 9, 35, 102
9, 8064, Note_on_c, 9, 35, 0
9, 8064, Note_on_c, 9, 51, 95
9, 8065, Note_on_c, 9, 51, 0
9, 8096, Note_on_c, 9, 51, 67
9, 8097, Note_on_c, 9, 51, 0
9, 8127, Note_on_c, 9, 51, 62
9, 8128, Note_on_c, 9, 51, 0
9, 8159, Note_on_c, 9, 37, 101
9, 8159, Note_on_c, 9, 51, 84
9, 8160, Note_on_c, 9, 37, 0
9, 8160, Note_on_c, 9, 51, 0
9, 8192, Note_on_c, 9, 51, 65
9, 8193, Note_on_c, 9, 51, 0
9, 8225, Note_on_c, 9, 51, 59
9, 8226, Note_on_c, 9, 51, 0
9, 8256, Note_on_c, 9, 51, 92
9, 8256, Note_on_c, 9, 35, 98
9, 8257, Note_on_c, 9, 51, 0
9, 8257, Note_on_c, 9, 35, 0
9, 8287, Note_on_c, 9, 51, 68
9, 8288, Note_on_c, 9, 51, 0
9, 8319, Note_on_c, 9, 51, 62
9, 8320, Note_on_c, 9, 51, 0
9, 8351, Note_on_c, 9, 37, 93
9, 8351, Note_on_c, 9, 51, 87
9, 8352, Note_on_c, 9, 37, 0
9, 8352, Note_on_c, 9, 51, 0
9, 8383, Note_on_c, 9, 35, 75
9, 8384, Note_on_c, 9, 35, 0
9, 8384, Note_on_c, 9, 51, 58
9, 8385, Note_on_c, 9, 51, 0
9, 8415, Note_on_c, 9, 35, 88
9, 8416, Note_on_c, 9, 35, 0
9, 8416, Note_on_c, 9, 51, 57
9, 8417, Note_on_c, 9, 51, 0
9, 8447, Note_on_c, 9, 35, 105
9, 8448, Note_on_c, 9, 35, 0
9, 8448, Note_on_c, 9, 51, 94
9, 8449, Note_on_c, 9, 51, 0
9, 8479, Note_on_c, 9, 51, 66
9, 8480, Note_on_c, 9, 51, 0
9, 8512, Note_on_c, 9, 51, 57
9, 8513, Note_on_c, 9, 51, 0
9, 8545, Note_on_c, 9, 37, 101
9, 8545, Note_on_c, 9, 51, 89
9, 8546, Note_on_c, 9, 37, 0
9, 8546, Note_on_c, 9, 51, 0
9, 8577, Note_on_c, 9, 51, 63
9, 8578, Note_on_c, 9, 51, 0
9, 8608, Note_on_c, 9, 51, 52
9, 8609, Note_on_c, 9, 51, 0
9, 8639, Note_on_c, 9, 35, 96
9, 8640, Note_on_c, 9, 35, 0
9, 8640, Note_on_c, 9, 51, 90
9, 8641, Note_on_c, 9, 51, 0
9, 8672, Note_on_c, 9, 51, 67
9, 8673, Note_on_c, 9, 51, 0
9, 8704, Note_on_c, 9, 51, 62
9, 8705, Note_on_c, 9, 51, 0
9, 8735, Note_on_c, 9, 37, 97
9, 8736, Note_on_c, 9, 37, 0
9, 8737, Note_on_c, 9, 51, 86
9, 8738, Note_on_c, 9, 51, 0
9, 8767, Note_on_c, 9, 35, 77
9, 8768, Note_on_c, 9, 35, 0
9, 8769, Note_on_c, 9, 51, 63
9, 8770, Note_on_c, 9, 51, 0
9, 8799, Note_on_c, 9, 35, 93
9, 8800, Note_on_c, 9, 35, 0
9, 8801, Note_on_c, 9, 51, 57
9, 8802, Note_on_c, 9, 51, 0
9, 8831, Note_on_c, 9, 35, 98
9, 8832, Note_on_c, 9, 35, 0
9, 8832, Note_on_c, 9, 51, 86
9, 8833, Note_on_c, 9, 51, 0
9, 8864, Note_on_c, 9, 51, 56
9, 8865, Note_on_c, 9, 51, 0
9, 8896, Note_on_c, 9, 51, 46
9, 8897, Note_on_c, 9, 51, 0
9, 8928, Note_on_c, 9, 37, 95
9, 8928, Note_on_c, 9, 51, 84
9, 8929, Note_on_c, 9, 37, 0
9, 8929, Note_on_c, 9, 51, 0
9, 8960, Note_on_c, 9, 51, 60
9, 8961, Note_on_c, 9, 51, 0
9, 8992, Note_on_c, 9, 51, 56
9, 8993, Note_on_c, 9, 51, 0
9, 9023, Note_on_c, 9, 51, 90
9, 9023, Note_on_c, 9, 35, 103
9, 9024, Note_on_c, 9, 51, 0
9, 9024, Note_on_c, 9, 35, 0
9, 9055, Note_on_c, 9, 51, 68
9, 9056, Note_on_c, 9, 51, 0
9, 9087, Note_on_c, 9, 51, 62
9, 9088, Note_on_c, 9, 51, 0
9, 9119, Note_on_c, 9, 37, 92
9, 9119, Note_on_c, 9, 51, 78
9, 9120, Note_on_c, 9, 37, 0
9, 9120, Note_on_c, 9, 51, 0
9, 9151, Note_on_c, 9, 51, 65
9, 9152, Note_on_c, 9, 51, 0
9, 9183, Note_on_c, 9, 51, 54
9, 9184, Note_on_c, 9, 51, 0
9, 9215, Note_on_c, 9, 51, 87
9, 9215, Note_on_c, 9, 35, 99
9, 9216, Note_on_c, 9, 51, 0
9, 9216, Note_on_c, 9, 35, 0
9, 9248, Note_on_c, 9, 51, 61
9, 9249, Note_on_c, 9, 51, 0
9, 9279, Note_on_c, 9, 51, 52
9, 9280, Note_on_c, 9, 51, 0
9, 9311, Note_on_c, 9, 51, 83
9, 9312, Note_on_c, 9, 51, 0
9, 9312, Note_on_c, 9, 37, 93
9, 9313, Note_on_c, 9, 37, 0
9, 9343, Note_on_c, 9, 51, 56
9, 9344, Note_on_c, 9, 51, 0
9, 9375, Note_on_c, 9, 51, 54
9, 9376, Note_on_c, 9, 51, 0
9, 9407, Note_on_c, 9, 51, 83
9, 9408, Note_on_c, 9, 51, 0
9, 9409, Note_on_c, 9, 35, 100
9, 9410, Note_on_c, 9, 35, 0
9, 9439, Note_on_c, 9, 51, 56
9, 9440, Note_on_c, 9, 51, 0
9, 9471, Note_on_c, 9, 51, 60
9, 9472, Note_on_c, 9, 51, 0
9, 9503, Note_on_c, 9, 51, 85
9, 9504, Note_on_c, 9, 51, 0
9, 9504, Note_on_c, 9, 37, 92
9, 9505, Note_on_c, 9, 37, 0
9, 9535, Note_on_c, 9, 51, 61
9, 9536, Note_on_c, 9, 51, 0
9, 9567, Note_on_c, 9, 51, 55
9, 9567, Note_on_c, 9, 35, 83
9, 9568, Note_on_c, 9, 51, 0
9, 9568, Note_on_c, 9, 35, 0
9, 9599, Note_on_c, 9, 35, 96
9, 9600, Note_on_c, 9, 35, 0
9, 9600, Note_on_c, 9, 51, 95
9, 9601, Note_on_c, 9, 51, 0
9, 9632, Note_on_c, 9, 51, 67
9, 9633, Note_on_c, 9, 51, 0
9, 9663, Note_on_c, 9, 51, 62
9, 9663, Note_on_c, 9, 35, 88
9, 9664, Note_on_c, 9, 51, 0
9, 9664, Note_on_c, 9, 35, 0
9, 9695, Note_on_c, 9, 37, 94
9, 9695, Note_on_c, 9, 51, 84
9, 9696, Note_on_c, 9, 37, 0
9, 9696, Note_on_c, 9, 51, 0
9, 9728, Note_on_c, 9, 51, 65
9, 9729, Note_on_c, 9, 51, 0
9, 9759, Note_on_c, 9, 35, 83
9, 9760, Note_on_c, 9, 35, 0
9, 9761, Note_on_c, 9, 51, 59
9, 9762, Note_on_c, 9, 51, 0
9, 9791, Note_on_c, 9, 35, 102
9, 9792, Note_on_c, 9, 35, 0
9, 9792, Note_on_c, 9, 51, 92
9, 9793, Note_on_c, 9, 51, 0
9, 9823, Note_on_c, 9, 51, 68
9, 9824, Note_on_c, 9, 51, 0
9, 9855, Note_on_c, 9, 51, 62
9, 9855, Note_on_c, 9, 35, 89
9, 9856, Note_on_c, 9, 51, 0
9, 9856, Note_on_c, 9, 35, 0
9, 9887, Note_on_c, 9, 37, 101
9, 9887, Note_on_c, 9, 51, 87
9, 9888, Note_on_c, 9, 37, 0
9, 9888, Note_on_c, 9, 51, 0
9, 9920, Note_on_c, 9, 51, 58
9, 9921, Note_on_c, 9, 51, 0
9, 9952, Note_on_c, 9, 51, 57
9, 9953, Note_on_c, 9, 51, 0
9, 9984, Note_on_c, 9, 37, 107
9, 9984, Note_on_c, 9, 51, 94
9, 9984, Note_on_c, 9, 35, 95
9, 9985, Note_on_c, 9, 37, 0
9, 9985, Note_on_c, 9, 51, 0
9, 9985, Note_on_c, 9, 35, 0
9, 10015, Note_on_c, 9, 51, 66
9, 10016, Note_on_c, 9, 51, 0
9, 10047, Note_on_c, 9, 35, 98
9, 10048, Note_on_c, 9, 35, 0
9, 10048, Note_on_c, 9, 51, 57
9, 10049, Note_on_c, 9, 51, 0
9, 10079, Note_on_c, 9, 37, 107
9, 10079, Note_on_c, 9, 35, 100
9, 10080, Note_on_c, 9, 37, 0
9, 10080, Note_on_c, 9, 35, 0
9, 10081, Note_on_c, 9, 51, 89
9, 10082, Note_on_c, 9, 51, 0
9, 10113, Note_on_c, 9, 51, 63
9, 10114, Note_on_c, 9, 51, 0
9, 10143, Note_on_c, 9, 35, 81
9, 10144, Note_on_c, 9, 35, 0
9, 10144, Note_on_c, 9, 51, 52
9, 10145, Note_on_c, 9, 51, 0
9, 10175, Note_on_c, 9, 37, 105
9, 10175, Note_on_c, 9, 35, 96
9, 10176, Note_on_c, 9, 37, 0
9, 10176, Note_on_c, 9, 35, 0
9, 10176, Note_on_c, 9, 51, 90
9, 10177, Note_on_c, 9, 51, 0
9, 10208, Note_on_c, 9, 51, 67
9, 10209, Note_on_c, 9, 51, 0
9, 10239, Note_on_c, 9, 35, 81
9, 10240, Note_on_c, 9, 35, 0
9, 10240, Note_on_c, 9, 51, 62
9, 10241, Note_on_c, 9, 51, 0
9, 10271, Note_on_c, 9, 37, 105
9, 10271, Note_on_c, 9, 35, 89
9, 10272, Note_on_c, 9, 37, 0
9, 10272, Note_on_c, 9, 35, 0
9, 10273, Note_on_c, 9, 51, 86
9, 10274, Note_on_c, 9, 51, 0
9, 10305, Note_on_c, 9, 51, 63
9, 10306, Note_on_c, 9, 51, 0
9, 10336, Note_on_c, 9, 35, 81
9, 10337, Note_on_c, 9, 35, 0
9, 10337, Note_on_c, 9, 51, 57
9, 10338, Note_on_c, 9, 51, 0
9, 10368, Note_on_c, 9, 51, 86
9, 10368, Note_on_c, 9, 35, 88
9, 10369, Note_on_c, 9, 51, 0
9, 10369, Note_on_c, 9, 35, 0
9, 10369, Note_on_c, 9, 37, 99
9, 10370, Note_on_c, 9, 37, 0
9, 10400, Note_on_c, 9, 51, 56
9, 10401, Note_on_c, 9, 51, 0
9, 10432, Note_on_c, 9, 51, 46
9, 10433, Note_on_c, 9, 51, 0
9, 10433, Note_on_c, 9, 35, 81
9, 10434, Note_on_c, 9, 35, 0
9, 10463, Note_on_c, 9, 37, 97
9, 10464, Note_on_c, 9, 37, 0
9, 10464, Note_on_c, 9, 51, 84
9, 10465, Note_on_c, 9, 51, 0
9, 10465, Note_on_c, 9, 35, 96
9, 10466, Note_on_c, 9, 35, 0
9, 10496, Note_on_c, 9, 51, 60
9, 10497, Note_on_c, 9, 51, 0
9, 10527, Note_on_c, 9, 35, 80
9, 10528, Note_on_c, 9, 35, 0
9, 10528, Note_on_c, 9, 51, 56
9, 10529, Note_on_c, 9, 51, 0
9, 10559, Note_on_c, 9, 37, 101
9, 10559, Note_on_c, 9, 51, 90
9, 10559, Note_on_c, 9, 35, 92
9, 10560, Note_on_c, 9, 37, 0
9, 10560, Note_on_c, 9, 51, 0
9, 10560, Note_on_c, 9, 35, 0
9, 10591, Note_on_c, 9, 51, 68
9, 10592, Note_on_c, 9, 51, 0
9, 10623, Note_on_c, 9, 51, 62
9, 10623, Note_on_c, 9, 35, 85
9, 10624, Note_on_c, 9, 51, 0
9, 10624, Note_on_c, 9, 35, 0
9, 10655, Note_on_c, 9, 37, 101
9, 10655, Note_on_c, 9, 51, 78
9, 10655, Note_on_c, 9, 35, 93
9, 10656, Note_on_c, 9, 37, 0
9, 10656, Note_on_c, 9, 51, 0
9, 10656, Note_on_c, 9, 35, 0
9, 10687, Note_on_c, 9, 51, 65
9, 10687, Note_on_c, 9, 35, 57
9, 10688, Note_on_c, 9, 51, 0
9, 10688, Note_on_c, 9, 35, 0
9, 10719, Note_on_c, 9, 51, 54
9, 10719, Note_on_c, 9, 35, 96
9, 10720, Note_on_c, 9, 51, 0
9, 10720, Note_on_c, 9, 35, 0
9, 10751, Note_on_c, 9, 37, 101
9, 10751, Note_on_c, 9, 51, 87
9, 10751, Note_on_c, 9, 35, 101
9, 10752, Note_on_c, 9, 37, 0
9, 10752, Note_on_c, 9, 51, 0
9, 10752, Note_on_c, 9, 35, 0
9, 10784, Note_on_c, 9, 51, 61
9, 10785, Note_on_c, 9, 51, 0
9, 10815, Note_on_c, 9, 51, 52
9, 10815, Note_on_c, 9, 35, 79
9, 10816, Note_on_c, 9, 51, 0
9, 10816, Note_on_c, 9, 35, 0
9, 10847, Note_on_c, 9, 37, 105
9, 10847, Note_on_c, 9, 51, 83
9, 10847, Note_on_c, 9, 35, 96
9, 10848, Note_on_c, 9, 37, 0
9, 10848, Note_on_c, 9, 51, 0
9, 10848, Note_on_c, 9, 35, 0
9, 10879, Note_on_c, 9, 51, 56
9, 10880, Note_on_c, 9, 51, 0
9, 10911, Note_on_c, 9, 51, 54
9, 10911, Note_on_c, 9, 35, 75
9, 10912, Note_on_c, 9, 51, 0
9, 10912, Note_on_c, 9, 35, 0
9, 10943, Note_on_c, 9, 37, 97
9, 10943, Note_on_c, 9, 51, 83
9, 10943, Note_on_c, 9, 35, 92
9, 10944, Note_on_c, 9, 37, 0
9, 10944, Note_on_c, 9, 51, 0
9, 10944, Note_on_c, 9, 35, 0
9, 10975, Note_on_c, 9, 51, 56
9, 10976, Note_on_c, 9, 51, 0
9, 11007, Note_on_c, 9, 51, 60
9, 11007, Note_on_c, 9, 35, 85
9, 11008, Note_on_c, 9, 51, 0
9, 11008, Note_on_c, 9, 35, 0
9, 11039, Note_on_c, 9, 37, 101
9, 11039, Note_on_c, 9, 51, 85
9, 11039, Note_on_c, 9, 35, 88
9, 11040, Note_on_c, 9, 37, 0
9, 11040, Note_on_c, 9, 51, 0
9, 11040, Note_on_c, 9, 35, 0
9, 11071, Note_on_c, 9, 51, 61
9, 11071, Note_on_c, 9, 35, 73
9, 11072, Note_on_c, 9, 51, 0
9, 11072, Note_on_c, 9, 35, 0
9, 11103, Note_on_c, 9, 51, 55
9, 11103, Note_on_c, 9, 35, 92
9, 11104, Note_on_c, 9, 51, 0
9, 11104, Note_on_c, 9, 35, 0
9, 11135, Note_on_c, 9, 37, 101
9, 11135, Note_on_c, 9, 35, 101
9, 11136, Note_on_c, 9, 37, 0
9, 11136, Note_on_c, 9, 35, 0
9, 11136, Note_on_c, 9, 51, 95
9, 11137, Note_on_c, 9, 51, 0
9, 11167, Note_on_c, 9, 37, 64
9, 11168, Note_on_c, 9, 37, 0
9, 11168, Note_on_c, 9, 51, 67
9, 11169, Note_on_c, 9, 51, 0
9, 11199, Note_on_c, 9, 37, 83
9, 11199, Note_on_c, 9, 51, 62
9, 11200, Note_on_c, 9, 37, 0
9, 11200, Note_on_c, 9, 51, 0
9, 11231, Note_on_c, 9, 37, 105
9, 11231, Note_on_c, 9, 51, 84
9, 11231, Note_on_c, 9, 35, 102
9, 11232, Note_on_c, 9, 37, 0
9, 11232, Note_on_c, 9, 51, 0
9, 11232, Note_on_c, 9, 35, 0
9, 11263, Note_on_c, 9, 37, 52
9, 11264, Note_on_c, 9, 37, 0
9, 11264, Note_on_c, 9, 51, 65
9, 11265, Note_on_c, 9, 51, 0
9, 11295, Note_on_c, 9, 37, 75
9, 11296, Note_on_c, 9, 37, 0
9, 11297, Note_on_c, 9, 51, 59
9, 11298, Note_on_c, 9, 51, 0
9, 11327, Note_on_c, 9, 37, 99
9, 11327, Note_on_c, 9, 35, 107
9, 11328, Note_on_c, 9, 37, 0
9, 11328, Note_on_c, 9, 35, 0
9, 11328, Note_on_c, 9, 51, 92
9, 11329, Note_on_c, 9, 51, 0
9, 11359, Note_on_c, 9, 37, 75
9, 11359, Note_on_c, 9, 51, 68
9, 11360, Note_on_c, 9, 37, 0
9, 11360, Note_on_c, 9, 51, 0
9, 11391, Note_on_c, 9, 37, 85
9, 11391, Note_on_c, 9, 51, 62
9, 11392, Note_on_c, 9, 37, 0
9, 11392, Note_on_c, 9, 51, 0
9, 11423, Note_on_c, 9, 37, 105
9, 11423, Note_on_c, 9, 51, 87
9, 11423, Note_on_c, 9, 35, 106
9, 11424, Note_on_c, 9, 37, 0
9, 11424, Note_on_c, 9, 51, 0
9, 11424, Note_on_c, 9, 35, 0
9, 11455, Note_on_c, 9, 37, 75
9, 11456, Note_on_c, 9, 37, 0
9, 11456, Note_on_c, 9, 51, 58
9, 11457, Note_on_c, 9, 51, 0
9, 11487, Note_on_c, 9, 37, 82
9, 11488, Note_on_c, 9, 37, 0
9, 11488, Note_on_c, 9, 51, 57
9, 11489, Note_on_c, 9, 51, 0
9, 11519, Note_on_c, 9, 37, 97
9, 11519, Note_on_c, 9, 35, 103
9, 11520, Note_on_c, 9, 37, 0
9, 11520, Note_on_c, 9, 35, 0
9, 11520, Note_on_c, 9, 51, 94
9, 11521, Note_on_c, 9, 51, 0
9, 11551, Note_on_c, 9, 51, 66
9, 11552, Note_on_c, 9, 51, 0
9, 11584, Note_on_c, 9, 51, 57
9, 11585, Note_on_c, 9, 51, 0
9, 11615, Note_on_c, 9, 37, 109
9, 11616, Note_on_c, 9, 37, 0
9, 11617, Note_on_c, 9, 51, 89
9, 11618, Note_on_c, 9, 51, 0
9, 11649, Note_on_c, 9, 51, 63
9, 11650, Note_on_c, 9, 51, 0
9, 11680, Note_on_c, 9, 51, 52
9, 11681, Note_on_c, 9, 51, 0
9, 11712, Note_on_c, 9, 51, 90
9, 11713, Note_on_c, 9, 51, 0
9, 11713, Note_on_c, 9, 35, 110
9, 11714, Note_on_c, 9, 35, 0
9, 11744, Note_on_c, 9, 51, 67
9, 11745, Note_on_c, 9, 51, 0
9, 11776, Note_on_c, 9, 51, 62
9, 11777, Note_on_c, 9, 51, 0
9, 11807, Note_on_c, 9, 37, 109
9, 11808, Note_on_c, 9, 37, 0
9, 11809, Note_on_c, 9, 51, 86
9, 11810, Note_on_c, 9, 51, 0
9, 11840, Note_on_c, 9, 35, 70
9, 11841, Note_on_c, 9, 35, 0
9, 11841, Note_on_c, 9, 51, 63
9, 11842, Note_on_c, 9, 51, 0
9, 11872, Note_on_c, 9, 35, 85
9, 11873, Note_on_c, 9, 35, 0
9, 11873, Note_on_c, 9, 51, 57
9, 11874, Note_on_c, 9, 51, 0
9, 11903, Note_on_c, 9, 35, 102
9, 11904, Note_on_c, 9, 35, 0
9, 11904, Note_on_c, 9, 51, 86
9, 11905, Note_on_c, 9, 51, 0
9, 11936, Note_on_c, 9, 51, 56
9, 11937, Note_on_c, 9, 51, 0
9, 11968, Note_on_c, 9, 51, 46
9, 11969, Note_on_c, 9, 51, 0
9, 11999, Note_on_c, 9, 37, 105
9, 12000, Note_on_c, 9, 37, 0
9, 12000, Note_on_c, 9, 51, 84
9, 12001, Note_on_c, 9, 51, 0
9, 12032, Note_on_c, 9, 51, 60
9, 12033, Note_on_c, 9, 51, 0
9, 12064, Note_on_c, 9, 51, 56
9, 12065, Note_on_c, 9, 51, 0
9, 12095, Note_on_c, 9, 51, 90
9, 12095, Note_on_c, 9, 35, 96
9, 12096, Note_on_c, 9, 51, 0
9, 12096, Note_on_c, 9, 35, 0
9, 12127, Note_on_c, 9, 51, 68
9, 12128, Note_on_c, 9, 51, 0
9, 12159, Note_on_c, 9, 51, 62
9, 12160, Note_on_c, 9, 51, 0
9, 12191, Note_on_c, 9, 37, 109
9, 12191, Note_on_c, 9, 51, 78
9, 12192, Note_on_c, 9, 37, 0
9, 12192, Note_on_c, 9, 51, 0
9, 12223, Note_on_c, 9, 51, 65
9, 12224, Note_on_c, 9, 51, 0
9, 12255, Note_on_c, 9, 51, 54
9, 12255, Note_on_c, 9, 35, 72
9, 12256, Note_on_c, 9, 51, 0
9, 12256, Note_on_c, 9, 35, 0
9, 12287, Note_on_c, 9, 51, 87
9, 12287, Note_on_c, 9, 35, 109
9, 12288, Note_on_c, 9, 51, 0
9, 12288, Note_on_c, 9, 35, 0
9, 12320, Note_on_c, 9, 51, 61
9, 12321, Note_on_c, 9, 51, 0
9, 12351, Note_on_c, 9, 51, 52
9, 12352, Note_on_c, 9, 51, 0
9, 12383, Note_on_c, 9, 37, 101
9, 12383, Note_on_c, 9, 51, 83
9, 12384, Note_on_c, 9, 37, 0
9, 12384, Note_on_c, 9, 51, 0
9, 12415, Note_on_c, 9, 51, 56
9, 12416, Note_on_c, 9, 51, 0
9, 12447, Note_on_c, 9, 51, 54
9, 12448, Note_on_c, 9, 51, 0
9, 12479, Note_on_c, 9, 51, 83
9, 12479, Note_on_c, 9, 35, 95
9, 12480, Note_on_c, 9, 51, 0
9, 12480, Note_on_c, 9, 35, 0
9, 12511, Note_on_c, 9, 51, 56
9, 12512, Note_on_c, 9, 51, 0
9, 12543, Note_on_c, 9, 51, 60
9, 12544, Note_on_c, 9, 51, 0
9, 12575, Note_on_c, 9, 37, 107
9, 12575, Note_on_c, 9, 51, 85
9, 12576, Note_on_c, 9, 37, 0
9, 12576, Note_on_c, 9, 51, 0
9, 12607, Note_on_c, 9, 51, 61
9, 12608, Note_on_c, 9, 51, 0
9, 12639, Note_on_c, 9, 51, 55
9, 12639, Note_on_c, 9, 35, 85
9, 12640, Note_on_c, 9, 51, 0
9, 12640, Note_on_c, 9, 35, 0
9, 12671, Note_on_c, 9, 35, 103
9, 12672, Note_on_c, 9, 35, 0
9, 12672, Note_on_c, 9, 51, 95
9, 12673, Note_on_c, 9, 51, 0
9, 12704, Note_on_c, 9, 51, 67
9, 12705, Note_on_c, 9, 51, 0
9, 12735, Note_on_c, 9, 51, 62
9, 12736, Note_on_c, 9, 51, 0
9, 12767, Note_on_c, 9, 51, 84
9, 12768, Note_on_c, 9, 51, 0
9, 12768, Note_on_c, 9, 37, 97
9, 12769, Note_on_c, 9, 37, 0
9, 12800, Note_on_c, 9, 51, 65
9, 12801, Note_on_c, 9, 51, 0
9, 12833, Note_on_c, 9, 51, 59
9, 12834, Note_on_c, 9, 51, 0
9, 12864, Note_on_c, 9, 51, 92
9, 12864, Note_on_c, 9, 35, 95
9, 12865, Note_on_c, 9, 51, 0
9, 12865, Note_on_c, 9, 35, 0
9, 12895, Note_on_c, 9, 51, 68
9, 12896, Note_on_c, 9, 51, 0
9, 12927, Note_on_c, 9, 51, 62
9, 12928, Note_on_c, 9, 51, 0
9, 12959, Note_on_c, 9, 37, 105
9, 12959, Note_on_c, 9, 51, 87
9, 12960, Note_on_c, 9, 37, 0
9, 12960, Note_on_c, 9, 51, 0
9, 12992, Note_on_c, 9, 51, 58
9, 12992, Note_on_c, 9, 35, 84
9, 12993, Note_on_c, 9, 51, 0
9, 12993, Note_on_c, 9, 35, 0
9, 13023, Note_on_c, 9, 35, 95
9, 13024, Note_on_c, 9, 35, 0
9, 13024, Note_on_c, 9, 51, 57
9, 13025, Note_on_c, 9, 51, 0
9, 13055, Note_on_c, 9, 35, 106
9, 13056, Note_on_c, 9, 35, 0
9, 13056, Note_on_c, 9, 51, 94
9, 13057, Note_on_c, 9, 51, 0
9, 13087, Note_on_c, 9, 51, 66
9, 13088, Note_on_c, 9, 51, 0
9, 13120, Note_on_c, 9, 51, 57
9, 13121, Note_on_c, 9, 51, 0
9, 13153, Note_on_c, 9, 37, 103
9, 13153, Note_on_c, 9, 51, 89
9, 13154, Note_on_c, 9, 37, 0
9, 13154, Note_on_c, 9, 51, 0
9, 13185, Note_on_c, 9, 51, 63
9, 13186, Note_on_c, 9, 51, 0
9, 13216, Note_on_c, 9, 51, 52
9, 13217, Note_on_c, 9, 51, 0
9, 13248, Note_on_c, 9, 51, 90
9, 13248, Note_on_c, 9, 35, 90
9, 13249, Note_on_c, 9, 51, 0
9, 13249, Note_on_c, 9, 35, 0
9, 13280, Note_on_c, 9, 51, 67
9, 13281, Note_on_c, 9, 51, 0
9, 13312, Note_on_c, 9, 51, 62
9, 13313, Note_on_c, 9, 51, 0
9, 13343, Note_on_c, 9, 37, 109
9, 13344, Note_on_c, 9, 37, 0
9, 13345, Note_on_c, 9, 51, 86
9, 13346, Note_on_c, 9, 51, 0
9, 13377, Note_on_c, 9, 51, 63
9, 13378, Note_on_c, 9, 51, 0
9, 13407, Note_on_c, 9, 35, 84
9, 13408, Note_on_c, 9, 35, 0
9, 13409, Note_on_c, 9, 51, 57
9, 13410, Note_on_c, 9, 51, 0
9, 13439, Note_on_c, 9, 35, 107
9, 13440, Note_on_c, 9, 35, 0
9, 13440, Note_on_c, 9, 51, 86
9, 13441, Note_on_c, 9, 51, 0
9, 13472, Note_on_c, 9, 51, 56
9, 13473, Note_on_c, 9, 51, 0
9, 13504, Note_on_c, 9, 51, 46
9, 13505, Note_on_c, 9, 51, 0
9, 13536, Note_on_c, 9, 37, 107
9, 13536, Note_on_c, 9, 51, 84
9, 13537, Note_on_c, 9, 37, 0
9, 13537, Note_on_c, 9, 51, 0
9, 13568, Note_on_c, 9, 51, 60
9, 13569, Note_on_c, 9, 51, 0
9, 13600, Note_on_c, 9, 51, 56
9, 13601, Note_on_c, 9, 51, 0
9, 13631, Note_on_c, 9, 51, 90
9, 13631, Note_on_c, 9, 35, 98
9, 13632, Note_on_c, 9, 51, 0
9, 13632, Note_on_c, 9, 35, 0
9, 13663, Note_on_c, 9, 51, 68
9, 13664, Note_on_c, 9, 51, 0
9, 13695, Note_on_c, 9, 51, 62
9, 13696, Note_on_c, 9, 51, 0
9, 13727, Note_on_c, 9, 51, 78
9, 13728, Note_on_c, 9, 51, 0
9, 13728, Note_on_c, 9, 37, 103
9, 13729, Note_on_c, 9, 37, 0
9, 13759, Note_on_c, 9, 51, 65
9, 13760, Note_on_c, 9, 51, 0
9, 13791, Note_on_c, 9, 51, 54
9, 13791, Note_on_c, 9, 35, 88
9, 13792, Note_on_c, 9, 51, 0
9, 13792, Note_on_c, 9, 35, 0
9, 13823, Note_on_c, 9, 51, 87
9, 13823, Note_on_c, 9, 35, 105
9, 13824, Note_on_c, 9, 51, 0
9, 13824, Note_on_c, 9, 35, 0
9, 13856, Note_on_c, 9, 51, 61
9, 13857, Note_on_c, 9, 51, 0
9, 13887, Note_on_c, 9, 51, 52
9, 13888, Note_on_c, 9, 51, 0
9, 13919, Note_on_c, 9, 37, 105
9, 13919, Note_on_c, 9, 51, 83
9, 13920, Note_on_c, 9, 37, 0
9, 13920, Note_on_c, 9, 51, 0
9, 13951, Note_on_c, 9, 51, 56
9, 13952, Note_on_c, 9, 51, 0
9, 13983, Note_on_c, 9, 51, 54
9, 13984, Note_on_c, 9, 51, 0
9, 14015, Note_on_c, 9, 51, 83
9, 14015, Note_on_c, 9, 35, 103
9, 14016, Note_on_c, 9, 51, 0
9, 14016, Note_on_c, 9, 35, 0
9, 14047, Note_on_c, 9, 51, 56
9, 14048, Note_on_c, 9, 51, 0
9, 14079, Note_on_c, 9, 51, 60
9, 14080, Note_on_c, 9, 51, 0
9, 14111, Note_on_c, 9, 37, 107
9, 14111, Note_on_c, 9, 51, 85
9, 14112, Note_on_c, 9, 37, 0
9, 14112, Note_on_c, 9, 51, 0
9, 14143, Note_on_c, 9, 51, 61
9, 14144, Note_on_c, 9, 51, 0
9, 14175, Note_on_c, 9, 51, 55
9, 14175, Note_on_c, 9, 35, 90
9, 14176, Note_on_c, 9, 51, 0
9, 14176, Note_on_c, 9, 35, 0
9, 14207, Note_on_c, 9, 35, 103
9, 14208, Note_on_c, 9, 35, 0
9, 14208, Note_on_c, 9, 51, 95
9, 14209, Note_on_c, 9, 51, 0
9, 14239, Note_on_c, 9, 37, 56
9, 14240, Note_on_c, 9, 37, 0
9, 14240, Note_on_c, 9, 51, 67
9, 14241, Note_on_c, 9, 51, 0
9, 14271, Note_on_c, 9, 37, 69
9, 14271, Note_on_c, 9, 51, 62
9, 14272, Note_on_c, 9, 37, 0
9, 14272, Note_on_c, 9, 51, 0
9, 14303, Note_on_c, 9, 37, 105
9, 14303, Note_on_c, 9, 51, 84
9, 14304, Note_on_c, 9, 37, 0
9, 14304, Note_on_c, 9, 51, 0
9, 14335, Note_on_c, 9, 37, 63
9, 14336, Note_on_c, 9, 37, 0
9, 14336, Note_on_c, 9, 51, 65
9, 14337, Note_on_c, 9, 51, 0
9, 14367, Note_on_c, 9, 37, 75
9, 14368, Note_on_c, 9, 37, 0
9, 14369, Note_on_c, 9, 51, 59
9, 14370, Note_on_c, 9, 51, 0
9, 14399, Note_on_c, 9, 37, 109
9, 14400, Note_on_c, 9, 37, 0
9, 14400, Note_on_c, 9, 51, 92
9, 14401, Note_on_c, 9, 51, 0
9, 14431, Note_on_c, 9, 37, 86
9, 14431, Note_on_c, 9, 51, 68
9, 14432, Note_on_c, 9, 37, 0
9, 14432, Note_on_c, 9, 51, 0
9, 14463, Note_on_c, 9, 37, 97
9, 14463, Note_on_c, 9, 51, 62
9, 14464, Note_on_c, 9, 37, 0
9, 14464, Note_on_c, 9, 51, 0
9, 14495, Note_on_c, 9, 37, 112
9, 14495, Note_on_c, 9, 55, 87
9, 14496, Note_on_c, 9, 37, 0
9, 14496, Note_on_c, 9, 55, 0
9, 14527, Note_on_c, 9, 47, 84
9, 14528, Note_on_c, 9, 47, 0
9, 14559, Note_on_c, 9, 43, 93
9, 14560, Note_on_c, 9, 43, 0
9, 14560, Note_on_c, 9, 42, 57
9, 14561, Note_on_c, 9, 42, 0
9, 14592, Note_on_c, 9, 51, 94
9, 14593, Note_on_c, 9, 51, 0
9, 14593, Note_on_c, 9, 35, 103
9, 14594, Note_on_c, 9, 35, 0
9, 14623, Note_on_c, 9, 51, 66
9, 14624, Note_on_c, 9, 51, 0
9, 14656, Note_on_c, 9, 51, 57
9, 14657, Note_on_c, 9, 51, 0
9, 14657, Note_on_c, 9, 35, 96
9, 14658, Note_on_c, 9, 35, 0
9, 14687, Note_on_c, 9, 37, 99
9, 14688, Note_on_c, 9, 37, 0
9, 14689, Note_on_c, 9, 51, 89
9, 14690, Note_on_c, 9, 51, 0
9, 14721, Note_on_c, 9, 51, 63
9, 14722, Note_on_c, 9, 51, 0
9, 14751, Note_on_c, 9, 35, 79
9, 14752, Note_on_c, 9, 35, 0
9, 14752, Note_on_c, 9, 51, 52
9, 14753, Note_on_c, 9, 51, 0
9, 14783, Note_on_c, 9, 35, 98
9, 14784, Note_on_c, 9, 35, 0
9, 14784, Note_on_c, 9, 51, 90
9, 14785, Note_on_c, 9, 51, 0
9, 14816, Note_on_c, 9, 51, 67
9, 14817, Note_on_c, 9, 51, 0
9, 14847, Note_on_c, 9, 35, 95
9, 14848, Note_on_c, 9, 35, 0
9, 14848, Note_on_c, 9, 51, 62
9, 14849, Note_on_c, 9, 51, 0
9, 14879, Note_on_c, 9, 37, 103
9, 14880, Note_on_c, 9, 37, 0
9, 14881, Note_on_c, 9, 51, 86
9, 14882, Note_on_c, 9, 51, 0
9, 14912, Note_on_c, 9, 35, 54
9, 14913, Note_on_c, 9, 35, 0
9, 14913, Note_on_c, 9, 51, 63
9, 14914, Note_on_c, 9, 51, 0
9, 14943, Note_on_c, 9, 35, 82
9, 14944, Note_on_c, 9, 35, 0
9, 14945, Note_on_c, 9, 51, 57
9, 14946, Note_on_c, 9, 51, 0
9, 14975, Note_on_c, 9, 35, 106
9, 14976, Note_on_c, 9, 35, 0
9, 14976, Note_on_c, 9, 51, 86
9, 14977, Note_on_c, 9, 51, 0
9, 15008, Note_on_c, 9, 51, 56
9, 15009, Note_on_c, 9, 51, 0
9, 15039, Note_on_c, 9, 35, 89
9, 15040, Note_on_c, 9, 35, 0
9, 15040, Note_on_c, 9, 51, 46
9, 15041, Note_on_c, 9, 51, 0
9, 15071, Note_on_c, 9, 37, 99
9, 15072, Note_on_c, 9, 37, 0
9, 15072, Note_on_c, 9, 51, 84
9, 15073, Note_on_c, 9, 51, 0
9, 15104, Note_on_c, 9, 51, 60
9, 15105, Note_on_c, 9, 51, 0
9, 15135, Note_on_c, 9, 35, 73
9, 15136, Note_on_c, 9, 35, 0
9, 15136, Note_on_c, 9, 51, 56
9, 15137, Note_on_c, 9, 51, 0
9, 15167, Note_on_c, 9, 51, 90
9, 15167, Note_on_c, 9, 35, 101
9, 15168, Note_on_c, 9, 51, 0
9, 15168, Note_on_c, 9, 35, 0
9, 15199, Note_on_c, 9, 51, 68
9, 15200, Note_on_c, 9, 51, 0
9, 15231, Note_on_c, 9, 51, 62
9, 15231, Note_on_c, 9, 35, 89
9, 15232, Note_on_c, 9, 51, 0
9, 15232, Note_on_c, 9, 35, 0
9, 15263, Note_on_c, 9, 37, 105
9, 15263, Note_on_c, 9, 51, 78
9, 15264, Note_on_c, 9, 37, 0
9, 15264, Note_on_c, 9, 51, 0
9, 15295, Note_on_c, 9, 51, 65
9, 15295, Note_on_c, 9, 35, 64
9, 15296, Note_on_c, 9, 51, 0
9, 15296, Note_on_c, 9, 35, 0
9, 15327, Note_on_c, 9, 51, 54
9, 15327, Note_on_c, 9, 35, 95
9, 15328, Note_on_c, 9, 51, 0
9, 15328, Note_on_c, 9, 35, 0
9, 15359, Note_on_c, 9, 51, 87
9, 15359, Note_on_c, 9, 35, 103
9, 15360, Note_on_c, 9, 51, 0
9, 15360, Note_on_c, 9, 35, 0
9, 15392, Note_on_c, 9, 51, 61
9, 15393, Note_on_c, 9, 51, 0
9, 15423, Note_on_c, 9, 51, 52
9, 15423, Note_on_c, 9, 35, 94
9, 15424, Note_on_c, 9, 51, 0
9, 15424, Note_on_c, 9, 35, 0
9, 15455, Note_on_c, 9, 37, 101
9, 15455, Note_on_c, 9, 51, 83
9, 15456, Note_on_c, 9, 37, 0
9, 15456, Note_on_c, 9, 51, 0
9, 15487, Note_on_c, 9, 51, 56
9, 15488, Note_on_c, 9, 51, 0
9, 15519, Note_on_c, 9, 51, 54
9, 15519, Note_on_c, 9, 35, 94
9, 15520, Note_on_c, 9, 51, 0
9, 15520, Note_on_c, 9, 35, 0
9, 15551, Note_on_c, 9, 51, 83
9, 15552, Note_on_c, 9, 51, 0
9, 15552, Note_on_c, 9, 35, 95
9, 15553, Note_on_c, 9, 35, 0
9, 15583, Note_on_c, 9, 51, 56
9, 15584, Note_on_c, 9, 51, 0
9, 15615, Note_on_c, 9, 51, 60
9, 15615, Note_on_c, 9, 35, 91
9, 15616, Note_on_c, 9, 51, 0
9, 15616, Note_on_c, 9, 35, 0
9, 15647, Note_on_c, 9, 37, 109
9, 15647, Note_on_c, 9, 51, 85
9, 15648, Note_on_c, 9, 37, 0
9, 15648, Note_on_c, 9, 51, 0
9, 15679, Note_on_c, 9, 51, 61
9, 15679, Note_on_c, 9, 35, 58
9, 15680, Note_on_c, 9, 51, 0
9, 15680, Note_on_c, 9, 35, 0
9, 15711, Note_on_c, 9, 51, 55
9, 15711, Note_on_c, 9, 35, 88
9, 15712, Note_on_c, 9, 51, 0
9, 15712, Note_on_c, 9, 35, 0
9, 15743, Note_on_c, 9, 35, 99
9, 15744, Note_on_c, 9, 35, 0
9, 15744, Note_on_c, 9, 51, 95
9, 15745, Note_on_c, 9, 51, 0
9, 15776, Note_on_c, 9, 51, 67
9, 15777, Note_on_c, 9, 51, 0
9, 15807, Note_on_c, 9, 51, 62
9, 15808, Note_on_c, 9, 51, 0
9, 15809, Note_on_c, 9, 35, 85
9, 15810, Note_on_c, 9, 35, 0
9, 15839, Note_on_c, 9, 37, 109
9, 15839, Note_on_c, 9, 51, 84
9, 15840, Note_on_c, 9, 37, 0
9, 15840, Note_on_c, 9, 51, 0
9, 15872, Note_on_c, 9, 51, 65
9, 15873, Note_on_c, 9, 51, 0
9, 15904, Note_on_c, 9, 35, 85
9, 15905, Note_on_c, 9, 35, 0
9, 15905, Note_on_c, 9, 51, 59
9, 15906, Note_on_c, 9, 51, 0
9, 15936, Note_on_c, 9, 51, 92
9, 15936, Note_on_c, 9, 35, 93
9, 15937, Note_on_c, 9, 51, 0
9, 15937, Note_on_c, 9, 35, 0
9, 15967, Note_on_c, 9, 51, 68
9, 15968, Note_on_c, 9, 51, 0
9, 15999, Note_on_c, 9, 51, 62
9, 15999, Note_on_c, 9, 35, 95
9, 16000, Note_on_c, 9, 51, 0
9, 16000, Note_on_c, 9, 35, 0
9, 16031, Note_on_c, 9, 37, 99
9, 16031, Note_on_c, 9, 51, 87
9, 16032, Note_on_c, 9, 37, 0
9, 16032, Note_on_c, 9, 51, 0
9, 16063, Note_on_c, 9, 35, 77
9, 16064, Note_on_c, 9, 35, 0
9, 16064, Note_on_c, 9, 51, 58
9, 16065, Note_on_c, 9, 51, 0
9, 16095, Note_on_c, 9, 35, 95
9, 16096, Note_on_c, 9, 35, 0
9, 16096, Note_on_c, 9, 51, 57
9, 16097, Note_on_c, 9, 51, 0
9, 16127, Note_on_c, 9, 35, 100
9, 16128, Note_on_c, 9, 35, 0
9, 16128, Note_on_c, 9, 51, 94
9, 16129, Note_on_c, 9, 51, 0
9, 16159, Note_on_c, 9, 51, 66
9, 16160, Note_on_c, 9, 51, 0
9, 16191, Note_on_c, 9, 35, 85
9, 16192, Note_on_c, 9, 35, 0
9, 16192, Note_on_c, 9, 51, 57
9, 16193, Note_on_c, 9, 51, 0
9, 16223, Note_on_c, 9, 37, 103
9, 16224, Note_on_c, 9, 37, 0
9, 16225, Note_on_c, 9, 51, 89
9, 16226, Note_on_c, 9, 51, 0
9, 16257, Note_on_c, 9, 51, 63
9, 16258, Note_on_c, 9, 51, 0
9, 16287, Note_on_c, 9, 35, 80
9, 16288, Note_on_c, 9, 35, 0
9, 16288, Note_on_c, 9, 51, 52
9, 16289, Note_on_c, 9, 51, 0
9, 16319, Note_on_c, 9, 35, 91
9, 16320, Note_on_c, 9, 35, 0
9, 16320, Note_on_c, 9, 51, 90
9, 16321, Note_on_c, 9, 51, 0
9, 16352, Note_on_c, 9, 51, 67
9, 16353, Note_on_c, 9, 51, 0
9, 16383, Note_on_c, 9, 35, 88
9, 16384, Note_on_c, 9, 35, 0
9, 16384, Note_on_c, 9, 51, 62
9, 16385, Note_on_c, 9, 51, 0
9, 16415, Note_on_c, 9, 37, 97
9, 16416, Note_on_c, 9, 37, 0
9, 16417, Note_on_c, 9, 51, 86
9, 16418, Note_on_c, 9, 51, 0
9, 16447, Note_on_c, 9, 35, 63
9, 16448, Note_on_c, 9, 35, 0
9, 16449, Note_on_c, 9, 51, 63
9, 16450, Note_on_c, 9, 51, 0
9, 16479, Note_on_c, 9, 35, 96
9, 16480, Note_on_c, 9, 35, 0
9, 16481, Note_on_c, 9, 51, 57
9, 16482, Note_on_c, 9, 51, 0
9, 16511, Note_on_c, 9, 35, 101
9, 16512, Note_on_c, 9, 35, 0
9, 16512, Note_on_c, 9, 51, 86
9, 16513, Note_on_c, 9, 51, 0
9, 16544, Note_on_c, 9, 51, 56
9, 16545, Note_on_c, 9, 51, 0
9, 16575, Note_on_c, 9, 35, 93
9, 16576, Note_on_c, 9, 35, 0
9, 16576, Note_on_c, 9, 51, 46
9, 16577, Note_on_c, 9, 51, 0
9, 16607, Note_on_c, 9, 37, 107
9, 16608, Note_on_c, 9, 37, 0
9, 16608, Note_on_c, 9, 51, 84
9, 16609, Note_on_c, 9, 51, 0
9, 16640, Note_on_c, 9, 51, 60
9, 16641, Note_on_c, 9, 51, 0
9, 16671, Note_on_c, 9, 35, 83
9, 16672, Note_on_c, 9, 35, 0
9, 16672, Note_on_c, 9, 51, 56
9, 16673, Note_on_c, 9, 51, 0
9, 16703, Note_on_c, 9, 51, 90
9, 16703, Note_on_c, 9, 35, 96
9, 16704, Note_on_c, 9, 51, 0
9, 16704, Note_on_c, 9, 35, 0
9, 16735, Note_on_c, 9, 51, 68
9, 16736, Note_on_c, 9, 51, 0
9, 16767, Note_on_c, 9, 51, 62
9, 16767, Note_on_c, 9, 35, 95
9, 16768, Note_on_c, 9, 51, 0
9, 16768, Note_on_c, 9, 35, 0
9, 16799, Note_on_c, 9, 37, 105
9, 16799, Note_on_c, 9, 51, 78
9, 16800, Note_on_c, 9, 37, 0
9, 16800, Note_on_c, 9, 51, 0
9, 16831, Note_on_c, 9, 51, 65
9, 16832, Note_on_c, 9, 51, 0
9, 16863, Note_on_c, 9, 51, 54
9, 16863, Note_on_c, 9, 35, 85
9, 16864, Note_on_c, 9, 51, 0
9, 16864, Note_on_c, 9, 35, 0
9, 16895, Note_on_c, 9, 51, 87
9, 16895, Note_on_c, 9, 35, 99
9, 16896, Note_on_c, 9, 51, 0
9, 16896, Note_on_c, 9, 35, 0
9, 16928, Note_on_c, 9, 51, 61
9, 16929, Note_on_c, 9, 51, 0
9, 16959, Note_on_c, 9, 51, 52
9, 16960, Note_on_c, 9, 51, 0
9, 16960, Note_on_c, 9, 35, 103
9, 16961, Note_on_c, 9, 35, 0
9, 16991, Note_on_c, 9, 37, 107
9, 16991, Note_on_c, 9, 51, 83
9, 16992, Note_on_c, 9, 37, 0
9, 16992, Note_on_c, 9, 51, 0
9, 17023, Note_on_c, 9, 51, 56
9, 17024, Note_on_c, 9, 51, 0
9, 17055, Note_on_c, 9, 51, 54
9, 17055, Note_on_c, 9, 35, 85
9, 17056, Note_on_c, 9, 51, 0
9, 17056, Note_on_c, 9, 35, 0
9, 17087, Note_on_c, 9, 51, 83
9, 17087, Note_on_c, 9, 35, 95
9, 17088, Note_on_c, 9, 51, 0
9, 17088, Note_on_c, 9, 35, 0
9, 17119, Note_on_c, 9, 51, 56
9, 17120, Note_on_c, 9, 51, 0
9, 17151, Note_on_c, 9, 51, 60
9, 17151, Note_on_c, 9, 35, 96
9, 17152, Note_on_c, 9, 51, 0
9, 17152, Note_on_c, 9, 35, 0
9, 17183, Note_on_c, 9, 37, 103
9, 17183, Note_on_c, 9, 51, 85
9, 17184, Note_on_c, 9, 37, 0
9, 17184, Note_on_c, 9, 51, 0
9, 17215, Note_on_c, 9, 51, 61
9, 17216, Note_on_c, 9, 51, 0
9, 17216, Note_on_c, 9, 35, 85
9, 17217, Note_on_c, 9, 35, 0
9, 17247, Note_on_c, 9, 51, 55
9, 17247, Note_on_c, 9, 35, 96
9, 17248, Note_on_c, 9, 51, 0
9, 17248, Note_on_c, 9, 35, 0
9, 17279, Note_on_c, 9, 35, 107
9, 17280, Note_on_c, 9, 35, 0
9, 17280, Note_on_c, 9, 51, 95
9, 17281, Note_on_c, 9, 51, 0
9, 17312, Note_on_c, 9, 51, 67
9, 17313, Note_on_c, 9, 51, 0
9, 17343, Note_on_c, 9, 51, 62
9, 17343, Note_on_c, 9, 35, 101
9, 17344, Note_on_c, 9, 51, 0
9, 17344, Note_on_c, 9, 35, 0
9, 17375, Note_on_c, 9, 37, 105
9, 17375, Note_on_c, 9, 51, 84
9, 17376, Note_on_c, 9, 37, 0
9, 17376, Note_on_c, 9, 51, 0
9, 17408, Note_on_c, 9, 51, 65
9, 17409, Note_on_c, 9, 51, 0
9, 17439, Note_on_c, 9, 35, 88
9, 17440, Note_on_c, 9, 35, 0
9, 17441, Note_on_c, 9, 51, 59
9, 17442, Note_on_c, 9, 51, 0
9, 17471, Note_on_c, 9, 35, 96
9, 17472, Note_on_c, 9, 35, 0
9, 17472, Note_on_c, 9, 51, 92
9, 17473, Note_on_c, 9, 51, 0
9, 17503, Note_on_c, 9, 51, 68
9, 17504, Note_on_c, 9, 51, 0
9, 17535, Note_on_c, 9, 51, 62
9, 17536, Note_on_c, 9, 51, 0
9, 17536, Note_on_c, 9, 35, 88
9, 17537, Note_on_c, 9, 35, 0
9, 17567, Note_on_c, 9, 37, 109
9, 17567, Note_on_c, 9, 51, 87
9, 17568, Note_on_c, 9, 37, 0
9, 17568, Note_on_c, 9, 51, 0
9, 17599, Note_on_c, 9, 35, 83
9, 17600, Note_on_c, 9, 35, 0
9, 17600, Note_on_c, 9, 51, 58
9, 17601, Note_on_c, 9, 51, 0
9, 17631, Note_on_c, 9, 35, 88
9, 17632, Note_on_c, 9, 35, 0
9, 17632, Note_on_c, 9, 51, 57
9, 17633, Note_on_c, 9, 51, 0
9, 17663, Note_on_c, 9, 35, 106
9, 17664, Note_on_c, 9, 35, 0
9, 17664, Note_on_c, 9, 51, 94
9, 17665, Note_on_c, 9, 51, 0
9, 17695, Note_on_c, 9, 51, 66
9, 17696, Note_on_c, 9, 51, 0
9, 17727, Note_on_c, 9, 35, 94
9, 17728, Note_on_c, 9, 35, 0
9, 17728, Note_on_c, 9, 51, 57
9, 17729, Note_on_c, 9, 51, 0
9, 17760, Note_on_c, 9, 37, 95
9, 17761, Note_on_c, 9, 37, 0
9, 17761, Note_on_c, 9, 51, 89
9, 17762, Note_on_c, 9, 51, 0
9, 17793, Note_on_c, 9, 51, 63
9, 17794, Note_on_c, 9, 51, 0
9, 17823, Note_on_c, 9, 35, 82
9, 17824, Note_on_c, 9, 35, 0
9, 17824, Note_on_c, 9, 51, 52
9, 17825, Note_on_c, 9, 51, 0
9, 17855, Note_on_c, 9, 35, 95
9, 17856, Note_on_c, 9, 35, 0
9, 17856, Note_on_c, 9, 51, 90
9, 17857, Note_on_c, 9, 51, 0
9, 17888, Note_on_c, 9, 51, 67
9, 17889, Note_on_c, 9, 51, 0
9, 17919, Note_on_c, 9, 35, 95
9, 17920, Note_on_c, 9, 35, 0
9, 17920, Note_on_c, 9, 51, 62
9, 17921, Note_on_c, 9, 51, 0
9, 17951, Note_on_c, 9, 37, 109
9, 17952, Note_on_c, 9, 37, 0
9, 17953, Note_on_c, 9, 51, 86
9, 17954, Note_on_c, 9, 51, 0
9, 17984, Note_on_c, 9, 35, 66
9, 17985, Note_on_c, 9, 35, 0
9, 17985, Note_on_c, 9, 51, 63
9, 17986, Note_on_c, 9, 51, 0
9, 18017, Note_on_c, 9, 51, 57
9, 18017, Note_on_c, 9, 35, 89
9, 18018, Note_on_c, 9, 51, 0
9, 18018, Note_on_c, 9, 35, 0
9, 18048, Note_on_c, 9, 51, 86
9, 18048, Note_on_c, 9, 35, 99
9, 18049, Note_on_c, 9, 51, 0
9, 18049, Note_on_c, 9, 35, 0
9, 18080, Note_on_c, 9, 51, 56
9, 18081, Note_on_c, 9, 51, 0
9, 18111, Note_on_c, 9, 35, 95
9, 18112, Note_on_c, 9, 35, 0
9, 18112, Note_on_c, 9, 51, 46
9, 18113, Note_on_c, 9, 51, 0
9, 18143, Note_on_c, 9, 37, 97
9, 18144, Note_on_c, 9, 37, 0
9, 18144, Note_on_c, 9, 51, 84
9, 18145, Note_on_c, 9, 51, 0
9, 18176, Note_on_c, 9, 51, 60
9, 18177, Note_on_c, 9, 51, 0
9, 18207, Note_on_c, 9, 35, 81
9, 18208, Note_on_c, 9, 35, 0
9, 18208, Note_on_c, 9, 51, 56
9, 18209, Note_on_c, 9, 51, 0
9, 18239, Note_on_c, 9, 51, 90
9, 18239, Note_on_c, 9, 35, 88
9, 18240, Note_on_c, 9, 51, 0
9, 18240, Note_on_c, 9, 35, 0
9, 18271, Note_on_c, 9, 51, 68
9, 18272, Note_on_c, 9, 51, 0
9, 18303, Note_on_c, 9, 51, 62
9, 18303, Note_on_c, 9, 35, 94
9, 18304, Note_on_c, 9, 51, 0
9, 18304, Note_on_c, 9, 35, 0
9, 18335, Note_on_c, 9, 37, 112
9, 18335, Note_on_c, 9, 51, 78
9, 18336, Note_on_c, 9, 37, 0
9, 18336, Note_on_c, 9, 51, 0
9, 18367, Note_on_c, 9, 51, 65
9, 18368, Note_on_c, 9, 51, 0
9, 18399, Note_on_c, 9, 51, 54
9, 18399, Note_on_c, 9, 35, 88
9, 18400, Note_on_c, 9, 51, 0
9, 18400, Note_on_c, 9, 35, 0
9, 18431, Note_on_c, 9, 51, 87
9, 18431, Note_on_c, 9, 35, 98
9, 18432, Note_on_c, 9, 51, 0
9, 18432, Note_on_c, 9, 35, 0
9, 18464, Note_on_c, 9, 51, 61
9, 18465, Note_on_c, 9, 51, 0
9, 18495, Note_on_c, 9, 51, 52
9, 18495, Note_on_c, 9, 35, 92
9, 18496, Note_on_c, 9, 51, 0
9, 18496, Note_on_c, 9, 35, 0
9, 18527, Note_on_c, 9, 37, 109
9, 18527, Note_on_c, 9, 51, 83
9, 18528, Note_on_c, 9, 37, 0
9, 18528, Note_on_c, 9, 51, 0
9, 18559, Note_on_c, 9, 51, 56
9, 18560, Note_on_c, 9, 51, 0
9, 18591, Note_on_c, 9, 51, 54
9, 18591, Note_on_c, 9, 35, 88
9, 18592, Note_on_c, 9, 51, 0
9, 18592, Note_on_c, 9, 35, 0
9, 18623, Note_on_c, 9, 51, 83
9, 18623, Note_on_c, 9, 35, 93
9, 18624, Note_on_c, 9, 51, 0
9, 18624, Note_on_c, 9, 35, 0
9, 18655, Note_on_c, 9, 51, 56
9, 18656, Note_on_c, 9, 51, 0
9, 18687, Note_on_c, 9, 51, 60
9, 18687, Note_on_c, 9, 35, 94
9, 18688, Note_on_c, 9, 51, 0
9, 18688, Note_on_c, 9, 35, 0
9, 18719, Note_on_c, 9, 37, 103
9, 18719, Note_on_c, 9, 51, 85
9, 18720, Note_on_c, 9, 37, 0
9, 18720, Note_on_c, 9, 51, 0
9, 18751, Note_on_c, 9, 51, 61
9, 18752, Note_on_c, 9, 51, 0
9, 18783, Note_on_c, 9, 51, 55
9, 18783, Note_on_c, 9, 35, 95
9, 18784, Note_on_c, 9, 51, 0
9, 18784, Note_on_c, 9, 35, 0
9, 18815, Note_on_c, 9, 35, 103
9, 18816, Note_on_c, 9, 35, 0
9, 18816, Note_on_c, 9, 51, 95
9, 18817, Note_on_c, 9, 51, 0
9, 18847, Note_on_c, 9, 37, 43
9, 18848, Note_on_c, 9, 37, 0
9, 18848, Note_on_c, 9, 51, 67
9, 18849, Note_on_c, 9, 51, 0
9, 18879, Note_on_c, 9, 37, 64
9, 18879, Note_on_c, 9, 51, 62
9, 18880, Note_on_c, 9, 37, 0
9, 18880, Note_on_c, 9, 51, 0
9, 18911, Note_on_c, 9, 37, 103
9, 18911, Note_on_c, 9, 51, 84
9, 18912, Note_on_c, 9, 37, 0
9, 18912, Note_on_c, 9, 51, 0
9, 18944, Note_on_c, 9, 37, 66
9, 18944, Note_on_c, 9, 51, 65
9, 18945, Note_on_c, 9, 37, 0
9, 18945, Note_on_c, 9, 51, 0
9, 18976, Note_on_c, 9, 37, 79
9, 18977, Note_on_c, 9, 37, 0
9, 18977, Note_on_c, 9, 51, 59
9, 18978, Note_on_c, 9, 51, 0
9, 19008, Note_on_c, 9, 51, 92
9, 19009, Note_on_c, 9, 51, 0
9, 19009, Note_on_c, 9, 37, 107
9, 19010, Note_on_c, 9, 37, 0
9, 19039, Note_on_c, 9, 51, 68
9, 19040, Note_on_c, 9, 51, 0
9, 19041, Note_on_c, 9, 37, 78
9, 19042, Note_on_c, 9, 37, 0
9, 19071, Note_on_c, 9, 51, 62
9, 19072, Note_on_c, 9, 51, 0
9, 19072, Note_on_c, 9, 37, 86
9, 19073, Note_on_c, 9, 37, 0
9, 19103, Note_on_c, 9, 37, 109
9, 19103, Note_on_c, 9, 51, 87
9, 19104, Note_on_c, 9, 37, 0
9, 19104, Note_on_c, 9, 51, 0
9, 19135, Note_on_c, 9, 37, 99
9, 19136, Note_on_c, 9, 37, 0
9, 19136, Note_on_c, 9, 51, 58
9, 19137, Note_on_c, 9, 51, 0
9, 19167, Note_on_c, 9, 37, 109
9, 19168, Note_on_c, 9, 37, 0
9, 19168, Note_on_c, 9, 51, 57
9, 19169, Note_on_c, 9, 51, 0
9, 19200, Note_on_c, 9, 51, 94
9, 19201, Note_on_c, 9, 51, 0
9, 19201, Note_on_c, 9, 37, 89
9, 19201, Note_on_c, 9, 35, 96
9, 19202, Note_on_c, 9, 37, 0
9, 19202, Note_on_c, 9, 35, 0
9, 19231, Note_on_c, 9, 51, 66
9, 19232, Note_on_c, 9, 51, 0
9, 19263, Note_on_c, 9, 35, 83
9, 19264, Note_on_c, 9, 35, 0
9, 19264, Note_on_c, 9, 51, 57
9, 19265, Note_on_c, 9, 51, 0
9, 19296, Note_on_c, 9, 37, 93
9, 19297, Note_on_c, 9, 37, 0
9, 19297, Note_on_c, 9, 51, 89
9, 19298, Note_on_c, 9, 51, 0
9, 19329, Note_on_c, 9, 51, 63
9, 19330, Note_on_c, 9, 51, 0
9, 19359, Note_on_c, 9, 35, 85
9, 19360, Note_on_c, 9, 35, 0
9, 19360, Note_on_c, 9, 51, 52
9, 19361, Note_on_c, 9, 51, 0
9, 19391, Note_on_c, 9, 35, 95
9, 19392, Note_on_c, 9, 35, 0
9, 19392, Note_on_c, 9, 37, 93
9, 19392, Note_on_c, 9, 51, 90
9, 19393, Note_on_c, 9, 37, 0
9, 19393, Note_on_c, 9, 51, 0
9, 19424, Note_on_c, 9, 51, 67
9, 19425, Note_on_c, 9, 51, 0
9, 19455, Note_on_c, 9, 35, 87
9, 19456, Note_on_c, 9, 35, 0
9, 19456, Note_on_c, 9, 51, 62
9, 19457, Note_on_c, 9, 51, 0
9, 19487, Note_on_c, 9, 37, 97
9, 19487, Note_on_c, 9, 35, 91
9, 19488, Note_on_c, 9, 37, 0
9, 19488, Note_on_c, 9, 35, 0
9, 19489, Note_on_c, 9, 51, 86
9, 19490, Note_on_c, 9, 51, 0
9, 19521, Note_on_c, 9, 51, 63
9, 19522, Note_on_c, 9, 51, 0
9, 19551, Note_on_c, 9, 35, 77
9, 19552, Note_on_c, 9, 35, 0
9, 19553, Note_on_c, 9, 51, 57
9, 19554, Note_on_c, 9, 51, 0
9, 19583, Note_on_c, 9, 37, 87
9, 19583, Note_on_c, 9, 35, 92
9, 19584, Note_on_c, 9, 37, 0
9, 19584, Note_on_c, 9, 35, 0
9, 19584, Note_on_c, 9, 51, 86
9, 19585, Note_on_c, 9, 51, 0
9, 19616, Note_on_c, 9, 51, 56
9, 19617, Note_on_c, 9, 51, 0
9, 19647, Note_on_c, 9, 35, 74
9, 19648, Note_on_c, 9, 35, 0
9, 19648, Note_on_c, 9, 51, 46
9, 19649, Note_on_c, 9, 51, 0
9, 19679, Note_on_c, 9, 37, 97
9, 19679, Note_on_c, 9, 35, 89
9, 19680, Note_on_c, 9, 37, 0
9, 19680, Note_on_c, 9, 35, 0
9, 19680, Note_on_c, 9, 51, 84
9, 19681, Note_on_c, 9, 51, 0
9, 19712, Note_on_c, 9, 51, 60
9, 19713, Note_on_c, 9, 51, 0
9, 19743, Note_on_c, 9, 35, 80
9, 19744, Note_on_c, 9, 35, 0
9, 19744, Note_on_c, 9, 51, 56
9, 19745, Note_on_c, 9, 51, 0
9, 19775, Note_on_c, 9, 37, 95
9, 19775, Note_on_c, 9, 51, 90
9, 19775, Note_on_c, 9, 35, 89
9, 19776, Note_on_c, 9, 37, 0
9, 19776, Note_on_c, 9, 51, 0
9, 19776, Note_on_c, 9, 35, 0
9, 19807, Note_on_c, 9, 51, 68
9, 19808, Note_on_c, 9, 51, 0
9, 19839, Note_on_c, 9, 51, 62
9, 19839, Note_on_c, 9, 35, 76
9, 19840, Note_on_c, 9, 51, 0
9, 19840, Note_on_c, 9, 35, 0
9, 19871, Note_on_c, 9, 37, 97
9, 19871, Note_on_c, 9, 51, 78
9, 19871, Note_on_c, 9, 35, 89
9, 19872, Note_on_c, 9, 37, 0
9, 19872, Note_on_c, 9, 51, 0
9, 19872, Note_on_c, 9, 35, 0
9, 19903, Note_on_c, 9, 51, 65
9, 19904, Note_on_c, 9, 51, 0
9, 19935, Note_on_c, 9, 51, 54
9, 19935, Note_on_c, 9, 35, 85
9, 19936, Note_on_c, 9, 51, 0
9, 19936, Note_on_c, 9, 35, 0
9, 19967, Note_on_c, 9, 51, 87
9, 19968, Note_on_c, 9, 51, 0
9, 19969, Note_on_c, 9, 37, 90
9, 19969, Note_on_c, 9, 35, 92
9, 19970, Note_on_c, 9, 37, 0
9, 19970, Note_on_c, 9, 35, 0
9, 20000, Note_on_c, 9, 51, 61
9, 20001, Note_on_c, 9, 51, 0
9, 20031, Note_on_c, 9, 51, 52
9, 20031, Note_on_c, 9, 35, 81
9, 20032, Note_on_c, 9, 51, 0
9, 20032, Note_on_c, 9, 35, 0
9, 20063, Note_on_c, 9, 37, 97
9, 20063, Note_on_c, 9, 51, 83
9, 20063, Note_on_c, 9, 35, 95
9, 20064, Note_on_c, 9, 37, 0
9, 20064, Note_on_c, 9, 51, 0
9, 20064, Note_on_c, 9, 35, 0
9, 20095, Note_on_c, 9, 51, 56
9, 20096, Note_on_c, 9, 51, 0
9, 20127, Note_on_c, 9, 51, 54
9, 20127, Note_on_c, 9, 35, 87
9, 20128, Note_on_c, 9, 51, 0
9, 20128, Note_on_c, 9, 35, 0
9, 20159, Note_on_c, 9, 37, 95
9, 20159, Note_on_c, 9, 51, 83
9, 20159, Note_on_c, 9, 35, 95
9, 20160, Note_on_c, 9, 37, 0
9, 20160, Note_on_c, 9, 51, 0
9, 20160, Note_on_c, 9, 35, 0
9, 20191, Note_on_c, 9, 51, 56
9, 20192, Note_on_c, 9, 51, 0
9, 20223, Note_on_c, 9, 51, 60
9, 20223, Note_on_c, 9, 35, 90
9, 20224, Note_on_c, 9, 51, 0
9, 20224, Note_on_c, 9, 35, 0
9, 20255, Note_on_c, 9, 51, 85
9, 20255, Note_on_c, 9, 35, 101
9, 20256, Note_on_c, 9, 51, 0
9, 20256, Note_on_c, 9, 35, 0
9, 20256, Note_on_c, 9, 37, 101
9, 20257, Note_on_c, 9, 37, 0
9, 20287, Note_on_c, 9, 37, 97
9, 20287, Note_on_c, 9, 51, 61
9, 20288, Note_on_c, 9, 37, 0
9, 20288, Note_on_c, 9, 51, 0
9, 20319, Note_on_c, 9, 51, 55
9, 20320, Note_on_c, 9, 51, 0
9, 20351, Note_on_c, 9, 37, 97
9, 20351, Note_on_c, 9, 35, 98
9, 20352, Note_on_c, 9, 37, 0
9, 20352, Note_on_c, 9, 35, 0
9, 20352, Note_on_c, 9, 51, 95
9, 20353, Note_on_c, 9, 51, 0
9, 20383, Note_on_c, 9, 37, 51
9, 20384, Note_on_c, 9, 37, 0
9, 20384, Note_on_c, 9, 51, 67
9, 20385, Note_on_c, 9, 51, 0
9, 20415, Note_on_c, 9, 37, 69
9, 20415, Note_on_c, 9, 51, 62
9, 20416, Note_on_c, 9, 37, 0
9, 20416, Note_on_c, 9, 51, 0
9, 20447, Note_on_c, 9, 37, 101
9, 20447, Note_on_c, 9, 51, 84
9, 20447, Note_on_c, 9, 35, 100
9, 20448, Note_on_c, 9, 37, 0
9, 20448, Note_on_c, 9, 51, 0
9, 20448, Note_on_c, 9, 35, 0
9, 20480, Note_on_c, 9, 37, 70
9, 20480, Note_on_c, 9, 51, 65
9, 20481, Note_on_c, 9, 37, 0
9, 20481, Note_on_c, 9, 51, 0
9, 20513, Note_on_c, 9, 37, 83
9, 20513, Note_on_c, 9, 51, 59
9, 20514, Note_on_c, 9, 37, 0
9, 20514, Note_on_c, 9, 51, 0
9, 20543, Note_on_c, 9, 35, 107
9, 20544, Note_on_c, 9, 35, 0
9, 20544, Note_on_c, 9, 37, 105
9, 20544, Note_on_c, 9, 51, 92
9, 20545, Note_on_c, 9, 37, 0
9, 20545, Note_on_c, 9, 51, 0
9, 20575, Note_on_c, 9, 51, 68
9, 20576, Note_on_c, 9, 51, 0
9, 20577, Note_on_c, 9, 37, 68
9, 20578, Note_on_c, 9, 37, 0
9, 20607, Note_on_c, 9, 37, 103
9, 20607, Note_on_c, 9, 51, 62
9, 20608, Note_on_c, 9, 37, 0
9, 20608, Note_on_c, 9, 51, 0
9, 20639, Note_on_c, 9, 45, 95
9, 20639, Note_on_c, 9, 46, 76
9, 20640, Note_on_c, 9, 45, 0
9, 20640, Note_on_c, 9, 46, 0
9, 20671, Note_on_c, 9, 43, 91
9, 20672, Note_on_c, 9, 43, 0
9, 20703, Note_on_c, 9, 41, 84
9, 20704, Note_on_c, 9, 41, 0
9, 20704, Note_on_c, 9, 42, 57
9, 20705, Note_on_c, 9, 42, 0
9, 20735, Note_on_c, 9, 35, 112
9, 20736, Note_on_c, 9, 35, 0
9, 20736, Note_on_c, 9, 51, 94
9, 20737, Note_on_c, 9, 51, 0
9, 20767, Note_on_c, 9, 51, 66
9, 20768, Note_on_c, 9, 51, 0
9, 20799, Note_on_c, 9, 35, 98
9, 20800, Note_on_c, 9, 35, 0
9, 20800, Note_on_c, 9, 51, 57
9, 20801, Note_on_c, 9, 51, 0
9, 20831, Note_on_c, 9, 37, 112
9, 20832, Note_on_c, 9, 37, 0
9, 20833, Note_on_c, 9, 51, 89
9, 20834, Note_on_c, 9, 51, 0
9, 20865, Note_on_c, 9, 51, 63
9, 20866, Note_on_c, 9, 51, 0
9, 20896, Note_on_c, 9, 51, 52
9, 20897, Note_on_c, 9, 51, 0
9, 20897, Note_on_c, 9, 35, 81
9, 20898, Note_on_c, 9, 35, 0
9, 20928, Note_on_c, 9, 51, 90
9, 20929, Note_on_c, 9, 51, 0
9, 20929, Note_on_c, 9, 35, 102
9, 20930, Note_on_c, 9, 35, 0
9, 20960, Note_on_c, 9, 51, 67
9, 20961, Note_on_c, 9, 51, 0
9, 20992, Note_on_c, 9, 51, 62
9, 20993, Note_on_c, 9, 51, 0
9, 20993, Note_on_c, 9, 35, 94
9, 20994, Note_on_c, 9, 35, 0
9, 21025, Note_on_c, 9, 37, 115
9, 21025, Note_on_c, 9, 51, 86
9, 21026, Note_on_c, 9, 37, 0
9, 21026, Note_on_c, 9, 51, 0
9, 21057, Note_on_c, 9, 51, 63
9, 21057, Note_on_c, 9, 35, 51
9, 21058, Note_on_c, 9, 51, 0
9, 21058, Note_on_c, 9, 35, 0
9, 21089, Note_on_c, 9, 51, 57
9, 21089, Note_on_c, 9, 35, 100
9, 21090, Note_on_c, 9, 51, 0
9, 21090, Note_on_c, 9, 35, 0
9, 21120, Note_on_c, 9, 51, 86
9, 21121, Note_on_c, 9, 51, 0
9, 21121, Note_on_c, 9, 35, 113
9, 21122, Note_on_c, 9, 35, 0
9, 21152, Note_on_c, 9, 51, 56
9, 21153, Note_on_c, 9, 51, 0
9, 21183, Note_on_c, 9, 35, 93
9, 21184, Note_on_c, 9, 35, 0
9, 21184, Note_on_c, 9, 51, 46
9, 21185, Note_on_c, 9, 51, 0
9, 21216, Note_on_c, 9, 37, 112
9, 21216, Note_on_c, 9, 51, 84
9, 21217, Note_on_c, 9, 37, 0
9, 21217, Note_on_c, 9, 51, 0
9, 21248, Note_on_c, 9, 51, 60
9, 21249, Note_on_c, 9, 51, 0
9, 21279, Note_on_c, 9, 35, 86
9, 21280, Note_on_c, 9, 35, 0
9, 21280, Note_on_c, 9, 51, 56
9, 21281, Note_on_c, 9, 51, 0
9, 21311, Note_on_c, 9, 51, 90
9, 21311, Note_on_c, 9, 35, 96
9, 21312, Note_on_c, 9, 51, 0
9, 21312, Note_on_c, 9, 35, 0
9, 21343, Note_on_c, 9, 51, 68
9, 21344, Note_on_c, 9, 51, 0
9, 21375, Note_on_c, 9, 51, 62
9, 21375, Note_on_c, 9, 35, 89
9, 21376, Note_on_c, 9, 51, 0
9, 21376, Note_on_c, 9, 35, 0
9, 21407, Note_on_c, 9, 51, 78
9, 21408, Note_on_c, 9, 51, 0
9, 21409, Note_on_c, 9, 37, 112
9, 21410, Note_on_c, 9, 37, 0
9, 21439, Note_on_c, 9, 51, 65
9, 21440, Note_on_c, 9, 51, 0
9, 21471, Note_on_c, 9, 51, 54
9, 21472, Note_on_c, 9, 51, 0
9, 21472, Note_on_c, 9, 35, 99
9, 21473, Note_on_c, 9, 35, 0
9, 21503, Note_on_c, 9, 51, 87
9, 21504, Note_on_c, 9, 51, 0
9, 21504, Note_on_c, 9, 35, 98
9, 21505, Note_on_c, 9, 35, 0
9, 21536, Note_on_c, 9, 51, 61
9, 21537, Note_on_c, 9, 51, 0
9, 21567, Note_on_c, 9, 51, 52
9, 21567, Note_on_c, 9, 35, 83
9, 21568, Note_on_c, 9, 51, 0
9, 21568, Note_on_c, 9, 35, 0
9, 21599, Note_on_c, 9, 37, 95
9, 21599, Note_on_c, 9, 51, 83
9, 21600, Note_on_c, 9, 37, 0
9, 21600, Note_on_c, 9, 51, 0
9, 21631, Note_on_c, 9, 51, 56
9, 21632, Note_on_c, 9, 51, 0
9, 21663, Note_on_c, 9, 51, 54
9, 21663, Note_on_c, 9, 35, 76
9, 21664, Note_on_c, 9, 51, 0
9, 21664, Note_on_c, 9, 35, 0
9, 21695, Note_on_c, 9, 51, 83
9, 21695, Note_on_c, 9, 35, 96
9, 21696, Note_on_c, 9, 51, 0
9, 21696, Note_on_c, 9, 35, 0
9, 21727, Note_on_c, 9, 51, 56
9, 21728, Note_on_c, 9, 51, 0
9, 21759, Note_on_c, 9, 51, 60
9, 21759, Note_on_c, 9, 35, 85
9, 21760, Note_on_c, 9, 51, 0
9, 21760, Note_on_c, 9, 35, 0
9, 21791, Note_on_c, 9, 37, 112
9, 21791, Note_on_c, 9, 51, 85
9, 21792, Note_on_c, 9, 37, 0
9, 21792, Note_on_c, 9, 51, 0
9, 21823, Note_on_c, 9, 51, 61
9, 21823, Note_on_c, 9, 35, 82
9, 21824, Note_on_c, 9, 51, 0
9, 21824, Note_on_c, 9, 35, 0
9, 21855, Note_on_c, 9, 51, 55
9, 21855, Note_on_c, 9, 35, 86
9, 21856, Note_on_c, 9, 51, 0
9, 21856, Note_on_c, 9, 35, 0
9, 21887, Note_on_c, 9, 35, 106
9, 21888, Note_on_c, 9, 35, 0
9, 21888, Note_on_c, 9, 51, 95
9, 21889, Note_on_c, 9, 51, 0
9, 21920, Note_on_c, 9, 51, 67
9, 21921, Note_on_c, 9, 51, 0
9, 21951, Note_on_c, 9, 51, 62
9, 21951, Note_on_c, 9, 35, 92
9, 21952, Note_on_c, 9, 51, 0
9, 21952, Note_on_c, 9, 35, 0
9, 21983, Note_on_c, 9, 37, 107
9, 21983, Note_on_c, 9, 51, 84
9, 21984, Note_on_c, 9, 37, 0
9, 21984, Note_on_c, 9, 51, 0
9, 22016, Note_on_c, 9, 51, 65
9, 22017, Note_on_c, 9, 51, 0
9, 22047, Note_on_c, 9, 35, 95
9, 22048, Note_on_c, 9, 35, 0
9, 22049, Note_on_c, 9, 51, 59
9, 22050, Note_on_c, 9, 51, 0
9, 22080, Note_on_c, 9, 51, 92
9, 22080, Note_on_c, 9, 35, 96
9, 22081, Note_on_c, 9, 51, 0
9, 22081, Note_on_c, 9, 35, 0
9, 22111, Note_on_c, 9, 51, 68
9, 22112, Note_on_c, 9, 51, 0
9, 22143, Note_on_c, 9, 51, 62
9, 22143, Note_on_c, 9, 35, 95
9, 22144, Note_on_c, 9, 51, 0
9, 22144, Note_on_c, 9, 35, 0
9, 22175, Note_on_c, 9, 51, 87
9, 22176, Note_on_c, 9, 51, 0
9, 22176, Note_on_c, 9, 37, 107
9, 22177, Note_on_c, 9, 37, 0
9, 22208, Note_on_c, 9, 51, 58
9, 22208, Note_on_c, 9, 35, 55
9, 22209, Note_on_c, 9, 51, 0
9, 22209, Note_on_c, 9, 35, 0
9, 22240, Note_on_c, 9, 51, 57
9, 22240, Note_on_c, 9, 35, 101
9, 22241, Note_on_c, 9, 51, 0
9, 22241, Note_on_c, 9, 35, 0
9, 22272, Note_on_c, 9, 51, 94
9, 22272, Note_on_c, 9, 35, 102
9, 22273, Note_on_c, 9, 51, 0
9, 22273, Note_on_c, 9, 35, 0
9, 22303, Note_on_c, 9, 51, 66
9, 22304, Note_on_c, 9, 51, 0
9, 22335, Note_on_c, 9, 35, 95
9, 22336, Note_on_c, 9, 35, 0
9, 22336, Note_on_c, 9, 51, 57
9, 22337, Note_on_c, 9, 51, 0
9, 22368, Note_on_c, 9, 37, 107
9, 22369, Note_on_c, 9, 37, 0
9, 22369, Note_on_c, 9, 51, 89
9, 22370, Note_on_c, 9, 51, 0
9, 22401, Note_on_c, 9, 51, 63
9, 22402, Note_on_c, 9, 51, 0
9, 22431, Note_on_c, 9, 35, 90
9, 22432, Note_on_c, 9, 35, 0
9, 22432, Note_on_c, 9, 51, 52
9, 22433, Note_on_c, 9, 51, 0
9, 22463, Note_on_c, 9, 35, 96
9, 22464, Note_on_c, 9, 35, 0
9, 22464, Note_on_c, 9, 51, 90
9, 22465, Note_on_c, 9, 51, 0
9, 22496, Note_on_c, 9, 51, 67
9, 22497, Note_on_c, 9, 51, 0
9, 22527, Note_on_c, 9, 35, 93
9, 22528, Note_on_c, 9, 35, 0
9, 22528, Note_on_c, 9, 51, 62
9, 22529, Note_on_c, 9, 51, 0
9, 22559, Note_on_c, 9, 37, 99
9, 22560, Note_on_c, 9, 37, 0
9, 22561, Note_on_c, 9, 51, 86
9, 22562, Note_on_c, 9, 51, 0
9, 22593, Note_on_c, 9, 51, 63
9, 22594, Note_on_c, 9, 51, 0
9, 22623, Note_on_c, 9, 35, 90
9, 22624, Note_on_c, 9, 35, 0
9, 22625, Note_on_c, 9, 51, 57
9, 22626, Note_on_c, 9, 51, 0
9, 22655, Note_on_c, 9, 35, 105
9, 22656, Note_on_c, 9, 35, 0
9, 22656, Note_on_c, 9, 51, 86
9, 22657, Note_on_c, 9, 51, 0
9, 22688, Note_on_c, 9, 51, 56
9, 22689, Note_on_c, 9, 51, 0
9, 22720, Note_on_c, 9, 51, 46
9, 22721, Note_on_c, 9, 51, 0
9, 22721, Note_on_c, 9, 35, 96
9, 22722, Note_on_c, 9, 35, 0
9, 22752, Note_on_c, 9, 51, 84
9, 22753, Note_on_c, 9, 51, 0
9, 22753, Note_on_c, 9, 37, 97
9, 22754, Note_on_c, 9, 37, 0
9, 22784, Note_on_c, 9, 51, 60
9, 22785, Note_on_c, 9, 51, 0
9, 22816, Note_on_c, 9, 51, 56
9, 22816, Note_on_c, 9, 35, 89
9, 22817, Note_on_c, 9, 51, 0
9, 22817, Note_on_c, 9, 35, 0
9, 22847, Note_on_c, 9, 51, 90
9, 22848, Note_on_c, 9, 51, 0
9, 22849, Note_on_c, 9, 35, 95
9, 22850, Note_on_c, 9, 35, 0
9, 22879, Note_on_c, 9, 51, 68
9, 22880, Note_on_c, 9, 51, 0
9, 22911, Note_on_c, 9, 51, 62
9, 22911, Note_on_c, 9, 35, 95
9, 22912, Note_on_c, 9, 51, 0
9, 22912, Note_on_c, 9, 35, 0
9, 22943, Note_on_c, 9, 37, 95
9, 22943, Note_on_c, 9, 51, 78
9, 22944, Note_on_c, 9, 37, 0
9, 22944, Note_on_c, 9, 51, 0
9, 22975, Note_on_c, 9, 51, 65
9, 22976, Note_on_c, 9, 51, 0
9, 23007, Note_on_c, 9, 51, 54
9, 23007, Note_on_c, 9, 35, 99
9, 23008, Note_on_c, 9, 51, 0
9, 23008, Note_on_c, 9, 35, 0
9, 23039, Note_on_c, 9, 51, 87
9, 23040, Note_on_c, 9, 51, 0
9, 23041, Note_on_c, 9, 35, 106
9, 23042, Note_on_c, 9, 35, 0
9, 23072, Note_on_c, 9, 51, 61
9, 23073, Note_on_c, 9, 51, 0
9, 23103, Note_on_c, 9, 51, 52
9, 23104, Note_on_c, 9, 51, 0
9, 23105, Note_on_c, 9, 35, 90
9, 23106, Note_on_c, 9, 35, 0
9, 23135, Note_on_c, 9, 51, 83
9, 23136, Note_on_c, 9, 51, 0
9, 23136, Note_on_c, 9, 37, 107
9, 23137, Note_on_c, 9, 37, 0
9, 23167, Note_on_c, 9, 51, 56
9, 23168, Note_on_c, 9, 51, 0
9, 23199, Note_on_c, 9, 51, 54
9, 23199, Note_on_c, 9, 35, 79
9, 23200, Note_on_c, 9, 51, 0
9, 23200, Note_on_c, 9, 35, 0
9, 23231, Note_on_c, 9, 51, 83
9, 23231, Note_on_c, 9, 35, 88
9, 23232, Note_on_c, 9, 51, 0
9, 23232, Note_on_c, 9, 35, 0
9, 23263, Note_on_c, 9, 51, 56
9, 23264, Note_on_c, 9, 51, 0
9, 23295, Note_on_c, 9, 51, 60
9, 23296, Note_on_c, 9, 51, 0
9, 23296, Note_on_c, 9, 35, 91
9, 23297, Note_on_c, 9, 35, 0
9, 23327, Note_on_c, 9, 37, 109
9, 23327, Note_on_c, 9, 51, 85
9, 23328, Note_on_c, 9, 37, 0
9, 23328, Note_on_c, 9, 51, 0
9, 23359, Note_on_c, 9, 51, 61
9, 23360, Note_on_c, 9, 51, 0
9, 23391, Note_on_c, 9, 51, 55
9, 23391, Note_on_c, 9, 35, 88
9, 23392, Note_on_c, 9, 51, 0
9, 23392, Note_on_c, 9, 35, 0
9, 23423, Note_on_c, 9, 35, 95
9, 23424, Note_on_c, 9, 35, 0
9, 23424, Note_on_c, 9, 43, 83
9, 23424, Note_on_c, 9, 55, 95
9, 23425, Note_on_c, 9, 43, 0
9, 23425, Note_on_c, 9, 55, 0
9, 23455, Note_on_c, 9, 43, 60
9, 23456, Note_on_c, 9, 43, 0
9, 23487, Note_on_c, 9, 43, 63
9, 23488, Note_on_c, 9, 43, 0
9, 23519, Note_on_c, 9, 44, 84
9, 23519, Note_on_c, 9, 35, 95
9, 23520, Note_on_c, 9, 44, 0
9, 23520, Note_on_c, 9, 35, 0
9, 23520, Note_on_c, 9, 43, 84
9, 23521, Note_on_c, 9, 43, 0
9, 23552, Note_on_c, 9, 43, 61
9, 23553, Note_on_c, 9, 43, 0
9, 23584, Note_on_c, 9, 43, 72
9, 23585, Note_on_c, 9, 43, 0
9, 23615, Note_on_c, 9, 43, 85
9, 23616, Note_on_c, 9, 43, 0
9, 23616, Note_on_c, 9, 44, 92
9, 23616, Note_on_c, 9, 35, 98
9, 23617, Note_on_c, 9, 44, 0
9, 23617, Note_on_c, 9, 35, 0
9, 23647, Note_on_c, 9, 37, 93
9, 23648, Note_on_c, 9, 37, 0
9, 23679, Note_on_c, 9, 37, 101
9, 23680, Note_on_c, 9, 37, 0
9, 23711, Note_on_c, 9, 43, 85
9, 23711, Note_on_c, 9, 44, 87
9, 23711, Note_on_c, 9, 35, 92
9, 23712, Note_on_c, 9, 43, 0
9, 23712, Note_on_c, 9, 44, 0
9, 23712, Note_on_c, 9, 35, 0
9, 23743, Note_on_c, 9, 43, 79
9, 23744, Note_on_c, 9, 43, 0
9, 23775, Note_on_c, 9, 41, 92
9, 23776, Note_on_c, 9, 41, 0
9, 23808, Note_on_c, 9, 37, 101
9, 23808, Note_on_c, 9, 55, 94
9, 23808, Note_on_c, 9, 35, 102
9, 23809, Note_on_c, 9, 37, 0
9, 23809, Note_on_c, 9, 55, 0
9, 23809, Note_on_c, 9, 35, 0
9, 23839, Note_on_c, 9, 51, 66
9, 23840, Note_on_c, 9, 51, 0
9, 23871, Note_on_c, 9, 35, 75
9, 23872, Note_on_c, 9, 35, 0
9, 23872, Note_on_c, 9, 51, 57
9, 23873, Note_on_c, 9, 51, 0
9, 23903, Note_on_c, 9, 37, 101
9, 23903, Note_on_c, 9, 35, 95
9, 23904, Note_on_c, 9, 37, 0
9, 23904, Note_on_c, 9, 35, 0
9, 23905, Note_on_c, 9, 51, 89
9, 23906, Note_on_c, 9, 51, 0
9, 23937, Note_on_c, 9, 51, 63
9, 23938, Note_on_c, 9, 51, 0
9, 23967, Note_on_c, 9, 35, 81
9, 23968, Note_on_c, 9, 35, 0
9, 23968, Note_on_c, 9, 51, 52
9, 23969, Note_on_c, 9, 51, 0
9, 23999, Note_on_c, 9, 37, 95
9, 23999, Note_on_c, 9, 35, 95
9, 24000, Note_on_c, 9, 37, 0
9, 24000, Note_on_c, 9, 35, 0
9, 24000, Note_on_c, 9, 51, 90
9, 24001, Note_on_c, 9, 51, 0
9, 24032, Note_on_c, 9, 51, 67
9, 24033, Note_on_c, 9, 51, 0
9, 24063, Note_on_c, 9, 35, 82
9, 24064, Note_on_c, 9, 35, 0
9, 24064, Note_on_c, 9, 51, 62
9, 24065, Note_on_c, 9, 51, 0
9, 24095, Note_on_c, 9, 37, 92
9, 24096, Note_on_c, 9, 37, 0
9, 24097, Note_on_c, 9, 51, 86
9, 24097, Note_on_c, 9, 35, 91
9, 24098, Note_on_c, 9, 51, 0
9, 24098, Note_on_c, 9, 35, 0
9, 24129, Note_on_c, 9, 51, 63
9, 24130, Note_on_c, 9, 51, 0
9, 24159, Note_on_c, 9, 35, 87
9, 24160, Note_on_c, 9, 35, 0
9, 24161, Note_on_c, 9, 51, 57
9, 24162, Note_on_c, 9, 51, 0
9, 24192, Note_on_c, 9, 51, 86
9, 24193, Note_on_c, 9, 51, 0
9, 24193, Note_on_c, 9, 37, 89
9, 24193, Note_on_c, 9, 35, 96
9, 24194, Note_on_c, 9, 37, 0
9, 24194, Note_on_c, 9, 35, 0
9, 24224, Note_on_c, 9, 51, 56
9, 24225, Note_on_c, 9, 51, 0
9, 24256, Note_on_c, 9, 51, 46
9, 24256, Note_on_c, 9, 35, 80
9, 24257, Note_on_c, 9, 51, 0
9, 24257, Note_on_c, 9, 35, 0
9, 24288, Note_on_c, 9, 51, 84
9, 24289, Note_on_c, 9, 51, 0
9, 24289, Note_on_c, 9, 37, 103
9, 24289, Note_on_c, 9, 35, 96
9, 24290, Note_on_c, 9, 37, 0
9, 24290, Note_on_c, 9, 35, 0
9, 24320, Note_on_c, 9, 51, 60
9, 24321, Note_on_c, 9, 51, 0
9, 24351, Note_on_c, 9, 35, 85
9, 24352, Note_on_c, 9, 35, 0
9, 24352, Note_on_c, 9, 51, 56
9, 24353, Note_on_c, 9, 51, 0
9, 24383, Note_on_c, 9, 37, 90
9, 24383, Note_on_c, 9, 51, 90
9, 24384, Note_on_c, 9, 37, 0
9, 24384, Note_on_c, 9, 51, 0
9, 24384, Note_on_c, 9, 35, 89
9, 24385, Note_on_c, 9, 35, 0
9, 24415, Note_on_c, 9, 51, 68
9, 24416, Note_on_c, 9, 51, 0
9, 24447, Note_on_c, 9, 51, 62
9, 24447, Note_on_c, 9, 35, 88
9, 24448, Note_on_c, 9, 51, 0
9, 24448, Note_on_c, 9, 35, 0
9, 24479, Note_on_c, 9, 37, 90
9, 24479, Note_on_c, 9, 51, 78
9, 24480, Note_on_c, 9, 37, 0
9, 24480, Note_on_c, 9, 51, 0
9, 24480, Note_on_c, 9, 35, 91
9, 24481, Note_on_c, 9, 35, 0
9, 24511, Note_on_c, 9, 51, 65
9, 24512, Note_on_c, 9, 51, 0
9, 24543, Note_on_c, 9, 51, 54
9, 24543, Note_on_c, 9, 35, 86
9, 24544, Note_on_c, 9, 51, 0
9, 24544, Note_on_c, 9, 35, 0
9, 24575, Note_on_c, 9, 51, 87
9, 24575, Note_on_c, 9, 35, 98
9, 24576, Note_on_c, 9, 51, 0
9, 24576, Note_on_c, 9, 35, 0
9, 24576, Note_on_c, 9, 37, 92
9, 24577, Note_on_c, 9, 37, 0
9, 24608, Note_on_c, 9, 51, 61
9, 24609, Note_on_c, 9, 51, 0
9, 24639, Note_on_c, 9, 51, 52
9, 24639, Note_on_c, 9, 35, 80
9, 24640, Note_on_c, 9, 51, 0
9, 24640, Note_on_c, 9, 35, 0
9, 24671, Note_on_c, 9, 37, 92
9, 24671, Note_on_c, 9, 51, 83
9, 24671, Note_on_c, 9, 35, 96
9, 24672, Note_on_c, 9, 37, 0
9, 24672, Note_on_c, 9, 51, 0
9, 24672, Note_on_c, 9, 35, 0
9, 24703, Note_on_c, 9, 51, 56
9, 24704, Note_on_c, 9, 51, 0
9, 24735, Note_on_c, 9, 51, 54
9, 24735, Note_on_c, 9, 35, 83
9, 24736, Note_on_c, 9, 51, 0
9, 24736, Note_on_c, 9, 35, 0
9, 24767, Note_on_c, 9, 37, 99
9, 24767, Note_on_c, 9, 51, 83
9, 24767, Note_on_c, 9, 35, 95
9, 24768, Note_on_c, 9, 37, 0
9, 24768, Note_on_c, 9, 51, 0
9, 24768, Note_on_c, 9, 35, 0
9, 24799, Note_on_c, 9, 51, 56
9, 24800, Note_on_c, 9, 51, 0
9, 24831, Note_on_c, 9, 51, 60
9, 24832, Note_on_c, 9, 51, 0
9, 24833, Note_on_c, 9, 35, 96
9, 24834, Note_on_c, 9, 35, 0
9, 24863, Note_on_c, 9, 46, 85
9, 24864, Note_on_c, 9, 46, 0
9, 24864, Note_on_c, 9, 37, 101
9, 24864, Note_on_c, 9, 35, 109
9, 24865, Note_on_c, 9, 37, 0
9, 24865, Note_on_c, 9, 35, 0
9, 24895, Note_on_c, 9, 41, 88
9, 24895, Note_on_c, 9, 45, 84
9, 24896, Note_on_c, 9, 41, 0
9, 24896, Note_on_c, 9, 45, 0
9, 24927, Note_on_c, 9, 44, 55
9, 24927, Note_on_c, 9, 35, 101
9, 24928, Note_on_c, 9, 44, 0
9, 24928, Note_on_c, 9, 35, 0
9, 24959, Note_on_c, 9, 35, 110
9, 24960, Note_on_c, 9, 35, 0
9, 24960, Note_on_c, 9, 51, 95
9, 24961, Note_on_c, 9, 51, 0
9, 24991, Note_on_c, 9, 37, 47
9, 24992, Note_on_c, 9, 37, 0
9, 24992, Note_on_c, 9, 51, 67
9, 24993, Note_on_c, 9, 51, 0
9, 25023, Note_on_c, 9, 37, 72
9, 25023, Note_on_c, 9, 51, 62
9, 25024, Note_on_c, 9, 37, 0
9, 25024, Note_on_c, 9, 51, 0
9, 25055, Note_on_c, 9, 37, 115
9, 25055, Note_on_c, 9, 51, 84
9, 25056, Note_on_c, 9, 37, 0
9, 25056, Note_on_c, 9, 51, 0
9, 25087, Note_on_c, 9, 37, 81
9, 25088, Note_on_c, 9, 37, 0
9, 25088, Note_on_c, 9, 51, 65
9, 25089, Note_on_c, 9, 51, 0
9, 25119, Note_on_c, 9, 37, 83
9, 25120, Note_on_c, 9, 37, 0
9, 25121, Note_on_c, 9, 51, 59
9, 25122, Note_on_c, 9, 51, 0
9, 25152, Note_on_c, 9, 37, 101
9, 25152, Note_on_c, 9, 51, 92
9, 25153, Note_on_c, 9, 37, 0
9, 25153, Note_on_c, 9, 51, 0
9, 25183, Note_on_c, 9, 51, 68
9, 25184, Note_on_c, 9, 51, 0
9, 25184, Note_on_c, 9, 37, 90
9, 25185, Note_on_c, 9, 37, 0
9, 25215, Note_on_c, 9, 37, 95
9, 25215, Note_on_c, 9, 51, 62
9, 25216, Note_on_c, 9, 37, 0
9, 25216, Note_on_c, 9, 51, 0
9, 25247, Note_on_c, 9, 43, 89
9, 25247, Note_on_c, 9, 51, 87
9, 25248, Note_on_c, 9, 43, 0
9, 25248, Note_on_c, 9, 51, 0
9, 25279, Note_on_c, 9, 43, 118
9, 25280, Note_on_c, 9, 43, 0
9, 25280, Note_on_c, 9, 51, 58
9, 25281, Note_on_c, 9, 51, 0
9, 25311, Note_on_c, 9, 35, 105
9, 25312, Note_on_c, 9, 35, 0
9, 25312, Note_on_c, 9, 51, 57
9, 25313, Note_on_c, 9, 51, 0
9, 25343, Note_on_c, 9, 35, 115
9, 25344, Note_on_c, 9, 35, 0
9, 25344, Note_on_c, 9, 51, 94
9, 25345, Note_on_c, 9, 51, 0
9, 25375, Note_on_c, 9, 51, 66
9, 25376, Note_on_c, 9, 51, 0
9, 25407, Note_on_c, 9, 35, 83
9, 25408, Note_on_c, 9, 35, 0
9, 25408, Note_on_c, 9, 51, 57
9, 25409, Note_on_c, 9, 51, 0
9, 25439, Note_on_c, 9, 37, 109
9, 25440, Note_on_c, 9, 37, 0
9, 25441, Note_on_c, 9, 51, 89
9, 25442, Note_on_c, 9, 51, 0
9, 25473, Note_on_c, 9, 51, 63
9, 25474, Note_on_c, 9, 51, 0
9, 25503, Note_on_c, 9, 35, 80
9, 25504, Note_on_c, 9, 35, 0
9, 25504, Note_on_c, 9, 51, 52
9, 25505, Note_on_c, 9, 51, 0
9, 25535, Note_on_c, 9, 35, 102
9, 25536, Note_on_c, 9, 35, 0
9, 25536, Note_on_c, 9, 51, 90
9, 25537, Note_on_c, 9, 51, 0
9, 25568, Note_on_c, 9, 51, 67
9, 25569, Note_on_c, 9, 51, 0
9, 25599, Note_on_c, 9, 35, 91
9, 25600, Note_on_c, 9, 35, 0
9, 25600, Note_on_c, 9, 51, 62
9, 25601, Note_on_c, 9, 51, 0
9, 25631, Note_on_c, 9, 37, 107
9, 25632, Note_on_c, 9, 37, 0
9, 25633, Note_on_c, 9, 51, 86
9, 25634, Note_on_c, 9, 51, 0
9, 25663, Note_on_c, 9, 35, 84
9, 25664, Note_on_c, 9, 35, 0
9, 25665, Note_on_c, 9, 51, 63
9, 25666, Note_on_c, 9, 51, 0
9, 25695, Note_on_c, 9, 35, 96
9, 25696, Note_on_c, 9, 35, 0
9, 25697, Note_on_c, 9, 51, 57
9, 25698, Note_on_c, 9, 51, 0
9, 25727, Note_on_c, 9, 35, 109
9, 25728, Note_on_c, 9, 35, 0
9, 25728, Note_on_c, 9, 51, 86
9, 25729, Note_on_c, 9, 51, 0
9, 25760, Note_on_c, 9, 51, 56
9, 25761, Note_on_c, 9, 51, 0
9, 25791, Note_on_c, 9, 35, 103
9, 25792, Note_on_c, 9, 35, 0
9, 25792, Note_on_c, 9, 51, 46
9, 25793, Note_on_c, 9, 51, 0
9, 25824, Note_on_c, 9, 51, 84
9, 25825, Note_on_c, 9, 51, 0
9, 25825, Note_on_c, 9, 37, 112
9, 25826, Note_on_c, 9, 37, 0
9, 25856, Note_on_c, 9, 51, 60
9, 25857, Note_on_c, 9, 51, 0
9, 25888, Note_on_c, 9, 51, 56
9, 25888, Note_on_c, 9, 35, 90
9, 25889, Note_on_c, 9, 51, 0
9, 25889, Note_on_c, 9, 35, 0
9, 25919, Note_on_c, 9, 51, 90
9, 25920, Note_on_c, 9, 51, 0
9, 25921, Note_on_c, 9, 35, 105
9, 25922, Note_on_c, 9, 35, 0
9, 25951, Note_on_c, 9, 51, 68
9, 25952, Note_on_c, 9, 51, 0
9, 25983, Note_on_c, 9, 51, 62
9, 25983, Note_on_c, 9, 35, 100
9, 25984, Note_on_c, 9, 51, 0
9, 25984, Note_on_c, 9, 35, 0
9, 26015, Note_on_c, 9, 37, 115
9, 26015, Note_on_c, 9, 51, 78
9, 26016, Note_on_c, 9, 37, 0
9, 26016, Note_on_c, 9, 51, 0
9, 26047, Note_on_c, 9, 51, 65
9, 26048, Note_on_c, 9, 51, 0
9, 26079, Note_on_c, 9, 51, 54
9, 26079, Note_on_c, 9, 35, 95
9, 26080, Note_on_c, 9, 51, 0
9, 26080, Note_on_c, 9, 35, 0
9, 26111, Note_on_c, 9, 51, 87
9, 26111, Note_on_c, 9, 35, 106
9, 26112, Note_on_c, 9, 51, 0
9, 26112, Note_on_c, 9, 35, 0
9, 26144, Note_on_c, 9, 51, 61
9, 26145, Note_on_c, 9, 51, 0
9, 26175, Note_on_c, 9, 51, 52
9, 26175, Note_on_c, 9, 35, 102
9, 26176, Note_on_c, 9, 51, 0
9, 26176, Note_on_c, 9, 35, 0
9, 26207, Note_on_c, 9, 51, 83
9, 26208, Note_on_c, 9, 51, 0
9, 26208, Note_on_c, 9, 37, 107
9, 26209, Note_on_c, 9, 37, 0
9, 26239, Note_on_c, 9, 51, 56
9, 26240, Note_on_c, 9, 51, 0
9, 26271, Note_on_c, 9, 51, 54
9, 26271, Note_on_c, 9, 35, 95
9, 26272, Note_on_c, 9, 51, 0
9, 26272, Note_on_c, 9, 35, 0
9, 26303, Note_on_c, 9, 51, 83
9, 26304, Note_on_c, 9, 51, 0
9, 26304, Note_on_c, 9, 35, 106
9, 26305, Note_on_c, 9, 35, 0
9, 26335, Note_on_c, 9, 51, 56
9, 26336, Note_on_c, 9, 51, 0
9, 26367, Note_on_c, 9, 51, 60
9, 26367, Note_on_c, 9, 35, 102
9, 26368, Note_on_c, 9, 51, 0
9, 26368, Note_on_c, 9, 35, 0
9, 26399, Note_on_c, 9, 37, 107
9, 26399, Note_on_c, 9, 51, 85
9, 26400, Note_on_c, 9, 37, 0
9, 26400, Note_on_c, 9, 51, 0
9, 26431, Note_on_c, 9, 51, 61
9, 26431, Note_on_c, 9, 35, 83
9, 26432, Note_on_c, 9, 51, 0
9, 26432, Note_on_c, 9, 35, 0
9, 26463, Note_on_c, 9, 51, 55
9, 26463, Note_on_c, 9, 35, 96
9, 26464, Note_on_c, 9, 51, 0
9, 26464, Note_on_c, 9, 35, 0
9, 26495, Note_on_c, 9, 35, 109
9, 26496, Note_on_c, 9, 35, 0
9, 26496, Note_on_c, 9, 51, 95
9, 26497, Note_on_c, 9, 51, 0
9, 26528, Note_on_c, 9, 51, 67
9, 26529, Note_on_c, 9, 51, 0
9, 26559, Note_on_c, 9, 51, 62
9, 26559, Note_on_c, 9, 35, 106
9, 26560, Note_on_c, 9, 51, 0
9, 26560, Note_on_c, 9, 35, 0
9, 26591, Note_on_c, 9, 51, 84
9, 26592, Note_on_c, 9, 51, 0
9, 26592, Note_on_c, 9, 37, 105
9, 26593, Note_on_c, 9, 37, 0
9, 26624, Note_on_c, 9, 51, 65
9, 26625, Note_on_c, 9, 51, 0
9, 26655, Note_on_c, 9, 35, 96
9, 26656, Note_on_c, 9, 35, 0
9, 26657, Note_on_c, 9, 51, 59
9, 26658, Note_on_c, 9, 51, 0
9, 26688, Note_on_c, 9, 51, 92
9, 26689, Note_on_c, 9, 51, 0
9, 26689, Note_on_c, 9, 35, 103
9, 26690, Note_on_c, 9, 35, 0
9, 26719, Note_on_c, 9, 51, 68
9, 26720, Note_on_c, 9, 51, 0
9, 26751, Note_on_c, 9, 51, 62
9, 26751, Note_on_c, 9, 35, 105
9, 26752, Note_on_c, 9, 51, 0
9, 26752, Note_on_c, 9, 35, 0
9, 26783, Note_on_c, 9, 37, 121
9, 26783, Note_on_c, 9, 51, 87
9, 26784, Note_on_c, 9, 37, 0
9, 26784, Note_on_c, 9, 51, 0
9, 26815, Note_on_c, 9, 35, 86
9, 26816, Note_on_c, 9, 35, 0
9, 26816, Note_on_c, 9, 51, 58
9, 26817, Note_on_c, 9, 51, 0
9, 26847, Note_on_c, 9, 35, 95
9, 26848, Note_on_c, 9, 35, 0
9, 26848, Note_on_c, 9, 51, 57
9, 26849, Note_on_c, 9, 51, 0
9, 26880, Note_on_c, 9, 51, 94
9, 26881, Note_on_c, 9, 51, 0
9, 26881, Note_on_c, 9, 35, 107
9, 26882, Note_on_c, 9, 35, 0
9, 26911, Note_on_c, 9, 51, 66
9, 26912, Note_on_c, 9, 51, 0
9, 26944, Note_on_c, 9, 51, 57
9, 26944, Note_on_c, 9, 35, 102
9, 26945, Note_on_c, 9, 51, 0
9, 26945, Note_on_c, 9, 35, 0
9, 26977, Note_on_c, 9, 37, 101
9, 26977, Note_on_c, 9, 51, 89
9, 26978, Note_on_c, 9, 37, 0
9, 26978, Note_on_c, 9, 51, 0
9, 27009, Note_on_c, 9, 51, 63
9, 27010, Note_on_c, 9, 51, 0
9, 27039, Note_on_c, 9, 35, 95
9, 27040, Note_on_c, 9, 35, 0
9, 27040, Note_on_c, 9, 51, 52
9, 27041, Note_on_c, 9, 51, 0
9, 27072, Note_on_c, 9, 51, 90
9, 27073, Note_on_c, 9, 51, 0
9, 27073, Note_on_c, 9, 35, 103
9, 27074, Note_on_c, 9, 35, 0
9, 27104, Note_on_c, 9, 51, 67
9, 27105, Note_on_c, 9, 51, 0
9, 27135, Note_on_c, 9, 35, 102
9, 27136, Note_on_c, 9, 35, 0
9, 27136, Note_on_c, 9, 51, 62
9, 27137, Note_on_c, 9, 51, 0
9, 27169, Note_on_c, 9, 37, 105
9, 27169, Note_on_c, 9, 51, 86
9, 27170, Note_on_c, 9, 37, 0
9, 27170, Note_on_c, 9, 51, 0
9, 27199, Note_on_c, 9, 35, 90
9, 27200, Note_on_c, 9, 35, 0
9, 27201, Note_on_c, 9, 51, 63
9, 27202, Note_on_c, 9, 51, 0
9, 27231, Note_on_c, 9, 35, 96
9, 27232, Note_on_c, 9, 35, 0
9, 27233, Note_on_c, 9, 51, 57
9, 27234, Note_on_c, 9, 51, 0
9, 27263, Note_on_c, 9, 35, 105
9, 27264, Note_on_c, 9, 35, 0
9, 27264, Note_on_c, 9, 51, 86
9, 27265, Note_on_c, 9, 51, 0
9, 27296, Note_on_c, 9, 51, 56
9, 27297, Note_on_c, 9, 51, 0
9, 27327, Note_on_c, 9, 35, 107
9, 27328, Note_on_c, 9, 35, 0
9, 27328, Note_on_c, 9, 51, 46
9, 27329, Note_on_c, 9, 51, 0
9, 27360, Note_on_c, 9, 37, 99
9, 27360, Note_on_c, 9, 51, 84
9, 27361, Note_on_c, 9, 37, 0
9, 27361, Note_on_c, 9, 51, 0
9, 27392, Note_on_c, 9, 51, 60
9, 27393, Note_on_c, 9, 51, 0
9, 27423, Note_on_c, 9, 35, 102
9, 27424, Note_on_c, 9, 35, 0
9, 27424, Note_on_c, 9, 51, 56
9, 27425, Note_on_c, 9, 51, 0
9, 27455, Note_on_c, 9, 51, 90
9, 27455, Note_on_c, 9, 35, 96
9, 27456, Note_on_c, 9, 51, 0
9, 27456, Note_on_c, 9, 35, 0
9, 27487, Note_on_c, 9, 51, 68
9, 27488, Note_on_c, 9, 51, 0
9, 27519, Note_on_c, 9, 51, 62
9, 27519, Note_on_c, 9, 35, 105
9, 27520, Note_on_c, 9, 51, 0
9, 27520, Note_on_c, 9, 35, 0
9, 27551, Note_on_c, 9, 51, 78
9, 27552, Note_on_c, 9, 51, 0
9, 27552, Note_on_c, 9, 37, 107
9, 27553, Note_on_c, 9, 37, 0
9, 27583, Note_on_c, 9, 51, 65
9, 27584, Note_on_c, 9, 51, 0
9, 27615, Note_on_c, 9, 51, 54
9, 27615, Note_on_c, 9, 35, 106
9, 27616, Note_on_c, 9, 51, 0
9, 27616, Note_on_c, 9, 35, 0
9, 27647, Note_on_c, 9, 40, 106
9, 27647, Note_on_c, 9, 51, 87
9, 27648, Note_on_c, 9, 40, 0
9, 27648, Note_on_c, 9, 51, 0
9, 27680, Note_on_c, 9, 51, 61
9, 27681, Note_on_c, 9, 51, 0
9, 27711, Note_on_c, 9, 51, 52
9, 27711, Note_on_c, 9, 35, 95
9, 27712, Note_on_c, 9, 51, 0
9, 27712, Note_on_c, 9, 35, 0
9, 27743, Note_on_c, 9, 40, 110
9, 27743, Note_on_c, 9, 51, 83
9, 27744, Note_on_c, 9, 40, 0
9, 27744, Note_on_c, 9, 51, 0
9, 27775, Note_on_c, 9, 51, 56
9, 27776, Note_on_c, 9, 51, 0
9, 27807, Note_on_c, 9, 51, 54
9, 27807, Note_on_c, 9, 35, 95
9, 27808, Note_on_c, 9, 51, 0
9, 27808, Note_on_c, 9, 35, 0
9, 27839, Note_on_c, 9, 51, 83
9, 27840, Note_on_c, 9, 51, 0
9, 27840, Note_on_c, 9, 40, 116
9, 27841, Note_on_c, 9, 40, 0
9, 27871, Note_on_c, 9, 51, 56
9, 27872, Note_on_c, 9, 51, 0
9, 27903, Note_on_c, 9, 51, 60
9, 27903, Note_on_c, 9, 35, 95
9, 27904, Note_on_c, 9, 51, 0
9, 27904, Note_on_c, 9, 35, 0
9, 27935, Note_on_c, 9, 51, 85
9, 27936, Note_on_c, 9, 51, 0
9, 27937, Note_on_c, 9, 40, 120
9, 27938, Note_on_c, 9, 40, 0
9, 27967, Note_on_c, 9, 51, 61
9, 27968, Note_on_c, 9, 51, 0
9, 27999, Note_on_c, 9, 51, 55
9, 27999, Note_on_c, 9, 35, 101
9, 28000, Note_on_c, 9, 51, 0
9, 28000, Note_on_c, 9, 35, 0
9, 28031, Note_on_c, 9, 35, 102
9, 28032, Note_on_c, 9, 35, 0
9, 28032, Note_on_c, 9, 55, 95
9, 28033, Note_on_c, 9, 55, 0
9, 28063, Note_on_c, 9, 40, 111
9, 28064, Note_on_c, 9, 40, 0
9, 28069, Note_on_c, 9, 40, 73
9, 28070, Note_on_c, 9, 40, 0
9, 28074, Note_on_c, 9, 40, 38
9, 28075, Note_on_c, 9, 40, 0
9, 28079, Note_on_c, 9, 40, 51
9, 28080, Note_on_c, 9, 40, 0
9, 28085, Note_on_c, 9, 40, 51
9, 28086, Note_on_c, 9, 40, 0
9, 28091, Note_on_c, 9, 40, 70
9, 28092, Note_on_c, 9, 40, 0
9, 28095, Note_on_c, 9, 35, 85
9, 28096, Note_on_c, 9, 35, 0
9, 28127, Note_on_c, 9, 57, 92
9, 28128, Note_on_c, 9, 57, 0
9, 28129, Note_on_c, 9, 35, 121
9, 28130, Note_on_c, 9, 35, 0
9, 28192, Note_on_c, 9, 35, 126
9, 28193, Note_on_c, 9, 35, 0
9, 28193, Note_on_c, 9, 49, 72
9, 28194, Note_on_c, 9, 49, 0
9, 28255, Note_on_c, 9, 40, 50
9, 28256, Note_on_c, 9, 40, 0
9, 28261, Note_on_c, 9, 40, 46
9, 28262, Note_on_c, 9, 40, 0
9, 28266, Note_on_c, 9, 40, 41
9, 28267, Note_on_c, 9, 40, 0
9, 28271, Note_on_c, 9, 40, 44
9, 28272, Note_on_c, 9, 40, 0
9, 28277, Note_on_c, 9, 40, 44
9, 28278, Note_on_c, 9, 40, 0
9, 28283, Note_on_c, 9, 40, 48
9, 28284, Note_on_c, 9, 40, 0
9, 28289, Note_on_c, 9, 40, 53
9, 28290, Note_on_c, 9, 40, 0
9, 28295, Note_on_c, 9, 40, 51
9, 28296, Note_on_c, 9, 40, 0
9, 28300, Note_on_c, 9, 40, 45
9, 28301, Note_on_c, 9, 40, 0
9, 28305, Note_on_c, 9, 40, 48
9, 28306, Note_on_c, 9, 40, 0
9, 28311, Note_on_c, 9, 40, 48
9, 28312, Note_on_c, 9, 40, 0
9, 28317, Note_on_c, 9, 40, 53
9, 28318, Note_on_c, 9, 40, 0
9, 28323, Note_on_c, 9, 40, 56
9, 28324, Note_on_c, 9, 40, 0
9, 28329, Note_on_c, 9, 40, 56
9, 28330, Note_on_c, 9, 40, 0
9, 28334, Note_on_c, 9, 40, 50
9, 28335, Note_on_c, 9, 40, 0
9, 28339, Note_on_c, 9, 40, 53
9, 28340, Note_on_c, 9, 40, 0
9, 28345, Note_on_c, 9, 40, 54
9, 28346, Note_on_c, 9, 40, 0
9, 28351, Note_on_c, 9, 40, 59
9, 28352, Note_on_c, 9, 40, 0
9, 28357, Note_on_c, 9, 40, 64
9, 28358, Note_on_c, 9, 40, 0
9, 28363, Note_on_c, 9, 40, 61
9, 28364, Note_on_c, 9, 40, 0
9, 28368, Note_on_c, 9, 40, 55
9, 28369, Note_on_c, 9, 40, 0
9, 28373, Note_on_c, 9, 40, 58
9, 28374, Note_on_c, 9, 40, 0
9, 28379, Note_on_c, 9, 40, 58
9, 28380, Note_on_c, 9, 40, 0
9, 28385, Note_on_c, 9, 40, 65
9, 28386, Note_on_c, 9, 40, 0
9, 28391, Note_on_c, 9, 40, 70
9, 28392, Note_on_c, 9, 40, 0
9, 28397, Note_on_c, 9, 40, 67
9, 28398, Note_on_c, 9, 40, 0
9, 28402, Note_on_c, 9, 40, 59
9, 28403, Note_on_c, 9, 40, 0
9, 28407, Note_on_c, 9, 40, 63
9, 28408, Note_on_c, 9, 40, 0
9, 28413, Note_on_c, 9, 40, 64
9, 28414, Note_on_c, 9, 40, 0
9, 28416, Note_on_c, 9, 46, 69
9, 28416, Note_on_c, 9, 35, 80
9, 28417, Note_on_c, 9, 46, 0
9, 28417, Note_on_c, 9, 35, 0
9, 28432, Note_on_c, 9, 44, 53
9, 28433, Note_on_c, 9, 44, 0
9, 28433, End_track
0, 0, End_of_file
