0, 0, Header, 1, 13, 192
1, 0, Start_track
1, 0, Time_signature, 4, 2, 24, 8
1, 0, Tempo, 555555
1, 262143, End_track
2, 0, Start_track
2, 0, Text_t, "Piano   "
2, 32, System_exclusive, 10, 65, 16, 66, 18, 64, 0, 127, 0, 65, 247
2, 107, System_exclusive, 25, 65, 16, 66, 18, 64, 1, 16, 2, 6, 2, 0, 1, 2, 0, 1, 1, 2, 0, 0, 0, 3, 3, 0, 24, 247
2, 148, System_exclusive, 10, 65, 16, 66, 18, 64, 1, 48, 0, 15, 247
2, 179, System_exclusive, 10, 65, 16, 66, 18, 64, 0, 4, 127, 61, 247
2, 226, System_exclusive, 10, 65, 16, 66, 18, 64, 1, 51, 100, 40, 247
2, 285, System_exclusive, 10, 65, 16, 66, 18, 64, 1, 56, 2, 5, 247
2, 358, System_exclusive, 10, 65, 16, 66, 18, 64, 1, 58, 100, 33, 247
2, 432, System_exclusive, 25, 65, 16, 66, 18, 64, 1, 0, 45, 77, 73, 68, 73, 83, 79, 70, 84, 32, 83, 79, 78, 71, 83, 45, 92, 247
2, 9984, Program_c, 0, 1
2, 10032, Control_c, 0, 7, 115
2, 10080, Control_c, 0, 10, 54
2, 10128, Control_c, 0, 91, 80
2, 10176, Control_c, 0, 93, 0
2, 10752, Note_on_c, 0, 39, 115
2, 10861, Note_off_c, 0, 39, 115
2, 10944, Note_on_c, 0, 39, 115
2, 10991, Note_off_c, 0, 39, 115
2, 10992, Note_on_c, 0, 51, 113
2, 11030, Note_off_c, 0, 51, 113
2, 11040, Note_on_c, 0, 58, 117
2, 11040, Note_on_c, 0, 63, 109
2, 11040, Note_on_c, 0, 66, 109
2, 11087, Note_off_c, 0, 58, 117
2, 11096, Note_off_c, 0, 66, 109
2, 11105, Note_off_c, 0, 63, 109
2, 11136, Note_on_c, 0, 58, 113
2, 11136, Note_on_c, 0, 62, 115
2, 11136, Note_on_c, 0, 66, 109
2, 11245, Note_off_c, 0, 58, 113
2, 11248, Note_off_c, 0, 66, 109
2, 11257, Note_off_c, 0, 62, 115
2, 11280, Note_on_c, 0, 58, 115
2, 11280, Note_on_c, 0, 62, 107
2, 11280, Note_on_c, 0, 66, 111
2, 11378, Note_off_c, 0, 58, 115
2, 11383, Note_off_c, 0, 66, 111
2, 11388, Note_off_c, 0, 62, 107
2, 11424, Note_on_c, 0, 58, 109
2, 11424, Note_on_c, 0, 62, 115
2, 11424, Note_on_c, 0, 66, 109
2, 11459, Note_off_c, 0, 58, 109
2, 11465, Note_off_c, 0, 62, 115
2, 11472, Note_off_c, 0, 66, 109
2, 11520, Note_on_c, 0, 39, 115
2, 11633, Note_off_c, 0, 39, 115
2, 11712, Note_on_c, 0, 39, 113
2, 11759, Note_off_c, 0, 39, 113
2, 11760, Note_on_c, 0, 51, 111
2, 11801, Note_off_c, 0, 51, 111
2, 11808, Note_on_c, 0, 58, 113
2, 11808, Note_on_c, 0, 61, 109
2, 11808, Note_on_c, 0, 66, 107
2, 11848, Note_off_c, 0, 58, 113
2, 11851, Note_off_c, 0, 66, 107
2, 11865, Note_off_c, 0, 61, 109
2, 11904, Note_on_c, 0, 56, 117
2, 11904, Note_on_c, 0, 60, 113
2, 11904, Note_on_c, 0, 66, 111
2, 12010, Note_off_c, 0, 66, 111
2, 12013, Note_off_c, 0, 56, 117
2, 12026, Note_off_c, 0, 60, 113
2, 12048, Note_on_c, 0, 56, 115
2, 12048, Note_on_c, 0, 60, 87
2, 12048, Note_on_c, 0, 66, 113
2, 12127, Note_off_c, 0, 66, 113
2, 12131, Note_off_c, 0, 56, 115
2, 12144, Note_off_c, 0, 60, 87
2, 12192, Note_on_c, 0, 56, 113
2, 12192, Note_on_c, 0, 60, 113
2, 12192, Note_on_c, 0, 66, 109
2, 12237, Note_off_c, 0, 56, 113
2, 12249, Note_off_c, 0, 60, 113
2, 12252, Note_off_c, 0, 66, 109
2, 12288, Note_on_c, 0, 42, 115
2, 12397, Note_off_c, 0, 42, 115
2, 12480, Note_on_c, 0, 42, 111
2, 12527, Note_off_c, 0, 42, 111
2, 12528, Note_on_c, 0, 54, 109
2, 12569, Note_off_c, 0, 54, 109
2, 12576, Note_on_c, 0, 56, 113
2, 12576, Note_on_c, 0, 59, 117
2, 12576, Note_on_c, 0, 64, 117
2, 12610, Note_off_c, 0, 56, 113
2, 12614, Note_off_c, 0, 59, 117
2, 12616, Note_off_c, 0, 64, 117
2, 12672, Note_on_c, 0, 56, 115
2, 12672, Note_on_c, 0, 59, 117
2, 12672, Note_on_c, 0, 64, 119
2, 12773, Note_off_c, 0, 64, 119
2, 12778, Note_off_c, 0, 56, 115
2, 12783, Note_off_c, 0, 59, 117
2, 12816, Note_on_c, 0, 56, 113
2, 12816, Note_on_c, 0, 59, 111
2, 12816, Note_on_c, 0, 64, 117
2, 12904, Note_off_c, 0, 64, 117
2, 12905, Note_off_c, 0, 56, 113
2, 12911, Note_off_c, 0, 59, 111
2, 12960, Note_on_c, 0, 56, 113
2, 12960, Note_on_c, 0, 59, 113
2, 12960, Note_on_c, 0, 64, 119
2, 13014, Note_off_c, 0, 56, 113
2, 13028, Note_off_c, 0, 59, 113
2, 13029, Note_off_c, 0, 64, 119
2, 13056, Note_on_c, 0, 54, 107
2, 13056, Note_on_c, 0, 58, 111
2, 13056, Note_on_c, 0, 63, 113
2, 13180, Note_off_c, 0, 54, 107
2, 13181, Note_off_c, 0, 63, 113
2, 13190, Note_off_c, 0, 58, 111
2, 13248, Note_on_c, 0, 54, 113
2, 13248, Note_on_c, 0, 58, 111
2, 13248, Note_on_c, 0, 63, 111
2, 13339, Note_off_c, 0, 63, 111
2, 13344, Note_off_c, 0, 54, 113
2, 13354, Note_off_c, 0, 58, 111
2, 13392, Note_on_c, 0, 58, 117
2, 13392, Note_on_c, 0, 62, 119
2, 13392, Note_on_c, 0, 66, 113
2, 13392, Note_on_c, 0, 70, 113
2, 13488, Note_off_c, 0, 62, 119
2, 13489, Note_off_c, 0, 66, 113
2, 13489, Note_off_c, 0, 58, 117
2, 13490, Note_off_c, 0, 70, 113
2, 13536, Note_on_c, 0, 58, 119
2, 13536, Note_on_c, 0, 62, 115
2, 13536, Note_on_c, 0, 66, 111
2, 13536, Note_on_c, 0, 70, 113
2, 13606, Note_off_c, 0, 62, 115
2, 13608, Note_off_c, 0, 66, 111
2, 13616, Note_off_c, 0, 58, 119
2, 13620, Note_off_c, 0, 70, 113
2, 13632, Note_on_c, 0, 46, 113
2, 13679, Note_off_c, 0, 46, 113
2, 13680, Note_on_c, 0, 58, 115
2, 13721, Note_off_c, 0, 58, 115
2, 13728, Note_on_c, 0, 38, 117
2, 13823, Note_off_c, 0, 38, 117
2, 13824, Note_on_c, 0, 39, 113
2, 13933, Note_off_c, 0, 39, 113
2, 14016, Note_on_c, 0, 39, 115
2, 14063, Note_off_c, 0, 39, 115
2, 14064, Note_on_c, 0, 51, 113
2, 14102, Note_off_c, 0, 51, 113
2, 14112, Note_on_c, 0, 58, 117
2, 14112, Note_on_c, 0, 63, 109
2, 14112, Note_on_c, 0, 66, 109
2, 14159, Note_off_c, 0, 58, 117
2, 14168, Note_off_c, 0, 66, 109
2, 14177, Note_off_c, 0, 63, 109
2, 14208, Note_on_c, 0, 58, 113
2, 14208, Note_on_c, 0, 62, 115
2, 14208, Note_on_c, 0, 66, 109
2, 14317, Note_off_c, 0, 58, 113
2, 14320, Note_off_c, 0, 66, 109
2, 14329, Note_off_c, 0, 62, 115
2, 14352, Note_on_c, 0, 58, 115
2, 14352, Note_on_c, 0, 62, 107
2, 14352, Note_on_c, 0, 66, 111
2, 14450, Note_off_c, 0, 58, 115
2, 14455, Note_off_c, 0, 66, 111
2, 14460, Note_off_c, 0, 62, 107
2, 14496, Note_on_c, 0, 58, 109
2, 14496, Note_on_c, 0, 62, 115
2, 14496, Note_on_c, 0, 66, 109
2, 14531, Note_off_c, 0, 58, 109
2, 14537, Note_off_c, 0, 62, 115
2, 14544, Note_off_c, 0, 66, 109
2, 14592, Note_on_c, 0, 39, 115
2, 14705, Note_off_c, 0, 39, 115
2, 14784, Note_on_c, 0, 39, 113
2, 14831, Note_off_c, 0, 39, 113
2, 14832, Note_on_c, 0, 51, 111
2, 14873, Note_off_c, 0, 51, 111
2, 14880, Note_on_c, 0, 58, 113
2, 14880, Note_on_c, 0, 61, 109
2, 14880, Note_on_c, 0, 66, 107
2, 14920, Note_off_c, 0, 58, 113
2, 14923, Note_off_c, 0, 66, 107
2, 14937, Note_off_c, 0, 61, 109
2, 14976, Note_on_c, 0, 56, 117
2, 14976, Note_on_c, 0, 60, 113
2, 14976, Note_on_c, 0, 66, 111
2, 15082, Note_off_c, 0, 66, 111
2, 15085, Note_off_c, 0, 56, 117
2, 15098, Note_off_c, 0, 60, 113
2, 15120, Note_on_c, 0, 56, 115
2, 15120, Note_on_c, 0, 60, 87
2, 15120, Note_on_c, 0, 66, 113
2, 15199, Note_off_c, 0, 66, 113
2, 15203, Note_off_c, 0, 56, 115
2, 15216, Note_off_c, 0, 60, 87
2, 15264, Note_on_c, 0, 56, 113
2, 15264, Note_on_c, 0, 60, 113
2, 15264, Note_on_c, 0, 66, 109
2, 15309, Note_off_c, 0, 56, 113
2, 15321, Note_off_c, 0, 60, 113
2, 15324, Note_off_c, 0, 66, 109
2, 15360, Note_on_c, 0, 42, 115
2, 15469, Note_off_c, 0, 42, 115
2, 15552, Note_on_c, 0, 42, 111
2, 15599, Note_off_c, 0, 42, 111
2, 15600, Note_on_c, 0, 54, 109
2, 15641, Note_off_c, 0, 54, 109
2, 15648, Note_on_c, 0, 56, 113
2, 15648, Note_on_c, 0, 59, 117
2, 15648, Note_on_c, 0, 64, 117
2, 15682, Note_off_c, 0, 56, 113
2, 15686, Note_off_c, 0, 59, 117
2, 15688, Note_off_c, 0, 64, 117
2, 15744, Note_on_c, 0, 56, 115
2, 15744, Note_on_c, 0, 59, 117
2, 15744, Note_on_c, 0, 64, 119
2, 15845, Note_off_c, 0, 64, 119
2, 15850, Note_off_c, 0, 56, 115
2, 15855, Note_off_c, 0, 59, 117
2, 15888, Note_on_c, 0, 56, 113
2, 15888, Note_on_c, 0, 59, 111
2, 15888, Note_on_c, 0, 64, 117
2, 15976, Note_off_c, 0, 64, 117
2, 15977, Note_off_c, 0, 56, 113
2, 15983, Note_off_c, 0, 59, 111
2, 16032, Note_on_c, 0, 56, 113
2, 16032, Note_on_c, 0, 59, 113
2, 16032, Note_on_c, 0, 64, 119
2, 16086, Note_off_c, 0, 56, 113
2, 16100, Note_off_c, 0, 59, 113
2, 16101, Note_off_c, 0, 64, 119
2, 16128, Note_on_c, 0, 54, 109
2, 16128, Note_on_c, 0, 58, 109
2, 16128, Note_on_c, 0, 63, 113
2, 16213, Note_off_c, 0, 63, 113
2, 16240, Note_off_c, 0, 58, 109
2, 16246, Note_off_c, 0, 54, 109
2, 16320, Note_on_c, 0, 54, 113
2, 16320, Note_on_c, 0, 58, 111
2, 16320, Note_on_c, 0, 63, 115
2, 16439, Note_off_c, 0, 54, 113
2, 16440, Note_off_c, 0, 58, 111
2, 16451, Note_off_c, 0, 63, 115
2, 16464, Note_on_c, 0, 54, 109
2, 16464, Note_on_c, 0, 58, 107
2, 16464, Note_on_c, 0, 63, 109
2, 16562, Note_off_c, 0, 58, 107
2, 16563, Note_off_c, 0, 54, 109
2, 16575, Note_off_c, 0, 63, 109
2, 16608, Note_on_c, 0, 54, 107
2, 16608, Note_on_c, 0, 58, 107
2, 16608, Note_on_c, 0, 63, 111
2, 16679, Note_off_c, 0, 54, 107
2, 16682, Note_off_c, 0, 58, 107
2, 16684, Note_off_c, 0, 63, 111
2, 16704, Note_on_c, 0, 54, 111
2, 16704, Note_on_c, 0, 58, 113
2, 16704, Note_on_c, 0, 63, 117
2, 16768, Note_off_c, 0, 54, 111
2, 16771, Note_off_c, 0, 63, 117
2, 16772, Note_off_c, 0, 58, 113
2, 16800, Note_on_c, 0, 54, 111
2, 16800, Note_on_c, 0, 58, 113
2, 16800, Note_on_c, 0, 63, 113
2, 16845, Note_off_c, 0, 63, 113
2, 16849, Note_off_c, 0, 54, 111
2, 16853, Note_off_c, 0, 58, 113
2, 16896, Note_on_c, 0, 52, 117
2, 16896, Note_on_c, 0, 56, 113
2, 16896, Note_on_c, 0, 62, 117
2, 16947, Note_off_c, 0, 56, 113
2, 16952, Note_off_c, 0, 52, 117
2, 16954, Note_off_c, 0, 62, 117
2, 17088, Note_on_c, 0, 52, 119
2, 17088, Note_on_c, 0, 56, 111
2, 17088, Note_on_c, 0, 62, 117
2, 17130, Note_off_c, 0, 52, 119
2, 17132, Note_off_c, 0, 56, 111
2, 17141, Note_off_c, 0, 62, 117
2, 17232, Note_on_c, 0, 52, 113
2, 17232, Note_on_c, 0, 56, 113
2, 17232, Note_on_c, 0, 62, 117
2, 17278, Note_off_c, 0, 56, 113
2, 17278, Note_off_c, 0, 52, 113
2, 17285, Note_off_c, 0, 62, 117
2, 17376, Note_on_c, 0, 52, 117
2, 17376, Note_on_c, 0, 56, 113
2, 17376, Note_on_c, 0, 62, 117
2, 17471, Note_off_c, 0, 52, 117
2, 17491, Note_off_c, 0, 56, 113
2, 17492, Note_off_c, 0, 62, 117
2, 17568, Note_on_c, 0, 40, 111
2, 17568, Note_on_c, 0, 56, 117
2, 17568, Note_on_c, 0, 62, 119
2, 17616, Note_on_c, 0, 52, 115
2, 17629, Note_off_c, 0, 40, 111
2, 17642, Note_off_c, 0, 56, 117
2, 17652, Note_off_c, 0, 62, 119
2, 17657, Note_off_c, 0, 52, 115
2, 17664, Note_on_c, 0, 42, 119
2, 17757, Note_off_c, 0, 42, 119
2, 17760, Note_on_c, 0, 54, 117
2, 17760, Note_on_c, 0, 58, 107
2, 17760, Note_on_c, 0, 61, 113
2, 17856, Note_on_c, 0, 42, 117
2, 17860, Note_off_c, 0, 54, 117
2, 17864, Note_off_c, 0, 58, 107
2, 17865, Note_off_c, 0, 61, 113
2, 17899, Note_off_c, 0, 42, 117
2, 17904, Note_on_c, 0, 54, 107
2, 17904, Note_on_c, 0, 58, 107
2, 17904, Note_on_c, 0, 61, 113
2, 18000, Note_on_c, 0, 42, 115
2, 18001, Note_off_c, 0, 54, 107
2, 18008, Note_off_c, 0, 58, 107
2, 18010, Note_off_c, 0, 61, 113
2, 18036, Note_off_c, 0, 42, 115
2, 18048, Note_on_c, 0, 54, 117
2, 18048, Note_on_c, 0, 58, 109
2, 18048, Note_on_c, 0, 61, 113
2, 18138, Note_off_c, 0, 54, 117
2, 18144, Note_on_c, 0, 42, 117
2, 18150, Note_off_c, 0, 61, 113
2, 18150, Note_off_c, 0, 58, 109
2, 18181, Note_off_c, 0, 42, 117
2, 18192, Note_on_c, 0, 54, 115
2, 18192, Note_on_c, 0, 58, 109
2, 18192, Note_on_c, 0, 61, 111
2, 18263, Note_off_c, 0, 54, 115
2, 18278, Note_off_c, 0, 58, 109
2, 18285, Note_off_c, 0, 61, 111
2, 18288, Note_on_c, 0, 42, 113
2, 18336, Note_on_c, 0, 54, 115
2, 18336, Note_on_c, 0, 56, 117
2, 18336, Note_on_c, 0, 61, 119
2, 18336, Note_on_c, 0, 64, 115
2, 18346, Note_off_c, 0, 42, 113
2, 18432, Note_on_c, 0, 42, 115
2, 18438, Note_off_c, 0, 54, 115
2, 18455, Note_off_c, 0, 56, 117
2, 18461, Note_off_c, 0, 61, 119
2, 18467, Note_off_c, 0, 64, 115
2, 18525, Note_off_c, 0, 42, 115
2, 18528, Note_on_c, 0, 54, 111
2, 18528, Note_on_c, 0, 56, 115
2, 18528, Note_on_c, 0, 61, 119
2, 18528, Note_on_c, 0, 64, 117
2, 18622, Note_off_c, 0, 64, 117
2, 18624, Note_on_c, 0, 42, 113
2, 18624, Note_on_c, 0, 44, 81
2, 18628, Note_off_c, 0, 54, 111
2, 18629, Note_off_c, 0, 56, 115
2, 18632, Note_off_c, 0, 61, 119
2, 18635, Note_off_c, 0, 44, 81
2, 18671, Note_off_c, 0, 42, 113
2, 18672, Note_on_c, 0, 54, 109
2, 18672, Note_on_c, 0, 56, 113
2, 18672, Note_on_c, 0, 61, 113
2, 18672, Note_on_c, 0, 64, 113
2, 18759, Note_off_c, 0, 64, 113
2, 18765, Note_off_c, 0, 54, 109
2, 18767, Note_off_c, 0, 56, 113
2, 18768, Note_on_c, 0, 42, 113
2, 18771, Note_off_c, 0, 61, 113
2, 18813, Note_off_c, 0, 42, 113
2, 18816, Note_on_c, 0, 54, 109
2, 18816, Note_on_c, 0, 56, 115
2, 18816, Note_on_c, 0, 61, 117
2, 18816, Note_on_c, 0, 64, 117
2, 18904, Note_off_c, 0, 64, 117
2, 18911, Note_off_c, 0, 56, 115
2, 18912, Note_on_c, 0, 42, 111
2, 18914, Note_off_c, 0, 61, 117
2, 18916, Note_off_c, 0, 54, 109
2, 18960, Note_on_c, 0, 54, 107
2, 18960, Note_on_c, 0, 56, 115
2, 18960, Note_on_c, 0, 61, 111
2, 18960, Note_on_c, 0, 64, 117
2, 18968, Note_off_c, 0, 42, 111
2, 19056, Note_on_c, 0, 42, 111
2, 19064, Note_off_c, 0, 64, 117
2, 19067, Note_off_c, 0, 56, 115
2, 19070, Note_off_c, 0, 54, 107
2, 19073, Note_off_c, 0, 61, 111
2, 19104, Note_on_c, 0, 54, 113
2, 19104, Note_on_c, 0, 56, 119
2, 19104, Note_on_c, 0, 61, 115
2, 19104, Note_on_c, 0, 64, 117
2, 19110, Note_off_c, 0, 42, 111
2, 19173, Note_off_c, 0, 56, 119
2, 19184, Note_off_c, 0, 61, 115
2, 19188, Note_off_c, 0, 54, 113
2, 19191, Note_off_c, 0, 64, 117
2, 19200, Note_on_c, 0, 46, 115
2, 19296, Note_on_c, 0, 58, 113
2, 19296, Note_on_c, 0, 61, 111
2, 19296, Note_on_c, 0, 65, 119
2, 19304, Note_off_c, 0, 46, 115
2, 19392, Note_off_c, 0, 58, 113
2, 19392, Note_on_c, 0, 46, 117
2, 19393, Note_off_c, 0, 65, 119
2, 19395, Note_off_c, 0, 61, 111
2, 19436, Note_off_c, 0, 46, 117
2, 19440, Note_on_c, 0, 58, 113
2, 19440, Note_on_c, 0, 61, 109
2, 19440, Note_on_c, 0, 65, 117
2, 19532, Note_off_c, 0, 65, 117
2, 19536, Note_on_c, 0, 46, 117
2, 19541, Note_off_c, 0, 58, 113
2, 19546, Note_off_c, 0, 61, 109
2, 19571, Note_off_c, 0, 46, 117
2, 19584, Note_on_c, 0, 58, 113
2, 19584, Note_on_c, 0, 61, 113
2, 19584, Note_on_c, 0, 65, 117
2, 19680, Note_on_c, 0, 46, 115
2, 19683, Note_off_c, 0, 65, 117
2, 19693, Note_off_c, 0, 58, 113
2, 19696, Note_off_c, 0, 61, 113
2, 19721, Note_off_c, 0, 46, 115
2, 19728, Note_on_c, 0, 58, 113
2, 19728, Note_on_c, 0, 61, 113
2, 19728, Note_on_c, 0, 65, 119
2, 19801, Note_off_c, 0, 65, 119
2, 19818, Note_off_c, 0, 61, 113
2, 19818, Note_off_c, 0, 58, 113
2, 19824, Note_on_c, 0, 46, 117
2, 19861, Note_off_c, 0, 46, 117
2, 19872, Note_on_c, 0, 54, 117
2, 19872, Note_on_c, 0, 58, 111
2, 19872, Note_on_c, 0, 63, 109
2, 19960, Note_off_c, 0, 54, 117
2, 19965, Note_off_c, 0, 58, 111
2, 19968, Note_on_c, 0, 47, 119
2, 19969, Note_off_c, 0, 63, 109
2, 20064, Note_on_c, 0, 54, 115
2, 20064, Note_on_c, 0, 58, 111
2, 20064, Note_on_c, 0, 63, 113
2, 20071, Note_off_c, 0, 47, 119
2, 20159, Note_off_c, 0, 54, 115
2, 20160, Note_on_c, 0, 47, 119
2, 20165, Note_off_c, 0, 63, 113
2, 20166, Note_off_c, 0, 58, 111
2, 20208, Note_on_c, 0, 54, 115
2, 20208, Note_on_c, 0, 58, 111
2, 20208, Note_on_c, 0, 63, 111
2, 20213, Note_off_c, 0, 47, 119
2, 20293, Note_off_c, 0, 54, 115
2, 20297, Note_off_c, 0, 63, 111
2, 20298, Note_off_c, 0, 58, 111
2, 20304, Note_on_c, 0, 47, 119
2, 20345, Note_off_c, 0, 47, 119
2, 20352, Note_on_c, 0, 54, 117
2, 20352, Note_on_c, 0, 58, 109
2, 20352, Note_on_c, 0, 63, 115
2, 20448, Note_on_c, 0, 47, 119
2, 20450, Note_off_c, 0, 54, 117
2, 20457, Note_off_c, 0, 63, 115
2, 20459, Note_off_c, 0, 58, 109
2, 20494, Note_off_c, 0, 47, 119
2, 20496, Note_on_c, 0, 54, 115
2, 20496, Note_on_c, 0, 58, 109
2, 20496, Note_on_c, 0, 63, 115
2, 20588, Note_off_c, 0, 54, 115
2, 20592, Note_on_c, 0, 47, 119
2, 20596, Note_off_c, 0, 63, 115
2, 20596, Note_off_c, 0, 58, 109
2, 20632, Note_off_c, 0, 47, 119
2, 20640, Note_on_c, 0, 54, 115
2, 20640, Note_on_c, 0, 58, 115
2, 20640, Note_on_c, 0, 63, 117
2, 20711, Note_off_c, 0, 58, 115
2, 20714, Note_off_c, 0, 54, 115
2, 20725, Note_off_c, 0, 63, 117
2, 20736, Note_on_c, 0, 44, 115
2, 20829, Note_off_c, 0, 44, 115
2, 20832, Note_on_c, 0, 60, 117
2, 20832, Note_on_c, 0, 63, 113
2, 20832, Note_on_c, 0, 66, 111
2, 20924, Note_off_c, 0, 66, 111
2, 20928, Note_on_c, 0, 44, 113
2, 20936, Note_off_c, 0, 60, 117
2, 20943, Note_off_c, 0, 63, 113
2, 20976, Note_on_c, 0, 60, 113
2, 20976, Note_on_c, 0, 63, 109
2, 20976, Note_on_c, 0, 66, 115
2, 20980, Note_off_c, 0, 44, 113
2, 21063, Note_off_c, 0, 66, 115
2, 21070, Note_off_c, 0, 60, 113
2, 21072, Note_on_c, 0, 44, 113
2, 21075, Note_off_c, 0, 63, 109
2, 21112, Note_off_c, 0, 44, 113
2, 21120, Note_on_c, 0, 60, 113
2, 21120, Note_on_c, 0, 63, 107
2, 21120, Note_on_c, 0, 66, 115
2, 21216, Note_off_c, 0, 66, 115
2, 21216, Note_off_c, 0, 60, 113
2, 21216, Note_on_c, 0, 44, 111
2, 21227, Note_off_c, 0, 63, 107
2, 21257, Note_off_c, 0, 44, 111
2, 21264, Note_on_c, 0, 56, 111
2, 21264, Note_on_c, 0, 60, 107
2, 21264, Note_on_c, 0, 63, 107
2, 21360, Note_off_c, 0, 56, 111
2, 21360, Note_on_c, 0, 44, 111
2, 21368, Note_off_c, 0, 60, 107
2, 21374, Note_off_c, 0, 63, 107
2, 21398, Note_off_c, 0, 44, 111
2, 21408, Note_on_c, 0, 60, 117
2, 21408, Note_on_c, 0, 63, 111
2, 21408, Note_on_c, 0, 66, 113
2, 21499, Note_off_c, 0, 60, 117
2, 21504, Note_on_c, 0, 49, 119
2, 21505, Note_off_c, 0, 63, 111
2, 21511, Note_off_c, 0, 66, 113
2, 21596, Note_off_c, 0, 49, 119
2, 21600, Note_on_c, 0, 59, 119
2, 21600, Note_on_c, 0, 63, 113
2, 21600, Note_on_c, 0, 66, 113
2, 21696, Note_on_c, 0, 49, 117
2, 21699, Note_off_c, 0, 66, 113
2, 21703, Note_off_c, 0, 63, 113
2, 21703, Note_off_c, 0, 59, 119
2, 21735, Note_off_c, 0, 49, 117
2, 21744, Note_on_c, 0, 59, 115
2, 21744, Note_on_c, 0, 63, 111
2, 21744, Note_on_c, 0, 66, 113
2, 21839, Note_off_c, 0, 59, 115
2, 21840, Note_on_c, 0, 49, 115
2, 21846, Note_off_c, 0, 63, 111
2, 21848, Note_off_c, 0, 66, 113
2, 21876, Note_off_c, 0, 49, 115
2, 21888, Note_on_c, 0, 59, 117
2, 21888, Note_on_c, 0, 63, 113
2, 21888, Note_on_c, 0, 66, 115
2, 21984, Note_on_c, 0, 49, 113
2, 21985, Note_off_c, 0, 59, 117
2, 21996, Note_off_c, 0, 66, 115
2, 21996, Note_off_c, 0, 63, 113
2, 22026, Note_off_c, 0, 49, 113
2, 22032, Note_on_c, 0, 59, 119
2, 22032, Note_on_c, 0, 63, 111
2, 22032, Note_on_c, 0, 66, 113
2, 22128, Note_on_c, 0, 49, 111
2, 22133, Note_off_c, 0, 59, 119
2, 22141, Note_off_c, 0, 66, 113
2, 22145, Note_off_c, 0, 63, 111
2, 22167, Note_off_c, 0, 49, 111
2, 22176, Note_on_c, 0, 59, 117
2, 22176, Note_on_c, 0, 63, 113
2, 22176, Note_on_c, 0, 66, 113
2, 22246, Note_off_c, 0, 59, 117
2, 22253, Note_off_c, 0, 63, 113
2, 22264, Note_off_c, 0, 66, 113
2, 22272, Note_on_c, 0, 42, 113
2, 22368, Note_on_c, 0, 58, 115
2, 22368, Note_on_c, 0, 61, 111
2, 22368, Note_on_c, 0, 66, 113
2, 22378, Note_off_c, 0, 42, 113
2, 22464, Note_off_c, 0, 66, 113
2, 22464, Note_on_c, 0, 42, 117
2, 22469, Note_off_c, 0, 58, 115
2, 22477, Note_off_c, 0, 61, 111
2, 22512, Note_on_c, 0, 58, 113
2, 22512, Note_on_c, 0, 61, 111
2, 22512, Note_on_c, 0, 66, 111
2, 22517, Note_off_c, 0, 42, 117
2, 22596, Note_off_c, 0, 66, 111
2, 22605, Note_off_c, 0, 58, 113
2, 22608, Note_on_c, 0, 42, 115
2, 22613, Note_off_c, 0, 61, 111
2, 22656, Note_off_c, 0, 42, 115
2, 22656, Note_on_c, 0, 58, 111
2, 22656, Note_on_c, 0, 61, 107
2, 22656, Note_on_c, 0, 66, 111
2, 22752, Note_on_c, 0, 42, 115
2, 22754, Note_off_c, 0, 66, 111
2, 22756, Note_off_c, 0, 58, 111
2, 22771, Note_off_c, 0, 61, 107
2, 22800, Note_on_c, 0, 58, 111
2, 22800, Note_on_c, 0, 61, 109
2, 22800, Note_on_c, 0, 66, 111
2, 22807, Note_off_c, 0, 42, 115
2, 22891, Note_off_c, 0, 66, 111
2, 22894, Note_off_c, 0, 58, 111
2, 22896, Note_on_c, 0, 42, 115
2, 22906, Note_off_c, 0, 61, 109
2, 22943, Note_off_c, 0, 42, 115
2, 22944, Note_on_c, 0, 58, 111
2, 22944, Note_on_c, 0, 61, 109
2, 22944, Note_on_c, 0, 66, 111
2, 23034, Note_off_c, 0, 58, 111
2, 23040, Note_off_c, 0, 66, 111
2, 23040, Note_on_c, 0, 46, 113
2, 23042, Note_off_c, 0, 61, 109
2, 23136, Note_on_c, 0, 58, 115
2, 23136, Note_on_c, 0, 62, 115
2, 23136, Note_on_c, 0, 66, 109
2, 23151, Note_off_c, 0, 46, 113
2, 23232, Note_on_c, 0, 46, 111
2, 23233, Note_off_c, 0, 58, 115
2, 23236, Note_off_c, 0, 66, 109
2, 23243, Note_off_c, 0, 62, 115
2, 23280, Note_off_c, 0, 46, 111
2, 23280, Note_on_c, 0, 58, 115
2, 23280, Note_on_c, 0, 62, 113
2, 23280, Note_on_c, 0, 66, 113
2, 23376, Note_on_c, 0, 46, 117
2, 23377, Note_off_c, 0, 58, 115
2, 23378, Note_off_c, 0, 66, 113
2, 23384, Note_off_c, 0, 62, 113
2, 23416, Note_off_c, 0, 46, 117
2, 23424, Note_on_c, 0, 58, 115
2, 23424, Note_on_c, 0, 62, 113
2, 23424, Note_on_c, 0, 66, 111
2, 23520, Note_on_c, 0, 46, 117
2, 23521, Note_off_c, 0, 66, 111
2, 23521, Note_off_c, 0, 58, 115
2, 23527, Note_off_c, 0, 62, 113
2, 23561, Note_off_c, 0, 46, 117
2, 23568, Note_on_c, 0, 58, 113
2, 23568, Note_on_c, 0, 62, 115
2, 23568, Note_on_c, 0, 66, 113
2, 23664, Note_on_c, 0, 46, 117
2, 23677, Note_off_c, 0, 66, 113
2, 23677, Note_off_c, 0, 58, 113
2, 23685, Note_off_c, 0, 62, 115
2, 23700, Note_off_c, 0, 46, 117
2, 23712, Note_on_c, 0, 58, 115
2, 23712, Note_on_c, 0, 62, 115
2, 23712, Note_on_c, 0, 66, 111
2, 23773, Note_off_c, 0, 58, 115
2, 23785, Note_off_c, 0, 62, 115
2, 23789, Note_off_c, 0, 66, 111
2, 23808, Note_on_c, 0, 39, 113
2, 23917, Note_off_c, 0, 39, 113
2, 24000, Note_on_c, 0, 39, 115
2, 24047, Note_off_c, 0, 39, 115
2, 24048, Note_on_c, 0, 51, 113
2, 24086, Note_off_c, 0, 51, 113
2, 24096, Note_on_c, 0, 58, 117
2, 24096, Note_on_c, 0, 63, 109
2, 24096, Note_on_c, 0, 66, 109
2, 24143, Note_off_c, 0, 58, 117
2, 24152, Note_off_c, 0, 66, 109
2, 24161, Note_off_c, 0, 63, 109
2, 24192, Note_on_c, 0, 58, 113
2, 24192, Note_on_c, 0, 62, 115
2, 24192, Note_on_c, 0, 66, 109
2, 24301, Note_off_c, 0, 58, 113
2, 24304, Note_off_c, 0, 66, 109
2, 24313, Note_off_c, 0, 62, 115
2, 24336, Note_on_c, 0, 58, 115
2, 24336, Note_on_c, 0, 62, 107
2, 24336, Note_on_c, 0, 66, 111
2, 24434, Note_off_c, 0, 58, 115
2, 24439, Note_off_c, 0, 66, 111
2, 24444, Note_off_c, 0, 62, 107
2, 24480, Note_on_c, 0, 58, 109
2, 24480, Note_on_c, 0, 62, 115
2, 24480, Note_on_c, 0, 66, 109
2, 24515, Note_off_c, 0, 58, 109
2, 24521, Note_off_c, 0, 62, 115
2, 24528, Note_off_c, 0, 66, 109
2, 24576, Note_on_c, 0, 39, 115
2, 24689, Note_off_c, 0, 39, 115
2, 24768, Note_on_c, 0, 39, 113
2, 24815, Note_off_c, 0, 39, 113
2, 24816, Note_on_c, 0, 51, 111
2, 24857, Note_off_c, 0, 51, 111
2, 24864, Note_on_c, 0, 58, 113
2, 24864, Note_on_c, 0, 61, 109
2, 24864, Note_on_c, 0, 66, 107
2, 24904, Note_off_c, 0, 58, 113
2, 24907, Note_off_c, 0, 66, 107
2, 24921, Note_off_c, 0, 61, 109
2, 24960, Note_on_c, 0, 56, 117
2, 24960, Note_on_c, 0, 60, 113
2, 24960, Note_on_c, 0, 66, 111
2, 25066, Note_off_c, 0, 66, 111
2, 25069, Note_off_c, 0, 56, 117
2, 25082, Note_off_c, 0, 60, 113
2, 25104, Note_on_c, 0, 56, 115
2, 25104, Note_on_c, 0, 60, 87
2, 25104, Note_on_c, 0, 66, 113
2, 25183, Note_off_c, 0, 66, 113
2, 25187, Note_off_c, 0, 56, 115
2, 25200, Note_off_c, 0, 60, 87
2, 25248, Note_on_c, 0, 56, 113
2, 25248, Note_on_c, 0, 60, 113
2, 25248, Note_on_c, 0, 66, 109
2, 25293, Note_off_c, 0, 56, 113
2, 25305, Note_off_c, 0, 60, 113
2, 25308, Note_off_c, 0, 66, 109
2, 25344, Note_on_c, 0, 42, 115
2, 25453, Note_off_c, 0, 42, 115
2, 25536, Note_on_c, 0, 42, 111
2, 25583, Note_off_c, 0, 42, 111
2, 25584, Note_on_c, 0, 54, 109
2, 25625, Note_off_c, 0, 54, 109
2, 25632, Note_on_c, 0, 56, 113
2, 25632, Note_on_c, 0, 59, 117
2, 25632, Note_on_c, 0, 64, 117
2, 25666, Note_off_c, 0, 56, 113
2, 25670, Note_off_c, 0, 59, 117
2, 25672, Note_off_c, 0, 64, 117
2, 25728, Note_on_c, 0, 56, 115
2, 25728, Note_on_c, 0, 59, 117
2, 25728, Note_on_c, 0, 64, 119
2, 25829, Note_off_c, 0, 64, 119
2, 25834, Note_off_c, 0, 56, 115
2, 25839, Note_off_c, 0, 59, 117
2, 25872, Note_on_c, 0, 56, 113
2, 25872, Note_on_c, 0, 59, 111
2, 25872, Note_on_c, 0, 64, 117
2, 25960, Note_off_c, 0, 64, 117
2, 25961, Note_off_c, 0, 56, 113
2, 25967, Note_off_c, 0, 59, 111
2, 26016, Note_on_c, 0, 56, 113
2, 26016, Note_on_c, 0, 59, 113
2, 26016, Note_on_c, 0, 64, 119
2, 26070, Note_off_c, 0, 56, 113
2, 26084, Note_off_c, 0, 59, 113
2, 26085, Note_off_c, 0, 64, 119
2, 26112, Note_on_c, 0, 54, 107
2, 26112, Note_on_c, 0, 58, 111
2, 26112, Note_on_c, 0, 63, 113
2, 26236, Note_off_c, 0, 54, 107
2, 26237, Note_off_c, 0, 63, 113
2, 26246, Note_off_c, 0, 58, 111
2, 26304, Note_on_c, 0, 54, 113
2, 26304, Note_on_c, 0, 58, 111
2, 26304, Note_on_c, 0, 63, 111
2, 26395, Note_off_c, 0, 63, 111
2, 26400, Note_off_c, 0, 54, 113
2, 26410, Note_off_c, 0, 58, 111
2, 26448, Note_on_c, 0, 58, 117
2, 26448, Note_on_c, 0, 62, 119
2, 26448, Note_on_c, 0, 66, 113
2, 26448, Note_on_c, 0, 70, 113
2, 26544, Note_off_c, 0, 62, 119
2, 26545, Note_off_c, 0, 66, 113
2, 26545, Note_off_c, 0, 58, 117
2, 26546, Note_off_c, 0, 70, 113
2, 26592, Note_on_c, 0, 58, 119
2, 26592, Note_on_c, 0, 62, 115
2, 26592, Note_on_c, 0, 66, 111
2, 26592, Note_on_c, 0, 70, 113
2, 26662, Note_off_c, 0, 62, 115
2, 26664, Note_off_c, 0, 66, 111
2, 26672, Note_off_c, 0, 58, 119
2, 26676, Note_off_c, 0, 70, 113
2, 26688, Note_on_c, 0, 46, 113
2, 26735, Note_off_c, 0, 46, 113
2, 26736, Note_on_c, 0, 58, 115
2, 26777, Note_off_c, 0, 58, 115
2, 26784, Note_on_c, 0, 38, 117
2, 26879, Note_off_c, 0, 38, 117
2, 26880, Note_on_c, 0, 39, 113
2, 26989, Note_off_c, 0, 39, 113
2, 27072, Note_on_c, 0, 39, 115
2, 27119, Note_off_c, 0, 39, 115
2, 27120, Note_on_c, 0, 51, 113
2, 27158, Note_off_c, 0, 51, 113
2, 27168, Note_on_c, 0, 58, 117
2, 27168, Note_on_c, 0, 63, 109
2, 27168, Note_on_c, 0, 66, 109
2, 27215, Note_off_c, 0, 58, 117
2, 27224, Note_off_c, 0, 66, 109
2, 27233, Note_off_c, 0, 63, 109
2, 27264, Note_on_c, 0, 58, 113
2, 27264, Note_on_c, 0, 62, 115
2, 27264, Note_on_c, 0, 66, 109
2, 27373, Note_off_c, 0, 58, 113
2, 27376, Note_off_c, 0, 66, 109
2, 27385, Note_off_c, 0, 62, 115
2, 27408, Note_on_c, 0, 58, 115
2, 27408, Note_on_c, 0, 62, 107
2, 27408, Note_on_c, 0, 66, 111
2, 27506, Note_off_c, 0, 58, 115
2, 27511, Note_off_c, 0, 66, 111
2, 27516, Note_off_c, 0, 62, 107
2, 27552, Note_on_c, 0, 58, 109
2, 27552, Note_on_c, 0, 62, 115
2, 27552, Note_on_c, 0, 66, 109
2, 27587, Note_off_c, 0, 58, 109
2, 27593, Note_off_c, 0, 62, 115
2, 27600, Note_off_c, 0, 66, 109
2, 27648, Note_on_c, 0, 39, 115
2, 27761, Note_off_c, 0, 39, 115
2, 27840, Note_on_c, 0, 39, 113
2, 27887, Note_off_c, 0, 39, 113
2, 27888, Note_on_c, 0, 51, 111
2, 27929, Note_off_c, 0, 51, 111
2, 27936, Note_on_c, 0, 58, 113
2, 27936, Note_on_c, 0, 61, 109
2, 27936, Note_on_c, 0, 66, 107
2, 27976, Note_off_c, 0, 58, 113
2, 27979, Note_off_c, 0, 66, 107
2, 27993, Note_off_c, 0, 61, 109
2, 28032, Note_on_c, 0, 56, 117
2, 28032, Note_on_c, 0, 60, 113
2, 28032, Note_on_c, 0, 66, 111
2, 28138, Note_off_c, 0, 66, 111
2, 28141, Note_off_c, 0, 56, 117
2, 28154, Note_off_c, 0, 60, 113
2, 28176, Note_on_c, 0, 56, 115
2, 28176, Note_on_c, 0, 60, 87
2, 28176, Note_on_c, 0, 66, 113
2, 28255, Note_off_c, 0, 66, 113
2, 28259, Note_off_c, 0, 56, 115
2, 28272, Note_off_c, 0, 60, 87
2, 28320, Note_on_c, 0, 56, 113
2, 28320, Note_on_c, 0, 60, 113
2, 28320, Note_on_c, 0, 66, 109
2, 28365, Note_off_c, 0, 56, 113
2, 28377, Note_off_c, 0, 60, 113
2, 28380, Note_off_c, 0, 66, 109
2, 28416, Note_on_c, 0, 42, 115
2, 28525, Note_off_c, 0, 42, 115
2, 28608, Note_on_c, 0, 42, 111
2, 28655, Note_off_c, 0, 42, 111
2, 28656, Note_on_c, 0, 54, 109
2, 28697, Note_off_c, 0, 54, 109
2, 28704, Note_on_c, 0, 56, 113
2, 28704, Note_on_c, 0, 59, 117
2, 28704, Note_on_c, 0, 64, 117
2, 28738, Note_off_c, 0, 56, 113
2, 28742, Note_off_c, 0, 59, 117
2, 28744, Note_off_c, 0, 64, 117
2, 28800, Note_on_c, 0, 56, 115
2, 28800, Note_on_c, 0, 59, 117
2, 28800, Note_on_c, 0, 64, 119
2, 28901, Note_off_c, 0, 64, 119
2, 28906, Note_off_c, 0, 56, 115
2, 28911, Note_off_c, 0, 59, 117
2, 28944, Note_on_c, 0, 56, 113
2, 28944, Note_on_c, 0, 59, 111
2, 28944, Note_on_c, 0, 64, 117
2, 29032, Note_off_c, 0, 64, 117
2, 29033, Note_off_c, 0, 56, 113
2, 29039, Note_off_c, 0, 59, 111
2, 29088, Note_on_c, 0, 56, 113
2, 29088, Note_on_c, 0, 59, 113
2, 29088, Note_on_c, 0, 64, 119
2, 29142, Note_off_c, 0, 56, 113
2, 29156, Note_off_c, 0, 59, 113
2, 29157, Note_off_c, 0, 64, 119
2, 29184, Note_on_c, 0, 54, 109
2, 29184, Note_on_c, 0, 58, 109
2, 29184, Note_on_c, 0, 63, 113
2, 29269, Note_off_c, 0, 63, 113
2, 29296, Note_off_c, 0, 58, 109
2, 29302, Note_off_c, 0, 54, 109
2, 29376, Note_on_c, 0, 54, 113
2, 29376, Note_on_c, 0, 58, 111
2, 29376, Note_on_c, 0, 63, 115
2, 29495, Note_off_c, 0, 54, 113
2, 29496, Note_off_c, 0, 58, 111
2, 29507, Note_off_c, 0, 63, 115
2, 29520, Note_on_c, 0, 54, 109
2, 29520, Note_on_c, 0, 58, 107
2, 29520, Note_on_c, 0, 63, 109
2, 29618, Note_off_c, 0, 58, 107
2, 29619, Note_off_c, 0, 54, 109
2, 29631, Note_off_c, 0, 63, 109
2, 29664, Note_on_c, 0, 54, 107
2, 29664, Note_on_c, 0, 58, 107
2, 29664, Note_on_c, 0, 63, 111
2, 29735, Note_off_c, 0, 54, 107
2, 29738, Note_off_c, 0, 58, 107
2, 29740, Note_off_c, 0, 63, 111
2, 29760, Note_on_c, 0, 54, 111
2, 29760, Note_on_c, 0, 58, 113
2, 29760, Note_on_c, 0, 63, 117
2, 29824, Note_off_c, 0, 54, 111
2, 29827, Note_off_c, 0, 63, 117
2, 29828, Note_off_c, 0, 58, 113
2, 29856, Note_on_c, 0, 54, 111
2, 29856, Note_on_c, 0, 58, 113
2, 29856, Note_on_c, 0, 63, 113
2, 29901, Note_off_c, 0, 63, 113
2, 29905, Note_off_c, 0, 54, 111
2, 29909, Note_off_c, 0, 58, 113
2, 29952, Note_on_c, 0, 52, 117
2, 29952, Note_on_c, 0, 56, 113
2, 29952, Note_on_c, 0, 62, 117
2, 30003, Note_off_c, 0, 56, 113
2, 30008, Note_off_c, 0, 52, 117
2, 30010, Note_off_c, 0, 62, 117
2, 30144, Note_on_c, 0, 52, 119
2, 30144, Note_on_c, 0, 56, 111
2, 30144, Note_on_c, 0, 62, 117
2, 30186, Note_off_c, 0, 52, 119
2, 30188, Note_off_c, 0, 56, 111
2, 30197, Note_off_c, 0, 62, 117
2, 30288, Note_on_c, 0, 52, 113
2, 30288, Note_on_c, 0, 56, 113
2, 30288, Note_on_c, 0, 62, 117
2, 30334, Note_off_c, 0, 56, 113
2, 30334, Note_off_c, 0, 52, 113
2, 30341, Note_off_c, 0, 62, 117
2, 30432, Note_on_c, 0, 52, 117
2, 30432, Note_on_c, 0, 56, 113
2, 30432, Note_on_c, 0, 62, 117
2, 30527, Note_off_c, 0, 52, 117
2, 30547, Note_off_c, 0, 56, 113
2, 30548, Note_off_c, 0, 62, 117
2, 30624, Note_on_c, 0, 40, 111
2, 30624, Note_on_c, 0, 56, 117
2, 30624, Note_on_c, 0, 62, 119
2, 30672, Note_on_c, 0, 52, 115
2, 30685, Note_off_c, 0, 40, 111
2, 30698, Note_off_c, 0, 56, 117
2, 30708, Note_off_c, 0, 62, 119
2, 30713, Note_off_c, 0, 52, 115
2, 30720, Note_on_c, 0, 42, 119
2, 30813, Note_off_c, 0, 42, 119
2, 30816, Note_on_c, 0, 54, 117
2, 30816, Note_on_c, 0, 58, 107
2, 30816, Note_on_c, 0, 61, 113
2, 30912, Note_on_c, 0, 42, 117
2, 30916, Note_off_c, 0, 54, 117
2, 30920, Note_off_c, 0, 58, 107
2, 30921, Note_off_c, 0, 61, 113
2, 30955, Note_off_c, 0, 42, 117
2, 30960, Note_on_c, 0, 54, 107
2, 30960, Note_on_c, 0, 58, 107
2, 30960, Note_on_c, 0, 61, 113
2, 31056, Note_on_c, 0, 42, 115
2, 31057, Note_off_c, 0, 54, 107
2, 31064, Note_off_c, 0, 58, 107
2, 31066, Note_off_c, 0, 61, 113
2, 31092, Note_off_c, 0, 42, 115
2, 31104, Note_on_c, 0, 54, 117
2, 31104, Note_on_c, 0, 58, 109
2, 31104, Note_on_c, 0, 61, 113
2, 31194, Note_off_c, 0, 54, 117
2, 31200, Note_on_c, 0, 42, 117
2, 31206, Note_off_c, 0, 61, 113
2, 31206, Note_off_c, 0, 58, 109
2, 31237, Note_off_c, 0, 42, 117
2, 31248, Note_on_c, 0, 54, 115
2, 31248, Note_on_c, 0, 58, 109
2, 31248, Note_on_c, 0, 61, 111
2, 31319, Note_off_c, 0, 54, 115
2, 31334, Note_off_c, 0, 58, 109
2, 31341, Note_off_c, 0, 61, 111
2, 31344, Note_on_c, 0, 42, 113
2, 31392, Note_on_c, 0, 54, 115
2, 31392, Note_on_c, 0, 56, 117
2, 31392, Note_on_c, 0, 61, 119
2, 31392, Note_on_c, 0, 64, 115
2, 31402, Note_off_c, 0, 42, 113
2, 31488, Note_on_c, 0, 42, 115
2, 31494, Note_off_c, 0, 54, 115
2, 31511, Note_off_c, 0, 56, 117
2, 31517, Note_off_c, 0, 61, 119
2, 31523, Note_off_c, 0, 64, 115
2, 31581, Note_off_c, 0, 42, 115
2, 31584, Note_on_c, 0, 54, 111
2, 31584, Note_on_c, 0, 56, 115
2, 31584, Note_on_c, 0, 61, 119
2, 31584, Note_on_c, 0, 64, 117
2, 31678, Note_off_c, 0, 64, 117
2, 31680, Note_on_c, 0, 42, 113
2, 31680, Note_on_c, 0, 44, 81
2, 31684, Note_off_c, 0, 54, 111
2, 31685, Note_off_c, 0, 56, 115
2, 31688, Note_off_c, 0, 61, 119
2, 31691, Note_off_c, 0, 44, 81
2, 31727, Note_off_c, 0, 42, 113
2, 31728, Note_on_c, 0, 54, 109
2, 31728, Note_on_c, 0, 56, 113
2, 31728, Note_on_c, 0, 61, 113
2, 31728, Note_on_c, 0, 64, 113
2, 31815, Note_off_c, 0, 64, 113
2, 31821, Note_off_c, 0, 54, 109
2, 31823, Note_off_c, 0, 56, 113
2, 31824, Note_on_c, 0, 42, 113
2, 31827, Note_off_c, 0, 61, 113
2, 31869, Note_off_c, 0, 42, 113
2, 31872, Note_on_c, 0, 54, 109
2, 31872, Note_on_c, 0, 56, 115
2, 31872, Note_on_c, 0, 61, 117
2, 31872, Note_on_c, 0, 64, 117
2, 31960, Note_off_c, 0, 64, 117
2, 31967, Note_off_c, 0, 56, 115
2, 31968, Note_on_c, 0, 42, 111
2, 31970, Note_off_c, 0, 61, 117
2, 31972, Note_off_c, 0, 54, 109
2, 32016, Note_on_c, 0, 54, 107
2, 32016, Note_on_c, 0, 56, 115
2, 32016, Note_on_c, 0, 61, 111
2, 32016, Note_on_c, 0, 64, 117
2, 32024, Note_off_c, 0, 42, 111
2, 32112, Note_on_c, 0, 42, 111
2, 32120, Note_off_c, 0, 64, 117
2, 32123, Note_off_c, 0, 56, 115
2, 32126, Note_off_c, 0, 54, 107
2, 32129, Note_off_c, 0, 61, 111
2, 32160, Note_on_c, 0, 54, 113
2, 32160, Note_on_c, 0, 56, 119
2, 32160, Note_on_c, 0, 61, 115
2, 32160, Note_on_c, 0, 64, 117
2, 32166, Note_off_c, 0, 42, 111
2, 32229, Note_off_c, 0, 56, 119
2, 32240, Note_off_c, 0, 61, 115
2, 32244, Note_off_c, 0, 54, 113
2, 32247, Note_off_c, 0, 64, 117
2, 32256, Note_on_c, 0, 46, 115
2, 32352, Note_on_c, 0, 58, 113
2, 32352, Note_on_c, 0, 61, 111
2, 32352, Note_on_c, 0, 65, 119
2, 32360, Note_off_c, 0, 46, 115
2, 32448, Note_off_c, 0, 58, 113
2, 32448, Note_on_c, 0, 46, 117
2, 32449, Note_off_c, 0, 65, 119
2, 32451, Note_off_c, 0, 61, 111
2, 32492, Note_off_c, 0, 46, 117
2, 32496, Note_on_c, 0, 58, 113
2, 32496, Note_on_c, 0, 61, 109
2, 32496, Note_on_c, 0, 65, 117
2, 32588, Note_off_c, 0, 65, 117
2, 32592, Note_on_c, 0, 46, 117
2, 32597, Note_off_c, 0, 58, 113
2, 32602, Note_off_c, 0, 61, 109
2, 32627, Note_off_c, 0, 46, 117
2, 32640, Note_on_c, 0, 58, 113
2, 32640, Note_on_c, 0, 61, 113
2, 32640, Note_on_c, 0, 65, 117
2, 32736, Note_on_c, 0, 46, 115
2, 32739, Note_off_c, 0, 65, 117
2, 32749, Note_off_c, 0, 58, 113
2, 32752, Note_off_c, 0, 61, 113
2, 32777, Note_off_c, 0, 46, 115
2, 32784, Note_on_c, 0, 58, 113
2, 32784, Note_on_c, 0, 61, 113
2, 32784, Note_on_c, 0, 65, 119
2, 32857, Note_off_c, 0, 65, 119
2, 32874, Note_off_c, 0, 61, 113
2, 32874, Note_off_c, 0, 58, 113
2, 32880, Note_on_c, 0, 46, 117
2, 32917, Note_off_c, 0, 46, 117
2, 32928, Note_on_c, 0, 54, 117
2, 32928, Note_on_c, 0, 58, 111
2, 32928, Note_on_c, 0, 63, 109
2, 33016, Note_off_c, 0, 54, 117
2, 33021, Note_off_c, 0, 58, 111
2, 33024, Note_on_c, 0, 47, 119
2, 33025, Note_off_c, 0, 63, 109
2, 33120, Note_on_c, 0, 54, 115
2, 33120, Note_on_c, 0, 58, 111
2, 33120, Note_on_c, 0, 63, 113
2, 33127, Note_off_c, 0, 47, 119
2, 33215, Note_off_c, 0, 54, 115
2, 33216, Note_on_c, 0, 47, 119
2, 33221, Note_off_c, 0, 63, 113
2, 33222, Note_off_c, 0, 58, 111
2, 33264, Note_on_c, 0, 54, 115
2, 33264, Note_on_c, 0, 58, 111
2, 33264, Note_on_c, 0, 63, 111
2, 33269, Note_off_c, 0, 47, 119
2, 33349, Note_off_c, 0, 54, 115
2, 33353, Note_off_c, 0, 63, 111
2, 33354, Note_off_c, 0, 58, 111
2, 33360, Note_on_c, 0, 47, 119
2, 33401, Note_off_c, 0, 47, 119
2, 33408, Note_on_c, 0, 54, 117
2, 33408, Note_on_c, 0, 58, 109
2, 33408, Note_on_c, 0, 63, 115
2, 33504, Note_on_c, 0, 47, 119
2, 33506, Note_off_c, 0, 54, 117
2, 33513, Note_off_c, 0, 63, 115
2, 33515, Note_off_c, 0, 58, 109
2, 33550, Note_off_c, 0, 47, 119
2, 33552, Note_on_c, 0, 54, 115
2, 33552, Note_on_c, 0, 58, 109
2, 33552, Note_on_c, 0, 63, 115
2, 33644, Note_off_c, 0, 54, 115
2, 33648, Note_on_c, 0, 47, 119
2, 33652, Note_off_c, 0, 63, 115
2, 33652, Note_off_c, 0, 58, 109
2, 33688, Note_off_c, 0, 47, 119
2, 33696, Note_on_c, 0, 54, 115
2, 33696, Note_on_c, 0, 58, 115
2, 33696, Note_on_c, 0, 63, 117
2, 33767, Note_off_c, 0, 58, 115
2, 33770, Note_off_c, 0, 54, 115
2, 33781, Note_off_c, 0, 63, 117
2, 33792, Note_on_c, 0, 44, 115
2, 33885, Note_off_c, 0, 44, 115
2, 33888, Note_on_c, 0, 60, 117
2, 33888, Note_on_c, 0, 63, 113
2, 33888, Note_on_c, 0, 66, 111
2, 33980, Note_off_c, 0, 66, 111
2, 33984, Note_on_c, 0, 44, 113
2, 33992, Note_off_c, 0, 60, 117
2, 33999, Note_off_c, 0, 63, 113
2, 34032, Note_on_c, 0, 60, 113
2, 34032, Note_on_c, 0, 63, 109
2, 34032, Note_on_c, 0, 66, 115
2, 34036, Note_off_c, 0, 44, 113
2, 34119, Note_off_c, 0, 66, 115
2, 34126, Note_off_c, 0, 60, 113
2, 34128, Note_on_c, 0, 44, 113
2, 34131, Note_off_c, 0, 63, 109
2, 34168, Note_off_c, 0, 44, 113
2, 34176, Note_on_c, 0, 60, 113
2, 34176, Note_on_c, 0, 63, 107
2, 34176, Note_on_c, 0, 66, 115
2, 34272, Note_off_c, 0, 66, 115
2, 34272, Note_off_c, 0, 60, 113
2, 34272, Note_on_c, 0, 44, 111
2, 34283, Note_off_c, 0, 63, 107
2, 34313, Note_off_c, 0, 44, 111
2, 34320, Note_on_c, 0, 56, 111
2, 34320, Note_on_c, 0, 60, 107
2, 34320, Note_on_c, 0, 63, 107
2, 34416, Note_off_c, 0, 56, 111
2, 34416, Note_on_c, 0, 44, 111
2, 34424, Note_off_c, 0, 60, 107
2, 34430, Note_off_c, 0, 63, 107
2, 34454, Note_off_c, 0, 44, 111
2, 34464, Note_on_c, 0, 60, 117
2, 34464, Note_on_c, 0, 63, 111
2, 34464, Note_on_c, 0, 66, 113
2, 34555, Note_off_c, 0, 60, 117
2, 34560, Note_on_c, 0, 49, 119
2, 34561, Note_off_c, 0, 63, 111
2, 34567, Note_off_c, 0, 66, 113
2, 34652, Note_off_c, 0, 49, 119
2, 34656, Note_on_c, 0, 59, 119
2, 34656, Note_on_c, 0, 63, 113
2, 34656, Note_on_c, 0, 66, 113
2, 34752, Note_on_c, 0, 49, 117
2, 34755, Note_off_c, 0, 66, 113
2, 34759, Note_off_c, 0, 63, 113
2, 34759, Note_off_c, 0, 59, 119
2, 34791, Note_off_c, 0, 49, 117
2, 34800, Note_on_c, 0, 59, 115
2, 34800, Note_on_c, 0, 63, 111
2, 34800, Note_on_c, 0, 66, 113
2, 34895, Note_off_c, 0, 59, 115
2, 34896, Note_on_c, 0, 49, 115
2, 34902, Note_off_c, 0, 63, 111
2, 34904, Note_off_c, 0, 66, 113
2, 34932, Note_off_c, 0, 49, 115
2, 34944, Note_on_c, 0, 59, 117
2, 34944, Note_on_c, 0, 63, 113
2, 34944, Note_on_c, 0, 66, 115
2, 35040, Note_on_c, 0, 49, 113
2, 35041, Note_off_c, 0, 59, 117
2, 35052, Note_off_c, 0, 66, 115
2, 35052, Note_off_c, 0, 63, 113
2, 35082, Note_off_c, 0, 49, 113
2, 35088, Note_on_c, 0, 59, 119
2, 35088, Note_on_c, 0, 63, 111
2, 35088, Note_on_c, 0, 66, 113
2, 35184, Note_on_c, 0, 49, 111
2, 35189, Note_off_c, 0, 59, 119
2, 35197, Note_off_c, 0, 66, 113
2, 35201, Note_off_c, 0, 63, 111
2, 35223, Note_off_c, 0, 49, 111
2, 35232, Note_on_c, 0, 59, 117
2, 35232, Note_on_c, 0, 63, 113
2, 35232, Note_on_c, 0, 66, 113
2, 35302, Note_off_c, 0, 59, 117
2, 35309, Note_off_c, 0, 63, 113
2, 35320, Note_off_c, 0, 66, 113
2, 35328, Note_on_c, 0, 54, 115
2, 35328, Note_on_c, 0, 61, 117
2, 35328, Note_on_c, 0, 66, 111
2, 35328, Note_on_c, 0, 71, 119
2, 35519, Note_off_c, 0, 71, 119
2, 35520, Note_on_c, 0, 70, 117
2, 35595, Note_off_c, 0, 70, 117
2, 35615, Note_off_c, 0, 66, 111
2, 35615, Note_off_c, 0, 61, 117
2, 35615, Note_off_c, 0, 54, 115
2, 35616, Note_on_c, 0, 53, 105
2, 35616, Note_on_c, 0, 60, 111
2, 35616, Note_on_c, 0, 65, 117
2, 35616, Note_on_c, 0, 70, 109
2, 35807, Note_off_c, 0, 70, 109
2, 35808, Note_on_c, 0, 69, 107
2, 35972, Note_off_c, 0, 69, 107
2, 35999, Note_off_c, 0, 65, 117
2, 35999, Note_off_c, 0, 60, 111
2, 35999, Note_off_c, 0, 53, 105
2, 36000, Note_on_c, 0, 52, 113
2, 36000, Note_on_c, 0, 59, 117
2, 36000, Note_on_c, 0, 64, 117
2, 36000, Note_on_c, 0, 69, 117
2, 36191, Note_off_c, 0, 69, 117
2, 36192, Note_on_c, 0, 68, 115
2, 36365, Note_off_c, 0, 68, 115
2, 36383, Note_off_c, 0, 64, 117
2, 36383, Note_off_c, 0, 59, 117
2, 36383, Note_off_c, 0, 52, 113
2, 36384, Note_on_c, 0, 51, 115
2, 36384, Note_on_c, 0, 58, 113
2, 36384, Note_on_c, 0, 63, 111
2, 36384, Note_on_c, 0, 68, 117
2, 36575, Note_off_c, 0, 68, 117
2, 36576, Note_on_c, 0, 67, 107
2, 36730, Note_off_c, 0, 67, 107
2, 36767, Note_off_c, 0, 63, 111
2, 36767, Note_off_c, 0, 58, 113
2, 36767, Note_off_c, 0, 51, 115
2, 36768, Note_on_c, 0, 50, 103
2, 36768, Note_on_c, 0, 57, 117
2, 36768, Note_on_c, 0, 62, 113
2, 36768, Note_on_c, 0, 67, 117
2, 36959, Note_off_c, 0, 67, 117
2, 36960, Note_on_c, 0, 66, 115
2, 37117, Note_off_c, 0, 66, 115
2, 37151, Note_off_c, 0, 62, 113
2, 37151, Note_off_c, 0, 57, 117
2, 37151, Note_off_c, 0, 50, 103
2, 37152, Note_on_c, 0, 49, 111
2, 37152, Note_on_c, 0, 56, 113
2, 37152, Note_on_c, 0, 61, 101
2, 37152, Note_on_c, 0, 66, 111
2, 37324, Note_off_c, 0, 66, 111
2, 37343, Note_off_c, 0, 61, 101
2, 37343, Note_off_c, 0, 56, 113
2, 37343, Note_off_c, 0, 49, 111
2, 37344, Note_on_c, 0, 65, 107
2, 37439, Note_off_c, 0, 65, 107
2, 37440, Note_on_c, 0, 42, 111
2, 37440, Note_on_c, 0, 56, 117
2, 37440, Note_on_c, 0, 61, 117
2, 37440, Note_on_c, 0, 63, 115
2, 37535, Note_off_c, 0, 56, 117
2, 37727, Note_off_c, 0, 63, 115
2, 37727, Note_off_c, 0, 61, 117
2, 37727, Note_off_c, 0, 42, 111
2, 37728, Note_on_c, 0, 42, 111
2, 37728, Note_on_c, 0, 56, 109
2, 37728, Note_on_c, 0, 61, 111
2, 37728, Note_on_c, 0, 63, 111
2, 37846, Note_off_c, 0, 56, 109
2, 37847, Note_off_c, 0, 63, 111
2, 37849, Note_off_c, 0, 61, 111
2, 37855, Note_off_c, 0, 42, 111
2, 37872, Note_on_c, 0, 42, 107
2, 37872, Note_on_c, 0, 56, 111
2, 37872, Note_on_c, 0, 61, 111
2, 37872, Note_on_c, 0, 63, 107
2, 37974, Note_off_c, 0, 42, 107
2, 37978, Note_off_c, 0, 63, 107
2, 37980, Note_off_c, 0, 56, 111
2, 37984, Note_off_c, 0, 61, 111
2, 38016, Note_on_c, 0, 42, 115
2, 38016, Note_on_c, 0, 56, 115
2, 38016, Note_on_c, 0, 61, 115
2, 38016, Note_on_c, 0, 63, 111
2, 38101, Note_off_c, 0, 56, 115
2, 38108, Note_off_c, 0, 61, 115
2, 38110, Note_off_c, 0, 63, 111
2, 38112, Note_off_c, 0, 42, 115
2, 38208, Note_on_c, 0, 49, 113
2, 38208, Note_on_c, 0, 56, 117
2, 38208, Note_on_c, 0, 59, 119
2, 38208, Note_on_c, 0, 63, 119
2, 38399, Note_off_c, 0, 63, 119
2, 38399, Note_off_c, 0, 59, 119
2, 38399, Note_off_c, 0, 56, 117
2, 38399, Note_off_c, 0, 49, 113
2, 38400, Note_on_c, 0, 54, 115
2, 38400, Note_on_c, 0, 61, 115
2, 38400, Note_on_c, 0, 66, 111
2, 38400, Note_on_c, 0, 71, 119
2, 38591, Note_off_c, 0, 71, 119
2, 38592, Note_on_c, 0, 70, 113
2, 38674, Note_off_c, 0, 70, 113
2, 38687, Note_off_c, 0, 66, 111
2, 38687, Note_off_c, 0, 61, 115
2, 38687, Note_off_c, 0, 54, 115
2, 38688, Note_on_c, 0, 53, 103
2, 38688, Note_on_c, 0, 60, 113
2, 38688, Note_on_c, 0, 65, 117
2, 38688, Note_on_c, 0, 70, 111
2, 38879, Note_off_c, 0, 70, 111
2, 38880, Note_on_c, 0, 69, 111
2, 39050, Note_off_c, 0, 69, 111
2, 39071, Note_off_c, 0, 65, 117
2, 39071, Note_off_c, 0, 60, 113
2, 39071, Note_off_c, 0, 53, 103
2, 39072, Note_on_c, 0, 52, 109
2, 39072, Note_on_c, 0, 59, 115
2, 39072, Note_on_c, 0, 64, 113
2, 39072, Note_on_c, 0, 69, 109
2, 39263, Note_off_c, 0, 69, 109
2, 39264, Note_on_c, 0, 68, 115
2, 39431, Note_off_c, 0, 68, 115
2, 39455, Note_off_c, 0, 64, 113
2, 39455, Note_off_c, 0, 59, 115
2, 39455, Note_off_c, 0, 52, 109
2, 39456, Note_on_c, 0, 51, 115
2, 39456, Note_on_c, 0, 58, 117
2, 39456, Note_on_c, 0, 63, 109
2, 39456, Note_on_c, 0, 68, 111
2, 39647, Note_off_c, 0, 68, 111
2, 39648, Note_on_c, 0, 67, 109
2, 39811, Note_off_c, 0, 67, 109
2, 39839, Note_off_c, 0, 63, 109
2, 39839, Note_off_c, 0, 58, 117
2, 39839, Note_off_c, 0, 51, 115
2, 39840, Note_on_c, 0, 50, 107
2, 39840, Note_on_c, 0, 57, 115
2, 39840, Note_on_c, 0, 62, 109
2, 39840, Note_on_c, 0, 67, 107
2, 40031, Note_off_c, 0, 67, 107
2, 40032, Note_on_c, 0, 66, 113
2, 40187, Note_off_c, 0, 66, 113
2, 40223, Note_off_c, 0, 62, 109
2, 40223, Note_off_c, 0, 57, 115
2, 40223, Note_off_c, 0, 50, 107
2, 40224, Note_on_c, 0, 49, 115
2, 40224, Note_on_c, 0, 56, 115
2, 40224, Note_on_c, 0, 61, 107
2, 40224, Note_on_c, 0, 66, 113
2, 40390, Note_off_c, 0, 66, 113
2, 40415, Note_off_c, 0, 61, 107
2, 40415, Note_off_c, 0, 56, 115
2, 40415, Note_off_c, 0, 49, 115
2, 40416, Note_on_c, 0, 65, 107
2, 40511, Note_off_c, 0, 65, 107
2, 40512, Note_on_c, 0, 42, 111
2, 40512, Note_on_c, 0, 56, 115
2, 40512, Note_on_c, 0, 61, 107
2, 40512, Note_on_c, 0, 63, 111
2, 40642, Note_off_c, 0, 42, 111
2, 40697, Note_off_c, 0, 61, 107
2, 40699, Note_off_c, 0, 56, 115
2, 40701, Note_off_c, 0, 63, 111
2, 40704, Note_on_c, 0, 30, 117
2, 40802, Note_off_c, 0, 30, 117
2, 47616, Note_on_c, 0, 39, 112
2, 47736, Note_off_c, 0, 39, 112
2, 47808, Note_on_c, 0, 39, 110
2, 47856, Note_on_c, 0, 51, 104
2, 47858, Note_off_c, 0, 39, 110
2, 47894, Note_off_c, 0, 51, 104
2, 47904, Note_on_c, 0, 63, 108
2, 47904, Note_on_c, 0, 66, 112
2, 47904, Note_on_c, 0, 70, 108
2, 47942, Note_off_c, 0, 70, 108
2, 47944, Note_off_c, 0, 63, 108
2, 47945, Note_off_c, 0, 66, 112
2, 48000, Note_on_c, 0, 62, 112
2, 48000, Note_on_c, 0, 66, 108
2, 48000, Note_on_c, 0, 70, 110
2, 48126, Note_off_c, 0, 70, 110
2, 48130, Note_off_c, 0, 62, 112
2, 48132, Note_off_c, 0, 66, 108
2, 48144, Note_on_c, 0, 62, 104
2, 48144, Note_on_c, 0, 66, 106
2, 48144, Note_on_c, 0, 70, 108
2, 48226, Note_off_c, 0, 70, 108
2, 48230, Note_off_c, 0, 62, 104
2, 48244, Note_off_c, 0, 66, 106
2, 48288, Note_on_c, 0, 62, 110
2, 48288, Note_on_c, 0, 66, 110
2, 48288, Note_on_c, 0, 70, 110
2, 48350, Note_off_c, 0, 70, 110
2, 48364, Note_off_c, 0, 62, 110
2, 48365, Note_off_c, 0, 66, 110
2, 48384, Note_on_c, 0, 39, 110
2, 48503, Note_off_c, 0, 39, 110
2, 48576, Note_on_c, 0, 39, 106
2, 48624, Note_on_c, 0, 51, 104
2, 48628, Note_off_c, 0, 39, 106
2, 48665, Note_off_c, 0, 51, 104
2, 48672, Note_on_c, 0, 61, 108
2, 48672, Note_on_c, 0, 66, 102
2, 48672, Note_on_c, 0, 70, 106
2, 48708, Note_off_c, 0, 61, 108
2, 48710, Note_off_c, 0, 66, 102
2, 48711, Note_off_c, 0, 70, 106
2, 48768, Note_on_c, 0, 60, 108
2, 48768, Note_on_c, 0, 63, 110
2, 48768, Note_on_c, 0, 68, 108
2, 48883, Note_off_c, 0, 60, 108
2, 48884, Note_off_c, 0, 68, 108
2, 48889, Note_off_c, 0, 63, 110
2, 48912, Note_on_c, 0, 60, 100
2, 48912, Note_on_c, 0, 63, 108
2, 48912, Note_on_c, 0, 68, 108
2, 49006, Note_off_c, 0, 60, 100
2, 49012, Note_off_c, 0, 68, 108
2, 49016, Note_off_c, 0, 63, 108
2, 49056, Note_on_c, 0, 60, 108
2, 49056, Note_on_c, 0, 63, 106
2, 49056, Note_on_c, 0, 66, 84
2, 49056, Note_on_c, 0, 68, 112
2, 49067, Note_off_c, 0, 66, 84
2, 49120, Note_off_c, 0, 68, 112
2, 49120, Note_off_c, 0, 63, 106
2, 49122, Note_off_c, 0, 60, 108
2, 49152, Note_on_c, 0, 42, 110
2, 49273, Note_off_c, 0, 42, 110
2, 49344, Note_on_c, 0, 42, 108
2, 49392, Note_on_c, 0, 54, 102
2, 49400, Note_off_c, 0, 42, 108
2, 49428, Note_off_c, 0, 54, 102
2, 49440, Note_on_c, 0, 59, 112
2, 49440, Note_on_c, 0, 64, 112
2, 49440, Note_on_c, 0, 68, 104
2, 49494, Note_off_c, 0, 68, 104
2, 49503, Note_off_c, 0, 59, 112
2, 49504, Note_off_c, 0, 64, 112
2, 49536, Note_on_c, 0, 59, 114
2, 49536, Note_on_c, 0, 64, 112
2, 49536, Note_on_c, 0, 68, 106
2, 49645, Note_off_c, 0, 68, 106
2, 49650, Note_off_c, 0, 59, 114
2, 49657, Note_off_c, 0, 64, 112
2, 49680, Note_on_c, 0, 59, 108
2, 49680, Note_on_c, 0, 64, 94
2, 49680, Note_on_c, 0, 68, 106
2, 49783, Note_off_c, 0, 68, 106
2, 49790, Note_off_c, 0, 59, 108
2, 49801, Note_off_c, 0, 64, 94
2, 49824, Note_on_c, 0, 59, 108
2, 49824, Note_on_c, 0, 64, 100
2, 49824, Note_on_c, 0, 68, 108
2, 49879, Note_off_c, 0, 59, 108
2, 49884, Note_off_c, 0, 68, 108
2, 49886, Note_off_c, 0, 64, 100
2, 49920, Note_on_c, 0, 54, 106
2, 49920, Note_on_c, 0, 58, 104
2, 49920, Note_on_c, 0, 63, 106
2, 49948, Note_off_c, 0, 54, 106
2, 50015, Note_off_c, 0, 63, 106
2, 50022, Note_off_c, 0, 58, 104
2, 50112, Note_on_c, 0, 54, 102
2, 50112, Note_on_c, 0, 58, 106
2, 50112, Note_on_c, 0, 63, 110
2, 50211, Note_off_c, 0, 54, 102
2, 50220, Note_off_c, 0, 63, 110
2, 50226, Note_off_c, 0, 58, 106
2, 50256, Note_on_c, 0, 54, 106
2, 50256, Note_on_c, 0, 58, 104
2, 50256, Note_on_c, 0, 63, 106
2, 50316, Note_off_c, 0, 63, 106
2, 50319, Note_off_c, 0, 54, 106
2, 50320, Note_off_c, 0, 58, 104
2, 50400, Note_on_c, 0, 54, 106
2, 50400, Note_on_c, 0, 58, 108
2, 50400, Note_on_c, 0, 63, 110
2, 50512, Note_off_c, 0, 54, 106
2, 50514, Note_off_c, 0, 63, 110
2, 50519, Note_off_c, 0, 58, 108
2, 50544, Note_on_c, 0, 54, 106
2, 50544, Note_on_c, 0, 58, 106
2, 50544, Note_on_c, 0, 63, 108
2, 50680, Note_off_c, 0, 63, 108
2, 50684, Note_off_c, 0, 54, 106
2, 50685, Note_off_c, 0, 58, 106
2, 50688, Note_on_c, 0, 52, 117
2, 50688, Note_on_c, 0, 56, 113
2, 50688, Note_on_c, 0, 62, 117
2, 50739, Note_off_c, 0, 56, 113
2, 50744, Note_off_c, 0, 52, 117
2, 50746, Note_off_c, 0, 62, 117
2, 50880, Note_on_c, 0, 52, 119
2, 50880, Note_on_c, 0, 56, 111
2, 50880, Note_on_c, 0, 62, 117
2, 50922, Note_off_c, 0, 52, 119
2, 50924, Note_off_c, 0, 56, 111
2, 50933, Note_off_c, 0, 62, 117
2, 51024, Note_on_c, 0, 52, 113
2, 51024, Note_on_c, 0, 56, 113
2, 51024, Note_on_c, 0, 62, 117
2, 51070, Note_off_c, 0, 56, 113
2, 51070, Note_off_c, 0, 52, 113
2, 51077, Note_off_c, 0, 62, 117
2, 51168, Note_on_c, 0, 52, 117
2, 51168, Note_on_c, 0, 56, 113
2, 51168, Note_on_c, 0, 62, 117
2, 51263, Note_off_c, 0, 52, 117
2, 51283, Note_off_c, 0, 56, 113
2, 51284, Note_off_c, 0, 62, 117
2, 51360, Note_on_c, 0, 40, 111
2, 51360, Note_on_c, 0, 56, 117
2, 51360, Note_on_c, 0, 62, 119
2, 51408, Note_on_c, 0, 52, 115
2, 51421, Note_off_c, 0, 40, 111
2, 51434, Note_off_c, 0, 56, 117
2, 51444, Note_off_c, 0, 62, 119
2, 51449, Note_off_c, 0, 52, 115
2, 51456, Note_on_c, 0, 42, 119
2, 51549, Note_off_c, 0, 42, 119
2, 51552, Note_on_c, 0, 54, 117
2, 51552, Note_on_c, 0, 58, 107
2, 51552, Note_on_c, 0, 61, 113
2, 51648, Note_on_c, 0, 42, 117
2, 51652, Note_off_c, 0, 54, 117
2, 51656, Note_off_c, 0, 58, 107
2, 51657, Note_off_c, 0, 61, 113
2, 51691, Note_off_c, 0, 42, 117
2, 51696, Note_on_c, 0, 54, 107
2, 51696, Note_on_c, 0, 58, 107
2, 51696, Note_on_c, 0, 61, 113
2, 51792, Note_on_c, 0, 42, 115
2, 51793, Note_off_c, 0, 54, 107
2, 51800, Note_off_c, 0, 58, 107
2, 51802, Note_off_c, 0, 61, 113
2, 51828, Note_off_c, 0, 42, 115
2, 51840, Note_on_c, 0, 54, 117
2, 51840, Note_on_c, 0, 58, 109
2, 51840, Note_on_c, 0, 61, 113
2, 51930, Note_off_c, 0, 54, 117
2, 51936, Note_on_c, 0, 42, 117
2, 51942, Note_off_c, 0, 61, 113
2, 51942, Note_off_c, 0, 58, 109
2, 51973, Note_off_c, 0, 42, 117
2, 51984, Note_on_c, 0, 54, 115
2, 51984, Note_on_c, 0, 58, 109
2, 51984, Note_on_c, 0, 61, 111
2, 52055, Note_off_c, 0, 54, 115
2, 52070, Note_off_c, 0, 58, 109
2, 52077, Note_off_c, 0, 61, 111
2, 52080, Note_on_c, 0, 42, 113
2, 52128, Note_on_c, 0, 54, 115
2, 52128, Note_on_c, 0, 56, 117
2, 52128, Note_on_c, 0, 61, 119
2, 52128, Note_on_c, 0, 64, 115
2, 52138, Note_off_c, 0, 42, 113
2, 52224, Note_on_c, 0, 42, 115
2, 52230, Note_off_c, 0, 54, 115
2, 52247, Note_off_c, 0, 56, 117
2, 52253, Note_off_c, 0, 61, 119
2, 52259, Note_off_c, 0, 64, 115
2, 52317, Note_off_c, 0, 42, 115
2, 52320, Note_on_c, 0, 54, 111
2, 52320, Note_on_c, 0, 56, 115
2, 52320, Note_on_c, 0, 61, 119
2, 52320, Note_on_c, 0, 64, 117
2, 52414, Note_off_c, 0, 64, 117
2, 52416, Note_on_c, 0, 42, 113
2, 52416, Note_on_c, 0, 44, 81
2, 52420, Note_off_c, 0, 54, 111
2, 52421, Note_off_c, 0, 56, 115
2, 52424, Note_off_c, 0, 61, 119
2, 52427, Note_off_c, 0, 44, 81
2, 52463, Note_off_c, 0, 42, 113
2, 52464, Note_on_c, 0, 54, 109
2, 52464, Note_on_c, 0, 56, 113
2, 52464, Note_on_c, 0, 61, 113
2, 52464, Note_on_c, 0, 64, 113
2, 52551, Note_off_c, 0, 64, 113
2, 52557, Note_off_c, 0, 54, 109
2, 52559, Note_off_c, 0, 56, 113
2, 52560, Note_on_c, 0, 42, 113
2, 52563, Note_off_c, 0, 61, 113
2, 52605, Note_off_c, 0, 42, 113
2, 52608, Note_on_c, 0, 54, 109
2, 52608, Note_on_c, 0, 56, 115
2, 52608, Note_on_c, 0, 61, 117
2, 52608, Note_on_c, 0, 64, 117
2, 52696, Note_off_c, 0, 64, 117
2, 52703, Note_off_c, 0, 56, 115
2, 52704, Note_on_c, 0, 42, 111
2, 52706, Note_off_c, 0, 61, 117
2, 52708, Note_off_c, 0, 54, 109
2, 52752, Note_on_c, 0, 54, 107
2, 52752, Note_on_c, 0, 56, 115
2, 52752, Note_on_c, 0, 61, 111
2, 52752, Note_on_c, 0, 64, 117
2, 52760, Note_off_c, 0, 42, 111
2, 52848, Note_on_c, 0, 42, 111
2, 52856, Note_off_c, 0, 64, 117
2, 52859, Note_off_c, 0, 56, 115
2, 52862, Note_off_c, 0, 54, 107
2, 52865, Note_off_c, 0, 61, 111
2, 52896, Note_on_c, 0, 54, 113
2, 52896, Note_on_c, 0, 56, 119
2, 52896, Note_on_c, 0, 61, 115
2, 52896, Note_on_c, 0, 64, 117
2, 52902, Note_off_c, 0, 42, 111
2, 52965, Note_off_c, 0, 56, 119
2, 52976, Note_off_c, 0, 61, 115
2, 52980, Note_off_c, 0, 54, 113
2, 52983, Note_off_c, 0, 64, 117
2, 52992, Note_on_c, 0, 46, 115
2, 53088, Note_on_c, 0, 58, 113
2, 53088, Note_on_c, 0, 61, 111
2, 53088, Note_on_c, 0, 65, 119
2, 53096, Note_off_c, 0, 46, 115
2, 53184, Note_off_c, 0, 58, 113
2, 53184, Note_on_c, 0, 46, 117
2, 53185, Note_off_c, 0, 65, 119
2, 53187, Note_off_c, 0, 61, 111
2, 53228, Note_off_c, 0, 46, 117
2, 53232, Note_on_c, 0, 58, 113
2, 53232, Note_on_c, 0, 61, 109
2, 53232, Note_on_c, 0, 65, 117
2, 53324, Note_off_c, 0, 65, 117
2, 53328, Note_on_c, 0, 46, 117
2, 53333, Note_off_c, 0, 58, 113
2, 53338, Note_off_c, 0, 61, 109
2, 53363, Note_off_c, 0, 46, 117
2, 53376, Note_on_c, 0, 58, 113
2, 53376, Note_on_c, 0, 61, 113
2, 53376, Note_on_c, 0, 65, 117
2, 53472, Note_on_c, 0, 46, 115
2, 53475, Note_off_c, 0, 65, 117
2, 53485, Note_off_c, 0, 58, 113
2, 53488, Note_off_c, 0, 61, 113
2, 53513, Note_off_c, 0, 46, 115
2, 53520, Note_on_c, 0, 58, 113
2, 53520, Note_on_c, 0, 61, 113
2, 53520, Note_on_c, 0, 65, 119
2, 53593, Note_off_c, 0, 65, 119
2, 53610, Note_off_c, 0, 61, 113
2, 53610, Note_off_c, 0, 58, 113
2, 53616, Note_on_c, 0, 46, 117
2, 53653, Note_off_c, 0, 46, 117
2, 53664, Note_on_c, 0, 54, 117
2, 53664, Note_on_c, 0, 58, 111
2, 53664, Note_on_c, 0, 63, 109
2, 53752, Note_off_c, 0, 54, 117
2, 53757, Note_off_c, 0, 58, 111
2, 53760, Note_on_c, 0, 47, 119
2, 53761, Note_off_c, 0, 63, 109
2, 53856, Note_on_c, 0, 54, 115
2, 53856, Note_on_c, 0, 58, 111
2, 53856, Note_on_c, 0, 63, 113
2, 53863, Note_off_c, 0, 47, 119
2, 53951, Note_off_c, 0, 54, 115
2, 53952, Note_on_c, 0, 47, 119
2, 53957, Note_off_c, 0, 63, 113
2, 53958, Note_off_c, 0, 58, 111
2, 54000, Note_on_c, 0, 54, 115
2, 54000, Note_on_c, 0, 58, 111
2, 54000, Note_on_c, 0, 63, 111
2, 54005, Note_off_c, 0, 47, 119
2, 54085, Note_off_c, 0, 54, 115
2, 54089, Note_off_c, 0, 63, 111
2, 54090, Note_off_c, 0, 58, 111
2, 54096, Note_on_c, 0, 47, 119
2, 54137, Note_off_c, 0, 47, 119
2, 54144, Note_on_c, 0, 54, 117
2, 54144, Note_on_c, 0, 58, 109
2, 54144, Note_on_c, 0, 63, 115
2, 54240, Note_on_c, 0, 47, 119
2, 54242, Note_off_c, 0, 54, 117
2, 54249, Note_off_c, 0, 63, 115
2, 54251, Note_off_c, 0, 58, 109
2, 54286, Note_off_c, 0, 47, 119
2, 54288, Note_on_c, 0, 54, 115
2, 54288, Note_on_c, 0, 58, 109
2, 54288, Note_on_c, 0, 63, 115
2, 54380, Note_off_c, 0, 54, 115
2, 54384, Note_on_c, 0, 47, 119
2, 54388, Note_off_c, 0, 63, 115
2, 54388, Note_off_c, 0, 58, 109
2, 54424, Note_off_c, 0, 47, 119
2, 54432, Note_on_c, 0, 54, 115
2, 54432, Note_on_c, 0, 58, 115
2, 54432, Note_on_c, 0, 63, 117
2, 54503, Note_off_c, 0, 58, 115
2, 54506, Note_off_c, 0, 54, 115
2, 54517, Note_off_c, 0, 63, 117
2, 54528, Note_on_c, 0, 44, 115
2, 54621, Note_off_c, 0, 44, 115
2, 54624, Note_on_c, 0, 60, 117
2, 54624, Note_on_c, 0, 63, 113
2, 54624, Note_on_c, 0, 66, 111
2, 54716, Note_off_c, 0, 66, 111
2, 54720, Note_on_c, 0, 44, 113
2, 54728, Note_off_c, 0, 60, 117
2, 54735, Note_off_c, 0, 63, 113
2, 54768, Note_on_c, 0, 60, 113
2, 54768, Note_on_c, 0, 63, 109
2, 54768, Note_on_c, 0, 66, 115
2, 54772, Note_off_c, 0, 44, 113
2, 54855, Note_off_c, 0, 66, 115
2, 54862, Note_off_c, 0, 60, 113
2, 54864, Note_on_c, 0, 44, 113
2, 54867, Note_off_c, 0, 63, 109
2, 54904, Note_off_c, 0, 44, 113
2, 54912, Note_on_c, 0, 60, 113
2, 54912, Note_on_c, 0, 63, 107
2, 54912, Note_on_c, 0, 66, 115
2, 55008, Note_off_c, 0, 66, 115
2, 55008, Note_off_c, 0, 60, 113
2, 55008, Note_on_c, 0, 44, 111
2, 55019, Note_off_c, 0, 63, 107
2, 55049, Note_off_c, 0, 44, 111
2, 55056, Note_on_c, 0, 56, 111
2, 55056, Note_on_c, 0, 60, 107
2, 55056, Note_on_c, 0, 63, 107
2, 55152, Note_off_c, 0, 56, 111
2, 55152, Note_on_c, 0, 44, 111
2, 55160, Note_off_c, 0, 60, 107
2, 55166, Note_off_c, 0, 63, 107
2, 55190, Note_off_c, 0, 44, 111
2, 55200, Note_on_c, 0, 60, 117
2, 55200, Note_on_c, 0, 63, 111
2, 55200, Note_on_c, 0, 66, 113
2, 55291, Note_off_c, 0, 60, 117
2, 55296, Note_on_c, 0, 49, 119
2, 55297, Note_off_c, 0, 63, 111
2, 55303, Note_off_c, 0, 66, 113
2, 55388, Note_off_c, 0, 49, 119
2, 55392, Note_on_c, 0, 59, 119
2, 55392, Note_on_c, 0, 63, 113
2, 55392, Note_on_c, 0, 66, 113
2, 55488, Note_on_c, 0, 49, 117
2, 55491, Note_off_c, 0, 66, 113
2, 55495, Note_off_c, 0, 63, 113
2, 55495, Note_off_c, 0, 59, 119
2, 55527, Note_off_c, 0, 49, 117
2, 55536, Note_on_c, 0, 59, 115
2, 55536, Note_on_c, 0, 63, 111
2, 55536, Note_on_c, 0, 66, 113
2, 55631, Note_off_c, 0, 59, 115
2, 55632, Note_on_c, 0, 49, 115
2, 55638, Note_off_c, 0, 63, 111
2, 55640, Note_off_c, 0, 66, 113
2, 55668, Note_off_c, 0, 49, 115
2, 55680, Note_on_c, 0, 59, 117
2, 55680, Note_on_c, 0, 63, 113
2, 55680, Note_on_c, 0, 66, 115
2, 55776, Note_on_c, 0, 49, 113
2, 55777, Note_off_c, 0, 59, 117
2, 55788, Note_off_c, 0, 66, 115
2, 55788, Note_off_c, 0, 63, 113
2, 55818, Note_off_c, 0, 49, 113
2, 55824, Note_on_c, 0, 59, 119
2, 55824, Note_on_c, 0, 63, 111
2, 55824, Note_on_c, 0, 66, 113
2, 55920, Note_on_c, 0, 49, 111
2, 55925, Note_off_c, 0, 59, 119
2, 55933, Note_off_c, 0, 66, 113
2, 55937, Note_off_c, 0, 63, 111
2, 55959, Note_off_c, 0, 49, 111
2, 55968, Note_on_c, 0, 59, 117
2, 55968, Note_on_c, 0, 63, 113
2, 55968, Note_on_c, 0, 66, 113
2, 56038, Note_off_c, 0, 59, 117
2, 56045, Note_off_c, 0, 63, 113
2, 56056, Note_off_c, 0, 66, 113
2, 56064, Note_on_c, 0, 42, 113
2, 56160, Note_on_c, 0, 58, 115
2, 56160, Note_on_c, 0, 61, 111
2, 56160, Note_on_c, 0, 66, 113
2, 56170, Note_off_c, 0, 42, 113
2, 56256, Note_off_c, 0, 66, 113
2, 56256, Note_on_c, 0, 42, 117
2, 56261, Note_off_c, 0, 58, 115
2, 56269, Note_off_c, 0, 61, 111
2, 56304, Note_on_c, 0, 58, 113
2, 56304, Note_on_c, 0, 61, 111
2, 56304, Note_on_c, 0, 66, 111
2, 56309, Note_off_c, 0, 42, 117
2, 56388, Note_off_c, 0, 66, 111
2, 56397, Note_off_c, 0, 58, 113
2, 56400, Note_on_c, 0, 42, 115
2, 56405, Note_off_c, 0, 61, 111
2, 56448, Note_off_c, 0, 42, 115
2, 56448, Note_on_c, 0, 58, 111
2, 56448, Note_on_c, 0, 61, 107
2, 56448, Note_on_c, 0, 66, 111
2, 56544, Note_on_c, 0, 42, 115
2, 56546, Note_off_c, 0, 66, 111
2, 56548, Note_off_c, 0, 58, 111
2, 56563, Note_off_c, 0, 61, 107
2, 56592, Note_on_c, 0, 58, 111
2, 56592, Note_on_c, 0, 61, 109
2, 56592, Note_on_c, 0, 66, 111
2, 56599, Note_off_c, 0, 42, 115
2, 56683, Note_off_c, 0, 66, 111
2, 56686, Note_off_c, 0, 58, 111
2, 56688, Note_on_c, 0, 42, 115
2, 56698, Note_off_c, 0, 61, 109
2, 56735, Note_off_c, 0, 42, 115
2, 56736, Note_on_c, 0, 58, 111
2, 56736, Note_on_c, 0, 61, 109
2, 56736, Note_on_c, 0, 66, 111
2, 56826, Note_off_c, 0, 58, 111
2, 56832, Note_off_c, 0, 66, 111
2, 56832, Note_on_c, 0, 46, 113
2, 56834, Note_off_c, 0, 61, 109
2, 56928, Note_on_c, 0, 58, 115
2, 56928, Note_on_c, 0, 62, 115
2, 56928, Note_on_c, 0, 66, 109
2, 56943, Note_off_c, 0, 46, 113
2, 57024, Note_on_c, 0, 46, 111
2, 57025, Note_off_c, 0, 58, 115
2, 57028, Note_off_c, 0, 66, 109
2, 57035, Note_off_c, 0, 62, 115
2, 57072, Note_off_c, 0, 46, 111
2, 57072, Note_on_c, 0, 58, 115
2, 57072, Note_on_c, 0, 62, 113
2, 57072, Note_on_c, 0, 66, 113
2, 57168, Note_on_c, 0, 46, 117
2, 57169, Note_off_c, 0, 58, 115
2, 57170, Note_off_c, 0, 66, 113
2, 57176, Note_off_c, 0, 62, 113
2, 57208, Note_off_c, 0, 46, 117
2, 57216, Note_on_c, 0, 58, 115
2, 57216, Note_on_c, 0, 62, 113
2, 57216, Note_on_c, 0, 66, 111
2, 57312, Note_on_c, 0, 46, 117
2, 57313, Note_off_c, 0, 66, 111
2, 57313, Note_off_c, 0, 58, 115
2, 57319, Note_off_c, 0, 62, 113
2, 57353, Note_off_c, 0, 46, 117
2, 57360, Note_on_c, 0, 58, 113
2, 57360, Note_on_c, 0, 62, 115
2, 57360, Note_on_c, 0, 66, 113
2, 57456, Note_on_c, 0, 46, 117
2, 57469, Note_off_c, 0, 66, 113
2, 57469, Note_off_c, 0, 58, 113
2, 57477, Note_off_c, 0, 62, 115
2, 57492, Note_off_c, 0, 46, 117
2, 57504, Note_on_c, 0, 58, 115
2, 57504, Note_on_c, 0, 62, 115
2, 57504, Note_on_c, 0, 66, 111
2, 57565, Note_off_c, 0, 58, 115
2, 57577, Note_off_c, 0, 62, 115
2, 57581, Note_off_c, 0, 66, 111
2, 57600, Note_on_c, 0, 39, 113
2, 57709, Note_off_c, 0, 39, 113
2, 57792, Note_on_c, 0, 39, 115
2, 57839, Note_off_c, 0, 39, 115
2, 57840, Note_on_c, 0, 51, 113
2, 57878, Note_off_c, 0, 51, 113
2, 57888, Note_on_c, 0, 58, 117
2, 57888, Note_on_c, 0, 63, 109
2, 57888, Note_on_c, 0, 66, 109
2, 57935, Note_off_c, 0, 58, 117
2, 57944, Note_off_c, 0, 66, 109
2, 57953, Note_off_c, 0, 63, 109
2, 57984, Note_on_c, 0, 58, 113
2, 57984, Note_on_c, 0, 62, 115
2, 57984, Note_on_c, 0, 66, 109
2, 58093, Note_off_c, 0, 58, 113
2, 58096, Note_off_c, 0, 66, 109
2, 58105, Note_off_c, 0, 62, 115
2, 58128, Note_on_c, 0, 58, 115
2, 58128, Note_on_c, 0, 62, 107
2, 58128, Note_on_c, 0, 66, 111
2, 58226, Note_off_c, 0, 58, 115
2, 58231, Note_off_c, 0, 66, 111
2, 58236, Note_off_c, 0, 62, 107
2, 58272, Note_on_c, 0, 58, 109
2, 58272, Note_on_c, 0, 62, 115
2, 58272, Note_on_c, 0, 66, 109
2, 58307, Note_off_c, 0, 58, 109
2, 58313, Note_off_c, 0, 62, 115
2, 58320, Note_off_c, 0, 66, 109
2, 58368, Note_on_c, 0, 39, 115
2, 58481, Note_off_c, 0, 39, 115
2, 58560, Note_on_c, 0, 39, 113
2, 58607, Note_off_c, 0, 39, 113
2, 58608, Note_on_c, 0, 51, 111
2, 58649, Note_off_c, 0, 51, 111
2, 58656, Note_on_c, 0, 58, 113
2, 58656, Note_on_c, 0, 61, 109
2, 58656, Note_on_c, 0, 66, 107
2, 58696, Note_off_c, 0, 58, 113
2, 58699, Note_off_c, 0, 66, 107
2, 58713, Note_off_c, 0, 61, 109
2, 58752, Note_on_c, 0, 56, 117
2, 58752, Note_on_c, 0, 60, 113
2, 58752, Note_on_c, 0, 66, 111
2, 58858, Note_off_c, 0, 66, 111
2, 58861, Note_off_c, 0, 56, 117
2, 58874, Note_off_c, 0, 60, 113
2, 58896, Note_on_c, 0, 56, 115
2, 58896, Note_on_c, 0, 60, 87
2, 58896, Note_on_c, 0, 66, 113
2, 58975, Note_off_c, 0, 66, 113
2, 58979, Note_off_c, 0, 56, 115
2, 58992, Note_off_c, 0, 60, 87
2, 59040, Note_on_c, 0, 56, 113
2, 59040, Note_on_c, 0, 60, 113
2, 59040, Note_on_c, 0, 66, 109
2, 59085, Note_off_c, 0, 56, 113
2, 59097, Note_off_c, 0, 60, 113
2, 59100, Note_off_c, 0, 66, 109
2, 59136, Note_on_c, 0, 42, 115
2, 59245, Note_off_c, 0, 42, 115
2, 59328, Note_on_c, 0, 42, 111
2, 59375, Note_off_c, 0, 42, 111
2, 59376, Note_on_c, 0, 54, 109
2, 59417, Note_off_c, 0, 54, 109
2, 59424, Note_on_c, 0, 56, 113
2, 59424, Note_on_c, 0, 59, 117
2, 59424, Note_on_c, 0, 64, 117
2, 59458, Note_off_c, 0, 56, 113
2, 59462, Note_off_c, 0, 59, 117
2, 59464, Note_off_c, 0, 64, 117
2, 59520, Note_on_c, 0, 56, 115
2, 59520, Note_on_c, 0, 59, 117
2, 59520, Note_on_c, 0, 64, 119
2, 59621, Note_off_c, 0, 64, 119
2, 59626, Note_off_c, 0, 56, 115
2, 59631, Note_off_c, 0, 59, 117
2, 59664, Note_on_c, 0, 56, 113
2, 59664, Note_on_c, 0, 59, 111
2, 59664, Note_on_c, 0, 64, 117
2, 59752, Note_off_c, 0, 64, 117
2, 59753, Note_off_c, 0, 56, 113
2, 59759, Note_off_c, 0, 59, 111
2, 59808, Note_on_c, 0, 56, 113
2, 59808, Note_on_c, 0, 59, 113
2, 59808, Note_on_c, 0, 64, 119
2, 59862, Note_off_c, 0, 56, 113
2, 59876, Note_off_c, 0, 59, 113
2, 59877, Note_off_c, 0, 64, 119
2, 59904, Note_on_c, 0, 54, 107
2, 59904, Note_on_c, 0, 58, 111
2, 59904, Note_on_c, 0, 63, 113
2, 60028, Note_off_c, 0, 54, 107
2, 60029, Note_off_c, 0, 63, 113
2, 60038, Note_off_c, 0, 58, 111
2, 60096, Note_on_c, 0, 54, 113
2, 60096, Note_on_c, 0, 58, 111
2, 60096, Note_on_c, 0, 63, 111
2, 60187, Note_off_c, 0, 63, 111
2, 60192, Note_off_c, 0, 54, 113
2, 60202, Note_off_c, 0, 58, 111
2, 60240, Note_on_c, 0, 58, 117
2, 60240, Note_on_c, 0, 62, 119
2, 60240, Note_on_c, 0, 66, 113
2, 60240, Note_on_c, 0, 70, 113
2, 60336, Note_off_c, 0, 62, 119
2, 60337, Note_off_c, 0, 66, 113
2, 60337, Note_off_c, 0, 58, 117
2, 60338, Note_off_c, 0, 70, 113
2, 60384, Note_on_c, 0, 58, 119
2, 60384, Note_on_c, 0, 62, 115
2, 60384, Note_on_c, 0, 66, 111
2, 60384, Note_on_c, 0, 70, 113
2, 60454, Note_off_c, 0, 62, 115
2, 60456, Note_off_c, 0, 66, 111
2, 60464, Note_off_c, 0, 58, 119
2, 60468, Note_off_c, 0, 70, 113
2, 60480, Note_on_c, 0, 46, 113
2, 60527, Note_off_c, 0, 46, 113
2, 60528, Note_on_c, 0, 58, 115
2, 60569, Note_off_c, 0, 58, 115
2, 60576, Note_on_c, 0, 38, 117
2, 60671, Note_off_c, 0, 38, 117
2, 60672, Note_on_c, 0, 39, 113
2, 60781, Note_off_c, 0, 39, 113
2, 60864, Note_on_c, 0, 39, 115
2, 60911, Note_off_c, 0, 39, 115
2, 60912, Note_on_c, 0, 51, 113
2, 60950, Note_off_c, 0, 51, 113
2, 60960, Note_on_c, 0, 58, 117
2, 60960, Note_on_c, 0, 63, 109
2, 60960, Note_on_c, 0, 66, 109
2, 61007, Note_off_c, 0, 58, 117
2, 61016, Note_off_c, 0, 66, 109
2, 61025, Note_off_c, 0, 63, 109
2, 61056, Note_on_c, 0, 58, 113
2, 61056, Note_on_c, 0, 62, 115
2, 61056, Note_on_c, 0, 66, 109
2, 61165, Note_off_c, 0, 58, 113
2, 61168, Note_off_c, 0, 66, 109
2, 61177, Note_off_c, 0, 62, 115
2, 61200, Note_on_c, 0, 58, 115
2, 61200, Note_on_c, 0, 62, 107
2, 61200, Note_on_c, 0, 66, 111
2, 61298, Note_off_c, 0, 58, 115
2, 61303, Note_off_c, 0, 66, 111
2, 61308, Note_off_c, 0, 62, 107
2, 61344, Note_on_c, 0, 58, 109
2, 61344, Note_on_c, 0, 62, 115
2, 61344, Note_on_c, 0, 66, 109
2, 61379, Note_off_c, 0, 58, 109
2, 61385, Note_off_c, 0, 62, 115
2, 61392, Note_off_c, 0, 66, 109
2, 61440, Note_on_c, 0, 39, 115
2, 61553, Note_off_c, 0, 39, 115
2, 61632, Note_on_c, 0, 39, 113
2, 61679, Note_off_c, 0, 39, 113
2, 61680, Note_on_c, 0, 51, 111
2, 61721, Note_off_c, 0, 51, 111
2, 61728, Note_on_c, 0, 58, 113
2, 61728, Note_on_c, 0, 61, 109
2, 61728, Note_on_c, 0, 66, 107
2, 61768, Note_off_c, 0, 58, 113
2, 61771, Note_off_c, 0, 66, 107
2, 61785, Note_off_c, 0, 61, 109
2, 61824, Note_on_c, 0, 56, 117
2, 61824, Note_on_c, 0, 60, 113
2, 61824, Note_on_c, 0, 66, 111
2, 61930, Note_off_c, 0, 66, 111
2, 61933, Note_off_c, 0, 56, 117
2, 61946, Note_off_c, 0, 60, 113
2, 61968, Note_on_c, 0, 56, 115
2, 61968, Note_on_c, 0, 60, 87
2, 61968, Note_on_c, 0, 66, 113
2, 62047, Note_off_c, 0, 66, 113
2, 62051, Note_off_c, 0, 56, 115
2, 62064, Note_off_c, 0, 60, 87
2, 62112, Note_on_c, 0, 56, 113
2, 62112, Note_on_c, 0, 60, 113
2, 62112, Note_on_c, 0, 66, 109
2, 62157, Note_off_c, 0, 56, 113
2, 62169, Note_off_c, 0, 60, 113
2, 62172, Note_off_c, 0, 66, 109
2, 62208, Note_on_c, 0, 42, 115
2, 62317, Note_off_c, 0, 42, 115
2, 62400, Note_on_c, 0, 42, 111
2, 62447, Note_off_c, 0, 42, 111
2, 62448, Note_on_c, 0, 54, 109
2, 62489, Note_off_c, 0, 54, 109
2, 62496, Note_on_c, 0, 56, 113
2, 62496, Note_on_c, 0, 59, 117
2, 62496, Note_on_c, 0, 64, 117
2, 62530, Note_off_c, 0, 56, 113
2, 62534, Note_off_c, 0, 59, 117
2, 62536, Note_off_c, 0, 64, 117
2, 62592, Note_on_c, 0, 56, 115
2, 62592, Note_on_c, 0, 59, 117
2, 62592, Note_on_c, 0, 64, 119
2, 62693, Note_off_c, 0, 64, 119
2, 62698, Note_off_c, 0, 56, 115
2, 62703, Note_off_c, 0, 59, 117
2, 62736, Note_on_c, 0, 56, 113
2, 62736, Note_on_c, 0, 59, 111
2, 62736, Note_on_c, 0, 64, 117
2, 62824, Note_off_c, 0, 64, 117
2, 62825, Note_off_c, 0, 56, 113
2, 62831, Note_off_c, 0, 59, 111
2, 62880, Note_on_c, 0, 56, 113
2, 62880, Note_on_c, 0, 59, 113
2, 62880, Note_on_c, 0, 64, 119
2, 62934, Note_off_c, 0, 56, 113
2, 62948, Note_off_c, 0, 59, 113
2, 62949, Note_off_c, 0, 64, 119
2, 62976, Note_on_c, 0, 54, 109
2, 62976, Note_on_c, 0, 58, 109
2, 62976, Note_on_c, 0, 63, 113
2, 63061, Note_off_c, 0, 63, 113
2, 63088, Note_off_c, 0, 58, 109
2, 63094, Note_off_c, 0, 54, 109
2, 63168, Note_on_c, 0, 54, 113
2, 63168, Note_on_c, 0, 58, 111
2, 63168, Note_on_c, 0, 63, 115
2, 63287, Note_off_c, 0, 54, 113
2, 63288, Note_off_c, 0, 58, 111
2, 63299, Note_off_c, 0, 63, 115
2, 63312, Note_on_c, 0, 54, 109
2, 63312, Note_on_c, 0, 58, 107
2, 63312, Note_on_c, 0, 63, 109
2, 63410, Note_off_c, 0, 58, 107
2, 63411, Note_off_c, 0, 54, 109
2, 63423, Note_off_c, 0, 63, 109
2, 63456, Note_on_c, 0, 54, 107
2, 63456, Note_on_c, 0, 58, 107
2, 63456, Note_on_c, 0, 63, 111
2, 63527, Note_off_c, 0, 54, 107
2, 63530, Note_off_c, 0, 58, 107
2, 63532, Note_off_c, 0, 63, 111
2, 63552, Note_on_c, 0, 54, 111
2, 63552, Note_on_c, 0, 58, 113
2, 63552, Note_on_c, 0, 63, 117
2, 63616, Note_off_c, 0, 54, 111
2, 63619, Note_off_c, 0, 63, 117
2, 63620, Note_off_c, 0, 58, 113
2, 63648, Note_on_c, 0, 54, 111
2, 63648, Note_on_c, 0, 58, 113
2, 63648, Note_on_c, 0, 63, 113
2, 63693, Note_off_c, 0, 63, 113
2, 63697, Note_off_c, 0, 54, 111
2, 63701, Note_off_c, 0, 58, 113
2, 63744, Note_on_c, 0, 52, 117
2, 63744, Note_on_c, 0, 56, 113
2, 63744, Note_on_c, 0, 62, 117
2, 63795, Note_off_c, 0, 56, 113
2, 63800, Note_off_c, 0, 52, 117
2, 63802, Note_off_c, 0, 62, 117
2, 63936, Note_on_c, 0, 52, 119
2, 63936, Note_on_c, 0, 56, 111
2, 63936, Note_on_c, 0, 62, 117
2, 63978, Note_off_c, 0, 52, 119
2, 63980, Note_off_c, 0, 56, 111
2, 63989, Note_off_c, 0, 62, 117
2, 64080, Note_on_c, 0, 52, 113
2, 64080, Note_on_c, 0, 56, 113
2, 64080, Note_on_c, 0, 62, 117
2, 64126, Note_off_c, 0, 56, 113
2, 64126, Note_off_c, 0, 52, 113
2, 64133, Note_off_c, 0, 62, 117
2, 64224, Note_on_c, 0, 52, 117
2, 64224, Note_on_c, 0, 56, 113
2, 64224, Note_on_c, 0, 62, 117
2, 64319, Note_off_c, 0, 52, 117
2, 64339, Note_off_c, 0, 56, 113
2, 64340, Note_off_c, 0, 62, 117
2, 64416, Note_on_c, 0, 40, 111
2, 64416, Note_on_c, 0, 56, 117
2, 64416, Note_on_c, 0, 62, 119
2, 64464, Note_on_c, 0, 52, 115
2, 64477, Note_off_c, 0, 40, 111
2, 64490, Note_off_c, 0, 56, 117
2, 64500, Note_off_c, 0, 62, 119
2, 64505, Note_off_c, 0, 52, 115
2, 64512, Note_on_c, 0, 42, 119
2, 64605, Note_off_c, 0, 42, 119
2, 64608, Note_on_c, 0, 54, 117
2, 64608, Note_on_c, 0, 58, 107
2, 64608, Note_on_c, 0, 61, 113
2, 64704, Note_on_c, 0, 42, 117
2, 64708, Note_off_c, 0, 54, 117
2, 64712, Note_off_c, 0, 58, 107
2, 64713, Note_off_c, 0, 61, 113
2, 64747, Note_off_c, 0, 42, 117
2, 64752, Note_on_c, 0, 54, 107
2, 64752, Note_on_c, 0, 58, 107
2, 64752, Note_on_c, 0, 61, 113
2, 64848, Note_on_c, 0, 42, 115
2, 64849, Note_off_c, 0, 54, 107
2, 64856, Note_off_c, 0, 58, 107
2, 64858, Note_off_c, 0, 61, 113
2, 64884, Note_off_c, 0, 42, 115
2, 64896, Note_on_c, 0, 54, 117
2, 64896, Note_on_c, 0, 58, 109
2, 64896, Note_on_c, 0, 61, 113
2, 64986, Note_off_c, 0, 54, 117
2, 64992, Note_on_c, 0, 42, 117
2, 64998, Note_off_c, 0, 61, 113
2, 64998, Note_off_c, 0, 58, 109
2, 65029, Note_off_c, 0, 42, 117
2, 65040, Note_on_c, 0, 54, 115
2, 65040, Note_on_c, 0, 58, 109
2, 65040, Note_on_c, 0, 61, 111
2, 65111, Note_off_c, 0, 54, 115
2, 65126, Note_off_c, 0, 58, 109
2, 65133, Note_off_c, 0, 61, 111
2, 65136, Note_on_c, 0, 42, 113
2, 65184, Note_on_c, 0, 54, 115
2, 65184, Note_on_c, 0, 56, 117
2, 65184, Note_on_c, 0, 61, 119
2, 65184, Note_on_c, 0, 64, 115
2, 65194, Note_off_c, 0, 42, 113
2, 65280, Note_on_c, 0, 42, 115
2, 65286, Note_off_c, 0, 54, 115
2, 65303, Note_off_c, 0, 56, 117
2, 65309, Note_off_c, 0, 61, 119
2, 65315, Note_off_c, 0, 64, 115
2, 65373, Note_off_c, 0, 42, 115
2, 65376, Note_on_c, 0, 54, 111
2, 65376, Note_on_c, 0, 56, 115
2, 65376, Note_on_c, 0, 61, 119
2, 65376, Note_on_c, 0, 64, 117
2, 65470, Note_off_c, 0, 64, 117
2, 65472, Note_on_c, 0, 42, 113
2, 65472, Note_on_c, 0, 44, 81
2, 65476, Note_off_c, 0, 54, 111
2, 65477, Note_off_c, 0, 56, 115
2, 65480, Note_off_c, 0, 61, 119
2, 65483, Note_off_c, 0, 44, 81
2, 65519, Note_off_c, 0, 42, 113
2, 65520, Note_on_c, 0, 54, 109
2, 65520, Note_on_c, 0, 56, 113
2, 65520, Note_on_c, 0, 61, 113
2, 65520, Note_on_c, 0, 64, 113
2, 65607, Note_off_c, 0, 64, 113
2, 65613, Note_off_c, 0, 54, 109
2, 65615, Note_off_c, 0, 56, 113
2, 65616, Note_on_c, 0, 42, 113
2, 65619, Note_off_c, 0, 61, 113
2, 65661, Note_off_c, 0, 42, 113
2, 65664, Note_on_c, 0, 54, 109
2, 65664, Note_on_c, 0, 56, 115
2, 65664, Note_on_c, 0, 61, 117
2, 65664, Note_on_c, 0, 64, 117
2, 65752, Note_off_c, 0, 64, 117
2, 65759, Note_off_c, 0, 56, 115
2, 65760, Note_on_c, 0, 42, 111
2, 65762, Note_off_c, 0, 61, 117
2, 65764, Note_off_c, 0, 54, 109
2, 65808, Note_on_c, 0, 54, 107
2, 65808, Note_on_c, 0, 56, 115
2, 65808, Note_on_c, 0, 61, 111
2, 65808, Note_on_c, 0, 64, 117
2, 65816, Note_off_c, 0, 42, 111
2, 65904, Note_on_c, 0, 42, 111
2, 65912, Note_off_c, 0, 64, 117
2, 65915, Note_off_c, 0, 56, 115
2, 65918, Note_off_c, 0, 54, 107
2, 65921, Note_off_c, 0, 61, 111
2, 65952, Note_on_c, 0, 54, 113
2, 65952, Note_on_c, 0, 56, 119
2, 65952, Note_on_c, 0, 61, 115
2, 65952, Note_on_c, 0, 64, 117
2, 65958, Note_off_c, 0, 42, 111
2, 66021, Note_off_c, 0, 56, 119
2, 66032, Note_off_c, 0, 61, 115
2, 66036, Note_off_c, 0, 54, 113
2, 66039, Note_off_c, 0, 64, 117
2, 66048, Note_on_c, 0, 46, 115
2, 66144, Note_on_c, 0, 58, 113
2, 66144, Note_on_c, 0, 61, 111
2, 66144, Note_on_c, 0, 65, 119
2, 66152, Note_off_c, 0, 46, 115
2, 66240, Note_off_c, 0, 58, 113
2, 66240, Note_on_c, 0, 46, 117
2, 66241, Note_off_c, 0, 65, 119
2, 66243, Note_off_c, 0, 61, 111
2, 66284, Note_off_c, 0, 46, 117
2, 66288, Note_on_c, 0, 58, 113
2, 66288, Note_on_c, 0, 61, 109
2, 66288, Note_on_c, 0, 65, 117
2, 66380, Note_off_c, 0, 65, 117
2, 66384, Note_on_c, 0, 46, 117
2, 66389, Note_off_c, 0, 58, 113
2, 66394, Note_off_c, 0, 61, 109
2, 66419, Note_off_c, 0, 46, 117
2, 66432, Note_on_c, 0, 58, 113
2, 66432, Note_on_c, 0, 61, 113
2, 66432, Note_on_c, 0, 65, 117
2, 66528, Note_on_c, 0, 46, 115
2, 66531, Note_off_c, 0, 65, 117
2, 66541, Note_off_c, 0, 58, 113
2, 66544, Note_off_c, 0, 61, 113
2, 66569, Note_off_c, 0, 46, 115
2, 66576, Note_on_c, 0, 58, 113
2, 66576, Note_on_c, 0, 61, 113
2, 66576, Note_on_c, 0, 65, 119
2, 66649, Note_off_c, 0, 65, 119
2, 66666, Note_off_c, 0, 61, 113
2, 66666, Note_off_c, 0, 58, 113
2, 66672, Note_on_c, 0, 46, 117
2, 66709, Note_off_c, 0, 46, 117
2, 66720, Note_on_c, 0, 54, 117
2, 66720, Note_on_c, 0, 58, 111
2, 66720, Note_on_c, 0, 63, 109
2, 66808, Note_off_c, 0, 54, 117
2, 66813, Note_off_c, 0, 58, 111
2, 66816, Note_on_c, 0, 47, 119
2, 66817, Note_off_c, 0, 63, 109
2, 66912, Note_on_c, 0, 54, 115
2, 66912, Note_on_c, 0, 58, 111
2, 66912, Note_on_c, 0, 63, 113
2, 66919, Note_off_c, 0, 47, 119
2, 67007, Note_off_c, 0, 54, 115
2, 67008, Note_on_c, 0, 47, 119
2, 67013, Note_off_c, 0, 63, 113
2, 67014, Note_off_c, 0, 58, 111
2, 67056, Note_on_c, 0, 54, 115
2, 67056, Note_on_c, 0, 58, 111
2, 67056, Note_on_c, 0, 63, 111
2, 67061, Note_off_c, 0, 47, 119
2, 67141, Note_off_c, 0, 54, 115
2, 67145, Note_off_c, 0, 63, 111
2, 67146, Note_off_c, 0, 58, 111
2, 67152, Note_on_c, 0, 47, 119
2, 67193, Note_off_c, 0, 47, 119
2, 67200, Note_on_c, 0, 54, 117
2, 67200, Note_on_c, 0, 58, 109
2, 67200, Note_on_c, 0, 63, 115
2, 67296, Note_on_c, 0, 47, 119
2, 67298, Note_off_c, 0, 54, 117
2, 67305, Note_off_c, 0, 63, 115
2, 67307, Note_off_c, 0, 58, 109
2, 67342, Note_off_c, 0, 47, 119
2, 67344, Note_on_c, 0, 54, 115
2, 67344, Note_on_c, 0, 58, 109
2, 67344, Note_on_c, 0, 63, 115
2, 67436, Note_off_c, 0, 54, 115
2, 67440, Note_on_c, 0, 47, 119
2, 67444, Note_off_c, 0, 63, 115
2, 67444, Note_off_c, 0, 58, 109
2, 67480, Note_off_c, 0, 47, 119
2, 67488, Note_on_c, 0, 54, 115
2, 67488, Note_on_c, 0, 58, 115
2, 67488, Note_on_c, 0, 63, 117
2, 67559, Note_off_c, 0, 58, 115
2, 67562, Note_off_c, 0, 54, 115
2, 67573, Note_off_c, 0, 63, 117
2, 67584, Note_on_c, 0, 44, 115
2, 67677, Note_off_c, 0, 44, 115
2, 67680, Note_on_c, 0, 60, 117
2, 67680, Note_on_c, 0, 63, 113
2, 67680, Note_on_c, 0, 66, 111
2, 67772, Note_off_c, 0, 66, 111
2, 67776, Note_on_c, 0, 44, 113
2, 67784, Note_off_c, 0, 60, 117
2, 67791, Note_off_c, 0, 63, 113
2, 67824, Note_on_c, 0, 60, 113
2, 67824, Note_on_c, 0, 63, 109
2, 67824, Note_on_c, 0, 66, 115
2, 67828, Note_off_c, 0, 44, 113
2, 67911, Note_off_c, 0, 66, 115
2, 67918, Note_off_c, 0, 60, 113
2, 67920, Note_on_c, 0, 44, 113
2, 67923, Note_off_c, 0, 63, 109
2, 67960, Note_off_c, 0, 44, 113
2, 67968, Note_on_c, 0, 60, 113
2, 67968, Note_on_c, 0, 63, 107
2, 67968, Note_on_c, 0, 66, 115
2, 68064, Note_off_c, 0, 66, 115
2, 68064, Note_off_c, 0, 60, 113
2, 68064, Note_on_c, 0, 44, 111
2, 68075, Note_off_c, 0, 63, 107
2, 68105, Note_off_c, 0, 44, 111
2, 68112, Note_on_c, 0, 56, 111
2, 68112, Note_on_c, 0, 60, 107
2, 68112, Note_on_c, 0, 63, 107
2, 68208, Note_off_c, 0, 56, 111
2, 68208, Note_on_c, 0, 44, 111
2, 68216, Note_off_c, 0, 60, 107
2, 68222, Note_off_c, 0, 63, 107
2, 68246, Note_off_c, 0, 44, 111
2, 68256, Note_on_c, 0, 60, 117
2, 68256, Note_on_c, 0, 63, 111
2, 68256, Note_on_c, 0, 66, 113
2, 68347, Note_off_c, 0, 60, 117
2, 68352, Note_on_c, 0, 49, 119
2, 68353, Note_off_c, 0, 63, 111
2, 68359, Note_off_c, 0, 66, 113
2, 68444, Note_off_c, 0, 49, 119
2, 68448, Note_on_c, 0, 59, 119
2, 68448, Note_on_c, 0, 63, 113
2, 68448, Note_on_c, 0, 66, 113
2, 68544, Note_on_c, 0, 49, 117
2, 68547, Note_off_c, 0, 66, 113
2, 68551, Note_off_c, 0, 63, 113
2, 68551, Note_off_c, 0, 59, 119
2, 68583, Note_off_c, 0, 49, 117
2, 68592, Note_on_c, 0, 59, 115
2, 68592, Note_on_c, 0, 63, 111
2, 68592, Note_on_c, 0, 66, 113
2, 68687, Note_off_c, 0, 59, 115
2, 68688, Note_on_c, 0, 49, 115
2, 68694, Note_off_c, 0, 63, 111
2, 68696, Note_off_c, 0, 66, 113
2, 68724, Note_off_c, 0, 49, 115
2, 68736, Note_on_c, 0, 59, 117
2, 68736, Note_on_c, 0, 63, 113
2, 68736, Note_on_c, 0, 66, 115
2, 68832, Note_on_c, 0, 49, 113
2, 68833, Note_off_c, 0, 59, 117
2, 68844, Note_off_c, 0, 66, 115
2, 68844, Note_off_c, 0, 63, 113
2, 68874, Note_off_c, 0, 49, 113
2, 68880, Note_on_c, 0, 59, 119
2, 68880, Note_on_c, 0, 63, 111
2, 68880, Note_on_c, 0, 66, 113
2, 68976, Note_on_c, 0, 49, 111
2, 68981, Note_off_c, 0, 59, 119
2, 68989, Note_off_c, 0, 66, 113
2, 68993, Note_off_c, 0, 63, 111
2, 69015, Note_off_c, 0, 49, 111
2, 69024, Note_on_c, 0, 59, 117
2, 69024, Note_on_c, 0, 63, 113
2, 69024, Note_on_c, 0, 66, 113
2, 69094, Note_off_c, 0, 59, 117
2, 69101, Note_off_c, 0, 63, 113
2, 69112, Note_off_c, 0, 66, 113
2, 69120, Note_on_c, 0, 54, 115
2, 69120, Note_on_c, 0, 61, 117
2, 69120, Note_on_c, 0, 66, 111
2, 69120, Note_on_c, 0, 71, 119
2, 69311, Note_off_c, 0, 71, 119
2, 69312, Note_on_c, 0, 70, 117
2, 69387, Note_off_c, 0, 70, 117
2, 69407, Note_off_c, 0, 66, 111
2, 69407, Note_off_c, 0, 61, 117
2, 69407, Note_off_c, 0, 54, 115
2, 69408, Note_on_c, 0, 53, 105
2, 69408, Note_on_c, 0, 60, 111
2, 69408, Note_on_c, 0, 65, 117
2, 69408, Note_on_c, 0, 70, 109
2, 69599, Note_off_c, 0, 70, 109
2, 69600, Note_on_c, 0, 69, 107
2, 69764, Note_off_c, 0, 69, 107
2, 69791, Note_off_c, 0, 65, 117
2, 69791, Note_off_c, 0, 60, 111
2, 69791, Note_off_c, 0, 53, 105
2, 69792, Note_on_c, 0, 52, 113
2, 69792, Note_on_c, 0, 59, 117
2, 69792, Note_on_c, 0, 64, 117
2, 69792, Note_on_c, 0, 69, 117
2, 69983, Note_off_c, 0, 69, 117
2, 69984, Note_on_c, 0, 68, 115
2, 70157, Note_off_c, 0, 68, 115
2, 70175, Note_off_c, 0, 64, 117
2, 70175, Note_off_c, 0, 59, 117
2, 70175, Note_off_c, 0, 52, 113
2, 70176, Note_on_c, 0, 51, 115
2, 70176, Note_on_c, 0, 58, 113
2, 70176, Note_on_c, 0, 63, 111
2, 70176, Note_on_c, 0, 68, 117
2, 70367, Note_off_c, 0, 68, 117
2, 70368, Note_on_c, 0, 67, 107
2, 70522, Note_off_c, 0, 67, 107
2, 70559, Note_off_c, 0, 63, 111
2, 70559, Note_off_c, 0, 58, 113
2, 70559, Note_off_c, 0, 51, 115
2, 70560, Note_on_c, 0, 50, 103
2, 70560, Note_on_c, 0, 57, 117
2, 70560, Note_on_c, 0, 62, 113
2, 70560, Note_on_c, 0, 67, 117
2, 70751, Note_off_c, 0, 67, 117
2, 70752, Note_on_c, 0, 66, 115
2, 70909, Note_off_c, 0, 66, 115
2, 70943, Note_off_c, 0, 62, 113
2, 70943, Note_off_c, 0, 57, 117
2, 70943, Note_off_c, 0, 50, 103
2, 70944, Note_on_c, 0, 49, 111
2, 70944, Note_on_c, 0, 56, 113
2, 70944, Note_on_c, 0, 61, 101
2, 70944, Note_on_c, 0, 66, 111
2, 71116, Note_off_c, 0, 66, 111
2, 71135, Note_off_c, 0, 61, 101
2, 71135, Note_off_c, 0, 56, 113
2, 71135, Note_off_c, 0, 49, 111
2, 71136, Note_on_c, 0, 65, 107
2, 71231, Note_off_c, 0, 65, 107
2, 71232, Note_on_c, 0, 42, 111
2, 71232, Note_on_c, 0, 56, 117
2, 71232, Note_on_c, 0, 61, 117
2, 71232, Note_on_c, 0, 63, 115
2, 71327, Note_off_c, 0, 56, 117
2, 71519, Note_off_c, 0, 63, 115
2, 71519, Note_off_c, 0, 61, 117
2, 71519, Note_off_c, 0, 42, 111
2, 71520, Note_on_c, 0, 42, 111
2, 71520, Note_on_c, 0, 56, 109
2, 71520, Note_on_c, 0, 61, 111
2, 71520, Note_on_c, 0, 63, 111
2, 71638, Note_off_c, 0, 56, 109
2, 71639, Note_off_c, 0, 63, 111
2, 71641, Note_off_c, 0, 61, 111
2, 71647, Note_off_c, 0, 42, 111
2, 71664, Note_on_c, 0, 42, 107
2, 71664, Note_on_c, 0, 56, 111
2, 71664, Note_on_c, 0, 61, 111
2, 71664, Note_on_c, 0, 63, 107
2, 71766, Note_off_c, 0, 42, 107
2, 71770, Note_off_c, 0, 63, 107
2, 71772, Note_off_c, 0, 56, 111
2, 71776, Note_off_c, 0, 61, 111
2, 71808, Note_on_c, 0, 42, 115
2, 71808, Note_on_c, 0, 56, 115
2, 71808, Note_on_c, 0, 61, 115
2, 71808, Note_on_c, 0, 63, 111
2, 71893, Note_off_c, 0, 56, 115
2, 71900, Note_off_c, 0, 61, 115
2, 71902, Note_off_c, 0, 63, 111
2, 71904, Note_off_c, 0, 42, 115
2, 72000, Note_on_c, 0, 49, 113
2, 72000, Note_on_c, 0, 56, 117
2, 72000, Note_on_c, 0, 59, 119
2, 72000, Note_on_c, 0, 63, 119
2, 72191, Note_off_c, 0, 63, 119
2, 72191, Note_off_c, 0, 59, 119
2, 72191, Note_off_c, 0, 56, 117
2, 72191, Note_off_c, 0, 49, 113
2, 72192, Note_on_c, 0, 54, 115
2, 72192, Note_on_c, 0, 61, 115
2, 72192, Note_on_c, 0, 66, 111
2, 72192, Note_on_c, 0, 71, 119
2, 72383, Note_off_c, 0, 71, 119
2, 72384, Note_on_c, 0, 70, 113
2, 72466, Note_off_c, 0, 70, 113
2, 72479, Note_off_c, 0, 66, 111
2, 72479, Note_off_c, 0, 61, 115
2, 72479, Note_off_c, 0, 54, 115
2, 72480, Note_on_c, 0, 53, 103
2, 72480, Note_on_c, 0, 60, 113
2, 72480, Note_on_c, 0, 65, 117
2, 72480, Note_on_c, 0, 70, 111
2, 72671, Note_off_c, 0, 70, 111
2, 72672, Note_on_c, 0, 69, 111
2, 72842, Note_off_c, 0, 69, 111
2, 72863, Note_off_c, 0, 65, 117
2, 72863, Note_off_c, 0, 60, 113
2, 72863, Note_off_c, 0, 53, 103
2, 72864, Note_on_c, 0, 52, 109
2, 72864, Note_on_c, 0, 59, 115
2, 72864, Note_on_c, 0, 64, 113
2, 72864, Note_on_c, 0, 69, 109
2, 73055, Note_off_c, 0, 69, 109
2, 73056, Note_on_c, 0, 68, 115
2, 73223, Note_off_c, 0, 68, 115
2, 73247, Note_off_c, 0, 64, 113
2, 73247, Note_off_c, 0, 59, 115
2, 73247, Note_off_c, 0, 52, 109
2, 73248, Note_on_c, 0, 51, 115
2, 73248, Note_on_c, 0, 58, 117
2, 73248, Note_on_c, 0, 63, 109
2, 73248, Note_on_c, 0, 68, 111
2, 73439, Note_off_c, 0, 68, 111
2, 73440, Note_on_c, 0, 67, 109
2, 73603, Note_off_c, 0, 67, 109
2, 73631, Note_off_c, 0, 63, 109
2, 73631, Note_off_c, 0, 58, 117
2, 73631, Note_off_c, 0, 51, 115
2, 73632, Note_on_c, 0, 50, 107
2, 73632, Note_on_c, 0, 57, 115
2, 73632, Note_on_c, 0, 62, 109
2, 73632, Note_on_c, 0, 67, 107
2, 73823, Note_off_c, 0, 67, 107
2, 73824, Note_on_c, 0, 66, 113
2, 73979, Note_off_c, 0, 66, 113
2, 74015, Note_off_c, 0, 62, 109
2, 74015, Note_off_c, 0, 57, 115
2, 74015, Note_off_c, 0, 50, 107
2, 74016, Note_on_c, 0, 49, 115
2, 74016, Note_on_c, 0, 56, 115
2, 74016, Note_on_c, 0, 61, 107
2, 74016, Note_on_c, 0, 66, 113
2, 74182, Note_off_c, 0, 66, 113
2, 74207, Note_off_c, 0, 61, 107
2, 74207, Note_off_c, 0, 56, 115
2, 74207, Note_off_c, 0, 49, 115
2, 74208, Note_on_c, 0, 65, 107
2, 74303, Note_off_c, 0, 65, 107
2, 74304, Note_on_c, 0, 42, 111
2, 74304, Note_on_c, 0, 56, 115
2, 74304, Note_on_c, 0, 61, 107
2, 74304, Note_on_c, 0, 63, 111
2, 74434, Note_off_c, 0, 42, 111
2, 74489, Note_off_c, 0, 61, 107
2, 74491, Note_off_c, 0, 56, 115
2, 74493, Note_off_c, 0, 63, 111
2, 74496, Note_on_c, 0, 30, 117
2, 74594, Note_off_c, 0, 30, 117
2, 74804, System_exclusive, 10, 65, 16, 66, 18, 64, 0, 127, 127, 66, 247
2, 74880, System_exclusive, 10, 65, 16, 64, 18, 64, 0, 127, 0, 65, 247
2, 74880, End_track
3, 0, Start_track
3, 0, Text_t, "Basso   "
3, 5856, Program_c, 1, 39
3, 5904, Control_c, 1, 7, 127
3, 5952, Control_c, 1, 10, 64
3, 6000, Control_c, 1, 91, 58
3, 6048, Control_c, 1, 93, 106
3, 6336, Control_c, 1, 99, 1
3, 6466, Control_c, 1, 98, 32
3, 6596, Control_c, 1, 6, 80
3, 6700, Control_c, 1, 98, 33
3, 6792, Control_c, 1, 6, 44
3, 6944, Control_c, 1, 98, 99
3, 7026, Control_c, 1, 6, 61
3, 7680, Note_on_c, 1, 27, 124
3, 7759, Note_off_c, 1, 27, 124
3, 7872, Note_on_c, 1, 27, 120
3, 7976, Note_off_c, 1, 27, 120
3, 8016, Note_on_c, 1, 34, 120
3, 8071, Note_off_c, 1, 34, 120
3, 8160, Note_on_c, 1, 34, 124
3, 8312, Note_off_c, 1, 34, 124
3, 8352, Note_on_c, 1, 34, 120
3, 8436, Note_off_c, 1, 34, 120
3, 8448, Note_on_c, 1, 27, 120
3, 8582, Note_off_c, 1, 27, 120
3, 8640, Note_on_c, 1, 27, 120
3, 8756, Note_off_c, 1, 27, 120
3, 8784, Note_on_c, 1, 32, 116
3, 8852, Note_off_c, 1, 32, 116
3, 8928, Note_on_c, 1, 32, 124
3, 9086, Note_off_c, 1, 32, 124
3, 9120, Note_on_c, 1, 32, 120
3, 9191, Note_off_c, 1, 32, 120
3, 9216, Note_on_c, 1, 30, 120
3, 9339, Note_off_c, 1, 30, 120
3, 9408, Note_on_c, 1, 30, 124
3, 9510, Note_off_c, 1, 30, 124
3, 9552, Note_on_c, 1, 30, 120
3, 9624, Note_off_c, 1, 30, 120
3, 9696, Note_on_c, 1, 30, 124
3, 9819, Note_off_c, 1, 30, 124
3, 9888, Note_on_c, 1, 30, 120
3, 9935, Note_off_c, 1, 30, 120
3, 9936, Note_on_c, 1, 37, 108
3, 9983, Note_off_c, 1, 37, 108
3, 9984, Note_on_c, 1, 35, 124
3, 10103, Note_off_c, 1, 35, 124
3, 10176, Note_on_c, 1, 35, 124
3, 10268, Note_off_c, 1, 35, 124
3, 10320, Note_on_c, 1, 28, 124
3, 10399, Note_off_c, 1, 28, 124
3, 10464, Note_on_c, 1, 28, 124
3, 10586, Note_off_c, 1, 28, 124
3, 10656, Note_on_c, 1, 27, 124
3, 10746, Note_off_c, 1, 27, 124
3, 10752, Note_on_c, 1, 27, 124
3, 10831, Note_off_c, 1, 27, 124
3, 10944, Note_on_c, 1, 27, 120
3, 11048, Note_off_c, 1, 27, 120
3, 11088, Note_on_c, 1, 34, 120
3, 11143, Note_off_c, 1, 34, 120
3, 11232, Note_on_c, 1, 34, 124
3, 11384, Note_off_c, 1, 34, 124
3, 11424, Note_on_c, 1, 34, 120
3, 11508, Note_off_c, 1, 34, 120
3, 11520, Note_on_c, 1, 27, 120
3, 11654, Note_off_c, 1, 27, 120
3, 11712, Note_on_c, 1, 27, 120
3, 11828, Note_off_c, 1, 27, 120
3, 11856, Note_on_c, 1, 32, 116
3, 11924, Note_off_c, 1, 32, 116
3, 12000, Note_on_c, 1, 32, 124
3, 12158, Note_off_c, 1, 32, 124
3, 12192, Note_on_c, 1, 32, 120
3, 12263, Note_off_c, 1, 32, 120
3, 12288, Note_on_c, 1, 30, 120
3, 12411, Note_off_c, 1, 30, 120
3, 12480, Note_on_c, 1, 30, 124
3, 12582, Note_off_c, 1, 30, 124
3, 12624, Note_on_c, 1, 30, 120
3, 12696, Note_off_c, 1, 30, 120
3, 12768, Note_on_c, 1, 30, 124
3, 12891, Note_off_c, 1, 30, 124
3, 12960, Note_on_c, 1, 30, 120
3, 13007, Note_off_c, 1, 30, 120
3, 13008, Note_on_c, 1, 37, 108
3, 13055, Note_off_c, 1, 37, 108
3, 13056, Note_on_c, 1, 35, 124
3, 13175, Note_off_c, 1, 35, 124
3, 13248, Note_on_c, 1, 35, 124
3, 13340, Note_off_c, 1, 35, 124
3, 13392, Note_on_c, 1, 28, 124
3, 13471, Note_off_c, 1, 28, 124
3, 13536, Note_on_c, 1, 28, 124
3, 13658, Note_off_c, 1, 28, 124
3, 13728, Note_on_c, 1, 25, 124
3, 13818, Note_off_c, 1, 25, 124
3, 13824, Note_on_c, 1, 27, 124
3, 13903, Note_off_c, 1, 27, 124
3, 14016, Note_on_c, 1, 27, 120
3, 14120, Note_off_c, 1, 27, 120
3, 14160, Note_on_c, 1, 34, 120
3, 14215, Note_off_c, 1, 34, 120
3, 14304, Note_on_c, 1, 34, 124
3, 14456, Note_off_c, 1, 34, 124
3, 14496, Note_on_c, 1, 34, 120
3, 14580, Note_off_c, 1, 34, 120
3, 14592, Note_on_c, 1, 27, 120
3, 14726, Note_off_c, 1, 27, 120
3, 14784, Note_on_c, 1, 27, 120
3, 14900, Note_off_c, 1, 27, 120
3, 14928, Note_on_c, 1, 32, 116
3, 14996, Note_off_c, 1, 32, 116
3, 15072, Note_on_c, 1, 32, 124
3, 15230, Note_off_c, 1, 32, 124
3, 15264, Note_on_c, 1, 32, 120
3, 15335, Note_off_c, 1, 32, 120
3, 15360, Note_on_c, 1, 30, 120
3, 15483, Note_off_c, 1, 30, 120
3, 15552, Note_on_c, 1, 30, 124
3, 15654, Note_off_c, 1, 30, 124
3, 15696, Note_on_c, 1, 30, 120
3, 15768, Note_off_c, 1, 30, 120
3, 15840, Note_on_c, 1, 30, 124
3, 15963, Note_off_c, 1, 30, 124
3, 16032, Note_on_c, 1, 30, 120
3, 16079, Note_off_c, 1, 30, 120
3, 16080, Note_on_c, 1, 37, 108
3, 16127, Note_off_c, 1, 37, 108
3, 16128, Note_on_c, 1, 35, 124
3, 16247, Note_off_c, 1, 35, 124
3, 16320, Note_on_c, 1, 35, 124
3, 16412, Note_off_c, 1, 35, 124
3, 16464, Note_on_c, 1, 35, 124
3, 16543, Note_off_c, 1, 35, 124
3, 16608, Note_on_c, 1, 35, 124
3, 16730, Note_off_c, 1, 35, 124
3, 16800, Note_on_c, 1, 30, 124
3, 16890, Note_off_c, 1, 30, 124
3, 16896, Note_on_c, 1, 28, 124
3, 16990, Note_off_c, 1, 28, 124
3, 17088, Note_on_c, 1, 28, 124
3, 17188, Note_off_c, 1, 28, 124
3, 17232, Note_on_c, 1, 28, 124
3, 17289, Note_off_c, 1, 28, 124
3, 17376, Note_on_c, 1, 28, 124
3, 17525, Note_off_c, 1, 28, 124
3, 17568, Note_on_c, 1, 28, 120
3, 17663, Note_off_c, 1, 28, 120
3, 17664, Note_on_c, 1, 30, 120
3, 17736, Note_off_c, 1, 30, 120
3, 17856, Note_on_c, 1, 30, 124
3, 17941, Note_off_c, 1, 30, 124
3, 18000, Note_on_c, 1, 30, 120
3, 18070, Note_off_c, 1, 30, 120
3, 18144, Note_on_c, 1, 30, 120
3, 18250, Note_off_c, 1, 30, 120
3, 18336, Note_on_c, 1, 34, 116
3, 18383, Note_off_c, 1, 34, 116
3, 18384, Note_on_c, 1, 37, 116
3, 18424, Note_off_c, 1, 37, 116
3, 18432, Note_on_c, 1, 30, 124
3, 18497, Note_off_c, 1, 30, 124
3, 18624, Note_on_c, 1, 30, 124
3, 18717, Note_off_c, 1, 30, 124
3, 18768, Note_on_c, 1, 30, 120
3, 18792, Note_off_c, 1, 30, 120
3, 18864, Note_on_c, 1, 30, 124
3, 18881, Note_off_c, 1, 30, 124
3, 18912, Note_on_c, 1, 30, 124
3, 19010, Note_off_c, 1, 30, 124
3, 19104, Note_on_c, 1, 32, 124
3, 19197, Note_off_c, 1, 32, 124
3, 19200, Note_on_c, 1, 34, 124
3, 19289, Note_off_c, 1, 34, 124
3, 19392, Note_on_c, 1, 34, 124
3, 19479, Note_off_c, 1, 34, 124
3, 19536, Note_on_c, 1, 34, 124
3, 19583, Note_off_c, 1, 34, 124
3, 19680, Note_on_c, 1, 34, 124
3, 19790, Note_off_c, 1, 34, 124
3, 19872, Note_on_c, 1, 35, 124
3, 19964, Note_off_c, 1, 35, 124
3, 19968, Note_on_c, 1, 23, 124
3, 20069, Note_off_c, 1, 23, 124
3, 20160, Note_on_c, 1, 23, 124
3, 20264, Note_off_c, 1, 23, 124
3, 20304, Note_on_c, 1, 23, 124
3, 20368, Note_off_c, 1, 23, 124
3, 20448, Note_on_c, 1, 23, 124
3, 20554, Note_off_c, 1, 23, 124
3, 20640, Note_on_c, 1, 29, 120
3, 20674, Note_off_c, 1, 29, 120
3, 20688, Note_on_c, 1, 30, 120
3, 20735, Note_off_c, 1, 30, 120
3, 20736, Note_on_c, 1, 32, 120
3, 20839, Note_off_c, 1, 32, 120
3, 20928, Note_on_c, 1, 32, 120
3, 21022, Note_off_c, 1, 32, 120
3, 21072, Note_on_c, 1, 32, 116
3, 21138, Note_off_c, 1, 32, 116
3, 21216, Note_on_c, 1, 32, 124
3, 21334, Note_off_c, 1, 32, 124
3, 21408, Note_on_c, 1, 30, 120
3, 21442, Note_off_c, 1, 30, 120
3, 21456, Note_on_c, 1, 27, 112
3, 21503, Note_off_c, 1, 27, 112
3, 21504, Note_on_c, 1, 25, 124
3, 21600, Note_off_c, 1, 25, 124
3, 21696, Note_on_c, 1, 25, 124
3, 21775, Note_off_c, 1, 25, 124
3, 21840, Note_on_c, 1, 25, 120
3, 21903, Note_off_c, 1, 25, 120
3, 21984, Note_on_c, 1, 25, 124
3, 22100, Note_off_c, 1, 25, 124
3, 22176, Note_on_c, 1, 25, 124
3, 22268, Note_off_c, 1, 25, 124
3, 22272, Note_on_c, 1, 30, 124
3, 22362, Note_off_c, 1, 30, 124
3, 22464, Note_on_c, 1, 30, 124
3, 22553, Note_off_c, 1, 30, 124
3, 22608, Note_on_c, 1, 30, 124
3, 22680, Note_off_c, 1, 30, 124
3, 22752, Note_on_c, 1, 30, 124
3, 22855, Note_off_c, 1, 30, 124
3, 22944, Note_on_c, 1, 32, 116
3, 22987, Note_off_c, 1, 32, 116
3, 22992, Note_on_c, 1, 33, 108
3, 23039, Note_off_c, 1, 33, 108
3, 23040, Note_on_c, 1, 34, 120
3, 23133, Note_off_c, 1, 34, 120
3, 23232, Note_on_c, 1, 34, 120
3, 23332, Note_off_c, 1, 34, 120
3, 23376, Note_on_c, 1, 34, 116
3, 23405, Note_off_c, 1, 34, 116
3, 23424, Note_on_c, 1, 34, 116
3, 23449, Note_off_c, 1, 34, 116
3, 23472, Note_on_c, 1, 34, 112
3, 23500, Note_off_c, 1, 34, 112
3, 23520, Note_on_c, 1, 34, 124
3, 23555, Note_off_c, 1, 34, 124
3, 23616, Note_on_c, 1, 46, 124
3, 23703, Note_off_c, 1, 46, 124
3, 23712, Note_on_c, 1, 29, 124
3, 23803, Note_off_c, 1, 29, 124
3, 23808, Note_on_c, 1, 27, 124
3, 23887, Note_off_c, 1, 27, 124
3, 24000, Note_on_c, 1, 27, 120
3, 24104, Note_off_c, 1, 27, 120
3, 24144, Note_on_c, 1, 34, 120
3, 24199, Note_off_c, 1, 34, 120
3, 24288, Note_on_c, 1, 34, 124
3, 24440, Note_off_c, 1, 34, 124
3, 24480, Note_on_c, 1, 34, 120
3, 24564, Note_off_c, 1, 34, 120
3, 24576, Note_on_c, 1, 27, 120
3, 24710, Note_off_c, 1, 27, 120
3, 24768, Note_on_c, 1, 27, 120
3, 24884, Note_off_c, 1, 27, 120
3, 24912, Note_on_c, 1, 32, 116
3, 24980, Note_off_c, 1, 32, 116
3, 25056, Note_on_c, 1, 32, 124
3, 25214, Note_off_c, 1, 32, 124
3, 25248, Note_on_c, 1, 32, 120
3, 25319, Note_off_c, 1, 32, 120
3, 25344, Note_on_c, 1, 30, 120
3, 25467, Note_off_c, 1, 30, 120
3, 25536, Note_on_c, 1, 30, 124
3, 25638, Note_off_c, 1, 30, 124
3, 25680, Note_on_c, 1, 30, 120
3, 25752, Note_off_c, 1, 30, 120
3, 25824, Note_on_c, 1, 30, 124
3, 25947, Note_off_c, 1, 30, 124
3, 26016, Note_on_c, 1, 30, 120
3, 26063, Note_off_c, 1, 30, 120
3, 26064, Note_on_c, 1, 37, 108
3, 26111, Note_off_c, 1, 37, 108
3, 26112, Note_on_c, 1, 35, 124
3, 26231, Note_off_c, 1, 35, 124
3, 26304, Note_on_c, 1, 35, 124
3, 26396, Note_off_c, 1, 35, 124
3, 26448, Note_on_c, 1, 28, 124
3, 26527, Note_off_c, 1, 28, 124
3, 26592, Note_on_c, 1, 28, 124
3, 26714, Note_off_c, 1, 28, 124
3, 26784, Note_on_c, 1, 25, 124
3, 26874, Note_off_c, 1, 25, 124
3, 26880, Note_on_c, 1, 27, 124
3, 26959, Note_off_c, 1, 27, 124
3, 27072, Note_on_c, 1, 27, 120
3, 27176, Note_off_c, 1, 27, 120
3, 27216, Note_on_c, 1, 34, 120
3, 27271, Note_off_c, 1, 34, 120
3, 27360, Note_on_c, 1, 34, 124
3, 27512, Note_off_c, 1, 34, 124
3, 27552, Note_on_c, 1, 34, 120
3, 27636, Note_off_c, 1, 34, 120
3, 27648, Note_on_c, 1, 27, 120
3, 27782, Note_off_c, 1, 27, 120
3, 27840, Note_on_c, 1, 27, 120
3, 27956, Note_off_c, 1, 27, 120
3, 27984, Note_on_c, 1, 32, 116
3, 28052, Note_off_c, 1, 32, 116
3, 28128, Note_on_c, 1, 32, 124
3, 28286, Note_off_c, 1, 32, 124
3, 28320, Note_on_c, 1, 32, 120
3, 28391, Note_off_c, 1, 32, 120
3, 28416, Note_on_c, 1, 30, 120
3, 28539, Note_off_c, 1, 30, 120
3, 28608, Note_on_c, 1, 30, 124
3, 28710, Note_off_c, 1, 30, 124
3, 28752, Note_on_c, 1, 30, 120
3, 28824, Note_off_c, 1, 30, 120
3, 28896, Note_on_c, 1, 30, 124
3, 29019, Note_off_c, 1, 30, 124
3, 29088, Note_on_c, 1, 30, 120
3, 29135, Note_off_c, 1, 30, 120
3, 29136, Note_on_c, 1, 37, 108
3, 29183, Note_off_c, 1, 37, 108
3, 29184, Note_on_c, 1, 35, 124
3, 29303, Note_off_c, 1, 35, 124
3, 29376, Note_on_c, 1, 35, 124
3, 29468, Note_off_c, 1, 35, 124
3, 29520, Note_on_c, 1, 35, 124
3, 29599, Note_off_c, 1, 35, 124
3, 29664, Note_on_c, 1, 35, 124
3, 29786, Note_off_c, 1, 35, 124
3, 29856, Note_on_c, 1, 30, 124
3, 29946, Note_off_c, 1, 30, 124
3, 29952, Note_on_c, 1, 28, 124
3, 30046, Note_off_c, 1, 28, 124
3, 30144, Note_on_c, 1, 28, 124
3, 30244, Note_off_c, 1, 28, 124
3, 30288, Note_on_c, 1, 28, 124
3, 30345, Note_off_c, 1, 28, 124
3, 30432, Note_on_c, 1, 28, 124
3, 30581, Note_off_c, 1, 28, 124
3, 30624, Note_on_c, 1, 28, 120
3, 30719, Note_off_c, 1, 28, 120
3, 30720, Note_on_c, 1, 30, 120
3, 30792, Note_off_c, 1, 30, 120
3, 30912, Note_on_c, 1, 30, 124
3, 30997, Note_off_c, 1, 30, 124
3, 31056, Note_on_c, 1, 30, 120
3, 31126, Note_off_c, 1, 30, 120
3, 31200, Note_on_c, 1, 30, 120
3, 31306, Note_off_c, 1, 30, 120
3, 31392, Note_on_c, 1, 34, 116
3, 31439, Note_off_c, 1, 34, 116
3, 31440, Note_on_c, 1, 37, 116
3, 31480, Note_off_c, 1, 37, 116
3, 31488, Note_on_c, 1, 30, 124
3, 31553, Note_off_c, 1, 30, 124
3, 31680, Note_on_c, 1, 30, 124
3, 31773, Note_off_c, 1, 30, 124
3, 31824, Note_on_c, 1, 30, 120
3, 31848, Note_off_c, 1, 30, 120
3, 31920, Note_on_c, 1, 30, 124
3, 31937, Note_off_c, 1, 30, 124
3, 31968, Note_on_c, 1, 30, 124
3, 32066, Note_off_c, 1, 30, 124
3, 32160, Note_on_c, 1, 32, 124
3, 32253, Note_off_c, 1, 32, 124
3, 32256, Note_on_c, 1, 34, 124
3, 32345, Note_off_c, 1, 34, 124
3, 32448, Note_on_c, 1, 34, 124
3, 32535, Note_off_c, 1, 34, 124
3, 32592, Note_on_c, 1, 34, 124
3, 32639, Note_off_c, 1, 34, 124
3, 32736, Note_on_c, 1, 34, 124
3, 32846, Note_off_c, 1, 34, 124
3, 32928, Note_on_c, 1, 35, 124
3, 33020, Note_off_c, 1, 35, 124
3, 33024, Note_on_c, 1, 23, 124
3, 33125, Note_off_c, 1, 23, 124
3, 33216, Note_on_c, 1, 23, 124
3, 33320, Note_off_c, 1, 23, 124
3, 33360, Note_on_c, 1, 23, 124
3, 33424, Note_off_c, 1, 23, 124
3, 33504, Note_on_c, 1, 23, 124
3, 33610, Note_off_c, 1, 23, 124
3, 33696, Note_on_c, 1, 29, 120
3, 33730, Note_off_c, 1, 29, 120
3, 33744, Note_on_c, 1, 30, 120
3, 33791, Note_off_c, 1, 30, 120
3, 33792, Note_on_c, 1, 32, 120
3, 33895, Note_off_c, 1, 32, 120
3, 33984, Note_on_c, 1, 32, 120
3, 34078, Note_off_c, 1, 32, 120
3, 34128, Note_on_c, 1, 32, 116
3, 34194, Note_off_c, 1, 32, 116
3, 34272, Note_on_c, 1, 32, 124
3, 34390, Note_off_c, 1, 32, 124
3, 34464, Note_on_c, 1, 30, 120
3, 34498, Note_off_c, 1, 30, 120
3, 34512, Note_on_c, 1, 27, 112
3, 34559, Note_off_c, 1, 27, 112
3, 34560, Note_on_c, 1, 25, 124
3, 34656, Note_off_c, 1, 25, 124
3, 34752, Note_on_c, 1, 25, 124
3, 34831, Note_off_c, 1, 25, 124
3, 34896, Note_on_c, 1, 25, 120
3, 34959, Note_off_c, 1, 25, 120
3, 35040, Note_on_c, 1, 25, 124
3, 35156, Note_off_c, 1, 25, 124
3, 35232, Note_on_c, 1, 37, 124
3, 35279, Note_off_c, 1, 37, 124
3, 35280, Note_on_c, 1, 39, 124
3, 35327, Note_off_c, 1, 39, 124
3, 35328, Note_on_c, 1, 42, 124
3, 35423, Note_off_c, 1, 42, 124
3, 35424, Note_on_c, 1, 37, 108
3, 35512, Note_off_c, 1, 37, 108
3, 35520, Note_on_c, 1, 42, 120
3, 35615, Note_off_c, 1, 42, 120
3, 35616, Note_on_c, 1, 41, 120
3, 35807, Note_off_c, 1, 41, 120
3, 35808, Note_on_c, 1, 36, 116
3, 35903, Note_off_c, 1, 36, 116
3, 35904, Note_on_c, 1, 41, 116
3, 35999, Note_off_c, 1, 41, 116
3, 36000, Note_on_c, 1, 40, 116
3, 36191, Note_off_c, 1, 40, 116
3, 36192, Note_on_c, 1, 35, 112
3, 36287, Note_off_c, 1, 35, 112
3, 36288, Note_on_c, 1, 40, 112
3, 36383, Note_off_c, 1, 40, 112
3, 36384, Note_on_c, 1, 39, 112
3, 36575, Note_off_c, 1, 39, 112
3, 36576, Note_on_c, 1, 34, 100
3, 36667, Note_off_c, 1, 34, 100
3, 36672, Note_on_c, 1, 39, 116
3, 36767, Note_off_c, 1, 39, 116
3, 36768, Note_on_c, 1, 38, 112
3, 36959, Note_off_c, 1, 38, 112
3, 36960, Note_on_c, 1, 33, 116
3, 37055, Note_off_c, 1, 33, 116
3, 37056, Note_on_c, 1, 38, 112
3, 37151, Note_off_c, 1, 38, 112
3, 37152, Note_on_c, 1, 37, 112
3, 37331, Note_off_c, 1, 37, 112
3, 37344, Note_on_c, 1, 37, 116
3, 37424, Note_off_c, 1, 37, 116
3, 37440, Note_on_c, 1, 30, 120
3, 37750, Note_off_c, 1, 30, 120
3, 37776, Note_on_c, 1, 30, 120
3, 37824, Note_off_c, 1, 30, 120
3, 37872, Note_on_c, 1, 30, 120
3, 37888, Note_off_c, 1, 30, 120
3, 37920, Note_on_c, 1, 30, 124
3, 37966, Note_off_c, 1, 30, 124
3, 38016, Note_on_c, 1, 30, 124
3, 38088, Note_off_c, 1, 30, 124
3, 38208, Note_on_c, 1, 37, 120
3, 38399, Note_off_c, 1, 37, 120
3, 38400, Note_on_c, 1, 42, 124
3, 38495, Note_off_c, 1, 42, 124
3, 38496, Note_on_c, 1, 37, 104
3, 38586, Note_off_c, 1, 37, 104
3, 38592, Note_on_c, 1, 42, 116
3, 38687, Note_off_c, 1, 42, 116
3, 38688, Note_on_c, 1, 41, 108
3, 38879, Note_off_c, 1, 41, 108
3, 38880, Note_on_c, 1, 36, 120
3, 38975, Note_off_c, 1, 36, 120
3, 38976, Note_on_c, 1, 41, 116
3, 39071, Note_off_c, 1, 41, 116
3, 39072, Note_on_c, 1, 40, 116
3, 39263, Note_off_c, 1, 40, 116
3, 39264, Note_on_c, 1, 35, 116
3, 39359, Note_off_c, 1, 35, 116
3, 39360, Note_on_c, 1, 40, 116
3, 39455, Note_off_c, 1, 40, 116
3, 39456, Note_on_c, 1, 39, 116
3, 39647, Note_off_c, 1, 39, 116
3, 39648, Note_on_c, 1, 34, 108
3, 39743, Note_off_c, 1, 34, 108
3, 39744, Note_on_c, 1, 39, 112
3, 39835, Note_off_c, 1, 39, 112
3, 39840, Note_on_c, 1, 38, 92
3, 40031, Note_off_c, 1, 38, 92
3, 40032, Note_on_c, 1, 33, 120
3, 40127, Note_off_c, 1, 33, 120
3, 40128, Note_on_c, 1, 38, 116
3, 40223, Note_off_c, 1, 38, 116
3, 40224, Note_on_c, 1, 37, 112
3, 40388, Note_off_c, 1, 37, 112
3, 40416, Note_on_c, 1, 37, 112
3, 40511, Note_off_c, 1, 37, 112
3, 40512, Note_on_c, 1, 30, 120
3, 40685, Note_off_c, 1, 30, 120
3, 40704, Note_on_c, 1, 30, 120
3, 40801, Note_off_c, 1, 30, 120
3, 41472, Note_on_c, 1, 27, 124
3, 41551, Note_off_c, 1, 27, 124
3, 41664, Note_on_c, 1, 27, 120
3, 41768, Note_off_c, 1, 27, 120
3, 41808, Note_on_c, 1, 34, 120
3, 41863, Note_off_c, 1, 34, 120
3, 41952, Note_on_c, 1, 34, 124
3, 42104, Note_off_c, 1, 34, 124
3, 42144, Note_on_c, 1, 34, 120
3, 42228, Note_off_c, 1, 34, 120
3, 42240, Note_on_c, 1, 27, 120
3, 42374, Note_off_c, 1, 27, 120
3, 42432, Note_on_c, 1, 27, 120
3, 42548, Note_off_c, 1, 27, 120
3, 42576, Note_on_c, 1, 32, 116
3, 42644, Note_off_c, 1, 32, 116
3, 42720, Note_on_c, 1, 32, 124
3, 42878, Note_off_c, 1, 32, 124
3, 42912, Note_on_c, 1, 30, 120
3, 42983, Note_off_c, 1, 30, 120
3, 43008, Note_on_c, 1, 28, 120
3, 43131, Note_off_c, 1, 28, 120
3, 43200, Note_on_c, 1, 28, 124
3, 43302, Note_off_c, 1, 28, 124
3, 43344, Note_on_c, 1, 28, 120
3, 43416, Note_off_c, 1, 28, 120
3, 43488, Note_on_c, 1, 28, 124
3, 43611, Note_off_c, 1, 28, 124
3, 43680, Note_on_c, 1, 28, 120
3, 43775, Note_off_c, 1, 28, 120
3, 43776, Note_on_c, 1, 28, 120
3, 43899, Note_off_c, 1, 28, 120
3, 43968, Note_on_c, 1, 28, 124
3, 44070, Note_off_c, 1, 28, 124
3, 44112, Note_on_c, 1, 28, 120
3, 44184, Note_off_c, 1, 28, 120
3, 44256, Note_on_c, 1, 28, 124
3, 44351, Note_off_c, 1, 28, 124
3, 44352, Note_on_c, 1, 34, 124
3, 44447, Note_off_c, 1, 34, 124
3, 44448, Note_on_c, 1, 26, 124
3, 44543, Note_off_c, 1, 26, 124
3, 44544, Note_on_c, 1, 27, 124
3, 44623, Note_off_c, 1, 27, 124
3, 44736, Note_on_c, 1, 27, 120
3, 44840, Note_off_c, 1, 27, 120
3, 44880, Note_on_c, 1, 34, 120
3, 44935, Note_off_c, 1, 34, 120
3, 45024, Note_on_c, 1, 34, 124
3, 45176, Note_off_c, 1, 34, 124
3, 45216, Note_on_c, 1, 34, 120
3, 45300, Note_off_c, 1, 34, 120
3, 45312, Note_on_c, 1, 27, 120
3, 45446, Note_off_c, 1, 27, 120
3, 45504, Note_on_c, 1, 27, 120
3, 45620, Note_off_c, 1, 27, 120
3, 45648, Note_on_c, 1, 32, 116
3, 45716, Note_off_c, 1, 32, 116
3, 45792, Note_on_c, 1, 32, 124
3, 45950, Note_off_c, 1, 32, 124
3, 45984, Note_on_c, 1, 30, 120
3, 46055, Note_off_c, 1, 30, 120
3, 46080, Note_on_c, 1, 28, 120
3, 46203, Note_off_c, 1, 28, 120
3, 46272, Note_on_c, 1, 28, 124
3, 46374, Note_off_c, 1, 28, 124
3, 46416, Note_on_c, 1, 28, 120
3, 46488, Note_off_c, 1, 28, 120
3, 46560, Note_on_c, 1, 28, 124
3, 46683, Note_off_c, 1, 28, 124
3, 46752, Note_on_c, 1, 28, 120
3, 46847, Note_off_c, 1, 28, 120
3, 46848, Note_on_c, 1, 28, 120
3, 46971, Note_off_c, 1, 28, 120
3, 47040, Note_on_c, 1, 28, 124
3, 47142, Note_off_c, 1, 28, 124
3, 47184, Note_on_c, 1, 28, 120
3, 47256, Note_off_c, 1, 28, 120
3, 47328, Note_on_c, 1, 28, 124
3, 47423, Note_off_c, 1, 28, 124
3, 47424, Note_on_c, 1, 34, 124
3, 47519, Note_off_c, 1, 34, 124
3, 47520, Note_on_c, 1, 26, 124
3, 47615, Note_off_c, 1, 26, 124
3, 47616, Note_on_c, 1, 27, 124
3, 47695, Note_off_c, 1, 27, 124
3, 47808, Note_on_c, 1, 27, 120
3, 47912, Note_off_c, 1, 27, 120
3, 47952, Note_on_c, 1, 34, 120
3, 48007, Note_off_c, 1, 34, 120
3, 48096, Note_on_c, 1, 34, 124
3, 48248, Note_off_c, 1, 34, 124
3, 48288, Note_on_c, 1, 34, 120
3, 48372, Note_off_c, 1, 34, 120
3, 48384, Note_on_c, 1, 27, 120
3, 48518, Note_off_c, 1, 27, 120
3, 48576, Note_on_c, 1, 27, 120
3, 48692, Note_off_c, 1, 27, 120
3, 48720, Note_on_c, 1, 32, 116
3, 48788, Note_off_c, 1, 32, 116
3, 48864, Note_on_c, 1, 32, 124
3, 49022, Note_off_c, 1, 32, 124
3, 49056, Note_on_c, 1, 32, 120
3, 49127, Note_off_c, 1, 32, 120
3, 49152, Note_on_c, 1, 30, 120
3, 49275, Note_off_c, 1, 30, 120
3, 49344, Note_on_c, 1, 30, 124
3, 49446, Note_off_c, 1, 30, 124
3, 49488, Note_on_c, 1, 30, 120
3, 49560, Note_off_c, 1, 30, 120
3, 49632, Note_on_c, 1, 30, 124
3, 49755, Note_off_c, 1, 30, 124
3, 49824, Note_on_c, 1, 30, 120
3, 49871, Note_off_c, 1, 30, 120
3, 49872, Note_on_c, 1, 37, 108
3, 49919, Note_off_c, 1, 37, 108
3, 49920, Note_on_c, 1, 35, 124
3, 50039, Note_off_c, 1, 35, 124
3, 50112, Note_on_c, 1, 35, 124
3, 50204, Note_off_c, 1, 35, 124
3, 50256, Note_on_c, 1, 35, 124
3, 50335, Note_off_c, 1, 35, 124
3, 50400, Note_on_c, 1, 35, 124
3, 50522, Note_off_c, 1, 35, 124
3, 50592, Note_on_c, 1, 30, 124
3, 50682, Note_off_c, 1, 30, 124
3, 50688, Note_on_c, 1, 28, 124
3, 50782, Note_off_c, 1, 28, 124
3, 50880, Note_on_c, 1, 28, 124
3, 50980, Note_off_c, 1, 28, 124
3, 51024, Note_on_c, 1, 28, 124
3, 51081, Note_off_c, 1, 28, 124
3, 51168, Note_on_c, 1, 28, 124
3, 51317, Note_off_c, 1, 28, 124
3, 51360, Note_on_c, 1, 28, 120
3, 51455, Note_off_c, 1, 28, 120
3, 51456, Note_on_c, 1, 30, 120
3, 51528, Note_off_c, 1, 30, 120
3, 51648, Note_on_c, 1, 30, 124
3, 51733, Note_off_c, 1, 30, 124
3, 51792, Note_on_c, 1, 30, 120
3, 51862, Note_off_c, 1, 30, 120
3, 51936, Note_on_c, 1, 30, 120
3, 52042, Note_off_c, 1, 30, 120
3, 52128, Note_on_c, 1, 34, 116
3, 52175, Note_off_c, 1, 34, 116
3, 52176, Note_on_c, 1, 37, 116
3, 52216, Note_off_c, 1, 37, 116
3, 52224, Note_on_c, 1, 30, 124
3, 52289, Note_off_c, 1, 30, 124
3, 52416, Note_on_c, 1, 30, 124
3, 52509, Note_off_c, 1, 30, 124
3, 52560, Note_on_c, 1, 30, 120
3, 52584, Note_off_c, 1, 30, 120
3, 52656, Note_on_c, 1, 30, 124
3, 52673, Note_off_c, 1, 30, 124
3, 52704, Note_on_c, 1, 30, 124
3, 52802, Note_off_c, 1, 30, 124
3, 52896, Note_on_c, 1, 32, 124
3, 52989, Note_off_c, 1, 32, 124
3, 52992, Note_on_c, 1, 34, 124
3, 53081, Note_off_c, 1, 34, 124
3, 53184, Note_on_c, 1, 34, 124
3, 53271, Note_off_c, 1, 34, 124
3, 53328, Note_on_c, 1, 34, 124
3, 53375, Note_off_c, 1, 34, 124
3, 53472, Note_on_c, 1, 34, 124
3, 53582, Note_off_c, 1, 34, 124
3, 53664, Note_on_c, 1, 35, 124
3, 53756, Note_off_c, 1, 35, 124
3, 53760, Note_on_c, 1, 23, 124
3, 53861, Note_off_c, 1, 23, 124
3, 53952, Note_on_c, 1, 23, 124
3, 54056, Note_off_c, 1, 23, 124
3, 54096, Note_on_c, 1, 23, 124
3, 54160, Note_off_c, 1, 23, 124
3, 54240, Note_on_c, 1, 23, 124
3, 54346, Note_off_c, 1, 23, 124
3, 54432, Note_on_c, 1, 29, 120
3, 54466, Note_off_c, 1, 29, 120
3, 54480, Note_on_c, 1, 30, 120
3, 54527, Note_off_c, 1, 30, 120
3, 54528, Note_on_c, 1, 32, 120
3, 54631, Note_off_c, 1, 32, 120
3, 54720, Note_on_c, 1, 32, 120
3, 54814, Note_off_c, 1, 32, 120
3, 54864, Note_on_c, 1, 32, 116
3, 54930, Note_off_c, 1, 32, 116
3, 55008, Note_on_c, 1, 32, 124
3, 55126, Note_off_c, 1, 32, 124
3, 55200, Note_on_c, 1, 30, 120
3, 55234, Note_off_c, 1, 30, 120
3, 55248, Note_on_c, 1, 27, 112
3, 55295, Note_off_c, 1, 27, 112
3, 55296, Note_on_c, 1, 25, 124
3, 55392, Note_off_c, 1, 25, 124
3, 55488, Note_on_c, 1, 25, 124
3, 55567, Note_off_c, 1, 25, 124
3, 55632, Note_on_c, 1, 25, 120
3, 55695, Note_off_c, 1, 25, 120
3, 55776, Note_on_c, 1, 25, 124
3, 55892, Note_off_c, 1, 25, 124
3, 55968, Note_on_c, 1, 25, 124
3, 56060, Note_off_c, 1, 25, 124
3, 56064, Note_on_c, 1, 30, 124
3, 56154, Note_off_c, 1, 30, 124
3, 56256, Note_on_c, 1, 30, 124
3, 56345, Note_off_c, 1, 30, 124
3, 56400, Note_on_c, 1, 30, 124
3, 56472, Note_off_c, 1, 30, 124
3, 56544, Note_on_c, 1, 30, 124
3, 56647, Note_off_c, 1, 30, 124
3, 56736, Note_on_c, 1, 32, 116
3, 56779, Note_off_c, 1, 32, 116
3, 56784, Note_on_c, 1, 33, 108
3, 56831, Note_off_c, 1, 33, 108
3, 56832, Note_on_c, 1, 34, 120
3, 56925, Note_off_c, 1, 34, 120
3, 57024, Note_on_c, 1, 34, 120
3, 57124, Note_off_c, 1, 34, 120
3, 57168, Note_on_c, 1, 34, 116
3, 57197, Note_off_c, 1, 34, 116
3, 57216, Note_on_c, 1, 34, 116
3, 57241, Note_off_c, 1, 34, 116
3, 57264, Note_on_c, 1, 34, 112
3, 57292, Note_off_c, 1, 34, 112
3, 57312, Note_on_c, 1, 34, 124
3, 57347, Note_off_c, 1, 34, 124
3, 57408, Note_on_c, 1, 46, 124
3, 57495, Note_off_c, 1, 46, 124
3, 57504, Note_on_c, 1, 29, 124
3, 57595, Note_off_c, 1, 29, 124
3, 57600, Note_on_c, 1, 27, 124
3, 57679, Note_off_c, 1, 27, 124
3, 57792, Note_on_c, 1, 27, 120
3, 57896, Note_off_c, 1, 27, 120
3, 57936, Note_on_c, 1, 34, 120
3, 57991, Note_off_c, 1, 34, 120
3, 58080, Note_on_c, 1, 34, 124
3, 58232, Note_off_c, 1, 34, 124
3, 58272, Note_on_c, 1, 34, 120
3, 58356, Note_off_c, 1, 34, 120
3, 58368, Note_on_c, 1, 27, 120
3, 58502, Note_off_c, 1, 27, 120
3, 58560, Note_on_c, 1, 27, 120
3, 58676, Note_off_c, 1, 27, 120
3, 58704, Note_on_c, 1, 32, 116
3, 58772, Note_off_c, 1, 32, 116
3, 58848, Note_on_c, 1, 32, 124
3, 59006, Note_off_c, 1, 32, 124
3, 59040, Note_on_c, 1, 32, 120
3, 59111, Note_off_c, 1, 32, 120
3, 59136, Note_on_c, 1, 30, 120
3, 59259, Note_off_c, 1, 30, 120
3, 59328, Note_on_c, 1, 30, 124
3, 59430, Note_off_c, 1, 30, 124
3, 59472, Note_on_c, 1, 30, 120
3, 59544, Note_off_c, 1, 30, 120
3, 59616, Note_on_c, 1, 30, 124
3, 59739, Note_off_c, 1, 30, 124
3, 59808, Note_on_c, 1, 30, 120
3, 59855, Note_off_c, 1, 30, 120
3, 59856, Note_on_c, 1, 37, 108
3, 59903, Note_off_c, 1, 37, 108
3, 59904, Note_on_c, 1, 35, 124
3, 60023, Note_off_c, 1, 35, 124
3, 60096, Note_on_c, 1, 35, 124
3, 60188, Note_off_c, 1, 35, 124
3, 60240, Note_on_c, 1, 28, 124
3, 60319, Note_off_c, 1, 28, 124
3, 60384, Note_on_c, 1, 28, 124
3, 60506, Note_off_c, 1, 28, 124
3, 60576, Note_on_c, 1, 25, 124
3, 60666, Note_off_c, 1, 25, 124
3, 60672, Note_on_c, 1, 27, 124
3, 60751, Note_off_c, 1, 27, 124
3, 60864, Note_on_c, 1, 27, 120
3, 60968, Note_off_c, 1, 27, 120
3, 61008, Note_on_c, 1, 34, 120
3, 61063, Note_off_c, 1, 34, 120
3, 61152, Note_on_c, 1, 34, 124
3, 61304, Note_off_c, 1, 34, 124
3, 61344, Note_on_c, 1, 34, 120
3, 61428, Note_off_c, 1, 34, 120
3, 61440, Note_on_c, 1, 27, 120
3, 61574, Note_off_c, 1, 27, 120
3, 61632, Note_on_c, 1, 27, 120
3, 61748, Note_off_c, 1, 27, 120
3, 61776, Note_on_c, 1, 32, 116
3, 61844, Note_off_c, 1, 32, 116
3, 61920, Note_on_c, 1, 32, 124
3, 62078, Note_off_c, 1, 32, 124
3, 62112, Note_on_c, 1, 32, 120
3, 62183, Note_off_c, 1, 32, 120
3, 62208, Note_on_c, 1, 30, 120
3, 62331, Note_off_c, 1, 30, 120
3, 62400, Note_on_c, 1, 30, 124
3, 62502, Note_off_c, 1, 30, 124
3, 62544, Note_on_c, 1, 30, 120
3, 62616, Note_off_c, 1, 30, 120
3, 62688, Note_on_c, 1, 30, 124
3, 62811, Note_off_c, 1, 30, 124
3, 62880, Note_on_c, 1, 30, 120
3, 62927, Note_off_c, 1, 30, 120
3, 62928, Note_on_c, 1, 37, 108
3, 62975, Note_off_c, 1, 37, 108
3, 62976, Note_on_c, 1, 35, 124
3, 63095, Note_off_c, 1, 35, 124
3, 63168, Note_on_c, 1, 35, 124
3, 63260, Note_off_c, 1, 35, 124
3, 63312, Note_on_c, 1, 35, 124
3, 63391, Note_off_c, 1, 35, 124
3, 63456, Note_on_c, 1, 35, 124
3, 63578, Note_off_c, 1, 35, 124
3, 63648, Note_on_c, 1, 30, 124
3, 63738, Note_off_c, 1, 30, 124
3, 63744, Note_on_c, 1, 28, 124
3, 63838, Note_off_c, 1, 28, 124
3, 63936, Note_on_c, 1, 28, 124
3, 64036, Note_off_c, 1, 28, 124
3, 64080, Note_on_c, 1, 28, 124
3, 64137, Note_off_c, 1, 28, 124
3, 64224, Note_on_c, 1, 28, 124
3, 64373, Note_off_c, 1, 28, 124
3, 64416, Note_on_c, 1, 28, 120
3, 64511, Note_off_c, 1, 28, 120
3, 64512, Note_on_c, 1, 30, 120
3, 65256, Note_off_c, 1, 30, 120
3, 67440, Note_on_c, 1, 29, 120
3, 67460, Note_off_c, 1, 29, 120
3, 67488, Note_on_c, 1, 29, 120
3, 67522, Note_off_c, 1, 29, 120
3, 67536, Note_on_c, 1, 30, 120
3, 67583, Note_off_c, 1, 30, 120
3, 67584, Note_on_c, 1, 32, 120
3, 67687, Note_off_c, 1, 32, 120
3, 67776, Note_on_c, 1, 32, 120
3, 67870, Note_off_c, 1, 32, 120
3, 67920, Note_on_c, 1, 32, 116
3, 67966, Note_off_c, 1, 32, 116
3, 67968, Note_on_c, 1, 32, 116
3, 68002, Note_off_c, 1, 32, 116
3, 68016, Note_on_c, 1, 32, 116
3, 68062, Note_off_c, 1, 32, 116
3, 68064, Note_on_c, 1, 32, 124
3, 68182, Note_off_c, 1, 32, 124
3, 68256, Note_on_c, 1, 30, 120
3, 68290, Note_off_c, 1, 30, 120
3, 68304, Note_on_c, 1, 27, 112
3, 68351, Note_off_c, 1, 27, 112
3, 68352, Note_on_c, 1, 25, 124
3, 68448, Note_off_c, 1, 25, 124
3, 68544, Note_on_c, 1, 25, 124
3, 68623, Note_off_c, 1, 25, 124
3, 68688, Note_on_c, 1, 25, 120
3, 68751, Note_off_c, 1, 25, 120
3, 68832, Note_on_c, 1, 25, 124
3, 68948, Note_off_c, 1, 25, 124
3, 69024, Note_on_c, 1, 37, 124
3, 69071, Note_off_c, 1, 37, 124
3, 69072, Note_on_c, 1, 39, 124
3, 69119, Note_off_c, 1, 39, 124
3, 69120, Note_on_c, 1, 42, 124
3, 69215, Note_off_c, 1, 42, 124
3, 69216, Note_on_c, 1, 37, 108
3, 69304, Note_off_c, 1, 37, 108
3, 69312, Note_on_c, 1, 42, 120
3, 69407, Note_off_c, 1, 42, 120
3, 69408, Note_on_c, 1, 41, 120
3, 69599, Note_off_c, 1, 41, 120
3, 69600, Note_on_c, 1, 36, 116
3, 69695, Note_off_c, 1, 36, 116
3, 69696, Note_on_c, 1, 41, 116
3, 69791, Note_off_c, 1, 41, 116
3, 69792, Note_on_c, 1, 40, 116
3, 69983, Note_off_c, 1, 40, 116
3, 69984, Note_on_c, 1, 35, 112
3, 70079, Note_off_c, 1, 35, 112
3, 70080, Note_on_c, 1, 40, 112
3, 70175, Note_off_c, 1, 40, 112
3, 70176, Note_on_c, 1, 39, 112
3, 70367, Note_off_c, 1, 39, 112
3, 70368, Note_on_c, 1, 34, 100
3, 70459, Note_off_c, 1, 34, 100
3, 70464, Note_on_c, 1, 39, 116
3, 70559, Note_off_c, 1, 39, 116
3, 70560, Note_on_c, 1, 38, 112
3, 70751, Note_off_c, 1, 38, 112
3, 70752, Note_on_c, 1, 33, 116
3, 70847, Note_off_c, 1, 33, 116
3, 70848, Note_on_c, 1, 38, 112
3, 70943, Note_off_c, 1, 38, 112
3, 70944, Note_on_c, 1, 37, 112
3, 71123, Note_off_c, 1, 37, 112
3, 71136, Note_on_c, 1, 37, 116
3, 71216, Note_off_c, 1, 37, 116
3, 71232, Note_on_c, 1, 30, 120
3, 71542, Note_off_c, 1, 30, 120
3, 71568, Note_on_c, 1, 30, 120
3, 71616, Note_off_c, 1, 30, 120
3, 71664, Note_on_c, 1, 30, 120
3, 71680, Note_off_c, 1, 30, 120
3, 71712, Note_on_c, 1, 30, 124
3, 71758, Note_off_c, 1, 30, 124
3, 71808, Note_on_c, 1, 30, 124
3, 71880, Note_off_c, 1, 30, 124
3, 72000, Note_on_c, 1, 37, 120
3, 72191, Note_off_c, 1, 37, 120
3, 72192, Note_on_c, 1, 42, 124
3, 72287, Note_off_c, 1, 42, 124
3, 72288, Note_on_c, 1, 37, 104
3, 72378, Note_off_c, 1, 37, 104
3, 72384, Note_on_c, 1, 42, 116
3, 72479, Note_off_c, 1, 42, 116
3, 72480, Note_on_c, 1, 41, 108
3, 72671, Note_off_c, 1, 41, 108
3, 72672, Note_on_c, 1, 36, 120
3, 72767, Note_off_c, 1, 36, 120
3, 72768, Note_on_c, 1, 41, 116
3, 72863, Note_off_c, 1, 41, 116
3, 72864, Note_on_c, 1, 40, 116
3, 73055, Note_off_c, 1, 40, 116
3, 73056, Note_on_c, 1, 35, 116
3, 73151, Note_off_c, 1, 35, 116
3, 73152, Note_on_c, 1, 40, 116
3, 73247, Note_off_c, 1, 40, 116
3, 73248, Note_on_c, 1, 39, 116
3, 73439, Note_off_c, 1, 39, 116
3, 73440, Note_on_c, 1, 34, 108
3, 73535, Note_off_c, 1, 34, 108
3, 73536, Note_on_c, 1, 39, 112
3, 73627, Note_off_c, 1, 39, 112
3, 73632, Note_on_c, 1, 38, 92
3, 73823, Note_off_c, 1, 38, 92
3, 73824, Note_on_c, 1, 33, 120
3, 73919, Note_off_c, 1, 33, 120
3, 73920, Note_on_c, 1, 38, 116
3, 74015, Note_off_c, 1, 38, 116
3, 74016, Note_on_c, 1, 37, 112
3, 74180, Note_off_c, 1, 37, 112
3, 74208, Note_on_c, 1, 37, 112
3, 74303, Note_off_c, 1, 37, 112
3, 74304, Note_on_c, 1, 30, 120
3, 74477, Note_off_c, 1, 30, 120
3, 74496, Note_on_c, 1, 30, 120
3, 74593, Note_off_c, 1, 30, 120
3, 75264, Note_on_c, 1, 27, 124
3, 75343, Note_off_c, 1, 27, 124
3, 75456, Note_on_c, 1, 27, 120
3, 75560, Note_off_c, 1, 27, 120
3, 75600, Note_on_c, 1, 34, 120
3, 75655, Note_off_c, 1, 34, 120
3, 75744, Note_on_c, 1, 34, 124
3, 75896, Note_off_c, 1, 34, 124
3, 75936, Note_on_c, 1, 34, 120
3, 76020, Note_off_c, 1, 34, 120
3, 76032, Note_on_c, 1, 27, 120
3, 76166, Note_off_c, 1, 27, 120
3, 76224, Note_on_c, 1, 27, 120
3, 76340, Note_off_c, 1, 27, 120
3, 76368, Note_on_c, 1, 32, 116
3, 76436, Note_off_c, 1, 32, 116
3, 76512, Note_on_c, 1, 32, 124
3, 76670, Note_off_c, 1, 32, 124
3, 76704, Note_on_c, 1, 30, 120
3, 76775, Note_off_c, 1, 30, 120
3, 76800, Note_on_c, 1, 28, 120
3, 76923, Note_off_c, 1, 28, 120
3, 76992, Note_on_c, 1, 28, 124
3, 77094, Note_off_c, 1, 28, 124
3, 77136, Note_on_c, 1, 28, 120
3, 77208, Note_off_c, 1, 28, 120
3, 77280, Note_on_c, 1, 28, 124
3, 77403, Note_off_c, 1, 28, 124
3, 77472, Note_on_c, 1, 28, 120
3, 77567, Note_off_c, 1, 28, 120
3, 77568, Note_on_c, 1, 28, 120
3, 77691, Note_off_c, 1, 28, 120
3, 77760, Note_on_c, 1, 28, 124
3, 77862, Note_off_c, 1, 28, 124
3, 77904, Note_on_c, 1, 28, 120
3, 77976, Note_off_c, 1, 28, 120
3, 78048, Note_on_c, 1, 28, 124
3, 78143, Note_off_c, 1, 28, 124
3, 78144, Note_on_c, 1, 34, 124
3, 78239, Note_off_c, 1, 34, 124
3, 78240, Note_on_c, 1, 26, 124
3, 78335, Note_off_c, 1, 26, 124
3, 78336, Note_on_c, 1, 27, 124
3, 78415, Note_off_c, 1, 27, 124
3, 78528, Note_on_c, 1, 27, 120
3, 78632, Note_off_c, 1, 27, 120
3, 78672, Note_on_c, 1, 34, 120
3, 78727, Note_off_c, 1, 34, 120
3, 78816, Note_on_c, 1, 34, 124
3, 78968, Note_off_c, 1, 34, 124
3, 79008, Note_on_c, 1, 34, 120
3, 79092, Note_off_c, 1, 34, 120
3, 79104, Note_on_c, 1, 27, 120
3, 79238, Note_off_c, 1, 27, 120
3, 79296, Note_on_c, 1, 27, 120
3, 79412, Note_off_c, 1, 27, 120
3, 79440, Note_on_c, 1, 32, 116
3, 79508, Note_off_c, 1, 32, 116
3, 79584, Note_on_c, 1, 32, 124
3, 79742, Note_off_c, 1, 32, 124
3, 79776, Note_on_c, 1, 30, 120
3, 79847, Note_off_c, 1, 30, 120
3, 79872, Note_on_c, 1, 28, 120
3, 79995, Note_off_c, 1, 28, 120
3, 80064, Note_on_c, 1, 28, 124
3, 80166, Note_off_c, 1, 28, 124
3, 80208, Note_on_c, 1, 28, 120
3, 80280, Note_off_c, 1, 28, 120
3, 80352, Note_on_c, 1, 28, 124
3, 80475, Note_off_c, 1, 28, 124
3, 80544, Note_on_c, 1, 28, 120
3, 80639, Note_off_c, 1, 28, 120
3, 80640, Note_on_c, 1, 28, 120
3, 80763, Note_off_c, 1, 28, 120
3, 80832, Note_on_c, 1, 28, 124
3, 80934, Note_off_c, 1, 28, 124
3, 80976, Note_on_c, 1, 28, 120
3, 81048, Note_off_c, 1, 28, 120
3, 81120, Note_on_c, 1, 28, 124
3, 81215, Note_off_c, 1, 28, 124
3, 81216, Note_on_c, 1, 34, 124
3, 81311, Note_off_c, 1, 34, 124
3, 81312, Note_on_c, 1, 26, 124
3, 81407, Note_off_c, 1, 26, 124
3, 81408, Note_on_c, 1, 27, 124
3, 81487, Note_off_c, 1, 27, 124
3, 81600, Note_on_c, 1, 27, 120
3, 81704, Note_off_c, 1, 27, 120
3, 81744, Note_on_c, 1, 34, 120
3, 81799, Note_off_c, 1, 34, 120
3, 81888, Note_on_c, 1, 34, 124
3, 82040, Note_off_c, 1, 34, 124
3, 82080, Note_on_c, 1, 34, 120
3, 82164, Note_off_c, 1, 34, 120
3, 82176, Note_on_c, 1, 27, 120
3, 82310, Note_off_c, 1, 27, 120
3, 82368, Note_on_c, 1, 27, 120
3, 82484, Note_off_c, 1, 27, 120
3, 82512, Note_on_c, 1, 32, 116
3, 82580, Note_off_c, 1, 32, 116
3, 82656, Note_on_c, 1, 32, 124
3, 82814, Note_off_c, 1, 32, 124
3, 82848, Note_on_c, 1, 30, 120
3, 82919, Note_off_c, 1, 30, 120
3, 82944, Note_on_c, 1, 28, 120
3, 83067, Note_off_c, 1, 28, 120
3, 83136, Note_on_c, 1, 28, 124
3, 83238, Note_off_c, 1, 28, 124
3, 83280, Note_on_c, 1, 28, 120
3, 83352, Note_off_c, 1, 28, 120
3, 83424, Note_on_c, 1, 28, 124
3, 83547, Note_off_c, 1, 28, 124
3, 83616, Note_on_c, 1, 28, 120
3, 83711, Note_off_c, 1, 28, 120
3, 83712, Note_on_c, 1, 28, 120
3, 83835, Note_off_c, 1, 28, 120
3, 83904, Note_on_c, 1, 28, 124
3, 84006, Note_off_c, 1, 28, 124
3, 84048, Note_on_c, 1, 28, 120
3, 84120, Note_off_c, 1, 28, 120
3, 84192, Note_on_c, 1, 28, 124
3, 84287, Note_off_c, 1, 28, 124
3, 84288, Note_on_c, 1, 34, 124
3, 84383, Note_off_c, 1, 34, 124
3, 84384, Note_on_c, 1, 26, 124
3, 84479, Note_off_c, 1, 26, 124
3, 84480, Note_on_c, 1, 27, 124
3, 84559, Note_off_c, 1, 27, 124
3, 84672, Note_on_c, 1, 27, 120
3, 84776, Note_off_c, 1, 27, 120
3, 84816, Note_on_c, 1, 34, 120
3, 84871, Note_off_c, 1, 34, 120
3, 84960, Note_on_c, 1, 34, 124
3, 85112, Note_off_c, 1, 34, 124
3, 85152, Note_on_c, 1, 34, 120
3, 85236, Note_off_c, 1, 34, 120
3, 85248, Note_on_c, 1, 27, 120
3, 85382, Note_off_c, 1, 27, 120
3, 85440, Note_on_c, 1, 27, 120
3, 85556, Note_off_c, 1, 27, 120
3, 85584, Note_on_c, 1, 32, 116
3, 85652, Note_off_c, 1, 32, 116
3, 85728, Note_on_c, 1, 32, 124
3, 85886, Note_off_c, 1, 32, 124
3, 85920, Note_on_c, 1, 30, 120
3, 85991, Note_off_c, 1, 30, 120
3, 86016, Note_on_c, 1, 28, 120
3, 86139, Note_off_c, 1, 28, 120
3, 86208, Note_on_c, 1, 28, 124
3, 86310, Note_off_c, 1, 28, 124
3, 86352, Note_on_c, 1, 28, 120
3, 86424, Note_off_c, 1, 28, 120
3, 86496, Note_on_c, 1, 28, 124
3, 86619, Note_off_c, 1, 28, 124
3, 86688, Note_on_c, 1, 28, 120
3, 86783, Note_off_c, 1, 28, 120
3, 86784, Note_on_c, 1, 28, 120
3, 86907, Note_off_c, 1, 28, 120
3, 86976, Note_on_c, 1, 28, 124
3, 87078, Note_off_c, 1, 28, 124
3, 87120, Note_on_c, 1, 28, 120
3, 87192, Note_off_c, 1, 28, 120
3, 87216, Note_on_c, 1, 28, 119
3, 87263, Note_off_c, 1, 28, 119
3, 87264, Note_on_c, 1, 28, 124
3, 87359, Note_off_c, 1, 28, 124
3, 87360, Note_on_c, 1, 34, 124
3, 87407, Note_off_c, 1, 34, 124
3, 87408, Note_on_c, 1, 34, 124
3, 87503, Note_off_c, 1, 34, 124
3, 87503, End_track
4, 0, Start_track
4, 0, Text_t, "Chitarra"
4, 7680, Program_c, 2, 87
4, 7728, Control_c, 2, 7, 105
4, 7776, Control_c, 2, 10, 76
4, 7824, Control_c, 2, 91, 75
4, 7872, Control_c, 2, 93, 92
4, 8425, Pitch_bend_c, 2, 7968
4, 8428, Pitch_bend_c, 2, 7232
4, 8430, Pitch_bend_c, 2, 6048
4, 8433, Pitch_bend_c, 2, 4512
4, 8436, Pitch_bend_c, 2, 2976
4, 8438, Pitch_bend_c, 2, 1760
4, 8441, Pitch_bend_c, 2, 896
4, 8443, Pitch_bend_c, 2, 384
4, 8447, Pitch_bend_c, 2, 160
4, 8448, Note_on_c, 2, 75, 80
4, 8448, Note_on_c, 2, 70, 80
4, 8452, Pitch_bend_c, 2, 480
4, 8455, Pitch_bend_c, 2, 1024
4, 8457, Pitch_bend_c, 2, 1824
4, 8460, Pitch_bend_c, 2, 2816
4, 8462, Pitch_bend_c, 2, 3872
4, 8465, Pitch_bend_c, 2, 5024
4, 8467, Pitch_bend_c, 2, 6304
4, 8471, Pitch_bend_c, 2, 7264
4, 8474, Pitch_bend_c, 2, 7904
4, 8476, Pitch_bend_c, 2, 8192
4, 8543, Note_off_c, 2, 75, 80
4, 8544, Note_on_c, 2, 63, 80
4, 8546, Note_off_c, 2, 70, 80
4, 8586, Note_off_c, 2, 63, 80
4, 8592, Note_on_c, 2, 73, 80
4, 8592, Note_on_c, 2, 68, 80
4, 8613, Note_off_c, 2, 73, 80
4, 8615, Note_off_c, 2, 68, 80
4, 8928, Note_on_c, 2, 61, 90
4, 8962, Note_off_c, 2, 61, 90
4, 8976, Note_on_c, 2, 63, 86
4, 9011, Note_off_c, 2, 63, 86
4, 9024, Note_on_c, 2, 66, 90
4, 9057, Note_off_c, 2, 66, 90
4, 9072, Note_on_c, 2, 68, 90
4, 9096, Note_off_c, 2, 68, 90
4, 9167, Control_c, 2, 1, 127
4, 9168, Note_on_c, 2, 66, 90
4, 9311, Note_off_c, 2, 66, 90
4, 9311, Control_c, 2, 1, 0
4, 9312, Note_on_c, 2, 63, 90
4, 9332, Note_off_c, 2, 63, 90
4, 48371, Pitch_bend_c, 2, 7840
4, 48373, Pitch_bend_c, 2, 6880
4, 48376, Pitch_bend_c, 2, 5408
4, 48380, Pitch_bend_c, 2, 3456
4, 48382, Pitch_bend_c, 2, 1568
4, 48384, Note_on_c, 2, 75, 80
4, 48384, Note_on_c, 2, 70, 80
4, 48385, Pitch_bend_c, 2, 224
4, 48387, Pitch_bend_c, 2, 0
4, 48404, Pitch_bend_c, 2, 768
4, 48406, Pitch_bend_c, 2, 1824
4, 48409, Pitch_bend_c, 2, 3008
4, 48411, Pitch_bend_c, 2, 4256
4, 48414, Pitch_bend_c, 2, 5600
4, 48417, Pitch_bend_c, 2, 6752
4, 48419, Pitch_bend_c, 2, 7584
4, 48422, Pitch_bend_c, 2, 8096
4, 48424, Pitch_bend_c, 2, 8192
4, 48478, Note_off_c, 2, 75, 80
4, 48480, Note_on_c, 2, 63, 80
4, 48482, Note_off_c, 2, 70, 80
4, 48517, Note_off_c, 2, 63, 80
4, 48528, Note_on_c, 2, 68, 80
4, 48528, Note_on_c, 2, 73, 80
4, 48550, Note_off_c, 2, 73, 80
4, 48551, Note_off_c, 2, 68, 80
4, 48864, Note_on_c, 2, 61, 87
4, 48898, Note_off_c, 2, 61, 87
4, 48912, Note_on_c, 2, 63, 85
4, 48947, Note_off_c, 2, 63, 85
4, 48960, Note_on_c, 2, 66, 87
4, 48993, Note_off_c, 2, 66, 87
4, 49008, Note_on_c, 2, 68, 87
4, 49032, Note_off_c, 2, 68, 87
4, 49103, Control_c, 2, 1, 127
4, 49104, Note_on_c, 2, 66, 87
4, 49247, Note_off_c, 2, 66, 87
4, 49247, Control_c, 2, 1, 0
4, 49248, Note_on_c, 2, 63, 87
4, 49280, Note_off_c, 2, 63, 87
4, 49280, End_track
5, 0, Start_track
5, 0, Text_t, "MELODIA "
5, 9984, Program_c, 3, 5
5, 10032, Control_c, 3, 7, 127
5, 10080, Control_c, 3, 10, 64
5, 10128, Control_c, 3, 91, 90
5, 10176, Control_c, 3, 93, 90
5, 10752, Note_on_c, 3, 70, 90
5, 10943, Note_off_c, 3, 70, 90
5, 10944, Note_on_c, 3, 66, 90
5, 10980, Note_off_c, 3, 66, 90
5, 11040, Note_on_c, 3, 68, 90
5, 11087, Note_off_c, 3, 68, 90
5, 11088, Note_on_c, 3, 70, 90
5, 11135, Note_off_c, 3, 70, 90
5, 11136, Note_on_c, 3, 68, 90
5, 11327, Note_off_c, 3, 68, 90
5, 11328, Note_on_c, 3, 63, 90
5, 11360, Note_off_c, 3, 63, 90
5, 11424, Note_on_c, 3, 66, 90
5, 11711, Note_off_c, 3, 66, 90
5, 11712, Note_on_c, 3, 63, 90
5, 11746, Note_off_c, 3, 63, 90
5, 11808, Note_on_c, 3, 68, 90
5, 11951, Note_off_c, 3, 68, 90
5, 11952, Note_on_c, 3, 66, 90
5, 11991, Note_off_c, 3, 66, 90
5, 12000, Note_on_c, 3, 63, 90
5, 12038, Note_off_c, 3, 63, 90
5, 12192, Note_on_c, 3, 63, 90
5, 12227, Note_off_c, 3, 63, 90
5, 12288, Note_on_c, 3, 64, 90
5, 12366, Note_off_c, 3, 64, 90
5, 12384, Note_on_c, 3, 63, 90
5, 12519, Note_off_c, 3, 63, 90
5, 12576, Note_on_c, 3, 66, 90
5, 12766, Note_off_c, 3, 66, 90
5, 12768, Note_on_c, 3, 61, 90
5, 12834, Note_off_c, 3, 61, 90
5, 12864, Note_on_c, 3, 61, 90
5, 12920, Note_off_c, 3, 61, 90
5, 12960, Note_on_c, 3, 61, 90
5, 13144, Note_off_c, 3, 61, 90
5, 13152, Note_on_c, 3, 59, 90
5, 13336, Note_off_c, 3, 59, 90
5, 13344, Note_on_c, 3, 66, 90
5, 13757, Note_off_c, 3, 66, 90
5, 13824, Note_on_c, 3, 70, 90
5, 14014, Note_off_c, 3, 70, 90
5, 14016, Note_on_c, 3, 66, 90
5, 14057, Note_off_c, 3, 66, 90
5, 14112, Note_on_c, 3, 68, 90
5, 14159, Note_off_c, 3, 68, 90
5, 14160, Note_on_c, 3, 70, 90
5, 14207, Note_off_c, 3, 70, 90
5, 14208, Note_on_c, 3, 68, 90
5, 14399, Note_off_c, 3, 68, 90
5, 14400, Note_on_c, 3, 63, 90
5, 14439, Note_off_c, 3, 63, 90
5, 14496, Note_on_c, 3, 66, 90
5, 14783, Note_off_c, 3, 66, 90
5, 14784, Note_on_c, 3, 63, 90
5, 14815, Note_off_c, 3, 63, 90
5, 14880, Note_on_c, 3, 68, 90
5, 15023, Note_off_c, 3, 68, 90
5, 15024, Note_on_c, 3, 66, 90
5, 15061, Note_off_c, 3, 66, 90
5, 15072, Note_on_c, 3, 63, 90
5, 15164, Note_off_c, 3, 63, 90
5, 15264, Note_on_c, 3, 63, 90
5, 15325, Note_off_c, 3, 63, 90
5, 15360, Note_on_c, 3, 64, 90
5, 15455, Note_off_c, 3, 64, 90
5, 15456, Note_on_c, 3, 63, 90
5, 15550, Note_off_c, 3, 63, 90
5, 15552, Note_on_c, 3, 61, 90
5, 15647, Note_off_c, 3, 61, 90
5, 15648, Note_on_c, 3, 66, 90
5, 15839, Note_off_c, 3, 66, 90
5, 15840, Note_on_c, 3, 61, 90
5, 15905, Note_off_c, 3, 61, 90
5, 15936, Note_on_c, 3, 61, 90
5, 15989, Note_off_c, 3, 61, 90
5, 16032, Note_on_c, 3, 61, 90
5, 16219, Note_off_c, 3, 61, 90
5, 16224, Note_on_c, 3, 59, 90
5, 16363, Note_off_c, 3, 59, 90
5, 16416, Note_on_c, 3, 63, 90
5, 16594, Note_off_c, 3, 63, 90
5, 16608, Note_on_c, 3, 66, 90
5, 16703, Note_off_c, 3, 66, 90
5, 16704, Note_on_c, 3, 70, 90
5, 16793, Note_off_c, 3, 70, 90
5, 16800, Note_on_c, 3, 68, 90
5, 16872, Note_off_c, 3, 68, 90
5, 16896, Note_on_c, 3, 68, 90
5, 16954, Note_off_c, 3, 68, 90
5, 16992, Note_on_c, 3, 56, 90
5, 17051, Note_off_c, 3, 56, 90
5, 17088, Note_on_c, 3, 68, 90
5, 17178, Note_off_c, 3, 68, 90
5, 17184, Note_on_c, 3, 70, 90
5, 17279, Note_off_c, 3, 70, 90
5, 17280, Note_on_c, 3, 71, 90
5, 17375, Note_off_c, 3, 71, 90
5, 17376, Note_on_c, 3, 73, 90
5, 17471, Note_off_c, 3, 73, 90
5, 17472, Note_on_c, 3, 70, 90
5, 17565, Note_off_c, 3, 70, 90
5, 17568, Note_on_c, 3, 68, 90
5, 17663, Note_off_c, 3, 68, 90
5, 17664, Note_on_c, 3, 70, 90
5, 17853, Note_off_c, 3, 70, 90
5, 18624, Note_on_c, 3, 68, 90
5, 18719, Note_off_c, 3, 68, 90
5, 18720, Note_on_c, 3, 70, 90
5, 18815, Note_off_c, 3, 70, 90
5, 18816, Note_on_c, 3, 71, 90
5, 18911, Note_off_c, 3, 71, 90
5, 18912, Note_on_c, 3, 73, 90
5, 19002, Note_off_c, 3, 73, 90
5, 19008, Note_on_c, 3, 70, 90
5, 19103, Note_off_c, 3, 70, 90
5, 19104, Note_on_c, 3, 68, 90
5, 19199, Note_off_c, 3, 68, 90
5, 19200, Note_on_c, 3, 70, 90
5, 19343, Note_off_c, 3, 70, 90
5, 19344, Note_on_c, 3, 68, 90
5, 19391, Note_off_c, 3, 68, 90
5, 19392, Note_on_c, 3, 65, 90
5, 19439, Note_off_c, 3, 65, 90
5, 19440, Note_on_c, 3, 63, 90
5, 19487, Note_off_c, 3, 63, 90
5, 19488, Note_on_c, 3, 61, 90
5, 19686, Note_off_c, 3, 61, 90
5, 19872, Note_on_c, 3, 66, 90
5, 20063, Note_off_c, 3, 66, 90
5, 20064, Note_on_c, 3, 68, 90
5, 20111, Note_off_c, 3, 68, 90
5, 20112, Note_on_c, 3, 66, 90
5, 20159, Note_off_c, 3, 66, 90
5, 20160, Note_on_c, 3, 63, 90
5, 20210, Note_off_c, 3, 63, 90
5, 20400, Note_on_c, 3, 66, 90
5, 20543, Note_off_c, 3, 66, 90
5, 20544, Note_on_c, 3, 65, 90
5, 20639, Note_off_c, 3, 65, 90
5, 20640, Note_on_c, 3, 66, 90
5, 20719, Note_off_c, 3, 66, 90
5, 20736, Note_on_c, 3, 63, 90
5, 20917, Note_off_c, 3, 63, 90
5, 20928, Note_on_c, 3, 70, 90
5, 20990, Note_off_c, 3, 70, 90
5, 21024, Note_on_c, 3, 70, 90
5, 21119, Note_off_c, 3, 70, 90
5, 21120, Note_on_c, 3, 68, 90
5, 21169, Note_off_c, 3, 68, 90
5, 21216, Note_on_c, 3, 68, 90
5, 21407, Note_off_c, 3, 68, 90
5, 21408, Note_on_c, 3, 63, 90
5, 21557, Note_off_c, 3, 63, 90
5, 21600, Note_on_c, 3, 66, 90
5, 21647, Note_off_c, 3, 66, 90
5, 21696, Note_on_c, 3, 66, 90
5, 21743, Note_off_c, 3, 66, 90
5, 21792, Note_on_c, 3, 66, 90
5, 21983, Note_off_c, 3, 66, 90
5, 21984, Note_on_c, 3, 65, 90
5, 22067, Note_off_c, 3, 65, 90
5, 22080, Note_on_c, 3, 68, 90
5, 22223, Note_off_c, 3, 68, 90
5, 22224, Note_on_c, 3, 70, 90
5, 22271, Note_off_c, 3, 70, 90
5, 22272, Note_on_c, 3, 68, 90
5, 22319, Note_off_c, 3, 68, 90
5, 22320, Note_on_c, 3, 66, 90
5, 22367, Note_off_c, 3, 66, 90
5, 22368, Note_on_c, 3, 68, 90
5, 22922, Note_off_c, 3, 68, 90
5, 23808, Note_on_c, 3, 70, 90
5, 23992, Note_off_c, 3, 70, 90
5, 24000, Note_on_c, 3, 66, 90
5, 24047, Note_off_c, 3, 66, 90
5, 24096, Note_on_c, 3, 68, 90
5, 24143, Note_off_c, 3, 68, 90
5, 24144, Note_on_c, 3, 70, 90
5, 24191, Note_off_c, 3, 70, 90
5, 24192, Note_on_c, 3, 68, 90
5, 24379, Note_off_c, 3, 68, 90
5, 24384, Note_on_c, 3, 63, 90
5, 24425, Note_off_c, 3, 63, 90
5, 24480, Note_on_c, 3, 66, 90
5, 24761, Note_off_c, 3, 66, 90
5, 24768, Note_on_c, 3, 63, 90
5, 24806, Note_off_c, 3, 63, 90
5, 24864, Note_on_c, 3, 68, 90
5, 25007, Note_off_c, 3, 68, 90
5, 25008, Note_on_c, 3, 66, 90
5, 25054, Note_off_c, 3, 66, 90
5, 25056, Note_on_c, 3, 63, 90
5, 25106, Note_off_c, 3, 63, 90
5, 25248, Note_on_c, 3, 63, 90
5, 25308, Note_off_c, 3, 63, 90
5, 25344, Note_on_c, 3, 64, 90
5, 25424, Note_off_c, 3, 64, 90
5, 25440, Note_on_c, 3, 63, 90
5, 25535, Note_off_c, 3, 63, 90
5, 25536, Note_on_c, 3, 61, 90
5, 25631, Note_off_c, 3, 61, 90
5, 25632, Note_on_c, 3, 66, 90
5, 25823, Note_off_c, 3, 66, 90
5, 25824, Note_on_c, 3, 61, 90
5, 25895, Note_off_c, 3, 61, 90
5, 25920, Note_on_c, 3, 61, 90
5, 25981, Note_off_c, 3, 61, 90
5, 26016, Note_on_c, 3, 61, 90
5, 26199, Note_off_c, 3, 61, 90
5, 26208, Note_on_c, 3, 59, 90
5, 26399, Note_off_c, 3, 59, 90
5, 26400, Note_on_c, 3, 66, 90
5, 26733, Note_off_c, 3, 66, 90
5, 26880, Note_on_c, 3, 70, 90
5, 27071, Note_off_c, 3, 70, 90
5, 27072, Note_on_c, 3, 66, 90
5, 27155, Note_off_c, 3, 66, 90
5, 27168, Note_on_c, 3, 68, 90
5, 27215, Note_off_c, 3, 68, 90
5, 27216, Note_on_c, 3, 70, 90
5, 27263, Note_off_c, 3, 70, 90
5, 27264, Note_on_c, 3, 68, 90
5, 27455, Note_off_c, 3, 68, 90
5, 27456, Note_on_c, 3, 63, 90
5, 27502, Note_off_c, 3, 63, 90
5, 27552, Note_on_c, 3, 66, 90
5, 27833, Note_off_c, 3, 66, 90
5, 27840, Note_on_c, 3, 70, 90
5, 27935, Note_off_c, 3, 70, 90
5, 27936, Note_on_c, 3, 68, 90
5, 28110, Note_off_c, 3, 68, 90
5, 28320, Note_on_c, 3, 63, 90
5, 28397, Note_off_c, 3, 63, 90
5, 28416, Note_on_c, 3, 64, 90
5, 28511, Note_off_c, 3, 64, 90
5, 28512, Note_on_c, 3, 63, 90
5, 28606, Note_off_c, 3, 63, 90
5, 28608, Note_on_c, 3, 61, 90
5, 28703, Note_off_c, 3, 61, 90
5, 28704, Note_on_c, 3, 66, 90
5, 28895, Note_off_c, 3, 66, 90
5, 28896, Note_on_c, 3, 61, 90
5, 29048, Note_off_c, 3, 61, 90
5, 29088, Note_on_c, 3, 61, 90
5, 29279, Note_off_c, 3, 61, 90
5, 29280, Note_on_c, 3, 59, 90
5, 29444, Note_off_c, 3, 59, 90
5, 29472, Note_on_c, 3, 63, 90
5, 29649, Note_off_c, 3, 63, 90
5, 29664, Note_on_c, 3, 66, 90
5, 29759, Note_off_c, 3, 66, 90
5, 29760, Note_on_c, 3, 70, 90
5, 29848, Note_off_c, 3, 70, 90
5, 29856, Note_on_c, 3, 68, 90
5, 29941, Note_off_c, 3, 68, 90
5, 29952, Note_on_c, 3, 68, 90
5, 30024, Note_off_c, 3, 68, 90
5, 30048, Note_on_c, 3, 56, 90
5, 30092, Note_off_c, 3, 56, 90
5, 30144, Note_on_c, 3, 68, 90
5, 30239, Note_off_c, 3, 68, 90
5, 30240, Note_on_c, 3, 70, 90
5, 30334, Note_off_c, 3, 70, 90
5, 30336, Note_on_c, 3, 71, 90
5, 30431, Note_off_c, 3, 71, 90
5, 30432, Note_on_c, 3, 73, 90
5, 30527, Note_off_c, 3, 73, 90
5, 30528, Note_on_c, 3, 70, 90
5, 30623, Note_off_c, 3, 70, 90
5, 30624, Note_on_c, 3, 68, 90
5, 30719, Note_off_c, 3, 68, 90
5, 30720, Note_on_c, 3, 70, 90
5, 30908, Note_off_c, 3, 70, 90
5, 31680, Note_on_c, 3, 68, 90
5, 31775, Note_off_c, 3, 68, 90
5, 31776, Note_on_c, 3, 70, 90
5, 31871, Note_off_c, 3, 70, 90
5, 31872, Note_on_c, 3, 71, 90
5, 31967, Note_off_c, 3, 71, 90
5, 31968, Note_on_c, 3, 73, 90
5, 32060, Note_off_c, 3, 73, 90
5, 32064, Note_on_c, 3, 70, 90
5, 32159, Note_off_c, 3, 70, 90
5, 32160, Note_on_c, 3, 68, 90
5, 32255, Note_off_c, 3, 68, 90
5, 32256, Note_on_c, 3, 70, 90
5, 32399, Note_off_c, 3, 70, 90
5, 32400, Note_on_c, 3, 68, 90
5, 32447, Note_off_c, 3, 68, 90
5, 32448, Note_on_c, 3, 65, 90
5, 32495, Note_off_c, 3, 65, 90
5, 32496, Note_on_c, 3, 63, 90
5, 32543, Note_off_c, 3, 63, 90
5, 32544, Note_on_c, 3, 61, 90
5, 32630, Note_off_c, 3, 61, 90
5, 32928, Note_on_c, 3, 66, 90
5, 33117, Note_off_c, 3, 66, 90
5, 33120, Note_on_c, 3, 68, 90
5, 33167, Note_off_c, 3, 68, 90
5, 33168, Note_on_c, 3, 66, 90
5, 33215, Note_off_c, 3, 66, 90
5, 33216, Note_on_c, 3, 63, 90
5, 33297, Note_off_c, 3, 63, 90
5, 33456, Note_on_c, 3, 66, 90
5, 33599, Note_off_c, 3, 66, 90
5, 33600, Note_on_c, 3, 65, 90
5, 33693, Note_off_c, 3, 65, 90
5, 33696, Note_on_c, 3, 66, 90
5, 33786, Note_off_c, 3, 66, 90
5, 33792, Note_on_c, 3, 63, 90
5, 33983, Note_off_c, 3, 63, 90
5, 33984, Note_on_c, 3, 70, 90
5, 34032, Note_off_c, 3, 70, 90
5, 34080, Note_on_c, 3, 70, 90
5, 34175, Note_off_c, 3, 70, 90
5, 34176, Note_on_c, 3, 68, 90
5, 34235, Note_off_c, 3, 68, 90
5, 34272, Note_on_c, 3, 68, 90
5, 34433, Note_off_c, 3, 68, 90
5, 34464, Note_on_c, 3, 63, 90
5, 34655, Note_off_c, 3, 63, 90
5, 34656, Note_on_c, 3, 66, 90
5, 34732, Note_off_c, 3, 66, 90
5, 34752, Note_on_c, 3, 66, 90
5, 34807, Note_off_c, 3, 66, 90
5, 34848, Note_on_c, 3, 66, 90
5, 34943, Note_off_c, 3, 66, 90
5, 34944, Note_on_c, 3, 65, 90
5, 35016, Note_off_c, 3, 65, 90
5, 35040, Note_on_c, 3, 65, 90
5, 35240, Note_off_c, 3, 65, 90
5, 35328, Note_on_c, 3, 71, 90
5, 35519, Note_off_c, 3, 71, 90
5, 35520, Note_on_c, 3, 70, 90
5, 35602, Note_off_c, 3, 70, 90
5, 35616, Note_on_c, 3, 70, 90
5, 35807, Note_off_c, 3, 70, 90
5, 35808, Note_on_c, 3, 69, 90
5, 35986, Note_off_c, 3, 69, 90
5, 36000, Note_on_c, 3, 69, 90
5, 36191, Note_off_c, 3, 69, 90
5, 36192, Note_on_c, 3, 68, 90
5, 36365, Note_off_c, 3, 68, 90
5, 36384, Note_on_c, 3, 68, 90
5, 36575, Note_off_c, 3, 68, 90
5, 36576, Note_on_c, 3, 67, 90
5, 36749, Note_off_c, 3, 67, 90
5, 36768, Note_on_c, 3, 67, 90
5, 36959, Note_off_c, 3, 67, 90
5, 36960, Note_on_c, 3, 66, 90
5, 37122, Note_off_c, 3, 66, 90
5, 37152, Note_on_c, 3, 66, 90
5, 37324, Note_off_c, 3, 66, 90
5, 37344, Note_on_c, 3, 65, 90
5, 37439, Note_off_c, 3, 65, 90
5, 37440, Note_on_c, 3, 68, 90
5, 38015, Note_off_c, 3, 68, 90
5, 38112, Note_on_c, 3, 61, 90
5, 38180, Note_off_c, 3, 61, 90
5, 38208, Note_on_c, 3, 63, 90
5, 38255, Note_off_c, 3, 63, 90
5, 38256, Note_on_c, 3, 66, 90
5, 38390, Note_off_c, 3, 66, 90
5, 38400, Note_on_c, 3, 71, 90
5, 38591, Note_off_c, 3, 71, 90
5, 38592, Note_on_c, 3, 70, 90
5, 38679, Note_off_c, 3, 70, 90
5, 38688, Note_on_c, 3, 70, 90
5, 38879, Note_off_c, 3, 70, 90
5, 38880, Note_on_c, 3, 69, 90
5, 38927, Note_off_c, 3, 69, 90
5, 38928, Note_on_c, 3, 67, 90
5, 39014, Note_off_c, 3, 67, 90
5, 39072, Note_on_c, 3, 69, 90
5, 39263, Note_off_c, 3, 69, 90
5, 39264, Note_on_c, 3, 68, 90
5, 39430, Note_off_c, 3, 68, 90
5, 39456, Note_on_c, 3, 68, 90
5, 39647, Note_off_c, 3, 68, 90
5, 39648, Note_on_c, 3, 67, 90
5, 39823, Note_off_c, 3, 67, 90
5, 39840, Note_on_c, 3, 67, 90
5, 40031, Note_off_c, 3, 67, 90
5, 40032, Note_on_c, 3, 66, 90
5, 40186, Note_off_c, 3, 66, 90
5, 40224, Note_on_c, 3, 66, 90
5, 40400, Note_off_c, 3, 66, 90
5, 40416, Note_on_c, 3, 65, 90
5, 40511, Note_off_c, 3, 65, 90
5, 40512, Note_on_c, 3, 68, 90
5, 40895, Note_off_c, 3, 68, 90
5, 40896, Note_on_c, 3, 58, 90
5, 40991, Note_off_c, 3, 58, 90
5, 40992, Note_on_c, 3, 61, 90
5, 41087, Note_off_c, 3, 61, 90
5, 41088, Note_on_c, 3, 63, 90
5, 41183, Note_off_c, 3, 63, 90
5, 41184, Note_on_c, 3, 66, 90
5, 41279, Note_off_c, 3, 66, 90
5, 41280, Note_on_c, 3, 68, 90
5, 41373, Note_off_c, 3, 68, 90
5, 41376, Note_on_c, 3, 66, 90
5, 41449, Note_off_c, 3, 66, 90
5, 41472, Note_on_c, 3, 70, 90
5, 41567, Note_off_c, 3, 70, 90
5, 41568, Note_on_c, 3, 68, 90
5, 41663, Note_off_c, 3, 68, 90
5, 41664, Note_on_c, 3, 66, 90
5, 41755, Note_off_c, 3, 66, 90
5, 41760, Note_on_c, 3, 68, 90
5, 41951, Note_off_c, 3, 68, 90
5, 41952, Note_on_c, 3, 66, 90
5, 42047, Note_off_c, 3, 66, 90
5, 42048, Note_on_c, 3, 63, 90
5, 42143, Note_off_c, 3, 63, 90
5, 42144, Note_on_c, 3, 66, 90
5, 42311, Note_off_c, 3, 66, 90
5, 42336, Note_on_c, 3, 63, 90
5, 42428, Note_off_c, 3, 63, 90
5, 42432, Note_on_c, 3, 61, 90
5, 42527, Note_off_c, 3, 61, 90
5, 42528, Note_on_c, 3, 63, 90
5, 42712, Note_off_c, 3, 63, 90
5, 42720, Note_on_c, 3, 61, 90
5, 42815, Note_off_c, 3, 61, 90
5, 42816, Note_on_c, 3, 58, 90
5, 42910, Note_off_c, 3, 58, 90
5, 42912, Note_on_c, 3, 56, 90
5, 43007, Note_off_c, 3, 56, 90
5, 43008, Note_on_c, 3, 54, 90
5, 43098, Note_off_c, 3, 54, 90
5, 43104, Note_on_c, 3, 56, 90
5, 43629, Note_off_c, 3, 56, 90
5, 43968, Note_on_c, 3, 58, 90
5, 44063, Note_off_c, 3, 58, 90
5, 44064, Note_on_c, 3, 61, 90
5, 44154, Note_off_c, 3, 61, 90
5, 44160, Note_on_c, 3, 63, 90
5, 44255, Note_off_c, 3, 63, 90
5, 44256, Note_on_c, 3, 66, 90
5, 44349, Note_off_c, 3, 66, 90
5, 44352, Note_on_c, 3, 68, 90
5, 44447, Note_off_c, 3, 68, 90
5, 44448, Note_on_c, 3, 66, 90
5, 44543, Note_off_c, 3, 66, 90
5, 44544, Note_on_c, 3, 70, 90
5, 44639, Note_off_c, 3, 70, 90
5, 44640, Note_on_c, 3, 68, 90
5, 44735, Note_off_c, 3, 68, 90
5, 44736, Note_on_c, 3, 66, 90
5, 44831, Note_off_c, 3, 66, 90
5, 44832, Note_on_c, 3, 68, 90
5, 45023, Note_off_c, 3, 68, 90
5, 45024, Note_on_c, 3, 66, 90
5, 45119, Note_off_c, 3, 66, 90
5, 45120, Note_on_c, 3, 63, 90
5, 45215, Note_off_c, 3, 63, 90
5, 45216, Note_on_c, 3, 66, 90
5, 45407, Note_off_c, 3, 66, 90
5, 45408, Note_on_c, 3, 63, 90
5, 45503, Note_off_c, 3, 63, 90
5, 45504, Note_on_c, 3, 61, 90
5, 45592, Note_off_c, 3, 61, 90
5, 45600, Note_on_c, 3, 63, 90
5, 45730, Note_off_c, 3, 63, 90
5, 45792, Note_on_c, 3, 61, 90
5, 45848, Note_off_c, 3, 61, 90
5, 45888, Note_on_c, 3, 63, 90
5, 45947, Note_off_c, 3, 63, 90
5, 45984, Note_on_c, 3, 61, 90
5, 46021, Note_off_c, 3, 61, 90
5, 46032, Note_on_c, 3, 63, 90
5, 46093, Note_off_c, 3, 63, 90
5, 46128, Note_on_c, 3, 61, 90
5, 46157, Note_off_c, 3, 61, 90
5, 46176, Note_on_c, 3, 66, 90
5, 46582, Note_off_c, 3, 66, 90
5, 50880, Note_on_c, 3, 68, 90
5, 50975, Note_off_c, 3, 68, 90
5, 50976, Note_on_c, 3, 70, 90
5, 51071, Note_off_c, 3, 70, 90
5, 51072, Note_on_c, 3, 71, 90
5, 51167, Note_off_c, 3, 71, 90
5, 51168, Note_on_c, 3, 73, 90
5, 51263, Note_off_c, 3, 73, 90
5, 51264, Note_on_c, 3, 70, 90
5, 51359, Note_off_c, 3, 70, 90
5, 51360, Note_on_c, 3, 68, 90
5, 51455, Note_off_c, 3, 68, 90
5, 51456, Note_on_c, 3, 70, 90
5, 51945, Note_off_c, 3, 70, 90
5, 52416, Note_on_c, 3, 68, 90
5, 52511, Note_off_c, 3, 68, 90
5, 52512, Note_on_c, 3, 70, 90
5, 52607, Note_off_c, 3, 70, 90
5, 52608, Note_on_c, 3, 71, 90
5, 52703, Note_off_c, 3, 71, 90
5, 52704, Note_on_c, 3, 73, 90
5, 52798, Note_off_c, 3, 73, 90
5, 52800, Note_on_c, 3, 70, 90
5, 52895, Note_off_c, 3, 70, 90
5, 52896, Note_on_c, 3, 68, 90
5, 52991, Note_off_c, 3, 68, 90
5, 52992, Note_on_c, 3, 70, 90
5, 53135, Note_off_c, 3, 70, 90
5, 53136, Note_on_c, 3, 68, 90
5, 53183, Note_off_c, 3, 68, 90
5, 53184, Note_on_c, 3, 65, 90
5, 53231, Note_off_c, 3, 65, 90
5, 53232, Note_on_c, 3, 63, 90
5, 53279, Note_off_c, 3, 63, 90
5, 53280, Note_on_c, 3, 61, 90
5, 53381, Note_off_c, 3, 61, 90
5, 54192, Note_on_c, 3, 66, 90
5, 54327, Note_off_c, 3, 66, 90
5, 54336, Note_on_c, 3, 65, 90
5, 54427, Note_off_c, 3, 65, 90
5, 54432, Note_on_c, 3, 66, 90
5, 54527, Note_off_c, 3, 66, 90
5, 54528, Note_on_c, 3, 63, 90
5, 54715, Note_off_c, 3, 63, 90
5, 54720, Note_on_c, 3, 70, 90
5, 54780, Note_off_c, 3, 70, 90
5, 54816, Note_on_c, 3, 70, 90
5, 54911, Note_off_c, 3, 70, 90
5, 54912, Note_on_c, 3, 68, 90
5, 54984, Note_off_c, 3, 68, 90
5, 55008, Note_on_c, 3, 68, 90
5, 55153, Note_off_c, 3, 68, 90
5, 55200, Note_on_c, 3, 63, 90
5, 55391, Note_off_c, 3, 63, 90
5, 55392, Note_on_c, 3, 66, 90
5, 55443, Note_off_c, 3, 66, 90
5, 55488, Note_on_c, 3, 66, 90
5, 55536, Note_off_c, 3, 66, 90
5, 55584, Note_on_c, 3, 66, 90
5, 55775, Note_off_c, 3, 66, 90
5, 55776, Note_on_c, 3, 65, 90
5, 55864, Note_off_c, 3, 65, 90
5, 55872, Note_on_c, 3, 73, 90
5, 55967, Note_off_c, 3, 73, 90
5, 55968, Note_on_c, 3, 70, 90
5, 56063, Note_off_c, 3, 70, 90
5, 56064, Note_on_c, 3, 68, 90
5, 56159, Note_off_c, 3, 68, 90
5, 56160, Note_on_c, 3, 66, 90
5, 56207, Note_off_c, 3, 66, 90
5, 56208, Note_on_c, 3, 68, 90
5, 56254, Note_off_c, 3, 68, 90
5, 56256, Note_on_c, 3, 70, 90
5, 56639, Note_off_c, 3, 70, 90
5, 56640, Note_on_c, 3, 75, 90
5, 56735, Note_off_c, 3, 75, 90
5, 56736, Note_on_c, 3, 71, 90
5, 56831, Note_off_c, 3, 71, 90
5, 56832, Note_on_c, 3, 70, 90
5, 56879, Note_off_c, 3, 70, 90
5, 56880, Note_on_c, 3, 71, 90
5, 56927, Note_off_c, 3, 71, 90
5, 56928, Note_on_c, 3, 70, 90
5, 56975, Note_off_c, 3, 70, 90
5, 56976, Note_on_c, 3, 68, 90
5, 57023, Note_off_c, 3, 68, 90
5, 57024, Note_on_c, 3, 70, 90
5, 57498, Note_off_c, 3, 70, 90
5, 57600, Note_on_c, 3, 70, 90
5, 57791, Note_off_c, 3, 70, 90
5, 57792, Note_on_c, 3, 66, 90
5, 57856, Note_off_c, 3, 66, 90
5, 57888, Note_on_c, 3, 68, 90
5, 57935, Note_off_c, 3, 68, 90
5, 57936, Note_on_c, 3, 70, 90
5, 57983, Note_off_c, 3, 70, 90
5, 57984, Note_on_c, 3, 68, 90
5, 58171, Note_off_c, 3, 68, 90
5, 58176, Note_on_c, 3, 63, 90
5, 58221, Note_off_c, 3, 63, 90
5, 58272, Note_on_c, 3, 66, 90
5, 58556, Note_off_c, 3, 66, 90
5, 58560, Note_on_c, 3, 63, 90
5, 58606, Note_off_c, 3, 63, 90
5, 58656, Note_on_c, 3, 68, 90
5, 58799, Note_off_c, 3, 68, 90
5, 58800, Note_on_c, 3, 66, 90
5, 58846, Note_off_c, 3, 66, 90
5, 58848, Note_on_c, 3, 63, 90
5, 58924, Note_off_c, 3, 63, 90
5, 59040, Note_on_c, 3, 63, 90
5, 59129, Note_off_c, 3, 63, 90
5, 59136, Note_on_c, 3, 64, 90
5, 59231, Note_off_c, 3, 64, 90
5, 59232, Note_on_c, 3, 63, 90
5, 59327, Note_off_c, 3, 63, 90
5, 59328, Note_on_c, 3, 61, 90
5, 59423, Note_off_c, 3, 61, 90
5, 59424, Note_on_c, 3, 66, 90
5, 59615, Note_off_c, 3, 66, 90
5, 59616, Note_on_c, 3, 61, 90
5, 59685, Note_off_c, 3, 61, 90
5, 59712, Note_on_c, 3, 61, 90
5, 59770, Note_off_c, 3, 61, 90
5, 59808, Note_on_c, 3, 61, 90
5, 59989, Note_off_c, 3, 61, 90
5, 60000, Note_on_c, 3, 59, 90
5, 60191, Note_off_c, 3, 59, 90
5, 60192, Note_on_c, 3, 66, 90
5, 60540, Note_off_c, 3, 66, 90
5, 60672, Note_on_c, 3, 70, 90
5, 60863, Note_off_c, 3, 70, 90
5, 60864, Note_on_c, 3, 66, 90
5, 60907, Note_off_c, 3, 66, 90
5, 60960, Note_on_c, 3, 68, 90
5, 61007, Note_off_c, 3, 68, 90
5, 61008, Note_on_c, 3, 70, 90
5, 61055, Note_off_c, 3, 70, 90
5, 61056, Note_on_c, 3, 68, 90
5, 61247, Note_off_c, 3, 68, 90
5, 61248, Note_on_c, 3, 63, 90
5, 61289, Note_off_c, 3, 63, 90
5, 61344, Note_on_c, 3, 66, 90
5, 61503, Note_off_c, 3, 66, 90
5, 61536, Note_on_c, 3, 63, 90
5, 61598, Note_off_c, 3, 63, 90
5, 61632, Note_on_c, 3, 75, 90
5, 61727, Note_off_c, 3, 75, 90
5, 61728, Note_on_c, 3, 70, 90
5, 61814, Note_off_c, 3, 70, 90
5, 61824, Note_on_c, 3, 68, 90
5, 61869, Note_off_c, 3, 68, 90
5, 61872, Note_on_c, 3, 70, 90
5, 62039, Note_off_c, 3, 70, 90
5, 62112, Note_on_c, 3, 63, 90
5, 62186, Note_off_c, 3, 63, 90
5, 62208, Note_on_c, 3, 64, 90
5, 62287, Note_off_c, 3, 64, 90
5, 62304, Note_on_c, 3, 63, 90
5, 62399, Note_off_c, 3, 63, 90
5, 62400, Note_on_c, 3, 61, 90
5, 62495, Note_off_c, 3, 61, 90
5, 62496, Note_on_c, 3, 66, 90
5, 62687, Note_off_c, 3, 66, 90
5, 62688, Note_on_c, 3, 61, 90
5, 62760, Note_off_c, 3, 61, 90
5, 62784, Note_on_c, 3, 61, 90
5, 62842, Note_off_c, 3, 61, 90
5, 62880, Note_on_c, 3, 61, 90
5, 63059, Note_off_c, 3, 61, 90
5, 63072, Note_on_c, 3, 59, 90
5, 63263, Note_off_c, 3, 59, 90
5, 63264, Note_on_c, 3, 63, 90
5, 63378, Note_off_c, 3, 63, 90
5, 63456, Note_on_c, 3, 66, 90
5, 63551, Note_off_c, 3, 66, 90
5, 63552, Note_on_c, 3, 70, 90
5, 63645, Note_off_c, 3, 70, 90
5, 63648, Note_on_c, 3, 68, 90
5, 63730, Note_off_c, 3, 68, 90
5, 63744, Note_on_c, 3, 68, 90
5, 63817, Note_off_c, 3, 68, 90
5, 63840, Note_on_c, 3, 56, 90
5, 63900, Note_off_c, 3, 56, 90
5, 63936, Note_on_c, 3, 68, 90
5, 64031, Note_off_c, 3, 68, 90
5, 64032, Note_on_c, 3, 70, 90
5, 64127, Note_off_c, 3, 70, 90
5, 64128, Note_on_c, 3, 71, 90
5, 64223, Note_off_c, 3, 71, 90
5, 64224, Note_on_c, 3, 73, 90
5, 64319, Note_off_c, 3, 73, 90
5, 64320, Note_on_c, 3, 70, 90
5, 64415, Note_off_c, 3, 70, 90
5, 64416, Note_on_c, 3, 68, 90
5, 64511, Note_off_c, 3, 68, 90
5, 64512, Note_on_c, 3, 70, 90
5, 64845, Note_off_c, 3, 70, 90
5, 65472, Note_on_c, 3, 68, 90
5, 65567, Note_off_c, 3, 68, 90
5, 65568, Note_on_c, 3, 70, 90
5, 65663, Note_off_c, 3, 70, 90
5, 65664, Note_on_c, 3, 71, 90
5, 65759, Note_off_c, 3, 71, 90
5, 65760, Note_on_c, 3, 73, 90
5, 65853, Note_off_c, 3, 73, 90
5, 65856, Note_on_c, 3, 70, 90
5, 65951, Note_off_c, 3, 70, 90
5, 65952, Note_on_c, 3, 68, 90
5, 66047, Note_off_c, 3, 68, 90
5, 66048, Note_on_c, 3, 70, 90
5, 66191, Note_off_c, 3, 70, 90
5, 66192, Note_on_c, 3, 68, 90
5, 66239, Note_off_c, 3, 68, 90
5, 66240, Note_on_c, 3, 65, 90
5, 66287, Note_off_c, 3, 65, 90
5, 66288, Note_on_c, 3, 68, 90
5, 66428, Note_off_c, 3, 68, 90
5, 66624, Note_on_c, 3, 68, 90
5, 66709, Note_off_c, 3, 68, 90
5, 66720, Note_on_c, 3, 66, 90
5, 66908, Note_off_c, 3, 66, 90
5, 66912, Note_on_c, 3, 68, 90
5, 66959, Note_off_c, 3, 68, 90
5, 66960, Note_on_c, 3, 66, 90
5, 67007, Note_off_c, 3, 66, 90
5, 67008, Note_on_c, 3, 63, 90
5, 67230, Note_off_c, 3, 63, 90
5, 67248, Note_on_c, 3, 66, 90
5, 67391, Note_off_c, 3, 66, 90
5, 67392, Note_on_c, 3, 65, 90
5, 67487, Note_off_c, 3, 65, 90
5, 67488, Note_on_c, 3, 66, 90
5, 67583, Note_off_c, 3, 66, 90
5, 67584, Note_on_c, 3, 63, 90
5, 67775, Note_off_c, 3, 63, 90
5, 67776, Note_on_c, 3, 70, 90
5, 67842, Note_off_c, 3, 70, 90
5, 67872, Note_on_c, 3, 70, 90
5, 68058, Note_off_c, 3, 70, 90
5, 68064, Note_on_c, 3, 68, 90
5, 68221, Note_off_c, 3, 68, 90
5, 68256, Note_on_c, 3, 63, 90
5, 68447, Note_off_c, 3, 63, 90
5, 68448, Note_on_c, 3, 66, 90
5, 68523, Note_off_c, 3, 66, 90
5, 68544, Note_on_c, 3, 66, 90
5, 68605, Note_off_c, 3, 66, 90
5, 68640, Note_on_c, 3, 66, 90
5, 68828, Note_off_c, 3, 66, 90
5, 68832, Note_on_c, 3, 65, 90
5, 68967, Note_off_c, 3, 65, 90
5, 69120, Note_on_c, 3, 71, 90
5, 69311, Note_off_c, 3, 71, 90
5, 69312, Note_on_c, 3, 70, 90
5, 69391, Note_off_c, 3, 70, 90
5, 69408, Note_on_c, 3, 70, 90
5, 69599, Note_off_c, 3, 70, 90
5, 69600, Note_on_c, 3, 69, 90
5, 69769, Note_off_c, 3, 69, 90
5, 69792, Note_on_c, 3, 69, 90
5, 69983, Note_off_c, 3, 69, 90
5, 69984, Note_on_c, 3, 68, 90
5, 70148, Note_off_c, 3, 68, 90
5, 70176, Note_on_c, 3, 68, 90
5, 70367, Note_off_c, 3, 68, 90
5, 70368, Note_on_c, 3, 67, 90
5, 70542, Note_off_c, 3, 67, 90
5, 70560, Note_on_c, 3, 67, 90
5, 70751, Note_off_c, 3, 67, 90
5, 70752, Note_on_c, 3, 66, 90
5, 70910, Note_off_c, 3, 66, 90
5, 70944, Note_on_c, 3, 66, 90
5, 71128, Note_off_c, 3, 66, 90
5, 71136, Note_on_c, 3, 65, 90
5, 71231, Note_off_c, 3, 65, 90
5, 71232, Note_on_c, 3, 68, 90
5, 71607, Note_off_c, 3, 68, 90
5, 71904, Note_on_c, 3, 61, 90
5, 71973, Note_off_c, 3, 61, 90
5, 72000, Note_on_c, 3, 63, 90
5, 72036, Note_off_c, 3, 63, 90
5, 72048, Note_on_c, 3, 66, 90
5, 72138, Note_off_c, 3, 66, 90
5, 72192, Note_on_c, 3, 71, 90
5, 72383, Note_off_c, 3, 71, 90
5, 72384, Note_on_c, 3, 70, 90
5, 72464, Note_off_c, 3, 70, 90
5, 72480, Note_on_c, 3, 70, 90
5, 72671, Note_off_c, 3, 70, 90
5, 72672, Note_on_c, 3, 69, 90
5, 72843, Note_off_c, 3, 69, 90
5, 72864, Note_on_c, 3, 69, 90
5, 73055, Note_off_c, 3, 69, 90
5, 73056, Note_on_c, 3, 68, 90
5, 73223, Note_off_c, 3, 68, 90
5, 73248, Note_on_c, 3, 68, 90
5, 73439, Note_off_c, 3, 68, 90
5, 73440, Note_on_c, 3, 67, 90
5, 73616, Note_off_c, 3, 67, 90
5, 73632, Note_on_c, 3, 67, 90
5, 73823, Note_off_c, 3, 67, 90
5, 73824, Note_on_c, 3, 66, 90
5, 73973, Note_off_c, 3, 66, 90
5, 74016, Note_on_c, 3, 66, 90
5, 74202, Note_off_c, 3, 66, 90
5, 74208, Note_on_c, 3, 65, 90
5, 74303, Note_off_c, 3, 65, 90
5, 74304, Note_on_c, 3, 68, 90
5, 74482, Note_off_c, 3, 68, 90
5, 74688, Note_on_c, 3, 58, 90
5, 74781, Note_off_c, 3, 58, 90
5, 74784, Note_on_c, 3, 61, 90
5, 74877, Note_off_c, 3, 61, 90
5, 74880, Note_on_c, 3, 63, 90
5, 74955, Note_off_c, 3, 63, 90
5, 74976, Note_on_c, 3, 66, 90
5, 75071, Note_off_c, 3, 66, 90
5, 75072, Note_on_c, 3, 68, 90
5, 75167, Note_off_c, 3, 68, 90
5, 75168, Note_on_c, 3, 66, 90
5, 75233, Note_off_c, 3, 66, 90
5, 75264, Note_on_c, 3, 70, 90
5, 75359, Note_off_c, 3, 70, 90
5, 75360, Note_on_c, 3, 68, 90
5, 75455, Note_off_c, 3, 68, 90
5, 75456, Note_on_c, 3, 66, 90
5, 75551, Note_off_c, 3, 66, 90
5, 75552, Note_on_c, 3, 68, 90
5, 75743, Note_off_c, 3, 68, 90
5, 75744, Note_on_c, 3, 66, 90
5, 75839, Note_off_c, 3, 66, 90
5, 75840, Note_on_c, 3, 63, 90
5, 75935, Note_off_c, 3, 63, 90
5, 75936, Note_on_c, 3, 66, 90
5, 76113, Note_off_c, 3, 66, 90
5, 76128, Note_on_c, 3, 63, 90
5, 76223, Note_off_c, 3, 63, 90
5, 76224, Note_on_c, 3, 61, 90
5, 76319, Note_off_c, 3, 61, 90
5, 76320, Note_on_c, 3, 63, 90
5, 76511, Note_off_c, 3, 63, 90
5, 76512, Note_on_c, 3, 61, 90
5, 76607, Note_off_c, 3, 61, 90
5, 76608, Note_on_c, 3, 58, 90
5, 76703, Note_off_c, 3, 58, 90
5, 76704, Note_on_c, 3, 56, 90
5, 76799, Note_off_c, 3, 56, 90
5, 76800, Note_on_c, 3, 54, 90
5, 76895, Note_off_c, 3, 54, 90
5, 76896, Note_on_c, 3, 56, 90
5, 77282, Note_off_c, 3, 56, 90
5, 77760, Note_on_c, 3, 58, 90
5, 77855, Note_off_c, 3, 58, 90
5, 77856, Note_on_c, 3, 61, 90
5, 77951, Note_off_c, 3, 61, 90
5, 77952, Note_on_c, 3, 63, 90
5, 78047, Note_off_c, 3, 63, 90
5, 78048, Note_on_c, 3, 66, 90
5, 78136, Note_off_c, 3, 66, 90
5, 78144, Note_on_c, 3, 68, 90
5, 78239, Note_off_c, 3, 68, 90
5, 78240, Note_on_c, 3, 66, 90
5, 78310, Note_off_c, 3, 66, 90
5, 78336, Note_on_c, 3, 70, 90
5, 78429, Note_off_c, 3, 70, 90
5, 78432, Note_on_c, 3, 68, 90
5, 78527, Note_off_c, 3, 68, 90
5, 78528, Note_on_c, 3, 66, 90
5, 78623, Note_off_c, 3, 66, 90
5, 78624, Note_on_c, 3, 68, 90
5, 78815, Note_off_c, 3, 68, 90
5, 78816, Note_on_c, 3, 66, 90
5, 78911, Note_off_c, 3, 66, 90
5, 78912, Note_on_c, 3, 63, 90
5, 79007, Note_off_c, 3, 63, 90
5, 79008, Note_on_c, 3, 66, 90
5, 79199, Note_off_c, 3, 66, 90
5, 79200, Note_on_c, 3, 63, 90
5, 79295, Note_off_c, 3, 63, 90
5, 79296, Note_on_c, 3, 61, 90
5, 79378, Note_off_c, 3, 61, 90
5, 79392, Note_on_c, 3, 63, 90
5, 79583, Note_off_c, 3, 63, 90
5, 79584, Note_on_c, 3, 61, 90
5, 79679, Note_off_c, 3, 61, 90
5, 79680, Note_on_c, 3, 63, 90
5, 79775, Note_off_c, 3, 63, 90
5, 79776, Note_on_c, 3, 61, 90
5, 79823, Note_off_c, 3, 61, 90
5, 79824, Note_on_c, 3, 63, 90
5, 79919, Note_off_c, 3, 63, 90
5, 79920, Note_on_c, 3, 61, 90
5, 79960, Note_off_c, 3, 61, 90
5, 79968, Note_on_c, 3, 66, 90
5, 80425, Note_off_c, 3, 66, 90
5, 80832, Note_on_c, 3, 58, 90
5, 80927, Note_off_c, 3, 58, 90
5, 80928, Note_on_c, 3, 61, 90
5, 81023, Note_off_c, 3, 61, 90
5, 81024, Note_on_c, 3, 63, 90
5, 81119, Note_off_c, 3, 63, 90
5, 81120, Note_on_c, 3, 66, 90
5, 81215, Note_off_c, 3, 66, 90
5, 81216, Note_on_c, 3, 68, 90
5, 81311, Note_off_c, 3, 68, 90
5, 81312, Note_on_c, 3, 66, 90
5, 81407, Note_off_c, 3, 66, 90
5, 81408, Note_on_c, 3, 70, 90
5, 81503, Note_off_c, 3, 70, 90
5, 81504, Note_on_c, 3, 68, 90
5, 81599, Note_off_c, 3, 68, 90
5, 81600, Note_on_c, 3, 66, 90
5, 81695, Note_off_c, 3, 66, 90
5, 81696, Note_on_c, 3, 68, 90
5, 81887, Note_off_c, 3, 68, 90
5, 81888, Note_on_c, 3, 66, 90
5, 81983, Note_off_c, 3, 66, 90
5, 81984, Note_on_c, 3, 63, 90
5, 82079, Note_off_c, 3, 63, 90
5, 82080, Note_on_c, 3, 66, 90
5, 82262, Note_off_c, 3, 66, 90
5, 82272, Note_on_c, 3, 63, 90
5, 82367, Note_off_c, 3, 63, 90
5, 82368, Note_on_c, 3, 61, 90
5, 82463, Note_off_c, 3, 61, 90
5, 82464, Note_on_c, 3, 63, 90
5, 82655, Note_off_c, 3, 63, 90
5, 82656, Note_on_c, 3, 61, 90
5, 82751, Note_off_c, 3, 61, 90
5, 82752, Note_on_c, 3, 58, 90
5, 82847, Note_off_c, 3, 58, 90
5, 82848, Note_on_c, 3, 56, 90
5, 82943, Note_off_c, 3, 56, 90
5, 82944, Note_on_c, 3, 54, 90
5, 83039, Note_off_c, 3, 54, 90
5, 83040, Note_on_c, 3, 56, 90
5, 83328, Note_off_c, 3, 56, 90
5, 83904, Note_on_c, 3, 58, 90
5, 83999, Note_off_c, 3, 58, 90
5, 84000, Note_on_c, 3, 61, 90
5, 84095, Note_off_c, 3, 61, 90
5, 84096, Note_on_c, 3, 63, 90
5, 84191, Note_off_c, 3, 63, 90
5, 84192, Note_on_c, 3, 66, 90
5, 84287, Note_off_c, 3, 66, 90
5, 84288, Note_on_c, 3, 68, 90
5, 84383, Note_off_c, 3, 68, 90
5, 84384, Note_on_c, 3, 66, 90
5, 84474, Note_off_c, 3, 66, 90
5, 84480, Note_on_c, 3, 70, 90
5, 84575, Note_off_c, 3, 70, 90
5, 84576, Note_on_c, 3, 68, 90
5, 84671, Note_off_c, 3, 68, 90
5, 84672, Note_on_c, 3, 66, 90
5, 84767, Note_off_c, 3, 66, 90
5, 84768, Note_on_c, 3, 68, 90
5, 84959, Note_off_c, 3, 68, 90
5, 84960, Note_on_c, 3, 66, 90
5, 85055, Note_off_c, 3, 66, 90
5, 85056, Note_on_c, 3, 63, 90
5, 85151, Note_off_c, 3, 63, 90
5, 85152, Note_on_c, 3, 66, 90
5, 85341, Note_off_c, 3, 66, 90
5, 85344, Note_on_c, 3, 63, 90
5, 85439, Note_off_c, 3, 63, 90
5, 85440, Note_on_c, 3, 61, 90
5, 85535, Note_off_c, 3, 61, 90
5, 85536, Note_on_c, 3, 63, 90
5, 85723, Note_off_c, 3, 63, 90
5, 85728, Note_on_c, 3, 61, 90
5, 85819, Note_off_c, 3, 61, 90
5, 85824, Note_on_c, 3, 63, 90
5, 85919, Note_off_c, 3, 63, 90
5, 85920, Note_on_c, 3, 61, 90
5, 85961, Note_off_c, 3, 61, 90
5, 85968, Note_on_c, 3, 63, 90
5, 86063, Note_off_c, 3, 63, 90
5, 86064, Note_on_c, 3, 61, 90
5, 86102, Note_off_c, 3, 61, 90
5, 86112, Note_on_c, 3, 66, 90
5, 87015, Note_off_c, 3, 66, 90
5, 87015, End_track
6, 0, Start_track
6, 0, Text_t, "Fiati   "
6, 6912, Program_c, 4, 61
6, 6960, Control_c, 4, 7, 103
6, 7008, Control_c, 4, 10, 43
6, 7056, Control_c, 4, 91, 100
6, 7104, Control_c, 4, 93, 76
6, 7680, Note_on_c, 4, 63, 127
6, 7680, Note_on_c, 4, 75, 127
6, 7775, Note_off_c, 4, 75, 127
6, 7775, Note_off_c, 4, 63, 127
6, 8016, Note_on_c, 4, 68, 107
6, 8016, Note_on_c, 4, 70, 105
6, 8132, Note_off_c, 4, 70, 105
6, 8133, Note_off_c, 4, 68, 107
6, 8160, Note_on_c, 4, 68, 105
6, 8160, Note_on_c, 4, 70, 107
6, 8200, Note_off_c, 4, 68, 105
6, 8201, Note_off_c, 4, 70, 107
6, 9456, Note_on_c, 4, 61, 118
6, 9484, Note_off_c, 4, 61, 118
6, 9504, Note_on_c, 4, 63, 108
6, 9532, Note_off_c, 4, 63, 108
6, 9552, Note_on_c, 4, 66, 114
6, 9580, Note_off_c, 4, 66, 114
6, 9600, Note_on_c, 4, 68, 122
6, 9687, Note_off_c, 4, 68, 122
6, 9696, Note_on_c, 4, 66, 114
6, 9718, Note_off_c, 4, 66, 114
6, 9744, Note_on_c, 4, 63, 116
6, 9766, Note_off_c, 4, 63, 116
6, 9792, Note_on_c, 4, 61, 116
6, 9827, Note_off_c, 4, 61, 116
6, 9840, Note_on_c, 4, 63, 114
6, 9868, Note_off_c, 4, 63, 114
6, 9888, Note_on_c, 4, 66, 118
6, 9934, Note_off_c, 4, 66, 118
6, 9984, Note_on_c, 4, 68, 120
6, 9984, Note_on_c, 4, 70, 120
6, 10004, Note_off_c, 4, 68, 120
6, 10012, Note_off_c, 4, 70, 120
6, 10032, Note_on_c, 4, 68, 118
6, 10032, Note_on_c, 4, 70, 118
6, 10080, Note_off_c, 4, 68, 118
6, 10081, Note_off_c, 4, 70, 118
6, 10368, Note_on_c, 4, 68, 124
6, 10470, Note_off_c, 4, 68, 124
6, 10512, Note_on_c, 4, 70, 122
6, 10611, Note_off_c, 4, 70, 122
6, 10656, Note_on_c, 4, 75, 124
6, 10724, Note_off_c, 4, 75, 124
6, 16896, Note_on_c, 4, 64, 118
6, 16896, Note_on_c, 4, 68, 114
6, 16918, Note_off_c, 4, 68, 114
6, 16923, Note_off_c, 4, 64, 118
6, 17088, Note_on_c, 4, 64, 108
6, 17088, Note_on_c, 4, 68, 102
6, 17106, Note_off_c, 4, 68, 102
6, 17107, Note_off_c, 4, 64, 108
6, 17232, Note_on_c, 4, 64, 124
6, 17232, Note_on_c, 4, 68, 120
6, 17266, Control_c, 4, 7, 91
6, 17283, Control_c, 4, 7, 29
6, 17313, Control_c, 4, 7, 56
6, 17330, Control_c, 4, 7, 69
6, 17346, Control_c, 4, 7, 79
6, 17384, Control_c, 4, 7, 84
6, 17400, Control_c, 4, 7, 88
6, 17417, Control_c, 4, 7, 91
6, 17448, Control_c, 4, 7, 93
6, 17470, Control_c, 4, 7, 97
6, 17493, Control_c, 4, 7, 100
6, 17513, Control_c, 4, 7, 104
6, 17530, Control_c, 4, 7, 110
6, 17555, Control_c, 4, 7, 116
6, 17574, Control_c, 4, 7, 122
6, 17590, Control_c, 4, 7, 127
6, 17651, Control_c, 4, 7, 127
6, 17669, Note_off_c, 4, 64, 124
6, 17672, Note_off_c, 4, 68, 120
6, 22464, Note_on_c, 4, 58, 108
6, 22560, Note_on_c, 4, 61, 104
6, 22564, Note_off_c, 4, 58, 108
6, 22590, Note_off_c, 4, 61, 104
6, 22656, Note_on_c, 4, 63, 106
6, 22752, Note_on_c, 4, 66, 106
6, 22755, Note_off_c, 4, 63, 106
6, 22781, Note_off_c, 4, 66, 106
6, 22848, Note_on_c, 4, 68, 108
6, 22937, Note_off_c, 4, 68, 108
6, 22944, Note_on_c, 4, 70, 106
6, 22976, Note_off_c, 4, 70, 106
6, 23040, Note_on_c, 4, 74, 113
6, 23077, Control_c, 4, 7, 112
6, 23093, Control_c, 4, 7, 75
6, 23108, Control_c, 4, 7, 73
6, 23130, Control_c, 4, 7, 65
6, 23153, Control_c, 4, 7, 68
6, 23169, Control_c, 4, 7, 73
6, 23191, Control_c, 4, 7, 77
6, 23212, Control_c, 4, 7, 82
6, 23227, Control_c, 4, 7, 83
6, 23242, Control_c, 4, 7, 86
6, 23266, Control_c, 4, 7, 91
6, 23287, Control_c, 4, 7, 94
6, 23309, Control_c, 4, 7, 97
6, 23329, Control_c, 4, 7, 100
6, 23345, Control_c, 4, 7, 103
6, 23369, Control_c, 4, 7, 105
6, 23395, Control_c, 4, 7, 110
6, 23421, Control_c, 4, 7, 114
6, 23444, Control_c, 4, 7, 119
6, 23465, Control_c, 4, 7, 122
6, 23490, Control_c, 4, 7, 127
6, 23587, Control_c, 4, 7, 127
6, 23790, Note_off_c, 4, 74, 113
6, 25822, Control_c, 4, 7, 116
6, 25834, Control_c, 4, 7, 115
6, 25847, Control_c, 4, 7, 114
6, 26113, Control_c, 4, 7, 113
6, 26119, Control_c, 4, 7, 112
6, 26124, Control_c, 4, 7, 111
6, 26127, Control_c, 4, 7, 110
6, 26131, Control_c, 4, 7, 109
6, 26138, Control_c, 4, 7, 108
6, 26143, Control_c, 4, 7, 107
6, 26153, Control_c, 4, 7, 106
6, 26164, Control_c, 4, 7, 105
6, 26168, Control_c, 4, 7, 104
6, 26181, Control_c, 4, 7, 103
6, 26196, Control_c, 4, 7, 102
6, 26213, Control_c, 4, 7, 101
6, 26225, Control_c, 4, 7, 100
6, 26241, Control_c, 4, 7, 99
6, 26257, Control_c, 4, 7, 98
6, 26880, Note_on_c, 4, 63, 96
6, 26880, Note_on_c, 4, 75, 78
6, 27081, Control_c, 4, 7, 99
6, 27168, Note_on_c, 4, 62, 100
6, 27168, Note_on_c, 4, 74, 82
6, 27191, Note_off_c, 4, 75, 78
6, 27191, Note_off_c, 4, 63, 96
6, 27552, Note_on_c, 4, 61, 98
6, 27552, Note_on_c, 4, 73, 80
6, 27560, Note_off_c, 4, 74, 82
6, 27560, Note_off_c, 4, 62, 100
6, 27936, Note_off_c, 4, 73, 80
6, 27936, Note_off_c, 4, 61, 98
6, 27936, Note_on_c, 4, 60, 98
6, 27936, Note_on_c, 4, 72, 80
6, 28403, Note_off_c, 4, 72, 80
6, 28403, Note_off_c, 4, 60, 98
6, 29562, Control_c, 4, 7, 100
6, 29581, Control_c, 4, 7, 101
6, 29605, Control_c, 4, 7, 102
6, 29663, Control_c, 4, 7, 103
6, 29731, Control_c, 4, 7, 104
6, 29856, Note_on_c, 4, 82, 104
6, 29887, Note_off_c, 4, 82, 104
6, 29888, Note_on_c, 4, 83, 100
6, 29919, Note_off_c, 4, 83, 100
6, 29920, Note_on_c, 4, 84, 112
6, 29951, Note_off_c, 4, 84, 112
6, 29952, Note_on_c, 4, 85, 106
6, 30033, Note_off_c, 4, 85, 106
6, 42865, Control_c, 4, 7, 103
6, 42881, Control_c, 4, 7, 102
6, 42895, Control_c, 4, 7, 101
6, 42905, Control_c, 4, 7, 100
6, 42921, Control_c, 4, 7, 99
6, 42937, Control_c, 4, 7, 98
6, 43200, Note_on_c, 4, 68, 123
6, 43231, Note_off_c, 4, 68, 123
6, 43248, Note_on_c, 4, 68, 113
6, 43282, Note_off_c, 4, 68, 113
6, 43296, Note_on_c, 4, 66, 121
6, 43326, Note_off_c, 4, 66, 121
6, 43344, Note_on_c, 4, 68, 123
6, 43381, Note_off_c, 4, 68, 123
6, 43388, Control_c, 4, 7, 99
6, 43411, Control_c, 4, 7, 100
6, 43440, Note_on_c, 4, 66, 121
6, 43441, Control_c, 4, 7, 101
6, 43475, Note_off_c, 4, 66, 121
6, 43536, Note_on_c, 4, 68, 121
6, 43575, Note_off_c, 4, 68, 121
6, 43632, Note_on_c, 4, 61, 111
6, 43661, Note_off_c, 4, 61, 111
6, 43680, Note_on_c, 4, 63, 117
6, 43711, Note_off_c, 4, 63, 117
6, 43723, Control_c, 4, 7, 100
6, 43728, Note_on_c, 4, 66, 121
6, 43755, Note_off_c, 4, 66, 121
6, 43776, Note_on_c, 4, 68, 121
6, 43776, Note_on_c, 4, 80, 115
6, 43803, Note_off_c, 4, 80, 115
6, 43804, Note_off_c, 4, 68, 121
6, 43824, Note_on_c, 4, 68, 107
6, 43824, Note_on_c, 4, 80, 107
6, 43852, Note_off_c, 4, 80, 107
6, 43857, Note_off_c, 4, 68, 107
6, 43872, Note_on_c, 4, 66, 117
6, 43872, Note_on_c, 4, 78, 115
6, 43906, Note_off_c, 4, 78, 115
6, 43907, Note_off_c, 4, 66, 117
6, 43920, Note_on_c, 4, 68, 125
6, 43920, Note_on_c, 4, 80, 115
6, 43957, Note_off_c, 4, 80, 115
6, 43960, Note_off_c, 4, 68, 125
6, 44016, Note_on_c, 4, 63, 119
6, 44016, Note_on_c, 4, 75, 115
6, 44047, Note_off_c, 4, 75, 115
6, 44050, Note_off_c, 4, 63, 119
6, 44065, Control_c, 4, 7, 99
6, 44097, Pitch_bend_c, 4, 9600
6, 44104, Pitch_bend_c, 4, 12544
6, 44111, Pitch_bend_c, 4, 14336
6, 44112, Note_on_c, 4, 68, 123
6, 44112, Note_on_c, 4, 80, 115
6, 44115, Control_c, 4, 7, 98
6, 44118, Pitch_bend_c, 4, 15104
6, 44125, Pitch_bend_c, 4, 15872
6, 44132, Pitch_bend_c, 4, 16000
6, 44140, Pitch_bend_c, 4, 16256
6, 44148, Pitch_bend_c, 4, 16000
6, 44157, Pitch_bend_c, 4, 13568
6, 44164, Pitch_bend_c, 4, 10496
6, 44171, Pitch_bend_c, 4, 8960
6, 44180, Pitch_bend_c, 4, 8448
6, 44188, Note_off_c, 4, 80, 115
6, 44188, Note_off_c, 4, 68, 123
6, 44188, Pitch_bend_c, 4, 8192
6, 44208, Note_on_c, 4, 66, 119
6, 44208, Note_on_c, 4, 78, 115
6, 44240, Note_off_c, 4, 78, 115
6, 44240, Note_off_c, 4, 66, 119
6, 44256, Note_on_c, 4, 63, 123
6, 44256, Note_on_c, 4, 75, 115
6, 44285, Note_off_c, 4, 75, 115
6, 44286, Note_off_c, 4, 63, 123
6, 44352, Note_on_c, 4, 70, 121
6, 44352, Note_on_c, 4, 82, 117
6, 44375, Note_off_c, 4, 70, 121
6, 44377, Note_off_c, 4, 82, 117
6, 44400, Note_on_c, 4, 70, 121
6, 44400, Note_on_c, 4, 82, 119
6, 44430, Note_off_c, 4, 82, 119
6, 44431, Note_off_c, 4, 70, 121
6, 46272, Note_on_c, 4, 68, 123
6, 46303, Note_off_c, 4, 68, 123
6, 46320, Note_on_c, 4, 68, 113
6, 46354, Note_off_c, 4, 68, 113
6, 46368, Note_on_c, 4, 66, 121
6, 46398, Note_off_c, 4, 66, 121
6, 46416, Note_on_c, 4, 68, 123
6, 46453, Note_off_c, 4, 68, 123
6, 46512, Note_on_c, 4, 66, 121
6, 46547, Note_off_c, 4, 66, 121
6, 46608, Note_on_c, 4, 68, 121
6, 46647, Note_off_c, 4, 68, 121
6, 46704, Note_on_c, 4, 61, 111
6, 46733, Note_off_c, 4, 61, 111
6, 46741, Control_c, 4, 7, 99
6, 46752, Note_on_c, 4, 63, 117
6, 46783, Note_off_c, 4, 63, 117
6, 46800, Note_on_c, 4, 66, 121
6, 46827, Note_off_c, 4, 66, 121
6, 46848, Note_on_c, 4, 68, 121
6, 46848, Note_on_c, 4, 80, 115
6, 46875, Note_off_c, 4, 80, 115
6, 46876, Note_off_c, 4, 68, 121
6, 46896, Note_on_c, 4, 68, 107
6, 46896, Note_on_c, 4, 80, 107
6, 46924, Note_off_c, 4, 80, 107
6, 46929, Note_off_c, 4, 68, 107
6, 46944, Note_on_c, 4, 66, 117
6, 46944, Note_on_c, 4, 78, 115
6, 46978, Note_off_c, 4, 78, 115
6, 46979, Note_off_c, 4, 66, 117
6, 46992, Note_on_c, 4, 68, 125
6, 46992, Note_on_c, 4, 80, 115
6, 47029, Note_off_c, 4, 80, 115
6, 47032, Note_off_c, 4, 68, 125
6, 47088, Note_on_c, 4, 63, 119
6, 47088, Note_on_c, 4, 75, 115
6, 47119, Note_off_c, 4, 75, 115
6, 47122, Note_off_c, 4, 63, 119
6, 47169, Pitch_bend_c, 4, 9600
6, 47176, Pitch_bend_c, 4, 12544
6, 47183, Pitch_bend_c, 4, 14336
6, 47184, Note_on_c, 4, 68, 123
6, 47184, Note_on_c, 4, 80, 115
6, 47190, Pitch_bend_c, 4, 15104
6, 47197, Pitch_bend_c, 4, 15872
6, 47204, Pitch_bend_c, 4, 16000
6, 47212, Pitch_bend_c, 4, 16256
6, 47220, Pitch_bend_c, 4, 16000
6, 47229, Pitch_bend_c, 4, 13568
6, 47236, Pitch_bend_c, 4, 10496
6, 47243, Pitch_bend_c, 4, 8960
6, 47252, Pitch_bend_c, 4, 8448
6, 47260, Note_off_c, 4, 80, 115
6, 47260, Note_off_c, 4, 68, 123
6, 47260, Pitch_bend_c, 4, 8192
6, 47280, Note_on_c, 4, 66, 119
6, 47280, Note_on_c, 4, 78, 115
6, 47312, Note_off_c, 4, 78, 115
6, 47312, Note_off_c, 4, 66, 119
6, 47328, Note_on_c, 4, 63, 123
6, 47328, Note_on_c, 4, 75, 115
6, 47357, Note_off_c, 4, 75, 115
6, 47358, Note_off_c, 4, 63, 123
6, 47424, Note_on_c, 4, 70, 121
6, 47424, Note_on_c, 4, 82, 117
6, 47447, Note_off_c, 4, 70, 121
6, 47449, Note_off_c, 4, 82, 117
6, 47472, Note_on_c, 4, 70, 121
6, 47472, Note_on_c, 4, 82, 119
6, 47502, Note_off_c, 4, 82, 119
6, 47503, Note_off_c, 4, 70, 121
6, 47616, Note_on_c, 4, 63, 127
6, 47616, Note_on_c, 4, 75, 127
6, 47711, Note_off_c, 4, 75, 127
6, 47711, Note_off_c, 4, 63, 127
6, 47910, Control_c, 4, 7, 100
6, 47931, Control_c, 4, 7, 101
6, 47947, Control_c, 4, 7, 102
6, 47952, Note_on_c, 4, 68, 107
6, 47952, Note_on_c, 4, 70, 105
6, 48068, Note_off_c, 4, 70, 105
6, 48069, Note_off_c, 4, 68, 107
6, 48096, Note_on_c, 4, 68, 105
6, 48096, Note_on_c, 4, 70, 107
6, 48136, Note_off_c, 4, 68, 105
6, 48137, Note_off_c, 4, 70, 107
6, 48184, Control_c, 4, 7, 101
6, 48259, Control_c, 4, 7, 100
6, 48610, Control_c, 4, 7, 99
6, 49072, Control_c, 4, 7, 98
6, 49392, Note_on_c, 4, 61, 118
6, 49420, Note_off_c, 4, 61, 118
6, 49440, Note_on_c, 4, 63, 108
6, 49468, Note_off_c, 4, 63, 108
6, 49488, Note_on_c, 4, 66, 114
6, 49516, Note_off_c, 4, 66, 114
6, 49536, Note_on_c, 4, 68, 122
6, 49623, Note_off_c, 4, 68, 122
6, 49632, Note_on_c, 4, 66, 114
6, 49654, Note_off_c, 4, 66, 114
6, 49680, Note_on_c, 4, 63, 116
6, 49702, Note_off_c, 4, 63, 116
6, 49728, Note_on_c, 4, 61, 116
6, 49763, Note_off_c, 4, 61, 116
6, 49776, Note_on_c, 4, 63, 114
6, 49804, Note_off_c, 4, 63, 114
6, 49824, Note_on_c, 4, 66, 118
6, 49870, Note_off_c, 4, 66, 118
6, 49920, Note_on_c, 4, 68, 120
6, 49920, Note_on_c, 4, 70, 120
6, 49940, Note_off_c, 4, 68, 120
6, 49948, Note_off_c, 4, 70, 120
6, 49968, Note_on_c, 4, 68, 118
6, 49968, Note_on_c, 4, 70, 118
6, 50016, Note_off_c, 4, 68, 118
6, 50017, Note_off_c, 4, 70, 118
6, 50336, Control_c, 4, 7, 108
6, 50354, Control_c, 4, 7, 109
6, 50496, Note_on_c, 4, 79, 122
6, 50527, Note_off_c, 4, 79, 122
6, 50528, Note_on_c, 4, 80, 114
6, 50559, Note_off_c, 4, 80, 114
6, 50560, Note_on_c, 4, 81, 110
6, 50591, Note_off_c, 4, 81, 110
6, 50592, Note_on_c, 4, 82, 108
6, 50623, Note_off_c, 4, 82, 108
6, 50624, Note_on_c, 4, 83, 118
6, 50655, Note_off_c, 4, 83, 118
6, 50656, Note_on_c, 4, 84, 110
6, 50687, Note_off_c, 4, 84, 110
6, 50688, Note_on_c, 4, 85, 120
6, 50768, Note_off_c, 4, 85, 120
6, 55825, Control_c, 4, 7, 108
6, 55841, Control_c, 4, 7, 107
6, 55859, Control_c, 4, 7, 106
6, 56256, Note_on_c, 4, 58, 120
6, 56352, Note_on_c, 4, 61, 116
6, 56356, Note_off_c, 4, 58, 120
6, 56382, Note_off_c, 4, 61, 116
6, 56448, Note_on_c, 4, 63, 118
6, 56544, Note_on_c, 4, 66, 118
6, 56547, Note_off_c, 4, 63, 118
6, 56573, Note_off_c, 4, 66, 118
6, 56640, Note_on_c, 4, 68, 120
6, 56729, Note_off_c, 4, 68, 120
6, 56736, Note_on_c, 4, 70, 118
6, 56768, Note_off_c, 4, 70, 118
6, 56826, Control_c, 4, 7, 105
6, 56832, Note_on_c, 4, 74, 125
6, 56834, Control_c, 4, 7, 104
6, 56837, Control_c, 4, 7, 103
6, 56839, Control_c, 4, 7, 101
6, 56842, Control_c, 4, 7, 99
6, 56845, Control_c, 4, 7, 96
6, 56848, Control_c, 4, 7, 94
6, 56851, Control_c, 4, 7, 91
6, 56854, Control_c, 4, 7, 88
6, 56856, Control_c, 4, 7, 85
6, 56859, Control_c, 4, 7, 81
6, 56861, Control_c, 4, 7, 78
6, 56865, Control_c, 4, 7, 75
6, 56867, Control_c, 4, 7, 71
6, 56870, Control_c, 4, 7, 68
6, 56873, Control_c, 4, 7, 65
6, 56875, Control_c, 4, 7, 61
6, 56878, Control_c, 4, 7, 59
6, 56880, Control_c, 4, 7, 56
6, 56883, Control_c, 4, 7, 54
6, 56885, Control_c, 4, 7, 51
6, 56888, Control_c, 4, 7, 50
6, 56891, Control_c, 4, 7, 48
6, 56894, Control_c, 4, 7, 47
6, 56897, Control_c, 4, 7, 46
6, 56899, Control_c, 4, 7, 45
6, 56902, Control_c, 4, 7, 44
6, 56905, Control_c, 4, 7, 43
6, 56913, Control_c, 4, 7, 42
6, 56933, Control_c, 4, 7, 41
6, 56961, Control_c, 4, 7, 42
6, 56971, Control_c, 4, 7, 43
6, 56982, Control_c, 4, 7, 44
6, 56992, Control_c, 4, 7, 45
6, 56998, Control_c, 4, 7, 46
6, 57009, Control_c, 4, 7, 47
6, 57019, Control_c, 4, 7, 48
6, 57024, Control_c, 4, 7, 49
6, 57036, Control_c, 4, 7, 50
6, 57038, Control_c, 4, 7, 51
6, 57046, Control_c, 4, 7, 52
6, 57051, Control_c, 4, 7, 53
6, 57057, Control_c, 4, 7, 54
6, 57064, Control_c, 4, 7, 55
6, 57067, Control_c, 4, 7, 56
6, 57073, Control_c, 4, 7, 57
6, 57083, Control_c, 4, 7, 58
6, 57088, Control_c, 4, 7, 59
6, 57094, Control_c, 4, 7, 60
6, 57102, Control_c, 4, 7, 61
6, 57109, Control_c, 4, 7, 62
6, 57115, Control_c, 4, 7, 63
6, 57122, Control_c, 4, 7, 64
6, 57132, Control_c, 4, 7, 65
6, 57137, Control_c, 4, 7, 66
6, 57142, Control_c, 4, 7, 67
6, 57147, Control_c, 4, 7, 68
6, 57152, Control_c, 4, 7, 69
6, 57158, Control_c, 4, 7, 70
6, 57163, Control_c, 4, 7, 71
6, 57169, Control_c, 4, 7, 72
6, 57174, Control_c, 4, 7, 73
6, 57179, Control_c, 4, 7, 74
6, 57182, Control_c, 4, 7, 75
6, 57188, Control_c, 4, 7, 76
6, 57190, Control_c, 4, 7, 77
6, 57195, Control_c, 4, 7, 78
6, 57200, Control_c, 4, 7, 79
6, 57204, Control_c, 4, 7, 80
6, 57209, Control_c, 4, 7, 81
6, 57214, Control_c, 4, 7, 82
6, 57220, Control_c, 4, 7, 83
6, 57228, Control_c, 4, 7, 84
6, 57233, Control_c, 4, 7, 85
6, 57241, Control_c, 4, 7, 86
6, 57246, Control_c, 4, 7, 87
6, 57257, Control_c, 4, 7, 88
6, 57262, Control_c, 4, 7, 89
6, 57268, Control_c, 4, 7, 90
6, 57278, Control_c, 4, 7, 91
6, 57284, Control_c, 4, 7, 92
6, 57295, Control_c, 4, 7, 93
6, 57297, Control_c, 4, 7, 94
6, 57307, Control_c, 4, 7, 95
6, 57314, Control_c, 4, 7, 96
6, 57318, Control_c, 4, 7, 97
6, 57324, Control_c, 4, 7, 98
6, 57331, Control_c, 4, 7, 99
6, 57338, Control_c, 4, 7, 100
6, 57345, Control_c, 4, 7, 101
6, 57350, Control_c, 4, 7, 102
6, 57355, Control_c, 4, 7, 103
6, 57367, Control_c, 4, 7, 104
6, 57372, Control_c, 4, 7, 105
6, 57378, Control_c, 4, 7, 106
6, 57386, Control_c, 4, 7, 107
6, 57393, Control_c, 4, 7, 108
6, 57399, Control_c, 4, 7, 109
6, 57410, Control_c, 4, 7, 110
6, 57420, Control_c, 4, 7, 111
6, 57430, Control_c, 4, 7, 112
6, 57444, Control_c, 4, 7, 113
6, 57449, Control_c, 4, 7, 114
6, 57461, Control_c, 4, 7, 115
6, 57474, Control_c, 4, 7, 116
6, 57492, Control_c, 4, 7, 117
6, 57503, Control_c, 4, 7, 118
6, 57519, Control_c, 4, 7, 119
6, 57582, Note_off_c, 4, 74, 125
6, 60382, Control_c, 4, 7, 106
6, 60435, Control_c, 4, 7, 105
6, 60672, Note_on_c, 4, 63, 108
6, 60672, Note_on_c, 4, 75, 90
6, 60947, Control_c, 4, 7, 104
6, 60960, Note_on_c, 4, 62, 112
6, 60960, Note_on_c, 4, 74, 94
6, 60983, Note_off_c, 4, 75, 90
6, 60983, Note_off_c, 4, 63, 108
6, 61344, Note_on_c, 4, 61, 110
6, 61344, Note_on_c, 4, 73, 92
6, 61352, Note_off_c, 4, 74, 94
6, 61352, Note_off_c, 4, 62, 112
6, 61728, Note_off_c, 4, 73, 92
6, 61728, Note_off_c, 4, 61, 110
6, 61728, Note_on_c, 4, 60, 110
6, 61728, Note_on_c, 4, 72, 92
6, 61741, Control_c, 4, 7, 103
6, 61749, Control_c, 4, 7, 102
6, 61755, Control_c, 4, 7, 101
6, 61757, Control_c, 4, 7, 100
6, 61760, Control_c, 4, 7, 99
6, 61763, Control_c, 4, 7, 98
6, 61765, Control_c, 4, 7, 96
6, 61769, Control_c, 4, 7, 95
6, 61771, Control_c, 4, 7, 94
6, 61774, Control_c, 4, 7, 92
6, 61776, Control_c, 4, 7, 91
6, 61779, Control_c, 4, 7, 90
6, 61782, Control_c, 4, 7, 89
6, 61784, Control_c, 4, 7, 87
6, 61787, Control_c, 4, 7, 86
6, 61789, Control_c, 4, 7, 85
6, 61793, Control_c, 4, 7, 84
6, 61795, Control_c, 4, 7, 82
6, 61798, Control_c, 4, 7, 81
6, 61801, Control_c, 4, 7, 80
6, 61803, Control_c, 4, 7, 78
6, 61806, Control_c, 4, 7, 77
6, 61808, Control_c, 4, 7, 76
6, 61811, Control_c, 4, 7, 74
6, 61814, Control_c, 4, 7, 73
6, 61817, Control_c, 4, 7, 72
6, 61820, Control_c, 4, 7, 70
6, 61822, Control_c, 4, 7, 69
6, 61825, Control_c, 4, 7, 68
6, 61827, Control_c, 4, 7, 67
6, 61830, Control_c, 4, 7, 66
6, 61832, Control_c, 4, 7, 65
6, 61835, Control_c, 4, 7, 64
6, 61838, Control_c, 4, 7, 63
6, 61841, Control_c, 4, 7, 62
6, 61844, Control_c, 4, 7, 61
6, 61846, Control_c, 4, 7, 60
6, 61849, Control_c, 4, 7, 58
6, 61853, Control_c, 4, 7, 57
6, 61857, Control_c, 4, 7, 56
6, 61860, Control_c, 4, 7, 55
6, 61868, Control_c, 4, 7, 54
6, 61873, Control_c, 4, 7, 53
6, 61902, Control_c, 4, 7, 54
6, 61915, Control_c, 4, 7, 55
6, 61927, Control_c, 4, 7, 56
6, 61938, Control_c, 4, 7, 57
6, 61942, Control_c, 4, 7, 58
6, 61954, Control_c, 4, 7, 59
6, 61959, Control_c, 4, 7, 60
6, 61964, Control_c, 4, 7, 61
6, 61969, Control_c, 4, 7, 62
6, 61978, Control_c, 4, 7, 63
6, 61982, Control_c, 4, 7, 64
6, 61991, Control_c, 4, 7, 65
6, 61996, Control_c, 4, 7, 66
6, 61998, Control_c, 4, 7, 67
6, 62006, Control_c, 4, 7, 68
6, 62011, Control_c, 4, 7, 69
6, 62018, Control_c, 4, 7, 70
6, 62024, Control_c, 4, 7, 71
6, 62028, Control_c, 4, 7, 72
6, 62033, Control_c, 4, 7, 73
6, 62039, Control_c, 4, 7, 74
6, 62044, Control_c, 4, 7, 75
6, 62047, Control_c, 4, 7, 76
6, 62052, Control_c, 4, 7, 77
6, 62058, Control_c, 4, 7, 78
6, 62063, Control_c, 4, 7, 79
6, 62066, Control_c, 4, 7, 80
6, 62071, Control_c, 4, 7, 81
6, 62073, Control_c, 4, 7, 82
6, 62079, Control_c, 4, 7, 83
6, 62084, Control_c, 4, 7, 84
6, 62087, Control_c, 4, 7, 85
6, 62092, Control_c, 4, 7, 86
6, 62098, Control_c, 4, 7, 87
6, 62100, Control_c, 4, 7, 88
6, 62103, Control_c, 4, 7, 89
6, 62105, Control_c, 4, 7, 90
6, 62112, Control_c, 4, 7, 91
6, 62114, Control_c, 4, 7, 92
6, 62117, Control_c, 4, 7, 94
6, 62119, Control_c, 4, 7, 95
6, 62122, Control_c, 4, 7, 96
6, 62124, Control_c, 4, 7, 97
6, 62128, Control_c, 4, 7, 98
6, 62130, Control_c, 4, 7, 99
6, 62133, Control_c, 4, 7, 100
6, 62136, Control_c, 4, 7, 101
6, 62138, Control_c, 4, 7, 102
6, 62140, Control_c, 4, 7, 103
6, 62143, Control_c, 4, 7, 104
6, 62146, Control_c, 4, 7, 105
6, 62148, Control_c, 4, 7, 106
6, 62154, Control_c, 4, 7, 107
6, 62162, Control_c, 4, 7, 108
6, 62195, Note_off_c, 4, 72, 92
6, 62195, Note_off_c, 4, 60, 110
6, 63648, Note_on_c, 4, 82, 100
6, 63679, Note_off_c, 4, 82, 100
6, 63680, Note_on_c, 4, 83, 96
6, 63711, Note_off_c, 4, 83, 96
6, 63712, Note_on_c, 4, 84, 108
6, 63743, Note_off_c, 4, 84, 108
6, 63744, Note_on_c, 4, 85, 102
6, 63825, Note_off_c, 4, 85, 102
6, 76250, Control_c, 4, 7, 108
6, 76261, Control_c, 4, 7, 107
6, 76272, Control_c, 4, 7, 106
6, 76277, Control_c, 4, 7, 105
6, 76287, Control_c, 4, 7, 104
6, 76293, Control_c, 4, 7, 103
6, 76306, Control_c, 4, 7, 102
6, 76322, Control_c, 4, 7, 101
6, 76792, Control_c, 4, 7, 100
6, 76992, Note_on_c, 4, 68, 123
6, 77023, Note_off_c, 4, 68, 123
6, 77040, Note_on_c, 4, 68, 113
6, 77074, Note_off_c, 4, 68, 113
6, 77088, Note_on_c, 4, 66, 121
6, 77118, Note_off_c, 4, 66, 121
6, 77136, Note_on_c, 4, 68, 123
6, 77173, Note_off_c, 4, 68, 123
6, 77200, Control_c, 4, 7, 101
6, 77219, Control_c, 4, 7, 102
6, 77232, Note_on_c, 4, 66, 121
6, 77267, Note_off_c, 4, 66, 121
6, 77328, Note_on_c, 4, 68, 121
6, 77367, Note_off_c, 4, 68, 121
6, 77424, Note_on_c, 4, 61, 111
6, 77453, Note_off_c, 4, 61, 111
6, 77472, Note_on_c, 4, 63, 117
6, 77503, Note_off_c, 4, 63, 117
6, 77520, Note_on_c, 4, 66, 121
6, 77547, Note_off_c, 4, 66, 121
6, 77568, Note_on_c, 4, 68, 121
6, 77568, Note_on_c, 4, 80, 115
6, 77595, Note_off_c, 4, 80, 115
6, 77596, Note_off_c, 4, 68, 121
6, 77605, Control_c, 4, 7, 103
6, 77616, Note_on_c, 4, 68, 107
6, 77616, Note_on_c, 4, 80, 107
6, 77644, Note_off_c, 4, 80, 107
6, 77649, Note_off_c, 4, 68, 107
6, 77664, Note_on_c, 4, 66, 117
6, 77664, Note_on_c, 4, 78, 115
6, 77698, Note_off_c, 4, 78, 115
6, 77699, Note_off_c, 4, 66, 117
6, 77712, Note_on_c, 4, 68, 125
6, 77712, Note_on_c, 4, 80, 115
6, 77749, Note_off_c, 4, 80, 115
6, 77752, Note_off_c, 4, 68, 125
6, 77808, Note_on_c, 4, 63, 119
6, 77808, Note_on_c, 4, 75, 115
6, 77839, Note_off_c, 4, 75, 115
6, 77842, Note_off_c, 4, 63, 119
6, 77889, Pitch_bend_c, 4, 9600
6, 77896, Pitch_bend_c, 4, 12544
6, 77903, Pitch_bend_c, 4, 14336
6, 77904, Note_on_c, 4, 68, 123
6, 77904, Note_on_c, 4, 80, 115
6, 77910, Pitch_bend_c, 4, 15104
6, 77917, Pitch_bend_c, 4, 15872
6, 77924, Pitch_bend_c, 4, 16000
6, 77932, Pitch_bend_c, 4, 16256
6, 77940, Pitch_bend_c, 4, 16000
6, 77949, Pitch_bend_c, 4, 13568
6, 77956, Pitch_bend_c, 4, 10496
6, 77963, Pitch_bend_c, 4, 8960
6, 77972, Pitch_bend_c, 4, 8448
6, 77980, Note_off_c, 4, 80, 115
6, 77980, Note_off_c, 4, 68, 123
6, 77980, Pitch_bend_c, 4, 8192
6, 78000, Note_on_c, 4, 66, 119
6, 78000, Note_on_c, 4, 78, 115
6, 78032, Note_off_c, 4, 78, 115
6, 78032, Note_off_c, 4, 66, 119
6, 78048, Note_on_c, 4, 63, 123
6, 78048, Note_on_c, 4, 75, 115
6, 78077, Note_off_c, 4, 75, 115
6, 78078, Note_off_c, 4, 63, 123
6, 78144, Note_on_c, 4, 70, 121
6, 78144, Note_on_c, 4, 82, 117
6, 78167, Note_off_c, 4, 70, 121
6, 78169, Note_off_c, 4, 82, 117
6, 78192, Note_on_c, 4, 70, 121
6, 78192, Note_on_c, 4, 82, 119
6, 78222, Note_off_c, 4, 82, 119
6, 78223, Note_off_c, 4, 70, 121
6, 80064, Note_on_c, 4, 68, 123
6, 80095, Note_off_c, 4, 68, 123
6, 80112, Note_on_c, 4, 68, 113
6, 80146, Note_off_c, 4, 68, 113
6, 80160, Note_on_c, 4, 66, 121
6, 80190, Note_off_c, 4, 66, 121
6, 80208, Note_on_c, 4, 68, 123
6, 80245, Note_off_c, 4, 68, 123
6, 80304, Note_on_c, 4, 66, 121
6, 80339, Note_off_c, 4, 66, 121
6, 80400, Note_on_c, 4, 68, 121
6, 80439, Note_off_c, 4, 68, 121
6, 80471, Control_c, 4, 7, 102
6, 80496, Note_on_c, 4, 61, 111
6, 80525, Note_off_c, 4, 61, 111
6, 80527, Control_c, 4, 7, 101
6, 80544, Note_on_c, 4, 63, 117
6, 80575, Note_off_c, 4, 63, 117
6, 80592, Note_on_c, 4, 66, 121
6, 80619, Note_off_c, 4, 66, 121
6, 80640, Note_on_c, 4, 68, 121
6, 80640, Note_on_c, 4, 80, 115
6, 80667, Note_off_c, 4, 80, 115
6, 80668, Note_off_c, 4, 68, 121
6, 80688, Note_on_c, 4, 68, 107
6, 80688, Note_on_c, 4, 80, 107
6, 80716, Note_off_c, 4, 80, 107
6, 80721, Note_off_c, 4, 68, 107
6, 80736, Note_on_c, 4, 66, 117
6, 80736, Note_on_c, 4, 78, 115
6, 80770, Note_off_c, 4, 78, 115
6, 80771, Note_off_c, 4, 66, 117
6, 80784, Note_on_c, 4, 68, 125
6, 80784, Note_on_c, 4, 80, 115
6, 80821, Note_off_c, 4, 80, 115
6, 80824, Note_off_c, 4, 68, 125
6, 80880, Note_on_c, 4, 63, 119
6, 80880, Note_on_c, 4, 75, 115
6, 80911, Note_off_c, 4, 75, 115
6, 80914, Note_off_c, 4, 63, 119
6, 80961, Pitch_bend_c, 4, 9600
6, 80968, Pitch_bend_c, 4, 12544
6, 80975, Pitch_bend_c, 4, 14336
6, 80976, Note_on_c, 4, 68, 123
6, 80976, Note_on_c, 4, 80, 115
6, 80982, Pitch_bend_c, 4, 15104
6, 80989, Pitch_bend_c, 4, 15872
6, 80996, Pitch_bend_c, 4, 16000
6, 81004, Pitch_bend_c, 4, 16256
6, 81012, Pitch_bend_c, 4, 16000
6, 81021, Pitch_bend_c, 4, 13568
6, 81028, Pitch_bend_c, 4, 10496
6, 81031, Control_c, 4, 7, 100
6, 81035, Pitch_bend_c, 4, 8960
6, 81044, Pitch_bend_c, 4, 8448
6, 81052, Note_off_c, 4, 80, 115
6, 81052, Note_off_c, 4, 68, 123
6, 81052, Pitch_bend_c, 4, 8192
6, 81065, Control_c, 4, 7, 99
6, 81072, Note_on_c, 4, 66, 119
6, 81072, Note_on_c, 4, 78, 115
6, 81104, Note_off_c, 4, 78, 115
6, 81104, Note_off_c, 4, 66, 119
6, 81120, Note_on_c, 4, 63, 123
6, 81120, Note_on_c, 4, 75, 115
6, 81149, Note_off_c, 4, 75, 115
6, 81150, Note_off_c, 4, 63, 123
6, 81216, Note_on_c, 4, 70, 121
6, 81216, Note_on_c, 4, 82, 117
6, 81239, Note_off_c, 4, 70, 121
6, 81241, Note_off_c, 4, 82, 117
6, 81264, Note_on_c, 4, 70, 121
6, 81264, Note_on_c, 4, 82, 119
6, 81294, Note_off_c, 4, 82, 119
6, 81295, Note_off_c, 4, 70, 121
6, 83136, Note_on_c, 4, 68, 123
6, 83167, Note_off_c, 4, 68, 123
6, 83184, Note_on_c, 4, 68, 113
6, 83218, Note_off_c, 4, 68, 113
6, 83232, Note_on_c, 4, 66, 121
6, 83262, Note_off_c, 4, 66, 121
6, 83280, Note_on_c, 4, 68, 123
6, 83317, Note_off_c, 4, 68, 123
6, 83376, Note_on_c, 4, 66, 121
6, 83411, Note_off_c, 4, 66, 121
6, 83472, Note_on_c, 4, 68, 121
6, 83511, Note_off_c, 4, 68, 121
6, 83568, Note_on_c, 4, 61, 111
6, 83594, Control_c, 4, 7, 100
6, 83597, Note_off_c, 4, 61, 111
6, 83616, Note_on_c, 4, 63, 117
6, 83647, Note_off_c, 4, 63, 117
6, 83657, Control_c, 4, 7, 101
6, 83664, Note_on_c, 4, 66, 121
6, 83691, Note_off_c, 4, 66, 121
6, 83712, Note_on_c, 4, 68, 121
6, 83712, Note_on_c, 4, 80, 115
6, 83739, Note_off_c, 4, 80, 115
6, 83740, Note_off_c, 4, 68, 121
6, 83760, Note_on_c, 4, 68, 107
6, 83760, Note_on_c, 4, 80, 107
6, 83788, Note_off_c, 4, 80, 107
6, 83793, Note_off_c, 4, 68, 107
6, 83808, Note_on_c, 4, 66, 117
6, 83808, Note_on_c, 4, 78, 115
6, 83842, Note_off_c, 4, 78, 115
6, 83843, Note_off_c, 4, 66, 117
6, 83856, Note_on_c, 4, 68, 125
6, 83856, Note_on_c, 4, 80, 115
6, 83860, Control_c, 4, 7, 102
6, 83893, Note_off_c, 4, 80, 115
6, 83896, Note_off_c, 4, 68, 125
6, 83914, Control_c, 4, 7, 103
6, 83952, Note_on_c, 4, 63, 119
6, 83952, Note_on_c, 4, 75, 115
6, 83983, Note_off_c, 4, 75, 115
6, 83986, Note_off_c, 4, 63, 119
6, 84033, Pitch_bend_c, 4, 9600
6, 84040, Pitch_bend_c, 4, 12544
6, 84047, Pitch_bend_c, 4, 14336
6, 84048, Note_on_c, 4, 68, 123
6, 84048, Note_on_c, 4, 80, 115
6, 84054, Pitch_bend_c, 4, 15104
6, 84061, Pitch_bend_c, 4, 15872
6, 84068, Pitch_bend_c, 4, 16000
6, 84076, Pitch_bend_c, 4, 16256
6, 84084, Pitch_bend_c, 4, 16000
6, 84093, Pitch_bend_c, 4, 13568
6, 84100, Pitch_bend_c, 4, 10496
6, 84107, Pitch_bend_c, 4, 8960
6, 84116, Pitch_bend_c, 4, 8448
6, 84124, Note_off_c, 4, 80, 115
6, 84124, Note_off_c, 4, 68, 123
6, 84124, Pitch_bend_c, 4, 8192
6, 84144, Note_on_c, 4, 66, 119
6, 84144, Note_on_c, 4, 78, 115
6, 84176, Note_off_c, 4, 78, 115
6, 84176, Note_off_c, 4, 66, 119
6, 84192, Note_on_c, 4, 63, 123
6, 84192, Note_on_c, 4, 75, 115
6, 84221, Note_off_c, 4, 75, 115
6, 84222, Note_off_c, 4, 63, 123
6, 84288, Note_on_c, 4, 70, 121
6, 84288, Note_on_c, 4, 82, 117
6, 84311, Note_off_c, 4, 70, 121
6, 84313, Note_off_c, 4, 82, 117
6, 84336, Note_on_c, 4, 70, 121
6, 84336, Note_on_c, 4, 82, 119
6, 84366, Note_off_c, 4, 82, 119
6, 84367, Note_off_c, 4, 70, 121
6, 86208, Note_on_c, 4, 68, 123
6, 86239, Note_off_c, 4, 68, 123
6, 86256, Note_on_c, 4, 68, 113
6, 86290, Note_off_c, 4, 68, 113
6, 86304, Note_on_c, 4, 66, 121
6, 86334, Note_off_c, 4, 66, 121
6, 86352, Note_on_c, 4, 68, 123
6, 86389, Note_off_c, 4, 68, 123
6, 86448, Note_on_c, 4, 66, 121
6, 86483, Note_off_c, 4, 66, 121
6, 86544, Note_on_c, 4, 68, 121
6, 86583, Note_off_c, 4, 68, 121
6, 86640, Note_on_c, 4, 61, 111
6, 86669, Note_off_c, 4, 61, 111
6, 86688, Note_on_c, 4, 63, 117
6, 86719, Note_off_c, 4, 63, 117
6, 86736, Note_on_c, 4, 66, 121
6, 86763, Note_off_c, 4, 66, 121
6, 86784, Note_on_c, 4, 68, 121
6, 86784, Note_on_c, 4, 80, 115
6, 86811, Note_off_c, 4, 80, 115
6, 86812, Note_off_c, 4, 68, 121
6, 86832, Note_on_c, 4, 68, 107
6, 86832, Note_on_c, 4, 80, 107
6, 86860, Note_off_c, 4, 80, 107
6, 86865, Note_off_c, 4, 68, 107
6, 86880, Note_on_c, 4, 66, 117
6, 86880, Note_on_c, 4, 78, 115
6, 86914, Note_off_c, 4, 78, 115
6, 86915, Note_off_c, 4, 66, 117
6, 86928, Note_on_c, 4, 68, 125
6, 86928, Note_on_c, 4, 80, 115
6, 86965, Note_off_c, 4, 80, 115
6, 86968, Note_off_c, 4, 68, 125
6, 87024, Note_on_c, 4, 63, 119
6, 87024, Note_on_c, 4, 75, 115
6, 87055, Note_off_c, 4, 75, 115
6, 87058, Note_off_c, 4, 63, 119
6, 87105, Pitch_bend_c, 4, 9600
6, 87112, Pitch_bend_c, 4, 12544
6, 87119, Pitch_bend_c, 4, 14336
6, 87120, Note_on_c, 4, 68, 123
6, 87120, Note_on_c, 4, 80, 115
6, 87126, Pitch_bend_c, 4, 15104
6, 87133, Pitch_bend_c, 4, 15872
6, 87140, Pitch_bend_c, 4, 16000
6, 87148, Pitch_bend_c, 4, 16256
6, 87156, Pitch_bend_c, 4, 16000
6, 87165, Pitch_bend_c, 4, 13568
6, 87172, Pitch_bend_c, 4, 10496
6, 87179, Pitch_bend_c, 4, 8960
6, 87182, Control_c, 4, 7, 104
6, 87188, Pitch_bend_c, 4, 8448
6, 87194, Control_c, 4, 7, 105
6, 87196, Note_off_c, 4, 80, 115
6, 87196, Note_off_c, 4, 68, 123
6, 87196, Pitch_bend_c, 4, 8192
6, 87198, Control_c, 4, 7, 106
6, 87204, Control_c, 4, 7, 107
6, 87215, Control_c, 4, 7, 108
6, 87216, Note_on_c, 4, 66, 119
6, 87216, Note_on_c, 4, 78, 115
6, 87219, Control_c, 4, 7, 109
6, 87231, Control_c, 4, 7, 110
6, 87244, Control_c, 4, 7, 111
6, 87248, Note_off_c, 4, 78, 115
6, 87248, Note_off_c, 4, 66, 119
6, 87252, Control_c, 4, 7, 112
6, 87263, Control_c, 4, 7, 113
6, 87264, Note_on_c, 4, 63, 123
6, 87264, Note_on_c, 4, 75, 115
6, 87273, Control_c, 4, 7, 114
6, 87285, Control_c, 4, 7, 115
6, 87290, Control_c, 4, 7, 116
6, 87293, Note_off_c, 4, 75, 115
6, 87294, Note_off_c, 4, 63, 123
6, 87302, Control_c, 4, 7, 117
6, 87360, Note_on_c, 4, 70, 121
6, 87360, Note_on_c, 4, 82, 117
6, 87383, Note_off_c, 4, 70, 121
6, 87385, Note_off_c, 4, 82, 117
6, 87408, Note_on_c, 4, 70, 121
6, 87408, Note_on_c, 4, 82, 119
6, 87438, Note_off_c, 4, 82, 119
6, 87439, Note_off_c, 4, 70, 121
6, 87439, End_track
7, 0, Start_track
7, 0, Text_t, "Celli   "
7, 768, Program_c, 6, 48
7, 816, Control_c, 6, 7, 100
7, 864, Control_c, 6, 10, 124
7, 912, Control_c, 6, 91, 70
7, 960, Control_c, 6, 93, 60
7, 1536, Note_on_c, 6, 54, 92
7, 2303, Note_off_c, 6, 54, 92
7, 2304, Note_on_c, 6, 54, 97
7, 3071, Note_off_c, 6, 54, 97
7, 3072, Note_on_c, 6, 46, 98
7, 3839, Note_off_c, 6, 46, 98
7, 3840, Note_on_c, 6, 47, 97
7, 4607, Note_off_c, 6, 47, 97
7, 4608, Note_on_c, 6, 44, 93
7, 5375, Note_off_c, 6, 44, 93
7, 5376, Note_on_c, 6, 49, 98
7, 6143, Note_off_c, 6, 49, 98
7, 6144, Note_on_c, 6, 42, 92
7, 6911, Note_off_c, 6, 42, 92
7, 6912, Note_on_c, 6, 46, 99
7, 7679, Note_off_c, 6, 46, 99
7, 17664, Note_on_c, 6, 61, 88
7, 18335, Note_off_c, 6, 61, 88
7, 18336, Note_on_c, 6, 61, 94
7, 19199, Note_off_c, 6, 61, 94
7, 19200, Note_on_c, 6, 58, 96
7, 19871, Note_off_c, 6, 58, 96
7, 19872, Note_on_c, 6, 59, 88
7, 20735, Note_off_c, 6, 59, 88
7, 20736, Note_on_c, 6, 56, 96
7, 21407, Note_off_c, 6, 56, 96
7, 21408, Note_on_c, 6, 56, 84
7, 22271, Note_off_c, 6, 56, 84
7, 22272, Note_on_c, 6, 58, 92
7, 23039, Note_off_c, 6, 58, 92
7, 23040, Note_on_c, 6, 58, 94
7, 23816, Note_off_c, 6, 58, 94
7, 30720, Note_on_c, 6, 61, 88
7, 31391, Note_off_c, 6, 61, 88
7, 31392, Note_on_c, 6, 61, 94
7, 32255, Note_off_c, 6, 61, 94
7, 32256, Note_on_c, 6, 58, 96
7, 32927, Note_off_c, 6, 58, 96
7, 32928, Note_on_c, 6, 59, 88
7, 33791, Note_off_c, 6, 59, 88
7, 33792, Note_on_c, 6, 56, 96
7, 34463, Note_off_c, 6, 56, 96
7, 34464, Note_on_c, 6, 56, 84
7, 35327, Note_off_c, 6, 56, 84
7, 35328, Note_on_c, 6, 61, 108
7, 35615, Note_off_c, 6, 61, 108
7, 35616, Note_on_c, 6, 60, 114
7, 35999, Note_off_c, 6, 60, 114
7, 36000, Note_on_c, 6, 59, 114
7, 36383, Note_off_c, 6, 59, 114
7, 36384, Note_on_c, 6, 58, 114
7, 36767, Note_off_c, 6, 58, 114
7, 36768, Note_on_c, 6, 57, 114
7, 37151, Note_off_c, 6, 57, 114
7, 37152, Note_on_c, 6, 56, 114
7, 37848, Note_off_c, 6, 56, 114
7, 38400, Note_on_c, 6, 61, 112
7, 38687, Note_off_c, 6, 61, 112
7, 38688, Note_on_c, 6, 60, 114
7, 39071, Note_off_c, 6, 60, 114
7, 39072, Note_on_c, 6, 59, 114
7, 39455, Note_off_c, 6, 59, 114
7, 39456, Note_on_c, 6, 58, 112
7, 39839, Note_off_c, 6, 58, 112
7, 39840, Note_on_c, 6, 57, 114
7, 40223, Note_off_c, 6, 57, 114
7, 40224, Note_on_c, 6, 56, 114
7, 40783, Note_off_c, 6, 56, 114
7, 51456, Note_on_c, 6, 61, 88
7, 52127, Note_off_c, 6, 61, 88
7, 52128, Note_on_c, 6, 61, 94
7, 52991, Note_off_c, 6, 61, 94
7, 52992, Note_on_c, 6, 58, 96
7, 53663, Note_off_c, 6, 58, 96
7, 53664, Note_on_c, 6, 59, 88
7, 54527, Note_off_c, 6, 59, 88
7, 54528, Note_on_c, 6, 56, 96
7, 55199, Note_off_c, 6, 56, 96
7, 55200, Note_on_c, 6, 56, 84
7, 56063, Note_off_c, 6, 56, 84
7, 56064, Note_on_c, 6, 58, 92
7, 56831, Note_off_c, 6, 58, 92
7, 56832, Note_on_c, 6, 58, 94
7, 57608, Note_off_c, 6, 58, 94
7, 64512, Note_on_c, 6, 61, 88
7, 65183, Note_off_c, 6, 61, 88
7, 65184, Note_on_c, 6, 61, 94
7, 66047, Note_off_c, 6, 61, 94
7, 66048, Note_on_c, 6, 58, 96
7, 66719, Note_off_c, 6, 58, 96
7, 66720, Note_on_c, 6, 59, 88
7, 67583, Note_off_c, 6, 59, 88
7, 67584, Note_on_c, 6, 56, 96
7, 68255, Note_off_c, 6, 56, 96
7, 68256, Note_on_c, 6, 56, 84
7, 69119, Note_off_c, 6, 56, 84
7, 69120, Note_on_c, 6, 61, 108
7, 69407, Note_off_c, 6, 61, 108
7, 69408, Note_on_c, 6, 60, 114
7, 69791, Note_off_c, 6, 60, 114
7, 69792, Note_on_c, 6, 59, 114
7, 70175, Note_off_c, 6, 59, 114
7, 70176, Note_on_c, 6, 58, 114
7, 70559, Note_off_c, 6, 58, 114
7, 70560, Note_on_c, 6, 57, 114
7, 70943, Note_off_c, 6, 57, 114
7, 70944, Note_on_c, 6, 56, 114
7, 71640, Note_off_c, 6, 56, 114
7, 72192, Note_on_c, 6, 61, 112
7, 72479, Note_off_c, 6, 61, 112
7, 72480, Note_on_c, 6, 60, 114
7, 72863, Note_off_c, 6, 60, 114
7, 72864, Note_on_c, 6, 59, 114
7, 73247, Note_off_c, 6, 59, 114
7, 73248, Note_on_c, 6, 58, 112
7, 73631, Note_off_c, 6, 58, 112
7, 73632, Note_on_c, 6, 57, 114
7, 74015, Note_off_c, 6, 57, 114
7, 74016, Note_on_c, 6, 56, 114
7, 74575, Note_off_c, 6, 56, 114
7, 74575, End_track
8, 0, Start_track
8, 0, Text_t, "Viole   "
8, 768, Program_c, 7, 48
8, 816, Control_c, 7, 7, 100
8, 864, Control_c, 7, 10, 84
8, 912, Control_c, 7, 91, 70
8, 960, Control_c, 7, 93, 60
8, 1536, Note_on_c, 7, 61, 94
8, 2303, Note_off_c, 7, 61, 94
8, 2304, Note_on_c, 7, 61, 90
8, 3071, Note_off_c, 7, 61, 90
8, 3072, Note_on_c, 7, 61, 100
8, 3839, Note_off_c, 7, 61, 100
8, 3840, Note_on_c, 7, 58, 97
8, 4607, Note_off_c, 7, 58, 97
8, 4608, Note_on_c, 7, 60, 97
8, 5375, Note_off_c, 7, 60, 97
8, 5376, Note_on_c, 7, 59, 100
8, 6143, Note_off_c, 7, 59, 100
8, 6144, Note_on_c, 7, 54, 92
8, 6911, Note_off_c, 7, 54, 92
8, 6912, Note_on_c, 7, 58, 98
8, 7679, Note_off_c, 7, 58, 98
8, 17664, Note_on_c, 7, 66, 98
8, 18335, Note_off_c, 7, 66, 98
8, 18336, Note_on_c, 7, 64, 106
8, 19199, Note_off_c, 7, 64, 106
8, 19200, Note_on_c, 7, 61, 100
8, 19871, Note_off_c, 7, 61, 100
8, 19872, Note_on_c, 7, 63, 92
8, 20735, Note_off_c, 7, 63, 92
8, 20736, Note_on_c, 7, 60, 100
8, 21407, Note_off_c, 7, 60, 100
8, 21408, Note_on_c, 7, 59, 92
8, 22271, Note_off_c, 7, 59, 92
8, 22272, Note_on_c, 7, 61, 102
8, 23039, Note_off_c, 7, 61, 102
8, 23040, Note_on_c, 7, 62, 100
8, 23810, Note_off_c, 7, 62, 100
8, 30720, Note_on_c, 7, 66, 98
8, 31391, Note_off_c, 7, 66, 98
8, 31392, Note_on_c, 7, 64, 106
8, 32255, Note_off_c, 7, 64, 106
8, 32256, Note_on_c, 7, 61, 100
8, 32927, Note_off_c, 7, 61, 100
8, 32928, Note_on_c, 7, 63, 92
8, 33791, Note_off_c, 7, 63, 92
8, 33792, Note_on_c, 7, 60, 100
8, 34463, Note_off_c, 7, 60, 100
8, 34464, Note_on_c, 7, 59, 92
8, 35327, Note_off_c, 7, 59, 92
8, 51456, Note_on_c, 7, 66, 98
8, 52127, Note_off_c, 7, 66, 98
8, 52128, Note_on_c, 7, 64, 106
8, 52991, Note_off_c, 7, 64, 106
8, 52992, Note_on_c, 7, 61, 100
8, 53663, Note_off_c, 7, 61, 100
8, 53664, Note_on_c, 7, 63, 92
8, 54527, Note_off_c, 7, 63, 92
8, 54528, Note_on_c, 7, 60, 100
8, 55199, Note_off_c, 7, 60, 100
8, 55200, Note_on_c, 7, 59, 92
8, 56063, Note_off_c, 7, 59, 92
8, 56064, Note_on_c, 7, 61, 102
8, 56831, Note_off_c, 7, 61, 102
8, 56832, Note_on_c, 7, 62, 100
8, 57602, Note_off_c, 7, 62, 100
8, 64512, Note_on_c, 7, 66, 98
8, 65183, Note_off_c, 7, 66, 98
8, 65184, Note_on_c, 7, 64, 106
8, 66047, Note_off_c, 7, 64, 106
8, 66048, Note_on_c, 7, 61, 100
8, 66719, Note_off_c, 7, 61, 100
8, 66720, Note_on_c, 7, 63, 92
8, 67583, Note_off_c, 7, 63, 92
8, 67584, Note_on_c, 7, 60, 100
8, 68255, Note_off_c, 7, 60, 100
8, 68256, Note_on_c, 7, 59, 92
8, 69119, Note_off_c, 7, 59, 92
8, 69119, End_track
9, 0, Start_track
9, 0, Text_t, "Violini "
9, 768, Program_c, 8, 48
9, 816, Control_c, 8, 7, 100
9, 864, Control_c, 8, 10, 4
9, 912, Control_c, 8, 91, 70
9, 960, Control_c, 8, 93, 30
9, 1536, Note_on_c, 8, 66, 90
9, 1536, Note_on_c, 8, 70, 92
9, 2303, Note_off_c, 8, 70, 92
9, 2303, Note_off_c, 8, 66, 90
9, 2304, Note_on_c, 8, 64, 98
9, 2304, Note_on_c, 8, 68, 93
9, 3071, Note_off_c, 8, 68, 93
9, 3071, Note_off_c, 8, 64, 98
9, 3072, Note_on_c, 8, 65, 101
9, 3072, Note_on_c, 8, 68, 100
9, 3839, Note_off_c, 8, 68, 100
9, 3839, Note_off_c, 8, 65, 101
9, 3840, Note_on_c, 8, 63, 93
9, 3840, Note_on_c, 8, 66, 92
9, 4607, Note_off_c, 8, 66, 92
9, 4607, Note_off_c, 8, 63, 93
9, 4608, Note_on_c, 8, 63, 97
9, 4608, Note_on_c, 8, 66, 99
9, 5375, Note_off_c, 8, 66, 99
9, 5375, Note_off_c, 8, 63, 97
9, 5376, Note_on_c, 8, 63, 98
9, 5376, Note_on_c, 8, 66, 102
9, 6143, Note_off_c, 8, 66, 102
9, 6143, Note_off_c, 8, 63, 98
9, 6144, Note_on_c, 8, 61, 93
9, 6144, Note_on_c, 8, 70, 93
9, 6911, Note_off_c, 8, 70, 93
9, 6911, Note_off_c, 8, 61, 93
9, 6912, Note_on_c, 8, 62, 101
9, 6912, Note_on_c, 8, 66, 96
9, 7679, Note_off_c, 8, 66, 96
9, 7679, Note_off_c, 8, 62, 101
9, 17664, Note_on_c, 8, 70, 86
9, 17664, Note_on_c, 8, 82, 94
9, 18335, Note_off_c, 8, 82, 94
9, 18335, Note_off_c, 8, 70, 86
9, 18336, Note_on_c, 8, 68, 92
9, 18336, Note_on_c, 8, 80, 96
9, 19199, Note_off_c, 8, 80, 96
9, 19199, Note_off_c, 8, 68, 92
9, 19200, Note_on_c, 8, 65, 96
9, 19200, Note_on_c, 8, 80, 98
9, 19871, Note_off_c, 8, 80, 98
9, 19871, Note_off_c, 8, 65, 96
9, 19872, Note_on_c, 8, 66, 92
9, 19872, Note_on_c, 8, 78, 100
9, 20735, Note_off_c, 8, 78, 100
9, 20735, Note_off_c, 8, 66, 92
9, 20736, Note_on_c, 8, 63, 92
9, 20736, Note_on_c, 8, 78, 96
9, 21407, Note_off_c, 8, 78, 96
9, 21407, Note_off_c, 8, 63, 92
9, 21408, Note_on_c, 8, 63, 82
9, 21408, Note_on_c, 8, 78, 88
9, 22271, Note_off_c, 8, 78, 88
9, 22271, Note_off_c, 8, 63, 82
9, 22272, Note_on_c, 8, 66, 96
9, 22272, Note_on_c, 8, 78, 96
9, 23039, Note_off_c, 8, 78, 96
9, 23039, Note_off_c, 8, 66, 96
9, 23040, Note_on_c, 8, 66, 92
9, 23040, Note_on_c, 8, 82, 86
9, 23801, Note_off_c, 8, 82, 86
9, 23809, Note_off_c, 8, 66, 92
9, 30720, Note_on_c, 8, 70, 86
9, 30720, Note_on_c, 8, 82, 94
9, 31391, Note_off_c, 8, 82, 94
9, 31391, Note_off_c, 8, 70, 86
9, 31392, Note_on_c, 8, 68, 92
9, 31392, Note_on_c, 8, 80, 96
9, 32255, Note_off_c, 8, 80, 96
9, 32255, Note_off_c, 8, 68, 92
9, 32256, Note_on_c, 8, 65, 96
9, 32256, Note_on_c, 8, 80, 98
9, 32927, Note_off_c, 8, 80, 98
9, 32927, Note_off_c, 8, 65, 96
9, 32928, Note_on_c, 8, 66, 92
9, 32928, Note_on_c, 8, 78, 100
9, 33791, Note_off_c, 8, 78, 100
9, 33791, Note_off_c, 8, 66, 92
9, 33792, Note_on_c, 8, 63, 92
9, 33792, Note_on_c, 8, 78, 96
9, 34463, Note_off_c, 8, 78, 96
9, 34463, Note_off_c, 8, 63, 92
9, 34464, Note_on_c, 8, 63, 82
9, 34464, Note_on_c, 8, 78, 88
9, 35327, Note_off_c, 8, 78, 88
9, 35327, Note_off_c, 8, 63, 82
9, 35328, Note_on_c, 8, 71, 105
9, 35519, Note_off_c, 8, 71, 105
9, 35520, Note_on_c, 8, 70, 105
9, 35615, Note_off_c, 8, 70, 105
9, 35616, Note_on_c, 8, 70, 105
9, 35807, Note_off_c, 8, 70, 105
9, 35808, Note_on_c, 8, 69, 105
9, 35999, Note_off_c, 8, 69, 105
9, 36000, Note_on_c, 8, 69, 105
9, 36191, Note_off_c, 8, 69, 105
9, 36192, Note_on_c, 8, 68, 105
9, 36383, Note_off_c, 8, 68, 105
9, 36384, Note_on_c, 8, 68, 105
9, 36575, Note_off_c, 8, 68, 105
9, 36576, Note_on_c, 8, 67, 105
9, 36767, Note_off_c, 8, 67, 105
9, 36768, Note_on_c, 8, 67, 105
9, 36959, Note_off_c, 8, 67, 105
9, 36960, Note_on_c, 8, 66, 105
9, 37151, Note_off_c, 8, 66, 105
9, 37152, Note_on_c, 8, 66, 105
9, 37343, Note_off_c, 8, 66, 105
9, 37344, Note_on_c, 8, 65, 105
9, 37439, Note_off_c, 8, 65, 105
9, 37440, Note_on_c, 8, 63, 105
9, 38136, Note_off_c, 8, 63, 105
9, 38400, Note_on_c, 8, 71, 105
9, 38591, Note_off_c, 8, 71, 105
9, 38592, Note_on_c, 8, 70, 105
9, 38687, Note_off_c, 8, 70, 105
9, 38688, Note_on_c, 8, 70, 105
9, 38879, Note_off_c, 8, 70, 105
9, 38880, Note_on_c, 8, 69, 105
9, 39071, Note_off_c, 8, 69, 105
9, 39072, Note_on_c, 8, 69, 105
9, 39263, Note_off_c, 8, 69, 105
9, 39264, Note_on_c, 8, 68, 105
9, 39455, Note_off_c, 8, 68, 105
9, 39456, Note_on_c, 8, 68, 105
9, 39647, Note_off_c, 8, 68, 105
9, 39648, Note_on_c, 8, 67, 105
9, 39839, Note_off_c, 8, 67, 105
9, 39840, Note_on_c, 8, 67, 105
9, 40031, Note_off_c, 8, 67, 105
9, 40032, Note_on_c, 8, 66, 105
9, 40223, Note_off_c, 8, 66, 105
9, 40224, Note_on_c, 8, 66, 105
9, 40415, Note_off_c, 8, 66, 105
9, 40416, Note_on_c, 8, 65, 105
9, 40511, Note_off_c, 8, 65, 105
9, 40512, Note_on_c, 8, 63, 105
9, 40756, Note_off_c, 8, 63, 105
9, 51456, Note_on_c, 8, 70, 86
9, 51456, Note_on_c, 8, 82, 94
9, 52127, Note_off_c, 8, 82, 94
9, 52127, Note_off_c, 8, 70, 86
9, 52128, Note_on_c, 8, 68, 92
9, 52128, Note_on_c, 8, 80, 96
9, 52991, Note_off_c, 8, 80, 96
9, 52991, Note_off_c, 8, 68, 92
9, 52992, Note_on_c, 8, 65, 96
9, 52992, Note_on_c, 8, 80, 98
9, 53663, Note_off_c, 8, 80, 98
9, 53663, Note_off_c, 8, 65, 96
9, 53664, Note_on_c, 8, 66, 92
9, 53664, Note_on_c, 8, 78, 100
9, 54527, Note_off_c, 8, 78, 100
9, 54527, Note_off_c, 8, 66, 92
9, 54528, Note_on_c, 8, 63, 92
9, 54528, Note_on_c, 8, 78, 96
9, 55199, Note_off_c, 8, 78, 96
9, 55199, Note_off_c, 8, 63, 92
9, 55200, Note_on_c, 8, 63, 82
9, 55200, Note_on_c, 8, 78, 88
9, 56063, Note_off_c, 8, 78, 88
9, 56063, Note_off_c, 8, 63, 82
9, 56064, Note_on_c, 8, 66, 96
9, 56064, Note_on_c, 8, 78, 96
9, 56831, Note_off_c, 8, 78, 96
9, 56831, Note_off_c, 8, 66, 96
9, 56832, Note_on_c, 8, 66, 92
9, 56832, Note_on_c, 8, 82, 86
9, 57593, Note_off_c, 8, 82, 86
9, 57601, Note_off_c, 8, 66, 92
9, 64512, Note_on_c, 8, 70, 86
9, 64512, Note_on_c, 8, 82, 94
9, 65183, Note_off_c, 8, 82, 94
9, 65183, Note_off_c, 8, 70, 86
9, 65184, Note_on_c, 8, 68, 92
9, 65184, Note_on_c, 8, 80, 96
9, 66047, Note_off_c, 8, 80, 96
9, 66047, Note_off_c, 8, 68, 92
9, 66048, Note_on_c, 8, 65, 96
9, 66048, Note_on_c, 8, 80, 98
9, 66719, Note_off_c, 8, 80, 98
9, 66719, Note_off_c, 8, 65, 96
9, 66720, Note_on_c, 8, 66, 92
9, 66720, Note_on_c, 8, 78, 100
9, 67583, Note_off_c, 8, 78, 100
9, 67583, Note_off_c, 8, 66, 92
9, 67584, Note_on_c, 8, 63, 92
9, 67584, Note_on_c, 8, 78, 96
9, 68255, Note_off_c, 8, 78, 96
9, 68255, Note_off_c, 8, 63, 92
9, 68256, Note_on_c, 8, 63, 82
9, 68256, Note_on_c, 8, 78, 88
9, 69119, Note_off_c, 8, 78, 88
9, 69119, Note_off_c, 8, 63, 82
9, 69120, Note_on_c, 8, 71, 105
9, 69311, Note_off_c, 8, 71, 105
9, 69312, Note_on_c, 8, 70, 105
9, 69407, Note_off_c, 8, 70, 105
9, 69408, Note_on_c, 8, 70, 105
9, 69599, Note_off_c, 8, 70, 105
9, 69600, Note_on_c, 8, 69, 105
9, 69791, Note_off_c, 8, 69, 105
9, 69792, Note_on_c, 8, 69, 105
9, 69983, Note_off_c, 8, 69, 105
9, 69984, Note_on_c, 8, 68, 105
9, 70175, Note_off_c, 8, 68, 105
9, 70176, Note_on_c, 8, 68, 105
9, 70367, Note_off_c, 8, 68, 105
9, 70368, Note_on_c, 8, 67, 105
9, 70559, Note_off_c, 8, 67, 105
9, 70560, Note_on_c, 8, 67, 105
9, 70751, Note_off_c, 8, 67, 105
9, 70752, Note_on_c, 8, 66, 105
9, 70943, Note_off_c, 8, 66, 105
9, 70944, Note_on_c, 8, 66, 105
9, 71135, Note_off_c, 8, 66, 105
9, 71136, Note_on_c, 8, 65, 105
9, 71231, Note_off_c, 8, 65, 105
9, 71232, Note_on_c, 8, 63, 105
9, 71928, Note_off_c, 8, 63, 105
9, 72192, Note_on_c, 8, 71, 105
9, 72383, Note_off_c, 8, 71, 105
9, 72384, Note_on_c, 8, 70, 105
9, 72479, Note_off_c, 8, 70, 105
9, 72480, Note_on_c, 8, 70, 105
9, 72671, Note_off_c, 8, 70, 105
9, 72672, Note_on_c, 8, 69, 105
9, 72863, Note_off_c, 8, 69, 105
9, 72864, Note_on_c, 8, 69, 105
9, 73055, Note_off_c, 8, 69, 105
9, 73056, Note_on_c, 8, 68, 105
9, 73247, Note_off_c, 8, 68, 105
9, 73248, Note_on_c, 8, 68, 105
9, 73439, Note_off_c, 8, 68, 105
9, 73440, Note_on_c, 8, 67, 105
9, 73631, Note_off_c, 8, 67, 105
9, 73632, Note_on_c, 8, 67, 105
9, 73823, Note_off_c, 8, 67, 105
9, 73824, Note_on_c, 8, 66, 105
9, 74015, Note_off_c, 8, 66, 105
9, 74016, Note_on_c, 8, 66, 105
9, 74207, Note_off_c, 8, 66, 105
9, 74208, Note_on_c, 8, 65, 105
9, 74303, Note_off_c, 8, 65, 105
9, 74304, Note_on_c, 8, 63, 105
9, 74548, Note_off_c, 8, 63, 105
9, 74548, End_track
10, 0, Start_track
10, 0, Text_t, "Batteria"
10, 2928, Program_c, 9, 1
10, 3168, Control_c, 9, 10, 64
10, 3408, Control_c, 9, 91, 76
10, 3792, Control_c, 9, 93, 0
10, 4032, Control_c, 9, 7, 127
10, 4608, Note_on_c, 9, 62, 109
10, 4636, Note_off_c, 9, 62, 109
10, 4704, Note_on_c, 9, 62, 41
10, 4726, Note_off_c, 9, 62, 41
10, 4752, Note_on_c, 9, 63, 104
10, 4789, Note_off_c, 9, 63, 104
10, 4848, Note_on_c, 9, 63, 36
10, 4865, Note_off_c, 9, 63, 36
10, 4896, Note_on_c, 9, 64, 96
10, 4918, Note_off_c, 9, 64, 96
10, 4992, Note_on_c, 9, 62, 101
10, 5028, Note_off_c, 9, 62, 101
10, 5088, Note_on_c, 9, 62, 33
10, 5112, Note_off_c, 9, 62, 33
10, 5136, Note_on_c, 9, 63, 100
10, 5173, Note_off_c, 9, 63, 100
10, 5232, Note_on_c, 9, 63, 44
10, 5252, Note_off_c, 9, 63, 44
10, 5280, Note_on_c, 9, 64, 96
10, 5305, Note_off_c, 9, 64, 96
10, 5328, Note_on_c, 9, 64, 44
10, 5353, Note_off_c, 9, 64, 44
10, 5376, Note_on_c, 9, 62, 109
10, 5404, Note_off_c, 9, 62, 109
10, 5472, Note_on_c, 9, 62, 41
10, 5494, Note_off_c, 9, 62, 41
10, 5520, Note_on_c, 9, 63, 104
10, 5557, Note_off_c, 9, 63, 104
10, 5616, Note_on_c, 9, 63, 36
10, 5633, Note_off_c, 9, 63, 36
10, 5664, Note_on_c, 9, 64, 96
10, 5686, Note_off_c, 9, 64, 96
10, 5760, Note_on_c, 9, 62, 101
10, 5796, Note_off_c, 9, 62, 101
10, 5856, Note_on_c, 9, 62, 33
10, 5880, Note_off_c, 9, 62, 33
10, 5904, Note_on_c, 9, 63, 100
10, 5941, Note_off_c, 9, 63, 100
10, 6000, Note_on_c, 9, 63, 44
10, 6020, Note_off_c, 9, 63, 44
10, 6048, Note_on_c, 9, 64, 96
10, 6073, Note_off_c, 9, 64, 96
10, 6096, Note_on_c, 9, 64, 44
10, 6121, Note_off_c, 9, 64, 44
10, 6144, Note_on_c, 9, 62, 101
10, 6170, Note_off_c, 9, 62, 101
10, 6240, Note_on_c, 9, 62, 40
10, 6258, Note_off_c, 9, 62, 40
10, 6288, Note_on_c, 9, 63, 104
10, 6324, Note_off_c, 9, 63, 104
10, 6384, Note_on_c, 9, 63, 40
10, 6406, Note_off_c, 9, 63, 40
10, 6432, Note_on_c, 9, 64, 92
10, 6450, Note_off_c, 9, 64, 92
10, 6528, Note_on_c, 9, 62, 105
10, 6562, Note_off_c, 9, 62, 105
10, 6624, Note_on_c, 9, 62, 33
10, 6651, Note_off_c, 9, 62, 33
10, 6672, Note_on_c, 9, 63, 104
10, 6708, Note_off_c, 9, 63, 104
10, 6768, Note_on_c, 9, 63, 32
10, 6786, Note_off_c, 9, 63, 32
10, 6816, Note_on_c, 9, 64, 92
10, 6836, Note_off_c, 9, 64, 92
10, 6864, Note_on_c, 9, 64, 68
10, 6891, Note_off_c, 9, 64, 68
10, 6912, Note_on_c, 9, 62, 109
10, 6938, Note_off_c, 9, 62, 109
10, 7008, Note_on_c, 9, 62, 61
10, 7031, Note_off_c, 9, 62, 61
10, 7056, Note_on_c, 9, 63, 104
10, 7091, Note_off_c, 9, 63, 104
10, 7152, Note_on_c, 9, 63, 60
10, 7169, Note_off_c, 9, 63, 60
10, 7200, Note_on_c, 9, 64, 88
10, 7216, Note_off_c, 9, 64, 88
10, 7296, Note_on_c, 9, 62, 109
10, 7327, Note_off_c, 9, 62, 109
10, 7392, Note_on_c, 9, 62, 45
10, 7411, Note_off_c, 9, 62, 45
10, 7440, Note_on_c, 9, 63, 104
10, 7471, Note_off_c, 9, 63, 104
10, 7536, Note_on_c, 9, 63, 47
10, 7552, Note_off_c, 9, 63, 47
10, 7584, Note_on_c, 9, 64, 104
10, 7604, Note_off_c, 9, 64, 104
10, 7632, Note_on_c, 9, 64, 84
10, 7650, Note_off_c, 9, 64, 84
10, 7680, Note_on_c, 9, 35, 124
10, 7680, Note_on_c, 9, 42, 92
10, 7680, Note_on_c, 9, 62, 109
10, 7681, Note_off_c, 9, 42, 92
10, 7681, Note_off_c, 9, 35, 124
10, 7708, Note_off_c, 9, 62, 109
10, 7728, Note_on_c, 9, 42, 86
10, 7729, Note_off_c, 9, 42, 86
10, 7776, Note_on_c, 9, 46, 87
10, 7776, Note_on_c, 9, 62, 41
10, 7777, Note_off_c, 9, 46, 87
10, 7798, Note_off_c, 9, 62, 41
10, 7824, Note_on_c, 9, 63, 104
10, 7861, Note_off_c, 9, 63, 104
10, 7872, Note_on_c, 9, 40, 124
10, 7872, Note_on_c, 9, 42, 96
10, 7873, Note_off_c, 9, 42, 96
10, 7873, Note_off_c, 9, 40, 124
10, 7920, Note_on_c, 9, 42, 66
10, 7920, Note_on_c, 9, 63, 36
10, 7921, Note_off_c, 9, 42, 66
10, 7937, Note_off_c, 9, 63, 36
10, 7968, Note_on_c, 9, 42, 86
10, 7968, Note_on_c, 9, 64, 96
10, 7969, Note_off_c, 9, 42, 86
10, 7990, Note_off_c, 9, 64, 96
10, 8016, Note_on_c, 9, 42, 74
10, 8017, Note_off_c, 9, 42, 74
10, 8064, Note_on_c, 9, 35, 124
10, 8064, Note_on_c, 9, 42, 98
10, 8064, Note_on_c, 9, 62, 101
10, 8065, Note_off_c, 9, 42, 98
10, 8065, Note_off_c, 9, 35, 124
10, 8100, Note_off_c, 9, 62, 101
10, 8112, Note_on_c, 9, 42, 58
10, 8113, Note_off_c, 9, 42, 58
10, 8160, Note_on_c, 9, 42, 72
10, 8160, Note_on_c, 9, 62, 33
10, 8161, Note_off_c, 9, 42, 72
10, 8184, Note_off_c, 9, 62, 33
10, 8208, Note_on_c, 9, 42, 70
10, 8208, Note_on_c, 9, 63, 100
10, 8209, Note_off_c, 9, 42, 70
10, 8245, Note_off_c, 9, 63, 100
10, 8256, Note_on_c, 9, 40, 124
10, 8256, Note_on_c, 9, 42, 100
10, 8257, Note_off_c, 9, 42, 100
10, 8257, Note_off_c, 9, 40, 124
10, 8304, Note_on_c, 9, 42, 64
10, 8304, Note_on_c, 9, 63, 44
10, 8305, Note_off_c, 9, 42, 64
10, 8324, Note_off_c, 9, 63, 44
10, 8352, Note_on_c, 9, 42, 88
10, 8352, Note_on_c, 9, 64, 96
10, 8353, Note_off_c, 9, 42, 88
10, 8377, Note_off_c, 9, 64, 96
10, 8400, Note_on_c, 9, 35, 124
10, 8400, Note_on_c, 9, 42, 66
10, 8400, Note_on_c, 9, 64, 44
10, 8401, Note_off_c, 9, 42, 66
10, 8401, Note_off_c, 9, 35, 124
10, 8425, Note_off_c, 9, 64, 44
10, 8448, Note_on_c, 9, 35, 124
10, 8448, Note_on_c, 9, 42, 94
10, 8448, Note_on_c, 9, 62, 109
10, 8449, Note_off_c, 9, 42, 94
10, 8449, Note_off_c, 9, 35, 124
10, 8476, Note_off_c, 9, 62, 109
10, 8496, Note_on_c, 9, 42, 82
10, 8497, Note_off_c, 9, 42, 82
10, 8544, Note_on_c, 9, 46, 87
10, 8544, Note_on_c, 9, 62, 41
10, 8545, Note_off_c, 9, 46, 87
10, 8566, Note_off_c, 9, 62, 41
10, 8592, Note_on_c, 9, 63, 104
10, 8629, Note_off_c, 9, 63, 104
10, 8640, Note_on_c, 9, 40, 124
10, 8640, Note_on_c, 9, 42, 94
10, 8641, Note_off_c, 9, 42, 94
10, 8641, Note_off_c, 9, 40, 124
10, 8688, Note_on_c, 9, 42, 70
10, 8688, Note_on_c, 9, 63, 36
10, 8689, Note_off_c, 9, 42, 70
10, 8705, Note_off_c, 9, 63, 36
10, 8736, Note_on_c, 9, 42, 78
10, 8736, Note_on_c, 9, 64, 96
10, 8737, Note_off_c, 9, 42, 78
10, 8758, Note_off_c, 9, 64, 96
10, 8784, Note_on_c, 9, 42, 72
10, 8785, Note_off_c, 9, 42, 72
10, 8832, Note_on_c, 9, 35, 124
10, 8832, Note_on_c, 9, 42, 98
10, 8832, Note_on_c, 9, 62, 101
10, 8833, Note_off_c, 9, 42, 98
10, 8833, Note_off_c, 9, 35, 124
10, 8868, Note_off_c, 9, 62, 101
10, 8880, Note_on_c, 9, 42, 66
10, 8881, Note_off_c, 9, 42, 66
10, 8928, Note_on_c, 9, 42, 86
10, 8928, Note_on_c, 9, 62, 33
10, 8929, Note_off_c, 9, 42, 86
10, 8952, Note_off_c, 9, 62, 33
10, 8976, Note_on_c, 9, 42, 70
10, 8976, Note_on_c, 9, 63, 100
10, 8977, Note_off_c, 9, 42, 70
10, 9013, Note_off_c, 9, 63, 100
10, 9024, Note_on_c, 9, 40, 124
10, 9024, Note_on_c, 9, 42, 96
10, 9025, Note_off_c, 9, 42, 96
10, 9025, Note_off_c, 9, 40, 124
10, 9072, Note_on_c, 9, 42, 62
10, 9072, Note_on_c, 9, 63, 44
10, 9073, Note_off_c, 9, 42, 62
10, 9092, Note_off_c, 9, 63, 44
10, 9120, Note_on_c, 9, 42, 86
10, 9120, Note_on_c, 9, 64, 96
10, 9121, Note_off_c, 9, 42, 86
10, 9145, Note_off_c, 9, 64, 96
10, 9168, Note_on_c, 9, 35, 124
10, 9168, Note_on_c, 9, 42, 68
10, 9168, Note_on_c, 9, 64, 44
10, 9169, Note_off_c, 9, 42, 68
10, 9169, Note_off_c, 9, 35, 124
10, 9193, Note_off_c, 9, 64, 44
10, 9216, Note_on_c, 9, 35, 124
10, 9216, Note_on_c, 9, 42, 98
10, 9216, Note_on_c, 9, 62, 101
10, 9217, Note_off_c, 9, 42, 98
10, 9217, Note_off_c, 9, 35, 124
10, 9242, Note_off_c, 9, 62, 101
10, 9264, Note_on_c, 9, 42, 70
10, 9265, Note_off_c, 9, 42, 70
10, 9312, Note_on_c, 9, 46, 87
10, 9312, Note_on_c, 9, 62, 40
10, 9313, Note_off_c, 9, 46, 87
10, 9330, Note_off_c, 9, 62, 40
10, 9360, Note_on_c, 9, 63, 104
10, 9396, Note_off_c, 9, 63, 104
10, 9408, Note_on_c, 9, 40, 124
10, 9408, Note_on_c, 9, 42, 96
10, 9409, Note_off_c, 9, 42, 96
10, 9409, Note_off_c, 9, 40, 124
10, 9456, Note_on_c, 9, 42, 66
10, 9456, Note_on_c, 9, 63, 40
10, 9457, Note_off_c, 9, 42, 66
10, 9478, Note_off_c, 9, 63, 40
10, 9504, Note_on_c, 9, 42, 84
10, 9504, Note_on_c, 9, 64, 92
10, 9505, Note_off_c, 9, 42, 84
10, 9522, Note_off_c, 9, 64, 92
10, 9552, Note_on_c, 9, 42, 66
10, 9553, Note_off_c, 9, 42, 66
10, 9600, Note_on_c, 9, 35, 124
10, 9600, Note_on_c, 9, 42, 96
10, 9600, Note_on_c, 9, 62, 105
10, 9601, Note_off_c, 9, 42, 96
10, 9601, Note_off_c, 9, 35, 124
10, 9634, Note_off_c, 9, 62, 105
10, 9648, Note_on_c, 9, 42, 66
10, 9649, Note_off_c, 9, 42, 66
10, 9696, Note_on_c, 9, 42, 76
10, 9696, Note_on_c, 9, 62, 33
10, 9697, Note_off_c, 9, 42, 76
10, 9723, Note_off_c, 9, 62, 33
10, 9744, Note_on_c, 9, 42, 68
10, 9744, Note_on_c, 9, 63, 104
10, 9745, Note_off_c, 9, 42, 68
10, 9780, Note_off_c, 9, 63, 104
10, 9792, Note_on_c, 9, 40, 124
10, 9792, Note_on_c, 9, 42, 96
10, 9793, Note_off_c, 9, 42, 96
10, 9793, Note_off_c, 9, 40, 124
10, 9840, Note_on_c, 9, 42, 50
10, 9840, Note_on_c, 9, 63, 32
10, 9841, Note_off_c, 9, 42, 50
10, 9858, Note_off_c, 9, 63, 32
10, 9888, Note_on_c, 9, 42, 78
10, 9888, Note_on_c, 9, 64, 92
10, 9889, Note_off_c, 9, 42, 78
10, 9908, Note_off_c, 9, 64, 92
10, 9936, Note_on_c, 9, 35, 124
10, 9936, Note_on_c, 9, 42, 68
10, 9936, Note_on_c, 9, 64, 68
10, 9937, Note_off_c, 9, 42, 68
10, 9937, Note_off_c, 9, 35, 124
10, 9963, Note_off_c, 9, 64, 68
10, 9984, Note_on_c, 9, 35, 124
10, 9984, Note_on_c, 9, 42, 96
10, 9984, Note_on_c, 9, 62, 109
10, 9985, Note_off_c, 9, 42, 96
10, 9985, Note_off_c, 9, 35, 124
10, 10010, Note_off_c, 9, 62, 109
10, 10032, Note_on_c, 9, 42, 72
10, 10033, Note_off_c, 9, 42, 72
10, 10080, Note_on_c, 9, 46, 89
10, 10080, Note_on_c, 9, 62, 61
10, 10081, Note_off_c, 9, 46, 89
10, 10103, Note_off_c, 9, 62, 61
10, 10128, Note_on_c, 9, 63, 104
10, 10163, Note_off_c, 9, 63, 104
10, 10176, Note_on_c, 9, 40, 124
10, 10176, Note_on_c, 9, 42, 96
10, 10177, Note_off_c, 9, 42, 96
10, 10177, Note_off_c, 9, 40, 124
10, 10224, Note_on_c, 9, 42, 68
10, 10224, Note_on_c, 9, 63, 60
10, 10225, Note_off_c, 9, 42, 68
10, 10241, Note_off_c, 9, 63, 60
10, 10272, Note_on_c, 9, 42, 70
10, 10272, Note_on_c, 9, 64, 88
10, 10273, Note_off_c, 9, 42, 70
10, 10288, Note_off_c, 9, 64, 88
10, 10320, Note_on_c, 9, 42, 70
10, 10321, Note_off_c, 9, 42, 70
10, 10368, Note_on_c, 9, 35, 124
10, 10368, Note_on_c, 9, 42, 96
10, 10368, Note_on_c, 9, 62, 109
10, 10369, Note_off_c, 9, 42, 96
10, 10369, Note_off_c, 9, 35, 124
10, 10399, Note_off_c, 9, 62, 109
10, 10416, Note_on_c, 9, 40, 84
10, 10416, Note_on_c, 9, 42, 76
10, 10417, Note_off_c, 9, 42, 76
10, 10417, Note_off_c, 9, 40, 84
10, 10464, Note_on_c, 9, 40, 98
10, 10464, Note_on_c, 9, 42, 78
10, 10464, Note_on_c, 9, 62, 45
10, 10465, Note_off_c, 9, 42, 78
10, 10465, Note_off_c, 9, 40, 98
10, 10483, Note_off_c, 9, 62, 45
10, 10512, Note_on_c, 9, 40, 101
10, 10512, Note_on_c, 9, 42, 72
10, 10512, Note_on_c, 9, 63, 104
10, 10513, Note_off_c, 9, 42, 72
10, 10513, Note_off_c, 9, 40, 101
10, 10543, Note_off_c, 9, 63, 104
10, 10560, Note_on_c, 9, 40, 111
10, 10560, Note_on_c, 9, 42, 100
10, 10561, Note_off_c, 9, 42, 100
10, 10561, Note_off_c, 9, 40, 111
10, 10608, Note_on_c, 9, 40, 124
10, 10608, Note_on_c, 9, 42, 88
10, 10608, Note_on_c, 9, 63, 47
10, 10609, Note_off_c, 9, 42, 88
10, 10609, Note_off_c, 9, 40, 124
10, 10624, Note_off_c, 9, 63, 47
10, 10656, Note_on_c, 9, 42, 94
10, 10656, Note_on_c, 9, 45, 100
10, 10656, Note_on_c, 9, 64, 104
10, 10657, Note_off_c, 9, 45, 100
10, 10657, Note_off_c, 9, 42, 94
10, 10676, Note_off_c, 9, 64, 104
10, 10704, Note_on_c, 9, 35, 124
10, 10704, Note_on_c, 9, 42, 72
10, 10704, Note_on_c, 9, 43, 111
10, 10704, Note_on_c, 9, 64, 84
10, 10705, Note_off_c, 9, 43, 111
10, 10705, Note_off_c, 9, 42, 72
10, 10705, Note_off_c, 9, 35, 124
10, 10722, Note_off_c, 9, 64, 84
10, 10752, Note_on_c, 9, 35, 124
10, 10752, Note_on_c, 9, 57, 75
10, 10753, Note_off_c, 9, 57, 75
10, 10753, Note_off_c, 9, 35, 124
10, 10848, Note_on_c, 9, 42, 97
10, 10849, Note_off_c, 9, 42, 97
10, 10896, Note_on_c, 9, 42, 61
10, 10897, Note_off_c, 9, 42, 61
10, 10944, Note_on_c, 9, 40, 124
10, 10944, Note_on_c, 9, 42, 96
10, 10945, Note_off_c, 9, 42, 96
10, 10945, Note_off_c, 9, 40, 124
10, 10992, Note_on_c, 9, 42, 66
10, 10993, Note_off_c, 9, 42, 66
10, 11040, Note_on_c, 9, 42, 86
10, 11041, Note_off_c, 9, 42, 86
10, 11088, Note_on_c, 9, 42, 74
10, 11089, Note_off_c, 9, 42, 74
10, 11136, Note_on_c, 9, 35, 124
10, 11136, Note_on_c, 9, 42, 98
10, 11137, Note_off_c, 9, 42, 98
10, 11137, Note_off_c, 9, 35, 124
10, 11184, Note_on_c, 9, 42, 58
10, 11185, Note_off_c, 9, 42, 58
10, 11232, Note_on_c, 9, 42, 72
10, 11233, Note_off_c, 9, 42, 72
10, 11280, Note_on_c, 9, 42, 70
10, 11281, Note_off_c, 9, 42, 70
10, 11328, Note_on_c, 9, 40, 124
10, 11328, Note_on_c, 9, 42, 100
10, 11329, Note_off_c, 9, 42, 100
10, 11329, Note_off_c, 9, 40, 124
10, 11376, Note_on_c, 9, 42, 64
10, 11377, Note_off_c, 9, 42, 64
10, 11424, Note_on_c, 9, 42, 88
10, 11425, Note_off_c, 9, 42, 88
10, 11472, Note_on_c, 9, 35, 124
10, 11472, Note_on_c, 9, 42, 66
10, 11473, Note_off_c, 9, 42, 66
10, 11473, Note_off_c, 9, 35, 124
10, 11520, Note_on_c, 9, 35, 124
10, 11520, Note_on_c, 9, 42, 94
10, 11521, Note_off_c, 9, 42, 94
10, 11521, Note_off_c, 9, 35, 124
10, 11568, Note_on_c, 9, 42, 82
10, 11569, Note_off_c, 9, 42, 82
10, 11616, Note_on_c, 9, 46, 87
10, 11617, Note_off_c, 9, 46, 87
10, 11712, Note_on_c, 9, 40, 124
10, 11712, Note_on_c, 9, 42, 94
10, 11713, Note_off_c, 9, 42, 94
10, 11713, Note_off_c, 9, 40, 124
10, 11760, Note_on_c, 9, 42, 70
10, 11761, Note_off_c, 9, 42, 70
10, 11808, Note_on_c, 9, 42, 78
10, 11809, Note_off_c, 9, 42, 78
10, 11856, Note_on_c, 9, 42, 72
10, 11857, Note_off_c, 9, 42, 72
10, 11904, Note_on_c, 9, 35, 124
10, 11904, Note_on_c, 9, 42, 98
10, 11905, Note_off_c, 9, 42, 98
10, 11905, Note_off_c, 9, 35, 124
10, 11952, Note_on_c, 9, 42, 66
10, 11953, Note_off_c, 9, 42, 66
10, 12000, Note_on_c, 9, 42, 86
10, 12001, Note_off_c, 9, 42, 86
10, 12048, Note_on_c, 9, 42, 70
10, 12049, Note_off_c, 9, 42, 70
10, 12096, Note_on_c, 9, 40, 124
10, 12096, Note_on_c, 9, 42, 96
10, 12097, Note_off_c, 9, 42, 96
10, 12097, Note_off_c, 9, 40, 124
10, 12144, Note_on_c, 9, 42, 62
10, 12145, Note_off_c, 9, 42, 62
10, 12192, Note_on_c, 9, 42, 86
10, 12193, Note_off_c, 9, 42, 86
10, 12240, Note_on_c, 9, 35, 124
10, 12240, Note_on_c, 9, 42, 68
10, 12241, Note_off_c, 9, 42, 68
10, 12241, Note_off_c, 9, 35, 124
10, 12288, Note_on_c, 9, 35, 124
10, 12288, Note_on_c, 9, 42, 98
10, 12289, Note_off_c, 9, 42, 98
10, 12289, Note_off_c, 9, 35, 124
10, 12336, Note_on_c, 9, 42, 70
10, 12337, Note_off_c, 9, 42, 70
10, 12384, Note_on_c, 9, 46, 87
10, 12385, Note_off_c, 9, 46, 87
10, 12480, Note_on_c, 9, 40, 124
10, 12480, Note_on_c, 9, 42, 96
10, 12481, Note_off_c, 9, 42, 96
10, 12481, Note_off_c, 9, 40, 124
10, 12528, Note_on_c, 9, 42, 66
10, 12529, Note_off_c, 9, 42, 66
10, 12576, Note_on_c, 9, 42, 84
10, 12577, Note_off_c, 9, 42, 84
10, 12624, Note_on_c, 9, 42, 66
10, 12625, Note_off_c, 9, 42, 66
10, 12672, Note_on_c, 9, 35, 124
10, 12672, Note_on_c, 9, 42, 96
10, 12673, Note_off_c, 9, 42, 96
10, 12673, Note_off_c, 9, 35, 124
10, 12720, Note_on_c, 9, 42, 66
10, 12721, Note_off_c, 9, 42, 66
10, 12768, Note_on_c, 9, 42, 76
10, 12769, Note_off_c, 9, 42, 76
10, 12816, Note_on_c, 9, 42, 68
10, 12817, Note_off_c, 9, 42, 68
10, 12864, Note_on_c, 9, 40, 124
10, 12864, Note_on_c, 9, 42, 96
10, 12865, Note_off_c, 9, 42, 96
10, 12865, Note_off_c, 9, 40, 124
10, 12912, Note_on_c, 9, 42, 50
10, 12913, Note_off_c, 9, 42, 50
10, 12960, Note_on_c, 9, 42, 78
10, 12961, Note_off_c, 9, 42, 78
10, 13008, Note_on_c, 9, 35, 124
10, 13008, Note_on_c, 9, 42, 68
10, 13009, Note_off_c, 9, 42, 68
10, 13009, Note_off_c, 9, 35, 124
10, 13056, Note_on_c, 9, 35, 124
10, 13056, Note_on_c, 9, 42, 96
10, 13057, Note_off_c, 9, 42, 96
10, 13057, Note_off_c, 9, 35, 124
10, 13104, Note_on_c, 9, 42, 72
10, 13105, Note_off_c, 9, 42, 72
10, 13152, Note_on_c, 9, 46, 89
10, 13153, Note_off_c, 9, 46, 89
10, 13248, Note_on_c, 9, 40, 124
10, 13248, Note_on_c, 9, 42, 96
10, 13249, Note_off_c, 9, 42, 96
10, 13249, Note_off_c, 9, 40, 124
10, 13296, Note_on_c, 9, 42, 68
10, 13297, Note_off_c, 9, 42, 68
10, 13344, Note_on_c, 9, 42, 70
10, 13345, Note_off_c, 9, 42, 70
10, 13392, Note_on_c, 9, 42, 70
10, 13393, Note_off_c, 9, 42, 70
10, 13440, Note_on_c, 9, 35, 124
10, 13440, Note_on_c, 9, 42, 96
10, 13441, Note_off_c, 9, 42, 96
10, 13441, Note_off_c, 9, 35, 124
10, 13488, Note_on_c, 9, 42, 76
10, 13489, Note_off_c, 9, 42, 76
10, 13536, Note_on_c, 9, 42, 78
10, 13537, Note_off_c, 9, 42, 78
10, 13584, Note_on_c, 9, 42, 72
10, 13585, Note_off_c, 9, 42, 72
10, 13632, Note_on_c, 9, 40, 124
10, 13632, Note_on_c, 9, 42, 100
10, 13633, Note_off_c, 9, 42, 100
10, 13633, Note_off_c, 9, 40, 124
10, 13680, Note_on_c, 9, 42, 88
10, 13681, Note_off_c, 9, 42, 88
10, 13728, Note_on_c, 9, 42, 94
10, 13729, Note_off_c, 9, 42, 94
10, 13776, Note_on_c, 9, 35, 124
10, 13776, Note_on_c, 9, 42, 72
10, 13777, Note_off_c, 9, 42, 72
10, 13777, Note_off_c, 9, 35, 124
10, 13824, Note_on_c, 9, 35, 124
10, 13824, Note_on_c, 9, 42, 94
10, 13825, Note_off_c, 9, 42, 94
10, 13825, Note_off_c, 9, 35, 124
10, 13872, Note_on_c, 9, 42, 82
10, 13873, Note_off_c, 9, 42, 82
10, 13920, Note_on_c, 9, 46, 87
10, 13921, Note_off_c, 9, 46, 87
10, 14016, Note_on_c, 9, 40, 124
10, 14016, Note_on_c, 9, 42, 96
10, 14017, Note_off_c, 9, 42, 96
10, 14017, Note_off_c, 9, 40, 124
10, 14064, Note_on_c, 9, 42, 66
10, 14065, Note_off_c, 9, 42, 66
10, 14112, Note_on_c, 9, 42, 86
10, 14113, Note_off_c, 9, 42, 86
10, 14160, Note_on_c, 9, 42, 74
10, 14161, Note_off_c, 9, 42, 74
10, 14208, Note_on_c, 9, 35, 124
10, 14208, Note_on_c, 9, 42, 98
10, 14209, Note_off_c, 9, 42, 98
10, 14209, Note_off_c, 9, 35, 124
10, 14256, Note_on_c, 9, 42, 58
10, 14257, Note_off_c, 9, 42, 58
10, 14304, Note_on_c, 9, 42, 72
10, 14305, Note_off_c, 9, 42, 72
10, 14352, Note_on_c, 9, 42, 70
10, 14353, Note_off_c, 9, 42, 70
10, 14400, Note_on_c, 9, 40, 124
10, 14400, Note_on_c, 9, 42, 100
10, 14401, Note_off_c, 9, 42, 100
10, 14401, Note_off_c, 9, 40, 124
10, 14448, Note_on_c, 9, 42, 64
10, 14449, Note_off_c, 9, 42, 64
10, 14496, Note_on_c, 9, 42, 88
10, 14497, Note_off_c, 9, 42, 88
10, 14544, Note_on_c, 9, 35, 124
10, 14544, Note_on_c, 9, 42, 66
10, 14545, Note_off_c, 9, 42, 66
10, 14545, Note_off_c, 9, 35, 124
10, 14592, Note_on_c, 9, 35, 124
10, 14592, Note_on_c, 9, 42, 94
10, 14593, Note_off_c, 9, 42, 94
10, 14593, Note_off_c, 9, 35, 124
10, 14640, Note_on_c, 9, 42, 82
10, 14641, Note_off_c, 9, 42, 82
10, 14688, Note_on_c, 9, 46, 87
10, 14689, Note_off_c, 9, 46, 87
10, 14784, Note_on_c, 9, 40, 124
10, 14784, Note_on_c, 9, 42, 94
10, 14785, Note_off_c, 9, 42, 94
10, 14785, Note_off_c, 9, 40, 124
10, 14832, Note_on_c, 9, 42, 70
10, 14833, Note_off_c, 9, 42, 70
10, 14880, Note_on_c, 9, 42, 78
10, 14881, Note_off_c, 9, 42, 78
10, 14928, Note_on_c, 9, 42, 72
10, 14929, Note_off_c, 9, 42, 72
10, 14976, Note_on_c, 9, 35, 124
10, 14976, Note_on_c, 9, 42, 98
10, 14977, Note_off_c, 9, 42, 98
10, 14977, Note_off_c, 9, 35, 124
10, 15024, Note_on_c, 9, 42, 66
10, 15025, Note_off_c, 9, 42, 66
10, 15072, Note_on_c, 9, 42, 86
10, 15073, Note_off_c, 9, 42, 86
10, 15120, Note_on_c, 9, 42, 70
10, 15121, Note_off_c, 9, 42, 70
10, 15168, Note_on_c, 9, 40, 124
10, 15168, Note_on_c, 9, 42, 96
10, 15169, Note_off_c, 9, 42, 96
10, 15169, Note_off_c, 9, 40, 124
10, 15216, Note_on_c, 9, 42, 62
10, 15217, Note_off_c, 9, 42, 62
10, 15264, Note_on_c, 9, 42, 86
10, 15265, Note_off_c, 9, 42, 86
10, 15312, Note_on_c, 9, 35, 124
10, 15312, Note_on_c, 9, 42, 68
10, 15313, Note_off_c, 9, 42, 68
10, 15313, Note_off_c, 9, 35, 124
10, 15360, Note_on_c, 9, 35, 124
10, 15360, Note_on_c, 9, 42, 98
10, 15361, Note_off_c, 9, 42, 98
10, 15361, Note_off_c, 9, 35, 124
10, 15408, Note_on_c, 9, 42, 70
10, 15409, Note_off_c, 9, 42, 70
10, 15456, Note_on_c, 9, 46, 87
10, 15457, Note_off_c, 9, 46, 87
10, 15552, Note_on_c, 9, 40, 124
10, 15552, Note_on_c, 9, 42, 96
10, 15553, Note_off_c, 9, 42, 96
10, 15553, Note_off_c, 9, 40, 124
10, 15600, Note_on_c, 9, 42, 66
10, 15601, Note_off_c, 9, 42, 66
10, 15648, Note_on_c, 9, 42, 84
10, 15649, Note_off_c, 9, 42, 84
10, 15696, Note_on_c, 9, 42, 66
10, 15697, Note_off_c, 9, 42, 66
10, 15744, Note_on_c, 9, 35, 124
10, 15744, Note_on_c, 9, 42, 96
10, 15745, Note_off_c, 9, 42, 96
10, 15745, Note_off_c, 9, 35, 124
10, 15792, Note_on_c, 9, 42, 66
10, 15793, Note_off_c, 9, 42, 66
10, 15840, Note_on_c, 9, 42, 76
10, 15841, Note_off_c, 9, 42, 76
10, 15888, Note_on_c, 9, 42, 68
10, 15889, Note_off_c, 9, 42, 68
10, 15936, Note_on_c, 9, 40, 124
10, 15936, Note_on_c, 9, 42, 96
10, 15937, Note_off_c, 9, 42, 96
10, 15937, Note_off_c, 9, 40, 124
10, 15984, Note_on_c, 9, 42, 50
10, 15985, Note_off_c, 9, 42, 50
10, 16032, Note_on_c, 9, 42, 78
10, 16033, Note_off_c, 9, 42, 78
10, 16080, Note_on_c, 9, 35, 124
10, 16080, Note_on_c, 9, 42, 68
10, 16081, Note_off_c, 9, 42, 68
10, 16081, Note_off_c, 9, 35, 124
10, 16128, Note_on_c, 9, 35, 124
10, 16128, Note_on_c, 9, 42, 96
10, 16129, Note_off_c, 9, 42, 96
10, 16129, Note_off_c, 9, 35, 124
10, 16176, Note_on_c, 9, 42, 72
10, 16177, Note_off_c, 9, 42, 72
10, 16224, Note_on_c, 9, 46, 89
10, 16225, Note_off_c, 9, 46, 89
10, 16320, Note_on_c, 9, 40, 124
10, 16320, Note_on_c, 9, 42, 96
10, 16321, Note_off_c, 9, 42, 96
10, 16321, Note_off_c, 9, 40, 124
10, 16368, Note_on_c, 9, 42, 68
10, 16369, Note_off_c, 9, 42, 68
10, 16416, Note_on_c, 9, 42, 70
10, 16417, Note_off_c, 9, 42, 70
10, 16464, Note_on_c, 9, 42, 70
10, 16465, Note_off_c, 9, 42, 70
10, 16512, Note_on_c, 9, 35, 124
10, 16512, Note_on_c, 9, 42, 96
10, 16513, Note_off_c, 9, 42, 96
10, 16513, Note_off_c, 9, 35, 124
10, 16560, Note_on_c, 9, 42, 76
10, 16561, Note_off_c, 9, 42, 76
10, 16608, Note_on_c, 9, 42, 78
10, 16609, Note_off_c, 9, 42, 78
10, 16656, Note_on_c, 9, 42, 72
10, 16657, Note_off_c, 9, 42, 72
10, 16704, Note_on_c, 9, 40, 124
10, 16704, Note_on_c, 9, 42, 100
10, 16705, Note_off_c, 9, 42, 100
10, 16705, Note_off_c, 9, 40, 124
10, 16752, Note_on_c, 9, 42, 88
10, 16753, Note_off_c, 9, 42, 88
10, 16800, Note_on_c, 9, 42, 94
10, 16801, Note_off_c, 9, 42, 94
10, 16848, Note_on_c, 9, 35, 124
10, 16848, Note_on_c, 9, 42, 72
10, 16849, Note_off_c, 9, 42, 72
10, 16849, Note_off_c, 9, 35, 124
10, 16896, Note_on_c, 9, 35, 124
10, 16896, Note_on_c, 9, 42, 94
10, 16897, Note_off_c, 9, 42, 94
10, 16897, Note_off_c, 9, 35, 124
10, 16944, Note_on_c, 9, 42, 82
10, 16945, Note_off_c, 9, 42, 82
10, 16992, Note_on_c, 9, 46, 87
10, 16993, Note_off_c, 9, 46, 87
10, 17088, Note_on_c, 9, 40, 124
10, 17088, Note_on_c, 9, 42, 96
10, 17089, Note_off_c, 9, 42, 96
10, 17089, Note_off_c, 9, 40, 124
10, 17136, Note_on_c, 9, 42, 66
10, 17137, Note_off_c, 9, 42, 66
10, 17184, Note_on_c, 9, 42, 86
10, 17185, Note_off_c, 9, 42, 86
10, 17232, Note_on_c, 9, 42, 74
10, 17233, Note_off_c, 9, 42, 74
10, 17280, Note_on_c, 9, 35, 124
10, 17280, Note_on_c, 9, 42, 98
10, 17281, Note_off_c, 9, 42, 98
10, 17281, Note_off_c, 9, 35, 124
10, 17328, Note_on_c, 9, 42, 58
10, 17329, Note_off_c, 9, 42, 58
10, 17376, Note_on_c, 9, 42, 72
10, 17377, Note_off_c, 9, 42, 72
10, 17424, Note_on_c, 9, 42, 70
10, 17425, Note_off_c, 9, 42, 70
10, 17472, Note_on_c, 9, 40, 124
10, 17472, Note_on_c, 9, 42, 100
10, 17473, Note_off_c, 9, 42, 100
10, 17473, Note_off_c, 9, 40, 124
10, 17520, Note_on_c, 9, 42, 64
10, 17521, Note_off_c, 9, 42, 64
10, 17568, Note_on_c, 9, 42, 88
10, 17569, Note_off_c, 9, 42, 88
10, 17616, Note_on_c, 9, 35, 124
10, 17616, Note_on_c, 9, 42, 66
10, 17617, Note_off_c, 9, 42, 66
10, 17617, Note_off_c, 9, 35, 124
10, 17664, Note_on_c, 9, 76, 84
10, 17664, Note_on_c, 9, 35, 124
10, 17664, Note_on_c, 9, 49, 86
10, 17665, Note_off_c, 9, 49, 86
10, 17665, Note_off_c, 9, 35, 124
10, 17704, Note_off_c, 9, 76, 84
10, 17712, Note_on_c, 9, 42, 82
10, 17713, Note_off_c, 9, 42, 82
10, 17760, Note_on_c, 9, 46, 87
10, 17761, Note_off_c, 9, 46, 87
10, 17856, Note_on_c, 9, 76, 84
10, 17856, Note_on_c, 9, 40, 124
10, 17856, Note_on_c, 9, 42, 94
10, 17857, Note_off_c, 9, 42, 94
10, 17857, Note_off_c, 9, 40, 124
10, 17897, Note_off_c, 9, 76, 84
10, 17904, Note_on_c, 9, 42, 70
10, 17905, Note_off_c, 9, 42, 70
10, 17952, Note_on_c, 9, 42, 78
10, 17953, Note_off_c, 9, 42, 78
10, 18000, Note_on_c, 9, 42, 72
10, 18001, Note_off_c, 9, 42, 72
10, 18048, Note_on_c, 9, 76, 84
10, 18048, Note_on_c, 9, 35, 124
10, 18048, Note_on_c, 9, 42, 98
10, 18049, Note_off_c, 9, 42, 98
10, 18049, Note_off_c, 9, 35, 124
10, 18088, Note_off_c, 9, 76, 84
10, 18096, Note_on_c, 9, 42, 66
10, 18097, Note_off_c, 9, 42, 66
10, 18144, Note_on_c, 9, 42, 86
10, 18145, Note_off_c, 9, 42, 86
10, 18192, Note_on_c, 9, 42, 70
10, 18193, Note_off_c, 9, 42, 70
10, 18240, Note_on_c, 9, 76, 84
10, 18240, Note_on_c, 9, 40, 124
10, 18240, Note_on_c, 9, 42, 96
10, 18241, Note_off_c, 9, 42, 96
10, 18241, Note_off_c, 9, 40, 124
10, 18278, Note_off_c, 9, 76, 84
10, 18288, Note_on_c, 9, 42, 62
10, 18289, Note_off_c, 9, 42, 62
10, 18336, Note_on_c, 9, 42, 86
10, 18337, Note_off_c, 9, 42, 86
10, 18384, Note_on_c, 9, 35, 124
10, 18384, Note_on_c, 9, 42, 68
10, 18385, Note_off_c, 9, 42, 68
10, 18385, Note_off_c, 9, 35, 124
10, 18432, Note_on_c, 9, 76, 84
10, 18432, Note_on_c, 9, 35, 124
10, 18432, Note_on_c, 9, 42, 98
10, 18433, Note_off_c, 9, 42, 98
10, 18433, Note_off_c, 9, 35, 124
10, 18476, Note_off_c, 9, 76, 84
10, 18480, Note_on_c, 9, 42, 70
10, 18481, Note_off_c, 9, 42, 70
10, 18528, Note_on_c, 9, 46, 87
10, 18529, Note_off_c, 9, 46, 87
10, 18624, Note_on_c, 9, 76, 84
10, 18624, Note_on_c, 9, 40, 124
10, 18624, Note_on_c, 9, 42, 96
10, 18625, Note_off_c, 9, 42, 96
10, 18625, Note_off_c, 9, 40, 124
10, 18663, Note_off_c, 9, 76, 84
10, 18672, Note_on_c, 9, 42, 66
10, 18673, Note_off_c, 9, 42, 66
10, 18720, Note_on_c, 9, 42, 84
10, 18721, Note_off_c, 9, 42, 84
10, 18768, Note_on_c, 9, 42, 66
10, 18769, Note_off_c, 9, 42, 66
10, 18816, Note_on_c, 9, 76, 84
10, 18816, Note_on_c, 9, 35, 124
10, 18816, Note_on_c, 9, 42, 96
10, 18817, Note_off_c, 9, 42, 96
10, 18817, Note_off_c, 9, 35, 124
10, 18851, Note_off_c, 9, 76, 84
10, 18864, Note_on_c, 9, 42, 66
10, 18865, Note_off_c, 9, 42, 66
10, 18912, Note_on_c, 9, 42, 76
10, 18913, Note_off_c, 9, 42, 76
10, 18960, Note_on_c, 9, 42, 68
10, 18961, Note_off_c, 9, 42, 68
10, 19008, Note_on_c, 9, 76, 84
10, 19008, Note_on_c, 9, 40, 124
10, 19008, Note_on_c, 9, 42, 96
10, 19009, Note_off_c, 9, 42, 96
10, 19009, Note_off_c, 9, 40, 124
10, 19045, Note_off_c, 9, 76, 84
10, 19056, Note_on_c, 9, 42, 50
10, 19057, Note_off_c, 9, 42, 50
10, 19104, Note_on_c, 9, 42, 78
10, 19105, Note_off_c, 9, 42, 78
10, 19152, Note_on_c, 9, 35, 124
10, 19152, Note_on_c, 9, 42, 68
10, 19153, Note_off_c, 9, 42, 68
10, 19153, Note_off_c, 9, 35, 124
10, 19200, Note_on_c, 9, 76, 84
10, 19200, Note_on_c, 9, 35, 124
10, 19200, Note_on_c, 9, 42, 96
10, 19201, Note_off_c, 9, 42, 96
10, 19201, Note_off_c, 9, 35, 124
10, 19236, Note_off_c, 9, 76, 84
10, 19248, Note_on_c, 9, 42, 72
10, 19249, Note_off_c, 9, 42, 72
10, 19296, Note_on_c, 9, 46, 89
10, 19297, Note_off_c, 9, 46, 89
10, 19392, Note_on_c, 9, 76, 84
10, 19392, Note_on_c, 9, 40, 124
10, 19392, Note_on_c, 9, 42, 96
10, 19393, Note_off_c, 9, 42, 96
10, 19393, Note_off_c, 9, 40, 124
10, 19425, Note_off_c, 9, 76, 84
10, 19440, Note_on_c, 9, 42, 68
10, 19441, Note_off_c, 9, 42, 68
10, 19488, Note_on_c, 9, 42, 70
10, 19489, Note_off_c, 9, 42, 70
10, 19536, Note_on_c, 9, 42, 70
10, 19537, Note_off_c, 9, 42, 70
10, 19584, Note_on_c, 9, 76, 84
10, 19584, Note_on_c, 9, 35, 124
10, 19584, Note_on_c, 9, 42, 96
10, 19585, Note_off_c, 9, 42, 96
10, 19585, Note_off_c, 9, 35, 124
10, 19617, Note_off_c, 9, 76, 84
10, 19632, Note_on_c, 9, 42, 76
10, 19633, Note_off_c, 9, 42, 76
10, 19680, Note_on_c, 9, 42, 78
10, 19681, Note_off_c, 9, 42, 78
10, 19728, Note_on_c, 9, 42, 72
10, 19729, Note_off_c, 9, 42, 72
10, 19776, Note_on_c, 9, 76, 84
10, 19776, Note_on_c, 9, 40, 124
10, 19776, Note_on_c, 9, 42, 100
10, 19777, Note_off_c, 9, 42, 100
10, 19777, Note_off_c, 9, 40, 124
10, 19809, Note_off_c, 9, 76, 84
10, 19824, Note_on_c, 9, 42, 88
10, 19825, Note_off_c, 9, 42, 88
10, 19872, Note_on_c, 9, 42, 94
10, 19873, Note_off_c, 9, 42, 94
10, 19920, Note_on_c, 9, 35, 124
10, 19920, Note_on_c, 9, 42, 72
10, 19921, Note_off_c, 9, 42, 72
10, 19921, Note_off_c, 9, 35, 124
10, 19968, Note_on_c, 9, 76, 84
10, 19968, Note_on_c, 9, 35, 124
10, 19968, Note_on_c, 9, 42, 94
10, 19969, Note_off_c, 9, 42, 94
10, 19969, Note_off_c, 9, 35, 124
10, 20002, Note_off_c, 9, 76, 84
10, 20016, Note_on_c, 9, 42, 82
10, 20017, Note_off_c, 9, 42, 82
10, 20064, Note_on_c, 9, 46, 87
10, 20065, Note_off_c, 9, 46, 87
10, 20160, Note_on_c, 9, 76, 84
10, 20160, Note_on_c, 9, 40, 124
10, 20160, Note_on_c, 9, 42, 96
10, 20161, Note_off_c, 9, 42, 96
10, 20161, Note_off_c, 9, 40, 124
10, 20193, Note_off_c, 9, 76, 84
10, 20208, Note_on_c, 9, 42, 66
10, 20209, Note_off_c, 9, 42, 66
10, 20256, Note_on_c, 9, 42, 86
10, 20257, Note_off_c, 9, 42, 86
10, 20304, Note_on_c, 9, 42, 74
10, 20305, Note_off_c, 9, 42, 74
10, 20352, Note_on_c, 9, 76, 84
10, 20352, Note_on_c, 9, 35, 124
10, 20352, Note_on_c, 9, 42, 98
10, 20353, Note_off_c, 9, 42, 98
10, 20353, Note_off_c, 9, 35, 124
10, 20384, Note_off_c, 9, 76, 84
10, 20400, Note_on_c, 9, 42, 58
10, 20401, Note_off_c, 9, 42, 58
10, 20448, Note_on_c, 9, 42, 72
10, 20449, Note_off_c, 9, 42, 72
10, 20496, Note_on_c, 9, 42, 70
10, 20497, Note_off_c, 9, 42, 70
10, 20544, Note_on_c, 9, 76, 84
10, 20544, Note_on_c, 9, 40, 124
10, 20544, Note_on_c, 9, 42, 100
10, 20545, Note_off_c, 9, 42, 100
10, 20545, Note_off_c, 9, 40, 124
10, 20574, Note_off_c, 9, 76, 84
10, 20592, Note_on_c, 9, 42, 64
10, 20593, Note_off_c, 9, 42, 64
10, 20640, Note_on_c, 9, 42, 88
10, 20641, Note_off_c, 9, 42, 88
10, 20688, Note_on_c, 9, 35, 124
10, 20688, Note_on_c, 9, 42, 66
10, 20689, Note_off_c, 9, 42, 66
10, 20689, Note_off_c, 9, 35, 124
10, 20736, Note_on_c, 9, 76, 84
10, 20736, Note_on_c, 9, 35, 124
10, 20736, Note_on_c, 9, 42, 94
10, 20737, Note_off_c, 9, 42, 94
10, 20737, Note_off_c, 9, 35, 124
10, 20770, Note_off_c, 9, 76, 84
10, 20784, Note_on_c, 9, 42, 82
10, 20785, Note_off_c, 9, 42, 82
10, 20832, Note_on_c, 9, 46, 87
10, 20833, Note_off_c, 9, 46, 87
10, 20928, Note_on_c, 9, 76, 84
10, 20928, Note_on_c, 9, 40, 124
10, 20928, Note_on_c, 9, 42, 94
10, 20929, Note_off_c, 9, 42, 94
10, 20929, Note_off_c, 9, 40, 124
10, 20960, Note_off_c, 9, 76, 84
10, 20976, Note_on_c, 9, 42, 70
10, 20977, Note_off_c, 9, 42, 70
10, 21024, Note_on_c, 9, 42, 78
10, 21025, Note_off_c, 9, 42, 78
10, 21072, Note_on_c, 9, 42, 72
10, 21073, Note_off_c, 9, 42, 72
10, 21120, Note_on_c, 9, 76, 84
10, 21120, Note_on_c, 9, 35, 124
10, 21120, Note_on_c, 9, 42, 98
10, 21121, Note_off_c, 9, 42, 98
10, 21121, Note_off_c, 9, 35, 124
10, 21150, Note_off_c, 9, 76, 84
10, 21168, Note_on_c, 9, 42, 66
10, 21169, Note_off_c, 9, 42, 66
10, 21216, Note_on_c, 9, 42, 86
10, 21217, Note_off_c, 9, 42, 86
10, 21264, Note_on_c, 9, 42, 70
10, 21265, Note_off_c, 9, 42, 70
10, 21312, Note_on_c, 9, 76, 84
10, 21312, Note_on_c, 9, 40, 124
10, 21312, Note_on_c, 9, 42, 96
10, 21313, Note_off_c, 9, 42, 96
10, 21313, Note_off_c, 9, 40, 124
10, 21345, Note_off_c, 9, 76, 84
10, 21360, Note_on_c, 9, 42, 62
10, 21361, Note_off_c, 9, 42, 62
10, 21408, Note_on_c, 9, 42, 86
10, 21409, Note_off_c, 9, 42, 86
10, 21456, Note_on_c, 9, 35, 124
10, 21456, Note_on_c, 9, 42, 68
10, 21457, Note_off_c, 9, 42, 68
10, 21457, Note_off_c, 9, 35, 124
10, 21504, Note_on_c, 9, 76, 84
10, 21504, Note_on_c, 9, 35, 124
10, 21504, Note_on_c, 9, 42, 98
10, 21505, Note_off_c, 9, 42, 98
10, 21505, Note_off_c, 9, 35, 124
10, 21538, Note_off_c, 9, 76, 84
10, 21552, Note_on_c, 9, 42, 70
10, 21553, Note_off_c, 9, 42, 70
10, 21600, Note_on_c, 9, 46, 87
10, 21601, Note_off_c, 9, 46, 87
10, 21696, Note_on_c, 9, 76, 84
10, 21696, Note_on_c, 9, 40, 124
10, 21696, Note_on_c, 9, 42, 96
10, 21697, Note_off_c, 9, 42, 96
10, 21697, Note_off_c, 9, 40, 124
10, 21728, Note_off_c, 9, 76, 84
10, 21744, Note_on_c, 9, 42, 66
10, 21745, Note_off_c, 9, 42, 66
10, 21792, Note_on_c, 9, 42, 84
10, 21793, Note_off_c, 9, 42, 84
10, 21840, Note_on_c, 9, 42, 66
10, 21841, Note_off_c, 9, 42, 66
10, 21888, Note_on_c, 9, 76, 84
10, 21888, Note_on_c, 9, 35, 124
10, 21888, Note_on_c, 9, 42, 96
10, 21889, Note_off_c, 9, 42, 96
10, 21889, Note_off_c, 9, 35, 124
10, 21917, Note_off_c, 9, 76, 84
10, 21936, Note_on_c, 9, 42, 66
10, 21937, Note_off_c, 9, 42, 66
10, 21984, Note_on_c, 9, 42, 76
10, 21985, Note_off_c, 9, 42, 76
10, 22032, Note_on_c, 9, 42, 68
10, 22033, Note_off_c, 9, 42, 68
10, 22080, Note_on_c, 9, 76, 84
10, 22080, Note_on_c, 9, 40, 124
10, 22080, Note_on_c, 9, 42, 96
10, 22081, Note_off_c, 9, 42, 96
10, 22081, Note_off_c, 9, 40, 124
10, 22110, Note_off_c, 9, 76, 84
10, 22128, Note_on_c, 9, 42, 50
10, 22129, Note_off_c, 9, 42, 50
10, 22176, Note_on_c, 9, 42, 78
10, 22177, Note_off_c, 9, 42, 78
10, 22224, Note_on_c, 9, 35, 124
10, 22224, Note_on_c, 9, 42, 68
10, 22225, Note_off_c, 9, 42, 68
10, 22225, Note_off_c, 9, 35, 124
10, 22272, Note_on_c, 9, 76, 84
10, 22272, Note_on_c, 9, 35, 124
10, 22272, Note_on_c, 9, 42, 96
10, 22273, Note_off_c, 9, 42, 96
10, 22273, Note_off_c, 9, 35, 124
10, 22303, Note_off_c, 9, 76, 84
10, 22320, Note_on_c, 9, 42, 72
10, 22321, Note_off_c, 9, 42, 72
10, 22368, Note_on_c, 9, 46, 89
10, 22369, Note_off_c, 9, 46, 89
10, 22464, Note_on_c, 9, 76, 84
10, 22464, Note_on_c, 9, 40, 124
10, 22464, Note_on_c, 9, 42, 96
10, 22465, Note_off_c, 9, 42, 96
10, 22465, Note_off_c, 9, 40, 124
10, 22492, Note_off_c, 9, 76, 84
10, 22512, Note_on_c, 9, 42, 68
10, 22513, Note_off_c, 9, 42, 68
10, 22560, Note_on_c, 9, 42, 70
10, 22561, Note_off_c, 9, 42, 70
10, 22608, Note_on_c, 9, 42, 70
10, 22609, Note_off_c, 9, 42, 70
10, 22656, Note_on_c, 9, 76, 84
10, 22656, Note_on_c, 9, 35, 124
10, 22656, Note_on_c, 9, 42, 96
10, 22657, Note_off_c, 9, 42, 96
10, 22657, Note_off_c, 9, 35, 124
10, 22683, Note_off_c, 9, 76, 84
10, 22704, Note_on_c, 9, 42, 76
10, 22705, Note_off_c, 9, 42, 76
10, 22752, Note_on_c, 9, 42, 78
10, 22753, Note_off_c, 9, 42, 78
10, 22800, Note_on_c, 9, 42, 72
10, 22801, Note_off_c, 9, 42, 72
10, 22848, Note_on_c, 9, 76, 84
10, 22848, Note_on_c, 9, 40, 124
10, 22848, Note_on_c, 9, 42, 100
10, 22849, Note_off_c, 9, 42, 100
10, 22849, Note_off_c, 9, 40, 124
10, 22877, Note_off_c, 9, 76, 84
10, 22896, Note_on_c, 9, 42, 88
10, 22897, Note_off_c, 9, 42, 88
10, 22944, Note_on_c, 9, 42, 94
10, 22945, Note_off_c, 9, 42, 94
10, 22992, Note_on_c, 9, 35, 124
10, 22992, Note_on_c, 9, 42, 72
10, 22993, Note_off_c, 9, 42, 72
10, 22993, Note_off_c, 9, 35, 124
10, 23040, Note_on_c, 9, 76, 84
10, 23040, Note_on_c, 9, 35, 124
10, 23040, Note_on_c, 9, 42, 96
10, 23041, Note_off_c, 9, 42, 96
10, 23041, Note_off_c, 9, 35, 124
10, 23064, Note_off_c, 9, 76, 84
10, 23088, Note_on_c, 9, 42, 72
10, 23089, Note_off_c, 9, 42, 72
10, 23136, Note_on_c, 9, 46, 89
10, 23137, Note_off_c, 9, 46, 89
10, 23232, Note_on_c, 9, 76, 84
10, 23232, Note_on_c, 9, 40, 124
10, 23232, Note_on_c, 9, 42, 96
10, 23233, Note_off_c, 9, 42, 96
10, 23233, Note_off_c, 9, 40, 124
10, 23258, Note_off_c, 9, 76, 84
10, 23280, Note_on_c, 9, 42, 68
10, 23281, Note_off_c, 9, 42, 68
10, 23328, Note_on_c, 9, 42, 70
10, 23329, Note_off_c, 9, 42, 70
10, 23376, Note_on_c, 9, 42, 70
10, 23377, Note_off_c, 9, 42, 70
10, 23424, Note_on_c, 9, 76, 84
10, 23424, Note_on_c, 9, 35, 124
10, 23424, Note_on_c, 9, 42, 96
10, 23425, Note_off_c, 9, 42, 96
10, 23425, Note_off_c, 9, 35, 124
10, 23450, Note_off_c, 9, 76, 84
10, 23472, Note_on_c, 9, 42, 76
10, 23473, Note_off_c, 9, 42, 76
10, 23520, Note_on_c, 9, 42, 78
10, 23521, Note_off_c, 9, 42, 78
10, 23568, Note_on_c, 9, 42, 72
10, 23569, Note_off_c, 9, 42, 72
10, 23616, Note_on_c, 9, 76, 84
10, 23616, Note_on_c, 9, 40, 111
10, 23616, Note_on_c, 9, 42, 100
10, 23617, Note_off_c, 9, 42, 100
10, 23617, Note_off_c, 9, 40, 111
10, 23646, Note_off_c, 9, 76, 84
10, 23664, Note_on_c, 9, 42, 88
10, 23665, Note_off_c, 9, 42, 88
10, 23712, Note_on_c, 9, 42, 94
10, 23712, Note_on_c, 9, 45, 100
10, 23713, Note_off_c, 9, 45, 100
10, 23713, Note_off_c, 9, 42, 94
10, 23760, Note_on_c, 9, 35, 124
10, 23760, Note_on_c, 9, 42, 72
10, 23760, Note_on_c, 9, 43, 111
10, 23761, Note_off_c, 9, 43, 111
10, 23761, Note_off_c, 9, 42, 72
10, 23761, Note_off_c, 9, 35, 124
10, 23808, Note_on_c, 9, 35, 124
10, 23808, Note_on_c, 9, 57, 75
10, 23809, Note_off_c, 9, 57, 75
10, 23809, Note_off_c, 9, 35, 124
10, 23904, Note_on_c, 9, 42, 97
10, 23905, Note_off_c, 9, 42, 97
10, 23952, Note_on_c, 9, 42, 61
10, 23953, Note_off_c, 9, 42, 61
10, 24000, Note_on_c, 9, 40, 124
10, 24000, Note_on_c, 9, 42, 96
10, 24001, Note_off_c, 9, 42, 96
10, 24001, Note_off_c, 9, 40, 124
10, 24048, Note_on_c, 9, 42, 66
10, 24049, Note_off_c, 9, 42, 66
10, 24096, Note_on_c, 9, 42, 86
10, 24097, Note_off_c, 9, 42, 86
10, 24144, Note_on_c, 9, 42, 74
10, 24145, Note_off_c, 9, 42, 74
10, 24192, Note_on_c, 9, 35, 124
10, 24192, Note_on_c, 9, 42, 98
10, 24193, Note_off_c, 9, 42, 98
10, 24193, Note_off_c, 9, 35, 124
10, 24240, Note_on_c, 9, 42, 58
10, 24241, Note_off_c, 9, 42, 58
10, 24288, Note_on_c, 9, 42, 72
10, 24289, Note_off_c, 9, 42, 72
10, 24336, Note_on_c, 9, 42, 70
10, 24337, Note_off_c, 9, 42, 70
10, 24384, Note_on_c, 9, 40, 124
10, 24384, Note_on_c, 9, 42, 100
10, 24385, Note_off_c, 9, 42, 100
10, 24385, Note_off_c, 9, 40, 124
10, 24432, Note_on_c, 9, 42, 64
10, 24433, Note_off_c, 9, 42, 64
10, 24480, Note_on_c, 9, 42, 88
10, 24481, Note_off_c, 9, 42, 88
10, 24528, Note_on_c, 9, 35, 124
10, 24528, Note_on_c, 9, 42, 66
10, 24529, Note_off_c, 9, 42, 66
10, 24529, Note_off_c, 9, 35, 124
10, 24576, Note_on_c, 9, 35, 124
10, 24576, Note_on_c, 9, 42, 94
10, 24577, Note_off_c, 9, 42, 94
10, 24577, Note_off_c, 9, 35, 124
10, 24624, Note_on_c, 9, 42, 82
10, 24625, Note_off_c, 9, 42, 82
10, 24672, Note_on_c, 9, 46, 87
10, 24673, Note_off_c, 9, 46, 87
10, 24768, Note_on_c, 9, 40, 124
10, 24768, Note_on_c, 9, 42, 94
10, 24769, Note_off_c, 9, 42, 94
10, 24769, Note_off_c, 9, 40, 124
10, 24816, Note_on_c, 9, 42, 70
10, 24817, Note_off_c, 9, 42, 70
10, 24864, Note_on_c, 9, 42, 78
10, 24865, Note_off_c, 9, 42, 78
10, 24912, Note_on_c, 9, 42, 72
10, 24913, Note_off_c, 9, 42, 72
10, 24960, Note_on_c, 9, 35, 124
10, 24960, Note_on_c, 9, 42, 98
10, 24961, Note_off_c, 9, 42, 98
10, 24961, Note_off_c, 9, 35, 124
10, 25008, Note_on_c, 9, 42, 66
10, 25009, Note_off_c, 9, 42, 66
10, 25056, Note_on_c, 9, 42, 86
10, 25057, Note_off_c, 9, 42, 86
10, 25104, Note_on_c, 9, 42, 70
10, 25105, Note_off_c, 9, 42, 70
10, 25152, Note_on_c, 9, 40, 124
10, 25152, Note_on_c, 9, 42, 96
10, 25153, Note_off_c, 9, 42, 96
10, 25153, Note_off_c, 9, 40, 124
10, 25200, Note_on_c, 9, 42, 62
10, 25201, Note_off_c, 9, 42, 62
10, 25248, Note_on_c, 9, 42, 86
10, 25249, Note_off_c, 9, 42, 86
10, 25296, Note_on_c, 9, 35, 124
10, 25296, Note_on_c, 9, 42, 68
10, 25297, Note_off_c, 9, 42, 68
10, 25297, Note_off_c, 9, 35, 124
10, 25344, Note_on_c, 9, 35, 124
10, 25344, Note_on_c, 9, 42, 98
10, 25345, Note_off_c, 9, 42, 98
10, 25345, Note_off_c, 9, 35, 124
10, 25392, Note_on_c, 9, 42, 70
10, 25393, Note_off_c, 9, 42, 70
10, 25440, Note_on_c, 9, 46, 87
10, 25441, Note_off_c, 9, 46, 87
10, 25536, Note_on_c, 9, 40, 124
10, 25536, Note_on_c, 9, 42, 96
10, 25537, Note_off_c, 9, 42, 96
10, 25537, Note_off_c, 9, 40, 124
10, 25584, Note_on_c, 9, 42, 66
10, 25585, Note_off_c, 9, 42, 66
10, 25632, Note_on_c, 9, 42, 84
10, 25633, Note_off_c, 9, 42, 84
10, 25680, Note_on_c, 9, 42, 66
10, 25681, Note_off_c, 9, 42, 66
10, 25728, Note_on_c, 9, 35, 124
10, 25728, Note_on_c, 9, 42, 96
10, 25729, Note_off_c, 9, 42, 96
10, 25729, Note_off_c, 9, 35, 124
10, 25776, Note_on_c, 9, 42, 66
10, 25777, Note_off_c, 9, 42, 66
10, 25824, Note_on_c, 9, 42, 76
10, 25825, Note_off_c, 9, 42, 76
10, 25872, Note_on_c, 9, 42, 68
10, 25873, Note_off_c, 9, 42, 68
10, 25920, Note_on_c, 9, 40, 124
10, 25920, Note_on_c, 9, 42, 96
10, 25921, Note_off_c, 9, 42, 96
10, 25921, Note_off_c, 9, 40, 124
10, 25968, Note_on_c, 9, 42, 50
10, 25969, Note_off_c, 9, 42, 50
10, 26016, Note_on_c, 9, 42, 78
10, 26017, Note_off_c, 9, 42, 78
10, 26064, Note_on_c, 9, 35, 124
10, 26064, Note_on_c, 9, 42, 68
10, 26065, Note_off_c, 9, 42, 68
10, 26065, Note_off_c, 9, 35, 124
10, 26112, Note_on_c, 9, 35, 124
10, 26112, Note_on_c, 9, 42, 96
10, 26113, Note_off_c, 9, 42, 96
10, 26113, Note_off_c, 9, 35, 124
10, 26160, Note_on_c, 9, 42, 72
10, 26161, Note_off_c, 9, 42, 72
10, 26208, Note_on_c, 9, 46, 89
10, 26209, Note_off_c, 9, 46, 89
10, 26304, Note_on_c, 9, 40, 124
10, 26304, Note_on_c, 9, 42, 96
10, 26305, Note_off_c, 9, 42, 96
10, 26305, Note_off_c, 9, 40, 124
10, 26352, Note_on_c, 9, 42, 68
10, 26353, Note_off_c, 9, 42, 68
10, 26400, Note_on_c, 9, 42, 70
10, 26401, Note_off_c, 9, 42, 70
10, 26448, Note_on_c, 9, 42, 70
10, 26449, Note_off_c, 9, 42, 70
10, 26496, Note_on_c, 9, 35, 124
10, 26496, Note_on_c, 9, 42, 96
10, 26497, Note_off_c, 9, 42, 96
10, 26497, Note_off_c, 9, 35, 124
10, 26544, Note_on_c, 9, 42, 76
10, 26545, Note_off_c, 9, 42, 76
10, 26592, Note_on_c, 9, 42, 78
10, 26593, Note_off_c, 9, 42, 78
10, 26640, Note_on_c, 9, 42, 72
10, 26641, Note_off_c, 9, 42, 72
10, 26688, Note_on_c, 9, 40, 124
10, 26688, Note_on_c, 9, 42, 100
10, 26689, Note_off_c, 9, 42, 100
10, 26689, Note_off_c, 9, 40, 124
10, 26736, Note_on_c, 9, 42, 88
10, 26737, Note_off_c, 9, 42, 88
10, 26784, Note_on_c, 9, 42, 94
10, 26785, Note_off_c, 9, 42, 94
10, 26832, Note_on_c, 9, 35, 124
10, 26832, Note_on_c, 9, 42, 72
10, 26833, Note_off_c, 9, 42, 72
10, 26833, Note_off_c, 9, 35, 124
10, 26880, Note_on_c, 9, 35, 124
10, 26880, Note_on_c, 9, 42, 94
10, 26881, Note_off_c, 9, 42, 94
10, 26881, Note_off_c, 9, 35, 124
10, 26928, Note_on_c, 9, 42, 82
10, 26929, Note_off_c, 9, 42, 82
10, 26976, Note_on_c, 9, 46, 87
10, 26977, Note_off_c, 9, 46, 87
10, 27072, Note_on_c, 9, 40, 124
10, 27072, Note_on_c, 9, 42, 96
10, 27073, Note_off_c, 9, 42, 96
10, 27073, Note_off_c, 9, 40, 124
10, 27120, Note_on_c, 9, 42, 66
10, 27121, Note_off_c, 9, 42, 66
10, 27168, Note_on_c, 9, 42, 86
10, 27169, Note_off_c, 9, 42, 86
10, 27216, Note_on_c, 9, 42, 74
10, 27217, Note_off_c, 9, 42, 74
10, 27264, Note_on_c, 9, 35, 124
10, 27264, Note_on_c, 9, 42, 98
10, 27265, Note_off_c, 9, 42, 98
10, 27265, Note_off_c, 9, 35, 124
10, 27312, Note_on_c, 9, 42, 58
10, 27313, Note_off_c, 9, 42, 58
10, 27360, Note_on_c, 9, 42, 72
10, 27361, Note_off_c, 9, 42, 72
10, 27408, Note_on_c, 9, 42, 70
10, 27409, Note_off_c, 9, 42, 70
10, 27456, Note_on_c, 9, 40, 124
10, 27456, Note_on_c, 9, 42, 100
10, 27457, Note_off_c, 9, 42, 100
10, 27457, Note_off_c, 9, 40, 124
10, 27504, Note_on_c, 9, 42, 64
10, 27505, Note_off_c, 9, 42, 64
10, 27552, Note_on_c, 9, 42, 88
10, 27553, Note_off_c, 9, 42, 88
10, 27600, Note_on_c, 9, 35, 124
10, 27600, Note_on_c, 9, 42, 66
10, 27601, Note_off_c, 9, 42, 66
10, 27601, Note_off_c, 9, 35, 124
10, 27648, Note_on_c, 9, 35, 124
10, 27648, Note_on_c, 9, 42, 94
10, 27649, Note_off_c, 9, 42, 94
10, 27649, Note_off_c, 9, 35, 124
10, 27696, Note_on_c, 9, 42, 82
10, 27697, Note_off_c, 9, 42, 82
10, 27744, Note_on_c, 9, 46, 87
10, 27745, Note_off_c, 9, 46, 87
10, 27840, Note_on_c, 9, 40, 124
10, 27840, Note_on_c, 9, 42, 94
10, 27841, Note_off_c, 9, 42, 94
10, 27841, Note_off_c, 9, 40, 124
10, 27888, Note_on_c, 9, 42, 70
10, 27889, Note_off_c, 9, 42, 70
10, 27936, Note_on_c, 9, 42, 78
10, 27937, Note_off_c, 9, 42, 78
10, 27984, Note_on_c, 9, 42, 72
10, 27985, Note_off_c, 9, 42, 72
10, 28032, Note_on_c, 9, 35, 124
10, 28032, Note_on_c, 9, 42, 98
10, 28033, Note_off_c, 9, 42, 98
10, 28033, Note_off_c, 9, 35, 124
10, 28080, Note_on_c, 9, 42, 66
10, 28081, Note_off_c, 9, 42, 66
10, 28128, Note_on_c, 9, 42, 86
10, 28129, Note_off_c, 9, 42, 86
10, 28176, Note_on_c, 9, 42, 70
10, 28177, Note_off_c, 9, 42, 70
10, 28224, Note_on_c, 9, 40, 124
10, 28224, Note_on_c, 9, 42, 96
10, 28225, Note_off_c, 9, 42, 96
10, 28225, Note_off_c, 9, 40, 124
10, 28272, Note_on_c, 9, 42, 62
10, 28273, Note_off_c, 9, 42, 62
10, 28320, Note_on_c, 9, 42, 86
10, 28321, Note_off_c, 9, 42, 86
10, 28368, Note_on_c, 9, 35, 124
10, 28368, Note_on_c, 9, 42, 68
10, 28369, Note_off_c, 9, 42, 68
10, 28369, Note_off_c, 9, 35, 124
10, 28416, Note_on_c, 9, 35, 124
10, 28416, Note_on_c, 9, 42, 98
10, 28417, Note_off_c, 9, 42, 98
10, 28417, Note_off_c, 9, 35, 124
10, 28464, Note_on_c, 9, 42, 70
10, 28465, Note_off_c, 9, 42, 70
10, 28512, Note_on_c, 9, 46, 87
10, 28513, Note_off_c, 9, 46, 87
10, 28608, Note_on_c, 9, 40, 124
10, 28608, Note_on_c, 9, 42, 96
10, 28609, Note_off_c, 9, 42, 96
10, 28609, Note_off_c, 9, 40, 124
10, 28656, Note_on_c, 9, 42, 66
10, 28657, Note_off_c, 9, 42, 66
10, 28704, Note_on_c, 9, 42, 84
10, 28705, Note_off_c, 9, 42, 84
10, 28752, Note_on_c, 9, 42, 66
10, 28753, Note_off_c, 9, 42, 66
10, 28800, Note_on_c, 9, 35, 124
10, 28800, Note_on_c, 9, 42, 96
10, 28801, Note_off_c, 9, 42, 96
10, 28801, Note_off_c, 9, 35, 124
10, 28848, Note_on_c, 9, 42, 66
10, 28849, Note_off_c, 9, 42, 66
10, 28896, Note_on_c, 9, 42, 76
10, 28897, Note_off_c, 9, 42, 76
10, 28944, Note_on_c, 9, 42, 68
10, 28945, Note_off_c, 9, 42, 68
10, 28992, Note_on_c, 9, 40, 124
10, 28992, Note_on_c, 9, 42, 96
10, 28993, Note_off_c, 9, 42, 96
10, 28993, Note_off_c, 9, 40, 124
10, 29040, Note_on_c, 9, 42, 50
10, 29041, Note_off_c, 9, 42, 50
10, 29088, Note_on_c, 9, 42, 78
10, 29089, Note_off_c, 9, 42, 78
10, 29136, Note_on_c, 9, 35, 124
10, 29136, Note_on_c, 9, 42, 68
10, 29137, Note_off_c, 9, 42, 68
10, 29137, Note_off_c, 9, 35, 124
10, 29184, Note_on_c, 9, 35, 124
10, 29184, Note_on_c, 9, 42, 96
10, 29185, Note_off_c, 9, 42, 96
10, 29185, Note_off_c, 9, 35, 124
10, 29232, Note_on_c, 9, 42, 72
10, 29233, Note_off_c, 9, 42, 72
10, 29280, Note_on_c, 9, 46, 89
10, 29281, Note_off_c, 9, 46, 89
10, 29376, Note_on_c, 9, 40, 124
10, 29376, Note_on_c, 9, 42, 96
10, 29377, Note_off_c, 9, 42, 96
10, 29377, Note_off_c, 9, 40, 124
10, 29424, Note_on_c, 9, 42, 68
10, 29425, Note_off_c, 9, 42, 68
10, 29472, Note_on_c, 9, 42, 70
10, 29473, Note_off_c, 9, 42, 70
10, 29520, Note_on_c, 9, 42, 70
10, 29521, Note_off_c, 9, 42, 70
10, 29568, Note_on_c, 9, 35, 124
10, 29568, Note_on_c, 9, 42, 96
10, 29569, Note_off_c, 9, 42, 96
10, 29569, Note_off_c, 9, 35, 124
10, 29616, Note_on_c, 9, 42, 76
10, 29617, Note_off_c, 9, 42, 76
10, 29664, Note_on_c, 9, 42, 78
10, 29665, Note_off_c, 9, 42, 78
10, 29712, Note_on_c, 9, 42, 72
10, 29713, Note_off_c, 9, 42, 72
10, 29760, Note_on_c, 9, 40, 124
10, 29760, Note_on_c, 9, 42, 100
10, 29761, Note_off_c, 9, 42, 100
10, 29761, Note_off_c, 9, 40, 124
10, 29808, Note_on_c, 9, 42, 88
10, 29809, Note_off_c, 9, 42, 88
10, 29856, Note_on_c, 9, 42, 94
10, 29857, Note_off_c, 9, 42, 94
10, 29904, Note_on_c, 9, 35, 124
10, 29904, Note_on_c, 9, 42, 72
10, 29905, Note_off_c, 9, 42, 72
10, 29905, Note_off_c, 9, 35, 124
10, 29952, Note_on_c, 9, 35, 124
10, 29952, Note_on_c, 9, 42, 94
10, 29953, Note_off_c, 9, 42, 94
10, 29953, Note_off_c, 9, 35, 124
10, 30000, Note_on_c, 9, 42, 82
10, 30001, Note_off_c, 9, 42, 82
10, 30048, Note_on_c, 9, 46, 87
10, 30049, Note_off_c, 9, 46, 87
10, 30144, Note_on_c, 9, 40, 124
10, 30144, Note_on_c, 9, 42, 96
10, 30145, Note_off_c, 9, 42, 96
10, 30145, Note_off_c, 9, 40, 124
10, 30192, Note_on_c, 9, 42, 66
10, 30193, Note_off_c, 9, 42, 66
10, 30240, Note_on_c, 9, 42, 86
10, 30241, Note_off_c, 9, 42, 86
10, 30288, Note_on_c, 9, 42, 74
10, 30289, Note_off_c, 9, 42, 74
10, 30336, Note_on_c, 9, 35, 124
10, 30336, Note_on_c, 9, 42, 98
10, 30337, Note_off_c, 9, 42, 98
10, 30337, Note_off_c, 9, 35, 124
10, 30384, Note_on_c, 9, 42, 58
10, 30385, Note_off_c, 9, 42, 58
10, 30432, Note_on_c, 9, 42, 72
10, 30433, Note_off_c, 9, 42, 72
10, 30480, Note_on_c, 9, 42, 70
10, 30481, Note_off_c, 9, 42, 70
10, 30528, Note_on_c, 9, 40, 124
10, 30528, Note_on_c, 9, 42, 100
10, 30529, Note_off_c, 9, 42, 100
10, 30529, Note_off_c, 9, 40, 124
10, 30576, Note_on_c, 9, 42, 64
10, 30577, Note_off_c, 9, 42, 64
10, 30624, Note_on_c, 9, 42, 88
10, 30625, Note_off_c, 9, 42, 88
10, 30672, Note_on_c, 9, 35, 124
10, 30672, Note_on_c, 9, 42, 66
10, 30673, Note_off_c, 9, 42, 66
10, 30673, Note_off_c, 9, 35, 124
10, 30720, Note_on_c, 9, 76, 84
10, 30720, Note_on_c, 9, 35, 124
10, 30720, Note_on_c, 9, 49, 86
10, 30720, Note_on_c, 9, 54, 68
10, 30721, Note_off_c, 9, 49, 86
10, 30721, Note_off_c, 9, 35, 124
10, 30753, Note_off_c, 9, 54, 68
10, 30760, Note_off_c, 9, 76, 84
10, 30768, Note_on_c, 9, 42, 82
10, 30769, Note_off_c, 9, 42, 82
10, 30816, Note_on_c, 9, 46, 87
10, 30816, Note_on_c, 9, 54, 34
10, 30817, Note_off_c, 9, 46, 87
10, 30842, Note_off_c, 9, 54, 34
10, 30864, Note_on_c, 9, 54, 34
10, 30883, Note_off_c, 9, 54, 34
10, 30912, Note_on_c, 9, 76, 84
10, 30912, Note_on_c, 9, 40, 124
10, 30912, Note_on_c, 9, 42, 94
10, 30912, Note_on_c, 9, 54, 68
10, 30913, Note_off_c, 9, 42, 94
10, 30913, Note_off_c, 9, 40, 124
10, 30943, Note_off_c, 9, 54, 68
10, 30953, Note_off_c, 9, 76, 84
10, 30960, Note_on_c, 9, 42, 70
10, 30961, Note_off_c, 9, 42, 70
10, 31008, Note_on_c, 9, 42, 78
10, 31008, Note_on_c, 9, 54, 54
10, 31009, Note_off_c, 9, 42, 78
10, 31030, Note_off_c, 9, 54, 54
10, 31056, Note_on_c, 9, 42, 72
10, 31056, Note_on_c, 9, 54, 54
10, 31057, Note_off_c, 9, 42, 72
10, 31075, Note_off_c, 9, 54, 54
10, 31104, Note_on_c, 9, 76, 84
10, 31104, Note_on_c, 9, 35, 124
10, 31104, Note_on_c, 9, 42, 98
10, 31104, Note_on_c, 9, 54, 68
10, 31105, Note_off_c, 9, 42, 98
10, 31105, Note_off_c, 9, 35, 124
10, 31135, Note_off_c, 9, 54, 68
10, 31144, Note_off_c, 9, 76, 84
10, 31152, Note_on_c, 9, 42, 66
10, 31153, Note_off_c, 9, 42, 66
10, 31200, Note_on_c, 9, 42, 86
10, 31200, Note_on_c, 9, 54, 58
10, 31201, Note_off_c, 9, 42, 86
10, 31221, Note_off_c, 9, 54, 58
10, 31248, Note_on_c, 9, 42, 70
10, 31248, Note_on_c, 9, 54, 42
10, 31249, Note_off_c, 9, 42, 70
10, 31269, Note_off_c, 9, 54, 42
10, 31296, Note_on_c, 9, 76, 84
10, 31296, Note_on_c, 9, 40, 124
10, 31296, Note_on_c, 9, 42, 96
10, 31296, Note_on_c, 9, 54, 72
10, 31297, Note_off_c, 9, 42, 96
10, 31297, Note_off_c, 9, 40, 124
10, 31328, Note_off_c, 9, 54, 72
10, 31334, Note_off_c, 9, 76, 84
10, 31344, Note_on_c, 9, 42, 62
10, 31345, Note_off_c, 9, 42, 62
10, 31392, Note_on_c, 9, 42, 86
10, 31392, Note_on_c, 9, 54, 66
10, 31393, Note_off_c, 9, 42, 86
10, 31413, Note_off_c, 9, 54, 66
10, 31440, Note_on_c, 9, 35, 124
10, 31440, Note_on_c, 9, 42, 68
10, 31440, Note_on_c, 9, 54, 42
10, 31441, Note_off_c, 9, 42, 68
10, 31441, Note_off_c, 9, 35, 124
10, 31457, Note_off_c, 9, 54, 42
10, 31488, Note_on_c, 9, 76, 84
10, 31488, Note_on_c, 9, 35, 124
10, 31488, Note_on_c, 9, 42, 98
10, 31488, Note_on_c, 9, 54, 72
10, 31489, Note_off_c, 9, 42, 98
10, 31489, Note_off_c, 9, 35, 124
10, 31521, Note_off_c, 9, 54, 72
10, 31532, Note_off_c, 9, 76, 84
10, 31536, Note_on_c, 9, 42, 70
10, 31537, Note_off_c, 9, 42, 70
10, 31584, Note_on_c, 9, 46, 87
10, 31584, Note_on_c, 9, 54, 66
10, 31585, Note_off_c, 9, 46, 87
10, 31606, Note_off_c, 9, 54, 66
10, 31632, Note_on_c, 9, 54, 34
10, 31647, Note_off_c, 9, 54, 34
10, 31680, Note_on_c, 9, 76, 84
10, 31680, Note_on_c, 9, 40, 124
10, 31680, Note_on_c, 9, 42, 96
10, 31680, Note_on_c, 9, 54, 68
10, 31681, Note_off_c, 9, 42, 96
10, 31681, Note_off_c, 9, 40, 124
10, 31711, Note_off_c, 9, 54, 68
10, 31719, Note_off_c, 9, 76, 84
10, 31728, Note_on_c, 9, 42, 66
10, 31729, Note_off_c, 9, 42, 66
10, 31776, Note_on_c, 9, 42, 84
10, 31776, Note_on_c, 9, 54, 54
10, 31777, Note_off_c, 9, 42, 84
10, 31797, Note_off_c, 9, 54, 54
10, 31824, Note_on_c, 9, 42, 66
10, 31824, Note_on_c, 9, 54, 26
10, 31825, Note_off_c, 9, 42, 66
10, 31840, Note_off_c, 9, 54, 26
10, 31872, Note_on_c, 9, 76, 84
10, 31872, Note_on_c, 9, 35, 124
10, 31872, Note_on_c, 9, 42, 96
10, 31872, Note_on_c, 9, 54, 68
10, 31873, Note_off_c, 9, 42, 96
10, 31873, Note_off_c, 9, 35, 124
10, 31903, Note_off_c, 9, 54, 68
10, 31907, Note_off_c, 9, 76, 84
10, 31920, Note_on_c, 9, 42, 66
10, 31921, Note_off_c, 9, 42, 66
10, 31968, Note_on_c, 9, 42, 76
10, 31968, Note_on_c, 9, 54, 58
10, 31969, Note_off_c, 9, 42, 76
10, 31990, Note_off_c, 9, 54, 58
10, 32016, Note_on_c, 9, 42, 68
10, 32016, Note_on_c, 9, 54, 38
10, 32017, Note_off_c, 9, 42, 68
10, 32038, Note_off_c, 9, 54, 38
10, 32064, Note_on_c, 9, 76, 84
10, 32064, Note_on_c, 9, 40, 124
10, 32064, Note_on_c, 9, 42, 96
10, 32064, Note_on_c, 9, 54, 68
10, 32065, Note_off_c, 9, 42, 96
10, 32065, Note_off_c, 9, 40, 124
10, 32094, Note_off_c, 9, 54, 68
10, 32101, Note_off_c, 9, 76, 84
10, 32112, Note_on_c, 9, 42, 50
10, 32113, Note_off_c, 9, 42, 50
10, 32160, Note_on_c, 9, 42, 78
10, 32160, Note_on_c, 9, 54, 50
10, 32161, Note_off_c, 9, 42, 78
10, 32175, Note_off_c, 9, 54, 50
10, 32208, Note_on_c, 9, 35, 124
10, 32208, Note_on_c, 9, 42, 68
10, 32208, Note_on_c, 9, 54, 58
10, 32209, Note_off_c, 9, 42, 68
10, 32209, Note_off_c, 9, 35, 124
10, 32228, Note_off_c, 9, 54, 58
10, 32256, Note_on_c, 9, 76, 84
10, 32256, Note_on_c, 9, 35, 124
10, 32256, Note_on_c, 9, 42, 96
10, 32256, Note_on_c, 9, 54, 68
10, 32257, Note_off_c, 9, 42, 96
10, 32257, Note_off_c, 9, 35, 124
10, 32289, Note_off_c, 9, 54, 68
10, 32292, Note_off_c, 9, 76, 84
10, 32304, Note_on_c, 9, 42, 72
10, 32305, Note_off_c, 9, 42, 72
10, 32352, Note_on_c, 9, 46, 89
10, 32352, Note_on_c, 9, 54, 34
10, 32353, Note_off_c, 9, 46, 89
10, 32378, Note_off_c, 9, 54, 34
10, 32400, Note_on_c, 9, 54, 34
10, 32419, Note_off_c, 9, 54, 34
10, 32448, Note_on_c, 9, 76, 84
10, 32448, Note_on_c, 9, 40, 124
10, 32448, Note_on_c, 9, 42, 96
10, 32448, Note_on_c, 9, 54, 68
10, 32449, Note_off_c, 9, 42, 96
10, 32449, Note_off_c, 9, 40, 124
10, 32479, Note_off_c, 9, 54, 68
10, 32481, Note_off_c, 9, 76, 84
10, 32496, Note_on_c, 9, 42, 68
10, 32497, Note_off_c, 9, 42, 68
10, 32544, Note_on_c, 9, 42, 70
10, 32544, Note_on_c, 9, 54, 54
10, 32545, Note_off_c, 9, 42, 70
10, 32566, Note_off_c, 9, 54, 54
10, 32592, Note_on_c, 9, 42, 70
10, 32592, Note_on_c, 9, 54, 54
10, 32593, Note_off_c, 9, 42, 70
10, 32611, Note_off_c, 9, 54, 54
10, 32640, Note_on_c, 9, 76, 84
10, 32640, Note_on_c, 9, 35, 124
10, 32640, Note_on_c, 9, 42, 96
10, 32640, Note_on_c, 9, 54, 68
10, 32641, Note_off_c, 9, 42, 96
10, 32641, Note_off_c, 9, 35, 124
10, 32671, Note_off_c, 9, 54, 68
10, 32673, Note_off_c, 9, 76, 84
10, 32688, Note_on_c, 9, 42, 76
10, 32689, Note_off_c, 9, 42, 76
10, 32736, Note_on_c, 9, 42, 78
10, 32736, Note_on_c, 9, 54, 58
10, 32737, Note_off_c, 9, 42, 78
10, 32757, Note_off_c, 9, 54, 58
10, 32784, Note_on_c, 9, 42, 72
10, 32784, Note_on_c, 9, 54, 42
10, 32785, Note_off_c, 9, 42, 72
10, 32805, Note_off_c, 9, 54, 42
10, 32832, Note_on_c, 9, 76, 84
10, 32832, Note_on_c, 9, 40, 124
10, 32832, Note_on_c, 9, 42, 100
10, 32832, Note_on_c, 9, 54, 72
10, 32833, Note_off_c, 9, 42, 100
10, 32833, Note_off_c, 9, 40, 124
10, 32864, Note_off_c, 9, 54, 72
10, 32865, Note_off_c, 9, 76, 84
10, 32880, Note_on_c, 9, 42, 88
10, 32881, Note_off_c, 9, 42, 88
10, 32928, Note_on_c, 9, 42, 94
10, 32928, Note_on_c, 9, 54, 66
10, 32929, Note_off_c, 9, 42, 94
10, 32949, Note_off_c, 9, 54, 66
10, 32976, Note_on_c, 9, 35, 124
10, 32976, Note_on_c, 9, 42, 72
10, 32976, Note_on_c, 9, 54, 42
10, 32977, Note_off_c, 9, 42, 72
10, 32977, Note_off_c, 9, 35, 124
10, 32993, Note_off_c, 9, 54, 42
10, 33024, Note_on_c, 9, 76, 84
10, 33024, Note_on_c, 9, 35, 124
10, 33024, Note_on_c, 9, 42, 94
10, 33024, Note_on_c, 9, 54, 72
10, 33025, Note_off_c, 9, 42, 94
10, 33025, Note_off_c, 9, 35, 124
10, 33057, Note_off_c, 9, 54, 72
10, 33058, Note_off_c, 9, 76, 84
10, 33072, Note_on_c, 9, 42, 82
10, 33073, Note_off_c, 9, 42, 82
10, 33120, Note_on_c, 9, 46, 87
10, 33120, Note_on_c, 9, 54, 66
10, 33121, Note_off_c, 9, 46, 87
10, 33142, Note_off_c, 9, 54, 66
10, 33168, Note_on_c, 9, 54, 34
10, 33183, Note_off_c, 9, 54, 34
10, 33216, Note_on_c, 9, 76, 84
10, 33216, Note_on_c, 9, 40, 124
10, 33216, Note_on_c, 9, 42, 96
10, 33216, Note_on_c, 9, 54, 68
10, 33217, Note_off_c, 9, 42, 96
10, 33217, Note_off_c, 9, 40, 124
10, 33247, Note_off_c, 9, 54, 68
10, 33249, Note_off_c, 9, 76, 84
10, 33264, Note_on_c, 9, 42, 66
10, 33265, Note_off_c, 9, 42, 66
10, 33312, Note_on_c, 9, 42, 86
10, 33312, Note_on_c, 9, 54, 54
10, 33313, Note_off_c, 9, 42, 86
10, 33333, Note_off_c, 9, 54, 54
10, 33360, Note_on_c, 9, 42, 74
10, 33360, Note_on_c, 9, 54, 26
10, 33361, Note_off_c, 9, 42, 74
10, 33376, Note_off_c, 9, 54, 26
10, 33408, Note_on_c, 9, 76, 84
10, 33408, Note_on_c, 9, 35, 124
10, 33408, Note_on_c, 9, 42, 98
10, 33408, Note_on_c, 9, 54, 68
10, 33409, Note_off_c, 9, 42, 98
10, 33409, Note_off_c, 9, 35, 124
10, 33439, Note_off_c, 9, 54, 68
10, 33440, Note_off_c, 9, 76, 84
10, 33456, Note_on_c, 9, 42, 58
10, 33457, Note_off_c, 9, 42, 58
10, 33504, Note_on_c, 9, 42, 72
10, 33504, Note_on_c, 9, 54, 58
10, 33505, Note_off_c, 9, 42, 72
10, 33526, Note_off_c, 9, 54, 58
10, 33552, Note_on_c, 9, 42, 70
10, 33552, Note_on_c, 9, 54, 38
10, 33553, Note_off_c, 9, 42, 70
10, 33574, Note_off_c, 9, 54, 38
10, 33600, Note_on_c, 9, 76, 84
10, 33600, Note_on_c, 9, 40, 124
10, 33600, Note_on_c, 9, 42, 100
10, 33600, Note_on_c, 9, 54, 68
10, 33601, Note_off_c, 9, 42, 100
10, 33601, Note_off_c, 9, 40, 124
10, 33630, Note_off_c, 9, 54, 68
10, 33630, Note_off_c, 9, 76, 84
10, 33648, Note_on_c, 9, 42, 64
10, 33649, Note_off_c, 9, 42, 64
10, 33696, Note_on_c, 9, 42, 88
10, 33696, Note_on_c, 9, 54, 50
10, 33697, Note_off_c, 9, 42, 88
10, 33711, Note_off_c, 9, 54, 50
10, 33744, Note_on_c, 9, 35, 124
10, 33744, Note_on_c, 9, 42, 66
10, 33744, Note_on_c, 9, 54, 58
10, 33745, Note_off_c, 9, 42, 66
10, 33745, Note_off_c, 9, 35, 124
10, 33764, Note_off_c, 9, 54, 58
10, 33792, Note_on_c, 9, 76, 84
10, 33792, Note_on_c, 9, 35, 124
10, 33792, Note_on_c, 9, 42, 94
10, 33792, Note_on_c, 9, 54, 68
10, 33793, Note_off_c, 9, 42, 94
10, 33793, Note_off_c, 9, 35, 124
10, 33825, Note_off_c, 9, 54, 68
10, 33826, Note_off_c, 9, 76, 84
10, 33840, Note_on_c, 9, 42, 82
10, 33841, Note_off_c, 9, 42, 82
10, 33888, Note_on_c, 9, 46, 87
10, 33888, Note_on_c, 9, 54, 34
10, 33889, Note_off_c, 9, 46, 87
10, 33914, Note_off_c, 9, 54, 34
10, 33936, Note_on_c, 9, 54, 34
10, 33955, Note_off_c, 9, 54, 34
10, 33984, Note_on_c, 9, 76, 84
10, 33984, Note_on_c, 9, 40, 124
10, 33984, Note_on_c, 9, 42, 94
10, 33984, Note_on_c, 9, 54, 68
10, 33985, Note_off_c, 9, 42, 94
10, 33985, Note_off_c, 9, 40, 124
10, 34015, Note_off_c, 9, 54, 68
10, 34016, Note_off_c, 9, 76, 84
10, 34032, Note_on_c, 9, 42, 70
10, 34033, Note_off_c, 9, 42, 70
10, 34080, Note_on_c, 9, 42, 78
10, 34080, Note_on_c, 9, 54, 54
10, 34081, Note_off_c, 9, 42, 78
10, 34102, Note_off_c, 9, 54, 54
10, 34128, Note_on_c, 9, 42, 72
10, 34128, Note_on_c, 9, 54, 54
10, 34129, Note_off_c, 9, 42, 72
10, 34147, Note_off_c, 9, 54, 54
10, 34176, Note_on_c, 9, 76, 84
10, 34176, Note_on_c, 9, 35, 124
10, 34176, Note_on_c, 9, 42, 98
10, 34176, Note_on_c, 9, 54, 68
10, 34177, Note_off_c, 9, 42, 98
10, 34177, Note_off_c, 9, 35, 124
10, 34206, Note_off_c, 9, 76, 84
10, 34207, Note_off_c, 9, 54, 68
10, 34224, Note_on_c, 9, 42, 66
10, 34225, Note_off_c, 9, 42, 66
10, 34272, Note_on_c, 9, 42, 86
10, 34272, Note_on_c, 9, 54, 58
10, 34273, Note_off_c, 9, 42, 86
10, 34293, Note_off_c, 9, 54, 58
10, 34320, Note_on_c, 9, 42, 70
10, 34320, Note_on_c, 9, 54, 42
10, 34321, Note_off_c, 9, 42, 70
10, 34341, Note_off_c, 9, 54, 42
10, 34368, Note_on_c, 9, 76, 84
10, 34368, Note_on_c, 9, 40, 124
10, 34368, Note_on_c, 9, 42, 96
10, 34368, Note_on_c, 9, 54, 72
10, 34369, Note_off_c, 9, 42, 96
10, 34369, Note_off_c, 9, 40, 124
10, 34400, Note_off_c, 9, 54, 72
10, 34401, Note_off_c, 9, 76, 84
10, 34416, Note_on_c, 9, 42, 62
10, 34417, Note_off_c, 9, 42, 62
10, 34464, Note_on_c, 9, 42, 86
10, 34464, Note_on_c, 9, 54, 66
10, 34465, Note_off_c, 9, 42, 86
10, 34485, Note_off_c, 9, 54, 66
10, 34512, Note_on_c, 9, 35, 124
10, 34512, Note_on_c, 9, 42, 68
10, 34512, Note_on_c, 9, 54, 42
10, 34513, Note_off_c, 9, 42, 68
10, 34513, Note_off_c, 9, 35, 124
10, 34529, Note_off_c, 9, 54, 42
10, 34560, Note_on_c, 9, 76, 84
10, 34560, Note_on_c, 9, 35, 124
10, 34560, Note_on_c, 9, 42, 98
10, 34560, Note_on_c, 9, 54, 72
10, 34561, Note_off_c, 9, 42, 98
10, 34561, Note_off_c, 9, 35, 124
10, 34593, Note_off_c, 9, 54, 72
10, 34594, Note_off_c, 9, 76, 84
10, 34608, Note_on_c, 9, 42, 70
10, 34609, Note_off_c, 9, 42, 70
10, 34656, Note_on_c, 9, 46, 87
10, 34656, Note_on_c, 9, 54, 66
10, 34657, Note_off_c, 9, 46, 87
10, 34678, Note_off_c, 9, 54, 66
10, 34704, Note_on_c, 9, 54, 34
10, 34719, Note_off_c, 9, 54, 34
10, 34752, Note_on_c, 9, 76, 84
10, 34752, Note_on_c, 9, 40, 124
10, 34752, Note_on_c, 9, 42, 96
10, 34752, Note_on_c, 9, 54, 68
10, 34753, Note_off_c, 9, 42, 96
10, 34753, Note_off_c, 9, 40, 124
10, 34783, Note_off_c, 9, 54, 68
10, 34784, Note_off_c, 9, 76, 84
10, 34800, Note_on_c, 9, 42, 66
10, 34801, Note_off_c, 9, 42, 66
10, 34848, Note_on_c, 9, 42, 84
10, 34848, Note_on_c, 9, 54, 54
10, 34849, Note_off_c, 9, 42, 84
10, 34869, Note_off_c, 9, 54, 54
10, 34896, Note_on_c, 9, 42, 66
10, 34896, Note_on_c, 9, 54, 26
10, 34897, Note_off_c, 9, 42, 66
10, 34912, Note_off_c, 9, 54, 26
10, 34944, Note_on_c, 9, 76, 84
10, 34944, Note_on_c, 9, 35, 124
10, 34944, Note_on_c, 9, 42, 96
10, 34944, Note_on_c, 9, 54, 68
10, 34945, Note_off_c, 9, 42, 96
10, 34945, Note_off_c, 9, 35, 124
10, 34973, Note_off_c, 9, 76, 84
10, 34975, Note_off_c, 9, 54, 68
10, 34992, Note_on_c, 9, 42, 66
10, 34993, Note_off_c, 9, 42, 66
10, 35040, Note_on_c, 9, 42, 76
10, 35040, Note_on_c, 9, 54, 58
10, 35041, Note_off_c, 9, 42, 76
10, 35062, Note_off_c, 9, 54, 58
10, 35088, Note_on_c, 9, 42, 68
10, 35088, Note_on_c, 9, 54, 38
10, 35089, Note_off_c, 9, 42, 68
10, 35110, Note_off_c, 9, 54, 38
10, 35136, Note_on_c, 9, 76, 84
10, 35136, Note_on_c, 9, 40, 124
10, 35136, Note_on_c, 9, 42, 96
10, 35136, Note_on_c, 9, 54, 68
10, 35137, Note_off_c, 9, 42, 96
10, 35137, Note_off_c, 9, 40, 124
10, 35166, Note_off_c, 9, 54, 68
10, 35166, Note_off_c, 9, 76, 84
10, 35184, Note_on_c, 9, 42, 50
10, 35185, Note_off_c, 9, 42, 50
10, 35232, Note_on_c, 9, 42, 78
10, 35232, Note_on_c, 9, 54, 50
10, 35233, Note_off_c, 9, 42, 78
10, 35247, Note_off_c, 9, 54, 50
10, 35280, Note_on_c, 9, 35, 124
10, 35280, Note_on_c, 9, 42, 68
10, 35280, Note_on_c, 9, 54, 58
10, 35281, Note_off_c, 9, 42, 68
10, 35281, Note_off_c, 9, 35, 124
10, 35300, Note_off_c, 9, 54, 58
10, 35328, Note_on_c, 9, 35, 124
10, 35328, Note_on_c, 9, 49, 86
10, 35329, Note_off_c, 9, 49, 86
10, 35329, Note_off_c, 9, 35, 124
10, 35376, Note_on_c, 9, 42, 82
10, 35377, Note_off_c, 9, 42, 82
10, 35424, Note_on_c, 9, 46, 87
10, 35424, Note_on_c, 9, 64, 112
10, 35425, Note_off_c, 9, 46, 87
10, 35448, Note_off_c, 9, 64, 112
10, 35520, Note_on_c, 9, 40, 124
10, 35520, Note_on_c, 9, 42, 94
10, 35520, Note_on_c, 9, 63, 124
10, 35521, Note_off_c, 9, 42, 94
10, 35521, Note_off_c, 9, 40, 124
10, 35550, Note_off_c, 9, 63, 124
10, 35568, Note_on_c, 9, 42, 70
10, 35569, Note_off_c, 9, 42, 70
10, 35616, Note_on_c, 9, 42, 78
10, 35616, Note_on_c, 9, 62, 116
10, 35617, Note_off_c, 9, 42, 78
10, 35643, Note_off_c, 9, 62, 116
10, 35664, Note_on_c, 9, 42, 72
10, 35664, Note_on_c, 9, 64, 116
10, 35665, Note_off_c, 9, 42, 72
10, 35687, Note_off_c, 9, 64, 116
10, 35712, Note_on_c, 9, 35, 124
10, 35712, Note_on_c, 9, 42, 98
10, 35713, Note_off_c, 9, 42, 98
10, 35713, Note_off_c, 9, 35, 124
10, 35760, Note_on_c, 9, 42, 66
10, 35760, Note_on_c, 9, 64, 56
10, 35761, Note_off_c, 9, 42, 66
10, 35772, Note_off_c, 9, 64, 56
10, 35808, Note_on_c, 9, 42, 86
10, 35808, Note_on_c, 9, 64, 96
10, 35809, Note_off_c, 9, 42, 86
10, 35832, Note_off_c, 9, 64, 96
10, 35856, Note_on_c, 9, 42, 70
10, 35857, Note_off_c, 9, 42, 70
10, 35904, Note_on_c, 9, 40, 124
10, 35904, Note_on_c, 9, 42, 96
10, 35904, Note_on_c, 9, 63, 124
10, 35905, Note_off_c, 9, 42, 96
10, 35905, Note_off_c, 9, 40, 124
10, 35935, Note_off_c, 9, 63, 124
10, 35952, Note_on_c, 9, 42, 62
10, 35953, Note_off_c, 9, 42, 62
10, 36000, Note_on_c, 9, 42, 86
10, 36000, Note_on_c, 9, 62, 108
10, 36000, Note_on_c, 9, 63, 104
10, 36001, Note_off_c, 9, 42, 86
10, 36018, Note_off_c, 9, 63, 104
10, 36023, Note_off_c, 9, 62, 108
10, 36048, Note_on_c, 9, 35, 124
10, 36048, Note_on_c, 9, 42, 68
10, 36048, Note_on_c, 9, 64, 100
10, 36049, Note_off_c, 9, 42, 68
10, 36049, Note_off_c, 9, 35, 124
10, 36072, Note_off_c, 9, 64, 100
10, 36096, Note_on_c, 9, 35, 124
10, 36096, Note_on_c, 9, 42, 98
10, 36096, Note_on_c, 9, 64, 88
10, 36097, Note_off_c, 9, 42, 98
10, 36097, Note_off_c, 9, 35, 124
10, 36112, Note_off_c, 9, 64, 88
10, 36144, Note_on_c, 9, 42, 70
10, 36144, Note_on_c, 9, 64, 76
10, 36145, Note_off_c, 9, 42, 70
10, 36164, Note_off_c, 9, 64, 76
10, 36192, Note_on_c, 9, 46, 87
10, 36192, Note_on_c, 9, 64, 108
10, 36193, Note_off_c, 9, 46, 87
10, 36211, Note_off_c, 9, 64, 108
10, 36288, Note_on_c, 9, 40, 124
10, 36288, Note_on_c, 9, 42, 96
10, 36288, Note_on_c, 9, 63, 124
10, 36289, Note_off_c, 9, 42, 96
10, 36289, Note_off_c, 9, 40, 124
10, 36319, Note_off_c, 9, 63, 124
10, 36336, Note_on_c, 9, 42, 66
10, 36337, Note_off_c, 9, 42, 66
10, 36384, Note_on_c, 9, 42, 84
10, 36384, Note_on_c, 9, 62, 120
10, 36385, Note_off_c, 9, 42, 84
10, 36408, Note_off_c, 9, 62, 120
10, 36432, Note_on_c, 9, 42, 66
10, 36432, Note_on_c, 9, 64, 120
10, 36433, Note_off_c, 9, 42, 66
10, 36459, Note_off_c, 9, 64, 120
10, 36480, Note_on_c, 9, 35, 124
10, 36480, Note_on_c, 9, 42, 96
10, 36481, Note_off_c, 9, 42, 96
10, 36481, Note_off_c, 9, 35, 124
10, 36528, Note_on_c, 9, 42, 66
10, 36528, Note_on_c, 9, 64, 64
10, 36529, Note_off_c, 9, 42, 66
10, 36544, Note_off_c, 9, 64, 64
10, 36576, Note_on_c, 9, 42, 76
10, 36576, Note_on_c, 9, 64, 68
10, 36577, Note_off_c, 9, 42, 76
10, 36593, Note_off_c, 9, 64, 68
10, 36624, Note_on_c, 9, 42, 68
10, 36625, Note_off_c, 9, 42, 68
10, 36672, Note_on_c, 9, 40, 124
10, 36672, Note_on_c, 9, 42, 96
10, 36672, Note_on_c, 9, 63, 124
10, 36673, Note_off_c, 9, 42, 96
10, 36673, Note_off_c, 9, 40, 124
10, 36701, Note_off_c, 9, 63, 124
10, 36720, Note_on_c, 9, 42, 50
10, 36721, Note_off_c, 9, 42, 50
10, 36768, Note_on_c, 9, 42, 78
10, 36768, Note_on_c, 9, 62, 120
10, 36769, Note_off_c, 9, 42, 78
10, 36793, Note_off_c, 9, 62, 120
10, 36816, Note_on_c, 9, 35, 124
10, 36816, Note_on_c, 9, 42, 68
10, 36816, Note_on_c, 9, 64, 100
10, 36817, Note_off_c, 9, 42, 68
10, 36817, Note_off_c, 9, 35, 124
10, 36840, Note_off_c, 9, 64, 100
10, 36864, Note_on_c, 9, 35, 124
10, 36864, Note_on_c, 9, 42, 96
10, 36864, Note_on_c, 9, 64, 68
10, 36865, Note_off_c, 9, 42, 96
10, 36865, Note_off_c, 9, 35, 124
10, 36877, Note_off_c, 9, 64, 68
10, 36912, Note_on_c, 9, 42, 72
10, 36912, Note_on_c, 9, 64, 60
10, 36913, Note_off_c, 9, 42, 72
10, 36930, Note_off_c, 9, 64, 60
10, 36960, Note_on_c, 9, 46, 89
10, 36960, Note_on_c, 9, 64, 108
10, 36961, Note_off_c, 9, 46, 89
10, 36979, Note_off_c, 9, 64, 108
10, 37056, Note_on_c, 9, 40, 124
10, 37056, Note_on_c, 9, 42, 96
10, 37056, Note_on_c, 9, 63, 124
10, 37057, Note_off_c, 9, 42, 96
10, 37057, Note_off_c, 9, 40, 124
10, 37087, Note_off_c, 9, 63, 124
10, 37104, Note_on_c, 9, 42, 68
10, 37105, Note_off_c, 9, 42, 68
10, 37152, Note_on_c, 9, 42, 70
10, 37152, Note_on_c, 9, 62, 116
10, 37153, Note_off_c, 9, 42, 70
10, 37176, Note_off_c, 9, 62, 116
10, 37200, Note_on_c, 9, 42, 70
10, 37200, Note_on_c, 9, 64, 112
10, 37201, Note_off_c, 9, 42, 70
10, 37229, Note_off_c, 9, 64, 112
10, 37248, Note_on_c, 9, 35, 124
10, 37248, Note_on_c, 9, 42, 96
10, 37249, Note_off_c, 9, 42, 96
10, 37249, Note_off_c, 9, 35, 124
10, 37296, Note_on_c, 9, 42, 76
10, 37296, Note_on_c, 9, 64, 88
10, 37297, Note_off_c, 9, 42, 76
10, 37313, Note_off_c, 9, 64, 88
10, 37344, Note_on_c, 9, 42, 78
10, 37344, Note_on_c, 9, 64, 84
10, 37345, Note_off_c, 9, 42, 78
10, 37361, Note_off_c, 9, 64, 84
10, 37392, Note_on_c, 9, 42, 72
10, 37393, Note_off_c, 9, 42, 72
10, 37440, Note_on_c, 9, 40, 124
10, 37440, Note_on_c, 9, 42, 100
10, 37440, Note_on_c, 9, 63, 124
10, 37441, Note_off_c, 9, 42, 100
10, 37441, Note_off_c, 9, 40, 124
10, 37468, Note_off_c, 9, 63, 124
10, 37488, Note_on_c, 9, 42, 88
10, 37489, Note_off_c, 9, 42, 88
10, 37536, Note_on_c, 9, 42, 94
10, 37536, Note_on_c, 9, 62, 120
10, 37537, Note_off_c, 9, 42, 94
10, 37561, Note_off_c, 9, 62, 120
10, 37584, Note_on_c, 9, 35, 124
10, 37584, Note_on_c, 9, 42, 72
10, 37584, Note_on_c, 9, 64, 100
10, 37585, Note_off_c, 9, 42, 72
10, 37585, Note_off_c, 9, 35, 124
10, 37607, Note_off_c, 9, 64, 100
10, 37632, Note_on_c, 9, 35, 124
10, 37632, Note_on_c, 9, 42, 94
10, 37632, Note_on_c, 9, 64, 76
10, 37633, Note_off_c, 9, 42, 94
10, 37633, Note_off_c, 9, 35, 124
10, 37648, Note_off_c, 9, 64, 76
10, 37680, Note_on_c, 9, 42, 82
10, 37680, Note_on_c, 9, 64, 76
10, 37681, Note_off_c, 9, 42, 82
10, 37696, Note_off_c, 9, 64, 76
10, 37728, Note_on_c, 9, 46, 87
10, 37728, Note_on_c, 9, 64, 100
10, 37729, Note_off_c, 9, 46, 87
10, 37748, Note_off_c, 9, 64, 100
10, 37824, Note_on_c, 9, 40, 124
10, 37824, Note_on_c, 9, 42, 96
10, 37824, Note_on_c, 9, 63, 124
10, 37825, Note_off_c, 9, 42, 96
10, 37825, Note_off_c, 9, 40, 124
10, 37853, Note_off_c, 9, 63, 124
10, 37872, Note_on_c, 9, 42, 66
10, 37873, Note_off_c, 9, 42, 66
10, 37920, Note_on_c, 9, 42, 86
10, 37920, Note_on_c, 9, 62, 112
10, 37921, Note_off_c, 9, 42, 86
10, 37945, Note_off_c, 9, 62, 112
10, 37968, Note_on_c, 9, 42, 74
10, 37968, Note_on_c, 9, 64, 104
10, 37969, Note_off_c, 9, 42, 74
10, 37993, Note_off_c, 9, 64, 104
10, 38016, Note_on_c, 9, 35, 124
10, 38016, Note_on_c, 9, 42, 98
10, 38017, Note_off_c, 9, 42, 98
10, 38017, Note_off_c, 9, 35, 124
10, 38064, Note_on_c, 9, 42, 58
10, 38065, Note_off_c, 9, 42, 58
10, 38070, Note_on_c, 9, 62, 121
10, 38085, Note_off_c, 9, 62, 121
10, 38093, Note_on_c, 9, 62, 109
10, 38105, Note_off_c, 9, 62, 109
10, 38112, Note_on_c, 9, 42, 72
10, 38113, Note_off_c, 9, 42, 72
10, 38121, Note_on_c, 9, 62, 121
10, 38142, Note_off_c, 9, 62, 121
10, 38160, Note_on_c, 9, 42, 70
10, 38161, Note_off_c, 9, 42, 70
10, 38166, Note_on_c, 9, 62, 127
10, 38183, Note_off_c, 9, 62, 127
10, 38208, Note_on_c, 9, 40, 124
10, 38208, Note_on_c, 9, 42, 100
10, 38209, Note_off_c, 9, 42, 100
10, 38209, Note_off_c, 9, 40, 124
10, 38213, Note_on_c, 9, 62, 127
10, 38232, Note_off_c, 9, 62, 127
10, 38256, Note_on_c, 9, 42, 64
10, 38257, Note_off_c, 9, 42, 64
10, 38259, Note_on_c, 9, 62, 127
10, 38278, Note_off_c, 9, 62, 127
10, 38304, Note_on_c, 9, 42, 88
10, 38305, Note_off_c, 9, 42, 88
10, 38352, Note_on_c, 9, 35, 124
10, 38352, Note_on_c, 9, 42, 66
10, 38353, Note_off_c, 9, 42, 66
10, 38353, Note_off_c, 9, 35, 124
10, 38400, Note_on_c, 9, 35, 124
10, 38400, Note_on_c, 9, 42, 94
10, 38401, Note_off_c, 9, 42, 94
10, 38401, Note_off_c, 9, 35, 124
10, 38448, Note_on_c, 9, 42, 82
10, 38449, Note_off_c, 9, 42, 82
10, 38496, Note_on_c, 9, 46, 87
10, 38496, Note_on_c, 9, 64, 112
10, 38497, Note_off_c, 9, 46, 87
10, 38520, Note_off_c, 9, 64, 112
10, 38592, Note_on_c, 9, 40, 124
10, 38592, Note_on_c, 9, 42, 94
10, 38592, Note_on_c, 9, 63, 124
10, 38593, Note_off_c, 9, 42, 94
10, 38593, Note_off_c, 9, 40, 124
10, 38622, Note_off_c, 9, 63, 124
10, 38640, Note_on_c, 9, 42, 70
10, 38641, Note_off_c, 9, 42, 70
10, 38688, Note_on_c, 9, 42, 78
10, 38688, Note_on_c, 9, 62, 116
10, 38689, Note_off_c, 9, 42, 78
10, 38715, Note_off_c, 9, 62, 116
10, 38736, Note_on_c, 9, 42, 72
10, 38736, Note_on_c, 9, 64, 116
10, 38737, Note_off_c, 9, 42, 72
10, 38759, Note_off_c, 9, 64, 116
10, 38784, Note_on_c, 9, 35, 124
10, 38784, Note_on_c, 9, 42, 98
10, 38785, Note_off_c, 9, 42, 98
10, 38785, Note_off_c, 9, 35, 124
10, 38832, Note_on_c, 9, 42, 66
10, 38832, Note_on_c, 9, 64, 56
10, 38833, Note_off_c, 9, 42, 66
10, 38844, Note_off_c, 9, 64, 56
10, 38880, Note_on_c, 9, 42, 86
10, 38880, Note_on_c, 9, 64, 96
10, 38881, Note_off_c, 9, 42, 86
10, 38904, Note_off_c, 9, 64, 96
10, 38928, Note_on_c, 9, 42, 70
10, 38929, Note_off_c, 9, 42, 70
10, 38976, Note_on_c, 9, 40, 124
10, 38976, Note_on_c, 9, 42, 96
10, 38976, Note_on_c, 9, 63, 124
10, 38977, Note_off_c, 9, 42, 96
10, 38977, Note_off_c, 9, 40, 124
10, 39007, Note_off_c, 9, 63, 124
10, 39024, Note_on_c, 9, 42, 62
10, 39025, Note_off_c, 9, 42, 62
10, 39072, Note_on_c, 9, 42, 86
10, 39072, Note_on_c, 9, 62, 108
10, 39072, Note_on_c, 9, 63, 104
10, 39073, Note_off_c, 9, 42, 86
10, 39090, Note_off_c, 9, 63, 104
10, 39095, Note_off_c, 9, 62, 108
10, 39120, Note_on_c, 9, 35, 124
10, 39120, Note_on_c, 9, 42, 68
10, 39120, Note_on_c, 9, 64, 100
10, 39121, Note_off_c, 9, 42, 68
10, 39121, Note_off_c, 9, 35, 124
10, 39144, Note_off_c, 9, 64, 100
10, 39168, Note_on_c, 9, 35, 124
10, 39168, Note_on_c, 9, 42, 98
10, 39168, Note_on_c, 9, 64, 88
10, 39169, Note_off_c, 9, 42, 98
10, 39169, Note_off_c, 9, 35, 124
10, 39184, Note_off_c, 9, 64, 88
10, 39216, Note_on_c, 9, 42, 70
10, 39216, Note_on_c, 9, 64, 76
10, 39217, Note_off_c, 9, 42, 70
10, 39236, Note_off_c, 9, 64, 76
10, 39264, Note_on_c, 9, 46, 87
10, 39264, Note_on_c, 9, 64, 108
10, 39265, Note_off_c, 9, 46, 87
10, 39283, Note_off_c, 9, 64, 108
10, 39360, Note_on_c, 9, 40, 124
10, 39360, Note_on_c, 9, 42, 96
10, 39360, Note_on_c, 9, 63, 124
10, 39361, Note_off_c, 9, 42, 96
10, 39361, Note_off_c, 9, 40, 124
10, 39391, Note_off_c, 9, 63, 124
10, 39408, Note_on_c, 9, 42, 66
10, 39409, Note_off_c, 9, 42, 66
10, 39456, Note_on_c, 9, 42, 84
10, 39456, Note_on_c, 9, 62, 120
10, 39457, Note_off_c, 9, 42, 84
10, 39480, Note_off_c, 9, 62, 120
10, 39504, Note_on_c, 9, 42, 66
10, 39504, Note_on_c, 9, 64, 120
10, 39505, Note_off_c, 9, 42, 66
10, 39531, Note_off_c, 9, 64, 120
10, 39552, Note_on_c, 9, 35, 124
10, 39552, Note_on_c, 9, 42, 96
10, 39553, Note_off_c, 9, 42, 96
10, 39553, Note_off_c, 9, 35, 124
10, 39600, Note_on_c, 9, 42, 66
10, 39600, Note_on_c, 9, 64, 64
10, 39601, Note_off_c, 9, 42, 66
10, 39616, Note_off_c, 9, 64, 64
10, 39648, Note_on_c, 9, 42, 76
10, 39648, Note_on_c, 9, 64, 68
10, 39649, Note_off_c, 9, 42, 76
10, 39665, Note_off_c, 9, 64, 68
10, 39696, Note_on_c, 9, 42, 68
10, 39697, Note_off_c, 9, 42, 68
10, 39744, Note_on_c, 9, 40, 124
10, 39744, Note_on_c, 9, 42, 96
10, 39744, Note_on_c, 9, 63, 124
10, 39745, Note_off_c, 9, 42, 96
10, 39745, Note_off_c, 9, 40, 124
10, 39773, Note_off_c, 9, 63, 124
10, 39792, Note_on_c, 9, 42, 50
10, 39793, Note_off_c, 9, 42, 50
10, 39840, Note_on_c, 9, 42, 78
10, 39840, Note_on_c, 9, 62, 120
10, 39841, Note_off_c, 9, 42, 78
10, 39865, Note_off_c, 9, 62, 120
10, 39888, Note_on_c, 9, 35, 124
10, 39888, Note_on_c, 9, 42, 68
10, 39888, Note_on_c, 9, 64, 100
10, 39889, Note_off_c, 9, 42, 68
10, 39889, Note_off_c, 9, 35, 124
10, 39912, Note_off_c, 9, 64, 100
10, 39936, Note_on_c, 9, 35, 124
10, 39936, Note_on_c, 9, 42, 94
10, 39936, Note_on_c, 9, 64, 68
10, 39937, Note_off_c, 9, 42, 94
10, 39937, Note_off_c, 9, 35, 124
10, 39949, Note_off_c, 9, 64, 68
10, 39984, Note_on_c, 9, 42, 82
10, 39984, Note_on_c, 9, 64, 60
10, 39985, Note_off_c, 9, 42, 82
10, 40002, Note_off_c, 9, 64, 60
10, 40032, Note_on_c, 9, 46, 87
10, 40032, Note_on_c, 9, 64, 108
10, 40033, Note_off_c, 9, 46, 87
10, 40051, Note_off_c, 9, 64, 108
10, 40128, Note_on_c, 9, 40, 124
10, 40128, Note_on_c, 9, 42, 94
10, 40128, Note_on_c, 9, 63, 124
10, 40129, Note_off_c, 9, 42, 94
10, 40129, Note_off_c, 9, 40, 124
10, 40159, Note_off_c, 9, 63, 124
10, 40176, Note_on_c, 9, 42, 70
10, 40177, Note_off_c, 9, 42, 70
10, 40224, Note_on_c, 9, 42, 78
10, 40224, Note_on_c, 9, 62, 116
10, 40225, Note_off_c, 9, 42, 78
10, 40248, Note_off_c, 9, 62, 116
10, 40272, Note_on_c, 9, 42, 72
10, 40272, Note_on_c, 9, 64, 112
10, 40273, Note_off_c, 9, 42, 72
10, 40301, Note_off_c, 9, 64, 112
10, 40320, Note_on_c, 9, 35, 124
10, 40320, Note_on_c, 9, 42, 98
10, 40321, Note_off_c, 9, 42, 98
10, 40321, Note_off_c, 9, 35, 124
10, 40368, Note_on_c, 9, 42, 66
10, 40368, Note_on_c, 9, 64, 88
10, 40369, Note_off_c, 9, 42, 66
10, 40385, Note_off_c, 9, 64, 88
10, 40416, Note_on_c, 9, 42, 86
10, 40416, Note_on_c, 9, 64, 84
10, 40417, Note_off_c, 9, 42, 86
10, 40433, Note_off_c, 9, 64, 84
10, 40464, Note_on_c, 9, 42, 70
10, 40465, Note_off_c, 9, 42, 70
10, 40512, Note_on_c, 9, 40, 124
10, 40512, Note_on_c, 9, 42, 96
10, 40512, Note_on_c, 9, 63, 124
10, 40513, Note_off_c, 9, 42, 96
10, 40513, Note_off_c, 9, 40, 124
10, 40540, Note_off_c, 9, 63, 124
10, 40560, Note_on_c, 9, 42, 62
10, 40561, Note_off_c, 9, 42, 62
10, 40608, Note_on_c, 9, 42, 86
10, 40608, Note_on_c, 9, 62, 120
10, 40609, Note_off_c, 9, 42, 86
10, 40633, Note_off_c, 9, 62, 120
10, 40656, Note_on_c, 9, 35, 124
10, 40656, Note_on_c, 9, 42, 68
10, 40656, Note_on_c, 9, 64, 100
10, 40657, Note_off_c, 9, 42, 68
10, 40657, Note_off_c, 9, 35, 124
10, 40679, Note_off_c, 9, 64, 100
10, 40704, Note_on_c, 9, 35, 124
10, 40704, Note_on_c, 9, 42, 98
10, 40705, Note_off_c, 9, 42, 98
10, 40705, Note_off_c, 9, 35, 124
10, 41472, Note_on_c, 9, 35, 124
10, 41472, Note_on_c, 9, 54, 68
10, 41472, Note_on_c, 9, 57, 75
10, 41472, Note_on_c, 9, 62, 109
10, 41473, Note_off_c, 9, 57, 75
10, 41473, Note_off_c, 9, 35, 124
10, 41500, Note_off_c, 9, 62, 109
10, 41505, Note_off_c, 9, 54, 68
10, 41520, Note_on_c, 9, 42, 86
10, 41521, Note_off_c, 9, 42, 86
10, 41568, Note_on_c, 9, 46, 87
10, 41568, Note_on_c, 9, 54, 34
10, 41568, Note_on_c, 9, 62, 41
10, 41569, Note_off_c, 9, 46, 87
10, 41590, Note_off_c, 9, 62, 41
10, 41594, Note_off_c, 9, 54, 34
10, 41616, Note_on_c, 9, 54, 34
10, 41616, Note_on_c, 9, 63, 104
10, 41635, Note_off_c, 9, 54, 34
10, 41653, Note_off_c, 9, 63, 104
10, 41664, Note_on_c, 9, 40, 124
10, 41664, Note_on_c, 9, 42, 96
10, 41664, Note_on_c, 9, 54, 68
10, 41665, Note_off_c, 9, 42, 96
10, 41665, Note_off_c, 9, 40, 124
10, 41695, Note_off_c, 9, 54, 68
10, 41712, Note_on_c, 9, 42, 66
10, 41712, Note_on_c, 9, 63, 36
10, 41713, Note_off_c, 9, 42, 66
10, 41729, Note_off_c, 9, 63, 36
10, 41760, Note_on_c, 9, 42, 86
10, 41760, Note_on_c, 9, 54, 54
10, 41760, Note_on_c, 9, 64, 96
10, 41761, Note_off_c, 9, 42, 86
10, 41782, Note_off_c, 9, 64, 96
10, 41782, Note_off_c, 9, 54, 54
10, 41808, Note_on_c, 9, 42, 74
10, 41808, Note_on_c, 9, 54, 54
10, 41809, Note_off_c, 9, 42, 74
10, 41827, Note_off_c, 9, 54, 54
10, 41856, Note_on_c, 9, 35, 124
10, 41856, Note_on_c, 9, 42, 98
10, 41856, Note_on_c, 9, 54, 68
10, 41856, Note_on_c, 9, 62, 101
10, 41857, Note_off_c, 9, 42, 98
10, 41857, Note_off_c, 9, 35, 124
10, 41887, Note_off_c, 9, 54, 68
10, 41892, Note_off_c, 9, 62, 101
10, 41904, Note_on_c, 9, 42, 58
10, 41905, Note_off_c, 9, 42, 58
10, 41952, Note_on_c, 9, 42, 72
10, 41952, Note_on_c, 9, 54, 58
10, 41952, Note_on_c, 9, 62, 33
10, 41953, Note_off_c, 9, 42, 72
10, 41973, Note_off_c, 9, 54, 58
10, 41976, Note_off_c, 9, 62, 33
10, 42000, Note_on_c, 9, 42, 70
10, 42000, Note_on_c, 9, 54, 42
10, 42000, Note_on_c, 9, 63, 100
10, 42001, Note_off_c, 9, 42, 70
10, 42021, Note_off_c, 9, 54, 42
10, 42037, Note_off_c, 9, 63, 100
10, 42048, Note_on_c, 9, 40, 124
10, 42048, Note_on_c, 9, 42, 100
10, 42048, Note_on_c, 9, 54, 72
10, 42049, Note_off_c, 9, 42, 100
10, 42049, Note_off_c, 9, 40, 124
10, 42080, Note_off_c, 9, 54, 72
10, 42096, Note_on_c, 9, 42, 64
10, 42096, Note_on_c, 9, 63, 44
10, 42097, Note_off_c, 9, 42, 64
10, 42116, Note_off_c, 9, 63, 44
10, 42144, Note_on_c, 9, 42, 88
10, 42144, Note_on_c, 9, 54, 66
10, 42144, Note_on_c, 9, 64, 96
10, 42145, Note_off_c, 9, 42, 88
10, 42165, Note_off_c, 9, 54, 66
10, 42169, Note_off_c, 9, 64, 96
10, 42192, Note_on_c, 9, 35, 124
10, 42192, Note_on_c, 9, 42, 66
10, 42192, Note_on_c, 9, 54, 42
10, 42192, Note_on_c, 9, 64, 44
10, 42193, Note_off_c, 9, 42, 66
10, 42193, Note_off_c, 9, 35, 124
10, 42209, Note_off_c, 9, 54, 42
10, 42217, Note_off_c, 9, 64, 44
10, 42240, Note_on_c, 9, 35, 124
10, 42240, Note_on_c, 9, 42, 94
10, 42240, Note_on_c, 9, 54, 72
10, 42240, Note_on_c, 9, 62, 109
10, 42241, Note_off_c, 9, 42, 94
10, 42241, Note_off_c, 9, 35, 124
10, 42268, Note_off_c, 9, 62, 109
10, 42273, Note_off_c, 9, 54, 72
10, 42288, Note_on_c, 9, 42, 82
10, 42289, Note_off_c, 9, 42, 82
10, 42336, Note_on_c, 9, 46, 87
10, 42336, Note_on_c, 9, 54, 66
10, 42336, Note_on_c, 9, 62, 41
10, 42337, Note_off_c, 9, 46, 87
10, 42358, Note_off_c, 9, 62, 41
10, 42358, Note_off_c, 9, 54, 66
10, 42384, Note_on_c, 9, 54, 34
10, 42384, Note_on_c, 9, 63, 104
10, 42399, Note_off_c, 9, 54, 34
10, 42421, Note_off_c, 9, 63, 104
10, 42432, Note_on_c, 9, 40, 124
10, 42432, Note_on_c, 9, 42, 94
10, 42432, Note_on_c, 9, 54, 68
10, 42433, Note_off_c, 9, 42, 94
10, 42433, Note_off_c, 9, 40, 124
10, 42463, Note_off_c, 9, 54, 68
10, 42480, Note_on_c, 9, 42, 70
10, 42480, Note_on_c, 9, 63, 36
10, 42481, Note_off_c, 9, 42, 70
10, 42497, Note_off_c, 9, 63, 36
10, 42528, Note_on_c, 9, 42, 78
10, 42528, Note_on_c, 9, 54, 54
10, 42528, Note_on_c, 9, 64, 96
10, 42529, Note_off_c, 9, 42, 78
10, 42549, Note_off_c, 9, 54, 54
10, 42550, Note_off_c, 9, 64, 96
10, 42576, Note_on_c, 9, 42, 72
10, 42576, Note_on_c, 9, 54, 26
10, 42577, Note_off_c, 9, 42, 72
10, 42592, Note_off_c, 9, 54, 26
10, 42624, Note_on_c, 9, 35, 124
10, 42624, Note_on_c, 9, 42, 98
10, 42624, Note_on_c, 9, 54, 68
10, 42624, Note_on_c, 9, 62, 101
10, 42625, Note_off_c, 9, 42, 98
10, 42625, Note_off_c, 9, 35, 124
10, 42655, Note_off_c, 9, 54, 68
10, 42660, Note_off_c, 9, 62, 101
10, 42672, Note_on_c, 9, 42, 66
10, 42673, Note_off_c, 9, 42, 66
10, 42720, Note_on_c, 9, 42, 86
10, 42720, Note_on_c, 9, 54, 58
10, 42720, Note_on_c, 9, 62, 33
10, 42721, Note_off_c, 9, 42, 86
10, 42742, Note_off_c, 9, 54, 58
10, 42744, Note_off_c, 9, 62, 33
10, 42768, Note_on_c, 9, 42, 70
10, 42768, Note_on_c, 9, 54, 38
10, 42768, Note_on_c, 9, 63, 100
10, 42769, Note_off_c, 9, 42, 70
10, 42790, Note_off_c, 9, 54, 38
10, 42805, Note_off_c, 9, 63, 100
10, 42816, Note_on_c, 9, 40, 124
10, 42816, Note_on_c, 9, 42, 96
10, 42816, Note_on_c, 9, 54, 68
10, 42817, Note_off_c, 9, 42, 96
10, 42817, Note_off_c, 9, 40, 124
10, 42846, Note_off_c, 9, 54, 68
10, 42864, Note_on_c, 9, 42, 62
10, 42864, Note_on_c, 9, 63, 44
10, 42865, Note_off_c, 9, 42, 62
10, 42884, Note_off_c, 9, 63, 44
10, 42912, Note_on_c, 9, 42, 86
10, 42912, Note_on_c, 9, 54, 50
10, 42912, Note_on_c, 9, 64, 96
10, 42913, Note_off_c, 9, 42, 86
10, 42927, Note_off_c, 9, 54, 50
10, 42937, Note_off_c, 9, 64, 96
10, 42960, Note_on_c, 9, 35, 124
10, 42960, Note_on_c, 9, 42, 68
10, 42960, Note_on_c, 9, 54, 58
10, 42960, Note_on_c, 9, 64, 44
10, 42961, Note_off_c, 9, 42, 68
10, 42961, Note_off_c, 9, 35, 124
10, 42980, Note_off_c, 9, 54, 58
10, 42985, Note_off_c, 9, 64, 44
10, 43008, Note_on_c, 9, 35, 124
10, 43008, Note_on_c, 9, 42, 98
10, 43008, Note_on_c, 9, 54, 68
10, 43008, Note_on_c, 9, 62, 101
10, 43009, Note_off_c, 9, 42, 98
10, 43009, Note_off_c, 9, 35, 124
10, 43034, Note_off_c, 9, 62, 101
10, 43041, Note_off_c, 9, 54, 68
10, 43056, Note_on_c, 9, 42, 70
10, 43057, Note_off_c, 9, 42, 70
10, 43104, Note_on_c, 9, 46, 87
10, 43104, Note_on_c, 9, 54, 34
10, 43104, Note_on_c, 9, 62, 40
10, 43105, Note_off_c, 9, 46, 87
10, 43122, Note_off_c, 9, 62, 40
10, 43130, Note_off_c, 9, 54, 34
10, 43152, Note_on_c, 9, 54, 34
10, 43152, Note_on_c, 9, 63, 104
10, 43171, Note_off_c, 9, 54, 34
10, 43188, Note_off_c, 9, 63, 104
10, 43200, Note_on_c, 9, 40, 124
10, 43200, Note_on_c, 9, 42, 96
10, 43200, Note_on_c, 9, 54, 68
10, 43201, Note_off_c, 9, 42, 96
10, 43201, Note_off_c, 9, 40, 124
10, 43231, Note_off_c, 9, 54, 68
10, 43248, Note_on_c, 9, 42, 66
10, 43248, Note_on_c, 9, 63, 40
10, 43249, Note_off_c, 9, 42, 66
10, 43270, Note_off_c, 9, 63, 40
10, 43296, Note_on_c, 9, 42, 84
10, 43296, Note_on_c, 9, 54, 54
10, 43296, Note_on_c, 9, 64, 92
10, 43297, Note_off_c, 9, 42, 84
10, 43314, Note_off_c, 9, 64, 92
10, 43318, Note_off_c, 9, 54, 54
10, 43344, Note_on_c, 9, 42, 66
10, 43344, Note_on_c, 9, 54, 54
10, 43345, Note_off_c, 9, 42, 66
10, 43363, Note_off_c, 9, 54, 54
10, 43392, Note_on_c, 9, 35, 124
10, 43392, Note_on_c, 9, 42, 96
10, 43392, Note_on_c, 9, 54, 68
10, 43392, Note_on_c, 9, 62, 105
10, 43393, Note_off_c, 9, 42, 96
10, 43393, Note_off_c, 9, 35, 124
10, 43423, Note_off_c, 9, 54, 68
10, 43426, Note_off_c, 9, 62, 105
10, 43440, Note_on_c, 9, 42, 66
10, 43441, Note_off_c, 9, 42, 66
10, 43488, Note_on_c, 9, 42, 76
10, 43488, Note_on_c, 9, 54, 58
10, 43488, Note_on_c, 9, 62, 33
10, 43489, Note_off_c, 9, 42, 76
10, 43509, Note_off_c, 9, 54, 58
10, 43515, Note_off_c, 9, 62, 33
10, 43536, Note_on_c, 9, 42, 68
10, 43536, Note_on_c, 9, 54, 42
10, 43536, Note_on_c, 9, 63, 104
10, 43537, Note_off_c, 9, 42, 68
10, 43557, Note_off_c, 9, 54, 42
10, 43572, Note_off_c, 9, 63, 104
10, 43584, Note_on_c, 9, 40, 124
10, 43584, Note_on_c, 9, 42, 96
10, 43584, Note_on_c, 9, 54, 72
10, 43585, Note_off_c, 9, 42, 96
10, 43585, Note_off_c, 9, 40, 124
10, 43616, Note_off_c, 9, 54, 72
10, 43632, Note_on_c, 9, 42, 50
10, 43632, Note_on_c, 9, 63, 32
10, 43633, Note_off_c, 9, 42, 50
10, 43650, Note_off_c, 9, 63, 32
10, 43680, Note_on_c, 9, 42, 78
10, 43680, Note_on_c, 9, 54, 66
10, 43680, Note_on_c, 9, 64, 92
10, 43681, Note_off_c, 9, 42, 78
10, 43700, Note_off_c, 9, 64, 92
10, 43701, Note_off_c, 9, 54, 66
10, 43728, Note_on_c, 9, 35, 124
10, 43728, Note_on_c, 9, 42, 68
10, 43728, Note_on_c, 9, 54, 42
10, 43728, Note_on_c, 9, 64, 68
10, 43729, Note_off_c, 9, 42, 68
10, 43729, Note_off_c, 9, 35, 124
10, 43745, Note_off_c, 9, 54, 42
10, 43755, Note_off_c, 9, 64, 68
10, 43776, Note_on_c, 9, 35, 124
10, 43776, Note_on_c, 9, 42, 96
10, 43776, Note_on_c, 9, 54, 72
10, 43776, Note_on_c, 9, 62, 109
10, 43777, Note_off_c, 9, 42, 96
10, 43777, Note_off_c, 9, 35, 124
10, 43802, Note_off_c, 9, 62, 109
10, 43809, Note_off_c, 9, 54, 72
10, 43824, Note_on_c, 9, 42, 72
10, 43825, Note_off_c, 9, 42, 72
10, 43872, Note_on_c, 9, 46, 89
10, 43872, Note_on_c, 9, 54, 66
10, 43872, Note_on_c, 9, 62, 61
10, 43873, Note_off_c, 9, 46, 89
10, 43894, Note_off_c, 9, 54, 66
10, 43895, Note_off_c, 9, 62, 61
10, 43920, Note_on_c, 9, 54, 34
10, 43920, Note_on_c, 9, 63, 104
10, 43935, Note_off_c, 9, 54, 34
10, 43955, Note_off_c, 9, 63, 104
10, 43968, Note_on_c, 9, 40, 124
10, 43968, Note_on_c, 9, 42, 96
10, 43968, Note_on_c, 9, 54, 68
10, 43969, Note_off_c, 9, 42, 96
10, 43969, Note_off_c, 9, 40, 124
10, 43999, Note_off_c, 9, 54, 68
10, 44016, Note_on_c, 9, 42, 68
10, 44016, Note_on_c, 9, 63, 60
10, 44017, Note_off_c, 9, 42, 68
10, 44033, Note_off_c, 9, 63, 60
10, 44064, Note_on_c, 9, 42, 70
10, 44064, Note_on_c, 9, 54, 54
10, 44064, Note_on_c, 9, 64, 88
10, 44065, Note_off_c, 9, 42, 70
10, 44080, Note_off_c, 9, 64, 88
10, 44085, Note_off_c, 9, 54, 54
10, 44112, Note_on_c, 9, 42, 70
10, 44112, Note_on_c, 9, 54, 26
10, 44113, Note_off_c, 9, 42, 70
10, 44128, Note_off_c, 9, 54, 26
10, 44160, Note_on_c, 9, 35, 124
10, 44160, Note_on_c, 9, 42, 96
10, 44160, Note_on_c, 9, 54, 68
10, 44160, Note_on_c, 9, 62, 109
10, 44161, Note_off_c, 9, 42, 96
10, 44161, Note_off_c, 9, 35, 124
10, 44191, Note_off_c, 9, 62, 109
10, 44191, Note_off_c, 9, 54, 68
10, 44208, Note_on_c, 9, 42, 76
10, 44209, Note_off_c, 9, 42, 76
10, 44256, Note_on_c, 9, 42, 78
10, 44256, Note_on_c, 9, 54, 58
10, 44256, Note_on_c, 9, 62, 45
10, 44257, Note_off_c, 9, 42, 78
10, 44275, Note_off_c, 9, 62, 45
10, 44278, Note_off_c, 9, 54, 58
10, 44304, Note_on_c, 9, 42, 72
10, 44304, Note_on_c, 9, 54, 38
10, 44304, Note_on_c, 9, 63, 104
10, 44305, Note_off_c, 9, 42, 72
10, 44326, Note_off_c, 9, 54, 38
10, 44335, Note_off_c, 9, 63, 104
10, 44352, Note_on_c, 9, 40, 111
10, 44352, Note_on_c, 9, 42, 100
10, 44352, Note_on_c, 9, 54, 68
10, 44353, Note_off_c, 9, 42, 100
10, 44353, Note_off_c, 9, 40, 111
10, 44382, Note_off_c, 9, 54, 68
10, 44400, Note_on_c, 9, 42, 88
10, 44400, Note_on_c, 9, 63, 47
10, 44401, Note_off_c, 9, 42, 88
10, 44416, Note_off_c, 9, 63, 47
10, 44448, Note_on_c, 9, 42, 94
10, 44448, Note_on_c, 9, 54, 50
10, 44448, Note_on_c, 9, 64, 104
10, 44449, Note_off_c, 9, 42, 94
10, 44463, Note_off_c, 9, 54, 50
10, 44468, Note_off_c, 9, 64, 104
10, 44496, Note_on_c, 9, 35, 124
10, 44496, Note_on_c, 9, 42, 72
10, 44496, Note_on_c, 9, 54, 58
10, 44496, Note_on_c, 9, 64, 84
10, 44497, Note_off_c, 9, 42, 72
10, 44497, Note_off_c, 9, 35, 124
10, 44514, Note_off_c, 9, 64, 84
10, 44516, Note_off_c, 9, 54, 58
10, 44544, Note_on_c, 9, 35, 124
10, 44544, Note_on_c, 9, 42, 94
10, 44544, Note_on_c, 9, 54, 68
10, 44544, Note_on_c, 9, 62, 109
10, 44545, Note_off_c, 9, 42, 94
10, 44545, Note_off_c, 9, 35, 124
10, 44572, Note_off_c, 9, 62, 109
10, 44577, Note_off_c, 9, 54, 68
10, 44592, Note_on_c, 9, 42, 86
10, 44593, Note_off_c, 9, 42, 86
10, 44640, Note_on_c, 9, 46, 87
10, 44640, Note_on_c, 9, 54, 34
10, 44640, Note_on_c, 9, 62, 41
10, 44641, Note_off_c, 9, 46, 87
10, 44662, Note_off_c, 9, 62, 41
10, 44666, Note_off_c, 9, 54, 34
10, 44688, Note_on_c, 9, 54, 34
10, 44688, Note_on_c, 9, 63, 104
10, 44707, Note_off_c, 9, 54, 34
10, 44725, Note_off_c, 9, 63, 104
10, 44736, Note_on_c, 9, 40, 124
10, 44736, Note_on_c, 9, 42, 96
10, 44736, Note_on_c, 9, 54, 68
10, 44737, Note_off_c, 9, 42, 96
10, 44737, Note_off_c, 9, 40, 124
10, 44767, Note_off_c, 9, 54, 68
10, 44784, Note_on_c, 9, 42, 66
10, 44784, Note_on_c, 9, 63, 36
10, 44785, Note_off_c, 9, 42, 66
10, 44801, Note_off_c, 9, 63, 36
10, 44832, Note_on_c, 9, 42, 86
10, 44832, Note_on_c, 9, 54, 54
10, 44832, Note_on_c, 9, 64, 96
10, 44833, Note_off_c, 9, 42, 86
10, 44854, Note_off_c, 9, 64, 96
10, 44854, Note_off_c, 9, 54, 54
10, 44880, Note_on_c, 9, 42, 74
10, 44880, Note_on_c, 9, 54, 54
10, 44881, Note_off_c, 9, 42, 74
10, 44899, Note_off_c, 9, 54, 54
10, 44928, Note_on_c, 9, 35, 124
10, 44928, Note_on_c, 9, 42, 98
10, 44928, Note_on_c, 9, 54, 68
10, 44928, Note_on_c, 9, 62, 101
10, 44929, Note_off_c, 9, 42, 98
10, 44929, Note_off_c, 9, 35, 124
10, 44959, Note_off_c, 9, 54, 68
10, 44964, Note_off_c, 9, 62, 101
10, 44976, Note_on_c, 9, 42, 58
10, 44977, Note_off_c, 9, 42, 58
10, 45024, Note_on_c, 9, 42, 72
10, 45024, Note_on_c, 9, 54, 58
10, 45024, Note_on_c, 9, 62, 33
10, 45025, Note_off_c, 9, 42, 72
10, 45045, Note_off_c, 9, 54, 58
10, 45048, Note_off_c, 9, 62, 33
10, 45072, Note_on_c, 9, 42, 70
10, 45072, Note_on_c, 9, 54, 42
10, 45072, Note_on_c, 9, 63, 100
10, 45073, Note_off_c, 9, 42, 70
10, 45093, Note_off_c, 9, 54, 42
10, 45109, Note_off_c, 9, 63, 100
10, 45120, Note_on_c, 9, 40, 124
10, 45120, Note_on_c, 9, 42, 100
10, 45120, Note_on_c, 9, 54, 72
10, 45121, Note_off_c, 9, 42, 100
10, 45121, Note_off_c, 9, 40, 124
10, 45152, Note_off_c, 9, 54, 72
10, 45168, Note_on_c, 9, 42, 64
10, 45168, Note_on_c, 9, 63, 44
10, 45169, Note_off_c, 9, 42, 64
10, 45188, Note_off_c, 9, 63, 44
10, 45216, Note_on_c, 9, 42, 88
10, 45216, Note_on_c, 9, 54, 66
10, 45216, Note_on_c, 9, 64, 96
10, 45217, Note_off_c, 9, 42, 88
10, 45237, Note_off_c, 9, 54, 66
10, 45241, Note_off_c, 9, 64, 96
10, 45264, Note_on_c, 9, 35, 124
10, 45264, Note_on_c, 9, 42, 66
10, 45264, Note_on_c, 9, 54, 42
10, 45264, Note_on_c, 9, 64, 44
10, 45265, Note_off_c, 9, 42, 66
10, 45265, Note_off_c, 9, 35, 124
10, 45281, Note_off_c, 9, 54, 42
10, 45289, Note_off_c, 9, 64, 44
10, 45312, Note_on_c, 9, 35, 124
10, 45312, Note_on_c, 9, 42, 94
10, 45312, Note_on_c, 9, 54, 72
10, 45312, Note_on_c, 9, 62, 109
10, 45313, Note_off_c, 9, 42, 94
10, 45313, Note_off_c, 9, 35, 124
10, 45340, Note_off_c, 9, 62, 109
10, 45345, Note_off_c, 9, 54, 72
10, 45360, Note_on_c, 9, 42, 82
10, 45361, Note_off_c, 9, 42, 82
10, 45408, Note_on_c, 9, 46, 87
10, 45408, Note_on_c, 9, 54, 66
10, 45408, Note_on_c, 9, 62, 41
10, 45409, Note_off_c, 9, 46, 87
10, 45430, Note_off_c, 9, 62, 41
10, 45430, Note_off_c, 9, 54, 66
10, 45456, Note_on_c, 9, 54, 34
10, 45456, Note_on_c, 9, 63, 104
10, 45471, Note_off_c, 9, 54, 34
10, 45493, Note_off_c, 9, 63, 104
10, 45504, Note_on_c, 9, 40, 124
10, 45504, Note_on_c, 9, 42, 94
10, 45504, Note_on_c, 9, 54, 68
10, 45505, Note_off_c, 9, 42, 94
10, 45505, Note_off_c, 9, 40, 124
10, 45535, Note_off_c, 9, 54, 68
10, 45552, Note_on_c, 9, 42, 70
10, 45552, Note_on_c, 9, 63, 36
10, 45553, Note_off_c, 9, 42, 70
10, 45569, Note_off_c, 9, 63, 36
10, 45600, Note_on_c, 9, 42, 78
10, 45600, Note_on_c, 9, 54, 54
10, 45600, Note_on_c, 9, 64, 96
10, 45601, Note_off_c, 9, 42, 78
10, 45621, Note_off_c, 9, 54, 54
10, 45622, Note_off_c, 9, 64, 96
10, 45648, Note_on_c, 9, 42, 72
10, 45648, Note_on_c, 9, 54, 26
10, 45649, Note_off_c, 9, 42, 72
10, 45664, Note_off_c, 9, 54, 26
10, 45696, Note_on_c, 9, 35, 124
10, 45696, Note_on_c, 9, 42, 98
10, 45696, Note_on_c, 9, 54, 68
10, 45696, Note_on_c, 9, 62, 101
10, 45697, Note_off_c, 9, 42, 98
10, 45697, Note_off_c, 9, 35, 124
10, 45727, Note_off_c, 9, 54, 68
10, 45732, Note_off_c, 9, 62, 101
10, 45744, Note_on_c, 9, 42, 66
10, 45745, Note_off_c, 9, 42, 66
10, 45792, Note_on_c, 9, 42, 86
10, 45792, Note_on_c, 9, 54, 58
10, 45792, Note_on_c, 9, 62, 33
10, 45793, Note_off_c, 9, 42, 86
10, 45814, Note_off_c, 9, 54, 58
10, 45816, Note_off_c, 9, 62, 33
10, 45840, Note_on_c, 9, 42, 70
10, 45840, Note_on_c, 9, 54, 38
10, 45840, Note_on_c, 9, 63, 100
10, 45841, Note_off_c, 9, 42, 70
10, 45862, Note_off_c, 9, 54, 38
10, 45877, Note_off_c, 9, 63, 100
10, 45888, Note_on_c, 9, 40, 124
10, 45888, Note_on_c, 9, 42, 96
10, 45888, Note_on_c, 9, 54, 68
10, 45889, Note_off_c, 9, 42, 96
10, 45889, Note_off_c, 9, 40, 124
10, 45918, Note_off_c, 9, 54, 68
10, 45936, Note_on_c, 9, 42, 62
10, 45936, Note_on_c, 9, 63, 44
10, 45937, Note_off_c, 9, 42, 62
10, 45956, Note_off_c, 9, 63, 44
10, 45984, Note_on_c, 9, 42, 86
10, 45984, Note_on_c, 9, 54, 50
10, 45984, Note_on_c, 9, 64, 96
10, 45985, Note_off_c, 9, 42, 86
10, 45999, Note_off_c, 9, 54, 50
10, 46009, Note_off_c, 9, 64, 96
10, 46032, Note_on_c, 9, 35, 124
10, 46032, Note_on_c, 9, 42, 68
10, 46032, Note_on_c, 9, 54, 58
10, 46032, Note_on_c, 9, 64, 44
10, 46033, Note_off_c, 9, 42, 68
10, 46033, Note_off_c, 9, 35, 124
10, 46052, Note_off_c, 9, 54, 58
10, 46057, Note_off_c, 9, 64, 44
10, 46080, Note_on_c, 9, 35, 124
10, 46080, Note_on_c, 9, 42, 98
10, 46080, Note_on_c, 9, 54, 68
10, 46080, Note_on_c, 9, 62, 101
10, 46081, Note_off_c, 9, 42, 98
10, 46081, Note_off_c, 9, 35, 124
10, 46106, Note_off_c, 9, 62, 101
10, 46113, Note_off_c, 9, 54, 68
10, 46128, Note_on_c, 9, 42, 70
10, 46129, Note_off_c, 9, 42, 70
10, 46176, Note_on_c, 9, 46, 87
10, 46176, Note_on_c, 9, 54, 34
10, 46176, Note_on_c, 9, 62, 40
10, 46177, Note_off_c, 9, 46, 87
10, 46194, Note_off_c, 9, 62, 40
10, 46202, Note_off_c, 9, 54, 34
10, 46224, Note_on_c, 9, 54, 34
10, 46224, Note_on_c, 9, 63, 104
10, 46243, Note_off_c, 9, 54, 34
10, 46260, Note_off_c, 9, 63, 104
10, 46272, Note_on_c, 9, 40, 124
10, 46272, Note_on_c, 9, 42, 96
10, 46272, Note_on_c, 9, 54, 68
10, 46273, Note_off_c, 9, 42, 96
10, 46273, Note_off_c, 9, 40, 124
10, 46303, Note_off_c, 9, 54, 68
10, 46320, Note_on_c, 9, 42, 66
10, 46320, Note_on_c, 9, 63, 40
10, 46321, Note_off_c, 9, 42, 66
10, 46342, Note_off_c, 9, 63, 40
10, 46368, Note_on_c, 9, 42, 84
10, 46368, Note_on_c, 9, 54, 54
10, 46368, Note_on_c, 9, 64, 92
10, 46369, Note_off_c, 9, 42, 84
10, 46386, Note_off_c, 9, 64, 92
10, 46390, Note_off_c, 9, 54, 54
10, 46416, Note_on_c, 9, 42, 66
10, 46416, Note_on_c, 9, 54, 54
10, 46417, Note_off_c, 9, 42, 66
10, 46435, Note_off_c, 9, 54, 54
10, 46464, Note_on_c, 9, 35, 124
10, 46464, Note_on_c, 9, 42, 96
10, 46464, Note_on_c, 9, 54, 68
10, 46464, Note_on_c, 9, 62, 105
10, 46465, Note_off_c, 9, 42, 96
10, 46465, Note_off_c, 9, 35, 124
10, 46495, Note_off_c, 9, 54, 68
10, 46498, Note_off_c, 9, 62, 105
10, 46512, Note_on_c, 9, 42, 66
10, 46513, Note_off_c, 9, 42, 66
10, 46560, Note_on_c, 9, 42, 76
10, 46560, Note_on_c, 9, 54, 58
10, 46560, Note_on_c, 9, 62, 33
10, 46561, Note_off_c, 9, 42, 76
10, 46581, Note_off_c, 9, 54, 58
10, 46587, Note_off_c, 9, 62, 33
10, 46608, Note_on_c, 9, 42, 68
10, 46608, Note_on_c, 9, 54, 42
10, 46608, Note_on_c, 9, 63, 104
10, 46609, Note_off_c, 9, 42, 68
10, 46629, Note_off_c, 9, 54, 42
10, 46644, Note_off_c, 9, 63, 104
10, 46656, Note_on_c, 9, 40, 124
10, 46656, Note_on_c, 9, 42, 96
10, 46656, Note_on_c, 9, 54, 72
10, 46657, Note_off_c, 9, 42, 96
10, 46657, Note_off_c, 9, 40, 124
10, 46688, Note_off_c, 9, 54, 72
10, 46704, Note_on_c, 9, 42, 50
10, 46704, Note_on_c, 9, 63, 32
10, 46705, Note_off_c, 9, 42, 50
10, 46722, Note_off_c, 9, 63, 32
10, 46752, Note_on_c, 9, 42, 78
10, 46752, Note_on_c, 9, 54, 66
10, 46752, Note_on_c, 9, 64, 92
10, 46753, Note_off_c, 9, 42, 78
10, 46772, Note_off_c, 9, 64, 92
10, 46773, Note_off_c, 9, 54, 66
10, 46800, Note_on_c, 9, 35, 124
10, 46800, Note_on_c, 9, 42, 68
10, 46800, Note_on_c, 9, 54, 42
10, 46800, Note_on_c, 9, 64, 68
10, 46801, Note_off_c, 9, 42, 68
10, 46801, Note_off_c, 9, 35, 124
10, 46817, Note_off_c, 9, 54, 42
10, 46827, Note_off_c, 9, 64, 68
10, 46848, Note_on_c, 9, 35, 124
10, 46848, Note_on_c, 9, 42, 96
10, 46848, Note_on_c, 9, 54, 72
10, 46848, Note_on_c, 9, 62, 109
10, 46849, Note_off_c, 9, 42, 96
10, 46849, Note_off_c, 9, 35, 124
10, 46874, Note_off_c, 9, 62, 109
10, 46881, Note_off_c, 9, 54, 72
10, 46896, Note_on_c, 9, 42, 72
10, 46897, Note_off_c, 9, 42, 72
10, 46944, Note_on_c, 9, 46, 89
10, 46944, Note_on_c, 9, 54, 66
10, 46944, Note_on_c, 9, 62, 61
10, 46945, Note_off_c, 9, 46, 89
10, 46966, Note_off_c, 9, 54, 66
10, 46967, Note_off_c, 9, 62, 61
10, 46992, Note_on_c, 9, 54, 34
10, 46992, Note_on_c, 9, 63, 104
10, 47007, Note_off_c, 9, 54, 34
10, 47027, Note_off_c, 9, 63, 104
10, 47040, Note_on_c, 9, 40, 124
10, 47040, Note_on_c, 9, 42, 96
10, 47040, Note_on_c, 9, 54, 68
10, 47041, Note_off_c, 9, 42, 96
10, 47041, Note_off_c, 9, 40, 124
10, 47071, Note_off_c, 9, 54, 68
10, 47088, Note_on_c, 9, 42, 68
10, 47088, Note_on_c, 9, 63, 60
10, 47089, Note_off_c, 9, 42, 68
10, 47105, Note_off_c, 9, 63, 60
10, 47136, Note_on_c, 9, 42, 70
10, 47136, Note_on_c, 9, 54, 54
10, 47136, Note_on_c, 9, 64, 88
10, 47137, Note_off_c, 9, 42, 70
10, 47152, Note_off_c, 9, 64, 88
10, 47157, Note_off_c, 9, 54, 54
10, 47184, Note_on_c, 9, 42, 70
10, 47184, Note_on_c, 9, 54, 26
10, 47185, Note_off_c, 9, 42, 70
10, 47200, Note_off_c, 9, 54, 26
10, 47232, Note_on_c, 9, 35, 124
10, 47232, Note_on_c, 9, 42, 96
10, 47232, Note_on_c, 9, 54, 68
10, 47232, Note_on_c, 9, 62, 109
10, 47233, Note_off_c, 9, 42, 96
10, 47233, Note_off_c, 9, 35, 124
10, 47263, Note_off_c, 9, 62, 109
10, 47263, Note_off_c, 9, 54, 68
10, 47280, Note_on_c, 9, 42, 76
10, 47281, Note_off_c, 9, 42, 76
10, 47328, Note_on_c, 9, 42, 78
10, 47328, Note_on_c, 9, 54, 58
10, 47328, Note_on_c, 9, 62, 45
10, 47329, Note_off_c, 9, 42, 78
10, 47347, Note_off_c, 9, 62, 45
10, 47350, Note_off_c, 9, 54, 58
10, 47376, Note_on_c, 9, 42, 72
10, 47376, Note_on_c, 9, 54, 38
10, 47376, Note_on_c, 9, 63, 104
10, 47377, Note_off_c, 9, 42, 72
10, 47398, Note_off_c, 9, 54, 38
10, 47407, Note_off_c, 9, 63, 104
10, 47424, Note_on_c, 9, 40, 111
10, 47424, Note_on_c, 9, 42, 100
10, 47424, Note_on_c, 9, 54, 68
10, 47425, Note_off_c, 9, 42, 100
10, 47425, Note_off_c, 9, 40, 111
10, 47454, Note_off_c, 9, 54, 68
10, 47472, Note_on_c, 9, 42, 88
10, 47472, Note_on_c, 9, 63, 47
10, 47473, Note_off_c, 9, 42, 88
10, 47488, Note_off_c, 9, 63, 47
10, 47520, Note_on_c, 9, 42, 94
10, 47520, Note_on_c, 9, 45, 111
10, 47520, Note_on_c, 9, 54, 50
10, 47520, Note_on_c, 9, 64, 104
10, 47521, Note_off_c, 9, 42, 94
10, 47535, Note_off_c, 9, 54, 50
10, 47540, Note_off_c, 9, 64, 104
10, 47543, Note_off_c, 9, 45, 111
10, 47568, Note_on_c, 9, 35, 124
10, 47568, Note_on_c, 9, 42, 72
10, 47568, Note_on_c, 9, 43, 111
10, 47568, Note_on_c, 9, 54, 58
10, 47568, Note_on_c, 9, 64, 84
10, 47569, Note_off_c, 9, 42, 72
10, 47569, Note_off_c, 9, 35, 124
10, 47586, Note_off_c, 9, 64, 84
10, 47588, Note_off_c, 9, 54, 58
10, 47591, Note_off_c, 9, 43, 111
10, 47616, Note_on_c, 9, 35, 124
10, 47616, Note_on_c, 9, 42, 92
10, 47616, Note_on_c, 9, 62, 109
10, 47617, Note_off_c, 9, 42, 92
10, 47617, Note_off_c, 9, 35, 124
10, 47644, Note_off_c, 9, 62, 109
10, 47664, Note_on_c, 9, 42, 86
10, 47665, Note_off_c, 9, 42, 86
10, 47712, Note_on_c, 9, 46, 87
10, 47712, Note_on_c, 9, 62, 41
10, 47713, Note_off_c, 9, 46, 87
10, 47734, Note_off_c, 9, 62, 41
10, 47760, Note_on_c, 9, 63, 104
10, 47797, Note_off_c, 9, 63, 104
10, 47808, Note_on_c, 9, 40, 124
10, 47808, Note_on_c, 9, 42, 96
10, 47809, Note_off_c, 9, 42, 96
10, 47809, Note_off_c, 9, 40, 124
10, 47856, Note_on_c, 9, 42, 66
10, 47856, Note_on_c, 9, 63, 36
10, 47857, Note_off_c, 9, 42, 66
10, 47873, Note_off_c, 9, 63, 36
10, 47904, Note_on_c, 9, 42, 86
10, 47904, Note_on_c, 9, 64, 96
10, 47905, Note_off_c, 9, 42, 86
10, 47926, Note_off_c, 9, 64, 96
10, 47952, Note_on_c, 9, 42, 74
10, 47953, Note_off_c, 9, 42, 74
10, 48000, Note_on_c, 9, 35, 124
10, 48000, Note_on_c, 9, 42, 98
10, 48000, Note_on_c, 9, 62, 101
10, 48001, Note_off_c, 9, 42, 98
10, 48001, Note_off_c, 9, 35, 124
10, 48036, Note_off_c, 9, 62, 101
10, 48048, Note_on_c, 9, 42, 58
10, 48049, Note_off_c, 9, 42, 58
10, 48096, Note_on_c, 9, 42, 72
10, 48096, Note_on_c, 9, 62, 33
10, 48097, Note_off_c, 9, 42, 72
10, 48120, Note_off_c, 9, 62, 33
10, 48144, Note_on_c, 9, 42, 70
10, 48144, Note_on_c, 9, 63, 100
10, 48145, Note_off_c, 9, 42, 70
10, 48181, Note_off_c, 9, 63, 100
10, 48192, Note_on_c, 9, 40, 124
10, 48192, Note_on_c, 9, 42, 100
10, 48193, Note_off_c, 9, 42, 100
10, 48193, Note_off_c, 9, 40, 124
10, 48240, Note_on_c, 9, 42, 64
10, 48240, Note_on_c, 9, 63, 44
10, 48241, Note_off_c, 9, 42, 64
10, 48260, Note_off_c, 9, 63, 44
10, 48288, Note_on_c, 9, 42, 88
10, 48288, Note_on_c, 9, 64, 96
10, 48289, Note_off_c, 9, 42, 88
10, 48313, Note_off_c, 9, 64, 96
10, 48336, Note_on_c, 9, 35, 124
10, 48336, Note_on_c, 9, 42, 66
10, 48336, Note_on_c, 9, 64, 44
10, 48337, Note_off_c, 9, 42, 66
10, 48337, Note_off_c, 9, 35, 124
10, 48361, Note_off_c, 9, 64, 44
10, 48384, Note_on_c, 9, 35, 124
10, 48384, Note_on_c, 9, 42, 94
10, 48384, Note_on_c, 9, 62, 109
10, 48385, Note_off_c, 9, 42, 94
10, 48385, Note_off_c, 9, 35, 124
10, 48412, Note_off_c, 9, 62, 109
10, 48432, Note_on_c, 9, 42, 82
10, 48433, Note_off_c, 9, 42, 82
10, 48480, Note_on_c, 9, 46, 87
10, 48480, Note_on_c, 9, 62, 41
10, 48481, Note_off_c, 9, 46, 87
10, 48502, Note_off_c, 9, 62, 41
10, 48528, Note_on_c, 9, 63, 104
10, 48565, Note_off_c, 9, 63, 104
10, 48576, Note_on_c, 9, 40, 124
10, 48576, Note_on_c, 9, 42, 94
10, 48577, Note_off_c, 9, 42, 94
10, 48577, Note_off_c, 9, 40, 124
10, 48624, Note_on_c, 9, 42, 70
10, 48624, Note_on_c, 9, 63, 36
10, 48625, Note_off_c, 9, 42, 70
10, 48641, Note_off_c, 9, 63, 36
10, 48672, Note_on_c, 9, 42, 78
10, 48672, Note_on_c, 9, 64, 96
10, 48673, Note_off_c, 9, 42, 78
10, 48694, Note_off_c, 9, 64, 96
10, 48720, Note_on_c, 9, 42, 72
10, 48721, Note_off_c, 9, 42, 72
10, 48768, Note_on_c, 9, 35, 124
10, 48768, Note_on_c, 9, 42, 98
10, 48768, Note_on_c, 9, 62, 101
10, 48769, Note_off_c, 9, 42, 98
10, 48769, Note_off_c, 9, 35, 124
10, 48804, Note_off_c, 9, 62, 101
10, 48816, Note_on_c, 9, 42, 66
10, 48817, Note_off_c, 9, 42, 66
10, 48864, Note_on_c, 9, 42, 86
10, 48864, Note_on_c, 9, 62, 33
10, 48865, Note_off_c, 9, 42, 86
10, 48888, Note_off_c, 9, 62, 33
10, 48912, Note_on_c, 9, 42, 70
10, 48912, Note_on_c, 9, 63, 100
10, 48913, Note_off_c, 9, 42, 70
10, 48949, Note_off_c, 9, 63, 100
10, 48960, Note_on_c, 9, 40, 124
10, 48960, Note_on_c, 9, 42, 96
10, 48961, Note_off_c, 9, 42, 96
10, 48961, Note_off_c, 9, 40, 124
10, 49008, Note_on_c, 9, 42, 62
10, 49008, Note_on_c, 9, 63, 44
10, 49009, Note_off_c, 9, 42, 62
10, 49028, Note_off_c, 9, 63, 44
10, 49056, Note_on_c, 9, 42, 86
10, 49056, Note_on_c, 9, 64, 96
10, 49057, Note_off_c, 9, 42, 86
10, 49081, Note_off_c, 9, 64, 96
10, 49104, Note_on_c, 9, 35, 124
10, 49104, Note_on_c, 9, 42, 68
10, 49104, Note_on_c, 9, 64, 44
10, 49105, Note_off_c, 9, 42, 68
10, 49105, Note_off_c, 9, 35, 124
10, 49129, Note_off_c, 9, 64, 44
10, 49152, Note_on_c, 9, 35, 124
10, 49152, Note_on_c, 9, 42, 98
10, 49152, Note_on_c, 9, 62, 101
10, 49153, Note_off_c, 9, 42, 98
10, 49153, Note_off_c, 9, 35, 124
10, 49178, Note_off_c, 9, 62, 101
10, 49200, Note_on_c, 9, 42, 70
10, 49201, Note_off_c, 9, 42, 70
10, 49248, Note_on_c, 9, 46, 87
10, 49248, Note_on_c, 9, 62, 40
10, 49249, Note_off_c, 9, 46, 87
10, 49266, Note_off_c, 9, 62, 40
10, 49296, Note_on_c, 9, 63, 104
10, 49332, Note_off_c, 9, 63, 104
10, 49344, Note_on_c, 9, 40, 124
10, 49344, Note_on_c, 9, 42, 96
10, 49345, Note_off_c, 9, 42, 96
10, 49345, Note_off_c, 9, 40, 124
10, 49392, Note_on_c, 9, 42, 66
10, 49392, Note_on_c, 9, 63, 40
10, 49393, Note_off_c, 9, 42, 66
10, 49414, Note_off_c, 9, 63, 40
10, 49440, Note_on_c, 9, 42, 84
10, 49440, Note_on_c, 9, 64, 92
10, 49441, Note_off_c, 9, 42, 84
10, 49458, Note_off_c, 9, 64, 92
10, 49488, Note_on_c, 9, 42, 66
10, 49489, Note_off_c, 9, 42, 66
10, 49536, Note_on_c, 9, 35, 124
10, 49536, Note_on_c, 9, 42, 96
10, 49536, Note_on_c, 9, 62, 105
10, 49537, Note_off_c, 9, 42, 96
10, 49537, Note_off_c, 9, 35, 124
10, 49570, Note_off_c, 9, 62, 105
10, 49584, Note_on_c, 9, 42, 66
10, 49585, Note_off_c, 9, 42, 66
10, 49632, Note_on_c, 9, 42, 76
10, 49632, Note_on_c, 9, 62, 33
10, 49633, Note_off_c, 9, 42, 76
10, 49659, Note_off_c, 9, 62, 33
10, 49680, Note_on_c, 9, 42, 68
10, 49680, Note_on_c, 9, 63, 104
10, 49681, Note_off_c, 9, 42, 68
10, 49716, Note_off_c, 9, 63, 104
10, 49728, Note_on_c, 9, 40, 124
10, 49728, Note_on_c, 9, 42, 96
10, 49729, Note_off_c, 9, 42, 96
10, 49729, Note_off_c, 9, 40, 124
10, 49776, Note_on_c, 9, 42, 50
10, 49776, Note_on_c, 9, 63, 32
10, 49777, Note_off_c, 9, 42, 50
10, 49794, Note_off_c, 9, 63, 32
10, 49824, Note_on_c, 9, 42, 78
10, 49824, Note_on_c, 9, 64, 92
10, 49825, Note_off_c, 9, 42, 78
10, 49844, Note_off_c, 9, 64, 92
10, 49872, Note_on_c, 9, 35, 124
10, 49872, Note_on_c, 9, 42, 68
10, 49872, Note_on_c, 9, 64, 68
10, 49873, Note_off_c, 9, 42, 68
10, 49873, Note_off_c, 9, 35, 124
10, 49899, Note_off_c, 9, 64, 68
10, 49920, Note_on_c, 9, 35, 124
10, 49920, Note_on_c, 9, 42, 96
10, 49920, Note_on_c, 9, 62, 109
10, 49921, Note_off_c, 9, 42, 96
10, 49921, Note_off_c, 9, 35, 124
10, 49946, Note_off_c, 9, 62, 109
10, 49968, Note_on_c, 9, 42, 72
10, 49969, Note_off_c, 9, 42, 72
10, 50016, Note_on_c, 9, 46, 89
10, 50016, Note_on_c, 9, 62, 61
10, 50017, Note_off_c, 9, 46, 89
10, 50039, Note_off_c, 9, 62, 61
10, 50064, Note_on_c, 9, 63, 104
10, 50099, Note_off_c, 9, 63, 104
10, 50112, Note_on_c, 9, 40, 124
10, 50112, Note_on_c, 9, 42, 96
10, 50113, Note_off_c, 9, 42, 96
10, 50113, Note_off_c, 9, 40, 124
10, 50160, Note_on_c, 9, 42, 68
10, 50160, Note_on_c, 9, 63, 60
10, 50161, Note_off_c, 9, 42, 68
10, 50177, Note_off_c, 9, 63, 60
10, 50208, Note_on_c, 9, 42, 70
10, 50208, Note_on_c, 9, 64, 88
10, 50209, Note_off_c, 9, 42, 70
10, 50224, Note_off_c, 9, 64, 88
10, 50256, Note_on_c, 9, 42, 70
10, 50257, Note_off_c, 9, 42, 70
10, 50304, Note_on_c, 9, 35, 124
10, 50304, Note_on_c, 9, 42, 96
10, 50304, Note_on_c, 9, 62, 109
10, 50305, Note_off_c, 9, 42, 96
10, 50305, Note_off_c, 9, 35, 124
10, 50335, Note_off_c, 9, 62, 109
10, 50352, Note_on_c, 9, 42, 76
10, 50353, Note_off_c, 9, 42, 76
10, 50400, Note_on_c, 9, 42, 78
10, 50400, Note_on_c, 9, 62, 45
10, 50401, Note_off_c, 9, 42, 78
10, 50419, Note_off_c, 9, 62, 45
10, 50448, Note_on_c, 9, 42, 72
10, 50448, Note_on_c, 9, 63, 104
10, 50449, Note_off_c, 9, 42, 72
10, 50479, Note_off_c, 9, 63, 104
10, 50496, Note_on_c, 9, 40, 111
10, 50496, Note_on_c, 9, 42, 100
10, 50497, Note_off_c, 9, 42, 100
10, 50497, Note_off_c, 9, 40, 111
10, 50544, Note_on_c, 9, 42, 88
10, 50544, Note_on_c, 9, 63, 47
10, 50545, Note_off_c, 9, 42, 88
10, 50560, Note_off_c, 9, 63, 47
10, 50592, Note_on_c, 9, 42, 94
10, 50592, Note_on_c, 9, 64, 104
10, 50593, Note_off_c, 9, 42, 94
10, 50612, Note_off_c, 9, 64, 104
10, 50640, Note_on_c, 9, 42, 72
10, 50640, Note_on_c, 9, 64, 84
10, 50641, Note_off_c, 9, 42, 72
10, 50658, Note_off_c, 9, 64, 84
10, 50688, Note_on_c, 9, 35, 124
10, 50688, Note_on_c, 9, 42, 94
10, 50688, Note_on_c, 9, 62, 109
10, 50689, Note_off_c, 9, 42, 94
10, 50689, Note_off_c, 9, 35, 124
10, 50716, Note_off_c, 9, 62, 109
10, 50736, Note_on_c, 9, 42, 82
10, 50737, Note_off_c, 9, 42, 82
10, 50784, Note_on_c, 9, 46, 87
10, 50784, Note_on_c, 9, 62, 41
10, 50785, Note_off_c, 9, 46, 87
10, 50806, Note_off_c, 9, 62, 41
10, 50832, Note_on_c, 9, 63, 104
10, 50869, Note_off_c, 9, 63, 104
10, 50880, Note_on_c, 9, 40, 124
10, 50880, Note_on_c, 9, 42, 96
10, 50881, Note_off_c, 9, 42, 96
10, 50881, Note_off_c, 9, 40, 124
10, 50928, Note_on_c, 9, 42, 66
10, 50928, Note_on_c, 9, 63, 36
10, 50929, Note_off_c, 9, 42, 66
10, 50945, Note_off_c, 9, 63, 36
10, 50976, Note_on_c, 9, 42, 86
10, 50976, Note_on_c, 9, 64, 96
10, 50977, Note_off_c, 9, 42, 86
10, 50998, Note_off_c, 9, 64, 96
10, 51024, Note_on_c, 9, 42, 74
10, 51025, Note_off_c, 9, 42, 74
10, 51072, Note_on_c, 9, 35, 124
10, 51072, Note_on_c, 9, 42, 98
10, 51072, Note_on_c, 9, 62, 101
10, 51073, Note_off_c, 9, 42, 98
10, 51073, Note_off_c, 9, 35, 124
10, 51108, Note_off_c, 9, 62, 101
10, 51120, Note_on_c, 9, 42, 58
10, 51121, Note_off_c, 9, 42, 58
10, 51168, Note_on_c, 9, 42, 72
10, 51168, Note_on_c, 9, 62, 33
10, 51169, Note_off_c, 9, 42, 72
10, 51192, Note_off_c, 9, 62, 33
10, 51216, Note_on_c, 9, 42, 70
10, 51216, Note_on_c, 9, 63, 100
10, 51217, Note_off_c, 9, 42, 70
10, 51253, Note_off_c, 9, 63, 100
10, 51264, Note_on_c, 9, 40, 124
10, 51264, Note_on_c, 9, 42, 100
10, 51265, Note_off_c, 9, 42, 100
10, 51265, Note_off_c, 9, 40, 124
10, 51312, Note_on_c, 9, 42, 64
10, 51312, Note_on_c, 9, 63, 44
10, 51313, Note_off_c, 9, 42, 64
10, 51332, Note_off_c, 9, 63, 44
10, 51360, Note_on_c, 9, 42, 88
10, 51360, Note_on_c, 9, 64, 96
10, 51361, Note_off_c, 9, 42, 88
10, 51385, Note_off_c, 9, 64, 96
10, 51408, Note_on_c, 9, 35, 124
10, 51408, Note_on_c, 9, 42, 66
10, 51408, Note_on_c, 9, 64, 44
10, 51409, Note_off_c, 9, 42, 66
10, 51409, Note_off_c, 9, 35, 124
10, 51433, Note_off_c, 9, 64, 44
10, 51456, Note_on_c, 9, 76, 84
10, 51456, Note_on_c, 9, 35, 124
10, 51456, Note_on_c, 9, 49, 86
10, 51456, Note_on_c, 9, 62, 109
10, 51457, Note_off_c, 9, 49, 86
10, 51457, Note_off_c, 9, 35, 124
10, 51484, Note_off_c, 9, 62, 109
10, 51496, Note_off_c, 9, 76, 84
10, 51504, Note_on_c, 9, 42, 82
10, 51505, Note_off_c, 9, 42, 82
10, 51552, Note_on_c, 9, 46, 87
10, 51552, Note_on_c, 9, 62, 41
10, 51553, Note_off_c, 9, 46, 87
10, 51574, Note_off_c, 9, 62, 41
10, 51600, Note_on_c, 9, 63, 104
10, 51637, Note_off_c, 9, 63, 104
10, 51648, Note_on_c, 9, 76, 84
10, 51648, Note_on_c, 9, 40, 124
10, 51648, Note_on_c, 9, 42, 94
10, 51649, Note_off_c, 9, 42, 94
10, 51649, Note_off_c, 9, 40, 124
10, 51689, Note_off_c, 9, 76, 84
10, 51696, Note_on_c, 9, 42, 70
10, 51696, Note_on_c, 9, 63, 36
10, 51697, Note_off_c, 9, 42, 70
10, 51713, Note_off_c, 9, 63, 36
10, 51744, Note_on_c, 9, 42, 78
10, 51744, Note_on_c, 9, 64, 96
10, 51745, Note_off_c, 9, 42, 78
10, 51766, Note_off_c, 9, 64, 96
10, 51792, Note_on_c, 9, 42, 72
10, 51793, Note_off_c, 9, 42, 72
10, 51840, Note_on_c, 9, 76, 84
10, 51840, Note_on_c, 9, 35, 124
10, 51840, Note_on_c, 9, 42, 98
10, 51840, Note_on_c, 9, 62, 101
10, 51841, Note_off_c, 9, 42, 98
10, 51841, Note_off_c, 9, 35, 124
10, 51876, Note_off_c, 9, 62, 101
10, 51880, Note_off_c, 9, 76, 84
10, 51888, Note_on_c, 9, 42, 66
10, 51889, Note_off_c, 9, 42, 66
10, 51936, Note_on_c, 9, 42, 86
10, 51936, Note_on_c, 9, 62, 33
10, 51937, Note_off_c, 9, 42, 86
10, 51960, Note_off_c, 9, 62, 33
10, 51984, Note_on_c, 9, 42, 70
10, 51984, Note_on_c, 9, 63, 100
10, 51985, Note_off_c, 9, 42, 70
10, 52021, Note_off_c, 9, 63, 100
10, 52032, Note_on_c, 9, 76, 84
10, 52032, Note_on_c, 9, 40, 124
10, 52032, Note_on_c, 9, 42, 96
10, 52033, Note_off_c, 9, 42, 96
10, 52033, Note_off_c, 9, 40, 124
10, 52070, Note_off_c, 9, 76, 84
10, 52080, Note_on_c, 9, 42, 62
10, 52080, Note_on_c, 9, 63, 44
10, 52081, Note_off_c, 9, 42, 62
10, 52100, Note_off_c, 9, 63, 44
10, 52128, Note_on_c, 9, 42, 86
10, 52128, Note_on_c, 9, 64, 96
10, 52129, Note_off_c, 9, 42, 86
10, 52153, Note_off_c, 9, 64, 96
10, 52176, Note_on_c, 9, 35, 124
10, 52176, Note_on_c, 9, 42, 68
10, 52176, Note_on_c, 9, 64, 44
10, 52177, Note_off_c, 9, 42, 68
10, 52177, Note_off_c, 9, 35, 124
10, 52201, Note_off_c, 9, 64, 44
10, 52224, Note_on_c, 9, 76, 84
10, 52224, Note_on_c, 9, 35, 124
10, 52224, Note_on_c, 9, 42, 98
10, 52224, Note_on_c, 9, 62, 109
10, 52225, Note_off_c, 9, 42, 98
10, 52225, Note_off_c, 9, 35, 124
10, 52252, Note_off_c, 9, 62, 109
10, 52268, Note_off_c, 9, 76, 84
10, 52272, Note_on_c, 9, 42, 70
10, 52273, Note_off_c, 9, 42, 70
10, 52320, Note_on_c, 9, 46, 87
10, 52320, Note_on_c, 9, 62, 41
10, 52321, Note_off_c, 9, 46, 87
10, 52342, Note_off_c, 9, 62, 41
10, 52368, Note_on_c, 9, 63, 104
10, 52405, Note_off_c, 9, 63, 104
10, 52416, Note_on_c, 9, 76, 84
10, 52416, Note_on_c, 9, 40, 124
10, 52416, Note_on_c, 9, 42, 96
10, 52417, Note_off_c, 9, 42, 96
10, 52417, Note_off_c, 9, 40, 124
10, 52455, Note_off_c, 9, 76, 84
10, 52464, Note_on_c, 9, 42, 66
10, 52464, Note_on_c, 9, 63, 36
10, 52465, Note_off_c, 9, 42, 66
10, 52481, Note_off_c, 9, 63, 36
10, 52512, Note_on_c, 9, 42, 84
10, 52512, Note_on_c, 9, 64, 96
10, 52513, Note_off_c, 9, 42, 84
10, 52534, Note_off_c, 9, 64, 96
10, 52560, Note_on_c, 9, 42, 66
10, 52561, Note_off_c, 9, 42, 66
10, 52608, Note_on_c, 9, 76, 84
10, 52608, Note_on_c, 9, 35, 124
10, 52608, Note_on_c, 9, 42, 96
10, 52608, Note_on_c, 9, 62, 101
10, 52609, Note_off_c, 9, 42, 96
10, 52609, Note_off_c, 9, 35, 124
10, 52643, Note_off_c, 9, 76, 84
10, 52644, Note_off_c, 9, 62, 101
10, 52656, Note_on_c, 9, 42, 66
10, 52657, Note_off_c, 9, 42, 66
10, 52704, Note_on_c, 9, 42, 76
10, 52704, Note_on_c, 9, 62, 33
10, 52705, Note_off_c, 9, 42, 76
10, 52728, Note_off_c, 9, 62, 33
10, 52752, Note_on_c, 9, 42, 68
10, 52752, Note_on_c, 9, 63, 100
10, 52753, Note_off_c, 9, 42, 68
10, 52789, Note_off_c, 9, 63, 100
10, 52800, Note_on_c, 9, 76, 84
10, 52800, Note_on_c, 9, 40, 124
10, 52800, Note_on_c, 9, 42, 96
10, 52801, Note_off_c, 9, 42, 96
10, 52801, Note_off_c, 9, 40, 124
10, 52837, Note_off_c, 9, 76, 84
10, 52848, Note_on_c, 9, 42, 50
10, 52848, Note_on_c, 9, 63, 44
10, 52849, Note_off_c, 9, 42, 50
10, 52868, Note_off_c, 9, 63, 44
10, 52896, Note_on_c, 9, 42, 78
10, 52896, Note_on_c, 9, 64, 96
10, 52897, Note_off_c, 9, 42, 78
10, 52921, Note_off_c, 9, 64, 96
10, 52944, Note_on_c, 9, 35, 124
10, 52944, Note_on_c, 9, 42, 68
10, 52944, Note_on_c, 9, 64, 44
10, 52945, Note_off_c, 9, 42, 68
10, 52945, Note_off_c, 9, 35, 124
10, 52969, Note_off_c, 9, 64, 44
10, 52992, Note_on_c, 9, 76, 84
10, 52992, Note_on_c, 9, 35, 124
10, 52992, Note_on_c, 9, 42, 96
10, 52992, Note_on_c, 9, 62, 109
10, 52993, Note_off_c, 9, 42, 96
10, 52993, Note_off_c, 9, 35, 124
10, 53020, Note_off_c, 9, 62, 109
10, 53028, Note_off_c, 9, 76, 84
10, 53040, Note_on_c, 9, 42, 72
10, 53041, Note_off_c, 9, 42, 72
10, 53088, Note_on_c, 9, 46, 89
10, 53088, Note_on_c, 9, 62, 41
10, 53089, Note_off_c, 9, 46, 89
10, 53110, Note_off_c, 9, 62, 41
10, 53136, Note_on_c, 9, 63, 104
10, 53173, Note_off_c, 9, 63, 104
10, 53184, Note_on_c, 9, 76, 84
10, 53184, Note_on_c, 9, 40, 124
10, 53184, Note_on_c, 9, 42, 96
10, 53185, Note_off_c, 9, 42, 96
10, 53185, Note_off_c, 9, 40, 124
10, 53217, Note_off_c, 9, 76, 84
10, 53232, Note_on_c, 9, 42, 68
10, 53232, Note_on_c, 9, 63, 36
10, 53233, Note_off_c, 9, 42, 68
10, 53249, Note_off_c, 9, 63, 36
10, 53280, Note_on_c, 9, 42, 70
10, 53280, Note_on_c, 9, 64, 96
10, 53281, Note_off_c, 9, 42, 70
10, 53302, Note_off_c, 9, 64, 96
10, 53328, Note_on_c, 9, 42, 70
10, 53329, Note_off_c, 9, 42, 70
10, 53376, Note_on_c, 9, 76, 84
10, 53376, Note_on_c, 9, 35, 124
10, 53376, Note_on_c, 9, 42, 96
10, 53376, Note_on_c, 9, 62, 101
10, 53377, Note_off_c, 9, 42, 96
10, 53377, Note_off_c, 9, 35, 124
10, 53409, Note_off_c, 9, 76, 84
10, 53412, Note_off_c, 9, 62, 101
10, 53424, Note_on_c, 9, 42, 76
10, 53425, Note_off_c, 9, 42, 76
10, 53472, Note_on_c, 9, 42, 78
10, 53472, Note_on_c, 9, 62, 33
10, 53473, Note_off_c, 9, 42, 78
10, 53496, Note_off_c, 9, 62, 33
10, 53520, Note_on_c, 9, 42, 72
10, 53520, Note_on_c, 9, 63, 100
10, 53521, Note_off_c, 9, 42, 72
10, 53557, Note_off_c, 9, 63, 100
10, 53568, Note_on_c, 9, 76, 84
10, 53568, Note_on_c, 9, 40, 124
10, 53568, Note_on_c, 9, 42, 100
10, 53569, Note_off_c, 9, 42, 100
10, 53569, Note_off_c, 9, 40, 124
10, 53601, Note_off_c, 9, 76, 84
10, 53616, Note_on_c, 9, 42, 88
10, 53616, Note_on_c, 9, 63, 44
10, 53617, Note_off_c, 9, 42, 88
10, 53636, Note_off_c, 9, 63, 44
10, 53664, Note_on_c, 9, 42, 94
10, 53664, Note_on_c, 9, 64, 96
10, 53665, Note_off_c, 9, 42, 94
10, 53689, Note_off_c, 9, 64, 96
10, 53712, Note_on_c, 9, 35, 124
10, 53712, Note_on_c, 9, 42, 72
10, 53712, Note_on_c, 9, 64, 44
10, 53713, Note_off_c, 9, 42, 72
10, 53713, Note_off_c, 9, 35, 124
10, 53737, Note_off_c, 9, 64, 44
10, 53760, Note_on_c, 9, 76, 84
10, 53760, Note_on_c, 9, 35, 124
10, 53760, Note_on_c, 9, 42, 94
10, 53760, Note_on_c, 9, 62, 109
10, 53761, Note_off_c, 9, 42, 94
10, 53761, Note_off_c, 9, 35, 124
10, 53788, Note_off_c, 9, 62, 109
10, 53794, Note_off_c, 9, 76, 84
10, 53808, Note_on_c, 9, 42, 82
10, 53809, Note_off_c, 9, 42, 82
10, 53856, Note_on_c, 9, 46, 87
10, 53856, Note_on_c, 9, 62, 41
10, 53857, Note_off_c, 9, 46, 87
10, 53878, Note_off_c, 9, 62, 41
10, 53904, Note_on_c, 9, 63, 104
10, 53941, Note_off_c, 9, 63, 104
10, 53952, Note_on_c, 9, 76, 84
10, 53952, Note_on_c, 9, 40, 124
10, 53952, Note_on_c, 9, 42, 96
10, 53953, Note_off_c, 9, 42, 96
10, 53953, Note_off_c, 9, 40, 124
10, 53985, Note_off_c, 9, 76, 84
10, 54000, Note_on_c, 9, 42, 66
10, 54000, Note_on_c, 9, 63, 36
10, 54001, Note_off_c, 9, 42, 66
10, 54017, Note_off_c, 9, 63, 36
10, 54048, Note_on_c, 9, 42, 86
10, 54048, Note_on_c, 9, 64, 96
10, 54049, Note_off_c, 9, 42, 86
10, 54070, Note_off_c, 9, 64, 96
10, 54096, Note_on_c, 9, 42, 74
10, 54097, Note_off_c, 9, 42, 74
10, 54144, Note_on_c, 9, 76, 84
10, 54144, Note_on_c, 9, 35, 124
10, 54144, Note_on_c, 9, 42, 98
10, 54144, Note_on_c, 9, 62, 101
10, 54145, Note_off_c, 9, 42, 98
10, 54145, Note_off_c, 9, 35, 124
10, 54176, Note_off_c, 9, 76, 84
10, 54180, Note_off_c, 9, 62, 101
10, 54192, Note_on_c, 9, 42, 58
10, 54193, Note_off_c, 9, 42, 58
10, 54240, Note_on_c, 9, 42, 72
10, 54240, Note_on_c, 9, 62, 33
10, 54241, Note_off_c, 9, 42, 72
10, 54264, Note_off_c, 9, 62, 33
10, 54288, Note_on_c, 9, 42, 70
10, 54288, Note_on_c, 9, 63, 100
10, 54289, Note_off_c, 9, 42, 70
10, 54325, Note_off_c, 9, 63, 100
10, 54336, Note_on_c, 9, 76, 84
10, 54336, Note_on_c, 9, 40, 124
10, 54336, Note_on_c, 9, 42, 100
10, 54337, Note_off_c, 9, 42, 100
10, 54337, Note_off_c, 9, 40, 124
10, 54366, Note_off_c, 9, 76, 84
10, 54384, Note_on_c, 9, 42, 64
10, 54384, Note_on_c, 9, 63, 44
10, 54385, Note_off_c, 9, 42, 64
10, 54404, Note_off_c, 9, 63, 44
10, 54432, Note_on_c, 9, 42, 88
10, 54432, Note_on_c, 9, 64, 96
10, 54433, Note_off_c, 9, 42, 88
10, 54457, Note_off_c, 9, 64, 96
10, 54480, Note_on_c, 9, 35, 124
10, 54480, Note_on_c, 9, 42, 66
10, 54480, Note_on_c, 9, 64, 44
10, 54481, Note_off_c, 9, 42, 66
10, 54481, Note_off_c, 9, 35, 124
10, 54505, Note_off_c, 9, 64, 44
10, 54528, Note_on_c, 9, 76, 84
10, 54528, Note_on_c, 9, 35, 124
10, 54528, Note_on_c, 9, 42, 94
10, 54528, Note_on_c, 9, 62, 109
10, 54529, Note_off_c, 9, 42, 94
10, 54529, Note_off_c, 9, 35, 124
10, 54556, Note_off_c, 9, 62, 109
10, 54562, Note_off_c, 9, 76, 84
10, 54576, Note_on_c, 9, 42, 82
10, 54577, Note_off_c, 9, 42, 82
10, 54624, Note_on_c, 9, 46, 87
10, 54624, Note_on_c, 9, 62, 41
10, 54625, Note_off_c, 9, 46, 87
10, 54646, Note_off_c, 9, 62, 41
10, 54672, Note_on_c, 9, 63, 104
10, 54709, Note_off_c, 9, 63, 104
10, 54720, Note_on_c, 9, 76, 84
10, 54720, Note_on_c, 9, 40, 124
10, 54720, Note_on_c, 9, 42, 94
10, 54721, Note_off_c, 9, 42, 94
10, 54721, Note_off_c, 9, 40, 124
10, 54752, Note_off_c, 9, 76, 84
10, 54768, Note_on_c, 9, 42, 70
10, 54768, Note_on_c, 9, 63, 36
10, 54769, Note_off_c, 9, 42, 70
10, 54785, Note_off_c, 9, 63, 36
10, 54816, Note_on_c, 9, 42, 78
10, 54816, Note_on_c, 9, 64, 96
10, 54817, Note_off_c, 9, 42, 78
10, 54838, Note_off_c, 9, 64, 96
10, 54864, Note_on_c, 9, 42, 72
10, 54865, Note_off_c, 9, 42, 72
10, 54912, Note_on_c, 9, 76, 84
10, 54912, Note_on_c, 9, 35, 124
10, 54912, Note_on_c, 9, 42, 98
10, 54912, Note_on_c, 9, 62, 101
10, 54913, Note_off_c, 9, 42, 98
10, 54913, Note_off_c, 9, 35, 124
10, 54942, Note_off_c, 9, 76, 84
10, 54948, Note_off_c, 9, 62, 101
10, 54960, Note_on_c, 9, 42, 66
10, 54961, Note_off_c, 9, 42, 66
10, 55008, Note_on_c, 9, 42, 86
10, 55008, Note_on_c, 9, 62, 33
10, 55009, Note_off_c, 9, 42, 86
10, 55032, Note_off_c, 9, 62, 33
10, 55056, Note_on_c, 9, 42, 70
10, 55056, Note_on_c, 9, 63, 100
10, 55057, Note_off_c, 9, 42, 70
10, 55093, Note_off_c, 9, 63, 100
10, 55104, Note_on_c, 9, 76, 84
10, 55104, Note_on_c, 9, 40, 124
10, 55104, Note_on_c, 9, 42, 96
10, 55105, Note_off_c, 9, 42, 96
10, 55105, Note_off_c, 9, 40, 124
10, 55137, Note_off_c, 9, 76, 84
10, 55152, Note_on_c, 9, 42, 62
10, 55152, Note_on_c, 9, 63, 44
10, 55153, Note_off_c, 9, 42, 62
10, 55172, Note_off_c, 9, 63, 44
10, 55200, Note_on_c, 9, 42, 86
10, 55200, Note_on_c, 9, 64, 96
10, 55201, Note_off_c, 9, 42, 86
10, 55225, Note_off_c, 9, 64, 96
10, 55248, Note_on_c, 9, 35, 124
10, 55248, Note_on_c, 9, 42, 68
10, 55248, Note_on_c, 9, 64, 44
10, 55249, Note_off_c, 9, 42, 68
10, 55249, Note_off_c, 9, 35, 124
10, 55273, Note_off_c, 9, 64, 44
10, 55296, Note_on_c, 9, 76, 84
10, 55296, Note_on_c, 9, 35, 124
10, 55296, Note_on_c, 9, 42, 98
10, 55296, Note_on_c, 9, 62, 109
10, 55297, Note_off_c, 9, 42, 98
10, 55297, Note_off_c, 9, 35, 124
10, 55324, Note_off_c, 9, 62, 109
10, 55330, Note_off_c, 9, 76, 84
10, 55344, Note_on_c, 9, 42, 70
10, 55345, Note_off_c, 9, 42, 70
10, 55392, Note_on_c, 9, 46, 87
10, 55392, Note_on_c, 9, 62, 41
10, 55393, Note_off_c, 9, 46, 87
10, 55414, Note_off_c, 9, 62, 41
10, 55440, Note_on_c, 9, 63, 104
10, 55477, Note_off_c, 9, 63, 104
10, 55488, Note_on_c, 9, 76, 84
10, 55488, Note_on_c, 9, 40, 124
10, 55488, Note_on_c, 9, 42, 96
10, 55489, Note_off_c, 9, 42, 96
10, 55489, Note_off_c, 9, 40, 124
10, 55520, Note_off_c, 9, 76, 84
10, 55536, Note_on_c, 9, 42, 66
10, 55536, Note_on_c, 9, 63, 36
10, 55537, Note_off_c, 9, 42, 66
10, 55553, Note_off_c, 9, 63, 36
10, 55584, Note_on_c, 9, 42, 84
10, 55584, Note_on_c, 9, 64, 96
10, 55585, Note_off_c, 9, 42, 84
10, 55606, Note_off_c, 9, 64, 96
10, 55632, Note_on_c, 9, 42, 66
10, 55633, Note_off_c, 9, 42, 66
10, 55680, Note_on_c, 9, 76, 84
10, 55680, Note_on_c, 9, 35, 124
10, 55680, Note_on_c, 9, 42, 96
10, 55680, Note_on_c, 9, 62, 101
10, 55681, Note_off_c, 9, 42, 96
10, 55681, Note_off_c, 9, 35, 124
10, 55709, Note_off_c, 9, 76, 84
10, 55716, Note_off_c, 9, 62, 101
10, 55728, Note_on_c, 9, 42, 66
10, 55729, Note_off_c, 9, 42, 66
10, 55776, Note_on_c, 9, 42, 76
10, 55776, Note_on_c, 9, 62, 33
10, 55777, Note_off_c, 9, 42, 76
10, 55800, Note_off_c, 9, 62, 33
10, 55824, Note_on_c, 9, 42, 68
10, 55824, Note_on_c, 9, 63, 100
10, 55825, Note_off_c, 9, 42, 68
10, 55861, Note_off_c, 9, 63, 100
10, 55872, Note_on_c, 9, 76, 84
10, 55872, Note_on_c, 9, 40, 124
10, 55872, Note_on_c, 9, 42, 96
10, 55873, Note_off_c, 9, 42, 96
10, 55873, Note_off_c, 9, 40, 124
10, 55902, Note_off_c, 9, 76, 84
10, 55920, Note_on_c, 9, 42, 50
10, 55920, Note_on_c, 9, 63, 44
10, 55921, Note_off_c, 9, 42, 50
10, 55940, Note_off_c, 9, 63, 44
10, 55968, Note_on_c, 9, 42, 78
10, 55968, Note_on_c, 9, 64, 96
10, 55969, Note_off_c, 9, 42, 78
10, 55993, Note_off_c, 9, 64, 96
10, 56016, Note_on_c, 9, 35, 124
10, 56016, Note_on_c, 9, 42, 68
10, 56016, Note_on_c, 9, 64, 44
10, 56017, Note_off_c, 9, 42, 68
10, 56017, Note_off_c, 9, 35, 124
10, 56041, Note_off_c, 9, 64, 44
10, 56064, Note_on_c, 9, 76, 84
10, 56064, Note_on_c, 9, 35, 124
10, 56064, Note_on_c, 9, 42, 96
10, 56064, Note_on_c, 9, 62, 109
10, 56065, Note_off_c, 9, 42, 96
10, 56065, Note_off_c, 9, 35, 124
10, 56092, Note_off_c, 9, 62, 109
10, 56095, Note_off_c, 9, 76, 84
10, 56112, Note_on_c, 9, 42, 72
10, 56113, Note_off_c, 9, 42, 72
10, 56160, Note_on_c, 9, 46, 89
10, 56160, Note_on_c, 9, 62, 41
10, 56161, Note_off_c, 9, 46, 89
10, 56182, Note_off_c, 9, 62, 41
10, 56208, Note_on_c, 9, 63, 104
10, 56245, Note_off_c, 9, 63, 104
10, 56256, Note_on_c, 9, 76, 84
10, 56256, Note_on_c, 9, 40, 124
10, 56256, Note_on_c, 9, 42, 96
10, 56257, Note_off_c, 9, 42, 96
10, 56257, Note_off_c, 9, 40, 124
10, 56284, Note_off_c, 9, 76, 84
10, 56304, Note_on_c, 9, 42, 68
10, 56304, Note_on_c, 9, 63, 36
10, 56305, Note_off_c, 9, 42, 68
10, 56321, Note_off_c, 9, 63, 36
10, 56352, Note_on_c, 9, 42, 70
10, 56352, Note_on_c, 9, 64, 96
10, 56353, Note_off_c, 9, 42, 70
10, 56374, Note_off_c, 9, 64, 96
10, 56400, Note_on_c, 9, 42, 70
10, 56401, Note_off_c, 9, 42, 70
10, 56448, Note_on_c, 9, 76, 84
10, 56448, Note_on_c, 9, 35, 124
10, 56448, Note_on_c, 9, 42, 96
10, 56448, Note_on_c, 9, 62, 101
10, 56449, Note_off_c, 9, 42, 96
10, 56449, Note_off_c, 9, 35, 124
10, 56475, Note_off_c, 9, 76, 84
10, 56484, Note_off_c, 9, 62, 101
10, 56496, Note_on_c, 9, 42, 76
10, 56497, Note_off_c, 9, 42, 76
10, 56544, Note_on_c, 9, 42, 78
10, 56544, Note_on_c, 9, 62, 33
10, 56545, Note_off_c, 9, 42, 78
10, 56568, Note_off_c, 9, 62, 33
10, 56592, Note_on_c, 9, 42, 72
10, 56592, Note_on_c, 9, 63, 100
10, 56593, Note_off_c, 9, 42, 72
10, 56629, Note_off_c, 9, 63, 100
10, 56640, Note_on_c, 9, 76, 84
10, 56640, Note_on_c, 9, 40, 124
10, 56640, Note_on_c, 9, 42, 100
10, 56641, Note_off_c, 9, 42, 100
10, 56641, Note_off_c, 9, 40, 124
10, 56669, Note_off_c, 9, 76, 84
10, 56688, Note_on_c, 9, 42, 88
10, 56688, Note_on_c, 9, 63, 44
10, 56689, Note_off_c, 9, 42, 88
10, 56708, Note_off_c, 9, 63, 44
10, 56736, Note_on_c, 9, 42, 94
10, 56736, Note_on_c, 9, 64, 96
10, 56737, Note_off_c, 9, 42, 94
10, 56761, Note_off_c, 9, 64, 96
10, 56784, Note_on_c, 9, 35, 124
10, 56784, Note_on_c, 9, 42, 72
10, 56784, Note_on_c, 9, 64, 44
10, 56785, Note_off_c, 9, 42, 72
10, 56785, Note_off_c, 9, 35, 124
10, 56809, Note_off_c, 9, 64, 44
10, 56832, Note_on_c, 9, 76, 84
10, 56832, Note_on_c, 9, 35, 124
10, 56832, Note_on_c, 9, 42, 96
10, 56832, Note_on_c, 9, 62, 109
10, 56833, Note_off_c, 9, 42, 96
10, 56833, Note_off_c, 9, 35, 124
10, 56856, Note_off_c, 9, 76, 84
10, 56860, Note_off_c, 9, 62, 109
10, 56880, Note_on_c, 9, 42, 72
10, 56881, Note_off_c, 9, 42, 72
10, 56928, Note_on_c, 9, 46, 89
10, 56928, Note_on_c, 9, 62, 41
10, 56929, Note_off_c, 9, 46, 89
10, 56950, Note_off_c, 9, 62, 41
10, 56976, Note_on_c, 9, 63, 104
10, 57013, Note_off_c, 9, 63, 104
10, 57024, Note_on_c, 9, 76, 84
10, 57024, Note_on_c, 9, 40, 124
10, 57024, Note_on_c, 9, 42, 96
10, 57025, Note_off_c, 9, 42, 96
10, 57025, Note_off_c, 9, 40, 124
10, 57050, Note_off_c, 9, 76, 84
10, 57072, Note_on_c, 9, 42, 68
10, 57072, Note_on_c, 9, 63, 36
10, 57073, Note_off_c, 9, 42, 68
10, 57089, Note_off_c, 9, 63, 36
10, 57120, Note_on_c, 9, 42, 70
10, 57120, Note_on_c, 9, 64, 96
10, 57121, Note_off_c, 9, 42, 70
10, 57142, Note_off_c, 9, 64, 96
10, 57168, Note_on_c, 9, 42, 70
10, 57169, Note_off_c, 9, 42, 70
10, 57216, Note_on_c, 9, 76, 84
10, 57216, Note_on_c, 9, 35, 124
10, 57216, Note_on_c, 9, 42, 96
10, 57216, Note_on_c, 9, 62, 101
10, 57217, Note_off_c, 9, 42, 96
10, 57217, Note_off_c, 9, 35, 124
10, 57242, Note_off_c, 9, 76, 84
10, 57252, Note_off_c, 9, 62, 101
10, 57264, Note_on_c, 9, 42, 76
10, 57265, Note_off_c, 9, 42, 76
10, 57312, Note_on_c, 9, 42, 78
10, 57312, Note_on_c, 9, 62, 33
10, 57313, Note_off_c, 9, 42, 78
10, 57336, Note_off_c, 9, 62, 33
10, 57360, Note_on_c, 9, 42, 72
10, 57360, Note_on_c, 9, 63, 100
10, 57361, Note_off_c, 9, 42, 72
10, 57397, Note_off_c, 9, 63, 100
10, 57408, Note_on_c, 9, 76, 84
10, 57408, Note_on_c, 9, 40, 111
10, 57408, Note_on_c, 9, 42, 100
10, 57409, Note_off_c, 9, 42, 100
10, 57409, Note_off_c, 9, 40, 111
10, 57438, Note_off_c, 9, 76, 84
10, 57456, Note_on_c, 9, 42, 88
10, 57456, Note_on_c, 9, 63, 44
10, 57457, Note_off_c, 9, 42, 88
10, 57476, Note_off_c, 9, 63, 44
10, 57504, Note_on_c, 9, 42, 94
10, 57504, Note_on_c, 9, 45, 100
10, 57504, Note_on_c, 9, 64, 96
10, 57505, Note_off_c, 9, 45, 100
10, 57505, Note_off_c, 9, 42, 94
10, 57529, Note_off_c, 9, 64, 96
10, 57552, Note_on_c, 9, 35, 124
10, 57552, Note_on_c, 9, 42, 72
10, 57552, Note_on_c, 9, 43, 111
10, 57552, Note_on_c, 9, 64, 44
10, 57553, Note_off_c, 9, 43, 111
10, 57553, Note_off_c, 9, 42, 72
10, 57553, Note_off_c, 9, 35, 124
10, 57577, Note_off_c, 9, 64, 44
10, 57600, Note_on_c, 9, 35, 124
10, 57600, Note_on_c, 9, 57, 75
10, 57600, Note_on_c, 9, 62, 109
10, 57601, Note_off_c, 9, 57, 75
10, 57601, Note_off_c, 9, 35, 124
10, 57628, Note_off_c, 9, 62, 109
10, 57696, Note_on_c, 9, 42, 97
10, 57696, Note_on_c, 9, 62, 41
10, 57697, Note_off_c, 9, 42, 97
10, 57718, Note_off_c, 9, 62, 41
10, 57744, Note_on_c, 9, 42, 61
10, 57744, Note_on_c, 9, 63, 104
10, 57745, Note_off_c, 9, 42, 61
10, 57781, Note_off_c, 9, 63, 104
10, 57792, Note_on_c, 9, 40, 124
10, 57792, Note_on_c, 9, 42, 96
10, 57793, Note_off_c, 9, 42, 96
10, 57793, Note_off_c, 9, 40, 124
10, 57840, Note_on_c, 9, 42, 66
10, 57840, Note_on_c, 9, 63, 36
10, 57841, Note_off_c, 9, 42, 66
10, 57857, Note_off_c, 9, 63, 36
10, 57888, Note_on_c, 9, 42, 86
10, 57888, Note_on_c, 9, 64, 96
10, 57889, Note_off_c, 9, 42, 86
10, 57910, Note_off_c, 9, 64, 96
10, 57936, Note_on_c, 9, 42, 74
10, 57937, Note_off_c, 9, 42, 74
10, 57984, Note_on_c, 9, 35, 124
10, 57984, Note_on_c, 9, 42, 98
10, 57984, Note_on_c, 9, 62, 101
10, 57985, Note_off_c, 9, 42, 98
10, 57985, Note_off_c, 9, 35, 124
10, 58020, Note_off_c, 9, 62, 101
10, 58032, Note_on_c, 9, 42, 58
10, 58033, Note_off_c, 9, 42, 58
10, 58080, Note_on_c, 9, 42, 72
10, 58080, Note_on_c, 9, 62, 33
10, 58081, Note_off_c, 9, 42, 72
10, 58104, Note_off_c, 9, 62, 33
10, 58128, Note_on_c, 9, 42, 70
10, 58128, Note_on_c, 9, 63, 100
10, 58129, Note_off_c, 9, 42, 70
10, 58165, Note_off_c, 9, 63, 100
10, 58176, Note_on_c, 9, 40, 124
10, 58176, Note_on_c, 9, 42, 100
10, 58177, Note_off_c, 9, 42, 100
10, 58177, Note_off_c, 9, 40, 124
10, 58224, Note_on_c, 9, 42, 64
10, 58224, Note_on_c, 9, 63, 44
10, 58225, Note_off_c, 9, 42, 64
10, 58244, Note_off_c, 9, 63, 44
10, 58272, Note_on_c, 9, 42, 88
10, 58272, Note_on_c, 9, 64, 96
10, 58273, Note_off_c, 9, 42, 88
10, 58297, Note_off_c, 9, 64, 96
10, 58320, Note_on_c, 9, 35, 124
10, 58320, Note_on_c, 9, 42, 66
10, 58320, Note_on_c, 9, 64, 44
10, 58321, Note_off_c, 9, 42, 66
10, 58321, Note_off_c, 9, 35, 124
10, 58345, Note_off_c, 9, 64, 44
10, 58368, Note_on_c, 9, 35, 124
10, 58368, Note_on_c, 9, 42, 94
10, 58368, Note_on_c, 9, 62, 109
10, 58369, Note_off_c, 9, 42, 94
10, 58369, Note_off_c, 9, 35, 124
10, 58396, Note_off_c, 9, 62, 109
10, 58416, Note_on_c, 9, 42, 82
10, 58417, Note_off_c, 9, 42, 82
10, 58464, Note_on_c, 9, 46, 87
10, 58464, Note_on_c, 9, 62, 41
10, 58465, Note_off_c, 9, 46, 87
10, 58486, Note_off_c, 9, 62, 41
10, 58512, Note_on_c, 9, 63, 104
10, 58549, Note_off_c, 9, 63, 104
10, 58560, Note_on_c, 9, 40, 124
10, 58560, Note_on_c, 9, 42, 94
10, 58561, Note_off_c, 9, 42, 94
10, 58561, Note_off_c, 9, 40, 124
10, 58608, Note_on_c, 9, 42, 70
10, 58608, Note_on_c, 9, 63, 36
10, 58609, Note_off_c, 9, 42, 70
10, 58625, Note_off_c, 9, 63, 36
10, 58656, Note_on_c, 9, 42, 78
10, 58656, Note_on_c, 9, 64, 96
10, 58657, Note_off_c, 9, 42, 78
10, 58678, Note_off_c, 9, 64, 96
10, 58704, Note_on_c, 9, 42, 72
10, 58705, Note_off_c, 9, 42, 72
10, 58752, Note_on_c, 9, 35, 124
10, 58752, Note_on_c, 9, 42, 98
10, 58752, Note_on_c, 9, 62, 101
10, 58753, Note_off_c, 9, 42, 98
10, 58753, Note_off_c, 9, 35, 124
10, 58788, Note_off_c, 9, 62, 101
10, 58800, Note_on_c, 9, 42, 66
10, 58801, Note_off_c, 9, 42, 66
10, 58848, Note_on_c, 9, 42, 86
10, 58848, Note_on_c, 9, 62, 33
10, 58849, Note_off_c, 9, 42, 86
10, 58872, Note_off_c, 9, 62, 33
10, 58896, Note_on_c, 9, 42, 70
10, 58896, Note_on_c, 9, 63, 100
10, 58897, Note_off_c, 9, 42, 70
10, 58933, Note_off_c, 9, 63, 100
10, 58944, Note_on_c, 9, 40, 124
10, 58944, Note_on_c, 9, 42, 96
10, 58945, Note_off_c, 9, 42, 96
10, 58945, Note_off_c, 9, 40, 124
10, 58992, Note_on_c, 9, 42, 62
10, 58992, Note_on_c, 9, 63, 44
10, 58993, Note_off_c, 9, 42, 62
10, 59012, Note_off_c, 9, 63, 44
10, 59040, Note_on_c, 9, 42, 86
10, 59040, Note_on_c, 9, 64, 96
10, 59041, Note_off_c, 9, 42, 86
10, 59065, Note_off_c, 9, 64, 96
10, 59088, Note_on_c, 9, 35, 124
10, 59088, Note_on_c, 9, 42, 68
10, 59088, Note_on_c, 9, 64, 44
10, 59089, Note_off_c, 9, 42, 68
10, 59089, Note_off_c, 9, 35, 124
10, 59113, Note_off_c, 9, 64, 44
10, 59136, Note_on_c, 9, 35, 124
10, 59136, Note_on_c, 9, 42, 98
10, 59136, Note_on_c, 9, 62, 109
10, 59137, Note_off_c, 9, 42, 98
10, 59137, Note_off_c, 9, 35, 124
10, 59164, Note_off_c, 9, 62, 109
10, 59184, Note_on_c, 9, 42, 70
10, 59185, Note_off_c, 9, 42, 70
10, 59232, Note_on_c, 9, 46, 87
10, 59232, Note_on_c, 9, 62, 41
10, 59233, Note_off_c, 9, 46, 87
10, 59254, Note_off_c, 9, 62, 41
10, 59280, Note_on_c, 9, 63, 104
10, 59317, Note_off_c, 9, 63, 104
10, 59328, Note_on_c, 9, 40, 124
10, 59328, Note_on_c, 9, 42, 96
10, 59329, Note_off_c, 9, 42, 96
10, 59329, Note_off_c, 9, 40, 124
10, 59376, Note_on_c, 9, 42, 66
10, 59376, Note_on_c, 9, 63, 36
10, 59377, Note_off_c, 9, 42, 66
10, 59393, Note_off_c, 9, 63, 36
10, 59424, Note_on_c, 9, 42, 84
10, 59424, Note_on_c, 9, 64, 96
10, 59425, Note_off_c, 9, 42, 84
10, 59446, Note_off_c, 9, 64, 96
10, 59472, Note_on_c, 9, 42, 66
10, 59473, Note_off_c, 9, 42, 66
10, 59520, Note_on_c, 9, 35, 124
10, 59520, Note_on_c, 9, 42, 96
10, 59520, Note_on_c, 9, 62, 101
10, 59521, Note_off_c, 9, 42, 96
10, 59521, Note_off_c, 9, 35, 124
10, 59556, Note_off_c, 9, 62, 101
10, 59568, Note_on_c, 9, 42, 66
10, 59569, Note_off_c, 9, 42, 66
10, 59616, Note_on_c, 9, 42, 76
10, 59616, Note_on_c, 9, 62, 33
10, 59617, Note_off_c, 9, 42, 76
10, 59640, Note_off_c, 9, 62, 33
10, 59664, Note_on_c, 9, 42, 68
10, 59664, Note_on_c, 9, 63, 100
10, 59665, Note_off_c, 9, 42, 68
10, 59701, Note_off_c, 9, 63, 100
10, 59712, Note_on_c, 9, 40, 124
10, 59712, Note_on_c, 9, 42, 96
10, 59713, Note_off_c, 9, 42, 96
10, 59713, Note_off_c, 9, 40, 124
10, 59760, Note_on_c, 9, 42, 50
10, 59760, Note_on_c, 9, 63, 44
10, 59761, Note_off_c, 9, 42, 50
10, 59780, Note_off_c, 9, 63, 44
10, 59808, Note_on_c, 9, 42, 78
10, 59808, Note_on_c, 9, 64, 96
10, 59809, Note_off_c, 9, 42, 78
10, 59833, Note_off_c, 9, 64, 96
10, 59856, Note_on_c, 9, 35, 124
10, 59856, Note_on_c, 9, 42, 68
10, 59856, Note_on_c, 9, 64, 44
10, 59857, Note_off_c, 9, 42, 68
10, 59857, Note_off_c, 9, 35, 124
10, 59881, Note_off_c, 9, 64, 44
10, 59904, Note_on_c, 9, 35, 124
10, 59904, Note_on_c, 9, 42, 96
10, 59904, Note_on_c, 9, 62, 109
10, 59905, Note_off_c, 9, 42, 96
10, 59905, Note_off_c, 9, 35, 124
10, 59932, Note_off_c, 9, 62, 109
10, 59952, Note_on_c, 9, 42, 72
10, 59953, Note_off_c, 9, 42, 72
10, 60000, Note_on_c, 9, 46, 89
10, 60000, Note_on_c, 9, 62, 41
10, 60001, Note_off_c, 9, 46, 89
10, 60022, Note_off_c, 9, 62, 41
10, 60048, Note_on_c, 9, 63, 104
10, 60085, Note_off_c, 9, 63, 104
10, 60096, Note_on_c, 9, 40, 124
10, 60096, Note_on_c, 9, 42, 96
10, 60097, Note_off_c, 9, 42, 96
10, 60097, Note_off_c, 9, 40, 124
10, 60144, Note_on_c, 9, 42, 68
10, 60144, Note_on_c, 9, 63, 36
10, 60145, Note_off_c, 9, 42, 68
10, 60161, Note_off_c, 9, 63, 36
10, 60192, Note_on_c, 9, 42, 70
10, 60192, Note_on_c, 9, 64, 96
10, 60193, Note_off_c, 9, 42, 70
10, 60214, Note_off_c, 9, 64, 96
10, 60240, Note_on_c, 9, 42, 70
10, 60241, Note_off_c, 9, 42, 70
10, 60288, Note_on_c, 9, 35, 124
10, 60288, Note_on_c, 9, 42, 96
10, 60288, Note_on_c, 9, 62, 101
10, 60289, Note_off_c, 9, 42, 96
10, 60289, Note_off_c, 9, 35, 124
10, 60324, Note_off_c, 9, 62, 101
10, 60336, Note_on_c, 9, 42, 76
10, 60337, Note_off_c, 9, 42, 76
10, 60384, Note_on_c, 9, 42, 78
10, 60384, Note_on_c, 9, 62, 33
10, 60385, Note_off_c, 9, 42, 78
10, 60408, Note_off_c, 9, 62, 33
10, 60432, Note_on_c, 9, 42, 72
10, 60432, Note_on_c, 9, 63, 100
10, 60433, Note_off_c, 9, 42, 72
10, 60469, Note_off_c, 9, 63, 100
10, 60480, Note_on_c, 9, 40, 124
10, 60480, Note_on_c, 9, 42, 100
10, 60481, Note_off_c, 9, 42, 100
10, 60481, Note_off_c, 9, 40, 124
10, 60528, Note_on_c, 9, 42, 88
10, 60528, Note_on_c, 9, 63, 44
10, 60529, Note_off_c, 9, 42, 88
10, 60548, Note_off_c, 9, 63, 44
10, 60576, Note_on_c, 9, 42, 94
10, 60576, Note_on_c, 9, 64, 96
10, 60577, Note_off_c, 9, 42, 94
10, 60601, Note_off_c, 9, 64, 96
10, 60624, Note_on_c, 9, 35, 124
10, 60624, Note_on_c, 9, 42, 72
10, 60624, Note_on_c, 9, 64, 44
10, 60625, Note_off_c, 9, 42, 72
10, 60625, Note_off_c, 9, 35, 124
10, 60649, Note_off_c, 9, 64, 44
10, 60672, Note_on_c, 9, 35, 124
10, 60672, Note_on_c, 9, 42, 94
10, 60672, Note_on_c, 9, 62, 109
10, 60673, Note_off_c, 9, 42, 94
10, 60673, Note_off_c, 9, 35, 124
10, 60700, Note_off_c, 9, 62, 109
10, 60720, Note_on_c, 9, 42, 82
10, 60721, Note_off_c, 9, 42, 82
10, 60768, Note_on_c, 9, 46, 87
10, 60768, Note_on_c, 9, 62, 41
10, 60769, Note_off_c, 9, 46, 87
10, 60790, Note_off_c, 9, 62, 41
10, 60816, Note_on_c, 9, 63, 104
10, 60853, Note_off_c, 9, 63, 104
10, 60864, Note_on_c, 9, 40, 124
10, 60864, Note_on_c, 9, 42, 96
10, 60865, Note_off_c, 9, 42, 96
10, 60865, Note_off_c, 9, 40, 124
10, 60912, Note_on_c, 9, 42, 66
10, 60912, Note_on_c, 9, 63, 36
10, 60913, Note_off_c, 9, 42, 66
10, 60929, Note_off_c, 9, 63, 36
10, 60960, Note_on_c, 9, 42, 86
10, 60960, Note_on_c, 9, 64, 96
10, 60961, Note_off_c, 9, 42, 86
10, 60982, Note_off_c, 9, 64, 96
10, 61008, Note_on_c, 9, 42, 74
10, 61009, Note_off_c, 9, 42, 74
10, 61056, Note_on_c, 9, 35, 124
10, 61056, Note_on_c, 9, 42, 98
10, 61056, Note_on_c, 9, 62, 101
10, 61057, Note_off_c, 9, 42, 98
10, 61057, Note_off_c, 9, 35, 124
10, 61092, Note_off_c, 9, 62, 101
10, 61104, Note_on_c, 9, 42, 58
10, 61105, Note_off_c, 9, 42, 58
10, 61152, Note_on_c, 9, 42, 72
10, 61152, Note_on_c, 9, 62, 33
10, 61153, Note_off_c, 9, 42, 72
10, 61176, Note_off_c, 9, 62, 33
10, 61200, Note_on_c, 9, 42, 70
10, 61200, Note_on_c, 9, 63, 100
10, 61201, Note_off_c, 9, 42, 70
10, 61237, Note_off_c, 9, 63, 100
10, 61248, Note_on_c, 9, 40, 124
10, 61248, Note_on_c, 9, 42, 100
10, 61249, Note_off_c, 9, 42, 100
10, 61249, Note_off_c, 9, 40, 124
10, 61296, Note_on_c, 9, 42, 64
10, 61296, Note_on_c, 9, 63, 44
10, 61297, Note_off_c, 9, 42, 64
10, 61316, Note_off_c, 9, 63, 44
10, 61344, Note_on_c, 9, 42, 88
10, 61344, Note_on_c, 9, 64, 96
10, 61345, Note_off_c, 9, 42, 88
10, 61369, Note_off_c, 9, 64, 96
10, 61392, Note_on_c, 9, 35, 124
10, 61392, Note_on_c, 9, 42, 66
10, 61392, Note_on_c, 9, 64, 44
10, 61393, Note_off_c, 9, 42, 66
10, 61393, Note_off_c, 9, 35, 124
10, 61417, Note_off_c, 9, 64, 44
10, 61440, Note_on_c, 9, 35, 124
10, 61440, Note_on_c, 9, 42, 94
10, 61440, Note_on_c, 9, 62, 109
10, 61441, Note_off_c, 9, 42, 94
10, 61441, Note_off_c, 9, 35, 124
10, 61468, Note_off_c, 9, 62, 109
10, 61488, Note_on_c, 9, 42, 82
10, 61489, Note_off_c, 9, 42, 82
10, 61536, Note_on_c, 9, 46, 87
10, 61536, Note_on_c, 9, 62, 41
10, 61537, Note_off_c, 9, 46, 87
10, 61558, Note_off_c, 9, 62, 41
10, 61584, Note_on_c, 9, 63, 104
10, 61621, Note_off_c, 9, 63, 104
10, 61632, Note_on_c, 9, 40, 124
10, 61632, Note_on_c, 9, 42, 94
10, 61633, Note_off_c, 9, 42, 94
10, 61633, Note_off_c, 9, 40, 124
10, 61680, Note_on_c, 9, 42, 70
10, 61680, Note_on_c, 9, 63, 36
10, 61681, Note_off_c, 9, 42, 70
10, 61697, Note_off_c, 9, 63, 36
10, 61728, Note_on_c, 9, 42, 78
10, 61728, Note_on_c, 9, 64, 96
10, 61729, Note_off_c, 9, 42, 78
10, 61750, Note_off_c, 9, 64, 96
10, 61776, Note_on_c, 9, 42, 72
10, 61777, Note_off_c, 9, 42, 72
10, 61824, Note_on_c, 9, 35, 124
10, 61824, Note_on_c, 9, 42, 98
10, 61824, Note_on_c, 9, 62, 101
10, 61825, Note_off_c, 9, 42, 98
10, 61825, Note_off_c, 9, 35, 124
10, 61860, Note_off_c, 9, 62, 101
10, 61872, Note_on_c, 9, 42, 66
10, 61873, Note_off_c, 9, 42, 66
10, 61920, Note_on_c, 9, 42, 86
10, 61920, Note_on_c, 9, 62, 33
10, 61921, Note_off_c, 9, 42, 86
10, 61944, Note_off_c, 9, 62, 33
10, 61968, Note_on_c, 9, 42, 70
10, 61968, Note_on_c, 9, 63, 100
10, 61969, Note_off_c, 9, 42, 70
10, 62005, Note_off_c, 9, 63, 100
10, 62016, Note_on_c, 9, 40, 124
10, 62016, Note_on_c, 9, 42, 96
10, 62017, Note_off_c, 9, 42, 96
10, 62017, Note_off_c, 9, 40, 124
10, 62064, Note_on_c, 9, 42, 62
10, 62064, Note_on_c, 9, 63, 44
10, 62065, Note_off_c, 9, 42, 62
10, 62084, Note_off_c, 9, 63, 44
10, 62112, Note_on_c, 9, 42, 86
10, 62112, Note_on_c, 9, 64, 96
10, 62113, Note_off_c, 9, 42, 86
10, 62137, Note_off_c, 9, 64, 96
10, 62160, Note_on_c, 9, 35, 124
10, 62160, Note_on_c, 9, 42, 68
10, 62160, Note_on_c, 9, 64, 44
10, 62161, Note_off_c, 9, 42, 68
10, 62161, Note_off_c, 9, 35, 124
10, 62185, Note_off_c, 9, 64, 44
10, 62208, Note_on_c, 9, 35, 124
10, 62208, Note_on_c, 9, 42, 98
10, 62208, Note_on_c, 9, 62, 109
10, 62209, Note_off_c, 9, 42, 98
10, 62209, Note_off_c, 9, 35, 124
10, 62236, Note_off_c, 9, 62, 109
10, 62256, Note_on_c, 9, 42, 70
10, 62257, Note_off_c, 9, 42, 70
10, 62304, Note_on_c, 9, 46, 87
10, 62304, Note_on_c, 9, 62, 41
10, 62305, Note_off_c, 9, 46, 87
10, 62326, Note_off_c, 9, 62, 41
10, 62352, Note_on_c, 9, 63, 104
10, 62389, Note_off_c, 9, 63, 104
10, 62400, Note_on_c, 9, 40, 124
10, 62400, Note_on_c, 9, 42, 96
10, 62401, Note_off_c, 9, 42, 96
10, 62401, Note_off_c, 9, 40, 124
10, 62448, Note_on_c, 9, 42, 66
10, 62448, Note_on_c, 9, 63, 36
10, 62449, Note_off_c, 9, 42, 66
10, 62465, Note_off_c, 9, 63, 36
10, 62496, Note_on_c, 9, 42, 84
10, 62496, Note_on_c, 9, 64, 96
10, 62497, Note_off_c, 9, 42, 84
10, 62518, Note_off_c, 9, 64, 96
10, 62544, Note_on_c, 9, 42, 66
10, 62545, Note_off_c, 9, 42, 66
10, 62592, Note_on_c, 9, 35, 124
10, 62592, Note_on_c, 9, 42, 96
10, 62592, Note_on_c, 9, 62, 101
10, 62593, Note_off_c, 9, 42, 96
10, 62593, Note_off_c, 9, 35, 124
10, 62628, Note_off_c, 9, 62, 101
10, 62640, Note_on_c, 9, 42, 66
10, 62641, Note_off_c, 9, 42, 66
10, 62688, Note_on_c, 9, 42, 76
10, 62688, Note_on_c, 9, 62, 33
10, 62689, Note_off_c, 9, 42, 76
10, 62712, Note_off_c, 9, 62, 33
10, 62736, Note_on_c, 9, 42, 68
10, 62736, Note_on_c, 9, 63, 100
10, 62737, Note_off_c, 9, 42, 68
10, 62773, Note_off_c, 9, 63, 100
10, 62784, Note_on_c, 9, 40, 124
10, 62784, Note_on_c, 9, 42, 96
10, 62785, Note_off_c, 9, 42, 96
10, 62785, Note_off_c, 9, 40, 124
10, 62832, Note_on_c, 9, 42, 50
10, 62832, Note_on_c, 9, 63, 44
10, 62833, Note_off_c, 9, 42, 50
10, 62852, Note_off_c, 9, 63, 44
10, 62880, Note_on_c, 9, 42, 78
10, 62880, Note_on_c, 9, 64, 96
10, 62881, Note_off_c, 9, 42, 78
10, 62905, Note_off_c, 9, 64, 96
10, 62928, Note_on_c, 9, 35, 124
10, 62928, Note_on_c, 9, 42, 68
10, 62928, Note_on_c, 9, 64, 44
10, 62929, Note_off_c, 9, 42, 68
10, 62929, Note_off_c, 9, 35, 124
10, 62953, Note_off_c, 9, 64, 44
10, 62976, Note_on_c, 9, 35, 124
10, 62976, Note_on_c, 9, 42, 96
10, 62976, Note_on_c, 9, 62, 109
10, 62977, Note_off_c, 9, 42, 96
10, 62977, Note_off_c, 9, 35, 124
10, 63004, Note_off_c, 9, 62, 109
10, 63024, Note_on_c, 9, 42, 72
10, 63025, Note_off_c, 9, 42, 72
10, 63072, Note_on_c, 9, 46, 89
10, 63072, Note_on_c, 9, 62, 41
10, 63073, Note_off_c, 9, 46, 89
10, 63094, Note_off_c, 9, 62, 41
10, 63120, Note_on_c, 9, 63, 104
10, 63157, Note_off_c, 9, 63, 104
10, 63168, Note_on_c, 9, 40, 124
10, 63168, Note_on_c, 9, 42, 96
10, 63169, Note_off_c, 9, 42, 96
10, 63169, Note_off_c, 9, 40, 124
10, 63216, Note_on_c, 9, 42, 68
10, 63216, Note_on_c, 9, 63, 36
10, 63217, Note_off_c, 9, 42, 68
10, 63233, Note_off_c, 9, 63, 36
10, 63264, Note_on_c, 9, 42, 70
10, 63264, Note_on_c, 9, 64, 96
10, 63265, Note_off_c, 9, 42, 70
10, 63286, Note_off_c, 9, 64, 96
10, 63312, Note_on_c, 9, 42, 70
10, 63313, Note_off_c, 9, 42, 70
10, 63360, Note_on_c, 9, 35, 124
10, 63360, Note_on_c, 9, 42, 96
10, 63360, Note_on_c, 9, 62, 101
10, 63361, Note_off_c, 9, 42, 96
10, 63361, Note_off_c, 9, 35, 124
10, 63396, Note_off_c, 9, 62, 101
10, 63408, Note_on_c, 9, 42, 76
10, 63409, Note_off_c, 9, 42, 76
10, 63456, Note_on_c, 9, 42, 78
10, 63456, Note_on_c, 9, 62, 33
10, 63457, Note_off_c, 9, 42, 78
10, 63480, Note_off_c, 9, 62, 33
10, 63504, Note_on_c, 9, 42, 72
10, 63504, Note_on_c, 9, 63, 100
10, 63505, Note_off_c, 9, 42, 72
10, 63541, Note_off_c, 9, 63, 100
10, 63552, Note_on_c, 9, 40, 124
10, 63552, Note_on_c, 9, 42, 100
10, 63553, Note_off_c, 9, 42, 100
10, 63553, Note_off_c, 9, 40, 124
10, 63600, Note_on_c, 9, 42, 88
10, 63600, Note_on_c, 9, 63, 44
10, 63601, Note_off_c, 9, 42, 88
10, 63620, Note_off_c, 9, 63, 44
10, 63648, Note_on_c, 9, 42, 94
10, 63648, Note_on_c, 9, 64, 96
10, 63649, Note_off_c, 9, 42, 94
10, 63673, Note_off_c, 9, 64, 96
10, 63696, Note_on_c, 9, 35, 124
10, 63696, Note_on_c, 9, 42, 72
10, 63696, Note_on_c, 9, 64, 44
10, 63697, Note_off_c, 9, 42, 72
10, 63697, Note_off_c, 9, 35, 124
10, 63721, Note_off_c, 9, 64, 44
10, 63744, Note_on_c, 9, 35, 124
10, 63744, Note_on_c, 9, 42, 94
10, 63744, Note_on_c, 9, 62, 109
10, 63745, Note_off_c, 9, 42, 94
10, 63745, Note_off_c, 9, 35, 124
10, 63772, Note_off_c, 9, 62, 109
10, 63792, Note_on_c, 9, 42, 82
10, 63793, Note_off_c, 9, 42, 82
10, 63840, Note_on_c, 9, 46, 87
10, 63840, Note_on_c, 9, 62, 41
10, 63841, Note_off_c, 9, 46, 87
10, 63862, Note_off_c, 9, 62, 41
10, 63888, Note_on_c, 9, 63, 104
10, 63925, Note_off_c, 9, 63, 104
10, 63936, Note_on_c, 9, 40, 124
10, 63936, Note_on_c, 9, 42, 96
10, 63937, Note_off_c, 9, 42, 96
10, 63937, Note_off_c, 9, 40, 124
10, 63984, Note_on_c, 9, 42, 66
10, 63984, Note_on_c, 9, 63, 36
10, 63985, Note_off_c, 9, 42, 66
10, 64001, Note_off_c, 9, 63, 36
10, 64032, Note_on_c, 9, 42, 86
10, 64032, Note_on_c, 9, 64, 96
10, 64033, Note_off_c, 9, 42, 86
10, 64054, Note_off_c, 9, 64, 96
10, 64080, Note_on_c, 9, 42, 74
10, 64081, Note_off_c, 9, 42, 74
10, 64128, Note_on_c, 9, 35, 124
10, 64128, Note_on_c, 9, 42, 98
10, 64128, Note_on_c, 9, 62, 101
10, 64129, Note_off_c, 9, 42, 98
10, 64129, Note_off_c, 9, 35, 124
10, 64164, Note_off_c, 9, 62, 101
10, 64176, Note_on_c, 9, 42, 58
10, 64177, Note_off_c, 9, 42, 58
10, 64224, Note_on_c, 9, 42, 72
10, 64224, Note_on_c, 9, 62, 33
10, 64225, Note_off_c, 9, 42, 72
10, 64248, Note_off_c, 9, 62, 33
10, 64272, Note_on_c, 9, 42, 70
10, 64272, Note_on_c, 9, 63, 100
10, 64273, Note_off_c, 9, 42, 70
10, 64309, Note_off_c, 9, 63, 100
10, 64320, Note_on_c, 9, 40, 124
10, 64320, Note_on_c, 9, 42, 100
10, 64321, Note_off_c, 9, 42, 100
10, 64321, Note_off_c, 9, 40, 124
10, 64368, Note_on_c, 9, 42, 64
10, 64368, Note_on_c, 9, 63, 44
10, 64369, Note_off_c, 9, 42, 64
10, 64388, Note_off_c, 9, 63, 44
10, 64416, Note_on_c, 9, 42, 88
10, 64416, Note_on_c, 9, 64, 96
10, 64417, Note_off_c, 9, 42, 88
10, 64441, Note_off_c, 9, 64, 96
10, 64464, Note_on_c, 9, 35, 124
10, 64464, Note_on_c, 9, 42, 66
10, 64464, Note_on_c, 9, 64, 44
10, 64465, Note_off_c, 9, 42, 66
10, 64465, Note_off_c, 9, 35, 124
10, 64489, Note_off_c, 9, 64, 44
10, 64512, Note_on_c, 9, 76, 84
10, 64512, Note_on_c, 9, 35, 124
10, 64512, Note_on_c, 9, 49, 86
10, 64512, Note_on_c, 9, 54, 68
10, 64512, Note_on_c, 9, 62, 109
10, 64513, Note_off_c, 9, 49, 86
10, 64513, Note_off_c, 9, 35, 124
10, 64540, Note_off_c, 9, 62, 109
10, 64545, Note_off_c, 9, 54, 68
10, 64552, Note_off_c, 9, 76, 84
10, 64560, Note_on_c, 9, 42, 82
10, 64561, Note_off_c, 9, 42, 82
10, 64608, Note_on_c, 9, 46, 87
10, 64608, Note_on_c, 9, 54, 34
10, 64608, Note_on_c, 9, 62, 41
10, 64609, Note_off_c, 9, 46, 87
10, 64630, Note_off_c, 9, 62, 41
10, 64634, Note_off_c, 9, 54, 34
10, 64656, Note_on_c, 9, 54, 34
10, 64656, Note_on_c, 9, 63, 104
10, 64675, Note_off_c, 9, 54, 34
10, 64693, Note_off_c, 9, 63, 104
10, 64704, Note_on_c, 9, 76, 84
10, 64704, Note_on_c, 9, 40, 124
10, 64704, Note_on_c, 9, 42, 94
10, 64704, Note_on_c, 9, 54, 68
10, 64705, Note_off_c, 9, 42, 94
10, 64705, Note_off_c, 9, 40, 124
10, 64735, Note_off_c, 9, 54, 68
10, 64745, Note_off_c, 9, 76, 84
10, 64752, Note_on_c, 9, 42, 70
10, 64752, Note_on_c, 9, 63, 36
10, 64753, Note_off_c, 9, 42, 70
10, 64769, Note_off_c, 9, 63, 36
10, 64800, Note_on_c, 9, 42, 78
10, 64800, Note_on_c, 9, 54, 54
10, 64800, Note_on_c, 9, 64, 96
10, 64801, Note_off_c, 9, 42, 78
10, 64822, Note_off_c, 9, 64, 96
10, 64822, Note_off_c, 9, 54, 54
10, 64848, Note_on_c, 9, 42, 72
10, 64848, Note_on_c, 9, 54, 54
10, 64849, Note_off_c, 9, 42, 72
10, 64867, Note_off_c, 9, 54, 54
10, 64896, Note_on_c, 9, 76, 84
10, 64896, Note_on_c, 9, 35, 124
10, 64896, Note_on_c, 9, 42, 98
10, 64896, Note_on_c, 9, 54, 68
10, 64896, Note_on_c, 9, 62, 101
10, 64897, Note_off_c, 9, 42, 98
10, 64897, Note_off_c, 9, 35, 124
10, 64927, Note_off_c, 9, 54, 68
10, 64932, Note_off_c, 9, 62, 101
10, 64936, Note_off_c, 9, 76, 84
10, 64944, Note_on_c, 9, 42, 66
10, 64945, Note_off_c, 9, 42, 66
10, 64992, Note_on_c, 9, 42, 86
10, 64992, Note_on_c, 9, 54, 58
10, 64992, Note_on_c, 9, 62, 33
10, 64993, Note_off_c, 9, 42, 86
10, 65013, Note_off_c, 9, 54, 58
10, 65016, Note_off_c, 9, 62, 33
10, 65040, Note_on_c, 9, 42, 70
10, 65040, Note_on_c, 9, 54, 42
10, 65040, Note_on_c, 9, 63, 100
10, 65041, Note_off_c, 9, 42, 70
10, 65061, Note_off_c, 9, 54, 42
10, 65077, Note_off_c, 9, 63, 100
10, 65088, Note_on_c, 9, 76, 84
10, 65088, Note_on_c, 9, 40, 124
10, 65088, Note_on_c, 9, 42, 96
10, 65088, Note_on_c, 9, 54, 72
10, 65089, Note_off_c, 9, 42, 96
10, 65089, Note_off_c, 9, 40, 124
10, 65120, Note_off_c, 9, 54, 72
10, 65126, Note_off_c, 9, 76, 84
10, 65136, Note_on_c, 9, 42, 62
10, 65136, Note_on_c, 9, 63, 44
10, 65137, Note_off_c, 9, 42, 62
10, 65156, Note_off_c, 9, 63, 44
10, 65184, Note_on_c, 9, 42, 86
10, 65184, Note_on_c, 9, 54, 66
10, 65184, Note_on_c, 9, 64, 96
10, 65185, Note_off_c, 9, 42, 86
10, 65205, Note_off_c, 9, 54, 66
10, 65209, Note_off_c, 9, 64, 96
10, 65232, Note_on_c, 9, 35, 124
10, 65232, Note_on_c, 9, 42, 68
10, 65232, Note_on_c, 9, 54, 42
10, 65232, Note_on_c, 9, 64, 44
10, 65233, Note_off_c, 9, 42, 68
10, 65233, Note_off_c, 9, 35, 124
10, 65249, Note_off_c, 9, 54, 42
10, 65257, Note_off_c, 9, 64, 44
10, 65280, Note_on_c, 9, 76, 84
10, 65280, Note_on_c, 9, 35, 124
10, 65280, Note_on_c, 9, 42, 98
10, 65280, Note_on_c, 9, 54, 72
10, 65280, Note_on_c, 9, 62, 109
10, 65281, Note_off_c, 9, 42, 98
10, 65281, Note_off_c, 9, 35, 124
10, 65308, Note_off_c, 9, 62, 109
10, 65313, Note_off_c, 9, 54, 72
10, 65324, Note_off_c, 9, 76, 84
10, 65328, Note_on_c, 9, 42, 70
10, 65329, Note_off_c, 9, 42, 70
10, 65376, Note_on_c, 9, 46, 87
10, 65376, Note_on_c, 9, 54, 66
10, 65376, Note_on_c, 9, 62, 41
10, 65377, Note_off_c, 9, 46, 87
10, 65398, Note_off_c, 9, 62, 41
10, 65398, Note_off_c, 9, 54, 66
10, 65424, Note_on_c, 9, 54, 34
10, 65424, Note_on_c, 9, 63, 104
10, 65439, Note_off_c, 9, 54, 34
10, 65461, Note_off_c, 9, 63, 104
10, 65472, Note_on_c, 9, 76, 84
10, 65472, Note_on_c, 9, 40, 124
10, 65472, Note_on_c, 9, 42, 96
10, 65472, Note_on_c, 9, 54, 68
10, 65473, Note_off_c, 9, 42, 96
10, 65473, Note_off_c, 9, 40, 124
10, 65503, Note_off_c, 9, 54, 68
10, 65511, Note_off_c, 9, 76, 84
10, 65520, Note_on_c, 9, 42, 66
10, 65520, Note_on_c, 9, 63, 36
10, 65521, Note_off_c, 9, 42, 66
10, 65537, Note_off_c, 9, 63, 36
10, 65568, Note_on_c, 9, 42, 84
10, 65568, Note_on_c, 9, 54, 54
10, 65568, Note_on_c, 9, 64, 96
10, 65569, Note_off_c, 9, 42, 84
10, 65589, Note_off_c, 9, 54, 54
10, 65590, Note_off_c, 9, 64, 96
10, 65616, Note_on_c, 9, 42, 66
10, 65616, Note_on_c, 9, 54, 26
10, 65617, Note_off_c, 9, 42, 66
10, 65632, Note_off_c, 9, 54, 26
10, 65664, Note_on_c, 9, 76, 84
10, 65664, Note_on_c, 9, 35, 124
10, 65664, Note_on_c, 9, 42, 96
10, 65664, Note_on_c, 9, 54, 68
10, 65664, Note_on_c, 9, 62, 101
10, 65665, Note_off_c, 9, 42, 96
10, 65665, Note_off_c, 9, 35, 124
10, 65695, Note_off_c, 9, 54, 68
10, 65699, Note_off_c, 9, 76, 84
10, 65700, Note_off_c, 9, 62, 101
10, 65712, Note_on_c, 9, 42, 66
10, 65713, Note_off_c, 9, 42, 66
10, 65760, Note_on_c, 9, 42, 76
10, 65760, Note_on_c, 9, 54, 58
10, 65760, Note_on_c, 9, 62, 33
10, 65761, Note_off_c, 9, 42, 76
10, 65782, Note_off_c, 9, 54, 58
10, 65784, Note_off_c, 9, 62, 33
10, 65808, Note_on_c, 9, 42, 68
10, 65808, Note_on_c, 9, 54, 38
10, 65808, Note_on_c, 9, 63, 100
10, 65809, Note_off_c, 9, 42, 68
10, 65830, Note_off_c, 9, 54, 38
10, 65845, Note_off_c, 9, 63, 100
10, 65856, Note_on_c, 9, 76, 84
10, 65856, Note_on_c, 9, 40, 124
10, 65856, Note_on_c, 9, 42, 96
10, 65856, Note_on_c, 9, 54, 68
10, 65857, Note_off_c, 9, 42, 96
10, 65857, Note_off_c, 9, 40, 124
10, 65886, Note_off_c, 9, 54, 68
10, 65893, Note_off_c, 9, 76, 84
10, 65904, Note_on_c, 9, 42, 50
10, 65904, Note_on_c, 9, 63, 44
10, 65905, Note_off_c, 9, 42, 50
10, 65924, Note_off_c, 9, 63, 44
10, 65952, Note_on_c, 9, 42, 78
10, 65952, Note_on_c, 9, 54, 50
10, 65952, Note_on_c, 9, 64, 96
10, 65953, Note_off_c, 9, 42, 78
10, 65967, Note_off_c, 9, 54, 50
10, 65977, Note_off_c, 9, 64, 96
10, 66000, Note_on_c, 9, 35, 124
10, 66000, Note_on_c, 9, 42, 68
10, 66000, Note_on_c, 9, 54, 58
10, 66000, Note_on_c, 9, 64, 44
10, 66001, Note_off_c, 9, 42, 68
10, 66001, Note_off_c, 9, 35, 124
10, 66020, Note_off_c, 9, 54, 58
10, 66025, Note_off_c, 9, 64, 44
10, 66048, Note_on_c, 9, 76, 84
10, 66048, Note_on_c, 9, 35, 124
10, 66048, Note_on_c, 9, 42, 96
10, 66048, Note_on_c, 9, 54, 68
10, 66048, Note_on_c, 9, 62, 109
10, 66049, Note_off_c, 9, 42, 96
10, 66049, Note_off_c, 9, 35, 124
10, 66076, Note_off_c, 9, 62, 109
10, 66081, Note_off_c, 9, 54, 68
10, 66084, Note_off_c, 9, 76, 84
10, 66096, Note_on_c, 9, 42, 72
10, 66097, Note_off_c, 9, 42, 72
10, 66144, Note_on_c, 9, 46, 89
10, 66144, Note_on_c, 9, 54, 34
10, 66144, Note_on_c, 9, 62, 41
10, 66145, Note_off_c, 9, 46, 89
10, 66166, Note_off_c, 9, 62, 41
10, 66170, Note_off_c, 9, 54, 34
10, 66192, Note_on_c, 9, 54, 34
10, 66192, Note_on_c, 9, 63, 104
10, 66211, Note_off_c, 9, 54, 34
10, 66229, Note_off_c, 9, 63, 104
10, 66240, Note_on_c, 9, 76, 84
10, 66240, Note_on_c, 9, 40, 124
10, 66240, Note_on_c, 9, 42, 96
10, 66240, Note_on_c, 9, 54, 68
10, 66241, Note_off_c, 9, 42, 96
10, 66241, Note_off_c, 9, 40, 124
10, 66271, Note_off_c, 9, 54, 68
10, 66273, Note_off_c, 9, 76, 84
10, 66288, Note_on_c, 9, 42, 68
10, 66288, Note_on_c, 9, 63, 36
10, 66289, Note_off_c, 9, 42, 68
10, 66305, Note_off_c, 9, 63, 36
10, 66336, Note_on_c, 9, 42, 70
10, 66336, Note_on_c, 9, 54, 54
10, 66336, Note_on_c, 9, 64, 96
10, 66337, Note_off_c, 9, 42, 70
10, 66358, Note_off_c, 9, 64, 96
10, 66358, Note_off_c, 9, 54, 54
10, 66384, Note_on_c, 9, 42, 70
10, 66384, Note_on_c, 9, 54, 54
10, 66385, Note_off_c, 9, 42, 70
10, 66403, Note_off_c, 9, 54, 54
10, 66432, Note_on_c, 9, 76, 84
10, 66432, Note_on_c, 9, 35, 124
10, 66432, Note_on_c, 9, 42, 96
10, 66432, Note_on_c, 9, 54, 68
10, 66432, Note_on_c, 9, 62, 101
10, 66433, Note_off_c, 9, 42, 96
10, 66433, Note_off_c, 9, 35, 124
10, 66463, Note_off_c, 9, 54, 68
10, 66465, Note_off_c, 9, 76, 84
10, 66468, Note_off_c, 9, 62, 101
10, 66480, Note_on_c, 9, 42, 76
10, 66481, Note_off_c, 9, 42, 76
10, 66528, Note_on_c, 9, 42, 78
10, 66528, Note_on_c, 9, 54, 58
10, 66528, Note_on_c, 9, 62, 33
10, 66529, Note_off_c, 9, 42, 78
10, 66549, Note_off_c, 9, 54, 58
10, 66552, Note_off_c, 9, 62, 33
10, 66576, Note_on_c, 9, 42, 72
10, 66576, Note_on_c, 9, 54, 42
10, 66576, Note_on_c, 9, 63, 100
10, 66577, Note_off_c, 9, 42, 72
10, 66597, Note_off_c, 9, 54, 42
10, 66613, Note_off_c, 9, 63, 100
10, 66624, Note_on_c, 9, 76, 84
10, 66624, Note_on_c, 9, 40, 124
10, 66624, Note_on_c, 9, 42, 100
10, 66624, Note_on_c, 9, 54, 72
10, 66625, Note_off_c, 9, 42, 100
10, 66625, Note_off_c, 9, 40, 124
10, 66656, Note_off_c, 9, 54, 72
10, 66657, Note_off_c, 9, 76, 84
10, 66672, Note_on_c, 9, 42, 88
10, 66672, Note_on_c, 9, 63, 44
10, 66673, Note_off_c, 9, 42, 88
10, 66692, Note_off_c, 9, 63, 44
10, 66720, Note_on_c, 9, 42, 94
10, 66720, Note_on_c, 9, 54, 66
10, 66720, Note_on_c, 9, 64, 96
10, 66721, Note_off_c, 9, 42, 94
10, 66741, Note_off_c, 9, 54, 66
10, 66745, Note_off_c, 9, 64, 96
10, 66768, Note_on_c, 9, 35, 124
10, 66768, Note_on_c, 9, 42, 72
10, 66768, Note_on_c, 9, 54, 42
10, 66768, Note_on_c, 9, 64, 44
10, 66769, Note_off_c, 9, 42, 72
10, 66769, Note_off_c, 9, 35, 124
10, 66785, Note_off_c, 9, 54, 42
10, 66793, Note_off_c, 9, 64, 44
10, 66816, Note_on_c, 9, 76, 84
10, 66816, Note_on_c, 9, 35, 124
10, 66816, Note_on_c, 9, 42, 94
10, 66816, Note_on_c, 9, 54, 72
10, 66816, Note_on_c, 9, 62, 109
10, 66817, Note_off_c, 9, 42, 94
10, 66817, Note_off_c, 9, 35, 124
10, 66844, Note_off_c, 9, 62, 109
10, 66849, Note_off_c, 9, 54, 72
10, 66850, Note_off_c, 9, 76, 84
10, 66864, Note_on_c, 9, 42, 82
10, 66865, Note_off_c, 9, 42, 82
10, 66912, Note_on_c, 9, 46, 87
10, 66912, Note_on_c, 9, 54, 66
10, 66912, Note_on_c, 9, 62, 41
10, 66913, Note_off_c, 9, 46, 87
10, 66934, Note_off_c, 9, 62, 41
10, 66934, Note_off_c, 9, 54, 66
10, 66960, Note_on_c, 9, 54, 34
10, 66960, Note_on_c, 9, 63, 104
10, 66975, Note_off_c, 9, 54, 34
10, 66997, Note_off_c, 9, 63, 104
10, 67008, Note_on_c, 9, 76, 84
10, 67008, Note_on_c, 9, 40, 124
10, 67008, Note_on_c, 9, 42, 96
10, 67008, Note_on_c, 9, 54, 68
10, 67009, Note_off_c, 9, 42, 96
10, 67009, Note_off_c, 9, 40, 124
10, 67039, Note_off_c, 9, 54, 68
10, 67041, Note_off_c, 9, 76, 84
10, 67056, Note_on_c, 9, 42, 66
10, 67056, Note_on_c, 9, 63, 36
10, 67057, Note_off_c, 9, 42, 66
10, 67073, Note_off_c, 9, 63, 36
10, 67104, Note_on_c, 9, 42, 86
10, 67104, Note_on_c, 9, 54, 54
10, 67104, Note_on_c, 9, 64, 96
10, 67105, Note_off_c, 9, 42, 86
10, 67125, Note_off_c, 9, 54, 54
10, 67126, Note_off_c, 9, 64, 96
10, 67152, Note_on_c, 9, 42, 74
10, 67152, Note_on_c, 9, 54, 26
10, 67153, Note_off_c, 9, 42, 74
10, 67168, Note_off_c, 9, 54, 26
10, 67200, Note_on_c, 9, 76, 84
10, 67200, Note_on_c, 9, 35, 124
10, 67200, Note_on_c, 9, 42, 98
10, 67200, Note_on_c, 9, 54, 68
10, 67200, Note_on_c, 9, 62, 101
10, 67201, Note_off_c, 9, 42, 98
10, 67201, Note_off_c, 9, 35, 124
10, 67231, Note_off_c, 9, 54, 68
10, 67232, Note_off_c, 9, 76, 84
10, 67236, Note_off_c, 9, 62, 101
10, 67248, Note_on_c, 9, 42, 58
10, 67249, Note_off_c, 9, 42, 58
10, 67296, Note_on_c, 9, 42, 72
10, 67296, Note_on_c, 9, 54, 58
10, 67296, Note_on_c, 9, 62, 33
10, 67297, Note_off_c, 9, 42, 72
10, 67318, Note_off_c, 9, 54, 58
10, 67320, Note_off_c, 9, 62, 33
10, 67344, Note_on_c, 9, 42, 70
10, 67344, Note_on_c, 9, 54, 38
10, 67344, Note_on_c, 9, 63, 100
10, 67345, Note_off_c, 9, 42, 70
10, 67366, Note_off_c, 9, 54, 38
10, 67381, Note_off_c, 9, 63, 100
10, 67392, Note_on_c, 9, 76, 84
10, 67392, Note_on_c, 9, 40, 124
10, 67392, Note_on_c, 9, 42, 100
10, 67392, Note_on_c, 9, 54, 68
10, 67393, Note_off_c, 9, 42, 100
10, 67393, Note_off_c, 9, 40, 124
10, 67422, Note_off_c, 9, 54, 68
10, 67422, Note_off_c, 9, 76, 84
10, 67440, Note_on_c, 9, 42, 64
10, 67440, Note_on_c, 9, 63, 44
10, 67441, Note_off_c, 9, 42, 64
10, 67460, Note_off_c, 9, 63, 44
10, 67488, Note_on_c, 9, 42, 88
10, 67488, Note_on_c, 9, 54, 50
10, 67488, Note_on_c, 9, 64, 96
10, 67489, Note_off_c, 9, 42, 88
10, 67503, Note_off_c, 9, 54, 50
10, 67513, Note_off_c, 9, 64, 96
10, 67536, Note_on_c, 9, 35, 124
10, 67536, Note_on_c, 9, 42, 66
10, 67536, Note_on_c, 9, 54, 58
10, 67536, Note_on_c, 9, 64, 44
10, 67537, Note_off_c, 9, 42, 66
10, 67537, Note_off_c, 9, 35, 124
10, 67556, Note_off_c, 9, 54, 58
10, 67561, Note_off_c, 9, 64, 44
10, 67584, Note_on_c, 9, 76, 84
10, 67584, Note_on_c, 9, 35, 124
10, 67584, Note_on_c, 9, 42, 94
10, 67584, Note_on_c, 9, 54, 68
10, 67584, Note_on_c, 9, 62, 109
10, 67585, Note_off_c, 9, 42, 94
10, 67585, Note_off_c, 9, 35, 124
10, 67612, Note_off_c, 9, 62, 109
10, 67617, Note_off_c, 9, 54, 68
10, 67618, Note_off_c, 9, 76, 84
10, 67632, Note_on_c, 9, 42, 82
10, 67633, Note_off_c, 9, 42, 82
10, 67680, Note_on_c, 9, 46, 87
10, 67680, Note_on_c, 9, 54, 34
10, 67680, Note_on_c, 9, 62, 41
10, 67681, Note_off_c, 9, 46, 87
10, 67702, Note_off_c, 9, 62, 41
10, 67706, Note_off_c, 9, 54, 34
10, 67728, Note_on_c, 9, 54, 34
10, 67728, Note_on_c, 9, 63, 104
10, 67747, Note_off_c, 9, 54, 34
10, 67765, Note_off_c, 9, 63, 104
10, 67776, Note_on_c, 9, 76, 84
10, 67776, Note_on_c, 9, 40, 124
10, 67776, Note_on_c, 9, 42, 94
10, 67776, Note_on_c, 9, 54, 68
10, 67777, Note_off_c, 9, 42, 94
10, 67777, Note_off_c, 9, 40, 124
10, 67807, Note_off_c, 9, 54, 68
10, 67808, Note_off_c, 9, 76, 84
10, 67824, Note_on_c, 9, 42, 70
10, 67824, Note_on_c, 9, 63, 36
10, 67825, Note_off_c, 9, 42, 70
10, 67841, Note_off_c, 9, 63, 36
10, 67872, Note_on_c, 9, 42, 78
10, 67872, Note_on_c, 9, 54, 54
10, 67872, Note_on_c, 9, 64, 96
10, 67873, Note_off_c, 9, 42, 78
10, 67894, Note_off_c, 9, 64, 96
10, 67894, Note_off_c, 9, 54, 54
10, 67920, Note_on_c, 9, 42, 72
10, 67920, Note_on_c, 9, 54, 54
10, 67921, Note_off_c, 9, 42, 72
10, 67939, Note_off_c, 9, 54, 54
10, 67968, Note_on_c, 9, 76, 84
10, 67968, Note_on_c, 9, 35, 124
10, 67968, Note_on_c, 9, 42, 98
10, 67968, Note_on_c, 9, 54, 68
10, 67968, Note_on_c, 9, 62, 101
10, 67969, Note_off_c, 9, 42, 98
10, 67969, Note_off_c, 9, 35, 124
10, 67998, Note_off_c, 9, 76, 84
10, 67999, Note_off_c, 9, 54, 68
10, 68004, Note_off_c, 9, 62, 101
10, 68016, Note_on_c, 9, 42, 66
10, 68017, Note_off_c, 9, 42, 66
10, 68064, Note_on_c, 9, 42, 86
10, 68064, Note_on_c, 9, 54, 58
10, 68064, Note_on_c, 9, 62, 33
10, 68065, Note_off_c, 9, 42, 86
10, 68085, Note_off_c, 9, 54, 58
10, 68088, Note_off_c, 9, 62, 33
10, 68112, Note_on_c, 9, 42, 70
10, 68112, Note_on_c, 9, 54, 42
10, 68112, Note_on_c, 9, 63, 100
10, 68113, Note_off_c, 9, 42, 70
10, 68133, Note_off_c, 9, 54, 42
10, 68149, Note_off_c, 9, 63, 100
10, 68160, Note_on_c, 9, 76, 84
10, 68160, Note_on_c, 9, 40, 124
10, 68160, Note_on_c, 9, 42, 96
10, 68160, Note_on_c, 9, 54, 72
10, 68161, Note_off_c, 9, 42, 96
10, 68161, Note_off_c, 9, 40, 124
10, 68192, Note_off_c, 9, 54, 72
10, 68193, Note_off_c, 9, 76, 84
10, 68208, Note_on_c, 9, 42, 62
10, 68208, Note_on_c, 9, 63, 44
10, 68209, Note_off_c, 9, 42, 62
10, 68228, Note_off_c, 9, 63, 44
10, 68256, Note_on_c, 9, 42, 86
10, 68256, Note_on_c, 9, 54, 66
10, 68256, Note_on_c, 9, 64, 96
10, 68257, Note_off_c, 9, 42, 86
10, 68277, Note_off_c, 9, 54, 66
10, 68281, Note_off_c, 9, 64, 96
10, 68304, Note_on_c, 9, 35, 124
10, 68304, Note_on_c, 9, 42, 68
10, 68304, Note_on_c, 9, 54, 42
10, 68304, Note_on_c, 9, 64, 44
10, 68305, Note_off_c, 9, 42, 68
10, 68305, Note_off_c, 9, 35, 124
10, 68321, Note_off_c, 9, 54, 42
10, 68329, Note_off_c, 9, 64, 44
10, 68352, Note_on_c, 9, 76, 84
10, 68352, Note_on_c, 9, 35, 124
10, 68352, Note_on_c, 9, 42, 98
10, 68352, Note_on_c, 9, 54, 72
10, 68352, Note_on_c, 9, 62, 109
10, 68353, Note_off_c, 9, 42, 98
10, 68353, Note_off_c, 9, 35, 124
10, 68380, Note_off_c, 9, 62, 109
10, 68385, Note_off_c, 9, 54, 72
10, 68386, Note_off_c, 9, 76, 84
10, 68400, Note_on_c, 9, 42, 70
10, 68401, Note_off_c, 9, 42, 70
10, 68448, Note_on_c, 9, 46, 87
10, 68448, Note_on_c, 9, 54, 66
10, 68448, Note_on_c, 9, 62, 41
10, 68449, Note_off_c, 9, 46, 87
10, 68470, Note_off_c, 9, 62, 41
10, 68470, Note_off_c, 9, 54, 66
10, 68496, Note_on_c, 9, 54, 34
10, 68496, Note_on_c, 9, 63, 104
10, 68511, Note_off_c, 9, 54, 34
10, 68533, Note_off_c, 9, 63, 104
10, 68544, Note_on_c, 9, 76, 84
10, 68544, Note_on_c, 9, 40, 124
10, 68544, Note_on_c, 9, 42, 96
10, 68544, Note_on_c, 9, 54, 68
10, 68545, Note_off_c, 9, 42, 96
10, 68545, Note_off_c, 9, 40, 124
10, 68575, Note_off_c, 9, 54, 68
10, 68576, Note_off_c, 9, 76, 84
10, 68592, Note_on_c, 9, 42, 66
10, 68592, Note_on_c, 9, 63, 36
10, 68593, Note_off_c, 9, 42, 66
10, 68609, Note_off_c, 9, 63, 36
10, 68640, Note_on_c, 9, 42, 84
10, 68640, Note_on_c, 9, 54, 54
10, 68640, Note_on_c, 9, 64, 96
10, 68641, Note_off_c, 9, 42, 84
10, 68661, Note_off_c, 9, 54, 54
10, 68662, Note_off_c, 9, 64, 96
10, 68688, Note_on_c, 9, 42, 66
10, 68688, Note_on_c, 9, 54, 26
10, 68689, Note_off_c, 9, 42, 66
10, 68704, Note_off_c, 9, 54, 26
10, 68736, Note_on_c, 9, 76, 84
10, 68736, Note_on_c, 9, 35, 124
10, 68736, Note_on_c, 9, 42, 96
10, 68736, Note_on_c, 9, 54, 68
10, 68736, Note_on_c, 9, 62, 101
10, 68737, Note_off_c, 9, 42, 96
10, 68737, Note_off_c, 9, 35, 124
10, 68765, Note_off_c, 9, 76, 84
10, 68767, Note_off_c, 9, 54, 68
10, 68772, Note_off_c, 9, 62, 101
10, 68784, Note_on_c, 9, 42, 66
10, 68785, Note_off_c, 9, 42, 66
10, 68832, Note_on_c, 9, 42, 76
10, 68832, Note_on_c, 9, 54, 58
10, 68832, Note_on_c, 9, 62, 33
10, 68833, Note_off_c, 9, 42, 76
10, 68854, Note_off_c, 9, 54, 58
10, 68856, Note_off_c, 9, 62, 33
10, 68880, Note_on_c, 9, 42, 68
10, 68880, Note_on_c, 9, 54, 38
10, 68880, Note_on_c, 9, 63, 100
10, 68881, Note_off_c, 9, 42, 68
10, 68902, Note_off_c, 9, 54, 38
10, 68917, Note_off_c, 9, 63, 100
10, 68928, Note_on_c, 9, 76, 84
10, 68928, Note_on_c, 9, 40, 124
10, 68928, Note_on_c, 9, 42, 96
10, 68928, Note_on_c, 9, 54, 68
10, 68929, Note_off_c, 9, 42, 96
10, 68929, Note_off_c, 9, 40, 124
10, 68958, Note_off_c, 9, 54, 68
10, 68958, Note_off_c, 9, 76, 84
10, 68976, Note_on_c, 9, 42, 50
10, 68976, Note_on_c, 9, 63, 44
10, 68977, Note_off_c, 9, 42, 50
10, 68996, Note_off_c, 9, 63, 44
10, 69024, Note_on_c, 9, 42, 78
10, 69024, Note_on_c, 9, 54, 50
10, 69024, Note_on_c, 9, 64, 96
10, 69025, Note_off_c, 9, 42, 78
10, 69039, Note_off_c, 9, 54, 50
10, 69049, Note_off_c, 9, 64, 96
10, 69072, Note_on_c, 9, 35, 124
10, 69072, Note_on_c, 9, 42, 68
10, 69072, Note_on_c, 9, 54, 58
10, 69072, Note_on_c, 9, 64, 44
10, 69073, Note_off_c, 9, 42, 68
10, 69073, Note_off_c, 9, 35, 124
10, 69092, Note_off_c, 9, 54, 58
10, 69097, Note_off_c, 9, 64, 44
10, 69120, Note_on_c, 9, 35, 124
10, 69120, Note_on_c, 9, 49, 86
10, 69120, Note_on_c, 9, 62, 109
10, 69121, Note_off_c, 9, 49, 86
10, 69121, Note_off_c, 9, 35, 124
10, 69148, Note_off_c, 9, 62, 109
10, 69168, Note_on_c, 9, 42, 82
10, 69169, Note_off_c, 9, 42, 82
10, 69216, Note_on_c, 9, 46, 87
10, 69216, Note_on_c, 9, 62, 41
10, 69216, Note_on_c, 9, 64, 112
10, 69217, Note_off_c, 9, 46, 87
10, 69238, Note_off_c, 9, 62, 41
10, 69240, Note_off_c, 9, 64, 112
10, 69264, Note_on_c, 9, 63, 104
10, 69301, Note_off_c, 9, 63, 104
10, 69312, Note_on_c, 9, 40, 124
10, 69312, Note_on_c, 9, 42, 94
10, 69312, Note_on_c, 9, 63, 124
10, 69313, Note_off_c, 9, 42, 94
10, 69313, Note_off_c, 9, 40, 124
10, 69342, Note_off_c, 9, 63, 124
10, 69360, Note_on_c, 9, 42, 70
10, 69360, Note_on_c, 9, 63, 36
10, 69361, Note_off_c, 9, 42, 70
10, 69377, Note_off_c, 9, 63, 36
10, 69408, Note_on_c, 9, 42, 78
10, 69408, Note_on_c, 9, 62, 116
10, 69408, Note_on_c, 9, 64, 96
10, 69409, Note_off_c, 9, 42, 78
10, 69430, Note_off_c, 9, 64, 96
10, 69435, Note_off_c, 9, 62, 116
10, 69456, Note_on_c, 9, 42, 72
10, 69456, Note_on_c, 9, 64, 116
10, 69457, Note_off_c, 9, 42, 72
10, 69479, Note_off_c, 9, 64, 116
10, 69504, Note_on_c, 9, 35, 124
10, 69504, Note_on_c, 9, 42, 98
10, 69504, Note_on_c, 9, 62, 101
10, 69505, Note_off_c, 9, 42, 98
10, 69505, Note_off_c, 9, 35, 124
10, 69540, Note_off_c, 9, 62, 101
10, 69552, Note_on_c, 9, 42, 66
10, 69552, Note_on_c, 9, 64, 56
10, 69553, Note_off_c, 9, 42, 66
10, 69564, Note_off_c, 9, 64, 56
10, 69600, Note_on_c, 9, 42, 86
10, 69600, Note_on_c, 9, 62, 33
10, 69600, Note_on_c, 9, 64, 96
10, 69601, Note_off_c, 9, 42, 86
10, 69624, Note_off_c, 9, 64, 96
10, 69624, Note_off_c, 9, 62, 33
10, 69648, Note_on_c, 9, 42, 70
10, 69648, Note_on_c, 9, 63, 100
10, 69649, Note_off_c, 9, 42, 70
10, 69685, Note_off_c, 9, 63, 100
10, 69696, Note_on_c, 9, 40, 124
10, 69696, Note_on_c, 9, 42, 96
10, 69696, Note_on_c, 9, 63, 124
10, 69697, Note_off_c, 9, 42, 96
10, 69697, Note_off_c, 9, 40, 124
10, 69727, Note_off_c, 9, 63, 124
10, 69744, Note_on_c, 9, 42, 62
10, 69744, Note_on_c, 9, 63, 44
10, 69745, Note_off_c, 9, 42, 62
10, 69764, Note_off_c, 9, 63, 44
10, 69792, Note_on_c, 9, 42, 86
10, 69792, Note_on_c, 9, 62, 108
10, 69792, Note_on_c, 9, 63, 104
10, 69792, Note_on_c, 9, 64, 96
10, 69793, Note_off_c, 9, 42, 86
10, 69810, Note_off_c, 9, 63, 104
10, 69815, Note_off_c, 9, 62, 108
10, 69817, Note_off_c, 9, 64, 96
10, 69840, Note_off_c, 9, 64, 100
10, 69840, Note_on_c, 9, 35, 124
10, 69840, Note_on_c, 9, 42, 68
10, 69840, Note_on_c, 9, 64, 100
10, 69840, Note_on_c, 9, 64, 44
10, 69841, Note_off_c, 9, 42, 68
10, 69841, Note_off_c, 9, 35, 124
10, 69864, Note_off_c, 9, 64, 44
10, 69888, Note_on_c, 9, 35, 124
10, 69888, Note_on_c, 9, 42, 98
10, 69888, Note_on_c, 9, 62, 109
10, 69888, Note_on_c, 9, 64, 88
10, 69889, Note_off_c, 9, 42, 98
10, 69889, Note_off_c, 9, 35, 124
10, 69904, Note_off_c, 9, 64, 88
10, 69916, Note_off_c, 9, 62, 109
10, 69936, Note_on_c, 9, 42, 70
10, 69936, Note_on_c, 9, 64, 76
10, 69937, Note_off_c, 9, 42, 70
10, 69956, Note_off_c, 9, 64, 76
10, 69984, Note_on_c, 9, 46, 87
10, 69984, Note_on_c, 9, 62, 41
10, 69984, Note_on_c, 9, 64, 108
10, 69985, Note_off_c, 9, 46, 87
10, 70003, Note_off_c, 9, 64, 108
10, 70006, Note_off_c, 9, 62, 41
10, 70032, Note_on_c, 9, 63, 104
10, 70069, Note_off_c, 9, 63, 104
10, 70080, Note_on_c, 9, 40, 124
10, 70080, Note_on_c, 9, 42, 96
10, 70080, Note_on_c, 9, 63, 124
10, 70081, Note_off_c, 9, 42, 96
10, 70081, Note_off_c, 9, 40, 124
10, 70111, Note_off_c, 9, 63, 124
10, 70128, Note_on_c, 9, 42, 66
10, 70128, Note_on_c, 9, 63, 36
10, 70129, Note_off_c, 9, 42, 66
10, 70145, Note_off_c, 9, 63, 36
10, 70176, Note_on_c, 9, 42, 84
10, 70176, Note_on_c, 9, 62, 120
10, 70176, Note_on_c, 9, 64, 96
10, 70177, Note_off_c, 9, 42, 84
10, 70198, Note_off_c, 9, 64, 96
10, 70200, Note_off_c, 9, 62, 120
10, 70224, Note_on_c, 9, 42, 66
10, 70224, Note_on_c, 9, 64, 120
10, 70225, Note_off_c, 9, 42, 66
10, 70251, Note_off_c, 9, 64, 120
10, 70272, Note_on_c, 9, 35, 124
10, 70272, Note_on_c, 9, 42, 96
10, 70272, Note_on_c, 9, 62, 101
10, 70273, Note_off_c, 9, 42, 96
10, 70273, Note_off_c, 9, 35, 124
10, 70308, Note_off_c, 9, 62, 101
10, 70320, Note_on_c, 9, 42, 66
10, 70320, Note_on_c, 9, 64, 64
10, 70321, Note_off_c, 9, 42, 66
10, 70336, Note_off_c, 9, 64, 64
10, 70368, Note_on_c, 9, 42, 76
10, 70368, Note_on_c, 9, 62, 33
10, 70368, Note_on_c, 9, 64, 68
10, 70369, Note_off_c, 9, 42, 76
10, 70385, Note_off_c, 9, 64, 68
10, 70392, Note_off_c, 9, 62, 33
10, 70416, Note_on_c, 9, 42, 68
10, 70416, Note_on_c, 9, 63, 100
10, 70417, Note_off_c, 9, 42, 68
10, 70453, Note_off_c, 9, 63, 100
10, 70464, Note_on_c, 9, 40, 124
10, 70464, Note_on_c, 9, 42, 96
10, 70464, Note_on_c, 9, 63, 124
10, 70465, Note_off_c, 9, 42, 96
10, 70465, Note_off_c, 9, 40, 124
10, 70493, Note_off_c, 9, 63, 124
10, 70512, Note_on_c, 9, 42, 50
10, 70512, Note_on_c, 9, 63, 44
10, 70513, Note_off_c, 9, 42, 50
10, 70532, Note_off_c, 9, 63, 44
10, 70560, Note_on_c, 9, 42, 78
10, 70560, Note_on_c, 9, 62, 120
10, 70560, Note_on_c, 9, 64, 96
10, 70561, Note_off_c, 9, 42, 78
10, 70585, Note_off_c, 9, 64, 96
10, 70585, Note_off_c, 9, 62, 120
10, 70608, Note_off_c, 9, 64, 100
10, 70608, Note_on_c, 9, 35, 124
10, 70608, Note_on_c, 9, 42, 68
10, 70608, Note_on_c, 9, 64, 100
10, 70608, Note_on_c, 9, 64, 44
10, 70609, Note_off_c, 9, 42, 68
10, 70609, Note_off_c, 9, 35, 124
10, 70632, Note_off_c, 9, 64, 44
10, 70656, Note_on_c, 9, 35, 124
10, 70656, Note_on_c, 9, 42, 96
10, 70656, Note_on_c, 9, 62, 109
10, 70656, Note_on_c, 9, 64, 68
10, 70657, Note_off_c, 9, 42, 96
10, 70657, Note_off_c, 9, 35, 124
10, 70669, Note_off_c, 9, 64, 68
10, 70684, Note_off_c, 9, 62, 109
10, 70704, Note_on_c, 9, 42, 72
10, 70704, Note_on_c, 9, 64, 60
10, 70705, Note_off_c, 9, 42, 72
10, 70722, Note_off_c, 9, 64, 60
10, 70752, Note_on_c, 9, 46, 89
10, 70752, Note_on_c, 9, 62, 41
10, 70752, Note_on_c, 9, 64, 108
10, 70753, Note_off_c, 9, 46, 89
10, 70771, Note_off_c, 9, 64, 108
10, 70774, Note_off_c, 9, 62, 41
10, 70800, Note_on_c, 9, 63, 104
10, 70837, Note_off_c, 9, 63, 104
10, 70848, Note_on_c, 9, 40, 124
10, 70848, Note_on_c, 9, 42, 96
10, 70848, Note_on_c, 9, 63, 124
10, 70849, Note_off_c, 9, 42, 96
10, 70849, Note_off_c, 9, 40, 124
10, 70879, Note_off_c, 9, 63, 124
10, 70896, Note_on_c, 9, 42, 68
10, 70896, Note_on_c, 9, 63, 36
10, 70897, Note_off_c, 9, 42, 68
10, 70913, Note_off_c, 9, 63, 36
10, 70944, Note_on_c, 9, 42, 70
10, 70944, Note_on_c, 9, 62, 116
10, 70944, Note_on_c, 9, 64, 96
10, 70945, Note_off_c, 9, 42, 70
10, 70966, Note_off_c, 9, 64, 96
10, 70968, Note_off_c, 9, 62, 116
10, 70992, Note_on_c, 9, 42, 70
10, 70992, Note_on_c, 9, 64, 112
10, 70993, Note_off_c, 9, 42, 70
10, 71021, Note_off_c, 9, 64, 112
10, 71040, Note_on_c, 9, 35, 124
10, 71040, Note_on_c, 9, 42, 96
10, 71040, Note_on_c, 9, 62, 101
10, 71041, Note_off_c, 9, 42, 96
10, 71041, Note_off_c, 9, 35, 124
10, 71076, Note_off_c, 9, 62, 101
10, 71088, Note_on_c, 9, 42, 76
10, 71088, Note_on_c, 9, 64, 88
10, 71089, Note_off_c, 9, 42, 76
10, 71105, Note_off_c, 9, 64, 88
10, 71136, Note_on_c, 9, 42, 78
10, 71136, Note_on_c, 9, 62, 33
10, 71136, Note_on_c, 9, 64, 84
10, 71137, Note_off_c, 9, 42, 78
10, 71153, Note_off_c, 9, 64, 84
10, 71160, Note_off_c, 9, 62, 33
10, 71184, Note_on_c, 9, 42, 72
10, 71184, Note_on_c, 9, 63, 100
10, 71185, Note_off_c, 9, 42, 72
10, 71221, Note_off_c, 9, 63, 100
10, 71232, Note_on_c, 9, 40, 124
10, 71232, Note_on_c, 9, 42, 100
10, 71232, Note_on_c, 9, 63, 124
10, 71233, Note_off_c, 9, 42, 100
10, 71233, Note_off_c, 9, 40, 124
10, 71260, Note_off_c, 9, 63, 124
10, 71280, Note_on_c, 9, 42, 88
10, 71280, Note_on_c, 9, 63, 44
10, 71281, Note_off_c, 9, 42, 88
10, 71300, Note_off_c, 9, 63, 44
10, 71328, Note_on_c, 9, 42, 94
10, 71328, Note_on_c, 9, 62, 120
10, 71328, Note_on_c, 9, 64, 96
10, 71329, Note_off_c, 9, 42, 94
10, 71353, Note_off_c, 9, 64, 96
10, 71353, Note_off_c, 9, 62, 120
10, 71376, Note_off_c, 9, 64, 100
10, 71376, Note_on_c, 9, 35, 124
10, 71376, Note_on_c, 9, 42, 72
10, 71376, Note_on_c, 9, 64, 100
10, 71376, Note_on_c, 9, 64, 44
10, 71377, Note_off_c, 9, 42, 72
10, 71377, Note_off_c, 9, 35, 124
10, 71399, Note_off_c, 9, 64, 44
10, 71424, Note_on_c, 9, 35, 124
10, 71424, Note_on_c, 9, 42, 94
10, 71424, Note_on_c, 9, 62, 109
10, 71424, Note_on_c, 9, 64, 76
10, 71425, Note_off_c, 9, 42, 94
10, 71425, Note_off_c, 9, 35, 124
10, 71440, Note_off_c, 9, 64, 76
10, 71452, Note_off_c, 9, 62, 109
10, 71472, Note_on_c, 9, 42, 82
10, 71472, Note_on_c, 9, 64, 76
10, 71473, Note_off_c, 9, 42, 82
10, 71488, Note_off_c, 9, 64, 76
10, 71520, Note_on_c, 9, 46, 87
10, 71520, Note_on_c, 9, 62, 41
10, 71520, Note_on_c, 9, 64, 100
10, 71521, Note_off_c, 9, 46, 87
10, 71540, Note_off_c, 9, 64, 100
10, 71542, Note_off_c, 9, 62, 41
10, 71568, Note_on_c, 9, 63, 104
10, 71605, Note_off_c, 9, 63, 104
10, 71616, Note_on_c, 9, 40, 124
10, 71616, Note_on_c, 9, 42, 96
10, 71616, Note_on_c, 9, 63, 124
10, 71617, Note_off_c, 9, 42, 96
10, 71617, Note_off_c, 9, 40, 124
10, 71645, Note_off_c, 9, 63, 124
10, 71664, Note_on_c, 9, 42, 66
10, 71664, Note_on_c, 9, 63, 36
10, 71665, Note_off_c, 9, 42, 66
10, 71681, Note_off_c, 9, 63, 36
10, 71712, Note_on_c, 9, 42, 86
10, 71712, Note_on_c, 9, 62, 112
10, 71712, Note_on_c, 9, 64, 96
10, 71713, Note_off_c, 9, 42, 86
10, 71734, Note_off_c, 9, 64, 96
10, 71737, Note_off_c, 9, 62, 112
10, 71760, Note_on_c, 9, 42, 74
10, 71760, Note_on_c, 9, 64, 104
10, 71761, Note_off_c, 9, 42, 74
10, 71785, Note_off_c, 9, 64, 104
10, 71808, Note_on_c, 9, 35, 124
10, 71808, Note_on_c, 9, 42, 98
10, 71808, Note_on_c, 9, 62, 101
10, 71809, Note_off_c, 9, 42, 98
10, 71809, Note_off_c, 9, 35, 124
10, 71844, Note_off_c, 9, 62, 101
10, 71856, Note_on_c, 9, 42, 58
10, 71857, Note_off_c, 9, 42, 58
10, 71862, Note_on_c, 9, 62, 121
10, 71877, Note_off_c, 9, 62, 121
10, 71885, Note_on_c, 9, 62, 109
10, 71897, Note_off_c, 9, 62, 109
10, 71904, Note_on_c, 9, 42, 72
10, 71904, Note_on_c, 9, 62, 33
10, 71905, Note_off_c, 9, 42, 72
10, 71913, Note_on_c, 9, 62, 121
10, 71922, Note_off_c, 9, 62, 33
10, 71928, Note_off_c, 9, 62, 121
10, 71952, Note_on_c, 9, 42, 70
10, 71952, Note_on_c, 9, 63, 100
10, 71953, Note_off_c, 9, 42, 70
10, 71958, Note_on_c, 9, 62, 127
10, 71975, Note_off_c, 9, 62, 127
10, 71989, Note_off_c, 9, 63, 100
10, 72000, Note_on_c, 9, 40, 124
10, 72000, Note_on_c, 9, 42, 100
10, 72001, Note_off_c, 9, 42, 100
10, 72001, Note_off_c, 9, 40, 124
10, 72005, Note_on_c, 9, 62, 127
10, 72024, Note_off_c, 9, 62, 127
10, 72048, Note_on_c, 9, 42, 64
10, 72048, Note_on_c, 9, 63, 44
10, 72049, Note_off_c, 9, 42, 64
10, 72051, Note_on_c, 9, 62, 127
10, 72068, Note_off_c, 9, 63, 44
10, 72070, Note_off_c, 9, 62, 127
10, 72096, Note_on_c, 9, 42, 88
10, 72096, Note_on_c, 9, 64, 96
10, 72097, Note_off_c, 9, 42, 88
10, 72121, Note_off_c, 9, 64, 96
10, 72144, Note_on_c, 9, 35, 124
10, 72144, Note_on_c, 9, 42, 66
10, 72144, Note_on_c, 9, 64, 44
10, 72145, Note_off_c, 9, 42, 66
10, 72145, Note_off_c, 9, 35, 124
10, 72169, Note_off_c, 9, 64, 44
10, 72192, Note_on_c, 9, 35, 124
10, 72192, Note_on_c, 9, 42, 94
10, 72192, Note_on_c, 9, 62, 109
10, 72193, Note_off_c, 9, 42, 94
10, 72193, Note_off_c, 9, 35, 124
10, 72220, Note_off_c, 9, 62, 109
10, 72240, Note_on_c, 9, 42, 82
10, 72241, Note_off_c, 9, 42, 82
10, 72288, Note_on_c, 9, 46, 87
10, 72288, Note_on_c, 9, 62, 41
10, 72288, Note_on_c, 9, 64, 112
10, 72289, Note_off_c, 9, 46, 87
10, 72310, Note_off_c, 9, 62, 41
10, 72312, Note_off_c, 9, 64, 112
10, 72336, Note_on_c, 9, 63, 104
10, 72373, Note_off_c, 9, 63, 104
10, 72384, Note_on_c, 9, 40, 124
10, 72384, Note_on_c, 9, 42, 94
10, 72384, Note_on_c, 9, 63, 124
10, 72385, Note_off_c, 9, 42, 94
10, 72385, Note_off_c, 9, 40, 124
10, 72414, Note_off_c, 9, 63, 124
10, 72432, Note_on_c, 9, 42, 70
10, 72432, Note_on_c, 9, 63, 36
10, 72433, Note_off_c, 9, 42, 70
10, 72449, Note_off_c, 9, 63, 36
10, 72480, Note_on_c, 9, 42, 78
10, 72480, Note_on_c, 9, 62, 116
10, 72480, Note_on_c, 9, 64, 96
10, 72481, Note_off_c, 9, 42, 78
10, 72502, Note_off_c, 9, 64, 96
10, 72507, Note_off_c, 9, 62, 116
10, 72528, Note_on_c, 9, 42, 72
10, 72528, Note_on_c, 9, 64, 116
10, 72529, Note_off_c, 9, 42, 72
10, 72551, Note_off_c, 9, 64, 116
10, 72576, Note_on_c, 9, 35, 124
10, 72576, Note_on_c, 9, 42, 98
10, 72576, Note_on_c, 9, 62, 101
10, 72577, Note_off_c, 9, 42, 98
10, 72577, Note_off_c, 9, 35, 124
10, 72612, Note_off_c, 9, 62, 101
10, 72624, Note_on_c, 9, 42, 66
10, 72624, Note_on_c, 9, 64, 56
10, 72625, Note_off_c, 9, 42, 66
10, 72636, Note_off_c, 9, 64, 56
10, 72672, Note_on_c, 9, 42, 86
10, 72672, Note_on_c, 9, 62, 33
10, 72672, Note_on_c, 9, 64, 96
10, 72673, Note_off_c, 9, 42, 86
10, 72696, Note_off_c, 9, 64, 96
10, 72696, Note_off_c, 9, 62, 33
10, 72720, Note_on_c, 9, 42, 70
10, 72720, Note_on_c, 9, 63, 100
10, 72721, Note_off_c, 9, 42, 70
10, 72757, Note_off_c, 9, 63, 100
10, 72768, Note_on_c, 9, 40, 124
10, 72768, Note_on_c, 9, 42, 96
10, 72768, Note_on_c, 9, 63, 124
10, 72769, Note_off_c, 9, 42, 96
10, 72769, Note_off_c, 9, 40, 124
10, 72799, Note_off_c, 9, 63, 124
10, 72816, Note_on_c, 9, 42, 62
10, 72816, Note_on_c, 9, 63, 44
10, 72817, Note_off_c, 9, 42, 62
10, 72836, Note_off_c, 9, 63, 44
10, 72864, Note_on_c, 9, 42, 86
10, 72864, Note_on_c, 9, 62, 108
10, 72864, Note_on_c, 9, 63, 104
10, 72864, Note_on_c, 9, 64, 96
10, 72865, Note_off_c, 9, 42, 86
10, 72882, Note_off_c, 9, 63, 104
10, 72887, Note_off_c, 9, 62, 108
10, 72889, Note_off_c, 9, 64, 96
10, 72912, Note_off_c, 9, 64, 100
10, 72912, Note_on_c, 9, 35, 124
10, 72912, Note_on_c, 9, 42, 68
10, 72912, Note_on_c, 9, 64, 100
10, 72912, Note_on_c, 9, 64, 44
10, 72913, Note_off_c, 9, 42, 68
10, 72913, Note_off_c, 9, 35, 124
10, 72936, Note_off_c, 9, 64, 44
10, 72960, Note_on_c, 9, 35, 124
10, 72960, Note_on_c, 9, 42, 98
10, 72960, Note_on_c, 9, 62, 109
10, 72960, Note_on_c, 9, 64, 88
10, 72961, Note_off_c, 9, 42, 98
10, 72961, Note_off_c, 9, 35, 124
10, 72976, Note_off_c, 9, 64, 88
10, 72988, Note_off_c, 9, 62, 109
10, 73008, Note_on_c, 9, 42, 70
10, 73008, Note_on_c, 9, 64, 76
10, 73009, Note_off_c, 9, 42, 70
10, 73028, Note_off_c, 9, 64, 76
10, 73056, Note_on_c, 9, 46, 87
10, 73056, Note_on_c, 9, 62, 41
10, 73056, Note_on_c, 9, 64, 108
10, 73057, Note_off_c, 9, 46, 87
10, 73075, Note_off_c, 9, 64, 108
10, 73078, Note_off_c, 9, 62, 41
10, 73104, Note_on_c, 9, 63, 104
10, 73141, Note_off_c, 9, 63, 104
10, 73152, Note_on_c, 9, 40, 124
10, 73152, Note_on_c, 9, 42, 96
10, 73152, Note_on_c, 9, 63, 124
10, 73153, Note_off_c, 9, 42, 96
10, 73153, Note_off_c, 9, 40, 124
10, 73183, Note_off_c, 9, 63, 124
10, 73200, Note_on_c, 9, 42, 66
10, 73200, Note_on_c, 9, 63, 36
10, 73201, Note_off_c, 9, 42, 66
10, 73217, Note_off_c, 9, 63, 36
10, 73248, Note_on_c, 9, 42, 84
10, 73248, Note_on_c, 9, 62, 120
10, 73248, Note_on_c, 9, 64, 96
10, 73249, Note_off_c, 9, 42, 84
10, 73270, Note_off_c, 9, 64, 96
10, 73272, Note_off_c, 9, 62, 120
10, 73296, Note_on_c, 9, 42, 66
10, 73296, Note_on_c, 9, 64, 120
10, 73297, Note_off_c, 9, 42, 66
10, 73323, Note_off_c, 9, 64, 120
10, 73344, Note_on_c, 9, 35, 124
10, 73344, Note_on_c, 9, 42, 96
10, 73344, Note_on_c, 9, 62, 101
10, 73345, Note_off_c, 9, 42, 96
10, 73345, Note_off_c, 9, 35, 124
10, 73380, Note_off_c, 9, 62, 101
10, 73392, Note_on_c, 9, 42, 66
10, 73392, Note_on_c, 9, 64, 64
10, 73393, Note_off_c, 9, 42, 66
10, 73408, Note_off_c, 9, 64, 64
10, 73440, Note_on_c, 9, 42, 76
10, 73440, Note_on_c, 9, 62, 33
10, 73440, Note_on_c, 9, 64, 68
10, 73441, Note_off_c, 9, 42, 76
10, 73457, Note_off_c, 9, 64, 68
10, 73464, Note_off_c, 9, 62, 33
10, 73488, Note_on_c, 9, 42, 68
10, 73488, Note_on_c, 9, 63, 100
10, 73489, Note_off_c, 9, 42, 68
10, 73525, Note_off_c, 9, 63, 100
10, 73536, Note_on_c, 9, 40, 124
10, 73536, Note_on_c, 9, 42, 96
10, 73536, Note_on_c, 9, 63, 124
10, 73537, Note_off_c, 9, 42, 96
10, 73537, Note_off_c, 9, 40, 124
10, 73565, Note_off_c, 9, 63, 124
10, 73584, Note_on_c, 9, 42, 50
10, 73584, Note_on_c, 9, 63, 44
10, 73585, Note_off_c, 9, 42, 50
10, 73604, Note_off_c, 9, 63, 44
10, 73632, Note_on_c, 9, 42, 78
10, 73632, Note_on_c, 9, 62, 120
10, 73632, Note_on_c, 9, 64, 96
10, 73633, Note_off_c, 9, 42, 78
10, 73657, Note_off_c, 9, 64, 96
10, 73657, Note_off_c, 9, 62, 120
10, 73680, Note_off_c, 9, 64, 100
10, 73680, Note_on_c, 9, 35, 124
10, 73680, Note_on_c, 9, 42, 68
10, 73680, Note_on_c, 9, 64, 100
10, 73680, Note_on_c, 9, 64, 44
10, 73681, Note_off_c, 9, 42, 68
10, 73681, Note_off_c, 9, 35, 124
10, 73704, Note_off_c, 9, 64, 44
10, 73728, Note_on_c, 9, 35, 124
10, 73728, Note_on_c, 9, 42, 94
10, 73728, Note_on_c, 9, 62, 109
10, 73728, Note_on_c, 9, 64, 68
10, 73729, Note_off_c, 9, 42, 94
10, 73729, Note_off_c, 9, 35, 124
10, 73741, Note_off_c, 9, 64, 68
10, 73756, Note_off_c, 9, 62, 109
10, 73776, Note_on_c, 9, 42, 82
10, 73776, Note_on_c, 9, 64, 60
10, 73777, Note_off_c, 9, 42, 82
10, 73794, Note_off_c, 9, 64, 60
10, 73824, Note_on_c, 9, 46, 87
10, 73824, Note_on_c, 9, 62, 41
10, 73824, Note_on_c, 9, 64, 108
10, 73825, Note_off_c, 9, 46, 87
10, 73843, Note_off_c, 9, 64, 108
10, 73846, Note_off_c, 9, 62, 41
10, 73872, Note_on_c, 9, 63, 104
10, 73909, Note_off_c, 9, 63, 104
10, 73920, Note_on_c, 9, 40, 124
10, 73920, Note_on_c, 9, 42, 94
10, 73920, Note_on_c, 9, 63, 124
10, 73921, Note_off_c, 9, 42, 94
10, 73921, Note_off_c, 9, 40, 124
10, 73951, Note_off_c, 9, 63, 124
10, 73968, Note_on_c, 9, 42, 70
10, 73968, Note_on_c, 9, 63, 36
10, 73969, Note_off_c, 9, 42, 70
10, 73985, Note_off_c, 9, 63, 36
10, 74016, Note_on_c, 9, 42, 78
10, 74016, Note_on_c, 9, 62, 116
10, 74016, Note_on_c, 9, 64, 96
10, 74017, Note_off_c, 9, 42, 78
10, 74038, Note_off_c, 9, 64, 96
10, 74040, Note_off_c, 9, 62, 116
10, 74064, Note_on_c, 9, 42, 72
10, 74064, Note_on_c, 9, 64, 112
10, 74065, Note_off_c, 9, 42, 72
10, 74093, Note_off_c, 9, 64, 112
10, 74112, Note_on_c, 9, 35, 124
10, 74112, Note_on_c, 9, 42, 98
10, 74112, Note_on_c, 9, 62, 101
10, 74113, Note_off_c, 9, 42, 98
10, 74113, Note_off_c, 9, 35, 124
10, 74148, Note_off_c, 9, 62, 101
10, 74160, Note_on_c, 9, 42, 66
10, 74160, Note_on_c, 9, 64, 88
10, 74161, Note_off_c, 9, 42, 66
10, 74177, Note_off_c, 9, 64, 88
10, 74208, Note_on_c, 9, 42, 86
10, 74208, Note_on_c, 9, 62, 33
10, 74208, Note_on_c, 9, 64, 84
10, 74209, Note_off_c, 9, 42, 86
10, 74225, Note_off_c, 9, 64, 84
10, 74232, Note_off_c, 9, 62, 33
10, 74256, Note_on_c, 9, 42, 70
10, 74256, Note_on_c, 9, 63, 100
10, 74257, Note_off_c, 9, 42, 70
10, 74293, Note_off_c, 9, 63, 100
10, 74304, Note_on_c, 9, 40, 124
10, 74304, Note_on_c, 9, 42, 96
10, 74304, Note_on_c, 9, 63, 124
10, 74305, Note_off_c, 9, 42, 96
10, 74305, Note_off_c, 9, 40, 124
10, 74332, Note_off_c, 9, 63, 124
10, 74352, Note_on_c, 9, 42, 62
10, 74352, Note_on_c, 9, 63, 44
10, 74353, Note_off_c, 9, 42, 62
10, 74372, Note_off_c, 9, 63, 44
10, 74400, Note_on_c, 9, 42, 86
10, 74400, Note_on_c, 9, 62, 120
10, 74400, Note_on_c, 9, 64, 96
10, 74401, Note_off_c, 9, 42, 86
10, 74425, Note_off_c, 9, 64, 96
10, 74425, Note_off_c, 9, 62, 120
10, 74448, Note_off_c, 9, 64, 100
10, 74448, Note_on_c, 9, 35, 124
10, 74448, Note_on_c, 9, 42, 68
10, 74448, Note_on_c, 9, 64, 100
10, 74448, Note_on_c, 9, 64, 44
10, 74449, Note_off_c, 9, 42, 68
10, 74449, Note_off_c, 9, 35, 124
10, 74471, Note_off_c, 9, 64, 44
10, 74496, Note_on_c, 9, 35, 124
10, 74496, Note_on_c, 9, 42, 98
10, 74496, Note_on_c, 9, 62, 109
10, 74497, Note_off_c, 9, 42, 98
10, 74497, Note_off_c, 9, 35, 124
10, 74524, Note_off_c, 9, 62, 109
10, 75264, Note_on_c, 9, 35, 124
10, 75264, Note_on_c, 9, 54, 68
10, 75264, Note_on_c, 9, 57, 75
10, 75264, Note_on_c, 9, 62, 109
10, 75265, Note_off_c, 9, 57, 75
10, 75265, Note_off_c, 9, 35, 124
10, 75292, Note_off_c, 9, 62, 109
10, 75297, Note_off_c, 9, 54, 68
10, 75312, Note_on_c, 9, 42, 86
10, 75313, Note_off_c, 9, 42, 86
10, 75360, Note_on_c, 9, 46, 87
10, 75360, Note_on_c, 9, 54, 34
10, 75360, Note_on_c, 9, 62, 41
10, 75361, Note_off_c, 9, 46, 87
10, 75382, Note_off_c, 9, 62, 41
10, 75386, Note_off_c, 9, 54, 34
10, 75408, Note_on_c, 9, 54, 34
10, 75408, Note_on_c, 9, 63, 104
10, 75427, Note_off_c, 9, 54, 34
10, 75445, Note_off_c, 9, 63, 104
10, 75456, Note_on_c, 9, 40, 124
10, 75456, Note_on_c, 9, 42, 96
10, 75456, Note_on_c, 9, 54, 68
10, 75457, Note_off_c, 9, 42, 96
10, 75457, Note_off_c, 9, 40, 124
10, 75487, Note_off_c, 9, 54, 68
10, 75504, Note_on_c, 9, 42, 66
10, 75504, Note_on_c, 9, 63, 36
10, 75505, Note_off_c, 9, 42, 66
10, 75521, Note_off_c, 9, 63, 36
10, 75552, Note_on_c, 9, 42, 86
10, 75552, Note_on_c, 9, 54, 54
10, 75552, Note_on_c, 9, 64, 96
10, 75553, Note_off_c, 9, 42, 86
10, 75574, Note_off_c, 9, 64, 96
10, 75574, Note_off_c, 9, 54, 54
10, 75600, Note_on_c, 9, 42, 74
10, 75600, Note_on_c, 9, 54, 54
10, 75601, Note_off_c, 9, 42, 74
10, 75619, Note_off_c, 9, 54, 54
10, 75648, Note_on_c, 9, 35, 124
10, 75648, Note_on_c, 9, 42, 98
10, 75648, Note_on_c, 9, 54, 68
10, 75648, Note_on_c, 9, 62, 101
10, 75649, Note_off_c, 9, 42, 98
10, 75649, Note_off_c, 9, 35, 124
10, 75679, Note_off_c, 9, 54, 68
10, 75684, Note_off_c, 9, 62, 101
10, 75696, Note_on_c, 9, 42, 58
10, 75697, Note_off_c, 9, 42, 58
10, 75744, Note_on_c, 9, 42, 72
10, 75744, Note_on_c, 9, 54, 58
10, 75744, Note_on_c, 9, 62, 33
10, 75745, Note_off_c, 9, 42, 72
10, 75765, Note_off_c, 9, 54, 58
10, 75768, Note_off_c, 9, 62, 33
10, 75792, Note_on_c, 9, 42, 70
10, 75792, Note_on_c, 9, 54, 42
10, 75792, Note_on_c, 9, 63, 100
10, 75793, Note_off_c, 9, 42, 70
10, 75813, Note_off_c, 9, 54, 42
10, 75829, Note_off_c, 9, 63, 100
10, 75840, Note_on_c, 9, 40, 124
10, 75840, Note_on_c, 9, 42, 100
10, 75840, Note_on_c, 9, 54, 72
10, 75841, Note_off_c, 9, 42, 100
10, 75841, Note_off_c, 9, 40, 124
10, 75872, Note_off_c, 9, 54, 72
10, 75888, Note_on_c, 9, 42, 64
10, 75888, Note_on_c, 9, 63, 44
10, 75889, Note_off_c, 9, 42, 64
10, 75908, Note_off_c, 9, 63, 44
10, 75936, Note_on_c, 9, 42, 88
10, 75936, Note_on_c, 9, 54, 66
10, 75936, Note_on_c, 9, 64, 96
10, 75937, Note_off_c, 9, 42, 88
10, 75957, Note_off_c, 9, 54, 66
10, 75961, Note_off_c, 9, 64, 96
10, 75984, Note_on_c, 9, 35, 124
10, 75984, Note_on_c, 9, 42, 66
10, 75984, Note_on_c, 9, 54, 42
10, 75984, Note_on_c, 9, 64, 44
10, 75985, Note_off_c, 9, 42, 66
10, 75985, Note_off_c, 9, 35, 124
10, 76001, Note_off_c, 9, 54, 42
10, 76009, Note_off_c, 9, 64, 44
10, 76032, Note_on_c, 9, 35, 124
10, 76032, Note_on_c, 9, 42, 94
10, 76032, Note_on_c, 9, 54, 72
10, 76032, Note_on_c, 9, 62, 109
10, 76033, Note_off_c, 9, 42, 94
10, 76033, Note_off_c, 9, 35, 124
10, 76060, Note_off_c, 9, 62, 109
10, 76065, Note_off_c, 9, 54, 72
10, 76080, Note_on_c, 9, 42, 82
10, 76081, Note_off_c, 9, 42, 82
10, 76128, Note_on_c, 9, 46, 87
10, 76128, Note_on_c, 9, 54, 66
10, 76128, Note_on_c, 9, 62, 41
10, 76129, Note_off_c, 9, 46, 87
10, 76150, Note_off_c, 9, 62, 41
10, 76150, Note_off_c, 9, 54, 66
10, 76176, Note_on_c, 9, 54, 34
10, 76176, Note_on_c, 9, 63, 104
10, 76191, Note_off_c, 9, 54, 34
10, 76213, Note_off_c, 9, 63, 104
10, 76224, Note_on_c, 9, 40, 124
10, 76224, Note_on_c, 9, 42, 94
10, 76224, Note_on_c, 9, 54, 68
10, 76225, Note_off_c, 9, 42, 94
10, 76225, Note_off_c, 9, 40, 124
10, 76255, Note_off_c, 9, 54, 68
10, 76272, Note_on_c, 9, 42, 70
10, 76272, Note_on_c, 9, 63, 36
10, 76273, Note_off_c, 9, 42, 70
10, 76289, Note_off_c, 9, 63, 36
10, 76320, Note_on_c, 9, 42, 78
10, 76320, Note_on_c, 9, 54, 54
10, 76320, Note_on_c, 9, 64, 96
10, 76321, Note_off_c, 9, 42, 78
10, 76341, Note_off_c, 9, 54, 54
10, 76342, Note_off_c, 9, 64, 96
10, 76368, Note_on_c, 9, 42, 72
10, 76368, Note_on_c, 9, 54, 26
10, 76369, Note_off_c, 9, 42, 72
10, 76384, Note_off_c, 9, 54, 26
10, 76416, Note_on_c, 9, 35, 124
10, 76416, Note_on_c, 9, 42, 98
10, 76416, Note_on_c, 9, 54, 68
10, 76416, Note_on_c, 9, 62, 101
10, 76417, Note_off_c, 9, 42, 98
10, 76417, Note_off_c, 9, 35, 124
10, 76447, Note_off_c, 9, 54, 68
10, 76452, Note_off_c, 9, 62, 101
10, 76464, Note_on_c, 9, 42, 66
10, 76465, Note_off_c, 9, 42, 66
10, 76512, Note_on_c, 9, 42, 86
10, 76512, Note_on_c, 9, 54, 58
10, 76512, Note_on_c, 9, 62, 33
10, 76513, Note_off_c, 9, 42, 86
10, 76534, Note_off_c, 9, 54, 58
10, 76536, Note_off_c, 9, 62, 33
10, 76560, Note_on_c, 9, 42, 70
10, 76560, Note_on_c, 9, 54, 38
10, 76560, Note_on_c, 9, 63, 100
10, 76561, Note_off_c, 9, 42, 70
10, 76582, Note_off_c, 9, 54, 38
10, 76597, Note_off_c, 9, 63, 100
10, 76608, Note_on_c, 9, 40, 124
10, 76608, Note_on_c, 9, 42, 96
10, 76608, Note_on_c, 9, 54, 68
10, 76609, Note_off_c, 9, 42, 96
10, 76609, Note_off_c, 9, 40, 124
10, 76638, Note_off_c, 9, 54, 68
10, 76656, Note_on_c, 9, 42, 62
10, 76656, Note_on_c, 9, 63, 44
10, 76657, Note_off_c, 9, 42, 62
10, 76676, Note_off_c, 9, 63, 44
10, 76704, Note_on_c, 9, 42, 86
10, 76704, Note_on_c, 9, 54, 50
10, 76704, Note_on_c, 9, 64, 96
10, 76705, Note_off_c, 9, 42, 86
10, 76719, Note_off_c, 9, 54, 50
10, 76729, Note_off_c, 9, 64, 96
10, 76752, Note_on_c, 9, 35, 124
10, 76752, Note_on_c, 9, 42, 68
10, 76752, Note_on_c, 9, 54, 58
10, 76752, Note_on_c, 9, 64, 44
10, 76753, Note_off_c, 9, 42, 68
10, 76753, Note_off_c, 9, 35, 124
10, 76772, Note_off_c, 9, 54, 58
10, 76777, Note_off_c, 9, 64, 44
10, 76800, Note_on_c, 9, 35, 124
10, 76800, Note_on_c, 9, 42, 98
10, 76800, Note_on_c, 9, 54, 68
10, 76800, Note_on_c, 9, 62, 101
10, 76801, Note_off_c, 9, 42, 98
10, 76801, Note_off_c, 9, 35, 124
10, 76826, Note_off_c, 9, 62, 101
10, 76833, Note_off_c, 9, 54, 68
10, 76848, Note_on_c, 9, 42, 70
10, 76849, Note_off_c, 9, 42, 70
10, 76896, Note_on_c, 9, 46, 87
10, 76896, Note_on_c, 9, 54, 34
10, 76896, Note_on_c, 9, 62, 40
10, 76897, Note_off_c, 9, 46, 87
10, 76914, Note_off_c, 9, 62, 40
10, 76922, Note_off_c, 9, 54, 34
10, 76944, Note_on_c, 9, 54, 34
10, 76944, Note_on_c, 9, 63, 104
10, 76963, Note_off_c, 9, 54, 34
10, 76980, Note_off_c, 9, 63, 104
10, 76992, Note_on_c, 9, 40, 124
10, 76992, Note_on_c, 9, 42, 96
10, 76992, Note_on_c, 9, 54, 68
10, 76993, Note_off_c, 9, 42, 96
10, 76993, Note_off_c, 9, 40, 124
10, 77023, Note_off_c, 9, 54, 68
10, 77040, Note_on_c, 9, 42, 66
10, 77040, Note_on_c, 9, 63, 40
10, 77041, Note_off_c, 9, 42, 66
10, 77062, Note_off_c, 9, 63, 40
10, 77088, Note_on_c, 9, 42, 84
10, 77088, Note_on_c, 9, 54, 54
10, 77088, Note_on_c, 9, 64, 92
10, 77089, Note_off_c, 9, 42, 84
10, 77106, Note_off_c, 9, 64, 92
10, 77110, Note_off_c, 9, 54, 54
10, 77136, Note_on_c, 9, 42, 66
10, 77136, Note_on_c, 9, 54, 54
10, 77137, Note_off_c, 9, 42, 66
10, 77155, Note_off_c, 9, 54, 54
10, 77184, Note_on_c, 9, 35, 124
10, 77184, Note_on_c, 9, 42, 96
10, 77184, Note_on_c, 9, 54, 68
10, 77184, Note_on_c, 9, 62, 105
10, 77185, Note_off_c, 9, 42, 96
10, 77185, Note_off_c, 9, 35, 124
10, 77215, Note_off_c, 9, 54, 68
10, 77218, Note_off_c, 9, 62, 105
10, 77232, Note_on_c, 9, 42, 66
10, 77233, Note_off_c, 9, 42, 66
10, 77280, Note_on_c, 9, 42, 76
10, 77280, Note_on_c, 9, 54, 58
10, 77280, Note_on_c, 9, 62, 33
10, 77281, Note_off_c, 9, 42, 76
10, 77301, Note_off_c, 9, 54, 58
10, 77307, Note_off_c, 9, 62, 33
10, 77328, Note_on_c, 9, 42, 68
10, 77328, Note_on_c, 9, 54, 42
10, 77328, Note_on_c, 9, 63, 104
10, 77329, Note_off_c, 9, 42, 68
10, 77349, Note_off_c, 9, 54, 42
10, 77364, Note_off_c, 9, 63, 104
10, 77376, Note_on_c, 9, 40, 124
10, 77376, Note_on_c, 9, 42, 96
10, 77376, Note_on_c, 9, 54, 72
10, 77377, Note_off_c, 9, 42, 96
10, 77377, Note_off_c, 9, 40, 124
10, 77408, Note_off_c, 9, 54, 72
10, 77424, Note_on_c, 9, 42, 50
10, 77424, Note_on_c, 9, 63, 32
10, 77425, Note_off_c, 9, 42, 50
10, 77442, Note_off_c, 9, 63, 32
10, 77472, Note_on_c, 9, 42, 78
10, 77472, Note_on_c, 9, 54, 66
10, 77472, Note_on_c, 9, 64, 92
10, 77473, Note_off_c, 9, 42, 78
10, 77492, Note_off_c, 9, 64, 92
10, 77493, Note_off_c, 9, 54, 66
10, 77520, Note_on_c, 9, 35, 124
10, 77520, Note_on_c, 9, 42, 68
10, 77520, Note_on_c, 9, 54, 42
10, 77520, Note_on_c, 9, 64, 68
10, 77521, Note_off_c, 9, 42, 68
10, 77521, Note_off_c, 9, 35, 124
10, 77537, Note_off_c, 9, 54, 42
10, 77547, Note_off_c, 9, 64, 68
10, 77568, Note_on_c, 9, 35, 124
10, 77568, Note_on_c, 9, 42, 96
10, 77568, Note_on_c, 9, 54, 72
10, 77568, Note_on_c, 9, 62, 109
10, 77569, Note_off_c, 9, 42, 96
10, 77569, Note_off_c, 9, 35, 124
10, 77594, Note_off_c, 9, 62, 109
10, 77601, Note_off_c, 9, 54, 72
10, 77616, Note_on_c, 9, 42, 72
10, 77617, Note_off_c, 9, 42, 72
10, 77664, Note_on_c, 9, 46, 89
10, 77664, Note_on_c, 9, 54, 66
10, 77664, Note_on_c, 9, 62, 61
10, 77665, Note_off_c, 9, 46, 89
10, 77686, Note_off_c, 9, 54, 66
10, 77687, Note_off_c, 9, 62, 61
10, 77712, Note_on_c, 9, 54, 34
10, 77712, Note_on_c, 9, 63, 104
10, 77727, Note_off_c, 9, 54, 34
10, 77747, Note_off_c, 9, 63, 104
10, 77760, Note_on_c, 9, 40, 124
10, 77760, Note_on_c, 9, 42, 96
10, 77760, Note_on_c, 9, 54, 68
10, 77761, Note_off_c, 9, 42, 96
10, 77761, Note_off_c, 9, 40, 124
10, 77791, Note_off_c, 9, 54, 68
10, 77808, Note_on_c, 9, 42, 68
10, 77808, Note_on_c, 9, 63, 60
10, 77809, Note_off_c, 9, 42, 68
10, 77825, Note_off_c, 9, 63, 60
10, 77856, Note_on_c, 9, 42, 70
10, 77856, Note_on_c, 9, 54, 54
10, 77856, Note_on_c, 9, 64, 88
10, 77857, Note_off_c, 9, 42, 70
10, 77872, Note_off_c, 9, 64, 88
10, 77877, Note_off_c, 9, 54, 54
10, 77904, Note_on_c, 9, 42, 70
10, 77904, Note_on_c, 9, 54, 26
10, 77905, Note_off_c, 9, 42, 70
10, 77920, Note_off_c, 9, 54, 26
10, 77952, Note_on_c, 9, 35, 124
10, 77952, Note_on_c, 9, 42, 96
10, 77952, Note_on_c, 9, 54, 68
10, 77952, Note_on_c, 9, 62, 109
10, 77953, Note_off_c, 9, 42, 96
10, 77953, Note_off_c, 9, 35, 124
10, 77983, Note_off_c, 9, 62, 109
10, 77983, Note_off_c, 9, 54, 68
10, 78000, Note_on_c, 9, 42, 76
10, 78001, Note_off_c, 9, 42, 76
10, 78048, Note_on_c, 9, 42, 78
10, 78048, Note_on_c, 9, 54, 58
10, 78048, Note_on_c, 9, 62, 45
10, 78049, Note_off_c, 9, 42, 78
10, 78067, Note_off_c, 9, 62, 45
10, 78070, Note_off_c, 9, 54, 58
10, 78096, Note_on_c, 9, 42, 72
10, 78096, Note_on_c, 9, 54, 38
10, 78096, Note_on_c, 9, 63, 104
10, 78097, Note_off_c, 9, 42, 72
10, 78118, Note_off_c, 9, 54, 38
10, 78127, Note_off_c, 9, 63, 104
10, 78144, Note_on_c, 9, 40, 111
10, 78144, Note_on_c, 9, 42, 100
10, 78144, Note_on_c, 9, 54, 68
10, 78145, Note_off_c, 9, 42, 100
10, 78145, Note_off_c, 9, 40, 111
10, 78174, Note_off_c, 9, 54, 68
10, 78192, Note_on_c, 9, 42, 88
10, 78192, Note_on_c, 9, 63, 47
10, 78193, Note_off_c, 9, 42, 88
10, 78208, Note_off_c, 9, 63, 47
10, 78240, Note_on_c, 9, 42, 94
10, 78240, Note_on_c, 9, 54, 50
10, 78240, Note_on_c, 9, 64, 104
10, 78241, Note_off_c, 9, 42, 94
10, 78255, Note_off_c, 9, 54, 50
10, 78260, Note_off_c, 9, 64, 104
10, 78288, Note_on_c, 9, 35, 124
10, 78288, Note_on_c, 9, 42, 72
10, 78288, Note_on_c, 9, 54, 58
10, 78288, Note_on_c, 9, 64, 84
10, 78289, Note_off_c, 9, 42, 72
10, 78289, Note_off_c, 9, 35, 124
10, 78306, Note_off_c, 9, 64, 84
10, 78308, Note_off_c, 9, 54, 58
10, 78336, Note_on_c, 9, 35, 124
10, 78336, Note_on_c, 9, 42, 94
10, 78336, Note_on_c, 9, 54, 68
10, 78336, Note_on_c, 9, 62, 109
10, 78337, Note_off_c, 9, 42, 94
10, 78337, Note_off_c, 9, 35, 124
10, 78364, Note_off_c, 9, 62, 109
10, 78369, Note_off_c, 9, 54, 68
10, 78384, Note_on_c, 9, 42, 86
10, 78385, Note_off_c, 9, 42, 86
10, 78432, Note_on_c, 9, 46, 87
10, 78432, Note_on_c, 9, 54, 34
10, 78432, Note_on_c, 9, 62, 41
10, 78433, Note_off_c, 9, 46, 87
10, 78454, Note_off_c, 9, 62, 41
10, 78458, Note_off_c, 9, 54, 34
10, 78480, Note_on_c, 9, 54, 34
10, 78480, Note_on_c, 9, 63, 104
10, 78499, Note_off_c, 9, 54, 34
10, 78517, Note_off_c, 9, 63, 104
10, 78528, Note_on_c, 9, 40, 124
10, 78528, Note_on_c, 9, 42, 96
10, 78528, Note_on_c, 9, 54, 68
10, 78529, Note_off_c, 9, 42, 96
10, 78529, Note_off_c, 9, 40, 124
10, 78559, Note_off_c, 9, 54, 68
10, 78576, Note_on_c, 9, 42, 66
10, 78576, Note_on_c, 9, 63, 36
10, 78577, Note_off_c, 9, 42, 66
10, 78593, Note_off_c, 9, 63, 36
10, 78624, Note_on_c, 9, 42, 86
10, 78624, Note_on_c, 9, 54, 54
10, 78624, Note_on_c, 9, 64, 96
10, 78625, Note_off_c, 9, 42, 86
10, 78646, Note_off_c, 9, 64, 96
10, 78646, Note_off_c, 9, 54, 54
10, 78672, Note_on_c, 9, 42, 74
10, 78672, Note_on_c, 9, 54, 54
10, 78673, Note_off_c, 9, 42, 74
10, 78691, Note_off_c, 9, 54, 54
10, 78720, Note_on_c, 9, 35, 124
10, 78720, Note_on_c, 9, 42, 98
10, 78720, Note_on_c, 9, 54, 68
10, 78720, Note_on_c, 9, 62, 101
10, 78721, Note_off_c, 9, 42, 98
10, 78721, Note_off_c, 9, 35, 124
10, 78751, Note_off_c, 9, 54, 68
10, 78756, Note_off_c, 9, 62, 101
10, 78768, Note_on_c, 9, 42, 58
10, 78769, Note_off_c, 9, 42, 58
10, 78816, Note_on_c, 9, 42, 72
10, 78816, Note_on_c, 9, 54, 58
10, 78816, Note_on_c, 9, 62, 33
10, 78817, Note_off_c, 9, 42, 72
10, 78837, Note_off_c, 9, 54, 58
10, 78840, Note_off_c, 9, 62, 33
10, 78864, Note_on_c, 9, 42, 70
10, 78864, Note_on_c, 9, 54, 42
10, 78864, Note_on_c, 9, 63, 100
10, 78865, Note_off_c, 9, 42, 70
10, 78885, Note_off_c, 9, 54, 42
10, 78901, Note_off_c, 9, 63, 100
10, 78912, Note_on_c, 9, 40, 124
10, 78912, Note_on_c, 9, 42, 100
10, 78912, Note_on_c, 9, 54, 72
10, 78913, Note_off_c, 9, 42, 100
10, 78913, Note_off_c, 9, 40, 124
10, 78944, Note_off_c, 9, 54, 72
10, 78960, Note_on_c, 9, 42, 64
10, 78960, Note_on_c, 9, 63, 44
10, 78961, Note_off_c, 9, 42, 64
10, 78980, Note_off_c, 9, 63, 44
10, 79008, Note_on_c, 9, 42, 88
10, 79008, Note_on_c, 9, 54, 66
10, 79008, Note_on_c, 9, 64, 96
10, 79009, Note_off_c, 9, 42, 88
10, 79029, Note_off_c, 9, 54, 66
10, 79033, Note_off_c, 9, 64, 96
10, 79056, Note_on_c, 9, 35, 124
10, 79056, Note_on_c, 9, 42, 66
10, 79056, Note_on_c, 9, 54, 42
10, 79056, Note_on_c, 9, 64, 44
10, 79057, Note_off_c, 9, 42, 66
10, 79057, Note_off_c, 9, 35, 124
10, 79073, Note_off_c, 9, 54, 42
10, 79081, Note_off_c, 9, 64, 44
10, 79104, Note_on_c, 9, 35, 124
10, 79104, Note_on_c, 9, 42, 94
10, 79104, Note_on_c, 9, 54, 72
10, 79104, Note_on_c, 9, 62, 109
10, 79105, Note_off_c, 9, 42, 94
10, 79105, Note_off_c, 9, 35, 124
10, 79132, Note_off_c, 9, 62, 109
10, 79137, Note_off_c, 9, 54, 72
10, 79152, Note_on_c, 9, 42, 82
10, 79153, Note_off_c, 9, 42, 82
10, 79200, Note_on_c, 9, 46, 87
10, 79200, Note_on_c, 9, 54, 66
10, 79200, Note_on_c, 9, 62, 41
10, 79201, Note_off_c, 9, 46, 87
10, 79222, Note_off_c, 9, 62, 41
10, 79222, Note_off_c, 9, 54, 66
10, 79248, Note_on_c, 9, 54, 34
10, 79248, Note_on_c, 9, 63, 104
10, 79263, Note_off_c, 9, 54, 34
10, 79285, Note_off_c, 9, 63, 104
10, 79296, Note_on_c, 9, 40, 124
10, 79296, Note_on_c, 9, 42, 94
10, 79296, Note_on_c, 9, 54, 68
10, 79297, Note_off_c, 9, 42, 94
10, 79297, Note_off_c, 9, 40, 124
10, 79327, Note_off_c, 9, 54, 68
10, 79344, Note_on_c, 9, 42, 70
10, 79344, Note_on_c, 9, 63, 36
10, 79345, Note_off_c, 9, 42, 70
10, 79361, Note_off_c, 9, 63, 36
10, 79392, Note_on_c, 9, 42, 78
10, 79392, Note_on_c, 9, 54, 54
10, 79392, Note_on_c, 9, 64, 96
10, 79393, Note_off_c, 9, 42, 78
10, 79413, Note_off_c, 9, 54, 54
10, 79414, Note_off_c, 9, 64, 96
10, 79440, Note_on_c, 9, 42, 72
10, 79440, Note_on_c, 9, 54, 26
10, 79441, Note_off_c, 9, 42, 72
10, 79456, Note_off_c, 9, 54, 26
10, 79488, Note_on_c, 9, 35, 124
10, 79488, Note_on_c, 9, 42, 98
10, 79488, Note_on_c, 9, 54, 68
10, 79488, Note_on_c, 9, 62, 101
10, 79489, Note_off_c, 9, 42, 98
10, 79489, Note_off_c, 9, 35, 124
10, 79519, Note_off_c, 9, 54, 68
10, 79524, Note_off_c, 9, 62, 101
10, 79536, Note_on_c, 9, 42, 66
10, 79537, Note_off_c, 9, 42, 66
10, 79584, Note_on_c, 9, 42, 86
10, 79584, Note_on_c, 9, 54, 58
10, 79584, Note_on_c, 9, 62, 33
10, 79585, Note_off_c, 9, 42, 86
10, 79606, Note_off_c, 9, 54, 58
10, 79608, Note_off_c, 9, 62, 33
10, 79632, Note_on_c, 9, 42, 70
10, 79632, Note_on_c, 9, 54, 38
10, 79632, Note_on_c, 9, 63, 100
10, 79633, Note_off_c, 9, 42, 70
10, 79654, Note_off_c, 9, 54, 38
10, 79669, Note_off_c, 9, 63, 100
10, 79680, Note_on_c, 9, 40, 124
10, 79680, Note_on_c, 9, 42, 96
10, 79680, Note_on_c, 9, 54, 68
10, 79681, Note_off_c, 9, 42, 96
10, 79681, Note_off_c, 9, 40, 124
10, 79710, Note_off_c, 9, 54, 68
10, 79728, Note_on_c, 9, 42, 62
10, 79728, Note_on_c, 9, 63, 44
10, 79729, Note_off_c, 9, 42, 62
10, 79748, Note_off_c, 9, 63, 44
10, 79776, Note_on_c, 9, 42, 86
10, 79776, Note_on_c, 9, 54, 50
10, 79776, Note_on_c, 9, 64, 96
10, 79777, Note_off_c, 9, 42, 86
10, 79791, Note_off_c, 9, 54, 50
10, 79801, Note_off_c, 9, 64, 96
10, 79824, Note_on_c, 9, 35, 124
10, 79824, Note_on_c, 9, 42, 68
10, 79824, Note_on_c, 9, 54, 58
10, 79824, Note_on_c, 9, 64, 44
10, 79825, Note_off_c, 9, 42, 68
10, 79825, Note_off_c, 9, 35, 124
10, 79844, Note_off_c, 9, 54, 58
10, 79849, Note_off_c, 9, 64, 44
10, 79872, Note_on_c, 9, 35, 124
10, 79872, Note_on_c, 9, 42, 98
10, 79872, Note_on_c, 9, 54, 68
10, 79872, Note_on_c, 9, 62, 101
10, 79873, Note_off_c, 9, 42, 98
10, 79873, Note_off_c, 9, 35, 124
10, 79898, Note_off_c, 9, 62, 101
10, 79905, Note_off_c, 9, 54, 68
10, 79920, Note_on_c, 9, 42, 70
10, 79921, Note_off_c, 9, 42, 70
10, 79968, Note_on_c, 9, 46, 87
10, 79968, Note_on_c, 9, 54, 34
10, 79968, Note_on_c, 9, 62, 40
10, 79969, Note_off_c, 9, 46, 87
10, 79986, Note_off_c, 9, 62, 40
10, 79994, Note_off_c, 9, 54, 34
10, 80016, Note_on_c, 9, 54, 34
10, 80016, Note_on_c, 9, 63, 104
10, 80035, Note_off_c, 9, 54, 34
10, 80052, Note_off_c, 9, 63, 104
10, 80064, Note_on_c, 9, 40, 124
10, 80064, Note_on_c, 9, 42, 96
10, 80064, Note_on_c, 9, 54, 68
10, 80065, Note_off_c, 9, 42, 96
10, 80065, Note_off_c, 9, 40, 124
10, 80095, Note_off_c, 9, 54, 68
10, 80112, Note_on_c, 9, 42, 66
10, 80112, Note_on_c, 9, 63, 40
10, 80113, Note_off_c, 9, 42, 66
10, 80134, Note_off_c, 9, 63, 40
10, 80160, Note_on_c, 9, 42, 84
10, 80160, Note_on_c, 9, 54, 54
10, 80160, Note_on_c, 9, 64, 92
10, 80161, Note_off_c, 9, 42, 84
10, 80178, Note_off_c, 9, 64, 92
10, 80182, Note_off_c, 9, 54, 54
10, 80208, Note_on_c, 9, 42, 66
10, 80208, Note_on_c, 9, 54, 54
10, 80209, Note_off_c, 9, 42, 66
10, 80227, Note_off_c, 9, 54, 54
10, 80256, Note_on_c, 9, 35, 124
10, 80256, Note_on_c, 9, 42, 96
10, 80256, Note_on_c, 9, 54, 68
10, 80256, Note_on_c, 9, 62, 105
10, 80257, Note_off_c, 9, 42, 96
10, 80257, Note_off_c, 9, 35, 124
10, 80287, Note_off_c, 9, 54, 68
10, 80290, Note_off_c, 9, 62, 105
10, 80304, Note_on_c, 9, 42, 66
10, 80305, Note_off_c, 9, 42, 66
10, 80352, Note_on_c, 9, 42, 76
10, 80352, Note_on_c, 9, 54, 58
10, 80352, Note_on_c, 9, 62, 33
10, 80353, Note_off_c, 9, 42, 76
10, 80373, Note_off_c, 9, 54, 58
10, 80379, Note_off_c, 9, 62, 33
10, 80400, Note_on_c, 9, 42, 68
10, 80400, Note_on_c, 9, 54, 42
10, 80400, Note_on_c, 9, 63, 104
10, 80401, Note_off_c, 9, 42, 68
10, 80421, Note_off_c, 9, 54, 42
10, 80436, Note_off_c, 9, 63, 104
10, 80448, Note_on_c, 9, 40, 124
10, 80448, Note_on_c, 9, 42, 96
10, 80448, Note_on_c, 9, 54, 72
10, 80449, Note_off_c, 9, 42, 96
10, 80449, Note_off_c, 9, 40, 124
10, 80480, Note_off_c, 9, 54, 72
10, 80496, Note_on_c, 9, 42, 50
10, 80496, Note_on_c, 9, 63, 32
10, 80497, Note_off_c, 9, 42, 50
10, 80514, Note_off_c, 9, 63, 32
10, 80544, Note_on_c, 9, 42, 78
10, 80544, Note_on_c, 9, 54, 66
10, 80544, Note_on_c, 9, 64, 92
10, 80545, Note_off_c, 9, 42, 78
10, 80564, Note_off_c, 9, 64, 92
10, 80565, Note_off_c, 9, 54, 66
10, 80592, Note_on_c, 9, 35, 124
10, 80592, Note_on_c, 9, 42, 68
10, 80592, Note_on_c, 9, 54, 42
10, 80592, Note_on_c, 9, 64, 68
10, 80593, Note_off_c, 9, 42, 68
10, 80593, Note_off_c, 9, 35, 124
10, 80609, Note_off_c, 9, 54, 42
10, 80619, Note_off_c, 9, 64, 68
10, 80640, Note_on_c, 9, 35, 124
10, 80640, Note_on_c, 9, 42, 96
10, 80640, Note_on_c, 9, 54, 72
10, 80640, Note_on_c, 9, 62, 109
10, 80641, Note_off_c, 9, 42, 96
10, 80641, Note_off_c, 9, 35, 124
10, 80666, Note_off_c, 9, 62, 109
10, 80673, Note_off_c, 9, 54, 72
10, 80688, Note_on_c, 9, 42, 72
10, 80689, Note_off_c, 9, 42, 72
10, 80736, Note_on_c, 9, 46, 89
10, 80736, Note_on_c, 9, 54, 66
10, 80736, Note_on_c, 9, 62, 61
10, 80737, Note_off_c, 9, 46, 89
10, 80758, Note_off_c, 9, 54, 66
10, 80759, Note_off_c, 9, 62, 61
10, 80784, Note_on_c, 9, 54, 34
10, 80784, Note_on_c, 9, 63, 104
10, 80799, Note_off_c, 9, 54, 34
10, 80819, Note_off_c, 9, 63, 104
10, 80832, Note_on_c, 9, 40, 124
10, 80832, Note_on_c, 9, 42, 96
10, 80832, Note_on_c, 9, 54, 68
10, 80833, Note_off_c, 9, 42, 96
10, 80833, Note_off_c, 9, 40, 124
10, 80863, Note_off_c, 9, 54, 68
10, 80880, Note_on_c, 9, 42, 68
10, 80880, Note_on_c, 9, 63, 60
10, 80881, Note_off_c, 9, 42, 68
10, 80897, Note_off_c, 9, 63, 60
10, 80928, Note_on_c, 9, 42, 70
10, 80928, Note_on_c, 9, 54, 54
10, 80928, Note_on_c, 9, 64, 88
10, 80929, Note_off_c, 9, 42, 70
10, 80944, Note_off_c, 9, 64, 88
10, 80949, Note_off_c, 9, 54, 54
10, 80976, Note_on_c, 9, 42, 70
10, 80976, Note_on_c, 9, 54, 26
10, 80977, Note_off_c, 9, 42, 70
10, 80992, Note_off_c, 9, 54, 26
10, 81024, Note_on_c, 9, 35, 124
10, 81024, Note_on_c, 9, 42, 96
10, 81024, Note_on_c, 9, 54, 68
10, 81024, Note_on_c, 9, 62, 109
10, 81025, Note_off_c, 9, 42, 96
10, 81025, Note_off_c, 9, 35, 124
10, 81055, Note_off_c, 9, 62, 109
10, 81055, Note_off_c, 9, 54, 68
10, 81072, Note_on_c, 9, 42, 76
10, 81073, Note_off_c, 9, 42, 76
10, 81120, Note_on_c, 9, 42, 78
10, 81120, Note_on_c, 9, 54, 58
10, 81120, Note_on_c, 9, 62, 45
10, 81121, Note_off_c, 9, 42, 78
10, 81139, Note_off_c, 9, 62, 45
10, 81142, Note_off_c, 9, 54, 58
10, 81168, Note_on_c, 9, 42, 72
10, 81168, Note_on_c, 9, 54, 38
10, 81168, Note_on_c, 9, 63, 104
10, 81169, Note_off_c, 9, 42, 72
10, 81190, Note_off_c, 9, 54, 38
10, 81199, Note_off_c, 9, 63, 104
10, 81216, Note_on_c, 9, 40, 111
10, 81216, Note_on_c, 9, 42, 100
10, 81216, Note_on_c, 9, 54, 68
10, 81217, Note_off_c, 9, 42, 100
10, 81217, Note_off_c, 9, 40, 111
10, 81246, Note_off_c, 9, 54, 68
10, 81264, Note_on_c, 9, 42, 88
10, 81264, Note_on_c, 9, 63, 47
10, 81265, Note_off_c, 9, 42, 88
10, 81280, Note_off_c, 9, 63, 47
10, 81312, Note_on_c, 9, 42, 94
10, 81312, Note_on_c, 9, 45, 111
10, 81312, Note_on_c, 9, 54, 50
10, 81312, Note_on_c, 9, 64, 104
10, 81313, Note_off_c, 9, 42, 94
10, 81327, Note_off_c, 9, 54, 50
10, 81332, Note_off_c, 9, 64, 104
10, 81335, Note_off_c, 9, 45, 111
10, 81360, Note_on_c, 9, 35, 124
10, 81360, Note_on_c, 9, 42, 72
10, 81360, Note_on_c, 9, 43, 111
10, 81360, Note_on_c, 9, 54, 58
10, 81360, Note_on_c, 9, 64, 84
10, 81361, Note_off_c, 9, 42, 72
10, 81361, Note_off_c, 9, 35, 124
10, 81378, Note_off_c, 9, 64, 84
10, 81380, Note_off_c, 9, 54, 58
10, 81383, Note_off_c, 9, 43, 111
10, 81408, Note_on_c, 9, 35, 124
10, 81408, Note_on_c, 9, 54, 68
10, 81408, Note_on_c, 9, 57, 75
10, 81408, Note_on_c, 9, 62, 109
10, 81409, Note_off_c, 9, 57, 75
10, 81409, Note_off_c, 9, 35, 124
10, 81436, Note_off_c, 9, 62, 109
10, 81441, Note_off_c, 9, 54, 68
10, 81456, Note_on_c, 9, 42, 86
10, 81457, Note_off_c, 9, 42, 86
10, 81504, Note_on_c, 9, 46, 87
10, 81504, Note_on_c, 9, 54, 34
10, 81504, Note_on_c, 9, 62, 41
10, 81505, Note_off_c, 9, 46, 87
10, 81526, Note_off_c, 9, 62, 41
10, 81530, Note_off_c, 9, 54, 34
10, 81552, Note_on_c, 9, 54, 34
10, 81552, Note_on_c, 9, 63, 104
10, 81571, Note_off_c, 9, 54, 34
10, 81589, Note_off_c, 9, 63, 104
10, 81600, Note_on_c, 9, 40, 124
10, 81600, Note_on_c, 9, 42, 96
10, 81600, Note_on_c, 9, 54, 68
10, 81601, Note_off_c, 9, 42, 96
10, 81601, Note_off_c, 9, 40, 124
10, 81631, Note_off_c, 9, 54, 68
10, 81648, Note_on_c, 9, 42, 66
10, 81648, Note_on_c, 9, 63, 36
10, 81649, Note_off_c, 9, 42, 66
10, 81665, Note_off_c, 9, 63, 36
10, 81696, Note_on_c, 9, 42, 86
10, 81696, Note_on_c, 9, 54, 54
10, 81696, Note_on_c, 9, 64, 96
10, 81697, Note_off_c, 9, 42, 86
10, 81718, Note_off_c, 9, 64, 96
10, 81718, Note_off_c, 9, 54, 54
10, 81744, Note_on_c, 9, 42, 74
10, 81744, Note_on_c, 9, 54, 54
10, 81745, Note_off_c, 9, 42, 74
10, 81763, Note_off_c, 9, 54, 54
10, 81792, Note_on_c, 9, 35, 124
10, 81792, Note_on_c, 9, 42, 98
10, 81792, Note_on_c, 9, 54, 68
10, 81792, Note_on_c, 9, 62, 101
10, 81793, Note_off_c, 9, 42, 98
10, 81793, Note_off_c, 9, 35, 124
10, 81823, Note_off_c, 9, 54, 68
10, 81828, Note_off_c, 9, 62, 101
10, 81840, Note_on_c, 9, 42, 58
10, 81841, Note_off_c, 9, 42, 58
10, 81888, Note_on_c, 9, 42, 72
10, 81888, Note_on_c, 9, 54, 58
10, 81888, Note_on_c, 9, 62, 33
10, 81889, Note_off_c, 9, 42, 72
10, 81909, Note_off_c, 9, 54, 58
10, 81912, Note_off_c, 9, 62, 33
10, 81936, Note_on_c, 9, 42, 70
10, 81936, Note_on_c, 9, 54, 42
10, 81936, Note_on_c, 9, 63, 100
10, 81937, Note_off_c, 9, 42, 70
10, 81957, Note_off_c, 9, 54, 42
10, 81973, Note_off_c, 9, 63, 100
10, 81984, Note_on_c, 9, 40, 124
10, 81984, Note_on_c, 9, 42, 100
10, 81984, Note_on_c, 9, 54, 72
10, 81985, Note_off_c, 9, 42, 100
10, 81985, Note_off_c, 9, 40, 124
10, 82016, Note_off_c, 9, 54, 72
10, 82032, Note_on_c, 9, 42, 64
10, 82032, Note_on_c, 9, 63, 44
10, 82033, Note_off_c, 9, 42, 64
10, 82052, Note_off_c, 9, 63, 44
10, 82080, Note_on_c, 9, 42, 88
10, 82080, Note_on_c, 9, 54, 66
10, 82080, Note_on_c, 9, 64, 96
10, 82081, Note_off_c, 9, 42, 88
10, 82101, Note_off_c, 9, 54, 66
10, 82105, Note_off_c, 9, 64, 96
10, 82128, Note_on_c, 9, 35, 124
10, 82128, Note_on_c, 9, 42, 66
10, 82128, Note_on_c, 9, 54, 42
10, 82128, Note_on_c, 9, 64, 44
10, 82129, Note_off_c, 9, 42, 66
10, 82129, Note_off_c, 9, 35, 124
10, 82145, Note_off_c, 9, 54, 42
10, 82153, Note_off_c, 9, 64, 44
10, 82176, Note_on_c, 9, 35, 124
10, 82176, Note_on_c, 9, 42, 94
10, 82176, Note_on_c, 9, 54, 72
10, 82176, Note_on_c, 9, 62, 109
10, 82177, Note_off_c, 9, 42, 94
10, 82177, Note_off_c, 9, 35, 124
10, 82204, Note_off_c, 9, 62, 109
10, 82209, Note_off_c, 9, 54, 72
10, 82224, Note_on_c, 9, 42, 82
10, 82225, Note_off_c, 9, 42, 82
10, 82272, Note_on_c, 9, 46, 87
10, 82272, Note_on_c, 9, 54, 66
10, 82272, Note_on_c, 9, 62, 41
10, 82273, Note_off_c, 9, 46, 87
10, 82294, Note_off_c, 9, 62, 41
10, 82294, Note_off_c, 9, 54, 66
10, 82320, Note_on_c, 9, 54, 34
10, 82320, Note_on_c, 9, 63, 104
10, 82335, Note_off_c, 9, 54, 34
10, 82357, Note_off_c, 9, 63, 104
10, 82368, Note_on_c, 9, 40, 124
10, 82368, Note_on_c, 9, 42, 94
10, 82368, Note_on_c, 9, 54, 68
10, 82369, Note_off_c, 9, 42, 94
10, 82369, Note_off_c, 9, 40, 124
10, 82399, Note_off_c, 9, 54, 68
10, 82416, Note_on_c, 9, 42, 70
10, 82416, Note_on_c, 9, 63, 36
10, 82417, Note_off_c, 9, 42, 70
10, 82433, Note_off_c, 9, 63, 36
10, 82464, Note_on_c, 9, 42, 78
10, 82464, Note_on_c, 9, 54, 54
10, 82464, Note_on_c, 9, 64, 96
10, 82465, Note_off_c, 9, 42, 78
10, 82485, Note_off_c, 9, 54, 54
10, 82486, Note_off_c, 9, 64, 96
10, 82512, Note_on_c, 9, 42, 72
10, 82512, Note_on_c, 9, 54, 26
10, 82513, Note_off_c, 9, 42, 72
10, 82528, Note_off_c, 9, 54, 26
10, 82560, Note_on_c, 9, 35, 124
10, 82560, Note_on_c, 9, 42, 98
10, 82560, Note_on_c, 9, 54, 68
10, 82560, Note_on_c, 9, 62, 101
10, 82561, Note_off_c, 9, 42, 98
10, 82561, Note_off_c, 9, 35, 124
10, 82591, Note_off_c, 9, 54, 68
10, 82596, Note_off_c, 9, 62, 101
10, 82608, Note_on_c, 9, 42, 66
10, 82609, Note_off_c, 9, 42, 66
10, 82656, Note_on_c, 9, 42, 86
10, 82656, Note_on_c, 9, 54, 58
10, 82656, Note_on_c, 9, 62, 33
10, 82657, Note_off_c, 9, 42, 86
10, 82678, Note_off_c, 9, 54, 58
10, 82680, Note_off_c, 9, 62, 33
10, 82704, Note_on_c, 9, 42, 70
10, 82704, Note_on_c, 9, 54, 38
10, 82704, Note_on_c, 9, 63, 100
10, 82705, Note_off_c, 9, 42, 70
10, 82726, Note_off_c, 9, 54, 38
10, 82741, Note_off_c, 9, 63, 100
10, 82752, Note_on_c, 9, 40, 124
10, 82752, Note_on_c, 9, 42, 96
10, 82752, Note_on_c, 9, 54, 68
10, 82753, Note_off_c, 9, 42, 96
10, 82753, Note_off_c, 9, 40, 124
10, 82782, Note_off_c, 9, 54, 68
10, 82800, Note_on_c, 9, 42, 62
10, 82800, Note_on_c, 9, 63, 44
10, 82801, Note_off_c, 9, 42, 62
10, 82820, Note_off_c, 9, 63, 44
10, 82848, Note_on_c, 9, 42, 86
10, 82848, Note_on_c, 9, 54, 50
10, 82848, Note_on_c, 9, 64, 96
10, 82849, Note_off_c, 9, 42, 86
10, 82863, Note_off_c, 9, 54, 50
10, 82873, Note_off_c, 9, 64, 96
10, 82896, Note_on_c, 9, 35, 124
10, 82896, Note_on_c, 9, 42, 68
10, 82896, Note_on_c, 9, 54, 58
10, 82896, Note_on_c, 9, 64, 44
10, 82897, Note_off_c, 9, 42, 68
10, 82897, Note_off_c, 9, 35, 124
10, 82916, Note_off_c, 9, 54, 58
10, 82921, Note_off_c, 9, 64, 44
10, 82944, Note_on_c, 9, 35, 124
10, 82944, Note_on_c, 9, 42, 98
10, 82944, Note_on_c, 9, 54, 68
10, 82944, Note_on_c, 9, 62, 101
10, 82945, Note_off_c, 9, 42, 98
10, 82945, Note_off_c, 9, 35, 124
10, 82970, Note_off_c, 9, 62, 101
10, 82977, Note_off_c, 9, 54, 68
10, 82992, Note_on_c, 9, 42, 70
10, 82993, Note_off_c, 9, 42, 70
10, 83040, Note_on_c, 9, 46, 87
10, 83040, Note_on_c, 9, 54, 34
10, 83040, Note_on_c, 9, 62, 40
10, 83041, Note_off_c, 9, 46, 87
10, 83058, Note_off_c, 9, 62, 40
10, 83066, Note_off_c, 9, 54, 34
10, 83088, Note_on_c, 9, 54, 34
10, 83088, Note_on_c, 9, 63, 104
10, 83107, Note_off_c, 9, 54, 34
10, 83124, Note_off_c, 9, 63, 104
10, 83136, Note_on_c, 9, 40, 124
10, 83136, Note_on_c, 9, 42, 96
10, 83136, Note_on_c, 9, 54, 68
10, 83137, Note_off_c, 9, 42, 96
10, 83137, Note_off_c, 9, 40, 124
10, 83167, Note_off_c, 9, 54, 68
10, 83184, Note_on_c, 9, 42, 66
10, 83184, Note_on_c, 9, 63, 40
10, 83185, Note_off_c, 9, 42, 66
10, 83206, Note_off_c, 9, 63, 40
10, 83232, Note_on_c, 9, 42, 84
10, 83232, Note_on_c, 9, 54, 54
10, 83232, Note_on_c, 9, 64, 92
10, 83233, Note_off_c, 9, 42, 84
10, 83250, Note_off_c, 9, 64, 92
10, 83254, Note_off_c, 9, 54, 54
10, 83280, Note_on_c, 9, 42, 66
10, 83280, Note_on_c, 9, 54, 54
10, 83281, Note_off_c, 9, 42, 66
10, 83299, Note_off_c, 9, 54, 54
10, 83328, Note_on_c, 9, 35, 124
10, 83328, Note_on_c, 9, 42, 96
10, 83328, Note_on_c, 9, 54, 68
10, 83328, Note_on_c, 9, 62, 105
10, 83329, Note_off_c, 9, 42, 96
10, 83329, Note_off_c, 9, 35, 124
10, 83359, Note_off_c, 9, 54, 68
10, 83362, Note_off_c, 9, 62, 105
10, 83376, Note_on_c, 9, 42, 66
10, 83377, Note_off_c, 9, 42, 66
10, 83424, Note_on_c, 9, 42, 76
10, 83424, Note_on_c, 9, 54, 58
10, 83424, Note_on_c, 9, 62, 33
10, 83425, Note_off_c, 9, 42, 76
10, 83445, Note_off_c, 9, 54, 58
10, 83451, Note_off_c, 9, 62, 33
10, 83472, Note_on_c, 9, 42, 68
10, 83472, Note_on_c, 9, 54, 42
10, 83472, Note_on_c, 9, 63, 104
10, 83473, Note_off_c, 9, 42, 68
10, 83493, Note_off_c, 9, 54, 42
10, 83508, Note_off_c, 9, 63, 104
10, 83520, Note_on_c, 9, 40, 124
10, 83520, Note_on_c, 9, 42, 96
10, 83520, Note_on_c, 9, 54, 72
10, 83521, Note_off_c, 9, 42, 96
10, 83521, Note_off_c, 9, 40, 124
10, 83552, Note_off_c, 9, 54, 72
10, 83568, Note_on_c, 9, 42, 50
10, 83568, Note_on_c, 9, 63, 32
10, 83569, Note_off_c, 9, 42, 50
10, 83586, Note_off_c, 9, 63, 32
10, 83616, Note_on_c, 9, 42, 78
10, 83616, Note_on_c, 9, 54, 66
10, 83616, Note_on_c, 9, 64, 92
10, 83617, Note_off_c, 9, 42, 78
10, 83636, Note_off_c, 9, 64, 92
10, 83637, Note_off_c, 9, 54, 66
10, 83664, Note_on_c, 9, 35, 124
10, 83664, Note_on_c, 9, 42, 68
10, 83664, Note_on_c, 9, 54, 42
10, 83664, Note_on_c, 9, 64, 68
10, 83665, Note_off_c, 9, 42, 68
10, 83665, Note_off_c, 9, 35, 124
10, 83681, Note_off_c, 9, 54, 42
10, 83691, Note_off_c, 9, 64, 68
10, 83712, Note_on_c, 9, 35, 124
10, 83712, Note_on_c, 9, 42, 96
10, 83712, Note_on_c, 9, 54, 72
10, 83712, Note_on_c, 9, 62, 109
10, 83713, Note_off_c, 9, 42, 96
10, 83713, Note_off_c, 9, 35, 124
10, 83738, Note_off_c, 9, 62, 109
10, 83745, Note_off_c, 9, 54, 72
10, 83760, Note_on_c, 9, 42, 72
10, 83761, Note_off_c, 9, 42, 72
10, 83808, Note_on_c, 9, 46, 89
10, 83808, Note_on_c, 9, 54, 66
10, 83808, Note_on_c, 9, 62, 61
10, 83809, Note_off_c, 9, 46, 89
10, 83830, Note_off_c, 9, 54, 66
10, 83831, Note_off_c, 9, 62, 61
10, 83856, Note_on_c, 9, 54, 34
10, 83856, Note_on_c, 9, 63, 104
10, 83871, Note_off_c, 9, 54, 34
10, 83891, Note_off_c, 9, 63, 104
10, 83904, Note_on_c, 9, 40, 124
10, 83904, Note_on_c, 9, 42, 96
10, 83904, Note_on_c, 9, 54, 68
10, 83905, Note_off_c, 9, 42, 96
10, 83905, Note_off_c, 9, 40, 124
10, 83935, Note_off_c, 9, 54, 68
10, 83952, Note_on_c, 9, 42, 68
10, 83952, Note_on_c, 9, 63, 60
10, 83953, Note_off_c, 9, 42, 68
10, 83969, Note_off_c, 9, 63, 60
10, 84000, Note_on_c, 9, 42, 70
10, 84000, Note_on_c, 9, 54, 54
10, 84000, Note_on_c, 9, 64, 88
10, 84001, Note_off_c, 9, 42, 70
10, 84016, Note_off_c, 9, 64, 88
10, 84021, Note_off_c, 9, 54, 54
10, 84048, Note_on_c, 9, 42, 70
10, 84048, Note_on_c, 9, 54, 26
10, 84049, Note_off_c, 9, 42, 70
10, 84064, Note_off_c, 9, 54, 26
10, 84096, Note_on_c, 9, 35, 124
10, 84096, Note_on_c, 9, 42, 96
10, 84096, Note_on_c, 9, 54, 68
10, 84096, Note_on_c, 9, 62, 109
10, 84097, Note_off_c, 9, 42, 96
10, 84097, Note_off_c, 9, 35, 124
10, 84127, Note_off_c, 9, 62, 109
10, 84127, Note_off_c, 9, 54, 68
10, 84144, Note_on_c, 9, 42, 76
10, 84145, Note_off_c, 9, 42, 76
10, 84192, Note_on_c, 9, 42, 78
10, 84192, Note_on_c, 9, 54, 58
10, 84192, Note_on_c, 9, 62, 45
10, 84193, Note_off_c, 9, 42, 78
10, 84211, Note_off_c, 9, 62, 45
10, 84214, Note_off_c, 9, 54, 58
10, 84240, Note_on_c, 9, 42, 72
10, 84240, Note_on_c, 9, 54, 38
10, 84240, Note_on_c, 9, 63, 104
10, 84241, Note_off_c, 9, 42, 72
10, 84262, Note_off_c, 9, 54, 38
10, 84271, Note_off_c, 9, 63, 104
10, 84288, Note_on_c, 9, 40, 111
10, 84288, Note_on_c, 9, 42, 100
10, 84288, Note_on_c, 9, 54, 68
10, 84289, Note_off_c, 9, 42, 100
10, 84289, Note_off_c, 9, 40, 111
10, 84318, Note_off_c, 9, 54, 68
10, 84336, Note_on_c, 9, 42, 88
10, 84336, Note_on_c, 9, 63, 47
10, 84337, Note_off_c, 9, 42, 88
10, 84352, Note_off_c, 9, 63, 47
10, 84384, Note_on_c, 9, 42, 94
10, 84384, Note_on_c, 9, 54, 50
10, 84384, Note_on_c, 9, 64, 104
10, 84385, Note_off_c, 9, 42, 94
10, 84399, Note_off_c, 9, 54, 50
10, 84404, Note_off_c, 9, 64, 104
10, 84432, Note_on_c, 9, 35, 124
10, 84432, Note_on_c, 9, 42, 72
10, 84432, Note_on_c, 9, 54, 58
10, 84432, Note_on_c, 9, 64, 84
10, 84433, Note_off_c, 9, 42, 72
10, 84433, Note_off_c, 9, 35, 124
10, 84450, Note_off_c, 9, 64, 84
10, 84452, Note_off_c, 9, 54, 58
10, 84480, Note_on_c, 9, 35, 124
10, 84480, Note_on_c, 9, 42, 94
10, 84480, Note_on_c, 9, 54, 68
10, 84480, Note_on_c, 9, 62, 109
10, 84481, Note_off_c, 9, 42, 94
10, 84481, Note_off_c, 9, 35, 124
10, 84508, Note_off_c, 9, 62, 109
10, 84513, Note_off_c, 9, 54, 68
10, 84528, Note_on_c, 9, 42, 86
10, 84529, Note_off_c, 9, 42, 86
10, 84576, Note_on_c, 9, 46, 87
10, 84576, Note_on_c, 9, 54, 34
10, 84576, Note_on_c, 9, 62, 41
10, 84577, Note_off_c, 9, 46, 87
10, 84598, Note_off_c, 9, 62, 41
10, 84602, Note_off_c, 9, 54, 34
10, 84624, Note_on_c, 9, 54, 34
10, 84624, Note_on_c, 9, 63, 104
10, 84643, Note_off_c, 9, 54, 34
10, 84661, Note_off_c, 9, 63, 104
10, 84672, Note_on_c, 9, 40, 124
10, 84672, Note_on_c, 9, 42, 96
10, 84672, Note_on_c, 9, 54, 68
10, 84673, Note_off_c, 9, 42, 96
10, 84673, Note_off_c, 9, 40, 124
10, 84703, Note_off_c, 9, 54, 68
10, 84720, Note_on_c, 9, 42, 66
10, 84720, Note_on_c, 9, 63, 36
10, 84721, Note_off_c, 9, 42, 66
10, 84737, Note_off_c, 9, 63, 36
10, 84768, Note_on_c, 9, 42, 86
10, 84768, Note_on_c, 9, 54, 54
10, 84768, Note_on_c, 9, 64, 96
10, 84769, Note_off_c, 9, 42, 86
10, 84790, Note_off_c, 9, 64, 96
10, 84790, Note_off_c, 9, 54, 54
10, 84816, Note_on_c, 9, 42, 74
10, 84816, Note_on_c, 9, 54, 54
10, 84817, Note_off_c, 9, 42, 74
10, 84835, Note_off_c, 9, 54, 54
10, 84864, Note_on_c, 9, 35, 124
10, 84864, Note_on_c, 9, 42, 98
10, 84864, Note_on_c, 9, 54, 68
10, 84864, Note_on_c, 9, 62, 101
10, 84865, Note_off_c, 9, 42, 98
10, 84865, Note_off_c, 9, 35, 124
10, 84895, Note_off_c, 9, 54, 68
10, 84900, Note_off_c, 9, 62, 101
10, 84912, Note_on_c, 9, 42, 58
10, 84913, Note_off_c, 9, 42, 58
10, 84960, Note_on_c, 9, 42, 72
10, 84960, Note_on_c, 9, 54, 58
10, 84960, Note_on_c, 9, 62, 33
10, 84961, Note_off_c, 9, 42, 72
10, 84981, Note_off_c, 9, 54, 58
10, 84984, Note_off_c, 9, 62, 33
10, 85008, Note_on_c, 9, 42, 70
10, 85008, Note_on_c, 9, 54, 42
10, 85008, Note_on_c, 9, 63, 100
10, 85009, Note_off_c, 9, 42, 70
10, 85029, Note_off_c, 9, 54, 42
10, 85045, Note_off_c, 9, 63, 100
10, 85056, Note_on_c, 9, 40, 124
10, 85056, Note_on_c, 9, 42, 100
10, 85056, Note_on_c, 9, 54, 72
10, 85057, Note_off_c, 9, 42, 100
10, 85057, Note_off_c, 9, 40, 124
10, 85088, Note_off_c, 9, 54, 72
10, 85104, Note_on_c, 9, 42, 64
10, 85104, Note_on_c, 9, 63, 44
10, 85105, Note_off_c, 9, 42, 64
10, 85124, Note_off_c, 9, 63, 44
10, 85152, Note_on_c, 9, 42, 88
10, 85152, Note_on_c, 9, 54, 66
10, 85152, Note_on_c, 9, 64, 96
10, 85153, Note_off_c, 9, 42, 88
10, 85173, Note_off_c, 9, 54, 66
10, 85177, Note_off_c, 9, 64, 96
10, 85200, Note_on_c, 9, 35, 124
10, 85200, Note_on_c, 9, 42, 66
10, 85200, Note_on_c, 9, 54, 42
10, 85200, Note_on_c, 9, 64, 44
10, 85201, Note_off_c, 9, 42, 66
10, 85201, Note_off_c, 9, 35, 124
10, 85217, Note_off_c, 9, 54, 42
10, 85225, Note_off_c, 9, 64, 44
10, 85248, Note_on_c, 9, 35, 124
10, 85248, Note_on_c, 9, 42, 94
10, 85248, Note_on_c, 9, 54, 72
10, 85248, Note_on_c, 9, 62, 109
10, 85249, Note_off_c, 9, 42, 94
10, 85249, Note_off_c, 9, 35, 124
10, 85276, Note_off_c, 9, 62, 109
10, 85281, Note_off_c, 9, 54, 72
10, 85296, Note_on_c, 9, 42, 82
10, 85297, Note_off_c, 9, 42, 82
10, 85344, Note_on_c, 9, 46, 87
10, 85344, Note_on_c, 9, 54, 66
10, 85344, Note_on_c, 9, 62, 41
10, 85345, Note_off_c, 9, 46, 87
10, 85366, Note_off_c, 9, 62, 41
10, 85366, Note_off_c, 9, 54, 66
10, 85392, Note_on_c, 9, 54, 34
10, 85392, Note_on_c, 9, 63, 104
10, 85407, Note_off_c, 9, 54, 34
10, 85429, Note_off_c, 9, 63, 104
10, 85440, Note_on_c, 9, 40, 124
10, 85440, Note_on_c, 9, 42, 94
10, 85440, Note_on_c, 9, 54, 68
10, 85441, Note_off_c, 9, 42, 94
10, 85441, Note_off_c, 9, 40, 124
10, 85471, Note_off_c, 9, 54, 68
10, 85488, Note_on_c, 9, 42, 70
10, 85488, Note_on_c, 9, 63, 36
10, 85489, Note_off_c, 9, 42, 70
10, 85505, Note_off_c, 9, 63, 36
10, 85536, Note_on_c, 9, 42, 78
10, 85536, Note_on_c, 9, 54, 54
10, 85536, Note_on_c, 9, 64, 96
10, 85537, Note_off_c, 9, 42, 78
10, 85557, Note_off_c, 9, 54, 54
10, 85558, Note_off_c, 9, 64, 96
10, 85584, Note_on_c, 9, 42, 72
10, 85584, Note_on_c, 9, 54, 26
10, 85585, Note_off_c, 9, 42, 72
10, 85600, Note_off_c, 9, 54, 26
10, 85632, Note_on_c, 9, 35, 124
10, 85632, Note_on_c, 9, 42, 98
10, 85632, Note_on_c, 9, 54, 68
10, 85632, Note_on_c, 9, 62, 101
10, 85633, Note_off_c, 9, 42, 98
10, 85633, Note_off_c, 9, 35, 124
10, 85663, Note_off_c, 9, 54, 68
10, 85668, Note_off_c, 9, 62, 101
10, 85680, Note_on_c, 9, 42, 66
10, 85681, Note_off_c, 9, 42, 66
10, 85728, Note_on_c, 9, 42, 86
10, 85728, Note_on_c, 9, 54, 58
10, 85728, Note_on_c, 9, 62, 33
10, 85729, Note_off_c, 9, 42, 86
10, 85750, Note_off_c, 9, 54, 58
10, 85752, Note_off_c, 9, 62, 33
10, 85776, Note_on_c, 9, 42, 70
10, 85776, Note_on_c, 9, 54, 38
10, 85776, Note_on_c, 9, 63, 100
10, 85777, Note_off_c, 9, 42, 70
10, 85798, Note_off_c, 9, 54, 38
10, 85813, Note_off_c, 9, 63, 100
10, 85824, Note_on_c, 9, 40, 124
10, 85824, Note_on_c, 9, 42, 96
10, 85824, Note_on_c, 9, 54, 68
10, 85825, Note_off_c, 9, 42, 96
10, 85825, Note_off_c, 9, 40, 124
10, 85854, Note_off_c, 9, 54, 68
10, 85872, Note_on_c, 9, 42, 62
10, 85872, Note_on_c, 9, 63, 44
10, 85873, Note_off_c, 9, 42, 62
10, 85892, Note_off_c, 9, 63, 44
10, 85920, Note_on_c, 9, 42, 86
10, 85920, Note_on_c, 9, 54, 50
10, 85920, Note_on_c, 9, 64, 96
10, 85921, Note_off_c, 9, 42, 86
10, 85935, Note_off_c, 9, 54, 50
10, 85945, Note_off_c, 9, 64, 96
10, 85968, Note_on_c, 9, 35, 124
10, 85968, Note_on_c, 9, 42, 68
10, 85968, Note_on_c, 9, 54, 58
10, 85968, Note_on_c, 9, 64, 44
10, 85969, Note_off_c, 9, 42, 68
10, 85969, Note_off_c, 9, 35, 124
10, 85988, Note_off_c, 9, 54, 58
10, 85993, Note_off_c, 9, 64, 44
10, 86016, Note_on_c, 9, 35, 124
10, 86016, Note_on_c, 9, 42, 98
10, 86016, Note_on_c, 9, 54, 68
10, 86016, Note_on_c, 9, 62, 101
10, 86017, Note_off_c, 9, 42, 98
10, 86017, Note_off_c, 9, 35, 124
10, 86042, Note_off_c, 9, 62, 101
10, 86049, Note_off_c, 9, 54, 68
10, 86064, Note_on_c, 9, 42, 70
10, 86065, Note_off_c, 9, 42, 70
10, 86112, Note_on_c, 9, 46, 87
10, 86112, Note_on_c, 9, 54, 34
10, 86112, Note_on_c, 9, 62, 40
10, 86113, Note_off_c, 9, 46, 87
10, 86130, Note_off_c, 9, 62, 40
10, 86138, Note_off_c, 9, 54, 34
10, 86160, Note_on_c, 9, 54, 34
10, 86160, Note_on_c, 9, 63, 104
10, 86179, Note_off_c, 9, 54, 34
10, 86196, Note_off_c, 9, 63, 104
10, 86208, Note_on_c, 9, 40, 124
10, 86208, Note_on_c, 9, 42, 96
10, 86208, Note_on_c, 9, 54, 68
10, 86209, Note_off_c, 9, 42, 96
10, 86209, Note_off_c, 9, 40, 124
10, 86239, Note_off_c, 9, 54, 68
10, 86256, Note_on_c, 9, 42, 66
10, 86256, Note_on_c, 9, 63, 40
10, 86257, Note_off_c, 9, 42, 66
10, 86278, Note_off_c, 9, 63, 40
10, 86304, Note_on_c, 9, 42, 84
10, 86304, Note_on_c, 9, 54, 54
10, 86304, Note_on_c, 9, 64, 92
10, 86305, Note_off_c, 9, 42, 84
10, 86322, Note_off_c, 9, 64, 92
10, 86326, Note_off_c, 9, 54, 54
10, 86352, Note_on_c, 9, 42, 66
10, 86352, Note_on_c, 9, 54, 54
10, 86353, Note_off_c, 9, 42, 66
10, 86371, Note_off_c, 9, 54, 54
10, 86400, Note_on_c, 9, 35, 124
10, 86400, Note_on_c, 9, 42, 96
10, 86400, Note_on_c, 9, 54, 68
10, 86400, Note_on_c, 9, 62, 105
10, 86401, Note_off_c, 9, 42, 96
10, 86401, Note_off_c, 9, 35, 124
10, 86431, Note_off_c, 9, 54, 68
10, 86434, Note_off_c, 9, 62, 105
10, 86448, Note_on_c, 9, 42, 66
10, 86449, Note_off_c, 9, 42, 66
10, 86496, Note_on_c, 9, 42, 76
10, 86496, Note_on_c, 9, 54, 58
10, 86496, Note_on_c, 9, 62, 33
10, 86497, Note_off_c, 9, 42, 76
10, 86517, Note_off_c, 9, 54, 58
10, 86523, Note_off_c, 9, 62, 33
10, 86544, Note_on_c, 9, 42, 68
10, 86544, Note_on_c, 9, 54, 42
10, 86544, Note_on_c, 9, 63, 104
10, 86545, Note_off_c, 9, 42, 68
10, 86565, Note_off_c, 9, 54, 42
10, 86580, Note_off_c, 9, 63, 104
10, 86592, Note_on_c, 9, 40, 124
10, 86592, Note_on_c, 9, 42, 96
10, 86592, Note_on_c, 9, 54, 72
10, 86593, Note_off_c, 9, 42, 96
10, 86593, Note_off_c, 9, 40, 124
10, 86624, Note_off_c, 9, 54, 72
10, 86640, Note_on_c, 9, 42, 50
10, 86640, Note_on_c, 9, 63, 32
10, 86641, Note_off_c, 9, 42, 50
10, 86658, Note_off_c, 9, 63, 32
10, 86688, Note_on_c, 9, 42, 78
10, 86688, Note_on_c, 9, 54, 66
10, 86688, Note_on_c, 9, 64, 92
10, 86689, Note_off_c, 9, 42, 78
10, 86708, Note_off_c, 9, 64, 92
10, 86709, Note_off_c, 9, 54, 66
10, 86736, Note_on_c, 9, 35, 124
10, 86736, Note_on_c, 9, 42, 68
10, 86736, Note_on_c, 9, 54, 42
10, 86736, Note_on_c, 9, 64, 68
10, 86737, Note_off_c, 9, 42, 68
10, 86737, Note_off_c, 9, 35, 124
10, 86753, Note_off_c, 9, 54, 42
10, 86763, Note_off_c, 9, 64, 68
10, 86784, Note_on_c, 9, 35, 124
10, 86784, Note_on_c, 9, 42, 96
10, 86784, Note_on_c, 9, 54, 72
10, 86784, Note_on_c, 9, 62, 109
10, 86785, Note_off_c, 9, 42, 96
10, 86785, Note_off_c, 9, 35, 124
10, 86810, Note_off_c, 9, 62, 109
10, 86817, Note_off_c, 9, 54, 72
10, 86832, Note_on_c, 9, 42, 72
10, 86833, Note_off_c, 9, 42, 72
10, 86880, Note_on_c, 9, 46, 89
10, 86880, Note_on_c, 9, 54, 66
10, 86880, Note_on_c, 9, 62, 61
10, 86881, Note_off_c, 9, 46, 89
10, 86902, Note_off_c, 9, 54, 66
10, 86903, Note_off_c, 9, 62, 61
10, 86928, Note_on_c, 9, 54, 34
10, 86928, Note_on_c, 9, 63, 104
10, 86943, Note_off_c, 9, 54, 34
10, 86963, Note_off_c, 9, 63, 104
10, 86976, Note_on_c, 9, 40, 124
10, 86976, Note_on_c, 9, 42, 96
10, 86976, Note_on_c, 9, 54, 68
10, 86977, Note_off_c, 9, 42, 96
10, 86977, Note_off_c, 9, 40, 124
10, 87007, Note_off_c, 9, 54, 68
10, 87024, Note_on_c, 9, 42, 68
10, 87024, Note_on_c, 9, 63, 60
10, 87025, Note_off_c, 9, 42, 68
10, 87041, Note_off_c, 9, 63, 60
10, 87072, Note_on_c, 9, 40, 100
10, 87072, Note_on_c, 9, 42, 70
10, 87072, Note_on_c, 9, 54, 54
10, 87072, Note_on_c, 9, 64, 88
10, 87073, Note_off_c, 9, 42, 70
10, 87073, Note_off_c, 9, 40, 100
10, 87088, Note_off_c, 9, 64, 88
10, 87093, Note_off_c, 9, 54, 54
10, 87120, Note_on_c, 9, 40, 111
10, 87120, Note_on_c, 9, 42, 70
10, 87120, Note_on_c, 9, 54, 26
10, 87121, Note_off_c, 9, 42, 70
10, 87121, Note_off_c, 9, 40, 111
10, 87136, Note_off_c, 9, 54, 26
10, 87168, Note_on_c, 9, 35, 124
10, 87168, Note_on_c, 9, 40, 124
10, 87168, Note_on_c, 9, 42, 96
10, 87168, Note_on_c, 9, 54, 68
10, 87168, Note_on_c, 9, 62, 109
10, 87169, Note_off_c, 9, 42, 96
10, 87169, Note_off_c, 9, 40, 124
10, 87169, Note_off_c, 9, 35, 124
10, 87199, Note_off_c, 9, 62, 109
10, 87199, Note_off_c, 9, 54, 68
10, 87216, Note_on_c, 9, 42, 76
10, 87216, Note_on_c, 9, 47, 111
10, 87217, Note_off_c, 9, 42, 76
10, 87239, Note_off_c, 9, 47, 111
10, 87264, Note_on_c, 9, 42, 78
10, 87264, Note_on_c, 9, 45, 111
10, 87264, Note_on_c, 9, 54, 58
10, 87264, Note_on_c, 9, 62, 45
10, 87265, Note_off_c, 9, 42, 78
10, 87283, Note_off_c, 9, 62, 45
10, 87286, Note_off_c, 9, 54, 58
10, 87287, Note_off_c, 9, 45, 111
10, 87312, Note_on_c, 9, 42, 72
10, 87312, Note_on_c, 9, 43, 111
10, 87312, Note_on_c, 9, 54, 38
10, 87312, Note_on_c, 9, 63, 104
10, 87313, Note_off_c, 9, 42, 72
10, 87334, Note_off_c, 9, 54, 38
10, 87335, Note_off_c, 9, 43, 111
10, 87343, Note_off_c, 9, 63, 104
10, 87356, Note_on_c, 9, 40, 95
10, 87357, Note_off_c, 9, 40, 95
10, 87360, Note_on_c, 9, 63, 78
10, 87360, Note_on_c, 9, 40, 127
10, 87382, Note_off_c, 9, 40, 127
10, 87391, Note_off_c, 9, 63, 78
10, 87408, Note_on_c, 9, 35, 124
10, 87408, Note_on_c, 9, 49, 84
10, 87408, Note_on_c, 9, 63, 103
10, 87448, Note_off_c, 9, 35, 124
10, 87456, Note_off_c, 9, 63, 103
10, 87456, Note_off_c, 9, 49, 84
10, 87456, End_track
11, 0, Start_track
11, 0, Text_t, "PianoEl."
11, 36864, Program_c, 10, 4
11, 36912, Control_c, 10, 7, 87
11, 36960, Control_c, 10, 10, 0
11, 37008, Control_c, 10, 91, 68
11, 37056, Control_c, 10, 93, 61
11, 37632, Note_on_c, 10, 99, 80
11, 37670, Note_on_c, 10, 97, 60
11, 37697, Note_on_c, 10, 94, 68
11, 37716, Note_off_c, 10, 99, 80
11, 37734, Note_on_c, 10, 92, 72
11, 37749, Note_off_c, 10, 97, 60
11, 37757, Note_off_c, 10, 94, 68
11, 37762, Note_on_c, 10, 90, 74
11, 37777, Note_off_c, 10, 92, 72
11, 37791, Note_on_c, 10, 87, 74
11, 37793, Note_off_c, 10, 90, 74
11, 37811, Note_on_c, 10, 85, 68
11, 37827, Note_off_c, 10, 87, 74
11, 37829, Note_on_c, 10, 82, 60
11, 37854, Note_on_c, 10, 80, 54
11, 37860, Note_off_c, 10, 85, 68
11, 37880, Note_on_c, 10, 78, 68
11, 37883, Note_off_c, 10, 82, 60
11, 37895, Note_off_c, 10, 80, 54
11, 37908, Note_on_c, 10, 75, 72
11, 37912, Note_off_c, 10, 78, 68
11, 37942, Note_on_c, 10, 73, 72
11, 37970, Note_off_c, 10, 75, 72
11, 37976, Note_on_c, 10, 70, 61
11, 38016, Note_on_c, 10, 68, 61
11, 38060, Note_off_c, 10, 73, 72
11, 38094, Note_off_c, 10, 70, 61
11, 38134, Note_off_c, 10, 68, 61
11, 71424, Note_on_c, 10, 99, 80
11, 71462, Note_on_c, 10, 97, 60
11, 71489, Note_on_c, 10, 94, 68
11, 71508, Note_off_c, 10, 99, 80
11, 71526, Note_on_c, 10, 92, 72
11, 71541, Note_off_c, 10, 97, 60
11, 71549, Note_off_c, 10, 94, 68
11, 71554, Note_on_c, 10, 90, 74
11, 71569, Note_off_c, 10, 92, 72
11, 71583, Note_on_c, 10, 87, 74
11, 71585, Note_off_c, 10, 90, 74
11, 71603, Note_on_c, 10, 85, 68
11, 71619, Note_off_c, 10, 87, 74
11, 71621, Note_on_c, 10, 82, 60
11, 71646, Note_on_c, 10, 80, 54
11, 71652, Note_off_c, 10, 85, 68
11, 71672, Note_on_c, 10, 78, 68
11, 71675, Note_off_c, 10, 82, 60
11, 71687, Note_off_c, 10, 80, 54
11, 71700, Note_on_c, 10, 75, 72
11, 71704, Note_off_c, 10, 78, 68
11, 71734, Note_on_c, 10, 73, 72
11, 71762, Note_off_c, 10, 75, 72
11, 71768, Note_on_c, 10, 70, 61
11, 71808, Note_on_c, 10, 68, 61
11, 71852, Note_off_c, 10, 73, 72
11, 71886, Note_off_c, 10, 70, 61
11, 71926, Note_off_c, 10, 68, 61
11, 71926, End_track
12, 0, Start_track
12, 0, Text_t, "SyntRitm"
12, 6912, Program_c, 11, 81
12, 6960, Control_c, 11, 7, 114
12, 7008, Control_c, 11, 10, 123
12, 7056, Control_c, 11, 91, 76
12, 7104, Control_c, 11, 93, 80
12, 7776, Note_on_c, 11, 58, 69
12, 7776, Note_on_c, 11, 63, 71
12, 7776, Note_on_c, 11, 66, 65
12, 7789, Note_off_c, 11, 66, 65
12, 7793, Note_off_c, 11, 58, 69
12, 7799, Note_off_c, 11, 63, 71
12, 7824, Note_on_c, 11, 58, 61
12, 7824, Note_on_c, 11, 63, 57
12, 7824, Note_on_c, 11, 66, 57
12, 7848, Note_off_c, 11, 58, 61
12, 7849, Note_off_c, 11, 63, 57
12, 7850, Note_off_c, 11, 66, 57
12, 7920, Note_on_c, 11, 58, 71
12, 7920, Note_on_c, 11, 63, 65
12, 7920, Note_on_c, 11, 66, 49
12, 7934, Note_off_c, 11, 66, 49
12, 7935, Note_off_c, 11, 63, 65
12, 7942, Note_off_c, 11, 58, 71
12, 7968, Note_on_c, 11, 58, 61
12, 7968, Note_on_c, 11, 63, 65
12, 7968, Note_on_c, 11, 66, 61
12, 7991, Note_off_c, 11, 63, 65
12, 7991, Note_off_c, 11, 58, 61
12, 7993, Note_off_c, 11, 66, 61
12, 8064, Note_on_c, 11, 58, 65
12, 8064, Note_on_c, 11, 62, 67
12, 8064, Note_on_c, 11, 66, 65
12, 8164, Note_off_c, 11, 66, 65
12, 8169, Note_off_c, 11, 62, 67
12, 8169, Note_off_c, 11, 58, 65
12, 8208, Note_on_c, 11, 58, 67
12, 8208, Note_on_c, 11, 62, 69
12, 8208, Note_on_c, 11, 66, 67
12, 8310, Note_off_c, 11, 66, 67
12, 8311, Note_off_c, 11, 58, 67
12, 8313, Note_off_c, 11, 62, 69
12, 8352, Note_on_c, 11, 58, 59
12, 8352, Note_on_c, 11, 62, 61
12, 8352, Note_on_c, 11, 66, 63
12, 8383, Note_off_c, 11, 58, 59
12, 8387, Note_off_c, 11, 62, 61
12, 8392, Note_off_c, 11, 66, 63
12, 8544, Note_on_c, 11, 58, 67
12, 8544, Note_on_c, 11, 61, 67
12, 8544, Note_on_c, 11, 66, 67
12, 8560, Note_off_c, 11, 58, 67
12, 8564, Note_off_c, 11, 61, 67
12, 8566, Note_off_c, 11, 66, 67
12, 8592, Note_on_c, 11, 58, 57
12, 8592, Note_on_c, 11, 61, 59
12, 8592, Note_on_c, 11, 66, 63
12, 8618, Note_off_c, 11, 61, 59
12, 8618, Note_off_c, 11, 58, 57
12, 8623, Note_off_c, 11, 66, 63
12, 8688, Note_on_c, 11, 58, 67
12, 8688, Note_on_c, 11, 61, 67
12, 8688, Note_on_c, 11, 66, 67
12, 8701, Note_off_c, 11, 61, 67
12, 8706, Note_off_c, 11, 66, 67
12, 8707, Note_off_c, 11, 58, 67
12, 8736, Note_on_c, 11, 58, 61
12, 8736, Note_on_c, 11, 61, 63
12, 8736, Note_on_c, 11, 66, 61
12, 8760, Note_off_c, 11, 61, 63
12, 8761, Note_off_c, 11, 66, 61
12, 8761, Note_off_c, 11, 58, 61
12, 8832, Note_on_c, 11, 56, 69
12, 8832, Note_on_c, 11, 60, 71
12, 8832, Note_on_c, 11, 66, 71
12, 8943, Note_off_c, 11, 56, 69
12, 8947, Note_off_c, 11, 66, 71
12, 8949, Note_off_c, 11, 60, 71
12, 8976, Note_on_c, 11, 56, 67
12, 8976, Note_on_c, 11, 60, 65
12, 8976, Note_on_c, 11, 66, 67
12, 9074, Note_off_c, 11, 56, 67
12, 9081, Note_off_c, 11, 66, 67
12, 9083, Note_off_c, 11, 60, 65
12, 9120, Note_on_c, 11, 56, 69
12, 9120, Note_on_c, 11, 60, 65
12, 9120, Note_on_c, 11, 66, 71
12, 9162, Note_off_c, 11, 56, 69
12, 9173, Note_off_c, 11, 60, 65
12, 9185, Note_off_c, 11, 66, 71
12, 10176, Note_on_c, 11, 51, 69
12, 10176, Note_on_c, 11, 54, 69
12, 10176, Note_on_c, 11, 58, 73
12, 10223, Note_off_c, 11, 58, 73
12, 10223, Note_off_c, 11, 54, 69
12, 10223, Note_off_c, 11, 51, 69
12, 10320, Note_on_c, 11, 62, 73
12, 10320, Note_on_c, 11, 66, 71
12, 10320, Note_on_c, 11, 70, 69
12, 10418, Note_off_c, 11, 62, 73
12, 10422, Note_off_c, 11, 70, 69
12, 10428, Note_off_c, 11, 66, 71
12, 10464, Note_on_c, 11, 62, 77
12, 10464, Note_on_c, 11, 66, 71
12, 10464, Note_on_c, 11, 70, 77
12, 10535, Note_off_c, 11, 62, 77
12, 10537, Note_off_c, 11, 66, 71
12, 10546, Note_off_c, 11, 70, 77
12, 41568, Note_on_c, 11, 63, 71
12, 41568, Note_on_c, 11, 66, 65
12, 41568, Note_on_c, 11, 70, 69
12, 41581, Note_off_c, 11, 66, 65
12, 41585, Note_off_c, 11, 70, 69
12, 41591, Note_off_c, 11, 63, 71
12, 41616, Note_on_c, 11, 63, 57
12, 41616, Note_on_c, 11, 66, 57
12, 41616, Note_on_c, 11, 70, 61
12, 41640, Note_off_c, 11, 70, 61
12, 41641, Note_off_c, 11, 63, 57
12, 41642, Note_off_c, 11, 66, 57
12, 41712, Note_on_c, 11, 63, 65
12, 41712, Note_on_c, 11, 66, 49
12, 41712, Note_on_c, 11, 70, 71
12, 41726, Note_off_c, 11, 66, 49
12, 41727, Note_off_c, 11, 63, 65
12, 41734, Note_off_c, 11, 70, 71
12, 41760, Note_on_c, 11, 63, 65
12, 41760, Note_on_c, 11, 66, 61
12, 41760, Note_on_c, 11, 70, 61
12, 41783, Note_off_c, 11, 70, 61
12, 41783, Note_off_c, 11, 63, 65
12, 41785, Note_off_c, 11, 66, 61
12, 41856, Note_on_c, 11, 62, 67
12, 41856, Note_on_c, 11, 66, 65
12, 41856, Note_on_c, 11, 70, 65
12, 41956, Note_off_c, 11, 66, 65
12, 41961, Note_off_c, 11, 70, 65
12, 41961, Note_off_c, 11, 62, 67
12, 42000, Note_on_c, 11, 62, 69
12, 42000, Note_on_c, 11, 66, 67
12, 42000, Note_on_c, 11, 70, 67
12, 42102, Note_off_c, 11, 66, 67
12, 42103, Note_off_c, 11, 70, 67
12, 42105, Note_off_c, 11, 62, 69
12, 42144, Note_on_c, 11, 62, 61
12, 42144, Note_on_c, 11, 66, 63
12, 42144, Note_on_c, 11, 70, 59
12, 42175, Note_off_c, 11, 70, 59
12, 42179, Note_off_c, 11, 62, 61
12, 42184, Note_off_c, 11, 66, 63
12, 42336, Note_on_c, 11, 61, 67
12, 42336, Note_on_c, 11, 66, 67
12, 42336, Note_on_c, 11, 70, 67
12, 42352, Note_off_c, 11, 70, 67
12, 42356, Note_off_c, 11, 61, 67
12, 42358, Note_off_c, 11, 66, 67
12, 42384, Note_on_c, 11, 61, 59
12, 42384, Note_on_c, 11, 66, 63
12, 42384, Note_on_c, 11, 70, 57
12, 42410, Note_off_c, 11, 70, 57
12, 42410, Note_off_c, 11, 61, 59
12, 42415, Note_off_c, 11, 66, 63
12, 42480, Note_on_c, 11, 61, 67
12, 42480, Note_on_c, 11, 66, 67
12, 42480, Note_on_c, 11, 70, 67
12, 42493, Note_off_c, 11, 61, 67
12, 42498, Note_off_c, 11, 66, 67
12, 42499, Note_off_c, 11, 70, 67
12, 42528, Note_on_c, 11, 61, 63
12, 42528, Note_on_c, 11, 66, 61
12, 42528, Note_on_c, 11, 70, 61
12, 42552, Note_off_c, 11, 61, 63
12, 42553, Note_off_c, 11, 70, 61
12, 42553, Note_off_c, 11, 66, 61
12, 42624, Note_on_c, 11, 60, 71
12, 42624, Note_on_c, 11, 66, 71
12, 42624, Note_on_c, 11, 68, 69
12, 42735, Note_off_c, 11, 68, 69
12, 42739, Note_off_c, 11, 66, 71
12, 42741, Note_off_c, 11, 60, 71
12, 42768, Note_on_c, 11, 60, 65
12, 42768, Note_on_c, 11, 66, 67
12, 42768, Note_on_c, 11, 68, 67
12, 42866, Note_off_c, 11, 68, 67
12, 42873, Note_off_c, 11, 66, 67
12, 42875, Note_off_c, 11, 60, 65
12, 42912, Note_on_c, 11, 60, 65
12, 42912, Note_on_c, 11, 66, 71
12, 42912, Note_on_c, 11, 68, 69
12, 42954, Note_off_c, 11, 68, 69
12, 42965, Note_off_c, 11, 60, 65
12, 42977, Note_off_c, 11, 66, 71
12, 43104, Note_on_c, 11, 59, 67
12, 43104, Note_on_c, 11, 63, 67
12, 43104, Note_on_c, 11, 68, 67
12, 43124, Note_off_c, 11, 59, 67
12, 43126, Note_off_c, 11, 68, 67
12, 43126, Note_off_c, 11, 63, 67
12, 43152, Note_on_c, 11, 59, 59
12, 43152, Note_on_c, 11, 63, 63
12, 43152, Note_on_c, 11, 68, 63
12, 43178, Note_off_c, 11, 59, 59
12, 43183, Note_off_c, 11, 68, 63
12, 43183, Note_off_c, 11, 63, 63
12, 43248, Note_on_c, 11, 59, 67
12, 43248, Note_on_c, 11, 63, 67
12, 43248, Note_on_c, 11, 68, 67
12, 43261, Note_off_c, 11, 59, 67
12, 43266, Note_off_c, 11, 68, 67
12, 43266, Note_off_c, 11, 63, 67
12, 43296, Note_on_c, 11, 59, 63
12, 43296, Note_on_c, 11, 63, 61
12, 43296, Note_on_c, 11, 68, 61
12, 43320, Note_off_c, 11, 59, 63
12, 43321, Note_off_c, 11, 68, 61
12, 43321, Note_off_c, 11, 63, 61
12, 43392, Note_on_c, 11, 59, 71
12, 43392, Note_on_c, 11, 63, 69
12, 43392, Note_on_c, 11, 68, 69
12, 43503, Note_off_c, 11, 68, 69
12, 43503, Note_off_c, 11, 63, 69
12, 43509, Note_off_c, 11, 59, 71
12, 43536, Note_on_c, 11, 59, 65
12, 43536, Note_on_c, 11, 63, 67
12, 43536, Note_on_c, 11, 68, 67
12, 43634, Note_off_c, 11, 68, 67
12, 43634, Note_off_c, 11, 63, 67
12, 43643, Note_off_c, 11, 59, 65
12, 43680, Note_on_c, 11, 59, 65
12, 43680, Note_on_c, 11, 63, 69
12, 43680, Note_on_c, 11, 68, 69
12, 43722, Note_off_c, 11, 68, 69
12, 43722, Note_off_c, 11, 63, 69
12, 43733, Note_off_c, 11, 59, 65
12, 43872, Note_on_c, 11, 59, 67
12, 43872, Note_on_c, 11, 63, 67
12, 43872, Note_on_c, 11, 68, 67
12, 43892, Note_off_c, 11, 59, 67
12, 43894, Note_off_c, 11, 68, 67
12, 43894, Note_off_c, 11, 63, 67
12, 44016, Note_on_c, 11, 59, 67
12, 44016, Note_on_c, 11, 63, 67
12, 44016, Note_on_c, 11, 68, 67
12, 44029, Note_off_c, 11, 59, 67
12, 44034, Note_off_c, 11, 68, 67
12, 44034, Note_off_c, 11, 63, 67
12, 44112, Note_on_c, 11, 59, 63
12, 44112, Note_on_c, 11, 63, 61
12, 44112, Note_on_c, 11, 68, 61
12, 44232, Note_off_c, 11, 68, 61
12, 44232, Note_off_c, 11, 63, 61
12, 44232, Note_off_c, 11, 59, 63
12, 44256, Note_on_c, 11, 59, 71
12, 44256, Note_on_c, 11, 63, 69
12, 44256, Note_on_c, 11, 68, 69
12, 44315, Note_off_c, 11, 68, 69
12, 44315, Note_off_c, 11, 63, 69
12, 44315, Note_off_c, 11, 59, 71
12, 44352, Note_on_c, 11, 62, 71
12, 44352, Note_on_c, 11, 66, 71
12, 44352, Note_on_c, 11, 70, 69
12, 44543, Note_off_c, 11, 70, 69
12, 44543, Note_off_c, 11, 66, 71
12, 44543, Note_off_c, 11, 62, 71
12, 44640, Note_on_c, 11, 63, 71
12, 44640, Note_on_c, 11, 66, 65
12, 44640, Note_on_c, 11, 70, 69
12, 44653, Note_off_c, 11, 66, 65
12, 44657, Note_off_c, 11, 70, 69
12, 44663, Note_off_c, 11, 63, 71
12, 44688, Note_on_c, 11, 63, 57
12, 44688, Note_on_c, 11, 66, 57
12, 44688, Note_on_c, 11, 70, 61
12, 44712, Note_off_c, 11, 70, 61
12, 44713, Note_off_c, 11, 63, 57
12, 44714, Note_off_c, 11, 66, 57
12, 44784, Note_on_c, 11, 63, 65
12, 44784, Note_on_c, 11, 66, 49
12, 44784, Note_on_c, 11, 70, 71
12, 44798, Note_off_c, 11, 66, 49
12, 44799, Note_off_c, 11, 63, 65
12, 44806, Note_off_c, 11, 70, 71
12, 44832, Note_on_c, 11, 63, 65
12, 44832, Note_on_c, 11, 66, 61
12, 44832, Note_on_c, 11, 70, 61
12, 44855, Note_off_c, 11, 70, 61
12, 44855, Note_off_c, 11, 63, 65
12, 44857, Note_off_c, 11, 66, 61
12, 44928, Note_on_c, 11, 62, 67
12, 44928, Note_on_c, 11, 66, 65
12, 44928, Note_on_c, 11, 70, 65
12, 45028, Note_off_c, 11, 66, 65
12, 45033, Note_off_c, 11, 70, 65
12, 45033, Note_off_c, 11, 62, 67
12, 45072, Note_on_c, 11, 62, 69
12, 45072, Note_on_c, 11, 66, 67
12, 45072, Note_on_c, 11, 70, 67
12, 45174, Note_off_c, 11, 66, 67
12, 45175, Note_off_c, 11, 70, 67
12, 45177, Note_off_c, 11, 62, 69
12, 45216, Note_on_c, 11, 62, 61
12, 45216, Note_on_c, 11, 66, 63
12, 45216, Note_on_c, 11, 70, 59
12, 45247, Note_off_c, 11, 70, 59
12, 45251, Note_off_c, 11, 62, 61
12, 45256, Note_off_c, 11, 66, 63
12, 45408, Note_on_c, 11, 61, 67
12, 45408, Note_on_c, 11, 66, 67
12, 45408, Note_on_c, 11, 70, 67
12, 45424, Note_off_c, 11, 70, 67
12, 45428, Note_off_c, 11, 61, 67
12, 45430, Note_off_c, 11, 66, 67
12, 45456, Note_on_c, 11, 61, 59
12, 45456, Note_on_c, 11, 66, 63
12, 45456, Note_on_c, 11, 70, 57
12, 45482, Note_off_c, 11, 70, 57
12, 45482, Note_off_c, 11, 61, 59
12, 45487, Note_off_c, 11, 66, 63
12, 45552, Note_on_c, 11, 61, 67
12, 45552, Note_on_c, 11, 66, 67
12, 45552, Note_on_c, 11, 70, 67
12, 45565, Note_off_c, 11, 61, 67
12, 45570, Note_off_c, 11, 66, 67
12, 45571, Note_off_c, 11, 70, 67
12, 45600, Note_on_c, 11, 61, 63
12, 45600, Note_on_c, 11, 66, 61
12, 45600, Note_on_c, 11, 70, 61
12, 45624, Note_off_c, 11, 61, 63
12, 45625, Note_off_c, 11, 70, 61
12, 45625, Note_off_c, 11, 66, 61
12, 45696, Note_on_c, 11, 60, 71
12, 45696, Note_on_c, 11, 66, 71
12, 45696, Note_on_c, 11, 68, 69
12, 45807, Note_off_c, 11, 68, 69
12, 45811, Note_off_c, 11, 66, 71
12, 45813, Note_off_c, 11, 60, 71
12, 45840, Note_on_c, 11, 60, 65
12, 45840, Note_on_c, 11, 66, 67
12, 45840, Note_on_c, 11, 68, 67
12, 45938, Note_off_c, 11, 68, 67
12, 45945, Note_off_c, 11, 66, 67
12, 45947, Note_off_c, 11, 60, 65
12, 45984, Note_on_c, 11, 60, 65
12, 45984, Note_on_c, 11, 66, 71
12, 45984, Note_on_c, 11, 68, 69
12, 46026, Note_off_c, 11, 68, 69
12, 46037, Note_off_c, 11, 60, 65
12, 46049, Note_off_c, 11, 66, 71
12, 46176, Note_on_c, 11, 59, 67
12, 46176, Note_on_c, 11, 63, 67
12, 46176, Note_on_c, 11, 68, 67
12, 46196, Note_off_c, 11, 59, 67
12, 46198, Note_off_c, 11, 68, 67
12, 46198, Note_off_c, 11, 63, 67
12, 46224, Note_on_c, 11, 59, 59
12, 46224, Note_on_c, 11, 63, 63
12, 46224, Note_on_c, 11, 68, 63
12, 46250, Note_off_c, 11, 59, 59
12, 46255, Note_off_c, 11, 68, 63
12, 46255, Note_off_c, 11, 63, 63
12, 46320, Note_on_c, 11, 59, 67
12, 46320, Note_on_c, 11, 63, 67
12, 46320, Note_on_c, 11, 68, 67
12, 46333, Note_off_c, 11, 59, 67
12, 46338, Note_off_c, 11, 68, 67
12, 46338, Note_off_c, 11, 63, 67
12, 46368, Note_on_c, 11, 59, 63
12, 46368, Note_on_c, 11, 63, 61
12, 46368, Note_on_c, 11, 68, 61
12, 46392, Note_off_c, 11, 59, 63
12, 46393, Note_off_c, 11, 68, 61
12, 46393, Note_off_c, 11, 63, 61
12, 46464, Note_on_c, 11, 59, 71
12, 46464, Note_on_c, 11, 63, 69
12, 46464, Note_on_c, 11, 68, 69
12, 46575, Note_off_c, 11, 68, 69
12, 46575, Note_off_c, 11, 63, 69
12, 46581, Note_off_c, 11, 59, 71
12, 46608, Note_on_c, 11, 59, 65
12, 46608, Note_on_c, 11, 63, 67
12, 46608, Note_on_c, 11, 68, 67
12, 46706, Note_off_c, 11, 68, 67
12, 46706, Note_off_c, 11, 63, 67
12, 46715, Note_off_c, 11, 59, 65
12, 46752, Note_on_c, 11, 59, 65
12, 46752, Note_on_c, 11, 63, 69
12, 46752, Note_on_c, 11, 68, 69
12, 46794, Note_off_c, 11, 68, 69
12, 46794, Note_off_c, 11, 63, 69
12, 46805, Note_off_c, 11, 59, 65
12, 46944, Note_on_c, 11, 59, 67
12, 46944, Note_on_c, 11, 63, 67
12, 46944, Note_on_c, 11, 68, 67
12, 46964, Note_off_c, 11, 59, 67
12, 46966, Note_off_c, 11, 68, 67
12, 46966, Note_off_c, 11, 63, 67
12, 47088, Note_on_c, 11, 59, 67
12, 47088, Note_on_c, 11, 63, 67
12, 47088, Note_on_c, 11, 68, 67
12, 47101, Note_off_c, 11, 59, 67
12, 47106, Note_off_c, 11, 68, 67
12, 47106, Note_off_c, 11, 63, 67
12, 47184, Note_on_c, 11, 59, 63
12, 47184, Note_on_c, 11, 63, 61
12, 47184, Note_on_c, 11, 68, 61
12, 47304, Note_off_c, 11, 68, 61
12, 47304, Note_off_c, 11, 63, 61
12, 47304, Note_off_c, 11, 59, 63
12, 47328, Note_on_c, 11, 59, 71
12, 47328, Note_on_c, 11, 63, 69
12, 47328, Note_on_c, 11, 68, 69
12, 47387, Note_off_c, 11, 68, 69
12, 47387, Note_off_c, 11, 63, 69
12, 47387, Note_off_c, 11, 59, 71
12, 47424, Note_on_c, 11, 62, 71
12, 47424, Note_on_c, 11, 66, 71
12, 47424, Note_on_c, 11, 70, 69
12, 47615, Note_off_c, 11, 70, 69
12, 47615, Note_off_c, 11, 66, 71
12, 47615, Note_off_c, 11, 62, 71
12, 75360, Note_on_c, 11, 63, 71
12, 75360, Note_on_c, 11, 66, 65
12, 75360, Note_on_c, 11, 70, 69
12, 75373, Note_off_c, 11, 66, 65
12, 75377, Note_off_c, 11, 70, 69
12, 75383, Note_off_c, 11, 63, 71
12, 75408, Note_on_c, 11, 63, 57
12, 75408, Note_on_c, 11, 66, 57
12, 75408, Note_on_c, 11, 70, 61
12, 75432, Note_off_c, 11, 70, 61
12, 75433, Note_off_c, 11, 63, 57
12, 75434, Note_off_c, 11, 66, 57
12, 75504, Note_on_c, 11, 63, 65
12, 75504, Note_on_c, 11, 66, 49
12, 75504, Note_on_c, 11, 70, 71
12, 75518, Note_off_c, 11, 66, 49
12, 75519, Note_off_c, 11, 63, 65
12, 75526, Note_off_c, 11, 70, 71
12, 75552, Note_on_c, 11, 63, 65
12, 75552, Note_on_c, 11, 66, 61
12, 75552, Note_on_c, 11, 70, 61
12, 75575, Note_off_c, 11, 70, 61
12, 75575, Note_off_c, 11, 63, 65
12, 75577, Note_off_c, 11, 66, 61
12, 75648, Note_on_c, 11, 62, 67
12, 75648, Note_on_c, 11, 66, 65
12, 75648, Note_on_c, 11, 70, 65
12, 75748, Note_off_c, 11, 66, 65
12, 75753, Note_off_c, 11, 70, 65
12, 75753, Note_off_c, 11, 62, 67
12, 75792, Note_on_c, 11, 62, 69
12, 75792, Note_on_c, 11, 66, 67
12, 75792, Note_on_c, 11, 70, 67
12, 75894, Note_off_c, 11, 66, 67
12, 75895, Note_off_c, 11, 70, 67
12, 75897, Note_off_c, 11, 62, 69
12, 75936, Note_on_c, 11, 62, 61
12, 75936, Note_on_c, 11, 66, 63
12, 75936, Note_on_c, 11, 70, 59
12, 75967, Note_off_c, 11, 70, 59
12, 75971, Note_off_c, 11, 62, 61
12, 75976, Note_off_c, 11, 66, 63
12, 76128, Note_on_c, 11, 61, 67
12, 76128, Note_on_c, 11, 66, 67
12, 76128, Note_on_c, 11, 70, 67
12, 76144, Note_off_c, 11, 70, 67
12, 76148, Note_off_c, 11, 61, 67
12, 76150, Note_off_c, 11, 66, 67
12, 76176, Note_on_c, 11, 61, 59
12, 76176, Note_on_c, 11, 66, 63
12, 76176, Note_on_c, 11, 70, 57
12, 76202, Note_off_c, 11, 70, 57
12, 76202, Note_off_c, 11, 61, 59
12, 76207, Note_off_c, 11, 66, 63
12, 76272, Note_on_c, 11, 61, 67
12, 76272, Note_on_c, 11, 66, 67
12, 76272, Note_on_c, 11, 70, 67
12, 76285, Note_off_c, 11, 61, 67
12, 76290, Note_off_c, 11, 66, 67
12, 76291, Note_off_c, 11, 70, 67
12, 76320, Note_on_c, 11, 61, 63
12, 76320, Note_on_c, 11, 66, 61
12, 76320, Note_on_c, 11, 70, 61
12, 76344, Note_off_c, 11, 61, 63
12, 76345, Note_off_c, 11, 70, 61
12, 76345, Note_off_c, 11, 66, 61
12, 76416, Note_on_c, 11, 60, 71
12, 76416, Note_on_c, 11, 66, 71
12, 76416, Note_on_c, 11, 68, 69
12, 76527, Note_off_c, 11, 68, 69
12, 76531, Note_off_c, 11, 66, 71
12, 76533, Note_off_c, 11, 60, 71
12, 76560, Note_on_c, 11, 60, 65
12, 76560, Note_on_c, 11, 66, 67
12, 76560, Note_on_c, 11, 68, 67
12, 76658, Note_off_c, 11, 68, 67
12, 76665, Note_off_c, 11, 66, 67
12, 76667, Note_off_c, 11, 60, 65
12, 76704, Note_on_c, 11, 60, 65
12, 76704, Note_on_c, 11, 66, 71
12, 76704, Note_on_c, 11, 68, 69
12, 76746, Note_off_c, 11, 68, 69
12, 76757, Note_off_c, 11, 60, 65
12, 76769, Note_off_c, 11, 66, 71
12, 76896, Note_on_c, 11, 59, 67
12, 76896, Note_on_c, 11, 63, 67
12, 76896, Note_on_c, 11, 68, 67
12, 76916, Note_off_c, 11, 59, 67
12, 76918, Note_off_c, 11, 68, 67
12, 76918, Note_off_c, 11, 63, 67
12, 76944, Note_on_c, 11, 59, 59
12, 76944, Note_on_c, 11, 63, 63
12, 76944, Note_on_c, 11, 68, 63
12, 76970, Note_off_c, 11, 59, 59
12, 76975, Note_off_c, 11, 68, 63
12, 76975, Note_off_c, 11, 63, 63
12, 77040, Note_on_c, 11, 59, 67
12, 77040, Note_on_c, 11, 63, 67
12, 77040, Note_on_c, 11, 68, 67
12, 77053, Note_off_c, 11, 59, 67
12, 77058, Note_off_c, 11, 68, 67
12, 77058, Note_off_c, 11, 63, 67
12, 77088, Note_on_c, 11, 59, 63
12, 77088, Note_on_c, 11, 63, 61
12, 77088, Note_on_c, 11, 68, 61
12, 77112, Note_off_c, 11, 59, 63
12, 77113, Note_off_c, 11, 68, 61
12, 77113, Note_off_c, 11, 63, 61
12, 77184, Note_on_c, 11, 59, 71
12, 77184, Note_on_c, 11, 63, 69
12, 77184, Note_on_c, 11, 68, 69
12, 77295, Note_off_c, 11, 68, 69
12, 77295, Note_off_c, 11, 63, 69
12, 77301, Note_off_c, 11, 59, 71
12, 77328, Note_on_c, 11, 59, 65
12, 77328, Note_on_c, 11, 63, 67
12, 77328, Note_on_c, 11, 68, 67
12, 77426, Note_off_c, 11, 68, 67
12, 77426, Note_off_c, 11, 63, 67
12, 77435, Note_off_c, 11, 59, 65
12, 77472, Note_on_c, 11, 59, 65
12, 77472, Note_on_c, 11, 63, 69
12, 77472, Note_on_c, 11, 68, 69
12, 77514, Note_off_c, 11, 68, 69
12, 77514, Note_off_c, 11, 63, 69
12, 77525, Note_off_c, 11, 59, 65
12, 77664, Note_on_c, 11, 59, 67
12, 77664, Note_on_c, 11, 63, 67
12, 77664, Note_on_c, 11, 68, 67
12, 77684, Note_off_c, 11, 59, 67
12, 77686, Note_off_c, 11, 68, 67
12, 77686, Note_off_c, 11, 63, 67
12, 77808, Note_on_c, 11, 59, 67
12, 77808, Note_on_c, 11, 63, 67
12, 77808, Note_on_c, 11, 68, 67
12, 77821, Note_off_c, 11, 59, 67
12, 77826, Note_off_c, 11, 68, 67
12, 77826, Note_off_c, 11, 63, 67
12, 77904, Note_on_c, 11, 59, 63
12, 77904, Note_on_c, 11, 63, 61
12, 77904, Note_on_c, 11, 68, 61
12, 78024, Note_off_c, 11, 68, 61
12, 78024, Note_off_c, 11, 63, 61
12, 78024, Note_off_c, 11, 59, 63
12, 78048, Note_on_c, 11, 59, 71
12, 78048, Note_on_c, 11, 63, 69
12, 78048, Note_on_c, 11, 68, 69
12, 78107, Note_off_c, 11, 68, 69
12, 78107, Note_off_c, 11, 63, 69
12, 78107, Note_off_c, 11, 59, 71
12, 78144, Note_on_c, 11, 62, 71
12, 78144, Note_on_c, 11, 66, 71
12, 78144, Note_on_c, 11, 70, 69
12, 78335, Note_off_c, 11, 70, 69
12, 78335, Note_off_c, 11, 66, 71
12, 78335, Note_off_c, 11, 62, 71
12, 78432, Note_on_c, 11, 63, 71
12, 78432, Note_on_c, 11, 66, 65
12, 78432, Note_on_c, 11, 70, 69
12, 78445, Note_off_c, 11, 66, 65
12, 78449, Note_off_c, 11, 70, 69
12, 78455, Note_off_c, 11, 63, 71
12, 78480, Note_on_c, 11, 63, 57
12, 78480, Note_on_c, 11, 66, 57
12, 78480, Note_on_c, 11, 70, 61
12, 78504, Note_off_c, 11, 70, 61
12, 78505, Note_off_c, 11, 63, 57
12, 78506, Note_off_c, 11, 66, 57
12, 78576, Note_on_c, 11, 63, 65
12, 78576, Note_on_c, 11, 66, 49
12, 78576, Note_on_c, 11, 70, 71
12, 78590, Note_off_c, 11, 66, 49
12, 78591, Note_off_c, 11, 63, 65
12, 78598, Note_off_c, 11, 70, 71
12, 78624, Note_on_c, 11, 63, 65
12, 78624, Note_on_c, 11, 66, 61
12, 78624, Note_on_c, 11, 70, 61
12, 78647, Note_off_c, 11, 70, 61
12, 78647, Note_off_c, 11, 63, 65
12, 78649, Note_off_c, 11, 66, 61
12, 78720, Note_on_c, 11, 62, 67
12, 78720, Note_on_c, 11, 66, 65
12, 78720, Note_on_c, 11, 70, 65
12, 78820, Note_off_c, 11, 66, 65
12, 78825, Note_off_c, 11, 70, 65
12, 78825, Note_off_c, 11, 62, 67
12, 78864, Note_on_c, 11, 62, 69
12, 78864, Note_on_c, 11, 66, 67
12, 78864, Note_on_c, 11, 70, 67
12, 78966, Note_off_c, 11, 66, 67
12, 78967, Note_off_c, 11, 70, 67
12, 78969, Note_off_c, 11, 62, 69
12, 79008, Note_on_c, 11, 62, 61
12, 79008, Note_on_c, 11, 66, 63
12, 79008, Note_on_c, 11, 70, 59
12, 79039, Note_off_c, 11, 70, 59
12, 79043, Note_off_c, 11, 62, 61
12, 79048, Note_off_c, 11, 66, 63
12, 79200, Note_on_c, 11, 61, 67
12, 79200, Note_on_c, 11, 66, 67
12, 79200, Note_on_c, 11, 70, 67
12, 79216, Note_off_c, 11, 70, 67
12, 79220, Note_off_c, 11, 61, 67
12, 79222, Note_off_c, 11, 66, 67
12, 79248, Note_on_c, 11, 61, 59
12, 79248, Note_on_c, 11, 66, 63
12, 79248, Note_on_c, 11, 70, 57
12, 79274, Note_off_c, 11, 70, 57
12, 79274, Note_off_c, 11, 61, 59
12, 79279, Note_off_c, 11, 66, 63
12, 79344, Note_on_c, 11, 61, 67
12, 79344, Note_on_c, 11, 66, 67
12, 79344, Note_on_c, 11, 70, 67
12, 79357, Note_off_c, 11, 61, 67
12, 79362, Note_off_c, 11, 66, 67
12, 79363, Note_off_c, 11, 70, 67
12, 79392, Note_on_c, 11, 61, 63
12, 79392, Note_on_c, 11, 66, 61
12, 79392, Note_on_c, 11, 70, 61
12, 79416, Note_off_c, 11, 61, 63
12, 79417, Note_off_c, 11, 70, 61
12, 79417, Note_off_c, 11, 66, 61
12, 79488, Note_on_c, 11, 60, 71
12, 79488, Note_on_c, 11, 66, 71
12, 79488, Note_on_c, 11, 68, 69
12, 79599, Note_off_c, 11, 68, 69
12, 79603, Note_off_c, 11, 66, 71
12, 79605, Note_off_c, 11, 60, 71
12, 79632, Note_on_c, 11, 60, 65
12, 79632, Note_on_c, 11, 66, 67
12, 79632, Note_on_c, 11, 68, 67
12, 79730, Note_off_c, 11, 68, 67
12, 79737, Note_off_c, 11, 66, 67
12, 79739, Note_off_c, 11, 60, 65
12, 79776, Note_on_c, 11, 60, 65
12, 79776, Note_on_c, 11, 66, 71
12, 79776, Note_on_c, 11, 68, 69
12, 79818, Note_off_c, 11, 68, 69
12, 79829, Note_off_c, 11, 60, 65
12, 79841, Note_off_c, 11, 66, 71
12, 79968, Note_on_c, 11, 59, 67
12, 79968, Note_on_c, 11, 63, 67
12, 79968, Note_on_c, 11, 68, 67
12, 79988, Note_off_c, 11, 59, 67
12, 79990, Note_off_c, 11, 68, 67
12, 79990, Note_off_c, 11, 63, 67
12, 80016, Note_on_c, 11, 59, 59
12, 80016, Note_on_c, 11, 63, 63
12, 80016, Note_on_c, 11, 68, 63
12, 80042, Note_off_c, 11, 59, 59
12, 80047, Note_off_c, 11, 68, 63
12, 80047, Note_off_c, 11, 63, 63
12, 80112, Note_on_c, 11, 59, 67
12, 80112, Note_on_c, 11, 63, 67
12, 80112, Note_on_c, 11, 68, 67
12, 80125, Note_off_c, 11, 59, 67
12, 80130, Note_off_c, 11, 68, 67
12, 80130, Note_off_c, 11, 63, 67
12, 80160, Note_on_c, 11, 59, 63
12, 80160, Note_on_c, 11, 63, 61
12, 80160, Note_on_c, 11, 68, 61
12, 80184, Note_off_c, 11, 59, 63
12, 80185, Note_off_c, 11, 68, 61
12, 80185, Note_off_c, 11, 63, 61
12, 80256, Note_on_c, 11, 59, 71
12, 80256, Note_on_c, 11, 63, 69
12, 80256, Note_on_c, 11, 68, 69
12, 80367, Note_off_c, 11, 68, 69
12, 80367, Note_off_c, 11, 63, 69
12, 80373, Note_off_c, 11, 59, 71
12, 80400, Note_on_c, 11, 59, 65
12, 80400, Note_on_c, 11, 63, 67
12, 80400, Note_on_c, 11, 68, 67
12, 80498, Note_off_c, 11, 68, 67
12, 80498, Note_off_c, 11, 63, 67
12, 80507, Note_off_c, 11, 59, 65
12, 80544, Note_on_c, 11, 59, 65
12, 80544, Note_on_c, 11, 63, 69
12, 80544, Note_on_c, 11, 68, 69
12, 80586, Note_off_c, 11, 68, 69
12, 80586, Note_off_c, 11, 63, 69
12, 80597, Note_off_c, 11, 59, 65
12, 80736, Note_on_c, 11, 59, 67
12, 80736, Note_on_c, 11, 63, 67
12, 80736, Note_on_c, 11, 68, 67
12, 80756, Note_off_c, 11, 59, 67
12, 80758, Note_off_c, 11, 68, 67
12, 80758, Note_off_c, 11, 63, 67
12, 80880, Note_on_c, 11, 59, 67
12, 80880, Note_on_c, 11, 63, 67
12, 80880, Note_on_c, 11, 68, 67
12, 80893, Note_off_c, 11, 59, 67
12, 80898, Note_off_c, 11, 68, 67
12, 80898, Note_off_c, 11, 63, 67
12, 80976, Note_on_c, 11, 59, 63
12, 80976, Note_on_c, 11, 63, 61
12, 80976, Note_on_c, 11, 68, 61
12, 81096, Note_off_c, 11, 68, 61
12, 81096, Note_off_c, 11, 63, 61
12, 81096, Note_off_c, 11, 59, 63
12, 81120, Note_on_c, 11, 59, 71
12, 81120, Note_on_c, 11, 63, 69
12, 81120, Note_on_c, 11, 68, 69
12, 81179, Note_off_c, 11, 68, 69
12, 81179, Note_off_c, 11, 63, 69
12, 81179, Note_off_c, 11, 59, 71
12, 81216, Note_on_c, 11, 62, 71
12, 81216, Note_on_c, 11, 66, 71
12, 81216, Note_on_c, 11, 70, 69
12, 81407, Note_off_c, 11, 70, 69
12, 81407, Note_off_c, 11, 66, 71
12, 81407, Note_off_c, 11, 62, 71
12, 81504, Note_on_c, 11, 63, 71
12, 81504, Note_on_c, 11, 66, 65
12, 81504, Note_on_c, 11, 70, 69
12, 81517, Note_off_c, 11, 66, 65
12, 81521, Note_off_c, 11, 70, 69
12, 81527, Note_off_c, 11, 63, 71
12, 81552, Note_on_c, 11, 63, 57
12, 81552, Note_on_c, 11, 66, 57
12, 81552, Note_on_c, 11, 70, 61
12, 81576, Note_off_c, 11, 70, 61
12, 81577, Note_off_c, 11, 63, 57
12, 81578, Note_off_c, 11, 66, 57
12, 81648, Note_on_c, 11, 63, 65
12, 81648, Note_on_c, 11, 66, 49
12, 81648, Note_on_c, 11, 70, 71
12, 81662, Note_off_c, 11, 66, 49
12, 81663, Note_off_c, 11, 63, 65
12, 81670, Note_off_c, 11, 70, 71
12, 81696, Note_on_c, 11, 63, 65
12, 81696, Note_on_c, 11, 66, 61
12, 81696, Note_on_c, 11, 70, 61
12, 81719, Note_off_c, 11, 70, 61
12, 81719, Note_off_c, 11, 63, 65
12, 81721, Note_off_c, 11, 66, 61
12, 81792, Note_on_c, 11, 62, 67
12, 81792, Note_on_c, 11, 66, 65
12, 81792, Note_on_c, 11, 70, 65
12, 81892, Note_off_c, 11, 66, 65
12, 81897, Note_off_c, 11, 70, 65
12, 81897, Note_off_c, 11, 62, 67
12, 81936, Note_on_c, 11, 62, 69
12, 81936, Note_on_c, 11, 66, 67
12, 81936, Note_on_c, 11, 70, 67
12, 82038, Note_off_c, 11, 66, 67
12, 82039, Note_off_c, 11, 70, 67
12, 82041, Note_off_c, 11, 62, 69
12, 82080, Note_on_c, 11, 62, 61
12, 82080, Note_on_c, 11, 66, 63
12, 82080, Note_on_c, 11, 70, 59
12, 82111, Note_off_c, 11, 70, 59
12, 82115, Note_off_c, 11, 62, 61
12, 82120, Note_off_c, 11, 66, 63
12, 82272, Note_on_c, 11, 61, 67
12, 82272, Note_on_c, 11, 66, 67
12, 82272, Note_on_c, 11, 70, 67
12, 82288, Note_off_c, 11, 70, 67
12, 82292, Note_off_c, 11, 61, 67
12, 82294, Note_off_c, 11, 66, 67
12, 82320, Note_on_c, 11, 61, 59
12, 82320, Note_on_c, 11, 66, 63
12, 82320, Note_on_c, 11, 70, 57
12, 82346, Note_off_c, 11, 70, 57
12, 82346, Note_off_c, 11, 61, 59
12, 82351, Note_off_c, 11, 66, 63
12, 82416, Note_on_c, 11, 61, 67
12, 82416, Note_on_c, 11, 66, 67
12, 82416, Note_on_c, 11, 70, 67
12, 82429, Note_off_c, 11, 61, 67
12, 82434, Note_off_c, 11, 66, 67
12, 82435, Note_off_c, 11, 70, 67
12, 82464, Note_on_c, 11, 61, 63
12, 82464, Note_on_c, 11, 66, 61
12, 82464, Note_on_c, 11, 70, 61
12, 82488, Note_off_c, 11, 61, 63
12, 82489, Note_off_c, 11, 70, 61
12, 82489, Note_off_c, 11, 66, 61
12, 82560, Note_on_c, 11, 60, 71
12, 82560, Note_on_c, 11, 66, 71
12, 82560, Note_on_c, 11, 68, 69
12, 82671, Note_off_c, 11, 68, 69
12, 82675, Note_off_c, 11, 66, 71
12, 82677, Note_off_c, 11, 60, 71
12, 82704, Note_on_c, 11, 60, 65
12, 82704, Note_on_c, 11, 66, 67
12, 82704, Note_on_c, 11, 68, 67
12, 82802, Note_off_c, 11, 68, 67
12, 82809, Note_off_c, 11, 66, 67
12, 82811, Note_off_c, 11, 60, 65
12, 82848, Note_on_c, 11, 60, 65
12, 82848, Note_on_c, 11, 66, 71
12, 82848, Note_on_c, 11, 68, 69
12, 82890, Note_off_c, 11, 68, 69
12, 82901, Note_off_c, 11, 60, 65
12, 82913, Note_off_c, 11, 66, 71
12, 83040, Note_on_c, 11, 59, 67
12, 83040, Note_on_c, 11, 63, 67
12, 83040, Note_on_c, 11, 68, 67
12, 83060, Note_off_c, 11, 59, 67
12, 83062, Note_off_c, 11, 68, 67
12, 83062, Note_off_c, 11, 63, 67
12, 83088, Note_on_c, 11, 59, 59
12, 83088, Note_on_c, 11, 63, 63
12, 83088, Note_on_c, 11, 68, 63
12, 83114, Note_off_c, 11, 59, 59
12, 83119, Note_off_c, 11, 68, 63
12, 83119, Note_off_c, 11, 63, 63
12, 83184, Note_on_c, 11, 59, 67
12, 83184, Note_on_c, 11, 63, 67
12, 83184, Note_on_c, 11, 68, 67
12, 83197, Note_off_c, 11, 59, 67
12, 83202, Note_off_c, 11, 68, 67
12, 83202, Note_off_c, 11, 63, 67
12, 83232, Note_on_c, 11, 59, 63
12, 83232, Note_on_c, 11, 63, 61
12, 83232, Note_on_c, 11, 68, 61
12, 83256, Note_off_c, 11, 59, 63
12, 83257, Note_off_c, 11, 68, 61
12, 83257, Note_off_c, 11, 63, 61
12, 83328, Note_on_c, 11, 59, 71
12, 83328, Note_on_c, 11, 63, 69
12, 83328, Note_on_c, 11, 68, 69
12, 83439, Note_off_c, 11, 68, 69
12, 83439, Note_off_c, 11, 63, 69
12, 83445, Note_off_c, 11, 59, 71
12, 83472, Note_on_c, 11, 59, 65
12, 83472, Note_on_c, 11, 63, 67
12, 83472, Note_on_c, 11, 68, 67
12, 83570, Note_off_c, 11, 68, 67
12, 83570, Note_off_c, 11, 63, 67
12, 83579, Note_off_c, 11, 59, 65
12, 83616, Note_on_c, 11, 59, 65
12, 83616, Note_on_c, 11, 63, 69
12, 83616, Note_on_c, 11, 68, 69
12, 83658, Note_off_c, 11, 68, 69
12, 83658, Note_off_c, 11, 63, 69
12, 83669, Note_off_c, 11, 59, 65
12, 83808, Note_on_c, 11, 59, 67
12, 83808, Note_on_c, 11, 63, 67
12, 83808, Note_on_c, 11, 68, 67
12, 83828, Note_off_c, 11, 59, 67
12, 83830, Note_off_c, 11, 68, 67
12, 83830, Note_off_c, 11, 63, 67
12, 83952, Note_on_c, 11, 59, 67
12, 83952, Note_on_c, 11, 63, 67
12, 83952, Note_on_c, 11, 68, 67
12, 83965, Note_off_c, 11, 59, 67
12, 83970, Note_off_c, 11, 68, 67
12, 83970, Note_off_c, 11, 63, 67
12, 84048, Note_on_c, 11, 59, 63
12, 84048, Note_on_c, 11, 63, 61
12, 84048, Note_on_c, 11, 68, 61
12, 84168, Note_off_c, 11, 68, 61
12, 84168, Note_off_c, 11, 63, 61
12, 84168, Note_off_c, 11, 59, 63
12, 84192, Note_on_c, 11, 59, 71
12, 84192, Note_on_c, 11, 63, 69
12, 84192, Note_on_c, 11, 68, 69
12, 84251, Note_off_c, 11, 68, 69
12, 84251, Note_off_c, 11, 63, 69
12, 84251, Note_off_c, 11, 59, 71
12, 84288, Note_on_c, 11, 62, 71
12, 84288, Note_on_c, 11, 66, 71
12, 84288, Note_on_c, 11, 70, 69
12, 84479, Note_off_c, 11, 70, 69
12, 84479, Note_off_c, 11, 66, 71
12, 84479, Note_off_c, 11, 62, 71
12, 84576, Note_on_c, 11, 63, 71
12, 84576, Note_on_c, 11, 66, 65
12, 84576, Note_on_c, 11, 70, 69
12, 84589, Note_off_c, 11, 66, 65
12, 84593, Note_off_c, 11, 70, 69
12, 84599, Note_off_c, 11, 63, 71
12, 84624, Note_on_c, 11, 63, 57
12, 84624, Note_on_c, 11, 66, 57
12, 84624, Note_on_c, 11, 70, 61
12, 84648, Note_off_c, 11, 70, 61
12, 84649, Note_off_c, 11, 63, 57
12, 84650, Note_off_c, 11, 66, 57
12, 84720, Note_on_c, 11, 63, 65
12, 84720, Note_on_c, 11, 66, 49
12, 84720, Note_on_c, 11, 70, 71
12, 84734, Note_off_c, 11, 66, 49
12, 84735, Note_off_c, 11, 63, 65
12, 84742, Note_off_c, 11, 70, 71
12, 84768, Note_on_c, 11, 63, 65
12, 84768, Note_on_c, 11, 66, 61
12, 84768, Note_on_c, 11, 70, 61
12, 84791, Note_off_c, 11, 70, 61
12, 84791, Note_off_c, 11, 63, 65
12, 84793, Note_off_c, 11, 66, 61
12, 84864, Note_on_c, 11, 62, 67
12, 84864, Note_on_c, 11, 66, 65
12, 84864, Note_on_c, 11, 70, 65
12, 84964, Note_off_c, 11, 66, 65
12, 84969, Note_off_c, 11, 70, 65
12, 84969, Note_off_c, 11, 62, 67
12, 85008, Note_on_c, 11, 62, 69
12, 85008, Note_on_c, 11, 66, 67
12, 85008, Note_on_c, 11, 70, 67
12, 85110, Note_off_c, 11, 66, 67
12, 85111, Note_off_c, 11, 70, 67
12, 85113, Note_off_c, 11, 62, 69
12, 85152, Note_on_c, 11, 62, 61
12, 85152, Note_on_c, 11, 66, 63
12, 85152, Note_on_c, 11, 70, 59
12, 85183, Note_off_c, 11, 70, 59
12, 85187, Note_off_c, 11, 62, 61
12, 85192, Note_off_c, 11, 66, 63
12, 85344, Note_on_c, 11, 61, 67
12, 85344, Note_on_c, 11, 66, 67
12, 85344, Note_on_c, 11, 70, 67
12, 85360, Note_off_c, 11, 70, 67
12, 85364, Note_off_c, 11, 61, 67
12, 85366, Note_off_c, 11, 66, 67
12, 85392, Note_on_c, 11, 61, 59
12, 85392, Note_on_c, 11, 66, 63
12, 85392, Note_on_c, 11, 70, 57
12, 85418, Note_off_c, 11, 70, 57
12, 85418, Note_off_c, 11, 61, 59
12, 85423, Note_off_c, 11, 66, 63
12, 85488, Note_on_c, 11, 61, 67
12, 85488, Note_on_c, 11, 66, 67
12, 85488, Note_on_c, 11, 70, 67
12, 85501, Note_off_c, 11, 61, 67
12, 85506, Note_off_c, 11, 66, 67
12, 85507, Note_off_c, 11, 70, 67
12, 85536, Note_on_c, 11, 61, 63
12, 85536, Note_on_c, 11, 66, 61
12, 85536, Note_on_c, 11, 70, 61
12, 85560, Note_off_c, 11, 61, 63
12, 85561, Note_off_c, 11, 70, 61
12, 85561, Note_off_c, 11, 66, 61
12, 85632, Note_on_c, 11, 60, 71
12, 85632, Note_on_c, 11, 66, 71
12, 85632, Note_on_c, 11, 68, 69
12, 85743, Note_off_c, 11, 68, 69
12, 85747, Note_off_c, 11, 66, 71
12, 85749, Note_off_c, 11, 60, 71
12, 85776, Note_on_c, 11, 60, 65
12, 85776, Note_on_c, 11, 66, 67
12, 85776, Note_on_c, 11, 68, 67
12, 85874, Note_off_c, 11, 68, 67
12, 85881, Note_off_c, 11, 66, 67
12, 85883, Note_off_c, 11, 60, 65
12, 85920, Note_on_c, 11, 60, 65
12, 85920, Note_on_c, 11, 66, 71
12, 85920, Note_on_c, 11, 68, 69
12, 85962, Note_off_c, 11, 68, 69
12, 85973, Note_off_c, 11, 60, 65
12, 85985, Note_off_c, 11, 66, 71
12, 86112, Note_on_c, 11, 59, 67
12, 86112, Note_on_c, 11, 63, 67
12, 86112, Note_on_c, 11, 68, 67
12, 86132, Note_off_c, 11, 59, 67
12, 86134, Note_off_c, 11, 68, 67
12, 86134, Note_off_c, 11, 63, 67
12, 86160, Note_on_c, 11, 59, 59
12, 86160, Note_on_c, 11, 63, 63
12, 86160, Note_on_c, 11, 68, 63
12, 86186, Note_off_c, 11, 59, 59
12, 86191, Note_off_c, 11, 68, 63
12, 86191, Note_off_c, 11, 63, 63
12, 86256, Note_on_c, 11, 59, 67
12, 86256, Note_on_c, 11, 63, 67
12, 86256, Note_on_c, 11, 68, 67
12, 86269, Note_off_c, 11, 59, 67
12, 86274, Note_off_c, 11, 68, 67
12, 86274, Note_off_c, 11, 63, 67
12, 86304, Note_on_c, 11, 59, 63
12, 86304, Note_on_c, 11, 63, 61
12, 86304, Note_on_c, 11, 68, 61
12, 86328, Note_off_c, 11, 59, 63
12, 86329, Note_off_c, 11, 68, 61
12, 86329, Note_off_c, 11, 63, 61
12, 86400, Note_on_c, 11, 59, 71
12, 86400, Note_on_c, 11, 63, 69
12, 86400, Note_on_c, 11, 68, 69
12, 86511, Note_off_c, 11, 68, 69
12, 86511, Note_off_c, 11, 63, 69
12, 86517, Note_off_c, 11, 59, 71
12, 86544, Note_on_c, 11, 59, 65
12, 86544, Note_on_c, 11, 63, 67
12, 86544, Note_on_c, 11, 68, 67
12, 86642, Note_off_c, 11, 68, 67
12, 86642, Note_off_c, 11, 63, 67
12, 86651, Note_off_c, 11, 59, 65
12, 86688, Note_on_c, 11, 59, 65
12, 86688, Note_on_c, 11, 63, 69
12, 86688, Note_on_c, 11, 68, 69
12, 86730, Note_off_c, 11, 68, 69
12, 86730, Note_off_c, 11, 63, 69
12, 86741, Note_off_c, 11, 59, 65
12, 86880, Note_on_c, 11, 59, 67
12, 86880, Note_on_c, 11, 63, 67
12, 86880, Note_on_c, 11, 68, 67
12, 86900, Note_off_c, 11, 59, 67
12, 86902, Note_off_c, 11, 68, 67
12, 86902, Note_off_c, 11, 63, 67
12, 87024, Note_on_c, 11, 59, 67
12, 87024, Note_on_c, 11, 63, 67
12, 87024, Note_on_c, 11, 68, 67
12, 87037, Note_off_c, 11, 59, 67
12, 87042, Note_off_c, 11, 68, 67
12, 87042, Note_off_c, 11, 63, 67
12, 87120, Note_on_c, 11, 59, 63
12, 87120, Note_on_c, 11, 63, 61
12, 87120, Note_on_c, 11, 68, 61
12, 87240, Note_off_c, 11, 68, 61
12, 87240, Note_off_c, 11, 63, 61
12, 87240, Note_off_c, 11, 59, 63
12, 87264, Note_on_c, 11, 59, 71
12, 87264, Note_on_c, 11, 63, 69
12, 87264, Note_on_c, 11, 68, 69
12, 87323, Note_off_c, 11, 68, 69
12, 87323, Note_off_c, 11, 63, 69
12, 87323, Note_off_c, 11, 59, 71
12, 87360, Note_on_c, 11, 62, 71
12, 87360, Note_on_c, 11, 66, 71
12, 87360, Note_on_c, 11, 70, 69
12, 87407, Note_off_c, 11, 70, 69
12, 87407, Note_off_c, 11, 66, 71
12, 87407, Note_off_c, 11, 62, 71
12, 87408, Note_on_c, 11, 62, 71
12, 87408, Note_on_c, 11, 66, 71
12, 87408, Note_on_c, 11, 70, 69
12, 87503, Note_off_c, 11, 70, 69
12, 87503, Note_off_c, 11, 66, 71
12, 87503, Note_off_c, 11, 62, 71
12, 87503, End_track
13, 0, Start_track
13, 0, Text_t, "Organo  "
13, 6912, Program_c, 12, 17
13, 6960, Control_c, 12, 7, 91
13, 7008, Control_c, 12, 10, 8
13, 7056, Control_c, 12, 91, 68
13, 7104, Control_c, 12, 93, 80
13, 7680, Note_on_c, 12, 82, 81
13, 7680, Note_on_c, 12, 78, 81
13, 7680, Note_on_c, 12, 75, 81
13, 7819, Note_off_c, 12, 75, 81
13, 7824, Note_off_c, 12, 78, 81
13, 7825, Note_off_c, 12, 82, 81
13, 7872, Note_on_c, 12, 82, 81
13, 7872, Note_on_c, 12, 78, 81
13, 7872, Note_on_c, 12, 75, 81
13, 7989, Note_off_c, 12, 75, 81
13, 7992, Note_off_c, 12, 82, 81
13, 7994, Note_off_c, 12, 78, 81
13, 8016, Note_on_c, 12, 82, 81
13, 8016, Note_on_c, 12, 78, 81
13, 8016, Note_on_c, 12, 74, 81
13, 8184, Note_off_c, 12, 74, 81
13, 8190, Note_off_c, 12, 82, 81
13, 8194, Note_off_c, 12, 78, 81
13, 8208, Note_on_c, 12, 82, 81
13, 8208, Note_on_c, 12, 78, 81
13, 8208, Note_on_c, 12, 74, 81
13, 8316, Note_off_c, 12, 74, 81
13, 8317, Note_off_c, 12, 82, 81
13, 8322, Note_off_c, 12, 78, 81
13, 8352, Note_on_c, 12, 82, 81
13, 8352, Note_on_c, 12, 78, 81
13, 8352, Note_on_c, 12, 74, 81
13, 8415, Note_off_c, 12, 74, 81
13, 8420, Note_off_c, 12, 78, 81
13, 8422, Note_off_c, 12, 82, 81
13, 8448, Note_on_c, 12, 82, 81
13, 8448, Note_on_c, 12, 78, 81
13, 8448, Note_on_c, 12, 73, 81
13, 8589, Note_off_c, 12, 73, 81
13, 8593, Note_off_c, 12, 82, 81
13, 8595, Note_off_c, 12, 78, 81
13, 8640, Note_on_c, 12, 82, 81
13, 8640, Note_on_c, 12, 78, 81
13, 8640, Note_on_c, 12, 73, 81
13, 8784, Note_off_c, 12, 82, 81
13, 8788, Note_off_c, 12, 73, 81
13, 8792, Note_off_c, 12, 78, 81
13, 8832, Note_on_c, 12, 80, 81
13, 8832, Note_on_c, 12, 75, 81
13, 8832, Note_on_c, 12, 72, 81
13, 8958, Note_off_c, 12, 72, 81
13, 8958, Note_off_c, 12, 80, 81
13, 8964, Note_off_c, 12, 75, 81
13, 8976, Note_on_c, 12, 72, 81
13, 8976, Note_on_c, 12, 75, 81
13, 8976, Note_on_c, 12, 80, 81
13, 9080, Note_off_c, 12, 72, 81
13, 9089, Note_off_c, 12, 75, 81
13, 9090, Note_off_c, 12, 80, 81
13, 9120, Note_on_c, 12, 72, 81
13, 9120, Note_on_c, 12, 75, 81
13, 9120, Note_on_c, 12, 80, 81
13, 9170, Note_off_c, 12, 72, 81
13, 9174, Note_off_c, 12, 75, 81
13, 9185, Note_off_c, 12, 80, 81
13, 9216, Note_on_c, 12, 66, 81
13, 9216, Note_on_c, 12, 71, 81
13, 9216, Note_on_c, 12, 76, 81
13, 9382, Note_off_c, 12, 76, 81
13, 9387, Note_off_c, 12, 66, 81
13, 9393, Note_off_c, 12, 71, 81
13, 9408, Note_on_c, 12, 66, 81
13, 9408, Note_on_c, 12, 71, 81
13, 9408, Note_on_c, 12, 76, 81
13, 9561, Note_off_c, 12, 76, 81
13, 9569, Note_off_c, 12, 66, 81
13, 9574, Note_off_c, 12, 71, 81
13, 9600, Note_on_c, 12, 66, 81
13, 9600, Note_on_c, 12, 71, 81
13, 9600, Note_on_c, 12, 76, 81
13, 9720, Note_off_c, 12, 76, 81
13, 9726, Note_off_c, 12, 66, 81
13, 9728, Note_off_c, 12, 71, 81
13, 9744, Note_on_c, 12, 66, 81
13, 9744, Note_on_c, 12, 71, 81
13, 9744, Note_on_c, 12, 76, 81
13, 9847, Note_off_c, 12, 76, 81
13, 9854, Note_off_c, 12, 66, 81
13, 9864, Note_off_c, 12, 71, 81
13, 9888, Note_on_c, 12, 66, 81
13, 9888, Note_on_c, 12, 71, 81
13, 9888, Note_on_c, 12, 76, 81
13, 9957, Note_off_c, 12, 66, 81
13, 9969, Note_off_c, 12, 71, 81
13, 9974, Note_off_c, 12, 76, 81
13, 10080, Note_on_c, 12, 66, 81
13, 10080, Note_on_c, 12, 70, 81
13, 10080, Note_on_c, 12, 75, 81
13, 10108, Note_off_c, 12, 66, 81
13, 10112, Note_off_c, 12, 70, 81
13, 10117, Note_off_c, 12, 75, 81
13, 10224, Note_on_c, 12, 66, 81
13, 10224, Note_on_c, 12, 70, 81
13, 10224, Note_on_c, 12, 75, 81
13, 10252, Note_off_c, 12, 70, 81
13, 10252, Note_off_c, 12, 66, 81
13, 10261, Note_off_c, 12, 75, 81
13, 10368, Note_on_c, 12, 70, 81
13, 10368, Note_on_c, 12, 74, 81
13, 10368, Note_on_c, 12, 78, 81
13, 10487, Note_off_c, 12, 78, 81
13, 10490, Note_off_c, 12, 70, 81
13, 10496, Note_off_c, 12, 74, 81
13, 10512, Note_on_c, 12, 70, 81
13, 10512, Note_on_c, 12, 74, 81
13, 10512, Note_on_c, 12, 78, 81
13, 10751, Note_off_c, 12, 78, 81
13, 10751, Note_off_c, 12, 74, 81
13, 10751, Note_off_c, 12, 70, 81
13, 41472, Note_on_c, 12, 75, 76
13, 41472, Note_on_c, 12, 78, 68
13, 41472, Note_on_c, 12, 82, 60
13, 41855, Note_off_c, 12, 82, 60
13, 41855, Note_off_c, 12, 78, 68
13, 41855, Note_off_c, 12, 75, 76
13, 41856, Note_on_c, 12, 74, 74
13, 41856, Note_on_c, 12, 78, 62
13, 41856, Note_on_c, 12, 82, 68
13, 42239, Note_off_c, 12, 82, 68
13, 42239, Note_off_c, 12, 78, 62
13, 42239, Note_off_c, 12, 74, 74
13, 42240, Note_on_c, 12, 73, 72
13, 42240, Note_on_c, 12, 78, 52
13, 42240, Note_on_c, 12, 82, 50
13, 42623, Note_off_c, 12, 82, 50
13, 42623, Note_off_c, 12, 78, 52
13, 42623, Note_off_c, 12, 73, 72
13, 42624, Note_on_c, 12, 72, 76
13, 42624, Note_on_c, 12, 75, 44
13, 42624, Note_on_c, 12, 80, 62
13, 43007, Note_off_c, 12, 80, 62
13, 43007, Note_off_c, 12, 75, 44
13, 43007, Note_off_c, 12, 72, 76
13, 43008, Note_on_c, 12, 71, 78
13, 43008, Note_on_c, 12, 75, 72
13, 43008, Note_on_c, 12, 78, 72
13, 44351, Note_off_c, 12, 78, 72
13, 44351, Note_off_c, 12, 75, 72
13, 44351, Note_off_c, 12, 71, 78
13, 44352, Note_on_c, 12, 74, 68
13, 44352, Note_on_c, 12, 78, 62
13, 44352, Note_on_c, 12, 82, 64
13, 44543, Note_off_c, 12, 82, 64
13, 44543, Note_off_c, 12, 78, 62
13, 44543, Note_off_c, 12, 74, 68
13, 44544, Note_on_c, 12, 75, 80
13, 44544, Note_on_c, 12, 78, 64
13, 44544, Note_on_c, 12, 82, 64
13, 44927, Note_off_c, 12, 82, 64
13, 44927, Note_off_c, 12, 78, 64
13, 44927, Note_off_c, 12, 75, 80
13, 44928, Note_on_c, 12, 74, 80
13, 44928, Note_on_c, 12, 78, 56
13, 44928, Note_on_c, 12, 82, 62
13, 45311, Note_off_c, 12, 82, 62
13, 45311, Note_off_c, 12, 78, 56
13, 45311, Note_off_c, 12, 74, 80
13, 45312, Note_on_c, 12, 73, 74
13, 45312, Note_on_c, 12, 78, 66
13, 45312, Note_on_c, 12, 82, 68
13, 45695, Note_off_c, 12, 82, 68
13, 45695, Note_off_c, 12, 78, 66
13, 45695, Note_off_c, 12, 73, 74
13, 45696, Note_on_c, 12, 72, 78
13, 45696, Note_on_c, 12, 75, 58
13, 45696, Note_on_c, 12, 80, 62
13, 46079, Note_off_c, 12, 80, 62
13, 46079, Note_off_c, 12, 75, 58
13, 46079, Note_off_c, 12, 72, 78
13, 46080, Note_on_c, 12, 71, 80
13, 46080, Note_on_c, 12, 75, 70
13, 46080, Note_on_c, 12, 78, 64
13, 47423, Note_off_c, 12, 78, 64
13, 47423, Note_off_c, 12, 75, 70
13, 47423, Note_off_c, 12, 71, 80
13, 47424, Note_on_c, 12, 74, 74
13, 47424, Note_on_c, 12, 78, 72
13, 47424, Note_on_c, 12, 82, 72
13, 47615, Note_off_c, 12, 82, 72
13, 47615, Note_off_c, 12, 78, 72
13, 47615, Note_off_c, 12, 74, 74
13, 47616, Note_on_c, 12, 75, 81
13, 47616, Note_on_c, 12, 78, 81
13, 47616, Note_on_c, 12, 82, 81
13, 47755, Note_off_c, 12, 75, 81
13, 47760, Note_off_c, 12, 78, 81
13, 47761, Note_off_c, 12, 82, 81
13, 47808, Note_on_c, 12, 75, 81
13, 47808, Note_on_c, 12, 78, 81
13, 47808, Note_on_c, 12, 82, 81
13, 47925, Note_off_c, 12, 75, 81
13, 47928, Note_off_c, 12, 82, 81
13, 47930, Note_off_c, 12, 78, 81
13, 47952, Note_on_c, 12, 74, 81
13, 47952, Note_on_c, 12, 78, 81
13, 47952, Note_on_c, 12, 82, 81
13, 48120, Note_off_c, 12, 74, 81
13, 48126, Note_off_c, 12, 82, 81
13, 48130, Note_off_c, 12, 78, 81
13, 48144, Note_on_c, 12, 74, 81
13, 48144, Note_on_c, 12, 78, 81
13, 48144, Note_on_c, 12, 82, 81
13, 48252, Note_off_c, 12, 74, 81
13, 48253, Note_off_c, 12, 82, 81
13, 48258, Note_off_c, 12, 78, 81
13, 48288, Note_on_c, 12, 74, 81
13, 48288, Note_on_c, 12, 78, 81
13, 48288, Note_on_c, 12, 82, 81
13, 48351, Note_off_c, 12, 74, 81
13, 48356, Note_off_c, 12, 78, 81
13, 48358, Note_off_c, 12, 82, 81
13, 48384, Note_on_c, 12, 73, 81
13, 48384, Note_on_c, 12, 78, 81
13, 48384, Note_on_c, 12, 82, 81
13, 48525, Note_off_c, 12, 73, 81
13, 48529, Note_off_c, 12, 82, 81
13, 48531, Note_off_c, 12, 78, 81
13, 48576, Note_on_c, 12, 73, 81
13, 48576, Note_on_c, 12, 78, 81
13, 48576, Note_on_c, 12, 82, 81
13, 48720, Note_off_c, 12, 82, 81
13, 48724, Note_off_c, 12, 73, 81
13, 48728, Note_off_c, 12, 78, 81
13, 48768, Note_on_c, 12, 72, 81
13, 48768, Note_on_c, 12, 75, 81
13, 48768, Note_on_c, 12, 80, 81
13, 48894, Note_off_c, 12, 80, 81
13, 48894, Note_off_c, 12, 72, 81
13, 48900, Note_off_c, 12, 75, 81
13, 48912, Note_on_c, 12, 72, 81
13, 48912, Note_on_c, 12, 75, 81
13, 48912, Note_on_c, 12, 80, 81
13, 49016, Note_off_c, 12, 72, 81
13, 49025, Note_off_c, 12, 75, 81
13, 49026, Note_off_c, 12, 80, 81
13, 49056, Note_on_c, 12, 72, 81
13, 49056, Note_on_c, 12, 75, 81
13, 49056, Note_on_c, 12, 80, 81
13, 49106, Note_off_c, 12, 72, 81
13, 49110, Note_off_c, 12, 75, 81
13, 49121, Note_off_c, 12, 80, 81
13, 49152, Note_on_c, 12, 66, 81
13, 49152, Note_on_c, 12, 71, 81
13, 49152, Note_on_c, 12, 76, 81
13, 49318, Note_off_c, 12, 76, 81
13, 49323, Note_off_c, 12, 66, 81
13, 49329, Note_off_c, 12, 71, 81
13, 49344, Note_on_c, 12, 66, 81
13, 49344, Note_on_c, 12, 71, 81
13, 49344, Note_on_c, 12, 76, 81
13, 49497, Note_off_c, 12, 76, 81
13, 49505, Note_off_c, 12, 66, 81
13, 49510, Note_off_c, 12, 71, 81
13, 49536, Note_on_c, 12, 66, 81
13, 49536, Note_on_c, 12, 71, 81
13, 49536, Note_on_c, 12, 76, 81
13, 49656, Note_off_c, 12, 76, 81
13, 49662, Note_off_c, 12, 66, 81
13, 49664, Note_off_c, 12, 71, 81
13, 49680, Note_on_c, 12, 66, 81
13, 49680, Note_on_c, 12, 71, 81
13, 49680, Note_on_c, 12, 76, 81
13, 49783, Note_off_c, 12, 76, 81
13, 49790, Note_off_c, 12, 66, 81
13, 49800, Note_off_c, 12, 71, 81
13, 49824, Note_on_c, 12, 66, 81
13, 49824, Note_on_c, 12, 71, 81
13, 49824, Note_on_c, 12, 76, 81
13, 49893, Note_off_c, 12, 66, 81
13, 49905, Note_off_c, 12, 71, 81
13, 49910, Note_off_c, 12, 76, 81
13, 50016, Note_on_c, 12, 66, 81
13, 50016, Note_on_c, 12, 70, 81
13, 50016, Note_on_c, 12, 75, 81
13, 50044, Note_off_c, 12, 66, 81
13, 50048, Note_off_c, 12, 70, 81
13, 50053, Note_off_c, 12, 75, 81
13, 50160, Note_on_c, 12, 66, 81
13, 50160, Note_on_c, 12, 70, 81
13, 50160, Note_on_c, 12, 75, 81
13, 50188, Note_off_c, 12, 70, 81
13, 50188, Note_off_c, 12, 66, 81
13, 50197, Note_off_c, 12, 75, 81
13, 50304, Note_on_c, 12, 66, 81
13, 50304, Note_on_c, 12, 70, 81
13, 50304, Note_on_c, 12, 75, 81
13, 50332, Note_off_c, 12, 66, 81
13, 50336, Note_off_c, 12, 70, 81
13, 50341, Note_off_c, 12, 75, 81
13, 50448, Note_on_c, 12, 66, 81
13, 50448, Note_on_c, 12, 70, 81
13, 50448, Note_on_c, 12, 75, 81
13, 50476, Note_off_c, 12, 70, 81
13, 50476, Note_off_c, 12, 66, 81
13, 50485, Note_off_c, 12, 75, 81
13, 50592, Note_on_c, 12, 66, 81
13, 50592, Note_on_c, 12, 70, 81
13, 50592, Note_on_c, 12, 75, 81
13, 50620, Note_off_c, 12, 70, 81
13, 50620, Note_off_c, 12, 66, 81
13, 50629, Note_off_c, 12, 75, 81
13, 75264, Note_on_c, 12, 75, 76
13, 75264, Note_on_c, 12, 78, 68
13, 75264, Note_on_c, 12, 82, 60
13, 75647, Note_off_c, 12, 82, 60
13, 75647, Note_off_c, 12, 78, 68
13, 75647, Note_off_c, 12, 75, 76
13, 75648, Note_on_c, 12, 74, 74
13, 75648, Note_on_c, 12, 78, 62
13, 75648, Note_on_c, 12, 82, 68
13, 76031, Note_off_c, 12, 82, 68
13, 76031, Note_off_c, 12, 78, 62
13, 76031, Note_off_c, 12, 74, 74
13, 76032, Note_on_c, 12, 73, 72
13, 76032, Note_on_c, 12, 78, 52
13, 76032, Note_on_c, 12, 82, 50
13, 76415, Note_off_c, 12, 82, 50
13, 76415, Note_off_c, 12, 78, 52
13, 76415, Note_off_c, 12, 73, 72
13, 76416, Note_on_c, 12, 72, 76
13, 76416, Note_on_c, 12, 75, 44
13, 76416, Note_on_c, 12, 80, 62
13, 76799, Note_off_c, 12, 80, 62
13, 76799, Note_off_c, 12, 75, 44
13, 76799, Note_off_c, 12, 72, 76
13, 76800, Note_on_c, 12, 71, 78
13, 76800, Note_on_c, 12, 75, 72
13, 76800, Note_on_c, 12, 78, 72
13, 78143, Note_off_c, 12, 78, 72
13, 78143, Note_off_c, 12, 75, 72
13, 78143, Note_off_c, 12, 71, 78
13, 78144, Note_on_c, 12, 74, 68
13, 78144, Note_on_c, 12, 78, 62
13, 78144, Note_on_c, 12, 82, 64
13, 78335, Note_off_c, 12, 82, 64
13, 78335, Note_off_c, 12, 78, 62
13, 78335, Note_off_c, 12, 74, 68
13, 78336, Note_on_c, 12, 75, 80
13, 78336, Note_on_c, 12, 78, 64
13, 78336, Note_on_c, 12, 82, 64
13, 78719, Note_off_c, 12, 82, 64
13, 78719, Note_off_c, 12, 78, 64
13, 78719, Note_off_c, 12, 75, 80
13, 78720, Note_on_c, 12, 74, 80
13, 78720, Note_on_c, 12, 78, 56
13, 78720, Note_on_c, 12, 82, 62
13, 79103, Note_off_c, 12, 82, 62
13, 79103, Note_off_c, 12, 78, 56
13, 79103, Note_off_c, 12, 74, 80
13, 79104, Note_on_c, 12, 73, 74
13, 79104, Note_on_c, 12, 78, 66
13, 79104, Note_on_c, 12, 82, 68
13, 79487, Note_off_c, 12, 82, 68
13, 79487, Note_off_c, 12, 78, 66
13, 79487, Note_off_c, 12, 73, 74
13, 79488, Note_on_c, 12, 72, 78
13, 79488, Note_on_c, 12, 75, 58
13, 79488, Note_on_c, 12, 80, 62
13, 79871, Note_off_c, 12, 80, 62
13, 79871, Note_off_c, 12, 75, 58
13, 79871, Note_off_c, 12, 72, 78
13, 79872, Note_on_c, 12, 71, 80
13, 79872, Note_on_c, 12, 75, 70
13, 79872, Note_on_c, 12, 78, 64
13, 81215, Note_off_c, 12, 78, 64
13, 81215, Note_off_c, 12, 75, 70
13, 81215, Note_off_c, 12, 71, 80
13, 81216, Note_on_c, 12, 74, 74
13, 81216, Note_on_c, 12, 78, 72
13, 81216, Note_on_c, 12, 82, 72
13, 81407, Note_off_c, 12, 82, 72
13, 81407, Note_off_c, 12, 78, 72
13, 81407, Note_off_c, 12, 74, 74
13, 81408, Note_on_c, 12, 75, 76
13, 81408, Note_on_c, 12, 78, 68
13, 81408, Note_on_c, 12, 82, 60
13, 81791, Note_off_c, 12, 82, 60
13, 81791, Note_off_c, 12, 78, 68
13, 81791, Note_off_c, 12, 75, 76
13, 81792, Note_on_c, 12, 74, 74
13, 81792, Note_on_c, 12, 78, 62
13, 81792, Note_on_c, 12, 82, 68
13, 82175, Note_off_c, 12, 82, 68
13, 82175, Note_off_c, 12, 78, 62
13, 82175, Note_off_c, 12, 74, 74
13, 82176, Note_on_c, 12, 73, 72
13, 82176, Note_on_c, 12, 78, 52
13, 82176, Note_on_c, 12, 82, 50
13, 82559, Note_off_c, 12, 82, 50
13, 82559, Note_off_c, 12, 78, 52
13, 82559, Note_off_c, 12, 73, 72
13, 82560, Note_on_c, 12, 72, 76
13, 82560, Note_on_c, 12, 75, 44
13, 82560, Note_on_c, 12, 80, 62
13, 82943, Note_off_c, 12, 80, 62
13, 82943, Note_off_c, 12, 75, 44
13, 82943, Note_off_c, 12, 72, 76
13, 82944, Note_on_c, 12, 71, 78
13, 82944, Note_on_c, 12, 75, 72
13, 82944, Note_on_c, 12, 78, 72
13, 84287, Note_off_c, 12, 78, 72
13, 84287, Note_off_c, 12, 75, 72
13, 84287, Note_off_c, 12, 71, 78
13, 84288, Note_on_c, 12, 74, 68
13, 84288, Note_on_c, 12, 78, 62
13, 84288, Note_on_c, 12, 82, 64
13, 84479, Note_off_c, 12, 82, 64
13, 84479, Note_off_c, 12, 78, 62
13, 84479, Note_off_c, 12, 74, 68
13, 84480, Note_on_c, 12, 75, 80
13, 84480, Note_on_c, 12, 78, 64
13, 84480, Note_on_c, 12, 82, 64
13, 84863, Note_off_c, 12, 82, 64
13, 84863, Note_off_c, 12, 78, 64
13, 84863, Note_off_c, 12, 75, 80
13, 84864, Note_on_c, 12, 74, 80
13, 84864, Note_on_c, 12, 78, 56
13, 84864, Note_on_c, 12, 82, 62
13, 85247, Note_off_c, 12, 82, 62
13, 85247, Note_off_c, 12, 78, 56
13, 85247, Note_off_c, 12, 74, 80
13, 85248, Note_on_c, 12, 73, 74
13, 85248, Note_on_c, 12, 78, 66
13, 85248, Note_on_c, 12, 82, 68
13, 85631, Note_off_c, 12, 82, 68
13, 85631, Note_off_c, 12, 78, 66
13, 85631, Note_off_c, 12, 73, 74
13, 85632, Note_on_c, 12, 72, 78
13, 85632, Note_on_c, 12, 75, 58
13, 85632, Note_on_c, 12, 80, 62
13, 86015, Note_off_c, 12, 80, 62
13, 86015, Note_off_c, 12, 75, 58
13, 86015, Note_off_c, 12, 72, 78
13, 86016, Note_on_c, 12, 71, 80
13, 86016, Note_on_c, 12, 75, 70
13, 86016, Note_on_c, 12, 78, 64
13, 87359, Note_off_c, 12, 78, 64
13, 87359, Note_off_c, 12, 75, 70
13, 87359, Note_off_c, 12, 71, 80
13, 87360, Note_on_c, 12, 74, 74
13, 87360, Note_on_c, 12, 78, 72
13, 87360, Note_on_c, 12, 82, 72
13, 87407, Note_off_c, 12, 82, 72
13, 87407, Note_off_c, 12, 78, 72
13, 87407, Note_off_c, 12, 74, 74
13, 87408, Note_on_c, 12, 74, 74
13, 87408, Note_on_c, 12, 78, 72
13, 87408, Note_on_c, 12, 82, 72
13, 87503, Note_off_c, 12, 82, 72
13, 87503, Note_off_c, 12, 78, 72
13, 87503, Note_off_c, 12, 74, 74
13, 87503, End_track
0, 0, End_of_file
