0, 0, Header, 0, 1, 384
1, 0, Start_track
1, 0, Title_t, "Don'tDrea"
1, 0, Time_signature, 4, 2, 24, 8
1, 0, Tempo, 652164
1, 0, System_exclusive, 5, 126, 127, 9, 1, 247
1, 412, Program_c, 1, 32
1, 416, Control_c, 1, 7, 100
1, 416, Control_c, 1, 10, 60
1, 416, Control_c, 1, 11, 127
1, 420, Control_c, 1, 91, 35
1, 420, Control_c, 1, 93, 0
1, 432, Program_c, 2, 0
1, 436, Control_c, 2, 7, 120
1, 436, Control_c, 2, 10, 60
1, 436, Control_c, 2, 11, 127
1, 440, Control_c, 2, 91, 65
1, 440, Control_c, 2, 93, 0
1, 452, Program_c, 3, 0
1, 456, Control_c, 3, 7, 120
1, 456, Control_c, 3, 10, 69
1, 456, Control_c, 3, 11, 127
1, 460, Control_c, 3, 91, 70
1, 460, Control_c, 3, 93, 0
1, 472, Program_c, 4, 56
1, 476, Control_c, 4, 7, 60
1, 476, Control_c, 4, 10, 30
1, 476, Control_c, 4, 11, 127
1, 480, Control_c, 4, 91, 87
1, 480, Control_c, 4, 93, 0
1, 492, Program_c, 5, 65
1, 496, Control_c, 5, 7, 65
1, 496, Control_c, 5, 10, 73
1, 496, Control_c, 5, 11, 127
1, 500, Control_c, 5, 91, 87
1, 500, Control_c, 5, 93, 0
1, 512, Program_c, 6, 57
1, 516, Control_c, 6, 7, 60
1, 516, Control_c, 6, 10, 94
1, 516, Control_c, 6, 11, 127
1, 520, Control_c, 6, 91, 91
1, 520, Control_c, 6, 93, 0
1, 532, Program_c, 7, 61
1, 536, Control_c, 7, 7, 77
1, 536, Control_c, 7, 10, 53
1, 536, Control_c, 7, 11, 127
1, 540, Control_c, 7, 91, 100
1, 540, Control_c, 7, 93, 0
1, 552, Program_c, 8, 26
1, 556, Control_c, 8, 7, 60
1, 556, Control_c, 8, 10, 75
1, 556, Control_c, 8, 11, 127
1, 560, Control_c, 8, 91, 77
1, 560, Control_c, 8, 93, 0
1, 576, Control_c, 9, 7, 90
1, 576, Control_c, 9, 11, 127
1, 580, Control_c, 9, 91, 85
1, 580, Control_c, 9, 93, 0
1, 1536, Time_signature, 4, 2, 24, 8
1, 3072, Note_on_c, 9, 35, 86
1, 3072, Note_on_c, 9, 46, 77
1, 3076, Note_on_c, 1, 38, 98
1, 3076, Note_on_c, 2, 50, 71
1, 3076, Note_on_c, 2, 60, 67
1, 3076, Note_on_c, 2, 55, 70
1, 3088, Note_off_c, 9, 46, 64
1, 3088, Note_off_c, 9, 35, 64
1, 3324, Note_on_c, 3, 81, 113
1, 3324, Note_on_c, 3, 69, 109
1, 3324, Note_on_c, 4, 64, 91
1, 3324, Note_on_c, 4, 69, 98
1, 3332, Note_on_c, 6, 60, 106
1, 3332, Note_on_c, 6, 55, 97
1, 3376, Control_c, 2, 64, 127
1, 3376, Control_c, 3, 64, 127
1, 3456, Note_on_c, 9, 42, 93
1, 3472, Note_off_c, 9, 42, 64
1, 3496, Note_off_c, 2, 50, 64
1, 3520, Note_off_c, 3, 81, 64
1, 3524, Note_off_c, 2, 55, 64
1, 3548, Note_off_c, 1, 38, 64
1, 3552, Note_off_c, 2, 60, 64
1, 3572, Note_off_c, 3, 69, 64
1, 3656, Note_off_c, 6, 60, 64
1, 3656, Note_off_c, 4, 64, 64
1, 3668, Note_off_c, 6, 55, 64
1, 3676, Note_off_c, 4, 69, 64
1, 3712, Note_on_c, 1, 38, 79
1, 3720, Note_on_c, 9, 42, 71
1, 3736, Note_off_c, 9, 42, 64
1, 3804, Note_off_c, 1, 38, 64
1, 3824, Control_c, 2, 64, 0
1, 3824, Control_c, 3, 64, 0
1, 3840, Note_on_c, 9, 46, 60
1, 3844, Note_on_c, 1, 48, 96
1, 3844, Note_on_c, 2, 50, 55
1, 3844, Note_on_c, 2, 60, 68
1, 3844, Note_on_c, 2, 54, 61
1, 3844, Note_on_c, 3, 76, 94
1, 3844, Note_on_c, 4, 64, 82
1, 3844, Note_on_c, 4, 72, 95
1, 3844, Note_on_c, 6, 54, 82
1, 3844, Note_on_c, 6, 57, 96
1, 3856, Note_off_c, 9, 46, 64
1, 3892, Note_off_c, 2, 54, 64
1, 3904, Note_off_c, 2, 50, 64
1, 3908, Note_off_c, 2, 60, 64
1, 3920, Note_off_c, 3, 76, 64
1, 3944, Note_off_c, 6, 54, 64
1, 3948, Note_off_c, 6, 57, 64
1, 3948, Note_off_c, 4, 64, 64
1, 3980, Note_off_c, 4, 72, 64
1, 4000, Note_off_c, 1, 48, 64
1, 4224, Note_on_c, 9, 42, 79
1, 4228, Note_on_c, 1, 47, 96
1, 4228, Note_on_c, 2, 60, 65
1, 4228, Note_on_c, 2, 50, 59
1, 4228, Note_on_c, 2, 54, 68
1, 4228, Note_on_c, 3, 74, 100
1, 4228, Note_on_c, 4, 64, 83
1, 4228, Note_on_c, 4, 74, 93
1, 4228, Note_on_c, 6, 54, 82
1, 4228, Note_on_c, 6, 60, 90
1, 4240, Note_off_c, 9, 42, 64
1, 4284, Note_off_c, 2, 54, 64
1, 4284, Note_off_c, 2, 50, 64
1, 4300, Note_off_c, 3, 74, 64
1, 4304, Note_off_c, 2, 60, 64
1, 4332, Note_off_c, 6, 54, 64
1, 4344, Note_off_c, 4, 64, 64
1, 4352, Note_off_c, 1, 47, 64
1, 4380, Note_off_c, 6, 60, 64
1, 4380, Note_off_c, 4, 74, 64
1, 4488, Note_on_c, 9, 42, 67
1, 4504, Note_off_c, 9, 42, 64
1, 4608, Note_on_c, 1, 46, 101
1, 4608, Note_on_c, 9, 46, 75
1, 4612, Note_on_c, 2, 62, 80
1, 4612, Note_on_c, 2, 67, 65
1, 4612, Note_on_c, 2, 56, 72
1, 4612, Note_on_c, 3, 72, 100
1, 4612, Note_on_c, 4, 67, 93
1, 4612, Note_on_c, 4, 72, 98
1, 4612, Note_on_c, 6, 56, 93
1, 4612, Note_on_c, 6, 62, 93
1, 4624, Note_off_c, 9, 46, 64
1, 4668, Note_off_c, 2, 62, 64
1, 4680, Note_off_c, 2, 67, 64
1, 4688, Note_off_c, 2, 56, 64
1, 4700, Note_off_c, 3, 72, 64
1, 4724, Note_off_c, 6, 56, 64
1, 4732, Note_off_c, 4, 67, 64
1, 4744, Note_off_c, 6, 62, 64
1, 4744, Note_off_c, 4, 72, 64
1, 4780, Note_off_c, 1, 46, 64
1, 4988, Note_on_c, 6, 55, 71
1, 4988, Note_on_c, 6, 61, 94
1, 4996, Note_on_c, 1, 45, 101
1, 4996, Note_on_c, 2, 66, 68
1, 4996, Note_on_c, 2, 61, 75
1, 4996, Note_on_c, 2, 55, 75
1, 4996, Note_on_c, 3, 69, 90
1, 4996, Note_on_c, 4, 64, 85
1, 4996, Note_on_c, 4, 69, 96
1, 4996, Note_on_c, 9, 42, 79
1, 5012, Note_off_c, 9, 42, 64
1, 5052, Note_off_c, 2, 61, 64
1, 5060, Note_off_c, 2, 55, 64
1, 5064, Note_off_c, 2, 66, 64
1, 5092, Note_off_c, 3, 69, 64
1, 5108, Note_off_c, 4, 64, 64
1, 5112, Note_off_c, 6, 55, 64
1, 5120, Note_off_c, 4, 69, 64
1, 5132, Note_off_c, 6, 61, 64
1, 5140, Note_off_c, 1, 45, 64
1, 5256, Note_on_c, 9, 42, 71
1, 5272, Note_off_c, 9, 42, 64
1, 5372, Note_on_c, 6, 54, 76
1, 5376, Note_on_c, 2, 54, 66
1, 5376, Note_on_c, 2, 60, 79
1, 5376, Note_on_c, 2, 65, 47
1, 5376, Note_on_c, 3, 72, 97
1, 5376, Note_on_c, 9, 46, 69
1, 5380, Note_on_c, 1, 44, 110
1, 5380, Note_on_c, 4, 68, 97
1, 5380, Note_on_c, 4, 72, 95
1, 5380, Note_on_c, 6, 65, 91
1, 5380, Note_on_c, 6, 60, 97
1, 5392, Note_off_c, 9, 46, 64
1, 5428, Note_off_c, 2, 65, 64
1, 5436, Note_off_c, 2, 60, 64
1, 5440, Note_off_c, 2, 54, 64
1, 5444, Note_off_c, 3, 72, 64
1, 5472, Note_off_c, 4, 68, 64
1, 5504, Note_off_c, 4, 72, 64
1, 5516, Note_off_c, 1, 44, 64
1, 5524, Note_off_c, 6, 65, 64
1, 5524, Note_off_c, 6, 54, 64
1, 5532, Note_off_c, 6, 60, 64
1, 5628, Note_on_c, 2, 53, 63
1, 5628, Note_on_c, 2, 59, 80
1, 5628, Note_on_c, 2, 64, 62
1, 5628, Note_on_c, 3, 74, 102
1, 5628, Note_on_c, 6, 53, 82
1, 5628, Note_on_c, 6, 64, 95
1, 5632, Note_on_c, 1, 43, 95
1, 5632, Note_on_c, 6, 59, 93
1, 5636, Note_on_c, 4, 74, 95
1, 5636, Note_on_c, 4, 69, 95
1, 5640, Note_on_c, 9, 35, 71
1, 5656, Note_off_c, 9, 35, 64
1, 5688, Note_off_c, 2, 53, 64
1, 5692, Note_off_c, 2, 59, 64
1, 5704, Note_off_c, 4, 69, 64
1, 5704, Note_off_c, 2, 64, 64
1, 5708, Note_off_c, 3, 74, 64
1, 5724, Note_off_c, 6, 59, 64
1, 5728, Note_off_c, 4, 74, 64
1, 5728, Note_off_c, 6, 64, 64
1, 5736, Note_off_c, 1, 43, 64
1, 5748, Note_off_c, 6, 53, 64
1, 5760, Note_on_c, 9, 40, 59
1, 5760, Note_on_c, 9, 42, 84
1, 5776, Note_off_c, 9, 42, 64
1, 5776, Note_off_c, 9, 40, 64
1, 5888, Note_on_c, 9, 50, 48
1, 5904, Note_off_c, 9, 50, 64
1, 6012, Note_on_c, 2, 52, 67
1, 6012, Note_on_c, 2, 62, 77
1, 6012, Note_on_c, 2, 57, 70
1, 6012, Note_on_c, 3, 76, 108
1, 6012, Note_on_c, 4, 67, 80
1, 6012, Note_on_c, 4, 76, 104
1, 6012, Note_on_c, 6, 52, 88
1, 6012, Note_on_c, 6, 62, 84
1, 6012, Note_on_c, 6, 57, 70
1, 6016, Note_on_c, 1, 36, 98
1, 6016, Note_on_c, 9, 51, 88
1, 6024, Note_on_c, 9, 35, 94
1, 6032, Note_off_c, 9, 51, 64
1, 6040, Note_off_c, 9, 35, 64
1, 6444, Control_c, 2, 64, 127
1, 6444, Control_c, 3, 64, 127
1, 6532, Note_on_c, 9, 42, 71
1, 6548, Note_off_c, 9, 42, 64
1, 6552, Note_off_c, 1, 36, 64
1, 6572, Note_off_c, 2, 52, 64
1, 6592, Note_off_c, 2, 57, 64
1, 6600, Note_off_c, 2, 62, 64
1, 6744, Note_off_c, 6, 57, 64
1, 6760, Note_off_c, 6, 62, 64
1, 6760, Note_off_c, 6, 52, 64
1, 6772, Note_off_c, 4, 67, 64
1, 6784, Note_on_c, 1, 36, 66
1, 6788, Note_off_c, 4, 76, 64
1, 6792, Note_on_c, 9, 42, 63
1, 6808, Note_off_c, 9, 42, 64
1, 6860, Note_off_c, 1, 36, 64
1, 6908, Note_on_c, 2, 62, 59
1, 6908, Note_on_c, 2, 52, 50
1, 6908, Note_on_c, 2, 57, 44
1, 6908, Note_on_c, 4, 76, 101
1, 6908, Note_on_c, 4, 67, 90
1, 6908, Note_on_c, 6, 62, 89
1, 6908, Note_on_c, 6, 57, 80
1, 6908, Note_on_c, 6, 52, 91
1, 6912, Note_on_c, 1, 43, 100
1, 6912, Note_on_c, 9, 46, 70
1, 6920, Control_c, 2, 64, 0
1, 6920, Control_c, 3, 64, 0
1, 6928, Note_off_c, 9, 46, 64
1, 7072, Note_off_c, 6, 52, 64
1, 7080, Note_off_c, 6, 57, 64
1, 7080, Note_off_c, 6, 62, 64
1, 7084, Note_off_c, 4, 67, 64
1, 7100, Note_off_c, 4, 76, 64
1, 7160, Note_on_c, 6, 52, 89
1, 7160, Note_on_c, 6, 57, 96
1, 7164, Note_on_c, 4, 67, 93
1, 7164, Note_on_c, 4, 76, 101
1, 7164, Note_on_c, 6, 62, 101
1, 7212, Note_off_c, 4, 67, 64
1, 7216, Note_off_c, 6, 57, 64
1, 7216, Control_c, 2, 64, 127
1, 7216, Control_c, 3, 64, 127
1, 7220, Note_off_c, 6, 62, 64
1, 7224, Note_off_c, 4, 76, 64
1, 7236, Note_off_c, 6, 52, 64
1, 7248, Note_off_c, 2, 52, 64
1, 7276, Note_off_c, 2, 57, 64
1, 7296, Note_off_c, 2, 62, 64
1, 7300, Note_on_c, 9, 42, 85
1, 7316, Note_off_c, 9, 42, 64
1, 7364, Note_off_c, 3, 76, 64
1, 7380, Note_off_c, 1, 43, 64
1, 7552, Note_on_c, 1, 39, 89
1, 7560, Note_on_c, 9, 35, 39
1, 7560, Note_on_c, 9, 42, 56
1, 7576, Note_off_c, 9, 42, 64
1, 7576, Note_off_c, 9, 35, 64
1, 7604, Note_off_c, 1, 39, 64
1, 7680, Note_on_c, 1, 40, 100
1, 7680, Note_on_c, 2, 56, 55
1, 7680, Note_on_c, 2, 52, 49
1, 7680, Note_on_c, 2, 62, 61
1, 7680, Note_on_c, 3, 76, 92
1, 7680, Note_on_c, 9, 35, 65
1, 7680, Note_on_c, 9, 46, 61
1, 7684, Control_c, 2, 64, 0
1, 7684, Control_c, 3, 64, 0
1, 7696, Note_off_c, 9, 46, 64
1, 7696, Note_off_c, 9, 35, 64
1, 7924, Pitch_bend_c, 5, 3456
1, 7932, Note_on_c, 5, 62, 93
1, 7932, Note_on_c, 5, 56, 88
1, 7940, Note_on_c, 5, 52, 47
1, 7968, Control_c, 2, 64, 127
1, 7968, Control_c, 3, 64, 127
1, 8000, Pitch_bend_c, 5, 2688
1, 8004, Pitch_bend_c, 5, 2752
1, 8024, Pitch_bend_c, 5, 3136
1, 8028, Pitch_bend_c, 5, 3264
1, 8032, Pitch_bend_c, 5, 3456
1, 8040, Note_off_c, 2, 52, 64
1, 8044, Pitch_bend_c, 5, 3840
1, 8052, Pitch_bend_c, 5, 3968
1, 8056, Note_off_c, 2, 62, 64
1, 8056, Pitch_bend_c, 5, 4160
1, 8068, Pitch_bend_c, 5, 4480
1, 8068, Note_on_c, 9, 42, 80
1, 8076, Pitch_bend_c, 5, 4800
1, 8080, Pitch_bend_c, 5, 4992
1, 8084, Note_off_c, 9, 42, 64
1, 8084, Note_off_c, 2, 56, 64
1, 8092, Pitch_bend_c, 5, 5312
1, 8100, Pitch_bend_c, 5, 5504
1, 8104, Pitch_bend_c, 5, 5696
1, 8116, Pitch_bend_c, 5, 6144
1, 8120, Pitch_bend_c, 5, 6528
1, 8128, Note_off_c, 1, 40, 64
1, 8128, Pitch_bend_c, 5, 6720
1, 8140, Pitch_bend_c, 5, 7104
1, 8144, Pitch_bend_c, 5, 7168
1, 8152, Pitch_bend_c, 5, 7424
1, 8164, Pitch_bend_c, 5, 7872
1, 8168, Pitch_bend_c, 5, 8192
1, 8316, Note_off_c, 5, 52, 64
1, 8316, Note_on_c, 1, 35, 66
1, 8328, Note_on_c, 9, 42, 57
1, 8344, Note_off_c, 9, 42, 64
1, 8384, Note_off_c, 5, 62, 64
1, 8404, Note_off_c, 5, 56, 64
1, 8408, Note_off_c, 1, 35, 64
1, 8432, Control_c, 2, 64, 0
1, 8432, Control_c, 3, 64, 0
1, 8436, Note_off_c, 3, 76, 64
1, 8444, Note_on_c, 1, 39, 82
1, 8444, Note_on_c, 2, 51, 65
1, 8444, Note_on_c, 2, 55, 74
1, 8444, Note_on_c, 2, 61, 67
1, 8448, Note_on_c, 9, 46, 61
1, 8452, Note_on_c, 5, 61, 92
1, 8452, Note_on_c, 5, 55, 69
1, 8452, Note_on_c, 5, 51, 76
1, 8464, Note_off_c, 9, 46, 64
1, 8572, Note_off_c, 5, 55, 64
1, 8572, Note_off_c, 5, 61, 64
1, 8576, Note_off_c, 5, 51, 64
1, 8732, Control_c, 2, 64, 127
1, 8732, Control_c, 3, 64, 127
1, 8792, Note_off_c, 2, 55, 64
1, 8816, Note_off_c, 1, 39, 64
1, 8828, Note_on_c, 5, 55, 73
1, 8828, Note_on_c, 5, 61, 88
1, 8832, Note_on_c, 1, 37, 90
1, 8832, Note_on_c, 5, 51, 72
1, 8832, Note_on_c, 9, 42, 79
1, 8840, Note_off_c, 2, 51, 64
1, 8848, Note_off_c, 9, 42, 64
1, 8864, Note_off_c, 2, 61, 64
1, 8952, Note_off_c, 5, 51, 64
1, 8960, Note_on_c, 9, 47, 28
1, 8976, Note_off_c, 9, 47, 64
1, 8980, Note_off_c, 5, 55, 64
1, 8992, Note_off_c, 5, 61, 64
1, 9084, Note_on_c, 9, 47, 75
1, 9096, Note_on_c, 9, 42, 61
1, 9100, Note_off_c, 9, 47, 64
1, 9112, Note_off_c, 9, 42, 64
1, 9168, Control_c, 2, 64, 0
1, 9168, Control_c, 3, 64, 0
1, 9192, Note_off_c, 1, 37, 64
1, 9216, Note_on_c, 1, 38, 75
1, 9216, Note_on_c, 2, 60, 78
1, 9216, Note_on_c, 2, 50, 87
1, 9216, Note_on_c, 2, 55, 68
1, 9216, Note_on_c, 9, 35, 72
1, 9220, Note_on_c, 5, 50, 74
1, 9220, Note_on_c, 5, 60, 93
1, 9220, Note_on_c, 5, 55, 77
1, 9232, Note_off_c, 9, 35, 64
1, 9272, Note_off_c, 1, 38, 64
1, 9328, Note_off_c, 5, 60, 64
1, 9336, Note_off_c, 5, 55, 64
1, 9340, Note_off_c, 5, 50, 64
1, 9440, Control_c, 2, 64, 127
1, 9440, Control_c, 3, 64, 127
1, 9468, Note_on_c, 3, 69, 100
1, 9468, Note_on_c, 3, 81, 109
1, 9468, Note_on_c, 6, 55, 91
1, 9468, Note_on_c, 6, 60, 98
1, 9468, Note_on_c, 9, 55, 105
1, 9472, Note_on_c, 1, 50, 115
1, 9476, Note_on_c, 4, 69, 101
1, 9476, Note_on_c, 4, 64, 83
1, 9484, Note_off_c, 9, 55, 64
1, 9600, Note_on_c, 9, 42, 80
1, 9616, Note_off_c, 9, 42, 64
1, 9808, Note_off_c, 3, 81, 64
1, 9816, Note_off_c, 2, 55, 64
1, 9816, Note_off_c, 2, 50, 64
1, 9816, Note_off_c, 2, 60, 64
1, 9836, Note_off_c, 4, 64, 64
1, 9844, Note_off_c, 6, 60, 64
1, 9856, Note_off_c, 6, 55, 64
1, 9864, Note_off_c, 4, 69, 64
1, 9864, Note_on_c, 9, 42, 62
1, 9880, Note_off_c, 9, 42, 64
1, 9904, Note_off_c, 1, 50, 64
1, 9948, Control_c, 2, 64, 0
1, 9948, Control_c, 3, 64, 0
1, 9980, Note_on_c, 2, 50, 49
1, 9980, Note_on_c, 2, 54, 57
1, 9980, Note_on_c, 2, 60, 63
1, 9980, Note_on_c, 3, 76, 73
1, 9988, Note_on_c, 1, 48, 100
1, 9988, Note_on_c, 4, 64, 92
1, 9988, Note_on_c, 4, 72, 107
1, 9988, Note_on_c, 6, 57, 100
1, 9988, Note_on_c, 6, 54, 84
1, 9988, Note_on_c, 9, 46, 69
1, 10004, Note_off_c, 9, 46, 64
1, 10012, Note_off_c, 3, 69, 64
1, 10024, Note_off_c, 2, 50, 64
1, 10028, Note_off_c, 2, 54, 64
1, 10040, Note_off_c, 2, 60, 64
1, 10048, Note_off_c, 1, 48, 64
1, 10052, Note_off_c, 3, 76, 64
1, 10096, Note_off_c, 6, 54, 64
1, 10100, Note_off_c, 6, 57, 64
1, 10116, Note_off_c, 4, 64, 64
1, 10116, Note_on_c, 1, 45, 58
1, 10120, Note_off_c, 4, 72, 64
1, 10176, Note_off_c, 1, 45, 64
1, 10240, Note_on_c, 1, 42, 51
1, 10284, Note_off_c, 1, 42, 64
1, 10364, Note_on_c, 2, 60, 54
1, 10364, Note_on_c, 2, 54, 59
1, 10364, Note_on_c, 2, 50, 41
1, 10364, Note_on_c, 3, 74, 85
1, 10368, Note_on_c, 1, 38, 100
1, 10368, Note_on_c, 4, 74, 101
1, 10368, Note_on_c, 9, 42, 89
1, 10372, Note_on_c, 4, 64, 83
1, 10372, Note_on_c, 6, 54, 86
1, 10372, Note_on_c, 6, 60, 92
1, 10384, Note_off_c, 9, 42, 64
1, 10420, Note_off_c, 2, 54, 64
1, 10428, Note_off_c, 2, 50, 64
1, 10444, Note_off_c, 3, 74, 64
1, 10444, Note_off_c, 2, 60, 64
1, 10488, Note_off_c, 6, 54, 64
1, 10492, Note_off_c, 4, 64, 64
1, 10508, Note_off_c, 6, 60, 64
1, 10512, Note_off_c, 4, 74, 64
1, 10532, Note_off_c, 1, 38, 64
1, 10632, Note_on_c, 9, 42, 63
1, 10648, Note_off_c, 9, 42, 64
1, 10748, Note_on_c, 4, 72, 95
1, 10748, Note_on_c, 4, 64, 83
1, 10752, Note_on_c, 1, 41, 102
1, 10752, Note_on_c, 2, 64, 53
1, 10752, Note_on_c, 3, 72, 92
1, 10752, Note_on_c, 6, 57, 93
1, 10752, Note_on_c, 9, 46, 62
1, 10756, Note_on_c, 2, 57, 62
1, 10756, Note_on_c, 2, 53, 59
1, 10756, Note_on_c, 6, 53, 81
1, 10768, Note_off_c, 9, 46, 64
1, 10828, Note_off_c, 2, 53, 64
1, 10832, Note_off_c, 2, 57, 64
1, 10836, Note_off_c, 2, 64, 64
1, 10844, Note_off_c, 3, 72, 64
1, 10860, Note_off_c, 4, 64, 64
1, 10876, Note_off_c, 6, 57, 64
1, 10888, Note_off_c, 6, 53, 64
1, 10892, Note_off_c, 4, 72, 64
1, 10920, Note_off_c, 1, 41, 64
1, 11132, Note_on_c, 4, 69, 96
1, 11136, Note_on_c, 3, 69, 84
1, 11136, Note_on_c, 9, 42, 89
1, 11140, Note_on_c, 1, 36, 95
1, 11140, Note_on_c, 2, 53, 61
1, 11140, Note_on_c, 2, 57, 68
1, 11140, Note_on_c, 2, 64, 57
1, 11140, Note_on_c, 4, 64, 68
1, 11140, Note_on_c, 6, 60, 102
1, 11140, Note_on_c, 6, 53, 89
1, 11152, Note_off_c, 9, 42, 64
1, 11240, Note_off_c, 2, 57, 64
1, 11244, Note_off_c, 2, 64, 64
1, 11248, Note_off_c, 2, 53, 64
1, 11252, Note_off_c, 3, 69, 64
1, 11264, Note_off_c, 4, 64, 64
1, 11268, Note_off_c, 6, 53, 64
1, 11280, Note_off_c, 4, 69, 64
1, 11284, Note_off_c, 6, 60, 64
1, 11300, Note_off_c, 1, 36, 64
1, 11400, Note_on_c, 9, 42, 61
1, 11416, Note_off_c, 9, 42, 64
1, 11516, Note_on_c, 2, 62, 73
1, 11516, Note_on_c, 2, 55, 72
1, 11516, Note_on_c, 3, 72, 94
1, 11520, Note_on_c, 1, 40, 102
1, 11520, Note_on_c, 2, 52, 66
1, 11520, Note_on_c, 9, 46, 71
1, 11524, Note_on_c, 4, 67, 98
1, 11524, Note_on_c, 4, 72, 97
1, 11524, Note_on_c, 6, 52, 86
1, 11524, Note_on_c, 6, 62, 93
1, 11536, Note_off_c, 9, 46, 64
1, 11592, Note_off_c, 2, 62, 64
1, 11596, Note_off_c, 2, 52, 64
1, 11596, Note_off_c, 2, 55, 64
1, 11616, Note_off_c, 3, 72, 64
1, 11636, Note_off_c, 4, 67, 64
1, 11660, Note_off_c, 4, 72, 64
1, 11684, Note_off_c, 6, 62, 64
1, 11684, Note_off_c, 1, 40, 64
1, 11688, Note_off_c, 6, 52, 64
1, 11772, Note_on_c, 2, 53, 63
1, 11772, Note_on_c, 2, 60, 81
1, 11772, Note_on_c, 2, 50, 71
1, 11772, Note_on_c, 3, 74, 98
1, 11772, Note_on_c, 6, 50, 89
1, 11772, Note_on_c, 6, 60, 97
1, 11776, Note_on_c, 1, 38, 92
1, 11776, Note_on_c, 4, 74, 89
1, 11776, Note_on_c, 4, 65, 83
1, 11780, Note_on_c, 9, 35, 86
1, 11796, Note_off_c, 9, 35, 64
1, 11844, Note_off_c, 4, 65, 64
1, 11860, Note_off_c, 2, 50, 64
1, 11864, Note_off_c, 2, 60, 64
1, 11864, Note_off_c, 2, 53, 64
1, 11876, Note_off_c, 4, 74, 64
1, 11876, Note_off_c, 6, 50, 64
1, 11880, Note_off_c, 3, 74, 64
1, 11884, Note_off_c, 6, 60, 64
1, 11900, Note_off_c, 1, 38, 64
1, 11904, Note_on_c, 9, 42, 62
1, 11920, Note_off_c, 9, 42, 64
1, 12152, Note_on_c, 1, 36, 102
1, 12152, Note_on_c, 6, 48, 77
1, 12156, Note_on_c, 2, 59, 76
1, 12156, Note_on_c, 2, 52, 67
1, 12156, Note_on_c, 2, 48, 63
1, 12156, Note_on_c, 3, 76, 102
1, 12156, Note_on_c, 4, 67, 81
1, 12156, Note_on_c, 4, 76, 102
1, 12156, Note_on_c, 6, 59, 97
1, 12164, Note_on_c, 9, 35, 85
1, 12164, Note_on_c, 9, 46, 70
1, 12180, Note_off_c, 9, 46, 64
1, 12180, Note_off_c, 9, 35, 64
1, 12452, Control_c, 2, 64, 127
1, 12452, Control_c, 3, 64, 127
1, 12672, Note_on_c, 9, 42, 72
1, 12684, Note_off_c, 1, 36, 64
1, 12688, Note_off_c, 9, 42, 64
1, 12732, Note_off_c, 2, 48, 64
1, 12740, Note_off_c, 2, 52, 64
1, 12760, Note_off_c, 2, 59, 64
1, 12928, Note_on_c, 1, 36, 68
1, 12936, Note_on_c, 9, 42, 55
1, 12952, Note_off_c, 9, 42, 64
1, 12968, Note_off_c, 6, 59, 64
1, 12968, Note_off_c, 4, 67, 64
1, 12972, Note_off_c, 6, 48, 64
1, 12992, Note_off_c, 4, 76, 64
1, 13024, Note_off_c, 1, 36, 64
1, 13052, Note_on_c, 2, 48, 46
1, 13052, Note_on_c, 2, 59, 63
1, 13052, Note_on_c, 2, 52, 66
1, 13052, Note_on_c, 6, 48, 82
1, 13056, Note_on_c, 1, 31, 92
1, 13056, Control_c, 2, 64, 0
1, 13056, Control_c, 3, 64, 0
1, 13056, Note_on_c, 6, 59, 101
1, 13056, Note_on_c, 9, 46, 75
1, 13060, Note_on_c, 4, 67, 76
1, 13060, Note_on_c, 4, 76, 89
1, 13072, Note_off_c, 9, 46, 64
1, 13244, Note_off_c, 6, 48, 64
1, 13256, Note_off_c, 6, 59, 64
1, 13260, Note_off_c, 4, 67, 64
1, 13276, Note_off_c, 4, 76, 64
1, 13308, Note_on_c, 4, 67, 101
1, 13308, Note_on_c, 4, 76, 109
1, 13308, Note_on_c, 6, 48, 90
1, 13308, Note_on_c, 6, 59, 107
1, 13352, Note_off_c, 4, 67, 64
1, 13360, Note_off_c, 4, 76, 64
1, 13372, Control_c, 2, 64, 127
1, 13372, Control_c, 3, 64, 127
1, 13380, Note_off_c, 6, 59, 64
1, 13392, Note_off_c, 6, 48, 64
1, 13440, Note_on_c, 9, 42, 79
1, 13456, Note_off_c, 9, 42, 64
1, 13456, Note_off_c, 2, 48, 64
1, 13492, Note_off_c, 2, 59, 64
1, 13500, Note_off_c, 1, 31, 64
1, 13500, Note_off_c, 2, 52, 64
1, 13692, Note_on_c, 1, 31, 72
1, 13704, Note_on_c, 9, 42, 63
1, 13720, Note_off_c, 9, 42, 64
1, 13796, Note_off_c, 1, 31, 64
1, 13804, Control_c, 2, 64, 0
1, 13804, Control_c, 3, 64, 0
1, 13824, Note_on_c, 1, 36, 107
1, 13824, Note_on_c, 2, 48, 52
1, 13824, Note_on_c, 2, 52, 66
1, 13824, Note_on_c, 2, 58, 65
1, 13824, Note_on_c, 9, 46, 70
1, 13840, Note_off_c, 9, 46, 64
1, 14064, Control_c, 2, 64, 127
1, 14064, Control_c, 3, 64, 127
1, 14116, Note_off_c, 2, 52, 64
1, 14116, Note_off_c, 2, 48, 64
1, 14156, Note_off_c, 2, 58, 64
1, 14208, Note_on_c, 9, 42, 81
1, 14224, Note_off_c, 9, 42, 64
1, 14232, Note_off_c, 1, 36, 64
1, 14392, Note_off_c, 3, 76, 64
1, 14464, Note_on_c, 1, 40, 78
1, 14468, Note_on_c, 9, 42, 55
1, 14484, Note_off_c, 9, 42, 64
1, 14576, Control_c, 2, 64, 0
1, 14576, Control_c, 3, 64, 0
1, 14588, Note_on_c, 2, 58, 52
1, 14588, Note_on_c, 2, 64, 68
1, 14588, Note_on_c, 2, 54, 61
1, 14592, Note_on_c, 1, 42, 96
1, 14592, Note_on_c, 9, 46, 70
1, 14600, Note_off_c, 1, 40, 64
1, 14608, Note_off_c, 9, 46, 64
1, 14764, Pitch_bend_c, 5, 7744
1, 14772, Pitch_bend_c, 5, 7296
1, 14784, Pitch_bend_c, 5, 6528
1, 14788, Pitch_bend_c, 5, 5952
1, 14792, Pitch_bend_c, 6, 7104
1, 14796, Pitch_bend_c, 5, 5376
1, 14796, Pitch_bend_c, 6, 6720
1, 14804, Pitch_bend_c, 6, 6080
1, 14808, Pitch_bend_c, 5, 4480
1, 14812, Pitch_bend_c, 5, 4032
1, 14816, Pitch_bend_c, 6, 5056
1, 14820, Pitch_bend_c, 5, 3712
1, 14820, Pitch_bend_c, 6, 4544
1, 14832, Pitch_bend_c, 5, 3136
1, 14836, Pitch_bend_c, 5, 2816
1, 14840, Pitch_bend_c, 6, 3328
1, 14844, Note_on_c, 5, 64, 106
1, 14844, Note_on_c, 5, 58, 79
1, 14844, Pitch_bend_c, 6, 3008
1, 14844, Note_on_c, 6, 61, 97
1, 14848, Note_on_c, 9, 40, 28
1, 14852, Pitch_bend_c, 6, 2752
1, 14864, Note_off_c, 9, 40, 64
1, 14864, Pitch_bend_c, 6, 2368
1, 14868, Pitch_bend_c, 5, 2304
1, 14868, Pitch_bend_c, 6, 2240
1, 14876, Pitch_bend_c, 6, 2176
1, 14880, Pitch_bend_c, 5, 2368
1, 14884, Pitch_bend_c, 5, 2432
1, 14888, Pitch_bend_c, 5, 2560
1, 14892, Pitch_bend_c, 6, 2240
1, 14896, Pitch_bend_c, 6, 2176
1, 14904, Pitch_bend_c, 5, 2816
1, 14908, Pitch_bend_c, 6, 2304
1, 14912, Pitch_bend_c, 5, 2752
1, 14916, Pitch_bend_c, 6, 2560
1, 14920, Pitch_bend_c, 6, 2688
1, 14924, Pitch_bend_c, 5, 2880
1, 14932, Pitch_bend_c, 6, 2944
1, 14936, Control_c, 2, 64, 127
1, 14936, Control_c, 3, 64, 127
1, 14936, Pitch_bend_c, 5, 3008
1, 14940, Pitch_bend_c, 6, 3136
1, 14944, Pitch_bend_c, 6, 3200
1, 14948, Pitch_bend_c, 5, 3264
1, 14956, Pitch_bend_c, 5, 3328
1, 14956, Pitch_bend_c, 6, 3520
1, 14960, Pitch_bend_c, 5, 3520
1, 14964, Pitch_bend_c, 6, 3648
1, 14968, Pitch_bend_c, 6, 3712
1, 14972, Note_on_c, 3, 72, 104
1, 14972, Pitch_bend_c, 5, 3840
1, 14972, Note_on_c, 9, 44, 75
1, 14976, Note_on_c, 9, 40, 91
1, 14980, Pitch_bend_c, 5, 3904
1, 14980, Pitch_bend_c, 6, 3968
1, 14984, Pitch_bend_c, 5, 4032
1, 14988, Note_off_c, 9, 44, 64
1, 14988, Pitch_bend_c, 6, 4224
1, 14992, Note_off_c, 9, 40, 64
1, 14992, Pitch_bend_c, 6, 4352
1, 14996, Pitch_bend_c, 5, 4352
1, 15000, Pitch_bend_c, 5, 4480
1, 15004, Note_off_c, 2, 58, 64
1, 15004, Pitch_bend_c, 6, 4672
1, 15008, Pitch_bend_c, 6, 4864
1, 15020, Note_off_c, 2, 54, 64
1, 15020, Pitch_bend_c, 5, 4864
1, 15028, Note_off_c, 2, 64, 64
1, 15028, Pitch_bend_c, 6, 5248
1, 15032, Pitch_bend_c, 5, 5056
1, 15040, Pitch_bend_c, 6, 5376
1, 15044, Note_off_c, 3, 72, 64
1, 15044, Pitch_bend_c, 5, 5376
1, 15048, Pitch_bend_c, 5, 5568
1, 15052, Pitch_bend_c, 6, 5632
1, 15056, Pitch_bend_c, 5, 5696
1, 15056, Pitch_bend_c, 6, 5824
1, 15064, Pitch_bend_c, 6, 5888
1, 15068, Pitch_bend_c, 5, 5952
1, 15072, Pitch_bend_c, 5, 6016
1, 15076, Note_off_c, 1, 42, 64
1, 15076, Pitch_bend_c, 5, 6080
1, 15076, Pitch_bend_c, 6, 6080
1, 15080, Pitch_bend_c, 6, 6144
1, 15084, Pitch_bend_c, 6, 6208
1, 15092, Pitch_bend_c, 5, 6464
1, 15096, Pitch_bend_c, 5, 6656
1, 15096, Pitch_bend_c, 6, 6464
1, 15100, Pitch_bend_c, 5, 6720
1, 15104, Pitch_bend_c, 6, 6592
1, 15108, Pitch_bend_c, 6, 6720
1, 15116, Pitch_bend_c, 5, 7104
1, 15120, Pitch_bend_c, 5, 7232
1, 15120, Pitch_bend_c, 6, 7040
1, 15124, Pitch_bend_c, 5, 7360
1, 15128, Pitch_bend_c, 6, 7232
1, 15132, Pitch_bend_c, 6, 7296
1, 15136, Pitch_bend_c, 5, 7808
1, 15144, Pitch_bend_c, 5, 7872
1, 15144, Pitch_bend_c, 6, 7808
1, 15148, Pitch_bend_c, 5, 8192
1, 15168, Pitch_bend_c, 6, 8192
1, 15220, Note_off_c, 5, 64, 64
1, 15228, Note_on_c, 3, 73, 93
1, 15232, Note_on_c, 1, 40, 75
1, 15240, Note_on_c, 9, 42, 60
1, 15256, Note_off_c, 9, 42, 64
1, 15296, Note_off_c, 3, 73, 64
1, 15312, Note_off_c, 1, 40, 64
1, 15312, Control_c, 2, 64, 0
1, 15312, Control_c, 3, 64, 0
1, 15356, Note_on_c, 5, 57, 65
1, 15356, Note_on_c, 5, 64, 88
1, 15356, Note_on_c, 6, 60, 92
1, 15360, Note_on_c, 1, 41, 101
1, 15360, Note_on_c, 2, 64, 59
1, 15360, Note_on_c, 2, 57, 62
1, 15360, Note_on_c, 2, 53, 59
1, 15360, Note_on_c, 3, 74, 88
1, 15360, Note_on_c, 9, 46, 74
1, 15360, Note_on_c, 9, 35, 76
1, 15372, Note_off_c, 6, 61, 64
1, 15376, Note_off_c, 9, 35, 64
1, 15376, Note_off_c, 9, 46, 64
1, 15376, Note_off_c, 5, 58, 64
1, 15504, Control_c, 2, 64, 127
1, 15504, Control_c, 3, 64, 127
1, 15628, Note_off_c, 3, 74, 64
1, 15740, Note_off_c, 2, 53, 64
1, 15740, Note_on_c, 3, 74, 91
1, 15744, Note_on_c, 9, 42, 77
1, 15748, Note_off_c, 2, 64, 64
1, 15760, Note_off_c, 9, 42, 64
1, 15764, Note_off_c, 2, 57, 64
1, 15828, Note_off_c, 1, 41, 64
1, 15832, Note_off_c, 3, 74, 64
1, 15996, Note_on_c, 3, 73, 90
1, 16000, Note_on_c, 1, 36, 72
1, 16008, Note_on_c, 9, 42, 62
1, 16024, Note_off_c, 9, 42, 64
1, 16064, Control_c, 6, 1, 10
1, 16068, Control_c, 6, 1, 53
1, 16072, Note_off_c, 3, 73, 64
1, 16076, Control_c, 6, 1, 83
1, 16080, Control_c, 2, 64, 0
1, 16080, Control_c, 3, 64, 0
1, 16092, Control_c, 6, 1, 110
1, 16100, Note_off_c, 1, 36, 64
1, 16116, Control_c, 6, 1, 111
1, 16124, Note_on_c, 1, 29, 102
1, 16124, Note_on_c, 2, 63, 54
1, 16124, Note_on_c, 2, 56, 65
1, 16124, Note_on_c, 2, 53, 69
1, 16124, Note_on_c, 3, 74, 98
1, 16124, Control_c, 6, 1, 110
1, 16128, Note_on_c, 9, 46, 64
1, 16132, Note_on_c, 5, 56, 63
1, 16132, Note_on_c, 5, 63, 88
1, 16140, Control_c, 6, 1, 108
1, 16144, Note_off_c, 9, 46, 64
1, 16148, Control_c, 6, 1, 110
1, 16164, Control_c, 6, 1, 112
1, 16184, Note_off_c, 5, 64, 64
1, 16188, Control_c, 6, 1, 116
1, 16200, Note_off_c, 5, 57, 64
1, 16204, Control_c, 6, 1, 118
1, 16212, Control_c, 6, 1, 117
1, 16216, Control_c, 6, 1, 116
1, 16228, Control_c, 6, 1, 112
1, 16236, Control_c, 6, 1, 113
1, 16240, Control_c, 6, 1, 114
1, 16252, Control_c, 6, 1, 115
1, 16264, Control_c, 6, 1, 116
1, 16300, Control_c, 6, 1, 114
1, 16304, Control_c, 6, 1, 115
1, 16312, Control_c, 6, 1, 114
1, 16324, Control_c, 6, 1, 112
1, 16328, Control_c, 6, 1, 113
1, 16336, Control_c, 6, 1, 110
1, 16352, Control_c, 6, 1, 96
1, 16356, Control_c, 6, 1, 95
1, 16376, Control_c, 6, 1, 99
1, 16380, Note_on_c, 3, 75, 96
1, 16380, Control_c, 6, 1, 97
1, 16384, Note_off_c, 3, 74, 64
1, 16404, Control_c, 6, 1, 96
1, 16416, Control_c, 6, 1, 94
1, 16420, Control_c, 2, 64, 127
1, 16420, Control_c, 3, 64, 127
1, 16424, Control_c, 6, 1, 91
1, 16428, Control_c, 6, 1, 90
1, 16440, Control_c, 6, 1, 91
1, 16448, Control_c, 6, 1, 90
1, 16452, Control_c, 6, 1, 88
1, 16464, Control_c, 6, 1, 49
1, 16468, Note_off_c, 3, 75, 64
1, 16472, Control_c, 6, 1, 19
1, 16476, Control_c, 6, 1, 8
1, 16488, Control_c, 6, 1, 5
1, 16492, Control_c, 6, 1, 0
1, 16496, Note_off_c, 2, 53, 64
1, 16504, Note_off_c, 2, 56, 64
1, 16508, Note_on_c, 3, 74, 102
1, 16512, Note_on_c, 9, 42, 82
1, 16528, Note_off_c, 9, 42, 64
1, 16532, Note_off_c, 2, 63, 64
1, 16572, Note_off_c, 3, 74, 64
1, 16572, Note_off_c, 1, 29, 64
1, 16764, Note_on_c, 1, 36, 67
1, 16764, Note_on_c, 3, 72, 96
1, 16776, Note_on_c, 9, 42, 60
1, 16792, Note_off_c, 9, 42, 64
1, 16816, Control_c, 2, 64, 0
1, 16816, Control_c, 3, 64, 0
1, 16864, Note_off_c, 1, 36, 64
1, 16880, Note_off_c, 5, 56, 64
1, 16884, Note_off_c, 5, 63, 64
1, 16888, Note_off_c, 6, 60, 64
1, 16892, Note_on_c, 5, 55, 53
1, 16892, Note_on_c, 5, 62, 80
1, 16892, Note_on_c, 6, 59, 83
1, 16896, Note_on_c, 1, 40, 96
1, 16896, Note_on_c, 2, 55, 58
1, 16896, Note_on_c, 2, 52, 46
1, 16896, Note_on_c, 2, 62, 65
1, 16896, Note_on_c, 9, 46, 65
1, 16912, Note_off_c, 9, 46, 64
1, 17140, Note_off_c, 3, 72, 64
1, 17148, Note_on_c, 3, 67, 81
1, 17232, Control_c, 2, 64, 127
1, 17232, Control_c, 3, 64, 127
1, 17280, Note_on_c, 9, 42, 65
1, 17296, Note_off_c, 9, 42, 64
1, 17300, Note_off_c, 2, 55, 64
1, 17304, Note_off_c, 2, 52, 64
1, 17340, Note_off_c, 2, 62, 64
1, 17472, Note_off_c, 1, 40, 64
1, 17536, Note_on_c, 1, 36, 72
1, 17544, Note_on_c, 9, 42, 59
1, 17556, Note_off_c, 5, 62, 64
1, 17560, Note_off_c, 9, 42, 64
1, 17568, Note_off_c, 5, 55, 64
1, 17584, Note_off_c, 6, 59, 64
1, 17636, Note_off_c, 1, 36, 64
1, 17660, Note_on_c, 2, 58, 59
1, 17660, Note_on_c, 2, 64, 56
1, 17660, Note_on_c, 2, 54, 44
1, 17664, Note_on_c, 1, 30, 93
1, 17664, Note_on_c, 9, 46, 55
1, 17668, Control_c, 2, 64, 0
1, 17668, Control_c, 3, 64, 0
1, 17680, Note_off_c, 9, 46, 64
1, 17680, Note_off_c, 3, 67, 64
1, 17852, Pitch_bend_c, 5, 7296
1, 17852, Pitch_bend_c, 6, 7808
1, 17856, Pitch_bend_c, 5, 6592
1, 17856, Pitch_bend_c, 6, 7360
1, 17868, Pitch_bend_c, 5, 5248
1, 17868, Pitch_bend_c, 6, 6400
1, 17876, Pitch_bend_c, 5, 4608
1, 17876, Pitch_bend_c, 6, 5824
1, 17880, Pitch_bend_c, 5, 4224
1, 17880, Pitch_bend_c, 6, 5376
1, 17900, Pitch_bend_c, 6, 4288
1, 17904, Pitch_bend_c, 6, 3904
1, 17912, Note_on_c, 5, 58, 79
1, 17912, Note_on_c, 5, 64, 101
1, 17912, Note_on_c, 6, 61, 96
1, 17916, Pitch_bend_c, 5, 3136
1, 17916, Pitch_bend_c, 6, 3520
1, 17920, Pitch_bend_c, 6, 3456
1, 17920, Note_on_c, 9, 40, 101
1, 17928, Pitch_bend_c, 6, 3264
1, 17936, Note_off_c, 9, 40, 64
1, 17940, Pitch_bend_c, 6, 3136
1, 17944, Pitch_bend_c, 5, 3200
1, 17944, Pitch_bend_c, 6, 3008
1, 17952, Pitch_bend_c, 5, 3264
1, 17952, Pitch_bend_c, 6, 2944
1, 17964, Pitch_bend_c, 5, 3456
1, 17964, Pitch_bend_c, 6, 2880
1, 17968, Pitch_bend_c, 5, 3520
1, 17976, Pitch_bend_c, 5, 3584
1, 17976, Pitch_bend_c, 6, 2816
1, 17988, Pitch_bend_c, 5, 3840
1, 17988, Pitch_bend_c, 6, 2880
1, 17992, Pitch_bend_c, 5, 3904
1, 18000, Pitch_bend_c, 5, 3968
1, 18012, Pitch_bend_c, 5, 4288
1, 18012, Pitch_bend_c, 6, 3136
1, 18016, Pitch_bend_c, 5, 4416
1, 18016, Pitch_bend_c, 6, 3264
1, 18024, Pitch_bend_c, 5, 4544
1, 18028, Note_off_c, 1, 30, 64
1, 18028, Control_c, 2, 64, 127
1, 18028, Control_c, 3, 64, 127
1, 18036, Pitch_bend_c, 5, 4736
1, 18036, Pitch_bend_c, 6, 3584
1, 18040, Pitch_bend_c, 5, 4992
1, 18040, Pitch_bend_c, 6, 3776
1, 18044, Note_on_c, 1, 42, 106
1, 18044, Pitch_bend_c, 5, 5120
1, 18044, Pitch_bend_c, 6, 3840
1, 18048, Note_on_c, 9, 44, 100
1, 18056, Pitch_bend_c, 6, 4224
1, 18060, Pitch_bend_c, 5, 5376
1, 18064, Note_off_c, 9, 44, 64
1, 18064, Pitch_bend_c, 5, 5568
1, 18064, Pitch_bend_c, 6, 4352
1, 18068, Pitch_bend_c, 5, 5632
1, 18068, Pitch_bend_c, 6, 4480
1, 18080, Pitch_bend_c, 6, 4608
1, 18084, Pitch_bend_c, 5, 6016
1, 18088, Pitch_bend_c, 6, 4864
1, 18092, Note_off_c, 2, 58, 64
1, 18092, Pitch_bend_c, 5, 6144
1, 18104, Pitch_bend_c, 5, 6464
1, 18104, Pitch_bend_c, 6, 5248
1, 18112, Pitch_bend_c, 5, 6528
1, 18112, Pitch_bend_c, 6, 5376
1, 18116, Note_off_c, 2, 64, 64
1, 18116, Pitch_bend_c, 6, 5504
1, 18120, Note_off_c, 2, 54, 64
1, 18128, Pitch_bend_c, 5, 6784
1, 18128, Pitch_bend_c, 6, 5824
1, 18132, Pitch_bend_c, 6, 5888
1, 18136, Pitch_bend_c, 5, 6848
1, 18140, Pitch_bend_c, 5, 6976
1, 18140, Pitch_bend_c, 6, 6016
1, 18152, Pitch_bend_c, 5, 7104
1, 18152, Pitch_bend_c, 6, 6208
1, 18156, Pitch_bend_c, 5, 7360
1, 18156, Pitch_bend_c, 6, 6336
1, 18164, Pitch_bend_c, 5, 7488
1, 18164, Pitch_bend_c, 6, 6400
1, 18176, Pitch_bend_c, 5, 7808
1, 18176, Pitch_bend_c, 6, 6528
1, 18180, Pitch_bend_c, 5, 8192
1, 18180, Pitch_bend_c, 6, 6720
1, 18188, Pitch_bend_c, 6, 6848
1, 18200, Pitch_bend_c, 6, 7104
1, 18204, Pitch_bend_c, 6, 7232
1, 18212, Pitch_bend_c, 6, 7296
1, 18220, Pitch_bend_c, 6, 7488
1, 18228, Pitch_bend_c, 6, 7808
1, 18232, Pitch_bend_c, 6, 7744
1, 18244, Pitch_bend_c, 6, 8192
1, 18300, Note_on_c, 3, 73, 106
1, 18300, Note_on_c, 9, 47, 53
1, 18308, Note_on_c, 9, 35, 44
1, 18316, Note_off_c, 9, 47, 64
1, 18324, Note_off_c, 9, 35, 64
1, 18384, Note_off_c, 5, 64, 64
1, 18388, Note_off_c, 3, 73, 64
1, 18392, Note_off_c, 5, 58, 64
1, 18408, Control_c, 2, 64, 0
1, 18408, Control_c, 3, 64, 0
1, 18420, Note_off_c, 1, 42, 64
1, 18428, Note_on_c, 5, 57, 82
1, 18428, Note_on_c, 5, 64, 77
1, 18428, Note_on_c, 6, 60, 88
1, 18432, Note_on_c, 1, 41, 104
1, 18432, Note_on_c, 3, 74, 92
1, 18432, Note_on_c, 9, 46, 71
1, 18432, Note_on_c, 9, 35, 79
1, 18436, Note_on_c, 2, 64, 57
1, 18436, Note_on_c, 2, 57, 49
1, 18436, Note_on_c, 2, 53, 57
1, 18448, Note_off_c, 9, 35, 64
1, 18448, Note_off_c, 9, 46, 64
1, 18452, Note_off_c, 6, 61, 64
1, 18624, Control_c, 2, 64, 127
1, 18624, Control_c, 3, 64, 127
1, 18732, Note_off_c, 3, 74, 64
1, 18756, Note_off_c, 2, 64, 64
1, 18796, Note_off_c, 2, 57, 64
1, 18816, Note_on_c, 9, 42, 79
1, 18820, Note_on_c, 3, 74, 102
1, 18824, Note_off_c, 2, 53, 64
1, 18832, Note_off_c, 9, 42, 64
1, 18836, Note_off_c, 1, 41, 64
1, 18884, Note_off_c, 3, 74, 64
1, 19068, Note_on_c, 3, 73, 97
1, 19072, Note_on_c, 1, 33, 64
1, 19076, Note_on_c, 9, 42, 68
1, 19092, Note_off_c, 9, 42, 64
1, 19092, Control_c, 6, 1, 18
1, 19100, Control_c, 6, 1, 34
1, 19104, Control_c, 6, 1, 19
1, 19116, Control_c, 6, 1, 36
1, 19124, Control_c, 6, 1, 50
1, 19128, Control_c, 6, 1, 62
1, 19140, Control_c, 6, 1, 78
1, 19148, Control_c, 6, 1, 90
1, 19152, Control_c, 6, 1, 95
1, 19160, Note_off_c, 1, 33, 64
1, 19164, Control_c, 6, 1, 99
1, 19176, Control_c, 6, 1, 100
1, 19188, Control_c, 2, 64, 0
1, 19188, Control_c, 3, 64, 0
1, 19188, Control_c, 6, 1, 102
1, 19192, Control_c, 6, 1, 100
1, 19196, Note_on_c, 9, 46, 75
1, 19200, Note_on_c, 1, 34, 102
1, 19200, Control_c, 6, 1, 102
1, 19204, Note_on_c, 2, 50, 79
1, 19204, Note_on_c, 2, 46, 66
1, 19204, Note_on_c, 2, 56, 66
1, 19204, Note_on_c, 3, 74, 108
1, 19204, Note_on_c, 5, 56, 71
1, 19204, Note_on_c, 5, 62, 86
1, 19212, Note_off_c, 9, 46, 64
1, 19212, Note_off_c, 3, 73, 64
1, 19216, Control_c, 6, 1, 110
1, 19224, Control_c, 6, 1, 111
1, 19248, Control_c, 6, 1, 113
1, 19260, Note_off_c, 5, 64, 64
1, 19260, Control_c, 6, 1, 115
1, 19264, Control_c, 6, 1, 116
1, 19268, Note_off_c, 5, 57, 64
1, 19340, Control_c, 6, 1, 114
1, 19352, Control_c, 6, 1, 111
1, 19360, Control_c, 6, 1, 112
1, 19364, Control_c, 6, 1, 111
1, 19376, Control_c, 6, 1, 116
1, 19388, Control_c, 6, 1, 118
1, 19428, Control_c, 6, 1, 117
1, 19436, Control_c, 6, 1, 111
1, 19444, Note_off_c, 3, 74, 64
1, 19452, Note_on_c, 3, 76, 100
1, 19452, Control_c, 6, 1, 107
1, 19460, Control_c, 6, 1, 101
1, 19472, Control_c, 6, 1, 97
1, 19484, Control_c, 6, 1, 91
1, 19488, Control_c, 2, 64, 127
1, 19488, Control_c, 3, 64, 127
1, 19500, Control_c, 6, 1, 47
1, 19504, Note_off_c, 2, 50, 64
1, 19508, Control_c, 6, 1, 17
1, 19516, Control_c, 6, 1, 11
1, 19524, Control_c, 6, 1, 7
1, 19528, Control_c, 6, 1, 6
1, 19532, Note_off_c, 3, 76, 64
1, 19540, Control_c, 6, 1, 0
1, 19568, Note_off_c, 2, 46, 64
1, 19584, Note_on_c, 9, 42, 88
1, 19588, Note_on_c, 3, 77, 108
1, 19600, Note_off_c, 9, 42, 64
1, 19636, Note_off_c, 2, 56, 64
1, 19648, Note_off_c, 3, 77, 64
1, 19748, Note_off_c, 1, 34, 64
1, 19836, Note_off_c, 5, 62, 64
1, 19836, Note_on_c, 1, 46, 76
1, 19836, Note_on_c, 3, 79, 116
1, 19844, Note_on_c, 9, 42, 66
1, 19860, Note_off_c, 9, 42, 64
1, 19864, Note_off_c, 5, 56, 64
1, 19884, Note_off_c, 1, 46, 64
1, 19932, Note_off_c, 6, 60, 64
1, 19932, Control_c, 2, 64, 0
1, 19932, Control_c, 3, 64, 0
1, 19968, Note_on_c, 1, 45, 109
1, 19968, Note_on_c, 2, 55, 78
1, 19968, Note_on_c, 2, 50, 83
1, 19968, Note_on_c, 2, 45, 72
1, 19968, Note_on_c, 4, 67, 121
1, 19968, Note_on_c, 5, 55, 104
1, 19968, Note_on_c, 7, 67, 119
1, 19968, Note_on_c, 9, 46, 77
1, 19984, Note_off_c, 9, 46, 64
1, 20168, Note_off_c, 7, 67, 64
1, 20180, Note_off_c, 5, 55, 64
1, 20180, Note_off_c, 1, 45, 64
1, 20184, Note_off_c, 3, 79, 64
1, 20192, Note_off_c, 4, 67, 64
1, 20220, Note_on_c, 1, 43, 80
1, 20220, Note_on_c, 3, 76, 100
1, 20220, Note_on_c, 4, 64, 93
1, 20220, Note_on_c, 5, 52, 71
1, 20220, Note_on_c, 7, 64, 102
1, 20224, Note_on_c, 9, 50, 51
1, 20240, Note_off_c, 9, 50, 64
1, 20260, Control_c, 2, 64, 127
1, 20260, Control_c, 3, 64, 127
1, 20272, Note_off_c, 4, 64, 64
1, 20280, Note_off_c, 3, 76, 64
1, 20288, Note_off_c, 7, 64, 64
1, 20292, Note_off_c, 1, 43, 64
1, 20320, Note_off_c, 2, 45, 64
1, 20328, Note_off_c, 5, 52, 64
1, 20348, Note_on_c, 1, 40, 101
1, 20348, Note_on_c, 3, 74, 95
1, 20348, Note_on_c, 4, 69, 101
1, 20348, Note_on_c, 4, 66, 99
1, 20348, Note_on_c, 5, 62, 98
1, 20352, Note_off_c, 2, 50, 64
1, 20352, Note_on_c, 9, 42, 86
1, 20352, Note_on_c, 9, 47, 78
1, 20356, Note_on_c, 7, 69, 117
1, 20368, Note_off_c, 9, 47, 64
1, 20368, Note_off_c, 9, 42, 64
1, 20372, Note_off_c, 2, 55, 64
1, 20388, Note_off_c, 3, 74, 64
1, 20524, Note_off_c, 4, 66, 64
1, 20540, Note_off_c, 7, 69, 64
1, 20556, Note_off_c, 4, 69, 64
1, 20568, Control_c, 2, 64, 0
1, 20568, Control_c, 3, 64, 0
1, 20576, Note_off_c, 1, 40, 64
1, 20604, Note_off_c, 5, 62, 64
1, 20604, Note_on_c, 2, 49, 86
1, 20604, Note_on_c, 2, 55, 80
1, 20604, Note_on_c, 2, 45, 77
1, 20604, Note_on_c, 3, 79, 102
1, 20604, Note_on_c, 3, 75, 106
1, 20604, Note_on_c, 3, 70, 93
1, 20604, Note_on_c, 4, 67, 98
1, 20604, Note_on_c, 4, 70, 115
1, 20604, Note_on_c, 5, 63, 102
1, 20604, Note_on_c, 5, 61, 97
1, 20604, Note_on_c, 6, 55, 113
1, 20604, Note_on_c, 6, 45, 104
1, 20608, Note_on_c, 1, 33, 113
1, 20608, Note_on_c, 9, 55, 119
1, 20612, Note_on_c, 7, 70, 127
1, 20612, Note_on_c, 9, 35, 114
1, 20612, Note_on_c, 9, 42, 96
1, 20624, Note_off_c, 9, 55, 64
1, 20628, Note_off_c, 9, 42, 64
1, 20628, Note_off_c, 9, 35, 64
1, 21056, Control_c, 2, 64, 127
1, 21056, Control_c, 3, 64, 127
1, 21104, Note_off_c, 2, 45, 64
1, 21108, Note_off_c, 2, 49, 64
1, 21120, Note_on_c, 9, 40, 34
1, 21136, Note_off_c, 9, 40, 64
1, 21140, Note_off_c, 2, 55, 64
1, 21176, Note_off_c, 3, 70, 64
1, 21192, Note_off_c, 3, 79, 64
1, 21200, Note_off_c, 3, 75, 64
1, 21248, Note_on_c, 9, 40, 37
1, 21264, Note_off_c, 9, 40, 64
1, 21268, Note_off_c, 1, 33, 64
1, 21368, Note_on_c, 1, 36, 76
1, 21376, Note_on_c, 9, 40, 97
1, 21392, Note_off_c, 9, 40, 64
1, 21404, Note_off_c, 5, 61, 64
1, 21420, Note_off_c, 5, 63, 64
1, 21448, Note_off_c, 1, 36, 64
1, 21460, Control_c, 2, 64, 0
1, 21460, Control_c, 3, 64, 0
1, 21464, Note_off_c, 4, 70, 64
1, 21468, Note_off_c, 7, 70, 64
1, 21468, Note_off_c, 4, 67, 64
1, 21504, Note_on_c, 1, 38, 70
1, 21504, Note_on_c, 2, 55, 77
1, 21504, Note_on_c, 2, 50, 84
1, 21504, Note_on_c, 2, 60, 85
1, 21504, Note_on_c, 9, 46, 61
1, 21504, Note_on_c, 9, 35, 76
1, 21520, Note_off_c, 9, 35, 64
1, 21520, Note_off_c, 9, 46, 64
1, 21532, Note_off_c, 6, 55, 64
1, 21536, Note_off_c, 6, 45, 64
1, 21568, Note_off_c, 1, 38, 64
1, 21756, Note_on_c, 3, 69, 111
1, 21756, Note_on_c, 3, 81, 116
1, 21756, Note_on_c, 6, 60, 104
1, 21760, Note_on_c, 1, 50, 121
1, 21760, Note_on_c, 6, 55, 102
1, 21764, Note_on_c, 4, 69, 104
1, 21764, Note_on_c, 4, 64, 90
1, 21808, Control_c, 2, 64, 127
1, 21808, Control_c, 3, 64, 127
1, 21888, Note_on_c, 9, 42, 89
1, 21904, Note_off_c, 9, 42, 64
1, 21944, Note_off_c, 2, 50, 64
1, 21956, Note_off_c, 2, 55, 64
1, 21968, Note_off_c, 2, 60, 64
1, 21972, Note_off_c, 3, 81, 64
1, 22124, Note_off_c, 6, 60, 64
1, 22140, Note_off_c, 4, 64, 64
1, 22140, Note_off_c, 6, 55, 64
1, 22148, Note_off_c, 3, 69, 64
1, 22152, Note_off_c, 1, 50, 64
1, 22152, Note_on_c, 9, 42, 69
1, 22168, Note_off_c, 9, 42, 64
1, 22172, Note_off_c, 4, 69, 64
1, 22228, Control_c, 2, 64, 0
1, 22228, Control_c, 3, 64, 0
1, 22268, Note_on_c, 2, 50, 52
1, 22268, Note_on_c, 2, 60, 58
1, 22268, Note_on_c, 2, 55, 68
1, 22268, Note_on_c, 3, 76, 79
1, 22276, Note_on_c, 1, 48, 107
1, 22276, Note_on_c, 6, 54, 79
1, 22276, Note_on_c, 6, 57, 101
1, 22276, Note_on_c, 9, 46, 57
1, 22280, Note_on_c, 4, 72, 109
1, 22280, Note_on_c, 4, 64, 85
1, 22292, Note_off_c, 9, 46, 64
1, 22316, Note_off_c, 3, 76, 64
1, 22328, Note_off_c, 1, 48, 64
1, 22328, Note_off_c, 2, 55, 64
1, 22332, Note_off_c, 2, 60, 64
1, 22332, Note_off_c, 2, 50, 64
1, 22372, Note_off_c, 6, 57, 64
1, 22380, Note_off_c, 4, 64, 64
1, 22384, Note_off_c, 6, 54, 64
1, 22400, Note_off_c, 4, 72, 64
1, 22404, Note_on_c, 1, 45, 66
1, 22440, Note_off_c, 1, 45, 64
1, 22528, Note_on_c, 1, 42, 49
1, 22584, Note_off_c, 1, 42, 64
1, 22652, Note_on_c, 2, 60, 47
1, 22652, Note_on_c, 2, 50, 57
1, 22652, Note_on_c, 2, 55, 59
1, 22652, Note_on_c, 3, 74, 82
1, 22652, Note_on_c, 4, 74, 97
1, 22652, Note_on_c, 4, 64, 96
1, 22652, Note_on_c, 9, 42, 92
1, 22656, Note_on_c, 1, 38, 90
1, 22660, Note_on_c, 6, 60, 104
1, 22660, Note_on_c, 6, 54, 81
1, 22668, Note_off_c, 9, 42, 64
1, 22716, Note_off_c, 2, 50, 64
1, 22720, Note_off_c, 3, 74, 64
1, 22724, Note_off_c, 2, 55, 64
1, 22724, Note_off_c, 2, 60, 64
1, 22768, Note_off_c, 4, 74, 64
1, 22776, Note_off_c, 1, 38, 64
1, 22780, Note_off_c, 6, 54, 64
1, 22784, Note_off_c, 6, 60, 64
1, 22788, Note_off_c, 4, 64, 64
1, 22916, Note_on_c, 9, 35, 29
1, 22920, Note_on_c, 9, 42, 56
1, 22932, Note_off_c, 9, 35, 64
1, 22936, Note_off_c, 9, 42, 64
1, 23036, Note_on_c, 6, 54, 72
1, 23040, Note_on_c, 1, 38, 97
1, 23040, Note_on_c, 2, 50, 57
1, 23040, Note_on_c, 2, 54, 47
1, 23040, Note_on_c, 2, 60, 38
1, 23040, Note_on_c, 3, 72, 76
1, 23040, Note_on_c, 6, 57, 95
1, 23040, Note_on_c, 9, 46, 59
1, 23044, Note_on_c, 4, 62, 83
1, 23044, Note_on_c, 4, 72, 100
1, 23056, Note_off_c, 9, 46, 64
1, 23088, Note_off_c, 2, 54, 64
1, 23104, Note_off_c, 2, 50, 64
1, 23112, Note_off_c, 3, 72, 64
1, 23124, Note_off_c, 2, 60, 64
1, 23148, Note_off_c, 6, 57, 64
1, 23152, Note_off_c, 6, 54, 64
1, 23168, Note_off_c, 4, 72, 64
1, 23176, Note_off_c, 4, 62, 64
1, 23236, Note_off_c, 1, 38, 64
1, 23420, Note_on_c, 2, 54, 54
1, 23420, Note_on_c, 2, 60, 45
1, 23420, Note_on_c, 3, 69, 74
1, 23424, Note_on_c, 9, 42, 85
1, 23428, Note_on_c, 2, 50, 56
1, 23428, Note_on_c, 4, 60, 85
1, 23428, Note_on_c, 4, 69, 96
1, 23428, Note_on_c, 6, 50, 69
1, 23428, Note_on_c, 6, 54, 93
1, 23440, Note_off_c, 9, 42, 64
1, 23480, Note_off_c, 2, 54, 64
1, 23492, Note_off_c, 2, 50, 64
1, 23496, Note_off_c, 2, 60, 64
1, 23508, Note_off_c, 4, 60, 64
1, 23508, Note_off_c, 3, 69, 64
1, 23532, Note_off_c, 6, 50, 64
1, 23552, Note_off_c, 6, 54, 64
1, 23552, Note_off_c, 4, 69, 64
1, 23680, Note_on_c, 1, 33, 72
1, 23688, Note_on_c, 9, 42, 60
1, 23704, Note_off_c, 9, 42, 64
1, 23764, Note_off_c, 1, 33, 64
1, 23804, Note_on_c, 6, 60, 109
1, 23804, Note_on_c, 6, 57, 90
1, 23808, Note_on_c, 1, 38, 91
1, 23808, Note_on_c, 9, 46, 71
1, 23812, Note_on_c, 2, 54, 48
1, 23812, Note_on_c, 2, 60, 54
1, 23812, Note_on_c, 2, 50, 61
1, 23812, Note_on_c, 3, 72, 80
1, 23812, Note_on_c, 4, 69, 89
1, 23812, Note_on_c, 4, 72, 97
1, 23824, Note_off_c, 9, 46, 64
1, 23956, Note_off_c, 4, 72, 64
1, 23968, Note_off_c, 6, 60, 64
1, 23988, Note_off_c, 4, 69, 64
1, 24060, Note_off_c, 3, 72, 64
1, 24060, Note_on_c, 3, 74, 84
1, 24060, Note_on_c, 4, 71, 83
1, 24060, Note_on_c, 4, 74, 71
1, 24060, Note_on_c, 6, 59, 96
1, 24060, Note_on_c, 6, 62, 74
1, 24064, Note_off_c, 6, 57, 64
1, 24092, Control_c, 2, 64, 127
1, 24092, Control_c, 3, 64, 127
1, 24120, Note_off_c, 3, 74, 64
1, 24152, Note_off_c, 4, 74, 64
1, 24156, Note_off_c, 6, 62, 64
1, 24156, Note_off_c, 6, 59, 64
1, 24156, Note_off_c, 4, 71, 64
1, 24156, Note_off_c, 2, 50, 64
1, 24184, Note_off_c, 2, 54, 64
1, 24188, Note_on_c, 6, 64, 104
1, 24188, Note_on_c, 6, 60, 101
1, 24192, Note_off_c, 2, 60, 64
1, 24192, Note_on_c, 3, 76, 95
1, 24192, Note_on_c, 4, 76, 95
1, 24192, Note_on_c, 9, 42, 79
1, 24196, Note_on_c, 4, 72, 91
1, 24208, Note_off_c, 9, 42, 64
1, 24236, Note_off_c, 3, 76, 64
1, 24272, Note_off_c, 6, 60, 64
1, 24372, Note_off_c, 6, 64, 64
1, 24432, Note_off_c, 4, 72, 64
1, 24444, Note_off_c, 4, 76, 64
1, 24444, Note_on_c, 3, 74, 104
1, 24444, Note_on_c, 4, 74, 96
1, 24444, Note_on_c, 4, 69, 100
1, 24444, Note_on_c, 6, 53, 84
1, 24444, Note_on_c, 6, 60, 113
1, 24456, Note_on_c, 9, 35, 66
1, 24456, Note_on_c, 9, 42, 64
1, 24464, Note_off_c, 1, 38, 64
1, 24468, Control_c, 2, 64, 0
1, 24468, Control_c, 3, 64, 0
1, 24472, Note_off_c, 9, 42, 64
1, 24472, Note_off_c, 9, 35, 64
1, 24576, Note_on_c, 2, 60, 64
1, 24576, Note_on_c, 2, 50, 54
1, 24576, Note_on_c, 2, 53, 65
1, 24576, Note_on_c, 9, 46, 73
1, 24576, Note_on_c, 9, 40, 27
1, 24592, Note_off_c, 9, 40, 64
1, 24592, Note_off_c, 9, 46, 64
1, 24828, Note_on_c, 1, 38, 90
1, 24836, Note_on_c, 9, 50, 70
1, 24852, Note_off_c, 9, 50, 64
1, 24904, Note_off_c, 1, 38, 64
1, 24912, Control_c, 2, 64, 127
1, 24912, Control_c, 3, 64, 127
1, 24960, Note_on_c, 9, 42, 71
1, 24976, Note_off_c, 9, 42, 64
1, 24996, Note_off_c, 2, 53, 64
1, 25000, Note_off_c, 2, 50, 64
1, 25024, Note_off_c, 2, 60, 64
1, 25088, Note_on_c, 9, 40, 18
1, 25104, Note_off_c, 9, 40, 64
1, 25220, Note_on_c, 1, 33, 91
1, 25220, Note_on_c, 9, 35, 41
1, 25220, Note_on_c, 9, 40, 51
1, 25224, Note_on_c, 9, 42, 59
1, 25236, Note_off_c, 9, 40, 64
1, 25236, Note_off_c, 9, 35, 64
1, 25240, Note_off_c, 9, 42, 64
1, 25308, Control_c, 2, 64, 0
1, 25308, Control_c, 3, 64, 0
1, 25340, Note_off_c, 1, 33, 64
1, 25340, Note_on_c, 2, 53, 51
1, 25340, Note_on_c, 2, 60, 55
1, 25340, Note_on_c, 2, 50, 41
1, 25348, Note_on_c, 1, 38, 100
1, 25348, Note_on_c, 9, 47, 74
1, 25364, Note_off_c, 9, 47, 64
1, 25548, Control_c, 2, 64, 127
1, 25548, Control_c, 3, 64, 127
1, 25636, Note_off_c, 3, 74, 64
1, 25640, Note_off_c, 2, 50, 64
1, 25648, Note_off_c, 2, 53, 64
1, 25684, Note_off_c, 2, 60, 64
1, 25728, Note_on_c, 9, 44, 100
1, 25744, Note_off_c, 9, 44, 64
1, 25836, Note_off_c, 4, 74, 64
1, 25848, Note_off_c, 4, 69, 64
1, 25860, Note_off_c, 1, 38, 64
1, 25892, Note_off_c, 6, 60, 64
1, 25904, Note_off_c, 6, 53, 64
1, 25980, Note_on_c, 1, 36, 86
1, 25980, Note_on_c, 3, 75, 103
1, 25980, Note_on_c, 7, 75, 119
1, 25980, Note_on_c, 9, 40, 23
1, 25984, Note_on_c, 9, 35, 83
1, 25992, Note_on_c, 9, 42, 62
1, 25996, Note_off_c, 9, 40, 64
1, 26000, Note_off_c, 9, 35, 64
1, 26008, Note_off_c, 9, 42, 64
1, 26028, Note_off_c, 1, 36, 64
1, 26040, Note_off_c, 7, 75, 64
1, 26096, Control_c, 2, 64, 0
1, 26096, Control_c, 3, 64, 0
1, 26108, Note_on_c, 4, 72, 107
1, 26108, Note_on_c, 4, 67, 101
1, 26108, Note_on_c, 6, 62, 119
1, 26108, Note_on_c, 6, 56, 110
1, 26108, Note_on_c, 7, 76, 127
1, 26112, Note_off_c, 3, 75, 64
1, 26112, Note_on_c, 1, 34, 123
1, 26112, Note_on_c, 3, 76, 107
1, 26112, Note_on_c, 9, 40, 109
1, 26116, Note_on_c, 2, 67, 72
1, 26116, Note_on_c, 2, 56, 65
1, 26116, Note_on_c, 2, 62, 79
1, 26128, Note_off_c, 9, 40, 64
1, 26340, Note_off_c, 7, 76, 64
1, 26364, Note_on_c, 3, 79, 105
1, 26368, Note_off_c, 3, 76, 64
1, 26368, Note_on_c, 7, 79, 123
1, 26368, Note_on_c, 9, 43, 53
1, 26384, Note_off_c, 9, 43, 64
1, 26404, Control_c, 2, 64, 127
1, 26404, Control_c, 3, 64, 127
1, 26416, Note_off_c, 1, 34, 64
1, 26432, Note_off_c, 3, 79, 64
1, 26436, Note_off_c, 7, 79, 64
1, 26492, Note_on_c, 1, 46, 119
1, 26492, Note_on_c, 3, 81, 100
1, 26496, Note_on_c, 7, 81, 127
1, 26512, Note_off_c, 2, 67, 64
1, 26512, Note_on_c, 9, 44, 125
1, 26524, Note_off_c, 2, 62, 64
1, 26528, Note_off_c, 9, 44, 64
1, 26532, Note_off_c, 2, 56, 64
1, 26548, Note_off_c, 1, 46, 64
1, 26552, Note_off_c, 3, 81, 64
1, 26612, Note_off_c, 7, 81, 64
1, 26620, Note_on_c, 3, 79, 104
1, 26620, Note_on_c, 7, 79, 117
1, 26624, Note_off_c, 4, 67, 64
1, 26640, Note_off_c, 4, 72, 64
1, 26664, Note_off_c, 3, 79, 64
1, 26684, Note_off_c, 7, 79, 64
1, 26716, Note_off_c, 6, 56, 64
1, 26720, Note_off_c, 6, 62, 64
1, 26748, Note_on_c, 1, 45, 126
1, 26748, Note_on_c, 3, 82, 116
1, 26748, Note_on_c, 4, 75, 115
1, 26748, Note_on_c, 4, 67, 102
1, 26748, Note_on_c, 4, 70, 119
1, 26748, Note_on_c, 6, 55, 115
1, 26748, Note_on_c, 6, 61, 123
1, 26748, Note_on_c, 7, 82, 127
1, 26752, Note_on_c, 9, 40, 109
1, 26756, Note_on_c, 9, 42, 108
1, 26756, Note_on_c, 9, 55, 98
1, 26756, Note_on_c, 9, 35, 124
1, 26768, Note_off_c, 9, 40, 64
1, 26772, Note_off_c, 9, 35, 64
1, 26772, Note_off_c, 9, 55, 64
1, 26772, Note_off_c, 9, 42, 64
1, 26776, Control_c, 2, 64, 0
1, 26776, Control_c, 3, 64, 0
1, 26876, Note_on_c, 2, 66, 58
1, 26876, Note_on_c, 2, 61, 80
1, 26876, Note_on_c, 2, 55, 65
1, 27124, Note_on_c, 9, 50, 106
1, 27140, Note_off_c, 9, 50, 64
1, 27184, Control_c, 2, 64, 127
1, 27184, Control_c, 3, 64, 127
1, 27240, Note_off_c, 1, 45, 64
1, 27260, Note_on_c, 1, 33, 115
1, 27272, Note_on_c, 9, 40, 31
1, 27284, Note_off_c, 3, 82, 64
1, 27288, Note_off_c, 9, 40, 64
1, 27300, Note_off_c, 2, 61, 64
1, 27308, Note_off_c, 2, 66, 64
1, 27312, Note_off_c, 2, 55, 64
1, 27388, Note_on_c, 9, 40, 41
1, 27404, Note_off_c, 9, 40, 64
1, 27512, Note_on_c, 9, 47, 101
1, 27528, Note_off_c, 9, 47, 64
1, 27592, Note_off_c, 4, 70, 64
1, 27592, Note_off_c, 4, 67, 64
1, 27596, Note_off_c, 4, 75, 64
1, 27600, Note_off_c, 1, 33, 64
1, 27608, Note_off_c, 6, 61, 64
1, 27616, Note_off_c, 7, 82, 64
1, 27616, Note_off_c, 6, 55, 64
1, 27628, Control_c, 2, 64, 0
1, 27628, Control_c, 3, 64, 0
1, 27648, Note_on_c, 1, 32, 101
1, 27648, Note_on_c, 2, 54, 74
1, 27648, Note_on_c, 2, 60, 82
1, 27648, Note_on_c, 2, 65, 78
1, 27648, Note_on_c, 9, 35, 86
1, 27664, Note_off_c, 9, 35, 64
1, 27752, Note_off_c, 1, 32, 64
1, 27892, Note_on_c, 9, 46, 77
1, 27900, Note_on_c, 3, 81, 118
1, 27900, Note_on_c, 3, 69, 112
1, 27900, Note_on_c, 5, 60, 91
1, 27900, Note_on_c, 5, 54, 88
1, 27904, Note_on_c, 5, 69, 102
1, 27904, Note_on_c, 5, 65, 98
1, 27908, Note_off_c, 9, 46, 64
1, 27964, Control_c, 2, 64, 127
1, 27964, Control_c, 3, 64, 127
1, 28068, Note_off_c, 2, 60, 64
1, 28112, Note_off_c, 2, 54, 64
1, 28152, Note_off_c, 2, 65, 64
1, 28276, Note_on_c, 9, 42, 93
1, 28292, Note_off_c, 9, 42, 64
1, 28292, Note_on_c, 1, 44, 66
1, 28296, Note_off_c, 5, 65, 64
1, 28304, Note_off_c, 5, 54, 64
1, 28308, Note_off_c, 5, 69, 64
1, 28324, Note_off_c, 5, 60, 64
1, 28328, Note_off_c, 1, 44, 64
1, 28404, Note_off_c, 3, 81, 64
1, 28412, Note_on_c, 2, 67, 59
1, 28412, Note_on_c, 3, 76, 80
1, 28416, Note_on_c, 2, 62, 66
1, 28416, Note_on_c, 9, 42, 75
1, 28420, Note_on_c, 1, 46, 101
1, 28420, Note_on_c, 2, 56, 44
1, 28420, Note_on_c, 5, 64, 80
1, 28420, Note_on_c, 5, 67, 84
1, 28420, Note_on_c, 5, 56, 73
1, 28420, Note_on_c, 5, 62, 58
1, 28424, Note_off_c, 3, 69, 64
1, 28428, Control_c, 2, 64, 0
1, 28428, Control_c, 3, 64, 0
1, 28432, Note_off_c, 9, 42, 64
1, 28452, Note_off_c, 2, 56, 64
1, 28480, Note_off_c, 2, 62, 64
1, 28492, Note_off_c, 3, 76, 64
1, 28496, Note_off_c, 2, 67, 64
1, 28524, Note_off_c, 5, 64, 64
1, 28532, Note_off_c, 5, 56, 64
1, 28536, Note_off_c, 5, 62, 64
1, 28540, Note_off_c, 5, 67, 64
1, 28576, Note_off_c, 1, 46, 64
1, 28796, Note_on_c, 2, 67, 51
1, 28796, Note_on_c, 2, 56, 50
1, 28796, Note_on_c, 2, 62, 63
1, 28796, Note_on_c, 3, 74, 82
1, 28800, Note_on_c, 1, 46, 104
1, 28800, Note_on_c, 5, 65, 71
1, 28800, Note_on_c, 9, 42, 79
1, 28804, Note_on_c, 5, 62, 53
1, 28804, Note_on_c, 5, 56, 73
1, 28816, Note_off_c, 9, 42, 64
1, 28860, Note_off_c, 3, 74, 64
1, 28860, Note_off_c, 2, 67, 64
1, 28868, Note_off_c, 2, 62, 64
1, 28880, Note_off_c, 2, 56, 64
1, 28920, Note_off_c, 5, 56, 64
1, 28936, Note_off_c, 5, 65, 64
1, 28968, Note_off_c, 5, 62, 64
1, 29008, Note_off_c, 1, 46, 64
1, 29064, Note_on_c, 9, 42, 67
1, 29080, Note_off_c, 9, 42, 64
1, 29180, Note_on_c, 5, 55, 59
1, 29180, Note_on_c, 5, 66, 92
1, 29184, Note_on_c, 2, 61, 63
1, 29184, Note_on_c, 2, 66, 49
1, 29184, Note_on_c, 2, 55, 65
1, 29184, Note_on_c, 3, 72, 77
1, 29184, Note_on_c, 5, 61, 76
1, 29184, Note_on_c, 9, 46, 75
1, 29188, Note_on_c, 1, 45, 106
1, 29200, Note_off_c, 9, 46, 64
1, 29244, Note_off_c, 2, 61, 64
1, 29252, Note_off_c, 2, 66, 64
1, 29256, Note_off_c, 3, 72, 64
1, 29272, Note_off_c, 2, 55, 64
1, 29304, Note_off_c, 5, 61, 64
1, 29304, Note_off_c, 5, 55, 64
1, 29308, Note_off_c, 5, 66, 64
1, 29352, Note_off_c, 1, 45, 64
1, 29564, Note_on_c, 2, 61, 70
1, 29564, Note_on_c, 2, 66, 60
1, 29564, Note_on_c, 2, 55, 66
1, 29564, Note_on_c, 3, 69, 80
1, 29568, Note_on_c, 5, 61, 73
1, 29572, Note_on_c, 1, 45, 102
1, 29572, Note_on_c, 5, 55, 58
1, 29572, Note_on_c, 5, 66, 84
1, 29572, Note_on_c, 5, 69, 83
1, 29572, Note_on_c, 9, 42, 79
1, 29588, Note_off_c, 9, 42, 64
1, 29636, Note_off_c, 2, 61, 64
1, 29648, Note_off_c, 2, 55, 64
1, 29652, Note_off_c, 2, 66, 64
1, 29676, Note_off_c, 5, 55, 64
1, 29676, Note_off_c, 5, 61, 64
1, 29680, Note_off_c, 5, 66, 64
1, 29680, Note_off_c, 3, 69, 64
1, 29688, Note_off_c, 5, 69, 64
1, 29744, Note_off_c, 1, 45, 64
1, 29832, Note_on_c, 9, 42, 71
1, 29848, Note_off_c, 9, 42, 64
1, 29948, Note_on_c, 3, 72, 83
1, 29948, Note_on_c, 5, 70, 88
1, 29948, Note_on_c, 5, 54, 81
1, 29948, Note_on_c, 5, 60, 66
1, 29952, Note_on_c, 1, 44, 110
1, 29952, Note_on_c, 2, 65, 59
1, 29952, Note_on_c, 9, 46, 69
1, 29956, Note_on_c, 2, 60, 73
1, 29956, Note_on_c, 2, 54, 60
1, 29956, Note_on_c, 5, 65, 95
1, 29968, Note_off_c, 9, 46, 64
1, 30004, Note_off_c, 2, 60, 64
1, 30016, Note_off_c, 2, 65, 64
1, 30020, Note_off_c, 2, 54, 64
1, 30024, Note_off_c, 3, 72, 64
1, 30140, Note_off_c, 1, 44, 64
1, 30148, Note_off_c, 5, 70, 64
1, 30156, Note_off_c, 5, 54, 64
1, 30156, Control_c, 2, 64, 127
1, 30156, Control_c, 3, 64, 127
1, 30164, Note_off_c, 5, 60, 64
1, 30180, Note_off_c, 5, 65, 64
1, 30204, Note_on_c, 1, 43, 98
1, 30204, Note_on_c, 2, 64, 56
1, 30204, Note_on_c, 2, 59, 73
1, 30204, Note_on_c, 2, 53, 67
1, 30204, Note_on_c, 3, 74, 93
1, 30204, Note_on_c, 5, 53, 70
1, 30208, Note_on_c, 5, 59, 96
1, 30208, Note_on_c, 5, 69, 92
1, 30212, Note_on_c, 5, 64, 96
1, 30216, Note_on_c, 9, 35, 71
1, 30232, Note_off_c, 9, 35, 64
1, 30280, Note_off_c, 3, 74, 64
1, 30280, Note_off_c, 2, 53, 64
1, 30284, Note_off_c, 2, 59, 64
1, 30292, Note_off_c, 5, 69, 64
1, 30296, Note_off_c, 5, 59, 64
1, 30296, Note_off_c, 2, 64, 64
1, 30304, Note_off_c, 5, 64, 64
1, 30304, Note_off_c, 5, 53, 64
1, 30336, Note_on_c, 9, 42, 84
1, 30336, Note_on_c, 9, 40, 59
1, 30352, Note_off_c, 9, 40, 64
1, 30352, Note_off_c, 9, 42, 64
1, 30404, Note_off_c, 1, 43, 64
1, 30464, Note_on_c, 9, 50, 48
1, 30480, Note_off_c, 9, 50, 64
1, 30528, Control_c, 2, 64, 0
1, 30528, Control_c, 3, 64, 0
1, 30588, Note_on_c, 1, 36, 100
1, 30588, Note_on_c, 2, 57, 76
1, 30588, Note_on_c, 2, 52, 73
1, 30588, Note_on_c, 2, 62, 79
1, 30588, Note_on_c, 3, 76, 102
1, 30588, Note_on_c, 5, 52, 66
1, 30588, Note_on_c, 5, 62, 78
1, 30588, Note_on_c, 5, 67, 93
1, 30588, Note_on_c, 5, 57, 68
1, 30592, Note_on_c, 9, 51, 88
1, 30600, Note_on_c, 9, 35, 94
1, 30608, Note_off_c, 9, 51, 64
1, 30616, Note_off_c, 9, 35, 64
1, 31056, Note_off_c, 1, 36, 64
1, 31088, Control_c, 2, 64, 127
1, 31088, Control_c, 3, 64, 127
1, 31108, Note_on_c, 9, 42, 71
1, 31124, Note_off_c, 9, 42, 64
1, 31196, Note_off_c, 2, 52, 64
1, 31212, Note_off_c, 2, 62, 64
1, 31236, Note_off_c, 2, 57, 64
1, 31348, Note_off_c, 5, 62, 64
1, 31356, Note_off_c, 5, 57, 64
1, 31356, Note_off_c, 5, 67, 64
1, 31360, Note_on_c, 1, 36, 65
1, 31368, Note_on_c, 9, 42, 63
1, 31372, Note_off_c, 5, 52, 64
1, 31384, Note_off_c, 9, 42, 64
1, 31444, Note_off_c, 1, 36, 64
1, 31480, Control_c, 2, 64, 0
1, 31480, Control_c, 3, 64, 0
1, 31484, Note_on_c, 1, 31, 83
1, 31484, Note_on_c, 2, 52, 67
1, 31484, Note_on_c, 2, 62, 68
1, 31484, Note_on_c, 2, 57, 66
1, 31484, Note_on_c, 5, 52, 76
1, 31488, Note_on_c, 9, 46, 70
1, 31492, Note_on_c, 5, 62, 98
1, 31492, Note_on_c, 5, 57, 77
1, 31492, Note_on_c, 5, 67, 93
1, 31504, Note_off_c, 9, 46, 64
1, 31668, Note_off_c, 5, 57, 64
1, 31676, Note_off_c, 5, 52, 64
1, 31684, Note_off_c, 5, 67, 64
1, 31688, Note_off_c, 5, 62, 64
1, 31740, Note_on_c, 5, 52, 101
1, 31740, Note_on_c, 5, 57, 95
1, 31740, Note_on_c, 5, 67, 106
1, 31740, Note_on_c, 5, 62, 93
1, 31780, Note_off_c, 5, 62, 64
1, 31788, Note_off_c, 5, 52, 64
1, 31792, Note_off_c, 5, 67, 64
1, 31792, Note_off_c, 5, 57, 64
1, 31808, Control_c, 2, 64, 127
1, 31808, Control_c, 3, 64, 127
1, 31840, Note_off_c, 1, 31, 64
1, 31876, Note_off_c, 2, 52, 64
1, 31876, Note_on_c, 1, 38, 78
1, 31876, Note_on_c, 9, 42, 85
1, 31884, Note_off_c, 2, 57, 64
1, 31892, Note_off_c, 9, 42, 64
1, 31892, Note_off_c, 2, 62, 64
1, 31960, Note_off_c, 3, 76, 64
1, 32060, Note_off_c, 1, 38, 64
1, 32124, Note_on_c, 1, 39, 80
1, 32136, Note_on_c, 9, 42, 56
1, 32136, Note_on_c, 9, 35, 39
1, 32152, Note_off_c, 9, 35, 64
1, 32152, Note_off_c, 9, 42, 64
1, 32244, Note_off_c, 1, 39, 64
1, 32256, Note_on_c, 1, 40, 97
1, 32256, Note_on_c, 2, 52, 59
1, 32256, Control_c, 2, 64, 0
1, 32256, Note_on_c, 2, 62, 63
1, 32256, Note_on_c, 2, 56, 48
1, 32256, Note_on_c, 3, 76, 89
1, 32256, Control_c, 3, 64, 0
1, 32256, Note_on_c, 9, 35, 65
1, 32256, Note_on_c, 9, 46, 61
1, 32272, Note_off_c, 9, 46, 64
1, 32272, Note_off_c, 9, 35, 64
1, 32448, Pitch_bend_c, 6, 7808
1, 32460, Pitch_bend_c, 6, 7104
1, 32468, Pitch_bend_c, 6, 6592
1, 32472, Pitch_bend_c, 6, 6080
1, 32484, Pitch_bend_c, 6, 5120
1, 32492, Pitch_bend_c, 6, 4544
1, 32508, Note_on_c, 6, 52, 102
1, 32508, Note_on_c, 6, 56, 93
1, 32508, Note_on_c, 6, 62, 101
1, 32532, Pitch_bend_c, 6, 3712
1, 32540, Pitch_bend_c, 6, 3776
1, 32544, Pitch_bend_c, 6, 3904
1, 32556, Pitch_bend_c, 6, 4224
1, 32560, Pitch_bend_c, 6, 4352
1, 32564, Control_c, 2, 64, 127
1, 32564, Control_c, 3, 64, 127
1, 32568, Pitch_bend_c, 6, 4416
1, 32580, Pitch_bend_c, 6, 4928
1, 32584, Pitch_bend_c, 6, 5184
1, 32592, Pitch_bend_c, 6, 5248
1, 32596, Note_off_c, 1, 40, 64
1, 32604, Pitch_bend_c, 6, 5696
1, 32608, Pitch_bend_c, 6, 5824
1, 32616, Pitch_bend_c, 6, 5952
1, 32628, Pitch_bend_c, 6, 6208
1, 32632, Pitch_bend_c, 6, 6528
1, 32636, Pitch_bend_c, 6, 6592
1, 32644, Note_on_c, 9, 42, 80
1, 32648, Note_off_c, 2, 52, 64
1, 32652, Pitch_bend_c, 6, 6720
1, 32656, Pitch_bend_c, 6, 6784
1, 32660, Note_off_c, 9, 42, 64
1, 32660, Note_off_c, 2, 62, 64
1, 32660, Pitch_bend_c, 6, 6848
1, 32676, Pitch_bend_c, 6, 6976
1, 32680, Pitch_bend_c, 6, 7040
1, 32696, Pitch_bend_c, 6, 7168
1, 32704, Note_off_c, 2, 56, 64
1, 32704, Pitch_bend_c, 6, 7296
1, 32708, Pitch_bend_c, 6, 7424
1, 32720, Pitch_bend_c, 6, 7616
1, 32728, Pitch_bend_c, 6, 7808
1, 32732, Pitch_bend_c, 6, 7872
1, 32748, Pitch_bend_c, 6, 8192
1, 32876, Note_off_c, 3, 76, 64
1, 32896, Note_on_c, 1, 35, 59
1, 32904, Note_on_c, 9, 42, 57
1, 32920, Note_off_c, 9, 42, 64
1, 32944, Note_off_c, 6, 56, 64
1, 32972, Note_off_c, 6, 52, 64
1, 32976, Note_off_c, 1, 35, 64
1, 32976, Note_off_c, 6, 62, 64
1, 33020, Note_on_c, 2, 55, 69
1, 33020, Note_on_c, 2, 51, 53
1, 33020, Note_on_c, 2, 61, 48
1, 33024, Note_on_c, 1, 39, 80
1, 33024, Note_on_c, 6, 61, 84
1, 33024, Note_on_c, 9, 46, 61
1, 33028, Control_c, 2, 64, 0
1, 33028, Control_c, 3, 64, 0
1, 33028, Note_on_c, 6, 55, 86
1, 33028, Note_on_c, 6, 51, 90
1, 33040, Note_off_c, 9, 46, 64
1, 33152, Note_off_c, 6, 51, 64
1, 33164, Note_off_c, 6, 55, 64
1, 33164, Note_off_c, 6, 61, 64
1, 33268, Note_on_c, 9, 40, 73
1, 33276, Note_on_c, 3, 71, 100
1, 33284, Note_off_c, 9, 40, 64
1, 33312, Control_c, 2, 64, 127
1, 33312, Control_c, 3, 64, 127
1, 33340, Note_off_c, 3, 71, 64
1, 33372, Note_off_c, 2, 55, 64
1, 33392, Note_off_c, 1, 39, 64
1, 33404, Note_off_c, 2, 51, 64
1, 33408, Note_on_c, 1, 34, 81
1, 33408, Note_on_c, 6, 51, 99
1, 33408, Note_on_c, 9, 42, 79
1, 33412, Note_on_c, 3, 70, 93
1, 33412, Note_on_c, 6, 61, 101
1, 33412, Note_on_c, 6, 55, 69
1, 33424, Note_off_c, 9, 42, 64
1, 33436, Note_off_c, 2, 61, 64
1, 33492, Note_off_c, 3, 70, 64
1, 33532, Note_off_c, 6, 51, 64
1, 33536, Note_on_c, 9, 47, 28
1, 33552, Note_off_c, 9, 47, 64
1, 33564, Note_off_c, 6, 55, 64
1, 33564, Note_off_c, 6, 61, 64
1, 33660, Note_on_c, 3, 69, 87
1, 33660, Note_on_c, 9, 47, 75
1, 33664, Control_c, 2, 64, 0
1, 33664, Control_c, 3, 64, 0
1, 33672, Note_on_c, 9, 42, 61
1, 33676, Note_off_c, 9, 47, 64
1, 33688, Note_off_c, 9, 42, 64
1, 33764, Note_off_c, 1, 34, 64
1, 33788, Note_on_c, 6, 60, 102
1, 33788, Note_on_c, 6, 50, 86
1, 33788, Note_on_c, 6, 55, 100
1, 33792, Note_on_c, 1, 38, 91
1, 33792, Note_on_c, 2, 60, 70
1, 33792, Note_on_c, 2, 50, 59
1, 33792, Note_on_c, 2, 55, 57
1, 33792, Note_on_c, 9, 35, 72
1, 33808, Note_off_c, 9, 35, 64
1, 33852, Note_off_c, 3, 69, 64
1, 33904, Note_off_c, 6, 55, 64
1, 33932, Note_off_c, 6, 60, 64
1, 33944, Note_off_c, 6, 50, 64
1, 34044, Note_on_c, 3, 81, 117
1, 34044, Note_on_c, 3, 69, 109
1, 34044, Note_on_c, 9, 55, 105
1, 34048, Note_on_c, 5, 64, 83
1, 34052, Note_on_c, 5, 55, 95
1, 34052, Note_on_c, 5, 69, 84
1, 34052, Note_on_c, 5, 60, 82
1, 34060, Note_off_c, 9, 55, 64
1, 34064, Note_off_c, 1, 38, 64
1, 34108, Control_c, 2, 64, 127
1, 34108, Control_c, 3, 64, 127
1, 34176, Note_on_c, 9, 42, 80
1, 34192, Note_off_c, 9, 42, 64
1, 34392, Note_off_c, 2, 55, 64
1, 34392, Note_off_c, 2, 50, 64
1, 34392, Note_off_c, 2, 60, 64
1, 34396, Note_off_c, 5, 64, 64
1, 34432, Note_on_c, 1, 38, 55
1, 34436, Note_off_c, 5, 55, 64
1, 34440, Note_on_c, 9, 42, 62
1, 34456, Note_off_c, 9, 42, 64
1, 34460, Note_off_c, 5, 69, 64
1, 34476, Note_off_c, 5, 60, 64
1, 34496, Note_off_c, 3, 81, 64
1, 34520, Note_off_c, 1, 38, 64
1, 34556, Note_on_c, 2, 50, 63
1, 34556, Note_on_c, 2, 54, 74
1, 34556, Note_on_c, 2, 60, 75
1, 34556, Control_c, 2, 64, 0
1, 34556, Control_c, 3, 64, 0
1, 34556, Note_on_c, 3, 76, 84
1, 34556, Note_on_c, 5, 57, 52
1, 34556, Note_on_c, 5, 54, 70
1, 34560, Note_on_c, 1, 50, 101
1, 34564, Note_on_c, 5, 72, 91
1, 34564, Note_on_c, 5, 64, 85
1, 34564, Note_on_c, 9, 46, 69
1, 34580, Note_off_c, 9, 46, 64
1, 34596, Note_off_c, 3, 69, 64
1, 34600, Note_off_c, 2, 50, 64
1, 34604, Note_off_c, 3, 76, 64
1, 34608, Note_off_c, 2, 54, 64
1, 34612, Note_off_c, 2, 60, 64
1, 34680, Note_off_c, 5, 54, 64
1, 34692, Note_off_c, 5, 64, 64
1, 34692, Note_off_c, 5, 72, 64
1, 34708, Note_off_c, 5, 57, 64
1, 34716, Note_off_c, 1, 50, 64
1, 34940, Note_on_c, 2, 50, 60
1, 34940, Note_on_c, 2, 60, 57
1, 34940, Note_on_c, 2, 54, 68
1, 34940, Note_on_c, 3, 74, 87
1, 34940, Note_on_c, 5, 54, 81
1, 34944, Note_on_c, 1, 48, 93
1, 34944, Note_on_c, 5, 60, 73
1, 34944, Note_on_c, 9, 42, 89
1, 34948, Note_on_c, 5, 74, 96
1, 34948, Note_on_c, 5, 64, 83
1, 34960, Note_off_c, 9, 42, 64
1, 34992, Note_off_c, 2, 54, 64
1, 34992, Note_off_c, 2, 50, 64
1, 35004, Note_off_c, 3, 74, 64
1, 35016, Note_off_c, 2, 60, 64
1, 35088, Note_off_c, 5, 64, 64
1, 35096, Note_off_c, 5, 74, 64
1, 35096, Note_off_c, 1, 48, 64
1, 35104, Note_off_c, 5, 54, 64
1, 35128, Note_off_c, 5, 60, 64
1, 35208, Note_on_c, 9, 42, 63
1, 35224, Note_off_c, 9, 42, 64
1, 35328, Note_on_c, 2, 57, 65
1, 35328, Note_on_c, 2, 53, 59
1, 35328, Note_on_c, 2, 64, 51
1, 35328, Note_on_c, 3, 72, 87
1, 35328, Note_on_c, 9, 46, 62
1, 35332, Note_on_c, 1, 41, 102
1, 35332, Note_on_c, 5, 72, 95
1, 35332, Note_on_c, 5, 64, 83
1, 35332, Note_on_c, 5, 57, 78
1, 35332, Note_on_c, 5, 53, 86
1, 35344, Note_off_c, 9, 46, 64
1, 35388, Note_off_c, 2, 53, 64
1, 35408, Note_off_c, 2, 57, 64
1, 35412, Note_off_c, 3, 72, 64
1, 35416, Note_off_c, 2, 64, 64
1, 35448, Note_off_c, 5, 64, 64
1, 35464, Note_off_c, 5, 53, 64
1, 35464, Note_off_c, 5, 72, 64
1, 35488, Note_off_c, 5, 57, 64
1, 35576, Note_off_c, 1, 41, 64
1, 35712, Note_on_c, 3, 69, 84
1, 35712, Note_on_c, 9, 42, 89
1, 35716, Note_on_c, 2, 53, 47
1, 35716, Note_on_c, 2, 57, 61
1, 35716, Note_on_c, 2, 64, 54
1, 35716, Note_on_c, 5, 53, 84
1, 35716, Note_on_c, 5, 60, 85
1, 35716, Note_on_c, 5, 69, 96
1, 35716, Note_on_c, 5, 64, 74
1, 35728, Note_off_c, 9, 42, 64
1, 35808, Note_off_c, 2, 64, 64
1, 35808, Note_off_c, 2, 57, 64
1, 35820, Note_off_c, 2, 53, 64
1, 35824, Note_off_c, 3, 69, 64
1, 35836, Note_off_c, 5, 64, 64
1, 35844, Note_off_c, 5, 69, 64
1, 35844, Note_off_c, 5, 53, 64
1, 35848, Note_off_c, 5, 60, 64
1, 35968, Note_on_c, 1, 39, 82
1, 35976, Note_on_c, 9, 42, 61
1, 35992, Note_off_c, 9, 42, 64
1, 36064, Note_off_c, 1, 39, 64
1, 36092, Note_on_c, 2, 62, 68
1, 36092, Note_on_c, 2, 52, 59
1, 36092, Note_on_c, 2, 55, 65
1, 36092, Note_on_c, 3, 72, 96
1, 36092, Note_on_c, 5, 52, 82
1, 36092, Note_on_c, 5, 72, 63
1, 36096, Note_on_c, 1, 40, 97
1, 36096, Note_on_c, 5, 67, 69
1, 36096, Note_on_c, 9, 46, 71
1, 36100, Note_on_c, 5, 62, 67
1, 36112, Note_off_c, 9, 46, 64
1, 36160, Note_off_c, 2, 55, 64
1, 36168, Note_off_c, 2, 62, 64
1, 36176, Note_off_c, 2, 52, 64
1, 36192, Note_off_c, 3, 72, 64
1, 36244, Note_off_c, 5, 62, 64
1, 36252, Note_off_c, 5, 52, 64
1, 36256, Note_off_c, 5, 67, 64
1, 36268, Note_off_c, 5, 72, 64
1, 36276, Note_off_c, 1, 40, 64
1, 36348, Note_on_c, 2, 60, 76
1, 36348, Note_on_c, 2, 50, 66
1, 36348, Note_on_c, 2, 53, 67
1, 36348, Note_on_c, 3, 74, 97
1, 36348, Note_on_c, 5, 65, 88
1, 36348, Note_on_c, 5, 50, 88
1, 36348, Note_on_c, 5, 74, 90
1, 36352, Note_on_c, 1, 38, 83
1, 36352, Note_on_c, 5, 60, 88
1, 36356, Note_on_c, 9, 35, 86
1, 36372, Note_off_c, 9, 35, 64
1, 36436, Note_off_c, 5, 50, 64
1, 36444, Note_off_c, 5, 65, 64
1, 36444, Note_off_c, 2, 53, 64
1, 36444, Note_off_c, 2, 50, 64
1, 36448, Note_off_c, 3, 74, 64
1, 36456, Note_off_c, 5, 74, 64
1, 36456, Note_off_c, 2, 60, 64
1, 36480, Note_on_c, 9, 42, 62
1, 36484, Note_off_c, 5, 60, 64
1, 36496, Note_off_c, 9, 42, 64
1, 36500, Note_off_c, 1, 38, 64
1, 36732, Note_on_c, 2, 52, 44
1, 36732, Note_on_c, 2, 59, 76
1, 36732, Note_on_c, 2, 48, 56
1, 36732, Note_on_c, 3, 76, 102
1, 36732, Note_on_c, 5, 76, 100
1, 36732, Note_on_c, 5, 48, 95
1, 36732, Note_on_c, 5, 59, 91
1, 36732, Note_on_c, 5, 67, 85
1, 36736, Note_on_c, 1, 36, 107
1, 36740, Note_on_c, 9, 46, 70
1, 36740, Note_on_c, 9, 35, 85
1, 36756, Note_off_c, 9, 35, 64
1, 36756, Note_off_c, 9, 46, 64
1, 37204, Control_c, 2, 64, 127
1, 37204, Control_c, 3, 64, 127
1, 37220, Note_off_c, 1, 36, 64
1, 37248, Note_on_c, 9, 42, 72
1, 37264, Note_off_c, 9, 42, 64
1, 37344, Note_off_c, 2, 52, 64
1, 37360, Note_off_c, 2, 48, 64
1, 37372, Note_off_c, 2, 59, 64
1, 37504, Note_on_c, 1, 36, 70
1, 37512, Note_on_c, 9, 42, 55
1, 37528, Note_off_c, 9, 42, 64
1, 37580, Note_off_c, 5, 67, 64
1, 37584, Note_off_c, 5, 59, 64
1, 37588, Note_off_c, 5, 48, 64
1, 37596, Note_off_c, 5, 76, 64
1, 37600, Note_off_c, 1, 36, 64
1, 37628, Note_on_c, 2, 52, 68
1, 37628, Note_on_c, 2, 59, 64
1, 37628, Note_on_c, 2, 48, 41
1, 37632, Note_on_c, 1, 31, 100
1, 37632, Note_on_c, 5, 76, 98
1, 37632, Note_on_c, 9, 46, 75
1, 37636, Control_c, 2, 64, 0
1, 37636, Control_c, 3, 64, 0
1, 37636, Note_on_c, 5, 59, 70
1, 37636, Note_on_c, 5, 67, 88
1, 37636, Note_on_c, 5, 48, 84
1, 37648, Note_off_c, 9, 46, 64
1, 37812, Note_off_c, 5, 59, 64
1, 37824, Note_off_c, 5, 48, 64
1, 37836, Note_off_c, 5, 67, 64
1, 37840, Note_off_c, 5, 76, 64
1, 37884, Note_on_c, 3, 72, 97
1, 37884, Note_on_c, 5, 76, 96
1, 37884, Note_on_c, 5, 67, 97
1, 37884, Note_on_c, 5, 59, 86
1, 37884, Note_on_c, 5, 48, 84
1, 37884, Note_on_c, 6, 60, 97
1, 37884, Note_on_c, 7, 60, 73
1, 37920, Control_c, 2, 64, 127
1, 37920, Control_c, 3, 64, 127
1, 37932, Note_off_c, 5, 59, 64
1, 37932, Note_off_c, 5, 67, 64
1, 37936, Note_off_c, 5, 48, 64
1, 37936, Note_off_c, 5, 76, 64
1, 37984, Note_off_c, 2, 48, 64
1, 37992, Note_off_c, 7, 60, 64
1, 37992, Note_off_c, 6, 60, 64
1, 37996, Note_off_c, 2, 52, 64
1, 38008, Note_off_c, 3, 72, 64
1, 38012, Note_on_c, 6, 59, 89
1, 38012, Note_on_c, 7, 59, 75
1, 38016, Note_on_c, 3, 71, 96
1, 38016, Note_on_c, 9, 42, 79
1, 38024, Note_off_c, 2, 59, 64
1, 38032, Note_off_c, 9, 42, 64
1, 38080, Note_off_c, 1, 31, 64
1, 38112, Note_off_c, 3, 71, 64
1, 38224, Note_off_c, 6, 59, 64
1, 38240, Note_off_c, 7, 59, 64
1, 38268, Note_on_c, 1, 36, 64
1, 38268, Note_on_c, 3, 70, 95
1, 38268, Note_on_c, 6, 58, 90
1, 38268, Note_on_c, 7, 58, 68
1, 38280, Note_on_c, 9, 42, 63
1, 38296, Note_off_c, 9, 42, 64
1, 38320, Control_c, 2, 64, 0
1, 38320, Control_c, 3, 64, 0
1, 38352, Note_off_c, 1, 36, 64
1, 38400, Note_on_c, 1, 30, 96
1, 38400, Note_on_c, 2, 64, 57
1, 38400, Note_on_c, 2, 58, 48
1, 38400, Note_on_c, 2, 54, 51
1, 38400, Note_on_c, 9, 46, 70
1, 38416, Note_off_c, 9, 46, 64
1, 38620, Control_c, 2, 64, 127
1, 38620, Control_c, 3, 64, 127
1, 38748, Note_off_c, 2, 54, 64
1, 38748, Note_off_c, 2, 58, 64
1, 38760, Note_off_c, 2, 64, 64
1, 38784, Note_on_c, 9, 42, 81
1, 38800, Note_off_c, 9, 42, 64
1, 38816, Note_off_c, 1, 30, 64
1, 39036, Note_on_c, 1, 30, 77
1, 39044, Note_on_c, 9, 42, 55
1, 39060, Note_off_c, 9, 42, 64
1, 39120, Note_off_c, 1, 30, 64
1, 39148, Note_off_c, 3, 70, 64
1, 39164, Note_on_c, 1, 42, 119
1, 39164, Note_on_c, 2, 58, 49
1, 39164, Note_on_c, 2, 54, 41
1, 39164, Note_on_c, 2, 64, 45
1, 39168, Note_on_c, 9, 46, 70
1, 39176, Control_c, 2, 64, 0
1, 39176, Control_c, 3, 64, 0
1, 39184, Note_off_c, 9, 46, 64
1, 39276, Note_off_c, 3, 76, 64
1, 39424, Note_on_c, 9, 40, 28
1, 39440, Note_off_c, 9, 40, 64
1, 39520, Control_c, 2, 64, 127
1, 39520, Control_c, 3, 64, 127
1, 39528, Note_off_c, 1, 42, 64
1, 39548, Note_on_c, 1, 40, 100
1, 39548, Note_on_c, 3, 72, 103
1, 39548, Note_on_c, 9, 44, 75
1, 39552, Note_on_c, 9, 40, 91
1, 39564, Note_off_c, 9, 44, 64
1, 39568, Note_off_c, 9, 40, 64
1, 39596, Note_off_c, 2, 58, 64
1, 39608, Note_off_c, 2, 64, 64
1, 39608, Note_off_c, 2, 54, 64
1, 39616, Note_off_c, 3, 72, 64
1, 39796, Note_off_c, 7, 58, 64
1, 39804, Note_on_c, 3, 73, 96
1, 39816, Note_on_c, 9, 42, 60
1, 39832, Note_off_c, 9, 42, 64
1, 39880, Note_off_c, 3, 73, 64
1, 39888, Control_c, 2, 64, 0
1, 39888, Control_c, 3, 64, 0
1, 39916, Note_off_c, 1, 40, 64
1, 39920, Note_off_c, 6, 58, 64
1, 39932, Note_on_c, 6, 57, 83
1, 39932, Note_on_c, 7, 57, 72
1, 39936, Note_on_c, 1, 41, 96
1, 39936, Note_on_c, 2, 64, 48
1, 39936, Note_on_c, 2, 57, 44
1, 39936, Note_on_c, 3, 74, 93
1, 39936, Note_on_c, 9, 46, 74
1, 39936, Note_on_c, 9, 35, 76
1, 39940, Note_on_c, 2, 53, 54
1, 39952, Note_off_c, 9, 35, 64
1, 39952, Note_off_c, 9, 46, 64
1, 40080, Control_c, 2, 64, 127
1, 40080, Control_c, 3, 64, 127
1, 40156, Note_off_c, 1, 41, 64
1, 40204, Note_off_c, 3, 74, 64
1, 40320, Note_on_c, 9, 42, 77
1, 40324, Note_off_c, 2, 53, 64
1, 40324, Note_on_c, 3, 74, 100
1, 40336, Note_off_c, 9, 42, 64
1, 40356, Note_off_c, 2, 64, 64
1, 40376, Note_off_c, 2, 57, 64
1, 40416, Note_off_c, 3, 74, 64
1, 40572, Note_on_c, 1, 36, 88
1, 40572, Note_on_c, 3, 73, 96
1, 40584, Note_on_c, 9, 42, 62
1, 40600, Note_off_c, 9, 42, 64
1, 40656, Note_off_c, 3, 73, 64
1, 40656, Note_off_c, 1, 36, 64
1, 40656, Control_c, 2, 64, 0
1, 40656, Control_c, 3, 64, 0
1, 40692, Note_off_c, 7, 57, 64
1, 40700, Note_on_c, 1, 29, 96
1, 40700, Note_on_c, 2, 53, 65
1, 40700, Note_on_c, 2, 63, 53
1, 40700, Note_on_c, 2, 56, 52
1, 40700, Note_on_c, 6, 56, 81
1, 40700, Note_on_c, 7, 56, 79
1, 40704, Note_on_c, 3, 74, 101
1, 40704, Note_on_c, 9, 46, 64
1, 40716, Note_off_c, 6, 57, 64
1, 40720, Note_off_c, 9, 46, 64
1, 40928, Note_off_c, 3, 74, 64
1, 40956, Note_on_c, 3, 75, 92
1, 40968, Control_c, 2, 64, 127
1, 40968, Control_c, 3, 64, 127
1, 41024, Note_off_c, 3, 75, 64
1, 41044, Note_off_c, 2, 53, 64
1, 41064, Note_off_c, 2, 56, 64
1, 41076, Note_off_c, 2, 63, 64
1, 41084, Note_on_c, 3, 74, 97
1, 41088, Note_on_c, 9, 42, 82
1, 41104, Note_off_c, 9, 42, 64
1, 41156, Note_off_c, 3, 74, 64
1, 41292, Note_off_c, 1, 29, 64
1, 41340, Note_on_c, 1, 36, 78
1, 41340, Note_on_c, 3, 72, 92
1, 41352, Note_on_c, 9, 42, 60
1, 41368, Note_off_c, 9, 42, 64
1, 41372, Control_c, 2, 64, 0
1, 41372, Control_c, 3, 64, 0
1, 41420, Note_off_c, 1, 36, 64
1, 41436, Note_off_c, 6, 56, 64
1, 41468, Note_on_c, 6, 55, 86
1, 41468, Note_on_c, 7, 55, 76
1, 41472, Note_on_c, 1, 40, 98
1, 41472, Note_on_c, 2, 52, 47
1, 41472, Note_on_c, 2, 62, 58
1, 41472, Note_on_c, 2, 55, 61
1, 41472, Note_on_c, 9, 46, 65
1, 41476, Note_off_c, 7, 56, 64
1, 41488, Note_off_c, 9, 46, 64
1, 41708, Note_off_c, 3, 72, 64
1, 41724, Note_on_c, 3, 67, 82
1, 41792, Control_c, 2, 64, 127
1, 41792, Control_c, 3, 64, 127
1, 41856, Note_off_c, 2, 52, 64
1, 41856, Note_on_c, 9, 42, 65
1, 41872, Note_off_c, 9, 42, 64
1, 41872, Note_off_c, 2, 55, 64
1, 41912, Note_off_c, 2, 62, 64
1, 41992, Note_off_c, 1, 40, 64
1, 42108, Note_on_c, 1, 38, 72
1, 42120, Note_on_c, 9, 42, 59
1, 42136, Note_off_c, 9, 42, 64
1, 42136, Note_off_c, 6, 55, 64
1, 42180, Note_off_c, 1, 38, 64
1, 42240, Note_on_c, 1, 42, 99
1, 42240, Note_on_c, 2, 58, 55
1, 42240, Note_on_c, 2, 54, 52
1, 42240, Control_c, 2, 64, 0
1, 42240, Note_on_c, 2, 64, 57
1, 42240, Control_c, 3, 64, 0
1, 42240, Note_on_c, 9, 46, 55
1, 42248, Note_off_c, 7, 55, 64
1, 42256, Note_off_c, 9, 46, 64
1, 42288, Note_off_c, 3, 67, 64
1, 42492, Note_on_c, 6, 60, 106
1, 42492, Note_on_c, 7, 60, 83
1, 42496, Note_on_c, 9, 40, 101
1, 42512, Note_off_c, 9, 40, 64
1, 42592, Control_c, 2, 64, 127
1, 42592, Control_c, 3, 64, 127
1, 42616, Note_off_c, 7, 60, 64
1, 42620, Note_off_c, 1, 42, 64
1, 42620, Note_on_c, 6, 59, 93
1, 42620, Note_on_c, 7, 59, 74
1, 42624, Note_on_c, 1, 40, 75
1, 42624, Note_on_c, 9, 44, 100
1, 42640, Note_off_c, 9, 44, 64
1, 42644, Note_off_c, 6, 60, 64
1, 42656, Note_off_c, 2, 58, 64
1, 42672, Note_off_c, 2, 64, 64
1, 42672, Note_off_c, 2, 54, 64
1, 42808, Note_off_c, 7, 59, 64
1, 42868, Note_off_c, 6, 59, 64
1, 42872, Note_on_c, 7, 58, 79
1, 42876, Note_on_c, 3, 73, 101
1, 42876, Note_on_c, 6, 58, 70
1, 42876, Note_on_c, 9, 47, 53
1, 42884, Note_on_c, 9, 35, 44
1, 42892, Note_off_c, 9, 47, 64
1, 42900, Note_off_c, 9, 35, 64
1, 42952, Control_c, 2, 64, 0
1, 42952, Control_c, 3, 64, 0
1, 42996, Note_off_c, 1, 40, 64
1, 43004, Note_on_c, 7, 57, 78
1, 43008, Note_on_c, 1, 41, 96
1, 43008, Note_on_c, 2, 53, 55
1, 43008, Note_on_c, 2, 57, 57
1, 43008, Note_on_c, 2, 64, 49
1, 43008, Note_on_c, 3, 74, 99
1, 43008, Note_on_c, 6, 57, 82
1, 43008, Note_on_c, 9, 35, 79
1, 43008, Note_on_c, 9, 46, 71
1, 43016, Note_off_c, 3, 73, 64
1, 43016, Note_off_c, 7, 58, 64
1, 43020, Note_off_c, 6, 58, 64
1, 43024, Note_off_c, 9, 46, 64
1, 43024, Note_off_c, 9, 35, 64
1, 43124, Control_c, 2, 64, 127
1, 43124, Control_c, 3, 64, 127
1, 43248, Note_off_c, 2, 64, 64
1, 43272, Note_off_c, 2, 57, 64
1, 43308, Note_off_c, 3, 74, 64
1, 43352, Note_off_c, 1, 41, 64
1, 43360, Note_off_c, 2, 53, 64
1, 43392, Note_on_c, 9, 42, 79
1, 43396, Note_on_c, 3, 74, 102
1, 43408, Note_off_c, 9, 42, 64
1, 43468, Note_off_c, 3, 74, 64
1, 43644, Note_on_c, 3, 73, 111
1, 43648, Note_on_c, 1, 36, 77
1, 43652, Note_on_c, 9, 42, 68
1, 43668, Note_off_c, 9, 42, 64
1, 43712, Note_off_c, 1, 36, 64
1, 43760, Note_off_c, 7, 57, 64
1, 43768, Note_off_c, 6, 57, 64
1, 43768, Control_c, 2, 64, 0
1, 43768, Control_c, 3, 64, 0
1, 43772, Note_on_c, 6, 56, 80
1, 43772, Note_on_c, 7, 56, 74
1, 43772, Note_on_c, 9, 46, 75
1, 43776, Note_on_c, 1, 34, 110
1, 43780, Note_on_c, 2, 46, 67
1, 43780, Note_on_c, 2, 56, 49
1, 43780, Note_on_c, 2, 50, 69
1, 43780, Note_on_c, 3, 74, 105
1, 43788, Note_off_c, 9, 46, 64
1, 43792, Note_off_c, 3, 73, 64
1, 43992, Note_off_c, 3, 74, 64
1, 44012, Control_c, 2, 64, 127
1, 44012, Control_c, 3, 64, 127
1, 44028, Note_on_c, 3, 76, 95
1, 44068, Note_off_c, 2, 50, 64
1, 44104, Note_off_c, 3, 76, 64
1, 44132, Note_off_c, 2, 46, 64
1, 44160, Note_on_c, 9, 42, 88
1, 44164, Note_on_c, 3, 77, 109
1, 44176, Note_off_c, 9, 42, 64
1, 44208, Note_off_c, 3, 77, 64
1, 44212, Note_off_c, 2, 56, 64
1, 44336, Note_off_c, 6, 56, 64
1, 44372, Note_off_c, 7, 56, 64
1, 44412, Note_on_c, 3, 79, 99
1, 44420, Note_on_c, 9, 42, 66
1, 44432, Note_off_c, 1, 34, 64
1, 44436, Note_off_c, 9, 42, 64
1, 44456, Control_c, 2, 64, 0
1, 44456, Control_c, 3, 64, 0
1, 44544, Note_on_c, 1, 45, 123
1, 44544, Note_on_c, 2, 45, 60
1, 44544, Note_on_c, 2, 50, 76
1, 44544, Note_on_c, 2, 55, 68
1, 44544, Note_on_c, 4, 64, 92
1, 44544, Note_on_c, 4, 67, 90
1, 44544, Note_on_c, 5, 59, 93
1, 44544, Note_on_c, 5, 55, 69
1, 44544, Note_on_c, 7, 62, 127
1, 44544, Note_on_c, 9, 46, 77
1, 44560, Note_off_c, 9, 46, 64
1, 44728, Note_off_c, 5, 55, 64
1, 44728, Note_off_c, 5, 59, 64
1, 44740, Note_off_c, 7, 62, 64
1, 44740, Note_off_c, 4, 64, 64
1, 44748, Note_off_c, 4, 67, 64
1, 44752, Note_off_c, 1, 45, 64
1, 44760, Note_off_c, 3, 79, 64
1, 44796, Note_on_c, 3, 76, 108
1, 44796, Note_on_c, 4, 64, 101
1, 44796, Note_on_c, 4, 67, 97
1, 44796, Note_on_c, 5, 59, 95
1, 44796, Note_on_c, 5, 55, 59
1, 44796, Note_on_c, 7, 64, 119
1, 44800, Note_on_c, 1, 43, 68
1, 44800, Note_on_c, 9, 50, 51
1, 44816, Note_off_c, 9, 50, 64
1, 44820, Control_c, 2, 64, 127
1, 44820, Control_c, 3, 64, 127
1, 44844, Note_off_c, 4, 64, 64
1, 44852, Note_off_c, 7, 64, 64
1, 44856, Note_off_c, 3, 76, 64
1, 44860, Note_off_c, 4, 67, 64
1, 44864, Note_off_c, 5, 59, 64
1, 44880, Note_off_c, 1, 43, 64
1, 44880, Note_off_c, 5, 55, 64
1, 44900, Note_off_c, 2, 45, 64
1, 44912, Note_off_c, 2, 50, 64
1, 44924, Note_on_c, 3, 74, 102
1, 44924, Note_on_c, 7, 67, 120
1, 44928, Note_on_c, 1, 40, 92
1, 44928, Note_on_c, 9, 47, 78
1, 44928, Note_on_c, 9, 42, 86
1, 44940, Note_off_c, 2, 55, 64
1, 44944, Note_off_c, 9, 42, 64
1, 44944, Note_off_c, 9, 47, 64
1, 44972, Note_off_c, 3, 74, 64
1, 44996, Note_off_c, 7, 67, 64
1, 45052, Note_on_c, 7, 69, 127
1, 45108, Note_off_c, 7, 69, 64
1, 45120, Control_c, 2, 64, 0
1, 45120, Control_c, 3, 64, 0
1, 45136, Note_off_c, 1, 40, 64
1, 45180, Note_on_c, 1, 33, 123
1, 45180, Note_on_c, 2, 49, 86
1, 45180, Note_on_c, 2, 45, 84
1, 45180, Note_on_c, 2, 55, 86
1, 45180, Note_on_c, 3, 79, 109
1, 45180, Note_on_c, 3, 70, 101
1, 45180, Note_on_c, 3, 75, 109
1, 45180, Note_on_c, 4, 63, 112
1, 45180, Note_on_c, 4, 67, 104
1, 45180, Note_on_c, 7, 70, 127
1, 45184, Note_on_c, 9, 55, 119
1, 45188, Note_on_c, 5, 55, 109
1, 45188, Note_on_c, 5, 61, 108
1, 45188, Note_on_c, 9, 35, 114
1, 45188, Note_on_c, 9, 42, 96
1, 45200, Note_off_c, 9, 55, 64
1, 45204, Note_off_c, 9, 42, 64
1, 45204, Note_off_c, 9, 35, 64
1, 45616, Control_c, 2, 64, 127
1, 45616, Control_c, 3, 64, 127
1, 45656, Note_off_c, 2, 45, 64
1, 45656, Note_off_c, 2, 49, 64
1, 45660, Note_off_c, 1, 33, 64
1, 45696, Note_off_c, 2, 55, 64
1, 45696, Note_on_c, 9, 40, 34
1, 45704, Note_on_c, 1, 33, 112
1, 45712, Note_off_c, 9, 40, 64
1, 45724, Note_off_c, 3, 70, 64
1, 45740, Note_off_c, 3, 75, 64
1, 45752, Note_off_c, 3, 79, 64
1, 45764, Note_off_c, 1, 33, 64
1, 45824, Note_on_c, 9, 40, 37
1, 45828, Note_on_c, 1, 36, 78
1, 45840, Note_off_c, 9, 40, 64
1, 45884, Note_off_c, 1, 36, 64
1, 45916, Note_off_c, 7, 70, 64
1, 45948, Note_off_c, 5, 61, 64
1, 45948, Note_off_c, 5, 55, 64
1, 45952, Note_on_c, 1, 37, 58
1, 45952, Note_on_c, 9, 40, 97
1, 45968, Note_off_c, 9, 40, 64
1, 45980, Note_off_c, 4, 63, 64
1, 45996, Note_off_c, 4, 67, 64
1, 46000, Note_off_c, 1, 37, 64
1, 46044, Control_c, 2, 64, 0
1, 46044, Control_c, 3, 64, 0
1, 46080, Note_on_c, 1, 38, 106
1, 46080, Note_on_c, 2, 60, 74
1, 46080, Note_on_c, 2, 55, 58
1, 46080, Note_on_c, 2, 50, 84
1, 46080, Note_on_c, 9, 35, 76
1, 46080, Note_on_c, 9, 46, 61
1, 46096, Note_off_c, 9, 46, 64
1, 46096, Note_off_c, 9, 35, 64
1, 46260, Note_on_c, 7, 77, 84
1, 46292, Note_off_c, 7, 77, 64
1, 46292, Note_on_c, 7, 79, 104
1, 46324, Note_on_c, 7, 68, 125
1, 46332, Note_on_c, 3, 69, 104
1, 46332, Note_on_c, 3, 81, 116
1, 46332, Note_on_c, 4, 72, 95
1, 46332, Note_on_c, 4, 76, 93
1, 46332, Note_on_c, 5, 57, 102
1, 46332, Note_on_c, 5, 64, 111
1, 46332, Note_on_c, 7, 80, 115
1, 46336, Note_off_c, 7, 79, 64
1, 46360, Note_off_c, 7, 80, 64
1, 46360, Note_on_c, 7, 81, 106
1, 46360, Note_on_c, 7, 69, 106
1, 46364, Note_off_c, 7, 68, 64
1, 46384, Control_c, 2, 64, 127
1, 46384, Control_c, 3, 64, 127
1, 46404, Note_off_c, 1, 38, 64
1, 46464, Note_on_c, 9, 42, 89
1, 46480, Note_off_c, 9, 42, 64
1, 46536, Note_off_c, 2, 50, 64
1, 46544, Note_off_c, 2, 55, 64
1, 46572, Note_off_c, 2, 60, 64
1, 46600, Note_off_c, 3, 69, 64
1, 46604, Note_off_c, 3, 81, 64
1, 46712, Note_off_c, 4, 72, 64
1, 46716, Note_on_c, 1, 38, 84
1, 46728, Note_on_c, 9, 42, 69
1, 46732, Note_off_c, 4, 76, 64
1, 46744, Note_off_c, 9, 42, 64
1, 46744, Note_off_c, 7, 81, 64
1, 46768, Note_off_c, 1, 38, 64
1, 46780, Note_off_c, 7, 69, 64
1, 46792, Note_off_c, 5, 57, 64
1, 46808, Note_off_c, 5, 64, 64
1, 46824, Control_c, 2, 64, 0
1, 46824, Control_c, 3, 64, 0
1, 46844, Note_on_c, 2, 67, 58
1, 46844, Note_on_c, 4, 67, 92
1, 46844, Note_on_c, 4, 72, 100
1, 46848, Note_on_c, 2, 56, 48
1, 46848, Note_on_c, 3, 76, 75
1, 46848, Note_on_c, 5, 56, 93
1, 46848, Note_on_c, 7, 76, 111
1, 46852, Note_on_c, 1, 34, 96
1, 46852, Note_on_c, 2, 62, 70
1, 46852, Note_on_c, 5, 62, 97
1, 46852, Note_on_c, 9, 46, 57
1, 46868, Note_off_c, 9, 46, 64
1, 46892, Note_off_c, 2, 62, 64
1, 46892, Note_off_c, 2, 56, 64
1, 46904, Note_off_c, 3, 76, 64
1, 46908, Note_off_c, 2, 67, 64
1, 46976, Note_off_c, 4, 72, 64
1, 46976, Note_off_c, 4, 67, 64
1, 46992, Note_off_c, 7, 76, 64
1, 47000, Note_off_c, 5, 62, 64
1, 47004, Note_off_c, 5, 56, 64
1, 47020, Note_off_c, 1, 34, 64
1, 47228, Note_on_c, 2, 62, 70
1, 47228, Note_on_c, 2, 67, 51
1, 47228, Note_on_c, 2, 56, 52
1, 47228, Note_on_c, 3, 74, 80
1, 47228, Note_on_c, 4, 65, 68
1, 47228, Note_on_c, 4, 70, 106
1, 47228, Note_on_c, 9, 42, 92
1, 47232, Note_on_c, 1, 34, 110
1, 47232, Note_on_c, 5, 56, 97
1, 47232, Note_on_c, 7, 74, 101
1, 47236, Note_on_c, 5, 62, 93
1, 47244, Note_off_c, 9, 42, 64
1, 47296, Note_off_c, 3, 74, 64
1, 47300, Note_off_c, 2, 67, 64
1, 47304, Note_off_c, 2, 62, 64
1, 47308, Note_off_c, 2, 56, 64
1, 47356, Note_off_c, 4, 70, 64
1, 47364, Note_off_c, 5, 56, 64
1, 47364, Note_off_c, 4, 65, 64
1, 47380, Note_off_c, 7, 74, 64
1, 47392, Note_off_c, 5, 62, 64
1, 47400, Note_off_c, 1, 34, 64
1, 47492, Note_on_c, 9, 35, 29
1, 47496, Note_on_c, 9, 42, 56
1, 47508, Note_off_c, 9, 35, 64
1, 47512, Note_off_c, 9, 42, 64
1, 47616, Note_on_c, 1, 33, 102
1, 47616, Note_on_c, 2, 55, 54
1, 47616, Note_on_c, 2, 61, 65
1, 47616, Note_on_c, 2, 66, 44
1, 47616, Note_on_c, 3, 72, 86
1, 47616, Note_on_c, 7, 72, 102
1, 47616, Note_on_c, 9, 46, 59
1, 47620, Note_on_c, 4, 69, 95
1, 47620, Note_on_c, 4, 66, 89
1, 47620, Note_on_c, 5, 55, 90
1, 47620, Note_on_c, 5, 61, 94
1, 47632, Note_off_c, 9, 46, 64
1, 47660, Note_off_c, 2, 61, 64
1, 47672, Note_off_c, 2, 55, 64
1, 47684, Note_off_c, 3, 72, 64
1, 47684, Note_off_c, 2, 66, 64
1, 47732, Note_off_c, 4, 66, 64
1, 47748, Note_off_c, 4, 69, 64
1, 47772, Note_off_c, 5, 55, 64
1, 47776, Note_off_c, 7, 72, 64
1, 47780, Note_off_c, 5, 61, 64
1, 47832, Note_off_c, 1, 33, 64
1, 47980, Note_on_c, 7, 69, 93
1, 47996, Note_on_c, 2, 60, 73
1, 47996, Note_on_c, 2, 54, 71
1, 47996, Note_on_c, 2, 65, 52
1, 47996, Note_on_c, 3, 69, 82
1, 48000, Note_on_c, 5, 54, 93
1, 48000, Note_on_c, 9, 42, 85
1, 48004, Note_on_c, 1, 32, 106
1, 48004, Note_on_c, 4, 65, 90
1, 48004, Note_on_c, 4, 62, 66
1, 48004, Note_on_c, 5, 60, 98
1, 48016, Note_off_c, 9, 42, 64
1, 48052, Note_off_c, 2, 65, 64
1, 48056, Note_off_c, 2, 54, 64
1, 48060, Note_off_c, 2, 60, 64
1, 48088, Note_off_c, 3, 69, 64
1, 48116, Note_off_c, 4, 62, 64
1, 48116, Note_off_c, 4, 65, 64
1, 48144, Note_off_c, 5, 54, 64
1, 48156, Note_off_c, 1, 32, 64
1, 48156, Note_off_c, 7, 69, 64
1, 48164, Note_off_c, 5, 60, 64
1, 48252, Note_on_c, 9, 35, 74
1, 48264, Note_on_c, 9, 42, 60
1, 48268, Note_off_c, 9, 35, 64
1, 48280, Note_off_c, 9, 42, 64
1, 48364, Control_c, 2, 64, 127
1, 48364, Control_c, 3, 64, 127
1, 48380, Note_on_c, 2, 64, 52
1, 48380, Note_on_c, 2, 59, 73
1, 48380, Note_on_c, 2, 53, 56
1, 48380, Note_on_c, 3, 71, 100
1, 48380, Note_on_c, 4, 67, 75
1, 48380, Note_on_c, 4, 64, 70
1, 48380, Note_on_c, 5, 53, 46
1, 48380, Note_on_c, 5, 59, 93
1, 48384, Note_on_c, 7, 71, 109
1, 48384, Note_on_c, 9, 40, 115
1, 48388, Note_on_c, 1, 31, 98
1, 48400, Note_off_c, 9, 40, 64
1, 48476, Note_off_c, 2, 53, 64
1, 48476, Note_off_c, 2, 59, 64
1, 48480, Note_off_c, 3, 71, 64
1, 48480, Note_off_c, 2, 64, 64
1, 48544, Note_off_c, 5, 59, 64
1, 48544, Note_off_c, 5, 53, 64
1, 48560, Note_off_c, 4, 64, 64
1, 48564, Note_off_c, 7, 71, 64
1, 48568, Note_off_c, 4, 67, 64
1, 48596, Note_off_c, 1, 31, 64
1, 48636, Note_on_c, 2, 64, 33
1, 48636, Note_on_c, 2, 59, 55
1, 48636, Note_on_c, 2, 53, 51
1, 48636, Note_on_c, 3, 72, 102
1, 48636, Note_on_c, 5, 53, 89
1, 48636, Note_on_c, 5, 59, 88
1, 48636, Note_on_c, 7, 72, 78
1, 48636, Note_on_c, 9, 43, 40
1, 48644, Note_on_c, 1, 31, 76
1, 48644, Note_on_c, 4, 67, 92
1, 48644, Note_on_c, 4, 64, 83
1, 48652, Note_off_c, 9, 43, 64
1, 48684, Note_off_c, 2, 53, 64
1, 48688, Note_off_c, 2, 64, 64
1, 48692, Note_off_c, 2, 59, 64
1, 48696, Note_off_c, 3, 72, 64
1, 48704, Note_off_c, 5, 59, 64
1, 48704, Note_off_c, 5, 53, 64
1, 48712, Note_off_c, 1, 31, 64
1, 48716, Note_off_c, 4, 67, 64
1, 48720, Note_off_c, 7, 72, 64
1, 48728, Note_off_c, 4, 64, 64
1, 48764, Note_on_c, 2, 53, 72
1, 48764, Note_on_c, 2, 59, 75
1, 48764, Note_on_c, 2, 64, 79
1, 48764, Note_on_c, 3, 74, 100
1, 48764, Note_on_c, 5, 53, 93
1, 48764, Note_on_c, 5, 59, 101
1, 48764, Note_on_c, 7, 74, 89
1, 48768, Note_on_c, 1, 31, 92
1, 48768, Note_on_c, 9, 42, 79
1, 48772, Note_on_c, 4, 67, 96
1, 48772, Note_on_c, 4, 64, 89
1, 48784, Note_off_c, 9, 42, 64
1, 48820, Note_off_c, 2, 64, 64
1, 48820, Note_off_c, 2, 59, 64
1, 48820, Note_off_c, 2, 53, 64
1, 48840, Note_off_c, 3, 74, 64
1, 48848, Note_off_c, 5, 59, 64
1, 48856, Note_off_c, 4, 67, 64
1, 48860, Note_off_c, 4, 64, 64
1, 48872, Note_off_c, 5, 53, 64
1, 48892, Note_on_c, 9, 50, 40
1, 48908, Note_off_c, 9, 50, 64
1, 48956, Note_off_c, 1, 31, 64
1, 48960, Control_c, 2, 64, 0
1, 48960, Control_c, 3, 64, 0
1, 48968, Note_off_c, 7, 74, 64
1, 49004, Note_on_c, 7, 72, 104
1, 49020, Note_on_c, 1, 36, 115
1, 49020, Note_on_c, 2, 57, 72
1, 49020, Note_on_c, 2, 62, 83
1, 49020, Note_on_c, 2, 52, 74
1, 49020, Note_on_c, 3, 72, 114
1, 49020, Note_on_c, 5, 57, 93
1, 49020, Note_on_c, 5, 52, 100
1, 49020, Note_on_c, 9, 55, 113
1, 49028, Note_on_c, 4, 64, 104
1, 49028, Note_on_c, 4, 69, 117
1, 49032, Note_on_c, 9, 35, 66
1, 49036, Note_off_c, 9, 55, 64
1, 49048, Note_off_c, 9, 35, 64
1, 49152, Note_on_c, 9, 40, 27
1, 49168, Note_off_c, 9, 40, 64
1, 49328, Control_c, 2, 64, 127
1, 49328, Control_c, 3, 64, 127
1, 49412, Note_on_c, 9, 50, 70
1, 49428, Note_off_c, 9, 50, 64
1, 49492, Note_off_c, 3, 72, 64
1, 49504, Note_off_c, 2, 62, 64
1, 49536, Note_on_c, 9, 42, 71
1, 49544, Note_off_c, 2, 57, 64
1, 49548, Note_off_c, 2, 52, 64
1, 49552, Note_off_c, 9, 42, 64
1, 49640, Note_off_c, 4, 69, 64
1, 49648, Note_off_c, 4, 64, 64
1, 49664, Note_on_c, 9, 40, 18
1, 49680, Note_off_c, 9, 40, 64
1, 49784, Note_off_c, 5, 52, 64
1, 49784, Note_off_c, 5, 57, 64
1, 49796, Note_on_c, 9, 40, 51
1, 49796, Note_on_c, 9, 35, 41
1, 49800, Note_on_c, 9, 42, 59
1, 49812, Note_off_c, 9, 35, 64
1, 49812, Note_off_c, 9, 40, 64
1, 49816, Note_off_c, 9, 42, 64
1, 49820, Note_off_c, 1, 36, 64
1, 49888, Note_off_c, 7, 72, 64
1, 49892, Note_on_c, 7, 70, 110
1, 49904, Control_c, 2, 64, 0
1, 49904, Control_c, 3, 64, 0
1, 49912, Note_on_c, 1, 37, 104
1, 49916, Note_on_c, 2, 59, 57
1, 49916, Note_on_c, 2, 49, 45
1, 49916, Note_on_c, 2, 53, 69
1, 49916, Note_on_c, 3, 63, 72
1, 49916, Note_on_c, 3, 70, 85
1, 49916, Note_on_c, 4, 63, 88
1, 49916, Note_on_c, 4, 67, 96
1, 49916, Note_on_c, 5, 59, 88
1, 49916, Note_on_c, 5, 53, 85
1, 49924, Note_on_c, 9, 47, 74
1, 49940, Note_off_c, 9, 47, 64
1, 50176, Note_on_c, 9, 43, 38
1, 50192, Note_off_c, 9, 43, 64
1, 50192, Control_c, 2, 64, 127
1, 50192, Control_c, 3, 64, 127
1, 50264, Note_off_c, 3, 70, 64
1, 50288, Note_off_c, 3, 63, 64
1, 50288, Note_off_c, 2, 53, 64
1, 50300, Note_off_c, 2, 49, 64
1, 50300, Note_off_c, 2, 59, 64
1, 50304, Note_on_c, 9, 44, 100
1, 50304, Note_on_c, 9, 43, 62
1, 50320, Note_off_c, 9, 43, 64
1, 50320, Note_off_c, 9, 44, 64
1, 50420, Note_off_c, 5, 59, 64
1, 50444, Note_on_c, 7, 69, 73
1, 50480, Note_off_c, 4, 63, 64
1, 50488, Note_off_c, 7, 70, 64
1, 50492, Note_on_c, 7, 68, 67
1, 50500, Note_off_c, 7, 69, 64
1, 50516, Note_off_c, 5, 53, 64
1, 50536, Control_c, 2, 64, 0
1, 50536, Control_c, 3, 64, 0
1, 50536, Note_on_c, 7, 67, 115
1, 50544, Note_off_c, 7, 68, 64
1, 50544, Note_off_c, 1, 37, 64
1, 50552, Note_on_c, 5, 52, 84
1, 50552, Note_on_c, 5, 59, 77
1, 50556, Note_on_c, 1, 36, 96
1, 50556, Note_on_c, 2, 52, 45
1, 50556, Note_on_c, 2, 48, 57
1, 50556, Note_on_c, 2, 59, 46
1, 50556, Note_on_c, 3, 67, 80
1, 50556, Note_on_c, 3, 62, 49
1, 50556, Note_on_c, 4, 64, 85
1, 50556, Note_on_c, 4, 62, 73
1, 50556, Note_on_c, 9, 55, 95
1, 50556, Note_on_c, 9, 40, 23
1, 50560, Note_off_c, 4, 67, 64
1, 50560, Note_on_c, 9, 35, 83
1, 50568, Note_on_c, 9, 42, 62
1, 50572, Note_off_c, 9, 40, 64
1, 50572, Note_off_c, 9, 55, 64
1, 50576, Note_off_c, 9, 35, 64
1, 50584, Note_off_c, 9, 42, 64
1, 50944, Note_on_c, 9, 43, 53
1, 50960, Note_off_c, 9, 43, 64
1, 50972, Control_c, 2, 64, 127
1, 50972, Control_c, 3, 64, 127
1, 51052, Note_off_c, 2, 48, 64
1, 51060, Note_off_c, 2, 52, 64
1, 51072, Note_off_c, 3, 62, 64
1, 51080, Note_off_c, 3, 67, 64
1, 51088, Note_on_c, 9, 44, 125
1, 51104, Note_off_c, 9, 44, 64
1, 51112, Note_off_c, 2, 59, 64
1, 51196, Note_off_c, 1, 36, 64
1, 51240, Note_off_c, 5, 59, 64
1, 51244, Note_off_c, 5, 52, 64
1, 51324, Note_on_c, 1, 36, 72
1, 51332, Note_on_c, 9, 35, 124
1, 51348, Note_off_c, 9, 35, 64
1, 51416, Note_off_c, 1, 36, 64
1, 51448, Control_c, 2, 64, 0
1, 51448, Control_c, 3, 64, 0
1, 51452, Note_off_c, 7, 67, 64
1, 51452, Note_on_c, 1, 39, 97
1, 51452, Note_on_c, 2, 61, 48
1, 51452, Note_on_c, 2, 51, 39
1, 51452, Note_on_c, 2, 55, 79
1, 51464, Note_off_c, 4, 62, 64
1, 51464, Note_off_c, 4, 64, 64
1, 51464, Note_on_c, 9, 40, 109
1, 51480, Note_off_c, 9, 40, 64
1, 51700, Note_on_c, 9, 50, 106
1, 51712, Control_c, 2, 64, 127
1, 51712, Control_c, 3, 64, 127
1, 51716, Note_off_c, 9, 50, 64
1, 51836, Note_off_c, 2, 55, 64
1, 51840, Note_off_c, 2, 51, 64
1, 51848, Note_on_c, 9, 40, 31
1, 51864, Note_off_c, 9, 40, 64
1, 51864, Note_off_c, 2, 61, 64
1, 51964, Note_on_c, 9, 40, 41
1, 51980, Note_off_c, 9, 40, 64
1, 52084, Note_off_c, 1, 39, 64
1, 52088, Note_on_c, 9, 47, 101
1, 52104, Note_off_c, 9, 47, 64
1, 52192, Control_c, 2, 64, 0
1, 52192, Control_c, 3, 64, 0
1, 52224, Note_on_c, 2, 50, 66
1, 52224, Note_on_c, 2, 54, 57
1, 52224, Note_on_c, 2, 60, 74
1, 52228, Note_on_c, 9, 35, 124
1, 52244, Note_off_c, 9, 35, 64
1, 52452, Note_on_c, 3, 81, 111
1, 52452, Note_on_c, 3, 69, 103
1, 52480, Note_on_c, 1, 45, 102
1, 52484, Note_on_c, 9, 55, 126
1, 52500, Note_off_c, 9, 55, 64
1, 52516, Control_c, 2, 64, 127
1, 52516, Control_c, 3, 64, 127
1, 52524, Note_off_c, 3, 81, 64
1, 52548, Note_off_c, 1, 45, 64
1, 52556, Note_off_c, 3, 69, 64
1, 52604, Note_off_c, 2, 50, 64
1, 52604, Note_on_c, 8, 54, 75
1, 52608, Note_on_c, 1, 42, 98
1, 52608, Note_on_c, 9, 44, 123
1, 52612, Note_on_c, 8, 60, 104
1, 52620, Note_on_c, 8, 64, 101
1, 52624, Note_off_c, 9, 44, 64
1, 52624, Note_off_c, 2, 60, 64
1, 52624, Note_off_c, 2, 54, 64
1, 52656, Note_off_c, 1, 42, 64
1, 52704, Note_off_c, 8, 54, 64
1, 52736, Note_on_c, 1, 38, 59
1, 52748, Note_off_c, 8, 60, 64
1, 52752, Note_off_c, 8, 64, 64
1, 52784, Note_off_c, 1, 38, 64
1, 52844, Note_on_c, 3, 76, 79
1, 52864, Note_on_c, 1, 30, 72
1, 52904, Note_off_c, 1, 30, 64
1, 52956, Control_c, 2, 64, 0
1, 52956, Control_c, 3, 64, 0
1, 52968, Note_off_c, 3, 76, 64
1, 52988, Note_on_c, 2, 54, 51
1, 52992, Note_on_c, 1, 33, 101
1, 52992, Note_on_c, 1, 35, 113
1, 52992, Note_on_c, 2, 60, 57
1, 52992, Note_on_c, 3, 72, 92
1, 52996, Note_on_c, 2, 50, 56
1, 52996, Note_on_c, 8, 54, 68
1, 52996, Note_on_c, 9, 51, 113
1, 53004, Note_off_c, 1, 35, 64
1, 53012, Note_off_c, 9, 51, 64
1, 53016, Note_on_c, 8, 60, 90
1, 53040, Note_on_c, 8, 64, 84
1, 53116, Note_off_c, 8, 54, 64
1, 53132, Note_off_c, 8, 60, 64
1, 53164, Note_off_c, 8, 64, 64
1, 53228, Note_on_c, 3, 69, 93
1, 53252, Note_off_c, 3, 72, 64
1, 53280, Control_c, 2, 64, 127
1, 53280, Control_c, 3, 64, 127
1, 53304, Note_off_c, 2, 50, 64
1, 53344, Note_off_c, 3, 69, 64
1, 53352, Note_off_c, 2, 54, 64
1, 53360, Note_off_c, 2, 60, 64
1, 53360, Note_off_c, 1, 33, 64
1, 53376, Note_on_c, 1, 38, 101
1, 53376, Note_on_c, 3, 64, 65
1, 53376, Note_on_c, 9, 44, 127
1, 53376, Note_on_c, 9, 51, 113
1, 53384, Note_on_c, 8, 54, 71
1, 53392, Note_off_c, 9, 51, 64
1, 53392, Note_off_c, 9, 44, 64
1, 53396, Note_on_c, 8, 64, 95
1, 53400, Note_on_c, 8, 60, 98
1, 53444, Note_off_c, 3, 64, 64
1, 53476, Note_off_c, 8, 54, 64
1, 53508, Note_on_c, 3, 69, 85
1, 53516, Note_off_c, 8, 64, 64
1, 53532, Note_off_c, 8, 60, 64
1, 53604, Note_on_c, 3, 72, 98
1, 53612, Note_off_c, 3, 69, 64
1, 53632, Note_on_c, 9, 51, 96
1, 53648, Note_off_c, 9, 51, 64
1, 53652, Note_off_c, 3, 72, 64
1, 53712, Control_c, 2, 64, 0
1, 53712, Control_c, 3, 64, 0
1, 53716, Note_on_c, 3, 74, 52
1, 53728, Note_off_c, 1, 38, 64
1, 53744, Note_on_c, 3, 75, 100
1, 53760, Note_on_c, 1, 31, 93
1, 53760, Note_on_c, 2, 53, 77
1, 53760, Note_on_c, 2, 59, 64
1, 53760, Note_on_c, 2, 64, 68
1, 53760, Note_on_c, 8, 64, 97
1, 53760, Note_on_c, 9, 51, 90
1, 53764, Note_on_c, 3, 76, 92
1, 53764, Note_on_c, 8, 59, 93
1, 53768, Note_off_c, 3, 74, 64
1, 53768, Note_on_c, 8, 53, 60
1, 53776, Note_off_c, 9, 51, 64
1, 53800, Note_off_c, 3, 75, 64
1, 53844, Note_off_c, 8, 53, 64
1, 53900, Note_off_c, 8, 59, 64
1, 53912, Note_off_c, 8, 64, 64
1, 53960, Note_off_c, 3, 76, 64
1, 53984, Note_on_c, 3, 79, 109
1, 54104, Control_c, 2, 64, 127
1, 54104, Control_c, 3, 64, 127
1, 54132, Note_off_c, 1, 31, 64
1, 54140, Note_on_c, 1, 35, 107
1, 54140, Note_on_c, 8, 53, 56
1, 54140, Note_on_c, 9, 51, 111
1, 54140, Note_on_c, 9, 44, 127
1, 54148, Note_on_c, 8, 59, 90
1, 54156, Note_off_c, 9, 44, 64
1, 54156, Note_off_c, 9, 51, 64
1, 54160, Note_on_c, 8, 64, 100
1, 54220, Note_off_c, 2, 64, 64
1, 54248, Note_off_c, 8, 53, 64
1, 54280, Note_off_c, 2, 59, 64
1, 54292, Note_off_c, 8, 64, 64
1, 54296, Note_off_c, 8, 59, 64
1, 54328, Note_off_c, 2, 53, 64
1, 54396, Note_on_c, 9, 51, 88
1, 54412, Note_off_c, 9, 51, 64
1, 54500, Control_c, 2, 64, 0
1, 54500, Control_c, 3, 64, 0
1, 54520, Note_on_c, 2, 53, 49
1, 54520, Note_on_c, 2, 59, 66
1, 54520, Note_on_c, 2, 64, 57
1, 54524, Note_on_c, 9, 51, 101
1, 54532, Note_on_c, 1, 38, 89
1, 54532, Note_on_c, 8, 53, 58
1, 54540, Note_off_c, 9, 51, 64
1, 54540, Note_on_c, 8, 59, 92
1, 54548, Note_on_c, 8, 64, 92
1, 54552, Note_off_c, 1, 35, 64
1, 54660, Note_off_c, 8, 59, 64
1, 54668, Note_off_c, 8, 53, 64
1, 54676, Note_off_c, 8, 64, 64
1, 54868, Note_off_c, 1, 38, 64
1, 54880, Control_c, 2, 64, 127
1, 54880, Control_c, 3, 64, 127
1, 54904, Note_on_c, 3, 81, 89
1, 54908, Note_off_c, 3, 79, 64
1, 54912, Note_on_c, 1, 41, 66
1, 54912, Note_on_c, 9, 44, 127
1, 54912, Note_on_c, 9, 51, 113
1, 54928, Note_off_c, 9, 51, 64
1, 54928, Note_off_c, 9, 44, 64
1, 54928, Note_on_c, 8, 64, 88
1, 54928, Note_on_c, 8, 53, 68
1, 54932, Note_on_c, 8, 59, 88
1, 54940, Note_off_c, 2, 53, 64
1, 54968, Note_off_c, 2, 64, 64
1, 54972, Note_off_c, 3, 81, 64
1, 54992, Note_off_c, 2, 59, 64
1, 55044, Note_off_c, 8, 59, 64
1, 55044, Note_off_c, 8, 64, 64
1, 55080, Note_off_c, 8, 53, 64
1, 55144, Note_off_c, 1, 41, 64
1, 55144, Note_on_c, 3, 76, 100
1, 55144, Note_on_c, 3, 71, 96
1, 55164, Note_on_c, 9, 35, 88
1, 55168, Note_on_c, 1, 35, 81
1, 55172, Note_on_c, 9, 51, 80
1, 55180, Note_off_c, 9, 35, 64
1, 55188, Note_off_c, 9, 51, 64
1, 55232, Control_c, 2, 64, 0
1, 55232, Control_c, 3, 64, 0
1, 55248, Note_off_c, 1, 35, 64
1, 55296, Note_on_c, 1, 36, 92
1, 55296, Note_on_c, 2, 62, 58
1, 55296, Note_on_c, 2, 52, 61
1, 55296, Note_on_c, 2, 57, 54
1, 55296, Note_on_c, 8, 52, 70
1, 55296, Note_on_c, 8, 62, 90
1, 55296, Note_on_c, 9, 51, 98
1, 55300, Note_on_c, 8, 57, 93
1, 55312, Note_off_c, 9, 51, 64
1, 55424, Note_off_c, 8, 52, 64
1, 55428, Note_off_c, 8, 62, 64
1, 55432, Note_off_c, 8, 57, 64
1, 55620, Control_c, 2, 64, 127
1, 55620, Control_c, 3, 64, 127
1, 55676, Note_on_c, 8, 52, 80
1, 55676, Note_on_c, 8, 62, 91
1, 55680, Note_on_c, 8, 57, 90
1, 55680, Note_on_c, 9, 51, 113
1, 55684, Note_on_c, 1, 40, 95
1, 55684, Note_on_c, 9, 44, 127
1, 55696, Note_off_c, 9, 51, 64
1, 55700, Note_off_c, 9, 44, 64
1, 55700, Note_off_c, 1, 36, 64
1, 55708, Note_off_c, 2, 52, 64
1, 55740, Note_off_c, 2, 62, 64
1, 55788, Note_off_c, 8, 52, 64
1, 55788, Note_off_c, 2, 57, 64
1, 55804, Note_off_c, 8, 57, 64
1, 55824, Note_off_c, 8, 62, 64
1, 55936, Note_on_c, 9, 40, 51
1, 55936, Note_on_c, 9, 51, 85
1, 55952, Note_off_c, 9, 51, 64
1, 55952, Note_off_c, 9, 40, 64
1, 56048, Note_off_c, 1, 40, 64
1, 56048, Note_off_c, 3, 76, 64
1, 56060, Note_on_c, 2, 52, 56
1, 56060, Note_on_c, 2, 62, 55
1, 56060, Note_on_c, 2, 57, 61
1, 56064, Note_on_c, 1, 41, 82
1, 56064, Note_on_c, 9, 51, 88
1, 56080, Note_off_c, 9, 51, 64
1, 56080, Note_off_c, 3, 71, 64
1, 56080, Control_c, 2, 64, 0
1, 56080, Control_c, 3, 64, 0
1, 56084, Note_on_c, 8, 62, 85
1, 56084, Note_on_c, 8, 57, 82
1, 56088, Note_on_c, 8, 52, 62
1, 56220, Note_off_c, 8, 57, 64
1, 56228, Note_off_c, 8, 62, 64
1, 56236, Note_off_c, 8, 52, 64
1, 56444, Note_off_c, 1, 41, 64
1, 56444, Note_on_c, 1, 42, 88
1, 56448, Note_on_c, 9, 51, 113
1, 56452, Note_on_c, 3, 74, 102
1, 56452, Note_on_c, 9, 44, 127
1, 56464, Note_off_c, 9, 51, 64
1, 56468, Note_off_c, 9, 44, 64
1, 56472, Control_c, 2, 64, 127
1, 56472, Control_c, 3, 64, 127
1, 56476, Note_on_c, 8, 62, 84
1, 56476, Note_on_c, 8, 57, 81
1, 56484, Note_on_c, 8, 52, 56
1, 56512, Note_off_c, 3, 74, 64
1, 56544, Note_off_c, 2, 62, 64
1, 56544, Note_off_c, 2, 52, 64
1, 56560, Note_off_c, 2, 57, 64
1, 56580, Note_on_c, 3, 72, 102
1, 56612, Note_off_c, 8, 62, 64
1, 56620, Note_off_c, 8, 57, 64
1, 56628, Note_off_c, 8, 52, 64
1, 56640, Note_off_c, 3, 72, 64
1, 56684, Note_off_c, 1, 42, 64
1, 56684, Note_on_c, 3, 71, 91
1, 56700, Note_on_c, 1, 39, 82
1, 56704, Note_on_c, 9, 51, 78
1, 56704, Note_on_c, 9, 35, 43
1, 56720, Note_off_c, 9, 35, 64
1, 56720, Note_off_c, 9, 51, 64
1, 56820, Note_off_c, 1, 39, 64
1, 56828, Note_on_c, 8, 56, 79
1, 56832, Note_on_c, 1, 40, 88
1, 56832, Note_on_c, 8, 52, 61
1, 56832, Note_on_c, 9, 51, 98
1, 56832, Note_on_c, 9, 35, 99
1, 56836, Control_c, 2, 64, 0
1, 56836, Note_on_c, 2, 52, 57
1, 56836, Note_on_c, 2, 56, 53
1, 56836, Control_c, 3, 64, 0
1, 56836, Note_on_c, 8, 62, 74
1, 56840, Note_on_c, 2, 62, 54
1, 56840, Note_on_c, 3, 70, 90
1, 56844, Note_off_c, 3, 71, 64
1, 56848, Note_off_c, 9, 35, 64
1, 56848, Note_off_c, 9, 51, 64
1, 56964, Note_off_c, 8, 56, 64
1, 56980, Note_off_c, 8, 52, 64
1, 56988, Note_off_c, 8, 62, 64
1, 57172, Control_c, 2, 64, 127
1, 57172, Control_c, 3, 64, 127
1, 57208, Note_on_c, 8, 56, 74
1, 57216, Note_on_c, 1, 35, 97
1, 57216, Note_on_c, 8, 62, 88
1, 57216, Note_on_c, 8, 52, 59
1, 57216, Note_on_c, 9, 51, 113
1, 57216, Note_on_c, 9, 44, 127
1, 57232, Note_off_c, 9, 44, 64
1, 57232, Note_off_c, 9, 51, 64
1, 57232, Note_off_c, 1, 40, 64
1, 57300, Note_off_c, 2, 52, 64
1, 57320, Note_off_c, 2, 62, 64
1, 57336, Note_off_c, 8, 52, 64
1, 57352, Note_off_c, 8, 56, 64
1, 57368, Note_off_c, 8, 62, 64
1, 57368, Note_off_c, 2, 56, 64
1, 57476, Note_on_c, 9, 51, 76
1, 57492, Note_off_c, 9, 51, 64
1, 57560, Note_off_c, 3, 70, 64
1, 57600, Note_on_c, 1, 39, 89
1, 57600, Note_on_c, 2, 55, 63
1, 57600, Note_on_c, 2, 61, 59
1, 57604, Note_on_c, 2, 51, 54
1, 57604, Control_c, 2, 64, 0
1, 57604, Control_c, 3, 64, 0
1, 57604, Note_on_c, 9, 51, 83
1, 57616, Note_on_c, 8, 61, 88
1, 57620, Note_off_c, 9, 51, 64
1, 57620, Note_off_c, 1, 35, 64
1, 57624, Note_on_c, 8, 55, 82
1, 57760, Note_off_c, 8, 55, 64
1, 57764, Note_off_c, 8, 61, 64
1, 57860, Note_on_c, 9, 40, 46
1, 57876, Note_off_c, 9, 40, 64
1, 57880, Note_on_c, 3, 72, 106
1, 57920, Control_c, 2, 64, 127
1, 57920, Control_c, 3, 64, 127
1, 57944, Note_off_c, 2, 55, 64
1, 57952, Note_off_c, 3, 72, 64
1, 57968, Note_off_c, 1, 39, 64
1, 57980, Note_on_c, 3, 69, 90
1, 57984, Note_off_c, 2, 51, 64
1, 57984, Note_on_c, 1, 34, 89
1, 57984, Note_on_c, 9, 51, 113
1, 57984, Note_on_c, 9, 44, 127
1, 57996, Note_on_c, 8, 61, 90
1, 58000, Note_off_c, 9, 44, 64
1, 58000, Note_off_c, 9, 51, 64
1, 58000, Note_on_c, 8, 55, 78
1, 58016, Note_off_c, 2, 61, 64
1, 58040, Note_off_c, 3, 69, 64
1, 58076, Note_on_c, 3, 67, 79
1, 58116, Note_off_c, 8, 55, 64
1, 58116, Note_on_c, 9, 40, 51
1, 58132, Note_off_c, 9, 40, 64
1, 58136, Note_off_c, 8, 61, 64
1, 58144, Note_off_c, 3, 67, 64
1, 58180, Note_on_c, 3, 69, 80
1, 58216, Control_c, 2, 64, 0
1, 58216, Control_c, 3, 64, 0
1, 58240, Note_off_c, 1, 34, 64
1, 58240, Note_on_c, 1, 37, 81
1, 58240, Note_on_c, 9, 51, 94
1, 58244, Note_on_c, 9, 35, 48
1, 58256, Note_off_c, 9, 51, 64
1, 58260, Note_off_c, 9, 35, 64
1, 58320, Note_off_c, 1, 37, 64
1, 58368, Note_on_c, 1, 38, 90
1, 58368, Note_on_c, 2, 60, 73
1, 58368, Note_on_c, 2, 50, 73
1, 58368, Note_on_c, 2, 54, 62
1, 58368, Note_on_c, 9, 51, 94
1, 58372, Note_on_c, 8, 54, 79
1, 58372, Note_on_c, 9, 35, 88
1, 58384, Note_off_c, 9, 51, 64
1, 58384, Note_off_c, 3, 69, 64
1, 58388, Note_off_c, 9, 35, 64
1, 58388, Note_on_c, 8, 64, 97
1, 58388, Note_on_c, 8, 60, 84
1, 58488, Note_off_c, 8, 60, 64
1, 58488, Note_off_c, 8, 54, 64
1, 58528, Note_off_c, 8, 64, 64
1, 58596, Note_on_c, 3, 81, 111
1, 58596, Note_on_c, 3, 69, 108
1, 58664, Control_c, 2, 64, 127
1, 58664, Control_c, 3, 64, 127
1, 58712, Note_off_c, 3, 81, 64
1, 58748, Note_off_c, 1, 38, 64
1, 58752, Note_on_c, 1, 30, 96
1, 58752, Note_on_c, 8, 54, 72
1, 58752, Note_on_c, 9, 44, 127
1, 58752, Note_on_c, 9, 51, 113
1, 58760, Note_on_c, 8, 64, 95
1, 58764, Note_on_c, 8, 60, 93
1, 58768, Note_off_c, 9, 51, 64
1, 58768, Note_off_c, 9, 44, 64
1, 58768, Note_off_c, 2, 54, 64
1, 58768, Note_off_c, 2, 50, 64
1, 58768, Note_off_c, 2, 60, 64
1, 58800, Note_off_c, 3, 69, 64
1, 58868, Note_off_c, 8, 60, 64
1, 58872, Note_off_c, 8, 54, 64
1, 58896, Note_off_c, 8, 64, 64
1, 58980, Note_on_c, 3, 76, 93
1, 59004, Note_on_c, 9, 51, 74
1, 59020, Note_off_c, 9, 51, 64
1, 59096, Note_off_c, 3, 76, 64
1, 59128, Note_off_c, 1, 30, 64
1, 59128, Note_on_c, 2, 60, 63
1, 59128, Note_on_c, 2, 50, 56
1, 59128, Note_on_c, 2, 54, 47
1, 59128, Note_on_c, 3, 72, 92
1, 59132, Note_on_c, 9, 51, 92
1, 59136, Note_on_c, 1, 33, 93
1, 59148, Note_off_c, 9, 51, 64
1, 59148, Note_on_c, 8, 54, 67
1, 59156, Note_on_c, 8, 64, 85
1, 59160, Note_on_c, 8, 60, 92
1, 59260, Note_off_c, 8, 54, 64
1, 59268, Note_off_c, 8, 60, 64
1, 59268, Note_off_c, 3, 72, 64
1, 59284, Note_off_c, 8, 64, 64
1, 59360, Note_off_c, 2, 50, 64
1, 59364, Note_on_c, 3, 69, 96
1, 59388, Note_off_c, 2, 60, 64
1, 59404, Note_off_c, 2, 54, 64
1, 59440, Note_off_c, 3, 69, 64
1, 59512, Note_on_c, 3, 64, 84
1, 59516, Note_on_c, 1, 38, 59
1, 59516, Note_on_c, 9, 51, 113
1, 59520, Note_on_c, 9, 44, 127
1, 59524, Note_off_c, 1, 33, 64
1, 59528, Note_on_c, 8, 54, 81
1, 59532, Note_off_c, 9, 51, 64
1, 59536, Note_off_c, 9, 44, 64
1, 59536, Note_on_c, 8, 64, 100
1, 59536, Note_on_c, 8, 60, 96
1, 59588, Note_off_c, 3, 64, 64
1, 59624, Note_off_c, 8, 54, 64
1, 59652, Note_on_c, 3, 69, 84
1, 59656, Note_off_c, 8, 60, 64
1, 59684, Note_off_c, 8, 64, 64
1, 59740, Note_on_c, 3, 72, 94
1, 59752, Note_off_c, 3, 69, 64
1, 59772, Note_on_c, 9, 51, 85
1, 59776, Note_on_c, 1, 42, 93
1, 59784, Note_off_c, 1, 38, 64
1, 59788, Note_off_c, 9, 51, 64
1, 59788, Note_off_c, 3, 72, 64
1, 59828, Control_c, 2, 64, 0
1, 59828, Control_c, 3, 64, 0
1, 59844, Note_off_c, 1, 42, 64
1, 59860, Note_on_c, 3, 74, 75
1, 59884, Note_on_c, 3, 75, 100
1, 59884, Note_on_c, 8, 64, 95
1, 59888, Note_on_c, 8, 53, 60
1, 59888, Note_on_c, 8, 59, 91
1, 59904, Note_on_c, 1, 43, 91
1, 59904, Note_on_c, 2, 64, 80
1, 59904, Note_on_c, 2, 59, 72
1, 59904, Note_on_c, 2, 53, 77
1, 59904, Note_on_c, 3, 76, 98
1, 59904, Note_on_c, 9, 51, 109
1, 59920, Note_off_c, 9, 51, 64
1, 59924, Note_off_c, 3, 74, 64
1, 59932, Note_off_c, 3, 75, 64
1, 60036, Note_off_c, 8, 59, 64
1, 60040, Note_off_c, 8, 53, 64
1, 60040, Note_off_c, 8, 64, 64
1, 60112, Note_off_c, 3, 76, 64
1, 60128, Note_on_c, 3, 79, 108
1, 60244, Note_off_c, 1, 43, 64
1, 60248, Control_c, 2, 64, 127
1, 60248, Control_c, 3, 64, 127
1, 60284, Note_on_c, 9, 51, 109
1, 60284, Note_on_c, 9, 44, 127
1, 60288, Note_on_c, 1, 38, 81
1, 60288, Note_on_c, 8, 59, 95
1, 60288, Note_on_c, 8, 53, 66
1, 60292, Note_on_c, 8, 64, 98
1, 60300, Note_off_c, 9, 44, 64
1, 60300, Note_off_c, 9, 51, 64
1, 60372, Note_off_c, 2, 64, 64
1, 60396, Note_off_c, 8, 53, 64
1, 60412, Note_off_c, 8, 59, 64
1, 60420, Note_off_c, 2, 59, 64
1, 60440, Note_off_c, 8, 64, 64
1, 60508, Note_off_c, 2, 53, 64
1, 60544, Note_on_c, 9, 51, 74
1, 60560, Note_off_c, 9, 51, 64
1, 60628, Note_off_c, 1, 38, 64
1, 60660, Control_c, 2, 64, 0
1, 60660, Control_c, 3, 64, 0
1, 60668, Note_on_c, 1, 35, 88
1, 60668, Note_on_c, 2, 53, 63
1, 60668, Note_on_c, 2, 64, 55
1, 60668, Note_on_c, 2, 59, 60
1, 60668, Note_on_c, 9, 51, 83
1, 60672, Note_on_c, 8, 53, 57
1, 60680, Note_on_c, 8, 59, 97
1, 60684, Note_off_c, 9, 51, 64
1, 60684, Note_on_c, 8, 64, 93
1, 60796, Note_off_c, 8, 53, 64
1, 60816, Note_off_c, 8, 64, 64
1, 60816, Note_off_c, 8, 59, 64
1, 60932, Note_on_c, 9, 40, 51
1, 60948, Note_off_c, 9, 40, 64
1, 61032, Control_c, 2, 64, 127
1, 61032, Control_c, 3, 64, 127
1, 61040, Note_off_c, 2, 64, 64
1, 61056, Note_on_c, 1, 31, 93
1, 61056, Note_on_c, 8, 53, 72
1, 61056, Note_on_c, 9, 51, 107
1, 61056, Note_on_c, 9, 44, 127
1, 61060, Note_on_c, 3, 81, 83
1, 61064, Note_on_c, 8, 59, 100
1, 61072, Note_off_c, 9, 44, 64
1, 61072, Note_off_c, 9, 51, 64
1, 61072, Note_on_c, 8, 64, 102
1, 61076, Note_off_c, 2, 59, 64
1, 61076, Note_off_c, 1, 35, 64
1, 61096, Note_off_c, 3, 79, 64
1, 61100, Note_off_c, 2, 53, 64
1, 61112, Note_off_c, 3, 81, 64
1, 61184, Note_off_c, 8, 64, 64
1, 61200, Note_off_c, 8, 59, 64
1, 61216, Note_off_c, 8, 53, 64
1, 61292, Note_on_c, 3, 76, 96
1, 61292, Note_on_c, 3, 71, 84
1, 61312, Note_on_c, 9, 51, 92
1, 61328, Note_off_c, 9, 51, 64
1, 61408, Control_c, 2, 64, 0
1, 61408, Control_c, 3, 64, 0
1, 61440, Note_off_c, 1, 31, 64
1, 61440, Note_on_c, 1, 36, 91
1, 61440, Note_on_c, 2, 59, 54
1, 61440, Note_on_c, 2, 52, 66
1, 61440, Note_on_c, 9, 35, 77
1, 61444, Note_on_c, 2, 48, 54
1, 61456, Note_off_c, 9, 35, 64
1, 61456, Note_on_c, 8, 57, 77
1, 61460, Note_on_c, 8, 62, 86
1, 61460, Note_on_c, 8, 52, 58
1, 61556, Note_off_c, 8, 52, 64
1, 61572, Note_off_c, 8, 62, 64
1, 61596, Note_off_c, 8, 57, 64
1, 61772, Control_c, 2, 64, 127
1, 61772, Control_c, 3, 64, 127
1, 61808, Note_off_c, 2, 48, 64
1, 61808, Note_off_c, 2, 52, 64
1, 61816, Note_on_c, 8, 52, 52
1, 61820, Note_off_c, 2, 59, 64
1, 61820, Note_on_c, 8, 57, 76
1, 61824, Note_on_c, 1, 38, 82
1, 61824, Note_on_c, 9, 44, 127
1, 61828, Note_on_c, 8, 62, 85
1, 61828, Note_on_c, 9, 51, 113
1, 61836, Note_off_c, 3, 71, 64
1, 61836, Note_off_c, 3, 76, 64
1, 61840, Note_off_c, 9, 44, 64
1, 61844, Note_off_c, 9, 51, 64
1, 61856, Note_off_c, 1, 36, 64
1, 61916, Note_off_c, 8, 52, 64
1, 61948, Note_off_c, 8, 62, 64
1, 61952, Note_off_c, 8, 57, 64
1, 62080, Note_on_c, 9, 51, 82
1, 62084, Note_on_c, 9, 40, 82
1, 62096, Note_off_c, 9, 51, 64
1, 62100, Note_off_c, 9, 40, 64
1, 62184, Control_c, 2, 64, 0
1, 62184, Control_c, 3, 64, 0
1, 62204, Note_on_c, 2, 59, 68
1, 62204, Note_on_c, 2, 52, 68
1, 62204, Note_on_c, 2, 48, 61
1, 62208, Note_on_c, 1, 40, 101
1, 62208, Note_on_c, 9, 51, 85
1, 62212, Note_off_c, 1, 38, 64
1, 62224, Note_off_c, 9, 51, 64
1, 62224, Note_on_c, 8, 52, 63
1, 62228, Note_on_c, 8, 57, 84
1, 62232, Note_on_c, 8, 62, 80
1, 62312, Note_off_c, 8, 52, 64
1, 62348, Note_off_c, 8, 57, 64
1, 62376, Note_off_c, 8, 62, 64
1, 62444, Note_on_c, 3, 67, 92
1, 62488, Control_c, 2, 64, 127
1, 62488, Control_c, 3, 64, 127
1, 62512, Note_off_c, 3, 67, 64
1, 62568, Note_off_c, 2, 48, 64
1, 62584, Note_off_c, 2, 59, 64
1, 62588, Note_off_c, 1, 40, 64
1, 62592, Note_on_c, 1, 43, 93
1, 62592, Note_on_c, 8, 52, 64
1, 62592, Note_on_c, 9, 51, 113
1, 62592, Note_on_c, 9, 44, 127
1, 62596, Note_off_c, 2, 52, 64
1, 62596, Note_on_c, 3, 69, 93
1, 62600, Note_on_c, 8, 57, 89
1, 62604, Note_on_c, 8, 62, 91
1, 62608, Note_off_c, 9, 44, 64
1, 62608, Note_off_c, 9, 51, 64
1, 62672, Note_off_c, 3, 69, 64
1, 62688, Note_off_c, 8, 52, 64
1, 62724, Note_off_c, 8, 62, 64
1, 62724, Note_off_c, 8, 57, 64
1, 62740, Control_c, 2, 64, 0
1, 62740, Control_c, 3, 64, 0
1, 62820, Note_on_c, 3, 70, 93
1, 62828, Note_off_c, 1, 43, 64
1, 62844, Note_on_c, 9, 51, 96
1, 62848, Note_on_c, 1, 36, 72
1, 62860, Note_off_c, 9, 51, 64
1, 62916, Note_off_c, 1, 36, 64
1, 62960, Control_c, 2, 64, 127
1, 62960, Control_c, 3, 64, 127
1, 62976, Note_on_c, 1, 48, 92
1, 62976, Note_on_c, 2, 48, 49
1, 62976, Note_on_c, 2, 52, 64
1, 62976, Note_on_c, 2, 58, 57
1, 62976, Note_on_c, 8, 52, 66
1, 62976, Note_on_c, 9, 51, 87
1, 62980, Note_on_c, 8, 58, 73
1, 62988, Note_on_c, 8, 62, 85
1, 62992, Note_off_c, 9, 51, 64
1, 63032, Note_off_c, 3, 70, 64
1, 63116, Note_off_c, 8, 58, 64
1, 63120, Note_off_c, 8, 52, 64
1, 63124, Note_off_c, 8, 62, 64
1, 63128, Note_off_c, 2, 48, 64
1, 63140, Note_off_c, 2, 52, 64
1, 63172, Note_on_c, 3, 76, 90
1, 63196, Note_off_c, 2, 58, 64
1, 63216, Note_off_c, 3, 76, 64
1, 63232, Note_on_c, 9, 47, 97
1, 63248, Note_off_c, 9, 47, 64
1, 63264, Note_on_c, 3, 77, 58
1, 63296, Note_off_c, 3, 77, 64
1, 63344, Note_off_c, 1, 48, 64
1, 63356, Note_on_c, 3, 78, 110
1, 63360, Note_on_c, 1, 46, 82
1, 63360, Note_on_c, 8, 52, 57
1, 63360, Note_on_c, 9, 44, 127
1, 63360, Note_on_c, 9, 51, 113
1, 63364, Note_on_c, 8, 58, 60
1, 63368, Note_on_c, 8, 62, 82
1, 63376, Note_off_c, 9, 51, 64
1, 63376, Note_off_c, 9, 44, 64
1, 63408, Note_off_c, 3, 78, 64
1, 63452, Note_on_c, 3, 81, 99
1, 63488, Note_off_c, 8, 52, 64
1, 63496, Note_off_c, 8, 62, 64
1, 63512, Note_off_c, 3, 81, 64
1, 63512, Note_off_c, 8, 58, 64
1, 63556, Note_on_c, 3, 79, 97
1, 63620, Note_off_c, 3, 79, 64
1, 63640, Note_on_c, 3, 76, 92
1, 63656, Control_c, 2, 64, 0
1, 63656, Control_c, 3, 64, 0
1, 63712, Note_off_c, 3, 76, 64
1, 63736, Note_on_c, 2, 54, 59
1, 63736, Note_on_c, 2, 58, 39
1, 63736, Note_on_c, 2, 64, 50
1, 63736, Note_on_c, 3, 72, 89
1, 63740, Note_off_c, 1, 46, 64
1, 63740, Note_on_c, 1, 42, 96
1, 63748, Note_on_c, 8, 61, 86
1, 63748, Note_on_c, 8, 58, 71
1, 63748, Note_on_c, 8, 52, 71
1, 63868, Note_off_c, 8, 52, 64
1, 63872, Note_off_c, 8, 58, 64
1, 63888, Note_off_c, 8, 61, 64
1, 63936, Control_c, 2, 64, 127
1, 63936, Control_c, 3, 64, 127
1, 63996, Note_on_c, 9, 40, 66
1, 64012, Note_off_c, 9, 40, 64
1, 64024, Note_off_c, 3, 72, 64
1, 64116, Note_off_c, 2, 58, 64
1, 64116, Note_on_c, 8, 58, 74
1, 64120, Note_off_c, 2, 54, 64
1, 64120, Note_on_c, 3, 72, 92
1, 64120, Note_on_c, 8, 61, 73
1, 64124, Note_on_c, 8, 52, 59
1, 64124, Note_on_c, 9, 43, 93
1, 64128, Note_on_c, 9, 51, 113
1, 64132, Note_off_c, 2, 64, 64
1, 64140, Note_off_c, 9, 43, 64
1, 64144, Note_off_c, 9, 51, 64
1, 64184, Note_off_c, 3, 72, 64
1, 64212, Note_off_c, 8, 52, 64
1, 64256, Note_off_c, 8, 58, 64
1, 64264, Note_off_c, 8, 61, 64
1, 64356, Note_off_c, 1, 42, 64
1, 64356, Note_on_c, 3, 84, 108
1, 64376, Control_c, 2, 64, 0
1, 64376, Control_c, 3, 64, 0
1, 64380, Note_on_c, 1, 40, 88
1, 64500, Note_off_c, 1, 40, 64
1, 64508, Note_on_c, 8, 60, 81
1, 64512, Note_on_c, 1, 41, 73
1, 64512, Note_on_c, 2, 53, 50
1, 64512, Note_on_c, 2, 64, 52
1, 64512, Note_on_c, 2, 57, 60
1, 64512, Note_on_c, 8, 57, 68
1, 64512, Note_on_c, 9, 51, 113
1, 64516, Note_on_c, 8, 64, 95
1, 64528, Note_off_c, 9, 51, 64
1, 64616, Note_off_c, 8, 57, 64
1, 64624, Note_off_c, 8, 64, 64
1, 64652, Note_off_c, 8, 60, 64
1, 64740, Note_on_c, 3, 72, 79
1, 64760, Note_off_c, 3, 84, 64
1, 64816, Control_c, 2, 64, 127
1, 64816, Control_c, 3, 64, 127
1, 64888, Note_off_c, 1, 41, 64
1, 64892, Note_on_c, 1, 40, 98
1, 64900, Note_on_c, 9, 44, 127
1, 64900, Note_on_c, 9, 51, 113
1, 64916, Note_off_c, 9, 51, 64
1, 64916, Note_off_c, 9, 44, 64
1, 64916, Note_on_c, 8, 57, 66
1, 64920, Note_on_c, 8, 60, 91
1, 64920, Note_on_c, 8, 64, 93
1, 64960, Note_off_c, 2, 53, 64
1, 64988, Note_off_c, 2, 64, 64
1, 65000, Note_off_c, 2, 57, 64
1, 65036, Note_off_c, 8, 64, 64
1, 65044, Note_off_c, 8, 57, 64
1, 65048, Note_off_c, 8, 60, 64
1, 65100, Note_off_c, 3, 72, 64
1, 65136, Note_on_c, 3, 74, 96
1, 65148, Note_off_c, 1, 40, 64
1, 65148, Note_on_c, 9, 35, 40
1, 65152, Note_on_c, 1, 36, 66
1, 65152, Note_on_c, 9, 51, 79
1, 65164, Note_off_c, 9, 35, 64
1, 65168, Note_off_c, 9, 51, 64
1, 65248, Control_c, 2, 64, 0
1, 65248, Control_c, 3, 64, 0
1, 65256, Note_off_c, 1, 36, 64
1, 65264, Note_on_c, 2, 53, 52
1, 65276, Note_on_c, 2, 56, 65
1, 65276, Note_on_c, 9, 35, 66
1, 65280, Note_on_c, 1, 34, 82
1, 65280, Note_on_c, 9, 51, 88
1, 65284, Note_off_c, 3, 74, 64
1, 65288, Note_on_c, 3, 75, 73
1, 65292, Note_off_c, 9, 35, 64
1, 65292, Note_on_c, 2, 63, 63
1, 65296, Note_off_c, 9, 51, 64
1, 65300, Note_on_c, 8, 56, 65
1, 65308, Note_on_c, 8, 60, 96
1, 65312, Note_on_c, 8, 63, 90
1, 65320, Note_off_c, 3, 75, 64
1, 65372, Note_on_c, 3, 77, 83
1, 65400, Note_off_c, 8, 56, 64
1, 65424, Note_off_c, 8, 60, 64
1, 65428, Note_off_c, 3, 77, 64
1, 65452, Note_off_c, 8, 63, 64
1, 65468, Note_on_c, 3, 75, 72
1, 65532, Note_off_c, 3, 75, 64
1, 65564, Note_on_c, 3, 72, 84
1, 65648, Note_off_c, 3, 72, 64
1, 65652, Note_off_c, 1, 34, 64
1, 65656, Note_on_c, 8, 56, 63
1, 65664, Note_on_c, 1, 38, 67
1, 65664, Note_on_c, 9, 44, 127
1, 65664, Note_on_c, 9, 51, 113
1, 65668, Note_on_c, 3, 74, 105
1, 65676, Note_on_c, 8, 60, 96
1, 65680, Note_off_c, 9, 51, 64
1, 65680, Note_off_c, 9, 44, 64
1, 65680, Note_on_c, 8, 63, 90
1, 65708, Control_c, 2, 64, 127
1, 65708, Control_c, 3, 64, 127
1, 65740, Note_off_c, 2, 63, 64
1, 65768, Note_off_c, 8, 56, 64
1, 65768, Note_off_c, 2, 56, 64
1, 65796, Note_off_c, 8, 60, 64
1, 65804, Note_off_c, 2, 53, 64
1, 65808, Note_off_c, 3, 74, 64
1, 65824, Note_off_c, 8, 63, 64
1, 65900, Note_on_c, 3, 72, 100
1, 65916, Note_on_c, 9, 51, 72
1, 65932, Note_off_c, 9, 51, 64
1, 65964, Control_c, 2, 64, 0
1, 65964, Control_c, 3, 64, 0
1, 66040, Note_off_c, 1, 38, 64
1, 66040, Note_on_c, 8, 55, 66
1, 66048, Note_on_c, 1, 40, 95
1, 66048, Note_on_c, 2, 62, 68
1, 66048, Note_on_c, 2, 55, 64
1, 66048, Note_on_c, 9, 51, 101
1, 66052, Note_on_c, 2, 52, 41
1, 66052, Note_on_c, 8, 59, 91
1, 66060, Note_on_c, 8, 62, 91
1, 66064, Note_off_c, 9, 51, 64
1, 66152, Note_off_c, 8, 55, 64
1, 66160, Note_off_c, 8, 59, 64
1, 66192, Note_off_c, 8, 62, 64
1, 66276, Note_on_c, 3, 79, 99
1, 66284, Note_off_c, 3, 72, 64
1, 66284, Note_on_c, 3, 67, 84
1, 66304, Note_on_c, 9, 35, 89
1, 66320, Note_off_c, 9, 35, 64
1, 66352, Control_c, 2, 64, 127
1, 66352, Control_c, 3, 64, 127
1, 66412, Note_off_c, 1, 40, 64
1, 66428, Note_on_c, 1, 38, 66
1, 66428, Note_on_c, 9, 51, 113
1, 66432, Note_on_c, 9, 44, 127
1, 66440, Note_on_c, 8, 55, 48
1, 66444, Note_off_c, 9, 51, 64
1, 66444, Note_off_c, 2, 62, 64
1, 66444, Note_on_c, 8, 59, 91
1, 66448, Note_off_c, 9, 44, 64
1, 66448, Note_off_c, 2, 55, 64
1, 66452, Note_on_c, 8, 62, 89
1, 66468, Note_off_c, 2, 52, 64
1, 66560, Note_off_c, 8, 55, 64
1, 66564, Note_off_c, 8, 59, 64
1, 66592, Note_off_c, 3, 67, 64
1, 66600, Note_off_c, 8, 62, 64
1, 66684, Note_on_c, 9, 51, 87
1, 66700, Note_off_c, 9, 51, 64
1, 66792, Note_off_c, 3, 79, 64
1, 66816, Note_on_c, 1, 36, 84
1, 66816, Note_on_c, 9, 51, 94
1, 66820, Note_on_c, 2, 52, 59
1, 66820, Note_on_c, 2, 48, 63
1, 66820, Note_on_c, 2, 58, 52
1, 66828, Note_off_c, 1, 38, 64
1, 66832, Note_off_c, 9, 51, 64
1, 66836, Control_c, 2, 64, 0
1, 66836, Control_c, 3, 64, 0
1, 66836, Note_on_c, 8, 55, 72
1, 66840, Note_on_c, 8, 64, 96
1, 66840, Note_on_c, 8, 58, 82
1, 66952, Note_off_c, 8, 58, 64
1, 66964, Note_off_c, 8, 55, 64
1, 66984, Note_off_c, 8, 64, 64
1, 67072, Note_on_c, 9, 40, 106
1, 67088, Note_off_c, 9, 40, 64
1, 67152, Note_off_c, 2, 48, 64
1, 67160, Note_off_c, 1, 36, 64
1, 67168, Note_off_c, 2, 52, 64
1, 67176, Control_c, 2, 64, 127
1, 67176, Control_c, 3, 64, 127
1, 67196, Note_on_c, 3, 79, 102
1, 67200, Note_on_c, 1, 28, 98
1, 67200, Note_on_c, 8, 58, 84
1, 67200, Note_on_c, 9, 51, 113
1, 67200, Note_on_c, 9, 44, 127
1, 67204, Note_on_c, 8, 55, 61
1, 67208, Note_on_c, 8, 64, 96
1, 67216, Note_off_c, 9, 44, 64
1, 67216, Note_off_c, 9, 51, 64
1, 67228, Note_off_c, 2, 58, 64
1, 67248, Note_off_c, 3, 79, 64
1, 67312, Note_off_c, 8, 55, 64
1, 67312, Note_off_c, 8, 58, 64
1, 67316, Note_off_c, 8, 64, 64
1, 67328, Note_on_c, 3, 81, 94
1, 67376, Note_off_c, 3, 81, 64
1, 67428, Note_on_c, 3, 79, 99
1, 67452, Note_on_c, 9, 51, 94
1, 67452, Note_on_c, 9, 35, 51
1, 67468, Note_off_c, 9, 35, 64
1, 67468, Note_off_c, 9, 51, 64
1, 67476, Note_off_c, 3, 79, 64
1, 67548, Control_c, 2, 64, 0
1, 67548, Control_c, 3, 64, 0
1, 67556, Note_on_c, 8, 57, 39
1, 67572, Note_on_c, 8, 64, 95
1, 67572, Note_on_c, 8, 60, 92
1, 67584, Note_on_c, 1, 29, 101
1, 67584, Note_on_c, 2, 53, 50
1, 67584, Note_on_c, 2, 57, 61
1, 67584, Note_on_c, 2, 64, 74
1, 67584, Note_on_c, 3, 84, 100
1, 67584, Note_on_c, 9, 51, 90
1, 67584, Note_on_c, 9, 35, 93
1, 67600, Note_off_c, 9, 35, 64
1, 67600, Note_off_c, 9, 51, 64
1, 67612, Note_off_c, 1, 28, 64
1, 67692, Note_off_c, 8, 57, 64
1, 67696, Note_off_c, 8, 60, 64
1, 67696, Note_off_c, 8, 64, 64
1, 67820, Note_on_c, 3, 72, 82
1, 67844, Note_off_c, 3, 84, 64
1, 67952, Note_on_c, 8, 57, 52
1, 67960, Control_c, 2, 64, 127
1, 67960, Control_c, 3, 64, 127
1, 67964, Note_on_c, 8, 64, 100
1, 67964, Note_on_c, 9, 44, 127
1, 67964, Note_on_c, 9, 51, 113
1, 67968, Note_on_c, 1, 33, 93
1, 67968, Note_on_c, 8, 60, 93
1, 67976, Note_off_c, 1, 29, 64
1, 67980, Note_off_c, 9, 51, 64
1, 67980, Note_off_c, 9, 44, 64
1, 68088, Note_off_c, 8, 64, 64
1, 68096, Note_off_c, 8, 60, 64
1, 68096, Note_off_c, 2, 53, 64
1, 68104, Note_off_c, 8, 57, 64
1, 68144, Note_off_c, 2, 64, 64
1, 68144, Note_off_c, 2, 57, 64
1, 68196, Note_off_c, 1, 33, 64
1, 68200, Note_off_c, 3, 72, 64
1, 68204, Note_on_c, 3, 74, 99
1, 68216, Note_on_c, 9, 51, 79
1, 68228, Note_on_c, 1, 36, 70
1, 68232, Note_off_c, 9, 51, 64
1, 68332, Control_c, 2, 64, 0
1, 68332, Control_c, 3, 64, 0
1, 68344, Note_off_c, 1, 36, 64
1, 68344, Note_on_c, 9, 51, 98
1, 68348, Note_on_c, 2, 53, 56
1, 68348, Note_on_c, 2, 56, 57
1, 68348, Note_on_c, 2, 63, 56
1, 68352, Note_on_c, 1, 41, 90
1, 68356, Note_off_c, 3, 74, 64
1, 68356, Note_on_c, 3, 75, 101
1, 68356, Note_on_c, 8, 56, 77
1, 68360, Note_off_c, 9, 51, 64
1, 68360, Note_on_c, 8, 63, 88
1, 68368, Note_on_c, 8, 60, 98
1, 68456, Note_off_c, 8, 56, 64
1, 68460, Note_off_c, 8, 60, 64
1, 68508, Note_off_c, 8, 63, 64
1, 68588, Note_on_c, 3, 74, 87
1, 68604, Note_off_c, 3, 75, 64
1, 68668, Control_c, 2, 64, 127
1, 68668, Control_c, 3, 64, 127
1, 68704, Note_off_c, 3, 74, 64
1, 68712, Note_off_c, 1, 41, 64
1, 68724, Note_off_c, 2, 53, 64
1, 68728, Note_off_c, 2, 56, 64
1, 68736, Note_on_c, 1, 34, 88
1, 68736, Note_on_c, 9, 44, 127
1, 68736, Note_on_c, 9, 51, 113
1, 68736, Note_on_c, 9, 43, 102
1, 68740, Note_on_c, 3, 72, 99
1, 68740, Note_on_c, 8, 56, 75
1, 68748, Note_off_c, 2, 63, 64
1, 68748, Note_on_c, 8, 60, 100
1, 68752, Note_off_c, 9, 43, 64
1, 68752, Note_off_c, 9, 51, 64
1, 68752, Note_off_c, 9, 44, 64
1, 68752, Note_on_c, 8, 63, 88
1, 68800, Note_off_c, 3, 72, 64
1, 68836, Note_off_c, 8, 56, 64
1, 68856, Note_off_c, 8, 60, 64
1, 68872, Note_off_c, 8, 63, 64
1, 68972, Note_on_c, 3, 79, 102
1, 68992, Note_on_c, 9, 51, 107
1, 69008, Note_off_c, 9, 51, 64
1, 69052, Control_c, 2, 64, 0
1, 69052, Control_c, 3, 64, 0
1, 69116, Note_off_c, 1, 34, 64
1, 69120, Note_on_c, 2, 55, 65
1, 69120, Note_on_c, 2, 52, 50
1, 69120, Note_on_c, 2, 62, 64
1, 69120, Note_on_c, 9, 51, 70
1, 69124, Note_on_c, 1, 40, 106
1, 69132, Note_on_c, 8, 55, 68
1, 69136, Note_off_c, 9, 51, 64
1, 69136, Note_on_c, 8, 59, 95
1, 69140, Note_on_c, 8, 62, 95
1, 69280, Note_off_c, 8, 59, 64
1, 69304, Note_off_c, 8, 55, 64
1, 69308, Note_off_c, 8, 62, 64
1, 69356, Note_on_c, 3, 67, 83
1, 69376, Note_off_c, 3, 79, 64
1, 69376, Note_on_c, 9, 51, 66
1, 69392, Note_off_c, 9, 51, 64
1, 69392, Control_c, 2, 64, 127
1, 69392, Control_c, 3, 64, 127
1, 69444, Note_off_c, 3, 67, 64
1, 69476, Note_off_c, 2, 52, 64
1, 69484, Note_off_c, 2, 55, 64
1, 69496, Note_off_c, 1, 40, 64
1, 69504, Note_on_c, 1, 38, 84
1, 69504, Note_on_c, 9, 51, 109
1, 69504, Note_on_c, 9, 44, 127
1, 69508, Note_on_c, 3, 69, 85
1, 69520, Note_off_c, 9, 44, 64
1, 69520, Note_off_c, 9, 51, 64
1, 69532, Note_off_c, 2, 62, 64
1, 69536, Note_on_c, 8, 59, 86
1, 69536, Note_on_c, 8, 55, 72
1, 69540, Note_on_c, 8, 62, 83
1, 69568, Note_off_c, 3, 69, 64
1, 69644, Note_off_c, 8, 62, 64
1, 69648, Note_off_c, 8, 59, 64
1, 69656, Note_off_c, 8, 55, 64
1, 69732, Note_off_c, 1, 38, 64
1, 69740, Note_on_c, 3, 70, 88
1, 69756, Note_on_c, 1, 35, 81
1, 69860, Control_c, 2, 64, 0
1, 69860, Control_c, 3, 64, 0
1, 69884, Note_on_c, 2, 52, 50
1, 69884, Note_on_c, 2, 55, 56
1, 69884, Note_on_c, 2, 61, 60
1, 69888, Note_on_c, 1, 33, 101
1, 69888, Note_on_c, 8, 55, 71
1, 69892, Note_off_c, 1, 35, 64
1, 69892, Note_on_c, 8, 61, 77
1, 69892, Note_on_c, 9, 51, 86
1, 69908, Note_off_c, 9, 51, 64
1, 70068, Note_off_c, 8, 55, 64
1, 70072, Note_off_c, 8, 61, 64
1, 70136, Control_c, 2, 64, 127
1, 70136, Control_c, 3, 64, 127
1, 70144, Note_on_c, 9, 51, 104
1, 70144, Note_on_c, 9, 40, 117
1, 70160, Note_off_c, 9, 40, 64
1, 70160, Note_off_c, 9, 51, 64
1, 70236, Note_off_c, 2, 55, 64
1, 70256, Note_off_c, 2, 61, 64
1, 70256, Note_off_c, 3, 70, 64
1, 70268, Note_off_c, 2, 52, 64
1, 70268, Note_on_c, 3, 72, 77
1, 70272, Note_on_c, 1, 37, 117
1, 70272, Note_on_c, 8, 61, 104
1, 70272, Note_on_c, 9, 44, 127
1, 70272, Note_on_c, 9, 51, 113
1, 70276, Note_off_c, 1, 33, 64
1, 70276, Note_on_c, 8, 55, 81
1, 70288, Note_off_c, 9, 51, 64
1, 70288, Note_off_c, 9, 44, 64
1, 70424, Note_off_c, 8, 61, 64
1, 70428, Note_off_c, 8, 55, 64
1, 70488, Note_off_c, 3, 72, 64
1, 70504, Note_off_c, 1, 37, 64
1, 70508, Note_on_c, 3, 69, 73
1, 70524, Note_on_c, 9, 35, 49
1, 70528, Note_on_c, 1, 33, 51
1, 70540, Note_off_c, 9, 35, 64
1, 70552, Note_off_c, 1, 33, 64
1, 70624, Note_off_c, 3, 69, 64
1, 70624, Control_c, 2, 64, 0
1, 70624, Control_c, 3, 64, 0
1, 70656, Note_on_c, 1, 38, 104
1, 70656, Note_on_c, 2, 60, 69
1, 70656, Note_on_c, 2, 54, 47
1, 70656, Note_on_c, 2, 50, 50
1, 70656, Note_on_c, 8, 54, 76
1, 70660, Note_on_c, 9, 51, 107
1, 70672, Note_on_c, 8, 64, 101
1, 70676, Note_off_c, 9, 51, 64
1, 70676, Note_on_c, 8, 60, 92
1, 70792, Note_off_c, 8, 60, 64
1, 70800, Note_off_c, 8, 64, 64
1, 70808, Note_off_c, 8, 54, 64
1, 71024, Note_off_c, 1, 38, 64
1, 71028, Control_c, 2, 64, 127
1, 71028, Control_c, 3, 64, 127
1, 71032, Note_on_c, 8, 54, 67
1, 71040, Note_on_c, 1, 30, 97
1, 71040, Note_on_c, 3, 81, 86
1, 71044, Note_on_c, 8, 64, 96
1, 71044, Note_on_c, 9, 44, 127
1, 71044, Note_on_c, 9, 51, 113
1, 71048, Note_on_c, 8, 60, 92
1, 71060, Note_off_c, 9, 51, 64
1, 71060, Note_off_c, 9, 44, 64
1, 71076, Note_off_c, 2, 50, 64
1, 71092, Note_off_c, 2, 60, 64
1, 71096, Note_off_c, 2, 54, 64
1, 71156, Note_off_c, 8, 54, 64
1, 71176, Note_off_c, 8, 60, 64
1, 71184, Note_off_c, 8, 64, 64
1, 71252, Note_off_c, 3, 81, 64
1, 71280, Note_on_c, 3, 84, 79
1, 71296, Note_on_c, 9, 51, 74
1, 71312, Note_off_c, 9, 51, 64
1, 71404, Note_off_c, 3, 84, 64
1, 71424, Note_on_c, 1, 33, 102
1, 71424, Control_c, 2, 64, 0
1, 71424, Control_c, 3, 64, 0
1, 71424, Note_on_c, 9, 51, 113
1, 71428, Note_on_c, 2, 60, 50
1, 71428, Note_on_c, 2, 50, 47
1, 71428, Note_on_c, 2, 54, 57
1, 71428, Note_on_c, 3, 81, 88
1, 71428, Note_on_c, 8, 54, 69
1, 71436, Note_on_c, 8, 64, 100
1, 71440, Note_off_c, 9, 51, 64
1, 71444, Note_off_c, 1, 30, 64
1, 71448, Note_on_c, 8, 60, 86
1, 71544, Note_off_c, 8, 60, 64
1, 71560, Note_off_c, 8, 54, 64
1, 71584, Note_off_c, 8, 64, 64
1, 71664, Note_on_c, 3, 76, 101
1, 71668, Note_off_c, 3, 81, 64
1, 71724, Control_c, 2, 64, 127
1, 71724, Control_c, 3, 64, 127
1, 71792, Note_off_c, 3, 76, 64
1, 71800, Note_off_c, 1, 33, 64
1, 71804, Note_on_c, 1, 36, 85
1, 71808, Note_on_c, 9, 44, 127
1, 71808, Note_on_c, 9, 51, 113
1, 71812, Note_on_c, 3, 72, 88
1, 71816, Note_on_c, 8, 54, 77
1, 71824, Note_off_c, 9, 51, 64
1, 71824, Note_off_c, 9, 44, 64
1, 71828, Note_on_c, 8, 64, 104
1, 71832, Note_off_c, 2, 50, 64
1, 71836, Note_on_c, 8, 60, 89
1, 71860, Note_off_c, 2, 54, 64
1, 71884, Note_off_c, 2, 60, 64
1, 71896, Note_off_c, 3, 72, 64
1, 71928, Note_on_c, 3, 76, 97
1, 71944, Note_off_c, 8, 60, 64
1, 71944, Note_off_c, 8, 54, 64
1, 71984, Note_off_c, 8, 64, 64
1, 71988, Note_off_c, 3, 76, 64
1, 72036, Note_on_c, 3, 80, 101
1, 72060, Note_on_c, 9, 51, 78
1, 72064, Note_on_c, 1, 37, 81
1, 72072, Note_off_c, 1, 36, 64
1, 72076, Note_off_c, 9, 51, 64
1, 72156, Control_c, 2, 64, 0
1, 72156, Control_c, 3, 64, 0
1, 72168, Note_off_c, 1, 37, 64
1, 72172, Note_off_c, 3, 80, 64
1, 72192, Note_on_c, 1, 38, 98
1, 72192, Note_on_c, 2, 60, 59
1, 72192, Note_on_c, 2, 55, 69
1, 72192, Note_on_c, 2, 50, 59
1, 72192, Note_on_c, 3, 83, 90
1, 72192, Note_on_c, 8, 55, 78
1, 72192, Note_on_c, 9, 51, 101
1, 72196, Note_on_c, 8, 64, 98
1, 72200, Note_on_c, 8, 60, 82
1, 72208, Note_off_c, 9, 51, 64
1, 72308, Note_off_c, 8, 60, 64
1, 72344, Note_off_c, 8, 55, 64
1, 72360, Note_off_c, 8, 64, 64
1, 72428, Note_on_c, 3, 84, 82
1, 72436, Note_off_c, 3, 83, 64
1, 72512, Control_c, 2, 64, 127
1, 72512, Control_c, 3, 64, 127
1, 72520, Note_off_c, 3, 84, 64
1, 72568, Note_on_c, 8, 55, 59
1, 72572, Note_on_c, 1, 40, 96
1, 72572, Note_on_c, 3, 83, 83
1, 72572, Note_on_c, 9, 51, 113
1, 72572, Note_on_c, 9, 44, 127
1, 72580, Note_off_c, 1, 38, 64
1, 72584, Note_on_c, 8, 60, 98
1, 72588, Note_off_c, 9, 44, 64
1, 72588, Note_off_c, 9, 51, 64
1, 72588, Note_on_c, 8, 64, 96
1, 72620, Note_off_c, 2, 50, 64
1, 72648, Note_off_c, 2, 55, 64
1, 72668, Note_off_c, 2, 60, 64
1, 72704, Note_off_c, 8, 60, 64
1, 72708, Note_off_c, 8, 64, 64
1, 72744, Note_off_c, 3, 83, 64
1, 72744, Note_off_c, 8, 55, 64
1, 72812, Note_on_c, 3, 81, 66
1, 72828, Note_on_c, 9, 51, 76
1, 72844, Note_off_c, 9, 51, 64
1, 72912, Control_c, 2, 64, 0
1, 72912, Control_c, 3, 64, 0
1, 72932, Note_off_c, 3, 81, 64
1, 72952, Note_on_c, 2, 54, 54
1, 72952, Note_on_c, 2, 60, 54
1, 72952, Note_on_c, 9, 51, 98
1, 72956, Note_on_c, 2, 50, 52
1, 72956, Note_on_c, 3, 76, 71
1, 72960, Note_on_c, 1, 42, 94
1, 72964, Note_off_c, 1, 40, 64
1, 72964, Note_on_c, 8, 54, 71
1, 72968, Note_off_c, 9, 51, 64
1, 72984, Note_on_c, 8, 64, 98
1, 72984, Note_on_c, 8, 60, 89
1, 73020, Control_c, 2, 64, 127
1, 73020, Control_c, 3, 64, 127
1, 73088, Note_off_c, 8, 60, 64
1, 73096, Note_off_c, 8, 54, 64
1, 73100, Note_off_c, 8, 64, 64
1, 73180, Note_off_c, 3, 76, 64
1, 73196, Note_on_c, 3, 72, 90
1, 73212, Note_on_c, 9, 40, 89
1, 73228, Note_off_c, 9, 40, 64
1, 73284, Note_off_c, 3, 72, 64
1, 73336, Note_on_c, 9, 51, 113
1, 73336, Note_on_c, 9, 44, 125
1, 73340, Note_on_c, 3, 71, 89
1, 73344, Note_on_c, 1, 45, 83
1, 73344, Note_on_c, 8, 54, 72
1, 73352, Note_off_c, 9, 44, 64
1, 73352, Note_off_c, 9, 51, 64
1, 73356, Note_off_c, 2, 54, 64
1, 73360, Note_off_c, 1, 42, 64
1, 73360, Note_on_c, 8, 64, 93
1, 73364, Note_off_c, 2, 50, 64
1, 73364, Note_on_c, 8, 60, 90
1, 73396, Note_off_c, 2, 60, 64
1, 73416, Note_off_c, 3, 71, 64
1, 73456, Note_off_c, 8, 54, 64
1, 73464, Note_off_c, 8, 60, 64
1, 73476, Note_off_c, 8, 64, 64
1, 73572, Note_on_c, 3, 69, 76
1, 73580, Note_off_c, 1, 45, 64
1, 73596, Note_on_c, 9, 51, 90
1, 73596, Note_on_c, 9, 35, 50
1, 73600, Note_on_c, 1, 48, 69
1, 73612, Note_off_c, 9, 35, 64
1, 73612, Note_off_c, 9, 51, 64
1, 73676, Note_off_c, 1, 48, 64
1, 73696, Control_c, 2, 64, 0
1, 73696, Control_c, 3, 64, 0
1, 73716, Note_off_c, 3, 69, 64
1, 73724, Note_on_c, 8, 53, 58
1, 73728, Note_on_c, 1, 50, 96
1, 73728, Note_on_c, 2, 60, 86
1, 73728, Note_on_c, 2, 53, 74
1, 73728, Note_on_c, 2, 50, 64
1, 73728, Note_on_c, 3, 76, 98
1, 73728, Note_on_c, 8, 57, 89
1, 73728, Note_on_c, 9, 51, 107
1, 73728, Note_on_c, 9, 35, 86
1, 73744, Note_off_c, 9, 35, 64
1, 73744, Note_off_c, 9, 51, 64
1, 73748, Note_on_c, 8, 60, 100
1, 73848, Note_off_c, 8, 53, 64
1, 73876, Note_off_c, 8, 60, 64
1, 73896, Note_off_c, 8, 57, 64
1, 73956, Note_on_c, 3, 79, 98
1, 73984, Control_c, 2, 64, 127
1, 73984, Control_c, 3, 64, 127
1, 73996, Note_off_c, 3, 76, 64
1, 74020, Note_off_c, 3, 79, 64
1, 74096, Note_off_c, 1, 50, 64
1, 74104, Note_on_c, 8, 53, 73
1, 74108, Note_on_c, 3, 79, 98
1, 74108, Note_on_c, 8, 60, 96
1, 74108, Note_on_c, 9, 44, 127
1, 74112, Note_on_c, 1, 48, 100
1, 74112, Note_on_c, 8, 57, 90
1, 74112, Note_on_c, 9, 51, 113
1, 74124, Note_off_c, 9, 44, 64
1, 74128, Note_off_c, 9, 51, 64
1, 74176, Note_off_c, 2, 60, 64
1, 74216, Note_off_c, 8, 53, 64
1, 74224, Note_off_c, 2, 53, 64
1, 74244, Note_off_c, 8, 57, 64
1, 74248, Note_off_c, 2, 50, 64
1, 74260, Note_off_c, 8, 60, 64
1, 74260, Note_off_c, 3, 79, 64
1, 74340, Note_on_c, 3, 81, 98
1, 74364, Note_on_c, 9, 51, 78
1, 74380, Note_off_c, 9, 51, 64
1, 74444, Note_off_c, 3, 81, 64
1, 74476, Note_on_c, 8, 53, 49
1, 74488, Note_on_c, 8, 57, 89
1, 74492, Note_on_c, 9, 51, 101
1, 74496, Note_off_c, 1, 48, 64
1, 74496, Note_on_c, 1, 45, 97
1, 74496, Note_on_c, 2, 50, 31
1, 74496, Note_on_c, 2, 53, 62
1, 74496, Note_on_c, 8, 60, 100
1, 74500, Note_on_c, 2, 60, 75
1, 74504, Control_c, 2, 64, 0
1, 74504, Control_c, 3, 64, 0
1, 74504, Note_on_c, 3, 75, 86
1, 74508, Note_off_c, 9, 51, 64
1, 74548, Note_off_c, 3, 75, 64
1, 74588, Note_on_c, 3, 74, 92
1, 74604, Note_off_c, 8, 53, 64
1, 74636, Note_off_c, 8, 57, 64
1, 74640, Note_off_c, 3, 74, 64
1, 74648, Note_off_c, 8, 60, 64
1, 74696, Note_on_c, 3, 72, 94
1, 74876, Note_on_c, 1, 41, 97
1, 74876, Note_on_c, 8, 53, 61
1, 74876, Note_on_c, 9, 51, 113
1, 74876, Note_on_c, 9, 44, 127
1, 74884, Note_off_c, 1, 45, 64
1, 74884, Note_on_c, 3, 69, 93
1, 74884, Note_on_c, 8, 60, 95
1, 74884, Note_on_c, 8, 57, 84
1, 74892, Note_off_c, 9, 44, 64
1, 74892, Note_off_c, 9, 51, 64
1, 74928, Note_off_c, 3, 72, 64
1, 74928, Control_c, 2, 64, 127
1, 74928, Control_c, 3, 64, 127
1, 74968, Note_off_c, 8, 53, 64
1, 74980, Note_off_c, 2, 60, 64
1, 75004, Note_off_c, 2, 53, 64
1, 75024, Note_off_c, 8, 57, 64
1, 75028, Note_off_c, 2, 50, 64
1, 75036, Note_off_c, 8, 60, 64
1, 75116, Note_on_c, 3, 72, 93
1, 75120, Note_off_c, 3, 69, 64
1, 75136, Note_on_c, 9, 51, 68
1, 75148, Note_off_c, 3, 72, 64
1, 75152, Note_off_c, 9, 51, 64
1, 75240, Note_on_c, 8, 55, 68
1, 75256, Note_on_c, 8, 59, 98
1, 75260, Control_c, 2, 64, 0
1, 75260, Control_c, 3, 64, 0
1, 75264, Note_off_c, 1, 41, 64
1, 75264, Note_on_c, 1, 40, 90
1, 75264, Note_on_c, 2, 52, 46
1, 75264, Note_on_c, 2, 55, 71
1, 75264, Note_on_c, 2, 62, 73
1, 75264, Note_on_c, 8, 62, 90
1, 75264, Note_on_c, 9, 51, 107
1, 75268, Note_on_c, 3, 76, 98
1, 75280, Note_off_c, 9, 51, 64
1, 75364, Note_off_c, 8, 55, 64
1, 75400, Note_off_c, 8, 59, 64
1, 75424, Note_off_c, 8, 62, 64
1, 75504, Note_on_c, 3, 79, 77
1, 75520, Note_on_c, 9, 50, 95
1, 75536, Note_off_c, 9, 50, 64
1, 75540, Note_off_c, 3, 76, 64
1, 75600, Control_c, 2, 64, 127
1, 75600, Control_c, 3, 64, 127
1, 75612, Note_off_c, 3, 79, 64
1, 75632, Note_off_c, 1, 40, 64
1, 75648, Note_on_c, 1, 35, 102
1, 75648, Note_on_c, 9, 44, 127
1, 75652, Note_on_c, 3, 71, 84
1, 75664, Note_off_c, 9, 44, 64
1, 75664, Note_on_c, 8, 55, 66
1, 75664, Note_on_c, 8, 59, 86
1, 75680, Note_on_c, 8, 62, 88
1, 75684, Note_off_c, 2, 52, 64
1, 75728, Note_off_c, 2, 62, 64
1, 75728, Note_off_c, 2, 55, 64
1, 75748, Note_off_c, 8, 55, 64
1, 75796, Note_off_c, 8, 59, 64
1, 75816, Note_off_c, 8, 62, 64
1, 75880, Note_off_c, 3, 71, 64
1, 75884, Note_on_c, 3, 70, 74
1, 75900, Note_on_c, 9, 40, 80
1, 75916, Note_off_c, 9, 40, 64
1, 75952, Control_c, 2, 64, 0
1, 75952, Control_c, 3, 64, 0
1, 76028, Note_off_c, 1, 35, 64
1, 76028, Note_on_c, 2, 55, 69
1, 76028, Note_on_c, 2, 61, 52
1, 76028, Note_on_c, 2, 51, 33
1, 76032, Note_on_c, 1, 39, 89
1, 76032, Note_on_c, 8, 55, 53
1, 76036, Note_on_c, 8, 58, 77
1, 76056, Note_on_c, 8, 61, 75
1, 76124, Note_off_c, 8, 58, 64
1, 76160, Control_c, 2, 64, 127
1, 76160, Control_c, 3, 64, 127
1, 76164, Note_off_c, 8, 55, 64
1, 76200, Note_off_c, 8, 61, 64
1, 76284, Note_on_c, 9, 40, 48
1, 76300, Note_off_c, 9, 40, 64
1, 76320, Note_off_c, 3, 70, 64
1, 76404, Note_off_c, 1, 39, 64
1, 76404, Note_on_c, 8, 55, 63
1, 76412, Note_on_c, 3, 70, 89
1, 76416, Note_on_c, 1, 34, 86
1, 76416, Note_on_c, 8, 58, 85
1, 76416, Note_on_c, 9, 44, 127
1, 76416, Note_on_c, 9, 43, 100
1, 76428, Note_off_c, 2, 51, 64
1, 76428, Note_off_c, 2, 55, 64
1, 76428, Note_on_c, 8, 61, 88
1, 76432, Note_off_c, 9, 43, 64
1, 76432, Note_off_c, 9, 44, 64
1, 76456, Note_off_c, 2, 61, 64
1, 76528, Note_off_c, 8, 55, 64
1, 76544, Note_off_c, 8, 58, 64
1, 76576, Note_off_c, 8, 61, 64
1, 76640, Note_off_c, 3, 70, 64
1, 76652, Note_on_c, 3, 69, 71
1, 76660, Note_off_c, 1, 34, 64
1, 76672, Note_on_c, 1, 39, 76
1, 76728, Note_off_c, 1, 39, 64
1, 76776, Control_c, 2, 64, 0
1, 76776, Control_c, 3, 64, 0
1, 76792, Note_off_c, 3, 69, 64
1, 76800, Note_on_c, 1, 38, 104
1, 76800, Note_on_c, 2, 60, 43
1, 76800, Note_on_c, 2, 54, 58
1, 76800, Note_on_c, 2, 50, 51
1, 76800, Note_on_c, 8, 64, 98
1, 76800, Note_on_c, 8, 54, 81
1, 76800, Note_on_c, 9, 51, 113
1, 76804, Note_on_c, 8, 60, 91
1, 76816, Note_off_c, 9, 51, 64
1, 76896, Note_off_c, 8, 54, 64
1, 76904, Note_off_c, 8, 64, 64
1, 76908, Note_off_c, 8, 60, 64
1, 77176, Control_c, 2, 64, 127
1, 77176, Control_c, 3, 64, 127
1, 77184, Note_on_c, 3, 81, 87
1, 77188, Note_on_c, 1, 50, 101
1, 77188, Note_on_c, 9, 44, 127
1, 77188, Note_on_c, 9, 51, 113
1, 77196, Note_off_c, 1, 38, 64
1, 77204, Note_off_c, 9, 51, 64
1, 77204, Note_off_c, 9, 44, 64
1, 77204, Note_on_c, 8, 54, 69
1, 77208, Note_on_c, 8, 64, 89
1, 77212, Note_on_c, 8, 60, 89
1, 77252, Note_off_c, 2, 50, 64
1, 77260, Note_off_c, 2, 60, 64
1, 77272, Note_off_c, 2, 54, 64
1, 77320, Note_off_c, 8, 54, 64
1, 77332, Note_off_c, 8, 60, 64
1, 77348, Note_off_c, 8, 64, 64
1, 77348, Note_off_c, 3, 81, 64
1, 77416, Note_on_c, 3, 84, 79
1, 77436, Note_on_c, 9, 51, 77
1, 77452, Note_off_c, 9, 51, 64
1, 77556, Note_off_c, 3, 84, 64
1, 77560, Control_c, 2, 64, 0
1, 77560, Control_c, 3, 64, 0
1, 77564, Note_on_c, 2, 60, 60
1, 77564, Note_on_c, 3, 81, 90
1, 77564, Note_on_c, 9, 51, 105
1, 77568, Note_on_c, 1, 48, 93
1, 77568, Note_on_c, 2, 50, 56
1, 77568, Note_on_c, 2, 54, 52
1, 77572, Note_off_c, 1, 50, 64
1, 77580, Note_off_c, 9, 51, 64
1, 77584, Note_on_c, 8, 54, 66
1, 77588, Note_on_c, 8, 60, 88
1, 77588, Note_on_c, 8, 64, 95
1, 77688, Note_off_c, 8, 54, 64
1, 77700, Note_off_c, 8, 60, 64
1, 77712, Note_off_c, 8, 64, 64
1, 77804, Note_on_c, 3, 76, 94
1, 77836, Note_off_c, 3, 81, 64
1, 77920, Note_off_c, 3, 76, 64
1, 77928, Control_c, 2, 64, 127
1, 77928, Control_c, 3, 64, 127
1, 77944, Note_off_c, 1, 48, 64
1, 77948, Note_on_c, 9, 51, 113
1, 77948, Note_on_c, 9, 44, 127
1, 77952, Note_on_c, 1, 45, 83
1, 77956, Note_on_c, 3, 72, 93
1, 77956, Note_on_c, 8, 54, 74
1, 77960, Note_on_c, 8, 64, 91
1, 77964, Note_off_c, 9, 44, 64
1, 77964, Note_off_c, 9, 51, 64
1, 77964, Note_off_c, 2, 50, 64
1, 77964, Note_on_c, 8, 60, 91
1, 77984, Note_off_c, 2, 54, 64
1, 78020, Note_off_c, 2, 60, 64
1, 78068, Note_off_c, 8, 54, 64
1, 78068, Note_off_c, 3, 72, 64
1, 78076, Note_off_c, 8, 60, 64
1, 78076, Note_on_c, 3, 74, 98
1, 78080, Note_off_c, 8, 64, 64
1, 78136, Note_off_c, 3, 74, 64
1, 78180, Note_on_c, 3, 75, 94
1, 78192, Note_off_c, 1, 45, 64
1, 78204, Note_on_c, 9, 51, 94
1, 78204, Note_on_c, 9, 35, 39
1, 78212, Note_on_c, 1, 42, 73
1, 78220, Note_off_c, 9, 35, 64
1, 78220, Note_off_c, 9, 51, 64
1, 78240, Note_off_c, 3, 75, 64
1, 78304, Note_off_c, 1, 42, 64
1, 78304, Control_c, 2, 64, 0
1, 78304, Control_c, 3, 64, 0
1, 78336, Note_on_c, 1, 43, 88
1, 78336, Note_on_c, 2, 64, 67
1, 78336, Note_on_c, 2, 59, 49
1, 78336, Note_on_c, 2, 53, 57
1, 78336, Note_on_c, 8, 53, 48
1, 78336, Note_on_c, 8, 64, 91
1, 78336, Note_on_c, 8, 59, 90
1, 78336, Note_on_c, 9, 35, 79
1, 78336, Note_on_c, 9, 51, 113
1, 78340, Note_on_c, 3, 76, 84
1, 78352, Note_off_c, 9, 51, 64
1, 78352, Note_off_c, 9, 35, 64
1, 78456, Note_off_c, 8, 64, 64
1, 78472, Note_off_c, 8, 59, 64
1, 78472, Note_off_c, 8, 53, 64
1, 78560, Note_off_c, 3, 76, 64
1, 78564, Note_on_c, 3, 79, 96
1, 78684, Control_c, 2, 64, 127
1, 78684, Control_c, 3, 64, 127
1, 78708, Note_off_c, 1, 43, 64
1, 78716, Note_on_c, 9, 51, 113
1, 78720, Note_on_c, 1, 35, 102
1, 78720, Note_on_c, 8, 59, 92
1, 78720, Note_on_c, 8, 64, 93
1, 78720, Note_on_c, 9, 44, 127
1, 78728, Note_on_c, 8, 53, 54
1, 78732, Note_off_c, 9, 51, 64
1, 78736, Note_off_c, 9, 44, 64
1, 78800, Note_off_c, 2, 64, 64
1, 78816, Note_off_c, 2, 59, 64
1, 78840, Note_off_c, 8, 64, 64
1, 78852, Note_off_c, 8, 59, 64
1, 78868, Note_off_c, 8, 53, 64
1, 78868, Note_off_c, 2, 53, 64
1, 78972, Note_on_c, 9, 51, 88
1, 78988, Note_off_c, 9, 51, 64
1, 79088, Control_c, 2, 64, 0
1, 79088, Control_c, 3, 64, 0
1, 79100, Note_on_c, 2, 53, 42
1, 79100, Note_on_c, 2, 59, 60
1, 79100, Note_on_c, 9, 51, 113
1, 79104, Note_on_c, 2, 64, 51
1, 79108, Note_on_c, 1, 38, 92
1, 79116, Note_off_c, 9, 51, 64
1, 79120, Note_off_c, 1, 35, 64
1, 79120, Note_on_c, 8, 64, 89
1, 79120, Note_on_c, 8, 59, 83
1, 79124, Note_on_c, 8, 53, 50
1, 79244, Note_off_c, 8, 59, 64
1, 79248, Note_off_c, 8, 64, 64
1, 79256, Note_off_c, 8, 53, 64
1, 79360, Note_on_c, 9, 40, 39
1, 79376, Note_off_c, 9, 40, 64
1, 79468, Note_off_c, 3, 79, 64
1, 79484, Control_c, 2, 64, 127
1, 79484, Control_c, 3, 64, 127
1, 79488, Note_on_c, 9, 51, 113
1, 79488, Note_on_c, 9, 40, 57
1, 79492, Note_off_c, 1, 38, 64
1, 79492, Note_off_c, 2, 53, 64
1, 79492, Note_on_c, 1, 41, 72
1, 79492, Note_on_c, 3, 81, 89
1, 79492, Note_on_c, 9, 44, 127
1, 79500, Note_on_c, 8, 59, 93
1, 79504, Note_off_c, 9, 40, 64
1, 79504, Note_off_c, 9, 51, 64
1, 79504, Note_on_c, 8, 64, 97
1, 79504, Note_on_c, 8, 53, 66
1, 79508, Note_off_c, 9, 44, 64
1, 79520, Note_off_c, 2, 64, 64
1, 79552, Note_off_c, 2, 59, 64
1, 79564, Note_off_c, 3, 81, 64
1, 79628, Note_off_c, 8, 59, 64
1, 79648, Note_off_c, 8, 64, 64
1, 79684, Note_off_c, 8, 53, 64
1, 79724, Note_on_c, 3, 76, 102
1, 79724, Note_on_c, 3, 71, 94
1, 79732, Note_off_c, 1, 41, 64
1, 79740, Note_on_c, 9, 51, 98
1, 79748, Note_on_c, 1, 34, 72
1, 79756, Note_off_c, 9, 51, 64
1, 79804, Control_c, 2, 64, 0
1, 79804, Control_c, 3, 64, 0
1, 79824, Note_off_c, 1, 34, 64
1, 79872, Note_on_c, 2, 52, 50
1, 79872, Note_on_c, 2, 62, 55
1, 79872, Note_on_c, 2, 57, 38
1, 79872, Note_on_c, 9, 51, 113
1, 79876, Note_on_c, 1, 36, 92
1, 79876, Note_on_c, 8, 52, 73
1, 79888, Note_off_c, 9, 51, 64
1, 79888, Note_on_c, 8, 57, 90
1, 79892, Note_on_c, 8, 62, 84
1, 80016, Note_off_c, 8, 52, 64
1, 80020, Note_off_c, 8, 62, 64
1, 80028, Note_off_c, 8, 57, 64
1, 80096, Control_c, 2, 64, 127
1, 80096, Control_c, 3, 64, 127
1, 80128, Note_on_c, 9, 40, 78
1, 80144, Note_off_c, 9, 40, 64
1, 80168, Note_off_c, 2, 52, 64
1, 80184, Note_off_c, 3, 76, 64
1, 80188, Note_off_c, 2, 57, 64
1, 80200, Note_off_c, 3, 71, 64
1, 80212, Note_off_c, 2, 62, 64
1, 80240, Note_on_c, 8, 52, 54
1, 80248, Note_off_c, 1, 36, 64
1, 80256, Note_on_c, 8, 57, 82
1, 80256, Note_on_c, 9, 44, 127
1, 80256, Note_on_c, 9, 51, 111
1, 80260, Note_on_c, 1, 35, 95
1, 80268, Note_on_c, 8, 62, 91
1, 80272, Note_off_c, 9, 51, 64
1, 80272, Note_off_c, 9, 44, 64
1, 80372, Note_off_c, 8, 62, 64
1, 80376, Note_off_c, 8, 52, 64
1, 80396, Note_off_c, 8, 57, 64
1, 80512, Note_on_c, 9, 35, 32
1, 80512, Note_on_c, 9, 51, 85
1, 80528, Note_off_c, 9, 51, 64
1, 80528, Note_off_c, 9, 35, 64
1, 80632, Note_off_c, 1, 35, 64
1, 80636, Note_on_c, 2, 62, 61
1, 80636, Note_on_c, 2, 52, 52
1, 80636, Note_on_c, 2, 57, 60
1, 80636, Control_c, 2, 64, 0
1, 80636, Control_c, 3, 64, 0
1, 80640, Note_on_c, 1, 33, 97
1, 80640, Note_on_c, 9, 51, 111
1, 80644, Note_on_c, 8, 57, 83
1, 80644, Note_on_c, 9, 35, 62
1, 80648, Note_on_c, 8, 62, 86
1, 80652, Note_on_c, 8, 52, 60
1, 80656, Note_off_c, 9, 51, 64
1, 80660, Note_off_c, 9, 35, 64
1, 80756, Note_off_c, 8, 52, 64
1, 80768, Note_off_c, 8, 62, 64
1, 80796, Note_off_c, 8, 57, 64
1, 80836, Note_on_c, 3, 64, 88
1, 80908, Note_off_c, 3, 64, 64
1, 80924, Note_on_c, 3, 67, 95
1, 80976, Note_off_c, 1, 33, 64
1, 80980, Note_off_c, 3, 67, 64
1, 81024, Note_on_c, 1, 31, 95
1, 81024, Note_on_c, 8, 57, 93
1, 81024, Note_on_c, 8, 62, 91
1, 81028, Note_on_c, 3, 71, 98
1, 81028, Note_on_c, 8, 52, 67
1, 81028, Note_on_c, 9, 44, 127
1, 81028, Note_on_c, 9, 51, 113
1, 81040, Control_c, 2, 64, 127
1, 81040, Control_c, 3, 64, 127
1, 81044, Note_off_c, 9, 51, 64
1, 81044, Note_off_c, 9, 44, 64
1, 81088, Note_off_c, 3, 71, 64
1, 81116, Note_on_c, 3, 74, 106
1, 81124, Note_off_c, 2, 52, 64
1, 81128, Note_off_c, 8, 52, 64
1, 81136, Note_off_c, 8, 62, 64
1, 81136, Note_off_c, 2, 57, 64
1, 81172, Note_off_c, 8, 57, 64
1, 81184, Note_off_c, 2, 62, 64
1, 81200, Note_off_c, 3, 74, 64
1, 81220, Note_on_c, 3, 72, 96
1, 81276, Note_on_c, 9, 51, 94
1, 81292, Note_off_c, 9, 51, 64
1, 81296, Note_off_c, 3, 72, 64
1, 81308, Note_on_c, 3, 71, 98
1, 81356, Control_c, 2, 64, 0
1, 81356, Control_c, 3, 64, 0
1, 81364, Note_off_c, 1, 31, 64
1, 81396, Note_off_c, 3, 71, 64
1, 81404, Note_on_c, 8, 56, 77
1, 81408, Note_on_c, 1, 28, 106
1, 81408, Note_on_c, 8, 62, 88
1, 81408, Note_on_c, 9, 51, 113
1, 81412, Note_on_c, 2, 52, 52
1, 81412, Note_on_c, 2, 62, 49
1, 81412, Note_on_c, 2, 56, 65
1, 81412, Note_on_c, 3, 70, 88
1, 81424, Note_off_c, 9, 51, 64
1, 81540, Note_off_c, 8, 56, 64
1, 81556, Note_off_c, 8, 62, 64
1, 81708, Control_c, 2, 64, 127
1, 81708, Control_c, 3, 64, 127
1, 81792, Note_on_c, 1, 40, 121
1, 81792, Note_on_c, 9, 51, 113
1, 81792, Note_on_c, 9, 44, 127
1, 81796, Note_off_c, 1, 28, 64
1, 81796, Note_on_c, 8, 56, 86
1, 81800, Note_on_c, 8, 62, 90
1, 81808, Note_off_c, 9, 44, 64
1, 81808, Note_off_c, 9, 51, 64
1, 81848, Note_off_c, 3, 70, 64
1, 81856, Note_off_c, 2, 52, 64
1, 81908, Note_off_c, 2, 56, 64
1, 81908, Note_off_c, 2, 62, 64
1, 81940, Note_off_c, 8, 56, 64
1, 81952, Note_off_c, 8, 62, 64
1, 82044, Note_on_c, 9, 51, 87
1, 82048, Note_on_c, 9, 47, 95
1, 82060, Note_off_c, 9, 51, 64
1, 82064, Note_off_c, 9, 47, 64
1, 82164, Control_c, 2, 64, 0
1, 82164, Control_c, 3, 64, 0
1, 82168, Note_off_c, 1, 40, 64
1, 82172, Note_on_c, 2, 61, 63
1, 82172, Note_on_c, 3, 70, 90
1, 82172, Note_on_c, 9, 51, 109
1, 82176, Note_on_c, 1, 39, 102
1, 82180, Note_on_c, 2, 51, 61
1, 82180, Note_on_c, 2, 55, 78
1, 82184, Note_on_c, 8, 61, 89
1, 82188, Note_off_c, 9, 51, 64
1, 82188, Note_on_c, 8, 55, 77
1, 82232, Note_off_c, 3, 70, 64
1, 82240, Note_on_c, 3, 72, 75
1, 82296, Note_off_c, 3, 72, 64
1, 82300, Note_on_c, 3, 70, 75
1, 82340, Note_off_c, 8, 61, 64
1, 82348, Note_off_c, 8, 55, 64
1, 82356, Note_off_c, 3, 70, 64
1, 82372, Note_on_c, 3, 67, 93
1, 82432, Note_on_c, 9, 40, 32
1, 82448, Note_off_c, 9, 40, 64
1, 82456, Note_off_c, 3, 67, 64
1, 82460, Note_on_c, 3, 68, 96
1, 82512, Note_off_c, 3, 68, 64
1, 82536, Control_c, 2, 64, 127
1, 82536, Control_c, 3, 64, 127
1, 82548, Note_off_c, 1, 39, 64
1, 82556, Note_on_c, 3, 69, 99
1, 82560, Note_on_c, 1, 34, 96
1, 82560, Note_on_c, 9, 51, 113
1, 82560, Note_on_c, 9, 40, 72
1, 82560, Note_on_c, 9, 44, 123
1, 82568, Note_on_c, 8, 55, 73
1, 82568, Note_on_c, 8, 61, 94
1, 82576, Note_off_c, 9, 44, 64
1, 82576, Note_off_c, 9, 40, 64
1, 82576, Note_off_c, 9, 51, 64
1, 82580, Note_off_c, 2, 55, 64
1, 82628, Note_off_c, 2, 51, 64
1, 82632, Note_off_c, 3, 69, 64
1, 82656, Note_on_c, 3, 73, 82
1, 82676, Note_off_c, 2, 61, 64
1, 82684, Note_on_c, 9, 43, 52
1, 82700, Note_off_c, 9, 43, 64
1, 82708, Note_off_c, 8, 55, 64
1, 82712, Note_off_c, 3, 73, 64
1, 82716, Note_off_c, 8, 61, 64
1, 82756, Note_on_c, 3, 76, 92
1, 82808, Note_on_c, 9, 40, 45
1, 82812, Note_on_c, 9, 51, 91
1, 82820, Note_on_c, 1, 37, 65
1, 82824, Note_off_c, 9, 40, 64
1, 82828, Note_off_c, 9, 51, 64
1, 82828, Note_off_c, 1, 34, 64
1, 82844, Note_on_c, 3, 81, 100
1, 82860, Note_off_c, 3, 76, 64
1, 82912, Note_off_c, 3, 81, 64
1, 82912, Control_c, 2, 64, 0
1, 82912, Control_c, 3, 64, 0
1, 82920, Note_off_c, 1, 37, 64
1, 82944, Note_on_c, 2, 50, 62
1, 82944, Note_on_c, 2, 54, 80
1, 82944, Note_on_c, 2, 60, 76
1, 82944, Note_on_c, 8, 54, 73
1, 82944, Note_on_c, 9, 51, 107
1, 82944, Note_on_c, 9, 40, 31
1, 82948, Note_on_c, 1, 38, 101
1, 82948, Note_on_c, 8, 64, 98
1, 82956, Note_on_c, 8, 60, 91
1, 82960, Note_off_c, 9, 40, 64
1, 82960, Note_off_c, 9, 51, 64
1, 83064, Note_off_c, 8, 54, 64
1, 83076, Note_off_c, 8, 60, 64
1, 83092, Note_off_c, 8, 64, 64
1, 83320, Note_on_c, 8, 54, 70
1, 83324, Note_on_c, 8, 64, 102
1, 83328, Note_off_c, 1, 38, 64
1, 83328, Note_on_c, 8, 60, 93
1, 83328, Note_on_c, 9, 51, 113
1, 83328, Note_on_c, 9, 44, 127
1, 83332, Note_on_c, 1, 30, 90
1, 83332, Note_on_c, 3, 81, 103
1, 83344, Note_off_c, 9, 44, 64
1, 83344, Note_off_c, 9, 51, 64
1, 83380, Control_c, 2, 64, 127
1, 83380, Control_c, 3, 64, 127
1, 83412, Note_off_c, 8, 54, 64
1, 83460, Note_off_c, 8, 60, 64
1, 83468, Note_off_c, 8, 64, 64
1, 83468, Note_off_c, 2, 50, 64
1, 83480, Note_off_c, 2, 54, 64
1, 83488, Note_off_c, 3, 81, 64
1, 83504, Note_off_c, 2, 60, 64
1, 83568, Note_on_c, 3, 84, 88
1, 83580, Note_on_c, 9, 51, 87
1, 83596, Note_off_c, 9, 51, 64
1, 83676, Note_off_c, 3, 84, 64
1, 83696, Note_off_c, 1, 30, 64
1, 83708, Note_on_c, 9, 51, 105
1, 83712, Note_on_c, 1, 33, 90
1, 83716, Note_on_c, 2, 54, 60
1, 83716, Note_on_c, 2, 50, 62
1, 83716, Note_on_c, 2, 60, 58
1, 83716, Note_on_c, 3, 81, 92
1, 83724, Note_off_c, 9, 51, 64
1, 83724, Control_c, 2, 64, 0
1, 83724, Control_c, 3, 64, 0
1, 83724, Note_on_c, 8, 54, 77
1, 83732, Note_on_c, 8, 60, 89
1, 83736, Note_on_c, 8, 64, 88
1, 83832, Note_off_c, 8, 54, 64
1, 83860, Note_off_c, 8, 60, 64
1, 83876, Note_off_c, 8, 64, 64
1, 83952, Note_on_c, 3, 76, 99
1, 83968, Note_off_c, 3, 81, 64
1, 84052, Control_c, 2, 64, 127
1, 84052, Control_c, 3, 64, 127
1, 84056, Note_off_c, 3, 76, 64
1, 84072, Note_off_c, 2, 50, 64
1, 84088, Note_off_c, 1, 33, 64
1, 84096, Note_on_c, 9, 51, 113
1, 84096, Note_on_c, 9, 44, 127
1, 84100, Note_off_c, 2, 54, 64
1, 84100, Note_on_c, 1, 38, 98
1, 84100, Note_on_c, 3, 72, 89
1, 84108, Note_on_c, 8, 54, 85
1, 84112, Note_off_c, 9, 44, 64
1, 84112, Note_off_c, 9, 51, 64
1, 84120, Note_on_c, 8, 64, 84
1, 84120, Note_on_c, 8, 60, 101
1, 84148, Note_off_c, 2, 60, 64
1, 84172, Note_off_c, 3, 72, 64
1, 84212, Note_off_c, 8, 60, 64
1, 84220, Note_on_c, 3, 74, 90
1, 84232, Note_off_c, 8, 54, 64
1, 84248, Note_off_c, 8, 64, 64
1, 84272, Note_off_c, 3, 74, 64
1, 84324, Note_on_c, 3, 75, 93
1, 84348, Note_on_c, 9, 51, 96
1, 84352, Note_on_c, 9, 40, 74
1, 84356, Note_on_c, 1, 42, 81
1, 84364, Note_off_c, 9, 51, 64
1, 84364, Note_off_c, 1, 38, 64
1, 84368, Note_off_c, 9, 40, 64
1, 84380, Note_off_c, 3, 75, 64
1, 84452, Control_c, 2, 64, 0
1, 84452, Control_c, 3, 64, 0
1, 84460, Note_off_c, 1, 42, 64
1, 84480, Note_on_c, 2, 59, 66
1, 84480, Note_on_c, 2, 53, 66
1, 84480, Note_on_c, 2, 64, 57
1, 84480, Note_on_c, 3, 76, 96
1, 84480, Note_on_c, 9, 51, 113
1, 84484, Note_on_c, 1, 43, 93
1, 84484, Note_on_c, 8, 64, 86
1, 84488, Note_on_c, 8, 59, 92
1, 84492, Note_on_c, 8, 53, 67
1, 84496, Note_off_c, 9, 51, 64
1, 84632, Note_off_c, 8, 64, 64
1, 84656, Note_off_c, 8, 59, 64
1, 84660, Note_off_c, 8, 53, 64
1, 84708, Note_on_c, 3, 79, 90
1, 84728, Note_off_c, 3, 76, 64
1, 84808, Control_c, 2, 64, 127
1, 84808, Control_c, 3, 64, 127
1, 84824, Note_off_c, 1, 43, 64
1, 84860, Note_on_c, 9, 51, 113
1, 84864, Note_on_c, 1, 47, 97
1, 84864, Note_on_c, 9, 44, 127
1, 84868, Note_on_c, 8, 64, 100
1, 84868, Note_on_c, 8, 59, 98
1, 84872, Note_on_c, 8, 53, 73
1, 84876, Note_off_c, 9, 51, 64
1, 84880, Note_off_c, 9, 44, 64
1, 84908, Note_off_c, 2, 59, 64
1, 84912, Note_off_c, 2, 53, 64
1, 84920, Note_off_c, 2, 64, 64
1, 85000, Note_off_c, 8, 59, 64
1, 85004, Note_off_c, 8, 64, 64
1, 85020, Note_off_c, 8, 53, 64
1, 85116, Note_on_c, 9, 51, 90
1, 85120, Note_on_c, 9, 35, 38
1, 85132, Note_off_c, 9, 51, 64
1, 85136, Note_off_c, 9, 35, 64
1, 85228, Note_off_c, 3, 79, 64
1, 85244, Note_on_c, 2, 59, 67
1, 85244, Note_on_c, 2, 64, 48
1, 85244, Note_on_c, 2, 53, 54
1, 85244, Note_on_c, 9, 51, 113
1, 85248, Note_on_c, 9, 35, 87
1, 85252, Note_on_c, 1, 48, 97
1, 85256, Note_on_c, 8, 59, 96
1, 85256, Note_on_c, 8, 53, 69
1, 85260, Note_off_c, 9, 51, 64
1, 85260, Note_on_c, 8, 64, 98
1, 85264, Note_off_c, 9, 35, 64
1, 85264, Note_off_c, 1, 47, 64
1, 85264, Control_c, 2, 64, 0
1, 85264, Control_c, 3, 64, 0
1, 85372, Note_off_c, 8, 64, 64
1, 85388, Note_off_c, 8, 59, 64
1, 85392, Note_off_c, 8, 53, 64
1, 85624, Note_off_c, 1, 48, 64
1, 85628, Note_on_c, 3, 81, 100
1, 85632, Note_on_c, 9, 44, 127
1, 85632, Note_on_c, 9, 51, 113
1, 85636, Note_on_c, 1, 49, 80
1, 85636, Note_on_c, 9, 46, 54
1, 85640, Control_c, 2, 64, 127
1, 85640, Control_c, 3, 64, 127
1, 85644, Note_on_c, 8, 53, 64
1, 85648, Note_off_c, 9, 51, 64
1, 85648, Note_off_c, 9, 44, 64
1, 85648, Note_on_c, 8, 59, 100
1, 85652, Note_off_c, 9, 46, 64
1, 85652, Note_off_c, 2, 53, 64
1, 85652, Note_on_c, 8, 64, 96
1, 85664, Note_off_c, 2, 59, 64
1, 85712, Note_off_c, 2, 64, 64
1, 85728, Note_off_c, 3, 81, 64
1, 85784, Note_off_c, 8, 53, 64
1, 85788, Note_off_c, 8, 59, 64
1, 85808, Note_off_c, 8, 64, 64
1, 85860, Note_on_c, 3, 72, 97
1, 85860, Note_on_c, 3, 84, 110
1, 85888, Note_off_c, 1, 49, 64
1, 85888, Note_on_c, 9, 51, 107
1, 85892, Note_on_c, 1, 50, 80
1, 85896, Control_c, 2, 64, 0
1, 85896, Control_c, 3, 64, 0
1, 85904, Note_off_c, 9, 51, 64
1, 86004, Note_off_c, 1, 50, 64
1, 86016, Note_on_c, 2, 65, 50
1, 86016, Note_on_c, 2, 55, 48
1, 86016, Note_on_c, 2, 58, 62
1, 86016, Note_on_c, 9, 51, 107
1, 86020, Note_on_c, 8, 53, 68
1, 86024, Note_on_c, 1, 43, 96
1, 86024, Note_on_c, 8, 58, 80
1, 86032, Note_off_c, 9, 51, 64
1, 86032, Note_on_c, 8, 62, 89
1, 86120, Control_c, 2, 64, 127
1, 86120, Control_c, 3, 64, 127
1, 86132, Note_off_c, 8, 53, 64
1, 86148, Note_off_c, 8, 58, 64
1, 86184, Note_off_c, 8, 62, 64
1, 86272, Note_on_c, 9, 40, 104
1, 86288, Note_off_c, 9, 40, 64
1, 86356, Note_off_c, 1, 43, 64
1, 86388, Note_off_c, 3, 72, 64
1, 86400, Note_on_c, 9, 51, 113
1, 86400, Note_on_c, 9, 44, 127
1, 86404, Note_on_c, 1, 41, 89
1, 86408, Note_on_c, 8, 58, 70
1, 86416, Note_off_c, 9, 44, 64
1, 86416, Note_off_c, 9, 51, 64
1, 86416, Note_on_c, 8, 53, 45
1, 86416, Note_on_c, 8, 62, 83
1, 86420, Note_off_c, 2, 58, 64
1, 86424, Note_off_c, 2, 55, 64
1, 86424, Note_off_c, 3, 84, 64
1, 86428, Note_off_c, 2, 65, 64
1, 86516, Note_off_c, 8, 58, 64
1, 86520, Note_off_c, 8, 53, 64
1, 86552, Note_off_c, 8, 62, 64
1, 86596, Note_on_c, 3, 81, 94
1, 86652, Note_on_c, 9, 51, 92
1, 86668, Note_off_c, 9, 51, 64
1, 86680, Note_off_c, 3, 81, 64
1, 86680, Note_on_c, 3, 80, 81
1, 86736, Note_off_c, 1, 41, 64
1, 86744, Note_off_c, 3, 80, 64
1, 86744, Control_c, 2, 64, 0
1, 86744, Control_c, 3, 64, 0
1, 86776, Note_on_c, 2, 65, 56
1, 86776, Note_on_c, 2, 58, 51
1, 86776, Note_on_c, 9, 51, 105
1, 86780, Note_on_c, 2, 55, 48
1, 86780, Note_on_c, 3, 79, 98
1, 86784, Note_on_c, 1, 38, 82
1, 86788, Note_on_c, 8, 58, 73
1, 86792, Note_off_c, 9, 51, 64
1, 86792, Note_on_c, 8, 53, 71
1, 86796, Note_on_c, 8, 62, 72
1, 86856, Note_off_c, 3, 79, 64
1, 86876, Note_on_c, 3, 72, 88
1, 86880, Note_off_c, 8, 53, 64
1, 86924, Note_off_c, 3, 72, 64
1, 86928, Note_off_c, 8, 58, 64
1, 86940, Note_off_c, 8, 62, 64
1, 86972, Control_c, 2, 64, 127
1, 86972, Control_c, 3, 64, 127
1, 87132, Note_off_c, 1, 38, 64
1, 87160, Note_on_c, 3, 72, 102
1, 87164, Note_on_c, 1, 37, 92
1, 87164, Note_on_c, 8, 58, 86
1, 87164, Note_on_c, 8, 53, 72
1, 87164, Note_on_c, 9, 51, 113
1, 87164, Note_on_c, 9, 44, 127
1, 87168, Note_on_c, 8, 62, 91
1, 87180, Note_off_c, 9, 44, 64
1, 87180, Note_off_c, 9, 51, 64
1, 87196, Note_off_c, 2, 55, 64
1, 87216, Note_off_c, 3, 72, 64
1, 87224, Note_off_c, 2, 65, 64
1, 87232, Note_off_c, 2, 58, 64
1, 87300, Note_off_c, 8, 62, 64
1, 87300, Note_off_c, 8, 58, 64
1, 87304, Note_off_c, 8, 53, 64
1, 87396, Note_on_c, 3, 72, 103
1, 87396, Note_on_c, 3, 84, 110
1, 87404, Control_c, 2, 64, 0
1, 87404, Control_c, 3, 64, 0
1, 87416, Note_on_c, 9, 51, 83
1, 87432, Note_off_c, 9, 51, 64
1, 87536, Note_off_c, 1, 37, 64
1, 87540, Note_on_c, 8, 58, 85
1, 87540, Note_on_c, 8, 52, 66
1, 87544, Note_off_c, 3, 72, 64
1, 87544, Note_on_c, 8, 60, 86
1, 87548, Control_c, 2, 64, 127
1, 87548, Control_c, 3, 64, 127
1, 87552, Note_on_c, 1, 42, 94
1, 87552, Note_on_c, 2, 54, 45
1, 87552, Note_on_c, 2, 58, 56
1, 87552, Note_on_c, 2, 64, 51
1, 87552, Note_on_c, 9, 51, 113
1, 87568, Note_off_c, 9, 51, 64
1, 87612, Note_on_c, 3, 72, 68
1, 87628, Note_off_c, 3, 84, 64
1, 87652, Note_off_c, 8, 52, 64
1, 87672, Note_off_c, 8, 58, 64
1, 87680, Note_off_c, 3, 72, 64
1, 87684, Note_off_c, 8, 60, 64
1, 87752, Note_on_c, 3, 72, 63
1, 87796, Note_off_c, 3, 72, 64
1, 87848, Note_on_c, 3, 72, 62
1, 87888, Note_off_c, 3, 72, 64
1, 87892, Note_on_c, 3, 84, 55
1, 87920, Note_off_c, 3, 84, 64
1, 87932, Note_on_c, 9, 44, 127
1, 87932, Note_on_c, 9, 51, 113
1, 87936, Note_on_c, 1, 40, 97
1, 87936, Note_on_c, 8, 60, 91
1, 87936, Note_on_c, 8, 58, 85
1, 87940, Note_off_c, 1, 42, 64
1, 87940, Note_on_c, 3, 72, 61
1, 87940, Note_on_c, 8, 52, 53
1, 87948, Note_off_c, 9, 51, 64
1, 87948, Note_off_c, 9, 44, 64
1, 87984, Note_on_c, 3, 84, 60
1, 87992, Note_off_c, 3, 72, 64
1, 88016, Note_off_c, 3, 84, 64
1, 88024, Note_off_c, 8, 52, 64
1, 88064, Note_off_c, 8, 60, 64
1, 88068, Note_off_c, 8, 58, 64
1, 88084, Note_on_c, 3, 84, 62
1, 88088, Note_off_c, 2, 58, 64
1, 88100, Note_off_c, 2, 54, 64
1, 88112, Note_off_c, 3, 84, 64
1, 88120, Note_off_c, 2, 64, 64
1, 88128, Note_on_c, 3, 72, 67
1, 88172, Note_on_c, 3, 84, 63
1, 88176, Note_off_c, 3, 72, 64
1, 88184, Note_on_c, 9, 51, 101
1, 88200, Note_off_c, 9, 51, 64
1, 88208, Note_off_c, 3, 84, 64
1, 88224, Note_on_c, 3, 72, 58
1, 88276, Note_off_c, 3, 72, 64
1, 88276, Note_on_c, 3, 84, 56
1, 88296, Note_on_c, 2, 64, 45
1, 88300, Note_on_c, 2, 58, 44
1, 88304, Note_off_c, 3, 84, 64
1, 88304, Note_on_c, 2, 54, 37
1, 88308, Note_on_c, 9, 51, 113
1, 88320, Note_on_c, 1, 37, 94
1, 88320, Note_on_c, 3, 72, 72
1, 88320, Note_on_c, 8, 60, 86
1, 88320, Note_on_c, 8, 58, 80
1, 88324, Note_off_c, 9, 51, 64
1, 88324, Note_on_c, 8, 52, 63
1, 88336, Note_off_c, 1, 40, 64
1, 88368, Note_on_c, 3, 84, 52
1, 88372, Note_off_c, 3, 72, 64
1, 88400, Note_off_c, 3, 84, 64
1, 88416, Note_off_c, 8, 52, 64
1, 88424, Note_on_c, 3, 72, 52
1, 88444, Note_off_c, 8, 60, 64
1, 88448, Note_off_c, 8, 58, 64
1, 88464, Note_on_c, 3, 84, 59
1, 88468, Note_off_c, 3, 72, 64
1, 88496, Note_off_c, 3, 84, 64
1, 88516, Note_on_c, 3, 72, 61
1, 88564, Note_on_c, 3, 84, 62
1, 88568, Note_off_c, 3, 72, 64
1, 88604, Note_off_c, 3, 84, 64
1, 88620, Note_on_c, 3, 72, 52
1, 88656, Note_off_c, 2, 58, 64
1, 88668, Note_off_c, 3, 72, 64
1, 88668, Note_on_c, 3, 84, 50
1, 88688, Note_off_c, 1, 37, 64
1, 88700, Note_on_c, 1, 30, 94
1, 88700, Note_on_c, 9, 40, 107
1, 88704, Note_off_c, 3, 84, 64
1, 88704, Note_off_c, 2, 54, 64
1, 88704, Note_on_c, 9, 51, 113
1, 88704, Note_on_c, 9, 44, 127
1, 88712, Note_off_c, 2, 64, 64
1, 88716, Note_off_c, 9, 40, 64
1, 88716, Note_on_c, 3, 72, 42
1, 88716, Note_on_c, 8, 60, 96
1, 88716, Note_on_c, 8, 58, 92
1, 88720, Note_off_c, 9, 44, 64
1, 88720, Note_off_c, 9, 51, 64
1, 88720, Note_on_c, 8, 52, 69
1, 88752, Note_off_c, 3, 72, 64
1, 88764, Note_on_c, 3, 84, 35
1, 88784, Note_off_c, 3, 84, 64
1, 88792, Note_off_c, 8, 52, 64
1, 88800, Note_on_c, 3, 72, 61
1, 88836, Note_off_c, 8, 60, 64
1, 88840, Note_off_c, 8, 58, 64
1, 88848, Note_off_c, 3, 72, 64
1, 88956, Note_on_c, 9, 51, 92
1, 88960, Note_on_c, 3, 84, 34
1, 88972, Note_off_c, 9, 51, 64
1, 88992, Note_off_c, 3, 84, 64
1, 89068, Note_off_c, 1, 30, 64
1, 89080, Control_c, 2, 64, 0
1, 89080, Control_c, 3, 64, 0
1, 89088, Note_on_c, 1, 29, 98
1, 89088, Note_on_c, 2, 57, 56
1, 89088, Note_on_c, 2, 53, 54
1, 89088, Note_on_c, 2, 64, 60
1, 89088, Note_on_c, 9, 51, 113
1, 89104, Note_off_c, 9, 51, 64
1, 89104, Note_on_c, 8, 64, 90
1, 89108, Note_on_c, 8, 55, 67
1, 89108, Note_on_c, 8, 57, 91
1, 89220, Note_off_c, 8, 57, 64
1, 89236, Note_off_c, 8, 55, 64
1, 89248, Note_off_c, 8, 64, 64
1, 89472, Note_off_c, 1, 29, 64
1, 89472, Note_on_c, 1, 33, 104
1, 89476, Note_on_c, 3, 72, 108
1, 89476, Note_on_c, 8, 64, 89
1, 89476, Note_on_c, 9, 51, 113
1, 89476, Note_on_c, 9, 44, 127
1, 89480, Note_on_c, 8, 57, 80
1, 89484, Note_on_c, 8, 55, 64
1, 89488, Control_c, 2, 64, 127
1, 89488, Control_c, 3, 64, 127
1, 89492, Note_off_c, 9, 44, 64
1, 89492, Note_off_c, 9, 51, 64
1, 89540, Note_off_c, 3, 72, 64
1, 89568, Note_off_c, 2, 53, 64
1, 89592, Note_off_c, 8, 64, 64
1, 89600, Note_off_c, 8, 55, 64
1, 89600, Note_off_c, 8, 57, 64
1, 89604, Note_on_c, 3, 74, 104
1, 89612, Note_off_c, 2, 57, 64
1, 89632, Note_off_c, 2, 64, 64
1, 89668, Note_off_c, 3, 74, 64
1, 89700, Note_on_c, 3, 72, 97
1, 89704, Note_off_c, 1, 33, 64
1, 89728, Note_on_c, 1, 36, 85
1, 89728, Note_on_c, 9, 51, 90
1, 89744, Note_off_c, 9, 51, 64
1, 89840, Control_c, 2, 64, 0
1, 89840, Control_c, 3, 64, 0
1, 89848, Note_off_c, 1, 36, 64
1, 89848, Note_off_c, 3, 72, 64
1, 89852, Note_on_c, 2, 56, 58
1, 89852, Note_on_c, 3, 79, 101
1, 89856, Note_on_c, 1, 41, 111
1, 89856, Note_on_c, 2, 63, 59
1, 89856, Note_on_c, 2, 53, 63
1, 89860, Note_on_c, 9, 51, 113
1, 89868, Note_on_c, 8, 56, 72
1, 89876, Note_off_c, 9, 51, 64
1, 89880, Note_on_c, 8, 63, 84
1, 89880, Note_on_c, 8, 60, 92
1, 90016, Note_off_c, 8, 60, 64
1, 90016, Note_off_c, 8, 56, 64
1, 90040, Note_off_c, 8, 63, 64
1, 90092, Note_on_c, 3, 77, 83
1, 90100, Note_off_c, 3, 79, 64
1, 90208, Note_off_c, 3, 77, 64
1, 90220, Control_c, 2, 64, 127
1, 90220, Control_c, 3, 64, 127
1, 90240, Note_on_c, 1, 39, 86
1, 90240, Note_on_c, 9, 44, 127
1, 90240, Note_on_c, 9, 51, 113
1, 90244, Note_on_c, 3, 72, 89
1, 90244, Note_on_c, 8, 56, 77
1, 90248, Note_on_c, 8, 63, 89
1, 90252, Note_off_c, 1, 41, 64
1, 90252, Note_on_c, 8, 60, 96
1, 90256, Note_off_c, 9, 51, 64
1, 90256, Note_off_c, 9, 44, 64
1, 90264, Note_off_c, 2, 56, 64
1, 90272, Note_off_c, 2, 63, 64
1, 90280, Note_off_c, 2, 53, 64
1, 90356, Note_off_c, 8, 56, 64
1, 90376, Note_off_c, 8, 60, 64
1, 90416, Note_off_c, 8, 63, 64
1, 90444, Note_off_c, 3, 72, 64
1, 90476, Note_on_c, 3, 74, 79
1, 90492, Note_on_c, 9, 51, 88
1, 90496, Note_off_c, 1, 39, 64
1, 90496, Note_on_c, 1, 37, 73
1, 90508, Note_off_c, 9, 51, 64
1, 90536, Note_off_c, 3, 74, 64
1, 90572, Note_on_c, 3, 74, 84
1, 90596, Note_off_c, 1, 37, 64
1, 90596, Note_on_c, 3, 75, 93
1, 90612, Control_c, 2, 64, 0
1, 90612, Control_c, 3, 64, 0
1, 90624, Note_on_c, 2, 52, 63
1, 90624, Note_on_c, 2, 59, 61
1, 90624, Note_on_c, 2, 48, 49
1, 90624, Note_on_c, 8, 55, 51
1, 90624, Note_on_c, 9, 51, 113
1, 90628, Note_on_c, 1, 36, 101
1, 90628, Note_on_c, 8, 59, 85
1, 90632, Note_off_c, 3, 74, 64
1, 90632, Note_on_c, 3, 76, 99
1, 90640, Note_off_c, 9, 51, 64
1, 90640, Note_off_c, 3, 75, 64
1, 90640, Note_on_c, 8, 64, 93
1, 90740, Note_off_c, 8, 59, 64
1, 90748, Note_off_c, 8, 55, 64
1, 90772, Note_off_c, 8, 64, 64
1, 90852, Note_off_c, 3, 76, 64
1, 90860, Note_on_c, 3, 79, 104
1, 90960, Control_c, 2, 64, 127
1, 90960, Control_c, 3, 64, 127
1, 90980, Note_off_c, 1, 36, 64
1, 91000, Note_on_c, 8, 55, 56
1, 91004, Note_on_c, 8, 59, 98
1, 91008, Note_on_c, 1, 35, 85
1, 91008, Note_on_c, 9, 51, 113
1, 91008, Note_on_c, 9, 44, 127
1, 91016, Note_on_c, 8, 64, 100
1, 91024, Note_off_c, 9, 44, 64
1, 91024, Note_off_c, 9, 51, 64
1, 91132, Note_off_c, 8, 55, 64
1, 91132, Note_off_c, 2, 52, 64
1, 91136, Note_off_c, 8, 59, 64
1, 91136, Note_off_c, 2, 48, 64
1, 91136, Note_off_c, 2, 59, 64
1, 91144, Note_off_c, 8, 64, 64
1, 91208, Note_off_c, 3, 79, 64
1, 91236, Note_on_c, 3, 81, 83
1, 91264, Note_on_c, 9, 51, 107
1, 91264, Note_on_c, 9, 40, 90
1, 91280, Note_off_c, 9, 40, 64
1, 91280, Note_off_c, 9, 51, 64
1, 91368, Note_off_c, 1, 35, 64
1, 91380, Note_on_c, 2, 48, 62
1, 91388, Note_on_c, 1, 36, 84
1, 91388, Control_c, 2, 64, 0
1, 91388, Control_c, 3, 64, 0
1, 91388, Note_on_c, 8, 55, 61
1, 91388, Note_on_c, 8, 58, 86
1, 91388, Note_on_c, 9, 51, 113
1, 91396, Note_on_c, 2, 52, 56
1, 91396, Note_on_c, 2, 58, 50
1, 91400, Note_on_c, 8, 64, 98
1, 91404, Note_off_c, 9, 51, 64
1, 91404, Note_on_c, 3, 75, 70
1, 91420, Note_off_c, 3, 81, 64
1, 91432, Note_off_c, 3, 75, 64
1, 91488, Note_off_c, 8, 58, 64
1, 91488, Note_on_c, 3, 74, 78
1, 91520, Note_off_c, 8, 64, 64
1, 91532, Note_off_c, 8, 55, 64
1, 91536, Note_off_c, 3, 74, 64
1, 91592, Note_on_c, 3, 72, 98
1, 91640, Note_off_c, 3, 72, 64
1, 91648, Note_on_c, 9, 47, 61
1, 91664, Note_off_c, 9, 47, 64
1, 91768, Note_on_c, 8, 58, 86
1, 91772, Note_on_c, 8, 55, 64
1, 91772, Note_on_c, 9, 51, 113
1, 91772, Note_on_c, 9, 44, 127
1, 91776, Note_on_c, 1, 31, 90
1, 91776, Note_on_c, 3, 72, 92
1, 91776, Note_on_c, 8, 64, 97
1, 91788, Note_off_c, 9, 44, 64
1, 91788, Note_off_c, 9, 51, 64
1, 91792, Control_c, 2, 64, 127
1, 91792, Control_c, 3, 64, 127
1, 91804, Note_off_c, 1, 36, 64
1, 91832, Note_off_c, 2, 48, 64
1, 91852, Note_off_c, 2, 52, 64
1, 91860, Note_off_c, 2, 58, 64
1, 91876, Note_off_c, 8, 58, 64
1, 91888, Note_off_c, 8, 55, 64
1, 91912, Note_off_c, 8, 64, 64
1, 92028, Note_on_c, 9, 51, 88
1, 92032, Note_on_c, 9, 35, 59
1, 92044, Note_off_c, 9, 51, 64
1, 92048, Note_off_c, 9, 35, 64
1, 92120, Note_off_c, 1, 31, 64
1, 92144, Note_off_c, 3, 72, 64
1, 92148, Control_c, 2, 64, 0
1, 92148, Control_c, 3, 64, 0
1, 92160, Note_on_c, 1, 29, 101
1, 92160, Note_on_c, 2, 64, 73
1, 92160, Note_on_c, 2, 57, 64
1, 92160, Note_on_c, 2, 53, 48
1, 92160, Note_on_c, 9, 51, 113
1, 92160, Note_on_c, 9, 35, 107
1, 92164, Note_on_c, 8, 60, 90
1, 92168, Note_on_c, 8, 57, 61
1, 92176, Note_off_c, 9, 35, 64
1, 92176, Note_off_c, 9, 51, 64
1, 92176, Note_on_c, 8, 64, 101
1, 92292, Note_off_c, 8, 57, 64
1, 92300, Note_off_c, 8, 60, 64
1, 92320, Note_off_c, 8, 64, 64
1, 92540, Note_on_c, 3, 72, 97
1, 92544, Note_on_c, 9, 44, 127
1, 92548, Note_on_c, 9, 51, 113
1, 92552, Note_on_c, 8, 57, 61
1, 92552, Note_on_c, 8, 64, 92
1, 92552, Note_on_c, 8, 60, 92
1, 92560, Note_off_c, 9, 44, 64
1, 92560, Control_c, 2, 64, 127
1, 92560, Control_c, 3, 64, 127
1, 92564, Note_off_c, 9, 51, 64
1, 92596, Note_off_c, 3, 72, 64
1, 92600, Note_off_c, 2, 53, 64
1, 92620, Note_off_c, 2, 57, 64
1, 92640, Note_off_c, 1, 29, 64
1, 92660, Note_off_c, 2, 64, 64
1, 92672, Note_on_c, 1, 33, 58
1, 92676, Note_on_c, 3, 74, 90
1, 92680, Note_off_c, 8, 60, 64
1, 92684, Note_off_c, 8, 64, 64
1, 92700, Note_off_c, 8, 57, 64
1, 92744, Note_off_c, 1, 33, 64
1, 92748, Note_off_c, 3, 74, 64
1, 92772, Note_on_c, 3, 72, 72
1, 92796, Note_on_c, 1, 36, 61
1, 92796, Note_on_c, 9, 51, 74
1, 92812, Note_off_c, 9, 51, 64
1, 92884, Note_off_c, 1, 36, 64
1, 92884, Control_c, 2, 64, 0
1, 92884, Control_c, 3, 64, 0
1, 92888, Note_off_c, 3, 72, 64
1, 92924, Note_on_c, 1, 41, 107
1, 92924, Note_on_c, 2, 63, 56
1, 92924, Note_on_c, 2, 56, 62
1, 92924, Note_on_c, 2, 53, 47
1, 92924, Note_on_c, 3, 79, 94
1, 92928, Note_on_c, 9, 51, 113
1, 92932, Note_on_c, 8, 63, 88
1, 92940, Note_on_c, 8, 56, 65
1, 92940, Note_on_c, 8, 60, 97
1, 92944, Note_off_c, 9, 51, 64
1, 93036, Note_off_c, 8, 56, 64
1, 93056, Note_off_c, 8, 60, 64
1, 93104, Note_off_c, 8, 63, 64
1, 93156, Note_on_c, 3, 77, 88
1, 93164, Note_off_c, 3, 79, 64
1, 93264, Control_c, 2, 64, 127
1, 93264, Control_c, 3, 64, 127
1, 93312, Note_on_c, 1, 39, 71
1, 93312, Note_on_c, 8, 63, 85
1, 93312, Note_on_c, 9, 51, 113
1, 93312, Note_on_c, 9, 44, 127
1, 93316, Note_on_c, 8, 60, 96
1, 93320, Note_on_c, 8, 56, 73
1, 93324, Note_off_c, 1, 41, 64
1, 93328, Note_off_c, 9, 44, 64
1, 93328, Note_off_c, 9, 51, 64
1, 93344, Note_off_c, 2, 53, 64
1, 93376, Note_off_c, 2, 56, 64
1, 93396, Note_off_c, 2, 63, 64
1, 93400, Note_off_c, 3, 77, 64
1, 93420, Note_off_c, 8, 56, 64
1, 93428, Note_off_c, 8, 60, 64
1, 93444, Note_on_c, 3, 72, 81
1, 93452, Note_off_c, 8, 63, 64
1, 93512, Note_off_c, 3, 72, 64
1, 93548, Note_on_c, 3, 74, 90
1, 93568, Note_on_c, 9, 51, 82
1, 93584, Note_off_c, 9, 51, 64
1, 93652, Note_off_c, 1, 39, 64
1, 93672, Note_off_c, 3, 74, 64
1, 93672, Control_c, 2, 64, 0
1, 93672, Control_c, 3, 64, 0
1, 93684, Note_on_c, 8, 55, 62
1, 93692, Note_on_c, 8, 59, 95
1, 93692, Note_on_c, 8, 62, 89
1, 93696, Note_on_c, 1, 40, 95
1, 93696, Note_on_c, 2, 62, 54
1, 93696, Note_on_c, 2, 55, 57
1, 93696, Note_on_c, 2, 52, 33
1, 93696, Note_on_c, 3, 76, 79
1, 93696, Note_on_c, 9, 51, 113
1, 93712, Note_off_c, 9, 51, 64
1, 93808, Note_off_c, 8, 55, 64
1, 93816, Note_off_c, 8, 59, 64
1, 93852, Note_off_c, 8, 62, 64
1, 94016, Control_c, 2, 64, 127
1, 94016, Control_c, 3, 64, 127
1, 94076, Note_on_c, 1, 38, 73
1, 94084, Note_on_c, 9, 44, 127
1, 94088, Note_on_c, 9, 51, 113
1, 94096, Note_on_c, 8, 62, 85
1, 94096, Note_on_c, 8, 59, 96
1, 94100, Note_off_c, 9, 44, 64
1, 94100, Note_off_c, 1, 40, 64
1, 94100, Note_on_c, 8, 55, 67
1, 94104, Note_off_c, 9, 51, 64
1, 94108, Note_off_c, 3, 76, 64
1, 94112, Note_off_c, 2, 52, 64
1, 94132, Note_off_c, 2, 55, 64
1, 94148, Note_off_c, 2, 62, 64
1, 94220, Note_off_c, 8, 59, 64
1, 94228, Note_off_c, 8, 55, 64
1, 94232, Note_off_c, 8, 62, 64
1, 94276, Note_on_c, 3, 83, 76
1, 94336, Note_on_c, 1, 35, 61
1, 94340, Note_off_c, 1, 38, 64
1, 94340, Note_on_c, 9, 51, 80
1, 94344, Note_off_c, 3, 83, 64
1, 94344, Note_on_c, 9, 40, 66
1, 94356, Note_off_c, 9, 51, 64
1, 94360, Note_off_c, 9, 40, 64
1, 94364, Note_on_c, 3, 84, 65
1, 94384, Control_c, 2, 64, 0
1, 94384, Control_c, 3, 64, 0
1, 94416, Note_off_c, 1, 35, 64
1, 94432, Note_off_c, 3, 84, 64
1, 94460, Note_on_c, 2, 55, 52
1, 94460, Note_on_c, 2, 61, 38
1, 94460, Note_on_c, 2, 52, 49
1, 94460, Note_on_c, 3, 83, 85
1, 94464, Note_on_c, 1, 33, 104
1, 94468, Note_on_c, 9, 51, 113
1, 94480, Note_on_c, 8, 61, 92
1, 94480, Note_on_c, 8, 55, 74
1, 94484, Note_off_c, 9, 51, 64
1, 94492, Note_on_c, 8, 64, 80
1, 94560, Note_off_c, 3, 83, 64
1, 94560, Note_on_c, 3, 79, 82
1, 94624, Note_off_c, 3, 79, 64
1, 94624, Note_off_c, 8, 61, 64
1, 94632, Note_off_c, 8, 64, 64
1, 94640, Note_off_c, 8, 55, 64
1, 94660, Note_on_c, 3, 76, 68
1, 94720, Control_c, 2, 64, 127
1, 94720, Control_c, 3, 64, 127
1, 94724, Note_off_c, 3, 76, 64
1, 94724, Note_on_c, 9, 35, 33
1, 94740, Note_off_c, 9, 35, 64
1, 94748, Note_on_c, 3, 79, 74
1, 94780, Note_off_c, 3, 79, 64
1, 94832, Note_off_c, 2, 52, 64
1, 94840, Note_on_c, 8, 55, 74
1, 94844, Note_on_c, 3, 83, 97
1, 94844, Note_on_c, 8, 61, 86
1, 94848, Note_on_c, 1, 40, 98
1, 94848, Note_on_c, 9, 51, 113
1, 94848, Note_on_c, 9, 44, 127
1, 94852, Note_off_c, 2, 55, 64
1, 94852, Note_on_c, 8, 64, 84
1, 94852, Note_on_c, 9, 35, 66
1, 94860, Note_off_c, 1, 33, 64
1, 94864, Note_off_c, 9, 44, 64
1, 94864, Note_off_c, 9, 51, 64
1, 94868, Note_off_c, 9, 35, 64
1, 94868, Note_off_c, 3, 83, 64
1, 94892, Note_off_c, 2, 61, 64
1, 94980, Note_off_c, 8, 64, 64
1, 94996, Note_off_c, 8, 61, 64
1, 95020, Note_off_c, 8, 55, 64
1, 95096, Note_off_c, 1, 40, 64
1, 95100, Note_on_c, 9, 51, 96
1, 95108, Note_on_c, 1, 37, 77
1, 95116, Note_off_c, 9, 51, 64
1, 95204, Note_off_c, 1, 37, 64
1, 95212, Control_c, 2, 64, 0
1, 95212, Control_c, 3, 64, 0
1, 95232, Note_on_c, 2, 54, 55
1, 95232, Note_on_c, 2, 60, 62
1, 95232, Note_on_c, 9, 51, 111
1, 95236, Note_on_c, 1, 38, 102
1, 95236, Note_on_c, 8, 54, 63
1, 95240, Note_on_c, 2, 50, 68
1, 95248, Note_off_c, 9, 51, 64
1, 95248, Note_on_c, 8, 60, 89
1, 95252, Note_on_c, 8, 64, 96
1, 95364, Note_off_c, 8, 54, 64
1, 95372, Note_off_c, 8, 60, 64
1, 95376, Note_off_c, 8, 64, 64
1, 95464, Note_on_c, 3, 84, 118
1, 95468, Note_on_c, 3, 72, 107
1, 95508, Note_off_c, 3, 72, 64
1, 95512, Control_c, 2, 64, 127
1, 95512, Control_c, 3, 64, 127
1, 95540, Note_off_c, 3, 84, 64
1, 95552, Note_on_c, 3, 72, 83
1, 95572, Note_off_c, 1, 38, 64
1, 95584, Note_on_c, 3, 84, 80
1, 95600, Note_off_c, 3, 72, 64
1, 95616, Note_on_c, 1, 50, 107
1, 95616, Note_on_c, 8, 54, 60
1, 95616, Note_on_c, 9, 51, 113
1, 95616, Note_on_c, 9, 44, 127
1, 95632, Note_off_c, 9, 44, 64
1, 95632, Note_off_c, 9, 51, 64
1, 95632, Note_off_c, 3, 84, 64
1, 95636, Note_on_c, 8, 64, 90
1, 95636, Note_on_c, 8, 60, 85
1, 95648, Note_on_c, 3, 72, 63
1, 95692, Note_off_c, 3, 72, 64
1, 95692, Note_off_c, 2, 50, 64
1, 95696, Note_on_c, 3, 84, 42
1, 95720, Note_off_c, 3, 84, 64
1, 95728, Note_off_c, 8, 54, 64
1, 95732, Note_off_c, 2, 54, 64
1, 95744, Note_off_c, 8, 60, 64
1, 95744, Note_on_c, 3, 72, 35
1, 95748, Note_off_c, 2, 60, 64
1, 95760, Note_off_c, 8, 64, 64
1, 95780, Note_off_c, 3, 72, 64
1, 95828, Note_on_c, 3, 72, 55
1, 95872, Note_on_c, 9, 51, 75
1, 95876, Note_off_c, 3, 72, 64
1, 95884, Note_on_c, 3, 84, 67
1, 95888, Note_off_c, 9, 51, 64
1, 95928, Note_on_c, 3, 72, 45
1, 95952, Note_off_c, 3, 84, 64
1, 95988, Note_off_c, 3, 72, 64
1, 96000, Note_on_c, 2, 60, 79
1, 96000, Note_on_c, 2, 54, 63
1, 96000, Note_on_c, 2, 50, 40
1, 96004, Note_on_c, 8, 54, 72
1, 96004, Note_on_c, 9, 51, 113
1, 96008, Note_on_c, 1, 48, 97
1, 96016, Note_on_c, 3, 81, 101
1, 96016, Note_on_c, 8, 64, 101
1, 96016, Note_on_c, 8, 60, 93
1, 96020, Note_off_c, 9, 51, 64
1, 96024, Control_c, 2, 64, 0
1, 96024, Control_c, 3, 64, 0
1, 96040, Note_off_c, 1, 50, 64
1, 96112, Note_off_c, 8, 54, 64
1, 96116, Note_off_c, 8, 60, 64
1, 96124, Note_off_c, 8, 64, 64
1, 96232, Note_off_c, 3, 81, 64
1, 96256, Note_on_c, 3, 76, 96
1, 96324, Control_c, 2, 64, 127
1, 96324, Control_c, 3, 64, 127
1, 96344, Note_off_c, 3, 76, 64
1, 96376, Note_off_c, 1, 48, 64
1, 96388, Note_on_c, 1, 45, 83
1, 96388, Note_on_c, 9, 51, 113
1, 96388, Note_on_c, 9, 44, 127
1, 96392, Note_on_c, 8, 54, 70
1, 96396, Note_on_c, 3, 72, 79
1, 96404, Note_off_c, 9, 44, 64
1, 96404, Note_off_c, 9, 51, 64
1, 96404, Note_on_c, 8, 64, 98
1, 96412, Note_on_c, 8, 60, 88
1, 96444, Note_off_c, 2, 60, 64
1, 96480, Note_off_c, 2, 50, 64
1, 96496, Note_off_c, 8, 64, 64
1, 96512, Note_off_c, 8, 60, 64
1, 96516, Note_off_c, 8, 54, 64
1, 96524, Note_off_c, 3, 72, 64
1, 96548, Note_off_c, 2, 54, 64
1, 96612, Note_off_c, 1, 45, 64
1, 96620, Note_on_c, 3, 74, 85
1, 96644, Note_on_c, 1, 42, 65
1, 96644, Note_on_c, 9, 51, 85
1, 96656, Note_off_c, 3, 74, 64
1, 96660, Note_off_c, 9, 51, 64
1, 96716, Note_off_c, 1, 42, 64
1, 96728, Note_on_c, 3, 74, 75
1, 96744, Control_c, 2, 64, 0
1, 96744, Control_c, 3, 64, 0
1, 96748, Note_on_c, 3, 75, 98
1, 96768, Note_on_c, 1, 38, 86
1, 96768, Note_on_c, 2, 50, 42
1, 96768, Note_on_c, 2, 60, 72
1, 96768, Note_on_c, 2, 53, 47
1, 96772, Note_on_c, 3, 76, 86
1, 96772, Note_on_c, 8, 53, 60
1, 96772, Note_on_c, 9, 51, 113
1, 96776, Note_on_c, 8, 57, 80
1, 96780, Note_on_c, 8, 60, 85
1, 96784, Note_off_c, 3, 74, 64
1, 96788, Note_off_c, 9, 51, 64
1, 96792, Note_off_c, 3, 75, 64
1, 96884, Note_off_c, 8, 53, 64
1, 96900, Note_off_c, 8, 57, 64
1, 96928, Note_off_c, 8, 60, 64
1, 97000, Note_off_c, 3, 76, 64
1, 97004, Note_on_c, 3, 79, 94
1, 97128, Note_off_c, 3, 79, 64
1, 97136, Control_c, 2, 64, 127
1, 97136, Control_c, 3, 64, 127
1, 97152, Note_on_c, 3, 77, 98
1, 97156, Note_off_c, 1, 38, 64
1, 97156, Note_on_c, 1, 36, 98
1, 97156, Note_on_c, 9, 51, 113
1, 97156, Note_on_c, 9, 44, 127
1, 97164, Note_on_c, 8, 57, 77
1, 97164, Note_on_c, 8, 60, 85
1, 97164, Note_on_c, 8, 53, 43
1, 97172, Note_off_c, 9, 44, 64
1, 97172, Note_off_c, 9, 51, 64
1, 97256, Note_off_c, 8, 53, 64
1, 97260, Note_off_c, 8, 57, 64
1, 97268, Note_off_c, 2, 60, 64
1, 97284, Note_off_c, 3, 77, 64
1, 97292, Note_off_c, 8, 60, 64
1, 97320, Note_off_c, 2, 50, 64
1, 97336, Note_off_c, 2, 53, 64
1, 97388, Note_on_c, 3, 75, 90
1, 97396, Note_off_c, 1, 36, 64
1, 97412, Note_on_c, 1, 33, 65
1, 97412, Note_on_c, 9, 51, 85
1, 97428, Note_off_c, 9, 51, 64
1, 97512, Note_off_c, 3, 75, 64
1, 97520, Note_off_c, 1, 33, 64
1, 97524, Control_c, 2, 64, 0
1, 97524, Control_c, 3, 64, 0
1, 97536, Note_on_c, 2, 59, 60
1, 97536, Note_on_c, 3, 76, 105
1, 97536, Note_on_c, 8, 53, 63
1, 97540, Note_on_c, 1, 31, 88
1, 97540, Note_on_c, 2, 53, 52
1, 97540, Note_on_c, 2, 50, 55
1, 97540, Note_on_c, 9, 51, 113
1, 97548, Note_on_c, 8, 57, 81
1, 97552, Note_on_c, 8, 62, 77
1, 97556, Note_off_c, 9, 51, 64
1, 97640, Note_off_c, 8, 53, 64
1, 97684, Note_off_c, 8, 62, 64
1, 97684, Note_off_c, 8, 57, 64
1, 97772, Note_on_c, 3, 79, 105
1, 97792, Note_off_c, 3, 76, 64
1, 97796, Note_on_c, 9, 40, 51
1, 97812, Note_off_c, 9, 40, 64
1, 97828, Control_c, 2, 64, 127
1, 97828, Control_c, 3, 64, 127
1, 97856, Note_off_c, 3, 79, 64
1, 97904, Note_off_c, 1, 31, 64
1, 97920, Note_off_c, 2, 53, 64
1, 97920, Note_on_c, 1, 35, 100
1, 97920, Note_on_c, 3, 81, 99
1, 97920, Note_on_c, 8, 53, 50
1, 97920, Note_on_c, 9, 51, 113
1, 97924, Note_on_c, 8, 57, 76
1, 97924, Note_on_c, 9, 40, 46
1, 97924, Note_on_c, 9, 44, 127
1, 97928, Note_off_c, 2, 50, 64
1, 97928, Note_on_c, 8, 62, 84
1, 97936, Note_off_c, 9, 51, 64
1, 97940, Note_off_c, 9, 44, 64
1, 97940, Note_off_c, 9, 40, 64
1, 97968, Note_off_c, 2, 59, 64
1, 97984, Note_off_c, 3, 81, 64
1, 98020, Note_off_c, 8, 53, 64
1, 98068, Note_off_c, 8, 62, 64
1, 98068, Note_off_c, 8, 57, 64
1, 98148, Note_on_c, 3, 72, 96
1, 98148, Note_on_c, 3, 84, 107
1, 98172, Control_c, 2, 64, 0
1, 98172, Control_c, 3, 64, 0
1, 98176, Note_on_c, 9, 51, 109
1, 98180, Note_on_c, 9, 35, 118
1, 98192, Note_off_c, 9, 51, 64
1, 98196, Note_off_c, 9, 35, 64
1, 98276, Note_off_c, 1, 35, 64
1, 98304, Note_on_c, 2, 59, 53
1, 98304, Note_on_c, 9, 51, 113
1, 98308, Note_on_c, 1, 36, 98
1, 98308, Note_on_c, 2, 48, 49
1, 98308, Note_on_c, 2, 52, 57
1, 98308, Note_on_c, 8, 55, 61
1, 98316, Note_on_c, 8, 64, 95
1, 98320, Note_off_c, 9, 51, 64
1, 98320, Note_on_c, 8, 59, 84
1, 98428, Note_off_c, 8, 55, 64
1, 98432, Note_off_c, 8, 59, 64
1, 98456, Note_off_c, 8, 64, 64
1, 98640, Control_c, 2, 64, 127
1, 98640, Control_c, 3, 64, 127
1, 98676, Note_off_c, 3, 72, 64
1, 98692, Note_on_c, 9, 51, 113
1, 98692, Note_on_c, 9, 44, 127
1, 98696, Note_on_c, 8, 55, 52
1, 98708, Note_off_c, 9, 44, 64
1, 98708, Note_off_c, 9, 51, 64
1, 98708, Note_on_c, 8, 59, 95
1, 98712, Note_on_c, 8, 64, 95
1, 98716, Note_off_c, 2, 52, 64
1, 98724, Note_off_c, 3, 84, 64
1, 98736, Note_off_c, 2, 48, 64
1, 98764, Note_off_c, 2, 59, 64
1, 98820, Note_off_c, 8, 59, 64
1, 98824, Note_off_c, 8, 64, 64
1, 98864, Note_off_c, 8, 55, 64
1, 98880, Note_on_c, 3, 81, 105
1, 98900, Note_off_c, 1, 36, 64
1, 98944, Note_off_c, 3, 81, 64
1, 98948, Note_on_c, 1, 48, 81
1, 98948, Note_on_c, 9, 51, 105
1, 98964, Note_off_c, 9, 51, 64
1, 98972, Note_on_c, 3, 80, 102
1, 99000, Control_c, 2, 64, 0
1, 99000, Control_c, 3, 64, 0
1, 99008, Note_off_c, 1, 48, 64
1, 99048, Note_off_c, 3, 80, 64
1, 99076, Note_on_c, 1, 47, 106
1, 99076, Note_on_c, 2, 57, 62
1, 99076, Note_on_c, 2, 47, 57
1, 99076, Note_on_c, 2, 51, 76
1, 99076, Note_on_c, 3, 79, 102
1, 99076, Note_on_c, 9, 51, 113
1, 99076, Note_on_c, 9, 40, 111
1, 99080, Note_on_c, 8, 54, 56
1, 99092, Note_off_c, 9, 40, 64
1, 99092, Note_off_c, 9, 51, 64
1, 99092, Note_on_c, 8, 63, 85
1, 99104, Note_on_c, 8, 57, 75
1, 99152, Note_off_c, 3, 79, 64
1, 99164, Note_on_c, 3, 72, 99
1, 99208, Note_off_c, 8, 54, 64
1, 99216, Note_off_c, 3, 72, 64
1, 99228, Note_off_c, 8, 63, 64
1, 99236, Note_off_c, 8, 57, 64
1, 99436, Note_on_c, 8, 54, 55
1, 99452, Note_on_c, 3, 72, 105
1, 99456, Note_on_c, 9, 51, 113
1, 99456, Note_on_c, 9, 44, 127
1, 99460, Note_on_c, 8, 57, 81
1, 99464, Note_on_c, 8, 63, 96
1, 99472, Note_off_c, 9, 44, 64
1, 99472, Note_off_c, 9, 51, 64
1, 99476, Control_c, 2, 64, 127
1, 99476, Control_c, 3, 64, 127
1, 99508, Note_off_c, 3, 72, 64
1, 99508, Note_off_c, 2, 47, 64
1, 99524, Note_off_c, 2, 51, 64
1, 99536, Note_off_c, 8, 54, 64
1, 99560, Note_off_c, 2, 57, 64
1, 99580, Note_off_c, 8, 63, 64
1, 99608, Note_off_c, 8, 57, 64
1, 99652, Note_off_c, 1, 47, 64
1, 99712, Note_on_c, 1, 35, 86
1, 99788, Note_off_c, 1, 35, 64
1, 99820, Control_c, 2, 64, 0
1, 99820, Control_c, 3, 64, 0
1, 99840, Note_on_c, 1, 34, 123
1, 99840, Note_on_c, 2, 56, 66
1, 99840, Note_on_c, 3, 82, 113
1, 99840, Note_on_c, 3, 70, 104
1, 99840, Note_on_c, 9, 51, 113
1, 99844, Note_on_c, 2, 50, 77
1, 99844, Note_on_c, 8, 53, 67
1, 99848, Note_on_c, 8, 56, 94
1, 99852, Note_on_c, 2, 46, 65
1, 99856, Note_off_c, 9, 51, 64
1, 99856, Note_on_c, 8, 62, 95
1, 99964, Note_off_c, 8, 56, 64
1, 99968, Note_off_c, 8, 62, 64
1, 99980, Note_off_c, 8, 53, 64
1, 100092, Note_on_c, 9, 40, 102
1, 100108, Note_off_c, 9, 40, 64
1, 100208, Note_off_c, 3, 82, 64
1, 100220, Note_on_c, 9, 51, 113
1, 100220, Note_on_c, 9, 44, 123
1, 100228, Note_on_c, 1, 46, 121
1, 100228, Control_c, 2, 64, 127
1, 100228, Control_c, 3, 64, 127
1, 100232, Note_off_c, 2, 50, 64
1, 100236, Note_off_c, 9, 44, 64
1, 100236, Note_off_c, 9, 51, 64
1, 100236, Note_on_c, 8, 53, 71
1, 100236, Note_on_c, 8, 56, 99
1, 100240, Note_off_c, 1, 34, 64
1, 100240, Note_on_c, 3, 76, 94
1, 100244, Note_on_c, 8, 62, 92
1, 100248, Note_off_c, 3, 70, 64
1, 100264, Note_off_c, 2, 46, 64
1, 100300, Note_off_c, 2, 56, 64
1, 100304, Note_off_c, 3, 76, 64
1, 100356, Note_off_c, 8, 56, 64
1, 100360, Note_off_c, 8, 62, 64
1, 100364, Note_off_c, 8, 53, 64
1, 100444, Note_off_c, 1, 46, 64
1, 100452, Note_on_c, 3, 69, 105
1, 100456, Control_c, 2, 64, 0
1, 100456, Control_c, 3, 64, 0
1, 100464, Note_on_c, 3, 81, 90
1, 100480, Note_on_c, 1, 45, 106
1, 100528, Note_off_c, 3, 69, 64
1, 100560, Control_c, 2, 64, 127
1, 100560, Control_c, 3, 64, 127
1, 100564, Note_off_c, 3, 81, 64
1, 100568, Note_on_c, 3, 69, 76
1, 100608, Note_on_c, 2, 55, 85
1, 100608, Note_on_c, 2, 49, 91
1, 100608, Note_on_c, 2, 45, 76
1, 100608, Note_on_c, 8, 61, 96
1, 100608, Note_on_c, 8, 55, 93
1, 100612, Note_on_c, 8, 52, 81
1, 100624, Note_off_c, 3, 69, 64
1, 100624, Note_on_c, 3, 81, 55
1, 100656, Note_off_c, 3, 81, 64
1, 100656, Note_on_c, 3, 69, 72
1, 100716, Note_on_c, 3, 81, 51
1, 100720, Note_off_c, 3, 69, 64
1, 100752, Note_off_c, 3, 81, 64
1, 100760, Note_on_c, 3, 69, 66
1, 100772, Note_off_c, 8, 52, 64
1, 100776, Note_off_c, 8, 61, 64
1, 100780, Note_off_c, 8, 55, 64
1, 100788, Note_off_c, 1, 45, 64
1, 100800, Note_on_c, 3, 81, 50
1, 100816, Note_off_c, 3, 69, 64
1, 100848, Note_off_c, 3, 81, 64
1, 100860, Note_on_c, 6, 52, 95
1, 100864, Note_on_c, 1, 45, 78
1, 100864, Note_on_c, 3, 69, 52
1, 100864, Note_on_c, 4, 64, 92
1, 100864, Note_on_c, 9, 50, 30
1, 100880, Note_off_c, 9, 50, 64
1, 100896, Note_on_c, 3, 81, 69
1, 100904, Note_off_c, 3, 69, 64
1, 100916, Note_off_c, 4, 64, 64
1, 100916, Note_off_c, 6, 52, 64
1, 100924, Note_off_c, 1, 45, 64
1, 100940, Note_off_c, 3, 81, 64
1, 100952, Note_off_c, 2, 45, 64
1, 100960, Note_on_c, 3, 69, 53
1, 100992, Note_on_c, 1, 40, 86
1, 100992, Note_on_c, 3, 81, 65
1, 100992, Note_on_c, 9, 50, 68
1, 100996, Note_on_c, 4, 67, 121
1, 100996, Note_on_c, 6, 55, 126
1, 101000, Note_off_c, 3, 69, 64
1, 101004, Note_off_c, 2, 49, 64
1, 101008, Note_off_c, 9, 50, 64
1, 101024, Note_off_c, 3, 81, 64
1, 101044, Note_off_c, 2, 55, 64
1, 101044, Note_on_c, 3, 69, 60
1, 101048, Note_off_c, 1, 40, 64
1, 101060, Note_off_c, 4, 67, 64
1, 101072, Note_off_c, 6, 55, 64
1, 101088, Note_off_c, 3, 69, 64
1, 101088, Note_on_c, 3, 81, 57
1, 101120, Note_off_c, 3, 81, 64
1, 101120, Note_on_c, 9, 40, 55
1, 101124, Note_on_c, 1, 37, 89
1, 101124, Note_on_c, 4, 69, 109
1, 101124, Note_on_c, 6, 57, 106
1, 101132, Note_on_c, 3, 69, 64
1, 101136, Note_off_c, 9, 40, 64
1, 101156, Note_off_c, 1, 37, 64
1, 101180, Note_off_c, 3, 69, 64
1, 101192, Note_off_c, 4, 69, 64
1, 101204, Note_off_c, 6, 57, 64
1, 101220, Note_on_c, 3, 69, 72
1, 101244, Note_on_c, 1, 33, 73
1, 101244, Note_on_c, 9, 40, 81
1, 101252, Note_on_c, 4, 72, 127
1, 101252, Note_on_c, 6, 60, 127
1, 101260, Note_off_c, 9, 40, 64
1, 101268, Note_on_c, 3, 81, 62
1, 101292, Note_off_c, 1, 33, 64
1, 101292, Note_off_c, 3, 69, 64
1, 101316, Note_off_c, 3, 81, 64
1, 101348, Note_off_c, 4, 72, 64
1, 101356, Note_off_c, 6, 60, 64
1, 101356, Control_c, 2, 64, 0
1, 101356, Control_c, 3, 64, 0
1, 101376, Note_on_c, 2, 50, 86
1, 101376, Note_on_c, 2, 60, 91
1, 101376, Note_on_c, 2, 55, 83
1, 101376, Note_on_c, 9, 46, 77
1, 101376, Note_on_c, 9, 35, 86
1, 101380, Note_on_c, 1, 38, 98
1, 101392, Note_off_c, 9, 35, 64
1, 101392, Note_off_c, 9, 46, 64
1, 101628, Note_on_c, 3, 69, 113
1, 101628, Note_on_c, 3, 81, 111
1, 101628, Note_on_c, 4, 64, 91
1, 101628, Note_on_c, 4, 69, 98
1, 101636, Note_on_c, 6, 55, 97
1, 101636, Note_on_c, 6, 60, 106
1, 101708, Control_c, 2, 64, 127
1, 101708, Control_c, 3, 64, 127
1, 101760, Note_on_c, 9, 42, 93
1, 101776, Note_off_c, 9, 42, 64
1, 101828, Note_off_c, 2, 50, 64
1, 101852, Note_off_c, 1, 38, 64
1, 101884, Note_off_c, 2, 55, 64
1, 101900, Note_off_c, 2, 60, 64
1, 101936, Note_off_c, 3, 81, 64
1, 101960, Note_off_c, 6, 60, 64
1, 101960, Note_off_c, 4, 64, 64
1, 101972, Note_off_c, 6, 55, 64
1, 101980, Note_off_c, 4, 69, 64
1, 102016, Note_on_c, 1, 38, 79
1, 102024, Note_on_c, 9, 42, 71
1, 102040, Note_off_c, 9, 42, 64
1, 102108, Note_off_c, 1, 38, 64
1, 102140, Control_c, 2, 64, 0
1, 102140, Note_on_c, 2, 60, 65
1, 102140, Note_on_c, 2, 50, 54
1, 102140, Note_on_c, 2, 54, 66
1, 102140, Control_c, 3, 64, 0
1, 102140, Note_on_c, 3, 76, 77
1, 102144, Note_on_c, 9, 46, 60
1, 102148, Note_on_c, 1, 48, 96
1, 102148, Note_on_c, 4, 64, 82
1, 102148, Note_on_c, 4, 72, 95
1, 102148, Note_on_c, 6, 54, 82
1, 102148, Note_on_c, 6, 57, 96
1, 102160, Note_off_c, 9, 46, 64
1, 102184, Note_off_c, 3, 69, 64
1, 102196, Note_off_c, 2, 54, 64
1, 102200, Note_off_c, 2, 50, 64
1, 102204, Note_off_c, 3, 76, 64
1, 102236, Note_off_c, 2, 60, 64
1, 102248, Note_off_c, 6, 54, 64
1, 102252, Note_off_c, 6, 57, 64
1, 102252, Note_off_c, 4, 64, 64
1, 102284, Note_off_c, 4, 72, 64
1, 102304, Note_off_c, 1, 48, 64
1, 102524, Note_on_c, 3, 74, 84
1, 102528, Note_on_c, 2, 60, 52
1, 102528, Note_on_c, 2, 54, 66
1, 102528, Note_on_c, 9, 42, 79
1, 102532, Note_on_c, 1, 47, 96
1, 102532, Note_on_c, 2, 50, 60
1, 102532, Note_on_c, 4, 64, 83
1, 102532, Note_on_c, 4, 74, 93
1, 102532, Note_on_c, 6, 54, 82
1, 102532, Note_on_c, 6, 60, 90
1, 102544, Note_off_c, 9, 42, 64
1, 102576, Note_off_c, 2, 50, 64
1, 102576, Note_off_c, 2, 54, 64
1, 102596, Note_off_c, 2, 60, 64
1, 102596, Note_off_c, 3, 74, 64
1, 102636, Note_off_c, 6, 54, 64
1, 102648, Note_off_c, 4, 64, 64
1, 102656, Note_off_c, 1, 47, 64
1, 102684, Note_off_c, 6, 60, 64
1, 102684, Note_off_c, 4, 74, 64
1, 102792, Note_on_c, 9, 42, 67
1, 102808, Note_off_c, 9, 42, 64
1, 102912, Note_on_c, 1, 46, 101
1, 102912, Note_on_c, 2, 56, 54
1, 102912, Note_on_c, 3, 72, 92
1, 102912, Note_on_c, 9, 46, 75
1, 102916, Note_on_c, 2, 62, 78
1, 102916, Note_on_c, 2, 67, 48
1, 102916, Note_on_c, 4, 72, 98
1, 102916, Note_on_c, 4, 67, 93
1, 102916, Note_on_c, 6, 56, 93
1, 102916, Note_on_c, 6, 62, 93
1, 102928, Note_off_c, 9, 46, 64
1, 102976, Note_off_c, 2, 67, 64
1, 102980, Note_off_c, 2, 62, 64
1, 102988, Note_off_c, 2, 56, 64
1, 103008, Note_off_c, 3, 72, 64
1, 103028, Note_off_c, 6, 56, 64
1, 103036, Note_off_c, 4, 67, 64
1, 103048, Note_off_c, 6, 62, 64
1, 103048, Note_off_c, 4, 72, 64
1, 103084, Note_off_c, 1, 46, 64
1, 103292, Note_on_c, 2, 66, 51
1, 103292, Note_on_c, 3, 69, 86
1, 103292, Note_on_c, 6, 61, 94
1, 103292, Note_on_c, 6, 55, 71
1, 103296, Note_on_c, 2, 61, 66
1, 103296, Note_on_c, 2, 55, 62
1, 103300, Note_on_c, 1, 45, 101
1, 103300, Note_on_c, 4, 69, 96
1, 103300, Note_on_c, 4, 64, 85
1, 103300, Note_on_c, 9, 42, 79
1, 103316, Note_off_c, 9, 42, 64
1, 103364, Note_off_c, 2, 55, 64
1, 103364, Note_off_c, 2, 61, 64
1, 103372, Note_off_c, 2, 66, 64
1, 103396, Note_off_c, 3, 69, 64
1, 103412, Note_off_c, 4, 64, 64
1, 103416, Note_off_c, 6, 55, 64
1, 103424, Note_off_c, 4, 69, 64
1, 103436, Note_off_c, 6, 61, 64
1, 103444, Note_off_c, 1, 45, 64
1, 103560, Note_on_c, 9, 42, 71
1, 103576, Note_off_c, 9, 42, 64
1, 103676, Note_on_c, 2, 65, 48
1, 103676, Note_on_c, 2, 54, 61
1, 103676, Note_on_c, 3, 72, 93
1, 103676, Note_on_c, 6, 54, 76
1, 103680, Note_on_c, 2, 60, 75
1, 103680, Note_on_c, 9, 46, 69
1, 103684, Note_on_c, 1, 44, 110
1, 103684, Note_on_c, 4, 72, 95
1, 103684, Note_on_c, 4, 68, 97
1, 103684, Note_on_c, 6, 65, 91
1, 103684, Note_on_c, 6, 60, 97
1, 103696, Note_off_c, 9, 46, 64
1, 103736, Note_off_c, 2, 65, 64
1, 103744, Note_off_c, 2, 60, 64
1, 103744, Note_off_c, 2, 54, 64
1, 103776, Note_off_c, 4, 68, 64
1, 103776, Note_off_c, 3, 72, 64
1, 103808, Note_off_c, 4, 72, 64
1, 103820, Note_off_c, 1, 44, 64
1, 103828, Note_off_c, 6, 65, 64
1, 103828, Note_off_c, 6, 54, 64
1, 103836, Note_off_c, 6, 60, 64
1, 103932, Note_on_c, 2, 59, 78
1, 103932, Note_on_c, 2, 64, 58
1, 103932, Note_on_c, 2, 53, 71
1, 103932, Note_on_c, 3, 74, 96
1, 103932, Note_on_c, 6, 64, 95
1, 103932, Note_on_c, 6, 53, 82
1, 103936, Note_on_c, 1, 43, 95
1, 103936, Control_c, 2, 64, 127
1, 103936, Control_c, 3, 64, 127
1, 103936, Note_on_c, 6, 59, 93
1, 103940, Note_on_c, 4, 69, 95
1, 103940, Note_on_c, 4, 74, 95
1, 103944, Note_on_c, 9, 35, 71
1, 103960, Note_off_c, 9, 35, 64
1, 103992, Note_off_c, 2, 59, 64
1, 103996, Note_off_c, 2, 53, 64
1, 103996, Note_off_c, 2, 64, 64
1, 104000, Note_off_c, 3, 74, 64
1, 104008, Note_off_c, 4, 69, 64
1, 104028, Note_off_c, 6, 59, 64
1, 104032, Note_off_c, 4, 74, 64
1, 104032, Note_off_c, 6, 64, 64
1, 104040, Note_off_c, 1, 43, 64
1, 104052, Note_off_c, 6, 53, 64
1, 104064, Note_on_c, 9, 40, 59
1, 104064, Note_on_c, 9, 42, 84
1, 104080, Note_off_c, 9, 42, 64
1, 104080, Note_off_c, 9, 40, 64
1, 104192, Note_on_c, 9, 50, 48
1, 104208, Note_off_c, 9, 50, 64
1, 104260, Control_c, 2, 64, 0
1, 104260, Control_c, 3, 64, 0
1, 104316, Note_on_c, 2, 57, 64
1, 104316, Note_on_c, 2, 62, 73
1, 104316, Note_on_c, 2, 52, 75
1, 104316, Note_on_c, 3, 76, 102
1, 104316, Note_on_c, 4, 67, 80
1, 104316, Note_on_c, 4, 76, 104
1, 104316, Note_on_c, 6, 57, 70
1, 104316, Note_on_c, 6, 62, 84
1, 104316, Note_on_c, 6, 52, 88
1, 104320, Note_on_c, 1, 36, 98
1, 104320, Note_on_c, 9, 51, 88
1, 104328, Note_on_c, 9, 35, 94
1, 104336, Note_off_c, 9, 51, 64
1, 104344, Note_off_c, 9, 35, 64
1, 104816, Control_c, 2, 64, 127
1, 104816, Control_c, 3, 64, 127
1, 104836, Note_on_c, 9, 42, 71
1, 104852, Note_off_c, 9, 42, 64
1, 104856, Note_off_c, 1, 36, 64
1, 104896, Note_off_c, 2, 52, 64
1, 104928, Note_off_c, 2, 62, 64
1, 104936, Note_off_c, 2, 57, 64
1, 105048, Note_off_c, 6, 57, 64
1, 105064, Note_off_c, 6, 52, 64
1, 105064, Note_off_c, 6, 62, 64
1, 105076, Note_off_c, 4, 67, 64
1, 105088, Note_on_c, 1, 36, 66
1, 105092, Note_off_c, 4, 76, 64
1, 105096, Note_on_c, 9, 42, 63
1, 105112, Note_off_c, 9, 42, 64
1, 105164, Note_off_c, 1, 36, 64
1, 105212, Note_on_c, 2, 57, 49
1, 105212, Note_on_c, 2, 62, 70
1, 105212, Note_on_c, 2, 52, 56
1, 105212, Note_on_c, 4, 76, 101
1, 105212, Note_on_c, 4, 67, 90
1, 105212, Note_on_c, 6, 62, 89
1, 105212, Note_on_c, 6, 52, 91
1, 105212, Note_on_c, 6, 57, 80
1, 105216, Note_on_c, 1, 43, 100
1, 105216, Control_c, 2, 64, 0
1, 105216, Control_c, 3, 64, 0
1, 105216, Note_on_c, 9, 46, 70
1, 105232, Note_off_c, 9, 46, 64
1, 105376, Note_off_c, 6, 52, 64
1, 105384, Note_off_c, 6, 57, 64
1, 105384, Note_off_c, 6, 62, 64
1, 105388, Note_off_c, 4, 67, 64
1, 105404, Note_off_c, 4, 76, 64
1, 105464, Note_on_c, 6, 52, 89
1, 105464, Note_on_c, 6, 57, 96
1, 105468, Note_on_c, 4, 76, 101
1, 105468, Note_on_c, 4, 67, 93
1, 105468, Note_on_c, 6, 62, 101
1, 105512, Control_c, 2, 64, 127
1, 105512, Control_c, 3, 64, 127
1, 105516, Note_off_c, 4, 67, 64
1, 105520, Note_off_c, 6, 57, 64
1, 105524, Note_off_c, 6, 62, 64
1, 105528, Note_off_c, 4, 76, 64
1, 105540, Note_off_c, 6, 52, 64
1, 105584, Note_off_c, 2, 52, 64
1, 105600, Note_off_c, 2, 57, 64
1, 105604, Note_on_c, 9, 42, 85
1, 105620, Note_off_c, 9, 42, 64
1, 105620, Note_off_c, 2, 62, 64
1, 105684, Note_off_c, 1, 43, 64
1, 105704, Note_off_c, 3, 76, 64
1, 105856, Note_on_c, 1, 39, 89
1, 105864, Note_on_c, 9, 35, 39
1, 105864, Note_on_c, 9, 42, 56
1, 105880, Note_off_c, 9, 42, 64
1, 105880, Note_off_c, 9, 35, 64
1, 105908, Note_off_c, 1, 39, 64
1, 105984, Note_on_c, 1, 40, 100
1, 105984, Note_on_c, 2, 56, 43
1, 105984, Note_on_c, 2, 62, 54
1, 105984, Note_on_c, 2, 52, 52
1, 105984, Note_on_c, 3, 76, 84
1, 105984, Note_on_c, 9, 35, 65
1, 105984, Note_on_c, 9, 46, 61
1, 105992, Control_c, 2, 64, 0
1, 105992, Control_c, 3, 64, 0
1, 106000, Note_off_c, 9, 46, 64
1, 106000, Note_off_c, 9, 35, 64
1, 106184, Pitch_bend_c, 5, 7424
1, 106188, Pitch_bend_c, 5, 6848
1, 106196, Pitch_bend_c, 5, 6208
1, 106208, Pitch_bend_c, 5, 5120
1, 106212, Pitch_bend_c, 5, 4544
1, 106216, Pitch_bend_c, 5, 4160
1, 106228, Pitch_bend_c, 5, 3456
1, 106236, Note_on_c, 5, 56, 88
1, 106236, Note_on_c, 5, 62, 93
1, 106244, Note_on_c, 5, 52, 47
1, 106292, Control_c, 2, 64, 127
1, 106292, Control_c, 3, 64, 127
1, 106304, Pitch_bend_c, 5, 2688
1, 106308, Pitch_bend_c, 5, 2752
1, 106328, Pitch_bend_c, 5, 3136
1, 106332, Pitch_bend_c, 5, 3264
1, 106336, Pitch_bend_c, 5, 3456
1, 106348, Pitch_bend_c, 5, 3840
1, 106356, Pitch_bend_c, 5, 3968
1, 106360, Pitch_bend_c, 5, 4160
1, 106372, Pitch_bend_c, 5, 4480
1, 106372, Note_on_c, 9, 42, 80
1, 106380, Pitch_bend_c, 5, 4800
1, 106384, Pitch_bend_c, 5, 4992
1, 106388, Note_off_c, 9, 42, 64
1, 106392, Note_off_c, 2, 52, 64
1, 106396, Pitch_bend_c, 5, 5312
1, 106400, Note_off_c, 2, 62, 64
1, 106404, Pitch_bend_c, 5, 5504
1, 106408, Pitch_bend_c, 5, 5696
1, 106420, Pitch_bend_c, 5, 6144
1, 106424, Note_off_c, 2, 56, 64
1, 106424, Pitch_bend_c, 5, 6528
1, 106432, Note_off_c, 1, 40, 64
1, 106432, Pitch_bend_c, 5, 6720
1, 106444, Pitch_bend_c, 5, 7104
1, 106448, Pitch_bend_c, 5, 7168
1, 106456, Pitch_bend_c, 5, 7424
1, 106468, Pitch_bend_c, 5, 7872
1, 106472, Pitch_bend_c, 5, 8192
1, 106620, Note_off_c, 5, 52, 64
1, 106620, Note_on_c, 1, 35, 66
1, 106632, Note_on_c, 9, 42, 57
1, 106648, Note_off_c, 9, 42, 64
1, 106688, Note_off_c, 5, 62, 64
1, 106708, Note_off_c, 5, 56, 64
1, 106712, Note_off_c, 1, 35, 64
1, 106748, Note_on_c, 1, 39, 82
1, 106748, Note_on_c, 2, 51, 53
1, 106748, Note_on_c, 2, 61, 47
1, 106748, Note_on_c, 2, 55, 63
1, 106752, Note_on_c, 9, 46, 61
1, 106756, Note_on_c, 5, 55, 69
1, 106756, Note_on_c, 5, 61, 92
1, 106756, Note_on_c, 5, 51, 76
1, 106760, Note_off_c, 3, 76, 64
1, 106760, Control_c, 2, 64, 0
1, 106760, Control_c, 3, 64, 0
1, 106768, Note_off_c, 9, 46, 64
1, 106876, Note_off_c, 5, 61, 64
1, 106876, Note_off_c, 5, 55, 64
1, 106880, Note_off_c, 5, 51, 64
1, 107060, Control_c, 2, 64, 127
1, 107060, Control_c, 3, 64, 127
1, 107076, Note_off_c, 2, 55, 64
1, 107120, Note_off_c, 1, 39, 64
1, 107128, Note_off_c, 2, 51, 64
1, 107132, Note_on_c, 5, 61, 88
1, 107132, Note_on_c, 5, 55, 73
1, 107136, Note_on_c, 1, 37, 90
1, 107136, Note_on_c, 5, 51, 72
1, 107136, Note_on_c, 9, 42, 79
1, 107152, Note_off_c, 9, 42, 64
1, 107156, Note_off_c, 2, 61, 64
1, 107256, Note_off_c, 5, 51, 64
1, 107264, Note_on_c, 9, 47, 28
1, 107280, Note_off_c, 9, 47, 64
1, 107284, Note_off_c, 5, 55, 64
1, 107296, Note_off_c, 5, 61, 64
1, 107388, Note_on_c, 9, 47, 75
1, 107400, Note_on_c, 9, 42, 61
1, 107404, Note_off_c, 9, 47, 64
1, 107416, Note_off_c, 9, 42, 64
1, 107496, Note_off_c, 1, 37, 64
1, 107520, Note_on_c, 1, 38, 75
1, 107520, Note_on_c, 2, 60, 76
1, 107520, Note_on_c, 2, 55, 64
1, 107520, Note_on_c, 2, 50, 77
1, 107520, Note_on_c, 9, 35, 72
1, 107524, Note_on_c, 5, 55, 77
1, 107524, Note_on_c, 5, 60, 93
1, 107524, Note_on_c, 5, 50, 74
1, 107536, Note_off_c, 9, 35, 64
1, 107564, Control_c, 2, 64, 0
1, 107564, Control_c, 3, 64, 0
1, 107576, Note_off_c, 1, 38, 64
1, 107632, Note_off_c, 5, 60, 64
1, 107640, Note_off_c, 5, 55, 64
1, 107644, Note_off_c, 5, 50, 64
1, 107772, Note_on_c, 3, 81, 113
1, 107772, Note_on_c, 3, 69, 106
1, 107772, Note_on_c, 6, 55, 91
1, 107772, Note_on_c, 6, 60, 98
1, 107772, Note_on_c, 9, 55, 105
1, 107776, Note_on_c, 1, 50, 115
1, 107780, Note_on_c, 4, 69, 101
1, 107780, Note_on_c, 4, 64, 83
1, 107788, Note_off_c, 9, 55, 64
1, 107904, Note_on_c, 9, 42, 80
1, 107920, Note_off_c, 9, 42, 64
1, 107936, Control_c, 2, 64, 127
1, 107936, Control_c, 3, 64, 127
1, 108076, Note_off_c, 3, 81, 64
1, 108120, Note_off_c, 2, 50, 64
1, 108120, Note_off_c, 2, 55, 64
1, 108120, Note_off_c, 2, 60, 64
1, 108140, Note_off_c, 4, 64, 64
1, 108148, Note_off_c, 6, 60, 64
1, 108160, Note_off_c, 6, 55, 64
1, 108168, Note_off_c, 4, 69, 64
1, 108168, Note_on_c, 9, 42, 62
1, 108184, Note_off_c, 9, 42, 64
1, 108208, Note_off_c, 1, 50, 64
1, 108252, Note_off_c, 3, 69, 64
1, 108292, Note_on_c, 1, 48, 100
1, 108292, Note_on_c, 2, 54, 68
1, 108292, Note_on_c, 2, 60, 68
1, 108292, Note_on_c, 2, 50, 63
1, 108292, Note_on_c, 3, 76, 83
1, 108292, Note_on_c, 4, 64, 92
1, 108292, Note_on_c, 4, 72, 107
1, 108292, Note_on_c, 6, 54, 84
1, 108292, Note_on_c, 6, 57, 100
1, 108292, Note_on_c, 9, 46, 69
1, 108308, Note_off_c, 9, 46, 64
1, 108316, Control_c, 2, 64, 0
1, 108316, Control_c, 3, 64, 0
1, 108340, Note_off_c, 2, 54, 64
1, 108352, Note_off_c, 2, 50, 64
1, 108352, Note_off_c, 1, 48, 64
1, 108356, Note_off_c, 2, 60, 64
1, 108376, Note_off_c, 3, 76, 64
1, 108400, Note_off_c, 6, 54, 64
1, 108404, Note_off_c, 6, 57, 64
1, 108420, Note_off_c, 4, 64, 64
1, 108420, Note_on_c, 1, 45, 58
1, 108424, Note_off_c, 4, 72, 64
1, 108480, Note_off_c, 1, 45, 64
1, 108544, Note_on_c, 1, 42, 51
1, 108588, Note_off_c, 1, 42, 64
1, 108672, Note_on_c, 1, 38, 100
1, 108672, Note_on_c, 4, 74, 101
1, 108672, Note_on_c, 9, 42, 89
1, 108676, Note_on_c, 2, 54, 64
1, 108676, Note_on_c, 2, 50, 69
1, 108676, Note_on_c, 2, 60, 63
1, 108676, Note_on_c, 3, 74, 84
1, 108676, Note_on_c, 4, 64, 83
1, 108676, Note_on_c, 6, 54, 86
1, 108676, Note_on_c, 6, 60, 92
1, 108688, Note_off_c, 9, 42, 64
1, 108728, Note_off_c, 2, 50, 64
1, 108740, Note_off_c, 2, 54, 64
1, 108772, Note_off_c, 3, 74, 64
1, 108776, Note_off_c, 2, 60, 64
1, 108792, Note_off_c, 6, 54, 64
1, 108796, Note_off_c, 4, 64, 64
1, 108812, Note_off_c, 6, 60, 64
1, 108816, Note_off_c, 4, 74, 64
1, 108836, Note_off_c, 1, 38, 64
1, 108936, Note_on_c, 9, 42, 63
1, 108952, Note_off_c, 9, 42, 64
1, 109052, Note_on_c, 4, 72, 95
1, 109052, Note_on_c, 4, 64, 83
1, 109056, Note_on_c, 1, 41, 102
1, 109056, Note_on_c, 2, 53, 60
1, 109056, Note_on_c, 3, 72, 92
1, 109056, Note_on_c, 6, 57, 93
1, 109056, Note_on_c, 9, 46, 62
1, 109060, Note_on_c, 2, 57, 68
1, 109060, Note_on_c, 2, 64, 60
1, 109060, Note_on_c, 6, 53, 81
1, 109072, Note_off_c, 9, 46, 64
1, 109120, Note_off_c, 3, 72, 64
1, 109120, Note_off_c, 2, 53, 64
1, 109124, Note_off_c, 2, 64, 64
1, 109132, Note_off_c, 2, 57, 64
1, 109164, Note_off_c, 4, 64, 64
1, 109180, Note_off_c, 6, 57, 64
1, 109192, Note_off_c, 6, 53, 64
1, 109196, Note_off_c, 4, 72, 64
1, 109224, Note_off_c, 1, 41, 64
1, 109436, Note_on_c, 4, 69, 96
1, 109440, Note_on_c, 2, 64, 62
1, 109440, Note_on_c, 3, 69, 87
1, 109440, Note_on_c, 9, 42, 89
1, 109444, Note_on_c, 1, 36, 95
1, 109444, Note_on_c, 2, 53, 54
1, 109444, Note_on_c, 2, 57, 69
1, 109444, Note_on_c, 4, 64, 68
1, 109444, Note_on_c, 6, 53, 89
1, 109444, Note_on_c, 6, 60, 102
1, 109456, Note_off_c, 9, 42, 64
1, 109524, Note_off_c, 2, 53, 64
1, 109528, Note_off_c, 2, 64, 64
1, 109548, Note_off_c, 2, 57, 64
1, 109552, Note_off_c, 3, 69, 64
1, 109568, Note_off_c, 4, 64, 64
1, 109572, Note_off_c, 6, 53, 64
1, 109584, Note_off_c, 4, 69, 64
1, 109588, Note_off_c, 6, 60, 64
1, 109604, Note_off_c, 1, 36, 64
1, 109704, Note_on_c, 9, 42, 61
1, 109720, Note_off_c, 9, 42, 64
1, 109820, Note_on_c, 2, 62, 70
1, 109820, Note_on_c, 2, 55, 60
1, 109820, Note_on_c, 3, 72, 95
1, 109824, Note_on_c, 1, 40, 102
1, 109824, Note_on_c, 2, 52, 59
1, 109824, Note_on_c, 9, 46, 71
1, 109828, Note_on_c, 4, 67, 98
1, 109828, Note_on_c, 4, 72, 97
1, 109828, Note_on_c, 6, 62, 93
1, 109828, Note_on_c, 6, 52, 86
1, 109840, Note_off_c, 9, 46, 64
1, 109880, Note_off_c, 2, 52, 64
1, 109888, Note_off_c, 2, 55, 64
1, 109892, Note_off_c, 2, 62, 64
1, 109904, Note_off_c, 3, 72, 64
1, 109940, Note_off_c, 4, 67, 64
1, 109964, Note_off_c, 4, 72, 64
1, 109988, Note_off_c, 6, 62, 64
1, 109988, Note_off_c, 1, 40, 64
1, 109992, Note_off_c, 6, 52, 64
1, 110076, Note_on_c, 2, 60, 80
1, 110076, Note_on_c, 2, 53, 63
1, 110076, Note_on_c, 2, 50, 58
1, 110076, Note_on_c, 3, 74, 99
1, 110076, Note_on_c, 6, 50, 89
1, 110076, Note_on_c, 6, 60, 97
1, 110080, Note_on_c, 1, 38, 92
1, 110080, Note_on_c, 4, 65, 83
1, 110080, Note_on_c, 4, 74, 89
1, 110084, Control_c, 2, 64, 127
1, 110084, Control_c, 3, 64, 127
1, 110084, Note_on_c, 9, 35, 86
1, 110100, Note_off_c, 9, 35, 64
1, 110112, Control_c, 2, 64, 0
1, 110112, Control_c, 3, 64, 0
1, 110148, Note_off_c, 4, 65, 64
1, 110156, Note_off_c, 2, 60, 64
1, 110160, Note_off_c, 3, 74, 64
1, 110168, Note_off_c, 2, 53, 64
1, 110176, Note_off_c, 2, 50, 64
1, 110180, Note_off_c, 4, 74, 64
1, 110180, Note_off_c, 6, 50, 64
1, 110188, Note_off_c, 6, 60, 64
1, 110204, Note_off_c, 1, 38, 64
1, 110208, Note_on_c, 9, 42, 62
1, 110224, Note_off_c, 9, 42, 64
1, 110456, Note_on_c, 1, 36, 102
1, 110456, Note_on_c, 6, 48, 77
1, 110460, Note_on_c, 2, 52, 71
1, 110460, Note_on_c, 2, 59, 67
1, 110460, Note_on_c, 2, 48, 64
1, 110460, Note_on_c, 3, 76, 103
1, 110460, Note_on_c, 4, 67, 81
1, 110460, Note_on_c, 4, 76, 102
1, 110460, Note_on_c, 6, 59, 97
1, 110468, Note_on_c, 9, 46, 70
1, 110468, Note_on_c, 9, 35, 85
1, 110484, Note_off_c, 9, 35, 64
1, 110484, Note_off_c, 9, 46, 64
1, 110928, Control_c, 2, 64, 127
1, 110928, Control_c, 3, 64, 127
1, 110976, Note_on_c, 9, 42, 72
1, 110988, Note_off_c, 1, 36, 64
1, 110992, Note_off_c, 9, 42, 64
1, 111080, Note_off_c, 2, 48, 64
1, 111084, Note_off_c, 2, 52, 64
1, 111108, Note_off_c, 2, 59, 64
1, 111232, Note_on_c, 1, 36, 68
1, 111240, Note_on_c, 9, 42, 55
1, 111256, Note_off_c, 9, 42, 64
1, 111272, Note_off_c, 6, 59, 64
1, 111272, Note_off_c, 4, 67, 64
1, 111276, Note_off_c, 6, 48, 64
1, 111296, Note_off_c, 4, 76, 64
1, 111328, Note_off_c, 1, 36, 64
1, 111356, Note_on_c, 2, 59, 57
1, 111356, Note_on_c, 2, 52, 60
1, 111356, Note_on_c, 2, 48, 51
1, 111356, Note_on_c, 6, 48, 82
1, 111360, Note_on_c, 1, 31, 92
1, 111360, Note_on_c, 6, 59, 101
1, 111360, Note_on_c, 9, 46, 75
1, 111364, Note_on_c, 4, 67, 76
1, 111364, Note_on_c, 4, 76, 89
1, 111368, Control_c, 2, 64, 0
1, 111368, Control_c, 3, 64, 0
1, 111376, Note_off_c, 9, 46, 64
1, 111548, Note_off_c, 6, 48, 64
1, 111560, Note_off_c, 6, 59, 64
1, 111564, Note_off_c, 4, 67, 64
1, 111580, Note_off_c, 4, 76, 64
1, 111612, Note_on_c, 4, 67, 101
1, 111612, Note_on_c, 4, 76, 109
1, 111612, Note_on_c, 6, 59, 107
1, 111612, Note_on_c, 6, 48, 90
1, 111656, Note_off_c, 4, 67, 64
1, 111664, Note_off_c, 4, 76, 64
1, 111684, Note_off_c, 6, 59, 64
1, 111684, Control_c, 2, 64, 127
1, 111684, Control_c, 3, 64, 127
1, 111696, Note_off_c, 6, 48, 64
1, 111744, Note_on_c, 9, 42, 79
1, 111760, Note_off_c, 9, 42, 64
1, 111784, Note_off_c, 2, 48, 64
1, 111804, Note_off_c, 1, 31, 64
1, 111804, Note_off_c, 2, 59, 64
1, 111812, Note_off_c, 2, 52, 64
1, 111996, Note_on_c, 1, 31, 72
1, 112008, Note_on_c, 9, 42, 63
1, 112024, Note_off_c, 9, 42, 64
1, 112100, Note_off_c, 1, 31, 64
1, 112124, Control_c, 2, 64, 0
1, 112124, Control_c, 3, 64, 0
1, 112128, Note_on_c, 1, 36, 107
1, 112128, Note_on_c, 2, 58, 52
1, 112128, Note_on_c, 9, 46, 70
1, 112132, Note_on_c, 2, 52, 69
1, 112132, Note_on_c, 2, 48, 40
1, 112144, Note_off_c, 9, 46, 64
1, 112388, Control_c, 2, 64, 127
1, 112388, Control_c, 3, 64, 127
1, 112408, Note_off_c, 2, 48, 64
1, 112416, Note_off_c, 2, 52, 64
1, 112460, Note_off_c, 2, 58, 64
1, 112512, Note_on_c, 9, 42, 81
1, 112528, Note_off_c, 9, 42, 64
1, 112536, Note_off_c, 1, 36, 64
1, 112692, Note_off_c, 3, 76, 64
1, 112768, Note_on_c, 1, 40, 78
1, 112772, Note_on_c, 9, 42, 55
1, 112788, Note_off_c, 9, 42, 64
1, 112892, Note_on_c, 2, 54, 66
1, 112892, Note_on_c, 2, 58, 54
1, 112892, Note_on_c, 2, 64, 65
1, 112896, Note_on_c, 1, 42, 96
1, 112896, Note_on_c, 9, 46, 70
1, 112904, Note_off_c, 1, 40, 64
1, 112904, Control_c, 2, 64, 0
1, 112904, Control_c, 3, 64, 0
1, 112912, Note_off_c, 9, 46, 64
1, 113068, Pitch_bend_c, 5, 7744
1, 113076, Pitch_bend_c, 5, 7296
1, 113088, Pitch_bend_c, 5, 6528
1, 113092, Pitch_bend_c, 5, 5952
1, 113096, Pitch_bend_c, 6, 7104
1, 113100, Pitch_bend_c, 5, 5376
1, 113100, Pitch_bend_c, 6, 6720
1, 113108, Pitch_bend_c, 6, 6080
1, 113112, Pitch_bend_c, 5, 4480
1, 113116, Pitch_bend_c, 5, 4032
1, 113120, Pitch_bend_c, 6, 5056
1, 113124, Pitch_bend_c, 5, 3712
1, 113124, Pitch_bend_c, 6, 4544
1, 113136, Pitch_bend_c, 5, 3136
1, 113140, Pitch_bend_c, 5, 2816
1, 113144, Pitch_bend_c, 6, 3328
1, 113148, Note_on_c, 5, 58, 79
1, 113148, Note_on_c, 5, 64, 106
1, 113148, Pitch_bend_c, 6, 3008
1, 113148, Note_on_c, 6, 61, 97
1, 113152, Note_on_c, 9, 40, 28
1, 113156, Pitch_bend_c, 6, 2752
1, 113168, Note_off_c, 9, 40, 64
1, 113168, Pitch_bend_c, 6, 2368
1, 113172, Pitch_bend_c, 5, 2304
1, 113172, Pitch_bend_c, 6, 2240
1, 113180, Pitch_bend_c, 6, 2176
1, 113184, Pitch_bend_c, 5, 2368
1, 113188, Pitch_bend_c, 5, 2432
1, 113192, Pitch_bend_c, 5, 2560
1, 113196, Pitch_bend_c, 6, 2240
1, 113200, Pitch_bend_c, 6, 2176
1, 113208, Pitch_bend_c, 5, 2816
1, 113212, Pitch_bend_c, 6, 2304
1, 113216, Pitch_bend_c, 5, 2752
1, 113220, Pitch_bend_c, 6, 2560
1, 113224, Pitch_bend_c, 6, 2688
1, 113228, Pitch_bend_c, 5, 2880
1, 113236, Pitch_bend_c, 6, 2944
1, 113240, Pitch_bend_c, 5, 3008
1, 113244, Pitch_bend_c, 6, 3136
1, 113248, Pitch_bend_c, 6, 3200
1, 113252, Pitch_bend_c, 5, 3264
1, 113260, Pitch_bend_c, 5, 3328
1, 113260, Pitch_bend_c, 6, 3520
1, 113264, Control_c, 2, 64, 127
1, 113264, Control_c, 3, 64, 127
1, 113264, Pitch_bend_c, 5, 3520
1, 113268, Pitch_bend_c, 6, 3648
1, 113272, Pitch_bend_c, 6, 3712
1, 113276, Pitch_bend_c, 5, 3840
1, 113276, Note_on_c, 9, 44, 75
1, 113280, Note_on_c, 9, 40, 91
1, 113284, Note_on_c, 3, 72, 112
1, 113284, Pitch_bend_c, 5, 3904
1, 113284, Pitch_bend_c, 6, 3968
1, 113288, Pitch_bend_c, 5, 4032
1, 113292, Note_off_c, 9, 44, 64
1, 113292, Pitch_bend_c, 6, 4224
1, 113296, Note_off_c, 9, 40, 64
1, 113296, Pitch_bend_c, 6, 4352
1, 113300, Pitch_bend_c, 5, 4352
1, 113304, Pitch_bend_c, 5, 4480
1, 113308, Pitch_bend_c, 6, 4672
1, 113312, Pitch_bend_c, 6, 4864
1, 113324, Pitch_bend_c, 5, 4864
1, 113328, Note_off_c, 2, 64, 64
1, 113332, Note_off_c, 2, 58, 64
1, 113332, Pitch_bend_c, 6, 5248
1, 113336, Note_off_c, 2, 54, 64
1, 113336, Pitch_bend_c, 5, 5056
1, 113344, Pitch_bend_c, 6, 5376
1, 113348, Pitch_bend_c, 5, 5376
1, 113352, Pitch_bend_c, 5, 5568
1, 113356, Pitch_bend_c, 6, 5632
1, 113360, Pitch_bend_c, 5, 5696
1, 113360, Pitch_bend_c, 6, 5824
1, 113368, Pitch_bend_c, 6, 5888
1, 113372, Pitch_bend_c, 5, 5952
1, 113376, Pitch_bend_c, 5, 6016
1, 113380, Note_off_c, 1, 42, 64
1, 113380, Pitch_bend_c, 5, 6080
1, 113380, Pitch_bend_c, 6, 6080
1, 113384, Pitch_bend_c, 6, 6144
1, 113388, Pitch_bend_c, 6, 6208
1, 113396, Pitch_bend_c, 5, 6464
1, 113400, Pitch_bend_c, 5, 6656
1, 113400, Pitch_bend_c, 6, 6464
1, 113404, Pitch_bend_c, 5, 6720
1, 113408, Pitch_bend_c, 6, 6592
1, 113412, Pitch_bend_c, 6, 6720
1, 113420, Note_off_c, 3, 72, 64
1, 113420, Pitch_bend_c, 5, 7104
1, 113424, Pitch_bend_c, 5, 7232
1, 113424, Pitch_bend_c, 6, 7040
1, 113428, Pitch_bend_c, 5, 7360
1, 113432, Pitch_bend_c, 6, 7232
1, 113436, Pitch_bend_c, 6, 7296
1, 113440, Pitch_bend_c, 5, 7808
1, 113448, Pitch_bend_c, 5, 7872
1, 113448, Pitch_bend_c, 6, 7808
1, 113452, Pitch_bend_c, 5, 8192
1, 113472, Pitch_bend_c, 6, 8192
1, 113524, Note_off_c, 5, 64, 64
1, 113532, Note_on_c, 3, 73, 97
1, 113536, Note_on_c, 1, 40, 75
1, 113544, Note_on_c, 9, 42, 60
1, 113560, Note_off_c, 9, 42, 64
1, 113616, Note_off_c, 1, 40, 64
1, 113616, Note_off_c, 3, 73, 64
1, 113660, Control_c, 2, 64, 0
1, 113660, Control_c, 3, 64, 0
1, 113660, Note_on_c, 5, 57, 65
1, 113660, Note_on_c, 5, 64, 88
1, 113660, Note_on_c, 6, 60, 92
1, 113664, Note_on_c, 1, 41, 101
1, 113664, Note_on_c, 9, 46, 74
1, 113664, Note_on_c, 9, 35, 76
1, 113668, Note_on_c, 2, 53, 61
1, 113668, Note_on_c, 2, 57, 68
1, 113668, Note_on_c, 2, 64, 56
1, 113668, Note_on_c, 3, 74, 98
1, 113676, Note_off_c, 6, 61, 64
1, 113680, Note_off_c, 9, 35, 64
1, 113680, Note_off_c, 9, 46, 64
1, 113680, Note_off_c, 5, 58, 64
1, 113892, Control_c, 2, 64, 127
1, 113892, Control_c, 3, 64, 127
1, 113972, Note_off_c, 3, 74, 64
1, 114048, Note_on_c, 9, 42, 77
1, 114052, Note_on_c, 3, 74, 104
1, 114064, Note_off_c, 9, 42, 64
1, 114064, Note_off_c, 2, 53, 64
1, 114084, Note_off_c, 2, 64, 64
1, 114096, Note_off_c, 2, 57, 64
1, 114132, Note_off_c, 1, 41, 64
1, 114300, Note_on_c, 3, 73, 96
1, 114304, Note_on_c, 1, 36, 72
1, 114312, Note_on_c, 9, 42, 62
1, 114324, Note_off_c, 3, 74, 64
1, 114328, Note_off_c, 9, 42, 64
1, 114368, Control_c, 6, 1, 10
1, 114372, Control_c, 6, 1, 53
1, 114380, Control_c, 6, 1, 83
1, 114396, Control_c, 6, 1, 110
1, 114404, Note_off_c, 1, 36, 64
1, 114412, Note_off_c, 3, 73, 64
1, 114416, Control_c, 2, 64, 0
1, 114416, Control_c, 3, 64, 0
1, 114420, Control_c, 6, 1, 111
1, 114428, Note_on_c, 1, 29, 102
1, 114428, Control_c, 6, 1, 110
1, 114432, Note_on_c, 9, 46, 64
1, 114436, Note_on_c, 2, 53, 54
1, 114436, Note_on_c, 2, 56, 61
1, 114436, Note_on_c, 2, 63, 53
1, 114436, Note_on_c, 3, 74, 97
1, 114436, Note_on_c, 5, 56, 63
1, 114436, Note_on_c, 5, 63, 88
1, 114444, Control_c, 6, 1, 108
1, 114448, Note_off_c, 9, 46, 64
1, 114452, Control_c, 6, 1, 110
1, 114468, Control_c, 6, 1, 112
1, 114488, Note_off_c, 5, 64, 64
1, 114492, Control_c, 6, 1, 116
1, 114504, Note_off_c, 5, 57, 64
1, 114508, Control_c, 6, 1, 118
1, 114516, Control_c, 6, 1, 117
1, 114520, Control_c, 6, 1, 116
1, 114532, Control_c, 6, 1, 112
1, 114540, Control_c, 6, 1, 113
1, 114544, Control_c, 6, 1, 114
1, 114556, Control_c, 6, 1, 115
1, 114568, Control_c, 6, 1, 116
1, 114604, Control_c, 6, 1, 114
1, 114608, Control_c, 6, 1, 115
1, 114616, Control_c, 6, 1, 114
1, 114628, Control_c, 6, 1, 112
1, 114632, Control_c, 6, 1, 113
1, 114640, Control_c, 6, 1, 110
1, 114656, Control_c, 6, 1, 96
1, 114660, Control_c, 6, 1, 95
1, 114680, Control_c, 6, 1, 99
1, 114684, Note_on_c, 3, 75, 83
1, 114684, Control_c, 6, 1, 97
1, 114700, Note_off_c, 3, 74, 64
1, 114708, Control_c, 6, 1, 96
1, 114720, Control_c, 6, 1, 94
1, 114728, Control_c, 6, 1, 91
1, 114732, Control_c, 6, 1, 90
1, 114744, Control_c, 6, 1, 91
1, 114752, Control_c, 6, 1, 90
1, 114756, Control_c, 6, 1, 88
1, 114768, Control_c, 2, 64, 127
1, 114768, Control_c, 3, 64, 127
1, 114768, Control_c, 6, 1, 49
1, 114776, Note_off_c, 3, 75, 64
1, 114776, Control_c, 6, 1, 19
1, 114780, Control_c, 6, 1, 8
1, 114792, Control_c, 6, 1, 5
1, 114796, Control_c, 6, 1, 0
1, 114812, Note_off_c, 2, 56, 64
1, 114816, Note_off_c, 2, 53, 64
1, 114816, Note_on_c, 9, 42, 82
1, 114820, Note_on_c, 3, 74, 90
1, 114832, Note_off_c, 9, 42, 64
1, 114832, Note_off_c, 2, 63, 64
1, 114876, Note_off_c, 1, 29, 64
1, 114924, Note_off_c, 3, 74, 64
1, 115068, Note_on_c, 1, 36, 67
1, 115068, Note_on_c, 3, 72, 81
1, 115080, Note_on_c, 9, 42, 60
1, 115096, Note_off_c, 9, 42, 64
1, 115136, Control_c, 2, 64, 0
1, 115136, Control_c, 3, 64, 0
1, 115168, Note_off_c, 1, 36, 64
1, 115184, Note_off_c, 5, 56, 64
1, 115188, Note_off_c, 5, 63, 64
1, 115192, Note_off_c, 6, 60, 64
1, 115196, Note_on_c, 5, 55, 53
1, 115196, Note_on_c, 5, 62, 80
1, 115196, Note_on_c, 6, 59, 83
1, 115200, Note_on_c, 1, 40, 96
1, 115200, Note_on_c, 2, 52, 54
1, 115200, Note_on_c, 2, 62, 59
1, 115200, Note_on_c, 2, 55, 59
1, 115200, Note_on_c, 9, 46, 65
1, 115216, Note_off_c, 9, 46, 64
1, 115436, Note_off_c, 3, 72, 64
1, 115452, Note_on_c, 3, 67, 78
1, 115548, Control_c, 2, 64, 127
1, 115548, Control_c, 3, 64, 127
1, 115584, Note_on_c, 9, 42, 65
1, 115600, Note_off_c, 9, 42, 64
1, 115616, Note_off_c, 2, 52, 64
1, 115624, Note_off_c, 2, 55, 64
1, 115664, Note_off_c, 2, 62, 64
1, 115776, Note_off_c, 1, 40, 64
1, 115840, Note_on_c, 1, 36, 72
1, 115848, Note_on_c, 9, 42, 59
1, 115860, Note_off_c, 5, 62, 64
1, 115864, Note_off_c, 9, 42, 64
1, 115872, Note_off_c, 5, 55, 64
1, 115888, Note_off_c, 6, 59, 64
1, 115940, Note_off_c, 1, 36, 64
1, 115968, Note_on_c, 1, 30, 93
1, 115968, Note_on_c, 9, 46, 55
1, 115972, Note_on_c, 2, 54, 51
1, 115972, Note_on_c, 2, 64, 61
1, 115972, Note_on_c, 2, 58, 49
1, 115984, Note_off_c, 9, 46, 64
1, 115984, Control_c, 2, 64, 0
1, 115984, Control_c, 3, 64, 0
1, 115996, Note_off_c, 3, 67, 64
1, 116156, Pitch_bend_c, 5, 7296
1, 116156, Pitch_bend_c, 6, 7808
1, 116160, Pitch_bend_c, 5, 6592
1, 116160, Pitch_bend_c, 6, 7360
1, 116172, Pitch_bend_c, 5, 5248
1, 116172, Pitch_bend_c, 6, 6400
1, 116180, Pitch_bend_c, 5, 4608
1, 116180, Pitch_bend_c, 6, 5824
1, 116184, Pitch_bend_c, 5, 4224
1, 116184, Pitch_bend_c, 6, 5376
1, 116204, Pitch_bend_c, 6, 4288
1, 116208, Pitch_bend_c, 6, 3904
1, 116216, Note_on_c, 5, 58, 79
1, 116216, Note_on_c, 5, 64, 101
1, 116216, Note_on_c, 6, 61, 96
1, 116220, Pitch_bend_c, 5, 3136
1, 116220, Pitch_bend_c, 6, 3520
1, 116224, Pitch_bend_c, 6, 3456
1, 116224, Note_on_c, 9, 40, 101
1, 116232, Pitch_bend_c, 6, 3264
1, 116240, Note_off_c, 9, 40, 64
1, 116244, Pitch_bend_c, 6, 3136
1, 116248, Pitch_bend_c, 5, 3200
1, 116248, Pitch_bend_c, 6, 3008
1, 116256, Pitch_bend_c, 5, 3264
1, 116256, Pitch_bend_c, 6, 2944
1, 116268, Pitch_bend_c, 5, 3456
1, 116268, Pitch_bend_c, 6, 2880
1, 116272, Pitch_bend_c, 5, 3520
1, 116280, Pitch_bend_c, 5, 3584
1, 116280, Pitch_bend_c, 6, 2816
1, 116292, Pitch_bend_c, 5, 3840
1, 116292, Pitch_bend_c, 6, 2880
1, 116296, Pitch_bend_c, 5, 3904
1, 116304, Pitch_bend_c, 5, 3968
1, 116316, Pitch_bend_c, 5, 4288
1, 116316, Pitch_bend_c, 6, 3136
1, 116320, Pitch_bend_c, 5, 4416
1, 116320, Pitch_bend_c, 6, 3264
1, 116328, Pitch_bend_c, 5, 4544
1, 116332, Note_off_c, 1, 30, 64
1, 116336, Control_c, 2, 64, 127
1, 116336, Control_c, 3, 64, 127
1, 116340, Pitch_bend_c, 5, 4736
1, 116340, Pitch_bend_c, 6, 3584
1, 116344, Pitch_bend_c, 5, 4992
1, 116344, Pitch_bend_c, 6, 3776
1, 116348, Note_on_c, 1, 42, 106
1, 116348, Pitch_bend_c, 5, 5120
1, 116348, Pitch_bend_c, 6, 3840
1, 116352, Note_on_c, 9, 44, 100
1, 116360, Pitch_bend_c, 6, 4224
1, 116364, Pitch_bend_c, 5, 5376
1, 116368, Note_off_c, 9, 44, 64
1, 116368, Pitch_bend_c, 5, 5568
1, 116368, Pitch_bend_c, 6, 4352
1, 116372, Pitch_bend_c, 5, 5632
1, 116372, Pitch_bend_c, 6, 4480
1, 116380, Note_off_c, 2, 58, 64
1, 116384, Pitch_bend_c, 6, 4608
1, 116388, Pitch_bend_c, 5, 6016
1, 116392, Pitch_bend_c, 6, 4864
1, 116396, Note_off_c, 2, 54, 64
1, 116396, Pitch_bend_c, 5, 6144
1, 116400, Note_off_c, 2, 64, 64
1, 116408, Pitch_bend_c, 5, 6464
1, 116408, Pitch_bend_c, 6, 5248
1, 116416, Pitch_bend_c, 5, 6528
1, 116416, Pitch_bend_c, 6, 5376
1, 116420, Pitch_bend_c, 6, 5504
1, 116432, Pitch_bend_c, 5, 6784
1, 116432, Pitch_bend_c, 6, 5824
1, 116436, Pitch_bend_c, 6, 5888
1, 116440, Pitch_bend_c, 5, 6848
1, 116444, Pitch_bend_c, 5, 6976
1, 116444, Pitch_bend_c, 6, 6016
1, 116456, Pitch_bend_c, 5, 7104
1, 116456, Pitch_bend_c, 6, 6208
1, 116460, Pitch_bend_c, 5, 7360
1, 116460, Pitch_bend_c, 6, 6336
1, 116468, Pitch_bend_c, 5, 7488
1, 116468, Pitch_bend_c, 6, 6400
1, 116480, Pitch_bend_c, 5, 7808
1, 116480, Pitch_bend_c, 6, 6528
1, 116484, Pitch_bend_c, 5, 8192
1, 116484, Pitch_bend_c, 6, 6720
1, 116492, Pitch_bend_c, 6, 6848
1, 116504, Pitch_bend_c, 6, 7104
1, 116508, Pitch_bend_c, 6, 7232
1, 116516, Pitch_bend_c, 6, 7296
1, 116524, Pitch_bend_c, 6, 7488
1, 116532, Pitch_bend_c, 6, 7808
1, 116536, Pitch_bend_c, 6, 7744
1, 116548, Pitch_bend_c, 6, 8192
1, 116604, Note_on_c, 3, 73, 86
1, 116604, Note_on_c, 9, 47, 53
1, 116612, Note_on_c, 9, 35, 44
1, 116620, Note_off_c, 9, 47, 64
1, 116628, Note_off_c, 9, 35, 64
1, 116688, Note_off_c, 5, 64, 64
1, 116696, Note_off_c, 5, 58, 64
1, 116696, Control_c, 2, 64, 0
1, 116696, Control_c, 3, 64, 0
1, 116724, Note_off_c, 1, 42, 64
1, 116728, Note_off_c, 3, 73, 64
1, 116732, Note_on_c, 5, 57, 82
1, 116732, Note_on_c, 5, 64, 77
1, 116732, Note_on_c, 6, 60, 88
1, 116736, Note_on_c, 1, 41, 104
1, 116736, Note_on_c, 2, 57, 66
1, 116736, Note_on_c, 2, 53, 55
1, 116736, Note_on_c, 2, 64, 54
1, 116736, Note_on_c, 9, 46, 71
1, 116736, Note_on_c, 9, 35, 79
1, 116740, Note_on_c, 3, 74, 98
1, 116752, Note_off_c, 9, 35, 64
1, 116752, Note_off_c, 9, 46, 64
1, 116756, Note_off_c, 6, 61, 64
1, 116888, Control_c, 2, 64, 127
1, 116888, Control_c, 3, 64, 127
1, 117048, Note_off_c, 3, 74, 64
1, 117048, Note_off_c, 2, 64, 64
1, 117084, Note_off_c, 2, 57, 64
1, 117120, Note_on_c, 9, 42, 79
1, 117124, Note_on_c, 3, 74, 102
1, 117136, Note_off_c, 9, 42, 64
1, 117136, Note_off_c, 2, 53, 64
1, 117140, Note_off_c, 1, 41, 64
1, 117208, Note_off_c, 3, 74, 64
1, 117372, Note_on_c, 3, 73, 106
1, 117376, Note_on_c, 1, 33, 64
1, 117380, Note_on_c, 9, 42, 68
1, 117396, Note_off_c, 9, 42, 64
1, 117396, Control_c, 6, 1, 18
1, 117404, Control_c, 6, 1, 34
1, 117408, Control_c, 6, 1, 19
1, 117420, Control_c, 6, 1, 36
1, 117428, Control_c, 6, 1, 50
1, 117432, Control_c, 6, 1, 62
1, 117444, Control_c, 6, 1, 78
1, 117452, Control_c, 6, 1, 90
1, 117456, Control_c, 6, 1, 95
1, 117464, Note_off_c, 1, 33, 64
1, 117468, Control_c, 6, 1, 99
1, 117480, Control_c, 6, 1, 100
1, 117492, Control_c, 6, 1, 102
1, 117496, Control_c, 6, 1, 100
1, 117500, Note_on_c, 9, 46, 75
1, 117504, Note_on_c, 1, 34, 102
1, 117504, Control_c, 2, 64, 0
1, 117504, Control_c, 3, 64, 0
1, 117504, Control_c, 6, 1, 102
1, 117508, Note_on_c, 2, 46, 71
1, 117508, Note_on_c, 2, 56, 61
1, 117508, Note_on_c, 2, 50, 76
1, 117508, Note_on_c, 3, 74, 107
1, 117508, Note_on_c, 5, 62, 86
1, 117508, Note_on_c, 5, 56, 71
1, 117512, Note_off_c, 3, 73, 64
1, 117516, Note_off_c, 9, 46, 64
1, 117520, Control_c, 6, 1, 110
1, 117528, Control_c, 6, 1, 111
1, 117552, Control_c, 6, 1, 113
1, 117564, Note_off_c, 5, 64, 64
1, 117564, Control_c, 6, 1, 115
1, 117568, Control_c, 6, 1, 116
1, 117572, Note_off_c, 5, 57, 64
1, 117644, Control_c, 6, 1, 114
1, 117656, Control_c, 6, 1, 111
1, 117664, Control_c, 6, 1, 112
1, 117668, Control_c, 6, 1, 111
1, 117680, Control_c, 6, 1, 116
1, 117692, Control_c, 6, 1, 118
1, 117732, Control_c, 6, 1, 117
1, 117740, Control_c, 6, 1, 111
1, 117748, Note_off_c, 3, 74, 64
1, 117756, Note_on_c, 3, 76, 102
1, 117756, Control_c, 6, 1, 107
1, 117764, Control_c, 6, 1, 101
1, 117776, Control_c, 6, 1, 97
1, 117788, Control_c, 6, 1, 91
1, 117804, Control_c, 6, 1, 47
1, 117812, Control_c, 2, 64, 127
1, 117812, Control_c, 3, 64, 127
1, 117812, Control_c, 6, 1, 17
1, 117816, Note_off_c, 2, 50, 64
1, 117820, Control_c, 6, 1, 11
1, 117828, Control_c, 6, 1, 7
1, 117832, Control_c, 6, 1, 6
1, 117836, Note_off_c, 3, 76, 64
1, 117844, Control_c, 6, 1, 0
1, 117860, Note_off_c, 2, 46, 64
1, 117888, Note_on_c, 9, 42, 88
1, 117892, Note_on_c, 3, 77, 109
1, 117904, Note_off_c, 9, 42, 64
1, 117908, Note_off_c, 2, 56, 64
1, 117968, Note_off_c, 3, 77, 64
1, 118052, Note_off_c, 1, 34, 64
1, 118140, Note_off_c, 5, 62, 64
1, 118140, Note_on_c, 1, 46, 76
1, 118140, Note_on_c, 3, 79, 109
1, 118148, Note_on_c, 9, 42, 66
1, 118164, Note_off_c, 9, 42, 64
1, 118168, Note_off_c, 5, 56, 64
1, 118188, Note_off_c, 1, 46, 64
1, 118192, Control_c, 2, 64, 0
1, 118192, Control_c, 3, 64, 0
1, 118236, Note_off_c, 6, 60, 64
1, 118272, Note_on_c, 1, 45, 109
1, 118272, Note_on_c, 2, 50, 80
1, 118272, Note_on_c, 2, 55, 72
1, 118272, Note_on_c, 2, 45, 61
1, 118272, Note_on_c, 4, 67, 121
1, 118272, Note_on_c, 5, 55, 104
1, 118272, Note_on_c, 7, 67, 119
1, 118272, Note_on_c, 9, 46, 77
1, 118288, Note_off_c, 9, 46, 64
1, 118472, Note_off_c, 7, 67, 64
1, 118484, Note_off_c, 5, 55, 64
1, 118484, Note_off_c, 1, 45, 64
1, 118496, Note_off_c, 4, 67, 64
1, 118508, Note_off_c, 3, 79, 64
1, 118524, Note_on_c, 1, 43, 80
1, 118524, Note_on_c, 3, 76, 105
1, 118524, Note_on_c, 4, 64, 93
1, 118524, Note_on_c, 5, 52, 71
1, 118524, Note_on_c, 7, 64, 102
1, 118528, Note_on_c, 9, 50, 51
1, 118544, Note_off_c, 9, 50, 64
1, 118576, Note_off_c, 4, 64, 64
1, 118584, Control_c, 2, 64, 127
1, 118584, Control_c, 3, 64, 127
1, 118588, Note_off_c, 3, 76, 64
1, 118592, Note_off_c, 7, 64, 64
1, 118596, Note_off_c, 1, 43, 64
1, 118632, Note_off_c, 5, 52, 64
1, 118640, Note_off_c, 2, 45, 64
1, 118652, Note_off_c, 2, 50, 64
1, 118652, Note_on_c, 1, 40, 101
1, 118652, Note_on_c, 3, 74, 106
1, 118652, Note_on_c, 4, 69, 101
1, 118652, Note_on_c, 4, 66, 99
1, 118652, Note_on_c, 5, 62, 98
1, 118656, Note_on_c, 9, 47, 78
1, 118656, Note_on_c, 9, 42, 86
1, 118660, Note_on_c, 7, 69, 117
1, 118668, Note_off_c, 2, 55, 64
1, 118672, Note_off_c, 9, 42, 64
1, 118672, Note_off_c, 9, 47, 64
1, 118700, Note_off_c, 3, 74, 64
1, 118828, Note_off_c, 4, 66, 64
1, 118844, Note_off_c, 7, 69, 64
1, 118860, Note_off_c, 4, 69, 64
1, 118864, Control_c, 2, 64, 0
1, 118864, Control_c, 3, 64, 0
1, 118880, Note_off_c, 1, 40, 64
1, 118908, Note_off_c, 5, 62, 64
1, 118908, Note_on_c, 2, 55, 83
1, 118908, Note_on_c, 2, 45, 78
1, 118908, Note_on_c, 2, 49, 91
1, 118908, Note_on_c, 3, 75, 106
1, 118908, Note_on_c, 3, 70, 103
1, 118908, Note_on_c, 3, 79, 109
1, 118908, Note_on_c, 4, 70, 115
1, 118908, Note_on_c, 4, 67, 98
1, 118908, Note_on_c, 5, 61, 97
1, 118908, Note_on_c, 5, 63, 102
1, 118908, Note_on_c, 6, 45, 104
1, 118908, Note_on_c, 6, 55, 113
1, 118912, Note_on_c, 1, 33, 113
1, 118912, Note_on_c, 9, 55, 119
1, 118916, Note_on_c, 7, 70, 127
1, 118916, Note_on_c, 9, 42, 96
1, 118916, Note_on_c, 9, 35, 114
1, 118928, Note_off_c, 9, 55, 64
1, 118932, Note_off_c, 9, 35, 64
1, 118932, Note_off_c, 9, 42, 64
1, 119392, Control_c, 2, 64, 127
1, 119392, Control_c, 3, 64, 127
1, 119420, Note_off_c, 2, 45, 64
1, 119424, Note_on_c, 9, 40, 34
1, 119440, Note_off_c, 9, 40, 64
1, 119440, Note_off_c, 2, 49, 64
1, 119456, Note_off_c, 2, 55, 64
1, 119496, Note_off_c, 3, 70, 64
1, 119524, Note_off_c, 3, 79, 64
1, 119528, Note_off_c, 3, 75, 64
1, 119552, Note_on_c, 9, 40, 37
1, 119568, Note_off_c, 9, 40, 64
1, 119572, Note_off_c, 1, 33, 64
1, 119672, Note_on_c, 1, 36, 76
1, 119680, Note_on_c, 9, 40, 97
1, 119696, Note_off_c, 9, 40, 64
1, 119708, Note_off_c, 5, 61, 64
1, 119724, Note_off_c, 5, 63, 64
1, 119752, Note_off_c, 1, 36, 64
1, 119764, Control_c, 2, 64, 0
1, 119764, Control_c, 3, 64, 0
1, 119768, Note_off_c, 4, 70, 64
1, 119772, Note_off_c, 7, 70, 64
1, 119772, Note_off_c, 4, 67, 64
1, 119808, Note_on_c, 1, 38, 70
1, 119808, Note_on_c, 2, 50, 84
1, 119808, Note_on_c, 2, 60, 86
1, 119808, Note_on_c, 2, 55, 78
1, 119808, Note_on_c, 9, 35, 76
1, 119808, Note_on_c, 9, 46, 61
1, 119824, Note_off_c, 9, 46, 64
1, 119824, Note_off_c, 9, 35, 64
1, 119836, Note_off_c, 6, 55, 64
1, 119840, Note_off_c, 6, 45, 64
1, 119872, Note_off_c, 1, 38, 64
1, 120060, Note_on_c, 3, 69, 119
1, 120060, Note_on_c, 3, 81, 122
1, 120060, Note_on_c, 6, 60, 104
1, 120064, Note_on_c, 1, 50, 121
1, 120064, Note_on_c, 6, 55, 102
1, 120068, Note_on_c, 4, 64, 90
1, 120068, Note_on_c, 4, 69, 104
1, 120112, Control_c, 2, 64, 127
1, 120112, Control_c, 3, 64, 127
1, 120192, Note_on_c, 9, 42, 89
1, 120208, Note_off_c, 9, 42, 64
1, 120324, Note_off_c, 2, 50, 64
1, 120332, Note_off_c, 3, 81, 64
1, 120336, Note_off_c, 2, 60, 64
1, 120340, Note_off_c, 2, 55, 64
1, 120428, Note_off_c, 6, 60, 64
1, 120444, Note_off_c, 4, 64, 64
1, 120444, Note_off_c, 6, 55, 64
1, 120456, Note_off_c, 1, 50, 64
1, 120456, Note_on_c, 9, 42, 69
1, 120472, Note_off_c, 9, 42, 64
1, 120476, Note_off_c, 4, 69, 64
1, 120540, Note_off_c, 3, 69, 64
1, 120548, Control_c, 2, 64, 0
1, 120548, Control_c, 3, 64, 0
1, 120572, Note_on_c, 2, 55, 68
1, 120572, Note_on_c, 2, 50, 52
1, 120572, Note_on_c, 2, 60, 66
1, 120572, Note_on_c, 3, 76, 80
1, 120580, Note_on_c, 1, 48, 107
1, 120580, Note_on_c, 6, 57, 101
1, 120580, Note_on_c, 6, 54, 79
1, 120580, Note_on_c, 9, 46, 57
1, 120584, Note_on_c, 4, 72, 109
1, 120584, Note_on_c, 4, 64, 85
1, 120596, Note_off_c, 9, 46, 64
1, 120620, Note_off_c, 2, 55, 64
1, 120628, Note_off_c, 2, 60, 64
1, 120628, Note_off_c, 2, 50, 64
1, 120632, Note_off_c, 1, 48, 64
1, 120632, Note_off_c, 3, 76, 64
1, 120676, Note_off_c, 6, 57, 64
1, 120684, Note_off_c, 4, 64, 64
1, 120688, Note_off_c, 6, 54, 64
1, 120704, Note_off_c, 4, 72, 64
1, 120708, Note_on_c, 1, 45, 66
1, 120744, Note_off_c, 1, 45, 64
1, 120832, Note_on_c, 1, 42, 49
1, 120888, Note_off_c, 1, 42, 64
1, 120956, Note_on_c, 2, 55, 61
1, 120956, Note_on_c, 2, 50, 52
1, 120956, Note_on_c, 2, 60, 57
1, 120956, Note_on_c, 3, 74, 82
1, 120956, Note_on_c, 4, 74, 97
1, 120956, Note_on_c, 4, 64, 96
1, 120956, Note_on_c, 9, 42, 92
1, 120960, Note_on_c, 1, 38, 90
1, 120964, Note_on_c, 6, 60, 104
1, 120964, Note_on_c, 6, 54, 81
1, 120972, Note_off_c, 9, 42, 64
1, 121024, Note_off_c, 3, 74, 64
1, 121028, Note_off_c, 2, 50, 64
1, 121028, Note_off_c, 2, 55, 64
1, 121040, Note_off_c, 2, 60, 64
1, 121072, Note_off_c, 4, 74, 64
1, 121080, Note_off_c, 1, 38, 64
1, 121084, Note_off_c, 6, 54, 64
1, 121088, Note_off_c, 6, 60, 64
1, 121092, Note_off_c, 4, 64, 64
1, 121220, Note_on_c, 9, 35, 29
1, 121224, Note_on_c, 9, 42, 56
1, 121236, Note_off_c, 9, 35, 64
1, 121240, Note_off_c, 9, 42, 64
1, 121340, Note_on_c, 6, 54, 72
1, 121344, Note_on_c, 1, 38, 97
1, 121344, Note_on_c, 3, 72, 83
1, 121344, Note_on_c, 6, 57, 95
1, 121344, Note_on_c, 9, 46, 59
1, 121348, Note_on_c, 2, 54, 51
1, 121348, Note_on_c, 2, 50, 52
1, 121348, Note_on_c, 2, 60, 43
1, 121348, Note_on_c, 4, 62, 83
1, 121348, Note_on_c, 4, 72, 100
1, 121360, Note_off_c, 9, 46, 64
1, 121396, Note_off_c, 2, 50, 64
1, 121400, Note_off_c, 2, 54, 64
1, 121404, Note_off_c, 3, 72, 64
1, 121424, Note_off_c, 2, 60, 64
1, 121452, Note_off_c, 6, 57, 64
1, 121456, Note_off_c, 6, 54, 64
1, 121472, Note_off_c, 4, 72, 64
1, 121480, Note_off_c, 4, 62, 64
1, 121540, Note_off_c, 1, 38, 64
1, 121728, Note_on_c, 9, 42, 85
1, 121732, Note_on_c, 2, 54, 47
1, 121732, Note_on_c, 2, 50, 58
1, 121732, Note_on_c, 2, 60, 38
1, 121732, Note_on_c, 3, 69, 80
1, 121732, Note_on_c, 4, 60, 85
1, 121732, Note_on_c, 4, 69, 96
1, 121732, Note_on_c, 6, 50, 69
1, 121732, Note_on_c, 6, 54, 93
1, 121744, Note_off_c, 9, 42, 64
1, 121788, Note_off_c, 2, 54, 64
1, 121792, Note_off_c, 2, 60, 64
1, 121792, Note_off_c, 2, 50, 64
1, 121812, Note_off_c, 4, 60, 64
1, 121820, Note_off_c, 3, 69, 64
1, 121836, Note_off_c, 6, 50, 64
1, 121856, Note_off_c, 6, 54, 64
1, 121856, Note_off_c, 4, 69, 64
1, 121984, Note_on_c, 1, 33, 72
1, 121992, Note_on_c, 9, 42, 60
1, 122008, Note_off_c, 9, 42, 64
1, 122068, Note_off_c, 1, 33, 64
1, 122108, Note_on_c, 6, 60, 109
1, 122108, Note_on_c, 6, 57, 90
1, 122112, Note_on_c, 1, 38, 91
1, 122112, Note_on_c, 9, 46, 71
1, 122116, Note_on_c, 2, 60, 35
1, 122116, Note_on_c, 2, 50, 49
1, 122116, Note_on_c, 2, 54, 41
1, 122116, Note_on_c, 3, 72, 88
1, 122116, Note_on_c, 4, 69, 89
1, 122116, Note_on_c, 4, 72, 97
1, 122128, Note_off_c, 9, 46, 64
1, 122196, Note_off_c, 3, 72, 64
1, 122260, Note_off_c, 4, 72, 64
1, 122272, Note_off_c, 6, 60, 64
1, 122292, Note_off_c, 4, 69, 64
1, 122364, Note_on_c, 3, 74, 88
1, 122364, Note_on_c, 4, 74, 71
1, 122364, Note_on_c, 4, 71, 83
1, 122364, Note_on_c, 6, 62, 74
1, 122364, Note_on_c, 6, 59, 96
1, 122368, Note_off_c, 6, 57, 64
1, 122424, Note_off_c, 3, 74, 64
1, 122456, Note_off_c, 4, 74, 64
1, 122460, Note_off_c, 6, 59, 64
1, 122460, Note_off_c, 6, 62, 64
1, 122460, Note_off_c, 4, 71, 64
1, 122492, Note_on_c, 3, 76, 99
1, 122492, Note_on_c, 6, 60, 101
1, 122492, Note_on_c, 6, 64, 104
1, 122496, Note_on_c, 4, 76, 95
1, 122496, Note_on_c, 9, 42, 79
1, 122500, Note_on_c, 4, 72, 91
1, 122512, Note_off_c, 9, 42, 64
1, 122576, Note_off_c, 6, 60, 64
1, 122576, Note_off_c, 3, 76, 64
1, 122676, Note_off_c, 6, 64, 64
1, 122716, Note_off_c, 2, 54, 64
1, 122716, Note_off_c, 2, 50, 64
1, 122716, Note_off_c, 2, 60, 64
1, 122736, Note_off_c, 4, 72, 64
1, 122748, Note_off_c, 4, 76, 64
1, 122748, Note_on_c, 3, 74, 109
1, 122748, Note_on_c, 4, 74, 96
1, 122748, Note_on_c, 4, 69, 100
1, 122748, Note_on_c, 6, 53, 84
1, 122748, Note_on_c, 6, 60, 113
1, 122760, Note_on_c, 9, 35, 66
1, 122760, Note_on_c, 9, 42, 64
1, 122768, Note_off_c, 1, 38, 64
1, 122776, Note_off_c, 9, 42, 64
1, 122776, Note_off_c, 9, 35, 64
1, 122880, Note_on_c, 2, 60, 65
1, 122880, Note_on_c, 2, 53, 69
1, 122880, Note_on_c, 2, 50, 61
1, 122880, Note_on_c, 9, 46, 73
1, 122880, Note_on_c, 9, 40, 27
1, 122896, Note_off_c, 9, 40, 64
1, 122896, Note_off_c, 9, 46, 64
1, 123132, Note_on_c, 1, 38, 90
1, 123140, Note_on_c, 9, 50, 70
1, 123156, Note_off_c, 9, 50, 64
1, 123208, Note_off_c, 1, 38, 64
1, 123224, Control_c, 2, 64, 127
1, 123224, Control_c, 3, 64, 127
1, 123264, Note_on_c, 9, 42, 71
1, 123280, Note_off_c, 9, 42, 64
1, 123352, Note_off_c, 2, 50, 64
1, 123352, Note_off_c, 2, 53, 64
1, 123368, Note_off_c, 2, 60, 64
1, 123392, Note_on_c, 9, 40, 18
1, 123408, Note_off_c, 9, 40, 64
1, 123524, Note_on_c, 1, 33, 91
1, 123524, Note_on_c, 9, 40, 51
1, 123524, Note_on_c, 9, 35, 41
1, 123528, Note_on_c, 9, 42, 59
1, 123540, Note_off_c, 9, 35, 64
1, 123540, Note_off_c, 9, 40, 64
1, 123544, Note_off_c, 9, 42, 64
1, 123632, Control_c, 2, 64, 0
1, 123632, Control_c, 3, 64, 0
1, 123644, Note_off_c, 1, 33, 64
1, 123644, Note_on_c, 2, 50, 47
1, 123644, Note_on_c, 2, 60, 57
1, 123644, Note_on_c, 2, 53, 70
1, 123652, Note_on_c, 1, 38, 100
1, 123652, Note_on_c, 9, 47, 74
1, 123668, Note_off_c, 9, 47, 64
1, 123912, Control_c, 2, 64, 127
1, 123912, Control_c, 3, 64, 127
1, 123972, Note_off_c, 2, 50, 64
1, 123980, Note_off_c, 2, 53, 64
1, 124004, Note_off_c, 3, 74, 64
1, 124032, Note_on_c, 9, 44, 100
1, 124036, Note_off_c, 2, 60, 64
1, 124048, Note_off_c, 9, 44, 64
1, 124140, Note_off_c, 4, 74, 64
1, 124152, Note_off_c, 4, 69, 64
1, 124164, Note_off_c, 1, 38, 64
1, 124196, Note_off_c, 6, 60, 64
1, 124208, Note_off_c, 6, 53, 64
1, 124284, Note_on_c, 1, 36, 86
1, 124284, Note_on_c, 3, 75, 109
1, 124284, Note_on_c, 7, 75, 119
1, 124284, Note_on_c, 9, 40, 23
1, 124288, Note_on_c, 9, 35, 83
1, 124296, Note_on_c, 9, 42, 62
1, 124300, Note_off_c, 9, 40, 64
1, 124304, Note_off_c, 9, 35, 64
1, 124312, Note_off_c, 9, 42, 64
1, 124332, Note_off_c, 1, 36, 64
1, 124344, Note_off_c, 7, 75, 64
1, 124380, Control_c, 2, 64, 0
1, 124380, Control_c, 3, 64, 0
1, 124408, Note_off_c, 3, 75, 64
1, 124412, Note_on_c, 4, 67, 101
1, 124412, Note_on_c, 4, 72, 107
1, 124412, Note_on_c, 6, 62, 119
1, 124412, Note_on_c, 6, 56, 110
1, 124412, Note_on_c, 7, 76, 127
1, 124416, Note_on_c, 1, 34, 123
1, 124416, Note_on_c, 2, 62, 89
1, 124416, Note_on_c, 2, 67, 83
1, 124416, Note_on_c, 2, 56, 77
1, 124416, Note_on_c, 3, 76, 109
1, 124416, Note_on_c, 9, 40, 109
1, 124432, Note_off_c, 9, 40, 64
1, 124644, Note_off_c, 7, 76, 64
1, 124668, Note_on_c, 3, 79, 99
1, 124672, Note_on_c, 7, 79, 123
1, 124672, Note_on_c, 9, 43, 53
1, 124684, Note_off_c, 3, 76, 64
1, 124688, Note_off_c, 9, 43, 64
1, 124720, Note_off_c, 1, 34, 64
1, 124728, Control_c, 2, 64, 127
1, 124728, Control_c, 3, 64, 127
1, 124732, Note_off_c, 3, 79, 64
1, 124740, Note_off_c, 7, 79, 64
1, 124796, Note_on_c, 1, 46, 119
1, 124796, Note_on_c, 3, 81, 100
1, 124800, Note_on_c, 7, 81, 127
1, 124816, Note_off_c, 2, 67, 64
1, 124816, Note_on_c, 9, 44, 125
1, 124832, Note_off_c, 9, 44, 64
1, 124836, Note_off_c, 2, 56, 64
1, 124836, Note_off_c, 2, 62, 64
1, 124852, Note_off_c, 3, 81, 64
1, 124852, Note_off_c, 1, 46, 64
1, 124916, Note_off_c, 7, 81, 64
1, 124924, Note_on_c, 3, 79, 100
1, 124924, Note_on_c, 7, 79, 117
1, 124928, Note_off_c, 4, 67, 64
1, 124944, Note_off_c, 4, 72, 64
1, 124964, Note_off_c, 3, 79, 64
1, 124988, Note_off_c, 7, 79, 64
1, 125020, Note_off_c, 6, 56, 64
1, 125024, Note_off_c, 6, 62, 64
1, 125052, Note_on_c, 1, 45, 126
1, 125052, Note_on_c, 3, 82, 118
1, 125052, Note_on_c, 4, 67, 102
1, 125052, Note_on_c, 4, 70, 119
1, 125052, Note_on_c, 4, 75, 115
1, 125052, Note_on_c, 6, 55, 115
1, 125052, Note_on_c, 6, 61, 123
1, 125052, Note_on_c, 7, 82, 127
1, 125056, Note_on_c, 9, 40, 109
1, 125060, Note_on_c, 9, 42, 108
1, 125060, Note_on_c, 9, 55, 98
1, 125060, Note_on_c, 9, 35, 124
1, 125072, Note_off_c, 9, 40, 64
1, 125072, Control_c, 2, 64, 0
1, 125072, Control_c, 3, 64, 0
1, 125076, Note_off_c, 9, 35, 64
1, 125076, Note_off_c, 9, 55, 64
1, 125076, Note_off_c, 9, 42, 64
1, 125180, Note_on_c, 2, 55, 73
1, 125180, Note_on_c, 2, 61, 85
1, 125180, Note_on_c, 2, 66, 65
1, 125428, Note_on_c, 9, 50, 106
1, 125444, Note_off_c, 9, 50, 64
1, 125488, Control_c, 2, 64, 127
1, 125488, Control_c, 3, 64, 127
1, 125544, Note_off_c, 1, 45, 64
1, 125564, Note_off_c, 3, 82, 64
1, 125564, Note_on_c, 1, 33, 115
1, 125576, Note_on_c, 9, 40, 31
1, 125584, Note_off_c, 2, 61, 64
1, 125588, Note_off_c, 2, 55, 64
1, 125592, Note_off_c, 9, 40, 64
1, 125608, Note_off_c, 2, 66, 64
1, 125692, Note_on_c, 9, 40, 41
1, 125708, Note_off_c, 9, 40, 64
1, 125816, Note_on_c, 9, 47, 101
1, 125832, Note_off_c, 9, 47, 64
1, 125896, Note_off_c, 4, 70, 64
1, 125896, Note_off_c, 4, 67, 64
1, 125900, Note_off_c, 4, 75, 64
1, 125904, Note_off_c, 1, 33, 64
1, 125912, Note_off_c, 6, 61, 64
1, 125920, Note_off_c, 7, 82, 64
1, 125920, Note_off_c, 6, 55, 64
1, 125952, Note_on_c, 1, 32, 101
1, 125952, Note_on_c, 2, 60, 71
1, 125952, Control_c, 2, 64, 0
1, 125952, Note_on_c, 2, 54, 63
1, 125952, Note_on_c, 2, 65, 76
1, 125952, Control_c, 3, 64, 0
1, 125952, Note_on_c, 9, 35, 86
1, 125968, Note_off_c, 9, 35, 64
1, 126056, Note_off_c, 1, 32, 64
1, 126196, Note_on_c, 9, 46, 77
1, 126204, Note_on_c, 3, 81, 121
1, 126204, Note_on_c, 3, 69, 114
1, 126204, Note_on_c, 5, 60, 91
1, 126204, Note_on_c, 5, 54, 88
1, 126208, Note_on_c, 5, 65, 98
1, 126208, Note_on_c, 5, 69, 102
1, 126212, Note_off_c, 9, 46, 64
1, 126288, Control_c, 2, 64, 127
1, 126288, Control_c, 3, 64, 127
1, 126500, Note_off_c, 3, 81, 64
1, 126512, Note_off_c, 2, 65, 64
1, 126512, Note_off_c, 2, 54, 64
1, 126512, Note_off_c, 2, 60, 64
1, 126580, Note_on_c, 9, 42, 93
1, 126596, Note_off_c, 9, 42, 64
1, 126596, Note_on_c, 1, 44, 66
1, 126600, Note_off_c, 5, 65, 64
1, 126608, Note_off_c, 5, 54, 64
1, 126612, Note_off_c, 5, 69, 64
1, 126628, Note_off_c, 5, 60, 64
1, 126632, Note_off_c, 1, 44, 64
1, 126680, Note_off_c, 3, 69, 64
1, 126704, Control_c, 2, 64, 0
1, 126704, Control_c, 3, 64, 0
1, 126716, Note_on_c, 2, 62, 78
1, 126716, Note_on_c, 2, 56, 52
1, 126716, Note_on_c, 2, 67, 71
1, 126716, Note_on_c, 3, 76, 85
1, 126720, Note_on_c, 9, 42, 75
1, 126724, Note_on_c, 1, 46, 101
1, 126724, Note_on_c, 5, 62, 58
1, 126724, Note_on_c, 5, 56, 73
1, 126724, Note_on_c, 5, 64, 80
1, 126724, Note_on_c, 5, 67, 84
1, 126736, Note_off_c, 9, 42, 64
1, 126756, Note_off_c, 2, 62, 64
1, 126760, Note_off_c, 2, 56, 64
1, 126768, Note_off_c, 3, 76, 64
1, 126780, Note_off_c, 2, 67, 64
1, 126828, Note_off_c, 5, 64, 64
1, 126836, Note_off_c, 5, 56, 64
1, 126840, Note_off_c, 5, 62, 64
1, 126844, Note_off_c, 5, 67, 64
1, 126880, Note_off_c, 1, 46, 64
1, 127100, Note_on_c, 2, 67, 55
1, 127100, Note_on_c, 2, 62, 67
1, 127100, Note_on_c, 2, 56, 53
1, 127100, Note_on_c, 3, 74, 87
1, 127104, Note_on_c, 1, 46, 104
1, 127104, Note_on_c, 5, 65, 71
1, 127104, Note_on_c, 9, 42, 79
1, 127108, Note_on_c, 5, 62, 53
1, 127108, Note_on_c, 5, 56, 73
1, 127120, Note_off_c, 9, 42, 64
1, 127164, Note_off_c, 2, 62, 64
1, 127168, Note_off_c, 3, 74, 64
1, 127168, Note_off_c, 2, 67, 64
1, 127184, Note_off_c, 2, 56, 64
1, 127224, Note_off_c, 5, 56, 64
1, 127240, Note_off_c, 5, 65, 64
1, 127272, Note_off_c, 5, 62, 64
1, 127312, Note_off_c, 1, 46, 64
1, 127368, Note_on_c, 9, 42, 67
1, 127384, Note_off_c, 9, 42, 64
1, 127484, Note_on_c, 5, 55, 59
1, 127484, Note_on_c, 5, 66, 92
1, 127488, Note_on_c, 2, 61, 69
1, 127488, Note_on_c, 2, 55, 70
1, 127488, Note_on_c, 2, 66, 53
1, 127488, Note_on_c, 3, 72, 90
1, 127488, Note_on_c, 5, 61, 76
1, 127488, Note_on_c, 9, 46, 75
1, 127492, Note_on_c, 1, 45, 106
1, 127504, Note_off_c, 9, 46, 64
1, 127540, Note_off_c, 2, 66, 64
1, 127544, Note_off_c, 2, 61, 64
1, 127552, Note_off_c, 3, 72, 64
1, 127556, Note_off_c, 2, 55, 64
1, 127608, Note_off_c, 5, 61, 64
1, 127608, Note_off_c, 5, 55, 64
1, 127612, Note_off_c, 5, 66, 64
1, 127656, Note_off_c, 1, 45, 64
1, 127868, Note_on_c, 2, 66, 50
1, 127868, Note_on_c, 2, 55, 51
1, 127868, Note_on_c, 2, 61, 65
1, 127868, Note_on_c, 3, 69, 83
1, 127872, Note_on_c, 5, 61, 73
1, 127876, Note_on_c, 1, 45, 102
1, 127876, Note_on_c, 5, 69, 83
1, 127876, Note_on_c, 5, 55, 58
1, 127876, Note_on_c, 5, 66, 84
1, 127876, Note_on_c, 9, 42, 79
1, 127892, Note_off_c, 9, 42, 64
1, 127928, Note_off_c, 2, 61, 64
1, 127928, Note_off_c, 2, 55, 64
1, 127936, Note_off_c, 2, 66, 64
1, 127948, Note_off_c, 3, 69, 64
1, 127980, Note_off_c, 5, 55, 64
1, 127980, Note_off_c, 5, 61, 64
1, 127984, Note_off_c, 5, 66, 64
1, 127992, Note_off_c, 5, 69, 64
1, 128048, Note_off_c, 1, 45, 64
1, 128136, Note_on_c, 9, 42, 71
1, 128152, Note_off_c, 9, 42, 64
1, 128252, Note_on_c, 2, 54, 52
1, 128252, Note_on_c, 2, 60, 72
1, 128252, Note_on_c, 2, 65, 44
1, 128252, Note_on_c, 3, 72, 89
1, 128252, Note_on_c, 5, 54, 81
1, 128252, Note_on_c, 5, 70, 88
1, 128252, Note_on_c, 5, 60, 66
1, 128256, Note_on_c, 1, 44, 110
1, 128256, Note_on_c, 9, 46, 69
1, 128260, Note_on_c, 5, 65, 95
1, 128272, Note_off_c, 9, 46, 64
1, 128296, Note_off_c, 2, 60, 64
1, 128300, Note_off_c, 2, 65, 64
1, 128312, Note_off_c, 2, 54, 64
1, 128316, Note_off_c, 3, 72, 64
1, 128444, Note_off_c, 1, 44, 64
1, 128452, Note_off_c, 5, 70, 64
1, 128460, Note_off_c, 5, 54, 64
1, 128468, Note_off_c, 5, 60, 64
1, 128480, Control_c, 2, 64, 127
1, 128480, Control_c, 3, 64, 127
1, 128484, Note_off_c, 5, 65, 64
1, 128508, Note_on_c, 1, 43, 98
1, 128508, Note_on_c, 2, 53, 65
1, 128508, Note_on_c, 2, 59, 75
1, 128508, Note_on_c, 2, 64, 57
1, 128508, Note_on_c, 3, 74, 94
1, 128508, Note_on_c, 5, 53, 70
1, 128512, Note_on_c, 5, 69, 92
1, 128512, Note_on_c, 5, 59, 96
1, 128516, Note_on_c, 5, 64, 96
1, 128520, Note_on_c, 9, 35, 71
1, 128528, Control_c, 2, 64, 0
1, 128528, Control_c, 3, 64, 0
1, 128536, Note_off_c, 9, 35, 64
1, 128568, Note_off_c, 2, 59, 64
1, 128572, Note_off_c, 2, 53, 64
1, 128576, Note_off_c, 3, 74, 64
1, 128576, Note_off_c, 2, 64, 64
1, 128596, Note_off_c, 5, 69, 64
1, 128600, Note_off_c, 5, 59, 64
1, 128608, Note_off_c, 5, 64, 64
1, 128608, Note_off_c, 5, 53, 64
1, 128640, Note_on_c, 9, 40, 59
1, 128640, Note_on_c, 9, 42, 84
1, 128656, Note_off_c, 9, 42, 64
1, 128656, Note_off_c, 9, 40, 64
1, 128708, Note_off_c, 1, 43, 64
1, 128768, Note_on_c, 9, 50, 48
1, 128784, Note_off_c, 9, 50, 64
1, 128892, Note_on_c, 1, 36, 100
1, 128892, Note_on_c, 2, 52, 54
1, 128892, Note_on_c, 2, 57, 66
1, 128892, Note_on_c, 2, 62, 68
1, 128892, Note_on_c, 3, 76, 94
1, 128892, Note_on_c, 5, 57, 68
1, 128892, Note_on_c, 5, 62, 78
1, 128892, Note_on_c, 5, 67, 93
1, 128892, Note_on_c, 5, 52, 66
1, 128896, Note_on_c, 9, 51, 88
1, 128904, Note_on_c, 9, 35, 94
1, 128912, Note_off_c, 9, 51, 64
1, 128920, Note_off_c, 9, 35, 64
1, 129360, Note_off_c, 1, 36, 64
1, 129360, Control_c, 2, 64, 127
1, 129360, Control_c, 3, 64, 127
1, 129412, Note_on_c, 9, 42, 71
1, 129428, Note_off_c, 9, 42, 64
1, 129444, Note_off_c, 2, 52, 64
1, 129468, Note_off_c, 2, 57, 64
1, 129472, Note_off_c, 2, 62, 64
1, 129652, Note_off_c, 5, 62, 64
1, 129660, Note_off_c, 5, 67, 64
1, 129660, Note_off_c, 5, 57, 64
1, 129664, Note_on_c, 1, 36, 65
1, 129672, Note_on_c, 9, 42, 63
1, 129676, Note_off_c, 5, 52, 64
1, 129688, Note_off_c, 9, 42, 64
1, 129748, Note_off_c, 1, 36, 64
1, 129784, Control_c, 2, 64, 0
1, 129784, Control_c, 3, 64, 0
1, 129788, Note_on_c, 1, 31, 83
1, 129788, Note_on_c, 2, 57, 49
1, 129788, Note_on_c, 2, 62, 54
1, 129788, Note_on_c, 2, 52, 42
1, 129788, Note_on_c, 5, 52, 76
1, 129792, Note_on_c, 9, 46, 70
1, 129796, Note_on_c, 5, 57, 77
1, 129796, Note_on_c, 5, 67, 93
1, 129796, Note_on_c, 5, 62, 98
1, 129808, Note_off_c, 9, 46, 64
1, 129972, Note_off_c, 5, 57, 64
1, 129980, Note_off_c, 5, 52, 64
1, 129988, Note_off_c, 5, 67, 64
1, 129992, Note_off_c, 5, 62, 64
1, 130044, Note_on_c, 5, 57, 95
1, 130044, Note_on_c, 5, 52, 101
1, 130044, Note_on_c, 5, 67, 106
1, 130044, Note_on_c, 5, 62, 93
1, 130084, Note_off_c, 5, 62, 64
1, 130092, Note_off_c, 5, 52, 64
1, 130096, Note_off_c, 5, 67, 64
1, 130096, Note_off_c, 5, 57, 64
1, 130112, Control_c, 2, 64, 127
1, 130112, Control_c, 3, 64, 127
1, 130144, Note_off_c, 1, 31, 64
1, 130176, Note_off_c, 2, 52, 64
1, 130180, Note_on_c, 1, 38, 78
1, 130180, Note_on_c, 9, 42, 85
1, 130184, Note_off_c, 2, 62, 64
1, 130184, Note_off_c, 2, 57, 64
1, 130196, Note_off_c, 9, 42, 64
1, 130244, Note_off_c, 3, 76, 64
1, 130364, Note_off_c, 1, 38, 64
1, 130428, Note_on_c, 1, 39, 80
1, 130440, Note_on_c, 9, 35, 39
1, 130440, Note_on_c, 9, 42, 56
1, 130456, Note_off_c, 9, 42, 64
1, 130456, Note_off_c, 9, 35, 64
1, 130548, Note_off_c, 1, 39, 64
1, 130560, Note_on_c, 1, 40, 97
1, 130560, Note_on_c, 2, 62, 57
1, 130560, Note_on_c, 2, 56, 35
1, 130560, Note_on_c, 2, 52, 49
1, 130560, Note_on_c, 3, 76, 84
1, 130560, Note_on_c, 9, 35, 65
1, 130560, Note_on_c, 9, 46, 61
1, 130564, Control_c, 2, 64, 0
1, 130564, Control_c, 3, 64, 0
1, 130576, Note_off_c, 9, 46, 64
1, 130576, Note_off_c, 9, 35, 64
1, 130752, Pitch_bend_c, 6, 7808
1, 130764, Pitch_bend_c, 6, 7104
1, 130772, Pitch_bend_c, 6, 6592
1, 130776, Pitch_bend_c, 6, 6080
1, 130788, Pitch_bend_c, 6, 5120
1, 130796, Pitch_bend_c, 6, 4544
1, 130812, Note_on_c, 6, 52, 102
1, 130812, Note_on_c, 6, 56, 93
1, 130812, Note_on_c, 6, 62, 101
1, 130836, Pitch_bend_c, 6, 3712
1, 130844, Pitch_bend_c, 6, 3776
1, 130848, Pitch_bend_c, 6, 3904
1, 130860, Pitch_bend_c, 6, 4224
1, 130864, Pitch_bend_c, 6, 4352
1, 130872, Pitch_bend_c, 6, 4416
1, 130876, Control_c, 2, 64, 127
1, 130876, Control_c, 3, 64, 127
1, 130884, Pitch_bend_c, 6, 4928
1, 130888, Pitch_bend_c, 6, 5184
1, 130896, Pitch_bend_c, 6, 5248
1, 130900, Note_off_c, 1, 40, 64
1, 130908, Pitch_bend_c, 6, 5696
1, 130912, Pitch_bend_c, 6, 5824
1, 130920, Pitch_bend_c, 6, 5952
1, 130928, Note_off_c, 2, 52, 64
1, 130932, Pitch_bend_c, 6, 6208
1, 130936, Pitch_bend_c, 6, 6528
1, 130940, Note_off_c, 2, 62, 64
1, 130940, Pitch_bend_c, 6, 6592
1, 130948, Note_on_c, 9, 42, 80
1, 130956, Pitch_bend_c, 6, 6720
1, 130960, Pitch_bend_c, 6, 6784
1, 130964, Note_off_c, 9, 42, 64
1, 130964, Pitch_bend_c, 6, 6848
1, 130972, Note_off_c, 2, 56, 64
1, 130980, Pitch_bend_c, 6, 6976
1, 130984, Pitch_bend_c, 6, 7040
1, 131000, Pitch_bend_c, 6, 7168
1, 131008, Pitch_bend_c, 6, 7296
1, 131012, Pitch_bend_c, 6, 7424
1, 131024, Pitch_bend_c, 6, 7616
1, 131032, Pitch_bend_c, 6, 7808
1, 131036, Pitch_bend_c, 6, 7872
1, 131052, Pitch_bend_c, 6, 8192
1, 131060, Note_off_c, 3, 76, 64
1, 131200, Note_on_c, 1, 35, 59
1, 131208, Note_on_c, 9, 42, 57
1, 131224, Note_off_c, 9, 42, 64
1, 131248, Note_off_c, 6, 56, 64
1, 131276, Note_off_c, 6, 52, 64
1, 131280, Note_off_c, 1, 35, 64
1, 131280, Note_off_c, 6, 62, 64
1, 131320, Control_c, 2, 64, 0
1, 131320, Control_c, 3, 64, 0
1, 131324, Note_on_c, 2, 51, 59
1, 131324, Note_on_c, 2, 61, 57
1, 131328, Note_on_c, 1, 39, 80
1, 131328, Note_on_c, 6, 61, 84
1, 131328, Note_on_c, 9, 46, 61
1, 131332, Note_on_c, 2, 55, 73
1, 131332, Note_on_c, 6, 51, 90
1, 131332, Note_on_c, 6, 55, 86
1, 131344, Note_off_c, 9, 46, 64
1, 131456, Note_off_c, 6, 51, 64
1, 131468, Note_off_c, 6, 55, 64
1, 131468, Note_off_c, 6, 61, 64
1, 131572, Note_on_c, 9, 40, 73
1, 131580, Note_on_c, 3, 71, 101
1, 131588, Note_off_c, 9, 40, 64
1, 131600, Control_c, 2, 64, 127
1, 131600, Control_c, 3, 64, 127
1, 131640, Note_off_c, 3, 71, 64
1, 131644, Note_off_c, 2, 55, 64
1, 131680, Note_off_c, 2, 51, 64
1, 131696, Note_off_c, 1, 39, 64
1, 131712, Note_on_c, 1, 34, 81
1, 131712, Note_on_c, 6, 51, 99
1, 131712, Note_on_c, 9, 42, 79
1, 131716, Note_on_c, 3, 70, 103
1, 131716, Note_on_c, 6, 55, 69
1, 131716, Note_on_c, 6, 61, 101
1, 131728, Note_off_c, 9, 42, 64
1, 131740, Note_off_c, 2, 61, 64
1, 131780, Note_off_c, 3, 70, 64
1, 131836, Note_off_c, 6, 51, 64
1, 131840, Note_on_c, 9, 47, 28
1, 131856, Note_off_c, 9, 47, 64
1, 131868, Note_off_c, 6, 61, 64
1, 131868, Note_off_c, 6, 55, 64
1, 131964, Note_on_c, 3, 69, 86
1, 131964, Note_on_c, 9, 47, 75
1, 131976, Note_on_c, 9, 42, 61
1, 131980, Note_off_c, 9, 47, 64
1, 131992, Note_off_c, 9, 42, 64
1, 132068, Note_off_c, 1, 34, 64
1, 132092, Note_on_c, 6, 55, 100
1, 132092, Note_on_c, 6, 50, 86
1, 132092, Note_on_c, 6, 60, 102
1, 132096, Note_on_c, 1, 38, 91
1, 132096, Note_on_c, 2, 50, 67
1, 132096, Note_on_c, 2, 55, 66
1, 132096, Note_on_c, 2, 60, 69
1, 132096, Note_on_c, 9, 35, 72
1, 132104, Control_c, 2, 64, 0
1, 132104, Control_c, 3, 64, 0
1, 132112, Note_off_c, 9, 35, 64
1, 132128, Note_off_c, 3, 69, 64
1, 132208, Note_off_c, 6, 55, 64
1, 132236, Note_off_c, 6, 60, 64
1, 132248, Note_off_c, 6, 50, 64
1, 132348, Note_on_c, 3, 69, 105
1, 132348, Note_on_c, 3, 81, 111
1, 132348, Note_on_c, 9, 55, 105
1, 132352, Note_on_c, 5, 64, 83
1, 132356, Note_on_c, 5, 69, 84
1, 132356, Note_on_c, 5, 60, 82
1, 132356, Note_on_c, 5, 55, 95
1, 132364, Note_off_c, 9, 55, 64
1, 132368, Note_off_c, 1, 38, 64
1, 132392, Control_c, 2, 64, 127
1, 132392, Control_c, 3, 64, 127
1, 132480, Note_on_c, 9, 42, 80
1, 132496, Note_off_c, 9, 42, 64
1, 132636, Note_off_c, 3, 81, 64
1, 132652, Note_off_c, 2, 55, 64
1, 132656, Note_off_c, 2, 60, 64
1, 132660, Note_off_c, 2, 50, 64
1, 132700, Note_off_c, 5, 64, 64
1, 132736, Note_on_c, 1, 38, 55
1, 132740, Note_off_c, 5, 55, 64
1, 132744, Note_on_c, 9, 42, 62
1, 132760, Note_off_c, 9, 42, 64
1, 132764, Note_off_c, 5, 69, 64
1, 132780, Note_off_c, 5, 60, 64
1, 132824, Note_off_c, 1, 38, 64
1, 132860, Note_on_c, 5, 54, 70
1, 132860, Note_on_c, 5, 57, 52
1, 132864, Note_on_c, 1, 50, 101
1, 132864, Note_on_c, 3, 76, 78
1, 132868, Note_on_c, 2, 54, 62
1, 132868, Note_on_c, 2, 50, 49
1, 132868, Note_on_c, 2, 60, 73
1, 132868, Note_on_c, 5, 64, 85
1, 132868, Note_on_c, 5, 72, 91
1, 132868, Note_on_c, 9, 46, 69
1, 132872, Control_c, 2, 64, 0
1, 132872, Control_c, 3, 64, 0
1, 132884, Note_off_c, 9, 46, 64
1, 132908, Note_off_c, 2, 50, 64
1, 132908, Note_off_c, 2, 54, 64
1, 132908, Note_off_c, 3, 69, 64
1, 132928, Note_off_c, 2, 60, 64
1, 132948, Note_off_c, 3, 76, 64
1, 132984, Note_off_c, 5, 54, 64
1, 132996, Note_off_c, 5, 72, 64
1, 132996, Note_off_c, 5, 64, 64
1, 133012, Note_off_c, 5, 57, 64
1, 133020, Note_off_c, 1, 50, 64
1, 133244, Note_on_c, 2, 50, 59
1, 133244, Note_on_c, 2, 60, 57
1, 133244, Note_on_c, 2, 54, 57
1, 133244, Note_on_c, 3, 74, 84
1, 133244, Note_on_c, 5, 54, 81
1, 133248, Note_on_c, 1, 48, 93
1, 133248, Note_on_c, 5, 60, 73
1, 133248, Note_on_c, 9, 42, 89
1, 133252, Note_on_c, 5, 74, 96
1, 133252, Note_on_c, 5, 64, 83
1, 133264, Note_off_c, 9, 42, 64
1, 133304, Note_off_c, 2, 50, 64
1, 133308, Note_off_c, 2, 54, 64
1, 133336, Note_off_c, 2, 60, 64
1, 133340, Note_off_c, 3, 74, 64
1, 133392, Note_off_c, 5, 64, 64
1, 133400, Note_off_c, 5, 74, 64
1, 133400, Note_off_c, 1, 48, 64
1, 133408, Note_off_c, 5, 54, 64
1, 133432, Note_off_c, 5, 60, 64
1, 133512, Note_on_c, 9, 42, 63
1, 133528, Note_off_c, 9, 42, 64
1, 133632, Note_on_c, 2, 53, 49
1, 133632, Note_on_c, 2, 57, 55
1, 133632, Note_on_c, 2, 64, 43
1, 133632, Note_on_c, 3, 72, 87
1, 133632, Note_on_c, 9, 46, 62
1, 133636, Note_on_c, 1, 41, 102
1, 133636, Note_on_c, 5, 57, 78
1, 133636, Note_on_c, 5, 64, 83
1, 133636, Note_on_c, 5, 72, 95
1, 133636, Note_on_c, 5, 53, 86
1, 133648, Note_off_c, 9, 46, 64
1, 133696, Note_off_c, 2, 53, 64
1, 133704, Note_off_c, 2, 57, 64
1, 133708, Note_off_c, 3, 72, 64
1, 133712, Note_off_c, 2, 64, 64
1, 133752, Note_off_c, 5, 64, 64
1, 133768, Note_off_c, 5, 53, 64
1, 133768, Note_off_c, 5, 72, 64
1, 133792, Note_off_c, 5, 57, 64
1, 133880, Note_off_c, 1, 41, 64
1, 134012, Note_on_c, 2, 57, 59
1, 134012, Note_on_c, 2, 53, 38
1, 134012, Note_on_c, 2, 64, 50
1, 134012, Note_on_c, 3, 69, 82
1, 134016, Note_on_c, 9, 42, 89
1, 134020, Note_on_c, 5, 60, 85
1, 134020, Note_on_c, 5, 69, 96
1, 134020, Note_on_c, 5, 64, 74
1, 134020, Note_on_c, 5, 53, 84
1, 134032, Note_off_c, 9, 42, 64
1, 134096, Note_off_c, 2, 64, 64
1, 134096, Note_off_c, 2, 53, 64
1, 134112, Note_off_c, 2, 57, 64
1, 134124, Note_off_c, 3, 69, 64
1, 134140, Note_off_c, 5, 64, 64
1, 134148, Note_off_c, 5, 53, 64
1, 134148, Note_off_c, 5, 69, 64
1, 134152, Note_off_c, 5, 60, 64
1, 134272, Note_on_c, 1, 39, 82
1, 134280, Note_on_c, 9, 42, 61
1, 134296, Note_off_c, 9, 42, 64
1, 134368, Note_off_c, 1, 39, 64
1, 134396, Note_on_c, 2, 52, 69
1, 134396, Note_on_c, 2, 55, 61
1, 134396, Note_on_c, 2, 62, 55
1, 134396, Note_on_c, 3, 72, 87
1, 134396, Note_on_c, 5, 52, 82
1, 134396, Note_on_c, 5, 72, 63
1, 134400, Note_on_c, 1, 40, 97
1, 134400, Note_on_c, 5, 67, 69
1, 134400, Note_on_c, 9, 46, 71
1, 134404, Note_on_c, 5, 62, 67
1, 134416, Note_off_c, 9, 46, 64
1, 134444, Note_off_c, 2, 52, 64
1, 134452, Note_off_c, 2, 62, 64
1, 134452, Note_off_c, 2, 55, 64
1, 134504, Note_off_c, 3, 72, 64
1, 134548, Note_off_c, 5, 62, 64
1, 134556, Note_off_c, 5, 52, 64
1, 134560, Note_off_c, 5, 67, 64
1, 134572, Note_off_c, 5, 72, 64
1, 134580, Note_off_c, 1, 40, 64
1, 134652, Note_on_c, 2, 50, 59
1, 134652, Note_on_c, 2, 53, 35
1, 134652, Note_on_c, 2, 60, 67
1, 134652, Note_on_c, 3, 74, 90
1, 134652, Note_on_c, 5, 65, 88
1, 134652, Note_on_c, 5, 50, 88
1, 134652, Note_on_c, 5, 74, 90
1, 134656, Note_on_c, 1, 38, 83
1, 134656, Note_on_c, 5, 60, 88
1, 134660, Note_on_c, 9, 35, 86
1, 134676, Note_off_c, 9, 35, 64
1, 134724, Note_off_c, 2, 53, 64
1, 134732, Note_off_c, 2, 50, 64
1, 134740, Note_off_c, 5, 50, 64
1, 134748, Note_off_c, 5, 65, 64
1, 134748, Note_off_c, 2, 60, 64
1, 134752, Note_off_c, 3, 74, 64
1, 134760, Note_off_c, 5, 74, 64
1, 134784, Note_on_c, 9, 42, 62
1, 134788, Note_off_c, 5, 60, 64
1, 134800, Note_off_c, 9, 42, 64
1, 134804, Note_off_c, 1, 38, 64
1, 135036, Note_on_c, 2, 52, 69
1, 135036, Note_on_c, 2, 48, 77
1, 135036, Note_on_c, 2, 59, 73
1, 135036, Note_on_c, 3, 76, 98
1, 135036, Note_on_c, 5, 48, 95
1, 135036, Note_on_c, 5, 67, 85
1, 135036, Note_on_c, 5, 76, 100
1, 135036, Note_on_c, 5, 59, 91
1, 135040, Note_on_c, 1, 36, 107
1, 135044, Note_on_c, 9, 35, 85
1, 135044, Note_on_c, 9, 46, 70
1, 135060, Note_off_c, 9, 46, 64
1, 135060, Note_off_c, 9, 35, 64
1, 135516, Control_c, 2, 64, 127
1, 135516, Control_c, 3, 64, 127
1, 135524, Note_off_c, 1, 36, 64
1, 135552, Note_on_c, 9, 42, 72
1, 135568, Note_off_c, 9, 42, 64
1, 135644, Note_off_c, 2, 48, 64
1, 135648, Note_off_c, 2, 52, 64
1, 135664, Note_off_c, 2, 59, 64
1, 135808, Note_on_c, 1, 36, 70
1, 135816, Note_on_c, 9, 42, 55
1, 135832, Note_off_c, 9, 42, 64
1, 135884, Note_off_c, 5, 67, 64
1, 135888, Note_off_c, 5, 59, 64
1, 135892, Note_off_c, 5, 48, 64
1, 135900, Note_off_c, 5, 76, 64
1, 135904, Note_off_c, 1, 36, 64
1, 135920, Control_c, 2, 64, 0
1, 135920, Control_c, 3, 64, 0
1, 135932, Note_on_c, 2, 48, 63
1, 135932, Note_on_c, 2, 52, 57
1, 135932, Note_on_c, 2, 59, 36
1, 135936, Note_on_c, 1, 31, 100
1, 135936, Note_on_c, 5, 76, 98
1, 135936, Note_on_c, 9, 46, 75
1, 135940, Note_on_c, 5, 67, 88
1, 135940, Note_on_c, 5, 48, 84
1, 135940, Note_on_c, 5, 59, 70
1, 135952, Note_off_c, 9, 46, 64
1, 136116, Note_off_c, 5, 59, 64
1, 136128, Note_off_c, 5, 48, 64
1, 136140, Note_off_c, 5, 67, 64
1, 136144, Note_off_c, 5, 76, 64
1, 136188, Note_on_c, 3, 72, 93
1, 136188, Note_on_c, 5, 59, 86
1, 136188, Note_on_c, 5, 76, 96
1, 136188, Note_on_c, 5, 48, 84
1, 136188, Note_on_c, 5, 67, 97
1, 136188, Note_on_c, 6, 60, 97
1, 136188, Note_on_c, 7, 60, 73
1, 136216, Control_c, 2, 64, 127
1, 136216, Control_c, 3, 64, 127
1, 136236, Note_off_c, 5, 67, 64
1, 136236, Note_off_c, 5, 59, 64
1, 136240, Note_off_c, 5, 48, 64
1, 136240, Note_off_c, 5, 76, 64
1, 136264, Note_off_c, 2, 48, 64
1, 136272, Note_off_c, 2, 52, 64
1, 136296, Note_off_c, 7, 60, 64
1, 136296, Note_off_c, 6, 60, 64
1, 136312, Note_off_c, 3, 72, 64
1, 136312, Note_off_c, 2, 59, 64
1, 136316, Note_on_c, 3, 71, 89
1, 136316, Note_on_c, 6, 59, 89
1, 136316, Note_on_c, 7, 59, 75
1, 136320, Note_on_c, 9, 42, 79
1, 136336, Note_off_c, 9, 42, 64
1, 136384, Note_off_c, 1, 31, 64
1, 136528, Note_off_c, 6, 59, 64
1, 136532, Note_off_c, 3, 71, 64
1, 136544, Note_off_c, 7, 59, 64
1, 136572, Note_on_c, 1, 36, 64
1, 136572, Note_on_c, 3, 70, 66
1, 136572, Note_on_c, 6, 58, 90
1, 136572, Note_on_c, 7, 58, 68
1, 136584, Note_on_c, 9, 42, 63
1, 136600, Note_off_c, 9, 42, 64
1, 136648, Control_c, 2, 64, 0
1, 136648, Control_c, 3, 64, 0
1, 136656, Note_off_c, 1, 36, 64
1, 136704, Note_on_c, 1, 30, 96
1, 136704, Note_on_c, 2, 64, 46
1, 136704, Note_on_c, 2, 54, 32
1, 136704, Note_on_c, 2, 58, 50
1, 136704, Note_on_c, 9, 46, 70
1, 136720, Note_off_c, 9, 46, 64
1, 137000, Control_c, 2, 64, 127
1, 137000, Control_c, 3, 64, 127
1, 137064, Note_off_c, 2, 58, 64
1, 137068, Note_off_c, 2, 54, 64
1, 137084, Note_off_c, 2, 64, 64
1, 137088, Note_on_c, 9, 42, 81
1, 137104, Note_off_c, 9, 42, 64
1, 137120, Note_off_c, 1, 30, 64
1, 137340, Note_on_c, 1, 30, 77
1, 137348, Note_on_c, 9, 42, 55
1, 137352, Note_off_c, 3, 70, 64
1, 137364, Note_off_c, 9, 42, 64
1, 137424, Note_off_c, 1, 30, 64
1, 137456, Control_c, 2, 64, 0
1, 137456, Control_c, 3, 64, 0
1, 137468, Note_on_c, 1, 42, 119
1, 137468, Note_on_c, 2, 64, 52
1, 137468, Note_on_c, 2, 58, 49
1, 137468, Note_on_c, 2, 54, 50
1, 137472, Note_on_c, 9, 46, 70
1, 137488, Note_off_c, 9, 46, 64
1, 137524, Note_off_c, 3, 76, 64
1, 137728, Note_on_c, 9, 40, 28
1, 137744, Note_off_c, 9, 40, 64
1, 137808, Control_c, 2, 64, 127
1, 137808, Control_c, 3, 64, 127
1, 137832, Note_off_c, 1, 42, 64
1, 137852, Note_on_c, 1, 40, 100
1, 137852, Note_on_c, 3, 72, 98
1, 137852, Note_on_c, 9, 44, 75
1, 137856, Note_on_c, 9, 40, 91
1, 137868, Note_off_c, 9, 44, 64
1, 137872, Note_off_c, 9, 40, 64
1, 137892, Note_off_c, 2, 58, 64
1, 137904, Note_off_c, 2, 54, 64
1, 137924, Note_off_c, 2, 64, 64
1, 137932, Note_off_c, 3, 72, 64
1, 138100, Note_off_c, 7, 58, 64
1, 138108, Note_on_c, 3, 73, 101
1, 138120, Note_on_c, 9, 42, 60
1, 138136, Note_off_c, 9, 42, 64
1, 138180, Note_off_c, 3, 73, 64
1, 138208, Control_c, 2, 64, 0
1, 138208, Control_c, 3, 64, 0
1, 138220, Note_off_c, 1, 40, 64
1, 138224, Note_off_c, 6, 58, 64
1, 138236, Note_on_c, 6, 57, 83
1, 138236, Note_on_c, 7, 57, 72
1, 138240, Note_on_c, 1, 41, 96
1, 138240, Note_on_c, 2, 57, 62
1, 138240, Note_on_c, 2, 64, 55
1, 138240, Note_on_c, 2, 53, 52
1, 138240, Note_on_c, 3, 74, 100
1, 138240, Note_on_c, 9, 46, 74
1, 138240, Note_on_c, 9, 35, 76
1, 138256, Note_off_c, 9, 35, 64
1, 138256, Note_off_c, 9, 46, 64
1, 138368, Control_c, 2, 64, 127
1, 138368, Control_c, 3, 64, 127
1, 138460, Note_off_c, 1, 41, 64
1, 138496, Note_off_c, 3, 74, 64
1, 138604, Note_off_c, 2, 53, 64
1, 138608, Note_off_c, 2, 64, 64
1, 138620, Note_on_c, 3, 74, 101
1, 138624, Note_on_c, 9, 42, 77
1, 138640, Note_off_c, 9, 42, 64
1, 138640, Note_off_c, 2, 57, 64
1, 138692, Note_off_c, 3, 74, 64
1, 138876, Note_on_c, 1, 36, 88
1, 138876, Note_on_c, 3, 73, 90
1, 138888, Note_on_c, 9, 42, 62
1, 138904, Note_off_c, 9, 42, 64
1, 138948, Note_off_c, 3, 73, 64
1, 138948, Control_c, 2, 64, 0
1, 138948, Control_c, 3, 64, 0
1, 138960, Note_off_c, 1, 36, 64
1, 138996, Note_off_c, 7, 57, 64
1, 139004, Note_on_c, 1, 29, 96
1, 139004, Note_on_c, 2, 56, 56
1, 139004, Note_on_c, 2, 53, 48
1, 139004, Note_on_c, 2, 63, 54
1, 139004, Note_on_c, 3, 74, 87
1, 139004, Note_on_c, 6, 56, 81
1, 139004, Note_on_c, 7, 56, 79
1, 139008, Note_on_c, 9, 46, 64
1, 139020, Note_off_c, 6, 57, 64
1, 139024, Note_off_c, 9, 46, 64
1, 139248, Note_off_c, 3, 74, 64
1, 139260, Note_on_c, 3, 75, 86
1, 139312, Control_c, 2, 64, 127
1, 139312, Control_c, 3, 64, 127
1, 139348, Note_off_c, 3, 75, 64
1, 139368, Note_off_c, 2, 53, 64
1, 139372, Note_off_c, 2, 56, 64
1, 139388, Note_on_c, 3, 74, 98
1, 139392, Note_on_c, 9, 42, 82
1, 139404, Note_off_c, 2, 63, 64
1, 139408, Note_off_c, 9, 42, 64
1, 139452, Note_off_c, 3, 74, 64
1, 139596, Note_off_c, 1, 29, 64
1, 139644, Note_on_c, 1, 36, 78
1, 139644, Note_on_c, 3, 72, 92
1, 139656, Note_on_c, 9, 42, 60
1, 139672, Note_off_c, 9, 42, 64
1, 139704, Control_c, 2, 64, 0
1, 139704, Control_c, 3, 64, 0
1, 139724, Note_off_c, 1, 36, 64
1, 139740, Note_off_c, 6, 56, 64
1, 139772, Note_on_c, 6, 55, 86
1, 139772, Note_on_c, 7, 55, 76
1, 139776, Note_on_c, 1, 40, 98
1, 139776, Note_on_c, 2, 62, 57
1, 139776, Note_on_c, 2, 52, 36
1, 139776, Note_on_c, 2, 55, 54
1, 139776, Note_on_c, 9, 46, 65
1, 139780, Note_off_c, 7, 56, 64
1, 139792, Note_off_c, 9, 46, 64
1, 140004, Note_off_c, 3, 72, 64
1, 140028, Note_on_c, 3, 67, 74
1, 140124, Control_c, 2, 64, 127
1, 140124, Control_c, 3, 64, 127
1, 140160, Note_on_c, 9, 42, 65
1, 140176, Note_off_c, 9, 42, 64
1, 140200, Note_off_c, 2, 52, 64
1, 140204, Note_off_c, 2, 55, 64
1, 140252, Note_off_c, 2, 62, 64
1, 140296, Note_off_c, 1, 40, 64
1, 140412, Note_on_c, 1, 38, 72
1, 140424, Note_on_c, 9, 42, 59
1, 140440, Note_off_c, 9, 42, 64
1, 140440, Note_off_c, 6, 55, 64
1, 140484, Note_off_c, 1, 38, 64
1, 140540, Note_on_c, 2, 54, 38
1, 140540, Control_c, 2, 64, 0
1, 140540, Note_on_c, 2, 64, 50
1, 140540, Note_on_c, 2, 58, 53
1, 140540, Control_c, 3, 64, 0
1, 140544, Note_on_c, 1, 42, 99
1, 140544, Note_on_c, 9, 46, 55
1, 140552, Note_off_c, 7, 55, 64
1, 140560, Note_off_c, 9, 46, 64
1, 140596, Note_off_c, 3, 67, 64
1, 140796, Note_on_c, 6, 60, 106
1, 140796, Note_on_c, 7, 60, 83
1, 140800, Note_on_c, 9, 40, 101
1, 140816, Note_off_c, 9, 40, 64
1, 140892, Control_c, 2, 64, 127
1, 140892, Control_c, 3, 64, 127
1, 140920, Note_off_c, 7, 60, 64
1, 140924, Note_off_c, 1, 42, 64
1, 140924, Note_on_c, 6, 59, 93
1, 140924, Note_on_c, 7, 59, 74
1, 140928, Note_on_c, 1, 40, 75
1, 140928, Note_on_c, 9, 44, 100
1, 140944, Note_off_c, 9, 44, 64
1, 140948, Note_off_c, 6, 60, 64
1, 140980, Note_off_c, 2, 58, 64
1, 140984, Note_off_c, 2, 54, 64
1, 141004, Note_off_c, 2, 64, 64
1, 141112, Note_off_c, 7, 59, 64
1, 141172, Note_off_c, 6, 59, 64
1, 141176, Note_on_c, 7, 58, 79
1, 141180, Note_on_c, 3, 73, 100
1, 141180, Note_on_c, 6, 58, 70
1, 141180, Note_on_c, 9, 47, 53
1, 141188, Note_on_c, 9, 35, 44
1, 141196, Note_off_c, 9, 47, 64
1, 141204, Note_off_c, 9, 35, 64
1, 141268, Control_c, 2, 64, 0
1, 141268, Control_c, 3, 64, 0
1, 141300, Note_off_c, 1, 40, 64
1, 141308, Note_on_c, 7, 57, 78
1, 141312, Note_on_c, 1, 41, 96
1, 141312, Note_on_c, 2, 53, 59
1, 141312, Note_on_c, 2, 57, 59
1, 141312, Note_on_c, 2, 64, 52
1, 141312, Note_on_c, 3, 74, 95
1, 141312, Note_on_c, 6, 57, 82
1, 141312, Note_on_c, 9, 35, 79
1, 141312, Note_on_c, 9, 46, 71
1, 141320, Note_off_c, 3, 73, 64
1, 141320, Note_off_c, 7, 58, 64
1, 141324, Note_off_c, 6, 58, 64
1, 141328, Note_off_c, 9, 46, 64
1, 141328, Note_off_c, 9, 35, 64
1, 141460, Control_c, 2, 64, 127
1, 141460, Control_c, 3, 64, 127
1, 141568, Note_off_c, 2, 64, 64
1, 141612, Note_off_c, 3, 74, 64
1, 141656, Note_off_c, 1, 41, 64
1, 141664, Note_off_c, 2, 57, 64
1, 141696, Note_on_c, 3, 74, 105
1, 141696, Note_on_c, 9, 42, 79
1, 141704, Note_off_c, 2, 53, 64
1, 141712, Note_off_c, 9, 42, 64
1, 141768, Note_off_c, 3, 74, 64
1, 141948, Note_on_c, 3, 73, 108
1, 141952, Note_on_c, 1, 36, 77
1, 141956, Note_on_c, 9, 42, 68
1, 141972, Note_off_c, 9, 42, 64
1, 142016, Note_off_c, 1, 36, 64
1, 142064, Note_off_c, 7, 57, 64
1, 142064, Control_c, 2, 64, 0
1, 142064, Control_c, 3, 64, 0
1, 142072, Note_off_c, 6, 57, 64
1, 142076, Note_on_c, 6, 56, 80
1, 142076, Note_on_c, 7, 56, 74
1, 142076, Note_on_c, 9, 46, 75
1, 142080, Note_on_c, 1, 34, 110
1, 142080, Note_on_c, 2, 56, 55
1, 142080, Note_on_c, 3, 74, 109
1, 142084, Note_on_c, 2, 50, 75
1, 142084, Note_on_c, 2, 46, 57
1, 142092, Note_off_c, 9, 46, 64
1, 142092, Note_off_c, 3, 73, 64
1, 142320, Note_off_c, 3, 74, 64
1, 142332, Note_on_c, 3, 76, 102
1, 142352, Control_c, 2, 64, 127
1, 142352, Control_c, 3, 64, 127
1, 142368, Note_off_c, 2, 50, 64
1, 142416, Note_off_c, 3, 76, 64
1, 142440, Note_off_c, 2, 46, 64
1, 142464, Note_on_c, 3, 77, 107
1, 142464, Note_on_c, 9, 42, 88
1, 142480, Note_off_c, 9, 42, 64
1, 142524, Note_off_c, 3, 77, 64
1, 142524, Note_off_c, 2, 56, 64
1, 142640, Note_off_c, 6, 56, 64
1, 142676, Note_off_c, 7, 56, 64
1, 142716, Note_on_c, 3, 79, 114
1, 142724, Note_on_c, 9, 42, 66
1, 142736, Note_off_c, 1, 34, 64
1, 142740, Note_off_c, 9, 42, 64
1, 142796, Control_c, 2, 64, 0
1, 142796, Control_c, 3, 64, 0
1, 142848, Note_on_c, 1, 45, 123
1, 142848, Note_on_c, 2, 55, 57
1, 142848, Note_on_c, 2, 50, 75
1, 142848, Note_on_c, 2, 45, 53
1, 142848, Note_on_c, 4, 67, 90
1, 142848, Note_on_c, 4, 64, 92
1, 142848, Note_on_c, 5, 59, 93
1, 142848, Note_on_c, 5, 55, 69
1, 142848, Note_on_c, 7, 62, 127
1, 142848, Note_on_c, 9, 46, 77
1, 142864, Note_off_c, 9, 46, 64
1, 143032, Note_off_c, 5, 55, 64
1, 143032, Note_off_c, 5, 59, 64
1, 143036, Note_off_c, 3, 79, 64
1, 143044, Note_off_c, 7, 62, 64
1, 143044, Note_off_c, 4, 64, 64
1, 143052, Note_off_c, 4, 67, 64
1, 143056, Note_off_c, 1, 45, 64
1, 143100, Note_on_c, 3, 76, 101
1, 143100, Note_on_c, 4, 64, 101
1, 143100, Note_on_c, 4, 67, 97
1, 143100, Note_on_c, 5, 59, 95
1, 143100, Note_on_c, 5, 55, 59
1, 143100, Note_on_c, 7, 64, 119
1, 143104, Note_on_c, 1, 43, 68
1, 143104, Control_c, 2, 64, 127
1, 143104, Control_c, 3, 64, 127
1, 143104, Note_on_c, 9, 50, 51
1, 143120, Note_off_c, 9, 50, 64
1, 143148, Note_off_c, 4, 64, 64
1, 143152, Note_off_c, 3, 76, 64
1, 143156, Note_off_c, 7, 64, 64
1, 143164, Note_off_c, 4, 67, 64
1, 143168, Note_off_c, 5, 59, 64
1, 143184, Note_off_c, 1, 43, 64
1, 143184, Note_off_c, 5, 55, 64
1, 143188, Note_off_c, 2, 45, 64
1, 143204, Note_off_c, 2, 50, 64
1, 143228, Note_off_c, 2, 55, 64
1, 143228, Note_on_c, 3, 74, 98
1, 143228, Note_on_c, 7, 67, 120
1, 143232, Note_on_c, 1, 40, 92
1, 143232, Note_on_c, 9, 42, 86
1, 143232, Note_on_c, 9, 47, 78
1, 143248, Note_off_c, 9, 47, 64
1, 143248, Note_off_c, 9, 42, 64
1, 143272, Note_off_c, 3, 74, 64
1, 143300, Note_off_c, 7, 67, 64
1, 143356, Note_on_c, 7, 69, 127
1, 143412, Note_off_c, 7, 69, 64
1, 143440, Note_off_c, 1, 40, 64
1, 143440, Control_c, 2, 64, 0
1, 143440, Control_c, 3, 64, 0
1, 143484, Note_on_c, 1, 33, 123
1, 143484, Note_on_c, 2, 45, 82
1, 143484, Note_on_c, 2, 55, 83
1, 143484, Note_on_c, 2, 49, 87
1, 143484, Note_on_c, 3, 75, 110
1, 143484, Note_on_c, 3, 70, 105
1, 143484, Note_on_c, 3, 79, 110
1, 143484, Note_on_c, 4, 63, 112
1, 143484, Note_on_c, 4, 67, 104
1, 143484, Note_on_c, 7, 70, 127
1, 143488, Note_on_c, 9, 55, 119
1, 143492, Note_on_c, 5, 61, 108
1, 143492, Note_on_c, 5, 55, 109
1, 143492, Note_on_c, 9, 42, 96
1, 143492, Note_on_c, 9, 35, 114
1, 143504, Note_off_c, 9, 55, 64
1, 143508, Note_off_c, 9, 35, 64
1, 143508, Note_off_c, 9, 42, 64
1, 143920, Control_c, 2, 64, 127
1, 143920, Control_c, 3, 64, 127
1, 143940, Note_off_c, 2, 45, 64
1, 143952, Note_off_c, 2, 49, 64
1, 143964, Note_off_c, 1, 33, 64
1, 143996, Note_off_c, 2, 55, 64
1, 144000, Note_on_c, 9, 40, 34
1, 144008, Note_on_c, 1, 33, 112
1, 144016, Note_off_c, 9, 40, 64
1, 144036, Note_off_c, 3, 70, 64
1, 144056, Note_off_c, 3, 75, 64
1, 144060, Note_off_c, 3, 79, 64
1, 144068, Note_off_c, 1, 33, 64
1, 144128, Note_on_c, 9, 40, 37
1, 144132, Note_on_c, 1, 36, 78
1, 144144, Note_off_c, 9, 40, 64
1, 144188, Note_off_c, 1, 36, 64
1, 144220, Note_off_c, 7, 70, 64
1, 144252, Note_off_c, 5, 55, 64
1, 144252, Note_off_c, 5, 61, 64
1, 144256, Note_on_c, 1, 37, 58
1, 144256, Note_on_c, 9, 40, 97
1, 144272, Note_off_c, 9, 40, 64
1, 144284, Note_off_c, 4, 63, 64
1, 144300, Note_off_c, 4, 67, 64
1, 144304, Note_off_c, 1, 37, 64
1, 144352, Control_c, 2, 64, 0
1, 144352, Control_c, 3, 64, 0
1, 144384, Note_on_c, 1, 38, 106
1, 144384, Note_on_c, 2, 60, 63
1, 144384, Note_on_c, 2, 55, 84
1, 144384, Note_on_c, 2, 50, 83
1, 144384, Note_on_c, 9, 35, 76
1, 144384, Note_on_c, 9, 46, 61
1, 144400, Note_off_c, 9, 46, 64
1, 144400, Note_off_c, 9, 35, 64
1, 144564, Note_on_c, 7, 77, 84
1, 144596, Note_off_c, 7, 77, 64
1, 144596, Note_on_c, 7, 79, 104
1, 144628, Note_on_c, 7, 68, 125
1, 144636, Note_on_c, 3, 69, 114
1, 144636, Note_on_c, 3, 81, 120
1, 144636, Note_on_c, 4, 72, 95
1, 144636, Note_on_c, 4, 76, 93
1, 144636, Note_on_c, 5, 64, 111
1, 144636, Note_on_c, 5, 57, 102
1, 144636, Note_on_c, 7, 80, 115
1, 144640, Note_off_c, 7, 79, 64
1, 144664, Note_off_c, 7, 80, 64
1, 144664, Note_on_c, 7, 69, 106
1, 144664, Note_on_c, 7, 81, 106
1, 144668, Note_off_c, 7, 68, 64
1, 144684, Control_c, 2, 64, 127
1, 144684, Control_c, 3, 64, 127
1, 144708, Note_off_c, 1, 38, 64
1, 144752, Note_off_c, 2, 55, 64
1, 144760, Note_off_c, 2, 50, 64
1, 144768, Note_on_c, 9, 42, 89
1, 144784, Note_off_c, 9, 42, 64
1, 144796, Note_off_c, 2, 60, 64
1, 144828, Note_off_c, 3, 81, 64
1, 144952, Note_off_c, 3, 69, 64
1, 145016, Note_off_c, 4, 72, 64
1, 145020, Note_on_c, 1, 38, 84
1, 145032, Note_on_c, 9, 42, 69
1, 145036, Note_off_c, 4, 76, 64
1, 145048, Note_off_c, 9, 42, 64
1, 145048, Note_off_c, 7, 81, 64
1, 145072, Note_off_c, 1, 38, 64
1, 145084, Note_off_c, 7, 69, 64
1, 145092, Control_c, 2, 64, 0
1, 145092, Control_c, 3, 64, 0
1, 145096, Note_off_c, 5, 57, 64
1, 145112, Note_off_c, 5, 64, 64
1, 145148, Note_on_c, 2, 56, 53
1, 145148, Note_on_c, 2, 67, 62
1, 145148, Note_on_c, 2, 62, 68
1, 145148, Note_on_c, 3, 76, 90
1, 145148, Note_on_c, 4, 72, 100
1, 145148, Note_on_c, 4, 67, 92
1, 145152, Note_on_c, 5, 56, 93
1, 145152, Note_on_c, 7, 76, 111
1, 145156, Note_on_c, 1, 34, 96
1, 145156, Note_on_c, 5, 62, 97
1, 145156, Note_on_c, 9, 46, 57
1, 145172, Note_off_c, 9, 46, 64
1, 145196, Note_off_c, 2, 56, 64
1, 145200, Note_off_c, 2, 62, 64
1, 145208, Note_off_c, 2, 67, 64
1, 145220, Note_off_c, 3, 76, 64
1, 145280, Note_off_c, 4, 67, 64
1, 145280, Note_off_c, 4, 72, 64
1, 145296, Note_off_c, 7, 76, 64
1, 145304, Note_off_c, 5, 62, 64
1, 145308, Note_off_c, 5, 56, 64
1, 145324, Note_off_c, 1, 34, 64
1, 145532, Note_on_c, 2, 62, 77
1, 145532, Note_on_c, 2, 56, 63
1, 145532, Note_on_c, 2, 67, 59
1, 145532, Note_on_c, 3, 74, 88
1, 145532, Note_on_c, 4, 65, 68
1, 145532, Note_on_c, 4, 70, 106
1, 145532, Note_on_c, 9, 42, 92
1, 145536, Note_on_c, 1, 34, 110
1, 145536, Note_on_c, 5, 56, 97
1, 145536, Note_on_c, 7, 74, 101
1, 145540, Note_on_c, 5, 62, 93
1, 145548, Note_off_c, 9, 42, 64
1, 145600, Note_off_c, 2, 67, 64
1, 145600, Note_off_c, 2, 62, 64
1, 145612, Note_off_c, 2, 56, 64
1, 145620, Note_off_c, 3, 74, 64
1, 145660, Note_off_c, 4, 70, 64
1, 145668, Note_off_c, 5, 56, 64
1, 145668, Note_off_c, 4, 65, 64
1, 145684, Note_off_c, 7, 74, 64
1, 145696, Note_off_c, 5, 62, 64
1, 145704, Note_off_c, 1, 34, 64
1, 145796, Note_on_c, 9, 35, 29
1, 145800, Note_on_c, 9, 42, 56
1, 145812, Note_off_c, 9, 35, 64
1, 145816, Note_off_c, 9, 42, 64
1, 145920, Note_on_c, 1, 33, 102
1, 145920, Note_on_c, 2, 66, 54
1, 145920, Note_on_c, 2, 55, 67
1, 145920, Note_on_c, 3, 72, 86
1, 145920, Note_on_c, 7, 72, 102
1, 145920, Note_on_c, 9, 46, 59
1, 145924, Note_on_c, 2, 61, 76
1, 145924, Note_on_c, 4, 66, 89
1, 145924, Note_on_c, 4, 69, 95
1, 145924, Note_on_c, 5, 61, 94
1, 145924, Note_on_c, 5, 55, 90
1, 145936, Note_off_c, 9, 46, 64
1, 145960, Note_off_c, 2, 61, 64
1, 145972, Note_off_c, 2, 55, 64
1, 145984, Note_off_c, 3, 72, 64
1, 145992, Note_off_c, 2, 66, 64
1, 146036, Note_off_c, 4, 66, 64
1, 146052, Note_off_c, 4, 69, 64
1, 146076, Note_off_c, 5, 55, 64
1, 146080, Note_off_c, 7, 72, 64
1, 146084, Note_off_c, 5, 61, 64
1, 146136, Note_off_c, 1, 33, 64
1, 146284, Note_on_c, 7, 69, 93
1, 146300, Note_on_c, 3, 69, 86
1, 146304, Note_on_c, 2, 54, 70
1, 146304, Note_on_c, 5, 54, 93
1, 146304, Note_on_c, 9, 42, 85
1, 146308, Note_on_c, 1, 32, 106
1, 146308, Note_on_c, 2, 60, 80
1, 146308, Note_on_c, 2, 65, 48
1, 146308, Note_on_c, 4, 62, 66
1, 146308, Note_on_c, 4, 65, 90
1, 146308, Note_on_c, 5, 60, 98
1, 146320, Note_off_c, 9, 42, 64
1, 146364, Note_off_c, 2, 65, 64
1, 146368, Note_off_c, 2, 54, 64
1, 146372, Note_off_c, 2, 60, 64
1, 146384, Note_off_c, 3, 69, 64
1, 146420, Note_off_c, 4, 65, 64
1, 146420, Note_off_c, 4, 62, 64
1, 146448, Note_off_c, 5, 54, 64
1, 146460, Note_off_c, 1, 32, 64
1, 146460, Note_off_c, 7, 69, 64
1, 146468, Note_off_c, 5, 60, 64
1, 146556, Note_on_c, 9, 35, 74
1, 146568, Note_on_c, 9, 42, 60
1, 146572, Note_off_c, 9, 35, 64
1, 146584, Note_off_c, 9, 42, 64
1, 146684, Note_on_c, 4, 67, 75
1, 146684, Note_on_c, 4, 64, 70
1, 146684, Note_on_c, 5, 53, 46
1, 146684, Note_on_c, 5, 59, 93
1, 146688, Note_on_c, 7, 71, 109
1, 146688, Note_on_c, 9, 40, 115
1, 146692, Note_on_c, 1, 31, 98
1, 146692, Note_on_c, 2, 64, 54
1, 146692, Note_on_c, 2, 53, 65
1, 146692, Note_on_c, 2, 59, 75
1, 146692, Note_on_c, 3, 71, 105
1, 146704, Note_off_c, 9, 40, 64
1, 146764, Control_c, 2, 64, 127
1, 146764, Control_c, 3, 64, 127
1, 146812, Note_off_c, 2, 59, 64
1, 146812, Note_off_c, 2, 53, 64
1, 146824, Note_off_c, 2, 64, 64
1, 146848, Note_off_c, 3, 71, 64
1, 146848, Note_off_c, 5, 59, 64
1, 146848, Note_off_c, 5, 53, 64
1, 146864, Note_off_c, 4, 64, 64
1, 146868, Note_off_c, 7, 71, 64
1, 146872, Note_off_c, 4, 67, 64
1, 146900, Note_off_c, 1, 31, 64
1, 146940, Note_on_c, 2, 64, 17
1, 146940, Note_on_c, 2, 53, 45
1, 146940, Note_on_c, 2, 59, 61
1, 146940, Note_on_c, 3, 72, 98
1, 146940, Note_on_c, 5, 59, 88
1, 146940, Note_on_c, 5, 53, 89
1, 146940, Note_on_c, 7, 72, 78
1, 146940, Note_on_c, 9, 43, 40
1, 146948, Note_on_c, 1, 31, 76
1, 146948, Note_on_c, 4, 64, 83
1, 146948, Note_on_c, 4, 67, 92
1, 146956, Note_off_c, 9, 43, 64
1, 146976, Note_off_c, 2, 53, 64
1, 146976, Note_off_c, 2, 64, 64
1, 146992, Note_off_c, 3, 72, 64
1, 146992, Note_off_c, 2, 59, 64
1, 147008, Note_off_c, 5, 53, 64
1, 147008, Note_off_c, 5, 59, 64
1, 147016, Note_off_c, 1, 31, 64
1, 147020, Note_off_c, 4, 67, 64
1, 147024, Note_off_c, 7, 72, 64
1, 147032, Note_off_c, 4, 64, 64
1, 147068, Note_on_c, 5, 53, 93
1, 147068, Note_on_c, 5, 59, 101
1, 147068, Note_on_c, 7, 74, 89
1, 147072, Note_on_c, 1, 31, 92
1, 147072, Note_on_c, 2, 53, 69
1, 147072, Note_on_c, 9, 42, 79
1, 147076, Note_on_c, 2, 59, 69
1, 147076, Note_on_c, 2, 64, 51
1, 147076, Note_on_c, 3, 74, 102
1, 147076, Note_on_c, 4, 67, 96
1, 147076, Note_on_c, 4, 64, 89
1, 147088, Note_off_c, 9, 42, 64
1, 147132, Note_off_c, 2, 64, 64
1, 147132, Note_off_c, 2, 53, 64
1, 147136, Note_off_c, 2, 59, 64
1, 147152, Note_off_c, 5, 59, 64
1, 147160, Note_off_c, 4, 67, 64
1, 147164, Note_off_c, 4, 64, 64
1, 147164, Note_off_c, 3, 74, 64
1, 147176, Note_off_c, 5, 53, 64
1, 147196, Note_on_c, 9, 50, 40
1, 147212, Note_off_c, 9, 50, 64
1, 147260, Note_off_c, 1, 31, 64
1, 147272, Note_off_c, 7, 74, 64
1, 147292, Control_c, 2, 64, 0
1, 147292, Control_c, 3, 64, 0
1, 147308, Note_on_c, 7, 72, 104
1, 147324, Note_on_c, 1, 36, 115
1, 147324, Note_on_c, 2, 62, 85
1, 147324, Note_on_c, 2, 57, 77
1, 147324, Note_on_c, 2, 52, 79
1, 147324, Note_on_c, 3, 72, 115
1, 147324, Note_on_c, 5, 57, 93
1, 147324, Note_on_c, 5, 52, 100
1, 147324, Note_on_c, 9, 55, 113
1, 147332, Note_on_c, 4, 64, 104
1, 147332, Note_on_c, 4, 69, 117
1, 147336, Note_on_c, 9, 35, 66
1, 147340, Note_off_c, 9, 55, 64
1, 147352, Note_off_c, 9, 35, 64
1, 147456, Note_on_c, 9, 40, 27
1, 147472, Note_off_c, 9, 40, 64
1, 147616, Control_c, 2, 64, 127
1, 147616, Control_c, 3, 64, 127
1, 147716, Note_on_c, 9, 50, 70
1, 147732, Note_off_c, 9, 50, 64
1, 147772, Note_off_c, 2, 62, 64
1, 147800, Note_off_c, 3, 72, 64
1, 147816, Note_off_c, 2, 57, 64
1, 147820, Note_off_c, 2, 52, 64
1, 147840, Note_on_c, 9, 42, 71
1, 147856, Note_off_c, 9, 42, 64
1, 147944, Note_off_c, 4, 69, 64
1, 147952, Note_off_c, 4, 64, 64
1, 147968, Note_on_c, 9, 40, 18
1, 147984, Note_off_c, 9, 40, 64
1, 148088, Note_off_c, 5, 52, 64
1, 148088, Note_off_c, 5, 57, 64
1, 148100, Note_on_c, 9, 40, 51
1, 148100, Note_on_c, 9, 35, 41
1, 148104, Note_on_c, 9, 42, 59
1, 148116, Note_off_c, 9, 35, 64
1, 148116, Note_off_c, 9, 40, 64
1, 148120, Note_off_c, 9, 42, 64
1, 148124, Note_off_c, 1, 36, 64
1, 148192, Note_off_c, 7, 72, 64
1, 148196, Note_on_c, 7, 70, 110
1, 148216, Note_on_c, 1, 37, 104
1, 148220, Note_on_c, 2, 59, 80
1, 148220, Note_on_c, 2, 49, 62
1, 148220, Note_on_c, 2, 53, 80
1, 148220, Note_on_c, 3, 70, 112
1, 148220, Note_on_c, 3, 63, 108
1, 148220, Note_on_c, 4, 63, 88
1, 148220, Note_on_c, 4, 67, 96
1, 148220, Note_on_c, 5, 53, 85
1, 148220, Note_on_c, 5, 59, 88
1, 148224, Tempo, 704470
1, 148224, Control_c, 2, 64, 0
1, 148224, Control_c, 3, 64, 0
1, 148228, Note_on_c, 9, 47, 74
1, 148244, Note_off_c, 9, 47, 64
1, 148364, Control_c, 2, 64, 127
1, 148364, Control_c, 3, 64, 127
1, 148480, Note_on_c, 9, 43, 38
1, 148496, Note_off_c, 9, 43, 64
1, 148548, Note_off_c, 3, 70, 64
1, 148552, Note_off_c, 2, 53, 64
1, 148560, Note_off_c, 3, 63, 64
1, 148568, Note_off_c, 2, 49, 64
1, 148580, Note_off_c, 2, 59, 64
1, 148608, Tempo, 798883
1, 148608, Note_on_c, 9, 44, 100
1, 148608, Note_on_c, 9, 43, 62
1, 148624, Note_off_c, 9, 43, 64
1, 148624, Note_off_c, 9, 44, 64
1, 148724, Note_off_c, 5, 59, 64
1, 148748, Note_on_c, 7, 69, 73
1, 148784, Note_off_c, 4, 63, 64
1, 148792, Note_off_c, 7, 70, 64
1, 148796, Note_on_c, 7, 68, 67
1, 148800, Control_c, 2, 64, 0
1, 148800, Control_c, 3, 64, 0
1, 148804, Note_off_c, 7, 69, 64
1, 148820, Note_off_c, 5, 53, 64
1, 148840, Note_on_c, 7, 67, 115
1, 148848, Note_off_c, 7, 68, 64
1, 148848, Note_off_c, 1, 37, 64
1, 148856, Note_on_c, 2, 48, 74
1, 148856, Note_on_c, 2, 52, 72
1, 148856, Note_on_c, 2, 59, 78
1, 148856, Note_on_c, 3, 62, 96
1, 148856, Note_on_c, 3, 67, 99
1, 148856, Note_on_c, 5, 59, 77
1, 148856, Note_on_c, 5, 52, 84
1, 148860, Note_on_c, 1, 36, 96
1, 148860, Note_on_c, 4, 62, 73
1, 148860, Note_on_c, 4, 64, 85
1, 148860, Note_on_c, 9, 55, 95
1, 148860, Note_on_c, 9, 40, 23
1, 148864, Note_off_c, 4, 67, 64
1, 148864, Note_on_c, 9, 35, 83
1, 148872, Note_on_c, 9, 42, 62
1, 148876, Note_off_c, 9, 40, 64
1, 148876, Note_off_c, 9, 55, 64
1, 148880, Note_off_c, 9, 35, 64
1, 148888, Note_off_c, 9, 42, 64
1, 149160, Note_on_c, 9, 59, 19
1, 149176, Note_off_c, 9, 59, 64
1, 149256, Note_on_c, 9, 51, 34
1, 149272, Note_off_c, 9, 51, 64
1, 149332, Note_on_c, 9, 59, 33
1, 149348, Note_off_c, 9, 59, 64
1, 149404, Note_on_c, 9, 51, 60
1, 149420, Note_off_c, 9, 51, 64
1, 149460, Note_on_c, 9, 59, 49
1, 149476, Note_off_c, 9, 59, 64
1, 149504, Note_on_c, 9, 51, 62
1, 149520, Note_off_c, 9, 51, 64
1, 149552, Note_on_c, 9, 59, 68
1, 149568, Note_off_c, 9, 59, 64
1, 149592, Note_on_c, 9, 51, 79
1, 149608, Note_off_c, 9, 51, 64
1, 149636, Note_on_c, 9, 59, 93
1, 149652, Note_off_c, 9, 59, 64
1, 149668, Note_on_c, 9, 51, 66
1, 149684, Note_off_c, 9, 51, 64
1, 149708, Note_on_c, 9, 59, 88
1, 149724, Note_off_c, 9, 59, 64
1, 149740, Note_on_c, 9, 51, 75
1, 149756, Note_off_c, 9, 51, 64
1, 149788, Note_on_c, 9, 59, 76
1, 149804, Note_off_c, 9, 59, 64
1, 149836, Note_on_c, 9, 51, 63
1, 149852, Note_off_c, 9, 51, 64
1, 149876, Note_on_c, 9, 59, 66
1, 149892, Note_off_c, 9, 59, 64
1, 149944, Note_on_c, 9, 51, 57
1, 149960, Note_off_c, 9, 51, 64
1, 150000, Note_on_c, 9, 59, 28
1, 150016, Note_off_c, 9, 59, 64
1, 150056, Note_on_c, 9, 51, 58
1, 150072, Note_off_c, 9, 51, 64
1, 150120, Note_on_c, 9, 59, 43
1, 150136, Note_off_c, 9, 59, 64
1, 150200, Note_on_c, 9, 51, 59
1, 150216, Note_off_c, 9, 51, 64
1, 150440, Note_off_c, 7, 67, 64
1, 150496, Note_off_c, 5, 52, 64
1, 150496, Note_off_c, 5, 59, 64
1, 150496, Note_off_c, 3, 67, 64
1, 150496, Note_off_c, 3, 62, 64
1, 150496, Note_off_c, 2, 59, 64
1, 150496, Note_off_c, 2, 52, 64
1, 150496, Note_off_c, 2, 48, 64
1, 150500, Note_off_c, 4, 64, 64
1, 150500, Note_off_c, 4, 62, 64
1, 150500, Note_off_c, 1, 36, 64
1, 152064, End_track
0, 0, End_of_file
