0, 0, Header, 0, 1, 384
1, 0, Start_track
1, 0, Title_t, "0583RAIN"
1, 0, Tempo, 300000
1, 0, Time_signature, 4, 2, 24, 8
1, 0, Text_t, "0583RAIN\000\000"
1, 10, System_exclusive, 5, 126, 127, 9, 1, 247
1, 24, System_exclusive, 10, 65, 16, 66, 18, 64, 0, 127, 0, 65, 247
1, 48, System_exclusive, 25, 65, 16, 66, 18, 64, 1, 16, 2, 0, 1, 3, 2, 2, 2, 2, 2, 2, 1, 1, 1, 1, 1, 1, 23, 247
1, 72, System_exclusive, 10, 65, 16, 66, 18, 64, 1, 51, 90, 50, 247
1, 112, System_exclusive, 10, 65, 16, 66, 18, 64, 1, 58, 90, 43, 247
1, 304, Control_c, 0, 121, 0
1, 324, Control_c, 1, 121, 0
1, 328, Control_c, 2, 121, 0
1, 332, Control_c, 3, 121, 0
1, 336, Control_c, 4, 121, 0
1, 340, Control_c, 5, 121, 0
1, 344, Control_c, 6, 121, 0
1, 348, Control_c, 7, 121, 0
1, 352, Control_c, 8, 121, 0
1, 356, Control_c, 9, 121, 0
1, 360, Control_c, 10, 121, 0
1, 364, Control_c, 11, 121, 0
1, 368, Control_c, 12, 121, 0
1, 372, Control_c, 13, 121, 0
1, 376, Control_c, 14, 121, 0
1, 380, Control_c, 15, 121, 0
1, 384, Control_c, 0, 0, 0
1, 388, Control_c, 0, 32, 0
1, 392, Program_c, 0, 47
1, 396, Control_c, 0, 11, 127
1, 396, Control_c, 0, 10, 64
1, 396, Control_c, 0, 7, 100
1, 400, Control_c, 0, 93, 25
1, 400, Control_c, 0, 91, 70
1, 404, Control_c, 1, 0, 0
1, 408, Control_c, 1, 32, 0
1, 412, Program_c, 1, 32
1, 416, Control_c, 1, 7, 100
1, 416, Control_c, 1, 10, 64
1, 416, Control_c, 1, 11, 127
1, 420, Control_c, 1, 91, 70
1, 420, Control_c, 1, 93, 25
1, 424, Control_c, 2, 0, 0
1, 428, Control_c, 2, 32, 0
1, 432, Program_c, 2, 48
1, 436, Control_c, 2, 7, 100
1, 436, Control_c, 2, 10, 64
1, 436, Control_c, 2, 11, 127
1, 440, Control_c, 2, 91, 70
1, 440, Control_c, 2, 93, 0
1, 444, Control_c, 3, 0, 0
1, 448, Control_c, 3, 32, 0
1, 452, Program_c, 3, 44
1, 456, Control_c, 3, 7, 100
1, 456, Control_c, 3, 10, 64
1, 456, Control_c, 3, 11, 127
1, 460, Control_c, 3, 91, 70
1, 460, Control_c, 3, 93, 0
1, 464, Control_c, 4, 0, 0
1, 468, Control_c, 4, 32, 0
1, 472, Program_c, 4, 45
1, 476, Control_c, 4, 7, 100
1, 476, Control_c, 4, 10, 44
1, 476, Control_c, 4, 11, 127
1, 480, Control_c, 4, 91, 70
1, 480, Control_c, 4, 93, 0
1, 484, Control_c, 5, 0, 0
1, 488, Control_c, 5, 32, 0
1, 492, Program_c, 5, 12
1, 496, Control_c, 5, 7, 100
1, 496, Control_c, 5, 10, 84
1, 496, Control_c, 5, 11, 127
1, 500, Control_c, 5, 91, 70
1, 500, Control_c, 5, 93, 0
1, 504, Control_c, 6, 0, 0
1, 508, Control_c, 6, 32, 0
1, 512, Program_c, 6, 9
1, 516, Control_c, 6, 7, 100
1, 516, Control_c, 6, 10, 64
1, 516, Control_c, 6, 11, 127
1, 520, Control_c, 6, 91, 70
1, 520, Control_c, 6, 93, 0
1, 524, Control_c, 7, 0, 0
1, 528, Control_c, 7, 32, 0
1, 532, Program_c, 7, 46
1, 536, Control_c, 7, 7, 100
1, 536, Control_c, 7, 10, 64
1, 536, Control_c, 7, 11, 127
1, 540, Control_c, 7, 91, 70
1, 540, Control_c, 7, 93, 0
1, 544, Control_c, 8, 0, 0
1, 548, Control_c, 8, 32, 0
1, 552, Program_c, 8, 73
1, 556, Control_c, 8, 7, 100
1, 556, Control_c, 8, 10, 64
1, 556, Control_c, 8, 11, 127
1, 560, Control_c, 8, 91, 100
1, 560, Control_c, 8, 93, 0
1, 564, Control_c, 9, 0, 0
1, 568, Control_c, 9, 32, 0
1, 572, Program_c, 9, 0
1, 576, Control_c, 9, 7, 100
1, 576, Control_c, 9, 10, 64
1, 576, Control_c, 9, 11, 127
1, 580, Control_c, 9, 91, 60
1, 580, Control_c, 9, 93, 0
1, 584, Control_c, 10, 0, 0
1, 588, Control_c, 10, 32, 0
1, 592, Program_c, 10, 56
1, 596, Control_c, 10, 7, 120
1, 596, Control_c, 10, 10, 64
1, 596, Control_c, 10, 11, 127
1, 600, Control_c, 10, 91, 100
1, 600, Control_c, 10, 93, 0
1, 604, Control_c, 11, 0, 0
1, 608, Control_c, 11, 32, 0
1, 612, Program_c, 11, 65
1, 616, Control_c, 11, 7, 100
1, 616, Control_c, 11, 10, 34
1, 616, Control_c, 11, 11, 127
1, 620, Control_c, 11, 91, 70
1, 620, Control_c, 11, 93, 0
1, 624, Control_c, 12, 0, 0
1, 628, Control_c, 12, 32, 0
1, 632, Program_c, 12, 60
1, 636, Control_c, 12, 7, 100
1, 636, Control_c, 12, 10, 94
1, 636, Control_c, 12, 11, 127
1, 640, Control_c, 12, 91, 70
1, 640, Control_c, 12, 93, 0
1, 644, Control_c, 13, 0, 0
1, 648, Control_c, 13, 32, 0
1, 652, Program_c, 13, 57
1, 656, Control_c, 13, 7, 100
1, 656, Control_c, 13, 10, 64
1, 656, Control_c, 13, 11, 127
1, 660, Control_c, 13, 91, 60
1, 660, Control_c, 13, 93, 0
1, 664, Control_c, 14, 0, 0
1, 668, Control_c, 14, 32, 0
1, 672, Program_c, 14, 58
1, 676, Control_c, 14, 7, 100
1, 676, Control_c, 14, 10, 64
1, 676, Control_c, 14, 11, 127
1, 680, Control_c, 14, 91, 64
1, 680, Control_c, 14, 93, 0
1, 684, Control_c, 15, 0, 0
1, 688, Control_c, 15, 32, 0
1, 692, Program_c, 15, 65
1, 696, Control_c, 15, 7, 100
1, 696, Control_c, 15, 10, 64
1, 696, Control_c, 15, 11, 127
1, 700, Control_c, 15, 91, 110
1, 700, Control_c, 15, 93, 0
1, 768, Control_c, 0, 101, 0
1, 772, Control_c, 0, 100, 0
1, 776, Control_c, 0, 6, 12
1, 780, Control_c, 0, 101, 127
1, 784, Control_c, 0, 100, 127
1, 788, Control_c, 1, 101, 0
1, 792, Control_c, 1, 100, 0
1, 796, Control_c, 1, 6, 12
1, 800, Control_c, 1, 101, 127
1, 804, Control_c, 1, 100, 127
1, 808, Control_c, 2, 101, 0
1, 812, Control_c, 2, 100, 0
1, 816, Control_c, 2, 6, 12
1, 820, Control_c, 2, 101, 127
1, 824, Control_c, 2, 100, 127
1, 828, Control_c, 3, 101, 0
1, 832, Control_c, 3, 100, 0
1, 836, Control_c, 3, 6, 12
1, 840, Control_c, 3, 101, 127
1, 844, Control_c, 3, 100, 127
1, 848, Control_c, 4, 101, 0
1, 852, Control_c, 4, 100, 0
1, 856, Control_c, 4, 6, 12
1, 860, Control_c, 4, 101, 127
1, 864, Control_c, 4, 100, 127
1, 868, Control_c, 5, 101, 0
1, 872, Control_c, 5, 100, 0
1, 876, Control_c, 5, 6, 12
1, 880, Control_c, 5, 101, 127
1, 884, Control_c, 5, 100, 127
1, 888, Control_c, 6, 101, 0
1, 892, Control_c, 6, 100, 0
1, 896, Control_c, 6, 6, 12
1, 900, Control_c, 6, 101, 127
1, 904, Control_c, 6, 100, 127
1, 908, Control_c, 7, 101, 0
1, 912, Control_c, 7, 100, 0
1, 916, Control_c, 7, 6, 12
1, 920, Control_c, 7, 101, 127
1, 924, Control_c, 7, 100, 127
1, 928, Control_c, 8, 101, 0
1, 932, Control_c, 8, 100, 0
1, 936, Control_c, 8, 6, 12
1, 940, Control_c, 8, 101, 127
1, 944, Control_c, 8, 100, 127
1, 948, Control_c, 9, 101, 0
1, 952, Control_c, 9, 100, 0
1, 956, Control_c, 9, 6, 12
1, 960, Control_c, 9, 101, 127
1, 964, Control_c, 9, 100, 127
1, 968, Control_c, 10, 101, 0
1, 972, Control_c, 10, 100, 0
1, 976, Control_c, 10, 6, 12
1, 980, Control_c, 10, 101, 127
1, 984, Control_c, 10, 100, 127
1, 988, Control_c, 11, 101, 0
1, 992, Control_c, 11, 100, 0
1, 996, Control_c, 11, 6, 12
1, 1000, Control_c, 11, 101, 127
1, 1004, Control_c, 11, 100, 127
1, 1008, Control_c, 12, 101, 0
1, 1012, Control_c, 12, 100, 0
1, 1016, Control_c, 12, 6, 12
1, 1020, Control_c, 12, 101, 127
1, 1024, Control_c, 12, 100, 127
1, 1028, Control_c, 13, 101, 0
1, 1032, Control_c, 13, 100, 0
1, 1036, Control_c, 13, 6, 3
1, 1040, Control_c, 13, 101, 127
1, 1044, Control_c, 13, 100, 127
1, 1048, Control_c, 14, 101, 0
1, 1052, Control_c, 14, 100, 0
1, 1056, Control_c, 14, 6, 3
1, 1060, Control_c, 14, 101, 127
1, 1064, Control_c, 14, 100, 127
1, 1068, Control_c, 15, 101, 0
1, 1072, Control_c, 15, 100, 0
1, 1076, Control_c, 15, 6, 12
1, 1080, Control_c, 15, 101, 127
1, 1084, Control_c, 15, 100, 127
1, 1248, System_exclusive, 73, 65, 16, 69, 18, 16, 1, 0, 28, 11, 11, 8, 1, 9, 8, 11, 31, 28, 29, 29, 29, 29, 28, 31, 16, 32, 6, 6, 6, 6, 6, 22, 31, 4, 21, 21, 21, 21, 5, 31, 3, 8, 9, 9, 8, 11, 3, 28, 31, 7, 23, 23, 23, 23, 23, 31, 31, 0, 31, 31, 0, 0, 0, 0, 31, 31, 31, 31, 31, 31, 31, 31, 83, 247
1, 1449, System_exclusive, 34, 65, 16, 69, 18, 16, 0, 0, 80, 114, 111, 103, 114, 97, 109, 109, 101, 100, 32, 98, 121, 32, 72, 97, 110, 100, 115, 32, 79, 110, 46, 32, 32, 14, 247
1, 1536, Tempo, 375000
1, 3268, System_exclusive, 73, 65, 16, 69, 18, 16, 1, 0, 3, 20, 20, 23, 30, 22, 23, 20, 3, 2, 2, 2, 2, 3, 0, 0, 16, 31, 25, 25, 25, 25, 25, 0, 27, 10, 10, 10, 10, 26, 0, 0, 28, 23, 22, 22, 23, 28, 0, 3, 24, 8, 8, 8, 8, 8, 0, 0, 0, 31, 0, 0, 31, 31, 31, 31, 0, 0, 0, 0, 0, 0, 0, 0, 71, 247
1, 4608, Note_on_c, 14, 45, 29
1, 4608, Note_on_c, 13, 49, 116
1, 4608, Note_on_c, 12, 52, 112
1, 4608, Note_on_c, 13, 52, 112
1, 4608, Note_on_c, 10, 69, 97
1, 4608, Note_on_c, 10, 73, 97
1, 4608, Note_on_c, 8, 88, 127
1, 4608, Note_on_c, 10, 76, 97
1, 4608, Note_on_c, 4, 69, 108
1, 4608, Note_on_c, 4, 73, 108
1, 4608, Note_on_c, 4, 76, 108
1, 4608, Note_on_c, 4, 81, 108
1, 4608, Note_on_c, 4, 85, 108
1, 4608, Note_on_c, 4, 88, 108
1, 4608, Note_on_c, 5, 81, 108
1, 4608, Note_on_c, 5, 85, 108
1, 4608, Note_on_c, 5, 88, 108
1, 4608, Note_on_c, 1, 40, 112
1, 4608, Note_on_c, 0, 45, 95
1, 4608, Note_on_c, 9, 38, 75
1, 4608, Note_on_c, 9, 36, 67
1, 4612, Note_off_c, 9, 36, 67
1, 4612, Note_off_c, 9, 38, 75
1, 4668, System_exclusive, 73, 65, 16, 69, 18, 16, 1, 0, 28, 11, 11, 8, 1, 9, 8, 11, 31, 28, 29, 29, 29, 29, 28, 31, 16, 32, 6, 6, 6, 6, 6, 22, 31, 4, 21, 21, 21, 21, 5, 31, 3, 8, 9, 9, 8, 11, 3, 28, 31, 7, 23, 23, 23, 23, 23, 31, 31, 0, 31, 31, 0, 0, 0, 0, 31, 31, 31, 31, 31, 31, 31, 31, 83, 247
1, 4704, Note_off_c, 5, 88, 108
1, 4704, Note_off_c, 5, 85, 108
1, 4704, Note_off_c, 5, 81, 108
1, 4736, Note_off_c, 4, 88, 108
1, 4736, Note_off_c, 4, 85, 108
1, 4736, Note_off_c, 4, 81, 108
1, 4736, Note_off_c, 4, 76, 108
1, 4736, Note_off_c, 4, 73, 108
1, 4736, Note_off_c, 4, 69, 108
1, 4736, Note_off_c, 10, 76, 97
1, 4736, Note_off_c, 10, 73, 97
1, 4736, Note_off_c, 10, 69, 97
1, 4788, Note_off_c, 1, 40, 112
1, 4792, Note_off_c, 8, 88, 127
1, 4800, Note_off_c, 0, 45, 95
1, 4800, Note_off_c, 13, 52, 112
1, 4800, Note_off_c, 12, 52, 112
1, 4800, Note_off_c, 13, 49, 116
1, 4800, Note_off_c, 14, 45, 29
1, 5184, Note_on_c, 14, 45, 31
1, 5184, Note_on_c, 13, 49, 116
1, 5184, Note_on_c, 12, 53, 112
1, 5184, Note_on_c, 13, 53, 95
1, 5184, Note_on_c, 1, 41, 112
1, 5184, Note_on_c, 0, 45, 95
1, 5184, Note_on_c, 9, 38, 75
1, 5184, Note_on_c, 9, 36, 66
1, 5188, Note_off_c, 9, 36, 66
1, 5188, Note_off_c, 9, 38, 75
1, 5364, Note_off_c, 1, 41, 112
1, 5376, Note_off_c, 0, 45, 95
1, 5376, Note_off_c, 13, 53, 95
1, 5376, Note_off_c, 12, 53, 112
1, 5376, Note_off_c, 13, 49, 116
1, 5376, Note_off_c, 14, 45, 31
1, 5760, Note_on_c, 14, 45, 57
1, 5760, Note_on_c, 13, 49, 100
1, 5760, Note_on_c, 12, 54, 116
1, 5760, Note_on_c, 13, 54, 116
1, 5760, Note_on_c, 1, 42, 116
1, 5760, Note_on_c, 0, 45, 95
1, 5760, Note_on_c, 9, 36, 66
1, 5760, Note_on_c, 9, 38, 75
1, 5764, Note_off_c, 9, 38, 75
1, 5764, Note_off_c, 9, 36, 66
1, 5940, Note_off_c, 1, 42, 116
1, 5952, Note_off_c, 0, 45, 95
1, 5952, Note_off_c, 13, 54, 116
1, 5952, Note_off_c, 12, 54, 116
1, 5952, Note_off_c, 13, 49, 100
1, 5952, Note_off_c, 14, 45, 57
1, 6144, Note_on_c, 14, 45, 75
1, 6144, Note_on_c, 13, 49, 100
1, 6144, Note_on_c, 12, 52, 95
1, 6144, Note_on_c, 13, 52, 112
1, 6144, Note_on_c, 1, 40, 95
1, 6144, Note_on_c, 0, 45, 95
1, 6144, Note_on_c, 9, 38, 75
1, 6144, Note_on_c, 9, 36, 66
1, 6148, Note_off_c, 9, 36, 66
1, 6148, Note_off_c, 9, 38, 75
1, 6240, Note_on_c, 6, 57, 27
1, 6240, Note_on_c, 2, 57, 33
1, 6324, Note_off_c, 6, 57, 27
1, 6324, Note_off_c, 1, 40, 95
1, 6336, Note_off_c, 2, 57, 33
1, 6336, Note_off_c, 0, 45, 95
1, 6336, Note_off_c, 13, 52, 112
1, 6336, Note_off_c, 12, 52, 95
1, 6336, Note_off_c, 13, 49, 100
1, 6336, Note_off_c, 14, 45, 75
1, 6336, Note_on_c, 6, 61, 36
1, 6336, Note_on_c, 2, 61, 49
1, 6420, Note_off_c, 6, 61, 36
1, 6432, Note_off_c, 2, 61, 49
1, 6432, Note_on_c, 6, 64, 45
1, 6432, Note_on_c, 2, 64, 67
1, 6516, Note_off_c, 6, 64, 45
1, 6528, Note_off_c, 2, 64, 67
1, 6528, Note_on_c, 6, 69, 56
1, 6528, Note_on_c, 2, 69, 83
1, 6612, Note_off_c, 6, 69, 56
1, 6656, Note_off_c, 2, 69, 83
1, 6720, Note_on_c, 14, 45, 56
1, 6720, Note_on_c, 13, 49, 116
1, 6720, Note_on_c, 12, 53, 112
1, 6720, Note_on_c, 13, 53, 112
1, 6720, Note_on_c, 1, 41, 112
1, 6720, Note_on_c, 0, 45, 112
1, 6720, Note_on_c, 9, 38, 75
1, 6720, Note_on_c, 9, 36, 66
1, 6724, Note_off_c, 9, 36, 66
1, 6724, Note_off_c, 9, 38, 75
1, 6828, System_exclusive, 73, 65, 16, 69, 18, 16, 1, 0, 0, 3, 20, 20, 23, 30, 22, 23, 20, 3, 2, 2, 2, 2, 3, 0, 0, 16, 31, 25, 25, 25, 25, 25, 0, 27, 10, 10, 10, 10, 26, 0, 0, 28, 23, 22, 22, 23, 28, 0, 3, 24, 8, 8, 8, 8, 8, 0, 0, 0, 31, 0, 0, 31, 31, 31, 31, 0, 0, 0, 0, 0, 0, 0, 71, 247
1, 6900, Note_off_c, 1, 41, 112
1, 6912, Note_off_c, 0, 45, 112
1, 6912, Note_off_c, 13, 53, 112
1, 6912, Note_off_c, 12, 53, 112
1, 6912, Note_off_c, 13, 49, 116
1, 6912, Note_off_c, 14, 45, 56
1, 7008, Note_on_c, 8, 81, 116
1, 7008, Note_on_c, 2, 73, 103
1, 7008, Note_on_c, 2, 77, 103
1, 7008, Note_on_c, 2, 81, 103
1, 7088, Note_off_c, 2, 81, 103
1, 7088, Note_off_c, 2, 77, 103
1, 7088, Note_off_c, 2, 73, 103
1, 7097, Note_off_c, 8, 81, 116
1, 7104, Note_on_c, 8, 85, 127
1, 7104, Note_on_c, 5, 77, 108
1, 7104, Note_on_c, 5, 81, 108
1, 7104, Note_on_c, 5, 85, 108
1, 7104, Note_on_c, 2, 45, 103
1, 7104, Note_on_c, 2, 57, 103
1, 7104, Note_on_c, 2, 69, 103
1, 7104, Note_on_c, 2, 73, 76
1, 7104, Note_on_c, 2, 77, 88
1, 7104, Note_on_c, 2, 81, 88
1, 7104, Note_on_c, 2, 85, 103
1, 7200, Note_off_c, 5, 85, 108
1, 7200, Note_off_c, 5, 81, 108
1, 7200, Note_off_c, 5, 77, 108
1, 7224, Note_off_c, 8, 85, 127
1, 7232, Note_off_c, 2, 85, 103
1, 7232, Note_off_c, 2, 81, 88
1, 7232, Note_off_c, 2, 77, 88
1, 7232, Note_off_c, 2, 73, 76
1, 7232, Note_off_c, 2, 69, 103
1, 7232, Note_off_c, 2, 57, 103
1, 7232, Note_off_c, 2, 45, 103
1, 7296, Note_on_c, 14, 45, 75
1, 7296, Note_on_c, 13, 49, 116
1, 7296, Note_on_c, 12, 54, 116
1, 7296, Note_on_c, 13, 54, 116
1, 7296, Note_on_c, 1, 42, 116
1, 7296, Note_on_c, 0, 45, 112
1, 7296, Note_on_c, 9, 36, 66
1, 7296, Note_on_c, 9, 38, 75
1, 7300, Note_off_c, 9, 38, 75
1, 7300, Note_off_c, 9, 36, 66
1, 7476, Note_off_c, 1, 42, 116
1, 7488, Note_off_c, 0, 45, 112
1, 7488, Note_off_c, 13, 54, 116
1, 7488, Note_off_c, 12, 54, 116
1, 7488, Note_off_c, 13, 49, 116
1, 7488, Note_off_c, 14, 45, 75
1, 7680, Note_on_c, 14, 45, 108
1, 7680, Note_on_c, 13, 49, 116
1, 7680, Note_on_c, 12, 52, 112
1, 7680, Note_on_c, 13, 52, 112
1, 7680, Note_on_c, 10, 69, 97
1, 7680, Note_on_c, 10, 73, 97
1, 7680, Note_on_c, 8, 88, 127
1, 7680, Note_on_c, 10, 76, 97
1, 7680, Note_on_c, 5, 81, 108
1, 7680, Note_on_c, 5, 85, 108
1, 7680, Note_on_c, 5, 88, 108
1, 7680, Note_on_c, 2, 45, 103
1, 7680, Note_on_c, 2, 57, 103
1, 7680, Note_on_c, 2, 69, 103
1, 7680, Note_on_c, 2, 73, 103
1, 7680, Note_on_c, 2, 76, 103
1, 7680, Note_on_c, 2, 81, 103
1, 7680, Note_on_c, 2, 85, 103
1, 7680, Note_on_c, 2, 88, 103
1, 7680, Note_on_c, 1, 40, 112
1, 7680, Note_on_c, 0, 45, 112
1, 7680, Note_on_c, 9, 38, 75
1, 7680, Note_on_c, 9, 36, 66
1, 7684, Note_off_c, 9, 36, 66
1, 7684, Note_off_c, 9, 38, 75
1, 7776, Note_off_c, 5, 88, 108
1, 7776, Note_off_c, 5, 85, 108
1, 7776, Note_off_c, 5, 81, 108
1, 7808, Note_off_c, 2, 88, 103
1, 7808, Note_off_c, 2, 85, 103
1, 7808, Note_off_c, 2, 81, 103
1, 7808, Note_off_c, 2, 76, 103
1, 7808, Note_off_c, 2, 73, 103
1, 7808, Note_off_c, 2, 69, 103
1, 7808, Note_off_c, 2, 57, 103
1, 7808, Note_off_c, 2, 45, 103
1, 7808, Note_off_c, 10, 76, 97
1, 7808, Note_off_c, 10, 73, 97
1, 7808, Note_off_c, 10, 69, 97
1, 7860, Note_off_c, 1, 40, 112
1, 7864, Note_off_c, 8, 88, 127
1, 7872, Note_off_c, 0, 45, 112
1, 7872, Note_off_c, 13, 52, 112
1, 7872, Note_off_c, 12, 52, 112
1, 7872, Note_off_c, 13, 49, 116
1, 7872, Note_off_c, 14, 45, 108
1, 8256, Note_on_c, 14, 45, 73
1, 8256, Note_on_c, 13, 49, 116
1, 8256, Note_on_c, 12, 53, 112
1, 8256, Note_on_c, 13, 53, 112
1, 8256, Note_on_c, 1, 41, 112
1, 8256, Note_on_c, 0, 45, 95
1, 8256, Note_on_c, 9, 38, 75
1, 8256, Note_on_c, 9, 36, 66
1, 8260, Note_off_c, 9, 36, 66
1, 8260, Note_off_c, 9, 38, 75
1, 8436, Note_off_c, 1, 41, 112
1, 8448, Note_off_c, 0, 45, 95
1, 8448, Note_off_c, 13, 53, 112
1, 8448, Note_off_c, 12, 53, 112
1, 8448, Note_off_c, 13, 49, 116
1, 8448, Note_off_c, 14, 45, 73
1, 8832, Note_on_c, 14, 45, 94
1, 8832, Note_on_c, 13, 49, 116
1, 8832, Note_on_c, 12, 54, 100
1, 8832, Note_on_c, 13, 54, 116
1, 8832, Note_on_c, 1, 42, 100
1, 8832, Note_on_c, 0, 45, 112
1, 8832, Note_on_c, 9, 36, 66
1, 8832, Note_on_c, 9, 38, 75
1, 8836, Note_off_c, 9, 38, 75
1, 8836, Note_off_c, 9, 36, 66
1, 9012, Note_off_c, 1, 42, 100
1, 9024, Note_off_c, 0, 45, 112
1, 9024, Note_off_c, 13, 54, 116
1, 9024, Note_off_c, 12, 54, 100
1, 9024, Note_off_c, 13, 49, 116
1, 9024, Note_off_c, 14, 45, 94
1, 9216, Note_on_c, 14, 45, 108
1, 9216, Note_on_c, 13, 49, 116
1, 9216, Note_on_c, 12, 55, 112
1, 9216, Note_on_c, 13, 52, 112
1, 9216, Note_on_c, 1, 43, 112
1, 9216, Note_on_c, 0, 45, 112
1, 9216, Note_on_c, 9, 38, 75
1, 9216, Note_on_c, 9, 36, 66
1, 9220, Note_off_c, 9, 36, 66
1, 9220, Note_off_c, 9, 38, 75
1, 9276, System_exclusive, 73, 65, 16, 69, 18, 16, 1, 0, 28, 11, 11, 8, 1, 9, 8, 11, 31, 28, 29, 29, 29, 29, 28, 31, 16, 32, 6, 6, 6, 6, 6, 22, 31, 4, 21, 21, 21, 21, 5, 31, 3, 8, 9, 9, 8, 11, 3, 28, 31, 7, 23, 23, 23, 23, 23, 31, 31, 0, 31, 31, 0, 0, 0, 0, 31, 31, 31, 31, 31, 31, 31, 31, 83, 247
1, 9312, Note_on_c, 6, 57, 27
1, 9312, Note_on_c, 2, 57, 33
1, 9396, Note_off_c, 6, 57, 27
1, 9396, Note_off_c, 1, 43, 112
1, 9408, Note_off_c, 2, 57, 33
1, 9408, Note_off_c, 0, 45, 112
1, 9408, Note_off_c, 13, 52, 112
1, 9408, Note_off_c, 12, 55, 112
1, 9408, Note_off_c, 13, 49, 116
1, 9408, Note_off_c, 14, 45, 108
1, 9408, Note_on_c, 6, 61, 36
1, 9408, Note_on_c, 2, 61, 49
1, 9492, Note_off_c, 6, 61, 36
1, 9504, Note_off_c, 2, 61, 49
1, 9504, Note_on_c, 6, 64, 45
1, 9504, Note_on_c, 2, 64, 67
1, 9588, Note_off_c, 6, 64, 45
1, 9600, Note_off_c, 2, 64, 67
1, 9600, Note_on_c, 6, 69, 56
1, 9600, Note_on_c, 2, 69, 83
1, 9684, Note_off_c, 6, 69, 56
1, 9728, Note_off_c, 2, 69, 83
1, 9792, Note_on_c, 14, 45, 90
1, 9792, Note_on_c, 13, 49, 116
1, 9792, Note_on_c, 12, 54, 116
1, 9792, Note_on_c, 13, 54, 116
1, 9792, Note_on_c, 1, 42, 116
1, 9792, Note_on_c, 0, 45, 112
1, 9792, Note_on_c, 9, 38, 75
1, 9792, Note_on_c, 9, 36, 66
1, 9796, Note_off_c, 9, 36, 66
1, 9796, Note_off_c, 9, 38, 75
1, 9972, Note_off_c, 1, 42, 116
1, 9984, Note_off_c, 0, 45, 112
1, 9984, Note_off_c, 13, 54, 116
1, 9984, Note_off_c, 12, 54, 116
1, 9984, Note_off_c, 13, 49, 116
1, 9984, Note_off_c, 14, 45, 90
1, 10080, Note_on_c, 8, 81, 116
1, 10080, Note_on_c, 2, 73, 103
1, 10080, Note_on_c, 2, 77, 103
1, 10080, Note_on_c, 2, 81, 103
1, 10160, Note_off_c, 2, 81, 103
1, 10160, Note_off_c, 2, 77, 103
1, 10160, Note_off_c, 2, 73, 103
1, 10169, Note_off_c, 8, 81, 116
1, 10176, Note_on_c, 8, 85, 127
1, 10176, Note_on_c, 5, 77, 108
1, 10176, Note_on_c, 5, 81, 108
1, 10176, Note_on_c, 5, 85, 108
1, 10176, Note_on_c, 2, 45, 103
1, 10176, Note_on_c, 2, 57, 103
1, 10176, Note_on_c, 2, 69, 103
1, 10176, Note_on_c, 2, 73, 76
1, 10176, Note_on_c, 2, 77, 88
1, 10176, Note_on_c, 2, 81, 88
1, 10176, Note_on_c, 2, 85, 103
1, 10272, Note_off_c, 5, 85, 108
1, 10272, Note_off_c, 5, 81, 108
1, 10272, Note_off_c, 5, 77, 108
1, 10296, Note_off_c, 8, 85, 127
1, 10304, Note_off_c, 2, 85, 103
1, 10304, Note_off_c, 2, 81, 88
1, 10304, Note_off_c, 2, 77, 88
1, 10304, Note_off_c, 2, 73, 76
1, 10304, Note_off_c, 2, 69, 103
1, 10304, Note_off_c, 2, 57, 103
1, 10304, Note_off_c, 2, 45, 103
1, 10368, Note_on_c, 14, 45, 73
1, 10368, Note_on_c, 13, 49, 116
1, 10368, Note_on_c, 12, 53, 124
1, 10368, Note_on_c, 13, 53, 112
1, 10368, Note_on_c, 1, 41, 124
1, 10368, Note_on_c, 0, 45, 112
1, 10368, Note_on_c, 9, 36, 66
1, 10368, Note_on_c, 9, 38, 75
1, 10372, Note_off_c, 9, 38, 75
1, 10372, Note_off_c, 9, 36, 66
1, 10548, Note_off_c, 1, 41, 124
1, 10560, Note_off_c, 0, 45, 112
1, 10560, Note_off_c, 13, 53, 112
1, 10560, Note_off_c, 12, 53, 124
1, 10560, Note_off_c, 13, 49, 116
1, 10560, Note_off_c, 14, 45, 73
1, 10560, Control_c, 15, 1, 15
1, 10752, Note_on_c, 15, 64, 127
1, 10752, Note_on_c, 14, 45, 29
1, 10752, Note_on_c, 13, 49, 116
1, 10752, Note_on_c, 12, 52, 112
1, 10752, Note_on_c, 13, 52, 112
1, 10752, Note_on_c, 10, 69, 97
1, 10752, Note_on_c, 10, 73, 97
1, 10752, Note_on_c, 8, 88, 127
1, 10752, Note_on_c, 10, 76, 97
1, 10752, Note_on_c, 5, 81, 108
1, 10752, Note_on_c, 5, 85, 108
1, 10752, Note_on_c, 5, 88, 108
1, 10752, Note_on_c, 2, 45, 103
1, 10752, Note_on_c, 2, 57, 103
1, 10752, Note_on_c, 2, 69, 103
1, 10752, Note_on_c, 2, 73, 103
1, 10752, Note_on_c, 2, 76, 103
1, 10752, Note_on_c, 2, 81, 103
1, 10752, Note_on_c, 2, 85, 103
1, 10752, Note_on_c, 2, 88, 103
1, 10752, Note_on_c, 1, 40, 112
1, 10752, Note_on_c, 0, 45, 95
1, 10752, Note_on_c, 9, 38, 75
1, 10752, Note_on_c, 9, 36, 66
1, 10756, Note_off_c, 9, 36, 66
1, 10756, Note_off_c, 9, 38, 75
1, 10848, Note_off_c, 5, 88, 108
1, 10848, Note_off_c, 5, 85, 108
1, 10848, Note_off_c, 5, 81, 108
1, 10880, Note_off_c, 2, 88, 103
1, 10880, Note_off_c, 2, 85, 103
1, 10880, Note_off_c, 2, 81, 103
1, 10880, Note_off_c, 2, 76, 103
1, 10880, Note_off_c, 2, 73, 103
1, 10880, Note_off_c, 2, 69, 103
1, 10880, Note_off_c, 2, 57, 103
1, 10880, Note_off_c, 2, 45, 103
1, 10880, Note_off_c, 10, 76, 97
1, 10880, Note_off_c, 10, 73, 97
1, 10880, Note_off_c, 10, 69, 97
1, 10920, Note_off_c, 15, 64, 127
1, 10932, Note_off_c, 1, 40, 112
1, 10936, Note_off_c, 8, 88, 127
1, 10944, Note_off_c, 0, 45, 95
1, 10944, Note_off_c, 13, 52, 112
1, 10944, Note_off_c, 12, 52, 112
1, 10944, Note_off_c, 13, 49, 116
1, 10944, Note_off_c, 14, 45, 29
1, 11208, System_exclusive, 73, 65, 16, 69, 18, 16, 1, 0, 0, 3, 20, 20, 23, 30, 22, 23, 20, 3, 2, 2, 2, 2, 3, 0, 0, 16, 31, 25, 25, 25, 25, 25, 0, 27, 10, 10, 10, 10, 26, 0, 0, 28, 23, 22, 22, 23, 28, 0, 3, 24, 8, 8, 8, 8, 8, 0, 0, 0, 31, 0, 0, 31, 31, 31, 31, 0, 0, 0, 0, 0, 0, 0, 71, 247
1, 11328, Note_on_c, 15, 61, 112
1, 11328, Note_on_c, 14, 45, 31
1, 11328, Note_on_c, 13, 49, 116
1, 11328, Note_on_c, 12, 53, 112
1, 11328, Note_on_c, 13, 53, 95
1, 11328, Note_on_c, 1, 41, 112
1, 11328, Note_on_c, 0, 45, 95
1, 11328, Note_on_c, 9, 38, 75
1, 11328, Note_on_c, 9, 36, 66
1, 11332, Note_off_c, 9, 36, 66
1, 11332, Note_off_c, 9, 38, 75
1, 11508, Note_off_c, 1, 41, 112
1, 11520, Note_off_c, 0, 45, 95
1, 11520, Note_off_c, 13, 53, 95
1, 11520, Note_off_c, 12, 53, 112
1, 11520, Note_off_c, 13, 49, 116
1, 11520, Note_off_c, 14, 45, 31
1, 11688, Note_off_c, 15, 61, 112
1, 11712, Note_on_c, 15, 62, 112
1, 11832, Note_off_c, 15, 62, 112
1, 11904, Note_on_c, 15, 64, 124
1, 11904, Note_on_c, 14, 45, 57
1, 11904, Note_on_c, 13, 49, 100
1, 11904, Note_on_c, 12, 54, 116
1, 11904, Note_on_c, 13, 54, 116
1, 11904, Note_on_c, 1, 42, 116
1, 11904, Note_on_c, 0, 45, 95
1, 11904, Note_on_c, 9, 36, 66
1, 11904, Note_on_c, 9, 38, 75
1, 11908, Note_off_c, 9, 38, 75
1, 11908, Note_off_c, 9, 36, 66
1, 12024, Note_off_c, 15, 64, 124
1, 12084, Note_off_c, 1, 42, 116
1, 12096, Note_off_c, 0, 45, 95
1, 12096, Note_off_c, 13, 54, 116
1, 12096, Note_off_c, 12, 54, 116
1, 12096, Note_off_c, 13, 49, 100
1, 12096, Note_off_c, 14, 45, 57
1, 12096, Note_on_c, 15, 64, 112
1, 12264, Note_off_c, 15, 64, 112
1, 12288, Pitch_bend_c, 15, 7360
1, 12288, Note_on_c, 15, 69, 112
1, 12288, Note_on_c, 14, 45, 75
1, 12288, Note_on_c, 13, 49, 100
1, 12288, Note_on_c, 12, 52, 95
1, 12288, Note_on_c, 13, 52, 112
1, 12288, Note_on_c, 1, 40, 95
1, 12288, Note_on_c, 0, 45, 95
1, 12288, Note_on_c, 9, 38, 75
1, 12288, Note_on_c, 9, 36, 66
1, 12292, Note_off_c, 9, 36, 66
1, 12292, Note_off_c, 9, 38, 75
1, 12298, Pitch_bend_c, 15, 7296
1, 12308, Pitch_bend_c, 15, 7424
1, 12318, Pitch_bend_c, 15, 7488
1, 12328, Pitch_bend_c, 15, 7552
1, 12338, Pitch_bend_c, 15, 7616
1, 12348, Pitch_bend_c, 15, 7680
1, 12358, Pitch_bend_c, 15, 7744
1, 12368, Pitch_bend_c, 15, 7808
1, 12378, Pitch_bend_c, 15, 7872
1, 12384, Note_on_c, 6, 57, 27
1, 12384, Note_on_c, 2, 57, 33
1, 12388, Pitch_bend_c, 15, 7936
1, 12398, Pitch_bend_c, 15, 8000
1, 12408, Pitch_bend_c, 15, 8064
1, 12418, Pitch_bend_c, 15, 8128
1, 12428, Pitch_bend_c, 15, 8192
1, 12456, Note_off_c, 15, 69, 112
1, 12468, Note_off_c, 6, 57, 27
1, 12468, Note_off_c, 1, 40, 95
1, 12480, Note_off_c, 2, 57, 33
1, 12480, Note_off_c, 0, 45, 95
1, 12480, Note_off_c, 13, 52, 112
1, 12480, Note_off_c, 12, 52, 95
1, 12480, Note_off_c, 13, 49, 100
1, 12480, Note_off_c, 14, 45, 75
1, 12480, Note_on_c, 6, 61, 36
1, 12480, Note_on_c, 2, 61, 49
1, 12564, Note_off_c, 6, 61, 36
1, 12576, Note_off_c, 2, 61, 49
1, 12576, Note_on_c, 6, 64, 45
1, 12576, Note_on_c, 2, 64, 67
1, 12660, Note_off_c, 6, 64, 45
1, 12672, Note_off_c, 2, 64, 67
1, 12672, Note_on_c, 15, 64, 112
1, 12672, Note_on_c, 6, 69, 56
1, 12672, Note_on_c, 2, 69, 83
1, 12756, Note_off_c, 6, 69, 56
1, 12800, Note_off_c, 2, 69, 83
1, 12840, Note_off_c, 15, 64, 112
1, 12864, Note_on_c, 15, 62, 124
1, 12864, Note_on_c, 14, 45, 56
1, 12864, Note_on_c, 13, 49, 116
1, 12864, Note_on_c, 12, 53, 112
1, 12864, Note_on_c, 13, 53, 112
1, 12864, Note_on_c, 1, 41, 112
1, 12864, Note_on_c, 0, 45, 112
1, 12864, Note_on_c, 9, 38, 75
1, 12864, Note_on_c, 9, 36, 65
1, 12868, Note_off_c, 9, 36, 65
1, 12868, Note_off_c, 9, 38, 75
1, 13032, Note_off_c, 15, 62, 124
1, 13044, Note_off_c, 1, 41, 112
1, 13056, Note_off_c, 0, 45, 112
1, 13056, Note_off_c, 13, 53, 112
1, 13056, Note_off_c, 12, 53, 112
1, 13056, Note_off_c, 13, 49, 116
1, 13056, Note_off_c, 14, 45, 56
1, 13152, Note_on_c, 8, 81, 116
1, 13152, Note_on_c, 2, 73, 103
1, 13152, Note_on_c, 2, 77, 103
1, 13152, Note_on_c, 2, 81, 103
1, 13232, Note_off_c, 2, 81, 103
1, 13232, Note_off_c, 2, 77, 103
1, 13232, Note_off_c, 2, 73, 103
1, 13241, Note_off_c, 8, 81, 116
1, 13248, Note_on_c, 15, 61, 109
1, 13248, Note_on_c, 8, 85, 127
1, 13248, Note_on_c, 5, 77, 108
1, 13248, Note_on_c, 5, 81, 108
1, 13248, Note_on_c, 5, 85, 108
1, 13248, Note_on_c, 2, 45, 103
1, 13248, Note_on_c, 2, 57, 103
1, 13248, Note_on_c, 2, 69, 103
1, 13248, Note_on_c, 2, 73, 76
1, 13248, Note_on_c, 2, 77, 88
1, 13248, Note_on_c, 2, 81, 88
1, 13248, Note_on_c, 2, 85, 103
1, 13344, Note_off_c, 5, 85, 108
1, 13344, Note_off_c, 5, 81, 108
1, 13344, Note_off_c, 5, 77, 108
1, 13368, Note_off_c, 8, 85, 127
1, 13376, Note_off_c, 2, 85, 103
1, 13376, Note_off_c, 2, 81, 88
1, 13376, Note_off_c, 2, 77, 88
1, 13376, Note_off_c, 2, 73, 76
1, 13376, Note_off_c, 2, 69, 103
1, 13376, Note_off_c, 2, 57, 103
1, 13376, Note_off_c, 2, 45, 103
1, 13416, Note_off_c, 15, 61, 109
1, 13440, Note_on_c, 15, 57, 111
1, 13440, Note_on_c, 14, 45, 75
1, 13440, Note_on_c, 13, 49, 116
1, 13440, Note_on_c, 12, 54, 116
1, 13440, Note_on_c, 13, 54, 116
1, 13440, Note_on_c, 1, 42, 116
1, 13440, Note_on_c, 0, 45, 112
1, 13440, Note_on_c, 9, 36, 65
1, 13440, Note_on_c, 9, 38, 75
1, 13444, Note_off_c, 9, 38, 75
1, 13444, Note_off_c, 9, 36, 65
1, 13560, Note_off_c, 15, 57, 111
1, 13620, Note_off_c, 1, 42, 116
1, 13632, Note_off_c, 0, 45, 112
1, 13632, Note_off_c, 13, 54, 116
1, 13632, Note_off_c, 12, 54, 116
1, 13632, Note_off_c, 13, 49, 116
1, 13632, Note_off_c, 14, 45, 75
1, 13632, Note_on_c, 15, 52, 81
1, 13752, Note_off_c, 15, 52, 81
1, 13824, Note_on_c, 14, 45, 108
1, 13824, Note_on_c, 13, 49, 116
1, 13824, Note_on_c, 12, 52, 112
1, 13824, Note_on_c, 13, 52, 112
1, 13824, Note_on_c, 10, 69, 97
1, 13824, Note_on_c, 10, 73, 97
1, 13824, Note_on_c, 8, 88, 127
1, 13824, Note_on_c, 10, 76, 97
1, 13824, Note_on_c, 5, 81, 108
1, 13824, Note_on_c, 5, 85, 108
1, 13824, Note_on_c, 5, 88, 108
1, 13824, Note_on_c, 2, 45, 103
1, 13824, Note_on_c, 2, 57, 103
1, 13824, Note_on_c, 2, 69, 103
1, 13824, Note_on_c, 2, 73, 103
1, 13824, Note_on_c, 2, 76, 103
1, 13824, Note_on_c, 2, 81, 103
1, 13824, Note_on_c, 2, 85, 103
1, 13824, Note_on_c, 2, 88, 103
1, 13824, Note_on_c, 1, 40, 112
1, 13824, Note_on_c, 0, 45, 112
1, 13824, Note_on_c, 9, 38, 75
1, 13824, Note_on_c, 9, 36, 65
1, 13828, Note_off_c, 9, 36, 65
1, 13828, Note_off_c, 9, 38, 75
1, 13920, Note_off_c, 5, 88, 108
1, 13920, Note_off_c, 5, 85, 108
1, 13920, Note_off_c, 5, 81, 108
1, 13952, Note_off_c, 2, 88, 103
1, 13952, Note_off_c, 2, 85, 103
1, 13952, Note_off_c, 2, 81, 103
1, 13952, Note_off_c, 2, 76, 103
1, 13952, Note_off_c, 2, 73, 103
1, 13952, Note_off_c, 2, 69, 103
1, 13952, Note_off_c, 2, 57, 103
1, 13952, Note_off_c, 2, 45, 103
1, 13952, Note_off_c, 10, 76, 97
1, 13952, Note_off_c, 10, 73, 97
1, 13952, Note_off_c, 10, 69, 97
1, 14004, Note_off_c, 1, 40, 112
1, 14008, Note_off_c, 8, 88, 127
1, 14016, Note_off_c, 0, 45, 112
1, 14016, Note_off_c, 13, 52, 112
1, 14016, Note_off_c, 12, 52, 112
1, 14016, Note_off_c, 13, 49, 116
1, 14016, Note_off_c, 14, 45, 108
1, 14208, Note_on_c, 15, 64, 112
1, 14328, Note_off_c, 15, 64, 112
1, 14400, Note_on_c, 15, 61, 112
1, 14400, Note_on_c, 14, 45, 73
1, 14400, Note_on_c, 13, 49, 116
1, 14400, Note_on_c, 12, 53, 112
1, 14400, Note_on_c, 13, 53, 112
1, 14400, Note_on_c, 1, 41, 112
1, 14400, Note_on_c, 0, 45, 95
1, 14400, Note_on_c, 9, 38, 75
1, 14400, Note_on_c, 9, 36, 65
1, 14404, Note_off_c, 9, 36, 65
1, 14404, Note_off_c, 9, 38, 75
1, 14580, Note_off_c, 1, 41, 112
1, 14592, Note_off_c, 0, 45, 95
1, 14592, Note_off_c, 13, 53, 112
1, 14592, Note_off_c, 12, 53, 112
1, 14592, Note_off_c, 13, 49, 116
1, 14592, Note_off_c, 14, 45, 73
1, 14760, Note_off_c, 15, 61, 112
1, 14784, Note_on_c, 15, 62, 112
1, 14904, Note_off_c, 15, 62, 112
1, 14976, Note_on_c, 15, 64, 124
1, 14976, Note_on_c, 14, 45, 94
1, 14976, Note_on_c, 13, 49, 116
1, 14976, Note_on_c, 12, 54, 100
1, 14976, Note_on_c, 13, 54, 116
1, 14976, Note_on_c, 1, 42, 100
1, 14976, Note_on_c, 0, 45, 112
1, 14976, Note_on_c, 9, 36, 65
1, 14976, Note_on_c, 9, 38, 75
1, 14980, Note_off_c, 9, 38, 75
1, 14980, Note_off_c, 9, 36, 65
1, 15096, Note_off_c, 15, 64, 124
1, 15156, Note_off_c, 1, 42, 100
1, 15168, Note_off_c, 0, 45, 112
1, 15168, Note_off_c, 13, 54, 116
1, 15168, Note_off_c, 12, 54, 100
1, 15168, Note_off_c, 13, 49, 116
1, 15168, Note_off_c, 14, 45, 94
1, 15168, Note_on_c, 15, 64, 112
1, 15336, Note_off_c, 15, 64, 112
1, 15360, Pitch_bend_c, 15, 7360
1, 15360, Note_on_c, 15, 69, 112
1, 15360, Note_on_c, 14, 45, 108
1, 15360, Note_on_c, 13, 49, 116
1, 15360, Note_on_c, 12, 55, 112
1, 15360, Note_on_c, 13, 52, 112
1, 15360, Note_on_c, 1, 43, 112
1, 15360, Note_on_c, 0, 45, 112
1, 15360, Note_on_c, 9, 38, 75
1, 15360, Note_on_c, 9, 36, 65
1, 15364, Note_off_c, 9, 36, 65
1, 15364, Note_off_c, 9, 38, 75
1, 15370, Pitch_bend_c, 15, 7296
1, 15380, Pitch_bend_c, 15, 7424
1, 15390, Pitch_bend_c, 15, 7488
1, 15400, Pitch_bend_c, 15, 7552
1, 15410, Pitch_bend_c, 15, 7616
1, 15420, Pitch_bend_c, 15, 7680
1, 15430, Pitch_bend_c, 15, 7744
1, 15440, Pitch_bend_c, 15, 7808
1, 15450, Pitch_bend_c, 15, 7872
1, 15456, Note_on_c, 6, 57, 27
1, 15456, Note_on_c, 2, 57, 33
1, 15460, Pitch_bend_c, 15, 7936
1, 15470, Pitch_bend_c, 15, 8000
1, 15480, Pitch_bend_c, 15, 8064
1, 15490, Pitch_bend_c, 15, 8128
1, 15500, Pitch_bend_c, 15, 8192
1, 15528, Note_off_c, 15, 69, 112
1, 15540, Note_off_c, 6, 57, 27
1, 15540, Note_off_c, 1, 43, 112
1, 15552, Note_off_c, 2, 57, 33
1, 15552, Note_off_c, 0, 45, 112
1, 15552, Note_off_c, 13, 52, 112
1, 15552, Note_off_c, 12, 55, 112
1, 15552, Note_off_c, 13, 49, 116
1, 15552, Note_off_c, 14, 45, 108
1, 15552, Note_on_c, 6, 61, 36
1, 15552, Note_on_c, 2, 61, 49
1, 15636, Note_off_c, 6, 61, 36
1, 15648, Note_off_c, 2, 61, 49
1, 15648, Note_on_c, 6, 64, 45
1, 15648, Note_on_c, 2, 64, 67
1, 15732, Note_off_c, 6, 64, 45
1, 15744, Note_off_c, 2, 64, 67
1, 15744, Note_on_c, 15, 64, 112
1, 15744, Note_on_c, 6, 69, 56
1, 15744, Note_on_c, 2, 69, 83
1, 15828, Note_off_c, 6, 69, 56
1, 15864, Note_off_c, 15, 64, 112
1, 15872, Note_off_c, 2, 69, 83
1, 15936, Note_on_c, 15, 62, 124
1, 15936, Note_on_c, 14, 45, 90
1, 15936, Note_on_c, 13, 49, 116
1, 15936, Note_on_c, 12, 54, 116
1, 15936, Note_on_c, 13, 54, 116
1, 15936, Note_on_c, 1, 42, 116
1, 15936, Note_on_c, 0, 45, 112
1, 15936, Note_on_c, 9, 38, 75
1, 15936, Note_on_c, 9, 36, 65
1, 15940, Note_off_c, 9, 36, 65
1, 15940, Note_off_c, 9, 38, 75
1, 16104, Note_off_c, 15, 62, 124
1, 16116, Note_off_c, 1, 42, 116
1, 16128, Note_off_c, 0, 45, 112
1, 16128, Note_off_c, 13, 54, 116
1, 16128, Note_off_c, 12, 54, 116
1, 16128, Note_off_c, 13, 49, 116
1, 16128, Note_off_c, 14, 45, 90
1, 16224, Note_on_c, 8, 81, 116
1, 16224, Note_on_c, 2, 73, 103
1, 16224, Note_on_c, 2, 77, 103
1, 16224, Note_on_c, 2, 81, 103
1, 16304, Note_off_c, 2, 81, 103
1, 16304, Note_off_c, 2, 77, 103
1, 16304, Note_off_c, 2, 73, 103
1, 16313, Note_off_c, 8, 81, 116
1, 16320, Note_on_c, 15, 61, 109
1, 16320, Note_on_c, 8, 85, 127
1, 16320, Note_on_c, 5, 77, 108
1, 16320, Note_on_c, 5, 81, 108
1, 16320, Note_on_c, 5, 85, 108
1, 16320, Note_on_c, 2, 45, 103
1, 16320, Note_on_c, 2, 57, 103
1, 16320, Note_on_c, 2, 69, 103
1, 16320, Note_on_c, 2, 73, 76
1, 16320, Note_on_c, 2, 77, 88
1, 16320, Note_on_c, 2, 81, 88
1, 16320, Note_on_c, 2, 85, 103
1, 16416, Note_off_c, 5, 85, 108
1, 16416, Note_off_c, 5, 81, 108
1, 16416, Note_off_c, 5, 77, 108
1, 16440, Note_off_c, 8, 85, 127
1, 16440, Note_off_c, 15, 61, 109
1, 16448, Note_off_c, 2, 85, 103
1, 16448, Note_off_c, 2, 81, 88
1, 16448, Note_off_c, 2, 77, 88
1, 16448, Note_off_c, 2, 73, 76
1, 16448, Note_off_c, 2, 69, 103
1, 16448, Note_off_c, 2, 57, 103
1, 16448, Note_off_c, 2, 45, 103
1, 16512, Note_on_c, 15, 57, 111
1, 16512, Note_on_c, 14, 45, 73
1, 16512, Note_on_c, 13, 49, 116
1, 16512, Note_on_c, 12, 53, 124
1, 16512, Note_on_c, 13, 53, 112
1, 16512, Note_on_c, 1, 41, 124
1, 16512, Note_on_c, 0, 45, 112
1, 16512, Note_on_c, 9, 36, 65
1, 16512, Note_on_c, 9, 38, 75
1, 16516, Note_off_c, 9, 38, 75
1, 16516, Note_off_c, 9, 36, 65
1, 16632, Note_off_c, 15, 57, 111
1, 16692, Note_off_c, 1, 41, 124
1, 16704, Note_off_c, 0, 45, 112
1, 16704, Note_off_c, 13, 53, 112
1, 16704, Note_off_c, 12, 53, 124
1, 16704, Note_off_c, 13, 49, 116
1, 16704, Note_off_c, 14, 45, 73
1, 16704, Note_on_c, 15, 52, 81
1, 16824, Note_off_c, 15, 52, 81
1, 16896, Note_on_c, 14, 47, 108
1, 16896, Note_on_c, 13, 50, 124
1, 16896, Note_on_c, 12, 57, 124
1, 16896, Note_on_c, 13, 54, 116
1, 16896, Note_on_c, 10, 71, 97
1, 16896, Note_on_c, 10, 74, 97
1, 16896, Note_on_c, 8, 86, 127
1, 16896, Note_on_c, 10, 78, 97
1, 16896, Note_on_c, 5, 83, 108
1, 16896, Note_on_c, 5, 86, 108
1, 16896, Note_on_c, 5, 90, 108
1, 16896, Note_on_c, 2, 47, 103
1, 16896, Note_on_c, 2, 59, 103
1, 16896, Note_on_c, 2, 71, 103
1, 16896, Note_on_c, 2, 74, 103
1, 16896, Note_on_c, 2, 78, 103
1, 16896, Note_on_c, 2, 83, 103
1, 16896, Note_on_c, 2, 86, 103
1, 16896, Note_on_c, 2, 90, 103
1, 16896, Note_on_c, 1, 35, 124
1, 16896, Note_on_c, 0, 47, 112
1, 16896, Note_on_c, 9, 38, 75
1, 16896, Note_on_c, 9, 36, 65
1, 16900, Note_off_c, 9, 36, 65
1, 16900, Note_off_c, 9, 38, 75
1, 16992, Note_off_c, 5, 90, 108
1, 16992, Note_off_c, 5, 86, 108
1, 16992, Note_off_c, 5, 83, 108
1, 17024, Note_off_c, 2, 90, 103
1, 17024, Note_off_c, 2, 86, 103
1, 17024, Note_off_c, 2, 83, 103
1, 17024, Note_off_c, 2, 78, 103
1, 17024, Note_off_c, 2, 74, 103
1, 17024, Note_off_c, 2, 71, 103
1, 17024, Note_off_c, 2, 59, 103
1, 17024, Note_off_c, 2, 47, 103
1, 17024, Note_off_c, 10, 78, 97
1, 17024, Note_off_c, 10, 74, 97
1, 17024, Note_off_c, 10, 71, 97
1, 17076, Note_off_c, 1, 35, 124
1, 17080, Note_off_c, 8, 86, 127
1, 17088, Note_off_c, 0, 47, 112
1, 17088, Note_off_c, 13, 54, 116
1, 17088, Note_off_c, 12, 57, 124
1, 17088, Note_off_c, 13, 50, 124
1, 17088, Note_off_c, 14, 47, 108
1, 17088, Note_on_c, 15, 64, 112
1, 17208, Note_off_c, 15, 64, 112
1, 17472, Note_on_c, 15, 61, 112
1, 17472, Note_on_c, 13, 50, 112
1, 17472, Note_on_c, 12, 59, 119
1, 17472, Note_on_c, 13, 54, 116
1, 17472, Note_on_c, 1, 35, 95
1, 17472, Note_on_c, 0, 47, 112
1, 17472, Note_on_c, 9, 38, 75
1, 17472, Note_on_c, 9, 36, 65
1, 17476, Note_off_c, 9, 36, 65
1, 17476, Note_off_c, 9, 38, 75
1, 17652, Note_off_c, 1, 35, 95
1, 17664, Note_off_c, 0, 47, 112
1, 17664, Note_off_c, 13, 54, 116
1, 17664, Note_off_c, 12, 59, 119
1, 17664, Note_off_c, 13, 50, 112
1, 17832, Note_off_c, 15, 61, 112
1, 17856, Note_on_c, 15, 62, 95
1, 18024, Note_off_c, 15, 62, 95
1, 18048, Note_on_c, 15, 64, 112
1, 18048, Note_on_c, 13, 49, 116
1, 18048, Note_on_c, 12, 56, 95
1, 18048, Note_on_c, 13, 56, 116
1, 18048, Note_on_c, 1, 32, 95
1, 18048, Note_on_c, 0, 47, 112
1, 18048, Note_on_c, 9, 36, 65
1, 18048, Note_on_c, 9, 38, 75
1, 18052, Note_off_c, 9, 38, 75
1, 18052, Note_off_c, 9, 36, 65
1, 18168, Note_off_c, 15, 64, 112
1, 18228, Note_off_c, 1, 32, 95
1, 18240, Note_off_c, 0, 47, 112
1, 18240, Note_off_c, 13, 56, 116
1, 18240, Note_off_c, 12, 56, 95
1, 18240, Note_off_c, 13, 49, 116
1, 18240, Note_on_c, 15, 64, 112
1, 18432, Note_on_c, 14, 40, 66
1, 18432, Note_on_c, 13, 50, 95
1, 18432, Note_on_c, 12, 54, 116
1, 18432, Note_on_c, 13, 57, 112
1, 18432, Note_on_c, 1, 28, 116
1, 18432, Note_on_c, 0, 40, 112
1, 18432, Note_on_c, 9, 38, 75
1, 18432, Note_on_c, 9, 36, 65
1, 18436, Note_off_c, 9, 36, 65
1, 18436, Note_off_c, 9, 38, 75
1, 18528, Note_on_c, 6, 59, 27
1, 18528, Note_on_c, 2, 59, 33
1, 18600, Note_off_c, 15, 64, 112
1, 18612, Note_off_c, 6, 59, 27
1, 18612, Note_off_c, 1, 28, 116
1, 18624, Note_off_c, 2, 59, 33
1, 18624, Note_off_c, 0, 40, 112
1, 18624, Note_off_c, 13, 57, 112
1, 18624, Note_off_c, 12, 54, 116
1, 18624, Note_off_c, 13, 50, 95
1, 18624, Note_off_c, 14, 40, 66
1, 18624, Note_on_c, 15, 71, 112
1, 18624, Note_on_c, 6, 62, 36
1, 18624, Note_on_c, 2, 62, 49
1, 18708, Note_off_c, 6, 62, 36
1, 18720, Note_off_c, 2, 62, 49
1, 18720, Note_on_c, 6, 66, 45
1, 18720, Note_on_c, 2, 66, 67
1, 18804, Note_off_c, 6, 66, 45
1, 18816, Note_off_c, 2, 66, 67
1, 18816, Note_on_c, 6, 71, 56
1, 18816, Note_on_c, 2, 71, 83
1, 18888, Note_off_c, 15, 71, 112
1, 18900, Note_off_c, 6, 71, 56
1, 18944, Note_off_c, 2, 71, 83
1, 19008, Note_on_c, 15, 66, 95
1, 19008, Note_on_c, 14, 40, 66
1, 19008, Note_on_c, 13, 50, 112
1, 19008, Note_on_c, 12, 56, 116
1, 19008, Note_on_c, 13, 57, 112
1, 19008, Note_on_c, 1, 28, 116
1, 19008, Note_on_c, 0, 40, 112
1, 19008, Note_on_c, 9, 38, 75
1, 19008, Note_on_c, 9, 36, 65
1, 19012, Note_off_c, 9, 36, 65
1, 19012, Note_off_c, 9, 38, 75
1, 19176, Note_off_c, 15, 66, 95
1, 19188, Note_off_c, 1, 28, 116
1, 19200, Note_off_c, 0, 40, 112
1, 19200, Note_off_c, 13, 57, 112
1, 19200, Note_off_c, 12, 56, 116
1, 19200, Note_off_c, 13, 50, 112
1, 19200, Note_off_c, 14, 40, 66
1, 19200, Pitch_bend_c, 15, 7360
1, 19200, Note_on_c, 15, 69, 112
1, 19210, Pitch_bend_c, 15, 7296
1, 19220, Pitch_bend_c, 15, 7424
1, 19230, Pitch_bend_c, 15, 7488
1, 19240, Pitch_bend_c, 15, 7552
1, 19250, Pitch_bend_c, 15, 7616
1, 19260, Pitch_bend_c, 15, 7680
1, 19270, Pitch_bend_c, 15, 7744
1, 19280, Pitch_bend_c, 15, 7808
1, 19290, Pitch_bend_c, 15, 7872
1, 19296, Note_on_c, 8, 86, 116
1, 19296, Note_on_c, 2, 78, 103
1, 19296, Note_on_c, 2, 81, 103
1, 19296, Note_on_c, 2, 83, 103
1, 19296, Note_on_c, 2, 86, 103
1, 19300, Pitch_bend_c, 15, 7936
1, 19310, Pitch_bend_c, 15, 8000
1, 19320, Pitch_bend_c, 15, 8064
1, 19330, Pitch_bend_c, 15, 8128
1, 19340, Pitch_bend_c, 15, 8192
1, 19368, Note_off_c, 15, 69, 112
1, 19376, Note_off_c, 2, 81, 103
1, 19376, Note_off_c, 2, 78, 103
1, 19385, Note_off_c, 8, 86, 116
1, 19392, Note_off_c, 2, 86, 103
1, 19392, Note_off_c, 2, 83, 103
1, 19392, Note_on_c, 15, 68, 95
1, 19392, Note_on_c, 8, 88, 127
1, 19392, Note_on_c, 5, 78, 108
1, 19392, Note_on_c, 5, 81, 108
1, 19392, Note_on_c, 5, 85, 108
1, 19392, Note_on_c, 5, 88, 108
1, 19392, Note_on_c, 2, 47, 103
1, 19392, Note_on_c, 2, 59, 103
1, 19392, Note_on_c, 2, 71, 103
1, 19392, Note_on_c, 2, 74, 76
1, 19392, Note_on_c, 2, 78, 88
1, 19392, Note_on_c, 2, 81, 88
1, 19392, Note_on_c, 2, 85, 88
1, 19392, Note_on_c, 2, 88, 103
1, 19488, Note_off_c, 5, 88, 108
1, 19488, Note_off_c, 5, 85, 108
1, 19488, Note_off_c, 5, 81, 108
1, 19488, Note_off_c, 5, 78, 108
1, 19512, Note_off_c, 8, 88, 127
1, 19520, Note_off_c, 2, 88, 103
1, 19520, Note_off_c, 2, 85, 88
1, 19520, Note_off_c, 2, 81, 88
1, 19520, Note_off_c, 2, 78, 88
1, 19520, Note_off_c, 2, 74, 76
1, 19520, Note_off_c, 2, 71, 103
1, 19520, Note_off_c, 2, 59, 103
1, 19520, Note_off_c, 2, 47, 103
1, 19560, Note_off_c, 15, 68, 95
1, 19584, Note_on_c, 15, 66, 95
1, 19584, Note_on_c, 14, 40, 66
1, 19584, Note_on_c, 13, 50, 112
1, 19584, Note_on_c, 12, 54, 116
1, 19584, Note_on_c, 13, 56, 100
1, 19584, Note_on_c, 1, 28, 116
1, 19584, Note_on_c, 0, 40, 127
1, 19584, Note_on_c, 9, 36, 65
1, 19584, Note_on_c, 9, 38, 75
1, 19588, Note_off_c, 9, 38, 75
1, 19588, Note_off_c, 9, 36, 65
1, 19764, Note_off_c, 1, 28, 116
1, 19776, Note_off_c, 0, 40, 127
1, 19776, Note_off_c, 13, 56, 100
1, 19776, Note_off_c, 12, 54, 116
1, 19776, Note_off_c, 13, 50, 112
1, 19776, Note_off_c, 14, 40, 66
1, 19944, Note_off_c, 15, 66, 95
1, 19968, Note_on_c, 15, 68, 95
1, 19968, Note_on_c, 14, 45, 66
1, 19968, Note_on_c, 13, 49, 116
1, 19968, Note_on_c, 12, 52, 116
1, 19968, Note_on_c, 13, 52, 112
1, 19968, Note_on_c, 8, 81, 127
1, 19968, Note_on_c, 5, 73, 108
1, 19968, Note_on_c, 5, 76, 108
1, 19968, Note_on_c, 5, 81, 108
1, 19968, Note_on_c, 2, 45, 103
1, 19968, Note_on_c, 2, 57, 103
1, 19968, Note_on_c, 2, 69, 103
1, 19968, Note_on_c, 2, 73, 103
1, 19968, Note_on_c, 2, 76, 103
1, 19968, Note_on_c, 2, 81, 103
1, 19968, Note_on_c, 1, 33, 116
1, 19968, Note_on_c, 0, 45, 127
1, 19968, Note_on_c, 9, 38, 75
1, 19968, Note_on_c, 9, 36, 65
1, 19972, Note_off_c, 9, 36, 65
1, 19972, Note_off_c, 9, 38, 75
1, 20064, Note_off_c, 5, 81, 108
1, 20064, Note_off_c, 5, 76, 108
1, 20064, Note_off_c, 5, 73, 108
1, 20096, Note_off_c, 2, 81, 103
1, 20096, Note_off_c, 2, 76, 103
1, 20096, Note_off_c, 2, 73, 103
1, 20096, Note_off_c, 2, 69, 103
1, 20096, Note_off_c, 2, 57, 103
1, 20096, Note_off_c, 2, 45, 103
1, 20136, Note_off_c, 15, 68, 95
1, 20148, Note_off_c, 1, 33, 116
1, 20152, Note_off_c, 8, 81, 127
1, 20160, Note_off_c, 0, 45, 127
1, 20160, Note_off_c, 13, 52, 112
1, 20160, Note_off_c, 12, 52, 116
1, 20160, Note_off_c, 13, 49, 116
1, 20160, Note_off_c, 14, 45, 66
1, 20160, Pitch_bend_c, 15, 7360
1, 20160, Note_on_c, 15, 69, 127
1, 20160, Note_on_c, 10, 69, 127
1, 20160, Note_on_c, 10, 73, 127
1, 20160, Note_on_c, 10, 76, 127
1, 20160, Note_on_c, 9, 38, 124
1, 20164, Note_off_c, 9, 38, 124
1, 20170, Pitch_bend_c, 15, 7296
1, 20180, Pitch_bend_c, 15, 7424
1, 20190, Pitch_bend_c, 15, 7488
1, 20200, Pitch_bend_c, 15, 7552
1, 20210, Pitch_bend_c, 15, 7616
1, 20220, Pitch_bend_c, 15, 7680
1, 20230, Pitch_bend_c, 15, 7744
1, 20240, Pitch_bend_c, 15, 7808
1, 20250, Pitch_bend_c, 15, 7872
1, 20260, Pitch_bend_c, 15, 7936
1, 20270, Pitch_bend_c, 15, 8000
1, 20280, Pitch_bend_c, 15, 8064
1, 20288, Note_off_c, 10, 76, 127
1, 20288, Note_off_c, 10, 73, 127
1, 20288, Note_off_c, 10, 69, 127
1, 20290, Pitch_bend_c, 15, 8128
1, 20300, Pitch_bend_c, 15, 8192
1, 20544, Note_on_c, 10, 70, 127
1, 20544, Note_on_c, 10, 74, 127
1, 20544, Note_on_c, 10, 77, 127
1, 20544, Note_on_c, 9, 38, 124
1, 20548, Note_off_c, 9, 38, 124
1, 20736, Note_off_c, 10, 77, 127
1, 20736, Note_off_c, 10, 74, 127
1, 20736, Note_off_c, 10, 70, 127
1, 20736, Note_on_c, 10, 71, 127
1, 20736, Note_on_c, 10, 75, 127
1, 20736, Note_on_c, 10, 78, 127
1, 20736, Note_on_c, 9, 38, 112
1, 20740, Note_off_c, 9, 38, 112
1, 20864, Note_off_c, 10, 78, 127
1, 20864, Note_off_c, 10, 75, 127
1, 20864, Note_off_c, 10, 71, 127
1, 21120, Note_on_c, 10, 72, 124
1, 21120, Note_on_c, 10, 76, 124
1, 21120, Note_on_c, 10, 79, 124
1, 21120, Note_on_c, 4, 42, 97
1, 21120, Note_on_c, 1, 42, 116
1, 21120, Note_on_c, 9, 38, 124
1, 21124, Note_off_c, 9, 38, 124
1, 21300, Note_off_c, 1, 42, 116
1, 21312, Note_off_c, 4, 42, 97
1, 21312, Note_off_c, 10, 79, 124
1, 21312, Note_off_c, 10, 76, 124
1, 21312, Note_off_c, 10, 72, 124
1, 21312, Note_on_c, 10, 73, 127
1, 21312, Note_on_c, 10, 77, 127
1, 21312, Note_on_c, 10, 80, 127
1, 21312, Note_on_c, 4, 40, 97
1, 21312, Note_on_c, 1, 40, 116
1, 21312, Note_on_c, 9, 38, 124
1, 21316, Note_off_c, 9, 38, 124
1, 21440, Note_off_c, 10, 80, 127
1, 21440, Note_off_c, 10, 77, 127
1, 21440, Note_off_c, 10, 73, 127
1, 21492, Note_off_c, 1, 40, 116
1, 21504, Note_off_c, 4, 40, 97
1, 21696, Note_on_c, 10, 73, 127
1, 21696, Note_on_c, 10, 77, 127
1, 21696, Note_on_c, 10, 80, 127
1, 21696, Note_on_c, 9, 38, 112
1, 21700, Note_off_c, 9, 38, 112
1, 21824, Note_off_c, 10, 80, 127
1, 21824, Note_off_c, 10, 77, 127
1, 21824, Note_off_c, 10, 73, 127
1, 22080, Note_on_c, 10, 73, 127
1, 22080, Note_on_c, 10, 77, 127
1, 22080, Note_on_c, 10, 80, 127
1, 22080, Note_on_c, 9, 38, 124
1, 22084, Note_off_c, 9, 38, 124
1, 22272, Note_off_c, 10, 80, 127
1, 22272, Note_off_c, 10, 77, 127
1, 22272, Note_off_c, 10, 73, 127
1, 22272, Note_on_c, 10, 72, 123
1, 22272, Note_on_c, 10, 76, 123
1, 22272, Note_on_c, 10, 79, 123
1, 22272, Note_on_c, 4, 35, 91
1, 22272, Note_on_c, 1, 35, 110
1, 22272, Note_on_c, 9, 38, 109
1, 22276, Note_off_c, 9, 38, 109
1, 22400, Note_off_c, 10, 79, 123
1, 22400, Note_off_c, 10, 76, 123
1, 22400, Note_off_c, 10, 72, 123
1, 22452, Note_off_c, 1, 35, 110
1, 22464, Note_off_c, 4, 35, 91
1, 22632, Note_off_c, 15, 69, 127
1, 22656, Note_on_c, 10, 71, 124
1, 22656, Note_on_c, 10, 75, 124
1, 22656, Note_on_c, 10, 78, 124
1, 22656, Note_on_c, 4, 40, 91
1, 22656, Note_on_c, 1, 40, 110
1, 22656, Note_on_c, 9, 38, 95
1, 22660, Note_off_c, 9, 38, 95
1, 22784, Note_off_c, 10, 78, 124
1, 22784, Note_off_c, 10, 75, 124
1, 22784, Note_off_c, 10, 71, 124
1, 22836, Note_off_c, 1, 40, 110
1, 22848, Note_off_c, 4, 40, 91
1, 23040, Note_on_c, 15, 64, 127
1, 23040, Note_on_c, 14, 45, 29
1, 23040, Note_on_c, 13, 49, 116
1, 23040, Note_on_c, 12, 52, 112
1, 23040, Note_on_c, 13, 52, 112
1, 23040, Note_on_c, 10, 69, 97
1, 23040, Note_on_c, 10, 73, 97
1, 23040, Note_on_c, 8, 88, 127
1, 23040, Note_on_c, 10, 76, 97
1, 23040, Note_on_c, 5, 81, 108
1, 23040, Note_on_c, 5, 85, 108
1, 23040, Note_on_c, 5, 88, 108
1, 23040, Note_on_c, 3, 93, 57
1, 23040, Note_on_c, 3, 97, 57
1, 23040, Note_on_c, 3, 100, 57
1, 23040, Note_on_c, 2, 93, 103
1, 23040, Note_on_c, 2, 97, 103
1, 23040, Note_on_c, 2, 100, 103
1, 23040, Note_on_c, 1, 40, 112
1, 23040, Note_on_c, 0, 45, 95
1, 23040, Note_on_c, 9, 38, 75
1, 23040, Note_on_c, 9, 36, 66
1, 23044, Note_off_c, 9, 36, 66
1, 23044, Note_off_c, 9, 38, 75
1, 23136, Note_off_c, 5, 88, 108
1, 23136, Note_off_c, 5, 85, 108
1, 23136, Note_off_c, 5, 81, 108
1, 23168, Note_off_c, 2, 100, 103
1, 23168, Note_off_c, 2, 97, 103
1, 23168, Note_off_c, 2, 93, 103
1, 23168, Note_off_c, 10, 76, 97
1, 23168, Note_off_c, 10, 73, 97
1, 23168, Note_off_c, 10, 69, 97
1, 23208, Note_off_c, 15, 64, 127
1, 23220, Note_off_c, 1, 40, 112
1, 23224, Note_off_c, 8, 88, 127
1, 23232, Note_off_c, 0, 45, 95
1, 23232, Note_off_c, 13, 52, 112
1, 23232, Note_off_c, 12, 52, 112
1, 23232, Note_off_c, 13, 49, 116
1, 23232, Note_off_c, 14, 45, 29
1, 23616, Note_on_c, 15, 64, 112
1, 23616, Note_on_c, 14, 45, 31
1, 23616, Note_on_c, 13, 49, 116
1, 23616, Note_on_c, 12, 53, 112
1, 23616, Note_on_c, 13, 53, 95
1, 23616, Note_on_c, 1, 41, 112
1, 23616, Note_on_c, 0, 45, 95
1, 23616, Note_on_c, 9, 38, 75
1, 23616, Note_on_c, 9, 36, 66
1, 23620, Note_off_c, 9, 36, 66
1, 23620, Note_off_c, 9, 38, 75
1, 23796, Note_off_c, 1, 41, 112
1, 23808, Note_off_c, 0, 45, 95
1, 23808, Note_off_c, 13, 53, 95
1, 23808, Note_off_c, 12, 53, 112
1, 23808, Note_off_c, 13, 49, 116
1, 23808, Note_off_c, 14, 45, 31
1, 23928, Note_off_c, 15, 64, 112
1, 24000, Note_on_c, 15, 64, 112
1, 24120, Note_off_c, 15, 64, 112
1, 24192, Note_on_c, 15, 64, 124
1, 24192, Note_on_c, 14, 45, 57
1, 24192, Note_on_c, 13, 49, 100
1, 24192, Note_on_c, 12, 54, 116
1, 24192, Note_on_c, 13, 54, 116
1, 24192, Note_on_c, 1, 42, 116
1, 24192, Note_on_c, 0, 45, 95
1, 24192, Note_on_c, 9, 36, 66
1, 24192, Note_on_c, 9, 38, 75
1, 24196, Note_off_c, 9, 38, 75
1, 24196, Note_off_c, 9, 36, 66
1, 24312, Note_off_c, 15, 64, 124
1, 24372, Note_off_c, 1, 42, 116
1, 24384, Note_off_c, 0, 45, 95
1, 24384, Note_off_c, 13, 54, 116
1, 24384, Note_off_c, 12, 54, 116
1, 24384, Note_off_c, 13, 49, 100
1, 24384, Note_off_c, 14, 45, 57
1, 24384, Note_on_c, 15, 64, 112
1, 24552, Note_off_c, 15, 64, 112
1, 24576, Pitch_bend_c, 15, 7360
1, 24576, Note_on_c, 15, 69, 112
1, 24576, Note_on_c, 14, 45, 75
1, 24576, Note_on_c, 13, 49, 100
1, 24576, Note_on_c, 12, 52, 95
1, 24576, Note_on_c, 13, 52, 112
1, 24576, Note_on_c, 1, 40, 95
1, 24576, Note_on_c, 0, 45, 95
1, 24576, Note_on_c, 9, 38, 75
1, 24576, Note_on_c, 9, 36, 66
1, 24580, Note_off_c, 9, 36, 66
1, 24580, Note_off_c, 9, 38, 75
1, 24586, Pitch_bend_c, 15, 7296
1, 24596, Pitch_bend_c, 15, 7424
1, 24606, Pitch_bend_c, 15, 7488
1, 24616, Pitch_bend_c, 15, 7552
1, 24626, Pitch_bend_c, 15, 7616
1, 24636, Pitch_bend_c, 15, 7680
1, 24646, Pitch_bend_c, 15, 7744
1, 24656, Pitch_bend_c, 15, 7808
1, 24666, Pitch_bend_c, 15, 7872
1, 24676, Pitch_bend_c, 15, 7936
1, 24686, Pitch_bend_c, 15, 8000
1, 24696, Pitch_bend_c, 15, 8064
1, 24706, Pitch_bend_c, 15, 8128
1, 24716, Pitch_bend_c, 15, 8192
1, 24756, Note_off_c, 1, 40, 95
1, 24768, Note_off_c, 0, 45, 95
1, 24768, Note_off_c, 13, 52, 112
1, 24768, Note_off_c, 12, 52, 95
1, 24768, Note_off_c, 13, 49, 100
1, 24768, Note_off_c, 14, 45, 75
1, 24936, Note_off_c, 15, 69, 112
1, 25152, Note_on_c, 15, 64, 112
1, 25152, Note_on_c, 14, 45, 56
1, 25152, Note_on_c, 13, 49, 116
1, 25152, Note_on_c, 12, 53, 112
1, 25152, Note_on_c, 13, 53, 112
1, 25152, Note_on_c, 1, 41, 112
1, 25152, Note_on_c, 0, 45, 112
1, 25152, Note_on_c, 9, 38, 75
1, 25152, Note_on_c, 9, 36, 65
1, 25156, Note_off_c, 9, 36, 65
1, 25156, Note_off_c, 9, 38, 75
1, 25272, Note_off_c, 15, 64, 112
1, 25332, Note_off_c, 1, 41, 112
1, 25344, Note_off_c, 0, 45, 112
1, 25344, Note_off_c, 13, 53, 112
1, 25344, Note_off_c, 12, 53, 112
1, 25344, Note_off_c, 13, 49, 116
1, 25344, Note_off_c, 14, 45, 56
1, 25344, Note_on_c, 15, 62, 124
1, 25464, Note_off_c, 15, 62, 124
1, 25536, Note_on_c, 15, 61, 109
1, 25656, Note_off_c, 15, 61, 109
1, 25728, Note_on_c, 15, 57, 111
1, 25728, Note_on_c, 14, 45, 75
1, 25728, Note_on_c, 13, 49, 116
1, 25728, Note_on_c, 12, 54, 116
1, 25728, Note_on_c, 13, 54, 116
1, 25728, Note_on_c, 1, 42, 116
1, 25728, Note_on_c, 0, 45, 112
1, 25728, Note_on_c, 9, 36, 65
1, 25728, Note_on_c, 9, 38, 75
1, 25732, Note_off_c, 9, 38, 75
1, 25732, Note_off_c, 9, 36, 65
1, 25848, Note_off_c, 15, 57, 111
1, 25908, Note_off_c, 1, 42, 116
1, 25920, Note_off_c, 0, 45, 112
1, 25920, Note_off_c, 13, 54, 116
1, 25920, Note_off_c, 12, 54, 116
1, 25920, Note_off_c, 13, 49, 116
1, 25920, Note_off_c, 14, 45, 75
1, 26064, Note_off_c, 3, 100, 57
1, 26064, Note_off_c, 3, 97, 57
1, 26064, Note_off_c, 3, 93, 57
1, 26112, Note_on_c, 15, 64, 81
1, 26112, Note_on_c, 14, 45, 108
1, 26112, Note_on_c, 13, 49, 116
1, 26112, Note_on_c, 12, 52, 112
1, 26112, Note_on_c, 13, 52, 112
1, 26112, Note_on_c, 10, 69, 97
1, 26112, Note_on_c, 10, 73, 97
1, 26112, Note_on_c, 8, 88, 127
1, 26112, Note_on_c, 10, 76, 97
1, 26112, Note_on_c, 5, 81, 108
1, 26112, Note_on_c, 5, 85, 108
1, 26112, Note_on_c, 5, 88, 108
1, 26112, Note_on_c, 3, 93, 57
1, 26112, Note_on_c, 3, 97, 57
1, 26112, Note_on_c, 3, 100, 57
1, 26112, Note_on_c, 2, 93, 103
1, 26112, Note_on_c, 2, 97, 103
1, 26112, Note_on_c, 2, 100, 103
1, 26112, Note_on_c, 1, 40, 112
1, 26112, Note_on_c, 0, 45, 112
1, 26112, Note_on_c, 9, 38, 75
1, 26112, Note_on_c, 9, 36, 65
1, 26116, Note_off_c, 9, 36, 65
1, 26116, Note_off_c, 9, 38, 75
1, 26208, Note_off_c, 5, 88, 108
1, 26208, Note_off_c, 5, 85, 108
1, 26208, Note_off_c, 5, 81, 108
1, 26232, Note_off_c, 15, 64, 81
1, 26240, Note_off_c, 2, 100, 103
1, 26240, Note_off_c, 2, 97, 103
1, 26240, Note_off_c, 2, 93, 103
1, 26240, Note_off_c, 10, 76, 97
1, 26240, Note_off_c, 10, 73, 97
1, 26240, Note_off_c, 10, 69, 97
1, 26292, Note_off_c, 1, 40, 112
1, 26296, Note_off_c, 8, 88, 127
1, 26304, Note_off_c, 0, 45, 112
1, 26304, Note_off_c, 13, 52, 112
1, 26304, Note_off_c, 12, 52, 112
1, 26304, Note_off_c, 13, 49, 116
1, 26304, Note_off_c, 14, 45, 108
1, 26496, Note_on_c, 15, 64, 112
1, 26616, Note_off_c, 15, 64, 112
1, 26688, Note_on_c, 15, 61, 112
1, 26688, Note_on_c, 14, 45, 73
1, 26688, Note_on_c, 13, 49, 116
1, 26688, Note_on_c, 12, 53, 112
1, 26688, Note_on_c, 13, 53, 112
1, 26688, Note_on_c, 1, 41, 112
1, 26688, Note_on_c, 0, 45, 95
1, 26688, Note_on_c, 9, 38, 75
1, 26688, Note_on_c, 9, 36, 65
1, 26692, Note_off_c, 9, 36, 65
1, 26692, Note_off_c, 9, 38, 75
1, 26868, Note_off_c, 1, 41, 112
1, 26880, Note_off_c, 0, 45, 95
1, 26880, Note_off_c, 13, 53, 112
1, 26880, Note_off_c, 12, 53, 112
1, 26880, Note_off_c, 13, 49, 116
1, 26880, Note_off_c, 14, 45, 73
1, 27048, Note_off_c, 15, 61, 112
1, 27072, Note_on_c, 15, 62, 112
1, 27192, Note_off_c, 15, 62, 112
1, 27264, Note_on_c, 15, 64, 124
1, 27264, Note_on_c, 14, 45, 94
1, 27264, Note_on_c, 13, 49, 116
1, 27264, Note_on_c, 12, 54, 100
1, 27264, Note_on_c, 13, 54, 116
1, 27264, Note_on_c, 1, 42, 100
1, 27264, Note_on_c, 0, 45, 112
1, 27264, Note_on_c, 9, 36, 65
1, 27264, Note_on_c, 9, 38, 75
1, 27268, Note_off_c, 9, 38, 75
1, 27268, Note_off_c, 9, 36, 65
1, 27384, Note_off_c, 15, 64, 124
1, 27444, Note_off_c, 1, 42, 100
1, 27456, Note_off_c, 0, 45, 112
1, 27456, Note_off_c, 13, 54, 116
1, 27456, Note_off_c, 12, 54, 100
1, 27456, Note_off_c, 13, 49, 116
1, 27456, Note_off_c, 14, 45, 94
1, 27456, Note_on_c, 15, 64, 112
1, 27576, Note_off_c, 15, 64, 112
1, 27648, Pitch_bend_c, 15, 7360
1, 27648, Note_on_c, 15, 73, 124
1, 27648, Note_on_c, 14, 45, 108
1, 27648, Note_on_c, 13, 49, 116
1, 27648, Note_on_c, 12, 55, 112
1, 27648, Note_on_c, 13, 52, 112
1, 27648, Note_on_c, 1, 43, 112
1, 27648, Note_on_c, 0, 45, 112
1, 27648, Note_on_c, 9, 38, 75
1, 27648, Note_on_c, 9, 36, 65
1, 27652, Note_off_c, 9, 36, 65
1, 27652, Note_off_c, 9, 38, 75
1, 27658, Pitch_bend_c, 15, 7296
1, 27668, Pitch_bend_c, 15, 7424
1, 27678, Pitch_bend_c, 15, 7488
1, 27688, Pitch_bend_c, 15, 7552
1, 27698, Pitch_bend_c, 15, 7616
1, 27708, Pitch_bend_c, 15, 7680
1, 27718, Pitch_bend_c, 15, 7744
1, 27728, Pitch_bend_c, 15, 7808
1, 27738, Pitch_bend_c, 15, 7872
1, 27748, Pitch_bend_c, 15, 7936
1, 27758, Pitch_bend_c, 15, 8000
1, 27768, Pitch_bend_c, 15, 8064
1, 27778, Pitch_bend_c, 15, 8128
1, 27788, Pitch_bend_c, 15, 8192
1, 27828, Note_off_c, 1, 43, 112
1, 27840, Note_off_c, 0, 45, 112
1, 27840, Note_off_c, 13, 52, 112
1, 27840, Note_off_c, 12, 55, 112
1, 27840, Note_off_c, 13, 49, 116
1, 27840, Note_off_c, 14, 45, 108
1, 27888, Note_off_c, 15, 73, 124
1, 27936, Note_on_c, 15, 73, 109
1, 28152, Note_off_c, 15, 73, 109
1, 28224, Note_on_c, 15, 73, 111
1, 28224, Note_on_c, 14, 45, 90
1, 28224, Note_on_c, 13, 49, 116
1, 28224, Note_on_c, 12, 54, 116
1, 28224, Note_on_c, 13, 54, 116
1, 28224, Note_on_c, 1, 42, 116
1, 28224, Note_on_c, 0, 45, 112
1, 28224, Note_on_c, 9, 38, 75
1, 28224, Note_on_c, 9, 36, 65
1, 28228, Note_off_c, 9, 36, 65
1, 28228, Note_off_c, 9, 38, 75
1, 28344, Note_off_c, 15, 73, 111
1, 28404, Note_off_c, 1, 42, 116
1, 28416, Note_off_c, 0, 45, 112
1, 28416, Note_off_c, 13, 54, 116
1, 28416, Note_off_c, 12, 54, 116
1, 28416, Note_off_c, 13, 49, 116
1, 28416, Note_off_c, 14, 45, 90
1, 28416, Note_on_c, 15, 73, 112
1, 28584, Note_off_c, 15, 73, 112
1, 28608, Note_on_c, 15, 71, 111
1, 28728, Note_off_c, 15, 71, 111
1, 28800, Note_on_c, 14, 45, 73
1, 28800, Note_on_c, 13, 49, 116
1, 28800, Note_on_c, 12, 53, 124
1, 28800, Note_on_c, 13, 53, 112
1, 28800, Note_on_c, 1, 41, 124
1, 28800, Note_on_c, 0, 45, 112
1, 28800, Note_on_c, 9, 36, 65
1, 28800, Note_on_c, 9, 38, 75
1, 28804, Note_off_c, 9, 38, 75
1, 28804, Note_off_c, 9, 36, 65
1, 28980, Note_off_c, 1, 41, 124
1, 28992, Note_off_c, 0, 45, 112
1, 28992, Note_off_c, 13, 53, 112
1, 28992, Note_off_c, 12, 53, 124
1, 28992, Note_off_c, 13, 49, 116
1, 28992, Note_off_c, 14, 45, 73
1, 29136, Note_off_c, 3, 100, 57
1, 29136, Note_off_c, 3, 97, 57
1, 29136, Note_off_c, 3, 93, 57
1, 29184, Note_on_c, 14, 47, 108
1, 29184, Note_on_c, 13, 50, 124
1, 29184, Note_on_c, 12, 57, 124
1, 29184, Note_on_c, 13, 54, 116
1, 29184, Note_on_c, 10, 71, 97
1, 29184, Note_on_c, 10, 74, 97
1, 29184, Note_on_c, 8, 86, 127
1, 29184, Note_on_c, 10, 78, 97
1, 29184, Note_on_c, 5, 83, 108
1, 29184, Note_on_c, 5, 86, 108
1, 29184, Note_on_c, 5, 90, 108
1, 29184, Note_on_c, 3, 95, 57
1, 29184, Note_on_c, 3, 98, 57
1, 29184, Note_on_c, 3, 102, 57
1, 29184, Note_on_c, 2, 95, 103
1, 29184, Note_on_c, 2, 98, 103
1, 29184, Note_on_c, 2, 102, 103
1, 29184, Note_on_c, 1, 40, 124
1, 29184, Note_on_c, 0, 47, 112
1, 29184, Note_on_c, 9, 38, 75
1, 29184, Note_on_c, 9, 36, 65
1, 29188, Note_off_c, 9, 36, 65
1, 29188, Note_off_c, 9, 38, 75
1, 29280, Note_off_c, 5, 90, 108
1, 29280, Note_off_c, 5, 86, 108
1, 29280, Note_off_c, 5, 83, 108
1, 29312, Note_off_c, 2, 102, 103
1, 29312, Note_off_c, 2, 98, 103
1, 29312, Note_off_c, 2, 95, 103
1, 29312, Note_off_c, 10, 78, 97
1, 29312, Note_off_c, 10, 74, 97
1, 29312, Note_off_c, 10, 71, 97
1, 29364, Note_off_c, 1, 40, 124
1, 29368, Note_off_c, 8, 86, 127
1, 29376, Note_off_c, 0, 47, 112
1, 29376, Note_off_c, 13, 54, 116
1, 29376, Note_off_c, 12, 57, 124
1, 29376, Note_off_c, 13, 50, 124
1, 29376, Note_off_c, 14, 47, 108
1, 29568, Note_on_c, 15, 64, 112
1, 29688, Note_off_c, 15, 64, 112
1, 29760, Note_on_c, 15, 61, 112
1, 29760, Note_on_c, 13, 50, 112
1, 29760, Note_on_c, 12, 59, 119
1, 29760, Note_on_c, 13, 54, 116
1, 29760, Note_on_c, 1, 47, 95
1, 29760, Note_on_c, 0, 47, 112
1, 29760, Note_on_c, 9, 38, 75
1, 29760, Note_on_c, 9, 36, 65
1, 29764, Note_off_c, 9, 36, 65
1, 29764, Note_off_c, 9, 38, 75
1, 29940, Note_off_c, 1, 47, 95
1, 29952, Note_off_c, 0, 47, 112
1, 29952, Note_off_c, 13, 54, 116
1, 29952, Note_off_c, 12, 59, 119
1, 29952, Note_off_c, 13, 50, 112
1, 30120, Note_off_c, 15, 61, 112
1, 30144, Note_on_c, 15, 62, 95
1, 30312, Note_off_c, 15, 62, 95
1, 30336, Note_on_c, 15, 64, 112
1, 30336, Note_on_c, 13, 49, 116
1, 30336, Note_on_c, 12, 56, 95
1, 30336, Note_on_c, 13, 56, 116
1, 30336, Note_on_c, 1, 44, 95
1, 30336, Note_on_c, 0, 47, 112
1, 30336, Note_on_c, 9, 36, 65
1, 30336, Note_on_c, 9, 38, 75
1, 30340, Note_off_c, 9, 38, 75
1, 30340, Note_off_c, 9, 36, 65
1, 30456, Note_off_c, 15, 64, 112
1, 30516, Note_off_c, 1, 44, 95
1, 30528, Note_off_c, 0, 47, 112
1, 30528, Note_off_c, 13, 56, 116
1, 30528, Note_off_c, 12, 56, 95
1, 30528, Note_off_c, 13, 49, 116
1, 30528, Note_on_c, 15, 64, 112
1, 30696, Note_off_c, 15, 64, 112
1, 30720, Note_on_c, 15, 71, 112
1, 30720, Note_on_c, 14, 40, 66
1, 30720, Note_on_c, 13, 50, 95
1, 30720, Note_on_c, 12, 54, 116
1, 30720, Note_on_c, 13, 57, 112
1, 30720, Note_on_c, 1, 42, 116
1, 30720, Note_on_c, 0, 40, 112
1, 30720, Note_on_c, 9, 38, 75
1, 30720, Note_on_c, 9, 36, 65
1, 30724, Note_off_c, 9, 36, 65
1, 30724, Note_off_c, 9, 38, 75
1, 30900, Note_off_c, 1, 42, 116
1, 30912, Note_off_c, 0, 40, 112
1, 30912, Note_off_c, 13, 57, 112
1, 30912, Note_off_c, 12, 54, 116
1, 30912, Note_off_c, 13, 50, 95
1, 30912, Note_off_c, 14, 40, 66
1, 30984, Note_off_c, 15, 71, 112
1, 31104, Note_on_c, 15, 71, 95
1, 31272, Note_off_c, 15, 71, 95
1, 31296, Pitch_bend_c, 15, 7360
1, 31296, Note_on_c, 15, 73, 112
1, 31296, Note_on_c, 14, 40, 66
1, 31296, Note_on_c, 13, 50, 112
1, 31296, Note_on_c, 12, 56, 116
1, 31296, Note_on_c, 13, 57, 112
1, 31296, Note_on_c, 1, 44, 116
1, 31296, Note_on_c, 0, 40, 112
1, 31296, Note_on_c, 9, 38, 75
1, 31296, Note_on_c, 9, 36, 65
1, 31300, Note_off_c, 9, 36, 65
1, 31300, Note_off_c, 9, 38, 75
1, 31306, Pitch_bend_c, 15, 7296
1, 31316, Pitch_bend_c, 15, 7424
1, 31326, Pitch_bend_c, 15, 7488
1, 31336, Pitch_bend_c, 15, 7552
1, 31346, Pitch_bend_c, 15, 7616
1, 31356, Pitch_bend_c, 15, 7680
1, 31366, Pitch_bend_c, 15, 7744
1, 31376, Pitch_bend_c, 15, 7808
1, 31386, Pitch_bend_c, 15, 7872
1, 31396, Pitch_bend_c, 15, 7936
1, 31406, Pitch_bend_c, 15, 8000
1, 31416, Pitch_bend_c, 15, 8064
1, 31426, Pitch_bend_c, 15, 8128
1, 31436, Pitch_bend_c, 15, 8192
1, 31476, Note_off_c, 1, 44, 116
1, 31488, Note_off_c, 0, 40, 112
1, 31488, Note_off_c, 13, 57, 112
1, 31488, Note_off_c, 12, 56, 116
1, 31488, Note_off_c, 13, 50, 112
1, 31488, Note_off_c, 14, 40, 66
1, 31656, Note_off_c, 15, 73, 112
1, 31680, Note_off_c, 3, 102, 57
1, 31680, Note_off_c, 3, 98, 57
1, 31680, Note_off_c, 3, 95, 57
1, 31680, Note_on_c, 15, 71, 95
1, 31680, Note_on_c, 8, 88, 87
1, 31680, Note_on_c, 5, 78, 64
1, 31680, Note_on_c, 5, 81, 64
1, 31680, Note_on_c, 5, 85, 64
1, 31680, Note_on_c, 5, 88, 64
1, 31680, Note_on_c, 2, 95, 88
1, 31680, Note_on_c, 2, 98, 88
1, 31680, Note_on_c, 2, 100, 103
1, 31776, Note_off_c, 5, 88, 64
1, 31776, Note_off_c, 5, 85, 64
1, 31776, Note_off_c, 5, 81, 64
1, 31776, Note_off_c, 5, 78, 64
1, 31800, Note_off_c, 8, 88, 87
1, 31808, Note_off_c, 2, 100, 103
1, 31808, Note_off_c, 2, 98, 88
1, 31808, Note_off_c, 2, 95, 88
1, 31872, Note_on_c, 14, 40, 66
1, 31872, Note_on_c, 13, 50, 112
1, 31872, Note_on_c, 12, 54, 116
1, 31872, Note_on_c, 13, 56, 100
1, 31872, Note_on_c, 1, 42, 116
1, 31872, Note_on_c, 0, 40, 127
1, 31872, Note_on_c, 9, 36, 65
1, 31872, Note_on_c, 9, 38, 75
1, 31876, Note_off_c, 9, 38, 75
1, 31876, Note_off_c, 9, 36, 65
1, 32052, Note_off_c, 1, 42, 116
1, 32064, Note_off_c, 0, 40, 127
1, 32064, Note_off_c, 13, 56, 100
1, 32064, Note_off_c, 12, 54, 116
1, 32064, Note_off_c, 13, 50, 112
1, 32064, Note_off_c, 14, 40, 66
1, 32232, Note_off_c, 15, 71, 95
1, 32256, Note_on_c, 15, 69, 95
1, 32256, Note_on_c, 14, 45, 66
1, 32256, Note_on_c, 13, 49, 116
1, 32256, Note_on_c, 12, 52, 116
1, 32256, Note_on_c, 13, 52, 112
1, 32256, Note_on_c, 8, 81, 127
1, 32256, Note_on_c, 5, 73, 108
1, 32256, Note_on_c, 5, 76, 108
1, 32256, Note_on_c, 5, 81, 108
1, 32256, Note_on_c, 2, 85, 103
1, 32256, Note_on_c, 2, 88, 103
1, 32256, Note_on_c, 2, 93, 103
1, 32256, Note_on_c, 1, 40, 116
1, 32256, Note_on_c, 0, 45, 127
1, 32256, Note_on_c, 9, 38, 75
1, 32256, Note_on_c, 9, 36, 65
1, 32260, Note_off_c, 9, 36, 65
1, 32260, Note_off_c, 9, 38, 75
1, 32352, Note_off_c, 5, 81, 108
1, 32352, Note_off_c, 5, 76, 108
1, 32352, Note_off_c, 5, 73, 108
1, 32384, Note_off_c, 2, 93, 103
1, 32384, Note_off_c, 2, 88, 103
1, 32384, Note_off_c, 2, 85, 103
1, 32436, Note_off_c, 1, 40, 116
1, 32440, Note_off_c, 8, 81, 127
1, 32448, Note_off_c, 0, 45, 127
1, 32448, Note_off_c, 13, 52, 112
1, 32448, Note_off_c, 12, 52, 116
1, 32448, Note_off_c, 13, 49, 116
1, 32448, Note_off_c, 14, 45, 66
1, 32448, Note_on_c, 10, 69, 127
1, 32448, Note_on_c, 10, 73, 127
1, 32448, Note_on_c, 10, 76, 127
1, 32448, Note_on_c, 9, 38, 124
1, 32452, Note_off_c, 9, 38, 124
1, 32576, Note_off_c, 10, 76, 127
1, 32576, Note_off_c, 10, 73, 127
1, 32576, Note_off_c, 10, 69, 127
1, 32832, Note_on_c, 10, 70, 127
1, 32832, Note_on_c, 10, 74, 127
1, 32832, Note_on_c, 10, 77, 127
1, 32832, Note_on_c, 9, 38, 124
1, 32836, Note_off_c, 9, 38, 124
1, 33024, Note_off_c, 10, 77, 127
1, 33024, Note_off_c, 10, 74, 127
1, 33024, Note_off_c, 10, 70, 127
1, 33024, Note_on_c, 10, 71, 127
1, 33024, Note_on_c, 10, 75, 127
1, 33024, Note_on_c, 10, 78, 127
1, 33024, Note_on_c, 9, 38, 112
1, 33028, Note_off_c, 9, 38, 112
1, 33152, Note_off_c, 10, 78, 127
1, 33152, Note_off_c, 10, 75, 127
1, 33152, Note_off_c, 10, 71, 127
1, 33336, Note_off_c, 15, 69, 95
1, 33408, Note_on_c, 15, 68, 95
1, 33408, Note_on_c, 12, 56, 127
1, 33408, Note_on_c, 10, 72, 124
1, 33408, Note_on_c, 10, 76, 124
1, 33408, Note_on_c, 10, 79, 124
1, 33408, Note_on_c, 9, 38, 124
1, 33412, Note_off_c, 9, 38, 124
1, 33576, Note_off_c, 15, 68, 95
1, 33600, Note_off_c, 10, 79, 124
1, 33600, Note_off_c, 10, 76, 124
1, 33600, Note_off_c, 10, 72, 124
1, 33600, Note_off_c, 12, 56, 127
1, 33600, Note_on_c, 15, 69, 127
1, 33600, Note_on_c, 12, 57, 123
1, 33600, Note_on_c, 10, 73, 127
1, 33600, Note_on_c, 10, 77, 127
1, 33600, Note_on_c, 10, 80, 127
1, 33600, Note_on_c, 9, 38, 124
1, 33604, Note_off_c, 9, 38, 124
1, 33686, Note_off_c, 12, 57, 123
1, 33728, Note_off_c, 10, 80, 127
1, 33728, Note_off_c, 10, 77, 127
1, 33728, Note_off_c, 10, 73, 127
1, 34027, Note_off_c, 15, 69, 127
1, 34432, Note_on_c, 15, 71, 112
1, 34536, Note_off_c, 15, 71, 112
1, 34560, Note_on_c, 15, 71, 112
1, 34561, Note_off_c, 15, 71, 112
1, 34800, Pitch_bend_c, 13, 3928
1, 34810, Pitch_bend_c, 13, 3512
1, 34816, Note_on_c, 14, 45, 76
1, 34816, Note_on_c, 13, 55, 112
1, 34816, Note_on_c, 13, 59, 124
1, 34816, Note_on_c, 1, 45, 124
1, 34816, Note_on_c, 9, 57, 103
1, 34816, Note_on_c, 9, 38, 101
1, 34820, Note_off_c, 9, 38, 101
1, 34820, Note_off_c, 9, 57, 103
1, 34826, Pitch_bend_c, 13, 3720
1, 34889, Pitch_bend_c, 13, 3928
1, 34916, Pitch_bend_c, 13, 4136
1, 34944, Pitch_bend_c, 15, 7360
1, 34944, Note_on_c, 15, 71, 124
1, 34946, Pitch_bend_c, 13, 4136
1, 34946, Pitch_bend_c, 13, 4344
1, 34954, Pitch_bend_c, 15, 7296
1, 34964, Pitch_bend_c, 15, 7424
1, 34964, Pitch_bend_c, 13, 4344
1, 34974, Pitch_bend_c, 15, 7488
1, 34975, Pitch_bend_c, 13, 4552
1, 34976, Pitch_bend_c, 13, 4552
1, 34984, Pitch_bend_c, 15, 7552
1, 34989, Pitch_bend_c, 13, 4760
1, 34994, Pitch_bend_c, 15, 7616
1, 35000, Pitch_bend_c, 13, 4968
1, 35003, Pitch_bend_c, 13, 4760
1, 35004, Pitch_bend_c, 15, 7680
1, 35008, Pitch_bend_c, 13, 5176
1, 35014, Pitch_bend_c, 15, 7744
1, 35018, Pitch_bend_c, 13, 5384
1, 35022, Pitch_bend_c, 13, 4968
1, 35024, Pitch_bend_c, 15, 7808
1, 35026, Pitch_bend_c, 13, 5592
1, 35034, Pitch_bend_c, 15, 7872
1, 35034, Pitch_bend_c, 13, 5176
1, 35036, Pitch_bend_c, 13, 5800
1, 35044, Pitch_bend_c, 15, 7936
1, 35046, Pitch_bend_c, 13, 6008
1, 35047, Pitch_bend_c, 13, 5384
1, 35054, Pitch_bend_c, 15, 8000
1, 35057, Pitch_bend_c, 13, 5592
1, 35058, Pitch_bend_c, 13, 6216
1, 35064, Pitch_bend_c, 15, 8064
1, 35068, Pitch_bend_c, 13, 5800
1, 35069, Pitch_bend_c, 13, 6424
1, 35074, Pitch_bend_c, 15, 8128
1, 35078, Pitch_bend_c, 13, 6008
1, 35083, Pitch_bend_c, 13, 6632
1, 35084, Pitch_bend_c, 15, 8192
1, 35088, Pitch_bend_c, 13, 6216
1, 35094, Pitch_bend_c, 13, 6840
1, 35098, Pitch_bend_c, 13, 6424
1, 35106, Pitch_bend_c, 13, 7048
1, 35109, Pitch_bend_c, 13, 6632
1, 35120, Pitch_bend_c, 13, 7256
1, 35121, Pitch_bend_c, 13, 6840
1, 35132, Pitch_bend_c, 13, 7048
1, 35133, Pitch_bend_c, 13, 7464
1, 35144, Pitch_bend_c, 13, 7256
1, 35147, Pitch_bend_c, 13, 7672
1, 35161, Pitch_bend_c, 13, 7464
1, 35165, Pitch_bend_c, 13, 7880
1, 35178, Pitch_bend_c, 13, 7672
1, 35181, Pitch_bend_c, 13, 8088
1, 35191, Pitch_bend_c, 13, 7880
1, 35201, Pitch_bend_c, 13, 8192
1, 35216, Pitch_bend_c, 13, 8088
1, 35236, Pitch_bend_c, 13, 8192
1, 35264, Note_off_c, 13, 59, 124
1, 35264, Note_off_c, 14, 45, 76
1, 35267, Note_off_c, 13, 55, 112
1, 35304, Note_off_c, 15, 71, 124
1, 35316, Note_off_c, 1, 45, 124
1, 35328, Note_on_c, 15, 69, 124
1, 35328, Note_on_c, 14, 50, 93
1, 35328, Note_on_c, 13, 54, 100
1, 35328, Note_on_c, 13, 57, 124
1, 35328, Note_on_c, 2, 78, 82
1, 35328, Note_on_c, 2, 83, 82
1, 35328, Note_on_c, 2, 86, 82
1, 35328, Note_on_c, 1, 38, 112
1, 35328, Note_on_c, 9, 36, 95
1, 35328, Note_on_c, 9, 59, 83
1, 35332, Note_off_c, 9, 59, 83
1, 35332, Note_off_c, 9, 36, 95
1, 35572, Note_off_c, 1, 38, 112
1, 35584, Note_on_c, 11, 62, 112
1, 35584, Note_on_c, 11, 66, 116
1, 35712, Note_off_c, 11, 66, 116
1, 35712, Note_off_c, 11, 62, 112
1, 35712, Note_on_c, 11, 61, 116
1, 35712, Note_on_c, 11, 64, 112
1, 35712, Note_on_c, 1, 38, 95
1, 35712, Note_on_c, 9, 38, 103
1, 35712, Note_on_c, 9, 59, 83
1, 35716, Note_off_c, 9, 59, 83
1, 35716, Note_off_c, 9, 38, 103
1, 35880, Note_off_c, 15, 69, 124
1, 35904, Note_off_c, 14, 50, 93
1, 35956, Note_off_c, 1, 38, 95
1, 35968, Note_off_c, 11, 64, 112
1, 35968, Note_off_c, 11, 61, 116
1, 35968, Note_off_c, 13, 57, 124
1, 35968, Note_on_c, 15, 69, 124
1, 35968, Note_on_c, 14, 50, 93
1, 35968, Note_on_c, 13, 50, 112
1, 35968, Note_on_c, 11, 59, 95
1, 35968, Note_on_c, 13, 54, 116
1, 35968, Note_on_c, 11, 62, 124
1, 35968, Note_on_c, 9, 59, 85
1, 35971, Note_off_c, 13, 54, 100
1, 35972, Note_off_c, 9, 59, 85
1, 36066, Note_off_c, 2, 86, 82
1, 36066, Note_off_c, 2, 83, 82
1, 36090, Note_off_c, 2, 78, 82
1, 36096, Note_off_c, 11, 62, 124
1, 36096, Note_off_c, 11, 59, 95
1, 36096, Note_on_c, 2, 83, 82
1, 36096, Note_on_c, 2, 86, 82
1, 36096, Note_on_c, 2, 90, 86
1, 36096, Note_on_c, 1, 42, 100
1, 36096, Note_on_c, 9, 36, 95
1, 36096, Note_on_c, 9, 59, 85
1, 36100, Note_off_c, 9, 59, 85
1, 36100, Note_off_c, 9, 36, 95
1, 36340, Note_off_c, 1, 42, 100
1, 36352, Note_on_c, 11, 59, 112
1, 36352, Note_on_c, 11, 62, 124
1, 36352, Note_on_c, 10, 66, 112
1, 36352, Note_on_c, 10, 71, 112
1, 36352, Note_on_c, 10, 74, 112
1, 36480, Note_off_c, 10, 74, 112
1, 36480, Note_off_c, 10, 71, 112
1, 36480, Note_off_c, 10, 66, 112
1, 36480, Note_off_c, 11, 62, 124
1, 36480, Note_off_c, 11, 59, 112
1, 36480, Note_on_c, 11, 61, 116
1, 36480, Note_on_c, 11, 64, 124
1, 36480, Note_on_c, 10, 67, 100
1, 36480, Note_on_c, 10, 73, 100
1, 36480, Note_on_c, 10, 76, 112
1, 36480, Note_on_c, 1, 42, 116
1, 36480, Note_on_c, 9, 38, 105
1, 36480, Note_on_c, 9, 59, 85
1, 36484, Note_off_c, 9, 59, 85
1, 36484, Note_off_c, 9, 38, 105
1, 36712, Note_off_c, 15, 69, 124
1, 36724, Note_off_c, 1, 42, 116
1, 36736, Note_off_c, 10, 76, 112
1, 36736, Note_off_c, 10, 73, 100
1, 36736, Note_off_c, 10, 67, 100
1, 36736, Note_off_c, 11, 64, 124
1, 36736, Note_off_c, 11, 61, 116
1, 36736, Note_off_c, 13, 54, 116
1, 36736, Note_off_c, 14, 50, 93
1, 36736, Note_on_c, 11, 62, 112
1, 36736, Note_on_c, 11, 66, 116
1, 36736, Note_on_c, 10, 69, 112
1, 36736, Note_on_c, 10, 74, 112
1, 36736, Note_on_c, 10, 78, 116
1, 36736, Note_on_c, 9, 59, 81
1, 36739, Note_off_c, 13, 50, 112
1, 36740, Note_off_c, 9, 59, 81
1, 36834, Note_off_c, 2, 83, 82
1, 36858, Note_off_c, 2, 90, 86
1, 36858, Note_off_c, 2, 86, 82
1, 36864, Note_on_c, 14, 47, 93
1, 36864, Note_on_c, 2, 74, 65
1, 36864, Note_on_c, 2, 76, 65
1, 36864, Note_on_c, 2, 79, 65
1, 36864, Note_on_c, 2, 83, 65
1, 36864, Note_on_c, 1, 40, 112
1, 36864, Note_on_c, 9, 59, 87
1, 36864, Note_on_c, 9, 36, 79
1, 36868, Note_off_c, 9, 36, 79
1, 36868, Note_off_c, 9, 59, 87
1, 37108, Note_off_c, 1, 40, 112
1, 37120, Note_on_c, 13, 55, 112
1, 37120, Note_on_c, 13, 59, 112
1, 37248, Pitch_bend_c, 15, 7360
1, 37248, Note_on_c, 15, 71, 112
1, 37248, Note_on_c, 1, 40, 112
1, 37248, Note_on_c, 9, 38, 107
1, 37248, Note_on_c, 9, 59, 87
1, 37252, Note_off_c, 9, 59, 87
1, 37252, Note_off_c, 9, 38, 107
1, 37258, Pitch_bend_c, 15, 7296
1, 37268, Pitch_bend_c, 15, 7424
1, 37278, Pitch_bend_c, 15, 7488
1, 37288, Pitch_bend_c, 15, 7552
1, 37298, Pitch_bend_c, 15, 7616
1, 37308, Pitch_bend_c, 15, 7680
1, 37318, Pitch_bend_c, 15, 7744
1, 37328, Pitch_bend_c, 15, 7808
1, 37338, Pitch_bend_c, 15, 7872
1, 37348, Pitch_bend_c, 15, 7936
1, 37358, Pitch_bend_c, 15, 8000
1, 37368, Pitch_bend_c, 15, 8064
1, 37376, Note_off_c, 11, 62, 112
1, 37378, Pitch_bend_c, 15, 8128
1, 37388, Pitch_bend_c, 15, 8192
1, 37440, Note_off_c, 10, 78, 116
1, 37440, Note_off_c, 10, 74, 112
1, 37440, Note_off_c, 10, 69, 112
1, 37440, Note_off_c, 11, 66, 116
1, 37480, Note_off_c, 15, 71, 112
1, 37492, Note_off_c, 1, 40, 112
1, 37504, Note_off_c, 13, 59, 112
1, 37504, Note_on_c, 11, 62, 112
1, 37504, Note_on_c, 11, 66, 112
1, 37504, Note_on_c, 9, 59, 83
1, 37507, Note_off_c, 13, 55, 112
1, 37508, Note_off_c, 9, 59, 83
1, 37568, Note_off_c, 14, 47, 93
1, 37600, Note_off_c, 11, 66, 112
1, 37600, Note_off_c, 11, 62, 112
1, 37602, Note_off_c, 2, 83, 65
1, 37602, Note_off_c, 2, 79, 65
1, 37602, Note_off_c, 2, 76, 65
1, 37626, Note_off_c, 2, 74, 65
1, 37632, Note_on_c, 15, 71, 124
1, 37632, Note_on_c, 14, 50, 93
1, 37632, Note_on_c, 13, 55, 105
1, 37632, Note_on_c, 13, 59, 112
1, 37632, Note_on_c, 2, 76, 65
1, 37632, Note_on_c, 2, 79, 65
1, 37632, Note_on_c, 2, 83, 65
1, 37632, Note_on_c, 2, 86, 82
1, 37632, Note_on_c, 1, 47, 112
1, 37632, Note_on_c, 9, 36, 87
1, 37632, Note_on_c, 9, 59, 87
1, 37636, Note_off_c, 9, 59, 87
1, 37636, Note_off_c, 9, 36, 87
1, 37760, Note_off_c, 13, 59, 112
1, 37763, Note_off_c, 13, 55, 105
1, 37864, Note_off_c, 15, 71, 124
1, 37876, Note_off_c, 1, 47, 112
1, 37888, Note_on_c, 11, 59, 100
1, 37888, Note_on_c, 11, 64, 112
1, 37984, Note_off_c, 11, 64, 112
1, 37984, Note_off_c, 11, 59, 100
1, 38016, Pitch_bend_c, 15, 7360
1, 38016, Note_on_c, 15, 71, 112
1, 38016, Note_on_c, 13, 55, 124
1, 38016, Note_on_c, 13, 59, 124
1, 38016, Note_on_c, 1, 47, 112
1, 38016, Note_on_c, 9, 38, 97
1, 38016, Note_on_c, 9, 59, 87
1, 38020, Note_off_c, 9, 59, 87
1, 38020, Note_off_c, 9, 38, 97
1, 38026, Pitch_bend_c, 15, 7296
1, 38036, Pitch_bend_c, 15, 7424
1, 38046, Pitch_bend_c, 15, 7488
1, 38056, Pitch_bend_c, 15, 7552
1, 38066, Pitch_bend_c, 15, 7616
1, 38076, Pitch_bend_c, 15, 7680
1, 38086, Pitch_bend_c, 15, 7744
1, 38096, Pitch_bend_c, 15, 7808
1, 38106, Pitch_bend_c, 15, 7872
1, 38116, Pitch_bend_c, 15, 7936
1, 38126, Pitch_bend_c, 15, 8000
1, 38136, Pitch_bend_c, 15, 8064
1, 38146, Pitch_bend_c, 15, 8128
1, 38156, Pitch_bend_c, 15, 8192
1, 38248, Note_off_c, 15, 71, 112
1, 38260, Note_off_c, 1, 47, 112
1, 38272, Note_off_c, 13, 59, 124
1, 38272, Note_on_c, 13, 54, 116
1, 38272, Note_on_c, 13, 57, 124
1, 38272, Note_on_c, 9, 59, 89
1, 38275, Note_off_c, 13, 55, 124
1, 38276, Note_off_c, 9, 59, 89
1, 38336, Note_off_c, 14, 50, 93
1, 38394, Note_off_c, 2, 86, 82
1, 38394, Note_off_c, 2, 83, 65
1, 38394, Note_off_c, 2, 79, 65
1, 38394, Note_off_c, 2, 76, 65
1, 38400, Note_on_c, 15, 71, 112
1, 38400, Note_on_c, 14, 45, 105
1, 38400, Note_on_c, 2, 74, 65
1, 38400, Note_on_c, 2, 78, 65
1, 38400, Note_on_c, 2, 81, 65
1, 38400, Note_on_c, 1, 38, 112
1, 38400, Note_on_c, 9, 36, 93
1, 38400, Note_on_c, 9, 59, 87
1, 38404, Note_off_c, 9, 59, 87
1, 38404, Note_off_c, 9, 36, 93
1, 38644, Note_off_c, 1, 38, 112
1, 38656, Note_on_c, 11, 62, 112
1, 38656, Note_on_c, 11, 66, 100
1, 38784, Note_off_c, 11, 66, 100
1, 38784, Note_off_c, 11, 62, 112
1, 38784, Note_on_c, 11, 61, 116
1, 38784, Note_on_c, 11, 64, 95
1, 38784, Note_on_c, 1, 38, 95
1, 38784, Note_on_c, 9, 38, 101
1, 38784, Note_on_c, 9, 59, 87
1, 38788, Note_off_c, 9, 59, 87
1, 38788, Note_off_c, 9, 38, 101
1, 39040, Note_off_c, 11, 64, 95
1, 39040, Note_off_c, 11, 61, 116
1, 39040, Note_on_c, 11, 59, 112
1, 39040, Note_on_c, 11, 62, 112
1, 39040, Note_on_c, 9, 59, 87
1, 39044, Note_off_c, 9, 59, 87
1, 39104, Note_off_c, 14, 45, 105
1, 39124, Note_off_c, 1, 38, 95
1, 39138, Note_off_c, 2, 81, 65
1, 39138, Note_off_c, 2, 78, 65
1, 39144, Note_off_c, 15, 71, 112
1, 39162, Note_off_c, 2, 74, 65
1, 39168, Note_off_c, 11, 62, 112
1, 39168, Note_off_c, 11, 59, 112
1, 39168, Note_on_c, 15, 69, 112
1, 39168, Note_on_c, 14, 42, 105
1, 39168, Note_on_c, 2, 78, 65
1, 39168, Note_on_c, 2, 81, 65
1, 39168, Note_on_c, 2, 86, 82
1, 39168, Note_on_c, 1, 40, 95
1, 39168, Note_on_c, 9, 36, 101
1, 39168, Note_on_c, 9, 59, 87
1, 39172, Note_off_c, 9, 59, 87
1, 39172, Note_off_c, 9, 36, 101
1, 39424, Note_on_c, 11, 59, 112
1, 39424, Note_on_c, 11, 62, 112
1, 39424, Note_on_c, 10, 66, 112
1, 39424, Note_on_c, 10, 71, 112
1, 39424, Note_on_c, 10, 74, 112
1, 39508, Note_off_c, 1, 40, 95
1, 39528, Note_off_c, 15, 69, 112
1, 39552, Note_off_c, 10, 74, 112
1, 39552, Note_off_c, 10, 71, 112
1, 39552, Note_off_c, 10, 66, 112
1, 39552, Note_off_c, 11, 62, 112
1, 39552, Note_off_c, 11, 59, 112
1, 39552, Note_on_c, 15, 71, 112
1, 39552, Note_on_c, 11, 61, 116
1, 39552, Note_on_c, 11, 64, 124
1, 39552, Note_on_c, 10, 67, 112
1, 39552, Note_on_c, 10, 73, 100
1, 39552, Note_on_c, 10, 76, 112
1, 39552, Note_on_c, 1, 42, 95
1, 39552, Note_on_c, 9, 38, 111
1, 39552, Note_on_c, 9, 59, 87
1, 39556, Note_off_c, 9, 59, 87
1, 39556, Note_off_c, 9, 38, 111
1, 39784, Note_off_c, 15, 71, 112
1, 39808, Note_off_c, 10, 76, 112
1, 39808, Note_off_c, 10, 73, 100
1, 39808, Note_off_c, 10, 67, 112
1, 39808, Note_off_c, 11, 64, 124
1, 39808, Note_off_c, 11, 61, 116
1, 39808, Note_on_c, 15, 69, 112
1, 39808, Note_on_c, 11, 62, 124
1, 39808, Note_on_c, 11, 65, 124
1, 39808, Note_on_c, 10, 69, 116
1, 39808, Note_on_c, 10, 74, 112
1, 39808, Note_on_c, 10, 77, 116
1, 39808, Note_on_c, 9, 59, 87
1, 39812, Note_off_c, 9, 59, 87
1, 39872, Note_off_c, 14, 42, 105
1, 39892, Note_off_c, 1, 42, 95
1, 39906, Note_off_c, 2, 86, 82
1, 39906, Note_off_c, 2, 81, 65
1, 39912, Note_off_c, 15, 69, 112
1, 39930, Note_off_c, 2, 78, 65
1, 39936, Note_off_c, 13, 57, 124
1, 39936, Note_on_c, 14, 41, 97
1, 39936, Note_on_c, 2, 81, 65
1, 39936, Note_on_c, 2, 86, 82
1, 39936, Note_on_c, 2, 89, 86
1, 39936, Note_on_c, 1, 38, 95
1, 39936, Note_on_c, 9, 59, 83
1, 39936, Note_on_c, 9, 36, 89
1, 39939, Note_off_c, 13, 54, 116
1, 39940, Note_off_c, 9, 36, 89
1, 39940, Note_off_c, 9, 59, 83
1, 40180, Note_off_c, 1, 38, 95
1, 40192, Note_on_c, 13, 61, 116
1, 40192, Note_on_c, 13, 64, 124
1, 40320, Note_off_c, 13, 64, 124
1, 40320, Note_on_c, 1, 45, 95
1, 40320, Note_on_c, 9, 38, 103
1, 40320, Note_on_c, 9, 59, 83
1, 40321, Note_off_c, 13, 61, 116
1, 40324, Note_off_c, 9, 59, 83
1, 40324, Note_off_c, 9, 38, 103
1, 40512, Note_off_c, 10, 77, 116
1, 40512, Note_off_c, 10, 74, 112
1, 40512, Note_off_c, 10, 69, 116
1, 40576, Note_off_c, 11, 65, 124
1, 40576, Note_off_c, 11, 62, 124
1, 40576, Note_on_c, 15, 71, 112
1, 40576, Note_on_c, 9, 59, 83
1, 40580, Note_off_c, 9, 59, 83
1, 40640, Note_off_c, 14, 41, 97
1, 40660, Note_off_c, 1, 45, 95
1, 40674, Note_off_c, 2, 86, 82
1, 40674, Note_off_c, 2, 81, 65
1, 40680, Note_off_c, 15, 71, 112
1, 40698, Note_off_c, 2, 89, 86
1, 40704, Note_on_c, 15, 71, 95
1, 40704, Note_on_c, 14, 45, 105
1, 40704, Note_on_c, 13, 61, 116
1, 40704, Note_on_c, 13, 64, 112
1, 40704, Note_on_c, 2, 81, 65
1, 40704, Note_on_c, 2, 86, 82
1, 40704, Note_on_c, 2, 88, 82
1, 40704, Note_on_c, 1, 41, 95
1, 40704, Note_on_c, 9, 36, 89
1, 40704, Note_on_c, 9, 59, 75
1, 40708, Note_off_c, 9, 59, 75
1, 40708, Note_off_c, 9, 36, 89
1, 40928, Note_off_c, 13, 64, 112
1, 40929, Note_off_c, 13, 61, 116
1, 40960, Note_on_c, 13, 61, 116
1, 40960, Note_on_c, 13, 64, 124
1, 40980, Note_off_c, 15, 71, 95
1, 41044, Note_off_c, 1, 41, 95
1, 41082, Note_off_c, 2, 88, 82
1, 41088, Note_off_c, 13, 64, 124
1, 41088, Note_on_c, 15, 71, 124
1, 41088, Note_on_c, 13, 59, 95
1, 41088, Note_on_c, 13, 62, 95
1, 41088, Note_on_c, 2, 89, 65
1, 41088, Note_on_c, 1, 38, 95
1, 41088, Note_on_c, 9, 38, 103
1, 41088, Note_on_c, 9, 59, 79
1, 41089, Note_off_c, 13, 61, 116
1, 41092, Note_off_c, 9, 59, 79
1, 41092, Note_off_c, 9, 38, 103
1, 41322, Note_off_c, 2, 81, 65
1, 41338, Note_off_c, 2, 89, 65
1, 41338, Note_off_c, 2, 86, 82
1, 41344, Note_off_c, 13, 62, 95
1, 41344, Note_on_c, 13, 57, 124
1, 41344, Note_on_c, 13, 61, 116
1, 41344, Note_on_c, 2, 81, 86
1, 41344, Note_on_c, 2, 85, 86
1, 41344, Note_on_c, 2, 90, 86
1, 41344, Note_on_c, 9, 59, 79
1, 41345, Note_off_c, 13, 59, 95
1, 41348, Note_off_c, 9, 59, 79
1, 41396, Note_off_c, 1, 38, 95
1, 41408, Note_off_c, 14, 45, 105
1, 41448, Note_off_c, 15, 71, 124
1, 41472, Note_off_c, 13, 61, 116
1, 41472, Pitch_bend_c, 15, 7360
1, 41472, Note_on_c, 15, 69, 124
1, 41472, Note_on_c, 14, 49, 105
1, 41472, Note_on_c, 1, 40, 95
1, 41472, Note_on_c, 9, 36, 101
1, 41472, Note_on_c, 9, 59, 87
1, 41473, Note_off_c, 13, 57, 124
1, 41476, Note_off_c, 9, 59, 87
1, 41476, Note_off_c, 9, 36, 101
1, 41482, Pitch_bend_c, 15, 7296
1, 41492, Pitch_bend_c, 15, 7424
1, 41502, Pitch_bend_c, 15, 7488
1, 41512, Pitch_bend_c, 15, 7552
1, 41522, Pitch_bend_c, 15, 7616
1, 41532, Pitch_bend_c, 15, 7680
1, 41542, Pitch_bend_c, 15, 7744
1, 41552, Pitch_bend_c, 15, 7808
1, 41562, Pitch_bend_c, 15, 7872
1, 41572, Pitch_bend_c, 15, 7936
1, 41582, Pitch_bend_c, 15, 8000
1, 41592, Pitch_bend_c, 15, 8064
1, 41602, Pitch_bend_c, 15, 8128
1, 41612, Pitch_bend_c, 15, 8192
1, 41728, Note_on_c, 13, 54, 116
1, 41728, Note_on_c, 11, 57, 112
1, 41728, Note_on_c, 13, 57, 112
1, 41728, Note_on_c, 11, 66, 116
1, 41812, Note_off_c, 1, 40, 95
1, 41850, Note_off_c, 2, 90, 86
1, 41850, Note_off_c, 2, 85, 86
1, 41850, Note_off_c, 2, 81, 86
1, 41856, Note_off_c, 11, 66, 116
1, 41856, Note_off_c, 13, 57, 112
1, 41856, Note_off_c, 11, 57, 112
1, 41856, Note_off_c, 13, 54, 116
1, 41856, Note_on_c, 1, 42, 95
1, 41856, Note_on_c, 9, 38, 95
1, 41856, Note_on_c, 9, 59, 91
1, 41860, Note_off_c, 9, 59, 91
1, 41860, Note_off_c, 9, 38, 95
1, 42112, Note_on_c, 13, 55, 112
1, 42112, Note_on_c, 11, 59, 95
1, 42112, Note_on_c, 13, 59, 95
1, 42112, Note_on_c, 11, 67, 112
1, 42112, Note_on_c, 9, 59, 91
1, 42116, Note_off_c, 9, 59, 91
1, 42164, Note_off_c, 1, 42, 95
1, 42176, Note_off_c, 14, 49, 105
1, 42216, Note_off_c, 15, 69, 124
1, 42240, Note_off_c, 11, 67, 112
1, 42240, Note_off_c, 13, 59, 95
1, 42240, Note_off_c, 11, 59, 95
1, 42240, Note_off_c, 13, 55, 112
1, 42240, Note_on_c, 15, 61, 116
1, 42240, Note_on_c, 14, 54, 105
1, 42240, Note_on_c, 1, 44, 95
1, 42240, Note_on_c, 9, 36, 75
1, 42240, Note_on_c, 9, 59, 83
1, 42244, Note_off_c, 9, 59, 83
1, 42244, Note_off_c, 9, 36, 75
1, 42432, Note_off_c, 14, 54, 105
1, 42496, Note_on_c, 14, 57, 68
1, 42496, Note_on_c, 13, 52, 101
1, 42496, Note_on_c, 11, 57, 112
1, 42496, Note_on_c, 13, 57, 112
1, 42496, Note_on_c, 11, 64, 101
1, 42496, Note_on_c, 10, 69, 93
1, 42496, Note_on_c, 10, 73, 100
1, 42496, Note_on_c, 10, 76, 112
1, 42548, Note_off_c, 1, 44, 95
1, 42624, Note_off_c, 10, 76, 112
1, 42624, Note_off_c, 10, 73, 100
1, 42624, Note_off_c, 10, 69, 93
1, 42624, Note_off_c, 11, 64, 101
1, 42624, Note_off_c, 13, 57, 112
1, 42624, Note_off_c, 11, 57, 112
1, 42624, Note_off_c, 13, 52, 101
1, 42624, Note_off_c, 14, 57, 68
1, 42624, Note_on_c, 14, 53, 76
1, 42624, Note_on_c, 13, 53, 95
1, 42624, Note_on_c, 11, 59, 95
1, 42624, Note_on_c, 13, 59, 95
1, 42624, Note_on_c, 11, 65, 95
1, 42624, Note_on_c, 10, 71, 107
1, 42624, Note_on_c, 10, 74, 105
1, 42624, Note_on_c, 10, 77, 112
1, 42624, Note_on_c, 1, 44, 95
1, 42624, Note_on_c, 9, 38, 97
1, 42624, Note_on_c, 9, 59, 93
1, 42628, Note_off_c, 9, 59, 93
1, 42628, Note_off_c, 9, 38, 97
1, 42880, Note_off_c, 10, 77, 112
1, 42880, Note_off_c, 10, 74, 105
1, 42880, Note_off_c, 11, 65, 95
1, 42880, Note_off_c, 13, 59, 95
1, 42880, Note_off_c, 11, 59, 95
1, 42880, Note_off_c, 13, 53, 95
1, 42880, Note_off_c, 14, 53, 76
1, 42880, Note_on_c, 14, 51, 81
1, 42880, Note_on_c, 13, 54, 116
1, 42880, Note_on_c, 11, 60, 80
1, 42880, Note_on_c, 13, 60, 80
1, 42880, Note_on_c, 11, 66, 116
1, 42880, Note_on_c, 10, 72, 113
1, 42880, Note_on_c, 10, 75, 119
1, 42880, Note_on_c, 10, 78, 116
1, 42880, Note_on_c, 9, 59, 91
1, 42884, Note_off_c, 9, 59, 91
1, 42887, Note_off_c, 10, 71, 107
1, 42984, Note_off_c, 15, 61, 116
1, 42996, Note_off_c, 1, 44, 95
1, 43008, Note_off_c, 10, 78, 116
1, 43008, Note_off_c, 10, 75, 119
1, 43008, Note_off_c, 10, 72, 113
1, 43008, Note_off_c, 11, 66, 116
1, 43008, Note_off_c, 13, 60, 80
1, 43008, Note_off_c, 11, 60, 80
1, 43008, Note_off_c, 13, 54, 116
1, 43008, Note_off_c, 14, 51, 81
1, 43008, Note_on_c, 14, 49, 108
1, 43008, Note_on_c, 13, 55, 127
1, 43008, Note_on_c, 11, 61, 116
1, 43008, Note_on_c, 13, 61, 116
1, 43008, Note_on_c, 11, 67, 127
1, 43008, Note_on_c, 10, 73, 127
1, 43008, Note_on_c, 10, 76, 127
1, 43008, Note_on_c, 10, 79, 112
1, 43008, Note_on_c, 1, 37, 95
1, 43008, Note_on_c, 9, 38, 105
1, 43008, Note_on_c, 9, 59, 93
1, 43008, Note_on_c, 9, 36, 109
1, 43012, Note_off_c, 9, 36, 109
1, 43012, Note_off_c, 9, 59, 93
1, 43012, Note_off_c, 9, 38, 105
1, 43124, Note_off_c, 1, 37, 95
1, 43136, Note_off_c, 10, 79, 112
1, 43136, Note_off_c, 10, 76, 127
1, 43136, Note_off_c, 10, 73, 127
1, 43136, Note_off_c, 11, 67, 127
1, 43136, Note_off_c, 13, 61, 116
1, 43136, Note_off_c, 11, 61, 116
1, 43136, Note_off_c, 13, 55, 127
1, 43136, Note_off_c, 14, 49, 108
1, 43392, Note_on_c, 15, 67, 112
1, 43560, Note_off_c, 15, 67, 112
1, 43776, Pitch_bend_c, 15, 7360
1, 43776, Note_on_c, 15, 67, 112
1, 43786, Pitch_bend_c, 15, 7296
1, 43796, Pitch_bend_c, 15, 7424
1, 43806, Pitch_bend_c, 15, 7488
1, 43816, Pitch_bend_c, 15, 7552
1, 43826, Pitch_bend_c, 15, 7616
1, 43836, Pitch_bend_c, 15, 7680
1, 43846, Pitch_bend_c, 15, 7744
1, 43856, Pitch_bend_c, 15, 7808
1, 43866, Pitch_bend_c, 15, 7872
1, 43876, Pitch_bend_c, 15, 7936
1, 43886, Pitch_bend_c, 15, 8000
1, 43896, Pitch_bend_c, 15, 8064
1, 43906, Pitch_bend_c, 15, 8128
1, 43916, Pitch_bend_c, 15, 8192
1, 44136, Note_off_c, 15, 67, 112
1, 44160, Note_on_c, 15, 66, 83
1, 44520, Note_off_c, 15, 66, 83
1, 44544, Note_on_c, 14, 53, 127
1, 44544, Note_on_c, 15, 65, 112
1, 44544, Note_on_c, 14, 50, 58
1, 44544, Note_on_c, 13, 53, 77
1, 44544, Note_on_c, 13, 59, 77
1, 44544, Note_on_c, 6, 89, 112
1, 44544, Note_on_c, 1, 41, 112
1, 44544, Note_on_c, 9, 59, 54
1, 44548, Note_off_c, 9, 59, 54
1, 44630, Note_off_c, 13, 59, 77
1, 44630, Note_off_c, 13, 53, 77
1, 44630, Note_off_c, 14, 50, 58
1, 44660, Note_off_c, 1, 41, 112
1, 44660, Note_off_c, 6, 89, 112
1, 44672, Note_off_c, 14, 53, 127
1, 44700, Note_off_c, 15, 65, 112
1, 44928, Note_on_c, 9, 59, 56
1, 44932, Note_off_c, 9, 59, 56
1, 45184, Note_on_c, 15, 65, 112
1, 45184, Note_on_c, 9, 59, 56
1, 45188, Note_off_c, 9, 59, 56
1, 45312, Note_on_c, 9, 59, 60
1, 45316, Note_off_c, 9, 59, 60
1, 45568, Note_on_c, 14, 47, 115
1, 45568, Note_on_c, 14, 41, 58
1, 45568, Note_on_c, 13, 47, 77
1, 45568, Note_on_c, 13, 50, 77
1, 45568, Note_on_c, 6, 81, 112
1, 45568, Note_on_c, 1, 35, 109
1, 45568, Note_on_c, 9, 38, 65
1, 45572, Note_off_c, 9, 38, 65
1, 45654, Note_off_c, 13, 50, 77
1, 45654, Note_off_c, 13, 47, 77
1, 45654, Note_off_c, 14, 41, 58
1, 45684, Note_off_c, 1, 35, 109
1, 45684, Note_off_c, 6, 81, 112
1, 45696, Note_on_c, 9, 59, 58
1, 45700, Note_off_c, 9, 59, 58
1, 45760, Note_off_c, 14, 47, 115
1, 45800, Note_off_c, 15, 65, 112
1, 45952, Note_on_c, 15, 65, 112
1, 45952, Note_on_c, 9, 59, 60
1, 45956, Note_off_c, 9, 59, 60
1, 46056, Note_off_c, 15, 65, 112
1, 46080, Note_on_c, 14, 50, 112
1, 46080, Pitch_bend_c, 15, 7360
1, 46080, Note_on_c, 15, 67, 112
1, 46080, Note_on_c, 14, 47, 58
1, 46080, Note_on_c, 13, 50, 77
1, 46080, Note_on_c, 13, 53, 77
1, 46080, Note_on_c, 6, 83, 112
1, 46080, Note_on_c, 1, 38, 112
1, 46080, Note_on_c, 9, 59, 67
1, 46080, Note_on_c, 9, 38, 65
1, 46084, Note_off_c, 9, 38, 65
1, 46084, Note_off_c, 9, 59, 67
1, 46090, Pitch_bend_c, 15, 7296
1, 46100, Pitch_bend_c, 15, 7424
1, 46110, Pitch_bend_c, 15, 7488
1, 46120, Pitch_bend_c, 15, 7552
1, 46130, Pitch_bend_c, 15, 7616
1, 46140, Pitch_bend_c, 15, 7680
1, 46150, Pitch_bend_c, 15, 7744
1, 46160, Pitch_bend_c, 15, 7808
1, 46166, Note_off_c, 13, 53, 77
1, 46166, Note_off_c, 13, 50, 77
1, 46166, Note_off_c, 14, 47, 58
1, 46170, Pitch_bend_c, 15, 7872
1, 46180, Pitch_bend_c, 15, 7936
1, 46190, Pitch_bend_c, 15, 8000
1, 46196, Note_off_c, 1, 38, 112
1, 46196, Note_off_c, 6, 83, 112
1, 46200, Pitch_bend_c, 15, 8064
1, 46210, Pitch_bend_c, 15, 8128
1, 46220, Pitch_bend_c, 15, 8192
1, 46248, Note_off_c, 15, 67, 112
1, 46272, Note_off_c, 14, 50, 112
1, 46336, Note_on_c, 15, 65, 95
1, 46440, Note_off_c, 15, 65, 95
1, 46464, Note_on_c, 15, 67, 112
1, 46632, Note_off_c, 15, 67, 112
1, 46720, Note_on_c, 15, 65, 112
1, 46824, Note_off_c, 15, 65, 112
1, 46848, Note_on_c, 15, 67, 112
1, 47016, Note_off_c, 15, 67, 112
1, 47104, Note_on_c, 14, 53, 119
1, 47104, Note_on_c, 15, 65, 124
1, 47104, Note_on_c, 14, 50, 58
1, 47104, Note_on_c, 13, 53, 77
1, 47104, Note_on_c, 13, 59, 77
1, 47104, Note_on_c, 6, 89, 112
1, 47104, Note_on_c, 1, 41, 112
1, 47104, Note_on_c, 9, 38, 65
1, 47104, Note_on_c, 9, 59, 60
1, 47108, Note_off_c, 9, 59, 60
1, 47108, Note_off_c, 9, 38, 65
1, 47190, Note_off_c, 13, 59, 77
1, 47190, Note_off_c, 13, 53, 77
1, 47190, Note_off_c, 14, 50, 58
1, 47220, Note_off_c, 1, 41, 112
1, 47220, Note_off_c, 6, 89, 112
1, 47272, Note_off_c, 15, 65, 124
1, 47296, Note_off_c, 14, 53, 119
1, 47616, Note_on_c, 14, 52, 124
1, 47616, Note_on_c, 15, 64, 112
1, 47616, Note_on_c, 14, 50, 58
1, 47616, Note_on_c, 13, 56, 77
1, 47616, Note_on_c, 13, 59, 77
1, 47616, Note_on_c, 6, 88, 112
1, 47616, Note_on_c, 1, 40, 124
1, 47616, Note_on_c, 9, 59, 54
1, 47616, Note_on_c, 9, 38, 65
1, 47620, Note_off_c, 9, 38, 65
1, 47620, Note_off_c, 9, 59, 54
1, 47702, Note_off_c, 13, 59, 77
1, 47702, Note_off_c, 13, 56, 77
1, 47702, Note_off_c, 14, 50, 58
1, 47720, Note_off_c, 15, 64, 112
1, 47732, Note_off_c, 1, 40, 124
1, 47732, Note_off_c, 6, 88, 112
1, 47808, Note_off_c, 14, 52, 124
1, 48000, Note_on_c, 9, 59, 56
1, 48004, Note_off_c, 9, 59, 56
1, 48256, Note_on_c, 15, 64, 112
1, 48256, Note_on_c, 9, 59, 56
1, 48260, Note_off_c, 9, 59, 56
1, 48384, Note_on_c, 9, 59, 60
1, 48388, Note_off_c, 9, 59, 60
1, 48640, Note_on_c, 14, 52, 121
1, 48640, Note_on_c, 14, 50, 58
1, 48640, Note_on_c, 13, 56, 77
1, 48640, Note_on_c, 13, 59, 77
1, 48640, Note_on_c, 1, 40, 112
1, 48640, Note_on_c, 9, 38, 65
1, 48644, Note_off_c, 9, 38, 65
1, 48726, Note_off_c, 13, 59, 77
1, 48726, Note_off_c, 13, 56, 77
1, 48726, Note_off_c, 14, 50, 58
1, 48756, Note_off_c, 1, 40, 112
1, 48768, Note_on_c, 9, 59, 58
1, 48772, Note_off_c, 9, 59, 58
1, 48832, Note_off_c, 14, 52, 121
1, 48872, Note_off_c, 15, 64, 112
1, 49024, Note_on_c, 15, 64, 112
1, 49024, Note_on_c, 9, 59, 60
1, 49028, Note_off_c, 9, 59, 60
1, 49128, Note_off_c, 15, 64, 112
1, 49152, Note_on_c, 14, 47, 95
1, 49152, Note_on_c, 15, 66, 112
1, 49152, Note_on_c, 14, 50, 58
1, 49152, Note_on_c, 13, 54, 77
1, 49152, Note_on_c, 13, 57, 77
1, 49152, Note_on_c, 6, 83, 124
1, 49152, Note_on_c, 1, 35, 95
1, 49152, Note_on_c, 9, 59, 67
1, 49152, Note_on_c, 9, 38, 65
1, 49156, Note_off_c, 9, 38, 65
1, 49156, Note_off_c, 9, 59, 67
1, 49238, Note_off_c, 13, 57, 77
1, 49238, Note_off_c, 13, 54, 77
1, 49238, Note_off_c, 14, 50, 58
1, 49268, Note_off_c, 1, 35, 95
1, 49268, Note_off_c, 6, 83, 124
1, 49320, Note_off_c, 15, 66, 112
1, 49344, Note_off_c, 14, 47, 95
1, 49408, Note_on_c, 15, 64, 95
1, 49512, Note_off_c, 15, 64, 95
1, 49536, Note_on_c, 15, 66, 112
1, 49704, Note_off_c, 15, 66, 112
1, 49792, Note_on_c, 15, 64, 112
1, 49896, Note_off_c, 15, 64, 112
1, 49920, Note_on_c, 15, 66, 112
1, 50176, Note_on_c, 14, 54, 123
1, 50176, Note_on_c, 14, 50, 58
1, 50176, Note_on_c, 13, 53, 77
1, 50176, Note_on_c, 13, 59, 77
1, 50176, Note_on_c, 1, 42, 116
1, 50176, Note_on_c, 9, 38, 65
1, 50176, Note_on_c, 9, 59, 60
1, 50180, Note_off_c, 9, 59, 60
1, 50180, Note_off_c, 9, 38, 65
1, 50216, Note_off_c, 15, 66, 112
1, 50262, Note_off_c, 13, 59, 77
1, 50262, Note_off_c, 13, 53, 77
1, 50262, Note_off_c, 14, 50, 58
1, 50292, Note_off_c, 1, 42, 116
1, 50304, Note_on_c, 15, 65, 124
1, 50368, Note_off_c, 14, 54, 123
1, 50600, Note_off_c, 15, 65, 124
1, 50688, Note_on_c, 15, 64, 127
1, 50688, Note_on_c, 14, 45, 29
1, 50688, Note_on_c, 13, 49, 116
1, 50688, Note_on_c, 12, 64, 124
1, 50688, Note_on_c, 13, 52, 124
1, 50688, Note_on_c, 10, 69, 97
1, 50688, Note_on_c, 10, 73, 97
1, 50688, Note_on_c, 10, 76, 97
1, 50688, Note_on_c, 3, 93, 57
1, 50688, Note_on_c, 3, 97, 57
1, 50688, Note_on_c, 3, 100, 57
1, 50688, Note_on_c, 2, 93, 103
1, 50688, Note_on_c, 2, 97, 103
1, 50688, Note_on_c, 2, 100, 103
1, 50688, Note_on_c, 1, 40, 124
1, 50688, Note_on_c, 0, 45, 95
1, 50688, Note_on_c, 9, 38, 75
1, 50688, Note_on_c, 9, 36, 66
1, 50692, Note_off_c, 9, 36, 66
1, 50692, Note_off_c, 9, 38, 75
1, 50816, Note_off_c, 0, 45, 95
1, 50816, Note_off_c, 2, 100, 103
1, 50816, Note_off_c, 2, 97, 103
1, 50816, Note_off_c, 2, 93, 103
1, 50816, Note_off_c, 10, 76, 97
1, 50816, Note_off_c, 10, 73, 97
1, 50816, Note_off_c, 10, 69, 97
1, 50816, Note_off_c, 13, 52, 124
1, 50816, Note_off_c, 12, 64, 124
1, 50816, Note_off_c, 13, 49, 116
1, 50816, Note_off_c, 14, 45, 29
1, 51156, Note_off_c, 1, 40, 124
1, 51240, Note_off_c, 15, 64, 127
1, 51264, Note_on_c, 15, 61, 112
1, 51264, Note_on_c, 14, 45, 31
1, 51264, Note_on_c, 13, 49, 116
1, 51264, Note_on_c, 12, 65, 112
1, 51264, Note_on_c, 13, 53, 112
1, 51264, Note_on_c, 1, 41, 112
1, 51264, Note_on_c, 0, 45, 95
1, 51264, Note_on_c, 9, 38, 75
1, 51264, Note_on_c, 9, 36, 66
1, 51268, Note_off_c, 9, 36, 66
1, 51268, Note_off_c, 9, 38, 75
1, 51392, Note_off_c, 0, 45, 95
1, 51392, Note_off_c, 13, 53, 112
1, 51392, Note_off_c, 12, 65, 112
1, 51392, Note_off_c, 13, 49, 116
1, 51392, Note_off_c, 14, 45, 31
1, 51624, Note_off_c, 15, 61, 112
1, 51648, Note_on_c, 15, 62, 112
1, 51732, Note_off_c, 1, 41, 112
1, 51816, Note_off_c, 15, 62, 112
1, 51840, Note_on_c, 15, 64, 124
1, 51840, Note_on_c, 14, 45, 57
1, 51840, Note_on_c, 13, 49, 100
1, 51840, Note_on_c, 12, 66, 100
1, 51840, Note_on_c, 13, 54, 100
1, 51840, Note_on_c, 1, 42, 100
1, 51840, Note_on_c, 0, 45, 95
1, 51840, Note_on_c, 9, 36, 66
1, 51840, Note_on_c, 9, 38, 75
1, 51844, Note_off_c, 9, 38, 75
1, 51844, Note_off_c, 9, 36, 66
1, 51968, Note_off_c, 0, 45, 95
1, 51968, Note_off_c, 13, 54, 100
1, 51968, Note_off_c, 12, 66, 100
1, 51968, Note_off_c, 13, 49, 100
1, 51968, Note_off_c, 14, 45, 57
1, 52116, Note_off_c, 1, 42, 100
1, 52152, Note_off_c, 15, 64, 124
1, 52224, Note_on_c, 15, 64, 112
1, 52224, Note_on_c, 14, 45, 75
1, 52224, Note_on_c, 13, 49, 100
1, 52224, Note_on_c, 12, 67, 124
1, 52224, Note_on_c, 13, 55, 124
1, 52224, Note_on_c, 1, 43, 124
1, 52224, Note_on_c, 0, 45, 95
1, 52224, Note_on_c, 9, 38, 75
1, 52224, Note_on_c, 9, 36, 66
1, 52228, Note_off_c, 9, 36, 66
1, 52228, Note_off_c, 9, 38, 75
1, 52352, Note_off_c, 0, 45, 95
1, 52352, Note_off_c, 13, 55, 124
1, 52352, Note_off_c, 12, 67, 124
1, 52352, Note_off_c, 13, 49, 100
1, 52352, Note_off_c, 14, 45, 75
1, 52392, Note_off_c, 15, 64, 112
1, 52416, Pitch_bend_c, 15, 7360
1, 52416, Note_on_c, 15, 69, 112
1, 52426, Pitch_bend_c, 15, 7296
1, 52436, Pitch_bend_c, 15, 7424
1, 52446, Pitch_bend_c, 15, 7488
1, 52456, Pitch_bend_c, 15, 7552
1, 52466, Pitch_bend_c, 15, 7616
1, 52476, Pitch_bend_c, 15, 7680
1, 52486, Pitch_bend_c, 15, 7744
1, 52496, Pitch_bend_c, 15, 7808
1, 52506, Pitch_bend_c, 15, 7872
1, 52516, Pitch_bend_c, 15, 7936
1, 52526, Pitch_bend_c, 15, 8000
1, 52536, Pitch_bend_c, 15, 8064
1, 52546, Pitch_bend_c, 15, 8128
1, 52556, Pitch_bend_c, 15, 8192
1, 52692, Note_off_c, 1, 43, 124
1, 52776, Note_off_c, 15, 69, 112
1, 52800, Note_on_c, 15, 64, 112
1, 52800, Note_on_c, 14, 45, 56
1, 52800, Note_on_c, 13, 49, 116
1, 52800, Note_on_c, 12, 66, 116
1, 52800, Note_on_c, 13, 54, 116
1, 52800, Note_on_c, 1, 42, 116
1, 52800, Note_on_c, 0, 45, 112
1, 52800, Note_on_c, 9, 38, 75
1, 52800, Note_on_c, 9, 36, 65
1, 52804, Note_off_c, 9, 36, 65
1, 52804, Note_off_c, 9, 38, 75
1, 52928, Note_off_c, 0, 45, 112
1, 52928, Note_off_c, 13, 54, 116
1, 52928, Note_off_c, 12, 66, 116
1, 52928, Note_off_c, 13, 49, 116
1, 52928, Note_off_c, 14, 45, 56
1, 52968, Note_off_c, 15, 64, 112
1, 52992, Note_on_c, 15, 62, 124
1, 53160, Note_off_c, 15, 62, 124
1, 53172, Note_off_c, 1, 42, 116
1, 53184, Note_on_c, 15, 61, 109
1, 53352, Note_off_c, 15, 61, 109
1, 53376, Note_on_c, 15, 57, 111
1, 53376, Note_on_c, 14, 45, 75
1, 53376, Note_on_c, 13, 49, 116
1, 53376, Note_on_c, 12, 65, 95
1, 53376, Note_on_c, 13, 53, 95
1, 53376, Note_on_c, 1, 41, 95
1, 53376, Note_on_c, 0, 45, 112
1, 53376, Note_on_c, 9, 36, 65
1, 53376, Note_on_c, 9, 38, 75
1, 53380, Note_off_c, 9, 38, 75
1, 53380, Note_off_c, 9, 36, 65
1, 53504, Note_off_c, 0, 45, 112
1, 53504, Note_off_c, 13, 53, 95
1, 53504, Note_off_c, 12, 65, 95
1, 53504, Note_off_c, 13, 49, 116
1, 53504, Note_off_c, 14, 45, 75
1, 53652, Note_off_c, 1, 41, 95
1, 53712, Note_off_c, 3, 100, 57
1, 53712, Note_off_c, 3, 97, 57
1, 53712, Note_off_c, 3, 93, 57
1, 53736, Note_off_c, 15, 57, 111
1, 53760, Note_on_c, 15, 64, 81
1, 53760, Note_on_c, 14, 45, 108
1, 53760, Note_on_c, 13, 49, 116
1, 53760, Note_on_c, 12, 64, 112
1, 53760, Note_on_c, 13, 52, 112
1, 53760, Note_on_c, 10, 69, 97
1, 53760, Note_on_c, 10, 73, 97
1, 53760, Note_on_c, 10, 76, 97
1, 53760, Note_on_c, 3, 93, 57
1, 53760, Note_on_c, 3, 97, 57
1, 53760, Note_on_c, 3, 100, 57
1, 53760, Note_on_c, 2, 93, 103
1, 53760, Note_on_c, 2, 97, 103
1, 53760, Note_on_c, 2, 100, 103
1, 53760, Note_on_c, 1, 40, 112
1, 53760, Note_on_c, 0, 45, 112
1, 53760, Note_on_c, 9, 38, 75
1, 53760, Note_on_c, 9, 36, 65
1, 53764, Note_off_c, 9, 36, 65
1, 53764, Note_off_c, 9, 38, 75
1, 53888, Note_off_c, 0, 45, 112
1, 53888, Note_off_c, 2, 100, 103
1, 53888, Note_off_c, 2, 97, 103
1, 53888, Note_off_c, 2, 93, 103
1, 53888, Note_off_c, 10, 76, 97
1, 53888, Note_off_c, 10, 73, 97
1, 53888, Note_off_c, 10, 69, 97
1, 53888, Note_off_c, 13, 52, 112
1, 53888, Note_off_c, 12, 64, 112
1, 53888, Note_off_c, 13, 49, 116
1, 53888, Note_off_c, 14, 45, 108
1, 53928, Note_off_c, 15, 64, 81
1, 54144, Note_on_c, 15, 64, 112
1, 54228, Note_off_c, 1, 40, 112
1, 54312, Note_off_c, 15, 64, 112
1, 54336, Note_on_c, 15, 61, 112
1, 54336, Note_on_c, 14, 45, 73
1, 54336, Note_on_c, 13, 49, 116
1, 54336, Note_on_c, 12, 65, 124
1, 54336, Note_on_c, 13, 53, 124
1, 54336, Note_on_c, 1, 41, 124
1, 54336, Note_on_c, 0, 45, 95
1, 54336, Note_on_c, 9, 38, 75
1, 54336, Note_on_c, 9, 36, 65
1, 54340, Note_off_c, 9, 36, 65
1, 54340, Note_off_c, 9, 38, 75
1, 54464, Note_off_c, 0, 45, 95
1, 54464, Note_off_c, 13, 53, 124
1, 54464, Note_off_c, 12, 65, 124
1, 54464, Note_off_c, 13, 49, 116
1, 54464, Note_off_c, 14, 45, 73
1, 54696, Note_off_c, 15, 61, 112
1, 54720, Note_on_c, 15, 62, 112
1, 54804, Note_off_c, 1, 41, 124
1, 54888, Note_off_c, 15, 62, 112
1, 54912, Note_on_c, 15, 64, 124
1, 54912, Note_on_c, 14, 45, 94
1, 54912, Note_on_c, 13, 49, 116
1, 54912, Note_on_c, 12, 66, 100
1, 54912, Note_on_c, 13, 54, 100
1, 54912, Note_on_c, 1, 42, 100
1, 54912, Note_on_c, 0, 45, 112
1, 54912, Note_on_c, 9, 36, 65
1, 54912, Note_on_c, 9, 38, 75
1, 54916, Note_off_c, 9, 38, 75
1, 54916, Note_off_c, 9, 36, 65
1, 55032, Note_off_c, 15, 64, 124
1, 55040, Note_off_c, 0, 45, 112
1, 55040, Note_off_c, 13, 54, 100
1, 55040, Note_off_c, 12, 66, 100
1, 55040, Note_off_c, 13, 49, 116
1, 55040, Note_off_c, 14, 45, 94
1, 55104, Note_on_c, 15, 64, 112
1, 55188, Note_off_c, 1, 42, 100
1, 55272, Note_off_c, 15, 64, 112
1, 55296, Note_on_c, 15, 69, 112
1, 55296, Note_on_c, 14, 45, 108
1, 55296, Note_on_c, 13, 49, 116
1, 55296, Note_on_c, 12, 67, 112
1, 55296, Note_on_c, 13, 55, 112
1, 55296, Note_on_c, 1, 43, 112
1, 55296, Note_on_c, 0, 45, 112
1, 55296, Note_on_c, 9, 38, 75
1, 55296, Note_on_c, 9, 36, 65
1, 55300, Note_off_c, 9, 36, 65
1, 55300, Note_off_c, 9, 38, 75
1, 55416, Note_off_c, 15, 69, 112
1, 55424, Note_off_c, 0, 45, 112
1, 55424, Note_off_c, 13, 55, 112
1, 55424, Note_off_c, 12, 67, 112
1, 55424, Note_off_c, 13, 49, 116
1, 55424, Note_off_c, 14, 45, 108
1, 55488, Note_on_c, 15, 69, 112
1, 55656, Note_off_c, 15, 69, 112
1, 55680, Note_on_c, 15, 64, 112
1, 55764, Note_off_c, 1, 43, 112
1, 55848, Note_off_c, 15, 64, 112
1, 55872, Note_on_c, 15, 62, 124
1, 55872, Note_on_c, 14, 45, 90
1, 55872, Note_on_c, 13, 49, 116
1, 55872, Note_on_c, 12, 66, 116
1, 55872, Note_on_c, 13, 54, 116
1, 55872, Note_on_c, 1, 42, 116
1, 55872, Note_on_c, 0, 45, 112
1, 55872, Note_on_c, 9, 38, 75
1, 55872, Note_on_c, 9, 36, 65
1, 55876, Note_off_c, 9, 36, 65
1, 55876, Note_off_c, 9, 38, 75
1, 56000, Note_off_c, 0, 45, 112
1, 56000, Note_off_c, 13, 54, 116
1, 56000, Note_off_c, 12, 66, 116
1, 56000, Note_off_c, 13, 49, 116
1, 56000, Note_off_c, 14, 45, 90
1, 56040, Note_off_c, 15, 62, 124
1, 56256, Note_on_c, 15, 61, 109
1, 56340, Note_off_c, 1, 42, 116
1, 56424, Note_off_c, 15, 61, 109
1, 56448, Note_on_c, 15, 57, 111
1, 56448, Note_on_c, 14, 45, 73
1, 56448, Note_on_c, 13, 49, 116
1, 56448, Note_on_c, 12, 65, 112
1, 56448, Note_on_c, 13, 53, 112
1, 56448, Note_on_c, 1, 41, 112
1, 56448, Note_on_c, 0, 45, 112
1, 56448, Note_on_c, 9, 36, 65
1, 56448, Note_on_c, 9, 38, 75
1, 56452, Note_off_c, 9, 38, 75
1, 56452, Note_off_c, 9, 36, 65
1, 56576, Note_off_c, 0, 45, 112
1, 56576, Note_off_c, 13, 53, 112
1, 56576, Note_off_c, 12, 65, 112
1, 56576, Note_off_c, 13, 49, 116
1, 56576, Note_off_c, 14, 45, 73
1, 56616, Note_off_c, 15, 57, 111
1, 56724, Note_off_c, 1, 41, 112
1, 56784, Note_off_c, 3, 100, 57
1, 56784, Note_off_c, 3, 97, 57
1, 56784, Note_off_c, 3, 93, 57
1, 56832, Note_on_c, 15, 64, 81
1, 56832, Note_on_c, 14, 47, 93
1, 56832, Note_on_c, 13, 50, 112
1, 56832, Note_on_c, 12, 66, 116
1, 56832, Note_on_c, 13, 54, 116
1, 56832, Note_on_c, 10, 71, 97
1, 56832, Note_on_c, 10, 74, 97
1, 56832, Note_on_c, 10, 78, 97
1, 56832, Note_on_c, 3, 95, 57
1, 56832, Note_on_c, 3, 98, 57
1, 56832, Note_on_c, 3, 102, 57
1, 56832, Note_on_c, 2, 95, 103
1, 56832, Note_on_c, 2, 98, 103
1, 56832, Note_on_c, 2, 102, 103
1, 56832, Note_on_c, 1, 42, 116
1, 56832, Note_on_c, 0, 45, 95
1, 56832, Note_on_c, 9, 38, 75
1, 56832, Note_on_c, 9, 36, 65
1, 56836, Note_off_c, 9, 36, 65
1, 56836, Note_off_c, 9, 38, 75
1, 56952, Note_off_c, 15, 64, 81
1, 56960, Note_off_c, 0, 45, 95
1, 56960, Note_off_c, 2, 102, 103
1, 56960, Note_off_c, 2, 98, 103
1, 56960, Note_off_c, 2, 95, 103
1, 56960, Note_off_c, 10, 78, 97
1, 56960, Note_off_c, 10, 74, 97
1, 56960, Note_off_c, 10, 71, 97
1, 56960, Note_off_c, 13, 54, 116
1, 56960, Note_off_c, 12, 66, 116
1, 56960, Note_off_c, 13, 50, 112
1, 56960, Note_off_c, 14, 47, 93
1, 57216, Note_on_c, 15, 64, 112
1, 57300, Note_off_c, 1, 42, 116
1, 57384, Note_off_c, 15, 64, 112
1, 57408, Note_on_c, 15, 62, 112
1, 57408, Note_on_c, 14, 47, 76
1, 57408, Note_on_c, 13, 50, 112
1, 57408, Note_on_c, 12, 67, 112
1, 57408, Note_on_c, 13, 55, 112
1, 57408, Note_on_c, 1, 43, 112
1, 57408, Note_on_c, 0, 45, 95
1, 57408, Note_on_c, 9, 38, 75
1, 57408, Note_on_c, 9, 36, 65
1, 57412, Note_off_c, 9, 36, 65
1, 57412, Note_off_c, 9, 38, 75
1, 57536, Note_off_c, 0, 45, 95
1, 57536, Note_off_c, 13, 55, 112
1, 57536, Note_off_c, 12, 67, 112
1, 57536, Note_off_c, 13, 50, 112
1, 57536, Note_off_c, 14, 47, 76
1, 57720, Note_off_c, 15, 62, 112
1, 57792, Note_on_c, 15, 62, 95
1, 57876, Note_off_c, 1, 43, 112
1, 57960, Note_off_c, 15, 62, 95
1, 57984, Note_on_c, 15, 64, 112
1, 57984, Note_on_c, 14, 49, 97
1, 57984, Note_on_c, 13, 52, 112
1, 57984, Note_on_c, 12, 68, 121
1, 57984, Note_on_c, 13, 56, 100
1, 57984, Note_on_c, 1, 44, 100
1, 57984, Note_on_c, 0, 45, 95
1, 57984, Note_on_c, 9, 36, 65
1, 57984, Note_on_c, 9, 38, 75
1, 57988, Note_off_c, 9, 38, 75
1, 57988, Note_off_c, 9, 36, 65
1, 58104, Note_off_c, 15, 64, 112
1, 58112, Note_off_c, 0, 45, 95
1, 58112, Note_off_c, 13, 56, 100
1, 58112, Note_off_c, 12, 68, 121
1, 58112, Note_off_c, 13, 52, 112
1, 58112, Note_off_c, 14, 49, 97
1, 58176, Note_on_c, 15, 64, 112
1, 58260, Note_off_c, 1, 44, 100
1, 58296, Note_off_c, 15, 64, 112
1, 58368, Note_on_c, 14, 47, 93
1, 58368, Note_on_c, 13, 54, 100
1, 58368, Note_on_c, 12, 69, 112
1, 58368, Note_on_c, 13, 57, 112
1, 58368, Note_on_c, 1, 45, 112
1, 58368, Note_on_c, 0, 45, 95
1, 58368, Note_on_c, 9, 38, 75
1, 58368, Note_on_c, 9, 36, 65
1, 58372, Note_off_c, 9, 36, 65
1, 58372, Note_off_c, 9, 38, 75
1, 58496, Note_off_c, 0, 45, 95
1, 58496, Note_off_c, 13, 57, 112
1, 58496, Note_off_c, 12, 69, 112
1, 58496, Note_off_c, 13, 54, 100
1, 58496, Note_off_c, 14, 47, 93
1, 58752, Pitch_bend_c, 15, 7360
1, 58752, Note_on_c, 15, 71, 112
1, 58762, Pitch_bend_c, 15, 7296
1, 58772, Pitch_bend_c, 15, 7424
1, 58782, Pitch_bend_c, 15, 7488
1, 58792, Pitch_bend_c, 15, 7552
1, 58802, Pitch_bend_c, 15, 7616
1, 58812, Pitch_bend_c, 15, 7680
1, 58822, Pitch_bend_c, 15, 7744
1, 58832, Pitch_bend_c, 15, 7808
1, 58836, Note_off_c, 1, 45, 112
1, 58842, Pitch_bend_c, 15, 7872
1, 58852, Pitch_bend_c, 15, 7936
1, 58862, Pitch_bend_c, 15, 8000
1, 58872, Note_off_c, 15, 71, 112
1, 58872, Pitch_bend_c, 15, 8064
1, 58882, Pitch_bend_c, 15, 8128
1, 58892, Pitch_bend_c, 15, 8192
1, 58944, Note_on_c, 15, 71, 124
1, 58944, Note_on_c, 14, 49, 81
1, 58944, Note_on_c, 13, 52, 112
1, 58944, Note_on_c, 12, 68, 116
1, 58944, Note_on_c, 13, 56, 116
1, 58944, Note_on_c, 1, 44, 116
1, 58944, Note_on_c, 0, 45, 112
1, 58944, Note_on_c, 9, 38, 75
1, 58944, Note_on_c, 9, 36, 65
1, 58948, Note_off_c, 9, 36, 65
1, 58948, Note_off_c, 9, 38, 75
1, 59072, Note_off_c, 0, 45, 112
1, 59072, Note_off_c, 13, 56, 116
1, 59072, Note_off_c, 12, 68, 116
1, 59072, Note_off_c, 13, 52, 112
1, 59072, Note_off_c, 14, 49, 81
1, 59112, Note_off_c, 15, 71, 124
1, 59136, Note_on_c, 15, 69, 124
1, 59412, Note_off_c, 1, 44, 116
1, 59496, Note_off_c, 15, 69, 124
1, 59520, Note_on_c, 15, 68, 100
1, 59520, Note_on_c, 14, 47, 76
1, 59520, Note_on_c, 13, 50, 112
1, 59520, Note_on_c, 12, 67, 112
1, 59520, Note_on_c, 13, 55, 112
1, 59520, Note_on_c, 1, 43, 112
1, 59520, Note_on_c, 0, 45, 112
1, 59520, Note_on_c, 9, 36, 65
1, 59520, Note_on_c, 9, 38, 75
1, 59524, Note_off_c, 9, 38, 75
1, 59524, Note_off_c, 9, 36, 65
1, 59648, Note_off_c, 0, 45, 112
1, 59648, Note_off_c, 13, 55, 112
1, 59648, Note_off_c, 12, 67, 112
1, 59648, Note_off_c, 13, 50, 112
1, 59648, Note_off_c, 14, 47, 76
1, 59688, Note_off_c, 15, 68, 100
1, 59712, Note_on_c, 15, 66, 116
1, 59892, Note_off_c, 1, 43, 112
1, 59904, Note_off_c, 3, 102, 57
1, 59904, Note_off_c, 3, 98, 57
1, 59904, Note_off_c, 3, 95, 57
1, 59904, Note_on_c, 9, 36, 121
1, 59908, Note_off_c, 9, 36, 121
1, 60072, Note_off_c, 15, 66, 116
1, 60096, Note_on_c, 15, 64, 124
1, 60096, Note_on_c, 1, 42, 116
1, 60096, Note_on_c, 0, 42, 112
1, 60096, Note_on_c, 9, 38, 124
1, 60096, Note_on_c, 9, 55, 111
1, 60100, Note_off_c, 9, 55, 111
1, 60100, Note_off_c, 9, 38, 124
1, 60160, Note_on_c, 14, 46, 97
1, 60160, Note_on_c, 13, 52, 116
1, 60160, Note_on_c, 12, 66, 116
1, 60160, Note_on_c, 13, 61, 116
1, 60160, Note_on_c, 10, 70, 116
1, 60160, Note_on_c, 10, 73, 116
1, 60160, Note_on_c, 10, 78, 116
1, 60160, Note_on_c, 2, 54, 103
1, 60160, Note_on_c, 2, 66, 103
1, 60160, Note_on_c, 2, 78, 103
1, 60160, Note_on_c, 2, 82, 103
1, 60160, Note_on_c, 2, 85, 103
1, 60160, Note_on_c, 2, 88, 103
1, 60224, Note_off_c, 0, 42, 112
1, 60408, Note_off_c, 15, 64, 124
1, 60470, Note_off_c, 1, 42, 116
1, 60480, Note_on_c, 15, 64, 112
1, 60544, Note_off_c, 10, 78, 116
1, 60544, Note_off_c, 10, 73, 116
1, 60544, Note_off_c, 10, 70, 116
1, 60544, Note_off_c, 12, 66, 116
1, 60608, Note_off_c, 13, 61, 116
1, 60608, Note_off_c, 13, 52, 116
1, 60608, Note_off_c, 14, 46, 97
1, 60648, Note_off_c, 15, 64, 112
1, 60672, Pitch_bend_c, 15, 7360
1, 60672, Note_on_c, 15, 66, 116
1, 60672, Note_on_c, 14, 46, 97
1, 60672, Note_on_c, 13, 52, 100
1, 60672, Note_on_c, 12, 64, 112
1, 60672, Note_on_c, 13, 61, 116
1, 60672, Note_on_c, 10, 68, 112
1, 60672, Note_on_c, 10, 73, 112
1, 60672, Note_on_c, 10, 76, 112
1, 60672, Note_on_c, 1, 37, 116
1, 60672, Note_on_c, 0, 42, 112
1, 60672, Note_on_c, 9, 59, 75
1, 60672, Note_on_c, 9, 36, 124
1, 60676, Note_off_c, 9, 36, 124
1, 60676, Note_off_c, 9, 59, 75
1, 60682, Pitch_bend_c, 15, 7296
1, 60692, Pitch_bend_c, 15, 7424
1, 60702, Pitch_bend_c, 15, 7488
1, 60712, Pitch_bend_c, 15, 7552
1, 60722, Pitch_bend_c, 15, 7616
1, 60732, Pitch_bend_c, 15, 7680
1, 60742, Pitch_bend_c, 15, 7744
1, 60752, Pitch_bend_c, 15, 7808
1, 60762, Pitch_bend_c, 15, 7872
1, 60772, Pitch_bend_c, 15, 7936
1, 60782, Pitch_bend_c, 15, 8000
1, 60792, Pitch_bend_c, 15, 8064
1, 60800, Note_off_c, 0, 42, 112
1, 60800, Note_off_c, 13, 61, 116
1, 60800, Note_off_c, 13, 52, 100
1, 60800, Note_off_c, 14, 46, 97
1, 60802, Pitch_bend_c, 15, 8128
1, 60812, Pitch_bend_c, 15, 8192
1, 60858, Note_off_c, 1, 37, 116
1, 60928, Note_off_c, 10, 76, 112
1, 60928, Note_off_c, 10, 73, 112
1, 60928, Note_off_c, 10, 68, 112
1, 60928, Note_off_c, 12, 64, 112
1, 60928, Note_on_c, 12, 63, 100
1, 60928, Note_on_c, 10, 66, 100
1, 60928, Note_on_c, 10, 71, 100
1, 60928, Note_on_c, 10, 75, 100
1, 61056, Note_off_c, 10, 75, 100
1, 61056, Note_off_c, 10, 71, 100
1, 61056, Note_off_c, 10, 66, 100
1, 61056, Note_off_c, 12, 63, 100
1, 61056, Note_on_c, 14, 46, 108
1, 61056, Note_on_c, 13, 52, 116
1, 61056, Note_on_c, 12, 61, 100
1, 61056, Note_on_c, 13, 61, 100
1, 61056, Note_on_c, 10, 64, 100
1, 61056, Note_on_c, 10, 70, 100
1, 61056, Note_on_c, 10, 73, 100
1, 61056, Note_on_c, 1, 42, 116
1, 61056, Note_on_c, 0, 42, 112
1, 61056, Note_on_c, 9, 59, 97
1, 61056, Note_on_c, 9, 38, 124
1, 61060, Note_off_c, 9, 38, 124
1, 61060, Note_off_c, 9, 59, 97
1, 61184, Note_off_c, 0, 42, 112
1, 61184, Note_off_c, 13, 61, 100
1, 61184, Note_off_c, 13, 52, 116
1, 61184, Note_off_c, 14, 46, 108
1, 61242, Note_off_c, 1, 42, 116
1, 61312, Note_off_c, 10, 73, 100
1, 61312, Note_off_c, 10, 70, 100
1, 61312, Note_off_c, 10, 64, 100
1, 61312, Note_off_c, 12, 61, 100
1, 61312, Note_on_c, 12, 59, 124
1, 61312, Note_on_c, 10, 63, 124
1, 61312, Note_on_c, 10, 68, 124
1, 61312, Note_on_c, 10, 71, 124
1, 61312, Note_on_c, 9, 59, 99
1, 61316, Note_off_c, 9, 59, 99
1, 61440, Note_off_c, 10, 71, 124
1, 61440, Note_off_c, 10, 68, 124
1, 61440, Note_off_c, 10, 63, 124
1, 61440, Note_off_c, 12, 59, 124
1, 61440, Note_on_c, 14, 46, 108
1, 61440, Note_on_c, 13, 52, 116
1, 61440, Note_on_c, 12, 58, 100
1, 61440, Note_on_c, 13, 61, 100
1, 61440, Note_on_c, 10, 61, 100
1, 61440, Note_on_c, 10, 66, 100
1, 61440, Note_on_c, 10, 70, 100
1, 61440, Note_on_c, 1, 42, 116
1, 61440, Note_on_c, 0, 42, 112
1, 61440, Note_on_c, 9, 59, 95
1, 61440, Note_on_c, 9, 36, 124
1, 61444, Note_off_c, 9, 36, 124
1, 61444, Note_off_c, 9, 59, 95
1, 61568, Note_off_c, 0, 42, 112
1, 61632, Note_off_c, 10, 70, 100
1, 61632, Note_off_c, 10, 66, 100
1, 61632, Note_off_c, 10, 61, 100
1, 61632, Note_off_c, 13, 61, 100
1, 61632, Note_off_c, 12, 58, 100
1, 61632, Note_off_c, 13, 52, 116
1, 61632, Note_off_c, 14, 46, 108
1, 61696, Note_on_c, 14, 49, 108
1, 61696, Note_on_c, 13, 56, 116
1, 61696, Note_on_c, 12, 68, 100
1, 61696, Note_on_c, 13, 64, 109
1, 61696, Note_on_c, 10, 73, 100
1, 61696, Note_on_c, 10, 76, 100
1, 61696, Note_on_c, 10, 80, 100
1, 61766, Note_off_c, 1, 42, 116
1, 61824, Note_on_c, 1, 37, 116
1, 61824, Note_on_c, 9, 59, 91
1, 61824, Note_on_c, 9, 38, 112
1, 61828, Note_off_c, 9, 38, 112
1, 61828, Note_off_c, 9, 59, 91
1, 61888, Note_off_c, 10, 80, 100
1, 61888, Note_off_c, 10, 76, 100
1, 61888, Note_off_c, 10, 73, 100
1, 61888, Note_off_c, 12, 68, 100
1, 62080, Note_off_c, 13, 64, 109
1, 62080, Note_off_c, 13, 56, 116
1, 62080, Note_off_c, 14, 49, 108
1, 62080, Note_on_c, 12, 64, 124
1, 62080, Note_on_c, 10, 68, 124
1, 62080, Note_on_c, 10, 71, 124
1, 62080, Note_on_c, 10, 76, 124
1, 62080, Note_on_c, 9, 59, 95
1, 62084, Note_off_c, 9, 59, 95
1, 62150, Note_off_c, 1, 37, 116
1, 62208, Note_off_c, 10, 76, 124
1, 62208, Note_off_c, 10, 71, 124
1, 62208, Note_off_c, 10, 68, 124
1, 62208, Note_off_c, 12, 64, 124
1, 62208, Note_on_c, 14, 58, 108
1, 62208, Note_on_c, 13, 61, 116
1, 62208, Note_on_c, 12, 66, 116
1, 62208, Note_on_c, 13, 66, 103
1, 62208, Note_on_c, 10, 70, 116
1, 62208, Note_on_c, 10, 73, 116
1, 62208, Note_on_c, 10, 78, 116
1, 62208, Note_on_c, 1, 42, 116
1, 62208, Note_on_c, 9, 59, 95
1, 62208, Note_on_c, 9, 36, 112
1, 62212, Note_off_c, 9, 36, 112
1, 62212, Note_off_c, 9, 59, 95
1, 62464, Note_off_c, 10, 78, 116
1, 62464, Note_off_c, 10, 73, 116
1, 62464, Note_off_c, 10, 70, 116
1, 62464, Note_off_c, 12, 66, 116
1, 62464, Note_on_c, 12, 68, 100
1, 62464, Note_on_c, 10, 71, 100
1, 62464, Note_on_c, 10, 75, 100
1, 62464, Note_on_c, 10, 80, 100
1, 62534, Note_off_c, 1, 42, 116
1, 62560, Note_off_c, 13, 66, 103
1, 62560, Note_off_c, 13, 61, 116
1, 62560, Note_off_c, 14, 58, 108
1, 62568, Note_off_c, 15, 66, 116
1, 62592, Note_off_c, 10, 80, 100
1, 62592, Note_off_c, 10, 75, 100
1, 62592, Note_off_c, 10, 71, 100
1, 62592, Note_off_c, 12, 68, 100
1, 62592, Note_on_c, 14, 56, 108
1, 62592, Note_on_c, 13, 58, 116
1, 62592, Note_on_c, 12, 70, 116
1, 62592, Note_on_c, 13, 64, 115
1, 62592, Note_on_c, 10, 73, 116
1, 62592, Note_on_c, 10, 76, 116
1, 62592, Note_on_c, 10, 82, 116
1, 62592, Note_on_c, 1, 40, 116
1, 62592, Note_on_c, 9, 59, 101
1, 62592, Note_on_c, 9, 38, 95
1, 62596, Note_off_c, 9, 38, 95
1, 62596, Note_off_c, 9, 59, 101
1, 62848, Note_off_c, 10, 82, 116
1, 62848, Note_off_c, 10, 76, 116
1, 62848, Note_off_c, 10, 73, 116
1, 62848, Note_off_c, 12, 70, 116
1, 62848, Note_on_c, 12, 71, 127
1, 62848, Note_on_c, 10, 75, 124
1, 62848, Note_on_c, 10, 78, 124
1, 62848, Note_on_c, 10, 83, 124
1, 62848, Note_on_c, 9, 59, 105
1, 62852, Note_off_c, 9, 59, 105
1, 62918, Note_off_c, 1, 40, 116
1, 62944, Note_off_c, 13, 64, 115
1, 62944, Note_off_c, 13, 58, 116
1, 62944, Note_off_c, 14, 56, 108
1, 62976, Note_off_c, 10, 83, 124
1, 62976, Note_off_c, 10, 78, 124
1, 62976, Note_off_c, 10, 75, 124
1, 62976, Note_off_c, 2, 88, 103
1, 62976, Note_off_c, 2, 85, 103
1, 62976, Note_off_c, 2, 82, 103
1, 62976, Note_off_c, 2, 78, 103
1, 62976, Note_off_c, 2, 66, 103
1, 62976, Note_off_c, 2, 54, 103
1, 62976, Pitch_bend_c, 15, 7360
1, 62976, Note_on_c, 15, 73, 116
1, 62976, Note_on_c, 14, 54, 108
1, 62976, Note_on_c, 13, 58, 127
1, 62976, Note_on_c, 12, 73, 127
1, 62976, Note_on_c, 13, 61, 127
1, 62976, Note_on_c, 11, 66, 116
1, 62976, Note_on_c, 10, 78, 116
1, 62976, Note_on_c, 10, 82, 116
1, 62976, Note_on_c, 10, 85, 116
1, 62976, Note_on_c, 2, 71, 53
1, 62976, Note_on_c, 2, 75, 53
1, 62976, Note_on_c, 2, 78, 53
1, 62976, Note_on_c, 1, 39, 116
1, 62976, Note_on_c, 9, 36, 97
1, 62976, Note_on_c, 9, 59, 91
1, 62980, Note_off_c, 9, 59, 91
1, 62980, Note_off_c, 9, 36, 97
1, 62982, Note_off_c, 12, 71, 127
1, 62986, Pitch_bend_c, 15, 7296
1, 62996, Pitch_bend_c, 15, 7424
1, 63006, Pitch_bend_c, 15, 7488
1, 63016, Pitch_bend_c, 15, 7552
1, 63026, Pitch_bend_c, 15, 7616
1, 63036, Pitch_bend_c, 15, 7680
1, 63046, Pitch_bend_c, 15, 7744
1, 63056, Pitch_bend_c, 15, 7808
1, 63066, Pitch_bend_c, 15, 7872
1, 63076, Pitch_bend_c, 15, 7936
1, 63086, Pitch_bend_c, 15, 8000
1, 63096, Pitch_bend_c, 15, 8064
1, 63106, Pitch_bend_c, 15, 8128
1, 63116, Pitch_bend_c, 15, 8192
1, 63168, Note_off_c, 10, 85, 116
1, 63168, Note_off_c, 10, 82, 116
1, 63168, Note_off_c, 10, 78, 116
1, 63168, Note_off_c, 13, 61, 127
1, 63168, Note_off_c, 12, 73, 127
1, 63168, Note_off_c, 13, 58, 127
1, 63168, Note_off_c, 14, 54, 108
1, 63232, Note_on_c, 14, 47, 76
1, 63232, Note_on_c, 13, 54, 116
1, 63232, Note_on_c, 13, 63, 116
1, 63336, Note_off_c, 15, 73, 116
1, 63360, Note_off_c, 13, 54, 116
1, 63360, Note_on_c, 15, 71, 112
1, 63360, Note_on_c, 9, 38, 117
1, 63360, Note_on_c, 9, 59, 99
1, 63361, Note_off_c, 14, 47, 76
1, 63364, Note_off_c, 9, 59, 99
1, 63364, Note_off_c, 9, 38, 117
1, 63365, Note_off_c, 13, 63, 116
1, 63476, Note_off_c, 1, 39, 116
1, 63488, Note_off_c, 11, 66, 116
1, 63592, Note_off_c, 15, 71, 112
1, 63616, Note_on_c, 15, 69, 112
1, 63616, Note_on_c, 11, 66, 100
1, 63616, Note_on_c, 1, 39, 116
1, 63616, Note_on_c, 9, 59, 99
1, 63620, Note_off_c, 9, 59, 99
1, 63720, Note_off_c, 15, 69, 112
1, 63732, Note_off_c, 1, 39, 116
1, 63738, Note_off_c, 2, 78, 53
1, 63738, Note_off_c, 2, 75, 53
1, 63744, Note_off_c, 11, 66, 100
1, 63744, Pitch_bend_c, 15, 7360
1, 63744, Note_on_c, 15, 73, 116
1, 63744, Note_on_c, 11, 65, 124
1, 63744, Note_on_c, 2, 74, 53
1, 63744, Note_on_c, 2, 77, 53
1, 63744, Note_on_c, 2, 80, 53
1, 63744, Note_on_c, 1, 38, 112
1, 63744, Note_on_c, 9, 36, 103
1, 63744, Note_on_c, 9, 59, 103
1, 63748, Note_off_c, 9, 59, 103
1, 63748, Note_off_c, 9, 36, 103
1, 63754, Pitch_bend_c, 15, 7296
1, 63764, Pitch_bend_c, 15, 7424
1, 63774, Pitch_bend_c, 15, 7488
1, 63784, Pitch_bend_c, 15, 7552
1, 63794, Pitch_bend_c, 15, 7616
1, 63804, Pitch_bend_c, 15, 7680
1, 63814, Pitch_bend_c, 15, 7744
1, 63824, Pitch_bend_c, 15, 7808
1, 63834, Pitch_bend_c, 15, 7872
1, 63844, Pitch_bend_c, 15, 7936
1, 63854, Pitch_bend_c, 15, 8000
1, 63864, Pitch_bend_c, 15, 8064
1, 63874, Pitch_bend_c, 15, 8128
1, 63884, Pitch_bend_c, 15, 8192
1, 63976, Note_off_c, 15, 73, 116
1, 64000, Note_on_c, 15, 71, 112
1, 64000, Note_on_c, 14, 47, 76
1, 64000, Note_on_c, 13, 53, 112
1, 64000, Note_on_c, 13, 62, 124
1, 64116, Note_off_c, 1, 38, 112
1, 64128, Note_off_c, 13, 53, 112
1, 64128, Note_on_c, 9, 38, 117
1, 64128, Note_on_c, 9, 59, 103
1, 64129, Note_off_c, 14, 47, 76
1, 64132, Note_off_c, 9, 59, 103
1, 64132, Note_off_c, 9, 38, 117
1, 64133, Note_off_c, 13, 62, 124
1, 64232, Note_off_c, 15, 71, 112
1, 64256, Note_off_c, 11, 65, 124
1, 64384, Note_on_c, 15, 71, 112
1, 64384, Note_on_c, 11, 64, 124
1, 64384, Note_on_c, 1, 38, 124
1, 64384, Note_on_c, 9, 59, 103
1, 64388, Note_off_c, 9, 59, 103
1, 64500, Note_off_c, 1, 38, 124
1, 64506, Note_off_c, 2, 80, 53
1, 64506, Note_off_c, 2, 77, 53
1, 64506, Note_off_c, 2, 74, 53
1, 64506, Note_off_c, 2, 71, 53
1, 64512, Note_off_c, 11, 64, 124
1, 64512, Note_on_c, 2, 69, 53
1, 64512, Note_on_c, 2, 73, 53
1, 64512, Note_on_c, 2, 76, 53
1, 64512, Note_on_c, 1, 37, 100
1, 64512, Note_on_c, 9, 59, 103
1, 64512, Note_on_c, 9, 36, 103
1, 64516, Note_off_c, 9, 36, 103
1, 64516, Note_off_c, 9, 59, 103
1, 64768, Note_on_c, 14, 45, 93
1, 64768, Note_on_c, 13, 52, 124
1, 64768, Note_on_c, 13, 61, 116
1, 64768, Note_on_c, 11, 66, 116
1, 64872, Note_off_c, 15, 71, 112
1, 64884, Note_off_c, 1, 37, 100
1, 64896, Note_off_c, 11, 66, 116
1, 64896, Note_off_c, 13, 61, 116
1, 64896, Note_off_c, 13, 52, 124
1, 64896, Note_off_c, 14, 45, 93
1, 64896, Note_on_c, 15, 69, 112
1, 64896, Note_on_c, 9, 38, 117
1, 64896, Note_on_c, 9, 59, 101
1, 64900, Note_off_c, 9, 59, 101
1, 64900, Note_off_c, 9, 38, 117
1, 65128, Note_off_c, 15, 69, 112
1, 65152, Note_on_c, 15, 68, 116
1, 65152, Note_on_c, 11, 64, 112
1, 65152, Note_on_c, 1, 37, 116
1, 65152, Note_on_c, 9, 59, 101
1, 65156, Note_off_c, 9, 59, 101
1, 65256, Note_off_c, 15, 68, 116
1, 65268, Note_off_c, 1, 37, 116
1, 65274, Note_off_c, 2, 76, 53
1, 65274, Note_off_c, 2, 73, 53
1, 65280, Note_off_c, 11, 64, 112
1, 65280, Pitch_bend_c, 15, 7360
1, 65280, Note_on_c, 15, 71, 112
1, 65280, Note_on_c, 11, 63, 116
1, 65280, Note_on_c, 2, 72, 53
1, 65280, Note_on_c, 2, 75, 53
1, 65280, Note_on_c, 2, 78, 53
1, 65280, Note_on_c, 1, 35, 112
1, 65280, Note_on_c, 9, 36, 103
1, 65280, Note_on_c, 9, 59, 101
1, 65284, Note_off_c, 9, 59, 101
1, 65284, Note_off_c, 9, 36, 103
1, 65290, Pitch_bend_c, 15, 7296
1, 65300, Pitch_bend_c, 15, 7424
1, 65310, Pitch_bend_c, 15, 7488
1, 65320, Pitch_bend_c, 15, 7552
1, 65330, Pitch_bend_c, 15, 7616
1, 65340, Pitch_bend_c, 15, 7680
1, 65350, Pitch_bend_c, 15, 7744
1, 65360, Pitch_bend_c, 15, 7808
1, 65370, Pitch_bend_c, 15, 7872
1, 65380, Pitch_bend_c, 15, 7936
1, 65390, Pitch_bend_c, 15, 8000
1, 65400, Pitch_bend_c, 15, 8064
1, 65410, Pitch_bend_c, 15, 8128
1, 65420, Pitch_bend_c, 15, 8192
1, 65512, Note_off_c, 15, 71, 112
1, 65536, Note_on_c, 15, 69, 124
1, 65536, Note_on_c, 14, 45, 93
1, 65536, Note_on_c, 13, 51, 116
1, 65536, Note_on_c, 13, 60, 124
1, 65652, Note_off_c, 1, 35, 112
1, 65664, Note_off_c, 13, 51, 116
1, 65664, Note_on_c, 9, 38, 117
1, 65664, Note_on_c, 9, 59, 95
1, 65665, Note_off_c, 14, 45, 93
1, 65668, Note_off_c, 9, 59, 95
1, 65668, Note_off_c, 9, 38, 117
1, 65669, Note_off_c, 13, 60, 124
1, 65768, Note_off_c, 15, 69, 124
1, 65792, Note_off_c, 11, 63, 116
1, 65920, Note_on_c, 15, 68, 116
1, 65920, Note_on_c, 11, 62, 112
1, 65920, Note_on_c, 1, 35, 112
1, 65920, Note_on_c, 9, 59, 103
1, 65924, Note_off_c, 9, 59, 103
1, 66009, Note_off_c, 1, 35, 112
1, 66042, Note_off_c, 2, 78, 53
1, 66042, Note_off_c, 2, 75, 53
1, 66042, Note_off_c, 2, 72, 53
1, 66042, Note_off_c, 2, 69, 53
1, 66048, Note_off_c, 11, 62, 112
1, 66048, Note_on_c, 2, 71, 53
1, 66048, Note_on_c, 2, 74, 53
1, 66048, Note_on_c, 2, 76, 53
1, 66048, Note_on_c, 2, 80, 53
1, 66048, Note_on_c, 1, 35, 112
1, 66048, Note_on_c, 9, 36, 115
1, 66048, Note_on_c, 9, 59, 111
1, 66052, Note_off_c, 9, 59, 111
1, 66052, Note_off_c, 9, 36, 115
1, 66152, Note_off_c, 15, 68, 116
1, 66304, Note_on_c, 15, 68, 116
1, 66304, Note_on_c, 14, 52, 93
1, 66304, Note_on_c, 13, 56, 116
1, 66304, Note_on_c, 13, 62, 124
1, 66304, Note_on_c, 11, 64, 112
1, 66432, Note_off_c, 11, 64, 112
1, 66432, Note_off_c, 13, 62, 124
1, 66432, Note_off_c, 13, 56, 116
1, 66432, Note_on_c, 9, 38, 105
1, 66432, Note_on_c, 9, 59, 113
1, 66433, Note_off_c, 14, 52, 93
1, 66436, Note_off_c, 9, 59, 113
1, 66436, Note_off_c, 9, 38, 105
1, 66548, Note_off_c, 1, 35, 112
1, 66664, Note_off_c, 15, 68, 116
1, 66688, Note_on_c, 15, 66, 100
1, 66688, Note_on_c, 11, 62, 112
1, 66688, Note_on_c, 1, 35, 95
1, 66688, Note_on_c, 9, 59, 113
1, 66692, Note_off_c, 9, 59, 113
1, 66792, Note_off_c, 15, 66, 100
1, 66804, Note_off_c, 1, 35, 95
1, 66816, Note_off_c, 11, 62, 112
1, 66816, Note_on_c, 15, 64, 124
1, 66816, Note_on_c, 11, 61, 100
1, 66816, Note_on_c, 1, 40, 112
1, 66816, Note_on_c, 9, 36, 113
1, 66816, Note_on_c, 9, 59, 105
1, 66820, Note_off_c, 9, 59, 105
1, 66820, Note_off_c, 9, 36, 113
1, 67072, Note_off_c, 11, 61, 100
1, 67072, Note_on_c, 14, 52, 93
1, 67072, Note_on_c, 13, 56, 116
1, 67072, Note_on_c, 13, 62, 112
1, 67176, Note_off_c, 15, 64, 124
1, 67200, Note_off_c, 13, 62, 112
1, 67200, Note_off_c, 13, 56, 116
1, 67200, Note_off_c, 14, 52, 93
1, 67200, Note_on_c, 15, 62, 112
1, 67200, Note_on_c, 11, 62, 124
1, 67200, Note_on_c, 9, 38, 97
1, 67200, Note_on_c, 9, 59, 105
1, 67204, Note_off_c, 9, 59, 105
1, 67204, Note_off_c, 9, 38, 97
1, 67316, Note_off_c, 1, 40, 112
1, 67328, Note_off_c, 11, 62, 124
1, 67432, Note_off_c, 15, 62, 112
1, 67456, Note_on_c, 1, 40, 95
1, 67456, Note_on_c, 9, 59, 105
1, 67460, Note_off_c, 9, 59, 105
1, 67572, Note_off_c, 1, 40, 95
1, 67578, Note_off_c, 2, 80, 53
1, 67578, Note_off_c, 2, 76, 53
1, 67578, Note_off_c, 2, 74, 53
1, 67578, Note_off_c, 2, 71, 53
1, 67584, Note_on_c, 11, 61, 116
1, 67584, Note_on_c, 2, 64, 53
1, 67584, Note_on_c, 2, 68, 53
1, 67584, Note_on_c, 2, 69, 53
1, 67584, Note_on_c, 2, 73, 53
1, 67584, Note_on_c, 1, 33, 112
1, 67584, Note_on_c, 9, 59, 103
1, 67584, Note_on_c, 9, 36, 113
1, 67588, Note_off_c, 9, 36, 113
1, 67588, Note_off_c, 9, 59, 103
1, 67840, Note_on_c, 14, 45, 93
1, 67840, Note_on_c, 13, 61, 83
1, 67840, Note_on_c, 12, 68, 100
1, 67840, Note_on_c, 13, 64, 112
1, 67840, Note_on_c, 10, 69, 127
1, 67840, Note_on_c, 10, 73, 127
1, 67840, Note_on_c, 10, 76, 127
1, 67968, Note_off_c, 10, 76, 127
1, 67968, Note_off_c, 10, 73, 127
1, 67968, Note_off_c, 10, 69, 127
1, 67968, Note_off_c, 13, 64, 112
1, 67968, Note_off_c, 12, 68, 100
1, 67968, Note_off_c, 13, 61, 83
1, 67968, Note_off_c, 14, 45, 93
1, 67968, Note_on_c, 15, 61, 116
1, 67968, Note_on_c, 9, 38, 105
1, 67968, Note_on_c, 9, 59, 93
1, 67972, Note_off_c, 9, 59, 93
1, 67972, Note_off_c, 9, 38, 105
1, 68089, Note_off_c, 1, 33, 112
1, 68170, Note_off_c, 2, 73, 53
1, 68170, Note_off_c, 2, 69, 53
1, 68170, Note_off_c, 2, 68, 53
1, 68170, Note_off_c, 2, 64, 53
1, 68200, Note_off_c, 15, 61, 116
1, 68224, Note_off_c, 11, 61, 116
1, 68224, Note_on_c, 14, 45, 93
1, 68224, Note_on_c, 13, 61, 100
1, 68224, Note_on_c, 12, 66, 116
1, 68224, Note_on_c, 13, 64, 112
1, 68224, Note_on_c, 11, 64, 112
1, 68224, Note_on_c, 10, 69, 89
1, 68224, Note_on_c, 10, 73, 89
1, 68224, Note_on_c, 10, 76, 89
1, 68224, Note_on_c, 2, 69, 53
1, 68224, Note_on_c, 2, 73, 53
1, 68224, Note_on_c, 2, 76, 53
1, 68224, Note_on_c, 1, 33, 112
1, 68224, Note_on_c, 9, 59, 93
1, 68228, Note_off_c, 9, 59, 93
1, 68340, Note_off_c, 1, 33, 112
1, 68352, Note_off_c, 10, 76, 89
1, 68352, Note_off_c, 10, 73, 89
1, 68352, Note_off_c, 10, 69, 89
1, 68352, Note_on_c, 15, 64, 124
1, 68352, Note_on_c, 10, 71, 94
1, 68352, Note_on_c, 10, 74, 94
1, 68352, Note_on_c, 10, 78, 94
1, 68352, Note_on_c, 1, 40, 124
1, 68352, Note_on_c, 9, 36, 109
1, 68352, Note_on_c, 9, 59, 93
1, 68356, Note_off_c, 9, 59, 93
1, 68356, Note_off_c, 9, 36, 109
1, 68480, Note_off_c, 10, 78, 94
1, 68480, Note_off_c, 10, 74, 94
1, 68480, Note_off_c, 10, 71, 94
1, 68480, Note_on_c, 10, 73, 99
1, 68480, Note_on_c, 10, 76, 99
1, 68480, Note_on_c, 10, 80, 99
1, 68608, Note_off_c, 10, 80, 99
1, 68608, Note_off_c, 10, 76, 99
1, 68608, Note_off_c, 10, 73, 99
1, 68608, Note_on_c, 10, 74, 105
1, 68608, Note_on_c, 10, 78, 105
1, 68608, Note_on_c, 10, 81, 105
1, 68712, Note_off_c, 15, 64, 124
1, 68736, Note_off_c, 10, 81, 105
1, 68736, Note_off_c, 10, 78, 105
1, 68736, Note_off_c, 10, 74, 105
1, 68736, Note_on_c, 10, 76, 110
1, 68736, Note_on_c, 10, 80, 110
1, 68736, Note_on_c, 10, 83, 110
1, 68736, Note_on_c, 9, 38, 115
1, 68736, Note_on_c, 9, 59, 93
1, 68740, Note_off_c, 9, 59, 93
1, 68740, Note_off_c, 9, 38, 115
1, 68864, Note_off_c, 10, 83, 110
1, 68864, Note_off_c, 10, 80, 110
1, 68864, Note_off_c, 10, 76, 110
1, 68864, Note_on_c, 10, 78, 116
1, 68864, Note_on_c, 10, 81, 116
1, 68864, Note_on_c, 10, 85, 116
1, 68985, Note_off_c, 1, 40, 124
1, 68992, Note_off_c, 10, 85, 116
1, 68992, Note_off_c, 10, 81, 116
1, 68992, Note_off_c, 10, 78, 116
1, 68992, Note_off_c, 11, 64, 112
1, 68992, Note_off_c, 13, 64, 112
1, 68992, Note_off_c, 12, 66, 116
1, 68992, Note_off_c, 13, 61, 100
1, 68992, Note_off_c, 14, 45, 93
1, 68992, Note_on_c, 10, 79, 122
1, 68992, Note_on_c, 10, 82, 122
1, 68992, Note_on_c, 10, 86, 122
1, 68992, Note_on_c, 9, 59, 101
1, 68996, Note_off_c, 9, 59, 101
1, 69114, Note_off_c, 2, 76, 53
1, 69114, Note_off_c, 2, 73, 53
1, 69114, Note_off_c, 2, 69, 53
1, 69120, Note_off_c, 10, 86, 122
1, 69120, Note_off_c, 10, 82, 122
1, 69120, Note_off_c, 10, 79, 122
1, 69120, Pitch_bend_c, 15, 7360
1, 69120, Note_on_c, 15, 73, 116
1, 69120, Note_on_c, 11, 66, 116
1, 69120, Note_on_c, 10, 78, 127
1, 69120, Note_on_c, 10, 83, 127
1, 69120, Note_on_c, 10, 87, 127
1, 69120, Note_on_c, 2, 71, 53
1, 69120, Note_on_c, 2, 75, 53
1, 69120, Note_on_c, 2, 78, 53
1, 69120, Note_on_c, 1, 39, 116
1, 69120, Note_on_c, 9, 36, 113
1, 69120, Note_on_c, 9, 59, 99
1, 69124, Note_off_c, 9, 59, 99
1, 69124, Note_off_c, 9, 36, 113
1, 69130, Pitch_bend_c, 15, 7296
1, 69140, Pitch_bend_c, 15, 7424
1, 69150, Pitch_bend_c, 15, 7488
1, 69160, Pitch_bend_c, 15, 7552
1, 69170, Pitch_bend_c, 15, 7616
1, 69180, Pitch_bend_c, 15, 7680
1, 69190, Pitch_bend_c, 15, 7744
1, 69200, Pitch_bend_c, 15, 7808
1, 69210, Pitch_bend_c, 15, 7872
1, 69220, Pitch_bend_c, 15, 7936
1, 69230, Pitch_bend_c, 15, 8000
1, 69240, Pitch_bend_c, 15, 8064
1, 69250, Pitch_bend_c, 15, 8128
1, 69260, Pitch_bend_c, 15, 8192
1, 69376, Note_off_c, 10, 83, 127
1, 69376, Note_off_c, 10, 78, 127
1, 69376, Note_on_c, 14, 47, 93
1, 69376, Note_on_c, 13, 54, 116
1, 69376, Note_on_c, 13, 63, 116
1, 69418, Note_off_c, 15, 73, 116
1, 69440, Note_on_c, 15, 71, 124
1, 69504, Note_off_c, 13, 63, 116
1, 69504, Note_off_c, 13, 54, 116
1, 69504, Note_off_c, 10, 87, 127
1, 69504, Note_on_c, 9, 38, 113
1, 69504, Note_on_c, 9, 59, 101
1, 69508, Note_off_c, 9, 59, 101
1, 69508, Note_off_c, 9, 38, 113
1, 69510, Note_off_c, 14, 47, 93
1, 69620, Note_off_c, 1, 39, 116
1, 69632, Note_off_c, 11, 66, 116
1, 69738, Note_off_c, 15, 71, 124
1, 69760, Note_on_c, 15, 73, 116
1, 69760, Note_on_c, 11, 66, 100
1, 69760, Note_on_c, 1, 39, 116
1, 69760, Note_on_c, 9, 59, 109
1, 69764, Note_off_c, 9, 59, 109
1, 69876, Note_off_c, 1, 39, 116
1, 69882, Note_off_c, 2, 78, 53
1, 69882, Note_off_c, 2, 75, 53
1, 69888, Note_off_c, 11, 66, 100
1, 69888, Note_on_c, 11, 65, 124
1, 69888, Note_on_c, 2, 74, 53
1, 69888, Note_on_c, 2, 77, 53
1, 69888, Note_on_c, 2, 80, 53
1, 69888, Note_on_c, 1, 38, 112
1, 69888, Note_on_c, 9, 36, 117
1, 69888, Note_on_c, 9, 59, 107
1, 69892, Note_off_c, 9, 59, 107
1, 69892, Note_off_c, 9, 36, 117
1, 69994, Note_off_c, 15, 73, 116
1, 70144, Note_on_c, 15, 73, 116
1, 70144, Note_on_c, 14, 47, 93
1, 70144, Note_on_c, 13, 53, 124
1, 70144, Note_on_c, 13, 62, 112
1, 70260, Note_off_c, 1, 38, 112
1, 70272, Note_off_c, 13, 53, 124
1, 70272, Note_off_c, 14, 47, 93
1, 70272, Note_on_c, 9, 38, 109
1, 70272, Note_on_c, 9, 59, 105
1, 70274, Note_off_c, 13, 62, 112
1, 70276, Note_off_c, 9, 59, 105
1, 70276, Note_off_c, 9, 38, 109
1, 70376, Note_off_c, 15, 73, 116
1, 70400, Note_off_c, 11, 65, 124
1, 70400, Note_on_c, 15, 71, 95
1, 70528, Note_on_c, 11, 64, 124
1, 70528, Note_on_c, 1, 38, 124
1, 70528, Note_on_c, 9, 59, 105
1, 70532, Note_off_c, 9, 59, 105
1, 70632, Note_off_c, 15, 71, 95
1, 70644, Note_off_c, 1, 38, 124
1, 70650, Note_off_c, 2, 80, 53
1, 70650, Note_off_c, 2, 77, 53
1, 70650, Note_off_c, 2, 74, 53
1, 70650, Note_off_c, 2, 71, 53
1, 70656, Note_off_c, 11, 64, 124
1, 70656, Note_on_c, 15, 71, 124
1, 70656, Note_on_c, 2, 69, 53
1, 70656, Note_on_c, 2, 73, 53
1, 70656, Note_on_c, 2, 76, 53
1, 70656, Note_on_c, 1, 37, 100
1, 70656, Note_on_c, 9, 59, 107
1, 70656, Note_on_c, 9, 36, 121
1, 70660, Note_off_c, 9, 36, 121
1, 70660, Note_off_c, 9, 59, 107
1, 70848, Note_off_c, 15, 71, 124
1, 70912, Note_on_c, 15, 69, 112
1, 70912, Note_on_c, 14, 45, 93
1, 70912, Note_on_c, 13, 52, 112
1, 70912, Note_on_c, 13, 61, 116
1, 70912, Note_on_c, 11, 66, 116
1, 71018, Note_off_c, 15, 69, 112
1, 71028, Note_off_c, 1, 37, 100
1, 71040, Note_off_c, 11, 66, 116
1, 71040, Note_off_c, 13, 52, 112
1, 71040, Note_off_c, 14, 45, 93
1, 71040, Note_on_c, 9, 59, 93
1, 71040, Note_on_c, 9, 38, 105
1, 71042, Note_off_c, 13, 61, 116
1, 71044, Note_off_c, 9, 38, 105
1, 71044, Note_off_c, 9, 59, 93
1, 71168, Note_on_c, 15, 68, 116
1, 71296, Note_on_c, 11, 64, 112
1, 71296, Note_on_c, 1, 37, 116
1, 71296, Note_on_c, 9, 59, 93
1, 71300, Note_off_c, 9, 59, 93
1, 71402, Note_off_c, 15, 68, 116
1, 71412, Note_off_c, 1, 37, 116
1, 71418, Note_off_c, 2, 76, 53
1, 71418, Note_off_c, 2, 73, 53
1, 71418, Note_off_c, 2, 69, 53
1, 71424, Note_off_c, 11, 64, 112
1, 71424, Pitch_bend_c, 15, 7360
1, 71424, Note_on_c, 15, 71, 112
1, 71424, Note_on_c, 11, 66, 116
1, 71424, Note_on_c, 2, 72, 53
1, 71424, Note_on_c, 2, 75, 53
1, 71424, Note_on_c, 2, 78, 53
1, 71424, Note_on_c, 1, 35, 112
1, 71424, Note_on_c, 9, 59, 93
1, 71424, Note_on_c, 9, 36, 109
1, 71428, Note_off_c, 9, 36, 109
1, 71428, Note_off_c, 9, 59, 93
1, 71434, Pitch_bend_c, 15, 7296
1, 71444, Pitch_bend_c, 15, 7424
1, 71454, Pitch_bend_c, 15, 7488
1, 71464, Pitch_bend_c, 15, 7552
1, 71474, Pitch_bend_c, 15, 7616
1, 71484, Pitch_bend_c, 15, 7680
1, 71494, Pitch_bend_c, 15, 7744
1, 71504, Pitch_bend_c, 15, 7808
1, 71514, Pitch_bend_c, 15, 7872
1, 71524, Pitch_bend_c, 15, 7936
1, 71534, Pitch_bend_c, 15, 8000
1, 71544, Pitch_bend_c, 15, 8064
1, 71554, Pitch_bend_c, 15, 8128
1, 71564, Pitch_bend_c, 15, 8192
1, 71658, Note_off_c, 15, 71, 112
1, 71680, Note_on_c, 15, 69, 124
1, 71680, Note_on_c, 14, 45, 105
1, 71680, Note_on_c, 13, 51, 116
1, 71680, Note_on_c, 13, 60, 124
1, 71769, Note_off_c, 1, 35, 112
1, 71808, Note_off_c, 11, 66, 116
1, 71808, Note_on_c, 11, 57, 116
1, 71808, Note_on_c, 11, 63, 116
1, 71808, Note_on_c, 1, 35, 95
1, 71808, Note_on_c, 9, 59, 93
1, 71808, Note_on_c, 9, 38, 115
1, 71812, Note_off_c, 9, 38, 115
1, 71812, Note_off_c, 9, 59, 93
1, 71914, Note_off_c, 15, 69, 124
1, 71994, Note_off_c, 2, 75, 53
1, 71994, Note_off_c, 2, 72, 53
1, 71999, Note_off_c, 2, 78, 53
1, 72002, Note_off_c, 13, 60, 124
1, 72046, Note_on_c, 2, 80, 103
1, 72046, Note_on_c, 2, 84, 103
1, 72046, Note_on_c, 2, 87, 103
1, 72046, Note_on_c, 2, 90, 103
1, 72057, Note_off_c, 1, 35, 95
1, 72064, Note_off_c, 11, 63, 116
1, 72064, Note_off_c, 11, 57, 116
1, 72064, Note_off_c, 13, 51, 116
1, 72064, Note_on_c, 15, 68, 116
1, 72064, Note_on_c, 14, 44, 102
1, 72064, Note_on_c, 13, 54, 116
1, 72064, Note_on_c, 11, 63, 127
1, 72064, Note_on_c, 13, 60, 124
1, 72064, Note_on_c, 11, 66, 116
1, 72064, Note_on_c, 10, 72, 125
1, 72064, Note_on_c, 10, 75, 125
1, 72064, Note_on_c, 10, 80, 125
1, 72064, Note_on_c, 1, 44, 112
1, 72064, Note_on_c, 9, 36, 109
1, 72064, Note_on_c, 9, 59, 101
1, 72064, Note_on_c, 9, 38, 113
1, 72068, Note_off_c, 9, 38, 113
1, 72068, Note_off_c, 9, 59, 101
1, 72068, Note_off_c, 9, 36, 109
1, 72070, Note_off_c, 14, 45, 105
1, 72124, Note_off_c, 2, 90, 103
1, 72124, Note_off_c, 2, 87, 103
1, 72124, Note_off_c, 2, 84, 103
1, 72124, Note_off_c, 2, 80, 103
1, 72150, Note_off_c, 13, 60, 124
1, 72150, Note_off_c, 13, 54, 116
1, 72150, Note_off_c, 14, 44, 102
1, 72152, Note_off_c, 10, 80, 125
1, 72152, Note_off_c, 10, 75, 125
1, 72152, Note_off_c, 10, 72, 125
1, 72153, Note_off_c, 1, 44, 112
1, 72160, Note_off_c, 11, 66, 116
1, 72160, Note_off_c, 11, 63, 127
1, 72234, Note_off_c, 15, 68, 116
1, 72448, Note_on_c, 15, 68, 116
1, 72808, Note_off_c, 15, 68, 116
1, 72832, Note_on_c, 15, 66, 116
1, 72936, Note_off_c, 15, 66, 116
1, 72960, Note_on_c, 15, 65, 103
1, 73260, Note_off_c, 15, 65, 103
1, 73344, Note_on_c, 15, 63, 97
1, 73644, Note_off_c, 15, 63, 97
1, 73728, Note_on_c, 15, 61, 127
1, 73728, Note_on_c, 2, 49, 27
1, 73728, Note_on_c, 2, 52, 27
1, 73728, Note_on_c, 2, 56, 27
1, 73728, Note_on_c, 2, 61, 27
1, 73728, Note_on_c, 1, 37, 100
1, 73728, Note_on_c, 9, 38, 77
1, 73728, Note_on_c, 9, 36, 64
1, 73732, Note_off_c, 9, 36, 64
1, 73732, Note_off_c, 9, 38, 77
1, 73844, Note_off_c, 1, 37, 100
1, 73900, Note_off_c, 15, 61, 127
1, 74362, Note_off_c, 2, 61, 27
1, 74362, Note_off_c, 2, 56, 27
1, 74362, Note_off_c, 2, 52, 27
1, 74362, Note_off_c, 2, 49, 27
1, 74368, Note_on_c, 15, 62, 112
1, 74368, Note_on_c, 2, 50, 27
1, 74368, Note_on_c, 2, 54, 27
1, 74368, Note_on_c, 2, 57, 27
1, 74368, Note_on_c, 2, 59, 27
1, 74368, Note_on_c, 2, 62, 27
1, 74368, Note_on_c, 1, 35, 95
1, 74368, Note_on_c, 9, 38, 81
1, 74368, Note_on_c, 9, 36, 71
1, 74372, Note_off_c, 9, 36, 71
1, 74372, Note_off_c, 9, 38, 81
1, 74752, Note_on_c, 14, 47, 106
1, 74752, Note_on_c, 13, 50, 95
1, 74752, Note_on_c, 13, 54, 116
1, 74752, Note_on_c, 10, 66, 124
1, 74752, Note_on_c, 10, 69, 124
1, 74752, Note_on_c, 8, 86, 124
1, 74752, Note_on_c, 10, 71, 124
1, 74752, Note_on_c, 9, 38, 95
1, 74756, Note_off_c, 9, 38, 95
1, 74856, Note_off_c, 15, 62, 112
1, 74868, Note_off_c, 1, 35, 95
1, 74872, Note_off_c, 8, 86, 124
1, 74874, Note_off_c, 2, 62, 27
1, 74874, Note_off_c, 2, 59, 27
1, 74874, Note_off_c, 2, 57, 27
1, 74874, Note_off_c, 2, 54, 27
1, 74874, Note_off_c, 2, 50, 27
1, 74880, Note_off_c, 10, 71, 124
1, 74880, Note_off_c, 10, 69, 124
1, 74880, Note_off_c, 10, 66, 124
1, 74880, Note_off_c, 13, 54, 116
1, 74880, Note_off_c, 13, 50, 95
1, 74880, Note_off_c, 14, 47, 106
1, 74880, Note_on_c, 14, 40, 108
1, 74880, Note_on_c, 13, 56, 100
1, 74880, Note_on_c, 13, 59, 112
1, 74880, Note_on_c, 10, 71, 124
1, 74880, Note_on_c, 10, 74, 124
1, 74880, Note_on_c, 8, 88, 127
1, 74880, Note_on_c, 10, 76, 124
1, 74880, Note_on_c, 1, 40, 100
1, 74880, Note_on_c, 9, 36, 89
1, 74880, Note_on_c, 9, 38, 112
1, 74884, Note_off_c, 9, 38, 112
1, 74884, Note_off_c, 9, 36, 89
1, 74966, Note_off_c, 13, 59, 112
1, 74966, Note_off_c, 13, 56, 100
1, 74966, Note_off_c, 14, 40, 108
1, 74968, Note_off_c, 10, 76, 124
1, 74968, Note_off_c, 8, 88, 127
1, 74968, Note_off_c, 10, 74, 124
1, 74968, Note_off_c, 10, 71, 124
1, 74996, Note_off_c, 1, 40, 100
1, 75264, Note_on_c, 14, 45, 29
1, 75264, Note_on_c, 13, 49, 116
1, 75264, Note_on_c, 12, 52, 112
1, 75264, Note_on_c, 13, 52, 112
1, 75264, Note_on_c, 10, 69, 97
1, 75264, Note_on_c, 10, 73, 97
1, 75264, Note_on_c, 8, 88, 127
1, 75264, Note_on_c, 10, 76, 97
1, 75264, Note_on_c, 1, 40, 112
1, 75264, Note_on_c, 0, 45, 95
1, 75264, Note_on_c, 9, 38, 75
1, 75264, Note_on_c, 9, 36, 66
1, 75268, Note_off_c, 9, 36, 66
1, 75268, Note_off_c, 9, 38, 75
1, 75392, Note_off_c, 10, 76, 97
1, 75392, Note_off_c, 10, 73, 97
1, 75392, Note_off_c, 10, 69, 97
1, 75400, Note_off_c, 8, 88, 127
1, 75444, Note_off_c, 1, 40, 112
1, 75456, Note_off_c, 0, 45, 95
1, 75456, Note_off_c, 13, 52, 112
1, 75456, Note_off_c, 12, 52, 112
1, 75456, Note_off_c, 13, 49, 116
1, 75456, Note_off_c, 14, 45, 29
1, 75630, Note_on_c, 2, 76, 57
1, 75630, Note_on_c, 2, 81, 57
1, 75630, Note_on_c, 2, 85, 57
1, 75630, Note_on_c, 2, 88, 57
1, 75648, Note_on_c, 15, 64, 127
1, 75768, Note_off_c, 15, 64, 127
1, 75780, Note_off_c, 2, 85, 57
1, 75780, Note_off_c, 2, 81, 57
1, 75804, Note_off_c, 2, 88, 57
1, 75804, Note_off_c, 2, 76, 57
1, 75822, Note_on_c, 2, 77, 57
1, 75822, Note_on_c, 2, 81, 57
1, 75822, Note_on_c, 2, 85, 57
1, 75822, Note_on_c, 2, 89, 57
1, 75840, Note_on_c, 15, 64, 112
1, 75840, Note_on_c, 14, 45, 31
1, 75840, Note_on_c, 13, 49, 116
1, 75840, Note_on_c, 12, 53, 112
1, 75840, Note_on_c, 13, 53, 95
1, 75840, Note_on_c, 1, 41, 112
1, 75840, Note_on_c, 0, 45, 95
1, 75840, Note_on_c, 9, 38, 75
1, 75840, Note_on_c, 9, 36, 66
1, 75844, Note_off_c, 9, 36, 66
1, 75844, Note_off_c, 9, 38, 75
1, 76020, Note_off_c, 1, 41, 112
1, 76032, Note_off_c, 0, 45, 95
1, 76032, Note_off_c, 13, 53, 95
1, 76032, Note_off_c, 12, 53, 112
1, 76032, Note_off_c, 13, 49, 116
1, 76032, Note_off_c, 14, 45, 31
1, 76140, Note_off_c, 2, 89, 57
1, 76140, Note_off_c, 2, 85, 57
1, 76140, Note_off_c, 2, 81, 57
1, 76140, Note_off_c, 2, 77, 57
1, 76152, Note_off_c, 15, 64, 112
1, 76206, Note_on_c, 2, 77, 57
1, 76206, Note_on_c, 2, 81, 57
1, 76206, Note_on_c, 2, 85, 57
1, 76206, Note_on_c, 2, 89, 57
1, 76224, Note_on_c, 15, 64, 112
1, 76344, Note_off_c, 15, 64, 112
1, 76356, Note_off_c, 2, 85, 57
1, 76356, Note_off_c, 2, 81, 57
1, 76380, Note_off_c, 2, 89, 57
1, 76380, Note_off_c, 2, 77, 57
1, 76398, Note_on_c, 2, 78, 57
1, 76398, Note_on_c, 2, 81, 57
1, 76398, Note_on_c, 2, 85, 57
1, 76398, Note_on_c, 2, 90, 57
1, 76416, Note_on_c, 15, 64, 124
1, 76416, Note_on_c, 14, 45, 57
1, 76416, Note_on_c, 13, 49, 100
1, 76416, Note_on_c, 12, 54, 116
1, 76416, Note_on_c, 13, 54, 116
1, 76416, Note_on_c, 1, 42, 116
1, 76416, Note_on_c, 0, 45, 95
1, 76416, Note_on_c, 9, 36, 66
1, 76416, Note_on_c, 9, 38, 75
1, 76420, Note_off_c, 9, 38, 75
1, 76420, Note_off_c, 9, 36, 66
1, 76536, Note_off_c, 15, 64, 124
1, 76572, Note_off_c, 2, 90, 57
1, 76572, Note_off_c, 2, 85, 57
1, 76572, Note_off_c, 2, 81, 57
1, 76572, Note_off_c, 2, 78, 57
1, 76596, Note_off_c, 1, 42, 116
1, 76608, Note_off_c, 0, 45, 95
1, 76608, Note_off_c, 13, 54, 116
1, 76608, Note_off_c, 12, 54, 116
1, 76608, Note_off_c, 13, 49, 100
1, 76608, Note_off_c, 14, 45, 57
1, 76608, Note_on_c, 15, 64, 112
1, 76800, Note_on_c, 14, 45, 75
1, 76800, Note_on_c, 13, 49, 100
1, 76800, Note_on_c, 12, 52, 95
1, 76800, Note_on_c, 13, 52, 112
1, 76800, Note_on_c, 1, 40, 95
1, 76800, Note_on_c, 0, 45, 95
1, 76800, Note_on_c, 9, 38, 75
1, 76800, Note_on_c, 9, 36, 66
1, 76804, Note_off_c, 9, 36, 66
1, 76804, Note_off_c, 9, 38, 75
1, 76968, Note_off_c, 15, 64, 112
1, 76980, Note_off_c, 1, 40, 95
1, 76992, Note_off_c, 0, 45, 95
1, 76992, Note_off_c, 13, 52, 112
1, 76992, Note_off_c, 12, 52, 95
1, 76992, Note_off_c, 13, 49, 100
1, 76992, Note_off_c, 14, 45, 75
1, 76992, Pitch_bend_c, 15, 7360
1, 76992, Note_on_c, 15, 69, 112
1, 77002, Pitch_bend_c, 15, 7296
1, 77012, Pitch_bend_c, 15, 7424
1, 77022, Pitch_bend_c, 15, 7488
1, 77032, Pitch_bend_c, 15, 7552
1, 77042, Pitch_bend_c, 15, 7616
1, 77052, Pitch_bend_c, 15, 7680
1, 77062, Pitch_bend_c, 15, 7744
1, 77072, Pitch_bend_c, 15, 7808
1, 77082, Pitch_bend_c, 15, 7872
1, 77092, Pitch_bend_c, 15, 7936
1, 77102, Pitch_bend_c, 15, 8000
1, 77112, Pitch_bend_c, 15, 8064
1, 77122, Pitch_bend_c, 15, 8128
1, 77132, Pitch_bend_c, 15, 8192
1, 77160, Note_off_c, 15, 69, 112
1, 77166, Note_on_c, 2, 76, 57
1, 77166, Note_on_c, 2, 81, 57
1, 77166, Note_on_c, 2, 85, 57
1, 77166, Note_on_c, 2, 88, 57
1, 77316, Note_off_c, 2, 85, 57
1, 77316, Note_off_c, 2, 81, 57
1, 77340, Note_off_c, 2, 88, 57
1, 77340, Note_off_c, 2, 76, 57
1, 77358, Note_on_c, 2, 77, 57
1, 77358, Note_on_c, 2, 81, 57
1, 77358, Note_on_c, 2, 85, 57
1, 77358, Note_on_c, 2, 89, 57
1, 77376, Note_on_c, 15, 64, 112
1, 77376, Note_on_c, 14, 45, 56
1, 77376, Note_on_c, 13, 49, 116
1, 77376, Note_on_c, 12, 53, 112
1, 77376, Note_on_c, 13, 53, 112
1, 77376, Note_on_c, 1, 41, 112
1, 77376, Note_on_c, 0, 45, 112
1, 77376, Note_on_c, 9, 38, 75
1, 77376, Note_on_c, 9, 36, 65
1, 77380, Note_off_c, 9, 36, 65
1, 77380, Note_off_c, 9, 38, 75
1, 77544, Note_off_c, 15, 64, 112
1, 77556, Note_off_c, 1, 41, 112
1, 77568, Note_off_c, 0, 45, 112
1, 77568, Note_off_c, 13, 53, 112
1, 77568, Note_off_c, 12, 53, 112
1, 77568, Note_off_c, 13, 49, 116
1, 77568, Note_off_c, 14, 45, 56
1, 77568, Note_on_c, 15, 62, 124
1, 77676, Note_off_c, 2, 89, 57
1, 77676, Note_off_c, 2, 85, 57
1, 77676, Note_off_c, 2, 81, 57
1, 77676, Note_off_c, 2, 77, 57
1, 77736, Note_off_c, 15, 62, 124
1, 77742, Note_on_c, 2, 77, 57
1, 77742, Note_on_c, 2, 81, 57
1, 77742, Note_on_c, 2, 85, 57
1, 77742, Note_on_c, 2, 89, 57
1, 77760, Note_on_c, 15, 61, 109
1, 77892, Note_off_c, 2, 85, 57
1, 77892, Note_off_c, 2, 81, 57
1, 77916, Note_off_c, 2, 89, 57
1, 77916, Note_off_c, 2, 77, 57
1, 77928, Note_off_c, 15, 61, 109
1, 77934, Note_on_c, 2, 78, 57
1, 77934, Note_on_c, 2, 81, 57
1, 77934, Note_on_c, 2, 85, 57
1, 77934, Note_on_c, 2, 90, 57
1, 77952, Note_on_c, 15, 57, 111
1, 77952, Note_on_c, 14, 45, 75
1, 77952, Note_on_c, 13, 49, 116
1, 77952, Note_on_c, 12, 54, 116
1, 77952, Note_on_c, 13, 54, 116
1, 77952, Note_on_c, 1, 42, 116
1, 77952, Note_on_c, 0, 45, 112
1, 77952, Note_on_c, 9, 36, 65
1, 77952, Note_on_c, 9, 38, 75
1, 77956, Note_off_c, 9, 38, 75
1, 77956, Note_off_c, 9, 36, 65
1, 78108, Note_off_c, 2, 90, 57
1, 78108, Note_off_c, 2, 85, 57
1, 78108, Note_off_c, 2, 81, 57
1, 78108, Note_off_c, 2, 78, 57
1, 78120, Note_off_c, 15, 57, 111
1, 78132, Note_off_c, 1, 42, 116
1, 78144, Note_off_c, 0, 45, 112
1, 78144, Note_off_c, 13, 54, 116
1, 78144, Note_off_c, 12, 54, 116
1, 78144, Note_off_c, 13, 49, 116
1, 78144, Note_off_c, 14, 45, 75
1, 78144, Note_on_c, 15, 52, 81
1, 78312, Note_off_c, 15, 52, 81
1, 78336, Note_on_c, 14, 45, 108
1, 78336, Note_on_c, 13, 49, 116
1, 78336, Note_on_c, 12, 52, 112
1, 78336, Note_on_c, 13, 52, 112
1, 78336, Note_on_c, 10, 69, 97
1, 78336, Note_on_c, 10, 73, 97
1, 78336, Note_on_c, 10, 76, 97
1, 78336, Note_on_c, 1, 40, 112
1, 78336, Note_on_c, 0, 45, 112
1, 78336, Note_on_c, 9, 38, 75
1, 78336, Note_on_c, 9, 36, 65
1, 78340, Note_off_c, 9, 36, 65
1, 78340, Note_off_c, 9, 38, 75
1, 78464, Note_off_c, 10, 76, 97
1, 78464, Note_off_c, 10, 73, 97
1, 78464, Note_off_c, 10, 69, 97
1, 78516, Note_off_c, 1, 40, 112
1, 78528, Note_off_c, 0, 45, 112
1, 78528, Note_off_c, 13, 52, 112
1, 78528, Note_off_c, 12, 52, 112
1, 78528, Note_off_c, 13, 49, 116
1, 78528, Note_off_c, 14, 45, 108
1, 78702, Note_on_c, 2, 76, 57
1, 78702, Note_on_c, 2, 81, 57
1, 78702, Note_on_c, 2, 85, 57
1, 78702, Note_on_c, 2, 88, 57
1, 78720, Note_on_c, 15, 64, 112
1, 78840, Note_off_c, 15, 64, 112
1, 78852, Note_off_c, 2, 85, 57
1, 78852, Note_off_c, 2, 81, 57
1, 78876, Note_off_c, 2, 88, 57
1, 78876, Note_off_c, 2, 76, 57
1, 78894, Note_on_c, 2, 77, 57
1, 78894, Note_on_c, 2, 81, 57
1, 78894, Note_on_c, 2, 85, 57
1, 78894, Note_on_c, 2, 89, 57
1, 78912, Note_on_c, 15, 61, 112
1, 78912, Note_on_c, 14, 45, 73
1, 78912, Note_on_c, 13, 49, 116
1, 78912, Note_on_c, 12, 53, 112
1, 78912, Note_on_c, 13, 53, 112
1, 78912, Note_on_c, 1, 41, 112
1, 78912, Note_on_c, 0, 45, 95
1, 78912, Note_on_c, 9, 38, 75
1, 78912, Note_on_c, 9, 36, 65
1, 78916, Note_off_c, 9, 36, 65
1, 78916, Note_off_c, 9, 38, 75
1, 79092, Note_off_c, 1, 41, 112
1, 79104, Note_off_c, 0, 45, 95
1, 79104, Note_off_c, 13, 53, 112
1, 79104, Note_off_c, 12, 53, 112
1, 79104, Note_off_c, 13, 49, 116
1, 79104, Note_off_c, 14, 45, 73
1, 79212, Note_off_c, 2, 89, 57
1, 79212, Note_off_c, 2, 85, 57
1, 79212, Note_off_c, 2, 81, 57
1, 79212, Note_off_c, 2, 77, 57
1, 79272, Note_off_c, 15, 61, 112
1, 79278, Note_on_c, 2, 77, 57
1, 79278, Note_on_c, 2, 81, 57
1, 79278, Note_on_c, 2, 85, 57
1, 79278, Note_on_c, 2, 89, 57
1, 79296, Note_on_c, 15, 62, 112
1, 79416, Note_off_c, 15, 62, 112
1, 79428, Note_off_c, 2, 85, 57
1, 79428, Note_off_c, 2, 81, 57
1, 79452, Note_off_c, 2, 89, 57
1, 79452, Note_off_c, 2, 77, 57
1, 79470, Note_on_c, 2, 78, 57
1, 79470, Note_on_c, 2, 81, 57
1, 79470, Note_on_c, 2, 85, 57
1, 79470, Note_on_c, 2, 90, 57
1, 79488, Note_on_c, 15, 64, 124
1, 79488, Note_on_c, 14, 45, 94
1, 79488, Note_on_c, 13, 49, 116
1, 79488, Note_on_c, 12, 54, 100
1, 79488, Note_on_c, 13, 54, 116
1, 79488, Note_on_c, 1, 42, 100
1, 79488, Note_on_c, 0, 45, 112
1, 79488, Note_on_c, 9, 36, 65
1, 79488, Note_on_c, 9, 38, 75
1, 79492, Note_off_c, 9, 38, 75
1, 79492, Note_off_c, 9, 36, 65
1, 79608, Note_off_c, 15, 64, 124
1, 79644, Note_off_c, 2, 90, 57
1, 79644, Note_off_c, 2, 85, 57
1, 79644, Note_off_c, 2, 81, 57
1, 79644, Note_off_c, 2, 78, 57
1, 79668, Note_off_c, 1, 42, 100
1, 79680, Note_off_c, 0, 45, 112
1, 79680, Note_off_c, 13, 54, 116
1, 79680, Note_off_c, 12, 54, 100
1, 79680, Note_off_c, 13, 49, 116
1, 79680, Note_off_c, 14, 45, 94
1, 79680, Note_on_c, 15, 64, 112
1, 79848, Note_off_c, 15, 64, 112
1, 79854, Note_on_c, 2, 79, 57
1, 79854, Note_on_c, 2, 81, 57
1, 79854, Note_on_c, 2, 85, 57
1, 79854, Note_on_c, 2, 91, 57
1, 79872, Pitch_bend_c, 15, 7360
1, 79872, Note_on_c, 15, 69, 112
1, 79872, Note_on_c, 14, 45, 108
1, 79872, Note_on_c, 13, 49, 116
1, 79872, Note_on_c, 12, 55, 112
1, 79872, Note_on_c, 13, 52, 112
1, 79872, Note_on_c, 1, 43, 112
1, 79872, Note_on_c, 0, 45, 112
1, 79872, Note_on_c, 9, 38, 75
1, 79872, Note_on_c, 9, 36, 65
1, 79876, Note_off_c, 9, 36, 65
1, 79876, Note_off_c, 9, 38, 75
1, 79882, Pitch_bend_c, 15, 7296
1, 79892, Pitch_bend_c, 15, 7424
1, 79902, Pitch_bend_c, 15, 7488
1, 79912, Pitch_bend_c, 15, 7552
1, 79922, Pitch_bend_c, 15, 7616
1, 79932, Pitch_bend_c, 15, 7680
1, 79942, Pitch_bend_c, 15, 7744
1, 79952, Pitch_bend_c, 15, 7808
1, 79962, Pitch_bend_c, 15, 7872
1, 79972, Pitch_bend_c, 15, 7936
1, 79982, Pitch_bend_c, 15, 8000
1, 79992, Pitch_bend_c, 15, 8064
1, 80002, Pitch_bend_c, 15, 8128
1, 80012, Pitch_bend_c, 15, 8192
1, 80040, Note_off_c, 15, 69, 112
1, 80052, Note_off_c, 1, 43, 112
1, 80064, Note_off_c, 0, 45, 112
1, 80064, Note_off_c, 13, 52, 112
1, 80064, Note_off_c, 12, 55, 112
1, 80064, Note_off_c, 13, 49, 116
1, 80064, Note_off_c, 14, 45, 108
1, 80172, Note_off_c, 2, 91, 57
1, 80172, Note_off_c, 2, 85, 57
1, 80172, Note_off_c, 2, 81, 57
1, 80172, Note_off_c, 2, 79, 57
1, 80238, Note_on_c, 2, 79, 57
1, 80238, Note_on_c, 2, 81, 57
1, 80238, Note_on_c, 2, 85, 57
1, 80238, Note_on_c, 2, 91, 57
1, 80256, Note_on_c, 15, 64, 112
1, 80388, Note_off_c, 2, 85, 57
1, 80388, Note_off_c, 2, 81, 57
1, 80412, Note_off_c, 2, 91, 57
1, 80412, Note_off_c, 2, 79, 57
1, 80424, Note_off_c, 15, 64, 112
1, 80430, Note_on_c, 2, 78, 57
1, 80430, Note_on_c, 2, 81, 57
1, 80430, Note_on_c, 2, 85, 57
1, 80430, Note_on_c, 2, 90, 57
1, 80448, Note_on_c, 15, 62, 124
1, 80448, Note_on_c, 14, 45, 90
1, 80448, Note_on_c, 13, 49, 116
1, 80448, Note_on_c, 12, 54, 116
1, 80448, Note_on_c, 13, 54, 116
1, 80448, Note_on_c, 1, 42, 116
1, 80448, Note_on_c, 0, 45, 112
1, 80448, Note_on_c, 9, 38, 75
1, 80448, Note_on_c, 9, 36, 65
1, 80452, Note_off_c, 9, 36, 65
1, 80452, Note_off_c, 9, 38, 75
1, 80628, Note_off_c, 1, 42, 116
1, 80640, Note_off_c, 0, 45, 112
1, 80640, Note_off_c, 13, 54, 116
1, 80640, Note_off_c, 12, 54, 116
1, 80640, Note_off_c, 13, 49, 116
1, 80640, Note_off_c, 14, 45, 90
1, 80748, Note_off_c, 2, 90, 57
1, 80748, Note_off_c, 2, 85, 57
1, 80748, Note_off_c, 2, 81, 57
1, 80748, Note_off_c, 2, 78, 57
1, 80808, Note_off_c, 15, 62, 124
1, 80814, Note_on_c, 2, 78, 57
1, 80814, Note_on_c, 2, 81, 57
1, 80814, Note_on_c, 2, 85, 57
1, 80814, Note_on_c, 2, 90, 57
1, 80832, Note_on_c, 15, 64, 109
1, 80964, Note_off_c, 2, 85, 57
1, 80964, Note_off_c, 2, 81, 57
1, 80988, Note_off_c, 2, 90, 57
1, 80988, Note_off_c, 2, 78, 57
1, 81000, Note_off_c, 15, 64, 109
1, 81006, Note_on_c, 2, 77, 57
1, 81006, Note_on_c, 2, 81, 57
1, 81006, Note_on_c, 2, 85, 57
1, 81006, Note_on_c, 2, 89, 57
1, 81024, Note_on_c, 15, 71, 123
1, 81024, Note_on_c, 14, 45, 73
1, 81024, Note_on_c, 13, 49, 116
1, 81024, Note_on_c, 12, 53, 124
1, 81024, Note_on_c, 13, 53, 112
1, 81024, Note_on_c, 1, 41, 124
1, 81024, Note_on_c, 0, 45, 112
1, 81024, Note_on_c, 9, 36, 65
1, 81024, Note_on_c, 9, 38, 75
1, 81028, Note_off_c, 9, 38, 75
1, 81028, Note_off_c, 9, 36, 65
1, 81128, Note_off_c, 15, 71, 123
1, 81152, Note_on_c, 15, 69, 123
1, 81180, Note_off_c, 2, 89, 57
1, 81180, Note_off_c, 2, 85, 57
1, 81180, Note_off_c, 2, 81, 57
1, 81180, Note_off_c, 2, 77, 57
1, 81204, Note_off_c, 1, 41, 124
1, 81216, Note_off_c, 0, 45, 112
1, 81216, Note_off_c, 13, 53, 112
1, 81216, Note_off_c, 12, 53, 124
1, 81216, Note_off_c, 13, 49, 116
1, 81216, Note_off_c, 14, 45, 73
1, 81272, Note_off_c, 15, 69, 123
1, 81390, Note_on_c, 2, 81, 57
1, 81390, Note_on_c, 2, 85, 57
1, 81390, Note_on_c, 2, 88, 57
1, 81408, Note_on_c, 14, 47, 108
1, 81408, Note_on_c, 13, 50, 124
1, 81408, Note_on_c, 12, 57, 124
1, 81408, Note_on_c, 13, 54, 116
1, 81408, Note_on_c, 10, 71, 97
1, 81408, Note_on_c, 10, 74, 97
1, 81408, Note_on_c, 10, 78, 97
1, 81408, Note_on_c, 1, 35, 124
1, 81408, Note_on_c, 0, 47, 112
1, 81408, Note_on_c, 9, 38, 75
1, 81408, Note_on_c, 9, 36, 65
1, 81412, Note_off_c, 9, 36, 65
1, 81412, Note_off_c, 9, 38, 75
1, 81536, Note_off_c, 10, 78, 97
1, 81536, Note_off_c, 10, 74, 97
1, 81536, Note_off_c, 10, 71, 97
1, 81588, Note_off_c, 1, 35, 124
1, 81600, Note_off_c, 0, 47, 112
1, 81600, Note_off_c, 13, 54, 116
1, 81600, Note_off_c, 12, 57, 124
1, 81600, Note_off_c, 13, 50, 124
1, 81600, Note_off_c, 14, 47, 108
1, 81792, Note_on_c, 15, 64, 112
1, 81948, Note_off_c, 2, 88, 57
1, 81948, Note_off_c, 2, 85, 57
1, 81948, Note_off_c, 2, 81, 57
1, 81960, Note_off_c, 15, 64, 112
1, 81966, Note_on_c, 2, 74, 57
1, 81966, Note_on_c, 2, 78, 57
1, 81966, Note_on_c, 2, 83, 57
1, 81984, Note_on_c, 15, 61, 112
1, 81984, Note_on_c, 13, 50, 112
1, 81984, Note_on_c, 12, 59, 119
1, 81984, Note_on_c, 13, 54, 116
1, 81984, Note_on_c, 1, 35, 95
1, 81984, Note_on_c, 0, 47, 112
1, 81984, Note_on_c, 9, 38, 75
1, 81984, Note_on_c, 9, 36, 65
1, 81988, Note_off_c, 9, 36, 65
1, 81988, Note_off_c, 9, 38, 75
1, 82104, Note_off_c, 15, 61, 112
1, 82164, Note_off_c, 1, 35, 95
1, 82176, Note_off_c, 0, 47, 112
1, 82176, Note_off_c, 13, 54, 116
1, 82176, Note_off_c, 12, 59, 119
1, 82176, Note_off_c, 13, 50, 112
1, 82176, Note_on_c, 15, 61, 112
1, 82280, Note_off_c, 15, 61, 112
1, 82368, Note_on_c, 15, 61, 95
1, 82524, Note_off_c, 2, 83, 57
1, 82524, Note_off_c, 2, 78, 57
1, 82524, Note_off_c, 2, 74, 57
1, 82536, Note_off_c, 15, 61, 95
1, 82542, Note_on_c, 2, 73, 57
1, 82542, Note_on_c, 2, 76, 57
1, 82542, Note_on_c, 2, 80, 57
1, 82560, Note_on_c, 15, 62, 112
1, 82560, Note_on_c, 13, 49, 116
1, 82560, Note_on_c, 12, 56, 95
1, 82560, Note_on_c, 13, 56, 116
1, 82560, Note_on_c, 1, 32, 95
1, 82560, Note_on_c, 0, 47, 112
1, 82560, Note_on_c, 9, 36, 65
1, 82560, Note_on_c, 9, 38, 75
1, 82564, Note_off_c, 9, 38, 75
1, 82564, Note_off_c, 9, 36, 65
1, 82740, Note_off_c, 1, 32, 95
1, 82752, Note_off_c, 0, 47, 112
1, 82752, Note_off_c, 13, 56, 116
1, 82752, Note_off_c, 12, 56, 95
1, 82752, Note_off_c, 13, 49, 116
1, 82908, Note_off_c, 2, 80, 57
1, 82908, Note_off_c, 2, 76, 57
1, 82908, Note_off_c, 2, 73, 57
1, 82920, Note_off_c, 15, 62, 112
1, 82926, Note_on_c, 2, 69, 57
1, 82926, Note_on_c, 2, 71, 57
1, 82926, Note_on_c, 2, 74, 57
1, 82926, Note_on_c, 2, 78, 57
1, 82944, Note_on_c, 15, 71, 112
1, 82944, Note_on_c, 14, 40, 66
1, 82944, Note_on_c, 13, 50, 95
1, 82944, Note_on_c, 12, 54, 116
1, 82944, Note_on_c, 13, 57, 112
1, 82944, Note_on_c, 1, 28, 116
1, 82944, Note_on_c, 0, 40, 112
1, 82944, Note_on_c, 9, 38, 75
1, 82944, Note_on_c, 9, 36, 65
1, 82948, Note_off_c, 9, 36, 65
1, 82948, Note_off_c, 9, 38, 75
1, 83124, Note_off_c, 1, 28, 116
1, 83136, Note_off_c, 0, 40, 112
1, 83136, Note_off_c, 13, 57, 112
1, 83136, Note_off_c, 12, 54, 116
1, 83136, Note_off_c, 13, 50, 95
1, 83136, Note_off_c, 14, 40, 66
1, 83256, Note_off_c, 15, 71, 112
1, 83328, Note_on_c, 15, 71, 95
1, 83460, Note_off_c, 2, 78, 57
1, 83484, Note_off_c, 2, 74, 57
1, 83484, Note_off_c, 2, 71, 57
1, 83484, Note_off_c, 2, 69, 57
1, 83496, Note_off_c, 15, 71, 95
1, 83502, Note_on_c, 2, 78, 57
1, 83502, Note_on_c, 2, 81, 57
1, 83502, Note_on_c, 2, 83, 57
1, 83502, Note_on_c, 2, 86, 57
1, 83520, Pitch_bend_c, 15, 7360
1, 83520, Note_on_c, 15, 73, 112
1, 83520, Note_on_c, 14, 40, 66
1, 83520, Note_on_c, 13, 50, 112
1, 83520, Note_on_c, 12, 56, 116
1, 83520, Note_on_c, 13, 57, 112
1, 83520, Note_on_c, 1, 28, 116
1, 83520, Note_on_c, 0, 40, 112
1, 83520, Note_on_c, 9, 38, 75
1, 83520, Note_on_c, 9, 36, 65
1, 83524, Note_off_c, 9, 36, 65
1, 83524, Note_off_c, 9, 38, 75
1, 83530, Pitch_bend_c, 15, 7296
1, 83540, Pitch_bend_c, 15, 7424
1, 83550, Pitch_bend_c, 15, 7488
1, 83560, Pitch_bend_c, 15, 7552
1, 83570, Pitch_bend_c, 15, 7616
1, 83580, Pitch_bend_c, 15, 7680
1, 83590, Pitch_bend_c, 15, 7744
1, 83600, Pitch_bend_c, 15, 7808
1, 83610, Pitch_bend_c, 15, 7872
1, 83620, Pitch_bend_c, 15, 7936
1, 83630, Pitch_bend_c, 15, 8000
1, 83640, Pitch_bend_c, 15, 8064
1, 83650, Pitch_bend_c, 15, 8128
1, 83660, Pitch_bend_c, 15, 8192
1, 83700, Note_off_c, 1, 28, 116
1, 83712, Note_off_c, 0, 40, 112
1, 83712, Note_off_c, 13, 57, 112
1, 83712, Note_off_c, 12, 56, 116
1, 83712, Note_off_c, 13, 50, 112
1, 83712, Note_off_c, 14, 40, 66
1, 83880, Note_off_c, 15, 73, 112
1, 83904, Note_on_c, 15, 71, 119
1, 84036, Note_off_c, 2, 86, 57
1, 84036, Note_off_c, 2, 83, 57
1, 84060, Note_off_c, 2, 81, 57
1, 84060, Note_off_c, 2, 78, 57
1, 84078, Note_on_c, 2, 80, 57
1, 84078, Note_on_c, 2, 83, 57
1, 84078, Note_on_c, 2, 86, 57
1, 84078, Note_on_c, 2, 88, 57
1, 84096, Note_on_c, 14, 40, 66
1, 84096, Note_on_c, 13, 50, 112
1, 84096, Note_on_c, 12, 54, 116
1, 84096, Note_on_c, 13, 56, 100
1, 84096, Note_on_c, 1, 28, 116
1, 84096, Note_on_c, 0, 40, 127
1, 84096, Note_on_c, 9, 36, 65
1, 84096, Note_on_c, 9, 38, 75
1, 84100, Note_off_c, 9, 38, 75
1, 84100, Note_off_c, 9, 36, 65
1, 84276, Note_off_c, 1, 28, 116
1, 84288, Note_off_c, 0, 40, 127
1, 84288, Note_off_c, 13, 56, 100
1, 84288, Note_off_c, 12, 54, 116
1, 84288, Note_off_c, 13, 50, 112
1, 84288, Note_off_c, 14, 40, 66
1, 84444, Note_off_c, 2, 88, 57
1, 84444, Note_off_c, 2, 86, 57
1, 84444, Note_off_c, 2, 83, 57
1, 84444, Note_off_c, 2, 80, 57
1, 84456, Note_off_c, 15, 71, 119
1, 84480, Note_on_c, 15, 69, 127
1, 84480, Note_on_c, 14, 45, 108
1, 84480, Note_on_c, 13, 49, 127
1, 84480, Note_on_c, 12, 52, 127
1, 84480, Note_on_c, 13, 52, 127
1, 84480, Note_on_c, 1, 33, 116
1, 84480, Note_on_c, 0, 45, 127
1, 84480, Note_on_c, 9, 38, 75
1, 84480, Note_on_c, 9, 36, 65
1, 84484, Note_off_c, 9, 36, 65
1, 84484, Note_off_c, 9, 38, 75
1, 84660, Note_off_c, 1, 33, 116
1, 84672, Note_off_c, 0, 45, 127
1, 84672, Note_on_c, 2, 81, 97
1, 84672, Note_on_c, 2, 85, 97
1, 84672, Note_on_c, 2, 88, 97
1, 84672, Note_on_c, 2, 91, 97
1, 84672, Note_on_c, 9, 38, 124
1, 84676, Note_off_c, 9, 38, 124
1, 84960, Note_off_c, 13, 52, 127
1, 84960, Note_off_c, 12, 52, 127
1, 84960, Note_off_c, 13, 49, 127
1, 84960, Note_off_c, 14, 45, 108
1, 85027, Note_off_c, 2, 85, 97
1, 85027, Note_off_c, 2, 81, 97
1, 85050, Note_off_c, 2, 91, 97
1, 85050, Note_off_c, 2, 88, 97
1, 85056, Note_on_c, 14, 45, 106
1, 85056, Note_on_c, 13, 49, 125
1, 85056, Note_on_c, 12, 53, 125
1, 85056, Note_on_c, 13, 53, 125
1, 85056, Note_on_c, 2, 73, 97
1, 85056, Note_on_c, 2, 77, 97
1, 85056, Note_on_c, 2, 81, 97
1, 85056, Note_on_c, 2, 85, 97
1, 85056, Note_on_c, 9, 38, 124
1, 85060, Note_off_c, 9, 38, 124
1, 85219, Note_off_c, 2, 85, 97
1, 85219, Note_off_c, 2, 81, 97
1, 85219, Note_off_c, 2, 77, 97
1, 85243, Note_off_c, 2, 73, 97
1, 85248, Note_on_c, 2, 77, 97
1, 85248, Note_on_c, 2, 81, 97
1, 85248, Note_on_c, 2, 85, 97
1, 85248, Note_on_c, 2, 89, 97
1, 85248, Note_on_c, 9, 38, 112
1, 85252, Note_off_c, 9, 38, 112
1, 85411, Note_off_c, 2, 85, 97
1, 85411, Note_off_c, 2, 81, 97
1, 85411, Note_off_c, 2, 77, 97
1, 85413, Note_off_c, 2, 89, 97
1, 85440, Note_on_c, 2, 73, 97
1, 85440, Note_on_c, 2, 77, 97
1, 85440, Note_on_c, 2, 81, 97
1, 85440, Note_on_c, 2, 85, 95
1, 85536, Note_off_c, 13, 53, 125
1, 85536, Note_off_c, 12, 53, 125
1, 85536, Note_off_c, 13, 49, 125
1, 85536, Note_off_c, 14, 45, 106
1, 85560, Note_off_c, 15, 69, 127
1, 85603, Note_off_c, 2, 81, 97
1, 85603, Note_off_c, 2, 77, 97
1, 85603, Note_off_c, 2, 73, 97
1, 85627, Note_off_c, 2, 85, 95
1, 85632, Note_on_c, 15, 69, 121
1, 85632, Note_on_c, 14, 45, 104
1, 85632, Note_on_c, 13, 49, 123
1, 85632, Note_on_c, 12, 54, 123
1, 85632, Note_on_c, 13, 54, 123
1, 85632, Note_on_c, 2, 73, 79
1, 85632, Note_on_c, 2, 78, 79
1, 85632, Note_on_c, 2, 81, 79
1, 85632, Note_on_c, 2, 83, 79
1, 85632, Note_on_c, 1, 42, 116
1, 85632, Note_on_c, 9, 38, 124
1, 85636, Note_off_c, 9, 38, 124
1, 85752, Note_off_c, 15, 69, 121
1, 85812, Note_off_c, 1, 42, 116
1, 85824, Note_off_c, 13, 54, 123
1, 85824, Note_off_c, 12, 54, 123
1, 85824, Note_off_c, 13, 49, 123
1, 85824, Note_off_c, 14, 45, 104
1, 85824, Note_on_c, 15, 69, 123
1, 85824, Note_on_c, 1, 40, 116
1, 85824, Note_on_c, 9, 38, 124
1, 85828, Note_off_c, 9, 38, 124
1, 85987, Note_off_c, 2, 81, 79
1, 85987, Note_off_c, 2, 73, 79
1, 86004, Note_off_c, 1, 40, 116
1, 86011, Note_off_c, 2, 83, 79
1, 86011, Note_off_c, 2, 78, 79
1, 86016, Note_on_c, 14, 45, 108
1, 86016, Note_on_c, 13, 49, 127
1, 86016, Note_on_c, 12, 52, 127
1, 86016, Note_on_c, 13, 52, 127
1, 86016, Note_on_c, 10, 69, 112
1, 86016, Note_on_c, 10, 73, 116
1, 86016, Note_on_c, 10, 76, 112
1, 86016, Note_on_c, 2, 69, 59
1, 86016, Note_on_c, 2, 73, 59
1, 86016, Note_on_c, 2, 76, 59
1, 86016, Note_on_c, 2, 81, 59
1, 86208, Note_on_c, 9, 38, 112
1, 86212, Note_off_c, 9, 38, 112
1, 86496, Note_off_c, 10, 76, 112
1, 86496, Note_off_c, 10, 73, 116
1, 86496, Note_off_c, 10, 69, 112
1, 86496, Note_off_c, 13, 52, 127
1, 86496, Note_off_c, 12, 52, 127
1, 86496, Note_off_c, 13, 49, 127
1, 86496, Note_off_c, 14, 45, 108
1, 86592, Note_on_c, 14, 45, 106
1, 86592, Note_on_c, 13, 49, 125
1, 86592, Note_on_c, 12, 53, 125
1, 86592, Note_on_c, 13, 53, 125
1, 86592, Note_on_c, 10, 69, 124
1, 86592, Note_on_c, 10, 73, 124
1, 86592, Note_on_c, 10, 77, 124
1, 86592, Note_on_c, 9, 38, 124
1, 86596, Note_off_c, 9, 38, 124
1, 86784, Note_on_c, 1, 35, 110
1, 86784, Note_on_c, 9, 38, 109
1, 86788, Note_off_c, 9, 38, 109
1, 86964, Note_off_c, 1, 35, 110
1, 87072, Note_off_c, 10, 77, 124
1, 87072, Note_off_c, 10, 73, 124
1, 87072, Note_off_c, 10, 69, 124
1, 87072, Note_off_c, 13, 53, 125
1, 87072, Note_off_c, 12, 53, 125
1, 87072, Note_off_c, 13, 49, 125
1, 87072, Note_off_c, 14, 45, 106
1, 87168, Note_on_c, 14, 45, 104
1, 87168, Note_on_c, 13, 49, 123
1, 87168, Note_on_c, 12, 54, 123
1, 87168, Note_on_c, 13, 54, 123
1, 87168, Note_on_c, 10, 69, 122
1, 87168, Note_on_c, 10, 73, 122
1, 87168, Note_on_c, 10, 78, 122
1, 87168, Note_on_c, 1, 40, 110
1, 87168, Note_on_c, 9, 38, 95
1, 87172, Note_off_c, 9, 38, 95
1, 87336, Note_off_c, 15, 69, 123
1, 87348, Note_off_c, 1, 40, 110
1, 87354, Note_off_c, 2, 81, 59
1, 87354, Note_off_c, 2, 69, 59
1, 87355, Note_off_c, 2, 76, 59
1, 87355, Note_off_c, 2, 73, 59
1, 87360, Note_off_c, 10, 78, 122
1, 87360, Note_off_c, 10, 73, 122
1, 87360, Note_off_c, 10, 69, 122
1, 87360, Note_off_c, 13, 54, 123
1, 87360, Note_off_c, 12, 54, 123
1, 87360, Note_off_c, 13, 49, 123
1, 87360, Note_off_c, 14, 45, 104
1, 87552, Tempo, 352916
1, 87552, Note_on_c, 14, 53, 71
1, 87552, Note_on_c, 15, 64, 60
1, 87552, Note_on_c, 3, 65, 39
1, 87552, Note_on_c, 3, 69, 39
1, 87552, Note_on_c, 3, 72, 39
1, 87552, Note_on_c, 3, 76, 39
1, 87552, Note_on_c, 3, 79, 39
1, 87552, Note_on_c, 2, 65, 22
1, 87552, Note_on_c, 2, 69, 22
1, 87552, Note_on_c, 2, 72, 22
1, 87552, Note_on_c, 2, 76, 22
1, 87552, Note_on_c, 2, 79, 22
1, 87552, Note_on_c, 1, 41, 71
1, 87552, Note_on_c, 9, 38, 56
1, 87556, Note_off_c, 9, 38, 56
1, 87648, Note_off_c, 2, 79, 22
1, 87648, Note_off_c, 2, 76, 22
1, 87648, Note_off_c, 2, 72, 22
1, 87648, Note_off_c, 2, 69, 22
1, 87648, Note_off_c, 2, 65, 22
1, 87924, Note_off_c, 1, 41, 71
1, 87936, Note_off_c, 14, 53, 71
1, 88008, Note_off_c, 15, 64, 60
1, 88128, Note_on_c, 14, 48, 71
1, 88128, Note_on_c, 15, 62, 60
1, 88128, Note_on_c, 1, 36, 71
1, 88128, Note_on_c, 9, 38, 56
1, 88132, Note_off_c, 9, 38, 56
1, 88500, Note_off_c, 1, 36, 71
1, 88512, Note_off_c, 14, 48, 71
1, 88584, Note_off_c, 15, 62, 60
1, 88704, Note_on_c, 14, 53, 69
1, 88704, Note_on_c, 15, 64, 64
1, 88704, Note_on_c, 1, 41, 69
1, 88704, Note_on_c, 9, 38, 52
1, 88708, Note_off_c, 9, 38, 52
1, 88968, Note_off_c, 15, 64, 64
1, 88980, Note_off_c, 1, 41, 69
1, 88992, Note_off_c, 14, 53, 69
1, 89088, Note_on_c, 14, 53, 73
1, 89088, Note_on_c, 15, 64, 64
1, 89088, Note_on_c, 1, 41, 73
1, 89088, Note_on_c, 9, 38, 54
1, 89092, Note_off_c, 9, 38, 54
1, 89460, Note_off_c, 1, 41, 73
1, 89472, Note_off_c, 14, 53, 73
1, 89544, Note_off_c, 15, 64, 64
1, 89664, Note_on_c, 14, 48, 71
1, 89664, Note_on_c, 15, 62, 60
1, 89664, Note_on_c, 1, 36, 71
1, 89664, Note_on_c, 9, 38, 52
1, 89668, Note_off_c, 9, 38, 52
1, 90036, Note_off_c, 1, 36, 71
1, 90048, Note_off_c, 14, 48, 71
1, 90120, Note_off_c, 15, 62, 60
1, 90240, Note_on_c, 14, 53, 77
1, 90240, Note_on_c, 15, 64, 81
1, 90240, Note_on_c, 1, 41, 77
1, 90240, Note_on_c, 9, 38, 50
1, 90244, Note_off_c, 9, 38, 50
1, 90504, Note_off_c, 15, 64, 81
1, 90516, Note_off_c, 1, 41, 77
1, 90528, Note_off_c, 14, 53, 77
1, 90624, Time_signature, 2, 2, 24, 8
1, 90624, Note_on_c, 14, 53, 69
1, 90624, Note_on_c, 15, 64, 97
1, 90624, Note_on_c, 12, 60, 124
1, 90624, Note_on_c, 8, 72, 83
1, 90624, Note_on_c, 1, 41, 69
1, 90624, Note_on_c, 9, 38, 50
1, 90628, Note_off_c, 9, 38, 50
1, 90688, Note_on_c, 9, 38, 38
1, 90692, Note_off_c, 9, 38, 38
1, 90720, Note_on_c, 9, 38, 52
1, 90724, Note_off_c, 9, 38, 52
1, 90752, Note_on_c, 9, 38, 52
1, 90756, Note_off_c, 9, 38, 52
1, 90792, Note_off_c, 15, 64, 97
1, 90816, Note_on_c, 9, 38, 60
1, 90820, Note_off_c, 9, 38, 60
1, 90848, Note_on_c, 9, 38, 46
1, 90852, Note_off_c, 9, 38, 46
1, 90880, Note_on_c, 9, 38, 65
1, 90884, Note_off_c, 9, 38, 65
1, 90912, Note_on_c, 12, 67, 94
1, 90912, Note_on_c, 9, 38, 56
1, 90916, Note_off_c, 9, 38, 56
1, 90944, Note_off_c, 12, 60, 124
1, 90944, Note_on_c, 12, 69, 104
1, 90944, Note_on_c, 9, 38, 71
1, 90948, Note_off_c, 9, 38, 71
1, 90976, Note_off_c, 12, 67, 94
1, 90976, Note_on_c, 12, 71, 113
1, 90996, Note_off_c, 1, 41, 69
1, 91000, Note_off_c, 8, 72, 83
1, 91008, Note_off_c, 12, 69, 104
1, 91008, Note_off_c, 14, 53, 69
1, 91008, Note_off_c, 3, 79, 39
1, 91008, Note_off_c, 3, 76, 39
1, 91008, Note_off_c, 3, 72, 39
1, 91008, Note_off_c, 3, 69, 39
1, 91008, Note_off_c, 3, 65, 39
1, 91008, Note_on_c, 12, 72, 127
1, 91008, Note_on_c, 10, 69, 78
1, 91008, Note_on_c, 10, 72, 76
1, 91008, Note_on_c, 8, 84, 84
1, 91008, Note_on_c, 10, 76, 80
1, 91008, Note_on_c, 9, 38, 81
1, 91012, Note_off_c, 9, 38, 81
1, 91040, Note_off_c, 12, 71, 113
1, 91144, Note_off_c, 8, 84, 84
1, 91152, Note_off_c, 10, 76, 80
1, 91152, Note_off_c, 10, 72, 76
1, 91152, Note_off_c, 10, 69, 78
1, 91152, Note_off_c, 12, 72, 127
1, 91392, Tempo, 333301
1, 91392, Time_signature, 4, 2, 24, 8
1, 91392, Note_on_c, 14, 53, 69
1, 91392, Note_on_c, 15, 64, 56
1, 91392, Note_on_c, 3, 65, 47
1, 91392, Note_on_c, 3, 69, 47
1, 91392, Note_on_c, 3, 72, 47
1, 91392, Note_on_c, 3, 76, 47
1, 91392, Note_on_c, 3, 79, 47
1, 91392, Note_on_c, 2, 65, 30
1, 91392, Note_on_c, 2, 69, 30
1, 91392, Note_on_c, 2, 72, 30
1, 91392, Note_on_c, 2, 76, 30
1, 91392, Note_on_c, 2, 79, 30
1, 91392, Note_on_c, 1, 41, 69
1, 91392, Note_on_c, 9, 38, 56
1, 91396, Note_off_c, 9, 38, 56
1, 91488, Note_off_c, 2, 79, 30
1, 91488, Note_off_c, 2, 76, 30
1, 91488, Note_off_c, 2, 72, 30
1, 91488, Note_off_c, 2, 69, 30
1, 91488, Note_off_c, 2, 65, 30
1, 91764, Note_off_c, 1, 41, 69
1, 91776, Note_off_c, 14, 53, 69
1, 91848, Note_off_c, 15, 64, 56
1, 91968, Note_on_c, 14, 48, 69
1, 91968, Note_on_c, 15, 62, 56
1, 91968, Note_on_c, 1, 36, 69
1, 91968, Note_on_c, 9, 38, 56
1, 91972, Note_off_c, 9, 38, 56
1, 92340, Note_off_c, 1, 36, 69
1, 92352, Note_off_c, 14, 48, 69
1, 92424, Note_off_c, 15, 62, 56
1, 92544, Note_on_c, 14, 53, 69
1, 92544, Note_on_c, 15, 64, 56
1, 92544, Note_on_c, 1, 41, 69
1, 92544, Note_on_c, 9, 38, 52
1, 92548, Note_off_c, 9, 38, 52
1, 92808, Note_off_c, 15, 64, 56
1, 92820, Note_off_c, 1, 41, 69
1, 92832, Note_off_c, 14, 53, 69
1, 92928, Note_on_c, 14, 53, 64
1, 92928, Note_on_c, 15, 64, 56
1, 92928, Note_on_c, 1, 41, 64
1, 92928, Note_on_c, 9, 38, 54
1, 92932, Note_off_c, 9, 38, 54
1, 93300, Note_off_c, 1, 41, 64
1, 93312, Note_off_c, 14, 53, 64
1, 93384, Note_off_c, 15, 64, 56
1, 93504, Note_on_c, 14, 48, 67
1, 93504, Note_on_c, 15, 62, 58
1, 93504, Note_on_c, 1, 36, 67
1, 93504, Note_on_c, 9, 38, 52
1, 93508, Note_off_c, 9, 38, 52
1, 93876, Note_off_c, 1, 36, 67
1, 93888, Note_off_c, 14, 48, 67
1, 93960, Note_off_c, 15, 62, 58
1, 94080, Note_on_c, 14, 53, 64
1, 94080, Note_on_c, 15, 64, 85
1, 94080, Note_on_c, 1, 41, 64
1, 94080, Note_on_c, 9, 38, 50
1, 94084, Note_off_c, 9, 38, 50
1, 94344, Note_off_c, 15, 64, 85
1, 94356, Note_off_c, 1, 41, 64
1, 94368, Note_off_c, 14, 53, 64
1, 94464, Time_signature, 2, 2, 24, 8
1, 94464, Note_on_c, 14, 53, 67
1, 94464, Note_on_c, 15, 64, 97
1, 94464, Note_on_c, 12, 60, 124
1, 94464, Note_on_c, 8, 72, 92
1, 94464, Note_on_c, 1, 41, 67
1, 94464, Note_on_c, 9, 38, 50
1, 94468, Note_off_c, 9, 38, 50
1, 94528, Note_on_c, 9, 38, 38
1, 94532, Note_off_c, 9, 38, 38
1, 94560, Note_on_c, 9, 38, 52
1, 94564, Note_off_c, 9, 38, 52
1, 94592, Note_on_c, 9, 38, 52
1, 94596, Note_off_c, 9, 38, 52
1, 94632, Note_off_c, 15, 64, 97
1, 94656, Note_on_c, 9, 38, 60
1, 94660, Note_off_c, 9, 38, 60
1, 94688, Note_on_c, 9, 38, 46
1, 94692, Note_off_c, 9, 38, 46
1, 94720, Note_on_c, 9, 38, 65
1, 94724, Note_off_c, 9, 38, 65
1, 94752, Note_on_c, 12, 67, 94
1, 94752, Note_on_c, 9, 38, 56
1, 94756, Note_off_c, 9, 38, 56
1, 94784, Note_off_c, 12, 60, 124
1, 94784, Note_on_c, 12, 69, 104
1, 94784, Note_on_c, 9, 38, 71
1, 94788, Note_off_c, 9, 38, 71
1, 94816, Note_off_c, 12, 67, 94
1, 94816, Note_on_c, 12, 71, 113
1, 94836, Note_off_c, 1, 41, 67
1, 94840, Note_off_c, 8, 72, 92
1, 94848, Note_off_c, 12, 69, 104
1, 94848, Note_off_c, 14, 53, 67
1, 94848, Note_off_c, 3, 79, 47
1, 94848, Note_off_c, 3, 76, 47
1, 94848, Note_off_c, 3, 72, 47
1, 94848, Note_off_c, 3, 69, 47
1, 94848, Note_off_c, 3, 65, 47
1, 94848, Note_on_c, 12, 72, 127
1, 94848, Note_on_c, 10, 69, 88
1, 94848, Note_on_c, 10, 72, 87
1, 94848, Note_on_c, 8, 84, 93
1, 94848, Note_on_c, 10, 76, 90
1, 94848, Note_on_c, 9, 38, 81
1, 94852, Note_off_c, 9, 38, 81
1, 94880, Note_off_c, 12, 71, 113
1, 94984, Note_off_c, 8, 84, 93
1, 94992, Note_off_c, 10, 76, 90
1, 94992, Note_off_c, 10, 72, 87
1, 94992, Note_off_c, 10, 69, 88
1, 94992, Note_off_c, 12, 72, 127
1, 95232, Tempo, 315721
1, 95232, Time_signature, 4, 2, 24, 8
1, 95232, Note_on_c, 14, 55, 89
1, 95232, Pitch_bend_c, 15, 7360
1, 95232, Note_on_c, 15, 66, 67
1, 95232, Note_on_c, 14, 59, 31
1, 95232, Note_on_c, 13, 62, 50
1, 95232, Note_on_c, 13, 66, 50
1, 95232, Note_on_c, 3, 67, 55
1, 95232, Note_on_c, 3, 71, 55
1, 95232, Note_on_c, 3, 74, 55
1, 95232, Note_on_c, 3, 78, 55
1, 95232, Note_on_c, 3, 81, 55
1, 95232, Note_on_c, 2, 67, 39
1, 95232, Note_on_c, 2, 71, 39
1, 95232, Note_on_c, 2, 74, 39
1, 95232, Note_on_c, 2, 78, 39
1, 95232, Note_on_c, 2, 81, 39
1, 95232, Note_on_c, 1, 43, 89
1, 95232, Note_on_c, 9, 38, 68
1, 95236, Note_off_c, 9, 38, 68
1, 95242, Pitch_bend_c, 15, 7296
1, 95252, Pitch_bend_c, 15, 7424
1, 95262, Pitch_bend_c, 15, 7488
1, 95272, Pitch_bend_c, 15, 7552
1, 95282, Pitch_bend_c, 15, 7616
1, 95292, Pitch_bend_c, 15, 7680
1, 95302, Pitch_bend_c, 15, 7744
1, 95312, Pitch_bend_c, 15, 7808
1, 95322, Pitch_bend_c, 15, 7872
1, 95328, Note_off_c, 2, 81, 39
1, 95328, Note_off_c, 2, 78, 39
1, 95328, Note_off_c, 2, 74, 39
1, 95328, Note_off_c, 2, 71, 39
1, 95328, Note_off_c, 2, 67, 39
1, 95332, Pitch_bend_c, 15, 7936
1, 95342, Pitch_bend_c, 15, 8000
1, 95352, Pitch_bend_c, 15, 8064
1, 95362, Pitch_bend_c, 15, 8128
1, 95372, Pitch_bend_c, 15, 8192
1, 95604, Note_off_c, 1, 43, 89
1, 95616, Note_off_c, 14, 55, 89
1, 95688, Note_off_c, 15, 66, 67
1, 95712, Note_off_c, 13, 66, 50
1, 95712, Note_off_c, 13, 62, 50
1, 95712, Note_off_c, 14, 59, 31
1, 95808, Note_on_c, 14, 50, 91
1, 95808, Note_on_c, 15, 64, 65
1, 95808, Note_on_c, 14, 57, 34
1, 95808, Note_on_c, 13, 60, 53
1, 95808, Note_on_c, 13, 64, 53
1, 95808, Note_on_c, 1, 38, 91
1, 95808, Note_on_c, 9, 38, 68
1, 95812, Note_off_c, 9, 38, 68
1, 96180, Note_off_c, 1, 38, 91
1, 96192, Note_off_c, 14, 50, 91
1, 96264, Note_off_c, 15, 64, 65
1, 96336, Note_off_c, 13, 64, 53
1, 96336, Note_off_c, 13, 60, 53
1, 96336, Note_off_c, 14, 57, 34
1, 96384, Note_on_c, 14, 55, 95
1, 96384, Note_on_c, 15, 66, 65
1, 96384, Note_on_c, 14, 59, 37
1, 96384, Note_on_c, 13, 62, 56
1, 96384, Note_on_c, 13, 66, 56
1, 96384, Note_on_c, 1, 43, 95
1, 96384, Note_on_c, 9, 38, 64
1, 96388, Note_off_c, 9, 38, 64
1, 96528, Note_off_c, 13, 66, 56
1, 96528, Note_off_c, 13, 62, 56
1, 96528, Note_off_c, 14, 59, 37
1, 96648, Note_off_c, 15, 66, 65
1, 96660, Note_off_c, 1, 43, 95
1, 96672, Note_off_c, 14, 55, 95
1, 96768, Note_on_c, 14, 55, 91
1, 96768, Note_on_c, 15, 66, 67
1, 96768, Note_on_c, 14, 59, 39
1, 96768, Note_on_c, 13, 62, 58
1, 96768, Note_on_c, 13, 66, 58
1, 96768, Note_on_c, 1, 43, 91
1, 96768, Note_on_c, 9, 38, 66
1, 96772, Note_off_c, 9, 38, 66
1, 97140, Note_off_c, 1, 43, 91
1, 97152, Note_off_c, 14, 55, 91
1, 97224, Note_off_c, 15, 66, 67
1, 97248, Note_off_c, 13, 66, 58
1, 97248, Note_off_c, 13, 62, 58
1, 97248, Note_off_c, 14, 59, 39
1, 97344, Note_on_c, 14, 50, 91
1, 97344, Note_on_c, 15, 64, 67
1, 97344, Note_on_c, 14, 57, 42
1, 97344, Note_on_c, 13, 60, 61
1, 97344, Note_on_c, 13, 64, 61
1, 97344, Note_on_c, 1, 38, 91
1, 97344, Note_on_c, 9, 38, 64
1, 97348, Note_off_c, 9, 38, 64
1, 97716, Note_off_c, 1, 38, 91
1, 97728, Note_off_c, 14, 50, 91
1, 97800, Note_off_c, 15, 64, 67
1, 97872, Note_off_c, 13, 64, 61
1, 97872, Note_off_c, 13, 60, 61
1, 97872, Note_off_c, 14, 57, 42
1, 97920, Note_on_c, 14, 55, 91
1, 97920, Note_on_c, 15, 66, 89
1, 97920, Note_on_c, 14, 59, 45
1, 97920, Note_on_c, 13, 62, 64
1, 97920, Note_on_c, 13, 66, 64
1, 97920, Note_on_c, 1, 43, 91
1, 97920, Note_on_c, 9, 38, 62
1, 97924, Note_off_c, 9, 38, 62
1, 98064, Note_off_c, 13, 66, 64
1, 98064, Note_off_c, 13, 62, 64
1, 98064, Note_off_c, 14, 59, 45
1, 98184, Note_off_c, 15, 66, 89
1, 98196, Note_off_c, 1, 43, 91
1, 98208, Note_off_c, 14, 55, 91
1, 98304, Time_signature, 2, 2, 24, 8
1, 98304, Note_on_c, 14, 55, 89
1, 98304, Note_on_c, 15, 66, 99
1, 98304, Note_on_c, 14, 59, 47
1, 98304, Note_on_c, 13, 62, 66
1, 98304, Note_on_c, 12, 62, 124
1, 98304, Note_on_c, 13, 66, 66
1, 98304, Note_on_c, 8, 74, 100
1, 98304, Note_on_c, 1, 43, 89
1, 98304, Note_on_c, 9, 38, 62
1, 98308, Note_off_c, 9, 38, 62
1, 98368, Note_on_c, 9, 38, 50
1, 98372, Note_off_c, 9, 38, 50
1, 98400, Note_on_c, 9, 38, 64
1, 98404, Note_off_c, 9, 38, 64
1, 98432, Note_on_c, 9, 38, 64
1, 98436, Note_off_c, 9, 38, 64
1, 98472, Note_off_c, 15, 66, 99
1, 98496, Note_on_c, 9, 38, 72
1, 98500, Note_off_c, 9, 38, 72
1, 98528, Note_on_c, 9, 38, 58
1, 98532, Note_off_c, 9, 38, 58
1, 98560, Note_on_c, 9, 38, 77
1, 98564, Note_off_c, 9, 38, 77
1, 98592, Note_on_c, 12, 69, 94
1, 98592, Note_on_c, 9, 38, 68
1, 98596, Note_off_c, 9, 38, 68
1, 98624, Note_off_c, 12, 62, 124
1, 98624, Note_on_c, 12, 71, 104
1, 98624, Note_on_c, 9, 38, 83
1, 98628, Note_off_c, 9, 38, 83
1, 98656, Note_off_c, 12, 69, 94
1, 98656, Note_on_c, 12, 73, 113
1, 98676, Note_off_c, 1, 43, 89
1, 98680, Note_off_c, 8, 74, 100
1, 98688, Note_off_c, 12, 71, 104
1, 98688, Note_off_c, 14, 55, 89
1, 98688, Note_off_c, 3, 81, 55
1, 98688, Note_off_c, 3, 78, 55
1, 98688, Note_off_c, 3, 74, 55
1, 98688, Note_off_c, 3, 71, 55
1, 98688, Note_off_c, 3, 67, 55
1, 98688, Note_on_c, 12, 74, 127
1, 98688, Note_on_c, 10, 71, 98
1, 98688, Note_on_c, 10, 74, 97
1, 98688, Note_on_c, 8, 86, 101
1, 98688, Note_on_c, 10, 78, 99
1, 98688, Note_on_c, 9, 38, 90
1, 98692, Note_off_c, 9, 38, 90
1, 98720, Note_off_c, 12, 73, 113
1, 98824, Note_off_c, 8, 86, 101
1, 98832, Note_off_c, 10, 78, 99
1, 98832, Note_off_c, 10, 74, 97
1, 98832, Note_off_c, 10, 71, 98
1, 98832, Note_off_c, 12, 74, 127
1, 98880, Note_off_c, 13, 66, 66
1, 98880, Note_off_c, 13, 62, 66
1, 98880, Note_off_c, 14, 59, 47
1, 99072, Tempo, 300000
1, 99072, Time_signature, 4, 2, 24, 8
1, 99072, Note_on_c, 14, 55, 87
1, 99072, Note_on_c, 15, 66, 77
1, 99072, Note_on_c, 14, 59, 51
1, 99072, Note_on_c, 13, 62, 70
1, 99072, Note_on_c, 13, 66, 70
1, 99072, Note_on_c, 3, 67, 64
1, 99072, Note_on_c, 3, 71, 64
1, 99072, Note_on_c, 3, 74, 64
1, 99072, Note_on_c, 3, 78, 64
1, 99072, Note_on_c, 3, 81, 64
1, 99072, Note_on_c, 2, 67, 48
1, 99072, Note_on_c, 2, 71, 48
1, 99072, Note_on_c, 2, 74, 48
1, 99072, Note_on_c, 2, 78, 48
1, 99072, Note_on_c, 2, 81, 48
1, 99072, Note_on_c, 1, 43, 87
1, 99072, Note_on_c, 9, 38, 80
1, 99076, Note_off_c, 9, 38, 80
1, 99168, Note_off_c, 2, 81, 48
1, 99168, Note_off_c, 2, 78, 48
1, 99168, Note_off_c, 2, 74, 48
1, 99168, Note_off_c, 2, 71, 48
1, 99168, Note_off_c, 2, 67, 48
1, 99444, Note_off_c, 1, 43, 87
1, 99456, Note_off_c, 14, 55, 87
1, 99528, Note_off_c, 15, 66, 77
1, 99552, Note_off_c, 13, 66, 70
1, 99552, Note_off_c, 13, 62, 70
1, 99552, Note_off_c, 14, 59, 51
1, 99648, Note_on_c, 14, 50, 91
1, 99648, Note_on_c, 15, 64, 73
1, 99648, Note_on_c, 14, 57, 54
1, 99648, Note_on_c, 13, 60, 73
1, 99648, Note_on_c, 13, 64, 73
1, 99648, Note_on_c, 1, 38, 91
1, 99648, Note_on_c, 9, 38, 80
1, 99652, Note_off_c, 9, 38, 80
1, 100020, Note_off_c, 1, 38, 91
1, 100032, Note_off_c, 14, 50, 91
1, 100104, Note_off_c, 15, 64, 73
1, 100176, Note_off_c, 13, 64, 73
1, 100176, Note_off_c, 13, 60, 73
1, 100176, Note_off_c, 14, 57, 54
1, 100224, Note_on_c, 14, 55, 95
1, 100224, Note_on_c, 15, 66, 77
1, 100224, Note_on_c, 14, 59, 57
1, 100224, Note_on_c, 13, 62, 76
1, 100224, Note_on_c, 13, 66, 76
1, 100224, Note_on_c, 1, 43, 95
1, 100224, Note_on_c, 9, 38, 76
1, 100228, Note_off_c, 9, 38, 76
1, 100368, Note_off_c, 13, 66, 76
1, 100368, Note_off_c, 13, 62, 76
1, 100368, Note_off_c, 14, 59, 57
1, 100488, Note_off_c, 15, 66, 77
1, 100500, Note_off_c, 1, 43, 95
1, 100512, Note_off_c, 14, 55, 95
1, 100608, Note_on_c, 14, 55, 97
1, 100608, Note_on_c, 15, 66, 85
1, 100608, Note_on_c, 14, 59, 60
1, 100608, Note_on_c, 13, 62, 79
1, 100608, Note_on_c, 13, 66, 79
1, 100608, Note_on_c, 1, 43, 97
1, 100608, Note_on_c, 9, 38, 78
1, 100612, Note_off_c, 9, 38, 78
1, 100980, Note_off_c, 1, 43, 97
1, 100992, Note_off_c, 14, 55, 97
1, 101064, Note_off_c, 15, 66, 85
1, 101088, Note_off_c, 13, 66, 79
1, 101088, Note_off_c, 13, 62, 79
1, 101088, Note_off_c, 14, 59, 60
1, 101184, Note_on_c, 14, 50, 91
1, 101184, Note_on_c, 15, 64, 85
1, 101184, Note_on_c, 14, 57, 63
1, 101184, Note_on_c, 13, 60, 82
1, 101184, Note_on_c, 13, 64, 82
1, 101184, Note_on_c, 1, 38, 91
1, 101184, Note_on_c, 9, 38, 76
1, 101188, Note_off_c, 9, 38, 76
1, 101556, Note_off_c, 1, 38, 91
1, 101568, Note_off_c, 14, 50, 91
1, 101640, Note_off_c, 15, 64, 85
1, 101712, Note_off_c, 13, 64, 82
1, 101712, Note_off_c, 13, 60, 82
1, 101712, Note_off_c, 14, 57, 63
1, 101760, Note_on_c, 14, 55, 87
1, 101760, Note_on_c, 15, 66, 105
1, 101760, Note_on_c, 14, 59, 66
1, 101760, Note_on_c, 13, 62, 85
1, 101760, Note_on_c, 13, 66, 85
1, 101760, Note_on_c, 1, 43, 87
1, 101760, Note_on_c, 9, 38, 74
1, 101764, Note_off_c, 9, 38, 74
1, 101904, Note_off_c, 13, 66, 85
1, 101904, Note_off_c, 13, 62, 85
1, 101904, Note_off_c, 14, 59, 66
1, 102024, Note_off_c, 15, 66, 105
1, 102036, Note_off_c, 1, 43, 87
1, 102048, Note_off_c, 14, 55, 87
1, 102144, Time_signature, 2, 2, 24, 8
1, 102144, Note_on_c, 14, 55, 91
1, 102144, Note_on_c, 15, 66, 121
1, 102144, Note_on_c, 14, 59, 68
1, 102144, Note_on_c, 13, 62, 87
1, 102144, Note_on_c, 12, 62, 124
1, 102144, Note_on_c, 13, 66, 87
1, 102144, Note_on_c, 8, 74, 109
1, 102144, Note_on_c, 1, 43, 91
1, 102144, Note_on_c, 9, 38, 74
1, 102148, Note_off_c, 9, 38, 74
1, 102208, Note_on_c, 9, 38, 62
1, 102212, Note_off_c, 9, 38, 62
1, 102240, Note_on_c, 9, 38, 76
1, 102244, Note_off_c, 9, 38, 76
1, 102272, Note_on_c, 9, 38, 76
1, 102276, Note_off_c, 9, 38, 76
1, 102312, Note_off_c, 15, 66, 121
1, 102336, Note_on_c, 9, 38, 84
1, 102340, Note_off_c, 9, 38, 84
1, 102368, Note_on_c, 9, 38, 70
1, 102372, Note_off_c, 9, 38, 70
1, 102400, Note_on_c, 9, 38, 89
1, 102404, Note_off_c, 9, 38, 89
1, 102432, Note_on_c, 12, 69, 94
1, 102432, Note_on_c, 9, 38, 80
1, 102436, Note_off_c, 9, 38, 80
1, 102464, Note_off_c, 12, 62, 124
1, 102464, Note_on_c, 12, 71, 104
1, 102464, Note_on_c, 9, 38, 95
1, 102468, Note_off_c, 9, 38, 95
1, 102496, Note_off_c, 12, 69, 94
1, 102496, Note_on_c, 12, 73, 113
1, 102516, Note_off_c, 1, 43, 91
1, 102520, Note_off_c, 8, 74, 109
1, 102528, Note_off_c, 12, 71, 104
1, 102528, Note_off_c, 14, 55, 91
1, 102528, Note_off_c, 3, 81, 64
1, 102528, Note_off_c, 3, 78, 64
1, 102528, Note_off_c, 3, 74, 64
1, 102528, Note_off_c, 3, 71, 64
1, 102528, Note_off_c, 3, 67, 64
1, 102528, Note_on_c, 12, 74, 127
1, 102528, Note_on_c, 10, 71, 108
1, 102528, Note_on_c, 10, 74, 107
1, 102528, Note_on_c, 8, 86, 109
1, 102528, Note_on_c, 10, 78, 109
1, 102528, Note_on_c, 9, 38, 105
1, 102532, Note_off_c, 9, 38, 105
1, 102560, Note_off_c, 12, 73, 113
1, 102664, Note_off_c, 8, 86, 109
1, 102672, Note_off_c, 10, 78, 109
1, 102672, Note_off_c, 10, 74, 107
1, 102672, Note_off_c, 10, 71, 108
1, 102672, Note_off_c, 12, 74, 127
1, 102720, Note_off_c, 13, 66, 87
1, 102720, Note_off_c, 13, 62, 87
1, 102720, Note_off_c, 14, 59, 68
1, 102912, Tempo, 285655
1, 102912, Time_signature, 4, 2, 24, 8
1, 102912, Note_on_c, 14, 57, 113
1, 102912, Pitch_bend_c, 15, 7360
1, 102912, Note_on_c, 15, 68, 87
1, 102912, Note_on_c, 14, 61, 72
1, 102912, Note_on_c, 13, 64, 91
1, 102912, Note_on_c, 13, 68, 91
1, 102912, Note_on_c, 3, 69, 72
1, 102912, Note_on_c, 3, 73, 72
1, 102912, Note_on_c, 3, 76, 72
1, 102912, Note_on_c, 3, 80, 72
1, 102912, Note_on_c, 3, 83, 72
1, 102912, Note_on_c, 2, 69, 57
1, 102912, Note_on_c, 2, 73, 57
1, 102912, Note_on_c, 2, 76, 57
1, 102912, Note_on_c, 2, 80, 57
1, 102912, Note_on_c, 2, 83, 57
1, 102912, Note_on_c, 1, 45, 113
1, 102912, Note_on_c, 9, 36, 52
1, 102912, Note_on_c, 9, 38, 92
1, 102916, Note_off_c, 9, 38, 92
1, 102916, Note_off_c, 9, 36, 52
1, 102922, Pitch_bend_c, 15, 7296
1, 102932, Pitch_bend_c, 15, 7424
1, 102942, Pitch_bend_c, 15, 7488
1, 102952, Pitch_bend_c, 15, 7552
1, 102962, Pitch_bend_c, 15, 7616
1, 102972, Pitch_bend_c, 15, 7680
1, 102982, Pitch_bend_c, 15, 7744
1, 102992, Pitch_bend_c, 15, 7808
1, 103002, Pitch_bend_c, 15, 7872
1, 103008, Note_off_c, 2, 83, 57
1, 103008, Note_off_c, 2, 80, 57
1, 103008, Note_off_c, 2, 76, 57
1, 103008, Note_off_c, 2, 73, 57
1, 103008, Note_off_c, 2, 69, 57
1, 103012, Pitch_bend_c, 15, 7936
1, 103022, Pitch_bend_c, 15, 8000
1, 103032, Pitch_bend_c, 15, 8064
1, 103042, Pitch_bend_c, 15, 8128
1, 103052, Pitch_bend_c, 15, 8192
1, 103284, Note_off_c, 1, 45, 113
1, 103296, Note_off_c, 14, 57, 113
1, 103368, Note_off_c, 15, 68, 87
1, 103392, Note_off_c, 13, 68, 91
1, 103392, Note_off_c, 13, 64, 91
1, 103392, Note_off_c, 14, 61, 72
1, 103488, Note_on_c, 14, 52, 117
1, 103488, Note_on_c, 15, 66, 89
1, 103488, Note_on_c, 14, 59, 75
1, 103488, Note_on_c, 13, 62, 94
1, 103488, Note_on_c, 13, 66, 94
1, 103488, Note_on_c, 1, 40, 117
1, 103488, Note_on_c, 9, 36, 58
1, 103488, Note_on_c, 9, 38, 92
1, 103492, Note_off_c, 9, 38, 92
1, 103492, Note_off_c, 9, 36, 58
1, 103860, Note_off_c, 1, 40, 117
1, 103872, Note_off_c, 14, 52, 117
1, 103944, Note_off_c, 15, 66, 89
1, 104016, Note_off_c, 13, 66, 94
1, 104016, Note_off_c, 13, 62, 94
1, 104016, Note_off_c, 14, 59, 75
1, 104064, Note_on_c, 14, 57, 121
1, 104064, Note_on_c, 15, 68, 91
1, 104064, Note_on_c, 14, 61, 78
1, 104064, Note_on_c, 13, 64, 97
1, 104064, Note_on_c, 13, 68, 97
1, 104064, Note_on_c, 1, 45, 121
1, 104064, Note_on_c, 9, 36, 64
1, 104064, Note_on_c, 9, 38, 88
1, 104068, Note_off_c, 9, 38, 88
1, 104068, Note_off_c, 9, 36, 64
1, 104208, Note_off_c, 13, 68, 97
1, 104208, Note_off_c, 13, 64, 97
1, 104208, Note_off_c, 14, 61, 78
1, 104328, Note_off_c, 15, 68, 91
1, 104340, Note_off_c, 1, 45, 121
1, 104352, Note_off_c, 14, 57, 121
1, 104448, Note_on_c, 14, 57, 127
1, 104448, Note_on_c, 15, 68, 93
1, 104448, Note_on_c, 14, 61, 80
1, 104448, Note_on_c, 13, 64, 99
1, 104448, Note_on_c, 13, 68, 99
1, 104448, Note_on_c, 1, 45, 127
1, 104448, Note_on_c, 9, 36, 68
1, 104448, Note_on_c, 9, 38, 90
1, 104452, Note_off_c, 9, 38, 90
1, 104452, Note_off_c, 9, 36, 68
1, 104820, Note_off_c, 1, 45, 127
1, 104832, Note_off_c, 14, 57, 127
1, 104904, Note_off_c, 15, 68, 93
1, 104928, Note_off_c, 13, 68, 99
1, 104928, Note_off_c, 13, 64, 99
1, 104928, Note_off_c, 14, 61, 80
1, 105024, Note_on_c, 14, 52, 125
1, 105024, Note_on_c, 15, 66, 93
1, 105024, Note_on_c, 14, 59, 83
1, 105024, Note_on_c, 13, 62, 102
1, 105024, Note_on_c, 13, 66, 102
1, 105024, Note_on_c, 1, 40, 125
1, 105024, Note_on_c, 9, 36, 74
1, 105024, Note_on_c, 9, 38, 88
1, 105028, Note_off_c, 9, 38, 88
1, 105028, Note_off_c, 9, 36, 74
1, 105396, Note_off_c, 1, 40, 125
1, 105408, Note_off_c, 14, 52, 125
1, 105480, Note_off_c, 15, 66, 93
1, 105552, Note_off_c, 13, 66, 102
1, 105552, Note_off_c, 13, 62, 102
1, 105552, Note_off_c, 14, 59, 83
1, 105600, Note_on_c, 14, 57, 123
1, 105600, Note_on_c, 15, 68, 103
1, 105600, Note_on_c, 14, 61, 86
1, 105600, Note_on_c, 13, 64, 105
1, 105600, Note_on_c, 13, 68, 105
1, 105600, Note_on_c, 1, 45, 123
1, 105600, Note_on_c, 9, 36, 80
1, 105600, Note_on_c, 9, 38, 86
1, 105604, Note_off_c, 9, 38, 86
1, 105604, Note_off_c, 9, 36, 80
1, 105744, Note_off_c, 13, 68, 105
1, 105744, Note_off_c, 13, 64, 105
1, 105744, Note_off_c, 14, 61, 86
1, 105864, Note_off_c, 15, 68, 103
1, 105876, Note_off_c, 1, 45, 123
1, 105888, Note_off_c, 14, 57, 123
1, 105984, Time_signature, 2, 2, 24, 8
1, 105984, Note_on_c, 14, 57, 109
1, 105984, Note_on_c, 15, 68, 115
1, 105984, Note_on_c, 14, 61, 88
1, 105984, Note_on_c, 13, 64, 107
1, 105984, Note_on_c, 12, 64, 124
1, 105984, Note_on_c, 13, 68, 107
1, 105984, Note_on_c, 8, 76, 117
1, 105984, Note_on_c, 1, 45, 109
1, 105984, Note_on_c, 9, 36, 84
1, 105984, Note_on_c, 9, 38, 86
1, 105988, Note_off_c, 9, 38, 86
1, 105988, Note_off_c, 9, 36, 84
1, 106048, Note_on_c, 9, 38, 74
1, 106052, Note_off_c, 9, 38, 74
1, 106080, Note_on_c, 9, 38, 88
1, 106084, Note_off_c, 9, 38, 88
1, 106112, Note_on_c, 9, 38, 88
1, 106116, Note_off_c, 9, 38, 88
1, 106152, Note_off_c, 15, 68, 115
1, 106176, Note_on_c, 9, 38, 96
1, 106180, Note_off_c, 9, 38, 96
1, 106208, Note_on_c, 9, 38, 82
1, 106212, Note_off_c, 9, 38, 82
1, 106240, Note_on_c, 9, 38, 101
1, 106244, Note_off_c, 9, 38, 101
1, 106272, Note_on_c, 12, 71, 94
1, 106272, Note_on_c, 9, 38, 92
1, 106276, Note_off_c, 9, 38, 92
1, 106304, Note_off_c, 12, 64, 124
1, 106304, Note_on_c, 12, 73, 104
1, 106304, Note_on_c, 9, 38, 107
1, 106308, Note_off_c, 9, 38, 107
1, 106336, Note_off_c, 12, 71, 94
1, 106336, Note_on_c, 12, 75, 113
1, 106356, Note_off_c, 1, 45, 109
1, 106360, Note_off_c, 8, 76, 117
1, 106368, Note_off_c, 12, 73, 104
1, 106368, Note_off_c, 14, 57, 109
1, 106368, Note_off_c, 3, 83, 72
1, 106368, Note_off_c, 3, 80, 72
1, 106368, Note_off_c, 3, 76, 72
1, 106368, Note_off_c, 3, 73, 72
1, 106368, Note_off_c, 3, 69, 72
1, 106368, Note_on_c, 12, 76, 127
1, 106368, Note_on_c, 10, 73, 118
1, 106368, Note_on_c, 10, 76, 118
1, 106368, Note_on_c, 8, 88, 118
1, 106368, Note_on_c, 10, 80, 119
1, 106368, Note_on_c, 9, 36, 88
1, 106368, Note_on_c, 9, 38, 117
1, 106372, Note_off_c, 9, 38, 117
1, 106372, Note_off_c, 9, 36, 88
1, 106400, Note_off_c, 12, 75, 113
1, 106504, Note_off_c, 8, 88, 118
1, 106512, Note_off_c, 10, 80, 119
1, 106512, Note_off_c, 10, 76, 118
1, 106512, Note_off_c, 10, 73, 118
1, 106512, Note_off_c, 12, 76, 127
1, 106560, Note_off_c, 13, 68, 107
1, 106560, Note_off_c, 13, 64, 107
1, 106560, Note_off_c, 14, 61, 88
1, 106752, Tempo, 272671
1, 106752, Time_signature, 4, 2, 24, 8
1, 106752, Note_on_c, 14, 57, 113
1, 106752, Note_on_c, 15, 68, 107
1, 106752, Note_on_c, 14, 61, 92
1, 106752, Note_on_c, 13, 64, 111
1, 106752, Note_on_c, 13, 68, 111
1, 106752, Note_on_c, 3, 69, 81
1, 106752, Note_on_c, 3, 73, 81
1, 106752, Note_on_c, 3, 76, 81
1, 106752, Note_on_c, 3, 80, 81
1, 106752, Note_on_c, 3, 83, 81
1, 106752, Note_on_c, 2, 85, 74
1, 106752, Note_on_c, 2, 88, 74
1, 106752, Note_on_c, 2, 92, 74
1, 106752, Note_on_c, 1, 45, 113
1, 106752, Note_on_c, 9, 36, 92
1, 106752, Note_on_c, 9, 38, 115
1, 106756, Note_off_c, 9, 38, 115
1, 106756, Note_off_c, 9, 36, 92
1, 107124, Note_off_c, 1, 45, 113
1, 107136, Note_off_c, 14, 57, 113
1, 107208, Note_off_c, 15, 68, 107
1, 107232, Note_off_c, 2, 92, 74
1, 107232, Note_off_c, 2, 88, 74
1, 107232, Note_off_c, 2, 85, 74
1, 107232, Note_off_c, 13, 68, 111
1, 107232, Note_off_c, 13, 64, 111
1, 107232, Note_off_c, 14, 61, 92
1, 107328, Note_on_c, 14, 52, 125
1, 107328, Note_on_c, 15, 66, 111
1, 107328, Note_on_c, 14, 59, 95
1, 107328, Note_on_c, 13, 62, 114
1, 107328, Note_on_c, 13, 66, 114
1, 107328, Note_on_c, 2, 83, 78
1, 107328, Note_on_c, 2, 86, 78
1, 107328, Note_on_c, 2, 90, 78
1, 107328, Note_on_c, 1, 40, 125
1, 107328, Note_on_c, 9, 36, 98
1, 107328, Note_on_c, 9, 38, 115
1, 107332, Note_off_c, 9, 38, 115
1, 107332, Note_off_c, 9, 36, 98
1, 107700, Note_off_c, 1, 40, 125
1, 107712, Note_off_c, 14, 52, 125
1, 107784, Note_off_c, 15, 66, 111
1, 107856, Note_off_c, 2, 90, 78
1, 107856, Note_off_c, 2, 86, 78
1, 107856, Note_off_c, 2, 83, 78
1, 107856, Note_off_c, 13, 66, 114
1, 107856, Note_off_c, 13, 62, 114
1, 107856, Note_off_c, 14, 59, 95
1, 107904, Note_on_c, 14, 57, 119
1, 107904, Note_on_c, 15, 68, 111
1, 107904, Note_on_c, 14, 61, 98
1, 107904, Note_on_c, 13, 64, 117
1, 107904, Note_on_c, 13, 68, 117
1, 107904, Note_on_c, 2, 85, 81
1, 107904, Note_on_c, 2, 88, 81
1, 107904, Note_on_c, 2, 92, 81
1, 107904, Note_on_c, 1, 45, 119
1, 107904, Note_on_c, 9, 36, 103
1, 107904, Note_on_c, 9, 38, 117
1, 107908, Note_off_c, 9, 38, 117
1, 107908, Note_off_c, 9, 36, 103
1, 108048, Note_off_c, 2, 92, 81
1, 108048, Note_off_c, 2, 88, 81
1, 108048, Note_off_c, 2, 85, 81
1, 108048, Note_off_c, 13, 68, 117
1, 108048, Note_off_c, 13, 64, 117
1, 108048, Note_off_c, 14, 61, 98
1, 108168, Note_off_c, 15, 68, 111
1, 108180, Note_off_c, 1, 45, 119
1, 108192, Note_off_c, 14, 57, 119
1, 108288, Note_on_c, 14, 57, 121
1, 108288, Note_on_c, 15, 68, 115
1, 108288, Note_on_c, 14, 61, 100
1, 108288, Note_on_c, 13, 64, 119
1, 108288, Note_on_c, 13, 68, 119
1, 108288, Note_on_c, 10, 73, 127
1, 108288, Note_on_c, 10, 76, 127
1, 108288, Note_on_c, 10, 80, 127
1, 108288, Note_on_c, 2, 85, 84
1, 108288, Note_on_c, 2, 88, 84
1, 108288, Note_on_c, 2, 92, 84
1, 108288, Note_on_c, 1, 45, 121
1, 108288, Note_on_c, 9, 36, 107
1, 108288, Note_on_c, 9, 38, 121
1, 108292, Note_off_c, 9, 38, 121
1, 108292, Note_off_c, 9, 36, 107
1, 108432, Note_off_c, 10, 80, 127
1, 108432, Note_off_c, 10, 76, 127
1, 108432, Note_off_c, 10, 73, 127
1, 108660, Note_off_c, 1, 45, 121
1, 108672, Note_off_c, 14, 57, 121
1, 108744, Note_off_c, 15, 68, 115
1, 108768, Note_off_c, 2, 92, 84
1, 108768, Note_off_c, 2, 88, 84
1, 108768, Note_off_c, 2, 85, 84
1, 108768, Note_off_c, 13, 68, 119
1, 108768, Note_off_c, 13, 64, 119
1, 108768, Note_off_c, 14, 61, 100
1, 108864, Note_on_c, 14, 52, 121
1, 108864, Note_on_c, 15, 66, 119
1, 108864, Note_on_c, 14, 59, 103
1, 108864, Note_on_c, 13, 62, 122
1, 108864, Note_on_c, 13, 66, 122
1, 108864, Note_on_c, 10, 73, 127
1, 108864, Note_on_c, 10, 76, 127
1, 108864, Note_on_c, 10, 80, 127
1, 108864, Note_on_c, 2, 83, 87
1, 108864, Note_on_c, 2, 86, 87
1, 108864, Note_on_c, 2, 90, 87
1, 108864, Note_on_c, 1, 40, 121
1, 108864, Note_on_c, 9, 36, 113
1, 108864, Note_on_c, 9, 38, 123
1, 108868, Note_off_c, 9, 38, 123
1, 108868, Note_off_c, 9, 36, 113
1, 109008, Note_off_c, 10, 80, 127
1, 109008, Note_off_c, 10, 76, 127
1, 109008, Note_off_c, 10, 73, 127
1, 109236, Note_off_c, 1, 40, 121
1, 109248, Note_off_c, 14, 52, 121
1, 109248, Note_on_c, 10, 73, 127
1, 109248, Note_on_c, 10, 76, 127
1, 109248, Note_on_c, 10, 80, 127
1, 109320, Note_off_c, 15, 66, 119
1, 109336, Note_off_c, 10, 80, 127
1, 109336, Note_off_c, 10, 76, 127
1, 109336, Note_off_c, 10, 73, 127
1, 109392, Note_off_c, 2, 90, 87
1, 109392, Note_off_c, 2, 86, 87
1, 109392, Note_off_c, 2, 83, 87
1, 109392, Note_off_c, 13, 66, 122
1, 109392, Note_off_c, 13, 62, 122
1, 109392, Note_off_c, 14, 59, 103
1, 109440, Note_on_c, 14, 57, 121
1, 109440, Note_on_c, 15, 68, 123
1, 109440, Note_on_c, 14, 61, 107
1, 109440, Note_on_c, 13, 64, 126
1, 109440, Note_on_c, 13, 68, 126
1, 109440, Note_on_c, 10, 73, 127
1, 109440, Note_on_c, 10, 76, 127
1, 109440, Note_on_c, 10, 80, 127
1, 109440, Note_on_c, 2, 85, 91
1, 109440, Note_on_c, 2, 88, 91
1, 109440, Note_on_c, 2, 92, 91
1, 109440, Note_on_c, 1, 45, 121
1, 109440, Note_on_c, 9, 36, 119
1, 109440, Note_on_c, 9, 38, 127
1, 109444, Note_off_c, 9, 38, 127
1, 109444, Note_off_c, 9, 36, 119
1, 109528, Note_off_c, 10, 80, 127
1, 109528, Note_off_c, 10, 76, 127
1, 109528, Note_off_c, 10, 73, 127
1, 109584, Note_off_c, 2, 92, 91
1, 109584, Note_off_c, 2, 88, 91
1, 109584, Note_off_c, 2, 85, 91
1, 109584, Note_off_c, 13, 68, 126
1, 109584, Note_off_c, 13, 64, 126
1, 109584, Note_off_c, 14, 61, 107
1, 109632, Note_on_c, 10, 73, 127
1, 109632, Note_on_c, 10, 76, 127
1, 109632, Note_on_c, 10, 80, 127
1, 109704, Note_off_c, 15, 68, 123
1, 109720, Note_off_c, 10, 80, 127
1, 109720, Note_off_c, 10, 76, 127
1, 109720, Note_off_c, 10, 73, 127
1, 109812, Note_off_c, 1, 45, 121
1, 109824, Note_off_c, 14, 57, 121
1, 109824, Note_off_c, 3, 83, 81
1, 109824, Note_off_c, 3, 80, 81
1, 109824, Note_off_c, 3, 76, 81
1, 109824, Note_off_c, 3, 73, 81
1, 109824, Note_off_c, 3, 69, 81
1, 109824, Time_signature, 2, 2, 24, 8
1, 109824, Note_on_c, 14, 64, 125
1, 109824, Pitch_bend_c, 15, 7360
1, 109824, Note_on_c, 15, 76, 127
1, 109824, Note_on_c, 14, 61, 108
1, 109824, Note_on_c, 13, 64, 127
1, 109824, Note_on_c, 12, 76, 127
1, 109824, Note_on_c, 13, 68, 127
1, 109824, Note_on_c, 10, 73, 127
1, 109824, Note_on_c, 10, 76, 127
1, 109824, Note_on_c, 8, 88, 127
1, 109824, Note_on_c, 10, 80, 127
1, 109824, Note_on_c, 2, 85, 101
1, 109824, Note_on_c, 2, 88, 101
1, 109824, Note_on_c, 2, 92, 101
1, 109824, Note_on_c, 1, 52, 125
1, 109824, Note_on_c, 9, 38, 127
1, 109824, Note_on_c, 9, 36, 123
1, 109828, Note_off_c, 9, 36, 123
1, 109828, Note_off_c, 9, 38, 127
1, 109834, Pitch_bend_c, 15, 7296
1, 109844, Pitch_bend_c, 15, 7424
1, 109854, Pitch_bend_c, 15, 7488
1, 109864, Pitch_bend_c, 15, 7552
1, 109874, Pitch_bend_c, 15, 7616
1, 109884, Pitch_bend_c, 15, 7680
1, 109894, Pitch_bend_c, 15, 7744
1, 109904, Pitch_bend_c, 15, 7808
1, 109914, Pitch_bend_c, 15, 7872
1, 109924, Pitch_bend_c, 15, 7936
1, 109934, Pitch_bend_c, 15, 8000
1, 109944, Pitch_bend_c, 15, 8064
1, 109954, Pitch_bend_c, 15, 8128
1, 109960, Note_off_c, 8, 88, 127
1, 109964, Pitch_bend_c, 15, 8192
1, 109968, Note_off_c, 2, 92, 101
1, 109968, Note_off_c, 2, 88, 101
1, 109968, Note_off_c, 2, 85, 101
1, 109968, Note_off_c, 10, 80, 127
1, 109968, Note_off_c, 10, 76, 127
1, 109968, Note_off_c, 10, 73, 127
1, 109968, Note_off_c, 13, 68, 127
1, 109968, Note_off_c, 12, 76, 127
1, 109968, Note_off_c, 13, 64, 127
1, 109968, Note_off_c, 14, 61, 108
1, 110184, Note_off_c, 15, 76, 127
1, 110196, Note_off_c, 1, 52, 125
1, 110208, Note_off_c, 14, 64, 125
1, 110592, Tempo, 750000
1, 110592, Time_signature, 4, 2, 24, 8
1, 111552, Note_on_c, 15, 57, 112
1, 111722, Note_off_c, 15, 57, 112
1, 111744, Note_on_c, 15, 61, 100
1, 111914, Note_off_c, 15, 61, 100
1, 111936, Note_on_c, 15, 64, 95
1, 112106, Note_off_c, 15, 64, 95
1, 112128, Note_on_c, 14, 40, 112
1, 112128, Pitch_bend_c, 15, 7360
1, 112128, Note_on_c, 15, 69, 124
1, 112128, Note_on_c, 14, 50, 108
1, 112128, Note_on_c, 13, 54, 127
1, 112128, Note_on_c, 12, 66, 127
1, 112128, Note_on_c, 13, 57, 127
1, 112128, Note_on_c, 10, 62, 112
1, 112128, Note_on_c, 10, 66, 116
1, 112128, Note_on_c, 8, 86, 124
1, 112128, Note_on_c, 10, 69, 112
1, 112128, Note_on_c, 2, 74, 97
1, 112128, Note_on_c, 2, 78, 97
1, 112128, Note_on_c, 2, 81, 97
1, 112128, Note_on_c, 1, 40, 112
1, 112128, Note_on_c, 0, 40, 67
1, 112138, Pitch_bend_c, 15, 7296
1, 112148, Pitch_bend_c, 15, 7424
1, 112158, Pitch_bend_c, 15, 7488
1, 112168, Pitch_bend_c, 15, 7552
1, 112176, Note_off_c, 0, 40, 67
1, 112176, Note_on_c, 0, 42, 41
1, 112178, Pitch_bend_c, 15, 7616
1, 112188, Pitch_bend_c, 15, 7680
1, 112198, Pitch_bend_c, 15, 7744
1, 112208, Pitch_bend_c, 15, 7808
1, 112218, Pitch_bend_c, 15, 7872
1, 112224, Note_off_c, 0, 42, 41
1, 112224, Note_on_c, 0, 40, 33
1, 112228, Pitch_bend_c, 15, 7936
1, 112238, Pitch_bend_c, 15, 8000
1, 112248, Pitch_bend_c, 15, 8064
1, 112258, Pitch_bend_c, 15, 8128
1, 112268, Pitch_bend_c, 15, 8192
1, 112272, Note_off_c, 0, 40, 33
1, 112272, Note_on_c, 0, 42, 35
1, 112320, Note_off_c, 0, 42, 35
1, 112320, Note_on_c, 0, 40, 35
1, 112368, Note_off_c, 0, 40, 35
1, 112368, Note_on_c, 0, 42, 35
1, 112416, Note_off_c, 0, 42, 35
1, 112416, Note_on_c, 0, 40, 35
1, 112464, Note_off_c, 0, 40, 35
1, 112464, Note_on_c, 0, 42, 27
1, 112512, Note_off_c, 0, 42, 27
1, 112512, Note_on_c, 0, 40, 31
1, 112560, Note_off_c, 0, 40, 31
1, 112560, Note_on_c, 0, 42, 35
1, 112608, Note_off_c, 0, 42, 35
1, 112608, Note_on_c, 0, 40, 27
1, 112656, Note_off_c, 0, 40, 27
1, 112656, Note_on_c, 0, 42, 23
1, 112704, Note_off_c, 0, 42, 23
1, 112704, Note_on_c, 0, 40, 27
1, 112719, Note_off_c, 1, 40, 112
1, 112731, Note_off_c, 14, 40, 112
1, 112752, Note_off_c, 0, 40, 27
1, 112752, Note_on_c, 0, 42, 12
1, 112800, Note_off_c, 0, 42, 12
1, 112800, Note_on_c, 0, 40, 18
1, 112840, Note_off_c, 8, 86, 124
1, 112842, Note_off_c, 2, 81, 97
1, 112842, Note_off_c, 2, 78, 97
1, 112842, Note_off_c, 2, 74, 97
1, 112848, Note_off_c, 0, 40, 18
1, 112848, Note_off_c, 10, 69, 112
1, 112848, Note_off_c, 10, 66, 116
1, 112848, Note_off_c, 10, 62, 112
1, 112848, Note_off_c, 13, 57, 127
1, 112848, Note_off_c, 12, 66, 127
1, 112848, Note_off_c, 13, 54, 127
1, 112848, Note_off_c, 14, 50, 108
1, 112848, Note_on_c, 0, 42, 27
1, 112872, Note_off_c, 15, 69, 124
1, 112896, Note_off_c, 0, 42, 27
1, 112896, Note_on_c, 14, 40, 112
1, 112896, Note_on_c, 15, 68, 116
1, 112896, Note_on_c, 14, 49, 108
1, 112896, Note_on_c, 13, 52, 127
1, 112896, Note_on_c, 12, 68, 127
1, 112896, Note_on_c, 13, 56, 127
1, 112896, Note_on_c, 10, 61, 100
1, 112896, Note_on_c, 10, 64, 112
1, 112896, Note_on_c, 8, 88, 112
1, 112896, Note_on_c, 10, 68, 100
1, 112896, Note_on_c, 2, 73, 97
1, 112896, Note_on_c, 2, 76, 97
1, 112896, Note_on_c, 2, 80, 97
1, 112896, Note_on_c, 1, 40, 112
1, 112896, Note_on_c, 0, 40, 41
1, 112944, Note_off_c, 0, 40, 41
1, 112944, Note_on_c, 0, 42, 33
1, 112992, Note_off_c, 0, 42, 33
1, 112992, Note_on_c, 0, 40, 23
1, 113040, Note_off_c, 0, 40, 23
1, 113040, Note_on_c, 0, 42, 37
1, 113088, Note_off_c, 0, 42, 37
1, 113088, Note_on_c, 0, 40, 37
1, 113136, Note_off_c, 0, 40, 37
1, 113136, Note_on_c, 0, 42, 39
1, 113184, Note_off_c, 0, 42, 39
1, 113184, Note_on_c, 0, 40, 41
1, 113232, Note_off_c, 0, 40, 41
1, 113232, Note_on_c, 0, 42, 44
1, 113280, Note_off_c, 0, 42, 44
1, 113280, Note_on_c, 0, 40, 39
1, 113328, Note_off_c, 0, 40, 39
1, 113328, Note_on_c, 0, 42, 35
1, 113376, Note_off_c, 0, 42, 35
1, 113376, Note_on_c, 0, 40, 35
1, 113424, Note_off_c, 0, 40, 35
1, 113424, Note_on_c, 0, 42, 35
1, 113472, Note_off_c, 0, 42, 35
1, 113472, Note_on_c, 0, 40, 35
1, 113520, Note_off_c, 0, 40, 35
1, 113520, Note_on_c, 0, 42, 37
1, 113548, Note_off_c, 1, 40, 112
1, 113560, Note_off_c, 14, 40, 112
1, 113568, Note_off_c, 0, 42, 37
1, 113568, Note_on_c, 0, 40, 37
1, 113608, Note_off_c, 8, 88, 112
1, 113610, Note_off_c, 2, 80, 97
1, 113610, Note_off_c, 2, 76, 97
1, 113610, Note_off_c, 2, 73, 97
1, 113616, Note_off_c, 0, 40, 37
1, 113616, Note_off_c, 10, 68, 100
1, 113616, Note_off_c, 10, 64, 112
1, 113616, Note_off_c, 10, 61, 100
1, 113616, Note_off_c, 13, 56, 127
1, 113616, Note_off_c, 12, 68, 127
1, 113616, Note_off_c, 13, 52, 127
1, 113616, Note_off_c, 14, 49, 108
1, 113616, Note_on_c, 0, 42, 23
1, 113640, Note_off_c, 15, 68, 116
1, 113664, Note_off_c, 0, 42, 23
1, 113664, Note_on_c, 14, 40, 112
1, 113664, Note_on_c, 14, 50, 108
1, 113664, Note_on_c, 13, 54, 127
1, 113664, Note_on_c, 12, 69, 127
1, 113664, Note_on_c, 13, 57, 127
1, 113664, Note_on_c, 10, 62, 112
1, 113664, Note_on_c, 10, 66, 100
1, 113664, Note_on_c, 8, 90, 116
1, 113664, Note_on_c, 10, 69, 112
1, 113664, Note_on_c, 2, 74, 97
1, 113664, Note_on_c, 2, 78, 97
1, 113664, Note_on_c, 2, 81, 97
1, 113664, Note_on_c, 1, 40, 112
1, 113664, Note_on_c, 0, 40, 39
1, 113712, Note_off_c, 0, 40, 39
1, 113712, Note_on_c, 0, 42, 41
1, 113760, Note_off_c, 0, 42, 41
1, 113760, Note_on_c, 0, 40, 46
1, 113808, Note_off_c, 0, 40, 46
1, 113808, Note_on_c, 0, 42, 50
1, 113856, Note_off_c, 0, 42, 50
1, 113856, Note_on_c, 0, 40, 52
1, 113904, Note_off_c, 0, 40, 52
1, 113904, Note_on_c, 0, 42, 52
1, 113952, Note_off_c, 0, 42, 52
1, 113952, Note_on_c, 0, 40, 56
1, 114000, Note_off_c, 0, 40, 56
1, 114000, Note_on_c, 0, 42, 64
1, 114048, Note_off_c, 0, 42, 64
1, 114048, Pitch_bend_c, 15, 7360
1, 114048, Note_on_c, 15, 69, 112
1, 114048, Note_on_c, 0, 40, 67
1, 114058, Pitch_bend_c, 15, 7296
1, 114068, Pitch_bend_c, 15, 7424
1, 114078, Pitch_bend_c, 15, 7488
1, 114088, Pitch_bend_c, 15, 7552
1, 114096, Note_off_c, 0, 40, 67
1, 114096, Note_on_c, 0, 42, 65
1, 114098, Pitch_bend_c, 15, 7616
1, 114108, Pitch_bend_c, 15, 7680
1, 114118, Pitch_bend_c, 15, 7744
1, 114128, Pitch_bend_c, 15, 7808
1, 114138, Pitch_bend_c, 15, 7872
1, 114144, Note_off_c, 0, 42, 65
1, 114144, Note_on_c, 0, 40, 65
1, 114148, Pitch_bend_c, 15, 7936
1, 114158, Pitch_bend_c, 15, 8000
1, 114168, Pitch_bend_c, 15, 8064
1, 114178, Pitch_bend_c, 15, 8128
1, 114188, Pitch_bend_c, 15, 8192
1, 114192, Note_off_c, 0, 40, 65
1, 114192, Note_on_c, 0, 42, 65
1, 114240, Note_off_c, 0, 42, 65
1, 114240, Note_on_c, 0, 40, 69
1, 114288, Note_off_c, 0, 40, 69
1, 114288, Note_on_c, 0, 42, 69
1, 114336, Note_off_c, 0, 42, 69
1, 114336, Note_on_c, 0, 40, 71
1, 114373, Note_off_c, 1, 40, 112
1, 114376, Note_off_c, 8, 90, 116
1, 114378, Note_off_c, 2, 81, 97
1, 114378, Note_off_c, 2, 78, 97
1, 114378, Note_off_c, 2, 74, 97
1, 114384, Note_off_c, 0, 40, 71
1, 114384, Note_off_c, 10, 69, 112
1, 114384, Note_off_c, 10, 66, 100
1, 114384, Note_off_c, 10, 62, 112
1, 114384, Note_off_c, 13, 57, 127
1, 114384, Note_off_c, 12, 69, 127
1, 114384, Note_off_c, 13, 54, 127
1, 114384, Note_off_c, 14, 50, 108
1, 114384, Note_on_c, 0, 42, 79
1, 114385, Note_off_c, 14, 40, 112
1, 114408, Note_off_c, 15, 69, 112
1, 114432, Note_off_c, 0, 42, 79
1, 114432, Note_on_c, 14, 40, 112
1, 114432, Note_on_c, 15, 68, 116
1, 114432, Note_on_c, 14, 49, 108
1, 114432, Note_on_c, 13, 52, 127
1, 114432, Note_on_c, 12, 71, 127
1, 114432, Note_on_c, 13, 56, 127
1, 114432, Note_on_c, 10, 64, 112
1, 114432, Note_on_c, 10, 68, 116
1, 114432, Note_on_c, 8, 92, 116
1, 114432, Note_on_c, 10, 71, 124
1, 114432, Note_on_c, 2, 73, 97
1, 114432, Note_on_c, 2, 76, 97
1, 114432, Note_on_c, 2, 80, 97
1, 114432, Note_on_c, 2, 83, 97
1, 114432, Note_on_c, 1, 40, 112
1, 114432, Note_on_c, 0, 40, 83
1, 114480, Note_off_c, 0, 40, 83
1, 114480, Note_on_c, 0, 42, 90
1, 114528, Note_off_c, 0, 42, 90
1, 114528, Note_on_c, 0, 40, 92
1, 114576, Note_off_c, 0, 40, 92
1, 114576, Note_on_c, 0, 42, 96
1, 114624, Note_off_c, 0, 42, 96
1, 114624, Note_on_c, 0, 40, 98
1, 114672, Note_off_c, 0, 40, 98
1, 114672, Note_on_c, 0, 42, 100
1, 114720, Note_off_c, 0, 42, 100
1, 114720, Note_on_c, 0, 40, 98
1, 114768, Note_off_c, 0, 40, 98
1, 114768, Note_on_c, 0, 42, 108
1, 114816, Note_off_c, 0, 42, 108
1, 114816, Note_on_c, 0, 40, 102
1, 114864, Note_off_c, 0, 40, 102
1, 114864, Note_on_c, 0, 42, 107
1, 114912, Note_off_c, 0, 42, 107
1, 114912, Note_on_c, 0, 40, 107
1, 114960, Note_off_c, 0, 40, 107
1, 114960, Note_on_c, 0, 42, 107
1, 115008, Note_off_c, 0, 42, 107
1, 115008, Note_on_c, 0, 40, 107
1, 115056, Note_off_c, 0, 40, 107
1, 115056, Note_on_c, 0, 42, 107
1, 115104, Note_off_c, 0, 42, 107
1, 115104, Note_on_c, 0, 40, 107
1, 115144, Note_off_c, 8, 92, 116
1, 115152, Note_off_c, 0, 40, 107
1, 115152, Note_on_c, 0, 42, 123
1, 115168, Note_on_c, 7, 47, 125
1, 115179, Note_off_c, 15, 68, 116
1, 115182, Note_on_c, 7, 50, 125
1, 115188, Note_off_c, 1, 40, 112
1, 115194, Note_off_c, 2, 83, 97
1, 115194, Note_off_c, 2, 80, 97
1, 115194, Note_off_c, 2, 76, 97
1, 115194, Note_off_c, 2, 73, 97
1, 115194, Note_on_c, 7, 59, 125
1, 115200, Note_off_c, 0, 42, 123
1, 115200, Note_off_c, 10, 71, 124
1, 115200, Note_off_c, 10, 68, 116
1, 115200, Note_off_c, 10, 64, 112
1, 115200, Note_off_c, 13, 56, 127
1, 115200, Note_off_c, 12, 71, 127
1, 115200, Note_off_c, 13, 52, 127
1, 115200, Note_off_c, 14, 49, 108
1, 115200, Note_off_c, 14, 40, 112
1, 115200, Tempo, 789470
1, 115200, Pitch_bend_c, 15, 7360
1, 115200, Note_on_c, 15, 69, 124
1, 115200, Note_on_c, 8, 93, 112
1, 115200, Note_on_c, 2, 71, 97
1, 115200, Note_on_c, 2, 74, 97
1, 115200, Note_on_c, 2, 78, 97
1, 115200, Note_on_c, 2, 81, 97
1, 115210, Pitch_bend_c, 15, 7296
1, 115217, Note_on_c, 7, 62, 125
1, 115220, Pitch_bend_c, 15, 7424
1, 115228, Note_on_c, 7, 54, 125
1, 115230, Pitch_bend_c, 15, 7488
1, 115234, Note_on_c, 7, 66, 125
1, 115240, Pitch_bend_c, 15, 7552
1, 115250, Pitch_bend_c, 15, 7616
1, 115253, Note_on_c, 7, 57, 125
1, 115260, Pitch_bend_c, 15, 7680
1, 115260, Note_on_c, 7, 69, 125
1, 115270, Pitch_bend_c, 15, 7744
1, 115280, Pitch_bend_c, 15, 7808
1, 115290, Pitch_bend_c, 15, 7872
1, 115300, Pitch_bend_c, 15, 7936
1, 115310, Pitch_bend_c, 15, 8000
1, 115320, Pitch_bend_c, 15, 8064
1, 115330, Pitch_bend_c, 15, 8128
1, 115340, Pitch_bend_c, 15, 8192
1, 115392, Note_on_c, 14, 45, 124
1, 115392, Note_on_c, 14, 47, 93
1, 115392, Note_on_c, 13, 54, 100
1, 115392, Note_on_c, 12, 71, 112
1, 115392, Note_on_c, 13, 57, 112
1, 115392, Note_on_c, 10, 66, 112
1, 115392, Note_on_c, 10, 69, 112
1, 115392, Note_on_c, 10, 71, 112
1, 115392, Note_on_c, 1, 45, 124
1, 115392, Note_on_c, 0, 45, 124
1, 115392, Note_on_c, 9, 36, 63
1, 115392, Note_on_c, 9, 38, 103
1, 115396, Note_off_c, 9, 38, 103
1, 115396, Note_off_c, 9, 36, 63
1, 115488, Note_off_c, 0, 45, 124
1, 115526, Note_off_c, 1, 45, 124
1, 115536, Note_off_c, 10, 71, 112
1, 115536, Note_off_c, 10, 69, 112
1, 115536, Note_off_c, 10, 66, 112
1, 115537, Note_off_c, 12, 71, 112
1, 115538, Note_off_c, 13, 57, 112
1, 115538, Note_off_c, 13, 54, 100
1, 115538, Note_off_c, 14, 47, 93
1, 115538, Note_off_c, 14, 45, 124
1, 115584, Tempo, 909090
1, 115584, Note_on_c, 14, 45, 124
1, 115584, Note_on_c, 14, 47, 93
1, 115584, Note_on_c, 13, 54, 116
1, 115584, Note_on_c, 12, 71, 124
1, 115584, Note_on_c, 13, 57, 124
1, 115584, Note_on_c, 10, 69, 112
1, 115584, Note_on_c, 10, 71, 112
1, 115584, Note_on_c, 10, 74, 124
1, 115584, Note_on_c, 1, 45, 124
1, 115584, Note_on_c, 0, 45, 124
1, 115584, Note_on_c, 9, 36, 72
1, 115584, Note_on_c, 9, 38, 103
1, 115588, Note_off_c, 9, 38, 103
1, 115588, Note_off_c, 9, 36, 72
1, 115680, Note_off_c, 0, 45, 124
1, 115718, Note_off_c, 1, 45, 124
1, 115728, Note_off_c, 10, 74, 124
1, 115728, Note_off_c, 10, 71, 112
1, 115728, Note_off_c, 10, 69, 112
1, 115729, Note_off_c, 12, 71, 124
1, 115730, Note_off_c, 13, 57, 124
1, 115730, Note_off_c, 13, 54, 116
1, 115730, Note_off_c, 14, 47, 93
1, 115730, Note_off_c, 14, 45, 124
1, 115776, Note_on_c, 14, 45, 124
1, 115776, Note_on_c, 14, 47, 93
1, 115776, Note_on_c, 13, 54, 100
1, 115776, Note_on_c, 12, 71, 116
1, 115776, Note_on_c, 13, 57, 112
1, 115776, Note_on_c, 10, 71, 112
1, 115776, Note_on_c, 10, 74, 124
1, 115776, Note_on_c, 10, 78, 116
1, 115776, Note_on_c, 1, 45, 124
1, 115776, Note_on_c, 0, 45, 124
1, 115776, Note_on_c, 9, 36, 82
1, 115776, Note_on_c, 9, 38, 109
1, 115780, Note_off_c, 9, 38, 109
1, 115780, Note_off_c, 9, 36, 82
1, 115872, Note_off_c, 0, 45, 124
1, 115910, Note_off_c, 1, 45, 124
1, 115920, Note_off_c, 10, 78, 116
1, 115920, Note_off_c, 10, 74, 124
1, 115920, Note_off_c, 10, 71, 112
1, 115921, Note_off_c, 12, 71, 116
1, 115922, Note_off_c, 13, 57, 112
1, 115922, Note_off_c, 13, 54, 100
1, 115922, Note_off_c, 14, 47, 93
1, 115922, Note_off_c, 14, 45, 124
1, 115968, Tempo, 1034480
1, 115968, Note_on_c, 14, 45, 124
1, 115968, Note_on_c, 14, 47, 76
1, 115968, Note_on_c, 13, 54, 116
1, 115968, Note_on_c, 12, 71, 112
1, 115968, Note_on_c, 13, 57, 112
1, 115968, Note_on_c, 10, 74, 124
1, 115968, Note_on_c, 10, 78, 116
1, 115968, Note_on_c, 10, 81, 124
1, 115968, Note_on_c, 1, 45, 124
1, 115968, Note_on_c, 0, 45, 124
1, 115968, Note_on_c, 9, 36, 92
1, 115968, Note_on_c, 9, 38, 115
1, 115972, Note_off_c, 9, 38, 115
1, 115972, Note_off_c, 9, 36, 92
1, 116042, Note_off_c, 7, 47, 125
1, 116057, Note_off_c, 7, 69, 125
1, 116061, Note_off_c, 7, 50, 125
1, 116062, Note_off_c, 7, 59, 125
1, 116064, Note_off_c, 0, 45, 124
1, 116068, Note_off_c, 7, 66, 125
1, 116068, Note_off_c, 7, 62, 125
1, 116077, Note_off_c, 7, 54, 125
1, 116078, Note_off_c, 7, 57, 125
1, 116126, Note_off_c, 1, 45, 124
1, 116136, Note_off_c, 10, 81, 124
1, 116136, Note_off_c, 10, 78, 116
1, 116136, Note_off_c, 10, 74, 124
1, 116137, Note_off_c, 12, 71, 112
1, 116138, Note_off_c, 13, 57, 112
1, 116138, Note_off_c, 13, 54, 116
1, 116138, Note_off_c, 14, 47, 76
1, 116138, Note_off_c, 14, 45, 124
1, 116140, Note_on_c, 7, 47, 125
1, 116142, Note_on_c, 7, 59, 125
1, 116145, Note_on_c, 7, 50, 125
1, 116147, Note_on_c, 7, 62, 125
1, 116148, Note_on_c, 7, 54, 125
1, 116155, Note_on_c, 7, 57, 125
1, 116156, Note_on_c, 7, 66, 125
1, 116158, Tempo, 1304340
1, 116160, Note_on_c, 14, 45, 124
1, 116160, Note_on_c, 14, 47, 93
1, 116160, Note_on_c, 13, 54, 116
1, 116160, Note_on_c, 12, 71, 124
1, 116160, Note_on_c, 13, 57, 112
1, 116160, Note_on_c, 10, 78, 116
1, 116160, Note_on_c, 10, 81, 124
1, 116160, Note_on_c, 10, 83, 112
1, 116160, Note_on_c, 1, 45, 124
1, 116160, Note_on_c, 0, 45, 124
1, 116160, Note_on_c, 9, 36, 101
1, 116160, Note_on_c, 9, 38, 124
1, 116164, Note_off_c, 9, 38, 124
1, 116164, Note_off_c, 9, 36, 101
1, 116170, Note_on_c, 7, 69, 125
1, 116241, Note_off_c, 7, 47, 125
1, 116248, Note_off_c, 7, 50, 125
1, 116251, Note_off_c, 7, 66, 125
1, 116252, Note_off_c, 7, 59, 125
1, 116256, Note_off_c, 0, 45, 124
1, 116257, Note_off_c, 7, 62, 125
1, 116258, Note_off_c, 7, 69, 125
1, 116270, Note_off_c, 7, 54, 125
1, 116275, Note_off_c, 7, 57, 125
1, 116312, Note_on_c, 7, 47, 125
1, 116313, Note_on_c, 7, 50, 125
1, 116318, Note_off_c, 1, 45, 124
1, 116319, Note_on_c, 7, 62, 125
1, 116324, Note_on_c, 7, 66, 125
1, 116328, Note_off_c, 10, 83, 112
1, 116328, Note_off_c, 10, 81, 124
1, 116328, Note_off_c, 10, 78, 116
1, 116328, Note_on_c, 7, 54, 125
1, 116329, Note_off_c, 12, 71, 124
1, 116330, Note_off_c, 13, 57, 112
1, 116330, Note_off_c, 13, 54, 116
1, 116330, Note_off_c, 14, 47, 93
1, 116330, Note_off_c, 14, 45, 124
1, 116337, Note_on_c, 7, 69, 125
1, 116340, Note_on_c, 7, 71, 125
1, 116343, Note_on_c, 7, 57, 125
1, 116352, Note_on_c, 14, 45, 124
1, 116352, Note_on_c, 14, 47, 108
1, 116352, Note_on_c, 13, 54, 127
1, 116352, Note_on_c, 12, 71, 127
1, 116352, Note_on_c, 13, 57, 127
1, 116352, Note_on_c, 10, 81, 124
1, 116352, Note_on_c, 10, 83, 112
1, 116352, Note_on_c, 10, 86, 124
1, 116352, Note_on_c, 1, 45, 124
1, 116352, Note_on_c, 0, 45, 124
1, 116352, Note_on_c, 9, 36, 110
1, 116352, Note_on_c, 9, 38, 127
1, 116356, Note_off_c, 9, 38, 127
1, 116356, Note_off_c, 9, 36, 110
1, 116448, Note_off_c, 0, 45, 124
1, 116480, Note_off_c, 7, 54, 125
1, 116480, Note_off_c, 7, 47, 125
1, 116481, Note_off_c, 7, 69, 125
1, 116481, Note_off_c, 7, 50, 125
1, 116484, Note_off_c, 7, 71, 125
1, 116484, Note_off_c, 7, 66, 125
1, 116485, Note_off_c, 1, 45, 124
1, 116487, Note_off_c, 7, 57, 125
1, 116487, Note_off_c, 7, 62, 125
1, 116488, Note_off_c, 8, 93, 112
1, 116490, Note_off_c, 2, 81, 97
1, 116490, Note_off_c, 2, 78, 97
1, 116490, Note_off_c, 2, 74, 97
1, 116490, Note_off_c, 2, 71, 97
1, 116496, Note_off_c, 10, 83, 112
1, 116496, Note_off_c, 10, 81, 124
1, 116497, Note_off_c, 12, 71, 127
1, 116497, Note_off_c, 14, 45, 124
1, 116498, Note_off_c, 13, 57, 127
1, 116498, Note_off_c, 13, 54, 127
1, 116498, Note_off_c, 14, 47, 108
1, 116520, Note_off_c, 15, 69, 124
1, 116544, Note_off_c, 10, 86, 124
1, 116736, Tempo, 666641
1, 117120, Pitch_bend_c, 15, 7360
1, 117120, Note_on_c, 15, 71, 121
1, 117130, Pitch_bend_c, 15, 7296
1, 117140, Pitch_bend_c, 15, 7424
1, 117150, Pitch_bend_c, 15, 7488
1, 117160, Pitch_bend_c, 15, 7552
1, 117170, Pitch_bend_c, 15, 7616
1, 117180, Pitch_bend_c, 15, 7680
1, 117190, Pitch_bend_c, 15, 7744
1, 117200, Pitch_bend_c, 15, 7808
1, 117210, Pitch_bend_c, 15, 7872
1, 117220, Pitch_bend_c, 15, 7936
1, 117230, Pitch_bend_c, 15, 8000
1, 117240, Pitch_bend_c, 15, 8064
1, 117250, Pitch_bend_c, 15, 8128
1, 117260, Pitch_bend_c, 15, 8192
1, 117384, Note_off_c, 15, 71, 121
1, 117504, Note_on_c, 15, 71, 110
1, 117768, Note_off_c, 15, 71, 110
1, 117888, Note_on_c, 15, 71, 115
1, 118152, Note_off_c, 15, 71, 115
1, 118272, Tempo, 625000
1, 118272, Note_on_c, 14, 50, 110
1, 118272, Pitch_bend_c, 15, 7360
1, 118272, Note_on_c, 15, 71, 124
1, 118272, Note_on_c, 14, 50, 91
1, 118272, Note_on_c, 13, 54, 110
1, 118272, Note_on_c, 13, 57, 110
1, 118272, Note_on_c, 10, 62, 124
1, 118272, Note_on_c, 10, 66, 61
1, 118272, Note_on_c, 10, 69, 112
1, 118272, Note_on_c, 2, 78, 82
1, 118272, Note_on_c, 2, 83, 82
1, 118272, Note_on_c, 2, 86, 82
1, 118272, Note_on_c, 1, 38, 112
1, 118272, Note_on_c, 9, 44, 77
1, 118272, Note_on_c, 9, 36, 95
1, 118272, Note_on_c, 9, 59, 83
1, 118276, Note_off_c, 9, 59, 83
1, 118276, Note_off_c, 9, 36, 95
1, 118276, Note_off_c, 9, 44, 77
1, 118282, Pitch_bend_c, 15, 7296
1, 118292, Pitch_bend_c, 15, 7424
1, 118302, Pitch_bend_c, 15, 7488
1, 118312, Pitch_bend_c, 15, 7552
1, 118322, Pitch_bend_c, 15, 7616
1, 118332, Pitch_bend_c, 15, 7680
1, 118342, Pitch_bend_c, 15, 7744
1, 118352, Pitch_bend_c, 15, 7808
1, 118362, Pitch_bend_c, 15, 7872
1, 118372, Pitch_bend_c, 15, 7936
1, 118382, Pitch_bend_c, 15, 8000
1, 118392, Pitch_bend_c, 15, 8064
1, 118400, Note_on_c, 12, 66, 100
1, 118402, Pitch_bend_c, 15, 8128
1, 118412, Pitch_bend_c, 15, 8192
1, 118432, Note_off_c, 10, 69, 112
1, 118432, Note_off_c, 10, 66, 61
1, 118432, Note_off_c, 10, 62, 124
1, 118432, Note_off_c, 13, 57, 110
1, 118432, Note_off_c, 13, 54, 110
1, 118432, Note_off_c, 14, 50, 91
1, 118432, Note_off_c, 14, 50, 110
1, 118504, Note_off_c, 15, 71, 124
1, 118528, Note_off_c, 12, 66, 100
1, 118528, Note_on_c, 15, 69, 124
1, 118528, Note_on_c, 12, 67, 112
1, 118580, Note_off_c, 1, 38, 112
1, 118656, Note_off_c, 12, 67, 112
1, 118656, Note_on_c, 12, 69, 112
1, 118656, Note_on_c, 1, 38, 95
1, 118656, Note_on_c, 9, 44, 73
1, 118656, Note_on_c, 9, 38, 125
1, 118656, Note_on_c, 9, 59, 83
1, 118660, Note_off_c, 9, 59, 83
1, 118660, Note_off_c, 9, 38, 125
1, 118660, Note_off_c, 9, 44, 73
1, 118784, Note_off_c, 12, 69, 112
1, 118784, Note_on_c, 12, 71, 112
1, 118836, Note_off_c, 1, 38, 95
1, 118912, Note_off_c, 12, 71, 112
1, 118912, Note_on_c, 14, 54, 116
1, 118912, Note_on_c, 14, 57, 105
1, 118912, Note_on_c, 13, 59, 127
1, 118912, Note_on_c, 12, 74, 112
1, 118912, Note_on_c, 13, 62, 124
1, 118912, Note_on_c, 1, 38, 104
1, 118912, Note_on_c, 9, 36, 95
1, 118912, Note_on_c, 9, 59, 85
1, 118916, Note_off_c, 9, 59, 85
1, 118916, Note_off_c, 9, 36, 95
1, 119010, Note_off_c, 2, 86, 82
1, 119010, Note_off_c, 2, 83, 82
1, 119028, Note_off_c, 1, 38, 104
1, 119034, Note_off_c, 2, 78, 82
1, 119040, Note_on_c, 2, 83, 82
1, 119040, Note_on_c, 2, 86, 82
1, 119040, Note_on_c, 2, 90, 86
1, 119040, Note_on_c, 1, 42, 119
1, 119040, Note_on_c, 9, 44, 75
1, 119040, Note_on_c, 9, 36, 95
1, 119040, Note_on_c, 9, 59, 85
1, 119044, Note_off_c, 9, 59, 85
1, 119044, Note_off_c, 9, 36, 95
1, 119044, Note_off_c, 9, 44, 75
1, 119056, Pitch_bend_c, 13, 8088
1, 119093, Pitch_bend_c, 13, 7880
1, 119110, Pitch_bend_c, 13, 8088
1, 119115, Pitch_bend_c, 13, 7672
1, 119121, Pitch_bend_c, 14, 7984
1, 119132, Pitch_bend_c, 13, 7464
1, 119142, Pitch_bend_c, 14, 7776
1, 119147, Pitch_bend_c, 13, 7880
1, 119158, Pitch_bend_c, 13, 7256
1, 119167, Pitch_bend_c, 14, 7568
1, 119177, Pitch_bend_c, 13, 7672
1, 119183, Pitch_bend_c, 14, 7360
1, 119184, Note_on_c, 14, 53, 109
1, 119184, Pitch_bend_c, 13, 7048
1, 119191, Pitch_bend_c, 13, 7464
1, 119196, Pitch_bend_c, 14, 7152
1, 119203, Pitch_bend_c, 13, 7256
1, 119208, Pitch_bend_c, 13, 6840
1, 119212, Pitch_bend_c, 14, 6944
1, 119212, Pitch_bend_c, 13, 7048
1, 119225, Pitch_bend_c, 13, 6840
1, 119230, Pitch_bend_c, 14, 6736
1, 119230, Pitch_bend_c, 13, 6632
1, 119232, Note_off_c, 14, 54, 116
1, 119238, Pitch_bend_c, 13, 6632
1, 119242, Pitch_bend_c, 14, 6528
1, 119246, Pitch_bend_c, 13, 6424
1, 119249, Pitch_bend_c, 13, 6424
1, 119254, Pitch_bend_c, 13, 6216
1, 119256, Pitch_bend_c, 14, 6320
1, 119263, Pitch_bend_c, 13, 6216
1, 119264, Pitch_bend_c, 13, 6008
1, 119268, Pitch_bend_c, 14, 6112
1, 119270, Pitch_bend_c, 13, 5800
1, 119272, Note_off_c, 15, 69, 124
1, 119272, Note_on_c, 14, 52, 100
1, 119277, Pitch_bend_c, 13, 5592
1, 119277, Pitch_bend_c, 13, 6008
1, 119282, Pitch_bend_c, 14, 5904
1, 119284, Pitch_bend_c, 13, 5384
1, 119291, Pitch_bend_c, 13, 5800
1, 119292, Pitch_bend_c, 13, 5176
1, 119293, Pitch_bend_c, 14, 5696
1, 119296, Note_off_c, 14, 53, 109
1, 119296, Note_on_c, 15, 71, 124
1, 119301, Pitch_bend_c, 13, 4968
1, 119302, Pitch_bend_c, 14, 5488
1, 119304, Pitch_bend_c, 13, 5592
1, 119314, Pitch_bend_c, 13, 4760
1, 119315, Pitch_bend_c, 14, 5280
1, 119316, Pitch_bend_c, 13, 5384
1, 119321, Pitch_bend_c, 14, 5072
1, 119324, Note_on_c, 14, 50, 96
1, 119324, Pitch_bend_c, 13, 5176
1, 119325, Pitch_bend_c, 13, 4552
1, 119333, Pitch_bend_c, 14, 4864
1, 119333, Pitch_bend_c, 13, 4968
1, 119335, Pitch_bend_c, 13, 4344
1, 119343, Pitch_bend_c, 13, 4136
1, 119345, Note_on_c, 12, 72, 123
1, 119345, Pitch_bend_c, 13, 4760
1, 119346, Pitch_bend_c, 14, 4656
1, 119348, Note_off_c, 1, 42, 119
1, 119355, Pitch_bend_c, 13, 3928
1, 119356, Pitch_bend_c, 13, 4552
1, 119360, Note_off_c, 14, 52, 100
1, 119360, Note_off_c, 12, 74, 112
1, 119364, Pitch_bend_c, 14, 4448
1, 119365, Pitch_bend_c, 13, 3720
1, 119367, Pitch_bend_c, 13, 4344
1, 119379, Pitch_bend_c, 13, 3512
1, 119381, Pitch_bend_c, 14, 4240
1, 119382, Note_on_c, 12, 71, 106
1, 119382, Pitch_bend_c, 13, 4136
1, 119386, Note_off_c, 2, 90, 86
1, 119386, Note_off_c, 2, 86, 82
1, 119386, Note_off_c, 2, 83, 82
1, 119390, Note_on_c, 14, 48, 83
1, 119390, Pitch_bend_c, 13, 3304
1, 119395, Pitch_bend_c, 14, 4032
1, 119400, Note_off_c, 15, 71, 124
1, 119400, Pitch_bend_c, 13, 3096
1, 119402, Pitch_bend_c, 13, 3928
1, 119404, Note_off_c, 12, 72, 123
1, 119407, Pitch_bend_c, 14, 3824
1, 119408, Pitch_bend_c, 13, 2888
1, 119409, Note_on_c, 12, 69, 93
1, 119418, Pitch_bend_c, 13, 3720
1, 119419, Pitch_bend_c, 14, 3616
1, 119419, Pitch_bend_c, 13, 2680
1, 119423, Note_off_c, 14, 50, 96
1, 119424, Note_on_c, 15, 69, 124
1, 119424, Note_on_c, 10, 71, 112
1, 119424, Note_on_c, 10, 74, 112
1, 119424, Note_on_c, 10, 79, 112
1, 119424, Note_on_c, 2, 83, 82
1, 119424, Note_on_c, 2, 86, 82
1, 119424, Note_on_c, 2, 91, 82
1, 119424, Note_on_c, 1, 42, 116
1, 119424, Note_on_c, 9, 44, 73
1, 119424, Note_on_c, 9, 38, 117
1, 119424, Note_on_c, 9, 59, 85
1, 119428, Note_off_c, 9, 59, 85
1, 119428, Note_off_c, 9, 38, 117
1, 119428, Note_off_c, 9, 44, 73
1, 119431, Pitch_bend_c, 14, 3408
1, 119435, Note_on_c, 14, 47, 65
1, 119435, Pitch_bend_c, 13, 2472
1, 119441, Pitch_bend_c, 14, 3200
1, 119443, Note_off_c, 12, 71, 106
1, 119444, Pitch_bend_c, 13, 3512
1, 119445, Note_on_c, 12, 67, 74
1, 119449, Pitch_bend_c, 14, 2992
1, 119454, Pitch_bend_c, 13, 2264
1, 119457, Pitch_bend_c, 14, 2784
1, 119465, Pitch_bend_c, 14, 2576
1, 119471, Pitch_bend_c, 13, 2056
1, 119474, Note_off_c, 12, 69, 93
1, 119475, Pitch_bend_c, 14, 2368
1, 119476, Note_on_c, 12, 65, 55
1, 119478, Note_off_c, 14, 48, 83
1, 119483, Pitch_bend_c, 13, 3304
1, 119485, Pitch_bend_c, 14, 2160
1, 119486, Note_on_c, 14, 45, 56
1, 119490, Pitch_bend_c, 13, 1848
1, 119498, Pitch_bend_c, 13, 3096
1, 119500, Pitch_bend_c, 14, 1952
1, 119501, Note_off_c, 12, 67, 74
1, 119505, Note_on_c, 12, 64, 46
1, 119506, Pitch_bend_c, 13, 2888
1, 119507, Pitch_bend_c, 13, 1640
1, 119514, Pitch_bend_c, 13, 2680
1, 119523, Note_off_c, 14, 47, 65
1, 119524, Pitch_bend_c, 13, 2472
1, 119525, Note_off_c, 12, 65, 55
1, 119525, Pitch_bend_c, 13, 1432
1, 119528, Note_on_c, 12, 62, 31
1, 119536, Pitch_bend_c, 13, 2264
1, 119537, Pitch_bend_c, 13, 1224
1, 119539, Note_off_c, 12, 64, 46
1, 119540, Note_on_c, 14, 43, 46
1, 119542, Pitch_bend_c, 13, 2056
1, 119546, Note_off_c, 2, 91, 82
1, 119546, Note_off_c, 2, 86, 82
1, 119546, Note_off_c, 2, 83, 82
1, 119548, Pitch_bend_c, 13, 1016
1, 119550, Note_on_c, 12, 60, 19
1, 119551, Note_off_c, 12, 62, 31
1, 119552, Note_off_c, 10, 79, 112
1, 119552, Note_off_c, 10, 74, 112
1, 119552, Note_off_c, 10, 71, 112
1, 119552, Pitch_bend_c, 13, 1848
1, 119552, Note_on_c, 10, 69, 116
1, 119552, Note_on_c, 10, 73, 116
1, 119552, Note_on_c, 10, 78, 116
1, 119552, Note_on_c, 2, 81, 86
1, 119552, Note_on_c, 2, 85, 86
1, 119552, Note_on_c, 2, 90, 86
1, 119558, Pitch_bend_c, 13, 808
1, 119562, Pitch_bend_c, 13, 1640
1, 119563, Pitch_bend_c, 14, 1744
1, 119568, Pitch_bend_c, 13, 600
1, 119570, Pitch_bend_c, 13, 1432
1, 119574, Note_off_c, 14, 45, 56
1, 119576, Note_off_c, 12, 60, 19
1, 119579, Pitch_bend_c, 13, 1224
1, 119580, Pitch_bend_c, 13, 392
1, 119584, Pitch_bend_c, 13, 1016
1, 119587, Pitch_bend_c, 14, 1536
1, 119590, Pitch_bend_c, 13, 184
1, 119591, Pitch_bend_c, 13, 808
1, 119597, Note_on_c, 14, 41, 33
1, 119598, Pitch_bend_c, 13, 600
1, 119599, Pitch_bend_c, 13, 0
1, 119601, Pitch_bend_c, 14, 1328
1, 119603, Pitch_bend_c, 13, 392
1, 119607, Pitch_bend_c, 13, 184
1, 119613, Note_off_c, 14, 43, 46
1, 119613, Pitch_bend_c, 14, 1120
1, 119613, Pitch_bend_c, 13, 0
1, 119616, Note_off_c, 13, 62, 124
1, 119616, Note_off_c, 13, 59, 127
1, 119616, Note_off_c, 14, 57, 105
1, 119623, Pitch_bend_c, 14, 912
1, 119636, Pitch_bend_c, 14, 704
1, 119637, Note_off_c, 14, 41, 33
1, 119644, Pitch_bend_c, 14, 496
1, 119654, Pitch_bend_c, 14, 288
1, 119656, Note_off_c, 15, 69, 124
1, 119663, Pitch_bend_c, 14, 80
1, 119668, Note_off_c, 1, 42, 116
1, 119674, Note_off_c, 2, 90, 86
1, 119674, Note_off_c, 2, 85, 86
1, 119674, Note_off_c, 2, 81, 86
1, 119680, Note_off_c, 10, 78, 116
1, 119680, Note_off_c, 10, 73, 116
1, 119680, Note_off_c, 10, 69, 116
1, 119680, Note_on_c, 15, 71, 124
1, 119680, Note_on_c, 10, 66, 112
1, 119680, Note_on_c, 10, 71, 112
1, 119680, Note_on_c, 10, 74, 112
1, 119680, Note_on_c, 2, 78, 82
1, 119680, Note_on_c, 2, 83, 82
1, 119680, Note_on_c, 2, 86, 82
1, 119680, Note_on_c, 1, 38, 104
1, 119680, Note_on_c, 9, 36, 91
1, 119680, Note_on_c, 9, 59, 81
1, 119684, Note_off_c, 9, 59, 81
1, 119684, Note_off_c, 9, 36, 91
1, 119770, Note_off_c, 2, 86, 82
1, 119770, Note_off_c, 2, 83, 82
1, 119796, Note_off_c, 1, 38, 104
1, 119802, Note_off_c, 2, 78, 82
1, 119808, Note_off_c, 10, 74, 112
1, 119808, Note_off_c, 10, 71, 112
1, 119808, Note_off_c, 10, 66, 112
1, 119808, Pitch_bend_c, 14, 8192
1, 119808, Pitch_bend_c, 13, 8192
1, 119808, Pitch_bend_c, 13, 8192
1, 119808, Note_on_c, 10, 71, 124
1, 119808, Note_on_c, 10, 74, 124
1, 119808, Note_on_c, 10, 79, 124
1, 119808, Note_on_c, 2, 76, 65
1, 119808, Note_on_c, 2, 83, 94
1, 119808, Note_on_c, 2, 86, 94
1, 119808, Note_on_c, 2, 91, 94
1, 119808, Note_on_c, 1, 40, 112
1, 119808, Note_on_c, 9, 44, 73
1, 119808, Note_on_c, 9, 59, 87
1, 119808, Note_on_c, 9, 36, 107
1, 119812, Note_off_c, 9, 36, 107
1, 119812, Note_off_c, 9, 59, 87
1, 119812, Note_off_c, 9, 44, 73
1, 119976, Note_off_c, 15, 71, 124
1, 120026, Note_off_c, 2, 91, 94
1, 120026, Note_off_c, 2, 86, 94
1, 120026, Note_off_c, 2, 83, 94
1, 120026, Note_off_c, 2, 76, 65
1, 120032, Note_off_c, 10, 79, 124
1, 120032, Note_off_c, 10, 74, 124
1, 120032, Note_off_c, 10, 71, 124
1, 120064, Note_on_c, 14, 52, 124
1, 120064, Note_on_c, 14, 57, 93
1, 120064, Note_on_c, 13, 59, 112
1, 120064, Note_on_c, 12, 74, 112
1, 120064, Note_on_c, 13, 62, 112
1, 120064, Note_on_c, 10, 69, 116
1, 120064, Note_on_c, 10, 73, 116
1, 120064, Note_on_c, 10, 78, 116
1, 120064, Note_on_c, 2, 81, 86
1, 120064, Note_on_c, 2, 85, 86
1, 120064, Note_on_c, 2, 90, 86
1, 120064, Note_on_c, 9, 38, 70
1, 120068, Note_off_c, 9, 38, 70
1, 120116, Note_off_c, 1, 40, 112
1, 120186, Note_off_c, 2, 90, 86
1, 120186, Note_off_c, 2, 85, 86
1, 120186, Note_off_c, 2, 81, 86
1, 120192, Note_off_c, 10, 78, 116
1, 120192, Note_off_c, 10, 73, 116
1, 120192, Note_off_c, 10, 69, 116
1, 120192, Note_on_c, 10, 66, 124
1, 120192, Note_on_c, 10, 71, 124
1, 120192, Note_on_c, 10, 74, 124
1, 120192, Note_on_c, 2, 78, 94
1, 120192, Note_on_c, 2, 79, 94
1, 120192, Note_on_c, 2, 83, 94
1, 120192, Note_on_c, 2, 86, 94
1, 120192, Note_on_c, 1, 42, 112
1, 120192, Note_on_c, 9, 44, 70
1, 120192, Note_on_c, 9, 38, 107
1, 120192, Note_on_c, 9, 59, 87
1, 120196, Note_off_c, 9, 59, 87
1, 120196, Note_off_c, 9, 38, 107
1, 120196, Note_off_c, 9, 44, 70
1, 120436, Note_off_c, 1, 42, 112
1, 120448, Note_off_c, 14, 52, 124
1, 120448, Note_on_c, 1, 43, 112
1, 120448, Note_on_c, 9, 36, 95
1, 120448, Note_on_c, 9, 59, 83
1, 120452, Note_off_c, 9, 59, 83
1, 120452, Note_off_c, 9, 36, 95
1, 120480, Note_off_c, 10, 74, 124
1, 120480, Note_off_c, 10, 71, 124
1, 120480, Note_off_c, 10, 66, 124
1, 120512, Note_off_c, 13, 62, 112
1, 120512, Note_off_c, 12, 74, 112
1, 120512, Note_off_c, 13, 59, 112
1, 120512, Note_off_c, 14, 57, 93
1, 120538, Note_off_c, 2, 86, 94
1, 120538, Note_off_c, 2, 83, 94
1, 120538, Note_off_c, 2, 79, 94
1, 120538, Note_off_c, 2, 78, 94
1, 120564, Note_off_c, 1, 43, 112
1, 120576, Note_on_c, 14, 52, 112
1, 120576, Pitch_bend_c, 15, 7360
1, 120576, Note_on_c, 15, 71, 124
1, 120576, Note_on_c, 14, 57, 93
1, 120576, Note_on_c, 13, 59, 115
1, 120576, Note_on_c, 12, 74, 112
1, 120576, Note_on_c, 13, 62, 124
1, 120576, Note_on_c, 10, 66, 124
1, 120576, Note_on_c, 10, 71, 124
1, 120576, Note_on_c, 10, 74, 124
1, 120576, Note_on_c, 2, 76, 65
1, 120576, Note_on_c, 2, 79, 65
1, 120576, Note_on_c, 2, 83, 65
1, 120576, Note_on_c, 2, 86, 94
1, 120576, Note_on_c, 1, 44, 112
1, 120576, Note_on_c, 9, 44, 69
1, 120576, Note_on_c, 9, 36, 113
1, 120576, Note_on_c, 9, 59, 87
1, 120580, Note_off_c, 9, 59, 87
1, 120580, Note_off_c, 9, 36, 113
1, 120580, Note_off_c, 9, 44, 69
1, 120586, Pitch_bend_c, 15, 7296
1, 120596, Pitch_bend_c, 15, 7424
1, 120606, Pitch_bend_c, 15, 7488
1, 120616, Pitch_bend_c, 15, 7552
1, 120626, Pitch_bend_c, 15, 7616
1, 120636, Pitch_bend_c, 15, 7680
1, 120646, Pitch_bend_c, 15, 7744
1, 120656, Pitch_bend_c, 15, 7808
1, 120666, Pitch_bend_c, 15, 7872
1, 120676, Pitch_bend_c, 15, 7936
1, 120686, Pitch_bend_c, 15, 8000
1, 120696, Pitch_bend_c, 15, 8064
1, 120704, Note_off_c, 10, 74, 124
1, 120704, Note_off_c, 10, 71, 124
1, 120704, Note_off_c, 10, 66, 124
1, 120704, Note_off_c, 14, 52, 112
1, 120706, Pitch_bend_c, 15, 8128
1, 120716, Pitch_bend_c, 15, 8192
1, 120768, Note_off_c, 13, 62, 124
1, 120768, Note_off_c, 12, 74, 112
1, 120768, Note_off_c, 13, 59, 115
1, 120768, Note_off_c, 14, 57, 93
1, 120808, Note_off_c, 15, 71, 124
1, 120832, Note_on_c, 14, 52, 121
1, 120832, Note_on_c, 15, 74, 112
1, 120832, Note_on_c, 14, 57, 93
1, 120832, Note_on_c, 13, 59, 112
1, 120832, Note_on_c, 12, 74, 112
1, 120832, Note_on_c, 13, 62, 124
1, 120832, Note_on_c, 10, 66, 124
1, 120832, Note_on_c, 10, 71, 124
1, 120832, Note_on_c, 10, 74, 124
1, 120832, Note_on_c, 9, 38, 119
1, 120836, Note_off_c, 9, 38, 119
1, 120884, Note_off_c, 1, 44, 112
1, 120918, Note_off_c, 13, 59, 112
1, 120918, Note_off_c, 14, 57, 93
1, 120918, Note_off_c, 14, 52, 121
1, 120920, Note_off_c, 10, 71, 124
1, 120920, Note_off_c, 10, 66, 124
1, 120936, Note_off_c, 15, 74, 112
1, 120954, Note_off_c, 2, 86, 94
1, 120960, Note_off_c, 10, 74, 124
1, 120960, Note_on_c, 14, 52, 124
1, 120960, Note_on_c, 15, 73, 124
1, 120960, Note_on_c, 14, 57, 105
1, 120960, Note_on_c, 13, 59, 112
1, 120960, Note_on_c, 12, 73, 100
1, 120960, Note_on_c, 13, 61, 116
1, 120960, Note_on_c, 10, 66, 127
1, 120960, Note_on_c, 10, 71, 127
1, 120960, Note_on_c, 10, 73, 127
1, 120960, Note_on_c, 2, 85, 97
1, 120960, Note_on_c, 1, 45, 112
1, 120960, Note_on_c, 9, 44, 69
1, 120960, Note_on_c, 9, 59, 87
1, 120963, Note_off_c, 12, 74, 112
1, 120964, Note_off_c, 9, 59, 87
1, 120964, Note_off_c, 9, 44, 69
1, 120964, Note_off_c, 13, 62, 124
1, 121076, Note_off_c, 1, 45, 112
1, 121088, Note_on_c, 1, 35, 112
1, 121088, Note_on_c, 9, 36, 83
1, 121092, Note_off_c, 9, 36, 83
1, 121204, Note_off_c, 1, 35, 112
1, 121216, Note_off_c, 14, 52, 124
1, 121216, Note_on_c, 1, 37, 112
1, 121216, Note_on_c, 9, 36, 101
1, 121216, Note_on_c, 9, 59, 89
1, 121220, Note_off_c, 9, 59, 89
1, 121220, Note_off_c, 9, 36, 101
1, 121280, Note_off_c, 13, 61, 116
1, 121280, Note_off_c, 12, 73, 100
1, 121280, Note_off_c, 13, 59, 112
1, 121280, Note_off_c, 14, 57, 105
1, 121332, Note_off_c, 1, 37, 112
1, 121338, Note_off_c, 2, 85, 97
1, 121338, Note_off_c, 2, 83, 65
1, 121338, Note_off_c, 2, 79, 65
1, 121338, Note_off_c, 2, 76, 65
1, 121344, Note_off_c, 10, 73, 127
1, 121344, Note_off_c, 10, 71, 127
1, 121344, Note_off_c, 10, 66, 127
1, 121344, Note_on_c, 14, 50, 112
1, 121344, Note_on_c, 14, 57, 105
1, 121344, Note_on_c, 13, 59, 112
1, 121344, Note_on_c, 13, 57, 112
1, 121344, Note_on_c, 2, 74, 65
1, 121344, Note_on_c, 2, 78, 65
1, 121344, Note_on_c, 2, 81, 65
1, 121344, Note_on_c, 1, 38, 112
1, 121344, Note_on_c, 9, 44, 69
1, 121344, Note_on_c, 9, 36, 115
1, 121344, Note_on_c, 9, 59, 87
1, 121348, Note_off_c, 9, 59, 87
1, 121348, Note_off_c, 9, 36, 115
1, 121348, Note_off_c, 9, 44, 69
1, 121472, Note_on_c, 12, 66, 116
1, 121519, Pitch_bend_c, 13, 8088
1, 121540, Pitch_bend_c, 14, 7984
1, 121545, Pitch_bend_c, 13, 7880
1, 121558, Pitch_bend_c, 14, 7776
1, 121561, Pitch_bend_c, 13, 7984
1, 121566, Pitch_bend_c, 13, 7672
1, 121572, Pitch_bend_c, 14, 7568
1, 121580, Pitch_bend_c, 13, 7464
1, 121583, Pitch_bend_c, 14, 7360
1, 121587, Pitch_bend_c, 13, 7776
1, 121591, Pitch_bend_c, 14, 7152
1, 121593, Pitch_bend_c, 13, 7256
1, 121598, Pitch_bend_c, 14, 6944
1, 121600, Note_off_c, 12, 66, 116
1, 121600, Note_on_c, 14, 48, 88
1, 121600, Note_on_c, 12, 67, 112
1, 121602, Pitch_bend_c, 13, 7048
1, 121606, Pitch_bend_c, 14, 6736
1, 121612, Pitch_bend_c, 13, 6840
1, 121616, Pitch_bend_c, 14, 6528
1, 121621, Pitch_bend_c, 13, 7568
1, 121621, Pitch_bend_c, 13, 6632
1, 121624, Pitch_bend_c, 14, 6320
1, 121628, Pitch_bend_c, 13, 6424
1, 121632, Note_off_c, 14, 50, 112
1, 121632, Pitch_bend_c, 14, 6112
1, 121633, Pitch_bend_c, 13, 7360
1, 121636, Pitch_bend_c, 13, 6216
1, 121637, Pitch_bend_c, 14, 5904
1, 121644, Pitch_bend_c, 14, 5696
1, 121645, Pitch_bend_c, 13, 7152
1, 121645, Pitch_bend_c, 13, 6008
1, 121646, Note_on_c, 14, 47, 79
1, 121650, Pitch_bend_c, 14, 5488
1, 121652, Note_off_c, 1, 38, 112
1, 121653, Pitch_bend_c, 13, 5800
1, 121655, Pitch_bend_c, 13, 6944
1, 121657, Pitch_bend_c, 14, 5280
1, 121661, Pitch_bend_c, 13, 5592
1, 121664, Pitch_bend_c, 13, 6736
1, 121665, Pitch_bend_c, 14, 5072
1, 121669, Pitch_bend_c, 13, 5384
1, 121672, Pitch_bend_c, 13, 6528
1, 121675, Note_off_c, 14, 48, 88
1, 121675, Pitch_bend_c, 14, 4864
1, 121675, Pitch_bend_c, 13, 5176
1, 121679, Pitch_bend_c, 13, 6320
1, 121682, Pitch_bend_c, 13, 4968
1, 121685, Pitch_bend_c, 14, 4656
1, 121687, Note_on_c, 14, 45, 79
1, 121688, Pitch_bend_c, 13, 6112
1, 121690, Pitch_bend_c, 13, 4760
1, 121694, Pitch_bend_c, 14, 4448
1, 121695, Pitch_bend_c, 13, 5904
1, 121701, Pitch_bend_c, 14, 4240
1, 121702, Pitch_bend_c, 13, 5696
1, 121702, Pitch_bend_c, 13, 4552
1, 121708, Pitch_bend_c, 14, 4032
1, 121711, Pitch_bend_c, 13, 5488
1, 121715, Pitch_bend_c, 14, 3824
1, 121717, Note_off_c, 14, 47, 79
1, 121717, Pitch_bend_c, 13, 4344
1, 121720, Pitch_bend_c, 13, 5280
1, 121722, Pitch_bend_c, 14, 3616
1, 121728, Note_off_c, 12, 67, 112
1, 121728, Note_on_c, 12, 69, 95
1, 121728, Note_on_c, 1, 38, 95
1, 121728, Note_on_c, 9, 44, 81
1, 121728, Note_on_c, 9, 38, 119
1, 121728, Note_on_c, 9, 59, 87
1, 121729, Pitch_bend_c, 14, 3408
1, 121730, Note_on_c, 14, 43, 71
1, 121731, Pitch_bend_c, 13, 5072
1, 121732, Note_off_c, 9, 59, 87
1, 121732, Note_off_c, 9, 38, 119
1, 121732, Note_off_c, 9, 44, 81
1, 121735, Pitch_bend_c, 13, 4136
1, 121737, Pitch_bend_c, 14, 3200
1, 121744, Pitch_bend_c, 14, 2992
1, 121747, Pitch_bend_c, 13, 4864
1, 121749, Pitch_bend_c, 13, 3928
1, 121752, Pitch_bend_c, 14, 2784
1, 121759, Pitch_bend_c, 14, 2576
1, 121760, Note_off_c, 14, 45, 79
1, 121760, Pitch_bend_c, 13, 3720
1, 121765, Pitch_bend_c, 13, 4656
1, 121767, Pitch_bend_c, 14, 2368
1, 121770, Pitch_bend_c, 13, 3512
1, 121774, Note_on_c, 14, 41, 60
1, 121777, Pitch_bend_c, 14, 2160
1, 121778, Pitch_bend_c, 13, 3304
1, 121784, Pitch_bend_c, 14, 1952
1, 121784, Pitch_bend_c, 13, 3096
1, 121786, Pitch_bend_c, 13, 4448
1, 121789, Pitch_bend_c, 13, 2888
1, 121792, Pitch_bend_c, 14, 1744
1, 121796, Pitch_bend_c, 13, 2680
1, 121800, Pitch_bend_c, 13, 4240
1, 121803, Pitch_bend_c, 14, 1536
1, 121803, Pitch_bend_c, 13, 2472
1, 121809, Pitch_bend_c, 13, 2264
1, 121810, Note_off_c, 14, 43, 71
1, 121814, Pitch_bend_c, 14, 1328
1, 121814, Pitch_bend_c, 13, 4032
1, 121814, Pitch_bend_c, 13, 2056
1, 121819, Pitch_bend_c, 13, 1848
1, 121823, Note_on_c, 14, 40, 52
1, 121825, Pitch_bend_c, 13, 1640
1, 121826, Pitch_bend_c, 13, 3824
1, 121829, Pitch_bend_c, 14, 1120
1, 121829, Pitch_bend_c, 13, 1432
1, 121834, Pitch_bend_c, 13, 1224
1, 121839, Pitch_bend_c, 13, 1016
1, 121840, Pitch_bend_c, 13, 3616
1, 121842, Pitch_bend_c, 13, 808
1, 121846, Pitch_bend_c, 13, 600
1, 121848, Pitch_bend_c, 14, 912
1, 121850, Pitch_bend_c, 13, 392
1, 121851, Note_off_c, 14, 41, 60
1, 121853, Pitch_bend_c, 13, 184
1, 121856, Note_off_c, 12, 69, 95
1, 121856, Note_off_c, 13, 57, 112
1, 121856, Note_off_c, 13, 59, 112
1, 121856, Pitch_bend_c, 13, 3408
1, 121856, Note_on_c, 12, 71, 112
1, 121857, Pitch_bend_c, 13, 0
1, 121863, Pitch_bend_c, 14, 704
1, 121870, Note_off_c, 14, 57, 105
1, 121871, Pitch_bend_c, 13, 3200
1, 121872, Pitch_bend_c, 14, 496
1, 121880, Pitch_bend_c, 14, 288
1, 121880, Pitch_bend_c, 13, 2992
1, 121881, Note_on_c, 14, 38, 39
1, 121883, Note_off_c, 14, 40, 52
1, 121888, Pitch_bend_c, 14, 80
1, 121889, Pitch_bend_c, 13, 2784
1, 121900, Pitch_bend_c, 13, 2576
1, 121902, Note_off_c, 14, 38, 39
1, 121908, Note_off_c, 1, 38, 95
1, 121910, Pitch_bend_c, 13, 2368
1, 121919, Pitch_bend_c, 13, 2160
1, 121927, Pitch_bend_c, 13, 1952
1, 121935, Pitch_bend_c, 13, 1744
1, 121942, Pitch_bend_c, 13, 1536
1, 121950, Pitch_bend_c, 13, 1328
1, 121956, Pitch_bend_c, 13, 1120
1, 121963, Pitch_bend_c, 13, 912
1, 121970, Pitch_bend_c, 13, 704
1, 121976, Pitch_bend_c, 13, 496
1, 121981, Pitch_bend_c, 13, 288
1, 121984, Note_off_c, 12, 71, 112
1, 121984, Note_on_c, 12, 67, 112
1, 121984, Note_on_c, 1, 38, 112
1, 121984, Note_on_c, 9, 59, 87
1, 121986, Pitch_bend_c, 13, 80
1, 121988, Note_off_c, 9, 59, 87
1, 121992, Pitch_bend_c, 13, 0
1, 122082, Note_off_c, 2, 81, 65
1, 122082, Note_off_c, 2, 78, 65
1, 122100, Note_off_c, 1, 38, 112
1, 122106, Note_off_c, 2, 74, 65
1, 122112, Note_off_c, 12, 67, 112
1, 122112, Pitch_bend_c, 14, 8192
1, 122112, Pitch_bend_c, 13, 8192
1, 122112, Note_on_c, 12, 69, 124
1, 122112, Pitch_bend_c, 13, 8192
1, 122112, Note_on_c, 2, 78, 65
1, 122112, Note_on_c, 2, 81, 65
1, 122112, Note_on_c, 2, 83, 82
1, 122112, Note_on_c, 2, 86, 82
1, 122112, Note_on_c, 1, 35, 95
1, 122112, Note_on_c, 9, 44, 85
1, 122112, Note_on_c, 9, 36, 101
1, 122112, Note_on_c, 9, 59, 87
1, 122116, Note_off_c, 9, 59, 87
1, 122116, Note_off_c, 9, 36, 101
1, 122116, Note_off_c, 9, 44, 85
1, 122216, Note_off_c, 15, 73, 124
1, 122240, Note_on_c, 15, 74, 112
1, 122304, Note_on_c, 10, 66, 112
1, 122304, Note_on_c, 10, 71, 112
1, 122304, Note_on_c, 10, 74, 112
1, 122344, Note_off_c, 15, 74, 112
1, 122368, Note_on_c, 15, 73, 112
1, 122432, Note_off_c, 10, 74, 112
1, 122432, Note_off_c, 10, 71, 112
1, 122432, Note_off_c, 10, 66, 112
1, 122452, Note_off_c, 1, 35, 95
1, 122458, Note_off_c, 2, 86, 82
1, 122458, Note_off_c, 2, 83, 82
1, 122458, Note_off_c, 2, 81, 65
1, 122458, Note_off_c, 2, 78, 65
1, 122496, Note_on_c, 10, 71, 112
1, 122496, Note_on_c, 10, 74, 112
1, 122496, Note_on_c, 10, 79, 112
1, 122496, Note_on_c, 2, 83, 82
1, 122496, Note_on_c, 2, 86, 82
1, 122496, Note_on_c, 2, 91, 82
1, 122496, Note_on_c, 1, 33, 95
1, 122496, Note_on_c, 9, 44, 81
1, 122496, Note_on_c, 9, 38, 125
1, 122496, Note_on_c, 9, 59, 87
1, 122500, Note_off_c, 9, 59, 87
1, 122500, Note_off_c, 9, 38, 125
1, 122500, Note_off_c, 9, 44, 81
1, 122618, Note_off_c, 2, 91, 82
1, 122618, Note_off_c, 2, 86, 82
1, 122618, Note_off_c, 2, 83, 82
1, 122624, Note_off_c, 10, 79, 112
1, 122624, Note_off_c, 10, 74, 112
1, 122624, Note_off_c, 10, 71, 112
1, 122624, Note_on_c, 10, 69, 116
1, 122624, Note_on_c, 10, 73, 116
1, 122624, Note_on_c, 10, 78, 116
1, 122624, Note_on_c, 2, 81, 86
1, 122624, Note_on_c, 2, 85, 86
1, 122624, Note_on_c, 2, 90, 86
1, 122746, Note_off_c, 2, 90, 86
1, 122746, Note_off_c, 2, 85, 86
1, 122746, Note_off_c, 2, 81, 86
1, 122752, Note_off_c, 10, 78, 116
1, 122752, Note_off_c, 10, 73, 116
1, 122752, Note_off_c, 10, 69, 116
1, 122752, Note_off_c, 12, 69, 124
1, 122752, Note_on_c, 10, 66, 112
1, 122752, Note_on_c, 10, 71, 112
1, 122752, Note_on_c, 10, 74, 112
1, 122752, Note_on_c, 2, 78, 82
1, 122752, Note_on_c, 2, 83, 82
1, 122752, Note_on_c, 2, 86, 82
1, 122752, Note_on_c, 9, 59, 87
1, 122756, Note_off_c, 9, 59, 87
1, 122836, Note_off_c, 1, 33, 95
1, 122842, Note_off_c, 2, 86, 82
1, 122842, Note_off_c, 2, 83, 82
1, 122856, Note_off_c, 15, 73, 112
1, 122874, Note_off_c, 2, 78, 82
1, 122880, Note_off_c, 10, 74, 112
1, 122880, Note_off_c, 10, 66, 112
1, 122880, Note_on_c, 15, 69, 112
1, 122880, Note_on_c, 10, 71, 124
1, 122880, Note_on_c, 10, 74, 124
1, 122880, Note_on_c, 10, 79, 124
1, 122880, Note_on_c, 2, 83, 94
1, 122880, Note_on_c, 2, 86, 94
1, 122880, Note_on_c, 2, 91, 94
1, 122880, Note_on_c, 1, 35, 95
1, 122880, Note_on_c, 9, 44, 70
1, 122880, Note_on_c, 9, 59, 83
1, 122880, Note_on_c, 9, 36, 97
1, 122884, Note_off_c, 9, 36, 97
1, 122884, Note_off_c, 9, 59, 83
1, 122884, Note_off_c, 9, 44, 70
1, 123098, Note_off_c, 2, 91, 94
1, 123098, Note_off_c, 2, 86, 94
1, 123098, Note_off_c, 2, 83, 94
1, 123104, Note_off_c, 10, 79, 124
1, 123104, Note_off_c, 10, 74, 124
1, 123104, Note_off_c, 10, 71, 124
1, 123112, Note_off_c, 15, 69, 112
1, 123136, Note_on_c, 12, 62, 124
1, 123136, Note_on_c, 10, 69, 116
1, 123136, Note_on_c, 10, 73, 116
1, 123136, Note_on_c, 10, 78, 116
1, 123136, Note_on_c, 2, 81, 86
1, 123136, Note_on_c, 2, 85, 86
1, 123136, Note_on_c, 2, 90, 86
1, 123188, Note_off_c, 1, 35, 95
1, 123226, Note_off_c, 2, 81, 86
1, 123258, Note_off_c, 2, 90, 86
1, 123258, Note_off_c, 2, 85, 86
1, 123264, Note_off_c, 10, 78, 116
1, 123264, Note_off_c, 10, 73, 116
1, 123264, Note_off_c, 10, 69, 116
1, 123264, Note_off_c, 12, 62, 124
1, 123264, Note_on_c, 12, 69, 127
1, 123264, Note_on_c, 10, 66, 124
1, 123264, Note_on_c, 10, 71, 124
1, 123264, Note_on_c, 10, 74, 124
1, 123264, Note_on_c, 2, 78, 94
1, 123264, Note_on_c, 2, 81, 94
1, 123264, Note_on_c, 2, 83, 94
1, 123264, Note_on_c, 2, 86, 94
1, 123264, Note_on_c, 1, 37, 95
1, 123264, Note_on_c, 9, 44, 79
1, 123264, Note_on_c, 9, 38, 119
1, 123264, Note_on_c, 9, 59, 83
1, 123268, Note_off_c, 9, 59, 83
1, 123268, Note_off_c, 9, 38, 119
1, 123268, Note_off_c, 9, 44, 79
1, 123392, Note_off_c, 12, 69, 127
1, 123482, Note_off_c, 2, 86, 94
1, 123482, Note_off_c, 2, 83, 94
1, 123482, Note_off_c, 2, 81, 94
1, 123482, Note_off_c, 2, 78, 94
1, 123488, Note_off_c, 10, 74, 124
1, 123488, Note_off_c, 10, 66, 124
1, 123488, Note_off_c, 10, 71, 124
1, 123520, Note_on_c, 15, 71, 112
1, 123520, Note_on_c, 12, 62, 112
1, 123520, Note_on_c, 10, 66, 124
1, 123520, Note_on_c, 10, 71, 124
1, 123520, Note_on_c, 10, 74, 124
1, 123520, Note_on_c, 2, 78, 94
1, 123520, Note_on_c, 2, 81, 94
1, 123520, Note_on_c, 2, 83, 94
1, 123520, Note_on_c, 2, 86, 94
1, 123520, Note_on_c, 9, 36, 91
1, 123520, Note_on_c, 9, 59, 83
1, 123524, Note_off_c, 9, 59, 83
1, 123524, Note_off_c, 9, 36, 91
1, 123609, Note_off_c, 15, 71, 112
1, 123636, Note_off_c, 1, 37, 95
1, 123648, Note_off_c, 12, 62, 112
1, 123648, Note_on_c, 15, 71, 95
1, 123648, Note_on_c, 12, 69, 112
1, 123648, Note_on_c, 1, 38, 95
1, 123648, Note_on_c, 9, 44, 79
1, 123648, Note_on_c, 9, 36, 105
1, 123648, Note_on_c, 9, 59, 75
1, 123652, Note_off_c, 9, 59, 75
1, 123652, Note_off_c, 9, 36, 105
1, 123652, Note_off_c, 9, 44, 79
1, 123776, Note_on_c, 14, 53, 112
1, 123776, Note_on_c, 14, 57, 93
1, 123776, Note_on_c, 13, 59, 124
1, 123776, Note_on_c, 13, 62, 112
1, 123862, Note_off_c, 13, 62, 112
1, 123862, Note_off_c, 13, 59, 124
1, 123862, Note_off_c, 14, 57, 93
1, 123862, Note_off_c, 14, 53, 112
1, 123904, Note_on_c, 14, 53, 112
1, 123904, Note_on_c, 14, 57, 105
1, 123904, Note_on_c, 13, 59, 112
1, 123904, Note_on_c, 13, 62, 112
1, 123904, Note_on_c, 9, 38, 95
1, 123908, Note_off_c, 9, 38, 95
1, 123944, Note_off_c, 15, 71, 95
1, 123962, Note_off_c, 2, 86, 94
1, 123962, Note_off_c, 2, 83, 94
1, 123962, Note_off_c, 2, 81, 94
1, 123962, Note_off_c, 2, 78, 94
1, 123968, Note_off_c, 10, 74, 124
1, 123968, Note_off_c, 10, 66, 124
1, 123968, Note_off_c, 10, 71, 124
1, 123988, Note_off_c, 1, 38, 95
1, 123990, Note_off_c, 13, 62, 112
1, 123990, Note_off_c, 13, 59, 112
1, 123990, Note_off_c, 14, 57, 105
1, 123990, Note_off_c, 14, 53, 112
1, 124032, Note_on_c, 14, 53, 124
1, 124032, Pitch_bend_c, 15, 7360
1, 124032, Note_on_c, 15, 71, 124
1, 124032, Note_on_c, 14, 57, 105
1, 124032, Note_on_c, 13, 59, 112
1, 124032, Note_on_c, 13, 62, 112
1, 124032, Note_on_c, 10, 66, 127
1, 124032, Note_on_c, 10, 71, 127
1, 124032, Note_on_c, 10, 74, 127
1, 124032, Note_on_c, 2, 78, 97
1, 124032, Note_on_c, 2, 81, 97
1, 124032, Note_on_c, 2, 83, 97
1, 124032, Note_on_c, 2, 86, 97
1, 124032, Note_on_c, 1, 35, 95
1, 124032, Note_on_c, 9, 44, 83
1, 124032, Note_on_c, 9, 38, 123
1, 124032, Note_on_c, 9, 59, 79
1, 124036, Note_off_c, 9, 59, 79
1, 124036, Note_off_c, 9, 38, 123
1, 124036, Note_off_c, 9, 44, 83
1, 124042, Pitch_bend_c, 15, 7296
1, 124052, Pitch_bend_c, 15, 7424
1, 124062, Pitch_bend_c, 15, 7488
1, 124072, Pitch_bend_c, 15, 7552
1, 124082, Pitch_bend_c, 15, 7616
1, 124092, Pitch_bend_c, 15, 7680
1, 124102, Pitch_bend_c, 15, 7744
1, 124112, Pitch_bend_c, 15, 7808
1, 124118, Note_off_c, 13, 62, 112
1, 124118, Note_off_c, 13, 59, 112
1, 124118, Note_off_c, 14, 57, 105
1, 124118, Note_off_c, 14, 53, 124
1, 124122, Pitch_bend_c, 15, 7872
1, 124132, Pitch_bend_c, 15, 7936
1, 124142, Pitch_bend_c, 15, 8000
1, 124152, Pitch_bend_c, 15, 8064
1, 124160, Note_on_c, 14, 53, 124
1, 124160, Note_on_c, 14, 57, 93
1, 124160, Note_on_c, 13, 59, 112
1, 124160, Note_on_c, 13, 62, 104
1, 124162, Pitch_bend_c, 15, 8128
1, 124172, Pitch_bend_c, 15, 8192
1, 124246, Note_off_c, 13, 62, 104
1, 124246, Note_off_c, 13, 59, 112
1, 124246, Note_off_c, 14, 57, 93
1, 124246, Note_off_c, 14, 53, 124
1, 124288, Note_off_c, 12, 69, 112
1, 124288, Note_on_c, 14, 53, 112
1, 124288, Note_on_c, 14, 57, 93
1, 124288, Note_on_c, 13, 59, 112
1, 124288, Note_on_c, 13, 62, 125
1, 124288, Note_on_c, 9, 36, 70
1, 124288, Note_on_c, 9, 59, 79
1, 124292, Note_off_c, 9, 59, 79
1, 124292, Note_off_c, 9, 36, 70
1, 124374, Note_off_c, 13, 62, 125
1, 124374, Note_off_c, 13, 59, 112
1, 124374, Note_off_c, 14, 57, 93
1, 124374, Note_off_c, 14, 53, 112
1, 124378, Note_off_c, 2, 81, 97
1, 124378, Note_off_c, 2, 78, 97
1, 124392, Note_off_c, 15, 71, 124
1, 124404, Note_off_c, 1, 35, 95
1, 124410, Note_off_c, 2, 86, 97
1, 124410, Note_off_c, 2, 83, 97
1, 124416, Note_off_c, 10, 74, 127
1, 124416, Note_off_c, 10, 66, 127
1, 124416, Note_off_c, 10, 71, 127
1, 124416, Note_on_c, 14, 52, 119
1, 124416, Note_on_c, 15, 69, 124
1, 124416, Note_on_c, 14, 54, 97
1, 124416, Note_on_c, 13, 57, 112
1, 124416, Note_on_c, 13, 61, 127
1, 124416, Note_on_c, 2, 78, 86
1, 124416, Note_on_c, 2, 81, 86
1, 124416, Note_on_c, 2, 85, 86
1, 124416, Note_on_c, 1, 40, 95
1, 124416, Note_on_c, 9, 44, 81
1, 124416, Note_on_c, 9, 36, 101
1, 124416, Note_on_c, 9, 59, 87
1, 124420, Note_off_c, 9, 59, 87
1, 124420, Note_off_c, 9, 36, 101
1, 124420, Note_off_c, 9, 44, 81
1, 124530, Pitch_bend_c, 13, 8088
1, 124548, Pitch_bend_c, 13, 7880
1, 124563, Pitch_bend_c, 13, 8088
1, 124567, Pitch_bend_c, 13, 7672
1, 124578, Pitch_bend_c, 13, 7880
1, 124580, Pitch_bend_c, 13, 7464
1, 124587, Pitch_bend_c, 13, 7256
1, 124596, Pitch_bend_c, 13, 7672
1, 124597, Pitch_bend_c, 13, 7048
1, 124606, Pitch_bend_c, 14, 7984
1, 124610, Pitch_bend_c, 13, 6840
1, 124622, Pitch_bend_c, 14, 7776
1, 124625, Pitch_bend_c, 13, 7464
1, 124626, Pitch_bend_c, 13, 6632
1, 124642, Pitch_bend_c, 14, 7568
1, 124643, Pitch_bend_c, 13, 7256
1, 124647, Pitch_bend_c, 13, 6424
1, 124653, Pitch_bend_c, 13, 7048
1, 124655, Pitch_bend_c, 14, 7360
1, 124658, Pitch_bend_c, 13, 6216
1, 124664, Pitch_bend_c, 13, 6840
1, 124672, Note_on_c, 14, 50, 102
1, 124672, Note_on_c, 12, 57, 112
1, 124675, Pitch_bend_c, 13, 6008
1, 124676, Pitch_bend_c, 13, 6632
1, 124684, Pitch_bend_c, 14, 7152
1, 124688, Note_off_c, 14, 52, 119
1, 124688, Pitch_bend_c, 13, 5800
1, 124694, Pitch_bend_c, 13, 6424
1, 124699, Pitch_bend_c, 14, 6944
1, 124699, Pitch_bend_c, 13, 5592
1, 124704, Note_on_c, 14, 48, 85
1, 124708, Pitch_bend_c, 13, 5384
1, 124708, Pitch_bend_c, 13, 6216
1, 124712, Pitch_bend_c, 13, 5176
1, 124713, Pitch_bend_c, 14, 6736
1, 124720, Pitch_bend_c, 13, 4968
1, 124721, Pitch_bend_c, 13, 6008
1, 124724, Note_off_c, 14, 50, 102
1, 124726, Pitch_bend_c, 14, 6528
1, 124728, Note_on_c, 14, 47, 74
1, 124728, Pitch_bend_c, 13, 4760
1, 124733, Pitch_bend_c, 13, 5800
1, 124736, Pitch_bend_c, 13, 4552
1, 124738, Pitch_bend_c, 14, 6320
1, 124741, Pitch_bend_c, 13, 5592
1, 124745, Pitch_bend_c, 13, 4344
1, 124748, Pitch_bend_c, 14, 6112
1, 124751, Pitch_bend_c, 13, 5384
1, 124754, Pitch_bend_c, 13, 4136
1, 124755, Note_off_c, 14, 48, 85
1, 124756, Note_off_c, 1, 40, 95
1, 124756, Note_on_c, 14, 45, 59
1, 124759, Pitch_bend_c, 14, 5904
1, 124761, Pitch_bend_c, 13, 5176
1, 124764, Pitch_bend_c, 13, 3928
1, 124768, Pitch_bend_c, 14, 5696
1, 124773, Pitch_bend_c, 13, 4968
1, 124774, Pitch_bend_c, 13, 3720
1, 124776, Pitch_bend_c, 14, 5488
1, 124781, Note_off_c, 14, 47, 74
1, 124784, Pitch_bend_c, 14, 5280
1, 124787, Pitch_bend_c, 13, 4760
1, 124788, Note_on_c, 14, 43, 34
1, 124788, Pitch_bend_c, 13, 3512
1, 124792, Pitch_bend_c, 14, 5072
1, 124797, Pitch_bend_c, 13, 4552
1, 124799, Pitch_bend_c, 13, 3304
1, 124800, Note_off_c, 12, 57, 112
1, 124800, Note_on_c, 12, 61, 100
1, 124800, Note_on_c, 1, 42, 95
1, 124800, Note_on_c, 9, 44, 73
1, 124800, Note_on_c, 9, 38, 121
1, 124800, Note_on_c, 9, 59, 91
1, 124803, Pitch_bend_c, 14, 4864
1, 124804, Note_off_c, 9, 59, 91
1, 124804, Note_off_c, 9, 38, 121
1, 124804, Note_off_c, 9, 44, 73
1, 124805, Pitch_bend_c, 13, 4344
1, 124810, Pitch_bend_c, 14, 4656
1, 124810, Pitch_bend_c, 13, 3096
1, 124813, Pitch_bend_c, 13, 4136
1, 124817, Note_off_c, 14, 45, 59
1, 124817, Pitch_bend_c, 13, 2888
1, 124820, Pitch_bend_c, 14, 4448
1, 124823, Pitch_bend_c, 13, 2680
1, 124823, Pitch_bend_c, 13, 3928
1, 124825, Note_on_c, 14, 41, 23
1, 124826, Pitch_bend_c, 14, 4240
1, 124831, Pitch_bend_c, 13, 2472
1, 124833, Pitch_bend_c, 13, 3720
1, 124834, Pitch_bend_c, 14, 4032
1, 124838, Pitch_bend_c, 13, 2264
1, 124840, Pitch_bend_c, 14, 3824
1, 124844, Pitch_bend_c, 13, 2056
1, 124844, Pitch_bend_c, 13, 3512
1, 124847, Pitch_bend_c, 14, 3616
1, 124852, Note_off_c, 14, 43, 34
1, 124852, Pitch_bend_c, 13, 1848
1, 124854, Pitch_bend_c, 13, 3304
1, 124855, Pitch_bend_c, 14, 3408
1, 124860, Pitch_bend_c, 13, 3096
1, 124861, Pitch_bend_c, 13, 1640
1, 124865, Pitch_bend_c, 14, 3200
1, 124866, Pitch_bend_c, 13, 2888
1, 124868, Note_off_c, 14, 41, 23
1, 124871, Pitch_bend_c, 14, 2992
1, 124871, Pitch_bend_c, 13, 1432
1, 124872, Pitch_bend_c, 13, 2680
1, 124878, Pitch_bend_c, 13, 2472
1, 124879, Pitch_bend_c, 14, 2784
1, 124882, Pitch_bend_c, 13, 2264
1, 124884, Pitch_bend_c, 13, 1224
1, 124888, Pitch_bend_c, 13, 2056
1, 124889, Pitch_bend_c, 14, 2576
1, 124893, Pitch_bend_c, 13, 1848
1, 124899, Pitch_bend_c, 14, 2368
1, 124899, Pitch_bend_c, 13, 1640
1, 124900, Pitch_bend_c, 13, 1016
1, 124903, Pitch_bend_c, 13, 1432
1, 124907, Pitch_bend_c, 14, 2160
1, 124909, Pitch_bend_c, 13, 1224
1, 124913, Pitch_bend_c, 13, 1016
1, 124914, Pitch_bend_c, 13, 808
1, 124915, Pitch_bend_c, 14, 1952
1, 124919, Pitch_bend_c, 13, 808
1, 124922, Pitch_bend_c, 14, 1744
1, 124923, Pitch_bend_c, 13, 600
1, 124927, Pitch_bend_c, 13, 392
1, 124928, Note_off_c, 12, 61, 100
1, 124928, Note_off_c, 13, 61, 127
1, 124928, Note_off_c, 13, 57, 112
1, 124928, Note_off_c, 14, 54, 97
1, 124928, Note_on_c, 12, 64, 112
1, 124930, Pitch_bend_c, 14, 1536
1, 124930, Pitch_bend_c, 13, 600
1, 124932, Pitch_bend_c, 13, 184
1, 124936, Pitch_bend_c, 14, 1328
1, 124937, Pitch_bend_c, 13, 0
1, 124945, Pitch_bend_c, 14, 1120
1, 124946, Pitch_bend_c, 13, 392
1, 124952, Pitch_bend_c, 14, 912
1, 124957, Pitch_bend_c, 13, 184
1, 124962, Pitch_bend_c, 14, 704
1, 124967, Pitch_bend_c, 13, 0
1, 124970, Pitch_bend_c, 14, 496
1, 124980, Pitch_bend_c, 14, 288
1, 124994, Pitch_bend_c, 14, 80
1, 125056, Note_off_c, 12, 64, 112
1, 125056, Note_on_c, 12, 66, 116
1, 125056, Note_on_c, 9, 59, 91
1, 125060, Note_off_c, 9, 59, 91
1, 125108, Note_off_c, 1, 42, 95
1, 125160, Note_off_c, 15, 69, 124
1, 125184, Note_off_c, 12, 66, 116
1, 125184, Note_on_c, 15, 61, 116
1, 125184, Pitch_bend_c, 14, 8192
1, 125184, Pitch_bend_c, 13, 8192
1, 125184, Note_on_c, 12, 64, 112
1, 125184, Pitch_bend_c, 13, 8192
1, 125184, Note_on_c, 1, 44, 100
1, 125184, Note_on_c, 9, 44, 73
1, 125184, Note_on_c, 9, 36, 93
1, 125184, Note_on_c, 9, 59, 83
1, 125188, Note_off_c, 9, 59, 83
1, 125188, Note_off_c, 9, 36, 93
1, 125188, Note_off_c, 9, 44, 73
1, 125242, Note_off_c, 2, 85, 86
1, 125242, Note_off_c, 2, 81, 86
1, 125242, Note_off_c, 2, 78, 86
1, 125312, Note_on_c, 10, 64, 124
1, 125312, Note_on_c, 10, 68, 124
1, 125312, Note_on_c, 10, 71, 124
1, 125312, Note_on_c, 2, 76, 94
1, 125312, Note_on_c, 2, 80, 94
1, 125312, Note_on_c, 2, 83, 94
1, 125434, Note_off_c, 2, 83, 94
1, 125434, Note_off_c, 2, 80, 94
1, 125434, Note_off_c, 2, 76, 94
1, 125440, Note_off_c, 10, 68, 124
1, 125440, Note_off_c, 10, 64, 124
1, 125440, Note_off_c, 10, 71, 124
1, 125440, Note_on_c, 10, 66, 124
1, 125440, Note_on_c, 10, 69, 124
1, 125440, Note_on_c, 10, 73, 100
1, 125440, Note_on_c, 2, 78, 94
1, 125440, Note_on_c, 2, 81, 94
1, 125440, Note_on_c, 2, 85, 70
1, 125440, Note_on_c, 9, 38, 97
1, 125444, Note_off_c, 9, 38, 97
1, 125492, Note_off_c, 1, 44, 100
1, 125562, Note_off_c, 2, 85, 70
1, 125562, Note_off_c, 2, 81, 94
1, 125562, Note_off_c, 2, 78, 94
1, 125568, Note_off_c, 10, 73, 100
1, 125568, Note_off_c, 10, 69, 124
1, 125568, Note_off_c, 10, 66, 124
1, 125568, Note_on_c, 10, 68, 124
1, 125568, Note_on_c, 10, 71, 124
1, 125568, Note_on_c, 10, 74, 95
1, 125568, Note_on_c, 2, 80, 94
1, 125568, Note_on_c, 2, 83, 94
1, 125568, Note_on_c, 2, 86, 65
1, 125568, Note_on_c, 1, 40, 121
1, 125568, Note_on_c, 9, 44, 77
1, 125568, Note_on_c, 9, 38, 115
1, 125568, Note_on_c, 9, 59, 93
1, 125572, Note_off_c, 9, 59, 93
1, 125572, Note_off_c, 9, 38, 115
1, 125572, Note_off_c, 9, 44, 77
1, 125690, Note_off_c, 2, 86, 65
1, 125690, Note_off_c, 2, 83, 94
1, 125690, Note_off_c, 2, 80, 94
1, 125696, Note_off_c, 10, 74, 95
1, 125696, Note_off_c, 10, 68, 124
1, 125696, Note_off_c, 10, 71, 124
1, 125696, Note_on_c, 10, 69, 124
1, 125696, Note_on_c, 10, 73, 124
1, 125696, Note_on_c, 10, 76, 112
1, 125696, Note_on_c, 2, 81, 94
1, 125696, Note_on_c, 2, 85, 94
1, 125696, Note_on_c, 2, 88, 82
1, 125696, Note_on_c, 9, 38, 75
1, 125700, Note_off_c, 9, 38, 75
1, 125763, Note_off_c, 12, 64, 112
1, 125818, Note_off_c, 2, 88, 82
1, 125818, Note_off_c, 2, 85, 94
1, 125818, Note_off_c, 2, 81, 94
1, 125824, Note_off_c, 10, 76, 112
1, 125824, Note_off_c, 10, 73, 124
1, 125824, Note_off_c, 10, 69, 124
1, 125824, Note_on_c, 10, 71, 124
1, 125824, Note_on_c, 10, 74, 124
1, 125824, Note_on_c, 10, 78, 116
1, 125824, Note_on_c, 2, 83, 94
1, 125824, Note_on_c, 2, 86, 94
1, 125824, Note_on_c, 2, 90, 86
1, 125824, Note_on_c, 9, 38, 97
1, 125824, Note_on_c, 9, 59, 91
1, 125828, Note_off_c, 9, 59, 91
1, 125828, Note_off_c, 9, 38, 97
1, 125914, Note_off_c, 2, 86, 94
1, 125928, Note_off_c, 15, 61, 116
1, 125940, Note_off_c, 1, 40, 121
1, 125946, Note_off_c, 2, 90, 86
1, 125946, Note_off_c, 2, 83, 94
1, 125952, Note_off_c, 10, 78, 116
1, 125952, Note_off_c, 10, 74, 124
1, 125952, Note_off_c, 10, 71, 124
1, 125952, Tempo, 263100
1, 125952, Note_on_c, 14, 47, 127
1, 125952, Note_on_c, 14, 53, 108
1, 125952, Note_on_c, 13, 56, 127
1, 125952, Note_on_c, 13, 62, 127
1, 125952, Note_on_c, 10, 74, 127
1, 125952, Note_on_c, 10, 77, 127
1, 125952, Note_on_c, 10, 80, 127
1, 125952, Note_on_c, 2, 86, 97
1, 125952, Note_on_c, 2, 89, 97
1, 125952, Note_on_c, 2, 92, 97
1, 125952, Note_on_c, 1, 37, 127
1, 125952, Note_on_c, 9, 44, 81
1, 125952, Note_on_c, 9, 38, 127
1, 125952, Note_on_c, 9, 59, 93
1, 125952, Note_on_c, 9, 36, 109
1, 125956, Note_off_c, 9, 36, 109
1, 125956, Note_off_c, 9, 59, 93
1, 125956, Note_off_c, 9, 38, 127
1, 125956, Note_off_c, 9, 44, 81
1, 126068, Note_off_c, 1, 37, 127
1, 126202, Note_off_c, 2, 89, 97
1, 126202, Note_off_c, 2, 86, 97
1, 126208, Note_off_c, 10, 77, 127
1, 126208, Note_off_c, 10, 74, 127
1, 126208, Note_off_c, 14, 47, 127
1, 126214, Note_off_c, 13, 62, 127
1, 126214, Note_off_c, 13, 56, 127
1, 126214, Note_off_c, 14, 53, 108
1, 126330, Note_off_c, 2, 92, 97
1, 126336, Note_off_c, 10, 80, 127
1, 126336, Note_on_c, 15, 67, 112
1, 126440, Note_off_c, 15, 67, 112
1, 126720, Note_on_c, 15, 67, 112
1, 127080, Note_off_c, 15, 67, 112
1, 127104, Note_on_c, 15, 66, 83
1, 127464, Note_off_c, 15, 66, 83
1, 127488, Note_on_c, 14, 53, 127
1, 127488, Note_on_c, 15, 65, 112
1, 127488, Note_on_c, 14, 50, 58
1, 127488, Note_on_c, 13, 53, 77
1, 127488, Note_on_c, 13, 59, 77
1, 127488, Note_on_c, 6, 89, 112
1, 127488, Note_on_c, 1, 41, 112
1, 127488, Note_on_c, 9, 38, 65
1, 127492, Note_off_c, 9, 38, 65
1, 127574, Note_off_c, 13, 59, 77
1, 127574, Note_off_c, 13, 53, 77
1, 127574, Note_off_c, 14, 50, 58
1, 127592, Note_off_c, 15, 65, 112
1, 127604, Note_off_c, 1, 41, 112
1, 127604, Note_off_c, 6, 89, 112
1, 127616, Note_off_c, 14, 53, 127
1, 128128, Note_on_c, 15, 65, 112
1, 128744, Note_off_c, 15, 65, 112
1, 128896, Note_on_c, 15, 65, 112
1, 129000, Note_off_c, 15, 65, 112
1, 129024, Note_on_c, 14, 50, 112
1, 129024, Note_on_c, 15, 67, 112
1, 129024, Note_on_c, 14, 47, 58
1, 129024, Note_on_c, 13, 50, 77
1, 129024, Note_on_c, 13, 53, 77
1, 129024, Note_on_c, 6, 83, 112
1, 129024, Note_on_c, 1, 38, 112
1, 129024, Note_on_c, 9, 38, 65
1, 129028, Note_off_c, 9, 38, 65
1, 129110, Note_off_c, 13, 53, 77
1, 129110, Note_off_c, 13, 50, 77
1, 129110, Note_off_c, 14, 47, 58
1, 129140, Note_off_c, 1, 38, 112
1, 129140, Note_off_c, 6, 83, 112
1, 129192, Note_off_c, 15, 67, 112
1, 129216, Note_off_c, 14, 50, 112
1, 129280, Note_on_c, 15, 65, 95
1, 129384, Note_off_c, 15, 65, 95
1, 129408, Note_on_c, 15, 67, 112
1, 129576, Note_off_c, 15, 67, 112
1, 129664, Note_on_c, 15, 65, 112
1, 129768, Note_off_c, 15, 65, 112
1, 129792, Pitch_bend_c, 15, 7360
1, 129792, Note_on_c, 15, 67, 112
1, 129802, Pitch_bend_c, 15, 7296
1, 129812, Pitch_bend_c, 15, 7424
1, 129822, Pitch_bend_c, 15, 7488
1, 129832, Pitch_bend_c, 15, 7552
1, 129842, Pitch_bend_c, 15, 7616
1, 129852, Pitch_bend_c, 15, 7680
1, 129862, Pitch_bend_c, 15, 7744
1, 129872, Pitch_bend_c, 15, 7808
1, 129882, Pitch_bend_c, 15, 7872
1, 129892, Pitch_bend_c, 15, 7936
1, 129902, Pitch_bend_c, 15, 8000
1, 129912, Pitch_bend_c, 15, 8064
1, 129922, Pitch_bend_c, 15, 8128
1, 129932, Pitch_bend_c, 15, 8192
1, 129960, Note_off_c, 15, 67, 112
1, 130048, Note_on_c, 15, 65, 124
1, 130216, Note_off_c, 15, 65, 124
1, 130560, Note_on_c, 14, 52, 124
1, 130560, Note_on_c, 15, 64, 112
1, 130560, Note_on_c, 14, 50, 58
1, 130560, Note_on_c, 13, 56, 77
1, 130560, Note_on_c, 13, 59, 77
1, 130560, Note_on_c, 6, 92, 112
1, 130560, Note_on_c, 1, 40, 124
1, 130560, Note_on_c, 9, 38, 65
1, 130564, Note_off_c, 9, 38, 65
1, 130646, Note_off_c, 13, 59, 77
1, 130646, Note_off_c, 13, 56, 77
1, 130646, Note_off_c, 14, 50, 58
1, 130664, Note_off_c, 15, 64, 112
1, 130676, Note_off_c, 1, 40, 124
1, 130676, Note_off_c, 6, 92, 112
1, 130752, Note_off_c, 14, 52, 124
1, 131200, Note_on_c, 15, 64, 112
1, 131816, Note_off_c, 15, 64, 112
1, 131968, Note_on_c, 15, 64, 112
1, 132072, Note_off_c, 15, 64, 112
1, 132096, Note_on_c, 14, 47, 95
1, 132096, Note_on_c, 15, 66, 112
1, 132096, Note_on_c, 14, 50, 58
1, 132096, Note_on_c, 13, 54, 77
1, 132096, Note_on_c, 13, 57, 77
1, 132096, Note_on_c, 6, 93, 124
1, 132096, Note_on_c, 1, 35, 95
1, 132096, Note_on_c, 9, 38, 65
1, 132100, Note_off_c, 9, 38, 65
1, 132182, Note_off_c, 13, 57, 77
1, 132182, Note_off_c, 13, 54, 77
1, 132182, Note_off_c, 14, 50, 58
1, 132212, Note_off_c, 1, 35, 95
1, 132212, Note_off_c, 6, 93, 124
1, 132264, Note_off_c, 15, 66, 112
1, 132288, Note_off_c, 14, 47, 95
1, 132352, Note_on_c, 15, 64, 95
1, 132456, Note_off_c, 15, 64, 95
1, 132480, Note_on_c, 15, 66, 112
1, 132648, Note_off_c, 15, 66, 112
1, 132736, Note_on_c, 15, 64, 112
1, 132840, Note_off_c, 15, 64, 112
1, 132864, Pitch_bend_c, 15, 7360
1, 132864, Note_on_c, 15, 66, 112
1, 132874, Pitch_bend_c, 15, 7296
1, 132884, Pitch_bend_c, 15, 7424
1, 132894, Pitch_bend_c, 15, 7488
1, 132904, Pitch_bend_c, 15, 7552
1, 132914, Pitch_bend_c, 15, 7616
1, 132924, Pitch_bend_c, 15, 7680
1, 132934, Pitch_bend_c, 15, 7744
1, 132944, Pitch_bend_c, 15, 7808
1, 132954, Pitch_bend_c, 15, 7872
1, 132964, Pitch_bend_c, 15, 7936
1, 132974, Pitch_bend_c, 15, 8000
1, 132984, Pitch_bend_c, 15, 8064
1, 132994, Pitch_bend_c, 15, 8128
1, 133004, Pitch_bend_c, 15, 8192
1, 133160, Note_off_c, 15, 66, 112
1, 133248, Note_on_c, 15, 65, 124
1, 133544, Note_off_c, 15, 65, 124
1, 133632, Note_on_c, 15, 64, 124
1, 133632, Note_on_c, 14, 45, 29
1, 133632, Note_on_c, 13, 49, 116
1, 133632, Note_on_c, 12, 52, 112
1, 133632, Note_on_c, 13, 52, 112
1, 133632, Note_on_c, 10, 69, 97
1, 133632, Note_on_c, 10, 73, 97
1, 133632, Note_on_c, 10, 76, 97
1, 133632, Note_on_c, 2, 93, 43
1, 133632, Note_on_c, 2, 97, 43
1, 133632, Note_on_c, 2, 100, 43
1, 133632, Note_on_c, 1, 40, 112
1, 133632, Note_on_c, 0, 45, 95
1, 133632, Note_on_c, 9, 38, 75
1, 133632, Note_on_c, 9, 36, 66
1, 133636, Note_off_c, 9, 36, 66
1, 133636, Note_off_c, 9, 38, 75
1, 133760, Note_off_c, 0, 45, 95
1, 133760, Note_off_c, 10, 76, 97
1, 133760, Note_off_c, 10, 73, 97
1, 133760, Note_off_c, 10, 69, 97
1, 134088, Note_off_c, 15, 64, 124
1, 134100, Note_off_c, 1, 40, 112
1, 134112, Note_off_c, 13, 52, 112
1, 134112, Note_off_c, 12, 52, 112
1, 134112, Note_off_c, 13, 49, 116
1, 134112, Note_off_c, 14, 45, 29
1, 134208, Note_on_c, 15, 64, 112
1, 134208, Note_on_c, 14, 45, 31
1, 134208, Note_on_c, 13, 49, 116
1, 134208, Note_on_c, 12, 53, 112
1, 134208, Note_on_c, 13, 53, 95
1, 134208, Note_on_c, 1, 41, 112
1, 134208, Note_on_c, 0, 45, 95
1, 134208, Note_on_c, 9, 38, 75
1, 134208, Note_on_c, 9, 36, 66
1, 134212, Note_off_c, 9, 36, 66
1, 134212, Note_off_c, 9, 38, 75
1, 134336, Note_off_c, 0, 45, 95
1, 134472, Note_off_c, 15, 64, 112
1, 134592, Note_on_c, 15, 64, 112
1, 134676, Note_off_c, 1, 41, 112
1, 134688, Note_off_c, 13, 53, 95
1, 134688, Note_off_c, 12, 53, 112
1, 134688, Note_off_c, 13, 49, 116
1, 134688, Note_off_c, 14, 45, 31
1, 134696, Note_off_c, 15, 64, 112
1, 134784, Note_on_c, 15, 64, 95
1, 134784, Note_on_c, 14, 45, 57
1, 134784, Note_on_c, 13, 49, 100
1, 134784, Note_on_c, 12, 54, 116
1, 134784, Note_on_c, 13, 54, 116
1, 134784, Note_on_c, 1, 42, 116
1, 134784, Note_on_c, 0, 45, 95
1, 134784, Note_on_c, 9, 36, 66
1, 134784, Note_on_c, 9, 38, 75
1, 134788, Note_off_c, 9, 38, 75
1, 134788, Note_off_c, 9, 36, 66
1, 134888, Note_off_c, 15, 64, 95
1, 134912, Note_off_c, 0, 45, 95
1, 134976, Note_on_c, 15, 64, 124
1, 135060, Note_off_c, 1, 42, 116
1, 135072, Note_off_c, 13, 54, 116
1, 135072, Note_off_c, 12, 54, 116
1, 135072, Note_off_c, 13, 49, 100
1, 135072, Note_off_c, 14, 45, 57
1, 135144, Note_off_c, 15, 64, 124
1, 135168, Note_on_c, 15, 69, 124
1, 135168, Note_on_c, 14, 45, 75
1, 135168, Note_on_c, 13, 49, 100
1, 135168, Note_on_c, 12, 52, 95
1, 135168, Note_on_c, 13, 52, 112
1, 135168, Note_on_c, 1, 40, 95
1, 135168, Note_on_c, 0, 45, 95
1, 135168, Note_on_c, 9, 38, 75
1, 135168, Note_on_c, 9, 36, 66
1, 135172, Note_off_c, 9, 36, 66
1, 135172, Note_off_c, 9, 38, 75
1, 135272, Note_off_c, 15, 69, 124
1, 135296, Note_off_c, 0, 45, 95
1, 135360, Note_on_c, 15, 69, 112
1, 135464, Note_off_c, 15, 69, 112
1, 135552, Note_on_c, 15, 69, 112
1, 135636, Note_off_c, 1, 40, 95
1, 135648, Note_off_c, 13, 52, 112
1, 135648, Note_off_c, 12, 52, 95
1, 135648, Note_off_c, 13, 49, 100
1, 135648, Note_off_c, 14, 45, 75
1, 135656, Note_off_c, 15, 69, 112
1, 135744, Note_on_c, 15, 69, 112
1, 135744, Note_on_c, 14, 45, 56
1, 135744, Note_on_c, 13, 49, 116
1, 135744, Note_on_c, 12, 53, 112
1, 135744, Note_on_c, 13, 53, 112
1, 135744, Note_on_c, 1, 41, 112
1, 135744, Note_on_c, 0, 45, 112
1, 135744, Note_on_c, 9, 38, 75
1, 135744, Note_on_c, 9, 36, 65
1, 135748, Note_off_c, 9, 36, 65
1, 135748, Note_off_c, 9, 38, 75
1, 135848, Note_off_c, 15, 69, 112
1, 135872, Note_off_c, 0, 45, 112
1, 135936, Note_on_c, 15, 73, 116
1, 136040, Note_off_c, 15, 73, 116
1, 136128, Note_on_c, 15, 73, 116
1, 136212, Note_off_c, 1, 41, 112
1, 136224, Note_off_c, 13, 53, 112
1, 136224, Note_off_c, 12, 53, 112
1, 136224, Note_off_c, 13, 49, 116
1, 136224, Note_off_c, 14, 45, 56
1, 136320, Note_on_c, 14, 45, 75
1, 136320, Note_on_c, 13, 49, 116
1, 136320, Note_on_c, 12, 54, 116
1, 136320, Note_on_c, 13, 54, 116
1, 136320, Note_on_c, 1, 42, 116
1, 136320, Note_on_c, 0, 45, 112
1, 136320, Note_on_c, 9, 36, 65
1, 136320, Note_on_c, 9, 38, 75
1, 136324, Note_off_c, 9, 38, 75
1, 136324, Note_off_c, 9, 36, 65
1, 136392, Note_off_c, 15, 73, 116
1, 136448, Note_off_c, 0, 45, 112
1, 136596, Note_off_c, 1, 42, 116
1, 136608, Note_off_c, 13, 54, 116
1, 136608, Note_off_c, 12, 54, 116
1, 136608, Note_off_c, 13, 49, 116
1, 136608, Note_off_c, 14, 45, 75
1, 136608, Note_off_c, 2, 100, 43
1, 136608, Note_off_c, 2, 97, 43
1, 136608, Note_off_c, 2, 93, 43
1, 136704, Note_on_c, 15, 65, 124
1, 136896, Note_on_c, 14, 46, 108
1, 136896, Note_on_c, 13, 50, 116
1, 136896, Note_on_c, 12, 53, 112
1, 136896, Note_on_c, 13, 53, 112
1, 136896, Note_on_c, 10, 70, 97
1, 136896, Note_on_c, 10, 74, 97
1, 136896, Note_on_c, 10, 77, 97
1, 136896, Note_on_c, 2, 94, 43
1, 136896, Note_on_c, 2, 98, 43
1, 136896, Note_on_c, 2, 101, 43
1, 136896, Note_on_c, 1, 41, 112
1, 136896, Note_on_c, 0, 46, 112
1, 136896, Note_on_c, 9, 38, 75
1, 136896, Note_on_c, 9, 36, 65
1, 136900, Note_off_c, 9, 36, 65
1, 136900, Note_off_c, 9, 38, 75
1, 137024, Note_off_c, 0, 46, 112
1, 137024, Note_off_c, 10, 77, 97
1, 137024, Note_off_c, 10, 74, 97
1, 137024, Note_off_c, 10, 70, 97
1, 137160, Note_off_c, 15, 65, 124
1, 137280, Note_on_c, 15, 65, 112
1, 137364, Note_off_c, 1, 41, 112
1, 137376, Note_off_c, 13, 53, 112
1, 137376, Note_off_c, 12, 53, 112
1, 137376, Note_off_c, 13, 50, 116
1, 137376, Note_off_c, 14, 46, 108
1, 137472, Note_on_c, 14, 46, 73
1, 137472, Note_on_c, 13, 50, 116
1, 137472, Note_on_c, 12, 54, 124
1, 137472, Note_on_c, 13, 54, 124
1, 137472, Note_on_c, 1, 42, 124
1, 137472, Note_on_c, 0, 46, 95
1, 137472, Note_on_c, 9, 38, 75
1, 137472, Note_on_c, 9, 36, 65
1, 137476, Note_off_c, 9, 36, 65
1, 137476, Note_off_c, 9, 38, 75
1, 137544, Note_off_c, 15, 65, 112
1, 137600, Note_off_c, 0, 46, 95
1, 137664, Note_on_c, 15, 65, 112
1, 137748, Note_off_c, 1, 42, 124
1, 137760, Note_off_c, 13, 54, 124
1, 137760, Note_off_c, 12, 54, 124
1, 137760, Note_off_c, 13, 50, 116
1, 137760, Note_off_c, 14, 46, 73
1, 137768, Note_off_c, 15, 65, 112
1, 137856, Note_on_c, 15, 65, 95
1, 137856, Note_on_c, 14, 46, 94
1, 137856, Note_on_c, 13, 50, 116
1, 137856, Note_on_c, 12, 55, 100
1, 137856, Note_on_c, 13, 55, 100
1, 137856, Note_on_c, 1, 43, 100
1, 137856, Note_on_c, 0, 46, 112
1, 137856, Note_on_c, 9, 36, 65
1, 137856, Note_on_c, 9, 38, 75
1, 137860, Note_off_c, 9, 38, 75
1, 137860, Note_off_c, 9, 36, 65
1, 137960, Note_off_c, 15, 65, 95
1, 137984, Note_off_c, 0, 46, 112
1, 138048, Note_on_c, 15, 65, 124
1, 138132, Note_off_c, 1, 43, 100
1, 138144, Note_off_c, 13, 55, 100
1, 138144, Note_off_c, 12, 55, 100
1, 138144, Note_off_c, 13, 50, 116
1, 138144, Note_off_c, 14, 46, 94
1, 138216, Note_off_c, 15, 65, 124
1, 138240, Note_on_c, 15, 70, 124
1, 138240, Note_on_c, 14, 46, 108
1, 138240, Note_on_c, 13, 50, 116
1, 138240, Note_on_c, 12, 56, 112
1, 138240, Note_on_c, 13, 56, 112
1, 138240, Note_on_c, 1, 44, 112
1, 138240, Note_on_c, 0, 46, 112
1, 138240, Note_on_c, 9, 38, 75
1, 138240, Note_on_c, 9, 36, 65
1, 138244, Note_off_c, 9, 36, 65
1, 138244, Note_off_c, 9, 38, 75
1, 138344, Note_off_c, 15, 70, 124
1, 138368, Note_off_c, 0, 46, 112
1, 138432, Note_on_c, 15, 70, 112
1, 138536, Note_off_c, 15, 70, 112
1, 138624, Note_on_c, 15, 70, 112
1, 138708, Note_off_c, 1, 44, 112
1, 138720, Note_off_c, 13, 56, 112
1, 138720, Note_off_c, 12, 56, 112
1, 138720, Note_off_c, 13, 50, 116
1, 138720, Note_off_c, 14, 46, 108
1, 138728, Note_off_c, 15, 70, 112
1, 138816, Note_on_c, 15, 70, 112
1, 138816, Note_on_c, 14, 46, 90
1, 138816, Note_on_c, 13, 50, 116
1, 138816, Note_on_c, 12, 55, 116
1, 138816, Note_on_c, 13, 55, 116
1, 138816, Note_on_c, 1, 43, 116
1, 138816, Note_on_c, 0, 46, 112
1, 138816, Note_on_c, 9, 38, 75
1, 138816, Note_on_c, 9, 36, 65
1, 138820, Note_off_c, 9, 36, 65
1, 138820, Note_off_c, 9, 38, 75
1, 138920, Note_off_c, 15, 70, 112
1, 138944, Note_off_c, 0, 46, 112
1, 139008, Note_on_c, 15, 74, 116
1, 139112, Note_off_c, 15, 74, 116
1, 139200, Note_on_c, 15, 74, 116
1, 139284, Note_off_c, 1, 43, 116
1, 139296, Note_off_c, 13, 55, 116
1, 139296, Note_off_c, 12, 55, 116
1, 139296, Note_off_c, 13, 50, 116
1, 139296, Note_off_c, 14, 46, 90
1, 139392, Note_on_c, 14, 46, 73
1, 139392, Note_on_c, 13, 50, 116
1, 139392, Note_on_c, 12, 54, 112
1, 139392, Note_on_c, 13, 54, 112
1, 139392, Note_on_c, 1, 42, 112
1, 139392, Note_on_c, 0, 46, 112
1, 139392, Note_on_c, 9, 36, 65
1, 139392, Note_on_c, 9, 38, 75
1, 139396, Note_off_c, 9, 38, 75
1, 139396, Note_off_c, 9, 36, 65
1, 139464, Note_off_c, 15, 74, 116
1, 139520, Note_off_c, 0, 46, 112
1, 139668, Note_off_c, 1, 42, 112
1, 139680, Note_off_c, 13, 54, 112
1, 139680, Note_off_c, 12, 54, 112
1, 139680, Note_off_c, 13, 50, 116
1, 139680, Note_off_c, 14, 46, 73
1, 139776, Note_off_c, 2, 101, 43
1, 139776, Note_off_c, 2, 98, 43
1, 139776, Note_off_c, 2, 94, 43
1, 139776, Note_on_c, 15, 69, 124
1, 140160, Note_on_c, 14, 45, 125
1, 140160, Note_on_c, 14, 57, 106
1, 140160, Note_on_c, 13, 61, 125
1, 140160, Note_on_c, 12, 69, 125
1, 140160, Note_on_c, 13, 64, 125
1, 140160, Note_on_c, 10, 73, 125
1, 140160, Note_on_c, 10, 76, 125
1, 140160, Note_on_c, 10, 81, 125
1, 140160, Note_on_c, 2, 45, 101
1, 140160, Note_on_c, 2, 69, 101
1, 140160, Note_on_c, 2, 73, 101
1, 140160, Note_on_c, 2, 76, 101
1, 140160, Note_on_c, 2, 81, 101
1, 140160, Note_on_c, 2, 85, 101
1, 140160, Note_on_c, 2, 88, 101
1, 140160, Note_on_c, 2, 93, 101
1, 140161, Note_on_c, 2, 57, 101
1, 140304, Note_off_c, 2, 93, 101
1, 140304, Note_off_c, 2, 88, 101
1, 140304, Note_off_c, 2, 85, 101
1, 140304, Note_off_c, 2, 81, 101
1, 140304, Note_off_c, 2, 76, 101
1, 140304, Note_off_c, 2, 73, 101
1, 140304, Note_off_c, 2, 69, 101
1, 140304, Note_off_c, 2, 45, 101
1, 140304, Note_off_c, 10, 81, 125
1, 140304, Note_off_c, 10, 76, 125
1, 140304, Note_off_c, 10, 73, 125
1, 140304, Note_off_c, 13, 64, 125
1, 140304, Note_off_c, 12, 69, 125
1, 140304, Note_off_c, 13, 61, 125
1, 140304, Note_off_c, 14, 57, 106
1, 140304, Note_off_c, 14, 45, 125
1, 140305, Note_off_c, 2, 57, 101
1, 140520, Note_off_c, 15, 69, 124
1, 140800, Note_on_c, 15, 64, 124
1, 140904, Note_off_c, 15, 64, 124
1, 140928, Note_on_c, 15, 69, 112
1, 141160, Note_off_c, 15, 69, 112
1, 141184, Note_on_c, 15, 64, 95
1, 141288, Note_off_c, 15, 64, 95
1, 141312, Tempo, 292639
1, 141312, Note_on_c, 15, 69, 112
1, 141504, Note_on_c, 14, 45, 125
1, 141504, Note_on_c, 14, 57, 106
1, 141504, Note_on_c, 13, 61, 125
1, 141504, Note_on_c, 12, 69, 125
1, 141504, Note_on_c, 13, 64, 125
1, 141504, Note_on_c, 10, 73, 125
1, 141504, Note_on_c, 10, 76, 125
1, 141504, Note_on_c, 10, 81, 125
1, 141504, Note_on_c, 2, 45, 101
1, 141504, Note_on_c, 2, 69, 101
1, 141504, Note_on_c, 2, 73, 101
1, 141504, Note_on_c, 2, 76, 101
1, 141504, Note_on_c, 2, 81, 101
1, 141504, Note_on_c, 2, 85, 101
1, 141504, Note_on_c, 2, 88, 101
1, 141504, Note_on_c, 2, 93, 101
1, 141505, Note_on_c, 2, 57, 101
1, 141648, Note_off_c, 2, 93, 101
1, 141648, Note_off_c, 2, 88, 101
1, 141648, Note_off_c, 2, 85, 101
1, 141648, Note_off_c, 2, 81, 101
1, 141648, Note_off_c, 2, 76, 101
1, 141648, Note_off_c, 2, 73, 101
1, 141648, Note_off_c, 2, 69, 101
1, 141648, Note_off_c, 2, 45, 101
1, 141648, Note_off_c, 10, 81, 125
1, 141648, Note_off_c, 10, 76, 125
1, 141648, Note_off_c, 10, 73, 125
1, 141648, Note_off_c, 13, 64, 125
1, 141648, Note_off_c, 12, 69, 125
1, 141648, Note_off_c, 13, 61, 125
1, 141648, Note_off_c, 14, 57, 106
1, 141648, Note_off_c, 14, 45, 125
1, 141649, Note_off_c, 2, 57, 101
1, 141696, Tempo, 315721
1, 141928, Note_off_c, 15, 69, 112
1, 142080, Tempo, 363581
1, 142080, Note_on_c, 15, 64, 112
1, 142440, Note_off_c, 15, 64, 112
1, 142464, Tempo, 612216
1, 142464, Note_on_c, 15, 69, 112
1, 142656, Note_on_c, 14, 54, 125
1, 142656, Note_on_c, 14, 57, 106
1, 142656, Note_on_c, 13, 59, 125
1, 142656, Note_on_c, 12, 69, 125
1, 142656, Note_on_c, 13, 64, 125
1, 142656, Note_on_c, 10, 69, 125
1, 142656, Note_on_c, 10, 71, 125
1, 142656, Note_on_c, 10, 76, 125
1, 142656, Note_on_c, 2, 54, 101
1, 142656, Note_on_c, 2, 66, 101
1, 142656, Note_on_c, 2, 69, 101
1, 142656, Note_on_c, 2, 71, 101
1, 142656, Note_on_c, 2, 76, 101
1, 142656, Note_on_c, 2, 81, 101
1, 142656, Note_on_c, 2, 83, 101
1, 142656, Note_on_c, 2, 88, 101
1, 142742, Note_off_c, 13, 64, 125
1, 142742, Note_off_c, 12, 69, 125
1, 142742, Note_off_c, 13, 59, 125
1, 142742, Note_off_c, 14, 57, 106
1, 142742, Note_off_c, 14, 54, 125
1, 142744, Note_off_c, 10, 76, 125
1, 142744, Note_off_c, 10, 69, 125
1, 142744, Note_off_c, 10, 71, 125
1, 142752, Note_off_c, 2, 88, 101
1, 142752, Note_off_c, 2, 83, 101
1, 142752, Note_off_c, 2, 81, 101
1, 142752, Note_off_c, 2, 76, 101
1, 142752, Note_off_c, 2, 71, 101
1, 142752, Note_off_c, 2, 69, 101
1, 142752, Note_off_c, 2, 66, 101
1, 142752, Note_off_c, 2, 54, 101
1, 142848, Tempo, 789470
1, 142848, Note_on_c, 14, 49, 125
1, 142848, Note_on_c, 14, 56, 106
1, 142848, Note_on_c, 13, 61, 125
1, 142848, Note_on_c, 12, 68, 125
1, 142848, Note_on_c, 13, 63, 125
1, 142848, Note_on_c, 10, 68, 125
1, 142848, Note_on_c, 10, 71, 125
1, 142848, Note_on_c, 10, 78, 125
1, 142848, Note_on_c, 3, 80, 118
1, 142848, Note_on_c, 3, 83, 118
1, 142848, Note_on_c, 3, 85, 118
1, 142848, Note_on_c, 3, 87, 118
1, 142848, Note_on_c, 3, 90, 118
1, 142848, Note_on_c, 2, 49, 101
1, 142848, Note_on_c, 2, 61, 101
1, 142848, Note_on_c, 2, 68, 101
1, 142848, Note_on_c, 2, 80, 101
1, 142848, Note_on_c, 2, 83, 101
1, 142848, Note_on_c, 2, 85, 101
1, 142848, Note_on_c, 2, 87, 101
1, 142848, Note_on_c, 2, 90, 101
1, 142848, Note_on_c, 0, 47, 112
1, 142892, Note_off_c, 0, 47, 112
1, 142903, Note_on_c, 0, 49, 100
1, 142912, Note_off_c, 2, 90, 101
1, 142912, Note_off_c, 2, 87, 101
1, 142912, Note_off_c, 2, 85, 101
1, 142912, Note_off_c, 2, 83, 101
1, 142912, Note_off_c, 2, 80, 101
1, 142920, Note_off_c, 15, 69, 112
1, 142948, Note_on_c, 0, 47, 95
1, 142958, Note_off_c, 0, 49, 100
1, 142989, Note_on_c, 0, 49, 100
1, 142992, Note_off_c, 10, 78, 125
1, 142992, Note_off_c, 10, 68, 125
1, 142992, Note_off_c, 10, 71, 125
1, 142993, Note_off_c, 0, 47, 95
1, 143035, Note_on_c, 0, 47, 80
1, 143040, Note_off_c, 0, 49, 100
1, 143077, Note_off_c, 0, 47, 80
1, 143078, Note_on_c, 0, 49, 100
1, 143119, Note_on_c, 0, 47, 80
1, 143121, Note_off_c, 0, 49, 100
1, 143163, Note_on_c, 0, 49, 100
1, 143170, Note_off_c, 0, 47, 80
1, 143208, Note_on_c, 0, 47, 68
1, 143211, Note_off_c, 0, 49, 100
1, 143232, Note_on_c, 15, 66, 112
1, 143247, Note_on_c, 0, 49, 100
1, 143253, Note_off_c, 0, 47, 68
1, 143292, Note_on_c, 0, 47, 68
1, 143296, Note_off_c, 0, 49, 100
1, 143330, Note_on_c, 0, 49, 100
1, 143335, Note_off_c, 0, 47, 68
1, 143377, Note_on_c, 0, 47, 80
1, 143379, Note_off_c, 0, 49, 100
1, 143419, Note_on_c, 0, 49, 100
1, 143423, Note_off_c, 0, 47, 80
1, 143467, Note_on_c, 0, 47, 95
1, 143468, Note_off_c, 0, 49, 100
1, 143507, Note_on_c, 0, 49, 100
1, 143510, Note_off_c, 0, 47, 95
1, 143552, Note_on_c, 0, 47, 95
1, 143554, Note_off_c, 0, 49, 100
1, 143568, Note_off_c, 13, 63, 125
1, 143568, Note_off_c, 12, 68, 125
1, 143568, Note_off_c, 13, 61, 125
1, 143568, Note_off_c, 14, 56, 106
1, 143592, Note_off_c, 15, 66, 112
1, 143595, Note_off_c, 0, 47, 95
1, 143599, Note_on_c, 0, 49, 100
1, 143616, Note_off_c, 2, 68, 101
1, 143616, Note_off_c, 2, 61, 101
1, 143616, Note_off_c, 2, 49, 101
1, 143616, Note_off_c, 14, 49, 125
1, 143616, Note_on_c, 14, 51, 125
1, 143616, Note_on_c, 15, 71, 112
1, 143616, Note_on_c, 14, 55, 106
1, 143616, Note_on_c, 13, 61, 125
1, 143616, Note_on_c, 12, 66, 125
1, 143616, Note_on_c, 13, 66, 125
1, 143616, Note_on_c, 10, 70, 125
1, 143616, Note_on_c, 10, 78, 125
1, 143616, Note_on_c, 10, 83, 125
1, 143616, Note_on_c, 3, 91, 118
1, 143616, Note_on_c, 3, 94, 118
1, 143616, Note_on_c, 3, 95, 118
1, 143616, Note_on_c, 2, 51, 101
1, 143616, Note_on_c, 2, 63, 101
1, 143616, Note_on_c, 2, 66, 101
1, 143616, Note_on_c, 2, 85, 101
1, 143616, Note_on_c, 2, 90, 101
1, 143616, Note_on_c, 2, 91, 101
1, 143616, Note_on_c, 2, 94, 101
1, 143616, Note_on_c, 2, 95, 101
1, 143636, Note_off_c, 0, 49, 100
1, 143637, Note_on_c, 0, 47, 68
1, 143680, Note_off_c, 2, 95, 101
1, 143680, Note_off_c, 2, 94, 101
1, 143680, Note_off_c, 2, 91, 101
1, 143680, Note_off_c, 2, 90, 101
1, 143680, Note_off_c, 2, 85, 101
1, 143685, Note_off_c, 0, 47, 68
1, 143686, Note_on_c, 0, 49, 100
1, 143720, Note_off_c, 15, 71, 112
1, 143730, Note_off_c, 0, 49, 100
1, 143731, Note_on_c, 0, 47, 80
1, 143744, Note_on_c, 15, 71, 112
1, 143760, Note_off_c, 10, 83, 125
1, 143760, Note_off_c, 10, 78, 125
1, 143760, Note_off_c, 10, 70, 125
1, 143767, Note_on_c, 0, 49, 116
1, 143772, Note_off_c, 0, 47, 80
1, 143808, Note_off_c, 3, 87, 118
1, 143808, Note_off_c, 3, 83, 118
1, 143808, Note_off_c, 3, 80, 118
1, 143817, Note_on_c, 0, 47, 68
1, 143819, Note_off_c, 0, 49, 116
1, 143846, Note_on_c, 0, 49, 100
1, 143852, Note_off_c, 0, 47, 68
1, 143894, Note_off_c, 0, 49, 100
1, 143898, Note_on_c, 0, 47, 68
1, 143933, Note_on_c, 0, 49, 116
1, 143942, Note_off_c, 0, 47, 68
1, 143986, Note_off_c, 0, 49, 116
1, 143990, Note_on_c, 0, 47, 95
1, 144031, Note_off_c, 0, 47, 95
1, 144034, Note_on_c, 0, 49, 100
1, 144073, Note_on_c, 0, 47, 80
1, 144074, Note_off_c, 0, 49, 100
1, 144124, Note_off_c, 0, 47, 80
1, 144126, Note_on_c, 0, 49, 100
1, 144164, Note_off_c, 0, 49, 100
1, 144172, Note_on_c, 0, 47, 59
1, 144216, Note_on_c, 0, 49, 100
1, 144218, Note_off_c, 0, 47, 59
1, 144253, Note_on_c, 0, 47, 68
1, 144254, Note_off_c, 0, 49, 100
1, 144302, Note_off_c, 0, 47, 68
1, 144303, Note_on_c, 0, 49, 100
1, 144336, Note_off_c, 13, 66, 125
1, 144336, Note_off_c, 12, 66, 125
1, 144336, Note_off_c, 13, 61, 125
1, 144336, Note_off_c, 14, 55, 106
1, 144344, Note_on_c, 0, 47, 68
1, 144345, Note_off_c, 0, 49, 100
1, 144384, Note_off_c, 2, 66, 101
1, 144384, Note_off_c, 2, 63, 101
1, 144384, Note_off_c, 2, 51, 101
1, 144384, Note_off_c, 3, 94, 118
1, 144384, Note_off_c, 3, 91, 118
1, 144384, Note_off_c, 14, 51, 125
1, 144384, Note_off_c, 3, 90, 118
1, 144384, Note_on_c, 14, 52, 125
1, 144384, Note_on_c, 14, 56, 106
1, 144384, Note_on_c, 13, 61, 125
1, 144384, Note_on_c, 12, 68, 125
1, 144384, Note_on_c, 13, 64, 125
1, 144384, Note_on_c, 10, 73, 125
1, 144384, Note_on_c, 10, 76, 125
1, 144384, Note_on_c, 10, 83, 125
1, 144384, Note_on_c, 3, 88, 118
1, 144384, Note_on_c, 3, 92, 118
1, 144384, Note_on_c, 2, 52, 101
1, 144384, Note_on_c, 2, 64, 101
1, 144384, Note_on_c, 2, 68, 101
1, 144384, Note_on_c, 2, 85, 101
1, 144384, Note_on_c, 2, 88, 101
1, 144384, Note_on_c, 2, 92, 101
1, 144384, Note_on_c, 2, 95, 101
1, 144394, Note_off_c, 0, 47, 68
1, 144396, Note_on_c, 0, 49, 83
1, 144435, Note_on_c, 0, 47, 80
1, 144437, Note_off_c, 0, 49, 83
1, 144448, Note_off_c, 2, 95, 101
1, 144448, Note_off_c, 2, 92, 101
1, 144448, Note_off_c, 2, 88, 101
1, 144448, Note_off_c, 2, 85, 101
1, 144486, Note_off_c, 0, 47, 80
1, 144488, Note_on_c, 0, 49, 100
1, 144524, Note_on_c, 0, 47, 68
1, 144528, Note_off_c, 10, 83, 125
1, 144528, Note_off_c, 10, 76, 125
1, 144528, Note_off_c, 10, 73, 125
1, 144531, Note_off_c, 0, 49, 100
1, 144565, Note_off_c, 0, 47, 68
1, 144567, Note_on_c, 0, 49, 116
1, 144617, Note_on_c, 0, 47, 95
1, 144618, Note_off_c, 0, 49, 116
1, 144648, Note_off_c, 15, 71, 112
1, 144665, Note_on_c, 0, 49, 100
1, 144668, Note_off_c, 0, 47, 95
1, 144705, Note_on_c, 0, 47, 68
1, 144706, Note_off_c, 0, 49, 100
1, 144748, Note_on_c, 0, 49, 100
1, 144755, Note_off_c, 0, 47, 68
1, 144768, Tempo, 857140
1, 144768, Note_on_c, 15, 71, 112
1, 144792, Note_off_c, 0, 49, 100
1, 144794, Note_on_c, 0, 47, 80
1, 144831, Note_on_c, 0, 49, 100
1, 144836, Note_off_c, 0, 47, 80
1, 144883, Note_on_c, 0, 47, 95
1, 144886, Note_off_c, 0, 49, 100
1, 144888, Note_off_c, 15, 71, 112
1, 144927, Note_on_c, 0, 49, 100
1, 144930, Note_off_c, 0, 47, 95
1, 144960, Note_on_c, 15, 71, 112
1, 144969, Note_off_c, 0, 49, 100
1, 144972, Note_on_c, 0, 47, 95
1, 145013, Note_on_c, 0, 49, 116
1, 145020, Note_off_c, 0, 47, 95
1, 145069, Note_on_c, 0, 47, 95
1, 145071, Note_off_c, 0, 49, 116
1, 145080, Note_off_c, 15, 71, 112
1, 145104, Note_off_c, 13, 64, 125
1, 145104, Note_off_c, 12, 68, 125
1, 145104, Note_off_c, 13, 61, 125
1, 145104, Note_off_c, 14, 56, 106
1, 145110, Note_on_c, 0, 49, 100
1, 145111, Note_off_c, 0, 47, 95
1, 145128, Note_off_c, 2, 64, 101
1, 145128, Note_off_c, 2, 52, 101
1, 145128, Note_off_c, 14, 52, 125
1, 145149, Note_on_c, 0, 47, 80
1, 145150, Note_off_c, 0, 49, 100
1, 145152, Note_off_c, 2, 68, 101
1, 145152, Note_off_c, 3, 92, 118
1, 145152, Note_off_c, 3, 85, 118
1, 145152, Tempo, 1000000
1, 145152, Note_on_c, 14, 52, 125
1, 145152, Note_on_c, 15, 71, 112
1, 145152, Note_on_c, 14, 55, 106
1, 145152, Note_on_c, 13, 57, 125
1, 145152, Note_on_c, 12, 69, 125
1, 145152, Note_on_c, 13, 64, 125
1, 145152, Note_on_c, 10, 78, 125
1, 145152, Note_on_c, 10, 81, 125
1, 145152, Note_on_c, 10, 83, 125
1, 145152, Note_on_c, 3, 90, 118
1, 145152, Note_on_c, 3, 91, 118
1, 145152, Note_on_c, 3, 93, 118
1, 145152, Note_on_c, 2, 52, 101
1, 145152, Note_on_c, 2, 64, 101
1, 145152, Note_on_c, 2, 69, 101
1, 145152, Note_on_c, 2, 88, 101
1, 145152, Note_on_c, 2, 90, 101
1, 145152, Note_on_c, 2, 91, 101
1, 145152, Note_on_c, 2, 93, 101
1, 145152, Note_on_c, 2, 95, 101
1, 145187, Note_on_c, 0, 49, 100
1, 145195, Note_off_c, 0, 47, 80
1, 145216, Note_off_c, 2, 95, 101
1, 145216, Note_off_c, 2, 93, 101
1, 145216, Note_off_c, 2, 91, 101
1, 145216, Note_off_c, 2, 90, 101
1, 145216, Note_off_c, 2, 88, 101
1, 145228, Note_on_c, 0, 47, 95
1, 145229, Note_off_c, 0, 49, 100
1, 145269, Note_off_c, 0, 47, 95
1, 145270, Note_on_c, 0, 49, 100
1, 145272, Note_off_c, 10, 83, 125
1, 145272, Note_off_c, 10, 81, 125
1, 145272, Note_off_c, 10, 78, 125
1, 145306, Note_off_c, 0, 49, 100
1, 145308, Note_on_c, 0, 47, 80
1, 145344, Note_on_c, 0, 49, 100
1, 145349, Note_off_c, 0, 47, 80
1, 145382, Note_off_c, 0, 49, 100
1, 145385, Note_on_c, 0, 47, 80
1, 145422, Note_on_c, 0, 49, 100
1, 145427, Note_off_c, 0, 47, 80
1, 145460, Note_off_c, 0, 49, 100
1, 145464, Note_off_c, 15, 71, 112
1, 145464, Note_on_c, 0, 47, 95
1, 145490, Note_on_c, 0, 49, 100
1, 145501, Note_off_c, 0, 47, 95
1, 145526, Note_on_c, 0, 47, 68
1, 145527, Note_off_c, 0, 49, 100
1, 145536, Tempo, 1250000
1, 145536, Note_on_c, 15, 71, 112
1, 145553, Note_on_c, 0, 49, 100
1, 145558, Note_off_c, 0, 47, 68
1, 145594, Note_on_c, 0, 47, 80
1, 145596, Note_off_c, 0, 49, 100
1, 145627, Note_on_c, 0, 49, 100
1, 145630, Note_off_c, 0, 47, 80
1, 145661, Note_on_c, 0, 47, 112
1, 145662, Note_off_c, 0, 49, 100
1, 145693, Note_off_c, 0, 47, 112
1, 145694, Note_on_c, 0, 49, 100
1, 145727, Note_on_c, 0, 47, 95
1, 145728, Note_off_c, 0, 49, 100
1, 145754, Note_on_c, 0, 49, 100
1, 145758, Note_off_c, 0, 47, 95
1, 145789, Note_on_c, 0, 47, 112
1, 145793, Note_off_c, 0, 49, 100
1, 145817, Note_on_c, 0, 49, 116
1, 145823, Note_off_c, 0, 47, 112
1, 145848, Note_on_c, 0, 47, 112
1, 145856, Note_off_c, 0, 49, 116
1, 145872, Note_off_c, 13, 64, 125
1, 145872, Note_off_c, 12, 69, 125
1, 145872, Note_off_c, 13, 57, 125
1, 145872, Note_off_c, 14, 55, 106
1, 145872, Note_on_c, 0, 49, 116
1, 145882, Note_off_c, 0, 47, 112
1, 145896, Note_off_c, 3, 93, 118
1, 145896, Note_off_c, 3, 91, 118
1, 145896, Note_off_c, 3, 90, 118
1, 145896, Note_off_c, 3, 88, 118
1, 145896, Note_off_c, 3, 95, 118
1, 145911, Note_off_c, 0, 49, 116
1, 145920, Note_off_c, 2, 69, 101
1, 145920, Note_off_c, 2, 64, 101
1, 145920, Note_off_c, 2, 52, 101
1, 145920, Note_off_c, 14, 52, 125
1, 145920, Tempo, 263100
1, 145920, Note_on_c, 14, 47, 112
1, 145920, Note_on_c, 14, 47, 108
1, 145920, Note_on_c, 13, 51, 116
1, 145920, Note_on_c, 12, 54, 112
1, 145920, Note_on_c, 13, 54, 112
1, 145920, Note_on_c, 10, 71, 116
1, 145920, Note_on_c, 10, 75, 116
1, 145920, Note_on_c, 8, 95, 68
1, 145920, Note_on_c, 10, 66, 116
1, 145920, Note_on_c, 3, 83, 120
1, 145920, Note_on_c, 3, 87, 120
1, 145920, Note_on_c, 3, 90, 120
1, 145920, Note_on_c, 3, 95, 120
1, 145920, Note_on_c, 2, 35, 97
1, 145920, Note_on_c, 2, 47, 97
1, 145920, Note_on_c, 2, 71, 97
1, 145920, Note_on_c, 2, 75, 97
1, 145920, Note_on_c, 2, 78, 97
1, 145920, Note_on_c, 2, 83, 97
1, 145920, Note_on_c, 2, 54, 101
1, 145920, Note_on_c, 2, 66, 101
1, 145920, Note_on_c, 2, 71, 101
1, 145920, Note_on_c, 1, 47, 112
1, 145920, Note_on_c, 0, 47, 112
1, 145920, Note_on_c, 9, 36, 127
1, 145924, Note_off_c, 9, 36, 127
1, 145936, Note_on_c, 9, 38, 32
1, 145940, Note_off_c, 9, 38, 32
1, 146000, Note_on_c, 9, 38, 30
1, 146004, Note_off_c, 9, 38, 30
1, 146048, Note_off_c, 0, 47, 112
1, 146048, Note_on_c, 0, 49, 116
1, 146064, Note_on_c, 9, 38, 34
1, 146068, Note_off_c, 9, 38, 34
1, 146144, Note_on_c, 9, 38, 32
1, 146148, Note_off_c, 9, 38, 32
1, 146176, Note_off_c, 0, 49, 116
1, 146176, Note_on_c, 0, 47, 95
1, 146208, Note_on_c, 9, 38, 38
1, 146212, Note_off_c, 9, 38, 38
1, 146304, Note_off_c, 0, 47, 95
1, 146304, Note_on_c, 0, 49, 71
1, 146304, Note_on_c, 9, 38, 121
1, 146308, Note_off_c, 9, 38, 121
1, 146388, Note_off_c, 1, 47, 112
1, 146400, Note_off_c, 10, 66, 116
1, 146400, Note_off_c, 10, 75, 116
1, 146400, Note_off_c, 13, 54, 112
1, 146400, Note_off_c, 12, 54, 112
1, 146400, Note_off_c, 13, 51, 116
1, 146400, Note_off_c, 14, 47, 108
1, 146400, Note_off_c, 14, 47, 112
1, 146400, Note_off_c, 10, 71, 116
1, 146400, Note_on_c, 9, 38, 38
1, 146404, Note_off_c, 9, 38, 38
1, 146432, Note_off_c, 0, 49, 71
1, 146432, Note_on_c, 0, 47, 68
1, 146464, Note_on_c, 9, 38, 36
1, 146468, Note_off_c, 9, 38, 36
1, 146496, Note_on_c, 14, 42, 100
1, 146496, Note_on_c, 14, 47, 73
1, 146496, Note_on_c, 13, 51, 116
1, 146496, Note_on_c, 12, 55, 112
1, 146496, Note_on_c, 13, 55, 112
1, 146496, Note_on_c, 10, 71, 112
1, 146496, Note_on_c, 10, 75, 112
1, 146496, Note_on_c, 10, 67, 112
1, 146496, Note_on_c, 1, 42, 100
1, 146496, Note_on_c, 9, 36, 127
1, 146500, Note_off_c, 9, 36, 127
1, 146528, Note_on_c, 9, 38, 52
1, 146532, Note_off_c, 9, 38, 52
1, 146560, Note_off_c, 0, 47, 68
1, 146560, Note_on_c, 0, 49, 100
1, 146592, Note_on_c, 9, 38, 36
1, 146596, Note_off_c, 9, 38, 36
1, 146656, Note_on_c, 9, 38, 52
1, 146660, Note_off_c, 9, 38, 52
1, 146688, Note_off_c, 0, 49, 100
1, 146688, Note_on_c, 0, 47, 68
1, 146720, Note_on_c, 9, 38, 22
1, 146724, Note_off_c, 9, 38, 22
1, 146800, Note_on_c, 9, 38, 26
1, 146804, Note_off_c, 9, 38, 26
1, 146816, Note_off_c, 0, 47, 68
1, 146816, Note_on_c, 0, 49, 83
1, 146880, Note_on_c, 9, 38, 123
1, 146884, Note_off_c, 9, 38, 123
1, 146944, Note_off_c, 0, 49, 83
1, 146944, Note_on_c, 0, 47, 95
1, 146964, Note_off_c, 1, 42, 100
1, 146976, Note_off_c, 10, 67, 112
1, 146976, Note_off_c, 10, 75, 112
1, 146976, Note_off_c, 13, 55, 112
1, 146976, Note_off_c, 12, 55, 112
1, 146976, Note_off_c, 13, 51, 116
1, 146976, Note_off_c, 14, 47, 73
1, 146976, Note_off_c, 14, 42, 100
1, 146976, Note_off_c, 10, 71, 112
1, 146976, Note_on_c, 9, 38, 40
1, 146980, Note_off_c, 9, 38, 40
1, 147040, Note_on_c, 9, 38, 24
1, 147044, Note_off_c, 9, 38, 24
1, 147048, Note_off_c, 15, 71, 112
1, 147072, Note_off_c, 0, 47, 95
1, 147072, Note_on_c, 14, 47, 112
1, 147072, Note_on_c, 15, 69, 112
1, 147072, Note_on_c, 14, 47, 94
1, 147072, Note_on_c, 13, 51, 116
1, 147072, Note_on_c, 12, 56, 100
1, 147072, Note_on_c, 13, 56, 116
1, 147072, Note_on_c, 10, 71, 116
1, 147072, Note_on_c, 10, 75, 116
1, 147072, Note_on_c, 10, 68, 116
1, 147072, Note_on_c, 1, 47, 112
1, 147072, Note_on_c, 0, 49, 100
1, 147072, Note_on_c, 9, 36, 111
1, 147076, Note_off_c, 9, 36, 111
1, 147104, Note_on_c, 9, 38, 34
1, 147108, Note_off_c, 9, 38, 34
1, 147168, Note_on_c, 9, 38, 40
1, 147172, Note_off_c, 9, 38, 40
1, 147200, Note_off_c, 0, 49, 100
1, 147200, Note_on_c, 0, 47, 68
1, 147232, Note_on_c, 9, 38, 28
1, 147236, Note_off_c, 9, 38, 28
1, 147296, Note_on_c, 9, 38, 48
1, 147300, Note_off_c, 9, 38, 48
1, 147328, Note_off_c, 0, 47, 68
1, 147328, Note_on_c, 0, 49, 100
1, 147328, Note_on_c, 9, 38, 48
1, 147332, Note_off_c, 9, 38, 48
1, 147376, Note_on_c, 9, 38, 46
1, 147380, Note_off_c, 9, 38, 46
1, 147456, Note_off_c, 0, 49, 100
1, 147456, Note_on_c, 0, 47, 80
1, 147456, Note_on_c, 9, 38, 127
1, 147460, Note_off_c, 9, 38, 127
1, 147504, Note_on_c, 9, 38, 42
1, 147508, Note_off_c, 9, 38, 42
1, 147568, Note_on_c, 9, 38, 34
1, 147572, Note_off_c, 9, 38, 34
1, 147584, Note_off_c, 0, 47, 80
1, 147584, Note_on_c, 0, 49, 100
1, 147632, Note_on_c, 9, 38, 28
1, 147636, Note_off_c, 9, 38, 28
1, 147696, Note_on_c, 9, 38, 42
1, 147700, Note_off_c, 9, 38, 42
1, 147712, Note_off_c, 0, 49, 100
1, 147712, Note_on_c, 0, 47, 80
1, 147732, Note_off_c, 1, 47, 112
1, 147744, Note_off_c, 10, 68, 116
1, 147744, Note_off_c, 10, 75, 116
1, 147744, Note_off_c, 13, 56, 116
1, 147744, Note_off_c, 12, 56, 100
1, 147744, Note_off_c, 13, 51, 116
1, 147744, Note_off_c, 14, 47, 94
1, 147744, Note_off_c, 14, 47, 112
1, 147744, Note_off_c, 10, 71, 116
1, 147760, Note_on_c, 9, 38, 42
1, 147764, Note_off_c, 9, 38, 42
1, 147824, Note_on_c, 9, 38, 40
1, 147828, Note_off_c, 9, 38, 40
1, 147840, Note_off_c, 0, 47, 80
1, 147840, Note_on_c, 14, 42, 116
1, 147840, Note_on_c, 14, 47, 108
1, 147840, Note_on_c, 13, 51, 116
1, 147840, Note_on_c, 12, 57, 112
1, 147840, Note_on_c, 13, 54, 112
1, 147840, Note_on_c, 10, 71, 112
1, 147840, Note_on_c, 10, 75, 112
1, 147840, Note_on_c, 10, 69, 112
1, 147840, Note_on_c, 1, 42, 116
1, 147840, Note_on_c, 0, 49, 100
1, 147840, Note_on_c, 9, 36, 109
1, 147844, Note_off_c, 9, 36, 109
1, 147888, Note_on_c, 9, 38, 22
1, 147892, Note_off_c, 9, 38, 22
1, 147968, Note_off_c, 0, 49, 100
1, 147968, Note_on_c, 0, 47, 80
1, 147968, Note_on_c, 9, 38, 22
1, 147972, Note_off_c, 9, 38, 22
1, 148008, Note_off_c, 15, 69, 112
1, 148020, Note_off_c, 1, 42, 116
1, 148032, Note_off_c, 10, 69, 112
1, 148032, Note_off_c, 10, 75, 112
1, 148032, Note_off_c, 13, 54, 112
1, 148032, Note_off_c, 12, 57, 112
1, 148032, Note_off_c, 13, 51, 116
1, 148032, Note_off_c, 14, 47, 108
1, 148032, Note_off_c, 14, 42, 116
1, 148032, Note_off_c, 10, 71, 112
1, 148032, Note_on_c, 15, 70, 112
1, 148048, Note_on_c, 9, 38, 36
1, 148052, Note_off_c, 9, 38, 36
1, 148096, Note_off_c, 0, 47, 80
1, 148096, Note_on_c, 0, 49, 116
1, 148128, Note_on_c, 9, 38, 38
1, 148132, Note_off_c, 9, 38, 38
1, 148192, Note_on_c, 9, 38, 30
1, 148196, Note_off_c, 9, 38, 30
1, 148224, Note_off_c, 0, 49, 116
1, 148224, Note_on_c, 14, 44, 112
1, 148224, Note_on_c, 14, 47, 90
1, 148224, Note_on_c, 13, 51, 116
1, 148224, Note_on_c, 12, 56, 116
1, 148224, Note_on_c, 13, 56, 116
1, 148224, Note_on_c, 10, 71, 116
1, 148224, Note_on_c, 10, 75, 116
1, 148224, Note_on_c, 10, 68, 116
1, 148224, Note_on_c, 1, 44, 112
1, 148224, Note_on_c, 0, 47, 112
1, 148224, Note_on_c, 9, 36, 109
1, 148228, Note_off_c, 9, 36, 109
1, 148288, Note_on_c, 9, 38, 34
1, 148292, Note_off_c, 9, 38, 34
1, 148352, Note_off_c, 0, 47, 112
1, 148352, Note_on_c, 0, 49, 100
1, 148384, Note_on_c, 9, 38, 24
1, 148388, Note_off_c, 9, 38, 24
1, 148404, Note_off_c, 1, 44, 112
1, 148416, Note_off_c, 10, 68, 116
1, 148416, Note_off_c, 10, 75, 116
1, 148416, Note_off_c, 13, 56, 116
1, 148416, Note_off_c, 12, 56, 116
1, 148416, Note_off_c, 13, 51, 116
1, 148416, Note_off_c, 14, 47, 90
1, 148416, Note_off_c, 14, 44, 112
1, 148416, Note_off_c, 10, 71, 116
1, 148464, Note_on_c, 9, 38, 42
1, 148468, Note_off_c, 9, 38, 42
1, 148480, Note_off_c, 0, 49, 100
1, 148480, Note_on_c, 0, 47, 112
1, 148544, Note_on_c, 9, 38, 40
1, 148548, Note_off_c, 9, 38, 40
1, 148608, Note_off_c, 0, 47, 112
1, 148608, Note_on_c, 14, 45, 116
1, 148608, Note_on_c, 14, 47, 73
1, 148608, Note_on_c, 13, 51, 116
1, 148608, Note_on_c, 12, 55, 124
1, 148608, Note_on_c, 13, 55, 112
1, 148608, Note_on_c, 10, 71, 95
1, 148608, Note_on_c, 10, 75, 95
1, 148608, Note_on_c, 10, 67, 95
1, 148608, Note_on_c, 1, 45, 116
1, 148608, Note_on_c, 0, 49, 100
1, 148608, Note_on_c, 9, 36, 115
1, 148612, Note_off_c, 9, 36, 115
1, 148624, Note_on_c, 9, 38, 50
1, 148628, Note_off_c, 9, 38, 50
1, 148704, Note_on_c, 9, 38, 28
1, 148708, Note_off_c, 9, 38, 28
1, 148736, Note_off_c, 0, 49, 100
1, 148736, Note_on_c, 0, 47, 95
1, 148768, Note_on_c, 9, 38, 30
1, 148772, Note_off_c, 9, 38, 30
1, 148788, Note_off_c, 1, 45, 116
1, 148800, Note_off_c, 10, 67, 95
1, 148800, Note_off_c, 10, 75, 95
1, 148800, Note_off_c, 13, 55, 112
1, 148800, Note_off_c, 12, 55, 124
1, 148800, Note_off_c, 13, 51, 116
1, 148800, Note_off_c, 14, 47, 73
1, 148800, Note_off_c, 14, 45, 116
1, 148800, Note_off_c, 10, 71, 95
1, 148832, Note_on_c, 9, 38, 48
1, 148836, Note_off_c, 9, 38, 48
1, 148864, Note_off_c, 0, 47, 95
1, 148864, Note_on_c, 0, 49, 100
1, 148896, Note_on_c, 9, 38, 24
1, 148900, Note_off_c, 9, 38, 24
1, 148960, Note_on_c, 9, 38, 38
1, 148964, Note_off_c, 9, 38, 38
1, 148968, Note_off_c, 15, 70, 112
1, 148992, Note_off_c, 0, 49, 100
1, 148992, Note_on_c, 14, 47, 112
1, 148992, Pitch_bend_c, 15, 7360
1, 148992, Note_on_c, 15, 71, 112
1, 148992, Note_on_c, 14, 47, 108
1, 148992, Note_on_c, 13, 51, 116
1, 148992, Note_on_c, 12, 54, 112
1, 148992, Note_on_c, 13, 54, 112
1, 148992, Note_on_c, 10, 71, 116
1, 148992, Note_on_c, 10, 75, 116
1, 148992, Note_on_c, 10, 66, 116
1, 148992, Note_on_c, 1, 47, 112
1, 148992, Note_on_c, 0, 47, 95
1, 148992, Note_on_c, 9, 36, 127
1, 148996, Note_off_c, 9, 36, 127
1, 149002, Pitch_bend_c, 15, 7296
1, 149008, Note_on_c, 9, 38, 32
1, 149012, Note_off_c, 9, 38, 32
1, 149012, Pitch_bend_c, 15, 7424
1, 149022, Pitch_bend_c, 15, 7488
1, 149032, Pitch_bend_c, 15, 7552
1, 149042, Pitch_bend_c, 15, 7616
1, 149052, Pitch_bend_c, 15, 7680
1, 149062, Pitch_bend_c, 15, 7744
1, 149072, Pitch_bend_c, 15, 7808
1, 149072, Note_on_c, 9, 38, 30
1, 149076, Note_off_c, 9, 38, 30
1, 149082, Pitch_bend_c, 15, 7872
1, 149092, Pitch_bend_c, 15, 7936
1, 149102, Pitch_bend_c, 15, 8000
1, 149112, Pitch_bend_c, 15, 8064
1, 149120, Note_off_c, 0, 47, 95
1, 149120, Note_on_c, 0, 49, 100
1, 149122, Pitch_bend_c, 15, 8128
1, 149132, Pitch_bend_c, 15, 8192
1, 149136, Note_on_c, 9, 38, 34
1, 149140, Note_off_c, 9, 38, 34
1, 149216, Note_on_c, 9, 38, 32
1, 149220, Note_off_c, 9, 38, 32
1, 149248, Note_off_c, 0, 49, 100
1, 149248, Note_on_c, 0, 47, 112
1, 149280, Note_on_c, 9, 38, 38
1, 149284, Note_off_c, 9, 38, 38
1, 149376, Note_off_c, 0, 47, 112
1, 149376, Note_on_c, 0, 49, 83
1, 149376, Note_on_c, 9, 38, 121
1, 149380, Note_off_c, 9, 38, 121
1, 149460, Note_off_c, 1, 47, 112
1, 149472, Note_off_c, 10, 66, 116
1, 149472, Note_off_c, 10, 75, 116
1, 149472, Note_off_c, 13, 54, 112
1, 149472, Note_off_c, 12, 54, 112
1, 149472, Note_off_c, 13, 51, 116
1, 149472, Note_off_c, 14, 47, 108
1, 149472, Note_off_c, 14, 47, 112
1, 149472, Note_off_c, 10, 71, 116
1, 149472, Note_on_c, 9, 38, 38
1, 149476, Note_off_c, 9, 38, 38
1, 149504, Note_off_c, 0, 49, 83
1, 149504, Note_on_c, 0, 47, 95
1, 149536, Note_on_c, 9, 38, 36
1, 149540, Note_off_c, 9, 38, 36
1, 149568, Note_on_c, 14, 42, 100
1, 149568, Note_on_c, 14, 47, 73
1, 149568, Note_on_c, 13, 51, 116
1, 149568, Note_on_c, 12, 55, 112
1, 149568, Note_on_c, 13, 55, 112
1, 149568, Note_on_c, 10, 71, 112
1, 149568, Note_on_c, 10, 75, 112
1, 149568, Note_on_c, 10, 67, 112
1, 149568, Note_on_c, 1, 42, 100
1, 149568, Note_on_c, 9, 36, 127
1, 149572, Note_off_c, 9, 36, 127
1, 149600, Note_on_c, 9, 38, 52
1, 149604, Note_off_c, 9, 38, 52
1, 149632, Note_off_c, 0, 47, 95
1, 149632, Note_on_c, 0, 49, 100
1, 149664, Note_on_c, 9, 38, 36
1, 149668, Note_off_c, 9, 38, 36
1, 149728, Note_on_c, 9, 38, 52
1, 149732, Note_off_c, 9, 38, 52
1, 149760, Note_off_c, 0, 49, 100
1, 149760, Note_on_c, 0, 47, 95
1, 149792, Note_on_c, 9, 38, 22
1, 149796, Note_off_c, 9, 38, 22
1, 149872, Note_on_c, 9, 38, 26
1, 149876, Note_off_c, 9, 38, 26
1, 149888, Note_off_c, 0, 47, 95
1, 149888, Note_on_c, 0, 49, 100
1, 149952, Note_on_c, 9, 38, 123
1, 149956, Note_off_c, 9, 38, 123
1, 150016, Note_off_c, 0, 49, 100
1, 150016, Note_on_c, 0, 47, 95
1, 150036, Note_off_c, 1, 42, 100
1, 150048, Note_off_c, 10, 67, 112
1, 150048, Note_off_c, 10, 75, 112
1, 150048, Note_off_c, 13, 55, 112
1, 150048, Note_off_c, 12, 55, 112
1, 150048, Note_off_c, 13, 51, 116
1, 150048, Note_off_c, 14, 47, 73
1, 150048, Note_off_c, 14, 42, 100
1, 150048, Note_off_c, 10, 71, 112
1, 150048, Note_on_c, 9, 38, 40
1, 150052, Note_off_c, 9, 38, 40
1, 150112, Note_on_c, 9, 38, 24
1, 150116, Note_off_c, 9, 38, 24
1, 150144, Note_off_c, 0, 47, 95
1, 150144, Note_on_c, 14, 47, 112
1, 150144, Note_on_c, 14, 47, 94
1, 150144, Note_on_c, 13, 51, 116
1, 150144, Note_on_c, 12, 56, 100
1, 150144, Note_on_c, 13, 56, 116
1, 150144, Note_on_c, 10, 71, 116
1, 150144, Note_on_c, 10, 75, 116
1, 150144, Note_on_c, 10, 68, 116
1, 150144, Note_on_c, 1, 47, 112
1, 150144, Note_on_c, 0, 49, 100
1, 150144, Note_on_c, 9, 36, 111
1, 150148, Note_off_c, 9, 36, 111
1, 150176, Note_on_c, 9, 38, 34
1, 150180, Note_off_c, 9, 38, 34
1, 150240, Note_on_c, 9, 38, 38
1, 150244, Note_off_c, 9, 38, 38
1, 150272, Note_off_c, 0, 49, 100
1, 150272, Note_on_c, 0, 47, 80
1, 150272, Note_on_c, 9, 38, 127
1, 150276, Note_off_c, 9, 38, 127
1, 150336, Note_on_c, 9, 38, 38
1, 150340, Note_off_c, 9, 38, 38
1, 150400, Note_off_c, 0, 47, 80
1, 150400, Note_on_c, 0, 49, 116
1, 150400, Note_on_c, 9, 38, 48
1, 150404, Note_off_c, 9, 38, 48
1, 150448, Note_on_c, 9, 38, 28
1, 150452, Note_off_c, 9, 38, 28
1, 150512, Note_on_c, 9, 38, 36
1, 150516, Note_off_c, 9, 38, 36
1, 150528, Note_off_c, 0, 49, 116
1, 150528, Note_on_c, 0, 47, 112
1, 150528, Note_on_c, 9, 36, 115
1, 150532, Note_off_c, 9, 36, 115
1, 150576, Note_on_c, 9, 38, 38
1, 150580, Note_off_c, 9, 38, 38
1, 150640, Note_on_c, 9, 38, 38
1, 150644, Note_off_c, 9, 38, 38
1, 150656, Note_off_c, 0, 47, 112
1, 150656, Note_on_c, 0, 49, 116
1, 150704, Note_on_c, 9, 38, 28
1, 150708, Note_off_c, 9, 38, 28
1, 150768, Note_on_c, 9, 38, 42
1, 150772, Note_off_c, 9, 38, 42
1, 150784, Note_off_c, 0, 49, 116
1, 150784, Note_on_c, 0, 47, 112
1, 150804, Note_off_c, 1, 47, 112
1, 150816, Note_off_c, 10, 68, 116
1, 150816, Note_off_c, 10, 75, 116
1, 150816, Note_off_c, 13, 56, 116
1, 150816, Note_off_c, 12, 56, 100
1, 150816, Note_off_c, 13, 51, 116
1, 150816, Note_off_c, 14, 47, 94
1, 150816, Note_off_c, 14, 47, 112
1, 150816, Note_off_c, 10, 71, 116
1, 150832, Note_on_c, 9, 38, 42
1, 150836, Note_off_c, 9, 38, 42
1, 150896, Note_on_c, 9, 38, 40
1, 150900, Note_off_c, 9, 38, 40
1, 150912, Note_off_c, 0, 47, 112
1, 150912, Note_on_c, 14, 42, 116
1, 150912, Note_on_c, 14, 47, 108
1, 150912, Note_on_c, 13, 51, 116
1, 150912, Note_on_c, 12, 57, 112
1, 150912, Note_on_c, 13, 54, 112
1, 150912, Note_on_c, 10, 71, 112
1, 150912, Note_on_c, 10, 75, 112
1, 150912, Note_on_c, 10, 69, 112
1, 150912, Note_on_c, 1, 42, 116
1, 150912, Note_on_c, 0, 49, 100
1, 150912, Note_on_c, 9, 36, 109
1, 150916, Note_off_c, 9, 36, 109
1, 150960, Note_on_c, 9, 38, 22
1, 150964, Note_off_c, 9, 38, 22
1, 151040, Note_off_c, 0, 49, 100
1, 151040, Note_on_c, 0, 47, 95
1, 151040, Note_on_c, 9, 38, 22
1, 151044, Note_off_c, 9, 38, 22
1, 151092, Note_off_c, 1, 42, 116
1, 151104, Note_off_c, 10, 69, 112
1, 151104, Note_off_c, 10, 75, 112
1, 151104, Note_off_c, 13, 54, 112
1, 151104, Note_off_c, 12, 57, 112
1, 151104, Note_off_c, 13, 51, 116
1, 151104, Note_off_c, 14, 47, 108
1, 151104, Note_off_c, 14, 42, 116
1, 151104, Note_off_c, 10, 71, 112
1, 151120, Note_on_c, 9, 38, 36
1, 151124, Note_off_c, 9, 38, 36
1, 151168, Note_off_c, 0, 47, 95
1, 151168, Note_on_c, 0, 49, 116
1, 151200, Note_on_c, 9, 38, 38
1, 151204, Note_off_c, 9, 38, 38
1, 151264, Note_on_c, 9, 38, 30
1, 151268, Note_off_c, 9, 38, 30
1, 151296, Note_off_c, 0, 49, 116
1, 151296, Note_on_c, 14, 44, 112
1, 151296, Note_on_c, 14, 47, 90
1, 151296, Note_on_c, 13, 51, 116
1, 151296, Note_on_c, 12, 56, 116
1, 151296, Note_on_c, 13, 56, 116
1, 151296, Note_on_c, 10, 71, 116
1, 151296, Note_on_c, 10, 75, 116
1, 151296, Note_on_c, 10, 68, 116
1, 151296, Note_on_c, 1, 44, 112
1, 151296, Note_on_c, 0, 47, 112
1, 151296, Note_on_c, 9, 36, 109
1, 151300, Note_off_c, 9, 36, 109
1, 151360, Note_on_c, 9, 38, 34
1, 151364, Note_off_c, 9, 38, 34
1, 151424, Note_off_c, 0, 47, 112
1, 151424, Note_on_c, 0, 49, 100
1, 151424, Note_on_c, 9, 38, 24
1, 151428, Note_off_c, 9, 38, 24
1, 151476, Note_off_c, 1, 44, 112
1, 151488, Note_off_c, 10, 68, 116
1, 151488, Note_off_c, 10, 75, 116
1, 151488, Note_off_c, 13, 56, 116
1, 151488, Note_off_c, 12, 56, 116
1, 151488, Note_off_c, 13, 51, 116
1, 151488, Note_off_c, 14, 47, 90
1, 151488, Note_off_c, 14, 44, 112
1, 151488, Note_off_c, 10, 71, 116
1, 151504, Note_on_c, 9, 38, 42
1, 151508, Note_off_c, 9, 38, 42
1, 151552, Note_off_c, 0, 49, 100
1, 151552, Note_on_c, 0, 47, 80
1, 151568, Note_on_c, 9, 38, 40
1, 151572, Note_off_c, 9, 38, 40
1, 151680, Note_off_c, 0, 47, 80
1, 151680, Note_on_c, 14, 45, 116
1, 151680, Note_on_c, 14, 47, 73
1, 151680, Note_on_c, 13, 51, 116
1, 151680, Note_on_c, 12, 55, 124
1, 151680, Note_on_c, 13, 55, 112
1, 151680, Note_on_c, 10, 71, 95
1, 151680, Note_on_c, 10, 75, 95
1, 151680, Note_on_c, 10, 67, 95
1, 151680, Note_on_c, 1, 45, 116
1, 151680, Note_on_c, 0, 49, 116
1, 151680, Note_on_c, 9, 38, 125
1, 151680, Note_on_c, 9, 36, 115
1, 151684, Note_off_c, 9, 36, 115
1, 151684, Note_off_c, 9, 38, 125
1, 151776, Note_on_c, 9, 38, 28
1, 151780, Note_off_c, 9, 38, 28
1, 151808, Note_off_c, 0, 49, 116
1, 151808, Note_on_c, 0, 47, 95
1, 151840, Note_on_c, 9, 38, 30
1, 151844, Note_off_c, 9, 38, 30
1, 151860, Note_off_c, 1, 45, 116
1, 151872, Note_off_c, 10, 67, 95
1, 151872, Note_off_c, 10, 75, 95
1, 151872, Note_off_c, 13, 55, 112
1, 151872, Note_off_c, 12, 55, 124
1, 151872, Note_off_c, 13, 51, 116
1, 151872, Note_off_c, 14, 47, 73
1, 151872, Note_off_c, 14, 45, 116
1, 151872, Note_off_c, 10, 71, 95
1, 151904, Note_on_c, 9, 38, 48
1, 151908, Note_off_c, 9, 38, 48
1, 151936, Note_off_c, 0, 47, 95
1, 151936, Note_on_c, 0, 49, 100
1, 151968, Note_on_c, 9, 38, 24
1, 151972, Note_off_c, 9, 38, 24
1, 152032, Note_on_c, 9, 38, 38
1, 152036, Note_off_c, 9, 38, 38
1, 152064, Note_off_c, 0, 49, 100
1, 152064, Note_on_c, 14, 47, 112
1, 152064, Note_on_c, 14, 47, 108
1, 152064, Note_on_c, 13, 51, 116
1, 152064, Note_on_c, 12, 54, 112
1, 152064, Note_on_c, 13, 54, 112
1, 152064, Note_on_c, 10, 71, 116
1, 152064, Note_on_c, 10, 75, 116
1, 152064, Note_on_c, 10, 78, 127
1, 152064, Note_on_c, 1, 47, 112
1, 152064, Note_on_c, 0, 47, 112
1, 152064, Note_on_c, 9, 36, 127
1, 152068, Note_off_c, 9, 36, 127
1, 152080, Note_on_c, 9, 38, 32
1, 152084, Note_off_c, 9, 38, 32
1, 152144, Note_on_c, 9, 38, 30
1, 152148, Note_off_c, 9, 38, 30
1, 152192, Note_off_c, 0, 47, 112
1, 152192, Note_on_c, 0, 49, 100
1, 152208, Note_on_c, 9, 38, 34
1, 152212, Note_off_c, 9, 38, 34
1, 152288, Note_on_c, 9, 38, 32
1, 152292, Note_off_c, 9, 38, 32
1, 152320, Note_off_c, 0, 49, 100
1, 152320, Note_on_c, 0, 47, 80
1, 152352, Note_on_c, 9, 38, 38
1, 152356, Note_off_c, 9, 38, 38
1, 152448, Note_off_c, 0, 47, 80
1, 152448, Note_on_c, 0, 49, 100
1, 152448, Note_on_c, 9, 38, 121
1, 152452, Note_off_c, 9, 38, 121
1, 152532, Note_off_c, 1, 47, 112
1, 152544, Note_off_c, 10, 78, 127
1, 152544, Note_off_c, 10, 75, 116
1, 152544, Note_off_c, 13, 54, 112
1, 152544, Note_off_c, 12, 54, 112
1, 152544, Note_off_c, 13, 51, 116
1, 152544, Note_off_c, 14, 47, 108
1, 152544, Note_off_c, 14, 47, 112
1, 152544, Note_off_c, 10, 71, 116
1, 152544, Note_on_c, 9, 38, 38
1, 152548, Note_off_c, 9, 38, 38
1, 152576, Note_off_c, 0, 49, 100
1, 152576, Note_on_c, 0, 47, 95
1, 152608, Note_on_c, 9, 38, 36
1, 152612, Note_off_c, 9, 38, 36
1, 152640, Note_on_c, 14, 42, 100
1, 152640, Note_on_c, 14, 47, 73
1, 152640, Note_on_c, 13, 51, 116
1, 152640, Note_on_c, 12, 55, 112
1, 152640, Note_on_c, 13, 55, 112
1, 152640, Note_on_c, 10, 71, 112
1, 152640, Note_on_c, 10, 75, 112
1, 152640, Note_on_c, 10, 79, 112
1, 152640, Note_on_c, 1, 42, 100
1, 152640, Note_on_c, 9, 36, 127
1, 152644, Note_off_c, 9, 36, 127
1, 152672, Note_on_c, 9, 38, 52
1, 152676, Note_off_c, 9, 38, 52
1, 152704, Note_off_c, 0, 47, 95
1, 152704, Note_on_c, 0, 49, 100
1, 152736, Note_on_c, 9, 38, 36
1, 152740, Note_off_c, 9, 38, 36
1, 152800, Note_on_c, 9, 38, 52
1, 152804, Note_off_c, 9, 38, 52
1, 152832, Note_off_c, 0, 49, 100
1, 152832, Note_on_c, 0, 47, 80
1, 152864, Note_on_c, 9, 38, 22
1, 152868, Note_off_c, 9, 38, 22
1, 152944, Note_on_c, 9, 38, 26
1, 152948, Note_off_c, 9, 38, 26
1, 152960, Note_off_c, 0, 47, 80
1, 152960, Note_on_c, 0, 49, 100
1, 153024, Note_on_c, 9, 38, 123
1, 153028, Note_off_c, 9, 38, 123
1, 153088, Note_off_c, 0, 49, 100
1, 153088, Note_on_c, 0, 47, 80
1, 153108, Note_off_c, 1, 42, 100
1, 153120, Note_off_c, 10, 79, 112
1, 153120, Note_off_c, 10, 75, 112
1, 153120, Note_off_c, 13, 55, 112
1, 153120, Note_off_c, 12, 55, 112
1, 153120, Note_off_c, 13, 51, 116
1, 153120, Note_off_c, 14, 47, 73
1, 153120, Note_off_c, 14, 42, 100
1, 153120, Note_off_c, 10, 71, 112
1, 153120, Note_on_c, 9, 38, 40
1, 153124, Note_off_c, 9, 38, 40
1, 153184, Note_on_c, 9, 38, 24
1, 153188, Note_off_c, 9, 38, 24
1, 153216, Note_off_c, 0, 47, 80
1, 153216, Note_on_c, 14, 47, 112
1, 153216, Note_on_c, 14, 47, 94
1, 153216, Note_on_c, 13, 51, 116
1, 153216, Note_on_c, 12, 56, 100
1, 153216, Note_on_c, 13, 56, 116
1, 153216, Note_on_c, 10, 71, 116
1, 153216, Note_on_c, 10, 75, 116
1, 153216, Note_on_c, 10, 80, 116
1, 153216, Note_on_c, 1, 47, 112
1, 153216, Note_on_c, 0, 49, 100
1, 153216, Note_on_c, 9, 36, 111
1, 153220, Note_off_c, 9, 36, 111
1, 153248, Note_on_c, 9, 38, 34
1, 153252, Note_off_c, 9, 38, 34
1, 153312, Note_on_c, 9, 38, 40
1, 153316, Note_off_c, 9, 38, 40
1, 153344, Note_off_c, 0, 49, 100
1, 153344, Note_on_c, 0, 47, 80
1, 153376, Note_on_c, 9, 38, 28
1, 153380, Note_off_c, 9, 38, 28
1, 153440, Note_on_c, 9, 38, 48
1, 153444, Note_off_c, 9, 38, 48
1, 153472, Note_off_c, 0, 47, 80
1, 153472, Note_on_c, 0, 49, 83
1, 153472, Note_on_c, 9, 38, 48
1, 153476, Note_off_c, 9, 38, 48
1, 153520, Note_on_c, 9, 38, 46
1, 153524, Note_off_c, 9, 38, 46
1, 153600, Note_off_c, 0, 49, 83
1, 153600, Note_on_c, 0, 47, 80
1, 153600, Note_on_c, 9, 38, 121
1, 153604, Note_off_c, 9, 38, 121
1, 153648, Note_on_c, 9, 38, 38
1, 153652, Note_off_c, 9, 38, 38
1, 153712, Note_on_c, 9, 38, 38
1, 153716, Note_off_c, 9, 38, 38
1, 153728, Note_off_c, 0, 47, 80
1, 153728, Note_on_c, 0, 49, 100
1, 153776, Note_on_c, 9, 38, 28
1, 153780, Note_off_c, 9, 38, 28
1, 153792, Note_on_c, 9, 36, 109
1, 153796, Note_off_c, 9, 36, 109
1, 153840, Note_on_c, 9, 38, 42
1, 153844, Note_off_c, 9, 38, 42
1, 153856, Note_off_c, 0, 49, 100
1, 153856, Note_on_c, 0, 47, 95
1, 153876, Note_off_c, 1, 47, 112
1, 153888, Note_off_c, 10, 80, 116
1, 153888, Note_off_c, 10, 75, 116
1, 153888, Note_off_c, 13, 56, 116
1, 153888, Note_off_c, 12, 56, 100
1, 153888, Note_off_c, 13, 51, 116
1, 153888, Note_off_c, 14, 47, 94
1, 153888, Note_off_c, 14, 47, 112
1, 153888, Note_off_c, 10, 71, 116
1, 153904, Note_on_c, 9, 38, 42
1, 153908, Note_off_c, 9, 38, 42
1, 153968, Note_on_c, 9, 38, 40
1, 153972, Note_off_c, 9, 38, 40
1, 153984, Note_off_c, 0, 47, 95
1, 153984, Note_on_c, 14, 42, 116
1, 153984, Note_on_c, 14, 47, 108
1, 153984, Note_on_c, 13, 51, 116
1, 153984, Note_on_c, 12, 57, 112
1, 153984, Note_on_c, 13, 54, 112
1, 153984, Note_on_c, 10, 71, 112
1, 153984, Note_on_c, 10, 75, 112
1, 153984, Note_on_c, 10, 81, 112
1, 153984, Note_on_c, 1, 42, 116
1, 153984, Note_on_c, 0, 49, 100
1, 154032, Note_on_c, 9, 38, 22
1, 154036, Note_off_c, 9, 38, 22
1, 154112, Note_off_c, 0, 49, 100
1, 154112, Note_on_c, 0, 47, 95
1, 154112, Note_on_c, 9, 38, 22
1, 154116, Note_off_c, 9, 38, 22
1, 154164, Note_off_c, 1, 42, 116
1, 154176, Note_off_c, 10, 81, 112
1, 154176, Note_off_c, 10, 75, 112
1, 154176, Note_off_c, 13, 54, 112
1, 154176, Note_off_c, 12, 57, 112
1, 154176, Note_off_c, 13, 51, 116
1, 154176, Note_off_c, 14, 47, 108
1, 154176, Note_off_c, 14, 42, 116
1, 154176, Note_off_c, 10, 71, 112
1, 154176, Note_on_c, 9, 38, 127
1, 154180, Note_off_c, 9, 38, 127
1, 154240, Note_off_c, 0, 47, 95
1, 154240, Note_on_c, 0, 49, 100
1, 154272, Note_on_c, 9, 38, 38
1, 154276, Note_off_c, 9, 38, 38
1, 154336, Note_on_c, 9, 38, 30
1, 154340, Note_off_c, 9, 38, 30
1, 154368, Note_off_c, 0, 49, 100
1, 154368, Note_on_c, 14, 44, 112
1, 154368, Note_on_c, 14, 47, 90
1, 154368, Note_on_c, 13, 51, 116
1, 154368, Note_on_c, 12, 56, 116
1, 154368, Note_on_c, 13, 56, 116
1, 154368, Note_on_c, 10, 71, 116
1, 154368, Note_on_c, 10, 75, 116
1, 154368, Note_on_c, 10, 80, 116
1, 154368, Note_on_c, 1, 44, 112
1, 154368, Note_on_c, 0, 47, 80
1, 154368, Note_on_c, 9, 36, 125
1, 154372, Note_off_c, 9, 36, 125
1, 154432, Note_on_c, 9, 38, 34
1, 154436, Note_off_c, 9, 38, 34
1, 154496, Note_off_c, 0, 47, 80
1, 154496, Note_on_c, 0, 49, 100
1, 154528, Note_on_c, 9, 38, 24
1, 154532, Note_off_c, 9, 38, 24
1, 154548, Note_off_c, 1, 44, 112
1, 154560, Note_off_c, 10, 80, 116
1, 154560, Note_off_c, 10, 75, 116
1, 154560, Note_off_c, 13, 56, 116
1, 154560, Note_off_c, 12, 56, 116
1, 154560, Note_off_c, 13, 51, 116
1, 154560, Note_off_c, 14, 47, 90
1, 154560, Note_off_c, 14, 44, 112
1, 154560, Note_off_c, 10, 71, 116
1, 154608, Note_on_c, 9, 38, 42
1, 154612, Note_off_c, 9, 38, 42
1, 154624, Note_off_c, 0, 49, 100
1, 154624, Note_on_c, 0, 47, 112
1, 154688, Note_on_c, 9, 38, 40
1, 154692, Note_off_c, 9, 38, 40
1, 154752, Note_off_c, 0, 47, 112
1, 154752, Note_on_c, 14, 45, 116
1, 154752, Note_on_c, 14, 47, 73
1, 154752, Note_on_c, 13, 51, 116
1, 154752, Note_on_c, 12, 55, 124
1, 154752, Note_on_c, 13, 55, 112
1, 154752, Note_on_c, 10, 71, 95
1, 154752, Note_on_c, 10, 75, 95
1, 154752, Note_on_c, 10, 79, 95
1, 154752, Note_on_c, 1, 45, 116
1, 154752, Note_on_c, 0, 49, 100
1, 154752, Note_on_c, 9, 36, 115
1, 154756, Note_off_c, 9, 36, 115
1, 154768, Note_on_c, 9, 38, 50
1, 154772, Note_off_c, 9, 38, 50
1, 154848, Note_on_c, 9, 38, 28
1, 154852, Note_off_c, 9, 38, 28
1, 154880, Note_off_c, 0, 49, 100
1, 154880, Note_on_c, 0, 47, 95
1, 154912, Note_on_c, 9, 38, 30
1, 154916, Note_off_c, 9, 38, 30
1, 154932, Note_off_c, 1, 45, 116
1, 154944, Note_off_c, 10, 79, 95
1, 154944, Note_off_c, 10, 75, 95
1, 154944, Note_off_c, 13, 55, 112
1, 154944, Note_off_c, 12, 55, 124
1, 154944, Note_off_c, 13, 51, 116
1, 154944, Note_off_c, 14, 47, 73
1, 154944, Note_off_c, 14, 45, 116
1, 154944, Note_off_c, 10, 71, 95
1, 154976, Note_on_c, 9, 38, 48
1, 154980, Note_off_c, 9, 38, 48
1, 155008, Note_off_c, 0, 47, 95
1, 155008, Note_on_c, 0, 49, 100
1, 155040, Note_on_c, 9, 38, 24
1, 155044, Note_off_c, 9, 38, 24
1, 155104, Note_on_c, 9, 38, 38
1, 155108, Note_off_c, 9, 38, 38
1, 155136, Note_off_c, 0, 49, 100
1, 155136, Note_on_c, 14, 47, 112
1, 155136, Note_on_c, 14, 47, 108
1, 155136, Note_on_c, 13, 51, 116
1, 155136, Note_on_c, 12, 54, 112
1, 155136, Note_on_c, 13, 54, 112
1, 155136, Note_on_c, 10, 71, 116
1, 155136, Note_on_c, 10, 75, 116
1, 155136, Note_on_c, 10, 78, 116
1, 155136, Note_on_c, 1, 47, 112
1, 155136, Note_on_c, 0, 47, 95
1, 155136, Note_on_c, 9, 36, 127
1, 155140, Note_off_c, 9, 36, 127
1, 155152, Note_on_c, 9, 38, 32
1, 155156, Note_off_c, 9, 38, 32
1, 155216, Note_on_c, 9, 38, 30
1, 155220, Note_off_c, 9, 38, 30
1, 155264, Note_off_c, 0, 47, 95
1, 155264, Note_on_c, 0, 49, 100
1, 155280, Note_on_c, 9, 38, 34
1, 155284, Note_off_c, 9, 38, 34
1, 155360, Note_on_c, 9, 38, 32
1, 155364, Note_off_c, 9, 38, 32
1, 155392, Note_off_c, 0, 49, 100
1, 155392, Note_on_c, 0, 47, 95
1, 155424, Note_on_c, 9, 38, 38
1, 155428, Note_off_c, 9, 38, 38
1, 155520, Note_off_c, 0, 47, 95
1, 155520, Note_on_c, 0, 49, 100
1, 155520, Note_on_c, 9, 38, 121
1, 155524, Note_off_c, 9, 38, 121
1, 155604, Note_off_c, 1, 47, 112
1, 155616, Note_off_c, 10, 78, 116
1, 155616, Note_off_c, 10, 75, 116
1, 155616, Note_off_c, 13, 54, 112
1, 155616, Note_off_c, 12, 54, 112
1, 155616, Note_off_c, 13, 51, 116
1, 155616, Note_off_c, 14, 47, 108
1, 155616, Note_off_c, 14, 47, 112
1, 155616, Note_off_c, 10, 71, 116
1, 155616, Note_on_c, 9, 38, 38
1, 155620, Note_off_c, 9, 38, 38
1, 155648, Note_off_c, 0, 49, 100
1, 155648, Note_on_c, 0, 47, 80
1, 155680, Note_on_c, 9, 38, 36
1, 155684, Note_off_c, 9, 38, 36
1, 155712, Note_on_c, 14, 42, 100
1, 155712, Note_on_c, 14, 47, 73
1, 155712, Note_on_c, 13, 51, 116
1, 155712, Note_on_c, 12, 55, 112
1, 155712, Note_on_c, 13, 55, 112
1, 155712, Note_on_c, 10, 71, 112
1, 155712, Note_on_c, 10, 75, 112
1, 155712, Note_on_c, 10, 79, 112
1, 155712, Note_on_c, 1, 42, 100
1, 155712, Note_on_c, 9, 36, 127
1, 155716, Note_off_c, 9, 36, 127
1, 155744, Note_on_c, 9, 38, 52
1, 155748, Note_off_c, 9, 38, 52
1, 155776, Note_off_c, 0, 47, 80
1, 155776, Note_on_c, 0, 49, 100
1, 155808, Note_on_c, 9, 38, 36
1, 155812, Note_off_c, 9, 38, 36
1, 155872, Note_on_c, 9, 38, 52
1, 155876, Note_off_c, 9, 38, 52
1, 155904, Note_off_c, 0, 49, 100
1, 155904, Note_on_c, 0, 47, 95
1, 155936, Note_on_c, 9, 38, 22
1, 155940, Note_off_c, 9, 38, 22
1, 156016, Note_on_c, 9, 38, 26
1, 156020, Note_off_c, 9, 38, 26
1, 156032, Note_off_c, 0, 47, 95
1, 156032, Note_on_c, 0, 49, 100
1, 156096, Note_on_c, 9, 38, 123
1, 156100, Note_off_c, 9, 38, 123
1, 156160, Note_off_c, 0, 49, 100
1, 156160, Note_on_c, 0, 47, 95
1, 156180, Note_off_c, 1, 42, 100
1, 156192, Note_off_c, 10, 79, 112
1, 156192, Note_off_c, 10, 75, 112
1, 156192, Note_off_c, 13, 55, 112
1, 156192, Note_off_c, 12, 55, 112
1, 156192, Note_off_c, 13, 51, 116
1, 156192, Note_off_c, 14, 47, 73
1, 156192, Note_off_c, 14, 42, 100
1, 156192, Note_off_c, 10, 71, 112
1, 156192, Note_on_c, 9, 38, 40
1, 156196, Note_off_c, 9, 38, 40
1, 156256, Note_on_c, 9, 38, 24
1, 156260, Note_off_c, 9, 38, 24
1, 156288, Note_off_c, 0, 47, 95
1, 156288, Note_on_c, 14, 47, 112
1, 156288, Note_on_c, 14, 47, 94
1, 156288, Note_on_c, 13, 51, 116
1, 156288, Note_on_c, 12, 56, 100
1, 156288, Note_on_c, 13, 56, 116
1, 156288, Note_on_c, 10, 71, 116
1, 156288, Note_on_c, 10, 75, 116
1, 156288, Note_on_c, 10, 80, 116
1, 156288, Note_on_c, 1, 47, 112
1, 156288, Note_on_c, 0, 49, 100
1, 156288, Note_on_c, 9, 36, 111
1, 156292, Note_off_c, 9, 36, 111
1, 156320, Note_on_c, 9, 38, 34
1, 156324, Note_off_c, 9, 38, 34
1, 156384, Note_on_c, 9, 38, 40
1, 156388, Note_off_c, 9, 38, 40
1, 156416, Note_off_c, 0, 49, 100
1, 156416, Note_on_c, 0, 47, 112
1, 156448, Note_on_c, 9, 38, 38
1, 156452, Note_off_c, 9, 38, 38
1, 156496, Note_on_c, 9, 38, 30
1, 156500, Note_off_c, 9, 38, 30
1, 156544, Note_off_c, 0, 47, 112
1, 156544, Note_on_c, 0, 49, 100
1, 156544, Note_on_c, 9, 38, 48
1, 156548, Note_off_c, 9, 38, 48
1, 156592, Note_on_c, 9, 38, 28
1, 156596, Note_off_c, 9, 38, 28
1, 156656, Note_on_c, 9, 38, 36
1, 156660, Note_off_c, 9, 38, 36
1, 156672, Note_off_c, 0, 49, 100
1, 156672, Note_on_c, 0, 47, 80
1, 156672, Note_on_c, 9, 38, 115
1, 156676, Note_off_c, 9, 38, 115
1, 156720, Note_on_c, 9, 38, 38
1, 156724, Note_off_c, 9, 38, 38
1, 156784, Note_on_c, 9, 38, 38
1, 156788, Note_off_c, 9, 38, 38
1, 156800, Note_off_c, 0, 47, 80
1, 156800, Note_on_c, 0, 49, 100
1, 156848, Note_on_c, 9, 38, 28
1, 156852, Note_off_c, 9, 38, 28
1, 156912, Note_on_c, 9, 38, 42
1, 156916, Note_off_c, 9, 38, 42
1, 156928, Note_off_c, 0, 49, 100
1, 156928, Note_on_c, 0, 47, 95
1, 156948, Note_off_c, 1, 47, 112
1, 156960, Note_off_c, 10, 80, 116
1, 156960, Note_off_c, 10, 75, 116
1, 156960, Note_off_c, 13, 56, 116
1, 156960, Note_off_c, 12, 56, 100
1, 156960, Note_off_c, 13, 51, 116
1, 156960, Note_off_c, 14, 47, 94
1, 156960, Note_off_c, 14, 47, 112
1, 156960, Note_off_c, 10, 71, 116
1, 156976, Note_on_c, 9, 38, 42
1, 156980, Note_off_c, 9, 38, 42
1, 157040, Note_on_c, 9, 38, 40
1, 157044, Note_off_c, 9, 38, 40
1, 157056, Note_off_c, 0, 47, 95
1, 157056, Note_on_c, 14, 42, 116
1, 157056, Note_on_c, 14, 47, 108
1, 157056, Note_on_c, 13, 51, 116
1, 157056, Note_on_c, 12, 57, 112
1, 157056, Note_on_c, 13, 54, 112
1, 157056, Note_on_c, 10, 71, 112
1, 157056, Note_on_c, 10, 75, 112
1, 157056, Note_on_c, 10, 81, 112
1, 157056, Note_on_c, 1, 42, 116
1, 157056, Note_on_c, 0, 49, 100
1, 157056, Note_on_c, 9, 36, 109
1, 157060, Note_off_c, 9, 36, 109
1, 157104, Note_on_c, 9, 38, 22
1, 157108, Note_off_c, 9, 38, 22
1, 157184, Note_off_c, 0, 49, 100
1, 157184, Note_on_c, 0, 47, 112
1, 157184, Note_on_c, 9, 38, 22
1, 157188, Note_off_c, 9, 38, 22
1, 157236, Note_off_c, 1, 42, 116
1, 157248, Note_off_c, 10, 81, 112
1, 157248, Note_off_c, 10, 75, 112
1, 157248, Note_off_c, 13, 54, 112
1, 157248, Note_off_c, 12, 57, 112
1, 157248, Note_off_c, 13, 51, 116
1, 157248, Note_off_c, 14, 47, 108
1, 157248, Note_off_c, 14, 42, 116
1, 157248, Note_off_c, 10, 71, 112
1, 157264, Note_on_c, 9, 38, 36
1, 157268, Note_off_c, 9, 38, 36
1, 157312, Note_off_c, 0, 47, 112
1, 157312, Note_on_c, 0, 49, 100
1, 157344, Note_on_c, 9, 38, 38
1, 157348, Note_off_c, 9, 38, 38
1, 157408, Note_on_c, 9, 38, 30
1, 157412, Note_off_c, 9, 38, 30
1, 157440, Note_off_c, 0, 49, 100
1, 157440, Note_on_c, 14, 44, 112
1, 157440, Note_on_c, 14, 47, 90
1, 157440, Note_on_c, 13, 51, 116
1, 157440, Note_on_c, 12, 56, 116
1, 157440, Note_on_c, 13, 56, 116
1, 157440, Note_on_c, 10, 71, 116
1, 157440, Note_on_c, 10, 75, 116
1, 157440, Note_on_c, 10, 80, 116
1, 157440, Note_on_c, 1, 44, 112
1, 157440, Note_on_c, 0, 47, 80
1, 157440, Note_on_c, 9, 36, 109
1, 157444, Note_off_c, 9, 36, 109
1, 157504, Note_on_c, 9, 38, 34
1, 157508, Note_off_c, 9, 38, 34
1, 157568, Note_off_c, 0, 47, 80
1, 157568, Note_on_c, 0, 49, 100
1, 157568, Note_on_c, 9, 38, 24
1, 157572, Note_off_c, 9, 38, 24
1, 157620, Note_off_c, 1, 44, 112
1, 157632, Note_off_c, 10, 80, 116
1, 157632, Note_off_c, 10, 75, 116
1, 157632, Note_off_c, 13, 56, 116
1, 157632, Note_off_c, 12, 56, 116
1, 157632, Note_off_c, 13, 51, 116
1, 157632, Note_off_c, 14, 47, 90
1, 157632, Note_off_c, 14, 44, 112
1, 157632, Note_off_c, 10, 71, 116
1, 157648, Note_on_c, 9, 38, 42
1, 157652, Note_off_c, 9, 38, 42
1, 157696, Note_off_c, 0, 49, 100
1, 157696, Note_on_c, 0, 47, 80
1, 157712, Note_on_c, 9, 38, 40
1, 157716, Note_off_c, 9, 38, 40
1, 157824, Note_off_c, 0, 47, 80
1, 157824, Note_on_c, 14, 45, 116
1, 157824, Note_on_c, 14, 47, 73
1, 157824, Note_on_c, 13, 51, 116
1, 157824, Note_on_c, 12, 55, 124
1, 157824, Note_on_c, 13, 55, 112
1, 157824, Note_on_c, 10, 71, 95
1, 157824, Note_on_c, 10, 75, 95
1, 157824, Note_on_c, 10, 79, 95
1, 157824, Note_on_c, 1, 45, 116
1, 157824, Note_on_c, 0, 49, 116
1, 157824, Note_on_c, 9, 38, 32
1, 157824, Note_on_c, 9, 36, 115
1, 157828, Note_off_c, 9, 36, 115
1, 157828, Note_off_c, 9, 38, 32
1, 157920, Note_on_c, 9, 38, 28
1, 157924, Note_off_c, 9, 38, 28
1, 157952, Note_off_c, 0, 49, 116
1, 157952, Note_on_c, 0, 47, 95
1, 157984, Note_on_c, 9, 38, 30
1, 157988, Note_off_c, 9, 38, 30
1, 158004, Note_off_c, 1, 45, 116
1, 158016, Note_off_c, 10, 79, 95
1, 158016, Note_off_c, 10, 75, 95
1, 158016, Note_off_c, 13, 55, 112
1, 158016, Note_off_c, 12, 55, 124
1, 158016, Note_off_c, 13, 51, 116
1, 158016, Note_off_c, 14, 47, 73
1, 158016, Note_off_c, 14, 45, 116
1, 158016, Note_off_c, 10, 71, 95
1, 158048, Note_on_c, 9, 38, 48
1, 158052, Note_off_c, 9, 38, 48
1, 158080, Note_off_c, 0, 47, 95
1, 158080, Note_on_c, 0, 49, 100
1, 158112, Note_on_c, 9, 38, 24
1, 158116, Note_off_c, 9, 38, 24
1, 158176, Note_on_c, 9, 38, 38
1, 158180, Note_off_c, 9, 38, 38
1, 158208, Note_off_c, 0, 49, 100
1, 158208, Note_on_c, 14, 47, 112
1, 158208, Note_on_c, 14, 47, 108
1, 158208, Note_on_c, 13, 51, 116
1, 158208, Note_on_c, 12, 54, 112
1, 158208, Note_on_c, 13, 54, 112
1, 158208, Note_on_c, 10, 71, 116
1, 158208, Note_on_c, 10, 75, 116
1, 158208, Note_on_c, 10, 78, 116
1, 158208, Note_on_c, 7, 78, 127
1, 158208, Note_on_c, 1, 47, 112
1, 158208, Note_on_c, 0, 47, 95
1, 158208, Note_on_c, 9, 49, 95
1, 158208, Note_on_c, 9, 55, 123
1, 158208, Note_on_c, 9, 38, 127
1, 158208, Note_on_c, 9, 36, 103
1, 158212, Note_off_c, 9, 36, 103
1, 158212, Note_off_c, 9, 38, 127
1, 158212, Note_off_c, 9, 55, 123
1, 158212, Note_off_c, 9, 49, 95
1, 158304, Note_on_c, 9, 38, 40
1, 158308, Note_off_c, 9, 38, 40
1, 158336, Note_off_c, 0, 47, 95
1, 158336, Note_on_c, 0, 49, 100
1, 158352, Note_on_c, 9, 38, 34
1, 158356, Note_off_c, 9, 38, 34
1, 158416, Note_on_c, 9, 38, 32
1, 158420, Note_off_c, 9, 38, 32
1, 158436, Note_on_c, 7, 76, 115
1, 158464, Note_off_c, 0, 49, 100
1, 158464, Note_on_c, 0, 47, 80
1, 158480, Note_on_c, 9, 38, 40
1, 158484, Note_off_c, 9, 38, 40
1, 158496, Note_off_c, 7, 78, 127
1, 158526, Note_on_c, 7, 75, 113
1, 158544, Note_on_c, 9, 38, 40
1, 158548, Note_off_c, 9, 38, 40
1, 158592, Note_off_c, 0, 47, 80
1, 158592, Note_on_c, 0, 49, 100
1, 158599, Note_on_c, 7, 73, 112
1, 158604, Note_off_c, 7, 76, 115
1, 158624, Note_on_c, 9, 38, 36
1, 158628, Note_off_c, 9, 38, 36
1, 158688, Note_on_c, 9, 38, 34
1, 158692, Note_off_c, 9, 38, 34
1, 158693, Note_on_c, 7, 71, 95
1, 158700, Note_off_c, 7, 75, 113
1, 158720, Note_off_c, 0, 49, 100
1, 158720, Note_on_c, 0, 47, 112
1, 158768, Note_on_c, 9, 38, 32
1, 158772, Note_off_c, 9, 38, 32
1, 158777, Note_on_c, 7, 70, 95
1, 158782, Note_off_c, 7, 73, 112
1, 158826, Note_off_c, 10, 71, 0
1, 158832, Note_on_c, 9, 38, 44
1, 158836, Note_off_c, 9, 38, 44
1, 158848, Note_off_c, 0, 47, 112
1, 158848, Note_on_c, 0, 49, 100
1, 158862, Note_on_c, 7, 68, 112
1, 158866, Note_off_c, 7, 71, 95
1, 158896, Note_on_c, 9, 38, 32
1, 158900, Note_off_c, 9, 38, 32
1, 158945, Note_on_c, 7, 66, 95
1, 158951, Note_off_c, 7, 70, 95
1, 158976, Note_off_c, 0, 49, 100
1, 158976, Note_on_c, 0, 47, 80
1, 158976, Note_on_c, 9, 38, 32
1, 158980, Note_off_c, 9, 38, 32
1, 159031, Note_on_c, 7, 64, 112
1, 159037, Note_off_c, 7, 68, 112
1, 159040, Note_on_c, 9, 38, 32
1, 159044, Note_off_c, 9, 38, 32
1, 159104, Note_off_c, 0, 47, 80
1, 159104, Note_on_c, 0, 49, 100
1, 159110, Note_on_c, 7, 63, 112
1, 159113, Note_off_c, 7, 66, 95
1, 159136, Note_on_c, 9, 38, 36
1, 159140, Note_off_c, 9, 38, 36
1, 159176, Note_on_c, 7, 61, 112
1, 159181, Note_off_c, 7, 64, 112
1, 159216, Note_on_c, 9, 38, 36
1, 159220, Note_off_c, 9, 38, 36
1, 159232, Note_off_c, 0, 49, 100
1, 159232, Note_on_c, 0, 47, 95
1, 159240, Note_on_c, 7, 59, 124
1, 159243, Note_off_c, 7, 63, 112
1, 159280, Note_on_c, 9, 38, 36
1, 159284, Note_off_c, 9, 38, 36
1, 159307, Note_on_c, 7, 58, 112
1, 159311, Note_off_c, 7, 61, 112
1, 159344, Note_on_c, 9, 38, 38
1, 159348, Note_off_c, 9, 38, 38
1, 159360, Note_off_c, 0, 47, 95
1, 159360, Note_on_c, 0, 49, 100
1, 159374, Note_on_c, 7, 56, 112
1, 159378, Note_off_c, 7, 59, 124
1, 159424, Note_on_c, 9, 38, 30
1, 159428, Note_off_c, 9, 38, 30
1, 159435, Note_off_c, 7, 58, 112
1, 159438, Note_on_c, 7, 54, 112
1, 159488, Note_off_c, 0, 49, 100
1, 159488, Note_on_c, 0, 47, 80
1, 159489, Note_off_c, 7, 56, 112
1, 159494, Note_on_c, 7, 52, 112
1, 159504, Note_on_c, 9, 38, 40
1, 159508, Note_off_c, 9, 38, 40
1, 159540, Note_off_c, 7, 54, 112
1, 159548, Note_on_c, 7, 51, 112
1, 159568, Note_on_c, 9, 38, 42
1, 159572, Note_off_c, 9, 38, 42
1, 159599, Note_off_c, 7, 52, 112
1, 159610, Note_on_c, 7, 49, 95
1, 159616, Note_off_c, 0, 47, 80
1, 159616, Note_on_c, 0, 49, 100
1, 159648, Note_on_c, 9, 38, 54
1, 159652, Note_off_c, 9, 38, 54
1, 159663, Note_off_c, 7, 51, 112
1, 159696, Note_on_c, 7, 47, 124
1, 159712, Note_on_c, 9, 38, 52
1, 159716, Note_off_c, 9, 38, 52
1, 159744, Note_off_c, 0, 49, 100
1, 159744, Note_on_c, 0, 47, 68
1, 159770, Note_off_c, 7, 49, 95
1, 159776, Note_on_c, 9, 38, 44
1, 159780, Note_off_c, 9, 38, 44
1, 159856, Note_on_c, 9, 38, 44
1, 159860, Note_off_c, 9, 38, 44
1, 159872, Note_off_c, 0, 47, 68
1, 159872, Note_on_c, 0, 49, 116
1, 159912, Note_on_c, 7, 49, 101
1, 159920, Note_on_c, 9, 38, 52
1, 159924, Note_off_c, 9, 38, 52
1, 159984, Note_on_c, 9, 38, 46
1, 159986, Note_off_c, 7, 47, 124
1, 159988, Note_off_c, 9, 38, 46
1, 159998, Note_on_c, 7, 51, 109
1, 160000, Note_off_c, 0, 49, 116
1, 160000, Note_on_c, 0, 47, 112
1, 160064, Note_on_c, 9, 38, 46
1, 160068, Note_off_c, 9, 38, 46
1, 160079, Note_off_c, 7, 49, 101
1, 160090, Note_on_c, 7, 52, 80
1, 160128, Note_off_c, 0, 47, 112
1, 160128, Note_on_c, 0, 49, 116
1, 160144, Note_on_c, 9, 38, 40
1, 160148, Note_off_c, 9, 38, 40
1, 160157, Note_off_c, 7, 51, 109
1, 160161, Note_on_c, 7, 54, 107
1, 160222, Note_on_c, 7, 56, 112
1, 160224, Note_on_c, 9, 38, 52
1, 160227, Note_off_c, 7, 52, 80
1, 160228, Note_off_c, 9, 38, 52
1, 160256, Note_off_c, 0, 49, 116
1, 160256, Note_on_c, 0, 47, 95
1, 160291, Note_off_c, 7, 54, 107
1, 160295, Note_on_c, 7, 58, 80
1, 160320, Note_on_c, 9, 38, 28
1, 160324, Note_off_c, 9, 38, 28
1, 160351, Note_on_c, 7, 59, 95
1, 160355, Note_off_c, 7, 56, 112
1, 160368, Note_on_c, 9, 38, 28
1, 160372, Note_off_c, 9, 38, 28
1, 160384, Note_off_c, 0, 47, 95
1, 160384, Note_on_c, 0, 49, 100
1, 160412, Note_on_c, 7, 61, 112
1, 160421, Note_off_c, 7, 58, 80
1, 160448, Note_on_c, 9, 38, 36
1, 160452, Note_off_c, 9, 38, 36
1, 160479, Note_off_c, 7, 59, 95
1, 160485, Note_on_c, 7, 63, 112
1, 160512, Note_off_c, 0, 49, 100
1, 160512, Note_on_c, 0, 47, 80
1, 160528, Note_on_c, 9, 38, 48
1, 160532, Note_off_c, 9, 38, 48
1, 160545, Note_off_c, 7, 61, 112
1, 160549, Note_on_c, 7, 64, 95
1, 160600, Note_off_c, 7, 63, 112
1, 160608, Note_on_c, 9, 38, 48
1, 160612, Note_off_c, 9, 38, 48
1, 160612, Note_on_c, 7, 66, 95
1, 160640, Note_off_c, 0, 47, 80
1, 160640, Note_on_c, 0, 49, 100
1, 160651, Note_off_c, 7, 64, 95
1, 160662, Note_on_c, 7, 68, 112
1, 160688, Note_on_c, 9, 38, 50
1, 160692, Note_off_c, 9, 38, 50
1, 160713, Note_off_c, 7, 66, 95
1, 160720, Note_on_c, 7, 70, 112
1, 160752, Note_on_c, 9, 38, 48
1, 160756, Note_off_c, 9, 38, 48
1, 160767, Note_off_c, 7, 68, 112
1, 160768, Note_off_c, 0, 49, 100
1, 160768, Note_on_c, 0, 47, 112
1, 160787, Note_on_c, 7, 71, 80
1, 160832, Note_off_c, 7, 70, 112
1, 160832, Note_on_c, 9, 38, 46
1, 160836, Note_off_c, 9, 38, 46
1, 160840, Note_on_c, 7, 73, 95
1, 160883, Note_off_c, 7, 71, 80
1, 160896, Note_off_c, 0, 47, 112
1, 160896, Note_on_c, 0, 49, 100
1, 160902, Note_on_c, 7, 75, 95
1, 160912, Note_on_c, 9, 38, 58
1, 160916, Note_off_c, 9, 38, 58
1, 160952, Note_off_c, 7, 73, 95
1, 160970, Note_on_c, 7, 76, 80
1, 160976, Note_on_c, 9, 38, 60
1, 160980, Note_off_c, 9, 38, 60
1, 161016, Note_off_c, 7, 75, 95
1, 161024, Note_off_c, 0, 49, 100
1, 161024, Note_on_c, 0, 47, 80
1, 161028, Note_on_c, 7, 78, 115
1, 161040, Note_on_c, 9, 38, 70
1, 161044, Note_off_c, 9, 38, 70
1, 161070, Note_off_c, 7, 76, 80
1, 161085, Note_on_c, 7, 80, 95
1, 161120, Note_on_c, 9, 38, 54
1, 161124, Note_off_c, 9, 38, 54
1, 161129, Note_off_c, 7, 78, 115
1, 161152, Note_off_c, 0, 47, 80
1, 161152, Note_on_c, 7, 82, 107
1, 161152, Note_on_c, 0, 49, 100
1, 161172, Note_off_c, 1, 47, 112
1, 161184, Note_off_c, 13, 54, 112
1, 161184, Note_off_c, 13, 51, 116
1, 161184, Note_off_c, 14, 47, 108
1, 161184, Note_off_c, 14, 47, 112
1, 161184, Note_on_c, 9, 38, 65
1, 161188, Note_off_c, 9, 38, 65
1, 161200, Note_off_c, 7, 80, 95
1, 161280, Note_off_c, 0, 49, 100
1, 161280, Note_off_c, 7, 82, 107
1, 161280, Note_off_c, 2, 66, 101
1, 161280, Note_off_c, 2, 54, 101
1, 161280, Note_on_c, 14, 47, 127
1, 161280, Note_on_c, 14, 47, 108
1, 161280, Note_on_c, 13, 51, 127
1, 161280, Note_on_c, 13, 54, 127
1, 161280, Note_on_c, 7, 83, 125
1, 161280, Note_on_c, 2, 47, 101
1, 161280, Note_on_c, 2, 59, 101
1, 161280, Note_on_c, 1, 35, 127
1, 161280, Note_on_c, 0, 47, 95
1, 161280, Note_on_c, 9, 38, 127
1, 161280, Note_on_c, 9, 36, 127
1, 161284, Note_off_c, 9, 36, 127
1, 161284, Note_off_c, 9, 38, 127
1, 161376, Note_off_c, 7, 83, 125
1, 161408, Note_off_c, 0, 47, 95
1, 161424, Note_off_c, 13, 54, 127
1, 161424, Note_off_c, 13, 51, 127
1, 161424, Note_off_c, 14, 47, 108
1, 161424, Note_off_c, 14, 47, 127
1, 161448, Note_off_c, 15, 71, 112
1, 161460, Note_off_c, 1, 35, 127
1, 161464, Note_off_c, 8, 95, 68
1, 161466, Note_off_c, 2, 83, 97
1, 161466, Note_off_c, 2, 78, 97
1, 161466, Note_off_c, 2, 75, 97
1, 161466, Note_off_c, 2, 71, 97
1, 161466, Note_off_c, 2, 47, 97
1, 161466, Note_off_c, 2, 35, 97
1, 161472, Note_off_c, 2, 59, 101
1, 161472, Note_off_c, 2, 47, 101
1, 161472, Note_off_c, 10, 78, 116
1, 161472, Note_off_c, 10, 75, 116
1, 161472, Note_off_c, 12, 54, 112
1, 161472, Note_off_c, 10, 71, 116
1, 161472, Note_off_c, 2, 71, 101
1, 161472, Note_off_c, 3, 95, 120
1, 161472, Note_off_c, 3, 90, 120
1, 161472, Note_off_c, 3, 87, 120
1, 161472, Note_off_c, 3, 83, 120
1, 164193, System_exclusive, 5, 126, 127, 9, 1, 247
1, 164271, System_exclusive, 10, 65, 16, 66, 18, 64, 0, 127, 127, 66, 247
1, 164352, End_track
0, 0, End_of_file
