0, 0, Header, 1, 11, 120
1, 0, Start_track
1, 0, Sequencer_specific, 3, 0, 0, 65
1, 0, Time_signature, 4, 2, 24, 8
1, 0, Key_signature, 0, "major"
1, 0, Tempo, 857143
1, 0, Marker_t, "Intro"
1, 1920, Marker_t, "Verse 1"
1, 5760, Marker_t, "Chorus"
1, 7200, Marker_t, "Fill"
1, 9120, Marker_t, "Verse 2"
1, 12960, Marker_t, "Chorus 2"
1, 14400, Marker_t, "Fill 2"
1, 16320, Marker_t, "Bridge"
1, 17760, Marker_t, "Fill 3"
1, 19680, Marker_t, "Verse 3"
1, 23520, Marker_t, "Chorus 3"
1, 24960, Marker_t, "Fill 4"
1, 28790, Tempo, 857143
1, 28810, Tempo, 863309
1, 28830, Tempo, 869565
1, 28840, Tempo, 875912
1, 28860, Tempo, 882353
1, 28870, Tempo, 888889
1, 28890, Tempo, 895522
1, 28910, Tempo, 902256
1, 28920, Tempo, 909091
1, 28940, Tempo, 916031
1, 28950, Tempo, 923077
1, 28970, Tempo, 930233
1, 28990, Tempo, 937500
1, 29000, Tempo, 944882
1, 29020, Tempo, 952381
1, 29030, Tempo, 960000
1, 29050, Tempo, 967742
1, 29070, Tempo, 975610
1, 29080, Tempo, 983607
1, 29100, Tempo, 991736
1, 29110, Tempo, 1000000
1, 29130, Tempo, 1008403
1, 29150, Tempo, 1016949
1, 29160, Tempo, 1025641
1, 29180, Tempo, 1034483
1, 29190, Tempo, 1043478
1, 29210, Tempo, 1052632
1, 29230, Tempo, 1061947
1, 29240, Tempo, 1071429
1, 29260, Tempo, 1081081
1, 29270, Tempo, 1090909
1, 29270, End_track
2, 0, Start_track
2, 0, MIDI_port, 0
2, 0, Title_t, "Electric Bass"
2, 0, Program_c, 0, 33
2, 0, Control_c, 0, 7, 127
2, 0, Control_c, 0, 10, 64
2, 5760, Note_on_c, 0, 29, 100
2, 5835, Note_on_c, 0, 29, 0
2, 5880, Note_on_c, 0, 29, 100
2, 5955, Note_on_c, 0, 29, 0
2, 5981, Note_on_c, 0, 29, 100
2, 6011, Note_on_c, 0, 29, 0
2, 6038, Note_on_c, 0, 29, 100
2, 6068, Note_on_c, 0, 29, 0
2, 6090, Note_on_c, 0, 29, 100
2, 6120, Note_on_c, 0, 29, 0
2, 6120, Note_on_c, 0, 29, 100
2, 6150, Note_on_c, 0, 29, 0
2, 6180, Note_on_c, 0, 29, 100
2, 6210, Note_on_c, 0, 29, 0
2, 6240, Note_on_c, 0, 27, 100
2, 6315, Note_on_c, 0, 27, 0
2, 6360, Note_on_c, 0, 27, 100
2, 6435, Note_on_c, 0, 27, 0
2, 6461, Note_on_c, 0, 27, 100
2, 6491, Note_on_c, 0, 27, 0
2, 6518, Note_on_c, 0, 27, 100
2, 6548, Note_on_c, 0, 27, 0
2, 6570, Note_on_c, 0, 27, 100
2, 6600, Note_on_c, 0, 27, 0
2, 6600, Note_on_c, 0, 27, 100
2, 6630, Note_on_c, 0, 27, 0
2, 6660, Note_on_c, 0, 27, 100
2, 6690, Note_on_c, 0, 27, 0
2, 6720, Note_on_c, 0, 26, 100
2, 6795, Note_on_c, 0, 26, 0
2, 6840, Note_on_c, 0, 26, 100
2, 6915, Note_on_c, 0, 26, 0
2, 6941, Note_on_c, 0, 26, 100
2, 6971, Note_on_c, 0, 26, 0
2, 6998, Note_on_c, 0, 26, 100
2, 7028, Note_on_c, 0, 26, 0
2, 7050, Note_on_c, 0, 26, 100
2, 7080, Note_on_c, 0, 26, 0
2, 7080, Note_on_c, 0, 26, 100
2, 7110, Note_on_c, 0, 26, 0
2, 7140, Note_on_c, 0, 26, 100
2, 7170, Note_on_c, 0, 26, 0
2, 7200, Note_on_c, 0, 36, 100
2, 7380, Note_on_c, 0, 36, 0
2, 7380, Note_on_c, 0, 34, 100
2, 7680, Note_on_c, 0, 34, 0
2, 7680, Note_on_c, 0, 36, 100
2, 7860, Note_on_c, 0, 36, 0
2, 7860, Note_on_c, 0, 31, 100
2, 8160, Note_on_c, 0, 31, 0
2, 8160, Note_on_c, 0, 36, 100
2, 8340, Note_on_c, 0, 36, 0
2, 8340, Note_on_c, 0, 34, 100
2, 8640, Note_on_c, 0, 34, 0
2, 8640, Note_on_c, 0, 36, 100
2, 8820, Note_on_c, 0, 36, 0
2, 8820, Note_on_c, 0, 31, 100
2, 9120, Note_on_c, 0, 31, 0
2, 12960, Note_on_c, 0, 29, 100
2, 13035, Note_on_c, 0, 29, 0
2, 13080, Note_on_c, 0, 29, 100
2, 13155, Note_on_c, 0, 29, 0
2, 13181, Note_on_c, 0, 29, 100
2, 13211, Note_on_c, 0, 29, 0
2, 13238, Note_on_c, 0, 29, 100
2, 13268, Note_on_c, 0, 29, 0
2, 13290, Note_on_c, 0, 29, 100
2, 13320, Note_on_c, 0, 29, 0
2, 13320, Note_on_c, 0, 29, 100
2, 13350, Note_on_c, 0, 29, 0
2, 13380, Note_on_c, 0, 29, 100
2, 13410, Note_on_c, 0, 29, 0
2, 13440, Note_on_c, 0, 27, 100
2, 13515, Note_on_c, 0, 27, 0
2, 13560, Note_on_c, 0, 27, 100
2, 13635, Note_on_c, 0, 27, 0
2, 13661, Note_on_c, 0, 27, 100
2, 13691, Note_on_c, 0, 27, 0
2, 13718, Note_on_c, 0, 27, 100
2, 13748, Note_on_c, 0, 27, 0
2, 13770, Note_on_c, 0, 27, 100
2, 13800, Note_on_c, 0, 27, 0
2, 13800, Note_on_c, 0, 27, 100
2, 13830, Note_on_c, 0, 27, 0
2, 13860, Note_on_c, 0, 27, 100
2, 13890, Note_on_c, 0, 27, 0
2, 13920, Note_on_c, 0, 26, 100
2, 13995, Note_on_c, 0, 26, 0
2, 14040, Note_on_c, 0, 26, 100
2, 14115, Note_on_c, 0, 26, 0
2, 14141, Note_on_c, 0, 26, 100
2, 14171, Note_on_c, 0, 26, 0
2, 14198, Note_on_c, 0, 26, 100
2, 14228, Note_on_c, 0, 26, 0
2, 14250, Note_on_c, 0, 26, 100
2, 14280, Note_on_c, 0, 26, 0
2, 14280, Note_on_c, 0, 26, 100
2, 14310, Note_on_c, 0, 26, 0
2, 14340, Note_on_c, 0, 26, 100
2, 14370, Note_on_c, 0, 26, 0
2, 14400, Note_on_c, 0, 36, 100
2, 14580, Note_on_c, 0, 36, 0
2, 14580, Note_on_c, 0, 34, 100
2, 14880, Note_on_c, 0, 34, 0
2, 14880, Note_on_c, 0, 36, 100
2, 15060, Note_on_c, 0, 36, 0
2, 15060, Note_on_c, 0, 31, 100
2, 15360, Note_on_c, 0, 31, 0
2, 15360, Note_on_c, 0, 36, 100
2, 15540, Note_on_c, 0, 36, 0
2, 15540, Note_on_c, 0, 34, 100
2, 15840, Note_on_c, 0, 34, 0
2, 15840, Note_on_c, 0, 36, 100
2, 16020, Note_on_c, 0, 36, 0
2, 16320, Note_on_c, 0, 36, 100
2, 16680, Note_on_c, 0, 36, 0
2, 16680, Note_on_c, 0, 36, 100
2, 16800, Note_on_c, 0, 36, 0
2, 16800, Note_on_c, 0, 29, 100
2, 17160, Note_on_c, 0, 29, 0
2, 17160, Note_on_c, 0, 29, 100
2, 17280, Note_on_c, 0, 29, 0
2, 17280, Note_on_c, 0, 38, 100
2, 17640, Note_on_c, 0, 38, 0
2, 17640, Note_on_c, 0, 38, 100
2, 17760, Note_on_c, 0, 38, 0
2, 17760, Note_on_c, 0, 36, 100
2, 17940, Note_on_c, 0, 36, 0
2, 17940, Note_on_c, 0, 34, 100
2, 18240, Note_on_c, 0, 34, 0
2, 18240, Note_on_c, 0, 36, 100
2, 18420, Note_on_c, 0, 36, 0
2, 18420, Note_on_c, 0, 31, 100
2, 18720, Note_on_c, 0, 31, 0
2, 18720, Note_on_c, 0, 36, 100
2, 18900, Note_on_c, 0, 36, 0
2, 18900, Note_on_c, 0, 34, 100
2, 19200, Note_on_c, 0, 34, 0
2, 19200, Note_on_c, 0, 36, 100
2, 19380, Note_on_c, 0, 36, 0
2, 19380, Note_on_c, 0, 31, 100
2, 19680, Note_on_c, 0, 31, 0
2, 23520, Note_on_c, 0, 29, 100
2, 23595, Note_on_c, 0, 29, 0
2, 23640, Note_on_c, 0, 29, 100
2, 23715, Note_on_c, 0, 29, 0
2, 23741, Note_on_c, 0, 29, 100
2, 23771, Note_on_c, 0, 29, 0
2, 23798, Note_on_c, 0, 29, 100
2, 23828, Note_on_c, 0, 29, 0
2, 23850, Note_on_c, 0, 29, 100
2, 23880, Note_on_c, 0, 29, 0
2, 23880, Note_on_c, 0, 29, 100
2, 23910, Note_on_c, 0, 29, 0
2, 23940, Note_on_c, 0, 29, 100
2, 23970, Note_on_c, 0, 29, 0
2, 24000, Note_on_c, 0, 27, 100
2, 24075, Note_on_c, 0, 27, 0
2, 24120, Note_on_c, 0, 27, 100
2, 24195, Note_on_c, 0, 27, 0
2, 24221, Note_on_c, 0, 27, 100
2, 24251, Note_on_c, 0, 27, 0
2, 24278, Note_on_c, 0, 27, 100
2, 24308, Note_on_c, 0, 27, 0
2, 24330, Note_on_c, 0, 27, 100
2, 24360, Note_on_c, 0, 27, 0
2, 24360, Note_on_c, 0, 27, 100
2, 24390, Note_on_c, 0, 27, 0
2, 24420, Note_on_c, 0, 27, 100
2, 24450, Note_on_c, 0, 27, 0
2, 24480, Note_on_c, 0, 26, 100
2, 24555, Note_on_c, 0, 26, 0
2, 24600, Note_on_c, 0, 26, 100
2, 24675, Note_on_c, 0, 26, 0
2, 24701, Note_on_c, 0, 26, 100
2, 24731, Note_on_c, 0, 26, 0
2, 24758, Note_on_c, 0, 26, 100
2, 24788, Note_on_c, 0, 26, 0
2, 24810, Note_on_c, 0, 26, 100
2, 24840, Note_on_c, 0, 26, 0
2, 24840, Note_on_c, 0, 26, 100
2, 24870, Note_on_c, 0, 26, 0
2, 24900, Note_on_c, 0, 26, 100
2, 24930, Note_on_c, 0, 26, 0
2, 24960, Note_on_c, 0, 36, 100
2, 25140, Note_on_c, 0, 36, 0
2, 25140, Note_on_c, 0, 34, 100
2, 25440, Note_on_c, 0, 34, 0
2, 25440, Note_on_c, 0, 36, 100
2, 25620, Note_on_c, 0, 36, 0
2, 25620, Note_on_c, 0, 31, 100
2, 25920, Note_on_c, 0, 31, 0
2, 25920, Note_on_c, 0, 36, 100
2, 26100, Note_on_c, 0, 36, 0
2, 26100, Note_on_c, 0, 34, 100
2, 26400, Note_on_c, 0, 34, 0
2, 26400, Note_on_c, 0, 36, 100
2, 26580, Note_on_c, 0, 36, 0
2, 26580, Note_on_c, 0, 31, 100
2, 26880, Note_on_c, 0, 31, 0
2, 26880, End_track
3, 0, Start_track
3, 0, MIDI_port, 0
3, 0, Title_t, "SynthStrings 1"
3, 0, Program_c, 1, 50
3, 0, Control_c, 1, 7, 80
3, 0, Control_c, 1, 10, 64
3, 0, Note_on_c, 1, 60, 100
3, 0, Note_on_c, 1, 64, 100
3, 0, Note_on_c, 1, 48, 127
3, 0, Note_on_c, 1, 55, 100
3, 180, Note_on_c, 1, 48, 0
3, 180, Note_on_c, 1, 60, 0
3, 180, Note_on_c, 1, 64, 0
3, 180, Note_on_c, 1, 60, 100
3, 180, Note_on_c, 1, 46, 127
3, 180, Note_on_c, 1, 63, 100
3, 180, Note_on_c, 1, 58, 100
3, 480, Note_on_c, 1, 58, 0
3, 480, Note_on_c, 1, 46, 0
3, 480, Note_on_c, 1, 55, 0
3, 480, Note_on_c, 1, 60, 0
3, 480, Note_on_c, 1, 63, 0
3, 480, Note_on_c, 1, 60, 100
3, 480, Note_on_c, 1, 64, 100
3, 480, Note_on_c, 1, 48, 127
3, 480, Note_on_c, 1, 55, 100
3, 660, Note_on_c, 1, 48, 0
3, 660, Note_on_c, 1, 60, 0
3, 660, Note_on_c, 1, 64, 0
3, 660, Note_on_c, 1, 60, 100
3, 660, Note_on_c, 1, 62, 100
3, 660, Note_on_c, 1, 65, 100
3, 660, Note_on_c, 1, 58, 100
3, 660, Note_on_c, 1, 43, 127
3, 960, Note_on_c, 1, 43, 0
3, 960, Note_on_c, 1, 60, 0
3, 960, Note_on_c, 1, 62, 0
3, 960, Note_on_c, 1, 55, 0
3, 960, Note_on_c, 1, 58, 0
3, 960, Note_on_c, 1, 65, 0
3, 960, Note_on_c, 1, 60, 100
3, 960, Note_on_c, 1, 64, 100
3, 960, Note_on_c, 1, 48, 127
3, 960, Note_on_c, 1, 55, 100
3, 1140, Note_on_c, 1, 48, 0
3, 1140, Note_on_c, 1, 60, 0
3, 1140, Note_on_c, 1, 64, 0
3, 1140, Note_on_c, 1, 60, 100
3, 1140, Note_on_c, 1, 46, 127
3, 1140, Note_on_c, 1, 63, 100
3, 1140, Note_on_c, 1, 58, 100
3, 1440, Note_on_c, 1, 58, 0
3, 1440, Note_on_c, 1, 46, 0
3, 1440, Note_on_c, 1, 55, 0
3, 1440, Note_on_c, 1, 60, 0
3, 1440, Note_on_c, 1, 63, 0
3, 1440, Note_on_c, 1, 60, 100
3, 1440, Note_on_c, 1, 64, 100
3, 1440, Note_on_c, 1, 48, 127
3, 1440, Note_on_c, 1, 55, 100
3, 1620, Note_on_c, 1, 48, 0
3, 1620, Note_on_c, 1, 60, 0
3, 1620, Note_on_c, 1, 64, 0
3, 1620, Note_on_c, 1, 60, 100
3, 1620, Note_on_c, 1, 62, 100
3, 1620, Note_on_c, 1, 65, 100
3, 1620, Note_on_c, 1, 58, 100
3, 1620, Note_on_c, 1, 43, 127
3, 1920, Note_on_c, 1, 43, 0
3, 1920, Note_on_c, 1, 60, 0
3, 1920, Note_on_c, 1, 62, 0
3, 1920, Note_on_c, 1, 55, 0
3, 1920, Note_on_c, 1, 58, 0
3, 1920, Note_on_c, 1, 65, 0
3, 1920, Note_on_c, 1, 67, 100
3, 1920, Note_on_c, 1, 64, 100
3, 1920, Note_on_c, 1, 60, 100
3, 2400, Note_on_c, 1, 60, 0
3, 2400, Note_on_c, 1, 64, 0
3, 2400, Note_on_c, 1, 67, 0
3, 2400, Note_on_c, 1, 67, 100
3, 2400, Note_on_c, 1, 63, 100
3, 2400, Note_on_c, 1, 58, 100
3, 2880, Note_on_c, 1, 58, 0
3, 2880, Note_on_c, 1, 63, 0
3, 2880, Note_on_c, 1, 67, 0
3, 2880, Note_on_c, 1, 65, 100
3, 2880, Note_on_c, 1, 60, 100
3, 2880, Note_on_c, 1, 57, 100
3, 3360, Note_on_c, 1, 57, 0
3, 3360, Note_on_c, 1, 60, 0
3, 3360, Note_on_c, 1, 65, 0
3, 3360, Note_on_c, 1, 65, 100
3, 3360, Note_on_c, 1, 60, 100
3, 3360, Note_on_c, 1, 63, 100
3, 3360, Note_on_c, 1, 56, 100
3, 3600, Note_on_c, 1, 56, 0
3, 3600, Note_on_c, 1, 65, 0
3, 3600, Note_on_c, 1, 60, 0
3, 3600, Note_on_c, 1, 63, 0
3, 3600, Note_on_c, 1, 60, 100
3, 3600, Note_on_c, 1, 65, 100
3, 3600, Note_on_c, 1, 62, 100
3, 3600, Note_on_c, 1, 58, 100
3, 3840, Note_on_c, 1, 58, 0
3, 3840, Note_on_c, 1, 60, 0
3, 3840, Note_on_c, 1, 65, 0
3, 3840, Note_on_c, 1, 62, 0
3, 3840, Note_on_c, 1, 67, 100
3, 3840, Note_on_c, 1, 64, 100
3, 3840, Note_on_c, 1, 60, 100
3, 4320, Note_on_c, 1, 60, 0
3, 4320, Note_on_c, 1, 64, 0
3, 4320, Note_on_c, 1, 67, 0
3, 4320, Note_on_c, 1, 67, 100
3, 4320, Note_on_c, 1, 63, 100
3, 4320, Note_on_c, 1, 58, 100
3, 4800, Note_on_c, 1, 58, 0
3, 4800, Note_on_c, 1, 63, 0
3, 4800, Note_on_c, 1, 67, 0
3, 4800, Note_on_c, 1, 65, 100
3, 4800, Note_on_c, 1, 60, 100
3, 4800, Note_on_c, 1, 57, 100
3, 5280, Note_on_c, 1, 57, 0
3, 5280, Note_on_c, 1, 60, 0
3, 5280, Note_on_c, 1, 65, 0
3, 5280, Note_on_c, 1, 65, 100
3, 5280, Note_on_c, 1, 60, 100
3, 5280, Note_on_c, 1, 63, 100
3, 5280, Note_on_c, 1, 56, 100
3, 5520, Note_on_c, 1, 56, 0
3, 5520, Note_on_c, 1, 65, 0
3, 5520, Note_on_c, 1, 60, 0
3, 5520, Note_on_c, 1, 63, 0
3, 5520, Note_on_c, 1, 60, 100
3, 5520, Note_on_c, 1, 65, 100
3, 5520, Note_on_c, 1, 62, 100
3, 5520, Note_on_c, 1, 58, 100
3, 5760, Note_on_c, 1, 58, 0
3, 5760, Note_on_c, 1, 60, 0
3, 5760, Note_on_c, 1, 65, 0
3, 5760, Note_on_c, 1, 62, 0
3, 5760, Note_on_c, 1, 65, 100
3, 5760, Note_on_c, 1, 41, 100
3, 5760, Note_on_c, 1, 60, 100
3, 5760, Note_on_c, 1, 57, 100
3, 5760, Note_on_c, 1, 53, 100
3, 6240, Note_on_c, 1, 53, 0
3, 6240, Note_on_c, 1, 60, 0
3, 6240, Note_on_c, 1, 65, 0
3, 6240, Note_on_c, 1, 41, 0
3, 6240, Note_on_c, 1, 57, 0
3, 6240, Note_on_c, 1, 65, 100
3, 6240, Note_on_c, 1, 63, 100
3, 6240, Note_on_c, 1, 60, 100
3, 6240, Note_on_c, 1, 58, 100
3, 6240, Note_on_c, 1, 55, 100
3, 6240, Note_on_c, 1, 51, 100
3, 6240, Note_on_c, 1, 39, 100
3, 6720, Note_on_c, 1, 39, 0
3, 6720, Note_on_c, 1, 55, 0
3, 6720, Note_on_c, 1, 63, 0
3, 6720, Note_on_c, 1, 60, 0
3, 6720, Note_on_c, 1, 65, 0
3, 6720, Note_on_c, 1, 51, 0
3, 6720, Note_on_c, 1, 58, 0
3, 6720, Note_on_c, 1, 38, 100
3, 6720, Note_on_c, 1, 60, 100
3, 6720, Note_on_c, 1, 57, 100
3, 6720, Note_on_c, 1, 65, 100
3, 6720, Note_on_c, 1, 62, 100
3, 7200, Note_on_c, 1, 62, 0
3, 7200, Note_on_c, 1, 57, 0
3, 7200, Note_on_c, 1, 38, 0
3, 7200, Note_on_c, 1, 60, 0
3, 7200, Note_on_c, 1, 65, 0
3, 7200, Note_on_c, 1, 60, 100
3, 7200, Note_on_c, 1, 64, 100
3, 7200, Note_on_c, 1, 48, 127
3, 7200, Note_on_c, 1, 55, 100
3, 7380, Note_on_c, 1, 48, 0
3, 7380, Note_on_c, 1, 60, 0
3, 7380, Note_on_c, 1, 64, 0
3, 7380, Note_on_c, 1, 60, 100
3, 7380, Note_on_c, 1, 46, 127
3, 7380, Note_on_c, 1, 63, 100
3, 7380, Note_on_c, 1, 58, 100
3, 7680, Note_on_c, 1, 58, 0
3, 7680, Note_on_c, 1, 46, 0
3, 7680, Note_on_c, 1, 55, 0
3, 7680, Note_on_c, 1, 60, 0
3, 7680, Note_on_c, 1, 63, 0
3, 7680, Note_on_c, 1, 60, 100
3, 7680, Note_on_c, 1, 64, 100
3, 7680, Note_on_c, 1, 48, 127
3, 7680, Note_on_c, 1, 55, 100
3, 7860, Note_on_c, 1, 48, 0
3, 7860, Note_on_c, 1, 60, 0
3, 7860, Note_on_c, 1, 64, 0
3, 7860, Note_on_c, 1, 60, 100
3, 7860, Note_on_c, 1, 62, 100
3, 7860, Note_on_c, 1, 65, 100
3, 7860, Note_on_c, 1, 58, 100
3, 7860, Note_on_c, 1, 43, 127
3, 8160, Note_on_c, 1, 43, 0
3, 8160, Note_on_c, 1, 60, 0
3, 8160, Note_on_c, 1, 62, 0
3, 8160, Note_on_c, 1, 55, 0
3, 8160, Note_on_c, 1, 58, 0
3, 8160, Note_on_c, 1, 65, 0
3, 8160, Note_on_c, 1, 60, 100
3, 8160, Note_on_c, 1, 64, 100
3, 8160, Note_on_c, 1, 48, 127
3, 8160, Note_on_c, 1, 55, 100
3, 8340, Note_on_c, 1, 48, 0
3, 8340, Note_on_c, 1, 60, 0
3, 8340, Note_on_c, 1, 64, 0
3, 8340, Note_on_c, 1, 60, 100
3, 8340, Note_on_c, 1, 46, 127
3, 8340, Note_on_c, 1, 63, 100
3, 8340, Note_on_c, 1, 58, 100
3, 8640, Note_on_c, 1, 58, 0
3, 8640, Note_on_c, 1, 46, 0
3, 8640, Note_on_c, 1, 55, 0
3, 8640, Note_on_c, 1, 60, 0
3, 8640, Note_on_c, 1, 63, 0
3, 8640, Note_on_c, 1, 60, 100
3, 8640, Note_on_c, 1, 64, 100
3, 8640, Note_on_c, 1, 48, 127
3, 8640, Note_on_c, 1, 55, 100
3, 8820, Note_on_c, 1, 48, 0
3, 8820, Note_on_c, 1, 60, 0
3, 8820, Note_on_c, 1, 64, 0
3, 8820, Note_on_c, 1, 60, 100
3, 8820, Note_on_c, 1, 62, 100
3, 8820, Note_on_c, 1, 65, 100
3, 8820, Note_on_c, 1, 58, 100
3, 8820, Note_on_c, 1, 43, 127
3, 9120, Note_on_c, 1, 43, 0
3, 9120, Note_on_c, 1, 60, 0
3, 9120, Note_on_c, 1, 62, 0
3, 9120, Note_on_c, 1, 55, 0
3, 9120, Note_on_c, 1, 58, 0
3, 9120, Note_on_c, 1, 65, 0
3, 9120, Note_on_c, 1, 67, 100
3, 9120, Note_on_c, 1, 64, 100
3, 9120, Note_on_c, 1, 60, 100
3, 9600, Note_on_c, 1, 60, 0
3, 9600, Note_on_c, 1, 64, 0
3, 9600, Note_on_c, 1, 67, 0
3, 9600, Note_on_c, 1, 67, 100
3, 9600, Note_on_c, 1, 63, 100
3, 9600, Note_on_c, 1, 58, 100
3, 10080, Note_on_c, 1, 58, 0
3, 10080, Note_on_c, 1, 63, 0
3, 10080, Note_on_c, 1, 67, 0
3, 10080, Note_on_c, 1, 65, 100
3, 10080, Note_on_c, 1, 60, 100
3, 10080, Note_on_c, 1, 57, 100
3, 10560, Note_on_c, 1, 57, 0
3, 10560, Note_on_c, 1, 60, 0
3, 10560, Note_on_c, 1, 65, 0
3, 10560, Note_on_c, 1, 65, 100
3, 10560, Note_on_c, 1, 60, 100
3, 10560, Note_on_c, 1, 63, 100
3, 10560, Note_on_c, 1, 56, 100
3, 10800, Note_on_c, 1, 56, 0
3, 10800, Note_on_c, 1, 65, 0
3, 10800, Note_on_c, 1, 60, 0
3, 10800, Note_on_c, 1, 63, 0
3, 10800, Note_on_c, 1, 60, 100
3, 10800, Note_on_c, 1, 65, 100
3, 10800, Note_on_c, 1, 62, 100
3, 10800, Note_on_c, 1, 58, 100
3, 11040, Note_on_c, 1, 58, 0
3, 11040, Note_on_c, 1, 60, 0
3, 11040, Note_on_c, 1, 65, 0
3, 11040, Note_on_c, 1, 62, 0
3, 11040, Note_on_c, 1, 67, 100
3, 11040, Note_on_c, 1, 64, 100
3, 11040, Note_on_c, 1, 60, 100
3, 11520, Note_on_c, 1, 60, 0
3, 11520, Note_on_c, 1, 64, 0
3, 11520, Note_on_c, 1, 67, 0
3, 11520, Note_on_c, 1, 67, 100
3, 11520, Note_on_c, 1, 63, 100
3, 11520, Note_on_c, 1, 58, 100
3, 12000, Note_on_c, 1, 58, 0
3, 12000, Note_on_c, 1, 63, 0
3, 12000, Note_on_c, 1, 67, 0
3, 12000, Note_on_c, 1, 65, 100
3, 12000, Note_on_c, 1, 60, 100
3, 12000, Note_on_c, 1, 57, 100
3, 12480, Note_on_c, 1, 57, 0
3, 12480, Note_on_c, 1, 60, 0
3, 12480, Note_on_c, 1, 65, 0
3, 12480, Note_on_c, 1, 65, 100
3, 12480, Note_on_c, 1, 60, 100
3, 12480, Note_on_c, 1, 63, 100
3, 12480, Note_on_c, 1, 56, 100
3, 12720, Note_on_c, 1, 56, 0
3, 12720, Note_on_c, 1, 65, 0
3, 12720, Note_on_c, 1, 60, 0
3, 12720, Note_on_c, 1, 63, 0
3, 12720, Note_on_c, 1, 60, 100
3, 12720, Note_on_c, 1, 65, 100
3, 12720, Note_on_c, 1, 62, 100
3, 12720, Note_on_c, 1, 58, 100
3, 12960, Note_on_c, 1, 58, 0
3, 12960, Note_on_c, 1, 60, 0
3, 12960, Note_on_c, 1, 65, 0
3, 12960, Note_on_c, 1, 62, 0
3, 12960, Note_on_c, 1, 65, 100
3, 12960, Note_on_c, 1, 41, 100
3, 12960, Note_on_c, 1, 60, 100
3, 12960, Note_on_c, 1, 57, 100
3, 12960, Note_on_c, 1, 53, 100
3, 13440, Note_on_c, 1, 53, 0
3, 13440, Note_on_c, 1, 60, 0
3, 13440, Note_on_c, 1, 65, 0
3, 13440, Note_on_c, 1, 41, 0
3, 13440, Note_on_c, 1, 57, 0
3, 13440, Note_on_c, 1, 65, 100
3, 13440, Note_on_c, 1, 63, 100
3, 13440, Note_on_c, 1, 60, 100
3, 13440, Note_on_c, 1, 58, 100
3, 13440, Note_on_c, 1, 55, 100
3, 13440, Note_on_c, 1, 51, 100
3, 13440, Note_on_c, 1, 39, 100
3, 13920, Note_on_c, 1, 39, 0
3, 13920, Note_on_c, 1, 55, 0
3, 13920, Note_on_c, 1, 63, 0
3, 13920, Note_on_c, 1, 60, 0
3, 13920, Note_on_c, 1, 65, 0
3, 13920, Note_on_c, 1, 51, 0
3, 13920, Note_on_c, 1, 58, 0
3, 13920, Note_on_c, 1, 38, 100
3, 13920, Note_on_c, 1, 60, 100
3, 13920, Note_on_c, 1, 57, 100
3, 13920, Note_on_c, 1, 65, 100
3, 13920, Note_on_c, 1, 62, 100
3, 14400, Note_on_c, 1, 62, 0
3, 14400, Note_on_c, 1, 57, 0
3, 14400, Note_on_c, 1, 38, 0
3, 14400, Note_on_c, 1, 60, 0
3, 14400, Note_on_c, 1, 65, 0
3, 14400, Note_on_c, 1, 60, 100
3, 14400, Note_on_c, 1, 64, 100
3, 14400, Note_on_c, 1, 48, 127
3, 14400, Note_on_c, 1, 55, 100
3, 14580, Note_on_c, 1, 48, 0
3, 14580, Note_on_c, 1, 60, 0
3, 14580, Note_on_c, 1, 64, 0
3, 14580, Note_on_c, 1, 60, 100
3, 14580, Note_on_c, 1, 46, 127
3, 14580, Note_on_c, 1, 63, 100
3, 14580, Note_on_c, 1, 58, 100
3, 14880, Note_on_c, 1, 58, 0
3, 14880, Note_on_c, 1, 46, 0
3, 14880, Note_on_c, 1, 55, 0
3, 14880, Note_on_c, 1, 60, 0
3, 14880, Note_on_c, 1, 63, 0
3, 14880, Note_on_c, 1, 60, 100
3, 14880, Note_on_c, 1, 64, 100
3, 14880, Note_on_c, 1, 48, 127
3, 14880, Note_on_c, 1, 55, 100
3, 15060, Note_on_c, 1, 48, 0
3, 15060, Note_on_c, 1, 60, 0
3, 15060, Note_on_c, 1, 64, 0
3, 15060, Note_on_c, 1, 60, 100
3, 15060, Note_on_c, 1, 62, 100
3, 15060, Note_on_c, 1, 65, 100
3, 15060, Note_on_c, 1, 58, 100
3, 15060, Note_on_c, 1, 43, 127
3, 15360, Note_on_c, 1, 43, 0
3, 15360, Note_on_c, 1, 60, 0
3, 15360, Note_on_c, 1, 62, 0
3, 15360, Note_on_c, 1, 55, 0
3, 15360, Note_on_c, 1, 58, 0
3, 15360, Note_on_c, 1, 65, 0
3, 15360, Note_on_c, 1, 60, 100
3, 15360, Note_on_c, 1, 64, 100
3, 15360, Note_on_c, 1, 48, 127
3, 15360, Note_on_c, 1, 55, 100
3, 15540, Note_on_c, 1, 48, 0
3, 15540, Note_on_c, 1, 60, 0
3, 15540, Note_on_c, 1, 64, 0
3, 15540, Note_on_c, 1, 60, 100
3, 15540, Note_on_c, 1, 46, 127
3, 15540, Note_on_c, 1, 63, 100
3, 15540, Note_on_c, 1, 58, 100
3, 15840, Note_on_c, 1, 58, 0
3, 15840, Note_on_c, 1, 46, 0
3, 15840, Note_on_c, 1, 55, 0
3, 15840, Note_on_c, 1, 60, 0
3, 15840, Note_on_c, 1, 63, 0
3, 15840, Note_on_c, 1, 48, 127
3, 15840, Note_on_c, 1, 60, 100
3, 15840, Note_on_c, 1, 64, 100
3, 15840, Note_on_c, 1, 55, 100
3, 16200, Note_on_c, 1, 55, 0
3, 16200, Note_on_c, 1, 48, 0
3, 16200, Note_on_c, 1, 60, 0
3, 16200, Note_on_c, 1, 64, 0
3, 16320, Note_on_c, 1, 67, 100
3, 16320, Note_on_c, 1, 64, 100
3, 16320, Note_on_c, 1, 60, 100
3, 16800, Note_on_c, 1, 60, 0
3, 16800, Note_on_c, 1, 64, 0
3, 16800, Note_on_c, 1, 67, 0
3, 16800, Note_on_c, 1, 69, 100
3, 16800, Note_on_c, 1, 65, 100
3, 16800, Note_on_c, 1, 60, 100
3, 17040, Note_on_c, 1, 53, 100
3, 17160, Note_on_c, 1, 53, 0
3, 17160, Note_on_c, 1, 52, 100
3, 17280, Note_on_c, 1, 52, 0
3, 17280, Note_on_c, 1, 60, 0
3, 17280, Note_on_c, 1, 65, 0
3, 17280, Note_on_c, 1, 69, 0
3, 17280, Note_on_c, 1, 50, 100
3, 17280, Note_on_c, 1, 69, 100
3, 17280, Note_on_c, 1, 65, 100
3, 17280, Note_on_c, 1, 62, 100
3, 17760, Note_on_c, 1, 62, 0
3, 17760, Note_on_c, 1, 50, 0
3, 17760, Note_on_c, 1, 69, 0
3, 17760, Note_on_c, 1, 65, 0
3, 17760, Note_on_c, 1, 60, 100
3, 17760, Note_on_c, 1, 64, 100
3, 17760, Note_on_c, 1, 48, 127
3, 17760, Note_on_c, 1, 55, 100
3, 17940, Note_on_c, 1, 48, 0
3, 17940, Note_on_c, 1, 60, 0
3, 17940, Note_on_c, 1, 64, 0
3, 17940, Note_on_c, 1, 60, 100
3, 17940, Note_on_c, 1, 46, 127
3, 17940, Note_on_c, 1, 63, 100
3, 17940, Note_on_c, 1, 58, 100
3, 18240, Note_on_c, 1, 58, 0
3, 18240, Note_on_c, 1, 46, 0
3, 18240, Note_on_c, 1, 55, 0
3, 18240, Note_on_c, 1, 60, 0
3, 18240, Note_on_c, 1, 63, 0
3, 18240, Note_on_c, 1, 60, 100
3, 18240, Note_on_c, 1, 64, 100
3, 18240, Note_on_c, 1, 48, 127
3, 18240, Note_on_c, 1, 55, 100
3, 18420, Note_on_c, 1, 48, 0
3, 18420, Note_on_c, 1, 60, 0
3, 18420, Note_on_c, 1, 64, 0
3, 18420, Note_on_c, 1, 60, 100
3, 18420, Note_on_c, 1, 62, 100
3, 18420, Note_on_c, 1, 65, 100
3, 18420, Note_on_c, 1, 58, 100
3, 18420, Note_on_c, 1, 43, 127
3, 18720, Note_on_c, 1, 43, 0
3, 18720, Note_on_c, 1, 60, 0
3, 18720, Note_on_c, 1, 62, 0
3, 18720, Note_on_c, 1, 55, 0
3, 18720, Note_on_c, 1, 58, 0
3, 18720, Note_on_c, 1, 65, 0
3, 18720, Note_on_c, 1, 60, 100
3, 18720, Note_on_c, 1, 64, 100
3, 18720, Note_on_c, 1, 48, 127
3, 18720, Note_on_c, 1, 55, 100
3, 18900, Note_on_c, 1, 48, 0
3, 18900, Note_on_c, 1, 60, 0
3, 18900, Note_on_c, 1, 64, 0
3, 18900, Note_on_c, 1, 60, 100
3, 18900, Note_on_c, 1, 46, 127
3, 18900, Note_on_c, 1, 63, 100
3, 18900, Note_on_c, 1, 58, 100
3, 19200, Note_on_c, 1, 58, 0
3, 19200, Note_on_c, 1, 46, 0
3, 19200, Note_on_c, 1, 55, 0
3, 19200, Note_on_c, 1, 60, 0
3, 19200, Note_on_c, 1, 63, 0
3, 19200, Note_on_c, 1, 60, 100
3, 19200, Note_on_c, 1, 64, 100
3, 19200, Note_on_c, 1, 48, 127
3, 19200, Note_on_c, 1, 55, 100
3, 19380, Note_on_c, 1, 48, 0
3, 19380, Note_on_c, 1, 60, 0
3, 19380, Note_on_c, 1, 64, 0
3, 19380, Note_on_c, 1, 60, 100
3, 19380, Note_on_c, 1, 62, 100
3, 19380, Note_on_c, 1, 65, 100
3, 19380, Note_on_c, 1, 58, 100
3, 19380, Note_on_c, 1, 43, 127
3, 19680, Note_on_c, 1, 43, 0
3, 19680, Note_on_c, 1, 60, 0
3, 19680, Note_on_c, 1, 62, 0
3, 19680, Note_on_c, 1, 55, 0
3, 19680, Note_on_c, 1, 58, 0
3, 19680, Note_on_c, 1, 65, 0
3, 19680, Note_on_c, 1, 67, 100
3, 19680, Note_on_c, 1, 64, 100
3, 19680, Note_on_c, 1, 60, 100
3, 20160, Note_on_c, 1, 60, 0
3, 20160, Note_on_c, 1, 64, 0
3, 20160, Note_on_c, 1, 67, 0
3, 20160, Note_on_c, 1, 67, 100
3, 20160, Note_on_c, 1, 63, 100
3, 20160, Note_on_c, 1, 58, 100
3, 20640, Note_on_c, 1, 58, 0
3, 20640, Note_on_c, 1, 63, 0
3, 20640, Note_on_c, 1, 67, 0
3, 20640, Note_on_c, 1, 65, 100
3, 20640, Note_on_c, 1, 60, 100
3, 20640, Note_on_c, 1, 57, 100
3, 21120, Note_on_c, 1, 57, 0
3, 21120, Note_on_c, 1, 60, 0
3, 21120, Note_on_c, 1, 65, 0
3, 21120, Note_on_c, 1, 65, 100
3, 21120, Note_on_c, 1, 60, 100
3, 21120, Note_on_c, 1, 63, 100
3, 21120, Note_on_c, 1, 56, 100
3, 21360, Note_on_c, 1, 56, 0
3, 21360, Note_on_c, 1, 65, 0
3, 21360, Note_on_c, 1, 60, 0
3, 21360, Note_on_c, 1, 63, 0
3, 21360, Note_on_c, 1, 60, 100
3, 21360, Note_on_c, 1, 65, 100
3, 21360, Note_on_c, 1, 62, 100
3, 21360, Note_on_c, 1, 58, 100
3, 21600, Note_on_c, 1, 58, 0
3, 21600, Note_on_c, 1, 60, 0
3, 21600, Note_on_c, 1, 65, 0
3, 21600, Note_on_c, 1, 62, 0
3, 21600, Note_on_c, 1, 67, 100
3, 21600, Note_on_c, 1, 64, 100
3, 21600, Note_on_c, 1, 60, 100
3, 22080, Note_on_c, 1, 60, 0
3, 22080, Note_on_c, 1, 64, 0
3, 22080, Note_on_c, 1, 67, 0
3, 22080, Note_on_c, 1, 67, 100
3, 22080, Note_on_c, 1, 63, 100
3, 22080, Note_on_c, 1, 58, 100
3, 22560, Note_on_c, 1, 58, 0
3, 22560, Note_on_c, 1, 63, 0
3, 22560, Note_on_c, 1, 67, 0
3, 22560, Note_on_c, 1, 65, 100
3, 22560, Note_on_c, 1, 60, 100
3, 22560, Note_on_c, 1, 57, 100
3, 23040, Note_on_c, 1, 57, 0
3, 23040, Note_on_c, 1, 60, 0
3, 23040, Note_on_c, 1, 65, 0
3, 23040, Note_on_c, 1, 65, 100
3, 23040, Note_on_c, 1, 60, 100
3, 23040, Note_on_c, 1, 63, 100
3, 23040, Note_on_c, 1, 56, 100
3, 23280, Note_on_c, 1, 56, 0
3, 23280, Note_on_c, 1, 65, 0
3, 23280, Note_on_c, 1, 60, 0
3, 23280, Note_on_c, 1, 63, 0
3, 23280, Note_on_c, 1, 60, 100
3, 23280, Note_on_c, 1, 65, 100
3, 23280, Note_on_c, 1, 62, 100
3, 23280, Note_on_c, 1, 58, 100
3, 23520, Note_on_c, 1, 58, 0
3, 23520, Note_on_c, 1, 60, 0
3, 23520, Note_on_c, 1, 65, 0
3, 23520, Note_on_c, 1, 62, 0
3, 23520, Note_on_c, 1, 65, 100
3, 23520, Note_on_c, 1, 41, 100
3, 23520, Note_on_c, 1, 60, 100
3, 23520, Note_on_c, 1, 57, 100
3, 23520, Note_on_c, 1, 53, 100
3, 24000, Note_on_c, 1, 53, 0
3, 24000, Note_on_c, 1, 60, 0
3, 24000, Note_on_c, 1, 65, 0
3, 24000, Note_on_c, 1, 41, 0
3, 24000, Note_on_c, 1, 57, 0
3, 24000, Note_on_c, 1, 65, 100
3, 24000, Note_on_c, 1, 63, 100
3, 24000, Note_on_c, 1, 60, 100
3, 24000, Note_on_c, 1, 58, 100
3, 24000, Note_on_c, 1, 55, 100
3, 24000, Note_on_c, 1, 51, 100
3, 24000, Note_on_c, 1, 39, 100
3, 24480, Note_on_c, 1, 39, 0
3, 24480, Note_on_c, 1, 55, 0
3, 24480, Note_on_c, 1, 63, 0
3, 24480, Note_on_c, 1, 60, 0
3, 24480, Note_on_c, 1, 65, 0
3, 24480, Note_on_c, 1, 51, 0
3, 24480, Note_on_c, 1, 58, 0
3, 24480, Note_on_c, 1, 38, 100
3, 24480, Note_on_c, 1, 60, 100
3, 24480, Note_on_c, 1, 57, 100
3, 24480, Note_on_c, 1, 65, 100
3, 24480, Note_on_c, 1, 62, 100
3, 24960, Note_on_c, 1, 62, 0
3, 24960, Note_on_c, 1, 57, 0
3, 24960, Note_on_c, 1, 38, 0
3, 24960, Note_on_c, 1, 60, 0
3, 24960, Note_on_c, 1, 65, 0
3, 24960, Note_on_c, 1, 60, 100
3, 24960, Note_on_c, 1, 64, 100
3, 24960, Note_on_c, 1, 48, 127
3, 24960, Note_on_c, 1, 55, 100
3, 25140, Note_on_c, 1, 48, 0
3, 25140, Note_on_c, 1, 60, 0
3, 25140, Note_on_c, 1, 64, 0
3, 25140, Note_on_c, 1, 60, 100
3, 25140, Note_on_c, 1, 46, 127
3, 25140, Note_on_c, 1, 63, 100
3, 25140, Note_on_c, 1, 58, 100
3, 25440, Note_on_c, 1, 58, 0
3, 25440, Note_on_c, 1, 46, 0
3, 25440, Note_on_c, 1, 55, 0
3, 25440, Note_on_c, 1, 60, 0
3, 25440, Note_on_c, 1, 63, 0
3, 25440, Note_on_c, 1, 60, 100
3, 25440, Note_on_c, 1, 64, 100
3, 25440, Note_on_c, 1, 48, 127
3, 25440, Note_on_c, 1, 55, 100
3, 25620, Note_on_c, 1, 48, 0
3, 25620, Note_on_c, 1, 60, 0
3, 25620, Note_on_c, 1, 64, 0
3, 25620, Note_on_c, 1, 60, 100
3, 25620, Note_on_c, 1, 62, 100
3, 25620, Note_on_c, 1, 65, 100
3, 25620, Note_on_c, 1, 58, 100
3, 25620, Note_on_c, 1, 43, 127
3, 25920, Note_on_c, 1, 43, 0
3, 25920, Note_on_c, 1, 60, 0
3, 25920, Note_on_c, 1, 62, 0
3, 25920, Note_on_c, 1, 55, 0
3, 25920, Note_on_c, 1, 58, 0
3, 25920, Note_on_c, 1, 65, 0
3, 25920, Note_on_c, 1, 60, 100
3, 25920, Note_on_c, 1, 64, 100
3, 25920, Note_on_c, 1, 48, 127
3, 25920, Note_on_c, 1, 55, 100
3, 26100, Note_on_c, 1, 48, 0
3, 26100, Note_on_c, 1, 60, 0
3, 26100, Note_on_c, 1, 64, 0
3, 26100, Note_on_c, 1, 60, 100
3, 26100, Note_on_c, 1, 46, 127
3, 26100, Note_on_c, 1, 63, 100
3, 26100, Note_on_c, 1, 58, 100
3, 26400, Note_on_c, 1, 58, 0
3, 26400, Note_on_c, 1, 46, 0
3, 26400, Note_on_c, 1, 55, 0
3, 26400, Note_on_c, 1, 60, 0
3, 26400, Note_on_c, 1, 63, 0
3, 26400, Note_on_c, 1, 60, 100
3, 26400, Note_on_c, 1, 64, 100
3, 26400, Note_on_c, 1, 48, 127
3, 26400, Note_on_c, 1, 55, 100
3, 26580, Note_on_c, 1, 48, 0
3, 26580, Note_on_c, 1, 60, 0
3, 26580, Note_on_c, 1, 64, 0
3, 26580, Note_on_c, 1, 60, 100
3, 26580, Note_on_c, 1, 62, 100
3, 26580, Note_on_c, 1, 65, 100
3, 26580, Note_on_c, 1, 58, 100
3, 26580, Note_on_c, 1, 43, 127
3, 26880, Note_on_c, 1, 43, 0
3, 26880, Note_on_c, 1, 60, 0
3, 26880, Note_on_c, 1, 62, 0
3, 26880, Note_on_c, 1, 55, 0
3, 26880, Note_on_c, 1, 58, 0
3, 26880, Note_on_c, 1, 65, 0
3, 26880, Note_on_c, 1, 48, 100
3, 26880, Note_on_c, 1, 55, 100
3, 26880, Note_on_c, 1, 64, 100
3, 26880, Note_on_c, 1, 60, 100
3, 27120, Note_on_c, 1, 60, 0
3, 27120, Note_on_c, 1, 48, 0
3, 27120, Note_on_c, 1, 55, 0
3, 27120, Note_on_c, 1, 64, 0
3, 28080, Note_on_c, 1, 41, 100
3, 28080, Note_on_c, 1, 53, 100
3, 28200, Note_on_c, 1, 53, 0
3, 28200, Note_on_c, 1, 41, 0
3, 28200, Note_on_c, 1, 40, 100
3, 28200, Note_on_c, 1, 52, 100
3, 28320, Note_on_c, 1, 52, 0
3, 28320, Note_on_c, 1, 40, 0
3, 28320, Note_on_c, 1, 38, 100
3, 28320, Note_on_c, 1, 50, 100
3, 28560, Note_on_c, 1, 50, 0
3, 28560, Note_on_c, 1, 38, 0
3, 28560, Note_on_c, 1, 43, 100
3, 28560, Note_on_c, 1, 55, 100
3, 28800, Note_on_c, 1, 55, 0
3, 28800, Note_on_c, 1, 43, 0
3, 28800, Note_on_c, 1, 60, 100
3, 28800, Note_on_c, 1, 69, 100
3, 28800, Note_on_c, 1, 65, 100
3, 28800, Note_on_c, 1, 53, 100
3, 29040, Note_on_c, 1, 53, 0
3, 29040, Note_on_c, 1, 60, 0
3, 29040, Note_on_c, 1, 69, 0
3, 29040, Note_on_c, 1, 65, 0
3, 29040, Note_on_c, 1, 67, 100
3, 29040, Note_on_c, 1, 52, 100
3, 29040, Note_on_c, 1, 64, 100
3, 29160, Note_on_c, 1, 64, 0
3, 29160, Note_on_c, 1, 52, 0
3, 29160, Note_on_c, 1, 67, 0
3, 29160, Note_on_c, 1, 67, 100
3, 29160, Note_on_c, 1, 50, 100
3, 29160, Note_on_c, 1, 62, 100
3, 29280, Note_on_c, 1, 62, 0
3, 29280, Note_on_c, 1, 50, 0
3, 29280, Note_on_c, 1, 67, 0
3, 29280, Note_on_c, 1, 72, 100
3, 29280, Note_on_c, 1, 67, 100
3, 29280, Note_on_c, 1, 64, 100
3, 29280, Note_on_c, 1, 48, 100
3, 29280, Note_on_c, 1, 60, 100
3, 29760, Note_on_c, 1, 60, 0
3, 29760, Note_on_c, 1, 64, 0
3, 29760, Note_on_c, 1, 72, 0
3, 29760, Note_on_c, 1, 67, 0
3, 29760, Note_on_c, 1, 48, 0
3, 29760, End_track
4, 0, Start_track
4, 0, MIDI_port, 0
4, 0, Title_t, "String Ensemble 2"
4, 0, Program_c, 2, 49
4, 0, Control_c, 2, 7, 60
4, 0, Control_c, 2, 10, 64
4, 0, Note_on_c, 2, 60, 100
4, 0, Note_on_c, 2, 64, 100
4, 0, Note_on_c, 2, 48, 127
4, 0, Note_on_c, 2, 55, 100
4, 180, Note_on_c, 2, 48, 0
4, 180, Note_on_c, 2, 60, 0
4, 180, Note_on_c, 2, 64, 0
4, 180, Note_on_c, 2, 60, 100
4, 180, Note_on_c, 2, 46, 127
4, 180, Note_on_c, 2, 63, 100
4, 180, Note_on_c, 2, 58, 100
4, 480, Note_on_c, 2, 58, 0
4, 480, Note_on_c, 2, 46, 0
4, 480, Note_on_c, 2, 55, 0
4, 480, Note_on_c, 2, 60, 0
4, 480, Note_on_c, 2, 63, 0
4, 480, Note_on_c, 2, 60, 100
4, 480, Note_on_c, 2, 64, 100
4, 480, Note_on_c, 2, 48, 127
4, 480, Note_on_c, 2, 55, 100
4, 660, Note_on_c, 2, 48, 0
4, 660, Note_on_c, 2, 60, 0
4, 660, Note_on_c, 2, 64, 0
4, 660, Note_on_c, 2, 60, 100
4, 660, Note_on_c, 2, 62, 100
4, 660, Note_on_c, 2, 65, 100
4, 660, Note_on_c, 2, 58, 100
4, 660, Note_on_c, 2, 43, 127
4, 960, Note_on_c, 2, 43, 0
4, 960, Note_on_c, 2, 60, 0
4, 960, Note_on_c, 2, 62, 0
4, 960, Note_on_c, 2, 55, 0
4, 960, Note_on_c, 2, 58, 0
4, 960, Note_on_c, 2, 65, 0
4, 960, Note_on_c, 2, 60, 100
4, 960, Note_on_c, 2, 64, 100
4, 960, Note_on_c, 2, 48, 127
4, 960, Note_on_c, 2, 55, 100
4, 1140, Note_on_c, 2, 48, 0
4, 1140, Note_on_c, 2, 60, 0
4, 1140, Note_on_c, 2, 64, 0
4, 1140, Note_on_c, 2, 60, 100
4, 1140, Note_on_c, 2, 46, 127
4, 1140, Note_on_c, 2, 63, 100
4, 1140, Note_on_c, 2, 58, 100
4, 1440, Note_on_c, 2, 58, 0
4, 1440, Note_on_c, 2, 46, 0
4, 1440, Note_on_c, 2, 55, 0
4, 1440, Note_on_c, 2, 60, 0
4, 1440, Note_on_c, 2, 63, 0
4, 1440, Note_on_c, 2, 60, 100
4, 1440, Note_on_c, 2, 64, 100
4, 1440, Note_on_c, 2, 48, 127
4, 1440, Note_on_c, 2, 55, 100
4, 1620, Note_on_c, 2, 48, 0
4, 1620, Note_on_c, 2, 60, 0
4, 1620, Note_on_c, 2, 64, 0
4, 1620, Note_on_c, 2, 60, 100
4, 1620, Note_on_c, 2, 62, 100
4, 1620, Note_on_c, 2, 65, 100
4, 1620, Note_on_c, 2, 58, 100
4, 1620, Note_on_c, 2, 43, 127
4, 1920, Note_on_c, 2, 43, 0
4, 1920, Note_on_c, 2, 60, 0
4, 1920, Note_on_c, 2, 62, 0
4, 1920, Note_on_c, 2, 55, 0
4, 1920, Note_on_c, 2, 58, 0
4, 1920, Note_on_c, 2, 65, 0
4, 1920, Note_on_c, 2, 67, 100
4, 1920, Note_on_c, 2, 64, 100
4, 1920, Note_on_c, 2, 60, 100
4, 2400, Note_on_c, 2, 60, 0
4, 2400, Note_on_c, 2, 64, 0
4, 2400, Note_on_c, 2, 67, 0
4, 2400, Note_on_c, 2, 67, 100
4, 2400, Note_on_c, 2, 63, 100
4, 2400, Note_on_c, 2, 58, 100
4, 2880, Note_on_c, 2, 58, 0
4, 2880, Note_on_c, 2, 63, 0
4, 2880, Note_on_c, 2, 67, 0
4, 2880, Note_on_c, 2, 65, 100
4, 2880, Note_on_c, 2, 60, 100
4, 2880, Note_on_c, 2, 57, 100
4, 3360, Note_on_c, 2, 57, 0
4, 3360, Note_on_c, 2, 60, 0
4, 3360, Note_on_c, 2, 65, 0
4, 3360, Note_on_c, 2, 65, 100
4, 3360, Note_on_c, 2, 60, 100
4, 3360, Note_on_c, 2, 63, 100
4, 3360, Note_on_c, 2, 56, 100
4, 3600, Note_on_c, 2, 56, 0
4, 3600, Note_on_c, 2, 65, 0
4, 3600, Note_on_c, 2, 60, 0
4, 3600, Note_on_c, 2, 63, 0
4, 3600, Note_on_c, 2, 60, 100
4, 3600, Note_on_c, 2, 65, 100
4, 3600, Note_on_c, 2, 62, 100
4, 3600, Note_on_c, 2, 58, 100
4, 3840, Note_on_c, 2, 58, 0
4, 3840, Note_on_c, 2, 60, 0
4, 3840, Note_on_c, 2, 65, 0
4, 3840, Note_on_c, 2, 62, 0
4, 3840, Note_on_c, 2, 67, 100
4, 3840, Note_on_c, 2, 64, 100
4, 3840, Note_on_c, 2, 60, 100
4, 4320, Note_on_c, 2, 60, 0
4, 4320, Note_on_c, 2, 64, 0
4, 4320, Note_on_c, 2, 67, 0
4, 4320, Note_on_c, 2, 67, 100
4, 4320, Note_on_c, 2, 63, 100
4, 4320, Note_on_c, 2, 58, 100
4, 4800, Note_on_c, 2, 58, 0
4, 4800, Note_on_c, 2, 63, 0
4, 4800, Note_on_c, 2, 67, 0
4, 4800, Note_on_c, 2, 65, 100
4, 4800, Note_on_c, 2, 60, 100
4, 4800, Note_on_c, 2, 57, 100
4, 5280, Note_on_c, 2, 57, 0
4, 5280, Note_on_c, 2, 60, 0
4, 5280, Note_on_c, 2, 65, 0
4, 5280, Note_on_c, 2, 65, 100
4, 5280, Note_on_c, 2, 60, 100
4, 5280, Note_on_c, 2, 63, 100
4, 5280, Note_on_c, 2, 56, 100
4, 5520, Note_on_c, 2, 56, 0
4, 5520, Note_on_c, 2, 65, 0
4, 5520, Note_on_c, 2, 60, 0
4, 5520, Note_on_c, 2, 63, 0
4, 5520, Note_on_c, 2, 60, 100
4, 5520, Note_on_c, 2, 65, 100
4, 5520, Note_on_c, 2, 62, 100
4, 5520, Note_on_c, 2, 58, 100
4, 5760, Note_on_c, 2, 58, 0
4, 5760, Note_on_c, 2, 60, 0
4, 5760, Note_on_c, 2, 65, 0
4, 5760, Note_on_c, 2, 62, 0
4, 5760, Note_on_c, 2, 65, 100
4, 5760, Note_on_c, 2, 41, 100
4, 5760, Note_on_c, 2, 60, 100
4, 5760, Note_on_c, 2, 57, 100
4, 5760, Note_on_c, 2, 53, 100
4, 6240, Note_on_c, 2, 53, 0
4, 6240, Note_on_c, 2, 60, 0
4, 6240, Note_on_c, 2, 65, 0
4, 6240, Note_on_c, 2, 41, 0
4, 6240, Note_on_c, 2, 57, 0
4, 6240, Note_on_c, 2, 65, 100
4, 6240, Note_on_c, 2, 63, 100
4, 6240, Note_on_c, 2, 60, 100
4, 6240, Note_on_c, 2, 58, 100
4, 6240, Note_on_c, 2, 55, 100
4, 6240, Note_on_c, 2, 51, 100
4, 6240, Note_on_c, 2, 39, 100
4, 6720, Note_on_c, 2, 39, 0
4, 6720, Note_on_c, 2, 55, 0
4, 6720, Note_on_c, 2, 63, 0
4, 6720, Note_on_c, 2, 60, 0
4, 6720, Note_on_c, 2, 65, 0
4, 6720, Note_on_c, 2, 51, 0
4, 6720, Note_on_c, 2, 58, 0
4, 6720, Note_on_c, 2, 38, 100
4, 6720, Note_on_c, 2, 60, 100
4, 6720, Note_on_c, 2, 57, 100
4, 6720, Note_on_c, 2, 65, 100
4, 6720, Note_on_c, 2, 62, 100
4, 7200, Note_on_c, 2, 62, 0
4, 7200, Note_on_c, 2, 57, 0
4, 7200, Note_on_c, 2, 38, 0
4, 7200, Note_on_c, 2, 60, 0
4, 7200, Note_on_c, 2, 65, 0
4, 7200, Note_on_c, 2, 60, 100
4, 7200, Note_on_c, 2, 64, 100
4, 7200, Note_on_c, 2, 48, 127
4, 7200, Note_on_c, 2, 55, 100
4, 7380, Note_on_c, 2, 48, 0
4, 7380, Note_on_c, 2, 60, 0
4, 7380, Note_on_c, 2, 64, 0
4, 7380, Note_on_c, 2, 60, 100
4, 7380, Note_on_c, 2, 46, 127
4, 7380, Note_on_c, 2, 63, 100
4, 7380, Note_on_c, 2, 58, 100
4, 7680, Note_on_c, 2, 58, 0
4, 7680, Note_on_c, 2, 46, 0
4, 7680, Note_on_c, 2, 55, 0
4, 7680, Note_on_c, 2, 60, 0
4, 7680, Note_on_c, 2, 63, 0
4, 7680, Note_on_c, 2, 60, 100
4, 7680, Note_on_c, 2, 64, 100
4, 7680, Note_on_c, 2, 48, 127
4, 7680, Note_on_c, 2, 55, 100
4, 7860, Note_on_c, 2, 48, 0
4, 7860, Note_on_c, 2, 60, 0
4, 7860, Note_on_c, 2, 64, 0
4, 7860, Note_on_c, 2, 60, 100
4, 7860, Note_on_c, 2, 62, 100
4, 7860, Note_on_c, 2, 65, 100
4, 7860, Note_on_c, 2, 58, 100
4, 7860, Note_on_c, 2, 43, 127
4, 8160, Note_on_c, 2, 43, 0
4, 8160, Note_on_c, 2, 60, 0
4, 8160, Note_on_c, 2, 62, 0
4, 8160, Note_on_c, 2, 55, 0
4, 8160, Note_on_c, 2, 58, 0
4, 8160, Note_on_c, 2, 65, 0
4, 8160, Note_on_c, 2, 60, 100
4, 8160, Note_on_c, 2, 64, 100
4, 8160, Note_on_c, 2, 48, 127
4, 8160, Note_on_c, 2, 55, 100
4, 8340, Note_on_c, 2, 48, 0
4, 8340, Note_on_c, 2, 60, 0
4, 8340, Note_on_c, 2, 64, 0
4, 8340, Note_on_c, 2, 60, 100
4, 8340, Note_on_c, 2, 46, 127
4, 8340, Note_on_c, 2, 63, 100
4, 8340, Note_on_c, 2, 58, 100
4, 8640, Note_on_c, 2, 58, 0
4, 8640, Note_on_c, 2, 46, 0
4, 8640, Note_on_c, 2, 55, 0
4, 8640, Note_on_c, 2, 60, 0
4, 8640, Note_on_c, 2, 63, 0
4, 8640, Note_on_c, 2, 60, 100
4, 8640, Note_on_c, 2, 64, 100
4, 8640, Note_on_c, 2, 48, 127
4, 8640, Note_on_c, 2, 55, 100
4, 8820, Note_on_c, 2, 48, 0
4, 8820, Note_on_c, 2, 60, 0
4, 8820, Note_on_c, 2, 64, 0
4, 8820, Note_on_c, 2, 60, 100
4, 8820, Note_on_c, 2, 62, 100
4, 8820, Note_on_c, 2, 65, 100
4, 8820, Note_on_c, 2, 58, 100
4, 8820, Note_on_c, 2, 43, 127
4, 9120, Note_on_c, 2, 43, 0
4, 9120, Note_on_c, 2, 60, 0
4, 9120, Note_on_c, 2, 62, 0
4, 9120, Note_on_c, 2, 55, 0
4, 9120, Note_on_c, 2, 58, 0
4, 9120, Note_on_c, 2, 65, 0
4, 9120, Note_on_c, 2, 67, 100
4, 9120, Note_on_c, 2, 64, 100
4, 9120, Note_on_c, 2, 60, 100
4, 9600, Note_on_c, 2, 60, 0
4, 9600, Note_on_c, 2, 64, 0
4, 9600, Note_on_c, 2, 67, 0
4, 9600, Note_on_c, 2, 67, 100
4, 9600, Note_on_c, 2, 63, 100
4, 9600, Note_on_c, 2, 58, 100
4, 10080, Note_on_c, 2, 58, 0
4, 10080, Note_on_c, 2, 63, 0
4, 10080, Note_on_c, 2, 67, 0
4, 10080, Note_on_c, 2, 65, 100
4, 10080, Note_on_c, 2, 60, 100
4, 10080, Note_on_c, 2, 57, 100
4, 10560, Note_on_c, 2, 57, 0
4, 10560, Note_on_c, 2, 60, 0
4, 10560, Note_on_c, 2, 65, 0
4, 10560, Note_on_c, 2, 65, 100
4, 10560, Note_on_c, 2, 60, 100
4, 10560, Note_on_c, 2, 63, 100
4, 10560, Note_on_c, 2, 56, 100
4, 10800, Note_on_c, 2, 56, 0
4, 10800, Note_on_c, 2, 65, 0
4, 10800, Note_on_c, 2, 60, 0
4, 10800, Note_on_c, 2, 63, 0
4, 10800, Note_on_c, 2, 60, 100
4, 10800, Note_on_c, 2, 65, 100
4, 10800, Note_on_c, 2, 62, 100
4, 10800, Note_on_c, 2, 58, 100
4, 11040, Note_on_c, 2, 58, 0
4, 11040, Note_on_c, 2, 60, 0
4, 11040, Note_on_c, 2, 65, 0
4, 11040, Note_on_c, 2, 62, 0
4, 11040, Note_on_c, 2, 67, 100
4, 11040, Note_on_c, 2, 64, 100
4, 11040, Note_on_c, 2, 60, 100
4, 11520, Note_on_c, 2, 60, 0
4, 11520, Note_on_c, 2, 64, 0
4, 11520, Note_on_c, 2, 67, 0
4, 11520, Note_on_c, 2, 67, 100
4, 11520, Note_on_c, 2, 63, 100
4, 11520, Note_on_c, 2, 58, 100
4, 12000, Note_on_c, 2, 58, 0
4, 12000, Note_on_c, 2, 63, 0
4, 12000, Note_on_c, 2, 67, 0
4, 12000, Note_on_c, 2, 65, 100
4, 12000, Note_on_c, 2, 60, 100
4, 12000, Note_on_c, 2, 57, 100
4, 12480, Note_on_c, 2, 57, 0
4, 12480, Note_on_c, 2, 60, 0
4, 12480, Note_on_c, 2, 65, 0
4, 12480, Note_on_c, 2, 65, 100
4, 12480, Note_on_c, 2, 60, 100
4, 12480, Note_on_c, 2, 63, 100
4, 12480, Note_on_c, 2, 56, 100
4, 12720, Note_on_c, 2, 56, 0
4, 12720, Note_on_c, 2, 65, 0
4, 12720, Note_on_c, 2, 60, 0
4, 12720, Note_on_c, 2, 63, 0
4, 12720, Note_on_c, 2, 60, 100
4, 12720, Note_on_c, 2, 65, 100
4, 12720, Note_on_c, 2, 62, 100
4, 12720, Note_on_c, 2, 58, 100
4, 12960, Note_on_c, 2, 58, 0
4, 12960, Note_on_c, 2, 60, 0
4, 12960, Note_on_c, 2, 65, 0
4, 12960, Note_on_c, 2, 62, 0
4, 12960, Note_on_c, 2, 65, 100
4, 12960, Note_on_c, 2, 41, 100
4, 12960, Note_on_c, 2, 60, 100
4, 12960, Note_on_c, 2, 57, 100
4, 12960, Note_on_c, 2, 53, 100
4, 13440, Note_on_c, 2, 53, 0
4, 13440, Note_on_c, 2, 60, 0
4, 13440, Note_on_c, 2, 65, 0
4, 13440, Note_on_c, 2, 41, 0
4, 13440, Note_on_c, 2, 57, 0
4, 13440, Note_on_c, 2, 65, 100
4, 13440, Note_on_c, 2, 63, 100
4, 13440, Note_on_c, 2, 60, 100
4, 13440, Note_on_c, 2, 58, 100
4, 13440, Note_on_c, 2, 55, 100
4, 13440, Note_on_c, 2, 51, 100
4, 13440, Note_on_c, 2, 39, 100
4, 13920, Note_on_c, 2, 39, 0
4, 13920, Note_on_c, 2, 55, 0
4, 13920, Note_on_c, 2, 63, 0
4, 13920, Note_on_c, 2, 60, 0
4, 13920, Note_on_c, 2, 65, 0
4, 13920, Note_on_c, 2, 51, 0
4, 13920, Note_on_c, 2, 58, 0
4, 13920, Note_on_c, 2, 38, 100
4, 13920, Note_on_c, 2, 60, 100
4, 13920, Note_on_c, 2, 57, 100
4, 13920, Note_on_c, 2, 65, 100
4, 13920, Note_on_c, 2, 62, 100
4, 14400, Note_on_c, 2, 62, 0
4, 14400, Note_on_c, 2, 57, 0
4, 14400, Note_on_c, 2, 38, 0
4, 14400, Note_on_c, 2, 60, 0
4, 14400, Note_on_c, 2, 65, 0
4, 14400, Note_on_c, 2, 60, 100
4, 14400, Note_on_c, 2, 64, 100
4, 14400, Note_on_c, 2, 48, 127
4, 14400, Note_on_c, 2, 55, 100
4, 14580, Note_on_c, 2, 48, 0
4, 14580, Note_on_c, 2, 60, 0
4, 14580, Note_on_c, 2, 64, 0
4, 14580, Note_on_c, 2, 60, 100
4, 14580, Note_on_c, 2, 46, 127
4, 14580, Note_on_c, 2, 63, 100
4, 14580, Note_on_c, 2, 58, 100
4, 14880, Note_on_c, 2, 58, 0
4, 14880, Note_on_c, 2, 46, 0
4, 14880, Note_on_c, 2, 55, 0
4, 14880, Note_on_c, 2, 60, 0
4, 14880, Note_on_c, 2, 63, 0
4, 14880, Note_on_c, 2, 60, 100
4, 14880, Note_on_c, 2, 64, 100
4, 14880, Note_on_c, 2, 48, 127
4, 14880, Note_on_c, 2, 55, 100
4, 15060, Note_on_c, 2, 48, 0
4, 15060, Note_on_c, 2, 60, 0
4, 15060, Note_on_c, 2, 64, 0
4, 15060, Note_on_c, 2, 60, 100
4, 15060, Note_on_c, 2, 62, 100
4, 15060, Note_on_c, 2, 65, 100
4, 15060, Note_on_c, 2, 58, 100
4, 15060, Note_on_c, 2, 43, 127
4, 15360, Note_on_c, 2, 43, 0
4, 15360, Note_on_c, 2, 60, 0
4, 15360, Note_on_c, 2, 62, 0
4, 15360, Note_on_c, 2, 55, 0
4, 15360, Note_on_c, 2, 58, 0
4, 15360, Note_on_c, 2, 65, 0
4, 15360, Note_on_c, 2, 60, 100
4, 15360, Note_on_c, 2, 64, 100
4, 15360, Note_on_c, 2, 48, 127
4, 15360, Note_on_c, 2, 55, 100
4, 15540, Note_on_c, 2, 48, 0
4, 15540, Note_on_c, 2, 60, 0
4, 15540, Note_on_c, 2, 64, 0
4, 15540, Note_on_c, 2, 60, 100
4, 15540, Note_on_c, 2, 46, 127
4, 15540, Note_on_c, 2, 63, 100
4, 15540, Note_on_c, 2, 58, 100
4, 15840, Note_on_c, 2, 58, 0
4, 15840, Note_on_c, 2, 46, 0
4, 15840, Note_on_c, 2, 55, 0
4, 15840, Note_on_c, 2, 60, 0
4, 15840, Note_on_c, 2, 63, 0
4, 15840, Note_on_c, 2, 48, 127
4, 15840, Note_on_c, 2, 60, 100
4, 15840, Note_on_c, 2, 64, 100
4, 15840, Note_on_c, 2, 55, 100
4, 16200, Note_on_c, 2, 55, 0
4, 16200, Note_on_c, 2, 48, 0
4, 16200, Note_on_c, 2, 60, 0
4, 16200, Note_on_c, 2, 64, 0
4, 17760, Note_on_c, 2, 60, 100
4, 17760, Note_on_c, 2, 64, 100
4, 17760, Note_on_c, 2, 48, 127
4, 17760, Note_on_c, 2, 55, 100
4, 17940, Note_on_c, 2, 48, 0
4, 17940, Note_on_c, 2, 60, 0
4, 17940, Note_on_c, 2, 64, 0
4, 17940, Note_on_c, 2, 60, 100
4, 17940, Note_on_c, 2, 46, 127
4, 17940, Note_on_c, 2, 63, 100
4, 17940, Note_on_c, 2, 58, 100
4, 18240, Note_on_c, 2, 58, 0
4, 18240, Note_on_c, 2, 46, 0
4, 18240, Note_on_c, 2, 55, 0
4, 18240, Note_on_c, 2, 60, 0
4, 18240, Note_on_c, 2, 63, 0
4, 18240, Note_on_c, 2, 60, 100
4, 18240, Note_on_c, 2, 64, 100
4, 18240, Note_on_c, 2, 48, 127
4, 18240, Note_on_c, 2, 55, 100
4, 18420, Note_on_c, 2, 48, 0
4, 18420, Note_on_c, 2, 60, 0
4, 18420, Note_on_c, 2, 64, 0
4, 18420, Note_on_c, 2, 60, 100
4, 18420, Note_on_c, 2, 62, 100
4, 18420, Note_on_c, 2, 65, 100
4, 18420, Note_on_c, 2, 58, 100
4, 18420, Note_on_c, 2, 43, 127
4, 18720, Note_on_c, 2, 43, 0
4, 18720, Note_on_c, 2, 60, 0
4, 18720, Note_on_c, 2, 62, 0
4, 18720, Note_on_c, 2, 55, 0
4, 18720, Note_on_c, 2, 58, 0
4, 18720, Note_on_c, 2, 65, 0
4, 18720, Note_on_c, 2, 60, 100
4, 18720, Note_on_c, 2, 64, 100
4, 18720, Note_on_c, 2, 48, 127
4, 18720, Note_on_c, 2, 55, 100
4, 18900, Note_on_c, 2, 48, 0
4, 18900, Note_on_c, 2, 60, 0
4, 18900, Note_on_c, 2, 64, 0
4, 18900, Note_on_c, 2, 60, 100
4, 18900, Note_on_c, 2, 46, 127
4, 18900, Note_on_c, 2, 63, 100
4, 18900, Note_on_c, 2, 58, 100
4, 19200, Note_on_c, 2, 58, 0
4, 19200, Note_on_c, 2, 46, 0
4, 19200, Note_on_c, 2, 55, 0
4, 19200, Note_on_c, 2, 60, 0
4, 19200, Note_on_c, 2, 63, 0
4, 19200, Note_on_c, 2, 60, 100
4, 19200, Note_on_c, 2, 64, 100
4, 19200, Note_on_c, 2, 48, 127
4, 19200, Note_on_c, 2, 55, 100
4, 19380, Note_on_c, 2, 48, 0
4, 19380, Note_on_c, 2, 60, 0
4, 19380, Note_on_c, 2, 64, 0
4, 19380, Note_on_c, 2, 60, 100
4, 19380, Note_on_c, 2, 62, 100
4, 19380, Note_on_c, 2, 65, 100
4, 19380, Note_on_c, 2, 58, 100
4, 19380, Note_on_c, 2, 43, 127
4, 19680, Note_on_c, 2, 43, 0
4, 19680, Note_on_c, 2, 60, 0
4, 19680, Note_on_c, 2, 62, 0
4, 19680, Note_on_c, 2, 55, 0
4, 19680, Note_on_c, 2, 58, 0
4, 19680, Note_on_c, 2, 65, 0
4, 19680, Note_on_c, 2, 67, 100
4, 19680, Note_on_c, 2, 64, 100
4, 19680, Note_on_c, 2, 60, 100
4, 20160, Note_on_c, 2, 60, 0
4, 20160, Note_on_c, 2, 64, 0
4, 20160, Note_on_c, 2, 67, 0
4, 20160, Note_on_c, 2, 67, 100
4, 20160, Note_on_c, 2, 63, 100
4, 20160, Note_on_c, 2, 58, 100
4, 20640, Note_on_c, 2, 58, 0
4, 20640, Note_on_c, 2, 63, 0
4, 20640, Note_on_c, 2, 67, 0
4, 20640, Note_on_c, 2, 65, 100
4, 20640, Note_on_c, 2, 60, 100
4, 20640, Note_on_c, 2, 57, 100
4, 21120, Note_on_c, 2, 57, 0
4, 21120, Note_on_c, 2, 60, 0
4, 21120, Note_on_c, 2, 65, 0
4, 21120, Note_on_c, 2, 65, 100
4, 21120, Note_on_c, 2, 60, 100
4, 21120, Note_on_c, 2, 63, 100
4, 21120, Note_on_c, 2, 56, 100
4, 21360, Note_on_c, 2, 56, 0
4, 21360, Note_on_c, 2, 65, 0
4, 21360, Note_on_c, 2, 60, 0
4, 21360, Note_on_c, 2, 63, 0
4, 21360, Note_on_c, 2, 60, 100
4, 21360, Note_on_c, 2, 65, 100
4, 21360, Note_on_c, 2, 62, 100
4, 21360, Note_on_c, 2, 58, 100
4, 21600, Note_on_c, 2, 58, 0
4, 21600, Note_on_c, 2, 60, 0
4, 21600, Note_on_c, 2, 65, 0
4, 21600, Note_on_c, 2, 62, 0
4, 21600, Note_on_c, 2, 67, 100
4, 21600, Note_on_c, 2, 64, 100
4, 21600, Note_on_c, 2, 60, 100
4, 22080, Note_on_c, 2, 60, 0
4, 22080, Note_on_c, 2, 64, 0
4, 22080, Note_on_c, 2, 67, 0
4, 22080, Note_on_c, 2, 67, 100
4, 22080, Note_on_c, 2, 63, 100
4, 22080, Note_on_c, 2, 58, 100
4, 22560, Note_on_c, 2, 58, 0
4, 22560, Note_on_c, 2, 63, 0
4, 22560, Note_on_c, 2, 67, 0
4, 22560, Note_on_c, 2, 65, 100
4, 22560, Note_on_c, 2, 60, 100
4, 22560, Note_on_c, 2, 57, 100
4, 23040, Note_on_c, 2, 57, 0
4, 23040, Note_on_c, 2, 60, 0
4, 23040, Note_on_c, 2, 65, 0
4, 23040, Note_on_c, 2, 65, 100
4, 23040, Note_on_c, 2, 60, 100
4, 23040, Note_on_c, 2, 63, 100
4, 23040, Note_on_c, 2, 56, 100
4, 23280, Note_on_c, 2, 56, 0
4, 23280, Note_on_c, 2, 65, 0
4, 23280, Note_on_c, 2, 60, 0
4, 23280, Note_on_c, 2, 63, 0
4, 23280, Note_on_c, 2, 60, 100
4, 23280, Note_on_c, 2, 65, 100
4, 23280, Note_on_c, 2, 62, 100
4, 23280, Note_on_c, 2, 58, 100
4, 23520, Note_on_c, 2, 58, 0
4, 23520, Note_on_c, 2, 60, 0
4, 23520, Note_on_c, 2, 65, 0
4, 23520, Note_on_c, 2, 62, 0
4, 23520, Note_on_c, 2, 65, 100
4, 23520, Note_on_c, 2, 41, 100
4, 23520, Note_on_c, 2, 60, 100
4, 23520, Note_on_c, 2, 57, 100
4, 23520, Note_on_c, 2, 53, 100
4, 24000, Note_on_c, 2, 53, 0
4, 24000, Note_on_c, 2, 60, 0
4, 24000, Note_on_c, 2, 65, 0
4, 24000, Note_on_c, 2, 41, 0
4, 24000, Note_on_c, 2, 57, 0
4, 24000, Note_on_c, 2, 65, 100
4, 24000, Note_on_c, 2, 63, 100
4, 24000, Note_on_c, 2, 60, 100
4, 24000, Note_on_c, 2, 58, 100
4, 24000, Note_on_c, 2, 55, 100
4, 24000, Note_on_c, 2, 51, 100
4, 24000, Note_on_c, 2, 39, 100
4, 24480, Note_on_c, 2, 39, 0
4, 24480, Note_on_c, 2, 55, 0
4, 24480, Note_on_c, 2, 63, 0
4, 24480, Note_on_c, 2, 60, 0
4, 24480, Note_on_c, 2, 65, 0
4, 24480, Note_on_c, 2, 51, 0
4, 24480, Note_on_c, 2, 58, 0
4, 24480, Note_on_c, 2, 38, 100
4, 24480, Note_on_c, 2, 60, 100
4, 24480, Note_on_c, 2, 57, 100
4, 24480, Note_on_c, 2, 65, 100
4, 24480, Note_on_c, 2, 62, 100
4, 24960, Note_on_c, 2, 62, 0
4, 24960, Note_on_c, 2, 57, 0
4, 24960, Note_on_c, 2, 38, 0
4, 24960, Note_on_c, 2, 60, 0
4, 24960, Note_on_c, 2, 65, 0
4, 24960, Note_on_c, 2, 60, 100
4, 24960, Note_on_c, 2, 64, 100
4, 24960, Note_on_c, 2, 48, 127
4, 24960, Note_on_c, 2, 55, 100
4, 25140, Note_on_c, 2, 48, 0
4, 25140, Note_on_c, 2, 60, 0
4, 25140, Note_on_c, 2, 64, 0
4, 25140, Note_on_c, 2, 60, 100
4, 25140, Note_on_c, 2, 46, 127
4, 25140, Note_on_c, 2, 63, 100
4, 25140, Note_on_c, 2, 58, 100
4, 25440, Note_on_c, 2, 58, 0
4, 25440, Note_on_c, 2, 46, 0
4, 25440, Note_on_c, 2, 55, 0
4, 25440, Note_on_c, 2, 60, 0
4, 25440, Note_on_c, 2, 63, 0
4, 25440, Note_on_c, 2, 60, 100
4, 25440, Note_on_c, 2, 64, 100
4, 25440, Note_on_c, 2, 48, 127
4, 25440, Note_on_c, 2, 55, 100
4, 25620, Note_on_c, 2, 48, 0
4, 25620, Note_on_c, 2, 60, 0
4, 25620, Note_on_c, 2, 64, 0
4, 25620, Note_on_c, 2, 60, 100
4, 25620, Note_on_c, 2, 62, 100
4, 25620, Note_on_c, 2, 65, 100
4, 25620, Note_on_c, 2, 58, 100
4, 25620, Note_on_c, 2, 43, 127
4, 25920, Note_on_c, 2, 43, 0
4, 25920, Note_on_c, 2, 60, 0
4, 25920, Note_on_c, 2, 62, 0
4, 25920, Note_on_c, 2, 55, 0
4, 25920, Note_on_c, 2, 58, 0
4, 25920, Note_on_c, 2, 65, 0
4, 25920, Note_on_c, 2, 60, 100
4, 25920, Note_on_c, 2, 64, 100
4, 25920, Note_on_c, 2, 48, 127
4, 25920, Note_on_c, 2, 55, 100
4, 26100, Note_on_c, 2, 48, 0
4, 26100, Note_on_c, 2, 60, 0
4, 26100, Note_on_c, 2, 64, 0
4, 26100, Note_on_c, 2, 60, 100
4, 26100, Note_on_c, 2, 46, 127
4, 26100, Note_on_c, 2, 63, 100
4, 26100, Note_on_c, 2, 58, 100
4, 26400, Note_on_c, 2, 58, 0
4, 26400, Note_on_c, 2, 46, 0
4, 26400, Note_on_c, 2, 55, 0
4, 26400, Note_on_c, 2, 60, 0
4, 26400, Note_on_c, 2, 63, 0
4, 26400, Note_on_c, 2, 60, 100
4, 26400, Note_on_c, 2, 64, 100
4, 26400, Note_on_c, 2, 48, 127
4, 26400, Note_on_c, 2, 55, 100
4, 26580, Note_on_c, 2, 48, 0
4, 26580, Note_on_c, 2, 60, 0
4, 26580, Note_on_c, 2, 64, 0
4, 26580, Note_on_c, 2, 60, 100
4, 26580, Note_on_c, 2, 62, 100
4, 26580, Note_on_c, 2, 65, 100
4, 26580, Note_on_c, 2, 58, 100
4, 26580, Note_on_c, 2, 43, 127
4, 26880, Note_on_c, 2, 43, 0
4, 26880, Note_on_c, 2, 60, 0
4, 26880, Note_on_c, 2, 62, 0
4, 26880, Note_on_c, 2, 55, 0
4, 26880, Note_on_c, 2, 58, 0
4, 26880, Note_on_c, 2, 65, 0
4, 28080, Note_on_c, 2, 41, 100
4, 28080, Note_on_c, 2, 53, 100
4, 28200, Note_on_c, 2, 53, 0
4, 28200, Note_on_c, 2, 41, 0
4, 28200, Note_on_c, 2, 40, 100
4, 28200, Note_on_c, 2, 52, 100
4, 28320, Note_on_c, 2, 52, 0
4, 28320, Note_on_c, 2, 40, 0
4, 28320, Note_on_c, 2, 38, 100
4, 28320, Note_on_c, 2, 50, 100
4, 28560, Note_on_c, 2, 50, 0
4, 28560, Note_on_c, 2, 38, 0
4, 28560, Note_on_c, 2, 43, 100
4, 28560, Note_on_c, 2, 55, 100
4, 28800, Note_on_c, 2, 55, 0
4, 28800, Note_on_c, 2, 43, 0
4, 28800, Note_on_c, 2, 60, 100
4, 28800, Note_on_c, 2, 69, 100
4, 28800, Note_on_c, 2, 65, 100
4, 28800, Note_on_c, 2, 53, 100
4, 29040, Note_on_c, 2, 53, 0
4, 29040, Note_on_c, 2, 60, 0
4, 29040, Note_on_c, 2, 69, 0
4, 29040, Note_on_c, 2, 65, 0
4, 29040, Note_on_c, 2, 67, 100
4, 29040, Note_on_c, 2, 52, 100
4, 29040, Note_on_c, 2, 64, 100
4, 29160, Note_on_c, 2, 64, 0
4, 29160, Note_on_c, 2, 52, 0
4, 29160, Note_on_c, 2, 67, 0
4, 29160, Note_on_c, 2, 67, 100
4, 29160, Note_on_c, 2, 50, 100
4, 29160, Note_on_c, 2, 62, 100
4, 29280, Note_on_c, 2, 62, 0
4, 29280, Note_on_c, 2, 50, 0
4, 29280, Note_on_c, 2, 67, 0
4, 29280, Note_on_c, 2, 72, 100
4, 29280, Note_on_c, 2, 67, 100
4, 29280, Note_on_c, 2, 64, 100
4, 29280, Note_on_c, 2, 48, 100
4, 29280, Note_on_c, 2, 60, 100
4, 29760, Note_on_c, 2, 60, 0
4, 29760, Note_on_c, 2, 64, 0
4, 29760, Note_on_c, 2, 72, 0
4, 29760, Note_on_c, 2, 67, 0
4, 29760, Note_on_c, 2, 48, 0
4, 29760, End_track
5, 0, Start_track
5, 0, MIDI_port, 0
5, 0, Title_t, "Orchestral Harp"
5, 0, Program_c, 3, 46
5, 0, Control_c, 3, 7, 80
5, 0, Control_c, 3, 10, 64
5, 16380, Note_on_c, 3, 67, 100
5, 16380, Note_on_c, 3, 64, 100
5, 16380, Note_on_c, 3, 60, 100
5, 16440, Note_on_c, 3, 60, 0
5, 16440, Note_on_c, 3, 64, 0
5, 16440, Note_on_c, 3, 67, 0
5, 16440, Note_on_c, 3, 72, 100
5, 16440, Note_on_c, 3, 67, 100
5, 16440, Note_on_c, 3, 64, 100
5, 16500, Note_on_c, 3, 64, 0
5, 16500, Note_on_c, 3, 67, 0
5, 16500, Note_on_c, 3, 72, 0
5, 16500, Note_on_c, 3, 76, 100
5, 16500, Note_on_c, 3, 72, 100
5, 16500, Note_on_c, 3, 67, 100
5, 16560, Note_on_c, 3, 67, 0
5, 16560, Note_on_c, 3, 72, 0
5, 16560, Note_on_c, 3, 76, 0
5, 16560, Note_on_c, 3, 79, 100
5, 16560, Note_on_c, 3, 76, 100
5, 16560, Note_on_c, 3, 72, 100
5, 16620, Note_on_c, 3, 72, 0
5, 16620, Note_on_c, 3, 76, 0
5, 16620, Note_on_c, 3, 79, 0
5, 16860, Note_on_c, 3, 69, 100
5, 16860, Note_on_c, 3, 65, 100
5, 16860, Note_on_c, 3, 60, 100
5, 16920, Note_on_c, 3, 60, 0
5, 16920, Note_on_c, 3, 65, 0
5, 16920, Note_on_c, 3, 69, 0
5, 16920, Note_on_c, 3, 72, 100
5, 16920, Note_on_c, 3, 69, 100
5, 16920, Note_on_c, 3, 65, 100
5, 16980, Note_on_c, 3, 65, 0
5, 16980, Note_on_c, 3, 69, 0
5, 16980, Note_on_c, 3, 72, 0
5, 16980, Note_on_c, 3, 77, 100
5, 16980, Note_on_c, 3, 69, 100
5, 16980, Note_on_c, 3, 72, 100
5, 17040, Note_on_c, 3, 72, 0
5, 17040, Note_on_c, 3, 69, 0
5, 17040, Note_on_c, 3, 77, 0
5, 17040, Note_on_c, 3, 81, 100
5, 17040, Note_on_c, 3, 77, 100
5, 17040, Note_on_c, 3, 72, 100
5, 17100, Note_on_c, 3, 72, 0
5, 17100, Note_on_c, 3, 77, 0
5, 17100, Note_on_c, 3, 81, 0
5, 17340, Note_on_c, 3, 69, 100
5, 17340, Note_on_c, 3, 65, 100
5, 17340, Note_on_c, 3, 62, 100
5, 17400, Note_on_c, 3, 62, 0
5, 17400, Note_on_c, 3, 65, 0
5, 17400, Note_on_c, 3, 69, 0
5, 17400, Note_on_c, 3, 74, 100
5, 17400, Note_on_c, 3, 69, 100
5, 17400, Note_on_c, 3, 65, 100
5, 17460, Note_on_c, 3, 65, 0
5, 17460, Note_on_c, 3, 69, 0
5, 17460, Note_on_c, 3, 74, 0
5, 17460, Note_on_c, 3, 77, 100
5, 17460, Note_on_c, 3, 74, 100
5, 17460, Note_on_c, 3, 69, 100
5, 17520, Note_on_c, 3, 69, 0
5, 17520, Note_on_c, 3, 74, 0
5, 17520, Note_on_c, 3, 77, 0
5, 17520, Note_on_c, 3, 81, 100
5, 17520, Note_on_c, 3, 77, 100
5, 17520, Note_on_c, 3, 74, 100
5, 17580, Note_on_c, 3, 74, 0
5, 17580, Note_on_c, 3, 77, 0
5, 17580, Note_on_c, 3, 81, 0
5, 17580, End_track
6, 0, Start_track
6, 0, MIDI_port, 0
6, 0, Title_t, "Acoustic Grand Piano"
6, 0, Program_c, 4, 0
6, 0, Control_c, 4, 7, 127
6, 0, Control_c, 4, 10, 64
6, 12960, Note_on_c, 4, 65, 115
6, 12971, Note_on_c, 4, 72, 119
6, 12980, Note_on_c, 4, 77, 89
6, 13144, Note_on_c, 4, 65, 0
6, 13152, Note_on_c, 4, 77, 0
6, 13155, Note_on_c, 4, 72, 0
6, 13421, Note_on_c, 4, 63, 107
6, 13431, Note_on_c, 4, 70, 103
6, 13442, Note_on_c, 4, 77, 73
6, 13447, Note_on_c, 4, 72, 94
6, 13655, Note_on_c, 4, 63, 0
6, 13675, Note_on_c, 4, 70, 0
6, 13677, Note_on_c, 4, 77, 0
6, 13677, Note_on_c, 4, 72, 0
6, 13908, Note_on_c, 4, 62, 105
6, 13917, Note_on_c, 4, 69, 89
6, 13923, Note_on_c, 4, 72, 112
6, 13931, Note_on_c, 4, 77, 95
6, 14170, Note_on_c, 4, 62, 0
6, 14177, Note_on_c, 4, 69, 0
6, 14178, Note_on_c, 4, 77, 0
6, 14180, Note_on_c, 4, 72, 0
6, 17760, Note_on_c, 4, 72, 93
6, 17781, Note_on_c, 4, 79, 105
6, 17795, Note_on_c, 4, 84, 105
6, 17844, Note_on_c, 4, 72, 0
6, 17845, Note_on_c, 4, 79, 0
6, 17858, Note_on_c, 4, 84, 0
6, 19680, Note_on_c, 4, 72, 95
6, 19694, Note_on_c, 4, 79, 112
6, 19707, Note_on_c, 4, 84, 110
6, 19783, Note_on_c, 4, 72, 0
6, 19784, Note_on_c, 4, 79, 0
6, 19789, Note_on_c, 4, 84, 0
6, 20161, Note_on_c, 4, 72, 99
6, 20174, Note_on_c, 4, 82, 110
6, 20186, Note_on_c, 4, 84, 107
6, 20201, Note_on_c, 4, 72, 0
6, 20206, Note_on_c, 4, 82, 0
6, 20333, Note_on_c, 4, 84, 0
6, 20642, Note_on_c, 4, 72, 94
6, 20655, Note_on_c, 4, 81, 115
6, 20672, Note_on_c, 4, 72, 0
6, 20672, Note_on_c, 4, 84, 94
6, 20695, Note_on_c, 4, 81, 0
6, 20804, Note_on_c, 4, 84, 0
6, 21122, Note_on_c, 4, 72, 93
6, 21136, Note_on_c, 4, 80, 99
6, 21142, Note_on_c, 4, 72, 0
6, 21151, Note_on_c, 4, 84, 85
6, 21158, Note_on_c, 4, 80, 0
6, 21252, Note_on_c, 4, 84, 0
6, 21358, Note_on_c, 4, 72, 94
6, 21367, Note_on_c, 4, 82, 99
6, 21379, Note_on_c, 4, 84, 80
6, 21380, Note_on_c, 4, 72, 0
6, 21397, Note_on_c, 4, 82, 0
6, 21485, Note_on_c, 4, 84, 0
6, 21587, Note_on_c, 4, 72, 95
6, 21600, Note_on_c, 4, 79, 123
6, 21606, Note_on_c, 4, 72, 0
6, 21608, Note_on_c, 4, 84, 99
6, 21613, Note_on_c, 4, 79, 0
6, 21712, Note_on_c, 4, 84, 0
6, 22079, Note_on_c, 4, 72, 98
6, 22099, Note_on_c, 4, 82, 95
6, 22111, Note_on_c, 4, 84, 78
6, 22114, Note_on_c, 4, 72, 0
6, 22123, Note_on_c, 4, 82, 0
6, 22278, Note_on_c, 4, 84, 0
6, 22565, Note_on_c, 4, 72, 89
6, 22580, Note_on_c, 4, 81, 115
6, 22583, Note_on_c, 4, 72, 0
6, 22591, Note_on_c, 4, 84, 90
6, 22598, Note_on_c, 4, 81, 0
6, 22811, Note_on_c, 4, 84, 0
6, 23047, Note_on_c, 4, 72, 105
6, 23056, Note_on_c, 4, 80, 103
6, 23064, Note_on_c, 4, 72, 0
6, 23071, Note_on_c, 4, 84, 81
6, 23075, Note_on_c, 4, 80, 0
6, 23163, Note_on_c, 4, 84, 0
6, 23281, Note_on_c, 4, 72, 69
6, 23293, Note_on_c, 4, 82, 112
6, 23298, Note_on_c, 4, 72, 0
6, 23305, Note_on_c, 4, 84, 68
6, 23322, Note_on_c, 4, 82, 0
6, 23415, Note_on_c, 4, 84, 0
6, 24960, Note_on_c, 4, 72, 93
6, 24981, Note_on_c, 4, 79, 105
6, 24995, Note_on_c, 4, 84, 105
6, 25044, Note_on_c, 4, 72, 0
6, 25045, Note_on_c, 4, 79, 0
6, 25058, Note_on_c, 4, 84, 0
6, 27360, Note_on_c, 4, 36, 100
6, 27360, Note_on_c, 4, 48, 100
6, 27360, Note_on_c, 4, 62, 100
6, 27360, Note_on_c, 4, 64, 100
6, 27360, Note_on_c, 4, 67, 100
6, 27420, Note_on_c, 4, 67, 0
6, 27420, Note_on_c, 4, 62, 0
6, 27420, Note_on_c, 4, 64, 0
6, 27420, Note_on_c, 4, 60, 100
6, 27480, Note_on_c, 4, 60, 0
6, 27480, Note_on_c, 4, 64, 100
6, 27480, Note_on_c, 4, 62, 100
6, 27480, Note_on_c, 4, 67, 100
6, 27540, Note_on_c, 4, 67, 0
6, 27540, Note_on_c, 4, 64, 0
6, 27540, Note_on_c, 4, 62, 0
6, 27540, Note_on_c, 4, 60, 100
6, 27600, Note_on_c, 4, 60, 0
6, 27600, Note_on_c, 4, 48, 0
6, 27600, Note_on_c, 4, 36, 0
6, 27600, Note_on_c, 4, 36, 100
6, 27600, Note_on_c, 4, 48, 100
6, 27600, Note_on_c, 4, 70, 100
6, 27600, Note_on_c, 4, 67, 100
6, 27600, Note_on_c, 4, 64, 100
6, 27600, Note_on_c, 4, 62, 100
6, 27660, Note_on_c, 4, 62, 0
6, 27660, Note_on_c, 4, 67, 0
6, 27660, Note_on_c, 4, 70, 0
6, 27660, Note_on_c, 4, 64, 0
6, 27660, Note_on_c, 4, 60, 100
6, 27720, Note_on_c, 4, 60, 0
6, 27720, Note_on_c, 4, 62, 100
6, 27720, Note_on_c, 4, 64, 100
6, 27720, Note_on_c, 4, 67, 100
6, 27720, Note_on_c, 4, 70, 100
6, 27780, Note_on_c, 4, 70, 0
6, 27780, Note_on_c, 4, 64, 0
6, 27780, Note_on_c, 4, 62, 0
6, 27780, Note_on_c, 4, 67, 0
6, 27780, Note_on_c, 4, 60, 100
6, 27840, Note_on_c, 4, 60, 0
6, 27840, Note_on_c, 4, 48, 0
6, 27840, Note_on_c, 4, 36, 0
6, 27840, Note_on_c, 4, 29, 100
6, 27840, Note_on_c, 4, 41, 100
6, 27840, Note_on_c, 4, 62, 100
6, 27840, Note_on_c, 4, 69, 100
6, 27840, Note_on_c, 4, 65, 100
6, 27900, Note_on_c, 4, 65, 0
6, 27900, Note_on_c, 4, 62, 0
6, 27900, Note_on_c, 4, 69, 0
6, 27900, Note_on_c, 4, 60, 100
6, 27960, Note_on_c, 4, 60, 0
6, 27960, Note_on_c, 4, 62, 100
6, 27960, Note_on_c, 4, 65, 100
6, 27960, Note_on_c, 4, 69, 100
6, 28020, Note_on_c, 4, 69, 0
6, 28020, Note_on_c, 4, 62, 0
6, 28020, Note_on_c, 4, 65, 0
6, 28020, Note_on_c, 4, 60, 100
6, 28080, Note_on_c, 4, 60, 0
6, 28080, Note_on_c, 4, 41, 0
6, 28080, Note_on_c, 4, 29, 0
6, 28080, Note_on_c, 4, 29, 100
6, 28080, Note_on_c, 4, 41, 100
6, 28080, Note_on_c, 4, 62, 100
6, 28080, Note_on_c, 4, 65, 100
6, 28080, Note_on_c, 4, 69, 100
6, 28140, Note_on_c, 4, 69, 0
6, 28140, Note_on_c, 4, 62, 0
6, 28140, Note_on_c, 4, 65, 0
6, 28140, Note_on_c, 4, 60, 100
6, 28200, Note_on_c, 4, 60, 0
6, 28200, Note_on_c, 4, 41, 0
6, 28200, Note_on_c, 4, 29, 0
6, 28200, Note_on_c, 4, 62, 100
6, 28200, Note_on_c, 4, 65, 100
6, 28200, Note_on_c, 4, 69, 100
6, 28200, Note_on_c, 4, 28, 100
6, 28200, Note_on_c, 4, 40, 100
6, 28260, Note_on_c, 4, 69, 0
6, 28260, Note_on_c, 4, 62, 0
6, 28260, Note_on_c, 4, 65, 0
6, 28260, Note_on_c, 4, 60, 100
6, 28320, Note_on_c, 4, 60, 0
6, 28320, Note_on_c, 4, 28, 0
6, 28320, Note_on_c, 4, 40, 0
6, 28320, Note_on_c, 4, 38, 100
6, 28320, Note_on_c, 4, 50, 100
6, 28320, Note_on_c, 4, 69, 100
6, 28320, Note_on_c, 4, 65, 100
6, 28320, Note_on_c, 4, 62, 100
6, 28380, Note_on_c, 4, 62, 0
6, 28380, Note_on_c, 4, 69, 0
6, 28380, Note_on_c, 4, 65, 0
6, 28380, Note_on_c, 4, 57, 100
6, 28440, Note_on_c, 4, 57, 0
6, 28440, Note_on_c, 4, 62, 100
6, 28440, Note_on_c, 4, 69, 100
6, 28440, Note_on_c, 4, 65, 100
6, 28500, Note_on_c, 4, 65, 0
6, 28500, Note_on_c, 4, 62, 0
6, 28500, Note_on_c, 4, 69, 0
6, 28500, Note_on_c, 4, 57, 100
6, 28560, Note_on_c, 4, 57, 0
6, 28560, Note_on_c, 4, 50, 0
6, 28560, Note_on_c, 4, 38, 0
6, 28560, Note_on_c, 4, 59, 100
6, 28560, Note_on_c, 4, 62, 100
6, 28560, Note_on_c, 4, 65, 100
6, 28560, Note_on_c, 4, 67, 100
6, 28560, Note_on_c, 4, 31, 100
6, 28560, Note_on_c, 4, 43, 100
6, 28620, Note_on_c, 4, 67, 0
6, 28620, Note_on_c, 4, 65, 0
6, 28620, Note_on_c, 4, 59, 0
6, 28620, Note_on_c, 4, 62, 0
6, 28620, Note_on_c, 4, 55, 100
6, 28680, Note_on_c, 4, 55, 0
6, 28680, Note_on_c, 4, 59, 100
6, 28680, Note_on_c, 4, 62, 100
6, 28680, Note_on_c, 4, 65, 100
6, 28680, Note_on_c, 4, 67, 100
6, 28740, Note_on_c, 4, 67, 0
6, 28740, Note_on_c, 4, 62, 0
6, 28740, Note_on_c, 4, 59, 0
6, 28740, Note_on_c, 4, 65, 0
6, 28740, Note_on_c, 4, 55, 100
6, 28800, Note_on_c, 4, 55, 0
6, 28800, Note_on_c, 4, 31, 0
6, 28800, Note_on_c, 4, 43, 0
6, 28800, Note_on_c, 4, 62, 100
6, 28800, Note_on_c, 4, 69, 100
6, 28800, Note_on_c, 4, 65, 100
6, 28800, Note_on_c, 4, 60, 100
6, 28800, Note_on_c, 4, 41, 100
6, 28800, Note_on_c, 4, 53, 100
6, 29040, Note_on_c, 4, 53, 0
6, 29040, Note_on_c, 4, 69, 0
6, 29040, Note_on_c, 4, 65, 0
6, 29040, Note_on_c, 4, 62, 0
6, 29040, Note_on_c, 4, 41, 0
6, 29040, Note_on_c, 4, 60, 0
6, 29040, Note_on_c, 4, 67, 100
6, 29040, Note_on_c, 4, 64, 100
6, 29040, Note_on_c, 4, 60, 100
6, 29040, Note_on_c, 4, 40, 100
6, 29040, Note_on_c, 4, 52, 100
6, 29160, Note_on_c, 4, 52, 0
6, 29160, Note_on_c, 4, 60, 0
6, 29160, Note_on_c, 4, 67, 0
6, 29160, Note_on_c, 4, 64, 0
6, 29160, Note_on_c, 4, 40, 0
6, 29160, Note_on_c, 4, 67, 100
6, 29160, Note_on_c, 4, 62, 100
6, 29160, Note_on_c, 4, 59, 100
6, 29160, Note_on_c, 4, 38, 100
6, 29160, Note_on_c, 4, 50, 100
6, 29280, Note_on_c, 4, 50, 0
6, 29280, Note_on_c, 4, 59, 0
6, 29280, Note_on_c, 4, 67, 0
6, 29280, Note_on_c, 4, 62, 0
6, 29280, Note_on_c, 4, 38, 0
6, 29280, Note_on_c, 4, 72, 100
6, 29280, Note_on_c, 4, 67, 100
6, 29280, Note_on_c, 4, 64, 100
6, 29280, Note_on_c, 4, 60, 100
6, 29280, Note_on_c, 4, 36, 100
6, 29280, Note_on_c, 4, 48, 100
6, 29760, Note_on_c, 4, 48, 0
6, 29760, Note_on_c, 4, 67, 0
6, 29760, Note_on_c, 4, 64, 0
6, 29760, Note_on_c, 4, 72, 0
6, 29760, Note_on_c, 4, 36, 0
6, 29760, Note_on_c, 4, 60, 0
6, 29760, End_track
7, 0, Start_track
7, 0, MIDI_port, 0
7, 0, Title_t, "Acoustic Guitar"
7, 0, Program_c, 5, 25
7, 0, Control_c, 5, 7, 100
7, 0, Control_c, 5, 10, 64
7, 5743, Note_on_c, 5, 53, 85
7, 5747, Note_on_c, 5, 57, 80
7, 5756, Note_on_c, 5, 60, 117
7, 5763, Note_on_c, 5, 65, 112
7, 6049, Note_on_c, 5, 60, 0
7, 6053, Note_on_c, 5, 57, 0
7, 6056, Note_on_c, 5, 53, 0
7, 6057, Note_on_c, 5, 65, 0
7, 6113, Note_on_c, 5, 53, 67
7, 6115, Note_on_c, 5, 57, 90
7, 6118, Note_on_c, 5, 60, 84
7, 6125, Note_on_c, 5, 65, 77
7, 6159, Note_on_c, 5, 65, 0
7, 6160, Note_on_c, 5, 53, 0
7, 6162, Note_on_c, 5, 60, 0
7, 6162, Note_on_c, 5, 57, 0
7, 6227, Note_on_c, 5, 51, 57
7, 6234, Note_on_c, 5, 55, 93
7, 6237, Note_on_c, 5, 53, 44
7, 6242, Note_on_c, 5, 63, 107
7, 6243, Note_on_c, 5, 53, 0
7, 6244, Note_on_c, 5, 58, 77
7, 6538, Note_on_c, 5, 51, 0
7, 6538, Note_on_c, 5, 55, 0
7, 6540, Note_on_c, 5, 58, 0
7, 6555, Note_on_c, 5, 63, 0
7, 6698, Note_on_c, 5, 50, 70
7, 6704, Note_on_c, 5, 53, 104
7, 6710, Note_on_c, 5, 57, 101
7, 6711, Note_on_c, 5, 55, 94
7, 6713, Note_on_c, 5, 55, 0
7, 6724, Note_on_c, 5, 62, 119
7, 7051, Note_on_c, 5, 62, 0
7, 7051, Note_on_c, 5, 50, 0
7, 7052, Note_on_c, 5, 53, 0
7, 7054, Note_on_c, 5, 57, 0
7, 23520, Note_on_c, 5, 65, 100
7, 23520, Note_on_c, 5, 60, 100
7, 23520, Note_on_c, 5, 57, 100
7, 23520, Note_on_c, 5, 53, 100
7, 23760, Note_on_c, 5, 53, 0
7, 23760, Note_on_c, 5, 65, 0
7, 23760, Note_on_c, 5, 60, 0
7, 23760, Note_on_c, 5, 57, 0
7, 23760, Note_on_c, 5, 53, 100
7, 23760, Note_on_c, 5, 57, 100
7, 23760, Note_on_c, 5, 60, 100
7, 23760, Note_on_c, 5, 65, 100
7, 23820, Note_on_c, 5, 65, 0
7, 23820, Note_on_c, 5, 53, 0
7, 23820, Note_on_c, 5, 57, 0
7, 23820, Note_on_c, 5, 60, 0
7, 23820, Note_on_c, 5, 53, 100
7, 23820, Note_on_c, 5, 57, 100
7, 23820, Note_on_c, 5, 60, 100
7, 23820, Note_on_c, 5, 65, 100
7, 23880, Note_on_c, 5, 65, 0
7, 23880, Note_on_c, 5, 53, 0
7, 23880, Note_on_c, 5, 57, 0
7, 23880, Note_on_c, 5, 60, 0
7, 23880, Note_on_c, 5, 53, 100
7, 23880, Note_on_c, 5, 57, 100
7, 23880, Note_on_c, 5, 60, 100
7, 23880, Note_on_c, 5, 65, 100
7, 23940, Note_on_c, 5, 65, 0
7, 23940, Note_on_c, 5, 53, 0
7, 23940, Note_on_c, 5, 57, 0
7, 23940, Note_on_c, 5, 60, 0
7, 23940, Note_on_c, 5, 53, 100
7, 23940, Note_on_c, 5, 57, 100
7, 23940, Note_on_c, 5, 60, 100
7, 23940, Note_on_c, 5, 65, 100
7, 24000, Note_on_c, 5, 65, 0
7, 24000, Note_on_c, 5, 53, 0
7, 24000, Note_on_c, 5, 57, 0
7, 24000, Note_on_c, 5, 60, 0
7, 24000, Note_on_c, 5, 63, 100
7, 24000, Note_on_c, 5, 58, 100
7, 24000, Note_on_c, 5, 55, 100
7, 24000, Note_on_c, 5, 65, 100
7, 24240, Note_on_c, 5, 65, 0
7, 24240, Note_on_c, 5, 63, 0
7, 24240, Note_on_c, 5, 58, 0
7, 24240, Note_on_c, 5, 55, 0
7, 24240, Note_on_c, 5, 55, 100
7, 24240, Note_on_c, 5, 58, 100
7, 24240, Note_on_c, 5, 63, 100
7, 24240, Note_on_c, 5, 65, 100
7, 24300, Note_on_c, 5, 65, 0
7, 24300, Note_on_c, 5, 55, 0
7, 24300, Note_on_c, 5, 58, 0
7, 24300, Note_on_c, 5, 63, 0
7, 24300, Note_on_c, 5, 55, 100
7, 24300, Note_on_c, 5, 58, 100
7, 24300, Note_on_c, 5, 63, 100
7, 24300, Note_on_c, 5, 65, 100
7, 24360, Note_on_c, 5, 65, 0
7, 24360, Note_on_c, 5, 55, 0
7, 24360, Note_on_c, 5, 58, 0
7, 24360, Note_on_c, 5, 63, 0
7, 24360, Note_on_c, 5, 55, 100
7, 24360, Note_on_c, 5, 58, 100
7, 24360, Note_on_c, 5, 63, 100
7, 24360, Note_on_c, 5, 65, 100
7, 24420, Note_on_c, 5, 65, 0
7, 24420, Note_on_c, 5, 55, 0
7, 24420, Note_on_c, 5, 58, 0
7, 24420, Note_on_c, 5, 63, 0
7, 24420, Note_on_c, 5, 55, 100
7, 24420, Note_on_c, 5, 58, 100
7, 24420, Note_on_c, 5, 63, 100
7, 24420, Note_on_c, 5, 65, 100
7, 24480, Note_on_c, 5, 65, 0
7, 24480, Note_on_c, 5, 55, 0
7, 24480, Note_on_c, 5, 58, 0
7, 24480, Note_on_c, 5, 63, 0
7, 24480, Note_on_c, 5, 60, 100
7, 24480, Note_on_c, 5, 53, 100
7, 24480, Note_on_c, 5, 65, 100
7, 24480, Note_on_c, 5, 62, 100
7, 24480, Note_on_c, 5, 57, 100
7, 24960, Note_on_c, 5, 57, 0
7, 24960, Note_on_c, 5, 65, 0
7, 24960, Note_on_c, 5, 60, 0
7, 24960, Note_on_c, 5, 53, 0
7, 24960, Note_on_c, 5, 62, 0
7, 24960, End_track
8, 0, Start_track
8, 0, MIDI_port, 0
8, 0, Title_t, "Melodic Tom"
8, 0, Program_c, 6, 117
8, 0, Control_c, 6, 7, 100
8, 0, Control_c, 6, 10, 64
8, 1800, Note_on_c, 6, 64, 100
8, 1839, Note_on_c, 6, 62, 100
8, 1840, Note_on_c, 6, 64, 0
8, 1860, Note_on_c, 6, 59, 100
8, 1879, Note_on_c, 6, 62, 0
8, 1890, Note_on_c, 6, 59, 0
8, 5640, Note_on_c, 6, 64, 100
8, 5679, Note_on_c, 6, 62, 100
8, 5680, Note_on_c, 6, 64, 0
8, 5700, Note_on_c, 6, 59, 100
8, 5719, Note_on_c, 6, 62, 0
8, 5730, Note_on_c, 6, 59, 0
8, 9000, Note_on_c, 6, 64, 100
8, 9039, Note_on_c, 6, 62, 100
8, 9040, Note_on_c, 6, 64, 0
8, 9060, Note_on_c, 6, 59, 100
8, 9079, Note_on_c, 6, 62, 0
8, 9090, Note_on_c, 6, 59, 0
8, 12840, Note_on_c, 6, 64, 100
8, 12879, Note_on_c, 6, 62, 100
8, 12880, Note_on_c, 6, 64, 0
8, 12900, Note_on_c, 6, 59, 100
8, 12919, Note_on_c, 6, 62, 0
8, 12930, Note_on_c, 6, 59, 0
8, 14280, Note_on_c, 6, 64, 100
8, 14319, Note_on_c, 6, 62, 100
8, 14320, Note_on_c, 6, 64, 0
8, 14340, Note_on_c, 6, 59, 100
8, 14359, Note_on_c, 6, 62, 0
8, 14370, Note_on_c, 6, 59, 0
8, 19560, Note_on_c, 6, 64, 100
8, 19599, Note_on_c, 6, 62, 100
8, 19600, Note_on_c, 6, 64, 0
8, 19620, Note_on_c, 6, 59, 100
8, 19639, Note_on_c, 6, 62, 0
8, 19650, Note_on_c, 6, 59, 0
8, 26760, Note_on_c, 6, 64, 100
8, 26799, Note_on_c, 6, 62, 100
8, 26800, Note_on_c, 6, 64, 0
8, 26820, Note_on_c, 6, 59, 100
8, 26839, Note_on_c, 6, 62, 0
8, 26850, Note_on_c, 6, 59, 0
8, 26850, End_track
9, 0, Start_track
9, 0, MIDI_port, 0
9, 0, Title_t, "String Ensemble 1"
9, 0, Program_c, 7, 48
9, 0, Control_c, 7, 7, 85
9, 0, Control_c, 7, 10, 64
9, 9120, Note_on_c, 7, 72, 100
9, 9120, Note_on_c, 7, 84, 100
9, 9600, Note_on_c, 7, 70, 100
9, 9600, Note_on_c, 7, 82, 100
9, 10080, Note_on_c, 7, 82, 0
9, 10080, Note_on_c, 7, 70, 0
9, 10080, Note_on_c, 7, 69, 100
9, 10080, Note_on_c, 7, 81, 100
9, 10560, Note_on_c, 7, 81, 0
9, 10560, Note_on_c, 7, 69, 0
9, 10560, Note_on_c, 7, 68, 100
9, 10560, Note_on_c, 7, 80, 100
9, 10800, Note_on_c, 7, 80, 0
9, 10800, Note_on_c, 7, 68, 0
9, 10800, Note_on_c, 7, 70, 100
9, 10800, Note_on_c, 7, 82, 100
9, 11040, Note_on_c, 7, 82, 0
9, 11040, Note_on_c, 7, 70, 0
9, 11520, Note_on_c, 7, 70, 100
9, 11520, Note_on_c, 7, 82, 100
9, 12000, Note_on_c, 7, 82, 0
9, 12000, Note_on_c, 7, 70, 0
9, 12000, Note_on_c, 7, 81, 100
9, 12000, Note_on_c, 7, 69, 100
9, 12480, Note_on_c, 7, 69, 0
9, 12480, Note_on_c, 7, 81, 0
9, 12480, Note_on_c, 7, 68, 100
9, 12480, Note_on_c, 7, 80, 100
9, 12720, Note_on_c, 7, 80, 0
9, 12720, Note_on_c, 7, 68, 0
9, 12720, Note_on_c, 7, 70, 100
9, 12720, Note_on_c, 7, 82, 100
9, 12960, Note_on_c, 7, 82, 0
9, 12960, Note_on_c, 7, 72, 0
9, 12960, Note_on_c, 7, 84, 0
9, 12960, Note_on_c, 7, 70, 0
9, 12960, End_track
10, 0, Start_track
10, 0, MIDI_port, 0
10, 0, Program_c, 8, 126
10, 0, Control_c, 8, 7, 127
10, 0, Control_c, 8, 10, 64
10, 0, End_track
11, 0, Start_track
11, 0, MIDI_port, 0
11, 0, Title_t, "Drums"
11, 0, Program_c, 9, 23
11, 0, Control_c, 9, 7, 120
11, 0, Control_c, 9, 10, 64
11, 0, Note_on_c, 9, 57, 127
11, 0, Note_on_c, 9, 36, 100
11, 60, Note_on_c, 9, 36, 0
11, 60, Note_on_c, 9, 42, 100
11, 120, Note_on_c, 9, 42, 0
11, 120, Note_on_c, 9, 57, 0
11, 120, Note_on_c, 9, 40, 100
11, 120, Note_on_c, 9, 38, 100
11, 180, Note_on_c, 9, 38, 0
11, 180, Note_on_c, 9, 42, 100
11, 240, Note_on_c, 9, 42, 0
11, 240, Note_on_c, 9, 40, 0
11, 240, Note_on_c, 9, 36, 100
11, 300, Note_on_c, 9, 36, 0
11, 300, Note_on_c, 9, 42, 100
11, 360, Note_on_c, 9, 42, 0
11, 360, Note_on_c, 9, 40, 100
11, 360, Note_on_c, 9, 38, 100
11, 420, Note_on_c, 9, 38, 0
11, 420, Note_on_c, 9, 42, 100
11, 480, Note_on_c, 9, 42, 0
11, 480, Note_on_c, 9, 40, 0
11, 480, Note_on_c, 9, 36, 100
11, 540, Note_on_c, 9, 36, 0
11, 540, Note_on_c, 9, 42, 100
11, 600, Note_on_c, 9, 42, 0
11, 600, Note_on_c, 9, 40, 100
11, 600, Note_on_c, 9, 38, 100
11, 660, Note_on_c, 9, 38, 0
11, 660, Note_on_c, 9, 42, 100
11, 720, Note_on_c, 9, 42, 0
11, 720, Note_on_c, 9, 40, 0
11, 720, Note_on_c, 9, 36, 100
11, 780, Note_on_c, 9, 36, 0
11, 780, Note_on_c, 9, 42, 100
11, 840, Note_on_c, 9, 42, 0
11, 840, Note_on_c, 9, 40, 100
11, 840, Note_on_c, 9, 38, 100
11, 900, Note_on_c, 9, 38, 0
11, 900, Note_on_c, 9, 42, 100
11, 960, Note_on_c, 9, 42, 0
11, 960, Note_on_c, 9, 40, 0
11, 960, Note_on_c, 9, 36, 100
11, 1020, Note_on_c, 9, 36, 0
11, 1020, Note_on_c, 9, 42, 100
11, 1080, Note_on_c, 9, 42, 0
11, 1080, Note_on_c, 9, 40, 100
11, 1080, Note_on_c, 9, 38, 100
11, 1140, Note_on_c, 9, 38, 0
11, 1140, Note_on_c, 9, 42, 100
11, 1200, Note_on_c, 9, 42, 0
11, 1200, Note_on_c, 9, 40, 0
11, 1200, Note_on_c, 9, 36, 100
11, 1260, Note_on_c, 9, 36, 0
11, 1260, Note_on_c, 9, 42, 100
11, 1320, Note_on_c, 9, 42, 0
11, 1320, Note_on_c, 9, 40, 100
11, 1320, Note_on_c, 9, 38, 100
11, 1380, Note_on_c, 9, 38, 0
11, 1380, Note_on_c, 9, 42, 100
11, 1440, Note_on_c, 9, 42, 0
11, 1440, Note_on_c, 9, 40, 0
11, 1440, Note_on_c, 9, 36, 100
11, 1500, Note_on_c, 9, 36, 0
11, 1500, Note_on_c, 9, 42, 100
11, 1560, Note_on_c, 9, 42, 0
11, 1560, Note_on_c, 9, 40, 100
11, 1560, Note_on_c, 9, 38, 100
11, 1620, Note_on_c, 9, 38, 0
11, 1620, Note_on_c, 9, 42, 100
11, 1680, Note_on_c, 9, 42, 0
11, 1680, Note_on_c, 9, 40, 0
11, 1680, Note_on_c, 9, 36, 100
11, 1740, Note_on_c, 9, 36, 0
11, 1740, Note_on_c, 9, 42, 100
11, 1800, Note_on_c, 9, 42, 0
11, 1800, Note_on_c, 9, 40, 100
11, 1800, Note_on_c, 9, 38, 100
11, 1860, Note_on_c, 9, 38, 0
11, 1860, Note_on_c, 9, 42, 100
11, 1920, Note_on_c, 9, 42, 0
11, 1920, Note_on_c, 9, 40, 0
11, 1920, Note_on_c, 9, 57, 127
11, 1920, Note_on_c, 9, 36, 100
11, 1980, Note_on_c, 9, 36, 0
11, 1980, Note_on_c, 9, 42, 100
11, 2040, Note_on_c, 9, 42, 0
11, 2040, Note_on_c, 9, 57, 0
11, 2040, Note_on_c, 9, 40, 100
11, 2040, Note_on_c, 9, 38, 100
11, 2100, Note_on_c, 9, 38, 0
11, 2100, Note_on_c, 9, 42, 100
11, 2160, Note_on_c, 9, 42, 0
11, 2160, Note_on_c, 9, 40, 0
11, 2160, Note_on_c, 9, 36, 100
11, 2220, Note_on_c, 9, 36, 0
11, 2220, Note_on_c, 9, 42, 100
11, 2280, Note_on_c, 9, 42, 0
11, 2280, Note_on_c, 9, 40, 100
11, 2280, Note_on_c, 9, 38, 100
11, 2340, Note_on_c, 9, 38, 0
11, 2340, Note_on_c, 9, 42, 100
11, 2400, Note_on_c, 9, 42, 0
11, 2400, Note_on_c, 9, 40, 0
11, 2400, Note_on_c, 9, 36, 100
11, 2460, Note_on_c, 9, 36, 0
11, 2460, Note_on_c, 9, 42, 100
11, 2520, Note_on_c, 9, 42, 0
11, 2520, Note_on_c, 9, 40, 100
11, 2520, Note_on_c, 9, 38, 100
11, 2580, Note_on_c, 9, 38, 0
11, 2580, Note_on_c, 9, 42, 100
11, 2640, Note_on_c, 9, 42, 0
11, 2640, Note_on_c, 9, 40, 0
11, 2640, Note_on_c, 9, 36, 100
11, 2700, Note_on_c, 9, 36, 0
11, 2700, Note_on_c, 9, 42, 100
11, 2760, Note_on_c, 9, 42, 0
11, 2760, Note_on_c, 9, 40, 100
11, 2760, Note_on_c, 9, 38, 100
11, 2820, Note_on_c, 9, 38, 0
11, 2820, Note_on_c, 9, 42, 100
11, 2880, Note_on_c, 9, 42, 0
11, 2880, Note_on_c, 9, 40, 0
11, 2880, Note_on_c, 9, 36, 100
11, 2940, Note_on_c, 9, 36, 0
11, 2940, Note_on_c, 9, 42, 100
11, 3000, Note_on_c, 9, 42, 0
11, 3000, Note_on_c, 9, 40, 100
11, 3000, Note_on_c, 9, 38, 100
11, 3060, Note_on_c, 9, 38, 0
11, 3060, Note_on_c, 9, 42, 100
11, 3120, Note_on_c, 9, 42, 0
11, 3120, Note_on_c, 9, 40, 0
11, 3120, Note_on_c, 9, 36, 100
11, 3180, Note_on_c, 9, 36, 0
11, 3180, Note_on_c, 9, 42, 100
11, 3240, Note_on_c, 9, 42, 0
11, 3240, Note_on_c, 9, 40, 100
11, 3240, Note_on_c, 9, 38, 100
11, 3300, Note_on_c, 9, 38, 0
11, 3300, Note_on_c, 9, 42, 100
11, 3360, Note_on_c, 9, 42, 0
11, 3360, Note_on_c, 9, 40, 0
11, 3360, Note_on_c, 9, 36, 100
11, 3420, Note_on_c, 9, 36, 0
11, 3420, Note_on_c, 9, 42, 100
11, 3480, Note_on_c, 9, 42, 0
11, 3480, Note_on_c, 9, 40, 100
11, 3480, Note_on_c, 9, 38, 100
11, 3540, Note_on_c, 9, 38, 0
11, 3540, Note_on_c, 9, 42, 100
11, 3600, Note_on_c, 9, 42, 0
11, 3600, Note_on_c, 9, 40, 0
11, 3600, Note_on_c, 9, 36, 100
11, 3660, Note_on_c, 9, 36, 0
11, 3660, Note_on_c, 9, 42, 100
11, 3720, Note_on_c, 9, 42, 0
11, 3720, Note_on_c, 9, 40, 100
11, 3720, Note_on_c, 9, 38, 100
11, 3780, Note_on_c, 9, 38, 0
11, 3780, Note_on_c, 9, 42, 100
11, 3840, Note_on_c, 9, 42, 0
11, 3840, Note_on_c, 9, 40, 0
11, 3840, Note_on_c, 9, 36, 100
11, 3900, Note_on_c, 9, 36, 0
11, 3900, Note_on_c, 9, 42, 100
11, 3960, Note_on_c, 9, 42, 0
11, 3960, Note_on_c, 9, 40, 100
11, 3960, Note_on_c, 9, 38, 100
11, 4020, Note_on_c, 9, 38, 0
11, 4020, Note_on_c, 9, 42, 100
11, 4080, Note_on_c, 9, 42, 0
11, 4080, Note_on_c, 9, 40, 0
11, 4080, Note_on_c, 9, 36, 100
11, 4140, Note_on_c, 9, 36, 0
11, 4140, Note_on_c, 9, 42, 100
11, 4200, Note_on_c, 9, 42, 0
11, 4200, Note_on_c, 9, 40, 100
11, 4200, Note_on_c, 9, 38, 100
11, 4260, Note_on_c, 9, 38, 0
11, 4260, Note_on_c, 9, 42, 100
11, 4320, Note_on_c, 9, 42, 0
11, 4320, Note_on_c, 9, 40, 0
11, 4320, Note_on_c, 9, 36, 100
11, 4380, Note_on_c, 9, 36, 0
11, 4380, Note_on_c, 9, 42, 100
11, 4440, Note_on_c, 9, 42, 0
11, 4440, Note_on_c, 9, 40, 100
11, 4440, Note_on_c, 9, 38, 100
11, 4500, Note_on_c, 9, 38, 0
11, 4500, Note_on_c, 9, 42, 100
11, 4560, Note_on_c, 9, 42, 0
11, 4560, Note_on_c, 9, 40, 0
11, 4560, Note_on_c, 9, 36, 100
11, 4620, Note_on_c, 9, 36, 0
11, 4620, Note_on_c, 9, 42, 100
11, 4680, Note_on_c, 9, 42, 0
11, 4680, Note_on_c, 9, 40, 100
11, 4680, Note_on_c, 9, 38, 100
11, 4740, Note_on_c, 9, 38, 0
11, 4740, Note_on_c, 9, 42, 100
11, 4800, Note_on_c, 9, 42, 0
11, 4800, Note_on_c, 9, 40, 0
11, 4800, Note_on_c, 9, 36, 100
11, 4860, Note_on_c, 9, 36, 0
11, 4860, Note_on_c, 9, 42, 100
11, 4920, Note_on_c, 9, 42, 0
11, 4920, Note_on_c, 9, 40, 100
11, 4920, Note_on_c, 9, 38, 100
11, 4980, Note_on_c, 9, 38, 0
11, 4980, Note_on_c, 9, 42, 100
11, 5040, Note_on_c, 9, 42, 0
11, 5040, Note_on_c, 9, 40, 0
11, 5040, Note_on_c, 9, 36, 100
11, 5100, Note_on_c, 9, 36, 0
11, 5100, Note_on_c, 9, 42, 100
11, 5160, Note_on_c, 9, 42, 0
11, 5160, Note_on_c, 9, 40, 100
11, 5160, Note_on_c, 9, 38, 100
11, 5220, Note_on_c, 9, 38, 0
11, 5220, Note_on_c, 9, 42, 100
11, 5280, Note_on_c, 9, 42, 0
11, 5280, Note_on_c, 9, 40, 0
11, 5280, Note_on_c, 9, 36, 100
11, 5340, Note_on_c, 9, 36, 0
11, 5340, Note_on_c, 9, 42, 100
11, 5400, Note_on_c, 9, 42, 0
11, 5400, Note_on_c, 9, 40, 100
11, 5400, Note_on_c, 9, 38, 100
11, 5460, Note_on_c, 9, 38, 0
11, 5460, Note_on_c, 9, 42, 100
11, 5520, Note_on_c, 9, 42, 0
11, 5520, Note_on_c, 9, 40, 0
11, 5520, Note_on_c, 9, 36, 100
11, 5580, Note_on_c, 9, 36, 0
11, 5580, Note_on_c, 9, 42, 100
11, 5621, Note_on_c, 9, 38, 100
11, 5636, Note_on_c, 9, 38, 0
11, 5640, Note_on_c, 9, 42, 0
11, 5640, Note_on_c, 9, 40, 100
11, 5640, Note_on_c, 9, 38, 100
11, 5700, Note_on_c, 9, 38, 0
11, 5700, Note_on_c, 9, 38, 100
11, 5700, Note_on_c, 9, 42, 100
11, 5730, Note_on_c, 9, 38, 0
11, 5760, Note_on_c, 9, 42, 0
11, 5760, Note_on_c, 9, 40, 0
11, 5760, Note_on_c, 9, 57, 127
11, 5760, Note_on_c, 9, 36, 100
11, 5820, Note_on_c, 9, 36, 0
11, 5820, Note_on_c, 9, 42, 100
11, 5880, Note_on_c, 9, 42, 0
11, 5880, Note_on_c, 9, 57, 0
11, 5880, Note_on_c, 9, 40, 100
11, 5880, Note_on_c, 9, 38, 100
11, 5940, Note_on_c, 9, 38, 0
11, 5940, Note_on_c, 9, 42, 100
11, 6000, Note_on_c, 9, 42, 0
11, 6000, Note_on_c, 9, 40, 0
11, 6000, Note_on_c, 9, 36, 100
11, 6060, Note_on_c, 9, 36, 0
11, 6060, Note_on_c, 9, 42, 100
11, 6120, Note_on_c, 9, 42, 0
11, 6120, Note_on_c, 9, 40, 100
11, 6120, Note_on_c, 9, 38, 100
11, 6180, Note_on_c, 9, 38, 0
11, 6180, Note_on_c, 9, 42, 100
11, 6240, Note_on_c, 9, 42, 0
11, 6240, Note_on_c, 9, 40, 0
11, 6240, Note_on_c, 9, 36, 100
11, 6300, Note_on_c, 9, 36, 0
11, 6300, Note_on_c, 9, 42, 100
11, 6360, Note_on_c, 9, 42, 0
11, 6360, Note_on_c, 9, 40, 100
11, 6360, Note_on_c, 9, 38, 100
11, 6420, Note_on_c, 9, 38, 0
11, 6420, Note_on_c, 9, 42, 100
11, 6480, Note_on_c, 9, 42, 0
11, 6480, Note_on_c, 9, 40, 0
11, 6480, Note_on_c, 9, 36, 100
11, 6540, Note_on_c, 9, 36, 0
11, 6540, Note_on_c, 9, 42, 100
11, 6600, Note_on_c, 9, 42, 0
11, 6600, Note_on_c, 9, 40, 100
11, 6600, Note_on_c, 9, 38, 100
11, 6660, Note_on_c, 9, 38, 0
11, 6660, Note_on_c, 9, 42, 100
11, 6720, Note_on_c, 9, 42, 0
11, 6720, Note_on_c, 9, 40, 0
11, 6720, Note_on_c, 9, 36, 100
11, 6780, Note_on_c, 9, 36, 0
11, 6780, Note_on_c, 9, 42, 100
11, 6840, Note_on_c, 9, 42, 0
11, 6840, Note_on_c, 9, 40, 100
11, 6840, Note_on_c, 9, 38, 100
11, 6900, Note_on_c, 9, 38, 0
11, 6900, Note_on_c, 9, 42, 100
11, 6960, Note_on_c, 9, 42, 0
11, 6960, Note_on_c, 9, 40, 0
11, 6960, Note_on_c, 9, 36, 100
11, 7020, Note_on_c, 9, 36, 0
11, 7020, Note_on_c, 9, 42, 100
11, 7061, Note_on_c, 9, 38, 100
11, 7076, Note_on_c, 9, 38, 0
11, 7080, Note_on_c, 9, 42, 0
11, 7080, Note_on_c, 9, 40, 100
11, 7080, Note_on_c, 9, 38, 100
11, 7140, Note_on_c, 9, 38, 0
11, 7140, Note_on_c, 9, 38, 100
11, 7140, Note_on_c, 9, 42, 100
11, 7170, Note_on_c, 9, 38, 0
11, 7200, Note_on_c, 9, 42, 0
11, 7200, Note_on_c, 9, 40, 0
11, 7200, Note_on_c, 9, 57, 127
11, 7200, Note_on_c, 9, 36, 100
11, 7260, Note_on_c, 9, 36, 0
11, 7260, Note_on_c, 9, 42, 100
11, 7320, Note_on_c, 9, 42, 0
11, 7320, Note_on_c, 9, 57, 0
11, 7320, Note_on_c, 9, 40, 100
11, 7320, Note_on_c, 9, 38, 100
11, 7380, Note_on_c, 9, 38, 0
11, 7380, Note_on_c, 9, 42, 100
11, 7440, Note_on_c, 9, 42, 0
11, 7440, Note_on_c, 9, 40, 0
11, 7440, Note_on_c, 9, 36, 100
11, 7500, Note_on_c, 9, 36, 0
11, 7500, Note_on_c, 9, 42, 100
11, 7560, Note_on_c, 9, 42, 0
11, 7560, Note_on_c, 9, 40, 100
11, 7560, Note_on_c, 9, 38, 100
11, 7620, Note_on_c, 9, 38, 0
11, 7620, Note_on_c, 9, 42, 100
11, 7680, Note_on_c, 9, 42, 0
11, 7680, Note_on_c, 9, 40, 0
11, 7680, Note_on_c, 9, 36, 100
11, 7740, Note_on_c, 9, 36, 0
11, 7740, Note_on_c, 9, 42, 100
11, 7800, Note_on_c, 9, 42, 0
11, 7800, Note_on_c, 9, 40, 100
11, 7800, Note_on_c, 9, 38, 100
11, 7860, Note_on_c, 9, 38, 0
11, 7860, Note_on_c, 9, 42, 100
11, 7920, Note_on_c, 9, 42, 0
11, 7920, Note_on_c, 9, 40, 0
11, 7920, Note_on_c, 9, 36, 100
11, 7980, Note_on_c, 9, 36, 0
11, 7980, Note_on_c, 9, 42, 100
11, 8040, Note_on_c, 9, 42, 0
11, 8040, Note_on_c, 9, 40, 100
11, 8040, Note_on_c, 9, 38, 100
11, 8100, Note_on_c, 9, 38, 0
11, 8100, Note_on_c, 9, 42, 100
11, 8160, Note_on_c, 9, 42, 0
11, 8160, Note_on_c, 9, 40, 0
11, 8160, Note_on_c, 9, 57, 110
11, 8160, Note_on_c, 9, 36, 100
11, 8220, Note_on_c, 9, 36, 0
11, 8220, Note_on_c, 9, 42, 100
11, 8280, Note_on_c, 9, 42, 0
11, 8280, Note_on_c, 9, 57, 0
11, 8280, Note_on_c, 9, 40, 100
11, 8280, Note_on_c, 9, 38, 100
11, 8340, Note_on_c, 9, 38, 0
11, 8340, Note_on_c, 9, 42, 100
11, 8400, Note_on_c, 9, 42, 0
11, 8400, Note_on_c, 9, 40, 0
11, 8400, Note_on_c, 9, 36, 100
11, 8460, Note_on_c, 9, 36, 0
11, 8460, Note_on_c, 9, 42, 100
11, 8520, Note_on_c, 9, 42, 0
11, 8520, Note_on_c, 9, 40, 100
11, 8520, Note_on_c, 9, 38, 100
11, 8580, Note_on_c, 9, 38, 0
11, 8580, Note_on_c, 9, 42, 100
11, 8640, Note_on_c, 9, 42, 0
11, 8640, Note_on_c, 9, 40, 0
11, 8640, Note_on_c, 9, 36, 100
11, 8700, Note_on_c, 9, 36, 0
11, 8700, Note_on_c, 9, 42, 100
11, 8760, Note_on_c, 9, 42, 0
11, 8760, Note_on_c, 9, 40, 100
11, 8760, Note_on_c, 9, 38, 100
11, 8820, Note_on_c, 9, 38, 0
11, 8820, Note_on_c, 9, 42, 100
11, 8880, Note_on_c, 9, 42, 0
11, 8880, Note_on_c, 9, 40, 0
11, 8880, Note_on_c, 9, 36, 100
11, 8940, Note_on_c, 9, 36, 0
11, 8940, Note_on_c, 9, 42, 100
11, 9000, Note_on_c, 9, 42, 0
11, 9000, Note_on_c, 9, 40, 100
11, 9000, Note_on_c, 9, 38, 100
11, 9060, Note_on_c, 9, 38, 0
11, 9060, Note_on_c, 9, 42, 100
11, 9120, Note_on_c, 9, 42, 0
11, 9120, Note_on_c, 9, 40, 0
11, 9120, Note_on_c, 9, 57, 127
11, 9120, Note_on_c, 9, 36, 100
11, 9180, Note_on_c, 9, 36, 0
11, 9180, Note_on_c, 9, 42, 100
11, 9240, Note_on_c, 9, 42, 0
11, 9240, Note_on_c, 9, 57, 0
11, 9240, Note_on_c, 9, 40, 100
11, 9240, Note_on_c, 9, 38, 100
11, 9300, Note_on_c, 9, 38, 0
11, 9300, Note_on_c, 9, 42, 100
11, 9360, Note_on_c, 9, 42, 0
11, 9360, Note_on_c, 9, 40, 0
11, 9360, Note_on_c, 9, 36, 100
11, 9420, Note_on_c, 9, 36, 0
11, 9420, Note_on_c, 9, 42, 100
11, 9480, Note_on_c, 9, 42, 0
11, 9480, Note_on_c, 9, 40, 100
11, 9480, Note_on_c, 9, 38, 100
11, 9540, Note_on_c, 9, 38, 0
11, 9540, Note_on_c, 9, 42, 100
11, 9600, Note_on_c, 9, 42, 0
11, 9600, Note_on_c, 9, 40, 0
11, 9600, Note_on_c, 9, 36, 100
11, 9660, Note_on_c, 9, 36, 0
11, 9660, Note_on_c, 9, 42, 100
11, 9720, Note_on_c, 9, 42, 0
11, 9720, Note_on_c, 9, 40, 100
11, 9720, Note_on_c, 9, 38, 100
11, 9780, Note_on_c, 9, 38, 0
11, 9780, Note_on_c, 9, 42, 100
11, 9840, Note_on_c, 9, 42, 0
11, 9840, Note_on_c, 9, 40, 0
11, 9840, Note_on_c, 9, 36, 100
11, 9900, Note_on_c, 9, 36, 0
11, 9900, Note_on_c, 9, 42, 100
11, 9960, Note_on_c, 9, 42, 0
11, 9960, Note_on_c, 9, 40, 100
11, 9960, Note_on_c, 9, 38, 100
11, 10020, Note_on_c, 9, 38, 0
11, 10020, Note_on_c, 9, 42, 100
11, 10080, Note_on_c, 9, 42, 0
11, 10080, Note_on_c, 9, 40, 0
11, 10080, Note_on_c, 9, 36, 100
11, 10140, Note_on_c, 9, 36, 0
11, 10140, Note_on_c, 9, 42, 100
11, 10200, Note_on_c, 9, 42, 0
11, 10200, Note_on_c, 9, 40, 100
11, 10200, Note_on_c, 9, 38, 100
11, 10260, Note_on_c, 9, 38, 0
11, 10260, Note_on_c, 9, 42, 100
11, 10320, Note_on_c, 9, 42, 0
11, 10320, Note_on_c, 9, 40, 0
11, 10320, Note_on_c, 9, 36, 100
11, 10380, Note_on_c, 9, 36, 0
11, 10380, Note_on_c, 9, 42, 100
11, 10440, Note_on_c, 9, 42, 0
11, 10440, Note_on_c, 9, 40, 100
11, 10440, Note_on_c, 9, 38, 100
11, 10500, Note_on_c, 9, 38, 0
11, 10500, Note_on_c, 9, 42, 100
11, 10560, Note_on_c, 9, 42, 0
11, 10560, Note_on_c, 9, 40, 0
11, 10560, Note_on_c, 9, 36, 100
11, 10620, Note_on_c, 9, 36, 0
11, 10620, Note_on_c, 9, 42, 100
11, 10680, Note_on_c, 9, 42, 0
11, 10680, Note_on_c, 9, 40, 100
11, 10680, Note_on_c, 9, 38, 100
11, 10740, Note_on_c, 9, 38, 0
11, 10740, Note_on_c, 9, 42, 100
11, 10800, Note_on_c, 9, 42, 0
11, 10800, Note_on_c, 9, 40, 0
11, 10800, Note_on_c, 9, 36, 100
11, 10860, Note_on_c, 9, 36, 0
11, 10860, Note_on_c, 9, 42, 100
11, 10920, Note_on_c, 9, 42, 0
11, 10920, Note_on_c, 9, 40, 100
11, 10920, Note_on_c, 9, 38, 100
11, 10980, Note_on_c, 9, 38, 0
11, 10980, Note_on_c, 9, 42, 100
11, 11040, Note_on_c, 9, 42, 0
11, 11040, Note_on_c, 9, 40, 0
11, 11040, Note_on_c, 9, 36, 100
11, 11100, Note_on_c, 9, 36, 0
11, 11100, Note_on_c, 9, 42, 100
11, 11160, Note_on_c, 9, 42, 0
11, 11160, Note_on_c, 9, 40, 100
11, 11160, Note_on_c, 9, 38, 100
11, 11220, Note_on_c, 9, 38, 0
11, 11220, Note_on_c, 9, 42, 100
11, 11280, Note_on_c, 9, 42, 0
11, 11280, Note_on_c, 9, 40, 0
11, 11280, Note_on_c, 9, 36, 100
11, 11340, Note_on_c, 9, 36, 0
11, 11340, Note_on_c, 9, 42, 100
11, 11400, Note_on_c, 9, 42, 0
11, 11400, Note_on_c, 9, 40, 100
11, 11400, Note_on_c, 9, 38, 100
11, 11460, Note_on_c, 9, 38, 0
11, 11460, Note_on_c, 9, 42, 100
11, 11520, Note_on_c, 9, 42, 0
11, 11520, Note_on_c, 9, 40, 0
11, 11520, Note_on_c, 9, 36, 100
11, 11580, Note_on_c, 9, 36, 0
11, 11580, Note_on_c, 9, 42, 100
11, 11640, Note_on_c, 9, 42, 0
11, 11640, Note_on_c, 9, 40, 100
11, 11640, Note_on_c, 9, 38, 100
11, 11700, Note_on_c, 9, 38, 0
11, 11700, Note_on_c, 9, 42, 100
11, 11760, Note_on_c, 9, 42, 0
11, 11760, Note_on_c, 9, 40, 0
11, 11760, Note_on_c, 9, 36, 100
11, 11820, Note_on_c, 9, 36, 0
11, 11820, Note_on_c, 9, 42, 100
11, 11880, Note_on_c, 9, 42, 0
11, 11880, Note_on_c, 9, 40, 100
11, 11880, Note_on_c, 9, 38, 100
11, 11940, Note_on_c, 9, 38, 0
11, 11940, Note_on_c, 9, 42, 100
11, 12000, Note_on_c, 9, 42, 0
11, 12000, Note_on_c, 9, 40, 0
11, 12000, Note_on_c, 9, 36, 100
11, 12060, Note_on_c, 9, 36, 0
11, 12060, Note_on_c, 9, 42, 100
11, 12120, Note_on_c, 9, 42, 0
11, 12120, Note_on_c, 9, 40, 100
11, 12120, Note_on_c, 9, 38, 100
11, 12180, Note_on_c, 9, 38, 0
11, 12180, Note_on_c, 9, 42, 100
11, 12240, Note_on_c, 9, 42, 0
11, 12240, Note_on_c, 9, 40, 0
11, 12240, Note_on_c, 9, 36, 100
11, 12300, Note_on_c, 9, 36, 0
11, 12300, Note_on_c, 9, 42, 100
11, 12360, Note_on_c, 9, 42, 0
11, 12360, Note_on_c, 9, 40, 100
11, 12360, Note_on_c, 9, 38, 100
11, 12420, Note_on_c, 9, 38, 0
11, 12420, Note_on_c, 9, 42, 100
11, 12480, Note_on_c, 9, 42, 0
11, 12480, Note_on_c, 9, 40, 0
11, 12480, Note_on_c, 9, 36, 100
11, 12540, Note_on_c, 9, 36, 0
11, 12540, Note_on_c, 9, 42, 100
11, 12600, Note_on_c, 9, 42, 0
11, 12600, Note_on_c, 9, 40, 100
11, 12600, Note_on_c, 9, 38, 100
11, 12660, Note_on_c, 9, 38, 0
11, 12660, Note_on_c, 9, 42, 100
11, 12720, Note_on_c, 9, 42, 0
11, 12720, Note_on_c, 9, 40, 0
11, 12720, Note_on_c, 9, 36, 100
11, 12780, Note_on_c, 9, 36, 0
11, 12780, Note_on_c, 9, 42, 100
11, 12821, Note_on_c, 9, 38, 100
11, 12836, Note_on_c, 9, 38, 0
11, 12840, Note_on_c, 9, 42, 0
11, 12840, Note_on_c, 9, 40, 100
11, 12840, Note_on_c, 9, 38, 100
11, 12900, Note_on_c, 9, 38, 0
11, 12900, Note_on_c, 9, 38, 100
11, 12900, Note_on_c, 9, 42, 100
11, 12930, Note_on_c, 9, 38, 0
11, 12960, Note_on_c, 9, 42, 0
11, 12960, Note_on_c, 9, 40, 0
11, 12960, Note_on_c, 9, 57, 127
11, 12960, Note_on_c, 9, 36, 100
11, 13020, Note_on_c, 9, 36, 0
11, 13020, Note_on_c, 9, 42, 100
11, 13080, Note_on_c, 9, 42, 0
11, 13080, Note_on_c, 9, 57, 0
11, 13080, Note_on_c, 9, 40, 100
11, 13080, Note_on_c, 9, 38, 100
11, 13140, Note_on_c, 9, 38, 0
11, 13140, Note_on_c, 9, 42, 100
11, 13200, Note_on_c, 9, 42, 0
11, 13200, Note_on_c, 9, 40, 0
11, 13200, Note_on_c, 9, 36, 100
11, 13260, Note_on_c, 9, 36, 0
11, 13260, Note_on_c, 9, 42, 100
11, 13320, Note_on_c, 9, 42, 0
11, 13320, Note_on_c, 9, 40, 100
11, 13320, Note_on_c, 9, 38, 100
11, 13380, Note_on_c, 9, 38, 0
11, 13380, Note_on_c, 9, 42, 100
11, 13440, Note_on_c, 9, 42, 0
11, 13440, Note_on_c, 9, 40, 0
11, 13440, Note_on_c, 9, 36, 100
11, 13500, Note_on_c, 9, 36, 0
11, 13500, Note_on_c, 9, 42, 100
11, 13560, Note_on_c, 9, 42, 0
11, 13560, Note_on_c, 9, 40, 100
11, 13560, Note_on_c, 9, 38, 100
11, 13620, Note_on_c, 9, 38, 0
11, 13620, Note_on_c, 9, 42, 100
11, 13680, Note_on_c, 9, 42, 0
11, 13680, Note_on_c, 9, 40, 0
11, 13680, Note_on_c, 9, 36, 100
11, 13740, Note_on_c, 9, 36, 0
11, 13740, Note_on_c, 9, 42, 100
11, 13800, Note_on_c, 9, 42, 0
11, 13800, Note_on_c, 9, 40, 100
11, 13800, Note_on_c, 9, 38, 100
11, 13860, Note_on_c, 9, 38, 0
11, 13860, Note_on_c, 9, 42, 100
11, 13920, Note_on_c, 9, 42, 0
11, 13920, Note_on_c, 9, 40, 0
11, 13920, Note_on_c, 9, 36, 100
11, 13980, Note_on_c, 9, 36, 0
11, 13980, Note_on_c, 9, 42, 100
11, 14040, Note_on_c, 9, 42, 0
11, 14040, Note_on_c, 9, 40, 100
11, 14040, Note_on_c, 9, 38, 100
11, 14100, Note_on_c, 9, 38, 0
11, 14100, Note_on_c, 9, 42, 100
11, 14160, Note_on_c, 9, 42, 0
11, 14160, Note_on_c, 9, 40, 0
11, 14160, Note_on_c, 9, 36, 100
11, 14220, Note_on_c, 9, 36, 0
11, 14220, Note_on_c, 9, 42, 100
11, 14261, Note_on_c, 9, 38, 100
11, 14276, Note_on_c, 9, 38, 0
11, 14280, Note_on_c, 9, 42, 0
11, 14280, Note_on_c, 9, 40, 100
11, 14280, Note_on_c, 9, 38, 100
11, 14340, Note_on_c, 9, 38, 0
11, 14340, Note_on_c, 9, 38, 100
11, 14340, Note_on_c, 9, 42, 100
11, 14370, Note_on_c, 9, 38, 0
11, 14400, Note_on_c, 9, 42, 0
11, 14400, Note_on_c, 9, 40, 0
11, 14400, Note_on_c, 9, 57, 127
11, 14400, Note_on_c, 9, 36, 100
11, 14460, Note_on_c, 9, 36, 0
11, 14460, Note_on_c, 9, 42, 100
11, 14520, Note_on_c, 9, 42, 0
11, 14520, Note_on_c, 9, 57, 0
11, 14520, Note_on_c, 9, 40, 100
11, 14520, Note_on_c, 9, 38, 100
11, 14580, Note_on_c, 9, 38, 0
11, 14580, Note_on_c, 9, 42, 100
11, 14640, Note_on_c, 9, 42, 0
11, 14640, Note_on_c, 9, 40, 0
11, 14640, Note_on_c, 9, 36, 100
11, 14700, Note_on_c, 9, 36, 0
11, 14700, Note_on_c, 9, 42, 100
11, 14760, Note_on_c, 9, 42, 0
11, 14760, Note_on_c, 9, 40, 100
11, 14760, Note_on_c, 9, 38, 100
11, 14820, Note_on_c, 9, 38, 0
11, 14820, Note_on_c, 9, 42, 100
11, 14880, Note_on_c, 9, 42, 0
11, 14880, Note_on_c, 9, 40, 0
11, 14880, Note_on_c, 9, 36, 100
11, 14940, Note_on_c, 9, 36, 0
11, 14940, Note_on_c, 9, 42, 100
11, 15000, Note_on_c, 9, 42, 0
11, 15000, Note_on_c, 9, 40, 100
11, 15000, Note_on_c, 9, 38, 100
11, 15060, Note_on_c, 9, 38, 0
11, 15060, Note_on_c, 9, 42, 100
11, 15120, Note_on_c, 9, 42, 0
11, 15120, Note_on_c, 9, 40, 0
11, 15120, Note_on_c, 9, 36, 100
11, 15180, Note_on_c, 9, 36, 0
11, 15180, Note_on_c, 9, 42, 100
11, 15240, Note_on_c, 9, 42, 0
11, 15240, Note_on_c, 9, 40, 100
11, 15240, Note_on_c, 9, 38, 100
11, 15300, Note_on_c, 9, 38, 0
11, 15300, Note_on_c, 9, 42, 100
11, 15360, Note_on_c, 9, 42, 0
11, 15360, Note_on_c, 9, 40, 0
11, 15360, Note_on_c, 9, 57, 110
11, 15360, Note_on_c, 9, 36, 100
11, 15420, Note_on_c, 9, 36, 0
11, 15420, Note_on_c, 9, 42, 100
11, 15480, Note_on_c, 9, 42, 0
11, 15480, Note_on_c, 9, 57, 0
11, 15480, Note_on_c, 9, 40, 100
11, 15480, Note_on_c, 9, 38, 100
11, 15540, Note_on_c, 9, 38, 0
11, 15540, Note_on_c, 9, 42, 100
11, 15600, Note_on_c, 9, 42, 0
11, 15600, Note_on_c, 9, 40, 0
11, 15600, Note_on_c, 9, 36, 100
11, 15660, Note_on_c, 9, 36, 0
11, 15660, Note_on_c, 9, 42, 100
11, 15720, Note_on_c, 9, 42, 0
11, 15720, Note_on_c, 9, 40, 100
11, 15720, Note_on_c, 9, 38, 100
11, 15780, Note_on_c, 9, 38, 0
11, 15780, Note_on_c, 9, 42, 100
11, 15840, Note_on_c, 9, 42, 0
11, 15840, Note_on_c, 9, 40, 0
11, 15840, Note_on_c, 9, 57, 100
11, 15840, Note_on_c, 9, 36, 100
11, 15900, Note_on_c, 9, 36, 0
11, 15960, Note_on_c, 9, 57, 0
11, 16320, Note_on_c, 9, 51, 100
11, 16440, Note_on_c, 9, 51, 0
11, 16440, Note_on_c, 9, 51, 100
11, 16560, Note_on_c, 9, 51, 0
11, 16560, Note_on_c, 9, 51, 100
11, 16680, Note_on_c, 9, 51, 0
11, 16680, Note_on_c, 9, 51, 100
11, 16800, Note_on_c, 9, 51, 0
11, 16800, Note_on_c, 9, 51, 100
11, 16920, Note_on_c, 9, 51, 0
11, 16920, Note_on_c, 9, 51, 100
11, 17040, Note_on_c, 9, 51, 0
11, 17040, Note_on_c, 9, 51, 100
11, 17160, Note_on_c, 9, 51, 0
11, 17160, Note_on_c, 9, 51, 100
11, 17280, Note_on_c, 9, 51, 0
11, 17280, Note_on_c, 9, 51, 100
11, 17400, Note_on_c, 9, 51, 0
11, 17400, Note_on_c, 9, 51, 100
11, 17520, Note_on_c, 9, 51, 0
11, 17520, Note_on_c, 9, 51, 100
11, 17621, Note_on_c, 9, 38, 100
11, 17636, Note_on_c, 9, 38, 0
11, 17640, Note_on_c, 9, 51, 0
11, 17640, Note_on_c, 9, 51, 100
11, 17640, Note_on_c, 9, 40, 100
11, 17640, Note_on_c, 9, 38, 100
11, 17683, Note_on_c, 9, 36, 100
11, 17698, Note_on_c, 9, 36, 0
11, 17700, Note_on_c, 9, 38, 0
11, 17700, Note_on_c, 9, 38, 100
11, 17730, Note_on_c, 9, 38, 0
11, 17760, Note_on_c, 9, 40, 0
11, 17760, Note_on_c, 9, 51, 0
11, 17760, Note_on_c, 9, 57, 127
11, 17760, Note_on_c, 9, 36, 100
11, 17820, Note_on_c, 9, 36, 0
11, 17820, Note_on_c, 9, 42, 100
11, 17880, Note_on_c, 9, 42, 0
11, 17880, Note_on_c, 9, 57, 0
11, 17880, Note_on_c, 9, 40, 100
11, 17880, Note_on_c, 9, 38, 100
11, 17940, Note_on_c, 9, 38, 0
11, 17940, Note_on_c, 9, 42, 100
11, 18000, Note_on_c, 9, 42, 0
11, 18000, Note_on_c, 9, 40, 0
11, 18000, Note_on_c, 9, 36, 100
11, 18060, Note_on_c, 9, 36, 0
11, 18060, Note_on_c, 9, 42, 100
11, 18120, Note_on_c, 9, 42, 0
11, 18120, Note_on_c, 9, 40, 100
11, 18120, Note_on_c, 9, 38, 100
11, 18180, Note_on_c, 9, 38, 0
11, 18180, Note_on_c, 9, 42, 100
11, 18240, Note_on_c, 9, 42, 0
11, 18240, Note_on_c, 9, 40, 0
11, 18240, Note_on_c, 9, 36, 100
11, 18300, Note_on_c, 9, 36, 0
11, 18300, Note_on_c, 9, 42, 100
11, 18360, Note_on_c, 9, 42, 0
11, 18360, Note_on_c, 9, 40, 100
11, 18360, Note_on_c, 9, 38, 100
11, 18420, Note_on_c, 9, 38, 0
11, 18420, Note_on_c, 9, 42, 100
11, 18480, Note_on_c, 9, 42, 0
11, 18480, Note_on_c, 9, 40, 0
11, 18480, Note_on_c, 9, 36, 100
11, 18540, Note_on_c, 9, 36, 0
11, 18540, Note_on_c, 9, 42, 100
11, 18600, Note_on_c, 9, 42, 0
11, 18600, Note_on_c, 9, 40, 100
11, 18600, Note_on_c, 9, 38, 100
11, 18660, Note_on_c, 9, 38, 0
11, 18660, Note_on_c, 9, 42, 100
11, 18720, Note_on_c, 9, 42, 0
11, 18720, Note_on_c, 9, 40, 0
11, 18720, Note_on_c, 9, 57, 110
11, 18720, Note_on_c, 9, 36, 100
11, 18780, Note_on_c, 9, 36, 0
11, 18780, Note_on_c, 9, 42, 100
11, 18840, Note_on_c, 9, 42, 0
11, 18840, Note_on_c, 9, 57, 0
11, 18840, Note_on_c, 9, 40, 100
11, 18840, Note_on_c, 9, 38, 100
11, 18900, Note_on_c, 9, 38, 0
11, 18900, Note_on_c, 9, 42, 100
11, 18960, Note_on_c, 9, 42, 0
11, 18960, Note_on_c, 9, 40, 0
11, 18960, Note_on_c, 9, 36, 100
11, 19020, Note_on_c, 9, 36, 0
11, 19020, Note_on_c, 9, 42, 100
11, 19080, Note_on_c, 9, 42, 0
11, 19080, Note_on_c, 9, 40, 100
11, 19080, Note_on_c, 9, 38, 100
11, 19140, Note_on_c, 9, 38, 0
11, 19140, Note_on_c, 9, 42, 100
11, 19200, Note_on_c, 9, 42, 0
11, 19200, Note_on_c, 9, 40, 0
11, 19200, Note_on_c, 9, 36, 100
11, 19260, Note_on_c, 9, 36, 0
11, 19260, Note_on_c, 9, 42, 100
11, 19320, Note_on_c, 9, 42, 0
11, 19320, Note_on_c, 9, 40, 100
11, 19320, Note_on_c, 9, 38, 100
11, 19380, Note_on_c, 9, 38, 0
11, 19380, Note_on_c, 9, 42, 100
11, 19440, Note_on_c, 9, 42, 0
11, 19440, Note_on_c, 9, 40, 0
11, 19440, Note_on_c, 9, 36, 100
11, 19500, Note_on_c, 9, 36, 0
11, 19500, Note_on_c, 9, 42, 100
11, 19560, Note_on_c, 9, 42, 0
11, 19560, Note_on_c, 9, 40, 100
11, 19560, Note_on_c, 9, 38, 100
11, 19620, Note_on_c, 9, 38, 0
11, 19620, Note_on_c, 9, 42, 100
11, 19680, Note_on_c, 9, 42, 0
11, 19680, Note_on_c, 9, 40, 0
11, 19680, Note_on_c, 9, 57, 127
11, 19680, Note_on_c, 9, 36, 100
11, 19740, Note_on_c, 9, 36, 0
11, 19740, Note_on_c, 9, 42, 100
11, 19800, Note_on_c, 9, 42, 0
11, 19800, Note_on_c, 9, 57, 0
11, 19800, Note_on_c, 9, 40, 100
11, 19800, Note_on_c, 9, 38, 100
11, 19860, Note_on_c, 9, 38, 0
11, 19860, Note_on_c, 9, 42, 100
11, 19920, Note_on_c, 9, 42, 0
11, 19920, Note_on_c, 9, 40, 0
11, 19920, Note_on_c, 9, 36, 100
11, 19980, Note_on_c, 9, 36, 0
11, 19980, Note_on_c, 9, 42, 100
11, 20040, Note_on_c, 9, 42, 0
11, 20040, Note_on_c, 9, 40, 100
11, 20040, Note_on_c, 9, 38, 100
11, 20100, Note_on_c, 9, 38, 0
11, 20100, Note_on_c, 9, 42, 100
11, 20160, Note_on_c, 9, 42, 0
11, 20160, Note_on_c, 9, 40, 0
11, 20160, Note_on_c, 9, 36, 100
11, 20220, Note_on_c, 9, 36, 0
11, 20220, Note_on_c, 9, 42, 100
11, 20280, Note_on_c, 9, 42, 0
11, 20280, Note_on_c, 9, 40, 100
11, 20280, Note_on_c, 9, 38, 100
11, 20340, Note_on_c, 9, 38, 0
11, 20340, Note_on_c, 9, 42, 100
11, 20400, Note_on_c, 9, 42, 0
11, 20400, Note_on_c, 9, 40, 0
11, 20400, Note_on_c, 9, 36, 100
11, 20460, Note_on_c, 9, 36, 0
11, 20460, Note_on_c, 9, 42, 100
11, 20520, Note_on_c, 9, 42, 0
11, 20520, Note_on_c, 9, 40, 100
11, 20520, Note_on_c, 9, 38, 100
11, 20580, Note_on_c, 9, 38, 0
11, 20580, Note_on_c, 9, 42, 100
11, 20640, Note_on_c, 9, 42, 0
11, 20640, Note_on_c, 9, 40, 0
11, 20640, Note_on_c, 9, 36, 100
11, 20700, Note_on_c, 9, 36, 0
11, 20700, Note_on_c, 9, 42, 100
11, 20760, Note_on_c, 9, 42, 0
11, 20760, Note_on_c, 9, 40, 100
11, 20760, Note_on_c, 9, 38, 100
11, 20820, Note_on_c, 9, 38, 0
11, 20820, Note_on_c, 9, 42, 100
11, 20880, Note_on_c, 9, 42, 0
11, 20880, Note_on_c, 9, 40, 0
11, 20880, Note_on_c, 9, 36, 100
11, 20940, Note_on_c, 9, 36, 0
11, 20940, Note_on_c, 9, 42, 100
11, 21000, Note_on_c, 9, 42, 0
11, 21000, Note_on_c, 9, 40, 100
11, 21000, Note_on_c, 9, 38, 100
11, 21060, Note_on_c, 9, 38, 0
11, 21060, Note_on_c, 9, 42, 100
11, 21120, Note_on_c, 9, 42, 0
11, 21120, Note_on_c, 9, 40, 0
11, 21120, Note_on_c, 9, 36, 100
11, 21180, Note_on_c, 9, 36, 0
11, 21180, Note_on_c, 9, 42, 100
11, 21240, Note_on_c, 9, 42, 0
11, 21240, Note_on_c, 9, 40, 100
11, 21240, Note_on_c, 9, 38, 100
11, 21300, Note_on_c, 9, 38, 0
11, 21300, Note_on_c, 9, 42, 100
11, 21360, Note_on_c, 9, 42, 0
11, 21360, Note_on_c, 9, 40, 0
11, 21360, Note_on_c, 9, 36, 100
11, 21420, Note_on_c, 9, 36, 0
11, 21420, Note_on_c, 9, 42, 100
11, 21480, Note_on_c, 9, 42, 0
11, 21480, Note_on_c, 9, 40, 100
11, 21480, Note_on_c, 9, 38, 100
11, 21540, Note_on_c, 9, 38, 0
11, 21540, Note_on_c, 9, 42, 100
11, 21600, Note_on_c, 9, 42, 0
11, 21600, Note_on_c, 9, 40, 0
11, 21600, Note_on_c, 9, 36, 100
11, 21660, Note_on_c, 9, 36, 0
11, 21660, Note_on_c, 9, 42, 100
11, 21720, Note_on_c, 9, 42, 0
11, 21720, Note_on_c, 9, 40, 100
11, 21720, Note_on_c, 9, 38, 100
11, 21780, Note_on_c, 9, 38, 0
11, 21780, Note_on_c, 9, 42, 100
11, 21840, Note_on_c, 9, 42, 0
11, 21840, Note_on_c, 9, 40, 0
11, 21840, Note_on_c, 9, 36, 100
11, 21900, Note_on_c, 9, 36, 0
11, 21900, Note_on_c, 9, 42, 100
11, 21960, Note_on_c, 9, 42, 0
11, 21960, Note_on_c, 9, 40, 100
11, 21960, Note_on_c, 9, 38, 100
11, 22020, Note_on_c, 9, 38, 0
11, 22020, Note_on_c, 9, 42, 100
11, 22080, Note_on_c, 9, 42, 0
11, 22080, Note_on_c, 9, 40, 0
11, 22080, Note_on_c, 9, 36, 100
11, 22140, Note_on_c, 9, 36, 0
11, 22140, Note_on_c, 9, 42, 100
11, 22200, Note_on_c, 9, 42, 0
11, 22200, Note_on_c, 9, 40, 100
11, 22200, Note_on_c, 9, 38, 100
11, 22260, Note_on_c, 9, 38, 0
11, 22260, Note_on_c, 9, 42, 100
11, 22320, Note_on_c, 9, 42, 0
11, 22320, Note_on_c, 9, 40, 0
11, 22320, Note_on_c, 9, 36, 100
11, 22380, Note_on_c, 9, 36, 0
11, 22380, Note_on_c, 9, 42, 100
11, 22440, Note_on_c, 9, 42, 0
11, 22440, Note_on_c, 9, 40, 100
11, 22440, Note_on_c, 9, 38, 100
11, 22500, Note_on_c, 9, 38, 0
11, 22500, Note_on_c, 9, 42, 100
11, 22560, Note_on_c, 9, 42, 0
11, 22560, Note_on_c, 9, 40, 0
11, 22560, Note_on_c, 9, 36, 100
11, 22620, Note_on_c, 9, 36, 0
11, 22620, Note_on_c, 9, 42, 100
11, 22680, Note_on_c, 9, 42, 0
11, 22680, Note_on_c, 9, 40, 100
11, 22680, Note_on_c, 9, 38, 100
11, 22740, Note_on_c, 9, 38, 0
11, 22740, Note_on_c, 9, 42, 100
11, 22800, Note_on_c, 9, 42, 0
11, 22800, Note_on_c, 9, 40, 0
11, 22800, Note_on_c, 9, 36, 100
11, 22860, Note_on_c, 9, 36, 0
11, 22860, Note_on_c, 9, 42, 100
11, 22920, Note_on_c, 9, 42, 0
11, 22920, Note_on_c, 9, 40, 100
11, 22920, Note_on_c, 9, 38, 100
11, 22980, Note_on_c, 9, 38, 0
11, 22980, Note_on_c, 9, 42, 100
11, 23040, Note_on_c, 9, 42, 0
11, 23040, Note_on_c, 9, 40, 0
11, 23040, Note_on_c, 9, 36, 100
11, 23100, Note_on_c, 9, 36, 0
11, 23100, Note_on_c, 9, 42, 100
11, 23160, Note_on_c, 9, 42, 0
11, 23160, Note_on_c, 9, 40, 100
11, 23160, Note_on_c, 9, 38, 100
11, 23220, Note_on_c, 9, 38, 0
11, 23220, Note_on_c, 9, 42, 100
11, 23280, Note_on_c, 9, 42, 0
11, 23280, Note_on_c, 9, 40, 0
11, 23280, Note_on_c, 9, 36, 100
11, 23340, Note_on_c, 9, 36, 0
11, 23340, Note_on_c, 9, 42, 100
11, 23381, Note_on_c, 9, 38, 100
11, 23396, Note_on_c, 9, 38, 0
11, 23400, Note_on_c, 9, 42, 0
11, 23400, Note_on_c, 9, 40, 100
11, 23400, Note_on_c, 9, 38, 100
11, 23460, Note_on_c, 9, 38, 0
11, 23460, Note_on_c, 9, 38, 100
11, 23460, Note_on_c, 9, 42, 100
11, 23490, Note_on_c, 9, 38, 0
11, 23520, Note_on_c, 9, 42, 0
11, 23520, Note_on_c, 9, 40, 0
11, 23520, Note_on_c, 9, 57, 127
11, 23520, Note_on_c, 9, 36, 100
11, 23580, Note_on_c, 9, 36, 0
11, 23580, Note_on_c, 9, 42, 100
11, 23640, Note_on_c, 9, 42, 0
11, 23640, Note_on_c, 9, 57, 0
11, 23640, Note_on_c, 9, 40, 100
11, 23640, Note_on_c, 9, 38, 100
11, 23700, Note_on_c, 9, 38, 0
11, 23700, Note_on_c, 9, 42, 100
11, 23760, Note_on_c, 9, 42, 0
11, 23760, Note_on_c, 9, 40, 0
11, 23760, Note_on_c, 9, 36, 100
11, 23820, Note_on_c, 9, 36, 0
11, 23820, Note_on_c, 9, 42, 100
11, 23880, Note_on_c, 9, 42, 0
11, 23880, Note_on_c, 9, 40, 100
11, 23880, Note_on_c, 9, 38, 100
11, 23940, Note_on_c, 9, 38, 0
11, 23940, Note_on_c, 9, 42, 100
11, 24000, Note_on_c, 9, 42, 0
11, 24000, Note_on_c, 9, 40, 0
11, 24000, Note_on_c, 9, 36, 100
11, 24060, Note_on_c, 9, 36, 0
11, 24060, Note_on_c, 9, 42, 100
11, 24120, Note_on_c, 9, 42, 0
11, 24120, Note_on_c, 9, 40, 100
11, 24120, Note_on_c, 9, 38, 100
11, 24180, Note_on_c, 9, 38, 0
11, 24180, Note_on_c, 9, 42, 100
11, 24240, Note_on_c, 9, 42, 0
11, 24240, Note_on_c, 9, 40, 0
11, 24240, Note_on_c, 9, 36, 100
11, 24300, Note_on_c, 9, 36, 0
11, 24300, Note_on_c, 9, 42, 100
11, 24360, Note_on_c, 9, 42, 0
11, 24360, Note_on_c, 9, 40, 100
11, 24360, Note_on_c, 9, 38, 100
11, 24420, Note_on_c, 9, 38, 0
11, 24420, Note_on_c, 9, 42, 100
11, 24480, Note_on_c, 9, 42, 0
11, 24480, Note_on_c, 9, 40, 0
11, 24480, Note_on_c, 9, 36, 100
11, 24540, Note_on_c, 9, 36, 0
11, 24540, Note_on_c, 9, 42, 100
11, 24600, Note_on_c, 9, 42, 0
11, 24600, Note_on_c, 9, 40, 100
11, 24600, Note_on_c, 9, 38, 100
11, 24660, Note_on_c, 9, 38, 0
11, 24660, Note_on_c, 9, 42, 100
11, 24720, Note_on_c, 9, 42, 0
11, 24720, Note_on_c, 9, 40, 0
11, 24720, Note_on_c, 9, 36, 100
11, 24780, Note_on_c, 9, 36, 0
11, 24780, Note_on_c, 9, 42, 100
11, 24821, Note_on_c, 9, 38, 100
11, 24836, Note_on_c, 9, 38, 0
11, 24840, Note_on_c, 9, 42, 0
11, 24840, Note_on_c, 9, 40, 100
11, 24840, Note_on_c, 9, 38, 100
11, 24900, Note_on_c, 9, 38, 0
11, 24900, Note_on_c, 9, 38, 100
11, 24900, Note_on_c, 9, 42, 100
11, 24930, Note_on_c, 9, 38, 0
11, 24960, Note_on_c, 9, 42, 0
11, 24960, Note_on_c, 9, 40, 0
11, 24960, Note_on_c, 9, 57, 127
11, 24960, Note_on_c, 9, 36, 100
11, 25020, Note_on_c, 9, 36, 0
11, 25020, Note_on_c, 9, 42, 100
11, 25080, Note_on_c, 9, 42, 0
11, 25080, Note_on_c, 9, 57, 0
11, 25080, Note_on_c, 9, 40, 100
11, 25080, Note_on_c, 9, 38, 100
11, 25140, Note_on_c, 9, 38, 0
11, 25140, Note_on_c, 9, 42, 100
11, 25200, Note_on_c, 9, 42, 0
11, 25200, Note_on_c, 9, 40, 0
11, 25200, Note_on_c, 9, 36, 100
11, 25260, Note_on_c, 9, 36, 0
11, 25260, Note_on_c, 9, 42, 100
11, 25320, Note_on_c, 9, 42, 0
11, 25320, Note_on_c, 9, 40, 100
11, 25320, Note_on_c, 9, 38, 100
11, 25380, Note_on_c, 9, 38, 0
11, 25380, Note_on_c, 9, 42, 100
11, 25440, Note_on_c, 9, 42, 0
11, 25440, Note_on_c, 9, 40, 0
11, 25440, Note_on_c, 9, 36, 100
11, 25500, Note_on_c, 9, 36, 0
11, 25500, Note_on_c, 9, 42, 100
11, 25560, Note_on_c, 9, 42, 0
11, 25560, Note_on_c, 9, 40, 100
11, 25560, Note_on_c, 9, 38, 100
11, 25620, Note_on_c, 9, 38, 0
11, 25620, Note_on_c, 9, 42, 100
11, 25680, Note_on_c, 9, 42, 0
11, 25680, Note_on_c, 9, 40, 0
11, 25680, Note_on_c, 9, 36, 100
11, 25740, Note_on_c, 9, 36, 0
11, 25740, Note_on_c, 9, 42, 100
11, 25800, Note_on_c, 9, 42, 0
11, 25800, Note_on_c, 9, 40, 100
11, 25800, Note_on_c, 9, 38, 100
11, 25860, Note_on_c, 9, 38, 0
11, 25860, Note_on_c, 9, 42, 100
11, 25920, Note_on_c, 9, 42, 0
11, 25920, Note_on_c, 9, 40, 0
11, 25920, Note_on_c, 9, 57, 110
11, 25920, Note_on_c, 9, 36, 100
11, 25980, Note_on_c, 9, 36, 0
11, 25980, Note_on_c, 9, 42, 100
11, 26040, Note_on_c, 9, 42, 0
11, 26040, Note_on_c, 9, 57, 0
11, 26040, Note_on_c, 9, 40, 100
11, 26040, Note_on_c, 9, 38, 100
11, 26100, Note_on_c, 9, 38, 0
11, 26100, Note_on_c, 9, 42, 100
11, 26160, Note_on_c, 9, 42, 0
11, 26160, Note_on_c, 9, 40, 0
11, 26160, Note_on_c, 9, 36, 100
11, 26220, Note_on_c, 9, 36, 0
11, 26220, Note_on_c, 9, 42, 100
11, 26280, Note_on_c, 9, 42, 0
11, 26280, Note_on_c, 9, 40, 100
11, 26280, Note_on_c, 9, 38, 100
11, 26340, Note_on_c, 9, 38, 0
11, 26340, Note_on_c, 9, 42, 100
11, 26400, Note_on_c, 9, 42, 0
11, 26400, Note_on_c, 9, 40, 0
11, 26400, Note_on_c, 9, 36, 100
11, 26460, Note_on_c, 9, 36, 0
11, 26460, Note_on_c, 9, 42, 100
11, 26520, Note_on_c, 9, 42, 0
11, 26520, Note_on_c, 9, 40, 100
11, 26520, Note_on_c, 9, 38, 100
11, 26580, Note_on_c, 9, 38, 0
11, 26580, Note_on_c, 9, 42, 100
11, 26640, Note_on_c, 9, 42, 0
11, 26640, Note_on_c, 9, 40, 0
11, 26640, Note_on_c, 9, 36, 100
11, 26700, Note_on_c, 9, 36, 0
11, 26700, Note_on_c, 9, 42, 100
11, 26760, Note_on_c, 9, 42, 0
11, 26760, Note_on_c, 9, 40, 100
11, 26760, Note_on_c, 9, 38, 100
11, 26820, Note_on_c, 9, 38, 0
11, 26820, Note_on_c, 9, 42, 100
11, 26880, Note_on_c, 9, 42, 0
11, 26880, Note_on_c, 9, 40, 0
11, 26880, End_track
0, 0, End_of_file
