0, 0, Header, 0, 1, 192
1, 0, Start_track
1, 0, Text_t, "Do you t"
1, 0, System_exclusive, 10, 65, 16, 66, 18, 64, 0, 127, 0, 65, 247
1, 144, Control_c, 14, 121, 0
1, 144, Control_c, 12, 121, 0
1, 144, Control_c, 11, 121, 0
1, 144, Control_c, 10, 121, 0
1, 144, Control_c, 9, 121, 0
1, 144, Control_c, 6, 121, 0
1, 144, Control_c, 5, 121, 0
1, 144, Control_c, 4, 121, 0
1, 144, Control_c, 3, 121, 0
1, 144, Control_c, 2, 121, 0
1, 144, Control_c, 1, 121, 0
1, 144, Control_c, 0, 121, 0
1, 192, Control_c, 0, 0, 0
1, 193, Control_c, 0, 32, 0
1, 194, Program_c, 0, 4
1, 195, Control_c, 0, 7, 70
1, 196, Control_c, 0, 10, 74
1, 197, Control_c, 0, 11, 127
1, 198, Control_c, 0, 91, 61
1, 199, Control_c, 0, 93, 25
1, 216, Control_c, 1, 0, 0
1, 217, Control_c, 1, 32, 0
1, 218, Program_c, 1, 33
1, 219, Control_c, 1, 7, 110
1, 220, Control_c, 1, 10, 64
1, 221, Control_c, 1, 11, 110
1, 222, Control_c, 1, 91, 0
1, 223, Control_c, 1, 93, 120
1, 240, Control_c, 2, 0, 0
1, 241, Control_c, 2, 32, 0
1, 242, Program_c, 2, 27
1, 243, Control_c, 2, 7, 95
1, 244, Control_c, 2, 10, 64
1, 245, Control_c, 2, 11, 127
1, 246, Control_c, 2, 91, 0
1, 247, Control_c, 2, 93, 0
1, 264, Control_c, 3, 0, 0
1, 265, Control_c, 3, 32, 0
1, 266, Program_c, 3, 82
1, 267, Control_c, 3, 7, 100
1, 268, Control_c, 3, 10, 64
1, 269, Control_c, 3, 11, 110
1, 270, Control_c, 3, 91, 90
1, 271, Control_c, 3, 93, 0
1, 288, Control_c, 4, 0, 0
1, 289, Control_c, 4, 32, 0
1, 290, Program_c, 4, 66
1, 291, Control_c, 4, 7, 110
1, 292, Control_c, 4, 10, 64
1, 293, Control_c, 4, 11, 110
1, 294, Control_c, 4, 91, 120
1, 295, Control_c, 4, 93, 60
1, 312, Control_c, 5, 0, 0
1, 313, Control_c, 5, 32, 0
1, 314, Program_c, 5, 62
1, 315, Control_c, 5, 7, 90
1, 316, Control_c, 5, 10, 64
1, 317, Control_c, 5, 11, 127
1, 318, Control_c, 5, 91, 100
1, 319, Control_c, 5, 93, 0
1, 336, Control_c, 6, 0, 0
1, 337, Control_c, 6, 32, 0
1, 338, Program_c, 6, 48
1, 339, Control_c, 6, 7, 90
1, 340, Control_c, 6, 10, 64
1, 341, Control_c, 6, 11, 127
1, 342, Control_c, 6, 91, 110
1, 343, Control_c, 6, 93, 0
1, 408, Control_c, 9, 0, 0
1, 409, Control_c, 9, 32, 0
1, 410, Program_c, 9, 0
1, 411, Control_c, 9, 7, 110
1, 412, Control_c, 9, 10, 64
1, 413, Control_c, 9, 11, 110
1, 414, Control_c, 9, 91, 100
1, 415, Control_c, 9, 93, 60
1, 432, Control_c, 10, 0, 0
1, 433, Control_c, 10, 32, 0
1, 434, Program_c, 10, 27
1, 435, Control_c, 10, 7, 100
1, 436, Control_c, 10, 10, 127
1, 437, Control_c, 10, 11, 110
1, 438, Control_c, 10, 91, 0
1, 439, Control_c, 10, 93, 0
1, 456, Control_c, 11, 0, 0
1, 457, Control_c, 11, 32, 0
1, 458, Program_c, 11, 81
1, 459, Control_c, 11, 7, 90
1, 460, Control_c, 11, 10, 64
1, 461, Control_c, 11, 11, 127
1, 462, Control_c, 11, 91, 0
1, 463, Control_c, 11, 93, 70
1, 480, Control_c, 12, 0, 0
1, 481, Control_c, 12, 32, 0
1, 482, Program_c, 12, 26
1, 483, Control_c, 12, 7, 70
1, 484, Control_c, 12, 10, 0
1, 485, Control_c, 12, 11, 127
1, 486, Control_c, 12, 91, 85
1, 487, Control_c, 12, 93, 0
1, 528, Control_c, 14, 0, 0
1, 529, Control_c, 14, 32, 0
1, 530, Program_c, 14, 27
1, 531, Control_c, 14, 7, 80
1, 532, Control_c, 14, 10, 0
1, 533, Control_c, 14, 11, 110
1, 534, Control_c, 14, 91, 127
1, 535, Control_c, 14, 93, 127
1, 768, Tempo, 526315
1, 768, Note_on_c, 9, 31, 100
1, 769, Note_on_c, 9, 31, 0
1, 960, Note_on_c, 9, 31, 100
1, 961, Note_on_c, 9, 31, 0
1, 1152, Note_on_c, 9, 31, 100
1, 1153, Note_on_c, 9, 31, 0
1, 1344, Note_on_c, 9, 31, 100
1, 1345, Note_on_c, 9, 31, 0
1, 1433, Pitch_bend_c, 12, 8064
1, 1440, Note_on_c, 2, 57, 79
1, 1440, Note_on_c, 0, 61, 120
1, 1440, Note_off_c, 0, 61, 117
1, 1440, Note_on_c, 2, 62, 87
1, 1440, Pitch_bend_c, 12, 7680
1, 1440, Note_on_c, 9, 40, 96
1, 1440, Note_on_c, 12, 62, 120
1, 1440, Note_on_c, 12, 67, 119
1, 1441, Note_off_c, 2, 57, 104
1, 1441, Note_off_c, 2, 62, 104
1, 1441, Note_off_c, 9, 40, 96
1, 1445, Note_on_c, 0, 67, 114
1, 1447, Pitch_bend_c, 12, 4096
1, 1450, Note_on_c, 0, 62, 120
1, 1454, Pitch_bend_c, 12, 2176
1, 1461, Note_on_c, 0, 61, 99
1, 1461, Pitch_bend_c, 12, 1024
1, 1471, Pitch_bend_c, 12, 4864
1, 1472, Note_on_c, 2, 57, 115
1, 1472, Note_on_c, 2, 57, 108
1, 1472, Note_off_c, 2, 57, 114
1, 1473, Note_off_c, 0, 61, 91
1, 1475, Note_off_c, 2, 57, 106
1, 1478, Pitch_bend_c, 12, 6784
1, 1485, Pitch_bend_c, 12, 7552
1, 1488, Note_on_c, 9, 40, 116
1, 1489, Note_off_c, 9, 40, 96
1, 1492, Pitch_bend_c, 12, 7936
1, 1499, Pitch_bend_c, 12, 8192
1, 1504, Note_on_c, 2, 62, 113
1, 1504, Note_on_c, 2, 62, 107
1, 1504, Note_off_c, 2, 62, 114
1, 1508, Note_off_c, 2, 62, 106
1, 1535, Note_on_c, 9, 69, 96
1, 1536, Note_on_c, 9, 36, 124
1, 1536, Note_on_c, 1, 38, 116
1, 1536, Note_on_c, 9, 49, 124
1, 1536, Note_on_c, 2, 57, 122
1, 1536, Note_on_c, 2, 62, 124
1, 1536, Note_on_c, 9, 63, 120
1, 1536, Note_on_c, 2, 65, 123
1, 1536, Note_off_c, 9, 69, 80
1, 1537, Note_off_c, 9, 36, 76
1, 1537, Note_off_c, 9, 49, 100
1, 1537, Note_off_c, 9, 63, 92
1, 1571, Note_off_c, 2, 57, 84
1, 1571, Note_off_c, 2, 62, 111
1, 1583, Note_off_c, 0, 67, 104
1, 1587, Note_off_c, 0, 62, 108
1, 1587, Note_off_c, 2, 65, 108
1, 1587, Note_on_c, 9, 69, 50
1, 1588, Note_off_c, 9, 69, 80
1, 1601, Note_off_c, 1, 38, 94
1, 1607, Note_off_c, 12, 62, 108
1, 1607, Note_off_c, 12, 67, 108
1, 1631, Note_on_c, 9, 69, 88
1, 1632, Note_on_c, 1, 50, 114
1, 1632, Note_on_c, 0, 57, 108
1, 1632, Note_on_c, 2, 57, 113
1, 1632, Note_on_c, 0, 60, 110
1, 1632, Note_on_c, 12, 60, 110
1, 1632, Note_on_c, 2, 62, 117
1, 1632, Note_on_c, 9, 63, 116
1, 1632, Note_on_c, 0, 65, 110
1, 1632, Note_on_c, 12, 65, 110
1, 1632, Note_off_c, 9, 69, 76
1, 1633, Note_off_c, 9, 63, 84
1, 1647, Note_off_c, 2, 62, 119
1, 1648, Note_off_c, 1, 50, 116
1, 1651, Note_off_c, 0, 60, 111
1, 1652, Note_off_c, 0, 65, 111
1, 1655, Note_off_c, 12, 60, 102
1, 1657, Note_off_c, 0, 57, 94
1, 1658, Note_off_c, 12, 65, 94
1, 1659, Note_off_c, 2, 57, 104
1, 1680, Note_on_c, 1, 50, 117
1, 1683, Note_on_c, 9, 69, 50
1, 1684, Note_off_c, 9, 69, 76
1, 1700, Note_off_c, 1, 50, 102
1, 1727, Note_on_c, 9, 42, 7
1, 1727, Note_on_c, 9, 69, 104
1, 1728, Note_on_c, 9, 36, 124
1, 1728, Note_on_c, 1, 38, 117
1, 1728, Note_on_c, 9, 40, 124
1, 1728, Note_off_c, 9, 42, 88
1, 1728, Note_on_c, 0, 57, 111
1, 1728, Note_on_c, 2, 57, 122
1, 1728, Note_on_c, 0, 60, 119
1, 1728, Note_on_c, 12, 60, 113
1, 1728, Note_on_c, 2, 62, 124
1, 1728, Note_on_c, 9, 62, 124
1, 1728, Note_on_c, 0, 65, 117
1, 1728, Note_on_c, 2, 65, 124
1, 1728, Note_on_c, 12, 65, 113
1, 1728, Note_off_c, 9, 69, 68
1, 1729, Note_off_c, 9, 36, 96
1, 1729, Note_off_c, 9, 40, 96
1, 1729, Note_off_c, 9, 62, 108
1, 1758, Note_off_c, 2, 57, 108
1, 1760, Note_off_c, 2, 62, 111
1, 1773, Note_off_c, 2, 65, 108
1, 1779, Note_on_c, 9, 69, 50
1, 1780, Note_off_c, 9, 69, 68
1, 1797, Note_off_c, 1, 38, 97
1, 1823, Note_on_c, 9, 42, 112
1, 1823, Note_off_c, 12, 60, 104
1, 1823, Note_on_c, 9, 69, 96
1, 1824, Note_off_c, 9, 42, 88
1, 1824, Note_on_c, 1, 50, 114
1, 1824, Note_on_c, 12, 57, 104
1, 1824, Note_on_c, 0, 62, 117
1, 1824, Note_on_c, 12, 62, 111
1, 1824, Note_on_c, 9, 64, 116
1, 1824, Note_off_c, 9, 69, 68
1, 1825, Note_off_c, 9, 64, 96
1, 1830, Note_off_c, 0, 57, 104
1, 1834, Note_off_c, 0, 60, 102
1, 1838, Note_off_c, 0, 65, 104
1, 1841, Note_off_c, 1, 50, 114
1, 1850, Note_off_c, 12, 65, 97
1, 1851, Note_off_c, 0, 62, 106
1, 1872, Note_on_c, 1, 50, 114
1, 1872, Note_on_c, 9, 64, 108
1, 1873, Note_off_c, 9, 64, 104
1, 1875, Note_on_c, 9, 69, 50
1, 1876, Note_off_c, 9, 69, 68
1, 1893, Note_off_c, 1, 50, 94
1, 1919, Note_on_c, 9, 42, 52
1, 1919, Note_on_c, 9, 69, 104
1, 1920, Note_on_c, 9, 36, 124
1, 1920, Note_on_c, 1, 38, 122
1, 1920, Note_off_c, 9, 42, 92
1, 1920, Note_on_c, 0, 57, 113
1, 1920, Note_on_c, 2, 57, 122
1, 1920, Note_on_c, 0, 60, 119
1, 1920, Note_on_c, 12, 60, 106
1, 1920, Note_on_c, 2, 62, 124
1, 1920, Note_on_c, 9, 63, 124
1, 1920, Note_on_c, 0, 65, 119
1, 1920, Note_on_c, 2, 65, 124
1, 1920, Note_on_c, 12, 65, 111
1, 1920, Note_off_c, 9, 69, 84
1, 1921, Note_off_c, 9, 36, 108
1, 1921, Note_off_c, 9, 63, 96
1, 1925, Note_off_c, 12, 57, 108
1, 1937, Note_off_c, 12, 62, 97
1, 1951, Note_off_c, 2, 57, 108
1, 1953, Note_off_c, 2, 62, 111
1, 1971, Note_on_c, 9, 69, 50
1, 1972, Note_off_c, 9, 69, 84
1, 1985, Note_off_c, 1, 38, 97
1, 1997, Note_off_c, 2, 65, 13
1, 2015, Note_on_c, 9, 42, 124
1, 2015, Note_on_c, 9, 69, 100
1, 2016, Note_off_c, 9, 42, 92
1, 2016, Note_on_c, 1, 50, 113
1, 2016, Note_on_c, 9, 63, 124
1, 2016, Note_off_c, 9, 69, 92
1, 2017, Note_off_c, 9, 63, 100
1, 2033, Note_off_c, 1, 50, 113
1, 2064, Note_on_c, 1, 50, 108
1, 2067, Note_on_c, 9, 69, 50
1, 2068, Note_on_c, 2, 57, 99
1, 2068, Note_off_c, 9, 69, 92
1, 2088, Note_off_c, 1, 50, 97
1, 2094, Note_off_c, 2, 57, 102
1, 2104, Note_off_c, 12, 60, 104
1, 2107, Note_off_c, 12, 65, 106
1, 2110, Note_off_c, 0, 57, 108
1, 2111, Note_on_c, 9, 42, 84
1, 2111, Note_off_c, 0, 60, 110
1, 2111, Note_on_c, 9, 69, 100
1, 2112, Note_on_c, 9, 36, 124
1, 2112, Note_on_c, 1, 38, 117
1, 2112, Note_on_c, 9, 40, 124
1, 2112, Note_off_c, 9, 42, 96
1, 2112, Note_on_c, 2, 57, 117
1, 2112, Note_on_c, 12, 57, 114
1, 2112, Note_on_c, 0, 62, 116
1, 2112, Note_on_c, 2, 62, 124
1, 2112, Note_on_c, 12, 62, 104
1, 2112, Note_on_c, 9, 62, 124
1, 2112, Note_on_c, 2, 65, 122
1, 2112, Note_off_c, 9, 69, 92
1, 2113, Note_off_c, 9, 36, 112
1, 2113, Note_off_c, 9, 40, 108
1, 2113, Note_off_c, 9, 62, 104
1, 2116, Note_off_c, 0, 65, 110
1, 2134, Note_off_c, 0, 62, 104
1, 2138, Note_off_c, 12, 62, 94
1, 2140, Note_off_c, 2, 57, 110
1, 2140, Note_off_c, 2, 62, 111
1, 2163, Note_on_c, 9, 69, 50
1, 2164, Note_off_c, 9, 69, 92
1, 2168, Note_off_c, 2, 65, 91
1, 2172, Note_off_c, 12, 57, 99
1, 2177, Pitch_bend_c, 12, 7808
1, 2182, Note_off_c, 1, 38, 102
1, 2187, Pitch_bend_c, 12, 6400
1, 2194, Pitch_bend_c, 12, 3584
1, 2201, Pitch_bend_c, 12, 1792
1, 2203, Note_on_c, 0, 61, 117
1, 2206, Note_on_c, 0, 67, 114
1, 2207, Note_on_c, 9, 42, 124
1, 2207, Note_on_c, 9, 69, 100
1, 2208, Note_off_c, 9, 42, 96
1, 2208, Note_on_c, 1, 50, 116
1, 2208, Note_on_c, 12, 62, 119
1, 2208, Note_on_c, 9, 64, 112
1, 2208, Note_on_c, 12, 67, 116
1, 2208, Note_off_c, 9, 69, 92
1, 2209, Note_off_c, 9, 64, 104
1, 2210, Pitch_bend_c, 12, 1280
1, 2217, Note_on_c, 0, 62, 119
1, 2221, Pitch_bend_c, 12, 5888
1, 2222, Note_off_c, 0, 61, 111
1, 2226, Note_off_c, 1, 50, 113
1, 2228, Pitch_bend_c, 12, 7424
1, 2235, Pitch_bend_c, 12, 7808
1, 2244, Pitch_bend_c, 12, 8192
1, 2256, Note_on_c, 1, 50, 119
1, 2256, Note_on_c, 9, 64, 108
1, 2257, Note_off_c, 9, 64, 112
1, 2259, Note_on_c, 9, 69, 50
1, 2260, Note_off_c, 9, 69, 92
1, 2274, Note_off_c, 1, 50, 97
1, 2303, Note_on_c, 9, 42, 76
1, 2303, Note_on_c, 9, 69, 96
1, 2304, Note_on_c, 9, 36, 124
1, 2304, Note_on_c, 1, 38, 120
1, 2304, Note_off_c, 9, 42, 100
1, 2304, Note_on_c, 2, 57, 122
1, 2304, Note_on_c, 2, 62, 124
1, 2304, Note_on_c, 9, 63, 120
1, 2304, Note_on_c, 2, 65, 124
1, 2304, Note_off_c, 9, 69, 80
1, 2305, Note_off_c, 9, 36, 76
1, 2305, Note_off_c, 9, 63, 92
1, 2334, Note_off_c, 2, 62, 111
1, 2336, Note_off_c, 2, 57, 110
1, 2338, Note_off_c, 2, 65, 110
1, 2355, Note_on_c, 9, 69, 50
1, 2356, Note_off_c, 9, 69, 80
1, 2357, Note_off_c, 0, 67, 106
1, 2362, Note_off_c, 0, 62, 110
1, 2369, Note_off_c, 1, 38, 102
1, 2399, Note_on_c, 9, 42, 124
1, 2399, Note_on_c, 9, 69, 88
1, 2400, Note_off_c, 9, 42, 100
1, 2400, Note_on_c, 1, 50, 116
1, 2400, Note_on_c, 0, 57, 108
1, 2400, Note_on_c, 2, 57, 111
1, 2400, Note_on_c, 0, 60, 113
1, 2400, Note_on_c, 12, 60, 113
1, 2400, Note_on_c, 2, 62, 119
1, 2400, Note_on_c, 9, 63, 116
1, 2400, Note_on_c, 0, 65, 114
1, 2400, Note_on_c, 2, 65, 117
1, 2400, Note_on_c, 12, 65, 111
1, 2400, Note_off_c, 9, 69, 76
1, 2401, Note_off_c, 9, 63, 84
1, 2407, Note_off_c, 12, 62, 108
1, 2413, Note_off_c, 12, 67, 108
1, 2418, Note_off_c, 0, 60, 113
1, 2418, Note_off_c, 1, 50, 111
1, 2420, Note_off_c, 12, 60, 99
1, 2424, Note_off_c, 0, 57, 97
1, 2424, Note_off_c, 12, 65, 97
1, 2425, Note_off_c, 2, 57, 102
1, 2427, Note_off_c, 2, 62, 113
1, 2429, Note_off_c, 0, 65, 106
1, 2431, Note_off_c, 2, 65, 108
1, 2448, Note_on_c, 1, 50, 120
1, 2451, Note_on_c, 9, 69, 50
1, 2452, Note_off_c, 9, 69, 76
1, 2463, Note_off_c, 1, 50, 111
1, 2495, Note_on_c, 9, 42, 80
1, 2495, Note_on_c, 9, 69, 104
1, 2496, Note_on_c, 9, 36, 124
1, 2496, Note_on_c, 1, 38, 122
1, 2496, Note_on_c, 9, 40, 124
1, 2496, Note_off_c, 9, 42, 96
1, 2496, Note_on_c, 0, 57, 110
1, 2496, Note_on_c, 2, 57, 119
1, 2496, Note_on_c, 0, 60, 120
1, 2496, Note_on_c, 12, 60, 113
1, 2496, Note_on_c, 2, 62, 124
1, 2496, Note_on_c, 9, 62, 124
1, 2496, Note_on_c, 0, 65, 117
1, 2496, Note_on_c, 2, 65, 124
1, 2496, Note_on_c, 12, 65, 114
1, 2496, Note_off_c, 9, 69, 68
1, 2497, Note_off_c, 9, 36, 96
1, 2497, Note_off_c, 9, 40, 96
1, 2497, Note_off_c, 9, 62, 108
1, 2526, Note_off_c, 2, 57, 108
1, 2526, Note_off_c, 2, 62, 113
1, 2534, Note_off_c, 2, 65, 111
1, 2547, Note_on_c, 9, 69, 50
1, 2548, Note_off_c, 9, 69, 68
1, 2569, Note_off_c, 1, 38, 102
1, 2583, Note_off_c, 0, 57, 102
1, 2584, Note_off_c, 12, 60, 108
1, 2591, Note_on_c, 9, 42, 124
1, 2591, Note_on_c, 9, 69, 96
1, 2592, Note_off_c, 9, 42, 96
1, 2592, Note_on_c, 1, 50, 116
1, 2592, Note_on_c, 12, 57, 106
1, 2592, Note_on_c, 0, 62, 113
1, 2592, Note_on_c, 12, 62, 108
1, 2592, Note_on_c, 9, 64, 116
1, 2592, Note_off_c, 9, 69, 68
1, 2593, Note_off_c, 9, 64, 96
1, 2601, Note_off_c, 0, 60, 108
1, 2602, Note_off_c, 0, 65, 106
1, 2609, Note_off_c, 1, 50, 113
1, 2615, Note_off_c, 12, 65, 102
1, 2617, Note_off_c, 0, 62, 104
1, 2640, Note_on_c, 1, 50, 116
1, 2640, Note_on_c, 9, 64, 108
1, 2641, Note_off_c, 9, 64, 104
1, 2643, Note_on_c, 9, 69, 50
1, 2644, Note_off_c, 9, 69, 68
1, 2661, Note_off_c, 1, 50, 99
1, 2687, Note_on_c, 9, 42, 92
1, 2687, Note_on_c, 9, 69, 104
1, 2688, Note_on_c, 9, 36, 124
1, 2688, Note_on_c, 1, 38, 122
1, 2688, Note_off_c, 9, 42, 100
1, 2688, Note_on_c, 0, 57, 111
1, 2688, Note_on_c, 2, 57, 120
1, 2688, Note_on_c, 0, 60, 117
1, 2688, Note_on_c, 12, 60, 110
1, 2688, Note_on_c, 2, 62, 123
1, 2688, Note_on_c, 9, 63, 124
1, 2688, Note_on_c, 0, 65, 119
1, 2688, Note_on_c, 2, 65, 122
1, 2688, Note_on_c, 12, 65, 114
1, 2688, Note_off_c, 9, 69, 84
1, 2689, Note_off_c, 9, 36, 108
1, 2689, Note_off_c, 9, 63, 96
1, 2692, Note_off_c, 12, 57, 106
1, 2700, Note_off_c, 12, 62, 106
1, 2713, Note_off_c, 2, 62, 113
1, 2717, Note_off_c, 2, 57, 108
1, 2717, Note_off_c, 2, 65, 111
1, 2739, Note_on_c, 9, 69, 50
1, 2740, Note_off_c, 9, 69, 84
1, 2746, Note_off_c, 1, 38, 91
1, 2783, Note_on_c, 9, 42, 124
1, 2783, Note_on_c, 9, 69, 100
1, 2784, Note_off_c, 9, 42, 96
1, 2784, Note_on_c, 1, 50, 114
1, 2784, Note_on_c, 2, 57, 113
1, 2784, Note_on_c, 2, 62, 122
1, 2784, Note_on_c, 9, 63, 124
1, 2784, Note_on_c, 2, 65, 122
1, 2784, Note_off_c, 9, 69, 92
1, 2785, Note_off_c, 9, 63, 100
1, 2803, Note_off_c, 1, 50, 108
1, 2808, Note_off_c, 2, 57, 102
1, 2832, Note_on_c, 1, 50, 113
1, 2835, Note_on_c, 9, 69, 50
1, 2836, Note_on_c, 2, 57, 97
1, 2836, Note_off_c, 9, 69, 92
1, 2850, Note_off_c, 2, 65, 104
1, 2854, Note_off_c, 1, 50, 104
1, 2859, Note_off_c, 2, 62, 108
1, 2864, Note_off_c, 12, 60, 106
1, 2877, Note_off_c, 0, 60, 106
1, 2878, Note_off_c, 0, 57, 108
1, 2879, Note_on_c, 9, 42, 96
1, 2879, Note_on_c, 9, 69, 100
1, 2880, Note_on_c, 9, 36, 124
1, 2880, Note_on_c, 1, 38, 117
1, 2880, Note_on_c, 9, 40, 124
1, 2880, Note_off_c, 9, 42, 100
1, 2880, Note_on_c, 12, 57, 110
1, 2880, Note_on_c, 0, 62, 116
1, 2880, Note_on_c, 2, 62, 114
1, 2880, Note_on_c, 12, 62, 108
1, 2880, Note_on_c, 9, 62, 124
1, 2880, Note_on_c, 2, 65, 123
1, 2880, Note_off_c, 9, 69, 92
1, 2881, Note_off_c, 9, 36, 112
1, 2881, Note_off_c, 9, 40, 108
1, 2881, Note_off_c, 9, 62, 104
1, 2887, Note_off_c, 12, 65, 106
1, 2889, Note_off_c, 0, 65, 110
1, 2908, Note_off_c, 0, 62, 106
1, 2909, Note_off_c, 2, 57, 108
1, 2915, Note_off_c, 2, 62, 113
1, 2918, Note_off_c, 2, 65, 111
1, 2925, Note_off_c, 12, 62, 104
1, 2931, Note_on_c, 9, 69, 50
1, 2932, Note_off_c, 9, 69, 92
1, 2942, Note_off_c, 12, 57, 104
1, 2947, Note_off_c, 1, 38, 91
1, 2954, Pitch_bend_c, 12, 8064
1, 2961, Pitch_bend_c, 12, 7808
1, 2968, Pitch_bend_c, 12, 4992
1, 2969, Note_on_c, 0, 61, 117
1, 2972, Note_on_c, 0, 67, 116
1, 2975, Note_on_c, 9, 42, 124
1, 2975, Note_on_c, 9, 69, 100
1, 2976, Note_off_c, 9, 42, 100
1, 2976, Note_on_c, 1, 50, 116
1, 2976, Note_on_c, 12, 62, 119
1, 2976, Note_on_c, 9, 64, 112
1, 2976, Note_on_c, 12, 67, 116
1, 2976, Note_off_c, 9, 69, 92
1, 2977, Note_off_c, 9, 64, 104
1, 2977, Pitch_bend_c, 12, 2816
1, 2984, Pitch_bend_c, 12, 3840
1, 2986, Note_on_c, 0, 62, 116
1, 2989, Note_off_c, 0, 61, 110
1, 2994, Pitch_bend_c, 12, 6784
1, 3001, Note_off_c, 1, 50, 108
1, 3001, Pitch_bend_c, 12, 7552
1, 3008, Pitch_bend_c, 12, 7936
1, 3015, Pitch_bend_c, 12, 8192
1, 3024, Note_on_c, 1, 50, 110
1, 3024, Note_on_c, 9, 64, 108
1, 3025, Note_off_c, 9, 64, 112
1, 3027, Note_on_c, 9, 69, 50
1, 3028, Note_off_c, 9, 69, 92
1, 3052, Note_off_c, 1, 50, 110
1, 3071, Note_on_c, 9, 42, 76
1, 3071, Note_on_c, 9, 69, 96
1, 3072, Note_on_c, 9, 36, 124
1, 3072, Note_on_c, 1, 41, 122
1, 3072, Note_off_c, 9, 42, 96
1, 3072, Note_on_c, 2, 57, 114
1, 3072, Note_on_c, 2, 60, 119
1, 3072, Note_on_c, 9, 63, 120
1, 3072, Note_on_c, 2, 65, 117
1, 3072, Note_off_c, 9, 69, 80
1, 3073, Note_off_c, 9, 36, 76
1, 3073, Note_off_c, 9, 63, 92
1, 3088, Note_off_c, 2, 60, 111
1, 3096, Note_off_c, 2, 57, 104
1, 3099, Note_off_c, 2, 65, 108
1, 3123, Note_off_c, 0, 67, 110
1, 3123, Note_on_c, 9, 69, 50
1, 3124, Note_off_c, 9, 69, 80
1, 3132, Note_off_c, 0, 62, 110
1, 3143, Note_off_c, 1, 41, 108
1, 3164, Note_off_c, 12, 62, 108
1, 3166, Note_off_c, 12, 67, 108
1, 3167, Note_on_c, 9, 42, 124
1, 3167, Note_on_c, 9, 69, 88
1, 3168, Note_off_c, 9, 42, 100
1, 3168, Note_on_c, 1, 53, 113
1, 3168, Note_on_c, 0, 57, 108
1, 3168, Note_on_c, 2, 57, 116
1, 3168, Note_on_c, 0, 60, 114
1, 3168, Note_on_c, 2, 60, 116
1, 3168, Note_on_c, 12, 60, 111
1, 3168, Note_on_c, 9, 63, 116
1, 3168, Note_on_c, 0, 65, 111
1, 3168, Note_on_c, 2, 65, 110
1, 3168, Note_on_c, 12, 65, 113
1, 3168, Note_off_c, 9, 69, 76
1, 3169, Note_off_c, 9, 63, 84
1, 3182, Note_off_c, 2, 60, 116
1, 3189, Note_off_c, 1, 53, 108
1, 3191, Note_off_c, 0, 60, 106
1, 3191, Note_off_c, 2, 65, 108
1, 3193, Note_off_c, 0, 65, 97
1, 3194, Note_off_c, 0, 57, 91
1, 3195, Note_off_c, 2, 57, 104
1, 3197, Note_off_c, 12, 60, 104
1, 3202, Note_off_c, 12, 65, 110
1, 3216, Note_on_c, 1, 53, 113
1, 3219, Note_on_c, 9, 69, 50
1, 3220, Note_off_c, 9, 69, 76
1, 3239, Note_off_c, 1, 53, 99
1, 3263, Note_on_c, 9, 42, 92
1, 3263, Note_on_c, 9, 69, 104
1, 3264, Note_on_c, 9, 36, 124
1, 3264, Note_on_c, 9, 40, 124
1, 3264, Note_on_c, 1, 41, 120
1, 3264, Note_off_c, 9, 42, 100
1, 3264, Note_on_c, 0, 57, 110
1, 3264, Note_on_c, 2, 57, 119
1, 3264, Note_on_c, 0, 60, 116
1, 3264, Note_on_c, 2, 60, 123
1, 3264, Note_on_c, 12, 60, 114
1, 3264, Note_on_c, 9, 62, 124
1, 3264, Note_on_c, 0, 65, 116
1, 3264, Note_on_c, 2, 65, 122
1, 3264, Note_on_c, 12, 65, 114
1, 3264, Note_off_c, 9, 69, 68
1, 3265, Note_off_c, 9, 36, 96
1, 3265, Note_off_c, 9, 40, 96
1, 3265, Note_off_c, 9, 62, 108
1, 3315, Note_on_c, 9, 69, 50
1, 3316, Note_off_c, 9, 69, 68
1, 3333, Note_off_c, 2, 57, 106
1, 3333, Note_off_c, 1, 41, 108
1, 3336, Note_off_c, 2, 60, 111
1, 3336, Note_off_c, 2, 65, 110
1, 3356, Note_off_c, 12, 60, 110
1, 3357, Note_off_c, 0, 57, 102
1, 3359, Note_on_c, 9, 42, 124
1, 3359, Note_on_c, 9, 69, 96
1, 3360, Note_off_c, 12, 65, 104
1, 3360, Note_off_c, 9, 42, 92
1, 3360, Note_on_c, 1, 53, 113
1, 3360, Note_on_c, 12, 57, 111
1, 3360, Note_on_c, 0, 62, 116
1, 3360, Note_on_c, 12, 62, 113
1, 3360, Note_on_c, 9, 64, 116
1, 3360, Note_off_c, 9, 69, 68
1, 3361, Note_off_c, 9, 64, 96
1, 3366, Note_off_c, 0, 60, 106
1, 3371, Note_off_c, 0, 65, 104
1, 3382, Note_off_c, 1, 53, 108
1, 3390, Note_off_c, 0, 62, 110
1, 3408, Note_on_c, 1, 53, 113
1, 3408, Note_on_c, 9, 64, 108
1, 3409, Note_off_c, 9, 64, 104
1, 3411, Note_on_c, 9, 69, 50
1, 3412, Note_off_c, 9, 69, 68
1, 3430, Note_off_c, 1, 53, 104
1, 3455, Note_on_c, 9, 42, 84
1, 3455, Note_on_c, 9, 69, 104
1, 3456, Note_on_c, 9, 36, 124
1, 3456, Note_on_c, 1, 41, 122
1, 3456, Note_off_c, 9, 42, 96
1, 3456, Note_on_c, 0, 57, 111
1, 3456, Note_on_c, 2, 57, 113
1, 3456, Note_on_c, 0, 60, 116
1, 3456, Note_on_c, 2, 60, 122
1, 3456, Note_on_c, 12, 60, 111
1, 3456, Note_on_c, 9, 63, 124
1, 3456, Note_on_c, 0, 65, 116
1, 3456, Note_on_c, 2, 65, 120
1, 3456, Note_on_c, 12, 65, 113
1, 3456, Note_off_c, 9, 69, 84
1, 3457, Note_off_c, 12, 57, 108
1, 3457, Note_off_c, 9, 36, 108
1, 3457, Note_off_c, 9, 63, 96
1, 3462, Note_off_c, 12, 62, 108
1, 3507, Note_on_c, 9, 69, 50
1, 3508, Note_off_c, 9, 69, 84
1, 3526, Note_off_c, 1, 41, 106
1, 3551, Note_on_c, 9, 42, 124
1, 3551, Note_on_c, 9, 69, 100
1, 3552, Note_off_c, 9, 42, 100
1, 3552, Note_on_c, 1, 53, 110
1, 3552, Note_on_c, 9, 63, 124
1, 3552, Note_off_c, 9, 69, 92
1, 3553, Note_off_c, 9, 63, 100
1, 3555, Note_off_c, 2, 57, 71
1, 3573, Note_off_c, 1, 53, 108
1, 3580, Note_off_c, 2, 65, 66
1, 3600, Note_on_c, 1, 53, 108
1, 3603, Note_on_c, 9, 69, 50
1, 3604, Note_on_c, 2, 57, 102
1, 3604, Note_off_c, 9, 69, 92
1, 3610, Note_off_c, 2, 60, 66
1, 3628, Note_off_c, 1, 53, 108
1, 3642, Note_off_c, 12, 60, 108
1, 3646, Note_off_c, 0, 60, 108
1, 3647, Note_on_c, 9, 42, 100
1, 3647, Note_on_c, 9, 69, 100
1, 3648, Note_on_c, 9, 36, 124
1, 3648, Note_on_c, 9, 40, 124
1, 3648, Note_on_c, 1, 41, 120
1, 3648, Note_off_c, 9, 42, 100
1, 3648, Note_on_c, 12, 57, 108
1, 3648, Note_on_c, 2, 60, 122
1, 3648, Note_on_c, 0, 62, 113
1, 3648, Note_on_c, 12, 62, 113
1, 3648, Note_on_c, 9, 62, 124
1, 3648, Note_on_c, 2, 65, 120
1, 3648, Note_off_c, 9, 69, 92
1, 3649, Note_off_c, 0, 57, 106
1, 3649, Note_off_c, 12, 65, 97
1, 3649, Note_off_c, 9, 36, 112
1, 3649, Note_off_c, 9, 40, 108
1, 3649, Note_off_c, 9, 62, 104
1, 3652, Note_off_c, 0, 65, 108
1, 3668, Note_off_c, 0, 62, 102
1, 3672, Note_off_c, 2, 65, 108
1, 3687, Note_off_c, 2, 60, 108
1, 3697, Note_off_c, 2, 57, 102
1, 3699, Note_on_c, 9, 69, 50
1, 3700, Note_off_c, 9, 69, 92
1, 3714, Note_off_c, 1, 41, 106
1, 3742, Note_off_c, 12, 62, 108
1, 3743, Note_on_c, 9, 42, 124
1, 3743, Note_on_c, 9, 69, 100
1, 3744, Note_off_c, 9, 42, 100
1, 3744, Note_on_c, 12, 53, 108
1, 3744, Note_on_c, 1, 53, 113
1, 3744, Note_on_c, 0, 60, 111
1, 3744, Note_on_c, 12, 60, 114
1, 3744, Note_on_c, 9, 64, 112
1, 3744, Note_on_c, 0, 65, 113
1, 3744, Note_off_c, 9, 69, 92
1, 3744, Note_on_c, 0, 69, 117
1, 3745, Note_off_c, 9, 64, 104
1, 3764, Note_off_c, 1, 53, 111
1, 3792, Note_on_c, 1, 53, 114
1, 3792, Note_on_c, 9, 64, 108
1, 3793, Note_off_c, 9, 64, 112
1, 3795, Note_on_c, 9, 69, 50
1, 3796, Note_off_c, 9, 69, 92
1, 3819, Note_off_c, 1, 53, 108
1, 3839, Note_on_c, 9, 42, 92
1, 3839, Note_on_c, 9, 69, 96
1, 3840, Note_on_c, 9, 36, 124
1, 3840, Note_on_c, 1, 41, 120
1, 3840, Note_off_c, 9, 42, 100
1, 3840, Note_on_c, 2, 57, 108
1, 3840, Note_on_c, 2, 60, 119
1, 3840, Note_on_c, 9, 63, 120
1, 3840, Note_on_c, 2, 65, 117
1, 3840, Note_off_c, 9, 69, 80
1, 3841, Note_off_c, 9, 36, 76
1, 3841, Note_off_c, 9, 63, 92
1, 3867, Note_off_c, 2, 57, 104
1, 3869, Note_off_c, 2, 60, 111
1, 3872, Note_off_c, 2, 65, 110
1, 3891, Note_on_c, 9, 69, 50
1, 3892, Note_off_c, 9, 69, 80
1, 3925, Note_off_c, 1, 41, 99
1, 3935, Note_on_c, 9, 42, 124
1, 3935, Note_on_c, 9, 69, 88
1, 3936, Note_off_c, 9, 42, 100
1, 3936, Note_on_c, 1, 53, 114
1, 3936, Note_on_c, 2, 57, 113
1, 3936, Note_on_c, 2, 60, 120
1, 3936, Note_on_c, 9, 63, 116
1, 3936, Note_on_c, 2, 65, 117
1, 3936, Note_off_c, 9, 69, 76
1, 3937, Note_off_c, 9, 63, 84
1, 3959, Note_off_c, 2, 60, 108
1, 3962, Note_off_c, 2, 57, 106
1, 3962, Note_off_c, 1, 53, 108
1, 3965, Note_off_c, 2, 65, 102
1, 3984, Note_on_c, 1, 53, 108
1, 3987, Note_on_c, 9, 69, 50
1, 3988, Note_off_c, 9, 69, 76
1, 4013, Note_off_c, 1, 53, 108
1, 4031, Note_on_c, 9, 42, 100
1, 4031, Note_on_c, 9, 69, 104
1, 4032, Note_on_c, 9, 36, 124
1, 4032, Note_on_c, 9, 40, 124
1, 4032, Note_off_c, 9, 42, 100
1, 4032, Note_on_c, 1, 43, 119
1, 4032, Note_on_c, 2, 57, 116
1, 4032, Note_on_c, 2, 60, 122
1, 4032, Note_on_c, 9, 62, 124
1, 4032, Note_on_c, 2, 65, 120
1, 4032, Note_off_c, 9, 69, 68
1, 4033, Note_off_c, 9, 36, 96
1, 4033, Note_off_c, 9, 40, 96
1, 4033, Note_off_c, 9, 62, 108
1, 4083, Note_on_c, 9, 69, 50
1, 4084, Note_off_c, 9, 69, 68
1, 4102, Note_off_c, 1, 43, 104
1, 4105, Note_off_c, 2, 65, 110
1, 4108, Note_off_c, 2, 60, 97
1, 4114, Note_off_c, 2, 57, 104
1, 4127, Note_on_c, 9, 42, 124
1, 4127, Note_on_c, 9, 69, 96
1, 4128, Note_off_c, 9, 42, 104
1, 4128, Note_on_c, 1, 55, 113
1, 4128, Note_on_c, 9, 64, 116
1, 4128, Note_off_c, 9, 69, 68
1, 4129, Note_off_c, 9, 64, 96
1, 4148, Note_off_c, 1, 55, 111
1, 4176, Note_on_c, 1, 55, 108
1, 4176, Note_on_c, 9, 64, 108
1, 4177, Note_off_c, 9, 64, 104
1, 4179, Note_on_c, 9, 69, 50
1, 4180, Note_off_c, 9, 69, 68
1, 4203, Note_off_c, 1, 55, 110
1, 4223, Note_on_c, 9, 42, 92
1, 4223, Note_on_c, 9, 69, 104
1, 4224, Note_on_c, 9, 36, 124
1, 4224, Note_off_c, 9, 42, 100
1, 4224, Note_on_c, 1, 45, 122
1, 4224, Note_on_c, 2, 57, 117
1, 4224, Note_on_c, 2, 60, 122
1, 4224, Note_on_c, 9, 63, 124
1, 4224, Note_on_c, 2, 65, 122
1, 4224, Note_off_c, 9, 69, 84
1, 4225, Note_off_c, 9, 36, 108
1, 4225, Note_off_c, 9, 63, 96
1, 4275, Note_on_c, 9, 69, 50
1, 4276, Note_off_c, 9, 69, 84
1, 4295, Note_off_c, 1, 45, 108
1, 4319, Note_on_c, 9, 42, 124
1, 4319, Note_on_c, 9, 69, 100
1, 4320, Note_off_c, 9, 42, 108
1, 4320, Note_on_c, 1, 57, 116
1, 4320, Note_on_c, 9, 63, 124
1, 4320, Note_off_c, 9, 69, 92
1, 4321, Note_off_c, 9, 63, 100
1, 4324, Note_off_c, 2, 57, 84
1, 4347, Note_off_c, 1, 57, 106
1, 4350, Note_off_c, 2, 65, 71
1, 4368, Note_on_c, 1, 57, 106
1, 4371, Note_on_c, 9, 69, 50
1, 4372, Note_on_c, 2, 57, 97
1, 4372, Note_off_c, 9, 69, 92
1, 4386, Note_off_c, 2, 60, 13
1, 4394, Note_off_c, 1, 57, 106
1, 4399, Note_off_c, 2, 57, 97
1, 4411, Note_off_c, 0, 65, 110
1, 4412, Note_off_c, 0, 60, 111
1, 4415, Note_on_c, 9, 42, 96
1, 4415, Note_on_c, 9, 69, 100
1, 4416, Note_on_c, 9, 36, 124
1, 4416, Note_on_c, 9, 40, 124
1, 4416, Note_on_c, 1, 41, 120
1, 4416, Note_off_c, 9, 42, 100
1, 4416, Note_on_c, 2, 57, 113
1, 4416, Note_on_c, 2, 60, 117
1, 4416, Note_on_c, 9, 62, 124
1, 4416, Note_on_c, 2, 65, 120
1, 4416, Note_off_c, 9, 69, 92
1, 4417, Note_off_c, 9, 36, 112
1, 4417, Note_off_c, 9, 40, 108
1, 4417, Note_off_c, 9, 62, 104
1, 4418, Note_off_c, 0, 69, 108
1, 4432, Note_off_c, 12, 60, 111
1, 4435, Note_off_c, 2, 65, 108
1, 4436, Note_off_c, 2, 60, 110
1, 4442, Note_off_c, 12, 57, 108
1, 4445, Note_off_c, 12, 53, 106
1, 4449, Note_off_c, 2, 57, 104
1, 4467, Note_on_c, 9, 69, 50
1, 4468, Note_off_c, 9, 69, 92
1, 4490, Pitch_bend_c, 12, 8064
1, 4497, Pitch_bend_c, 12, 7680
1, 4499, Note_off_c, 1, 41, 111
1, 4504, Pitch_bend_c, 12, 4864
1, 4511, Note_on_c, 9, 42, 124
1, 4511, Note_on_c, 9, 69, 100
1, 4512, Note_off_c, 9, 42, 100
1, 4512, Note_on_c, 0, 61, 120
1, 4512, Note_off_c, 9, 69, 92
1, 4512, Note_off_c, 0, 61, 117
1, 4512, Note_on_c, 12, 62, 119
1, 4512, Pitch_bend_c, 12, 2048
1, 4512, Note_on_c, 1, 53, 111
1, 4512, Note_on_c, 9, 64, 112
1, 4512, Note_on_c, 12, 67, 116
1, 4513, Note_off_c, 9, 64, 104
1, 4517, Note_on_c, 0, 67, 114
1, 4520, Pitch_bend_c, 12, 1024
1, 4522, Note_on_c, 0, 62, 120
1, 4527, Pitch_bend_c, 12, 1408
1, 4533, Note_off_c, 1, 53, 113
1, 4533, Note_on_c, 0, 61, 99
1, 4534, Pitch_bend_c, 12, 6016
1, 4541, Pitch_bend_c, 12, 7424
1, 4545, Note_off_c, 0, 61, 91
1, 4549, Pitch_bend_c, 12, 7936
1, 4558, Pitch_bend_c, 12, 8192
1, 4560, Note_on_c, 1, 53, 111
1, 4560, Note_on_c, 9, 64, 108
1, 4561, Note_off_c, 9, 64, 112
1, 4563, Note_on_c, 9, 69, 50
1, 4564, Note_off_c, 9, 69, 92
1, 4587, Note_off_c, 1, 53, 110
1, 4607, Note_on_c, 9, 42, 92
1, 4607, Note_on_c, 9, 69, 96
1, 4608, Note_on_c, 9, 36, 124
1, 4608, Note_on_c, 1, 38, 114
1, 4608, Note_off_c, 9, 42, 100
1, 4608, Note_on_c, 2, 57, 122
1, 4608, Note_on_c, 2, 62, 124
1, 4608, Note_on_c, 9, 63, 120
1, 4608, Note_on_c, 2, 65, 123
1, 4608, Note_off_c, 9, 69, 80
1, 4609, Note_off_c, 9, 36, 76
1, 4609, Note_off_c, 9, 63, 92
1, 4643, Note_off_c, 2, 57, 84
1, 4643, Note_off_c, 2, 62, 111
1, 4655, Note_off_c, 0, 67, 104
1, 4659, Note_off_c, 0, 62, 108
1, 4659, Note_off_c, 2, 65, 108
1, 4659, Note_on_c, 9, 69, 50
1, 4660, Note_off_c, 9, 69, 80
1, 4681, Note_off_c, 1, 38, 102
1, 4696, Note_off_c, 12, 62, 110
1, 4698, Note_off_c, 12, 67, 108
1, 4703, Note_on_c, 9, 42, 124
1, 4703, Note_on_c, 9, 69, 88
1, 4704, Note_off_c, 9, 42, 96
1, 4704, Note_on_c, 1, 50, 116
1, 4704, Note_on_c, 0, 57, 108
1, 4704, Note_on_c, 2, 57, 113
1, 4704, Note_on_c, 0, 60, 110
1, 4704, Note_on_c, 12, 60, 113
1, 4704, Note_on_c, 2, 62, 117
1, 4704, Note_on_c, 9, 63, 116
1, 4704, Note_on_c, 0, 65, 110
1, 4704, Note_on_c, 12, 65, 91
1, 4704, Note_off_c, 9, 69, 76
1, 4705, Note_off_c, 9, 63, 84
1, 4719, Note_off_c, 2, 62, 119
1, 4722, Note_off_c, 12, 65, 104
1, 4723, Note_off_c, 0, 60, 111
1, 4724, Note_off_c, 0, 65, 111
1, 4725, Note_off_c, 12, 60, 104
1, 4729, Note_off_c, 0, 57, 94
1, 4730, Note_off_c, 1, 50, 108
1, 4731, Note_off_c, 2, 57, 104
1, 4752, Note_on_c, 1, 50, 103
1, 4755, Note_on_c, 9, 69, 50
1, 4756, Note_off_c, 9, 69, 76
1, 4780, Note_off_c, 1, 50, 111
1, 4799, Note_on_c, 9, 42, 100
1, 4799, Note_on_c, 9, 69, 104
1, 4800, Note_on_c, 9, 36, 124
1, 4800, Note_on_c, 1, 38, 117
1, 4800, Note_on_c, 9, 40, 124
1, 4800, Note_off_c, 9, 42, 100
1, 4800, Note_on_c, 0, 57, 111
1, 4800, Note_on_c, 2, 57, 122
1, 4800, Note_on_c, 0, 60, 119
1, 4800, Note_on_c, 12, 60, 114
1, 4800, Note_on_c, 2, 62, 124
1, 4800, Note_on_c, 9, 62, 124
1, 4800, Note_on_c, 0, 65, 117
1, 4800, Note_on_c, 2, 65, 124
1, 4800, Note_on_c, 12, 65, 119
1, 4800, Note_off_c, 9, 69, 68
1, 4801, Note_off_c, 9, 36, 96
1, 4801, Note_off_c, 9, 40, 96
1, 4801, Note_off_c, 9, 62, 108
1, 4830, Note_off_c, 2, 57, 108
1, 4832, Note_off_c, 2, 62, 111
1, 4845, Note_off_c, 2, 65, 108
1, 4851, Note_on_c, 9, 69, 50
1, 4852, Note_off_c, 9, 69, 68
1, 4871, Note_off_c, 1, 38, 99
1, 4875, Note_off_c, 12, 60, 110
1, 4895, Note_on_c, 9, 42, 124
1, 4895, Note_on_c, 9, 69, 96
1, 4896, Note_off_c, 12, 65, 108
1, 4896, Note_off_c, 9, 42, 100
1, 4896, Note_on_c, 1, 50, 114
1, 4896, Note_on_c, 12, 57, 106
1, 4896, Note_on_c, 0, 62, 117
1, 4896, Note_on_c, 12, 62, 111
1, 4896, Note_on_c, 9, 64, 116
1, 4896, Note_off_c, 9, 69, 68
1, 4897, Note_off_c, 9, 64, 96
1, 4902, Note_off_c, 0, 57, 104
1, 4906, Note_off_c, 0, 60, 102
1, 4910, Note_off_c, 0, 65, 104
1, 4916, Note_off_c, 1, 50, 110
1, 4923, Note_off_c, 0, 62, 106
1, 4944, Note_on_c, 1, 50, 117
1, 4944, Note_on_c, 9, 64, 108
1, 4945, Note_off_c, 9, 64, 104
1, 4947, Note_on_c, 9, 69, 50
1, 4948, Note_off_c, 9, 69, 68
1, 4971, Note_off_c, 1, 50, 110
1, 4991, Note_on_c, 9, 42, 84
1, 4991, Note_on_c, 9, 69, 104
1, 4992, Note_on_c, 9, 36, 124
1, 4992, Note_on_c, 1, 38, 120
1, 4992, Note_off_c, 12, 57, 110
1, 4992, Note_off_c, 9, 42, 96
1, 4992, Note_on_c, 0, 57, 113
1, 4992, Note_on_c, 2, 57, 122
1, 4992, Note_on_c, 0, 60, 119
1, 4992, Note_on_c, 12, 60, 113
1, 4992, Note_on_c, 2, 62, 124
1, 4992, Note_on_c, 9, 63, 124
1, 4992, Note_on_c, 0, 65, 119
1, 4992, Note_on_c, 2, 65, 124
1, 4992, Note_on_c, 12, 65, 113
1, 4992, Note_off_c, 9, 69, 84
1, 4993, Note_off_c, 9, 36, 108
1, 4993, Note_off_c, 9, 63, 96
1, 5011, Note_off_c, 12, 62, 108
1, 5023, Note_off_c, 2, 57, 108
1, 5025, Note_off_c, 2, 62, 111
1, 5043, Note_on_c, 9, 69, 50
1, 5044, Note_off_c, 9, 69, 84
1, 5059, Note_off_c, 1, 38, 102
1, 5069, Note_off_c, 2, 65, 13
1, 5087, Note_on_c, 9, 42, 124
1, 5087, Note_on_c, 9, 69, 100
1, 5088, Note_off_c, 9, 42, 100
1, 5088, Note_on_c, 1, 50, 114
1, 5088, Note_on_c, 9, 63, 124
1, 5088, Note_off_c, 9, 69, 92
1, 5089, Note_off_c, 9, 63, 100
1, 5109, Note_off_c, 1, 50, 106
1, 5136, Note_on_c, 1, 50, 117
1, 5139, Note_on_c, 9, 69, 50
1, 5140, Note_on_c, 2, 57, 99
1, 5140, Note_off_c, 9, 69, 92
1, 5155, Note_off_c, 1, 50, 102
1, 5166, Note_off_c, 2, 57, 102
1, 5182, Note_off_c, 0, 57, 108
1, 5183, Note_on_c, 9, 42, 104
1, 5183, Note_off_c, 0, 60, 110
1, 5183, Note_off_c, 12, 65, 104
1, 5183, Note_on_c, 9, 69, 100
1, 5184, Note_on_c, 9, 36, 124
1, 5184, Note_on_c, 1, 38, 119
1, 5184, Note_on_c, 9, 40, 124
1, 5184, Note_off_c, 9, 42, 100
1, 5184, Note_on_c, 2, 57, 117
1, 5184, Note_on_c, 12, 57, 113
1, 5184, Note_on_c, 0, 62, 116
1, 5184, Note_on_c, 2, 62, 124
1, 5184, Note_on_c, 12, 62, 113
1, 5184, Note_on_c, 9, 62, 124
1, 5184, Note_on_c, 2, 65, 122
1, 5184, Note_off_c, 9, 69, 92
1, 5185, Note_off_c, 9, 36, 112
1, 5185, Note_off_c, 9, 40, 108
1, 5185, Note_off_c, 9, 62, 104
1, 5188, Note_off_c, 0, 65, 110
1, 5189, Note_off_c, 12, 60, 104
1, 5206, Note_off_c, 0, 62, 104
1, 5212, Note_off_c, 2, 57, 110
1, 5212, Note_off_c, 2, 62, 111
1, 5235, Note_on_c, 9, 69, 50
1, 5236, Note_off_c, 9, 69, 92
1, 5240, Note_off_c, 2, 65, 91
1, 5248, Note_off_c, 12, 62, 108
1, 5254, Note_off_c, 1, 38, 102
1, 5257, Note_off_c, 12, 57, 108
1, 5261, Pitch_bend_c, 12, 5760
1, 5268, Pitch_bend_c, 12, 2944
1, 5275, Note_on_c, 0, 61, 117
1, 5276, Pitch_bend_c, 12, 1280
1, 5278, Note_on_c, 0, 67, 114
1, 5279, Note_on_c, 9, 42, 124
1, 5279, Note_on_c, 9, 69, 100
1, 5280, Note_off_c, 9, 42, 100
1, 5280, Note_on_c, 1, 50, 116
1, 5280, Note_on_c, 12, 62, 117
1, 5280, Note_on_c, 9, 64, 112
1, 5280, Note_on_c, 12, 67, 116
1, 5280, Note_off_c, 9, 69, 92
1, 5281, Note_off_c, 9, 64, 104
1, 5284, Pitch_bend_c, 12, 2432
1, 5289, Note_on_c, 0, 62, 119
1, 5291, Pitch_bend_c, 12, 6400
1, 5294, Note_off_c, 0, 61, 111
1, 5299, Pitch_bend_c, 12, 7424
1, 5300, Note_off_c, 1, 50, 108
1, 5307, Pitch_bend_c, 12, 7808
1, 5314, Pitch_bend_c, 12, 8192
1, 5328, Note_on_c, 1, 50, 113
1, 5328, Note_on_c, 9, 64, 108
1, 5329, Note_off_c, 9, 64, 112
1, 5331, Note_on_c, 9, 69, 50
1, 5332, Note_off_c, 9, 69, 92
1, 5354, Note_off_c, 1, 50, 108
1, 5375, Note_on_c, 9, 42, 104
1, 5375, Note_on_c, 9, 69, 96
1, 5376, Note_on_c, 9, 36, 124
1, 5376, Note_on_c, 1, 38, 117
1, 5376, Note_off_c, 9, 42, 100
1, 5376, Note_on_c, 2, 57, 122
1, 5376, Note_on_c, 2, 62, 124
1, 5376, Note_on_c, 9, 63, 120
1, 5376, Note_on_c, 2, 65, 124
1, 5376, Note_off_c, 9, 69, 80
1, 5377, Note_off_c, 9, 36, 76
1, 5377, Note_off_c, 9, 63, 92
1, 5406, Note_off_c, 2, 62, 111
1, 5408, Note_off_c, 2, 57, 110
1, 5410, Note_off_c, 2, 65, 110
1, 5427, Note_on_c, 9, 69, 50
1, 5428, Note_off_c, 9, 69, 80
1, 5429, Note_off_c, 0, 67, 106
1, 5434, Note_off_c, 0, 62, 110
1, 5444, Note_off_c, 1, 38, 97
1, 5471, Note_on_c, 9, 42, 124
1, 5471, Note_off_c, 12, 62, 110
1, 5471, Note_off_c, 12, 67, 108
1, 5471, Note_on_c, 9, 69, 88
1, 5472, Note_off_c, 9, 42, 100
1, 5472, Note_on_c, 1, 50, 116
1, 5472, Note_on_c, 0, 57, 108
1, 5472, Note_on_c, 2, 57, 111
1, 5472, Note_on_c, 0, 60, 113
1, 5472, Note_on_c, 12, 60, 111
1, 5472, Note_on_c, 2, 62, 119
1, 5472, Note_on_c, 9, 63, 116
1, 5472, Note_on_c, 0, 65, 114
1, 5472, Note_on_c, 2, 65, 117
1, 5472, Note_on_c, 12, 65, 113
1, 5472, Note_off_c, 9, 69, 76
1, 5473, Note_off_c, 9, 63, 84
1, 5490, Note_off_c, 0, 60, 113
1, 5495, Note_off_c, 12, 60, 104
1, 5495, Note_off_c, 1, 50, 106
1, 5496, Note_off_c, 0, 57, 97
1, 5497, Note_off_c, 2, 57, 102
1, 5499, Note_off_c, 2, 62, 113
1, 5501, Note_off_c, 0, 65, 106
1, 5503, Note_off_c, 2, 65, 108
1, 5505, Note_off_c, 12, 65, 108
1, 5520, Note_on_c, 1, 50, 111
1, 5523, Note_on_c, 9, 69, 50
1, 5524, Note_off_c, 9, 69, 76
1, 5545, Note_off_c, 1, 50, 94
1, 5567, Note_on_c, 9, 42, 108
1, 5567, Note_on_c, 9, 69, 104
1, 5568, Note_on_c, 9, 36, 124
1, 5568, Note_on_c, 1, 38, 122
1, 5568, Note_on_c, 9, 40, 124
1, 5568, Note_off_c, 9, 42, 100
1, 5568, Note_on_c, 0, 57, 110
1, 5568, Note_on_c, 2, 57, 119
1, 5568, Note_on_c, 0, 60, 120
1, 5568, Note_on_c, 12, 60, 114
1, 5568, Note_on_c, 2, 62, 124
1, 5568, Note_on_c, 9, 62, 124
1, 5568, Note_on_c, 0, 65, 117
1, 5568, Note_on_c, 2, 65, 124
1, 5568, Note_on_c, 12, 65, 114
1, 5568, Note_off_c, 9, 69, 68
1, 5569, Note_off_c, 9, 36, 96
1, 5569, Note_off_c, 9, 40, 96
1, 5569, Note_off_c, 9, 62, 108
1, 5598, Note_off_c, 2, 57, 108
1, 5598, Note_off_c, 2, 62, 113
1, 5606, Note_off_c, 2, 65, 111
1, 5619, Note_on_c, 9, 69, 50
1, 5620, Note_off_c, 9, 69, 68
1, 5636, Note_off_c, 1, 38, 104
1, 5648, Note_off_c, 12, 60, 106
1, 5655, Note_off_c, 0, 57, 102
1, 5663, Note_on_c, 9, 42, 124
1, 5663, Note_on_c, 9, 69, 96
1, 5664, Note_off_c, 9, 42, 100
1, 5664, Note_on_c, 1, 50, 113
1, 5664, Note_on_c, 12, 57, 110
1, 5664, Note_on_c, 0, 62, 113
1, 5664, Note_on_c, 12, 62, 110
1, 5664, Note_on_c, 9, 64, 116
1, 5664, Note_off_c, 9, 69, 68
1, 5665, Note_off_c, 9, 64, 96
1, 5667, Note_off_c, 12, 65, 108
1, 5673, Note_off_c, 0, 60, 108
1, 5674, Note_off_c, 0, 65, 106
1, 5684, Note_off_c, 1, 50, 110
1, 5689, Note_off_c, 0, 62, 104
1, 5712, Note_on_c, 1, 50, 114
1, 5712, Note_on_c, 9, 64, 108
1, 5713, Note_off_c, 9, 64, 104
1, 5715, Note_on_c, 9, 69, 50
1, 5716, Note_off_c, 9, 69, 68
1, 5737, Note_off_c, 1, 50, 104
1, 5759, Note_on_c, 9, 42, 104
1, 5759, Note_on_c, 9, 69, 104
1, 5760, Note_on_c, 9, 36, 124
1, 5760, Note_on_c, 1, 38, 120
1, 5760, Note_off_c, 9, 42, 100
1, 5760, Note_on_c, 0, 57, 111
1, 5760, Note_on_c, 2, 57, 120
1, 5760, Note_on_c, 0, 60, 117
1, 5760, Note_on_c, 12, 60, 110
1, 5760, Note_on_c, 2, 62, 123
1, 5760, Note_on_c, 9, 63, 124
1, 5760, Note_on_c, 0, 65, 119
1, 5760, Note_on_c, 2, 65, 122
1, 5760, Note_on_c, 12, 65, 113
1, 5760, Note_off_c, 9, 69, 84
1, 5761, Note_off_c, 9, 36, 108
1, 5761, Note_off_c, 9, 63, 96
1, 5768, Note_off_c, 12, 57, 108
1, 5773, Note_off_c, 12, 62, 106
1, 5785, Note_off_c, 2, 62, 113
1, 5789, Note_off_c, 2, 57, 108
1, 5789, Note_off_c, 2, 65, 111
1, 5811, Note_on_c, 9, 69, 50
1, 5812, Note_off_c, 9, 69, 84
1, 5829, Note_off_c, 1, 38, 104
1, 5855, Note_on_c, 9, 42, 124
1, 5855, Note_on_c, 9, 69, 100
1, 5856, Note_off_c, 9, 42, 104
1, 5856, Note_on_c, 1, 50, 117
1, 5856, Note_on_c, 2, 57, 113
1, 5856, Note_on_c, 2, 62, 122
1, 5856, Note_on_c, 9, 63, 124
1, 5856, Note_on_c, 2, 65, 122
1, 5856, Note_off_c, 9, 69, 92
1, 5857, Note_off_c, 9, 63, 100
1, 5880, Note_off_c, 2, 57, 102
1, 5884, Note_off_c, 1, 50, 108
1, 5904, Note_on_c, 1, 50, 99
1, 5907, Note_on_c, 9, 69, 50
1, 5908, Note_on_c, 2, 57, 97
1, 5908, Note_off_c, 9, 69, 92
1, 5922, Note_off_c, 2, 65, 104
1, 5929, Note_off_c, 1, 50, 108
1, 5931, Note_off_c, 2, 62, 108
1, 5940, Note_off_c, 12, 65, 104
1, 5949, Note_off_c, 0, 60, 106
1, 5950, Note_off_c, 0, 57, 108
1, 5950, Note_off_c, 12, 60, 104
1, 5951, Note_on_c, 9, 42, 96
1, 5951, Note_on_c, 9, 69, 100
1, 5952, Note_on_c, 9, 36, 124
1, 5952, Note_on_c, 1, 38, 122
1, 5952, Note_on_c, 9, 40, 124
1, 5952, Note_off_c, 9, 42, 100
1, 5952, Note_on_c, 12, 57, 111
1, 5952, Note_on_c, 0, 62, 116
1, 5952, Note_on_c, 2, 62, 114
1, 5952, Note_on_c, 12, 62, 113
1, 5952, Note_on_c, 9, 62, 124
1, 5952, Note_on_c, 2, 65, 123
1, 5952, Note_off_c, 9, 69, 92
1, 5953, Note_off_c, 9, 36, 112
1, 5953, Note_off_c, 9, 40, 108
1, 5953, Note_off_c, 9, 62, 104
1, 5961, Note_off_c, 0, 65, 110
1, 5980, Note_off_c, 0, 62, 106
1, 5981, Note_off_c, 2, 57, 108
1, 5987, Note_off_c, 2, 62, 113
1, 5990, Note_off_c, 2, 65, 111
1, 6003, Note_on_c, 9, 69, 50
1, 6004, Note_off_c, 9, 69, 92
1, 6020, Note_off_c, 12, 57, 106
1, 6027, Note_off_c, 12, 62, 104
1, 6027, Note_off_c, 1, 38, 102
1, 6031, Pitch_bend_c, 12, 7168
1, 6040, Pitch_bend_c, 12, 4864
1, 6041, Note_on_c, 0, 61, 117
1, 6044, Note_on_c, 0, 67, 116
1, 6047, Pitch_bend_c, 12, 2304
1, 6047, Note_on_c, 9, 42, 124
1, 6047, Note_on_c, 9, 69, 100
1, 6048, Note_off_c, 9, 42, 104
1, 6048, Note_on_c, 1, 50, 114
1, 6048, Note_on_c, 12, 62, 117
1, 6048, Note_on_c, 9, 64, 112
1, 6048, Note_on_c, 12, 67, 114
1, 6048, Note_off_c, 9, 69, 92
1, 6049, Note_off_c, 9, 64, 104
1, 6054, Pitch_bend_c, 12, 896
1, 6058, Note_on_c, 0, 62, 116
1, 6061, Note_off_c, 0, 61, 110
1, 6061, Pitch_bend_c, 12, 5120
1, 6066, Note_off_c, 1, 50, 111
1, 6068, Pitch_bend_c, 12, 6912
1, 6075, Pitch_bend_c, 12, 7552
1, 6083, Pitch_bend_c, 12, 7936
1, 6091, Pitch_bend_c, 12, 8192
1, 6096, Note_on_c, 1, 50, 108
1, 6096, Note_on_c, 9, 64, 108
1, 6097, Note_off_c, 9, 64, 112
1, 6099, Note_on_c, 9, 69, 50
1, 6100, Note_off_c, 9, 69, 92
1, 6122, Note_off_c, 1, 50, 108
1, 6143, Note_on_c, 9, 42, 100
1, 6143, Note_on_c, 9, 69, 96
1, 6144, Note_on_c, 9, 36, 124
1, 6144, Note_on_c, 1, 41, 117
1, 6144, Note_off_c, 9, 42, 92
1, 6144, Note_on_c, 2, 57, 114
1, 6144, Note_on_c, 2, 60, 119
1, 6144, Note_on_c, 9, 63, 120
1, 6144, Note_on_c, 2, 65, 117
1, 6144, Note_off_c, 9, 69, 80
1, 6145, Note_off_c, 9, 36, 76
1, 6145, Note_off_c, 9, 63, 92
1, 6160, Note_off_c, 2, 60, 111
1, 6168, Note_off_c, 2, 57, 104
1, 6171, Note_off_c, 2, 65, 108
1, 6195, Note_off_c, 0, 67, 110
1, 6195, Note_on_c, 9, 69, 50
1, 6196, Note_off_c, 9, 69, 80
1, 6204, Note_off_c, 0, 62, 110
1, 6221, Note_off_c, 1, 41, 106
1, 6239, Note_on_c, 9, 42, 120
1, 6239, Note_on_c, 9, 69, 88
1, 6240, Note_off_c, 12, 67, 108
1, 6240, Note_off_c, 9, 42, 92
1, 6240, Note_on_c, 1, 53, 119
1, 6240, Note_on_c, 0, 57, 108
1, 6240, Note_on_c, 2, 57, 116
1, 6240, Note_on_c, 0, 60, 114
1, 6240, Note_on_c, 2, 60, 116
1, 6240, Note_on_c, 12, 60, 114
1, 6240, Note_on_c, 9, 63, 116
1, 6240, Note_on_c, 0, 65, 111
1, 6240, Note_on_c, 2, 65, 110
1, 6240, Note_on_c, 12, 65, 113
1, 6240, Note_off_c, 9, 69, 76
1, 6241, Note_off_c, 12, 62, 111
1, 6241, Note_off_c, 9, 63, 84
1, 6254, Note_off_c, 2, 60, 116
1, 6263, Note_off_c, 0, 60, 106
1, 6263, Note_off_c, 2, 65, 108
1, 6265, Note_off_c, 0, 65, 97
1, 6266, Note_off_c, 0, 57, 91
1, 6267, Note_off_c, 2, 57, 104
1, 6269, Note_off_c, 1, 53, 111
1, 6270, Note_off_c, 12, 60, 111
1, 6271, Note_off_c, 12, 65, 99
1, 6288, Note_on_c, 1, 53, 101
1, 6291, Note_on_c, 9, 69, 50
1, 6292, Note_off_c, 9, 69, 76
1, 6318, Note_off_c, 1, 53, 111
1, 6335, Note_on_c, 9, 42, 124
1, 6335, Note_on_c, 9, 69, 104
1, 6336, Note_on_c, 9, 36, 124
1, 6336, Note_on_c, 9, 40, 124
1, 6336, Note_on_c, 1, 41, 122
1, 6336, Note_off_c, 9, 42, 96
1, 6336, Note_on_c, 0, 57, 110
1, 6336, Note_on_c, 2, 57, 119
1, 6336, Note_on_c, 0, 60, 116
1, 6336, Note_on_c, 2, 60, 123
1, 6336, Note_on_c, 12, 60, 111
1, 6336, Note_on_c, 9, 62, 124
1, 6336, Note_on_c, 0, 65, 116
1, 6336, Note_on_c, 2, 65, 122
1, 6336, Note_on_c, 12, 65, 117
1, 6336, Note_off_c, 9, 69, 68
1, 6337, Note_off_c, 9, 36, 96
1, 6337, Note_off_c, 9, 40, 96
1, 6337, Note_off_c, 9, 62, 108
1, 6387, Note_on_c, 9, 69, 50
1, 6388, Note_off_c, 9, 69, 68
1, 6405, Note_off_c, 2, 57, 106
1, 6408, Note_off_c, 2, 60, 111
1, 6408, Note_off_c, 2, 65, 110
1, 6412, Note_off_c, 1, 41, 110
1, 6422, Note_off_c, 12, 60, 106
1, 6429, Note_off_c, 0, 57, 102
1, 6431, Note_on_c, 9, 42, 124
1, 6431, Note_on_c, 9, 69, 96
1, 6432, Note_off_c, 9, 42, 100
1, 6432, Note_on_c, 1, 53, 114
1, 6432, Note_on_c, 12, 57, 108
1, 6432, Note_on_c, 0, 62, 116
1, 6432, Note_on_c, 12, 62, 111
1, 6432, Note_on_c, 9, 64, 116
1, 6432, Note_off_c, 9, 69, 68
1, 6433, Note_off_c, 9, 64, 96
1, 6438, Note_off_c, 0, 60, 106
1, 6441, Note_off_c, 12, 65, 102
1, 6443, Note_off_c, 0, 65, 104
1, 6454, Note_off_c, 1, 53, 106
1, 6462, Note_off_c, 0, 62, 110
1, 6480, Note_on_c, 1, 53, 114
1, 6480, Note_on_c, 9, 64, 108
1, 6481, Note_off_c, 9, 64, 104
1, 6483, Note_on_c, 9, 69, 50
1, 6484, Note_off_c, 9, 69, 68
1, 6503, Note_off_c, 1, 53, 104
1, 6527, Note_on_c, 9, 42, 76
1, 6527, Note_on_c, 9, 69, 104
1, 6528, Note_on_c, 9, 36, 124
1, 6528, Note_on_c, 1, 41, 119
1, 6528, Note_off_c, 9, 42, 100
1, 6528, Note_on_c, 0, 57, 111
1, 6528, Note_on_c, 2, 57, 113
1, 6528, Note_on_c, 0, 60, 116
1, 6528, Note_on_c, 2, 60, 122
1, 6528, Note_on_c, 12, 60, 113
1, 6528, Note_on_c, 9, 63, 124
1, 6528, Note_on_c, 0, 65, 116
1, 6528, Note_on_c, 2, 65, 120
1, 6528, Note_on_c, 12, 65, 97
1, 6528, Note_off_c, 9, 69, 84
1, 6529, Note_off_c, 12, 57, 108
1, 6529, Note_off_c, 9, 36, 108
1, 6529, Note_off_c, 9, 63, 96
1, 6544, Note_off_c, 12, 62, 108
1, 6579, Note_on_c, 9, 69, 50
1, 6580, Note_off_c, 9, 69, 84
1, 6604, Note_off_c, 1, 41, 110
1, 6623, Note_on_c, 9, 42, 124
1, 6623, Note_on_c, 9, 69, 100
1, 6624, Note_off_c, 9, 42, 100
1, 6624, Note_on_c, 1, 53, 114
1, 6624, Note_on_c, 9, 63, 124
1, 6624, Note_off_c, 9, 69, 92
1, 6625, Note_off_c, 9, 63, 100
1, 6627, Note_off_c, 2, 57, 71
1, 6646, Note_off_c, 1, 53, 106
1, 6652, Note_off_c, 2, 65, 66
1, 6672, Note_on_c, 1, 53, 113
1, 6675, Note_on_c, 9, 69, 50
1, 6676, Note_on_c, 2, 57, 102
1, 6676, Note_off_c, 9, 69, 92
1, 6682, Note_off_c, 2, 60, 66
1, 6697, Note_off_c, 12, 65, 104
1, 6697, Note_off_c, 1, 53, 106
1, 6715, Note_off_c, 12, 60, 102
1, 6718, Note_off_c, 0, 60, 108
1, 6719, Note_on_c, 9, 42, 84
1, 6719, Note_on_c, 9, 69, 100
1, 6720, Note_on_c, 9, 36, 124
1, 6720, Note_on_c, 9, 40, 124
1, 6720, Note_on_c, 1, 41, 120
1, 6720, Note_off_c, 9, 42, 96
1, 6720, Note_on_c, 2, 60, 122
1, 6720, Note_on_c, 0, 62, 113
1, 6720, Note_on_c, 12, 62, 116
1, 6720, Note_on_c, 9, 62, 124
1, 6720, Note_on_c, 2, 65, 120
1, 6720, Note_on_c, 12, 67, 116
1, 6720, Note_off_c, 9, 69, 92
1, 6721, Note_off_c, 0, 57, 106
1, 6721, Note_off_c, 9, 36, 112
1, 6721, Note_off_c, 9, 40, 108
1, 6721, Note_off_c, 9, 62, 104
1, 6724, Note_off_c, 0, 65, 108
1, 6740, Note_off_c, 0, 62, 102
1, 6744, Note_off_c, 2, 65, 108
1, 6759, Note_off_c, 2, 60, 108
1, 6769, Note_off_c, 2, 57, 102
1, 6771, Note_on_c, 9, 69, 50
1, 6772, Note_off_c, 9, 69, 92
1, 6797, Note_off_c, 1, 41, 111
1, 6815, Note_on_c, 9, 42, 124
1, 6815, Note_on_c, 9, 69, 100
1, 6816, Note_off_c, 9, 42, 100
1, 6816, Note_on_c, 1, 53, 114
1, 6816, Note_on_c, 0, 60, 111
1, 6816, Note_on_c, 12, 60, 113
1, 6816, Note_on_c, 9, 64, 112
1, 6816, Note_on_c, 0, 65, 113
1, 6816, Note_on_c, 12, 65, 113
1, 6816, Note_off_c, 9, 69, 92
1, 6816, Note_on_c, 0, 69, 117
1, 6816, Note_on_c, 12, 69, 106
1, 6817, Note_off_c, 9, 64, 104
1, 6819, Note_off_c, 12, 62, 106
1, 6819, Note_off_c, 12, 67, 106
1, 6838, Note_off_c, 1, 53, 106
1, 6864, Note_on_c, 1, 53, 119
1, 6864, Note_on_c, 9, 64, 108
1, 6865, Note_off_c, 9, 64, 112
1, 6867, Note_on_c, 9, 69, 50
1, 6868, Note_off_c, 9, 69, 92
1, 6889, Note_off_c, 1, 53, 104
1, 6911, Note_on_c, 9, 42, 92
1, 6911, Note_on_c, 9, 69, 96
1, 6912, Note_on_c, 9, 36, 124
1, 6912, Note_on_c, 1, 41, 120
1, 6912, Note_off_c, 9, 42, 100
1, 6912, Note_on_c, 2, 57, 108
1, 6912, Note_on_c, 2, 60, 119
1, 6912, Note_on_c, 9, 63, 120
1, 6912, Note_on_c, 2, 65, 117
1, 6912, Note_off_c, 9, 69, 80
1, 6913, Note_off_c, 9, 36, 76
1, 6913, Note_off_c, 9, 63, 92
1, 6939, Note_off_c, 2, 57, 104
1, 6941, Note_off_c, 2, 60, 111
1, 6944, Note_off_c, 2, 65, 110
1, 6963, Note_on_c, 9, 69, 50
1, 6964, Note_off_c, 9, 69, 80
1, 6987, Note_off_c, 1, 41, 111
1, 7007, Note_on_c, 9, 46, 124
1, 7007, Note_on_c, 9, 69, 88
1, 7008, Note_off_c, 9, 46, 96
1, 7008, Note_on_c, 1, 53, 114
1, 7008, Note_on_c, 2, 57, 113
1, 7008, Note_on_c, 2, 60, 120
1, 7008, Note_on_c, 9, 63, 116
1, 7008, Note_on_c, 2, 65, 117
1, 7008, Note_off_c, 9, 69, 76
1, 7009, Note_off_c, 9, 63, 84
1, 7027, Note_off_c, 1, 53, 108
1, 7031, Note_off_c, 2, 60, 108
1, 7034, Note_off_c, 2, 57, 106
1, 7037, Note_off_c, 2, 65, 102
1, 7056, Note_on_c, 1, 53, 117
1, 7059, Note_on_c, 9, 69, 50
1, 7060, Note_off_c, 9, 69, 76
1, 7078, Note_off_c, 1, 53, 94
1, 7103, Note_on_c, 9, 42, 112
1, 7103, Note_on_c, 9, 69, 104
1, 7104, Note_on_c, 9, 36, 124
1, 7104, Note_on_c, 9, 40, 124
1, 7104, Note_off_c, 9, 42, 100
1, 7104, Note_on_c, 1, 43, 117
1, 7104, Note_on_c, 2, 57, 116
1, 7104, Note_on_c, 2, 60, 122
1, 7104, Note_on_c, 9, 62, 124
1, 7104, Note_on_c, 2, 65, 120
1, 7104, Note_off_c, 9, 69, 68
1, 7105, Note_off_c, 9, 36, 96
1, 7105, Note_off_c, 9, 40, 96
1, 7105, Note_off_c, 9, 62, 108
1, 7155, Note_on_c, 9, 69, 50
1, 7156, Note_off_c, 9, 69, 68
1, 7177, Note_off_c, 2, 65, 110
1, 7180, Note_off_c, 2, 60, 97
1, 7184, Note_off_c, 1, 43, 106
1, 7186, Note_off_c, 2, 57, 104
1, 7199, Note_on_c, 9, 42, 124
1, 7199, Note_on_c, 9, 69, 96
1, 7200, Note_off_c, 9, 42, 100
1, 7200, Note_on_c, 1, 55, 116
1, 7200, Note_on_c, 9, 64, 116
1, 7200, Note_off_c, 9, 69, 68
1, 7201, Note_off_c, 9, 64, 96
1, 7221, Note_off_c, 1, 55, 99
1, 7248, Note_on_c, 1, 55, 114
1, 7248, Note_on_c, 9, 64, 108
1, 7249, Note_off_c, 9, 64, 104
1, 7251, Note_on_c, 9, 69, 50
1, 7252, Note_off_c, 9, 69, 68
1, 7274, Note_off_c, 1, 55, 111
1, 7295, Note_on_c, 9, 42, 88
1, 7295, Note_on_c, 9, 69, 104
1, 7296, Note_on_c, 9, 36, 124
1, 7296, Note_off_c, 9, 42, 100
1, 7296, Note_on_c, 1, 45, 122
1, 7296, Note_on_c, 2, 57, 117
1, 7296, Note_on_c, 2, 60, 122
1, 7296, Note_on_c, 9, 63, 124
1, 7296, Note_on_c, 2, 65, 122
1, 7296, Note_off_c, 9, 69, 84
1, 7297, Note_off_c, 9, 36, 108
1, 7297, Note_off_c, 9, 63, 96
1, 7347, Note_on_c, 9, 69, 50
1, 7348, Note_off_c, 9, 69, 84
1, 7370, Note_off_c, 1, 45, 106
1, 7391, Note_on_c, 9, 42, 124
1, 7391, Note_on_c, 9, 69, 100
1, 7392, Note_off_c, 9, 42, 100
1, 7392, Note_on_c, 1, 57, 116
1, 7392, Note_on_c, 9, 63, 124
1, 7392, Note_off_c, 9, 69, 92
1, 7393, Note_off_c, 9, 63, 100
1, 7396, Note_off_c, 2, 57, 84
1, 7417, Note_off_c, 1, 57, 94
1, 7422, Note_off_c, 2, 65, 71
1, 7440, Note_on_c, 1, 57, 108
1, 7443, Note_on_c, 9, 69, 50
1, 7444, Note_on_c, 2, 57, 97
1, 7444, Note_off_c, 9, 69, 92
1, 7458, Note_off_c, 2, 60, 13
1, 7466, Note_off_c, 1, 57, 110
1, 7471, Note_off_c, 2, 57, 97
1, 7473, Note_off_c, 12, 69, 106
1, 7479, Note_off_c, 12, 60, 108
1, 7479, Note_off_c, 12, 65, 106
1, 7483, Note_off_c, 0, 65, 110
1, 7484, Note_off_c, 0, 60, 111
1, 7487, Note_on_c, 9, 42, 96
1, 7487, Note_on_c, 9, 69, 100
1, 7488, Note_on_c, 9, 36, 124
1, 7488, Note_on_c, 9, 40, 124
1, 7488, Note_on_c, 1, 41, 122
1, 7488, Note_off_c, 9, 42, 100
1, 7488, Note_on_c, 2, 57, 113
1, 7488, Note_on_c, 2, 60, 117
1, 7488, Note_on_c, 9, 62, 124
1, 7488, Note_on_c, 2, 65, 120
1, 7488, Note_off_c, 9, 69, 92
1, 7489, Note_off_c, 9, 36, 112
1, 7489, Note_off_c, 9, 40, 108
1, 7489, Note_off_c, 9, 62, 104
1, 7490, Note_off_c, 0, 69, 108
1, 7507, Note_off_c, 2, 65, 108
1, 7508, Note_off_c, 2, 60, 110
1, 7521, Note_off_c, 2, 57, 104
1, 7539, Note_on_c, 9, 69, 50
1, 7540, Note_off_c, 9, 69, 92
1, 7565, Note_off_c, 1, 41, 110
1, 7577, Pitch_bend_c, 12, 8064
1, 7583, Note_on_c, 9, 42, 124
1, 7583, Note_on_c, 9, 69, 100
1, 7584, Note_off_c, 9, 42, 100
1, 7584, Note_on_c, 1, 53, 113
1, 7584, Note_on_c, 9, 64, 112
1, 7584, Note_off_c, 9, 69, 92
1, 7584, Note_on_c, 2, 57, 79
1, 7584, Note_on_c, 0, 61, 120
1, 7584, Note_off_c, 0, 61, 117
1, 7584, Note_on_c, 2, 62, 87
1, 7584, Pitch_bend_c, 12, 7680
1, 7584, Note_on_c, 12, 62, 120
1, 7584, Note_on_c, 12, 67, 119
1, 7585, Note_off_c, 9, 64, 104
1, 7585, Note_off_c, 2, 57, 104
1, 7585, Note_off_c, 2, 62, 104
1, 7589, Note_on_c, 0, 67, 114
1, 7591, Pitch_bend_c, 12, 4096
1, 7594, Note_on_c, 0, 62, 120
1, 7598, Pitch_bend_c, 12, 2176
1, 7605, Note_off_c, 1, 53, 108
1, 7605, Note_on_c, 0, 61, 99
1, 7605, Pitch_bend_c, 12, 1024
1, 7615, Pitch_bend_c, 12, 4864
1, 7617, Note_off_c, 0, 61, 91
1, 7622, Pitch_bend_c, 12, 6784
1, 7629, Pitch_bend_c, 12, 7552
1, 7632, Note_on_c, 9, 40, 65
1, 7632, Note_on_c, 1, 53, 114
1, 7632, Note_on_c, 9, 64, 108
1, 7633, Note_off_c, 9, 40, 108
1, 7633, Note_off_c, 9, 64, 112
1, 7635, Note_on_c, 9, 69, 50
1, 7636, Note_off_c, 9, 69, 92
1, 7636, Note_on_c, 2, 57, 108
1, 7636, Note_off_c, 2, 57, 114
1, 7636, Note_on_c, 2, 62, 107
1, 7636, Note_off_c, 2, 62, 114
1, 7636, Pitch_bend_c, 12, 7936
1, 7643, Pitch_bend_c, 12, 8192
1, 7659, Note_off_c, 1, 53, 111
1, 7679, Note_on_c, 9, 69, 96
1, 7680, Note_on_c, 9, 36, 124
1, 7680, Note_on_c, 1, 38, 116
1, 7680, Note_on_c, 9, 49, 124
1, 7680, Note_on_c, 11, 50, 116
1, 7680, Note_on_c, 2, 57, 122
1, 7680, Note_on_c, 2, 62, 124
1, 7680, Note_on_c, 9, 63, 120
1, 7680, Note_on_c, 2, 65, 123
1, 7680, Note_off_c, 9, 69, 80
1, 7681, Note_off_c, 9, 36, 76
1, 7681, Note_off_c, 9, 49, 100
1, 7681, Note_off_c, 9, 63, 92
1, 7715, Note_off_c, 2, 57, 84
1, 7715, Note_off_c, 2, 62, 111
1, 7731, Note_off_c, 2, 65, 108
1, 7731, Note_on_c, 9, 69, 50
1, 7732, Note_off_c, 9, 69, 80
1, 7745, Note_off_c, 1, 38, 94
1, 7751, Note_off_c, 12, 62, 108
1, 7751, Note_off_c, 12, 67, 108
1, 7775, Note_off_c, 0, 67, 104
1, 7775, Note_on_c, 9, 69, 88
1, 7776, Note_on_c, 1, 50, 114
1, 7776, Note_on_c, 0, 57, 79
1, 7776, Note_on_c, 2, 57, 113
1, 7776, Note_on_c, 0, 60, 86
1, 7776, Note_on_c, 12, 60, 110
1, 7776, Note_on_c, 2, 62, 117
1, 7776, Note_on_c, 9, 63, 116
1, 7776, Note_on_c, 0, 65, 88
1, 7776, Note_on_c, 12, 65, 110
1, 7776, Note_off_c, 9, 69, 76
1, 7777, Note_off_c, 9, 63, 84
1, 7779, Note_off_c, 0, 62, 108
1, 7791, Note_off_c, 2, 62, 119
1, 7792, Note_off_c, 1, 50, 116
1, 7795, Note_off_c, 0, 60, 111
1, 7796, Note_off_c, 0, 65, 111
1, 7799, Note_off_c, 12, 60, 102
1, 7801, Note_off_c, 0, 57, 94
1, 7802, Note_off_c, 12, 65, 94
1, 7803, Note_off_c, 2, 57, 104
1, 7824, Note_on_c, 1, 50, 117
1, 7827, Note_on_c, 9, 69, 50
1, 7828, Note_off_c, 9, 69, 76
1, 7844, Note_off_c, 1, 50, 102
1, 7871, Note_on_c, 9, 42, 7
1, 7871, Note_on_c, 9, 69, 104
1, 7872, Note_on_c, 9, 36, 124
1, 7872, Note_on_c, 1, 38, 117
1, 7872, Note_on_c, 9, 40, 124
1, 7872, Note_off_c, 9, 42, 88
1, 7872, Note_on_c, 2, 57, 122
1, 7872, Note_on_c, 12, 60, 113
1, 7872, Note_on_c, 2, 62, 124
1, 7872, Note_on_c, 9, 62, 124
1, 7872, Note_on_c, 0, 65, 119
1, 7872, Note_on_c, 2, 65, 124
1, 7872, Note_on_c, 12, 65, 113
1, 7872, Note_off_c, 9, 69, 68
1, 7872, Note_on_c, 0, 69, 124
1, 7872, Note_on_c, 0, 74, 120
1, 7872, Note_on_c, 6, 74, 119
1, 7873, Note_off_c, 9, 36, 96
1, 7873, Note_off_c, 9, 40, 96
1, 7873, Note_off_c, 9, 62, 108
1, 7902, Note_off_c, 2, 57, 108
1, 7904, Note_off_c, 2, 62, 111
1, 7917, Note_off_c, 2, 65, 108
1, 7923, Note_on_c, 9, 69, 50
1, 7924, Note_off_c, 9, 69, 68
1, 7941, Note_off_c, 1, 38, 97
1, 7967, Note_on_c, 9, 42, 112
1, 7967, Note_off_c, 12, 60, 104
1, 7967, Note_on_c, 9, 69, 96
1, 7968, Note_off_c, 9, 42, 88
1, 7968, Note_on_c, 1, 50, 114
1, 7968, Note_on_c, 12, 57, 104
1, 7968, Note_on_c, 12, 62, 111
1, 7968, Note_on_c, 9, 64, 116
1, 7968, Note_off_c, 9, 69, 68
1, 7969, Note_off_c, 9, 64, 96
1, 7985, Note_off_c, 1, 50, 114
1, 7994, Note_off_c, 12, 65, 97
1, 8016, Note_on_c, 1, 50, 114
1, 8016, Note_on_c, 9, 64, 108
1, 8017, Note_off_c, 9, 64, 104
1, 8019, Note_on_c, 9, 69, 50
1, 8020, Note_off_c, 9, 69, 68
1, 8037, Note_off_c, 1, 50, 94
1, 8053, Note_off_c, 0, 69, 106
1, 8060, Note_off_c, 0, 74, 108
1, 8063, Note_on_c, 9, 42, 52
1, 8063, Note_off_c, 0, 65, 110
1, 8063, Note_on_c, 9, 69, 104
1, 8063, Note_off_c, 6, 74, 110
1, 8064, Note_on_c, 9, 36, 124
1, 8064, Note_on_c, 1, 38, 122
1, 8064, Note_off_c, 9, 42, 92
1, 8064, Note_on_c, 2, 57, 122
1, 8064, Note_on_c, 12, 60, 106
1, 8064, Note_on_c, 2, 62, 124
1, 8064, Note_on_c, 9, 63, 124
1, 8064, Note_on_c, 2, 65, 124
1, 8064, Note_on_c, 12, 65, 111
1, 8064, Note_off_c, 9, 69, 84
1, 8064, Note_on_c, 0, 69, 120
1, 8064, Note_on_c, 0, 74, 120
1, 8064, Note_on_c, 0, 77, 120
1, 8064, Note_on_c, 6, 77, 120
1, 8065, Note_off_c, 9, 36, 108
1, 8065, Note_off_c, 9, 63, 96
1, 8069, Note_off_c, 12, 57, 108
1, 8081, Note_off_c, 12, 62, 97
1, 8095, Note_off_c, 2, 57, 108
1, 8097, Note_off_c, 2, 62, 111
1, 8115, Note_on_c, 9, 69, 50
1, 8116, Note_off_c, 9, 69, 84
1, 8129, Note_off_c, 1, 38, 97
1, 8141, Note_off_c, 2, 65, 13
1, 8159, Note_on_c, 9, 42, 124
1, 8159, Note_on_c, 9, 69, 100
1, 8160, Note_off_c, 9, 42, 92
1, 8160, Note_on_c, 1, 50, 113
1, 8160, Note_on_c, 9, 63, 124
1, 8160, Note_off_c, 9, 69, 92
1, 8161, Note_off_c, 9, 63, 100
1, 8177, Note_off_c, 1, 50, 113
1, 8208, Note_on_c, 1, 50, 108
1, 8211, Note_on_c, 9, 69, 50
1, 8212, Note_on_c, 2, 57, 99
1, 8212, Note_off_c, 9, 69, 92
1, 8232, Note_off_c, 1, 50, 97
1, 8238, Note_off_c, 2, 57, 102
1, 8248, Note_off_c, 12, 60, 104
1, 8251, Note_off_c, 12, 65, 106
1, 8253, Note_off_c, 0, 69, 106
1, 8253, Note_off_c, 0, 77, 111
1, 8254, Note_off_c, 0, 74, 102
1, 8255, Note_on_c, 9, 42, 84
1, 8255, Note_on_c, 9, 69, 100
1, 8255, Note_off_c, 6, 77, 106
1, 8256, Note_on_c, 9, 36, 124
1, 8256, Note_on_c, 1, 38, 117
1, 8256, Note_on_c, 9, 40, 124
1, 8256, Note_off_c, 9, 42, 96
1, 8256, Note_on_c, 2, 57, 117
1, 8256, Note_on_c, 12, 57, 114
1, 8256, Note_on_c, 2, 62, 124
1, 8256, Note_on_c, 12, 62, 104
1, 8256, Note_on_c, 9, 62, 124
1, 8256, Note_on_c, 2, 65, 122
1, 8256, Note_off_c, 9, 69, 92
1, 8256, Note_on_c, 0, 74, 116
1, 8256, Note_on_c, 0, 77, 122
1, 8256, Note_on_c, 0, 81, 120
1, 8256, Note_on_c, 6, 81, 119
1, 8257, Note_off_c, 9, 36, 112
1, 8257, Note_off_c, 9, 40, 108
1, 8257, Note_off_c, 9, 62, 104
1, 8282, Note_off_c, 12, 62, 94
1, 8284, Note_off_c, 2, 57, 110
1, 8284, Note_off_c, 2, 62, 111
1, 8307, Note_on_c, 9, 69, 50
1, 8308, Note_off_c, 9, 69, 92
1, 8312, Note_off_c, 2, 65, 91
1, 8316, Note_off_c, 12, 57, 99
1, 8321, Pitch_bend_c, 12, 7808
1, 8326, Note_off_c, 1, 38, 102
1, 8331, Pitch_bend_c, 12, 6400
1, 8338, Pitch_bend_c, 12, 3584
1, 8345, Pitch_bend_c, 12, 1792
1, 8351, Note_on_c, 9, 42, 124
1, 8351, Note_on_c, 9, 69, 100
1, 8352, Note_off_c, 9, 42, 96
1, 8352, Note_on_c, 1, 50, 116
1, 8352, Note_on_c, 12, 62, 119
1, 8352, Note_on_c, 9, 64, 112
1, 8352, Note_on_c, 12, 67, 116
1, 8352, Note_off_c, 9, 69, 92
1, 8353, Note_off_c, 9, 64, 104
1, 8354, Pitch_bend_c, 12, 1280
1, 8365, Pitch_bend_c, 12, 5888
1, 8370, Note_off_c, 1, 50, 113
1, 8372, Pitch_bend_c, 12, 7424
1, 8379, Pitch_bend_c, 12, 7808
1, 8388, Pitch_bend_c, 12, 8192
1, 8400, Note_on_c, 1, 50, 119
1, 8400, Note_on_c, 9, 64, 108
1, 8401, Note_off_c, 9, 64, 112
1, 8403, Note_on_c, 9, 69, 50
1, 8404, Note_off_c, 9, 69, 92
1, 8418, Note_off_c, 1, 50, 97
1, 8442, Note_off_c, 0, 77, 111
1, 8442, Note_off_c, 0, 81, 110
1, 8447, Note_on_c, 9, 42, 76
1, 8447, Note_on_c, 9, 69, 96
1, 8447, Note_off_c, 0, 74, 110
1, 8447, Note_off_c, 6, 81, 110
1, 8448, Note_on_c, 9, 36, 124
1, 8448, Note_on_c, 1, 38, 120
1, 8448, Note_off_c, 9, 42, 100
1, 8448, Note_on_c, 2, 57, 122
1, 8448, Note_on_c, 2, 62, 124
1, 8448, Note_on_c, 9, 63, 120
1, 8448, Note_on_c, 2, 65, 124
1, 8448, Note_off_c, 9, 69, 80
1, 8448, Note_on_c, 0, 77, 119
1, 8448, Note_on_c, 0, 81, 122
1, 8448, Note_on_c, 0, 84, 122
1, 8448, Note_on_c, 6, 84, 122
1, 8449, Note_off_c, 9, 36, 76
1, 8449, Note_off_c, 9, 63, 92
1, 8478, Note_off_c, 2, 62, 111
1, 8480, Note_off_c, 2, 57, 110
1, 8482, Note_off_c, 2, 65, 110
1, 8499, Note_on_c, 9, 69, 50
1, 8500, Note_off_c, 9, 69, 80
1, 8513, Note_off_c, 1, 38, 102
1, 8543, Note_on_c, 9, 42, 124
1, 8543, Note_on_c, 9, 69, 88
1, 8544, Note_off_c, 9, 42, 100
1, 8544, Note_on_c, 1, 50, 116
1, 8544, Note_on_c, 2, 57, 111
1, 8544, Note_on_c, 12, 60, 113
1, 8544, Note_on_c, 2, 62, 119
1, 8544, Note_on_c, 9, 63, 116
1, 8544, Note_on_c, 2, 65, 117
1, 8544, Note_on_c, 12, 65, 111
1, 8544, Note_off_c, 9, 69, 76
1, 8545, Note_off_c, 9, 63, 84
1, 8551, Note_off_c, 12, 62, 108
1, 8557, Note_off_c, 12, 67, 108
1, 8562, Note_off_c, 1, 50, 111
1, 8564, Note_off_c, 12, 60, 99
1, 8568, Note_off_c, 12, 65, 97
1, 8569, Note_off_c, 2, 57, 102
1, 8571, Note_off_c, 2, 62, 113
1, 8575, Note_off_c, 2, 65, 108
1, 8592, Note_on_c, 1, 50, 120
1, 8595, Note_on_c, 9, 69, 50
1, 8596, Note_off_c, 9, 69, 76
1, 8607, Note_off_c, 1, 50, 111
1, 8639, Note_on_c, 9, 42, 80
1, 8639, Note_on_c, 9, 69, 104
1, 8640, Note_on_c, 9, 36, 124
1, 8640, Note_on_c, 1, 38, 122
1, 8640, Note_on_c, 9, 40, 124
1, 8640, Note_off_c, 9, 42, 96
1, 8640, Note_on_c, 2, 57, 119
1, 8640, Note_on_c, 12, 60, 113
1, 8640, Note_on_c, 2, 62, 124
1, 8640, Note_on_c, 9, 62, 124
1, 8640, Note_on_c, 2, 65, 124
1, 8640, Note_on_c, 12, 65, 114
1, 8640, Note_off_c, 9, 69, 68
1, 8641, Note_off_c, 9, 36, 96
1, 8641, Note_off_c, 9, 40, 96
1, 8641, Note_off_c, 9, 62, 108
1, 8670, Note_off_c, 2, 57, 108
1, 8670, Note_off_c, 2, 62, 113
1, 8678, Note_off_c, 2, 65, 111
1, 8691, Note_on_c, 9, 69, 50
1, 8692, Note_off_c, 9, 69, 68
1, 8713, Note_off_c, 1, 38, 102
1, 8728, Note_off_c, 12, 60, 108
1, 8735, Note_on_c, 9, 42, 124
1, 8735, Note_on_c, 9, 69, 96
1, 8736, Note_off_c, 9, 42, 96
1, 8736, Note_on_c, 1, 50, 116
1, 8736, Note_on_c, 12, 57, 106
1, 8736, Note_on_c, 12, 62, 108
1, 8736, Note_on_c, 9, 64, 116
1, 8736, Note_off_c, 9, 69, 68
1, 8737, Note_off_c, 9, 64, 96
1, 8753, Note_off_c, 1, 50, 113
1, 8759, Note_off_c, 12, 65, 102
1, 8784, Note_on_c, 1, 50, 116
1, 8784, Note_on_c, 9, 64, 108
1, 8785, Note_off_c, 9, 64, 104
1, 8787, Note_on_c, 9, 69, 50
1, 8788, Note_off_c, 9, 69, 68
1, 8805, Note_off_c, 1, 50, 99
1, 8827, Note_off_c, 0, 77, 110
1, 8829, Note_off_c, 0, 81, 110
1, 8830, Note_off_c, 0, 84, 104
1, 8831, Note_on_c, 9, 42, 92
1, 8831, Note_on_c, 9, 69, 104
1, 8831, Note_off_c, 6, 84, 110
1, 8832, Note_on_c, 9, 36, 124
1, 8832, Note_on_c, 1, 38, 122
1, 8832, Note_off_c, 9, 42, 100
1, 8832, Note_on_c, 2, 57, 120
1, 8832, Note_on_c, 12, 60, 110
1, 8832, Note_on_c, 2, 62, 123
1, 8832, Note_on_c, 9, 63, 124
1, 8832, Note_on_c, 2, 65, 122
1, 8832, Note_on_c, 12, 65, 114
1, 8832, Note_off_c, 9, 69, 84
1, 8832, Note_on_c, 0, 74, 117
1, 8832, Note_on_c, 0, 77, 122
1, 8832, Note_on_c, 0, 81, 120
1, 8832, Note_on_c, 6, 81, 120
1, 8833, Note_off_c, 9, 36, 108
1, 8833, Note_off_c, 9, 63, 96
1, 8836, Note_off_c, 12, 57, 106
1, 8844, Note_off_c, 12, 62, 106
1, 8857, Note_off_c, 2, 62, 113
1, 8861, Note_off_c, 2, 57, 108
1, 8861, Note_off_c, 2, 65, 111
1, 8883, Note_on_c, 9, 69, 50
1, 8884, Note_off_c, 9, 69, 84
1, 8890, Note_off_c, 1, 38, 91
1, 8927, Note_on_c, 9, 42, 124
1, 8927, Note_on_c, 9, 69, 100
1, 8928, Note_off_c, 9, 42, 96
1, 8928, Note_on_c, 1, 50, 114
1, 8928, Note_on_c, 2, 57, 113
1, 8928, Note_on_c, 2, 62, 122
1, 8928, Note_on_c, 9, 63, 124
1, 8928, Note_on_c, 2, 65, 122
1, 8928, Note_off_c, 9, 69, 92
1, 8929, Note_off_c, 9, 63, 100
1, 8947, Note_off_c, 1, 50, 108
1, 8952, Note_off_c, 2, 57, 102
1, 8976, Note_on_c, 1, 50, 113
1, 8979, Note_on_c, 9, 69, 50
1, 8980, Note_on_c, 2, 57, 97
1, 8980, Note_off_c, 9, 69, 92
1, 8994, Note_off_c, 2, 65, 104
1, 8998, Note_off_c, 1, 50, 104
1, 9003, Note_off_c, 2, 62, 108
1, 9008, Note_off_c, 12, 60, 106
1, 9023, Note_on_c, 9, 42, 96
1, 9023, Note_on_c, 9, 69, 100
1, 9024, Note_on_c, 9, 36, 124
1, 9024, Note_on_c, 1, 38, 117
1, 9024, Note_on_c, 9, 40, 124
1, 9024, Note_off_c, 9, 42, 100
1, 9024, Note_on_c, 12, 57, 110
1, 9024, Note_on_c, 2, 62, 114
1, 9024, Note_on_c, 12, 62, 108
1, 9024, Note_on_c, 9, 62, 124
1, 9024, Note_on_c, 2, 65, 123
1, 9024, Note_off_c, 9, 69, 92
1, 9025, Note_off_c, 9, 36, 112
1, 9025, Note_off_c, 9, 40, 108
1, 9025, Note_off_c, 9, 62, 104
1, 9031, Note_off_c, 12, 65, 106
1, 9053, Note_off_c, 2, 57, 108
1, 9059, Note_off_c, 2, 62, 113
1, 9062, Note_off_c, 2, 65, 111
1, 9069, Note_off_c, 12, 62, 104
1, 9075, Note_on_c, 9, 69, 50
1, 9076, Note_off_c, 9, 69, 92
1, 9086, Note_off_c, 12, 57, 104
1, 9091, Note_off_c, 1, 38, 91
1, 9098, Pitch_bend_c, 12, 8064
1, 9105, Pitch_bend_c, 12, 7808
1, 9112, Pitch_bend_c, 12, 4992
1, 9119, Note_on_c, 9, 42, 124
1, 9119, Note_on_c, 9, 69, 100
1, 9120, Note_off_c, 9, 42, 100
1, 9120, Note_on_c, 1, 50, 116
1, 9120, Note_on_c, 12, 62, 119
1, 9120, Note_on_c, 9, 64, 112
1, 9120, Note_on_c, 12, 67, 116
1, 9120, Note_off_c, 9, 69, 92
1, 9121, Note_off_c, 9, 64, 104
1, 9121, Pitch_bend_c, 12, 2816
1, 9128, Pitch_bend_c, 12, 3840
1, 9138, Pitch_bend_c, 12, 6784
1, 9145, Note_off_c, 1, 50, 108
1, 9145, Pitch_bend_c, 12, 7552
1, 9152, Pitch_bend_c, 12, 7936
1, 9159, Pitch_bend_c, 12, 8192
1, 9168, Note_on_c, 1, 50, 110
1, 9168, Note_on_c, 9, 64, 108
1, 9169, Note_off_c, 9, 64, 112
1, 9171, Note_on_c, 9, 69, 50
1, 9172, Note_off_c, 9, 69, 92
1, 9196, Note_off_c, 1, 50, 110
1, 9214, Note_off_c, 11, 50, 108
1, 9215, Note_on_c, 9, 42, 76
1, 9215, Note_on_c, 9, 69, 96
1, 9216, Note_on_c, 9, 36, 124
1, 9216, Note_on_c, 11, 41, 116
1, 9216, Note_on_c, 1, 41, 122
1, 9216, Note_off_c, 9, 42, 96
1, 9216, Note_on_c, 2, 57, 114
1, 9216, Note_on_c, 2, 60, 119
1, 9216, Note_on_c, 9, 63, 120
1, 9216, Note_on_c, 2, 65, 117
1, 9216, Note_off_c, 9, 69, 80
1, 9217, Note_off_c, 9, 36, 76
1, 9217, Note_off_c, 9, 63, 92
1, 9232, Note_off_c, 2, 60, 111
1, 9234, Note_off_c, 0, 74, 108
1, 9240, Note_off_c, 2, 57, 104
1, 9243, Note_off_c, 2, 65, 108
1, 9246, Note_off_c, 0, 81, 110
1, 9267, Note_on_c, 9, 69, 50
1, 9268, Note_off_c, 9, 69, 80
1, 9287, Note_off_c, 1, 41, 108
1, 9290, Note_off_c, 0, 77, 110
1, 9308, Note_off_c, 12, 62, 108
1, 9310, Note_off_c, 12, 67, 108
1, 9311, Note_on_c, 9, 42, 124
1, 9311, Note_on_c, 9, 69, 88
1, 9311, Note_off_c, 6, 81, 110
1, 9312, Note_off_c, 9, 42, 100
1, 9312, Note_on_c, 1, 53, 113
1, 9312, Note_on_c, 2, 57, 116
1, 9312, Note_on_c, 2, 60, 116
1, 9312, Note_on_c, 12, 60, 111
1, 9312, Note_on_c, 9, 63, 116
1, 9312, Note_on_c, 2, 65, 110
1, 9312, Note_on_c, 12, 65, 113
1, 9312, Note_off_c, 9, 69, 76
1, 9312, Note_on_c, 0, 74, 114
1, 9312, Note_on_c, 0, 79, 114
1, 9312, Note_on_c, 0, 82, 114
1, 9312, Note_on_c, 6, 82, 117
1, 9313, Note_off_c, 9, 63, 84
1, 9326, Note_off_c, 2, 60, 116
1, 9333, Note_off_c, 1, 53, 108
1, 9335, Note_off_c, 2, 65, 108
1, 9339, Note_off_c, 2, 57, 104
1, 9341, Note_off_c, 12, 60, 104
1, 9346, Note_off_c, 12, 65, 110
1, 9355, Note_off_c, 0, 79, 106
1, 9356, Note_off_c, 0, 74, 104
1, 9356, Note_off_c, 0, 82, 106
1, 9359, Note_off_c, 6, 82, 106
1, 9360, Note_on_c, 1, 53, 113
1, 9360, Note_on_c, 0, 72, 113
1, 9360, Note_on_c, 0, 77, 114
1, 9360, Note_on_c, 0, 81, 111
1, 9360, Note_on_c, 6, 81, 116
1, 9363, Note_on_c, 9, 69, 50
1, 9364, Note_off_c, 9, 69, 76
1, 9383, Note_off_c, 1, 53, 99
1, 9404, Note_off_c, 0, 72, 108
1, 9404, Note_off_c, 0, 81, 104
1, 9405, Note_off_c, 0, 77, 104
1, 9407, Note_on_c, 9, 42, 92
1, 9407, Note_on_c, 9, 69, 104
1, 9407, Note_off_c, 6, 81, 111
1, 9408, Note_on_c, 9, 36, 124
1, 9408, Note_on_c, 9, 40, 124
1, 9408, Note_on_c, 1, 41, 120
1, 9408, Note_off_c, 9, 42, 100
1, 9408, Note_on_c, 2, 57, 119
1, 9408, Note_on_c, 2, 60, 123
1, 9408, Note_on_c, 12, 60, 114
1, 9408, Note_on_c, 9, 62, 124
1, 9408, Note_on_c, 2, 65, 122
1, 9408, Note_on_c, 12, 65, 114
1, 9408, Note_off_c, 9, 69, 68
1, 9408, Note_on_c, 0, 74, 113
1, 9408, Note_on_c, 0, 79, 113
1, 9408, Note_on_c, 0, 82, 116
1, 9408, Note_on_c, 6, 82, 117
1, 9409, Note_off_c, 9, 36, 96
1, 9409, Note_off_c, 9, 40, 96
1, 9409, Note_off_c, 9, 62, 108
1, 9449, Note_off_c, 0, 82, 99
1, 9451, Note_off_c, 0, 79, 94
1, 9453, Note_off_c, 0, 74, 76
1, 9455, Note_off_c, 6, 82, 104
1, 9456, Note_on_c, 0, 72, 113
1, 9456, Note_on_c, 0, 77, 114
1, 9456, Note_on_c, 0, 81, 113
1, 9456, Note_on_c, 6, 81, 113
1, 9459, Note_on_c, 9, 69, 50
1, 9460, Note_off_c, 9, 69, 68
1, 9477, Note_off_c, 2, 57, 106
1, 9477, Note_off_c, 1, 41, 108
1, 9480, Note_off_c, 2, 60, 111
1, 9480, Note_off_c, 2, 65, 110
1, 9496, Note_off_c, 0, 72, 108
1, 9496, Note_off_c, 0, 81, 108
1, 9500, Note_off_c, 12, 60, 110
1, 9502, Note_off_c, 0, 77, 110
1, 9503, Note_on_c, 9, 42, 124
1, 9503, Note_on_c, 9, 69, 96
1, 9503, Note_off_c, 6, 81, 111
1, 9504, Note_off_c, 12, 65, 104
1, 9504, Note_off_c, 9, 42, 92
1, 9504, Note_on_c, 1, 53, 113
1, 9504, Note_on_c, 12, 57, 111
1, 9504, Note_on_c, 12, 62, 113
1, 9504, Note_on_c, 9, 64, 116
1, 9504, Note_off_c, 9, 69, 68
1, 9504, Note_on_c, 0, 69, 113
1, 9504, Note_on_c, 0, 72, 114
1, 9504, Note_on_c, 0, 77, 113
1, 9504, Note_on_c, 6, 77, 119
1, 9505, Note_off_c, 9, 64, 96
1, 9526, Note_off_c, 1, 53, 108
1, 9544, Note_off_c, 0, 69, 106
1, 9547, Note_off_c, 0, 72, 108
1, 9547, Note_off_c, 0, 77, 111
1, 9551, Note_off_c, 6, 77, 113
1, 9552, Note_on_c, 1, 53, 113
1, 9552, Note_on_c, 9, 64, 108
1, 9552, Note_on_c, 0, 67, 111
1, 9552, Note_on_c, 0, 69, 110
1, 9552, Note_on_c, 0, 74, 114
1, 9552, Note_on_c, 6, 74, 117
1, 9553, Note_off_c, 9, 64, 104
1, 9555, Note_on_c, 9, 69, 50
1, 9556, Note_off_c, 9, 69, 68
1, 9574, Note_off_c, 1, 53, 104
1, 9593, Note_off_c, 0, 67, 110
1, 9597, Note_off_c, 0, 74, 108
1, 9598, Note_off_c, 0, 69, 104
1, 9599, Note_on_c, 9, 42, 84
1, 9599, Note_on_c, 9, 69, 104
1, 9599, Note_off_c, 6, 74, 108
1, 9600, Note_on_c, 9, 36, 124
1, 9600, Note_on_c, 1, 41, 122
1, 9600, Note_off_c, 9, 42, 96
1, 9600, Note_on_c, 2, 57, 113
1, 9600, Note_on_c, 2, 60, 122
1, 9600, Note_on_c, 12, 60, 111
1, 9600, Note_on_c, 9, 63, 124
1, 9600, Note_on_c, 2, 65, 120
1, 9600, Note_on_c, 12, 65, 113
1, 9600, Note_off_c, 9, 69, 84
1, 9600, Note_on_c, 0, 69, 119
1, 9600, Note_on_c, 0, 72, 119
1, 9600, Note_on_c, 0, 77, 120
1, 9600, Note_on_c, 6, 77, 120
1, 9601, Note_off_c, 12, 57, 108
1, 9601, Note_off_c, 9, 36, 108
1, 9601, Note_off_c, 9, 63, 96
1, 9606, Note_off_c, 12, 62, 108
1, 9651, Note_on_c, 9, 69, 50
1, 9652, Note_off_c, 9, 69, 84
1, 9670, Note_off_c, 1, 41, 106
1, 9695, Note_on_c, 9, 42, 124
1, 9695, Note_on_c, 9, 69, 100
1, 9696, Note_off_c, 9, 42, 100
1, 9696, Note_on_c, 1, 53, 110
1, 9696, Note_on_c, 9, 63, 124
1, 9696, Note_off_c, 9, 69, 92
1, 9697, Note_off_c, 9, 63, 100
1, 9699, Note_off_c, 2, 57, 71
1, 9717, Note_off_c, 1, 53, 108
1, 9724, Note_off_c, 2, 65, 66
1, 9744, Note_on_c, 1, 53, 108
1, 9747, Note_on_c, 9, 69, 50
1, 9748, Note_on_c, 2, 57, 102
1, 9748, Note_off_c, 9, 69, 92
1, 9754, Note_off_c, 2, 60, 66
1, 9772, Note_off_c, 1, 53, 108
1, 9786, Note_off_c, 12, 60, 108
1, 9791, Note_on_c, 9, 42, 100
1, 9791, Note_on_c, 9, 69, 100
1, 9792, Note_on_c, 9, 36, 124
1, 9792, Note_on_c, 9, 40, 124
1, 9792, Note_on_c, 1, 41, 120
1, 9792, Note_off_c, 9, 42, 100
1, 9792, Note_on_c, 12, 57, 108
1, 9792, Note_on_c, 2, 60, 122
1, 9792, Note_on_c, 12, 62, 113
1, 9792, Note_on_c, 9, 62, 124
1, 9792, Note_on_c, 2, 65, 120
1, 9792, Note_off_c, 9, 69, 92
1, 9793, Note_off_c, 12, 65, 97
1, 9793, Note_off_c, 9, 36, 112
1, 9793, Note_off_c, 9, 40, 108
1, 9793, Note_off_c, 9, 62, 104
1, 9816, Note_off_c, 2, 65, 108
1, 9831, Note_off_c, 2, 60, 108
1, 9841, Note_off_c, 2, 57, 102
1, 9843, Note_on_c, 9, 69, 50
1, 9844, Note_off_c, 9, 69, 92
1, 9858, Note_off_c, 1, 41, 106
1, 9886, Note_off_c, 12, 62, 108
1, 9887, Note_on_c, 9, 42, 124
1, 9887, Note_on_c, 9, 69, 100
1, 9888, Note_off_c, 9, 42, 100
1, 9888, Note_on_c, 12, 53, 108
1, 9888, Note_on_c, 1, 53, 113
1, 9888, Note_on_c, 12, 60, 114
1, 9888, Note_on_c, 9, 64, 112
1, 9888, Note_off_c, 9, 69, 92
1, 9889, Note_off_c, 9, 64, 104
1, 9908, Note_off_c, 1, 53, 111
1, 9936, Note_on_c, 1, 53, 114
1, 9936, Note_on_c, 9, 64, 108
1, 9937, Note_off_c, 9, 64, 112
1, 9939, Note_on_c, 9, 69, 50
1, 9940, Note_off_c, 9, 69, 92
1, 9963, Note_off_c, 1, 53, 108
1, 9983, Note_on_c, 9, 42, 92
1, 9983, Note_on_c, 9, 69, 96
1, 9984, Note_on_c, 9, 36, 124
1, 9984, Note_on_c, 1, 41, 120
1, 9984, Note_off_c, 9, 42, 100
1, 9984, Note_on_c, 2, 57, 108
1, 9984, Note_on_c, 2, 60, 119
1, 9984, Note_on_c, 9, 63, 120
1, 9984, Note_on_c, 2, 65, 117
1, 9984, Note_off_c, 9, 69, 80
1, 9985, Note_off_c, 9, 36, 76
1, 9985, Note_off_c, 9, 63, 92
1, 10011, Note_off_c, 2, 57, 104
1, 10013, Note_off_c, 2, 60, 111
1, 10016, Note_off_c, 2, 65, 110
1, 10035, Note_on_c, 9, 69, 50
1, 10036, Note_off_c, 9, 69, 80
1, 10059, Note_off_c, 0, 77, 111
1, 10069, Note_off_c, 1, 41, 99
1, 10075, Note_off_c, 0, 69, 110
1, 10079, Note_on_c, 9, 42, 124
1, 10079, Note_on_c, 9, 69, 88
1, 10079, Note_off_c, 6, 77, 111
1, 10080, Note_off_c, 9, 42, 100
1, 10080, Note_on_c, 1, 53, 114
1, 10080, Note_on_c, 2, 57, 113
1, 10080, Note_on_c, 2, 60, 120
1, 10080, Note_on_c, 9, 63, 116
1, 10080, Note_on_c, 2, 65, 117
1, 10080, Note_off_c, 9, 69, 76
1, 10080, Note_on_c, 0, 70, 110
1, 10080, Note_on_c, 0, 74, 113
1, 10080, Note_on_c, 0, 79, 114
1, 10080, Note_on_c, 6, 79, 116
1, 10081, Note_off_c, 9, 63, 84
1, 10082, Note_off_c, 0, 72, 110
1, 10103, Note_off_c, 2, 60, 108
1, 10106, Note_off_c, 2, 57, 106
1, 10106, Note_off_c, 1, 53, 108
1, 10109, Note_off_c, 2, 65, 102
1, 10122, Note_off_c, 0, 79, 108
1, 10124, Note_off_c, 0, 70, 104
1, 10127, Note_off_c, 0, 74, 108
1, 10127, Note_off_c, 6, 79, 108
1, 10128, Note_on_c, 1, 53, 108
1, 10128, Note_on_c, 0, 69, 110
1, 10128, Note_on_c, 0, 72, 108
1, 10128, Note_on_c, 0, 77, 114
1, 10128, Note_on_c, 6, 77, 116
1, 10131, Note_on_c, 9, 69, 50
1, 10132, Note_off_c, 9, 69, 76
1, 10157, Note_off_c, 1, 53, 108
1, 10168, Note_off_c, 0, 77, 110
1, 10169, Note_off_c, 0, 72, 108
1, 10175, Note_off_c, 11, 41, 104
1, 10175, Note_on_c, 9, 42, 100
1, 10175, Note_off_c, 0, 69, 102
1, 10175, Note_on_c, 9, 69, 104
1, 10175, Note_off_c, 6, 77, 111
1, 10176, Note_on_c, 9, 36, 124
1, 10176, Note_on_c, 9, 40, 124
1, 10176, Note_off_c, 9, 42, 100
1, 10176, Note_on_c, 11, 43, 119
1, 10176, Note_on_c, 1, 43, 119
1, 10176, Note_on_c, 2, 57, 116
1, 10176, Note_on_c, 2, 60, 122
1, 10176, Note_on_c, 9, 62, 124
1, 10176, Note_on_c, 2, 65, 120
1, 10176, Note_off_c, 9, 69, 68
1, 10176, Note_on_c, 0, 70, 111
1, 10176, Note_on_c, 0, 74, 113
1, 10176, Note_on_c, 0, 79, 111
1, 10176, Note_on_c, 6, 79, 116
1, 10177, Note_off_c, 9, 36, 96
1, 10177, Note_off_c, 9, 40, 96
1, 10177, Note_off_c, 9, 62, 108
1, 10218, Note_off_c, 0, 79, 102
1, 10222, Note_off_c, 0, 70, 99
1, 10223, Note_off_c, 0, 74, 97
1, 10223, Note_off_c, 6, 79, 108
1, 10224, Note_on_c, 0, 69, 108
1, 10224, Note_on_c, 0, 72, 114
1, 10224, Note_on_c, 0, 77, 116
1, 10224, Note_on_c, 6, 77, 111
1, 10227, Note_on_c, 9, 69, 50
1, 10228, Note_off_c, 9, 69, 68
1, 10246, Note_off_c, 1, 43, 104
1, 10249, Note_off_c, 2, 65, 110
1, 10252, Note_off_c, 2, 60, 97
1, 10258, Note_off_c, 2, 57, 104
1, 10266, Note_off_c, 0, 69, 108
1, 10270, Note_off_c, 0, 72, 111
1, 10271, Note_on_c, 9, 42, 124
1, 10271, Note_on_c, 9, 69, 96
1, 10271, Note_off_c, 0, 77, 113
1, 10271, Note_off_c, 6, 77, 108
1, 10272, Note_off_c, 9, 42, 104
1, 10272, Note_on_c, 1, 55, 113
1, 10272, Note_on_c, 9, 64, 116
1, 10272, Note_on_c, 0, 65, 114
1, 10272, Note_off_c, 9, 69, 68
1, 10272, Note_on_c, 0, 69, 116
1, 10272, Note_on_c, 0, 74, 114
1, 10272, Note_on_c, 6, 74, 116
1, 10273, Note_off_c, 9, 64, 96
1, 10292, Note_off_c, 1, 55, 111
1, 10313, Note_off_c, 0, 74, 108
1, 10317, Note_off_c, 0, 65, 110
1, 10317, Note_off_c, 0, 69, 108
1, 10319, Note_off_c, 6, 74, 106
1, 10320, Note_on_c, 1, 55, 108
1, 10320, Note_on_c, 0, 62, 117
1, 10320, Note_on_c, 9, 64, 108
1, 10320, Note_on_c, 0, 67, 113
1, 10320, Note_on_c, 0, 72, 110
1, 10320, Note_on_c, 6, 72, 116
1, 10321, Note_off_c, 9, 64, 104
1, 10323, Note_on_c, 9, 69, 50
1, 10324, Note_off_c, 9, 69, 68
1, 10347, Note_off_c, 1, 55, 110
1, 10363, Note_off_c, 0, 72, 110
1, 10365, Note_off_c, 11, 43, 102
1, 10366, Note_off_c, 0, 62, 110
1, 10366, Note_off_c, 0, 67, 110
1, 10367, Note_on_c, 9, 42, 92
1, 10367, Note_on_c, 9, 69, 104
1, 10367, Note_off_c, 6, 72, 110
1, 10368, Note_on_c, 9, 36, 124
1, 10368, Note_off_c, 9, 42, 100
1, 10368, Note_on_c, 11, 45, 116
1, 10368, Note_on_c, 1, 45, 122
1, 10368, Note_on_c, 2, 57, 117
1, 10368, Note_on_c, 2, 60, 122
1, 10368, Note_on_c, 9, 63, 124
1, 10368, Note_on_c, 0, 65, 120
1, 10368, Note_on_c, 2, 65, 122
1, 10368, Note_off_c, 9, 69, 84
1, 10368, Note_on_c, 0, 69, 120
1, 10368, Note_on_c, 0, 74, 116
1, 10368, Note_on_c, 6, 74, 117
1, 10369, Note_off_c, 9, 36, 108
1, 10369, Note_off_c, 9, 63, 96
1, 10419, Note_on_c, 9, 69, 50
1, 10420, Note_off_c, 9, 69, 84
1, 10439, Note_off_c, 1, 45, 108
1, 10463, Note_on_c, 9, 42, 124
1, 10463, Note_on_c, 9, 69, 100
1, 10464, Note_off_c, 9, 42, 108
1, 10464, Note_on_c, 1, 57, 116
1, 10464, Note_on_c, 9, 63, 124
1, 10464, Note_off_c, 9, 69, 92
1, 10465, Note_off_c, 9, 63, 100
1, 10468, Note_off_c, 2, 57, 84
1, 10491, Note_off_c, 1, 57, 106
1, 10494, Note_off_c, 2, 65, 71
1, 10512, Note_on_c, 1, 57, 106
1, 10515, Note_on_c, 9, 69, 50
1, 10516, Note_on_c, 2, 57, 97
1, 10516, Note_off_c, 9, 69, 92
1, 10530, Note_off_c, 2, 60, 13
1, 10538, Note_off_c, 1, 57, 106
1, 10543, Note_off_c, 2, 57, 97
1, 10558, Note_off_c, 11, 45, 108
1, 10559, Note_on_c, 9, 42, 96
1, 10559, Note_on_c, 9, 69, 100
1, 10560, Note_on_c, 9, 36, 124
1, 10560, Note_on_c, 9, 40, 124
1, 10560, Note_on_c, 11, 41, 122
1, 10560, Note_on_c, 1, 41, 120
1, 10560, Note_off_c, 9, 42, 100
1, 10560, Note_on_c, 2, 57, 113
1, 10560, Note_on_c, 2, 60, 117
1, 10560, Note_on_c, 9, 62, 124
1, 10560, Note_on_c, 2, 65, 120
1, 10560, Note_off_c, 9, 69, 92
1, 10561, Note_off_c, 9, 36, 112
1, 10561, Note_off_c, 9, 40, 108
1, 10561, Note_off_c, 9, 62, 104
1, 10576, Note_off_c, 12, 60, 111
1, 10579, Note_off_c, 2, 65, 108
1, 10580, Note_off_c, 2, 60, 110
1, 10586, Note_off_c, 12, 57, 108
1, 10589, Note_off_c, 12, 53, 106
1, 10593, Note_off_c, 2, 57, 104
1, 10611, Note_on_c, 9, 69, 50
1, 10612, Note_off_c, 9, 69, 92
1, 10634, Pitch_bend_c, 12, 8064
1, 10641, Pitch_bend_c, 12, 7680
1, 10643, Note_off_c, 1, 41, 111
1, 10648, Pitch_bend_c, 12, 4864
1, 10655, Note_on_c, 9, 46, 121
1, 10655, Note_on_c, 9, 69, 100
1, 10656, Note_off_c, 9, 46, 100
1, 10656, Note_on_c, 12, 62, 119
1, 10656, Note_off_c, 9, 69, 92
1, 10656, Pitch_bend_c, 12, 2048
1, 10656, Note_on_c, 1, 53, 111
1, 10656, Note_on_c, 9, 64, 112
1, 10656, Note_on_c, 12, 67, 116
1, 10657, Note_off_c, 9, 64, 104
1, 10664, Pitch_bend_c, 12, 1024
1, 10671, Pitch_bend_c, 12, 1408
1, 10677, Note_off_c, 1, 53, 113
1, 10678, Pitch_bend_c, 12, 6016
1, 10685, Pitch_bend_c, 12, 7424
1, 10693, Pitch_bend_c, 12, 7936
1, 10702, Pitch_bend_c, 12, 8192
1, 10704, Note_on_c, 1, 53, 111
1, 10704, Note_on_c, 9, 64, 108
1, 10705, Note_off_c, 9, 64, 112
1, 10707, Note_on_c, 9, 69, 50
1, 10708, Note_off_c, 9, 69, 92
1, 10731, Note_off_c, 1, 53, 110
1, 10750, Note_off_c, 11, 41, 111
1, 10751, Note_on_c, 9, 42, 92
1, 10751, Note_on_c, 9, 69, 96
1, 10752, Note_on_c, 9, 36, 124
1, 10752, Note_on_c, 1, 38, 114
1, 10752, Note_off_c, 9, 42, 100
1, 10752, Note_on_c, 11, 50, 119
1, 10752, Note_on_c, 2, 57, 122
1, 10752, Note_on_c, 2, 62, 124
1, 10752, Note_on_c, 9, 63, 120
1, 10752, Note_on_c, 2, 65, 123
1, 10752, Note_off_c, 9, 69, 80
1, 10753, Note_off_c, 9, 36, 76
1, 10753, Note_off_c, 9, 63, 92
1, 10787, Note_off_c, 2, 57, 84
1, 10787, Note_off_c, 2, 62, 111
1, 10803, Note_off_c, 2, 65, 108
1, 10803, Note_on_c, 9, 69, 50
1, 10804, Note_off_c, 9, 69, 80
1, 10825, Note_off_c, 1, 38, 102
1, 10835, Note_off_c, 0, 74, 108
1, 10838, Note_off_c, 0, 65, 111
1, 10840, Note_off_c, 12, 62, 110
1, 10842, Note_off_c, 12, 67, 108
1, 10847, Note_on_c, 9, 42, 124
1, 10847, Note_on_c, 9, 69, 88
1, 10848, Note_off_c, 9, 42, 96
1, 10848, Note_on_c, 1, 50, 116
1, 10848, Note_on_c, 2, 57, 113
1, 10848, Note_on_c, 12, 60, 113
1, 10848, Note_on_c, 2, 62, 117
1, 10848, Note_on_c, 9, 63, 116
1, 10848, Note_on_c, 12, 65, 91
1, 10848, Note_off_c, 9, 69, 76
1, 10849, Note_off_c, 9, 63, 84
1, 10850, Note_off_c, 0, 69, 111
1, 10863, Note_off_c, 2, 62, 119
1, 10866, Note_off_c, 12, 65, 104
1, 10869, Note_off_c, 12, 60, 104
1, 10874, Note_off_c, 1, 50, 108
1, 10875, Note_off_c, 2, 57, 104
1, 10896, Note_on_c, 1, 50, 103
1, 10899, Note_on_c, 9, 69, 50
1, 10900, Note_off_c, 9, 69, 76
1, 10924, Note_off_c, 1, 50, 111
1, 10943, Note_on_c, 9, 42, 100
1, 10943, Note_on_c, 9, 69, 104
1, 10943, Note_off_c, 6, 74, 84
1, 10944, Note_on_c, 9, 36, 124
1, 10944, Note_on_c, 1, 38, 117
1, 10944, Note_on_c, 9, 40, 124
1, 10944, Note_off_c, 9, 42, 100
1, 10944, Note_on_c, 2, 57, 122
1, 10944, Note_on_c, 12, 60, 114
1, 10944, Note_on_c, 2, 62, 124
1, 10944, Note_on_c, 9, 62, 124
1, 10944, Note_on_c, 0, 65, 119
1, 10944, Note_on_c, 2, 65, 124
1, 10944, Note_on_c, 12, 65, 119
1, 10944, Note_off_c, 9, 69, 68
1, 10944, Note_on_c, 0, 69, 124
1, 10944, Note_on_c, 0, 74, 120
1, 10944, Note_on_c, 6, 74, 117
1, 10945, Note_off_c, 9, 36, 96
1, 10945, Note_off_c, 9, 40, 96
1, 10945, Note_off_c, 9, 62, 108
1, 10974, Note_off_c, 2, 57, 108
1, 10976, Note_off_c, 2, 62, 111
1, 10989, Note_off_c, 2, 65, 108
1, 10995, Note_on_c, 9, 69, 50
1, 10996, Note_off_c, 9, 69, 68
1, 11015, Note_off_c, 1, 38, 99
1, 11019, Note_off_c, 12, 60, 110
1, 11039, Note_on_c, 9, 42, 124
1, 11039, Note_on_c, 9, 69, 96
1, 11040, Note_off_c, 12, 65, 108
1, 11040, Note_off_c, 9, 42, 100
1, 11040, Note_on_c, 1, 50, 114
1, 11040, Note_on_c, 12, 57, 106
1, 11040, Note_on_c, 12, 62, 111
1, 11040, Note_on_c, 9, 64, 116
1, 11040, Note_off_c, 9, 69, 68
1, 11041, Note_off_c, 9, 64, 96
1, 11060, Note_off_c, 1, 50, 110
1, 11088, Note_on_c, 1, 50, 117
1, 11088, Note_on_c, 9, 64, 108
1, 11089, Note_off_c, 9, 64, 104
1, 11091, Note_on_c, 9, 69, 50
1, 11092, Note_off_c, 9, 69, 68
1, 11115, Note_off_c, 1, 50, 110
1, 11125, Note_off_c, 0, 69, 106
1, 11132, Note_off_c, 0, 74, 108
1, 11135, Note_on_c, 9, 42, 84
1, 11135, Note_off_c, 0, 65, 110
1, 11135, Note_on_c, 9, 69, 104
1, 11135, Note_off_c, 6, 74, 108
1, 11136, Note_on_c, 9, 36, 124
1, 11136, Note_on_c, 1, 38, 120
1, 11136, Note_off_c, 12, 57, 110
1, 11136, Note_off_c, 9, 42, 96
1, 11136, Note_on_c, 2, 57, 122
1, 11136, Note_on_c, 12, 60, 113
1, 11136, Note_on_c, 2, 62, 124
1, 11136, Note_on_c, 9, 63, 124
1, 11136, Note_on_c, 2, 65, 124
1, 11136, Note_on_c, 12, 65, 113
1, 11136, Note_off_c, 9, 69, 84
1, 11136, Note_on_c, 0, 69, 120
1, 11136, Note_on_c, 0, 74, 120
1, 11136, Note_on_c, 0, 77, 120
1, 11136, Note_on_c, 6, 77, 122
1, 11137, Note_off_c, 9, 36, 108
1, 11137, Note_off_c, 9, 63, 96
1, 11155, Note_off_c, 12, 62, 108
1, 11167, Note_off_c, 2, 57, 108
1, 11169, Note_off_c, 2, 62, 111
1, 11187, Note_on_c, 9, 69, 50
1, 11188, Note_off_c, 9, 69, 84
1, 11203, Note_off_c, 1, 38, 102
1, 11213, Note_off_c, 2, 65, 13
1, 11231, Note_on_c, 9, 42, 124
1, 11231, Note_on_c, 9, 69, 100
1, 11232, Note_off_c, 9, 42, 100
1, 11232, Note_on_c, 1, 50, 114
1, 11232, Note_on_c, 9, 63, 124
1, 11232, Note_off_c, 9, 69, 92
1, 11233, Note_off_c, 9, 63, 100
1, 11253, Note_off_c, 1, 50, 106
1, 11280, Note_on_c, 1, 50, 117
1, 11283, Note_on_c, 9, 69, 50
1, 11284, Note_on_c, 2, 57, 99
1, 11284, Note_off_c, 9, 69, 92
1, 11299, Note_off_c, 1, 50, 102
1, 11310, Note_off_c, 2, 57, 102
1, 11325, Note_off_c, 0, 69, 106
1, 11325, Note_off_c, 0, 77, 111
1, 11326, Note_off_c, 0, 74, 102
1, 11327, Note_on_c, 9, 42, 104
1, 11327, Note_off_c, 12, 65, 104
1, 11327, Note_on_c, 9, 69, 100
1, 11327, Note_off_c, 6, 77, 106
1, 11328, Note_on_c, 9, 36, 124
1, 11328, Note_on_c, 1, 38, 119
1, 11328, Note_on_c, 9, 40, 124
1, 11328, Note_off_c, 9, 42, 100
1, 11328, Note_on_c, 2, 57, 117
1, 11328, Note_on_c, 12, 57, 113
1, 11328, Note_on_c, 2, 62, 124
1, 11328, Note_on_c, 12, 62, 113
1, 11328, Note_on_c, 9, 62, 124
1, 11328, Note_on_c, 2, 65, 122
1, 11328, Note_off_c, 9, 69, 92
1, 11328, Note_on_c, 0, 74, 116
1, 11328, Note_on_c, 0, 77, 122
1, 11328, Note_on_c, 0, 81, 120
1, 11328, Note_on_c, 6, 81, 119
1, 11329, Note_off_c, 9, 36, 112
1, 11329, Note_off_c, 9, 40, 108
1, 11329, Note_off_c, 9, 62, 104
1, 11333, Note_off_c, 12, 60, 104
1, 11356, Note_off_c, 2, 57, 110
1, 11356, Note_off_c, 2, 62, 111
1, 11379, Note_on_c, 9, 69, 50
1, 11380, Note_off_c, 9, 69, 92
1, 11384, Note_off_c, 2, 65, 91
1, 11392, Note_off_c, 12, 62, 108
1, 11398, Note_off_c, 1, 38, 102
1, 11401, Note_off_c, 12, 57, 108
1, 11405, Pitch_bend_c, 12, 5760
1, 11412, Pitch_bend_c, 12, 2944
1, 11420, Pitch_bend_c, 12, 1280
1, 11423, Note_on_c, 9, 42, 124
1, 11423, Note_on_c, 9, 69, 100
1, 11424, Note_off_c, 9, 42, 100
1, 11424, Note_on_c, 1, 50, 116
1, 11424, Note_on_c, 12, 62, 117
1, 11424, Note_on_c, 9, 64, 112
1, 11424, Note_on_c, 12, 67, 116
1, 11424, Note_off_c, 9, 69, 92
1, 11425, Note_off_c, 9, 64, 104
1, 11428, Pitch_bend_c, 12, 2432
1, 11435, Pitch_bend_c, 12, 6400
1, 11443, Pitch_bend_c, 12, 7424
1, 11444, Note_off_c, 1, 50, 108
1, 11451, Pitch_bend_c, 12, 7808
1, 11458, Pitch_bend_c, 12, 8192
1, 11472, Note_on_c, 1, 50, 113
1, 11472, Note_on_c, 9, 64, 108
1, 11473, Note_off_c, 9, 64, 112
1, 11475, Note_on_c, 9, 69, 50
1, 11476, Note_off_c, 9, 69, 92
1, 11498, Note_off_c, 1, 50, 108
1, 11514, Note_off_c, 0, 77, 111
1, 11514, Note_off_c, 0, 81, 110
1, 11519, Note_on_c, 9, 42, 104
1, 11519, Note_on_c, 9, 69, 96
1, 11519, Note_off_c, 0, 74, 110
1, 11519, Note_off_c, 6, 81, 111
1, 11520, Note_on_c, 9, 36, 124
1, 11520, Note_on_c, 1, 38, 117
1, 11520, Note_off_c, 9, 42, 100
1, 11520, Note_on_c, 2, 57, 122
1, 11520, Note_on_c, 2, 62, 124
1, 11520, Note_on_c, 9, 63, 120
1, 11520, Note_on_c, 2, 65, 124
1, 11520, Note_off_c, 9, 69, 80
1, 11520, Note_on_c, 0, 77, 119
1, 11520, Note_on_c, 0, 81, 122
1, 11520, Note_on_c, 0, 84, 122
1, 11520, Note_on_c, 6, 84, 120
1, 11521, Note_off_c, 9, 36, 76
1, 11521, Note_off_c, 9, 63, 92
1, 11550, Note_off_c, 2, 62, 111
1, 11552, Note_off_c, 2, 57, 110
1, 11554, Note_off_c, 2, 65, 110
1, 11571, Note_on_c, 9, 69, 50
1, 11572, Note_off_c, 9, 69, 80
1, 11588, Note_off_c, 1, 38, 97
1, 11615, Note_on_c, 9, 42, 124
1, 11615, Note_off_c, 12, 62, 110
1, 11615, Note_off_c, 12, 67, 108
1, 11615, Note_on_c, 9, 69, 88
1, 11616, Note_off_c, 9, 42, 100
1, 11616, Note_on_c, 1, 50, 116
1, 11616, Note_on_c, 2, 57, 111
1, 11616, Note_on_c, 12, 60, 111
1, 11616, Note_on_c, 2, 62, 119
1, 11616, Note_on_c, 9, 63, 116
1, 11616, Note_on_c, 2, 65, 117
1, 11616, Note_on_c, 12, 65, 113
1, 11616, Note_off_c, 9, 69, 76
1, 11617, Note_off_c, 9, 63, 84
1, 11639, Note_off_c, 12, 60, 104
1, 11639, Note_off_c, 1, 50, 106
1, 11641, Note_off_c, 2, 57, 102
1, 11643, Note_off_c, 2, 62, 113
1, 11647, Note_off_c, 2, 65, 108
1, 11649, Note_off_c, 12, 65, 108
1, 11664, Note_on_c, 1, 50, 111
1, 11667, Note_on_c, 9, 69, 50
1, 11668, Note_off_c, 9, 69, 76
1, 11689, Note_off_c, 1, 50, 94
1, 11711, Note_on_c, 9, 42, 108
1, 11711, Note_on_c, 9, 69, 104
1, 11712, Note_on_c, 9, 36, 124
1, 11712, Note_on_c, 1, 38, 122
1, 11712, Note_on_c, 9, 40, 124
1, 11712, Note_off_c, 9, 42, 100
1, 11712, Note_on_c, 2, 57, 119
1, 11712, Note_on_c, 12, 60, 114
1, 11712, Note_on_c, 2, 62, 124
1, 11712, Note_on_c, 9, 62, 124
1, 11712, Note_on_c, 2, 65, 124
1, 11712, Note_on_c, 12, 65, 114
1, 11712, Note_off_c, 9, 69, 68
1, 11713, Note_off_c, 9, 36, 96
1, 11713, Note_off_c, 9, 40, 96
1, 11713, Note_off_c, 9, 62, 108
1, 11742, Note_off_c, 2, 57, 108
1, 11742, Note_off_c, 2, 62, 113
1, 11750, Note_off_c, 2, 65, 111
1, 11763, Note_on_c, 9, 69, 50
1, 11764, Note_off_c, 9, 69, 68
1, 11780, Note_off_c, 1, 38, 104
1, 11792, Note_off_c, 12, 60, 106
1, 11807, Note_on_c, 9, 42, 124
1, 11807, Note_on_c, 9, 69, 96
1, 11808, Note_off_c, 9, 42, 100
1, 11808, Note_on_c, 1, 50, 113
1, 11808, Note_on_c, 12, 57, 110
1, 11808, Note_on_c, 12, 62, 110
1, 11808, Note_on_c, 9, 64, 116
1, 11808, Note_off_c, 9, 69, 68
1, 11809, Note_off_c, 9, 64, 96
1, 11811, Note_off_c, 12, 65, 108
1, 11828, Note_off_c, 1, 50, 110
1, 11856, Note_on_c, 1, 50, 114
1, 11856, Note_on_c, 9, 64, 108
1, 11857, Note_off_c, 9, 64, 104
1, 11859, Note_on_c, 9, 69, 50
1, 11860, Note_off_c, 9, 69, 68
1, 11881, Note_off_c, 1, 50, 104
1, 11899, Note_off_c, 0, 77, 110
1, 11901, Note_off_c, 0, 81, 110
1, 11902, Note_off_c, 0, 84, 104
1, 11903, Note_on_c, 9, 42, 104
1, 11903, Note_on_c, 9, 69, 104
1, 11903, Note_off_c, 6, 84, 106
1, 11904, Note_on_c, 9, 36, 124
1, 11904, Note_on_c, 1, 38, 120
1, 11904, Note_off_c, 9, 42, 100
1, 11904, Note_on_c, 2, 57, 120
1, 11904, Note_on_c, 12, 60, 110
1, 11904, Note_on_c, 2, 62, 123
1, 11904, Note_on_c, 9, 63, 124
1, 11904, Note_on_c, 2, 65, 122
1, 11904, Note_on_c, 12, 65, 113
1, 11904, Note_off_c, 9, 69, 84
1, 11904, Note_on_c, 0, 74, 117
1, 11904, Note_on_c, 0, 77, 122
1, 11904, Note_on_c, 0, 81, 120
1, 11904, Note_on_c, 6, 81, 120
1, 11905, Note_off_c, 9, 36, 108
1, 11905, Note_off_c, 9, 63, 96
1, 11912, Note_off_c, 12, 57, 108
1, 11917, Note_off_c, 12, 62, 106
1, 11929, Note_off_c, 2, 62, 113
1, 11933, Note_off_c, 2, 57, 108
1, 11933, Note_off_c, 2, 65, 111
1, 11955, Note_on_c, 9, 69, 50
1, 11956, Note_off_c, 9, 69, 84
1, 11973, Note_off_c, 1, 38, 104
1, 11999, Note_on_c, 9, 42, 124
1, 11999, Note_on_c, 9, 69, 100
1, 12000, Note_off_c, 9, 42, 104
1, 12000, Note_on_c, 1, 50, 117
1, 12000, Note_on_c, 2, 57, 113
1, 12000, Note_on_c, 2, 62, 122
1, 12000, Note_on_c, 9, 63, 124
1, 12000, Note_on_c, 2, 65, 122
1, 12000, Note_off_c, 9, 69, 92
1, 12001, Note_off_c, 9, 63, 100
1, 12024, Note_off_c, 2, 57, 102
1, 12028, Note_off_c, 1, 50, 108
1, 12048, Note_on_c, 1, 50, 99
1, 12051, Note_on_c, 9, 69, 50
1, 12052, Note_on_c, 2, 57, 97
1, 12052, Note_off_c, 9, 69, 92
1, 12066, Note_off_c, 2, 65, 104
1, 12073, Note_off_c, 1, 50, 108
1, 12075, Note_off_c, 2, 62, 108
1, 12084, Note_off_c, 12, 65, 104
1, 12094, Note_off_c, 12, 60, 104
1, 12095, Note_on_c, 9, 42, 96
1, 12095, Note_on_c, 9, 69, 100
1, 12096, Note_on_c, 9, 36, 124
1, 12096, Note_on_c, 1, 38, 122
1, 12096, Note_on_c, 9, 40, 124
1, 12096, Note_off_c, 9, 42, 100
1, 12096, Note_on_c, 12, 57, 111
1, 12096, Note_on_c, 2, 62, 114
1, 12096, Note_on_c, 12, 62, 113
1, 12096, Note_on_c, 9, 62, 124
1, 12096, Note_on_c, 2, 65, 123
1, 12096, Note_off_c, 9, 69, 92
1, 12097, Note_off_c, 9, 36, 112
1, 12097, Note_off_c, 9, 40, 108
1, 12097, Note_off_c, 9, 62, 104
1, 12125, Note_off_c, 2, 57, 108
1, 12131, Note_off_c, 2, 62, 113
1, 12134, Note_off_c, 2, 65, 111
1, 12147, Note_on_c, 9, 69, 50
1, 12148, Note_off_c, 9, 69, 92
1, 12164, Note_off_c, 12, 57, 106
1, 12171, Note_off_c, 12, 62, 104
1, 12171, Note_off_c, 1, 38, 102
1, 12175, Pitch_bend_c, 12, 7168
1, 12184, Pitch_bend_c, 12, 4864
1, 12191, Pitch_bend_c, 12, 2304
1, 12191, Note_on_c, 9, 42, 124
1, 12191, Note_on_c, 9, 69, 100
1, 12192, Note_off_c, 9, 42, 104
1, 12192, Note_on_c, 1, 50, 114
1, 12192, Note_on_c, 12, 62, 117
1, 12192, Note_on_c, 9, 64, 112
1, 12192, Note_on_c, 12, 67, 114
1, 12192, Note_off_c, 9, 69, 92
1, 12193, Note_off_c, 9, 64, 104
1, 12198, Pitch_bend_c, 12, 896
1, 12205, Pitch_bend_c, 12, 5120
1, 12210, Note_off_c, 1, 50, 111
1, 12212, Pitch_bend_c, 12, 6912
1, 12219, Pitch_bend_c, 12, 7552
1, 12227, Pitch_bend_c, 12, 7936
1, 12235, Pitch_bend_c, 12, 8192
1, 12240, Note_on_c, 1, 50, 108
1, 12240, Note_on_c, 9, 64, 108
1, 12241, Note_off_c, 9, 64, 112
1, 12243, Note_on_c, 9, 69, 50
1, 12244, Note_off_c, 9, 69, 92
1, 12266, Note_off_c, 1, 50, 108
1, 12286, Note_off_c, 11, 50, 108
1, 12287, Note_on_c, 9, 42, 100
1, 12287, Note_on_c, 9, 69, 96
1, 12288, Note_on_c, 9, 36, 124
1, 12288, Note_on_c, 11, 41, 124
1, 12288, Note_on_c, 1, 41, 117
1, 12288, Note_off_c, 9, 42, 92
1, 12288, Note_on_c, 2, 57, 114
1, 12288, Note_on_c, 2, 60, 119
1, 12288, Note_on_c, 9, 63, 120
1, 12288, Note_on_c, 2, 65, 117
1, 12288, Note_off_c, 9, 69, 80
1, 12289, Note_off_c, 9, 36, 76
1, 12289, Note_off_c, 9, 63, 92
1, 12304, Note_off_c, 2, 60, 111
1, 12306, Note_off_c, 0, 74, 108
1, 12312, Note_off_c, 2, 57, 104
1, 12315, Note_off_c, 2, 65, 108
1, 12318, Note_off_c, 0, 81, 110
1, 12339, Note_on_c, 9, 69, 50
1, 12340, Note_off_c, 9, 69, 80
1, 12362, Note_off_c, 0, 77, 110
1, 12365, Note_off_c, 1, 41, 106
1, 12383, Note_on_c, 9, 42, 120
1, 12383, Note_on_c, 9, 69, 88
1, 12383, Note_off_c, 6, 81, 108
1, 12384, Note_off_c, 12, 67, 108
1, 12384, Note_off_c, 9, 42, 92
1, 12384, Note_on_c, 1, 53, 119
1, 12384, Note_on_c, 2, 57, 116
1, 12384, Note_on_c, 2, 60, 116
1, 12384, Note_on_c, 12, 60, 114
1, 12384, Note_on_c, 9, 63, 116
1, 12384, Note_on_c, 2, 65, 110
1, 12384, Note_on_c, 12, 65, 113
1, 12384, Note_off_c, 9, 69, 76
1, 12384, Note_on_c, 0, 74, 114
1, 12384, Note_on_c, 0, 79, 114
1, 12384, Note_on_c, 0, 82, 114
1, 12384, Note_on_c, 6, 82, 117
1, 12385, Note_off_c, 12, 62, 111
1, 12385, Note_off_c, 9, 63, 84
1, 12398, Note_off_c, 2, 60, 116
1, 12407, Note_off_c, 2, 65, 108
1, 12411, Note_off_c, 2, 57, 104
1, 12413, Note_off_c, 1, 53, 111
1, 12414, Note_off_c, 12, 60, 111
1, 12415, Note_off_c, 12, 65, 99
1, 12424, Note_off_c, 0, 74, 104
1, 12425, Note_off_c, 0, 82, 106
1, 12427, Note_off_c, 0, 79, 106
1, 12431, Note_off_c, 6, 82, 106
1, 12432, Note_on_c, 1, 53, 101
1, 12432, Note_on_c, 0, 72, 113
1, 12432, Note_on_c, 0, 77, 114
1, 12432, Note_on_c, 0, 81, 111
1, 12432, Note_on_c, 6, 81, 117
1, 12435, Note_on_c, 9, 69, 50
1, 12436, Note_off_c, 9, 69, 76
1, 12462, Note_off_c, 1, 53, 111
1, 12474, Note_off_c, 0, 72, 108
1, 12476, Note_off_c, 0, 81, 104
1, 12477, Note_off_c, 0, 77, 104
1, 12479, Note_on_c, 9, 42, 124
1, 12479, Note_on_c, 9, 69, 104
1, 12479, Note_off_c, 6, 81, 111
1, 12480, Note_on_c, 9, 36, 124
1, 12480, Note_on_c, 9, 40, 124
1, 12480, Note_on_c, 1, 41, 122
1, 12480, Note_off_c, 9, 42, 96
1, 12480, Note_on_c, 2, 57, 119
1, 12480, Note_on_c, 2, 60, 123
1, 12480, Note_on_c, 12, 60, 111
1, 12480, Note_on_c, 9, 62, 124
1, 12480, Note_on_c, 2, 65, 122
1, 12480, Note_on_c, 12, 65, 117
1, 12480, Note_off_c, 9, 69, 68
1, 12480, Note_on_c, 0, 74, 113
1, 12480, Note_on_c, 0, 79, 113
1, 12480, Note_on_c, 0, 82, 116
1, 12480, Note_on_c, 6, 82, 117
1, 12481, Note_off_c, 9, 36, 96
1, 12481, Note_off_c, 9, 40, 96
1, 12481, Note_off_c, 9, 62, 108
1, 12521, Note_off_c, 0, 82, 99
1, 12523, Note_off_c, 0, 79, 94
1, 12525, Note_off_c, 0, 74, 76
1, 12527, Note_off_c, 6, 82, 99
1, 12528, Note_on_c, 0, 72, 113
1, 12528, Note_on_c, 0, 77, 114
1, 12528, Note_on_c, 0, 81, 113
1, 12528, Note_on_c, 6, 81, 114
1, 12531, Note_on_c, 9, 69, 50
1, 12532, Note_off_c, 9, 69, 68
1, 12549, Note_off_c, 2, 57, 106
1, 12552, Note_off_c, 2, 60, 111
1, 12552, Note_off_c, 2, 65, 110
1, 12556, Note_off_c, 1, 41, 110
1, 12566, Note_off_c, 12, 60, 106
1, 12568, Note_off_c, 0, 72, 108
1, 12568, Note_off_c, 0, 81, 108
1, 12574, Note_off_c, 0, 77, 110
1, 12575, Note_on_c, 9, 42, 124
1, 12575, Note_on_c, 9, 69, 96
1, 12575, Note_off_c, 6, 81, 111
1, 12576, Note_off_c, 9, 42, 100
1, 12576, Note_on_c, 1, 53, 114
1, 12576, Note_on_c, 12, 57, 108
1, 12576, Note_on_c, 12, 62, 111
1, 12576, Note_on_c, 9, 64, 116
1, 12576, Note_off_c, 9, 69, 68
1, 12576, Note_on_c, 0, 69, 113
1, 12576, Note_on_c, 0, 72, 114
1, 12576, Note_on_c, 0, 77, 113
1, 12576, Note_on_c, 6, 77, 116
1, 12577, Note_off_c, 9, 64, 96
1, 12585, Note_off_c, 12, 65, 102
1, 12598, Note_off_c, 1, 53, 106
1, 12616, Note_off_c, 0, 69, 106
1, 12619, Note_off_c, 0, 72, 108
1, 12619, Note_off_c, 0, 77, 111
1, 12623, Note_off_c, 6, 77, 110
1, 12624, Note_on_c, 1, 53, 114
1, 12624, Note_on_c, 9, 64, 108
1, 12624, Note_on_c, 0, 67, 111
1, 12624, Note_on_c, 0, 69, 110
1, 12624, Note_on_c, 0, 74, 114
1, 12624, Note_on_c, 6, 74, 114
1, 12625, Note_off_c, 9, 64, 104
1, 12627, Note_on_c, 9, 69, 50
1, 12628, Note_off_c, 9, 69, 68
1, 12647, Note_off_c, 1, 53, 104
1, 12665, Note_off_c, 0, 67, 110
1, 12669, Note_off_c, 0, 74, 108
1, 12670, Note_off_c, 0, 69, 104
1, 12671, Note_on_c, 9, 42, 76
1, 12671, Note_on_c, 9, 69, 104
1, 12671, Note_off_c, 6, 74, 108
1, 12672, Note_on_c, 9, 36, 124
1, 12672, Note_on_c, 1, 41, 119
1, 12672, Note_off_c, 9, 42, 100
1, 12672, Note_on_c, 2, 57, 113
1, 12672, Note_on_c, 2, 60, 122
1, 12672, Note_on_c, 12, 60, 113
1, 12672, Note_on_c, 9, 63, 124
1, 12672, Note_on_c, 2, 65, 120
1, 12672, Note_on_c, 12, 65, 97
1, 12672, Note_off_c, 9, 69, 84
1, 12672, Note_on_c, 0, 69, 119
1, 12672, Note_on_c, 0, 72, 119
1, 12672, Note_on_c, 0, 77, 120
1, 12672, Note_on_c, 6, 77, 120
1, 12673, Note_off_c, 12, 57, 108
1, 12673, Note_off_c, 9, 36, 108
1, 12673, Note_off_c, 9, 63, 96
1, 12688, Note_off_c, 12, 62, 108
1, 12723, Note_on_c, 9, 69, 50
1, 12724, Note_off_c, 9, 69, 84
1, 12748, Note_off_c, 1, 41, 110
1, 12767, Note_on_c, 9, 42, 124
1, 12767, Note_on_c, 9, 69, 100
1, 12768, Note_off_c, 9, 42, 100
1, 12768, Note_on_c, 1, 53, 114
1, 12768, Note_on_c, 9, 63, 124
1, 12768, Note_off_c, 9, 69, 92
1, 12769, Note_off_c, 9, 63, 100
1, 12771, Note_off_c, 2, 57, 71
1, 12790, Note_off_c, 1, 53, 106
1, 12796, Note_off_c, 2, 65, 66
1, 12816, Note_on_c, 1, 53, 113
1, 12819, Note_on_c, 9, 69, 50
1, 12820, Note_on_c, 2, 57, 102
1, 12820, Note_off_c, 9, 69, 92
1, 12826, Note_off_c, 2, 60, 66
1, 12841, Note_off_c, 12, 65, 104
1, 12841, Note_off_c, 1, 53, 106
1, 12859, Note_off_c, 12, 60, 102
1, 12863, Note_on_c, 9, 42, 84
1, 12863, Note_on_c, 9, 69, 100
1, 12864, Note_on_c, 9, 36, 124
1, 12864, Note_on_c, 9, 40, 124
1, 12864, Note_on_c, 1, 41, 120
1, 12864, Note_off_c, 9, 42, 96
1, 12864, Note_on_c, 12, 57, 113
1, 12864, Note_on_c, 2, 60, 122
1, 12864, Note_on_c, 12, 62, 116
1, 12864, Note_on_c, 9, 62, 124
1, 12864, Note_on_c, 2, 65, 120
1, 12864, Note_off_c, 9, 69, 92
1, 12865, Note_off_c, 9, 36, 112
1, 12865, Note_off_c, 9, 40, 108
1, 12865, Note_off_c, 9, 62, 104
1, 12888, Note_off_c, 2, 65, 108
1, 12903, Note_off_c, 2, 60, 108
1, 12913, Note_off_c, 2, 57, 102
1, 12915, Note_on_c, 9, 69, 50
1, 12916, Note_off_c, 9, 69, 92
1, 12941, Note_off_c, 1, 41, 111
1, 12959, Note_on_c, 9, 42, 124
1, 12959, Note_on_c, 9, 69, 100
1, 12960, Note_off_c, 9, 42, 100
1, 12960, Note_on_c, 12, 53, 106
1, 12960, Note_on_c, 1, 53, 114
1, 12960, Note_on_c, 12, 60, 113
1, 12960, Note_on_c, 9, 64, 112
1, 12960, Note_off_c, 9, 69, 92
1, 12961, Note_off_c, 9, 64, 104
1, 12963, Note_off_c, 12, 62, 106
1, 12982, Note_off_c, 1, 53, 106
1, 13008, Note_on_c, 1, 53, 119
1, 13008, Note_on_c, 9, 64, 108
1, 13009, Note_off_c, 9, 64, 112
1, 13011, Note_on_c, 9, 69, 50
1, 13012, Note_off_c, 9, 69, 92
1, 13033, Note_off_c, 1, 53, 104
1, 13055, Note_on_c, 9, 42, 92
1, 13055, Note_on_c, 9, 69, 96
1, 13056, Note_on_c, 9, 36, 124
1, 13056, Note_on_c, 1, 41, 120
1, 13056, Note_off_c, 9, 42, 100
1, 13056, Note_on_c, 2, 57, 108
1, 13056, Note_on_c, 2, 60, 119
1, 13056, Note_on_c, 9, 63, 120
1, 13056, Note_on_c, 2, 65, 117
1, 13056, Note_off_c, 9, 69, 80
1, 13057, Note_off_c, 9, 36, 76
1, 13057, Note_off_c, 9, 63, 92
1, 13083, Note_off_c, 2, 57, 104
1, 13085, Note_off_c, 2, 60, 111
1, 13088, Note_off_c, 2, 65, 110
1, 13107, Note_on_c, 9, 69, 50
1, 13108, Note_off_c, 9, 69, 80
1, 13131, Note_off_c, 0, 77, 111
1, 13131, Note_off_c, 1, 41, 111
1, 13147, Note_off_c, 0, 69, 110
1, 13151, Note_on_c, 9, 42, 124
1, 13151, Note_on_c, 9, 69, 88
1, 13151, Note_off_c, 6, 77, 113
1, 13152, Note_off_c, 9, 42, 96
1, 13152, Note_on_c, 1, 53, 114
1, 13152, Note_on_c, 2, 57, 113
1, 13152, Note_on_c, 2, 60, 120
1, 13152, Note_on_c, 9, 63, 116
1, 13152, Note_on_c, 2, 65, 117
1, 13152, Note_off_c, 9, 69, 76
1, 13152, Note_on_c, 0, 70, 110
1, 13152, Note_on_c, 0, 74, 113
1, 13152, Note_on_c, 0, 79, 114
1, 13152, Note_on_c, 6, 79, 113
1, 13153, Note_off_c, 9, 63, 84
1, 13154, Note_off_c, 0, 72, 110
1, 13171, Note_off_c, 1, 53, 108
1, 13175, Note_off_c, 2, 60, 108
1, 13178, Note_off_c, 2, 57, 106
1, 13181, Note_off_c, 2, 65, 102
1, 13194, Note_off_c, 0, 79, 108
1, 13196, Note_off_c, 0, 70, 104
1, 13199, Note_off_c, 0, 74, 108
1, 13199, Note_off_c, 6, 79, 108
1, 13200, Note_on_c, 1, 53, 117
1, 13200, Note_on_c, 0, 69, 110
1, 13200, Note_on_c, 0, 72, 108
1, 13200, Note_on_c, 0, 77, 114
1, 13200, Note_on_c, 6, 77, 116
1, 13203, Note_on_c, 9, 69, 50
1, 13204, Note_off_c, 9, 69, 76
1, 13222, Note_off_c, 1, 53, 94
1, 13240, Note_off_c, 0, 77, 110
1, 13241, Note_off_c, 11, 41, 111
1, 13241, Note_off_c, 0, 72, 108
1, 13247, Note_on_c, 9, 42, 112
1, 13247, Note_off_c, 0, 69, 102
1, 13247, Note_on_c, 9, 69, 104
1, 13247, Note_off_c, 6, 77, 111
1, 13248, Note_on_c, 9, 36, 124
1, 13248, Note_on_c, 9, 40, 124
1, 13248, Note_off_c, 9, 42, 100
1, 13248, Note_on_c, 11, 43, 119
1, 13248, Note_on_c, 1, 43, 117
1, 13248, Note_on_c, 2, 57, 116
1, 13248, Note_on_c, 2, 60, 122
1, 13248, Note_on_c, 9, 62, 124
1, 13248, Note_on_c, 2, 65, 120
1, 13248, Note_off_c, 9, 69, 68
1, 13248, Note_on_c, 0, 70, 111
1, 13248, Note_on_c, 0, 74, 113
1, 13248, Note_on_c, 0, 79, 111
1, 13248, Note_on_c, 6, 79, 117
1, 13249, Note_off_c, 9, 36, 96
1, 13249, Note_off_c, 9, 40, 96
1, 13249, Note_off_c, 9, 62, 108
1, 13290, Note_off_c, 0, 79, 102
1, 13294, Note_off_c, 0, 70, 99
1, 13295, Note_off_c, 0, 74, 97
1, 13295, Note_off_c, 6, 79, 106
1, 13296, Note_on_c, 0, 69, 108
1, 13296, Note_on_c, 0, 72, 114
1, 13296, Note_on_c, 0, 77, 116
1, 13296, Note_on_c, 6, 77, 116
1, 13299, Note_on_c, 9, 69, 50
1, 13300, Note_off_c, 9, 69, 68
1, 13321, Note_off_c, 2, 65, 110
1, 13324, Note_off_c, 2, 60, 97
1, 13328, Note_off_c, 1, 43, 106
1, 13330, Note_off_c, 2, 57, 104
1, 13338, Note_off_c, 0, 69, 108
1, 13342, Note_off_c, 0, 72, 111
1, 13343, Note_on_c, 9, 42, 124
1, 13343, Note_on_c, 9, 69, 96
1, 13343, Note_off_c, 0, 77, 113
1, 13343, Note_off_c, 6, 77, 113
1, 13344, Note_off_c, 9, 42, 100
1, 13344, Note_on_c, 1, 55, 116
1, 13344, Note_on_c, 9, 64, 116
1, 13344, Note_on_c, 0, 65, 114
1, 13344, Note_off_c, 9, 69, 68
1, 13344, Note_on_c, 0, 69, 116
1, 13344, Note_on_c, 0, 74, 114
1, 13344, Note_on_c, 6, 74, 116
1, 13345, Note_off_c, 9, 64, 96
1, 13365, Note_off_c, 1, 55, 99
1, 13385, Note_off_c, 0, 74, 108
1, 13389, Note_off_c, 0, 65, 110
1, 13389, Note_off_c, 0, 69, 108
1, 13391, Note_off_c, 6, 74, 104
1, 13392, Note_on_c, 1, 55, 114
1, 13392, Note_on_c, 0, 62, 117
1, 13392, Note_on_c, 9, 64, 108
1, 13392, Note_on_c, 0, 67, 113
1, 13392, Note_on_c, 0, 72, 110
1, 13392, Note_on_c, 6, 72, 113
1, 13393, Note_off_c, 9, 64, 104
1, 13395, Note_on_c, 9, 69, 50
1, 13396, Note_off_c, 9, 69, 68
1, 13418, Note_off_c, 1, 55, 111
1, 13435, Note_off_c, 0, 72, 110
1, 13438, Note_off_c, 0, 62, 110
1, 13438, Note_off_c, 0, 67, 110
1, 13439, Note_on_c, 9, 42, 88
1, 13439, Note_off_c, 11, 43, 104
1, 13439, Note_on_c, 9, 69, 104
1, 13439, Note_off_c, 6, 72, 111
1, 13440, Note_on_c, 9, 36, 124
1, 13440, Note_off_c, 9, 42, 100
1, 13440, Note_on_c, 11, 45, 117
1, 13440, Note_on_c, 1, 45, 122
1, 13440, Note_on_c, 2, 57, 117
1, 13440, Note_on_c, 2, 60, 122
1, 13440, Note_on_c, 9, 63, 124
1, 13440, Note_on_c, 0, 65, 120
1, 13440, Note_on_c, 2, 65, 122
1, 13440, Note_off_c, 9, 69, 84
1, 13440, Note_on_c, 0, 69, 120
1, 13440, Note_on_c, 0, 74, 116
1, 13440, Note_on_c, 6, 74, 117
1, 13441, Note_off_c, 9, 36, 108
1, 13441, Note_off_c, 9, 63, 96
1, 13491, Note_on_c, 9, 69, 50
1, 13492, Note_off_c, 9, 69, 84
1, 13514, Note_off_c, 1, 45, 106
1, 13535, Note_on_c, 9, 46, 124
1, 13535, Note_on_c, 9, 69, 100
1, 13536, Note_off_c, 9, 46, 100
1, 13536, Note_on_c, 1, 57, 116
1, 13536, Note_on_c, 9, 63, 124
1, 13536, Note_off_c, 9, 69, 92
1, 13537, Note_off_c, 9, 63, 100
1, 13540, Note_off_c, 2, 57, 84
1, 13561, Note_off_c, 1, 57, 94
1, 13566, Note_off_c, 2, 65, 71
1, 13584, Note_on_c, 1, 57, 108
1, 13587, Note_on_c, 9, 69, 50
1, 13588, Note_on_c, 2, 57, 97
1, 13588, Note_off_c, 9, 69, 92
1, 13602, Note_off_c, 2, 60, 13
1, 13610, Note_off_c, 1, 57, 110
1, 13615, Note_off_c, 2, 57, 97
1, 13617, Note_off_c, 12, 53, 106
1, 13623, Note_off_c, 12, 57, 106
1, 13623, Note_off_c, 12, 60, 108
1, 13631, Note_on_c, 9, 44, 89
1, 13631, Note_off_c, 11, 45, 108
1, 13631, Note_on_c, 9, 69, 100
1, 13632, Note_on_c, 9, 36, 124
1, 13632, Note_on_c, 9, 40, 80
1, 13632, Note_on_c, 11, 41, 122
1, 13632, Note_on_c, 1, 41, 122
1, 13632, Note_off_c, 9, 44, 100
1, 13632, Note_on_c, 2, 57, 113
1, 13632, Note_on_c, 2, 60, 117
1, 13632, Note_on_c, 9, 62, 124
1, 13632, Note_on_c, 2, 65, 120
1, 13632, Note_off_c, 9, 69, 92
1, 13633, Note_off_c, 9, 36, 112
1, 13633, Note_off_c, 9, 40, 108
1, 13633, Note_off_c, 9, 62, 104
1, 13651, Note_off_c, 2, 65, 108
1, 13652, Note_off_c, 2, 60, 110
1, 13665, Note_off_c, 2, 57, 104
1, 13680, Note_on_c, 9, 40, 105
1, 13681, Note_off_c, 9, 40, 108
1, 13683, Note_on_c, 9, 69, 50
1, 13684, Note_off_c, 9, 69, 92
1, 13709, Note_off_c, 1, 41, 110
1, 13727, Note_on_c, 9, 69, 100
1, 13728, Note_on_c, 9, 40, 124
1, 13728, Note_on_c, 1, 53, 113
1, 13728, Note_on_c, 9, 64, 112
1, 13728, Note_off_c, 9, 69, 92
1, 13729, Note_off_c, 9, 40, 108
1, 13729, Note_off_c, 9, 64, 104
1, 13749, Note_off_c, 1, 53, 108
1, 13776, Note_on_c, 1, 53, 114
1, 13776, Note_on_c, 9, 64, 108
1, 13777, Note_on_c, 12, 53, 76
1, 13777, Note_off_c, 9, 64, 112
1, 13779, Note_on_c, 9, 69, 50
1, 13780, Note_off_c, 9, 69, 92
1, 13800, Note_on_c, 12, 58, 86
1, 13803, Note_off_c, 1, 53, 111
1, 13811, Note_off_c, 0, 74, 108
1, 13814, Note_off_c, 0, 65, 111
1, 13818, Note_on_c, 12, 62, 97
1, 13821, Note_off_c, 0, 69, 111
1, 13823, Note_on_c, 9, 69, 96
1, 13823, Note_off_c, 6, 74, 99
1, 13823, Note_off_c, 11, 41, 113
1, 13824, Note_on_c, 1, 31, 113
1, 13824, Note_on_c, 9, 36, 124
1, 13824, Note_on_c, 9, 49, 124
1, 13824, Note_on_c, 0, 53, 81
1, 13824, Note_on_c, 0, 58, 71
1, 13824, Note_on_c, 0, 62, 84
1, 13824, Note_on_c, 9, 63, 110
1, 13824, Note_off_c, 9, 69, 80
1, 13824, Note_on_c, 0, 77, 100
1, 13824, Note_on_c, 3, 81, 124
1, 13824, Note_on_c, 0, 81, 99
1, 13825, Note_off_c, 9, 36, 76
1, 13825, Note_off_c, 9, 49, 100
1, 13825, Note_off_c, 9, 63, 82
1, 13833, Note_on_c, 12, 69, 92
1, 13869, Note_off_c, 1, 31, 94
1, 13875, Note_on_c, 9, 69, 50
1, 13876, Note_off_c, 9, 69, 80
1, 13916, Note_off_c, 3, 81, 111
1, 13919, Note_on_c, 9, 69, 88
1, 13920, Note_on_c, 1, 43, 111
1, 13920, Note_on_c, 9, 63, 106
1, 13920, Note_off_c, 9, 69, 76
1, 13921, Note_off_c, 9, 63, 74
1, 13952, Note_on_c, 0, 79, 99
1, 13952, Note_on_c, 0, 82, 98
1, 13954, Note_off_c, 1, 43, 94
1, 13967, Note_off_c, 0, 81, 102
1, 13968, Note_off_c, 0, 77, 99
1, 13968, Note_on_c, 3, 81, 124
1, 13971, Note_on_c, 9, 69, 50
1, 13972, Note_off_c, 9, 69, 76
1, 14015, Note_on_c, 9, 42, 56
1, 14015, Note_on_c, 9, 69, 104
1, 14016, Note_on_c, 1, 33, 104
1, 14016, Note_on_c, 9, 36, 124
1, 14016, Note_on_c, 9, 40, 109
1, 14016, Note_off_c, 9, 42, 88
1, 14016, Note_on_c, 2, 62, 108
1, 14016, Note_on_c, 9, 62, 114
1, 14016, Note_on_c, 2, 65, 113
1, 14016, Note_off_c, 9, 69, 68
1, 14016, Note_on_c, 2, 70, 122
1, 14017, Note_off_c, 9, 36, 96
1, 14017, Note_off_c, 9, 40, 81
1, 14017, Note_off_c, 9, 62, 98
1, 14067, Note_on_c, 9, 69, 50
1, 14068, Note_off_c, 9, 69, 68
1, 14071, Note_off_c, 3, 81, 108
1, 14071, Note_off_c, 1, 33, 91
1, 14080, Note_on_c, 0, 81, 96
1, 14080, Note_on_c, 0, 84, 90
1, 14085, Note_off_c, 0, 82, 97
1, 14087, Note_off_c, 0, 79, 102
1, 14111, Note_on_c, 9, 42, 112
1, 14111, Note_on_c, 9, 69, 96
1, 14112, Note_off_c, 9, 42, 88
1, 14112, Note_on_c, 1, 45, 111
1, 14112, Note_on_c, 9, 64, 106
1, 14112, Note_off_c, 9, 69, 68
1, 14112, Note_on_c, 3, 82, 123
1, 14113, Note_off_c, 9, 64, 86
1, 14135, Note_off_c, 2, 62, 35
1, 14140, Note_off_c, 2, 65, 76
1, 14147, Note_off_c, 1, 45, 106
1, 14160, Note_on_c, 9, 64, 98
1, 14161, Note_off_c, 9, 64, 94
1, 14163, Note_on_c, 9, 69, 50
1, 14164, Note_on_c, 2, 62, 97
1, 14164, Note_off_c, 9, 69, 68
1, 14165, Note_off_c, 2, 70, 106
1, 14185, Note_off_c, 3, 82, 106
1, 14197, Note_off_c, 0, 84, 108
1, 14207, Note_on_c, 9, 42, 52
1, 14207, Note_off_c, 2, 62, 108
1, 14207, Note_on_c, 9, 69, 104
1, 14208, Note_on_c, 1, 34, 114
1, 14208, Note_on_c, 9, 36, 124
1, 14208, Note_off_c, 9, 42, 92
1, 14208, Note_on_c, 9, 63, 114
1, 14208, Note_on_c, 2, 65, 119
1, 14208, Note_off_c, 9, 69, 84
1, 14208, Note_on_c, 2, 70, 117
1, 14208, Note_on_c, 0, 77, 111
1, 14208, Note_on_c, 3, 81, 124
1, 14209, Note_off_c, 9, 36, 108
1, 14209, Note_off_c, 9, 63, 86
1, 14226, Note_off_c, 2, 70, 104
1, 14237, Note_off_c, 2, 65, 108
1, 14259, Note_off_c, 1, 34, 84
1, 14259, Note_on_c, 9, 69, 50
1, 14260, Note_off_c, 9, 69, 84
1, 14303, Note_on_c, 9, 42, 124
1, 14303, Note_on_c, 9, 69, 100
1, 14304, Note_off_c, 9, 42, 92
1, 14304, Note_on_c, 1, 46, 104
1, 14304, Note_on_c, 9, 63, 114
1, 14304, Note_off_c, 9, 69, 92
1, 14305, Note_off_c, 9, 63, 90
1, 14340, Note_off_c, 1, 46, 91
1, 14355, Note_on_c, 9, 69, 50
1, 14356, Note_off_c, 9, 69, 92
1, 14399, Note_on_c, 9, 42, 84
1, 14399, Note_on_c, 9, 69, 100
1, 14400, Note_on_c, 9, 36, 124
1, 14400, Note_on_c, 9, 40, 109
1, 14400, Note_off_c, 9, 42, 96
1, 14400, Note_on_c, 9, 62, 114
1, 14400, Note_on_c, 2, 65, 120
1, 14400, Note_off_c, 9, 69, 92
1, 14400, Note_on_c, 2, 70, 120
1, 14401, Note_off_c, 9, 36, 112
1, 14401, Note_off_c, 9, 40, 93
1, 14401, Note_off_c, 9, 62, 94
1, 14417, Note_off_c, 2, 70, 94
1, 14420, Note_off_c, 2, 65, 104
1, 14434, Note_off_c, 3, 81, 104
1, 14451, Note_on_c, 9, 69, 50
1, 14452, Note_off_c, 9, 69, 92
1, 14478, Note_off_c, 12, 69, 13
1, 14495, Note_on_c, 9, 42, 124
1, 14495, Note_on_c, 9, 69, 100
1, 14496, Note_off_c, 9, 42, 96
1, 14496, Note_on_c, 1, 46, 104
1, 14496, Note_on_c, 9, 64, 102
1, 14496, Note_off_c, 9, 69, 92
1, 14497, Note_off_c, 9, 64, 94
1, 14507, Note_off_c, 12, 58, 81
1, 14513, Note_off_c, 1, 46, 99
1, 14537, Note_off_c, 12, 53, 97
1, 14538, Note_off_c, 12, 62, 104
1, 14544, Note_on_c, 1, 46, 113
1, 14544, Note_on_c, 9, 64, 98
1, 14545, Note_off_c, 9, 64, 102
1, 14547, Note_on_c, 9, 69, 50
1, 14548, Note_off_c, 9, 69, 92
1, 14553, Note_on_c, 12, 53, 94
1, 14563, Pitch_bend_c, 2, 7552
1, 14568, Note_off_c, 0, 77, 81
1, 14568, Note_off_c, 1, 46, 84
1, 14571, Note_off_c, 0, 58, 88
1, 14571, Pitch_bend_c, 2, 5760
1, 14576, Note_on_c, 12, 58, 104
1, 14578, Pitch_bend_c, 2, 3456
1, 14581, Note_off_c, 0, 62, 104
1, 14582, Note_off_c, 0, 53, 84
1, 14586, Pitch_bend_c, 2, 1152
1, 14587, Note_off_c, 0, 81, 108
1, 14591, Note_on_c, 9, 42, 76
1, 14591, Note_on_c, 9, 69, 96
1, 14592, Note_on_c, 1, 34, 114
1, 14592, Note_on_c, 9, 36, 124
1, 14592, Note_off_c, 9, 42, 100
1, 14592, Note_on_c, 0, 53, 94
1, 14592, Note_on_c, 0, 58, 94
1, 14592, Note_on_c, 9, 63, 110
1, 14592, Note_on_c, 0, 65, 94
1, 14592, Note_off_c, 9, 69, 80
1, 14592, Note_on_c, 2, 74, 114
1, 14592, Note_on_c, 3, 77, 124
1, 14592, Note_on_c, 2, 79, 116
1, 14593, Note_off_c, 9, 36, 76
1, 14593, Note_off_c, 9, 63, 82
1, 14593, Note_on_c, 0, 70, 111
1, 14593, Pitch_bend_c, 2, 512
1, 14594, Note_on_c, 0, 72, 110
1, 14595, Note_on_c, 12, 62, 96
1, 14601, Pitch_bend_c, 2, 4608
1, 14606, Note_on_c, 0, 74, 104
1, 14608, Pitch_bend_c, 2, 6656
1, 14615, Pitch_bend_c, 2, 7552
1, 14616, Note_off_c, 0, 72, 102
1, 14622, Pitch_bend_c, 2, 7936
1, 14628, Note_off_c, 1, 34, 102
1, 14629, Pitch_bend_c, 2, 8192
1, 14643, Note_on_c, 9, 69, 50
1, 14644, Note_off_c, 9, 69, 80
1, 14675, Note_off_c, 3, 77, 111
1, 14687, Note_on_c, 9, 42, 124
1, 14687, Note_on_c, 9, 69, 88
1, 14688, Note_off_c, 9, 42, 100
1, 14688, Note_on_c, 1, 46, 113
1, 14688, Note_on_c, 9, 63, 106
1, 14688, Note_off_c, 9, 69, 76
1, 14688, Note_on_c, 3, 74, 110
1, 14689, Note_off_c, 9, 63, 74
1, 14716, Note_off_c, 2, 74, 71
1, 14721, Note_off_c, 1, 46, 97
1, 14725, Note_off_c, 2, 79, 97
1, 14738, Note_off_c, 3, 74, 91
1, 14739, Note_on_c, 9, 69, 50
1, 14740, Note_off_c, 9, 69, 76
1, 14740, Note_on_c, 2, 79, 114
1, 14766, Note_off_c, 2, 79, 102
1, 14783, Note_on_c, 9, 42, 80
1, 14783, Note_on_c, 9, 69, 104
1, 14784, Note_on_c, 9, 36, 124
1, 14784, Note_on_c, 9, 40, 109
1, 14784, Note_off_c, 9, 42, 96
1, 14784, Note_on_c, 9, 62, 114
1, 14784, Note_off_c, 9, 69, 68
1, 14784, Note_on_c, 2, 72, 120
1, 14784, Note_on_c, 3, 77, 122
1, 14784, Note_on_c, 2, 77, 122
1, 14785, Note_off_c, 9, 36, 96
1, 14785, Note_off_c, 9, 40, 81
1, 14785, Note_off_c, 9, 62, 98
1, 14801, Note_off_c, 2, 77, 106
1, 14809, Note_off_c, 2, 72, 113
1, 14835, Note_on_c, 9, 69, 50
1, 14836, Note_off_c, 9, 69, 68
1, 14868, Note_off_c, 3, 77, 111
1, 14879, Note_on_c, 9, 42, 124
1, 14879, Note_on_c, 9, 69, 96
1, 14880, Note_off_c, 9, 42, 96
1, 14880, Note_on_c, 1, 46, 111
1, 14880, Note_on_c, 9, 64, 106
1, 14880, Note_off_c, 9, 69, 68
1, 14880, Note_on_c, 3, 74, 114
1, 14881, Note_off_c, 9, 64, 86
1, 14898, Note_off_c, 1, 46, 97
1, 14928, Note_on_c, 1, 46, 113
1, 14928, Note_on_c, 9, 64, 98
1, 14929, Note_off_c, 9, 64, 94
1, 14931, Note_off_c, 12, 58, 84
1, 14931, Note_on_c, 9, 69, 50
1, 14932, Note_off_c, 9, 69, 68
1, 14940, Note_on_c, 12, 52, 88
1, 14945, Note_off_c, 12, 62, 94
1, 14953, Note_off_c, 12, 53, 91
1, 14954, Note_off_c, 1, 46, 91
1, 14961, Note_off_c, 3, 74, 104
1, 14970, Note_on_c, 12, 55, 101
1, 14971, Note_off_c, 0, 70, 60
1, 14974, Note_off_c, 0, 65, 102
1, 14975, Note_on_c, 9, 42, 92
1, 14975, Note_off_c, 0, 53, 102
1, 14975, Note_off_c, 0, 58, 102
1, 14975, Note_on_c, 9, 69, 104
1, 14976, Note_on_c, 1, 34, 114
1, 14976, Note_on_c, 9, 36, 124
1, 14976, Note_off_c, 9, 42, 100
1, 14976, Note_on_c, 0, 52, 97
1, 14976, Note_on_c, 9, 63, 114
1, 14976, Note_on_c, 0, 64, 99
1, 14976, Note_on_c, 0, 67, 99
1, 14976, Note_on_c, 2, 67, 97
1, 14976, Note_off_c, 9, 69, 84
1, 14976, Note_on_c, 0, 72, 102
1, 14976, Note_on_c, 2, 72, 108
1, 14976, Note_on_c, 3, 77, 124
1, 14977, Note_off_c, 9, 36, 108
1, 14977, Note_off_c, 9, 63, 86
1, 14982, Note_on_c, 12, 60, 97
1, 14982, Note_off_c, 0, 74, 13
1, 15010, Note_off_c, 1, 34, 104
1, 15027, Note_on_c, 9, 69, 50
1, 15028, Note_off_c, 9, 69, 84
1, 15071, Note_on_c, 9, 42, 124
1, 15071, Note_on_c, 9, 69, 100
1, 15072, Note_off_c, 9, 42, 96
1, 15072, Note_on_c, 1, 46, 113
1, 15072, Note_on_c, 9, 63, 114
1, 15072, Note_off_c, 9, 69, 92
1, 15073, Note_off_c, 9, 63, 90
1, 15089, Note_off_c, 2, 67, 71
1, 15090, Note_off_c, 2, 72, 84
1, 15101, Note_off_c, 1, 46, 104
1, 15123, Note_on_c, 9, 69, 50
1, 15124, Note_off_c, 9, 69, 92
1, 15135, Note_off_c, 3, 77, 111
1, 15167, Note_on_c, 9, 42, 96
1, 15167, Note_on_c, 9, 69, 100
1, 15168, Note_on_c, 1, 33, 102
1, 15168, Note_on_c, 9, 36, 124
1, 15168, Note_on_c, 9, 40, 109
1, 15168, Note_off_c, 9, 42, 100
1, 15168, Note_on_c, 9, 62, 114
1, 15168, Note_on_c, 2, 67, 97
1, 15168, Note_off_c, 9, 69, 92
1, 15168, Note_on_c, 3, 79, 116
1, 15169, Note_off_c, 9, 36, 112
1, 15169, Note_off_c, 9, 40, 93
1, 15169, Note_off_c, 9, 62, 94
1, 15208, Note_off_c, 1, 33, 99
1, 15219, Note_on_c, 9, 69, 50
1, 15220, Note_off_c, 2, 67, 102
1, 15220, Note_on_c, 2, 67, 98
1, 15220, Note_off_c, 9, 69, 92
1, 15241, Note_off_c, 2, 67, 110
1, 15258, Note_off_c, 12, 55, 71
1, 15263, Note_on_c, 9, 42, 124
1, 15263, Note_on_c, 9, 69, 100
1, 15264, Note_off_c, 9, 42, 100
1, 15264, Note_on_c, 1, 45, 119
1, 15264, Note_on_c, 9, 64, 102
1, 15264, Note_off_c, 9, 69, 92
1, 15264, Note_on_c, 2, 76, 104
1, 15265, Note_off_c, 9, 64, 94
1, 15291, Note_off_c, 1, 45, 106
1, 15292, Note_off_c, 3, 79, 110
1, 15304, Note_off_c, 12, 52, 108
1, 15305, Note_off_c, 12, 60, 111
1, 15312, Note_on_c, 9, 64, 98
1, 15313, Note_on_c, 12, 53, 76
1, 15313, Note_off_c, 9, 64, 102
1, 15315, Note_on_c, 9, 69, 50
1, 15316, Note_off_c, 2, 76, 106
1, 15316, Note_off_c, 9, 69, 92
1, 15316, Note_on_c, 2, 76, 104
1, 15336, Note_on_c, 12, 58, 86
1, 15347, Note_off_c, 2, 76, 110
1, 15354, Note_on_c, 12, 62, 97
1, 15354, Note_off_c, 0, 64, 111
1, 15358, Note_off_c, 0, 52, 84
1, 15358, Note_off_c, 0, 67, 111
1, 15358, Note_off_c, 0, 72, 108
1, 15359, Note_on_c, 9, 42, 76
1, 15359, Note_on_c, 9, 69, 96
1, 15360, Note_on_c, 1, 31, 113
1, 15360, Note_on_c, 9, 36, 124
1, 15360, Note_off_c, 9, 42, 96
1, 15360, Note_on_c, 0, 53, 81
1, 15360, Note_on_c, 0, 58, 71
1, 15360, Note_on_c, 0, 62, 84
1, 15360, Note_on_c, 9, 63, 110
1, 15360, Note_off_c, 9, 69, 80
1, 15360, Note_on_c, 0, 77, 100
1, 15360, Note_on_c, 0, 81, 99
1, 15361, Note_off_c, 9, 36, 76
1, 15361, Note_off_c, 9, 63, 82
1, 15369, Note_on_c, 12, 69, 92
1, 15405, Note_off_c, 1, 31, 94
1, 15411, Note_on_c, 9, 69, 50
1, 15412, Note_off_c, 9, 69, 80
1, 15455, Note_on_c, 9, 42, 124
1, 15455, Note_on_c, 9, 69, 88
1, 15456, Note_off_c, 9, 42, 100
1, 15456, Note_on_c, 1, 43, 111
1, 15456, Note_on_c, 9, 63, 106
1, 15456, Note_off_c, 9, 69, 76
1, 15456, Note_on_c, 3, 81, 124
1, 15457, Note_off_c, 9, 63, 74
1, 15488, Note_on_c, 0, 79, 99
1, 15488, Note_on_c, 0, 82, 98
1, 15490, Note_off_c, 1, 43, 94
1, 15503, Note_off_c, 0, 81, 102
1, 15504, Note_on_c, 1, 43, 111
1, 15504, Note_off_c, 0, 77, 99
1, 15507, Note_on_c, 9, 69, 50
1, 15508, Note_off_c, 9, 69, 76
1, 15538, Note_off_c, 1, 43, 94
1, 15551, Note_on_c, 9, 42, 92
1, 15551, Note_on_c, 9, 69, 104
1, 15552, Note_on_c, 1, 33, 104
1, 15552, Note_on_c, 9, 36, 124
1, 15552, Note_on_c, 9, 40, 109
1, 15552, Note_off_c, 9, 42, 100
1, 15552, Note_on_c, 2, 62, 108
1, 15552, Note_on_c, 9, 62, 114
1, 15552, Note_on_c, 2, 65, 113
1, 15552, Note_off_c, 9, 69, 68
1, 15552, Note_on_c, 2, 70, 122
1, 15553, Note_off_c, 9, 36, 96
1, 15553, Note_off_c, 9, 40, 81
1, 15553, Note_off_c, 9, 62, 98
1, 15566, Note_off_c, 3, 81, 111
1, 15600, Note_on_c, 3, 81, 122
1, 15603, Note_on_c, 9, 69, 50
1, 15604, Note_off_c, 9, 69, 68
1, 15607, Note_off_c, 1, 33, 91
1, 15616, Note_on_c, 0, 81, 96
1, 15616, Note_on_c, 0, 84, 90
1, 15621, Note_off_c, 0, 82, 97
1, 15623, Note_off_c, 0, 79, 102
1, 15647, Note_on_c, 9, 42, 124
1, 15647, Note_on_c, 9, 69, 96
1, 15648, Note_off_c, 9, 42, 92
1, 15648, Note_on_c, 1, 45, 111
1, 15648, Note_on_c, 9, 64, 106
1, 15648, Note_off_c, 9, 69, 68
1, 15649, Note_off_c, 9, 64, 86
1, 15671, Note_off_c, 2, 62, 35
1, 15676, Note_off_c, 2, 65, 76
1, 15683, Note_off_c, 1, 45, 106
1, 15696, Note_on_c, 1, 45, 111
1, 15696, Note_on_c, 9, 64, 98
1, 15697, Note_off_c, 9, 64, 94
1, 15699, Note_on_c, 9, 69, 50
1, 15700, Note_on_c, 2, 62, 97
1, 15700, Note_off_c, 9, 69, 68
1, 15701, Note_off_c, 2, 70, 106
1, 15705, Note_off_c, 3, 81, 111
1, 15731, Note_off_c, 1, 45, 106
1, 15733, Note_off_c, 0, 84, 108
1, 15743, Note_on_c, 9, 42, 84
1, 15743, Note_off_c, 2, 62, 108
1, 15743, Note_on_c, 9, 69, 104
1, 15744, Note_on_c, 1, 34, 114
1, 15744, Note_on_c, 9, 36, 124
1, 15744, Note_off_c, 9, 42, 96
1, 15744, Note_on_c, 9, 63, 114
1, 15744, Note_on_c, 2, 65, 119
1, 15744, Note_off_c, 9, 69, 84
1, 15744, Note_on_c, 2, 70, 117
1, 15744, Note_on_c, 0, 77, 111
1, 15744, Note_on_c, 3, 81, 123
1, 15745, Note_off_c, 9, 36, 108
1, 15745, Note_off_c, 9, 63, 86
1, 15762, Note_off_c, 2, 70, 104
1, 15773, Note_off_c, 2, 65, 108
1, 15795, Note_off_c, 1, 34, 84
1, 15795, Note_on_c, 9, 69, 50
1, 15796, Note_off_c, 9, 69, 84
1, 15810, Note_off_c, 3, 81, 108
1, 15839, Note_on_c, 9, 42, 124
1, 15839, Note_on_c, 9, 69, 100
1, 15840, Note_off_c, 9, 42, 100
1, 15840, Note_on_c, 1, 46, 104
1, 15840, Note_on_c, 9, 63, 114
1, 15840, Note_off_c, 9, 69, 92
1, 15840, Note_on_c, 3, 81, 99
1, 15841, Note_off_c, 9, 63, 90
1, 15876, Note_off_c, 1, 46, 91
1, 15891, Note_on_c, 9, 69, 50
1, 15892, Note_off_c, 9, 69, 92
1, 15911, Note_off_c, 3, 81, 110
1, 15935, Note_on_c, 9, 42, 100
1, 15935, Note_on_c, 9, 69, 100
1, 15936, Note_on_c, 9, 36, 124
1, 15936, Note_on_c, 9, 40, 109
1, 15936, Note_off_c, 9, 42, 100
1, 15936, Note_on_c, 9, 62, 114
1, 15936, Note_on_c, 2, 65, 120
1, 15936, Note_off_c, 9, 69, 92
1, 15936, Note_on_c, 2, 70, 120
1, 15937, Note_off_c, 9, 36, 112
1, 15937, Note_off_c, 9, 40, 93
1, 15937, Note_off_c, 9, 62, 94
1, 15953, Note_off_c, 2, 70, 94
1, 15956, Note_off_c, 2, 65, 104
1, 15987, Note_on_c, 9, 69, 50
1, 15988, Note_off_c, 9, 69, 92
1, 16014, Note_off_c, 12, 69, 13
1, 16031, Note_on_c, 9, 42, 124
1, 16031, Note_on_c, 9, 69, 100
1, 16032, Note_off_c, 9, 42, 100
1, 16032, Note_on_c, 1, 46, 104
1, 16032, Note_on_c, 9, 64, 102
1, 16032, Note_off_c, 9, 69, 92
1, 16032, Note_on_c, 3, 74, 119
1, 16033, Note_off_c, 9, 64, 94
1, 16043, Note_off_c, 12, 58, 81
1, 16049, Note_off_c, 1, 46, 99
1, 16073, Note_off_c, 12, 53, 97
1, 16074, Note_off_c, 12, 62, 104
1, 16074, Note_off_c, 3, 74, 106
1, 16080, Note_on_c, 1, 46, 113
1, 16080, Note_on_c, 9, 64, 98
1, 16081, Note_off_c, 9, 64, 102
1, 16083, Note_on_c, 9, 69, 50
1, 16084, Note_off_c, 9, 69, 92
1, 16089, Note_on_c, 12, 53, 94
1, 16099, Pitch_bend_c, 2, 7552
1, 16104, Note_off_c, 0, 77, 81
1, 16104, Note_off_c, 1, 46, 84
1, 16107, Note_off_c, 0, 58, 88
1, 16107, Pitch_bend_c, 2, 5760
1, 16112, Note_on_c, 12, 58, 104
1, 16114, Pitch_bend_c, 2, 3456
1, 16117, Note_off_c, 0, 62, 104
1, 16118, Note_off_c, 0, 53, 84
1, 16122, Pitch_bend_c, 2, 1152
1, 16123, Note_off_c, 0, 81, 108
1, 16127, Note_on_c, 9, 42, 92
1, 16127, Note_on_c, 9, 69, 96
1, 16128, Note_on_c, 1, 34, 114
1, 16128, Note_on_c, 9, 36, 124
1, 16128, Note_off_c, 9, 42, 100
1, 16128, Note_on_c, 0, 53, 94
1, 16128, Note_on_c, 0, 58, 94
1, 16128, Note_on_c, 9, 63, 110
1, 16128, Note_on_c, 0, 65, 94
1, 16128, Note_off_c, 9, 69, 80
1, 16128, Note_on_c, 2, 74, 114
1, 16128, Note_on_c, 3, 77, 120
1, 16128, Note_on_c, 2, 79, 116
1, 16129, Note_off_c, 9, 36, 76
1, 16129, Note_off_c, 9, 63, 82
1, 16129, Note_on_c, 0, 70, 111
1, 16129, Pitch_bend_c, 2, 512
1, 16130, Note_on_c, 0, 72, 110
1, 16131, Note_on_c, 12, 62, 96
1, 16137, Pitch_bend_c, 2, 4608
1, 16142, Note_on_c, 0, 74, 104
1, 16144, Pitch_bend_c, 2, 6656
1, 16151, Pitch_bend_c, 2, 7552
1, 16152, Note_off_c, 0, 72, 102
1, 16158, Pitch_bend_c, 2, 7936
1, 16164, Note_off_c, 1, 34, 102
1, 16165, Pitch_bend_c, 2, 8192
1, 16179, Note_on_c, 9, 69, 50
1, 16180, Note_off_c, 9, 69, 80
1, 16215, Note_off_c, 3, 77, 106
1, 16223, Note_on_c, 9, 42, 124
1, 16223, Note_on_c, 9, 69, 88
1, 16224, Note_off_c, 9, 42, 100
1, 16224, Note_on_c, 1, 46, 113
1, 16224, Note_on_c, 9, 63, 106
1, 16224, Note_off_c, 9, 69, 76
1, 16224, Note_on_c, 3, 74, 113
1, 16225, Note_off_c, 9, 63, 74
1, 16243, Note_off_c, 3, 74, 106
1, 16252, Note_off_c, 2, 74, 71
1, 16257, Note_off_c, 1, 46, 97
1, 16261, Note_off_c, 2, 79, 97
1, 16275, Note_on_c, 9, 69, 50
1, 16276, Note_off_c, 9, 69, 76
1, 16276, Note_on_c, 2, 79, 114
1, 16302, Note_off_c, 2, 79, 102
1, 16319, Note_on_c, 9, 42, 100
1, 16319, Note_on_c, 9, 69, 104
1, 16320, Note_on_c, 9, 36, 124
1, 16320, Note_on_c, 9, 40, 109
1, 16320, Note_off_c, 9, 42, 100
1, 16320, Note_on_c, 9, 62, 114
1, 16320, Note_off_c, 9, 69, 68
1, 16320, Note_on_c, 2, 72, 120
1, 16320, Note_on_c, 3, 77, 120
1, 16320, Note_on_c, 2, 77, 122
1, 16321, Note_off_c, 9, 36, 96
1, 16321, Note_off_c, 9, 40, 81
1, 16321, Note_off_c, 9, 62, 98
1, 16337, Note_off_c, 2, 77, 106
1, 16345, Note_off_c, 2, 72, 113
1, 16366, Note_off_c, 3, 77, 111
1, 16371, Note_on_c, 9, 69, 50
1, 16372, Note_off_c, 9, 69, 68
1, 16415, Note_on_c, 9, 42, 124
1, 16415, Note_on_c, 9, 69, 96
1, 16416, Note_off_c, 9, 42, 104
1, 16416, Note_on_c, 1, 46, 111
1, 16416, Note_on_c, 9, 64, 106
1, 16416, Note_off_c, 9, 69, 68
1, 16416, Note_on_c, 3, 74, 119
1, 16417, Note_off_c, 9, 64, 86
1, 16434, Note_off_c, 1, 46, 97
1, 16451, Note_off_c, 3, 74, 108
1, 16464, Note_on_c, 9, 64, 98
1, 16465, Note_off_c, 9, 64, 94
1, 16467, Note_off_c, 12, 58, 84
1, 16467, Note_on_c, 9, 69, 50
1, 16468, Note_off_c, 9, 69, 68
1, 16476, Note_on_c, 12, 52, 88
1, 16481, Note_off_c, 12, 62, 94
1, 16489, Note_off_c, 12, 53, 91
1, 16506, Note_on_c, 12, 55, 101
1, 16507, Note_off_c, 0, 70, 60
1, 16510, Note_off_c, 0, 65, 102
1, 16511, Note_on_c, 9, 42, 92
1, 16511, Note_off_c, 0, 53, 102
1, 16511, Note_off_c, 0, 58, 102
1, 16511, Note_on_c, 9, 69, 104
1, 16512, Note_on_c, 1, 34, 114
1, 16512, Note_on_c, 9, 36, 124
1, 16512, Note_off_c, 9, 42, 100
1, 16512, Note_on_c, 0, 52, 97
1, 16512, Note_on_c, 9, 63, 114
1, 16512, Note_on_c, 0, 64, 99
1, 16512, Note_on_c, 0, 67, 99
1, 16512, Note_on_c, 2, 67, 97
1, 16512, Note_off_c, 9, 69, 84
1, 16512, Note_on_c, 0, 72, 102
1, 16512, Note_on_c, 2, 72, 108
1, 16512, Note_on_c, 3, 79, 116
1, 16513, Note_off_c, 9, 36, 108
1, 16513, Note_off_c, 9, 63, 86
1, 16518, Note_on_c, 12, 60, 97
1, 16518, Note_off_c, 0, 74, 13
1, 16546, Note_off_c, 1, 34, 104
1, 16563, Note_on_c, 9, 69, 50
1, 16564, Note_off_c, 9, 69, 84
1, 16607, Note_on_c, 9, 42, 124
1, 16607, Note_on_c, 9, 69, 100
1, 16608, Note_off_c, 9, 42, 108
1, 16608, Note_on_c, 1, 46, 113
1, 16608, Note_on_c, 9, 63, 114
1, 16608, Note_off_c, 9, 69, 92
1, 16609, Note_off_c, 9, 63, 90
1, 16618, Note_off_c, 3, 79, 106
1, 16625, Note_off_c, 2, 67, 71
1, 16626, Note_off_c, 2, 72, 84
1, 16637, Note_off_c, 1, 46, 104
1, 16656, Note_on_c, 3, 74, 99
1, 16659, Note_on_c, 9, 69, 50
1, 16660, Note_off_c, 9, 69, 92
1, 16692, Note_off_c, 3, 74, 106
1, 16703, Note_on_c, 9, 42, 96
1, 16703, Note_on_c, 9, 69, 100
1, 16704, Note_on_c, 1, 33, 102
1, 16704, Note_on_c, 9, 36, 124
1, 16704, Note_on_c, 9, 40, 109
1, 16704, Note_off_c, 9, 42, 100
1, 16704, Note_on_c, 9, 62, 114
1, 16704, Note_on_c, 2, 67, 97
1, 16704, Note_off_c, 9, 69, 92
1, 16705, Note_off_c, 9, 36, 112
1, 16705, Note_off_c, 9, 40, 93
1, 16705, Note_off_c, 9, 62, 94
1, 16744, Note_off_c, 1, 33, 99
1, 16755, Note_on_c, 9, 69, 50
1, 16756, Note_off_c, 2, 67, 102
1, 16756, Note_on_c, 2, 67, 102
1, 16756, Note_off_c, 9, 69, 92
1, 16777, Note_off_c, 2, 67, 110
1, 16794, Note_off_c, 12, 55, 71
1, 16799, Note_on_c, 9, 46, 121
1, 16799, Note_on_c, 9, 69, 100
1, 16800, Note_on_c, 1, 45, 119
1, 16800, Note_off_c, 9, 46, 100
1, 16800, Note_on_c, 9, 64, 102
1, 16800, Note_off_c, 9, 69, 92
1, 16800, Note_on_c, 2, 76, 107
1, 16801, Note_off_c, 9, 64, 94
1, 16827, Note_off_c, 1, 45, 106
1, 16840, Note_off_c, 12, 52, 108
1, 16841, Note_off_c, 12, 60, 111
1, 16848, Note_on_c, 9, 64, 98
1, 16849, Note_on_c, 12, 53, 76
1, 16849, Note_off_c, 9, 64, 102
1, 16851, Note_on_c, 9, 69, 50
1, 16852, Note_off_c, 2, 76, 106
1, 16852, Note_off_c, 9, 69, 92
1, 16852, Note_on_c, 2, 76, 110
1, 16872, Note_on_c, 12, 58, 86
1, 16883, Note_off_c, 2, 76, 110
1, 16890, Note_on_c, 12, 62, 97
1, 16890, Note_off_c, 0, 64, 111
1, 16894, Note_off_c, 0, 52, 84
1, 16894, Note_off_c, 0, 67, 111
1, 16894, Note_off_c, 0, 72, 108
1, 16895, Note_on_c, 9, 42, 92
1, 16895, Note_on_c, 9, 69, 96
1, 16896, Note_on_c, 1, 31, 113
1, 16896, Note_on_c, 9, 36, 124
1, 16896, Note_off_c, 9, 42, 100
1, 16896, Note_on_c, 0, 53, 81
1, 16896, Note_on_c, 0, 58, 71
1, 16896, Note_on_c, 0, 62, 84
1, 16896, Note_on_c, 9, 63, 110
1, 16896, Note_off_c, 9, 69, 80
1, 16896, Note_on_c, 0, 77, 100
1, 16896, Note_on_c, 3, 81, 123
1, 16896, Note_on_c, 0, 81, 99
1, 16897, Note_off_c, 9, 36, 76
1, 16897, Note_off_c, 9, 63, 82
1, 16905, Note_on_c, 12, 69, 92
1, 16941, Note_off_c, 1, 31, 94
1, 16947, Note_on_c, 9, 69, 50
1, 16948, Note_off_c, 9, 69, 80
1, 16983, Note_off_c, 3, 81, 108
1, 16991, Note_on_c, 9, 42, 124
1, 16991, Note_on_c, 9, 69, 88
1, 16992, Note_off_c, 9, 42, 96
1, 16992, Note_on_c, 1, 43, 111
1, 16992, Note_on_c, 9, 63, 106
1, 16992, Note_off_c, 9, 69, 76
1, 16993, Note_off_c, 9, 63, 74
1, 17024, Note_on_c, 0, 79, 99
1, 17024, Note_on_c, 0, 82, 98
1, 17026, Note_off_c, 1, 43, 94
1, 17039, Note_off_c, 0, 81, 102
1, 17040, Note_off_c, 0, 77, 99
1, 17040, Note_on_c, 3, 81, 122
1, 17043, Note_on_c, 9, 69, 50
1, 17044, Note_off_c, 9, 69, 76
1, 17087, Note_on_c, 9, 42, 100
1, 17087, Note_on_c, 9, 69, 104
1, 17088, Note_on_c, 1, 33, 104
1, 17088, Note_on_c, 9, 36, 124
1, 17088, Note_on_c, 9, 40, 109
1, 17088, Note_off_c, 9, 42, 100
1, 17088, Note_on_c, 2, 62, 108
1, 17088, Note_on_c, 9, 62, 114
1, 17088, Note_on_c, 2, 65, 113
1, 17088, Note_off_c, 9, 69, 68
1, 17088, Note_on_c, 2, 70, 122
1, 17089, Note_off_c, 9, 36, 96
1, 17089, Note_off_c, 9, 40, 81
1, 17089, Note_off_c, 9, 62, 98
1, 17139, Note_on_c, 9, 69, 50
1, 17139, Note_off_c, 3, 81, 110
1, 17140, Note_off_c, 9, 69, 68
1, 17143, Note_off_c, 1, 33, 91
1, 17152, Note_on_c, 0, 81, 96
1, 17152, Note_on_c, 0, 84, 90
1, 17157, Note_off_c, 0, 82, 97
1, 17159, Note_off_c, 0, 79, 102
1, 17183, Note_on_c, 9, 42, 124
1, 17183, Note_on_c, 9, 69, 96
1, 17184, Note_off_c, 9, 42, 100
1, 17184, Note_on_c, 1, 45, 111
1, 17184, Note_on_c, 9, 64, 106
1, 17184, Note_off_c, 9, 69, 68
1, 17184, Note_on_c, 3, 81, 119
1, 17185, Note_off_c, 9, 64, 86
1, 17207, Note_off_c, 2, 62, 35
1, 17212, Note_off_c, 2, 65, 76
1, 17219, Note_off_c, 1, 45, 106
1, 17232, Note_on_c, 9, 64, 98
1, 17232, Note_off_c, 3, 81, 110
1, 17233, Note_off_c, 9, 64, 94
1, 17235, Note_on_c, 9, 69, 50
1, 17236, Note_on_c, 2, 62, 97
1, 17236, Note_off_c, 9, 69, 68
1, 17237, Note_off_c, 2, 70, 106
1, 17269, Note_off_c, 0, 84, 108
1, 17279, Note_on_c, 9, 42, 84
1, 17279, Note_off_c, 2, 62, 108
1, 17279, Note_on_c, 9, 69, 104
1, 17280, Note_on_c, 1, 34, 114
1, 17280, Note_on_c, 9, 36, 124
1, 17280, Note_off_c, 9, 42, 96
1, 17280, Note_on_c, 9, 63, 114
1, 17280, Note_on_c, 2, 65, 119
1, 17280, Note_off_c, 9, 69, 84
1, 17280, Note_on_c, 2, 70, 117
1, 17280, Note_on_c, 0, 77, 111
1, 17280, Note_on_c, 3, 81, 120
1, 17281, Note_off_c, 9, 36, 108
1, 17281, Note_off_c, 9, 63, 86
1, 17298, Note_off_c, 2, 70, 104
1, 17309, Note_off_c, 2, 65, 108
1, 17331, Note_off_c, 1, 34, 84
1, 17331, Note_on_c, 9, 69, 50
1, 17332, Note_off_c, 9, 69, 84
1, 17375, Note_on_c, 9, 42, 124
1, 17375, Note_on_c, 9, 69, 100
1, 17376, Note_off_c, 9, 42, 100
1, 17376, Note_on_c, 1, 46, 104
1, 17376, Note_on_c, 9, 63, 114
1, 17376, Note_off_c, 9, 69, 92
1, 17377, Note_off_c, 9, 63, 90
1, 17412, Note_off_c, 1, 46, 91
1, 17424, Note_off_c, 3, 81, 111
1, 17427, Note_on_c, 9, 69, 50
1, 17428, Note_off_c, 9, 69, 92
1, 17471, Note_on_c, 9, 42, 104
1, 17471, Note_on_c, 9, 69, 100
1, 17472, Note_on_c, 9, 36, 124
1, 17472, Note_on_c, 9, 40, 109
1, 17472, Note_off_c, 9, 42, 100
1, 17472, Note_on_c, 9, 62, 114
1, 17472, Note_on_c, 2, 65, 120
1, 17472, Note_off_c, 9, 69, 92
1, 17472, Note_on_c, 2, 70, 120
1, 17473, Note_off_c, 9, 36, 112
1, 17473, Note_off_c, 9, 40, 93
1, 17473, Note_off_c, 9, 62, 94
1, 17489, Note_off_c, 2, 70, 94
1, 17492, Note_off_c, 2, 65, 104
1, 17523, Note_on_c, 9, 69, 50
1, 17524, Note_off_c, 9, 69, 92
1, 17550, Note_off_c, 12, 69, 13
1, 17567, Note_on_c, 9, 42, 124
1, 17567, Note_on_c, 9, 69, 100
1, 17568, Note_off_c, 9, 42, 100
1, 17568, Note_on_c, 1, 46, 104
1, 17568, Note_on_c, 9, 64, 102
1, 17568, Note_off_c, 9, 69, 92
1, 17568, Note_on_c, 3, 74, 111
1, 17569, Note_off_c, 9, 64, 94
1, 17579, Note_off_c, 12, 58, 81
1, 17585, Note_off_c, 1, 46, 99
1, 17589, Note_off_c, 3, 74, 94
1, 17609, Note_off_c, 12, 53, 97
1, 17610, Note_off_c, 12, 62, 104
1, 17616, Note_on_c, 1, 46, 113
1, 17616, Note_on_c, 9, 64, 98
1, 17617, Note_off_c, 9, 64, 102
1, 17619, Note_on_c, 9, 69, 50
1, 17620, Note_off_c, 9, 69, 92
1, 17625, Note_on_c, 12, 53, 94
1, 17635, Pitch_bend_c, 2, 7552
1, 17640, Note_off_c, 0, 77, 81
1, 17640, Note_off_c, 1, 46, 84
1, 17643, Note_off_c, 0, 58, 88
1, 17643, Pitch_bend_c, 2, 5760
1, 17648, Note_on_c, 12, 58, 104
1, 17650, Pitch_bend_c, 2, 3456
1, 17653, Note_off_c, 0, 62, 104
1, 17654, Note_off_c, 0, 53, 84
1, 17658, Pitch_bend_c, 2, 1152
1, 17659, Note_off_c, 0, 81, 108
1, 17663, Note_on_c, 9, 42, 104
1, 17663, Note_on_c, 9, 69, 96
1, 17664, Note_on_c, 1, 34, 114
1, 17664, Note_on_c, 9, 36, 124
1, 17664, Note_off_c, 9, 42, 100
1, 17664, Note_on_c, 0, 53, 94
1, 17664, Note_on_c, 0, 58, 94
1, 17664, Note_on_c, 9, 63, 110
1, 17664, Note_on_c, 0, 65, 94
1, 17664, Note_off_c, 9, 69, 80
1, 17664, Note_on_c, 2, 74, 114
1, 17664, Note_on_c, 3, 77, 120
1, 17664, Note_on_c, 2, 79, 116
1, 17665, Note_off_c, 9, 36, 76
1, 17665, Note_off_c, 9, 63, 82
1, 17665, Note_on_c, 0, 70, 111
1, 17665, Pitch_bend_c, 2, 512
1, 17666, Note_on_c, 0, 72, 110
1, 17667, Note_on_c, 12, 62, 96
1, 17673, Pitch_bend_c, 2, 4608
1, 17678, Note_on_c, 0, 74, 104
1, 17680, Pitch_bend_c, 2, 6656
1, 17687, Pitch_bend_c, 2, 7552
1, 17688, Note_off_c, 0, 72, 102
1, 17694, Pitch_bend_c, 2, 7936
1, 17700, Note_off_c, 1, 34, 102
1, 17701, Pitch_bend_c, 2, 8192
1, 17715, Note_on_c, 9, 69, 50
1, 17716, Note_off_c, 9, 69, 80
1, 17745, Note_off_c, 3, 77, 111
1, 17759, Note_on_c, 9, 42, 124
1, 17759, Note_on_c, 9, 69, 88
1, 17760, Note_off_c, 9, 42, 100
1, 17760, Note_on_c, 1, 46, 113
1, 17760, Note_on_c, 9, 63, 106
1, 17760, Note_off_c, 9, 69, 76
1, 17760, Note_on_c, 3, 74, 108
1, 17761, Note_off_c, 9, 63, 74
1, 17780, Note_off_c, 3, 74, 102
1, 17788, Note_off_c, 2, 74, 71
1, 17793, Note_off_c, 1, 46, 97
1, 17797, Note_off_c, 2, 79, 97
1, 17811, Note_on_c, 9, 69, 50
1, 17812, Note_off_c, 9, 69, 76
1, 17812, Note_on_c, 2, 79, 114
1, 17838, Note_off_c, 2, 79, 102
1, 17855, Note_on_c, 9, 42, 108
1, 17855, Note_on_c, 9, 69, 104
1, 17856, Note_on_c, 9, 36, 124
1, 17856, Note_on_c, 9, 40, 109
1, 17856, Note_off_c, 9, 42, 100
1, 17856, Note_on_c, 9, 62, 114
1, 17856, Note_off_c, 9, 69, 68
1, 17856, Note_on_c, 2, 72, 120
1, 17856, Note_on_c, 3, 77, 116
1, 17856, Note_on_c, 2, 77, 122
1, 17857, Note_off_c, 9, 36, 96
1, 17857, Note_off_c, 9, 40, 81
1, 17857, Note_off_c, 9, 62, 98
1, 17873, Note_off_c, 2, 77, 106
1, 17875, Note_off_c, 3, 77, 99
1, 17881, Note_off_c, 2, 72, 113
1, 17907, Note_on_c, 9, 69, 50
1, 17908, Note_off_c, 9, 69, 68
1, 17951, Note_on_c, 9, 42, 124
1, 17951, Note_on_c, 9, 69, 96
1, 17952, Note_off_c, 9, 42, 100
1, 17952, Note_on_c, 1, 46, 111
1, 17952, Note_on_c, 9, 64, 106
1, 17952, Note_off_c, 9, 69, 68
1, 17952, Note_on_c, 3, 74, 113
1, 17953, Note_off_c, 9, 64, 86
1, 17970, Note_off_c, 1, 46, 97
1, 17975, Note_off_c, 3, 74, 84
1, 18000, Note_on_c, 1, 46, 113
1, 18000, Note_on_c, 9, 64, 98
1, 18001, Note_off_c, 9, 64, 94
1, 18003, Note_off_c, 12, 58, 84
1, 18003, Note_on_c, 9, 69, 50
1, 18004, Note_off_c, 9, 69, 68
1, 18012, Note_on_c, 12, 52, 88
1, 18017, Note_off_c, 12, 62, 94
1, 18025, Note_off_c, 12, 53, 91
1, 18026, Note_off_c, 1, 46, 91
1, 18042, Note_on_c, 12, 55, 101
1, 18043, Note_off_c, 0, 70, 60
1, 18046, Note_off_c, 0, 65, 102
1, 18047, Note_on_c, 9, 42, 104
1, 18047, Note_off_c, 0, 53, 102
1, 18047, Note_off_c, 0, 58, 102
1, 18047, Note_on_c, 9, 69, 104
1, 18048, Note_on_c, 1, 34, 114
1, 18048, Note_on_c, 9, 36, 124
1, 18048, Note_off_c, 9, 42, 100
1, 18048, Note_on_c, 0, 52, 97
1, 18048, Note_on_c, 9, 63, 114
1, 18048, Note_on_c, 0, 64, 99
1, 18048, Note_on_c, 0, 67, 99
1, 18048, Note_on_c, 2, 67, 97
1, 18048, Note_off_c, 9, 69, 84
1, 18048, Note_on_c, 0, 72, 102
1, 18048, Note_on_c, 2, 72, 108
1, 18048, Note_on_c, 3, 77, 120
1, 18049, Note_off_c, 9, 36, 108
1, 18049, Note_off_c, 9, 63, 86
1, 18054, Note_on_c, 12, 60, 97
1, 18054, Note_off_c, 0, 74, 13
1, 18082, Note_off_c, 1, 34, 104
1, 18099, Note_on_c, 9, 69, 50
1, 18100, Note_off_c, 9, 69, 84
1, 18143, Note_on_c, 9, 42, 124
1, 18143, Note_on_c, 9, 69, 100
1, 18144, Note_off_c, 9, 42, 104
1, 18144, Note_on_c, 1, 46, 113
1, 18144, Note_on_c, 9, 63, 114
1, 18144, Note_off_c, 9, 69, 92
1, 18145, Note_off_c, 9, 63, 90
1, 18158, Note_off_c, 3, 77, 102
1, 18161, Note_off_c, 2, 67, 71
1, 18162, Note_off_c, 2, 72, 84
1, 18173, Note_off_c, 1, 46, 104
1, 18192, Note_on_c, 3, 79, 113
1, 18195, Note_on_c, 9, 69, 50
1, 18196, Note_off_c, 9, 69, 92
1, 18237, Note_off_c, 3, 79, 108
1, 18239, Note_on_c, 9, 42, 96
1, 18239, Note_on_c, 9, 69, 100
1, 18240, Note_on_c, 1, 33, 102
1, 18240, Note_on_c, 9, 36, 124
1, 18240, Note_on_c, 9, 40, 109
1, 18240, Note_off_c, 9, 42, 100
1, 18240, Note_on_c, 9, 62, 114
1, 18240, Note_on_c, 2, 67, 98
1, 18240, Note_off_c, 9, 69, 92
1, 18241, Note_off_c, 9, 36, 112
1, 18241, Note_off_c, 9, 40, 93
1, 18241, Note_off_c, 9, 62, 94
1, 18280, Note_off_c, 1, 33, 99
1, 18291, Note_on_c, 9, 69, 50
1, 18292, Note_off_c, 2, 67, 102
1, 18292, Note_on_c, 2, 67, 98
1, 18292, Note_off_c, 9, 69, 92
1, 18313, Note_off_c, 2, 67, 110
1, 18330, Note_off_c, 12, 55, 71
1, 18335, Note_on_c, 9, 42, 124
1, 18335, Note_on_c, 9, 69, 100
1, 18336, Note_off_c, 9, 42, 104
1, 18336, Note_on_c, 1, 45, 119
1, 18336, Note_on_c, 9, 64, 102
1, 18336, Note_off_c, 9, 69, 92
1, 18336, Note_on_c, 2, 76, 99
1, 18337, Note_off_c, 9, 64, 94
1, 18363, Note_off_c, 1, 45, 106
1, 18376, Note_off_c, 12, 52, 108
1, 18377, Note_off_c, 12, 60, 111
1, 18384, Note_on_c, 9, 64, 98
1, 18385, Note_on_c, 12, 53, 76
1, 18385, Note_off_c, 9, 64, 102
1, 18387, Note_on_c, 9, 69, 50
1, 18388, Note_off_c, 2, 76, 106
1, 18388, Note_off_c, 9, 69, 92
1, 18388, Note_on_c, 2, 76, 97
1, 18408, Note_on_c, 12, 58, 86
1, 18419, Note_off_c, 2, 76, 110
1, 18426, Note_on_c, 12, 62, 97
1, 18426, Note_off_c, 0, 64, 111
1, 18430, Note_off_c, 0, 52, 84
1, 18430, Note_off_c, 0, 67, 111
1, 18430, Note_off_c, 0, 72, 108
1, 18431, Note_on_c, 9, 42, 100
1, 18431, Note_on_c, 9, 69, 96
1, 18432, Note_on_c, 1, 31, 113
1, 18432, Note_on_c, 9, 36, 124
1, 18432, Note_off_c, 9, 42, 92
1, 18432, Note_on_c, 0, 53, 81
1, 18432, Note_on_c, 0, 58, 71
1, 18432, Note_on_c, 0, 62, 84
1, 18432, Note_on_c, 9, 63, 110
1, 18432, Note_off_c, 9, 69, 80
1, 18432, Note_on_c, 0, 77, 100
1, 18432, Note_on_c, 0, 81, 99
1, 18432, Note_on_c, 3, 84, 122
1, 18433, Note_off_c, 9, 36, 76
1, 18433, Note_off_c, 9, 63, 82
1, 18441, Note_on_c, 12, 69, 92
1, 18477, Note_off_c, 1, 31, 94
1, 18483, Note_on_c, 9, 69, 50
1, 18484, Note_off_c, 9, 69, 80
1, 18527, Note_on_c, 9, 42, 120
1, 18527, Note_on_c, 9, 69, 88
1, 18528, Note_off_c, 9, 42, 92
1, 18528, Note_on_c, 1, 43, 111
1, 18528, Note_on_c, 9, 63, 106
1, 18528, Note_off_c, 9, 69, 76
1, 18529, Note_off_c, 9, 63, 74
1, 18535, Note_off_c, 3, 84, 108
1, 18560, Note_on_c, 0, 79, 99
1, 18560, Note_on_c, 0, 82, 98
1, 18562, Note_off_c, 1, 43, 94
1, 18575, Note_off_c, 0, 81, 102
1, 18576, Note_on_c, 1, 43, 111
1, 18576, Note_off_c, 0, 77, 99
1, 18576, Note_on_c, 3, 81, 119
1, 18579, Note_on_c, 9, 69, 50
1, 18580, Note_off_c, 9, 69, 76
1, 18610, Note_off_c, 1, 43, 94
1, 18623, Note_on_c, 9, 42, 124
1, 18623, Note_on_c, 9, 69, 104
1, 18624, Note_on_c, 1, 33, 104
1, 18624, Note_on_c, 9, 36, 124
1, 18624, Note_on_c, 9, 40, 109
1, 18624, Note_off_c, 9, 42, 96
1, 18624, Note_on_c, 2, 62, 108
1, 18624, Note_on_c, 9, 62, 114
1, 18624, Note_on_c, 2, 65, 113
1, 18624, Note_off_c, 9, 69, 68
1, 18624, Note_on_c, 2, 70, 122
1, 18625, Note_off_c, 9, 36, 96
1, 18625, Note_off_c, 9, 40, 81
1, 18625, Note_off_c, 9, 62, 98
1, 18669, Note_off_c, 3, 81, 108
1, 18675, Note_on_c, 9, 69, 50
1, 18676, Note_off_c, 9, 69, 68
1, 18679, Note_off_c, 1, 33, 91
1, 18688, Note_on_c, 0, 81, 96
1, 18688, Note_on_c, 0, 84, 90
1, 18693, Note_off_c, 0, 82, 97
1, 18695, Note_off_c, 0, 79, 102
1, 18719, Note_on_c, 9, 42, 124
1, 18719, Note_on_c, 9, 69, 96
1, 18720, Note_off_c, 9, 42, 100
1, 18720, Note_on_c, 1, 45, 111
1, 18720, Note_on_c, 9, 64, 106
1, 18720, Note_off_c, 9, 69, 68
1, 18720, Note_on_c, 3, 79, 114
1, 18721, Note_off_c, 9, 64, 86
1, 18743, Note_off_c, 2, 62, 35
1, 18748, Note_off_c, 2, 65, 76
1, 18755, Note_off_c, 1, 45, 106
1, 18768, Note_on_c, 1, 45, 111
1, 18768, Note_on_c, 9, 64, 98
1, 18769, Note_off_c, 9, 64, 94
1, 18771, Note_on_c, 9, 69, 50
1, 18772, Note_on_c, 2, 62, 97
1, 18772, Note_off_c, 9, 69, 68
1, 18773, Note_off_c, 2, 70, 106
1, 18776, Note_off_c, 3, 79, 102
1, 18803, Note_off_c, 1, 45, 106
1, 18805, Note_off_c, 0, 84, 108
1, 18815, Note_on_c, 9, 42, 76
1, 18815, Note_off_c, 2, 62, 108
1, 18815, Note_on_c, 9, 69, 104
1, 18816, Note_on_c, 1, 34, 114
1, 18816, Note_on_c, 9, 36, 124
1, 18816, Note_off_c, 9, 42, 100
1, 18816, Note_on_c, 9, 63, 114
1, 18816, Note_on_c, 2, 65, 119
1, 18816, Note_off_c, 9, 69, 84
1, 18816, Note_on_c, 2, 70, 117
1, 18816, Note_on_c, 0, 77, 111
1, 18816, Note_on_c, 3, 81, 117
1, 18817, Note_off_c, 9, 36, 108
1, 18817, Note_off_c, 9, 63, 86
1, 18834, Note_off_c, 2, 70, 104
1, 18845, Note_off_c, 2, 65, 108
1, 18867, Note_off_c, 1, 34, 84
1, 18867, Note_on_c, 9, 69, 50
1, 18868, Note_off_c, 9, 69, 84
1, 18911, Note_on_c, 9, 42, 124
1, 18911, Note_on_c, 9, 69, 100
1, 18912, Note_off_c, 9, 42, 100
1, 18912, Note_on_c, 1, 46, 104
1, 18912, Note_on_c, 9, 63, 114
1, 18912, Note_off_c, 9, 69, 92
1, 18913, Note_off_c, 9, 63, 90
1, 18948, Note_off_c, 1, 46, 91
1, 18963, Note_on_c, 9, 69, 50
1, 18964, Note_off_c, 9, 69, 92
1, 18968, Note_off_c, 3, 81, 111
1, 19007, Note_on_c, 9, 42, 84
1, 19007, Note_on_c, 9, 69, 100
1, 19008, Note_on_c, 9, 36, 124
1, 19008, Note_on_c, 9, 40, 109
1, 19008, Note_off_c, 9, 42, 96
1, 19008, Note_on_c, 9, 62, 114
1, 19008, Note_on_c, 2, 65, 120
1, 19008, Note_off_c, 9, 69, 92
1, 19008, Note_on_c, 2, 70, 120
1, 19009, Note_off_c, 9, 36, 112
1, 19009, Note_off_c, 9, 40, 93
1, 19009, Note_off_c, 9, 62, 94
1, 19025, Note_off_c, 2, 70, 94
1, 19028, Note_off_c, 2, 65, 104
1, 19059, Note_on_c, 9, 69, 50
1, 19060, Note_off_c, 9, 69, 92
1, 19073, Pitch_bend_c, 2, 7808
1, 19086, Note_off_c, 12, 69, 13
1, 19086, Pitch_bend_c, 2, 6912
1, 19093, Pitch_bend_c, 2, 5504
1, 19100, Pitch_bend_c, 2, 3840
1, 19103, Note_on_c, 9, 42, 124
1, 19103, Note_on_c, 9, 69, 100
1, 19104, Note_off_c, 9, 42, 100
1, 19104, Note_on_c, 1, 46, 104
1, 19104, Note_on_c, 9, 64, 102
1, 19104, Note_off_c, 9, 69, 92
1, 19104, Note_on_c, 3, 74, 108
1, 19104, Note_on_c, 2, 74, 113
1, 19104, Note_on_c, 2, 79, 113
1, 19105, Note_off_c, 9, 64, 94
1, 19107, Pitch_bend_c, 2, 3200
1, 19115, Note_off_c, 12, 58, 81
1, 19115, Pitch_bend_c, 2, 3200
1, 19121, Note_off_c, 1, 46, 99
1, 19123, Pitch_bend_c, 2, 3584
1, 19124, Note_off_c, 3, 74, 104
1, 19131, Pitch_bend_c, 2, 6272
1, 19138, Pitch_bend_c, 2, 7168
1, 19145, Note_off_c, 12, 53, 97
1, 19145, Pitch_bend_c, 2, 7808
1, 19146, Note_off_c, 12, 62, 104
1, 19152, Note_on_c, 1, 46, 113
1, 19152, Note_on_c, 9, 64, 98
1, 19153, Note_off_c, 9, 64, 102
1, 19154, Pitch_bend_c, 2, 8192
1, 19155, Note_on_c, 9, 69, 50
1, 19156, Note_off_c, 9, 69, 92
1, 19161, Note_on_c, 12, 53, 94
1, 19176, Note_off_c, 0, 77, 81
1, 19176, Note_off_c, 1, 46, 84
1, 19179, Note_off_c, 0, 58, 88
1, 19184, Note_on_c, 12, 58, 104
1, 19189, Note_off_c, 0, 62, 104
1, 19190, Note_off_c, 0, 53, 84
1, 19195, Note_off_c, 0, 81, 108
1, 19199, Note_on_c, 9, 42, 92
1, 19199, Note_on_c, 9, 69, 96
1, 19200, Note_on_c, 1, 34, 114
1, 19200, Note_on_c, 9, 36, 124
1, 19200, Note_off_c, 9, 42, 100
1, 19200, Note_on_c, 0, 53, 94
1, 19200, Note_on_c, 0, 58, 94
1, 19200, Note_on_c, 9, 63, 110
1, 19200, Note_on_c, 0, 65, 94
1, 19200, Note_off_c, 9, 69, 80
1, 19200, Note_on_c, 3, 84, 119
1, 19201, Note_off_c, 9, 36, 76
1, 19201, Note_off_c, 9, 63, 82
1, 19201, Note_on_c, 0, 70, 111
1, 19202, Note_on_c, 0, 72, 110
1, 19203, Note_on_c, 12, 62, 96
1, 19214, Note_on_c, 0, 74, 104
1, 19224, Note_off_c, 0, 72, 102
1, 19236, Note_off_c, 1, 34, 102
1, 19237, Note_off_c, 2, 79, 94
1, 19251, Note_on_c, 9, 69, 50
1, 19252, Note_off_c, 9, 69, 80
1, 19262, Note_off_c, 2, 74, 76
1, 19276, Note_off_c, 3, 84, 102
1, 19295, Note_on_c, 9, 42, 124
1, 19295, Note_on_c, 9, 69, 88
1, 19296, Note_off_c, 9, 42, 96
1, 19296, Note_on_c, 1, 46, 113
1, 19296, Note_on_c, 9, 63, 106
1, 19296, Note_off_c, 9, 69, 76
1, 19296, Note_on_c, 2, 74, 97
1, 19296, Note_on_c, 2, 79, 106
1, 19296, Note_on_c, 3, 81, 114
1, 19297, Note_off_c, 9, 63, 74
1, 19319, Note_off_c, 3, 81, 102
1, 19329, Note_off_c, 1, 46, 97
1, 19347, Note_on_c, 9, 69, 50
1, 19348, Note_off_c, 9, 69, 76
1, 19377, Note_off_c, 2, 74, 106
1, 19384, Note_off_c, 2, 79, 108
1, 19391, Note_on_c, 9, 42, 112
1, 19391, Note_on_c, 9, 69, 104
1, 19392, Note_on_c, 9, 36, 124
1, 19392, Note_on_c, 9, 40, 109
1, 19392, Note_off_c, 9, 42, 100
1, 19392, Note_on_c, 9, 62, 114
1, 19392, Note_off_c, 9, 69, 68
1, 19392, Note_on_c, 2, 72, 113
1, 19392, Note_on_c, 2, 77, 113
1, 19392, Note_on_c, 3, 81, 122
1, 19393, Note_off_c, 9, 36, 96
1, 19393, Note_off_c, 9, 40, 81
1, 19393, Note_off_c, 9, 62, 98
1, 19426, Note_off_c, 2, 72, 110
1, 19430, Note_off_c, 3, 81, 111
1, 19434, Note_off_c, 2, 77, 97
1, 19443, Note_on_c, 9, 69, 50
1, 19444, Note_off_c, 9, 69, 68
1, 19487, Note_on_c, 9, 42, 124
1, 19487, Note_on_c, 9, 69, 96
1, 19488, Note_off_c, 9, 42, 100
1, 19488, Note_on_c, 1, 46, 111
1, 19488, Note_on_c, 9, 64, 106
1, 19488, Note_off_c, 9, 69, 68
1, 19488, Note_on_c, 3, 79, 116
1, 19489, Note_off_c, 9, 64, 86
1, 19506, Note_off_c, 1, 46, 97
1, 19522, Note_off_c, 3, 79, 110
1, 19536, Note_on_c, 9, 64, 98
1, 19537, Note_off_c, 9, 64, 94
1, 19539, Note_off_c, 12, 58, 84
1, 19539, Note_on_c, 9, 69, 50
1, 19540, Note_off_c, 9, 69, 68
1, 19548, Note_on_c, 12, 52, 88
1, 19553, Note_off_c, 12, 62, 94
1, 19561, Note_off_c, 12, 53, 91
1, 19578, Note_on_c, 12, 55, 101
1, 19579, Note_off_c, 0, 70, 60
1, 19582, Note_off_c, 0, 65, 102
1, 19583, Note_on_c, 9, 42, 88
1, 19583, Note_off_c, 0, 53, 102
1, 19583, Note_off_c, 0, 58, 102
1, 19583, Note_on_c, 9, 69, 104
1, 19584, Note_on_c, 1, 34, 114
1, 19584, Note_on_c, 9, 36, 124
1, 19584, Note_off_c, 9, 42, 100
1, 19584, Note_on_c, 0, 52, 97
1, 19584, Note_on_c, 9, 63, 114
1, 19584, Note_on_c, 0, 64, 99
1, 19584, Note_on_c, 0, 67, 99
1, 19584, Note_on_c, 2, 67, 110
1, 19584, Note_off_c, 9, 69, 84
1, 19584, Note_on_c, 0, 72, 102
1, 19584, Note_on_c, 2, 72, 110
1, 19584, Note_on_c, 3, 81, 122
1, 19585, Note_off_c, 9, 36, 108
1, 19585, Note_off_c, 9, 63, 86
1, 19590, Note_on_c, 12, 60, 97
1, 19590, Note_off_c, 0, 74, 13
1, 19601, Note_off_c, 2, 72, 113
1, 19603, Note_off_c, 2, 67, 113
1, 19618, Note_off_c, 1, 34, 104
1, 19635, Note_on_c, 9, 69, 50
1, 19636, Note_off_c, 9, 69, 84
1, 19679, Note_on_c, 9, 46, 124
1, 19679, Note_on_c, 9, 69, 100
1, 19680, Note_off_c, 9, 46, 100
1, 19680, Note_on_c, 1, 46, 113
1, 19680, Note_on_c, 9, 63, 114
1, 19680, Note_on_c, 2, 67, 113
1, 19680, Note_off_c, 9, 69, 92
1, 19680, Note_on_c, 2, 72, 122
1, 19681, Note_off_c, 9, 63, 90
1, 19686, Note_off_c, 3, 81, 110
1, 19693, Note_off_c, 2, 72, 111
1, 19699, Note_off_c, 2, 67, 111
1, 19709, Note_off_c, 1, 46, 104
1, 19728, Note_on_c, 3, 81, 119
1, 19731, Note_on_c, 9, 69, 50
1, 19732, Note_off_c, 9, 69, 92
1, 19775, Note_on_c, 9, 44, 89
1, 19775, Note_on_c, 9, 69, 100
1, 19776, Note_on_c, 1, 33, 102
1, 19776, Note_on_c, 9, 36, 124
1, 19776, Note_on_c, 9, 40, 85
1, 19776, Note_off_c, 9, 44, 100
1, 19776, Note_on_c, 9, 62, 114
1, 19776, Note_on_c, 2, 67, 113
1, 19776, Note_off_c, 9, 69, 92
1, 19776, Note_on_c, 2, 72, 122
1, 19777, Note_off_c, 9, 36, 112
1, 19777, Note_off_c, 9, 40, 93
1, 19777, Note_off_c, 9, 62, 94
1, 19779, Note_off_c, 3, 81, 113
1, 19805, Note_off_c, 2, 72, 108
1, 19816, Note_off_c, 12, 52, 108
1, 19816, Note_off_c, 1, 33, 99
1, 19817, Note_off_c, 12, 60, 111
1, 19818, Note_off_c, 12, 55, 71
1, 19824, Note_on_c, 9, 40, 110
1, 19825, Note_off_c, 9, 40, 93
1, 19827, Note_on_c, 9, 69, 50
1, 19828, Note_off_c, 9, 69, 92
1, 19828, Note_on_c, 2, 72, 111
1, 19855, Note_off_c, 2, 72, 110
1, 19865, Pitch_bend_c, 12, 8064
1, 19871, Note_on_c, 9, 69, 100
1, 19872, Note_on_c, 9, 40, 127
1, 19872, Note_on_c, 1, 45, 119
1, 19872, Note_on_c, 9, 64, 102
1, 19872, Note_off_c, 9, 69, 92
1, 19872, Note_on_c, 2, 72, 108
1, 19872, Note_on_c, 2, 57, 79
1, 19872, Note_on_c, 0, 61, 120
1, 19872, Note_off_c, 0, 61, 117
1, 19872, Note_on_c, 2, 62, 87
1, 19872, Note_on_c, 3, 84, 123
1, 19872, Pitch_bend_c, 12, 7680
1, 19872, Note_on_c, 12, 62, 120
1, 19872, Note_on_c, 12, 67, 119
1, 19873, Note_off_c, 9, 40, 93
1, 19873, Note_off_c, 9, 64, 94
1, 19873, Note_off_c, 2, 57, 104
1, 19873, Note_off_c, 2, 62, 104
1, 19877, Note_on_c, 0, 67, 114
1, 19879, Pitch_bend_c, 12, 4096
1, 19882, Note_on_c, 0, 62, 120
1, 19886, Note_off_c, 2, 67, 113
1, 19886, Pitch_bend_c, 12, 2176
1, 19893, Note_on_c, 0, 61, 99
1, 19893, Pitch_bend_c, 12, 1024
1, 19894, Note_off_c, 2, 72, 110
1, 19899, Note_off_c, 1, 45, 106
1, 19903, Pitch_bend_c, 12, 4864
1, 19904, Note_on_c, 2, 57, 115
1, 19904, Note_on_c, 2, 57, 108
1, 19904, Note_off_c, 2, 57, 114
1, 19905, Note_off_c, 0, 61, 91
1, 19907, Note_off_c, 2, 57, 106
1, 19910, Pitch_bend_c, 12, 6784
1, 19917, Pitch_bend_c, 12, 7552
1, 19920, Note_on_c, 9, 64, 98
1, 19921, Note_off_c, 9, 64, 102
1, 19923, Note_on_c, 9, 69, 50
1, 19924, Note_off_c, 9, 69, 92
1, 19924, Pitch_bend_c, 12, 7936
1, 19931, Pitch_bend_c, 12, 8192
1, 19936, Note_on_c, 2, 62, 113
1, 19936, Note_on_c, 2, 62, 107
1, 19936, Note_off_c, 2, 62, 114
1, 19940, Note_off_c, 2, 62, 106
1, 19962, Note_off_c, 0, 64, 111
1, 19966, Note_off_c, 0, 52, 84
1, 19966, Note_off_c, 0, 67, 111
1, 19966, Note_off_c, 0, 72, 108
1, 19967, Note_on_c, 9, 69, 96
1, 19968, Note_on_c, 9, 36, 124
1, 19968, Note_on_c, 1, 38, 116
1, 19968, Note_on_c, 9, 49, 124
1, 19968, Note_on_c, 11, 50, 116
1, 19968, Note_on_c, 2, 57, 122
1, 19968, Note_on_c, 2, 62, 124
1, 19968, Note_on_c, 9, 63, 120
1, 19968, Note_on_c, 2, 65, 123
1, 19968, Note_off_c, 9, 69, 80
1, 19969, Note_off_c, 9, 36, 76
1, 19969, Note_off_c, 9, 49, 100
1, 19969, Note_off_c, 9, 63, 92
1, 20003, Note_off_c, 2, 57, 84
1, 20003, Note_off_c, 2, 62, 111
1, 20015, Note_off_c, 0, 67, 104
1, 20019, Note_off_c, 0, 62, 108
1, 20019, Note_off_c, 2, 65, 108
1, 20019, Note_on_c, 9, 69, 50
1, 20020, Note_off_c, 9, 69, 80
1, 20029, Note_off_c, 3, 84, 110
1, 20033, Note_off_c, 1, 38, 94
1, 20039, Note_off_c, 12, 62, 108
1, 20039, Note_off_c, 12, 67, 108
1, 20063, Note_on_c, 9, 69, 88
1, 20064, Note_on_c, 1, 50, 114
1, 20064, Note_on_c, 0, 57, 108
1, 20064, Note_on_c, 2, 57, 113
1, 20064, Note_on_c, 0, 60, 110
1, 20064, Note_on_c, 12, 60, 110
1, 20064, Note_on_c, 2, 62, 117
1, 20064, Note_on_c, 9, 63, 116
1, 20064, Note_on_c, 0, 65, 110
1, 20064, Note_on_c, 12, 65, 110
1, 20064, Note_off_c, 9, 69, 76
1, 20064, Note_on_c, 3, 81, 122
1, 20065, Note_off_c, 9, 63, 84
1, 20079, Note_off_c, 2, 62, 119
1, 20080, Note_off_c, 1, 50, 116
1, 20083, Note_off_c, 0, 60, 111
1, 20084, Note_off_c, 0, 65, 111
1, 20087, Note_off_c, 12, 60, 102
1, 20089, Note_off_c, 0, 57, 94
1, 20090, Note_off_c, 12, 65, 94
1, 20091, Note_off_c, 2, 57, 104
1, 20097, Note_off_c, 3, 81, 111
1, 20112, Note_on_c, 1, 50, 117
1, 20115, Note_on_c, 9, 69, 50
1, 20116, Note_off_c, 9, 69, 76
1, 20132, Note_off_c, 1, 50, 102
1, 20159, Note_on_c, 9, 42, 7
1, 20159, Note_on_c, 9, 69, 104
1, 20160, Note_on_c, 9, 36, 124
1, 20160, Note_on_c, 1, 38, 117
1, 20160, Note_on_c, 9, 40, 124
1, 20160, Note_off_c, 9, 42, 88
1, 20160, Note_on_c, 0, 57, 111
1, 20160, Note_on_c, 2, 57, 122
1, 20160, Note_on_c, 0, 60, 119
1, 20160, Note_on_c, 12, 60, 113
1, 20160, Note_on_c, 2, 62, 124
1, 20160, Note_on_c, 9, 62, 124
1, 20160, Note_on_c, 0, 65, 117
1, 20160, Note_on_c, 2, 65, 124
1, 20160, Note_on_c, 12, 65, 113
1, 20160, Note_off_c, 9, 69, 68
1, 20160, Note_on_c, 3, 77, 123
1, 20161, Note_off_c, 9, 36, 96
1, 20161, Note_off_c, 9, 40, 96
1, 20161, Note_off_c, 9, 62, 108
1, 20190, Note_off_c, 2, 57, 108
1, 20192, Note_off_c, 2, 62, 111
1, 20197, Note_off_c, 3, 77, 113
1, 20205, Note_off_c, 2, 65, 108
1, 20211, Note_on_c, 9, 69, 50
1, 20212, Note_off_c, 9, 69, 68
1, 20229, Note_off_c, 1, 38, 97
1, 20255, Note_on_c, 9, 42, 112
1, 20255, Note_off_c, 12, 60, 104
1, 20255, Note_on_c, 9, 69, 96
1, 20256, Note_off_c, 9, 42, 88
1, 20256, Note_on_c, 1, 50, 114
1, 20256, Note_on_c, 12, 57, 104
1, 20256, Note_on_c, 0, 62, 117
1, 20256, Note_on_c, 12, 62, 111
1, 20256, Note_on_c, 9, 64, 116
1, 20256, Note_off_c, 9, 69, 68
1, 20256, Note_on_c, 3, 74, 119
1, 20257, Note_off_c, 9, 64, 96
1, 20262, Note_off_c, 0, 57, 104
1, 20266, Note_off_c, 0, 60, 102
1, 20270, Note_off_c, 0, 65, 104
1, 20273, Note_off_c, 1, 50, 114
1, 20282, Note_off_c, 12, 65, 97
1, 20283, Note_off_c, 0, 62, 106
1, 20294, Note_off_c, 3, 74, 104
1, 20304, Note_on_c, 1, 50, 114
1, 20304, Note_on_c, 9, 64, 108
1, 20305, Note_off_c, 9, 64, 104
1, 20307, Note_on_c, 9, 69, 50
1, 20308, Note_off_c, 9, 69, 68
1, 20325, Note_off_c, 1, 50, 94
1, 20351, Note_on_c, 9, 42, 52
1, 20351, Note_on_c, 9, 69, 104
1, 20352, Note_on_c, 9, 36, 124
1, 20352, Note_on_c, 1, 38, 122
1, 20352, Note_off_c, 9, 42, 92
1, 20352, Note_on_c, 0, 57, 113
1, 20352, Note_on_c, 2, 57, 122
1, 20352, Note_on_c, 0, 60, 119
1, 20352, Note_on_c, 12, 60, 106
1, 20352, Note_on_c, 2, 62, 124
1, 20352, Note_on_c, 9, 63, 124
1, 20352, Note_on_c, 0, 65, 119
1, 20352, Note_on_c, 2, 65, 124
1, 20352, Note_on_c, 12, 65, 111
1, 20352, Note_off_c, 9, 69, 84
1, 20352, Note_on_c, 3, 77, 123
1, 20353, Note_off_c, 9, 36, 108
1, 20353, Note_off_c, 9, 63, 96
1, 20357, Note_off_c, 12, 57, 108
1, 20369, Note_off_c, 12, 62, 97
1, 20383, Note_off_c, 2, 57, 108
1, 20385, Note_off_c, 2, 62, 111
1, 20403, Note_on_c, 9, 69, 50
1, 20404, Note_off_c, 9, 69, 84
1, 20417, Note_off_c, 1, 38, 97
1, 20429, Note_off_c, 2, 65, 13
1, 20447, Note_on_c, 9, 42, 124
1, 20447, Note_on_c, 9, 69, 100
1, 20448, Note_off_c, 9, 42, 92
1, 20448, Note_on_c, 1, 50, 113
1, 20448, Note_on_c, 9, 63, 124
1, 20448, Note_off_c, 9, 69, 92
1, 20449, Note_off_c, 9, 63, 100
1, 20465, Note_off_c, 1, 50, 113
1, 20496, Note_on_c, 1, 50, 108
1, 20499, Note_on_c, 9, 69, 50
1, 20500, Note_on_c, 2, 57, 99
1, 20500, Note_off_c, 9, 69, 92
1, 20520, Note_off_c, 1, 50, 97
1, 20526, Note_off_c, 2, 57, 102
1, 20532, Note_off_c, 3, 77, 110
1, 20536, Note_off_c, 12, 60, 104
1, 20539, Note_off_c, 12, 65, 106
1, 20542, Note_off_c, 0, 57, 108
1, 20543, Note_on_c, 9, 42, 84
1, 20543, Note_off_c, 0, 60, 110
1, 20543, Note_on_c, 9, 69, 100
1, 20544, Note_on_c, 9, 36, 124
1, 20544, Note_on_c, 1, 38, 117
1, 20544, Note_on_c, 9, 40, 124
1, 20544, Note_off_c, 9, 42, 96
1, 20544, Note_on_c, 2, 57, 117
1, 20544, Note_on_c, 12, 57, 114
1, 20544, Note_on_c, 0, 62, 116
1, 20544, Note_on_c, 2, 62, 124
1, 20544, Note_on_c, 12, 62, 104
1, 20544, Note_on_c, 9, 62, 124
1, 20544, Note_on_c, 2, 65, 122
1, 20544, Note_off_c, 9, 69, 92
1, 20544, Note_on_c, 3, 74, 114
1, 20545, Note_off_c, 9, 36, 112
1, 20545, Note_off_c, 9, 40, 108
1, 20545, Note_off_c, 9, 62, 104
1, 20548, Note_off_c, 0, 65, 110
1, 20566, Note_off_c, 0, 62, 104
1, 20570, Note_off_c, 12, 62, 94
1, 20572, Note_off_c, 2, 57, 110
1, 20572, Note_off_c, 2, 62, 111
1, 20581, Note_off_c, 3, 74, 104
1, 20595, Note_on_c, 9, 69, 50
1, 20596, Note_off_c, 9, 69, 92
1, 20600, Note_off_c, 2, 65, 91
1, 20604, Note_off_c, 12, 57, 99
1, 20609, Pitch_bend_c, 12, 7808
1, 20614, Note_off_c, 1, 38, 102
1, 20619, Pitch_bend_c, 12, 6400
1, 20626, Pitch_bend_c, 12, 3584
1, 20633, Pitch_bend_c, 12, 1792
1, 20635, Note_on_c, 0, 61, 117
1, 20638, Note_on_c, 0, 67, 114
1, 20639, Note_on_c, 9, 42, 124
1, 20639, Note_on_c, 9, 69, 100
1, 20640, Note_off_c, 9, 42, 96
1, 20640, Note_on_c, 1, 50, 116
1, 20640, Note_on_c, 12, 62, 119
1, 20640, Note_on_c, 9, 64, 112
1, 20640, Note_on_c, 12, 67, 116
1, 20640, Note_off_c, 9, 69, 92
1, 20640, Note_on_c, 3, 84, 122
1, 20641, Note_off_c, 9, 64, 104
1, 20642, Pitch_bend_c, 12, 1280
1, 20649, Note_on_c, 0, 62, 119
1, 20653, Pitch_bend_c, 12, 5888
1, 20654, Note_off_c, 0, 61, 111
1, 20658, Note_off_c, 1, 50, 113
1, 20660, Pitch_bend_c, 12, 7424
1, 20667, Pitch_bend_c, 12, 7808
1, 20676, Pitch_bend_c, 12, 8192
1, 20688, Note_on_c, 1, 50, 119
1, 20688, Note_on_c, 9, 64, 108
1, 20689, Note_off_c, 9, 64, 112
1, 20691, Note_on_c, 9, 69, 50
1, 20692, Note_off_c, 9, 69, 92
1, 20706, Note_off_c, 1, 50, 97
1, 20735, Note_on_c, 9, 42, 76
1, 20735, Note_on_c, 9, 69, 96
1, 20736, Note_on_c, 9, 36, 124
1, 20736, Note_on_c, 1, 38, 120
1, 20736, Note_off_c, 9, 42, 100
1, 20736, Note_on_c, 2, 57, 122
1, 20736, Note_on_c, 2, 62, 124
1, 20736, Note_on_c, 9, 63, 120
1, 20736, Note_on_c, 2, 65, 124
1, 20736, Note_off_c, 9, 69, 80
1, 20737, Note_off_c, 9, 36, 76
1, 20737, Note_off_c, 9, 63, 92
1, 20766, Note_off_c, 2, 62, 111
1, 20768, Note_off_c, 2, 57, 110
1, 20770, Note_off_c, 2, 65, 110
1, 20783, Note_off_c, 3, 84, 110
1, 20787, Note_on_c, 9, 69, 50
1, 20788, Note_off_c, 9, 69, 80
1, 20789, Note_off_c, 0, 67, 106
1, 20794, Note_off_c, 0, 62, 110
1, 20801, Note_off_c, 1, 38, 102
1, 20831, Note_on_c, 9, 42, 124
1, 20831, Note_on_c, 9, 69, 88
1, 20832, Note_off_c, 9, 42, 100
1, 20832, Note_on_c, 1, 50, 116
1, 20832, Note_on_c, 0, 57, 108
1, 20832, Note_on_c, 2, 57, 111
1, 20832, Note_on_c, 0, 60, 113
1, 20832, Note_on_c, 12, 60, 113
1, 20832, Note_on_c, 2, 62, 119
1, 20832, Note_on_c, 9, 63, 116
1, 20832, Note_on_c, 0, 65, 114
1, 20832, Note_on_c, 2, 65, 117
1, 20832, Note_on_c, 12, 65, 111
1, 20832, Note_off_c, 9, 69, 76
1, 20832, Note_on_c, 3, 81, 119
1, 20833, Note_off_c, 9, 63, 84
1, 20839, Note_off_c, 12, 62, 108
1, 20845, Note_off_c, 12, 67, 108
1, 20850, Note_off_c, 0, 60, 113
1, 20850, Note_off_c, 1, 50, 111
1, 20852, Note_off_c, 12, 60, 99
1, 20856, Note_off_c, 0, 57, 97
1, 20856, Note_off_c, 12, 65, 97
1, 20857, Note_off_c, 2, 57, 102
1, 20859, Note_off_c, 2, 62, 113
1, 20859, Note_off_c, 3, 81, 113
1, 20861, Note_off_c, 0, 65, 106
1, 20863, Note_off_c, 2, 65, 108
1, 20880, Note_on_c, 1, 50, 120
1, 20883, Note_on_c, 9, 69, 50
1, 20884, Note_off_c, 9, 69, 76
1, 20895, Note_off_c, 1, 50, 111
1, 20927, Note_on_c, 9, 42, 80
1, 20927, Note_on_c, 9, 69, 104
1, 20928, Note_on_c, 9, 36, 124
1, 20928, Note_on_c, 1, 38, 122
1, 20928, Note_on_c, 9, 40, 124
1, 20928, Note_off_c, 9, 42, 96
1, 20928, Note_on_c, 0, 57, 110
1, 20928, Note_on_c, 2, 57, 119
1, 20928, Note_on_c, 0, 60, 120
1, 20928, Note_on_c, 12, 60, 113
1, 20928, Note_on_c, 2, 62, 124
1, 20928, Note_on_c, 9, 62, 124
1, 20928, Note_on_c, 0, 65, 117
1, 20928, Note_on_c, 2, 65, 124
1, 20928, Note_on_c, 12, 65, 114
1, 20928, Note_off_c, 9, 69, 68
1, 20928, Note_on_c, 3, 77, 122
1, 20929, Note_off_c, 9, 36, 96
1, 20929, Note_off_c, 9, 40, 96
1, 20929, Note_off_c, 9, 62, 108
1, 20958, Note_off_c, 2, 57, 108
1, 20958, Note_off_c, 2, 62, 113
1, 20961, Note_off_c, 3, 77, 113
1, 20966, Note_off_c, 2, 65, 111
1, 20979, Note_on_c, 9, 69, 50
1, 20980, Note_off_c, 9, 69, 68
1, 21001, Note_off_c, 1, 38, 102
1, 21015, Note_off_c, 0, 57, 102
1, 21016, Note_off_c, 12, 60, 108
1, 21023, Note_on_c, 9, 42, 124
1, 21023, Note_on_c, 9, 69, 96
1, 21024, Note_off_c, 9, 42, 96
1, 21024, Note_on_c, 1, 50, 116
1, 21024, Note_on_c, 12, 57, 106
1, 21024, Note_on_c, 0, 62, 113
1, 21024, Note_on_c, 12, 62, 108
1, 21024, Note_on_c, 9, 64, 116
1, 21024, Note_off_c, 9, 69, 68
1, 21024, Note_on_c, 3, 74, 120
1, 21025, Note_off_c, 9, 64, 96
1, 21033, Note_off_c, 0, 60, 108
1, 21034, Note_off_c, 0, 65, 106
1, 21041, Note_off_c, 1, 50, 113
1, 21047, Note_off_c, 12, 65, 102
1, 21049, Note_off_c, 0, 62, 104
1, 21067, Note_off_c, 3, 74, 104
1, 21072, Note_on_c, 1, 50, 116
1, 21072, Note_on_c, 9, 64, 108
1, 21073, Note_off_c, 9, 64, 104
1, 21075, Note_on_c, 9, 69, 50
1, 21076, Note_off_c, 9, 69, 68
1, 21093, Note_off_c, 1, 50, 99
1, 21119, Note_on_c, 9, 42, 92
1, 21119, Note_on_c, 9, 69, 104
1, 21120, Note_on_c, 9, 36, 124
1, 21120, Note_on_c, 1, 38, 122
1, 21120, Note_off_c, 9, 42, 100
1, 21120, Note_on_c, 0, 57, 111
1, 21120, Note_on_c, 2, 57, 120
1, 21120, Note_on_c, 0, 60, 117
1, 21120, Note_on_c, 12, 60, 110
1, 21120, Note_on_c, 2, 62, 123
1, 21120, Note_on_c, 9, 63, 124
1, 21120, Note_on_c, 0, 65, 119
1, 21120, Note_on_c, 2, 65, 122
1, 21120, Note_on_c, 12, 65, 114
1, 21120, Note_off_c, 9, 69, 84
1, 21120, Note_on_c, 3, 77, 123
1, 21121, Note_off_c, 9, 36, 108
1, 21121, Note_off_c, 9, 63, 96
1, 21124, Note_off_c, 12, 57, 106
1, 21132, Note_off_c, 12, 62, 106
1, 21145, Note_off_c, 2, 62, 113
1, 21149, Note_off_c, 2, 57, 108
1, 21149, Note_off_c, 2, 65, 111
1, 21171, Note_on_c, 9, 69, 50
1, 21172, Note_off_c, 9, 69, 84
1, 21178, Note_off_c, 1, 38, 91
1, 21215, Note_on_c, 9, 42, 124
1, 21215, Note_on_c, 9, 69, 100
1, 21216, Note_off_c, 9, 42, 96
1, 21216, Note_on_c, 1, 50, 114
1, 21216, Note_on_c, 2, 57, 113
1, 21216, Note_on_c, 2, 62, 122
1, 21216, Note_on_c, 9, 63, 124
1, 21216, Note_on_c, 2, 65, 122
1, 21216, Note_off_c, 9, 69, 92
1, 21217, Note_off_c, 9, 63, 100
1, 21235, Note_off_c, 1, 50, 108
1, 21240, Note_off_c, 2, 57, 102
1, 21264, Note_on_c, 1, 50, 113
1, 21267, Note_on_c, 9, 69, 50
1, 21268, Note_on_c, 2, 57, 97
1, 21268, Note_off_c, 9, 69, 92
1, 21282, Note_off_c, 2, 65, 104
1, 21286, Note_off_c, 1, 50, 104
1, 21291, Note_off_c, 2, 62, 108
1, 21296, Note_off_c, 12, 60, 106
1, 21309, Note_off_c, 0, 60, 106
1, 21310, Note_off_c, 0, 57, 108
1, 21311, Note_on_c, 9, 42, 96
1, 21311, Note_on_c, 9, 69, 100
1, 21312, Note_on_c, 9, 36, 124
1, 21312, Note_on_c, 1, 38, 117
1, 21312, Note_on_c, 9, 40, 124
1, 21312, Note_off_c, 9, 42, 100
1, 21312, Note_on_c, 12, 57, 110
1, 21312, Note_on_c, 0, 62, 116
1, 21312, Note_on_c, 2, 62, 114
1, 21312, Note_on_c, 12, 62, 108
1, 21312, Note_on_c, 9, 62, 124
1, 21312, Note_on_c, 2, 65, 123
1, 21312, Note_off_c, 9, 69, 92
1, 21312, Note_on_c, 3, 74, 114
1, 21313, Note_off_c, 9, 36, 112
1, 21313, Note_off_c, 9, 40, 108
1, 21313, Note_off_c, 9, 62, 104
1, 21315, Note_off_c, 3, 77, 111
1, 21319, Note_off_c, 12, 65, 106
1, 21321, Note_off_c, 0, 65, 110
1, 21340, Note_off_c, 0, 62, 106
1, 21341, Note_off_c, 2, 57, 108
1, 21347, Note_off_c, 2, 62, 113
1, 21350, Note_off_c, 2, 65, 111
1, 21350, Note_off_c, 3, 74, 106
1, 21357, Note_off_c, 12, 62, 104
1, 21363, Note_on_c, 9, 69, 50
1, 21364, Note_off_c, 9, 69, 92
1, 21374, Note_off_c, 12, 57, 104
1, 21379, Note_off_c, 1, 38, 91
1, 21386, Pitch_bend_c, 12, 8064
1, 21393, Pitch_bend_c, 12, 7808
1, 21400, Pitch_bend_c, 12, 4992
1, 21401, Note_on_c, 0, 61, 117
1, 21404, Note_on_c, 0, 67, 116
1, 21407, Note_on_c, 9, 42, 124
1, 21407, Note_on_c, 9, 69, 100
1, 21408, Note_off_c, 9, 42, 100
1, 21408, Note_on_c, 1, 50, 116
1, 21408, Note_on_c, 12, 62, 119
1, 21408, Note_on_c, 9, 64, 112
1, 21408, Note_on_c, 12, 67, 116
1, 21408, Note_off_c, 9, 69, 92
1, 21408, Note_on_c, 3, 84, 123
1, 21409, Note_off_c, 9, 64, 104
1, 21409, Pitch_bend_c, 12, 2816
1, 21416, Pitch_bend_c, 12, 3840
1, 21418, Note_on_c, 0, 62, 116
1, 21421, Note_off_c, 0, 61, 110
1, 21426, Pitch_bend_c, 12, 6784
1, 21433, Note_off_c, 1, 50, 108
1, 21433, Pitch_bend_c, 12, 7552
1, 21440, Pitch_bend_c, 12, 7936
1, 21447, Pitch_bend_c, 12, 8192
1, 21456, Note_on_c, 1, 50, 110
1, 21456, Note_on_c, 9, 64, 108
1, 21457, Note_off_c, 9, 64, 112
1, 21459, Note_on_c, 9, 69, 50
1, 21460, Note_off_c, 9, 69, 92
1, 21484, Note_off_c, 1, 50, 110
1, 21503, Note_on_c, 9, 42, 76
1, 21503, Note_off_c, 11, 50, 108
1, 21503, Note_on_c, 9, 69, 96
1, 21504, Note_on_c, 9, 36, 124
1, 21504, Note_on_c, 11, 41, 116
1, 21504, Note_on_c, 1, 41, 122
1, 21504, Note_off_c, 9, 42, 96
1, 21504, Note_on_c, 2, 57, 114
1, 21504, Note_on_c, 2, 60, 119
1, 21504, Note_on_c, 9, 63, 120
1, 21504, Note_on_c, 2, 65, 117
1, 21504, Note_off_c, 9, 69, 80
1, 21505, Note_off_c, 9, 36, 76
1, 21505, Note_off_c, 9, 63, 92
1, 21520, Note_off_c, 2, 60, 111
1, 21528, Note_off_c, 2, 57, 104
1, 21531, Note_off_c, 2, 65, 108
1, 21555, Note_off_c, 0, 67, 110
1, 21555, Note_on_c, 9, 69, 50
1, 21556, Note_off_c, 3, 84, 110
1, 21556, Note_off_c, 9, 69, 80
1, 21564, Note_off_c, 0, 62, 110
1, 21575, Note_off_c, 1, 41, 108
1, 21596, Note_off_c, 12, 62, 108
1, 21598, Note_off_c, 12, 67, 108
1, 21599, Note_on_c, 9, 42, 124
1, 21599, Note_on_c, 9, 69, 88
1, 21600, Note_off_c, 9, 42, 100
1, 21600, Note_on_c, 1, 53, 113
1, 21600, Note_on_c, 0, 57, 108
1, 21600, Note_on_c, 2, 57, 116
1, 21600, Note_on_c, 0, 60, 114
1, 21600, Note_on_c, 2, 60, 116
1, 21600, Note_on_c, 12, 60, 111
1, 21600, Note_on_c, 9, 63, 116
1, 21600, Note_on_c, 0, 65, 111
1, 21600, Note_on_c, 2, 65, 110
1, 21600, Note_on_c, 12, 65, 113
1, 21600, Note_off_c, 9, 69, 76
1, 21600, Note_on_c, 3, 81, 119
1, 21601, Note_off_c, 9, 63, 84
1, 21614, Note_off_c, 2, 60, 116
1, 21621, Note_off_c, 1, 53, 108
1, 21623, Note_off_c, 0, 60, 106
1, 21623, Note_off_c, 2, 65, 108
1, 21625, Note_off_c, 0, 65, 97
1, 21626, Note_off_c, 0, 57, 91
1, 21627, Note_off_c, 2, 57, 104
1, 21629, Note_off_c, 12, 60, 104
1, 21634, Note_off_c, 12, 65, 110
1, 21635, Note_off_c, 3, 81, 111
1, 21648, Note_on_c, 1, 53, 113
1, 21651, Note_on_c, 9, 69, 50
1, 21652, Note_off_c, 9, 69, 76
1, 21671, Note_off_c, 1, 53, 99
1, 21695, Note_on_c, 9, 42, 92
1, 21695, Note_on_c, 9, 69, 104
1, 21696, Note_on_c, 9, 36, 124
1, 21696, Note_on_c, 9, 40, 124
1, 21696, Note_on_c, 1, 41, 120
1, 21696, Note_off_c, 9, 42, 100
1, 21696, Note_on_c, 0, 57, 110
1, 21696, Note_on_c, 2, 57, 119
1, 21696, Note_on_c, 0, 60, 116
1, 21696, Note_on_c, 2, 60, 123
1, 21696, Note_on_c, 12, 60, 114
1, 21696, Note_on_c, 9, 62, 124
1, 21696, Note_on_c, 0, 65, 116
1, 21696, Note_on_c, 2, 65, 122
1, 21696, Note_on_c, 12, 65, 114
1, 21696, Note_off_c, 9, 69, 68
1, 21696, Note_on_c, 3, 77, 122
1, 21697, Note_off_c, 9, 36, 96
1, 21697, Note_off_c, 9, 40, 96
1, 21697, Note_off_c, 9, 62, 108
1, 21735, Note_off_c, 3, 77, 111
1, 21747, Note_on_c, 9, 69, 50
1, 21748, Note_off_c, 9, 69, 68
1, 21765, Note_off_c, 2, 57, 106
1, 21765, Note_off_c, 1, 41, 108
1, 21768, Note_off_c, 2, 60, 111
1, 21768, Note_off_c, 2, 65, 110
1, 21788, Note_off_c, 12, 60, 110
1, 21789, Note_off_c, 0, 57, 102
1, 21791, Note_on_c, 9, 42, 124
1, 21791, Note_on_c, 9, 69, 96
1, 21792, Note_off_c, 12, 65, 104
1, 21792, Note_off_c, 9, 42, 92
1, 21792, Note_on_c, 1, 53, 113
1, 21792, Note_on_c, 12, 57, 111
1, 21792, Note_on_c, 0, 62, 116
1, 21792, Note_on_c, 12, 62, 113
1, 21792, Note_on_c, 9, 64, 116
1, 21792, Note_off_c, 9, 69, 68
1, 21792, Note_on_c, 3, 74, 119
1, 21793, Note_off_c, 9, 64, 96
1, 21798, Note_off_c, 0, 60, 106
1, 21803, Note_off_c, 0, 65, 104
1, 21814, Note_off_c, 1, 53, 108
1, 21822, Note_off_c, 0, 62, 110
1, 21834, Note_off_c, 3, 74, 106
1, 21840, Note_on_c, 1, 53, 113
1, 21840, Note_on_c, 9, 64, 108
1, 21841, Note_off_c, 9, 64, 104
1, 21843, Note_on_c, 9, 69, 50
1, 21844, Note_off_c, 9, 69, 68
1, 21862, Note_off_c, 1, 53, 104
1, 21887, Note_on_c, 9, 42, 84
1, 21887, Note_on_c, 9, 69, 104
1, 21888, Note_on_c, 9, 36, 124
1, 21888, Note_on_c, 1, 41, 122
1, 21888, Note_off_c, 9, 42, 96
1, 21888, Note_on_c, 0, 57, 111
1, 21888, Note_on_c, 2, 57, 113
1, 21888, Note_on_c, 0, 60, 116
1, 21888, Note_on_c, 2, 60, 122
1, 21888, Note_on_c, 12, 60, 111
1, 21888, Note_on_c, 9, 63, 124
1, 21888, Note_on_c, 0, 65, 116
1, 21888, Note_on_c, 2, 65, 120
1, 21888, Note_on_c, 12, 65, 113
1, 21888, Note_off_c, 9, 69, 84
1, 21888, Note_on_c, 3, 77, 122
1, 21889, Note_off_c, 12, 57, 108
1, 21889, Note_off_c, 9, 36, 108
1, 21889, Note_off_c, 9, 63, 96
1, 21894, Note_off_c, 12, 62, 108
1, 21939, Note_on_c, 9, 69, 50
1, 21940, Note_off_c, 9, 69, 84
1, 21958, Note_off_c, 1, 41, 106
1, 21983, Note_on_c, 9, 42, 124
1, 21983, Note_on_c, 9, 69, 100
1, 21984, Note_off_c, 9, 42, 100
1, 21984, Note_on_c, 1, 53, 110
1, 21984, Note_on_c, 9, 63, 124
1, 21984, Note_off_c, 9, 69, 92
1, 21985, Note_off_c, 9, 63, 100
1, 21987, Note_off_c, 2, 57, 71
1, 22005, Note_off_c, 1, 53, 108
1, 22012, Note_off_c, 2, 65, 66
1, 22032, Note_on_c, 1, 53, 108
1, 22035, Note_on_c, 9, 69, 50
1, 22036, Note_on_c, 2, 57, 102
1, 22036, Note_off_c, 9, 69, 92
1, 22042, Note_off_c, 2, 60, 66
1, 22060, Note_off_c, 1, 53, 108
1, 22074, Note_off_c, 12, 60, 108
1, 22076, Note_off_c, 3, 77, 110
1, 22078, Note_off_c, 0, 60, 108
1, 22079, Note_on_c, 9, 42, 100
1, 22079, Note_on_c, 9, 69, 100
1, 22080, Note_on_c, 9, 36, 124
1, 22080, Note_on_c, 9, 40, 124
1, 22080, Note_on_c, 1, 41, 120
1, 22080, Note_off_c, 9, 42, 100
1, 22080, Note_on_c, 12, 57, 108
1, 22080, Note_on_c, 2, 60, 122
1, 22080, Note_on_c, 0, 62, 113
1, 22080, Note_on_c, 12, 62, 113
1, 22080, Note_on_c, 9, 62, 124
1, 22080, Note_on_c, 2, 65, 120
1, 22080, Note_off_c, 9, 69, 92
1, 22080, Note_on_c, 3, 74, 113
1, 22081, Note_off_c, 0, 57, 106
1, 22081, Note_off_c, 12, 65, 97
1, 22081, Note_off_c, 9, 36, 112
1, 22081, Note_off_c, 9, 40, 108
1, 22081, Note_off_c, 9, 62, 104
1, 22084, Note_off_c, 0, 65, 108
1, 22100, Note_off_c, 0, 62, 102
1, 22104, Note_off_c, 2, 65, 108
1, 22119, Note_off_c, 2, 60, 108
1, 22129, Note_off_c, 2, 57, 102
1, 22130, Note_off_c, 3, 74, 102
1, 22131, Note_on_c, 9, 69, 50
1, 22132, Note_off_c, 9, 69, 92
1, 22146, Note_off_c, 1, 41, 106
1, 22174, Note_off_c, 12, 62, 108
1, 22175, Note_on_c, 9, 42, 124
1, 22175, Note_on_c, 9, 69, 100
1, 22176, Note_off_c, 9, 42, 100
1, 22176, Note_on_c, 12, 53, 108
1, 22176, Note_on_c, 1, 53, 113
1, 22176, Note_on_c, 0, 60, 111
1, 22176, Note_on_c, 12, 60, 114
1, 22176, Note_on_c, 9, 64, 112
1, 22176, Note_on_c, 0, 65, 113
1, 22176, Note_off_c, 9, 69, 92
1, 22176, Note_on_c, 0, 69, 117
1, 22176, Note_on_c, 3, 81, 122
1, 22177, Note_off_c, 9, 64, 104
1, 22196, Note_off_c, 1, 53, 111
1, 22224, Note_on_c, 1, 53, 114
1, 22224, Note_on_c, 9, 64, 108
1, 22225, Note_off_c, 9, 64, 112
1, 22227, Note_on_c, 9, 69, 50
1, 22228, Note_off_c, 9, 69, 92
1, 22251, Note_off_c, 1, 53, 108
1, 22271, Note_on_c, 9, 42, 92
1, 22271, Note_on_c, 9, 69, 96
1, 22272, Note_on_c, 9, 36, 124
1, 22272, Note_on_c, 1, 41, 120
1, 22272, Note_off_c, 9, 42, 100
1, 22272, Note_on_c, 2, 57, 108
1, 22272, Note_on_c, 2, 60, 119
1, 22272, Note_on_c, 9, 63, 120
1, 22272, Note_on_c, 2, 65, 117
1, 22272, Note_off_c, 9, 69, 80
1, 22273, Note_off_c, 9, 36, 76
1, 22273, Note_off_c, 9, 63, 92
1, 22299, Note_off_c, 2, 57, 104
1, 22301, Note_off_c, 2, 60, 111
1, 22304, Note_off_c, 2, 65, 110
1, 22323, Note_on_c, 9, 69, 50
1, 22324, Note_off_c, 9, 69, 80
1, 22357, Note_off_c, 1, 41, 99
1, 22367, Note_on_c, 9, 42, 124
1, 22367, Note_on_c, 9, 69, 88
1, 22368, Note_off_c, 9, 42, 100
1, 22368, Note_on_c, 1, 53, 114
1, 22368, Note_on_c, 2, 57, 113
1, 22368, Note_on_c, 2, 60, 120
1, 22368, Note_on_c, 9, 63, 116
1, 22368, Note_on_c, 2, 65, 117
1, 22368, Note_off_c, 9, 69, 76
1, 22369, Note_off_c, 9, 63, 84
1, 22391, Note_off_c, 2, 60, 108
1, 22394, Note_off_c, 2, 57, 106
1, 22394, Note_off_c, 1, 53, 108
1, 22397, Note_off_c, 2, 65, 102
1, 22416, Note_on_c, 1, 53, 108
1, 22419, Note_on_c, 9, 69, 50
1, 22420, Note_off_c, 9, 69, 76
1, 22445, Note_off_c, 1, 53, 108
1, 22461, Note_off_c, 3, 81, 113
1, 22463, Note_off_c, 11, 41, 104
1, 22463, Note_on_c, 9, 42, 100
1, 22463, Note_on_c, 9, 69, 104
1, 22464, Note_on_c, 9, 36, 124
1, 22464, Note_on_c, 9, 40, 124
1, 22464, Note_off_c, 9, 42, 100
1, 22464, Note_on_c, 11, 43, 119
1, 22464, Note_on_c, 1, 43, 119
1, 22464, Note_on_c, 2, 57, 116
1, 22464, Note_on_c, 2, 60, 122
1, 22464, Note_on_c, 9, 62, 124
1, 22464, Note_on_c, 2, 65, 120
1, 22464, Note_off_c, 9, 69, 68
1, 22465, Note_off_c, 9, 36, 96
1, 22465, Note_off_c, 9, 40, 96
1, 22465, Note_off_c, 9, 62, 108
1, 22515, Note_on_c, 9, 69, 50
1, 22516, Note_off_c, 9, 69, 68
1, 22534, Note_off_c, 1, 43, 104
1, 22537, Note_off_c, 2, 65, 110
1, 22540, Note_off_c, 2, 60, 97
1, 22546, Note_off_c, 2, 57, 104
1, 22559, Note_on_c, 9, 42, 124
1, 22559, Note_on_c, 9, 69, 96
1, 22560, Note_off_c, 9, 42, 104
1, 22560, Note_on_c, 1, 55, 113
1, 22560, Note_on_c, 9, 64, 116
1, 22560, Note_off_c, 9, 69, 68
1, 22561, Note_off_c, 9, 64, 96
1, 22580, Note_off_c, 1, 55, 111
1, 22608, Note_on_c, 1, 55, 108
1, 22608, Note_on_c, 9, 64, 108
1, 22609, Note_off_c, 9, 64, 104
1, 22611, Note_on_c, 9, 69, 50
1, 22612, Note_off_c, 9, 69, 68
1, 22635, Note_off_c, 1, 55, 110
1, 22655, Note_on_c, 9, 42, 92
1, 22655, Note_off_c, 11, 43, 102
1, 22655, Note_on_c, 9, 69, 104
1, 22656, Note_on_c, 9, 36, 124
1, 22656, Note_off_c, 9, 42, 100
1, 22656, Note_on_c, 11, 45, 116
1, 22656, Note_on_c, 1, 45, 122
1, 22656, Note_on_c, 2, 57, 117
1, 22656, Note_on_c, 2, 60, 122
1, 22656, Note_on_c, 9, 63, 124
1, 22656, Note_on_c, 2, 65, 122
1, 22656, Note_off_c, 9, 69, 84
1, 22657, Note_off_c, 9, 36, 108
1, 22657, Note_off_c, 9, 63, 96
1, 22707, Note_on_c, 9, 69, 50
1, 22708, Note_off_c, 9, 69, 84
1, 22727, Note_off_c, 1, 45, 108
1, 22751, Note_on_c, 9, 42, 124
1, 22751, Note_on_c, 9, 69, 100
1, 22752, Note_off_c, 9, 42, 108
1, 22752, Note_on_c, 1, 57, 116
1, 22752, Note_on_c, 9, 63, 124
1, 22752, Note_off_c, 9, 69, 92
1, 22753, Note_off_c, 9, 63, 100
1, 22756, Note_off_c, 2, 57, 84
1, 22779, Note_off_c, 1, 57, 106
1, 22782, Note_off_c, 2, 65, 71
1, 22800, Note_on_c, 1, 57, 106
1, 22803, Note_on_c, 9, 69, 50
1, 22804, Note_on_c, 2, 57, 97
1, 22804, Note_off_c, 9, 69, 92
1, 22818, Note_off_c, 2, 60, 13
1, 22826, Note_off_c, 1, 57, 106
1, 22831, Note_off_c, 2, 57, 97
1, 22843, Note_off_c, 0, 65, 110
1, 22844, Note_off_c, 0, 60, 111
1, 22847, Note_on_c, 9, 42, 96
1, 22847, Note_off_c, 11, 45, 108
1, 22847, Note_on_c, 9, 69, 100
1, 22848, Note_on_c, 9, 36, 124
1, 22848, Note_on_c, 9, 40, 124
1, 22848, Note_on_c, 11, 41, 122
1, 22848, Note_on_c, 1, 41, 120
1, 22848, Note_off_c, 9, 42, 100
1, 22848, Note_on_c, 2, 57, 113
1, 22848, Note_on_c, 2, 60, 117
1, 22848, Note_on_c, 9, 62, 124
1, 22848, Note_on_c, 2, 65, 120
1, 22848, Note_off_c, 9, 69, 92
1, 22849, Note_off_c, 9, 36, 112
1, 22849, Note_off_c, 9, 40, 108
1, 22849, Note_off_c, 9, 62, 104
1, 22850, Note_off_c, 0, 69, 108
1, 22864, Note_off_c, 12, 60, 111
1, 22867, Note_off_c, 2, 65, 108
1, 22868, Note_off_c, 2, 60, 110
1, 22874, Note_off_c, 12, 57, 108
1, 22877, Note_off_c, 12, 53, 106
1, 22881, Note_off_c, 2, 57, 104
1, 22899, Note_on_c, 9, 69, 50
1, 22900, Note_off_c, 9, 69, 92
1, 22922, Pitch_bend_c, 12, 8064
1, 22929, Pitch_bend_c, 12, 7680
1, 22931, Note_off_c, 1, 41, 111
1, 22936, Pitch_bend_c, 12, 4864
1, 22943, Note_on_c, 9, 46, 121
1, 22943, Note_on_c, 9, 69, 100
1, 22944, Note_off_c, 9, 46, 100
1, 22944, Note_on_c, 2, 57, 96
1, 22944, Note_on_c, 2, 60, 98
1, 22944, Note_on_c, 0, 61, 120
1, 22944, Note_off_c, 9, 69, 92
1, 22944, Note_off_c, 0, 61, 117
1, 22944, Note_on_c, 12, 62, 119
1, 22944, Note_on_c, 2, 65, 98
1, 22944, Note_on_c, 3, 84, 123
1, 22944, Pitch_bend_c, 12, 2048
1, 22944, Note_on_c, 1, 53, 111
1, 22944, Note_on_c, 9, 64, 112
1, 22944, Note_on_c, 12, 67, 116
1, 22945, Note_off_c, 9, 64, 104
1, 22949, Note_on_c, 0, 67, 114
1, 22952, Pitch_bend_c, 12, 1024
1, 22954, Note_on_c, 0, 62, 120
1, 22959, Pitch_bend_c, 12, 1408
1, 22963, Note_off_c, 2, 65, 108
1, 22964, Note_off_c, 2, 60, 110
1, 22965, Note_off_c, 1, 53, 113
1, 22965, Note_on_c, 0, 61, 99
1, 22966, Pitch_bend_c, 12, 6016
1, 22973, Pitch_bend_c, 12, 7424
1, 22977, Note_off_c, 2, 57, 104
1, 22977, Note_off_c, 0, 61, 91
1, 22981, Pitch_bend_c, 12, 7936
1, 22990, Pitch_bend_c, 12, 8192
1, 22992, Note_on_c, 1, 53, 111
1, 22992, Note_on_c, 9, 64, 108
1, 22993, Note_off_c, 9, 64, 112
1, 22995, Note_on_c, 9, 69, 50
1, 22996, Note_off_c, 9, 69, 92
1, 23019, Note_off_c, 1, 53, 110
1, 23039, Note_off_c, 11, 41, 111
1, 23039, Note_on_c, 9, 42, 92
1, 23039, Note_on_c, 9, 69, 96
1, 23040, Note_on_c, 9, 36, 124
1, 23040, Note_on_c, 1, 38, 114
1, 23040, Note_off_c, 9, 42, 100
1, 23040, Note_on_c, 11, 50, 119
1, 23040, Note_on_c, 2, 57, 122
1, 23040, Note_on_c, 2, 62, 124
1, 23040, Note_on_c, 9, 63, 120
1, 23040, Note_on_c, 2, 65, 123
1, 23040, Note_off_c, 9, 69, 80
1, 23041, Note_off_c, 9, 36, 76
1, 23041, Note_off_c, 9, 63, 92
1, 23075, Note_off_c, 2, 57, 84
1, 23075, Note_off_c, 2, 62, 111
1, 23087, Note_off_c, 0, 67, 104
1, 23091, Note_off_c, 0, 62, 108
1, 23091, Note_off_c, 2, 65, 108
1, 23091, Note_on_c, 9, 69, 50
1, 23092, Note_off_c, 3, 84, 110
1, 23092, Note_off_c, 9, 69, 80
1, 23113, Note_off_c, 1, 38, 102
1, 23128, Note_off_c, 12, 62, 110
1, 23130, Note_off_c, 12, 67, 108
1, 23135, Note_on_c, 9, 42, 124
1, 23135, Note_on_c, 9, 69, 88
1, 23136, Note_off_c, 9, 42, 96
1, 23136, Note_on_c, 1, 50, 116
1, 23136, Note_on_c, 0, 57, 108
1, 23136, Note_on_c, 2, 57, 113
1, 23136, Note_on_c, 0, 60, 110
1, 23136, Note_on_c, 12, 60, 113
1, 23136, Note_on_c, 2, 62, 117
1, 23136, Note_on_c, 9, 63, 116
1, 23136, Note_on_c, 0, 65, 110
1, 23136, Note_on_c, 12, 65, 91
1, 23136, Note_off_c, 9, 69, 76
1, 23136, Note_on_c, 3, 81, 120
1, 23137, Note_off_c, 9, 63, 84
1, 23151, Note_off_c, 2, 62, 119
1, 23154, Note_off_c, 12, 65, 104
1, 23155, Note_off_c, 0, 60, 111
1, 23156, Note_off_c, 0, 65, 111
1, 23157, Note_off_c, 12, 60, 104
1, 23161, Note_off_c, 0, 57, 94
1, 23162, Note_off_c, 3, 81, 110
1, 23162, Note_off_c, 1, 50, 108
1, 23163, Note_off_c, 2, 57, 104
1, 23184, Note_on_c, 1, 50, 103
1, 23187, Note_on_c, 9, 69, 50
1, 23188, Note_off_c, 9, 69, 76
1, 23212, Note_off_c, 1, 50, 111
1, 23231, Note_on_c, 9, 42, 100
1, 23231, Note_on_c, 9, 69, 104
1, 23232, Note_on_c, 9, 36, 124
1, 23232, Note_on_c, 1, 38, 117
1, 23232, Note_on_c, 9, 40, 124
1, 23232, Note_off_c, 9, 42, 100
1, 23232, Note_on_c, 0, 57, 111
1, 23232, Note_on_c, 2, 57, 122
1, 23232, Note_on_c, 0, 60, 119
1, 23232, Note_on_c, 12, 60, 114
1, 23232, Note_on_c, 2, 62, 124
1, 23232, Note_on_c, 9, 62, 124
1, 23232, Note_on_c, 0, 65, 117
1, 23232, Note_on_c, 2, 65, 124
1, 23232, Note_on_c, 12, 65, 119
1, 23232, Note_off_c, 9, 69, 68
1, 23232, Note_on_c, 3, 77, 122
1, 23233, Note_off_c, 9, 36, 96
1, 23233, Note_off_c, 9, 40, 96
1, 23233, Note_off_c, 9, 62, 108
1, 23262, Note_off_c, 2, 57, 108
1, 23264, Note_off_c, 2, 62, 111
1, 23269, Note_off_c, 3, 77, 111
1, 23277, Note_off_c, 2, 65, 108
1, 23283, Note_on_c, 9, 69, 50
1, 23284, Note_off_c, 9, 69, 68
1, 23303, Note_off_c, 1, 38, 99
1, 23307, Note_off_c, 12, 60, 110
1, 23327, Note_on_c, 9, 42, 124
1, 23327, Note_on_c, 9, 69, 96
1, 23328, Note_off_c, 12, 65, 108
1, 23328, Note_off_c, 9, 42, 100
1, 23328, Note_on_c, 1, 50, 114
1, 23328, Note_on_c, 12, 57, 106
1, 23328, Note_on_c, 0, 62, 117
1, 23328, Note_on_c, 12, 62, 111
1, 23328, Note_on_c, 9, 64, 116
1, 23328, Note_off_c, 9, 69, 68
1, 23328, Note_on_c, 3, 74, 113
1, 23329, Note_off_c, 9, 64, 96
1, 23334, Note_off_c, 0, 57, 104
1, 23338, Note_off_c, 0, 60, 102
1, 23342, Note_off_c, 0, 65, 104
1, 23348, Note_off_c, 1, 50, 110
1, 23355, Note_off_c, 0, 62, 106
1, 23369, Note_off_c, 3, 74, 106
1, 23376, Note_on_c, 1, 50, 117
1, 23376, Note_on_c, 9, 64, 108
1, 23377, Note_off_c, 9, 64, 104
1, 23379, Note_on_c, 9, 69, 50
1, 23380, Note_off_c, 9, 69, 68
1, 23403, Note_off_c, 1, 50, 110
1, 23423, Note_on_c, 9, 42, 84
1, 23423, Note_on_c, 9, 69, 104
1, 23424, Note_on_c, 9, 36, 124
1, 23424, Note_on_c, 1, 38, 120
1, 23424, Note_off_c, 12, 57, 110
1, 23424, Note_off_c, 9, 42, 96
1, 23424, Note_on_c, 0, 57, 113
1, 23424, Note_on_c, 2, 57, 122
1, 23424, Note_on_c, 0, 60, 119
1, 23424, Note_on_c, 12, 60, 113
1, 23424, Note_on_c, 2, 62, 124
1, 23424, Note_on_c, 9, 63, 124
1, 23424, Note_on_c, 0, 65, 119
1, 23424, Note_on_c, 2, 65, 124
1, 23424, Note_on_c, 12, 65, 113
1, 23424, Note_off_c, 9, 69, 84
1, 23424, Note_on_c, 3, 77, 122
1, 23425, Note_off_c, 9, 36, 108
1, 23425, Note_off_c, 9, 63, 96
1, 23443, Note_off_c, 12, 62, 108
1, 23455, Note_off_c, 2, 57, 108
1, 23457, Note_off_c, 2, 62, 111
1, 23475, Note_on_c, 9, 69, 50
1, 23476, Note_off_c, 9, 69, 84
1, 23491, Note_off_c, 1, 38, 102
1, 23501, Note_off_c, 2, 65, 13
1, 23519, Note_on_c, 9, 42, 124
1, 23519, Note_on_c, 9, 69, 100
1, 23520, Note_off_c, 9, 42, 100
1, 23520, Note_on_c, 1, 50, 114
1, 23520, Note_on_c, 9, 63, 124
1, 23520, Note_off_c, 9, 69, 92
1, 23521, Note_off_c, 9, 63, 100
1, 23541, Note_off_c, 1, 50, 106
1, 23568, Note_on_c, 1, 50, 117
1, 23571, Note_on_c, 9, 69, 50
1, 23572, Note_on_c, 2, 57, 99
1, 23572, Note_off_c, 9, 69, 92
1, 23587, Note_off_c, 1, 50, 102
1, 23598, Note_off_c, 2, 57, 102
1, 23613, Note_off_c, 3, 77, 110
1, 23614, Note_off_c, 0, 57, 108
1, 23615, Note_on_c, 9, 42, 104
1, 23615, Note_off_c, 0, 60, 110
1, 23615, Note_off_c, 12, 65, 104
1, 23615, Note_on_c, 9, 69, 100
1, 23616, Note_on_c, 9, 36, 124
1, 23616, Note_on_c, 1, 38, 119
1, 23616, Note_on_c, 9, 40, 124
1, 23616, Note_off_c, 9, 42, 100
1, 23616, Note_on_c, 2, 57, 117
1, 23616, Note_on_c, 12, 57, 113
1, 23616, Note_on_c, 0, 62, 116
1, 23616, Note_on_c, 2, 62, 124
1, 23616, Note_on_c, 12, 62, 113
1, 23616, Note_on_c, 9, 62, 124
1, 23616, Note_on_c, 2, 65, 122
1, 23616, Note_off_c, 9, 69, 92
1, 23616, Note_on_c, 3, 74, 113
1, 23617, Note_off_c, 9, 36, 112
1, 23617, Note_off_c, 9, 40, 108
1, 23617, Note_off_c, 9, 62, 104
1, 23620, Note_off_c, 0, 65, 110
1, 23621, Note_off_c, 12, 60, 104
1, 23638, Note_off_c, 0, 62, 104
1, 23644, Note_off_c, 2, 57, 110
1, 23644, Note_off_c, 2, 62, 111
1, 23649, Note_off_c, 3, 74, 99
1, 23667, Note_on_c, 9, 69, 50
1, 23668, Note_off_c, 9, 69, 92
1, 23672, Note_off_c, 2, 65, 91
1, 23680, Note_off_c, 12, 62, 108
1, 23686, Note_off_c, 1, 38, 102
1, 23689, Note_off_c, 12, 57, 108
1, 23693, Pitch_bend_c, 12, 5760
1, 23700, Pitch_bend_c, 12, 2944
1, 23707, Note_on_c, 0, 61, 117
1, 23708, Pitch_bend_c, 12, 1280
1, 23710, Note_on_c, 0, 67, 114
1, 23711, Note_on_c, 9, 42, 124
1, 23711, Note_on_c, 9, 69, 100
1, 23712, Note_off_c, 9, 42, 100
1, 23712, Note_on_c, 1, 50, 116
1, 23712, Note_on_c, 12, 62, 117
1, 23712, Note_on_c, 9, 64, 112
1, 23712, Note_on_c, 12, 67, 116
1, 23712, Note_off_c, 9, 69, 92
1, 23712, Note_on_c, 3, 84, 120
1, 23713, Note_off_c, 9, 64, 104
1, 23716, Pitch_bend_c, 12, 2432
1, 23721, Note_on_c, 0, 62, 119
1, 23723, Pitch_bend_c, 12, 6400
1, 23726, Note_off_c, 0, 61, 111
1, 23731, Pitch_bend_c, 12, 7424
1, 23732, Note_off_c, 1, 50, 108
1, 23739, Pitch_bend_c, 12, 7808
1, 23746, Pitch_bend_c, 12, 8192
1, 23760, Note_on_c, 1, 50, 113
1, 23760, Note_on_c, 9, 64, 108
1, 23761, Note_off_c, 9, 64, 112
1, 23763, Note_on_c, 9, 69, 50
1, 23764, Note_off_c, 9, 69, 92
1, 23786, Note_off_c, 1, 50, 108
1, 23807, Note_on_c, 9, 42, 104
1, 23807, Note_on_c, 9, 69, 96
1, 23808, Note_on_c, 9, 36, 124
1, 23808, Note_on_c, 1, 38, 117
1, 23808, Note_off_c, 9, 42, 100
1, 23808, Note_on_c, 2, 57, 122
1, 23808, Note_on_c, 2, 62, 124
1, 23808, Note_on_c, 9, 63, 120
1, 23808, Note_on_c, 2, 65, 124
1, 23808, Note_off_c, 9, 69, 80
1, 23809, Note_off_c, 9, 36, 76
1, 23809, Note_off_c, 9, 63, 92
1, 23838, Note_off_c, 2, 62, 111
1, 23840, Note_off_c, 2, 57, 110
1, 23842, Note_off_c, 2, 65, 110
1, 23854, Note_off_c, 3, 84, 108
1, 23859, Note_on_c, 9, 69, 50
1, 23860, Note_off_c, 9, 69, 80
1, 23861, Note_off_c, 0, 67, 106
1, 23866, Note_off_c, 0, 62, 110
1, 23876, Note_off_c, 1, 38, 97
1, 23903, Note_on_c, 9, 42, 124
1, 23903, Note_off_c, 12, 62, 110
1, 23903, Note_off_c, 12, 67, 108
1, 23903, Note_on_c, 9, 69, 88
1, 23904, Note_off_c, 9, 42, 100
1, 23904, Note_on_c, 1, 50, 116
1, 23904, Note_on_c, 0, 57, 108
1, 23904, Note_on_c, 2, 57, 111
1, 23904, Note_on_c, 0, 60, 113
1, 23904, Note_on_c, 12, 60, 111
1, 23904, Note_on_c, 2, 62, 119
1, 23904, Note_on_c, 9, 63, 116
1, 23904, Note_on_c, 0, 65, 114
1, 23904, Note_on_c, 2, 65, 117
1, 23904, Note_on_c, 12, 65, 113
1, 23904, Note_off_c, 9, 69, 76
1, 23904, Note_on_c, 3, 81, 117
1, 23905, Note_off_c, 9, 63, 84
1, 23922, Note_off_c, 0, 60, 113
1, 23927, Note_off_c, 12, 60, 104
1, 23927, Note_off_c, 1, 50, 106
1, 23928, Note_off_c, 0, 57, 97
1, 23929, Note_off_c, 2, 57, 102
1, 23931, Note_off_c, 2, 62, 113
1, 23932, Note_off_c, 3, 81, 111
1, 23933, Note_off_c, 0, 65, 106
1, 23935, Note_off_c, 2, 65, 108
1, 23937, Note_off_c, 12, 65, 108
1, 23952, Note_on_c, 1, 50, 111
1, 23955, Note_on_c, 9, 69, 50
1, 23956, Note_off_c, 9, 69, 76
1, 23977, Note_off_c, 1, 50, 94
1, 23999, Note_on_c, 9, 42, 108
1, 23999, Note_on_c, 9, 69, 104
1, 24000, Note_on_c, 9, 36, 124
1, 24000, Note_on_c, 1, 38, 122
1, 24000, Note_on_c, 9, 40, 124
1, 24000, Note_off_c, 9, 42, 100
1, 24000, Note_on_c, 0, 57, 110
1, 24000, Note_on_c, 2, 57, 119
1, 24000, Note_on_c, 0, 60, 120
1, 24000, Note_on_c, 12, 60, 114
1, 24000, Note_on_c, 2, 62, 124
1, 24000, Note_on_c, 9, 62, 124
1, 24000, Note_on_c, 0, 65, 117
1, 24000, Note_on_c, 2, 65, 124
1, 24000, Note_on_c, 12, 65, 114
1, 24000, Note_off_c, 9, 69, 68
1, 24000, Note_on_c, 3, 77, 120
1, 24001, Note_off_c, 9, 36, 96
1, 24001, Note_off_c, 9, 40, 96
1, 24001, Note_off_c, 9, 62, 108
1, 24030, Note_off_c, 2, 57, 108
1, 24030, Note_off_c, 2, 62, 113
1, 24034, Note_off_c, 3, 77, 110
1, 24038, Note_off_c, 2, 65, 111
1, 24051, Note_on_c, 9, 69, 50
1, 24052, Note_off_c, 9, 69, 68
1, 24068, Note_off_c, 1, 38, 104
1, 24080, Note_off_c, 12, 60, 106
1, 24087, Note_off_c, 0, 57, 102
1, 24095, Note_on_c, 9, 42, 124
1, 24095, Note_on_c, 9, 69, 96
1, 24096, Note_off_c, 9, 42, 100
1, 24096, Note_on_c, 1, 50, 113
1, 24096, Note_on_c, 12, 57, 110
1, 24096, Note_on_c, 0, 62, 113
1, 24096, Note_on_c, 12, 62, 110
1, 24096, Note_on_c, 9, 64, 116
1, 24096, Note_off_c, 9, 69, 68
1, 24096, Note_on_c, 3, 74, 116
1, 24097, Note_off_c, 9, 64, 96
1, 24099, Note_off_c, 12, 65, 108
1, 24105, Note_off_c, 0, 60, 108
1, 24106, Note_off_c, 0, 65, 106
1, 24116, Note_off_c, 1, 50, 110
1, 24121, Note_off_c, 0, 62, 104
1, 24133, Note_off_c, 3, 74, 102
1, 24144, Note_on_c, 1, 50, 114
1, 24144, Note_on_c, 9, 64, 108
1, 24145, Note_off_c, 9, 64, 104
1, 24147, Note_on_c, 9, 69, 50
1, 24148, Note_off_c, 9, 69, 68
1, 24169, Note_off_c, 1, 50, 104
1, 24191, Note_on_c, 9, 42, 104
1, 24191, Note_on_c, 9, 69, 104
1, 24192, Note_on_c, 9, 36, 124
1, 24192, Note_on_c, 1, 38, 120
1, 24192, Note_off_c, 9, 42, 100
1, 24192, Note_on_c, 0, 57, 111
1, 24192, Note_on_c, 2, 57, 120
1, 24192, Note_on_c, 0, 60, 117
1, 24192, Note_on_c, 12, 60, 110
1, 24192, Note_on_c, 2, 62, 123
1, 24192, Note_on_c, 9, 63, 124
1, 24192, Note_on_c, 0, 65, 119
1, 24192, Note_on_c, 2, 65, 122
1, 24192, Note_on_c, 12, 65, 113
1, 24192, Note_off_c, 9, 69, 84
1, 24192, Note_on_c, 3, 77, 120
1, 24193, Note_off_c, 9, 36, 108
1, 24193, Note_off_c, 9, 63, 96
1, 24200, Note_off_c, 12, 57, 108
1, 24205, Note_off_c, 12, 62, 106
1, 24217, Note_off_c, 2, 62, 113
1, 24221, Note_off_c, 2, 57, 108
1, 24221, Note_off_c, 2, 65, 111
1, 24243, Note_on_c, 9, 69, 50
1, 24244, Note_off_c, 9, 69, 84
1, 24261, Note_off_c, 1, 38, 104
1, 24287, Note_on_c, 9, 42, 124
1, 24287, Note_on_c, 9, 69, 100
1, 24288, Note_off_c, 9, 42, 104
1, 24288, Note_on_c, 1, 50, 117
1, 24288, Note_on_c, 2, 57, 113
1, 24288, Note_on_c, 2, 62, 122
1, 24288, Note_on_c, 9, 63, 124
1, 24288, Note_on_c, 2, 65, 122
1, 24288, Note_off_c, 9, 69, 92
1, 24289, Note_off_c, 9, 63, 100
1, 24312, Note_off_c, 2, 57, 102
1, 24316, Note_off_c, 1, 50, 108
1, 24336, Note_on_c, 1, 50, 99
1, 24339, Note_on_c, 9, 69, 50
1, 24340, Note_on_c, 2, 57, 97
1, 24340, Note_off_c, 9, 69, 92
1, 24354, Note_off_c, 2, 65, 104
1, 24361, Note_off_c, 1, 50, 108
1, 24363, Note_off_c, 2, 62, 108
1, 24372, Note_off_c, 12, 65, 104
1, 24381, Note_off_c, 0, 60, 106
1, 24382, Note_off_c, 0, 57, 108
1, 24382, Note_off_c, 12, 60, 104
1, 24383, Note_on_c, 9, 42, 96
1, 24383, Note_on_c, 9, 69, 100
1, 24384, Note_on_c, 9, 36, 124
1, 24384, Note_on_c, 1, 38, 122
1, 24384, Note_on_c, 9, 40, 124
1, 24384, Note_off_c, 9, 42, 100
1, 24384, Note_on_c, 12, 57, 111
1, 24384, Note_on_c, 0, 62, 116
1, 24384, Note_on_c, 2, 62, 114
1, 24384, Note_on_c, 12, 62, 113
1, 24384, Note_on_c, 9, 62, 124
1, 24384, Note_on_c, 2, 65, 123
1, 24384, Note_off_c, 9, 69, 92
1, 24384, Note_on_c, 3, 74, 114
1, 24385, Note_off_c, 9, 36, 112
1, 24385, Note_off_c, 9, 40, 108
1, 24385, Note_off_c, 9, 62, 104
1, 24393, Note_off_c, 0, 65, 110
1, 24393, Note_off_c, 3, 77, 110
1, 24412, Note_off_c, 0, 62, 106
1, 24413, Note_off_c, 2, 57, 108
1, 24415, Note_off_c, 3, 74, 108
1, 24419, Note_off_c, 2, 62, 113
1, 24422, Note_off_c, 2, 65, 111
1, 24435, Note_on_c, 9, 69, 50
1, 24436, Note_off_c, 9, 69, 92
1, 24452, Note_off_c, 12, 57, 106
1, 24459, Note_off_c, 12, 62, 104
1, 24459, Note_off_c, 1, 38, 102
1, 24463, Pitch_bend_c, 12, 7168
1, 24472, Pitch_bend_c, 12, 4864
1, 24473, Note_on_c, 0, 61, 117
1, 24476, Note_on_c, 0, 67, 116
1, 24479, Pitch_bend_c, 12, 2304
1, 24479, Note_on_c, 9, 42, 124
1, 24479, Note_on_c, 9, 69, 100
1, 24480, Note_off_c, 9, 42, 104
1, 24480, Note_on_c, 1, 50, 114
1, 24480, Note_on_c, 12, 62, 117
1, 24480, Note_on_c, 9, 64, 112
1, 24480, Note_on_c, 12, 67, 114
1, 24480, Note_off_c, 9, 69, 92
1, 24480, Note_on_c, 3, 84, 120
1, 24481, Note_off_c, 9, 64, 104
1, 24486, Pitch_bend_c, 12, 896
1, 24490, Note_on_c, 0, 62, 116
1, 24493, Note_off_c, 0, 61, 110
1, 24493, Pitch_bend_c, 12, 5120
1, 24498, Note_off_c, 1, 50, 111
1, 24500, Pitch_bend_c, 12, 6912
1, 24507, Pitch_bend_c, 12, 7552
1, 24515, Pitch_bend_c, 12, 7936
1, 24523, Pitch_bend_c, 12, 8192
1, 24528, Note_on_c, 1, 50, 108
1, 24528, Note_on_c, 9, 64, 108
1, 24529, Note_off_c, 9, 64, 112
1, 24531, Note_on_c, 9, 69, 50
1, 24532, Note_off_c, 9, 69, 92
1, 24554, Note_off_c, 1, 50, 108
1, 24575, Note_on_c, 9, 42, 100
1, 24575, Note_off_c, 11, 50, 108
1, 24575, Note_on_c, 9, 69, 96
1, 24576, Note_on_c, 9, 36, 124
1, 24576, Note_on_c, 11, 41, 124
1, 24576, Note_on_c, 1, 41, 117
1, 24576, Note_off_c, 9, 42, 92
1, 24576, Note_on_c, 2, 57, 114
1, 24576, Note_on_c, 2, 60, 119
1, 24576, Note_on_c, 9, 63, 120
1, 24576, Note_on_c, 2, 65, 117
1, 24576, Note_off_c, 9, 69, 80
1, 24577, Note_off_c, 9, 36, 76
1, 24577, Note_off_c, 9, 63, 92
1, 24592, Note_off_c, 2, 60, 111
1, 24600, Note_off_c, 2, 57, 104
1, 24603, Note_off_c, 2, 65, 108
1, 24621, Note_off_c, 3, 84, 110
1, 24627, Note_off_c, 0, 67, 110
1, 24627, Note_on_c, 9, 69, 50
1, 24628, Note_off_c, 9, 69, 80
1, 24636, Note_off_c, 0, 62, 110
1, 24653, Note_off_c, 1, 41, 106
1, 24671, Note_on_c, 9, 42, 120
1, 24671, Note_on_c, 9, 69, 88
1, 24672, Note_off_c, 12, 67, 108
1, 24672, Note_off_c, 9, 42, 92
1, 24672, Note_on_c, 1, 53, 119
1, 24672, Note_on_c, 0, 57, 108
1, 24672, Note_on_c, 2, 57, 116
1, 24672, Note_on_c, 0, 60, 114
1, 24672, Note_on_c, 2, 60, 116
1, 24672, Note_on_c, 12, 60, 114
1, 24672, Note_on_c, 9, 63, 116
1, 24672, Note_on_c, 0, 65, 111
1, 24672, Note_on_c, 2, 65, 110
1, 24672, Note_on_c, 12, 65, 113
1, 24672, Note_off_c, 9, 69, 76
1, 24672, Note_on_c, 3, 81, 117
1, 24673, Note_off_c, 12, 62, 111
1, 24673, Note_off_c, 9, 63, 84
1, 24686, Note_off_c, 2, 60, 116
1, 24695, Note_off_c, 0, 60, 106
1, 24695, Note_off_c, 2, 65, 108
1, 24697, Note_off_c, 0, 65, 97
1, 24698, Note_off_c, 0, 57, 91
1, 24699, Note_off_c, 2, 57, 104
1, 24701, Note_off_c, 1, 53, 111
1, 24702, Note_off_c, 12, 60, 111
1, 24702, Note_off_c, 3, 81, 108
1, 24703, Note_off_c, 12, 65, 99
1, 24720, Note_on_c, 1, 53, 101
1, 24723, Note_on_c, 9, 69, 50
1, 24724, Note_off_c, 9, 69, 76
1, 24750, Note_off_c, 1, 53, 111
1, 24767, Note_on_c, 9, 42, 124
1, 24767, Note_on_c, 9, 69, 104
1, 24768, Note_on_c, 9, 36, 124
1, 24768, Note_on_c, 9, 40, 124
1, 24768, Note_on_c, 1, 41, 122
1, 24768, Note_off_c, 9, 42, 96
1, 24768, Note_on_c, 0, 57, 110
1, 24768, Note_on_c, 2, 57, 119
1, 24768, Note_on_c, 0, 60, 116
1, 24768, Note_on_c, 2, 60, 123
1, 24768, Note_on_c, 12, 60, 111
1, 24768, Note_on_c, 9, 62, 124
1, 24768, Note_on_c, 0, 65, 116
1, 24768, Note_on_c, 2, 65, 122
1, 24768, Note_on_c, 12, 65, 117
1, 24768, Note_off_c, 9, 69, 68
1, 24768, Note_on_c, 3, 77, 120
1, 24769, Note_off_c, 9, 36, 96
1, 24769, Note_off_c, 9, 40, 96
1, 24769, Note_off_c, 9, 62, 108
1, 24803, Note_off_c, 3, 77, 111
1, 24819, Note_on_c, 9, 69, 50
1, 24820, Note_off_c, 9, 69, 68
1, 24837, Note_off_c, 2, 57, 106
1, 24840, Note_off_c, 2, 60, 111
1, 24840, Note_off_c, 2, 65, 110
1, 24844, Note_off_c, 1, 41, 110
1, 24854, Note_off_c, 12, 60, 106
1, 24861, Note_off_c, 0, 57, 102
1, 24863, Note_on_c, 9, 42, 124
1, 24863, Note_on_c, 9, 69, 96
1, 24864, Note_off_c, 9, 42, 100
1, 24864, Note_on_c, 1, 53, 114
1, 24864, Note_on_c, 12, 57, 108
1, 24864, Note_on_c, 0, 62, 116
1, 24864, Note_on_c, 12, 62, 111
1, 24864, Note_on_c, 9, 64, 116
1, 24864, Note_off_c, 9, 69, 68
1, 24864, Note_on_c, 3, 74, 116
1, 24865, Note_off_c, 9, 64, 96
1, 24870, Note_off_c, 0, 60, 106
1, 24873, Note_off_c, 12, 65, 102
1, 24875, Note_off_c, 0, 65, 104
1, 24886, Note_off_c, 1, 53, 106
1, 24894, Note_off_c, 0, 62, 110
1, 24901, Note_off_c, 3, 74, 108
1, 24912, Note_on_c, 1, 53, 114
1, 24912, Note_on_c, 9, 64, 108
1, 24913, Note_off_c, 9, 64, 104
1, 24915, Note_on_c, 9, 69, 50
1, 24916, Note_off_c, 9, 69, 68
1, 24935, Note_off_c, 1, 53, 104
1, 24959, Note_on_c, 9, 42, 76
1, 24959, Note_on_c, 9, 69, 104
1, 24960, Note_on_c, 9, 36, 124
1, 24960, Note_on_c, 1, 41, 119
1, 24960, Note_off_c, 9, 42, 100
1, 24960, Note_on_c, 0, 57, 111
1, 24960, Note_on_c, 2, 57, 113
1, 24960, Note_on_c, 0, 60, 116
1, 24960, Note_on_c, 2, 60, 122
1, 24960, Note_on_c, 12, 60, 113
1, 24960, Note_on_c, 9, 63, 124
1, 24960, Note_on_c, 0, 65, 116
1, 24960, Note_on_c, 2, 65, 120
1, 24960, Note_on_c, 12, 65, 97
1, 24960, Note_off_c, 9, 69, 84
1, 24960, Note_on_c, 3, 77, 120
1, 24961, Note_off_c, 12, 57, 108
1, 24961, Note_off_c, 9, 36, 108
1, 24961, Note_off_c, 9, 63, 96
1, 24976, Note_off_c, 12, 62, 108
1, 25011, Note_on_c, 9, 69, 50
1, 25012, Note_off_c, 9, 69, 84
1, 25036, Note_off_c, 1, 41, 110
1, 25055, Note_on_c, 9, 42, 124
1, 25055, Note_on_c, 9, 69, 100
1, 25056, Note_off_c, 9, 42, 100
1, 25056, Note_on_c, 1, 53, 114
1, 25056, Note_on_c, 9, 63, 124
1, 25056, Note_off_c, 9, 69, 92
1, 25057, Note_off_c, 9, 63, 100
1, 25059, Note_off_c, 2, 57, 71
1, 25078, Note_off_c, 1, 53, 106
1, 25084, Note_off_c, 2, 65, 66
1, 25104, Note_on_c, 1, 53, 113
1, 25107, Note_on_c, 9, 69, 50
1, 25108, Note_on_c, 2, 57, 102
1, 25108, Note_off_c, 9, 69, 92
1, 25114, Note_off_c, 2, 60, 66
1, 25129, Note_off_c, 12, 65, 104
1, 25129, Note_off_c, 1, 53, 106
1, 25147, Note_off_c, 12, 60, 102
1, 25150, Note_off_c, 0, 60, 108
1, 25151, Note_on_c, 9, 42, 84
1, 25151, Note_on_c, 9, 69, 100
1, 25152, Note_on_c, 9, 36, 124
1, 25152, Note_on_c, 9, 40, 124
1, 25152, Note_on_c, 1, 41, 120
1, 25152, Note_off_c, 9, 42, 96
1, 25152, Note_on_c, 2, 60, 122
1, 25152, Note_on_c, 0, 62, 113
1, 25152, Note_on_c, 12, 62, 116
1, 25152, Note_on_c, 9, 62, 124
1, 25152, Note_on_c, 2, 65, 120
1, 25152, Note_on_c, 12, 67, 116
1, 25152, Note_off_c, 9, 69, 92
1, 25152, Note_on_c, 3, 79, 113
1, 25153, Note_off_c, 0, 57, 106
1, 25153, Note_off_c, 9, 36, 112
1, 25153, Note_off_c, 9, 40, 108
1, 25153, Note_off_c, 9, 62, 104
1, 25156, Note_off_c, 0, 65, 108
1, 25160, Note_off_c, 3, 77, 111
1, 25172, Note_off_c, 0, 62, 102
1, 25176, Note_off_c, 2, 65, 108
1, 25191, Note_off_c, 2, 60, 108
1, 25201, Note_off_c, 2, 57, 102
1, 25203, Note_on_c, 9, 69, 50
1, 25204, Note_off_c, 9, 69, 92
1, 25206, Note_off_c, 3, 79, 102
1, 25229, Note_off_c, 1, 41, 111
1, 25247, Note_on_c, 9, 42, 124
1, 25247, Note_on_c, 9, 69, 100
1, 25248, Note_off_c, 9, 42, 100
1, 25248, Note_on_c, 1, 53, 114
1, 25248, Note_on_c, 0, 60, 111
1, 25248, Note_on_c, 12, 60, 113
1, 25248, Note_on_c, 9, 64, 112
1, 25248, Note_on_c, 0, 65, 113
1, 25248, Note_on_c, 12, 65, 113
1, 25248, Note_off_c, 9, 69, 92
1, 25248, Note_on_c, 0, 69, 117
1, 25248, Note_on_c, 12, 69, 106
1, 25248, Note_on_c, 3, 81, 120
1, 25249, Note_off_c, 9, 64, 104
1, 25251, Note_off_c, 12, 62, 106
1, 25251, Note_off_c, 12, 67, 106
1, 25270, Note_off_c, 1, 53, 106
1, 25296, Note_on_c, 1, 53, 119
1, 25296, Note_on_c, 9, 64, 108
1, 25297, Note_off_c, 9, 64, 112
1, 25299, Note_on_c, 9, 69, 50
1, 25300, Note_off_c, 9, 69, 92
1, 25321, Note_off_c, 1, 53, 104
1, 25343, Note_on_c, 9, 42, 92
1, 25343, Note_on_c, 9, 69, 96
1, 25344, Note_on_c, 9, 36, 124
1, 25344, Note_on_c, 1, 41, 120
1, 25344, Note_off_c, 9, 42, 100
1, 25344, Note_on_c, 2, 57, 108
1, 25344, Note_on_c, 2, 60, 119
1, 25344, Note_on_c, 9, 63, 120
1, 25344, Note_on_c, 2, 65, 117
1, 25344, Note_off_c, 9, 69, 80
1, 25345, Note_off_c, 9, 36, 76
1, 25345, Note_off_c, 9, 63, 92
1, 25371, Note_off_c, 2, 57, 104
1, 25373, Note_off_c, 2, 60, 111
1, 25376, Note_off_c, 2, 65, 110
1, 25395, Note_on_c, 9, 69, 50
1, 25396, Note_off_c, 9, 69, 80
1, 25419, Note_off_c, 1, 41, 111
1, 25439, Note_on_c, 9, 42, 124
1, 25439, Note_on_c, 9, 69, 88
1, 25440, Note_off_c, 9, 42, 96
1, 25440, Note_on_c, 1, 53, 114
1, 25440, Note_on_c, 2, 57, 113
1, 25440, Note_on_c, 2, 60, 120
1, 25440, Note_on_c, 9, 63, 116
1, 25440, Note_on_c, 2, 65, 117
1, 25440, Note_off_c, 9, 69, 76
1, 25441, Note_off_c, 9, 63, 84
1, 25459, Note_off_c, 1, 53, 108
1, 25463, Note_off_c, 2, 60, 108
1, 25466, Note_off_c, 2, 57, 106
1, 25469, Note_off_c, 2, 65, 102
1, 25488, Note_on_c, 1, 53, 117
1, 25491, Note_on_c, 9, 69, 50
1, 25492, Note_off_c, 9, 69, 76
1, 25510, Note_off_c, 1, 53, 94
1, 25531, Note_off_c, 11, 41, 111
1, 25535, Note_on_c, 9, 42, 112
1, 25535, Note_on_c, 9, 69, 104
1, 25536, Note_on_c, 9, 36, 124
1, 25536, Note_on_c, 9, 40, 124
1, 25536, Note_off_c, 9, 42, 100
1, 25536, Note_on_c, 11, 43, 119
1, 25536, Note_on_c, 1, 43, 117
1, 25536, Note_on_c, 2, 57, 116
1, 25536, Note_on_c, 2, 60, 122
1, 25536, Note_on_c, 9, 62, 124
1, 25536, Note_on_c, 2, 65, 120
1, 25536, Note_off_c, 9, 69, 68
1, 25537, Note_off_c, 9, 36, 96
1, 25537, Note_off_c, 9, 40, 96
1, 25537, Note_off_c, 9, 62, 108
1, 25543, Note_off_c, 3, 81, 108
1, 25587, Note_on_c, 9, 69, 50
1, 25588, Note_off_c, 9, 69, 68
1, 25609, Note_off_c, 2, 65, 110
1, 25612, Note_off_c, 2, 60, 97
1, 25616, Note_off_c, 1, 43, 106
1, 25618, Note_off_c, 2, 57, 104
1, 25631, Note_on_c, 9, 42, 124
1, 25631, Note_on_c, 9, 69, 96
1, 25632, Note_off_c, 9, 42, 100
1, 25632, Note_on_c, 1, 55, 116
1, 25632, Note_on_c, 9, 64, 116
1, 25632, Note_off_c, 9, 69, 68
1, 25633, Note_off_c, 9, 64, 96
1, 25653, Note_off_c, 1, 55, 99
1, 25680, Note_on_c, 1, 55, 114
1, 25680, Note_on_c, 9, 64, 108
1, 25681, Note_off_c, 9, 64, 104
1, 25683, Note_on_c, 9, 69, 50
1, 25684, Note_off_c, 9, 69, 68
1, 25706, Note_off_c, 1, 55, 111
1, 25727, Note_on_c, 9, 42, 88
1, 25727, Note_off_c, 11, 43, 104
1, 25727, Note_on_c, 9, 69, 104
1, 25728, Note_on_c, 9, 36, 124
1, 25728, Note_off_c, 9, 42, 100
1, 25728, Note_on_c, 11, 45, 117
1, 25728, Note_on_c, 1, 45, 122
1, 25728, Note_on_c, 2, 57, 117
1, 25728, Note_on_c, 2, 60, 122
1, 25728, Note_on_c, 9, 63, 124
1, 25728, Note_on_c, 2, 65, 122
1, 25728, Note_off_c, 9, 69, 84
1, 25729, Note_off_c, 9, 36, 108
1, 25729, Note_off_c, 9, 63, 96
1, 25779, Note_on_c, 9, 69, 50
1, 25780, Note_off_c, 9, 69, 84
1, 25802, Note_off_c, 1, 45, 106
1, 25823, Note_on_c, 9, 46, 124
1, 25823, Note_on_c, 9, 69, 100
1, 25824, Note_off_c, 9, 46, 100
1, 25824, Note_on_c, 1, 57, 116
1, 25824, Note_on_c, 9, 63, 124
1, 25824, Note_off_c, 9, 69, 92
1, 25825, Note_off_c, 9, 63, 100
1, 25828, Note_off_c, 2, 57, 84
1, 25849, Note_off_c, 1, 57, 94
1, 25854, Note_off_c, 2, 65, 71
1, 25872, Note_on_c, 1, 57, 108
1, 25875, Note_on_c, 9, 69, 50
1, 25876, Note_on_c, 2, 57, 97
1, 25876, Note_off_c, 9, 69, 92
1, 25890, Note_off_c, 2, 60, 13
1, 25898, Note_off_c, 1, 57, 110
1, 25903, Note_off_c, 2, 57, 97
1, 25905, Note_off_c, 12, 69, 106
1, 25911, Note_off_c, 12, 60, 108
1, 25911, Note_off_c, 12, 65, 106
1, 25915, Note_off_c, 0, 65, 110
1, 25916, Note_off_c, 0, 60, 111
1, 25919, Note_on_c, 9, 44, 89
1, 25919, Note_off_c, 11, 45, 108
1, 25919, Note_on_c, 9, 69, 100
1, 25920, Note_on_c, 9, 36, 124
1, 25920, Note_on_c, 9, 40, 80
1, 25920, Note_on_c, 11, 41, 122
1, 25920, Note_on_c, 1, 41, 122
1, 25920, Note_off_c, 9, 44, 100
1, 25920, Note_on_c, 2, 57, 113
1, 25920, Note_on_c, 2, 60, 117
1, 25920, Note_on_c, 9, 62, 124
1, 25920, Note_on_c, 2, 65, 120
1, 25920, Note_off_c, 9, 69, 92
1, 25921, Note_off_c, 9, 36, 112
1, 25921, Note_off_c, 9, 40, 108
1, 25921, Note_off_c, 9, 62, 104
1, 25922, Note_off_c, 0, 69, 108
1, 25939, Note_off_c, 2, 65, 108
1, 25940, Note_off_c, 2, 60, 110
1, 25953, Note_off_c, 2, 57, 104
1, 25968, Note_on_c, 9, 40, 105
1, 25969, Note_off_c, 9, 40, 108
1, 25971, Note_on_c, 9, 69, 50
1, 25972, Note_off_c, 9, 69, 92
1, 25997, Note_off_c, 1, 41, 110
1, 26009, Pitch_bend_c, 12, 8064
1, 26015, Note_on_c, 9, 69, 100
1, 26016, Note_on_c, 2, 57, 79
1, 26016, Note_on_c, 0, 61, 120
1, 26016, Note_off_c, 0, 61, 117
1, 26016, Note_on_c, 2, 62, 87
1, 26016, Pitch_bend_c, 12, 7680
1, 26016, Note_on_c, 12, 62, 120
1, 26016, Note_on_c, 12, 67, 119
1, 26016, Note_on_c, 9, 40, 124
1, 26016, Note_on_c, 1, 53, 113
1, 26016, Note_on_c, 9, 64, 112
1, 26016, Note_off_c, 9, 69, 92
1, 26017, Note_off_c, 2, 57, 104
1, 26017, Note_off_c, 2, 62, 104
1, 26017, Note_off_c, 9, 40, 108
1, 26017, Note_off_c, 9, 64, 104
1, 26021, Note_on_c, 0, 67, 114
1, 26023, Pitch_bend_c, 12, 4096
1, 26026, Note_on_c, 0, 62, 120
1, 26030, Pitch_bend_c, 12, 2176
1, 26037, Note_on_c, 0, 61, 99
1, 26037, Pitch_bend_c, 12, 1024
1, 26037, Note_off_c, 1, 53, 108
1, 26047, Pitch_bend_c, 12, 4864
1, 26048, Note_on_c, 2, 57, 115
1, 26048, Note_on_c, 2, 57, 108
1, 26048, Note_off_c, 2, 57, 114
1, 26049, Note_off_c, 0, 61, 91
1, 26051, Note_off_c, 2, 57, 106
1, 26054, Pitch_bend_c, 12, 6784
1, 26061, Pitch_bend_c, 12, 7552
1, 26064, Note_on_c, 1, 53, 114
1, 26064, Note_on_c, 9, 64, 108
1, 26065, Note_off_c, 9, 64, 112
1, 26067, Note_on_c, 9, 69, 50
1, 26068, Pitch_bend_c, 12, 7936
1, 26068, Note_off_c, 9, 69, 92
1, 26075, Pitch_bend_c, 12, 8192
1, 26080, Note_on_c, 2, 62, 113
1, 26080, Note_on_c, 2, 62, 107
1, 26080, Note_off_c, 2, 62, 114
1, 26084, Note_off_c, 2, 62, 106
1, 26091, Note_off_c, 1, 53, 111
1, 26111, Note_on_c, 9, 69, 96
1, 26111, Note_off_c, 11, 41, 113
1, 26112, Note_on_c, 9, 36, 124
1, 26112, Note_on_c, 1, 38, 116
1, 26112, Note_on_c, 9, 49, 124
1, 26112, Note_on_c, 11, 50, 116
1, 26112, Note_on_c, 2, 57, 122
1, 26112, Note_on_c, 2, 62, 124
1, 26112, Note_on_c, 6, 62, 90
1, 26112, Note_on_c, 9, 63, 120
1, 26112, Note_on_c, 2, 65, 123
1, 26112, Note_off_c, 9, 69, 80
1, 26113, Note_off_c, 9, 36, 76
1, 26113, Note_off_c, 9, 49, 100
1, 26113, Note_off_c, 9, 63, 92
1, 26147, Note_off_c, 2, 57, 84
1, 26147, Note_off_c, 2, 62, 111
1, 26163, Note_off_c, 2, 65, 108
1, 26163, Note_on_c, 9, 69, 50
1, 26164, Note_off_c, 9, 69, 80
1, 26177, Note_off_c, 1, 38, 94
1, 26183, Note_off_c, 12, 62, 108
1, 26183, Note_off_c, 12, 67, 108
1, 26207, Note_off_c, 0, 67, 104
1, 26207, Note_on_c, 9, 69, 88
1, 26208, Note_on_c, 1, 50, 114
1, 26208, Note_on_c, 0, 57, 79
1, 26208, Note_on_c, 2, 57, 113
1, 26208, Note_on_c, 0, 60, 86
1, 26208, Note_on_c, 12, 60, 110
1, 26208, Note_on_c, 2, 62, 117
1, 26208, Note_on_c, 9, 63, 116
1, 26208, Note_on_c, 0, 65, 88
1, 26208, Note_on_c, 12, 65, 110
1, 26208, Note_off_c, 9, 69, 76
1, 26209, Note_off_c, 9, 63, 84
1, 26211, Note_off_c, 0, 62, 108
1, 26223, Note_off_c, 2, 62, 119
1, 26224, Note_off_c, 1, 50, 116
1, 26227, Note_off_c, 0, 60, 111
1, 26228, Note_off_c, 0, 65, 111
1, 26231, Note_off_c, 12, 60, 102
1, 26233, Note_off_c, 0, 57, 94
1, 26234, Note_off_c, 12, 65, 94
1, 26235, Note_off_c, 2, 57, 104
1, 26256, Note_on_c, 1, 50, 117
1, 26259, Note_on_c, 9, 69, 50
1, 26260, Note_off_c, 9, 69, 76
1, 26276, Note_off_c, 1, 50, 102
1, 26303, Note_on_c, 9, 42, 7
1, 26303, Note_on_c, 9, 69, 104
1, 26304, Note_on_c, 9, 36, 124
1, 26304, Note_on_c, 1, 38, 117
1, 26304, Note_on_c, 9, 40, 124
1, 26304, Note_off_c, 9, 42, 88
1, 26304, Note_on_c, 2, 57, 122
1, 26304, Note_on_c, 12, 60, 113
1, 26304, Note_on_c, 2, 62, 124
1, 26304, Note_on_c, 9, 62, 124
1, 26304, Note_on_c, 0, 65, 119
1, 26304, Note_on_c, 2, 65, 124
1, 26304, Note_on_c, 12, 65, 113
1, 26304, Note_off_c, 9, 69, 68
1, 26304, Note_on_c, 0, 69, 124
1, 26304, Note_on_c, 0, 74, 120
1, 26304, Note_on_c, 6, 74, 119
1, 26305, Note_off_c, 9, 36, 96
1, 26305, Note_off_c, 9, 40, 96
1, 26305, Note_off_c, 9, 62, 108
1, 26334, Note_off_c, 2, 57, 108
1, 26336, Note_off_c, 2, 62, 111
1, 26349, Note_off_c, 2, 65, 108
1, 26355, Note_on_c, 9, 69, 50
1, 26356, Note_off_c, 9, 69, 68
1, 26373, Note_off_c, 1, 38, 97
1, 26399, Note_on_c, 9, 42, 112
1, 26399, Note_off_c, 12, 60, 104
1, 26399, Note_on_c, 9, 69, 96
1, 26400, Note_off_c, 9, 42, 88
1, 26400, Note_on_c, 1, 50, 114
1, 26400, Note_on_c, 12, 57, 104
1, 26400, Note_on_c, 12, 62, 111
1, 26400, Note_on_c, 9, 64, 116
1, 26400, Note_off_c, 9, 69, 68
1, 26401, Note_off_c, 9, 64, 96
1, 26417, Note_off_c, 1, 50, 114
1, 26426, Note_off_c, 12, 65, 97
1, 26448, Note_on_c, 1, 50, 114
1, 26448, Note_on_c, 9, 64, 108
1, 26449, Note_off_c, 9, 64, 104
1, 26451, Note_on_c, 9, 69, 50
1, 26452, Note_off_c, 9, 69, 68
1, 26469, Note_off_c, 1, 50, 94
1, 26485, Note_off_c, 0, 69, 106
1, 26492, Note_off_c, 0, 74, 108
1, 26495, Note_on_c, 9, 42, 52
1, 26495, Note_off_c, 0, 65, 110
1, 26495, Note_on_c, 9, 69, 104
1, 26496, Note_on_c, 9, 36, 124
1, 26496, Note_on_c, 1, 38, 122
1, 26496, Note_off_c, 9, 42, 92
1, 26496, Note_on_c, 2, 57, 122
1, 26496, Note_on_c, 12, 60, 106
1, 26496, Note_on_c, 2, 62, 124
1, 26496, Note_on_c, 9, 63, 124
1, 26496, Note_on_c, 2, 65, 124
1, 26496, Note_on_c, 12, 65, 111
1, 26496, Note_off_c, 9, 69, 84
1, 26496, Note_on_c, 0, 69, 120
1, 26496, Note_on_c, 0, 74, 120
1, 26496, Note_on_c, 0, 77, 120
1, 26496, Note_on_c, 6, 77, 120
1, 26497, Note_off_c, 9, 36, 108
1, 26497, Note_off_c, 9, 63, 96
1, 26501, Note_off_c, 6, 74, 110
1, 26501, Note_off_c, 12, 57, 108
1, 26513, Note_off_c, 12, 62, 97
1, 26527, Note_off_c, 2, 57, 108
1, 26529, Note_off_c, 2, 62, 111
1, 26547, Note_on_c, 9, 69, 50
1, 26548, Note_off_c, 9, 69, 84
1, 26561, Note_off_c, 1, 38, 97
1, 26573, Note_off_c, 2, 65, 13
1, 26591, Note_on_c, 9, 42, 124
1, 26591, Note_on_c, 9, 69, 100
1, 26592, Note_off_c, 9, 42, 92
1, 26592, Note_on_c, 1, 50, 113
1, 26592, Note_on_c, 9, 63, 124
1, 26592, Note_off_c, 9, 69, 92
1, 26593, Note_off_c, 9, 63, 100
1, 26609, Note_off_c, 1, 50, 113
1, 26640, Note_on_c, 1, 50, 108
1, 26643, Note_on_c, 9, 69, 50
1, 26644, Note_on_c, 2, 57, 99
1, 26644, Note_off_c, 9, 69, 92
1, 26664, Note_off_c, 1, 50, 97
1, 26670, Note_off_c, 2, 57, 102
1, 26680, Note_off_c, 12, 60, 104
1, 26683, Note_off_c, 12, 65, 106
1, 26685, Note_off_c, 0, 69, 106
1, 26685, Note_off_c, 0, 77, 111
1, 26686, Note_off_c, 0, 74, 102
1, 26687, Note_on_c, 9, 42, 84
1, 26687, Note_on_c, 9, 69, 100
1, 26688, Note_on_c, 9, 36, 124
1, 26688, Note_on_c, 1, 38, 117
1, 26688, Note_on_c, 9, 40, 124
1, 26688, Note_off_c, 6, 77, 106
1, 26688, Note_off_c, 9, 42, 96
1, 26688, Note_on_c, 2, 57, 117
1, 26688, Note_on_c, 12, 57, 114
1, 26688, Note_on_c, 2, 62, 124
1, 26688, Note_on_c, 12, 62, 104
1, 26688, Note_on_c, 9, 62, 124
1, 26688, Note_on_c, 2, 65, 122
1, 26688, Note_off_c, 9, 69, 92
1, 26688, Note_on_c, 0, 74, 116
1, 26688, Note_on_c, 0, 77, 122
1, 26688, Note_on_c, 0, 81, 120
1, 26688, Note_on_c, 6, 81, 119
1, 26689, Note_off_c, 9, 36, 112
1, 26689, Note_off_c, 9, 40, 108
1, 26689, Note_off_c, 9, 62, 104
1, 26714, Note_off_c, 12, 62, 94
1, 26716, Note_off_c, 2, 57, 110
1, 26716, Note_off_c, 2, 62, 111
1, 26739, Note_on_c, 9, 69, 50
1, 26740, Note_off_c, 9, 69, 92
1, 26744, Note_off_c, 2, 65, 91
1, 26748, Note_off_c, 12, 57, 99
1, 26753, Pitch_bend_c, 12, 7808
1, 26758, Note_off_c, 1, 38, 102
1, 26763, Pitch_bend_c, 12, 6400
1, 26770, Pitch_bend_c, 12, 3584
1, 26777, Pitch_bend_c, 12, 1792
1, 26783, Note_on_c, 9, 42, 124
1, 26783, Note_on_c, 9, 69, 100
1, 26784, Note_off_c, 9, 42, 96
1, 26784, Note_on_c, 1, 50, 116
1, 26784, Note_on_c, 12, 62, 119
1, 26784, Note_on_c, 9, 64, 112
1, 26784, Note_on_c, 12, 67, 116
1, 26784, Note_off_c, 9, 69, 92
1, 26785, Note_off_c, 9, 64, 104
1, 26786, Pitch_bend_c, 12, 1280
1, 26797, Pitch_bend_c, 12, 5888
1, 26802, Note_off_c, 1, 50, 113
1, 26804, Pitch_bend_c, 12, 7424
1, 26811, Pitch_bend_c, 12, 7808
1, 26820, Pitch_bend_c, 12, 8192
1, 26832, Note_on_c, 1, 50, 119
1, 26832, Note_on_c, 9, 64, 108
1, 26833, Note_off_c, 9, 64, 112
1, 26835, Note_on_c, 9, 69, 50
1, 26836, Note_off_c, 9, 69, 92
1, 26850, Note_off_c, 1, 50, 97
1, 26874, Note_off_c, 0, 77, 111
1, 26874, Note_off_c, 0, 81, 110
1, 26879, Note_on_c, 9, 42, 76
1, 26879, Note_on_c, 9, 69, 96
1, 26879, Note_off_c, 0, 74, 110
1, 26880, Note_on_c, 9, 36, 124
1, 26880, Note_on_c, 1, 38, 120
1, 26880, Note_off_c, 9, 42, 100
1, 26880, Note_on_c, 2, 57, 122
1, 26880, Note_on_c, 2, 62, 124
1, 26880, Note_on_c, 9, 63, 120
1, 26880, Note_on_c, 2, 65, 124
1, 26880, Note_off_c, 9, 69, 80
1, 26880, Note_on_c, 0, 77, 119
1, 26880, Note_on_c, 0, 81, 122
1, 26880, Note_on_c, 0, 84, 122
1, 26880, Note_on_c, 6, 84, 122
1, 26881, Note_off_c, 9, 36, 76
1, 26881, Note_off_c, 9, 63, 92
1, 26882, Note_off_c, 6, 81, 110
1, 26910, Note_off_c, 2, 62, 111
1, 26912, Note_off_c, 2, 57, 110
1, 26914, Note_off_c, 2, 65, 110
1, 26931, Note_on_c, 9, 69, 50
1, 26932, Note_off_c, 9, 69, 80
1, 26945, Note_off_c, 1, 38, 102
1, 26975, Note_on_c, 9, 42, 124
1, 26975, Note_on_c, 9, 69, 88
1, 26976, Note_off_c, 9, 42, 100
1, 26976, Note_on_c, 1, 50, 116
1, 26976, Note_on_c, 2, 57, 111
1, 26976, Note_on_c, 12, 60, 113
1, 26976, Note_on_c, 2, 62, 119
1, 26976, Note_on_c, 9, 63, 116
1, 26976, Note_on_c, 2, 65, 117
1, 26976, Note_on_c, 12, 65, 111
1, 26976, Note_off_c, 9, 69, 76
1, 26977, Note_off_c, 9, 63, 84
1, 26983, Note_off_c, 12, 62, 108
1, 26989, Note_off_c, 12, 67, 108
1, 26994, Note_off_c, 1, 50, 111
1, 26996, Note_off_c, 12, 60, 99
1, 27000, Note_off_c, 12, 65, 97
1, 27001, Note_off_c, 2, 57, 102
1, 27003, Note_off_c, 2, 62, 113
1, 27007, Note_off_c, 2, 65, 108
1, 27024, Note_on_c, 1, 50, 120
1, 27027, Note_on_c, 9, 69, 50
1, 27028, Note_off_c, 9, 69, 76
1, 27039, Note_off_c, 1, 50, 111
1, 27071, Note_on_c, 9, 42, 80
1, 27071, Note_on_c, 9, 69, 104
1, 27072, Note_on_c, 9, 36, 124
1, 27072, Note_on_c, 1, 38, 122
1, 27072, Note_on_c, 9, 40, 124
1, 27072, Note_off_c, 9, 42, 96
1, 27072, Note_on_c, 2, 57, 119
1, 27072, Note_on_c, 12, 60, 113
1, 27072, Note_on_c, 2, 62, 124
1, 27072, Note_on_c, 9, 62, 124
1, 27072, Note_on_c, 2, 65, 124
1, 27072, Note_on_c, 12, 65, 114
1, 27072, Note_off_c, 9, 69, 68
1, 27073, Note_off_c, 9, 36, 96
1, 27073, Note_off_c, 9, 40, 96
1, 27073, Note_off_c, 9, 62, 108
1, 27102, Note_off_c, 2, 57, 108
1, 27102, Note_off_c, 2, 62, 113
1, 27110, Note_off_c, 2, 65, 111
1, 27123, Note_on_c, 9, 69, 50
1, 27124, Note_off_c, 9, 69, 68
1, 27145, Note_off_c, 1, 38, 102
1, 27160, Note_off_c, 12, 60, 108
1, 27167, Note_on_c, 9, 42, 124
1, 27167, Note_on_c, 9, 69, 96
1, 27168, Note_off_c, 9, 42, 96
1, 27168, Note_on_c, 1, 50, 116
1, 27168, Note_on_c, 12, 57, 106
1, 27168, Note_on_c, 12, 62, 108
1, 27168, Note_on_c, 9, 64, 116
1, 27168, Note_off_c, 9, 69, 68
1, 27169, Note_off_c, 9, 64, 96
1, 27185, Note_off_c, 1, 50, 113
1, 27191, Note_off_c, 12, 65, 102
1, 27216, Note_on_c, 1, 50, 116
1, 27216, Note_on_c, 9, 64, 108
1, 27217, Note_off_c, 9, 64, 104
1, 27219, Note_on_c, 9, 69, 50
1, 27220, Note_off_c, 9, 69, 68
1, 27237, Note_off_c, 1, 50, 99
1, 27259, Note_off_c, 0, 77, 110
1, 27261, Note_off_c, 0, 81, 110
1, 27262, Note_off_c, 0, 84, 104
1, 27263, Note_on_c, 9, 42, 92
1, 27263, Note_on_c, 9, 69, 104
1, 27264, Note_on_c, 9, 36, 124
1, 27264, Note_on_c, 1, 38, 122
1, 27264, Note_off_c, 9, 42, 100
1, 27264, Note_on_c, 2, 57, 120
1, 27264, Note_on_c, 12, 60, 110
1, 27264, Note_on_c, 2, 62, 123
1, 27264, Note_on_c, 9, 63, 124
1, 27264, Note_on_c, 2, 65, 122
1, 27264, Note_on_c, 12, 65, 114
1, 27264, Note_off_c, 9, 69, 84
1, 27264, Note_on_c, 0, 74, 117
1, 27264, Note_on_c, 0, 77, 122
1, 27264, Note_on_c, 0, 81, 120
1, 27264, Note_on_c, 6, 81, 120
1, 27265, Note_off_c, 6, 84, 110
1, 27265, Note_off_c, 9, 36, 108
1, 27265, Note_off_c, 9, 63, 96
1, 27268, Note_off_c, 12, 57, 106
1, 27276, Note_off_c, 12, 62, 106
1, 27289, Note_off_c, 2, 62, 113
1, 27293, Note_off_c, 2, 57, 108
1, 27293, Note_off_c, 2, 65, 111
1, 27315, Note_on_c, 9, 69, 50
1, 27316, Note_off_c, 9, 69, 84
1, 27322, Note_off_c, 1, 38, 91
1, 27359, Note_on_c, 9, 42, 124
1, 27359, Note_on_c, 9, 69, 100
1, 27360, Note_off_c, 9, 42, 96
1, 27360, Note_on_c, 1, 50, 114
1, 27360, Note_on_c, 2, 57, 113
1, 27360, Note_on_c, 2, 62, 122
1, 27360, Note_on_c, 9, 63, 124
1, 27360, Note_on_c, 2, 65, 122
1, 27360, Note_off_c, 9, 69, 92
1, 27361, Note_off_c, 9, 63, 100
1, 27379, Note_off_c, 1, 50, 108
1, 27384, Note_off_c, 2, 57, 102
1, 27408, Note_on_c, 1, 50, 113
1, 27411, Note_on_c, 9, 69, 50
1, 27412, Note_on_c, 2, 57, 97
1, 27412, Note_off_c, 9, 69, 92
1, 27426, Note_off_c, 2, 65, 104
1, 27430, Note_off_c, 1, 50, 104
1, 27435, Note_off_c, 2, 62, 108
1, 27440, Note_off_c, 12, 60, 106
1, 27455, Note_on_c, 9, 42, 96
1, 27455, Note_on_c, 9, 69, 100
1, 27456, Note_on_c, 9, 36, 124
1, 27456, Note_on_c, 1, 38, 117
1, 27456, Note_on_c, 9, 40, 124
1, 27456, Note_off_c, 9, 42, 100
1, 27456, Note_on_c, 12, 57, 110
1, 27456, Note_on_c, 2, 62, 114
1, 27456, Note_on_c, 12, 62, 108
1, 27456, Note_on_c, 9, 62, 124
1, 27456, Note_on_c, 2, 65, 123
1, 27456, Note_off_c, 9, 69, 92
1, 27457, Note_off_c, 9, 36, 112
1, 27457, Note_off_c, 9, 40, 108
1, 27457, Note_off_c, 9, 62, 104
1, 27463, Note_off_c, 12, 65, 106
1, 27485, Note_off_c, 2, 57, 108
1, 27491, Note_off_c, 2, 62, 113
1, 27494, Note_off_c, 2, 65, 111
1, 27501, Note_off_c, 12, 62, 104
1, 27507, Note_on_c, 9, 69, 50
1, 27508, Note_off_c, 9, 69, 92
1, 27518, Note_off_c, 12, 57, 104
1, 27523, Note_off_c, 1, 38, 91
1, 27530, Pitch_bend_c, 12, 8064
1, 27537, Pitch_bend_c, 12, 7808
1, 27544, Pitch_bend_c, 12, 4992
1, 27551, Note_on_c, 9, 42, 124
1, 27551, Note_on_c, 9, 69, 100
1, 27552, Note_off_c, 9, 42, 100
1, 27552, Note_on_c, 1, 50, 116
1, 27552, Note_on_c, 12, 62, 119
1, 27552, Note_on_c, 9, 64, 112
1, 27552, Note_on_c, 12, 67, 116
1, 27552, Note_off_c, 9, 69, 92
1, 27553, Note_off_c, 9, 64, 104
1, 27553, Pitch_bend_c, 12, 2816
1, 27560, Pitch_bend_c, 12, 3840
1, 27570, Pitch_bend_c, 12, 6784
1, 27577, Note_off_c, 1, 50, 108
1, 27577, Pitch_bend_c, 12, 7552
1, 27584, Pitch_bend_c, 12, 7936
1, 27591, Pitch_bend_c, 12, 8192
1, 27600, Note_on_c, 1, 50, 110
1, 27600, Note_on_c, 9, 64, 108
1, 27601, Note_off_c, 9, 64, 112
1, 27603, Note_on_c, 9, 69, 50
1, 27604, Note_off_c, 9, 69, 92
1, 27628, Note_off_c, 1, 50, 110
1, 27647, Note_on_c, 9, 42, 100
1, 27647, Note_off_c, 11, 50, 108
1, 27647, Note_off_c, 6, 62, 113
1, 27647, Note_on_c, 9, 69, 96
1, 27648, Note_on_c, 9, 36, 124
1, 27648, Note_on_c, 11, 41, 116
1, 27648, Note_on_c, 1, 41, 122
1, 27648, Note_off_c, 9, 42, 92
1, 27648, Note_on_c, 2, 57, 114
1, 27648, Note_on_c, 2, 60, 119
1, 27648, Note_on_c, 9, 63, 120
1, 27648, Note_on_c, 2, 65, 117
1, 27648, Note_on_c, 6, 65, 90
1, 27648, Note_off_c, 9, 69, 80
1, 27649, Note_off_c, 9, 36, 76
1, 27649, Note_off_c, 9, 63, 92
1, 27664, Note_off_c, 2, 60, 111
1, 27666, Note_off_c, 0, 74, 108
1, 27672, Note_off_c, 2, 57, 104
1, 27675, Note_off_c, 2, 65, 108
1, 27678, Note_off_c, 0, 81, 110
1, 27699, Note_on_c, 9, 69, 50
1, 27700, Note_off_c, 9, 69, 80
1, 27710, Note_off_c, 6, 81, 110
1, 27719, Note_off_c, 1, 41, 108
1, 27722, Note_off_c, 0, 77, 110
1, 27740, Note_off_c, 12, 62, 108
1, 27742, Note_off_c, 12, 67, 108
1, 27743, Note_on_c, 9, 42, 120
1, 27743, Note_on_c, 9, 69, 88
1, 27744, Note_off_c, 9, 42, 92
1, 27744, Note_on_c, 1, 53, 113
1, 27744, Note_on_c, 2, 57, 116
1, 27744, Note_on_c, 2, 60, 116
1, 27744, Note_on_c, 12, 60, 111
1, 27744, Note_on_c, 9, 63, 116
1, 27744, Note_on_c, 2, 65, 110
1, 27744, Note_on_c, 12, 65, 113
1, 27744, Note_off_c, 9, 69, 76
1, 27744, Note_on_c, 0, 74, 114
1, 27744, Note_on_c, 0, 79, 114
1, 27744, Note_on_c, 0, 82, 114
1, 27744, Note_on_c, 6, 82, 117
1, 27745, Note_off_c, 9, 63, 84
1, 27758, Note_off_c, 2, 60, 116
1, 27765, Note_off_c, 1, 53, 108
1, 27767, Note_off_c, 2, 65, 108
1, 27771, Note_off_c, 2, 57, 104
1, 27773, Note_off_c, 12, 60, 104
1, 27778, Note_off_c, 12, 65, 110
1, 27787, Note_off_c, 0, 79, 106
1, 27788, Note_off_c, 0, 74, 104
1, 27788, Note_off_c, 0, 82, 106
1, 27790, Note_off_c, 6, 82, 106
1, 27792, Note_on_c, 1, 53, 113
1, 27792, Note_on_c, 0, 72, 113
1, 27792, Note_on_c, 0, 77, 114
1, 27792, Note_on_c, 0, 81, 111
1, 27792, Note_on_c, 6, 81, 116
1, 27795, Note_on_c, 9, 69, 50
1, 27796, Note_off_c, 9, 69, 76
1, 27815, Note_off_c, 1, 53, 99
1, 27836, Note_off_c, 0, 72, 108
1, 27836, Note_off_c, 0, 81, 104
1, 27837, Note_off_c, 0, 77, 104
1, 27839, Note_on_c, 9, 42, 124
1, 27839, Note_on_c, 9, 69, 104
1, 27840, Note_on_c, 9, 36, 124
1, 27840, Note_on_c, 9, 40, 124
1, 27840, Note_on_c, 1, 41, 120
1, 27840, Note_off_c, 9, 42, 96
1, 27840, Note_on_c, 2, 57, 119
1, 27840, Note_on_c, 2, 60, 123
1, 27840, Note_on_c, 12, 60, 114
1, 27840, Note_on_c, 9, 62, 124
1, 27840, Note_on_c, 2, 65, 122
1, 27840, Note_on_c, 12, 65, 114
1, 27840, Note_off_c, 9, 69, 68
1, 27840, Note_on_c, 0, 74, 113
1, 27840, Note_on_c, 0, 79, 113
1, 27840, Note_on_c, 0, 82, 116
1, 27840, Note_on_c, 6, 82, 117
1, 27841, Note_off_c, 6, 81, 111
1, 27841, Note_off_c, 9, 36, 96
1, 27841, Note_off_c, 9, 40, 96
1, 27841, Note_off_c, 9, 62, 108
1, 27881, Note_off_c, 0, 82, 99
1, 27883, Note_off_c, 0, 79, 94
1, 27885, Note_off_c, 0, 74, 76
1, 27888, Note_on_c, 0, 72, 113
1, 27888, Note_on_c, 0, 77, 114
1, 27888, Note_on_c, 0, 81, 113
1, 27888, Note_on_c, 6, 81, 113
1, 27891, Note_on_c, 9, 69, 50
1, 27892, Note_off_c, 6, 82, 104
1, 27892, Note_off_c, 9, 69, 68
1, 27909, Note_off_c, 2, 57, 106
1, 27909, Note_off_c, 1, 41, 108
1, 27912, Note_off_c, 2, 60, 111
1, 27912, Note_off_c, 2, 65, 110
1, 27928, Note_off_c, 0, 72, 108
1, 27928, Note_off_c, 0, 81, 108
1, 27932, Note_off_c, 12, 60, 110
1, 27934, Note_off_c, 0, 77, 110
1, 27935, Note_on_c, 9, 42, 124
1, 27935, Note_on_c, 9, 69, 96
1, 27936, Note_off_c, 12, 65, 104
1, 27936, Note_off_c, 6, 81, 111
1, 27936, Note_off_c, 9, 42, 100
1, 27936, Note_on_c, 1, 53, 113
1, 27936, Note_on_c, 12, 57, 111
1, 27936, Note_on_c, 12, 62, 113
1, 27936, Note_on_c, 9, 64, 116
1, 27936, Note_off_c, 9, 69, 68
1, 27936, Note_on_c, 0, 69, 113
1, 27936, Note_on_c, 0, 72, 114
1, 27936, Note_on_c, 0, 77, 113
1, 27936, Note_on_c, 6, 77, 119
1, 27937, Note_off_c, 9, 64, 96
1, 27958, Note_off_c, 1, 53, 108
1, 27976, Note_off_c, 0, 69, 106
1, 27979, Note_off_c, 0, 72, 108
1, 27979, Note_off_c, 0, 77, 111
1, 27984, Note_on_c, 1, 53, 113
1, 27984, Note_on_c, 9, 64, 108
1, 27984, Note_on_c, 0, 67, 111
1, 27984, Note_on_c, 0, 69, 110
1, 27984, Note_on_c, 0, 74, 114
1, 27984, Note_on_c, 6, 74, 117
1, 27985, Note_off_c, 9, 64, 104
1, 27987, Note_on_c, 9, 69, 50
1, 27988, Note_off_c, 9, 69, 68
1, 27989, Note_off_c, 6, 77, 113
1, 28006, Note_off_c, 1, 53, 104
1, 28025, Note_off_c, 0, 67, 110
1, 28029, Note_off_c, 0, 74, 108
1, 28030, Note_off_c, 0, 69, 104
1, 28031, Note_on_c, 9, 42, 76
1, 28031, Note_on_c, 9, 69, 104
1, 28032, Note_on_c, 9, 36, 124
1, 28032, Note_on_c, 1, 41, 122
1, 28032, Note_off_c, 9, 42, 100
1, 28032, Note_on_c, 2, 57, 113
1, 28032, Note_on_c, 2, 60, 122
1, 28032, Note_on_c, 12, 60, 111
1, 28032, Note_on_c, 9, 63, 124
1, 28032, Note_on_c, 2, 65, 120
1, 28032, Note_on_c, 12, 65, 113
1, 28032, Note_off_c, 9, 69, 84
1, 28032, Note_on_c, 0, 69, 119
1, 28032, Note_on_c, 0, 72, 119
1, 28032, Note_on_c, 0, 77, 120
1, 28032, Note_on_c, 6, 77, 120
1, 28033, Note_off_c, 12, 57, 108
1, 28033, Note_off_c, 9, 36, 108
1, 28033, Note_off_c, 9, 63, 96
1, 28038, Note_off_c, 12, 62, 108
1, 28042, Note_off_c, 6, 74, 108
1, 28083, Note_on_c, 9, 69, 50
1, 28084, Note_off_c, 9, 69, 84
1, 28102, Note_off_c, 1, 41, 106
1, 28127, Note_on_c, 9, 42, 124
1, 28127, Note_on_c, 9, 69, 100
1, 28128, Note_off_c, 9, 42, 100
1, 28128, Note_on_c, 1, 53, 110
1, 28128, Note_on_c, 9, 63, 124
1, 28128, Note_off_c, 9, 69, 92
1, 28129, Note_off_c, 9, 63, 100
1, 28131, Note_off_c, 2, 57, 71
1, 28149, Note_off_c, 1, 53, 108
1, 28156, Note_off_c, 2, 65, 66
1, 28176, Note_on_c, 1, 53, 108
1, 28179, Note_on_c, 9, 69, 50
1, 28180, Note_on_c, 2, 57, 102
1, 28180, Note_off_c, 9, 69, 92
1, 28186, Note_off_c, 2, 60, 66
1, 28204, Note_off_c, 1, 53, 108
1, 28218, Note_off_c, 12, 60, 108
1, 28223, Note_on_c, 9, 42, 84
1, 28223, Note_on_c, 9, 69, 100
1, 28224, Note_on_c, 9, 36, 124
1, 28224, Note_on_c, 9, 40, 124
1, 28224, Note_on_c, 1, 41, 120
1, 28224, Note_off_c, 9, 42, 96
1, 28224, Note_on_c, 12, 57, 108
1, 28224, Note_on_c, 2, 60, 122
1, 28224, Note_on_c, 12, 62, 113
1, 28224, Note_on_c, 9, 62, 124
1, 28224, Note_on_c, 2, 65, 120
1, 28224, Note_off_c, 9, 69, 92
1, 28225, Note_off_c, 12, 65, 97
1, 28225, Note_off_c, 9, 36, 112
1, 28225, Note_off_c, 9, 40, 108
1, 28225, Note_off_c, 9, 62, 104
1, 28248, Note_off_c, 2, 65, 108
1, 28263, Note_off_c, 2, 60, 108
1, 28273, Note_off_c, 2, 57, 102
1, 28275, Note_on_c, 9, 69, 50
1, 28276, Note_off_c, 9, 69, 92
1, 28290, Note_off_c, 1, 41, 106
1, 28318, Note_off_c, 12, 62, 108
1, 28319, Note_on_c, 9, 42, 124
1, 28319, Note_on_c, 9, 69, 100
1, 28320, Note_off_c, 9, 42, 100
1, 28320, Note_on_c, 12, 53, 108
1, 28320, Note_on_c, 1, 53, 113
1, 28320, Note_on_c, 12, 60, 114
1, 28320, Note_on_c, 9, 64, 112
1, 28320, Note_off_c, 9, 69, 92
1, 28321, Note_off_c, 9, 64, 104
1, 28340, Note_off_c, 1, 53, 111
1, 28368, Note_on_c, 1, 53, 114
1, 28368, Note_on_c, 9, 64, 108
1, 28369, Note_off_c, 9, 64, 112
1, 28371, Note_on_c, 9, 69, 50
1, 28372, Note_off_c, 9, 69, 92
1, 28395, Note_off_c, 1, 53, 108
1, 28415, Note_on_c, 9, 42, 92
1, 28415, Note_on_c, 9, 69, 96
1, 28416, Note_on_c, 9, 36, 124
1, 28416, Note_on_c, 1, 41, 120
1, 28416, Note_off_c, 9, 42, 100
1, 28416, Note_on_c, 2, 57, 108
1, 28416, Note_on_c, 2, 60, 119
1, 28416, Note_on_c, 9, 63, 120
1, 28416, Note_on_c, 2, 65, 117
1, 28416, Note_off_c, 9, 69, 80
1, 28417, Note_off_c, 9, 36, 76
1, 28417, Note_off_c, 9, 63, 92
1, 28443, Note_off_c, 2, 57, 104
1, 28445, Note_off_c, 2, 60, 111
1, 28448, Note_off_c, 2, 65, 110
1, 28459, Note_off_c, 6, 77, 111
1, 28467, Note_on_c, 9, 69, 50
1, 28468, Note_off_c, 9, 69, 80
1, 28491, Note_off_c, 0, 77, 111
1, 28501, Note_off_c, 1, 41, 99
1, 28507, Note_off_c, 0, 69, 110
1, 28511, Note_on_c, 9, 42, 124
1, 28511, Note_on_c, 9, 69, 88
1, 28512, Note_off_c, 9, 42, 96
1, 28512, Note_on_c, 1, 53, 114
1, 28512, Note_on_c, 2, 57, 113
1, 28512, Note_on_c, 2, 60, 120
1, 28512, Note_on_c, 9, 63, 116
1, 28512, Note_on_c, 2, 65, 117
1, 28512, Note_off_c, 9, 69, 76
1, 28512, Note_on_c, 0, 70, 110
1, 28512, Note_on_c, 0, 74, 113
1, 28512, Note_on_c, 0, 79, 114
1, 28512, Note_on_c, 6, 79, 116
1, 28513, Note_off_c, 9, 63, 84
1, 28514, Note_off_c, 0, 72, 110
1, 28535, Note_off_c, 2, 60, 108
1, 28538, Note_off_c, 2, 57, 106
1, 28538, Note_off_c, 1, 53, 108
1, 28541, Note_off_c, 2, 65, 102
1, 28554, Note_off_c, 0, 79, 108
1, 28556, Note_off_c, 0, 70, 104
1, 28559, Note_off_c, 0, 74, 108
1, 28560, Note_on_c, 1, 53, 108
1, 28560, Note_on_c, 0, 69, 110
1, 28560, Note_on_c, 0, 72, 108
1, 28560, Note_on_c, 0, 77, 114
1, 28560, Note_on_c, 6, 77, 116
1, 28560, Note_off_c, 6, 79, 108
1, 28563, Note_on_c, 9, 69, 50
1, 28564, Note_off_c, 9, 69, 76
1, 28589, Note_off_c, 1, 53, 108
1, 28600, Note_off_c, 0, 77, 110
1, 28601, Note_off_c, 0, 72, 108
1, 28607, Note_off_c, 11, 41, 104
1, 28607, Note_on_c, 9, 42, 112
1, 28607, Note_off_c, 0, 69, 102
1, 28607, Note_on_c, 9, 69, 104
1, 28608, Note_on_c, 9, 36, 124
1, 28608, Note_on_c, 9, 40, 124
1, 28608, Note_off_c, 9, 42, 100
1, 28608, Note_on_c, 11, 43, 119
1, 28608, Note_on_c, 1, 43, 119
1, 28608, Note_on_c, 2, 57, 116
1, 28608, Note_on_c, 2, 60, 122
1, 28608, Note_on_c, 9, 62, 124
1, 28608, Note_on_c, 2, 65, 120
1, 28608, Note_off_c, 9, 69, 68
1, 28608, Note_on_c, 0, 70, 111
1, 28608, Note_on_c, 0, 74, 113
1, 28608, Note_on_c, 0, 79, 111
1, 28608, Note_on_c, 6, 79, 116
1, 28609, Note_off_c, 9, 36, 96
1, 28609, Note_off_c, 9, 40, 96
1, 28609, Note_off_c, 9, 62, 108
1, 28612, Note_off_c, 6, 77, 111
1, 28650, Note_off_c, 0, 79, 102
1, 28654, Note_off_c, 0, 70, 99
1, 28655, Note_off_c, 0, 74, 97
1, 28656, Note_on_c, 0, 69, 108
1, 28656, Note_on_c, 0, 72, 114
1, 28656, Note_on_c, 0, 77, 116
1, 28656, Note_on_c, 6, 77, 111
1, 28659, Note_on_c, 9, 69, 50
1, 28660, Note_off_c, 9, 69, 68
1, 28663, Note_off_c, 6, 79, 108
1, 28678, Note_off_c, 1, 43, 104
1, 28681, Note_off_c, 2, 65, 110
1, 28684, Note_off_c, 2, 60, 97
1, 28690, Note_off_c, 2, 57, 104
1, 28698, Note_off_c, 0, 69, 108
1, 28702, Note_off_c, 0, 72, 111
1, 28703, Note_on_c, 9, 42, 124
1, 28703, Note_on_c, 9, 69, 96
1, 28703, Note_off_c, 0, 77, 113
1, 28704, Note_off_c, 9, 42, 100
1, 28704, Note_on_c, 1, 55, 113
1, 28704, Note_on_c, 9, 64, 116
1, 28704, Note_on_c, 0, 65, 114
1, 28704, Note_off_c, 9, 69, 68
1, 28704, Note_on_c, 0, 69, 116
1, 28704, Note_on_c, 0, 74, 114
1, 28704, Note_on_c, 6, 74, 116
1, 28705, Note_off_c, 9, 64, 96
1, 28708, Note_off_c, 6, 77, 108
1, 28724, Note_off_c, 1, 55, 111
1, 28745, Note_off_c, 0, 74, 108
1, 28749, Note_off_c, 0, 65, 110
1, 28749, Note_off_c, 0, 69, 108
1, 28752, Note_on_c, 1, 55, 108
1, 28752, Note_on_c, 0, 62, 117
1, 28752, Note_on_c, 9, 64, 108
1, 28752, Note_on_c, 0, 67, 113
1, 28752, Note_on_c, 0, 72, 110
1, 28752, Note_on_c, 6, 72, 116
1, 28753, Note_off_c, 9, 64, 104
1, 28755, Note_on_c, 9, 69, 50
1, 28755, Note_off_c, 6, 74, 106
1, 28756, Note_off_c, 9, 69, 68
1, 28779, Note_off_c, 1, 55, 110
1, 28795, Note_off_c, 0, 72, 110
1, 28798, Note_off_c, 0, 62, 110
1, 28798, Note_off_c, 0, 67, 110
1, 28799, Note_on_c, 9, 42, 88
1, 28799, Note_off_c, 11, 43, 102
1, 28799, Note_on_c, 9, 69, 104
1, 28800, Note_on_c, 9, 36, 124
1, 28800, Note_off_c, 9, 42, 100
1, 28800, Note_on_c, 11, 45, 116
1, 28800, Note_on_c, 1, 45, 122
1, 28800, Note_on_c, 2, 57, 117
1, 28800, Note_on_c, 2, 60, 122
1, 28800, Note_on_c, 9, 63, 124
1, 28800, Note_on_c, 0, 65, 120
1, 28800, Note_on_c, 2, 65, 122
1, 28800, Note_off_c, 9, 69, 84
1, 28800, Note_on_c, 0, 69, 120
1, 28800, Note_on_c, 0, 74, 116
1, 28800, Note_on_c, 6, 74, 117
1, 28801, Note_off_c, 9, 36, 108
1, 28801, Note_off_c, 9, 63, 96
1, 28802, Note_off_c, 6, 72, 110
1, 28851, Note_on_c, 9, 69, 50
1, 28852, Note_off_c, 9, 69, 84
1, 28871, Note_off_c, 1, 45, 108
1, 28895, Note_on_c, 9, 46, 124
1, 28895, Note_on_c, 9, 69, 100
1, 28896, Note_off_c, 9, 46, 100
1, 28896, Note_on_c, 1, 57, 116
1, 28896, Note_on_c, 9, 63, 124
1, 28896, Note_off_c, 9, 69, 92
1, 28897, Note_off_c, 9, 63, 100
1, 28900, Note_off_c, 2, 57, 84
1, 28923, Note_off_c, 1, 57, 106
1, 28926, Note_off_c, 2, 65, 71
1, 28944, Note_on_c, 1, 57, 106
1, 28947, Note_on_c, 9, 69, 50
1, 28948, Note_on_c, 2, 57, 97
1, 28948, Note_off_c, 9, 69, 92
1, 28962, Note_off_c, 2, 60, 13
1, 28970, Note_off_c, 1, 57, 106
1, 28975, Note_off_c, 2, 57, 97
1, 28991, Note_on_c, 9, 44, 89
1, 28991, Note_off_c, 11, 45, 108
1, 28991, Note_on_c, 9, 69, 100
1, 28992, Note_on_c, 9, 36, 124
1, 28992, Note_on_c, 9, 40, 80
1, 28992, Note_on_c, 11, 41, 122
1, 28992, Note_on_c, 1, 41, 120
1, 28992, Note_off_c, 9, 44, 100
1, 28992, Note_on_c, 2, 57, 113
1, 28992, Note_on_c, 2, 60, 117
1, 28992, Note_on_c, 9, 62, 124
1, 28992, Note_on_c, 2, 65, 120
1, 28992, Note_off_c, 9, 69, 92
1, 28993, Note_off_c, 9, 36, 112
1, 28993, Note_off_c, 9, 40, 108
1, 28993, Note_off_c, 9, 62, 104
1, 29008, Note_off_c, 12, 60, 111
1, 29011, Note_off_c, 2, 65, 108
1, 29012, Note_off_c, 2, 60, 110
1, 29018, Note_off_c, 12, 57, 108
1, 29021, Note_off_c, 12, 53, 106
1, 29025, Note_off_c, 2, 57, 104
1, 29040, Note_on_c, 9, 40, 105
1, 29041, Note_off_c, 9, 40, 108
1, 29043, Note_on_c, 9, 69, 50
1, 29044, Note_off_c, 9, 69, 92
1, 29075, Note_off_c, 1, 41, 111
1, 29087, Note_on_c, 9, 69, 100
1, 29088, Note_on_c, 9, 40, 124
1, 29088, Note_on_c, 1, 53, 111
1, 29088, Note_on_c, 2, 57, 96
1, 29088, Note_on_c, 2, 60, 98
1, 29088, Note_on_c, 9, 64, 112
1, 29088, Note_on_c, 2, 65, 98
1, 29088, Note_off_c, 9, 69, 92
1, 29089, Note_off_c, 9, 40, 108
1, 29089, Note_off_c, 9, 64, 104
1, 29107, Note_off_c, 2, 65, 108
1, 29108, Note_off_c, 2, 60, 110
1, 29109, Note_off_c, 1, 53, 113
1, 29121, Note_off_c, 2, 57, 104
1, 29136, Note_on_c, 1, 53, 111
1, 29136, Note_on_c, 9, 64, 108
1, 29137, Note_off_c, 9, 64, 112
1, 29137, Note_on_c, 12, 53, 76
1, 29139, Note_on_c, 9, 69, 50
1, 29140, Note_off_c, 9, 69, 92
1, 29160, Note_on_c, 12, 58, 86
1, 29163, Note_off_c, 1, 53, 110
1, 29178, Note_off_c, 6, 65, 110
1, 29178, Note_on_c, 12, 62, 97
1, 29182, Note_off_c, 0, 74, 108
1, 29183, Note_off_c, 11, 41, 111
1, 29183, Note_on_c, 9, 69, 96
1, 29184, Note_off_c, 0, 69, 111
1, 29184, Note_on_c, 1, 31, 113
1, 29184, Note_on_c, 9, 36, 124
1, 29184, Note_on_c, 9, 49, 124
1, 29184, Note_on_c, 0, 53, 81
1, 29184, Note_on_c, 0, 58, 71
1, 29184, Note_on_c, 0, 62, 84
1, 29184, Note_on_c, 9, 63, 110
1, 29184, Note_off_c, 9, 69, 80
1, 29184, Note_on_c, 0, 77, 100
1, 29184, Note_on_c, 3, 81, 123
1, 29184, Note_on_c, 0, 81, 99
1, 29185, Note_off_c, 0, 65, 111
1, 29185, Note_off_c, 9, 36, 76
1, 29185, Note_off_c, 9, 49, 100
1, 29185, Note_off_c, 9, 63, 82
1, 29193, Note_on_c, 12, 69, 92
1, 29209, Note_off_c, 6, 74, 84
1, 29229, Note_off_c, 1, 31, 94
1, 29235, Note_on_c, 9, 69, 50
1, 29236, Note_off_c, 9, 69, 80
1, 29279, Note_on_c, 9, 69, 88
1, 29280, Note_on_c, 1, 43, 111
1, 29280, Note_on_c, 9, 63, 106
1, 29280, Note_off_c, 9, 69, 76
1, 29281, Note_off_c, 9, 63, 74
1, 29296, Note_off_c, 3, 81, 110
1, 29312, Note_on_c, 0, 79, 99
1, 29312, Note_on_c, 0, 82, 98
1, 29314, Note_off_c, 1, 43, 94
1, 29327, Note_off_c, 0, 81, 102
1, 29328, Note_off_c, 0, 77, 99
1, 29328, Note_on_c, 3, 81, 124
1, 29331, Note_on_c, 9, 69, 50
1, 29332, Note_off_c, 9, 69, 76
1, 29375, Note_on_c, 9, 42, 7
1, 29375, Note_on_c, 9, 69, 104
1, 29376, Note_on_c, 1, 33, 104
1, 29376, Note_on_c, 9, 36, 124
1, 29376, Note_on_c, 9, 40, 109
1, 29376, Note_off_c, 9, 42, 88
1, 29376, Note_on_c, 2, 62, 108
1, 29376, Note_on_c, 9, 62, 114
1, 29376, Note_on_c, 2, 65, 113
1, 29376, Note_off_c, 9, 69, 68
1, 29376, Note_on_c, 2, 70, 122
1, 29377, Note_off_c, 9, 36, 96
1, 29377, Note_off_c, 9, 40, 81
1, 29377, Note_off_c, 9, 62, 98
1, 29427, Note_on_c, 9, 69, 50
1, 29428, Note_off_c, 9, 69, 68
1, 29431, Note_off_c, 1, 33, 91
1, 29432, Note_off_c, 3, 81, 110
1, 29440, Note_on_c, 0, 81, 96
1, 29440, Note_on_c, 0, 84, 90
1, 29445, Note_off_c, 0, 82, 97
1, 29447, Note_off_c, 0, 79, 102
1, 29471, Note_on_c, 9, 42, 112
1, 29471, Note_on_c, 9, 69, 96
1, 29472, Note_off_c, 9, 42, 88
1, 29472, Note_on_c, 1, 45, 111
1, 29472, Note_on_c, 9, 64, 106
1, 29472, Note_off_c, 9, 69, 68
1, 29472, Note_on_c, 3, 81, 122
1, 29473, Note_off_c, 9, 64, 86
1, 29495, Note_off_c, 2, 62, 35
1, 29500, Note_off_c, 2, 65, 76
1, 29507, Note_off_c, 1, 45, 106
1, 29515, Note_off_c, 3, 81, 111
1, 29520, Note_on_c, 9, 64, 98
1, 29521, Note_off_c, 9, 64, 94
1, 29523, Note_on_c, 9, 69, 50
1, 29524, Note_on_c, 2, 62, 97
1, 29524, Note_off_c, 9, 69, 68
1, 29525, Note_off_c, 2, 70, 106
1, 29557, Note_off_c, 0, 84, 108
1, 29567, Note_on_c, 9, 42, 52
1, 29567, Note_off_c, 2, 62, 108
1, 29567, Note_on_c, 9, 69, 104
1, 29568, Note_on_c, 1, 34, 114
1, 29568, Note_on_c, 9, 36, 124
1, 29568, Note_off_c, 9, 42, 92
1, 29568, Note_on_c, 9, 63, 114
1, 29568, Note_on_c, 2, 65, 119
1, 29568, Note_off_c, 9, 69, 84
1, 29568, Note_on_c, 2, 70, 117
1, 29568, Note_on_c, 0, 77, 111
1, 29568, Note_on_c, 3, 81, 124
1, 29569, Note_off_c, 9, 36, 108
1, 29569, Note_off_c, 9, 63, 86
1, 29586, Note_off_c, 2, 70, 104
1, 29597, Note_off_c, 2, 65, 108
1, 29619, Note_off_c, 1, 34, 84
1, 29619, Note_on_c, 9, 69, 50
1, 29620, Note_off_c, 9, 69, 84
1, 29663, Note_on_c, 9, 42, 124
1, 29663, Note_on_c, 9, 69, 100
1, 29664, Note_off_c, 9, 42, 92
1, 29664, Note_on_c, 1, 46, 104
1, 29664, Note_on_c, 9, 63, 114
1, 29664, Note_off_c, 9, 69, 92
1, 29665, Note_off_c, 9, 63, 90
1, 29700, Note_off_c, 1, 46, 91
1, 29715, Note_on_c, 9, 69, 50
1, 29716, Note_off_c, 9, 69, 92
1, 29759, Note_on_c, 9, 42, 84
1, 29759, Note_on_c, 9, 69, 100
1, 29760, Note_on_c, 9, 36, 124
1, 29760, Note_on_c, 9, 40, 109
1, 29760, Note_off_c, 9, 42, 96
1, 29760, Note_on_c, 9, 62, 114
1, 29760, Note_on_c, 2, 65, 120
1, 29760, Note_off_c, 9, 69, 92
1, 29760, Note_on_c, 2, 70, 120
1, 29761, Note_off_c, 9, 36, 112
1, 29761, Note_off_c, 9, 40, 93
1, 29761, Note_off_c, 9, 62, 94
1, 29763, Note_off_c, 3, 81, 113
1, 29777, Note_off_c, 2, 70, 94
1, 29780, Note_off_c, 2, 65, 104
1, 29811, Note_on_c, 9, 69, 50
1, 29812, Note_off_c, 9, 69, 92
1, 29838, Note_off_c, 12, 69, 13
1, 29855, Note_on_c, 9, 42, 124
1, 29855, Note_on_c, 9, 69, 100
1, 29856, Note_off_c, 9, 42, 96
1, 29856, Note_on_c, 1, 46, 104
1, 29856, Note_on_c, 9, 64, 102
1, 29856, Note_off_c, 9, 69, 92
1, 29857, Note_off_c, 9, 64, 94
1, 29867, Note_off_c, 12, 58, 81
1, 29873, Note_off_c, 1, 46, 99
1, 29897, Note_off_c, 12, 53, 97
1, 29898, Note_off_c, 12, 62, 104
1, 29904, Note_on_c, 1, 46, 113
1, 29904, Note_on_c, 9, 64, 98
1, 29905, Note_off_c, 9, 64, 102
1, 29907, Note_on_c, 9, 69, 50
1, 29908, Note_off_c, 9, 69, 92
1, 29913, Note_on_c, 12, 53, 94
1, 29923, Pitch_bend_c, 2, 7552
1, 29928, Note_off_c, 0, 77, 81
1, 29928, Note_off_c, 1, 46, 84
1, 29931, Note_off_c, 0, 58, 88
1, 29931, Pitch_bend_c, 2, 5760
1, 29936, Note_on_c, 12, 58, 104
1, 29938, Pitch_bend_c, 2, 3456
1, 29941, Note_off_c, 0, 62, 104
1, 29942, Note_off_c, 0, 53, 84
1, 29946, Pitch_bend_c, 2, 1152
1, 29947, Note_off_c, 0, 81, 108
1, 29951, Note_on_c, 9, 42, 76
1, 29951, Note_on_c, 9, 69, 96
1, 29952, Note_on_c, 1, 34, 114
1, 29952, Note_on_c, 9, 36, 124
1, 29952, Note_off_c, 9, 42, 100
1, 29952, Note_on_c, 0, 53, 94
1, 29952, Note_on_c, 0, 58, 94
1, 29952, Note_on_c, 9, 63, 110
1, 29952, Note_on_c, 0, 65, 94
1, 29952, Note_off_c, 9, 69, 80
1, 29952, Note_on_c, 2, 74, 114
1, 29952, Note_on_c, 3, 77, 120
1, 29952, Note_on_c, 2, 79, 116
1, 29953, Note_off_c, 9, 36, 76
1, 29953, Note_off_c, 9, 63, 82
1, 29953, Note_on_c, 0, 70, 111
1, 29953, Pitch_bend_c, 2, 512
1, 29954, Note_on_c, 0, 72, 110
1, 29955, Note_on_c, 12, 62, 96
1, 29961, Pitch_bend_c, 2, 4608
1, 29966, Note_on_c, 0, 74, 104
1, 29968, Pitch_bend_c, 2, 6656
1, 29975, Pitch_bend_c, 2, 7552
1, 29976, Note_off_c, 0, 72, 102
1, 29982, Pitch_bend_c, 2, 7936
1, 29988, Note_off_c, 1, 34, 102
1, 29989, Pitch_bend_c, 2, 8192
1, 30003, Note_on_c, 9, 69, 50
1, 30004, Note_off_c, 9, 69, 80
1, 30038, Note_off_c, 3, 77, 110
1, 30047, Note_on_c, 9, 42, 124
1, 30047, Note_on_c, 9, 69, 88
1, 30048, Note_off_c, 9, 42, 100
1, 30048, Note_on_c, 1, 46, 113
1, 30048, Note_on_c, 9, 63, 106
1, 30048, Note_off_c, 9, 69, 76
1, 30048, Note_on_c, 3, 74, 111
1, 30049, Note_off_c, 9, 63, 74
1, 30076, Note_off_c, 2, 74, 71
1, 30081, Note_off_c, 1, 46, 97
1, 30085, Note_off_c, 2, 79, 97
1, 30099, Note_on_c, 9, 69, 50
1, 30100, Note_off_c, 9, 69, 76
1, 30100, Note_on_c, 2, 79, 114
1, 30124, Note_off_c, 3, 74, 102
1, 30126, Note_off_c, 2, 79, 102
1, 30143, Note_on_c, 9, 42, 80
1, 30143, Note_on_c, 9, 69, 104
1, 30144, Note_on_c, 9, 36, 124
1, 30144, Note_on_c, 9, 40, 109
1, 30144, Note_off_c, 9, 42, 96
1, 30144, Note_on_c, 9, 62, 114
1, 30144, Note_off_c, 9, 69, 68
1, 30144, Note_on_c, 2, 72, 120
1, 30144, Note_on_c, 3, 77, 120
1, 30144, Note_on_c, 2, 77, 122
1, 30145, Note_off_c, 9, 36, 96
1, 30145, Note_off_c, 9, 40, 81
1, 30145, Note_off_c, 9, 62, 98
1, 30161, Note_off_c, 2, 77, 106
1, 30169, Note_off_c, 2, 72, 113
1, 30195, Note_on_c, 9, 69, 50
1, 30196, Note_off_c, 9, 69, 68
1, 30227, Note_off_c, 3, 77, 110
1, 30239, Note_on_c, 9, 42, 124
1, 30239, Note_on_c, 9, 69, 96
1, 30240, Note_off_c, 9, 42, 96
1, 30240, Note_on_c, 1, 46, 111
1, 30240, Note_on_c, 9, 64, 106
1, 30240, Note_off_c, 9, 69, 68
1, 30240, Note_on_c, 3, 74, 116
1, 30241, Note_off_c, 9, 64, 86
1, 30258, Note_off_c, 1, 46, 97
1, 30288, Note_on_c, 1, 46, 113
1, 30288, Note_on_c, 9, 64, 98
1, 30289, Note_off_c, 9, 64, 94
1, 30291, Note_off_c, 12, 58, 84
1, 30291, Note_on_c, 9, 69, 50
1, 30292, Note_off_c, 9, 69, 68
1, 30300, Note_on_c, 12, 52, 88
1, 30301, Note_off_c, 3, 74, 97
1, 30305, Note_off_c, 12, 62, 94
1, 30313, Note_off_c, 12, 53, 91
1, 30314, Note_off_c, 1, 46, 91
1, 30330, Note_on_c, 12, 55, 101
1, 30331, Note_off_c, 0, 70, 60
1, 30334, Note_off_c, 0, 65, 102
1, 30335, Note_on_c, 9, 42, 92
1, 30335, Note_off_c, 0, 53, 102
1, 30335, Note_off_c, 0, 58, 102
1, 30335, Note_on_c, 9, 69, 104
1, 30336, Note_on_c, 1, 34, 114
1, 30336, Note_on_c, 9, 36, 124
1, 30336, Note_off_c, 9, 42, 100
1, 30336, Note_on_c, 0, 52, 97
1, 30336, Note_on_c, 9, 63, 114
1, 30336, Note_on_c, 0, 64, 99
1, 30336, Note_on_c, 0, 67, 99
1, 30336, Note_on_c, 2, 67, 97
1, 30336, Note_off_c, 9, 69, 84
1, 30336, Note_on_c, 0, 72, 102
1, 30336, Note_on_c, 2, 72, 108
1, 30336, Note_on_c, 3, 77, 122
1, 30337, Note_off_c, 9, 36, 108
1, 30337, Note_off_c, 9, 63, 86
1, 30342, Note_on_c, 12, 60, 97
1, 30342, Note_off_c, 0, 74, 13
1, 30370, Note_off_c, 1, 34, 104
1, 30387, Note_on_c, 9, 69, 50
1, 30388, Note_off_c, 9, 69, 84
1, 30431, Note_on_c, 9, 42, 124
1, 30431, Note_on_c, 9, 69, 100
1, 30432, Note_off_c, 9, 42, 96
1, 30432, Note_on_c, 1, 46, 113
1, 30432, Note_on_c, 9, 63, 114
1, 30432, Note_off_c, 9, 69, 92
1, 30433, Note_off_c, 9, 63, 90
1, 30449, Note_off_c, 2, 67, 71
1, 30450, Note_off_c, 2, 72, 84
1, 30461, Note_off_c, 1, 46, 104
1, 30483, Note_on_c, 9, 69, 50
1, 30484, Note_off_c, 9, 69, 92
1, 30486, Note_off_c, 3, 77, 110
1, 30527, Note_on_c, 9, 42, 96
1, 30527, Note_on_c, 9, 69, 100
1, 30528, Note_on_c, 1, 33, 102
1, 30528, Note_on_c, 9, 36, 124
1, 30528, Note_on_c, 9, 40, 109
1, 30528, Note_off_c, 9, 42, 100
1, 30528, Note_on_c, 9, 62, 114
1, 30528, Note_on_c, 2, 67, 97
1, 30528, Note_off_c, 9, 69, 92
1, 30528, Note_on_c, 3, 79, 117
1, 30529, Note_off_c, 9, 36, 112
1, 30529, Note_off_c, 9, 40, 93
1, 30529, Note_off_c, 9, 62, 94
1, 30568, Note_off_c, 1, 33, 99
1, 30579, Note_on_c, 9, 69, 50
1, 30580, Note_off_c, 2, 67, 102
1, 30580, Note_on_c, 2, 67, 98
1, 30580, Note_off_c, 9, 69, 92
1, 30601, Note_off_c, 2, 67, 110
1, 30618, Note_off_c, 12, 55, 71
1, 30623, Note_on_c, 9, 42, 124
1, 30623, Note_on_c, 9, 69, 100
1, 30624, Note_off_c, 9, 42, 100
1, 30624, Note_on_c, 1, 45, 119
1, 30624, Note_on_c, 9, 64, 102
1, 30624, Note_off_c, 9, 69, 92
1, 30624, Note_on_c, 2, 76, 104
1, 30625, Note_off_c, 9, 64, 94
1, 30651, Note_off_c, 1, 45, 106
1, 30652, Note_off_c, 3, 79, 111
1, 30664, Note_off_c, 12, 52, 108
1, 30665, Note_off_c, 12, 60, 111
1, 30672, Note_on_c, 9, 64, 98
1, 30673, Note_on_c, 12, 53, 76
1, 30673, Note_off_c, 9, 64, 102
1, 30675, Note_on_c, 9, 69, 50
1, 30676, Note_off_c, 2, 76, 106
1, 30676, Note_off_c, 9, 69, 92
1, 30676, Note_on_c, 2, 76, 104
1, 30696, Note_on_c, 12, 58, 86
1, 30707, Note_off_c, 2, 76, 110
1, 30714, Note_on_c, 12, 62, 97
1, 30714, Note_off_c, 0, 64, 111
1, 30718, Note_off_c, 0, 52, 84
1, 30718, Note_off_c, 0, 67, 111
1, 30718, Note_off_c, 0, 72, 108
1, 30719, Note_on_c, 9, 42, 76
1, 30719, Note_on_c, 9, 69, 96
1, 30720, Note_on_c, 1, 31, 113
1, 30720, Note_on_c, 9, 36, 124
1, 30720, Note_off_c, 9, 42, 96
1, 30720, Note_on_c, 0, 53, 81
1, 30720, Note_on_c, 0, 58, 71
1, 30720, Note_on_c, 0, 62, 84
1, 30720, Note_on_c, 9, 63, 110
1, 30720, Note_off_c, 9, 69, 80
1, 30720, Note_on_c, 0, 77, 100
1, 30720, Note_on_c, 0, 81, 99
1, 30721, Note_off_c, 9, 36, 76
1, 30721, Note_off_c, 9, 63, 82
1, 30729, Note_on_c, 12, 69, 92
1, 30765, Note_off_c, 1, 31, 94
1, 30771, Note_on_c, 9, 69, 50
1, 30772, Note_off_c, 9, 69, 80
1, 30815, Note_on_c, 9, 42, 124
1, 30815, Note_on_c, 9, 69, 88
1, 30816, Note_off_c, 9, 42, 100
1, 30816, Note_on_c, 1, 43, 111
1, 30816, Note_on_c, 9, 63, 106
1, 30816, Note_off_c, 9, 69, 76
1, 30816, Note_on_c, 3, 81, 116
1, 30817, Note_off_c, 9, 63, 74
1, 30848, Note_on_c, 0, 79, 99
1, 30848, Note_on_c, 0, 82, 98
1, 30850, Note_off_c, 1, 43, 94
1, 30861, Note_off_c, 3, 81, 108
1, 30863, Note_off_c, 0, 81, 102
1, 30864, Note_on_c, 1, 43, 111
1, 30864, Note_off_c, 0, 77, 99
1, 30864, Note_on_c, 3, 77, 122
1, 30867, Note_on_c, 9, 69, 50
1, 30868, Note_off_c, 9, 69, 76
1, 30898, Note_off_c, 1, 43, 94
1, 30911, Note_on_c, 9, 42, 92
1, 30911, Note_on_c, 9, 69, 104
1, 30912, Note_on_c, 1, 33, 104
1, 30912, Note_on_c, 9, 36, 124
1, 30912, Note_on_c, 9, 40, 109
1, 30912, Note_off_c, 9, 42, 100
1, 30912, Note_on_c, 2, 62, 108
1, 30912, Note_on_c, 9, 62, 114
1, 30912, Note_on_c, 2, 65, 113
1, 30912, Note_off_c, 9, 69, 68
1, 30912, Note_on_c, 2, 70, 122
1, 30913, Note_off_c, 9, 36, 96
1, 30913, Note_off_c, 9, 40, 81
1, 30913, Note_off_c, 9, 62, 98
1, 30963, Note_on_c, 9, 69, 50
1, 30964, Note_off_c, 9, 69, 68
1, 30967, Note_off_c, 1, 33, 91
1, 30976, Note_on_c, 0, 81, 96
1, 30976, Note_on_c, 0, 84, 90
1, 30979, Note_off_c, 3, 77, 111
1, 30981, Note_off_c, 0, 82, 97
1, 30983, Note_off_c, 0, 79, 102
1, 31007, Note_on_c, 9, 42, 124
1, 31007, Note_on_c, 9, 69, 96
1, 31008, Note_off_c, 9, 42, 92
1, 31008, Note_on_c, 1, 45, 111
1, 31008, Note_on_c, 9, 64, 106
1, 31008, Note_off_c, 9, 69, 68
1, 31008, Note_on_c, 3, 74, 116
1, 31009, Note_off_c, 9, 64, 86
1, 31031, Note_off_c, 2, 62, 35
1, 31032, Note_off_c, 3, 74, 91
1, 31036, Note_off_c, 2, 65, 76
1, 31043, Note_off_c, 1, 45, 106
1, 31056, Note_on_c, 1, 45, 111
1, 31056, Note_on_c, 9, 64, 98
1, 31057, Note_off_c, 9, 64, 94
1, 31059, Note_on_c, 9, 69, 50
1, 31060, Note_on_c, 2, 62, 97
1, 31060, Note_off_c, 9, 69, 68
1, 31061, Note_off_c, 2, 70, 106
1, 31091, Note_off_c, 1, 45, 106
1, 31093, Note_off_c, 0, 84, 108
1, 31103, Note_on_c, 9, 42, 84
1, 31103, Note_off_c, 2, 62, 108
1, 31103, Note_on_c, 9, 69, 104
1, 31104, Note_on_c, 1, 34, 114
1, 31104, Note_on_c, 9, 36, 124
1, 31104, Note_off_c, 9, 42, 96
1, 31104, Note_on_c, 9, 63, 114
1, 31104, Note_on_c, 2, 65, 119
1, 31104, Note_off_c, 9, 69, 84
1, 31104, Note_on_c, 2, 70, 117
1, 31104, Note_on_c, 3, 77, 119
1, 31104, Note_on_c, 0, 77, 111
1, 31105, Note_off_c, 9, 36, 108
1, 31105, Note_off_c, 9, 63, 86
1, 31122, Note_off_c, 2, 70, 104
1, 31133, Note_off_c, 2, 65, 108
1, 31139, Note_off_c, 3, 77, 110
1, 31152, Note_on_c, 3, 81, 117
1, 31155, Note_off_c, 1, 34, 84
1, 31155, Note_on_c, 9, 69, 50
1, 31156, Note_off_c, 9, 69, 84
1, 31199, Note_on_c, 9, 42, 124
1, 31199, Note_on_c, 9, 69, 100
1, 31200, Note_off_c, 9, 42, 100
1, 31200, Note_on_c, 1, 46, 104
1, 31200, Note_on_c, 9, 63, 114
1, 31200, Note_off_c, 9, 69, 92
1, 31201, Note_off_c, 9, 63, 90
1, 31209, Note_off_c, 3, 81, 111
1, 31236, Note_off_c, 1, 46, 91
1, 31251, Note_on_c, 9, 69, 50
1, 31252, Note_off_c, 9, 69, 92
1, 31295, Note_on_c, 9, 42, 100
1, 31295, Note_on_c, 9, 69, 100
1, 31296, Note_on_c, 9, 36, 124
1, 31296, Note_on_c, 9, 40, 109
1, 31296, Note_off_c, 9, 42, 100
1, 31296, Note_on_c, 9, 62, 114
1, 31296, Note_on_c, 2, 65, 120
1, 31296, Note_off_c, 9, 69, 92
1, 31296, Note_on_c, 2, 70, 120
1, 31297, Note_off_c, 9, 36, 112
1, 31297, Note_off_c, 9, 40, 93
1, 31297, Note_off_c, 9, 62, 94
1, 31313, Note_off_c, 2, 70, 94
1, 31316, Note_off_c, 2, 65, 104
1, 31347, Note_on_c, 9, 69, 50
1, 31348, Note_off_c, 9, 69, 92
1, 31374, Note_off_c, 12, 69, 13
1, 31391, Note_on_c, 9, 42, 124
1, 31391, Note_on_c, 9, 69, 100
1, 31392, Note_off_c, 9, 42, 100
1, 31392, Note_on_c, 1, 46, 104
1, 31392, Note_on_c, 9, 64, 102
1, 31392, Note_off_c, 9, 69, 92
1, 31392, Note_on_c, 3, 74, 113
1, 31393, Note_off_c, 9, 64, 94
1, 31403, Note_off_c, 12, 58, 81
1, 31409, Note_off_c, 1, 46, 99
1, 31410, Note_off_c, 3, 74, 99
1, 31433, Note_off_c, 12, 53, 97
1, 31434, Note_off_c, 12, 62, 104
1, 31440, Note_on_c, 1, 46, 113
1, 31440, Note_on_c, 9, 64, 98
1, 31441, Note_off_c, 9, 64, 102
1, 31443, Note_on_c, 9, 69, 50
1, 31444, Note_off_c, 9, 69, 92
1, 31449, Note_on_c, 12, 53, 94
1, 31459, Pitch_bend_c, 2, 7552
1, 31464, Note_off_c, 0, 77, 81
1, 31464, Note_off_c, 1, 46, 84
1, 31467, Note_off_c, 0, 58, 88
1, 31467, Pitch_bend_c, 2, 5760
1, 31472, Note_on_c, 12, 58, 104
1, 31474, Pitch_bend_c, 2, 3456
1, 31477, Note_off_c, 0, 62, 104
1, 31478, Note_off_c, 0, 53, 84
1, 31482, Pitch_bend_c, 2, 1152
1, 31483, Note_off_c, 0, 81, 108
1, 31487, Note_on_c, 9, 42, 92
1, 31487, Note_on_c, 9, 69, 96
1, 31488, Note_on_c, 1, 34, 114
1, 31488, Note_on_c, 9, 36, 124
1, 31488, Note_off_c, 9, 42, 100
1, 31488, Note_on_c, 0, 53, 94
1, 31488, Note_on_c, 0, 58, 94
1, 31488, Note_on_c, 9, 63, 110
1, 31488, Note_on_c, 0, 65, 94
1, 31488, Note_off_c, 9, 69, 80
1, 31488, Note_on_c, 2, 74, 114
1, 31488, Note_on_c, 3, 77, 122
1, 31488, Note_on_c, 2, 79, 116
1, 31489, Note_off_c, 9, 36, 76
1, 31489, Note_off_c, 9, 63, 82
1, 31489, Note_on_c, 0, 70, 111
1, 31489, Pitch_bend_c, 2, 512
1, 31490, Note_on_c, 0, 72, 110
1, 31491, Note_on_c, 12, 62, 96
1, 31497, Pitch_bend_c, 2, 4608
1, 31502, Note_on_c, 0, 74, 104
1, 31504, Pitch_bend_c, 2, 6656
1, 31511, Pitch_bend_c, 2, 7552
1, 31512, Note_off_c, 0, 72, 102
1, 31518, Pitch_bend_c, 2, 7936
1, 31524, Note_off_c, 1, 34, 102
1, 31525, Pitch_bend_c, 2, 8192
1, 31539, Note_on_c, 9, 69, 50
1, 31540, Note_off_c, 9, 69, 80
1, 31552, Note_off_c, 3, 77, 108
1, 31583, Note_on_c, 9, 42, 124
1, 31583, Note_on_c, 9, 69, 88
1, 31584, Note_off_c, 9, 42, 100
1, 31584, Note_on_c, 1, 46, 113
1, 31584, Note_on_c, 9, 63, 106
1, 31584, Note_off_c, 9, 69, 76
1, 31584, Note_on_c, 3, 74, 113
1, 31585, Note_off_c, 9, 63, 74
1, 31607, Note_off_c, 3, 74, 99
1, 31612, Note_off_c, 2, 74, 71
1, 31617, Note_off_c, 1, 46, 97
1, 31621, Note_off_c, 2, 79, 97
1, 31635, Note_on_c, 9, 69, 50
1, 31636, Note_off_c, 9, 69, 76
1, 31636, Note_on_c, 2, 79, 114
1, 31662, Note_off_c, 2, 79, 102
1, 31679, Note_on_c, 9, 42, 100
1, 31679, Note_on_c, 9, 69, 104
1, 31680, Note_on_c, 9, 36, 124
1, 31680, Note_on_c, 9, 40, 109
1, 31680, Note_off_c, 9, 42, 100
1, 31680, Note_on_c, 9, 62, 114
1, 31680, Note_off_c, 9, 69, 68
1, 31680, Note_on_c, 2, 72, 120
1, 31680, Note_on_c, 3, 77, 122
1, 31680, Note_on_c, 2, 77, 122
1, 31681, Note_off_c, 9, 36, 96
1, 31681, Note_off_c, 9, 40, 81
1, 31681, Note_off_c, 9, 62, 98
1, 31697, Note_off_c, 2, 77, 106
1, 31705, Note_off_c, 2, 72, 113
1, 31708, Note_off_c, 3, 77, 110
1, 31731, Note_on_c, 9, 69, 50
1, 31732, Note_off_c, 9, 69, 68
1, 31775, Note_on_c, 9, 42, 124
1, 31775, Note_on_c, 9, 69, 96
1, 31776, Note_off_c, 9, 42, 104
1, 31776, Note_on_c, 1, 46, 111
1, 31776, Note_on_c, 9, 64, 106
1, 31776, Note_off_c, 9, 69, 68
1, 31776, Note_on_c, 3, 74, 111
1, 31777, Note_off_c, 9, 64, 86
1, 31794, Note_off_c, 1, 46, 97
1, 31810, Note_off_c, 3, 74, 106
1, 31824, Note_on_c, 9, 64, 98
1, 31825, Note_off_c, 9, 64, 94
1, 31827, Note_off_c, 12, 58, 84
1, 31827, Note_on_c, 9, 69, 50
1, 31828, Note_off_c, 9, 69, 68
1, 31836, Note_on_c, 12, 52, 88
1, 31841, Note_off_c, 12, 62, 94
1, 31849, Note_off_c, 12, 53, 91
1, 31866, Note_on_c, 12, 55, 101
1, 31867, Note_off_c, 0, 70, 60
1, 31870, Note_off_c, 0, 65, 102
1, 31871, Note_on_c, 9, 42, 92
1, 31871, Note_off_c, 0, 53, 102
1, 31871, Note_off_c, 0, 58, 102
1, 31871, Note_on_c, 9, 69, 104
1, 31872, Note_on_c, 1, 34, 114
1, 31872, Note_on_c, 9, 36, 124
1, 31872, Note_off_c, 9, 42, 100
1, 31872, Note_on_c, 0, 52, 97
1, 31872, Note_on_c, 9, 63, 114
1, 31872, Note_on_c, 0, 64, 99
1, 31872, Note_on_c, 0, 67, 99
1, 31872, Note_on_c, 2, 67, 97
1, 31872, Note_off_c, 9, 69, 84
1, 31872, Note_on_c, 0, 72, 102
1, 31872, Note_on_c, 2, 72, 108
1, 31872, Note_on_c, 3, 79, 117
1, 31873, Note_off_c, 9, 36, 108
1, 31873, Note_off_c, 9, 63, 86
1, 31878, Note_on_c, 12, 60, 97
1, 31878, Note_off_c, 0, 74, 13
1, 31906, Note_off_c, 1, 34, 104
1, 31923, Note_on_c, 9, 69, 50
1, 31924, Note_off_c, 9, 69, 84
1, 31967, Note_on_c, 9, 42, 124
1, 31967, Note_on_c, 9, 69, 100
1, 31968, Note_off_c, 9, 42, 108
1, 31968, Note_on_c, 1, 46, 113
1, 31968, Note_on_c, 9, 63, 114
1, 31968, Note_off_c, 9, 69, 92
1, 31969, Note_off_c, 9, 63, 90
1, 31985, Note_off_c, 2, 67, 71
1, 31986, Note_off_c, 2, 72, 84
1, 31992, Note_off_c, 3, 79, 104
1, 31997, Note_off_c, 1, 46, 104
1, 32016, Note_on_c, 3, 74, 113
1, 32019, Note_on_c, 9, 69, 50
1, 32020, Note_off_c, 9, 69, 92
1, 32063, Note_on_c, 9, 42, 96
1, 32063, Note_on_c, 9, 69, 100
1, 32064, Note_on_c, 1, 33, 102
1, 32064, Note_on_c, 9, 36, 124
1, 32064, Note_on_c, 9, 40, 109
1, 32064, Note_off_c, 9, 42, 100
1, 32064, Note_on_c, 9, 62, 114
1, 32064, Note_on_c, 2, 67, 97
1, 32064, Note_off_c, 9, 69, 92
1, 32065, Note_off_c, 9, 36, 112
1, 32065, Note_off_c, 9, 40, 93
1, 32065, Note_off_c, 9, 62, 94
1, 32082, Note_off_c, 3, 74, 106
1, 32104, Note_off_c, 1, 33, 99
1, 32115, Note_on_c, 9, 69, 50
1, 32116, Note_off_c, 2, 67, 102
1, 32116, Note_on_c, 2, 67, 102
1, 32116, Note_off_c, 9, 69, 92
1, 32137, Note_off_c, 2, 67, 110
1, 32154, Note_off_c, 12, 55, 71
1, 32159, Note_on_c, 9, 46, 121
1, 32159, Note_on_c, 9, 69, 100
1, 32160, Note_on_c, 1, 45, 119
1, 32160, Note_off_c, 9, 46, 100
1, 32160, Note_on_c, 9, 64, 102
1, 32160, Note_off_c, 9, 69, 92
1, 32160, Note_on_c, 2, 76, 107
1, 32160, Note_on_c, 3, 77, 116
1, 32161, Note_off_c, 9, 64, 94
1, 32187, Note_off_c, 1, 45, 106
1, 32199, Note_off_c, 3, 77, 110
1, 32200, Note_off_c, 12, 52, 108
1, 32201, Note_off_c, 12, 60, 111
1, 32208, Note_on_c, 9, 64, 98
1, 32209, Note_on_c, 12, 53, 76
1, 32209, Note_off_c, 9, 64, 102
1, 32211, Note_on_c, 9, 69, 50
1, 32212, Note_off_c, 2, 76, 106
1, 32212, Note_off_c, 9, 69, 92
1, 32212, Note_on_c, 2, 76, 110
1, 32232, Note_on_c, 12, 58, 86
1, 32243, Note_off_c, 2, 76, 110
1, 32250, Note_on_c, 12, 62, 97
1, 32250, Note_off_c, 0, 64, 111
1, 32254, Note_off_c, 0, 52, 84
1, 32254, Note_off_c, 0, 67, 111
1, 32254, Note_off_c, 0, 72, 108
1, 32255, Note_on_c, 9, 42, 90
1, 32255, Note_on_c, 9, 69, 96
1, 32256, Note_on_c, 1, 31, 113
1, 32256, Note_on_c, 9, 36, 124
1, 32256, Note_off_c, 9, 42, 88
1, 32256, Note_on_c, 0, 53, 81
1, 32256, Note_on_c, 0, 58, 71
1, 32256, Note_on_c, 0, 62, 84
1, 32256, Note_on_c, 9, 63, 110
1, 32256, Note_off_c, 9, 69, 80
1, 32256, Note_on_c, 0, 77, 100
1, 32256, Note_on_c, 0, 81, 99
1, 32256, Note_on_c, 3, 82, 120
1, 32257, Note_off_c, 9, 36, 76
1, 32257, Note_off_c, 9, 63, 82
1, 32265, Note_on_c, 12, 69, 92
1, 32301, Note_off_c, 1, 31, 94
1, 32307, Note_on_c, 9, 69, 50
1, 32308, Note_off_c, 9, 69, 80
1, 32351, Note_on_c, 9, 42, 112
1, 32351, Note_on_c, 9, 69, 88
1, 32352, Note_off_c, 9, 42, 88
1, 32352, Note_on_c, 1, 43, 111
1, 32352, Note_on_c, 9, 63, 106
1, 32352, Note_off_c, 9, 69, 76
1, 32353, Note_off_c, 9, 63, 74
1, 32382, Note_off_c, 3, 82, 106
1, 32384, Note_on_c, 0, 79, 99
1, 32384, Note_on_c, 0, 82, 98
1, 32386, Note_off_c, 1, 43, 94
1, 32399, Note_off_c, 0, 81, 102
1, 32400, Note_off_c, 0, 77, 99
1, 32400, Note_on_c, 3, 82, 120
1, 32403, Note_on_c, 9, 69, 50
1, 32404, Note_off_c, 9, 69, 76
1, 32447, Note_on_c, 9, 42, 81
1, 32447, Note_on_c, 9, 69, 104
1, 32448, Note_on_c, 1, 33, 104
1, 32448, Note_on_c, 9, 36, 124
1, 32448, Note_on_c, 9, 40, 109
1, 32448, Note_off_c, 9, 42, 88
1, 32448, Note_on_c, 2, 62, 108
1, 32448, Note_on_c, 9, 62, 114
1, 32448, Note_on_c, 2, 65, 113
1, 32448, Note_off_c, 9, 69, 68
1, 32448, Note_on_c, 2, 70, 122
1, 32449, Note_off_c, 9, 36, 96
1, 32449, Note_off_c, 9, 40, 81
1, 32449, Note_off_c, 9, 62, 98
1, 32499, Note_on_c, 9, 69, 50
1, 32500, Note_off_c, 9, 69, 68
1, 32503, Note_off_c, 1, 33, 91
1, 32512, Note_on_c, 0, 81, 96
1, 32512, Note_on_c, 0, 84, 90
1, 32517, Note_off_c, 0, 82, 97
1, 32519, Note_off_c, 0, 79, 102
1, 32543, Note_on_c, 9, 42, 112
1, 32543, Note_on_c, 9, 69, 96
1, 32544, Note_off_c, 9, 42, 88
1, 32544, Note_on_c, 1, 45, 111
1, 32544, Note_on_c, 9, 64, 106
1, 32544, Note_off_c, 9, 69, 68
1, 32545, Note_off_c, 9, 64, 86
1, 32552, Note_off_c, 3, 82, 108
1, 32567, Note_off_c, 2, 62, 35
1, 32572, Note_off_c, 2, 65, 76
1, 32579, Note_off_c, 1, 45, 106
1, 32592, Note_on_c, 9, 64, 98
1, 32592, Note_on_c, 3, 82, 114
1, 32593, Note_off_c, 9, 64, 94
1, 32595, Note_on_c, 9, 69, 50
1, 32596, Note_on_c, 2, 62, 97
1, 32596, Note_off_c, 9, 69, 68
1, 32597, Note_off_c, 2, 70, 106
1, 32619, Note_off_c, 3, 82, 104
1, 32629, Note_off_c, 0, 84, 108
1, 32639, Note_on_c, 9, 42, 52
1, 32639, Note_off_c, 2, 62, 108
1, 32639, Note_on_c, 9, 69, 104
1, 32640, Note_on_c, 1, 34, 114
1, 32640, Note_on_c, 9, 36, 124
1, 32640, Note_off_c, 9, 42, 92
1, 32640, Note_on_c, 9, 63, 114
1, 32640, Note_on_c, 2, 65, 119
1, 32640, Note_off_c, 9, 69, 84
1, 32640, Note_on_c, 2, 70, 117
1, 32640, Note_on_c, 3, 77, 117
1, 32640, Note_on_c, 0, 77, 111
1, 32641, Note_off_c, 9, 36, 108
1, 32641, Note_off_c, 9, 63, 86
1, 32658, Note_off_c, 2, 70, 104
1, 32669, Note_off_c, 2, 65, 108
1, 32691, Note_off_c, 1, 34, 84
1, 32691, Note_on_c, 9, 69, 50
1, 32692, Note_off_c, 9, 69, 84
1, 32698, Note_off_c, 3, 77, 108
1, 32735, Note_on_c, 9, 42, 124
1, 32735, Note_on_c, 9, 69, 100
1, 32736, Note_off_c, 9, 42, 92
1, 32736, Note_on_c, 1, 46, 104
1, 32736, Note_on_c, 9, 63, 114
1, 32736, Note_off_c, 9, 69, 92
1, 32736, Note_on_c, 3, 77, 119
1, 32737, Note_off_c, 9, 63, 90
1, 32771, Note_off_c, 3, 77, 111
1, 32772, Note_off_c, 1, 46, 91
1, 32787, Note_on_c, 9, 69, 50
1, 32788, Note_off_c, 9, 69, 92
1, 32831, Note_on_c, 9, 42, 84
1, 32831, Note_on_c, 9, 69, 100
1, 32832, Note_on_c, 9, 36, 124
1, 32832, Note_on_c, 9, 40, 109
1, 32832, Note_off_c, 9, 42, 96
1, 32832, Note_on_c, 9, 62, 114
1, 32832, Note_on_c, 2, 65, 120
1, 32832, Note_off_c, 9, 69, 92
1, 32832, Note_on_c, 2, 70, 120
1, 32833, Note_off_c, 9, 36, 112
1, 32833, Note_off_c, 9, 40, 93
1, 32833, Note_off_c, 9, 62, 94
1, 32849, Note_off_c, 2, 70, 94
1, 32852, Note_off_c, 2, 65, 104
1, 32883, Note_on_c, 9, 69, 50
1, 32884, Note_off_c, 9, 69, 92
1, 32910, Note_off_c, 12, 69, 13
1, 32927, Note_on_c, 9, 42, 124
1, 32927, Note_on_c, 9, 69, 100
1, 32928, Note_off_c, 9, 42, 96
1, 32928, Note_on_c, 1, 46, 104
1, 32928, Note_on_c, 9, 64, 102
1, 32928, Note_off_c, 9, 69, 92
1, 32928, Note_on_c, 3, 74, 114
1, 32929, Note_off_c, 9, 64, 94
1, 32939, Note_off_c, 12, 58, 81
1, 32945, Note_off_c, 1, 46, 99
1, 32948, Note_off_c, 3, 74, 99
1, 32969, Note_off_c, 12, 53, 97
1, 32970, Note_off_c, 12, 62, 104
1, 32976, Note_on_c, 1, 46, 113
1, 32976, Note_on_c, 9, 64, 98
1, 32977, Note_off_c, 9, 64, 102
1, 32979, Note_on_c, 9, 69, 50
1, 32980, Note_off_c, 9, 69, 92
1, 32985, Note_on_c, 12, 53, 94
1, 32995, Pitch_bend_c, 2, 7552
1, 33000, Note_off_c, 0, 77, 81
1, 33000, Note_off_c, 1, 46, 84
1, 33003, Note_off_c, 0, 58, 88
1, 33003, Pitch_bend_c, 2, 5760
1, 33008, Note_on_c, 12, 58, 104
1, 33010, Pitch_bend_c, 2, 3456
1, 33013, Note_off_c, 0, 62, 104
1, 33014, Note_off_c, 0, 53, 84
1, 33018, Pitch_bend_c, 2, 1152
1, 33019, Note_off_c, 0, 81, 108
1, 33023, Note_on_c, 9, 42, 76
1, 33023, Note_on_c, 9, 69, 96
1, 33024, Note_on_c, 1, 34, 114
1, 33024, Note_on_c, 9, 36, 124
1, 33024, Note_off_c, 9, 42, 100
1, 33024, Note_on_c, 0, 53, 94
1, 33024, Note_on_c, 0, 58, 94
1, 33024, Note_on_c, 9, 63, 110
1, 33024, Note_on_c, 0, 65, 94
1, 33024, Note_off_c, 9, 69, 80
1, 33024, Note_on_c, 2, 74, 114
1, 33024, Note_on_c, 3, 77, 124
1, 33024, Note_on_c, 2, 79, 116
1, 33025, Note_off_c, 9, 36, 76
1, 33025, Note_off_c, 9, 63, 82
1, 33025, Note_on_c, 0, 70, 111
1, 33025, Pitch_bend_c, 2, 512
1, 33026, Note_on_c, 0, 72, 110
1, 33027, Note_on_c, 12, 62, 96
1, 33033, Pitch_bend_c, 2, 4608
1, 33038, Note_on_c, 0, 74, 104
1, 33040, Pitch_bend_c, 2, 6656
1, 33047, Pitch_bend_c, 2, 7552
1, 33048, Note_off_c, 0, 72, 102
1, 33054, Pitch_bend_c, 2, 7936
1, 33060, Note_off_c, 1, 34, 102
1, 33061, Pitch_bend_c, 2, 8192
1, 33075, Note_on_c, 9, 69, 50
1, 33076, Note_off_c, 9, 69, 80
1, 33103, Note_off_c, 3, 77, 110
1, 33119, Note_on_c, 9, 42, 124
1, 33119, Note_on_c, 9, 69, 88
1, 33120, Note_off_c, 9, 42, 100
1, 33120, Note_on_c, 1, 46, 113
1, 33120, Note_on_c, 9, 63, 106
1, 33120, Note_off_c, 9, 69, 76
1, 33120, Note_on_c, 3, 74, 110
1, 33121, Note_off_c, 9, 63, 74
1, 33138, Note_off_c, 3, 74, 111
1, 33148, Note_off_c, 2, 74, 71
1, 33153, Note_off_c, 1, 46, 97
1, 33157, Note_off_c, 2, 79, 97
1, 33171, Note_on_c, 9, 69, 50
1, 33172, Note_off_c, 9, 69, 76
1, 33172, Note_on_c, 2, 79, 114
1, 33198, Note_off_c, 2, 79, 102
1, 33215, Note_on_c, 9, 42, 80
1, 33215, Note_on_c, 9, 69, 104
1, 33216, Note_on_c, 9, 36, 124
1, 33216, Note_on_c, 9, 40, 109
1, 33216, Note_off_c, 9, 42, 96
1, 33216, Note_on_c, 9, 62, 114
1, 33216, Note_off_c, 9, 69, 68
1, 33216, Note_on_c, 2, 72, 120
1, 33216, Note_on_c, 3, 77, 122
1, 33216, Note_on_c, 2, 77, 122
1, 33217, Note_off_c, 9, 36, 96
1, 33217, Note_off_c, 9, 40, 81
1, 33217, Note_off_c, 9, 62, 98
1, 33233, Note_off_c, 2, 77, 106
1, 33241, Note_off_c, 2, 72, 113
1, 33242, Note_off_c, 3, 77, 110
1, 33267, Note_on_c, 9, 69, 50
1, 33268, Note_off_c, 9, 69, 68
1, 33311, Note_on_c, 9, 42, 124
1, 33311, Note_on_c, 9, 69, 96
1, 33312, Note_off_c, 9, 42, 96
1, 33312, Note_on_c, 1, 46, 111
1, 33312, Note_on_c, 9, 64, 106
1, 33312, Note_off_c, 9, 69, 68
1, 33312, Note_on_c, 3, 74, 116
1, 33313, Note_off_c, 9, 64, 86
1, 33330, Note_off_c, 1, 46, 97
1, 33344, Note_off_c, 3, 74, 110
1, 33360, Note_on_c, 1, 46, 113
1, 33360, Note_on_c, 9, 64, 98
1, 33361, Note_off_c, 9, 64, 94
1, 33363, Note_off_c, 12, 58, 84
1, 33363, Note_on_c, 9, 69, 50
1, 33364, Note_off_c, 9, 69, 68
1, 33372, Note_on_c, 12, 52, 88
1, 33377, Note_off_c, 12, 62, 94
1, 33385, Note_off_c, 12, 53, 91
1, 33386, Note_off_c, 1, 46, 91
1, 33402, Note_on_c, 12, 55, 101
1, 33403, Note_off_c, 0, 70, 60
1, 33406, Note_off_c, 0, 65, 102
1, 33407, Note_on_c, 9, 42, 92
1, 33407, Note_off_c, 0, 53, 102
1, 33407, Note_off_c, 0, 58, 102
1, 33407, Note_on_c, 9, 69, 104
1, 33408, Note_on_c, 1, 34, 114
1, 33408, Note_on_c, 9, 36, 124
1, 33408, Note_off_c, 9, 42, 100
1, 33408, Note_on_c, 0, 52, 97
1, 33408, Note_on_c, 9, 63, 114
1, 33408, Note_on_c, 0, 64, 99
1, 33408, Note_on_c, 0, 67, 99
1, 33408, Note_on_c, 2, 67, 97
1, 33408, Note_off_c, 9, 69, 84
1, 33408, Note_on_c, 0, 72, 102
1, 33408, Note_on_c, 2, 72, 108
1, 33408, Note_on_c, 3, 77, 124
1, 33409, Note_off_c, 9, 36, 108
1, 33409, Note_off_c, 9, 63, 86
1, 33414, Note_on_c, 12, 60, 97
1, 33414, Note_off_c, 0, 74, 13
1, 33442, Note_off_c, 1, 34, 104
1, 33459, Note_on_c, 9, 69, 50
1, 33460, Note_off_c, 9, 69, 84
1, 33503, Note_on_c, 9, 42, 124
1, 33503, Note_on_c, 9, 69, 100
1, 33504, Note_off_c, 9, 42, 96
1, 33504, Note_on_c, 1, 46, 113
1, 33504, Note_on_c, 9, 63, 114
1, 33504, Note_off_c, 9, 69, 92
1, 33505, Note_off_c, 9, 63, 90
1, 33521, Note_off_c, 2, 67, 71
1, 33521, Note_off_c, 3, 77, 108
1, 33522, Note_off_c, 2, 72, 84
1, 33533, Note_off_c, 1, 46, 104
1, 33552, Note_on_c, 3, 79, 116
1, 33555, Note_on_c, 9, 69, 50
1, 33556, Note_off_c, 9, 69, 92
1, 33585, Note_off_c, 3, 79, 108
1, 33599, Note_on_c, 9, 42, 96
1, 33599, Note_on_c, 9, 69, 100
1, 33600, Note_on_c, 1, 33, 102
1, 33600, Note_on_c, 9, 36, 124
1, 33600, Note_on_c, 9, 40, 109
1, 33600, Note_off_c, 9, 42, 100
1, 33600, Note_on_c, 9, 62, 114
1, 33600, Note_on_c, 2, 67, 98
1, 33600, Note_off_c, 9, 69, 92
1, 33601, Note_off_c, 9, 36, 112
1, 33601, Note_off_c, 9, 40, 93
1, 33601, Note_off_c, 9, 62, 94
1, 33640, Note_off_c, 1, 33, 99
1, 33651, Note_on_c, 9, 69, 50
1, 33652, Note_off_c, 2, 67, 102
1, 33652, Note_on_c, 2, 67, 98
1, 33652, Note_off_c, 9, 69, 92
1, 33673, Note_off_c, 2, 67, 110
1, 33690, Note_off_c, 12, 55, 71
1, 33695, Note_on_c, 9, 42, 124
1, 33695, Note_on_c, 9, 69, 100
1, 33696, Note_off_c, 9, 42, 100
1, 33696, Note_on_c, 1, 45, 119
1, 33696, Note_on_c, 9, 64, 102
1, 33696, Note_off_c, 9, 69, 92
1, 33696, Note_on_c, 2, 76, 99
1, 33697, Note_off_c, 9, 64, 94
1, 33723, Note_off_c, 1, 45, 106
1, 33736, Note_off_c, 12, 52, 108
1, 33737, Note_off_c, 12, 60, 111
1, 33744, Note_on_c, 9, 64, 98
1, 33745, Note_on_c, 12, 53, 76
1, 33745, Note_off_c, 9, 64, 102
1, 33747, Note_on_c, 9, 69, 50
1, 33748, Note_off_c, 2, 76, 106
1, 33748, Note_off_c, 9, 69, 92
1, 33748, Note_on_c, 2, 76, 97
1, 33768, Note_on_c, 12, 58, 86
1, 33779, Note_off_c, 2, 76, 110
1, 33786, Note_on_c, 12, 62, 97
1, 33786, Note_off_c, 0, 64, 111
1, 33790, Note_off_c, 0, 52, 84
1, 33790, Note_off_c, 0, 67, 111
1, 33790, Note_off_c, 0, 72, 108
1, 33791, Note_on_c, 9, 42, 76
1, 33791, Note_on_c, 9, 69, 96
1, 33792, Note_on_c, 1, 31, 113
1, 33792, Note_on_c, 9, 36, 124
1, 33792, Note_off_c, 9, 42, 96
1, 33792, Note_on_c, 0, 53, 81
1, 33792, Note_on_c, 0, 58, 71
1, 33792, Note_on_c, 0, 62, 84
1, 33792, Note_on_c, 9, 63, 110
1, 33792, Note_off_c, 9, 69, 80
1, 33792, Note_on_c, 0, 77, 100
1, 33792, Note_on_c, 0, 81, 99
1, 33792, Note_on_c, 3, 84, 122
1, 33793, Note_off_c, 9, 36, 76
1, 33793, Note_off_c, 9, 63, 82
1, 33801, Note_on_c, 12, 69, 92
1, 33837, Note_off_c, 1, 31, 94
1, 33843, Note_on_c, 9, 69, 50
1, 33844, Note_off_c, 9, 69, 80
1, 33887, Note_on_c, 9, 42, 124
1, 33887, Note_on_c, 9, 69, 88
1, 33888, Note_off_c, 9, 42, 100
1, 33888, Note_on_c, 1, 43, 111
1, 33888, Note_on_c, 9, 63, 106
1, 33888, Note_off_c, 9, 69, 76
1, 33889, Note_off_c, 9, 63, 74
1, 33907, Note_off_c, 3, 84, 108
1, 33920, Note_on_c, 0, 79, 99
1, 33920, Note_on_c, 0, 82, 98
1, 33922, Note_off_c, 1, 43, 94
1, 33935, Note_off_c, 0, 81, 102
1, 33936, Note_on_c, 1, 43, 111
1, 33936, Note_off_c, 0, 77, 99
1, 33936, Note_on_c, 3, 81, 120
1, 33939, Note_on_c, 9, 69, 50
1, 33940, Note_off_c, 9, 69, 76
1, 33970, Note_off_c, 1, 43, 94
1, 33983, Note_on_c, 9, 42, 92
1, 33983, Note_on_c, 9, 69, 104
1, 33984, Note_on_c, 1, 33, 104
1, 33984, Note_on_c, 9, 36, 124
1, 33984, Note_on_c, 9, 40, 109
1, 33984, Note_off_c, 9, 42, 100
1, 33984, Note_on_c, 2, 62, 108
1, 33984, Note_on_c, 9, 62, 114
1, 33984, Note_on_c, 2, 65, 113
1, 33984, Note_off_c, 9, 69, 68
1, 33984, Note_on_c, 2, 70, 122
1, 33985, Note_off_c, 9, 36, 96
1, 33985, Note_off_c, 9, 40, 81
1, 33985, Note_off_c, 9, 62, 98
1, 34035, Note_on_c, 9, 69, 50
1, 34036, Note_off_c, 3, 81, 110
1, 34036, Note_off_c, 9, 69, 68
1, 34039, Note_off_c, 1, 33, 91
1, 34048, Note_on_c, 0, 81, 96
1, 34048, Note_on_c, 0, 84, 90
1, 34053, Note_off_c, 0, 82, 97
1, 34055, Note_off_c, 0, 79, 102
1, 34079, Note_on_c, 9, 42, 124
1, 34079, Note_on_c, 9, 69, 96
1, 34080, Note_off_c, 9, 42, 92
1, 34080, Note_on_c, 1, 45, 111
1, 34080, Note_on_c, 9, 64, 106
1, 34080, Note_off_c, 9, 69, 68
1, 34080, Note_on_c, 3, 81, 122
1, 34081, Note_off_c, 9, 64, 86
1, 34103, Note_off_c, 2, 62, 35
1, 34108, Note_off_c, 2, 65, 76
1, 34115, Note_off_c, 1, 45, 106
1, 34128, Note_on_c, 1, 45, 111
1, 34128, Note_on_c, 9, 64, 98
1, 34129, Note_off_c, 9, 64, 94
1, 34131, Note_on_c, 9, 69, 50
1, 34132, Note_on_c, 2, 62, 97
1, 34132, Note_off_c, 9, 69, 68
1, 34133, Note_off_c, 2, 70, 106
1, 34163, Note_off_c, 1, 45, 106
1, 34165, Note_off_c, 0, 84, 108
1, 34175, Note_on_c, 9, 42, 84
1, 34175, Note_off_c, 2, 62, 108
1, 34175, Note_on_c, 9, 69, 104
1, 34176, Note_on_c, 1, 34, 114
1, 34176, Note_on_c, 9, 36, 124
1, 34176, Note_off_c, 9, 42, 96
1, 34176, Note_on_c, 9, 63, 114
1, 34176, Note_on_c, 2, 65, 119
1, 34176, Note_off_c, 9, 69, 84
1, 34176, Note_on_c, 2, 70, 117
1, 34176, Note_on_c, 0, 77, 111
1, 34177, Note_off_c, 9, 36, 108
1, 34177, Note_off_c, 9, 63, 86
1, 34194, Note_off_c, 2, 70, 104
1, 34205, Note_off_c, 2, 65, 108
1, 34227, Note_off_c, 1, 34, 84
1, 34227, Note_on_c, 9, 69, 50
1, 34228, Note_off_c, 9, 69, 84
1, 34271, Note_on_c, 9, 42, 124
1, 34271, Note_on_c, 9, 69, 100
1, 34272, Note_off_c, 9, 42, 100
1, 34272, Note_on_c, 1, 46, 104
1, 34272, Note_on_c, 9, 63, 114
1, 34272, Note_off_c, 9, 69, 92
1, 34273, Note_off_c, 9, 63, 90
1, 34308, Note_off_c, 1, 46, 91
1, 34310, Note_off_c, 3, 81, 110
1, 34323, Note_on_c, 9, 69, 50
1, 34324, Note_off_c, 9, 69, 92
1, 34367, Note_on_c, 9, 42, 100
1, 34367, Note_on_c, 9, 69, 100
1, 34368, Note_on_c, 9, 36, 124
1, 34368, Note_on_c, 9, 40, 109
1, 34368, Note_off_c, 9, 42, 100
1, 34368, Note_on_c, 9, 62, 114
1, 34368, Note_on_c, 2, 65, 120
1, 34368, Note_off_c, 9, 69, 92
1, 34368, Note_on_c, 2, 70, 120
1, 34369, Note_off_c, 9, 36, 112
1, 34369, Note_off_c, 9, 40, 93
1, 34369, Note_off_c, 9, 62, 94
1, 34385, Note_off_c, 2, 70, 94
1, 34388, Note_off_c, 2, 65, 104
1, 34419, Note_on_c, 9, 69, 50
1, 34420, Note_off_c, 9, 69, 92
1, 34433, Pitch_bend_c, 2, 7808
1, 34446, Note_off_c, 12, 69, 13
1, 34446, Pitch_bend_c, 2, 6912
1, 34453, Pitch_bend_c, 2, 5504
1, 34460, Pitch_bend_c, 2, 3840
1, 34463, Note_on_c, 9, 42, 124
1, 34463, Note_on_c, 9, 69, 100
1, 34464, Note_off_c, 9, 42, 100
1, 34464, Note_on_c, 1, 46, 104
1, 34464, Note_on_c, 9, 64, 102
1, 34464, Note_off_c, 9, 69, 92
1, 34464, Note_on_c, 3, 74, 111
1, 34464, Note_on_c, 2, 74, 113
1, 34464, Note_on_c, 2, 79, 113
1, 34465, Note_off_c, 9, 64, 94
1, 34467, Pitch_bend_c, 2, 3200
1, 34475, Note_off_c, 12, 58, 81
1, 34475, Pitch_bend_c, 2, 3200
1, 34481, Note_off_c, 1, 46, 99
1, 34482, Note_off_c, 3, 74, 113
1, 34483, Pitch_bend_c, 2, 3584
1, 34491, Pitch_bend_c, 2, 6272
1, 34498, Pitch_bend_c, 2, 7168
1, 34505, Note_off_c, 12, 53, 97
1, 34505, Pitch_bend_c, 2, 7808
1, 34506, Note_off_c, 12, 62, 104
1, 34512, Note_on_c, 1, 46, 113
1, 34512, Note_on_c, 9, 64, 98
1, 34513, Note_off_c, 9, 64, 102
1, 34514, Pitch_bend_c, 2, 8192
1, 34515, Note_on_c, 9, 69, 50
1, 34516, Note_off_c, 9, 69, 92
1, 34521, Note_on_c, 12, 53, 94
1, 34536, Note_off_c, 0, 77, 81
1, 34536, Note_off_c, 1, 46, 84
1, 34539, Note_off_c, 0, 58, 88
1, 34544, Note_on_c, 12, 58, 104
1, 34549, Note_off_c, 0, 62, 104
1, 34550, Note_off_c, 0, 53, 84
1, 34555, Note_off_c, 0, 81, 108
1, 34559, Note_on_c, 9, 42, 92
1, 34559, Note_on_c, 9, 69, 96
1, 34560, Note_on_c, 1, 34, 114
1, 34560, Note_on_c, 9, 36, 124
1, 34560, Note_off_c, 9, 42, 100
1, 34560, Note_on_c, 0, 53, 94
1, 34560, Note_on_c, 0, 58, 94
1, 34560, Note_on_c, 9, 63, 110
1, 34560, Note_on_c, 0, 65, 94
1, 34560, Note_off_c, 9, 69, 80
1, 34560, Note_on_c, 3, 77, 123
1, 34561, Note_off_c, 9, 36, 76
1, 34561, Note_off_c, 9, 63, 82
1, 34561, Note_on_c, 0, 70, 111
1, 34562, Note_on_c, 0, 72, 110
1, 34563, Note_on_c, 12, 62, 96
1, 34574, Note_on_c, 0, 74, 104
1, 34584, Note_off_c, 0, 72, 102
1, 34596, Note_off_c, 1, 34, 102
1, 34597, Note_off_c, 2, 79, 94
1, 34611, Note_on_c, 9, 69, 50
1, 34612, Note_off_c, 9, 69, 80
1, 34622, Note_off_c, 2, 74, 76
1, 34643, Note_off_c, 3, 77, 110
1, 34655, Note_on_c, 9, 42, 124
1, 34655, Note_on_c, 9, 69, 88
1, 34656, Note_off_c, 9, 42, 100
1, 34656, Note_on_c, 1, 46, 113
1, 34656, Note_on_c, 9, 63, 106
1, 34656, Note_off_c, 9, 69, 76
1, 34656, Note_on_c, 3, 74, 113
1, 34656, Note_on_c, 2, 74, 97
1, 34656, Note_on_c, 2, 79, 106
1, 34657, Note_off_c, 9, 63, 74
1, 34674, Note_off_c, 3, 74, 102
1, 34689, Note_off_c, 1, 46, 97
1, 34707, Note_on_c, 9, 69, 50
1, 34708, Note_off_c, 9, 69, 76
1, 34737, Note_off_c, 2, 74, 106
1, 34744, Note_off_c, 2, 79, 108
1, 34751, Note_on_c, 9, 42, 100
1, 34751, Note_on_c, 9, 69, 104
1, 34752, Note_on_c, 9, 36, 124
1, 34752, Note_on_c, 9, 40, 109
1, 34752, Note_off_c, 9, 42, 100
1, 34752, Note_on_c, 9, 62, 114
1, 34752, Note_off_c, 9, 69, 68
1, 34752, Note_on_c, 2, 72, 113
1, 34752, Note_on_c, 3, 77, 122
1, 34752, Note_on_c, 2, 77, 113
1, 34753, Note_off_c, 9, 36, 96
1, 34753, Note_off_c, 9, 40, 81
1, 34753, Note_off_c, 9, 62, 98
1, 34782, Note_off_c, 3, 77, 110
1, 34786, Note_off_c, 2, 72, 110
1, 34794, Note_off_c, 2, 77, 97
1, 34803, Note_on_c, 9, 69, 50
1, 34804, Note_off_c, 9, 69, 68
1, 34847, Note_on_c, 9, 42, 124
1, 34847, Note_on_c, 9, 69, 96
1, 34848, Note_off_c, 9, 42, 104
1, 34848, Note_on_c, 1, 46, 111
1, 34848, Note_on_c, 9, 64, 106
1, 34848, Note_off_c, 9, 69, 68
1, 34848, Note_on_c, 3, 74, 114
1, 34849, Note_off_c, 9, 64, 86
1, 34866, Note_off_c, 1, 46, 97
1, 34880, Note_off_c, 3, 74, 110
1, 34896, Note_on_c, 9, 64, 98
1, 34897, Note_off_c, 9, 64, 94
1, 34899, Note_off_c, 12, 58, 84
1, 34899, Note_on_c, 9, 69, 50
1, 34900, Note_off_c, 9, 69, 68
1, 34908, Note_on_c, 12, 52, 88
1, 34913, Note_off_c, 12, 62, 94
1, 34921, Note_off_c, 12, 53, 91
1, 34938, Note_on_c, 12, 55, 101
1, 34939, Note_off_c, 0, 70, 60
1, 34942, Note_off_c, 0, 65, 102
1, 34943, Note_on_c, 9, 42, 92
1, 34943, Note_off_c, 0, 53, 102
1, 34943, Note_off_c, 0, 58, 102
1, 34943, Note_on_c, 9, 69, 104
1, 34944, Note_on_c, 1, 34, 114
1, 34944, Note_on_c, 9, 36, 124
1, 34944, Note_off_c, 9, 42, 100
1, 34944, Note_on_c, 0, 52, 97
1, 34944, Note_on_c, 9, 63, 114
1, 34944, Note_on_c, 0, 64, 99
1, 34944, Note_on_c, 0, 67, 99
1, 34944, Note_on_c, 2, 67, 110
1, 34944, Note_off_c, 9, 69, 84
1, 34944, Note_on_c, 0, 72, 102
1, 34944, Note_on_c, 2, 72, 110
1, 34944, Note_on_c, 3, 79, 120
1, 34945, Note_off_c, 9, 36, 108
1, 34945, Note_off_c, 9, 63, 86
1, 34950, Note_on_c, 12, 60, 97
1, 34950, Note_off_c, 0, 74, 13
1, 34961, Note_off_c, 2, 72, 113
1, 34963, Note_off_c, 2, 67, 113
1, 34978, Note_off_c, 1, 34, 104
1, 34995, Note_on_c, 9, 69, 50
1, 34996, Note_off_c, 9, 69, 84
1, 35039, Note_on_c, 9, 42, 124
1, 35039, Note_on_c, 9, 69, 100
1, 35040, Note_off_c, 9, 42, 108
1, 35040, Note_on_c, 1, 46, 113
1, 35040, Note_on_c, 9, 63, 114
1, 35040, Note_on_c, 2, 67, 113
1, 35040, Note_off_c, 9, 69, 92
1, 35040, Note_on_c, 2, 72, 122
1, 35041, Note_off_c, 9, 63, 90
1, 35053, Note_off_c, 2, 72, 111
1, 35059, Note_off_c, 2, 67, 111
1, 35069, Note_off_c, 1, 46, 104
1, 35070, Note_off_c, 3, 79, 106
1, 35088, Note_on_c, 3, 74, 113
1, 35091, Note_on_c, 9, 69, 50
1, 35092, Note_off_c, 9, 69, 92
1, 35122, Note_off_c, 3, 74, 108
1, 35135, Note_on_c, 9, 42, 96
1, 35135, Note_on_c, 9, 69, 100
1, 35136, Note_on_c, 1, 33, 102
1, 35136, Note_on_c, 9, 36, 124
1, 35136, Note_on_c, 9, 40, 109
1, 35136, Note_off_c, 9, 42, 100
1, 35136, Note_on_c, 9, 62, 114
1, 35136, Note_on_c, 2, 67, 113
1, 35136, Note_off_c, 9, 69, 92
1, 35136, Note_on_c, 2, 72, 122
1, 35137, Note_off_c, 9, 36, 112
1, 35137, Note_off_c, 9, 40, 93
1, 35137, Note_off_c, 9, 62, 94
1, 35165, Note_off_c, 2, 72, 108
1, 35176, Note_off_c, 1, 33, 99
1, 35187, Note_on_c, 9, 69, 50
1, 35188, Note_off_c, 9, 69, 92
1, 35188, Note_on_c, 2, 72, 111
1, 35215, Note_off_c, 2, 72, 110
1, 35226, Note_off_c, 12, 55, 71
1, 35231, Note_on_c, 9, 46, 121
1, 35231, Note_on_c, 9, 69, 100
1, 35232, Note_on_c, 1, 45, 119
1, 35232, Note_off_c, 9, 46, 100
1, 35232, Note_on_c, 9, 64, 102
1, 35232, Note_off_c, 9, 69, 92
1, 35232, Note_on_c, 2, 72, 108
1, 35233, Note_off_c, 9, 64, 94
1, 35246, Note_off_c, 2, 67, 113
1, 35254, Note_off_c, 2, 72, 110
1, 35259, Note_off_c, 1, 45, 106
1, 35272, Note_off_c, 12, 52, 108
1, 35273, Note_off_c, 12, 60, 111
1, 35280, Note_on_c, 9, 64, 98
1, 35281, Note_on_c, 12, 53, 76
1, 35281, Note_off_c, 9, 64, 102
1, 35283, Note_on_c, 9, 69, 50
1, 35284, Note_off_c, 9, 69, 92
1, 35304, Note_on_c, 12, 58, 86
1, 35322, Note_on_c, 12, 62, 97
1, 35322, Note_off_c, 0, 64, 111
1, 35326, Note_off_c, 0, 52, 84
1, 35326, Note_off_c, 0, 67, 111
1, 35326, Note_off_c, 0, 72, 108
1, 35327, Note_on_c, 9, 42, 92
1, 35327, Note_on_c, 9, 69, 96
1, 35328, Note_on_c, 1, 31, 113
1, 35328, Note_on_c, 9, 36, 124
1, 35328, Note_off_c, 9, 42, 100
1, 35328, Note_on_c, 0, 53, 81
1, 35328, Note_on_c, 0, 58, 71
1, 35328, Note_on_c, 0, 62, 84
1, 35328, Note_on_c, 9, 63, 110
1, 35328, Note_off_c, 9, 69, 80
1, 35328, Note_on_c, 0, 77, 100
1, 35328, Note_on_c, 0, 81, 99
1, 35329, Note_off_c, 9, 36, 76
1, 35329, Note_off_c, 9, 63, 82
1, 35337, Note_on_c, 12, 69, 92
1, 35373, Note_off_c, 1, 31, 94
1, 35379, Note_on_c, 9, 69, 50
1, 35380, Note_off_c, 9, 69, 80
1, 35423, Note_on_c, 9, 42, 124
1, 35423, Note_on_c, 9, 69, 88
1, 35424, Note_off_c, 9, 42, 96
1, 35424, Note_on_c, 1, 43, 111
1, 35424, Note_on_c, 9, 63, 106
1, 35424, Note_off_c, 9, 69, 76
1, 35424, Note_on_c, 3, 81, 99
1, 35425, Note_off_c, 9, 63, 74
1, 35438, Note_off_c, 3, 81, 99
1, 35456, Note_on_c, 0, 79, 99
1, 35456, Note_on_c, 0, 82, 98
1, 35458, Note_off_c, 1, 43, 94
1, 35471, Note_off_c, 0, 81, 102
1, 35472, Note_off_c, 0, 77, 99
1, 35475, Note_on_c, 9, 69, 50
1, 35476, Note_off_c, 9, 69, 76
1, 35519, Note_on_c, 9, 42, 100
1, 35519, Note_on_c, 9, 69, 104
1, 35520, Note_on_c, 1, 33, 104
1, 35520, Note_on_c, 9, 36, 124
1, 35520, Note_on_c, 9, 40, 109
1, 35520, Note_off_c, 9, 42, 100
1, 35520, Note_on_c, 2, 62, 108
1, 35520, Note_on_c, 9, 62, 114
1, 35520, Note_on_c, 2, 65, 113
1, 35520, Note_off_c, 9, 69, 68
1, 35520, Note_on_c, 2, 70, 122
1, 35520, Note_on_c, 3, 81, 124
1, 35521, Note_off_c, 9, 36, 96
1, 35521, Note_off_c, 9, 40, 81
1, 35521, Note_off_c, 9, 62, 98
1, 35571, Note_on_c, 9, 69, 50
1, 35572, Note_off_c, 9, 69, 68
1, 35575, Note_off_c, 1, 33, 91
1, 35584, Note_on_c, 0, 81, 96
1, 35584, Note_on_c, 0, 84, 90
1, 35589, Note_off_c, 0, 82, 97
1, 35591, Note_off_c, 0, 79, 102
1, 35596, Note_off_c, 3, 81, 106
1, 35615, Note_on_c, 9, 42, 124
1, 35615, Note_on_c, 9, 69, 96
1, 35616, Note_off_c, 9, 42, 100
1, 35616, Note_on_c, 1, 45, 111
1, 35616, Note_on_c, 9, 64, 106
1, 35616, Note_off_c, 9, 69, 68
1, 35616, Note_on_c, 3, 79, 106
1, 35617, Note_off_c, 9, 64, 86
1, 35633, Note_off_c, 3, 79, 104
1, 35639, Note_off_c, 2, 62, 35
1, 35644, Note_off_c, 2, 65, 76
1, 35651, Note_off_c, 1, 45, 106
1, 35664, Note_on_c, 9, 64, 98
1, 35665, Note_off_c, 9, 64, 94
1, 35667, Note_on_c, 9, 69, 50
1, 35668, Note_on_c, 2, 62, 97
1, 35668, Note_off_c, 9, 69, 68
1, 35669, Note_off_c, 2, 70, 106
1, 35701, Note_off_c, 0, 84, 108
1, 35711, Note_on_c, 9, 42, 84
1, 35711, Note_off_c, 2, 62, 108
1, 35711, Note_on_c, 9, 69, 104
1, 35712, Note_on_c, 1, 34, 114
1, 35712, Note_on_c, 9, 36, 124
1, 35712, Note_off_c, 9, 42, 96
1, 35712, Note_on_c, 9, 63, 114
1, 35712, Note_on_c, 2, 65, 119
1, 35712, Note_off_c, 9, 69, 84
1, 35712, Note_on_c, 2, 70, 117
1, 35712, Note_on_c, 0, 77, 111
1, 35712, Note_on_c, 3, 81, 124
1, 35713, Note_off_c, 9, 36, 108
1, 35713, Note_off_c, 9, 63, 86
1, 35730, Note_off_c, 2, 70, 104
1, 35741, Note_off_c, 2, 65, 108
1, 35763, Note_off_c, 1, 34, 84
1, 35763, Note_on_c, 9, 69, 50
1, 35764, Note_off_c, 9, 69, 84
1, 35805, Note_off_c, 3, 81, 110
1, 35807, Note_on_c, 9, 42, 124
1, 35807, Note_on_c, 9, 69, 100
1, 35808, Note_off_c, 9, 42, 100
1, 35808, Note_on_c, 1, 46, 104
1, 35808, Note_on_c, 9, 63, 114
1, 35808, Note_off_c, 9, 69, 92
1, 35808, Note_on_c, 3, 79, 94
1, 35809, Note_off_c, 9, 63, 90
1, 35844, Note_off_c, 1, 46, 91
1, 35859, Note_on_c, 9, 69, 50
1, 35860, Note_off_c, 9, 69, 92
1, 35884, Note_off_c, 3, 79, 106
1, 35903, Note_on_c, 9, 42, 104
1, 35903, Note_on_c, 9, 69, 100
1, 35904, Note_on_c, 9, 36, 124
1, 35904, Note_on_c, 9, 40, 109
1, 35904, Note_off_c, 9, 42, 100
1, 35904, Note_on_c, 9, 62, 114
1, 35904, Note_on_c, 2, 65, 120
1, 35904, Note_off_c, 9, 69, 92
1, 35904, Note_on_c, 2, 70, 120
1, 35904, Note_on_c, 3, 77, 114
1, 35905, Note_off_c, 9, 36, 112
1, 35905, Note_off_c, 9, 40, 93
1, 35905, Note_off_c, 9, 62, 94
1, 35921, Note_off_c, 2, 70, 94
1, 35924, Note_off_c, 2, 65, 104
1, 35955, Note_on_c, 9, 69, 50
1, 35956, Note_off_c, 9, 69, 92
1, 35980, Note_off_c, 3, 77, 110
1, 35982, Note_off_c, 12, 69, 13
1, 35999, Note_on_c, 9, 42, 124
1, 35999, Note_on_c, 9, 69, 100
1, 36000, Note_off_c, 9, 42, 100
1, 36000, Note_on_c, 1, 46, 104
1, 36000, Note_on_c, 9, 64, 102
1, 36000, Note_off_c, 9, 69, 92
1, 36000, Note_on_c, 3, 74, 108
1, 36001, Note_off_c, 9, 64, 94
1, 36011, Note_off_c, 12, 58, 81
1, 36017, Note_off_c, 1, 46, 99
1, 36020, Note_off_c, 3, 74, 110
1, 36041, Note_off_c, 12, 53, 97
1, 36042, Note_off_c, 12, 62, 104
1, 36048, Note_on_c, 1, 46, 113
1, 36048, Note_on_c, 9, 64, 98
1, 36049, Note_off_c, 9, 64, 102
1, 36051, Note_on_c, 9, 69, 50
1, 36052, Note_off_c, 9, 69, 92
1, 36057, Note_on_c, 12, 53, 94
1, 36067, Pitch_bend_c, 2, 7552
1, 36072, Note_off_c, 0, 77, 81
1, 36072, Note_off_c, 1, 46, 84
1, 36075, Note_off_c, 0, 58, 88
1, 36075, Pitch_bend_c, 2, 5760
1, 36080, Note_on_c, 12, 58, 104
1, 36082, Pitch_bend_c, 2, 3456
1, 36085, Note_off_c, 0, 62, 104
1, 36086, Note_off_c, 0, 53, 84
1, 36090, Pitch_bend_c, 2, 1152
1, 36091, Note_off_c, 0, 81, 108
1, 36095, Note_on_c, 9, 42, 104
1, 36095, Note_on_c, 9, 69, 96
1, 36096, Note_on_c, 1, 34, 114
1, 36096, Note_on_c, 9, 36, 124
1, 36096, Note_off_c, 9, 42, 100
1, 36096, Note_on_c, 0, 53, 94
1, 36096, Note_on_c, 0, 58, 94
1, 36096, Note_on_c, 9, 63, 110
1, 36096, Note_on_c, 0, 65, 94
1, 36096, Note_off_c, 9, 69, 80
1, 36096, Note_on_c, 2, 74, 114
1, 36096, Note_on_c, 3, 77, 122
1, 36096, Note_on_c, 2, 79, 116
1, 36097, Note_off_c, 9, 36, 76
1, 36097, Note_off_c, 9, 63, 82
1, 36097, Note_on_c, 0, 70, 111
1, 36097, Pitch_bend_c, 2, 512
1, 36098, Note_on_c, 0, 72, 110
1, 36099, Note_on_c, 12, 62, 96
1, 36105, Pitch_bend_c, 2, 4608
1, 36110, Note_on_c, 0, 74, 104
1, 36112, Pitch_bend_c, 2, 6656
1, 36119, Pitch_bend_c, 2, 7552
1, 36120, Note_off_c, 0, 72, 102
1, 36126, Pitch_bend_c, 2, 7936
1, 36132, Note_off_c, 1, 34, 102
1, 36133, Pitch_bend_c, 2, 8192
1, 36147, Note_on_c, 9, 69, 50
1, 36148, Note_off_c, 9, 69, 80
1, 36191, Note_on_c, 9, 42, 124
1, 36191, Note_on_c, 9, 69, 88
1, 36192, Note_off_c, 9, 42, 100
1, 36192, Note_on_c, 1, 46, 113
1, 36192, Note_on_c, 9, 63, 106
1, 36192, Note_off_c, 9, 69, 76
1, 36193, Note_off_c, 9, 63, 74
1, 36202, Note_off_c, 3, 77, 110
1, 36220, Note_off_c, 2, 74, 71
1, 36225, Note_off_c, 1, 46, 97
1, 36229, Note_off_c, 2, 79, 97
1, 36240, Note_on_c, 3, 74, 104
1, 36243, Note_on_c, 9, 69, 50
1, 36244, Note_off_c, 9, 69, 76
1, 36244, Note_on_c, 2, 79, 114
1, 36260, Note_off_c, 3, 74, 111
1, 36270, Note_off_c, 2, 79, 102
1, 36287, Note_on_c, 9, 42, 108
1, 36287, Note_on_c, 9, 69, 104
1, 36288, Note_on_c, 9, 36, 124
1, 36288, Note_on_c, 9, 40, 109
1, 36288, Note_off_c, 9, 42, 100
1, 36288, Note_on_c, 9, 62, 114
1, 36288, Note_off_c, 9, 69, 68
1, 36288, Note_on_c, 2, 72, 120
1, 36288, Note_on_c, 3, 77, 122
1, 36288, Note_on_c, 2, 77, 122
1, 36289, Note_off_c, 9, 36, 96
1, 36289, Note_off_c, 9, 40, 81
1, 36289, Note_off_c, 9, 62, 98
1, 36305, Note_off_c, 2, 77, 106
1, 36313, Note_off_c, 2, 72, 113
1, 36315, Note_off_c, 3, 77, 113
1, 36339, Note_on_c, 9, 69, 50
1, 36340, Note_off_c, 9, 69, 68
1, 36383, Note_on_c, 9, 42, 124
1, 36383, Note_on_c, 9, 69, 96
1, 36384, Note_off_c, 9, 42, 100
1, 36384, Note_on_c, 1, 46, 111
1, 36384, Note_on_c, 9, 64, 106
1, 36384, Note_off_c, 9, 69, 68
1, 36384, Note_on_c, 3, 74, 116
1, 36385, Note_off_c, 9, 64, 86
1, 36402, Note_off_c, 1, 46, 97
1, 36413, Note_off_c, 3, 74, 97
1, 36432, Note_on_c, 1, 46, 113
1, 36432, Note_on_c, 9, 64, 98
1, 36433, Note_off_c, 9, 64, 94
1, 36435, Note_off_c, 12, 58, 84
1, 36435, Note_on_c, 9, 69, 50
1, 36436, Note_off_c, 9, 69, 68
1, 36444, Note_on_c, 12, 52, 88
1, 36449, Note_off_c, 12, 62, 94
1, 36457, Note_off_c, 12, 53, 91
1, 36458, Note_off_c, 1, 46, 91
1, 36474, Note_on_c, 12, 55, 101
1, 36475, Note_off_c, 0, 70, 60
1, 36478, Note_off_c, 0, 65, 102
1, 36479, Note_on_c, 9, 42, 104
1, 36479, Note_off_c, 0, 53, 102
1, 36479, Note_off_c, 0, 58, 102
1, 36479, Note_on_c, 9, 69, 104
1, 36480, Note_on_c, 1, 34, 114
1, 36480, Note_on_c, 9, 36, 124
1, 36480, Note_off_c, 9, 42, 100
1, 36480, Note_on_c, 0, 52, 97
1, 36480, Note_on_c, 9, 63, 114
1, 36480, Note_on_c, 0, 64, 99
1, 36480, Note_on_c, 0, 67, 99
1, 36480, Note_on_c, 2, 67, 97
1, 36480, Note_off_c, 9, 69, 84
1, 36480, Note_on_c, 0, 72, 102
1, 36480, Note_on_c, 2, 72, 108
1, 36480, Note_on_c, 3, 77, 122
1, 36481, Note_off_c, 9, 36, 108
1, 36481, Note_off_c, 9, 63, 86
1, 36486, Note_on_c, 12, 60, 97
1, 36486, Note_off_c, 0, 74, 13
1, 36514, Note_off_c, 1, 34, 104
1, 36531, Note_on_c, 9, 69, 50
1, 36532, Note_off_c, 9, 69, 84
1, 36575, Note_on_c, 9, 42, 124
1, 36575, Note_on_c, 9, 69, 100
1, 36576, Note_off_c, 9, 42, 104
1, 36576, Note_on_c, 1, 46, 113
1, 36576, Note_on_c, 9, 63, 114
1, 36576, Note_off_c, 9, 69, 92
1, 36577, Note_off_c, 9, 63, 90
1, 36593, Note_off_c, 2, 67, 71
1, 36593, Note_off_c, 3, 77, 110
1, 36594, Note_off_c, 2, 72, 84
1, 36605, Note_off_c, 1, 46, 104
1, 36624, Note_on_c, 3, 79, 116
1, 36627, Note_on_c, 9, 69, 50
1, 36628, Note_off_c, 9, 69, 92
1, 36656, Note_off_c, 3, 79, 108
1, 36671, Note_on_c, 9, 42, 96
1, 36671, Note_on_c, 9, 69, 100
1, 36672, Note_on_c, 1, 33, 102
1, 36672, Note_on_c, 9, 36, 124
1, 36672, Note_on_c, 9, 40, 109
1, 36672, Note_off_c, 9, 42, 100
1, 36672, Note_on_c, 9, 62, 114
1, 36672, Note_on_c, 2, 67, 97
1, 36672, Note_off_c, 9, 69, 92
1, 36673, Note_off_c, 9, 36, 112
1, 36673, Note_off_c, 9, 40, 93
1, 36673, Note_off_c, 9, 62, 94
1, 36712, Note_off_c, 1, 33, 99
1, 36723, Note_on_c, 9, 69, 50
1, 36724, Note_off_c, 2, 67, 102
1, 36724, Note_on_c, 2, 67, 98
1, 36724, Note_off_c, 9, 69, 92
1, 36745, Note_off_c, 2, 67, 110
1, 36762, Note_off_c, 12, 55, 71
1, 36767, Note_on_c, 9, 42, 124
1, 36767, Note_on_c, 9, 69, 100
1, 36768, Note_off_c, 9, 42, 104
1, 36768, Note_on_c, 1, 45, 119
1, 36768, Note_on_c, 9, 64, 102
1, 36768, Note_off_c, 9, 69, 92
1, 36768, Note_on_c, 3, 74, 113
1, 36768, Note_on_c, 2, 76, 104
1, 36769, Note_off_c, 9, 64, 94
1, 36789, Note_off_c, 3, 74, 97
1, 36795, Note_off_c, 1, 45, 106
1, 36808, Note_off_c, 12, 52, 108
1, 36809, Note_off_c, 12, 60, 111
1, 36816, Note_on_c, 9, 64, 98
1, 36817, Note_on_c, 12, 53, 76
1, 36817, Note_off_c, 9, 64, 102
1, 36819, Note_on_c, 9, 69, 50
1, 36820, Note_off_c, 2, 76, 106
1, 36820, Note_off_c, 9, 69, 92
1, 36820, Note_on_c, 2, 76, 104
1, 36840, Note_on_c, 12, 58, 86
1, 36851, Note_off_c, 2, 76, 110
1, 36858, Note_on_c, 12, 62, 97
1, 36858, Note_off_c, 0, 64, 111
1, 36862, Note_off_c, 0, 52, 84
1, 36862, Note_off_c, 0, 67, 111
1, 36862, Note_off_c, 0, 72, 108
1, 36863, Note_on_c, 9, 42, 100
1, 36863, Note_on_c, 9, 69, 96
1, 36864, Note_on_c, 1, 31, 113
1, 36864, Note_on_c, 9, 36, 124
1, 36864, Note_off_c, 9, 42, 92
1, 36864, Note_on_c, 0, 53, 81
1, 36864, Note_on_c, 0, 58, 71
1, 36864, Note_on_c, 0, 62, 84
1, 36864, Note_on_c, 9, 63, 110
1, 36864, Note_off_c, 9, 69, 80
1, 36864, Note_on_c, 0, 77, 100
1, 36864, Note_on_c, 0, 81, 99
1, 36864, Note_on_c, 3, 84, 123
1, 36865, Note_off_c, 9, 36, 76
1, 36865, Note_off_c, 9, 63, 82
1, 36873, Note_on_c, 12, 69, 92
1, 36909, Note_off_c, 1, 31, 94
1, 36915, Note_on_c, 9, 69, 50
1, 36916, Note_off_c, 9, 69, 80
1, 36959, Note_on_c, 9, 42, 120
1, 36959, Note_on_c, 9, 69, 88
1, 36960, Note_off_c, 9, 42, 92
1, 36960, Note_on_c, 1, 43, 111
1, 36960, Note_on_c, 9, 63, 106
1, 36960, Note_off_c, 9, 69, 76
1, 36961, Note_off_c, 9, 63, 74
1, 36984, Note_off_c, 3, 84, 110
1, 36992, Note_on_c, 0, 79, 99
1, 36992, Note_on_c, 0, 82, 98
1, 36994, Note_off_c, 1, 43, 94
1, 37007, Note_off_c, 0, 81, 102
1, 37008, Note_on_c, 1, 43, 111
1, 37008, Note_off_c, 0, 77, 99
1, 37011, Note_on_c, 9, 69, 50
1, 37012, Note_off_c, 9, 69, 76
1, 37042, Note_off_c, 1, 43, 94
1, 37055, Note_on_c, 9, 42, 124
1, 37055, Note_on_c, 9, 69, 104
1, 37056, Note_on_c, 1, 33, 104
1, 37056, Note_on_c, 9, 36, 124
1, 37056, Note_on_c, 9, 40, 109
1, 37056, Note_off_c, 9, 42, 96
1, 37056, Note_on_c, 2, 62, 108
1, 37056, Note_on_c, 9, 62, 114
1, 37056, Note_on_c, 2, 65, 113
1, 37056, Note_off_c, 9, 69, 68
1, 37056, Note_on_c, 2, 70, 122
1, 37056, Note_on_c, 3, 81, 120
1, 37057, Note_off_c, 9, 36, 96
1, 37057, Note_off_c, 9, 40, 81
1, 37057, Note_off_c, 9, 62, 98
1, 37086, Note_off_c, 3, 81, 108
1, 37107, Note_on_c, 9, 69, 50
1, 37108, Note_off_c, 9, 69, 68
1, 37111, Note_off_c, 1, 33, 91
1, 37120, Note_on_c, 0, 81, 96
1, 37120, Note_on_c, 0, 84, 90
1, 37125, Note_off_c, 0, 82, 97
1, 37127, Note_off_c, 0, 79, 102
1, 37151, Note_on_c, 9, 42, 124
1, 37151, Note_on_c, 9, 69, 96
1, 37152, Note_off_c, 9, 42, 100
1, 37152, Note_on_c, 1, 45, 111
1, 37152, Note_on_c, 9, 64, 106
1, 37152, Note_off_c, 9, 69, 68
1, 37152, Note_on_c, 3, 79, 114
1, 37153, Note_off_c, 9, 64, 86
1, 37175, Note_off_c, 2, 62, 35
1, 37179, Note_off_c, 3, 79, 108
1, 37180, Note_off_c, 2, 65, 76
1, 37187, Note_off_c, 1, 45, 106
1, 37200, Note_on_c, 1, 45, 111
1, 37200, Note_on_c, 9, 64, 98
1, 37201, Note_off_c, 9, 64, 94
1, 37203, Note_on_c, 9, 69, 50
1, 37204, Note_on_c, 2, 62, 97
1, 37204, Note_off_c, 9, 69, 68
1, 37205, Note_off_c, 2, 70, 106
1, 37235, Note_off_c, 1, 45, 106
1, 37237, Note_off_c, 0, 84, 108
1, 37247, Note_on_c, 9, 42, 76
1, 37247, Note_off_c, 2, 62, 108
1, 37247, Note_on_c, 9, 69, 104
1, 37248, Note_on_c, 1, 34, 114
1, 37248, Note_on_c, 9, 36, 124
1, 37248, Note_off_c, 9, 42, 100
1, 37248, Note_on_c, 9, 63, 114
1, 37248, Note_on_c, 2, 65, 119
1, 37248, Note_off_c, 9, 69, 84
1, 37248, Note_on_c, 2, 70, 117
1, 37248, Note_on_c, 0, 77, 111
1, 37248, Note_on_c, 3, 81, 122
1, 37249, Note_off_c, 9, 36, 108
1, 37249, Note_off_c, 9, 63, 86
1, 37266, Note_off_c, 2, 70, 104
1, 37277, Note_off_c, 2, 65, 108
1, 37299, Note_off_c, 1, 34, 84
1, 37299, Note_on_c, 9, 69, 50
1, 37300, Note_off_c, 9, 69, 84
1, 37319, Note_off_c, 3, 81, 110
1, 37343, Note_on_c, 9, 42, 124
1, 37343, Note_on_c, 9, 69, 100
1, 37344, Note_off_c, 9, 42, 100
1, 37344, Note_on_c, 1, 46, 104
1, 37344, Note_on_c, 9, 63, 114
1, 37344, Note_off_c, 9, 69, 92
1, 37344, Note_on_c, 3, 81, 113
1, 37345, Note_off_c, 9, 63, 90
1, 37366, Note_off_c, 3, 81, 99
1, 37380, Note_off_c, 1, 46, 91
1, 37395, Note_on_c, 9, 69, 50
1, 37396, Note_off_c, 9, 69, 92
1, 37439, Note_on_c, 9, 42, 84
1, 37439, Note_on_c, 9, 69, 100
1, 37440, Note_on_c, 9, 36, 124
1, 37440, Note_on_c, 9, 40, 109
1, 37440, Note_off_c, 9, 42, 96
1, 37440, Note_on_c, 9, 62, 114
1, 37440, Note_on_c, 2, 65, 120
1, 37440, Note_off_c, 9, 69, 92
1, 37440, Note_on_c, 2, 70, 120
1, 37441, Note_off_c, 9, 36, 112
1, 37441, Note_off_c, 9, 40, 93
1, 37441, Note_off_c, 9, 62, 94
1, 37457, Note_off_c, 2, 70, 94
1, 37460, Note_off_c, 2, 65, 104
1, 37491, Note_on_c, 9, 69, 50
1, 37492, Note_off_c, 9, 69, 92
1, 37518, Note_off_c, 12, 69, 13
1, 37535, Note_on_c, 9, 42, 124
1, 37535, Note_on_c, 9, 69, 100
1, 37536, Note_off_c, 9, 42, 100
1, 37536, Note_on_c, 1, 46, 104
1, 37536, Note_on_c, 9, 64, 102
1, 37536, Note_off_c, 9, 69, 92
1, 37536, Note_on_c, 3, 74, 113
1, 37537, Note_off_c, 9, 64, 94
1, 37547, Note_off_c, 12, 58, 81
1, 37553, Note_off_c, 1, 46, 99
1, 37555, Note_off_c, 3, 74, 110
1, 37577, Note_off_c, 12, 53, 97
1, 37578, Note_off_c, 12, 62, 104
1, 37584, Note_on_c, 1, 46, 113
1, 37584, Note_on_c, 9, 64, 98
1, 37585, Note_off_c, 9, 64, 102
1, 37587, Note_on_c, 9, 69, 50
1, 37588, Note_off_c, 9, 69, 92
1, 37593, Note_on_c, 12, 53, 94
1, 37603, Pitch_bend_c, 2, 7552
1, 37608, Note_off_c, 0, 77, 81
1, 37608, Note_off_c, 1, 46, 84
1, 37611, Note_off_c, 0, 58, 88
1, 37611, Pitch_bend_c, 2, 5760
1, 37616, Note_on_c, 12, 58, 104
1, 37618, Pitch_bend_c, 2, 3456
1, 37621, Note_off_c, 0, 62, 104
1, 37622, Note_off_c, 0, 53, 84
1, 37626, Pitch_bend_c, 2, 1152
1, 37627, Note_off_c, 0, 81, 108
1, 37631, Note_on_c, 9, 42, 92
1, 37631, Note_on_c, 9, 69, 96
1, 37632, Note_on_c, 1, 34, 114
1, 37632, Note_on_c, 9, 36, 124
1, 37632, Note_off_c, 9, 42, 100
1, 37632, Note_on_c, 0, 53, 94
1, 37632, Note_on_c, 0, 58, 94
1, 37632, Note_on_c, 9, 63, 110
1, 37632, Note_on_c, 0, 65, 94
1, 37632, Note_off_c, 9, 69, 80
1, 37632, Note_on_c, 2, 74, 114
1, 37632, Note_on_c, 2, 79, 116
1, 37632, Note_on_c, 3, 84, 123
1, 37633, Note_off_c, 9, 36, 76
1, 37633, Note_off_c, 9, 63, 82
1, 37633, Note_on_c, 0, 70, 111
1, 37633, Pitch_bend_c, 2, 512
1, 37634, Note_on_c, 0, 72, 110
1, 37635, Note_on_c, 12, 62, 96
1, 37641, Pitch_bend_c, 2, 4608
1, 37646, Note_on_c, 0, 74, 104
1, 37648, Pitch_bend_c, 2, 6656
1, 37655, Pitch_bend_c, 2, 7552
1, 37656, Note_off_c, 0, 72, 102
1, 37662, Pitch_bend_c, 2, 7936
1, 37668, Note_off_c, 1, 34, 102
1, 37669, Pitch_bend_c, 2, 8192
1, 37683, Note_on_c, 9, 69, 50
1, 37684, Note_off_c, 9, 69, 80
1, 37708, Note_off_c, 3, 84, 106
1, 37727, Note_on_c, 9, 42, 124
1, 37727, Note_on_c, 9, 69, 88
1, 37728, Note_off_c, 9, 42, 96
1, 37728, Note_on_c, 1, 46, 113
1, 37728, Note_on_c, 9, 63, 106
1, 37728, Note_off_c, 9, 69, 76
1, 37728, Note_on_c, 3, 81, 117
1, 37729, Note_off_c, 9, 63, 74
1, 37743, Note_off_c, 3, 81, 104
1, 37756, Note_off_c, 2, 74, 71
1, 37761, Note_off_c, 1, 46, 97
1, 37765, Note_off_c, 2, 79, 97
1, 37779, Note_on_c, 9, 69, 50
1, 37780, Note_off_c, 9, 69, 76
1, 37780, Note_on_c, 2, 79, 114
1, 37806, Note_off_c, 2, 79, 102
1, 37823, Note_on_c, 9, 42, 112
1, 37823, Note_on_c, 9, 69, 104
1, 37824, Note_on_c, 9, 36, 124
1, 37824, Note_on_c, 9, 40, 109
1, 37824, Note_off_c, 9, 42, 100
1, 37824, Note_on_c, 9, 62, 114
1, 37824, Note_off_c, 9, 69, 68
1, 37824, Note_on_c, 2, 72, 120
1, 37824, Note_on_c, 2, 77, 122
1, 37824, Note_on_c, 3, 81, 120
1, 37825, Note_off_c, 9, 36, 96
1, 37825, Note_off_c, 9, 40, 81
1, 37825, Note_off_c, 9, 62, 98
1, 37841, Note_off_c, 2, 77, 106
1, 37849, Note_off_c, 2, 72, 113
1, 37853, Note_off_c, 3, 81, 111
1, 37875, Note_on_c, 9, 69, 50
1, 37876, Note_off_c, 9, 69, 68
1, 37919, Note_on_c, 9, 42, 124
1, 37919, Note_on_c, 9, 69, 96
1, 37920, Note_off_c, 9, 42, 100
1, 37920, Note_on_c, 1, 46, 111
1, 37920, Note_on_c, 9, 64, 106
1, 37920, Note_off_c, 9, 69, 68
1, 37920, Note_on_c, 3, 79, 116
1, 37921, Note_off_c, 9, 64, 86
1, 37938, Note_off_c, 1, 46, 97
1, 37943, Note_off_c, 3, 79, 97
1, 37968, Note_on_c, 9, 64, 98
1, 37969, Note_off_c, 9, 64, 94
1, 37971, Note_off_c, 12, 58, 84
1, 37971, Note_on_c, 9, 69, 50
1, 37972, Note_off_c, 9, 69, 68
1, 37980, Note_on_c, 12, 52, 88
1, 37985, Note_off_c, 12, 62, 94
1, 37993, Note_off_c, 12, 53, 91
1, 38010, Note_on_c, 12, 55, 101
1, 38011, Note_off_c, 0, 70, 60
1, 38014, Note_off_c, 0, 65, 102
1, 38015, Note_on_c, 9, 42, 88
1, 38015, Note_off_c, 0, 53, 102
1, 38015, Note_off_c, 0, 58, 102
1, 38015, Note_on_c, 9, 69, 104
1, 38016, Note_on_c, 1, 34, 114
1, 38016, Note_on_c, 9, 36, 124
1, 38016, Note_off_c, 9, 42, 100
1, 38016, Note_on_c, 0, 52, 97
1, 38016, Note_on_c, 9, 63, 114
1, 38016, Note_on_c, 0, 64, 99
1, 38016, Note_on_c, 0, 67, 99
1, 38016, Note_on_c, 2, 67, 97
1, 38016, Note_off_c, 9, 69, 84
1, 38016, Note_on_c, 0, 72, 102
1, 38016, Note_on_c, 2, 72, 108
1, 38016, Note_on_c, 3, 81, 124
1, 38017, Note_off_c, 9, 36, 108
1, 38017, Note_off_c, 9, 63, 86
1, 38022, Note_on_c, 12, 60, 97
1, 38022, Note_off_c, 0, 74, 13
1, 38033, Note_off_c, 2, 67, 71
1, 38034, Note_off_c, 2, 72, 84
1, 38050, Note_off_c, 1, 34, 104
1, 38067, Note_on_c, 9, 69, 50
1, 38068, Note_off_c, 9, 69, 84
1, 38111, Note_on_c, 9, 46, 124
1, 38111, Note_on_c, 9, 69, 100
1, 38112, Note_off_c, 9, 46, 100
1, 38112, Note_on_c, 1, 46, 113
1, 38112, Note_on_c, 9, 63, 114
1, 38112, Note_on_c, 2, 67, 97
1, 38112, Note_off_c, 9, 69, 92
1, 38112, Note_on_c, 2, 72, 108
1, 38113, Note_off_c, 9, 63, 90
1, 38129, Note_off_c, 2, 67, 71
1, 38130, Note_off_c, 2, 72, 84
1, 38141, Note_off_c, 1, 46, 104
1, 38159, Note_off_c, 3, 81, 104
1, 38163, Note_on_c, 9, 69, 50
1, 38164, Note_off_c, 9, 69, 92
1, 38207, Note_on_c, 9, 44, 89
1, 38207, Note_on_c, 9, 69, 100
1, 38208, Note_on_c, 1, 33, 102
1, 38208, Note_on_c, 9, 36, 124
1, 38208, Note_on_c, 9, 40, 85
1, 38208, Note_off_c, 9, 44, 100
1, 38208, Note_on_c, 9, 62, 114
1, 38208, Note_on_c, 2, 67, 60
1, 38208, Note_off_c, 9, 69, 92
1, 38208, Note_on_c, 2, 72, 82
1, 38208, Note_on_c, 3, 81, 122
1, 38209, Note_off_c, 9, 36, 112
1, 38209, Note_off_c, 9, 40, 93
1, 38209, Note_off_c, 9, 62, 94
1, 38248, Note_off_c, 3, 81, 113
1, 38248, Note_off_c, 1, 33, 99
1, 38256, Note_on_c, 9, 40, 110
1, 38256, Note_off_c, 2, 67, 71
1, 38256, Note_on_c, 2, 67, 78
1, 38256, Note_off_c, 2, 72, 84
1, 38256, Note_on_c, 2, 72, 92
1, 38257, Note_off_c, 9, 40, 93
1, 38259, Note_on_c, 9, 69, 50
1, 38260, Note_off_c, 9, 69, 92
1, 38297, Pitch_bend_c, 12, 8064
1, 38298, Note_off_c, 12, 55, 71
1, 38303, Note_on_c, 9, 69, 100
1, 38304, Note_on_c, 2, 57, 79
1, 38304, Note_on_c, 0, 61, 120
1, 38304, Note_off_c, 0, 61, 117
1, 38304, Note_on_c, 2, 62, 87
1, 38304, Note_on_c, 3, 84, 123
1, 38304, Pitch_bend_c, 12, 7680
1, 38304, Note_on_c, 12, 62, 120
1, 38304, Note_on_c, 12, 67, 119
1, 38304, Note_on_c, 9, 40, 127
1, 38304, Note_on_c, 1, 45, 119
1, 38304, Note_on_c, 9, 64, 102
1, 38304, Note_off_c, 2, 67, 71
1, 38304, Note_on_c, 2, 67, 97
1, 38304, Note_off_c, 2, 72, 84
1, 38304, Note_off_c, 9, 69, 92
1, 38304, Note_on_c, 2, 72, 108
1, 38305, Note_off_c, 2, 57, 104
1, 38305, Note_off_c, 2, 62, 104
1, 38305, Note_off_c, 9, 40, 93
1, 38305, Note_off_c, 9, 64, 94
1, 38309, Note_on_c, 0, 67, 114
1, 38311, Pitch_bend_c, 12, 4096
1, 38314, Note_on_c, 0, 62, 120
1, 38318, Pitch_bend_c, 12, 2176
1, 38321, Note_off_c, 2, 67, 71
1, 38322, Note_off_c, 2, 72, 84
1, 38325, Note_on_c, 0, 61, 99
1, 38325, Pitch_bend_c, 12, 1024
1, 38331, Note_off_c, 1, 45, 106
1, 38335, Pitch_bend_c, 12, 4864
1, 38337, Note_off_c, 0, 61, 91
1, 38342, Pitch_bend_c, 12, 6784
1, 38344, Note_off_c, 12, 52, 108
1, 38345, Note_off_c, 12, 60, 111
1, 38349, Pitch_bend_c, 12, 7552
1, 38352, Note_on_c, 9, 64, 98
1, 38353, Note_off_c, 9, 64, 102
1, 38355, Note_on_c, 9, 69, 50
1, 38356, Note_on_c, 2, 57, 108
1, 38356, Note_off_c, 2, 57, 114
1, 38356, Note_on_c, 2, 57, 115
1, 38356, Pitch_bend_c, 12, 7936
1, 38356, Note_off_c, 9, 69, 92
1, 38359, Note_off_c, 2, 57, 106
1, 38363, Pitch_bend_c, 12, 8192
1, 38394, Note_off_c, 0, 64, 111
1, 38398, Note_off_c, 0, 52, 84
1, 38398, Note_off_c, 0, 67, 111
1, 38398, Note_off_c, 0, 72, 108
1, 38399, Note_on_c, 9, 69, 96
1, 38400, Note_on_c, 9, 36, 124
1, 38400, Note_on_c, 1, 38, 116
1, 38400, Note_on_c, 9, 49, 124
1, 38400, Note_on_c, 11, 50, 116
1, 38400, Note_on_c, 2, 57, 122
1, 38400, Note_on_c, 2, 62, 124
1, 38400, Note_on_c, 9, 63, 120
1, 38400, Note_on_c, 2, 65, 123
1, 38400, Note_off_c, 9, 69, 80
1, 38401, Note_off_c, 9, 36, 76
1, 38401, Note_off_c, 9, 49, 100
1, 38401, Note_off_c, 9, 63, 92
1, 38435, Note_off_c, 2, 57, 84
1, 38435, Note_off_c, 2, 62, 111
1, 38447, Note_off_c, 0, 67, 104
1, 38451, Note_off_c, 0, 62, 108
1, 38451, Note_off_c, 2, 65, 108
1, 38451, Note_on_c, 9, 69, 50
1, 38452, Note_off_c, 9, 69, 80
1, 38461, Note_off_c, 3, 84, 110
1, 38465, Note_off_c, 1, 38, 94
1, 38471, Note_off_c, 12, 62, 108
1, 38471, Note_off_c, 12, 67, 108
1, 38495, Note_on_c, 9, 69, 88
1, 38496, Note_on_c, 1, 50, 114
1, 38496, Note_on_c, 0, 57, 108
1, 38496, Note_on_c, 2, 57, 113
1, 38496, Note_on_c, 0, 60, 110
1, 38496, Note_on_c, 12, 60, 110
1, 38496, Note_on_c, 2, 62, 117
1, 38496, Note_on_c, 9, 63, 116
1, 38496, Note_on_c, 0, 65, 110
1, 38496, Note_on_c, 12, 65, 110
1, 38496, Note_off_c, 9, 69, 76
1, 38496, Note_on_c, 3, 81, 122
1, 38497, Note_off_c, 9, 63, 84
1, 38511, Note_off_c, 2, 62, 119
1, 38512, Note_off_c, 1, 50, 116
1, 38515, Note_off_c, 0, 60, 111
1, 38516, Note_off_c, 0, 65, 111
1, 38519, Note_off_c, 12, 60, 102
1, 38521, Note_off_c, 0, 57, 94
1, 38522, Note_off_c, 12, 65, 94
1, 38523, Note_off_c, 2, 57, 104
1, 38529, Note_off_c, 3, 81, 111
1, 38544, Note_on_c, 1, 50, 117
1, 38547, Note_on_c, 9, 69, 50
1, 38548, Note_off_c, 9, 69, 76
1, 38564, Note_off_c, 1, 50, 102
1, 38591, Note_on_c, 9, 42, 7
1, 38591, Note_on_c, 9, 69, 104
1, 38592, Note_on_c, 9, 36, 124
1, 38592, Note_on_c, 1, 38, 117
1, 38592, Note_on_c, 9, 40, 124
1, 38592, Note_off_c, 9, 42, 88
1, 38592, Note_on_c, 0, 57, 111
1, 38592, Note_on_c, 2, 57, 122
1, 38592, Note_on_c, 0, 60, 119
1, 38592, Note_on_c, 12, 60, 113
1, 38592, Note_on_c, 2, 62, 124
1, 38592, Note_on_c, 9, 62, 124
1, 38592, Note_on_c, 0, 65, 117
1, 38592, Note_on_c, 2, 65, 124
1, 38592, Note_on_c, 12, 65, 113
1, 38592, Note_off_c, 9, 69, 68
1, 38592, Note_on_c, 3, 77, 123
1, 38593, Note_off_c, 9, 36, 96
1, 38593, Note_off_c, 9, 40, 96
1, 38593, Note_off_c, 9, 62, 108
1, 38622, Note_off_c, 2, 57, 108
1, 38624, Note_off_c, 2, 62, 111
1, 38629, Note_off_c, 3, 77, 113
1, 38637, Note_off_c, 2, 65, 108
1, 38643, Note_on_c, 9, 69, 50
1, 38644, Note_off_c, 9, 69, 68
1, 38661, Note_off_c, 1, 38, 97
1, 38687, Note_on_c, 9, 42, 112
1, 38687, Note_off_c, 12, 60, 104
1, 38687, Note_on_c, 9, 69, 96
1, 38688, Note_off_c, 9, 42, 88
1, 38688, Note_on_c, 1, 50, 114
1, 38688, Note_on_c, 12, 57, 104
1, 38688, Note_on_c, 0, 62, 117
1, 38688, Note_on_c, 12, 62, 111
1, 38688, Note_on_c, 9, 64, 116
1, 38688, Note_off_c, 9, 69, 68
1, 38688, Note_on_c, 3, 74, 119
1, 38689, Note_off_c, 9, 64, 96
1, 38694, Note_off_c, 0, 57, 104
1, 38698, Note_off_c, 0, 60, 102
1, 38702, Note_off_c, 0, 65, 104
1, 38705, Note_off_c, 1, 50, 114
1, 38714, Note_off_c, 12, 65, 97
1, 38715, Note_off_c, 0, 62, 106
1, 38726, Note_off_c, 3, 74, 104
1, 38736, Note_on_c, 1, 50, 114
1, 38736, Note_on_c, 9, 64, 108
1, 38737, Note_off_c, 9, 64, 104
1, 38739, Note_on_c, 9, 69, 50
1, 38740, Note_off_c, 9, 69, 68
1, 38757, Note_off_c, 1, 50, 94
1, 38783, Note_on_c, 9, 42, 52
1, 38783, Note_on_c, 9, 69, 104
1, 38784, Note_on_c, 9, 36, 124
1, 38784, Note_on_c, 1, 38, 122
1, 38784, Note_off_c, 9, 42, 92
1, 38784, Note_on_c, 0, 57, 113
1, 38784, Note_on_c, 2, 57, 122
1, 38784, Note_on_c, 0, 60, 119
1, 38784, Note_on_c, 12, 60, 106
1, 38784, Note_on_c, 2, 62, 124
1, 38784, Note_on_c, 9, 63, 124
1, 38784, Note_on_c, 0, 65, 119
1, 38784, Note_on_c, 2, 65, 124
1, 38784, Note_on_c, 12, 65, 111
1, 38784, Note_off_c, 9, 69, 84
1, 38784, Note_on_c, 3, 77, 123
1, 38785, Note_off_c, 9, 36, 108
1, 38785, Note_off_c, 9, 63, 96
1, 38789, Note_off_c, 12, 57, 108
1, 38801, Note_off_c, 12, 62, 97
1, 38815, Note_off_c, 2, 57, 108
1, 38817, Note_off_c, 2, 62, 111
1, 38835, Note_on_c, 9, 69, 50
1, 38836, Note_off_c, 9, 69, 84
1, 38849, Note_off_c, 1, 38, 97
1, 38861, Note_off_c, 2, 65, 13
1, 38879, Note_on_c, 9, 42, 124
1, 38879, Note_on_c, 9, 69, 100
1, 38880, Note_off_c, 9, 42, 92
1, 38880, Note_on_c, 1, 50, 113
1, 38880, Note_on_c, 9, 63, 124
1, 38880, Note_off_c, 9, 69, 92
1, 38881, Note_off_c, 9, 63, 100
1, 38897, Note_off_c, 1, 50, 113
1, 38928, Note_on_c, 1, 50, 108
1, 38931, Note_on_c, 9, 69, 50
1, 38932, Note_on_c, 2, 57, 99
1, 38932, Note_off_c, 9, 69, 92
1, 38952, Note_off_c, 1, 50, 97
1, 38958, Note_off_c, 2, 57, 102
1, 38964, Note_off_c, 3, 77, 110
1, 38968, Note_off_c, 12, 60, 104
1, 38971, Note_off_c, 12, 65, 106
1, 38974, Note_off_c, 0, 57, 108
1, 38975, Note_on_c, 9, 42, 84
1, 38975, Note_off_c, 0, 60, 110
1, 38975, Note_on_c, 9, 69, 100
1, 38976, Note_on_c, 9, 36, 124
1, 38976, Note_on_c, 1, 38, 117
1, 38976, Note_on_c, 9, 40, 124
1, 38976, Note_off_c, 9, 42, 96
1, 38976, Note_on_c, 2, 57, 117
1, 38976, Note_on_c, 12, 57, 114
1, 38976, Note_on_c, 0, 62, 116
1, 38976, Note_on_c, 2, 62, 124
1, 38976, Note_on_c, 12, 62, 104
1, 38976, Note_on_c, 9, 62, 124
1, 38976, Note_on_c, 2, 65, 122
1, 38976, Note_off_c, 9, 69, 92
1, 38976, Note_on_c, 3, 74, 114
1, 38977, Note_off_c, 9, 36, 112
1, 38977, Note_off_c, 9, 40, 108
1, 38977, Note_off_c, 9, 62, 104
1, 38980, Note_off_c, 0, 65, 110
1, 38998, Note_off_c, 0, 62, 104
1, 39002, Note_off_c, 12, 62, 94
1, 39004, Note_off_c, 2, 57, 110
1, 39004, Note_off_c, 2, 62, 111
1, 39013, Note_off_c, 3, 74, 104
1, 39027, Note_on_c, 9, 69, 50
1, 39028, Note_off_c, 9, 69, 92
1, 39032, Note_off_c, 2, 65, 91
1, 39036, Note_off_c, 12, 57, 99
1, 39041, Pitch_bend_c, 12, 7808
1, 39046, Note_off_c, 1, 38, 102
1, 39051, Pitch_bend_c, 12, 6400
1, 39058, Pitch_bend_c, 12, 3584
1, 39065, Pitch_bend_c, 12, 1792
1, 39067, Note_on_c, 0, 61, 117
1, 39070, Note_on_c, 0, 67, 114
1, 39071, Note_on_c, 9, 42, 124
1, 39071, Note_on_c, 9, 69, 100
1, 39072, Note_off_c, 9, 42, 96
1, 39072, Note_on_c, 1, 50, 116
1, 39072, Note_on_c, 12, 62, 119
1, 39072, Note_on_c, 9, 64, 112
1, 39072, Note_on_c, 12, 67, 116
1, 39072, Note_off_c, 9, 69, 92
1, 39072, Note_on_c, 3, 84, 122
1, 39073, Note_off_c, 9, 64, 104
1, 39074, Pitch_bend_c, 12, 1280
1, 39081, Note_on_c, 0, 62, 119
1, 39085, Pitch_bend_c, 12, 5888
1, 39086, Note_off_c, 0, 61, 111
1, 39090, Note_off_c, 1, 50, 113
1, 39092, Pitch_bend_c, 12, 7424
1, 39099, Pitch_bend_c, 12, 7808
1, 39108, Pitch_bend_c, 12, 8192
1, 39120, Note_on_c, 1, 50, 119
1, 39120, Note_on_c, 9, 64, 108
1, 39121, Note_off_c, 9, 64, 112
1, 39123, Note_on_c, 9, 69, 50
1, 39124, Note_off_c, 9, 69, 92
1, 39138, Note_off_c, 1, 50, 97
1, 39167, Note_on_c, 9, 42, 76
1, 39167, Note_on_c, 9, 69, 96
1, 39168, Note_on_c, 9, 36, 124
1, 39168, Note_on_c, 1, 38, 120
1, 39168, Note_off_c, 9, 42, 100
1, 39168, Note_on_c, 2, 57, 122
1, 39168, Note_on_c, 2, 62, 124
1, 39168, Note_on_c, 9, 63, 120
1, 39168, Note_on_c, 2, 65, 124
1, 39168, Note_off_c, 9, 69, 80
1, 39169, Note_off_c, 9, 36, 76
1, 39169, Note_off_c, 9, 63, 92
1, 39198, Note_off_c, 2, 62, 111
1, 39200, Note_off_c, 2, 57, 110
1, 39202, Note_off_c, 2, 65, 110
1, 39215, Note_off_c, 3, 84, 110
1, 39219, Note_on_c, 9, 69, 50
1, 39220, Note_off_c, 9, 69, 80
1, 39221, Note_off_c, 0, 67, 106
1, 39226, Note_off_c, 0, 62, 110
1, 39233, Note_off_c, 1, 38, 102
1, 39263, Note_on_c, 9, 42, 124
1, 39263, Note_on_c, 9, 69, 88
1, 39264, Note_off_c, 9, 42, 100
1, 39264, Note_on_c, 1, 50, 116
1, 39264, Note_on_c, 0, 57, 108
1, 39264, Note_on_c, 2, 57, 111
1, 39264, Note_on_c, 0, 60, 113
1, 39264, Note_on_c, 12, 60, 113
1, 39264, Note_on_c, 2, 62, 119
1, 39264, Note_on_c, 9, 63, 116
1, 39264, Note_on_c, 0, 65, 114
1, 39264, Note_on_c, 2, 65, 117
1, 39264, Note_on_c, 12, 65, 111
1, 39264, Note_off_c, 9, 69, 76
1, 39264, Note_on_c, 3, 81, 119
1, 39265, Note_off_c, 9, 63, 84
1, 39271, Note_off_c, 12, 62, 108
1, 39277, Note_off_c, 12, 67, 108
1, 39282, Note_off_c, 0, 60, 113
1, 39282, Note_off_c, 1, 50, 111
1, 39284, Note_off_c, 12, 60, 99
1, 39288, Note_off_c, 0, 57, 97
1, 39288, Note_off_c, 12, 65, 97
1, 39289, Note_off_c, 2, 57, 102
1, 39291, Note_off_c, 2, 62, 113
1, 39291, Note_off_c, 3, 81, 113
1, 39293, Note_off_c, 0, 65, 106
1, 39295, Note_off_c, 2, 65, 108
1, 39312, Note_on_c, 1, 50, 120
1, 39315, Note_on_c, 9, 69, 50
1, 39316, Note_off_c, 9, 69, 76
1, 39327, Note_off_c, 1, 50, 111
1, 39359, Note_on_c, 9, 42, 80
1, 39359, Note_on_c, 9, 69, 104
1, 39360, Note_on_c, 9, 36, 124
1, 39360, Note_on_c, 1, 38, 122
1, 39360, Note_on_c, 9, 40, 124
1, 39360, Note_off_c, 9, 42, 96
1, 39360, Note_on_c, 0, 57, 110
1, 39360, Note_on_c, 2, 57, 119
1, 39360, Note_on_c, 0, 60, 120
1, 39360, Note_on_c, 12, 60, 113
1, 39360, Note_on_c, 2, 62, 124
1, 39360, Note_on_c, 9, 62, 124
1, 39360, Note_on_c, 0, 65, 117
1, 39360, Note_on_c, 2, 65, 124
1, 39360, Note_on_c, 12, 65, 114
1, 39360, Note_off_c, 9, 69, 68
1, 39360, Note_on_c, 3, 77, 122
1, 39361, Note_off_c, 9, 36, 96
1, 39361, Note_off_c, 9, 40, 96
1, 39361, Note_off_c, 9, 62, 108
1, 39390, Note_off_c, 2, 57, 108
1, 39390, Note_off_c, 2, 62, 113
1, 39393, Note_off_c, 3, 77, 113
1, 39398, Note_off_c, 2, 65, 111
1, 39411, Note_on_c, 9, 69, 50
1, 39412, Note_off_c, 9, 69, 68
1, 39433, Note_off_c, 1, 38, 102
1, 39447, Note_off_c, 0, 57, 102
1, 39448, Note_off_c, 12, 60, 108
1, 39455, Note_on_c, 9, 42, 124
1, 39455, Note_on_c, 9, 69, 96
1, 39456, Note_off_c, 9, 42, 96
1, 39456, Note_on_c, 1, 50, 116
1, 39456, Note_on_c, 12, 57, 106
1, 39456, Note_on_c, 0, 62, 113
1, 39456, Note_on_c, 12, 62, 108
1, 39456, Note_on_c, 9, 64, 116
1, 39456, Note_off_c, 9, 69, 68
1, 39456, Note_on_c, 3, 74, 120
1, 39457, Note_off_c, 9, 64, 96
1, 39465, Note_off_c, 0, 60, 108
1, 39466, Note_off_c, 0, 65, 106
1, 39473, Note_off_c, 1, 50, 113
1, 39479, Note_off_c, 12, 65, 102
1, 39481, Note_off_c, 0, 62, 104
1, 39499, Note_off_c, 3, 74, 104
1, 39504, Note_on_c, 1, 50, 116
1, 39504, Note_on_c, 9, 64, 108
1, 39505, Note_off_c, 9, 64, 104
1, 39507, Note_on_c, 9, 69, 50
1, 39508, Note_off_c, 9, 69, 68
1, 39525, Note_off_c, 1, 50, 99
1, 39551, Note_on_c, 9, 42, 92
1, 39551, Note_on_c, 9, 69, 104
1, 39552, Note_on_c, 9, 36, 124
1, 39552, Note_on_c, 1, 38, 122
1, 39552, Note_off_c, 9, 42, 100
1, 39552, Note_on_c, 0, 57, 111
1, 39552, Note_on_c, 2, 57, 120
1, 39552, Note_on_c, 0, 60, 117
1, 39552, Note_on_c, 12, 60, 110
1, 39552, Note_on_c, 2, 62, 123
1, 39552, Note_on_c, 9, 63, 124
1, 39552, Note_on_c, 0, 65, 119
1, 39552, Note_on_c, 2, 65, 122
1, 39552, Note_on_c, 12, 65, 114
1, 39552, Note_off_c, 9, 69, 84
1, 39552, Note_on_c, 3, 77, 123
1, 39553, Note_off_c, 9, 36, 108
1, 39553, Note_off_c, 9, 63, 96
1, 39556, Note_off_c, 12, 57, 106
1, 39564, Note_off_c, 12, 62, 106
1, 39577, Note_off_c, 2, 62, 113
1, 39581, Note_off_c, 2, 57, 108
1, 39581, Note_off_c, 2, 65, 111
1, 39603, Note_on_c, 9, 69, 50
1, 39604, Note_off_c, 9, 69, 84
1, 39610, Note_off_c, 1, 38, 91
1, 39647, Note_on_c, 9, 42, 124
1, 39647, Note_on_c, 9, 69, 100
1, 39648, Note_off_c, 9, 42, 96
1, 39648, Note_on_c, 1, 50, 114
1, 39648, Note_on_c, 2, 57, 113
1, 39648, Note_on_c, 2, 62, 122
1, 39648, Note_on_c, 9, 63, 124
1, 39648, Note_on_c, 2, 65, 122
1, 39648, Note_off_c, 9, 69, 92
1, 39649, Note_off_c, 9, 63, 100
1, 39667, Note_off_c, 1, 50, 108
1, 39672, Note_off_c, 2, 57, 102
1, 39696, Note_on_c, 1, 50, 113
1, 39699, Note_on_c, 9, 69, 50
1, 39700, Note_on_c, 2, 57, 97
1, 39700, Note_off_c, 9, 69, 92
1, 39714, Note_off_c, 2, 65, 104
1, 39718, Note_off_c, 1, 50, 104
1, 39723, Note_off_c, 2, 62, 108
1, 39728, Note_off_c, 12, 60, 106
1, 39741, Note_off_c, 0, 60, 106
1, 39742, Note_off_c, 0, 57, 108
1, 39743, Note_on_c, 9, 42, 96
1, 39743, Note_on_c, 9, 69, 100
1, 39744, Note_on_c, 9, 36, 124
1, 39744, Note_on_c, 1, 38, 117
1, 39744, Note_on_c, 9, 40, 124
1, 39744, Note_off_c, 9, 42, 100
1, 39744, Note_on_c, 12, 57, 110
1, 39744, Note_on_c, 0, 62, 116
1, 39744, Note_on_c, 2, 62, 114
1, 39744, Note_on_c, 12, 62, 108
1, 39744, Note_on_c, 9, 62, 124
1, 39744, Note_on_c, 2, 65, 123
1, 39744, Note_off_c, 9, 69, 92
1, 39744, Note_on_c, 3, 74, 114
1, 39745, Note_off_c, 9, 36, 112
1, 39745, Note_off_c, 9, 40, 108
1, 39745, Note_off_c, 9, 62, 104
1, 39747, Note_off_c, 3, 77, 111
1, 39751, Note_off_c, 12, 65, 106
1, 39753, Note_off_c, 0, 65, 110
1, 39772, Note_off_c, 0, 62, 106
1, 39773, Note_off_c, 2, 57, 108
1, 39779, Note_off_c, 2, 62, 113
1, 39782, Note_off_c, 2, 65, 111
1, 39782, Note_off_c, 3, 74, 106
1, 39789, Note_off_c, 12, 62, 104
1, 39795, Note_on_c, 9, 69, 50
1, 39796, Note_off_c, 9, 69, 92
1, 39806, Note_off_c, 12, 57, 104
1, 39811, Note_off_c, 1, 38, 91
1, 39818, Pitch_bend_c, 12, 8064
1, 39825, Pitch_bend_c, 12, 7808
1, 39832, Pitch_bend_c, 12, 4992
1, 39833, Note_on_c, 0, 61, 117
1, 39836, Note_on_c, 0, 67, 116
1, 39839, Note_on_c, 9, 42, 124
1, 39839, Note_on_c, 9, 69, 100
1, 39840, Note_off_c, 9, 42, 100
1, 39840, Note_on_c, 1, 50, 116
1, 39840, Note_on_c, 12, 62, 119
1, 39840, Note_on_c, 9, 64, 112
1, 39840, Note_on_c, 12, 67, 116
1, 39840, Note_off_c, 9, 69, 92
1, 39840, Note_on_c, 3, 84, 123
1, 39841, Note_off_c, 9, 64, 104
1, 39841, Pitch_bend_c, 12, 2816
1, 39848, Pitch_bend_c, 12, 3840
1, 39850, Note_on_c, 0, 62, 116
1, 39853, Note_off_c, 0, 61, 110
1, 39858, Pitch_bend_c, 12, 6784
1, 39865, Note_off_c, 1, 50, 108
1, 39865, Pitch_bend_c, 12, 7552
1, 39872, Pitch_bend_c, 12, 7936
1, 39879, Pitch_bend_c, 12, 8192
1, 39888, Note_on_c, 1, 50, 110
1, 39888, Note_on_c, 9, 64, 108
1, 39889, Note_off_c, 9, 64, 112
1, 39891, Note_on_c, 9, 69, 50
1, 39892, Note_off_c, 9, 69, 92
1, 39916, Note_off_c, 1, 50, 110
1, 39935, Note_on_c, 9, 42, 76
1, 39935, Note_off_c, 11, 50, 108
1, 39935, Note_on_c, 9, 69, 96
1, 39936, Note_on_c, 9, 36, 124
1, 39936, Note_on_c, 11, 41, 116
1, 39936, Note_on_c, 1, 41, 122
1, 39936, Note_off_c, 9, 42, 96
1, 39936, Note_on_c, 2, 57, 114
1, 39936, Note_on_c, 2, 60, 119
1, 39936, Note_on_c, 9, 63, 120
1, 39936, Note_on_c, 2, 65, 117
1, 39936, Note_off_c, 9, 69, 80
1, 39937, Note_off_c, 9, 36, 76
1, 39937, Note_off_c, 9, 63, 92
1, 39952, Note_off_c, 2, 60, 111
1, 39960, Note_off_c, 2, 57, 104
1, 39963, Note_off_c, 2, 65, 108
1, 39987, Note_off_c, 0, 67, 110
1, 39987, Note_on_c, 9, 69, 50
1, 39988, Note_off_c, 3, 84, 110
1, 39988, Note_off_c, 9, 69, 80
1, 39996, Note_off_c, 0, 62, 110
1, 40007, Note_off_c, 1, 41, 108
1, 40028, Note_off_c, 12, 62, 108
1, 40030, Note_off_c, 12, 67, 108
1, 40031, Note_on_c, 9, 42, 124
1, 40031, Note_on_c, 9, 69, 88
1, 40032, Note_off_c, 9, 42, 100
1, 40032, Note_on_c, 1, 53, 113
1, 40032, Note_on_c, 0, 57, 108
1, 40032, Note_on_c, 2, 57, 116
1, 40032, Note_on_c, 0, 60, 114
1, 40032, Note_on_c, 2, 60, 116
1, 40032, Note_on_c, 12, 60, 111
1, 40032, Note_on_c, 9, 63, 116
1, 40032, Note_on_c, 0, 65, 111
1, 40032, Note_on_c, 2, 65, 110
1, 40032, Note_on_c, 12, 65, 113
1, 40032, Note_off_c, 9, 69, 76
1, 40032, Note_on_c, 3, 81, 119
1, 40033, Note_off_c, 9, 63, 84
1, 40046, Note_off_c, 2, 60, 116
1, 40053, Note_off_c, 1, 53, 108
1, 40055, Note_off_c, 0, 60, 106
1, 40055, Note_off_c, 2, 65, 108
1, 40057, Note_off_c, 0, 65, 97
1, 40058, Note_off_c, 0, 57, 91
1, 40059, Note_off_c, 2, 57, 104
1, 40061, Note_off_c, 12, 60, 104
1, 40066, Note_off_c, 12, 65, 110
1, 40067, Note_off_c, 3, 81, 111
1, 40080, Note_on_c, 1, 53, 113
1, 40083, Note_on_c, 9, 69, 50
1, 40084, Note_off_c, 9, 69, 76
1, 40103, Note_off_c, 1, 53, 99
1, 40127, Note_on_c, 9, 42, 92
1, 40127, Note_on_c, 9, 69, 104
1, 40128, Note_on_c, 9, 36, 124
1, 40128, Note_on_c, 9, 40, 124
1, 40128, Note_on_c, 1, 41, 120
1, 40128, Note_off_c, 9, 42, 100
1, 40128, Note_on_c, 0, 57, 110
1, 40128, Note_on_c, 2, 57, 119
1, 40128, Note_on_c, 0, 60, 116
1, 40128, Note_on_c, 2, 60, 123
1, 40128, Note_on_c, 12, 60, 114
1, 40128, Note_on_c, 9, 62, 124
1, 40128, Note_on_c, 0, 65, 116
1, 40128, Note_on_c, 2, 65, 122
1, 40128, Note_on_c, 12, 65, 114
1, 40128, Note_off_c, 9, 69, 68
1, 40128, Note_on_c, 3, 77, 122
1, 40129, Note_off_c, 9, 36, 96
1, 40129, Note_off_c, 9, 40, 96
1, 40129, Note_off_c, 9, 62, 108
1, 40167, Note_off_c, 3, 77, 111
1, 40179, Note_on_c, 9, 69, 50
1, 40180, Note_off_c, 9, 69, 68
1, 40197, Note_off_c, 2, 57, 106
1, 40197, Note_off_c, 1, 41, 108
1, 40200, Note_off_c, 2, 60, 111
1, 40200, Note_off_c, 2, 65, 110
1, 40220, Note_off_c, 12, 60, 110
1, 40221, Note_off_c, 0, 57, 102
1, 40223, Note_on_c, 9, 42, 124
1, 40223, Note_on_c, 9, 69, 96
1, 40224, Note_off_c, 12, 65, 104
1, 40224, Note_off_c, 9, 42, 92
1, 40224, Note_on_c, 1, 53, 113
1, 40224, Note_on_c, 12, 57, 111
1, 40224, Note_on_c, 0, 62, 116
1, 40224, Note_on_c, 12, 62, 113
1, 40224, Note_on_c, 9, 64, 116
1, 40224, Note_off_c, 9, 69, 68
1, 40224, Note_on_c, 3, 74, 119
1, 40225, Note_off_c, 9, 64, 96
1, 40230, Note_off_c, 0, 60, 106
1, 40235, Note_off_c, 0, 65, 104
1, 40246, Note_off_c, 1, 53, 108
1, 40254, Note_off_c, 0, 62, 110
1, 40266, Note_off_c, 3, 74, 106
1, 40272, Note_on_c, 1, 53, 113
1, 40272, Note_on_c, 9, 64, 108
1, 40273, Note_off_c, 9, 64, 104
1, 40275, Note_on_c, 9, 69, 50
1, 40276, Note_off_c, 9, 69, 68
1, 40294, Note_off_c, 1, 53, 104
1, 40319, Note_on_c, 9, 42, 84
1, 40319, Note_on_c, 9, 69, 104
1, 40320, Note_on_c, 9, 36, 124
1, 40320, Note_on_c, 1, 41, 122
1, 40320, Note_off_c, 9, 42, 96
1, 40320, Note_on_c, 0, 57, 111
1, 40320, Note_on_c, 2, 57, 113
1, 40320, Note_on_c, 0, 60, 116
1, 40320, Note_on_c, 2, 60, 122
1, 40320, Note_on_c, 12, 60, 111
1, 40320, Note_on_c, 9, 63, 124
1, 40320, Note_on_c, 0, 65, 116
1, 40320, Note_on_c, 2, 65, 120
1, 40320, Note_on_c, 12, 65, 113
1, 40320, Note_off_c, 9, 69, 84
1, 40320, Note_on_c, 3, 77, 122
1, 40321, Note_off_c, 12, 57, 108
1, 40321, Note_off_c, 9, 36, 108
1, 40321, Note_off_c, 9, 63, 96
1, 40326, Note_off_c, 12, 62, 108
1, 40371, Note_on_c, 9, 69, 50
1, 40372, Note_off_c, 9, 69, 84
1, 40390, Note_off_c, 1, 41, 106
1, 40415, Note_on_c, 9, 42, 124
1, 40415, Note_on_c, 9, 69, 100
1, 40416, Note_off_c, 9, 42, 100
1, 40416, Note_on_c, 1, 53, 110
1, 40416, Note_on_c, 9, 63, 124
1, 40416, Note_off_c, 9, 69, 92
1, 40417, Note_off_c, 9, 63, 100
1, 40419, Note_off_c, 2, 57, 71
1, 40437, Note_off_c, 1, 53, 108
1, 40444, Note_off_c, 2, 65, 66
1, 40464, Note_on_c, 1, 53, 108
1, 40467, Note_on_c, 9, 69, 50
1, 40468, Note_on_c, 2, 57, 102
1, 40468, Note_off_c, 9, 69, 92
1, 40474, Note_off_c, 2, 60, 66
1, 40492, Note_off_c, 1, 53, 108
1, 40506, Note_off_c, 12, 60, 108
1, 40508, Note_off_c, 3, 77, 110
1, 40510, Note_off_c, 0, 60, 108
1, 40511, Note_on_c, 9, 42, 100
1, 40511, Note_on_c, 9, 69, 100
1, 40512, Note_on_c, 9, 36, 124
1, 40512, Note_on_c, 9, 40, 124
1, 40512, Note_on_c, 1, 41, 120
1, 40512, Note_off_c, 9, 42, 100
1, 40512, Note_on_c, 12, 57, 108
1, 40512, Note_on_c, 2, 60, 122
1, 40512, Note_on_c, 0, 62, 113
1, 40512, Note_on_c, 12, 62, 113
1, 40512, Note_on_c, 9, 62, 124
1, 40512, Note_on_c, 2, 65, 120
1, 40512, Note_off_c, 9, 69, 92
1, 40512, Note_on_c, 3, 74, 113
1, 40513, Note_off_c, 0, 57, 106
1, 40513, Note_off_c, 12, 65, 97
1, 40513, Note_off_c, 9, 36, 112
1, 40513, Note_off_c, 9, 40, 108
1, 40513, Note_off_c, 9, 62, 104
1, 40516, Note_off_c, 0, 65, 108
1, 40532, Note_off_c, 0, 62, 102
1, 40536, Note_off_c, 2, 65, 108
1, 40551, Note_off_c, 2, 60, 108
1, 40561, Note_off_c, 2, 57, 102
1, 40562, Note_off_c, 3, 74, 102
1, 40563, Note_on_c, 9, 69, 50
1, 40564, Note_off_c, 9, 69, 92
1, 40578, Note_off_c, 1, 41, 106
1, 40606, Note_off_c, 12, 62, 108
1, 40607, Note_on_c, 9, 42, 124
1, 40607, Note_on_c, 9, 69, 100
1, 40608, Note_off_c, 9, 42, 100
1, 40608, Note_on_c, 12, 53, 108
1, 40608, Note_on_c, 1, 53, 113
1, 40608, Note_on_c, 0, 60, 111
1, 40608, Note_on_c, 12, 60, 114
1, 40608, Note_on_c, 9, 64, 112
1, 40608, Note_on_c, 0, 65, 113
1, 40608, Note_off_c, 9, 69, 92
1, 40608, Note_on_c, 0, 69, 117
1, 40608, Note_on_c, 3, 81, 122
1, 40609, Note_off_c, 9, 64, 104
1, 40628, Note_off_c, 1, 53, 111
1, 40656, Note_on_c, 1, 53, 114
1, 40656, Note_on_c, 9, 64, 108
1, 40657, Note_off_c, 9, 64, 112
1, 40659, Note_on_c, 9, 69, 50
1, 40660, Note_off_c, 9, 69, 92
1, 40683, Note_off_c, 1, 53, 108
1, 40703, Note_on_c, 9, 42, 92
1, 40703, Note_on_c, 9, 69, 96
1, 40704, Note_on_c, 9, 36, 124
1, 40704, Note_on_c, 1, 41, 120
1, 40704, Note_off_c, 9, 42, 100
1, 40704, Note_on_c, 2, 57, 108
1, 40704, Note_on_c, 2, 60, 119
1, 40704, Note_on_c, 9, 63, 120
1, 40704, Note_on_c, 2, 65, 117
1, 40704, Note_off_c, 9, 69, 80
1, 40705, Note_off_c, 9, 36, 76
1, 40705, Note_off_c, 9, 63, 92
1, 40731, Note_off_c, 2, 57, 104
1, 40733, Note_off_c, 2, 60, 111
1, 40736, Note_off_c, 2, 65, 110
1, 40755, Note_on_c, 9, 69, 50
1, 40756, Note_off_c, 9, 69, 80
1, 40789, Note_off_c, 1, 41, 99
1, 40799, Note_on_c, 9, 42, 124
1, 40799, Note_on_c, 9, 69, 88
1, 40800, Note_off_c, 9, 42, 100
1, 40800, Note_on_c, 1, 53, 114
1, 40800, Note_on_c, 2, 57, 113
1, 40800, Note_on_c, 2, 60, 120
1, 40800, Note_on_c, 9, 63, 116
1, 40800, Note_on_c, 2, 65, 117
1, 40800, Note_off_c, 9, 69, 76
1, 40801, Note_off_c, 9, 63, 84
1, 40823, Note_off_c, 2, 60, 108
1, 40826, Note_off_c, 2, 57, 106
1, 40826, Note_off_c, 1, 53, 108
1, 40829, Note_off_c, 2, 65, 102
1, 40848, Note_on_c, 1, 53, 108
1, 40851, Note_on_c, 9, 69, 50
1, 40852, Note_off_c, 9, 69, 76
1, 40877, Note_off_c, 1, 53, 108
1, 40893, Note_off_c, 3, 81, 113
1, 40895, Note_off_c, 11, 41, 104
1, 40895, Note_on_c, 9, 42, 100
1, 40895, Note_on_c, 9, 69, 104
1, 40896, Note_on_c, 9, 36, 124
1, 40896, Note_on_c, 9, 40, 124
1, 40896, Note_off_c, 9, 42, 100
1, 40896, Note_on_c, 11, 43, 119
1, 40896, Note_on_c, 1, 43, 119
1, 40896, Note_on_c, 2, 57, 116
1, 40896, Note_on_c, 2, 60, 122
1, 40896, Note_on_c, 9, 62, 124
1, 40896, Note_on_c, 2, 65, 120
1, 40896, Note_off_c, 9, 69, 68
1, 40897, Note_off_c, 9, 36, 96
1, 40897, Note_off_c, 9, 40, 96
1, 40897, Note_off_c, 9, 62, 108
1, 40947, Note_on_c, 9, 69, 50
1, 40948, Note_off_c, 9, 69, 68
1, 40966, Note_off_c, 1, 43, 104
1, 40969, Note_off_c, 2, 65, 110
1, 40972, Note_off_c, 2, 60, 97
1, 40978, Note_off_c, 2, 57, 104
1, 40991, Note_on_c, 9, 42, 124
1, 40991, Note_on_c, 9, 69, 96
1, 40992, Note_off_c, 9, 42, 104
1, 40992, Note_on_c, 1, 55, 113
1, 40992, Note_on_c, 9, 64, 116
1, 40992, Note_off_c, 9, 69, 68
1, 40993, Note_off_c, 9, 64, 96
1, 41012, Note_off_c, 1, 55, 111
1, 41040, Note_on_c, 1, 55, 108
1, 41040, Note_on_c, 9, 64, 108
1, 41041, Note_off_c, 9, 64, 104
1, 41043, Note_on_c, 9, 69, 50
1, 41044, Note_off_c, 9, 69, 68
1, 41067, Note_off_c, 1, 55, 110
1, 41087, Note_on_c, 9, 42, 92
1, 41087, Note_off_c, 11, 43, 102
1, 41087, Note_on_c, 9, 69, 104
1, 41088, Note_on_c, 9, 36, 124
1, 41088, Note_off_c, 9, 42, 100
1, 41088, Note_on_c, 11, 45, 116
1, 41088, Note_on_c, 1, 45, 122
1, 41088, Note_on_c, 2, 57, 117
1, 41088, Note_on_c, 2, 60, 122
1, 41088, Note_on_c, 9, 63, 124
1, 41088, Note_on_c, 2, 65, 122
1, 41088, Note_off_c, 9, 69, 84
1, 41089, Note_off_c, 9, 36, 108
1, 41089, Note_off_c, 9, 63, 96
1, 41139, Note_on_c, 9, 69, 50
1, 41140, Note_off_c, 9, 69, 84
1, 41159, Note_off_c, 1, 45, 108
1, 41183, Note_on_c, 9, 42, 124
1, 41183, Note_on_c, 9, 69, 100
1, 41184, Note_off_c, 9, 42, 108
1, 41184, Note_on_c, 1, 57, 116
1, 41184, Note_on_c, 9, 63, 124
1, 41184, Note_off_c, 9, 69, 92
1, 41185, Note_off_c, 9, 63, 100
1, 41188, Note_off_c, 2, 57, 84
1, 41211, Note_off_c, 1, 57, 106
1, 41214, Note_off_c, 2, 65, 71
1, 41232, Note_on_c, 1, 57, 106
1, 41235, Note_on_c, 9, 69, 50
1, 41236, Note_on_c, 2, 57, 97
1, 41236, Note_off_c, 9, 69, 92
1, 41250, Note_off_c, 2, 60, 13
1, 41258, Note_off_c, 1, 57, 106
1, 41263, Note_off_c, 2, 57, 97
1, 41275, Note_off_c, 0, 65, 110
1, 41276, Note_off_c, 0, 60, 111
1, 41279, Note_on_c, 9, 42, 96
1, 41279, Note_off_c, 11, 45, 108
1, 41279, Note_on_c, 9, 69, 100
1, 41280, Note_on_c, 9, 36, 124
1, 41280, Note_on_c, 9, 40, 124
1, 41280, Note_on_c, 11, 41, 122
1, 41280, Note_on_c, 1, 41, 120
1, 41280, Note_off_c, 9, 42, 100
1, 41280, Note_on_c, 2, 57, 113
1, 41280, Note_on_c, 2, 60, 117
1, 41280, Note_on_c, 9, 62, 124
1, 41280, Note_on_c, 2, 65, 120
1, 41280, Note_off_c, 9, 69, 92
1, 41281, Note_off_c, 9, 36, 112
1, 41281, Note_off_c, 9, 40, 108
1, 41281, Note_off_c, 9, 62, 104
1, 41282, Note_off_c, 0, 69, 108
1, 41296, Note_off_c, 12, 60, 111
1, 41299, Note_off_c, 2, 65, 108
1, 41300, Note_off_c, 2, 60, 110
1, 41306, Note_off_c, 12, 57, 108
1, 41309, Note_off_c, 12, 53, 106
1, 41313, Note_off_c, 2, 57, 104
1, 41331, Note_on_c, 9, 69, 50
1, 41332, Note_off_c, 9, 69, 92
1, 41354, Pitch_bend_c, 12, 8064
1, 41361, Pitch_bend_c, 12, 7680
1, 41363, Note_off_c, 1, 41, 111
1, 41368, Pitch_bend_c, 12, 4864
1, 41375, Note_on_c, 9, 46, 121
1, 41375, Note_on_c, 9, 69, 100
1, 41376, Note_off_c, 9, 46, 100
1, 41376, Note_on_c, 2, 57, 96
1, 41376, Note_on_c, 2, 60, 98
1, 41376, Note_on_c, 0, 61, 120
1, 41376, Note_off_c, 9, 69, 92
1, 41376, Note_off_c, 0, 61, 117
1, 41376, Note_on_c, 12, 62, 119
1, 41376, Note_on_c, 2, 65, 98
1, 41376, Note_on_c, 3, 84, 123
1, 41376, Pitch_bend_c, 12, 2048
1, 41376, Note_on_c, 1, 53, 111
1, 41376, Note_on_c, 9, 64, 112
1, 41376, Note_on_c, 12, 67, 116
1, 41377, Note_off_c, 9, 64, 104
1, 41381, Note_on_c, 0, 67, 114
1, 41384, Pitch_bend_c, 12, 1024
1, 41386, Note_on_c, 0, 62, 120
1, 41391, Pitch_bend_c, 12, 1408
1, 41395, Note_off_c, 2, 65, 108
1, 41396, Note_off_c, 2, 60, 110
1, 41397, Note_off_c, 1, 53, 113
1, 41397, Note_on_c, 0, 61, 99
1, 41398, Pitch_bend_c, 12, 6016
1, 41405, Pitch_bend_c, 12, 7424
1, 41409, Note_off_c, 2, 57, 104
1, 41409, Note_off_c, 0, 61, 91
1, 41413, Pitch_bend_c, 12, 7936
1, 41422, Pitch_bend_c, 12, 8192
1, 41424, Note_on_c, 1, 53, 111
1, 41424, Note_on_c, 9, 64, 108
1, 41425, Note_off_c, 9, 64, 112
1, 41427, Note_on_c, 9, 69, 50
1, 41428, Note_off_c, 9, 69, 92
1, 41451, Note_off_c, 1, 53, 110
1, 41471, Note_off_c, 11, 41, 111
1, 41471, Note_on_c, 9, 42, 92
1, 41471, Note_on_c, 9, 69, 96
1, 41472, Note_on_c, 9, 36, 124
1, 41472, Note_on_c, 1, 38, 114
1, 41472, Note_off_c, 9, 42, 100
1, 41472, Note_on_c, 11, 50, 119
1, 41472, Note_on_c, 2, 57, 122
1, 41472, Note_on_c, 2, 62, 124
1, 41472, Note_on_c, 9, 63, 120
1, 41472, Note_on_c, 2, 65, 123
1, 41472, Note_off_c, 9, 69, 80
1, 41473, Note_off_c, 9, 36, 76
1, 41473, Note_off_c, 9, 63, 92
1, 41507, Note_off_c, 2, 57, 84
1, 41507, Note_off_c, 2, 62, 111
1, 41519, Note_off_c, 0, 67, 104
1, 41523, Note_off_c, 0, 62, 108
1, 41523, Note_off_c, 2, 65, 108
1, 41523, Note_on_c, 9, 69, 50
1, 41524, Note_off_c, 3, 84, 110
1, 41524, Note_off_c, 9, 69, 80
1, 41545, Note_off_c, 1, 38, 102
1, 41560, Note_off_c, 12, 62, 110
1, 41562, Note_off_c, 12, 67, 108
1, 41567, Note_on_c, 9, 42, 124
1, 41567, Note_on_c, 9, 69, 88
1, 41568, Note_off_c, 9, 42, 96
1, 41568, Note_on_c, 1, 50, 116
1, 41568, Note_on_c, 0, 57, 108
1, 41568, Note_on_c, 2, 57, 113
1, 41568, Note_on_c, 0, 60, 110
1, 41568, Note_on_c, 12, 60, 113
1, 41568, Note_on_c, 2, 62, 117
1, 41568, Note_on_c, 9, 63, 116
1, 41568, Note_on_c, 0, 65, 110
1, 41568, Note_on_c, 12, 65, 91
1, 41568, Note_off_c, 9, 69, 76
1, 41568, Note_on_c, 3, 81, 120
1, 41569, Note_off_c, 9, 63, 84
1, 41583, Note_off_c, 2, 62, 119
1, 41586, Note_off_c, 12, 65, 104
1, 41587, Note_off_c, 0, 60, 111
1, 41588, Note_off_c, 0, 65, 111
1, 41589, Note_off_c, 12, 60, 104
1, 41593, Note_off_c, 0, 57, 94
1, 41594, Note_off_c, 3, 81, 110
1, 41594, Note_off_c, 1, 50, 108
1, 41595, Note_off_c, 2, 57, 104
1, 41616, Note_on_c, 1, 50, 103
1, 41619, Note_on_c, 9, 69, 50
1, 41620, Note_off_c, 9, 69, 76
1, 41644, Note_off_c, 1, 50, 111
1, 41663, Note_on_c, 9, 42, 100
1, 41663, Note_on_c, 9, 69, 104
1, 41664, Note_on_c, 9, 36, 124
1, 41664, Note_on_c, 1, 38, 117
1, 41664, Note_on_c, 9, 40, 124
1, 41664, Note_off_c, 9, 42, 100
1, 41664, Note_on_c, 0, 57, 111
1, 41664, Note_on_c, 2, 57, 122
1, 41664, Note_on_c, 0, 60, 119
1, 41664, Note_on_c, 12, 60, 114
1, 41664, Note_on_c, 2, 62, 124
1, 41664, Note_on_c, 9, 62, 124
1, 41664, Note_on_c, 0, 65, 117
1, 41664, Note_on_c, 2, 65, 124
1, 41664, Note_on_c, 12, 65, 119
1, 41664, Note_off_c, 9, 69, 68
1, 41664, Note_on_c, 3, 77, 122
1, 41665, Note_off_c, 9, 36, 96
1, 41665, Note_off_c, 9, 40, 96
1, 41665, Note_off_c, 9, 62, 108
1, 41694, Note_off_c, 2, 57, 108
1, 41696, Note_off_c, 2, 62, 111
1, 41701, Note_off_c, 3, 77, 111
1, 41709, Note_off_c, 2, 65, 108
1, 41715, Note_on_c, 9, 69, 50
1, 41716, Note_off_c, 9, 69, 68
1, 41735, Note_off_c, 1, 38, 99
1, 41739, Note_off_c, 12, 60, 110
1, 41759, Note_on_c, 9, 42, 124
1, 41759, Note_on_c, 9, 69, 96
1, 41760, Note_off_c, 12, 65, 108
1, 41760, Note_off_c, 9, 42, 100
1, 41760, Note_on_c, 1, 50, 114
1, 41760, Note_on_c, 12, 57, 106
1, 41760, Note_on_c, 0, 62, 117
1, 41760, Note_on_c, 12, 62, 111
1, 41760, Note_on_c, 9, 64, 116
1, 41760, Note_off_c, 9, 69, 68
1, 41760, Note_on_c, 3, 74, 113
1, 41761, Note_off_c, 9, 64, 96
1, 41766, Note_off_c, 0, 57, 104
1, 41770, Note_off_c, 0, 60, 102
1, 41774, Note_off_c, 0, 65, 104
1, 41780, Note_off_c, 1, 50, 110
1, 41787, Note_off_c, 0, 62, 106
1, 41801, Note_off_c, 3, 74, 106
1, 41808, Note_on_c, 1, 50, 117
1, 41808, Note_on_c, 9, 64, 108
1, 41809, Note_off_c, 9, 64, 104
1, 41811, Note_on_c, 9, 69, 50
1, 41812, Note_off_c, 9, 69, 68
1, 41835, Note_off_c, 1, 50, 110
1, 41855, Note_on_c, 9, 42, 84
1, 41855, Note_on_c, 9, 69, 104
1, 41856, Note_on_c, 9, 36, 124
1, 41856, Note_on_c, 1, 38, 120
1, 41856, Note_off_c, 12, 57, 110
1, 41856, Note_off_c, 9, 42, 96
1, 41856, Note_on_c, 0, 57, 113
1, 41856, Note_on_c, 2, 57, 122
1, 41856, Note_on_c, 0, 60, 119
1, 41856, Note_on_c, 12, 60, 113
1, 41856, Note_on_c, 2, 62, 124
1, 41856, Note_on_c, 9, 63, 124
1, 41856, Note_on_c, 0, 65, 119
1, 41856, Note_on_c, 2, 65, 124
1, 41856, Note_on_c, 12, 65, 113
1, 41856, Note_off_c, 9, 69, 84
1, 41856, Note_on_c, 3, 77, 122
1, 41857, Note_off_c, 9, 36, 108
1, 41857, Note_off_c, 9, 63, 96
1, 41875, Note_off_c, 12, 62, 108
1, 41887, Note_off_c, 2, 57, 108
1, 41889, Note_off_c, 2, 62, 111
1, 41907, Note_on_c, 9, 69, 50
1, 41908, Note_off_c, 9, 69, 84
1, 41923, Note_off_c, 1, 38, 102
1, 41933, Note_off_c, 2, 65, 13
1, 41951, Note_on_c, 9, 42, 124
1, 41951, Note_on_c, 9, 69, 100
1, 41952, Note_off_c, 9, 42, 100
1, 41952, Note_on_c, 1, 50, 114
1, 41952, Note_on_c, 9, 63, 124
1, 41952, Note_off_c, 9, 69, 92
1, 41953, Note_off_c, 9, 63, 100
1, 41973, Note_off_c, 1, 50, 106
1, 42000, Note_on_c, 1, 50, 117
1, 42003, Note_on_c, 9, 69, 50
1, 42004, Note_on_c, 2, 57, 99
1, 42004, Note_off_c, 9, 69, 92
1, 42019, Note_off_c, 1, 50, 102
1, 42030, Note_off_c, 2, 57, 102
1, 42045, Note_off_c, 3, 77, 110
1, 42046, Note_off_c, 0, 57, 108
1, 42047, Note_on_c, 9, 42, 104
1, 42047, Note_off_c, 0, 60, 110
1, 42047, Note_off_c, 12, 65, 104
1, 42047, Note_on_c, 9, 69, 100
1, 42048, Note_on_c, 9, 36, 124
1, 42048, Note_on_c, 1, 38, 119
1, 42048, Note_on_c, 9, 40, 124
1, 42048, Note_off_c, 9, 42, 100
1, 42048, Note_on_c, 2, 57, 117
1, 42048, Note_on_c, 12, 57, 113
1, 42048, Note_on_c, 0, 62, 116
1, 42048, Note_on_c, 2, 62, 124
1, 42048, Note_on_c, 12, 62, 113
1, 42048, Note_on_c, 9, 62, 124
1, 42048, Note_on_c, 2, 65, 122
1, 42048, Note_off_c, 9, 69, 92
1, 42048, Note_on_c, 3, 74, 113
1, 42049, Note_off_c, 9, 36, 112
1, 42049, Note_off_c, 9, 40, 108
1, 42049, Note_off_c, 9, 62, 104
1, 42052, Note_off_c, 0, 65, 110
1, 42053, Note_off_c, 12, 60, 104
1, 42070, Note_off_c, 0, 62, 104
1, 42076, Note_off_c, 2, 57, 110
1, 42076, Note_off_c, 2, 62, 111
1, 42081, Note_off_c, 3, 74, 99
1, 42099, Note_on_c, 9, 69, 50
1, 42100, Note_off_c, 9, 69, 92
1, 42104, Note_off_c, 2, 65, 91
1, 42112, Note_off_c, 12, 62, 108
1, 42118, Note_off_c, 1, 38, 102
1, 42121, Note_off_c, 12, 57, 108
1, 42125, Pitch_bend_c, 12, 5760
1, 42132, Pitch_bend_c, 12, 2944
1, 42139, Note_on_c, 0, 61, 117
1, 42140, Pitch_bend_c, 12, 1280
1, 42142, Note_on_c, 0, 67, 114
1, 42143, Note_on_c, 9, 42, 124
1, 42143, Note_on_c, 9, 69, 100
1, 42144, Note_off_c, 9, 42, 100
1, 42144, Note_on_c, 1, 50, 116
1, 42144, Note_on_c, 12, 62, 117
1, 42144, Note_on_c, 9, 64, 112
1, 42144, Note_on_c, 12, 67, 116
1, 42144, Note_off_c, 9, 69, 92
1, 42144, Note_on_c, 3, 84, 120
1, 42145, Note_off_c, 9, 64, 104
1, 42148, Pitch_bend_c, 12, 2432
1, 42153, Note_on_c, 0, 62, 119
1, 42155, Pitch_bend_c, 12, 6400
1, 42158, Note_off_c, 0, 61, 111
1, 42163, Pitch_bend_c, 12, 7424
1, 42164, Note_off_c, 1, 50, 108
1, 42171, Pitch_bend_c, 12, 7808
1, 42178, Pitch_bend_c, 12, 8192
1, 42192, Note_on_c, 1, 50, 113
1, 42192, Note_on_c, 9, 64, 108
1, 42193, Note_off_c, 9, 64, 112
1, 42195, Note_on_c, 9, 69, 50
1, 42196, Note_off_c, 9, 69, 92
1, 42218, Note_off_c, 1, 50, 108
1, 42239, Note_on_c, 9, 42, 104
1, 42239, Note_on_c, 9, 69, 96
1, 42240, Note_on_c, 9, 36, 124
1, 42240, Note_on_c, 1, 38, 117
1, 42240, Note_off_c, 9, 42, 100
1, 42240, Note_on_c, 2, 57, 122
1, 42240, Note_on_c, 2, 62, 124
1, 42240, Note_on_c, 9, 63, 120
1, 42240, Note_on_c, 2, 65, 124
1, 42240, Note_off_c, 9, 69, 80
1, 42241, Note_off_c, 9, 36, 76
1, 42241, Note_off_c, 9, 63, 92
1, 42270, Note_off_c, 2, 62, 111
1, 42272, Note_off_c, 2, 57, 110
1, 42274, Note_off_c, 2, 65, 110
1, 42286, Note_off_c, 3, 84, 108
1, 42291, Note_on_c, 9, 69, 50
1, 42292, Note_off_c, 9, 69, 80
1, 42293, Note_off_c, 0, 67, 106
1, 42298, Note_off_c, 0, 62, 110
1, 42308, Note_off_c, 1, 38, 97
1, 42335, Note_on_c, 9, 42, 124
1, 42335, Note_off_c, 12, 62, 110
1, 42335, Note_off_c, 12, 67, 108
1, 42335, Note_on_c, 9, 69, 88
1, 42336, Note_off_c, 9, 42, 100
1, 42336, Note_on_c, 1, 50, 116
1, 42336, Note_on_c, 0, 57, 108
1, 42336, Note_on_c, 2, 57, 111
1, 42336, Note_on_c, 0, 60, 113
1, 42336, Note_on_c, 12, 60, 111
1, 42336, Note_on_c, 2, 62, 119
1, 42336, Note_on_c, 9, 63, 116
1, 42336, Note_on_c, 0, 65, 114
1, 42336, Note_on_c, 2, 65, 117
1, 42336, Note_on_c, 12, 65, 113
1, 42336, Note_off_c, 9, 69, 76
1, 42336, Note_on_c, 3, 81, 117
1, 42337, Note_off_c, 9, 63, 84
1, 42354, Note_off_c, 0, 60, 113
1, 42359, Note_off_c, 12, 60, 104
1, 42359, Note_off_c, 1, 50, 106
1, 42360, Note_off_c, 0, 57, 97
1, 42361, Note_off_c, 2, 57, 102
1, 42363, Note_off_c, 2, 62, 113
1, 42364, Note_off_c, 3, 81, 111
1, 42365, Note_off_c, 0, 65, 106
1, 42367, Note_off_c, 2, 65, 108
1, 42369, Note_off_c, 12, 65, 108
1, 42384, Note_on_c, 1, 50, 111
1, 42387, Note_on_c, 9, 69, 50
1, 42388, Note_off_c, 9, 69, 76
1, 42409, Note_off_c, 1, 50, 94
1, 42431, Note_on_c, 9, 42, 108
1, 42431, Note_on_c, 9, 69, 104
1, 42432, Note_on_c, 9, 36, 124
1, 42432, Note_on_c, 1, 38, 122
1, 42432, Note_on_c, 9, 40, 124
1, 42432, Note_off_c, 9, 42, 100
1, 42432, Note_on_c, 0, 57, 110
1, 42432, Note_on_c, 2, 57, 119
1, 42432, Note_on_c, 0, 60, 120
1, 42432, Note_on_c, 12, 60, 114
1, 42432, Note_on_c, 2, 62, 124
1, 42432, Note_on_c, 9, 62, 124
1, 42432, Note_on_c, 0, 65, 117
1, 42432, Note_on_c, 2, 65, 124
1, 42432, Note_on_c, 12, 65, 114
1, 42432, Note_off_c, 9, 69, 68
1, 42432, Note_on_c, 3, 77, 120
1, 42433, Note_off_c, 9, 36, 96
1, 42433, Note_off_c, 9, 40, 96
1, 42433, Note_off_c, 9, 62, 108
1, 42462, Note_off_c, 2, 57, 108
1, 42462, Note_off_c, 2, 62, 113
1, 42466, Note_off_c, 3, 77, 110
1, 42470, Note_off_c, 2, 65, 111
1, 42483, Note_on_c, 9, 69, 50
1, 42484, Note_off_c, 9, 69, 68
1, 42500, Note_off_c, 1, 38, 104
1, 42512, Note_off_c, 12, 60, 106
1, 42519, Note_off_c, 0, 57, 102
1, 42527, Note_on_c, 9, 42, 124
1, 42527, Note_on_c, 9, 69, 96
1, 42528, Note_off_c, 9, 42, 100
1, 42528, Note_on_c, 1, 50, 113
1, 42528, Note_on_c, 12, 57, 110
1, 42528, Note_on_c, 0, 62, 113
1, 42528, Note_on_c, 12, 62, 110
1, 42528, Note_on_c, 9, 64, 116
1, 42528, Note_off_c, 9, 69, 68
1, 42528, Note_on_c, 3, 74, 116
1, 42529, Note_off_c, 9, 64, 96
1, 42531, Note_off_c, 12, 65, 108
1, 42537, Note_off_c, 0, 60, 108
1, 42538, Note_off_c, 0, 65, 106
1, 42548, Note_off_c, 1, 50, 110
1, 42553, Note_off_c, 0, 62, 104
1, 42565, Note_off_c, 3, 74, 102
1, 42576, Note_on_c, 1, 50, 114
1, 42576, Note_on_c, 9, 64, 108
1, 42577, Note_off_c, 9, 64, 104
1, 42579, Note_on_c, 9, 69, 50
1, 42580, Note_off_c, 9, 69, 68
1, 42601, Note_off_c, 1, 50, 104
1, 42623, Note_on_c, 9, 42, 104
1, 42623, Note_on_c, 9, 69, 104
1, 42624, Note_on_c, 9, 36, 124
1, 42624, Note_on_c, 1, 38, 120
1, 42624, Note_off_c, 9, 42, 100
1, 42624, Note_on_c, 0, 57, 111
1, 42624, Note_on_c, 2, 57, 120
1, 42624, Note_on_c, 0, 60, 117
1, 42624, Note_on_c, 12, 60, 110
1, 42624, Note_on_c, 2, 62, 123
1, 42624, Note_on_c, 9, 63, 124
1, 42624, Note_on_c, 0, 65, 119
1, 42624, Note_on_c, 2, 65, 122
1, 42624, Note_on_c, 12, 65, 113
1, 42624, Note_off_c, 9, 69, 84
1, 42624, Note_on_c, 3, 77, 120
1, 42625, Note_off_c, 9, 36, 108
1, 42625, Note_off_c, 9, 63, 96
1, 42632, Note_off_c, 12, 57, 108
1, 42637, Note_off_c, 12, 62, 106
1, 42649, Note_off_c, 2, 62, 113
1, 42653, Note_off_c, 2, 57, 108
1, 42653, Note_off_c, 2, 65, 111
1, 42675, Note_on_c, 9, 69, 50
1, 42676, Note_off_c, 9, 69, 84
1, 42693, Note_off_c, 1, 38, 104
1, 42719, Note_on_c, 9, 42, 124
1, 42719, Note_on_c, 9, 69, 100
1, 42720, Note_off_c, 9, 42, 104
1, 42720, Note_on_c, 1, 50, 117
1, 42720, Note_on_c, 2, 57, 113
1, 42720, Note_on_c, 2, 62, 122
1, 42720, Note_on_c, 9, 63, 124
1, 42720, Note_on_c, 2, 65, 122
1, 42720, Note_off_c, 9, 69, 92
1, 42721, Note_off_c, 9, 63, 100
1, 42744, Note_off_c, 2, 57, 102
1, 42748, Note_off_c, 1, 50, 108
1, 42768, Note_on_c, 1, 50, 99
1, 42771, Note_on_c, 9, 69, 50
1, 42772, Note_on_c, 2, 57, 97
1, 42772, Note_off_c, 9, 69, 92
1, 42786, Note_off_c, 2, 65, 104
1, 42793, Note_off_c, 1, 50, 108
1, 42795, Note_off_c, 2, 62, 108
1, 42804, Note_off_c, 12, 65, 104
1, 42813, Note_off_c, 0, 60, 106
1, 42814, Note_off_c, 0, 57, 108
1, 42814, Note_off_c, 12, 60, 104
1, 42815, Note_on_c, 9, 42, 96
1, 42815, Note_on_c, 9, 69, 100
1, 42816, Note_on_c, 9, 36, 124
1, 42816, Note_on_c, 1, 38, 122
1, 42816, Note_on_c, 9, 40, 124
1, 42816, Note_off_c, 9, 42, 100
1, 42816, Note_on_c, 12, 57, 111
1, 42816, Note_on_c, 0, 62, 116
1, 42816, Note_on_c, 2, 62, 114
1, 42816, Note_on_c, 12, 62, 113
1, 42816, Note_on_c, 9, 62, 124
1, 42816, Note_on_c, 2, 65, 123
1, 42816, Note_off_c, 9, 69, 92
1, 42816, Note_on_c, 3, 74, 114
1, 42817, Note_off_c, 9, 36, 112
1, 42817, Note_off_c, 9, 40, 108
1, 42817, Note_off_c, 9, 62, 104
1, 42825, Note_off_c, 0, 65, 110
1, 42825, Note_off_c, 3, 77, 110
1, 42844, Note_off_c, 0, 62, 106
1, 42845, Note_off_c, 2, 57, 108
1, 42847, Note_off_c, 3, 74, 108
1, 42851, Note_off_c, 2, 62, 113
1, 42854, Note_off_c, 2, 65, 111
1, 42867, Note_on_c, 9, 69, 50
1, 42868, Note_off_c, 9, 69, 92
1, 42884, Note_off_c, 12, 57, 106
1, 42891, Note_off_c, 12, 62, 104
1, 42891, Note_off_c, 1, 38, 102
1, 42895, Pitch_bend_c, 12, 7168
1, 42904, Pitch_bend_c, 12, 4864
1, 42905, Note_on_c, 0, 61, 117
1, 42908, Note_on_c, 0, 67, 116
1, 42911, Pitch_bend_c, 12, 2304
1, 42911, Note_on_c, 9, 42, 124
1, 42911, Note_on_c, 9, 69, 100
1, 42912, Note_off_c, 9, 42, 104
1, 42912, Note_on_c, 1, 50, 114
1, 42912, Note_on_c, 12, 62, 117
1, 42912, Note_on_c, 9, 64, 112
1, 42912, Note_on_c, 12, 67, 114
1, 42912, Note_off_c, 9, 69, 92
1, 42912, Note_on_c, 3, 84, 120
1, 42913, Note_off_c, 9, 64, 104
1, 42918, Pitch_bend_c, 12, 896
1, 42922, Note_on_c, 0, 62, 116
1, 42925, Note_off_c, 0, 61, 110
1, 42925, Pitch_bend_c, 12, 5120
1, 42930, Note_off_c, 1, 50, 111
1, 42932, Pitch_bend_c, 12, 6912
1, 42939, Pitch_bend_c, 12, 7552
1, 42947, Pitch_bend_c, 12, 7936
1, 42955, Pitch_bend_c, 12, 8192
1, 42960, Note_on_c, 1, 50, 108
1, 42960, Note_on_c, 9, 64, 108
1, 42961, Note_off_c, 9, 64, 112
1, 42963, Note_on_c, 9, 69, 50
1, 42964, Note_off_c, 9, 69, 92
1, 42986, Note_off_c, 1, 50, 108
1, 43007, Note_on_c, 9, 42, 100
1, 43007, Note_off_c, 11, 50, 108
1, 43007, Note_on_c, 9, 69, 96
1, 43008, Note_on_c, 9, 36, 124
1, 43008, Note_on_c, 11, 41, 124
1, 43008, Note_on_c, 1, 41, 117
1, 43008, Note_off_c, 9, 42, 92
1, 43008, Note_on_c, 2, 57, 114
1, 43008, Note_on_c, 2, 60, 119
1, 43008, Note_on_c, 9, 63, 120
1, 43008, Note_on_c, 2, 65, 117
1, 43008, Note_off_c, 9, 69, 80
1, 43009, Note_off_c, 9, 36, 76
1, 43009, Note_off_c, 9, 63, 92
1, 43024, Note_off_c, 2, 60, 111
1, 43032, Note_off_c, 2, 57, 104
1, 43035, Note_off_c, 2, 65, 108
1, 43053, Note_off_c, 3, 84, 110
1, 43059, Note_off_c, 0, 67, 110
1, 43059, Note_on_c, 9, 69, 50
1, 43060, Note_off_c, 9, 69, 80
1, 43068, Note_off_c, 0, 62, 110
1, 43085, Note_off_c, 1, 41, 106
1, 43103, Note_on_c, 9, 42, 120
1, 43103, Note_on_c, 9, 69, 88
1, 43104, Note_off_c, 12, 67, 108
1, 43104, Note_off_c, 9, 42, 92
1, 43104, Note_on_c, 1, 53, 119
1, 43104, Note_on_c, 0, 57, 108
1, 43104, Note_on_c, 2, 57, 116
1, 43104, Note_on_c, 0, 60, 114
1, 43104, Note_on_c, 2, 60, 116
1, 43104, Note_on_c, 12, 60, 114
1, 43104, Note_on_c, 9, 63, 116
1, 43104, Note_on_c, 0, 65, 111
1, 43104, Note_on_c, 2, 65, 110
1, 43104, Note_on_c, 12, 65, 113
1, 43104, Note_off_c, 9, 69, 76
1, 43104, Note_on_c, 3, 81, 117
1, 43105, Note_off_c, 12, 62, 111
1, 43105, Note_off_c, 9, 63, 84
1, 43118, Note_off_c, 2, 60, 116
1, 43127, Note_off_c, 0, 60, 106
1, 43127, Note_off_c, 2, 65, 108
1, 43129, Note_off_c, 0, 65, 97
1, 43130, Note_off_c, 0, 57, 91
1, 43131, Note_off_c, 2, 57, 104
1, 43133, Note_off_c, 1, 53, 111
1, 43134, Note_off_c, 12, 60, 111
1, 43134, Note_off_c, 3, 81, 108
1, 43135, Note_off_c, 12, 65, 99
1, 43152, Note_on_c, 1, 53, 101
1, 43155, Note_on_c, 9, 69, 50
1, 43156, Note_off_c, 9, 69, 76
1, 43182, Note_off_c, 1, 53, 111
1, 43199, Note_on_c, 9, 42, 124
1, 43199, Note_on_c, 9, 69, 104
1, 43200, Note_on_c, 9, 36, 124
1, 43200, Note_on_c, 9, 40, 124
1, 43200, Note_on_c, 1, 41, 122
1, 43200, Note_off_c, 9, 42, 96
1, 43200, Note_on_c, 0, 57, 110
1, 43200, Note_on_c, 2, 57, 119
1, 43200, Note_on_c, 0, 60, 116
1, 43200, Note_on_c, 2, 60, 123
1, 43200, Note_on_c, 12, 60, 111
1, 43200, Note_on_c, 9, 62, 124
1, 43200, Note_on_c, 0, 65, 116
1, 43200, Note_on_c, 2, 65, 122
1, 43200, Note_on_c, 12, 65, 117
1, 43200, Note_off_c, 9, 69, 68
1, 43200, Note_on_c, 3, 77, 120
1, 43201, Note_off_c, 9, 36, 96
1, 43201, Note_off_c, 9, 40, 96
1, 43201, Note_off_c, 9, 62, 108
1, 43235, Note_off_c, 3, 77, 111
1, 43251, Note_on_c, 9, 69, 50
1, 43252, Note_off_c, 9, 69, 68
1, 43269, Note_off_c, 2, 57, 106
1, 43272, Note_off_c, 2, 60, 111
1, 43272, Note_off_c, 2, 65, 110
1, 43276, Note_off_c, 1, 41, 110
1, 43286, Note_off_c, 12, 60, 106
1, 43293, Note_off_c, 0, 57, 102
1, 43295, Note_on_c, 9, 42, 124
1, 43295, Note_on_c, 9, 69, 96
1, 43296, Note_off_c, 9, 42, 100
1, 43296, Note_on_c, 1, 53, 114
1, 43296, Note_on_c, 12, 57, 108
1, 43296, Note_on_c, 0, 62, 116
1, 43296, Note_on_c, 12, 62, 111
1, 43296, Note_on_c, 9, 64, 116
1, 43296, Note_off_c, 9, 69, 68
1, 43296, Note_on_c, 3, 74, 116
1, 43297, Note_off_c, 9, 64, 96
1, 43302, Note_off_c, 0, 60, 106
1, 43305, Note_off_c, 12, 65, 102
1, 43307, Note_off_c, 0, 65, 104
1, 43318, Note_off_c, 1, 53, 106
1, 43326, Note_off_c, 0, 62, 110
1, 43333, Note_off_c, 3, 74, 108
1, 43344, Note_on_c, 1, 53, 114
1, 43344, Note_on_c, 9, 64, 108
1, 43345, Note_off_c, 9, 64, 104
1, 43347, Note_on_c, 9, 69, 50
1, 43348, Note_off_c, 9, 69, 68
1, 43367, Note_off_c, 1, 53, 104
1, 43391, Note_on_c, 9, 42, 76
1, 43391, Note_on_c, 9, 69, 104
1, 43392, Note_on_c, 9, 36, 124
1, 43392, Note_on_c, 1, 41, 119
1, 43392, Note_off_c, 9, 42, 100
1, 43392, Note_on_c, 0, 57, 111
1, 43392, Note_on_c, 2, 57, 113
1, 43392, Note_on_c, 0, 60, 116
1, 43392, Note_on_c, 2, 60, 122
1, 43392, Note_on_c, 12, 60, 113
1, 43392, Note_on_c, 9, 63, 124
1, 43392, Note_on_c, 0, 65, 116
1, 43392, Note_on_c, 2, 65, 120
1, 43392, Note_on_c, 12, 65, 97
1, 43392, Note_off_c, 9, 69, 84
1, 43392, Note_on_c, 3, 77, 120
1, 43393, Note_off_c, 12, 57, 108
1, 43393, Note_off_c, 9, 36, 108
1, 43393, Note_off_c, 9, 63, 96
1, 43408, Note_off_c, 12, 62, 108
1, 43443, Note_on_c, 9, 69, 50
1, 43444, Note_off_c, 9, 69, 84
1, 43468, Note_off_c, 1, 41, 110
1, 43487, Note_on_c, 9, 42, 124
1, 43487, Note_on_c, 9, 69, 100
1, 43488, Note_off_c, 9, 42, 100
1, 43488, Note_on_c, 1, 53, 114
1, 43488, Note_on_c, 9, 63, 124
1, 43488, Note_off_c, 9, 69, 92
1, 43489, Note_off_c, 9, 63, 100
1, 43491, Note_off_c, 2, 57, 71
1, 43510, Note_off_c, 1, 53, 106
1, 43516, Note_off_c, 2, 65, 66
1, 43536, Note_on_c, 1, 53, 113
1, 43539, Note_on_c, 9, 69, 50
1, 43540, Note_on_c, 2, 57, 102
1, 43540, Note_off_c, 9, 69, 92
1, 43546, Note_off_c, 2, 60, 66
1, 43561, Note_off_c, 12, 65, 104
1, 43561, Note_off_c, 1, 53, 106
1, 43579, Note_off_c, 12, 60, 102
1, 43582, Note_off_c, 0, 60, 108
1, 43583, Note_on_c, 9, 42, 84
1, 43583, Note_on_c, 9, 69, 100
1, 43584, Note_on_c, 9, 36, 124
1, 43584, Note_on_c, 9, 40, 124
1, 43584, Note_on_c, 1, 41, 120
1, 43584, Note_off_c, 9, 42, 96
1, 43584, Note_on_c, 2, 60, 122
1, 43584, Note_on_c, 0, 62, 113
1, 43584, Note_on_c, 12, 62, 116
1, 43584, Note_on_c, 9, 62, 124
1, 43584, Note_on_c, 2, 65, 120
1, 43584, Note_on_c, 12, 67, 116
1, 43584, Note_off_c, 9, 69, 92
1, 43584, Note_on_c, 3, 74, 113
1, 43585, Note_off_c, 0, 57, 106
1, 43585, Note_off_c, 9, 36, 112
1, 43585, Note_off_c, 9, 40, 108
1, 43585, Note_off_c, 9, 62, 104
1, 43588, Note_off_c, 0, 65, 108
1, 43592, Note_off_c, 3, 77, 111
1, 43604, Note_off_c, 0, 62, 102
1, 43608, Note_off_c, 2, 65, 108
1, 43623, Note_off_c, 2, 60, 108
1, 43633, Note_off_c, 2, 57, 102
1, 43635, Note_on_c, 9, 69, 50
1, 43636, Note_off_c, 9, 69, 92
1, 43638, Note_off_c, 3, 74, 102
1, 43661, Note_off_c, 1, 41, 111
1, 43679, Note_on_c, 9, 42, 124
1, 43679, Note_on_c, 9, 69, 100
1, 43680, Note_off_c, 9, 42, 100
1, 43680, Note_on_c, 1, 53, 114
1, 43680, Note_on_c, 0, 60, 111
1, 43680, Note_on_c, 12, 60, 113
1, 43680, Note_on_c, 9, 64, 112
1, 43680, Note_on_c, 0, 65, 113
1, 43680, Note_on_c, 12, 65, 113
1, 43680, Note_off_c, 9, 69, 92
1, 43680, Note_on_c, 0, 69, 117
1, 43680, Note_on_c, 12, 69, 106
1, 43680, Note_on_c, 3, 81, 120
1, 43681, Note_off_c, 9, 64, 104
1, 43683, Note_off_c, 12, 62, 106
1, 43683, Note_off_c, 12, 67, 106
1, 43702, Note_off_c, 1, 53, 106
1, 43728, Note_on_c, 1, 53, 119
1, 43728, Note_on_c, 9, 64, 108
1, 43729, Note_off_c, 9, 64, 112
1, 43731, Note_on_c, 9, 69, 50
1, 43732, Note_off_c, 9, 69, 92
1, 43753, Note_off_c, 1, 53, 104
1, 43775, Note_on_c, 9, 42, 92
1, 43775, Note_on_c, 9, 69, 96
1, 43776, Note_on_c, 9, 36, 124
1, 43776, Note_on_c, 1, 41, 120
1, 43776, Note_off_c, 9, 42, 100
1, 43776, Note_on_c, 2, 57, 108
1, 43776, Note_on_c, 2, 60, 119
1, 43776, Note_on_c, 9, 63, 120
1, 43776, Note_on_c, 2, 65, 117
1, 43776, Note_off_c, 9, 69, 80
1, 43777, Note_off_c, 9, 36, 76
1, 43777, Note_off_c, 9, 63, 92
1, 43803, Note_off_c, 2, 57, 104
1, 43805, Note_off_c, 2, 60, 111
1, 43808, Note_off_c, 2, 65, 110
1, 43827, Note_on_c, 9, 69, 50
1, 43828, Note_off_c, 9, 69, 80
1, 43851, Note_off_c, 1, 41, 111
1, 43871, Note_on_c, 9, 42, 124
1, 43871, Note_on_c, 9, 69, 88
1, 43872, Note_off_c, 9, 42, 96
1, 43872, Note_on_c, 1, 53, 114
1, 43872, Note_on_c, 2, 57, 113
1, 43872, Note_on_c, 2, 60, 120
1, 43872, Note_on_c, 9, 63, 116
1, 43872, Note_on_c, 2, 65, 117
1, 43872, Note_off_c, 9, 69, 76
1, 43873, Note_off_c, 9, 63, 84
1, 43891, Note_off_c, 1, 53, 108
1, 43895, Note_off_c, 2, 60, 108
1, 43898, Note_off_c, 2, 57, 106
1, 43901, Note_off_c, 2, 65, 102
1, 43920, Note_on_c, 1, 53, 117
1, 43923, Note_on_c, 9, 69, 50
1, 43924, Note_off_c, 9, 69, 76
1, 43942, Note_off_c, 1, 53, 94
1, 43967, Note_off_c, 11, 41, 111
1, 43967, Note_on_c, 9, 42, 112
1, 43967, Note_on_c, 9, 69, 104
1, 43968, Note_on_c, 9, 36, 124
1, 43968, Note_on_c, 9, 40, 124
1, 43968, Note_off_c, 9, 42, 100
1, 43968, Note_on_c, 11, 43, 119
1, 43968, Note_on_c, 1, 43, 117
1, 43968, Note_on_c, 2, 57, 116
1, 43968, Note_on_c, 2, 60, 122
1, 43968, Note_on_c, 9, 62, 124
1, 43968, Note_on_c, 2, 65, 120
1, 43968, Note_off_c, 9, 69, 68
1, 43969, Note_off_c, 9, 36, 96
1, 43969, Note_off_c, 9, 40, 96
1, 43969, Note_off_c, 9, 62, 108
1, 43975, Note_off_c, 3, 81, 108
1, 44019, Note_on_c, 9, 69, 50
1, 44020, Note_off_c, 9, 69, 68
1, 44041, Note_off_c, 2, 65, 110
1, 44044, Note_off_c, 2, 60, 97
1, 44048, Note_off_c, 1, 43, 106
1, 44050, Note_off_c, 2, 57, 104
1, 44063, Note_on_c, 9, 42, 124
1, 44063, Note_on_c, 9, 69, 96
1, 44064, Note_off_c, 9, 42, 100
1, 44064, Note_on_c, 1, 55, 116
1, 44064, Note_on_c, 9, 64, 116
1, 44064, Note_off_c, 9, 69, 68
1, 44065, Note_off_c, 9, 64, 96
1, 44085, Note_off_c, 1, 55, 99
1, 44112, Note_on_c, 1, 55, 114
1, 44112, Note_on_c, 9, 64, 108
1, 44113, Note_off_c, 9, 64, 104
1, 44115, Note_on_c, 9, 69, 50
1, 44116, Note_off_c, 9, 69, 68
1, 44138, Note_off_c, 1, 55, 111
1, 44159, Note_on_c, 9, 42, 88
1, 44159, Note_off_c, 11, 43, 104
1, 44159, Note_on_c, 9, 69, 104
1, 44160, Note_on_c, 9, 36, 124
1, 44160, Note_off_c, 9, 42, 100
1, 44160, Note_on_c, 11, 45, 117
1, 44160, Note_on_c, 1, 45, 122
1, 44160, Note_on_c, 2, 57, 117
1, 44160, Note_on_c, 2, 60, 122
1, 44160, Note_on_c, 9, 63, 124
1, 44160, Note_on_c, 2, 65, 122
1, 44160, Note_off_c, 9, 69, 84
1, 44161, Note_off_c, 9, 36, 108
1, 44161, Note_off_c, 9, 63, 96
1, 44211, Note_on_c, 9, 69, 50
1, 44212, Note_off_c, 9, 69, 84
1, 44234, Note_off_c, 1, 45, 106
1, 44255, Note_on_c, 9, 46, 124
1, 44255, Note_on_c, 9, 69, 100
1, 44256, Note_off_c, 9, 46, 100
1, 44256, Note_on_c, 1, 57, 116
1, 44256, Note_on_c, 9, 63, 124
1, 44256, Note_off_c, 9, 69, 92
1, 44257, Note_off_c, 9, 63, 100
1, 44260, Note_off_c, 2, 57, 84
1, 44281, Note_off_c, 1, 57, 94
1, 44286, Note_off_c, 2, 65, 71
1, 44304, Note_on_c, 1, 57, 108
1, 44307, Note_on_c, 9, 69, 50
1, 44308, Note_on_c, 2, 57, 97
1, 44308, Note_off_c, 9, 69, 92
1, 44322, Note_off_c, 2, 60, 13
1, 44330, Note_off_c, 1, 57, 110
1, 44335, Note_off_c, 2, 57, 97
1, 44337, Note_off_c, 12, 69, 106
1, 44343, Note_off_c, 12, 60, 108
1, 44343, Note_off_c, 12, 65, 106
1, 44347, Note_off_c, 0, 65, 110
1, 44348, Note_off_c, 0, 60, 111
1, 44351, Note_on_c, 9, 44, 89
1, 44351, Note_off_c, 11, 45, 108
1, 44351, Note_on_c, 9, 69, 100
1, 44352, Note_on_c, 9, 36, 124
1, 44352, Note_on_c, 9, 40, 80
1, 44352, Note_on_c, 11, 41, 122
1, 44352, Note_on_c, 1, 41, 122
1, 44352, Note_off_c, 9, 44, 100
1, 44352, Note_on_c, 2, 57, 113
1, 44352, Note_on_c, 2, 60, 117
1, 44352, Note_on_c, 9, 62, 124
1, 44352, Note_on_c, 2, 65, 120
1, 44352, Note_off_c, 9, 69, 92
1, 44353, Note_off_c, 9, 36, 112
1, 44353, Note_off_c, 9, 40, 108
1, 44353, Note_off_c, 9, 62, 104
1, 44354, Note_off_c, 0, 69, 108
1, 44371, Note_off_c, 2, 65, 108
1, 44372, Note_off_c, 2, 60, 110
1, 44385, Note_off_c, 2, 57, 104
1, 44400, Note_on_c, 9, 40, 105
1, 44401, Note_off_c, 9, 40, 108
1, 44403, Note_on_c, 9, 69, 50
1, 44404, Note_off_c, 9, 69, 92
1, 44429, Note_off_c, 1, 41, 110
1, 44441, Pitch_bend_c, 12, 8064
1, 44447, Note_on_c, 9, 69, 100
1, 44448, Note_on_c, 9, 40, 124
1, 44448, Note_on_c, 1, 53, 113
1, 44448, Note_on_c, 9, 64, 112
1, 44448, Note_off_c, 9, 69, 92
1, 44448, Note_on_c, 2, 57, 79
1, 44448, Note_on_c, 0, 61, 120
1, 44448, Note_off_c, 0, 61, 117
1, 44448, Note_on_c, 2, 62, 87
1, 44448, Pitch_bend_c, 12, 7680
1, 44448, Note_on_c, 12, 62, 120
1, 44448, Note_on_c, 12, 67, 119
1, 44449, Note_off_c, 9, 40, 108
1, 44449, Note_off_c, 9, 64, 104
1, 44449, Note_off_c, 2, 57, 104
1, 44449, Note_off_c, 2, 62, 104
1, 44453, Note_on_c, 0, 67, 114
1, 44455, Pitch_bend_c, 12, 4096
1, 44458, Note_on_c, 0, 62, 120
1, 44462, Pitch_bend_c, 12, 2176
1, 44469, Note_off_c, 1, 53, 108
1, 44469, Note_on_c, 0, 61, 99
1, 44469, Pitch_bend_c, 12, 1024
1, 44479, Pitch_bend_c, 12, 4864
1, 44480, Note_on_c, 2, 57, 115
1, 44480, Note_on_c, 2, 57, 108
1, 44480, Note_off_c, 2, 57, 114
1, 44481, Note_off_c, 0, 61, 91
1, 44483, Note_off_c, 2, 57, 106
1, 44486, Pitch_bend_c, 12, 6784
1, 44493, Pitch_bend_c, 12, 7552
1, 44496, Note_on_c, 1, 53, 114
1, 44496, Note_on_c, 9, 64, 108
1, 44497, Note_off_c, 9, 64, 112
1, 44499, Note_on_c, 9, 69, 50
1, 44500, Note_off_c, 9, 69, 92
1, 44500, Pitch_bend_c, 12, 7936
1, 44507, Pitch_bend_c, 12, 8192
1, 44512, Note_on_c, 2, 62, 113
1, 44512, Note_on_c, 2, 62, 107
1, 44512, Note_off_c, 2, 62, 114
1, 44516, Note_off_c, 2, 62, 106
1, 44523, Note_off_c, 1, 53, 111
1, 44543, Note_off_c, 11, 41, 113
1, 44543, Note_on_c, 9, 69, 96
1, 44544, Note_on_c, 9, 36, 124
1, 44544, Note_on_c, 1, 38, 116
1, 44544, Note_on_c, 9, 49, 124
1, 44544, Note_on_c, 11, 50, 116
1, 44544, Note_on_c, 2, 57, 122
1, 44544, Note_on_c, 2, 62, 124
1, 44544, Note_on_c, 6, 62, 90
1, 44544, Note_on_c, 9, 63, 120
1, 44544, Note_on_c, 2, 65, 123
1, 44544, Note_off_c, 9, 69, 80
1, 44545, Note_off_c, 9, 36, 76
1, 44545, Note_off_c, 9, 49, 100
1, 44545, Note_off_c, 9, 63, 92
1, 44579, Note_off_c, 2, 57, 84
1, 44579, Note_off_c, 2, 62, 111
1, 44595, Note_off_c, 2, 65, 108
1, 44595, Note_on_c, 9, 69, 50
1, 44596, Note_off_c, 9, 69, 80
1, 44609, Note_off_c, 1, 38, 94
1, 44615, Note_off_c, 12, 62, 108
1, 44615, Note_off_c, 12, 67, 108
1, 44639, Note_off_c, 0, 67, 104
1, 44639, Note_on_c, 9, 69, 88
1, 44640, Note_on_c, 1, 50, 114
1, 44640, Note_on_c, 0, 57, 79
1, 44640, Note_on_c, 2, 57, 113
1, 44640, Note_on_c, 0, 60, 86
1, 44640, Note_on_c, 12, 60, 110
1, 44640, Note_on_c, 2, 62, 117
1, 44640, Note_on_c, 9, 63, 116
1, 44640, Note_on_c, 0, 65, 88
1, 44640, Note_on_c, 12, 65, 110
1, 44640, Note_off_c, 9, 69, 76
1, 44641, Note_off_c, 9, 63, 84
1, 44643, Note_off_c, 0, 62, 108
1, 44655, Note_off_c, 2, 62, 119
1, 44656, Note_off_c, 1, 50, 116
1, 44659, Note_off_c, 0, 60, 111
1, 44660, Note_off_c, 0, 65, 111
1, 44663, Note_off_c, 12, 60, 102
1, 44665, Note_off_c, 0, 57, 94
1, 44666, Note_off_c, 12, 65, 94
1, 44667, Note_off_c, 2, 57, 104
1, 44688, Note_on_c, 1, 50, 117
1, 44691, Note_on_c, 9, 69, 50
1, 44692, Note_off_c, 9, 69, 76
1, 44708, Note_off_c, 1, 50, 102
1, 44735, Note_on_c, 9, 42, 7
1, 44735, Note_on_c, 9, 69, 104
1, 44736, Note_on_c, 9, 36, 124
1, 44736, Note_on_c, 1, 38, 117
1, 44736, Note_on_c, 9, 40, 124
1, 44736, Note_off_c, 9, 42, 88
1, 44736, Note_on_c, 2, 57, 122
1, 44736, Note_on_c, 12, 60, 113
1, 44736, Note_on_c, 2, 62, 124
1, 44736, Note_on_c, 9, 62, 124
1, 44736, Note_on_c, 0, 65, 119
1, 44736, Note_on_c, 2, 65, 124
1, 44736, Note_on_c, 12, 65, 113
1, 44736, Note_off_c, 9, 69, 68
1, 44736, Note_on_c, 0, 69, 124
1, 44736, Note_on_c, 0, 74, 120
1, 44736, Note_on_c, 6, 74, 119
1, 44737, Note_off_c, 9, 36, 96
1, 44737, Note_off_c, 9, 40, 96
1, 44737, Note_off_c, 9, 62, 108
1, 44766, Note_off_c, 2, 57, 108
1, 44768, Note_off_c, 2, 62, 111
1, 44781, Note_off_c, 2, 65, 108
1, 44787, Note_on_c, 9, 69, 50
1, 44788, Note_off_c, 9, 69, 68
1, 44805, Note_off_c, 1, 38, 97
1, 44831, Note_on_c, 9, 42, 112
1, 44831, Note_off_c, 12, 60, 104
1, 44831, Note_on_c, 9, 69, 96
1, 44832, Note_off_c, 9, 42, 88
1, 44832, Note_on_c, 1, 50, 114
1, 44832, Note_on_c, 12, 57, 104
1, 44832, Note_on_c, 12, 62, 111
1, 44832, Note_on_c, 9, 64, 116
1, 44832, Note_off_c, 9, 69, 68
1, 44833, Note_off_c, 9, 64, 96
1, 44849, Note_off_c, 1, 50, 114
1, 44858, Note_off_c, 12, 65, 97
1, 44880, Note_on_c, 1, 50, 114
1, 44880, Note_on_c, 9, 64, 108
1, 44881, Note_off_c, 9, 64, 104
1, 44883, Note_on_c, 9, 69, 50
1, 44884, Note_off_c, 9, 69, 68
1, 44901, Note_off_c, 1, 50, 94
1, 44917, Note_off_c, 0, 69, 106
1, 44924, Note_off_c, 0, 74, 108
1, 44927, Note_on_c, 9, 42, 52
1, 44927, Note_off_c, 0, 65, 110
1, 44927, Note_on_c, 9, 69, 104
1, 44928, Note_on_c, 9, 36, 124
1, 44928, Note_on_c, 1, 38, 122
1, 44928, Note_off_c, 9, 42, 92
1, 44928, Note_on_c, 2, 57, 122
1, 44928, Note_on_c, 12, 60, 106
1, 44928, Note_on_c, 2, 62, 124
1, 44928, Note_on_c, 9, 63, 124
1, 44928, Note_on_c, 2, 65, 124
1, 44928, Note_on_c, 12, 65, 111
1, 44928, Note_off_c, 9, 69, 84
1, 44928, Note_on_c, 0, 69, 120
1, 44928, Note_on_c, 0, 74, 120
1, 44928, Note_on_c, 0, 77, 120
1, 44928, Note_on_c, 6, 77, 120
1, 44929, Note_off_c, 9, 36, 108
1, 44929, Note_off_c, 9, 63, 96
1, 44933, Note_off_c, 6, 74, 110
1, 44933, Note_off_c, 12, 57, 108
1, 44945, Note_off_c, 12, 62, 97
1, 44959, Note_off_c, 2, 57, 108
1, 44961, Note_off_c, 2, 62, 111
1, 44979, Note_on_c, 9, 69, 50
1, 44980, Note_off_c, 9, 69, 84
1, 44993, Note_off_c, 1, 38, 97
1, 45005, Note_off_c, 2, 65, 13
1, 45023, Note_on_c, 9, 42, 124
1, 45023, Note_on_c, 9, 69, 100
1, 45024, Note_off_c, 9, 42, 92
1, 45024, Note_on_c, 1, 50, 113
1, 45024, Note_on_c, 9, 63, 124
1, 45024, Note_off_c, 9, 69, 92
1, 45025, Note_off_c, 9, 63, 100
1, 45041, Note_off_c, 1, 50, 113
1, 45072, Note_on_c, 1, 50, 108
1, 45075, Note_on_c, 9, 69, 50
1, 45076, Note_on_c, 2, 57, 99
1, 45076, Note_off_c, 9, 69, 92
1, 45096, Note_off_c, 1, 50, 97
1, 45102, Note_off_c, 2, 57, 102
1, 45112, Note_off_c, 12, 60, 104
1, 45115, Note_off_c, 12, 65, 106
1, 45117, Note_off_c, 0, 69, 106
1, 45117, Note_off_c, 0, 77, 111
1, 45118, Note_off_c, 0, 74, 102
1, 45119, Note_on_c, 9, 42, 84
1, 45119, Note_on_c, 9, 69, 100
1, 45120, Note_on_c, 9, 36, 124
1, 45120, Note_on_c, 1, 38, 117
1, 45120, Note_on_c, 9, 40, 124
1, 45120, Note_off_c, 6, 77, 106
1, 45120, Note_off_c, 9, 42, 96
1, 45120, Note_on_c, 2, 57, 117
1, 45120, Note_on_c, 12, 57, 114
1, 45120, Note_on_c, 2, 62, 124
1, 45120, Note_on_c, 12, 62, 104
1, 45120, Note_on_c, 9, 62, 124
1, 45120, Note_on_c, 2, 65, 122
1, 45120, Note_off_c, 9, 69, 92
1, 45120, Note_on_c, 0, 74, 116
1, 45120, Note_on_c, 0, 77, 122
1, 45120, Note_on_c, 0, 81, 120
1, 45120, Note_on_c, 6, 81, 119
1, 45121, Note_off_c, 9, 36, 112
1, 45121, Note_off_c, 9, 40, 108
1, 45121, Note_off_c, 9, 62, 104
1, 45146, Note_off_c, 12, 62, 94
1, 45148, Note_off_c, 2, 57, 110
1, 45148, Note_off_c, 2, 62, 111
1, 45171, Note_on_c, 9, 69, 50
1, 45172, Note_off_c, 9, 69, 92
1, 45176, Note_off_c, 2, 65, 91
1, 45180, Note_off_c, 12, 57, 99
1, 45185, Pitch_bend_c, 12, 7808
1, 45190, Note_off_c, 1, 38, 102
1, 45195, Pitch_bend_c, 12, 6400
1, 45202, Pitch_bend_c, 12, 3584
1, 45209, Pitch_bend_c, 12, 1792
1, 45215, Note_on_c, 9, 42, 124
1, 45215, Note_on_c, 9, 69, 100
1, 45216, Note_off_c, 9, 42, 96
1, 45216, Note_on_c, 1, 50, 116
1, 45216, Note_on_c, 12, 62, 119
1, 45216, Note_on_c, 9, 64, 112
1, 45216, Note_on_c, 12, 67, 116
1, 45216, Note_off_c, 9, 69, 92
1, 45217, Note_off_c, 9, 64, 104
1, 45218, Pitch_bend_c, 12, 1280
1, 45229, Pitch_bend_c, 12, 5888
1, 45234, Note_off_c, 1, 50, 113
1, 45236, Pitch_bend_c, 12, 7424
1, 45243, Pitch_bend_c, 12, 7808
1, 45252, Pitch_bend_c, 12, 8192
1, 45264, Note_on_c, 1, 50, 119
1, 45264, Note_on_c, 9, 64, 108
1, 45265, Note_off_c, 9, 64, 112
1, 45267, Note_on_c, 9, 69, 50
1, 45268, Note_off_c, 9, 69, 92
1, 45282, Note_off_c, 1, 50, 97
1, 45306, Note_off_c, 0, 77, 111
1, 45306, Note_off_c, 0, 81, 110
1, 45311, Note_on_c, 9, 42, 76
1, 45311, Note_on_c, 9, 69, 96
1, 45311, Note_off_c, 0, 74, 110
1, 45312, Note_on_c, 9, 36, 124
1, 45312, Note_on_c, 1, 38, 120
1, 45312, Note_off_c, 9, 42, 100
1, 45312, Note_on_c, 2, 57, 122
1, 45312, Note_on_c, 2, 62, 124
1, 45312, Note_on_c, 9, 63, 120
1, 45312, Note_on_c, 2, 65, 124
1, 45312, Note_off_c, 9, 69, 80
1, 45312, Note_on_c, 0, 77, 119
1, 45312, Note_on_c, 0, 81, 122
1, 45312, Note_on_c, 0, 84, 122
1, 45312, Note_on_c, 6, 84, 122
1, 45313, Note_off_c, 9, 36, 76
1, 45313, Note_off_c, 9, 63, 92
1, 45314, Note_off_c, 6, 81, 110
1, 45342, Note_off_c, 2, 62, 111
1, 45344, Note_off_c, 2, 57, 110
1, 45346, Note_off_c, 2, 65, 110
1, 45363, Note_on_c, 9, 69, 50
1, 45364, Note_off_c, 9, 69, 80
1, 45377, Note_off_c, 1, 38, 102
1, 45407, Note_on_c, 9, 42, 124
1, 45407, Note_on_c, 9, 69, 88
1, 45408, Note_off_c, 9, 42, 100
1, 45408, Note_on_c, 1, 50, 116
1, 45408, Note_on_c, 2, 57, 111
1, 45408, Note_on_c, 12, 60, 113
1, 45408, Note_on_c, 2, 62, 119
1, 45408, Note_on_c, 9, 63, 116
1, 45408, Note_on_c, 2, 65, 117
1, 45408, Note_on_c, 12, 65, 111
1, 45408, Note_off_c, 9, 69, 76
1, 45409, Note_off_c, 9, 63, 84
1, 45415, Note_off_c, 12, 62, 108
1, 45421, Note_off_c, 12, 67, 108
1, 45426, Note_off_c, 1, 50, 111
1, 45428, Note_off_c, 12, 60, 99
1, 45432, Note_off_c, 12, 65, 97
1, 45433, Note_off_c, 2, 57, 102
1, 45435, Note_off_c, 2, 62, 113
1, 45439, Note_off_c, 2, 65, 108
1, 45456, Note_on_c, 1, 50, 120
1, 45459, Note_on_c, 9, 69, 50
1, 45460, Note_off_c, 9, 69, 76
1, 45471, Note_off_c, 1, 50, 111
1, 45503, Note_on_c, 9, 42, 80
1, 45503, Note_on_c, 9, 69, 104
1, 45504, Note_on_c, 9, 36, 124
1, 45504, Note_on_c, 1, 38, 122
1, 45504, Note_on_c, 9, 40, 124
1, 45504, Note_off_c, 9, 42, 96
1, 45504, Note_on_c, 2, 57, 119
1, 45504, Note_on_c, 12, 60, 113
1, 45504, Note_on_c, 2, 62, 124
1, 45504, Note_on_c, 9, 62, 124
1, 45504, Note_on_c, 2, 65, 124
1, 45504, Note_on_c, 12, 65, 114
1, 45504, Note_off_c, 9, 69, 68
1, 45505, Note_off_c, 9, 36, 96
1, 45505, Note_off_c, 9, 40, 96
1, 45505, Note_off_c, 9, 62, 108
1, 45534, Note_off_c, 2, 57, 108
1, 45534, Note_off_c, 2, 62, 113
1, 45542, Note_off_c, 2, 65, 111
1, 45555, Note_on_c, 9, 69, 50
1, 45556, Note_off_c, 9, 69, 68
1, 45577, Note_off_c, 1, 38, 102
1, 45592, Note_off_c, 12, 60, 108
1, 45599, Note_on_c, 9, 42, 124
1, 45599, Note_on_c, 9, 69, 96
1, 45600, Note_off_c, 9, 42, 96
1, 45600, Note_on_c, 1, 50, 116
1, 45600, Note_on_c, 12, 57, 106
1, 45600, Note_on_c, 12, 62, 108
1, 45600, Note_on_c, 9, 64, 116
1, 45600, Note_off_c, 9, 69, 68
1, 45601, Note_off_c, 9, 64, 96
1, 45617, Note_off_c, 1, 50, 113
1, 45623, Note_off_c, 12, 65, 102
1, 45648, Note_on_c, 1, 50, 116
1, 45648, Note_on_c, 9, 64, 108
1, 45649, Note_off_c, 9, 64, 104
1, 45651, Note_on_c, 9, 69, 50
1, 45652, Note_off_c, 9, 69, 68
1, 45669, Note_off_c, 1, 50, 99
1, 45691, Note_off_c, 0, 77, 110
1, 45693, Note_off_c, 0, 81, 110
1, 45694, Note_off_c, 0, 84, 104
1, 45695, Note_on_c, 9, 42, 92
1, 45695, Note_on_c, 9, 69, 104
1, 45696, Note_on_c, 9, 36, 124
1, 45696, Note_on_c, 1, 38, 122
1, 45696, Note_off_c, 9, 42, 100
1, 45696, Note_on_c, 2, 57, 120
1, 45696, Note_on_c, 12, 60, 110
1, 45696, Note_on_c, 2, 62, 123
1, 45696, Note_on_c, 9, 63, 124
1, 45696, Note_on_c, 2, 65, 122
1, 45696, Note_on_c, 12, 65, 114
1, 45696, Note_off_c, 9, 69, 84
1, 45696, Note_on_c, 0, 74, 117
1, 45696, Note_on_c, 0, 77, 122
1, 45696, Note_on_c, 0, 81, 120
1, 45696, Note_on_c, 6, 81, 120
1, 45697, Note_off_c, 6, 84, 110
1, 45697, Note_off_c, 9, 36, 108
1, 45697, Note_off_c, 9, 63, 96
1, 45700, Note_off_c, 12, 57, 106
1, 45708, Note_off_c, 12, 62, 106
1, 45721, Note_off_c, 2, 62, 113
1, 45725, Note_off_c, 2, 57, 108
1, 45725, Note_off_c, 2, 65, 111
1, 45747, Note_on_c, 9, 69, 50
1, 45748, Note_off_c, 9, 69, 84
1, 45754, Note_off_c, 1, 38, 91
1, 45791, Note_on_c, 9, 42, 124
1, 45791, Note_on_c, 9, 69, 100
1, 45792, Note_off_c, 9, 42, 96
1, 45792, Note_on_c, 1, 50, 114
1, 45792, Note_on_c, 2, 57, 113
1, 45792, Note_on_c, 2, 62, 122
1, 45792, Note_on_c, 9, 63, 124
1, 45792, Note_on_c, 2, 65, 122
1, 45792, Note_off_c, 9, 69, 92
1, 45793, Note_off_c, 9, 63, 100
1, 45811, Note_off_c, 1, 50, 108
1, 45816, Note_off_c, 2, 57, 102
1, 45840, Note_on_c, 1, 50, 113
1, 45843, Note_on_c, 9, 69, 50
1, 45844, Note_on_c, 2, 57, 97
1, 45844, Note_off_c, 9, 69, 92
1, 45858, Note_off_c, 2, 65, 104
1, 45862, Note_off_c, 1, 50, 104
1, 45867, Note_off_c, 2, 62, 108
1, 45872, Note_off_c, 12, 60, 106
1, 45887, Note_on_c, 9, 42, 96
1, 45887, Note_on_c, 9, 69, 100
1, 45888, Note_on_c, 9, 36, 124
1, 45888, Note_on_c, 1, 38, 117
1, 45888, Note_on_c, 9, 40, 124
1, 45888, Note_off_c, 9, 42, 100
1, 45888, Note_on_c, 12, 57, 110
1, 45888, Note_on_c, 2, 62, 114
1, 45888, Note_on_c, 12, 62, 108
1, 45888, Note_on_c, 9, 62, 124
1, 45888, Note_on_c, 2, 65, 123
1, 45888, Note_off_c, 9, 69, 92
1, 45889, Note_off_c, 9, 36, 112
1, 45889, Note_off_c, 9, 40, 108
1, 45889, Note_off_c, 9, 62, 104
1, 45895, Note_off_c, 12, 65, 106
1, 45917, Note_off_c, 2, 57, 108
1, 45923, Note_off_c, 2, 62, 113
1, 45926, Note_off_c, 2, 65, 111
1, 45933, Note_off_c, 12, 62, 104
1, 45939, Note_on_c, 9, 69, 50
1, 45940, Note_off_c, 9, 69, 92
1, 45950, Note_off_c, 12, 57, 104
1, 45955, Note_off_c, 1, 38, 91
1, 45962, Pitch_bend_c, 12, 8064
1, 45969, Pitch_bend_c, 12, 7808
1, 45976, Pitch_bend_c, 12, 4992
1, 45983, Note_on_c, 9, 42, 124
1, 45983, Note_on_c, 9, 69, 100
1, 45984, Note_off_c, 9, 42, 100
1, 45984, Note_on_c, 1, 50, 116
1, 45984, Note_on_c, 12, 62, 119
1, 45984, Note_on_c, 9, 64, 112
1, 45984, Note_on_c, 12, 67, 116
1, 45984, Note_off_c, 9, 69, 92
1, 45985, Note_off_c, 9, 64, 104
1, 45985, Pitch_bend_c, 12, 2816
1, 45992, Pitch_bend_c, 12, 3840
1, 46002, Pitch_bend_c, 12, 6784
1, 46009, Note_off_c, 1, 50, 108
1, 46009, Pitch_bend_c, 12, 7552
1, 46016, Pitch_bend_c, 12, 7936
1, 46023, Pitch_bend_c, 12, 8192
1, 46032, Note_on_c, 1, 50, 110
1, 46032, Note_on_c, 9, 64, 108
1, 46033, Note_off_c, 9, 64, 112
1, 46035, Note_on_c, 9, 69, 50
1, 46036, Note_off_c, 9, 69, 92
1, 46060, Note_off_c, 1, 50, 110
1, 46079, Note_on_c, 9, 42, 100
1, 46079, Note_off_c, 11, 50, 108
1, 46079, Note_off_c, 6, 62, 113
1, 46079, Note_on_c, 9, 69, 96
1, 46080, Note_on_c, 9, 36, 124
1, 46080, Note_on_c, 11, 41, 116
1, 46080, Note_on_c, 1, 41, 122
1, 46080, Note_off_c, 9, 42, 92
1, 46080, Note_on_c, 2, 57, 114
1, 46080, Note_on_c, 2, 60, 119
1, 46080, Note_on_c, 9, 63, 120
1, 46080, Note_on_c, 2, 65, 117
1, 46080, Note_on_c, 6, 65, 90
1, 46080, Note_off_c, 9, 69, 80
1, 46081, Note_off_c, 9, 36, 76
1, 46081, Note_off_c, 9, 63, 92
1, 46096, Note_off_c, 2, 60, 111
1, 46098, Note_off_c, 0, 74, 108
1, 46104, Note_off_c, 2, 57, 104
1, 46107, Note_off_c, 2, 65, 108
1, 46110, Note_off_c, 0, 81, 110
1, 46131, Note_on_c, 9, 69, 50
1, 46132, Note_off_c, 9, 69, 80
1, 46142, Note_off_c, 6, 81, 110
1, 46151, Note_off_c, 1, 41, 108
1, 46154, Note_off_c, 0, 77, 110
1, 46172, Note_off_c, 12, 62, 108
1, 46174, Note_off_c, 12, 67, 108
1, 46175, Note_on_c, 9, 42, 120
1, 46175, Note_on_c, 9, 69, 88
1, 46176, Note_off_c, 9, 42, 92
1, 46176, Note_on_c, 1, 53, 113
1, 46176, Note_on_c, 2, 57, 116
1, 46176, Note_on_c, 2, 60, 116
1, 46176, Note_on_c, 12, 60, 111
1, 46176, Note_on_c, 9, 63, 116
1, 46176, Note_on_c, 2, 65, 110
1, 46176, Note_on_c, 12, 65, 113
1, 46176, Note_off_c, 9, 69, 76
1, 46176, Note_on_c, 0, 74, 114
1, 46176, Note_on_c, 0, 79, 114
1, 46176, Note_on_c, 0, 82, 114
1, 46176, Note_on_c, 6, 82, 117
1, 46177, Note_off_c, 9, 63, 84
1, 46190, Note_off_c, 2, 60, 116
1, 46197, Note_off_c, 1, 53, 108
1, 46199, Note_off_c, 2, 65, 108
1, 46203, Note_off_c, 2, 57, 104
1, 46205, Note_off_c, 12, 60, 104
1, 46210, Note_off_c, 12, 65, 110
1, 46219, Note_off_c, 0, 79, 106
1, 46220, Note_off_c, 0, 74, 104
1, 46220, Note_off_c, 0, 82, 106
1, 46222, Note_off_c, 6, 82, 106
1, 46224, Note_on_c, 1, 53, 113
1, 46224, Note_on_c, 0, 72, 113
1, 46224, Note_on_c, 0, 77, 114
1, 46224, Note_on_c, 0, 81, 111
1, 46224, Note_on_c, 6, 81, 116
1, 46227, Note_on_c, 9, 69, 50
1, 46228, Note_off_c, 9, 69, 76
1, 46247, Note_off_c, 1, 53, 99
1, 46268, Note_off_c, 0, 72, 108
1, 46268, Note_off_c, 0, 81, 104
1, 46269, Note_off_c, 0, 77, 104
1, 46271, Note_on_c, 9, 42, 124
1, 46271, Note_on_c, 9, 69, 104
1, 46272, Note_on_c, 9, 36, 124
1, 46272, Note_on_c, 9, 40, 124
1, 46272, Note_on_c, 1, 41, 120
1, 46272, Note_off_c, 9, 42, 96
1, 46272, Note_on_c, 2, 57, 119
1, 46272, Note_on_c, 2, 60, 123
1, 46272, Note_on_c, 12, 60, 114
1, 46272, Note_on_c, 9, 62, 124
1, 46272, Note_on_c, 2, 65, 122
1, 46272, Note_on_c, 12, 65, 114
1, 46272, Note_off_c, 9, 69, 68
1, 46272, Note_on_c, 0, 74, 113
1, 46272, Note_on_c, 0, 79, 113
1, 46272, Note_on_c, 0, 82, 116
1, 46272, Note_on_c, 6, 82, 117
1, 46273, Note_off_c, 6, 81, 111
1, 46273, Note_off_c, 9, 36, 96
1, 46273, Note_off_c, 9, 40, 96
1, 46273, Note_off_c, 9, 62, 108
1, 46313, Note_off_c, 0, 82, 99
1, 46315, Note_off_c, 0, 79, 94
1, 46317, Note_off_c, 0, 74, 76
1, 46320, Note_on_c, 0, 72, 113
1, 46320, Note_on_c, 0, 77, 114
1, 46320, Note_on_c, 0, 81, 113
1, 46320, Note_on_c, 6, 81, 113
1, 46323, Note_on_c, 9, 69, 50
1, 46324, Note_off_c, 6, 82, 104
1, 46324, Note_off_c, 9, 69, 68
1, 46341, Note_off_c, 2, 57, 106
1, 46341, Note_off_c, 1, 41, 108
1, 46344, Note_off_c, 2, 60, 111
1, 46344, Note_off_c, 2, 65, 110
1, 46360, Note_off_c, 0, 72, 108
1, 46360, Note_off_c, 0, 81, 108
1, 46364, Note_off_c, 12, 60, 110
1, 46366, Note_off_c, 0, 77, 110
1, 46367, Note_on_c, 9, 42, 124
1, 46367, Note_on_c, 9, 69, 96
1, 46368, Note_off_c, 12, 65, 104
1, 46368, Note_off_c, 6, 81, 111
1, 46368, Note_off_c, 9, 42, 100
1, 46368, Note_on_c, 1, 53, 113
1, 46368, Note_on_c, 12, 57, 111
1, 46368, Note_on_c, 12, 62, 113
1, 46368, Note_on_c, 9, 64, 116
1, 46368, Note_off_c, 9, 69, 68
1, 46368, Note_on_c, 0, 69, 113
1, 46368, Note_on_c, 0, 72, 114
1, 46368, Note_on_c, 0, 77, 113
1, 46368, Note_on_c, 6, 77, 119
1, 46369, Note_off_c, 9, 64, 96
1, 46390, Note_off_c, 1, 53, 108
1, 46408, Note_off_c, 0, 69, 106
1, 46411, Note_off_c, 0, 72, 108
1, 46411, Note_off_c, 0, 77, 111
1, 46416, Note_on_c, 1, 53, 113
1, 46416, Note_on_c, 9, 64, 108
1, 46416, Note_on_c, 0, 67, 111
1, 46416, Note_on_c, 0, 69, 110
1, 46416, Note_on_c, 0, 74, 114
1, 46416, Note_on_c, 6, 74, 117
1, 46417, Note_off_c, 9, 64, 104
1, 46419, Note_on_c, 9, 69, 50
1, 46420, Note_off_c, 9, 69, 68
1, 46421, Note_off_c, 6, 77, 113
1, 46438, Note_off_c, 1, 53, 104
1, 46457, Note_off_c, 0, 67, 110
1, 46461, Note_off_c, 0, 74, 108
1, 46462, Note_off_c, 0, 69, 104
1, 46463, Note_on_c, 9, 42, 76
1, 46463, Note_on_c, 9, 69, 104
1, 46464, Note_on_c, 9, 36, 124
1, 46464, Note_on_c, 1, 41, 122
1, 46464, Note_off_c, 9, 42, 100
1, 46464, Note_on_c, 2, 57, 113
1, 46464, Note_on_c, 2, 60, 122
1, 46464, Note_on_c, 12, 60, 111
1, 46464, Note_on_c, 9, 63, 124
1, 46464, Note_on_c, 2, 65, 120
1, 46464, Note_on_c, 12, 65, 113
1, 46464, Note_off_c, 9, 69, 84
1, 46464, Note_on_c, 0, 69, 119
1, 46464, Note_on_c, 0, 72, 119
1, 46464, Note_on_c, 0, 77, 120
1, 46464, Note_on_c, 6, 77, 120
1, 46465, Note_off_c, 12, 57, 108
1, 46465, Note_off_c, 9, 36, 108
1, 46465, Note_off_c, 9, 63, 96
1, 46470, Note_off_c, 12, 62, 108
1, 46474, Note_off_c, 6, 74, 108
1, 46515, Note_on_c, 9, 69, 50
1, 46516, Note_off_c, 9, 69, 84
1, 46534, Note_off_c, 1, 41, 106
1, 46559, Note_on_c, 9, 42, 124
1, 46559, Note_on_c, 9, 69, 100
1, 46560, Note_off_c, 9, 42, 100
1, 46560, Note_on_c, 1, 53, 110
1, 46560, Note_on_c, 9, 63, 124
1, 46560, Note_off_c, 9, 69, 92
1, 46561, Note_off_c, 9, 63, 100
1, 46563, Note_off_c, 2, 57, 71
1, 46581, Note_off_c, 1, 53, 108
1, 46588, Note_off_c, 2, 65, 66
1, 46608, Note_on_c, 1, 53, 108
1, 46611, Note_on_c, 9, 69, 50
1, 46612, Note_on_c, 2, 57, 102
1, 46612, Note_off_c, 9, 69, 92
1, 46618, Note_off_c, 2, 60, 66
1, 46636, Note_off_c, 1, 53, 108
1, 46650, Note_off_c, 12, 60, 108
1, 46655, Note_on_c, 9, 42, 84
1, 46655, Note_on_c, 9, 69, 100
1, 46656, Note_on_c, 9, 36, 124
1, 46656, Note_on_c, 9, 40, 124
1, 46656, Note_on_c, 1, 41, 120
1, 46656, Note_off_c, 9, 42, 96
1, 46656, Note_on_c, 12, 57, 108
1, 46656, Note_on_c, 2, 60, 122
1, 46656, Note_on_c, 12, 62, 113
1, 46656, Note_on_c, 9, 62, 124
1, 46656, Note_on_c, 2, 65, 120
1, 46656, Note_off_c, 9, 69, 92
1, 46657, Note_off_c, 12, 65, 97
1, 46657, Note_off_c, 9, 36, 112
1, 46657, Note_off_c, 9, 40, 108
1, 46657, Note_off_c, 9, 62, 104
1, 46680, Note_off_c, 2, 65, 108
1, 46695, Note_off_c, 2, 60, 108
1, 46705, Note_off_c, 2, 57, 102
1, 46707, Note_on_c, 9, 69, 50
1, 46708, Note_off_c, 9, 69, 92
1, 46722, Note_off_c, 1, 41, 106
1, 46750, Note_off_c, 12, 62, 108
1, 46751, Note_on_c, 9, 42, 124
1, 46751, Note_on_c, 9, 69, 100
1, 46752, Note_off_c, 9, 42, 100
1, 46752, Note_on_c, 12, 53, 108
1, 46752, Note_on_c, 1, 53, 113
1, 46752, Note_on_c, 12, 60, 114
1, 46752, Note_on_c, 9, 64, 112
1, 46752, Note_off_c, 9, 69, 92
1, 46753, Note_off_c, 9, 64, 104
1, 46772, Note_off_c, 1, 53, 111
1, 46800, Note_on_c, 1, 53, 114
1, 46800, Note_on_c, 9, 64, 108
1, 46801, Note_off_c, 9, 64, 112
1, 46803, Note_on_c, 9, 69, 50
1, 46804, Note_off_c, 9, 69, 92
1, 46827, Note_off_c, 1, 53, 108
1, 46847, Note_on_c, 9, 42, 92
1, 46847, Note_on_c, 9, 69, 96
1, 46848, Note_on_c, 9, 36, 124
1, 46848, Note_on_c, 1, 41, 120
1, 46848, Note_off_c, 9, 42, 100
1, 46848, Note_on_c, 2, 57, 108
1, 46848, Note_on_c, 2, 60, 119
1, 46848, Note_on_c, 9, 63, 120
1, 46848, Note_on_c, 2, 65, 117
1, 46848, Note_off_c, 9, 69, 80
1, 46849, Note_off_c, 9, 36, 76
1, 46849, Note_off_c, 9, 63, 92
1, 46875, Note_off_c, 2, 57, 104
1, 46877, Note_off_c, 2, 60, 111
1, 46880, Note_off_c, 2, 65, 110
1, 46891, Note_off_c, 6, 77, 111
1, 46899, Note_on_c, 9, 69, 50
1, 46900, Note_off_c, 9, 69, 80
1, 46923, Note_off_c, 0, 77, 111
1, 46933, Note_off_c, 1, 41, 99
1, 46939, Note_off_c, 0, 69, 110
1, 46943, Note_on_c, 9, 42, 124
1, 46943, Note_on_c, 9, 69, 88
1, 46944, Note_off_c, 9, 42, 96
1, 46944, Note_on_c, 1, 53, 114
1, 46944, Note_on_c, 2, 57, 113
1, 46944, Note_on_c, 2, 60, 120
1, 46944, Note_on_c, 9, 63, 116
1, 46944, Note_on_c, 2, 65, 117
1, 46944, Note_off_c, 9, 69, 76
1, 46944, Note_on_c, 0, 70, 110
1, 46944, Note_on_c, 0, 74, 113
1, 46944, Note_on_c, 0, 79, 114
1, 46944, Note_on_c, 6, 79, 116
1, 46945, Note_off_c, 9, 63, 84
1, 46946, Note_off_c, 0, 72, 110
1, 46967, Note_off_c, 2, 60, 108
1, 46970, Note_off_c, 2, 57, 106
1, 46970, Note_off_c, 1, 53, 108
1, 46973, Note_off_c, 2, 65, 102
1, 46986, Note_off_c, 0, 79, 108
1, 46988, Note_off_c, 0, 70, 104
1, 46991, Note_off_c, 0, 74, 108
1, 46992, Note_on_c, 1, 53, 108
1, 46992, Note_on_c, 0, 69, 110
1, 46992, Note_on_c, 0, 72, 108
1, 46992, Note_on_c, 0, 77, 114
1, 46992, Note_on_c, 6, 77, 116
1, 46992, Note_off_c, 6, 79, 108
1, 46995, Note_on_c, 9, 69, 50
1, 46996, Note_off_c, 9, 69, 76
1, 47021, Note_off_c, 1, 53, 108
1, 47032, Note_off_c, 0, 77, 110
1, 47033, Note_off_c, 0, 72, 108
1, 47039, Note_off_c, 11, 41, 104
1, 47039, Note_on_c, 9, 42, 112
1, 47039, Note_off_c, 0, 69, 102
1, 47039, Note_on_c, 9, 69, 104
1, 47040, Note_on_c, 9, 36, 124
1, 47040, Note_on_c, 9, 40, 124
1, 47040, Note_off_c, 9, 42, 100
1, 47040, Note_on_c, 11, 43, 119
1, 47040, Note_on_c, 1, 43, 119
1, 47040, Note_on_c, 2, 57, 116
1, 47040, Note_on_c, 2, 60, 122
1, 47040, Note_on_c, 9, 62, 124
1, 47040, Note_on_c, 2, 65, 120
1, 47040, Note_off_c, 9, 69, 68
1, 47040, Note_on_c, 0, 70, 111
1, 47040, Note_on_c, 0, 74, 113
1, 47040, Note_on_c, 0, 79, 111
1, 47040, Note_on_c, 6, 79, 116
1, 47041, Note_off_c, 9, 36, 96
1, 47041, Note_off_c, 9, 40, 96
1, 47041, Note_off_c, 9, 62, 108
1, 47044, Note_off_c, 6, 77, 111
1, 47082, Note_off_c, 0, 79, 102
1, 47086, Note_off_c, 0, 70, 99
1, 47087, Note_off_c, 0, 74, 97
1, 47088, Note_on_c, 0, 69, 108
1, 47088, Note_on_c, 0, 72, 114
1, 47088, Note_on_c, 0, 77, 116
1, 47088, Note_on_c, 6, 77, 111
1, 47091, Note_on_c, 9, 69, 50
1, 47092, Note_off_c, 9, 69, 68
1, 47095, Note_off_c, 6, 79, 108
1, 47110, Note_off_c, 1, 43, 104
1, 47113, Note_off_c, 2, 65, 110
1, 47116, Note_off_c, 2, 60, 97
1, 47122, Note_off_c, 2, 57, 104
1, 47130, Note_off_c, 0, 69, 108
1, 47134, Note_off_c, 0, 72, 111
1, 47135, Note_on_c, 9, 42, 124
1, 47135, Note_on_c, 9, 69, 96
1, 47135, Note_off_c, 0, 77, 113
1, 47136, Note_off_c, 9, 42, 100
1, 47136, Note_on_c, 1, 55, 113
1, 47136, Note_on_c, 9, 64, 116
1, 47136, Note_on_c, 0, 65, 114
1, 47136, Note_off_c, 9, 69, 68
1, 47136, Note_on_c, 0, 69, 116
1, 47136, Note_on_c, 0, 74, 114
1, 47136, Note_on_c, 6, 74, 116
1, 47137, Note_off_c, 9, 64, 96
1, 47140, Note_off_c, 6, 77, 108
1, 47156, Note_off_c, 1, 55, 111
1, 47177, Note_off_c, 0, 74, 108
1, 47181, Note_off_c, 0, 65, 110
1, 47181, Note_off_c, 0, 69, 108
1, 47184, Note_on_c, 1, 55, 108
1, 47184, Note_on_c, 0, 62, 117
1, 47184, Note_on_c, 9, 64, 108
1, 47184, Note_on_c, 0, 67, 113
1, 47184, Note_on_c, 0, 72, 110
1, 47184, Note_on_c, 6, 72, 116
1, 47185, Note_off_c, 9, 64, 104
1, 47187, Note_on_c, 9, 69, 50
1, 47187, Note_off_c, 6, 74, 106
1, 47188, Note_off_c, 9, 69, 68
1, 47211, Note_off_c, 1, 55, 110
1, 47227, Note_off_c, 0, 72, 110
1, 47230, Note_off_c, 0, 62, 110
1, 47230, Note_off_c, 0, 67, 110
1, 47231, Note_on_c, 9, 42, 88
1, 47231, Note_off_c, 11, 43, 102
1, 47231, Note_on_c, 9, 69, 104
1, 47232, Note_on_c, 9, 36, 124
1, 47232, Note_off_c, 9, 42, 100
1, 47232, Note_on_c, 11, 45, 116
1, 47232, Note_on_c, 1, 45, 122
1, 47232, Note_on_c, 2, 57, 117
1, 47232, Note_on_c, 2, 60, 122
1, 47232, Note_on_c, 9, 63, 124
1, 47232, Note_on_c, 0, 65, 120
1, 47232, Note_on_c, 2, 65, 122
1, 47232, Note_off_c, 9, 69, 84
1, 47232, Note_on_c, 0, 69, 120
1, 47232, Note_on_c, 0, 74, 116
1, 47232, Note_on_c, 6, 74, 117
1, 47233, Note_off_c, 9, 36, 108
1, 47233, Note_off_c, 9, 63, 96
1, 47234, Note_off_c, 6, 72, 110
1, 47283, Note_on_c, 9, 69, 50
1, 47284, Note_off_c, 9, 69, 84
1, 47303, Note_off_c, 1, 45, 108
1, 47327, Note_on_c, 9, 46, 124
1, 47327, Note_on_c, 9, 69, 100
1, 47328, Note_off_c, 9, 46, 100
1, 47328, Note_on_c, 1, 57, 116
1, 47328, Note_on_c, 9, 63, 124
1, 47328, Note_off_c, 9, 69, 92
1, 47329, Note_off_c, 9, 63, 100
1, 47332, Note_off_c, 2, 57, 84
1, 47355, Note_off_c, 1, 57, 106
1, 47358, Note_off_c, 2, 65, 71
1, 47376, Note_on_c, 1, 57, 106
1, 47379, Note_on_c, 9, 69, 50
1, 47380, Note_on_c, 2, 57, 97
1, 47380, Note_off_c, 9, 69, 92
1, 47394, Note_off_c, 2, 60, 13
1, 47402, Note_off_c, 1, 57, 106
1, 47407, Note_off_c, 2, 57, 97
1, 47423, Note_on_c, 9, 44, 89
1, 47423, Note_off_c, 11, 45, 108
1, 47423, Note_on_c, 9, 69, 100
1, 47424, Note_on_c, 9, 36, 124
1, 47424, Note_on_c, 9, 40, 80
1, 47424, Note_on_c, 11, 41, 122
1, 47424, Note_on_c, 1, 41, 120
1, 47424, Note_off_c, 9, 44, 100
1, 47424, Note_on_c, 2, 57, 113
1, 47424, Note_on_c, 2, 60, 117
1, 47424, Note_on_c, 9, 62, 124
1, 47424, Note_on_c, 2, 65, 120
1, 47424, Note_off_c, 9, 69, 92
1, 47425, Note_off_c, 9, 36, 112
1, 47425, Note_off_c, 9, 40, 108
1, 47425, Note_off_c, 9, 62, 104
1, 47440, Note_off_c, 12, 60, 111
1, 47443, Note_off_c, 2, 65, 108
1, 47444, Note_off_c, 2, 60, 110
1, 47450, Note_off_c, 12, 57, 108
1, 47453, Note_off_c, 12, 53, 106
1, 47457, Note_off_c, 2, 57, 104
1, 47472, Note_on_c, 9, 40, 105
1, 47473, Note_off_c, 9, 40, 108
1, 47475, Note_on_c, 9, 69, 50
1, 47476, Note_off_c, 9, 69, 92
1, 47507, Note_off_c, 1, 41, 111
1, 47519, Note_on_c, 9, 69, 100
1, 47520, Note_on_c, 9, 40, 124
1, 47520, Note_on_c, 1, 53, 111
1, 47520, Note_on_c, 2, 57, 96
1, 47520, Note_on_c, 2, 60, 98
1, 47520, Note_on_c, 9, 64, 112
1, 47520, Note_on_c, 2, 65, 98
1, 47520, Note_off_c, 9, 69, 92
1, 47521, Note_off_c, 9, 40, 108
1, 47521, Note_off_c, 9, 64, 104
1, 47539, Note_off_c, 2, 65, 108
1, 47540, Note_off_c, 2, 60, 110
1, 47541, Note_off_c, 1, 53, 113
1, 47553, Note_off_c, 2, 57, 104
1, 47568, Note_on_c, 1, 53, 111
1, 47568, Note_on_c, 9, 64, 108
1, 47569, Note_off_c, 9, 64, 112
1, 47571, Note_on_c, 9, 69, 50
1, 47572, Note_off_c, 9, 69, 92
1, 47595, Note_off_c, 1, 53, 110
1, 47610, Note_off_c, 6, 65, 110
1, 47614, Note_off_c, 0, 74, 108
1, 47615, Note_off_c, 11, 41, 111
1, 47616, Note_on_c, 1, 33, 116
1, 47616, Note_on_c, 9, 36, 124
1, 47616, Note_on_c, 11, 45, 111
1, 47616, Note_on_c, 9, 49, 124
1, 47616, Note_on_c, 9, 63, 120
1, 47616, Note_on_c, 3, 76, 122
1, 47616, Note_on_c, 6, 76, 90
1, 47616, Note_on_c, 6, 81, 90
1, 47616, Note_on_c, 6, 84, 90
1, 47616, Note_off_c, 0, 69, 111
1, 47617, Note_off_c, 9, 36, 76
1, 47617, Note_off_c, 9, 49, 100
1, 47617, Note_off_c, 9, 63, 92
1, 47617, Note_off_c, 0, 65, 111
1, 47641, Note_off_c, 6, 74, 84
1, 47667, Note_on_c, 9, 69, 50
1, 47668, Note_on_c, 2, 67, 97
1, 47668, Note_off_c, 9, 69, 80
1, 47681, Note_off_c, 1, 33, 94
1, 47695, Note_off_c, 2, 67, 99
1, 47711, Note_on_c, 9, 69, 88
1, 47712, Note_on_c, 1, 45, 114
1, 47712, Note_on_c, 9, 63, 116
1, 47712, Note_on_c, 2, 67, 110
1, 47712, Note_off_c, 9, 69, 76
1, 47712, Note_on_c, 2, 72, 111
1, 47712, Note_on_c, 2, 76, 111
1, 47713, Note_off_c, 9, 63, 84
1, 47728, Note_off_c, 1, 45, 116
1, 47729, Note_off_c, 2, 72, 113
1, 47735, Note_off_c, 2, 67, 108
1, 47738, Note_off_c, 2, 76, 99
1, 47741, Note_off_c, 3, 76, 106
1, 47760, Note_on_c, 1, 45, 117
1, 47763, Note_on_c, 9, 69, 50
1, 47764, Note_off_c, 9, 69, 76
1, 47780, Note_off_c, 1, 45, 102
1, 47807, Note_on_c, 9, 42, 7
1, 47807, Note_on_c, 9, 69, 104
1, 47808, Note_on_c, 1, 33, 117
1, 47808, Note_on_c, 9, 36, 124
1, 47808, Note_on_c, 9, 40, 124
1, 47808, Note_off_c, 9, 42, 88
1, 47808, Note_on_c, 9, 62, 124
1, 47808, Note_on_c, 2, 67, 119
1, 47808, Note_off_c, 9, 69, 68
1, 47808, Note_on_c, 2, 72, 122
1, 47808, Note_on_c, 3, 76, 123
1, 47808, Note_on_c, 2, 76, 122
1, 47809, Note_off_c, 9, 36, 96
1, 47809, Note_off_c, 9, 40, 96
1, 47809, Note_off_c, 9, 62, 108
1, 47859, Note_on_c, 9, 69, 50
1, 47860, Note_off_c, 9, 69, 68
1, 47877, Note_off_c, 1, 33, 97
1, 47903, Note_on_c, 9, 42, 112
1, 47903, Note_on_c, 9, 69, 96
1, 47904, Note_off_c, 2, 67, 99
1, 47904, Note_off_c, 9, 42, 88
1, 47904, Note_on_c, 1, 45, 114
1, 47904, Note_on_c, 9, 64, 116
1, 47904, Note_off_c, 9, 69, 68
1, 47905, Note_off_c, 9, 64, 96
1, 47921, Note_off_c, 1, 45, 114
1, 47924, Note_off_c, 3, 76, 111
1, 47940, Note_off_c, 2, 76, 84
1, 47942, Note_off_c, 2, 72, 84
1, 47952, Note_on_c, 1, 45, 114
1, 47952, Note_on_c, 9, 64, 108
1, 47953, Note_off_c, 9, 64, 104
1, 47955, Note_on_c, 9, 69, 50
1, 47956, Note_on_c, 2, 67, 99
1, 47956, Note_off_c, 9, 69, 68
1, 47973, Note_off_c, 1, 45, 94
1, 47978, Note_off_c, 2, 67, 110
1, 47999, Note_on_c, 9, 42, 52
1, 47999, Note_on_c, 9, 69, 104
1, 48000, Note_on_c, 1, 33, 122
1, 48000, Note_on_c, 9, 36, 124
1, 48000, Note_off_c, 9, 42, 92
1, 48000, Note_on_c, 9, 63, 124
1, 48000, Note_on_c, 2, 67, 114
1, 48000, Note_off_c, 9, 69, 84
1, 48000, Note_on_c, 2, 72, 113
1, 48000, Note_on_c, 3, 76, 123
1, 48000, Note_on_c, 2, 76, 113
1, 48001, Note_off_c, 9, 36, 108
1, 48001, Note_off_c, 9, 63, 96
1, 48017, Note_off_c, 2, 72, 113
1, 48019, Note_off_c, 2, 67, 110
1, 48024, Note_off_c, 2, 76, 99
1, 48051, Note_on_c, 9, 69, 50
1, 48052, Note_off_c, 9, 69, 84
1, 48065, Note_off_c, 1, 33, 97
1, 48095, Note_on_c, 9, 42, 124
1, 48095, Note_on_c, 9, 69, 100
1, 48096, Note_off_c, 9, 42, 92
1, 48096, Note_on_c, 1, 45, 113
1, 48096, Note_on_c, 9, 63, 124
1, 48096, Note_on_c, 2, 67, 120
1, 48096, Note_off_c, 9, 69, 92
1, 48096, Note_on_c, 2, 72, 123
1, 48096, Note_on_c, 2, 76, 123
1, 48097, Note_off_c, 9, 63, 100
1, 48113, Note_off_c, 1, 45, 113
1, 48135, Note_off_c, 2, 67, 91
1, 48140, Note_off_c, 2, 72, 97
1, 48144, Note_on_c, 1, 45, 108
1, 48147, Note_on_c, 9, 69, 50
1, 48147, Note_off_c, 2, 76, 99
1, 48148, Note_off_c, 9, 69, 92
1, 48168, Note_off_c, 1, 45, 97
1, 48170, Note_off_c, 3, 76, 106
1, 48191, Note_on_c, 9, 42, 84
1, 48191, Note_on_c, 9, 69, 100
1, 48192, Note_on_c, 1, 33, 117
1, 48192, Note_on_c, 9, 36, 124
1, 48192, Note_on_c, 9, 40, 124
1, 48192, Note_off_c, 9, 42, 96
1, 48192, Note_on_c, 9, 62, 124
1, 48192, Note_off_c, 9, 69, 92
1, 48192, Note_on_c, 3, 72, 110
1, 48193, Note_off_c, 9, 36, 112
1, 48193, Note_off_c, 9, 40, 108
1, 48193, Note_off_c, 9, 62, 104
1, 48222, Note_off_c, 3, 72, 99
1, 48243, Note_on_c, 9, 69, 50
1, 48244, Note_off_c, 9, 69, 92
1, 48262, Note_off_c, 1, 33, 102
1, 48287, Note_on_c, 9, 42, 124
1, 48287, Note_on_c, 9, 69, 100
1, 48288, Note_off_c, 9, 42, 96
1, 48288, Note_on_c, 1, 45, 116
1, 48288, Note_on_c, 9, 64, 112
1, 48288, Note_off_c, 9, 69, 92
1, 48288, Note_on_c, 3, 72, 122
1, 48289, Note_off_c, 9, 64, 104
1, 48306, Note_off_c, 1, 45, 113
1, 48336, Note_on_c, 1, 45, 119
1, 48336, Note_on_c, 9, 64, 108
1, 48337, Note_off_c, 9, 64, 112
1, 48339, Note_on_c, 9, 69, 50
1, 48340, Note_off_c, 9, 69, 92
1, 48354, Note_off_c, 1, 45, 97
1, 48366, Note_off_c, 6, 76, 110
1, 48374, Note_off_c, 6, 84, 106
1, 48383, Note_on_c, 9, 42, 76
1, 48383, Note_off_c, 11, 45, 102
1, 48383, Note_on_c, 9, 69, 96
1, 48384, Note_on_c, 9, 36, 124
1, 48384, Note_on_c, 1, 38, 120
1, 48384, Note_off_c, 9, 42, 100
1, 48384, Note_on_c, 11, 50, 116
1, 48384, Note_on_c, 9, 63, 120
1, 48384, Note_off_c, 9, 69, 80
1, 48384, Note_on_c, 6, 77, 90
1, 48384, Note_on_c, 6, 86, 90
1, 48385, Note_off_c, 9, 36, 76
1, 48385, Note_off_c, 9, 63, 92
1, 48435, Note_on_c, 9, 69, 50
1, 48436, Note_off_c, 9, 69, 80
1, 48436, Note_on_c, 2, 69, 88
1, 48449, Note_off_c, 1, 38, 102
1, 48479, Note_on_c, 9, 42, 124
1, 48479, Note_on_c, 9, 69, 88
1, 48480, Note_off_c, 9, 42, 100
1, 48480, Note_on_c, 1, 50, 116
1, 48480, Note_on_c, 9, 63, 116
1, 48480, Note_off_c, 9, 69, 76
1, 48480, Note_on_c, 2, 72, 116
1, 48480, Note_on_c, 2, 77, 119
1, 48481, Note_off_c, 9, 63, 84
1, 48493, Note_off_c, 2, 69, 99
1, 48498, Note_off_c, 1, 50, 111
1, 48505, Note_off_c, 2, 72, 111
1, 48508, Note_off_c, 2, 77, 113
1, 48525, Note_off_c, 3, 72, 108
1, 48528, Note_on_c, 1, 50, 120
1, 48531, Note_on_c, 9, 69, 50
1, 48532, Note_off_c, 9, 69, 76
1, 48543, Note_off_c, 1, 50, 111
1, 48575, Note_on_c, 9, 42, 80
1, 48575, Note_on_c, 9, 69, 104
1, 48576, Note_on_c, 9, 36, 124
1, 48576, Note_on_c, 1, 38, 122
1, 48576, Note_on_c, 9, 40, 124
1, 48576, Note_off_c, 9, 42, 96
1, 48576, Note_on_c, 9, 62, 124
1, 48576, Note_off_c, 9, 69, 68
1, 48576, Note_on_c, 2, 69, 108
1, 48576, Note_on_c, 2, 72, 122
1, 48576, Note_on_c, 2, 77, 122
1, 48577, Note_off_c, 9, 36, 96
1, 48577, Note_off_c, 9, 40, 96
1, 48577, Note_off_c, 9, 62, 108
1, 48627, Note_on_c, 9, 69, 50
1, 48628, Note_off_c, 9, 69, 68
1, 48649, Note_off_c, 1, 38, 102
1, 48671, Note_on_c, 9, 42, 124
1, 48671, Note_on_c, 9, 69, 96
1, 48672, Note_off_c, 9, 42, 96
1, 48672, Note_on_c, 1, 50, 116
1, 48672, Note_on_c, 9, 64, 116
1, 48672, Note_off_c, 9, 69, 68
1, 48673, Note_off_c, 9, 64, 96
1, 48689, Note_off_c, 1, 50, 113
1, 48713, Note_off_c, 2, 77, 104
1, 48718, Note_off_c, 2, 72, 110
1, 48720, Note_on_c, 1, 50, 116
1, 48720, Note_on_c, 9, 64, 108
1, 48721, Note_off_c, 9, 64, 104
1, 48723, Note_on_c, 9, 69, 50
1, 48724, Note_off_c, 9, 69, 68
1, 48741, Note_off_c, 1, 50, 99
1, 48767, Note_on_c, 9, 42, 92
1, 48767, Note_on_c, 9, 69, 104
1, 48768, Note_on_c, 9, 36, 124
1, 48768, Note_on_c, 1, 38, 122
1, 48768, Note_off_c, 9, 42, 100
1, 48768, Note_on_c, 9, 63, 124
1, 48768, Note_off_c, 9, 69, 84
1, 48768, Note_on_c, 2, 72, 113
1, 48768, Note_on_c, 2, 77, 114
1, 48769, Note_off_c, 9, 36, 108
1, 48769, Note_off_c, 9, 63, 96
1, 48771, Note_off_c, 2, 69, 108
1, 48784, Note_off_c, 2, 77, 111
1, 48785, Note_off_c, 2, 72, 113
1, 48819, Note_on_c, 9, 69, 50
1, 48820, Note_off_c, 9, 69, 84
1, 48826, Note_off_c, 1, 38, 91
1, 48863, Note_on_c, 9, 42, 124
1, 48863, Note_on_c, 9, 69, 100
1, 48864, Note_off_c, 9, 42, 96
1, 48864, Note_on_c, 1, 50, 114
1, 48864, Note_on_c, 9, 63, 124
1, 48864, Note_off_c, 9, 69, 92
1, 48864, Note_on_c, 2, 69, 110
1, 48864, Note_on_c, 2, 72, 114
1, 48864, Note_on_c, 2, 77, 111
1, 48865, Note_off_c, 9, 63, 100
1, 48880, Note_off_c, 2, 72, 113
1, 48883, Note_off_c, 2, 77, 113
1, 48883, Note_off_c, 1, 50, 108
1, 48884, Note_off_c, 2, 69, 111
1, 48912, Note_on_c, 1, 50, 113
1, 48915, Note_on_c, 9, 69, 50
1, 48916, Note_off_c, 9, 69, 92
1, 48934, Note_off_c, 1, 50, 104
1, 48959, Note_on_c, 9, 42, 96
1, 48959, Note_on_c, 9, 69, 100
1, 48960, Note_on_c, 9, 36, 124
1, 48960, Note_on_c, 1, 38, 117
1, 48960, Note_on_c, 9, 40, 124
1, 48960, Note_off_c, 9, 42, 100
1, 48960, Note_on_c, 9, 62, 124
1, 48960, Note_off_c, 9, 69, 92
1, 48960, Note_on_c, 2, 69, 113
1, 48960, Note_on_c, 2, 72, 123
1, 48960, Note_on_c, 2, 77, 122
1, 48961, Note_off_c, 9, 36, 112
1, 48961, Note_off_c, 9, 40, 108
1, 48961, Note_off_c, 9, 62, 104
1, 48989, Note_off_c, 2, 72, 111
1, 48990, Note_off_c, 2, 69, 108
1, 48996, Note_off_c, 2, 77, 113
1, 49011, Note_on_c, 9, 69, 50
1, 49012, Note_off_c, 9, 69, 92
1, 49027, Note_off_c, 1, 38, 91
1, 49055, Note_on_c, 9, 42, 124
1, 49055, Note_on_c, 9, 69, 100
1, 49056, Note_off_c, 9, 42, 100
1, 49056, Note_on_c, 1, 45, 116
1, 49056, Note_on_c, 9, 64, 112
1, 49056, Note_off_c, 9, 69, 92
1, 49056, Note_on_c, 3, 72, 106
1, 49057, Note_off_c, 9, 64, 104
1, 49077, Note_off_c, 3, 72, 102
1, 49081, Note_off_c, 1, 45, 108
1, 49104, Note_on_c, 1, 45, 110
1, 49104, Note_on_c, 9, 64, 108
1, 49104, Note_on_c, 3, 72, 110
1, 49105, Note_off_c, 9, 64, 112
1, 49107, Note_on_c, 9, 69, 50
1, 49108, Note_off_c, 9, 69, 92
1, 49131, Note_off_c, 3, 72, 97
1, 49132, Note_off_c, 1, 45, 110
1, 49150, Note_off_c, 6, 86, 106
1, 49151, Note_on_c, 9, 42, 76
1, 49151, Note_off_c, 11, 50, 97
1, 49151, Note_on_c, 9, 69, 96
1, 49151, Note_off_c, 6, 77, 111
1, 49152, Note_on_c, 1, 33, 116
1, 49152, Note_on_c, 9, 36, 124
1, 49152, Note_off_c, 9, 42, 96
1, 49152, Note_on_c, 11, 45, 119
1, 49152, Note_on_c, 9, 63, 120
1, 49152, Note_off_c, 9, 69, 80
1, 49152, Note_on_c, 3, 76, 119
1, 49152, Note_on_c, 6, 76, 90
1, 49152, Note_on_c, 6, 84, 90
1, 49153, Note_off_c, 9, 36, 76
1, 49153, Note_off_c, 9, 63, 92
1, 49203, Note_on_c, 9, 69, 50
1, 49204, Note_on_c, 2, 67, 106
1, 49204, Note_off_c, 9, 69, 80
1, 49217, Note_off_c, 1, 33, 94
1, 49230, Note_off_c, 2, 67, 99
1, 49247, Note_on_c, 9, 42, 124
1, 49247, Note_on_c, 9, 69, 88
1, 49248, Note_off_c, 9, 42, 100
1, 49248, Note_on_c, 1, 45, 114
1, 49248, Note_on_c, 9, 63, 116
1, 49248, Note_off_c, 9, 69, 76
1, 49248, Note_on_c, 2, 72, 110
1, 49248, Note_on_c, 2, 76, 108
1, 49249, Note_off_c, 9, 63, 84
1, 49264, Note_off_c, 1, 45, 116
1, 49267, Note_off_c, 2, 72, 111
1, 49268, Note_off_c, 2, 76, 106
1, 49296, Note_on_c, 1, 45, 117
1, 49299, Note_on_c, 9, 69, 50
1, 49300, Note_off_c, 9, 69, 76
1, 49307, Note_off_c, 3, 76, 102
1, 49316, Note_off_c, 1, 45, 102
1, 49343, Note_on_c, 9, 42, 92
1, 49343, Note_on_c, 9, 69, 104
1, 49344, Note_on_c, 1, 33, 117
1, 49344, Note_on_c, 9, 36, 124
1, 49344, Note_on_c, 9, 40, 124
1, 49344, Note_off_c, 9, 42, 100
1, 49344, Note_on_c, 9, 62, 124
1, 49344, Note_on_c, 2, 67, 111
1, 49344, Note_off_c, 9, 69, 68
1, 49344, Note_on_c, 2, 72, 122
1, 49344, Note_on_c, 3, 76, 116
1, 49344, Note_on_c, 2, 76, 120
1, 49345, Note_off_c, 9, 36, 96
1, 49345, Note_off_c, 9, 40, 96
1, 49345, Note_off_c, 9, 62, 108
1, 49395, Note_on_c, 9, 69, 50
1, 49396, Note_off_c, 9, 69, 68
1, 49402, Note_off_c, 3, 76, 110
1, 49413, Note_off_c, 1, 33, 97
1, 49439, Note_on_c, 9, 42, 124
1, 49439, Note_on_c, 9, 69, 96
1, 49440, Note_off_c, 9, 42, 92
1, 49440, Note_on_c, 1, 45, 114
1, 49440, Note_on_c, 9, 64, 116
1, 49440, Note_off_c, 9, 69, 68
1, 49440, Note_on_c, 3, 76, 114
1, 49441, Note_off_c, 9, 64, 96
1, 49457, Note_off_c, 1, 45, 114
1, 49472, Note_off_c, 2, 67, 88
1, 49483, Note_off_c, 2, 76, 97
1, 49488, Note_on_c, 1, 45, 114
1, 49488, Note_on_c, 9, 64, 108
1, 49488, Note_off_c, 2, 72, 108
1, 49489, Note_off_c, 9, 64, 104
1, 49491, Note_on_c, 9, 69, 50
1, 49492, Note_on_c, 2, 67, 108
1, 49492, Note_off_c, 9, 69, 68
1, 49499, Note_off_c, 3, 76, 104
1, 49509, Note_off_c, 1, 45, 94
1, 49535, Note_on_c, 9, 42, 84
1, 49535, Note_on_c, 9, 69, 104
1, 49536, Note_on_c, 1, 33, 122
1, 49536, Note_on_c, 9, 36, 124
1, 49536, Note_off_c, 9, 42, 96
1, 49536, Note_on_c, 9, 63, 124
1, 49536, Note_off_c, 9, 69, 84
1, 49536, Note_on_c, 2, 72, 114
1, 49536, Note_on_c, 3, 76, 116
1, 49536, Note_on_c, 2, 76, 113
1, 49537, Note_off_c, 2, 67, 102
1, 49537, Note_off_c, 9, 36, 108
1, 49537, Note_off_c, 9, 63, 96
1, 49551, Note_off_c, 2, 72, 113
1, 49551, Note_off_c, 2, 76, 108
1, 49587, Note_on_c, 9, 69, 50
1, 49588, Note_off_c, 9, 69, 84
1, 49601, Note_off_c, 1, 33, 97
1, 49615, Note_off_c, 3, 76, 110
1, 49631, Note_on_c, 9, 42, 124
1, 49631, Note_on_c, 9, 69, 100
1, 49632, Note_off_c, 9, 42, 100
1, 49632, Note_on_c, 1, 45, 113
1, 49632, Note_on_c, 9, 63, 124
1, 49632, Note_on_c, 2, 67, 113
1, 49632, Note_off_c, 9, 69, 92
1, 49632, Note_on_c, 3, 72, 117
1, 49632, Note_on_c, 2, 72, 124
1, 49632, Note_on_c, 2, 76, 122
1, 49633, Note_off_c, 9, 63, 100
1, 49649, Note_off_c, 1, 45, 113
1, 49670, Note_off_c, 2, 76, 111
1, 49676, Note_off_c, 2, 72, 99
1, 49680, Note_on_c, 1, 45, 108
1, 49683, Note_on_c, 9, 69, 50
1, 49684, Note_off_c, 9, 69, 92
1, 49699, Note_off_c, 2, 67, 102
1, 49704, Note_off_c, 1, 45, 97
1, 49727, Note_on_c, 9, 42, 100
1, 49727, Note_on_c, 9, 69, 100
1, 49728, Note_on_c, 1, 33, 117
1, 49728, Note_on_c, 9, 36, 124
1, 49728, Note_on_c, 9, 40, 124
1, 49728, Note_off_c, 9, 42, 100
1, 49728, Note_on_c, 9, 62, 124
1, 49728, Note_off_c, 9, 69, 92
1, 49729, Note_off_c, 9, 36, 112
1, 49729, Note_off_c, 9, 40, 108
1, 49729, Note_off_c, 9, 62, 104
1, 49760, Note_off_c, 3, 72, 106
1, 49779, Note_on_c, 9, 69, 50
1, 49780, Note_off_c, 9, 69, 92
1, 49798, Note_off_c, 1, 33, 102
1, 49823, Note_on_c, 9, 42, 124
1, 49823, Note_on_c, 9, 69, 100
1, 49824, Note_off_c, 9, 42, 100
1, 49824, Note_on_c, 1, 45, 116
1, 49824, Note_on_c, 9, 64, 112
1, 49824, Note_off_c, 9, 69, 92
1, 49824, Note_on_c, 3, 72, 111
1, 49825, Note_off_c, 9, 64, 104
1, 49842, Note_off_c, 1, 45, 113
1, 49872, Note_on_c, 1, 45, 119
1, 49872, Note_on_c, 9, 64, 108
1, 49873, Note_off_c, 9, 64, 112
1, 49875, Note_on_c, 9, 69, 50
1, 49876, Note_off_c, 9, 69, 92
1, 49890, Note_off_c, 1, 45, 97
1, 49915, Note_off_c, 6, 84, 108
1, 49919, Note_on_c, 9, 42, 92
1, 49919, Note_off_c, 11, 45, 99
1, 49919, Note_on_c, 9, 69, 96
1, 49919, Note_off_c, 6, 76, 110
1, 49920, Note_on_c, 9, 36, 124
1, 49920, Note_on_c, 1, 38, 120
1, 49920, Note_off_c, 9, 42, 100
1, 49920, Note_on_c, 11, 50, 116
1, 49920, Note_on_c, 9, 63, 120
1, 49920, Note_off_c, 9, 69, 80
1, 49920, Note_on_c, 6, 77, 90
1, 49920, Note_on_c, 6, 86, 90
1, 49921, Note_off_c, 9, 36, 76
1, 49921, Note_off_c, 9, 63, 92
1, 49971, Note_on_c, 9, 69, 50
1, 49972, Note_off_c, 9, 69, 80
1, 49972, Note_on_c, 2, 69, 84
1, 49985, Note_off_c, 1, 38, 102
1, 50015, Note_on_c, 9, 42, 124
1, 50015, Note_off_c, 2, 69, 108
1, 50015, Note_on_c, 9, 69, 88
1, 50016, Note_off_c, 9, 42, 100
1, 50016, Note_on_c, 1, 50, 116
1, 50016, Note_on_c, 9, 63, 116
1, 50016, Note_off_c, 9, 69, 76
1, 50016, Note_on_c, 2, 72, 108
1, 50016, Note_on_c, 2, 77, 102
1, 50017, Note_off_c, 9, 63, 84
1, 50034, Note_off_c, 1, 50, 111
1, 50036, Note_off_c, 2, 72, 110
1, 50036, Note_off_c, 2, 77, 110
1, 50054, Note_off_c, 3, 72, 110
1, 50064, Note_on_c, 1, 50, 120
1, 50067, Note_on_c, 9, 69, 50
1, 50068, Note_off_c, 9, 69, 76
1, 50079, Note_off_c, 1, 50, 111
1, 50111, Note_on_c, 9, 42, 100
1, 50111, Note_on_c, 9, 69, 104
1, 50112, Note_on_c, 9, 36, 124
1, 50112, Note_on_c, 1, 38, 122
1, 50112, Note_on_c, 9, 40, 124
1, 50112, Note_off_c, 9, 42, 100
1, 50112, Note_on_c, 9, 62, 124
1, 50112, Note_off_c, 9, 69, 68
1, 50112, Note_on_c, 2, 69, 113
1, 50112, Note_on_c, 2, 72, 122
1, 50112, Note_on_c, 2, 77, 120
1, 50113, Note_off_c, 9, 36, 96
1, 50113, Note_off_c, 9, 40, 96
1, 50113, Note_off_c, 9, 62, 108
1, 50163, Note_on_c, 9, 69, 50
1, 50164, Note_off_c, 9, 69, 68
1, 50185, Note_off_c, 1, 38, 102
1, 50207, Note_on_c, 9, 42, 124
1, 50207, Note_on_c, 9, 69, 96
1, 50208, Note_off_c, 9, 42, 104
1, 50208, Note_on_c, 1, 50, 116
1, 50208, Note_on_c, 9, 64, 116
1, 50208, Note_off_c, 9, 69, 68
1, 50209, Note_off_c, 9, 64, 96
1, 50225, Note_off_c, 1, 50, 113
1, 50230, Note_off_c, 2, 69, 88
1, 50240, Note_off_c, 2, 72, 108
1, 50241, Note_off_c, 2, 77, 106
1, 50256, Note_on_c, 1, 50, 116
1, 50256, Note_on_c, 9, 64, 108
1, 50257, Note_off_c, 9, 64, 104
1, 50259, Note_on_c, 9, 69, 50
1, 50260, Note_off_c, 9, 69, 68
1, 50260, Note_on_c, 2, 69, 88
1, 50277, Note_off_c, 1, 50, 99
1, 50288, Note_off_c, 2, 69, 106
1, 50303, Note_on_c, 9, 42, 92
1, 50303, Note_on_c, 9, 69, 104
1, 50304, Note_on_c, 9, 36, 124
1, 50304, Note_on_c, 1, 38, 122
1, 50304, Note_off_c, 9, 42, 100
1, 50304, Note_on_c, 9, 63, 124
1, 50304, Note_off_c, 9, 69, 84
1, 50304, Note_on_c, 2, 72, 113
1, 50304, Note_on_c, 2, 77, 108
1, 50305, Note_off_c, 9, 36, 108
1, 50305, Note_off_c, 9, 63, 96
1, 50323, Note_off_c, 2, 77, 108
1, 50324, Note_off_c, 2, 72, 111
1, 50355, Note_on_c, 9, 69, 50
1, 50356, Note_off_c, 9, 69, 84
1, 50362, Note_off_c, 1, 38, 91
1, 50399, Note_on_c, 9, 42, 124
1, 50399, Note_on_c, 9, 69, 100
1, 50400, Note_off_c, 9, 42, 108
1, 50400, Note_on_c, 1, 50, 114
1, 50400, Note_on_c, 9, 63, 124
1, 50400, Note_off_c, 9, 69, 92
1, 50400, Note_on_c, 2, 69, 106
1, 50400, Note_on_c, 2, 72, 120
1, 50400, Note_on_c, 2, 77, 117
1, 50401, Note_off_c, 9, 63, 100
1, 50414, Note_off_c, 2, 77, 108
1, 50419, Note_off_c, 1, 50, 108
1, 50421, Note_off_c, 2, 69, 108
1, 50423, Note_off_c, 2, 72, 102
1, 50448, Note_on_c, 1, 50, 113
1, 50451, Note_on_c, 9, 69, 50
1, 50452, Note_off_c, 9, 69, 92
1, 50470, Note_off_c, 1, 50, 104
1, 50493, Note_off_c, 6, 86, 108
1, 50495, Note_on_c, 9, 42, 96
1, 50495, Note_on_c, 9, 69, 100
1, 50496, Note_on_c, 9, 36, 124
1, 50496, Note_on_c, 1, 38, 117
1, 50496, Note_on_c, 9, 40, 124
1, 50496, Note_off_c, 9, 42, 100
1, 50496, Note_on_c, 9, 62, 124
1, 50496, Note_off_c, 9, 69, 92
1, 50496, Note_on_c, 2, 69, 120
1, 50496, Note_on_c, 2, 72, 124
1, 50496, Note_on_c, 2, 77, 124
1, 50496, Note_on_c, 6, 84, 90
1, 50497, Note_off_c, 9, 36, 112
1, 50497, Note_off_c, 9, 40, 108
1, 50497, Note_off_c, 9, 62, 104
1, 50542, Note_off_c, 2, 69, 108
1, 50546, Note_off_c, 2, 72, 108
1, 50547, Note_on_c, 9, 69, 50
1, 50548, Note_off_c, 9, 69, 92
1, 50559, Note_off_c, 2, 77, 111
1, 50563, Note_off_c, 1, 38, 91
1, 50591, Note_on_c, 9, 42, 121
1, 50591, Note_on_c, 9, 69, 100
1, 50592, Note_off_c, 9, 42, 100
1, 50592, Note_on_c, 1, 45, 116
1, 50592, Note_on_c, 9, 64, 112
1, 50592, Note_off_c, 9, 69, 92
1, 50593, Note_off_c, 9, 64, 104
1, 50617, Note_off_c, 1, 45, 108
1, 50640, Note_on_c, 1, 45, 110
1, 50640, Note_on_c, 9, 64, 108
1, 50641, Note_off_c, 9, 64, 112
1, 50643, Note_on_c, 9, 69, 50
1, 50644, Note_off_c, 9, 69, 92
1, 50668, Note_off_c, 1, 45, 110
1, 50683, Note_off_c, 6, 81, 110
1, 50686, Note_off_c, 6, 84, 110
1, 50687, Note_on_c, 9, 42, 92
1, 50687, Note_off_c, 11, 50, 111
1, 50687, Note_on_c, 9, 69, 96
1, 50688, Note_on_c, 1, 31, 116
1, 50688, Note_on_c, 9, 36, 124
1, 50688, Note_off_c, 9, 42, 100
1, 50688, Note_on_c, 11, 43, 116
1, 50688, Note_on_c, 9, 63, 120
1, 50688, Note_on_c, 2, 67, 122
1, 50688, Note_off_c, 9, 69, 80
1, 50688, Note_on_c, 2, 70, 122
1, 50688, Note_on_c, 2, 74, 122
1, 50688, Note_on_c, 6, 74, 90
1, 50688, Note_on_c, 3, 82, 123
1, 50688, Note_on_c, 6, 82, 90
1, 50689, Note_off_c, 9, 36, 76
1, 50689, Note_off_c, 9, 63, 92
1, 50739, Note_on_c, 9, 69, 50
1, 50740, Note_off_c, 9, 69, 80
1, 50753, Note_off_c, 1, 31, 94
1, 50765, Note_off_c, 3, 82, 108
1, 50783, Note_on_c, 9, 42, 124
1, 50783, Note_on_c, 9, 69, 88
1, 50784, Note_off_c, 9, 42, 96
1, 50784, Note_on_c, 1, 43, 114
1, 50784, Note_on_c, 9, 63, 116
1, 50784, Note_off_c, 9, 69, 76
1, 50784, Note_on_c, 3, 81, 119
1, 50785, Note_off_c, 9, 63, 84
1, 50800, Note_off_c, 1, 43, 116
1, 50818, Note_off_c, 2, 67, 35
1, 50818, Note_off_c, 2, 74, 102
1, 50822, Note_off_c, 2, 70, 102
1, 50832, Note_on_c, 1, 43, 117
1, 50835, Note_on_c, 9, 69, 50
1, 50836, Note_on_c, 2, 67, 97
1, 50836, Note_off_c, 9, 69, 76
1, 50852, Note_off_c, 1, 43, 102
1, 50879, Note_on_c, 9, 42, 100
1, 50879, Note_on_c, 9, 69, 104
1, 50880, Note_on_c, 1, 31, 117
1, 50880, Note_on_c, 9, 36, 124
1, 50880, Note_on_c, 9, 40, 124
1, 50880, Note_off_c, 9, 42, 100
1, 50880, Note_on_c, 9, 62, 124
1, 50880, Note_off_c, 9, 69, 68
1, 50880, Note_on_c, 2, 70, 124
1, 50880, Note_on_c, 2, 74, 126
1, 50881, Note_off_c, 9, 36, 96
1, 50881, Note_off_c, 9, 40, 96
1, 50881, Note_off_c, 9, 62, 108
1, 50900, Note_off_c, 3, 81, 111
1, 50902, Note_off_c, 2, 70, 110
1, 50911, Note_off_c, 2, 74, 97
1, 50913, Note_off_c, 2, 67, 108
1, 50931, Note_on_c, 9, 69, 50
1, 50932, Note_off_c, 9, 69, 68
1, 50949, Note_off_c, 1, 31, 97
1, 50975, Note_on_c, 9, 42, 124
1, 50975, Note_on_c, 9, 69, 96
1, 50976, Note_off_c, 9, 42, 100
1, 50976, Note_on_c, 1, 43, 114
1, 50976, Note_on_c, 9, 64, 116
1, 50976, Note_on_c, 2, 67, 44
1, 50976, Note_off_c, 9, 69, 68
1, 50976, Note_on_c, 3, 77, 122
1, 50977, Note_off_c, 9, 64, 96
1, 50993, Note_off_c, 2, 67, 81
1, 50993, Note_off_c, 1, 43, 114
1, 51024, Note_on_c, 1, 43, 114
1, 51024, Note_on_c, 9, 64, 108
1, 51025, Note_off_c, 9, 64, 104
1, 51027, Note_on_c, 9, 69, 50
1, 51028, Note_off_c, 9, 69, 68
1, 51045, Note_off_c, 1, 43, 94
1, 51071, Note_on_c, 9, 42, 84
1, 51071, Note_on_c, 9, 69, 104
1, 51072, Note_on_c, 1, 31, 122
1, 51072, Note_on_c, 9, 36, 124
1, 51072, Note_off_c, 9, 42, 96
1, 51072, Note_on_c, 9, 63, 124
1, 51072, Note_on_c, 2, 67, 122
1, 51072, Note_off_c, 9, 69, 84
1, 51072, Note_on_c, 2, 70, 122
1, 51072, Note_on_c, 2, 74, 117
1, 51073, Note_off_c, 9, 36, 108
1, 51073, Note_off_c, 9, 63, 96
1, 51094, Note_off_c, 2, 70, 108
1, 51101, Note_off_c, 2, 67, 111
1, 51102, Note_off_c, 2, 74, 97
1, 51123, Note_on_c, 9, 69, 50
1, 51124, Note_off_c, 9, 69, 84
1, 51137, Note_off_c, 1, 31, 97
1, 51143, Note_off_c, 3, 77, 111
1, 51167, Note_on_c, 9, 42, 124
1, 51167, Note_on_c, 9, 69, 100
1, 51168, Note_off_c, 9, 42, 100
1, 51168, Note_on_c, 1, 43, 113
1, 51168, Note_on_c, 9, 63, 124
1, 51168, Note_off_c, 9, 69, 92
1, 51168, Note_on_c, 3, 74, 113
1, 51169, Note_off_c, 9, 63, 100
1, 51185, Note_off_c, 1, 43, 113
1, 51216, Note_on_c, 1, 43, 108
1, 51219, Note_on_c, 9, 69, 50
1, 51220, Note_off_c, 9, 69, 92
1, 51240, Note_off_c, 1, 43, 97
1, 51263, Note_on_c, 9, 42, 104
1, 51263, Note_off_c, 11, 43, 99
1, 51263, Note_on_c, 9, 69, 100
1, 51264, Note_on_c, 1, 33, 117
1, 51264, Note_on_c, 9, 36, 124
1, 51264, Note_on_c, 9, 40, 124
1, 51264, Note_off_c, 9, 42, 100
1, 51264, Note_on_c, 11, 45, 119
1, 51264, Note_on_c, 9, 62, 124
1, 51264, Note_on_c, 2, 67, 120
1, 51264, Note_off_c, 9, 69, 92
1, 51264, Note_on_c, 2, 70, 123
1, 51264, Note_on_c, 2, 74, 124
1, 51265, Note_off_c, 9, 36, 112
1, 51265, Note_off_c, 9, 40, 108
1, 51265, Note_off_c, 9, 62, 104
1, 51291, Note_off_c, 2, 70, 104
1, 51294, Note_off_c, 2, 67, 113
1, 51301, Note_off_c, 2, 74, 104
1, 51304, Note_off_c, 3, 74, 104
1, 51315, Note_on_c, 9, 69, 50
1, 51316, Note_off_c, 9, 69, 92
1, 51334, Note_off_c, 1, 33, 102
1, 51359, Note_on_c, 9, 42, 124
1, 51359, Note_on_c, 9, 69, 100
1, 51360, Note_off_c, 9, 42, 100
1, 51360, Note_on_c, 1, 45, 116
1, 51360, Note_on_c, 9, 64, 112
1, 51360, Note_off_c, 9, 69, 92
1, 51361, Note_off_c, 9, 64, 104
1, 51378, Note_off_c, 1, 45, 113
1, 51408, Note_on_c, 1, 45, 119
1, 51408, Note_on_c, 9, 64, 108
1, 51409, Note_off_c, 9, 64, 112
1, 51411, Note_on_c, 9, 69, 50
1, 51412, Note_off_c, 9, 69, 92
1, 51426, Note_off_c, 1, 45, 97
1, 51453, Note_off_c, 6, 74, 102
1, 51455, Note_on_c, 9, 42, 104
1, 51455, Note_off_c, 11, 45, 99
1, 51455, Note_on_c, 9, 69, 96
1, 51456, Note_on_c, 1, 34, 116
1, 51456, Note_on_c, 9, 36, 124
1, 51456, Note_off_c, 9, 42, 100
1, 51456, Note_on_c, 11, 46, 122
1, 51456, Note_on_c, 9, 63, 120
1, 51456, Note_on_c, 2, 65, 113
1, 51456, Note_off_c, 9, 69, 80
1, 51456, Note_on_c, 2, 70, 122
1, 51456, Note_on_c, 2, 73, 123
1, 51456, Note_on_c, 6, 73, 90
1, 51456, Note_on_c, 3, 82, 123
1, 51457, Note_off_c, 9, 36, 76
1, 51457, Note_off_c, 9, 63, 92
1, 51507, Note_on_c, 9, 69, 50
1, 51508, Note_off_c, 9, 69, 80
1, 51521, Note_off_c, 1, 34, 94
1, 51551, Note_on_c, 9, 42, 124
1, 51551, Note_on_c, 9, 69, 88
1, 51552, Note_off_c, 9, 42, 100
1, 51552, Note_on_c, 1, 46, 114
1, 51552, Note_on_c, 9, 63, 116
1, 51552, Note_off_c, 9, 69, 76
1, 51553, Note_off_c, 9, 63, 84
1, 51568, Note_off_c, 1, 46, 116
1, 51585, Note_off_c, 2, 65, 71
1, 51595, Note_off_c, 3, 82, 108
1, 51600, Note_on_c, 1, 46, 117
1, 51602, Note_off_c, 2, 70, 104
1, 51603, Note_on_c, 9, 69, 50
1, 51604, Note_on_c, 2, 65, 102
1, 51604, Note_off_c, 9, 69, 76
1, 51605, Note_off_c, 2, 73, 106
1, 51620, Note_off_c, 1, 46, 102
1, 51647, Note_on_c, 9, 42, 108
1, 51647, Note_on_c, 9, 69, 104
1, 51648, Note_on_c, 1, 34, 117
1, 51648, Note_on_c, 9, 36, 124
1, 51648, Note_on_c, 9, 40, 124
1, 51648, Note_off_c, 9, 42, 100
1, 51648, Note_on_c, 9, 62, 124
1, 51648, Note_off_c, 9, 69, 68
1, 51648, Note_on_c, 2, 70, 122
1, 51648, Note_on_c, 2, 73, 123
1, 51648, Note_on_c, 3, 81, 122
1, 51649, Note_off_c, 9, 36, 96
1, 51649, Note_off_c, 9, 40, 96
1, 51649, Note_off_c, 9, 62, 108
1, 51664, Note_off_c, 2, 65, 108
1, 51672, Note_off_c, 2, 70, 111
1, 51676, Note_off_c, 2, 73, 111
1, 51699, Note_on_c, 9, 69, 50
1, 51700, Note_off_c, 9, 69, 68
1, 51717, Note_off_c, 1, 34, 97
1, 51743, Note_on_c, 9, 42, 124
1, 51743, Note_on_c, 9, 69, 96
1, 51744, Note_off_c, 9, 42, 100
1, 51744, Note_on_c, 1, 46, 114
1, 51744, Note_on_c, 9, 64, 116
1, 51744, Note_off_c, 9, 69, 68
1, 51745, Note_off_c, 9, 64, 96
1, 51761, Note_off_c, 1, 46, 114
1, 51792, Note_on_c, 1, 46, 114
1, 51792, Note_on_c, 9, 64, 108
1, 51793, Note_off_c, 9, 64, 104
1, 51795, Note_on_c, 9, 69, 50
1, 51796, Note_off_c, 9, 69, 68
1, 51812, Note_off_c, 3, 81, 76
1, 51813, Note_off_c, 1, 46, 94
1, 51839, Note_on_c, 9, 42, 104
1, 51839, Note_on_c, 9, 69, 104
1, 51840, Note_on_c, 1, 34, 122
1, 51840, Note_on_c, 9, 36, 124
1, 51840, Note_off_c, 9, 42, 100
1, 51840, Note_on_c, 9, 63, 124
1, 51840, Note_on_c, 2, 65, 114
1, 51840, Note_off_c, 9, 69, 84
1, 51840, Note_on_c, 2, 70, 123
1, 51840, Note_on_c, 2, 73, 123
1, 51840, Note_on_c, 3, 77, 122
1, 51841, Note_off_c, 9, 36, 108
1, 51841, Note_off_c, 9, 63, 96
1, 51872, Note_off_c, 2, 70, 106
1, 51873, Note_off_c, 2, 73, 108
1, 51883, Note_off_c, 2, 65, 104
1, 51891, Note_on_c, 9, 69, 50
1, 51892, Note_off_c, 9, 69, 84
1, 51905, Note_off_c, 1, 34, 97
1, 51935, Note_on_c, 9, 46, 109
1, 51935, Note_on_c, 9, 69, 100
1, 51936, Note_off_c, 9, 46, 104
1, 51936, Note_on_c, 1, 46, 113
1, 51936, Note_on_c, 9, 63, 124
1, 51936, Note_off_c, 9, 69, 92
1, 51937, Note_off_c, 9, 63, 100
1, 51953, Note_off_c, 1, 46, 113
1, 51983, Note_off_c, 3, 77, 110
1, 51984, Note_on_c, 1, 46, 108
1, 51987, Note_on_c, 9, 69, 50
1, 51988, Note_off_c, 9, 69, 92
1, 52008, Note_off_c, 1, 46, 97
1, 52031, Note_on_c, 9, 42, 96
1, 52031, Note_on_c, 9, 69, 100
1, 52032, Note_on_c, 1, 34, 117
1, 52032, Note_on_c, 9, 36, 124
1, 52032, Note_on_c, 9, 40, 124
1, 52032, Note_off_c, 9, 42, 100
1, 52032, Note_on_c, 9, 62, 124
1, 52032, Note_on_c, 2, 65, 119
1, 52032, Note_off_c, 9, 69, 92
1, 52032, Note_on_c, 2, 70, 123
1, 52032, Note_on_c, 3, 73, 114
1, 52032, Note_on_c, 2, 73, 124
1, 52033, Note_off_c, 9, 36, 112
1, 52033, Note_off_c, 9, 40, 108
1, 52033, Note_off_c, 9, 62, 104
1, 52063, Note_off_c, 3, 73, 108
1, 52083, Note_on_c, 9, 69, 50
1, 52084, Note_off_c, 9, 69, 92
1, 52102, Note_off_c, 1, 34, 102
1, 52117, Note_off_c, 2, 65, 97
1, 52119, Note_off_c, 2, 70, 106
1, 52119, Note_off_c, 2, 73, 106
1, 52127, Note_on_c, 9, 42, 124
1, 52127, Note_on_c, 9, 69, 100
1, 52128, Note_off_c, 9, 42, 104
1, 52128, Note_on_c, 1, 46, 116
1, 52128, Note_on_c, 9, 64, 112
1, 52128, Note_off_c, 9, 69, 92
1, 52128, Note_on_c, 3, 73, 119
1, 52129, Note_off_c, 9, 64, 104
1, 52146, Note_off_c, 1, 46, 113
1, 52176, Note_on_c, 1, 46, 119
1, 52176, Note_on_c, 9, 64, 108
1, 52177, Note_off_c, 9, 64, 112
1, 52179, Note_on_c, 9, 69, 50
1, 52180, Note_off_c, 9, 69, 92
1, 52194, Note_off_c, 1, 46, 97
1, 52218, Note_off_c, 6, 82, 108
1, 52221, Note_off_c, 6, 73, 106
1, 52223, Note_on_c, 9, 42, 100
1, 52223, Note_off_c, 11, 46, 106
1, 52223, Note_on_c, 9, 69, 96
1, 52224, Note_on_c, 1, 36, 116
1, 52224, Note_on_c, 9, 36, 124
1, 52224, Note_off_c, 9, 42, 92
1, 52224, Note_on_c, 11, 48, 113
1, 52224, Note_on_c, 9, 63, 120
1, 52224, Note_off_c, 9, 69, 80
1, 52224, Note_on_c, 6, 72, 90
1, 52224, Note_on_c, 6, 84, 90
1, 52225, Note_off_c, 9, 36, 76
1, 52225, Note_off_c, 9, 63, 92
1, 52275, Note_on_c, 9, 69, 50
1, 52276, Note_off_c, 9, 69, 80
1, 52289, Note_off_c, 1, 36, 94
1, 52312, Note_off_c, 3, 73, 102
1, 52319, Note_on_c, 9, 42, 120
1, 52319, Note_on_c, 9, 69, 88
1, 52320, Note_off_c, 9, 42, 92
1, 52320, Note_on_c, 1, 48, 114
1, 52320, Note_on_c, 2, 60, 110
1, 52320, Note_on_c, 9, 63, 116
1, 52320, Note_on_c, 2, 65, 108
1, 52320, Note_off_c, 9, 69, 76
1, 52320, Note_on_c, 3, 72, 116
1, 52321, Note_off_c, 9, 63, 84
1, 52336, Note_off_c, 1, 48, 116
1, 52341, Note_off_c, 2, 65, 110
1, 52344, Note_off_c, 2, 60, 102
1, 52368, Note_on_c, 1, 48, 117
1, 52371, Note_on_c, 9, 69, 50
1, 52372, Note_off_c, 9, 69, 76
1, 52388, Note_off_c, 1, 48, 102
1, 52415, Note_on_c, 9, 42, 124
1, 52415, Note_on_c, 9, 69, 104
1, 52416, Note_on_c, 1, 36, 117
1, 52416, Note_on_c, 9, 36, 124
1, 52416, Note_on_c, 9, 40, 124
1, 52416, Note_off_c, 9, 42, 96
1, 52416, Note_on_c, 2, 60, 114
1, 52416, Note_on_c, 9, 62, 124
1, 52416, Note_on_c, 2, 65, 120
1, 52416, Note_off_c, 9, 69, 68
1, 52416, Note_on_c, 2, 70, 123
1, 52417, Note_off_c, 9, 36, 96
1, 52417, Note_off_c, 9, 40, 96
1, 52417, Note_off_c, 9, 62, 108
1, 52467, Note_on_c, 9, 69, 50
1, 52468, Note_off_c, 9, 69, 68
1, 52485, Note_off_c, 1, 36, 97
1, 52511, Note_on_c, 9, 46, 124
1, 52511, Note_on_c, 9, 69, 96
1, 52512, Note_off_c, 9, 46, 100
1, 52512, Note_on_c, 1, 48, 114
1, 52512, Note_on_c, 9, 64, 116
1, 52512, Note_off_c, 9, 69, 68
1, 52513, Note_off_c, 9, 64, 96
1, 52529, Note_off_c, 1, 48, 114
1, 52530, Note_off_c, 2, 60, 97
1, 52533, Note_off_c, 2, 65, 94
1, 52557, Note_off_c, 2, 70, 97
1, 52560, Note_on_c, 9, 40, 81
1, 52560, Note_on_c, 1, 48, 114
1, 52560, Note_on_c, 9, 64, 108
1, 52561, Note_off_c, 9, 40, 96
1, 52561, Note_off_c, 9, 64, 104
1, 52563, Note_on_c, 9, 69, 50
1, 52564, Note_on_c, 2, 60, 104
1, 52564, Note_off_c, 9, 69, 68
1, 52581, Note_off_c, 1, 48, 94
1, 52607, Note_on_c, 9, 44, 76
1, 52607, Note_on_c, 9, 69, 104
1, 52608, Note_on_c, 1, 36, 122
1, 52608, Note_on_c, 9, 36, 124
1, 52608, Note_on_c, 9, 40, 124
1, 52608, Note_off_c, 9, 44, 100
1, 52608, Note_on_c, 9, 63, 124
1, 52608, Note_on_c, 2, 65, 108
1, 52608, Note_off_c, 9, 69, 84
1, 52608, Note_on_c, 2, 70, 102
1, 52609, Note_off_c, 9, 36, 108
1, 52609, Note_off_c, 9, 40, 108
1, 52609, Note_off_c, 9, 63, 96
1, 52619, Note_off_c, 2, 60, 108
1, 52627, Note_off_c, 2, 70, 106
1, 52636, Note_off_c, 3, 72, 110
1, 52642, Note_off_c, 2, 65, 108
1, 52659, Note_on_c, 9, 69, 50
1, 52660, Note_off_c, 9, 69, 84
1, 52673, Note_off_c, 1, 36, 97
1, 52703, Note_on_c, 9, 69, 100
1, 52704, Note_on_c, 9, 40, 124
1, 52704, Note_on_c, 1, 48, 113
1, 52704, Note_on_c, 2, 60, 116
1, 52704, Note_on_c, 9, 63, 124
1, 52704, Note_on_c, 2, 65, 119
1, 52704, Note_off_c, 9, 69, 92
1, 52704, Note_on_c, 2, 70, 123
1, 52705, Note_off_c, 9, 40, 108
1, 52705, Note_off_c, 9, 63, 100
1, 52721, Note_off_c, 1, 48, 113
1, 52755, Note_on_c, 9, 69, 50
1, 52756, Note_off_c, 9, 69, 92
1, 52799, Note_on_c, 9, 69, 100
1, 52800, Note_on_c, 1, 31, 117
1, 52800, Note_on_c, 9, 36, 124
1, 52800, Note_on_c, 9, 40, 124
1, 52800, Note_on_c, 9, 62, 124
1, 52800, Note_off_c, 9, 69, 92
1, 52801, Note_off_c, 9, 36, 112
1, 52801, Note_off_c, 9, 40, 108
1, 52801, Note_off_c, 9, 62, 104
1, 52848, Note_on_c, 1, 33, 117
1, 52848, Note_on_c, 9, 40, 115
1, 52849, Note_off_c, 1, 31, 102
1, 52849, Note_off_c, 9, 40, 108
1, 52851, Note_on_c, 9, 69, 50
1, 52852, Note_off_c, 9, 69, 92
1, 52875, Note_off_c, 2, 65, 94
1, 52877, Note_off_c, 2, 60, 104
1, 52886, Note_off_c, 1, 33, 102
1, 52887, Note_off_c, 2, 70, 108
1, 52894, Note_on_c, 10, 53, 61
1, 52894, Note_on_c, 10, 57, 73
1, 52894, Note_on_c, 10, 62, 81
1, 52895, Note_on_c, 9, 69, 100
1, 52896, Note_on_c, 1, 36, 116
1, 52896, Note_on_c, 9, 40, 105
1, 52896, Note_on_c, 9, 64, 112
1, 52896, Note_off_c, 9, 69, 92
1, 52896, Note_on_c, 2, 69, 48
1, 52896, Note_on_c, 2, 72, 84
1, 52897, Note_off_c, 9, 40, 108
1, 52897, Note_off_c, 9, 64, 104
1, 52897, Note_off_c, 2, 69, 60
1, 52897, Note_off_c, 2, 72, 60
1, 52904, Note_off_c, 10, 53, 102
1, 52904, Note_off_c, 10, 57, 104
1, 52904, Note_off_c, 10, 62, 84
1, 52936, Note_off_c, 6, 77, 111
1, 52942, Note_on_c, 10, 53, 105
1, 52942, Note_on_c, 10, 57, 99
1, 52942, Note_on_c, 10, 62, 93
1, 52944, Note_on_c, 9, 40, 76
1, 52944, Note_on_c, 9, 64, 108
1, 52944, Note_on_c, 2, 69, 95
1, 52944, Note_on_c, 2, 72, 97
1, 52945, Note_off_c, 9, 40, 108
1, 52945, Note_off_c, 9, 64, 112
1, 52945, Note_off_c, 2, 69, 60
1, 52945, Note_off_c, 2, 72, 60
1, 52947, Note_on_c, 9, 69, 50
1, 52948, Note_off_c, 9, 69, 92
1, 52949, Note_off_c, 6, 84, 108
1, 52952, Note_off_c, 10, 53, 111
1, 52952, Note_off_c, 10, 57, 106
1, 52952, Note_off_c, 10, 62, 111
1, 52961, Note_off_c, 6, 72, 106
1, 52986, Note_off_c, 11, 48, 104
1, 52990, Note_off_c, 1, 36, 113
1, 52990, Note_on_c, 10, 53, 122
1, 52990, Note_on_c, 10, 57, 123
1, 52990, Note_on_c, 10, 62, 124
1, 52991, Note_on_c, 9, 69, 96
1, 52992, Note_on_c, 9, 36, 124
1, 52992, Note_on_c, 1, 38, 119
1, 52992, Note_on_c, 9, 49, 124
1, 52992, Note_on_c, 12, 57, 116
1, 52992, Note_on_c, 12, 60, 122
1, 52992, Note_on_c, 0, 62, 116
1, 52992, Note_on_c, 9, 63, 120
1, 52992, Note_on_c, 0, 65, 113
1, 52992, Note_on_c, 12, 65, 120
1, 52992, Note_off_c, 9, 69, 80
1, 52992, Note_on_c, 0, 69, 122
1, 52992, Note_on_c, 2, 69, 122
1, 52992, Note_on_c, 2, 72, 122
1, 52992, Note_on_c, 0, 74, 116
1, 52992, Note_on_c, 2, 77, 122
1, 52992, Note_on_c, 6, 77, 90
1, 52993, Note_off_c, 9, 36, 76
1, 52993, Note_off_c, 9, 49, 100
1, 52993, Note_off_c, 9, 63, 92
1, 53011, Note_off_c, 2, 69, 60
1, 53021, Note_off_c, 0, 69, 110
1, 53022, Note_off_c, 2, 72, 91
1, 53034, Note_off_c, 0, 65, 94
1, 53038, Note_off_c, 0, 74, 71
1, 53041, Note_off_c, 0, 62, 104
1, 53043, Note_on_c, 9, 69, 50
1, 53043, Note_off_c, 2, 77, 102
1, 53044, Note_off_c, 9, 69, 80
1, 53046, Note_off_c, 1, 38, 97
1, 53066, Note_off_c, 12, 60, 106
1, 53071, Note_off_c, 12, 65, 104
1, 53072, Note_off_c, 12, 57, 104
1, 53073, Pitch_bend_c, 10, 7808
1, 53081, Pitch_bend_c, 10, 6656
1, 53084, Note_off_c, 10, 62, 110
1, 53087, Note_on_c, 9, 69, 88
1, 53088, Note_on_c, 1, 50, 117
1, 53088, Note_off_c, 9, 69, 76
1, 53088, Pitch_bend_c, 10, 5632
1, 53088, Note_on_c, 9, 63, 116
1, 53089, Note_off_c, 9, 63, 84
1, 53092, Note_off_c, 10, 57, 114
1, 53094, Note_off_c, 10, 53, 110
1, 53095, Pitch_bend_c, 10, 3968
1, 53105, Pitch_bend_c, 10, 3328
1, 53112, Pitch_bend_c, 10, 7808
1, 53119, Pitch_bend_c, 10, 8704
1, 53128, Pitch_bend_c, 10, 8320
1, 53135, Note_off_c, 1, 50, 104
1, 53135, Pitch_bend_c, 10, 8192
1, 53136, Note_on_c, 0, 62, 119
1, 53136, Note_on_c, 0, 65, 110
1, 53136, Note_on_c, 0, 69, 119
1, 53136, Note_on_c, 0, 74, 114
1, 53139, Note_on_c, 9, 69, 50
1, 53140, Note_off_c, 9, 69, 76
1, 53167, Note_off_c, 0, 69, 108
1, 53178, Note_off_c, 0, 65, 91
1, 53183, Note_on_c, 9, 42, 80
1, 53183, Note_off_c, 0, 62, 108
1, 53183, Note_on_c, 9, 69, 104
1, 53184, Note_on_c, 9, 36, 124
1, 53184, Note_on_c, 1, 40, 108
1, 53184, Note_on_c, 9, 40, 114
1, 53184, Note_off_c, 9, 42, 88
1, 53184, Note_on_c, 12, 57, 116
1, 53184, Note_on_c, 12, 60, 122
1, 53184, Note_on_c, 9, 62, 124
1, 53184, Note_on_c, 12, 65, 122
1, 53184, Note_off_c, 9, 69, 68
1, 53184, Note_on_c, 2, 69, 122
1, 53184, Note_on_c, 2, 72, 122
1, 53184, Note_on_c, 2, 77, 122
1, 53185, Note_off_c, 9, 36, 96
1, 53185, Note_off_c, 9, 40, 86
1, 53185, Note_off_c, 9, 62, 108
1, 53189, Note_off_c, 0, 74, 76
1, 53221, Note_off_c, 2, 72, 99
1, 53225, Note_off_c, 2, 69, 94
1, 53234, Note_off_c, 1, 40, 91
1, 53235, Note_on_c, 9, 69, 50
1, 53236, Note_off_c, 12, 60, 84
1, 53236, Note_off_c, 9, 69, 68
1, 53238, Note_off_c, 2, 77, 108
1, 53251, Note_off_c, 12, 65, 104
1, 53251, Pitch_bend_c, 4, 8064
1, 53255, Note_off_c, 12, 57, 102
1, 53258, Pitch_bend_c, 4, 7552
1, 53268, Pitch_bend_c, 4, 5632
1, 53275, Pitch_bend_c, 4, 4352
1, 53279, Note_on_c, 9, 46, 80
1, 53279, Note_on_c, 9, 69, 96
1, 53280, Note_off_c, 9, 46, 88
1, 53280, Note_on_c, 1, 52, 113
1, 53280, Note_on_c, 0, 62, 114
1, 53280, Note_on_c, 0, 64, 113
1, 53280, Note_on_c, 9, 64, 116
1, 53280, Note_on_c, 0, 67, 117
1, 53280, Note_off_c, 9, 69, 68
1, 53280, Note_on_c, 0, 74, 111
1, 53281, Note_off_c, 9, 64, 96
1, 53283, Pitch_bend_c, 4, 1664
1, 53284, Note_on_c, 4, 69, 124
1, 53291, Pitch_bend_c, 4, 640
1, 53298, Pitch_bend_c, 4, 640
1, 53301, Control_c, 4, 11, 101
1, 53305, Pitch_bend_c, 4, 1792
1, 53308, Note_off_c, 0, 67, 106
1, 53312, Note_off_c, 0, 64, 108
1, 53312, Note_off_c, 0, 74, 91
1, 53312, Pitch_bend_c, 4, 4352
1, 53317, Note_off_c, 0, 62, 110
1, 53317, Control_c, 4, 11, 64
1, 53319, Pitch_bend_c, 4, 6528
1, 53326, Pitch_bend_c, 4, 7680
1, 53328, Note_on_c, 9, 64, 108
1, 53329, Note_off_c, 1, 52, 106
1, 53329, Note_off_c, 9, 64, 104
1, 53331, Note_on_c, 9, 69, 50
1, 53332, Note_off_c, 9, 69, 68
1, 53333, Pitch_bend_c, 4, 7936
1, 53340, Pitch_bend_c, 4, 8192
1, 53345, Control_c, 4, 11, 73
1, 53360, Control_c, 4, 11, 75
1, 53375, Note_on_c, 9, 42, 80
1, 53375, Note_on_c, 9, 69, 104
1, 53376, Note_on_c, 9, 36, 124
1, 53376, Note_on_c, 1, 41, 111
1, 53376, Note_off_c, 9, 42, 92
1, 53376, Note_on_c, 12, 57, 116
1, 53376, Note_on_c, 12, 60, 123
1, 53376, Note_on_c, 0, 62, 114
1, 53376, Note_on_c, 9, 63, 124
1, 53376, Note_on_c, 0, 65, 111
1, 53376, Note_on_c, 12, 65, 120
1, 53376, Note_off_c, 9, 69, 84
1, 53376, Note_on_c, 0, 69, 120
1, 53376, Note_on_c, 2, 69, 120
1, 53376, Note_on_c, 2, 72, 122
1, 53376, Note_on_c, 0, 74, 113
1, 53376, Note_on_c, 2, 77, 123
1, 53377, Note_off_c, 9, 36, 108
1, 53377, Note_off_c, 9, 63, 96
1, 53392, Control_c, 4, 11, 79
1, 53402, Note_off_c, 0, 69, 99
1, 53412, Note_off_c, 0, 65, 104
1, 53413, Note_off_c, 2, 72, 97
1, 53417, Note_off_c, 0, 62, 104
1, 53418, Note_off_c, 1, 41, 108
1, 53419, Note_off_c, 2, 69, 84
1, 53420, Control_c, 4, 11, 83
1, 53422, Note_off_c, 0, 74, 13
1, 53427, Note_on_c, 9, 69, 50
1, 53428, Note_off_c, 2, 77, 104
1, 53428, Note_off_c, 9, 69, 84
1, 53436, Control_c, 4, 11, 86
1, 53438, Note_off_c, 12, 57, 104
1, 53438, Note_off_c, 12, 60, 84
1, 53438, Note_off_c, 12, 65, 104
1, 53458, Control_c, 4, 11, 88
1, 53471, Note_on_c, 9, 46, 80
1, 53471, Note_on_c, 9, 69, 100
1, 53472, Note_off_c, 9, 46, 92
1, 53472, Note_on_c, 1, 53, 111
1, 53472, Note_on_c, 9, 63, 124
1, 53472, Note_off_c, 9, 69, 92
1, 53473, Note_off_c, 9, 63, 100
1, 53481, Control_c, 4, 11, 91
1, 53503, Control_c, 4, 11, 93
1, 53520, Note_on_c, 12, 57, 113
1, 53520, Note_on_c, 0, 62, 111
1, 53520, Note_on_c, 0, 65, 108
1, 53520, Note_on_c, 0, 69, 114
1, 53520, Note_on_c, 0, 74, 110
1, 53522, Note_off_c, 1, 53, 108
1, 53523, Note_on_c, 9, 69, 50
1, 53524, Note_off_c, 9, 69, 92
1, 53528, Control_c, 4, 11, 97
1, 53550, Control_c, 4, 11, 100
1, 53565, Control_c, 4, 11, 101
1, 53567, Note_on_c, 9, 42, 80
1, 53567, Note_on_c, 9, 69, 100
1, 53568, Note_on_c, 9, 36, 124
1, 53568, Note_on_c, 9, 40, 114
1, 53568, Note_on_c, 1, 41, 110
1, 53568, Note_off_c, 9, 42, 96
1, 53568, Note_on_c, 12, 60, 124
1, 53568, Note_on_c, 9, 62, 124
1, 53568, Note_on_c, 12, 65, 124
1, 53568, Note_off_c, 9, 69, 92
1, 53568, Note_on_c, 2, 69, 122
1, 53568, Note_on_c, 2, 72, 122
1, 53568, Note_on_c, 2, 77, 124
1, 53569, Note_off_c, 9, 36, 112
1, 53569, Note_off_c, 9, 40, 98
1, 53569, Note_off_c, 9, 62, 104
1, 53588, Control_c, 4, 11, 102
1, 53603, Note_off_c, 2, 72, 102
1, 53605, Note_off_c, 1, 41, 106
1, 53607, Control_c, 4, 11, 103
1, 53616, Note_on_c, 1, 53, 108
1, 53617, Note_off_c, 2, 69, 13
1, 53619, Note_on_c, 9, 69, 50
1, 53620, Note_off_c, 9, 69, 92
1, 53621, Note_off_c, 2, 77, 108
1, 53635, Control_c, 4, 11, 105
1, 53636, Note_off_c, 12, 65, 108
1, 53640, Note_off_c, 12, 60, 94
1, 53658, Control_c, 4, 11, 107
1, 53659, Note_off_c, 12, 57, 66
1, 53663, Note_on_c, 9, 46, 80
1, 53663, Note_on_c, 9, 69, 100
1, 53664, Note_off_c, 9, 46, 96
1, 53664, Note_on_c, 9, 64, 112
1, 53664, Note_on_c, 2, 67, 48
1, 53664, Note_off_c, 9, 69, 92
1, 53664, Note_on_c, 2, 72, 84
1, 53665, Note_off_c, 2, 67, 60
1, 53665, Note_off_c, 2, 72, 60
1, 53665, Note_off_c, 9, 64, 104
1, 53674, Control_c, 4, 11, 110
1, 53680, Pitch_bend_c, 1, 7936
1, 53688, Pitch_bend_c, 1, 7424
1, 53690, Control_c, 4, 11, 112
1, 53692, Note_off_c, 0, 62, 108
1, 53696, Pitch_bend_c, 1, 6016
1, 53703, Pitch_bend_c, 1, 6272
1, 53704, Note_off_c, 0, 69, 108
1, 53704, Note_off_c, 0, 74, 91
1, 53706, Control_c, 4, 11, 114
1, 53709, Note_off_c, 0, 65, 108
1, 53710, Pitch_bend_c, 1, 7680
1, 53711, Note_off_c, 1, 53, 108
1, 53712, Note_on_c, 9, 64, 108
1, 53712, Note_on_c, 2, 67, 95
1, 53712, Note_on_c, 2, 72, 97
1, 53713, Note_off_c, 2, 67, 60
1, 53713, Note_off_c, 2, 72, 60
1, 53713, Note_off_c, 9, 64, 112
1, 53715, Note_on_c, 9, 69, 50
1, 53716, Note_off_c, 9, 69, 92
1, 53717, Pitch_bend_c, 1, 7936
1, 53721, Control_c, 4, 11, 115
1, 53725, Pitch_bend_c, 1, 8192
1, 53747, Control_c, 4, 11, 119
1, 53749, Note_off_c, 6, 77, 111
1, 53759, Note_on_c, 9, 42, 80
1, 53759, Note_on_c, 9, 69, 96
1, 53760, Note_on_c, 1, 36, 110
1, 53760, Note_on_c, 9, 36, 124
1, 53760, Note_off_c, 9, 42, 88
1, 53760, Note_on_c, 12, 55, 114
1, 53760, Note_on_c, 0, 60, 116
1, 53760, Note_on_c, 12, 60, 123
1, 53760, Note_on_c, 9, 63, 120
1, 53760, Note_on_c, 0, 64, 113
1, 53760, Note_on_c, 12, 64, 120
1, 53760, Note_on_c, 0, 67, 120
1, 53760, Note_on_c, 2, 67, 117
1, 53760, Note_off_c, 9, 69, 80
1, 53760, Note_on_c, 2, 72, 122
1, 53760, Note_on_c, 0, 74, 111
1, 53760, Note_on_c, 2, 76, 120
1, 53760, Note_on_c, 6, 84, 90
1, 53761, Note_off_c, 9, 36, 76
1, 53761, Note_off_c, 9, 63, 92
1, 53769, Control_c, 4, 11, 122
1, 53787, Control_c, 4, 11, 127
1, 53789, Note_off_c, 0, 67, 108
1, 53794, Note_off_c, 0, 64, 110
1, 53798, Note_off_c, 0, 74, 76
1, 53799, Note_off_c, 4, 69, 114
1, 53801, Note_off_c, 2, 72, 97
1, 53806, Note_off_c, 0, 60, 104
1, 53808, Note_off_c, 1, 36, 84
1, 53810, Note_on_c, 4, 72, 126
1, 53811, Note_on_c, 9, 69, 50
1, 53812, Note_off_c, 2, 67, 76
1, 53812, Note_off_c, 9, 69, 80
1, 53814, Note_off_c, 2, 76, 97
1, 53822, Note_off_c, 12, 64, 99
1, 53823, Note_off_c, 12, 60, 102
1, 53828, Control_c, 4, 11, 127
1, 53837, Note_off_c, 12, 55, 84
1, 53855, Note_on_c, 9, 46, 80
1, 53855, Note_on_c, 9, 69, 88
1, 53856, Note_off_c, 9, 46, 88
1, 53856, Note_on_c, 1, 48, 114
1, 53856, Note_on_c, 9, 63, 116
1, 53856, Note_off_c, 9, 69, 76
1, 53857, Note_off_c, 9, 63, 84
1, 53891, Note_off_c, 4, 72, 108
1, 53904, Note_on_c, 0, 60, 113
1, 53904, Note_on_c, 0, 64, 111
1, 53904, Note_on_c, 0, 67, 114
1, 53904, Note_on_c, 0, 74, 113
1, 53907, Note_on_c, 4, 69, 108
1, 53907, Note_on_c, 9, 69, 50
1, 53908, Note_off_c, 9, 69, 76
1, 53914, Note_off_c, 1, 48, 97
1, 53934, Note_off_c, 4, 69, 97
1, 53948, Note_on_c, 4, 72, 123
1, 53951, Note_on_c, 9, 42, 80
1, 53951, Note_on_c, 9, 69, 104
1, 53952, Note_on_c, 9, 36, 124
1, 53952, Note_on_c, 9, 40, 114
1, 53952, Note_off_c, 9, 42, 88
1, 53952, Note_on_c, 12, 55, 113
1, 53952, Note_on_c, 12, 60, 122
1, 53952, Note_on_c, 9, 62, 124
1, 53952, Note_on_c, 12, 64, 123
1, 53952, Note_on_c, 2, 67, 119
1, 53952, Note_off_c, 9, 69, 68
1, 53952, Note_on_c, 2, 72, 122
1, 53952, Note_on_c, 2, 76, 120
1, 53953, Note_off_c, 9, 36, 96
1, 53953, Note_off_c, 9, 40, 86
1, 53953, Note_off_c, 9, 62, 108
1, 53987, Note_off_c, 2, 72, 108
1, 53990, Note_off_c, 2, 67, 99
1, 53994, Note_off_c, 12, 60, 99
1, 54000, Note_off_c, 0, 74, 71
1, 54000, Note_off_c, 2, 76, 102
1, 54002, Note_off_c, 0, 64, 108
1, 54003, Note_on_c, 9, 69, 50
1, 54004, Note_off_c, 0, 60, 110
1, 54004, Note_off_c, 9, 69, 68
1, 54006, Note_off_c, 12, 64, 110
1, 54007, Note_off_c, 0, 67, 110
1, 54032, Note_off_c, 12, 55, 97
1, 54047, Note_on_c, 9, 46, 80
1, 54047, Note_on_c, 9, 69, 96
1, 54048, Note_off_c, 9, 46, 88
1, 54048, Note_on_c, 1, 48, 113
1, 54048, Note_on_c, 0, 60, 113
1, 54048, Note_on_c, 0, 62, 113
1, 54048, Note_on_c, 9, 64, 116
1, 54048, Note_on_c, 0, 65, 117
1, 54048, Note_off_c, 9, 69, 68
1, 54048, Note_on_c, 0, 74, 110
1, 54049, Note_off_c, 9, 64, 96
1, 54068, Note_off_c, 0, 65, 106
1, 54073, Note_off_c, 0, 62, 102
1, 54074, Note_off_c, 0, 74, 81
1, 54083, Note_off_c, 0, 60, 110
1, 54091, Note_off_c, 4, 72, 108
1, 54094, Note_off_c, 1, 48, 108
1, 54096, Note_on_c, 9, 64, 108
1, 54097, Note_off_c, 9, 64, 104
1, 54097, Note_on_c, 4, 69, 110
1, 54099, Note_on_c, 9, 69, 50
1, 54100, Note_off_c, 9, 69, 68
1, 54128, Note_off_c, 4, 69, 97
1, 54142, Note_on_c, 4, 74, 124
1, 54143, Note_on_c, 9, 42, 80
1, 54143, Note_on_c, 9, 69, 104
1, 54144, Note_on_c, 1, 36, 106
1, 54144, Note_on_c, 9, 36, 124
1, 54144, Note_off_c, 9, 42, 92
1, 54144, Note_on_c, 12, 55, 116
1, 54144, Note_on_c, 0, 60, 113
1, 54144, Note_on_c, 12, 60, 123
1, 54144, Note_on_c, 9, 63, 124
1, 54144, Note_on_c, 0, 64, 114
1, 54144, Note_on_c, 12, 64, 122
1, 54144, Note_on_c, 0, 67, 114
1, 54144, Note_on_c, 2, 67, 120
1, 54144, Note_off_c, 9, 69, 84
1, 54144, Note_on_c, 2, 72, 122
1, 54144, Note_on_c, 0, 74, 111
1, 54144, Note_on_c, 2, 76, 122
1, 54145, Note_off_c, 9, 36, 108
1, 54145, Note_off_c, 9, 63, 96
1, 54165, Note_off_c, 0, 67, 99
1, 54174, Note_off_c, 2, 72, 110
1, 54175, Note_off_c, 0, 64, 110
1, 54177, Note_off_c, 0, 74, 25
1, 54180, Note_off_c, 2, 67, 102
1, 54186, Note_off_c, 2, 76, 108
1, 54188, Note_off_c, 0, 60, 99
1, 54189, Note_off_c, 12, 60, 97
1, 54195, Note_on_c, 9, 69, 50
1, 54196, Note_off_c, 12, 64, 97
1, 54196, Note_off_c, 9, 69, 84
1, 54207, Note_off_c, 1, 36, 81
1, 54209, Note_off_c, 12, 55, 99
1, 54215, Note_off_c, 4, 74, 110
1, 54231, Pitch_bend_c, 4, 6656
1, 54235, Note_on_c, 4, 74, 113
1, 54238, Pitch_bend_c, 4, 4096
1, 54239, Note_on_c, 9, 46, 80
1, 54239, Note_on_c, 9, 69, 100
1, 54240, Note_off_c, 9, 46, 92
1, 54240, Note_on_c, 1, 48, 119
1, 54240, Note_on_c, 9, 63, 124
1, 54240, Note_on_c, 2, 67, 48
1, 54240, Note_off_c, 9, 69, 92
1, 54240, Note_on_c, 2, 72, 84
1, 54241, Note_off_c, 2, 67, 60
1, 54241, Note_off_c, 2, 72, 60
1, 54241, Note_off_c, 9, 63, 100
1, 54247, Pitch_bend_c, 4, 1408
1, 54254, Pitch_bend_c, 4, 1152
1, 54261, Pitch_bend_c, 4, 2176
1, 54268, Pitch_bend_c, 4, 5504
1, 54276, Pitch_bend_c, 4, 7424
1, 54284, Pitch_bend_c, 4, 7808
1, 54288, Note_on_c, 12, 55, 104
1, 54288, Note_on_c, 0, 60, 113
1, 54288, Note_on_c, 0, 64, 113
1, 54288, Note_on_c, 0, 67, 114
1, 54288, Note_on_c, 2, 67, 95
1, 54288, Note_on_c, 2, 72, 97
1, 54288, Note_on_c, 0, 74, 113
1, 54289, Note_off_c, 2, 67, 60
1, 54289, Note_off_c, 2, 72, 60
1, 54291, Note_on_c, 9, 69, 50
1, 54292, Note_off_c, 9, 69, 92
1, 54293, Pitch_bend_c, 4, 8192
1, 54302, Note_off_c, 1, 48, 108
1, 54327, Note_off_c, 4, 74, 110
1, 54331, Note_on_c, 4, 72, 124
1, 54335, Note_on_c, 9, 42, 80
1, 54335, Note_on_c, 9, 69, 100
1, 54336, Note_on_c, 9, 36, 124
1, 54336, Note_on_c, 9, 40, 114
1, 54336, Note_off_c, 9, 42, 96
1, 54336, Note_on_c, 12, 60, 124
1, 54336, Note_on_c, 9, 62, 124
1, 54336, Note_on_c, 12, 64, 122
1, 54336, Note_on_c, 2, 67, 120
1, 54336, Note_off_c, 9, 69, 92
1, 54336, Note_on_c, 2, 72, 123
1, 54336, Note_on_c, 2, 76, 122
1, 54337, Note_off_c, 9, 36, 112
1, 54337, Note_off_c, 9, 40, 98
1, 54337, Note_off_c, 9, 62, 104
1, 54372, Note_off_c, 2, 72, 108
1, 54376, Note_off_c, 2, 67, 97
1, 54381, Note_off_c, 2, 76, 104
1, 54384, Note_on_c, 1, 48, 114
1, 54387, Note_on_c, 9, 69, 50
1, 54388, Note_off_c, 9, 69, 92
1, 54415, Note_off_c, 12, 64, 97
1, 54417, Note_off_c, 12, 60, 84
1, 54421, Note_off_c, 1, 48, 113
1, 54422, Note_off_c, 12, 55, 91
1, 54430, Note_on_c, 10, 53, 61
1, 54430, Note_on_c, 10, 57, 73
1, 54430, Note_on_c, 10, 62, 81
1, 54431, Note_on_c, 9, 46, 80
1, 54431, Note_on_c, 9, 69, 100
1, 54432, Note_off_c, 9, 46, 96
1, 54432, Note_on_c, 9, 64, 112
1, 54432, Note_off_c, 9, 69, 92
1, 54432, Note_on_c, 2, 69, 48
1, 54432, Note_on_c, 2, 72, 84
1, 54433, Note_off_c, 2, 69, 60
1, 54433, Note_off_c, 2, 72, 60
1, 54433, Note_off_c, 9, 64, 104
1, 54440, Note_off_c, 0, 64, 97
1, 54440, Note_off_c, 10, 53, 102
1, 54440, Note_off_c, 10, 57, 104
1, 54440, Note_off_c, 10, 62, 84
1, 54444, Note_off_c, 0, 60, 106
1, 54447, Note_off_c, 0, 74, 71
1, 54451, Pitch_bend_c, 4, 8064
1, 54458, Note_off_c, 0, 67, 99
1, 54460, Pitch_bend_c, 4, 7552
1, 54467, Pitch_bend_c, 4, 6400
1, 54476, Pitch_bend_c, 4, 4992
1, 54478, Note_on_c, 10, 53, 105
1, 54478, Note_on_c, 10, 57, 99
1, 54478, Note_on_c, 10, 62, 93
1, 54480, Note_on_c, 9, 64, 108
1, 54480, Note_on_c, 2, 69, 95
1, 54480, Note_on_c, 2, 72, 97
1, 54481, Note_off_c, 2, 69, 60
1, 54481, Note_off_c, 2, 72, 60
1, 54481, Note_off_c, 9, 64, 112
1, 54483, Pitch_bend_c, 4, 4224
1, 54483, Note_on_c, 9, 69, 50
1, 54484, Note_off_c, 4, 72, 111
1, 54484, Note_off_c, 9, 69, 92
1, 54488, Note_off_c, 10, 53, 111
1, 54488, Note_off_c, 10, 57, 106
1, 54488, Note_off_c, 10, 62, 111
1, 54490, Pitch_bend_c, 4, 6400
1, 54497, Pitch_bend_c, 4, 7552
1, 54505, Pitch_bend_c, 4, 7808
1, 54512, Pitch_bend_c, 4, 8192
1, 54526, Note_on_c, 10, 53, 122
1, 54526, Note_on_c, 10, 57, 123
1, 54526, Note_on_c, 10, 62, 124
1, 54527, Note_on_c, 9, 42, 80
1, 54527, Note_on_c, 9, 69, 96
1, 54528, Note_on_c, 9, 36, 124
1, 54528, Note_on_c, 1, 38, 119
1, 54528, Note_off_c, 9, 42, 88
1, 54528, Note_on_c, 12, 57, 113
1, 54528, Note_on_c, 12, 60, 122
1, 54528, Note_on_c, 0, 62, 116
1, 54528, Note_on_c, 9, 63, 120
1, 54528, Note_on_c, 0, 65, 108
1, 54528, Note_on_c, 12, 65, 122
1, 54528, Note_off_c, 9, 69, 80
1, 54528, Note_on_c, 0, 69, 114
1, 54528, Note_on_c, 2, 69, 122
1, 54528, Note_on_c, 2, 72, 122
1, 54528, Note_on_c, 0, 74, 113
1, 54528, Note_on_c, 2, 77, 122
1, 54528, Note_on_c, 6, 77, 90
1, 54529, Note_off_c, 9, 36, 76
1, 54529, Note_off_c, 9, 63, 92
1, 54540, Note_off_c, 6, 84, 102
1, 54547, Note_off_c, 2, 69, 60
1, 54558, Note_off_c, 0, 69, 106
1, 54558, Note_off_c, 2, 72, 91
1, 54564, Note_off_c, 0, 65, 106
1, 54569, Note_off_c, 0, 74, 97
1, 54573, Note_off_c, 0, 62, 106
1, 54579, Note_on_c, 9, 69, 50
1, 54579, Note_off_c, 2, 77, 102
1, 54580, Note_off_c, 9, 69, 80
1, 54582, Note_off_c, 1, 38, 97
1, 54589, Note_off_c, 12, 60, 97
1, 54594, Note_off_c, 12, 65, 108
1, 54609, Pitch_bend_c, 10, 7808
1, 54616, Note_off_c, 12, 57, 97
1, 54617, Pitch_bend_c, 10, 6656
1, 54620, Note_off_c, 10, 62, 110
1, 54623, Note_on_c, 9, 46, 80
1, 54623, Note_on_c, 9, 69, 88
1, 54624, Note_off_c, 9, 46, 88
1, 54624, Note_on_c, 1, 50, 117
1, 54624, Note_off_c, 9, 69, 76
1, 54624, Pitch_bend_c, 10, 5632
1, 54624, Note_on_c, 9, 63, 116
1, 54625, Note_off_c, 9, 63, 84
1, 54628, Note_off_c, 10, 57, 114
1, 54630, Note_off_c, 10, 53, 110
1, 54631, Pitch_bend_c, 10, 3968
1, 54641, Pitch_bend_c, 10, 3328
1, 54648, Pitch_bend_c, 10, 7808
1, 54655, Pitch_bend_c, 10, 8704
1, 54664, Pitch_bend_c, 10, 8320
1, 54671, Note_off_c, 1, 50, 104
1, 54671, Pitch_bend_c, 10, 8192
1, 54672, Note_on_c, 0, 62, 116
1, 54672, Note_on_c, 0, 65, 108
1, 54672, Note_on_c, 0, 69, 116
1, 54672, Note_on_c, 0, 74, 114
1, 54675, Note_on_c, 9, 69, 50
1, 54676, Note_off_c, 9, 69, 76
1, 54719, Note_on_c, 9, 42, 80
1, 54719, Note_on_c, 9, 69, 104
1, 54720, Note_on_c, 9, 36, 124
1, 54720, Note_on_c, 1, 40, 108
1, 54720, Note_on_c, 9, 40, 114
1, 54720, Note_off_c, 9, 42, 88
1, 54720, Note_on_c, 12, 57, 114
1, 54720, Note_on_c, 12, 60, 123
1, 54720, Note_on_c, 9, 62, 124
1, 54720, Note_on_c, 12, 65, 122
1, 54720, Note_off_c, 9, 69, 68
1, 54720, Note_on_c, 2, 69, 122
1, 54720, Note_on_c, 2, 72, 122
1, 54720, Note_on_c, 2, 77, 122
1, 54721, Note_off_c, 9, 36, 96
1, 54721, Note_off_c, 9, 40, 86
1, 54721, Note_off_c, 9, 62, 108
1, 54757, Note_off_c, 2, 72, 99
1, 54761, Note_off_c, 2, 69, 94
1, 54767, Note_off_c, 0, 69, 108
1, 54768, Note_off_c, 0, 62, 106
1, 54768, Note_off_c, 0, 65, 106
1, 54768, Note_off_c, 0, 74, 71
1, 54770, Note_off_c, 1, 40, 91
1, 54771, Note_on_c, 9, 69, 50
1, 54772, Note_off_c, 9, 69, 68
1, 54774, Note_off_c, 2, 77, 108
1, 54780, Note_off_c, 12, 60, 71
1, 54789, Note_off_c, 12, 65, 110
1, 54806, Note_off_c, 12, 57, 88
1, 54815, Note_on_c, 9, 46, 80
1, 54815, Note_on_c, 9, 69, 96
1, 54816, Note_off_c, 9, 46, 88
1, 54816, Note_on_c, 1, 52, 113
1, 54816, Note_on_c, 0, 62, 114
1, 54816, Note_on_c, 0, 64, 106
1, 54816, Note_on_c, 9, 64, 116
1, 54816, Note_on_c, 0, 67, 113
1, 54816, Note_off_c, 9, 69, 68
1, 54816, Note_on_c, 0, 74, 113
1, 54817, Note_off_c, 9, 64, 96
1, 54839, Note_off_c, 0, 67, 106
1, 54842, Note_off_c, 0, 64, 104
1, 54845, Note_off_c, 0, 62, 106
1, 54848, Note_off_c, 0, 74, 99
1, 54864, Note_on_c, 9, 64, 108
1, 54865, Note_off_c, 1, 52, 106
1, 54865, Note_off_c, 9, 64, 104
1, 54867, Note_on_c, 9, 69, 50
1, 54868, Note_off_c, 9, 69, 68
1, 54911, Note_on_c, 9, 42, 80
1, 54911, Note_on_c, 9, 69, 104
1, 54912, Note_on_c, 9, 36, 124
1, 54912, Note_on_c, 1, 41, 111
1, 54912, Note_off_c, 9, 42, 92
1, 54912, Note_on_c, 12, 57, 114
1, 54912, Note_on_c, 12, 60, 123
1, 54912, Note_on_c, 0, 62, 114
1, 54912, Note_on_c, 9, 63, 124
1, 54912, Note_on_c, 0, 65, 110
1, 54912, Note_on_c, 12, 65, 123
1, 54912, Note_off_c, 9, 69, 84
1, 54912, Note_on_c, 0, 69, 119
1, 54912, Note_on_c, 2, 69, 120
1, 54912, Note_on_c, 2, 72, 122
1, 54912, Note_on_c, 0, 74, 113
1, 54912, Note_on_c, 2, 77, 123
1, 54913, Note_off_c, 9, 36, 108
1, 54913, Note_off_c, 9, 63, 96
1, 54938, Note_off_c, 0, 69, 94
1, 54949, Note_off_c, 0, 62, 106
1, 54949, Note_off_c, 2, 72, 97
1, 54951, Note_off_c, 0, 65, 104
1, 54954, Note_off_c, 1, 41, 108
1, 54955, Note_off_c, 2, 69, 84
1, 54961, Note_off_c, 0, 74, 71
1, 54963, Note_on_c, 9, 69, 50
1, 54964, Note_off_c, 2, 77, 104
1, 54964, Note_off_c, 9, 69, 84
1, 54966, Note_off_c, 12, 60, 88
1, 54974, Note_off_c, 12, 65, 110
1, 54988, Pitch_bend_c, 4, 7936
1, 54992, Note_off_c, 12, 57, 91
1, 54996, Pitch_bend_c, 4, 7552
1, 55003, Pitch_bend_c, 4, 6656
1, 55005, Note_on_c, 4, 69, 124
1, 55007, Note_on_c, 9, 46, 80
1, 55007, Note_on_c, 9, 69, 100
1, 55008, Note_off_c, 9, 46, 92
1, 55008, Note_on_c, 1, 53, 111
1, 55008, Note_on_c, 9, 63, 124
1, 55008, Note_off_c, 9, 69, 92
1, 55009, Note_off_c, 9, 63, 100
1, 55011, Pitch_bend_c, 4, 4608
1, 55019, Pitch_bend_c, 4, 1664
1, 55025, Control_c, 4, 11, 100
1, 55027, Pitch_bend_c, 4, 1152
1, 55034, Pitch_bend_c, 4, 1536
1, 55040, Control_c, 4, 11, 92
1, 55041, Pitch_bend_c, 4, 3200
1, 55049, Pitch_bend_c, 4, 4096
1, 55056, Note_on_c, 12, 57, 102
1, 55056, Note_on_c, 0, 62, 116
1, 55056, Note_on_c, 0, 65, 108
1, 55056, Note_on_c, 0, 69, 116
1, 55056, Note_on_c, 0, 74, 113
1, 55057, Pitch_bend_c, 4, 4608
1, 55058, Note_off_c, 1, 53, 108
1, 55058, Control_c, 4, 11, 89
1, 55059, Note_on_c, 9, 69, 50
1, 55060, Note_off_c, 9, 69, 92
1, 55064, Pitch_bend_c, 4, 4992
1, 55072, Pitch_bend_c, 4, 5376
1, 55096, Control_c, 4, 11, 91
1, 55103, Note_on_c, 9, 42, 80
1, 55103, Note_on_c, 9, 69, 100
1, 55104, Note_on_c, 9, 36, 124
1, 55104, Note_on_c, 9, 40, 114
1, 55104, Note_on_c, 1, 41, 110
1, 55104, Note_off_c, 9, 42, 96
1, 55104, Note_on_c, 12, 60, 124
1, 55104, Note_on_c, 9, 62, 124
1, 55104, Note_on_c, 12, 65, 124
1, 55104, Note_off_c, 9, 69, 92
1, 55104, Note_on_c, 2, 69, 122
1, 55104, Note_on_c, 2, 72, 122
1, 55104, Note_on_c, 2, 77, 124
1, 55105, Note_off_c, 9, 36, 112
1, 55105, Note_off_c, 9, 40, 98
1, 55105, Note_off_c, 9, 62, 104
1, 55108, Pitch_bend_c, 4, 5760
1, 55112, Control_c, 4, 11, 94
1, 55118, Pitch_bend_c, 4, 6144
1, 55125, Pitch_bend_c, 4, 6400
1, 55127, Control_c, 4, 11, 96
1, 55132, Pitch_bend_c, 4, 6656
1, 55139, Note_off_c, 2, 72, 102
1, 55141, Note_off_c, 1, 41, 106
1, 55141, Pitch_bend_c, 4, 6784
1, 55145, Control_c, 4, 11, 100
1, 55149, Pitch_bend_c, 4, 6912
1, 55152, Note_on_c, 1, 53, 108
1, 55153, Note_off_c, 2, 69, 13
1, 55155, Note_on_c, 9, 69, 50
1, 55156, Note_off_c, 9, 69, 92
1, 55157, Note_off_c, 2, 77, 108
1, 55159, Pitch_bend_c, 4, 7040
1, 55172, Control_c, 4, 11, 103
1, 55176, Pitch_bend_c, 4, 7168
1, 55177, Note_off_c, 12, 60, 97
1, 55180, Note_off_c, 12, 65, 104
1, 55186, Pitch_bend_c, 4, 7296
1, 55195, Pitch_bend_c, 4, 7424
1, 55196, Note_off_c, 12, 57, 81
1, 55198, Control_c, 4, 11, 105
1, 55199, Note_on_c, 9, 46, 80
1, 55199, Note_on_c, 9, 69, 100
1, 55200, Note_off_c, 9, 46, 96
1, 55200, Note_on_c, 9, 64, 112
1, 55200, Note_on_c, 2, 67, 48
1, 55200, Note_off_c, 9, 69, 92
1, 55200, Note_on_c, 2, 72, 84
1, 55201, Note_off_c, 2, 67, 60
1, 55201, Note_off_c, 2, 72, 60
1, 55201, Note_off_c, 9, 64, 104
1, 55203, Pitch_bend_c, 4, 7552
1, 55208, Note_off_c, 0, 62, 91
1, 55212, Pitch_bend_c, 4, 7680
1, 55213, Note_off_c, 0, 65, 91
1, 55215, Note_off_c, 0, 74, 71
1, 55216, Pitch_bend_c, 1, 7936
1, 55222, Control_c, 4, 11, 107
1, 55224, Note_off_c, 0, 69, 97
1, 55224, Pitch_bend_c, 1, 7424
1, 55230, Pitch_bend_c, 4, 7680
1, 55232, Pitch_bend_c, 1, 6016
1, 55238, Pitch_bend_c, 4, 7936
1, 55239, Control_c, 4, 11, 110
1, 55239, Pitch_bend_c, 1, 6272
1, 55246, Pitch_bend_c, 1, 7680
1, 55247, Note_off_c, 1, 53, 108
1, 55248, Note_on_c, 9, 64, 108
1, 55248, Note_on_c, 2, 67, 95
1, 55248, Note_on_c, 2, 72, 97
1, 55249, Note_off_c, 2, 67, 60
1, 55249, Note_off_c, 2, 72, 60
1, 55249, Note_off_c, 9, 64, 112
1, 55250, Pitch_bend_c, 4, 8064
1, 55251, Note_on_c, 9, 69, 50
1, 55252, Note_off_c, 9, 69, 92
1, 55253, Pitch_bend_c, 1, 7936
1, 55255, Control_c, 4, 11, 112
1, 55257, Pitch_bend_c, 4, 8192
1, 55261, Pitch_bend_c, 1, 8192
1, 55281, Control_c, 4, 11, 116
1, 55294, Note_off_c, 6, 77, 111
1, 55295, Note_on_c, 9, 42, 80
1, 55295, Note_on_c, 9, 69, 96
1, 55296, Note_on_c, 1, 36, 110
1, 55296, Note_on_c, 9, 36, 124
1, 55296, Note_off_c, 9, 42, 88
1, 55296, Note_on_c, 12, 55, 113
1, 55296, Note_on_c, 0, 60, 111
1, 55296, Note_on_c, 12, 60, 122
1, 55296, Note_on_c, 9, 63, 120
1, 55296, Note_on_c, 0, 64, 111
1, 55296, Note_on_c, 12, 64, 122
1, 55296, Note_on_c, 0, 67, 117
1, 55296, Note_on_c, 2, 67, 117
1, 55296, Note_off_c, 9, 69, 80
1, 55296, Note_on_c, 2, 72, 122
1, 55296, Note_on_c, 6, 72, 90
1, 55296, Note_on_c, 0, 74, 113
1, 55296, Note_on_c, 2, 76, 120
1, 55297, Note_off_c, 9, 36, 76
1, 55297, Note_off_c, 9, 63, 92
1, 55303, Control_c, 4, 11, 121
1, 55309, Note_off_c, 4, 69, 113
1, 55318, Control_c, 4, 11, 127
1, 55326, Note_off_c, 0, 67, 110
1, 55329, Note_off_c, 0, 64, 102
1, 55333, Note_off_c, 0, 74, 76
1, 55337, Note_off_c, 2, 72, 97
1, 55343, Note_off_c, 0, 60, 106
1, 55344, Note_off_c, 1, 36, 84
1, 55347, Note_on_c, 9, 69, 50
1, 55348, Note_off_c, 2, 67, 76
1, 55348, Note_on_c, 4, 67, 119
1, 55348, Note_off_c, 9, 69, 80
1, 55350, Note_off_c, 2, 76, 97
1, 55353, Note_off_c, 12, 60, 97
1, 55354, Control_c, 4, 11, 127
1, 55355, Note_off_c, 12, 64, 99
1, 55384, Note_off_c, 12, 55, 91
1, 55388, Note_off_c, 4, 67, 97
1, 55391, Note_on_c, 9, 46, 80
1, 55391, Note_on_c, 9, 69, 88
1, 55392, Note_off_c, 9, 46, 88
1, 55392, Note_on_c, 1, 48, 114
1, 55392, Note_on_c, 9, 63, 116
1, 55392, Note_off_c, 9, 69, 76
1, 55393, Note_off_c, 9, 63, 84
1, 55440, Note_on_c, 0, 60, 113
1, 55440, Note_on_c, 0, 64, 113
1, 55440, Note_on_c, 0, 67, 116
1, 55440, Note_on_c, 0, 74, 113
1, 55443, Note_on_c, 9, 69, 50
1, 55444, Note_on_c, 4, 67, 122
1, 55444, Note_off_c, 9, 69, 76
1, 55450, Note_off_c, 1, 48, 97
1, 55487, Note_on_c, 9, 42, 80
1, 55487, Note_on_c, 9, 69, 104
1, 55488, Note_on_c, 9, 36, 124
1, 55488, Note_on_c, 9, 40, 114
1, 55488, Note_off_c, 9, 42, 88
1, 55488, Note_on_c, 12, 55, 114
1, 55488, Note_on_c, 12, 60, 122
1, 55488, Note_on_c, 9, 62, 124
1, 55488, Note_on_c, 12, 64, 122
1, 55488, Note_on_c, 2, 67, 119
1, 55488, Note_off_c, 9, 69, 68
1, 55488, Note_on_c, 2, 72, 122
1, 55488, Note_on_c, 2, 76, 120
1, 55489, Note_off_c, 9, 36, 96
1, 55489, Note_off_c, 9, 40, 86
1, 55489, Note_off_c, 9, 62, 108
1, 55506, Pitch_bend_c, 4, 7808
1, 55515, Note_off_c, 4, 67, 104
1, 55515, Pitch_bend_c, 4, 7552
1, 55523, Note_off_c, 2, 72, 108
1, 55526, Note_off_c, 2, 67, 99
1, 55529, Pitch_bend_c, 4, 7424
1, 55536, Note_off_c, 2, 76, 102
1, 55539, Note_off_c, 0, 67, 106
1, 55539, Note_on_c, 9, 69, 50
1, 55539, Note_off_c, 0, 74, 44
1, 55540, Note_off_c, 0, 64, 97
1, 55540, Note_off_c, 12, 60, 97
1, 55540, Note_on_c, 4, 64, 113
1, 55540, Note_off_c, 9, 69, 68
1, 55544, Note_off_c, 0, 60, 104
1, 55548, Note_off_c, 12, 64, 106
1, 55553, Pitch_bend_c, 4, 7936
1, 55560, Note_off_c, 4, 64, 110
1, 55561, Pitch_bend_c, 4, 8192
1, 55576, Note_off_c, 12, 55, 71
1, 55583, Note_on_c, 9, 46, 80
1, 55583, Note_on_c, 9, 69, 96
1, 55584, Note_off_c, 9, 46, 88
1, 55584, Note_on_c, 1, 48, 113
1, 55584, Note_on_c, 0, 60, 110
1, 55584, Note_on_c, 0, 62, 106
1, 55584, Note_on_c, 9, 64, 116
1, 55584, Note_on_c, 0, 65, 110
1, 55584, Note_on_c, 4, 67, 119
1, 55584, Note_off_c, 9, 69, 68
1, 55584, Note_on_c, 0, 74, 108
1, 55585, Note_off_c, 9, 64, 96
1, 55610, Note_off_c, 0, 65, 104
1, 55615, Note_off_c, 0, 74, 84
1, 55620, Note_off_c, 0, 60, 110
1, 55622, Note_off_c, 0, 62, 111
1, 55626, Note_off_c, 4, 67, 108
1, 55630, Note_off_c, 1, 48, 108
1, 55632, Note_on_c, 9, 64, 108
1, 55633, Note_off_c, 9, 64, 104
1, 55635, Note_on_c, 9, 69, 50
1, 55636, Note_off_c, 9, 69, 68
1, 55636, Note_on_c, 4, 69, 123
1, 55670, Note_on_c, 4, 63, 116
1, 55679, Note_on_c, 9, 42, 80
1, 55679, Note_on_c, 9, 69, 104
1, 55680, Note_on_c, 1, 36, 106
1, 55680, Note_on_c, 9, 36, 124
1, 55680, Note_off_c, 9, 42, 92
1, 55680, Note_on_c, 12, 55, 114
1, 55680, Note_on_c, 0, 60, 111
1, 55680, Note_on_c, 12, 60, 123
1, 55680, Note_on_c, 9, 63, 124
1, 55680, Note_on_c, 0, 64, 113
1, 55680, Note_on_c, 12, 64, 122
1, 55680, Note_on_c, 0, 67, 114
1, 55680, Note_on_c, 2, 67, 120
1, 55680, Note_off_c, 9, 69, 84
1, 55680, Note_on_c, 2, 72, 122
1, 55680, Note_on_c, 0, 74, 111
1, 55680, Note_on_c, 2, 76, 122
1, 55681, Note_off_c, 4, 69, 113
1, 55681, Note_off_c, 9, 36, 108
1, 55681, Note_off_c, 9, 63, 96
1, 55707, Note_off_c, 0, 67, 91
1, 55710, Note_off_c, 2, 72, 110
1, 55715, Note_off_c, 0, 64, 106
1, 55716, Note_off_c, 2, 67, 102
1, 55720, Note_off_c, 4, 63, 84
1, 55722, Note_on_c, 4, 62, 113
1, 55722, Note_off_c, 2, 76, 108
1, 55723, Note_off_c, 0, 74, 76
1, 55731, Note_off_c, 12, 60, 97
1, 55731, Note_on_c, 9, 69, 50
1, 55732, Note_off_c, 9, 69, 84
1, 55733, Note_off_c, 0, 60, 102
1, 55734, Note_off_c, 12, 64, 108
1, 55743, Note_off_c, 1, 36, 81
1, 55758, Note_off_c, 12, 55, 94
1, 55775, Note_on_c, 9, 46, 80
1, 55775, Note_on_c, 9, 69, 100
1, 55776, Note_off_c, 9, 46, 92
1, 55776, Note_on_c, 1, 48, 119
1, 55776, Note_on_c, 9, 63, 124
1, 55776, Note_on_c, 2, 67, 48
1, 55776, Note_off_c, 9, 69, 92
1, 55776, Note_on_c, 2, 72, 84
1, 55777, Note_off_c, 2, 67, 60
1, 55777, Note_off_c, 2, 72, 60
1, 55777, Note_off_c, 9, 63, 100
1, 55782, Note_off_c, 4, 62, 81
1, 55824, Note_on_c, 12, 55, 106
1, 55824, Note_on_c, 0, 60, 113
1, 55824, Note_on_c, 0, 64, 110
1, 55824, Note_on_c, 0, 67, 114
1, 55824, Note_on_c, 2, 67, 95
1, 55824, Note_on_c, 2, 72, 97
1, 55824, Note_on_c, 0, 74, 110
1, 55825, Note_off_c, 2, 67, 60
1, 55825, Note_off_c, 2, 72, 60
1, 55827, Note_on_c, 9, 69, 50
1, 55828, Note_off_c, 9, 69, 92
1, 55838, Note_off_c, 1, 48, 108
1, 55852, Pitch_bend_c, 4, 8576
1, 55859, Note_on_c, 4, 62, 119
1, 55861, Pitch_bend_c, 4, 10112
1, 55868, Pitch_bend_c, 4, 11520
1, 55871, Note_on_c, 9, 42, 80
1, 55871, Note_on_c, 9, 69, 100
1, 55872, Note_on_c, 9, 36, 124
1, 55872, Note_on_c, 9, 40, 114
1, 55872, Note_off_c, 9, 42, 96
1, 55872, Note_on_c, 12, 60, 124
1, 55872, Note_on_c, 9, 62, 124
1, 55872, Note_on_c, 12, 64, 124
1, 55872, Note_on_c, 2, 67, 120
1, 55872, Note_off_c, 9, 69, 92
1, 55872, Note_on_c, 2, 72, 123
1, 55872, Note_on_c, 2, 76, 122
1, 55873, Note_off_c, 9, 36, 112
1, 55873, Note_off_c, 9, 40, 98
1, 55873, Note_off_c, 9, 62, 104
1, 55875, Pitch_bend_c, 4, 13184
1, 55882, Pitch_bend_c, 4, 13568
1, 55889, Pitch_bend_c, 4, 13952
1, 55896, Pitch_bend_c, 4, 13440
1, 55904, Pitch_bend_c, 4, 11648
1, 55908, Note_off_c, 2, 72, 108
1, 55912, Note_off_c, 2, 67, 97
1, 55913, Pitch_bend_c, 4, 9472
1, 55917, Note_off_c, 2, 76, 104
1, 55920, Note_on_c, 1, 48, 114
1, 55921, Pitch_bend_c, 4, 8576
1, 55923, Note_on_c, 9, 69, 50
1, 55924, Note_off_c, 9, 69, 92
1, 55925, Note_off_c, 4, 62, 106
1, 55929, Pitch_bend_c, 4, 8448
1, 55936, Pitch_bend_c, 4, 8192
1, 55938, Note_off_c, 12, 64, 99
1, 55941, Note_off_c, 12, 60, 97
1, 55957, Note_off_c, 1, 48, 113
1, 55960, Note_off_c, 12, 55, 81
1, 55966, Note_on_c, 10, 53, 61
1, 55966, Note_on_c, 10, 57, 73
1, 55966, Note_on_c, 10, 62, 81
1, 55967, Note_on_c, 9, 46, 80
1, 55967, Note_on_c, 9, 69, 100
1, 55968, Note_off_c, 9, 46, 96
1, 55968, Note_on_c, 9, 64, 112
1, 55968, Note_off_c, 9, 69, 92
1, 55968, Note_on_c, 2, 69, 48
1, 55968, Note_on_c, 2, 72, 84
1, 55969, Note_off_c, 2, 69, 60
1, 55969, Note_off_c, 2, 72, 60
1, 55969, Note_off_c, 9, 64, 104
1, 55976, Note_off_c, 10, 53, 102
1, 55976, Note_off_c, 10, 57, 104
1, 55976, Note_off_c, 10, 62, 84
1, 55984, Note_off_c, 0, 64, 108
1, 55995, Note_off_c, 0, 60, 108
1, 55999, Note_off_c, 0, 67, 99
1, 56001, Note_off_c, 0, 74, 84
1, 56014, Note_on_c, 10, 53, 105
1, 56014, Note_on_c, 10, 57, 99
1, 56014, Note_on_c, 10, 62, 93
1, 56016, Note_on_c, 9, 64, 108
1, 56016, Note_on_c, 2, 69, 95
1, 56016, Note_on_c, 2, 72, 97
1, 56017, Note_off_c, 2, 69, 60
1, 56017, Note_off_c, 2, 72, 60
1, 56017, Note_off_c, 9, 64, 112
1, 56019, Note_on_c, 9, 69, 50
1, 56020, Note_off_c, 9, 69, 92
1, 56024, Note_off_c, 10, 53, 111
1, 56024, Note_off_c, 10, 57, 106
1, 56024, Note_off_c, 10, 62, 111
1, 56062, Note_on_c, 10, 53, 122
1, 56062, Note_on_c, 10, 57, 123
1, 56062, Note_on_c, 10, 62, 124
1, 56063, Note_on_c, 9, 42, 80
1, 56063, Note_on_c, 9, 69, 96
1, 56064, Note_on_c, 9, 36, 124
1, 56064, Note_on_c, 1, 38, 119
1, 56064, Note_off_c, 9, 42, 88
1, 56064, Note_on_c, 12, 57, 113
1, 56064, Note_on_c, 12, 60, 123
1, 56064, Note_on_c, 0, 62, 113
1, 56064, Note_on_c, 9, 63, 120
1, 56064, Note_on_c, 0, 65, 110
1, 56064, Note_on_c, 12, 65, 122
1, 56064, Note_off_c, 9, 69, 80
1, 56064, Note_on_c, 0, 69, 119
1, 56064, Note_on_c, 2, 69, 122
1, 56064, Note_on_c, 2, 72, 122
1, 56064, Note_on_c, 0, 74, 113
1, 56064, Note_on_c, 2, 77, 122
1, 56064, Note_on_c, 6, 77, 90
1, 56065, Note_off_c, 9, 36, 76
1, 56065, Note_off_c, 9, 63, 92
1, 56083, Note_off_c, 2, 69, 60
1, 56085, Note_off_c, 6, 72, 102
1, 56088, Note_off_c, 0, 69, 97
1, 56094, Note_off_c, 2, 72, 91
1, 56100, Note_off_c, 0, 65, 102
1, 56101, Note_off_c, 0, 74, 94
1, 56109, Note_off_c, 0, 62, 104
1, 56115, Note_on_c, 9, 69, 50
1, 56115, Note_off_c, 2, 77, 102
1, 56116, Note_off_c, 9, 69, 80
1, 56118, Note_off_c, 1, 38, 97
1, 56126, Note_off_c, 12, 65, 110
1, 56127, Note_off_c, 12, 60, 97
1, 56145, Pitch_bend_c, 10, 7808
1, 56147, Note_off_c, 12, 57, 91
1, 56153, Pitch_bend_c, 10, 6656
1, 56156, Note_off_c, 10, 62, 110
1, 56159, Note_on_c, 9, 46, 80
1, 56159, Note_on_c, 9, 69, 88
1, 56160, Note_off_c, 9, 46, 88
1, 56160, Note_on_c, 1, 50, 117
1, 56160, Note_off_c, 9, 69, 76
1, 56160, Pitch_bend_c, 10, 5632
1, 56160, Note_on_c, 9, 63, 116
1, 56161, Note_off_c, 9, 63, 84
1, 56164, Note_off_c, 10, 57, 114
1, 56166, Note_off_c, 10, 53, 110
1, 56167, Pitch_bend_c, 10, 3968
1, 56177, Pitch_bend_c, 10, 3328
1, 56184, Pitch_bend_c, 10, 7808
1, 56191, Pitch_bend_c, 10, 8704
1, 56200, Pitch_bend_c, 10, 8320
1, 56207, Note_off_c, 1, 50, 104
1, 56207, Pitch_bend_c, 10, 8192
1, 56208, Note_on_c, 0, 62, 114
1, 56208, Note_on_c, 0, 65, 110
1, 56208, Note_on_c, 0, 69, 114
1, 56208, Note_on_c, 0, 74, 113
1, 56211, Note_on_c, 9, 69, 50
1, 56212, Note_off_c, 9, 69, 76
1, 56255, Note_on_c, 9, 42, 80
1, 56255, Note_on_c, 9, 69, 104
1, 56256, Note_on_c, 9, 36, 124
1, 56256, Note_on_c, 1, 40, 108
1, 56256, Note_on_c, 9, 40, 114
1, 56256, Note_off_c, 9, 42, 88
1, 56256, Note_on_c, 12, 57, 114
1, 56256, Note_on_c, 12, 60, 122
1, 56256, Note_on_c, 9, 62, 124
1, 56256, Note_on_c, 12, 65, 123
1, 56256, Note_off_c, 9, 69, 68
1, 56256, Note_on_c, 2, 69, 122
1, 56256, Note_on_c, 2, 72, 122
1, 56256, Note_on_c, 2, 77, 122
1, 56257, Note_off_c, 9, 36, 96
1, 56257, Note_off_c, 9, 40, 86
1, 56257, Note_off_c, 9, 62, 108
1, 56293, Note_off_c, 2, 72, 99
1, 56297, Note_off_c, 2, 69, 94
1, 56306, Note_off_c, 1, 40, 91
1, 56307, Note_on_c, 9, 69, 50
1, 56308, Note_off_c, 9, 69, 68
1, 56310, Note_off_c, 2, 77, 108
1, 56312, Note_off_c, 0, 74, 81
1, 56313, Note_off_c, 0, 69, 102
1, 56313, Pitch_bend_c, 4, 8064
1, 56314, Note_off_c, 0, 65, 99
1, 56314, Note_off_c, 12, 60, 94
1, 56315, Note_off_c, 0, 62, 108
1, 56320, Note_off_c, 12, 65, 108
1, 56321, Pitch_bend_c, 4, 7808
1, 56328, Pitch_bend_c, 4, 7296
1, 56335, Pitch_bend_c, 4, 5632
1, 56338, Note_off_c, 12, 57, 71
1, 56344, Pitch_bend_c, 4, 3968
1, 56351, Pitch_bend_c, 4, 2688
1, 56351, Note_on_c, 9, 46, 80
1, 56351, Note_on_c, 9, 69, 96
1, 56352, Note_off_c, 9, 46, 88
1, 56352, Note_on_c, 1, 52, 113
1, 56352, Note_on_c, 0, 62, 110
1, 56352, Note_on_c, 0, 64, 113
1, 56352, Note_on_c, 9, 64, 116
1, 56352, Note_on_c, 0, 67, 113
1, 56352, Note_off_c, 9, 69, 68
1, 56352, Note_on_c, 4, 69, 124
1, 56352, Note_on_c, 0, 74, 113
1, 56353, Note_off_c, 9, 64, 96
1, 56359, Pitch_bend_c, 4, 1664
1, 56367, Pitch_bend_c, 4, 896
1, 56373, Control_c, 4, 11, 107
1, 56374, Pitch_bend_c, 4, 512
1, 56375, Note_off_c, 0, 67, 102
1, 56380, Note_off_c, 0, 64, 108
1, 56385, Note_off_c, 0, 74, 104
1, 56385, Pitch_bend_c, 4, 1152
1, 56388, Note_off_c, 0, 62, 108
1, 56390, Control_c, 4, 11, 52
1, 56392, Pitch_bend_c, 4, 1536
1, 56400, Note_on_c, 9, 64, 108
1, 56401, Note_off_c, 1, 52, 106
1, 56401, Note_off_c, 9, 64, 104
1, 56401, Pitch_bend_c, 4, 2304
1, 56403, Note_on_c, 9, 69, 50
1, 56404, Note_off_c, 9, 69, 68
1, 56406, Control_c, 4, 11, 35
1, 56408, Pitch_bend_c, 4, 3072
1, 56415, Pitch_bend_c, 4, 3968
1, 56424, Pitch_bend_c, 4, 4608
1, 56431, Pitch_bend_c, 4, 5120
1, 56438, Pitch_bend_c, 4, 5504
1, 56441, Control_c, 4, 11, 46
1, 56445, Pitch_bend_c, 4, 5888
1, 56447, Note_on_c, 9, 42, 80
1, 56447, Note_on_c, 9, 69, 104
1, 56448, Note_on_c, 9, 36, 124
1, 56448, Note_on_c, 1, 41, 111
1, 56448, Note_off_c, 9, 42, 92
1, 56448, Note_on_c, 12, 57, 116
1, 56448, Note_on_c, 12, 60, 123
1, 56448, Note_on_c, 0, 62, 113
1, 56448, Note_on_c, 9, 63, 124
1, 56448, Note_on_c, 0, 65, 106
1, 56448, Note_on_c, 12, 65, 124
1, 56448, Note_off_c, 9, 69, 84
1, 56448, Note_on_c, 0, 69, 120
1, 56448, Note_on_c, 2, 69, 120
1, 56448, Note_on_c, 2, 72, 122
1, 56448, Note_on_c, 0, 74, 114
1, 56448, Note_on_c, 2, 77, 123
1, 56449, Note_off_c, 9, 36, 108
1, 56449, Note_off_c, 9, 63, 96
1, 56452, Pitch_bend_c, 4, 6016
1, 56456, Control_c, 4, 11, 52
1, 56459, Pitch_bend_c, 4, 6400
1, 56466, Pitch_bend_c, 4, 6784
1, 56474, Control_c, 4, 11, 59
1, 56475, Pitch_bend_c, 4, 6912
1, 56477, Note_off_c, 0, 69, 108
1, 56482, Pitch_bend_c, 4, 7040
1, 56485, Note_off_c, 2, 72, 97
1, 56487, Note_off_c, 0, 62, 106
1, 56490, Note_off_c, 1, 41, 108
1, 56491, Note_off_c, 0, 65, 91
1, 56491, Note_off_c, 2, 69, 84
1, 56492, Pitch_bend_c, 4, 7168
1, 56493, Note_off_c, 0, 74, 76
1, 56494, Control_c, 4, 11, 64
1, 56497, Note_off_c, 12, 60, 71
1, 56499, Note_on_c, 9, 69, 50
1, 56500, Note_off_c, 2, 77, 104
1, 56500, Note_off_c, 9, 69, 84
1, 56500, Pitch_bend_c, 4, 7296
1, 56508, Note_off_c, 12, 65, 110
1, 56509, Pitch_bend_c, 4, 7424
1, 56513, Control_c, 4, 11, 70
1, 56517, Note_off_c, 12, 57, 94
1, 56517, Pitch_bend_c, 4, 7552
1, 56527, Pitch_bend_c, 4, 7680
1, 56534, Control_c, 4, 11, 77
1, 56543, Note_on_c, 9, 46, 80
1, 56543, Note_on_c, 9, 69, 100
1, 56544, Note_off_c, 9, 46, 92
1, 56544, Note_off_c, 9, 69, 92
1, 56544, Pitch_bend_c, 4, 7808
1, 56544, Note_on_c, 1, 53, 111
1, 56544, Note_on_c, 9, 63, 124
1, 56545, Note_off_c, 9, 63, 100
1, 56554, Pitch_bend_c, 4, 7936
1, 56560, Control_c, 4, 11, 86
1, 56576, Control_c, 4, 11, 91
1, 56584, Pitch_bend_c, 4, 8192
1, 56592, Note_on_c, 12, 57, 104
1, 56592, Note_on_c, 0, 62, 114
1, 56592, Note_on_c, 0, 65, 110
1, 56592, Note_on_c, 0, 69, 119
1, 56592, Note_on_c, 0, 74, 114
1, 56594, Note_off_c, 1, 53, 108
1, 56595, Control_c, 4, 11, 96
1, 56595, Note_on_c, 9, 69, 50
1, 56596, Note_off_c, 9, 69, 92
1, 56618, Control_c, 4, 11, 103
1, 56636, Control_c, 4, 11, 107
1, 56639, Note_on_c, 9, 42, 80
1, 56639, Note_on_c, 9, 69, 100
1, 56640, Note_on_c, 9, 36, 124
1, 56640, Note_on_c, 9, 40, 114
1, 56640, Note_on_c, 1, 41, 110
1, 56640, Note_off_c, 9, 42, 96
1, 56640, Note_on_c, 12, 60, 124
1, 56640, Note_on_c, 9, 62, 124
1, 56640, Note_on_c, 12, 65, 124
1, 56640, Note_off_c, 9, 69, 92
1, 56640, Note_on_c, 2, 69, 122
1, 56640, Note_on_c, 2, 72, 122
1, 56640, Note_on_c, 2, 77, 124
1, 56641, Note_off_c, 9, 36, 112
1, 56641, Note_off_c, 9, 40, 98
1, 56641, Note_off_c, 9, 62, 104
1, 56652, Control_c, 4, 11, 112
1, 56668, Control_c, 4, 11, 118
1, 56675, Note_off_c, 2, 72, 102
1, 56677, Note_off_c, 1, 41, 106
1, 56686, Control_c, 4, 11, 127
1, 56688, Note_on_c, 1, 53, 108
1, 56689, Note_off_c, 2, 69, 13
1, 56691, Note_on_c, 9, 69, 50
1, 56692, Note_off_c, 9, 69, 92
1, 56693, Note_off_c, 2, 77, 108
1, 56705, Note_off_c, 4, 69, 113
1, 56710, Note_off_c, 12, 60, 97
1, 56712, Note_off_c, 12, 65, 106
1, 56730, Note_off_c, 12, 57, 84
1, 56735, Note_on_c, 9, 46, 80
1, 56735, Note_on_c, 9, 69, 100
1, 56735, Note_on_c, 4, 72, 99
1, 56736, Note_off_c, 9, 46, 96
1, 56736, Note_on_c, 9, 64, 112
1, 56736, Note_on_c, 2, 67, 48
1, 56736, Note_off_c, 9, 69, 92
1, 56736, Note_on_c, 2, 72, 84
1, 56737, Note_off_c, 2, 67, 60
1, 56737, Note_off_c, 2, 72, 60
1, 56737, Note_off_c, 9, 64, 104
1, 56744, Control_c, 4, 11, 127
1, 56752, Pitch_bend_c, 1, 7936
1, 56757, Note_off_c, 4, 72, 104
1, 56758, Note_off_c, 0, 62, 106
1, 56760, Pitch_bend_c, 1, 7424
1, 56763, Note_off_c, 0, 65, 99
1, 56764, Note_off_c, 0, 74, 84
1, 56768, Pitch_bend_c, 1, 6016
1, 56775, Pitch_bend_c, 1, 6272
1, 56778, Note_off_c, 0, 69, 102
1, 56780, Note_on_c, 4, 69, 114
1, 56782, Pitch_bend_c, 1, 7680
1, 56783, Note_off_c, 1, 53, 108
1, 56784, Note_on_c, 9, 64, 108
1, 56784, Note_on_c, 2, 67, 95
1, 56784, Note_on_c, 2, 72, 97
1, 56785, Note_off_c, 2, 67, 60
1, 56785, Note_off_c, 2, 72, 60
1, 56785, Note_off_c, 9, 64, 112
1, 56787, Note_on_c, 9, 69, 50
1, 56788, Note_off_c, 9, 69, 92
1, 56789, Pitch_bend_c, 1, 7936
1, 56797, Pitch_bend_c, 1, 8192
1, 56811, Note_off_c, 4, 69, 111
1, 56828, Note_on_c, 4, 72, 124
1, 56831, Note_on_c, 9, 42, 80
1, 56831, Note_on_c, 9, 69, 96
1, 56832, Note_on_c, 1, 36, 110
1, 56832, Note_on_c, 9, 36, 124
1, 56832, Note_off_c, 9, 42, 88
1, 56832, Note_on_c, 12, 55, 111
1, 56832, Note_on_c, 0, 60, 111
1, 56832, Note_on_c, 12, 60, 123
1, 56832, Note_on_c, 9, 63, 120
1, 56832, Note_on_c, 0, 64, 111
1, 56832, Note_on_c, 12, 64, 122
1, 56832, Note_on_c, 0, 67, 116
1, 56832, Note_on_c, 2, 67, 117
1, 56832, Note_off_c, 9, 69, 80
1, 56832, Note_on_c, 2, 72, 122
1, 56832, Note_on_c, 0, 74, 111
1, 56832, Note_on_c, 2, 76, 120
1, 56832, Note_on_c, 6, 84, 90
1, 56833, Note_off_c, 9, 36, 76
1, 56833, Note_off_c, 9, 63, 92
1, 56834, Note_off_c, 6, 77, 102
1, 56839, Pitch_bend_c, 4, 8576
1, 56846, Pitch_bend_c, 4, 10880
1, 56854, Pitch_bend_c, 4, 14336
1, 56861, Note_off_c, 0, 64, 97
1, 56861, Note_off_c, 0, 67, 110
1, 56861, Pitch_bend_c, 4, 15616
1, 56868, Pitch_bend_c, 4, 16000
1, 56872, Note_off_c, 0, 74, 91
1, 56873, Note_off_c, 2, 72, 97
1, 56875, Pitch_bend_c, 4, 16256
1, 56878, Note_off_c, 0, 60, 104
1, 56880, Note_off_c, 1, 36, 84
1, 56882, Pitch_bend_c, 4, 16000
1, 56883, Note_on_c, 9, 69, 50
1, 56884, Note_off_c, 2, 67, 76
1, 56884, Note_off_c, 9, 69, 80
1, 56886, Note_off_c, 2, 76, 97
1, 56890, Note_off_c, 12, 60, 97
1, 56891, Pitch_bend_c, 4, 15104
1, 56898, Pitch_bend_c, 4, 13696
1, 56901, Note_off_c, 12, 64, 99
1, 56908, Pitch_bend_c, 4, 11136
1, 56911, Note_off_c, 12, 55, 84
1, 56915, Pitch_bend_c, 4, 9472
1, 56916, Note_off_c, 4, 72, 110
1, 56922, Pitch_bend_c, 4, 8576
1, 56924, Note_on_c, 4, 69, 111
1, 56927, Note_on_c, 9, 46, 80
1, 56927, Note_on_c, 9, 69, 88
1, 56928, Note_off_c, 9, 46, 88
1, 56928, Note_on_c, 1, 48, 114
1, 56928, Note_on_c, 9, 63, 116
1, 56928, Note_off_c, 9, 69, 76
1, 56929, Note_off_c, 9, 63, 84
1, 56929, Pitch_bend_c, 4, 8448
1, 56936, Pitch_bend_c, 4, 8192
1, 56960, Note_off_c, 4, 69, 102
1, 56971, Note_on_c, 4, 72, 119
1, 56976, Note_on_c, 0, 60, 113
1, 56976, Note_on_c, 0, 64, 111
1, 56976, Note_on_c, 0, 67, 114
1, 56976, Note_on_c, 0, 74, 113
1, 56979, Note_on_c, 9, 69, 50
1, 56980, Note_off_c, 9, 69, 76
1, 56986, Note_off_c, 1, 48, 97
1, 57023, Note_on_c, 9, 42, 80
1, 57023, Note_on_c, 9, 69, 104
1, 57024, Note_on_c, 9, 36, 124
1, 57024, Note_on_c, 9, 40, 114
1, 57024, Note_off_c, 9, 42, 88
1, 57024, Note_on_c, 12, 55, 110
1, 57024, Note_on_c, 12, 60, 124
1, 57024, Note_on_c, 9, 62, 124
1, 57024, Note_on_c, 12, 64, 122
1, 57024, Note_on_c, 2, 67, 119
1, 57024, Note_off_c, 9, 69, 68
1, 57024, Note_on_c, 2, 72, 122
1, 57024, Note_on_c, 2, 76, 120
1, 57025, Note_off_c, 4, 72, 111
1, 57025, Note_off_c, 9, 36, 96
1, 57025, Note_off_c, 9, 40, 86
1, 57025, Note_off_c, 9, 62, 108
1, 57059, Note_off_c, 2, 72, 108
1, 57062, Note_off_c, 2, 67, 99
1, 57070, Note_on_c, 4, 69, 110
1, 57072, Note_off_c, 2, 76, 102
1, 57075, Note_on_c, 9, 69, 50
1, 57076, Note_off_c, 9, 69, 68
1, 57082, Note_off_c, 12, 60, 97
1, 57084, Note_off_c, 0, 67, 110
1, 57085, Note_off_c, 0, 60, 110
1, 57085, Note_off_c, 0, 64, 104
1, 57086, Note_off_c, 0, 74, 81
1, 57091, Note_off_c, 12, 64, 97
1, 57092, Note_off_c, 4, 69, 104
1, 57100, Note_off_c, 12, 55, 97
1, 57116, Note_on_c, 4, 72, 120
1, 57119, Note_on_c, 9, 46, 80
1, 57119, Note_on_c, 9, 69, 96
1, 57120, Note_off_c, 9, 46, 88
1, 57120, Note_on_c, 1, 48, 113
1, 57120, Note_on_c, 0, 60, 111
1, 57120, Note_on_c, 0, 62, 108
1, 57120, Note_on_c, 9, 64, 116
1, 57120, Note_on_c, 0, 65, 111
1, 57120, Note_off_c, 9, 69, 68
1, 57120, Note_on_c, 0, 74, 99
1, 57121, Note_off_c, 9, 64, 96
1, 57133, Pitch_bend_c, 4, 9600
1, 57140, Pitch_bend_c, 4, 10880
1, 57146, Note_off_c, 0, 74, 94
1, 57148, Pitch_bend_c, 4, 13312
1, 57151, Note_off_c, 0, 65, 108
1, 57152, Note_off_c, 0, 62, 99
1, 57155, Note_off_c, 0, 60, 108
1, 57155, Pitch_bend_c, 4, 14848
1, 57162, Pitch_bend_c, 4, 15232
1, 57166, Note_off_c, 1, 48, 108
1, 57168, Note_on_c, 9, 64, 108
1, 57169, Note_off_c, 9, 64, 104
1, 57170, Pitch_bend_c, 4, 14848
1, 57171, Note_on_c, 9, 69, 50
1, 57172, Note_off_c, 9, 69, 68
1, 57178, Pitch_bend_c, 4, 13952
1, 57186, Pitch_bend_c, 4, 12672
1, 57194, Pitch_bend_c, 4, 10880
1, 57201, Pitch_bend_c, 4, 9856
1, 57202, Note_off_c, 4, 72, 108
1, 57208, Pitch_bend_c, 4, 8576
1, 57214, Note_on_c, 4, 69, 114
1, 57215, Pitch_bend_c, 4, 8448
1, 57215, Note_on_c, 9, 42, 80
1, 57215, Note_on_c, 9, 69, 104
1, 57216, Note_on_c, 1, 36, 106
1, 57216, Note_on_c, 9, 36, 124
1, 57216, Note_off_c, 9, 42, 92
1, 57216, Note_on_c, 12, 55, 114
1, 57216, Note_on_c, 0, 60, 111
1, 57216, Note_on_c, 12, 60, 124
1, 57216, Note_on_c, 9, 63, 124
1, 57216, Note_on_c, 0, 64, 114
1, 57216, Note_on_c, 12, 64, 123
1, 57216, Note_on_c, 0, 67, 113
1, 57216, Note_on_c, 2, 67, 120
1, 57216, Note_off_c, 9, 69, 84
1, 57216, Note_on_c, 2, 72, 122
1, 57216, Note_on_c, 0, 74, 110
1, 57216, Note_on_c, 2, 76, 122
1, 57217, Note_off_c, 9, 36, 108
1, 57217, Note_off_c, 9, 63, 96
1, 57223, Pitch_bend_c, 4, 8192
1, 57241, Note_off_c, 0, 67, 81
1, 57246, Note_off_c, 2, 72, 110
1, 57250, Note_off_c, 4, 69, 97
1, 57250, Note_off_c, 0, 74, 13
1, 57252, Note_off_c, 2, 67, 102
1, 57255, Note_off_c, 0, 64, 102
1, 57258, Note_off_c, 2, 76, 108
1, 57260, Note_on_c, 4, 72, 117
1, 57267, Note_off_c, 0, 60, 108
1, 57267, Note_on_c, 9, 69, 50
1, 57268, Note_off_c, 9, 69, 84
1, 57270, Note_off_c, 12, 60, 97
1, 57274, Note_off_c, 12, 64, 108
1, 57279, Note_off_c, 1, 36, 81
1, 57291, Note_off_c, 12, 55, 84
1, 57293, Note_off_c, 4, 72, 102
1, 57311, Note_on_c, 9, 46, 80
1, 57311, Note_on_c, 9, 69, 100
1, 57312, Note_off_c, 9, 46, 92
1, 57312, Note_on_c, 1, 48, 119
1, 57312, Note_on_c, 9, 63, 124
1, 57312, Note_on_c, 2, 67, 48
1, 57312, Note_off_c, 9, 69, 92
1, 57312, Note_on_c, 2, 72, 84
1, 57313, Note_off_c, 2, 67, 60
1, 57313, Note_off_c, 2, 72, 60
1, 57313, Note_off_c, 9, 63, 100
1, 57354, Note_on_c, 4, 69, 111
1, 57360, Note_on_c, 12, 55, 102
1, 57360, Note_on_c, 0, 60, 113
1, 57360, Note_on_c, 0, 64, 113
1, 57360, Note_on_c, 0, 67, 116
1, 57360, Note_on_c, 2, 67, 95
1, 57360, Note_on_c, 2, 72, 97
1, 57360, Note_on_c, 0, 74, 111
1, 57361, Note_off_c, 2, 67, 60
1, 57361, Note_off_c, 2, 72, 60
1, 57363, Note_on_c, 9, 69, 50
1, 57364, Note_off_c, 9, 69, 92
1, 57374, Note_off_c, 1, 48, 108
1, 57385, Note_off_c, 4, 69, 106
1, 57402, Note_on_c, 4, 72, 123
1, 57407, Note_on_c, 9, 42, 80
1, 57407, Note_on_c, 9, 69, 100
1, 57408, Note_on_c, 9, 36, 124
1, 57408, Note_on_c, 9, 40, 114
1, 57408, Note_off_c, 9, 42, 96
1, 57408, Note_on_c, 12, 60, 124
1, 57408, Note_on_c, 9, 62, 124
1, 57408, Note_on_c, 12, 64, 124
1, 57408, Note_on_c, 2, 67, 120
1, 57408, Note_off_c, 9, 69, 92
1, 57408, Note_on_c, 2, 72, 123
1, 57408, Note_on_c, 2, 76, 122
1, 57409, Note_off_c, 9, 36, 112
1, 57409, Note_off_c, 9, 40, 98
1, 57409, Note_off_c, 9, 62, 104
1, 57444, Note_off_c, 2, 72, 108
1, 57448, Note_off_c, 2, 67, 97
1, 57453, Note_off_c, 2, 76, 104
1, 57456, Note_on_c, 1, 48, 114
1, 57459, Note_on_c, 9, 69, 50
1, 57460, Note_off_c, 9, 69, 92
1, 57473, Note_off_c, 12, 60, 97
1, 57484, Note_off_c, 12, 64, 97
1, 57493, Note_off_c, 1, 48, 113
1, 57494, Note_off_c, 4, 72, 110
1, 57498, Note_on_c, 4, 69, 120
1, 57502, Note_on_c, 10, 53, 61
1, 57502, Note_on_c, 10, 57, 73
1, 57502, Note_on_c, 10, 62, 81
1, 57503, Note_on_c, 9, 46, 80
1, 57503, Note_on_c, 9, 69, 100
1, 57504, Note_off_c, 9, 46, 96
1, 57504, Note_on_c, 9, 64, 112
1, 57504, Note_off_c, 9, 69, 92
1, 57504, Note_on_c, 2, 69, 48
1, 57504, Note_on_c, 2, 72, 84
1, 57505, Note_off_c, 2, 69, 60
1, 57505, Note_off_c, 2, 72, 60
1, 57505, Note_off_c, 9, 64, 104
1, 57508, Note_off_c, 0, 64, 94
1, 57512, Note_off_c, 10, 53, 102
1, 57512, Note_off_c, 10, 57, 104
1, 57512, Note_off_c, 10, 62, 84
1, 57516, Note_off_c, 0, 60, 110
1, 57522, Note_off_c, 0, 74, 84
1, 57527, Note_off_c, 12, 55, 44
1, 57531, Note_off_c, 0, 67, 102
1, 57550, Note_on_c, 10, 53, 105
1, 57550, Note_on_c, 10, 57, 99
1, 57550, Note_on_c, 10, 62, 93
1, 57552, Note_on_c, 9, 64, 108
1, 57552, Note_on_c, 2, 69, 95
1, 57552, Note_on_c, 2, 72, 97
1, 57553, Note_off_c, 2, 69, 60
1, 57553, Note_off_c, 2, 72, 60
1, 57553, Note_off_c, 9, 64, 112
1, 57555, Note_on_c, 9, 69, 50
1, 57556, Note_off_c, 9, 69, 92
1, 57558, Pitch_bend_c, 4, 6912
1, 57560, Note_off_c, 10, 53, 111
1, 57560, Note_off_c, 10, 57, 106
1, 57560, Note_off_c, 10, 62, 111
1, 57565, Pitch_bend_c, 4, 5632
1, 57566, Note_off_c, 4, 69, 113
1, 57572, Pitch_bend_c, 4, 5248
1, 57580, Pitch_bend_c, 4, 7424
1, 57587, Pitch_bend_c, 4, 7808
1, 57595, Pitch_bend_c, 4, 8192
1, 57598, Note_on_c, 10, 53, 122
1, 57598, Note_on_c, 10, 57, 123
1, 57598, Note_on_c, 10, 62, 124
1, 57599, Note_on_c, 9, 42, 80
1, 57599, Note_on_c, 9, 69, 96
1, 57600, Note_on_c, 9, 36, 124
1, 57600, Note_on_c, 1, 38, 119
1, 57600, Note_off_c, 9, 42, 88
1, 57600, Note_on_c, 12, 57, 113
1, 57600, Note_on_c, 12, 60, 124
1, 57600, Note_on_c, 0, 62, 116
1, 57600, Note_on_c, 9, 63, 120
1, 57600, Note_on_c, 0, 65, 111
1, 57600, Note_on_c, 12, 65, 123
1, 57600, Note_off_c, 9, 69, 80
1, 57600, Note_on_c, 0, 69, 119
1, 57600, Note_on_c, 2, 69, 122
1, 57600, Note_on_c, 2, 72, 122
1, 57600, Note_on_c, 0, 74, 111
1, 57600, Note_on_c, 2, 77, 122
1, 57600, Note_on_c, 6, 77, 90
1, 57601, Note_off_c, 9, 36, 76
1, 57601, Note_off_c, 9, 63, 92
1, 57619, Note_off_c, 2, 69, 60
1, 57621, Note_off_c, 6, 84, 99
1, 57628, Note_off_c, 0, 69, 102
1, 57630, Note_off_c, 2, 72, 91
1, 57635, Note_off_c, 0, 65, 99
1, 57637, Note_off_c, 0, 74, 76
1, 57647, Note_off_c, 0, 62, 99
1, 57651, Note_on_c, 9, 69, 50
1, 57651, Note_off_c, 2, 77, 102
1, 57652, Note_off_c, 9, 69, 80
1, 57654, Note_off_c, 1, 38, 97
1, 57663, Note_off_c, 12, 60, 94
1, 57665, Note_off_c, 12, 65, 106
1, 57681, Pitch_bend_c, 10, 7808
1, 57685, Pitch_bend_c, 4, 7680
1, 57689, Pitch_bend_c, 10, 6656
1, 57692, Note_off_c, 10, 62, 110
1, 57693, Pitch_bend_c, 4, 4736
1, 57695, Note_on_c, 9, 46, 80
1, 57695, Note_on_c, 9, 69, 88
1, 57696, Note_off_c, 9, 46, 88
1, 57696, Note_on_c, 1, 50, 117
1, 57696, Note_off_c, 9, 69, 76
1, 57696, Pitch_bend_c, 10, 5632
1, 57696, Note_on_c, 9, 63, 116
1, 57697, Note_off_c, 9, 63, 84
1, 57697, Note_on_c, 4, 69, 117
1, 57699, Note_off_c, 12, 57, 81
1, 57700, Note_off_c, 10, 57, 114
1, 57700, Pitch_bend_c, 4, 3712
1, 57702, Note_off_c, 10, 53, 110
1, 57703, Pitch_bend_c, 10, 3968
1, 57708, Pitch_bend_c, 4, 3584
1, 57713, Pitch_bend_c, 10, 3328
1, 57716, Pitch_bend_c, 4, 5248
1, 57720, Pitch_bend_c, 10, 7808
1, 57724, Pitch_bend_c, 4, 7424
1, 57727, Pitch_bend_c, 10, 8704
1, 57731, Pitch_bend_c, 4, 7808
1, 57736, Pitch_bend_c, 10, 8320
1, 57738, Pitch_bend_c, 4, 8192
1, 57740, Note_off_c, 4, 69, 108
1, 57743, Note_off_c, 1, 50, 104
1, 57743, Pitch_bend_c, 10, 8192
1, 57744, Note_on_c, 0, 62, 114
1, 57744, Note_on_c, 0, 65, 110
1, 57744, Note_on_c, 0, 69, 117
1, 57744, Note_on_c, 0, 74, 113
1, 57747, Note_on_c, 9, 69, 50
1, 57748, Note_off_c, 9, 69, 76
1, 57751, Note_on_c, 4, 72, 113
1, 57789, Note_off_c, 4, 72, 110
1, 57791, Note_on_c, 9, 42, 80
1, 57791, Note_on_c, 9, 69, 104
1, 57792, Note_on_c, 9, 36, 124
1, 57792, Note_on_c, 1, 40, 108
1, 57792, Note_on_c, 9, 40, 114
1, 57792, Note_off_c, 9, 42, 88
1, 57792, Note_on_c, 12, 57, 116
1, 57792, Note_on_c, 12, 60, 124
1, 57792, Note_on_c, 9, 62, 124
1, 57792, Note_on_c, 12, 65, 123
1, 57792, Note_off_c, 9, 69, 68
1, 57792, Note_on_c, 2, 69, 122
1, 57792, Note_on_c, 2, 72, 122
1, 57792, Note_on_c, 2, 77, 122
1, 57793, Note_off_c, 9, 36, 96
1, 57793, Note_off_c, 9, 40, 86
1, 57793, Note_off_c, 9, 62, 108
1, 57829, Note_off_c, 2, 72, 99
1, 57833, Note_off_c, 2, 69, 94
1, 57840, Note_on_c, 4, 72, 122
1, 57842, Note_off_c, 0, 74, 91
1, 57842, Note_off_c, 1, 40, 91
1, 57843, Note_on_c, 9, 69, 50
1, 57844, Note_off_c, 0, 62, 104
1, 57844, Note_off_c, 9, 69, 68
1, 57846, Note_off_c, 2, 77, 108
1, 57847, Note_off_c, 12, 60, 97
1, 57848, Note_off_c, 0, 69, 106
1, 57852, Note_off_c, 0, 65, 104
1, 57853, Note_off_c, 12, 65, 108
1, 57872, Note_off_c, 12, 57, 84
1, 57873, Note_off_c, 4, 72, 111
1, 57887, Note_on_c, 9, 46, 80
1, 57887, Note_on_c, 9, 69, 96
1, 57888, Note_off_c, 9, 46, 88
1, 57888, Note_on_c, 1, 52, 113
1, 57888, Note_on_c, 0, 62, 114
1, 57888, Note_on_c, 0, 64, 111
1, 57888, Note_on_c, 9, 64, 116
1, 57888, Note_on_c, 0, 67, 116
1, 57888, Note_off_c, 9, 69, 68
1, 57888, Note_on_c, 0, 74, 108
1, 57889, Note_off_c, 9, 64, 96
1, 57913, Note_off_c, 0, 74, 76
1, 57914, Note_off_c, 0, 64, 97
1, 57914, Note_off_c, 0, 67, 104
1, 57921, Note_off_c, 0, 62, 111
1, 57923, Pitch_bend_c, 4, 6656
1, 57931, Pitch_bend_c, 4, 4480
1, 57936, Note_on_c, 9, 64, 108
1, 57937, Note_off_c, 1, 52, 106
1, 57937, Note_off_c, 9, 64, 104
1, 57937, Note_on_c, 4, 69, 114
1, 57938, Pitch_bend_c, 4, 2176
1, 57939, Note_on_c, 9, 69, 50
1, 57940, Note_off_c, 9, 69, 68
1, 57947, Pitch_bend_c, 4, 3200
1, 57956, Pitch_bend_c, 4, 6912
1, 57964, Pitch_bend_c, 4, 7680
1, 57967, Note_off_c, 4, 69, 108
1, 57972, Pitch_bend_c, 4, 7936
1, 57978, Note_on_c, 4, 72, 110
1, 57979, Pitch_bend_c, 4, 8192
1, 57983, Note_on_c, 9, 42, 80
1, 57983, Note_on_c, 9, 69, 104
1, 57984, Note_on_c, 9, 36, 124
1, 57984, Note_on_c, 1, 41, 111
1, 57984, Note_off_c, 9, 42, 92
1, 57984, Note_on_c, 12, 57, 114
1, 57984, Note_on_c, 12, 60, 124
1, 57984, Note_on_c, 0, 62, 113
1, 57984, Note_on_c, 9, 63, 124
1, 57984, Note_on_c, 0, 65, 110
1, 57984, Note_on_c, 12, 65, 124
1, 57984, Note_off_c, 9, 69, 84
1, 57984, Note_on_c, 0, 69, 119
1, 57984, Note_on_c, 2, 69, 120
1, 57984, Note_on_c, 2, 72, 122
1, 57984, Note_on_c, 0, 74, 108
1, 57984, Note_on_c, 2, 77, 123
1, 57985, Note_off_c, 9, 36, 108
1, 57985, Note_off_c, 9, 63, 96
1, 58019, Note_off_c, 0, 69, 99
1, 58021, Note_off_c, 2, 72, 97
1, 58025, Note_off_c, 4, 72, 108
1, 58025, Note_off_c, 0, 74, 13
1, 58026, Note_off_c, 1, 41, 108
1, 58027, Note_off_c, 2, 69, 84
1, 58028, Note_on_c, 4, 69, 114
1, 58030, Note_off_c, 0, 65, 97
1, 58032, Note_off_c, 0, 62, 108
1, 58035, Note_on_c, 9, 69, 50
1, 58036, Note_off_c, 2, 77, 104
1, 58036, Note_off_c, 9, 69, 84
1, 58045, Note_off_c, 12, 60, 71
1, 58047, Note_off_c, 4, 69, 111
1, 58049, Note_off_c, 12, 65, 104
1, 58049, Pitch_bend_c, 4, 7808
1, 58056, Pitch_bend_c, 4, 6528
1, 58059, Note_off_c, 12, 57, 76
1, 58063, Pitch_bend_c, 4, 3968
1, 58069, Note_on_c, 4, 63, 119
1, 58073, Pitch_bend_c, 4, 2048
1, 58079, Note_on_c, 9, 46, 80
1, 58079, Note_on_c, 9, 69, 100
1, 58080, Note_off_c, 9, 46, 92
1, 58080, Note_off_c, 9, 69, 92
1, 58080, Pitch_bend_c, 4, 3328
1, 58080, Note_on_c, 1, 53, 111
1, 58080, Note_on_c, 9, 63, 124
1, 58081, Note_off_c, 9, 63, 100
1, 58087, Pitch_bend_c, 4, 6656
1, 58095, Pitch_bend_c, 4, 7552
1, 58102, Pitch_bend_c, 4, 7936
1, 58110, Pitch_bend_c, 4, 8192
1, 58112, Note_off_c, 4, 63, 94
1, 58122, Note_on_c, 4, 62, 113
1, 58128, Note_on_c, 12, 57, 106
1, 58128, Note_on_c, 0, 62, 116
1, 58128, Note_on_c, 0, 65, 111
1, 58128, Note_on_c, 0, 69, 119
1, 58128, Note_on_c, 0, 74, 113
1, 58130, Note_off_c, 1, 53, 108
1, 58131, Note_on_c, 9, 69, 50
1, 58132, Note_off_c, 9, 69, 92
1, 58161, Note_off_c, 4, 62, 102
1, 58173, Note_on_c, 4, 60, 117
1, 58175, Note_on_c, 9, 42, 80
1, 58175, Note_on_c, 9, 69, 100
1, 58176, Note_on_c, 9, 36, 124
1, 58176, Note_on_c, 9, 40, 114
1, 58176, Note_on_c, 1, 41, 110
1, 58176, Note_off_c, 9, 42, 96
1, 58176, Note_on_c, 12, 60, 124
1, 58176, Note_on_c, 9, 62, 124
1, 58176, Note_on_c, 12, 65, 124
1, 58176, Note_off_c, 9, 69, 92
1, 58176, Note_on_c, 2, 69, 122
1, 58176, Note_on_c, 2, 72, 122
1, 58176, Note_on_c, 2, 77, 124
1, 58177, Note_off_c, 9, 36, 112
1, 58177, Note_off_c, 9, 40, 98
1, 58177, Note_off_c, 9, 62, 104
1, 58211, Note_off_c, 2, 72, 102
1, 58213, Note_off_c, 1, 41, 106
1, 58224, Note_on_c, 1, 53, 108
1, 58225, Note_off_c, 2, 69, 13
1, 58227, Note_on_c, 9, 69, 50
1, 58228, Note_off_c, 9, 69, 92
1, 58229, Note_off_c, 2, 77, 108
1, 58244, Pitch_bend_c, 4, 8064
1, 58250, Note_off_c, 12, 65, 104
1, 58256, Note_off_c, 12, 60, 76
1, 58257, Pitch_bend_c, 4, 6656
1, 58261, Note_off_c, 4, 60, 111
1, 58266, Pitch_bend_c, 4, 6400
1, 58271, Note_on_c, 9, 46, 80
1, 58271, Note_on_c, 9, 69, 100
1, 58272, Note_off_c, 9, 46, 96
1, 58272, Note_on_c, 9, 64, 112
1, 58272, Note_on_c, 2, 67, 48
1, 58272, Note_off_c, 9, 69, 92
1, 58272, Note_on_c, 2, 72, 84
1, 58273, Note_off_c, 2, 67, 60
1, 58273, Note_off_c, 2, 72, 60
1, 58273, Note_off_c, 9, 64, 104
1, 58273, Pitch_bend_c, 4, 7424
1, 58280, Pitch_bend_c, 4, 7808
1, 58288, Pitch_bend_c, 4, 8192
1, 58288, Pitch_bend_c, 1, 7936
1, 58290, Note_off_c, 12, 57, 60
1, 58296, Note_off_c, 0, 65, 106
1, 58296, Pitch_bend_c, 4, 7936
1, 58296, Pitch_bend_c, 1, 7424
1, 58300, Note_off_c, 0, 62, 108
1, 58304, Note_off_c, 0, 74, 102
1, 58304, Pitch_bend_c, 1, 6016
1, 58305, Pitch_bend_c, 4, 7296
1, 58311, Pitch_bend_c, 1, 6272
1, 58312, Pitch_bend_c, 4, 3840
1, 58313, Note_off_c, 0, 69, 108
1, 58314, Note_on_c, 4, 72, 120
1, 58318, Pitch_bend_c, 1, 7680
1, 58319, Note_off_c, 1, 53, 108
1, 58319, Pitch_bend_c, 4, 1536
1, 58320, Note_on_c, 9, 64, 108
1, 58320, Note_on_c, 2, 67, 95
1, 58320, Note_on_c, 2, 72, 97
1, 58321, Note_off_c, 2, 67, 60
1, 58321, Note_off_c, 2, 72, 60
1, 58321, Note_off_c, 9, 64, 112
1, 58323, Note_on_c, 9, 69, 50
1, 58324, Note_off_c, 9, 69, 92
1, 58325, Pitch_bend_c, 1, 7936
1, 58326, Pitch_bend_c, 4, 896
1, 58333, Pitch_bend_c, 1, 8192
1, 58334, Pitch_bend_c, 4, 2688
1, 58342, Pitch_bend_c, 4, 6400
1, 58349, Pitch_bend_c, 4, 7552
1, 58355, Note_off_c, 4, 72, 110
1, 58356, Pitch_bend_c, 4, 7936
1, 58363, Pitch_bend_c, 4, 8192
1, 58367, Note_on_c, 9, 42, 80
1, 58367, Note_on_c, 9, 69, 96
1, 58368, Note_on_c, 1, 36, 110
1, 58368, Note_on_c, 9, 36, 124
1, 58368, Note_off_c, 9, 42, 88
1, 58368, Note_on_c, 12, 55, 113
1, 58368, Note_on_c, 0, 60, 113
1, 58368, Note_on_c, 12, 60, 124
1, 58368, Note_on_c, 9, 63, 120
1, 58368, Note_on_c, 0, 64, 113
1, 58368, Note_on_c, 12, 64, 122
1, 58368, Note_on_c, 0, 67, 114
1, 58368, Note_on_c, 2, 67, 117
1, 58368, Note_off_c, 9, 69, 80
1, 58368, Note_on_c, 2, 72, 122
1, 58368, Note_on_c, 6, 72, 90
1, 58368, Note_on_c, 0, 74, 111
1, 58368, Note_on_c, 2, 76, 120
1, 58369, Note_off_c, 9, 36, 76
1, 58369, Note_off_c, 9, 63, 92
1, 58374, Note_off_c, 6, 77, 108
1, 58406, Note_on_c, 4, 69, 114
1, 58409, Note_off_c, 2, 72, 97
1, 58416, Note_off_c, 1, 36, 84
1, 58419, Note_on_c, 9, 69, 50
1, 58420, Note_off_c, 2, 67, 76
1, 58420, Note_off_c, 9, 69, 80
1, 58422, Note_off_c, 2, 76, 97
1, 58434, Note_off_c, 12, 64, 97
1, 58436, Note_off_c, 12, 60, 97
1, 58436, Note_off_c, 4, 69, 111
1, 58458, Note_off_c, 12, 55, 76
1, 58458, Note_on_c, 4, 63, 117
1, 58463, Note_on_c, 9, 46, 80
1, 58463, Note_on_c, 9, 69, 88
1, 58464, Note_off_c, 9, 46, 88
1, 58464, Note_on_c, 1, 48, 114
1, 58464, Note_on_c, 9, 63, 116
1, 58464, Note_off_c, 9, 69, 76
1, 58465, Note_off_c, 9, 63, 84
1, 58472, Note_off_c, 0, 74, 60
1, 58488, Note_off_c, 4, 63, 106
1, 58495, Note_off_c, 0, 60, 88
1, 58497, Note_off_c, 0, 64, 91
1, 58505, Note_on_c, 4, 62, 113
1, 58515, Note_on_c, 9, 69, 50
1, 58516, Note_off_c, 9, 69, 76
1, 58522, Note_off_c, 1, 48, 97
1, 58525, Note_off_c, 0, 67, 66
1, 58538, Note_off_c, 4, 62, 106
1, 58548, Note_on_c, 4, 60, 122
1, 58559, Note_on_c, 9, 42, 80
1, 58559, Note_on_c, 9, 69, 104
1, 58560, Note_on_c, 9, 36, 124
1, 58560, Note_on_c, 9, 40, 114
1, 58560, Note_off_c, 9, 42, 88
1, 58560, Note_on_c, 12, 55, 114
1, 58560, Note_on_c, 0, 60, 113
1, 58560, Note_on_c, 12, 60, 123
1, 58560, Note_on_c, 9, 62, 124
1, 58560, Note_on_c, 0, 64, 116
1, 58560, Note_on_c, 12, 64, 122
1, 58560, Note_on_c, 0, 67, 113
1, 58560, Note_on_c, 2, 67, 119
1, 58560, Note_off_c, 9, 69, 68
1, 58560, Note_on_c, 2, 72, 122
1, 58560, Note_on_c, 0, 74, 113
1, 58560, Note_on_c, 2, 76, 120
1, 58561, Note_off_c, 9, 36, 96
1, 58561, Note_off_c, 9, 40, 86
1, 58561, Note_off_c, 9, 62, 108
1, 58595, Note_off_c, 2, 72, 108
1, 58598, Note_off_c, 2, 67, 99
1, 58608, Note_off_c, 2, 76, 102
1, 58611, Note_on_c, 9, 69, 50
1, 58612, Note_off_c, 9, 69, 68
1, 58619, Note_off_c, 12, 60, 97
1, 58621, Pitch_bend_c, 4, 7808
1, 58622, Note_off_c, 12, 64, 102
1, 58628, Pitch_bend_c, 4, 6016
1, 58636, Note_off_c, 4, 60, 113
1, 58637, Pitch_bend_c, 4, 5120
1, 58640, Note_off_c, 12, 55, 84
1, 58644, Pitch_bend_c, 4, 6400
1, 58651, Pitch_bend_c, 4, 7552
1, 58655, Note_on_c, 9, 46, 80
1, 58655, Note_on_c, 9, 69, 96
1, 58656, Note_off_c, 9, 46, 88
1, 58656, Note_on_c, 1, 48, 113
1, 58656, Note_on_c, 9, 64, 116
1, 58656, Note_off_c, 9, 69, 68
1, 58657, Note_off_c, 9, 64, 96
1, 58660, Pitch_bend_c, 4, 7936
1, 58667, Pitch_bend_c, 4, 8192
1, 58680, Pitch_bend_c, 4, 7936
1, 58689, Pitch_bend_c, 4, 7296
1, 58696, Pitch_bend_c, 4, 3840
1, 58698, Note_on_c, 4, 72, 120
1, 58702, Note_off_c, 1, 48, 108
1, 58703, Pitch_bend_c, 4, 1536
1, 58704, Note_on_c, 9, 64, 108
1, 58705, Note_off_c, 9, 64, 104
1, 58707, Note_on_c, 9, 69, 50
1, 58708, Note_off_c, 9, 69, 68
1, 58710, Pitch_bend_c, 4, 896
1, 58718, Pitch_bend_c, 4, 2688
1, 58726, Pitch_bend_c, 4, 6400
1, 58728, Note_off_c, 0, 60, 110
1, 58733, Pitch_bend_c, 4, 7552
1, 58734, Note_off_c, 0, 74, 71
1, 58738, Note_off_c, 0, 64, 88
1, 58740, Pitch_bend_c, 4, 7936
1, 58743, Note_off_c, 0, 67, 108
1, 58747, Pitch_bend_c, 4, 8192
1, 58751, Note_on_c, 9, 42, 80
1, 58751, Note_on_c, 9, 69, 104
1, 58752, Note_on_c, 1, 36, 106
1, 58752, Note_on_c, 9, 36, 124
1, 58752, Note_off_c, 9, 42, 92
1, 58752, Note_on_c, 12, 55, 114
1, 58752, Note_on_c, 0, 60, 99
1, 58752, Note_on_c, 12, 60, 124
1, 58752, Note_on_c, 9, 63, 124
1, 58752, Note_on_c, 0, 64, 113
1, 58752, Note_on_c, 12, 64, 124
1, 58752, Note_on_c, 0, 67, 117
1, 58752, Note_on_c, 2, 67, 120
1, 58752, Note_off_c, 9, 69, 84
1, 58752, Note_on_c, 2, 72, 122
1, 58752, Note_on_c, 0, 74, 106
1, 58752, Note_on_c, 2, 76, 122
1, 58753, Note_off_c, 9, 36, 108
1, 58753, Note_off_c, 9, 63, 96
1, 58782, Note_off_c, 2, 72, 110
1, 58787, Note_off_c, 4, 72, 110
1, 58788, Note_off_c, 2, 67, 102
1, 58790, Note_on_c, 4, 69, 114
1, 58794, Note_off_c, 2, 76, 108
1, 58803, Note_on_c, 9, 69, 50
1, 58804, Note_off_c, 9, 69, 84
1, 58815, Note_off_c, 1, 36, 81
1, 58818, Note_off_c, 12, 60, 91
1, 58820, Note_off_c, 4, 69, 111
1, 58821, Note_off_c, 12, 64, 99
1, 58831, Note_off_c, 12, 55, 88
1, 58842, Note_on_c, 4, 63, 117
1, 58847, Note_on_c, 9, 46, 80
1, 58847, Note_on_c, 9, 69, 100
1, 58848, Note_off_c, 9, 46, 92
1, 58848, Note_on_c, 1, 48, 119
1, 58848, Note_on_c, 9, 63, 124
1, 58848, Note_on_c, 2, 67, 48
1, 58848, Note_off_c, 9, 69, 92
1, 58848, Note_on_c, 2, 72, 84
1, 58849, Note_off_c, 2, 67, 60
1, 58849, Note_off_c, 2, 72, 60
1, 58849, Note_off_c, 9, 63, 100
1, 58872, Note_off_c, 4, 63, 106
1, 58889, Note_on_c, 4, 62, 113
1, 58896, Note_on_c, 12, 55, 108
1, 58896, Note_on_c, 2, 67, 95
1, 58896, Note_on_c, 2, 72, 97
1, 58897, Note_off_c, 2, 67, 60
1, 58897, Note_off_c, 2, 72, 60
1, 58899, Note_on_c, 9, 69, 50
1, 58900, Note_off_c, 9, 69, 92
1, 58904, Note_off_c, 0, 60, 97
1, 58909, Note_off_c, 0, 74, 91
1, 58910, Note_off_c, 1, 48, 108
1, 58919, Note_off_c, 0, 64, 88
1, 58922, Note_off_c, 4, 62, 106
1, 58925, Note_off_c, 0, 67, 108
1, 58932, Note_on_c, 4, 60, 122
1, 58943, Note_on_c, 9, 42, 80
1, 58943, Note_on_c, 9, 69, 100
1, 58944, Note_on_c, 9, 36, 124
1, 58944, Note_on_c, 9, 40, 114
1, 58944, Note_off_c, 9, 42, 96
1, 58944, Note_on_c, 0, 60, 113
1, 58944, Note_on_c, 12, 60, 124
1, 58944, Note_on_c, 9, 62, 124
1, 58944, Note_on_c, 0, 64, 116
1, 58944, Note_on_c, 12, 64, 124
1, 58944, Note_on_c, 0, 67, 113
1, 58944, Note_on_c, 2, 67, 120
1, 58944, Note_off_c, 9, 69, 92
1, 58944, Note_on_c, 2, 72, 123
1, 58944, Note_on_c, 0, 74, 116
1, 58944, Note_on_c, 2, 76, 122
1, 58945, Note_off_c, 9, 36, 112
1, 58945, Note_off_c, 9, 40, 98
1, 58945, Note_off_c, 9, 62, 104
1, 58980, Note_off_c, 2, 72, 108
1, 58984, Note_off_c, 2, 67, 97
1, 58989, Note_off_c, 2, 76, 104
1, 58992, Note_on_c, 1, 48, 114
1, 58995, Note_on_c, 9, 69, 50
1, 58996, Note_off_c, 9, 69, 92
1, 59020, Note_off_c, 4, 60, 113
1, 59027, Note_off_c, 12, 60, 94
1, 59029, Note_off_c, 1, 48, 113
1, 59031, Note_off_c, 12, 64, 104
1, 59039, Note_on_c, 9, 46, 80
1, 59039, Note_on_c, 9, 69, 100
1, 59040, Note_off_c, 9, 46, 96
1, 59040, Note_on_c, 9, 64, 112
1, 59040, Note_on_c, 2, 67, 48
1, 59040, Note_off_c, 9, 69, 92
1, 59040, Note_on_c, 4, 69, 124
1, 59040, Note_on_c, 2, 72, 84
1, 59041, Note_off_c, 2, 67, 60
1, 59041, Note_off_c, 2, 72, 60
1, 59041, Note_off_c, 9, 64, 104
1, 59063, Note_off_c, 12, 55, 84
1, 59088, Note_on_c, 9, 64, 108
1, 59088, Note_on_c, 2, 67, 95
1, 59088, Note_on_c, 2, 72, 97
1, 59089, Note_off_c, 2, 67, 60
1, 59089, Note_off_c, 2, 72, 60
1, 59089, Note_off_c, 9, 64, 112
1, 59091, Note_on_c, 9, 69, 50
1, 59092, Note_off_c, 9, 69, 92
1, 59104, Note_off_c, 0, 74, 71
1, 59110, Note_off_c, 0, 60, 99
1, 59112, Note_off_c, 4, 69, 110
1, 59115, Note_off_c, 0, 64, 91
1, 59122, Note_off_c, 0, 67, 106
1, 59132, Note_on_c, 4, 72, 120
1, 59135, Note_on_c, 9, 42, 80
1, 59135, Note_on_c, 9, 69, 96
1, 59136, Note_on_c, 1, 36, 110
1, 59136, Note_on_c, 9, 36, 124
1, 59136, Note_off_c, 9, 42, 88
1, 59136, Note_on_c, 12, 55, 113
1, 59136, Note_on_c, 0, 60, 113
1, 59136, Note_on_c, 12, 60, 124
1, 59136, Note_on_c, 9, 63, 120
1, 59136, Note_on_c, 0, 64, 119
1, 59136, Note_on_c, 12, 64, 124
1, 59136, Note_on_c, 0, 67, 114
1, 59136, Note_on_c, 2, 67, 117
1, 59136, Note_off_c, 9, 69, 80
1, 59136, Note_on_c, 2, 72, 122
1, 59136, Note_on_c, 0, 74, 113
1, 59136, Note_on_c, 2, 76, 120
1, 59137, Note_off_c, 9, 36, 76
1, 59137, Note_off_c, 9, 63, 92
1, 59148, Control_c, 0, 64, 127
1, 59177, Note_off_c, 2, 72, 97
1, 59184, Note_off_c, 1, 36, 84
1, 59187, Note_on_c, 9, 69, 50
1, 59188, Note_off_c, 2, 67, 76
1, 59188, Note_off_c, 9, 69, 80
1, 59190, Note_off_c, 2, 76, 97
1, 59200, Note_off_c, 12, 60, 97
1, 59204, Note_off_c, 12, 64, 94
1, 59213, Note_off_c, 4, 72, 108
1, 59218, Pitch_bend_c, 4, 7936
1, 59226, Pitch_bend_c, 4, 6912
1, 59228, Note_off_c, 12, 55, 71
1, 59229, Note_on_c, 4, 69, 124
1, 59231, Note_on_c, 9, 46, 80
1, 59231, Note_on_c, 9, 69, 88
1, 59232, Note_off_c, 9, 46, 88
1, 59232, Note_on_c, 1, 48, 114
1, 59232, Note_on_c, 9, 63, 116
1, 59232, Note_off_c, 9, 69, 76
1, 59233, Note_off_c, 9, 63, 84
1, 59235, Pitch_bend_c, 4, 5120
1, 59242, Pitch_bend_c, 4, 3712
1, 59249, Pitch_bend_c, 4, 4224
1, 59255, Note_off_c, 0, 60, 84
1, 59256, Pitch_bend_c, 4, 5376
1, 59259, Note_off_c, 0, 74, 60
1, 59262, Note_off_c, 0, 64, 84
1, 59264, Pitch_bend_c, 4, 7168
1, 59269, Note_off_c, 0, 67, 76
1, 59272, Pitch_bend_c, 4, 7808
1, 59281, Pitch_bend_c, 4, 8192
1, 59283, Note_on_c, 9, 69, 50
1, 59284, Note_off_c, 9, 69, 76
1, 59290, Note_off_c, 1, 48, 97
1, 59321, Note_off_c, 4, 69, 110
1, 59326, Note_on_c, 4, 72, 118
1, 59327, Note_on_c, 9, 42, 80
1, 59327, Note_on_c, 9, 69, 104
1, 59328, Note_on_c, 9, 36, 124
1, 59328, Note_on_c, 9, 40, 114
1, 59328, Note_off_c, 9, 42, 88
1, 59328, Note_on_c, 12, 55, 113
1, 59328, Note_on_c, 0, 60, 120
1, 59328, Note_on_c, 12, 60, 124
1, 59328, Note_on_c, 9, 62, 124
1, 59328, Note_on_c, 0, 64, 122
1, 59328, Note_on_c, 12, 64, 123
1, 59328, Note_on_c, 0, 67, 122
1, 59328, Note_on_c, 2, 67, 119
1, 59328, Note_off_c, 9, 69, 68
1, 59328, Note_on_c, 2, 72, 122
1, 59328, Note_on_c, 0, 74, 119
1, 59328, Note_on_c, 2, 76, 120
1, 59329, Note_off_c, 9, 36, 96
1, 59329, Note_off_c, 9, 40, 86
1, 59329, Note_off_c, 9, 62, 108
1, 59363, Note_off_c, 2, 72, 108
1, 59366, Note_off_c, 0, 67, 76
1, 59366, Note_off_c, 2, 67, 99
1, 59375, Note_off_c, 0, 64, 84
1, 59376, Note_off_c, 2, 76, 102
1, 59377, Note_off_c, 0, 74, 88
1, 59379, Note_on_c, 9, 69, 50
1, 59380, Note_off_c, 9, 69, 68
1, 59388, Note_off_c, 0, 60, 108
1, 59397, Note_off_c, 4, 72, 110
1, 59400, Note_off_c, 12, 64, 91
1, 59401, Note_off_c, 12, 55, 94
1, 59401, Note_off_c, 12, 60, 88
1, 59416, Note_on_c, 4, 72, 120
1, 59423, Note_on_c, 9, 46, 80
1, 59423, Note_on_c, 9, 69, 96
1, 59424, Note_off_c, 9, 46, 88
1, 59424, Note_on_c, 1, 48, 113
1, 59424, Note_on_c, 9, 64, 116
1, 59424, Note_off_c, 9, 69, 68
1, 59425, Note_off_c, 9, 64, 96
1, 59470, Note_off_c, 1, 48, 108
1, 59472, Note_on_c, 9, 64, 108
1, 59473, Note_off_c, 9, 64, 104
1, 59474, Note_on_c, 9, 40, 67
1, 59475, Note_off_c, 9, 40, 86
1, 59475, Note_on_c, 9, 69, 50
1, 59476, Note_off_c, 9, 69, 68
1, 59488, Note_off_c, 4, 72, 111
1, 59509, Pitch_bend_c, 4, 6784
1, 59516, Pitch_bend_c, 4, 4224
1, 59519, Note_on_c, 9, 42, 80
1, 59519, Note_on_c, 9, 69, 104
1, 59520, Note_on_c, 1, 36, 106
1, 59520, Note_on_c, 9, 36, 124
1, 59520, Note_on_c, 9, 40, 118
1, 59520, Note_off_c, 9, 42, 92
1, 59520, Note_on_c, 12, 55, 119
1, 59520, Note_on_c, 0, 60, 122
1, 59520, Note_on_c, 12, 60, 124
1, 59520, Note_on_c, 9, 63, 124
1, 59520, Note_on_c, 0, 64, 122
1, 59520, Note_on_c, 12, 64, 124
1, 59520, Note_on_c, 0, 67, 124
1, 59520, Note_on_c, 2, 67, 120
1, 59520, Note_off_c, 9, 69, 84
1, 59520, Note_on_c, 2, 72, 122
1, 59520, Note_on_c, 0, 74, 120
1, 59520, Note_on_c, 2, 76, 122
1, 59521, Note_off_c, 9, 36, 108
1, 59521, Note_off_c, 9, 40, 86
1, 59521, Note_off_c, 9, 63, 96
1, 59522, Note_on_c, 4, 76, 119
1, 59524, Pitch_bend_c, 4, 2432
1, 59532, Pitch_bend_c, 4, 4480
1, 59539, Pitch_bend_c, 4, 6912
1, 59546, Pitch_bend_c, 4, 7680
1, 59550, Note_off_c, 2, 72, 110
1, 59551, Note_off_c, 4, 76, 110
1, 59555, Pitch_bend_c, 4, 7936
1, 59556, Note_off_c, 2, 67, 102
1, 59562, Note_off_c, 2, 76, 108
1, 59562, Pitch_bend_c, 4, 8192
1, 59567, Note_on_c, 4, 79, 119
1, 59570, Note_on_c, 9, 40, 67
1, 59571, Note_off_c, 9, 40, 86
1, 59571, Note_on_c, 9, 69, 50
1, 59572, Note_off_c, 9, 69, 84
1, 59577, Note_off_c, 0, 60, 106
1, 59583, Note_off_c, 1, 36, 81
1, 59600, Note_off_c, 0, 74, 44
1, 59600, Note_off_c, 4, 79, 108
1, 59612, Note_off_c, 0, 64, 13
1, 59615, Note_on_c, 9, 69, 100
1, 59616, Note_on_c, 9, 40, 104
1, 59616, Note_on_c, 1, 48, 119
1, 59616, Note_on_c, 9, 63, 124
1, 59616, Note_on_c, 2, 67, 48
1, 59616, Note_off_c, 9, 69, 92
1, 59616, Note_on_c, 2, 72, 84
1, 59617, Note_off_c, 2, 67, 60
1, 59617, Note_off_c, 2, 72, 60
1, 59617, Note_off_c, 9, 40, 86
1, 59617, Note_off_c, 9, 63, 100
1, 59618, Note_on_c, 4, 81, 119
1, 59619, Note_off_c, 12, 60, 94
1, 59627, Note_off_c, 12, 55, 81
1, 59628, Note_off_c, 12, 64, 71
1, 59639, Note_off_c, 0, 67, 66
1, 59655, Note_off_c, 4, 81, 108
1, 59662, Note_on_c, 4, 79, 124
1, 59664, Note_on_c, 2, 67, 95
1, 59664, Note_on_c, 2, 72, 97
1, 59665, Note_off_c, 2, 67, 60
1, 59665, Note_off_c, 2, 72, 60
1, 59666, Note_on_c, 9, 40, 114
1, 59667, Note_off_c, 9, 40, 86
1, 59667, Note_on_c, 9, 69, 50
1, 59668, Note_off_c, 9, 69, 92
1, 59678, Note_off_c, 1, 48, 108
1, 59711, Note_on_c, 9, 69, 100
1, 59712, Note_on_c, 9, 40, 127
1, 59712, Note_on_c, 12, 55, 111
1, 59712, Note_on_c, 12, 60, 113
1, 59712, Note_on_c, 9, 62, 124
1, 59712, Note_on_c, 12, 64, 99
1, 59712, Note_on_c, 2, 67, 111
1, 59712, Note_off_c, 9, 69, 92
1, 59712, Note_on_c, 2, 72, 108
1, 59713, Note_off_c, 12, 55, 113
1, 59713, Note_off_c, 12, 60, 97
1, 59713, Note_off_c, 2, 67, 60
1, 59713, Note_off_c, 2, 72, 60
1, 59713, Note_off_c, 9, 40, 98
1, 59713, Note_off_c, 9, 62, 104
1, 59732, Note_off_c, 12, 64, 104
1, 59732, Pitch_bend_c, 1, 7936
1, 59735, Note_off_c, 4, 79, 108
1, 59739, Pitch_bend_c, 1, 7424
1, 59746, Pitch_bend_c, 1, 5248
1, 59753, Pitch_bend_c, 1, 3968
1, 59756, Note_on_c, 4, 79, 119
1, 59759, Note_on_c, 9, 46, 125
1, 59760, Note_off_c, 9, 46, 92
1, 59760, Note_on_c, 1, 50, 116
1, 59760, Note_on_c, 12, 55, 114
1, 59760, Note_on_c, 0, 60, 122
1, 59760, Note_on_c, 12, 60, 116
1, 59760, Note_on_c, 0, 65, 122
1, 59760, Note_on_c, 2, 65, 122
1, 59760, Note_on_c, 12, 65, 126
1, 59760, Note_on_c, 0, 67, 123
1, 59760, Note_on_c, 2, 67, 120
1, 59760, Note_on_c, 2, 72, 123
1, 59760, Note_on_c, 0, 74, 113
1, 59760, Pitch_bend_c, 1, 3456
1, 59760, Note_on_c, 9, 36, 124
1, 59760, Note_on_c, 6, 74, 105
1, 59761, Note_off_c, 9, 36, 112
1, 59763, Note_on_c, 9, 69, 50
1, 59764, Note_off_c, 9, 69, 92
1, 59765, Note_off_c, 6, 72, 111
1, 59766, Pitch_bend_c, 4, 9088
1, 59773, Pitch_bend_c, 1, 4352
1, 59774, Control_c, 0, 64, 0
1, 59774, Pitch_bend_c, 4, 10880
1, 59780, Pitch_bend_c, 1, 6272
1, 59781, Pitch_bend_c, 4, 14592
1, 59788, Pitch_bend_c, 4, 15744
1, 59790, Pitch_bend_c, 1, 7552
1, 59795, Pitch_bend_c, 4, 16128
1, 59798, Pitch_bend_c, 1, 7936
1, 59802, Pitch_bend_c, 4, 16256
1, 59806, Pitch_bend_c, 1, 8192
1, 59806, Note_on_c, 10, 55, 61
1, 59806, Note_on_c, 10, 58, 73
1, 59806, Note_on_c, 10, 62, 81
1, 59807, Note_on_c, 9, 69, 100
1, 59808, Note_on_c, 9, 64, 112
1, 59808, Note_off_c, 9, 69, 92
1, 59809, Note_off_c, 9, 64, 104
1, 59816, Note_off_c, 10, 55, 102
1, 59816, Note_off_c, 10, 58, 104
1, 59816, Note_off_c, 10, 62, 84
1, 59822, Pitch_bend_c, 4, 16128
1, 59830, Pitch_bend_c, 4, 16000
1, 59839, Pitch_bend_c, 4, 15616
1, 59846, Pitch_bend_c, 4, 15232
1, 59853, Pitch_bend_c, 4, 14848
1, 59854, Note_on_c, 10, 55, 105
1, 59854, Note_on_c, 10, 58, 99
1, 59854, Note_on_c, 10, 62, 93
1, 59856, Note_on_c, 9, 64, 108
1, 59857, Note_off_c, 9, 64, 112
1, 59859, Note_on_c, 9, 69, 50
1, 59860, Note_off_c, 9, 69, 92
1, 59863, Pitch_bend_c, 4, 8448
1, 59864, Note_off_c, 10, 55, 111
1, 59864, Note_off_c, 10, 58, 106
1, 59864, Note_off_c, 10, 62, 111
1, 59866, Note_off_c, 4, 79, 114
1, 59871, Pitch_bend_c, 4, 7552
1, 59879, Pitch_bend_c, 4, 7936
1, 59886, Pitch_bend_c, 4, 8192
1, 59892, Note_off_c, 0, 65, 111
1, 59892, Note_off_c, 2, 72, 108
1, 59894, Note_off_c, 0, 74, 102
1, 59896, Note_off_c, 2, 67, 97
1, 59898, Note_off_c, 6, 74, 108
1, 59901, Note_off_c, 2, 65, 104
1, 59902, Note_on_c, 10, 55, 122
1, 59902, Note_on_c, 10, 58, 123
1, 59902, Note_off_c, 0, 60, 111
1, 59902, Note_on_c, 10, 62, 124
1, 59902, Note_off_c, 0, 67, 114
1, 59903, Note_off_c, 1, 50, 111
1, 59904, Note_on_c, 1, 31, 113
1, 59904, Note_on_c, 9, 36, 124
1, 59904, Note_on_c, 9, 63, 120
1, 59905, Note_off_c, 9, 36, 92
1, 59905, Note_off_c, 9, 63, 92
1, 59907, Note_off_c, 12, 55, 113
1, 59907, Note_off_c, 12, 65, 113
1, 59912, Note_off_c, 12, 60, 111
1, 59949, Note_off_c, 1, 31, 94
1, 59955, Note_on_c, 9, 69, 50
1, 59956, Note_off_c, 9, 69, 80
1, 59985, Pitch_bend_c, 10, 7808
1, 59993, Pitch_bend_c, 10, 6656
1, 59996, Note_off_c, 10, 62, 110
1, 59998, Note_on_c, 14, 55, 61
1, 59998, Note_on_c, 14, 58, 73
1, 59998, Note_on_c, 14, 62, 81
1, 59999, Note_on_c, 9, 69, 88
1, 60000, Note_on_c, 1, 43, 111
1, 60000, Note_on_c, 9, 63, 116
1, 60000, Note_off_c, 9, 69, 76
1, 60000, Pitch_bend_c, 10, 5632
1, 60001, Note_off_c, 9, 63, 84
1, 60004, Note_off_c, 10, 58, 114
1, 60006, Note_off_c, 10, 55, 110
1, 60007, Pitch_bend_c, 10, 3968
1, 60008, Note_off_c, 14, 55, 102
1, 60008, Note_off_c, 14, 58, 104
1, 60008, Note_off_c, 14, 62, 84
1, 60017, Pitch_bend_c, 10, 3328
1, 60024, Pitch_bend_c, 10, 7808
1, 60031, Pitch_bend_c, 10, 8704
1, 60034, Note_off_c, 1, 43, 94
1, 60040, Pitch_bend_c, 10, 8320
1, 60046, Note_on_c, 14, 55, 105
1, 60046, Note_on_c, 14, 58, 99
1, 60046, Note_on_c, 14, 62, 93
1, 60047, Pitch_bend_c, 10, 8192
1, 60051, Note_on_c, 9, 69, 50
1, 60052, Note_off_c, 9, 69, 76
1, 60056, Note_off_c, 14, 55, 111
1, 60056, Note_off_c, 14, 58, 106
1, 60056, Note_off_c, 14, 62, 111
1, 60094, Note_on_c, 14, 55, 122
1, 60094, Note_on_c, 14, 58, 123
1, 60094, Note_on_c, 14, 62, 124
1, 60095, Note_on_c, 9, 69, 104
1, 60096, Note_on_c, 1, 33, 104
1, 60096, Note_on_c, 9, 36, 124
1, 60096, Note_on_c, 9, 62, 124
1, 60096, Note_off_c, 9, 69, 68
1, 60097, Note_off_c, 9, 36, 112
1, 60097, Note_off_c, 9, 62, 108
1, 60147, Note_on_c, 9, 69, 50
1, 60148, Note_off_c, 9, 69, 68
1, 60151, Note_off_c, 1, 33, 91
1, 60177, Pitch_bend_c, 14, 7808
1, 60185, Pitch_bend_c, 14, 6656
1, 60188, Note_off_c, 14, 62, 110
1, 60190, Note_on_c, 14, 55, 31
1, 60190, Note_on_c, 14, 58, 43
1, 60190, Note_on_c, 14, 62, 51
1, 60191, Note_on_c, 9, 69, 96
1, 60192, Note_on_c, 1, 45, 111
1, 60192, Note_on_c, 9, 64, 116
1, 60192, Note_off_c, 9, 69, 68
1, 60192, Pitch_bend_c, 14, 5632
1, 60193, Note_off_c, 9, 64, 96
1, 60196, Note_off_c, 14, 58, 114
1, 60198, Note_off_c, 14, 55, 110
1, 60199, Pitch_bend_c, 14, 3968
1, 60200, Note_off_c, 14, 55, 72
1, 60200, Note_off_c, 14, 58, 74
1, 60200, Note_off_c, 14, 62, 54
1, 60209, Pitch_bend_c, 14, 3328
1, 60216, Pitch_bend_c, 14, 7808
1, 60223, Pitch_bend_c, 14, 8704
1, 60227, Note_off_c, 1, 45, 106
1, 60232, Pitch_bend_c, 14, 8320
1, 60238, Note_on_c, 14, 55, 75
1, 60238, Note_on_c, 14, 58, 69
1, 60238, Note_on_c, 14, 62, 63
1, 60239, Pitch_bend_c, 14, 8192
1, 60240, Note_on_c, 9, 64, 108
1, 60241, Note_off_c, 9, 64, 104
1, 60243, Note_on_c, 9, 69, 50
1, 60244, Note_off_c, 9, 69, 68
1, 60248, Note_off_c, 14, 55, 81
1, 60248, Note_off_c, 14, 58, 76
1, 60248, Note_off_c, 14, 62, 81
1, 60286, Note_on_c, 14, 55, 92
1, 60286, Note_on_c, 14, 58, 93
1, 60286, Note_on_c, 14, 62, 94
1, 60287, Note_on_c, 9, 69, 104
1, 60288, Note_on_c, 1, 34, 114
1, 60288, Note_on_c, 9, 36, 124
1, 60288, Note_on_c, 9, 63, 124
1, 60288, Note_off_c, 9, 69, 84
1, 60289, Note_off_c, 9, 36, 112
1, 60289, Note_off_c, 9, 63, 96
1, 60339, Note_off_c, 1, 34, 84
1, 60339, Note_on_c, 9, 69, 50
1, 60340, Note_off_c, 9, 69, 84
1, 60369, Pitch_bend_c, 14, 7808
1, 60377, Pitch_bend_c, 14, 6656
1, 60380, Note_off_c, 14, 62, 80
1, 60382, Note_on_c, 14, 55, 11
1, 60382, Note_on_c, 14, 58, 23
1, 60382, Note_on_c, 14, 62, 31
1, 60383, Note_on_c, 9, 69, 100
1, 60384, Note_on_c, 1, 46, 104
1, 60384, Note_on_c, 9, 63, 124
1, 60384, Note_on_c, 2, 67, 119
1, 60384, Note_off_c, 9, 69, 92
1, 60384, Pitch_bend_c, 14, 5632
1, 60385, Note_off_c, 9, 63, 100
1, 60388, Note_off_c, 14, 58, 84
1, 60390, Note_off_c, 14, 55, 80
1, 60391, Pitch_bend_c, 14, 3968
1, 60392, Note_off_c, 14, 55, 52
1, 60392, Note_off_c, 14, 58, 54
1, 60392, Note_off_c, 14, 62, 34
1, 60401, Pitch_bend_c, 14, 3328
1, 60408, Pitch_bend_c, 14, 7808
1, 60412, Note_off_c, 2, 67, 102
1, 60415, Pitch_bend_c, 14, 8704
1, 60420, Note_off_c, 1, 46, 91
1, 60424, Pitch_bend_c, 14, 8320
1, 60430, Note_on_c, 14, 55, 55
1, 60430, Note_on_c, 14, 58, 49
1, 60430, Note_on_c, 14, 62, 43
1, 60431, Pitch_bend_c, 14, 8192
1, 60435, Note_on_c, 9, 69, 50
1, 60436, Note_on_c, 2, 67, 95
1, 60436, Note_off_c, 9, 69, 92
1, 60436, Note_off_c, 2, 67, 88
1, 60440, Note_off_c, 14, 55, 61
1, 60440, Note_off_c, 14, 58, 56
1, 60440, Note_off_c, 14, 62, 61
1, 60478, Note_on_c, 14, 55, 72
1, 60478, Note_on_c, 14, 58, 73
1, 60478, Note_on_c, 14, 62, 74
1, 60479, Note_on_c, 9, 42, 96
1, 60479, Note_on_c, 9, 69, 100
1, 60480, Note_on_c, 9, 36, 124
1, 60480, Note_off_c, 9, 42, 60
1, 60480, Note_on_c, 9, 62, 124
1, 60480, Note_off_c, 9, 69, 92
1, 60481, Note_off_c, 9, 36, 108
1, 60481, Note_off_c, 9, 62, 104
1, 60531, Note_on_c, 9, 69, 50
1, 60532, Note_on_c, 2, 67, 88
1, 60532, Note_off_c, 9, 69, 92
1, 60533, Note_off_c, 2, 67, 110
1, 60561, Pitch_bend_c, 14, 7808
1, 60569, Pitch_bend_c, 14, 6656
1, 60572, Note_off_c, 14, 62, 60
1, 60575, Note_on_c, 9, 42, 52
1, 60575, Note_on_c, 9, 69, 100
1, 60576, Note_off_c, 9, 42, 76
1, 60576, Note_on_c, 0, 46, 97
1, 60576, Note_on_c, 1, 46, 104
1, 60576, Note_on_c, 0, 58, 97
1, 60576, Note_on_c, 9, 64, 112
1, 60576, Note_on_c, 2, 67, 97
1, 60576, Note_off_c, 9, 69, 92
1, 60576, Pitch_bend_c, 14, 5632
1, 60577, Note_off_c, 2, 67, 102
1, 60577, Note_off_c, 9, 64, 104
1, 60580, Note_off_c, 14, 58, 64
1, 60582, Note_off_c, 14, 55, 60
1, 60583, Pitch_bend_c, 14, 3968
1, 60593, Note_off_c, 1, 46, 99
1, 60593, Pitch_bend_c, 14, 3328
1, 60600, Pitch_bend_c, 14, 7808
1, 60607, Pitch_bend_c, 14, 8704
1, 60613, Note_off_c, 0, 58, 84
1, 60616, Pitch_bend_c, 14, 8320
1, 60623, Pitch_bend_c, 14, 8192
1, 60624, Note_on_c, 1, 46, 113
1, 60624, Note_on_c, 0, 58, 91
1, 60624, Note_on_c, 9, 64, 108
1, 60625, Note_off_c, 9, 64, 112
1, 60627, Note_on_c, 9, 69, 50
1, 60628, Note_on_c, 2, 67, 87
1, 60628, Note_off_c, 9, 69, 92
1, 60629, Note_off_c, 2, 67, 97
1, 60647, Note_off_c, 0, 46, 97
1, 60648, Note_off_c, 1, 46, 84
1, 60651, Note_off_c, 0, 58, 97
1, 60671, Note_on_c, 9, 42, 116
1, 60671, Note_on_c, 9, 69, 96
1, 60672, Note_on_c, 1, 34, 114
1, 60672, Note_on_c, 9, 36, 124
1, 60672, Note_off_c, 9, 42, 84
1, 60672, Note_on_c, 0, 46, 106
1, 60672, Note_on_c, 0, 58, 94
1, 60672, Note_on_c, 9, 63, 120
1, 60672, Note_on_c, 2, 67, 65
1, 60672, Note_off_c, 9, 69, 80
1, 60673, Note_off_c, 2, 67, 106
1, 60673, Note_off_c, 9, 36, 112
1, 60673, Note_off_c, 9, 63, 92
1, 60704, Note_on_c, 2, 67, 66
1, 60705, Note_off_c, 2, 67, 60
1, 60708, Note_off_c, 1, 34, 102
1, 60723, Note_on_c, 9, 69, 50
1, 60724, Note_off_c, 9, 69, 80
1, 60731, Note_off_c, 0, 46, 99
1, 60736, Note_on_c, 2, 67, 88
1, 60737, Note_off_c, 2, 67, 91
1, 60740, Note_off_c, 0, 58, 91
1, 60767, Note_on_c, 9, 42, 124
1, 60767, Note_on_c, 9, 69, 88
1, 60768, Note_off_c, 9, 42, 100
1, 60768, Note_on_c, 1, 46, 113
1, 60768, Note_on_c, 9, 63, 116
1, 60768, Note_on_c, 2, 67, 84
1, 60768, Note_off_c, 9, 69, 76
1, 60769, Note_off_c, 2, 67, 97
1, 60769, Note_off_c, 9, 63, 84
1, 60800, Note_on_c, 2, 67, 76
1, 60801, Note_off_c, 1, 46, 97
1, 60801, Note_off_c, 2, 67, 52
1, 60819, Note_on_c, 9, 69, 50
1, 60820, Note_off_c, 9, 69, 76
1, 60832, Note_on_c, 2, 67, 60
1, 60833, Note_off_c, 2, 67, 102
1, 60863, Note_on_c, 9, 42, 124
1, 60863, Note_on_c, 9, 69, 104
1, 60864, Note_on_c, 9, 36, 124
1, 60864, Note_off_c, 9, 42, 108
1, 60864, Note_on_c, 9, 62, 124
1, 60864, Note_on_c, 2, 67, 97
1, 60864, Note_off_c, 9, 69, 68
1, 60865, Note_off_c, 2, 67, 84
1, 60865, Note_off_c, 9, 36, 112
1, 60865, Note_off_c, 9, 62, 108
1, 60896, Note_on_c, 2, 67, 71
1, 60897, Note_off_c, 2, 67, 84
1, 60912, Note_on_c, 9, 40, 119
1, 60913, Note_off_c, 9, 40, 107
1, 60915, Note_on_c, 9, 69, 50
1, 60916, Note_off_c, 9, 69, 68
1, 60928, Note_on_c, 2, 67, 94
1, 60929, Note_off_c, 2, 67, 102
1, 60959, Note_on_c, 9, 69, 96
1, 60960, Note_on_c, 0, 46, 104
1, 60960, Note_on_c, 1, 46, 111
1, 60960, Note_on_c, 0, 58, 81
1, 60960, Note_on_c, 9, 64, 116
1, 60960, Note_on_c, 2, 67, 102
1, 60960, Note_off_c, 9, 69, 68
1, 60961, Note_off_c, 2, 67, 108
1, 60961, Note_off_c, 9, 64, 96
1, 60978, Note_off_c, 1, 46, 97
1, 60990, Note_off_c, 0, 58, 81
1, 60992, Note_on_c, 2, 67, 91
1, 60993, Note_off_c, 2, 67, 99
1, 61008, Note_on_c, 9, 40, 115
1, 61008, Note_on_c, 1, 46, 113
1, 61008, Note_on_c, 0, 58, 102
1, 61008, Note_on_c, 9, 64, 108
1, 61009, Note_off_c, 9, 40, 103
1, 61009, Note_off_c, 9, 64, 104
1, 61011, Note_on_c, 9, 69, 50
1, 61012, Note_off_c, 9, 69, 68
1, 61024, Note_on_c, 2, 67, 99
1, 61025, Note_off_c, 2, 67, 106
1, 61034, Note_off_c, 1, 46, 91
1, 61036, Note_off_c, 0, 46, 97
1, 61037, Note_off_c, 0, 58, 104
1, 61055, Note_on_c, 9, 69, 104
1, 61056, Note_on_c, 1, 34, 114
1, 61056, Note_on_c, 9, 36, 124
1, 61056, Note_on_c, 9, 40, 119
1, 61056, Note_on_c, 0, 46, 117
1, 61056, Note_on_c, 0, 58, 52
1, 61056, Note_on_c, 9, 63, 124
1, 61056, Note_on_c, 2, 67, 108
1, 61056, Note_off_c, 9, 69, 84
1, 61057, Note_off_c, 2, 67, 97
1, 61057, Note_off_c, 9, 36, 108
1, 61057, Note_off_c, 9, 40, 111
1, 61057, Note_off_c, 9, 63, 96
1, 61088, Note_on_c, 2, 67, 104
1, 61089, Note_off_c, 2, 67, 104
1, 61090, Note_off_c, 1, 34, 104
1, 61107, Note_on_c, 9, 69, 50
1, 61108, Note_off_c, 9, 69, 84
1, 61120, Note_on_c, 2, 67, 108
1, 61121, Note_off_c, 2, 67, 104
1, 61135, Note_off_c, 0, 46, 81
1, 61146, Note_off_c, 0, 58, 35
1, 61151, Note_on_c, 9, 69, 100
1, 61152, Note_on_c, 9, 40, 119
1, 61152, Note_on_c, 1, 46, 113
1, 61152, Note_on_c, 9, 63, 124
1, 61152, Note_on_c, 2, 67, 106
1, 61152, Note_off_c, 9, 69, 92
1, 61153, Note_off_c, 2, 67, 106
1, 61153, Note_off_c, 9, 40, 107
1, 61153, Note_off_c, 9, 63, 100
1, 61181, Note_off_c, 1, 46, 104
1, 61184, Note_on_c, 2, 67, 104
1, 61185, Note_off_c, 2, 67, 104
1, 61203, Note_on_c, 9, 69, 50
1, 61204, Note_off_c, 9, 69, 92
1, 61216, Note_on_c, 2, 67, 104
1, 61217, Note_off_c, 2, 67, 104
1, 61247, Note_on_c, 9, 69, 100
1, 61248, Note_on_c, 1, 33, 102
1, 61248, Note_on_c, 9, 36, 124
1, 61248, Note_on_c, 9, 40, 119
1, 61248, Note_on_c, 0, 45, 111
1, 61248, Note_on_c, 0, 57, 119
1, 61248, Note_on_c, 9, 62, 124
1, 61248, Note_on_c, 2, 67, 110
1, 61248, Note_off_c, 9, 69, 92
1, 61249, Note_off_c, 2, 67, 106
1, 61249, Note_off_c, 9, 36, 112
1, 61249, Note_off_c, 9, 40, 107
1, 61249, Note_off_c, 9, 62, 104
1, 61280, Note_on_c, 2, 67, 104
1, 61281, Note_off_c, 2, 67, 108
1, 61288, Note_off_c, 1, 33, 99
1, 61296, Note_on_c, 9, 40, 119
1, 61297, Note_off_c, 9, 40, 107
1, 61299, Note_on_c, 9, 69, 50
1, 61300, Note_off_c, 9, 69, 92
1, 61312, Note_on_c, 2, 67, 108
1, 61313, Note_off_c, 2, 67, 102
1, 61337, Note_off_c, 0, 57, 110
1, 61343, Note_on_c, 9, 69, 100
1, 61344, Note_on_c, 1, 45, 119
1, 61344, Note_on_c, 9, 47, 124
1, 61344, Note_on_c, 9, 64, 112
1, 61344, Note_on_c, 2, 67, 106
1, 61344, Note_off_c, 9, 69, 92
1, 61345, Note_off_c, 0, 45, 97
1, 61345, Note_off_c, 2, 67, 108
1, 61345, Note_off_c, 9, 47, 112
1, 61345, Note_off_c, 9, 64, 104
1, 61371, Note_off_c, 1, 45, 106
1, 61392, Note_on_c, 9, 47, 124
1, 61392, Note_on_c, 9, 64, 108
1, 61393, Note_off_c, 9, 47, 116
1, 61393, Note_off_c, 9, 64, 112
1, 61393, Note_on_c, 12, 69, 83
1, 61395, Note_on_c, 9, 69, 50
1, 61396, Note_off_c, 9, 69, 92
1, 61416, Note_on_c, 12, 65, 86
1, 61434, Note_on_c, 12, 62, 97
1, 61439, Note_on_c, 9, 69, 96
1, 61440, Note_on_c, 1, 31, 113
1, 61440, Note_on_c, 9, 36, 124
1, 61440, Note_on_c, 9, 49, 124
1, 61440, Note_on_c, 0, 53, 81
1, 61440, Note_on_c, 0, 58, 71
1, 61440, Note_on_c, 0, 62, 84
1, 61440, Note_on_c, 9, 63, 110
1, 61440, Note_off_c, 9, 69, 80
1, 61440, Note_on_c, 0, 77, 100
1, 61440, Note_on_c, 3, 81, 124
1, 61440, Note_on_c, 0, 81, 99
1, 61441, Note_off_c, 9, 36, 76
1, 61441, Note_off_c, 9, 49, 100
1, 61441, Note_off_c, 9, 63, 82
1, 61449, Note_on_c, 12, 58, 92
1, 61485, Note_off_c, 1, 31, 94
1, 61491, Note_on_c, 9, 69, 50
1, 61492, Note_off_c, 9, 69, 80
1, 61535, Note_on_c, 9, 69, 88
1, 61536, Note_on_c, 1, 43, 111
1, 61536, Note_on_c, 9, 63, 106
1, 61536, Note_off_c, 9, 69, 76
1, 61537, Note_off_c, 9, 63, 74
1, 61538, Note_off_c, 3, 81, 110
1, 61568, Note_on_c, 0, 79, 99
1, 61568, Note_on_c, 0, 82, 98
1, 61570, Note_off_c, 1, 43, 94
1, 61583, Note_off_c, 0, 81, 102
1, 61584, Note_off_c, 0, 77, 99
1, 61584, Note_on_c, 3, 81, 120
1, 61587, Note_on_c, 9, 69, 50
1, 61588, Note_off_c, 9, 69, 76
1, 61631, Note_on_c, 9, 42, 7
1, 61631, Note_on_c, 9, 69, 104
1, 61632, Note_on_c, 1, 33, 104
1, 61632, Note_on_c, 9, 36, 124
1, 61632, Note_on_c, 9, 40, 109
1, 61632, Note_off_c, 9, 42, 88
1, 61632, Note_on_c, 2, 62, 108
1, 61632, Note_on_c, 9, 62, 114
1, 61632, Note_on_c, 2, 65, 113
1, 61632, Note_off_c, 9, 69, 68
1, 61632, Note_on_c, 2, 70, 122
1, 61633, Note_off_c, 9, 36, 96
1, 61633, Note_off_c, 9, 40, 81
1, 61633, Note_off_c, 9, 62, 98
1, 61683, Note_on_c, 9, 69, 50
1, 61684, Note_off_c, 9, 69, 68
1, 61685, Note_off_c, 3, 81, 108
1, 61687, Note_off_c, 1, 33, 91
1, 61696, Note_on_c, 0, 81, 96
1, 61696, Note_on_c, 0, 84, 90
1, 61701, Note_off_c, 0, 82, 97
1, 61703, Note_off_c, 0, 79, 102
1, 61727, Note_on_c, 9, 42, 112
1, 61727, Note_on_c, 9, 69, 96
1, 61728, Note_off_c, 9, 42, 88
1, 61728, Note_on_c, 1, 45, 111
1, 61728, Note_on_c, 9, 64, 106
1, 61728, Note_off_c, 9, 69, 68
1, 61728, Note_on_c, 3, 81, 120
1, 61729, Note_off_c, 9, 64, 86
1, 61751, Note_off_c, 2, 62, 35
1, 61756, Note_off_c, 2, 65, 76
1, 61763, Note_off_c, 1, 45, 106
1, 61776, Note_on_c, 9, 64, 98
1, 61777, Note_off_c, 9, 64, 94
1, 61778, Note_off_c, 3, 81, 111
1, 61779, Note_on_c, 9, 69, 50
1, 61780, Note_on_c, 2, 62, 97
1, 61780, Note_off_c, 9, 69, 68
1, 61781, Note_off_c, 2, 70, 106
1, 61813, Note_off_c, 0, 84, 108
1, 61823, Note_on_c, 9, 42, 52
1, 61823, Note_off_c, 2, 62, 108
1, 61823, Note_on_c, 9, 69, 104
1, 61824, Note_on_c, 1, 34, 114
1, 61824, Note_on_c, 9, 36, 124
1, 61824, Note_off_c, 9, 42, 92
1, 61824, Note_on_c, 9, 63, 114
1, 61824, Note_on_c, 2, 65, 119
1, 61824, Note_off_c, 9, 69, 84
1, 61824, Note_on_c, 2, 70, 117
1, 61824, Note_on_c, 0, 77, 111
1, 61824, Note_on_c, 3, 81, 122
1, 61825, Note_off_c, 9, 36, 108
1, 61825, Note_off_c, 9, 63, 86
1, 61842, Note_off_c, 2, 70, 104
1, 61853, Note_off_c, 2, 65, 108
1, 61875, Note_off_c, 1, 34, 84
1, 61875, Note_on_c, 9, 69, 50
1, 61876, Note_off_c, 9, 69, 84
1, 61919, Note_on_c, 9, 42, 124
1, 61919, Note_on_c, 9, 69, 100
1, 61920, Note_off_c, 9, 42, 92
1, 61920, Note_on_c, 1, 46, 104
1, 61920, Note_on_c, 9, 63, 114
1, 61920, Note_off_c, 9, 69, 92
1, 61921, Note_off_c, 9, 63, 90
1, 61956, Note_off_c, 1, 46, 91
1, 61971, Note_on_c, 9, 69, 50
1, 61972, Note_off_c, 9, 69, 92
1, 61981, Note_off_c, 3, 81, 111
1, 62015, Note_on_c, 9, 42, 84
1, 62015, Note_on_c, 9, 69, 100
1, 62016, Note_on_c, 9, 36, 124
1, 62016, Note_on_c, 9, 40, 109
1, 62016, Note_off_c, 9, 42, 96
1, 62016, Note_on_c, 9, 62, 114
1, 62016, Note_on_c, 2, 65, 120
1, 62016, Note_off_c, 9, 69, 92
1, 62016, Note_on_c, 2, 70, 120
1, 62017, Note_off_c, 9, 36, 112
1, 62017, Note_off_c, 9, 40, 93
1, 62017, Note_off_c, 9, 62, 94
1, 62033, Note_off_c, 2, 70, 94
1, 62036, Note_off_c, 2, 65, 104
1, 62067, Note_on_c, 9, 69, 50
1, 62068, Note_off_c, 9, 69, 92
1, 62094, Note_off_c, 12, 58, 13
1, 62111, Note_on_c, 9, 42, 124
1, 62111, Note_on_c, 9, 69, 100
1, 62112, Note_off_c, 9, 42, 96
1, 62112, Note_on_c, 1, 46, 104
1, 62112, Note_on_c, 9, 64, 102
1, 62112, Note_off_c, 9, 69, 92
1, 62112, Note_on_c, 3, 74, 113
1, 62113, Note_off_c, 9, 64, 94
1, 62123, Note_off_c, 12, 65, 81
1, 62129, Note_off_c, 1, 46, 99
1, 62135, Note_off_c, 3, 74, 91
1, 62153, Note_off_c, 12, 69, 97
1, 62154, Note_off_c, 12, 62, 104
1, 62160, Note_on_c, 1, 46, 113
1, 62160, Note_on_c, 9, 64, 98
1, 62161, Note_off_c, 9, 64, 102
1, 62163, Note_on_c, 9, 69, 50
1, 62164, Note_off_c, 9, 69, 92
1, 62169, Note_on_c, 12, 53, 94
1, 62179, Pitch_bend_c, 2, 7552
1, 62184, Note_off_c, 0, 77, 81
1, 62184, Note_off_c, 1, 46, 84
1, 62187, Note_off_c, 0, 58, 88
1, 62187, Pitch_bend_c, 2, 5760
1, 62192, Note_on_c, 12, 58, 104
1, 62194, Pitch_bend_c, 2, 3456
1, 62197, Note_off_c, 0, 62, 104
1, 62198, Note_off_c, 0, 53, 84
1, 62202, Pitch_bend_c, 2, 1152
1, 62203, Note_off_c, 0, 81, 108
1, 62207, Note_on_c, 9, 42, 76
1, 62207, Note_on_c, 9, 69, 96
1, 62208, Note_on_c, 1, 34, 114
1, 62208, Note_on_c, 9, 36, 124
1, 62208, Note_off_c, 9, 42, 100
1, 62208, Note_on_c, 0, 53, 94
1, 62208, Note_on_c, 0, 58, 94
1, 62208, Note_on_c, 9, 63, 110
1, 62208, Note_on_c, 0, 65, 94
1, 62208, Note_off_c, 9, 69, 80
1, 62208, Note_on_c, 2, 74, 114
1, 62208, Note_on_c, 3, 77, 122
1, 62208, Note_on_c, 2, 79, 116
1, 62209, Note_off_c, 9, 36, 76
1, 62209, Note_off_c, 9, 63, 82
1, 62209, Note_on_c, 0, 70, 111
1, 62209, Pitch_bend_c, 2, 512
1, 62210, Note_on_c, 0, 72, 110
1, 62211, Note_on_c, 12, 62, 96
1, 62217, Pitch_bend_c, 2, 4608
1, 62222, Note_on_c, 0, 74, 104
1, 62224, Pitch_bend_c, 2, 6656
1, 62231, Pitch_bend_c, 2, 7552
1, 62232, Note_off_c, 0, 72, 102
1, 62238, Pitch_bend_c, 2, 7936
1, 62244, Note_off_c, 1, 34, 102
1, 62245, Pitch_bend_c, 2, 8192
1, 62259, Note_on_c, 9, 69, 50
1, 62260, Note_off_c, 9, 69, 80
1, 62296, Note_off_c, 3, 77, 111
1, 62303, Note_on_c, 9, 42, 124
1, 62303, Note_on_c, 9, 69, 88
1, 62304, Note_off_c, 9, 42, 100
1, 62304, Note_on_c, 1, 46, 113
1, 62304, Note_on_c, 9, 63, 106
1, 62304, Note_off_c, 9, 69, 76
1, 62304, Note_on_c, 3, 74, 111
1, 62305, Note_off_c, 9, 63, 74
1, 62322, Note_off_c, 3, 74, 113
1, 62332, Note_off_c, 2, 74, 71
1, 62337, Note_off_c, 1, 46, 97
1, 62341, Note_off_c, 2, 79, 97
1, 62355, Note_on_c, 9, 69, 50
1, 62356, Note_off_c, 9, 69, 76
1, 62356, Note_on_c, 2, 79, 114
1, 62382, Note_off_c, 2, 79, 102
1, 62399, Note_on_c, 9, 42, 80
1, 62399, Note_on_c, 9, 69, 104
1, 62400, Note_on_c, 9, 36, 124
1, 62400, Note_on_c, 9, 40, 109
1, 62400, Note_off_c, 9, 42, 96
1, 62400, Note_on_c, 9, 62, 114
1, 62400, Note_off_c, 9, 69, 68
1, 62400, Note_on_c, 2, 72, 120
1, 62400, Note_on_c, 3, 77, 116
1, 62400, Note_on_c, 2, 77, 122
1, 62401, Note_off_c, 9, 36, 96
1, 62401, Note_off_c, 9, 40, 81
1, 62401, Note_off_c, 9, 62, 98
1, 62417, Note_off_c, 2, 77, 106
1, 62425, Note_off_c, 2, 72, 113
1, 62426, Note_off_c, 3, 77, 102
1, 62451, Note_on_c, 9, 69, 50
1, 62452, Note_off_c, 9, 69, 68
1, 62495, Note_on_c, 9, 42, 124
1, 62495, Note_on_c, 9, 69, 96
1, 62496, Note_off_c, 9, 42, 96
1, 62496, Note_on_c, 1, 46, 111
1, 62496, Note_on_c, 9, 64, 106
1, 62496, Note_off_c, 9, 69, 68
1, 62496, Note_on_c, 3, 74, 113
1, 62497, Note_off_c, 9, 64, 86
1, 62514, Note_off_c, 1, 46, 97
1, 62523, Note_off_c, 3, 74, 97
1, 62544, Note_on_c, 1, 46, 113
1, 62544, Note_on_c, 9, 64, 98
1, 62545, Note_off_c, 9, 64, 94
1, 62547, Note_off_c, 12, 58, 84
1, 62547, Note_on_c, 9, 69, 50
1, 62548, Note_off_c, 9, 69, 68
1, 62556, Note_on_c, 12, 52, 88
1, 62561, Note_off_c, 12, 62, 94
1, 62569, Note_off_c, 12, 53, 91
1, 62570, Note_off_c, 1, 46, 91
1, 62586, Note_on_c, 12, 55, 101
1, 62587, Note_off_c, 0, 70, 60
1, 62590, Note_off_c, 0, 65, 102
1, 62591, Note_on_c, 9, 42, 92
1, 62591, Note_off_c, 0, 53, 102
1, 62591, Note_off_c, 0, 58, 102
1, 62591, Note_on_c, 9, 69, 104
1, 62592, Note_on_c, 1, 34, 114
1, 62592, Note_on_c, 9, 36, 124
1, 62592, Note_off_c, 9, 42, 100
1, 62592, Note_on_c, 0, 52, 97
1, 62592, Note_on_c, 9, 63, 114
1, 62592, Note_on_c, 0, 64, 99
1, 62592, Note_on_c, 0, 67, 99
1, 62592, Note_on_c, 2, 67, 97
1, 62592, Note_off_c, 9, 69, 84
1, 62592, Note_on_c, 0, 72, 102
1, 62592, Note_on_c, 2, 72, 108
1, 62592, Note_on_c, 3, 77, 119
1, 62593, Note_off_c, 9, 36, 108
1, 62593, Note_off_c, 9, 63, 86
1, 62598, Note_on_c, 12, 60, 97
1, 62598, Note_off_c, 0, 74, 13
1, 62626, Note_off_c, 1, 34, 104
1, 62643, Note_on_c, 9, 69, 50
1, 62644, Note_off_c, 9, 69, 84
1, 62687, Note_on_c, 9, 42, 124
1, 62687, Note_on_c, 9, 69, 100
1, 62688, Note_off_c, 9, 42, 96
1, 62688, Note_on_c, 1, 46, 113
1, 62688, Note_on_c, 9, 63, 114
1, 62688, Note_off_c, 9, 69, 92
1, 62689, Note_off_c, 9, 63, 90
1, 62704, Note_off_c, 3, 77, 106
1, 62705, Note_off_c, 2, 67, 71
1, 62706, Note_off_c, 2, 72, 84
1, 62717, Note_off_c, 1, 46, 104
1, 62736, Note_on_c, 3, 79, 114
1, 62739, Note_on_c, 9, 69, 50
1, 62740, Note_off_c, 9, 69, 92
1, 62783, Note_on_c, 9, 42, 96
1, 62783, Note_on_c, 9, 69, 100
1, 62784, Note_on_c, 1, 33, 102
1, 62784, Note_on_c, 9, 36, 124
1, 62784, Note_on_c, 9, 40, 109
1, 62784, Note_off_c, 9, 42, 100
1, 62784, Note_on_c, 9, 62, 114
1, 62784, Note_on_c, 2, 67, 97
1, 62784, Note_off_c, 9, 69, 92
1, 62785, Note_off_c, 9, 36, 112
1, 62785, Note_off_c, 9, 40, 93
1, 62785, Note_off_c, 9, 62, 94
1, 62806, Note_off_c, 3, 79, 108
1, 62824, Note_off_c, 1, 33, 99
1, 62835, Note_on_c, 9, 69, 50
1, 62836, Note_off_c, 2, 67, 102
1, 62836, Note_on_c, 2, 67, 98
1, 62836, Note_off_c, 9, 69, 92
1, 62857, Note_off_c, 2, 67, 110
1, 62874, Note_off_c, 12, 55, 71
1, 62879, Note_on_c, 9, 42, 124
1, 62879, Note_on_c, 9, 69, 100
1, 62880, Note_off_c, 9, 42, 100
1, 62880, Note_on_c, 1, 45, 119
1, 62880, Note_on_c, 9, 64, 102
1, 62880, Note_off_c, 9, 69, 92
1, 62880, Note_on_c, 2, 76, 104
1, 62881, Note_off_c, 9, 64, 94
1, 62907, Note_off_c, 1, 45, 106
1, 62920, Note_off_c, 12, 52, 108
1, 62921, Note_off_c, 12, 60, 111
1, 62928, Note_on_c, 9, 64, 98
1, 62929, Note_on_c, 12, 53, 76
1, 62929, Note_off_c, 9, 64, 102
1, 62931, Note_on_c, 9, 69, 50
1, 62932, Note_off_c, 2, 76, 106
1, 62932, Note_off_c, 9, 69, 92
1, 62932, Note_on_c, 2, 76, 104
1, 62952, Note_on_c, 12, 58, 86
1, 62963, Note_off_c, 2, 76, 110
1, 62970, Note_on_c, 12, 62, 97
1, 62970, Note_off_c, 0, 64, 111
1, 62974, Note_off_c, 0, 52, 84
1, 62974, Note_off_c, 0, 67, 111
1, 62974, Note_off_c, 0, 72, 108
1, 62975, Note_on_c, 9, 42, 76
1, 62975, Note_on_c, 9, 69, 96
1, 62976, Note_on_c, 1, 31, 113
1, 62976, Note_on_c, 9, 36, 124
1, 62976, Note_off_c, 9, 42, 96
1, 62976, Note_on_c, 0, 53, 81
1, 62976, Note_on_c, 0, 58, 71
1, 62976, Note_on_c, 0, 62, 84
1, 62976, Note_on_c, 9, 63, 110
1, 62976, Note_off_c, 9, 69, 80
1, 62976, Note_on_c, 0, 77, 100
1, 62976, Note_on_c, 0, 81, 99
1, 62977, Note_off_c, 9, 36, 76
1, 62977, Note_off_c, 9, 63, 82
1, 62985, Note_on_c, 12, 69, 92
1, 63021, Note_off_c, 1, 31, 94
1, 63027, Note_on_c, 9, 69, 50
1, 63028, Note_off_c, 9, 69, 80
1, 63071, Note_on_c, 9, 42, 124
1, 63071, Note_on_c, 9, 69, 88
1, 63072, Note_off_c, 9, 42, 100
1, 63072, Note_on_c, 1, 43, 111
1, 63072, Note_on_c, 9, 63, 106
1, 63072, Note_off_c, 9, 69, 76
1, 63072, Note_on_c, 3, 81, 120
1, 63073, Note_off_c, 9, 63, 74
1, 63101, Note_off_c, 3, 81, 110
1, 63104, Note_on_c, 0, 79, 99
1, 63104, Note_on_c, 0, 82, 98
1, 63106, Note_off_c, 1, 43, 94
1, 63119, Note_off_c, 0, 81, 102
1, 63120, Note_on_c, 1, 43, 111
1, 63120, Note_off_c, 0, 77, 99
1, 63123, Note_on_c, 9, 69, 50
1, 63124, Note_off_c, 9, 69, 76
1, 63154, Note_off_c, 1, 43, 94
1, 63167, Note_on_c, 9, 42, 92
1, 63167, Note_on_c, 9, 69, 104
1, 63168, Note_on_c, 1, 33, 104
1, 63168, Note_on_c, 9, 36, 124
1, 63168, Note_on_c, 9, 40, 109
1, 63168, Note_off_c, 9, 42, 100
1, 63168, Note_on_c, 2, 62, 108
1, 63168, Note_on_c, 9, 62, 114
1, 63168, Note_on_c, 2, 65, 113
1, 63168, Note_off_c, 9, 69, 68
1, 63168, Note_on_c, 2, 70, 122
1, 63168, Note_on_c, 3, 81, 120
1, 63169, Note_off_c, 9, 36, 96
1, 63169, Note_off_c, 9, 40, 81
1, 63169, Note_off_c, 9, 62, 98
1, 63219, Note_on_c, 9, 69, 50
1, 63220, Note_off_c, 9, 69, 68
1, 63223, Note_off_c, 1, 33, 91
1, 63232, Note_on_c, 0, 81, 96
1, 63232, Note_on_c, 0, 84, 90
1, 63237, Note_off_c, 0, 82, 97
1, 63239, Note_off_c, 0, 79, 102
1, 63255, Note_off_c, 3, 81, 104
1, 63263, Note_on_c, 9, 42, 124
1, 63263, Note_on_c, 9, 69, 96
1, 63264, Note_off_c, 9, 42, 92
1, 63264, Note_on_c, 1, 45, 111
1, 63264, Note_on_c, 9, 64, 106
1, 63264, Note_off_c, 9, 69, 68
1, 63264, Note_on_c, 3, 79, 110
1, 63265, Note_off_c, 9, 64, 86
1, 63287, Note_off_c, 2, 62, 35
1, 63292, Note_off_c, 2, 65, 76
1, 63295, Note_off_c, 3, 79, 108
1, 63299, Note_off_c, 1, 45, 106
1, 63312, Note_on_c, 1, 45, 111
1, 63312, Note_on_c, 9, 64, 98
1, 63313, Note_off_c, 9, 64, 94
1, 63315, Note_on_c, 9, 69, 50
1, 63316, Note_on_c, 2, 62, 97
1, 63316, Note_off_c, 9, 69, 68
1, 63317, Note_off_c, 2, 70, 106
1, 63347, Note_off_c, 1, 45, 106
1, 63349, Note_off_c, 0, 84, 108
1, 63359, Note_on_c, 9, 42, 84
1, 63359, Note_off_c, 2, 62, 108
1, 63359, Note_on_c, 9, 69, 104
1, 63360, Note_on_c, 1, 34, 114
1, 63360, Note_on_c, 9, 36, 124
1, 63360, Note_off_c, 9, 42, 96
1, 63360, Note_on_c, 9, 63, 114
1, 63360, Note_on_c, 2, 65, 119
1, 63360, Note_off_c, 9, 69, 84
1, 63360, Note_on_c, 2, 70, 117
1, 63360, Note_on_c, 0, 77, 111
1, 63360, Note_on_c, 3, 81, 120
1, 63361, Note_off_c, 9, 36, 108
1, 63361, Note_off_c, 9, 63, 86
1, 63378, Note_off_c, 2, 70, 104
1, 63389, Note_off_c, 2, 65, 108
1, 63411, Note_off_c, 1, 34, 84
1, 63411, Note_on_c, 9, 69, 50
1, 63412, Note_off_c, 9, 69, 84
1, 63455, Note_on_c, 9, 42, 124
1, 63455, Note_on_c, 9, 69, 100
1, 63456, Note_off_c, 9, 42, 100
1, 63456, Note_on_c, 1, 46, 104
1, 63456, Note_on_c, 9, 63, 114
1, 63456, Note_off_c, 9, 69, 92
1, 63457, Note_off_c, 9, 63, 90
1, 63485, Note_off_c, 3, 81, 110
1, 63492, Note_off_c, 1, 46, 91
1, 63504, Note_on_c, 3, 81, 108
1, 63507, Note_on_c, 9, 69, 50
1, 63508, Note_off_c, 9, 69, 92
1, 63535, Note_off_c, 3, 81, 106
1, 63551, Note_on_c, 9, 42, 100
1, 63551, Note_on_c, 9, 69, 100
1, 63552, Note_on_c, 9, 36, 124
1, 63552, Note_on_c, 9, 40, 109
1, 63552, Note_off_c, 9, 42, 100
1, 63552, Note_on_c, 9, 62, 114
1, 63552, Note_on_c, 2, 65, 120
1, 63552, Note_off_c, 9, 69, 92
1, 63552, Note_on_c, 2, 70, 120
1, 63553, Note_off_c, 9, 36, 112
1, 63553, Note_off_c, 9, 40, 93
1, 63553, Note_off_c, 9, 62, 94
1, 63569, Note_off_c, 2, 70, 94
1, 63572, Note_off_c, 2, 65, 104
1, 63603, Note_on_c, 9, 69, 50
1, 63604, Note_off_c, 9, 69, 92
1, 63630, Note_off_c, 12, 69, 13
1, 63647, Note_on_c, 9, 42, 124
1, 63647, Note_on_c, 9, 69, 100
1, 63648, Note_off_c, 9, 42, 100
1, 63648, Note_on_c, 1, 46, 104
1, 63648, Note_on_c, 9, 64, 102
1, 63648, Note_off_c, 9, 69, 92
1, 63648, Note_on_c, 3, 74, 111
1, 63649, Note_off_c, 9, 64, 94
1, 63659, Note_off_c, 12, 58, 81
1, 63665, Note_off_c, 1, 46, 99
1, 63666, Note_off_c, 3, 74, 111
1, 63689, Note_off_c, 12, 53, 97
1, 63690, Note_off_c, 12, 62, 104
1, 63696, Note_on_c, 1, 46, 113
1, 63696, Note_on_c, 9, 64, 98
1, 63697, Note_off_c, 9, 64, 102
1, 63699, Note_on_c, 9, 69, 50
1, 63700, Note_off_c, 9, 69, 92
1, 63705, Note_on_c, 12, 53, 94
1, 63715, Pitch_bend_c, 2, 7552
1, 63720, Note_off_c, 0, 77, 81
1, 63720, Note_off_c, 1, 46, 84
1, 63723, Note_off_c, 0, 58, 88
1, 63723, Pitch_bend_c, 2, 5760
1, 63728, Note_on_c, 12, 58, 104
1, 63730, Pitch_bend_c, 2, 3456
1, 63733, Note_off_c, 0, 62, 104
1, 63734, Note_off_c, 0, 53, 84
1, 63738, Pitch_bend_c, 2, 1152
1, 63739, Note_off_c, 0, 81, 108
1, 63743, Note_on_c, 9, 42, 92
1, 63743, Note_on_c, 9, 69, 96
1, 63744, Note_on_c, 1, 34, 114
1, 63744, Note_on_c, 9, 36, 124
1, 63744, Note_off_c, 9, 42, 100
1, 63744, Note_on_c, 0, 53, 94
1, 63744, Note_on_c, 0, 58, 94
1, 63744, Note_on_c, 9, 63, 110
1, 63744, Note_on_c, 0, 65, 94
1, 63744, Note_off_c, 9, 69, 80
1, 63744, Note_on_c, 2, 74, 114
1, 63744, Note_on_c, 3, 77, 119
1, 63744, Note_on_c, 2, 79, 116
1, 63745, Note_off_c, 9, 36, 76
1, 63745, Note_off_c, 9, 63, 82
1, 63745, Note_on_c, 0, 70, 111
1, 63745, Pitch_bend_c, 2, 512
1, 63746, Note_on_c, 0, 72, 110
1, 63747, Note_on_c, 12, 62, 96
1, 63753, Pitch_bend_c, 2, 4608
1, 63758, Note_on_c, 0, 74, 104
1, 63760, Pitch_bend_c, 2, 6656
1, 63767, Pitch_bend_c, 2, 7552
1, 63768, Note_off_c, 0, 72, 102
1, 63774, Pitch_bend_c, 2, 7936
1, 63780, Note_off_c, 1, 34, 102
1, 63781, Pitch_bend_c, 2, 8192
1, 63795, Note_on_c, 9, 69, 50
1, 63796, Note_off_c, 9, 69, 80
1, 63834, Note_off_c, 3, 77, 110
1, 63839, Note_on_c, 9, 42, 124
1, 63839, Note_on_c, 9, 69, 88
1, 63840, Note_off_c, 9, 42, 100
1, 63840, Note_on_c, 1, 46, 113
1, 63840, Note_on_c, 9, 63, 106
1, 63840, Note_off_c, 9, 69, 76
1, 63840, Note_on_c, 3, 74, 113
1, 63841, Note_off_c, 9, 63, 74
1, 63863, Note_off_c, 3, 74, 94
1, 63868, Note_off_c, 2, 74, 71
1, 63873, Note_off_c, 1, 46, 97
1, 63877, Note_off_c, 2, 79, 97
1, 63891, Note_on_c, 9, 69, 50
1, 63892, Note_off_c, 9, 69, 76
1, 63892, Note_on_c, 2, 79, 114
1, 63918, Note_off_c, 2, 79, 102
1, 63935, Note_on_c, 9, 42, 100
1, 63935, Note_on_c, 9, 69, 104
1, 63936, Note_on_c, 9, 36, 124
1, 63936, Note_on_c, 9, 40, 109
1, 63936, Note_off_c, 9, 42, 100
1, 63936, Note_on_c, 9, 62, 114
1, 63936, Note_off_c, 9, 69, 68
1, 63936, Note_on_c, 2, 72, 120
1, 63936, Note_on_c, 3, 77, 116
1, 63936, Note_on_c, 2, 77, 122
1, 63937, Note_off_c, 9, 36, 96
1, 63937, Note_off_c, 9, 40, 81
1, 63937, Note_off_c, 9, 62, 98
1, 63953, Note_off_c, 2, 77, 106
1, 63961, Note_off_c, 2, 72, 113
1, 63987, Note_on_c, 9, 69, 50
1, 63988, Note_off_c, 9, 69, 68
1, 64019, Note_off_c, 3, 77, 110
1, 64031, Note_on_c, 9, 42, 124
1, 64031, Note_on_c, 9, 69, 96
1, 64032, Note_off_c, 9, 42, 104
1, 64032, Note_on_c, 1, 46, 111
1, 64032, Note_on_c, 9, 64, 106
1, 64032, Note_off_c, 9, 69, 68
1, 64032, Note_on_c, 3, 74, 111
1, 64033, Note_off_c, 9, 64, 86
1, 64050, Note_off_c, 1, 46, 97
1, 64054, Note_off_c, 3, 74, 97
1, 64080, Note_on_c, 9, 64, 98
1, 64081, Note_off_c, 9, 64, 94
1, 64083, Note_off_c, 12, 58, 84
1, 64083, Note_on_c, 9, 69, 50
1, 64084, Note_off_c, 9, 69, 68
1, 64092, Note_on_c, 12, 52, 88
1, 64097, Note_off_c, 12, 62, 94
1, 64105, Note_off_c, 12, 53, 91
1, 64122, Note_on_c, 12, 55, 101
1, 64123, Note_off_c, 0, 70, 60
1, 64126, Note_off_c, 0, 65, 102
1, 64127, Note_on_c, 9, 42, 92
1, 64127, Note_off_c, 0, 53, 102
1, 64127, Note_off_c, 0, 58, 102
1, 64127, Note_on_c, 9, 69, 104
1, 64128, Note_on_c, 1, 34, 114
1, 64128, Note_on_c, 9, 36, 124
1, 64128, Note_off_c, 9, 42, 100
1, 64128, Note_on_c, 0, 52, 97
1, 64128, Note_on_c, 9, 63, 114
1, 64128, Note_on_c, 0, 64, 99
1, 64128, Note_on_c, 0, 67, 99
1, 64128, Note_on_c, 2, 67, 97
1, 64128, Note_off_c, 9, 69, 84
1, 64128, Note_on_c, 0, 72, 102
1, 64128, Note_on_c, 2, 72, 108
1, 64128, Note_on_c, 3, 74, 116
1, 64129, Note_off_c, 9, 36, 108
1, 64129, Note_off_c, 9, 63, 86
1, 64134, Note_on_c, 12, 60, 97
1, 64134, Note_off_c, 0, 74, 13
1, 64162, Note_off_c, 1, 34, 104
1, 64179, Note_on_c, 9, 69, 50
1, 64180, Note_off_c, 9, 69, 84
1, 64223, Note_on_c, 9, 42, 124
1, 64223, Note_on_c, 9, 69, 100
1, 64224, Note_off_c, 9, 42, 108
1, 64224, Note_on_c, 1, 46, 113
1, 64224, Note_on_c, 9, 63, 114
1, 64224, Note_off_c, 9, 69, 92
1, 64225, Note_off_c, 9, 63, 90
1, 64241, Note_off_c, 2, 67, 71
1, 64241, Note_off_c, 3, 74, 104
1, 64242, Note_off_c, 2, 72, 84
1, 64253, Note_off_c, 1, 46, 104
1, 64272, Note_on_c, 3, 72, 104
1, 64275, Note_on_c, 9, 69, 50
1, 64276, Note_off_c, 9, 69, 92
1, 64319, Note_on_c, 9, 42, 96
1, 64319, Note_on_c, 9, 69, 100
1, 64320, Note_on_c, 1, 33, 102
1, 64320, Note_on_c, 9, 36, 124
1, 64320, Note_on_c, 9, 40, 109
1, 64320, Note_off_c, 9, 42, 100
1, 64320, Note_on_c, 9, 62, 114
1, 64320, Note_on_c, 2, 67, 97
1, 64320, Note_off_c, 9, 69, 92
1, 64321, Note_off_c, 9, 36, 112
1, 64321, Note_off_c, 9, 40, 93
1, 64321, Note_off_c, 9, 62, 94
1, 64360, Note_off_c, 1, 33, 99
1, 64371, Note_on_c, 9, 69, 50
1, 64372, Note_off_c, 2, 67, 102
1, 64372, Note_on_c, 2, 67, 102
1, 64372, Note_off_c, 9, 69, 92
1, 64393, Note_off_c, 2, 67, 110
1, 64395, Note_off_c, 3, 72, 111
1, 64410, Note_off_c, 12, 55, 71
1, 64415, Note_on_c, 9, 46, 121
1, 64415, Note_on_c, 9, 69, 100
1, 64416, Note_on_c, 1, 45, 119
1, 64416, Note_off_c, 9, 46, 100
1, 64416, Note_on_c, 9, 64, 102
1, 64416, Note_off_c, 9, 69, 92
1, 64416, Note_on_c, 2, 76, 107
1, 64417, Note_off_c, 9, 64, 94
1, 64443, Note_off_c, 1, 45, 106
1, 64456, Note_off_c, 12, 52, 108
1, 64457, Note_off_c, 12, 60, 111
1, 64464, Note_on_c, 9, 64, 98
1, 64465, Note_on_c, 12, 53, 76
1, 64465, Note_off_c, 9, 64, 102
1, 64467, Note_on_c, 9, 69, 50
1, 64468, Note_off_c, 2, 76, 106
1, 64468, Note_off_c, 9, 69, 92
1, 64468, Note_on_c, 2, 76, 110
1, 64488, Note_on_c, 12, 58, 86
1, 64499, Note_off_c, 2, 76, 110
1, 64506, Note_on_c, 12, 62, 97
1, 64506, Note_off_c, 0, 64, 111
1, 64510, Note_off_c, 0, 52, 84
1, 64510, Note_off_c, 0, 67, 111
1, 64510, Note_off_c, 0, 72, 108
1, 64511, Note_on_c, 9, 42, 90
1, 64511, Note_on_c, 9, 69, 96
1, 64512, Note_on_c, 1, 31, 113
1, 64512, Note_on_c, 9, 36, 124
1, 64512, Note_off_c, 9, 42, 88
1, 64512, Note_on_c, 0, 53, 81
1, 64512, Note_on_c, 0, 58, 71
1, 64512, Note_on_c, 0, 62, 84
1, 64512, Note_on_c, 9, 63, 110
1, 64512, Note_off_c, 9, 69, 80
1, 64512, Note_on_c, 0, 77, 100
1, 64512, Note_on_c, 3, 81, 124
1, 64512, Note_on_c, 0, 81, 99
1, 64513, Note_off_c, 9, 36, 76
1, 64513, Note_off_c, 9, 63, 82
1, 64521, Note_on_c, 12, 69, 92
1, 64557, Note_off_c, 1, 31, 94
1, 64563, Note_on_c, 9, 69, 50
1, 64564, Note_off_c, 9, 69, 80
1, 64606, Note_off_c, 3, 81, 110
1, 64607, Note_on_c, 9, 42, 112
1, 64607, Note_on_c, 9, 69, 88
1, 64608, Note_off_c, 9, 42, 88
1, 64608, Note_on_c, 1, 43, 111
1, 64608, Note_on_c, 9, 63, 106
1, 64608, Note_off_c, 9, 69, 76
1, 64609, Note_off_c, 9, 63, 74
1, 64640, Note_on_c, 0, 79, 99
1, 64640, Note_on_c, 0, 82, 98
1, 64642, Note_off_c, 1, 43, 94
1, 64655, Note_off_c, 0, 81, 102
1, 64656, Note_off_c, 0, 77, 99
1, 64656, Note_on_c, 3, 81, 124
1, 64659, Note_on_c, 9, 69, 50
1, 64660, Note_off_c, 9, 69, 76
1, 64703, Note_on_c, 9, 42, 81
1, 64703, Note_on_c, 9, 69, 104
1, 64704, Note_on_c, 1, 33, 104
1, 64704, Note_on_c, 9, 36, 124
1, 64704, Note_on_c, 9, 40, 109
1, 64704, Note_off_c, 9, 42, 88
1, 64704, Note_on_c, 2, 62, 108
1, 64704, Note_on_c, 9, 62, 114
1, 64704, Note_on_c, 2, 65, 113
1, 64704, Note_off_c, 9, 69, 68
1, 64704, Note_on_c, 2, 70, 122
1, 64705, Note_off_c, 9, 36, 96
1, 64705, Note_off_c, 9, 40, 81
1, 64705, Note_off_c, 9, 62, 98
1, 64755, Note_on_c, 9, 69, 50
1, 64756, Note_off_c, 9, 69, 68
1, 64759, Note_off_c, 1, 33, 91
1, 64768, Note_on_c, 0, 81, 96
1, 64768, Note_on_c, 0, 84, 90
1, 64773, Note_off_c, 0, 82, 97
1, 64775, Note_off_c, 0, 79, 102
1, 64799, Note_on_c, 9, 42, 112
1, 64799, Note_on_c, 9, 69, 96
1, 64800, Note_off_c, 9, 42, 88
1, 64800, Note_on_c, 1, 45, 111
1, 64800, Note_on_c, 9, 64, 106
1, 64800, Note_off_c, 9, 69, 68
1, 64801, Note_off_c, 9, 64, 86
1, 64823, Note_off_c, 2, 62, 35
1, 64828, Note_off_c, 2, 65, 76
1, 64835, Note_off_c, 1, 45, 106
1, 64848, Note_on_c, 9, 64, 98
1, 64849, Note_off_c, 9, 64, 94
1, 64851, Note_on_c, 9, 69, 50
1, 64851, Note_off_c, 3, 81, 110
1, 64852, Note_on_c, 2, 62, 97
1, 64852, Note_off_c, 9, 69, 68
1, 64853, Note_off_c, 2, 70, 106
1, 64885, Note_off_c, 0, 84, 108
1, 64895, Note_on_c, 9, 42, 52
1, 64895, Note_off_c, 2, 62, 108
1, 64895, Note_on_c, 9, 69, 104
1, 64896, Note_on_c, 1, 34, 114
1, 64896, Note_on_c, 9, 36, 124
1, 64896, Note_off_c, 9, 42, 92
1, 64896, Note_on_c, 9, 63, 114
1, 64896, Note_on_c, 2, 65, 119
1, 64896, Note_off_c, 9, 69, 84
1, 64896, Note_on_c, 2, 70, 117
1, 64896, Note_on_c, 0, 77, 111
1, 64896, Note_on_c, 3, 81, 120
1, 64897, Note_off_c, 9, 36, 108
1, 64897, Note_off_c, 9, 63, 86
1, 64914, Note_off_c, 2, 70, 104
1, 64925, Note_off_c, 2, 65, 108
1, 64947, Note_off_c, 1, 34, 84
1, 64947, Note_on_c, 9, 69, 50
1, 64948, Note_off_c, 9, 69, 84
1, 64991, Note_on_c, 9, 42, 124
1, 64991, Note_on_c, 9, 69, 100
1, 64992, Note_off_c, 9, 42, 92
1, 64992, Note_on_c, 1, 46, 104
1, 64992, Note_on_c, 9, 63, 114
1, 64992, Note_off_c, 9, 69, 92
1, 64993, Note_off_c, 9, 63, 90
1, 65028, Note_off_c, 1, 46, 91
1, 65043, Note_on_c, 9, 69, 50
1, 65044, Note_off_c, 9, 69, 92
1, 65045, Note_off_c, 3, 81, 113
1, 65087, Note_on_c, 9, 42, 84
1, 65087, Note_on_c, 9, 69, 100
1, 65088, Note_on_c, 9, 36, 124
1, 65088, Note_on_c, 9, 40, 109
1, 65088, Note_off_c, 9, 42, 96
1, 65088, Note_on_c, 9, 62, 114
1, 65088, Note_on_c, 2, 65, 120
1, 65088, Note_off_c, 9, 69, 92
1, 65088, Note_on_c, 2, 70, 120
1, 65089, Note_off_c, 9, 36, 112
1, 65089, Note_off_c, 9, 40, 93
1, 65089, Note_off_c, 9, 62, 94
1, 65105, Note_off_c, 2, 70, 94
1, 65108, Note_off_c, 2, 65, 104
1, 65139, Note_on_c, 9, 69, 50
1, 65140, Note_off_c, 9, 69, 92
1, 65166, Note_off_c, 12, 69, 13
1, 65183, Note_on_c, 9, 42, 124
1, 65183, Note_on_c, 9, 69, 100
1, 65184, Note_off_c, 9, 42, 96
1, 65184, Note_on_c, 1, 46, 104
1, 65184, Note_on_c, 9, 64, 102
1, 65184, Note_off_c, 9, 69, 92
1, 65185, Note_off_c, 9, 64, 94
1, 65195, Note_off_c, 12, 58, 81
1, 65201, Note_off_c, 1, 46, 99
1, 65225, Note_off_c, 12, 53, 97
1, 65226, Note_off_c, 12, 62, 104
1, 65232, Note_on_c, 1, 46, 113
1, 65232, Note_on_c, 9, 64, 98
1, 65233, Note_off_c, 9, 64, 102
1, 65235, Note_on_c, 9, 69, 50
1, 65236, Note_off_c, 9, 69, 92
1, 65241, Note_on_c, 12, 53, 94
1, 65251, Pitch_bend_c, 2, 7552
1, 65256, Note_off_c, 0, 77, 81
1, 65256, Note_off_c, 1, 46, 84
1, 65259, Note_off_c, 0, 58, 88
1, 65259, Pitch_bend_c, 2, 5760
1, 65264, Note_on_c, 12, 58, 104
1, 65266, Pitch_bend_c, 2, 3456
1, 65269, Note_off_c, 0, 62, 104
1, 65270, Note_off_c, 0, 53, 84
1, 65274, Pitch_bend_c, 2, 1152
1, 65275, Note_off_c, 0, 81, 108
1, 65279, Note_on_c, 9, 42, 76
1, 65279, Note_on_c, 9, 69, 96
1, 65280, Note_on_c, 1, 34, 114
1, 65280, Note_on_c, 9, 36, 124
1, 65280, Note_off_c, 9, 42, 100
1, 65280, Note_on_c, 0, 53, 94
1, 65280, Note_on_c, 0, 58, 94
1, 65280, Note_on_c, 9, 63, 110
1, 65280, Note_on_c, 0, 65, 94
1, 65280, Note_off_c, 9, 69, 80
1, 65280, Note_on_c, 2, 74, 114
1, 65280, Note_on_c, 3, 77, 122
1, 65280, Note_on_c, 2, 79, 116
1, 65281, Note_off_c, 9, 36, 76
1, 65281, Note_off_c, 9, 63, 82
1, 65281, Note_on_c, 0, 70, 111
1, 65281, Pitch_bend_c, 2, 512
1, 65282, Note_on_c, 0, 72, 110
1, 65283, Note_on_c, 12, 62, 96
1, 65289, Pitch_bend_c, 2, 4608
1, 65294, Note_on_c, 0, 74, 104
1, 65296, Pitch_bend_c, 2, 6656
1, 65303, Pitch_bend_c, 2, 7552
1, 65304, Note_off_c, 0, 72, 102
1, 65310, Pitch_bend_c, 2, 7936
1, 65316, Note_off_c, 1, 34, 102
1, 65317, Pitch_bend_c, 2, 8192
1, 65331, Note_on_c, 9, 69, 50
1, 65332, Note_off_c, 9, 69, 80
1, 65365, Note_off_c, 3, 77, 111
1, 65375, Note_on_c, 9, 42, 124
1, 65375, Note_on_c, 9, 69, 88
1, 65376, Note_off_c, 9, 42, 100
1, 65376, Note_on_c, 1, 46, 113
1, 65376, Note_on_c, 9, 63, 106
1, 65376, Note_off_c, 9, 69, 76
1, 65376, Note_on_c, 3, 74, 108
1, 65377, Note_off_c, 9, 63, 74
1, 65395, Note_off_c, 3, 74, 110
1, 65404, Note_off_c, 2, 74, 71
1, 65409, Note_off_c, 1, 46, 97
1, 65413, Note_off_c, 2, 79, 97
1, 65427, Note_on_c, 9, 69, 50
1, 65428, Note_off_c, 9, 69, 76
1, 65428, Note_on_c, 2, 79, 114
1, 65454, Note_off_c, 2, 79, 102
1, 65471, Note_on_c, 9, 42, 80
1, 65471, Note_on_c, 9, 69, 104
1, 65472, Note_on_c, 9, 36, 124
1, 65472, Note_on_c, 9, 40, 109
1, 65472, Note_off_c, 9, 42, 96
1, 65472, Note_on_c, 9, 62, 114
1, 65472, Note_off_c, 9, 69, 68
1, 65472, Note_on_c, 2, 72, 120
1, 65472, Note_on_c, 3, 77, 114
1, 65472, Note_on_c, 2, 77, 122
1, 65473, Note_off_c, 9, 36, 96
1, 65473, Note_off_c, 9, 40, 81
1, 65473, Note_off_c, 9, 62, 98
1, 65489, Note_off_c, 2, 77, 106
1, 65494, Note_off_c, 3, 77, 97
1, 65497, Note_off_c, 2, 72, 113
1, 65523, Note_on_c, 9, 69, 50
1, 65524, Note_off_c, 9, 69, 68
1, 65567, Note_on_c, 9, 42, 124
1, 65567, Note_on_c, 9, 69, 96
1, 65568, Note_off_c, 9, 42, 96
1, 65568, Note_on_c, 1, 46, 111
1, 65568, Note_on_c, 9, 64, 106
1, 65568, Note_off_c, 9, 69, 68
1, 65568, Note_on_c, 3, 74, 111
1, 65569, Note_off_c, 9, 64, 86
1, 65586, Note_off_c, 1, 46, 97
1, 65594, Note_off_c, 3, 74, 94
1, 65616, Note_on_c, 1, 46, 113
1, 65616, Note_on_c, 9, 64, 98
1, 65617, Note_off_c, 9, 64, 94
1, 65619, Note_off_c, 12, 58, 84
1, 65619, Note_on_c, 9, 69, 50
1, 65620, Note_off_c, 9, 69, 68
1, 65628, Note_on_c, 12, 52, 88
1, 65633, Note_off_c, 12, 62, 94
1, 65641, Note_off_c, 12, 53, 91
1, 65642, Note_off_c, 1, 46, 91
1, 65658, Note_on_c, 12, 55, 101
1, 65659, Note_off_c, 0, 70, 60
1, 65662, Note_off_c, 0, 65, 102
1, 65663, Note_on_c, 9, 42, 92
1, 65663, Note_off_c, 0, 53, 102
1, 65663, Note_off_c, 0, 58, 102
1, 65663, Note_on_c, 9, 69, 104
1, 65664, Note_on_c, 1, 34, 114
1, 65664, Note_on_c, 9, 36, 124
1, 65664, Note_off_c, 9, 42, 100
1, 65664, Note_on_c, 0, 52, 97
1, 65664, Note_on_c, 9, 63, 114
1, 65664, Note_on_c, 0, 64, 99
1, 65664, Note_on_c, 0, 67, 99
1, 65664, Note_on_c, 2, 67, 97
1, 65664, Note_off_c, 9, 69, 84
1, 65664, Note_on_c, 0, 72, 102
1, 65664, Note_on_c, 2, 72, 108
1, 65664, Note_on_c, 3, 77, 120
1, 65665, Note_off_c, 9, 36, 108
1, 65665, Note_off_c, 9, 63, 86
1, 65670, Note_on_c, 12, 60, 97
1, 65670, Note_off_c, 0, 74, 13
1, 65698, Note_off_c, 1, 34, 104
1, 65715, Note_on_c, 9, 69, 50
1, 65716, Note_off_c, 9, 69, 84
1, 65759, Note_on_c, 9, 42, 124
1, 65759, Note_on_c, 9, 69, 100
1, 65760, Note_off_c, 9, 42, 96
1, 65760, Note_on_c, 1, 46, 113
1, 65760, Note_on_c, 9, 63, 114
1, 65760, Note_off_c, 9, 69, 92
1, 65761, Note_off_c, 9, 63, 90
1, 65776, Note_off_c, 3, 77, 110
1, 65777, Note_off_c, 2, 67, 71
1, 65778, Note_off_c, 2, 72, 84
1, 65789, Note_off_c, 1, 46, 104
1, 65808, Note_on_c, 3, 79, 113
1, 65811, Note_on_c, 9, 69, 50
1, 65812, Note_off_c, 9, 69, 92
1, 65855, Note_on_c, 9, 42, 96
1, 65855, Note_on_c, 9, 69, 100
1, 65856, Note_on_c, 1, 33, 102
1, 65856, Note_on_c, 9, 36, 124
1, 65856, Note_on_c, 9, 40, 109
1, 65856, Note_off_c, 9, 42, 100
1, 65856, Note_on_c, 9, 62, 114
1, 65856, Note_on_c, 2, 67, 98
1, 65856, Note_off_c, 9, 69, 92
1, 65857, Note_off_c, 9, 36, 112
1, 65857, Note_off_c, 9, 40, 93
1, 65857, Note_off_c, 9, 62, 94
1, 65896, Note_off_c, 1, 33, 99
1, 65907, Note_on_c, 9, 69, 50
1, 65908, Note_off_c, 2, 67, 102
1, 65908, Note_on_c, 2, 67, 98
1, 65908, Note_off_c, 9, 69, 92
1, 65917, Note_off_c, 3, 79, 108
1, 65929, Note_off_c, 2, 67, 110
1, 65946, Note_off_c, 12, 55, 71
1, 65951, Note_on_c, 9, 42, 124
1, 65951, Note_on_c, 9, 69, 100
1, 65952, Note_off_c, 9, 42, 100
1, 65952, Note_on_c, 1, 45, 119
1, 65952, Note_on_c, 9, 64, 102
1, 65952, Note_off_c, 9, 69, 92
1, 65952, Note_on_c, 2, 76, 99
1, 65953, Note_off_c, 9, 64, 94
1, 65979, Note_off_c, 1, 45, 106
1, 65992, Note_off_c, 12, 52, 108
1, 65993, Note_off_c, 12, 60, 111
1, 66000, Note_on_c, 9, 64, 98
1, 66001, Note_on_c, 12, 53, 76
1, 66001, Note_off_c, 9, 64, 102
1, 66003, Note_on_c, 9, 69, 50
1, 66004, Note_off_c, 2, 76, 106
1, 66004, Note_off_c, 9, 69, 92
1, 66004, Note_on_c, 2, 76, 97
1, 66024, Note_on_c, 12, 58, 86
1, 66035, Note_off_c, 2, 76, 110
1, 66042, Note_on_c, 12, 62, 97
1, 66042, Note_off_c, 0, 64, 111
1, 66046, Note_off_c, 0, 52, 84
1, 66046, Note_off_c, 0, 67, 111
1, 66046, Note_off_c, 0, 72, 108
1, 66047, Note_on_c, 9, 42, 76
1, 66047, Note_on_c, 9, 69, 96
1, 66048, Note_on_c, 1, 31, 113
1, 66048, Note_on_c, 9, 36, 124
1, 66048, Note_off_c, 9, 42, 96
1, 66048, Note_on_c, 0, 53, 81
1, 66048, Note_on_c, 0, 58, 71
1, 66048, Note_on_c, 0, 62, 84
1, 66048, Note_on_c, 9, 63, 110
1, 66048, Note_off_c, 9, 69, 80
1, 66048, Note_on_c, 0, 77, 100
1, 66048, Note_on_c, 0, 81, 99
1, 66049, Note_off_c, 9, 36, 76
1, 66049, Note_off_c, 9, 63, 82
1, 66057, Note_on_c, 12, 69, 92
1, 66093, Note_off_c, 1, 31, 94
1, 66099, Note_on_c, 9, 69, 50
1, 66100, Note_off_c, 9, 69, 80
1, 66143, Note_on_c, 9, 42, 124
1, 66143, Note_on_c, 9, 69, 88
1, 66144, Note_off_c, 9, 42, 100
1, 66144, Note_on_c, 1, 43, 111
1, 66144, Note_on_c, 9, 63, 106
1, 66144, Note_off_c, 9, 69, 76
1, 66144, Note_on_c, 3, 77, 117
1, 66145, Note_off_c, 9, 63, 74
1, 66175, Note_off_c, 3, 77, 111
1, 66176, Note_on_c, 0, 79, 99
1, 66176, Note_on_c, 0, 82, 98
1, 66178, Note_off_c, 1, 43, 94
1, 66191, Note_off_c, 0, 81, 102
1, 66192, Note_on_c, 1, 43, 111
1, 66192, Note_off_c, 0, 77, 99
1, 66195, Note_on_c, 9, 69, 50
1, 66196, Note_off_c, 9, 69, 76
1, 66226, Note_off_c, 1, 43, 94
1, 66239, Note_on_c, 9, 42, 92
1, 66239, Note_on_c, 9, 69, 104
1, 66240, Note_on_c, 1, 33, 104
1, 66240, Note_on_c, 9, 36, 124
1, 66240, Note_on_c, 9, 40, 109
1, 66240, Note_off_c, 9, 42, 100
1, 66240, Note_on_c, 2, 62, 108
1, 66240, Note_on_c, 9, 62, 114
1, 66240, Note_on_c, 2, 65, 113
1, 66240, Note_off_c, 9, 69, 68
1, 66240, Note_on_c, 2, 70, 122
1, 66240, Note_on_c, 3, 77, 119
1, 66241, Note_off_c, 9, 36, 96
1, 66241, Note_off_c, 9, 40, 81
1, 66241, Note_off_c, 9, 62, 98
1, 66291, Note_on_c, 9, 69, 50
1, 66292, Note_off_c, 9, 69, 68
1, 66295, Note_off_c, 1, 33, 91
1, 66304, Note_on_c, 0, 81, 96
1, 66304, Note_on_c, 0, 84, 90
1, 66309, Note_off_c, 0, 82, 97
1, 66311, Note_off_c, 0, 79, 102
1, 66319, Note_off_c, 3, 77, 108
1, 66335, Note_on_c, 9, 42, 124
1, 66335, Note_on_c, 9, 69, 96
1, 66336, Note_off_c, 9, 42, 92
1, 66336, Note_on_c, 1, 45, 111
1, 66336, Note_on_c, 9, 64, 106
1, 66336, Note_off_c, 9, 69, 68
1, 66336, Note_on_c, 3, 74, 108
1, 66337, Note_off_c, 9, 64, 86
1, 66359, Note_off_c, 2, 62, 35
1, 66364, Note_off_c, 2, 65, 76
1, 66367, Note_off_c, 3, 74, 94
1, 66371, Note_off_c, 1, 45, 106
1, 66384, Note_on_c, 1, 45, 111
1, 66384, Note_on_c, 9, 64, 98
1, 66385, Note_off_c, 9, 64, 94
1, 66387, Note_on_c, 9, 69, 50
1, 66388, Note_on_c, 2, 62, 97
1, 66388, Note_off_c, 9, 69, 68
1, 66389, Note_off_c, 2, 70, 106
1, 66419, Note_off_c, 1, 45, 106
1, 66421, Note_off_c, 0, 84, 108
1, 66431, Note_on_c, 9, 42, 84
1, 66431, Note_off_c, 2, 62, 108
1, 66431, Note_on_c, 9, 69, 104
1, 66432, Note_on_c, 1, 34, 114
1, 66432, Note_on_c, 9, 36, 124
1, 66432, Note_off_c, 9, 42, 96
1, 66432, Note_on_c, 9, 63, 114
1, 66432, Note_on_c, 2, 65, 119
1, 66432, Note_off_c, 9, 69, 84
1, 66432, Note_on_c, 2, 70, 117
1, 66432, Note_on_c, 3, 74, 116
1, 66432, Note_on_c, 0, 77, 111
1, 66433, Note_off_c, 9, 36, 108
1, 66433, Note_off_c, 9, 63, 86
1, 66450, Note_off_c, 2, 70, 104
1, 66461, Note_off_c, 2, 65, 108
1, 66483, Note_off_c, 1, 34, 84
1, 66483, Note_on_c, 9, 69, 50
1, 66484, Note_off_c, 9, 69, 84
1, 66493, Note_off_c, 3, 74, 97
1, 66527, Note_on_c, 9, 42, 124
1, 66527, Note_on_c, 9, 69, 100
1, 66528, Note_off_c, 9, 42, 100
1, 66528, Note_on_c, 1, 46, 104
1, 66528, Note_on_c, 9, 63, 114
1, 66528, Note_off_c, 9, 69, 92
1, 66528, Note_on_c, 3, 74, 99
1, 66529, Note_off_c, 9, 63, 90
1, 66564, Note_off_c, 1, 46, 91
1, 66579, Note_on_c, 9, 69, 50
1, 66580, Note_off_c, 9, 69, 92
1, 66591, Note_off_c, 3, 74, 108
1, 66623, Note_on_c, 9, 42, 100
1, 66623, Note_on_c, 9, 69, 100
1, 66624, Note_on_c, 9, 36, 124
1, 66624, Note_on_c, 9, 40, 109
1, 66624, Note_off_c, 9, 42, 100
1, 66624, Note_on_c, 9, 62, 114
1, 66624, Note_on_c, 2, 65, 120
1, 66624, Note_off_c, 9, 69, 92
1, 66624, Note_on_c, 2, 70, 120
1, 66625, Note_off_c, 9, 36, 112
1, 66625, Note_off_c, 9, 40, 93
1, 66625, Note_off_c, 9, 62, 94
1, 66641, Note_off_c, 2, 70, 94
1, 66644, Note_off_c, 2, 65, 104
1, 66675, Note_on_c, 9, 69, 50
1, 66676, Note_off_c, 9, 69, 92
1, 66689, Pitch_bend_c, 2, 7808
1, 66702, Note_off_c, 12, 69, 13
1, 66702, Pitch_bend_c, 2, 6912
1, 66709, Pitch_bend_c, 2, 5504
1, 66716, Pitch_bend_c, 2, 3840
1, 66719, Note_on_c, 9, 42, 124
1, 66719, Note_on_c, 9, 69, 100
1, 66720, Note_off_c, 9, 42, 100
1, 66720, Note_on_c, 1, 46, 104
1, 66720, Note_on_c, 9, 64, 102
1, 66720, Note_off_c, 9, 69, 92
1, 66720, Note_on_c, 2, 74, 113
1, 66720, Note_on_c, 2, 79, 113
1, 66721, Note_off_c, 9, 64, 94
1, 66723, Pitch_bend_c, 2, 3200
1, 66731, Note_off_c, 12, 58, 81
1, 66731, Pitch_bend_c, 2, 3200
1, 66737, Note_off_c, 1, 46, 99
1, 66739, Pitch_bend_c, 2, 3584
1, 66747, Pitch_bend_c, 2, 6272
1, 66754, Pitch_bend_c, 2, 7168
1, 66761, Note_off_c, 12, 53, 97
1, 66761, Pitch_bend_c, 2, 7808
1, 66762, Note_off_c, 12, 62, 104
1, 66768, Note_on_c, 1, 46, 113
1, 66768, Note_on_c, 9, 64, 98
1, 66769, Note_off_c, 9, 64, 102
1, 66770, Pitch_bend_c, 2, 8192
1, 66771, Note_on_c, 9, 69, 50
1, 66772, Note_off_c, 9, 69, 92
1, 66777, Note_on_c, 12, 53, 94
1, 66792, Note_off_c, 0, 77, 81
1, 66792, Note_off_c, 1, 46, 84
1, 66795, Note_off_c, 0, 58, 88
1, 66800, Note_on_c, 12, 58, 104
1, 66805, Note_off_c, 0, 62, 104
1, 66806, Note_off_c, 0, 53, 84
1, 66811, Note_off_c, 0, 81, 108
1, 66815, Note_on_c, 9, 42, 92
1, 66815, Note_on_c, 9, 69, 96
1, 66816, Note_on_c, 1, 34, 114
1, 66816, Note_on_c, 9, 36, 124
1, 66816, Note_off_c, 9, 42, 100
1, 66816, Note_on_c, 0, 53, 94
1, 66816, Note_on_c, 0, 58, 94
1, 66816, Note_on_c, 9, 63, 110
1, 66816, Note_on_c, 0, 65, 94
1, 66816, Note_off_c, 9, 69, 80
1, 66816, Note_on_c, 3, 72, 114
1, 66817, Note_off_c, 9, 36, 76
1, 66817, Note_off_c, 9, 63, 82
1, 66817, Note_on_c, 0, 70, 111
1, 66818, Note_on_c, 0, 72, 110
1, 66819, Note_on_c, 12, 62, 96
1, 66830, Note_on_c, 0, 74, 104
1, 66840, Note_off_c, 0, 72, 102
1, 66852, Note_off_c, 1, 34, 102
1, 66853, Note_off_c, 2, 79, 94
1, 66867, Note_on_c, 9, 69, 50
1, 66868, Note_off_c, 9, 69, 80
1, 66878, Note_off_c, 2, 74, 76
1, 66896, Note_off_c, 3, 72, 81
1, 66911, Note_on_c, 9, 42, 124
1, 66911, Note_on_c, 9, 69, 88
1, 66912, Note_off_c, 9, 42, 100
1, 66912, Note_on_c, 1, 46, 113
1, 66912, Note_on_c, 9, 63, 106
1, 66912, Note_off_c, 9, 69, 76
1, 66912, Note_on_c, 3, 70, 104
1, 66912, Note_on_c, 2, 74, 97
1, 66912, Note_on_c, 2, 79, 106
1, 66913, Note_off_c, 9, 63, 74
1, 66933, Note_off_c, 3, 70, 94
1, 66945, Note_off_c, 1, 46, 97
1, 66963, Note_on_c, 9, 69, 50
1, 66964, Note_off_c, 9, 69, 76
1, 66993, Note_off_c, 2, 74, 106
1, 67000, Note_off_c, 2, 79, 108
1, 67007, Note_on_c, 9, 42, 100
1, 67007, Note_on_c, 9, 69, 104
1, 67008, Note_on_c, 9, 36, 124
1, 67008, Note_on_c, 9, 40, 109
1, 67008, Note_off_c, 9, 42, 100
1, 67008, Note_on_c, 9, 62, 114
1, 67008, Note_off_c, 9, 69, 68
1, 67008, Note_on_c, 3, 72, 116
1, 67008, Note_on_c, 2, 72, 113
1, 67008, Note_on_c, 2, 77, 113
1, 67009, Note_off_c, 9, 36, 96
1, 67009, Note_off_c, 9, 40, 81
1, 67009, Note_off_c, 9, 62, 98
1, 67042, Note_off_c, 2, 72, 110
1, 67050, Note_off_c, 2, 77, 97
1, 67059, Note_on_c, 9, 69, 50
1, 67060, Note_off_c, 9, 69, 68
1, 67080, Note_off_c, 3, 72, 88
1, 67103, Note_on_c, 9, 42, 124
1, 67103, Note_on_c, 9, 69, 96
1, 67104, Note_off_c, 9, 42, 104
1, 67104, Note_on_c, 1, 46, 111
1, 67104, Note_on_c, 9, 64, 106
1, 67104, Note_off_c, 9, 69, 68
1, 67104, Note_on_c, 3, 70, 106
1, 67105, Note_off_c, 9, 64, 86
1, 67122, Note_off_c, 1, 46, 97
1, 67141, Note_off_c, 3, 70, 94
1, 67152, Note_on_c, 9, 64, 98
1, 67153, Note_off_c, 9, 64, 94
1, 67155, Note_off_c, 12, 58, 84
1, 67155, Note_on_c, 9, 69, 50
1, 67156, Note_off_c, 9, 69, 68
1, 67164, Note_on_c, 12, 52, 88
1, 67169, Note_off_c, 12, 62, 94
1, 67177, Note_off_c, 12, 53, 91
1, 67194, Note_on_c, 12, 55, 101
1, 67195, Note_off_c, 0, 70, 60
1, 67198, Note_off_c, 0, 65, 102
1, 67199, Note_on_c, 9, 42, 92
1, 67199, Note_off_c, 0, 53, 102
1, 67199, Note_off_c, 0, 58, 102
1, 67199, Note_on_c, 9, 69, 104
1, 67200, Note_on_c, 1, 34, 114
1, 67200, Note_on_c, 9, 36, 124
1, 67200, Note_off_c, 9, 42, 100
1, 67200, Note_on_c, 0, 52, 97
1, 67200, Note_on_c, 9, 63, 114
1, 67200, Note_on_c, 0, 64, 99
1, 67200, Note_on_c, 0, 67, 99
1, 67200, Note_on_c, 2, 67, 110
1, 67200, Note_off_c, 9, 69, 84
1, 67200, Note_on_c, 3, 70, 114
1, 67200, Note_on_c, 0, 72, 102
1, 67200, Note_on_c, 2, 72, 110
1, 67201, Note_off_c, 9, 36, 108
1, 67201, Note_off_c, 9, 63, 86
1, 67206, Note_on_c, 12, 60, 97
1, 67206, Note_off_c, 0, 74, 13
1, 67217, Note_off_c, 2, 72, 113
1, 67219, Note_off_c, 2, 67, 113
1, 67234, Note_off_c, 1, 34, 104
1, 67251, Note_on_c, 9, 69, 50
1, 67252, Note_off_c, 9, 69, 84
1, 67295, Note_on_c, 9, 42, 124
1, 67295, Note_on_c, 9, 69, 100
1, 67296, Note_off_c, 9, 42, 108
1, 67296, Note_on_c, 1, 46, 113
1, 67296, Note_on_c, 9, 63, 114
1, 67296, Note_on_c, 2, 67, 113
1, 67296, Note_off_c, 9, 69, 92
1, 67296, Note_on_c, 2, 72, 122
1, 67297, Note_off_c, 9, 63, 90
1, 67309, Note_off_c, 2, 72, 111
1, 67315, Note_off_c, 2, 67, 111
1, 67321, Note_off_c, 3, 70, 76
1, 67325, Note_off_c, 1, 46, 104
1, 67344, Note_on_c, 3, 70, 99
1, 67347, Note_on_c, 9, 69, 50
1, 67348, Note_off_c, 9, 69, 92
1, 67391, Note_on_c, 9, 42, 96
1, 67391, Note_on_c, 9, 69, 100
1, 67392, Note_on_c, 1, 33, 102
1, 67392, Note_on_c, 9, 36, 124
1, 67392, Note_on_c, 9, 40, 109
1, 67392, Note_off_c, 9, 42, 100
1, 67392, Note_on_c, 9, 62, 114
1, 67392, Note_on_c, 2, 67, 113
1, 67392, Note_off_c, 9, 69, 92
1, 67392, Note_on_c, 2, 72, 122
1, 67393, Note_off_c, 9, 36, 112
1, 67393, Note_off_c, 9, 40, 93
1, 67393, Note_off_c, 9, 62, 94
1, 67396, Note_off_c, 3, 70, 104
1, 67421, Note_off_c, 2, 72, 108
1, 67432, Note_off_c, 1, 33, 99
1, 67443, Note_on_c, 9, 69, 50
1, 67444, Note_off_c, 9, 69, 92
1, 67444, Note_on_c, 2, 72, 111
1, 67471, Note_off_c, 2, 72, 110
1, 67482, Note_off_c, 12, 55, 71
1, 67487, Note_on_c, 9, 46, 121
1, 67487, Note_on_c, 9, 69, 100
1, 67488, Note_on_c, 1, 45, 119
1, 67488, Note_off_c, 9, 46, 100
1, 67488, Note_on_c, 9, 64, 102
1, 67488, Note_off_c, 9, 69, 92
1, 67488, Note_on_c, 2, 72, 108
1, 67489, Note_off_c, 9, 64, 94
1, 67502, Note_off_c, 2, 67, 113
1, 67510, Note_off_c, 2, 72, 110
1, 67515, Note_off_c, 1, 45, 106
1, 67528, Note_off_c, 12, 52, 108
1, 67529, Note_off_c, 12, 60, 111
1, 67536, Note_on_c, 9, 40, 63
1, 67536, Note_on_c, 9, 64, 98
1, 67537, Note_off_c, 9, 40, 93
1, 67537, Note_on_c, 12, 53, 76
1, 67537, Note_off_c, 9, 64, 102
1, 67539, Note_on_c, 9, 69, 50
1, 67540, Note_off_c, 9, 69, 92
1, 67560, Note_on_c, 12, 58, 86
1, 67578, Note_on_c, 12, 62, 97
1, 67578, Note_off_c, 0, 64, 111
1, 67582, Note_off_c, 0, 52, 84
1, 67582, Note_off_c, 0, 67, 111
1, 67582, Note_off_c, 0, 72, 108
1, 67583, Note_on_c, 9, 42, 92
1, 67583, Note_on_c, 9, 69, 96
1, 67584, Note_on_c, 1, 31, 113
1, 67584, Note_on_c, 9, 36, 124
1, 67584, Note_off_c, 9, 42, 100
1, 67584, Note_on_c, 0, 53, 81
1, 67584, Note_on_c, 0, 58, 71
1, 67584, Note_on_c, 0, 62, 84
1, 67584, Note_on_c, 9, 63, 110
1, 67584, Note_off_c, 9, 69, 80
1, 67584, Note_on_c, 0, 77, 100
1, 67584, Note_on_c, 0, 81, 99
1, 67585, Note_off_c, 9, 36, 76
1, 67585, Note_off_c, 9, 63, 82
1, 67593, Note_on_c, 12, 69, 92
1, 67629, Note_off_c, 1, 31, 94
1, 67635, Note_on_c, 9, 69, 50
1, 67636, Note_off_c, 9, 69, 80
1, 67679, Note_on_c, 9, 42, 124
1, 67679, Note_on_c, 9, 69, 88
1, 67680, Note_off_c, 9, 42, 96
1, 67680, Note_on_c, 1, 43, 111
1, 67680, Note_on_c, 9, 63, 106
1, 67680, Note_off_c, 9, 69, 76
1, 67680, Note_on_c, 3, 81, 117
1, 67681, Note_off_c, 9, 63, 74
1, 67700, Note_off_c, 3, 81, 97
1, 67712, Note_on_c, 0, 79, 99
1, 67712, Note_on_c, 0, 82, 98
1, 67714, Note_off_c, 1, 43, 94
1, 67727, Note_off_c, 0, 81, 102
1, 67728, Note_off_c, 0, 77, 99
1, 67731, Note_on_c, 9, 69, 50
1, 67732, Note_off_c, 9, 69, 76
1, 67775, Note_on_c, 9, 42, 100
1, 67775, Note_on_c, 9, 69, 104
1, 67776, Note_on_c, 1, 33, 104
1, 67776, Note_on_c, 9, 36, 124
1, 67776, Note_on_c, 9, 40, 109
1, 67776, Note_off_c, 9, 42, 100
1, 67776, Note_on_c, 2, 62, 108
1, 67776, Note_on_c, 9, 62, 114
1, 67776, Note_on_c, 2, 65, 113
1, 67776, Note_off_c, 9, 69, 68
1, 67776, Note_on_c, 2, 70, 122
1, 67776, Note_on_c, 3, 81, 122
1, 67777, Note_off_c, 9, 36, 96
1, 67777, Note_off_c, 9, 40, 81
1, 67777, Note_off_c, 9, 62, 98
1, 67821, Note_off_c, 3, 81, 111
1, 67827, Note_on_c, 9, 69, 50
1, 67828, Note_off_c, 9, 69, 68
1, 67831, Note_off_c, 1, 33, 91
1, 67840, Note_on_c, 0, 81, 96
1, 67840, Note_on_c, 0, 84, 90
1, 67845, Note_off_c, 0, 82, 97
1, 67847, Note_off_c, 0, 79, 102
1, 67871, Note_on_c, 9, 42, 124
1, 67871, Note_on_c, 9, 69, 96
1, 67872, Note_off_c, 9, 42, 100
1, 67872, Note_on_c, 1, 45, 111
1, 67872, Note_on_c, 9, 64, 106
1, 67872, Note_off_c, 9, 69, 68
1, 67872, Note_on_c, 3, 81, 122
1, 67873, Note_off_c, 9, 64, 86
1, 67895, Note_off_c, 2, 62, 35
1, 67900, Note_off_c, 2, 65, 76
1, 67906, Note_off_c, 3, 81, 111
1, 67907, Note_off_c, 1, 45, 106
1, 67920, Note_on_c, 9, 64, 98
1, 67921, Note_off_c, 9, 64, 94
1, 67923, Note_on_c, 9, 69, 50
1, 67924, Note_on_c, 2, 62, 97
1, 67924, Note_off_c, 9, 69, 68
1, 67925, Note_off_c, 2, 70, 106
1, 67957, Note_off_c, 0, 84, 108
1, 67967, Note_on_c, 9, 42, 84
1, 67967, Note_off_c, 2, 62, 108
1, 67967, Note_on_c, 9, 69, 104
1, 67968, Note_on_c, 1, 34, 114
1, 67968, Note_on_c, 9, 36, 124
1, 67968, Note_off_c, 9, 42, 96
1, 67968, Note_on_c, 9, 63, 114
1, 67968, Note_on_c, 2, 65, 119
1, 67968, Note_off_c, 9, 69, 84
1, 67968, Note_on_c, 2, 70, 117
1, 67968, Note_on_c, 0, 77, 111
1, 67968, Note_on_c, 3, 81, 124
1, 67969, Note_off_c, 9, 36, 108
1, 67969, Note_off_c, 9, 63, 86
1, 67986, Note_off_c, 2, 70, 104
1, 67997, Note_off_c, 2, 65, 108
1, 68019, Note_off_c, 1, 34, 84
1, 68019, Note_on_c, 9, 69, 50
1, 68020, Note_off_c, 9, 69, 84
1, 68061, Note_off_c, 3, 81, 108
1, 68063, Note_on_c, 9, 42, 124
1, 68063, Note_on_c, 9, 69, 100
1, 68064, Note_off_c, 9, 42, 100
1, 68064, Note_on_c, 1, 46, 104
1, 68064, Note_on_c, 9, 63, 114
1, 68064, Note_off_c, 9, 69, 92
1, 68064, Note_on_c, 3, 79, 114
1, 68065, Note_off_c, 9, 63, 90
1, 68100, Note_off_c, 1, 46, 91
1, 68115, Note_on_c, 9, 69, 50
1, 68116, Note_off_c, 9, 69, 92
1, 68155, Note_off_c, 3, 79, 108
1, 68159, Note_on_c, 9, 42, 104
1, 68159, Note_on_c, 9, 69, 100
1, 68160, Note_on_c, 9, 36, 124
1, 68160, Note_on_c, 9, 40, 109
1, 68160, Note_off_c, 9, 42, 100
1, 68160, Note_on_c, 9, 62, 114
1, 68160, Note_on_c, 2, 65, 120
1, 68160, Note_off_c, 9, 69, 92
1, 68160, Note_on_c, 2, 70, 120
1, 68160, Note_on_c, 3, 77, 113
1, 68161, Note_off_c, 9, 36, 112
1, 68161, Note_off_c, 9, 40, 93
1, 68161, Note_off_c, 9, 62, 94
1, 68177, Note_off_c, 2, 70, 94
1, 68180, Note_off_c, 2, 65, 104
1, 68211, Note_on_c, 9, 69, 50
1, 68212, Note_off_c, 9, 69, 92
1, 68238, Note_off_c, 12, 69, 13
1, 68246, Note_off_c, 3, 77, 99
1, 68255, Note_on_c, 9, 42, 124
1, 68255, Note_on_c, 9, 69, 100
1, 68256, Note_off_c, 9, 42, 100
1, 68256, Note_on_c, 1, 46, 104
1, 68256, Note_on_c, 9, 64, 102
1, 68256, Note_off_c, 9, 69, 92
1, 68256, Note_on_c, 3, 74, 116
1, 68257, Note_off_c, 9, 64, 94
1, 68267, Note_off_c, 12, 58, 81
1, 68273, Note_off_c, 1, 46, 99
1, 68297, Note_off_c, 12, 53, 97
1, 68298, Note_off_c, 12, 62, 104
1, 68304, Note_on_c, 1, 46, 113
1, 68304, Note_on_c, 9, 64, 98
1, 68305, Note_off_c, 9, 64, 102
1, 68307, Note_on_c, 9, 69, 50
1, 68308, Note_off_c, 9, 69, 92
1, 68313, Note_on_c, 12, 53, 94
1, 68317, Note_off_c, 3, 74, 108
1, 68323, Pitch_bend_c, 2, 7552
1, 68328, Note_off_c, 0, 77, 81
1, 68328, Note_off_c, 1, 46, 84
1, 68331, Note_off_c, 0, 58, 88
1, 68331, Pitch_bend_c, 2, 5760
1, 68336, Note_on_c, 12, 58, 104
1, 68338, Pitch_bend_c, 2, 3456
1, 68341, Note_off_c, 0, 62, 104
1, 68342, Note_off_c, 0, 53, 84
1, 68346, Pitch_bend_c, 2, 1152
1, 68347, Note_off_c, 0, 81, 108
1, 68351, Note_on_c, 9, 42, 104
1, 68351, Note_on_c, 9, 69, 96
1, 68352, Note_on_c, 1, 34, 114
1, 68352, Note_on_c, 9, 36, 124
1, 68352, Note_off_c, 9, 42, 100
1, 68352, Note_on_c, 0, 53, 94
1, 68352, Note_on_c, 0, 58, 94
1, 68352, Note_on_c, 9, 63, 110
1, 68352, Note_on_c, 0, 65, 94
1, 68352, Note_off_c, 9, 69, 80
1, 68352, Note_on_c, 2, 74, 114
1, 68352, Note_on_c, 3, 77, 119
1, 68352, Note_on_c, 2, 79, 116
1, 68353, Note_off_c, 9, 36, 76
1, 68353, Note_off_c, 9, 63, 82
1, 68353, Note_on_c, 0, 70, 111
1, 68353, Pitch_bend_c, 2, 512
1, 68354, Note_on_c, 0, 72, 110
1, 68355, Note_on_c, 12, 62, 96
1, 68361, Pitch_bend_c, 2, 4608
1, 68366, Note_on_c, 0, 74, 104
1, 68368, Pitch_bend_c, 2, 6656
1, 68375, Pitch_bend_c, 2, 7552
1, 68376, Note_off_c, 0, 72, 102
1, 68382, Pitch_bend_c, 2, 7936
1, 68388, Note_off_c, 1, 34, 102
1, 68389, Pitch_bend_c, 2, 8192
1, 68402, Note_off_c, 3, 77, 102
1, 68403, Note_on_c, 9, 69, 50
1, 68404, Note_off_c, 9, 69, 80
1, 68447, Note_on_c, 9, 42, 124
1, 68447, Note_on_c, 9, 69, 88
1, 68448, Note_off_c, 9, 42, 100
1, 68448, Note_on_c, 1, 46, 113
1, 68448, Note_on_c, 9, 63, 106
1, 68448, Note_off_c, 9, 69, 76
1, 68448, Note_on_c, 3, 77, 114
1, 68449, Note_off_c, 9, 63, 74
1, 68476, Note_off_c, 2, 74, 71
1, 68481, Note_off_c, 1, 46, 97
1, 68485, Note_off_c, 2, 79, 97
1, 68485, Note_off_c, 3, 77, 106
1, 68499, Note_on_c, 9, 69, 50
1, 68500, Note_off_c, 9, 69, 76
1, 68500, Note_on_c, 2, 79, 114
1, 68526, Note_off_c, 2, 79, 102
1, 68543, Note_on_c, 9, 42, 108
1, 68543, Note_on_c, 9, 69, 104
1, 68544, Note_on_c, 9, 36, 124
1, 68544, Note_on_c, 9, 40, 109
1, 68544, Note_off_c, 9, 42, 100
1, 68544, Note_on_c, 9, 62, 114
1, 68544, Note_off_c, 9, 69, 68
1, 68544, Note_on_c, 2, 72, 120
1, 68544, Note_on_c, 3, 77, 117
1, 68544, Note_on_c, 2, 77, 122
1, 68545, Note_off_c, 9, 36, 96
1, 68545, Note_off_c, 9, 40, 81
1, 68545, Note_off_c, 9, 62, 98
1, 68561, Note_off_c, 2, 77, 106
1, 68569, Note_off_c, 2, 72, 113
1, 68592, Note_off_c, 3, 77, 99
1, 68595, Note_on_c, 9, 69, 50
1, 68596, Note_off_c, 9, 69, 68
1, 68639, Note_on_c, 9, 42, 124
1, 68639, Note_on_c, 9, 69, 96
1, 68640, Note_off_c, 9, 42, 100
1, 68640, Note_on_c, 1, 46, 111
1, 68640, Note_on_c, 9, 64, 106
1, 68640, Note_off_c, 9, 69, 68
1, 68640, Note_on_c, 3, 74, 114
1, 68641, Note_off_c, 9, 64, 86
1, 68658, Note_off_c, 1, 46, 97
1, 68673, Note_off_c, 3, 74, 106
1, 68688, Note_on_c, 1, 46, 113
1, 68688, Note_on_c, 9, 64, 98
1, 68689, Note_off_c, 9, 64, 94
1, 68691, Note_off_c, 12, 58, 84
1, 68691, Note_on_c, 9, 69, 50
1, 68692, Note_off_c, 9, 69, 68
1, 68700, Note_on_c, 12, 52, 88
1, 68705, Note_off_c, 12, 62, 94
1, 68713, Note_off_c, 12, 53, 91
1, 68714, Note_off_c, 1, 46, 91
1, 68730, Note_on_c, 12, 55, 101
1, 68731, Note_off_c, 0, 70, 60
1, 68734, Note_off_c, 0, 65, 102
1, 68735, Note_on_c, 9, 42, 104
1, 68735, Note_off_c, 0, 53, 102
1, 68735, Note_off_c, 0, 58, 102
1, 68735, Note_on_c, 9, 69, 104
1, 68736, Note_on_c, 1, 34, 114
1, 68736, Note_on_c, 9, 36, 124
1, 68736, Note_off_c, 9, 42, 100
1, 68736, Note_on_c, 0, 52, 97
1, 68736, Note_on_c, 9, 63, 114
1, 68736, Note_on_c, 0, 64, 99
1, 68736, Note_on_c, 0, 67, 99
1, 68736, Note_on_c, 2, 67, 97
1, 68736, Note_off_c, 9, 69, 84
1, 68736, Note_on_c, 0, 72, 102
1, 68736, Note_on_c, 2, 72, 108
1, 68736, Note_on_c, 3, 77, 119
1, 68737, Note_off_c, 9, 36, 108
1, 68737, Note_off_c, 9, 63, 86
1, 68742, Note_on_c, 12, 60, 97
1, 68742, Note_off_c, 0, 74, 13
1, 68770, Note_off_c, 1, 34, 104
1, 68787, Note_on_c, 9, 69, 50
1, 68788, Note_off_c, 9, 69, 84
1, 68827, Note_off_c, 3, 77, 110
1, 68831, Note_on_c, 9, 42, 124
1, 68831, Note_on_c, 9, 69, 100
1, 68832, Note_off_c, 9, 42, 104
1, 68832, Note_on_c, 1, 46, 113
1, 68832, Note_on_c, 9, 63, 114
1, 68832, Note_off_c, 9, 69, 92
1, 68833, Note_off_c, 9, 63, 90
1, 68849, Note_off_c, 2, 67, 71
1, 68850, Note_off_c, 2, 72, 84
1, 68861, Note_off_c, 1, 46, 104
1, 68880, Note_on_c, 3, 79, 117
1, 68883, Note_on_c, 9, 69, 50
1, 68884, Note_off_c, 9, 69, 92
1, 68927, Note_on_c, 9, 42, 96
1, 68927, Note_on_c, 9, 69, 100
1, 68928, Note_on_c, 1, 33, 102
1, 68928, Note_on_c, 9, 36, 124
1, 68928, Note_on_c, 9, 40, 109
1, 68928, Note_off_c, 9, 42, 100
1, 68928, Note_on_c, 9, 62, 114
1, 68928, Note_on_c, 2, 67, 97
1, 68928, Note_off_c, 9, 69, 92
1, 68929, Note_off_c, 9, 36, 112
1, 68929, Note_off_c, 9, 40, 93
1, 68929, Note_off_c, 9, 62, 94
1, 68930, Note_off_c, 3, 79, 111
1, 68968, Note_off_c, 1, 33, 99
1, 68979, Note_on_c, 9, 69, 50
1, 68980, Note_off_c, 2, 67, 102
1, 68980, Note_on_c, 2, 67, 98
1, 68980, Note_off_c, 9, 69, 92
1, 69001, Note_off_c, 2, 67, 110
1, 69018, Note_off_c, 12, 55, 71
1, 69023, Note_on_c, 9, 42, 124
1, 69023, Note_on_c, 9, 69, 100
1, 69024, Note_off_c, 9, 42, 104
1, 69024, Note_on_c, 1, 45, 119
1, 69024, Note_on_c, 9, 64, 102
1, 69024, Note_off_c, 9, 69, 92
1, 69024, Note_on_c, 2, 76, 104
1, 69025, Note_off_c, 9, 64, 94
1, 69051, Note_off_c, 1, 45, 106
1, 69064, Note_off_c, 12, 52, 108
1, 69065, Note_off_c, 12, 60, 111
1, 69072, Note_on_c, 9, 64, 98
1, 69073, Note_on_c, 12, 53, 76
1, 69073, Note_off_c, 9, 64, 102
1, 69075, Note_on_c, 9, 69, 50
1, 69076, Note_off_c, 2, 76, 106
1, 69076, Note_off_c, 9, 69, 92
1, 69076, Note_on_c, 2, 76, 104
1, 69096, Note_on_c, 12, 58, 86
1, 69107, Note_off_c, 2, 76, 110
1, 69114, Note_on_c, 12, 62, 97
1, 69114, Note_off_c, 0, 64, 111
1, 69118, Note_off_c, 0, 52, 84
1, 69118, Note_off_c, 0, 67, 111
1, 69118, Note_off_c, 0, 72, 108
1, 69119, Note_on_c, 9, 42, 100
1, 69119, Note_on_c, 9, 69, 96
1, 69120, Note_on_c, 1, 31, 113
1, 69120, Note_on_c, 9, 36, 124
1, 69120, Note_off_c, 9, 42, 92
1, 69120, Note_on_c, 0, 53, 81
1, 69120, Note_on_c, 0, 58, 71
1, 69120, Note_on_c, 0, 62, 84
1, 69120, Note_on_c, 9, 63, 110
1, 69120, Note_off_c, 9, 69, 80
1, 69120, Note_on_c, 0, 77, 100
1, 69120, Note_on_c, 0, 81, 99
1, 69120, Note_on_c, 3, 84, 124
1, 69121, Note_off_c, 9, 36, 76
1, 69121, Note_off_c, 9, 63, 82
1, 69129, Note_on_c, 12, 69, 92
1, 69165, Note_off_c, 1, 31, 94
1, 69171, Note_on_c, 9, 69, 50
1, 69172, Note_off_c, 9, 69, 80
1, 69215, Note_on_c, 9, 42, 120
1, 69215, Note_on_c, 9, 69, 88
1, 69216, Note_off_c, 9, 42, 92
1, 69216, Note_on_c, 1, 43, 111
1, 69216, Note_on_c, 9, 63, 106
1, 69216, Note_off_c, 9, 69, 76
1, 69217, Note_off_c, 9, 63, 74
1, 69238, Note_off_c, 3, 84, 108
1, 69248, Note_on_c, 0, 79, 99
1, 69248, Note_on_c, 0, 82, 98
1, 69250, Note_off_c, 1, 43, 94
1, 69263, Note_off_c, 0, 81, 102
1, 69264, Note_on_c, 1, 43, 111
1, 69264, Note_off_c, 0, 77, 99
1, 69264, Note_on_c, 3, 81, 122
1, 69267, Note_on_c, 9, 69, 50
1, 69268, Note_off_c, 9, 69, 76
1, 69298, Note_off_c, 1, 43, 94
1, 69311, Note_on_c, 9, 42, 124
1, 69311, Note_on_c, 9, 69, 104
1, 69312, Note_on_c, 1, 33, 104
1, 69312, Note_on_c, 9, 36, 124
1, 69312, Note_on_c, 9, 40, 109
1, 69312, Note_off_c, 9, 42, 96
1, 69312, Note_on_c, 2, 62, 108
1, 69312, Note_on_c, 9, 62, 114
1, 69312, Note_on_c, 2, 65, 113
1, 69312, Note_off_c, 9, 69, 68
1, 69312, Note_on_c, 2, 70, 122
1, 69313, Note_off_c, 9, 36, 96
1, 69313, Note_off_c, 9, 40, 81
1, 69313, Note_off_c, 9, 62, 98
1, 69363, Note_on_c, 9, 69, 50
1, 69364, Note_off_c, 9, 69, 68
1, 69367, Note_off_c, 1, 33, 91
1, 69376, Note_on_c, 0, 81, 96
1, 69376, Note_on_c, 0, 84, 90
1, 69381, Note_off_c, 0, 82, 97
1, 69383, Note_off_c, 0, 79, 102
1, 69390, Note_off_c, 3, 81, 108
1, 69407, Note_on_c, 9, 42, 124
1, 69407, Note_on_c, 9, 69, 96
1, 69408, Note_off_c, 9, 42, 100
1, 69408, Note_on_c, 1, 45, 111
1, 69408, Note_on_c, 9, 64, 106
1, 69408, Note_off_c, 9, 69, 68
1, 69408, Note_on_c, 3, 79, 119
1, 69409, Note_off_c, 9, 64, 86
1, 69431, Note_off_c, 2, 62, 35
1, 69436, Note_off_c, 2, 65, 76
1, 69443, Note_off_c, 1, 45, 106
1, 69456, Note_on_c, 1, 45, 111
1, 69456, Note_on_c, 9, 64, 98
1, 69457, Note_off_c, 9, 64, 94
1, 69459, Note_on_c, 9, 69, 50
1, 69460, Note_on_c, 2, 62, 97
1, 69460, Note_off_c, 9, 69, 68
1, 69461, Note_off_c, 2, 70, 106
1, 69469, Note_off_c, 3, 79, 106
1, 69491, Note_off_c, 1, 45, 106
1, 69493, Note_off_c, 0, 84, 108
1, 69503, Note_on_c, 9, 42, 76
1, 69503, Note_off_c, 2, 62, 108
1, 69503, Note_on_c, 9, 69, 104
1, 69504, Note_on_c, 1, 34, 114
1, 69504, Note_on_c, 9, 36, 124
1, 69504, Note_off_c, 9, 42, 100
1, 69504, Note_on_c, 9, 63, 114
1, 69504, Note_on_c, 2, 65, 119
1, 69504, Note_off_c, 9, 69, 84
1, 69504, Note_on_c, 2, 70, 117
1, 69504, Note_on_c, 0, 77, 111
1, 69504, Note_on_c, 3, 81, 122
1, 69505, Note_off_c, 9, 36, 108
1, 69505, Note_off_c, 9, 63, 86
1, 69522, Note_off_c, 2, 70, 104
1, 69533, Note_off_c, 2, 65, 108
1, 69555, Note_off_c, 1, 34, 84
1, 69555, Note_on_c, 9, 69, 50
1, 69556, Note_off_c, 9, 69, 84
1, 69563, Note_off_c, 3, 81, 110
1, 69599, Note_on_c, 9, 42, 124
1, 69599, Note_on_c, 9, 69, 100
1, 69600, Note_off_c, 9, 42, 100
1, 69600, Note_on_c, 1, 46, 104
1, 69600, Note_on_c, 9, 63, 114
1, 69600, Note_off_c, 9, 69, 92
1, 69600, Note_on_c, 3, 81, 122
1, 69601, Note_off_c, 9, 63, 90
1, 69636, Note_off_c, 1, 46, 91
1, 69649, Note_off_c, 3, 81, 113
1, 69651, Note_on_c, 9, 69, 50
1, 69652, Note_off_c, 9, 69, 92
1, 69695, Note_on_c, 9, 42, 84
1, 69695, Note_on_c, 9, 69, 100
1, 69696, Note_on_c, 9, 36, 124
1, 69696, Note_on_c, 9, 40, 109
1, 69696, Note_off_c, 9, 42, 96
1, 69696, Note_on_c, 9, 62, 114
1, 69696, Note_on_c, 2, 65, 120
1, 69696, Note_off_c, 9, 69, 92
1, 69696, Note_on_c, 2, 70, 120
1, 69697, Note_off_c, 9, 36, 112
1, 69697, Note_off_c, 9, 40, 93
1, 69697, Note_off_c, 9, 62, 94
1, 69713, Note_off_c, 2, 70, 94
1, 69716, Note_off_c, 2, 65, 104
1, 69744, Note_on_c, 3, 81, 110
1, 69747, Note_on_c, 9, 69, 50
1, 69748, Note_off_c, 9, 69, 92
1, 69764, Note_off_c, 3, 81, 110
1, 69774, Note_off_c, 12, 69, 13
1, 69791, Note_on_c, 9, 42, 124
1, 69791, Note_on_c, 9, 69, 100
1, 69792, Note_off_c, 9, 42, 100
1, 69792, Note_on_c, 1, 46, 104
1, 69792, Note_on_c, 9, 64, 102
1, 69792, Note_off_c, 9, 69, 92
1, 69792, Note_on_c, 3, 81, 111
1, 69793, Note_off_c, 9, 64, 94
1, 69803, Note_off_c, 12, 58, 81
1, 69809, Note_off_c, 1, 46, 99
1, 69822, Note_off_c, 3, 81, 108
1, 69833, Note_off_c, 12, 53, 97
1, 69834, Note_off_c, 12, 62, 104
1, 69840, Note_on_c, 1, 46, 113
1, 69840, Note_on_c, 9, 64, 98
1, 69840, Note_on_c, 3, 81, 114
1, 69841, Note_off_c, 9, 64, 102
1, 69843, Note_on_c, 9, 69, 50
1, 69844, Note_off_c, 9, 69, 92
1, 69849, Note_on_c, 12, 53, 94
1, 69859, Pitch_bend_c, 2, 7552
1, 69864, Note_off_c, 0, 77, 81
1, 69864, Note_off_c, 1, 46, 84
1, 69867, Note_off_c, 0, 58, 88
1, 69867, Pitch_bend_c, 2, 5760
1, 69868, Note_off_c, 3, 81, 108
1, 69872, Note_on_c, 12, 58, 104
1, 69874, Pitch_bend_c, 2, 3456
1, 69877, Note_off_c, 0, 62, 104
1, 69878, Note_off_c, 0, 53, 84
1, 69882, Pitch_bend_c, 2, 1152
1, 69883, Note_off_c, 0, 81, 108
1, 69887, Note_on_c, 9, 42, 92
1, 69887, Note_on_c, 9, 69, 96
1, 69888, Note_on_c, 1, 34, 114
1, 69888, Note_on_c, 9, 36, 124
1, 69888, Note_off_c, 9, 42, 100
1, 69888, Note_on_c, 0, 53, 94
1, 69888, Note_on_c, 0, 58, 94
1, 69888, Note_on_c, 9, 63, 110
1, 69888, Note_on_c, 0, 65, 94
1, 69888, Note_off_c, 9, 69, 80
1, 69888, Note_on_c, 2, 74, 114
1, 69888, Note_on_c, 2, 79, 116
1, 69888, Note_on_c, 3, 84, 120
1, 69889, Note_off_c, 9, 36, 76
1, 69889, Note_off_c, 9, 63, 82
1, 69889, Note_on_c, 0, 70, 111
1, 69889, Pitch_bend_c, 2, 512
1, 69890, Note_on_c, 0, 72, 110
1, 69891, Note_on_c, 12, 62, 96
1, 69897, Pitch_bend_c, 2, 4608
1, 69902, Note_on_c, 0, 74, 104
1, 69904, Pitch_bend_c, 2, 6656
1, 69911, Pitch_bend_c, 2, 7552
1, 69912, Note_off_c, 0, 72, 102
1, 69918, Pitch_bend_c, 2, 7936
1, 69924, Note_off_c, 1, 34, 102
1, 69925, Pitch_bend_c, 2, 8192
1, 69939, Note_on_c, 9, 69, 50
1, 69940, Note_off_c, 9, 69, 80
1, 69963, Note_off_c, 3, 84, 106
1, 69983, Note_on_c, 9, 42, 124
1, 69983, Note_on_c, 9, 69, 88
1, 69984, Note_off_c, 9, 42, 96
1, 69984, Note_on_c, 1, 46, 113
1, 69984, Note_on_c, 9, 63, 106
1, 69984, Note_off_c, 9, 69, 76
1, 69984, Note_on_c, 3, 81, 122
1, 69985, Note_off_c, 9, 63, 74
1, 70012, Note_off_c, 2, 74, 71
1, 70017, Note_off_c, 1, 46, 97
1, 70021, Note_off_c, 2, 79, 97
1, 70032, Note_off_c, 3, 81, 110
1, 70035, Note_on_c, 9, 69, 50
1, 70036, Note_off_c, 9, 69, 76
1, 70036, Note_on_c, 2, 79, 114
1, 70062, Note_off_c, 2, 79, 102
1, 70079, Note_on_c, 9, 42, 112
1, 70079, Note_on_c, 9, 69, 104
1, 70080, Note_on_c, 9, 36, 124
1, 70080, Note_on_c, 9, 40, 109
1, 70080, Note_off_c, 9, 42, 100
1, 70080, Note_on_c, 9, 62, 114
1, 70080, Note_off_c, 9, 69, 68
1, 70080, Note_on_c, 2, 72, 120
1, 70080, Note_on_c, 2, 77, 122
1, 70080, Note_on_c, 3, 81, 122
1, 70081, Note_off_c, 9, 36, 96
1, 70081, Note_off_c, 9, 40, 81
1, 70081, Note_off_c, 9, 62, 98
1, 70097, Note_off_c, 2, 77, 106
1, 70105, Note_off_c, 2, 72, 113
1, 70131, Note_on_c, 9, 69, 50
1, 70132, Note_off_c, 9, 69, 68
1, 70150, Note_off_c, 3, 81, 102
1, 70175, Note_on_c, 9, 42, 124
1, 70175, Note_on_c, 9, 69, 96
1, 70176, Note_off_c, 9, 42, 100
1, 70176, Note_on_c, 1, 46, 111
1, 70176, Note_on_c, 9, 64, 106
1, 70176, Note_off_c, 9, 69, 68
1, 70176, Note_on_c, 3, 79, 117
1, 70177, Note_off_c, 9, 64, 86
1, 70194, Note_off_c, 1, 46, 97
1, 70224, Note_on_c, 9, 64, 98
1, 70225, Note_off_c, 9, 64, 94
1, 70227, Note_off_c, 12, 58, 84
1, 70227, Note_on_c, 9, 69, 50
1, 70228, Note_off_c, 9, 69, 68
1, 70234, Note_off_c, 3, 79, 106
1, 70236, Note_on_c, 12, 52, 88
1, 70241, Note_off_c, 12, 62, 94
1, 70249, Note_off_c, 12, 53, 91
1, 70266, Note_on_c, 12, 55, 101
1, 70267, Note_off_c, 0, 70, 60
1, 70270, Note_off_c, 0, 65, 102
1, 70271, Note_on_c, 9, 42, 88
1, 70271, Note_off_c, 0, 53, 102
1, 70271, Note_off_c, 0, 58, 102
1, 70271, Note_on_c, 9, 69, 104
1, 70272, Note_on_c, 1, 34, 114
1, 70272, Note_on_c, 9, 36, 124
1, 70272, Note_off_c, 9, 42, 100
1, 70272, Note_on_c, 0, 52, 97
1, 70272, Note_on_c, 9, 63, 114
1, 70272, Note_on_c, 0, 64, 99
1, 70272, Note_on_c, 0, 67, 99
1, 70272, Note_on_c, 2, 67, 97
1, 70272, Note_off_c, 9, 69, 84
1, 70272, Note_on_c, 0, 72, 102
1, 70272, Note_on_c, 2, 72, 108
1, 70272, Note_on_c, 3, 81, 122
1, 70273, Note_off_c, 9, 36, 108
1, 70273, Note_off_c, 9, 63, 86
1, 70278, Note_on_c, 12, 60, 97
1, 70278, Note_off_c, 0, 74, 13
1, 70289, Note_off_c, 2, 67, 71
1, 70290, Note_off_c, 2, 72, 84
1, 70306, Note_off_c, 1, 34, 104
1, 70323, Note_on_c, 9, 69, 50
1, 70324, Note_off_c, 9, 69, 84
1, 70367, Note_on_c, 9, 46, 124
1, 70367, Note_on_c, 9, 69, 100
1, 70368, Note_off_c, 9, 46, 100
1, 70368, Note_on_c, 1, 46, 113
1, 70368, Note_on_c, 9, 63, 114
1, 70368, Note_on_c, 2, 67, 97
1, 70368, Note_off_c, 9, 69, 92
1, 70368, Note_on_c, 2, 72, 108
1, 70369, Note_off_c, 9, 63, 90
1, 70385, Note_off_c, 2, 67, 71
1, 70386, Note_off_c, 2, 72, 84
1, 70396, Note_off_c, 3, 81, 110
1, 70397, Note_off_c, 1, 46, 104
1, 70416, Note_on_c, 3, 81, 116
1, 70419, Note_on_c, 9, 69, 50
1, 70420, Note_off_c, 9, 69, 92
1, 70444, Note_off_c, 3, 81, 113
1, 70463, Note_on_c, 9, 44, 89
1, 70463, Note_on_c, 9, 69, 100
1, 70464, Note_on_c, 1, 33, 102
1, 70464, Note_on_c, 9, 36, 124
1, 70464, Note_on_c, 9, 40, 106
1, 70464, Note_off_c, 9, 44, 100
1, 70464, Note_on_c, 9, 62, 114
1, 70464, Note_on_c, 2, 67, 60
1, 70464, Note_off_c, 9, 69, 92
1, 70464, Note_on_c, 2, 72, 82
1, 70465, Note_off_c, 9, 36, 112
1, 70465, Note_off_c, 9, 40, 93
1, 70465, Note_off_c, 9, 62, 94
1, 70504, Note_off_c, 1, 33, 99
1, 70512, Note_off_c, 2, 67, 71
1, 70512, Note_on_c, 2, 67, 78
1, 70512, Note_off_c, 2, 72, 84
1, 70512, Note_on_c, 2, 72, 92
1, 70515, Note_on_c, 9, 69, 50
1, 70516, Note_off_c, 9, 69, 92
1, 70553, Pitch_bend_c, 12, 8064
1, 70554, Note_off_c, 12, 55, 71
1, 70559, Note_on_c, 9, 69, 100
1, 70560, Note_on_c, 2, 57, 79
1, 70560, Note_on_c, 0, 61, 120
1, 70560, Note_off_c, 0, 61, 117
1, 70560, Note_on_c, 2, 62, 87
1, 70560, Note_on_c, 3, 84, 123
1, 70560, Pitch_bend_c, 12, 7680
1, 70560, Note_on_c, 12, 62, 120
1, 70560, Note_on_c, 12, 67, 119
1, 70560, Note_on_c, 9, 40, 110
1, 70560, Note_on_c, 1, 45, 119
1, 70560, Note_on_c, 9, 64, 102
1, 70560, Note_off_c, 2, 67, 71
1, 70560, Note_on_c, 2, 67, 97
1, 70560, Note_off_c, 2, 72, 84
1, 70560, Note_off_c, 9, 69, 92
1, 70560, Note_on_c, 2, 72, 108
1, 70561, Note_off_c, 2, 57, 104
1, 70561, Note_off_c, 2, 62, 104
1, 70561, Note_off_c, 9, 40, 93
1, 70561, Note_off_c, 9, 64, 94
1, 70565, Note_on_c, 0, 67, 114
1, 70567, Pitch_bend_c, 12, 4096
1, 70570, Note_on_c, 0, 62, 120
1, 70574, Pitch_bend_c, 12, 2176
1, 70577, Note_off_c, 2, 67, 71
1, 70578, Note_off_c, 2, 72, 84
1, 70581, Note_on_c, 0, 61, 99
1, 70581, Pitch_bend_c, 12, 1024
1, 70587, Note_off_c, 1, 45, 106
1, 70591, Pitch_bend_c, 12, 4864
1, 70593, Note_off_c, 0, 61, 91
1, 70598, Pitch_bend_c, 12, 6784
1, 70600, Note_off_c, 12, 52, 108
1, 70601, Note_off_c, 12, 60, 111
1, 70605, Pitch_bend_c, 12, 7552
1, 70608, Note_on_c, 9, 40, 127
1, 70608, Note_on_c, 9, 64, 98
1, 70609, Note_off_c, 9, 40, 93
1, 70609, Note_off_c, 9, 64, 102
1, 70611, Note_on_c, 9, 69, 50
1, 70612, Note_on_c, 2, 57, 108
1, 70612, Note_off_c, 2, 57, 114
1, 70612, Note_on_c, 2, 57, 115
1, 70612, Pitch_bend_c, 12, 7936
1, 70612, Note_off_c, 9, 69, 92
1, 70615, Note_off_c, 2, 57, 106
1, 70619, Pitch_bend_c, 12, 8192
1, 70650, Note_off_c, 0, 64, 111
1, 70654, Note_off_c, 0, 52, 84
1, 70654, Note_off_c, 0, 67, 111
1, 70654, Note_off_c, 0, 72, 108
1, 70655, Note_on_c, 9, 69, 96
1, 70656, Note_on_c, 9, 36, 124
1, 70656, Note_on_c, 1, 38, 116
1, 70656, Note_on_c, 9, 49, 124
1, 70656, Note_on_c, 11, 50, 116
1, 70656, Note_on_c, 2, 57, 122
1, 70656, Note_on_c, 2, 62, 124
1, 70656, Note_on_c, 9, 63, 120
1, 70656, Note_on_c, 2, 65, 123
1, 70656, Note_off_c, 9, 69, 80
1, 70657, Note_off_c, 9, 36, 76
1, 70657, Note_off_c, 9, 49, 100
1, 70657, Note_off_c, 9, 63, 92
1, 70691, Note_off_c, 2, 57, 84
1, 70691, Note_off_c, 2, 62, 111
1, 70703, Note_off_c, 0, 67, 104
1, 70707, Note_off_c, 0, 62, 108
1, 70707, Note_off_c, 2, 65, 108
1, 70707, Note_on_c, 9, 69, 50
1, 70708, Note_off_c, 9, 69, 80
1, 70717, Note_off_c, 3, 84, 110
1, 70721, Note_off_c, 1, 38, 94
1, 70727, Note_off_c, 12, 62, 108
1, 70727, Note_off_c, 12, 67, 108
1, 70751, Note_on_c, 9, 69, 88
1, 70752, Note_on_c, 1, 50, 114
1, 70752, Note_on_c, 0, 57, 108
1, 70752, Note_on_c, 2, 57, 113
1, 70752, Note_on_c, 0, 60, 110
1, 70752, Note_on_c, 12, 60, 110
1, 70752, Note_on_c, 2, 62, 117
1, 70752, Note_on_c, 9, 63, 116
1, 70752, Note_on_c, 0, 65, 110
1, 70752, Note_on_c, 12, 65, 110
1, 70752, Note_off_c, 9, 69, 76
1, 70752, Note_on_c, 3, 81, 122
1, 70753, Note_off_c, 9, 63, 84
1, 70767, Note_off_c, 2, 62, 119
1, 70768, Note_off_c, 1, 50, 116
1, 70771, Note_off_c, 0, 60, 111
1, 70772, Note_off_c, 0, 65, 111
1, 70775, Note_off_c, 12, 60, 102
1, 70777, Note_off_c, 0, 57, 94
1, 70778, Note_off_c, 12, 65, 94
1, 70779, Note_off_c, 2, 57, 104
1, 70785, Note_off_c, 3, 81, 111
1, 70800, Note_on_c, 1, 50, 117
1, 70803, Note_on_c, 9, 69, 50
1, 70804, Note_off_c, 9, 69, 76
1, 70820, Note_off_c, 1, 50, 102
1, 70847, Note_on_c, 9, 42, 7
1, 70847, Note_on_c, 9, 69, 104
1, 70848, Note_on_c, 9, 36, 124
1, 70848, Note_on_c, 1, 38, 117
1, 70848, Note_on_c, 9, 40, 124
1, 70848, Note_off_c, 9, 42, 88
1, 70848, Note_on_c, 0, 57, 111
1, 70848, Note_on_c, 2, 57, 122
1, 70848, Note_on_c, 0, 60, 119
1, 70848, Note_on_c, 12, 60, 113
1, 70848, Note_on_c, 2, 62, 124
1, 70848, Note_on_c, 9, 62, 124
1, 70848, Note_on_c, 0, 65, 117
1, 70848, Note_on_c, 2, 65, 124
1, 70848, Note_on_c, 12, 65, 113
1, 70848, Note_off_c, 9, 69, 68
1, 70848, Note_on_c, 3, 77, 123
1, 70849, Note_off_c, 9, 36, 96
1, 70849, Note_off_c, 9, 40, 96
1, 70849, Note_off_c, 9, 62, 108
1, 70878, Note_off_c, 2, 57, 108
1, 70880, Note_off_c, 2, 62, 111
1, 70885, Note_off_c, 3, 77, 113
1, 70893, Note_off_c, 2, 65, 108
1, 70899, Note_on_c, 9, 69, 50
1, 70900, Note_off_c, 9, 69, 68
1, 70917, Note_off_c, 1, 38, 97
1, 70943, Note_on_c, 9, 42, 112
1, 70943, Note_off_c, 12, 60, 104
1, 70943, Note_on_c, 9, 69, 96
1, 70944, Note_off_c, 9, 42, 88
1, 70944, Note_on_c, 1, 50, 114
1, 70944, Note_on_c, 12, 57, 104
1, 70944, Note_on_c, 0, 62, 117
1, 70944, Note_on_c, 12, 62, 111
1, 70944, Note_on_c, 9, 64, 116
1, 70944, Note_off_c, 9, 69, 68
1, 70944, Note_on_c, 3, 74, 119
1, 70945, Note_off_c, 9, 64, 96
1, 70950, Note_off_c, 0, 57, 104
1, 70954, Note_off_c, 0, 60, 102
1, 70958, Note_off_c, 0, 65, 104
1, 70961, Note_off_c, 1, 50, 114
1, 70970, Note_off_c, 12, 65, 97
1, 70971, Note_off_c, 0, 62, 106
1, 70982, Note_off_c, 3, 74, 104
1, 70992, Note_on_c, 1, 50, 114
1, 70992, Note_on_c, 9, 64, 108
1, 70993, Note_off_c, 9, 64, 104
1, 70995, Note_on_c, 9, 69, 50
1, 70996, Note_off_c, 9, 69, 68
1, 71013, Note_off_c, 1, 50, 94
1, 71039, Note_on_c, 9, 42, 52
1, 71039, Note_on_c, 9, 69, 104
1, 71040, Note_on_c, 9, 36, 124
1, 71040, Note_on_c, 1, 38, 122
1, 71040, Note_off_c, 9, 42, 92
1, 71040, Note_on_c, 0, 57, 113
1, 71040, Note_on_c, 2, 57, 122
1, 71040, Note_on_c, 0, 60, 119
1, 71040, Note_on_c, 12, 60, 106
1, 71040, Note_on_c, 2, 62, 124
1, 71040, Note_on_c, 9, 63, 124
1, 71040, Note_on_c, 0, 65, 119
1, 71040, Note_on_c, 2, 65, 124
1, 71040, Note_on_c, 12, 65, 111
1, 71040, Note_off_c, 9, 69, 84
1, 71040, Note_on_c, 3, 77, 123
1, 71041, Note_off_c, 9, 36, 108
1, 71041, Note_off_c, 9, 63, 96
1, 71045, Note_off_c, 12, 57, 108
1, 71057, Note_off_c, 12, 62, 97
1, 71071, Note_off_c, 2, 57, 108
1, 71073, Note_off_c, 2, 62, 111
1, 71091, Note_on_c, 9, 69, 50
1, 71092, Note_off_c, 9, 69, 84
1, 71105, Note_off_c, 1, 38, 97
1, 71117, Note_off_c, 2, 65, 13
1, 71135, Note_on_c, 9, 42, 124
1, 71135, Note_on_c, 9, 69, 100
1, 71136, Note_off_c, 9, 42, 92
1, 71136, Note_on_c, 1, 50, 113
1, 71136, Note_on_c, 9, 63, 124
1, 71136, Note_off_c, 9, 69, 92
1, 71137, Note_off_c, 9, 63, 100
1, 71153, Note_off_c, 1, 50, 113
1, 71184, Note_on_c, 1, 50, 108
1, 71187, Note_on_c, 9, 69, 50
1, 71188, Note_on_c, 2, 57, 99
1, 71188, Note_off_c, 9, 69, 92
1, 71208, Note_off_c, 1, 50, 97
1, 71214, Note_off_c, 2, 57, 102
1, 71220, Note_off_c, 3, 77, 110
1, 71224, Note_off_c, 12, 60, 104
1, 71227, Note_off_c, 12, 65, 106
1, 71230, Note_off_c, 0, 57, 108
1, 71231, Note_on_c, 9, 42, 84
1, 71231, Note_off_c, 0, 60, 110
1, 71231, Note_on_c, 9, 69, 100
1, 71232, Note_on_c, 9, 36, 124
1, 71232, Note_on_c, 1, 38, 117
1, 71232, Note_on_c, 9, 40, 124
1, 71232, Note_off_c, 9, 42, 96
1, 71232, Note_on_c, 2, 57, 117
1, 71232, Note_on_c, 12, 57, 114
1, 71232, Note_on_c, 0, 62, 116
1, 71232, Note_on_c, 2, 62, 124
1, 71232, Note_on_c, 12, 62, 104
1, 71232, Note_on_c, 9, 62, 124
1, 71232, Note_on_c, 2, 65, 122
1, 71232, Note_off_c, 9, 69, 92
1, 71232, Note_on_c, 3, 74, 114
1, 71233, Note_off_c, 9, 36, 112
1, 71233, Note_off_c, 9, 40, 108
1, 71233, Note_off_c, 9, 62, 104
1, 71236, Note_off_c, 0, 65, 110
1, 71254, Note_off_c, 0, 62, 104
1, 71258, Note_off_c, 12, 62, 94
1, 71260, Note_off_c, 2, 57, 110
1, 71260, Note_off_c, 2, 62, 111
1, 71269, Note_off_c, 3, 74, 104
1, 71283, Note_on_c, 9, 69, 50
1, 71284, Note_off_c, 9, 69, 92
1, 71288, Note_off_c, 2, 65, 91
1, 71292, Note_off_c, 12, 57, 99
1, 71297, Pitch_bend_c, 12, 7808
1, 71302, Note_off_c, 1, 38, 102
1, 71307, Pitch_bend_c, 12, 6400
1, 71314, Pitch_bend_c, 12, 3584
1, 71321, Pitch_bend_c, 12, 1792
1, 71323, Note_on_c, 0, 61, 117
1, 71326, Note_on_c, 0, 67, 114
1, 71327, Note_on_c, 9, 42, 124
1, 71327, Note_on_c, 9, 69, 100
1, 71328, Note_off_c, 9, 42, 96
1, 71328, Note_on_c, 1, 50, 116
1, 71328, Note_on_c, 12, 62, 119
1, 71328, Note_on_c, 9, 64, 112
1, 71328, Note_on_c, 12, 67, 116
1, 71328, Note_off_c, 9, 69, 92
1, 71328, Note_on_c, 3, 84, 122
1, 71329, Note_off_c, 9, 64, 104
1, 71330, Pitch_bend_c, 12, 1280
1, 71337, Note_on_c, 0, 62, 119
1, 71341, Pitch_bend_c, 12, 5888
1, 71342, Note_off_c, 0, 61, 111
1, 71346, Note_off_c, 1, 50, 113
1, 71348, Pitch_bend_c, 12, 7424
1, 71355, Pitch_bend_c, 12, 7808
1, 71364, Pitch_bend_c, 12, 8192
1, 71376, Note_on_c, 1, 50, 119
1, 71376, Note_on_c, 9, 64, 108
1, 71377, Note_off_c, 9, 64, 112
1, 71379, Note_on_c, 9, 69, 50
1, 71380, Note_off_c, 9, 69, 92
1, 71394, Note_off_c, 1, 50, 97
1, 71423, Note_on_c, 9, 42, 76
1, 71423, Note_on_c, 9, 69, 96
1, 71424, Note_on_c, 9, 36, 124
1, 71424, Note_on_c, 1, 38, 120
1, 71424, Note_off_c, 9, 42, 100
1, 71424, Note_on_c, 2, 57, 122
1, 71424, Note_on_c, 2, 62, 124
1, 71424, Note_on_c, 9, 63, 120
1, 71424, Note_on_c, 2, 65, 124
1, 71424, Note_off_c, 9, 69, 80
1, 71425, Note_off_c, 9, 36, 76
1, 71425, Note_off_c, 9, 63, 92
1, 71454, Note_off_c, 2, 62, 111
1, 71456, Note_off_c, 2, 57, 110
1, 71458, Note_off_c, 2, 65, 110
1, 71471, Note_off_c, 3, 84, 110
1, 71475, Note_on_c, 9, 69, 50
1, 71476, Note_off_c, 9, 69, 80
1, 71477, Note_off_c, 0, 67, 106
1, 71482, Note_off_c, 0, 62, 110
1, 71489, Note_off_c, 1, 38, 102
1, 71519, Note_on_c, 9, 42, 124
1, 71519, Note_on_c, 9, 69, 88
1, 71520, Note_off_c, 9, 42, 100
1, 71520, Note_on_c, 1, 50, 116
1, 71520, Note_on_c, 0, 57, 108
1, 71520, Note_on_c, 2, 57, 111
1, 71520, Note_on_c, 0, 60, 113
1, 71520, Note_on_c, 12, 60, 113
1, 71520, Note_on_c, 2, 62, 119
1, 71520, Note_on_c, 9, 63, 116
1, 71520, Note_on_c, 0, 65, 114
1, 71520, Note_on_c, 2, 65, 117
1, 71520, Note_on_c, 12, 65, 111
1, 71520, Note_off_c, 9, 69, 76
1, 71520, Note_on_c, 3, 81, 119
1, 71521, Note_off_c, 9, 63, 84
1, 71527, Note_off_c, 12, 62, 108
1, 71533, Note_off_c, 12, 67, 108
1, 71538, Note_off_c, 0, 60, 113
1, 71538, Note_off_c, 1, 50, 111
1, 71540, Note_off_c, 12, 60, 99
1, 71544, Note_off_c, 0, 57, 97
1, 71544, Note_off_c, 12, 65, 97
1, 71545, Note_off_c, 2, 57, 102
1, 71547, Note_off_c, 2, 62, 113
1, 71547, Note_off_c, 3, 81, 113
1, 71549, Note_off_c, 0, 65, 106
1, 71551, Note_off_c, 2, 65, 108
1, 71568, Note_on_c, 1, 50, 120
1, 71571, Note_on_c, 9, 69, 50
1, 71572, Note_off_c, 9, 69, 76
1, 71583, Note_off_c, 1, 50, 111
1, 71615, Note_on_c, 9, 42, 80
1, 71615, Note_on_c, 9, 69, 104
1, 71616, Note_on_c, 9, 36, 124
1, 71616, Note_on_c, 1, 38, 122
1, 71616, Note_on_c, 9, 40, 124
1, 71616, Note_off_c, 9, 42, 96
1, 71616, Note_on_c, 0, 57, 110
1, 71616, Note_on_c, 2, 57, 119
1, 71616, Note_on_c, 0, 60, 120
1, 71616, Note_on_c, 12, 60, 113
1, 71616, Note_on_c, 2, 62, 124
1, 71616, Note_on_c, 9, 62, 124
1, 71616, Note_on_c, 0, 65, 117
1, 71616, Note_on_c, 2, 65, 124
1, 71616, Note_on_c, 12, 65, 114
1, 71616, Note_off_c, 9, 69, 68
1, 71616, Note_on_c, 3, 77, 122
1, 71617, Note_off_c, 9, 36, 96
1, 71617, Note_off_c, 9, 40, 96
1, 71617, Note_off_c, 9, 62, 108
1, 71646, Note_off_c, 2, 57, 108
1, 71646, Note_off_c, 2, 62, 113
1, 71649, Note_off_c, 3, 77, 113
1, 71654, Note_off_c, 2, 65, 111
1, 71667, Note_on_c, 9, 69, 50
1, 71668, Note_off_c, 9, 69, 68
1, 71689, Note_off_c, 1, 38, 102
1, 71703, Note_off_c, 0, 57, 102
1, 71704, Note_off_c, 12, 60, 108
1, 71711, Note_on_c, 9, 42, 124
1, 71711, Note_on_c, 9, 69, 96
1, 71712, Note_off_c, 9, 42, 96
1, 71712, Note_on_c, 1, 50, 116
1, 71712, Note_on_c, 12, 57, 106
1, 71712, Note_on_c, 0, 62, 113
1, 71712, Note_on_c, 12, 62, 108
1, 71712, Note_on_c, 9, 64, 116
1, 71712, Note_off_c, 9, 69, 68
1, 71712, Note_on_c, 3, 74, 120
1, 71713, Note_off_c, 9, 64, 96
1, 71721, Note_off_c, 0, 60, 108
1, 71722, Note_off_c, 0, 65, 106
1, 71729, Note_off_c, 1, 50, 113
1, 71735, Note_off_c, 12, 65, 102
1, 71737, Note_off_c, 0, 62, 104
1, 71755, Note_off_c, 3, 74, 104
1, 71760, Note_on_c, 1, 50, 116
1, 71760, Note_on_c, 9, 64, 108
1, 71761, Note_off_c, 9, 64, 104
1, 71763, Note_on_c, 9, 69, 50
1, 71764, Note_off_c, 9, 69, 68
1, 71781, Note_off_c, 1, 50, 99
1, 71807, Note_on_c, 9, 42, 92
1, 71807, Note_on_c, 9, 69, 104
1, 71808, Note_on_c, 9, 36, 124
1, 71808, Note_on_c, 1, 38, 122
1, 71808, Note_off_c, 9, 42, 100
1, 71808, Note_on_c, 0, 57, 111
1, 71808, Note_on_c, 2, 57, 120
1, 71808, Note_on_c, 0, 60, 117
1, 71808, Note_on_c, 12, 60, 110
1, 71808, Note_on_c, 2, 62, 123
1, 71808, Note_on_c, 9, 63, 124
1, 71808, Note_on_c, 0, 65, 119
1, 71808, Note_on_c, 2, 65, 122
1, 71808, Note_on_c, 12, 65, 114
1, 71808, Note_off_c, 9, 69, 84
1, 71808, Note_on_c, 3, 77, 123
1, 71809, Note_off_c, 9, 36, 108
1, 71809, Note_off_c, 9, 63, 96
1, 71812, Note_off_c, 12, 57, 106
1, 71820, Note_off_c, 12, 62, 106
1, 71833, Note_off_c, 2, 62, 113
1, 71837, Note_off_c, 2, 57, 108
1, 71837, Note_off_c, 2, 65, 111
1, 71859, Note_on_c, 9, 69, 50
1, 71860, Note_off_c, 9, 69, 84
1, 71866, Note_off_c, 1, 38, 91
1, 71903, Note_on_c, 9, 42, 124
1, 71903, Note_on_c, 9, 69, 100
1, 71904, Note_off_c, 9, 42, 96
1, 71904, Note_on_c, 1, 50, 114
1, 71904, Note_on_c, 2, 57, 113
1, 71904, Note_on_c, 2, 62, 122
1, 71904, Note_on_c, 9, 63, 124
1, 71904, Note_on_c, 2, 65, 122
1, 71904, Note_off_c, 9, 69, 92
1, 71905, Note_off_c, 9, 63, 100
1, 71923, Note_off_c, 1, 50, 108
1, 71928, Note_off_c, 2, 57, 102
1, 71952, Note_on_c, 1, 50, 113
1, 71955, Note_on_c, 9, 69, 50
1, 71956, Note_on_c, 2, 57, 97
1, 71956, Note_off_c, 9, 69, 92
1, 71970, Note_off_c, 2, 65, 104
1, 71974, Note_off_c, 1, 50, 104
1, 71979, Note_off_c, 2, 62, 108
1, 71984, Note_off_c, 12, 60, 106
1, 71997, Note_off_c, 0, 60, 106
1, 71998, Note_off_c, 0, 57, 108
1, 71999, Note_on_c, 9, 42, 96
1, 71999, Note_on_c, 9, 69, 100
1, 72000, Note_on_c, 9, 36, 124
1, 72000, Note_on_c, 1, 38, 117
1, 72000, Note_on_c, 9, 40, 124
1, 72000, Note_off_c, 9, 42, 100
1, 72000, Note_on_c, 12, 57, 110
1, 72000, Note_on_c, 0, 62, 116
1, 72000, Note_on_c, 2, 62, 114
1, 72000, Note_on_c, 12, 62, 108
1, 72000, Note_on_c, 9, 62, 124
1, 72000, Note_on_c, 2, 65, 123
1, 72000, Note_off_c, 9, 69, 92
1, 72000, Note_on_c, 3, 74, 114
1, 72001, Note_off_c, 9, 36, 112
1, 72001, Note_off_c, 9, 40, 108
1, 72001, Note_off_c, 9, 62, 104
1, 72003, Note_off_c, 3, 77, 111
1, 72007, Note_off_c, 12, 65, 106
1, 72009, Note_off_c, 0, 65, 110
1, 72028, Note_off_c, 0, 62, 106
1, 72029, Note_off_c, 2, 57, 108
1, 72035, Note_off_c, 2, 62, 113
1, 72038, Note_off_c, 2, 65, 111
1, 72038, Note_off_c, 3, 74, 106
1, 72045, Note_off_c, 12, 62, 104
1, 72051, Note_on_c, 9, 69, 50
1, 72052, Note_off_c, 9, 69, 92
1, 72062, Note_off_c, 12, 57, 104
1, 72067, Note_off_c, 1, 38, 91
1, 72074, Pitch_bend_c, 12, 8064
1, 72081, Pitch_bend_c, 12, 7808
1, 72088, Pitch_bend_c, 12, 4992
1, 72089, Note_on_c, 0, 61, 117
1, 72092, Note_on_c, 0, 67, 116
1, 72095, Note_on_c, 9, 42, 124
1, 72095, Note_on_c, 9, 69, 100
1, 72096, Note_off_c, 9, 42, 100
1, 72096, Note_on_c, 1, 50, 116
1, 72096, Note_on_c, 12, 62, 119
1, 72096, Note_on_c, 9, 64, 112
1, 72096, Note_on_c, 12, 67, 116
1, 72096, Note_off_c, 9, 69, 92
1, 72096, Note_on_c, 3, 84, 123
1, 72097, Note_off_c, 9, 64, 104
1, 72097, Pitch_bend_c, 12, 2816
1, 72104, Pitch_bend_c, 12, 3840
1, 72106, Note_on_c, 0, 62, 116
1, 72109, Note_off_c, 0, 61, 110
1, 72114, Pitch_bend_c, 12, 6784
1, 72121, Note_off_c, 1, 50, 108
1, 72121, Pitch_bend_c, 12, 7552
1, 72128, Pitch_bend_c, 12, 7936
1, 72135, Pitch_bend_c, 12, 8192
1, 72144, Note_on_c, 1, 50, 110
1, 72144, Note_on_c, 9, 64, 108
1, 72145, Note_off_c, 9, 64, 112
1, 72147, Note_on_c, 9, 69, 50
1, 72148, Note_off_c, 9, 69, 92
1, 72172, Note_off_c, 1, 50, 110
1, 72191, Note_on_c, 9, 42, 76
1, 72191, Note_off_c, 11, 50, 108
1, 72191, Note_on_c, 9, 69, 96
1, 72192, Note_on_c, 9, 36, 124
1, 72192, Note_on_c, 11, 41, 116
1, 72192, Note_on_c, 1, 41, 122
1, 72192, Note_off_c, 9, 42, 96
1, 72192, Note_on_c, 2, 57, 114
1, 72192, Note_on_c, 2, 60, 119
1, 72192, Note_on_c, 9, 63, 120
1, 72192, Note_on_c, 2, 65, 117
1, 72192, Note_off_c, 9, 69, 80
1, 72193, Note_off_c, 9, 36, 76
1, 72193, Note_off_c, 9, 63, 92
1, 72208, Note_off_c, 2, 60, 111
1, 72216, Note_off_c, 2, 57, 104
1, 72219, Note_off_c, 2, 65, 108
1, 72243, Note_off_c, 0, 67, 110
1, 72243, Note_on_c, 9, 69, 50
1, 72244, Note_off_c, 3, 84, 110
1, 72244, Note_off_c, 9, 69, 80
1, 72252, Note_off_c, 0, 62, 110
1, 72263, Note_off_c, 1, 41, 108
1, 72284, Note_off_c, 12, 62, 108
1, 72286, Note_off_c, 12, 67, 108
1, 72287, Note_on_c, 9, 42, 124
1, 72287, Note_on_c, 9, 69, 88
1, 72288, Note_off_c, 9, 42, 100
1, 72288, Note_on_c, 1, 53, 113
1, 72288, Note_on_c, 0, 57, 108
1, 72288, Note_on_c, 2, 57, 116
1, 72288, Note_on_c, 0, 60, 114
1, 72288, Note_on_c, 2, 60, 116
1, 72288, Note_on_c, 12, 60, 111
1, 72288, Note_on_c, 9, 63, 116
1, 72288, Note_on_c, 0, 65, 111
1, 72288, Note_on_c, 2, 65, 110
1, 72288, Note_on_c, 12, 65, 113
1, 72288, Note_off_c, 9, 69, 76
1, 72288, Note_on_c, 3, 81, 119
1, 72289, Note_off_c, 9, 63, 84
1, 72302, Note_off_c, 2, 60, 116
1, 72309, Note_off_c, 1, 53, 108
1, 72311, Note_off_c, 0, 60, 106
1, 72311, Note_off_c, 2, 65, 108
1, 72313, Note_off_c, 0, 65, 97
1, 72314, Note_off_c, 0, 57, 91
1, 72315, Note_off_c, 2, 57, 104
1, 72317, Note_off_c, 12, 60, 104
1, 72322, Note_off_c, 12, 65, 110
1, 72323, Note_off_c, 3, 81, 111
1, 72336, Note_on_c, 1, 53, 113
1, 72339, Note_on_c, 9, 69, 50
1, 72340, Note_off_c, 9, 69, 76
1, 72359, Note_off_c, 1, 53, 99
1, 72383, Note_on_c, 9, 42, 92
1, 72383, Note_on_c, 9, 69, 104
1, 72384, Note_on_c, 9, 36, 124
1, 72384, Note_on_c, 9, 40, 124
1, 72384, Note_on_c, 1, 41, 120
1, 72384, Note_off_c, 9, 42, 100
1, 72384, Note_on_c, 0, 57, 110
1, 72384, Note_on_c, 2, 57, 119
1, 72384, Note_on_c, 0, 60, 116
1, 72384, Note_on_c, 2, 60, 123
1, 72384, Note_on_c, 12, 60, 114
1, 72384, Note_on_c, 9, 62, 124
1, 72384, Note_on_c, 0, 65, 116
1, 72384, Note_on_c, 2, 65, 122
1, 72384, Note_on_c, 12, 65, 114
1, 72384, Note_off_c, 9, 69, 68
1, 72384, Note_on_c, 3, 77, 122
1, 72385, Note_off_c, 9, 36, 96
1, 72385, Note_off_c, 9, 40, 96
1, 72385, Note_off_c, 9, 62, 108
1, 72423, Note_off_c, 3, 77, 111
1, 72435, Note_on_c, 9, 69, 50
1, 72436, Note_off_c, 9, 69, 68
1, 72453, Note_off_c, 2, 57, 106
1, 72453, Note_off_c, 1, 41, 108
1, 72456, Note_off_c, 2, 60, 111
1, 72456, Note_off_c, 2, 65, 110
1, 72476, Note_off_c, 12, 60, 110
1, 72477, Note_off_c, 0, 57, 102
1, 72479, Note_on_c, 9, 42, 124
1, 72479, Note_on_c, 9, 69, 96
1, 72480, Note_off_c, 12, 65, 104
1, 72480, Note_off_c, 9, 42, 92
1, 72480, Note_on_c, 1, 53, 113
1, 72480, Note_on_c, 12, 57, 111
1, 72480, Note_on_c, 0, 62, 116
1, 72480, Note_on_c, 12, 62, 113
1, 72480, Note_on_c, 9, 64, 116
1, 72480, Note_off_c, 9, 69, 68
1, 72480, Note_on_c, 3, 74, 119
1, 72481, Note_off_c, 9, 64, 96
1, 72486, Note_off_c, 0, 60, 106
1, 72491, Note_off_c, 0, 65, 104
1, 72502, Note_off_c, 1, 53, 108
1, 72510, Note_off_c, 0, 62, 110
1, 72522, Note_off_c, 3, 74, 106
1, 72528, Note_on_c, 1, 53, 113
1, 72528, Note_on_c, 9, 64, 108
1, 72529, Note_off_c, 9, 64, 104
1, 72531, Note_on_c, 9, 69, 50
1, 72532, Note_off_c, 9, 69, 68
1, 72550, Note_off_c, 1, 53, 104
1, 72575, Note_on_c, 9, 42, 84
1, 72575, Note_on_c, 9, 69, 104
1, 72576, Note_on_c, 9, 36, 124
1, 72576, Note_on_c, 1, 41, 122
1, 72576, Note_off_c, 9, 42, 96
1, 72576, Note_on_c, 0, 57, 111
1, 72576, Note_on_c, 2, 57, 113
1, 72576, Note_on_c, 0, 60, 116
1, 72576, Note_on_c, 2, 60, 122
1, 72576, Note_on_c, 12, 60, 111
1, 72576, Note_on_c, 9, 63, 124
1, 72576, Note_on_c, 0, 65, 116
1, 72576, Note_on_c, 2, 65, 120
1, 72576, Note_on_c, 12, 65, 113
1, 72576, Note_off_c, 9, 69, 84
1, 72576, Note_on_c, 3, 77, 122
1, 72577, Note_off_c, 12, 57, 108
1, 72577, Note_off_c, 9, 36, 108
1, 72577, Note_off_c, 9, 63, 96
1, 72582, Note_off_c, 12, 62, 108
1, 72627, Note_on_c, 9, 69, 50
1, 72628, Note_off_c, 9, 69, 84
1, 72646, Note_off_c, 1, 41, 106
1, 72671, Note_on_c, 9, 42, 124
1, 72671, Note_on_c, 9, 69, 100
1, 72672, Note_off_c, 9, 42, 100
1, 72672, Note_on_c, 1, 53, 110
1, 72672, Note_on_c, 9, 63, 124
1, 72672, Note_off_c, 9, 69, 92
1, 72673, Note_off_c, 9, 63, 100
1, 72675, Note_off_c, 2, 57, 71
1, 72693, Note_off_c, 1, 53, 108
1, 72700, Note_off_c, 2, 65, 66
1, 72720, Note_on_c, 1, 53, 108
1, 72723, Note_on_c, 9, 69, 50
1, 72724, Note_on_c, 2, 57, 102
1, 72724, Note_off_c, 9, 69, 92
1, 72730, Note_off_c, 2, 60, 66
1, 72748, Note_off_c, 1, 53, 108
1, 72762, Note_off_c, 12, 60, 108
1, 72764, Note_off_c, 3, 77, 110
1, 72766, Note_off_c, 0, 60, 108
1, 72767, Note_on_c, 9, 42, 100
1, 72767, Note_on_c, 9, 69, 100
1, 72768, Note_on_c, 9, 36, 124
1, 72768, Note_on_c, 9, 40, 124
1, 72768, Note_on_c, 1, 41, 120
1, 72768, Note_off_c, 9, 42, 100
1, 72768, Note_on_c, 12, 57, 108
1, 72768, Note_on_c, 2, 60, 122
1, 72768, Note_on_c, 0, 62, 113
1, 72768, Note_on_c, 12, 62, 113
1, 72768, Note_on_c, 9, 62, 124
1, 72768, Note_on_c, 2, 65, 120
1, 72768, Note_off_c, 9, 69, 92
1, 72768, Note_on_c, 3, 74, 113
1, 72769, Note_off_c, 0, 57, 106
1, 72769, Note_off_c, 12, 65, 97
1, 72769, Note_off_c, 9, 36, 112
1, 72769, Note_off_c, 9, 40, 108
1, 72769, Note_off_c, 9, 62, 104
1, 72772, Note_off_c, 0, 65, 108
1, 72788, Note_off_c, 0, 62, 102
1, 72792, Note_off_c, 2, 65, 108
1, 72807, Note_off_c, 2, 60, 108
1, 72817, Note_off_c, 2, 57, 102
1, 72818, Note_off_c, 3, 74, 102
1, 72819, Note_on_c, 9, 69, 50
1, 72820, Note_off_c, 9, 69, 92
1, 72834, Note_off_c, 1, 41, 106
1, 72862, Note_off_c, 12, 62, 108
1, 72863, Note_on_c, 9, 42, 124
1, 72863, Note_on_c, 9, 69, 100
1, 72864, Note_off_c, 9, 42, 100
1, 72864, Note_on_c, 12, 53, 108
1, 72864, Note_on_c, 1, 53, 113
1, 72864, Note_on_c, 0, 60, 111
1, 72864, Note_on_c, 12, 60, 114
1, 72864, Note_on_c, 9, 64, 112
1, 72864, Note_on_c, 0, 65, 113
1, 72864, Note_off_c, 9, 69, 92
1, 72864, Note_on_c, 0, 69, 117
1, 72864, Note_on_c, 3, 81, 122
1, 72865, Note_off_c, 9, 64, 104
1, 72884, Note_off_c, 1, 53, 111
1, 72912, Note_on_c, 1, 53, 114
1, 72912, Note_on_c, 9, 64, 108
1, 72913, Note_off_c, 9, 64, 112
1, 72915, Note_on_c, 9, 69, 50
1, 72916, Note_off_c, 9, 69, 92
1, 72939, Note_off_c, 1, 53, 108
1, 72959, Note_on_c, 9, 42, 92
1, 72959, Note_on_c, 9, 69, 96
1, 72960, Note_on_c, 9, 36, 124
1, 72960, Note_on_c, 1, 41, 120
1, 72960, Note_off_c, 9, 42, 100
1, 72960, Note_on_c, 2, 57, 108
1, 72960, Note_on_c, 2, 60, 119
1, 72960, Note_on_c, 9, 63, 120
1, 72960, Note_on_c, 2, 65, 117
1, 72960, Note_off_c, 9, 69, 80
1, 72961, Note_off_c, 9, 36, 76
1, 72961, Note_off_c, 9, 63, 92
1, 72987, Note_off_c, 2, 57, 104
1, 72989, Note_off_c, 2, 60, 111
1, 72992, Note_off_c, 2, 65, 110
1, 73011, Note_on_c, 9, 69, 50
1, 73012, Note_off_c, 9, 69, 80
1, 73045, Note_off_c, 1, 41, 99
1, 73055, Note_on_c, 9, 42, 124
1, 73055, Note_on_c, 9, 69, 88
1, 73056, Note_off_c, 9, 42, 100
1, 73056, Note_on_c, 1, 53, 114
1, 73056, Note_on_c, 2, 57, 113
1, 73056, Note_on_c, 2, 60, 120
1, 73056, Note_on_c, 9, 63, 116
1, 73056, Note_on_c, 2, 65, 117
1, 73056, Note_off_c, 9, 69, 76
1, 73057, Note_off_c, 9, 63, 84
1, 73079, Note_off_c, 2, 60, 108
1, 73082, Note_off_c, 2, 57, 106
1, 73082, Note_off_c, 1, 53, 108
1, 73085, Note_off_c, 2, 65, 102
1, 73104, Note_on_c, 1, 53, 108
1, 73107, Note_on_c, 9, 69, 50
1, 73108, Note_off_c, 9, 69, 76
1, 73133, Note_off_c, 1, 53, 108
1, 73149, Note_off_c, 3, 81, 113
1, 73151, Note_off_c, 11, 41, 104
1, 73151, Note_on_c, 9, 42, 100
1, 73151, Note_on_c, 9, 69, 104
1, 73152, Note_on_c, 9, 36, 124
1, 73152, Note_on_c, 9, 40, 124
1, 73152, Note_off_c, 9, 42, 100
1, 73152, Note_on_c, 11, 43, 119
1, 73152, Note_on_c, 1, 43, 119
1, 73152, Note_on_c, 2, 57, 116
1, 73152, Note_on_c, 2, 60, 122
1, 73152, Note_on_c, 9, 62, 124
1, 73152, Note_on_c, 2, 65, 120
1, 73152, Note_off_c, 9, 69, 68
1, 73153, Note_off_c, 9, 36, 96
1, 73153, Note_off_c, 9, 40, 96
1, 73153, Note_off_c, 9, 62, 108
1, 73203, Note_on_c, 9, 69, 50
1, 73204, Note_off_c, 9, 69, 68
1, 73222, Note_off_c, 1, 43, 104
1, 73225, Note_off_c, 2, 65, 110
1, 73228, Note_off_c, 2, 60, 97
1, 73234, Note_off_c, 2, 57, 104
1, 73247, Note_on_c, 9, 42, 124
1, 73247, Note_on_c, 9, 69, 96
1, 73248, Note_off_c, 9, 42, 104
1, 73248, Note_on_c, 1, 55, 113
1, 73248, Note_on_c, 9, 64, 116
1, 73248, Note_off_c, 9, 69, 68
1, 73249, Note_off_c, 9, 64, 96
1, 73268, Note_off_c, 1, 55, 111
1, 73296, Note_on_c, 1, 55, 108
1, 73296, Note_on_c, 9, 64, 108
1, 73297, Note_off_c, 9, 64, 104
1, 73299, Note_on_c, 9, 69, 50
1, 73300, Note_off_c, 9, 69, 68
1, 73323, Note_off_c, 1, 55, 110
1, 73343, Note_on_c, 9, 42, 92
1, 73343, Note_off_c, 11, 43, 102
1, 73343, Note_on_c, 9, 69, 104
1, 73344, Note_on_c, 9, 36, 124
1, 73344, Note_off_c, 9, 42, 100
1, 73344, Note_on_c, 11, 45, 116
1, 73344, Note_on_c, 1, 45, 122
1, 73344, Note_on_c, 2, 57, 117
1, 73344, Note_on_c, 2, 60, 122
1, 73344, Note_on_c, 9, 63, 124
1, 73344, Note_on_c, 2, 65, 122
1, 73344, Note_off_c, 9, 69, 84
1, 73345, Note_off_c, 9, 36, 108
1, 73345, Note_off_c, 9, 63, 96
1, 73395, Note_on_c, 9, 69, 50
1, 73396, Note_off_c, 9, 69, 84
1, 73415, Note_off_c, 1, 45, 108
1, 73439, Note_on_c, 9, 42, 124
1, 73439, Note_on_c, 9, 69, 100
1, 73440, Note_off_c, 9, 42, 108
1, 73440, Note_on_c, 1, 57, 116
1, 73440, Note_on_c, 9, 63, 124
1, 73440, Note_off_c, 9, 69, 92
1, 73441, Note_off_c, 9, 63, 100
1, 73444, Note_off_c, 2, 57, 84
1, 73467, Note_off_c, 1, 57, 106
1, 73470, Note_off_c, 2, 65, 71
1, 73488, Note_on_c, 1, 57, 106
1, 73491, Note_on_c, 9, 69, 50
1, 73492, Note_on_c, 2, 57, 97
1, 73492, Note_off_c, 9, 69, 92
1, 73506, Note_off_c, 2, 60, 13
1, 73514, Note_off_c, 1, 57, 106
1, 73519, Note_off_c, 2, 57, 97
1, 73531, Note_off_c, 0, 65, 110
1, 73532, Note_off_c, 0, 60, 111
1, 73535, Note_on_c, 9, 42, 96
1, 73535, Note_off_c, 11, 45, 108
1, 73535, Note_on_c, 9, 69, 100
1, 73536, Note_on_c, 9, 36, 124
1, 73536, Note_on_c, 9, 40, 124
1, 73536, Note_on_c, 11, 41, 122
1, 73536, Note_on_c, 1, 41, 120
1, 73536, Note_off_c, 9, 42, 100
1, 73536, Note_on_c, 2, 57, 113
1, 73536, Note_on_c, 2, 60, 117
1, 73536, Note_on_c, 9, 62, 124
1, 73536, Note_on_c, 2, 65, 120
1, 73536, Note_off_c, 9, 69, 92
1, 73537, Note_off_c, 9, 36, 112
1, 73537, Note_off_c, 9, 40, 108
1, 73537, Note_off_c, 9, 62, 104
1, 73538, Note_off_c, 0, 69, 108
1, 73552, Note_off_c, 12, 60, 111
1, 73555, Note_off_c, 2, 65, 108
1, 73556, Note_off_c, 2, 60, 110
1, 73562, Note_off_c, 12, 57, 108
1, 73565, Note_off_c, 12, 53, 106
1, 73569, Note_off_c, 2, 57, 104
1, 73587, Note_on_c, 9, 69, 50
1, 73588, Note_off_c, 9, 69, 92
1, 73610, Pitch_bend_c, 12, 8064
1, 73617, Pitch_bend_c, 12, 7680
1, 73619, Note_off_c, 1, 41, 111
1, 73624, Pitch_bend_c, 12, 4864
1, 73631, Note_on_c, 9, 46, 121
1, 73631, Note_on_c, 9, 69, 100
1, 73632, Note_off_c, 9, 46, 100
1, 73632, Note_on_c, 2, 57, 96
1, 73632, Note_on_c, 2, 60, 98
1, 73632, Note_on_c, 0, 61, 120
1, 73632, Note_off_c, 9, 69, 92
1, 73632, Note_off_c, 0, 61, 117
1, 73632, Note_on_c, 12, 62, 119
1, 73632, Note_on_c, 2, 65, 98
1, 73632, Note_on_c, 3, 84, 123
1, 73632, Pitch_bend_c, 12, 2048
1, 73632, Note_on_c, 1, 53, 111
1, 73632, Note_on_c, 9, 64, 112
1, 73632, Note_on_c, 12, 67, 116
1, 73633, Note_off_c, 9, 64, 104
1, 73637, Note_on_c, 0, 67, 114
1, 73640, Pitch_bend_c, 12, 1024
1, 73642, Note_on_c, 0, 62, 120
1, 73647, Pitch_bend_c, 12, 1408
1, 73651, Note_off_c, 2, 65, 108
1, 73652, Note_off_c, 2, 60, 110
1, 73653, Note_off_c, 1, 53, 113
1, 73653, Note_on_c, 0, 61, 99
1, 73654, Pitch_bend_c, 12, 6016
1, 73661, Pitch_bend_c, 12, 7424
1, 73665, Note_off_c, 2, 57, 104
1, 73665, Note_off_c, 0, 61, 91
1, 73669, Pitch_bend_c, 12, 7936
1, 73678, Pitch_bend_c, 12, 8192
1, 73680, Note_on_c, 1, 53, 111
1, 73680, Note_on_c, 9, 64, 108
1, 73681, Note_off_c, 9, 64, 112
1, 73683, Note_on_c, 9, 69, 50
1, 73684, Note_off_c, 9, 69, 92
1, 73707, Note_off_c, 1, 53, 110
1, 73727, Note_off_c, 11, 41, 111
1, 73727, Note_on_c, 9, 42, 92
1, 73727, Note_on_c, 9, 69, 96
1, 73728, Note_on_c, 9, 36, 124
1, 73728, Note_on_c, 1, 38, 114
1, 73728, Note_off_c, 9, 42, 100
1, 73728, Note_on_c, 11, 50, 119
1, 73728, Note_on_c, 2, 57, 122
1, 73728, Note_on_c, 2, 62, 124
1, 73728, Note_on_c, 9, 63, 120
1, 73728, Note_on_c, 2, 65, 123
1, 73728, Note_off_c, 9, 69, 80
1, 73729, Note_off_c, 9, 36, 76
1, 73729, Note_off_c, 9, 63, 92
1, 73763, Note_off_c, 2, 57, 84
1, 73763, Note_off_c, 2, 62, 111
1, 73775, Note_off_c, 0, 67, 104
1, 73779, Note_off_c, 0, 62, 108
1, 73779, Note_off_c, 2, 65, 108
1, 73779, Note_on_c, 9, 69, 50
1, 73780, Note_off_c, 3, 84, 110
1, 73780, Note_off_c, 9, 69, 80
1, 73801, Note_off_c, 1, 38, 102
1, 73816, Note_off_c, 12, 62, 110
1, 73818, Note_off_c, 12, 67, 108
1, 73823, Note_on_c, 9, 42, 124
1, 73823, Note_on_c, 9, 69, 88
1, 73824, Note_off_c, 9, 42, 96
1, 73824, Note_on_c, 1, 50, 116
1, 73824, Note_on_c, 0, 57, 108
1, 73824, Note_on_c, 2, 57, 113
1, 73824, Note_on_c, 0, 60, 110
1, 73824, Note_on_c, 12, 60, 113
1, 73824, Note_on_c, 2, 62, 117
1, 73824, Note_on_c, 9, 63, 116
1, 73824, Note_on_c, 0, 65, 110
1, 73824, Note_on_c, 12, 65, 91
1, 73824, Note_off_c, 9, 69, 76
1, 73824, Note_on_c, 3, 81, 120
1, 73825, Note_off_c, 9, 63, 84
1, 73839, Note_off_c, 2, 62, 119
1, 73842, Note_off_c, 12, 65, 104
1, 73843, Note_off_c, 0, 60, 111
1, 73844, Note_off_c, 0, 65, 111
1, 73845, Note_off_c, 12, 60, 104
1, 73849, Note_off_c, 0, 57, 94
1, 73850, Note_off_c, 3, 81, 110
1, 73850, Note_off_c, 1, 50, 108
1, 73851, Note_off_c, 2, 57, 104
1, 73872, Note_on_c, 1, 50, 103
1, 73875, Note_on_c, 9, 69, 50
1, 73876, Note_off_c, 9, 69, 76
1, 73900, Note_off_c, 1, 50, 111
1, 73919, Note_on_c, 9, 42, 100
1, 73919, Note_on_c, 9, 69, 104
1, 73920, Note_on_c, 9, 36, 124
1, 73920, Note_on_c, 1, 38, 117
1, 73920, Note_on_c, 9, 40, 124
1, 73920, Note_off_c, 9, 42, 100
1, 73920, Note_on_c, 0, 57, 111
1, 73920, Note_on_c, 2, 57, 122
1, 73920, Note_on_c, 0, 60, 119
1, 73920, Note_on_c, 12, 60, 114
1, 73920, Note_on_c, 2, 62, 124
1, 73920, Note_on_c, 9, 62, 124
1, 73920, Note_on_c, 0, 65, 117
1, 73920, Note_on_c, 2, 65, 124
1, 73920, Note_on_c, 12, 65, 119
1, 73920, Note_off_c, 9, 69, 68
1, 73920, Note_on_c, 3, 77, 122
1, 73921, Note_off_c, 9, 36, 96
1, 73921, Note_off_c, 9, 40, 96
1, 73921, Note_off_c, 9, 62, 108
1, 73950, Note_off_c, 2, 57, 108
1, 73952, Note_off_c, 2, 62, 111
1, 73957, Note_off_c, 3, 77, 111
1, 73965, Note_off_c, 2, 65, 108
1, 73971, Note_on_c, 9, 69, 50
1, 73972, Note_off_c, 9, 69, 68
1, 73991, Note_off_c, 1, 38, 99
1, 73995, Note_off_c, 12, 60, 110
1, 74015, Note_on_c, 9, 42, 124
1, 74015, Note_on_c, 9, 69, 96
1, 74016, Note_off_c, 12, 65, 108
1, 74016, Note_off_c, 9, 42, 100
1, 74016, Note_on_c, 1, 50, 114
1, 74016, Note_on_c, 12, 57, 106
1, 74016, Note_on_c, 0, 62, 117
1, 74016, Note_on_c, 12, 62, 111
1, 74016, Note_on_c, 9, 64, 116
1, 74016, Note_off_c, 9, 69, 68
1, 74016, Note_on_c, 3, 74, 113
1, 74017, Note_off_c, 9, 64, 96
1, 74022, Note_off_c, 0, 57, 104
1, 74026, Note_off_c, 0, 60, 102
1, 74030, Note_off_c, 0, 65, 104
1, 74036, Note_off_c, 1, 50, 110
1, 74043, Note_off_c, 0, 62, 106
1, 74057, Note_off_c, 3, 74, 106
1, 74064, Note_on_c, 1, 50, 117
1, 74064, Note_on_c, 9, 64, 108
1, 74065, Note_off_c, 9, 64, 104
1, 74067, Note_on_c, 9, 69, 50
1, 74068, Note_off_c, 9, 69, 68
1, 74091, Note_off_c, 1, 50, 110
1, 74111, Note_on_c, 9, 42, 84
1, 74111, Note_on_c, 9, 69, 104
1, 74112, Note_on_c, 9, 36, 124
1, 74112, Note_on_c, 1, 38, 120
1, 74112, Note_off_c, 12, 57, 110
1, 74112, Note_off_c, 9, 42, 96
1, 74112, Note_on_c, 0, 57, 113
1, 74112, Note_on_c, 2, 57, 122
1, 74112, Note_on_c, 0, 60, 119
1, 74112, Note_on_c, 12, 60, 113
1, 74112, Note_on_c, 2, 62, 124
1, 74112, Note_on_c, 9, 63, 124
1, 74112, Note_on_c, 0, 65, 119
1, 74112, Note_on_c, 2, 65, 124
1, 74112, Note_on_c, 12, 65, 113
1, 74112, Note_off_c, 9, 69, 84
1, 74112, Note_on_c, 3, 77, 122
1, 74113, Note_off_c, 9, 36, 108
1, 74113, Note_off_c, 9, 63, 96
1, 74131, Note_off_c, 12, 62, 108
1, 74143, Note_off_c, 2, 57, 108
1, 74145, Note_off_c, 2, 62, 111
1, 74163, Note_on_c, 9, 69, 50
1, 74164, Note_off_c, 9, 69, 84
1, 74179, Note_off_c, 1, 38, 102
1, 74189, Note_off_c, 2, 65, 13
1, 74207, Note_on_c, 9, 42, 124
1, 74207, Note_on_c, 9, 69, 100
1, 74208, Note_off_c, 9, 42, 100
1, 74208, Note_on_c, 1, 50, 114
1, 74208, Note_on_c, 9, 63, 124
1, 74208, Note_off_c, 9, 69, 92
1, 74209, Note_off_c, 9, 63, 100
1, 74229, Note_off_c, 1, 50, 106
1, 74256, Note_on_c, 1, 50, 117
1, 74259, Note_on_c, 9, 69, 50
1, 74260, Note_on_c, 2, 57, 99
1, 74260, Note_off_c, 9, 69, 92
1, 74275, Note_off_c, 1, 50, 102
1, 74286, Note_off_c, 2, 57, 102
1, 74301, Note_off_c, 3, 77, 110
1, 74302, Note_off_c, 0, 57, 108
1, 74303, Note_on_c, 9, 42, 104
1, 74303, Note_off_c, 0, 60, 110
1, 74303, Note_off_c, 12, 65, 104
1, 74303, Note_on_c, 9, 69, 100
1, 74304, Note_on_c, 9, 36, 124
1, 74304, Note_on_c, 1, 38, 119
1, 74304, Note_on_c, 9, 40, 124
1, 74304, Note_off_c, 9, 42, 100
1, 74304, Note_on_c, 2, 57, 117
1, 74304, Note_on_c, 12, 57, 113
1, 74304, Note_on_c, 0, 62, 116
1, 74304, Note_on_c, 2, 62, 124
1, 74304, Note_on_c, 12, 62, 113
1, 74304, Note_on_c, 9, 62, 124
1, 74304, Note_on_c, 2, 65, 122
1, 74304, Note_off_c, 9, 69, 92
1, 74304, Note_on_c, 3, 74, 113
1, 74305, Note_off_c, 9, 36, 112
1, 74305, Note_off_c, 9, 40, 108
1, 74305, Note_off_c, 9, 62, 104
1, 74308, Note_off_c, 0, 65, 110
1, 74309, Note_off_c, 12, 60, 104
1, 74326, Note_off_c, 0, 62, 104
1, 74332, Note_off_c, 2, 57, 110
1, 74332, Note_off_c, 2, 62, 111
1, 74337, Note_off_c, 3, 74, 99
1, 74355, Note_on_c, 9, 69, 50
1, 74356, Note_off_c, 9, 69, 92
1, 74360, Note_off_c, 2, 65, 91
1, 74368, Note_off_c, 12, 62, 108
1, 74374, Note_off_c, 1, 38, 102
1, 74377, Note_off_c, 12, 57, 108
1, 74381, Pitch_bend_c, 12, 5760
1, 74388, Pitch_bend_c, 12, 2944
1, 74395, Note_on_c, 0, 61, 117
1, 74396, Pitch_bend_c, 12, 1280
1, 74398, Note_on_c, 0, 67, 114
1, 74399, Note_on_c, 9, 42, 124
1, 74399, Note_on_c, 9, 69, 100
1, 74400, Note_off_c, 9, 42, 100
1, 74400, Note_on_c, 1, 50, 116
1, 74400, Note_on_c, 12, 62, 117
1, 74400, Note_on_c, 9, 64, 112
1, 74400, Note_on_c, 12, 67, 116
1, 74400, Note_off_c, 9, 69, 92
1, 74400, Note_on_c, 3, 84, 120
1, 74401, Note_off_c, 9, 64, 104
1, 74404, Pitch_bend_c, 12, 2432
1, 74409, Note_on_c, 0, 62, 119
1, 74411, Pitch_bend_c, 12, 6400
1, 74414, Note_off_c, 0, 61, 111
1, 74419, Pitch_bend_c, 12, 7424
1, 74420, Note_off_c, 1, 50, 108
1, 74427, Pitch_bend_c, 12, 7808
1, 74434, Pitch_bend_c, 12, 8192
1, 74448, Note_on_c, 1, 50, 113
1, 74448, Note_on_c, 9, 64, 108
1, 74449, Note_off_c, 9, 64, 112
1, 74451, Note_on_c, 9, 69, 50
1, 74452, Note_off_c, 9, 69, 92
1, 74474, Note_off_c, 1, 50, 108
1, 74495, Note_on_c, 9, 42, 104
1, 74495, Note_on_c, 9, 69, 96
1, 74496, Note_on_c, 9, 36, 124
1, 74496, Note_on_c, 1, 38, 117
1, 74496, Note_off_c, 9, 42, 100
1, 74496, Note_on_c, 2, 57, 122
1, 74496, Note_on_c, 2, 62, 124
1, 74496, Note_on_c, 9, 63, 120
1, 74496, Note_on_c, 2, 65, 124
1, 74496, Note_off_c, 9, 69, 80
1, 74497, Note_off_c, 9, 36, 76
1, 74497, Note_off_c, 9, 63, 92
1, 74526, Note_off_c, 2, 62, 111
1, 74528, Note_off_c, 2, 57, 110
1, 74530, Note_off_c, 2, 65, 110
1, 74542, Note_off_c, 3, 84, 108
1, 74547, Note_on_c, 9, 69, 50
1, 74548, Note_off_c, 9, 69, 80
1, 74549, Note_off_c, 0, 67, 106
1, 74554, Note_off_c, 0, 62, 110
1, 74564, Note_off_c, 1, 38, 97
1, 74591, Note_on_c, 9, 42, 124
1, 74591, Note_off_c, 12, 62, 110
1, 74591, Note_off_c, 12, 67, 108
1, 74591, Note_on_c, 9, 69, 88
1, 74592, Note_off_c, 9, 42, 100
1, 74592, Note_on_c, 1, 50, 116
1, 74592, Note_on_c, 0, 57, 108
1, 74592, Note_on_c, 2, 57, 111
1, 74592, Note_on_c, 0, 60, 113
1, 74592, Note_on_c, 12, 60, 111
1, 74592, Note_on_c, 2, 62, 119
1, 74592, Note_on_c, 9, 63, 116
1, 74592, Note_on_c, 0, 65, 114
1, 74592, Note_on_c, 2, 65, 117
1, 74592, Note_on_c, 12, 65, 113
1, 74592, Note_off_c, 9, 69, 76
1, 74592, Note_on_c, 3, 81, 117
1, 74593, Note_off_c, 9, 63, 84
1, 74610, Note_off_c, 0, 60, 113
1, 74615, Note_off_c, 12, 60, 104
1, 74615, Note_off_c, 1, 50, 106
1, 74616, Note_off_c, 0, 57, 97
1, 74617, Note_off_c, 2, 57, 102
1, 74619, Note_off_c, 2, 62, 113
1, 74620, Note_off_c, 3, 81, 111
1, 74621, Note_off_c, 0, 65, 106
1, 74623, Note_off_c, 2, 65, 108
1, 74625, Note_off_c, 12, 65, 108
1, 74640, Note_on_c, 1, 50, 111
1, 74643, Note_on_c, 9, 69, 50
1, 74644, Note_off_c, 9, 69, 76
1, 74665, Note_off_c, 1, 50, 94
1, 74687, Note_on_c, 9, 42, 108
1, 74687, Note_on_c, 9, 69, 104
1, 74688, Note_on_c, 9, 36, 124
1, 74688, Note_on_c, 1, 38, 122
1, 74688, Note_on_c, 9, 40, 124
1, 74688, Note_off_c, 9, 42, 100
1, 74688, Note_on_c, 0, 57, 110
1, 74688, Note_on_c, 2, 57, 119
1, 74688, Note_on_c, 0, 60, 120
1, 74688, Note_on_c, 12, 60, 114
1, 74688, Note_on_c, 2, 62, 124
1, 74688, Note_on_c, 9, 62, 124
1, 74688, Note_on_c, 0, 65, 117
1, 74688, Note_on_c, 2, 65, 124
1, 74688, Note_on_c, 12, 65, 114
1, 74688, Note_off_c, 9, 69, 68
1, 74688, Note_on_c, 3, 77, 120
1, 74689, Note_off_c, 9, 36, 96
1, 74689, Note_off_c, 9, 40, 96
1, 74689, Note_off_c, 9, 62, 108
1, 74718, Note_off_c, 2, 57, 108
1, 74718, Note_off_c, 2, 62, 113
1, 74722, Note_off_c, 3, 77, 110
1, 74726, Note_off_c, 2, 65, 111
1, 74739, Note_on_c, 9, 69, 50
1, 74740, Note_off_c, 9, 69, 68
1, 74756, Note_off_c, 1, 38, 104
1, 74768, Note_off_c, 12, 60, 106
1, 74775, Note_off_c, 0, 57, 102
1, 74783, Note_on_c, 9, 42, 124
1, 74783, Note_on_c, 9, 69, 96
1, 74784, Note_off_c, 9, 42, 100
1, 74784, Note_on_c, 1, 50, 113
1, 74784, Note_on_c, 12, 57, 110
1, 74784, Note_on_c, 0, 62, 113
1, 74784, Note_on_c, 12, 62, 110
1, 74784, Note_on_c, 9, 64, 116
1, 74784, Note_off_c, 9, 69, 68
1, 74784, Note_on_c, 3, 74, 116
1, 74785, Note_off_c, 9, 64, 96
1, 74787, Note_off_c, 12, 65, 108
1, 74793, Note_off_c, 0, 60, 108
1, 74794, Note_off_c, 0, 65, 106
1, 74804, Note_off_c, 1, 50, 110
1, 74809, Note_off_c, 0, 62, 104
1, 74821, Note_off_c, 3, 74, 102
1, 74832, Note_on_c, 1, 50, 114
1, 74832, Note_on_c, 9, 64, 108
1, 74833, Note_off_c, 9, 64, 104
1, 74835, Note_on_c, 9, 69, 50
1, 74836, Note_off_c, 9, 69, 68
1, 74857, Note_off_c, 1, 50, 104
1, 74879, Note_on_c, 9, 42, 104
1, 74879, Note_on_c, 9, 69, 104
1, 74880, Note_on_c, 9, 36, 124
1, 74880, Note_on_c, 1, 38, 120
1, 74880, Note_off_c, 9, 42, 100
1, 74880, Note_on_c, 0, 57, 111
1, 74880, Note_on_c, 2, 57, 120
1, 74880, Note_on_c, 0, 60, 117
1, 74880, Note_on_c, 12, 60, 110
1, 74880, Note_on_c, 2, 62, 123
1, 74880, Note_on_c, 9, 63, 124
1, 74880, Note_on_c, 0, 65, 119
1, 74880, Note_on_c, 2, 65, 122
1, 74880, Note_on_c, 12, 65, 113
1, 74880, Note_off_c, 9, 69, 84
1, 74880, Note_on_c, 3, 77, 120
1, 74881, Note_off_c, 9, 36, 108
1, 74881, Note_off_c, 9, 63, 96
1, 74888, Note_off_c, 12, 57, 108
1, 74893, Note_off_c, 12, 62, 106
1, 74905, Note_off_c, 2, 62, 113
1, 74909, Note_off_c, 2, 57, 108
1, 74909, Note_off_c, 2, 65, 111
1, 74931, Note_on_c, 9, 69, 50
1, 74932, Note_off_c, 9, 69, 84
1, 74949, Note_off_c, 1, 38, 104
1, 74975, Note_on_c, 9, 42, 124
1, 74975, Note_on_c, 9, 69, 100
1, 74976, Note_off_c, 9, 42, 104
1, 74976, Note_on_c, 1, 50, 117
1, 74976, Note_on_c, 2, 57, 113
1, 74976, Note_on_c, 2, 62, 122
1, 74976, Note_on_c, 9, 63, 124
1, 74976, Note_on_c, 2, 65, 122
1, 74976, Note_off_c, 9, 69, 92
1, 74977, Note_off_c, 9, 63, 100
1, 75000, Note_off_c, 2, 57, 102
1, 75004, Note_off_c, 1, 50, 108
1, 75024, Note_on_c, 1, 50, 99
1, 75027, Note_on_c, 9, 69, 50
1, 75028, Note_on_c, 2, 57, 97
1, 75028, Note_off_c, 9, 69, 92
1, 75042, Note_off_c, 2, 65, 104
1, 75049, Note_off_c, 1, 50, 108
1, 75051, Note_off_c, 2, 62, 108
1, 75060, Note_off_c, 12, 65, 104
1, 75069, Note_off_c, 0, 60, 106
1, 75070, Note_off_c, 0, 57, 108
1, 75070, Note_off_c, 12, 60, 104
1, 75071, Note_on_c, 9, 42, 96
1, 75071, Note_on_c, 9, 69, 100
1, 75072, Note_on_c, 9, 36, 124
1, 75072, Note_on_c, 1, 38, 122
1, 75072, Note_on_c, 9, 40, 124
1, 75072, Note_off_c, 9, 42, 100
1, 75072, Note_on_c, 12, 57, 111
1, 75072, Note_on_c, 0, 62, 116
1, 75072, Note_on_c, 2, 62, 114
1, 75072, Note_on_c, 12, 62, 113
1, 75072, Note_on_c, 9, 62, 124
1, 75072, Note_on_c, 2, 65, 123
1, 75072, Note_off_c, 9, 69, 92
1, 75072, Note_on_c, 3, 74, 114
1, 75073, Note_off_c, 9, 36, 112
1, 75073, Note_off_c, 9, 40, 108
1, 75073, Note_off_c, 9, 62, 104
1, 75081, Note_off_c, 0, 65, 110
1, 75081, Note_off_c, 3, 77, 110
1, 75100, Note_off_c, 0, 62, 106
1, 75101, Note_off_c, 2, 57, 108
1, 75103, Note_off_c, 3, 74, 108
1, 75107, Note_off_c, 2, 62, 113
1, 75110, Note_off_c, 2, 65, 111
1, 75123, Note_on_c, 9, 69, 50
1, 75124, Note_off_c, 9, 69, 92
1, 75140, Note_off_c, 12, 57, 106
1, 75147, Note_off_c, 12, 62, 104
1, 75147, Note_off_c, 1, 38, 102
1, 75151, Pitch_bend_c, 12, 7168
1, 75160, Pitch_bend_c, 12, 4864
1, 75161, Note_on_c, 0, 61, 117
1, 75164, Note_on_c, 0, 67, 116
1, 75167, Pitch_bend_c, 12, 2304
1, 75167, Note_on_c, 9, 42, 124
1, 75167, Note_on_c, 9, 69, 100
1, 75168, Note_off_c, 9, 42, 104
1, 75168, Note_on_c, 1, 50, 114
1, 75168, Note_on_c, 12, 62, 117
1, 75168, Note_on_c, 9, 64, 112
1, 75168, Note_on_c, 12, 67, 114
1, 75168, Note_off_c, 9, 69, 92
1, 75168, Note_on_c, 3, 84, 120
1, 75169, Note_off_c, 9, 64, 104
1, 75174, Pitch_bend_c, 12, 896
1, 75178, Note_on_c, 0, 62, 116
1, 75181, Note_off_c, 0, 61, 110
1, 75181, Pitch_bend_c, 12, 5120
1, 75186, Note_off_c, 1, 50, 111
1, 75188, Pitch_bend_c, 12, 6912
1, 75195, Pitch_bend_c, 12, 7552
1, 75203, Pitch_bend_c, 12, 7936
1, 75211, Pitch_bend_c, 12, 8192
1, 75216, Note_on_c, 1, 50, 108
1, 75216, Note_on_c, 9, 64, 108
1, 75217, Note_off_c, 9, 64, 112
1, 75219, Note_on_c, 9, 69, 50
1, 75220, Note_off_c, 9, 69, 92
1, 75242, Note_off_c, 1, 50, 108
1, 75263, Note_on_c, 9, 42, 100
1, 75263, Note_off_c, 11, 50, 108
1, 75263, Note_on_c, 9, 69, 96
1, 75264, Note_on_c, 9, 36, 124
1, 75264, Note_on_c, 11, 41, 124
1, 75264, Note_on_c, 1, 41, 117
1, 75264, Note_off_c, 9, 42, 92
1, 75264, Note_on_c, 2, 57, 114
1, 75264, Note_on_c, 2, 60, 119
1, 75264, Note_on_c, 9, 63, 120
1, 75264, Note_on_c, 2, 65, 117
1, 75264, Note_off_c, 9, 69, 80
1, 75265, Note_off_c, 9, 36, 76
1, 75265, Note_off_c, 9, 63, 92
1, 75280, Note_off_c, 2, 60, 111
1, 75288, Note_off_c, 2, 57, 104
1, 75291, Note_off_c, 2, 65, 108
1, 75309, Note_off_c, 3, 84, 110
1, 75315, Note_off_c, 0, 67, 110
1, 75315, Note_on_c, 9, 69, 50
1, 75316, Note_off_c, 9, 69, 80
1, 75324, Note_off_c, 0, 62, 110
1, 75341, Note_off_c, 1, 41, 106
1, 75359, Note_on_c, 9, 42, 120
1, 75359, Note_on_c, 9, 69, 88
1, 75360, Note_off_c, 12, 67, 108
1, 75360, Note_off_c, 9, 42, 92
1, 75360, Note_on_c, 1, 53, 119
1, 75360, Note_on_c, 0, 57, 108
1, 75360, Note_on_c, 2, 57, 116
1, 75360, Note_on_c, 0, 60, 114
1, 75360, Note_on_c, 2, 60, 116
1, 75360, Note_on_c, 12, 60, 114
1, 75360, Note_on_c, 9, 63, 116
1, 75360, Note_on_c, 0, 65, 111
1, 75360, Note_on_c, 2, 65, 110
1, 75360, Note_on_c, 12, 65, 113
1, 75360, Note_off_c, 9, 69, 76
1, 75360, Note_on_c, 3, 81, 117
1, 75361, Note_off_c, 12, 62, 111
1, 75361, Note_off_c, 9, 63, 84
1, 75374, Note_off_c, 2, 60, 116
1, 75383, Note_off_c, 0, 60, 106
1, 75383, Note_off_c, 2, 65, 108
1, 75385, Note_off_c, 0, 65, 97
1, 75386, Note_off_c, 0, 57, 91
1, 75387, Note_off_c, 2, 57, 104
1, 75389, Note_off_c, 1, 53, 111
1, 75390, Note_off_c, 12, 60, 111
1, 75390, Note_off_c, 3, 81, 108
1, 75391, Note_off_c, 12, 65, 99
1, 75408, Note_on_c, 1, 53, 101
1, 75411, Note_on_c, 9, 69, 50
1, 75412, Note_off_c, 9, 69, 76
1, 75438, Note_off_c, 1, 53, 111
1, 75455, Note_on_c, 9, 42, 124
1, 75455, Note_on_c, 9, 69, 104
1, 75456, Note_on_c, 9, 36, 124
1, 75456, Note_on_c, 9, 40, 124
1, 75456, Note_on_c, 1, 41, 122
1, 75456, Note_off_c, 9, 42, 96
1, 75456, Note_on_c, 0, 57, 110
1, 75456, Note_on_c, 2, 57, 119
1, 75456, Note_on_c, 0, 60, 116
1, 75456, Note_on_c, 2, 60, 123
1, 75456, Note_on_c, 12, 60, 111
1, 75456, Note_on_c, 9, 62, 124
1, 75456, Note_on_c, 0, 65, 116
1, 75456, Note_on_c, 2, 65, 122
1, 75456, Note_on_c, 12, 65, 117
1, 75456, Note_off_c, 9, 69, 68
1, 75456, Note_on_c, 3, 77, 120
1, 75457, Note_off_c, 9, 36, 96
1, 75457, Note_off_c, 9, 40, 96
1, 75457, Note_off_c, 9, 62, 108
1, 75491, Note_off_c, 3, 77, 111
1, 75507, Note_on_c, 9, 69, 50
1, 75508, Note_off_c, 9, 69, 68
1, 75525, Note_off_c, 2, 57, 106
1, 75528, Note_off_c, 2, 60, 111
1, 75528, Note_off_c, 2, 65, 110
1, 75532, Note_off_c, 1, 41, 110
1, 75542, Note_off_c, 12, 60, 106
1, 75549, Note_off_c, 0, 57, 102
1, 75551, Note_on_c, 9, 42, 124
1, 75551, Note_on_c, 9, 69, 96
1, 75552, Note_off_c, 9, 42, 100
1, 75552, Note_on_c, 1, 53, 114
1, 75552, Note_on_c, 12, 57, 108
1, 75552, Note_on_c, 0, 62, 116
1, 75552, Note_on_c, 12, 62, 111
1, 75552, Note_on_c, 9, 64, 116
1, 75552, Note_off_c, 9, 69, 68
1, 75552, Note_on_c, 3, 74, 116
1, 75553, Note_off_c, 9, 64, 96
1, 75558, Note_off_c, 0, 60, 106
1, 75561, Note_off_c, 12, 65, 102
1, 75563, Note_off_c, 0, 65, 104
1, 75574, Note_off_c, 1, 53, 106
1, 75582, Note_off_c, 0, 62, 110
1, 75589, Note_off_c, 3, 74, 108
1, 75600, Note_on_c, 1, 53, 114
1, 75600, Note_on_c, 9, 64, 108
1, 75601, Note_off_c, 9, 64, 104
1, 75603, Note_on_c, 9, 69, 50
1, 75604, Note_off_c, 9, 69, 68
1, 75623, Note_off_c, 1, 53, 104
1, 75647, Note_on_c, 9, 42, 76
1, 75647, Note_on_c, 9, 69, 104
1, 75648, Note_on_c, 9, 36, 124
1, 75648, Note_on_c, 1, 41, 119
1, 75648, Note_off_c, 9, 42, 100
1, 75648, Note_on_c, 0, 57, 111
1, 75648, Note_on_c, 2, 57, 113
1, 75648, Note_on_c, 0, 60, 116
1, 75648, Note_on_c, 2, 60, 122
1, 75648, Note_on_c, 12, 60, 113
1, 75648, Note_on_c, 9, 63, 124
1, 75648, Note_on_c, 0, 65, 116
1, 75648, Note_on_c, 2, 65, 120
1, 75648, Note_on_c, 12, 65, 97
1, 75648, Note_off_c, 9, 69, 84
1, 75648, Note_on_c, 3, 77, 120
1, 75649, Note_off_c, 12, 57, 108
1, 75649, Note_off_c, 9, 36, 108
1, 75649, Note_off_c, 9, 63, 96
1, 75664, Note_off_c, 12, 62, 108
1, 75699, Note_on_c, 9, 69, 50
1, 75700, Note_off_c, 9, 69, 84
1, 75724, Note_off_c, 1, 41, 110
1, 75743, Note_on_c, 9, 42, 124
1, 75743, Note_on_c, 9, 69, 100
1, 75744, Note_off_c, 9, 42, 100
1, 75744, Note_on_c, 1, 53, 114
1, 75744, Note_on_c, 9, 63, 124
1, 75744, Note_off_c, 9, 69, 92
1, 75745, Note_off_c, 9, 63, 100
1, 75747, Note_off_c, 2, 57, 71
1, 75766, Note_off_c, 1, 53, 106
1, 75772, Note_off_c, 2, 65, 66
1, 75792, Note_on_c, 1, 53, 113
1, 75795, Note_on_c, 9, 69, 50
1, 75796, Note_on_c, 2, 57, 102
1, 75796, Note_off_c, 9, 69, 92
1, 75802, Note_off_c, 2, 60, 66
1, 75817, Note_off_c, 12, 65, 104
1, 75817, Note_off_c, 1, 53, 106
1, 75835, Note_off_c, 12, 60, 102
1, 75838, Note_off_c, 0, 60, 108
1, 75839, Note_on_c, 9, 42, 84
1, 75839, Note_on_c, 9, 69, 100
1, 75840, Note_on_c, 9, 36, 124
1, 75840, Note_on_c, 9, 40, 124
1, 75840, Note_on_c, 1, 41, 120
1, 75840, Note_off_c, 9, 42, 96
1, 75840, Note_on_c, 2, 60, 122
1, 75840, Note_on_c, 0, 62, 113
1, 75840, Note_on_c, 12, 62, 116
1, 75840, Note_on_c, 9, 62, 124
1, 75840, Note_on_c, 2, 65, 120
1, 75840, Note_on_c, 12, 67, 116
1, 75840, Note_off_c, 9, 69, 92
1, 75840, Note_on_c, 3, 74, 113
1, 75841, Note_off_c, 0, 57, 106
1, 75841, Note_off_c, 9, 36, 112
1, 75841, Note_off_c, 9, 40, 108
1, 75841, Note_off_c, 9, 62, 104
1, 75844, Note_off_c, 0, 65, 108
1, 75848, Note_off_c, 3, 77, 111
1, 75860, Note_off_c, 0, 62, 102
1, 75864, Note_off_c, 2, 65, 108
1, 75879, Note_off_c, 2, 60, 108
1, 75889, Note_off_c, 2, 57, 102
1, 75891, Note_on_c, 9, 69, 50
1, 75892, Note_off_c, 9, 69, 92
1, 75894, Note_off_c, 3, 74, 102
1, 75917, Note_off_c, 1, 41, 111
1, 75935, Note_on_c, 9, 42, 124
1, 75935, Note_on_c, 9, 69, 100
1, 75936, Note_off_c, 9, 42, 100
1, 75936, Note_on_c, 1, 53, 114
1, 75936, Note_on_c, 0, 60, 111
1, 75936, Note_on_c, 12, 60, 113
1, 75936, Note_on_c, 9, 64, 112
1, 75936, Note_on_c, 0, 65, 113
1, 75936, Note_on_c, 12, 65, 113
1, 75936, Note_off_c, 9, 69, 92
1, 75936, Note_on_c, 0, 69, 117
1, 75936, Note_on_c, 12, 69, 106
1, 75936, Note_on_c, 3, 81, 120
1, 75937, Note_off_c, 9, 64, 104
1, 75939, Note_off_c, 12, 62, 106
1, 75939, Note_off_c, 12, 67, 106
1, 75958, Note_off_c, 1, 53, 106
1, 75984, Note_on_c, 1, 53, 119
1, 75984, Note_on_c, 9, 64, 108
1, 75985, Note_off_c, 9, 64, 112
1, 75987, Note_on_c, 9, 69, 50
1, 75988, Note_off_c, 9, 69, 92
1, 76009, Note_off_c, 1, 53, 104
1, 76031, Note_on_c, 9, 42, 92
1, 76031, Note_on_c, 9, 69, 96
1, 76032, Note_on_c, 9, 36, 124
1, 76032, Note_on_c, 1, 41, 120
1, 76032, Note_off_c, 9, 42, 100
1, 76032, Note_on_c, 2, 57, 108
1, 76032, Note_on_c, 2, 60, 119
1, 76032, Note_on_c, 9, 63, 120
1, 76032, Note_on_c, 2, 65, 117
1, 76032, Note_off_c, 9, 69, 80
1, 76033, Note_off_c, 9, 36, 76
1, 76033, Note_off_c, 9, 63, 92
1, 76059, Note_off_c, 2, 57, 104
1, 76061, Note_off_c, 2, 60, 111
1, 76064, Note_off_c, 2, 65, 110
1, 76083, Note_on_c, 9, 69, 50
1, 76084, Note_off_c, 9, 69, 80
1, 76098, Pitch_bend_c, 4, 8064
1, 76106, Pitch_bend_c, 4, 6784
1, 76107, Note_off_c, 1, 41, 111
1, 76113, Pitch_bend_c, 4, 4352
1, 76122, Pitch_bend_c, 4, 1920
1, 76127, Note_on_c, 9, 42, 124
1, 76127, Note_on_c, 9, 69, 88
1, 76128, Note_off_c, 9, 42, 96
1, 76128, Note_on_c, 1, 53, 114
1, 76128, Note_on_c, 2, 57, 113
1, 76128, Note_on_c, 2, 60, 120
1, 76128, Note_on_c, 9, 63, 116
1, 76128, Note_on_c, 2, 65, 117
1, 76128, Note_off_c, 9, 69, 76
1, 76128, Note_on_c, 4, 69, 114
1, 76129, Note_off_c, 9, 63, 84
1, 76130, Pitch_bend_c, 4, 768
1, 76138, Pitch_bend_c, 4, 256
1, 76145, Pitch_bend_c, 4, 128
1, 76147, Note_off_c, 1, 53, 108
1, 76151, Note_off_c, 2, 60, 108
1, 76152, Pitch_bend_c, 4, 384
1, 76154, Note_off_c, 2, 57, 106
1, 76157, Note_off_c, 2, 65, 102
1, 76159, Pitch_bend_c, 4, 1536
1, 76167, Pitch_bend_c, 4, 3584
1, 76175, Pitch_bend_c, 4, 4864
1, 76176, Note_on_c, 1, 53, 117
1, 76179, Note_on_c, 9, 69, 50
1, 76180, Note_off_c, 9, 69, 76
1, 76183, Pitch_bend_c, 4, 6144
1, 76190, Pitch_bend_c, 4, 6784
1, 76197, Pitch_bend_c, 4, 7424
1, 76198, Note_off_c, 1, 53, 94
1, 76207, Pitch_bend_c, 4, 7936
1, 76215, Pitch_bend_c, 4, 8192
1, 76223, Note_off_c, 11, 41, 111
1, 76223, Note_on_c, 9, 42, 112
1, 76223, Note_on_c, 9, 69, 104
1, 76224, Note_on_c, 9, 36, 124
1, 76224, Note_on_c, 9, 40, 124
1, 76224, Note_off_c, 9, 42, 100
1, 76224, Note_on_c, 11, 43, 119
1, 76224, Note_on_c, 1, 43, 117
1, 76224, Note_on_c, 2, 57, 116
1, 76224, Note_on_c, 2, 60, 122
1, 76224, Note_on_c, 9, 62, 124
1, 76224, Note_on_c, 2, 65, 120
1, 76224, Note_off_c, 9, 69, 68
1, 76225, Note_off_c, 9, 36, 96
1, 76225, Note_off_c, 9, 40, 96
1, 76225, Note_off_c, 9, 62, 108
1, 76231, Note_off_c, 3, 81, 108
1, 76237, Note_off_c, 4, 69, 101
1, 76247, Pitch_bend_c, 4, 8064
1, 76258, Pitch_bend_c, 4, 6400
1, 76266, Pitch_bend_c, 4, 3840
1, 76272, Note_on_c, 4, 69, 114
1, 76274, Pitch_bend_c, 4, 2688
1, 76275, Note_on_c, 9, 69, 50
1, 76276, Note_off_c, 9, 69, 68
1, 76281, Pitch_bend_c, 4, 3072
1, 76288, Pitch_bend_c, 4, 4352
1, 76295, Pitch_bend_c, 4, 6912
1, 76297, Note_off_c, 2, 65, 110
1, 76300, Note_off_c, 2, 60, 97
1, 76302, Pitch_bend_c, 4, 7680
1, 76304, Note_off_c, 1, 43, 106
1, 76306, Note_off_c, 2, 57, 104
1, 76309, Pitch_bend_c, 4, 7936
1, 76312, Note_off_c, 4, 69, 103
1, 76317, Pitch_bend_c, 4, 8192
1, 76319, Note_on_c, 9, 42, 124
1, 76319, Note_on_c, 9, 69, 96
1, 76320, Note_off_c, 9, 42, 100
1, 76320, Note_on_c, 1, 55, 116
1, 76320, Note_on_c, 9, 64, 116
1, 76320, Note_off_c, 9, 69, 68
1, 76321, Note_off_c, 9, 64, 96
1, 76341, Note_off_c, 1, 55, 99
1, 76345, Pitch_bend_c, 4, 5760
1, 76352, Pitch_bend_c, 4, 3072
1, 76360, Pitch_bend_c, 4, 1024
1, 76368, Note_on_c, 1, 55, 114
1, 76368, Note_on_c, 9, 64, 108
1, 76368, Note_on_c, 4, 69, 114
1, 76369, Note_off_c, 9, 64, 104
1, 76371, Note_on_c, 9, 69, 50
1, 76372, Note_off_c, 9, 69, 68
1, 76376, Pitch_bend_c, 4, 5888
1, 76383, Pitch_bend_c, 4, 7424
1, 76391, Pitch_bend_c, 4, 7808
1, 76394, Note_off_c, 1, 55, 111
1, 76400, Pitch_bend_c, 4, 8192
1, 76415, Note_on_c, 9, 42, 88
1, 76415, Note_off_c, 11, 43, 104
1, 76415, Note_on_c, 9, 69, 104
1, 76416, Note_on_c, 9, 36, 124
1, 76416, Note_off_c, 9, 42, 100
1, 76416, Note_on_c, 11, 45, 117
1, 76416, Note_on_c, 1, 45, 122
1, 76416, Note_on_c, 2, 57, 117
1, 76416, Note_on_c, 2, 60, 122
1, 76416, Note_on_c, 9, 63, 124
1, 76416, Note_on_c, 2, 65, 122
1, 76416, Note_off_c, 9, 69, 84
1, 76417, Note_off_c, 4, 69, 103
1, 76417, Note_off_c, 9, 36, 108
1, 76417, Note_off_c, 9, 63, 96
1, 76464, Note_on_c, 4, 69, 100
1, 76467, Note_on_c, 9, 69, 50
1, 76468, Note_off_c, 9, 69, 84
1, 76482, Note_off_c, 4, 69, 103
1, 76490, Note_off_c, 1, 45, 106
1, 76511, Note_on_c, 9, 46, 124
1, 76511, Note_on_c, 9, 69, 100
1, 76512, Note_off_c, 9, 46, 100
1, 76512, Note_on_c, 1, 57, 116
1, 76512, Note_on_c, 9, 63, 124
1, 76512, Note_off_c, 9, 69, 92
1, 76512, Note_on_c, 4, 70, 104
1, 76513, Note_off_c, 9, 63, 100
1, 76516, Note_off_c, 2, 57, 84
1, 76530, Note_off_c, 4, 70, 92
1, 76537, Note_off_c, 1, 57, 94
1, 76542, Note_off_c, 2, 65, 71
1, 76560, Note_on_c, 1, 57, 108
1, 76560, Note_on_c, 4, 72, 104
1, 76563, Note_on_c, 9, 69, 50
1, 76564, Note_on_c, 2, 57, 97
1, 76564, Note_off_c, 9, 69, 92
1, 76578, Note_off_c, 2, 60, 13
1, 76586, Note_off_c, 1, 57, 110
1, 76591, Note_off_c, 4, 72, 101
1, 76591, Note_off_c, 2, 57, 97
1, 76593, Note_off_c, 12, 69, 106
1, 76599, Note_off_c, 12, 60, 108
1, 76599, Note_off_c, 12, 65, 106
1, 76603, Note_off_c, 0, 65, 110
1, 76604, Note_off_c, 0, 60, 111
1, 76607, Note_on_c, 9, 44, 89
1, 76607, Note_off_c, 11, 45, 108
1, 76607, Note_on_c, 9, 69, 100
1, 76608, Note_on_c, 9, 36, 124
1, 76608, Note_on_c, 9, 40, 80
1, 76608, Note_on_c, 11, 41, 122
1, 76608, Note_on_c, 1, 41, 122
1, 76608, Note_off_c, 9, 44, 100
1, 76608, Note_on_c, 2, 57, 113
1, 76608, Note_on_c, 2, 60, 117
1, 76608, Note_on_c, 9, 62, 124
1, 76608, Note_on_c, 2, 65, 120
1, 76608, Note_off_c, 9, 69, 92
1, 76608, Note_on_c, 4, 69, 110
1, 76609, Note_off_c, 9, 36, 112
1, 76609, Note_off_c, 9, 40, 108
1, 76609, Note_off_c, 9, 62, 104
1, 76610, Note_off_c, 0, 69, 108
1, 76627, Note_off_c, 2, 65, 108
1, 76628, Note_off_c, 2, 60, 110
1, 76641, Note_off_c, 2, 57, 104
1, 76651, Note_off_c, 4, 69, 101
1, 76656, Note_on_c, 9, 40, 105
1, 76656, Note_on_c, 4, 67, 98
1, 76657, Note_off_c, 9, 40, 108
1, 76659, Note_on_c, 9, 69, 50
1, 76660, Note_off_c, 9, 69, 92
1, 76681, Note_off_c, 4, 67, 81
1, 76685, Note_off_c, 1, 41, 110
1, 76697, Pitch_bend_c, 12, 8064
1, 76703, Note_on_c, 9, 69, 100
1, 76704, Note_on_c, 9, 40, 124
1, 76704, Note_on_c, 1, 53, 113
1, 76704, Note_on_c, 9, 64, 112
1, 76704, Note_off_c, 9, 69, 92
1, 76704, Note_on_c, 4, 72, 100
1, 76704, Note_on_c, 2, 57, 79
1, 76704, Note_on_c, 0, 61, 120
1, 76704, Note_off_c, 0, 61, 117
1, 76704, Note_on_c, 2, 62, 87
1, 76704, Pitch_bend_c, 12, 7680
1, 76704, Note_on_c, 12, 62, 120
1, 76704, Note_on_c, 12, 67, 119
1, 76705, Note_off_c, 9, 40, 108
1, 76705, Note_off_c, 9, 64, 104
1, 76705, Note_off_c, 2, 57, 104
1, 76705, Note_off_c, 2, 62, 104
1, 76709, Note_on_c, 0, 67, 114
1, 76711, Pitch_bend_c, 12, 4096
1, 76714, Note_on_c, 0, 62, 120
1, 76718, Pitch_bend_c, 12, 2176
1, 76724, Note_off_c, 4, 72, 96
1, 76725, Note_off_c, 1, 53, 108
1, 76725, Note_on_c, 0, 61, 99
1, 76725, Pitch_bend_c, 12, 1024
1, 76735, Pitch_bend_c, 12, 4864
1, 76736, Note_on_c, 2, 57, 115
1, 76736, Note_on_c, 2, 57, 108
1, 76736, Note_off_c, 2, 57, 114
1, 76737, Note_off_c, 0, 61, 91
1, 76739, Note_off_c, 2, 57, 106
1, 76742, Pitch_bend_c, 12, 6784
1, 76749, Pitch_bend_c, 12, 7552
1, 76752, Note_on_c, 1, 53, 114
1, 76752, Note_on_c, 9, 64, 108
1, 76752, Note_on_c, 4, 69, 107
1, 76753, Note_off_c, 9, 64, 112
1, 76755, Note_on_c, 9, 69, 50
1, 76756, Note_off_c, 9, 69, 92
1, 76756, Pitch_bend_c, 12, 7936
1, 76763, Pitch_bend_c, 12, 8192
1, 76768, Note_off_c, 4, 69, 103
1, 76768, Note_on_c, 2, 62, 113
1, 76768, Note_on_c, 2, 62, 107
1, 76768, Note_off_c, 2, 62, 114
1, 76772, Note_off_c, 2, 62, 106
1, 76779, Note_off_c, 1, 53, 111
1, 76799, Note_off_c, 11, 41, 113
1, 76799, Note_on_c, 9, 69, 96
1, 76800, Note_on_c, 9, 36, 124
1, 76800, Note_on_c, 1, 38, 116
1, 76800, Note_on_c, 9, 49, 124
1, 76800, Note_on_c, 11, 50, 116
1, 76800, Note_on_c, 2, 57, 122
1, 76800, Note_on_c, 2, 62, 124
1, 76800, Note_on_c, 6, 62, 90
1, 76800, Note_on_c, 9, 63, 120
1, 76800, Note_on_c, 2, 65, 123
1, 76800, Note_off_c, 9, 69, 80
1, 76801, Note_off_c, 9, 36, 76
1, 76801, Note_off_c, 9, 49, 100
1, 76801, Note_off_c, 9, 63, 92
1, 76835, Note_off_c, 2, 57, 84
1, 76835, Note_off_c, 2, 62, 111
1, 76851, Note_off_c, 2, 65, 108
1, 76851, Note_on_c, 9, 69, 50
1, 76852, Note_off_c, 9, 69, 80
1, 76865, Note_off_c, 1, 38, 94
1, 76871, Note_off_c, 12, 62, 108
1, 76871, Note_off_c, 12, 67, 108
1, 76895, Note_off_c, 0, 67, 104
1, 76895, Note_on_c, 9, 69, 88
1, 76896, Note_on_c, 1, 50, 114
1, 76896, Note_on_c, 0, 57, 79
1, 76896, Note_on_c, 2, 57, 113
1, 76896, Note_on_c, 0, 60, 86
1, 76896, Note_on_c, 12, 60, 110
1, 76896, Note_on_c, 2, 62, 117
1, 76896, Note_on_c, 9, 63, 116
1, 76896, Note_on_c, 0, 65, 88
1, 76896, Note_on_c, 12, 65, 110
1, 76896, Note_off_c, 9, 69, 76
1, 76897, Note_off_c, 9, 63, 84
1, 76899, Note_off_c, 0, 62, 108
1, 76911, Note_off_c, 2, 62, 119
1, 76912, Note_off_c, 1, 50, 116
1, 76915, Note_off_c, 0, 60, 111
1, 76916, Note_off_c, 0, 65, 111
1, 76919, Note_off_c, 12, 60, 102
1, 76921, Note_off_c, 0, 57, 94
1, 76922, Note_off_c, 12, 65, 94
1, 76923, Note_off_c, 2, 57, 104
1, 76944, Note_on_c, 1, 50, 117
1, 76947, Note_on_c, 9, 69, 50
1, 76948, Note_off_c, 9, 69, 76
1, 76964, Note_off_c, 1, 50, 102
1, 76991, Note_on_c, 9, 42, 7
1, 76991, Note_on_c, 9, 69, 104
1, 76992, Note_on_c, 9, 36, 124
1, 76992, Note_on_c, 1, 38, 117
1, 76992, Note_on_c, 9, 40, 124
1, 76992, Note_off_c, 9, 42, 88
1, 76992, Note_on_c, 2, 57, 122
1, 76992, Note_on_c, 12, 60, 113
1, 76992, Note_on_c, 2, 62, 124
1, 76992, Note_on_c, 4, 62, 102
1, 76992, Note_on_c, 9, 62, 124
1, 76992, Note_on_c, 0, 65, 119
1, 76992, Note_on_c, 2, 65, 124
1, 76992, Note_on_c, 12, 65, 113
1, 76992, Note_off_c, 9, 69, 68
1, 76992, Note_on_c, 0, 69, 124
1, 76992, Note_on_c, 0, 74, 120
1, 76992, Note_on_c, 6, 74, 119
1, 76993, Note_off_c, 9, 36, 96
1, 76993, Note_off_c, 9, 40, 96
1, 76993, Note_off_c, 9, 62, 108
1, 77022, Note_off_c, 2, 57, 108
1, 77024, Note_off_c, 2, 62, 111
1, 77037, Note_off_c, 2, 65, 108
1, 77043, Note_on_c, 9, 69, 50
1, 77044, Note_off_c, 9, 69, 68
1, 77061, Note_off_c, 1, 38, 97
1, 77087, Note_on_c, 9, 42, 112
1, 77087, Note_off_c, 12, 60, 104
1, 77087, Note_on_c, 9, 69, 96
1, 77088, Note_off_c, 9, 42, 88
1, 77088, Note_on_c, 1, 50, 114
1, 77088, Note_on_c, 12, 57, 104
1, 77088, Note_on_c, 12, 62, 111
1, 77088, Note_on_c, 9, 64, 116
1, 77088, Note_off_c, 9, 69, 68
1, 77089, Note_off_c, 9, 64, 96
1, 77105, Note_off_c, 1, 50, 114
1, 77114, Note_off_c, 12, 65, 97
1, 77136, Note_on_c, 1, 50, 114
1, 77136, Note_on_c, 9, 64, 108
1, 77137, Note_off_c, 9, 64, 104
1, 77139, Note_on_c, 9, 69, 50
1, 77140, Note_off_c, 9, 69, 68
1, 77145, Note_off_c, 4, 62, 102
1, 77157, Note_off_c, 1, 50, 94
1, 77173, Note_off_c, 0, 69, 106
1, 77180, Note_off_c, 0, 74, 108
1, 77183, Note_on_c, 9, 42, 52
1, 77183, Note_off_c, 0, 65, 110
1, 77183, Note_on_c, 9, 69, 104
1, 77184, Note_on_c, 9, 36, 124
1, 77184, Note_on_c, 1, 38, 122
1, 77184, Note_off_c, 9, 42, 92
1, 77184, Note_on_c, 2, 57, 122
1, 77184, Note_on_c, 12, 60, 106
1, 77184, Note_on_c, 2, 62, 124
1, 77184, Note_on_c, 9, 63, 124
1, 77184, Note_on_c, 2, 65, 124
1, 77184, Note_on_c, 12, 65, 111
1, 77184, Note_on_c, 4, 65, 111
1, 77184, Note_off_c, 9, 69, 84
1, 77184, Note_on_c, 0, 69, 120
1, 77184, Note_on_c, 0, 74, 120
1, 77184, Note_on_c, 0, 77, 120
1, 77184, Note_on_c, 6, 77, 120
1, 77185, Note_off_c, 9, 36, 108
1, 77185, Note_off_c, 9, 63, 96
1, 77189, Note_off_c, 6, 74, 110
1, 77189, Note_off_c, 12, 57, 108
1, 77201, Note_off_c, 12, 62, 97
1, 77215, Note_off_c, 2, 57, 108
1, 77217, Note_off_c, 2, 62, 111
1, 77235, Note_on_c, 9, 69, 50
1, 77236, Note_off_c, 9, 69, 84
1, 77249, Note_off_c, 1, 38, 97
1, 77261, Note_off_c, 2, 65, 13
1, 77279, Note_on_c, 9, 42, 124
1, 77279, Note_on_c, 9, 69, 100
1, 77280, Note_off_c, 9, 42, 92
1, 77280, Note_on_c, 1, 50, 113
1, 77280, Note_on_c, 9, 63, 124
1, 77280, Note_off_c, 9, 69, 92
1, 77281, Note_off_c, 9, 63, 100
1, 77297, Note_off_c, 1, 50, 113
1, 77328, Note_on_c, 1, 50, 108
1, 77331, Note_on_c, 9, 69, 50
1, 77332, Note_on_c, 2, 57, 99
1, 77332, Note_off_c, 9, 69, 92
1, 77349, Note_off_c, 4, 65, 102
1, 77352, Note_off_c, 1, 50, 97
1, 77358, Note_off_c, 2, 57, 102
1, 77368, Note_off_c, 12, 60, 104
1, 77371, Note_off_c, 12, 65, 106
1, 77373, Note_off_c, 0, 69, 106
1, 77373, Note_off_c, 0, 77, 111
1, 77374, Note_off_c, 0, 74, 102
1, 77375, Note_on_c, 9, 42, 84
1, 77375, Note_on_c, 9, 69, 100
1, 77376, Note_on_c, 9, 36, 124
1, 77376, Note_on_c, 1, 38, 117
1, 77376, Note_on_c, 9, 40, 124
1, 77376, Note_off_c, 6, 77, 106
1, 77376, Note_off_c, 9, 42, 96
1, 77376, Note_on_c, 2, 57, 117
1, 77376, Note_on_c, 12, 57, 114
1, 77376, Note_on_c, 2, 62, 124
1, 77376, Note_on_c, 12, 62, 104
1, 77376, Note_on_c, 9, 62, 124
1, 77376, Note_on_c, 2, 65, 122
1, 77376, Note_off_c, 9, 69, 92
1, 77376, Note_on_c, 4, 69, 108
1, 77376, Note_on_c, 0, 74, 116
1, 77376, Note_on_c, 0, 77, 122
1, 77376, Note_on_c, 0, 81, 120
1, 77376, Note_on_c, 6, 81, 119
1, 77377, Note_off_c, 9, 36, 112
1, 77377, Note_off_c, 9, 40, 108
1, 77377, Note_off_c, 9, 62, 104
1, 77402, Note_off_c, 12, 62, 94
1, 77404, Note_off_c, 2, 57, 110
1, 77404, Note_off_c, 2, 62, 111
1, 77427, Note_on_c, 9, 69, 50
1, 77428, Note_off_c, 9, 69, 92
1, 77432, Note_off_c, 2, 65, 91
1, 77436, Note_off_c, 12, 57, 99
1, 77441, Pitch_bend_c, 12, 7808
1, 77446, Note_off_c, 1, 38, 102
1, 77451, Pitch_bend_c, 12, 6400
1, 77458, Pitch_bend_c, 12, 3584
1, 77465, Pitch_bend_c, 12, 1792
1, 77471, Note_on_c, 9, 42, 124
1, 77471, Note_on_c, 9, 69, 100
1, 77472, Note_off_c, 9, 42, 96
1, 77472, Note_on_c, 1, 50, 116
1, 77472, Note_on_c, 12, 62, 119
1, 77472, Note_on_c, 9, 64, 112
1, 77472, Note_on_c, 12, 67, 116
1, 77472, Note_off_c, 9, 69, 92
1, 77473, Note_off_c, 9, 64, 104
1, 77474, Pitch_bend_c, 12, 1280
1, 77485, Pitch_bend_c, 12, 5888
1, 77490, Note_off_c, 1, 50, 113
1, 77492, Pitch_bend_c, 12, 7424
1, 77499, Pitch_bend_c, 12, 7808
1, 77508, Pitch_bend_c, 12, 8192
1, 77520, Note_on_c, 1, 50, 119
1, 77520, Note_on_c, 9, 64, 108
1, 77520, Note_off_c, 4, 69, 108
1, 77521, Note_off_c, 9, 64, 112
1, 77523, Note_on_c, 9, 69, 50
1, 77524, Note_off_c, 9, 69, 92
1, 77538, Note_off_c, 1, 50, 97
1, 77542, Pitch_bend_c, 4, 7424
1, 77551, Pitch_bend_c, 4, 5248
1, 77558, Pitch_bend_c, 4, 3328
1, 77562, Note_off_c, 0, 77, 111
1, 77562, Note_off_c, 0, 81, 110
1, 77565, Pitch_bend_c, 4, 2816
1, 77567, Note_on_c, 9, 42, 76
1, 77567, Note_on_c, 9, 69, 96
1, 77567, Note_off_c, 0, 74, 110
1, 77568, Note_on_c, 9, 36, 124
1, 77568, Note_on_c, 1, 38, 120
1, 77568, Note_off_c, 9, 42, 100
1, 77568, Note_on_c, 2, 57, 122
1, 77568, Note_on_c, 2, 62, 124
1, 77568, Note_on_c, 9, 63, 120
1, 77568, Note_on_c, 2, 65, 124
1, 77568, Note_off_c, 9, 69, 80
1, 77568, Note_on_c, 4, 72, 108
1, 77568, Note_on_c, 0, 77, 119
1, 77568, Note_on_c, 0, 81, 122
1, 77568, Note_on_c, 0, 84, 122
1, 77568, Note_on_c, 6, 84, 122
1, 77569, Note_off_c, 9, 36, 76
1, 77569, Note_off_c, 9, 63, 92
1, 77570, Note_off_c, 6, 81, 110
1, 77574, Pitch_bend_c, 4, 5248
1, 77581, Pitch_bend_c, 4, 6656
1, 77588, Pitch_bend_c, 4, 7680
1, 77595, Pitch_bend_c, 4, 7936
1, 77598, Note_off_c, 2, 62, 111
1, 77600, Note_off_c, 2, 57, 110
1, 77602, Note_off_c, 2, 65, 110
1, 77602, Pitch_bend_c, 4, 8192
1, 77619, Note_on_c, 9, 69, 50
1, 77620, Note_off_c, 9, 69, 80
1, 77633, Note_off_c, 1, 38, 102
1, 77663, Note_on_c, 9, 42, 124
1, 77663, Note_on_c, 9, 69, 88
1, 77664, Note_off_c, 9, 42, 100
1, 77664, Note_on_c, 1, 50, 116
1, 77664, Note_on_c, 2, 57, 111
1, 77664, Note_on_c, 12, 60, 113
1, 77664, Note_on_c, 2, 62, 119
1, 77664, Note_on_c, 9, 63, 116
1, 77664, Note_on_c, 2, 65, 117
1, 77664, Note_on_c, 12, 65, 111
1, 77664, Note_off_c, 9, 69, 76
1, 77665, Note_off_c, 9, 63, 84
1, 77671, Note_off_c, 12, 62, 108
1, 77677, Note_off_c, 12, 67, 108
1, 77682, Note_off_c, 1, 50, 111
1, 77684, Note_off_c, 12, 60, 99
1, 77688, Note_off_c, 12, 65, 97
1, 77689, Note_off_c, 2, 57, 102
1, 77691, Note_off_c, 2, 62, 113
1, 77695, Note_off_c, 2, 65, 108
1, 77712, Note_on_c, 1, 50, 120
1, 77715, Note_on_c, 9, 69, 50
1, 77716, Note_off_c, 9, 69, 76
1, 77727, Note_off_c, 1, 50, 111
1, 77759, Note_on_c, 9, 42, 80
1, 77759, Note_on_c, 9, 69, 104
1, 77760, Note_on_c, 9, 36, 124
1, 77760, Note_on_c, 1, 38, 122
1, 77760, Note_on_c, 9, 40, 124
1, 77760, Note_off_c, 9, 42, 96
1, 77760, Note_on_c, 2, 57, 119
1, 77760, Note_on_c, 12, 60, 113
1, 77760, Note_on_c, 2, 62, 124
1, 77760, Note_on_c, 9, 62, 124
1, 77760, Note_on_c, 2, 65, 124
1, 77760, Note_on_c, 12, 65, 114
1, 77760, Note_off_c, 9, 69, 68
1, 77761, Note_off_c, 9, 36, 96
1, 77761, Note_off_c, 9, 40, 96
1, 77761, Note_off_c, 9, 62, 108
1, 77790, Note_off_c, 2, 57, 108
1, 77790, Note_off_c, 2, 62, 113
1, 77798, Note_off_c, 2, 65, 111
1, 77811, Note_on_c, 9, 69, 50
1, 77812, Note_off_c, 9, 69, 68
1, 77833, Note_off_c, 1, 38, 102
1, 77848, Note_off_c, 12, 60, 108
1, 77855, Note_on_c, 9, 42, 124
1, 77855, Note_on_c, 9, 69, 96
1, 77856, Note_off_c, 9, 42, 96
1, 77856, Note_on_c, 1, 50, 116
1, 77856, Note_on_c, 12, 57, 106
1, 77856, Note_on_c, 12, 62, 108
1, 77856, Note_on_c, 9, 64, 116
1, 77856, Note_off_c, 9, 69, 68
1, 77857, Note_off_c, 9, 64, 96
1, 77873, Note_off_c, 1, 50, 113
1, 77879, Note_off_c, 12, 65, 102
1, 77904, Note_on_c, 1, 50, 116
1, 77904, Note_on_c, 9, 64, 108
1, 77905, Note_off_c, 9, 64, 104
1, 77907, Note_on_c, 9, 69, 50
1, 77908, Note_off_c, 9, 69, 68
1, 77917, Pitch_bend_c, 4, 7936
1, 77925, Note_off_c, 1, 50, 99
1, 77926, Pitch_bend_c, 4, 7552
1, 77927, Note_off_c, 4, 72, 102
1, 77936, Pitch_bend_c, 4, 7808
1, 77943, Pitch_bend_c, 4, 7936
1, 77947, Note_off_c, 0, 77, 110
1, 77949, Note_off_c, 0, 81, 110
1, 77950, Note_off_c, 0, 84, 104
1, 77950, Pitch_bend_c, 4, 8192
1, 77951, Note_on_c, 9, 42, 92
1, 77951, Note_on_c, 9, 69, 104
1, 77952, Note_on_c, 9, 36, 124
1, 77952, Note_on_c, 1, 38, 122
1, 77952, Note_off_c, 9, 42, 100
1, 77952, Note_on_c, 2, 57, 120
1, 77952, Note_on_c, 12, 60, 110
1, 77952, Note_on_c, 2, 62, 123
1, 77952, Note_on_c, 9, 63, 124
1, 77952, Note_on_c, 2, 65, 122
1, 77952, Note_on_c, 12, 65, 114
1, 77952, Note_off_c, 9, 69, 84
1, 77952, Note_on_c, 4, 69, 102
1, 77952, Note_on_c, 0, 74, 117
1, 77952, Note_on_c, 0, 77, 122
1, 77952, Note_on_c, 0, 81, 120
1, 77952, Note_on_c, 6, 81, 120
1, 77953, Note_off_c, 6, 84, 110
1, 77953, Note_off_c, 9, 36, 108
1, 77953, Note_off_c, 9, 63, 96
1, 77956, Note_off_c, 12, 57, 106
1, 77964, Note_off_c, 12, 62, 106
1, 77977, Note_off_c, 2, 62, 113
1, 77981, Note_off_c, 2, 57, 108
1, 77981, Note_off_c, 2, 65, 111
1, 78003, Note_on_c, 9, 69, 50
1, 78004, Note_off_c, 9, 69, 84
1, 78005, Control_c, 4, 1, 6
1, 78010, Note_off_c, 1, 38, 91
1, 78027, Control_c, 4, 1, 11
1, 78042, Control_c, 4, 1, 19
1, 78047, Note_on_c, 9, 42, 124
1, 78047, Note_on_c, 9, 69, 100
1, 78048, Note_off_c, 9, 42, 96
1, 78048, Note_on_c, 1, 50, 114
1, 78048, Note_on_c, 2, 57, 113
1, 78048, Note_on_c, 2, 62, 122
1, 78048, Note_on_c, 9, 63, 124
1, 78048, Note_on_c, 2, 65, 122
1, 78048, Note_off_c, 9, 69, 92
1, 78049, Note_off_c, 9, 63, 100
1, 78059, Control_c, 4, 1, 33
1, 78067, Note_off_c, 1, 50, 108
1, 78072, Note_off_c, 2, 57, 102
1, 78076, Control_c, 4, 1, 45
1, 78091, Control_c, 4, 1, 53
1, 78096, Note_on_c, 1, 50, 113
1, 78099, Note_on_c, 9, 69, 50
1, 78100, Note_on_c, 2, 57, 97
1, 78100, Note_off_c, 9, 69, 92
1, 78106, Control_c, 4, 1, 60
1, 78114, Note_off_c, 2, 65, 104
1, 78118, Note_off_c, 1, 50, 104
1, 78123, Note_off_c, 2, 62, 108
1, 78126, Control_c, 4, 1, 64
1, 78128, Note_off_c, 12, 60, 106
1, 78143, Note_on_c, 9, 42, 96
1, 78143, Note_on_c, 9, 69, 100
1, 78144, Note_on_c, 9, 36, 124
1, 78144, Note_on_c, 1, 38, 117
1, 78144, Note_on_c, 9, 40, 124
1, 78144, Note_off_c, 9, 42, 100
1, 78144, Note_on_c, 12, 57, 110
1, 78144, Note_on_c, 2, 62, 114
1, 78144, Note_on_c, 12, 62, 108
1, 78144, Note_on_c, 9, 62, 124
1, 78144, Note_on_c, 2, 65, 123
1, 78144, Note_off_c, 9, 69, 92
1, 78145, Note_off_c, 9, 36, 112
1, 78145, Note_off_c, 9, 40, 108
1, 78145, Note_off_c, 9, 62, 104
1, 78151, Note_off_c, 12, 65, 106
1, 78173, Note_off_c, 2, 57, 108
1, 78179, Note_off_c, 2, 62, 113
1, 78182, Note_off_c, 2, 65, 111
1, 78189, Note_off_c, 12, 62, 104
1, 78195, Note_on_c, 9, 69, 50
1, 78196, Note_off_c, 9, 69, 92
1, 78206, Note_off_c, 12, 57, 104
1, 78211, Note_off_c, 1, 38, 91
1, 78218, Pitch_bend_c, 12, 8064
1, 78225, Pitch_bend_c, 12, 7808
1, 78232, Pitch_bend_c, 12, 4992
1, 78239, Note_on_c, 9, 42, 124
1, 78239, Note_on_c, 9, 69, 100
1, 78240, Note_off_c, 9, 42, 100
1, 78240, Note_on_c, 1, 50, 116
1, 78240, Note_on_c, 12, 62, 119
1, 78240, Note_on_c, 9, 64, 112
1, 78240, Note_on_c, 12, 67, 116
1, 78240, Note_off_c, 9, 69, 92
1, 78241, Note_off_c, 9, 64, 104
1, 78241, Pitch_bend_c, 12, 2816
1, 78248, Pitch_bend_c, 12, 3840
1, 78254, Control_c, 4, 1, 63
1, 78258, Pitch_bend_c, 12, 6784
1, 78261, Note_off_c, 4, 69, 110
1, 78265, Note_off_c, 1, 50, 108
1, 78265, Pitch_bend_c, 12, 7552
1, 78270, Control_c, 4, 1, 58
1, 78272, Pitch_bend_c, 12, 7936
1, 78279, Pitch_bend_c, 12, 8192
1, 78287, Control_c, 4, 1, 41
1, 78288, Note_on_c, 1, 50, 110
1, 78288, Note_on_c, 9, 64, 108
1, 78289, Note_off_c, 9, 64, 112
1, 78291, Note_on_c, 9, 69, 50
1, 78292, Note_off_c, 9, 69, 92
1, 78302, Control_c, 4, 1, 7
1, 78316, Note_off_c, 1, 50, 110
1, 78319, Control_c, 4, 1, 0
1, 78335, Note_on_c, 9, 42, 76
1, 78335, Note_off_c, 11, 50, 108
1, 78335, Note_off_c, 6, 62, 113
1, 78335, Note_on_c, 9, 69, 96
1, 78336, Note_on_c, 9, 36, 124
1, 78336, Note_on_c, 11, 41, 116
1, 78336, Note_on_c, 1, 41, 122
1, 78336, Note_off_c, 9, 42, 96
1, 78336, Note_on_c, 2, 57, 114
1, 78336, Note_on_c, 2, 60, 119
1, 78336, Note_on_c, 9, 63, 120
1, 78336, Note_on_c, 2, 65, 117
1, 78336, Note_on_c, 6, 65, 90
1, 78336, Note_off_c, 9, 69, 80
1, 78337, Note_off_c, 9, 36, 76
1, 78337, Note_off_c, 9, 63, 92
1, 78352, Note_off_c, 2, 60, 111
1, 78354, Note_off_c, 0, 74, 108
1, 78360, Note_off_c, 2, 57, 104
1, 78363, Note_off_c, 2, 65, 108
1, 78366, Note_off_c, 0, 81, 110
1, 78387, Note_on_c, 9, 69, 50
1, 78388, Note_off_c, 9, 69, 80
1, 78398, Note_off_c, 6, 81, 110
1, 78400, Pitch_bend_c, 4, 7936
1, 78407, Note_off_c, 1, 41, 108
1, 78407, Pitch_bend_c, 4, 6784
1, 78410, Note_off_c, 0, 77, 110
1, 78414, Pitch_bend_c, 4, 3968
1, 78421, Pitch_bend_c, 4, 1408
1, 78428, Note_off_c, 12, 62, 108
1, 78429, Pitch_bend_c, 4, 640
1, 78430, Note_off_c, 12, 67, 108
1, 78431, Note_on_c, 9, 42, 124
1, 78431, Note_on_c, 9, 69, 88
1, 78432, Note_off_c, 9, 42, 100
1, 78432, Note_on_c, 1, 53, 113
1, 78432, Note_on_c, 2, 57, 116
1, 78432, Note_on_c, 2, 60, 116
1, 78432, Note_on_c, 12, 60, 111
1, 78432, Note_on_c, 9, 63, 116
1, 78432, Note_on_c, 2, 65, 110
1, 78432, Note_on_c, 12, 65, 113
1, 78432, Note_off_c, 9, 69, 76
1, 78432, Note_on_c, 4, 70, 117
1, 78432, Note_on_c, 0, 74, 114
1, 78432, Note_on_c, 0, 79, 114
1, 78432, Note_on_c, 0, 82, 114
1, 78432, Note_on_c, 6, 82, 117
1, 78433, Note_off_c, 9, 63, 84
1, 78437, Pitch_bend_c, 4, 1536
1, 78446, Note_off_c, 2, 60, 116
1, 78447, Pitch_bend_c, 4, 6528
1, 78453, Note_off_c, 1, 53, 108
1, 78454, Pitch_bend_c, 4, 7424
1, 78455, Note_off_c, 2, 65, 108
1, 78459, Note_off_c, 2, 57, 104
1, 78461, Note_off_c, 12, 60, 104
1, 78461, Pitch_bend_c, 4, 7936
1, 78466, Note_off_c, 12, 65, 110
1, 78469, Pitch_bend_c, 4, 8192
1, 78475, Note_off_c, 0, 79, 106
1, 78476, Note_off_c, 0, 74, 104
1, 78476, Note_off_c, 0, 82, 106
1, 78478, Note_off_c, 4, 70, 102
1, 78478, Note_off_c, 6, 82, 106
1, 78480, Note_on_c, 1, 53, 113
1, 78480, Note_on_c, 4, 69, 110
1, 78480, Note_on_c, 0, 72, 113
1, 78480, Note_on_c, 0, 77, 114
1, 78480, Note_on_c, 0, 81, 111
1, 78480, Note_on_c, 6, 81, 116
1, 78483, Note_on_c, 9, 69, 50
1, 78484, Note_off_c, 9, 69, 76
1, 78503, Note_off_c, 1, 53, 99
1, 78516, Note_off_c, 4, 69, 99
1, 78524, Note_off_c, 0, 72, 108
1, 78524, Note_off_c, 0, 81, 104
1, 78525, Note_off_c, 0, 77, 104
1, 78527, Note_on_c, 9, 42, 92
1, 78527, Note_on_c, 9, 69, 104
1, 78528, Note_on_c, 9, 36, 124
1, 78528, Note_on_c, 9, 40, 124
1, 78528, Note_on_c, 1, 41, 120
1, 78528, Note_off_c, 9, 42, 100
1, 78528, Note_on_c, 2, 57, 119
1, 78528, Note_on_c, 2, 60, 123
1, 78528, Note_on_c, 12, 60, 114
1, 78528, Note_on_c, 9, 62, 124
1, 78528, Note_on_c, 2, 65, 122
1, 78528, Note_on_c, 12, 65, 114
1, 78528, Note_off_c, 9, 69, 68
1, 78528, Note_on_c, 4, 70, 106
1, 78528, Note_on_c, 0, 74, 113
1, 78528, Note_on_c, 0, 79, 113
1, 78528, Note_on_c, 0, 82, 116
1, 78528, Note_on_c, 6, 82, 117
1, 78529, Note_off_c, 6, 81, 111
1, 78529, Note_off_c, 9, 36, 96
1, 78529, Note_off_c, 9, 40, 96
1, 78529, Note_off_c, 9, 62, 108
1, 78569, Note_off_c, 0, 82, 99
1, 78571, Note_off_c, 0, 79, 94
1, 78573, Note_off_c, 4, 70, 99
1, 78573, Note_off_c, 0, 74, 76
1, 78576, Note_on_c, 4, 69, 108
1, 78576, Note_on_c, 0, 72, 113
1, 78576, Note_on_c, 0, 77, 114
1, 78576, Note_on_c, 0, 81, 113
1, 78576, Note_on_c, 6, 81, 113
1, 78579, Note_on_c, 9, 69, 50
1, 78580, Note_off_c, 6, 82, 104
1, 78580, Note_off_c, 9, 69, 68
1, 78597, Note_off_c, 2, 57, 106
1, 78597, Note_off_c, 1, 41, 108
1, 78600, Note_off_c, 2, 60, 111
1, 78600, Note_off_c, 2, 65, 110
1, 78613, Note_off_c, 4, 69, 110
1, 78616, Note_off_c, 0, 72, 108
1, 78616, Note_off_c, 0, 81, 108
1, 78620, Note_off_c, 12, 60, 110
1, 78622, Note_off_c, 0, 77, 110
1, 78623, Note_on_c, 9, 42, 124
1, 78623, Note_on_c, 9, 69, 96
1, 78624, Note_off_c, 12, 65, 104
1, 78624, Note_off_c, 6, 81, 111
1, 78624, Note_off_c, 9, 42, 92
1, 78624, Note_on_c, 1, 53, 113
1, 78624, Note_on_c, 12, 57, 111
1, 78624, Note_on_c, 12, 62, 113
1, 78624, Note_on_c, 9, 64, 116
1, 78624, Note_on_c, 4, 65, 111
1, 78624, Note_off_c, 9, 69, 68
1, 78624, Note_on_c, 0, 69, 113
1, 78624, Note_on_c, 0, 72, 114
1, 78624, Note_on_c, 0, 77, 113
1, 78624, Note_on_c, 6, 77, 119
1, 78625, Note_off_c, 9, 64, 96
1, 78646, Note_off_c, 1, 53, 108
1, 78664, Note_off_c, 0, 69, 106
1, 78667, Note_off_c, 0, 72, 108
1, 78667, Note_off_c, 0, 77, 111
1, 78671, Note_off_c, 4, 65, 106
1, 78672, Note_on_c, 1, 53, 113
1, 78672, Note_on_c, 4, 62, 113
1, 78672, Note_on_c, 9, 64, 108
1, 78672, Note_on_c, 0, 67, 111
1, 78672, Note_on_c, 0, 69, 110
1, 78672, Note_on_c, 0, 74, 114
1, 78672, Note_on_c, 6, 74, 117
1, 78673, Note_off_c, 9, 64, 104
1, 78675, Note_on_c, 9, 69, 50
1, 78676, Note_off_c, 9, 69, 68
1, 78677, Note_off_c, 6, 77, 113
1, 78693, Note_off_c, 4, 62, 102
1, 78694, Note_off_c, 1, 53, 104
1, 78707, Pitch_bend_c, 4, 7424
1, 78713, Note_off_c, 0, 67, 110
1, 78714, Pitch_bend_c, 4, 6144
1, 78717, Note_off_c, 0, 74, 108
1, 78718, Note_off_c, 0, 69, 104
1, 78719, Note_on_c, 9, 42, 84
1, 78719, Note_on_c, 9, 69, 104
1, 78720, Note_on_c, 9, 36, 124
1, 78720, Note_on_c, 1, 41, 122
1, 78720, Note_off_c, 9, 42, 96
1, 78720, Note_on_c, 2, 57, 113
1, 78720, Note_on_c, 2, 60, 122
1, 78720, Note_on_c, 12, 60, 111
1, 78720, Note_on_c, 9, 63, 124
1, 78720, Note_on_c, 2, 65, 120
1, 78720, Note_on_c, 12, 65, 113
1, 78720, Note_off_c, 9, 69, 84
1, 78720, Note_on_c, 0, 69, 119
1, 78720, Note_on_c, 0, 72, 119
1, 78720, Note_on_c, 0, 77, 120
1, 78720, Note_on_c, 4, 77, 114
1, 78720, Note_on_c, 6, 77, 120
1, 78721, Note_off_c, 12, 57, 108
1, 78721, Note_off_c, 9, 36, 108
1, 78721, Note_off_c, 9, 63, 96
1, 78722, Pitch_bend_c, 4, 2048
1, 78726, Note_off_c, 12, 62, 108
1, 78730, Note_off_c, 6, 74, 108
1, 78730, Pitch_bend_c, 4, 6656
1, 78738, Pitch_bend_c, 4, 6912
1, 78745, Pitch_bend_c, 4, 7552
1, 78752, Pitch_bend_c, 4, 7936
1, 78759, Pitch_bend_c, 4, 8192
1, 78771, Note_on_c, 9, 69, 50
1, 78772, Note_off_c, 9, 69, 84
1, 78776, Note_off_c, 4, 77, 102
1, 78790, Note_off_c, 1, 41, 106
1, 78815, Note_on_c, 9, 42, 124
1, 78815, Note_on_c, 9, 69, 100
1, 78816, Note_off_c, 9, 42, 100
1, 78816, Note_on_c, 1, 53, 110
1, 78816, Note_on_c, 9, 63, 124
1, 78816, Note_off_c, 9, 69, 92
1, 78816, Note_on_c, 4, 77, 108
1, 78817, Note_off_c, 9, 63, 100
1, 78819, Note_off_c, 2, 57, 71
1, 78837, Note_off_c, 1, 53, 108
1, 78844, Note_off_c, 2, 65, 66
1, 78857, Note_off_c, 4, 77, 97
1, 78864, Note_on_c, 1, 53, 108
1, 78864, Note_on_c, 4, 72, 113
1, 78867, Note_on_c, 9, 69, 50
1, 78868, Note_on_c, 2, 57, 102
1, 78868, Note_off_c, 9, 69, 92
1, 78874, Note_off_c, 2, 60, 66
1, 78892, Note_off_c, 1, 53, 108
1, 78900, Note_off_c, 4, 72, 106
1, 78906, Note_off_c, 12, 60, 108
1, 78911, Note_on_c, 9, 42, 100
1, 78911, Note_on_c, 9, 69, 100
1, 78912, Note_on_c, 9, 36, 124
1, 78912, Note_on_c, 9, 40, 124
1, 78912, Note_on_c, 1, 41, 120
1, 78912, Note_off_c, 9, 42, 100
1, 78912, Note_on_c, 12, 57, 108
1, 78912, Note_on_c, 2, 60, 122
1, 78912, Note_on_c, 12, 62, 113
1, 78912, Note_on_c, 9, 62, 124
1, 78912, Note_on_c, 2, 65, 120
1, 78912, Note_off_c, 9, 69, 92
1, 78912, Note_on_c, 4, 69, 114
1, 78913, Note_off_c, 12, 65, 97
1, 78913, Note_off_c, 9, 36, 112
1, 78913, Note_off_c, 9, 40, 108
1, 78913, Note_off_c, 9, 62, 104
1, 78936, Note_off_c, 2, 65, 108
1, 78943, Note_off_c, 4, 69, 110
1, 78951, Note_off_c, 2, 60, 108
1, 78960, Note_on_c, 4, 65, 91
1, 78961, Note_off_c, 2, 57, 102
1, 78963, Note_on_c, 9, 69, 50
1, 78964, Note_off_c, 9, 69, 92
1, 78978, Note_off_c, 1, 41, 106
1, 78991, Note_off_c, 4, 65, 113
1, 79006, Note_off_c, 12, 62, 108
1, 79007, Note_on_c, 9, 42, 124
1, 79007, Note_on_c, 9, 69, 100
1, 79008, Note_off_c, 9, 42, 100
1, 79008, Note_on_c, 12, 53, 108
1, 79008, Note_on_c, 1, 53, 113
1, 79008, Note_on_c, 12, 60, 114
1, 79008, Note_on_c, 9, 64, 112
1, 79008, Note_off_c, 9, 69, 92
1, 79009, Note_off_c, 9, 64, 104
1, 79028, Note_off_c, 1, 53, 111
1, 79056, Note_on_c, 1, 53, 114
1, 79056, Note_on_c, 9, 64, 108
1, 79057, Note_off_c, 9, 64, 112
1, 79059, Note_on_c, 9, 69, 50
1, 79060, Note_off_c, 9, 69, 92
1, 79083, Note_off_c, 1, 53, 108
1, 79103, Note_on_c, 9, 42, 92
1, 79103, Note_on_c, 9, 69, 96
1, 79104, Note_on_c, 9, 36, 124
1, 79104, Note_on_c, 1, 41, 120
1, 79104, Note_off_c, 9, 42, 100
1, 79104, Note_on_c, 2, 57, 108
1, 79104, Note_on_c, 2, 60, 119
1, 79104, Note_on_c, 9, 63, 120
1, 79104, Note_on_c, 2, 65, 117
1, 79104, Note_off_c, 9, 69, 80
1, 79105, Note_off_c, 9, 36, 76
1, 79105, Note_off_c, 9, 63, 92
1, 79131, Note_off_c, 2, 57, 104
1, 79133, Note_off_c, 2, 60, 111
1, 79136, Note_off_c, 2, 65, 110
1, 79147, Note_off_c, 6, 77, 111
1, 79155, Note_on_c, 9, 69, 50
1, 79156, Note_off_c, 9, 69, 80
1, 79179, Note_off_c, 0, 77, 111
1, 79184, Pitch_bend_c, 4, 6272
1, 79189, Note_off_c, 1, 41, 99
1, 79192, Pitch_bend_c, 4, 3072
1, 79195, Note_off_c, 0, 69, 110
1, 79199, Pitch_bend_c, 4, 1408
1, 79199, Note_on_c, 9, 42, 124
1, 79199, Note_on_c, 9, 69, 88
1, 79200, Note_off_c, 9, 42, 100
1, 79200, Note_on_c, 1, 53, 114
1, 79200, Note_on_c, 2, 57, 113
1, 79200, Note_on_c, 2, 60, 120
1, 79200, Note_on_c, 9, 63, 116
1, 79200, Note_on_c, 2, 65, 117
1, 79200, Note_on_c, 4, 67, 116
1, 79200, Note_off_c, 9, 69, 76
1, 79200, Note_on_c, 0, 70, 110
1, 79200, Note_on_c, 0, 74, 113
1, 79200, Note_on_c, 0, 79, 114
1, 79200, Note_on_c, 6, 79, 116
1, 79201, Note_off_c, 9, 63, 84
1, 79202, Note_off_c, 0, 72, 110
1, 79207, Pitch_bend_c, 4, 2688
1, 79214, Pitch_bend_c, 4, 6400
1, 79221, Pitch_bend_c, 4, 7552
1, 79223, Note_off_c, 2, 60, 108
1, 79226, Note_off_c, 2, 57, 106
1, 79226, Note_off_c, 1, 53, 108
1, 79228, Pitch_bend_c, 4, 7936
1, 79229, Note_off_c, 2, 65, 102
1, 79235, Pitch_bend_c, 4, 8192
1, 79240, Note_off_c, 4, 67, 104
1, 79242, Note_off_c, 0, 79, 108
1, 79244, Note_off_c, 0, 70, 104
1, 79247, Note_off_c, 0, 74, 108
1, 79248, Note_on_c, 1, 53, 108
1, 79248, Note_on_c, 4, 65, 104
1, 79248, Note_on_c, 0, 69, 110
1, 79248, Note_on_c, 0, 72, 108
1, 79248, Note_on_c, 0, 77, 114
1, 79248, Note_on_c, 6, 77, 116
1, 79248, Note_off_c, 6, 79, 108
1, 79251, Note_on_c, 9, 69, 50
1, 79252, Note_off_c, 9, 69, 76
1, 79277, Note_off_c, 1, 53, 108
1, 79280, Note_off_c, 4, 65, 106
1, 79288, Note_off_c, 0, 77, 110
1, 79289, Note_off_c, 0, 72, 108
1, 79295, Note_off_c, 11, 41, 104
1, 79295, Note_on_c, 9, 42, 100
1, 79295, Note_off_c, 0, 69, 102
1, 79295, Note_on_c, 9, 69, 104
1, 79296, Note_on_c, 9, 36, 124
1, 79296, Note_on_c, 9, 40, 124
1, 79296, Note_off_c, 9, 42, 100
1, 79296, Note_on_c, 11, 43, 119
1, 79296, Note_on_c, 1, 43, 119
1, 79296, Note_on_c, 2, 57, 116
1, 79296, Note_on_c, 2, 60, 122
1, 79296, Note_on_c, 9, 62, 124
1, 79296, Note_on_c, 2, 65, 120
1, 79296, Note_on_c, 4, 67, 113
1, 79296, Note_off_c, 9, 69, 68
1, 79296, Note_on_c, 0, 70, 111
1, 79296, Note_on_c, 0, 74, 113
1, 79296, Note_on_c, 0, 79, 111
1, 79296, Note_on_c, 6, 79, 116
1, 79297, Note_off_c, 9, 36, 96
1, 79297, Note_off_c, 9, 40, 96
1, 79297, Note_off_c, 9, 62, 108
1, 79300, Note_off_c, 6, 77, 111
1, 79338, Note_off_c, 0, 79, 102
1, 79342, Note_off_c, 0, 70, 99
1, 79343, Note_off_c, 0, 74, 97
1, 79344, Note_on_c, 4, 65, 111
1, 79344, Note_on_c, 0, 69, 108
1, 79344, Note_on_c, 0, 72, 114
1, 79344, Note_on_c, 0, 77, 116
1, 79344, Note_on_c, 6, 77, 111
1, 79347, Note_on_c, 9, 69, 50
1, 79348, Note_off_c, 9, 69, 68
1, 79351, Note_off_c, 6, 79, 108
1, 79355, Note_off_c, 4, 67, 88
1, 79366, Note_off_c, 1, 43, 104
1, 79369, Note_off_c, 2, 65, 110
1, 79372, Note_off_c, 2, 60, 97
1, 79377, Note_off_c, 4, 65, 108
1, 79378, Note_off_c, 2, 57, 104
1, 79386, Note_off_c, 0, 69, 108
1, 79390, Note_off_c, 0, 72, 111
1, 79391, Note_on_c, 9, 46, 124
1, 79391, Note_on_c, 9, 69, 96
1, 79391, Note_off_c, 0, 77, 113
1, 79392, Note_off_c, 9, 46, 104
1, 79392, Note_on_c, 1, 55, 113
1, 79392, Note_on_c, 4, 62, 108
1, 79392, Note_on_c, 9, 64, 116
1, 79392, Note_on_c, 0, 65, 114
1, 79392, Note_off_c, 9, 69, 68
1, 79392, Note_on_c, 0, 69, 116
1, 79392, Note_on_c, 0, 74, 114
1, 79392, Note_on_c, 6, 74, 116
1, 79393, Note_off_c, 9, 64, 96
1, 79396, Note_off_c, 6, 77, 108
1, 79412, Note_off_c, 1, 55, 111
1, 79426, Note_off_c, 4, 62, 84
1, 79433, Note_off_c, 0, 74, 108
1, 79437, Note_off_c, 0, 65, 110
1, 79437, Note_off_c, 0, 69, 108
1, 79440, Note_on_c, 1, 55, 108
1, 79440, Note_on_c, 4, 60, 114
1, 79440, Note_on_c, 0, 62, 117
1, 79440, Note_on_c, 9, 64, 108
1, 79440, Note_on_c, 0, 67, 113
1, 79440, Note_on_c, 0, 72, 110
1, 79440, Note_on_c, 6, 72, 116
1, 79441, Note_off_c, 9, 64, 104
1, 79443, Note_on_c, 9, 69, 50
1, 79443, Note_off_c, 6, 74, 106
1, 79444, Note_off_c, 9, 69, 68
1, 79467, Note_off_c, 1, 55, 110
1, 79468, Note_off_c, 4, 60, 104
1, 79483, Note_off_c, 0, 72, 110
1, 79484, Pitch_bend_c, 4, 8320
1, 79486, Note_off_c, 0, 62, 110
1, 79486, Note_off_c, 0, 67, 110
1, 79487, Note_off_c, 11, 43, 102
1, 79487, Note_on_c, 9, 44, 92
1, 79487, Note_on_c, 9, 69, 104
1, 79488, Note_on_c, 9, 36, 124
1, 79488, Note_on_c, 9, 40, 124
1, 79488, Note_off_c, 9, 44, 100
1, 79488, Note_on_c, 11, 45, 116
1, 79488, Note_on_c, 1, 45, 122
1, 79488, Note_on_c, 2, 57, 117
1, 79488, Note_on_c, 2, 60, 122
1, 79488, Note_on_c, 9, 63, 124
1, 79488, Note_on_c, 0, 65, 120
1, 79488, Note_on_c, 2, 65, 122
1, 79488, Note_on_c, 4, 67, 113
1, 79488, Note_off_c, 9, 69, 84
1, 79488, Note_on_c, 0, 69, 120
1, 79488, Note_on_c, 0, 74, 116
1, 79488, Note_on_c, 6, 74, 117
1, 79489, Note_off_c, 9, 36, 108
1, 79489, Note_off_c, 9, 40, 108
1, 79489, Note_off_c, 9, 63, 96
1, 79490, Note_off_c, 6, 72, 110
1, 79498, Pitch_bend_c, 4, 11008
1, 79506, Pitch_bend_c, 4, 14720
1, 79514, Pitch_bend_c, 4, 15744
1, 79521, Pitch_bend_c, 4, 16000
1, 79529, Pitch_bend_c, 4, 16256
1, 79536, Note_on_c, 9, 40, 81
1, 79537, Note_off_c, 9, 40, 108
1, 79539, Note_on_c, 9, 69, 50
1, 79540, Note_off_c, 9, 69, 84
1, 79558, Pitch_bend_c, 4, 16000
1, 79559, Note_off_c, 1, 45, 108
1, 79568, Pitch_bend_c, 4, 15616
1, 79575, Pitch_bend_c, 4, 15104
1, 79582, Pitch_bend_c, 4, 14464
1, 79583, Note_on_c, 9, 69, 100
1, 79584, Note_on_c, 9, 40, 100
1, 79584, Note_on_c, 1, 57, 116
1, 79584, Note_on_c, 9, 63, 124
1, 79584, Note_off_c, 9, 69, 92
1, 79585, Note_off_c, 9, 40, 108
1, 79585, Note_off_c, 9, 63, 100
1, 79588, Note_off_c, 2, 57, 84
1, 79589, Pitch_bend_c, 4, 13696
1, 79596, Pitch_bend_c, 4, 13056
1, 79603, Pitch_bend_c, 4, 12032
1, 79611, Note_off_c, 1, 57, 106
1, 79611, Pitch_bend_c, 4, 10752
1, 79614, Note_off_c, 2, 65, 71
1, 79619, Pitch_bend_c, 4, 9472
1, 79626, Pitch_bend_c, 4, 8576
1, 79632, Note_on_c, 9, 40, 115
1, 79632, Note_on_c, 1, 57, 106
1, 79632, Note_on_c, 4, 65, 111
1, 79633, Note_off_c, 9, 40, 108
1, 79633, Pitch_bend_c, 4, 8320
1, 79635, Note_on_c, 9, 69, 50
1, 79636, Note_on_c, 2, 57, 97
1, 79636, Note_off_c, 9, 69, 92
1, 79641, Pitch_bend_c, 4, 8192
1, 79650, Note_off_c, 2, 60, 13
1, 79658, Note_off_c, 1, 57, 106
1, 79661, Note_off_c, 4, 67, 84
1, 79663, Note_off_c, 2, 57, 97
1, 79664, Note_off_c, 4, 65, 111
1, 79664, Control_c, 2, 11, 125
1, 79679, Note_off_c, 11, 45, 108
1, 79679, Note_on_c, 9, 69, 100
1, 79680, Note_on_c, 9, 36, 124
1, 79680, Note_on_c, 9, 40, 124
1, 79680, Note_on_c, 11, 41, 122
1, 79680, Note_on_c, 1, 41, 120
1, 79680, Note_on_c, 2, 57, 113
1, 79680, Note_on_c, 2, 60, 117
1, 79680, Note_on_c, 4, 62, 111
1, 79680, Note_on_c, 9, 62, 124
1, 79680, Note_on_c, 2, 65, 120
1, 79680, Note_off_c, 9, 69, 92
1, 79681, Note_off_c, 9, 36, 112
1, 79681, Note_off_c, 9, 40, 108
1, 79681, Note_off_c, 9, 62, 104
1, 79683, Control_c, 2, 11, 124
1, 79696, Note_off_c, 12, 60, 111
1, 79699, Note_off_c, 2, 65, 108
1, 79700, Note_off_c, 2, 60, 110
1, 79706, Note_off_c, 12, 57, 108
1, 79709, Note_off_c, 12, 53, 106
1, 79709, Control_c, 2, 11, 123
1, 79713, Note_off_c, 2, 57, 104
1, 79725, Control_c, 2, 11, 122
1, 79728, Note_on_c, 9, 40, 101
1, 79729, Note_off_c, 9, 40, 108
1, 79731, Note_on_c, 9, 69, 50
1, 79732, Note_off_c, 9, 69, 92
1, 79746, Control_c, 2, 11, 121
1, 79754, Pitch_bend_c, 12, 8064
1, 79761, Pitch_bend_c, 12, 7680
1, 79763, Note_off_c, 1, 41, 111
1, 79763, Control_c, 2, 11, 120
1, 79768, Pitch_bend_c, 12, 4864
1, 79775, Note_on_c, 9, 69, 100
1, 79776, Note_on_c, 12, 62, 119
1, 79776, Note_off_c, 9, 69, 92
1, 79776, Pitch_bend_c, 12, 2048
1, 79776, Note_on_c, 9, 40, 124
1, 79776, Note_on_c, 1, 53, 111
1, 79776, Note_on_c, 9, 64, 112
1, 79776, Note_on_c, 12, 67, 116
1, 79777, Note_off_c, 9, 40, 108
1, 79777, Note_off_c, 9, 64, 104
1, 79784, Pitch_bend_c, 12, 1024
1, 79791, Control_c, 2, 11, 118
1, 79791, Pitch_bend_c, 12, 1408
1, 79797, Note_off_c, 1, 53, 113
1, 79798, Pitch_bend_c, 12, 6016
1, 79805, Pitch_bend_c, 12, 7424
1, 79813, Pitch_bend_c, 12, 7936
1, 79822, Pitch_bend_c, 12, 8192
1, 79824, Note_on_c, 9, 40, 82
1, 79824, Note_on_c, 1, 53, 111
1, 79824, Note_on_c, 9, 64, 108
1, 79825, Note_off_c, 9, 40, 108
1, 79825, Note_off_c, 9, 64, 112
1, 79827, Note_on_c, 9, 69, 50
1, 79828, Note_off_c, 9, 69, 92
1, 79836, Control_c, 2, 11, 115
1, 79851, Note_off_c, 1, 53, 110
1, 79852, Control_c, 2, 11, 114
1, 79855, Note_off_c, 4, 62, 106
1, 79866, Note_off_c, 6, 65, 110
1, 79867, Control_c, 2, 11, 113
1, 79871, Note_off_c, 11, 41, 111
1, 79871, Note_on_c, 9, 69, 76
1, 79872, Note_on_c, 9, 36, 124
1, 79872, Note_on_c, 1, 38, 114
1, 79872, Note_on_c, 11, 50, 119
1, 79872, Note_on_c, 2, 57, 122
1, 79872, Note_on_c, 2, 62, 124
1, 79872, Note_on_c, 6, 62, 90
1, 79872, Note_on_c, 9, 63, 120
1, 79872, Note_on_c, 2, 65, 123
1, 79872, Note_off_c, 9, 69, 60
1, 79873, Note_off_c, 9, 36, 76
1, 79873, Note_off_c, 9, 63, 92
1, 79889, Control_c, 2, 11, 112
1, 79897, Note_off_c, 6, 74, 84
1, 79904, Control_c, 2, 11, 111
1, 79907, Note_off_c, 2, 57, 84
1, 79907, Note_off_c, 2, 62, 111
1, 79921, Control_c, 2, 11, 110
1, 79923, Note_off_c, 2, 65, 108
1, 79923, Note_on_c, 9, 69, 30
1, 79924, Note_off_c, 9, 69, 60
1, 79938, Control_c, 2, 11, 109
1, 79945, Note_off_c, 1, 38, 102
1, 79955, Note_off_c, 0, 74, 108
1, 79958, Note_off_c, 0, 65, 111
1, 79959, Control_c, 2, 11, 107
1, 79960, Note_off_c, 12, 62, 110
1, 79962, Note_off_c, 12, 67, 108
1, 79967, Note_on_c, 9, 46, 124
1, 79967, Note_on_c, 9, 69, 68
1, 79968, Note_off_c, 9, 46, 96
1, 79968, Note_on_c, 1, 50, 91
1, 79968, Note_on_c, 2, 57, 113
1, 79968, Note_on_c, 12, 60, 113
1, 79968, Note_on_c, 2, 62, 117
1, 79968, Note_on_c, 9, 63, 90
1, 79968, Note_on_c, 12, 65, 91
1, 79968, Note_off_c, 9, 69, 56
1, 79969, Note_off_c, 9, 63, 84
1, 79970, Note_off_c, 0, 69, 111
1, 79977, Control_c, 2, 11, 106
1, 79983, Note_off_c, 2, 62, 119
1, 79986, Note_off_c, 12, 65, 104
1, 79989, Note_off_c, 12, 60, 104
1, 79994, Note_off_c, 1, 50, 83
1, 79995, Note_off_c, 2, 57, 104
1, 80016, Note_on_c, 1, 50, 78
1, 80019, Note_on_c, 9, 69, 30
1, 80020, Note_off_c, 9, 69, 56
1, 80026, Control_c, 2, 11, 104
1, 80044, Note_off_c, 1, 50, 86
1, 80046, Control_c, 2, 11, 103
1, 80063, Note_on_c, 9, 42, 88
1, 80063, Note_on_c, 9, 69, 84
1, 80064, Note_on_c, 9, 36, 70
1, 80064, Note_on_c, 1, 38, 92
1, 80064, Note_on_c, 9, 40, 60
1, 80064, Note_off_c, 9, 42, 100
1, 80064, Note_on_c, 2, 57, 122
1, 80064, Note_on_c, 12, 60, 114
1, 80064, Note_on_c, 2, 62, 124
1, 80064, Note_on_c, 4, 62, 83
1, 80064, Note_on_c, 9, 62, 90
1, 80064, Note_on_c, 0, 65, 119
1, 80064, Note_on_c, 2, 65, 124
1, 80064, Note_on_c, 12, 65, 119
1, 80064, Note_off_c, 9, 69, 48
1, 80064, Note_on_c, 0, 69, 124
1, 80064, Note_on_c, 0, 74, 120
1, 80064, Note_on_c, 6, 74, 117
1, 80065, Note_off_c, 9, 36, 96
1, 80065, Note_off_c, 9, 40, 96
1, 80065, Note_off_c, 9, 62, 108
1, 80068, Control_c, 0, 11, 125
1, 80068, Control_c, 12, 11, 125
1, 80068, Control_c, 11, 11, 125
1, 80068, Control_c, 6, 11, 125
1, 80090, Control_c, 2, 11, 102
1, 80094, Note_off_c, 2, 57, 108
1, 80096, Note_off_c, 2, 62, 111
1, 80109, Note_off_c, 2, 65, 108
1, 80115, Note_on_c, 9, 69, 30
1, 80116, Note_off_c, 9, 69, 48
1, 80124, Control_c, 0, 11, 124
1, 80124, Control_c, 12, 11, 124
1, 80124, Control_c, 11, 11, 124
1, 80124, Control_c, 6, 11, 124
1, 80135, Note_off_c, 1, 38, 74
1, 80139, Note_off_c, 12, 60, 110
1, 80140, Control_c, 0, 11, 123
1, 80140, Control_c, 12, 11, 123
1, 80140, Control_c, 11, 11, 123
1, 80140, Control_c, 6, 11, 123
1, 80149, Control_c, 2, 11, 100
1, 80159, Note_on_c, 9, 42, 51
1, 80159, Note_on_c, 9, 69, 76
1, 80160, Note_off_c, 12, 65, 108
1, 80160, Note_off_c, 9, 42, 100
1, 80160, Note_on_c, 1, 50, 89
1, 80160, Note_on_c, 12, 57, 106
1, 80160, Note_on_c, 12, 62, 111
1, 80160, Note_on_c, 9, 64, 90
1, 80160, Note_off_c, 9, 69, 48
1, 80161, Note_off_c, 9, 64, 96
1, 80176, Control_c, 2, 11, 98
1, 80180, Note_off_c, 1, 50, 85
1, 80186, Control_c, 0, 11, 122
1, 80186, Control_c, 12, 11, 122
1, 80186, Control_c, 11, 11, 122
1, 80186, Control_c, 6, 11, 122
1, 80208, Note_on_c, 1, 50, 92
1, 80208, Note_on_c, 9, 64, 90
1, 80209, Note_off_c, 9, 64, 104
1, 80211, Note_on_c, 9, 69, 30
1, 80212, Note_off_c, 9, 69, 48
1, 80216, Note_off_c, 4, 62, 81
1, 80217, Control_c, 0, 11, 121
1, 80217, Control_c, 12, 11, 121
1, 80217, Control_c, 11, 11, 121
1, 80217, Control_c, 6, 11, 121
1, 80235, Note_off_c, 1, 50, 85
1, 80245, Note_off_c, 0, 69, 106
1, 80252, Note_off_c, 0, 74, 108
1, 80253, Control_c, 0, 11, 120
1, 80253, Control_c, 12, 11, 120
1, 80253, Control_c, 11, 11, 120
1, 80253, Control_c, 6, 11, 120
1, 80255, Note_on_c, 9, 42, 82
1, 80255, Note_off_c, 0, 65, 110
1, 80255, Note_on_c, 9, 69, 84
1, 80256, Note_on_c, 9, 36, 70
1, 80256, Note_on_c, 1, 38, 95
1, 80256, Note_off_c, 12, 57, 110
1, 80256, Note_off_c, 9, 42, 96
1, 80256, Note_on_c, 2, 57, 122
1, 80256, Note_on_c, 12, 60, 113
1, 80256, Note_on_c, 2, 62, 124
1, 80256, Note_on_c, 9, 63, 90
1, 80256, Note_on_c, 2, 65, 124
1, 80256, Note_on_c, 12, 65, 113
1, 80256, Note_on_c, 4, 65, 83
1, 80256, Note_off_c, 9, 69, 64
1, 80256, Note_on_c, 0, 69, 120
1, 80256, Note_on_c, 0, 74, 120
1, 80256, Note_on_c, 0, 77, 120
1, 80256, Note_on_c, 6, 77, 122
1, 80257, Note_off_c, 9, 36, 108
1, 80257, Note_off_c, 9, 63, 96
1, 80261, Note_off_c, 6, 74, 108
1, 80275, Note_off_c, 12, 62, 108
1, 80287, Note_off_c, 2, 57, 108
1, 80289, Note_off_c, 2, 62, 111
1, 80291, Control_c, 0, 11, 119
1, 80291, Control_c, 12, 11, 119
1, 80291, Control_c, 11, 11, 119
1, 80291, Control_c, 6, 11, 119
1, 80307, Note_on_c, 9, 69, 30
1, 80308, Note_off_c, 9, 69, 64
1, 80323, Note_off_c, 1, 38, 77
1, 80333, Note_off_c, 2, 65, 13
1, 80346, Control_c, 0, 11, 118
1, 80346, Control_c, 12, 11, 118
1, 80346, Control_c, 11, 11, 118
1, 80346, Control_c, 6, 11, 118
1, 80351, Note_on_c, 9, 42, 63
1, 80351, Note_on_c, 9, 69, 80
1, 80352, Note_off_c, 9, 42, 100
1, 80352, Note_on_c, 1, 50, 89
1, 80352, Note_on_c, 9, 63, 90
1, 80352, Note_off_c, 9, 69, 72
1, 80353, Note_off_c, 9, 63, 100
1, 80373, Note_off_c, 1, 50, 81
1, 80400, Note_on_c, 1, 50, 92
1, 80403, Note_on_c, 9, 69, 30
1, 80404, Note_on_c, 2, 57, 99
1, 80404, Note_off_c, 9, 69, 72
1, 80419, Note_off_c, 1, 50, 77
1, 80423, Note_off_c, 4, 65, 94
1, 80430, Note_off_c, 2, 57, 102
1, 80445, Note_off_c, 0, 69, 106
1, 80445, Note_off_c, 0, 77, 111
1, 80446, Note_off_c, 0, 74, 102
1, 80447, Note_on_c, 9, 42, 88
1, 80447, Note_off_c, 12, 65, 104
1, 80447, Note_on_c, 9, 69, 80
1, 80448, Note_on_c, 9, 36, 70
1, 80448, Note_on_c, 1, 38, 94
1, 80448, Note_on_c, 9, 40, 60
1, 80448, Note_off_c, 9, 42, 100
1, 80448, Note_on_c, 2, 57, 117
1, 80448, Note_on_c, 12, 57, 113
1, 80448, Note_on_c, 2, 62, 124
1, 80448, Note_on_c, 12, 62, 113
1, 80448, Note_on_c, 9, 62, 90
1, 80448, Note_on_c, 2, 65, 122
1, 80448, Note_off_c, 9, 69, 72
1, 80448, Note_on_c, 4, 69, 86
1, 80448, Note_on_c, 0, 74, 116
1, 80448, Note_on_c, 0, 77, 122
1, 80448, Note_on_c, 0, 81, 120
1, 80448, Note_on_c, 6, 81, 119
1, 80449, Note_off_c, 9, 36, 112
1, 80449, Note_off_c, 9, 40, 108
1, 80449, Note_off_c, 9, 62, 104
1, 80453, Note_off_c, 12, 60, 104
1, 80455, Note_off_c, 6, 77, 106
1, 80470, Control_c, 0, 11, 116
1, 80470, Control_c, 12, 11, 116
1, 80470, Control_c, 11, 11, 116
1, 80470, Control_c, 6, 11, 116
1, 80476, Note_off_c, 2, 57, 110
1, 80476, Note_off_c, 2, 62, 111
1, 80499, Note_on_c, 9, 69, 30
1, 80500, Note_off_c, 9, 69, 72
1, 80504, Note_off_c, 2, 65, 91
1, 80512, Note_off_c, 12, 62, 108
1, 80518, Note_off_c, 1, 38, 77
1, 80521, Note_off_c, 12, 57, 108
1, 80525, Pitch_bend_c, 12, 5760
1, 80530, Control_c, 0, 11, 115
1, 80530, Control_c, 12, 11, 115
1, 80530, Control_c, 11, 11, 115
1, 80530, Control_c, 6, 11, 115
1, 80532, Pitch_bend_c, 12, 2944
1, 80540, Pitch_bend_c, 12, 1280
1, 80543, Note_on_c, 9, 42, 54
1, 80543, Note_on_c, 9, 69, 80
1, 80544, Note_off_c, 9, 42, 100
1, 80544, Note_on_c, 1, 50, 91
1, 80544, Note_on_c, 12, 62, 117
1, 80544, Note_on_c, 9, 64, 90
1, 80544, Note_on_c, 12, 67, 116
1, 80544, Note_off_c, 9, 69, 72
1, 80545, Note_off_c, 9, 64, 104
1, 80548, Pitch_bend_c, 12, 2432
1, 80555, Pitch_bend_c, 12, 6400
1, 80563, Pitch_bend_c, 12, 7424
1, 80564, Note_off_c, 1, 50, 83
1, 80567, Control_c, 0, 11, 114
1, 80567, Control_c, 12, 11, 114
1, 80567, Control_c, 11, 11, 114
1, 80567, Control_c, 6, 11, 114
1, 80571, Pitch_bend_c, 12, 7808
1, 80578, Pitch_bend_c, 12, 8192
1, 80592, Note_on_c, 1, 50, 88
1, 80592, Note_on_c, 9, 64, 90
1, 80593, Note_off_c, 9, 64, 112
1, 80595, Note_on_c, 9, 69, 30
1, 80596, Note_off_c, 9, 69, 72
1, 80599, Control_c, 0, 11, 113
1, 80599, Control_c, 12, 11, 113
1, 80599, Control_c, 11, 11, 113
1, 80599, Control_c, 6, 11, 113
1, 80618, Note_off_c, 1, 50, 83
1, 80618, Pitch_bend_c, 4, 6784
1, 80622, Note_off_c, 4, 69, 94
1, 80625, Pitch_bend_c, 4, 5120
1, 80633, Pitch_bend_c, 4, 4480
1, 80634, Note_off_c, 0, 77, 111
1, 80634, Note_off_c, 0, 81, 110
1, 80639, Note_on_c, 9, 42, 88
1, 80639, Note_on_c, 9, 69, 76
1, 80639, Note_off_c, 0, 74, 110
1, 80640, Note_on_c, 9, 36, 70
1, 80640, Note_on_c, 1, 38, 92
1, 80640, Note_off_c, 9, 42, 100
1, 80640, Note_on_c, 2, 57, 122
1, 80640, Note_on_c, 2, 62, 124
1, 80640, Note_on_c, 9, 63, 90
1, 80640, Note_on_c, 2, 65, 124
1, 80640, Note_off_c, 9, 69, 60
1, 80640, Note_on_c, 4, 72, 90
1, 80640, Note_on_c, 0, 77, 119
1, 80640, Note_on_c, 0, 81, 122
1, 80640, Note_on_c, 0, 84, 122
1, 80640, Note_on_c, 6, 84, 120
1, 80641, Note_off_c, 9, 36, 76
1, 80641, Note_off_c, 9, 63, 92
1, 80641, Pitch_bend_c, 4, 4096
1, 80647, Note_off_c, 6, 81, 111
1, 80649, Pitch_bend_c, 4, 5376
1, 80656, Pitch_bend_c, 4, 6784
1, 80664, Pitch_bend_c, 4, 7680
1, 80670, Note_off_c, 2, 62, 111
1, 80671, Pitch_bend_c, 4, 7936
1, 80672, Note_off_c, 2, 57, 110
1, 80674, Note_off_c, 2, 65, 110
1, 80678, Pitch_bend_c, 4, 8192
1, 80691, Note_on_c, 9, 69, 30
1, 80692, Note_off_c, 9, 69, 60
1, 80698, Control_c, 0, 11, 112
1, 80698, Control_c, 12, 11, 112
1, 80698, Control_c, 11, 11, 112
1, 80698, Control_c, 6, 11, 112
1, 80708, Note_off_c, 1, 38, 72
1, 80735, Note_on_c, 9, 42, 60
1, 80735, Note_off_c, 12, 62, 110
1, 80735, Note_off_c, 12, 67, 108
1, 80735, Note_on_c, 9, 69, 68
1, 80736, Note_off_c, 9, 42, 100
1, 80736, Note_on_c, 1, 50, 91
1, 80736, Note_on_c, 2, 57, 111
1, 80736, Note_on_c, 12, 60, 111
1, 80736, Note_on_c, 2, 62, 119
1, 80736, Note_on_c, 9, 63, 90
1, 80736, Note_on_c, 2, 65, 117
1, 80736, Note_on_c, 12, 65, 113
1, 80736, Note_off_c, 9, 69, 56
1, 80737, Note_off_c, 9, 63, 84
1, 80753, Control_c, 0, 11, 111
1, 80753, Control_c, 12, 11, 111
1, 80753, Control_c, 11, 11, 111
1, 80753, Control_c, 6, 11, 111
1, 80759, Note_off_c, 12, 60, 104
1, 80759, Note_off_c, 1, 50, 81
1, 80761, Note_off_c, 2, 57, 102
1, 80763, Note_off_c, 2, 62, 113
1, 80767, Note_off_c, 2, 65, 108
1, 80769, Note_off_c, 12, 65, 108
1, 80784, Note_on_c, 1, 50, 86
1, 80787, Note_on_c, 9, 69, 30
1, 80788, Note_off_c, 9, 69, 56
1, 80809, Note_off_c, 1, 50, 69
1, 80831, Note_on_c, 9, 42, 89
1, 80831, Note_on_c, 9, 69, 84
1, 80832, Note_on_c, 9, 36, 70
1, 80832, Note_on_c, 1, 38, 97
1, 80832, Note_on_c, 9, 40, 60
1, 80832, Note_off_c, 9, 42, 100
1, 80832, Note_on_c, 2, 57, 119
1, 80832, Note_on_c, 12, 60, 114
1, 80832, Note_on_c, 2, 62, 124
1, 80832, Note_on_c, 9, 62, 90
1, 80832, Note_on_c, 2, 65, 124
1, 80832, Note_on_c, 12, 65, 114
1, 80832, Note_off_c, 9, 69, 48
1, 80833, Note_off_c, 9, 36, 96
1, 80833, Note_off_c, 9, 40, 96
1, 80833, Note_off_c, 9, 62, 108
1, 80862, Note_off_c, 2, 57, 108
1, 80862, Note_off_c, 2, 62, 113
1, 80870, Note_off_c, 2, 65, 111
1, 80870, Control_c, 0, 11, 110
1, 80870, Control_c, 12, 11, 110
1, 80870, Control_c, 11, 11, 110
1, 80870, Control_c, 6, 11, 110
1, 80883, Note_on_c, 9, 69, 30
1, 80884, Note_off_c, 9, 69, 48
1, 80900, Note_off_c, 1, 38, 79
1, 80912, Note_off_c, 12, 60, 106
1, 80927, Note_on_c, 9, 42, 53
1, 80927, Note_on_c, 9, 69, 76
1, 80928, Note_off_c, 9, 42, 100
1, 80928, Note_on_c, 1, 50, 88
1, 80928, Note_on_c, 12, 57, 110
1, 80928, Note_on_c, 12, 62, 110
1, 80928, Note_on_c, 9, 64, 90
1, 80928, Note_off_c, 9, 69, 48
1, 80929, Note_off_c, 9, 64, 96
1, 80931, Note_off_c, 12, 65, 108
1, 80948, Note_off_c, 1, 50, 85
1, 80955, Pitch_bend_c, 4, 8064
1, 80966, Pitch_bend_c, 4, 7680
1, 80973, Pitch_bend_c, 4, 7040
1, 80976, Note_on_c, 1, 50, 89
1, 80976, Note_on_c, 9, 64, 90
1, 80977, Note_off_c, 9, 64, 104
1, 80979, Note_on_c, 9, 69, 30
1, 80980, Note_off_c, 9, 69, 48
1, 80980, Pitch_bend_c, 4, 6400
1, 80987, Pitch_bend_c, 4, 5888
1, 80997, Note_off_c, 4, 72, 76
1, 81001, Note_off_c, 1, 50, 79
1, 81001, Pitch_bend_c, 4, 7040
1, 81008, Pitch_bend_c, 4, 7424
1, 81016, Pitch_bend_c, 4, 7936
1, 81019, Note_off_c, 0, 77, 110
1, 81021, Note_off_c, 0, 81, 110
1, 81022, Note_off_c, 0, 84, 104
1, 81023, Note_on_c, 9, 42, 85
1, 81023, Note_on_c, 9, 69, 84
1, 81024, Note_on_c, 9, 36, 70
1, 81024, Note_on_c, 1, 38, 95
1, 81024, Note_off_c, 9, 42, 100
1, 81024, Note_on_c, 2, 57, 120
1, 81024, Note_on_c, 12, 60, 110
1, 81024, Note_on_c, 2, 62, 123
1, 81024, Note_on_c, 9, 63, 90
1, 81024, Note_on_c, 2, 65, 122
1, 81024, Note_on_c, 12, 65, 113
1, 81024, Note_off_c, 9, 69, 64
1, 81024, Note_on_c, 0, 74, 117
1, 81024, Note_on_c, 0, 77, 122
1, 81024, Note_on_c, 4, 77, 91
1, 81024, Note_on_c, 0, 81, 120
1, 81024, Note_on_c, 6, 81, 120
1, 81025, Note_off_c, 9, 36, 108
1, 81025, Note_off_c, 9, 63, 96
1, 81025, Pitch_bend_c, 4, 8192
1, 81032, Note_off_c, 6, 84, 106
1, 81032, Note_off_c, 12, 57, 108
1, 81037, Note_off_c, 12, 62, 106
1, 81049, Note_off_c, 2, 62, 113
1, 81053, Note_off_c, 2, 57, 108
1, 81053, Note_off_c, 2, 65, 111
1, 81072, Note_off_c, 4, 77, 97
1, 81075, Note_on_c, 9, 69, 30
1, 81076, Note_off_c, 9, 69, 64
1, 81093, Note_off_c, 1, 38, 79
1, 81119, Note_on_c, 9, 42, 56
1, 81119, Note_on_c, 9, 69, 80
1, 81120, Note_off_c, 9, 42, 104
1, 81120, Note_on_c, 1, 50, 92
1, 81120, Note_on_c, 2, 57, 113
1, 81120, Note_on_c, 2, 62, 122
1, 81120, Note_on_c, 9, 63, 90
1, 81120, Note_on_c, 2, 65, 122
1, 81120, Note_off_c, 9, 69, 72
1, 81120, Note_on_c, 4, 77, 88
1, 81121, Note_off_c, 9, 63, 100
1, 81144, Note_off_c, 2, 57, 102
1, 81148, Note_off_c, 1, 50, 83
1, 81150, Control_c, 2, 11, 98
1, 81154, Note_off_c, 4, 77, 94
1, 81168, Note_on_c, 1, 50, 74
1, 81168, Note_on_c, 4, 72, 90
1, 81171, Note_on_c, 9, 69, 30
1, 81172, Note_on_c, 2, 57, 97
1, 81172, Note_off_c, 9, 69, 72
1, 81186, Note_off_c, 2, 65, 104
1, 81193, Note_off_c, 1, 50, 83
1, 81195, Note_off_c, 2, 62, 108
1, 81196, Note_off_c, 4, 72, 102
1, 81204, Note_off_c, 12, 65, 104
1, 81214, Note_off_c, 12, 60, 104
1, 81215, Note_on_c, 9, 42, 96
1, 81215, Note_on_c, 9, 69, 80
1, 81216, Note_on_c, 9, 36, 70
1, 81216, Note_on_c, 1, 38, 97
1, 81216, Note_on_c, 9, 40, 60
1, 81216, Note_off_c, 9, 42, 100
1, 81216, Note_on_c, 12, 57, 111
1, 81216, Note_on_c, 2, 62, 114
1, 81216, Note_on_c, 12, 62, 113
1, 81216, Note_on_c, 9, 62, 90
1, 81216, Note_on_c, 2, 65, 123
1, 81216, Note_off_c, 9, 69, 72
1, 81216, Note_on_c, 4, 69, 93
1, 81217, Note_off_c, 9, 36, 112
1, 81217, Note_off_c, 9, 40, 108
1, 81217, Note_off_c, 9, 62, 104
1, 81241, Note_off_c, 4, 69, 106
1, 81245, Note_off_c, 2, 57, 108
1, 81251, Note_off_c, 2, 62, 113
1, 81254, Note_off_c, 2, 65, 111
1, 81264, Note_on_c, 4, 65, 89
1, 81267, Note_on_c, 9, 69, 30
1, 81268, Note_off_c, 9, 69, 72
1, 81284, Note_off_c, 12, 57, 106
1, 81285, Note_off_c, 4, 65, 113
1, 81291, Note_off_c, 12, 62, 104
1, 81291, Note_off_c, 1, 38, 77
1, 81295, Pitch_bend_c, 12, 7168
1, 81304, Pitch_bend_c, 12, 4864
1, 81311, Pitch_bend_c, 12, 2304
1, 81311, Note_on_c, 9, 42, 58
1, 81311, Note_on_c, 9, 69, 80
1, 81312, Note_off_c, 9, 42, 104
1, 81312, Note_on_c, 1, 50, 89
1, 81312, Note_on_c, 12, 62, 117
1, 81312, Note_on_c, 9, 64, 90
1, 81312, Note_on_c, 12, 67, 114
1, 81312, Note_off_c, 9, 69, 72
1, 81313, Note_off_c, 9, 64, 104
1, 81318, Pitch_bend_c, 12, 896
1, 81325, Pitch_bend_c, 12, 5120
1, 81330, Note_off_c, 1, 50, 86
1, 81332, Pitch_bend_c, 12, 6912
1, 81339, Pitch_bend_c, 12, 7552
1, 81347, Pitch_bend_c, 12, 7936
1, 81355, Pitch_bend_c, 12, 8192
1, 81360, Note_on_c, 1, 50, 83
1, 81360, Note_on_c, 9, 64, 90
1, 81361, Note_off_c, 9, 64, 112
1, 81363, Note_on_c, 9, 69, 30
1, 81364, Note_off_c, 9, 69, 72
1, 81386, Note_off_c, 1, 50, 83
1, 81407, Note_on_c, 9, 42, 88
1, 81407, Note_off_c, 11, 50, 108
1, 81407, Note_on_c, 9, 69, 76
1, 81408, Note_on_c, 9, 36, 70
1, 81408, Note_on_c, 11, 41, 124
1, 81408, Note_on_c, 1, 41, 92
1, 81408, Note_off_c, 9, 42, 100
1, 81408, Note_on_c, 2, 57, 114
1, 81408, Note_on_c, 2, 60, 119
1, 81408, Note_on_c, 9, 63, 90
1, 81408, Note_on_c, 2, 65, 117
1, 81408, Note_on_c, 6, 65, 90
1, 81408, Note_off_c, 9, 69, 60
1, 81409, Note_off_c, 9, 36, 76
1, 81409, Note_off_c, 9, 63, 92
1, 81414, Note_off_c, 6, 62, 113
1, 81424, Note_off_c, 2, 60, 111
1, 81426, Note_off_c, 0, 74, 108
1, 81432, Note_off_c, 2, 57, 104
1, 81435, Note_off_c, 2, 65, 108
1, 81436, Note_off_c, 6, 81, 108
1, 81438, Note_off_c, 0, 81, 110
1, 81459, Note_on_c, 9, 69, 30
1, 81460, Note_off_c, 9, 69, 60
1, 81482, Note_off_c, 0, 77, 110
1, 81485, Note_off_c, 1, 41, 81
1, 81503, Note_on_c, 9, 42, 60
1, 81503, Note_on_c, 9, 69, 68
1, 81504, Note_off_c, 12, 67, 108
1, 81504, Note_off_c, 9, 42, 100
1, 81504, Note_on_c, 1, 53, 94
1, 81504, Note_on_c, 2, 57, 116
1, 81504, Note_on_c, 2, 60, 116
1, 81504, Note_on_c, 12, 60, 114
1, 81504, Note_on_c, 9, 63, 90
1, 81504, Note_on_c, 2, 65, 110
1, 81504, Note_on_c, 12, 65, 113
1, 81504, Note_off_c, 9, 69, 56
1, 81504, Note_on_c, 0, 74, 114
1, 81504, Note_on_c, 0, 79, 114
1, 81504, Note_on_c, 0, 82, 114
1, 81504, Note_on_c, 6, 82, 117
1, 81505, Note_off_c, 12, 62, 111
1, 81505, Note_off_c, 9, 63, 84
1, 81518, Note_off_c, 2, 60, 116
1, 81527, Note_off_c, 2, 65, 108
1, 81531, Note_off_c, 2, 57, 104
1, 81533, Note_off_c, 1, 53, 86
1, 81534, Note_off_c, 12, 60, 111
1, 81535, Note_off_c, 12, 65, 99
1, 81544, Note_off_c, 0, 74, 104
1, 81545, Note_off_c, 0, 82, 106
1, 81547, Note_off_c, 0, 79, 106
1, 81552, Note_on_c, 1, 53, 76
1, 81552, Note_on_c, 0, 72, 113
1, 81552, Note_on_c, 0, 77, 114
1, 81552, Note_on_c, 0, 81, 111
1, 81552, Note_on_c, 6, 81, 117
1, 81553, Note_off_c, 6, 82, 106
1, 81555, Note_on_c, 9, 69, 30
1, 81556, Note_off_c, 9, 69, 56
1, 81582, Note_off_c, 1, 53, 86
1, 81594, Note_off_c, 0, 72, 108
1, 81596, Note_off_c, 0, 81, 104
1, 81597, Note_off_c, 0, 77, 104
1, 81599, Note_on_c, 9, 42, 89
1, 81599, Note_on_c, 9, 69, 84
1, 81600, Note_on_c, 9, 36, 70
1, 81600, Note_on_c, 9, 40, 60
1, 81600, Note_on_c, 1, 41, 97
1, 81600, Note_off_c, 9, 42, 100
1, 81600, Note_on_c, 2, 57, 119
1, 81600, Note_on_c, 2, 60, 123
1, 81600, Note_on_c, 12, 60, 111
1, 81600, Note_on_c, 9, 62, 90
1, 81600, Note_on_c, 2, 65, 122
1, 81600, Note_on_c, 12, 65, 117
1, 81600, Note_off_c, 9, 69, 48
1, 81600, Note_on_c, 0, 74, 113
1, 81600, Note_on_c, 0, 79, 113
1, 81600, Note_on_c, 0, 82, 116
1, 81600, Note_on_c, 6, 82, 117
1, 81601, Note_off_c, 6, 81, 111
1, 81601, Note_off_c, 9, 36, 96
1, 81601, Note_off_c, 9, 40, 96
1, 81601, Note_off_c, 9, 62, 108
1, 81641, Note_off_c, 0, 82, 99
1, 81643, Note_off_c, 0, 79, 94
1, 81645, Note_off_c, 0, 74, 76
1, 81648, Note_on_c, 0, 72, 113
1, 81648, Note_on_c, 0, 77, 114
1, 81648, Note_on_c, 0, 81, 113
1, 81648, Note_on_c, 6, 81, 114
1, 81651, Note_on_c, 9, 69, 30
1, 81652, Note_off_c, 9, 69, 48
1, 81654, Note_off_c, 6, 82, 99
1, 81669, Note_off_c, 2, 57, 106
1, 81672, Note_off_c, 2, 60, 111
1, 81672, Note_off_c, 2, 65, 110
1, 81676, Note_off_c, 1, 41, 85
1, 81686, Note_off_c, 12, 60, 106
1, 81688, Note_off_c, 0, 72, 108
1, 81688, Note_off_c, 0, 81, 108
1, 81694, Note_off_c, 0, 77, 110
1, 81695, Note_on_c, 9, 42, 53
1, 81695, Note_on_c, 9, 69, 76
1, 81695, Note_off_c, 6, 81, 111
1, 81696, Note_off_c, 9, 42, 100
1, 81696, Note_on_c, 1, 53, 89
1, 81696, Note_on_c, 12, 57, 108
1, 81696, Note_on_c, 12, 62, 111
1, 81696, Note_on_c, 9, 64, 90
1, 81696, Note_off_c, 9, 69, 48
1, 81696, Note_on_c, 0, 69, 113
1, 81696, Note_on_c, 0, 72, 114
1, 81696, Note_on_c, 0, 77, 113
1, 81696, Note_on_c, 6, 77, 116
1, 81697, Note_off_c, 9, 64, 96
1, 81705, Note_off_c, 12, 65, 102
1, 81718, Note_off_c, 1, 53, 81
1, 81736, Note_off_c, 0, 69, 106
1, 81739, Note_off_c, 0, 72, 108
1, 81739, Note_off_c, 0, 77, 111
1, 81744, Note_on_c, 1, 53, 89
1, 81744, Note_on_c, 9, 64, 90
1, 81744, Note_on_c, 0, 67, 111
1, 81744, Note_on_c, 0, 69, 110
1, 81744, Note_on_c, 0, 74, 114
1, 81744, Note_on_c, 6, 74, 114
1, 81745, Note_off_c, 9, 64, 104
1, 81747, Note_on_c, 9, 69, 30
1, 81748, Note_off_c, 6, 77, 110
1, 81748, Note_off_c, 9, 69, 48
1, 81767, Note_off_c, 1, 53, 79
1, 81785, Note_off_c, 0, 67, 110
1, 81789, Note_off_c, 0, 74, 108
1, 81790, Note_off_c, 0, 69, 104
1, 81791, Note_on_c, 9, 42, 85
1, 81791, Note_on_c, 9, 69, 84
1, 81792, Note_on_c, 9, 36, 70
1, 81792, Note_on_c, 1, 41, 94
1, 81792, Note_off_c, 9, 42, 100
1, 81792, Note_on_c, 2, 57, 113
1, 81792, Note_on_c, 2, 60, 122
1, 81792, Note_on_c, 12, 60, 113
1, 81792, Note_on_c, 9, 63, 90
1, 81792, Note_on_c, 2, 65, 120
1, 81792, Note_on_c, 12, 65, 97
1, 81792, Note_off_c, 9, 69, 64
1, 81792, Note_on_c, 0, 69, 119
1, 81792, Note_on_c, 0, 72, 119
1, 81792, Note_on_c, 0, 77, 120
1, 81792, Note_on_c, 6, 77, 120
1, 81793, Note_off_c, 12, 57, 108
1, 81793, Note_off_c, 9, 36, 108
1, 81793, Note_off_c, 9, 63, 96
1, 81795, Note_off_c, 6, 74, 108
1, 81808, Note_off_c, 12, 62, 108
1, 81843, Note_on_c, 9, 69, 30
1, 81844, Note_off_c, 9, 69, 64
1, 81868, Note_off_c, 1, 41, 85
1, 81887, Note_on_c, 9, 42, 56
1, 81887, Note_on_c, 9, 69, 80
1, 81888, Note_off_c, 9, 42, 104
1, 81888, Note_on_c, 1, 53, 89
1, 81888, Note_on_c, 9, 63, 90
1, 81888, Note_off_c, 9, 69, 72
1, 81889, Note_off_c, 9, 63, 100
1, 81891, Note_off_c, 2, 57, 71
1, 81910, Note_off_c, 1, 53, 81
1, 81916, Note_off_c, 2, 65, 66
1, 81919, Pitch_bend_c, 4, 6784
1, 81927, Pitch_bend_c, 4, 3456
1, 81934, Pitch_bend_c, 4, 1792
1, 81936, Note_on_c, 1, 53, 88
1, 81936, Note_on_c, 4, 62, 110
1, 81939, Note_on_c, 9, 69, 30
1, 81940, Note_on_c, 2, 57, 102
1, 81940, Note_off_c, 9, 69, 72
1, 81942, Pitch_bend_c, 4, 1152
1, 81946, Note_off_c, 2, 60, 66
1, 81950, Pitch_bend_c, 4, 6400
1, 81957, Pitch_bend_c, 4, 7552
1, 81961, Note_off_c, 12, 65, 104
1, 81961, Note_off_c, 1, 53, 81
1, 81964, Pitch_bend_c, 4, 7936
1, 81971, Note_off_c, 4, 62, 97
1, 81973, Pitch_bend_c, 4, 8192
1, 81979, Note_off_c, 12, 60, 102
1, 81983, Note_on_c, 9, 42, 96
1, 81983, Note_on_c, 9, 69, 80
1, 81984, Note_on_c, 9, 36, 70
1, 81984, Note_on_c, 9, 40, 60
1, 81984, Note_on_c, 1, 41, 95
1, 81984, Note_off_c, 9, 42, 100
1, 81984, Note_on_c, 12, 57, 113
1, 81984, Note_on_c, 2, 60, 122
1, 81984, Note_on_c, 12, 62, 116
1, 81984, Note_on_c, 9, 62, 90
1, 81984, Note_on_c, 2, 65, 120
1, 81984, Note_off_c, 9, 69, 72
1, 81985, Note_off_c, 9, 36, 112
1, 81985, Note_off_c, 9, 40, 108
1, 81985, Note_off_c, 9, 62, 104
1, 82008, Note_off_c, 2, 65, 108
1, 82023, Note_off_c, 2, 60, 108
1, 82032, Note_on_c, 4, 65, 102
1, 82033, Note_off_c, 2, 57, 102
1, 82035, Note_on_c, 9, 69, 30
1, 82036, Note_off_c, 9, 69, 72
1, 82055, Note_off_c, 4, 65, 108
1, 82061, Note_off_c, 1, 41, 86
1, 82079, Note_on_c, 9, 42, 58
1, 82079, Note_on_c, 9, 69, 80
1, 82080, Note_off_c, 9, 42, 104
1, 82080, Note_on_c, 12, 53, 106
1, 82080, Note_on_c, 1, 53, 89
1, 82080, Note_on_c, 12, 60, 113
1, 82080, Note_on_c, 9, 64, 90
1, 82080, Note_on_c, 4, 67, 106
1, 82080, Note_off_c, 9, 69, 72
1, 82081, Note_off_c, 9, 64, 104
1, 82083, Note_off_c, 12, 62, 106
1, 82102, Note_off_c, 1, 53, 81
1, 82128, Note_on_c, 1, 53, 94
1, 82128, Note_on_c, 9, 64, 90
1, 82129, Note_off_c, 4, 67, 84
1, 82129, Note_off_c, 9, 64, 112
1, 82131, Note_on_c, 9, 69, 30
1, 82132, Note_off_c, 9, 69, 72
1, 82153, Note_off_c, 1, 53, 79
1, 82175, Note_on_c, 9, 42, 88
1, 82175, Note_on_c, 9, 69, 76
1, 82176, Note_on_c, 9, 36, 70
1, 82176, Note_on_c, 1, 41, 95
1, 82176, Note_off_c, 9, 42, 100
1, 82176, Note_on_c, 2, 57, 108
1, 82176, Note_on_c, 2, 60, 119
1, 82176, Note_on_c, 9, 63, 90
1, 82176, Note_on_c, 2, 65, 117
1, 82176, Note_off_c, 9, 69, 60
1, 82176, Note_on_c, 4, 69, 111
1, 82177, Note_off_c, 9, 36, 76
1, 82177, Note_off_c, 9, 63, 92
1, 82203, Note_off_c, 2, 57, 104
1, 82205, Note_off_c, 2, 60, 111
1, 82208, Note_off_c, 2, 65, 110
1, 82209, Note_off_c, 4, 69, 111
1, 82210, Note_off_c, 6, 77, 113
1, 82227, Note_on_c, 9, 69, 30
1, 82228, Note_off_c, 9, 69, 60
1, 82251, Note_off_c, 0, 77, 111
1, 82251, Note_off_c, 1, 41, 86
1, 82267, Note_off_c, 0, 69, 110
1, 82271, Note_on_c, 9, 42, 60
1, 82271, Note_on_c, 9, 69, 68
1, 82272, Note_off_c, 9, 42, 100
1, 82272, Note_on_c, 1, 53, 89
1, 82272, Note_on_c, 2, 57, 113
1, 82272, Note_on_c, 2, 60, 120
1, 82272, Note_on_c, 9, 63, 90
1, 82272, Note_on_c, 2, 65, 117
1, 82272, Note_off_c, 9, 69, 56
1, 82272, Note_on_c, 0, 70, 110
1, 82272, Note_on_c, 0, 74, 113
1, 82272, Note_on_c, 0, 79, 114
1, 82272, Note_on_c, 6, 79, 113
1, 82273, Note_off_c, 9, 63, 84
1, 82274, Note_off_c, 0, 72, 110
1, 82291, Note_off_c, 1, 53, 83
1, 82295, Note_off_c, 2, 60, 108
1, 82298, Note_off_c, 2, 57, 106
1, 82301, Note_off_c, 2, 65, 102
1, 82314, Note_off_c, 0, 79, 108
1, 82316, Note_off_c, 0, 70, 104
1, 82319, Note_off_c, 0, 74, 108
1, 82320, Note_on_c, 1, 53, 92
1, 82320, Note_on_c, 0, 69, 110
1, 82320, Note_on_c, 0, 72, 108
1, 82320, Note_on_c, 0, 77, 114
1, 82320, Note_on_c, 6, 77, 116
1, 82323, Note_on_c, 9, 69, 30
1, 82323, Note_off_c, 6, 79, 108
1, 82324, Note_off_c, 9, 69, 56
1, 82342, Note_off_c, 1, 53, 69
1, 82360, Note_off_c, 0, 77, 110
1, 82361, Note_off_c, 0, 72, 108
1, 82367, Note_off_c, 11, 41, 111
1, 82367, Note_on_c, 9, 42, 89
1, 82367, Note_off_c, 0, 69, 102
1, 82367, Note_on_c, 9, 69, 84
1, 82368, Note_on_c, 9, 36, 70
1, 82368, Note_on_c, 9, 40, 60
1, 82368, Note_off_c, 6, 77, 111
1, 82368, Note_off_c, 9, 42, 100
1, 82368, Note_on_c, 11, 43, 119
1, 82368, Note_on_c, 1, 43, 92
1, 82368, Note_on_c, 2, 57, 116
1, 82368, Note_on_c, 2, 60, 122
1, 82368, Note_on_c, 9, 62, 90
1, 82368, Note_on_c, 2, 65, 120
1, 82368, Note_off_c, 9, 69, 48
1, 82368, Note_on_c, 0, 70, 111
1, 82368, Note_on_c, 0, 74, 113
1, 82368, Note_on_c, 0, 79, 111
1, 82368, Note_on_c, 6, 79, 117
1, 82369, Note_off_c, 9, 36, 96
1, 82369, Note_off_c, 9, 40, 96
1, 82369, Note_off_c, 9, 62, 108
1, 82410, Note_off_c, 0, 79, 102
1, 82414, Note_off_c, 0, 70, 99
1, 82415, Note_off_c, 0, 74, 97
1, 82416, Note_on_c, 0, 69, 108
1, 82416, Note_on_c, 0, 72, 114
1, 82416, Note_on_c, 0, 77, 116
1, 82416, Note_on_c, 6, 77, 116
1, 82419, Note_on_c, 9, 69, 30
1, 82420, Note_off_c, 9, 69, 48
1, 82421, Note_off_c, 6, 79, 106
1, 82441, Note_off_c, 2, 65, 110
1, 82444, Note_off_c, 2, 60, 97
1, 82448, Note_off_c, 1, 43, 81
1, 82450, Note_off_c, 2, 57, 104
1, 82458, Note_off_c, 0, 69, 108
1, 82462, Note_off_c, 0, 72, 111
1, 82463, Note_on_c, 9, 42, 53
1, 82463, Note_on_c, 9, 69, 76
1, 82463, Note_off_c, 0, 77, 113
1, 82464, Note_off_c, 9, 42, 100
1, 82464, Note_on_c, 1, 55, 91
1, 82464, Note_on_c, 9, 64, 90
1, 82464, Note_on_c, 0, 65, 114
1, 82464, Note_off_c, 9, 69, 48
1, 82464, Note_on_c, 0, 69, 116
1, 82464, Note_on_c, 0, 74, 114
1, 82464, Note_on_c, 6, 74, 116
1, 82465, Note_off_c, 9, 64, 96
1, 82467, Note_off_c, 6, 77, 113
1, 82485, Note_off_c, 1, 55, 74
1, 82505, Note_off_c, 0, 74, 108
1, 82509, Note_off_c, 0, 65, 110
1, 82509, Note_off_c, 0, 69, 108
1, 82512, Note_on_c, 1, 55, 89
1, 82512, Note_on_c, 0, 62, 117
1, 82512, Note_on_c, 9, 64, 90
1, 82512, Note_on_c, 0, 67, 113
1, 82512, Note_on_c, 0, 72, 110
1, 82512, Note_on_c, 6, 72, 113
1, 82513, Note_off_c, 9, 64, 104
1, 82515, Note_on_c, 9, 69, 30
1, 82516, Note_off_c, 9, 69, 48
1, 82518, Note_off_c, 6, 74, 104
1, 82538, Note_off_c, 1, 55, 86
1, 82555, Note_off_c, 0, 72, 110
1, 82558, Note_off_c, 0, 62, 110
1, 82558, Note_off_c, 0, 67, 110
1, 82559, Note_on_c, 9, 42, 85
1, 82559, Note_off_c, 11, 43, 104
1, 82559, Note_on_c, 9, 69, 84
1, 82560, Note_on_c, 9, 36, 70
1, 82560, Note_off_c, 9, 42, 100
1, 82560, Note_on_c, 11, 45, 117
1, 82560, Note_on_c, 1, 45, 97
1, 82560, Note_on_c, 2, 57, 117
1, 82560, Note_on_c, 2, 60, 122
1, 82560, Note_on_c, 9, 63, 90
1, 82560, Note_on_c, 0, 65, 120
1, 82560, Note_on_c, 2, 65, 122
1, 82560, Note_off_c, 9, 69, 64
1, 82560, Note_on_c, 0, 69, 120
1, 82560, Note_on_c, 0, 74, 116
1, 82560, Note_on_c, 6, 74, 117
1, 82561, Note_off_c, 6, 72, 111
1, 82561, Note_off_c, 9, 36, 108
1, 82561, Note_off_c, 9, 63, 96
1, 82608, Note_on_c, 4, 62, 83
1, 82611, Note_on_c, 9, 69, 30
1, 82612, Note_off_c, 9, 69, 64
1, 82634, Note_off_c, 1, 45, 81
1, 82635, Note_off_c, 4, 62, 99
1, 82655, Note_on_c, 9, 46, 56
1, 82655, Note_on_c, 9, 69, 80
1, 82656, Note_off_c, 9, 46, 104
1, 82656, Note_on_c, 1, 57, 91
1, 82656, Note_on_c, 9, 63, 90
1, 82656, Note_on_c, 4, 64, 92
1, 82656, Note_off_c, 9, 69, 72
1, 82657, Note_off_c, 9, 63, 100
1, 82660, Note_off_c, 2, 57, 84
1, 82681, Note_off_c, 1, 57, 69
1, 82685, Note_off_c, 4, 64, 102
1, 82686, Note_off_c, 2, 65, 71
1, 82704, Note_on_c, 1, 57, 83
1, 82704, Note_on_c, 4, 62, 94
1, 82707, Note_on_c, 9, 69, 30
1, 82708, Note_on_c, 2, 57, 97
1, 82708, Note_off_c, 9, 69, 72
1, 82722, Note_off_c, 2, 60, 13
1, 82730, Note_off_c, 1, 57, 85
1, 82734, Note_off_c, 4, 62, 66
1, 82735, Note_off_c, 2, 57, 97
1, 82737, Note_off_c, 12, 53, 106
1, 82743, Note_off_c, 12, 57, 106
1, 82743, Note_off_c, 12, 60, 108
1, 82751, Note_on_c, 9, 42, 96
1, 82751, Note_off_c, 11, 45, 108
1, 82751, Note_on_c, 9, 69, 80
1, 82752, Note_on_c, 9, 36, 70
1, 82752, Note_on_c, 9, 40, 60
1, 82752, Note_on_c, 11, 41, 122
1, 82752, Note_on_c, 1, 41, 97
1, 82752, Note_off_c, 9, 42, 100
1, 82752, Note_on_c, 2, 57, 113
1, 82752, Note_on_c, 2, 60, 117
1, 82752, Note_on_c, 9, 62, 90
1, 82752, Note_on_c, 2, 65, 120
1, 82752, Note_off_c, 9, 69, 72
1, 82753, Note_off_c, 9, 36, 112
1, 82753, Note_off_c, 9, 40, 108
1, 82753, Note_off_c, 9, 62, 104
1, 82771, Note_off_c, 2, 65, 108
1, 82772, Note_off_c, 2, 60, 110
1, 82785, Note_off_c, 2, 57, 104
1, 82800, Note_on_c, 4, 60, 87
1, 82803, Note_on_c, 9, 69, 30
1, 82804, Note_off_c, 9, 69, 72
1, 82824, Note_off_c, 4, 60, 84
1, 82829, Note_off_c, 1, 41, 85
1, 82841, Pitch_bend_c, 12, 8064
1, 82847, Note_on_c, 9, 46, 58
1, 82847, Note_on_c, 9, 69, 80
1, 82848, Note_on_c, 2, 57, 79
1, 82848, Note_on_c, 2, 62, 87
1, 82848, Pitch_bend_c, 12, 7680
1, 82848, Note_on_c, 12, 62, 120
1, 82848, Note_on_c, 12, 67, 119
1, 82848, Note_off_c, 9, 46, 104
1, 82848, Note_on_c, 1, 53, 88
1, 82848, Note_on_c, 9, 64, 90
1, 82848, Note_on_c, 4, 65, 93
1, 82848, Note_off_c, 9, 69, 72
1, 82849, Note_off_c, 2, 57, 104
1, 82849, Note_off_c, 2, 62, 104
1, 82849, Note_off_c, 9, 64, 104
1, 82855, Pitch_bend_c, 12, 4096
1, 82862, Pitch_bend_c, 12, 2176
1, 82869, Pitch_bend_c, 12, 1024
1, 82869, Note_off_c, 1, 53, 83
1, 82871, Note_off_c, 6, 65, 91
1, 82879, Pitch_bend_c, 12, 4864
1, 82880, Note_on_c, 2, 57, 115
1, 82880, Note_on_c, 2, 57, 108
1, 82880, Note_off_c, 2, 57, 114
1, 82883, Note_off_c, 2, 57, 106
1, 82886, Pitch_bend_c, 12, 6784
1, 82893, Pitch_bend_c, 12, 7552
1, 82894, Note_off_c, 4, 65, 108
1, 82896, Note_on_c, 1, 53, 89
1, 82896, Note_on_c, 4, 62, 89
1, 82896, Note_on_c, 9, 64, 90
1, 82897, Note_off_c, 9, 64, 112
1, 82899, Note_on_c, 9, 69, 30
1, 82900, Pitch_bend_c, 12, 7936
1, 82900, Note_off_c, 9, 69, 72
1, 82907, Pitch_bend_c, 12, 8192
1, 82907, Note_off_c, 6, 74, 99
1, 82912, Note_on_c, 2, 62, 113
1, 82912, Note_on_c, 2, 62, 107
1, 82912, Note_off_c, 2, 62, 114
1, 82916, Note_off_c, 2, 62, 106
1, 82923, Note_off_c, 1, 53, 86
1, 82925, Note_off_c, 4, 62, 99
1, 82943, Note_on_c, 9, 42, 88
1, 82943, Note_on_c, 9, 69, 76
1, 82943, Note_off_c, 11, 41, 113
1, 82944, Note_on_c, 9, 36, 70
1, 82944, Note_on_c, 1, 38, 96
1, 82944, Note_off_c, 9, 42, 100
1, 82944, Note_on_c, 11, 50, 116
1, 82944, Note_on_c, 2, 57, 122
1, 82944, Note_on_c, 2, 62, 124
1, 82944, Note_on_c, 6, 62, 90
1, 82944, Note_on_c, 9, 63, 90
1, 82944, Note_on_c, 2, 65, 123
1, 82944, Note_off_c, 9, 69, 60
1, 82945, Note_off_c, 9, 36, 76
1, 82945, Note_off_c, 9, 63, 92
1, 82979, Note_off_c, 2, 57, 84
1, 82979, Note_off_c, 2, 62, 111
1, 82979, Note_off_c, 0, 74, 108
1, 82982, Note_off_c, 0, 65, 111
1, 82989, Note_off_c, 0, 69, 111
1, 82995, Note_off_c, 2, 65, 108
1, 82995, Note_on_c, 9, 69, 30
1, 82996, Note_off_c, 9, 69, 60
1, 83009, Note_off_c, 1, 38, 74
1, 83015, Note_off_c, 12, 62, 108
1, 83015, Note_off_c, 12, 67, 108
1, 83039, Note_on_c, 9, 42, 51
1, 83039, Note_on_c, 9, 69, 68
1, 83040, Note_off_c, 9, 42, 100
1, 83040, Note_on_c, 1, 50, 94
1, 83040, Note_on_c, 2, 57, 113
1, 83040, Note_on_c, 12, 60, 110
1, 83040, Note_on_c, 2, 62, 117
1, 83040, Note_on_c, 9, 63, 90
1, 83040, Note_on_c, 12, 65, 110
1, 83040, Note_off_c, 9, 69, 56
1, 83041, Note_off_c, 9, 63, 84
1, 83055, Note_off_c, 2, 62, 119
1, 83056, Note_off_c, 1, 50, 96
1, 83063, Note_off_c, 12, 60, 102
1, 83066, Note_off_c, 12, 65, 94
1, 83067, Note_off_c, 2, 57, 104
1, 83088, Note_on_c, 1, 50, 97
1, 83091, Note_on_c, 9, 69, 30
1, 83092, Note_off_c, 9, 69, 56
1, 83108, Note_off_c, 1, 50, 82
1, 83135, Note_on_c, 9, 42, 88
1, 83135, Note_on_c, 9, 69, 84
1, 83136, Note_on_c, 9, 36, 70
1, 83136, Note_on_c, 1, 38, 97
1, 83136, Note_on_c, 9, 40, 60
1, 83136, Note_off_c, 9, 42, 100
1, 83136, Note_on_c, 2, 57, 122
1, 83136, Note_on_c, 12, 60, 113
1, 83136, Note_on_c, 2, 62, 124
1, 83136, Note_on_c, 9, 62, 90
1, 83136, Note_on_c, 0, 65, 119
1, 83136, Note_on_c, 2, 65, 124
1, 83136, Note_on_c, 12, 65, 113
1, 83136, Note_off_c, 9, 69, 48
1, 83136, Note_on_c, 0, 69, 124
1, 83136, Note_on_c, 0, 74, 120
1, 83136, Note_on_c, 6, 74, 119
1, 83137, Note_off_c, 9, 36, 96
1, 83137, Note_off_c, 9, 40, 96
1, 83137, Note_off_c, 9, 62, 108
1, 83166, Note_off_c, 2, 57, 108
1, 83168, Note_off_c, 2, 62, 111
1, 83181, Note_off_c, 2, 65, 108
1, 83187, Note_on_c, 9, 69, 30
1, 83188, Note_off_c, 9, 69, 48
1, 83205, Note_off_c, 1, 38, 77
1, 83231, Note_on_c, 9, 42, 51
1, 83231, Note_off_c, 12, 60, 104
1, 83231, Note_on_c, 9, 69, 76
1, 83232, Note_off_c, 9, 42, 100
1, 83232, Note_on_c, 1, 50, 94
1, 83232, Note_on_c, 12, 57, 104
1, 83232, Note_on_c, 12, 62, 111
1, 83232, Note_on_c, 9, 64, 90
1, 83232, Note_off_c, 9, 69, 48
1, 83233, Note_off_c, 9, 64, 96
1, 83249, Note_off_c, 1, 50, 94
1, 83258, Note_off_c, 12, 65, 97
1, 83280, Note_on_c, 1, 50, 94
1, 83280, Note_on_c, 9, 64, 90
1, 83281, Note_off_c, 9, 64, 104
1, 83283, Note_on_c, 9, 69, 30
1, 83284, Note_off_c, 9, 69, 48
1, 83301, Note_off_c, 1, 50, 74
1, 83317, Note_off_c, 0, 69, 106
1, 83324, Note_off_c, 0, 74, 108
1, 83327, Note_on_c, 9, 42, 82
1, 83327, Note_off_c, 0, 65, 110
1, 83327, Note_on_c, 9, 69, 84
1, 83328, Note_on_c, 9, 36, 70
1, 83328, Note_on_c, 1, 38, 102
1, 83328, Note_off_c, 9, 42, 96
1, 83328, Note_on_c, 2, 57, 122
1, 83328, Note_on_c, 12, 60, 106
1, 83328, Note_on_c, 2, 62, 124
1, 83328, Note_on_c, 9, 63, 90
1, 83328, Note_on_c, 2, 65, 124
1, 83328, Note_on_c, 12, 65, 111
1, 83328, Note_off_c, 9, 69, 64
1, 83328, Note_on_c, 0, 69, 120
1, 83328, Note_on_c, 0, 74, 120
1, 83328, Note_on_c, 0, 77, 120
1, 83328, Note_on_c, 6, 77, 120
1, 83329, Note_off_c, 9, 36, 108
1, 83329, Note_off_c, 9, 63, 96
1, 83333, Note_off_c, 6, 74, 110
1, 83333, Note_off_c, 12, 57, 108
1, 83345, Note_off_c, 12, 62, 97
1, 83359, Note_off_c, 2, 57, 108
1, 83361, Note_off_c, 2, 62, 111
1, 83379, Note_on_c, 9, 69, 30
1, 83380, Note_off_c, 9, 69, 64
1, 83393, Note_off_c, 1, 38, 77
1, 83405, Note_off_c, 2, 65, 13
1, 83423, Note_on_c, 9, 42, 63
1, 83423, Note_on_c, 9, 69, 80
1, 83424, Note_off_c, 9, 42, 100
1, 83424, Note_on_c, 1, 50, 93
1, 83424, Note_on_c, 9, 63, 90
1, 83424, Note_off_c, 9, 69, 72
1, 83425, Note_off_c, 9, 63, 100
1, 83441, Note_off_c, 1, 50, 93
1, 83472, Note_on_c, 1, 50, 88
1, 83475, Note_on_c, 9, 69, 30
1, 83476, Note_on_c, 2, 57, 99
1, 83476, Note_off_c, 9, 69, 72
1, 83496, Note_off_c, 1, 50, 77
1, 83502, Note_off_c, 2, 57, 102
1, 83512, Note_off_c, 12, 60, 104
1, 83515, Note_off_c, 12, 65, 106
1, 83517, Note_off_c, 0, 69, 106
1, 83517, Note_off_c, 0, 77, 111
1, 83518, Note_off_c, 0, 74, 102
1, 83519, Note_on_c, 9, 42, 88
1, 83519, Note_on_c, 9, 69, 80
1, 83520, Note_on_c, 9, 36, 70
1, 83520, Note_on_c, 1, 38, 97
1, 83520, Note_on_c, 9, 40, 60
1, 83520, Note_off_c, 6, 77, 106
1, 83520, Note_off_c, 9, 42, 100
1, 83520, Note_on_c, 2, 57, 117
1, 83520, Note_on_c, 12, 57, 114
1, 83520, Note_on_c, 2, 62, 124
1, 83520, Note_on_c, 12, 62, 104
1, 83520, Note_on_c, 9, 62, 90
1, 83520, Note_on_c, 2, 65, 122
1, 83520, Note_off_c, 9, 69, 72
1, 83520, Note_on_c, 0, 74, 116
1, 83520, Note_on_c, 0, 77, 122
1, 83520, Note_on_c, 0, 81, 120
1, 83520, Note_on_c, 6, 81, 119
1, 83521, Note_off_c, 9, 36, 112
1, 83521, Note_off_c, 9, 40, 108
1, 83521, Note_off_c, 9, 62, 104
1, 83546, Note_off_c, 12, 62, 94
1, 83548, Note_off_c, 2, 57, 110
1, 83548, Note_off_c, 2, 62, 111
1, 83571, Note_on_c, 9, 69, 30
1, 83572, Note_off_c, 9, 69, 72
1, 83576, Note_off_c, 2, 65, 91
1, 83580, Note_off_c, 12, 57, 99
1, 83585, Pitch_bend_c, 12, 7808
1, 83590, Note_off_c, 1, 38, 82
1, 83595, Pitch_bend_c, 12, 6400
1, 83602, Pitch_bend_c, 12, 3584
1, 83609, Pitch_bend_c, 12, 1792
1, 83615, Note_on_c, 9, 42, 54
1, 83615, Note_on_c, 9, 69, 80
1, 83616, Note_off_c, 9, 42, 100
1, 83616, Note_on_c, 1, 50, 96
1, 83616, Note_on_c, 12, 62, 119
1, 83616, Note_on_c, 9, 64, 90
1, 83616, Note_on_c, 12, 67, 116
1, 83616, Note_off_c, 9, 69, 72
1, 83617, Note_off_c, 9, 64, 104
1, 83618, Pitch_bend_c, 12, 1280
1, 83629, Pitch_bend_c, 12, 5888
1, 83634, Note_off_c, 1, 50, 93
1, 83636, Pitch_bend_c, 12, 7424
1, 83643, Pitch_bend_c, 12, 7808
1, 83652, Pitch_bend_c, 12, 8192
1, 83664, Note_on_c, 1, 50, 99
1, 83664, Note_on_c, 9, 64, 90
1, 83665, Note_off_c, 9, 64, 112
1, 83667, Note_on_c, 9, 69, 30
1, 83668, Note_off_c, 9, 69, 72
1, 83682, Note_off_c, 1, 50, 77
1, 83706, Note_off_c, 0, 77, 111
1, 83706, Note_off_c, 0, 81, 110
1, 83711, Note_on_c, 9, 42, 88
1, 83711, Note_on_c, 9, 69, 76
1, 83711, Note_off_c, 0, 74, 110
1, 83712, Note_on_c, 9, 36, 70
1, 83712, Note_on_c, 1, 38, 100
1, 83712, Note_off_c, 9, 42, 100
1, 83712, Note_on_c, 2, 57, 122
1, 83712, Note_on_c, 2, 62, 124
1, 83712, Note_on_c, 9, 63, 90
1, 83712, Note_on_c, 2, 65, 124
1, 83712, Note_off_c, 9, 69, 60
1, 83712, Note_on_c, 0, 77, 119
1, 83712, Note_on_c, 0, 81, 122
1, 83712, Note_on_c, 0, 84, 122
1, 83712, Note_on_c, 6, 84, 122
1, 83713, Note_off_c, 9, 36, 76
1, 83713, Note_off_c, 9, 63, 92
1, 83714, Note_off_c, 6, 81, 110
1, 83742, Note_off_c, 2, 62, 111
1, 83744, Note_off_c, 2, 57, 110
1, 83746, Note_off_c, 2, 65, 110
1, 83763, Note_on_c, 9, 69, 30
1, 83764, Note_off_c, 9, 69, 60
1, 83777, Note_off_c, 1, 38, 82
1, 83807, Note_on_c, 9, 42, 60
1, 83807, Note_on_c, 9, 69, 68
1, 83808, Note_off_c, 9, 42, 100
1, 83808, Note_on_c, 1, 50, 96
1, 83808, Note_on_c, 2, 57, 111
1, 83808, Note_on_c, 12, 60, 113
1, 83808, Note_on_c, 2, 62, 119
1, 83808, Note_on_c, 9, 63, 90
1, 83808, Note_on_c, 2, 65, 117
1, 83808, Note_on_c, 12, 65, 111
1, 83808, Note_off_c, 9, 69, 56
1, 83809, Note_off_c, 9, 63, 84
1, 83815, Note_off_c, 12, 62, 108
1, 83821, Note_off_c, 12, 67, 108
1, 83826, Note_off_c, 1, 50, 91
1, 83828, Note_off_c, 12, 60, 99
1, 83832, Note_off_c, 12, 65, 97
1, 83833, Note_off_c, 2, 57, 102
1, 83835, Note_off_c, 2, 62, 113
1, 83839, Note_off_c, 2, 65, 108
1, 83856, Note_on_c, 1, 50, 100
1, 83856, Note_on_c, 4, 60, 89
1, 83859, Note_on_c, 9, 69, 30
1, 83860, Note_off_c, 9, 69, 56
1, 83871, Note_off_c, 1, 50, 91
1, 83884, Note_off_c, 4, 60, 91
1, 83903, Note_on_c, 9, 42, 89
1, 83903, Note_on_c, 9, 69, 84
1, 83904, Note_on_c, 9, 36, 70
1, 83904, Note_on_c, 1, 38, 102
1, 83904, Note_on_c, 9, 40, 60
1, 83904, Note_off_c, 9, 42, 100
1, 83904, Note_on_c, 2, 57, 119
1, 83904, Note_on_c, 12, 60, 113
1, 83904, Note_on_c, 2, 62, 124
1, 83904, Note_on_c, 9, 62, 90
1, 83904, Note_on_c, 2, 65, 124
1, 83904, Note_on_c, 12, 65, 114
1, 83904, Note_off_c, 9, 69, 48
1, 83905, Note_off_c, 9, 36, 96
1, 83905, Note_off_c, 9, 40, 96
1, 83905, Note_off_c, 9, 62, 108
1, 83934, Note_off_c, 2, 57, 108
1, 83934, Note_off_c, 2, 62, 113
1, 83942, Note_off_c, 2, 65, 111
1, 83952, Note_on_c, 4, 60, 88
1, 83955, Note_on_c, 9, 69, 30
1, 83956, Note_off_c, 9, 69, 48
1, 83977, Note_off_c, 1, 38, 82
1, 83992, Note_off_c, 12, 60, 108
1, 83996, Note_off_c, 4, 60, 84
1, 83999, Note_on_c, 9, 42, 53
1, 83999, Note_on_c, 9, 69, 76
1, 84000, Note_off_c, 9, 42, 100
1, 84000, Note_on_c, 1, 50, 96
1, 84000, Note_on_c, 12, 57, 106
1, 84000, Note_on_c, 12, 62, 108
1, 84000, Note_on_c, 9, 64, 90
1, 84000, Note_off_c, 9, 69, 48
1, 84001, Note_off_c, 9, 64, 96
1, 84017, Note_off_c, 1, 50, 93
1, 84023, Note_off_c, 12, 65, 102
1, 84048, Note_on_c, 1, 50, 96
1, 84048, Note_on_c, 4, 57, 57
1, 84048, Note_on_c, 9, 64, 90
1, 84049, Note_off_c, 9, 64, 104
1, 84051, Note_on_c, 9, 69, 30
1, 84052, Note_off_c, 9, 69, 48
1, 84069, Note_off_c, 1, 50, 79
1, 84084, Note_off_c, 4, 57, 94
1, 84091, Note_off_c, 0, 77, 110
1, 84093, Note_off_c, 0, 81, 110
1, 84094, Note_off_c, 0, 84, 104
1, 84095, Note_on_c, 9, 42, 85
1, 84095, Note_on_c, 9, 69, 84
1, 84096, Note_on_c, 9, 36, 70
1, 84096, Note_on_c, 1, 38, 102
1, 84096, Note_off_c, 9, 42, 100
1, 84096, Note_on_c, 2, 57, 120
1, 84096, Note_on_c, 12, 60, 110
1, 84096, Note_on_c, 4, 60, 88
1, 84096, Note_on_c, 2, 62, 123
1, 84096, Note_on_c, 9, 63, 90
1, 84096, Note_on_c, 2, 65, 122
1, 84096, Note_on_c, 12, 65, 114
1, 84096, Note_off_c, 9, 69, 64
1, 84096, Note_on_c, 0, 74, 117
1, 84096, Note_on_c, 0, 77, 122
1, 84096, Note_on_c, 0, 81, 120
1, 84096, Note_on_c, 6, 81, 120
1, 84097, Note_off_c, 6, 84, 110
1, 84097, Note_off_c, 9, 36, 108
1, 84097, Note_off_c, 9, 63, 96
1, 84100, Note_off_c, 12, 57, 106
1, 84108, Note_off_c, 12, 62, 106
1, 84121, Note_off_c, 2, 62, 113
1, 84125, Note_off_c, 2, 57, 108
1, 84125, Note_off_c, 2, 65, 111
1, 84144, Note_off_c, 4, 60, 97
1, 84147, Note_on_c, 9, 69, 30
1, 84148, Note_off_c, 9, 69, 64
1, 84154, Note_off_c, 1, 38, 71
1, 84191, Note_on_c, 9, 42, 56
1, 84191, Note_on_c, 9, 69, 80
1, 84192, Note_off_c, 9, 42, 104
1, 84192, Note_on_c, 1, 50, 94
1, 84192, Note_on_c, 2, 57, 113
1, 84192, Note_on_c, 2, 62, 122
1, 84192, Note_on_c, 9, 63, 90
1, 84192, Note_on_c, 2, 65, 122
1, 84192, Note_off_c, 9, 69, 72
1, 84193, Note_off_c, 9, 63, 100
1, 84211, Note_off_c, 1, 50, 88
1, 84216, Note_off_c, 2, 57, 102
1, 84240, Note_on_c, 1, 50, 93
1, 84243, Note_on_c, 9, 69, 30
1, 84244, Note_on_c, 2, 57, 97
1, 84244, Note_off_c, 9, 69, 72
1, 84258, Note_off_c, 2, 65, 104
1, 84262, Note_off_c, 1, 50, 84
1, 84267, Note_off_c, 2, 62, 108
1, 84272, Note_off_c, 12, 60, 106
1, 84287, Note_on_c, 9, 42, 96
1, 84287, Note_on_c, 9, 69, 80
1, 84288, Note_on_c, 9, 36, 70
1, 84288, Note_on_c, 1, 38, 97
1, 84288, Note_on_c, 9, 40, 60
1, 84288, Note_off_c, 9, 42, 100
1, 84288, Note_on_c, 12, 57, 110
1, 84288, Note_on_c, 4, 60, 88
1, 84288, Note_on_c, 2, 62, 114
1, 84288, Note_on_c, 12, 62, 108
1, 84288, Note_on_c, 9, 62, 90
1, 84288, Note_on_c, 2, 65, 123
1, 84288, Note_off_c, 9, 69, 72
1, 84289, Note_off_c, 9, 36, 112
1, 84289, Note_off_c, 9, 40, 108
1, 84289, Note_off_c, 9, 62, 104
1, 84295, Note_off_c, 12, 65, 106
1, 84317, Note_off_c, 2, 57, 108
1, 84323, Note_off_c, 2, 62, 113
1, 84326, Note_off_c, 4, 60, 99
1, 84326, Note_off_c, 2, 65, 111
1, 84333, Note_off_c, 12, 62, 104
1, 84336, Note_on_c, 4, 65, 95
1, 84339, Note_on_c, 9, 69, 30
1, 84340, Note_off_c, 9, 69, 72
1, 84350, Note_off_c, 12, 57, 104
1, 84355, Note_off_c, 1, 38, 71
1, 84362, Pitch_bend_c, 12, 8064
1, 84366, Note_off_c, 4, 65, 110
1, 84369, Pitch_bend_c, 12, 7808
1, 84376, Pitch_bend_c, 12, 4992
1, 84383, Note_on_c, 9, 42, 58
1, 84383, Note_on_c, 9, 69, 80
1, 84384, Note_off_c, 9, 42, 104
1, 84384, Note_on_c, 1, 50, 96
1, 84384, Note_on_c, 12, 62, 119
1, 84384, Note_on_c, 9, 64, 90
1, 84384, Note_on_c, 12, 67, 116
1, 84384, Note_off_c, 9, 69, 72
1, 84385, Note_off_c, 9, 64, 104
1, 84385, Pitch_bend_c, 12, 2816
1, 84392, Pitch_bend_c, 12, 3840
1, 84402, Pitch_bend_c, 12, 6784
1, 84409, Note_off_c, 1, 50, 88
1, 84409, Pitch_bend_c, 12, 7552
1, 84416, Pitch_bend_c, 12, 7936
1, 84423, Pitch_bend_c, 12, 8192
1, 84432, Note_on_c, 1, 50, 90
1, 84432, Note_on_c, 9, 64, 90
1, 84433, Note_off_c, 9, 64, 112
1, 84435, Note_on_c, 9, 69, 30
1, 84436, Note_off_c, 9, 69, 72
1, 84460, Note_off_c, 1, 50, 90
1, 84479, Note_on_c, 9, 42, 88
1, 84479, Note_off_c, 11, 50, 108
1, 84479, Note_off_c, 6, 62, 113
1, 84479, Note_on_c, 9, 69, 76
1, 84480, Note_on_c, 9, 36, 70
1, 84480, Note_on_c, 11, 41, 116
1, 84480, Note_on_c, 1, 41, 102
1, 84480, Note_off_c, 9, 42, 100
1, 84480, Note_on_c, 2, 57, 114
1, 84480, Note_on_c, 2, 60, 119
1, 84480, Note_on_c, 9, 63, 90
1, 84480, Note_on_c, 2, 65, 117
1, 84480, Note_on_c, 6, 65, 90
1, 84480, Note_off_c, 9, 69, 60
1, 84481, Note_off_c, 9, 36, 76
1, 84481, Note_off_c, 9, 63, 92
1, 84496, Note_off_c, 2, 60, 111
1, 84498, Note_off_c, 0, 74, 108
1, 84504, Note_off_c, 2, 57, 104
1, 84507, Note_off_c, 2, 65, 108
1, 84510, Note_off_c, 0, 81, 110
1, 84531, Note_on_c, 9, 69, 30
1, 84532, Note_off_c, 9, 69, 60
1, 84542, Note_off_c, 6, 81, 110
1, 84551, Note_off_c, 1, 41, 88
1, 84554, Note_off_c, 0, 77, 110
1, 84572, Note_off_c, 12, 62, 108
1, 84574, Note_off_c, 12, 67, 108
1, 84575, Note_on_c, 9, 42, 60
1, 84575, Note_on_c, 9, 69, 68
1, 84576, Note_off_c, 9, 42, 100
1, 84576, Note_on_c, 1, 53, 93
1, 84576, Note_on_c, 2, 57, 116
1, 84576, Note_on_c, 2, 60, 116
1, 84576, Note_on_c, 12, 60, 111
1, 84576, Note_on_c, 9, 63, 90
1, 84576, Note_on_c, 2, 65, 110
1, 84576, Note_on_c, 12, 65, 113
1, 84576, Note_off_c, 9, 69, 56
1, 84576, Note_on_c, 0, 74, 114
1, 84576, Note_on_c, 0, 79, 114
1, 84576, Note_on_c, 0, 82, 114
1, 84576, Note_on_c, 6, 82, 117
1, 84577, Note_off_c, 9, 63, 84
1, 84590, Note_off_c, 2, 60, 116
1, 84597, Note_off_c, 1, 53, 88
1, 84599, Note_off_c, 2, 65, 108
1, 84603, Note_off_c, 2, 57, 104
1, 84605, Note_off_c, 12, 60, 104
1, 84610, Note_off_c, 12, 65, 110
1, 84619, Note_off_c, 0, 79, 106
1, 84620, Note_off_c, 0, 74, 104
1, 84620, Note_off_c, 0, 82, 106
1, 84622, Note_off_c, 6, 82, 106
1, 84624, Note_on_c, 1, 53, 93
1, 84624, Note_on_c, 0, 72, 113
1, 84624, Note_on_c, 0, 77, 114
1, 84624, Note_on_c, 0, 81, 111
1, 84624, Note_on_c, 6, 81, 116
1, 84627, Note_on_c, 9, 69, 30
1, 84628, Note_off_c, 9, 69, 56
1, 84647, Note_off_c, 1, 53, 79
1, 84668, Note_off_c, 0, 72, 108
1, 84668, Note_off_c, 0, 81, 104
1, 84669, Note_off_c, 0, 77, 104
1, 84671, Note_on_c, 9, 42, 89
1, 84671, Note_on_c, 9, 69, 84
1, 84672, Note_on_c, 9, 36, 70
1, 84672, Note_on_c, 9, 40, 60
1, 84672, Note_on_c, 1, 41, 100
1, 84672, Note_off_c, 9, 42, 100
1, 84672, Note_on_c, 2, 57, 119
1, 84672, Note_on_c, 2, 60, 123
1, 84672, Note_on_c, 12, 60, 114
1, 84672, Note_on_c, 9, 62, 90
1, 84672, Note_on_c, 2, 65, 122
1, 84672, Note_on_c, 12, 65, 114
1, 84672, Note_off_c, 9, 69, 48
1, 84672, Note_on_c, 0, 74, 113
1, 84672, Note_on_c, 0, 79, 113
1, 84672, Note_on_c, 0, 82, 116
1, 84672, Note_on_c, 6, 82, 117
1, 84673, Note_off_c, 6, 81, 111
1, 84673, Note_off_c, 9, 36, 96
1, 84673, Note_off_c, 9, 40, 96
1, 84673, Note_off_c, 9, 62, 108
1, 84713, Note_off_c, 0, 82, 99
1, 84715, Note_off_c, 0, 79, 94
1, 84717, Note_off_c, 0, 74, 76
1, 84720, Note_on_c, 0, 72, 113
1, 84720, Note_on_c, 0, 77, 114
1, 84720, Note_on_c, 0, 81, 113
1, 84720, Note_on_c, 6, 81, 113
1, 84723, Note_on_c, 9, 69, 30
1, 84724, Note_off_c, 6, 82, 104
1, 84724, Note_off_c, 9, 69, 48
1, 84741, Note_off_c, 2, 57, 106
1, 84741, Note_off_c, 1, 41, 88
1, 84744, Note_off_c, 2, 60, 111
1, 84744, Note_off_c, 2, 65, 110
1, 84760, Note_off_c, 0, 72, 108
1, 84760, Note_off_c, 0, 81, 108
1, 84764, Note_off_c, 12, 60, 110
1, 84766, Note_off_c, 0, 77, 110
1, 84767, Note_on_c, 9, 42, 53
1, 84767, Note_on_c, 9, 69, 76
1, 84768, Note_off_c, 12, 65, 104
1, 84768, Note_off_c, 6, 81, 111
1, 84768, Note_off_c, 9, 42, 100
1, 84768, Note_on_c, 1, 53, 93
1, 84768, Note_on_c, 12, 57, 111
1, 84768, Note_on_c, 12, 62, 113
1, 84768, Note_on_c, 9, 64, 90
1, 84768, Note_off_c, 9, 69, 48
1, 84768, Note_on_c, 0, 69, 113
1, 84768, Note_on_c, 0, 72, 114
1, 84768, Note_on_c, 0, 77, 113
1, 84768, Note_on_c, 6, 77, 119
1, 84769, Note_off_c, 9, 64, 96
1, 84790, Note_off_c, 1, 53, 88
1, 84808, Note_off_c, 0, 69, 106
1, 84811, Note_off_c, 0, 72, 108
1, 84811, Note_off_c, 0, 77, 111
1, 84816, Note_on_c, 1, 53, 93
1, 84816, Note_on_c, 9, 64, 90
1, 84816, Note_on_c, 0, 67, 111
1, 84816, Note_on_c, 0, 69, 110
1, 84816, Note_on_c, 0, 74, 114
1, 84816, Note_on_c, 6, 74, 117
1, 84817, Note_off_c, 9, 64, 104
1, 84819, Note_on_c, 9, 69, 30
1, 84820, Note_off_c, 9, 69, 48
1, 84821, Note_off_c, 6, 77, 113
1, 84838, Note_off_c, 1, 53, 84
1, 84857, Note_off_c, 0, 67, 110
1, 84861, Note_off_c, 0, 74, 108
1, 84862, Note_off_c, 0, 69, 104
1, 84863, Note_on_c, 9, 42, 85
1, 84863, Note_on_c, 9, 69, 84
1, 84864, Note_on_c, 9, 36, 70
1, 84864, Note_on_c, 1, 41, 102
1, 84864, Note_off_c, 9, 42, 100
1, 84864, Note_on_c, 2, 57, 113
1, 84864, Note_on_c, 2, 60, 122
1, 84864, Note_on_c, 12, 60, 111
1, 84864, Note_on_c, 9, 63, 90
1, 84864, Note_on_c, 2, 65, 120
1, 84864, Note_on_c, 12, 65, 113
1, 84864, Note_off_c, 9, 69, 64
1, 84864, Note_on_c, 0, 69, 119
1, 84864, Note_on_c, 0, 72, 119
1, 84864, Note_on_c, 0, 77, 120
1, 84864, Note_on_c, 6, 77, 120
1, 84865, Note_off_c, 12, 57, 108
1, 84865, Note_off_c, 9, 36, 108
1, 84865, Note_off_c, 9, 63, 96
1, 84870, Note_off_c, 12, 62, 108
1, 84874, Note_off_c, 6, 74, 108
1, 84912, Note_on_c, 4, 65, 90
1, 84915, Note_on_c, 9, 69, 30
1, 84916, Note_off_c, 9, 69, 64
1, 84932, Note_off_c, 4, 65, 111
1, 84934, Note_off_c, 1, 41, 86
1, 84959, Note_on_c, 9, 42, 56
1, 84959, Note_on_c, 9, 69, 80
1, 84960, Note_off_c, 9, 42, 104
1, 84960, Note_on_c, 1, 53, 90
1, 84960, Note_on_c, 9, 63, 90
1, 84960, Note_off_c, 9, 69, 72
1, 84961, Note_off_c, 9, 63, 100
1, 84963, Note_off_c, 2, 57, 71
1, 84981, Note_off_c, 1, 53, 88
1, 84988, Note_off_c, 2, 65, 66
1, 85008, Note_on_c, 1, 53, 88
1, 85008, Note_on_c, 4, 67, 94
1, 85011, Note_on_c, 9, 69, 30
1, 85012, Note_on_c, 2, 57, 102
1, 85012, Note_off_c, 9, 69, 72
1, 85018, Note_off_c, 2, 60, 66
1, 85030, Pitch_bend_c, 4, 7808
1, 85036, Note_off_c, 1, 53, 88
1, 85037, Pitch_bend_c, 4, 6528
1, 85044, Pitch_bend_c, 4, 5504
1, 85050, Note_off_c, 12, 60, 108
1, 85052, Pitch_bend_c, 4, 4480
1, 85055, Note_on_c, 9, 42, 96
1, 85055, Note_on_c, 9, 69, 80
1, 85056, Note_on_c, 9, 36, 70
1, 85056, Note_on_c, 9, 40, 60
1, 85056, Note_on_c, 1, 41, 100
1, 85056, Note_off_c, 9, 42, 100
1, 85056, Note_on_c, 12, 57, 108
1, 85056, Note_on_c, 2, 60, 122
1, 85056, Note_on_c, 12, 62, 113
1, 85056, Note_on_c, 9, 62, 90
1, 85056, Note_on_c, 2, 65, 120
1, 85056, Note_off_c, 9, 69, 72
1, 85057, Note_off_c, 12, 65, 97
1, 85057, Note_off_c, 9, 36, 112
1, 85057, Note_off_c, 9, 40, 108
1, 85057, Note_off_c, 9, 62, 104
1, 85058, Note_off_c, 4, 67, 99
1, 85060, Pitch_bend_c, 4, 6656
1, 85068, Pitch_bend_c, 4, 7552
1, 85075, Pitch_bend_c, 4, 7936
1, 85080, Note_off_c, 2, 65, 108
1, 85082, Pitch_bend_c, 4, 8192
1, 85095, Note_off_c, 2, 60, 108
1, 85104, Note_on_c, 4, 62, 86
1, 85105, Note_off_c, 2, 57, 102
1, 85107, Note_on_c, 9, 69, 30
1, 85108, Note_off_c, 9, 69, 72
1, 85122, Note_off_c, 1, 41, 86
1, 85125, Note_off_c, 4, 62, 97
1, 85150, Note_off_c, 12, 62, 108
1, 85151, Note_on_c, 9, 42, 58
1, 85151, Note_on_c, 9, 69, 80
1, 85152, Note_off_c, 9, 42, 104
1, 85152, Note_on_c, 12, 53, 108
1, 85152, Note_on_c, 1, 53, 93
1, 85152, Note_on_c, 12, 60, 114
1, 85152, Note_on_c, 9, 64, 90
1, 85152, Note_on_c, 4, 65, 85
1, 85152, Note_off_c, 9, 69, 72
1, 85153, Note_off_c, 9, 64, 104
1, 85172, Note_off_c, 1, 53, 91
1, 85175, Note_off_c, 4, 65, 102
1, 85200, Note_on_c, 1, 53, 94
1, 85200, Note_on_c, 9, 64, 90
1, 85201, Note_off_c, 9, 64, 112
1, 85203, Note_on_c, 9, 69, 30
1, 85204, Note_off_c, 9, 69, 72
1, 85227, Note_off_c, 1, 53, 88
1, 85247, Note_on_c, 9, 42, 88
1, 85247, Note_on_c, 9, 69, 76
1, 85248, Note_on_c, 9, 36, 70
1, 85248, Note_on_c, 1, 41, 100
1, 85248, Note_off_c, 9, 42, 100
1, 85248, Note_on_c, 2, 57, 108
1, 85248, Note_on_c, 2, 60, 119
1, 85248, Note_on_c, 9, 63, 90
1, 85248, Note_on_c, 2, 65, 117
1, 85248, Note_off_c, 9, 69, 60
1, 85249, Note_off_c, 9, 36, 76
1, 85249, Note_off_c, 9, 63, 92
1, 85275, Note_off_c, 2, 57, 104
1, 85277, Note_off_c, 2, 60, 111
1, 85280, Note_off_c, 2, 65, 110
1, 85291, Note_off_c, 6, 77, 111
1, 85299, Note_on_c, 9, 69, 30
1, 85300, Note_off_c, 9, 69, 60
1, 85323, Note_off_c, 0, 77, 111
1, 85333, Note_off_c, 1, 41, 79
1, 85339, Note_off_c, 0, 69, 110
1, 85343, Note_on_c, 9, 42, 60
1, 85343, Note_on_c, 9, 69, 68
1, 85344, Note_off_c, 9, 42, 100
1, 85344, Note_on_c, 1, 53, 94
1, 85344, Note_on_c, 2, 57, 113
1, 85344, Note_on_c, 2, 60, 120
1, 85344, Note_on_c, 9, 63, 90
1, 85344, Note_on_c, 2, 65, 117
1, 85344, Note_off_c, 9, 69, 56
1, 85344, Note_on_c, 0, 70, 110
1, 85344, Note_on_c, 0, 74, 113
1, 85344, Note_on_c, 0, 79, 114
1, 85344, Note_on_c, 6, 79, 116
1, 85345, Note_off_c, 9, 63, 84
1, 85346, Note_off_c, 0, 72, 110
1, 85367, Note_off_c, 2, 60, 108
1, 85370, Note_off_c, 2, 57, 106
1, 85370, Note_off_c, 1, 53, 88
1, 85373, Note_off_c, 2, 65, 102
1, 85386, Note_off_c, 0, 79, 108
1, 85388, Note_off_c, 0, 70, 104
1, 85391, Note_off_c, 0, 74, 108
1, 85392, Note_on_c, 1, 53, 88
1, 85392, Note_on_c, 0, 69, 110
1, 85392, Note_on_c, 0, 72, 108
1, 85392, Note_on_c, 0, 77, 114
1, 85392, Note_on_c, 6, 77, 116
1, 85392, Note_off_c, 6, 79, 108
1, 85395, Note_on_c, 9, 69, 30
1, 85396, Note_off_c, 9, 69, 56
1, 85421, Note_off_c, 1, 53, 88
1, 85432, Note_off_c, 0, 77, 110
1, 85433, Note_off_c, 0, 72, 108
1, 85439, Note_off_c, 11, 41, 104
1, 85439, Note_on_c, 9, 42, 89
1, 85439, Note_off_c, 0, 69, 102
1, 85439, Note_on_c, 9, 69, 84
1, 85440, Note_on_c, 9, 36, 70
1, 85440, Note_on_c, 9, 40, 60
1, 85440, Note_off_c, 9, 42, 100
1, 85440, Note_on_c, 11, 43, 119
1, 85440, Note_on_c, 1, 43, 99
1, 85440, Note_on_c, 2, 57, 116
1, 85440, Note_on_c, 2, 60, 122
1, 85440, Note_on_c, 9, 62, 90
1, 85440, Note_on_c, 2, 65, 120
1, 85440, Note_off_c, 9, 69, 48
1, 85440, Note_on_c, 0, 70, 111
1, 85440, Note_on_c, 0, 74, 113
1, 85440, Note_on_c, 0, 79, 111
1, 85440, Note_on_c, 6, 79, 116
1, 85441, Note_off_c, 9, 36, 96
1, 85441, Note_off_c, 9, 40, 96
1, 85441, Note_off_c, 9, 62, 108
1, 85444, Note_off_c, 6, 77, 111
1, 85482, Note_off_c, 0, 79, 102
1, 85486, Note_off_c, 0, 70, 99
1, 85487, Note_off_c, 0, 74, 97
1, 85488, Note_on_c, 0, 69, 108
1, 85488, Note_on_c, 0, 72, 114
1, 85488, Note_on_c, 0, 77, 116
1, 85488, Note_on_c, 6, 77, 111
1, 85491, Note_on_c, 9, 69, 30
1, 85492, Note_off_c, 9, 69, 48
1, 85495, Note_off_c, 6, 79, 108
1, 85510, Note_off_c, 1, 43, 84
1, 85513, Note_off_c, 2, 65, 110
1, 85516, Note_off_c, 2, 60, 97
1, 85522, Note_off_c, 2, 57, 104
1, 85530, Note_off_c, 0, 69, 108
1, 85534, Note_off_c, 0, 72, 111
1, 85535, Note_on_c, 9, 42, 53
1, 85535, Note_on_c, 9, 69, 76
1, 85535, Note_off_c, 0, 77, 113
1, 85536, Note_off_c, 9, 42, 100
1, 85536, Note_on_c, 1, 55, 93
1, 85536, Note_on_c, 9, 64, 90
1, 85536, Note_on_c, 0, 65, 114
1, 85536, Note_off_c, 9, 69, 48
1, 85536, Note_on_c, 0, 69, 116
1, 85536, Note_on_c, 0, 74, 114
1, 85536, Note_on_c, 6, 74, 116
1, 85537, Note_off_c, 9, 64, 96
1, 85540, Note_off_c, 6, 77, 108
1, 85556, Note_off_c, 1, 55, 91
1, 85577, Note_off_c, 0, 74, 108
1, 85581, Note_off_c, 0, 65, 110
1, 85581, Note_off_c, 0, 69, 108
1, 85584, Note_on_c, 1, 55, 88
1, 85584, Note_on_c, 0, 62, 117
1, 85584, Note_on_c, 9, 64, 90
1, 85584, Note_on_c, 0, 67, 113
1, 85584, Note_on_c, 0, 72, 110
1, 85584, Note_on_c, 6, 72, 116
1, 85585, Note_off_c, 9, 64, 104
1, 85587, Note_on_c, 9, 69, 30
1, 85587, Note_off_c, 6, 74, 106
1, 85588, Note_off_c, 9, 69, 48
1, 85604, Pitch_bend_c, 4, 7936
1, 85611, Note_off_c, 1, 55, 90
1, 85611, Pitch_bend_c, 4, 7552
1, 85619, Pitch_bend_c, 4, 6784
1, 85626, Pitch_bend_c, 4, 5760
1, 85627, Note_off_c, 0, 72, 110
1, 85630, Note_off_c, 0, 62, 110
1, 85630, Note_off_c, 0, 67, 110
1, 85631, Note_on_c, 9, 42, 85
1, 85631, Note_off_c, 11, 43, 102
1, 85631, Note_on_c, 9, 69, 84
1, 85632, Note_on_c, 9, 36, 70
1, 85632, Note_off_c, 9, 42, 100
1, 85632, Note_on_c, 11, 45, 116
1, 85632, Note_on_c, 1, 45, 102
1, 85632, Note_on_c, 2, 57, 117
1, 85632, Note_on_c, 2, 60, 122
1, 85632, Note_on_c, 9, 63, 90
1, 85632, Note_on_c, 0, 65, 120
1, 85632, Note_on_c, 2, 65, 122
1, 85632, Note_off_c, 9, 69, 64
1, 85632, Note_on_c, 0, 69, 120
1, 85632, Note_on_c, 4, 69, 95
1, 85632, Note_on_c, 0, 74, 116
1, 85632, Note_on_c, 6, 74, 117
1, 85633, Note_off_c, 9, 36, 108
1, 85633, Note_off_c, 9, 63, 96
1, 85634, Note_off_c, 6, 72, 110
1, 85634, Pitch_bend_c, 4, 4480
1, 85642, Pitch_bend_c, 4, 3968
1, 85650, Pitch_bend_c, 4, 3584
1, 85657, Pitch_bend_c, 4, 3584
1, 85665, Pitch_bend_c, 4, 4352
1, 85673, Pitch_bend_c, 4, 5248
1, 85681, Pitch_bend_c, 4, 6528
1, 85683, Note_on_c, 9, 69, 30
1, 85684, Note_off_c, 9, 69, 64
1, 85688, Pitch_bend_c, 4, 7168
1, 85695, Pitch_bend_c, 4, 7808
1, 85703, Note_off_c, 1, 45, 88
1, 85705, Pitch_bend_c, 4, 8192
1, 85716, Note_off_c, 4, 69, 102
1, 85727, Note_on_c, 9, 42, 56
1, 85727, Note_on_c, 9, 69, 80
1, 85728, Note_off_c, 9, 42, 104
1, 85728, Note_on_c, 1, 57, 96
1, 85728, Note_on_c, 9, 63, 90
1, 85728, Note_off_c, 9, 69, 72
1, 85728, Note_on_c, 4, 70, 95
1, 85729, Note_off_c, 9, 63, 100
1, 85732, Note_off_c, 2, 57, 84
1, 85750, Note_off_c, 4, 70, 88
1, 85755, Note_off_c, 1, 57, 86
1, 85758, Note_off_c, 2, 65, 71
1, 85776, Note_on_c, 1, 57, 86
1, 85776, Note_on_c, 4, 72, 93
1, 85779, Note_on_c, 9, 69, 30
1, 85780, Note_on_c, 2, 57, 97
1, 85780, Note_off_c, 9, 69, 72
1, 85794, Note_off_c, 2, 60, 13
1, 85800, Note_off_c, 4, 72, 99
1, 85802, Note_off_c, 1, 57, 86
1, 85807, Note_off_c, 2, 57, 97
1, 85823, Note_on_c, 9, 42, 96
1, 85823, Note_off_c, 11, 45, 108
1, 85823, Note_on_c, 9, 69, 80
1, 85824, Note_on_c, 9, 36, 70
1, 85824, Note_on_c, 9, 40, 60
1, 85824, Note_on_c, 11, 41, 122
1, 85824, Note_on_c, 1, 41, 100
1, 85824, Note_off_c, 9, 42, 100
1, 85824, Note_on_c, 2, 57, 113
1, 85824, Note_on_c, 2, 60, 117
1, 85824, Note_on_c, 9, 62, 90
1, 85824, Note_on_c, 2, 65, 120
1, 85824, Note_off_c, 9, 69, 72
1, 85824, Note_on_c, 4, 69, 92
1, 85825, Note_off_c, 9, 36, 112
1, 85825, Note_off_c, 9, 40, 108
1, 85825, Note_off_c, 9, 62, 104
1, 85840, Note_off_c, 12, 60, 111
1, 85843, Note_off_c, 2, 65, 108
1, 85844, Note_off_c, 2, 60, 110
1, 85849, Note_off_c, 4, 69, 104
1, 85850, Note_off_c, 12, 57, 108
1, 85853, Note_off_c, 12, 53, 106
1, 85857, Note_off_c, 2, 57, 104
1, 85872, Note_on_c, 4, 65, 93
1, 85875, Note_on_c, 9, 69, 30
1, 85876, Note_off_c, 9, 69, 72
1, 85897, Note_off_c, 4, 65, 104
1, 85898, Pitch_bend_c, 12, 8064
1, 85905, Pitch_bend_c, 12, 7680
1, 85907, Note_off_c, 1, 41, 91
1, 85912, Pitch_bend_c, 12, 4864
1, 85919, Note_on_c, 9, 42, 58
1, 85919, Note_on_c, 9, 69, 80
1, 85920, Note_off_c, 9, 42, 104
1, 85920, Note_on_c, 12, 62, 119
1, 85920, Note_off_c, 9, 69, 72
1, 85920, Pitch_bend_c, 12, 2048
1, 85920, Note_on_c, 1, 53, 91
1, 85920, Note_on_c, 9, 64, 90
1, 85920, Note_on_c, 12, 67, 116
1, 85921, Note_off_c, 9, 64, 104
1, 85928, Pitch_bend_c, 12, 1024
1, 85935, Pitch_bend_c, 12, 1408
1, 85941, Note_off_c, 1, 53, 93
1, 85942, Pitch_bend_c, 12, 6016
1, 85949, Pitch_bend_c, 12, 7424
1, 85957, Pitch_bend_c, 12, 7936
1, 85966, Pitch_bend_c, 12, 8192
1, 85968, Note_on_c, 1, 53, 91
1, 85968, Note_on_c, 9, 64, 90
1, 85969, Note_off_c, 9, 64, 112
1, 85971, Note_on_c, 9, 69, 30
1, 85972, Note_off_c, 9, 69, 72
1, 85995, Note_off_c, 1, 53, 90
1, 86010, Note_off_c, 6, 65, 110
1, 86015, Note_off_c, 11, 41, 111
1, 86015, Note_on_c, 9, 42, 88
1, 86015, Note_on_c, 9, 69, 76
1, 86016, Note_on_c, 9, 36, 70
1, 86016, Note_on_c, 1, 38, 94
1, 86016, Note_off_c, 9, 42, 100
1, 86016, Note_on_c, 11, 50, 119
1, 86016, Note_on_c, 2, 57, 122
1, 86016, Note_on_c, 2, 62, 124
1, 86016, Note_on_c, 6, 62, 90
1, 86016, Note_on_c, 9, 63, 90
1, 86016, Note_on_c, 2, 65, 123
1, 86016, Note_off_c, 9, 69, 60
1, 86017, Note_off_c, 9, 36, 76
1, 86017, Note_off_c, 9, 63, 92
1, 86041, Note_off_c, 6, 74, 84
1, 86051, Note_off_c, 2, 57, 84
1, 86051, Note_off_c, 2, 62, 111
1, 86067, Note_off_c, 2, 65, 108
1, 86067, Note_on_c, 9, 69, 30
1, 86068, Note_off_c, 9, 69, 60
1, 86089, Note_off_c, 1, 38, 82
1, 86099, Note_off_c, 0, 74, 108
1, 86102, Note_off_c, 0, 65, 111
1, 86104, Note_off_c, 12, 62, 110
1, 86106, Note_off_c, 12, 67, 108
1, 86111, Note_on_c, 9, 42, 51
1, 86111, Note_on_c, 9, 69, 68
1, 86112, Note_off_c, 9, 42, 100
1, 86112, Note_on_c, 1, 50, 96
1, 86112, Note_on_c, 2, 57, 113
1, 86112, Note_on_c, 12, 60, 113
1, 86112, Note_on_c, 2, 62, 117
1, 86112, Note_on_c, 9, 63, 90
1, 86112, Note_on_c, 12, 65, 91
1, 86112, Note_off_c, 9, 69, 56
1, 86113, Note_off_c, 9, 63, 84
1, 86114, Note_off_c, 0, 69, 111
1, 86127, Note_off_c, 2, 62, 119
1, 86130, Note_off_c, 12, 65, 104
1, 86133, Note_off_c, 12, 60, 104
1, 86138, Note_off_c, 1, 50, 88
1, 86139, Note_off_c, 2, 57, 104
1, 86160, Note_on_c, 1, 50, 83
1, 86163, Note_on_c, 9, 69, 30
1, 86164, Note_off_c, 9, 69, 56
1, 86188, Note_off_c, 1, 50, 91
1, 86207, Note_on_c, 9, 42, 88
1, 86207, Note_on_c, 9, 69, 84
1, 86208, Note_on_c, 9, 36, 70
1, 86208, Note_on_c, 1, 38, 97
1, 86208, Note_on_c, 9, 40, 60
1, 86208, Note_off_c, 9, 42, 100
1, 86208, Note_on_c, 2, 57, 122
1, 86208, Note_on_c, 12, 60, 114
1, 86208, Note_on_c, 2, 62, 124
1, 86208, Note_on_c, 9, 62, 90
1, 86208, Note_on_c, 0, 65, 119
1, 86208, Note_on_c, 2, 65, 124
1, 86208, Note_on_c, 12, 65, 119
1, 86208, Note_off_c, 9, 69, 48
1, 86208, Note_on_c, 0, 69, 124
1, 86208, Note_on_c, 0, 74, 120
1, 86208, Note_on_c, 6, 74, 117
1, 86209, Note_off_c, 9, 36, 96
1, 86209, Note_off_c, 9, 40, 96
1, 86209, Note_off_c, 9, 62, 108
1, 86238, Note_off_c, 2, 57, 108
1, 86240, Note_off_c, 2, 62, 111
1, 86253, Note_off_c, 2, 65, 108
1, 86259, Note_on_c, 9, 69, 30
1, 86260, Note_off_c, 9, 69, 48
1, 86279, Note_off_c, 1, 38, 79
1, 86283, Note_off_c, 12, 60, 110
1, 86303, Note_on_c, 9, 42, 51
1, 86303, Note_on_c, 9, 69, 76
1, 86304, Note_off_c, 12, 65, 108
1, 86304, Note_off_c, 9, 42, 100
1, 86304, Note_on_c, 1, 50, 94
1, 86304, Note_on_c, 12, 57, 106
1, 86304, Note_on_c, 12, 62, 111
1, 86304, Note_on_c, 9, 64, 90
1, 86304, Note_off_c, 9, 69, 48
1, 86305, Note_off_c, 9, 64, 96
1, 86324, Note_off_c, 1, 50, 90
1, 86352, Note_on_c, 1, 50, 97
1, 86352, Note_on_c, 9, 64, 90
1, 86353, Note_off_c, 9, 64, 104
1, 86355, Note_on_c, 9, 69, 30
1, 86356, Note_off_c, 9, 69, 48
1, 86379, Note_off_c, 1, 50, 90
1, 86389, Note_off_c, 0, 69, 106
1, 86396, Note_off_c, 0, 74, 108
1, 86399, Note_on_c, 9, 42, 82
1, 86399, Note_off_c, 0, 65, 110
1, 86399, Note_on_c, 9, 69, 84
1, 86400, Note_on_c, 9, 36, 70
1, 86400, Note_on_c, 1, 38, 100
1, 86400, Note_off_c, 12, 57, 110
1, 86400, Note_off_c, 9, 42, 96
1, 86400, Note_on_c, 2, 57, 122
1, 86400, Note_on_c, 12, 60, 113
1, 86400, Note_on_c, 2, 62, 124
1, 86400, Note_on_c, 9, 63, 90
1, 86400, Note_on_c, 2, 65, 124
1, 86400, Note_on_c, 12, 65, 113
1, 86400, Note_off_c, 9, 69, 64
1, 86400, Note_on_c, 0, 69, 120
1, 86400, Note_on_c, 0, 74, 120
1, 86400, Note_on_c, 0, 77, 120
1, 86400, Note_on_c, 6, 77, 122
1, 86401, Note_off_c, 9, 36, 108
1, 86401, Note_off_c, 9, 63, 96
1, 86405, Note_off_c, 6, 74, 108
1, 86419, Note_off_c, 12, 62, 108
1, 86431, Note_off_c, 2, 57, 108
1, 86433, Note_off_c, 2, 62, 111
1, 86451, Note_on_c, 9, 69, 30
1, 86452, Note_off_c, 9, 69, 64
1, 86467, Note_off_c, 1, 38, 82
1, 86477, Note_off_c, 2, 65, 13
1, 86495, Note_on_c, 9, 42, 63
1, 86495, Note_on_c, 9, 69, 80
1, 86496, Note_off_c, 9, 42, 100
1, 86496, Note_on_c, 1, 50, 94
1, 86496, Note_on_c, 9, 63, 90
1, 86496, Note_off_c, 9, 69, 72
1, 86497, Note_off_c, 9, 63, 100
1, 86517, Note_off_c, 1, 50, 86
1, 86544, Note_on_c, 1, 50, 97
1, 86547, Note_on_c, 9, 69, 30
1, 86548, Note_on_c, 2, 57, 99
1, 86548, Note_off_c, 9, 69, 72
1, 86563, Note_off_c, 1, 50, 82
1, 86574, Note_off_c, 2, 57, 102
1, 86589, Note_off_c, 0, 69, 106
1, 86589, Note_off_c, 0, 77, 111
1, 86590, Note_off_c, 0, 74, 102
1, 86591, Note_on_c, 9, 42, 88
1, 86591, Note_off_c, 12, 65, 104
1, 86591, Note_on_c, 9, 69, 80
1, 86592, Note_on_c, 9, 36, 70
1, 86592, Note_on_c, 1, 38, 99
1, 86592, Note_on_c, 9, 40, 60
1, 86592, Note_off_c, 9, 42, 100
1, 86592, Note_on_c, 2, 57, 117
1, 86592, Note_on_c, 12, 57, 113
1, 86592, Note_on_c, 2, 62, 124
1, 86592, Note_on_c, 12, 62, 113
1, 86592, Note_on_c, 9, 62, 90
1, 86592, Note_on_c, 2, 65, 122
1, 86592, Note_off_c, 9, 69, 72
1, 86592, Note_on_c, 0, 74, 116
1, 86592, Note_on_c, 0, 77, 122
1, 86592, Note_on_c, 0, 81, 120
1, 86592, Note_on_c, 6, 81, 119
1, 86593, Note_off_c, 9, 36, 112
1, 86593, Note_off_c, 9, 40, 108
1, 86593, Note_off_c, 9, 62, 104
1, 86597, Note_off_c, 12, 60, 104
1, 86599, Note_off_c, 6, 77, 106
1, 86620, Note_off_c, 2, 57, 110
1, 86620, Note_off_c, 2, 62, 111
1, 86643, Note_on_c, 9, 69, 30
1, 86644, Note_off_c, 9, 69, 72
1, 86648, Note_off_c, 2, 65, 91
1, 86656, Note_off_c, 12, 62, 108
1, 86662, Note_off_c, 1, 38, 82
1, 86665, Note_off_c, 12, 57, 108
1, 86669, Pitch_bend_c, 12, 5760
1, 86676, Pitch_bend_c, 12, 2944
1, 86684, Pitch_bend_c, 12, 1280
1, 86687, Note_on_c, 9, 42, 54
1, 86687, Note_on_c, 9, 69, 80
1, 86688, Note_off_c, 9, 42, 100
1, 86688, Note_on_c, 1, 50, 96
1, 86688, Note_on_c, 12, 62, 117
1, 86688, Note_on_c, 9, 64, 90
1, 86688, Note_on_c, 12, 67, 116
1, 86688, Note_off_c, 9, 69, 72
1, 86689, Note_off_c, 9, 64, 104
1, 86692, Pitch_bend_c, 12, 2432
1, 86699, Pitch_bend_c, 12, 6400
1, 86707, Pitch_bend_c, 12, 7424
1, 86708, Note_off_c, 1, 50, 88
1, 86715, Pitch_bend_c, 12, 7808
1, 86722, Pitch_bend_c, 12, 8192
1, 86736, Note_on_c, 1, 50, 93
1, 86736, Note_on_c, 9, 64, 90
1, 86737, Note_off_c, 9, 64, 112
1, 86739, Note_on_c, 9, 69, 30
1, 86740, Note_off_c, 9, 69, 72
1, 86762, Note_off_c, 1, 50, 88
1, 86778, Note_off_c, 0, 77, 111
1, 86778, Note_off_c, 0, 81, 110
1, 86783, Note_on_c, 9, 42, 88
1, 86783, Note_on_c, 9, 69, 76
1, 86783, Note_off_c, 0, 74, 110
1, 86784, Note_on_c, 9, 36, 70
1, 86784, Note_on_c, 1, 38, 97
1, 86784, Note_off_c, 9, 42, 100
1, 86784, Note_on_c, 2, 57, 122
1, 86784, Note_on_c, 2, 62, 124
1, 86784, Note_on_c, 9, 63, 90
1, 86784, Note_on_c, 2, 65, 124
1, 86784, Note_off_c, 9, 69, 60
1, 86784, Note_on_c, 0, 77, 119
1, 86784, Note_on_c, 0, 81, 122
1, 86784, Note_on_c, 0, 84, 122
1, 86784, Note_on_c, 6, 84, 120
1, 86785, Note_off_c, 9, 36, 76
1, 86785, Note_off_c, 9, 63, 92
1, 86791, Note_off_c, 6, 81, 111
1, 86814, Note_off_c, 2, 62, 111
1, 86816, Note_off_c, 2, 57, 110
1, 86818, Note_off_c, 2, 65, 110
1, 86835, Note_on_c, 9, 69, 30
1, 86836, Note_off_c, 9, 69, 60
1, 86852, Note_off_c, 1, 38, 77
1, 86879, Note_on_c, 9, 42, 60
1, 86879, Note_off_c, 12, 62, 110
1, 86879, Note_off_c, 12, 67, 108
1, 86879, Note_on_c, 9, 69, 68
1, 86880, Note_off_c, 9, 42, 100
1, 86880, Note_on_c, 1, 50, 96
1, 86880, Note_on_c, 2, 57, 111
1, 86880, Note_on_c, 12, 60, 111
1, 86880, Note_on_c, 2, 62, 119
1, 86880, Note_on_c, 9, 63, 90
1, 86880, Note_on_c, 2, 65, 117
1, 86880, Note_on_c, 12, 65, 113
1, 86880, Note_off_c, 9, 69, 56
1, 86881, Note_off_c, 9, 63, 84
1, 86903, Note_off_c, 12, 60, 104
1, 86903, Note_off_c, 1, 50, 86
1, 86905, Note_off_c, 2, 57, 102
1, 86907, Note_off_c, 2, 62, 113
1, 86911, Note_off_c, 2, 65, 108
1, 86913, Note_off_c, 12, 65, 108
1, 86928, Note_on_c, 1, 50, 91
1, 86931, Note_on_c, 9, 69, 30
1, 86932, Note_off_c, 9, 69, 56
1, 86953, Note_off_c, 1, 50, 74
1, 86975, Note_on_c, 9, 42, 89
1, 86975, Note_on_c, 9, 69, 84
1, 86976, Note_on_c, 9, 36, 70
1, 86976, Note_on_c, 1, 38, 102
1, 86976, Note_on_c, 9, 40, 60
1, 86976, Note_off_c, 9, 42, 100
1, 86976, Note_on_c, 2, 57, 119
1, 86976, Note_on_c, 12, 60, 114
1, 86976, Note_on_c, 2, 62, 124
1, 86976, Note_on_c, 9, 62, 90
1, 86976, Note_on_c, 2, 65, 124
1, 86976, Note_on_c, 12, 65, 114
1, 86976, Note_off_c, 9, 69, 48
1, 86977, Note_off_c, 9, 36, 96
1, 86977, Note_off_c, 9, 40, 96
1, 86977, Note_off_c, 9, 62, 108
1, 87006, Note_off_c, 2, 57, 108
1, 87006, Note_off_c, 2, 62, 113
1, 87014, Note_off_c, 2, 65, 111
1, 87020, Note_on_c, 4, 65, 95
1, 87027, Note_on_c, 9, 69, 30
1, 87028, Note_off_c, 9, 69, 48
1, 87044, Note_off_c, 1, 38, 84
1, 87045, Note_off_c, 4, 65, 99
1, 87056, Note_off_c, 12, 60, 106
1, 87071, Note_on_c, 9, 42, 53
1, 87071, Note_on_c, 9, 69, 76
1, 87072, Note_off_c, 9, 42, 100
1, 87072, Note_on_c, 1, 50, 93
1, 87072, Note_on_c, 12, 57, 110
1, 87072, Note_on_c, 12, 62, 110
1, 87072, Note_on_c, 9, 64, 90
1, 87072, Note_off_c, 9, 69, 48
1, 87073, Note_off_c, 9, 64, 96
1, 87075, Note_off_c, 12, 65, 108
1, 87091, Note_on_c, 4, 67, 89
1, 87092, Note_off_c, 1, 50, 90
1, 87118, Note_off_c, 4, 67, 97
1, 87120, Note_on_c, 1, 50, 94
1, 87120, Note_on_c, 9, 64, 90
1, 87121, Note_off_c, 9, 64, 104
1, 87123, Note_on_c, 9, 69, 30
1, 87124, Note_off_c, 9, 69, 48
1, 87145, Note_off_c, 1, 50, 84
1, 87163, Note_off_c, 0, 77, 110
1, 87165, Note_off_c, 0, 81, 110
1, 87166, Note_on_c, 4, 65, 100
1, 87166, Note_off_c, 0, 84, 104
1, 87167, Note_on_c, 9, 42, 85
1, 87167, Note_on_c, 9, 69, 84
1, 87168, Note_on_c, 9, 36, 70
1, 87168, Note_on_c, 1, 38, 100
1, 87168, Note_off_c, 9, 42, 100
1, 87168, Note_on_c, 2, 57, 120
1, 87168, Note_on_c, 12, 60, 110
1, 87168, Note_on_c, 2, 62, 123
1, 87168, Note_on_c, 9, 63, 90
1, 87168, Note_on_c, 2, 65, 122
1, 87168, Note_on_c, 12, 65, 113
1, 87168, Note_off_c, 9, 69, 64
1, 87168, Note_on_c, 0, 74, 117
1, 87168, Note_on_c, 0, 77, 122
1, 87168, Note_on_c, 0, 81, 120
1, 87168, Note_on_c, 6, 81, 120
1, 87169, Note_off_c, 9, 36, 108
1, 87169, Note_off_c, 9, 63, 96
1, 87176, Note_off_c, 6, 84, 106
1, 87176, Note_off_c, 12, 57, 108
1, 87181, Note_off_c, 12, 62, 106
1, 87193, Note_off_c, 2, 62, 113
1, 87197, Note_off_c, 2, 57, 108
1, 87197, Note_off_c, 2, 65, 111
1, 87218, Pitch_bend_c, 4, 7936
1, 87219, Note_on_c, 9, 69, 30
1, 87220, Note_off_c, 9, 69, 64
1, 87226, Pitch_bend_c, 4, 7552
1, 87234, Pitch_bend_c, 4, 6912
1, 87237, Note_off_c, 1, 38, 84
1, 87241, Note_off_c, 4, 65, 104
1, 87242, Pitch_bend_c, 4, 6016
1, 87249, Pitch_bend_c, 4, 5248
1, 87256, Pitch_bend_c, 4, 4352
1, 87263, Pitch_bend_c, 4, 3456
1, 87263, Note_on_c, 9, 42, 56
1, 87263, Note_on_c, 9, 69, 80
1, 87264, Note_off_c, 9, 42, 104
1, 87264, Note_on_c, 1, 50, 97
1, 87264, Note_on_c, 2, 57, 113
1, 87264, Note_on_c, 2, 62, 122
1, 87264, Note_on_c, 9, 63, 90
1, 87264, Note_on_c, 2, 65, 122
1, 87264, Note_off_c, 9, 69, 72
1, 87265, Note_off_c, 9, 63, 100
1, 87270, Pitch_bend_c, 4, 3072
1, 87276, Note_on_c, 4, 67, 90
1, 87277, Pitch_bend_c, 4, 2688
1, 87288, Note_off_c, 2, 57, 102
1, 87288, Pitch_bend_c, 4, 3328
1, 87292, Note_off_c, 1, 50, 88
1, 87295, Pitch_bend_c, 4, 4736
1, 87302, Pitch_bend_c, 4, 6528
1, 87309, Pitch_bend_c, 4, 7552
1, 87312, Note_on_c, 1, 50, 79
1, 87312, Note_off_c, 4, 67, 97
1, 87315, Note_on_c, 9, 69, 30
1, 87316, Note_on_c, 2, 57, 97
1, 87316, Note_off_c, 9, 69, 72
1, 87316, Pitch_bend_c, 4, 7808
1, 87323, Pitch_bend_c, 4, 8192
1, 87330, Note_off_c, 2, 65, 104
1, 87337, Note_off_c, 1, 50, 88
1, 87339, Note_off_c, 2, 62, 108
1, 87344, Note_on_c, 4, 67, 102
1, 87348, Note_off_c, 12, 65, 104
1, 87358, Note_off_c, 12, 60, 104
1, 87359, Note_on_c, 9, 42, 96
1, 87359, Note_on_c, 9, 69, 80
1, 87360, Note_on_c, 9, 36, 70
1, 87360, Note_on_c, 1, 38, 102
1, 87360, Note_on_c, 9, 40, 60
1, 87360, Note_off_c, 9, 42, 100
1, 87360, Note_on_c, 12, 57, 111
1, 87360, Note_on_c, 2, 62, 114
1, 87360, Note_on_c, 12, 62, 113
1, 87360, Note_on_c, 9, 62, 90
1, 87360, Note_on_c, 2, 65, 123
1, 87360, Note_off_c, 9, 69, 72
1, 87361, Note_off_c, 9, 36, 112
1, 87361, Note_off_c, 9, 40, 108
1, 87361, Note_off_c, 9, 62, 104
1, 87387, Note_off_c, 4, 67, 81
1, 87389, Note_off_c, 2, 57, 108
1, 87395, Note_off_c, 2, 62, 113
1, 87398, Note_off_c, 2, 65, 111
1, 87411, Note_on_c, 9, 69, 30
1, 87412, Note_off_c, 9, 69, 72
1, 87414, Note_on_c, 4, 65, 89
1, 87428, Note_off_c, 12, 57, 106
1, 87435, Note_off_c, 12, 62, 104
1, 87435, Note_off_c, 1, 38, 82
1, 87439, Pitch_bend_c, 12, 7168
1, 87445, Note_off_c, 4, 65, 97
1, 87448, Pitch_bend_c, 12, 4864
1, 87455, Pitch_bend_c, 12, 2304
1, 87455, Note_on_c, 9, 42, 58
1, 87455, Note_on_c, 9, 69, 80
1, 87456, Note_off_c, 9, 42, 104
1, 87456, Note_on_c, 1, 50, 94
1, 87456, Note_on_c, 12, 62, 117
1, 87456, Note_on_c, 9, 64, 90
1, 87456, Note_on_c, 12, 67, 114
1, 87456, Note_off_c, 9, 69, 72
1, 87457, Note_off_c, 9, 64, 104
1, 87462, Pitch_bend_c, 12, 896
1, 87469, Pitch_bend_c, 12, 5120
1, 87474, Note_off_c, 1, 50, 91
1, 87476, Pitch_bend_c, 12, 6912
1, 87483, Pitch_bend_c, 12, 7552
1, 87491, Pitch_bend_c, 12, 7936
1, 87499, Pitch_bend_c, 12, 8192
1, 87504, Note_on_c, 1, 50, 88
1, 87504, Note_on_c, 9, 64, 90
1, 87505, Note_off_c, 9, 64, 112
1, 87507, Note_on_c, 9, 69, 30
1, 87508, Note_off_c, 9, 69, 72
1, 87530, Note_off_c, 1, 50, 88
1, 87537, Note_on_c, 4, 65, 87
1, 87551, Note_on_c, 9, 42, 88
1, 87551, Note_off_c, 11, 50, 108
1, 87551, Note_on_c, 9, 69, 76
1, 87552, Note_on_c, 9, 36, 70
1, 87552, Note_on_c, 11, 41, 124
1, 87552, Note_on_c, 1, 41, 97
1, 87552, Note_off_c, 9, 42, 100
1, 87552, Note_on_c, 2, 57, 114
1, 87552, Note_on_c, 2, 60, 119
1, 87552, Note_on_c, 9, 63, 90
1, 87552, Note_on_c, 2, 65, 117
1, 87552, Note_on_c, 6, 65, 90
1, 87552, Note_off_c, 9, 69, 60
1, 87553, Note_off_c, 9, 36, 76
1, 87553, Note_off_c, 9, 63, 92
1, 87558, Note_off_c, 6, 62, 113
1, 87568, Note_off_c, 2, 60, 111
1, 87570, Note_off_c, 0, 74, 108
1, 87576, Note_off_c, 2, 57, 104
1, 87579, Note_off_c, 2, 65, 108
1, 87580, Note_off_c, 6, 81, 108
1, 87582, Note_off_c, 0, 81, 110
1, 87603, Note_on_c, 9, 69, 30
1, 87604, Note_off_c, 9, 69, 60
1, 87606, Note_off_c, 4, 65, 76
1, 87626, Note_off_c, 0, 77, 110
1, 87629, Note_off_c, 1, 41, 86
1, 87634, Note_on_c, 4, 67, 84
1, 87647, Note_on_c, 9, 42, 60
1, 87647, Note_on_c, 9, 69, 68
1, 87648, Note_off_c, 12, 67, 108
1, 87648, Note_off_c, 9, 42, 100
1, 87648, Note_on_c, 1, 53, 99
1, 87648, Note_on_c, 2, 57, 116
1, 87648, Note_on_c, 2, 60, 116
1, 87648, Note_on_c, 12, 60, 114
1, 87648, Note_on_c, 9, 63, 90
1, 87648, Note_on_c, 2, 65, 110
1, 87648, Note_on_c, 12, 65, 113
1, 87648, Note_off_c, 9, 69, 56
1, 87648, Note_on_c, 0, 74, 114
1, 87648, Note_on_c, 0, 79, 114
1, 87648, Note_on_c, 0, 82, 114
1, 87648, Note_on_c, 6, 82, 117
1, 87649, Note_off_c, 12, 62, 111
1, 87649, Note_off_c, 9, 63, 84
1, 87662, Note_off_c, 2, 60, 116
1, 87671, Note_off_c, 2, 65, 108
1, 87675, Note_off_c, 2, 57, 104
1, 87677, Note_off_c, 1, 53, 91
1, 87678, Note_off_c, 12, 60, 111
1, 87679, Note_off_c, 12, 65, 99
1, 87688, Note_off_c, 0, 74, 104
1, 87689, Note_off_c, 0, 82, 106
1, 87691, Note_off_c, 0, 79, 106
1, 87696, Note_on_c, 1, 53, 81
1, 87696, Note_on_c, 0, 72, 113
1, 87696, Note_on_c, 0, 77, 114
1, 87696, Note_on_c, 0, 81, 111
1, 87696, Note_on_c, 6, 81, 117
1, 87697, Note_off_c, 6, 82, 106
1, 87698, Note_off_c, 4, 67, 35
1, 87699, Note_on_c, 9, 69, 30
1, 87700, Note_off_c, 9, 69, 56
1, 87726, Note_off_c, 1, 53, 91
1, 87738, Note_off_c, 0, 72, 108
1, 87740, Note_on_c, 4, 65, 86
1, 87740, Note_off_c, 0, 81, 104
1, 87741, Note_off_c, 0, 77, 104
1, 87743, Note_on_c, 9, 42, 89
1, 87743, Note_on_c, 9, 69, 84
1, 87744, Note_on_c, 9, 36, 70
1, 87744, Note_on_c, 9, 40, 60
1, 87744, Note_on_c, 1, 41, 102
1, 87744, Note_off_c, 9, 42, 100
1, 87744, Note_on_c, 2, 57, 119
1, 87744, Note_on_c, 2, 60, 123
1, 87744, Note_on_c, 12, 60, 111
1, 87744, Note_on_c, 9, 62, 90
1, 87744, Note_on_c, 2, 65, 122
1, 87744, Note_on_c, 12, 65, 117
1, 87744, Note_off_c, 9, 69, 48
1, 87744, Note_on_c, 0, 74, 113
1, 87744, Note_on_c, 0, 79, 113
1, 87744, Note_on_c, 0, 82, 116
1, 87744, Note_on_c, 6, 82, 117
1, 87745, Note_off_c, 6, 81, 111
1, 87745, Note_off_c, 9, 36, 96
1, 87745, Note_off_c, 9, 40, 96
1, 87745, Note_off_c, 9, 62, 108
1, 87785, Note_off_c, 0, 82, 99
1, 87787, Note_off_c, 0, 79, 94
1, 87789, Note_off_c, 0, 74, 76
1, 87791, Note_off_c, 4, 65, 102
1, 87792, Note_on_c, 0, 72, 113
1, 87792, Note_on_c, 0, 77, 114
1, 87792, Note_on_c, 0, 81, 113
1, 87792, Note_on_c, 6, 81, 114
1, 87795, Note_on_c, 9, 69, 30
1, 87796, Note_off_c, 9, 69, 48
1, 87798, Note_off_c, 6, 82, 99
1, 87813, Note_off_c, 2, 57, 106
1, 87815, Pitch_bend_c, 4, 7296
1, 87816, Note_off_c, 2, 60, 111
1, 87816, Note_off_c, 2, 65, 110
1, 87820, Note_off_c, 1, 41, 90
1, 87822, Pitch_bend_c, 4, 5632
1, 87829, Pitch_bend_c, 4, 3968
1, 87830, Note_off_c, 12, 60, 106
1, 87832, Note_off_c, 0, 72, 108
1, 87832, Note_off_c, 0, 81, 108
1, 87836, Pitch_bend_c, 4, 2688
1, 87838, Note_off_c, 0, 77, 110
1, 87839, Note_on_c, 9, 42, 53
1, 87839, Note_on_c, 9, 69, 76
1, 87839, Note_off_c, 6, 81, 111
1, 87840, Note_off_c, 9, 42, 100
1, 87840, Note_on_c, 1, 53, 94
1, 87840, Note_on_c, 12, 57, 108
1, 87840, Note_on_c, 12, 62, 111
1, 87840, Note_on_c, 9, 64, 90
1, 87840, Note_off_c, 9, 69, 48
1, 87840, Note_on_c, 0, 69, 113
1, 87840, Note_on_c, 0, 72, 114
1, 87840, Note_on_c, 0, 77, 113
1, 87840, Note_on_c, 6, 77, 116
1, 87841, Note_off_c, 9, 64, 96
1, 87844, Pitch_bend_c, 4, 1792
1, 87845, Note_on_c, 4, 69, 90
1, 87849, Note_off_c, 12, 65, 102
1, 87852, Pitch_bend_c, 4, 1408
1, 87862, Note_off_c, 1, 53, 86
1, 87872, Pitch_bend_c, 4, 1792
1, 87879, Pitch_bend_c, 4, 2176
1, 87880, Note_off_c, 0, 69, 106
1, 87883, Note_off_c, 0, 72, 108
1, 87883, Note_off_c, 0, 77, 111
1, 87886, Pitch_bend_c, 4, 2560
1, 87888, Note_on_c, 1, 53, 94
1, 87888, Note_on_c, 9, 64, 90
1, 87888, Note_on_c, 0, 67, 111
1, 87888, Note_on_c, 0, 69, 110
1, 87888, Note_on_c, 0, 74, 114
1, 87888, Note_on_c, 6, 74, 114
1, 87889, Note_off_c, 9, 64, 104
1, 87891, Note_on_c, 9, 69, 30
1, 87892, Note_off_c, 6, 77, 110
1, 87892, Note_off_c, 9, 69, 48
1, 87895, Pitch_bend_c, 4, 2944
1, 87902, Pitch_bend_c, 4, 3328
1, 87911, Note_off_c, 1, 53, 84
1, 87914, Control_c, 0, 11, 111
1, 87914, Control_c, 12, 11, 111
1, 87914, Control_c, 11, 11, 111
1, 87914, Control_c, 6, 11, 111
1, 87915, Pitch_bend_c, 4, 3584
1, 87923, Pitch_bend_c, 4, 3968
1, 87929, Note_off_c, 0, 67, 110
1, 87932, Pitch_bend_c, 4, 4352
1, 87933, Note_off_c, 0, 74, 108
1, 87934, Note_off_c, 0, 69, 104
1, 87935, Note_on_c, 9, 42, 85
1, 87935, Note_on_c, 9, 69, 84
1, 87936, Note_on_c, 9, 36, 70
1, 87936, Note_on_c, 1, 41, 99
1, 87936, Note_off_c, 9, 42, 100
1, 87936, Note_on_c, 2, 57, 113
1, 87936, Note_on_c, 2, 60, 122
1, 87936, Note_on_c, 12, 60, 113
1, 87936, Note_on_c, 9, 63, 90
1, 87936, Note_on_c, 2, 65, 120
1, 87936, Note_on_c, 12, 65, 97
1, 87936, Note_off_c, 9, 69, 64
1, 87936, Note_on_c, 0, 69, 119
1, 87936, Note_on_c, 0, 72, 119
1, 87936, Note_on_c, 0, 77, 120
1, 87936, Note_on_c, 6, 77, 120
1, 87937, Note_off_c, 12, 57, 108
1, 87937, Note_off_c, 9, 36, 108
1, 87937, Note_off_c, 9, 63, 96
1, 87939, Note_off_c, 6, 74, 108
1, 87939, Pitch_bend_c, 4, 4992
1, 87947, Pitch_bend_c, 4, 5632
1, 87952, Note_off_c, 12, 62, 108
1, 87955, Pitch_bend_c, 4, 6400
1, 87963, Pitch_bend_c, 4, 6784
1, 87970, Pitch_bend_c, 4, 7040
1, 87971, Note_off_c, 4, 69, 104
1, 87977, Pitch_bend_c, 4, 7552
1, 87985, Note_on_c, 4, 70, 84
1, 87986, Pitch_bend_c, 4, 7936
1, 87987, Note_on_c, 9, 69, 30
1, 87988, Note_off_c, 9, 69, 64
1, 87993, Pitch_bend_c, 4, 8192
1, 88012, Note_off_c, 1, 41, 90
1, 88022, Note_off_c, 4, 70, 102
1, 88031, Note_on_c, 9, 42, 56
1, 88031, Note_on_c, 9, 69, 80
1, 88032, Note_off_c, 9, 42, 104
1, 88032, Note_on_c, 1, 53, 94
1, 88032, Note_on_c, 9, 63, 90
1, 88032, Note_off_c, 9, 69, 72
1, 88033, Note_off_c, 9, 63, 100
1, 88035, Note_off_c, 2, 57, 71
1, 88053, Note_on_c, 4, 72, 87
1, 88054, Note_off_c, 1, 53, 86
1, 88060, Note_off_c, 2, 65, 66
1, 88080, Note_on_c, 1, 53, 93
1, 88083, Note_on_c, 9, 69, 30
1, 88084, Note_on_c, 2, 57, 102
1, 88084, Note_off_c, 9, 69, 72
1, 88088, Note_off_c, 4, 72, 99
1, 88090, Note_off_c, 2, 60, 66
1, 88097, Pitch_bend_c, 4, 7552
1, 88105, Note_off_c, 12, 65, 104
1, 88105, Note_off_c, 1, 53, 86
1, 88105, Pitch_bend_c, 4, 6272
1, 88112, Pitch_bend_c, 4, 4352
1, 88119, Pitch_bend_c, 4, 2176
1, 88123, Note_off_c, 12, 60, 102
1, 88126, Pitch_bend_c, 4, 1024
1, 88127, Note_on_c, 9, 42, 96
1, 88127, Note_on_c, 4, 69, 89
1, 88127, Note_on_c, 9, 69, 80
1, 88128, Note_on_c, 9, 36, 70
1, 88128, Note_on_c, 9, 40, 60
1, 88128, Note_on_c, 1, 41, 100
1, 88128, Note_off_c, 9, 42, 100
1, 88128, Note_on_c, 12, 57, 113
1, 88128, Note_on_c, 2, 60, 122
1, 88128, Note_on_c, 12, 62, 116
1, 88128, Note_on_c, 9, 62, 90
1, 88128, Note_on_c, 2, 65, 120
1, 88128, Note_off_c, 9, 69, 72
1, 88129, Note_off_c, 9, 36, 112
1, 88129, Note_off_c, 9, 40, 108
1, 88129, Note_off_c, 9, 62, 104
1, 88133, Pitch_bend_c, 4, 512
1, 88140, Pitch_bend_c, 4, 768
1, 88148, Pitch_bend_c, 4, 2944
1, 88152, Note_off_c, 2, 65, 108
1, 88156, Pitch_bend_c, 4, 5376
1, 88163, Pitch_bend_c, 4, 6912
1, 88167, Note_off_c, 2, 60, 108
1, 88170, Pitch_bend_c, 4, 7424
1, 88177, Note_off_c, 2, 57, 102
1, 88179, Pitch_bend_c, 4, 6400
1, 88179, Note_on_c, 9, 69, 30
1, 88180, Note_off_c, 9, 69, 72
1, 88186, Pitch_bend_c, 4, 3584
1, 88193, Pitch_bend_c, 4, 1536
1, 88194, Note_off_c, 4, 69, 111
1, 88205, Note_off_c, 1, 41, 91
1, 88209, Pitch_bend_c, 4, 6016
1, 88216, Pitch_bend_c, 4, 7552
1, 88223, Note_on_c, 9, 46, 91
1, 88223, Note_on_c, 9, 69, 80
1, 88224, Note_off_c, 9, 46, 104
1, 88224, Note_on_c, 12, 53, 106
1, 88224, Note_on_c, 12, 60, 113
1, 88224, Note_off_c, 9, 69, 72
1, 88224, Pitch_bend_c, 4, 7936
1, 88224, Note_on_c, 1, 53, 94
1, 88224, Note_on_c, 9, 64, 90
1, 88225, Note_off_c, 9, 64, 104
1, 88227, Note_off_c, 12, 62, 106
1, 88231, Pitch_bend_c, 4, 8192
1, 88246, Note_off_c, 1, 53, 86
1, 88272, Note_on_c, 1, 53, 99
1, 88272, Note_on_c, 9, 64, 90
1, 88272, Note_on_c, 4, 72, 99
1, 88273, Note_off_c, 9, 64, 112
1, 88275, Note_on_c, 9, 69, 30
1, 88276, Note_off_c, 9, 69, 72
1, 88287, Control_c, 0, 11, 112
1, 88287, Control_c, 12, 11, 112
1, 88287, Control_c, 11, 11, 112
1, 88287, Control_c, 6, 11, 112
1, 88297, Note_off_c, 1, 53, 84
1, 88308, Pitch_bend_c, 4, 8448
1, 88315, Pitch_bend_c, 4, 10624
1, 88319, Note_on_c, 9, 44, 88
1, 88319, Note_on_c, 9, 69, 76
1, 88320, Note_on_c, 9, 36, 96
1, 88320, Note_on_c, 1, 41, 100
1, 88320, Note_off_c, 9, 44, 100
1, 88320, Note_on_c, 2, 57, 108
1, 88320, Note_on_c, 2, 60, 119
1, 88320, Note_on_c, 9, 63, 90
1, 88320, Note_on_c, 2, 65, 117
1, 88320, Note_off_c, 9, 69, 60
1, 88321, Note_off_c, 9, 36, 76
1, 88321, Note_off_c, 9, 63, 92
1, 88324, Control_c, 0, 11, 113
1, 88324, Control_c, 12, 11, 113
1, 88324, Pitch_bend_c, 4, 14336
1, 88324, Control_c, 11, 11, 113
1, 88324, Control_c, 6, 11, 113
1, 88331, Pitch_bend_c, 4, 15616
1, 88338, Control_c, 2, 11, 100
1, 88338, Pitch_bend_c, 4, 16000
1, 88345, Pitch_bend_c, 4, 16256
1, 88347, Note_off_c, 2, 57, 104
1, 88349, Note_off_c, 2, 60, 111
1, 88352, Note_off_c, 2, 65, 110
1, 88354, Note_off_c, 6, 77, 113
1, 88355, Pitch_bend_c, 4, 14464
1, 88356, Control_c, 2, 11, 101
1, 88362, Pitch_bend_c, 4, 12416
1, 88369, Pitch_bend_c, 4, 9856
1, 88371, Note_on_c, 9, 69, 30
1, 88372, Note_off_c, 9, 69, 60
1, 88372, Control_c, 2, 11, 102
1, 88378, Pitch_bend_c, 4, 8704
1, 88385, Pitch_bend_c, 4, 8448
1, 88392, Pitch_bend_c, 4, 8192
1, 88395, Note_off_c, 0, 77, 111
1, 88395, Note_off_c, 1, 41, 91
1, 88409, Control_c, 2, 11, 103
1, 88410, Pitch_bend_c, 4, 9472
1, 88411, Note_off_c, 0, 69, 110
1, 88415, Note_on_c, 9, 69, 68
1, 88416, Note_on_c, 9, 40, 96
1, 88416, Note_on_c, 1, 53, 107
1, 88416, Note_on_c, 2, 57, 113
1, 88416, Note_on_c, 2, 60, 120
1, 88416, Note_on_c, 9, 63, 100
1, 88416, Note_on_c, 2, 65, 117
1, 88416, Note_off_c, 9, 69, 56
1, 88416, Note_on_c, 0, 70, 110
1, 88416, Note_on_c, 0, 74, 113
1, 88416, Note_on_c, 0, 79, 114
1, 88416, Note_on_c, 6, 79, 113
1, 88417, Note_off_c, 9, 40, 96
1, 88417, Note_off_c, 9, 63, 84
1, 88418, Note_off_c, 0, 72, 110
1, 88418, Pitch_bend_c, 4, 12672
1, 88426, Pitch_bend_c, 4, 15360
1, 88427, Control_c, 0, 11, 114
1, 88427, Control_c, 12, 11, 114
1, 88427, Control_c, 11, 11, 114
1, 88427, Control_c, 6, 11, 114
1, 88428, Control_c, 2, 11, 104
1, 88433, Pitch_bend_c, 4, 15872
1, 88435, Note_off_c, 1, 53, 88
1, 88439, Note_off_c, 2, 60, 108
1, 88441, Pitch_bend_c, 4, 15232
1, 88442, Note_off_c, 2, 57, 106
1, 88445, Note_off_c, 2, 65, 102
1, 88449, Pitch_bend_c, 4, 12800
1, 88457, Pitch_bend_c, 4, 10368
1, 88458, Note_off_c, 0, 79, 108
1, 88460, Note_off_c, 0, 70, 104
1, 88463, Note_off_c, 0, 74, 108
1, 88463, Control_c, 2, 11, 105
1, 88464, Note_on_c, 0, 69, 110
1, 88464, Note_on_c, 0, 72, 108
1, 88464, Note_on_c, 0, 77, 114
1, 88464, Pitch_bend_c, 4, 9088
1, 88464, Note_on_c, 9, 40, 120
1, 88464, Note_on_c, 1, 53, 112
1, 88464, Note_on_c, 6, 77, 116
1, 88465, Note_off_c, 9, 40, 96
1, 88467, Note_on_c, 9, 69, 30
1, 88467, Note_off_c, 6, 79, 108
1, 88468, Note_off_c, 9, 69, 56
1, 88472, Pitch_bend_c, 4, 8448
1, 88481, Pitch_bend_c, 4, 8192
1, 88486, Note_off_c, 1, 53, 74
1, 88492, Control_c, 0, 11, 115
1, 88492, Control_c, 12, 11, 115
1, 88492, Control_c, 11, 11, 115
1, 88492, Control_c, 6, 11, 115
1, 88493, Control_c, 2, 11, 107
1, 88498, Pitch_bend_c, 4, 9088
1, 88504, Note_off_c, 0, 77, 110
1, 88505, Note_off_c, 0, 72, 108
1, 88505, Pitch_bend_c, 4, 12416
1, 88511, Note_off_c, 11, 41, 111
1, 88511, Note_off_c, 0, 69, 102
1, 88511, Note_on_c, 9, 69, 84
1, 88512, Note_on_c, 9, 36, 101
1, 88512, Note_on_c, 11, 43, 119
1, 88512, Note_on_c, 1, 43, 108
1, 88512, Note_on_c, 2, 57, 116
1, 88512, Note_on_c, 2, 60, 122
1, 88512, Note_on_c, 9, 62, 102
1, 88512, Note_on_c, 2, 65, 120
1, 88512, Note_off_c, 6, 77, 111
1, 88512, Note_off_c, 9, 69, 48
1, 88512, Note_on_c, 0, 70, 111
1, 88512, Note_on_c, 0, 74, 113
1, 88512, Note_on_c, 0, 79, 111
1, 88512, Note_on_c, 6, 79, 117
1, 88513, Note_off_c, 9, 36, 96
1, 88513, Note_off_c, 9, 62, 108
1, 88514, Pitch_bend_c, 4, 15104
1, 88521, Pitch_bend_c, 4, 15744
1, 88528, Pitch_bend_c, 4, 16128
1, 88537, Pitch_bend_c, 4, 15872
1, 88544, Pitch_bend_c, 4, 15616
1, 88549, Control_c, 2, 11, 108
1, 88551, Pitch_bend_c, 4, 9984
1, 88552, Control_c, 0, 11, 116
1, 88552, Control_c, 12, 11, 116
1, 88552, Control_c, 11, 11, 116
1, 88552, Control_c, 6, 11, 116
1, 88554, Note_off_c, 0, 79, 102
1, 88558, Note_off_c, 0, 70, 99
1, 88558, Pitch_bend_c, 4, 8832
1, 88559, Note_off_c, 0, 74, 97
1, 88560, Note_on_c, 9, 40, 120
1, 88560, Note_on_c, 0, 69, 108
1, 88560, Note_on_c, 0, 72, 114
1, 88560, Note_on_c, 0, 77, 116
1, 88560, Note_on_c, 6, 77, 116
1, 88561, Note_off_c, 9, 40, 96
1, 88563, Note_on_c, 9, 69, 30
1, 88564, Note_off_c, 9, 69, 48
1, 88565, Note_off_c, 6, 79, 106
1, 88565, Pitch_bend_c, 4, 8448
1, 88572, Note_off_c, 4, 72, 111
1, 88572, Pitch_bend_c, 4, 8192
1, 88583, Control_c, 2, 11, 109
1, 88585, Note_off_c, 2, 65, 110
1, 88588, Note_off_c, 2, 60, 97
1, 88592, Note_off_c, 1, 43, 86
1, 88594, Note_off_c, 2, 57, 104
1, 88597, Control_c, 0, 11, 117
1, 88597, Control_c, 12, 11, 117
1, 88597, Control_c, 11, 11, 117
1, 88597, Control_c, 6, 11, 117
1, 88602, Note_off_c, 0, 69, 108
1, 88606, Note_off_c, 0, 72, 111
1, 88607, Note_on_c, 9, 69, 76
1, 88607, Note_off_c, 0, 77, 113
1, 88608, Note_on_c, 9, 40, 120
1, 88608, Note_on_c, 1, 55, 109
1, 88608, Note_on_c, 9, 64, 112
1, 88608, Note_on_c, 0, 65, 114
1, 88608, Note_off_c, 9, 69, 48
1, 88608, Note_on_c, 0, 69, 116
1, 88608, Note_on_c, 0, 74, 114
1, 88608, Note_on_c, 6, 74, 116
1, 88609, Note_off_c, 9, 40, 96
1, 88609, Note_off_c, 9, 64, 96
1, 88611, Note_off_c, 6, 77, 113
1, 88611, Control_c, 2, 11, 110
1, 88629, Note_off_c, 1, 55, 79
1, 88637, Control_c, 0, 11, 119
1, 88637, Control_c, 12, 11, 119
1, 88637, Control_c, 11, 11, 119
1, 88637, Control_c, 6, 11, 119
1, 88649, Note_off_c, 0, 74, 108
1, 88651, Note_on_c, 4, 77, 94
1, 88653, Note_off_c, 0, 65, 110
1, 88653, Note_off_c, 0, 69, 108
1, 88656, Note_on_c, 1, 55, 108
1, 88656, Note_on_c, 0, 62, 117
1, 88656, Note_on_c, 9, 64, 102
1, 88656, Note_on_c, 0, 67, 113
1, 88656, Note_on_c, 0, 72, 110
1, 88656, Note_on_c, 6, 72, 113
1, 88657, Note_off_c, 9, 64, 104
1, 88659, Note_on_c, 9, 69, 30
1, 88660, Note_off_c, 9, 69, 48
1, 88662, Note_off_c, 6, 74, 104
1, 88673, Control_c, 2, 11, 111
1, 88676, Control_c, 0, 11, 120
1, 88676, Control_c, 12, 11, 120
1, 88676, Control_c, 11, 11, 120
1, 88676, Control_c, 6, 11, 120
1, 88680, Note_off_c, 4, 77, 88
1, 88682, Note_off_c, 1, 55, 91
1, 88697, Control_c, 0, 11, 121
1, 88697, Control_c, 12, 11, 121
1, 88697, Control_c, 11, 11, 121
1, 88697, Control_c, 6, 11, 121
1, 88699, Note_off_c, 0, 72, 110
1, 88702, Note_off_c, 0, 62, 110
1, 88702, Note_off_c, 0, 67, 110
1, 88703, Note_off_c, 11, 43, 104
1, 88703, Note_on_c, 9, 69, 84
1, 88704, Note_on_c, 9, 36, 114
1, 88704, Note_on_c, 9, 40, 120
1, 88704, Note_on_c, 11, 45, 117
1, 88704, Note_on_c, 1, 45, 113
1, 88704, Note_on_c, 2, 57, 117
1, 88704, Note_on_c, 2, 60, 122
1, 88704, Note_on_c, 9, 63, 103
1, 88704, Note_on_c, 0, 65, 120
1, 88704, Note_on_c, 2, 65, 122
1, 88704, Note_off_c, 9, 69, 64
1, 88704, Note_on_c, 0, 69, 120
1, 88704, Note_on_c, 0, 74, 116
1, 88704, Note_on_c, 6, 74, 117
1, 88705, Note_off_c, 6, 72, 111
1, 88705, Note_off_c, 9, 36, 108
1, 88705, Note_off_c, 9, 40, 108
1, 88705, Note_off_c, 9, 63, 96
1, 88705, Pitch_bend_c, 4, 7296
1, 88712, Pitch_bend_c, 4, 4992
1, 88721, Pitch_bend_c, 4, 2688
1, 88723, Note_on_c, 4, 81, 94
1, 88728, Pitch_bend_c, 4, 2048
1, 88735, Pitch_bend_c, 4, 1152
1, 88744, Pitch_bend_c, 4, 1024
1, 88751, Pitch_bend_c, 4, 1408
1, 88752, Note_on_c, 9, 40, 93
1, 88753, Note_off_c, 9, 40, 108
1, 88755, Note_on_c, 9, 69, 30
1, 88756, Note_off_c, 9, 69, 64
1, 88756, Control_c, 2, 11, 112
1, 88758, Pitch_bend_c, 4, 3328
1, 88766, Pitch_bend_c, 4, 6528
1, 88773, Pitch_bend_c, 4, 7552
1, 88775, Control_c, 0, 11, 122
1, 88775, Control_c, 12, 11, 122
1, 88775, Control_c, 11, 11, 122
1, 88775, Control_c, 6, 11, 122
1, 88778, Note_off_c, 1, 45, 86
1, 88779, Note_off_c, 4, 81, 81
1, 88781, Pitch_bend_c, 4, 7936
1, 88789, Pitch_bend_c, 4, 8192
1, 88795, Control_c, 2, 11, 113
1, 88796, Control_c, 0, 11, 123
1, 88796, Control_c, 12, 11, 123
1, 88796, Control_c, 11, 11, 123
1, 88796, Control_c, 6, 11, 123
1, 88799, Note_on_c, 9, 69, 80
1, 88800, Note_on_c, 9, 40, 120
1, 88800, Note_on_c, 1, 57, 109
1, 88800, Note_on_c, 9, 63, 106
1, 88800, Note_off_c, 9, 69, 72
1, 88801, Note_off_c, 9, 40, 108
1, 88801, Note_off_c, 9, 63, 100
1, 88804, Note_off_c, 2, 57, 84
1, 88814, Note_on_c, 4, 84, 92
1, 88825, Note_off_c, 1, 57, 74
1, 88830, Note_off_c, 2, 65, 71
1, 88844, Control_c, 2, 11, 114
1, 88848, Note_on_c, 9, 40, 120
1, 88848, Note_on_c, 1, 57, 107
1, 88849, Note_off_c, 9, 40, 108
1, 88851, Note_on_c, 9, 69, 30
1, 88852, Note_on_c, 2, 57, 97
1, 88852, Note_off_c, 9, 69, 72
1, 88866, Note_off_c, 2, 60, 13
1, 88870, Control_c, 0, 11, 124
1, 88870, Control_c, 12, 11, 124
1, 88870, Control_c, 11, 11, 124
1, 88870, Control_c, 6, 11, 124
1, 88874, Note_off_c, 1, 57, 90
1, 88874, Control_c, 4, 1, 20
1, 88879, Note_off_c, 2, 57, 97
1, 88881, Note_off_c, 12, 53, 106
1, 88885, Control_c, 2, 11, 116
1, 88887, Note_off_c, 12, 57, 106
1, 88887, Note_off_c, 12, 60, 108
1, 88890, Control_c, 4, 1, 47
1, 88895, Note_off_c, 11, 45, 108
1, 88895, Note_on_c, 9, 69, 80
1, 88896, Note_on_c, 9, 36, 122
1, 88896, Note_on_c, 9, 40, 120
1, 88896, Note_on_c, 11, 41, 122
1, 88896, Note_on_c, 1, 41, 116
1, 88896, Note_on_c, 2, 57, 113
1, 88896, Note_on_c, 2, 60, 117
1, 88896, Note_on_c, 9, 62, 111
1, 88896, Note_on_c, 2, 65, 120
1, 88896, Note_off_c, 9, 69, 72
1, 88897, Note_off_c, 9, 36, 112
1, 88897, Note_off_c, 9, 40, 108
1, 88897, Note_off_c, 9, 62, 104
1, 88900, Control_c, 0, 11, 125
1, 88900, Control_c, 12, 11, 125
1, 88900, Control_c, 11, 11, 125
1, 88900, Control_c, 6, 11, 125
1, 88905, Control_c, 4, 1, 59
1, 88915, Note_off_c, 2, 65, 108
1, 88916, Note_off_c, 2, 60, 110
1, 88921, Control_c, 4, 1, 64
1, 88923, Control_c, 2, 11, 117
1, 88929, Note_off_c, 2, 57, 104
1, 88940, Control_c, 2, 11, 118
1, 88947, Note_on_c, 9, 69, 30
1, 88948, Note_off_c, 9, 69, 72
1, 88967, Control_c, 0, 11, 126
1, 88967, Control_c, 12, 11, 126
1, 88967, Control_c, 11, 11, 126
1, 88967, Control_c, 6, 11, 126
1, 88973, Note_off_c, 1, 41, 90
1, 88973, Control_c, 2, 11, 119
1, 88983, Control_c, 0, 11, 127
1, 88983, Control_c, 12, 11, 127
1, 88983, Control_c, 11, 11, 127
1, 88983, Control_c, 6, 11, 127
1, 88985, Pitch_bend_c, 12, 8064
1, 88991, Note_on_c, 9, 69, 80
1, 88992, Note_on_c, 9, 40, 95
1, 88992, Note_on_c, 1, 53, 110
1, 88992, Note_on_c, 9, 64, 106
1, 88992, Note_off_c, 9, 69, 72
1, 88992, Note_on_c, 2, 57, 79
1, 88992, Note_on_c, 2, 62, 87
1, 88992, Pitch_bend_c, 12, 7680
1, 88992, Note_on_c, 12, 62, 120
1, 88992, Note_on_c, 12, 67, 119
1, 88993, Note_off_c, 9, 40, 108
1, 88993, Note_off_c, 9, 64, 104
1, 88993, Note_off_c, 2, 57, 104
1, 88993, Note_off_c, 2, 62, 104
1, 88998, Control_c, 2, 11, 120
1, 88999, Pitch_bend_c, 12, 4096
1, 89006, Pitch_bend_c, 12, 2176
1, 89013, Note_off_c, 1, 53, 88
1, 89013, Pitch_bend_c, 12, 1024
1, 89015, Note_off_c, 6, 65, 91
1, 89020, Control_c, 2, 11, 121
1, 89023, Pitch_bend_c, 12, 4864
1, 89024, Note_on_c, 2, 57, 115
1, 89024, Note_on_c, 2, 57, 108
1, 89024, Note_off_c, 2, 57, 114
1, 89027, Note_off_c, 2, 57, 106
1, 89030, Pitch_bend_c, 12, 6784
1, 89037, Pitch_bend_c, 12, 7552
1, 89039, Control_c, 2, 11, 122
1, 89040, Note_on_c, 9, 40, 120
1, 89040, Note_on_c, 1, 53, 107
1, 89040, Note_on_c, 9, 64, 111
1, 89041, Note_off_c, 9, 40, 108
1, 89041, Note_off_c, 9, 64, 112
1, 89041, Control_c, 0, 11, 127
1, 89041, Control_c, 12, 11, 127
1, 89041, Control_c, 11, 11, 127
1, 89041, Control_c, 6, 11, 127
1, 89043, Note_on_c, 9, 69, 30
1, 89044, Note_off_c, 9, 69, 72
1, 89044, Pitch_bend_c, 12, 7936
1, 89051, Note_off_c, 6, 74, 99
1, 89051, Pitch_bend_c, 12, 8192
1, 89056, Note_on_c, 2, 62, 113
1, 89056, Note_on_c, 2, 62, 107
1, 89056, Note_off_c, 2, 62, 114
1, 89058, Control_c, 2, 11, 123
1, 89060, Note_off_c, 2, 62, 106
1, 89067, Note_off_c, 1, 53, 91
1, 89084, Control_c, 2, 11, 127
1, 89087, Note_off_c, 11, 41, 113
1, 89087, Note_on_c, 9, 69, 96
1, 89088, Note_on_c, 9, 36, 124
1, 89088, Note_on_c, 1, 38, 116
1, 89088, Note_on_c, 9, 49, 124
1, 89088, Note_on_c, 11, 50, 116
1, 89088, Note_on_c, 2, 57, 122
1, 89088, Note_on_c, 2, 62, 124
1, 89088, Note_on_c, 6, 62, 90
1, 89088, Note_on_c, 9, 63, 120
1, 89088, Note_on_c, 2, 65, 123
1, 89088, Note_off_c, 9, 69, 80
1, 89089, Note_off_c, 9, 36, 76
1, 89089, Note_off_c, 9, 49, 100
1, 89089, Note_off_c, 9, 63, 92
1, 89107, Control_c, 4, 1, 63
1, 89123, Note_off_c, 0, 74, 108
1, 89123, Note_off_c, 2, 57, 84
1, 89123, Note_off_c, 2, 62, 111
1, 89126, Note_off_c, 0, 65, 111
1, 89128, Control_c, 4, 1, 58
1, 89133, Note_off_c, 0, 69, 111
1, 89136, Control_c, 2, 11, 127
1, 89139, Note_off_c, 2, 65, 108
1, 89139, Note_on_c, 9, 69, 50
1, 89140, Note_off_c, 9, 69, 80
1, 89143, Control_c, 4, 1, 55
1, 89153, Note_off_c, 1, 38, 94
1, 89158, Control_c, 4, 1, 50
1, 89159, Note_off_c, 12, 62, 108
1, 89159, Note_off_c, 12, 67, 108
1, 89174, Control_c, 4, 1, 41
1, 89183, Note_on_c, 9, 69, 88
1, 89184, Note_on_c, 1, 50, 114
1, 89184, Note_on_c, 2, 57, 113
1, 89184, Note_on_c, 12, 60, 110
1, 89184, Note_on_c, 2, 62, 117
1, 89184, Note_on_c, 9, 63, 116
1, 89184, Note_on_c, 12, 65, 110
1, 89184, Note_off_c, 9, 69, 76
1, 89185, Note_off_c, 9, 63, 84
1, 89190, Control_c, 4, 1, 34
1, 89199, Note_off_c, 2, 62, 119
1, 89200, Note_off_c, 1, 50, 116
1, 89205, Control_c, 4, 1, 30
1, 89207, Note_off_c, 12, 60, 102
1, 89210, Note_off_c, 12, 65, 94
1, 89211, Note_off_c, 2, 57, 104
1, 89221, Control_c, 4, 1, 22
1, 89232, Note_on_c, 1, 50, 117
1, 89235, Note_on_c, 9, 69, 50
1, 89236, Control_c, 4, 1, 14
1, 89236, Note_off_c, 9, 69, 76
1, 89252, Control_c, 4, 1, 5
1, 89252, Note_off_c, 1, 50, 102
1, 89253, Note_off_c, 4, 84, 102
1, 89268, Control_c, 4, 1, 0
1, 89279, Note_on_c, 9, 42, 7
1, 89279, Note_on_c, 9, 69, 104
1, 89280, Note_on_c, 9, 36, 124
1, 89280, Note_on_c, 1, 38, 117
1, 89280, Note_on_c, 9, 40, 124
1, 89280, Note_off_c, 9, 42, 88
1, 89280, Note_on_c, 2, 57, 122
1, 89280, Note_on_c, 12, 60, 113
1, 89280, Note_on_c, 2, 62, 124
1, 89280, Note_on_c, 9, 62, 124
1, 89280, Note_on_c, 0, 65, 119
1, 89280, Note_on_c, 2, 65, 124
1, 89280, Note_on_c, 12, 65, 113
1, 89280, Note_off_c, 9, 69, 68
1, 89280, Note_on_c, 0, 69, 124
1, 89280, Note_on_c, 0, 74, 120
1, 89280, Note_on_c, 6, 74, 119
1, 89281, Note_off_c, 9, 36, 96
1, 89281, Note_off_c, 9, 40, 96
1, 89281, Note_off_c, 9, 62, 108
1, 89310, Note_off_c, 2, 57, 108
1, 89312, Note_off_c, 2, 62, 111
1, 89325, Note_off_c, 2, 65, 108
1, 89331, Note_on_c, 9, 69, 50
1, 89332, Note_off_c, 9, 69, 68
1, 89349, Note_off_c, 1, 38, 97
1, 89375, Note_on_c, 9, 42, 112
1, 89375, Note_off_c, 12, 60, 104
1, 89375, Note_on_c, 9, 69, 96
1, 89376, Note_off_c, 9, 42, 88
1, 89376, Note_on_c, 1, 50, 114
1, 89376, Note_on_c, 12, 57, 104
1, 89376, Note_on_c, 12, 62, 111
1, 89376, Note_on_c, 9, 64, 116
1, 89376, Note_off_c, 9, 69, 68
1, 89377, Note_off_c, 9, 64, 96
1, 89393, Note_off_c, 1, 50, 114
1, 89402, Note_off_c, 12, 65, 97
1, 89424, Note_on_c, 1, 50, 114
1, 89424, Note_on_c, 9, 64, 108
1, 89425, Note_off_c, 9, 64, 104
1, 89427, Note_on_c, 9, 69, 50
1, 89428, Note_off_c, 9, 69, 68
1, 89445, Note_off_c, 1, 50, 94
1, 89461, Note_off_c, 0, 69, 106
1, 89468, Note_off_c, 0, 74, 108
1, 89471, Note_on_c, 9, 42, 52
1, 89471, Note_off_c, 0, 65, 110
1, 89471, Note_on_c, 9, 69, 104
1, 89472, Note_on_c, 9, 36, 124
1, 89472, Note_on_c, 1, 38, 122
1, 89472, Note_off_c, 9, 42, 92
1, 89472, Note_on_c, 2, 57, 122
1, 89472, Note_on_c, 12, 60, 106
1, 89472, Note_on_c, 2, 62, 124
1, 89472, Note_on_c, 9, 63, 124
1, 89472, Note_on_c, 2, 65, 124
1, 89472, Note_on_c, 12, 65, 111
1, 89472, Note_off_c, 9, 69, 84
1, 89472, Note_on_c, 0, 69, 120
1, 89472, Note_on_c, 0, 74, 120
1, 89472, Note_on_c, 0, 77, 120
1, 89472, Note_on_c, 6, 77, 120
1, 89473, Note_off_c, 9, 36, 108
1, 89473, Note_off_c, 9, 63, 96
1, 89477, Note_off_c, 6, 74, 110
1, 89477, Note_off_c, 12, 57, 108
1, 89489, Note_off_c, 12, 62, 97
1, 89503, Note_off_c, 2, 57, 108
1, 89505, Note_off_c, 2, 62, 111
1, 89523, Note_on_c, 9, 69, 50
1, 89524, Note_off_c, 9, 69, 84
1, 89537, Note_off_c, 1, 38, 97
1, 89549, Note_off_c, 2, 65, 13
1, 89567, Note_on_c, 9, 42, 124
1, 89567, Note_on_c, 9, 69, 100
1, 89568, Note_off_c, 9, 42, 92
1, 89568, Note_on_c, 1, 50, 113
1, 89568, Note_on_c, 9, 63, 124
1, 89568, Note_off_c, 9, 69, 92
1, 89569, Note_off_c, 9, 63, 100
1, 89585, Note_off_c, 1, 50, 113
1, 89616, Note_on_c, 1, 50, 108
1, 89619, Note_on_c, 9, 69, 50
1, 89620, Note_on_c, 2, 57, 99
1, 89620, Note_off_c, 9, 69, 92
1, 89640, Note_off_c, 1, 50, 97
1, 89646, Note_off_c, 2, 57, 102
1, 89656, Note_off_c, 12, 60, 104
1, 89659, Note_off_c, 12, 65, 106
1, 89661, Note_off_c, 0, 69, 106
1, 89661, Note_off_c, 0, 77, 111
1, 89662, Note_off_c, 0, 74, 102
1, 89663, Note_on_c, 9, 42, 84
1, 89663, Note_on_c, 9, 69, 100
1, 89664, Note_on_c, 9, 36, 124
1, 89664, Note_on_c, 1, 38, 117
1, 89664, Note_on_c, 9, 40, 124
1, 89664, Note_off_c, 6, 77, 106
1, 89664, Note_off_c, 9, 42, 96
1, 89664, Note_on_c, 2, 57, 117
1, 89664, Note_on_c, 12, 57, 114
1, 89664, Note_on_c, 2, 62, 124
1, 89664, Note_on_c, 12, 62, 104
1, 89664, Note_on_c, 9, 62, 124
1, 89664, Note_on_c, 2, 65, 122
1, 89664, Note_off_c, 9, 69, 92
1, 89664, Note_on_c, 0, 74, 116
1, 89664, Note_on_c, 0, 77, 122
1, 89664, Note_on_c, 0, 81, 120
1, 89664, Note_on_c, 6, 81, 119
1, 89665, Note_off_c, 9, 36, 112
1, 89665, Note_off_c, 9, 40, 108
1, 89665, Note_off_c, 9, 62, 104
1, 89690, Note_off_c, 12, 62, 94
1, 89692, Note_off_c, 2, 57, 110
1, 89692, Note_off_c, 2, 62, 111
1, 89715, Note_on_c, 9, 69, 50
1, 89716, Note_off_c, 9, 69, 92
1, 89720, Note_off_c, 2, 65, 91
1, 89724, Note_off_c, 12, 57, 99
1, 89729, Pitch_bend_c, 12, 7808
1, 89734, Note_off_c, 1, 38, 102
1, 89739, Pitch_bend_c, 12, 6400
1, 89746, Pitch_bend_c, 12, 3584
1, 89753, Pitch_bend_c, 12, 1792
1, 89759, Note_on_c, 9, 42, 124
1, 89759, Note_on_c, 9, 69, 100
1, 89760, Note_off_c, 9, 42, 96
1, 89760, Note_on_c, 1, 50, 116
1, 89760, Note_on_c, 12, 62, 119
1, 89760, Note_on_c, 9, 64, 112
1, 89760, Note_on_c, 12, 67, 116
1, 89760, Note_off_c, 9, 69, 92
1, 89761, Note_off_c, 9, 64, 104
1, 89762, Pitch_bend_c, 12, 1280
1, 89773, Pitch_bend_c, 12, 5888
1, 89778, Note_off_c, 1, 50, 113
1, 89780, Pitch_bend_c, 12, 7424
1, 89787, Pitch_bend_c, 12, 7808
1, 89796, Pitch_bend_c, 12, 8192
1, 89808, Note_on_c, 1, 50, 119
1, 89808, Note_on_c, 9, 64, 108
1, 89809, Note_off_c, 9, 64, 112
1, 89811, Note_on_c, 9, 69, 50
1, 89812, Note_off_c, 9, 69, 92
1, 89826, Note_off_c, 1, 50, 97
1, 89850, Note_off_c, 0, 77, 111
1, 89850, Note_off_c, 0, 81, 110
1, 89855, Note_on_c, 9, 42, 76
1, 89855, Note_on_c, 9, 69, 96
1, 89855, Note_off_c, 0, 74, 110
1, 89856, Note_on_c, 9, 36, 124
1, 89856, Note_on_c, 1, 38, 120
1, 89856, Note_off_c, 9, 42, 100
1, 89856, Note_on_c, 2, 57, 122
1, 89856, Note_on_c, 2, 62, 124
1, 89856, Note_on_c, 9, 63, 120
1, 89856, Note_on_c, 2, 65, 124
1, 89856, Note_off_c, 9, 69, 80
1, 89856, Note_on_c, 0, 77, 119
1, 89856, Note_on_c, 0, 81, 122
1, 89856, Note_on_c, 0, 84, 122
1, 89856, Note_on_c, 6, 84, 122
1, 89857, Note_off_c, 9, 36, 76
1, 89857, Note_off_c, 9, 63, 92
1, 89858, Note_off_c, 6, 81, 110
1, 89886, Note_off_c, 2, 62, 111
1, 89888, Note_off_c, 2, 57, 110
1, 89890, Note_off_c, 2, 65, 110
1, 89907, Note_on_c, 9, 69, 50
1, 89908, Note_off_c, 9, 69, 80
1, 89921, Note_off_c, 1, 38, 102
1, 89951, Note_on_c, 9, 42, 124
1, 89951, Note_on_c, 9, 69, 88
1, 89952, Note_off_c, 9, 42, 100
1, 89952, Note_on_c, 1, 50, 116
1, 89952, Note_on_c, 2, 57, 111
1, 89952, Note_on_c, 12, 60, 113
1, 89952, Note_on_c, 2, 62, 119
1, 89952, Note_on_c, 9, 63, 116
1, 89952, Note_on_c, 2, 65, 117
1, 89952, Note_on_c, 12, 65, 111
1, 89952, Note_off_c, 9, 69, 76
1, 89953, Note_off_c, 9, 63, 84
1, 89959, Note_off_c, 12, 62, 108
1, 89965, Note_off_c, 12, 67, 108
1, 89970, Note_off_c, 1, 50, 111
1, 89972, Note_off_c, 12, 60, 99
1, 89976, Note_off_c, 12, 65, 97
1, 89977, Note_off_c, 2, 57, 102
1, 89979, Note_off_c, 2, 62, 113
1, 89983, Note_off_c, 2, 65, 108
1, 90000, Note_on_c, 1, 50, 120
1, 90000, Note_on_c, 4, 60, 94
1, 90003, Note_on_c, 9, 69, 50
1, 90004, Note_off_c, 9, 69, 76
1, 90015, Note_off_c, 1, 50, 111
1, 90028, Note_off_c, 4, 60, 96
1, 90047, Note_on_c, 9, 42, 80
1, 90047, Note_on_c, 9, 69, 104
1, 90048, Note_on_c, 9, 36, 124
1, 90048, Note_on_c, 1, 38, 122
1, 90048, Note_on_c, 9, 40, 124
1, 90048, Note_off_c, 9, 42, 96
1, 90048, Note_on_c, 2, 57, 119
1, 90048, Note_on_c, 12, 60, 113
1, 90048, Note_on_c, 2, 62, 124
1, 90048, Note_on_c, 9, 62, 124
1, 90048, Note_on_c, 2, 65, 124
1, 90048, Note_on_c, 12, 65, 114
1, 90048, Note_off_c, 9, 69, 68
1, 90049, Note_off_c, 9, 36, 96
1, 90049, Note_off_c, 9, 40, 96
1, 90049, Note_off_c, 9, 62, 108
1, 90078, Note_off_c, 2, 57, 108
1, 90078, Note_off_c, 2, 62, 113
1, 90086, Note_off_c, 2, 65, 111
1, 90096, Note_on_c, 4, 60, 93
1, 90099, Note_on_c, 9, 69, 50
1, 90100, Note_off_c, 9, 69, 68
1, 90121, Note_off_c, 1, 38, 102
1, 90136, Note_off_c, 12, 60, 108
1, 90140, Note_off_c, 4, 60, 89
1, 90143, Note_on_c, 9, 42, 124
1, 90143, Note_on_c, 9, 69, 96
1, 90144, Note_off_c, 9, 42, 96
1, 90144, Note_on_c, 1, 50, 116
1, 90144, Note_on_c, 12, 57, 106
1, 90144, Note_on_c, 12, 62, 108
1, 90144, Note_on_c, 9, 64, 116
1, 90144, Note_off_c, 9, 69, 68
1, 90145, Note_off_c, 9, 64, 96
1, 90161, Note_off_c, 1, 50, 113
1, 90167, Note_off_c, 12, 65, 102
1, 90192, Note_on_c, 1, 50, 116
1, 90192, Note_on_c, 4, 57, 62
1, 90192, Note_on_c, 9, 64, 108
1, 90193, Note_off_c, 9, 64, 104
1, 90195, Note_on_c, 9, 69, 50
1, 90196, Note_off_c, 9, 69, 68
1, 90213, Note_off_c, 1, 50, 99
1, 90228, Note_off_c, 4, 57, 99
1, 90235, Note_off_c, 0, 77, 110
1, 90237, Note_off_c, 0, 81, 110
1, 90238, Note_off_c, 0, 84, 104
1, 90239, Note_on_c, 9, 42, 92
1, 90239, Note_on_c, 9, 69, 104
1, 90240, Note_on_c, 9, 36, 124
1, 90240, Note_on_c, 1, 38, 122
1, 90240, Note_off_c, 9, 42, 100
1, 90240, Note_on_c, 2, 57, 120
1, 90240, Note_on_c, 12, 60, 110
1, 90240, Note_on_c, 4, 60, 93
1, 90240, Note_on_c, 2, 62, 123
1, 90240, Note_on_c, 9, 63, 124
1, 90240, Note_on_c, 2, 65, 122
1, 90240, Note_on_c, 12, 65, 114
1, 90240, Note_off_c, 9, 69, 84
1, 90240, Note_on_c, 0, 74, 117
1, 90240, Note_on_c, 0, 77, 122
1, 90240, Note_on_c, 0, 81, 120
1, 90240, Note_on_c, 6, 81, 120
1, 90241, Note_off_c, 6, 84, 110
1, 90241, Note_off_c, 9, 36, 108
1, 90241, Note_off_c, 9, 63, 96
1, 90244, Note_off_c, 12, 57, 106
1, 90252, Note_off_c, 12, 62, 106
1, 90265, Note_off_c, 2, 62, 113
1, 90269, Note_off_c, 2, 57, 108
1, 90269, Note_off_c, 2, 65, 111
1, 90288, Note_off_c, 4, 60, 102
1, 90291, Note_on_c, 9, 69, 50
1, 90292, Note_off_c, 9, 69, 84
1, 90298, Note_off_c, 1, 38, 91
1, 90335, Note_on_c, 9, 42, 124
1, 90335, Note_on_c, 9, 69, 100
1, 90336, Note_off_c, 9, 42, 96
1, 90336, Note_on_c, 1, 50, 114
1, 90336, Note_on_c, 2, 57, 113
1, 90336, Note_on_c, 2, 62, 122
1, 90336, Note_on_c, 9, 63, 124
1, 90336, Note_on_c, 2, 65, 122
1, 90336, Note_off_c, 9, 69, 92
1, 90337, Note_off_c, 9, 63, 100
1, 90355, Note_off_c, 1, 50, 108
1, 90360, Note_off_c, 2, 57, 102
1, 90384, Note_on_c, 1, 50, 113
1, 90387, Note_on_c, 9, 69, 50
1, 90388, Note_on_c, 2, 57, 97
1, 90388, Note_off_c, 9, 69, 92
1, 90402, Note_off_c, 2, 65, 104
1, 90406, Note_off_c, 1, 50, 104
1, 90411, Note_off_c, 2, 62, 108
1, 90416, Note_off_c, 12, 60, 106
1, 90431, Note_on_c, 9, 42, 96
1, 90431, Note_on_c, 9, 69, 100
1, 90432, Note_on_c, 9, 36, 124
1, 90432, Note_on_c, 1, 38, 117
1, 90432, Note_on_c, 9, 40, 124
1, 90432, Note_off_c, 9, 42, 100
1, 90432, Note_on_c, 12, 57, 110
1, 90432, Note_on_c, 4, 60, 93
1, 90432, Note_on_c, 2, 62, 114
1, 90432, Note_on_c, 12, 62, 108
1, 90432, Note_on_c, 9, 62, 124
1, 90432, Note_on_c, 2, 65, 123
1, 90432, Note_off_c, 9, 69, 92
1, 90433, Note_off_c, 9, 36, 112
1, 90433, Note_off_c, 9, 40, 108
1, 90433, Note_off_c, 9, 62, 104
1, 90439, Note_off_c, 12, 65, 106
1, 90461, Note_off_c, 2, 57, 108
1, 90467, Note_off_c, 2, 62, 113
1, 90470, Note_off_c, 4, 60, 104
1, 90470, Note_off_c, 2, 65, 111
1, 90477, Note_off_c, 12, 62, 104
1, 90480, Note_on_c, 4, 65, 100
1, 90483, Note_on_c, 9, 69, 50
1, 90484, Note_off_c, 9, 69, 92
1, 90494, Note_off_c, 12, 57, 104
1, 90499, Note_off_c, 1, 38, 91
1, 90506, Pitch_bend_c, 12, 8064
1, 90510, Note_off_c, 4, 65, 115
1, 90513, Pitch_bend_c, 12, 7808
1, 90520, Pitch_bend_c, 12, 4992
1, 90527, Note_on_c, 9, 42, 124
1, 90527, Note_on_c, 9, 69, 100
1, 90528, Note_off_c, 9, 42, 100
1, 90528, Note_on_c, 1, 50, 116
1, 90528, Note_on_c, 12, 62, 119
1, 90528, Note_on_c, 9, 64, 112
1, 90528, Note_on_c, 12, 67, 116
1, 90528, Note_off_c, 9, 69, 92
1, 90529, Note_off_c, 9, 64, 104
1, 90529, Pitch_bend_c, 12, 2816
1, 90536, Pitch_bend_c, 12, 3840
1, 90546, Pitch_bend_c, 12, 6784
1, 90553, Note_off_c, 1, 50, 108
1, 90553, Pitch_bend_c, 12, 7552
1, 90560, Pitch_bend_c, 12, 7936
1, 90567, Pitch_bend_c, 12, 8192
1, 90576, Note_on_c, 1, 50, 110
1, 90576, Note_on_c, 9, 64, 108
1, 90577, Note_off_c, 9, 64, 112
1, 90579, Note_on_c, 9, 69, 50
1, 90580, Note_off_c, 9, 69, 92
1, 90604, Note_off_c, 1, 50, 110
1, 90623, Note_on_c, 9, 42, 76
1, 90623, Note_off_c, 11, 50, 108
1, 90623, Note_off_c, 6, 62, 113
1, 90623, Note_on_c, 9, 69, 96
1, 90624, Note_on_c, 9, 36, 124
1, 90624, Note_on_c, 11, 41, 116
1, 90624, Note_on_c, 1, 41, 122
1, 90624, Note_off_c, 9, 42, 96
1, 90624, Note_on_c, 2, 57, 114
1, 90624, Note_on_c, 2, 60, 119
1, 90624, Note_on_c, 9, 63, 120
1, 90624, Note_on_c, 2, 65, 117
1, 90624, Note_on_c, 6, 65, 90
1, 90624, Note_off_c, 9, 69, 80
1, 90625, Note_off_c, 9, 36, 76
1, 90625, Note_off_c, 9, 63, 92
1, 90640, Note_off_c, 2, 60, 111
1, 90642, Note_off_c, 0, 74, 108
1, 90648, Note_off_c, 2, 57, 104
1, 90651, Note_off_c, 2, 65, 108
1, 90654, Note_off_c, 0, 81, 110
1, 90675, Note_on_c, 9, 69, 50
1, 90676, Note_off_c, 9, 69, 80
1, 90686, Note_off_c, 6, 81, 110
1, 90695, Note_off_c, 1, 41, 108
1, 90698, Note_off_c, 0, 77, 110
1, 90716, Note_off_c, 12, 62, 108
1, 90718, Note_off_c, 12, 67, 108
1, 90719, Note_on_c, 9, 42, 124
1, 90719, Note_on_c, 9, 69, 88
1, 90720, Note_off_c, 9, 42, 100
1, 90720, Note_on_c, 1, 53, 113
1, 90720, Note_on_c, 2, 57, 116
1, 90720, Note_on_c, 2, 60, 116
1, 90720, Note_on_c, 12, 60, 111
1, 90720, Note_on_c, 9, 63, 116
1, 90720, Note_on_c, 2, 65, 110
1, 90720, Note_on_c, 12, 65, 113
1, 90720, Note_off_c, 9, 69, 76
1, 90720, Note_on_c, 0, 74, 114
1, 90720, Note_on_c, 0, 79, 114
1, 90720, Note_on_c, 0, 82, 114
1, 90720, Note_on_c, 6, 82, 117
1, 90721, Note_off_c, 9, 63, 84
1, 90734, Note_off_c, 2, 60, 116
1, 90741, Note_off_c, 1, 53, 108
1, 90743, Note_off_c, 2, 65, 108
1, 90747, Note_off_c, 2, 57, 104
1, 90749, Note_off_c, 12, 60, 104
1, 90754, Note_off_c, 12, 65, 110
1, 90763, Note_off_c, 0, 79, 106
1, 90764, Note_off_c, 0, 74, 104
1, 90764, Note_off_c, 0, 82, 106
1, 90766, Note_off_c, 6, 82, 106
1, 90768, Note_on_c, 1, 53, 113
1, 90768, Note_on_c, 0, 72, 113
1, 90768, Note_on_c, 0, 77, 114
1, 90768, Note_on_c, 0, 81, 111
1, 90768, Note_on_c, 6, 81, 116
1, 90771, Note_on_c, 9, 69, 50
1, 90772, Note_off_c, 9, 69, 76
1, 90791, Note_off_c, 1, 53, 99
1, 90812, Note_off_c, 0, 72, 108
1, 90812, Note_off_c, 0, 81, 104
1, 90813, Note_off_c, 0, 77, 104
1, 90815, Note_on_c, 9, 42, 92
1, 90815, Note_on_c, 9, 69, 104
1, 90816, Note_on_c, 9, 36, 124
1, 90816, Note_on_c, 9, 40, 124
1, 90816, Note_on_c, 1, 41, 120
1, 90816, Note_off_c, 9, 42, 100
1, 90816, Note_on_c, 2, 57, 119
1, 90816, Note_on_c, 2, 60, 123
1, 90816, Note_on_c, 12, 60, 114
1, 90816, Note_on_c, 9, 62, 124
1, 90816, Note_on_c, 2, 65, 122
1, 90816, Note_on_c, 12, 65, 114
1, 90816, Note_off_c, 9, 69, 68
1, 90816, Note_on_c, 0, 74, 113
1, 90816, Note_on_c, 0, 79, 113
1, 90816, Note_on_c, 0, 82, 116
1, 90816, Note_on_c, 6, 82, 117
1, 90817, Note_off_c, 6, 81, 111
1, 90817, Note_off_c, 9, 36, 96
1, 90817, Note_off_c, 9, 40, 96
1, 90817, Note_off_c, 9, 62, 108
1, 90857, Note_off_c, 0, 82, 99
1, 90859, Note_off_c, 0, 79, 94
1, 90861, Note_off_c, 0, 74, 76
1, 90864, Note_on_c, 0, 72, 113
1, 90864, Note_on_c, 0, 77, 114
1, 90864, Note_on_c, 0, 81, 113
1, 90864, Note_on_c, 6, 81, 113
1, 90867, Note_on_c, 9, 69, 50
1, 90868, Note_off_c, 6, 82, 104
1, 90868, Note_off_c, 9, 69, 68
1, 90885, Note_off_c, 2, 57, 106
1, 90885, Note_off_c, 1, 41, 108
1, 90888, Note_off_c, 2, 60, 111
1, 90888, Note_off_c, 2, 65, 110
1, 90904, Note_off_c, 0, 72, 108
1, 90904, Note_off_c, 0, 81, 108
1, 90908, Note_off_c, 12, 60, 110
1, 90910, Note_off_c, 0, 77, 110
1, 90911, Note_on_c, 9, 42, 124
1, 90911, Note_on_c, 9, 69, 96
1, 90912, Note_off_c, 12, 65, 104
1, 90912, Note_off_c, 6, 81, 111
1, 90912, Note_off_c, 9, 42, 92
1, 90912, Note_on_c, 1, 53, 113
1, 90912, Note_on_c, 12, 57, 111
1, 90912, Note_on_c, 12, 62, 113
1, 90912, Note_on_c, 9, 64, 116
1, 90912, Note_off_c, 9, 69, 68
1, 90912, Note_on_c, 0, 69, 113
1, 90912, Note_on_c, 0, 72, 114
1, 90912, Note_on_c, 0, 77, 113
1, 90912, Note_on_c, 6, 77, 119
1, 90913, Note_off_c, 9, 64, 96
1, 90934, Note_off_c, 1, 53, 108
1, 90952, Note_off_c, 0, 69, 106
1, 90955, Note_off_c, 0, 72, 108
1, 90955, Note_off_c, 0, 77, 111
1, 90960, Note_on_c, 1, 53, 113
1, 90960, Note_on_c, 9, 64, 108
1, 90960, Note_on_c, 0, 67, 111
1, 90960, Note_on_c, 0, 69, 110
1, 90960, Note_on_c, 0, 74, 114
1, 90960, Note_on_c, 6, 74, 117
1, 90961, Note_off_c, 9, 64, 104
1, 90963, Note_on_c, 9, 69, 50
1, 90964, Note_off_c, 9, 69, 68
1, 90965, Note_off_c, 6, 77, 113
1, 90982, Note_off_c, 1, 53, 104
1, 91001, Note_off_c, 0, 67, 110
1, 91005, Note_off_c, 0, 74, 108
1, 91006, Note_off_c, 0, 69, 104
1, 91007, Note_on_c, 9, 42, 84
1, 91007, Note_on_c, 9, 69, 104
1, 91008, Note_on_c, 9, 36, 124
1, 91008, Note_on_c, 1, 41, 122
1, 91008, Note_off_c, 9, 42, 96
1, 91008, Note_on_c, 2, 57, 113
1, 91008, Note_on_c, 2, 60, 122
1, 91008, Note_on_c, 12, 60, 111
1, 91008, Note_on_c, 9, 63, 124
1, 91008, Note_on_c, 2, 65, 120
1, 91008, Note_on_c, 12, 65, 113
1, 91008, Note_off_c, 9, 69, 84
1, 91008, Note_on_c, 0, 69, 119
1, 91008, Note_on_c, 0, 72, 119
1, 91008, Note_on_c, 0, 77, 120
1, 91008, Note_on_c, 6, 77, 120
1, 91009, Note_off_c, 12, 57, 108
1, 91009, Note_off_c, 9, 36, 108
1, 91009, Note_off_c, 9, 63, 96
1, 91014, Note_off_c, 12, 62, 108
1, 91018, Note_off_c, 6, 74, 108
1, 91056, Note_on_c, 4, 65, 95
1, 91059, Note_on_c, 9, 69, 50
1, 91060, Note_off_c, 9, 69, 84
1, 91076, Note_off_c, 4, 65, 116
1, 91078, Note_off_c, 1, 41, 106
1, 91103, Note_on_c, 9, 42, 124
1, 91103, Note_on_c, 9, 69, 100
1, 91104, Note_off_c, 9, 42, 100
1, 91104, Note_on_c, 1, 53, 110
1, 91104, Note_on_c, 9, 63, 124
1, 91104, Note_off_c, 9, 69, 92
1, 91105, Note_off_c, 9, 63, 100
1, 91107, Note_off_c, 2, 57, 71
1, 91125, Note_off_c, 1, 53, 108
1, 91132, Note_off_c, 2, 65, 66
1, 91152, Note_on_c, 1, 53, 108
1, 91152, Note_on_c, 4, 67, 99
1, 91155, Note_on_c, 9, 69, 50
1, 91156, Note_on_c, 2, 57, 102
1, 91156, Note_off_c, 9, 69, 92
1, 91162, Note_off_c, 2, 60, 66
1, 91174, Pitch_bend_c, 4, 7808
1, 91180, Note_off_c, 1, 53, 108
1, 91181, Pitch_bend_c, 4, 6528
1, 91188, Pitch_bend_c, 4, 5504
1, 91194, Note_off_c, 12, 60, 108
1, 91196, Pitch_bend_c, 4, 4480
1, 91199, Note_on_c, 9, 42, 100
1, 91199, Note_on_c, 9, 69, 100
1, 91200, Note_on_c, 9, 36, 124
1, 91200, Note_on_c, 9, 40, 124
1, 91200, Note_on_c, 1, 41, 120
1, 91200, Note_off_c, 9, 42, 100
1, 91200, Note_on_c, 12, 57, 108
1, 91200, Note_on_c, 2, 60, 122
1, 91200, Note_on_c, 12, 62, 113
1, 91200, Note_on_c, 9, 62, 124
1, 91200, Note_on_c, 2, 65, 120
1, 91200, Note_off_c, 9, 69, 92
1, 91201, Note_off_c, 12, 65, 97
1, 91201, Note_off_c, 9, 36, 112
1, 91201, Note_off_c, 9, 40, 108
1, 91201, Note_off_c, 9, 62, 104
1, 91202, Note_off_c, 4, 67, 104
1, 91204, Pitch_bend_c, 4, 6656
1, 91212, Pitch_bend_c, 4, 7552
1, 91219, Pitch_bend_c, 4, 7936
1, 91224, Note_off_c, 2, 65, 108
1, 91226, Pitch_bend_c, 4, 8192
1, 91239, Note_off_c, 2, 60, 108
1, 91248, Note_on_c, 4, 62, 91
1, 91249, Note_off_c, 2, 57, 102
1, 91251, Note_on_c, 9, 69, 50
1, 91252, Note_off_c, 9, 69, 92
1, 91266, Note_off_c, 1, 41, 106
1, 91269, Note_off_c, 4, 62, 102
1, 91294, Note_off_c, 12, 62, 108
1, 91295, Note_on_c, 9, 42, 124
1, 91295, Note_on_c, 9, 69, 100
1, 91296, Note_off_c, 9, 42, 100
1, 91296, Note_on_c, 12, 53, 108
1, 91296, Note_on_c, 1, 53, 113
1, 91296, Note_on_c, 12, 60, 114
1, 91296, Note_on_c, 9, 64, 112
1, 91296, Note_on_c, 4, 65, 90
1, 91296, Note_off_c, 9, 69, 92
1, 91297, Note_off_c, 9, 64, 104
1, 91316, Note_off_c, 1, 53, 111
1, 91319, Note_off_c, 4, 65, 107
1, 91344, Note_on_c, 1, 53, 114
1, 91344, Note_on_c, 9, 64, 108
1, 91345, Note_off_c, 9, 64, 112
1, 91347, Note_on_c, 9, 69, 50
1, 91348, Note_off_c, 9, 69, 92
1, 91371, Note_off_c, 1, 53, 108
1, 91391, Note_on_c, 9, 42, 92
1, 91391, Note_on_c, 9, 69, 96
1, 91392, Note_on_c, 9, 36, 124
1, 91392, Note_on_c, 1, 41, 120
1, 91392, Note_off_c, 9, 42, 100
1, 91392, Note_on_c, 2, 57, 108
1, 91392, Note_on_c, 2, 60, 119
1, 91392, Note_on_c, 9, 63, 120
1, 91392, Note_on_c, 2, 65, 117
1, 91392, Note_off_c, 9, 69, 80
1, 91393, Note_off_c, 9, 36, 76
1, 91393, Note_off_c, 9, 63, 92
1, 91419, Note_off_c, 2, 57, 104
1, 91421, Note_off_c, 2, 60, 111
1, 91424, Note_off_c, 2, 65, 110
1, 91435, Note_off_c, 6, 77, 111
1, 91443, Note_on_c, 9, 69, 50
1, 91444, Note_off_c, 9, 69, 80
1, 91467, Note_off_c, 0, 77, 111
1, 91477, Note_off_c, 1, 41, 99
1, 91483, Note_off_c, 0, 69, 110
1, 91487, Note_on_c, 9, 42, 124
1, 91487, Note_on_c, 9, 69, 88
1, 91488, Note_off_c, 9, 42, 100
1, 91488, Note_on_c, 1, 53, 114
1, 91488, Note_on_c, 2, 57, 113
1, 91488, Note_on_c, 2, 60, 120
1, 91488, Note_on_c, 9, 63, 116
1, 91488, Note_on_c, 2, 65, 117
1, 91488, Note_off_c, 9, 69, 76
1, 91488, Note_on_c, 0, 70, 110
1, 91488, Note_on_c, 0, 74, 113
1, 91488, Note_on_c, 0, 79, 114
1, 91488, Note_on_c, 6, 79, 116
1, 91489, Note_off_c, 9, 63, 84
1, 91490, Note_off_c, 0, 72, 110
1, 91511, Note_off_c, 2, 60, 108
1, 91514, Note_off_c, 2, 57, 106
1, 91514, Note_off_c, 1, 53, 108
1, 91517, Note_off_c, 2, 65, 102
1, 91530, Note_off_c, 0, 79, 108
1, 91532, Note_off_c, 0, 70, 104
1, 91535, Note_off_c, 0, 74, 108
1, 91536, Note_on_c, 1, 53, 108
1, 91536, Note_on_c, 0, 69, 110
1, 91536, Note_on_c, 0, 72, 108
1, 91536, Note_on_c, 0, 77, 114
1, 91536, Note_on_c, 6, 77, 116
1, 91536, Note_off_c, 6, 79, 108
1, 91539, Note_on_c, 9, 69, 50
1, 91540, Note_off_c, 9, 69, 76
1, 91565, Note_off_c, 1, 53, 108
1, 91576, Note_off_c, 0, 77, 110
1, 91577, Note_off_c, 0, 72, 108
1, 91583, Note_off_c, 11, 41, 104
1, 91583, Note_on_c, 9, 42, 100
1, 91583, Note_off_c, 0, 69, 102
1, 91583, Note_on_c, 9, 69, 104
1, 91584, Note_on_c, 9, 36, 124
1, 91584, Note_on_c, 9, 40, 124
1, 91584, Note_off_c, 9, 42, 100
1, 91584, Note_on_c, 11, 43, 119
1, 91584, Note_on_c, 1, 43, 119
1, 91584, Note_on_c, 2, 57, 116
1, 91584, Note_on_c, 2, 60, 122
1, 91584, Note_on_c, 9, 62, 124
1, 91584, Note_on_c, 2, 65, 120
1, 91584, Note_off_c, 9, 69, 68
1, 91584, Note_on_c, 0, 70, 111
1, 91584, Note_on_c, 0, 74, 113
1, 91584, Note_on_c, 0, 79, 111
1, 91584, Note_on_c, 6, 79, 116
1, 91585, Note_off_c, 9, 36, 96
1, 91585, Note_off_c, 9, 40, 96
1, 91585, Note_off_c, 9, 62, 108
1, 91588, Note_off_c, 6, 77, 111
1, 91626, Note_off_c, 0, 79, 102
1, 91630, Note_off_c, 0, 70, 99
1, 91631, Note_off_c, 0, 74, 97
1, 91632, Note_on_c, 0, 69, 108
1, 91632, Note_on_c, 0, 72, 114
1, 91632, Note_on_c, 0, 77, 116
1, 91632, Note_on_c, 6, 77, 111
1, 91635, Note_on_c, 9, 69, 50
1, 91636, Note_off_c, 9, 69, 68
1, 91639, Note_off_c, 6, 79, 108
1, 91654, Note_off_c, 1, 43, 104
1, 91657, Note_off_c, 2, 65, 110
1, 91660, Note_off_c, 2, 60, 97
1, 91666, Note_off_c, 2, 57, 104
1, 91674, Note_off_c, 0, 69, 108
1, 91678, Note_off_c, 0, 72, 111
1, 91679, Note_on_c, 9, 69, 96
1, 91679, Note_off_c, 0, 77, 113
1, 91680, Note_on_c, 9, 40, 97
1, 91680, Note_on_c, 1, 55, 113
1, 91680, Note_on_c, 9, 64, 116
1, 91680, Note_on_c, 0, 65, 114
1, 91680, Note_off_c, 9, 69, 68
1, 91680, Note_on_c, 0, 69, 116
1, 91680, Note_on_c, 0, 74, 114
1, 91680, Note_on_c, 6, 74, 116
1, 91681, Note_off_c, 9, 40, 96
1, 91681, Note_off_c, 9, 64, 96
1, 91684, Note_off_c, 6, 77, 108
1, 91700, Note_off_c, 1, 55, 111
1, 91721, Note_off_c, 0, 74, 108
1, 91725, Note_off_c, 0, 65, 110
1, 91725, Note_off_c, 0, 69, 108
1, 91728, Note_on_c, 9, 40, 124
1, 91728, Note_on_c, 1, 55, 108
1, 91728, Note_on_c, 0, 62, 117
1, 91728, Note_on_c, 9, 64, 108
1, 91728, Note_on_c, 0, 67, 113
1, 91728, Note_on_c, 0, 72, 110
1, 91728, Note_on_c, 6, 72, 116
1, 91729, Note_off_c, 9, 40, 96
1, 91729, Note_off_c, 9, 64, 104
1, 91731, Note_on_c, 9, 69, 50
1, 91731, Note_off_c, 6, 74, 106
1, 91732, Note_off_c, 9, 69, 68
1, 91748, Pitch_bend_c, 4, 7936
1, 91755, Note_off_c, 1, 55, 110
1, 91755, Pitch_bend_c, 4, 7552
1, 91763, Pitch_bend_c, 4, 6784
1, 91770, Pitch_bend_c, 4, 5760
1, 91771, Note_off_c, 0, 72, 110
1, 91774, Note_off_c, 0, 62, 110
1, 91774, Note_off_c, 0, 67, 110
1, 91775, Note_off_c, 11, 43, 102
1, 91775, Note_on_c, 9, 69, 104
1, 91776, Note_on_c, 9, 36, 124
1, 91776, Note_on_c, 11, 45, 116
1, 91776, Note_on_c, 1, 45, 122
1, 91776, Note_on_c, 2, 57, 117
1, 91776, Note_on_c, 2, 60, 122
1, 91776, Note_on_c, 9, 63, 124
1, 91776, Note_on_c, 0, 65, 120
1, 91776, Note_on_c, 2, 65, 122
1, 91776, Note_off_c, 9, 69, 84
1, 91776, Note_on_c, 0, 69, 120
1, 91776, Note_on_c, 4, 69, 100
1, 91776, Note_on_c, 0, 74, 116
1, 91776, Note_on_c, 6, 74, 117
1, 91777, Note_off_c, 9, 36, 108
1, 91777, Note_off_c, 9, 63, 96
1, 91778, Note_off_c, 6, 72, 110
1, 91778, Pitch_bend_c, 4, 4480
1, 91786, Pitch_bend_c, 4, 3968
1, 91794, Pitch_bend_c, 4, 3584
1, 91801, Pitch_bend_c, 4, 3584
1, 91809, Pitch_bend_c, 4, 4352
1, 91817, Pitch_bend_c, 4, 5248
1, 91825, Pitch_bend_c, 4, 6528
1, 91827, Note_on_c, 9, 69, 50
1, 91828, Note_off_c, 9, 69, 84
1, 91832, Pitch_bend_c, 4, 7168
1, 91839, Pitch_bend_c, 4, 7808
1, 91847, Note_off_c, 1, 45, 108
1, 91849, Pitch_bend_c, 4, 8192
1, 91860, Note_off_c, 4, 69, 107
1, 91871, Note_on_c, 9, 69, 100
1, 91872, Note_on_c, 9, 40, 97
1, 91872, Note_on_c, 1, 57, 116
1, 91872, Note_on_c, 9, 63, 124
1, 91872, Note_off_c, 9, 69, 92
1, 91872, Note_on_c, 4, 70, 100
1, 91873, Note_off_c, 9, 40, 96
1, 91873, Note_off_c, 9, 63, 100
1, 91876, Note_off_c, 2, 57, 84
1, 91894, Note_off_c, 4, 70, 93
1, 91899, Note_off_c, 1, 57, 106
1, 91902, Note_off_c, 2, 65, 71
1, 91920, Note_on_c, 9, 40, 124
1, 91920, Note_on_c, 1, 57, 106
1, 91920, Note_on_c, 4, 72, 98
1, 91921, Note_off_c, 9, 40, 96
1, 91923, Note_on_c, 9, 69, 50
1, 91924, Note_on_c, 2, 57, 97
1, 91924, Note_off_c, 9, 69, 92
1, 91938, Note_off_c, 2, 60, 13
1, 91944, Note_off_c, 4, 72, 104
1, 91946, Note_off_c, 1, 57, 106
1, 91951, Note_off_c, 2, 57, 97
1, 91967, Note_off_c, 11, 45, 108
1, 91967, Note_on_c, 9, 69, 100
1, 91968, Note_on_c, 9, 36, 124
1, 91968, Note_on_c, 11, 41, 122
1, 91968, Note_on_c, 1, 41, 120
1, 91968, Note_on_c, 2, 57, 113
1, 91968, Note_on_c, 2, 60, 117
1, 91968, Note_on_c, 9, 62, 124
1, 91968, Note_on_c, 2, 65, 120
1, 91968, Note_off_c, 9, 69, 92
1, 91968, Note_on_c, 4, 69, 97
1, 91969, Note_off_c, 9, 36, 112
1, 91969, Note_off_c, 9, 62, 104
1, 91984, Note_off_c, 12, 60, 111
1, 91987, Note_off_c, 2, 65, 108
1, 91988, Note_off_c, 2, 60, 110
1, 91993, Note_off_c, 4, 69, 109
1, 91994, Note_off_c, 12, 57, 108
1, 91997, Note_off_c, 12, 53, 106
1, 92001, Note_off_c, 2, 57, 104
1, 92016, Note_on_c, 4, 65, 98
1, 92019, Note_on_c, 9, 69, 50
1, 92020, Note_off_c, 9, 69, 92
1, 92041, Note_off_c, 4, 65, 109
1, 92042, Pitch_bend_c, 12, 8064
1, 92049, Pitch_bend_c, 12, 7680
1, 92051, Note_off_c, 1, 41, 111
1, 92056, Pitch_bend_c, 12, 4864
1, 92063, Note_on_c, 9, 69, 100
1, 92064, Note_on_c, 12, 62, 119
1, 92064, Note_off_c, 9, 69, 92
1, 92064, Pitch_bend_c, 12, 2048
1, 92064, Note_on_c, 9, 40, 97
1, 92064, Note_on_c, 1, 53, 111
1, 92064, Note_on_c, 9, 64, 112
1, 92064, Note_on_c, 12, 67, 116
1, 92065, Note_off_c, 9, 40, 96
1, 92065, Note_off_c, 9, 64, 104
1, 92072, Pitch_bend_c, 12, 1024
1, 92079, Pitch_bend_c, 12, 1408
1, 92085, Note_off_c, 1, 53, 113
1, 92086, Pitch_bend_c, 12, 6016
1, 92093, Pitch_bend_c, 12, 7424
1, 92101, Pitch_bend_c, 12, 7936
1, 92110, Pitch_bend_c, 12, 8192
1, 92112, Note_on_c, 9, 40, 124
1, 92112, Note_on_c, 1, 53, 111
1, 92112, Note_on_c, 9, 64, 108
1, 92113, Note_off_c, 9, 40, 96
1, 92113, Note_off_c, 9, 64, 112
1, 92115, Note_on_c, 9, 69, 50
1, 92116, Note_off_c, 9, 69, 92
1, 92139, Note_off_c, 1, 53, 110
1, 92154, Note_off_c, 6, 65, 110
1, 92159, Note_off_c, 11, 41, 111
1, 92159, Note_on_c, 9, 42, 92
1, 92159, Note_on_c, 9, 69, 96
1, 92160, Note_on_c, 9, 36, 124
1, 92160, Note_on_c, 1, 38, 114
1, 92160, Note_off_c, 9, 42, 100
1, 92160, Note_on_c, 9, 49, 124
1, 92160, Note_on_c, 11, 50, 119
1, 92160, Note_on_c, 2, 57, 122
1, 92160, Note_on_c, 2, 62, 124
1, 92160, Note_on_c, 6, 62, 90
1, 92160, Note_on_c, 9, 63, 120
1, 92160, Note_on_c, 2, 65, 123
1, 92160, Note_off_c, 9, 69, 80
1, 92161, Note_off_c, 9, 36, 76
1, 92161, Note_off_c, 9, 49, 100
1, 92161, Note_off_c, 9, 63, 92
1, 92185, Note_off_c, 6, 74, 84
1, 92195, Note_off_c, 2, 57, 84
1, 92195, Note_off_c, 2, 62, 111
1, 92211, Note_off_c, 2, 65, 108
1, 92211, Note_on_c, 9, 69, 50
1, 92212, Note_off_c, 9, 69, 80
1, 92233, Note_off_c, 1, 38, 102
1, 92243, Note_off_c, 0, 74, 108
1, 92246, Note_off_c, 0, 65, 111
1, 92248, Note_off_c, 12, 62, 110
1, 92250, Note_off_c, 12, 67, 108
1, 92255, Note_on_c, 9, 42, 124
1, 92255, Note_on_c, 9, 69, 88
1, 92256, Note_off_c, 9, 42, 96
1, 92256, Note_on_c, 1, 50, 116
1, 92256, Note_on_c, 2, 57, 113
1, 92256, Note_on_c, 12, 60, 113
1, 92256, Note_on_c, 2, 62, 117
1, 92256, Note_on_c, 9, 63, 116
1, 92256, Note_on_c, 12, 65, 91
1, 92256, Note_off_c, 9, 69, 76
1, 92257, Note_off_c, 9, 63, 84
1, 92258, Note_off_c, 0, 69, 111
1, 92271, Note_off_c, 2, 62, 119
1, 92274, Note_off_c, 12, 65, 104
1, 92277, Note_off_c, 12, 60, 104
1, 92282, Note_off_c, 1, 50, 108
1, 92283, Note_off_c, 2, 57, 104
1, 92304, Note_on_c, 1, 50, 103
1, 92307, Note_on_c, 9, 69, 50
1, 92308, Note_off_c, 9, 69, 76
1, 92332, Note_off_c, 1, 50, 111
1, 92351, Note_on_c, 9, 42, 100
1, 92351, Note_on_c, 9, 69, 104
1, 92352, Note_on_c, 9, 36, 124
1, 92352, Note_on_c, 1, 38, 117
1, 92352, Note_on_c, 9, 40, 124
1, 92352, Note_off_c, 9, 42, 100
1, 92352, Note_on_c, 2, 57, 122
1, 92352, Note_on_c, 12, 60, 114
1, 92352, Note_on_c, 2, 62, 124
1, 92352, Note_on_c, 9, 62, 124
1, 92352, Note_on_c, 0, 65, 119
1, 92352, Note_on_c, 2, 65, 124
1, 92352, Note_on_c, 12, 65, 119
1, 92352, Note_off_c, 9, 69, 68
1, 92352, Note_on_c, 0, 69, 124
1, 92352, Note_on_c, 0, 74, 120
1, 92352, Note_on_c, 6, 74, 117
1, 92353, Note_off_c, 9, 36, 96
1, 92353, Note_off_c, 9, 40, 96
1, 92353, Note_off_c, 9, 62, 108
1, 92382, Note_off_c, 2, 57, 108
1, 92384, Note_off_c, 2, 62, 111
1, 92397, Note_off_c, 2, 65, 108
1, 92403, Note_on_c, 9, 69, 50
1, 92404, Note_off_c, 9, 69, 68
1, 92423, Note_off_c, 1, 38, 99
1, 92427, Note_off_c, 12, 60, 110
1, 92447, Note_on_c, 9, 42, 124
1, 92447, Note_on_c, 9, 69, 96
1, 92448, Note_off_c, 12, 65, 108
1, 92448, Note_off_c, 9, 42, 100
1, 92448, Note_on_c, 1, 50, 114
1, 92448, Note_on_c, 12, 57, 106
1, 92448, Note_on_c, 12, 62, 111
1, 92448, Note_on_c, 9, 64, 116
1, 92448, Note_off_c, 9, 69, 68
1, 92449, Note_off_c, 9, 64, 96
1, 92468, Note_off_c, 1, 50, 110
1, 92496, Note_on_c, 1, 50, 117
1, 92496, Note_on_c, 9, 64, 108
1, 92497, Note_off_c, 9, 64, 104
1, 92499, Note_on_c, 9, 69, 50
1, 92500, Note_off_c, 9, 69, 68
1, 92523, Note_off_c, 1, 50, 110
1, 92533, Note_off_c, 0, 69, 106
1, 92540, Note_off_c, 0, 74, 108
1, 92543, Note_on_c, 9, 42, 84
1, 92543, Note_off_c, 0, 65, 110
1, 92543, Note_on_c, 9, 69, 104
1, 92544, Note_on_c, 9, 36, 124
1, 92544, Note_on_c, 1, 38, 120
1, 92544, Note_off_c, 12, 57, 110
1, 92544, Note_off_c, 9, 42, 96
1, 92544, Note_on_c, 2, 57, 122
1, 92544, Note_on_c, 12, 60, 113
1, 92544, Note_on_c, 2, 62, 124
1, 92544, Note_on_c, 9, 63, 124
1, 92544, Note_on_c, 2, 65, 124
1, 92544, Note_on_c, 12, 65, 113
1, 92544, Note_off_c, 9, 69, 84
1, 92544, Note_on_c, 0, 69, 120
1, 92544, Note_on_c, 0, 74, 120
1, 92544, Note_on_c, 0, 77, 120
1, 92544, Note_on_c, 6, 77, 122
1, 92545, Note_off_c, 9, 36, 108
1, 92545, Note_off_c, 9, 63, 96
1, 92549, Note_off_c, 6, 74, 108
1, 92563, Note_off_c, 12, 62, 108
1, 92575, Note_off_c, 2, 57, 108
1, 92577, Note_off_c, 2, 62, 111
1, 92595, Note_on_c, 9, 69, 50
1, 92596, Note_off_c, 9, 69, 84
1, 92611, Note_off_c, 1, 38, 102
1, 92621, Note_off_c, 2, 65, 13
1, 92639, Note_on_c, 9, 42, 124
1, 92639, Note_on_c, 9, 69, 100
1, 92640, Note_off_c, 9, 42, 100
1, 92640, Note_on_c, 1, 50, 114
1, 92640, Note_on_c, 9, 63, 124
1, 92640, Note_off_c, 9, 69, 92
1, 92641, Note_off_c, 9, 63, 100
1, 92661, Note_off_c, 1, 50, 106
1, 92688, Note_on_c, 1, 50, 117
1, 92691, Note_on_c, 9, 69, 50
1, 92692, Note_on_c, 2, 57, 99
1, 92692, Note_off_c, 9, 69, 92
1, 92707, Note_off_c, 1, 50, 102
1, 92718, Note_off_c, 2, 57, 102
1, 92733, Note_off_c, 0, 69, 106
1, 92733, Note_off_c, 0, 77, 111
1, 92734, Note_off_c, 0, 74, 102
1, 92735, Note_on_c, 9, 42, 104
1, 92735, Note_off_c, 12, 65, 104
1, 92735, Note_on_c, 9, 69, 100
1, 92736, Note_on_c, 9, 36, 124
1, 92736, Note_on_c, 1, 38, 119
1, 92736, Note_on_c, 9, 40, 124
1, 92736, Note_off_c, 9, 42, 100
1, 92736, Note_on_c, 2, 57, 117
1, 92736, Note_on_c, 12, 57, 113
1, 92736, Note_on_c, 2, 62, 124
1, 92736, Note_on_c, 12, 62, 113
1, 92736, Note_on_c, 9, 62, 124
1, 92736, Note_on_c, 2, 65, 122
1, 92736, Note_off_c, 9, 69, 92
1, 92736, Note_on_c, 0, 74, 116
1, 92736, Note_on_c, 0, 77, 122
1, 92736, Note_on_c, 0, 81, 120
1, 92736, Note_on_c, 6, 81, 119
1, 92737, Note_off_c, 9, 36, 112
1, 92737, Note_off_c, 9, 40, 108
1, 92737, Note_off_c, 9, 62, 104
1, 92741, Note_off_c, 12, 60, 104
1, 92743, Note_off_c, 6, 77, 106
1, 92764, Note_off_c, 2, 57, 110
1, 92764, Note_off_c, 2, 62, 111
1, 92787, Note_on_c, 9, 69, 50
1, 92788, Note_off_c, 9, 69, 92
1, 92792, Note_off_c, 2, 65, 91
1, 92800, Note_off_c, 12, 62, 108
1, 92806, Note_off_c, 1, 38, 102
1, 92809, Note_off_c, 12, 57, 108
1, 92813, Pitch_bend_c, 12, 5760
1, 92820, Pitch_bend_c, 12, 2944
1, 92828, Pitch_bend_c, 12, 1280
1, 92831, Note_on_c, 9, 42, 124
1, 92831, Note_on_c, 9, 69, 100
1, 92832, Note_off_c, 9, 42, 100
1, 92832, Note_on_c, 1, 50, 116
1, 92832, Note_on_c, 12, 62, 117
1, 92832, Note_on_c, 9, 64, 112
1, 92832, Note_on_c, 12, 67, 116
1, 92832, Note_off_c, 9, 69, 92
1, 92833, Note_off_c, 9, 64, 104
1, 92836, Pitch_bend_c, 12, 2432
1, 92843, Pitch_bend_c, 12, 6400
1, 92851, Pitch_bend_c, 12, 7424
1, 92852, Note_off_c, 1, 50, 108
1, 92859, Pitch_bend_c, 12, 7808
1, 92866, Pitch_bend_c, 12, 8192
1, 92880, Note_on_c, 1, 50, 113
1, 92880, Note_on_c, 9, 64, 108
1, 92881, Note_off_c, 9, 64, 112
1, 92883, Note_on_c, 9, 69, 50
1, 92884, Note_off_c, 9, 69, 92
1, 92906, Note_off_c, 1, 50, 108
1, 92922, Note_off_c, 0, 77, 111
1, 92922, Note_off_c, 0, 81, 110
1, 92927, Note_on_c, 9, 69, 96
1, 92927, Note_off_c, 0, 74, 110
1, 92928, Note_on_c, 9, 36, 124
1, 92928, Note_on_c, 1, 38, 117
1, 92928, Note_on_c, 2, 57, 122
1, 92928, Note_on_c, 2, 62, 124
1, 92928, Note_on_c, 9, 63, 120
1, 92928, Note_on_c, 2, 65, 124
1, 92928, Note_off_c, 9, 69, 80
1, 92928, Note_on_c, 0, 77, 119
1, 92928, Note_on_c, 0, 81, 122
1, 92928, Note_on_c, 0, 84, 122
1, 92928, Note_on_c, 6, 84, 120
1, 92929, Note_off_c, 9, 36, 76
1, 92929, Note_off_c, 9, 63, 92
1, 92935, Note_off_c, 6, 81, 111
1, 92958, Note_off_c, 2, 62, 111
1, 92960, Note_off_c, 2, 57, 110
1, 92962, Note_off_c, 2, 65, 110
1, 92979, Note_on_c, 9, 69, 50
1, 92980, Note_off_c, 9, 69, 80
1, 92996, Note_off_c, 1, 38, 97
1, 93023, Note_on_c, 9, 42, 124
1, 93023, Note_off_c, 12, 62, 110
1, 93023, Note_off_c, 12, 67, 108
1, 93023, Note_on_c, 9, 69, 88
1, 93024, Note_off_c, 9, 42, 100
1, 93024, Note_on_c, 1, 50, 116
1, 93024, Note_on_c, 2, 57, 111
1, 93024, Note_on_c, 12, 60, 111
1, 93024, Note_on_c, 2, 62, 119
1, 93024, Note_on_c, 9, 63, 116
1, 93024, Note_on_c, 2, 65, 117
1, 93024, Note_on_c, 12, 65, 113
1, 93024, Note_off_c, 9, 69, 76
1, 93025, Note_off_c, 9, 63, 84
1, 93047, Note_off_c, 12, 60, 104
1, 93047, Note_off_c, 1, 50, 106
1, 93049, Note_off_c, 2, 57, 102
1, 93051, Note_off_c, 2, 62, 113
1, 93055, Note_off_c, 2, 65, 108
1, 93057, Note_off_c, 12, 65, 108
1, 93072, Note_on_c, 1, 50, 111
1, 93075, Note_on_c, 9, 69, 50
1, 93076, Note_off_c, 9, 69, 76
1, 93097, Note_off_c, 1, 50, 94
1, 93119, Note_on_c, 9, 42, 108
1, 93119, Note_on_c, 9, 69, 104
1, 93120, Note_on_c, 9, 36, 124
1, 93120, Note_on_c, 1, 38, 122
1, 93120, Note_on_c, 9, 40, 124
1, 93120, Note_off_c, 9, 42, 100
1, 93120, Note_on_c, 2, 57, 119
1, 93120, Note_on_c, 12, 60, 114
1, 93120, Note_on_c, 2, 62, 124
1, 93120, Note_on_c, 9, 62, 124
1, 93120, Note_on_c, 2, 65, 124
1, 93120, Note_on_c, 12, 65, 114
1, 93120, Note_off_c, 9, 69, 68
1, 93121, Note_off_c, 9, 36, 96
1, 93121, Note_off_c, 9, 40, 96
1, 93121, Note_off_c, 9, 62, 108
1, 93150, Note_off_c, 2, 57, 108
1, 93150, Note_off_c, 2, 62, 113
1, 93158, Note_off_c, 2, 65, 111
1, 93171, Note_on_c, 9, 69, 50
1, 93172, Note_off_c, 9, 69, 68
1, 93188, Note_off_c, 1, 38, 104
1, 93200, Note_off_c, 12, 60, 106
1, 93215, Note_on_c, 9, 42, 124
1, 93215, Note_on_c, 9, 69, 96
1, 93216, Note_off_c, 9, 42, 100
1, 93216, Note_on_c, 1, 50, 113
1, 93216, Note_on_c, 12, 57, 110
1, 93216, Note_on_c, 12, 62, 110
1, 93216, Note_on_c, 9, 64, 116
1, 93216, Note_off_c, 9, 69, 68
1, 93217, Note_off_c, 9, 64, 96
1, 93219, Note_off_c, 12, 65, 108
1, 93236, Note_off_c, 1, 50, 110
1, 93264, Note_on_c, 1, 50, 114
1, 93264, Note_on_c, 9, 64, 108
1, 93265, Note_off_c, 9, 64, 104
1, 93267, Note_on_c, 9, 69, 50
1, 93268, Note_off_c, 9, 69, 68
1, 93289, Note_off_c, 1, 50, 104
1, 93307, Note_off_c, 0, 77, 110
1, 93309, Note_off_c, 0, 81, 110
1, 93310, Note_off_c, 0, 84, 104
1, 93311, Note_on_c, 9, 42, 104
1, 93311, Note_on_c, 9, 69, 104
1, 93312, Note_on_c, 9, 36, 124
1, 93312, Note_on_c, 1, 38, 120
1, 93312, Note_off_c, 9, 42, 100
1, 93312, Note_on_c, 2, 57, 120
1, 93312, Note_on_c, 12, 60, 110
1, 93312, Note_on_c, 2, 62, 123
1, 93312, Note_on_c, 9, 63, 124
1, 93312, Note_on_c, 2, 65, 122
1, 93312, Note_on_c, 12, 65, 113
1, 93312, Note_off_c, 9, 69, 84
1, 93312, Note_on_c, 0, 74, 117
1, 93312, Note_on_c, 0, 77, 122
1, 93312, Note_on_c, 0, 81, 120
1, 93312, Note_on_c, 6, 81, 120
1, 93313, Note_off_c, 9, 36, 108
1, 93313, Note_off_c, 9, 63, 96
1, 93320, Note_off_c, 6, 84, 106
1, 93320, Note_off_c, 12, 57, 108
1, 93325, Note_off_c, 12, 62, 106
1, 93337, Note_off_c, 2, 62, 113
1, 93341, Note_off_c, 2, 57, 108
1, 93341, Note_off_c, 2, 65, 111
1, 93363, Note_on_c, 9, 69, 50
1, 93364, Note_off_c, 9, 69, 84
1, 93381, Note_off_c, 1, 38, 104
1, 93407, Note_on_c, 9, 42, 124
1, 93407, Note_on_c, 9, 69, 100
1, 93408, Note_off_c, 9, 42, 104
1, 93408, Note_on_c, 1, 50, 117
1, 93408, Note_on_c, 2, 57, 113
1, 93408, Note_on_c, 2, 62, 122
1, 93408, Note_on_c, 9, 63, 124
1, 93408, Note_on_c, 2, 65, 122
1, 93408, Note_off_c, 9, 69, 92
1, 93409, Note_off_c, 9, 63, 100
1, 93432, Note_off_c, 2, 57, 102
1, 93436, Note_off_c, 1, 50, 108
1, 93456, Note_on_c, 1, 50, 99
1, 93459, Note_on_c, 9, 69, 50
1, 93460, Note_on_c, 2, 57, 97
1, 93460, Note_off_c, 9, 69, 92
1, 93474, Note_off_c, 2, 65, 104
1, 93481, Note_off_c, 1, 50, 108
1, 93483, Note_off_c, 2, 62, 108
1, 93492, Note_off_c, 12, 65, 104
1, 93502, Note_off_c, 12, 60, 104
1, 93503, Note_on_c, 9, 42, 96
1, 93503, Note_on_c, 9, 69, 100
1, 93504, Note_on_c, 9, 36, 124
1, 93504, Note_on_c, 1, 38, 122
1, 93504, Note_on_c, 9, 40, 124
1, 93504, Note_off_c, 9, 42, 100
1, 93504, Note_on_c, 12, 57, 111
1, 93504, Note_on_c, 2, 62, 114
1, 93504, Note_on_c, 12, 62, 113
1, 93504, Note_on_c, 9, 62, 124
1, 93504, Note_on_c, 2, 65, 123
1, 93504, Note_off_c, 9, 69, 92
1, 93505, Note_off_c, 9, 36, 112
1, 93505, Note_off_c, 9, 40, 108
1, 93505, Note_off_c, 9, 62, 104
1, 93533, Note_off_c, 2, 57, 108
1, 93539, Note_off_c, 2, 62, 113
1, 93542, Note_off_c, 2, 65, 111
1, 93555, Note_on_c, 9, 69, 50
1, 93556, Note_off_c, 9, 69, 92
1, 93572, Note_off_c, 12, 57, 106
1, 93579, Note_off_c, 12, 62, 104
1, 93579, Note_off_c, 1, 38, 102
1, 93583, Pitch_bend_c, 12, 7168
1, 93592, Pitch_bend_c, 12, 4864
1, 93599, Pitch_bend_c, 12, 2304
1, 93599, Note_on_c, 9, 42, 124
1, 93599, Note_on_c, 9, 69, 100
1, 93600, Note_off_c, 9, 42, 104
1, 93600, Note_on_c, 1, 50, 114
1, 93600, Note_on_c, 12, 62, 117
1, 93600, Note_on_c, 9, 64, 112
1, 93600, Note_on_c, 12, 67, 114
1, 93600, Note_off_c, 9, 69, 92
1, 93601, Note_off_c, 9, 64, 104
1, 93606, Pitch_bend_c, 12, 896
1, 93613, Pitch_bend_c, 12, 5120
1, 93618, Note_off_c, 1, 50, 111
1, 93620, Pitch_bend_c, 12, 6912
1, 93627, Pitch_bend_c, 12, 7552
1, 93635, Pitch_bend_c, 12, 7936
1, 93643, Pitch_bend_c, 12, 8192
1, 93648, Note_on_c, 1, 50, 108
1, 93648, Note_on_c, 9, 64, 108
1, 93649, Note_off_c, 9, 64, 112
1, 93651, Note_on_c, 9, 69, 50
1, 93652, Note_off_c, 9, 69, 92
1, 93674, Note_off_c, 1, 50, 108
1, 93695, Note_on_c, 9, 42, 100
1, 93695, Note_off_c, 11, 50, 108
1, 93695, Note_on_c, 9, 69, 96
1, 93696, Note_on_c, 9, 36, 124
1, 93696, Note_on_c, 11, 41, 124
1, 93696, Note_on_c, 1, 41, 117
1, 93696, Note_off_c, 9, 42, 92
1, 93696, Note_on_c, 2, 57, 114
1, 93696, Note_on_c, 2, 60, 119
1, 93696, Note_on_c, 9, 63, 120
1, 93696, Note_on_c, 2, 65, 117
1, 93696, Note_on_c, 6, 65, 90
1, 93696, Note_off_c, 9, 69, 80
1, 93697, Note_off_c, 9, 36, 76
1, 93697, Note_off_c, 9, 63, 92
1, 93702, Note_off_c, 6, 62, 113
1, 93712, Note_off_c, 2, 60, 111
1, 93714, Note_off_c, 0, 74, 108
1, 93720, Note_off_c, 2, 57, 104
1, 93723, Note_off_c, 2, 65, 108
1, 93724, Note_off_c, 6, 81, 108
1, 93726, Note_off_c, 0, 81, 110
1, 93747, Note_on_c, 9, 69, 50
1, 93748, Note_off_c, 9, 69, 80
1, 93770, Note_off_c, 0, 77, 110
1, 93773, Note_off_c, 1, 41, 106
1, 93791, Note_on_c, 9, 42, 120
1, 93791, Note_on_c, 9, 69, 88
1, 93792, Note_off_c, 12, 67, 108
1, 93792, Note_off_c, 9, 42, 92
1, 93792, Note_on_c, 1, 53, 119
1, 93792, Note_on_c, 2, 57, 116
1, 93792, Note_on_c, 2, 60, 116
1, 93792, Note_on_c, 12, 60, 114
1, 93792, Note_on_c, 9, 63, 116
1, 93792, Note_on_c, 2, 65, 110
1, 93792, Note_on_c, 12, 65, 113
1, 93792, Note_off_c, 9, 69, 76
1, 93792, Note_on_c, 0, 74, 114
1, 93792, Note_on_c, 0, 79, 114
1, 93792, Note_on_c, 0, 82, 114
1, 93792, Note_on_c, 6, 82, 117
1, 93793, Note_off_c, 12, 62, 111
1, 93793, Note_off_c, 9, 63, 84
1, 93806, Note_off_c, 2, 60, 116
1, 93815, Note_off_c, 2, 65, 108
1, 93819, Note_off_c, 2, 57, 104
1, 93821, Note_off_c, 1, 53, 111
1, 93822, Note_off_c, 12, 60, 111
1, 93823, Note_off_c, 12, 65, 99
1, 93832, Note_off_c, 0, 74, 104
1, 93833, Note_off_c, 0, 82, 106
1, 93835, Note_off_c, 0, 79, 106
1, 93840, Note_on_c, 1, 53, 101
1, 93840, Note_on_c, 0, 72, 113
1, 93840, Note_on_c, 0, 77, 114
1, 93840, Note_on_c, 0, 81, 111
1, 93840, Note_on_c, 6, 81, 117
1, 93841, Note_off_c, 6, 82, 106
1, 93843, Note_on_c, 9, 69, 50
1, 93844, Note_off_c, 9, 69, 76
1, 93870, Note_off_c, 1, 53, 111
1, 93882, Note_off_c, 0, 72, 108
1, 93884, Note_off_c, 0, 81, 104
1, 93885, Note_off_c, 0, 77, 104
1, 93887, Note_on_c, 9, 42, 124
1, 93887, Note_on_c, 9, 69, 104
1, 93888, Note_on_c, 9, 36, 124
1, 93888, Note_on_c, 9, 40, 124
1, 93888, Note_on_c, 1, 41, 122
1, 93888, Note_off_c, 9, 42, 96
1, 93888, Note_on_c, 2, 57, 119
1, 93888, Note_on_c, 2, 60, 123
1, 93888, Note_on_c, 12, 60, 111
1, 93888, Note_on_c, 9, 62, 124
1, 93888, Note_on_c, 2, 65, 122
1, 93888, Note_on_c, 12, 65, 117
1, 93888, Note_off_c, 9, 69, 68
1, 93888, Note_on_c, 0, 74, 113
1, 93888, Note_on_c, 0, 79, 113
1, 93888, Note_on_c, 0, 82, 116
1, 93888, Note_on_c, 6, 82, 117
1, 93889, Note_off_c, 6, 81, 111
1, 93889, Note_off_c, 9, 36, 96
1, 93889, Note_off_c, 9, 40, 96
1, 93889, Note_off_c, 9, 62, 108
1, 93929, Note_off_c, 0, 82, 99
1, 93931, Note_off_c, 0, 79, 94
1, 93933, Note_off_c, 0, 74, 76
1, 93936, Note_on_c, 0, 72, 113
1, 93936, Note_on_c, 0, 77, 114
1, 93936, Note_on_c, 0, 81, 113
1, 93936, Note_on_c, 6, 81, 114
1, 93939, Note_on_c, 9, 69, 50
1, 93940, Note_off_c, 9, 69, 68
1, 93942, Note_off_c, 6, 82, 99
1, 93957, Note_off_c, 2, 57, 106
1, 93960, Note_off_c, 2, 60, 111
1, 93960, Note_off_c, 2, 65, 110
1, 93964, Note_off_c, 1, 41, 110
1, 93974, Note_off_c, 12, 60, 106
1, 93976, Note_off_c, 0, 72, 108
1, 93976, Note_off_c, 0, 81, 108
1, 93982, Note_off_c, 0, 77, 110
1, 93983, Note_on_c, 9, 42, 124
1, 93983, Note_on_c, 9, 69, 96
1, 93983, Note_off_c, 6, 81, 111
1, 93984, Note_off_c, 9, 42, 100
1, 93984, Note_on_c, 1, 53, 114
1, 93984, Note_on_c, 12, 57, 108
1, 93984, Note_on_c, 12, 62, 111
1, 93984, Note_on_c, 9, 64, 116
1, 93984, Note_off_c, 9, 69, 68
1, 93984, Note_on_c, 0, 69, 113
1, 93984, Note_on_c, 0, 72, 114
1, 93984, Note_on_c, 0, 77, 113
1, 93984, Note_on_c, 6, 77, 116
1, 93985, Note_off_c, 9, 64, 96
1, 93993, Note_off_c, 12, 65, 102
1, 94006, Note_off_c, 1, 53, 106
1, 94024, Note_off_c, 0, 69, 106
1, 94027, Note_off_c, 0, 72, 108
1, 94027, Note_off_c, 0, 77, 111
1, 94032, Note_on_c, 1, 53, 114
1, 94032, Note_on_c, 9, 64, 108
1, 94032, Note_on_c, 0, 67, 111
1, 94032, Note_on_c, 0, 69, 110
1, 94032, Note_on_c, 0, 74, 114
1, 94032, Note_on_c, 6, 74, 114
1, 94033, Note_off_c, 9, 64, 104
1, 94035, Note_on_c, 9, 69, 50
1, 94036, Note_off_c, 6, 77, 110
1, 94036, Note_off_c, 9, 69, 68
1, 94055, Note_off_c, 1, 53, 104
1, 94073, Note_off_c, 0, 67, 110
1, 94077, Note_off_c, 0, 74, 108
1, 94078, Note_off_c, 0, 69, 104
1, 94079, Note_on_c, 9, 42, 76
1, 94079, Note_on_c, 9, 69, 104
1, 94080, Note_on_c, 9, 36, 124
1, 94080, Note_on_c, 1, 41, 119
1, 94080, Note_off_c, 9, 42, 100
1, 94080, Note_on_c, 2, 57, 113
1, 94080, Note_on_c, 2, 60, 122
1, 94080, Note_on_c, 12, 60, 113
1, 94080, Note_on_c, 9, 63, 124
1, 94080, Note_on_c, 2, 65, 120
1, 94080, Note_on_c, 12, 65, 97
1, 94080, Note_off_c, 9, 69, 84
1, 94080, Note_on_c, 0, 69, 119
1, 94080, Note_on_c, 0, 72, 119
1, 94080, Note_on_c, 0, 77, 120
1, 94080, Note_on_c, 6, 77, 120
1, 94081, Note_off_c, 12, 57, 108
1, 94081, Note_off_c, 9, 36, 108
1, 94081, Note_off_c, 9, 63, 96
1, 94083, Note_off_c, 6, 74, 108
1, 94096, Note_off_c, 12, 62, 108
1, 94131, Note_on_c, 9, 69, 50
1, 94132, Note_off_c, 9, 69, 84
1, 94156, Note_off_c, 1, 41, 110
1, 94175, Note_on_c, 9, 42, 124
1, 94175, Note_on_c, 9, 69, 100
1, 94176, Note_off_c, 9, 42, 100
1, 94176, Note_on_c, 1, 53, 114
1, 94176, Note_on_c, 9, 63, 124
1, 94176, Note_off_c, 9, 69, 92
1, 94177, Note_off_c, 9, 63, 100
1, 94179, Note_off_c, 2, 57, 71
1, 94198, Note_off_c, 1, 53, 106
1, 94204, Note_off_c, 2, 65, 66
1, 94224, Note_on_c, 1, 53, 113
1, 94227, Note_on_c, 9, 69, 50
1, 94228, Note_on_c, 2, 57, 102
1, 94228, Note_off_c, 9, 69, 92
1, 94234, Note_off_c, 2, 60, 66
1, 94249, Note_off_c, 12, 65, 104
1, 94249, Note_off_c, 1, 53, 106
1, 94267, Note_off_c, 12, 60, 102
1, 94271, Note_on_c, 9, 42, 84
1, 94271, Note_on_c, 9, 69, 100
1, 94272, Note_on_c, 9, 36, 124
1, 94272, Note_on_c, 9, 40, 124
1, 94272, Note_on_c, 1, 41, 120
1, 94272, Note_off_c, 9, 42, 96
1, 94272, Note_on_c, 12, 57, 113
1, 94272, Note_on_c, 2, 60, 122
1, 94272, Note_on_c, 12, 62, 116
1, 94272, Note_on_c, 9, 62, 124
1, 94272, Note_on_c, 2, 65, 120
1, 94272, Note_off_c, 9, 69, 92
1, 94273, Note_off_c, 9, 36, 112
1, 94273, Note_off_c, 9, 40, 108
1, 94273, Note_off_c, 9, 62, 104
1, 94296, Note_off_c, 2, 65, 108
1, 94311, Note_off_c, 2, 60, 108
1, 94321, Note_off_c, 2, 57, 102
1, 94323, Note_on_c, 9, 69, 50
1, 94324, Note_off_c, 9, 69, 92
1, 94349, Note_off_c, 1, 41, 111
1, 94367, Note_on_c, 9, 42, 124
1, 94367, Note_on_c, 9, 69, 100
1, 94368, Note_off_c, 9, 42, 100
1, 94368, Note_on_c, 12, 53, 106
1, 94368, Note_on_c, 1, 53, 114
1, 94368, Note_on_c, 12, 60, 113
1, 94368, Note_on_c, 9, 64, 112
1, 94368, Note_off_c, 9, 69, 92
1, 94369, Note_off_c, 9, 64, 104
1, 94371, Note_off_c, 12, 62, 106
1, 94390, Note_off_c, 1, 53, 106
1, 94416, Note_on_c, 1, 53, 119
1, 94416, Note_on_c, 9, 64, 108
1, 94417, Note_off_c, 9, 64, 112
1, 94419, Note_on_c, 9, 69, 50
1, 94420, Note_off_c, 9, 69, 92
1, 94441, Note_off_c, 1, 53, 104
1, 94463, Note_on_c, 9, 42, 92
1, 94463, Note_on_c, 9, 69, 96
1, 94464, Note_on_c, 9, 36, 124
1, 94464, Note_on_c, 1, 41, 120
1, 94464, Note_off_c, 9, 42, 100
1, 94464, Note_on_c, 2, 57, 108
1, 94464, Note_on_c, 2, 60, 119
1, 94464, Note_on_c, 9, 63, 120
1, 94464, Note_on_c, 2, 65, 117
1, 94464, Note_off_c, 9, 69, 80
1, 94465, Note_off_c, 9, 36, 76
1, 94465, Note_off_c, 9, 63, 92
1, 94491, Note_off_c, 2, 57, 104
1, 94493, Note_off_c, 2, 60, 111
1, 94496, Note_off_c, 2, 65, 110
1, 94498, Note_off_c, 6, 77, 113
1, 94515, Note_on_c, 9, 69, 50
1, 94516, Note_off_c, 9, 69, 80
1, 94539, Note_off_c, 0, 77, 111
1, 94539, Note_off_c, 1, 41, 111
1, 94555, Note_off_c, 0, 69, 110
1, 94559, Note_on_c, 9, 42, 124
1, 94559, Note_on_c, 9, 69, 88
1, 94560, Note_off_c, 9, 42, 96
1, 94560, Note_on_c, 1, 53, 114
1, 94560, Note_on_c, 2, 57, 113
1, 94560, Note_on_c, 2, 60, 120
1, 94560, Note_on_c, 9, 63, 116
1, 94560, Note_on_c, 2, 65, 117
1, 94560, Note_off_c, 9, 69, 76
1, 94560, Note_on_c, 0, 70, 110
1, 94560, Note_on_c, 0, 74, 113
1, 94560, Note_on_c, 0, 79, 114
1, 94560, Note_on_c, 6, 79, 113
1, 94561, Note_off_c, 9, 63, 84
1, 94562, Note_off_c, 0, 72, 110
1, 94579, Note_off_c, 1, 53, 108
1, 94583, Note_off_c, 2, 60, 108
1, 94586, Note_off_c, 2, 57, 106
1, 94589, Note_off_c, 2, 65, 102
1, 94602, Note_off_c, 0, 79, 108
1, 94604, Note_off_c, 0, 70, 104
1, 94607, Note_off_c, 0, 74, 108
1, 94608, Note_on_c, 1, 53, 117
1, 94608, Note_on_c, 0, 69, 110
1, 94608, Note_on_c, 0, 72, 108
1, 94608, Note_on_c, 0, 77, 114
1, 94608, Note_on_c, 6, 77, 116
1, 94611, Note_on_c, 9, 69, 50
1, 94611, Note_off_c, 6, 79, 108
1, 94612, Note_off_c, 9, 69, 76
1, 94630, Note_off_c, 1, 53, 94
1, 94648, Note_off_c, 0, 77, 110
1, 94649, Note_off_c, 0, 72, 108
1, 94655, Note_off_c, 11, 41, 111
1, 94655, Note_on_c, 9, 42, 112
1, 94655, Note_off_c, 0, 69, 102
1, 94655, Note_on_c, 9, 69, 104
1, 94656, Note_on_c, 9, 36, 124
1, 94656, Note_on_c, 9, 40, 124
1, 94656, Note_off_c, 6, 77, 111
1, 94656, Note_off_c, 9, 42, 100
1, 94656, Note_on_c, 11, 43, 119
1, 94656, Note_on_c, 1, 43, 117
1, 94656, Note_on_c, 2, 57, 116
1, 94656, Note_on_c, 2, 60, 122
1, 94656, Note_on_c, 9, 62, 124
1, 94656, Note_on_c, 2, 65, 120
1, 94656, Note_off_c, 9, 69, 68
1, 94656, Note_on_c, 0, 70, 111
1, 94656, Note_on_c, 0, 74, 113
1, 94656, Note_on_c, 0, 79, 111
1, 94656, Note_on_c, 6, 79, 117
1, 94657, Note_off_c, 9, 36, 96
1, 94657, Note_off_c, 9, 40, 96
1, 94657, Note_off_c, 9, 62, 108
1, 94698, Note_off_c, 0, 79, 102
1, 94702, Note_off_c, 0, 70, 99
1, 94703, Note_off_c, 0, 74, 97
1, 94704, Note_on_c, 0, 69, 108
1, 94704, Note_on_c, 0, 72, 114
1, 94704, Note_on_c, 0, 77, 116
1, 94704, Note_on_c, 6, 77, 116
1, 94707, Note_on_c, 9, 69, 50
1, 94708, Note_off_c, 9, 69, 68
1, 94709, Note_off_c, 6, 79, 106
1, 94729, Note_off_c, 2, 65, 110
1, 94732, Note_off_c, 2, 60, 97
1, 94736, Note_off_c, 1, 43, 106
1, 94738, Note_off_c, 2, 57, 104
1, 94746, Note_off_c, 0, 69, 108
1, 94750, Note_off_c, 0, 72, 111
1, 94751, Note_on_c, 9, 42, 124
1, 94751, Note_on_c, 9, 69, 96
1, 94751, Note_off_c, 0, 77, 113
1, 94752, Note_off_c, 9, 42, 100
1, 94752, Note_on_c, 1, 55, 116
1, 94752, Note_on_c, 9, 64, 116
1, 94752, Note_on_c, 0, 65, 114
1, 94752, Note_off_c, 9, 69, 68
1, 94752, Note_on_c, 0, 69, 116
1, 94752, Note_on_c, 0, 74, 114
1, 94752, Note_on_c, 6, 74, 116
1, 94753, Note_off_c, 9, 64, 96
1, 94755, Note_off_c, 6, 77, 113
1, 94773, Note_off_c, 1, 55, 99
1, 94793, Note_off_c, 0, 74, 108
1, 94797, Note_off_c, 0, 65, 110
1, 94797, Note_off_c, 0, 69, 108
1, 94800, Note_on_c, 1, 55, 114
1, 94800, Note_on_c, 0, 62, 117
1, 94800, Note_on_c, 9, 64, 108
1, 94800, Note_on_c, 0, 67, 113
1, 94800, Note_on_c, 0, 72, 110
1, 94800, Note_on_c, 6, 72, 113
1, 94801, Note_off_c, 9, 64, 104
1, 94803, Note_on_c, 9, 69, 50
1, 94804, Note_off_c, 9, 69, 68
1, 94806, Note_off_c, 6, 74, 104
1, 94826, Note_off_c, 1, 55, 111
1, 94843, Note_off_c, 0, 72, 110
1, 94846, Note_off_c, 0, 62, 110
1, 94846, Note_off_c, 0, 67, 110
1, 94847, Note_on_c, 9, 42, 88
1, 94847, Note_off_c, 11, 43, 104
1, 94847, Note_on_c, 9, 69, 104
1, 94848, Note_on_c, 9, 36, 124
1, 94848, Note_off_c, 9, 42, 100
1, 94848, Note_on_c, 11, 45, 117
1, 94848, Note_on_c, 1, 45, 122
1, 94848, Note_on_c, 2, 57, 117
1, 94848, Note_on_c, 2, 60, 122
1, 94848, Note_on_c, 9, 63, 124
1, 94848, Note_on_c, 0, 65, 120
1, 94848, Note_on_c, 2, 65, 122
1, 94848, Note_off_c, 9, 69, 84
1, 94848, Note_on_c, 0, 69, 120
1, 94848, Note_on_c, 0, 74, 116
1, 94848, Note_on_c, 6, 74, 117
1, 94849, Note_off_c, 6, 72, 111
1, 94849, Note_off_c, 9, 36, 108
1, 94849, Note_off_c, 9, 63, 96
1, 94899, Note_on_c, 9, 69, 50
1, 94900, Note_off_c, 9, 69, 84
1, 94922, Note_off_c, 1, 45, 106
1, 94943, Note_on_c, 9, 46, 124
1, 94943, Note_on_c, 9, 69, 100
1, 94944, Note_off_c, 9, 46, 100
1, 94944, Note_on_c, 1, 57, 116
1, 94944, Note_on_c, 9, 63, 124
1, 94944, Note_off_c, 9, 69, 92
1, 94945, Note_off_c, 9, 63, 100
1, 94948, Note_off_c, 2, 57, 84
1, 94969, Note_off_c, 1, 57, 94
1, 94974, Note_off_c, 2, 65, 71
1, 94992, Note_on_c, 1, 57, 108
1, 94995, Note_on_c, 9, 69, 50
1, 94996, Note_on_c, 2, 57, 97
1, 94996, Note_off_c, 9, 69, 92
1, 95010, Note_off_c, 2, 60, 13
1, 95018, Note_off_c, 1, 57, 110
1, 95023, Note_off_c, 2, 57, 97
1, 95025, Note_off_c, 12, 53, 106
1, 95031, Note_off_c, 12, 57, 106
1, 95031, Note_off_c, 12, 60, 108
1, 95039, Note_on_c, 9, 44, 89
1, 95039, Note_off_c, 11, 45, 108
1, 95039, Note_on_c, 9, 69, 100
1, 95040, Note_on_c, 9, 36, 124
1, 95040, Note_on_c, 9, 40, 80
1, 95040, Note_on_c, 11, 41, 122
1, 95040, Note_on_c, 1, 41, 122
1, 95040, Note_off_c, 9, 44, 100
1, 95040, Note_on_c, 2, 57, 113
1, 95040, Note_on_c, 2, 60, 117
1, 95040, Note_on_c, 9, 62, 124
1, 95040, Note_on_c, 2, 65, 120
1, 95040, Note_off_c, 9, 69, 92
1, 95041, Note_off_c, 9, 36, 112
1, 95041, Note_off_c, 9, 40, 108
1, 95041, Note_off_c, 9, 62, 104
1, 95059, Note_off_c, 2, 65, 108
1, 95060, Note_off_c, 2, 60, 110
1, 95073, Note_off_c, 2, 57, 104
1, 95088, Note_on_c, 9, 40, 105
1, 95089, Note_off_c, 9, 40, 108
1, 95091, Note_on_c, 9, 69, 50
1, 95092, Note_off_c, 9, 69, 92
1, 95117, Note_off_c, 1, 41, 110
1, 95135, Note_on_c, 9, 69, 100
1, 95136, Note_on_c, 9, 40, 124
1, 95136, Note_on_c, 1, 53, 113
1, 95136, Note_on_c, 9, 64, 112
1, 95136, Note_off_c, 9, 69, 92
1, 95137, Note_off_c, 9, 40, 108
1, 95137, Note_off_c, 9, 64, 104
1, 95157, Note_off_c, 1, 53, 108
1, 95159, Note_off_c, 6, 65, 91
1, 95184, Note_on_c, 1, 53, 114
1, 95184, Note_on_c, 9, 64, 108
1, 95185, Note_off_c, 9, 64, 112
1, 95187, Note_on_c, 9, 69, 50
1, 95188, Note_off_c, 9, 69, 92
1, 95195, Note_off_c, 6, 74, 99
1, 95211, Note_off_c, 1, 53, 111
1, 95231, Note_off_c, 11, 41, 113
1, 95232, Note_on_c, 9, 36, 124
1, 95232, Note_on_c, 11, 38, 122
1, 95232, Note_on_c, 1, 38, 122
1, 95232, Note_on_c, 9, 49, 124
1, 95232, Note_on_c, 2, 57, 113
1, 95232, Note_on_c, 2, 62, 117
1, 95232, Note_on_c, 2, 65, 120
1, 95233, Note_off_c, 9, 36, 112
1, 95233, Note_off_c, 9, 49, 100
1, 95314, Control_c, 11, 11, 125
1, 95339, Control_c, 11, 11, 123
1, 95373, Control_c, 11, 11, 121
1, 95401, Control_c, 11, 11, 119
1, 95429, Control_c, 11, 11, 116
1, 95444, Control_c, 11, 11, 114
1, 95469, Control_c, 11, 11, 112
1, 95484, Control_c, 11, 11, 110
1, 95501, Control_c, 11, 11, 109
1, 95518, Control_c, 11, 11, 105
1, 95537, Control_c, 11, 11, 103
1, 95560, Control_c, 11, 11, 101
1, 95584, Control_c, 11, 11, 98
1, 95599, Control_c, 11, 11, 96
1, 95626, Control_c, 11, 11, 94
1, 95646, Control_c, 11, 11, 92
1, 95666, Control_c, 11, 11, 89
1, 95681, Control_c, 11, 11, 87
1, 95697, Control_c, 11, 11, 86
1, 95721, Control_c, 11, 11, 83
1, 95737, Control_c, 11, 11, 82
1, 95761, Control_c, 11, 11, 78
1, 95777, Control_c, 11, 11, 77
1, 95801, Control_c, 11, 11, 74
1, 95817, Control_c, 11, 11, 73
1, 95845, Control_c, 11, 11, 70
1, 95880, Control_c, 11, 11, 68
1, 95899, Control_c, 11, 11, 66
1, 95922, Control_c, 11, 11, 62
1, 95946, Control_c, 11, 11, 59
1, 95974, Control_c, 11, 11, 57
1, 96002, Control_c, 11, 11, 55
1, 96017, Control_c, 11, 11, 52
1, 96037, Control_c, 11, 11, 50
1, 96065, Control_c, 11, 11, 48
1, 96094, Control_c, 11, 11, 46
1, 96122, Control_c, 11, 11, 43
1, 96165, Control_c, 11, 11, 41
1, 96198, Control_c, 11, 11, 39
1, 96223, Control_c, 11, 11, 37
1, 96246, Control_c, 11, 11, 34
1, 96284, Control_c, 11, 11, 32
1, 96307, Control_c, 11, 11, 30
1, 96347, Control_c, 11, 11, 28
1, 96370, Control_c, 11, 11, 25
1, 96413, Control_c, 11, 11, 24
1, 96429, Control_c, 11, 11, 23
1, 96468, Control_c, 11, 11, 21
1, 96501, Control_c, 11, 11, 20
1, 96518, Control_c, 11, 11, 19
1, 96555, Control_c, 11, 11, 17
1, 96572, Control_c, 11, 11, 16
1, 96626, Control_c, 11, 11, 14
1, 96675, Control_c, 11, 11, 12
1, 96718, Control_c, 11, 11, 11
1, 96735, Control_c, 11, 11, 10
1, 96755, Note_off_c, 0, 74, 108
1, 96758, Note_off_c, 0, 65, 111
1, 96765, Note_off_c, 0, 69, 111
1, 96767, Note_off_c, 1, 38, 110
1, 96768, Note_off_c, 11, 38, 113
1, 96768, Note_off_c, 2, 57, 104
1, 96768, Note_off_c, 2, 62, 110
1, 96768, Note_off_c, 2, 65, 108
1, 96771, Control_c, 11, 11, 8
1, 96787, Control_c, 11, 11, 7
1, 97191, Control_c, 11, 11, 127
1, 97191, End_track
0, 0, End_of_file
