0, 0, Header, 1, 15, 480
1, 0, Start_track
1, 0, Title_t, "wnnadnce"
1, 0, Time_signature, 4, 2, 24, 8
1, 0, Key_signature, -1, "major"
1, 0, Tempo, 400000
1, 0, End_track
2, 0, Start_track
2, 0, Title_t, "Sax"
2, 0, Program_c, 0, 65
2, 0, Control_c, 0, 7, 127
2, 0, Control_c, 0, 10, 88
2, 0, Control_c, 0, 121, 0
2, 40, Control_c, 0, 123, 0
2, 80, Control_c, 0, 93, 65
2, 120, Control_c, 0, 91, 65
2, 160, Control_c, 0, 64, 0
2, 2400, Note_on_c, 0, 72, 125
2, 3168, Note_on_c, 0, 72, 0
2, 3360, Note_on_c, 0, 72, 116
2, 3552, Note_on_c, 0, 72, 0
2, 3600, Note_on_c, 0, 72, 107
2, 3792, Note_on_c, 0, 72, 0
2, 3840, Note_on_c, 0, 72, 112
2, 4224, Note_on_c, 0, 72, 0
2, 4320, Note_on_c, 0, 69, 112
2, 4512, Note_on_c, 0, 69, 0
2, 4560, Note_on_c, 0, 69, 110
2, 5136, Note_on_c, 0, 69, 0
2, 5280, Note_on_c, 0, 69, 99
2, 5664, Note_on_c, 0, 69, 0
2, 5760, Note_on_c, 0, 67, 101
2, 6144, Note_on_c, 0, 67, 0
2, 6240, Note_on_c, 0, 67, 99
2, 6432, Note_on_c, 0, 67, 0
2, 6480, Note_on_c, 0, 69, 97
2, 7180, Note_on_c, 0, 69, 0
2, 7680, Note_on_c, 0, 69, 117
2, 8256, Note_on_c, 0, 69, 0
2, 8400, Note_on_c, 0, 69, 97
2, 8784, Note_on_c, 0, 69, 0
2, 8880, Note_on_c, 0, 69, 110
2, 9264, Note_on_c, 0, 69, 0
2, 9360, Note_on_c, 0, 69, 113
2, 9552, Note_on_c, 0, 69, 0
2, 9600, Note_on_c, 0, 67, 122
2, 9984, Note_on_c, 0, 67, 0
2, 10080, Note_on_c, 0, 67, 110
2, 10272, Note_on_c, 0, 67, 0
2, 10320, Note_on_c, 0, 69, 110
2, 10704, Note_on_c, 0, 69, 0
2, 10800, Note_on_c, 0, 67, 112
2, 10992, Note_on_c, 0, 67, 0
2, 11040, Note_on_c, 0, 69, 109
2, 11424, Note_on_c, 0, 69, 0
2, 11520, Note_on_c, 0, 69, 124
2, 12096, Note_on_c, 0, 69, 0
2, 12240, Note_on_c, 0, 65, 109
2, 13420, Note_on_c, 0, 65, 0
2, 13920, Note_on_c, 0, 65, 109
2, 14112, Note_on_c, 0, 65, 0
2, 14160, Note_on_c, 0, 69, 97
2, 14352, Note_on_c, 0, 69, 0
2, 14400, Note_on_c, 0, 67, 112
2, 14976, Note_on_c, 0, 67, 0
2, 15120, Note_on_c, 0, 65, 111
2, 15312, Note_on_c, 0, 65, 0
2, 15360, Note_on_c, 0, 65, 105
2, 17260, Note_on_c, 0, 65, 0
2, 17760, Note_on_c, 0, 72, 112
2, 18528, Note_on_c, 0, 72, 0
2, 18720, Note_on_c, 0, 72, 121
2, 18912, Note_on_c, 0, 72, 0
2, 18960, Note_on_c, 0, 72, 113
2, 19152, Note_on_c, 0, 72, 0
2, 19200, Note_on_c, 0, 72, 122
2, 19584, Note_on_c, 0, 72, 0
2, 19680, Note_on_c, 0, 69, 125
2, 19872, Note_on_c, 0, 69, 0
2, 19920, Note_on_c, 0, 69, 110
2, 20496, Note_on_c, 0, 69, 0
2, 20640, Note_on_c, 0, 69, 115
2, 21024, Note_on_c, 0, 69, 0
2, 21120, Note_on_c, 0, 67, 113
2, 21504, Note_on_c, 0, 67, 0
2, 21600, Note_on_c, 0, 67, 104
2, 21984, Note_on_c, 0, 67, 0
2, 22080, Note_on_c, 0, 69, 102
2, 22848, Note_on_c, 0, 69, 0
2, 23040, Note_on_c, 0, 69, 111
2, 23616, Note_on_c, 0, 69, 0
2, 23760, Note_on_c, 0, 69, 119
2, 24336, Note_on_c, 0, 69, 0
2, 24480, Note_on_c, 0, 69, 110
2, 24864, Note_on_c, 0, 69, 0
2, 24960, Note_on_c, 0, 67, 119
2, 25344, Note_on_c, 0, 67, 0
2, 25440, Note_on_c, 0, 67, 99
2, 25632, Note_on_c, 0, 67, 0
2, 25680, Note_on_c, 0, 69, 97
2, 26256, Note_on_c, 0, 69, 0
2, 26400, Note_on_c, 0, 67, 108
2, 26784, Note_on_c, 0, 67, 0
2, 26880, Note_on_c, 0, 69, 104
2, 27456, Note_on_c, 0, 69, 0
2, 27600, Note_on_c, 0, 65, 111
2, 28780, Note_on_c, 0, 65, 0
2, 29280, Note_on_c, 0, 65, 102
2, 29472, Note_on_c, 0, 65, 0
2, 29520, Note_on_c, 0, 69, 122
2, 29712, Note_on_c, 0, 69, 0
2, 29760, Note_on_c, 0, 67, 118
2, 30336, Note_on_c, 0, 67, 0
2, 30480, Note_on_c, 0, 65, 116
2, 30672, Note_on_c, 0, 65, 0
2, 30720, Note_on_c, 0, 65, 110
2, 32620, Note_on_c, 0, 65, 0
2, 33120, Note_on_c, 0, 72, 119
2, 33504, Note_on_c, 0, 72, 0
2, 33600, Note_on_c, 0, 70, 100
2, 34368, Note_on_c, 0, 70, 0
2, 34560, Note_on_c, 0, 72, 110
2, 34944, Note_on_c, 0, 72, 0
2, 35040, Note_on_c, 0, 69, 105
2, 35232, Note_on_c, 0, 69, 0
2, 35280, Note_on_c, 0, 69, 103
2, 35664, Note_on_c, 0, 69, 0
2, 35760, Note_on_c, 0, 69, 98
2, 35952, Note_on_c, 0, 69, 0
2, 36000, Note_on_c, 0, 69, 100
2, 36384, Note_on_c, 0, 69, 0
2, 36480, Note_on_c, 0, 67, 112
2, 36672, Note_on_c, 0, 67, 0
2, 36720, Note_on_c, 0, 69, 121
2, 37104, Note_on_c, 0, 69, 0
2, 37200, Note_on_c, 0, 67, 103
2, 37392, Note_on_c, 0, 67, 0
2, 37440, Note_on_c, 0, 69, 111
2, 37824, Note_on_c, 0, 69, 0
2, 37920, Note_on_c, 0, 67, 98
2, 38380, Note_on_c, 0, 67, 0
2, 38880, Note_on_c, 0, 69, 122
2, 39264, Note_on_c, 0, 69, 0
2, 39360, Note_on_c, 0, 69, 110
2, 40128, Note_on_c, 0, 69, 0
2, 40320, Note_on_c, 0, 67, 107
2, 40512, Note_on_c, 0, 67, 0
2, 40560, Note_on_c, 0, 69, 96
2, 40944, Note_on_c, 0, 69, 0
2, 41040, Note_on_c, 0, 67, 108
2, 41232, Note_on_c, 0, 67, 0
2, 41280, Note_on_c, 0, 69, 105
2, 41664, Note_on_c, 0, 69, 0
2, 41760, Note_on_c, 0, 67, 112
2, 42144, Note_on_c, 0, 67, 0
2, 42240, Note_on_c, 0, 69, 110
2, 43008, Note_on_c, 0, 69, 0
2, 43200, Note_on_c, 0, 65, 113
2, 44140, Note_on_c, 0, 65, 0
2, 44640, Note_on_c, 0, 67, 111
2, 44832, Note_on_c, 0, 67, 0
2, 44880, Note_on_c, 0, 69, 118
2, 45072, Note_on_c, 0, 69, 0
2, 45120, Note_on_c, 0, 67, 100
2, 45696, Note_on_c, 0, 67, 0
2, 45840, Note_on_c, 0, 65, 112
2, 49008, Note_on_c, 0, 65, 0
2, 56160, Note_on_c, 0, 72, 111
2, 56928, Note_on_c, 0, 72, 0
2, 57120, Note_on_c, 0, 72, 110
2, 57312, Note_on_c, 0, 72, 0
2, 57360, Note_on_c, 0, 72, 122
2, 57552, Note_on_c, 0, 72, 0
2, 57600, Note_on_c, 0, 72, 120
2, 57984, Note_on_c, 0, 72, 0
2, 58080, Note_on_c, 0, 72, 106
2, 58272, Note_on_c, 0, 72, 0
2, 58320, Note_on_c, 0, 72, 106
2, 58704, Note_on_c, 0, 72, 0
2, 58800, Note_on_c, 0, 72, 110
2, 59184, Note_on_c, 0, 72, 0
2, 59280, Note_on_c, 0, 72, 110
2, 59472, Note_on_c, 0, 72, 0
2, 59520, Note_on_c, 0, 70, 96
2, 59904, Note_on_c, 0, 70, 0
2, 60000, Note_on_c, 0, 70, 112
2, 60384, Note_on_c, 0, 70, 0
2, 60480, Note_on_c, 0, 72, 110
2, 61420, Note_on_c, 0, 72, 0
2, 61680, Note_on_c, 0, 72, 110
2, 62256, Note_on_c, 0, 72, 0
2, 62400, Note_on_c, 0, 69, 120
2, 62784, Note_on_c, 0, 69, 0
2, 62880, Note_on_c, 0, 69, 112
2, 63264, Note_on_c, 0, 69, 0
2, 63360, Note_on_c, 0, 67, 100
2, 63744, Note_on_c, 0, 67, 0
2, 63840, Note_on_c, 0, 67, 121
2, 64224, Note_on_c, 0, 67, 0
2, 64320, Note_on_c, 0, 69, 110
2, 64704, Note_on_c, 0, 69, 0
2, 64800, Note_on_c, 0, 67, 108
2, 65260, Note_on_c, 0, 67, 0
2, 65520, Note_on_c, 0, 69, 104
2, 66096, Note_on_c, 0, 69, 0
2, 66240, Note_on_c, 0, 65, 117
2, 67180, Note_on_c, 0, 65, 0
2, 67440, Note_on_c, 0, 69, 122
2, 67632, Note_on_c, 0, 69, 0
2, 67680, Note_on_c, 0, 67, 110
2, 67872, Note_on_c, 0, 67, 0
2, 67920, Note_on_c, 0, 69, 110
2, 68688, Note_on_c, 0, 69, 0
2, 68880, Note_on_c, 0, 67, 111
2, 69072, Note_on_c, 0, 67, 0
2, 69120, Note_on_c, 0, 69, 107
2, 69312, Note_on_c, 0, 69, 0
2, 69360, Note_on_c, 0, 67, 110
2, 69552, Note_on_c, 0, 67, 0
2, 69600, Note_on_c, 0, 65, 105
2, 71020, Note_on_c, 0, 65, 0
2, 71520, Note_on_c, 0, 72, 106
2, 72288, Note_on_c, 0, 72, 0
2, 72480, Note_on_c, 0, 69, 103
2, 72672, Note_on_c, 0, 69, 0
2, 72720, Note_on_c, 0, 69, 106
2, 72912, Note_on_c, 0, 69, 0
2, 72960, Note_on_c, 0, 69, 99
2, 73344, Note_on_c, 0, 69, 0
2, 73440, Note_on_c, 0, 69, 112
2, 73632, Note_on_c, 0, 69, 0
2, 73680, Note_on_c, 0, 69, 111
2, 74256, Note_on_c, 0, 69, 0
2, 74400, Note_on_c, 0, 69, 111
2, 74592, Note_on_c, 0, 69, 0
2, 74640, Note_on_c, 0, 67, 108
2, 75024, Note_on_c, 0, 67, 0
2, 75120, Note_on_c, 0, 69, 105
2, 75312, Note_on_c, 0, 69, 0
2, 75360, Note_on_c, 0, 67, 104
2, 75744, Note_on_c, 0, 67, 0
2, 75840, Note_on_c, 0, 69, 124
2, 76300, Note_on_c, 0, 69, 0
2, 76800, Note_on_c, 0, 69, 109
2, 77376, Note_on_c, 0, 69, 0
2, 77520, Note_on_c, 0, 69, 105
2, 78096, Note_on_c, 0, 69, 0
2, 78240, Note_on_c, 0, 69, 111
2, 78624, Note_on_c, 0, 69, 0
2, 78720, Note_on_c, 0, 67, 110
2, 79104, Note_on_c, 0, 67, 0
2, 79200, Note_on_c, 0, 67, 110
2, 79392, Note_on_c, 0, 67, 0
2, 79440, Note_on_c, 0, 69, 107
2, 80016, Note_on_c, 0, 69, 0
2, 80160, Note_on_c, 0, 67, 108
2, 80544, Note_on_c, 0, 67, 0
2, 80640, Note_on_c, 0, 69, 123
2, 81408, Note_on_c, 0, 69, 0
2, 81600, Note_on_c, 0, 65, 122
2, 82540, Note_on_c, 0, 65, 0
2, 83040, Note_on_c, 0, 65, 98
2, 83232, Note_on_c, 0, 65, 0
2, 83280, Note_on_c, 0, 69, 99
2, 83472, Note_on_c, 0, 69, 0
2, 83520, Note_on_c, 0, 67, 97
2, 84096, Note_on_c, 0, 67, 0
2, 84240, Note_on_c, 0, 65, 116
2, 84432, Note_on_c, 0, 65, 0
2, 84480, Note_on_c, 0, 69, 109
2, 84672, Note_on_c, 0, 69, 0
2, 84720, Note_on_c, 0, 67, 104
2, 84912, Note_on_c, 0, 67, 0
2, 84960, Note_on_c, 0, 65, 98
2, 86380, Note_on_c, 0, 65, 0
2, 86880, Note_on_c, 0, 72, 116
2, 87648, Note_on_c, 0, 72, 0
2, 87840, Note_on_c, 0, 69, 110
2, 88032, Note_on_c, 0, 69, 0
2, 88320, Note_on_c, 0, 69, 113
2, 88704, Note_on_c, 0, 69, 0
2, 88800, Note_on_c, 0, 67, 110
2, 88992, Note_on_c, 0, 67, 0
2, 89040, Note_on_c, 0, 65, 122
2, 89424, Note_on_c, 0, 65, 0
2, 89520, Note_on_c, 0, 65, 99
2, 89904, Note_on_c, 0, 65, 0
2, 90000, Note_on_c, 0, 65, 118
2, 90192, Note_on_c, 0, 65, 0
2, 90240, Note_on_c, 0, 65, 110
2, 90624, Note_on_c, 0, 65, 0
2, 90720, Note_on_c, 0, 65, 97
2, 91104, Note_on_c, 0, 65, 0
2, 91200, Note_on_c, 0, 65, 109
2, 91968, Note_on_c, 0, 65, 0
2, 92160, Note_on_c, 0, 65, 110
2, 92544, Note_on_c, 0, 65, 0
2, 92640, Note_on_c, 0, 65, 124
2, 92832, Note_on_c, 0, 65, 0
2, 92880, Note_on_c, 0, 65, 97
2, 94032, Note_on_c, 0, 65, 0
2, 94320, Note_on_c, 0, 69, 124
2, 94704, Note_on_c, 0, 69, 0
2, 94800, Note_on_c, 0, 67, 112
2, 94992, Note_on_c, 0, 67, 0
2, 95040, Note_on_c, 0, 69, 120
2, 95232, Note_on_c, 0, 69, 0
2, 95280, Note_on_c, 0, 67, 101
2, 95472, Note_on_c, 0, 67, 0
2, 95520, Note_on_c, 0, 65, 112
2, 95904, Note_on_c, 0, 65, 0
2, 96000, Note_on_c, 0, 69, 114
2, 96384, Note_on_c, 0, 69, 0
2, 96480, Note_on_c, 0, 67, 110
2, 96672, Note_on_c, 0, 67, 0
2, 96720, Note_on_c, 0, 69, 110
2, 97104, Note_on_c, 0, 69, 0
2, 97200, Note_on_c, 0, 67, 110
2, 97392, Note_on_c, 0, 67, 0
2, 97440, Note_on_c, 0, 65, 114
2, 97900, Note_on_c, 0, 65, 0
2, 98160, Note_on_c, 0, 69, 96
2, 98352, Note_on_c, 0, 69, 0
2, 98400, Note_on_c, 0, 67, 119
2, 99360, Note_on_c, 0, 67, 0
2, 99600, Note_on_c, 0, 65, 122
2, 99792, Note_on_c, 0, 65, 0
2, 99840, Note_on_c, 0, 65, 101
2, 101376, Note_on_c, 0, 65, 0
2, 101760, Note_on_c, 0, 72, 97
2, 101952, Note_on_c, 0, 72, 0
2, 102000, Note_on_c, 0, 72, 97
2, 102192, Note_on_c, 0, 72, 0
2, 102240, Note_on_c, 0, 72, 103
2, 102432, Note_on_c, 0, 72, 0
2, 102480, Note_on_c, 0, 72, 119
2, 102672, Note_on_c, 0, 72, 0
2, 102720, Note_on_c, 0, 72, 95
2, 102912, Note_on_c, 0, 72, 0
2, 102960, Note_on_c, 0, 72, 106
2, 103152, Note_on_c, 0, 72, 0
2, 103200, Note_on_c, 0, 72, 110
2, 103392, Note_on_c, 0, 72, 0
2, 103440, Note_on_c, 0, 72, 113
2, 103632, Note_on_c, 0, 72, 0
2, 103680, Note_on_c, 0, 70, 110
2, 103872, Note_on_c, 0, 70, 0
2, 103920, Note_on_c, 0, 72, 97
2, 104112, Note_on_c, 0, 72, 0
2, 104160, Note_on_c, 0, 70, 98
2, 104352, Note_on_c, 0, 70, 0
2, 104400, Note_on_c, 0, 72, 109
2, 105100, Note_on_c, 0, 72, 0
2, 105600, Note_on_c, 0, 72, 110
2, 105792, Note_on_c, 0, 72, 0
2, 105840, Note_on_c, 0, 72, 105
2, 106032, Note_on_c, 0, 72, 0
2, 106080, Note_on_c, 0, 72, 97
2, 106272, Note_on_c, 0, 72, 0
2, 106320, Note_on_c, 0, 72, 98
2, 106512, Note_on_c, 0, 72, 0
2, 106560, Note_on_c, 0, 72, 107
2, 106752, Note_on_c, 0, 72, 0
2, 106800, Note_on_c, 0, 72, 110
2, 106992, Note_on_c, 0, 72, 0
2, 107040, Note_on_c, 0, 72, 102
2, 107232, Note_on_c, 0, 72, 0
2, 107280, Note_on_c, 0, 72, 104
2, 107472, Note_on_c, 0, 72, 0
2, 107520, Note_on_c, 0, 70, 109
2, 107712, Note_on_c, 0, 70, 0
2, 107760, Note_on_c, 0, 72, 117
2, 107952, Note_on_c, 0, 72, 0
2, 108000, Note_on_c, 0, 70, 110
2, 108192, Note_on_c, 0, 70, 0
2, 108240, Note_on_c, 0, 72, 96
2, 108940, Note_on_c, 0, 72, 0
2, 109440, Note_on_c, 0, 72, 110
2, 109632, Note_on_c, 0, 72, 0
2, 109680, Note_on_c, 0, 72, 113
2, 109872, Note_on_c, 0, 72, 0
2, 109920, Note_on_c, 0, 72, 113
2, 110112, Note_on_c, 0, 72, 0
2, 110160, Note_on_c, 0, 72, 103
2, 110352, Note_on_c, 0, 72, 0
2, 110400, Note_on_c, 0, 72, 110
2, 110592, Note_on_c, 0, 72, 0
2, 110640, Note_on_c, 0, 72, 113
2, 110832, Note_on_c, 0, 72, 0
2, 110880, Note_on_c, 0, 72, 110
2, 111072, Note_on_c, 0, 72, 0
2, 111120, Note_on_c, 0, 72, 111
2, 111312, Note_on_c, 0, 72, 0
2, 111360, Note_on_c, 0, 70, 111
2, 111552, Note_on_c, 0, 70, 0
2, 111600, Note_on_c, 0, 72, 111
2, 111792, Note_on_c, 0, 72, 0
2, 111840, Note_on_c, 0, 70, 110
2, 112032, Note_on_c, 0, 70, 0
2, 112080, Note_on_c, 0, 69, 105
2, 112656, Note_on_c, 0, 69, 0
2, 112800, Note_on_c, 0, 67, 95
2, 112992, Note_on_c, 0, 67, 0
2, 113040, Note_on_c, 0, 65, 122
2, 116592, Note_on_c, 0, 65, 0
2, 116592, End_track
3, 0, Start_track
3, 0, Title_t, "Sax"
3, 0, Program_c, 1, 65
3, 0, Control_c, 1, 7, 97
3, 0, Control_c, 1, 10, 40
3, 0, Control_c, 1, 121, 0
3, 40, Control_c, 1, 123, 0
3, 80, Control_c, 1, 93, 65
3, 120, Control_c, 1, 91, 65
3, 160, Control_c, 1, 64, 0
3, 2400, Note_on_c, 1, 67, 101
3, 3168, Note_on_c, 1, 67, 0
3, 3360, Note_on_c, 1, 67, 100
3, 3552, Note_on_c, 1, 67, 0
3, 3600, Note_on_c, 1, 67, 91
3, 3792, Note_on_c, 1, 67, 0
3, 3840, Note_on_c, 1, 69, 100
3, 4224, Note_on_c, 1, 69, 0
3, 4320, Note_on_c, 1, 65, 106
3, 4512, Note_on_c, 1, 65, 0
3, 4560, Note_on_c, 1, 65, 104
3, 5136, Note_on_c, 1, 65, 0
3, 5280, Note_on_c, 1, 65, 105
3, 5664, Note_on_c, 1, 65, 0
3, 5760, Note_on_c, 1, 62, 113
3, 6144, Note_on_c, 1, 62, 0
3, 6240, Note_on_c, 1, 62, 95
3, 6432, Note_on_c, 1, 62, 0
3, 6480, Note_on_c, 1, 64, 100
3, 7180, Note_on_c, 1, 64, 0
3, 7680, Note_on_c, 1, 65, 97
3, 8256, Note_on_c, 1, 65, 0
3, 8400, Note_on_c, 1, 65, 111
3, 8784, Note_on_c, 1, 65, 0
3, 8880, Note_on_c, 1, 65, 99
3, 9264, Note_on_c, 1, 65, 0
3, 9360, Note_on_c, 1, 65, 100
3, 9552, Note_on_c, 1, 65, 0
3, 9600, Note_on_c, 1, 62, 97
3, 9984, Note_on_c, 1, 62, 0
3, 10080, Note_on_c, 1, 62, 108
3, 10272, Note_on_c, 1, 62, 0
3, 10320, Note_on_c, 1, 64, 107
3, 10704, Note_on_c, 1, 64, 0
3, 10800, Note_on_c, 1, 64, 88
3, 10992, Note_on_c, 1, 64, 0
3, 11040, Note_on_c, 1, 64, 86
3, 11424, Note_on_c, 1, 64, 0
3, 11520, Note_on_c, 1, 65, 96
3, 12096, Note_on_c, 1, 65, 0
3, 12240, Note_on_c, 1, 60, 101
3, 13420, Note_on_c, 1, 60, 0
3, 13920, Note_on_c, 1, 62, 105
3, 14112, Note_on_c, 1, 62, 0
3, 14160, Note_on_c, 1, 65, 100
3, 14352, Note_on_c, 1, 65, 0
3, 14400, Note_on_c, 1, 64, 98
3, 14976, Note_on_c, 1, 64, 0
3, 15120, Note_on_c, 1, 60, 89
3, 15312, Note_on_c, 1, 60, 0
3, 15360, Note_on_c, 1, 60, 101
3, 16308, Note_on_c, 1, 60, 0
3, 16328, Note_on_c, 1, 59, 88
3, 17260, Note_on_c, 1, 59, 0
3, 17760, Note_on_c, 1, 67, 90
3, 18528, Note_on_c, 1, 67, 0
3, 18720, Note_on_c, 1, 67, 99
3, 18912, Note_on_c, 1, 67, 0
3, 18960, Note_on_c, 1, 67, 101
3, 19152, Note_on_c, 1, 67, 0
3, 19200, Note_on_c, 1, 69, 95
3, 19584, Note_on_c, 1, 69, 0
3, 19680, Note_on_c, 1, 65, 95
3, 19872, Note_on_c, 1, 65, 0
3, 19920, Note_on_c, 1, 65, 106
3, 20496, Note_on_c, 1, 65, 0
3, 20640, Note_on_c, 1, 65, 114
3, 21024, Note_on_c, 1, 65, 0
3, 21120, Note_on_c, 1, 62, 88
3, 21504, Note_on_c, 1, 62, 0
3, 21600, Note_on_c, 1, 62, 96
3, 21984, Note_on_c, 1, 62, 0
3, 22080, Note_on_c, 1, 64, 104
3, 22848, Note_on_c, 1, 64, 0
3, 23040, Note_on_c, 1, 65, 101
3, 23616, Note_on_c, 1, 65, 0
3, 23760, Note_on_c, 1, 65, 89
3, 24336, Note_on_c, 1, 65, 0
3, 24480, Note_on_c, 1, 65, 106
3, 24864, Note_on_c, 1, 65, 0
3, 24960, Note_on_c, 1, 62, 105
3, 25344, Note_on_c, 1, 62, 0
3, 25440, Note_on_c, 1, 62, 104
3, 25632, Note_on_c, 1, 62, 0
3, 25680, Note_on_c, 1, 64, 106
3, 26256, Note_on_c, 1, 64, 0
3, 26400, Note_on_c, 1, 64, 114
3, 26784, Note_on_c, 1, 64, 0
3, 26880, Note_on_c, 1, 65, 96
3, 27456, Note_on_c, 1, 65, 0
3, 27600, Note_on_c, 1, 60, 109
3, 28780, Note_on_c, 1, 60, 0
3, 29280, Note_on_c, 1, 62, 87
3, 29472, Note_on_c, 1, 62, 0
3, 29520, Note_on_c, 1, 65, 101
3, 29712, Note_on_c, 1, 65, 0
3, 29760, Note_on_c, 1, 64, 109
3, 30336, Note_on_c, 1, 64, 0
3, 30480, Note_on_c, 1, 60, 99
3, 30672, Note_on_c, 1, 60, 0
3, 30720, Note_on_c, 1, 60, 107
3, 31668, Note_on_c, 1, 60, 0
3, 31688, Note_on_c, 1, 59, 100
3, 32620, Note_on_c, 1, 59, 0
3, 33120, Note_on_c, 1, 67, 100
3, 33504, Note_on_c, 1, 67, 0
3, 33600, Note_on_c, 1, 67, 99
3, 34368, Note_on_c, 1, 67, 0
3, 34560, Note_on_c, 1, 69, 104
3, 34944, Note_on_c, 1, 69, 0
3, 35040, Note_on_c, 1, 65, 109
3, 35232, Note_on_c, 1, 65, 0
3, 35280, Note_on_c, 1, 65, 86
3, 35664, Note_on_c, 1, 65, 0
3, 35760, Note_on_c, 1, 65, 107
3, 35952, Note_on_c, 1, 65, 0
3, 36000, Note_on_c, 1, 65, 104
3, 36384, Note_on_c, 1, 65, 0
3, 36480, Note_on_c, 1, 62, 100
3, 36672, Note_on_c, 1, 62, 0
3, 36720, Note_on_c, 1, 65, 104
3, 37104, Note_on_c, 1, 65, 0
3, 37200, Note_on_c, 1, 62, 93
3, 37392, Note_on_c, 1, 62, 0
3, 37440, Note_on_c, 1, 64, 98
3, 37824, Note_on_c, 1, 64, 0
3, 37920, Note_on_c, 1, 64, 101
3, 38380, Note_on_c, 1, 64, 0
3, 38880, Note_on_c, 1, 65, 101
3, 39264, Note_on_c, 1, 65, 0
3, 39360, Note_on_c, 1, 65, 95
3, 40128, Note_on_c, 1, 65, 0
3, 40320, Note_on_c, 1, 62, 87
3, 40512, Note_on_c, 1, 62, 0
3, 40560, Note_on_c, 1, 65, 100
3, 40944, Note_on_c, 1, 65, 0
3, 41040, Note_on_c, 1, 62, 90
3, 41232, Note_on_c, 1, 62, 0
3, 41280, Note_on_c, 1, 64, 104
3, 41664, Note_on_c, 1, 64, 0
3, 41760, Note_on_c, 1, 64, 111
3, 42144, Note_on_c, 1, 64, 0
3, 42240, Note_on_c, 1, 65, 100
3, 43008, Note_on_c, 1, 65, 0
3, 43200, Note_on_c, 1, 60, 108
3, 44140, Note_on_c, 1, 60, 0
3, 44640, Note_on_c, 1, 62, 100
3, 44832, Note_on_c, 1, 62, 0
3, 44880, Note_on_c, 1, 65, 105
3, 45072, Note_on_c, 1, 65, 0
3, 45120, Note_on_c, 1, 64, 91
3, 45696, Note_on_c, 1, 64, 0
3, 45840, Note_on_c, 1, 60, 110
3, 47028, Note_on_c, 1, 60, 0
3, 47048, Note_on_c, 1, 61, 111
3, 47988, Note_on_c, 1, 61, 0
3, 48008, Note_on_c, 1, 60, 101
3, 49008, Note_on_c, 1, 60, 0
3, 56160, Note_on_c, 1, 67, 102
3, 56928, Note_on_c, 1, 67, 0
3, 57120, Note_on_c, 1, 67, 96
3, 57312, Note_on_c, 1, 67, 0
3, 57360, Note_on_c, 1, 67, 98
3, 57552, Note_on_c, 1, 67, 0
3, 57600, Note_on_c, 1, 69, 103
3, 57984, Note_on_c, 1, 69, 0
3, 58080, Note_on_c, 1, 69, 103
3, 58272, Note_on_c, 1, 69, 0
3, 58320, Note_on_c, 1, 69, 99
3, 58704, Note_on_c, 1, 69, 0
3, 58800, Note_on_c, 1, 69, 85
3, 59184, Note_on_c, 1, 69, 0
3, 59280, Note_on_c, 1, 69, 100
3, 59472, Note_on_c, 1, 69, 0
3, 59520, Note_on_c, 1, 65, 100
3, 59904, Note_on_c, 1, 65, 0
3, 60000, Note_on_c, 1, 65, 93
3, 60384, Note_on_c, 1, 65, 0
3, 60480, Note_on_c, 1, 67, 91
3, 61420, Note_on_c, 1, 67, 0
3, 61680, Note_on_c, 1, 69, 88
3, 62256, Note_on_c, 1, 69, 0
3, 62400, Note_on_c, 1, 65, 100
3, 62784, Note_on_c, 1, 65, 0
3, 62880, Note_on_c, 1, 65, 97
3, 63264, Note_on_c, 1, 65, 0
3, 63360, Note_on_c, 1, 62, 89
3, 63744, Note_on_c, 1, 62, 0
3, 63840, Note_on_c, 1, 62, 101
3, 64224, Note_on_c, 1, 62, 0
3, 64320, Note_on_c, 1, 64, 106
3, 64704, Note_on_c, 1, 64, 0
3, 64800, Note_on_c, 1, 64, 106
3, 65260, Note_on_c, 1, 64, 0
3, 65520, Note_on_c, 1, 65, 88
3, 66096, Note_on_c, 1, 65, 0
3, 66240, Note_on_c, 1, 60, 106
3, 67180, Note_on_c, 1, 60, 0
3, 67440, Note_on_c, 1, 65, 95
3, 67632, Note_on_c, 1, 65, 0
3, 67680, Note_on_c, 1, 62, 106
3, 67872, Note_on_c, 1, 62, 0
3, 67920, Note_on_c, 1, 64, 100
3, 68688, Note_on_c, 1, 64, 0
3, 68880, Note_on_c, 1, 64, 97
3, 69072, Note_on_c, 1, 64, 0
3, 69120, Note_on_c, 1, 65, 101
3, 69312, Note_on_c, 1, 65, 0
3, 69360, Note_on_c, 1, 64, 108
3, 69552, Note_on_c, 1, 64, 0
3, 69600, Note_on_c, 1, 60, 100
3, 70068, Note_on_c, 1, 60, 0
3, 70088, Note_on_c, 1, 59, 90
3, 71020, Note_on_c, 1, 59, 0
3, 71520, Note_on_c, 1, 67, 99
3, 72288, Note_on_c, 1, 67, 0
3, 72480, Note_on_c, 1, 64, 100
3, 72672, Note_on_c, 1, 64, 0
3, 72720, Note_on_c, 1, 64, 103
3, 72912, Note_on_c, 1, 64, 0
3, 72960, Note_on_c, 1, 65, 100
3, 73344, Note_on_c, 1, 65, 0
3, 73440, Note_on_c, 1, 65, 105
3, 73632, Note_on_c, 1, 65, 0
3, 73680, Note_on_c, 1, 65, 105
3, 74256, Note_on_c, 1, 65, 0
3, 74400, Note_on_c, 1, 65, 97
3, 74592, Note_on_c, 1, 65, 0
3, 74640, Note_on_c, 1, 62, 100
3, 75024, Note_on_c, 1, 62, 0
3, 75120, Note_on_c, 1, 65, 105
3, 75312, Note_on_c, 1, 65, 0
3, 75360, Note_on_c, 1, 62, 92
3, 75744, Note_on_c, 1, 62, 0
3, 75840, Note_on_c, 1, 64, 96
3, 76300, Note_on_c, 1, 64, 0
3, 76800, Note_on_c, 1, 65, 100
3, 77376, Note_on_c, 1, 65, 0
3, 77520, Note_on_c, 1, 65, 109
3, 78096, Note_on_c, 1, 65, 0
3, 78240, Note_on_c, 1, 65, 100
3, 78624, Note_on_c, 1, 65, 0
3, 78720, Note_on_c, 1, 62, 91
3, 79104, Note_on_c, 1, 62, 0
3, 79200, Note_on_c, 1, 62, 99
3, 79392, Note_on_c, 1, 62, 0
3, 79440, Note_on_c, 1, 64, 100
3, 80016, Note_on_c, 1, 64, 0
3, 80160, Note_on_c, 1, 64, 99
3, 80544, Note_on_c, 1, 64, 0
3, 80640, Note_on_c, 1, 65, 92
3, 81408, Note_on_c, 1, 65, 0
3, 81600, Note_on_c, 1, 60, 104
3, 82540, Note_on_c, 1, 60, 0
3, 83040, Note_on_c, 1, 62, 101
3, 83232, Note_on_c, 1, 62, 0
3, 83280, Note_on_c, 1, 65, 98
3, 83472, Note_on_c, 1, 65, 0
3, 83520, Note_on_c, 1, 64, 97
3, 84096, Note_on_c, 1, 64, 0
3, 84240, Note_on_c, 1, 62, 95
3, 84432, Note_on_c, 1, 62, 0
3, 84480, Note_on_c, 1, 65, 97
3, 84672, Note_on_c, 1, 65, 0
3, 84720, Note_on_c, 1, 64, 101
3, 84912, Note_on_c, 1, 64, 0
3, 84960, Note_on_c, 1, 60, 104
3, 85428, Note_on_c, 1, 60, 0
3, 85448, Note_on_c, 1, 59, 102
3, 86380, Note_on_c, 1, 59, 0
3, 86880, Note_on_c, 1, 67, 100
3, 87648, Note_on_c, 1, 67, 0
3, 87840, Note_on_c, 1, 64, 100
3, 88032, Note_on_c, 1, 64, 0
3, 88320, Note_on_c, 1, 65, 100
3, 88704, Note_on_c, 1, 65, 0
3, 88800, Note_on_c, 1, 64, 101
3, 88992, Note_on_c, 1, 64, 0
3, 89040, Note_on_c, 1, 60, 100
3, 89424, Note_on_c, 1, 60, 0
3, 89520, Note_on_c, 1, 60, 103
3, 89904, Note_on_c, 1, 60, 0
3, 90000, Note_on_c, 1, 60, 102
3, 90192, Note_on_c, 1, 60, 0
3, 90240, Note_on_c, 1, 62, 106
3, 90624, Note_on_c, 1, 62, 0
3, 90720, Note_on_c, 1, 62, 108
3, 91104, Note_on_c, 1, 62, 0
3, 91200, Note_on_c, 1, 60, 101
3, 91968, Note_on_c, 1, 60, 0
3, 92160, Note_on_c, 1, 60, 100
3, 92544, Note_on_c, 1, 60, 0
3, 92640, Note_on_c, 1, 60, 104
3, 92832, Note_on_c, 1, 60, 0
3, 92880, Note_on_c, 1, 60, 95
3, 94032, Note_on_c, 1, 60, 0
3, 94320, Note_on_c, 1, 65, 100
3, 94704, Note_on_c, 1, 65, 0
3, 94800, Note_on_c, 1, 62, 114
3, 94992, Note_on_c, 1, 62, 0
3, 95040, Note_on_c, 1, 64, 108
3, 95232, Note_on_c, 1, 64, 0
3, 95280, Note_on_c, 1, 64, 98
3, 95472, Note_on_c, 1, 64, 0
3, 95520, Note_on_c, 1, 60, 100
3, 95904, Note_on_c, 1, 60, 0
3, 96000, Note_on_c, 1, 65, 99
3, 96384, Note_on_c, 1, 65, 0
3, 96480, Note_on_c, 1, 64, 93
3, 96672, Note_on_c, 1, 64, 0
3, 96720, Note_on_c, 1, 65, 102
3, 97104, Note_on_c, 1, 65, 0
3, 97200, Note_on_c, 1, 62, 97
3, 97392, Note_on_c, 1, 62, 0
3, 97440, Note_on_c, 1, 60, 100
3, 97900, Note_on_c, 1, 60, 0
3, 98160, Note_on_c, 1, 65, 89
3, 98352, Note_on_c, 1, 65, 0
3, 98400, Note_on_c, 1, 62, 89
3, 98868, Note_on_c, 1, 62, 0
3, 98888, Note_on_c, 1, 61, 100
3, 99360, Note_on_c, 1, 61, 0
3, 99600, Note_on_c, 1, 60, 100
3, 99792, Note_on_c, 1, 60, 0
3, 99840, Note_on_c, 1, 60, 85
3, 100308, Note_on_c, 1, 60, 0
3, 100328, Note_on_c, 1, 61, 111
3, 100788, Note_on_c, 1, 61, 0
3, 100808, Note_on_c, 1, 60, 91
3, 101376, Note_on_c, 1, 60, 0
3, 101760, Note_on_c, 1, 69, 100
3, 101952, Note_on_c, 1, 69, 0
3, 102000, Note_on_c, 1, 69, 94
3, 102192, Note_on_c, 1, 69, 0
3, 102240, Note_on_c, 1, 69, 88
3, 102432, Note_on_c, 1, 69, 0
3, 102480, Note_on_c, 1, 69, 105
3, 102672, Note_on_c, 1, 69, 0
3, 102720, Note_on_c, 1, 69, 104
3, 102912, Note_on_c, 1, 69, 0
3, 102960, Note_on_c, 1, 69, 99
3, 103152, Note_on_c, 1, 69, 0
3, 103200, Note_on_c, 1, 69, 85
3, 103392, Note_on_c, 1, 69, 0
3, 103440, Note_on_c, 1, 69, 98
3, 103632, Note_on_c, 1, 69, 0
3, 103680, Note_on_c, 1, 65, 102
3, 103872, Note_on_c, 1, 65, 0
3, 103920, Note_on_c, 1, 67, 114
3, 104112, Note_on_c, 1, 67, 0
3, 104160, Note_on_c, 1, 65, 113
3, 104352, Note_on_c, 1, 65, 0
3, 104400, Note_on_c, 1, 67, 96
3, 105100, Note_on_c, 1, 67, 0
3, 105600, Note_on_c, 1, 69, 113
3, 105792, Note_on_c, 1, 69, 0
3, 105840, Note_on_c, 1, 69, 100
3, 106032, Note_on_c, 1, 69, 0
3, 106080, Note_on_c, 1, 69, 94
3, 106272, Note_on_c, 1, 69, 0
3, 106320, Note_on_c, 1, 69, 104
3, 106512, Note_on_c, 1, 69, 0
3, 106560, Note_on_c, 1, 69, 100
3, 106752, Note_on_c, 1, 69, 0
3, 106800, Note_on_c, 1, 69, 101
3, 106992, Note_on_c, 1, 69, 0
3, 107040, Note_on_c, 1, 69, 102
3, 107232, Note_on_c, 1, 69, 0
3, 107280, Note_on_c, 1, 69, 102
3, 107472, Note_on_c, 1, 69, 0
3, 107520, Note_on_c, 1, 65, 99
3, 107712, Note_on_c, 1, 65, 0
3, 107760, Note_on_c, 1, 67, 109
3, 107952, Note_on_c, 1, 67, 0
3, 108000, Note_on_c, 1, 65, 102
3, 108192, Note_on_c, 1, 65, 0
3, 108240, Note_on_c, 1, 67, 114
3, 108940, Note_on_c, 1, 67, 0
3, 109440, Note_on_c, 1, 69, 104
3, 109632, Note_on_c, 1, 69, 0
3, 109680, Note_on_c, 1, 69, 100
3, 109872, Note_on_c, 1, 69, 0
3, 109920, Note_on_c, 1, 69, 96
3, 110112, Note_on_c, 1, 69, 0
3, 110160, Note_on_c, 1, 69, 104
3, 110352, Note_on_c, 1, 69, 0
3, 110400, Note_on_c, 1, 69, 98
3, 110592, Note_on_c, 1, 69, 0
3, 110640, Note_on_c, 1, 69, 90
3, 110832, Note_on_c, 1, 69, 0
3, 110880, Note_on_c, 1, 69, 94
3, 111072, Note_on_c, 1, 69, 0
3, 111120, Note_on_c, 1, 69, 100
3, 111312, Note_on_c, 1, 69, 0
3, 111360, Note_on_c, 1, 65, 95
3, 111552, Note_on_c, 1, 65, 0
3, 111600, Note_on_c, 1, 67, 99
3, 111792, Note_on_c, 1, 67, 0
3, 111840, Note_on_c, 1, 65, 102
3, 112032, Note_on_c, 1, 65, 0
3, 112080, Note_on_c, 1, 64, 110
3, 112656, Note_on_c, 1, 64, 0
3, 112800, Note_on_c, 1, 64, 110
3, 112992, Note_on_c, 1, 64, 0
3, 113040, Note_on_c, 1, 60, 97
3, 114228, Note_on_c, 1, 60, 0
3, 114248, Note_on_c, 1, 61, 103
3, 115188, Note_on_c, 1, 61, 0
3, 115208, Note_on_c, 1, 60, 101
3, 116592, Note_on_c, 1, 60, 0
3, 116592, End_track
4, 0, Start_track
4, 0, Title_t, "Piano"
4, 0, Program_c, 2, 1
4, 0, Control_c, 2, 7, 127
4, 0, Control_c, 2, 10, 32
4, 0, Control_c, 2, 121, 0
4, 40, Control_c, 2, 123, 0
4, 80, Control_c, 2, 93, 85
4, 120, Control_c, 2, 91, 65
4, 160, Control_c, 2, 64, 0
4, 49920, Note_on_c, 2, 60, 123
4, 50112, Note_on_c, 2, 60, 0
4, 50160, Note_on_c, 2, 60, 102
4, 50352, Note_on_c, 2, 60, 0
4, 50400, Note_on_c, 2, 60, 108
4, 50592, Note_on_c, 2, 60, 0
4, 50640, Note_on_c, 2, 60, 108
4, 50832, Note_on_c, 2, 60, 0
4, 50880, Note_on_c, 2, 64, 116
4, 51072, Note_on_c, 2, 64, 0
4, 51120, Note_on_c, 2, 64, 113
4, 51312, Note_on_c, 2, 64, 0
4, 51360, Note_on_c, 2, 64, 110
4, 51552, Note_on_c, 2, 64, 0
4, 51600, Note_on_c, 2, 64, 105
4, 51792, Note_on_c, 2, 64, 0
4, 51840, Note_on_c, 2, 67, 114
4, 52032, Note_on_c, 2, 67, 0
4, 52080, Note_on_c, 2, 67, 97
4, 52272, Note_on_c, 2, 67, 0
4, 52320, Note_on_c, 2, 67, 114
4, 52512, Note_on_c, 2, 67, 0
4, 52560, Note_on_c, 2, 67, 123
4, 52752, Note_on_c, 2, 67, 0
4, 52800, Note_on_c, 2, 70, 110
4, 52992, Note_on_c, 2, 70, 0
4, 53040, Note_on_c, 2, 70, 99
4, 53232, Note_on_c, 2, 70, 0
4, 53280, Note_on_c, 2, 70, 119
4, 53472, Note_on_c, 2, 70, 0
4, 53520, Note_on_c, 2, 70, 106
4, 53712, Note_on_c, 2, 70, 0
4, 53760, Note_on_c, 2, 70, 117
4, 53952, Note_on_c, 2, 70, 0
4, 54000, Note_on_c, 2, 70, 101
4, 54192, Note_on_c, 2, 70, 0
4, 54240, Note_on_c, 2, 70, 110
4, 54432, Note_on_c, 2, 70, 0
4, 54480, Note_on_c, 2, 70, 101
4, 54672, Note_on_c, 2, 70, 0
4, 54720, Note_on_c, 2, 70, 107
4, 54912, Note_on_c, 2, 70, 0
4, 54960, Note_on_c, 2, 70, 109
4, 55152, Note_on_c, 2, 70, 0
4, 55200, Note_on_c, 2, 70, 113
4, 55392, Note_on_c, 2, 70, 0
4, 55440, Note_on_c, 2, 70, 101
4, 55660, Note_on_c, 2, 70, 0
4, 117120, Note_on_c, 2, 60, 121
4, 117312, Note_on_c, 2, 60, 0
4, 117360, Note_on_c, 2, 60, 107
4, 117552, Note_on_c, 2, 60, 0
4, 117600, Note_on_c, 2, 60, 116
4, 117792, Note_on_c, 2, 60, 0
4, 117840, Note_on_c, 2, 60, 110
4, 118032, Note_on_c, 2, 60, 0
4, 118080, Note_on_c, 2, 64, 106
4, 118272, Note_on_c, 2, 64, 0
4, 118320, Note_on_c, 2, 64, 109
4, 118512, Note_on_c, 2, 64, 0
4, 118560, Note_on_c, 2, 64, 110
4, 118752, Note_on_c, 2, 64, 0
4, 118800, Note_on_c, 2, 64, 116
4, 118992, Note_on_c, 2, 64, 0
4, 119040, Note_on_c, 2, 67, 106
4, 119232, Note_on_c, 2, 67, 0
4, 119280, Note_on_c, 2, 67, 119
4, 119472, Note_on_c, 2, 67, 0
4, 119520, Note_on_c, 2, 67, 108
4, 119712, Note_on_c, 2, 67, 0
4, 119760, Note_on_c, 2, 67, 115
4, 119952, Note_on_c, 2, 67, 0
4, 120000, Note_on_c, 2, 70, 95
4, 120192, Note_on_c, 2, 70, 0
4, 120240, Note_on_c, 2, 70, 101
4, 120432, Note_on_c, 2, 70, 0
4, 120480, Note_on_c, 2, 70, 111
4, 120672, Note_on_c, 2, 70, 0
4, 120720, Note_on_c, 2, 70, 118
4, 120912, Note_on_c, 2, 70, 0
4, 120960, Note_on_c, 2, 70, 112
4, 121152, Note_on_c, 2, 70, 0
4, 121200, Note_on_c, 2, 70, 124
4, 121392, Note_on_c, 2, 70, 0
4, 121440, Note_on_c, 2, 70, 112
4, 121632, Note_on_c, 2, 70, 0
4, 121680, Note_on_c, 2, 70, 110
4, 121872, Note_on_c, 2, 70, 0
4, 121920, Note_on_c, 2, 70, 104
4, 122112, Note_on_c, 2, 70, 0
4, 122160, Note_on_c, 2, 70, 105
4, 122352, Note_on_c, 2, 70, 0
4, 122400, Note_on_c, 2, 70, 108
4, 122592, Note_on_c, 2, 70, 0
4, 122640, Note_on_c, 2, 70, 111
4, 122832, Note_on_c, 2, 70, 0
4, 122880, Note_on_c, 2, 72, 102
4, 123340, Note_on_c, 2, 72, 0
4, 123340, End_track
5, 0, Start_track
5, 0, Title_t, "Piano"
5, 0, Program_c, 3, 1
5, 0, Control_c, 3, 7, 116
5, 0, Control_c, 3, 10, 16
5, 0, Control_c, 3, 121, 0
5, 40, Control_c, 3, 123, 0
5, 80, Control_c, 3, 93, 85
5, 120, Control_c, 3, 91, 65
5, 160, Control_c, 3, 64, 0
5, 49920, Note_on_c, 3, 64, 77
5, 50112, Note_on_c, 3, 64, 0
5, 50160, Note_on_c, 3, 64, 82
5, 50352, Note_on_c, 3, 64, 0
5, 50400, Note_on_c, 3, 64, 91
5, 50592, Note_on_c, 3, 64, 0
5, 50640, Note_on_c, 3, 64, 93
5, 50832, Note_on_c, 3, 64, 0
5, 50880, Note_on_c, 3, 70, 92
5, 51072, Note_on_c, 3, 70, 0
5, 51120, Note_on_c, 3, 70, 97
5, 51312, Note_on_c, 3, 70, 0
5, 51360, Note_on_c, 3, 70, 91
5, 51552, Note_on_c, 3, 70, 0
5, 51600, Note_on_c, 3, 70, 104
5, 51792, Note_on_c, 3, 70, 0
5, 51840, Note_on_c, 3, 70, 91
5, 52032, Note_on_c, 3, 70, 0
5, 52080, Note_on_c, 3, 70, 79
5, 52272, Note_on_c, 3, 70, 0
5, 52320, Note_on_c, 3, 70, 86
5, 52512, Note_on_c, 3, 70, 0
5, 52560, Note_on_c, 3, 70, 103
5, 52752, Note_on_c, 3, 70, 0
5, 52800, Note_on_c, 3, 76, 94
5, 52992, Note_on_c, 3, 76, 0
5, 53040, Note_on_c, 3, 76, 91
5, 53232, Note_on_c, 3, 76, 0
5, 53280, Note_on_c, 3, 76, 96
5, 53472, Note_on_c, 3, 76, 0
5, 53520, Note_on_c, 3, 76, 90
5, 53712, Note_on_c, 3, 76, 0
5, 53760, Note_on_c, 3, 76, 90
5, 53952, Note_on_c, 3, 76, 0
5, 54000, Note_on_c, 3, 76, 90
5, 54192, Note_on_c, 3, 76, 0
5, 54240, Note_on_c, 3, 76, 104
5, 54432, Note_on_c, 3, 76, 0
5, 54480, Note_on_c, 3, 76, 88
5, 54672, Note_on_c, 3, 76, 0
5, 54720, Note_on_c, 3, 76, 93
5, 54912, Note_on_c, 3, 76, 0
5, 54960, Note_on_c, 3, 76, 95
5, 55152, Note_on_c, 3, 76, 0
5, 55200, Note_on_c, 3, 76, 90
5, 55392, Note_on_c, 3, 76, 0
5, 55440, Note_on_c, 3, 76, 98
5, 55660, Note_on_c, 3, 76, 0
5, 117120, Note_on_c, 3, 64, 98
5, 117312, Note_on_c, 3, 64, 0
5, 117360, Note_on_c, 3, 64, 90
5, 117552, Note_on_c, 3, 64, 0
5, 117600, Note_on_c, 3, 64, 99
5, 117792, Note_on_c, 3, 64, 0
5, 117840, Note_on_c, 3, 64, 89
5, 118032, Note_on_c, 3, 64, 0
5, 118080, Note_on_c, 3, 70, 100
5, 118272, Note_on_c, 3, 70, 0
5, 118320, Note_on_c, 3, 70, 92
5, 118512, Note_on_c, 3, 70, 0
5, 118560, Note_on_c, 3, 70, 90
5, 118752, Note_on_c, 3, 70, 0
5, 118800, Note_on_c, 3, 70, 90
5, 118992, Note_on_c, 3, 70, 0
5, 119040, Note_on_c, 3, 70, 91
5, 119232, Note_on_c, 3, 70, 0
5, 119280, Note_on_c, 3, 70, 101
5, 119472, Note_on_c, 3, 70, 0
5, 119520, Note_on_c, 3, 70, 93
5, 119712, Note_on_c, 3, 70, 0
5, 119760, Note_on_c, 3, 70, 101
5, 119952, Note_on_c, 3, 70, 0
5, 120000, Note_on_c, 3, 76, 80
5, 120192, Note_on_c, 3, 76, 0
5, 120240, Note_on_c, 3, 76, 90
5, 120432, Note_on_c, 3, 76, 0
5, 120480, Note_on_c, 3, 76, 93
5, 120672, Note_on_c, 3, 76, 0
5, 120720, Note_on_c, 3, 76, 81
5, 120912, Note_on_c, 3, 76, 0
5, 120960, Note_on_c, 3, 76, 91
5, 121152, Note_on_c, 3, 76, 0
5, 121200, Note_on_c, 3, 76, 86
5, 121392, Note_on_c, 3, 76, 0
5, 121440, Note_on_c, 3, 76, 89
5, 121632, Note_on_c, 3, 76, 0
5, 121680, Note_on_c, 3, 76, 87
5, 121872, Note_on_c, 3, 76, 0
5, 121920, Note_on_c, 3, 76, 90
5, 122112, Note_on_c, 3, 76, 0
5, 122160, Note_on_c, 3, 76, 80
5, 122352, Note_on_c, 3, 76, 0
5, 122400, Note_on_c, 3, 76, 90
5, 122592, Note_on_c, 3, 76, 0
5, 122640, Note_on_c, 3, 76, 90
5, 122832, Note_on_c, 3, 76, 0
5, 122880, Note_on_c, 3, 76, 89
5, 123340, Note_on_c, 3, 76, 0
5, 123340, End_track
6, 0, Start_track
6, 0, Title_t, "Piano   "
6, 0, Program_c, 4, 4
6, 0, Control_c, 4, 7, 90
6, 0, Control_c, 4, 10, 112
6, 0, Control_c, 4, 121, 0
6, 40, Control_c, 4, 123, 0
6, 80, Control_c, 4, 93, 85
6, 120, Control_c, 4, 91, 65
6, 160, Control_c, 4, 64, 0
6, 3840, Note_on_c, 4, 65, 50
6, 3840, Note_on_c, 4, 60, 50
6, 3840, Note_on_c, 4, 57, 50
6, 4712, Note_on_c, 4, 57, 0
6, 4712, Note_on_c, 4, 60, 0
6, 4712, Note_on_c, 4, 65, 0
6, 4800, Note_on_c, 4, 65, 50
6, 4800, Note_on_c, 4, 62, 50
6, 4800, Note_on_c, 4, 60, 50
6, 4800, Note_on_c, 4, 69, 50
6, 5672, Note_on_c, 4, 69, 0
6, 5672, Note_on_c, 4, 65, 0
6, 5672, Note_on_c, 4, 62, 0
6, 5672, Note_on_c, 4, 60, 0
6, 6000, Note_on_c, 4, 65, 50
6, 6000, Note_on_c, 4, 62, 50
6, 6000, Note_on_c, 4, 58, 50
6, 6000, Note_on_c, 4, 67, 50
6, 6520, Note_on_c, 4, 67, 0
6, 6520, Note_on_c, 4, 65, 0
6, 6520, Note_on_c, 4, 62, 0
6, 6520, Note_on_c, 4, 58, 0
6, 6720, Note_on_c, 4, 64, 50
6, 6720, Note_on_c, 4, 61, 50
6, 6720, Note_on_c, 4, 58, 50
6, 6720, Note_on_c, 4, 67, 50
6, 7592, Note_on_c, 4, 67, 0
6, 7592, Note_on_c, 4, 64, 0
6, 7592, Note_on_c, 4, 61, 0
6, 7592, Note_on_c, 4, 58, 0
6, 7680, Note_on_c, 4, 65, 50
6, 7680, Note_on_c, 4, 60, 50
6, 7680, Note_on_c, 4, 57, 50
6, 8552, Note_on_c, 4, 57, 0
6, 8552, Note_on_c, 4, 60, 0
6, 8552, Note_on_c, 4, 65, 0
6, 8640, Note_on_c, 4, 65, 50
6, 8640, Note_on_c, 4, 62, 50
6, 8640, Note_on_c, 4, 60, 50
6, 8640, Note_on_c, 4, 69, 50
6, 9512, Note_on_c, 4, 69, 0
6, 9512, Note_on_c, 4, 65, 0
6, 9512, Note_on_c, 4, 62, 0
6, 9512, Note_on_c, 4, 60, 0
6, 9840, Note_on_c, 4, 70, 50
6, 9840, Note_on_c, 4, 67, 50
6, 9840, Note_on_c, 4, 65, 50
6, 9840, Note_on_c, 4, 74, 50
6, 10360, Note_on_c, 4, 74, 0
6, 10360, Note_on_c, 4, 70, 0
6, 10360, Note_on_c, 4, 67, 0
6, 10360, Note_on_c, 4, 65, 0
6, 10800, Note_on_c, 4, 64, 50
6, 10800, Note_on_c, 4, 61, 50
6, 10800, Note_on_c, 4, 58, 50
6, 10800, Note_on_c, 4, 67, 50
6, 11320, Note_on_c, 4, 67, 0
6, 11320, Note_on_c, 4, 64, 0
6, 11320, Note_on_c, 4, 61, 0
6, 11320, Note_on_c, 4, 58, 0
6, 11520, Note_on_c, 4, 65, 50
6, 11520, Note_on_c, 4, 60, 50
6, 11520, Note_on_c, 4, 57, 50
6, 12392, Note_on_c, 4, 57, 0
6, 12392, Note_on_c, 4, 60, 0
6, 12392, Note_on_c, 4, 65, 0
6, 12480, Note_on_c, 4, 65, 50
6, 12480, Note_on_c, 4, 62, 50
6, 12480, Note_on_c, 4, 60, 50
6, 12480, Note_on_c, 4, 69, 50
6, 13352, Note_on_c, 4, 69, 0
6, 13352, Note_on_c, 4, 65, 0
6, 13352, Note_on_c, 4, 62, 0
6, 13352, Note_on_c, 4, 60, 0
6, 13440, Note_on_c, 4, 65, 50
6, 13440, Note_on_c, 4, 62, 50
6, 13440, Note_on_c, 4, 58, 50
6, 13440, Note_on_c, 4, 67, 50
6, 14312, Note_on_c, 4, 67, 0
6, 14312, Note_on_c, 4, 65, 0
6, 14312, Note_on_c, 4, 62, 0
6, 14312, Note_on_c, 4, 58, 0
6, 14640, Note_on_c, 4, 64, 50
6, 14640, Note_on_c, 4, 61, 50
6, 14640, Note_on_c, 4, 58, 50
6, 14640, Note_on_c, 4, 67, 50
6, 15160, Note_on_c, 4, 67, 0
6, 15160, Note_on_c, 4, 64, 0
6, 15160, Note_on_c, 4, 61, 0
6, 15160, Note_on_c, 4, 58, 0
6, 15360, Note_on_c, 4, 65, 50
6, 15360, Note_on_c, 4, 60, 50
6, 15360, Note_on_c, 4, 57, 50
6, 16232, Note_on_c, 4, 57, 0
6, 16232, Note_on_c, 4, 60, 0
6, 16232, Note_on_c, 4, 65, 0
6, 16320, Note_on_c, 4, 65, 50
6, 16320, Note_on_c, 4, 63, 50
6, 16320, Note_on_c, 4, 59, 50
6, 16320, Note_on_c, 4, 68, 50
6, 17192, Note_on_c, 4, 68, 0
6, 17192, Note_on_c, 4, 65, 0
6, 17192, Note_on_c, 4, 63, 0
6, 17192, Note_on_c, 4, 59, 0
6, 17280, Note_on_c, 4, 64, 54
6, 17280, Note_on_c, 4, 60, 54
6, 17280, Note_on_c, 4, 58, 54
6, 17280, Note_on_c, 4, 67, 54
6, 18240, Note_on_c, 4, 60, 43
6, 18480, Note_on_c, 4, 60, 0
6, 18480, Note_on_c, 4, 64, 39
6, 18508, Note_on_c, 4, 67, 0
6, 18508, Note_on_c, 4, 60, 0
6, 18508, Note_on_c, 4, 64, 0
6, 18508, Note_on_c, 4, 58, 0
6, 18720, Note_on_c, 4, 67, 49
6, 18728, Note_on_c, 4, 64, 0
6, 18956, Note_on_c, 4, 67, 0
6, 18960, Note_on_c, 4, 72, 69
6, 19044, Note_on_c, 4, 72, 0
6, 19200, Note_on_c, 4, 65, 50
6, 19200, Note_on_c, 4, 60, 50
6, 19200, Note_on_c, 4, 57, 50
6, 20072, Note_on_c, 4, 57, 0
6, 20072, Note_on_c, 4, 60, 0
6, 20072, Note_on_c, 4, 65, 0
6, 20160, Note_on_c, 4, 65, 50
6, 20160, Note_on_c, 4, 62, 50
6, 20160, Note_on_c, 4, 60, 50
6, 20160, Note_on_c, 4, 69, 50
6, 21032, Note_on_c, 4, 69, 0
6, 21032, Note_on_c, 4, 65, 0
6, 21032, Note_on_c, 4, 62, 0
6, 21032, Note_on_c, 4, 60, 0
6, 21360, Note_on_c, 4, 67, 50
6, 21360, Note_on_c, 4, 65, 50
6, 21360, Note_on_c, 4, 62, 50
6, 21360, Note_on_c, 4, 70, 50
6, 21880, Note_on_c, 4, 70, 0
6, 21880, Note_on_c, 4, 67, 0
6, 21880, Note_on_c, 4, 65, 0
6, 21880, Note_on_c, 4, 62, 0
6, 22320, Note_on_c, 4, 64, 50
6, 22320, Note_on_c, 4, 61, 50
6, 22320, Note_on_c, 4, 58, 50
6, 22320, Note_on_c, 4, 67, 50
6, 22840, Note_on_c, 4, 67, 0
6, 22840, Note_on_c, 4, 64, 0
6, 22840, Note_on_c, 4, 61, 0
6, 22840, Note_on_c, 4, 58, 0
6, 23040, Note_on_c, 4, 65, 50
6, 23040, Note_on_c, 4, 60, 50
6, 23040, Note_on_c, 4, 57, 50
6, 23912, Note_on_c, 4, 57, 0
6, 23912, Note_on_c, 4, 60, 0
6, 23912, Note_on_c, 4, 65, 0
6, 24240, Note_on_c, 4, 65, 50
6, 24240, Note_on_c, 4, 62, 50
6, 24240, Note_on_c, 4, 60, 50
6, 24240, Note_on_c, 4, 69, 50
6, 24760, Note_on_c, 4, 69, 0
6, 24760, Note_on_c, 4, 65, 0
6, 24760, Note_on_c, 4, 62, 0
6, 24760, Note_on_c, 4, 60, 0
6, 25200, Note_on_c, 4, 65, 50
6, 25200, Note_on_c, 4, 62, 50
6, 25200, Note_on_c, 4, 58, 50
6, 25200, Note_on_c, 4, 67, 50
6, 25720, Note_on_c, 4, 67, 0
6, 25720, Note_on_c, 4, 65, 0
6, 25720, Note_on_c, 4, 62, 0
6, 25720, Note_on_c, 4, 58, 0
6, 25920, Note_on_c, 4, 64, 50
6, 25920, Note_on_c, 4, 61, 50
6, 25920, Note_on_c, 4, 58, 50
6, 25920, Note_on_c, 4, 67, 50
6, 26792, Note_on_c, 4, 67, 0
6, 26792, Note_on_c, 4, 64, 0
6, 26792, Note_on_c, 4, 61, 0
6, 26792, Note_on_c, 4, 58, 0
6, 26880, Note_on_c, 4, 65, 50
6, 26880, Note_on_c, 4, 60, 50
6, 26880, Note_on_c, 4, 57, 50
6, 27752, Note_on_c, 4, 57, 0
6, 27752, Note_on_c, 4, 60, 0
6, 27752, Note_on_c, 4, 65, 0
6, 27840, Note_on_c, 4, 65, 50
6, 27840, Note_on_c, 4, 62, 50
6, 27840, Note_on_c, 4, 60, 50
6, 27840, Note_on_c, 4, 69, 50
6, 28712, Note_on_c, 4, 69, 0
6, 28712, Note_on_c, 4, 65, 0
6, 28712, Note_on_c, 4, 62, 0
6, 28712, Note_on_c, 4, 60, 0
6, 29040, Note_on_c, 4, 65, 50
6, 29040, Note_on_c, 4, 62, 50
6, 29040, Note_on_c, 4, 58, 50
6, 29040, Note_on_c, 4, 67, 50
6, 29560, Note_on_c, 4, 67, 0
6, 29560, Note_on_c, 4, 65, 0
6, 29560, Note_on_c, 4, 62, 0
6, 29560, Note_on_c, 4, 58, 0
6, 29760, Note_on_c, 4, 64, 50
6, 29760, Note_on_c, 4, 61, 50
6, 29760, Note_on_c, 4, 58, 50
6, 29760, Note_on_c, 4, 67, 50
6, 30632, Note_on_c, 4, 67, 0
6, 30632, Note_on_c, 4, 64, 0
6, 30632, Note_on_c, 4, 61, 0
6, 30632, Note_on_c, 4, 58, 0
6, 30720, Note_on_c, 4, 65, 50
6, 30720, Note_on_c, 4, 60, 50
6, 30720, Note_on_c, 4, 57, 50
6, 31592, Note_on_c, 4, 57, 0
6, 31592, Note_on_c, 4, 60, 0
6, 31592, Note_on_c, 4, 65, 0
6, 31680, Note_on_c, 4, 65, 50
6, 31680, Note_on_c, 4, 63, 50
6, 31680, Note_on_c, 4, 59, 50
6, 31680, Note_on_c, 4, 68, 50
6, 32552, Note_on_c, 4, 68, 0
6, 32552, Note_on_c, 4, 65, 0
6, 32552, Note_on_c, 4, 63, 0
6, 32552, Note_on_c, 4, 59, 0
6, 32880, Note_on_c, 4, 64, 54
6, 32880, Note_on_c, 4, 60, 54
6, 32880, Note_on_c, 4, 58, 54
6, 32880, Note_on_c, 4, 67, 54
6, 33064, Note_on_c, 4, 67, 0
6, 33064, Note_on_c, 4, 64, 0
6, 33064, Note_on_c, 4, 60, 0
6, 33064, Note_on_c, 4, 58, 0
6, 33360, Note_on_c, 4, 48, 40
6, 33600, Note_on_c, 4, 64, 52
6, 33600, Note_on_c, 4, 60, 52
6, 33600, Note_on_c, 4, 58, 52
6, 33600, Note_on_c, 4, 67, 52
6, 33640, Note_on_c, 4, 48, 0
6, 33880, Note_on_c, 4, 58, 0
6, 33880, Note_on_c, 4, 64, 0
6, 33880, Note_on_c, 4, 60, 0
6, 33880, Note_on_c, 4, 67, 0
6, 34080, Note_on_c, 4, 64, 54
6, 34080, Note_on_c, 4, 60, 54
6, 34080, Note_on_c, 4, 58, 54
6, 34080, Note_on_c, 4, 67, 54
6, 34232, Note_on_c, 4, 67, 0
6, 34232, Note_on_c, 4, 64, 0
6, 34232, Note_on_c, 4, 60, 0
6, 34232, Note_on_c, 4, 58, 0
6, 34560, Note_on_c, 4, 65, 50
6, 34560, Note_on_c, 4, 60, 50
6, 34560, Note_on_c, 4, 57, 50
6, 35432, Note_on_c, 4, 57, 0
6, 35432, Note_on_c, 4, 60, 0
6, 35432, Note_on_c, 4, 65, 0
6, 35520, Note_on_c, 4, 65, 50
6, 35520, Note_on_c, 4, 62, 50
6, 35520, Note_on_c, 4, 60, 50
6, 35520, Note_on_c, 4, 69, 50
6, 36392, Note_on_c, 4, 69, 0
6, 36392, Note_on_c, 4, 65, 0
6, 36392, Note_on_c, 4, 62, 0
6, 36392, Note_on_c, 4, 60, 0
6, 36720, Note_on_c, 4, 65, 50
6, 36720, Note_on_c, 4, 62, 50
6, 36720, Note_on_c, 4, 58, 50
6, 36720, Note_on_c, 4, 67, 50
6, 37240, Note_on_c, 4, 67, 0
6, 37240, Note_on_c, 4, 65, 0
6, 37240, Note_on_c, 4, 62, 0
6, 37240, Note_on_c, 4, 58, 0
6, 37680, Note_on_c, 4, 64, 50
6, 37680, Note_on_c, 4, 61, 50
6, 37680, Note_on_c, 4, 58, 50
6, 37680, Note_on_c, 4, 67, 50
6, 38200, Note_on_c, 4, 67, 0
6, 38200, Note_on_c, 4, 64, 0
6, 38200, Note_on_c, 4, 61, 0
6, 38200, Note_on_c, 4, 58, 0
6, 38400, Note_on_c, 4, 65, 50
6, 38400, Note_on_c, 4, 60, 50
6, 38400, Note_on_c, 4, 57, 50
6, 39272, Note_on_c, 4, 57, 0
6, 39272, Note_on_c, 4, 60, 0
6, 39272, Note_on_c, 4, 65, 0
6, 39360, Note_on_c, 4, 65, 50
6, 39360, Note_on_c, 4, 62, 50
6, 39360, Note_on_c, 4, 60, 50
6, 39360, Note_on_c, 4, 69, 50
6, 40232, Note_on_c, 4, 69, 0
6, 40232, Note_on_c, 4, 65, 0
6, 40232, Note_on_c, 4, 62, 0
6, 40232, Note_on_c, 4, 60, 0
6, 40320, Note_on_c, 4, 65, 50
6, 40320, Note_on_c, 4, 62, 50
6, 40320, Note_on_c, 4, 58, 50
6, 40320, Note_on_c, 4, 67, 50
6, 41192, Note_on_c, 4, 67, 0
6, 41192, Note_on_c, 4, 65, 0
6, 41192, Note_on_c, 4, 62, 0
6, 41192, Note_on_c, 4, 58, 0
6, 41520, Note_on_c, 4, 64, 50
6, 41520, Note_on_c, 4, 61, 50
6, 41520, Note_on_c, 4, 58, 50
6, 41520, Note_on_c, 4, 67, 50
6, 42040, Note_on_c, 4, 67, 0
6, 42040, Note_on_c, 4, 64, 0
6, 42040, Note_on_c, 4, 61, 0
6, 42040, Note_on_c, 4, 58, 0
6, 42240, Note_on_c, 4, 65, 50
6, 42240, Note_on_c, 4, 60, 50
6, 42240, Note_on_c, 4, 57, 50
6, 43112, Note_on_c, 4, 57, 0
6, 43112, Note_on_c, 4, 60, 0
6, 43112, Note_on_c, 4, 65, 0
6, 43440, Note_on_c, 4, 65, 50
6, 43440, Note_on_c, 4, 62, 50
6, 43440, Note_on_c, 4, 60, 50
6, 43440, Note_on_c, 4, 69, 50
6, 43960, Note_on_c, 4, 69, 0
6, 43960, Note_on_c, 4, 65, 0
6, 43960, Note_on_c, 4, 62, 0
6, 43960, Note_on_c, 4, 60, 0
6, 44400, Note_on_c, 4, 65, 50
6, 44400, Note_on_c, 4, 62, 50
6, 44400, Note_on_c, 4, 58, 50
6, 44400, Note_on_c, 4, 67, 50
6, 44920, Note_on_c, 4, 67, 0
6, 44920, Note_on_c, 4, 65, 0
6, 44920, Note_on_c, 4, 62, 0
6, 44920, Note_on_c, 4, 58, 0
6, 45120, Note_on_c, 4, 64, 50
6, 45120, Note_on_c, 4, 61, 50
6, 45120, Note_on_c, 4, 58, 50
6, 45120, Note_on_c, 4, 67, 50
6, 45992, Note_on_c, 4, 67, 0
6, 45992, Note_on_c, 4, 64, 0
6, 45992, Note_on_c, 4, 61, 0
6, 45992, Note_on_c, 4, 58, 0
6, 46080, Note_on_c, 4, 65, 50
6, 46080, Note_on_c, 4, 60, 50
6, 46080, Note_on_c, 4, 57, 50
6, 46952, Note_on_c, 4, 57, 0
6, 46952, Note_on_c, 4, 60, 0
6, 46952, Note_on_c, 4, 65, 0
6, 47040, Note_on_c, 4, 65, 50
6, 47040, Note_on_c, 4, 61, 50
6, 47040, Note_on_c, 4, 58, 50
6, 47040, Note_on_c, 4, 67, 50
6, 47912, Note_on_c, 4, 67, 0
6, 47912, Note_on_c, 4, 65, 0
6, 47912, Note_on_c, 4, 61, 0
6, 47912, Note_on_c, 4, 58, 0
6, 48000, Note_on_c, 4, 65, 49
6, 48000, Note_on_c, 4, 62, 49
6, 48000, Note_on_c, 4, 60, 49
6, 48000, Note_on_c, 4, 69, 49
6, 48720, Note_on_c, 4, 53, 42
6, 48752, Note_on_c, 4, 69, 0
6, 48752, Note_on_c, 4, 60, 0
6, 48752, Note_on_c, 4, 65, 0
6, 48752, Note_on_c, 4, 62, 0
6, 48960, Note_on_c, 4, 65, 47
6, 48960, Note_on_c, 4, 62, 47
6, 48960, Note_on_c, 4, 60, 47
6, 48960, Note_on_c, 4, 69, 47
6, 48988, Note_on_c, 4, 53, 0
6, 49284, Note_on_c, 4, 60, 0
6, 49284, Note_on_c, 4, 65, 0
6, 49284, Note_on_c, 4, 62, 0
6, 49284, Note_on_c, 4, 69, 0
6, 49440, Note_on_c, 4, 65, 62
6, 49440, Note_on_c, 4, 62, 62
6, 49440, Note_on_c, 4, 60, 62
6, 49440, Note_on_c, 4, 69, 62
6, 49604, Note_on_c, 4, 69, 0
6, 49604, Note_on_c, 4, 65, 0
6, 49604, Note_on_c, 4, 62, 0
6, 49604, Note_on_c, 4, 60, 0
6, 49920, Note_on_c, 4, 64, 49
6, 49920, Note_on_c, 4, 60, 49
6, 49920, Note_on_c, 4, 58, 49
6, 49920, Note_on_c, 4, 67, 49
6, 50640, Note_on_c, 4, 48, 42
6, 50672, Note_on_c, 4, 67, 0
6, 50672, Note_on_c, 4, 58, 0
6, 50672, Note_on_c, 4, 64, 0
6, 50672, Note_on_c, 4, 60, 0
6, 50880, Note_on_c, 4, 64, 47
6, 50880, Note_on_c, 4, 60, 47
6, 50880, Note_on_c, 4, 58, 47
6, 50880, Note_on_c, 4, 67, 47
6, 50908, Note_on_c, 4, 48, 0
6, 51204, Note_on_c, 4, 58, 0
6, 51204, Note_on_c, 4, 64, 0
6, 51204, Note_on_c, 4, 60, 0
6, 51204, Note_on_c, 4, 67, 0
6, 51360, Note_on_c, 4, 64, 62
6, 51360, Note_on_c, 4, 60, 62
6, 51360, Note_on_c, 4, 58, 62
6, 51360, Note_on_c, 4, 67, 62
6, 51524, Note_on_c, 4, 67, 0
6, 51524, Note_on_c, 4, 64, 0
6, 51524, Note_on_c, 4, 60, 0
6, 51524, Note_on_c, 4, 58, 0
6, 51840, Note_on_c, 4, 64, 54
6, 51840, Note_on_c, 4, 62, 54
6, 51840, Note_on_c, 4, 58, 54
6, 51840, Note_on_c, 4, 67, 54
6, 52800, Note_on_c, 4, 62, 43
6, 53040, Note_on_c, 4, 62, 0
6, 53040, Note_on_c, 4, 64, 39
6, 53068, Note_on_c, 4, 67, 0
6, 53068, Note_on_c, 4, 62, 0
6, 53068, Note_on_c, 4, 64, 0
6, 53068, Note_on_c, 4, 58, 0
6, 53280, Note_on_c, 4, 67, 49
6, 53288, Note_on_c, 4, 64, 0
6, 53516, Note_on_c, 4, 67, 0
6, 53520, Note_on_c, 4, 74, 69
6, 53604, Note_on_c, 4, 74, 0
6, 53760, Note_on_c, 4, 64, 50
6, 53760, Note_on_c, 4, 62, 50
6, 53760, Note_on_c, 4, 58, 50
6, 53760, Note_on_c, 4, 67, 50
6, 54632, Note_on_c, 4, 67, 0
6, 54632, Note_on_c, 4, 64, 0
6, 54632, Note_on_c, 4, 62, 0
6, 54632, Note_on_c, 4, 58, 0
6, 54720, Note_on_c, 4, 64, 50
6, 54720, Note_on_c, 4, 61, 50
6, 54720, Note_on_c, 4, 58, 50
6, 54720, Note_on_c, 4, 67, 50
6, 55592, Note_on_c, 4, 67, 0
6, 55592, Note_on_c, 4, 64, 0
6, 55592, Note_on_c, 4, 61, 0
6, 55592, Note_on_c, 4, 58, 0
6, 55680, Note_on_c, 4, 64, 54
6, 55680, Note_on_c, 4, 60, 54
6, 55680, Note_on_c, 4, 58, 54
6, 55680, Note_on_c, 4, 67, 54
6, 56640, Note_on_c, 4, 60, 43
6, 56880, Note_on_c, 4, 60, 0
6, 56880, Note_on_c, 4, 64, 39
6, 56908, Note_on_c, 4, 67, 0
6, 56908, Note_on_c, 4, 60, 0
6, 56908, Note_on_c, 4, 64, 0
6, 56908, Note_on_c, 4, 58, 0
6, 57120, Note_on_c, 4, 67, 49
6, 57128, Note_on_c, 4, 64, 0
6, 57356, Note_on_c, 4, 67, 0
6, 57360, Note_on_c, 4, 72, 69
6, 57444, Note_on_c, 4, 72, 0
6, 57600, Note_on_c, 4, 65, 50
6, 57600, Note_on_c, 4, 60, 50
6, 57600, Note_on_c, 4, 57, 50
6, 58472, Note_on_c, 4, 57, 0
6, 58472, Note_on_c, 4, 60, 0
6, 58472, Note_on_c, 4, 65, 0
6, 58800, Note_on_c, 4, 65, 50
6, 58800, Note_on_c, 4, 62, 50
6, 58800, Note_on_c, 4, 60, 50
6, 58800, Note_on_c, 4, 69, 50
6, 59320, Note_on_c, 4, 69, 0
6, 59320, Note_on_c, 4, 65, 0
6, 59320, Note_on_c, 4, 62, 0
6, 59320, Note_on_c, 4, 60, 0
6, 59520, Note_on_c, 4, 65, 50
6, 59520, Note_on_c, 4, 62, 50
6, 59520, Note_on_c, 4, 58, 50
6, 59520, Note_on_c, 4, 67, 50
6, 60392, Note_on_c, 4, 67, 0
6, 60392, Note_on_c, 4, 65, 0
6, 60392, Note_on_c, 4, 62, 0
6, 60392, Note_on_c, 4, 58, 0
6, 60720, Note_on_c, 4, 64, 50
6, 60720, Note_on_c, 4, 60, 50
6, 60720, Note_on_c, 4, 58, 50
6, 60720, Note_on_c, 4, 67, 50
6, 61240, Note_on_c, 4, 67, 0
6, 61240, Note_on_c, 4, 64, 0
6, 61240, Note_on_c, 4, 60, 0
6, 61240, Note_on_c, 4, 58, 0
6, 61440, Note_on_c, 4, 65, 50
6, 61440, Note_on_c, 4, 60, 50
6, 61440, Note_on_c, 4, 57, 50
6, 62312, Note_on_c, 4, 57, 0
6, 62312, Note_on_c, 4, 60, 0
6, 62312, Note_on_c, 4, 65, 0
6, 62640, Note_on_c, 4, 65, 50
6, 62640, Note_on_c, 4, 62, 50
6, 62640, Note_on_c, 4, 60, 50
6, 62640, Note_on_c, 4, 69, 50
6, 63160, Note_on_c, 4, 69, 0
6, 63160, Note_on_c, 4, 65, 0
6, 63160, Note_on_c, 4, 62, 0
6, 63160, Note_on_c, 4, 60, 0
6, 63360, Note_on_c, 4, 70, 50
6, 63360, Note_on_c, 4, 67, 50
6, 63360, Note_on_c, 4, 65, 50
6, 63360, Note_on_c, 4, 74, 50
6, 64232, Note_on_c, 4, 74, 0
6, 64232, Note_on_c, 4, 70, 0
6, 64232, Note_on_c, 4, 67, 0
6, 64232, Note_on_c, 4, 65, 0
6, 64320, Note_on_c, 4, 64, 50
6, 64320, Note_on_c, 4, 61, 50
6, 64320, Note_on_c, 4, 58, 50
6, 64320, Note_on_c, 4, 67, 50
6, 65192, Note_on_c, 4, 67, 0
6, 65192, Note_on_c, 4, 64, 0
6, 65192, Note_on_c, 4, 61, 0
6, 65192, Note_on_c, 4, 58, 0
6, 65280, Note_on_c, 4, 65, 50
6, 65280, Note_on_c, 4, 60, 50
6, 65280, Note_on_c, 4, 57, 50
6, 66152, Note_on_c, 4, 57, 0
6, 66152, Note_on_c, 4, 60, 0
6, 66152, Note_on_c, 4, 65, 0
6, 66240, Note_on_c, 4, 65, 50
6, 66240, Note_on_c, 4, 62, 50
6, 66240, Note_on_c, 4, 60, 50
6, 66240, Note_on_c, 4, 69, 50
6, 67112, Note_on_c, 4, 69, 0
6, 67112, Note_on_c, 4, 65, 0
6, 67112, Note_on_c, 4, 62, 0
6, 67112, Note_on_c, 4, 60, 0
6, 67200, Note_on_c, 4, 70, 50
6, 67200, Note_on_c, 4, 67, 50
6, 67200, Note_on_c, 4, 65, 50
6, 67200, Note_on_c, 4, 74, 50
6, 68072, Note_on_c, 4, 74, 0
6, 68072, Note_on_c, 4, 70, 0
6, 68072, Note_on_c, 4, 67, 0
6, 68072, Note_on_c, 4, 65, 0
6, 68160, Note_on_c, 4, 64, 50
6, 68160, Note_on_c, 4, 61, 50
6, 68160, Note_on_c, 4, 58, 50
6, 68160, Note_on_c, 4, 67, 50
6, 69032, Note_on_c, 4, 67, 0
6, 69032, Note_on_c, 4, 64, 0
6, 69032, Note_on_c, 4, 61, 0
6, 69032, Note_on_c, 4, 58, 0
6, 69120, Note_on_c, 4, 65, 50
6, 69120, Note_on_c, 4, 60, 50
6, 69120, Note_on_c, 4, 57, 50
6, 69992, Note_on_c, 4, 57, 0
6, 69992, Note_on_c, 4, 60, 0
6, 69992, Note_on_c, 4, 65, 0
6, 70080, Note_on_c, 4, 65, 50
6, 70080, Note_on_c, 4, 63, 50
6, 70080, Note_on_c, 4, 59, 50
6, 70080, Note_on_c, 4, 68, 50
6, 70952, Note_on_c, 4, 68, 0
6, 70952, Note_on_c, 4, 65, 0
6, 70952, Note_on_c, 4, 63, 0
6, 70952, Note_on_c, 4, 59, 0
6, 71040, Note_on_c, 4, 64, 54
6, 71040, Note_on_c, 4, 60, 54
6, 71040, Note_on_c, 4, 58, 54
6, 71040, Note_on_c, 4, 67, 54
6, 72000, Note_on_c, 4, 60, 43
6, 72240, Note_on_c, 4, 60, 0
6, 72240, Note_on_c, 4, 64, 39
6, 72268, Note_on_c, 4, 67, 0
6, 72268, Note_on_c, 4, 60, 0
6, 72268, Note_on_c, 4, 64, 0
6, 72268, Note_on_c, 4, 58, 0
6, 72480, Note_on_c, 4, 67, 49
6, 72488, Note_on_c, 4, 64, 0
6, 72716, Note_on_c, 4, 67, 0
6, 72720, Note_on_c, 4, 72, 69
6, 72804, Note_on_c, 4, 72, 0
6, 72960, Note_on_c, 4, 65, 50
6, 72960, Note_on_c, 4, 60, 50
6, 72960, Note_on_c, 4, 57, 50
6, 73832, Note_on_c, 4, 57, 0
6, 73832, Note_on_c, 4, 60, 0
6, 73832, Note_on_c, 4, 65, 0
6, 74160, Note_on_c, 4, 65, 50
6, 74160, Note_on_c, 4, 62, 50
6, 74160, Note_on_c, 4, 60, 50
6, 74160, Note_on_c, 4, 69, 50
6, 74680, Note_on_c, 4, 69, 0
6, 74680, Note_on_c, 4, 65, 0
6, 74680, Note_on_c, 4, 62, 0
6, 74680, Note_on_c, 4, 60, 0
6, 75120, Note_on_c, 4, 65, 50
6, 75120, Note_on_c, 4, 62, 50
6, 75120, Note_on_c, 4, 58, 50
6, 75120, Note_on_c, 4, 67, 50
6, 75640, Note_on_c, 4, 67, 0
6, 75640, Note_on_c, 4, 65, 0
6, 75640, Note_on_c, 4, 62, 0
6, 75640, Note_on_c, 4, 58, 0
6, 76080, Note_on_c, 4, 64, 50
6, 76080, Note_on_c, 4, 61, 50
6, 76080, Note_on_c, 4, 58, 50
6, 76080, Note_on_c, 4, 67, 50
6, 76600, Note_on_c, 4, 67, 0
6, 76600, Note_on_c, 4, 64, 0
6, 76600, Note_on_c, 4, 61, 0
6, 76600, Note_on_c, 4, 58, 0
6, 77040, Note_on_c, 4, 65, 50
6, 77040, Note_on_c, 4, 60, 50
6, 77040, Note_on_c, 4, 57, 50
6, 77560, Note_on_c, 4, 57, 0
6, 77560, Note_on_c, 4, 60, 0
6, 77560, Note_on_c, 4, 65, 0
6, 77760, Note_on_c, 4, 65, 50
6, 77760, Note_on_c, 4, 62, 50
6, 77760, Note_on_c, 4, 60, 50
6, 77760, Note_on_c, 4, 69, 50
6, 78632, Note_on_c, 4, 69, 0
6, 78632, Note_on_c, 4, 65, 0
6, 78632, Note_on_c, 4, 62, 0
6, 78632, Note_on_c, 4, 60, 0
6, 78720, Note_on_c, 4, 65, 50
6, 78720, Note_on_c, 4, 62, 50
6, 78720, Note_on_c, 4, 58, 50
6, 78720, Note_on_c, 4, 67, 50
6, 79592, Note_on_c, 4, 67, 0
6, 79592, Note_on_c, 4, 65, 0
6, 79592, Note_on_c, 4, 62, 0
6, 79592, Note_on_c, 4, 58, 0
6, 79680, Note_on_c, 4, 64, 50
6, 79680, Note_on_c, 4, 61, 50
6, 79680, Note_on_c, 4, 58, 50
6, 79680, Note_on_c, 4, 67, 50
6, 80552, Note_on_c, 4, 67, 0
6, 80552, Note_on_c, 4, 64, 0
6, 80552, Note_on_c, 4, 61, 0
6, 80552, Note_on_c, 4, 58, 0
6, 80640, Note_on_c, 4, 65, 50
6, 80640, Note_on_c, 4, 60, 50
6, 80640, Note_on_c, 4, 57, 50
6, 81512, Note_on_c, 4, 57, 0
6, 81512, Note_on_c, 4, 60, 0
6, 81512, Note_on_c, 4, 65, 0
6, 81600, Note_on_c, 4, 65, 50
6, 81600, Note_on_c, 4, 62, 50
6, 81600, Note_on_c, 4, 60, 50
6, 81600, Note_on_c, 4, 69, 50
6, 82472, Note_on_c, 4, 69, 0
6, 82472, Note_on_c, 4, 65, 0
6, 82472, Note_on_c, 4, 62, 0
6, 82472, Note_on_c, 4, 60, 0
6, 82560, Note_on_c, 4, 70, 50
6, 82560, Note_on_c, 4, 67, 50
6, 82560, Note_on_c, 4, 65, 50
6, 82560, Note_on_c, 4, 74, 50
6, 83432, Note_on_c, 4, 74, 0
6, 83432, Note_on_c, 4, 70, 0
6, 83432, Note_on_c, 4, 67, 0
6, 83432, Note_on_c, 4, 65, 0
6, 83520, Note_on_c, 4, 64, 50
6, 83520, Note_on_c, 4, 61, 50
6, 83520, Note_on_c, 4, 58, 50
6, 83520, Note_on_c, 4, 67, 50
6, 84392, Note_on_c, 4, 67, 0
6, 84392, Note_on_c, 4, 64, 0
6, 84392, Note_on_c, 4, 61, 0
6, 84392, Note_on_c, 4, 58, 0
6, 84720, Note_on_c, 4, 65, 50
6, 84720, Note_on_c, 4, 60, 50
6, 84720, Note_on_c, 4, 57, 50
6, 85240, Note_on_c, 4, 57, 0
6, 85240, Note_on_c, 4, 60, 0
6, 85240, Note_on_c, 4, 65, 0
6, 85440, Note_on_c, 4, 65, 50
6, 85440, Note_on_c, 4, 63, 50
6, 85440, Note_on_c, 4, 59, 50
6, 85440, Note_on_c, 4, 68, 50
6, 86312, Note_on_c, 4, 68, 0
6, 86312, Note_on_c, 4, 65, 0
6, 86312, Note_on_c, 4, 63, 0
6, 86312, Note_on_c, 4, 59, 0
6, 86400, Note_on_c, 4, 64, 54
6, 86400, Note_on_c, 4, 60, 54
6, 86400, Note_on_c, 4, 58, 54
6, 86400, Note_on_c, 4, 67, 54
6, 87360, Note_on_c, 4, 60, 43
6, 87600, Note_on_c, 4, 60, 0
6, 87600, Note_on_c, 4, 64, 39
6, 87628, Note_on_c, 4, 67, 0
6, 87628, Note_on_c, 4, 60, 0
6, 87628, Note_on_c, 4, 64, 0
6, 87628, Note_on_c, 4, 58, 0
6, 87840, Note_on_c, 4, 67, 49
6, 87848, Note_on_c, 4, 64, 0
6, 88076, Note_on_c, 4, 67, 0
6, 88080, Note_on_c, 4, 72, 69
6, 88164, Note_on_c, 4, 72, 0
6, 88320, Note_on_c, 4, 65, 50
6, 88320, Note_on_c, 4, 60, 50
6, 88320, Note_on_c, 4, 57, 50
6, 89192, Note_on_c, 4, 57, 0
6, 89192, Note_on_c, 4, 60, 0
6, 89192, Note_on_c, 4, 65, 0
6, 89520, Note_on_c, 4, 65, 50
6, 89520, Note_on_c, 4, 62, 50
6, 89520, Note_on_c, 4, 60, 50
6, 89520, Note_on_c, 4, 69, 50
6, 90040, Note_on_c, 4, 69, 0
6, 90040, Note_on_c, 4, 65, 0
6, 90040, Note_on_c, 4, 62, 0
6, 90040, Note_on_c, 4, 60, 0
6, 90240, Note_on_c, 4, 65, 50
6, 90240, Note_on_c, 4, 62, 50
6, 90240, Note_on_c, 4, 58, 50
6, 90240, Note_on_c, 4, 67, 50
6, 91112, Note_on_c, 4, 67, 0
6, 91112, Note_on_c, 4, 65, 0
6, 91112, Note_on_c, 4, 62, 0
6, 91112, Note_on_c, 4, 58, 0
6, 91200, Note_on_c, 4, 64, 50
6, 91200, Note_on_c, 4, 61, 50
6, 91200, Note_on_c, 4, 58, 50
6, 91200, Note_on_c, 4, 67, 50
6, 92072, Note_on_c, 4, 67, 0
6, 92072, Note_on_c, 4, 64, 0
6, 92072, Note_on_c, 4, 61, 0
6, 92072, Note_on_c, 4, 58, 0
6, 92160, Note_on_c, 4, 65, 50
6, 92160, Note_on_c, 4, 60, 50
6, 92160, Note_on_c, 4, 57, 50
6, 93032, Note_on_c, 4, 57, 0
6, 93032, Note_on_c, 4, 60, 0
6, 93032, Note_on_c, 4, 65, 0
6, 93120, Note_on_c, 4, 65, 50
6, 93120, Note_on_c, 4, 62, 50
6, 93120, Note_on_c, 4, 60, 50
6, 93120, Note_on_c, 4, 69, 50
6, 93992, Note_on_c, 4, 69, 0
6, 93992, Note_on_c, 4, 65, 0
6, 93992, Note_on_c, 4, 62, 0
6, 93992, Note_on_c, 4, 60, 0
6, 94080, Note_on_c, 4, 65, 50
6, 94080, Note_on_c, 4, 62, 50
6, 94080, Note_on_c, 4, 58, 50
6, 94080, Note_on_c, 4, 67, 50
6, 94952, Note_on_c, 4, 67, 0
6, 94952, Note_on_c, 4, 65, 0
6, 94952, Note_on_c, 4, 62, 0
6, 94952, Note_on_c, 4, 58, 0
6, 95040, Note_on_c, 4, 64, 50
6, 95040, Note_on_c, 4, 61, 50
6, 95040, Note_on_c, 4, 58, 50
6, 95040, Note_on_c, 4, 67, 50
6, 95912, Note_on_c, 4, 67, 0
6, 95912, Note_on_c, 4, 64, 0
6, 95912, Note_on_c, 4, 61, 0
6, 95912, Note_on_c, 4, 58, 0
6, 96000, Note_on_c, 4, 65, 50
6, 96000, Note_on_c, 4, 60, 50
6, 96000, Note_on_c, 4, 57, 50
6, 96872, Note_on_c, 4, 57, 0
6, 96872, Note_on_c, 4, 60, 0
6, 96872, Note_on_c, 4, 65, 0
6, 96960, Note_on_c, 4, 65, 50
6, 96960, Note_on_c, 4, 62, 50
6, 96960, Note_on_c, 4, 60, 50
6, 96960, Note_on_c, 4, 69, 50
6, 97832, Note_on_c, 4, 69, 0
6, 97832, Note_on_c, 4, 65, 0
6, 97832, Note_on_c, 4, 62, 0
6, 97832, Note_on_c, 4, 60, 0
6, 97920, Note_on_c, 4, 65, 50
6, 97920, Note_on_c, 4, 62, 50
6, 97920, Note_on_c, 4, 58, 50
6, 97920, Note_on_c, 4, 67, 50
6, 98792, Note_on_c, 4, 67, 0
6, 98792, Note_on_c, 4, 65, 0
6, 98792, Note_on_c, 4, 62, 0
6, 98792, Note_on_c, 4, 58, 0
6, 98880, Note_on_c, 4, 64, 50
6, 98880, Note_on_c, 4, 61, 50
6, 98880, Note_on_c, 4, 58, 50
6, 98880, Note_on_c, 4, 67, 50
6, 99752, Note_on_c, 4, 67, 0
6, 99752, Note_on_c, 4, 64, 0
6, 99752, Note_on_c, 4, 61, 0
6, 99752, Note_on_c, 4, 58, 0
6, 99840, Note_on_c, 4, 65, 50
6, 99840, Note_on_c, 4, 60, 50
6, 99840, Note_on_c, 4, 57, 50
6, 100320, Note_on_c, 4, 57, 0
6, 100320, Note_on_c, 4, 60, 0
6, 100320, Note_on_c, 4, 65, 0
6, 100320, Note_on_c, 4, 65, 50
6, 100320, Note_on_c, 4, 61, 50
6, 100320, Note_on_c, 4, 58, 50
6, 100320, Note_on_c, 4, 67, 50
6, 100800, Note_on_c, 4, 67, 0
6, 100800, Note_on_c, 4, 65, 0
6, 100800, Note_on_c, 4, 61, 0
6, 100800, Note_on_c, 4, 58, 0
6, 101040, Note_on_c, 4, 65, 50
6, 101040, Note_on_c, 4, 62, 50
6, 101040, Note_on_c, 4, 60, 50
6, 101040, Note_on_c, 4, 69, 50
6, 101560, Note_on_c, 4, 69, 0
6, 101560, Note_on_c, 4, 65, 0
6, 101560, Note_on_c, 4, 62, 0
6, 101560, Note_on_c, 4, 60, 0
6, 101760, Note_on_c, 4, 65, 50
6, 101760, Note_on_c, 4, 60, 50
6, 101760, Note_on_c, 4, 57, 50
6, 102632, Note_on_c, 4, 57, 0
6, 102632, Note_on_c, 4, 60, 0
6, 102632, Note_on_c, 4, 65, 0
6, 102960, Note_on_c, 4, 65, 50
6, 102960, Note_on_c, 4, 62, 50
6, 102960, Note_on_c, 4, 60, 50
6, 102960, Note_on_c, 4, 69, 50
6, 103480, Note_on_c, 4, 69, 0
6, 103480, Note_on_c, 4, 65, 0
6, 103480, Note_on_c, 4, 62, 0
6, 103480, Note_on_c, 4, 60, 0
6, 103680, Note_on_c, 4, 65, 50
6, 103680, Note_on_c, 4, 62, 50
6, 103680, Note_on_c, 4, 58, 50
6, 103680, Note_on_c, 4, 67, 50
6, 104552, Note_on_c, 4, 67, 0
6, 104552, Note_on_c, 4, 65, 0
6, 104552, Note_on_c, 4, 62, 0
6, 104552, Note_on_c, 4, 58, 0
6, 104880, Note_on_c, 4, 64, 50
6, 104880, Note_on_c, 4, 60, 50
6, 104880, Note_on_c, 4, 58, 50
6, 104880, Note_on_c, 4, 67, 50
6, 105400, Note_on_c, 4, 67, 0
6, 105400, Note_on_c, 4, 64, 0
6, 105400, Note_on_c, 4, 60, 0
6, 105400, Note_on_c, 4, 58, 0
6, 105840, Note_on_c, 4, 65, 50
6, 105840, Note_on_c, 4, 60, 50
6, 105840, Note_on_c, 4, 57, 50
6, 106360, Note_on_c, 4, 57, 0
6, 106360, Note_on_c, 4, 60, 0
6, 106360, Note_on_c, 4, 65, 0
6, 106560, Note_on_c, 4, 65, 50
6, 106560, Note_on_c, 4, 62, 50
6, 106560, Note_on_c, 4, 60, 50
6, 106560, Note_on_c, 4, 69, 50
6, 107432, Note_on_c, 4, 69, 0
6, 107432, Note_on_c, 4, 65, 0
6, 107432, Note_on_c, 4, 62, 0
6, 107432, Note_on_c, 4, 60, 0
6, 107760, Note_on_c, 4, 65, 50
6, 107760, Note_on_c, 4, 62, 50
6, 107760, Note_on_c, 4, 58, 50
6, 107760, Note_on_c, 4, 67, 50
6, 108280, Note_on_c, 4, 67, 0
6, 108280, Note_on_c, 4, 65, 0
6, 108280, Note_on_c, 4, 62, 0
6, 108280, Note_on_c, 4, 58, 0
6, 108720, Note_on_c, 4, 64, 50
6, 108720, Note_on_c, 4, 60, 50
6, 108720, Note_on_c, 4, 58, 50
6, 108720, Note_on_c, 4, 67, 50
6, 109240, Note_on_c, 4, 67, 0
6, 109240, Note_on_c, 4, 64, 0
6, 109240, Note_on_c, 4, 60, 0
6, 109240, Note_on_c, 4, 58, 0
6, 109680, Note_on_c, 4, 65, 50
6, 109680, Note_on_c, 4, 60, 50
6, 109680, Note_on_c, 4, 57, 50
6, 110200, Note_on_c, 4, 57, 0
6, 110200, Note_on_c, 4, 60, 0
6, 110200, Note_on_c, 4, 65, 0
6, 110400, Note_on_c, 4, 65, 50
6, 110400, Note_on_c, 4, 62, 50
6, 110400, Note_on_c, 4, 60, 50
6, 110400, Note_on_c, 4, 69, 50
6, 111272, Note_on_c, 4, 69, 0
6, 111272, Note_on_c, 4, 65, 0
6, 111272, Note_on_c, 4, 62, 0
6, 111272, Note_on_c, 4, 60, 0
6, 111360, Note_on_c, 4, 70, 50
6, 111360, Note_on_c, 4, 67, 50
6, 111360, Note_on_c, 4, 65, 50
6, 111360, Note_on_c, 4, 74, 50
6, 112232, Note_on_c, 4, 74, 0
6, 112232, Note_on_c, 4, 70, 0
6, 112232, Note_on_c, 4, 67, 0
6, 112232, Note_on_c, 4, 65, 0
6, 112320, Note_on_c, 4, 64, 50
6, 112320, Note_on_c, 4, 61, 50
6, 112320, Note_on_c, 4, 58, 50
6, 112320, Note_on_c, 4, 67, 50
6, 113192, Note_on_c, 4, 67, 0
6, 113192, Note_on_c, 4, 64, 0
6, 113192, Note_on_c, 4, 61, 0
6, 113192, Note_on_c, 4, 58, 0
6, 113520, Note_on_c, 4, 65, 50
6, 113520, Note_on_c, 4, 62, 50
6, 113520, Note_on_c, 4, 60, 50
6, 113520, Note_on_c, 4, 69, 50
6, 114040, Note_on_c, 4, 69, 0
6, 114040, Note_on_c, 4, 65, 0
6, 114040, Note_on_c, 4, 62, 0
6, 114040, Note_on_c, 4, 60, 0
6, 114240, Note_on_c, 4, 65, 50
6, 114240, Note_on_c, 4, 61, 50
6, 114240, Note_on_c, 4, 58, 50
6, 114240, Note_on_c, 4, 67, 50
6, 115112, Note_on_c, 4, 67, 0
6, 115112, Note_on_c, 4, 65, 0
6, 115112, Note_on_c, 4, 61, 0
6, 115112, Note_on_c, 4, 58, 0
6, 115200, Note_on_c, 4, 65, 54
6, 115200, Note_on_c, 4, 62, 54
6, 115200, Note_on_c, 4, 60, 54
6, 115200, Note_on_c, 4, 69, 54
6, 115368, Note_on_c, 4, 69, 0
6, 115368, Note_on_c, 4, 65, 0
6, 115368, Note_on_c, 4, 62, 0
6, 115368, Note_on_c, 4, 60, 0
6, 115440, Note_on_c, 4, 65, 49
6, 115440, Note_on_c, 4, 62, 49
6, 115440, Note_on_c, 4, 60, 49
6, 115440, Note_on_c, 4, 69, 49
6, 115576, Note_on_c, 4, 69, 0
6, 115576, Note_on_c, 4, 65, 0
6, 115576, Note_on_c, 4, 62, 0
6, 115576, Note_on_c, 4, 60, 0
6, 115920, Note_on_c, 4, 65, 49
6, 115920, Note_on_c, 4, 62, 49
6, 115920, Note_on_c, 4, 60, 49
6, 115920, Note_on_c, 4, 69, 49
6, 116676, Note_on_c, 4, 69, 0
6, 116676, Note_on_c, 4, 65, 0
6, 116676, Note_on_c, 4, 62, 0
6, 116676, Note_on_c, 4, 60, 0
6, 117120, Note_on_c, 4, 64, 54
6, 117120, Note_on_c, 4, 60, 54
6, 117120, Note_on_c, 4, 58, 54
6, 117120, Note_on_c, 4, 67, 54
6, 117288, Note_on_c, 4, 67, 0
6, 117288, Note_on_c, 4, 64, 0
6, 117288, Note_on_c, 4, 60, 0
6, 117288, Note_on_c, 4, 58, 0
6, 117360, Note_on_c, 4, 64, 49
6, 117360, Note_on_c, 4, 60, 49
6, 117360, Note_on_c, 4, 58, 49
6, 117360, Note_on_c, 4, 67, 49
6, 117496, Note_on_c, 4, 67, 0
6, 117496, Note_on_c, 4, 64, 0
6, 117496, Note_on_c, 4, 60, 0
6, 117496, Note_on_c, 4, 58, 0
6, 117840, Note_on_c, 4, 64, 49
6, 117840, Note_on_c, 4, 60, 49
6, 117840, Note_on_c, 4, 58, 49
6, 117840, Note_on_c, 4, 67, 49
6, 118596, Note_on_c, 4, 67, 0
6, 118596, Note_on_c, 4, 64, 0
6, 118596, Note_on_c, 4, 60, 0
6, 118596, Note_on_c, 4, 58, 0
6, 119040, Note_on_c, 4, 64, 49
6, 119040, Note_on_c, 4, 62, 49
6, 119040, Note_on_c, 4, 58, 49
6, 119040, Note_on_c, 4, 67, 49
6, 119760, Note_on_c, 4, 48, 42
6, 119792, Note_on_c, 4, 67, 0
6, 119792, Note_on_c, 4, 58, 0
6, 119792, Note_on_c, 4, 64, 0
6, 119792, Note_on_c, 4, 62, 0
6, 120000, Note_on_c, 4, 64, 47
6, 120000, Note_on_c, 4, 62, 47
6, 120000, Note_on_c, 4, 58, 47
6, 120000, Note_on_c, 4, 67, 47
6, 120028, Note_on_c, 4, 48, 0
6, 120324, Note_on_c, 4, 58, 0
6, 120324, Note_on_c, 4, 64, 0
6, 120324, Note_on_c, 4, 62, 0
6, 120324, Note_on_c, 4, 67, 0
6, 120480, Note_on_c, 4, 64, 62
6, 120480, Note_on_c, 4, 62, 62
6, 120480, Note_on_c, 4, 58, 62
6, 120480, Note_on_c, 4, 67, 62
6, 120644, Note_on_c, 4, 67, 0
6, 120644, Note_on_c, 4, 64, 0
6, 120644, Note_on_c, 4, 62, 0
6, 120644, Note_on_c, 4, 58, 0
6, 120960, Note_on_c, 4, 64, 50
6, 120960, Note_on_c, 4, 62, 50
6, 120960, Note_on_c, 4, 58, 50
6, 120960, Note_on_c, 4, 67, 50
6, 121832, Note_on_c, 4, 67, 0
6, 121832, Note_on_c, 4, 64, 0
6, 121832, Note_on_c, 4, 62, 0
6, 121832, Note_on_c, 4, 58, 0
6, 121920, Note_on_c, 4, 64, 50
6, 121920, Note_on_c, 4, 61, 50
6, 121920, Note_on_c, 4, 58, 50
6, 121920, Note_on_c, 4, 67, 50
6, 122792, Note_on_c, 4, 67, 0
6, 122792, Note_on_c, 4, 64, 0
6, 122792, Note_on_c, 4, 61, 0
6, 122792, Note_on_c, 4, 58, 0
6, 122880, Note_on_c, 4, 65, 50
6, 122880, Note_on_c, 4, 62, 50
6, 122880, Note_on_c, 4, 60, 50
6, 122880, Note_on_c, 4, 69, 50
6, 123360, Note_on_c, 4, 69, 0
6, 123360, Note_on_c, 4, 65, 0
6, 123360, Note_on_c, 4, 62, 0
6, 123360, Note_on_c, 4, 60, 0
6, 124800, Control_c, 4, 64, 0
6, 124800, End_track
7, 0, Start_track
7, 0, Title_t, "Guitar  "
7, 0, Program_c, 5, 28
7, 0, Control_c, 5, 7, 95
7, 0, Control_c, 5, 10, 10
7, 0, Control_c, 5, 121, 0
7, 40, Control_c, 5, 123, 0
7, 120, Control_c, 5, 91, 65
7, 160, Control_c, 5, 64, 0
7, 4080, Note_on_c, 5, 53, 70
7, 4320, Control_c, 5, 64, 127
7, 4320, Note_on_c, 5, 57, 45
7, 4560, Note_on_c, 5, 60, 43
7, 4604, Note_on_c, 5, 57, 0
7, 4604, Note_on_c, 5, 53, 0
7, 4800, Note_on_c, 5, 60, 0
7, 4800, Control_c, 5, 64, 0
7, 5040, Note_on_c, 5, 57, 59
7, 5040, Note_on_c, 5, 60, 51
7, 5708, Note_on_c, 5, 57, 0
7, 5720, Note_on_c, 5, 60, 0
7, 6240, Note_on_c, 5, 58, 66
7, 6480, Note_on_c, 5, 53, 38
7, 6720, Note_on_c, 5, 53, 0
7, 6720, Note_on_c, 5, 58, 0
7, 7200, Note_on_c, 5, 58, 44
7, 7440, Note_on_c, 5, 55, 66
7, 7680, Note_on_c, 5, 55, 0
7, 7680, Note_on_c, 5, 58, 0
7, 8160, Note_on_c, 5, 60, 66
7, 8400, Note_on_c, 5, 53, 38
7, 8640, Note_on_c, 5, 53, 0
7, 8640, Note_on_c, 5, 60, 0
7, 8880, Note_on_c, 5, 53, 70
7, 9120, Control_c, 5, 64, 127
7, 9120, Note_on_c, 5, 57, 45
7, 9360, Note_on_c, 5, 60, 43
7, 9404, Note_on_c, 5, 57, 0
7, 9404, Note_on_c, 5, 53, 0
7, 9600, Note_on_c, 5, 60, 0
7, 9600, Control_c, 5, 64, 0
7, 10080, Note_on_c, 5, 58, 66
7, 10320, Note_on_c, 5, 53, 38
7, 10560, Note_on_c, 5, 53, 0
7, 10560, Note_on_c, 5, 58, 0
7, 11040, Note_on_c, 5, 58, 58
7, 11040, Note_on_c, 5, 52, 70
7, 11120, Note_on_c, 5, 58, 0
7, 11152, Note_on_c, 5, 52, 0
7, 11760, Note_on_c, 5, 53, 70
7, 12000, Control_c, 5, 64, 127
7, 12000, Note_on_c, 5, 57, 45
7, 12240, Note_on_c, 5, 60, 43
7, 12284, Note_on_c, 5, 57, 0
7, 12284, Note_on_c, 5, 53, 0
7, 12480, Note_on_c, 5, 60, 0
7, 12480, Control_c, 5, 64, 0
7, 12720, Note_on_c, 5, 53, 70
7, 12960, Control_c, 5, 64, 127
7, 12960, Note_on_c, 5, 57, 45
7, 13200, Note_on_c, 5, 60, 43
7, 13244, Note_on_c, 5, 57, 0
7, 13244, Note_on_c, 5, 53, 0
7, 13440, Note_on_c, 5, 60, 0
7, 13440, Control_c, 5, 64, 0
7, 13920, Note_on_c, 5, 58, 66
7, 14160, Note_on_c, 5, 53, 38
7, 14400, Note_on_c, 5, 53, 0
7, 14400, Note_on_c, 5, 58, 0
7, 14880, Note_on_c, 5, 58, 44
7, 15120, Note_on_c, 5, 55, 66
7, 15360, Note_on_c, 5, 55, 0
7, 15360, Note_on_c, 5, 58, 0
7, 15600, Note_on_c, 5, 53, 70
7, 15840, Control_c, 5, 64, 127
7, 15840, Note_on_c, 5, 57, 45
7, 16080, Note_on_c, 5, 60, 43
7, 16124, Note_on_c, 5, 57, 0
7, 16124, Note_on_c, 5, 53, 0
7, 16320, Note_on_c, 5, 60, 0
7, 16320, Control_c, 5, 64, 0
7, 16800, Note_on_c, 5, 59, 66
7, 17040, Note_on_c, 5, 53, 38
7, 17280, Note_on_c, 5, 53, 0
7, 17280, Note_on_c, 5, 59, 0
7, 17520, Note_on_c, 5, 52, 70
7, 17760, Control_c, 5, 64, 127
7, 17760, Note_on_c, 5, 55, 45
7, 18000, Note_on_c, 5, 58, 43
7, 18044, Note_on_c, 5, 55, 0
7, 18044, Note_on_c, 5, 52, 0
7, 18260, Note_on_c, 5, 58, 0
7, 18480, Note_on_c, 5, 52, 64
7, 18720, Note_on_c, 5, 55, 47
7, 18844, Note_on_c, 5, 52, 0
7, 18928, Note_on_c, 5, 55, 0
7, 18960, Note_on_c, 5, 58, 55
7, 19080, Note_on_c, 5, 58, 0
7, 19200, Control_c, 5, 64, 0
7, 19440, Note_on_c, 5, 53, 70
7, 19680, Control_c, 5, 64, 127
7, 19680, Note_on_c, 5, 57, 45
7, 19920, Note_on_c, 5, 60, 43
7, 19964, Note_on_c, 5, 57, 0
7, 19964, Note_on_c, 5, 53, 0
7, 20160, Note_on_c, 5, 60, 0
7, 20160, Control_c, 5, 64, 0
7, 20640, Note_on_c, 5, 60, 66
7, 20880, Note_on_c, 5, 53, 38
7, 21120, Note_on_c, 5, 53, 0
7, 21120, Note_on_c, 5, 60, 0
7, 21360, Note_on_c, 5, 53, 70
7, 21600, Control_c, 5, 64, 127
7, 21600, Note_on_c, 5, 55, 45
7, 21840, Note_on_c, 5, 58, 43
7, 21884, Note_on_c, 5, 55, 0
7, 21884, Note_on_c, 5, 53, 0
7, 22080, Note_on_c, 5, 58, 0
7, 22080, Control_c, 5, 64, 0
7, 22320, Note_on_c, 5, 55, 59
7, 22320, Note_on_c, 5, 58, 51
7, 22988, Note_on_c, 5, 55, 0
7, 23000, Note_on_c, 5, 58, 0
7, 23280, Note_on_c, 5, 53, 70
7, 23520, Control_c, 5, 64, 127
7, 23520, Note_on_c, 5, 57, 45
7, 23760, Note_on_c, 5, 60, 43
7, 23804, Note_on_c, 5, 57, 0
7, 23804, Note_on_c, 5, 53, 0
7, 24000, Note_on_c, 5, 60, 0
7, 24000, Control_c, 5, 64, 0
7, 24480, Note_on_c, 5, 60, 66
7, 24720, Note_on_c, 5, 53, 38
7, 24960, Note_on_c, 5, 53, 0
7, 24960, Note_on_c, 5, 60, 0
7, 25440, Note_on_c, 5, 58, 66
7, 25680, Note_on_c, 5, 53, 38
7, 25920, Note_on_c, 5, 53, 0
7, 25920, Note_on_c, 5, 58, 0
7, 26160, Note_on_c, 5, 55, 59
7, 26160, Note_on_c, 5, 58, 51
7, 26828, Note_on_c, 5, 55, 0
7, 26840, Note_on_c, 5, 58, 0
7, 27360, Note_on_c, 5, 60, 66
7, 27600, Note_on_c, 5, 53, 38
7, 27840, Note_on_c, 5, 53, 0
7, 27840, Note_on_c, 5, 60, 0
7, 28080, Note_on_c, 5, 53, 70
7, 28320, Control_c, 5, 64, 127
7, 28320, Note_on_c, 5, 57, 45
7, 28560, Note_on_c, 5, 60, 43
7, 28604, Note_on_c, 5, 57, 0
7, 28604, Note_on_c, 5, 53, 0
7, 28800, Note_on_c, 5, 60, 0
7, 28800, Control_c, 5, 64, 0
7, 29280, Note_on_c, 5, 58, 66
7, 29520, Note_on_c, 5, 53, 38
7, 29760, Note_on_c, 5, 53, 0
7, 29760, Note_on_c, 5, 58, 0
7, 30000, Note_on_c, 5, 55, 59
7, 30000, Note_on_c, 5, 58, 51
7, 30668, Note_on_c, 5, 55, 0
7, 30680, Note_on_c, 5, 58, 0
7, 31200, Note_on_c, 5, 60, 58
7, 31200, Note_on_c, 5, 53, 70
7, 31280, Note_on_c, 5, 60, 0
7, 31312, Note_on_c, 5, 53, 0
7, 31920, Note_on_c, 5, 53, 70
7, 32160, Control_c, 5, 64, 127
7, 32160, Note_on_c, 5, 56, 45
7, 32400, Note_on_c, 5, 59, 43
7, 32444, Note_on_c, 5, 56, 0
7, 32444, Note_on_c, 5, 53, 0
7, 32640, Note_on_c, 5, 59, 0
7, 32640, Control_c, 5, 64, 0
7, 33120, Note_on_c, 5, 58, 58
7, 33120, Note_on_c, 5, 52, 70
7, 33200, Note_on_c, 5, 58, 0
7, 33232, Note_on_c, 5, 52, 0
7, 33840, Note_on_c, 5, 58, 54
7, 33840, Note_on_c, 5, 52, 51
7, 34560, Note_on_c, 5, 52, 0
7, 34560, Note_on_c, 5, 58, 0
7, 34800, Note_on_c, 5, 53, 70
7, 35040, Control_c, 5, 64, 127
7, 35040, Note_on_c, 5, 57, 45
7, 35280, Note_on_c, 5, 60, 43
7, 35324, Note_on_c, 5, 57, 0
7, 35324, Note_on_c, 5, 53, 0
7, 35520, Note_on_c, 5, 60, 0
7, 35520, Control_c, 5, 64, 0
7, 35760, Note_on_c, 5, 57, 59
7, 35760, Note_on_c, 5, 60, 51
7, 36428, Note_on_c, 5, 57, 0
7, 36440, Note_on_c, 5, 60, 0
7, 36960, Note_on_c, 5, 58, 58
7, 36960, Note_on_c, 5, 53, 70
7, 37040, Note_on_c, 5, 58, 0
7, 37072, Note_on_c, 5, 53, 0
7, 37920, Note_on_c, 5, 58, 44
7, 38160, Note_on_c, 5, 55, 66
7, 38400, Note_on_c, 5, 55, 0
7, 38400, Note_on_c, 5, 58, 0
7, 38880, Note_on_c, 5, 60, 66
7, 39120, Note_on_c, 5, 53, 38
7, 39360, Note_on_c, 5, 53, 0
7, 39360, Note_on_c, 5, 60, 0
7, 39840, Note_on_c, 5, 60, 58
7, 39840, Note_on_c, 5, 53, 70
7, 39920, Note_on_c, 5, 60, 0
7, 39952, Note_on_c, 5, 53, 0
7, 40800, Note_on_c, 5, 58, 66
7, 41040, Note_on_c, 5, 53, 38
7, 41280, Note_on_c, 5, 53, 0
7, 41280, Note_on_c, 5, 58, 0
7, 41520, Note_on_c, 5, 52, 70
7, 41760, Control_c, 5, 64, 127
7, 41760, Note_on_c, 5, 55, 45
7, 42000, Note_on_c, 5, 58, 43
7, 42044, Note_on_c, 5, 55, 0
7, 42044, Note_on_c, 5, 52, 0
7, 42240, Note_on_c, 5, 58, 0
7, 42240, Control_c, 5, 64, 0
7, 42480, Note_on_c, 5, 53, 70
7, 42720, Control_c, 5, 64, 127
7, 42720, Note_on_c, 5, 57, 45
7, 42960, Note_on_c, 5, 60, 43
7, 43004, Note_on_c, 5, 57, 0
7, 43004, Note_on_c, 5, 53, 0
7, 43200, Note_on_c, 5, 60, 0
7, 43200, Control_c, 5, 64, 0
7, 43440, Note_on_c, 5, 53, 70
7, 43680, Control_c, 5, 64, 127
7, 43680, Note_on_c, 5, 57, 45
7, 43920, Note_on_c, 5, 60, 43
7, 43964, Note_on_c, 5, 57, 0
7, 43964, Note_on_c, 5, 53, 0
7, 44160, Note_on_c, 5, 60, 0
7, 44160, Control_c, 5, 64, 0
7, 44640, Note_on_c, 5, 58, 66
7, 44880, Note_on_c, 5, 53, 38
7, 45120, Note_on_c, 5, 53, 0
7, 45120, Note_on_c, 5, 58, 0
7, 45600, Note_on_c, 5, 58, 44
7, 45840, Note_on_c, 5, 55, 66
7, 46080, Note_on_c, 5, 55, 0
7, 46080, Note_on_c, 5, 58, 0
7, 46560, Note_on_c, 5, 60, 44
7, 46800, Note_on_c, 5, 57, 66
7, 47040, Note_on_c, 5, 57, 0
7, 47040, Note_on_c, 5, 60, 0
7, 47280, Note_on_c, 5, 49, 70
7, 47520, Control_c, 5, 64, 127
7, 47520, Note_on_c, 5, 51, 45
7, 47760, Note_on_c, 5, 55, 43
7, 47804, Note_on_c, 5, 51, 0
7, 47804, Note_on_c, 5, 49, 0
7, 48000, Note_on_c, 5, 55, 0
7, 48000, Control_c, 5, 64, 0
7, 48480, Note_on_c, 5, 57, 44
7, 48720, Note_on_c, 5, 53, 66
7, 49920, Note_on_c, 5, 53, 0
7, 49920, Note_on_c, 5, 57, 0
7, 50160, Note_on_c, 5, 52, 64
7, 50400, Control_c, 5, 64, 127
7, 50400, Note_on_c, 5, 55, 73
7, 50612, Note_on_c, 5, 55, 0
7, 50640, Note_on_c, 5, 58, 48
7, 50688, Note_on_c, 5, 52, 0
7, 50840, Note_on_c, 5, 58, 0
7, 51120, Note_on_c, 5, 52, 44
7, 51360, Note_on_c, 5, 55, 54
7, 51532, Note_on_c, 5, 55, 0
7, 51600, Note_on_c, 5, 58, 52
7, 51840, Note_on_c, 5, 58, 0
7, 51840, Note_on_c, 5, 52, 0
7, 51840, Control_c, 5, 64, 0
7, 52320, Note_on_c, 5, 58, 66
7, 52560, Note_on_c, 5, 52, 38
7, 52800, Note_on_c, 5, 55, 45
7, 52912, Note_on_c, 5, 58, 0
7, 53040, Note_on_c, 5, 58, 62
7, 53760, Note_on_c, 5, 58, 0
7, 53760, Note_on_c, 5, 55, 0
7, 53760, Note_on_c, 5, 52, 0
7, 54000, Note_on_c, 5, 52, 70
7, 54240, Control_c, 5, 64, 127
7, 54240, Note_on_c, 5, 55, 45
7, 54480, Note_on_c, 5, 58, 43
7, 54524, Note_on_c, 5, 55, 0
7, 54524, Note_on_c, 5, 52, 0
7, 54720, Note_on_c, 5, 58, 0
7, 54720, Control_c, 5, 64, 0
7, 54960, Note_on_c, 5, 52, 70
7, 55200, Control_c, 5, 64, 127
7, 55200, Note_on_c, 5, 55, 45
7, 55440, Note_on_c, 5, 58, 43
7, 55484, Note_on_c, 5, 55, 0
7, 55484, Note_on_c, 5, 52, 0
7, 55680, Note_on_c, 5, 58, 0
7, 55680, Control_c, 5, 64, 0
7, 56160, Note_on_c, 5, 58, 44
7, 56400, Note_on_c, 5, 55, 66
7, 57600, Note_on_c, 5, 55, 0
7, 57600, Note_on_c, 5, 58, 0
7, 58080, Note_on_c, 5, 60, 44
7, 58320, Note_on_c, 5, 57, 66
7, 58560, Note_on_c, 5, 57, 0
7, 58560, Note_on_c, 5, 60, 0
7, 59040, Note_on_c, 5, 60, 44
7, 59280, Note_on_c, 5, 57, 66
7, 59520, Note_on_c, 5, 57, 0
7, 59520, Note_on_c, 5, 60, 0
7, 60000, Note_on_c, 5, 58, 66
7, 60240, Note_on_c, 5, 53, 38
7, 60480, Note_on_c, 5, 53, 0
7, 60480, Note_on_c, 5, 58, 0
7, 60960, Note_on_c, 5, 58, 66
7, 61200, Note_on_c, 5, 52, 38
7, 61440, Note_on_c, 5, 52, 0
7, 61440, Note_on_c, 5, 58, 0
7, 61920, Note_on_c, 5, 60, 44
7, 62160, Note_on_c, 5, 57, 66
7, 62400, Note_on_c, 5, 57, 0
7, 62400, Note_on_c, 5, 60, 0
7, 62880, Note_on_c, 5, 60, 58
7, 62880, Note_on_c, 5, 53, 70
7, 62960, Note_on_c, 5, 60, 0
7, 62992, Note_on_c, 5, 53, 0
7, 63840, Note_on_c, 5, 58, 66
7, 64080, Note_on_c, 5, 53, 38
7, 64320, Note_on_c, 5, 53, 0
7, 64320, Note_on_c, 5, 58, 0
7, 64560, Note_on_c, 5, 52, 70
7, 64800, Control_c, 5, 64, 127
7, 64800, Note_on_c, 5, 55, 45
7, 65040, Note_on_c, 5, 58, 43
7, 65084, Note_on_c, 5, 55, 0
7, 65084, Note_on_c, 5, 52, 0
7, 65280, Note_on_c, 5, 58, 0
7, 65280, Control_c, 5, 64, 0
7, 65760, Note_on_c, 5, 60, 66
7, 66000, Note_on_c, 5, 53, 38
7, 66240, Note_on_c, 5, 53, 0
7, 66240, Note_on_c, 5, 60, 0
7, 66720, Note_on_c, 5, 60, 58
7, 66720, Note_on_c, 5, 53, 70
7, 66800, Note_on_c, 5, 60, 0
7, 66832, Note_on_c, 5, 53, 0
7, 67680, Note_on_c, 5, 58, 66
7, 67920, Note_on_c, 5, 53, 38
7, 68160, Note_on_c, 5, 53, 0
7, 68160, Note_on_c, 5, 58, 0
7, 68640, Note_on_c, 5, 58, 44
7, 68880, Note_on_c, 5, 55, 66
7, 69120, Note_on_c, 5, 55, 0
7, 69120, Note_on_c, 5, 58, 0
7, 69600, Note_on_c, 5, 60, 58
7, 69600, Note_on_c, 5, 53, 70
7, 69680, Note_on_c, 5, 60, 0
7, 69712, Note_on_c, 5, 53, 0
7, 70320, Note_on_c, 5, 53, 70
7, 70560, Control_c, 5, 64, 127
7, 70560, Note_on_c, 5, 56, 45
7, 70800, Note_on_c, 5, 59, 43
7, 70844, Note_on_c, 5, 56, 0
7, 70844, Note_on_c, 5, 53, 0
7, 71040, Note_on_c, 5, 59, 0
7, 71040, Control_c, 5, 64, 0
7, 71280, Note_on_c, 5, 52, 70
7, 71520, Control_c, 5, 64, 127
7, 71520, Note_on_c, 5, 55, 45
7, 71760, Note_on_c, 5, 58, 43
7, 71804, Note_on_c, 5, 55, 0
7, 71804, Note_on_c, 5, 52, 0
7, 72020, Note_on_c, 5, 58, 0
7, 72240, Note_on_c, 5, 52, 64
7, 72480, Note_on_c, 5, 55, 47
7, 72604, Note_on_c, 5, 52, 0
7, 72688, Note_on_c, 5, 55, 0
7, 72720, Note_on_c, 5, 58, 55
7, 72840, Note_on_c, 5, 58, 0
7, 72960, Control_c, 5, 64, 0
7, 73200, Note_on_c, 5, 53, 70
7, 73440, Control_c, 5, 64, 127
7, 73440, Note_on_c, 5, 57, 45
7, 73680, Note_on_c, 5, 60, 43
7, 73724, Note_on_c, 5, 57, 0
7, 73724, Note_on_c, 5, 53, 0
7, 73920, Note_on_c, 5, 60, 0
7, 73920, Control_c, 5, 64, 0
7, 74400, Note_on_c, 5, 60, 58
7, 74400, Note_on_c, 5, 53, 70
7, 74480, Note_on_c, 5, 60, 0
7, 74512, Note_on_c, 5, 53, 0
7, 75360, Note_on_c, 5, 58, 44
7, 75600, Note_on_c, 5, 55, 66
7, 75840, Note_on_c, 5, 55, 0
7, 75840, Note_on_c, 5, 58, 0
7, 76080, Note_on_c, 5, 55, 59
7, 76080, Note_on_c, 5, 58, 51
7, 76748, Note_on_c, 5, 55, 0
7, 76760, Note_on_c, 5, 58, 0
7, 77280, Note_on_c, 5, 60, 44
7, 77520, Note_on_c, 5, 57, 66
7, 77760, Note_on_c, 5, 57, 0
7, 77760, Note_on_c, 5, 60, 0
7, 78000, Note_on_c, 5, 57, 59
7, 78000, Note_on_c, 5, 60, 51
7, 78668, Note_on_c, 5, 57, 0
7, 78680, Note_on_c, 5, 60, 0
7, 79200, Note_on_c, 5, 58, 58
7, 79200, Note_on_c, 5, 53, 70
7, 79280, Note_on_c, 5, 58, 0
7, 79312, Note_on_c, 5, 53, 0
7, 80160, Note_on_c, 5, 58, 66
7, 80400, Note_on_c, 5, 52, 38
7, 80640, Note_on_c, 5, 52, 0
7, 80640, Note_on_c, 5, 58, 0
7, 81120, Note_on_c, 5, 60, 58
7, 81120, Note_on_c, 5, 53, 70
7, 81200, Note_on_c, 5, 60, 0
7, 81232, Note_on_c, 5, 53, 0
7, 81840, Note_on_c, 5, 57, 59
7, 81840, Note_on_c, 5, 60, 51
7, 82508, Note_on_c, 5, 57, 0
7, 82520, Note_on_c, 5, 60, 0
7, 83040, Note_on_c, 5, 58, 44
7, 83280, Note_on_c, 5, 55, 66
7, 83520, Note_on_c, 5, 55, 0
7, 83520, Note_on_c, 5, 58, 0
7, 84000, Note_on_c, 5, 58, 58
7, 84000, Note_on_c, 5, 52, 70
7, 84080, Note_on_c, 5, 58, 0
7, 84112, Note_on_c, 5, 52, 0
7, 84960, Note_on_c, 5, 60, 44
7, 85200, Note_on_c, 5, 57, 66
7, 85440, Note_on_c, 5, 57, 0
7, 85440, Note_on_c, 5, 60, 0
7, 85920, Note_on_c, 5, 59, 44
7, 86160, Note_on_c, 5, 56, 66
7, 86400, Note_on_c, 5, 56, 0
7, 86400, Note_on_c, 5, 59, 0
7, 86880, Note_on_c, 5, 58, 66
7, 87120, Note_on_c, 5, 52, 38
7, 87360, Note_on_c, 5, 55, 45
7, 87472, Note_on_c, 5, 58, 0
7, 87600, Note_on_c, 5, 58, 62
7, 88320, Note_on_c, 5, 58, 0
7, 88320, Note_on_c, 5, 55, 0
7, 88320, Note_on_c, 5, 52, 0
7, 88800, Note_on_c, 5, 60, 44
7, 89040, Note_on_c, 5, 57, 66
7, 89280, Note_on_c, 5, 57, 0
7, 89280, Note_on_c, 5, 60, 0
7, 89760, Note_on_c, 5, 60, 66
7, 90000, Note_on_c, 5, 53, 38
7, 90240, Note_on_c, 5, 53, 0
7, 90240, Note_on_c, 5, 60, 0
7, 90720, Note_on_c, 5, 58, 58
7, 90720, Note_on_c, 5, 53, 70
7, 90800, Note_on_c, 5, 58, 0
7, 90832, Note_on_c, 5, 53, 0
7, 91440, Note_on_c, 5, 55, 59
7, 91440, Note_on_c, 5, 58, 51
7, 92108, Note_on_c, 5, 55, 0
7, 92120, Note_on_c, 5, 58, 0
7, 92640, Note_on_c, 5, 60, 66
7, 92880, Note_on_c, 5, 53, 38
7, 93120, Note_on_c, 5, 53, 0
7, 93120, Note_on_c, 5, 60, 0
7, 93600, Note_on_c, 5, 60, 58
7, 93600, Note_on_c, 5, 53, 70
7, 93680, Note_on_c, 5, 60, 0
7, 93712, Note_on_c, 5, 53, 0
7, 94560, Note_on_c, 5, 58, 66
7, 94800, Note_on_c, 5, 53, 38
7, 95040, Note_on_c, 5, 53, 0
7, 95040, Note_on_c, 5, 58, 0
7, 95520, Note_on_c, 5, 58, 44
7, 95760, Note_on_c, 5, 55, 66
7, 96000, Note_on_c, 5, 55, 0
7, 96000, Note_on_c, 5, 58, 0
7, 96240, Note_on_c, 5, 53, 70
7, 96480, Control_c, 5, 64, 127
7, 96480, Note_on_c, 5, 57, 45
7, 96720, Note_on_c, 5, 60, 43
7, 96764, Note_on_c, 5, 57, 0
7, 96764, Note_on_c, 5, 53, 0
7, 96960, Note_on_c, 5, 60, 0
7, 96960, Control_c, 5, 64, 0
7, 97440, Note_on_c, 5, 60, 66
7, 97680, Note_on_c, 5, 53, 38
7, 97920, Note_on_c, 5, 53, 0
7, 97920, Note_on_c, 5, 60, 0
7, 98160, Note_on_c, 5, 53, 70
7, 98400, Control_c, 5, 64, 127
7, 98400, Note_on_c, 5, 55, 45
7, 98640, Note_on_c, 5, 58, 43
7, 98684, Note_on_c, 5, 55, 0
7, 98684, Note_on_c, 5, 53, 0
7, 98880, Note_on_c, 5, 58, 0
7, 98880, Control_c, 5, 64, 0
7, 99360, Note_on_c, 5, 58, 58
7, 99360, Note_on_c, 5, 52, 70
7, 99440, Note_on_c, 5, 58, 0
7, 99472, Note_on_c, 5, 52, 0
7, 100320, Note_on_c, 5, 55, 48
7, 100320, Note_on_c, 5, 51, 62
7, 100412, Note_on_c, 5, 51, 0
7, 100440, Note_on_c, 5, 55, 0
7, 101280, Note_on_c, 5, 57, 66
7, 101520, Note_on_c, 5, 50, 38
7, 101760, Note_on_c, 5, 50, 0
7, 101760, Note_on_c, 5, 57, 0
7, 102000, Note_on_c, 5, 53, 70
7, 102240, Control_c, 5, 64, 127
7, 102240, Note_on_c, 5, 57, 45
7, 102480, Note_on_c, 5, 60, 43
7, 102524, Note_on_c, 5, 57, 0
7, 102524, Note_on_c, 5, 53, 0
7, 102720, Note_on_c, 5, 60, 0
7, 102720, Control_c, 5, 64, 0
7, 103200, Note_on_c, 5, 60, 66
7, 103440, Note_on_c, 5, 53, 38
7, 103680, Note_on_c, 5, 53, 0
7, 103680, Note_on_c, 5, 60, 0
7, 104160, Note_on_c, 5, 58, 44
7, 104400, Note_on_c, 5, 55, 66
7, 104640, Note_on_c, 5, 55, 0
7, 104640, Note_on_c, 5, 58, 0
7, 105120, Note_on_c, 5, 58, 44
7, 105360, Note_on_c, 5, 55, 66
7, 105600, Note_on_c, 5, 55, 0
7, 105600, Note_on_c, 5, 58, 0
7, 105840, Note_on_c, 5, 53, 70
7, 106080, Control_c, 5, 64, 127
7, 106080, Note_on_c, 5, 57, 45
7, 106320, Note_on_c, 5, 60, 43
7, 106364, Note_on_c, 5, 57, 0
7, 106364, Note_on_c, 5, 53, 0
7, 106560, Note_on_c, 5, 60, 0
7, 106560, Control_c, 5, 64, 0
7, 107040, Note_on_c, 5, 60, 44
7, 107280, Note_on_c, 5, 57, 66
7, 107520, Note_on_c, 5, 57, 0
7, 107520, Note_on_c, 5, 60, 0
7, 107760, Note_on_c, 5, 53, 70
7, 108000, Control_c, 5, 64, 127
7, 108000, Note_on_c, 5, 55, 45
7, 108240, Note_on_c, 5, 58, 43
7, 108284, Note_on_c, 5, 55, 0
7, 108284, Note_on_c, 5, 53, 0
7, 108480, Note_on_c, 5, 58, 0
7, 108480, Control_c, 5, 64, 0
7, 108960, Note_on_c, 5, 58, 58
7, 108960, Note_on_c, 5, 52, 70
7, 109040, Note_on_c, 5, 58, 0
7, 109072, Note_on_c, 5, 52, 0
7, 109920, Note_on_c, 5, 60, 44
7, 110160, Note_on_c, 5, 57, 66
7, 110400, Note_on_c, 5, 57, 0
7, 110400, Note_on_c, 5, 60, 0
7, 110880, Note_on_c, 5, 60, 66
7, 111120, Note_on_c, 5, 53, 38
7, 111360, Note_on_c, 5, 53, 0
7, 111360, Note_on_c, 5, 60, 0
7, 111840, Note_on_c, 5, 58, 58
7, 111840, Note_on_c, 5, 53, 70
7, 111920, Note_on_c, 5, 58, 0
7, 111952, Note_on_c, 5, 53, 0
7, 112800, Note_on_c, 5, 58, 58
7, 112800, Note_on_c, 5, 52, 70
7, 112880, Note_on_c, 5, 58, 0
7, 112912, Note_on_c, 5, 52, 0
7, 113760, Note_on_c, 5, 57, 66
7, 114000, Note_on_c, 5, 50, 38
7, 114240, Note_on_c, 5, 50, 0
7, 114240, Note_on_c, 5, 57, 0
7, 114720, Note_on_c, 5, 55, 58
7, 114720, Note_on_c, 5, 49, 70
7, 114800, Note_on_c, 5, 55, 0
7, 114832, Note_on_c, 5, 49, 0
7, 115440, Note_on_c, 5, 50, 70
7, 115680, Control_c, 5, 64, 127
7, 115680, Note_on_c, 5, 53, 45
7, 115920, Note_on_c, 5, 57, 43
7, 115964, Note_on_c, 5, 53, 0
7, 115964, Note_on_c, 5, 50, 0
7, 116180, Note_on_c, 5, 57, 0
7, 116400, Note_on_c, 5, 50, 64
7, 116640, Note_on_c, 5, 53, 47
7, 116764, Note_on_c, 5, 50, 0
7, 116848, Note_on_c, 5, 53, 0
7, 116880, Note_on_c, 5, 57, 55
7, 117000, Note_on_c, 5, 57, 0
7, 117120, Control_c, 5, 64, 0
7, 117600, Note_on_c, 5, 58, 66
7, 117840, Note_on_c, 5, 52, 38
7, 118080, Note_on_c, 5, 55, 45
7, 118192, Note_on_c, 5, 58, 0
7, 118320, Note_on_c, 5, 58, 62
7, 119040, Note_on_c, 5, 58, 0
7, 119040, Note_on_c, 5, 55, 0
7, 119040, Note_on_c, 5, 52, 0
7, 119280, Note_on_c, 5, 52, 64
7, 119520, Control_c, 5, 64, 127
7, 119520, Note_on_c, 5, 55, 73
7, 119732, Note_on_c, 5, 55, 0
7, 119760, Note_on_c, 5, 58, 48
7, 119808, Note_on_c, 5, 52, 0
7, 119960, Note_on_c, 5, 58, 0
7, 120240, Note_on_c, 5, 52, 44
7, 120480, Note_on_c, 5, 55, 54
7, 120652, Note_on_c, 5, 55, 0
7, 120720, Note_on_c, 5, 58, 52
7, 120960, Note_on_c, 5, 58, 0
7, 120960, Note_on_c, 5, 52, 0
7, 120960, Control_c, 5, 64, 0
7, 121440, Note_on_c, 5, 58, 44
7, 121680, Note_on_c, 5, 55, 66
7, 121920, Note_on_c, 5, 55, 0
7, 121920, Note_on_c, 5, 58, 0
7, 122160, Note_on_c, 5, 52, 70
7, 122400, Control_c, 5, 64, 127
7, 122400, Note_on_c, 5, 55, 45
7, 122640, Note_on_c, 5, 58, 43
7, 122684, Note_on_c, 5, 55, 0
7, 122684, Note_on_c, 5, 52, 0
7, 122880, Note_on_c, 5, 58, 0
7, 122880, Control_c, 5, 64, 0
7, 124800, Control_c, 5, 64, 0
7, 124800, End_track
8, 0, Start_track
8, 0, Title_t, "Strings "
8, 0, Program_c, 6, 48
8, 0, Control_c, 6, 7, 102
8, 0, Control_c, 6, 10, 127
8, 0, Control_c, 6, 121, 0
8, 40, Control_c, 6, 123, 0
8, 120, Control_c, 6, 91, 65
8, 160, Control_c, 6, 64, 0
8, 49924, Note_on_c, 6, 70, 33
8, 49928, Note_on_c, 6, 64, 38
8, 51840, Note_on_c, 6, 64, 0
8, 51840, Note_on_c, 6, 70, 0
8, 51844, Note_on_c, 6, 70, 33
8, 51848, Note_on_c, 6, 64, 38
8, 53760, Note_on_c, 6, 64, 0
8, 53760, Note_on_c, 6, 70, 0
8, 53764, Note_on_c, 6, 70, 33
8, 53768, Note_on_c, 6, 64, 38
8, 54720, Note_on_c, 6, 64, 0
8, 54720, Note_on_c, 6, 70, 0
8, 54724, Note_on_c, 6, 70, 33
8, 54728, Note_on_c, 6, 64, 38
8, 55680, Note_on_c, 6, 64, 0
8, 55680, Note_on_c, 6, 70, 0
8, 55684, Note_on_c, 6, 70, 33
8, 55688, Note_on_c, 6, 64, 38
8, 57600, Note_on_c, 6, 64, 0
8, 57600, Note_on_c, 6, 70, 0
8, 117124, Note_on_c, 6, 70, 33
8, 117128, Note_on_c, 6, 64, 38
8, 119040, Note_on_c, 6, 64, 0
8, 119040, Note_on_c, 6, 70, 0
8, 119044, Note_on_c, 6, 70, 33
8, 119048, Note_on_c, 6, 64, 38
8, 120960, Note_on_c, 6, 64, 0
8, 120960, Note_on_c, 6, 70, 0
8, 120964, Note_on_c, 6, 70, 33
8, 120968, Note_on_c, 6, 64, 38
8, 121920, Note_on_c, 6, 64, 0
8, 121920, Note_on_c, 6, 70, 0
8, 121924, Note_on_c, 6, 70, 33
8, 121928, Note_on_c, 6, 64, 38
8, 122880, Note_on_c, 6, 64, 0
8, 122880, Note_on_c, 6, 70, 0
8, 122884, Note_on_c, 6, 69, 48
8, 122888, Note_on_c, 6, 62, 53
8, 123360, Note_on_c, 6, 62, 0
8, 123360, Note_on_c, 6, 69, 0
8, 124800, Control_c, 6, 64, 0
8, 124800, End_track
9, 0, Start_track
9, 0, Title_t, "Bass    "
9, 0, Program_c, 7, 35
9, 0, Control_c, 7, 7, 97
9, 0, Control_c, 7, 10, 0
9, 0, Control_c, 7, 121, 0
9, 40, Control_c, 7, 123, 0
9, 120, Control_c, 7, 91, 65
9, 160, Control_c, 7, 64, 0
9, 3840, Note_on_c, 7, 29, 98
9, 4452, Note_on_c, 7, 29, 0
9, 4560, Note_on_c, 7, 29, 87
9, 4720, Note_on_c, 7, 29, 0
9, 4800, Note_on_c, 7, 38, 76
9, 5424, Note_on_c, 7, 38, 0
9, 5520, Note_on_c, 7, 38, 100
9, 5664, Note_on_c, 7, 38, 0
9, 5760, Note_on_c, 7, 31, 98
9, 6372, Note_on_c, 7, 31, 0
9, 6480, Note_on_c, 7, 31, 87
9, 6640, Note_on_c, 7, 31, 0
9, 6720, Note_on_c, 7, 36, 98
9, 7332, Note_on_c, 7, 36, 0
9, 7440, Note_on_c, 7, 36, 87
9, 7600, Note_on_c, 7, 36, 0
9, 7680, Note_on_c, 7, 29, 98
9, 8292, Note_on_c, 7, 29, 0
9, 8400, Note_on_c, 7, 29, 87
9, 8560, Note_on_c, 7, 29, 0
9, 8640, Note_on_c, 7, 38, 76
9, 9264, Note_on_c, 7, 38, 0
9, 9360, Note_on_c, 7, 38, 100
9, 9504, Note_on_c, 7, 38, 0
9, 9600, Note_on_c, 7, 43, 87
9, 10300, Note_on_c, 7, 43, 0
9, 10320, Note_on_c, 7, 38, 82
9, 10540, Note_on_c, 7, 38, 0
9, 10560, Note_on_c, 7, 36, 87
9, 11260, Note_on_c, 7, 36, 0
9, 11280, Note_on_c, 7, 31, 82
9, 11500, Note_on_c, 7, 31, 0
9, 11520, Note_on_c, 7, 29, 76
9, 12144, Note_on_c, 7, 29, 0
9, 12240, Note_on_c, 7, 29, 100
9, 12384, Note_on_c, 7, 29, 0
9, 12480, Note_on_c, 7, 38, 76
9, 13104, Note_on_c, 7, 38, 0
9, 13200, Note_on_c, 7, 38, 100
9, 13344, Note_on_c, 7, 38, 0
9, 13440, Note_on_c, 7, 43, 87
9, 14140, Note_on_c, 7, 43, 0
9, 14160, Note_on_c, 7, 38, 82
9, 14380, Note_on_c, 7, 38, 0
9, 14400, Note_on_c, 7, 36, 76
9, 15024, Note_on_c, 7, 36, 0
9, 15120, Note_on_c, 7, 36, 100
9, 15264, Note_on_c, 7, 36, 0
9, 15360, Note_on_c, 7, 29, 98
9, 15972, Note_on_c, 7, 29, 0
9, 16080, Note_on_c, 7, 29, 87
9, 16240, Note_on_c, 7, 29, 0
9, 16320, Note_on_c, 7, 37, 98
9, 16932, Note_on_c, 7, 37, 0
9, 17040, Note_on_c, 7, 37, 87
9, 17200, Note_on_c, 7, 37, 0
9, 17280, Note_on_c, 7, 36, 95
9, 17928, Note_on_c, 7, 36, 0
9, 18000, Note_on_c, 7, 36, 85
9, 18152, Note_on_c, 7, 36, 0
9, 18240, Note_on_c, 7, 36, 89
9, 18896, Note_on_c, 7, 36, 0
9, 18960, Note_on_c, 7, 36, 87
9, 19156, Note_on_c, 7, 36, 0
9, 19200, Note_on_c, 7, 29, 98
9, 19812, Note_on_c, 7, 29, 0
9, 19920, Note_on_c, 7, 29, 87
9, 20080, Note_on_c, 7, 29, 0
9, 20160, Note_on_c, 7, 38, 87
9, 20860, Note_on_c, 7, 38, 0
9, 20880, Note_on_c, 7, 33, 82
9, 21100, Note_on_c, 7, 33, 0
9, 21120, Note_on_c, 7, 31, 98
9, 21732, Note_on_c, 7, 31, 0
9, 21840, Note_on_c, 7, 31, 87
9, 22000, Note_on_c, 7, 31, 0
9, 22080, Note_on_c, 7, 36, 98
9, 22692, Note_on_c, 7, 36, 0
9, 22800, Note_on_c, 7, 36, 87
9, 22960, Note_on_c, 7, 36, 0
9, 23040, Note_on_c, 7, 41, 87
9, 23740, Note_on_c, 7, 41, 0
9, 23760, Note_on_c, 7, 36, 82
9, 23980, Note_on_c, 7, 36, 0
9, 24000, Note_on_c, 7, 38, 87
9, 24700, Note_on_c, 7, 38, 0
9, 24720, Note_on_c, 7, 33, 82
9, 24940, Note_on_c, 7, 33, 0
9, 24960, Note_on_c, 7, 43, 87
9, 25660, Note_on_c, 7, 43, 0
9, 25680, Note_on_c, 7, 38, 82
9, 25900, Note_on_c, 7, 38, 0
9, 25920, Note_on_c, 7, 36, 87
9, 26620, Note_on_c, 7, 36, 0
9, 26640, Note_on_c, 7, 31, 82
9, 26860, Note_on_c, 7, 31, 0
9, 26880, Note_on_c, 7, 29, 76
9, 27504, Note_on_c, 7, 29, 0
9, 27600, Note_on_c, 7, 29, 100
9, 27744, Note_on_c, 7, 29, 0
9, 27840, Note_on_c, 7, 38, 98
9, 28452, Note_on_c, 7, 38, 0
9, 28560, Note_on_c, 7, 38, 87
9, 28720, Note_on_c, 7, 38, 0
9, 28800, Note_on_c, 7, 31, 76
9, 29424, Note_on_c, 7, 31, 0
9, 29520, Note_on_c, 7, 31, 100
9, 29664, Note_on_c, 7, 31, 0
9, 29760, Note_on_c, 7, 36, 98
9, 30372, Note_on_c, 7, 36, 0
9, 30480, Note_on_c, 7, 36, 87
9, 30640, Note_on_c, 7, 36, 0
9, 30720, Note_on_c, 7, 29, 98
9, 31332, Note_on_c, 7, 29, 0
9, 31440, Note_on_c, 7, 29, 87
9, 31600, Note_on_c, 7, 29, 0
9, 31680, Note_on_c, 7, 37, 87
9, 32380, Note_on_c, 7, 37, 0
9, 32400, Note_on_c, 7, 32, 82
9, 32620, Note_on_c, 7, 32, 0
9, 32640, Note_on_c, 7, 36, 95
9, 33288, Note_on_c, 7, 36, 0
9, 33360, Note_on_c, 7, 36, 85
9, 33512, Note_on_c, 7, 36, 0
9, 33600, Note_on_c, 7, 36, 89
9, 34256, Note_on_c, 7, 36, 0
9, 34320, Note_on_c, 7, 36, 87
9, 34516, Note_on_c, 7, 36, 0
9, 34560, Note_on_c, 7, 29, 98
9, 35172, Note_on_c, 7, 29, 0
9, 35280, Note_on_c, 7, 29, 87
9, 35440, Note_on_c, 7, 29, 0
9, 35520, Note_on_c, 7, 38, 98
9, 36132, Note_on_c, 7, 38, 0
9, 36240, Note_on_c, 7, 38, 87
9, 36400, Note_on_c, 7, 38, 0
9, 36480, Note_on_c, 7, 43, 87
9, 37180, Note_on_c, 7, 43, 0
9, 37200, Note_on_c, 7, 38, 82
9, 37420, Note_on_c, 7, 38, 0
9, 37440, Note_on_c, 7, 36, 98
9, 38052, Note_on_c, 7, 36, 0
9, 38160, Note_on_c, 7, 36, 87
9, 38320, Note_on_c, 7, 36, 0
9, 38400, Note_on_c, 7, 29, 98
9, 39012, Note_on_c, 7, 29, 0
9, 39120, Note_on_c, 7, 29, 87
9, 39280, Note_on_c, 7, 29, 0
9, 39360, Note_on_c, 7, 38, 76
9, 39984, Note_on_c, 7, 38, 0
9, 40080, Note_on_c, 7, 38, 100
9, 40224, Note_on_c, 7, 38, 0
9, 40320, Note_on_c, 7, 31, 76
9, 40944, Note_on_c, 7, 31, 0
9, 41040, Note_on_c, 7, 31, 100
9, 41184, Note_on_c, 7, 31, 0
9, 41280, Note_on_c, 7, 36, 87
9, 41980, Note_on_c, 7, 36, 0
9, 42000, Note_on_c, 7, 31, 82
9, 42220, Note_on_c, 7, 31, 0
9, 42240, Note_on_c, 7, 41, 87
9, 42940, Note_on_c, 7, 41, 0
9, 42960, Note_on_c, 7, 36, 82
9, 43180, Note_on_c, 7, 36, 0
9, 43200, Note_on_c, 7, 38, 76
9, 43824, Note_on_c, 7, 38, 0
9, 43920, Note_on_c, 7, 38, 100
9, 44064, Note_on_c, 7, 38, 0
9, 44160, Note_on_c, 7, 31, 98
9, 44772, Note_on_c, 7, 31, 0
9, 44880, Note_on_c, 7, 31, 87
9, 45040, Note_on_c, 7, 31, 0
9, 45120, Note_on_c, 7, 36, 76
9, 45744, Note_on_c, 7, 36, 0
9, 45840, Note_on_c, 7, 36, 100
9, 45984, Note_on_c, 7, 36, 0
9, 46080, Note_on_c, 7, 29, 98
9, 46692, Note_on_c, 7, 29, 0
9, 46800, Note_on_c, 7, 29, 87
9, 46960, Note_on_c, 7, 29, 0
9, 47040, Note_on_c, 7, 39, 87
9, 47740, Note_on_c, 7, 39, 0
9, 47760, Note_on_c, 7, 34, 82
9, 47980, Note_on_c, 7, 34, 0
9, 48000, Note_on_c, 7, 41, 87
9, 48700, Note_on_c, 7, 41, 0
9, 48720, Note_on_c, 7, 36, 82
9, 48940, Note_on_c, 7, 36, 0
9, 48960, Note_on_c, 7, 41, 100
9, 49152, Note_on_c, 7, 41, 0
9, 49200, Note_on_c, 7, 41, 98
9, 49480, Note_on_c, 7, 41, 0
9, 49680, Note_on_c, 7, 41, 102
9, 49900, Note_on_c, 7, 41, 0
9, 49920, Note_on_c, 7, 36, 100
9, 50560, Note_on_c, 7, 36, 0
9, 50640, Note_on_c, 7, 36, 89
9, 50884, Note_on_c, 7, 36, 0
9, 50884, Note_on_c, 7, 43, 85
9, 51496, Note_on_c, 7, 43, 0
9, 51600, Note_on_c, 7, 43, 82
9, 51840, Note_on_c, 7, 43, 0
9, 51840, Note_on_c, 7, 36, 87
9, 52540, Note_on_c, 7, 36, 0
9, 52560, Note_on_c, 7, 31, 82
9, 52780, Note_on_c, 7, 31, 0
9, 52800, Note_on_c, 7, 36, 100
9, 52992, Note_on_c, 7, 36, 0
9, 53040, Note_on_c, 7, 36, 98
9, 53320, Note_on_c, 7, 36, 0
9, 53520, Note_on_c, 7, 36, 102
9, 53740, Note_on_c, 7, 36, 0
9, 53760, Note_on_c, 7, 36, 95
9, 54392, Note_on_c, 7, 36, 0
9, 54480, Note_on_c, 7, 36, 98
9, 54720, Note_on_c, 7, 36, 0
9, 54720, Note_on_c, 7, 36, 95
9, 55352, Note_on_c, 7, 36, 0
9, 55440, Note_on_c, 7, 36, 98
9, 55680, Note_on_c, 7, 36, 0
9, 55680, Note_on_c, 7, 36, 100
9, 56320, Note_on_c, 7, 36, 0
9, 56400, Note_on_c, 7, 36, 89
9, 56644, Note_on_c, 7, 36, 0
9, 56644, Note_on_c, 7, 43, 85
9, 57256, Note_on_c, 7, 43, 0
9, 57360, Note_on_c, 7, 43, 82
9, 57600, Note_on_c, 7, 43, 0
9, 57600, Note_on_c, 7, 29, 98
9, 58212, Note_on_c, 7, 29, 0
9, 58320, Note_on_c, 7, 29, 87
9, 58480, Note_on_c, 7, 29, 0
9, 58560, Note_on_c, 7, 38, 87
9, 59260, Note_on_c, 7, 38, 0
9, 59280, Note_on_c, 7, 33, 82
9, 59500, Note_on_c, 7, 33, 0
9, 59520, Note_on_c, 7, 43, 87
9, 60220, Note_on_c, 7, 43, 0
9, 60240, Note_on_c, 7, 38, 82
9, 60460, Note_on_c, 7, 38, 0
9, 60480, Note_on_c, 7, 36, 87
9, 61180, Note_on_c, 7, 36, 0
9, 61200, Note_on_c, 7, 31, 82
9, 61420, Note_on_c, 7, 31, 0
9, 61440, Note_on_c, 7, 29, 76
9, 62064, Note_on_c, 7, 29, 0
9, 62160, Note_on_c, 7, 29, 100
9, 62304, Note_on_c, 7, 29, 0
9, 62400, Note_on_c, 7, 38, 87
9, 63100, Note_on_c, 7, 38, 0
9, 63120, Note_on_c, 7, 33, 82
9, 63340, Note_on_c, 7, 33, 0
9, 63360, Note_on_c, 7, 31, 76
9, 63984, Note_on_c, 7, 31, 0
9, 64080, Note_on_c, 7, 31, 100
9, 64224, Note_on_c, 7, 31, 0
9, 64320, Note_on_c, 7, 36, 87
9, 65020, Note_on_c, 7, 36, 0
9, 65040, Note_on_c, 7, 31, 82
9, 65260, Note_on_c, 7, 31, 0
9, 65280, Note_on_c, 7, 29, 98
9, 65892, Note_on_c, 7, 29, 0
9, 66000, Note_on_c, 7, 29, 87
9, 66160, Note_on_c, 7, 29, 0
9, 66240, Note_on_c, 7, 38, 76
9, 66864, Note_on_c, 7, 38, 0
9, 66960, Note_on_c, 7, 38, 100
9, 67104, Note_on_c, 7, 38, 0
9, 67200, Note_on_c, 7, 31, 98
9, 67812, Note_on_c, 7, 31, 0
9, 67920, Note_on_c, 7, 31, 87
9, 68080, Note_on_c, 7, 31, 0
9, 68160, Note_on_c, 7, 36, 98
9, 68772, Note_on_c, 7, 36, 0
9, 68880, Note_on_c, 7, 36, 87
9, 69040, Note_on_c, 7, 36, 0
9, 69120, Note_on_c, 7, 29, 76
9, 69744, Note_on_c, 7, 29, 0
9, 69840, Note_on_c, 7, 29, 100
9, 69984, Note_on_c, 7, 29, 0
9, 70080, Note_on_c, 7, 37, 87
9, 70780, Note_on_c, 7, 37, 0
9, 70800, Note_on_c, 7, 32, 82
9, 71020, Note_on_c, 7, 32, 0
9, 71040, Note_on_c, 7, 36, 95
9, 71688, Note_on_c, 7, 36, 0
9, 71760, Note_on_c, 7, 36, 85
9, 71912, Note_on_c, 7, 36, 0
9, 72000, Note_on_c, 7, 36, 89
9, 72656, Note_on_c, 7, 36, 0
9, 72720, Note_on_c, 7, 36, 87
9, 72916, Note_on_c, 7, 36, 0
9, 72960, Note_on_c, 7, 29, 76
9, 73584, Note_on_c, 7, 29, 0
9, 73680, Note_on_c, 7, 29, 100
9, 73824, Note_on_c, 7, 29, 0
9, 73920, Note_on_c, 7, 38, 87
9, 74620, Note_on_c, 7, 38, 0
9, 74640, Note_on_c, 7, 33, 82
9, 74860, Note_on_c, 7, 33, 0
9, 74880, Note_on_c, 7, 31, 76
9, 75504, Note_on_c, 7, 31, 0
9, 75600, Note_on_c, 7, 31, 100
9, 75744, Note_on_c, 7, 31, 0
9, 75840, Note_on_c, 7, 36, 76
9, 76464, Note_on_c, 7, 36, 0
9, 76560, Note_on_c, 7, 36, 100
9, 76704, Note_on_c, 7, 36, 0
9, 76800, Note_on_c, 7, 29, 76
9, 77424, Note_on_c, 7, 29, 0
9, 77520, Note_on_c, 7, 29, 100
9, 77664, Note_on_c, 7, 29, 0
9, 77760, Note_on_c, 7, 38, 76
9, 78384, Note_on_c, 7, 38, 0
9, 78480, Note_on_c, 7, 38, 100
9, 78624, Note_on_c, 7, 38, 0
9, 78720, Note_on_c, 7, 43, 87
9, 79420, Note_on_c, 7, 43, 0
9, 79440, Note_on_c, 7, 38, 82
9, 79660, Note_on_c, 7, 38, 0
9, 79680, Note_on_c, 7, 36, 87
9, 80380, Note_on_c, 7, 36, 0
9, 80400, Note_on_c, 7, 31, 82
9, 80620, Note_on_c, 7, 31, 0
9, 80640, Note_on_c, 7, 41, 87
9, 81340, Note_on_c, 7, 41, 0
9, 81360, Note_on_c, 7, 36, 82
9, 81580, Note_on_c, 7, 36, 0
9, 81600, Note_on_c, 7, 38, 76
9, 82224, Note_on_c, 7, 38, 0
9, 82320, Note_on_c, 7, 38, 100
9, 82464, Note_on_c, 7, 38, 0
9, 82560, Note_on_c, 7, 43, 87
9, 83260, Note_on_c, 7, 43, 0
9, 83280, Note_on_c, 7, 38, 82
9, 83500, Note_on_c, 7, 38, 0
9, 83520, Note_on_c, 7, 36, 98
9, 84132, Note_on_c, 7, 36, 0
9, 84240, Note_on_c, 7, 36, 87
9, 84400, Note_on_c, 7, 36, 0
9, 84480, Note_on_c, 7, 29, 98
9, 85092, Note_on_c, 7, 29, 0
9, 85200, Note_on_c, 7, 29, 87
9, 85360, Note_on_c, 7, 29, 0
9, 85440, Note_on_c, 7, 37, 87
9, 86140, Note_on_c, 7, 37, 0
9, 86160, Note_on_c, 7, 32, 82
9, 86380, Note_on_c, 7, 32, 0
9, 86400, Note_on_c, 7, 36, 98
9, 87060, Note_on_c, 7, 36, 0
9, 87120, Note_on_c, 7, 36, 91
9, 87224, Note_on_c, 7, 36, 0
9, 87360, Note_on_c, 7, 36, 100
9, 88052, Note_on_c, 7, 36, 0
9, 88080, Note_on_c, 7, 36, 102
9, 88248, Note_on_c, 7, 36, 0
9, 88320, Note_on_c, 7, 29, 98
9, 88932, Note_on_c, 7, 29, 0
9, 89040, Note_on_c, 7, 29, 87
9, 89200, Note_on_c, 7, 29, 0
9, 89280, Note_on_c, 7, 38, 98
9, 89892, Note_on_c, 7, 38, 0
9, 90000, Note_on_c, 7, 38, 87
9, 90160, Note_on_c, 7, 38, 0
9, 90240, Note_on_c, 7, 43, 87
9, 90940, Note_on_c, 7, 43, 0
9, 90960, Note_on_c, 7, 38, 82
9, 91180, Note_on_c, 7, 38, 0
9, 91200, Note_on_c, 7, 36, 76
9, 91824, Note_on_c, 7, 36, 0
9, 91920, Note_on_c, 7, 36, 100
9, 92064, Note_on_c, 7, 36, 0
9, 92160, Note_on_c, 7, 29, 76
9, 92784, Note_on_c, 7, 29, 0
9, 92880, Note_on_c, 7, 29, 100
9, 93024, Note_on_c, 7, 29, 0
9, 93120, Note_on_c, 7, 38, 98
9, 93732, Note_on_c, 7, 38, 0
9, 93840, Note_on_c, 7, 38, 87
9, 94000, Note_on_c, 7, 38, 0
9, 94080, Note_on_c, 7, 31, 98
9, 94692, Note_on_c, 7, 31, 0
9, 94800, Note_on_c, 7, 31, 87
9, 94960, Note_on_c, 7, 31, 0
9, 95040, Note_on_c, 7, 36, 87
9, 95740, Note_on_c, 7, 36, 0
9, 95760, Note_on_c, 7, 31, 82
9, 95980, Note_on_c, 7, 31, 0
9, 96000, Note_on_c, 7, 29, 76
9, 96624, Note_on_c, 7, 29, 0
9, 96720, Note_on_c, 7, 29, 100
9, 96864, Note_on_c, 7, 29, 0
9, 96960, Note_on_c, 7, 38, 76
9, 97584, Note_on_c, 7, 38, 0
9, 97680, Note_on_c, 7, 38, 100
9, 97824, Note_on_c, 7, 38, 0
9, 97920, Note_on_c, 7, 43, 87
9, 98620, Note_on_c, 7, 43, 0
9, 98640, Note_on_c, 7, 38, 82
9, 98860, Note_on_c, 7, 38, 0
9, 98880, Note_on_c, 7, 36, 87
9, 99580, Note_on_c, 7, 36, 0
9, 99600, Note_on_c, 7, 31, 82
9, 99820, Note_on_c, 7, 31, 0
9, 99840, Note_on_c, 7, 29, 85
9, 100320, Note_on_c, 7, 29, 0
9, 100568, Note_on_c, 7, 39, 85
9, 100792, Note_on_c, 7, 39, 0
9, 100800, Note_on_c, 7, 29, 76
9, 101424, Note_on_c, 7, 29, 0
9, 101520, Note_on_c, 7, 29, 100
9, 101664, Note_on_c, 7, 29, 0
9, 101760, Note_on_c, 7, 29, 76
9, 102384, Note_on_c, 7, 29, 0
9, 102480, Note_on_c, 7, 29, 100
9, 102624, Note_on_c, 7, 29, 0
9, 102720, Note_on_c, 7, 38, 98
9, 103332, Note_on_c, 7, 38, 0
9, 103440, Note_on_c, 7, 38, 87
9, 103600, Note_on_c, 7, 38, 0
9, 103680, Note_on_c, 7, 31, 98
9, 104292, Note_on_c, 7, 31, 0
9, 104400, Note_on_c, 7, 31, 87
9, 104560, Note_on_c, 7, 31, 0
9, 104640, Note_on_c, 7, 36, 87
9, 105340, Note_on_c, 7, 36, 0
9, 105360, Note_on_c, 7, 31, 82
9, 105580, Note_on_c, 7, 31, 0
9, 105600, Note_on_c, 7, 29, 76
9, 106224, Note_on_c, 7, 29, 0
9, 106320, Note_on_c, 7, 29, 100
9, 106464, Note_on_c, 7, 29, 0
9, 106560, Note_on_c, 7, 38, 98
9, 107172, Note_on_c, 7, 38, 0
9, 107280, Note_on_c, 7, 38, 87
9, 107440, Note_on_c, 7, 38, 0
9, 107520, Note_on_c, 7, 31, 76
9, 108144, Note_on_c, 7, 31, 0
9, 108240, Note_on_c, 7, 31, 100
9, 108384, Note_on_c, 7, 31, 0
9, 108480, Note_on_c, 7, 36, 98
9, 109092, Note_on_c, 7, 36, 0
9, 109200, Note_on_c, 7, 36, 87
9, 109360, Note_on_c, 7, 36, 0
9, 109440, Note_on_c, 7, 29, 98
9, 110052, Note_on_c, 7, 29, 0
9, 110160, Note_on_c, 7, 29, 87
9, 110320, Note_on_c, 7, 29, 0
9, 110400, Note_on_c, 7, 38, 98
9, 111012, Note_on_c, 7, 38, 0
9, 111120, Note_on_c, 7, 38, 87
9, 111280, Note_on_c, 7, 38, 0
9, 111360, Note_on_c, 7, 43, 87
9, 112060, Note_on_c, 7, 43, 0
9, 112080, Note_on_c, 7, 38, 82
9, 112300, Note_on_c, 7, 38, 0
9, 112320, Note_on_c, 7, 36, 87
9, 113020, Note_on_c, 7, 36, 0
9, 113040, Note_on_c, 7, 31, 82
9, 113260, Note_on_c, 7, 31, 0
9, 113280, Note_on_c, 7, 29, 76
9, 113904, Note_on_c, 7, 29, 0
9, 114000, Note_on_c, 7, 29, 100
9, 114144, Note_on_c, 7, 29, 0
9, 114240, Note_on_c, 7, 39, 87
9, 114940, Note_on_c, 7, 39, 0
9, 114960, Note_on_c, 7, 34, 82
9, 115180, Note_on_c, 7, 34, 0
9, 115200, Note_on_c, 7, 29, 98
9, 115860, Note_on_c, 7, 29, 0
9, 115920, Note_on_c, 7, 29, 91
9, 116024, Note_on_c, 7, 29, 0
9, 116160, Note_on_c, 7, 29, 100
9, 116852, Note_on_c, 7, 29, 0
9, 116880, Note_on_c, 7, 29, 102
9, 117048, Note_on_c, 7, 29, 0
9, 117120, Note_on_c, 7, 36, 87
9, 117820, Note_on_c, 7, 36, 0
9, 117840, Note_on_c, 7, 31, 82
9, 118060, Note_on_c, 7, 31, 0
9, 118080, Note_on_c, 7, 36, 100
9, 118272, Note_on_c, 7, 36, 0
9, 118320, Note_on_c, 7, 36, 98
9, 118600, Note_on_c, 7, 36, 0
9, 118800, Note_on_c, 7, 36, 102
9, 119020, Note_on_c, 7, 36, 0
9, 119040, Note_on_c, 7, 36, 98
9, 119760, Note_on_c, 7, 43, 95
9, 119784, Note_on_c, 7, 36, 0
9, 119976, Note_on_c, 7, 43, 0
9, 120000, Note_on_c, 7, 36, 82
9, 120464, Note_on_c, 7, 36, 0
9, 120480, Note_on_c, 7, 36, 87
9, 120700, Note_on_c, 7, 36, 0
9, 120960, Note_on_c, 7, 36, 82
9, 121680, Note_on_c, 7, 31, 98
9, 121716, Note_on_c, 7, 36, 0
9, 121832, Note_on_c, 7, 31, 0
9, 121920, Note_on_c, 7, 36, 87
9, 122620, Note_on_c, 7, 36, 0
9, 122640, Note_on_c, 7, 31, 82
9, 122860, Note_on_c, 7, 31, 0
9, 122880, Note_on_c, 7, 29, 100
9, 123360, Note_on_c, 7, 29, 0
9, 123360, End_track
10, 0, Start_track
10, 0, Title_t, "Drums   "
10, 0, Program_c, 9, 32
10, 0, Control_c, 9, 7, 127
10, 0, Control_c, 9, 10, 64
10, 0, Control_c, 9, 121, 0
10, 40, Control_c, 9, 123, 0
10, 120, Control_c, 9, 91, 65
10, 3840, Note_on_c, 9, 35, 90
10, 3840, Note_on_c, 9, 38, 90
10, 3840, Note_on_c, 9, 42, 90
10, 3840, Note_on_c, 9, 49, 80
10, 3940, Note_on_c, 9, 49, 0
10, 3940, Note_on_c, 9, 35, 0
10, 3940, Note_on_c, 9, 38, 0
10, 3940, Note_on_c, 9, 42, 0
10, 4080, Note_on_c, 9, 42, 90
10, 4180, Note_on_c, 9, 42, 0
10, 4320, Note_on_c, 9, 38, 100
10, 4320, Note_on_c, 9, 42, 115
10, 4420, Note_on_c, 9, 42, 0
10, 4420, Note_on_c, 9, 38, 0
10, 4560, Note_on_c, 9, 35, 80
10, 4560, Note_on_c, 9, 42, 70
10, 4660, Note_on_c, 9, 42, 0
10, 4660, Note_on_c, 9, 35, 0
10, 4800, Note_on_c, 9, 35, 100
10, 4800, Note_on_c, 9, 42, 90
10, 4900, Note_on_c, 9, 42, 0
10, 4900, Note_on_c, 9, 35, 0
10, 5040, Note_on_c, 9, 42, 70
10, 5140, Note_on_c, 9, 42, 0
10, 5280, Note_on_c, 9, 38, 100
10, 5280, Note_on_c, 9, 42, 100
10, 5380, Note_on_c, 9, 42, 0
10, 5380, Note_on_c, 9, 38, 0
10, 5520, Note_on_c, 9, 42, 70
10, 5620, Note_on_c, 9, 42, 0
10, 5760, Note_on_c, 9, 35, 90
10, 5760, Note_on_c, 9, 42, 90
10, 5860, Note_on_c, 9, 42, 0
10, 5860, Note_on_c, 9, 35, 0
10, 6000, Note_on_c, 9, 42, 70
10, 6100, Note_on_c, 9, 42, 0
10, 6240, Note_on_c, 9, 38, 100
10, 6240, Note_on_c, 9, 42, 115
10, 6340, Note_on_c, 9, 42, 0
10, 6340, Note_on_c, 9, 38, 0
10, 6480, Note_on_c, 9, 35, 80
10, 6480, Note_on_c, 9, 42, 80
10, 6580, Note_on_c, 9, 42, 0
10, 6580, Note_on_c, 9, 35, 0
10, 6720, Note_on_c, 9, 35, 100
10, 6720, Note_on_c, 9, 42, 90
10, 6820, Note_on_c, 9, 42, 0
10, 6820, Note_on_c, 9, 35, 0
10, 6960, Note_on_c, 9, 42, 70
10, 7060, Note_on_c, 9, 42, 0
10, 7200, Note_on_c, 9, 38, 100
10, 7200, Note_on_c, 9, 42, 100
10, 7200, Note_on_c, 9, 54, 115
10, 7300, Note_on_c, 9, 54, 0
10, 7300, Note_on_c, 9, 42, 0
10, 7300, Note_on_c, 9, 38, 0
10, 7440, Note_on_c, 9, 35, 70
10, 7440, Note_on_c, 9, 42, 70
10, 7540, Note_on_c, 9, 42, 0
10, 7540, Note_on_c, 9, 35, 0
10, 7680, Note_on_c, 9, 35, 90
10, 7680, Note_on_c, 9, 42, 90
10, 7780, Note_on_c, 9, 42, 0
10, 7780, Note_on_c, 9, 35, 0
10, 7920, Note_on_c, 9, 42, 70
10, 8020, Note_on_c, 9, 42, 0
10, 8160, Note_on_c, 9, 38, 100
10, 8160, Note_on_c, 9, 42, 115
10, 8260, Note_on_c, 9, 42, 0
10, 8260, Note_on_c, 9, 38, 0
10, 8400, Note_on_c, 9, 35, 80
10, 8400, Note_on_c, 9, 42, 70
10, 8500, Note_on_c, 9, 42, 0
10, 8500, Note_on_c, 9, 35, 0
10, 8640, Note_on_c, 9, 35, 100
10, 8640, Note_on_c, 9, 42, 90
10, 8740, Note_on_c, 9, 42, 0
10, 8740, Note_on_c, 9, 35, 0
10, 8880, Note_on_c, 9, 42, 70
10, 8980, Note_on_c, 9, 42, 0
10, 9120, Note_on_c, 9, 38, 100
10, 9120, Note_on_c, 9, 42, 100
10, 9220, Note_on_c, 9, 42, 0
10, 9220, Note_on_c, 9, 38, 0
10, 9360, Note_on_c, 9, 42, 70
10, 9460, Note_on_c, 9, 42, 0
10, 9600, Note_on_c, 9, 35, 90
10, 9600, Note_on_c, 9, 42, 90
10, 9700, Note_on_c, 9, 42, 0
10, 9700, Note_on_c, 9, 35, 0
10, 9840, Note_on_c, 9, 42, 70
10, 9940, Note_on_c, 9, 42, 0
10, 10080, Note_on_c, 9, 38, 100
10, 10080, Note_on_c, 9, 42, 115
10, 10180, Note_on_c, 9, 42, 0
10, 10180, Note_on_c, 9, 38, 0
10, 10320, Note_on_c, 9, 35, 80
10, 10320, Note_on_c, 9, 42, 75
10, 10420, Note_on_c, 9, 42, 0
10, 10420, Note_on_c, 9, 35, 0
10, 10560, Note_on_c, 9, 35, 100
10, 10560, Note_on_c, 9, 42, 90
10, 10660, Note_on_c, 9, 42, 0
10, 10660, Note_on_c, 9, 35, 0
10, 10800, Note_on_c, 9, 42, 70
10, 10900, Note_on_c, 9, 42, 0
10, 11040, Note_on_c, 9, 38, 100
10, 11040, Note_on_c, 9, 42, 100
10, 11040, Note_on_c, 9, 54, 115
10, 11140, Note_on_c, 9, 54, 0
10, 11140, Note_on_c, 9, 42, 0
10, 11140, Note_on_c, 9, 38, 0
10, 11280, Note_on_c, 9, 35, 70
10, 11280, Note_on_c, 9, 46, 80
10, 11380, Note_on_c, 9, 46, 0
10, 11380, Note_on_c, 9, 35, 0
10, 11520, Note_on_c, 9, 35, 90
10, 11520, Note_on_c, 9, 42, 90
10, 11620, Note_on_c, 9, 42, 0
10, 11620, Note_on_c, 9, 35, 0
10, 11760, Note_on_c, 9, 42, 70
10, 11860, Note_on_c, 9, 42, 0
10, 12000, Note_on_c, 9, 38, 100
10, 12000, Note_on_c, 9, 42, 115
10, 12100, Note_on_c, 9, 42, 0
10, 12100, Note_on_c, 9, 38, 0
10, 12240, Note_on_c, 9, 35, 80
10, 12240, Note_on_c, 9, 42, 70
10, 12340, Note_on_c, 9, 42, 0
10, 12340, Note_on_c, 9, 35, 0
10, 12480, Note_on_c, 9, 35, 100
10, 12480, Note_on_c, 9, 42, 90
10, 12580, Note_on_c, 9, 42, 0
10, 12580, Note_on_c, 9, 35, 0
10, 12720, Note_on_c, 9, 42, 70
10, 12820, Note_on_c, 9, 42, 0
10, 12960, Note_on_c, 9, 38, 100
10, 12960, Note_on_c, 9, 42, 100
10, 13060, Note_on_c, 9, 42, 0
10, 13060, Note_on_c, 9, 38, 0
10, 13200, Note_on_c, 9, 42, 70
10, 13300, Note_on_c, 9, 42, 0
10, 13320, Note_on_c, 9, 46, 60
10, 13420, Note_on_c, 9, 46, 0
10, 13440, Note_on_c, 9, 35, 90
10, 13440, Note_on_c, 9, 42, 100
10, 13540, Note_on_c, 9, 42, 0
10, 13540, Note_on_c, 9, 35, 0
10, 13680, Note_on_c, 9, 42, 70
10, 13780, Note_on_c, 9, 42, 0
10, 13920, Note_on_c, 9, 38, 100
10, 13920, Note_on_c, 9, 42, 115
10, 14020, Note_on_c, 9, 42, 0
10, 14020, Note_on_c, 9, 38, 0
10, 14160, Note_on_c, 9, 35, 80
10, 14160, Note_on_c, 9, 42, 70
10, 14260, Note_on_c, 9, 42, 0
10, 14260, Note_on_c, 9, 35, 0
10, 14400, Note_on_c, 9, 35, 100
10, 14400, Note_on_c, 9, 42, 90
10, 14500, Note_on_c, 9, 42, 0
10, 14500, Note_on_c, 9, 35, 0
10, 14640, Note_on_c, 9, 42, 70
10, 14740, Note_on_c, 9, 42, 0
10, 14880, Note_on_c, 9, 38, 100
10, 14880, Note_on_c, 9, 42, 100
10, 14980, Note_on_c, 9, 42, 0
10, 14980, Note_on_c, 9, 38, 0
10, 15120, Note_on_c, 9, 42, 70
10, 15220, Note_on_c, 9, 42, 0
10, 15360, Note_on_c, 9, 35, 90
10, 15360, Note_on_c, 9, 42, 90
10, 15460, Note_on_c, 9, 42, 0
10, 15460, Note_on_c, 9, 35, 0
10, 15600, Note_on_c, 9, 42, 70
10, 15700, Note_on_c, 9, 42, 0
10, 15840, Note_on_c, 9, 38, 100
10, 15840, Note_on_c, 9, 42, 115
10, 15940, Note_on_c, 9, 42, 0
10, 15940, Note_on_c, 9, 38, 0
10, 16080, Note_on_c, 9, 35, 80
10, 16080, Note_on_c, 9, 42, 70
10, 16180, Note_on_c, 9, 42, 0
10, 16180, Note_on_c, 9, 35, 0
10, 16320, Note_on_c, 9, 35, 100
10, 16320, Note_on_c, 9, 42, 90
10, 16420, Note_on_c, 9, 42, 0
10, 16420, Note_on_c, 9, 35, 0
10, 16560, Note_on_c, 9, 42, 70
10, 16660, Note_on_c, 9, 42, 0
10, 16800, Note_on_c, 9, 38, 100
10, 16800, Note_on_c, 9, 42, 100
10, 16900, Note_on_c, 9, 42, 0
10, 16900, Note_on_c, 9, 38, 0
10, 17040, Note_on_c, 9, 42, 70
10, 17140, Note_on_c, 9, 42, 0
10, 17280, Note_on_c, 9, 35, 80
10, 17280, Note_on_c, 9, 42, 80
10, 17380, Note_on_c, 9, 42, 0
10, 17380, Note_on_c, 9, 35, 0
10, 17520, Note_on_c, 9, 42, 60
10, 17620, Note_on_c, 9, 42, 0
10, 17760, Note_on_c, 9, 38, 80
10, 17760, Note_on_c, 9, 42, 80
10, 17860, Note_on_c, 9, 42, 0
10, 17860, Note_on_c, 9, 38, 0
10, 18000, Note_on_c, 9, 42, 60
10, 18100, Note_on_c, 9, 42, 0
10, 18120, Note_on_c, 9, 38, 60
10, 18220, Note_on_c, 9, 38, 0
10, 18240, Note_on_c, 9, 35, 100
10, 18240, Note_on_c, 9, 38, 90
10, 18240, Note_on_c, 9, 42, 80
10, 18340, Note_on_c, 9, 42, 0
10, 18340, Note_on_c, 9, 38, 0
10, 18340, Note_on_c, 9, 35, 0
10, 18360, Note_on_c, 9, 38, 50
10, 18460, Note_on_c, 9, 38, 0
10, 18480, Note_on_c, 9, 38, 100
10, 18480, Note_on_c, 9, 42, 60
10, 18580, Note_on_c, 9, 42, 0
10, 18580, Note_on_c, 9, 38, 0
10, 18720, Note_on_c, 9, 38, 80
10, 18720, Note_on_c, 9, 42, 80
10, 18820, Note_on_c, 9, 42, 0
10, 18820, Note_on_c, 9, 38, 0
10, 18960, Note_on_c, 9, 38, 100
10, 18960, Note_on_c, 9, 42, 60
10, 19060, Note_on_c, 9, 42, 0
10, 19060, Note_on_c, 9, 38, 0
10, 19080, Note_on_c, 9, 38, 50
10, 19180, Note_on_c, 9, 38, 0
10, 19200, Note_on_c, 9, 35, 90
10, 19200, Note_on_c, 9, 42, 90
10, 19300, Note_on_c, 9, 42, 0
10, 19300, Note_on_c, 9, 35, 0
10, 19440, Note_on_c, 9, 42, 70
10, 19540, Note_on_c, 9, 42, 0
10, 19680, Note_on_c, 9, 38, 100
10, 19680, Note_on_c, 9, 42, 115
10, 19780, Note_on_c, 9, 42, 0
10, 19780, Note_on_c, 9, 38, 0
10, 19920, Note_on_c, 9, 35, 80
10, 19920, Note_on_c, 9, 42, 70
10, 20020, Note_on_c, 9, 42, 0
10, 20020, Note_on_c, 9, 35, 0
10, 20160, Note_on_c, 9, 35, 100
10, 20160, Note_on_c, 9, 42, 90
10, 20260, Note_on_c, 9, 42, 0
10, 20260, Note_on_c, 9, 35, 0
10, 20400, Note_on_c, 9, 42, 70
10, 20500, Note_on_c, 9, 42, 0
10, 20640, Note_on_c, 9, 38, 100
10, 20640, Note_on_c, 9, 42, 100
10, 20740, Note_on_c, 9, 42, 0
10, 20740, Note_on_c, 9, 38, 0
10, 20880, Note_on_c, 9, 42, 70
10, 20980, Note_on_c, 9, 42, 0
10, 21120, Note_on_c, 9, 35, 90
10, 21120, Note_on_c, 9, 42, 100
10, 21220, Note_on_c, 9, 42, 0
10, 21220, Note_on_c, 9, 35, 0
10, 21360, Note_on_c, 9, 42, 70
10, 21460, Note_on_c, 9, 42, 0
10, 21600, Note_on_c, 9, 38, 100
10, 21600, Note_on_c, 9, 42, 115
10, 21700, Note_on_c, 9, 42, 0
10, 21700, Note_on_c, 9, 38, 0
10, 21840, Note_on_c, 9, 35, 80
10, 21840, Note_on_c, 9, 42, 70
10, 21940, Note_on_c, 9, 42, 0
10, 21940, Note_on_c, 9, 35, 0
10, 22080, Note_on_c, 9, 35, 100
10, 22080, Note_on_c, 9, 42, 90
10, 22180, Note_on_c, 9, 42, 0
10, 22180, Note_on_c, 9, 35, 0
10, 22320, Note_on_c, 9, 42, 70
10, 22420, Note_on_c, 9, 42, 0
10, 22560, Note_on_c, 9, 38, 100
10, 22560, Note_on_c, 9, 42, 100
10, 22660, Note_on_c, 9, 42, 0
10, 22660, Note_on_c, 9, 38, 0
10, 22800, Note_on_c, 9, 42, 70
10, 22900, Note_on_c, 9, 42, 0
10, 23040, Note_on_c, 9, 35, 90
10, 23040, Note_on_c, 9, 42, 90
10, 23140, Note_on_c, 9, 42, 0
10, 23140, Note_on_c, 9, 35, 0
10, 23280, Note_on_c, 9, 42, 70
10, 23380, Note_on_c, 9, 42, 0
10, 23520, Note_on_c, 9, 38, 100
10, 23520, Note_on_c, 9, 42, 115
10, 23620, Note_on_c, 9, 42, 0
10, 23620, Note_on_c, 9, 38, 0
10, 23760, Note_on_c, 9, 35, 80
10, 23760, Note_on_c, 9, 42, 70
10, 23860, Note_on_c, 9, 42, 0
10, 23860, Note_on_c, 9, 35, 0
10, 24000, Note_on_c, 9, 35, 100
10, 24000, Note_on_c, 9, 42, 90
10, 24100, Note_on_c, 9, 42, 0
10, 24100, Note_on_c, 9, 35, 0
10, 24240, Note_on_c, 9, 42, 70
10, 24340, Note_on_c, 9, 42, 0
10, 24480, Note_on_c, 9, 38, 100
10, 24480, Note_on_c, 9, 42, 100
10, 24580, Note_on_c, 9, 42, 0
10, 24580, Note_on_c, 9, 38, 0
10, 24720, Note_on_c, 9, 42, 70
10, 24820, Note_on_c, 9, 42, 0
10, 24960, Note_on_c, 9, 35, 90
10, 24960, Note_on_c, 9, 42, 100
10, 25060, Note_on_c, 9, 42, 0
10, 25060, Note_on_c, 9, 35, 0
10, 25200, Note_on_c, 9, 42, 70
10, 25300, Note_on_c, 9, 42, 0
10, 25440, Note_on_c, 9, 38, 100
10, 25440, Note_on_c, 9, 42, 115
10, 25540, Note_on_c, 9, 42, 0
10, 25540, Note_on_c, 9, 38, 0
10, 25680, Note_on_c, 9, 35, 80
10, 25680, Note_on_c, 9, 42, 70
10, 25780, Note_on_c, 9, 42, 0
10, 25780, Note_on_c, 9, 35, 0
10, 25920, Note_on_c, 9, 35, 100
10, 25920, Note_on_c, 9, 42, 90
10, 26020, Note_on_c, 9, 42, 0
10, 26020, Note_on_c, 9, 35, 0
10, 26160, Note_on_c, 9, 42, 70
10, 26260, Note_on_c, 9, 42, 0
10, 26400, Note_on_c, 9, 38, 100
10, 26400, Note_on_c, 9, 42, 100
10, 26500, Note_on_c, 9, 42, 0
10, 26500, Note_on_c, 9, 38, 0
10, 26640, Note_on_c, 9, 42, 70
10, 26740, Note_on_c, 9, 42, 0
10, 26880, Note_on_c, 9, 35, 90
10, 26880, Note_on_c, 9, 42, 90
10, 26980, Note_on_c, 9, 42, 0
10, 26980, Note_on_c, 9, 35, 0
10, 27120, Note_on_c, 9, 42, 70
10, 27220, Note_on_c, 9, 42, 0
10, 27360, Note_on_c, 9, 38, 100
10, 27360, Note_on_c, 9, 42, 115
10, 27460, Note_on_c, 9, 42, 0
10, 27460, Note_on_c, 9, 38, 0
10, 27600, Note_on_c, 9, 35, 80
10, 27600, Note_on_c, 9, 42, 70
10, 27700, Note_on_c, 9, 42, 0
10, 27700, Note_on_c, 9, 35, 0
10, 27840, Note_on_c, 9, 35, 100
10, 27840, Note_on_c, 9, 42, 90
10, 27940, Note_on_c, 9, 42, 0
10, 27940, Note_on_c, 9, 35, 0
10, 28080, Note_on_c, 9, 42, 70
10, 28180, Note_on_c, 9, 42, 0
10, 28320, Note_on_c, 9, 38, 100
10, 28320, Note_on_c, 9, 42, 100
10, 28420, Note_on_c, 9, 42, 0
10, 28420, Note_on_c, 9, 38, 0
10, 28560, Note_on_c, 9, 42, 70
10, 28660, Note_on_c, 9, 42, 0
10, 28800, Note_on_c, 9, 35, 90
10, 28800, Note_on_c, 9, 42, 90
10, 28900, Note_on_c, 9, 42, 0
10, 28900, Note_on_c, 9, 35, 0
10, 29040, Note_on_c, 9, 42, 70
10, 29140, Note_on_c, 9, 42, 0
10, 29280, Note_on_c, 9, 38, 100
10, 29280, Note_on_c, 9, 42, 115
10, 29380, Note_on_c, 9, 42, 0
10, 29380, Note_on_c, 9, 38, 0
10, 29520, Note_on_c, 9, 35, 80
10, 29520, Note_on_c, 9, 42, 80
10, 29620, Note_on_c, 9, 42, 0
10, 29620, Note_on_c, 9, 35, 0
10, 29760, Note_on_c, 9, 35, 100
10, 29760, Note_on_c, 9, 42, 90
10, 29860, Note_on_c, 9, 42, 0
10, 29860, Note_on_c, 9, 35, 0
10, 30000, Note_on_c, 9, 42, 70
10, 30100, Note_on_c, 9, 42, 0
10, 30240, Note_on_c, 9, 38, 100
10, 30240, Note_on_c, 9, 42, 100
10, 30240, Note_on_c, 9, 54, 115
10, 30340, Note_on_c, 9, 54, 0
10, 30340, Note_on_c, 9, 42, 0
10, 30340, Note_on_c, 9, 38, 0
10, 30480, Note_on_c, 9, 35, 70
10, 30480, Note_on_c, 9, 42, 70
10, 30580, Note_on_c, 9, 42, 0
10, 30580, Note_on_c, 9, 35, 0
10, 30720, Note_on_c, 9, 35, 90
10, 30720, Note_on_c, 9, 42, 90
10, 30820, Note_on_c, 9, 42, 0
10, 30820, Note_on_c, 9, 35, 0
10, 30960, Note_on_c, 9, 42, 70
10, 31060, Note_on_c, 9, 42, 0
10, 31200, Note_on_c, 9, 38, 100
10, 31200, Note_on_c, 9, 42, 115
10, 31300, Note_on_c, 9, 42, 0
10, 31300, Note_on_c, 9, 38, 0
10, 31440, Note_on_c, 9, 35, 80
10, 31440, Note_on_c, 9, 42, 70
10, 31540, Note_on_c, 9, 42, 0
10, 31540, Note_on_c, 9, 35, 0
10, 31680, Note_on_c, 9, 35, 100
10, 31680, Note_on_c, 9, 42, 90
10, 31780, Note_on_c, 9, 42, 0
10, 31780, Note_on_c, 9, 35, 0
10, 31920, Note_on_c, 9, 42, 70
10, 32020, Note_on_c, 9, 42, 0
10, 32160, Note_on_c, 9, 38, 100
10, 32160, Note_on_c, 9, 42, 100
10, 32260, Note_on_c, 9, 42, 0
10, 32260, Note_on_c, 9, 38, 0
10, 32400, Note_on_c, 9, 42, 70
10, 32500, Note_on_c, 9, 42, 0
10, 32640, Note_on_c, 9, 35, 90
10, 32640, Note_on_c, 9, 42, 90
10, 32740, Note_on_c, 9, 42, 0
10, 32740, Note_on_c, 9, 35, 0
10, 32880, Note_on_c, 9, 42, 70
10, 32980, Note_on_c, 9, 42, 0
10, 33120, Note_on_c, 9, 38, 100
10, 33120, Note_on_c, 9, 42, 115
10, 33220, Note_on_c, 9, 42, 0
10, 33220, Note_on_c, 9, 38, 0
10, 33360, Note_on_c, 9, 35, 80
10, 33360, Note_on_c, 9, 42, 70
10, 33460, Note_on_c, 9, 42, 0
10, 33460, Note_on_c, 9, 35, 0
10, 33600, Note_on_c, 9, 35, 100
10, 33600, Note_on_c, 9, 42, 90
10, 33700, Note_on_c, 9, 42, 0
10, 33700, Note_on_c, 9, 35, 0
10, 33840, Note_on_c, 9, 38, 50
10, 33840, Note_on_c, 9, 42, 50
10, 33940, Note_on_c, 9, 42, 0
10, 33940, Note_on_c, 9, 38, 0
10, 33960, Note_on_c, 9, 38, 40
10, 34060, Note_on_c, 9, 38, 0
10, 34080, Note_on_c, 9, 38, 80
10, 34080, Note_on_c, 9, 42, 70
10, 34180, Note_on_c, 9, 42, 0
10, 34180, Note_on_c, 9, 38, 0
10, 34200, Note_on_c, 9, 38, 50
10, 34300, Note_on_c, 9, 38, 0
10, 34320, Note_on_c, 9, 38, 90
10, 34320, Note_on_c, 9, 42, 50
10, 34420, Note_on_c, 9, 42, 0
10, 34420, Note_on_c, 9, 38, 0
10, 34440, Note_on_c, 9, 38, 60
10, 34540, Note_on_c, 9, 38, 0
10, 34560, Note_on_c, 9, 35, 90
10, 34560, Note_on_c, 9, 38, 90
10, 34560, Note_on_c, 9, 42, 90
10, 34560, Note_on_c, 9, 49, 80
10, 34660, Note_on_c, 9, 49, 0
10, 34660, Note_on_c, 9, 35, 0
10, 34660, Note_on_c, 9, 38, 0
10, 34660, Note_on_c, 9, 42, 0
10, 34800, Note_on_c, 9, 42, 90
10, 34900, Note_on_c, 9, 42, 0
10, 35040, Note_on_c, 9, 38, 100
10, 35040, Note_on_c, 9, 42, 115
10, 35140, Note_on_c, 9, 42, 0
10, 35140, Note_on_c, 9, 38, 0
10, 35280, Note_on_c, 9, 35, 80
10, 35280, Note_on_c, 9, 42, 70
10, 35380, Note_on_c, 9, 42, 0
10, 35380, Note_on_c, 9, 35, 0
10, 35520, Note_on_c, 9, 35, 100
10, 35520, Note_on_c, 9, 42, 90
10, 35620, Note_on_c, 9, 42, 0
10, 35620, Note_on_c, 9, 35, 0
10, 35760, Note_on_c, 9, 42, 70
10, 35860, Note_on_c, 9, 42, 0
10, 36000, Note_on_c, 9, 38, 100
10, 36000, Note_on_c, 9, 42, 100
10, 36100, Note_on_c, 9, 42, 0
10, 36100, Note_on_c, 9, 38, 0
10, 36240, Note_on_c, 9, 42, 70
10, 36340, Note_on_c, 9, 42, 0
10, 36480, Note_on_c, 9, 35, 90
10, 36480, Note_on_c, 9, 42, 90
10, 36580, Note_on_c, 9, 42, 0
10, 36580, Note_on_c, 9, 35, 0
10, 36720, Note_on_c, 9, 42, 70
10, 36820, Note_on_c, 9, 42, 0
10, 36960, Note_on_c, 9, 38, 100
10, 36960, Note_on_c, 9, 42, 115
10, 37060, Note_on_c, 9, 42, 0
10, 37060, Note_on_c, 9, 38, 0
10, 37200, Note_on_c, 9, 35, 80
10, 37200, Note_on_c, 9, 42, 75
10, 37300, Note_on_c, 9, 42, 0
10, 37300, Note_on_c, 9, 35, 0
10, 37440, Note_on_c, 9, 35, 100
10, 37440, Note_on_c, 9, 42, 90
10, 37540, Note_on_c, 9, 42, 0
10, 37540, Note_on_c, 9, 35, 0
10, 37680, Note_on_c, 9, 42, 70
10, 37780, Note_on_c, 9, 42, 0
10, 37920, Note_on_c, 9, 38, 100
10, 37920, Note_on_c, 9, 42, 100
10, 37920, Note_on_c, 9, 54, 115
10, 38020, Note_on_c, 9, 54, 0
10, 38020, Note_on_c, 9, 42, 0
10, 38020, Note_on_c, 9, 38, 0
10, 38160, Note_on_c, 9, 35, 70
10, 38160, Note_on_c, 9, 46, 80
10, 38260, Note_on_c, 9, 46, 0
10, 38260, Note_on_c, 9, 35, 0
10, 38400, Note_on_c, 9, 35, 90
10, 38400, Note_on_c, 9, 42, 90
10, 38500, Note_on_c, 9, 42, 0
10, 38500, Note_on_c, 9, 35, 0
10, 38640, Note_on_c, 9, 42, 70
10, 38740, Note_on_c, 9, 42, 0
10, 38880, Note_on_c, 9, 38, 100
10, 38880, Note_on_c, 9, 42, 115
10, 38980, Note_on_c, 9, 42, 0
10, 38980, Note_on_c, 9, 38, 0
10, 39120, Note_on_c, 9, 35, 80
10, 39120, Note_on_c, 9, 42, 70
10, 39220, Note_on_c, 9, 42, 0
10, 39220, Note_on_c, 9, 35, 0
10, 39360, Note_on_c, 9, 35, 100
10, 39360, Note_on_c, 9, 42, 90
10, 39460, Note_on_c, 9, 42, 0
10, 39460, Note_on_c, 9, 35, 0
10, 39600, Note_on_c, 9, 42, 70
10, 39700, Note_on_c, 9, 42, 0
10, 39840, Note_on_c, 9, 38, 100
10, 39840, Note_on_c, 9, 42, 100
10, 39940, Note_on_c, 9, 42, 0
10, 39940, Note_on_c, 9, 38, 0
10, 40080, Note_on_c, 9, 42, 70
10, 40180, Note_on_c, 9, 42, 0
10, 40320, Note_on_c, 9, 35, 90
10, 40320, Note_on_c, 9, 42, 90
10, 40420, Note_on_c, 9, 42, 0
10, 40420, Note_on_c, 9, 35, 0
10, 40560, Note_on_c, 9, 42, 70
10, 40660, Note_on_c, 9, 42, 0
10, 40800, Note_on_c, 9, 38, 100
10, 40800, Note_on_c, 9, 42, 115
10, 40900, Note_on_c, 9, 42, 0
10, 40900, Note_on_c, 9, 38, 0
10, 41040, Note_on_c, 9, 35, 80
10, 41040, Note_on_c, 9, 42, 80
10, 41140, Note_on_c, 9, 42, 0
10, 41140, Note_on_c, 9, 35, 0
10, 41280, Note_on_c, 9, 35, 100
10, 41280, Note_on_c, 9, 42, 90
10, 41380, Note_on_c, 9, 42, 0
10, 41380, Note_on_c, 9, 35, 0
10, 41520, Note_on_c, 9, 42, 70
10, 41620, Note_on_c, 9, 42, 0
10, 41760, Note_on_c, 9, 38, 100
10, 41760, Note_on_c, 9, 42, 100
10, 41760, Note_on_c, 9, 54, 115
10, 41860, Note_on_c, 9, 54, 0
10, 41860, Note_on_c, 9, 42, 0
10, 41860, Note_on_c, 9, 38, 0
10, 42000, Note_on_c, 9, 35, 70
10, 42000, Note_on_c, 9, 42, 70
10, 42100, Note_on_c, 9, 42, 0
10, 42100, Note_on_c, 9, 35, 0
10, 42240, Note_on_c, 9, 35, 90
10, 42240, Note_on_c, 9, 42, 90
10, 42340, Note_on_c, 9, 42, 0
10, 42340, Note_on_c, 9, 35, 0
10, 42480, Note_on_c, 9, 42, 70
10, 42580, Note_on_c, 9, 42, 0
10, 42720, Note_on_c, 9, 38, 100
10, 42720, Note_on_c, 9, 42, 115
10, 42820, Note_on_c, 9, 42, 0
10, 42820, Note_on_c, 9, 38, 0
10, 42960, Note_on_c, 9, 35, 80
10, 42960, Note_on_c, 9, 42, 70
10, 43060, Note_on_c, 9, 42, 0
10, 43060, Note_on_c, 9, 35, 0
10, 43200, Note_on_c, 9, 35, 100
10, 43200, Note_on_c, 9, 42, 90
10, 43300, Note_on_c, 9, 42, 0
10, 43300, Note_on_c, 9, 35, 0
10, 43440, Note_on_c, 9, 42, 70
10, 43540, Note_on_c, 9, 42, 0
10, 43680, Note_on_c, 9, 38, 100
10, 43680, Note_on_c, 9, 42, 100
10, 43780, Note_on_c, 9, 42, 0
10, 43780, Note_on_c, 9, 38, 0
10, 43920, Note_on_c, 9, 42, 70
10, 44020, Note_on_c, 9, 42, 0
10, 44160, Note_on_c, 9, 35, 90
10, 44160, Note_on_c, 9, 42, 100
10, 44260, Note_on_c, 9, 42, 0
10, 44260, Note_on_c, 9, 35, 0
10, 44400, Note_on_c, 9, 42, 70
10, 44500, Note_on_c, 9, 42, 0
10, 44640, Note_on_c, 9, 38, 100
10, 44640, Note_on_c, 9, 42, 115
10, 44740, Note_on_c, 9, 42, 0
10, 44740, Note_on_c, 9, 38, 0
10, 44880, Note_on_c, 9, 35, 80
10, 44880, Note_on_c, 9, 42, 70
10, 44980, Note_on_c, 9, 42, 0
10, 44980, Note_on_c, 9, 35, 0
10, 45120, Note_on_c, 9, 35, 100
10, 45120, Note_on_c, 9, 42, 90
10, 45220, Note_on_c, 9, 42, 0
10, 45220, Note_on_c, 9, 35, 0
10, 45360, Note_on_c, 9, 42, 70
10, 45460, Note_on_c, 9, 42, 0
10, 45600, Note_on_c, 9, 38, 100
10, 45600, Note_on_c, 9, 42, 100
10, 45700, Note_on_c, 9, 42, 0
10, 45700, Note_on_c, 9, 38, 0
10, 45840, Note_on_c, 9, 42, 70
10, 45940, Note_on_c, 9, 42, 0
10, 46080, Note_on_c, 9, 35, 90
10, 46080, Note_on_c, 9, 42, 90
10, 46180, Note_on_c, 9, 42, 0
10, 46180, Note_on_c, 9, 35, 0
10, 46320, Note_on_c, 9, 42, 70
10, 46420, Note_on_c, 9, 42, 0
10, 46560, Note_on_c, 9, 38, 100
10, 46560, Note_on_c, 9, 42, 115
10, 46660, Note_on_c, 9, 42, 0
10, 46660, Note_on_c, 9, 38, 0
10, 46800, Note_on_c, 9, 35, 80
10, 46800, Note_on_c, 9, 42, 70
10, 46900, Note_on_c, 9, 42, 0
10, 46900, Note_on_c, 9, 35, 0
10, 47040, Note_on_c, 9, 35, 100
10, 47040, Note_on_c, 9, 42, 90
10, 47140, Note_on_c, 9, 42, 0
10, 47140, Note_on_c, 9, 35, 0
10, 47280, Note_on_c, 9, 42, 70
10, 47380, Note_on_c, 9, 42, 0
10, 47520, Note_on_c, 9, 38, 100
10, 47520, Note_on_c, 9, 42, 100
10, 47620, Note_on_c, 9, 42, 0
10, 47620, Note_on_c, 9, 38, 0
10, 47760, Note_on_c, 9, 42, 70
10, 47860, Note_on_c, 9, 42, 0
10, 48000, Note_on_c, 9, 35, 90
10, 48000, Note_on_c, 9, 42, 90
10, 48100, Note_on_c, 9, 42, 0
10, 48100, Note_on_c, 9, 35, 0
10, 48240, Note_on_c, 9, 42, 70
10, 48340, Note_on_c, 9, 42, 0
10, 48480, Note_on_c, 9, 38, 100
10, 48480, Note_on_c, 9, 42, 115
10, 48580, Note_on_c, 9, 42, 0
10, 48580, Note_on_c, 9, 38, 0
10, 48720, Note_on_c, 9, 35, 80
10, 48720, Note_on_c, 9, 42, 70
10, 48820, Note_on_c, 9, 42, 0
10, 48820, Note_on_c, 9, 35, 0
10, 48960, Note_on_c, 9, 35, 100
10, 48960, Note_on_c, 9, 42, 90
10, 49060, Note_on_c, 9, 42, 0
10, 49060, Note_on_c, 9, 35, 0
10, 49200, Note_on_c, 9, 38, 50
10, 49200, Note_on_c, 9, 42, 50
10, 49300, Note_on_c, 9, 42, 0
10, 49300, Note_on_c, 9, 38, 0
10, 49320, Note_on_c, 9, 38, 40
10, 49420, Note_on_c, 9, 38, 0
10, 49440, Note_on_c, 9, 38, 80
10, 49440, Note_on_c, 9, 42, 70
10, 49540, Note_on_c, 9, 42, 0
10, 49540, Note_on_c, 9, 38, 0
10, 49560, Note_on_c, 9, 38, 50
10, 49660, Note_on_c, 9, 38, 0
10, 49680, Note_on_c, 9, 38, 90
10, 49680, Note_on_c, 9, 42, 50
10, 49780, Note_on_c, 9, 42, 0
10, 49780, Note_on_c, 9, 38, 0
10, 49800, Note_on_c, 9, 38, 60
10, 49900, Note_on_c, 9, 38, 0
10, 49920, Note_on_c, 9, 35, 90
10, 49920, Note_on_c, 9, 38, 90
10, 49920, Note_on_c, 9, 42, 90
10, 49920, Note_on_c, 9, 49, 90
10, 50020, Note_on_c, 9, 49, 0
10, 50020, Note_on_c, 9, 35, 0
10, 50020, Note_on_c, 9, 38, 0
10, 50020, Note_on_c, 9, 42, 0
10, 50160, Note_on_c, 9, 42, 70
10, 50260, Note_on_c, 9, 42, 0
10, 50400, Note_on_c, 9, 38, 100
10, 50400, Note_on_c, 9, 42, 100
10, 50500, Note_on_c, 9, 42, 0
10, 50500, Note_on_c, 9, 38, 0
10, 50640, Note_on_c, 9, 35, 80
10, 50640, Note_on_c, 9, 42, 70
10, 50740, Note_on_c, 9, 42, 0
10, 50740, Note_on_c, 9, 35, 0
10, 50880, Note_on_c, 9, 35, 100
10, 50880, Note_on_c, 9, 42, 90
10, 50980, Note_on_c, 9, 42, 0
10, 50980, Note_on_c, 9, 35, 0
10, 51120, Note_on_c, 9, 42, 70
10, 51220, Note_on_c, 9, 42, 0
10, 51360, Note_on_c, 9, 38, 100
10, 51360, Note_on_c, 9, 42, 100
10, 51460, Note_on_c, 9, 42, 0
10, 51460, Note_on_c, 9, 38, 0
10, 51600, Note_on_c, 9, 35, 70
10, 51600, Note_on_c, 9, 42, 70
10, 51700, Note_on_c, 9, 42, 0
10, 51700, Note_on_c, 9, 35, 0
10, 51840, Note_on_c, 9, 35, 90
10, 51840, Note_on_c, 9, 42, 90
10, 51940, Note_on_c, 9, 42, 0
10, 51940, Note_on_c, 9, 35, 0
10, 52080, Note_on_c, 9, 42, 70
10, 52180, Note_on_c, 9, 42, 0
10, 52320, Note_on_c, 9, 38, 100
10, 52320, Note_on_c, 9, 42, 100
10, 52420, Note_on_c, 9, 42, 0
10, 52420, Note_on_c, 9, 38, 0
10, 52560, Note_on_c, 9, 35, 80
10, 52560, Note_on_c, 9, 42, 100
10, 52660, Note_on_c, 9, 42, 0
10, 52660, Note_on_c, 9, 35, 0
10, 52800, Note_on_c, 9, 35, 100
10, 52800, Note_on_c, 9, 42, 90
10, 52900, Note_on_c, 9, 42, 0
10, 52900, Note_on_c, 9, 35, 0
10, 53040, Note_on_c, 9, 35, 90
10, 53040, Note_on_c, 9, 42, 70
10, 53140, Note_on_c, 9, 42, 0
10, 53140, Note_on_c, 9, 35, 0
10, 53280, Note_on_c, 9, 38, 100
10, 53280, Note_on_c, 9, 42, 100
10, 53380, Note_on_c, 9, 42, 0
10, 53380, Note_on_c, 9, 38, 0
10, 53520, Note_on_c, 9, 35, 70
10, 53520, Note_on_c, 9, 42, 70
10, 53620, Note_on_c, 9, 42, 0
10, 53620, Note_on_c, 9, 35, 0
10, 53760, Note_on_c, 9, 35, 90
10, 53760, Note_on_c, 9, 42, 90
10, 53860, Note_on_c, 9, 42, 0
10, 53860, Note_on_c, 9, 35, 0
10, 54000, Note_on_c, 9, 42, 70
10, 54100, Note_on_c, 9, 42, 0
10, 54240, Note_on_c, 9, 38, 100
10, 54240, Note_on_c, 9, 42, 100
10, 54340, Note_on_c, 9, 42, 0
10, 54340, Note_on_c, 9, 38, 0
10, 54480, Note_on_c, 9, 35, 80
10, 54480, Note_on_c, 9, 42, 70
10, 54580, Note_on_c, 9, 42, 0
10, 54580, Note_on_c, 9, 35, 0
10, 54720, Note_on_c, 9, 35, 100
10, 54720, Note_on_c, 9, 42, 90
10, 54820, Note_on_c, 9, 42, 0
10, 54820, Note_on_c, 9, 35, 0
10, 54960, Note_on_c, 9, 42, 70
10, 55060, Note_on_c, 9, 42, 0
10, 55200, Note_on_c, 9, 38, 100
10, 55200, Note_on_c, 9, 42, 100
10, 55300, Note_on_c, 9, 42, 0
10, 55300, Note_on_c, 9, 38, 0
10, 55440, Note_on_c, 9, 35, 70
10, 55440, Note_on_c, 9, 42, 70
10, 55540, Note_on_c, 9, 42, 0
10, 55540, Note_on_c, 9, 35, 0
10, 55680, Note_on_c, 9, 35, 90
10, 55680, Note_on_c, 9, 42, 90
10, 55780, Note_on_c, 9, 42, 0
10, 55780, Note_on_c, 9, 35, 0
10, 55920, Note_on_c, 9, 42, 60
10, 56020, Note_on_c, 9, 42, 0
10, 56040, Note_on_c, 9, 42, 70
10, 56140, Note_on_c, 9, 42, 0
10, 56160, Note_on_c, 9, 38, 100
10, 56160, Note_on_c, 9, 42, 90
10, 56260, Note_on_c, 9, 42, 0
10, 56260, Note_on_c, 9, 38, 0
10, 56400, Note_on_c, 9, 35, 80
10, 56400, Note_on_c, 9, 42, 60
10, 56400, Note_on_c, 9, 45, 80
10, 56500, Note_on_c, 9, 45, 0
10, 56500, Note_on_c, 9, 42, 0
10, 56500, Note_on_c, 9, 35, 0
10, 56640, Note_on_c, 9, 35, 100
10, 56640, Note_on_c, 9, 42, 90
10, 56640, Note_on_c, 9, 48, 80
10, 56740, Note_on_c, 9, 48, 0
10, 56740, Note_on_c, 9, 42, 0
10, 56740, Note_on_c, 9, 35, 0
10, 56880, Note_on_c, 9, 42, 60
10, 56880, Note_on_c, 9, 45, 70
10, 56980, Note_on_c, 9, 45, 0
10, 56980, Note_on_c, 9, 42, 0
10, 57120, Note_on_c, 9, 42, 100
10, 57120, Note_on_c, 9, 45, 70
10, 57180, Note_on_c, 9, 45, 56
10, 57220, Note_on_c, 9, 45, 0
10, 57220, Note_on_c, 9, 42, 0
10, 57240, Note_on_c, 9, 45, 60
10, 57280, Note_on_c, 9, 45, 0
10, 57340, Note_on_c, 9, 45, 0
10, 57360, Note_on_c, 9, 46, 90
10, 57360, Note_on_c, 9, 41, 90
10, 57460, Note_on_c, 9, 41, 0
10, 57460, Note_on_c, 9, 46, 0
10, 57600, Note_on_c, 9, 35, 90
10, 57600, Note_on_c, 9, 38, 90
10, 57600, Note_on_c, 9, 42, 90
10, 57600, Note_on_c, 9, 49, 80
10, 57700, Note_on_c, 9, 49, 0
10, 57700, Note_on_c, 9, 35, 0
10, 57700, Note_on_c, 9, 38, 0
10, 57700, Note_on_c, 9, 42, 0
10, 57840, Note_on_c, 9, 42, 90
10, 57940, Note_on_c, 9, 42, 0
10, 58080, Note_on_c, 9, 38, 100
10, 58080, Note_on_c, 9, 42, 115
10, 58180, Note_on_c, 9, 42, 0
10, 58180, Note_on_c, 9, 38, 0
10, 58320, Note_on_c, 9, 35, 80
10, 58320, Note_on_c, 9, 42, 70
10, 58420, Note_on_c, 9, 42, 0
10, 58420, Note_on_c, 9, 35, 0
10, 58560, Note_on_c, 9, 35, 100
10, 58560, Note_on_c, 9, 42, 90
10, 58660, Note_on_c, 9, 42, 0
10, 58660, Note_on_c, 9, 35, 0
10, 58800, Note_on_c, 9, 42, 70
10, 58900, Note_on_c, 9, 42, 0
10, 59040, Note_on_c, 9, 38, 100
10, 59040, Note_on_c, 9, 42, 100
10, 59140, Note_on_c, 9, 42, 0
10, 59140, Note_on_c, 9, 38, 0
10, 59280, Note_on_c, 9, 42, 70
10, 59380, Note_on_c, 9, 42, 0
10, 59520, Note_on_c, 9, 35, 90
10, 59520, Note_on_c, 9, 42, 100
10, 59620, Note_on_c, 9, 42, 0
10, 59620, Note_on_c, 9, 35, 0
10, 59760, Note_on_c, 9, 42, 70
10, 59860, Note_on_c, 9, 42, 0
10, 60000, Note_on_c, 9, 38, 100
10, 60000, Note_on_c, 9, 42, 115
10, 60100, Note_on_c, 9, 42, 0
10, 60100, Note_on_c, 9, 38, 0
10, 60240, Note_on_c, 9, 35, 80
10, 60240, Note_on_c, 9, 42, 70
10, 60340, Note_on_c, 9, 42, 0
10, 60340, Note_on_c, 9, 35, 0
10, 60480, Note_on_c, 9, 35, 100
10, 60480, Note_on_c, 9, 42, 90
10, 60580, Note_on_c, 9, 42, 0
10, 60580, Note_on_c, 9, 35, 0
10, 60720, Note_on_c, 9, 42, 70
10, 60820, Note_on_c, 9, 42, 0
10, 60960, Note_on_c, 9, 38, 100
10, 60960, Note_on_c, 9, 42, 100
10, 61060, Note_on_c, 9, 42, 0
10, 61060, Note_on_c, 9, 38, 0
10, 61200, Note_on_c, 9, 42, 70
10, 61300, Note_on_c, 9, 42, 0
10, 61440, Note_on_c, 9, 35, 90
10, 61440, Note_on_c, 9, 42, 90
10, 61540, Note_on_c, 9, 42, 0
10, 61540, Note_on_c, 9, 35, 0
10, 61680, Note_on_c, 9, 42, 70
10, 61780, Note_on_c, 9, 42, 0
10, 61920, Note_on_c, 9, 38, 100
10, 61920, Note_on_c, 9, 42, 115
10, 62020, Note_on_c, 9, 42, 0
10, 62020, Note_on_c, 9, 38, 0
10, 62160, Note_on_c, 9, 35, 80
10, 62160, Note_on_c, 9, 42, 70
10, 62260, Note_on_c, 9, 42, 0
10, 62260, Note_on_c, 9, 35, 0
10, 62400, Note_on_c, 9, 35, 100
10, 62400, Note_on_c, 9, 42, 90
10, 62500, Note_on_c, 9, 42, 0
10, 62500, Note_on_c, 9, 35, 0
10, 62640, Note_on_c, 9, 42, 70
10, 62740, Note_on_c, 9, 42, 0
10, 62880, Note_on_c, 9, 38, 100
10, 62880, Note_on_c, 9, 42, 100
10, 62980, Note_on_c, 9, 42, 0
10, 62980, Note_on_c, 9, 38, 0
10, 63120, Note_on_c, 9, 42, 70
10, 63220, Note_on_c, 9, 42, 0
10, 63360, Note_on_c, 9, 35, 90
10, 63360, Note_on_c, 9, 42, 100
10, 63460, Note_on_c, 9, 42, 0
10, 63460, Note_on_c, 9, 35, 0
10, 63600, Note_on_c, 9, 42, 70
10, 63700, Note_on_c, 9, 42, 0
10, 63840, Note_on_c, 9, 38, 100
10, 63840, Note_on_c, 9, 42, 115
10, 63940, Note_on_c, 9, 42, 0
10, 63940, Note_on_c, 9, 38, 0
10, 64080, Note_on_c, 9, 35, 80
10, 64080, Note_on_c, 9, 42, 70
10, 64180, Note_on_c, 9, 42, 0
10, 64180, Note_on_c, 9, 35, 0
10, 64320, Note_on_c, 9, 35, 100
10, 64320, Note_on_c, 9, 42, 90
10, 64420, Note_on_c, 9, 42, 0
10, 64420, Note_on_c, 9, 35, 0
10, 64560, Note_on_c, 9, 42, 70
10, 64660, Note_on_c, 9, 42, 0
10, 64800, Note_on_c, 9, 38, 100
10, 64800, Note_on_c, 9, 42, 100
10, 64900, Note_on_c, 9, 42, 0
10, 64900, Note_on_c, 9, 38, 0
10, 65040, Note_on_c, 9, 42, 70
10, 65140, Note_on_c, 9, 42, 0
10, 65280, Note_on_c, 9, 35, 90
10, 65280, Note_on_c, 9, 42, 90
10, 65380, Note_on_c, 9, 42, 0
10, 65380, Note_on_c, 9, 35, 0
10, 65520, Note_on_c, 9, 42, 70
10, 65620, Note_on_c, 9, 42, 0
10, 65760, Note_on_c, 9, 38, 100
10, 65760, Note_on_c, 9, 42, 115
10, 65860, Note_on_c, 9, 42, 0
10, 65860, Note_on_c, 9, 38, 0
10, 66000, Note_on_c, 9, 35, 80
10, 66000, Note_on_c, 9, 42, 70
10, 66100, Note_on_c, 9, 42, 0
10, 66100, Note_on_c, 9, 35, 0
10, 66240, Note_on_c, 9, 35, 100
10, 66240, Note_on_c, 9, 42, 90
10, 66340, Note_on_c, 9, 42, 0
10, 66340, Note_on_c, 9, 35, 0
10, 66480, Note_on_c, 9, 42, 70
10, 66580, Note_on_c, 9, 42, 0
10, 66720, Note_on_c, 9, 38, 100
10, 66720, Note_on_c, 9, 42, 100
10, 66820, Note_on_c, 9, 42, 0
10, 66820, Note_on_c, 9, 38, 0
10, 66960, Note_on_c, 9, 42, 70
10, 67060, Note_on_c, 9, 42, 0
10, 67200, Note_on_c, 9, 35, 90
10, 67200, Note_on_c, 9, 42, 90
10, 67300, Note_on_c, 9, 42, 0
10, 67300, Note_on_c, 9, 35, 0
10, 67440, Note_on_c, 9, 42, 70
10, 67540, Note_on_c, 9, 42, 0
10, 67680, Note_on_c, 9, 38, 100
10, 67680, Note_on_c, 9, 42, 115
10, 67780, Note_on_c, 9, 42, 0
10, 67780, Note_on_c, 9, 38, 0
10, 67920, Note_on_c, 9, 35, 80
10, 67920, Note_on_c, 9, 42, 80
10, 68020, Note_on_c, 9, 42, 0
10, 68020, Note_on_c, 9, 35, 0
10, 68160, Note_on_c, 9, 35, 100
10, 68160, Note_on_c, 9, 42, 90
10, 68260, Note_on_c, 9, 42, 0
10, 68260, Note_on_c, 9, 35, 0
10, 68400, Note_on_c, 9, 42, 70
10, 68500, Note_on_c, 9, 42, 0
10, 68640, Note_on_c, 9, 38, 100
10, 68640, Note_on_c, 9, 42, 100
10, 68640, Note_on_c, 9, 54, 115
10, 68740, Note_on_c, 9, 54, 0
10, 68740, Note_on_c, 9, 42, 0
10, 68740, Note_on_c, 9, 38, 0
10, 68880, Note_on_c, 9, 35, 70
10, 68880, Note_on_c, 9, 42, 70
10, 68980, Note_on_c, 9, 42, 0
10, 68980, Note_on_c, 9, 35, 0
10, 69120, Note_on_c, 9, 35, 90
10, 69120, Note_on_c, 9, 42, 90
10, 69220, Note_on_c, 9, 42, 0
10, 69220, Note_on_c, 9, 35, 0
10, 69360, Note_on_c, 9, 42, 70
10, 69460, Note_on_c, 9, 42, 0
10, 69600, Note_on_c, 9, 38, 100
10, 69600, Note_on_c, 9, 42, 115
10, 69700, Note_on_c, 9, 42, 0
10, 69700, Note_on_c, 9, 38, 0
10, 69840, Note_on_c, 9, 35, 80
10, 69840, Note_on_c, 9, 42, 70
10, 69940, Note_on_c, 9, 42, 0
10, 69940, Note_on_c, 9, 35, 0
10, 70080, Note_on_c, 9, 35, 100
10, 70080, Note_on_c, 9, 42, 90
10, 70180, Note_on_c, 9, 42, 0
10, 70180, Note_on_c, 9, 35, 0
10, 70320, Note_on_c, 9, 42, 70
10, 70420, Note_on_c, 9, 42, 0
10, 70560, Note_on_c, 9, 38, 100
10, 70560, Note_on_c, 9, 42, 100
10, 70660, Note_on_c, 9, 42, 0
10, 70660, Note_on_c, 9, 38, 0
10, 70800, Note_on_c, 9, 42, 70
10, 70900, Note_on_c, 9, 42, 0
10, 71040, Note_on_c, 9, 35, 90
10, 71040, Note_on_c, 9, 42, 90
10, 71140, Note_on_c, 9, 42, 0
10, 71140, Note_on_c, 9, 35, 0
10, 71280, Note_on_c, 9, 42, 70
10, 71380, Note_on_c, 9, 42, 0
10, 71520, Note_on_c, 9, 38, 100
10, 71520, Note_on_c, 9, 42, 115
10, 71620, Note_on_c, 9, 42, 0
10, 71620, Note_on_c, 9, 38, 0
10, 71760, Note_on_c, 9, 35, 80
10, 71760, Note_on_c, 9, 42, 70
10, 71860, Note_on_c, 9, 42, 0
10, 71860, Note_on_c, 9, 35, 0
10, 72000, Note_on_c, 9, 35, 100
10, 72000, Note_on_c, 9, 42, 90
10, 72100, Note_on_c, 9, 42, 0
10, 72100, Note_on_c, 9, 35, 0
10, 72240, Note_on_c, 9, 38, 50
10, 72240, Note_on_c, 9, 42, 50
10, 72340, Note_on_c, 9, 42, 0
10, 72340, Note_on_c, 9, 38, 0
10, 72360, Note_on_c, 9, 38, 40
10, 72460, Note_on_c, 9, 38, 0
10, 72480, Note_on_c, 9, 38, 80
10, 72480, Note_on_c, 9, 42, 70
10, 72580, Note_on_c, 9, 42, 0
10, 72580, Note_on_c, 9, 38, 0
10, 72600, Note_on_c, 9, 38, 50
10, 72700, Note_on_c, 9, 38, 0
10, 72720, Note_on_c, 9, 38, 90
10, 72720, Note_on_c, 9, 42, 50
10, 72820, Note_on_c, 9, 42, 0
10, 72820, Note_on_c, 9, 38, 0
10, 72840, Note_on_c, 9, 38, 60
10, 72940, Note_on_c, 9, 38, 0
10, 72960, Note_on_c, 9, 35, 90
10, 72960, Note_on_c, 9, 42, 90
10, 73060, Note_on_c, 9, 42, 0
10, 73060, Note_on_c, 9, 35, 0
10, 73200, Note_on_c, 9, 42, 70
10, 73300, Note_on_c, 9, 42, 0
10, 73440, Note_on_c, 9, 38, 100
10, 73440, Note_on_c, 9, 42, 115
10, 73540, Note_on_c, 9, 42, 0
10, 73540, Note_on_c, 9, 38, 0
10, 73680, Note_on_c, 9, 35, 80
10, 73680, Note_on_c, 9, 42, 70
10, 73780, Note_on_c, 9, 42, 0
10, 73780, Note_on_c, 9, 35, 0
10, 73920, Note_on_c, 9, 35, 100
10, 73920, Note_on_c, 9, 42, 90
10, 74020, Note_on_c, 9, 42, 0
10, 74020, Note_on_c, 9, 35, 0
10, 74160, Note_on_c, 9, 42, 70
10, 74260, Note_on_c, 9, 42, 0
10, 74400, Note_on_c, 9, 38, 100
10, 74400, Note_on_c, 9, 42, 100
10, 74500, Note_on_c, 9, 42, 0
10, 74500, Note_on_c, 9, 38, 0
10, 74640, Note_on_c, 9, 42, 70
10, 74740, Note_on_c, 9, 42, 0
10, 74880, Note_on_c, 9, 35, 90
10, 74880, Note_on_c, 9, 42, 90
10, 74980, Note_on_c, 9, 42, 0
10, 74980, Note_on_c, 9, 35, 0
10, 75120, Note_on_c, 9, 42, 70
10, 75220, Note_on_c, 9, 42, 0
10, 75360, Note_on_c, 9, 38, 100
10, 75360, Note_on_c, 9, 42, 115
10, 75460, Note_on_c, 9, 42, 0
10, 75460, Note_on_c, 9, 38, 0
10, 75600, Note_on_c, 9, 35, 80
10, 75600, Note_on_c, 9, 42, 80
10, 75700, Note_on_c, 9, 42, 0
10, 75700, Note_on_c, 9, 35, 0
10, 75840, Note_on_c, 9, 35, 100
10, 75840, Note_on_c, 9, 42, 90
10, 75940, Note_on_c, 9, 42, 0
10, 75940, Note_on_c, 9, 35, 0
10, 76080, Note_on_c, 9, 42, 70
10, 76180, Note_on_c, 9, 42, 0
10, 76320, Note_on_c, 9, 38, 100
10, 76320, Note_on_c, 9, 42, 100
10, 76320, Note_on_c, 9, 54, 115
10, 76420, Note_on_c, 9, 54, 0
10, 76420, Note_on_c, 9, 42, 0
10, 76420, Note_on_c, 9, 38, 0
10, 76560, Note_on_c, 9, 35, 70
10, 76560, Note_on_c, 9, 42, 70
10, 76660, Note_on_c, 9, 42, 0
10, 76660, Note_on_c, 9, 35, 0
10, 76800, Note_on_c, 9, 35, 90
10, 76800, Note_on_c, 9, 42, 90
10, 76900, Note_on_c, 9, 42, 0
10, 76900, Note_on_c, 9, 35, 0
10, 77040, Note_on_c, 9, 42, 70
10, 77140, Note_on_c, 9, 42, 0
10, 77280, Note_on_c, 9, 38, 100
10, 77280, Note_on_c, 9, 42, 115
10, 77380, Note_on_c, 9, 42, 0
10, 77380, Note_on_c, 9, 38, 0
10, 77520, Note_on_c, 9, 35, 80
10, 77520, Note_on_c, 9, 42, 70
10, 77620, Note_on_c, 9, 42, 0
10, 77620, Note_on_c, 9, 35, 0
10, 77760, Note_on_c, 9, 35, 100
10, 77760, Note_on_c, 9, 42, 90
10, 77860, Note_on_c, 9, 42, 0
10, 77860, Note_on_c, 9, 35, 0
10, 78000, Note_on_c, 9, 42, 70
10, 78100, Note_on_c, 9, 42, 0
10, 78240, Note_on_c, 9, 38, 100
10, 78240, Note_on_c, 9, 42, 100
10, 78340, Note_on_c, 9, 42, 0
10, 78340, Note_on_c, 9, 38, 0
10, 78480, Note_on_c, 9, 42, 70
10, 78580, Note_on_c, 9, 42, 0
10, 78720, Note_on_c, 9, 35, 90
10, 78720, Note_on_c, 9, 42, 100
10, 78820, Note_on_c, 9, 42, 0
10, 78820, Note_on_c, 9, 35, 0
10, 78960, Note_on_c, 9, 42, 70
10, 79060, Note_on_c, 9, 42, 0
10, 79200, Note_on_c, 9, 38, 100
10, 79200, Note_on_c, 9, 42, 115
10, 79300, Note_on_c, 9, 42, 0
10, 79300, Note_on_c, 9, 38, 0
10, 79320, Note_on_c, 9, 42, 60
10, 79420, Note_on_c, 9, 42, 0
10, 79440, Note_on_c, 9, 35, 80
10, 79440, Note_on_c, 9, 42, 70
10, 79540, Note_on_c, 9, 42, 0
10, 79540, Note_on_c, 9, 35, 0
10, 79680, Note_on_c, 9, 35, 100
10, 79680, Note_on_c, 9, 42, 90
10, 79780, Note_on_c, 9, 42, 0
10, 79780, Note_on_c, 9, 35, 0
10, 79920, Note_on_c, 9, 42, 70
10, 80020, Note_on_c, 9, 42, 0
10, 80160, Note_on_c, 9, 38, 100
10, 80160, Note_on_c, 9, 42, 100
10, 80260, Note_on_c, 9, 42, 0
10, 80260, Note_on_c, 9, 38, 0
10, 80400, Note_on_c, 9, 42, 70
10, 80500, Note_on_c, 9, 42, 0
10, 80640, Note_on_c, 9, 35, 90
10, 80640, Note_on_c, 9, 42, 90
10, 80740, Note_on_c, 9, 42, 0
10, 80740, Note_on_c, 9, 35, 0
10, 80880, Note_on_c, 9, 42, 70
10, 80980, Note_on_c, 9, 42, 0
10, 81120, Note_on_c, 9, 38, 100
10, 81120, Note_on_c, 9, 42, 115
10, 81220, Note_on_c, 9, 42, 0
10, 81220, Note_on_c, 9, 38, 0
10, 81360, Note_on_c, 9, 35, 80
10, 81360, Note_on_c, 9, 42, 70
10, 81460, Note_on_c, 9, 42, 0
10, 81460, Note_on_c, 9, 35, 0
10, 81600, Note_on_c, 9, 35, 100
10, 81600, Note_on_c, 9, 42, 90
10, 81700, Note_on_c, 9, 42, 0
10, 81700, Note_on_c, 9, 35, 0
10, 81840, Note_on_c, 9, 42, 70
10, 81940, Note_on_c, 9, 42, 0
10, 82080, Note_on_c, 9, 38, 100
10, 82080, Note_on_c, 9, 42, 100
10, 82180, Note_on_c, 9, 42, 0
10, 82180, Note_on_c, 9, 38, 0
10, 82320, Note_on_c, 9, 42, 70
10, 82420, Note_on_c, 9, 42, 0
10, 82560, Note_on_c, 9, 35, 90
10, 82560, Note_on_c, 9, 42, 90
10, 82660, Note_on_c, 9, 42, 0
10, 82660, Note_on_c, 9, 35, 0
10, 82800, Note_on_c, 9, 42, 70
10, 82900, Note_on_c, 9, 42, 0
10, 83040, Note_on_c, 9, 38, 100
10, 83040, Note_on_c, 9, 42, 115
10, 83140, Note_on_c, 9, 42, 0
10, 83140, Note_on_c, 9, 38, 0
10, 83280, Note_on_c, 9, 35, 80
10, 83280, Note_on_c, 9, 42, 75
10, 83380, Note_on_c, 9, 42, 0
10, 83380, Note_on_c, 9, 35, 0
10, 83520, Note_on_c, 9, 35, 100
10, 83520, Note_on_c, 9, 42, 90
10, 83620, Note_on_c, 9, 42, 0
10, 83620, Note_on_c, 9, 35, 0
10, 83760, Note_on_c, 9, 42, 70
10, 83860, Note_on_c, 9, 42, 0
10, 84000, Note_on_c, 9, 38, 100
10, 84000, Note_on_c, 9, 42, 100
10, 84000, Note_on_c, 9, 54, 115
10, 84100, Note_on_c, 9, 54, 0
10, 84100, Note_on_c, 9, 42, 0
10, 84100, Note_on_c, 9, 38, 0
10, 84240, Note_on_c, 9, 35, 70
10, 84240, Note_on_c, 9, 46, 80
10, 84340, Note_on_c, 9, 46, 0
10, 84340, Note_on_c, 9, 35, 0
10, 84480, Note_on_c, 9, 35, 90
10, 84480, Note_on_c, 9, 42, 90
10, 84580, Note_on_c, 9, 42, 0
10, 84580, Note_on_c, 9, 35, 0
10, 84720, Note_on_c, 9, 42, 70
10, 84820, Note_on_c, 9, 42, 0
10, 84960, Note_on_c, 9, 38, 100
10, 84960, Note_on_c, 9, 42, 115
10, 85060, Note_on_c, 9, 42, 0
10, 85060, Note_on_c, 9, 38, 0
10, 85200, Note_on_c, 9, 35, 80
10, 85200, Note_on_c, 9, 42, 70
10, 85300, Note_on_c, 9, 42, 0
10, 85300, Note_on_c, 9, 35, 0
10, 85440, Note_on_c, 9, 35, 100
10, 85440, Note_on_c, 9, 42, 90
10, 85540, Note_on_c, 9, 42, 0
10, 85540, Note_on_c, 9, 35, 0
10, 85680, Note_on_c, 9, 42, 70
10, 85780, Note_on_c, 9, 42, 0
10, 85920, Note_on_c, 9, 38, 100
10, 85920, Note_on_c, 9, 42, 100
10, 86020, Note_on_c, 9, 42, 0
10, 86020, Note_on_c, 9, 38, 0
10, 86160, Note_on_c, 9, 42, 70
10, 86260, Note_on_c, 9, 42, 0
10, 86400, Note_on_c, 9, 35, 90
10, 86400, Note_on_c, 9, 42, 90
10, 86500, Note_on_c, 9, 42, 0
10, 86500, Note_on_c, 9, 35, 0
10, 86640, Note_on_c, 9, 42, 70
10, 86740, Note_on_c, 9, 42, 0
10, 86880, Note_on_c, 9, 38, 100
10, 86880, Note_on_c, 9, 42, 115
10, 86980, Note_on_c, 9, 42, 0
10, 86980, Note_on_c, 9, 38, 0
10, 87120, Note_on_c, 9, 35, 80
10, 87120, Note_on_c, 9, 42, 70
10, 87220, Note_on_c, 9, 42, 0
10, 87220, Note_on_c, 9, 35, 0
10, 87360, Note_on_c, 9, 35, 100
10, 87360, Note_on_c, 9, 38, 50
10, 87360, Note_on_c, 9, 42, 90
10, 87460, Note_on_c, 9, 42, 0
10, 87460, Note_on_c, 9, 38, 0
10, 87460, Note_on_c, 9, 35, 0
10, 87480, Note_on_c, 9, 38, 40
10, 87580, Note_on_c, 9, 38, 0
10, 87600, Note_on_c, 9, 38, 70
10, 87600, Note_on_c, 9, 42, 60
10, 87700, Note_on_c, 9, 42, 0
10, 87700, Note_on_c, 9, 38, 0
10, 87720, Note_on_c, 9, 38, 60
10, 87820, Note_on_c, 9, 38, 0
10, 87840, Note_on_c, 9, 42, 80
10, 87840, Note_on_c, 9, 45, 70
10, 87940, Note_on_c, 9, 45, 0
10, 87940, Note_on_c, 9, 42, 0
10, 87960, Note_on_c, 9, 45, 60
10, 88060, Note_on_c, 9, 45, 0
10, 88080, Note_on_c, 9, 42, 60
10, 88080, Note_on_c, 9, 45, 80
10, 88180, Note_on_c, 9, 45, 0
10, 88180, Note_on_c, 9, 42, 0
10, 88200, Note_on_c, 9, 45, 70
10, 88300, Note_on_c, 9, 45, 0
10, 88320, Note_on_c, 9, 35, 90
10, 88320, Note_on_c, 9, 42, 90
10, 88420, Note_on_c, 9, 42, 0
10, 88420, Note_on_c, 9, 35, 0
10, 88560, Note_on_c, 9, 42, 70
10, 88660, Note_on_c, 9, 42, 0
10, 88800, Note_on_c, 9, 38, 100
10, 88800, Note_on_c, 9, 42, 115
10, 88900, Note_on_c, 9, 42, 0
10, 88900, Note_on_c, 9, 38, 0
10, 89040, Note_on_c, 9, 35, 80
10, 89040, Note_on_c, 9, 42, 70
10, 89140, Note_on_c, 9, 42, 0
10, 89140, Note_on_c, 9, 35, 0
10, 89280, Note_on_c, 9, 35, 100
10, 89280, Note_on_c, 9, 42, 90
10, 89380, Note_on_c, 9, 42, 0
10, 89380, Note_on_c, 9, 35, 0
10, 89520, Note_on_c, 9, 42, 70
10, 89620, Note_on_c, 9, 42, 0
10, 89760, Note_on_c, 9, 38, 100
10, 89760, Note_on_c, 9, 42, 100
10, 89860, Note_on_c, 9, 42, 0
10, 89860, Note_on_c, 9, 38, 0
10, 90000, Note_on_c, 9, 42, 70
10, 90100, Note_on_c, 9, 42, 0
10, 90240, Note_on_c, 9, 35, 90
10, 90240, Note_on_c, 9, 42, 90
10, 90340, Note_on_c, 9, 42, 0
10, 90340, Note_on_c, 9, 35, 0
10, 90480, Note_on_c, 9, 42, 70
10, 90580, Note_on_c, 9, 42, 0
10, 90720, Note_on_c, 9, 38, 100
10, 90720, Note_on_c, 9, 42, 115
10, 90820, Note_on_c, 9, 42, 0
10, 90820, Note_on_c, 9, 38, 0
10, 90960, Note_on_c, 9, 35, 80
10, 90960, Note_on_c, 9, 42, 80
10, 91060, Note_on_c, 9, 42, 0
10, 91060, Note_on_c, 9, 35, 0
10, 91200, Note_on_c, 9, 35, 100
10, 91200, Note_on_c, 9, 42, 90
10, 91300, Note_on_c, 9, 42, 0
10, 91300, Note_on_c, 9, 35, 0
10, 91440, Note_on_c, 9, 42, 70
10, 91540, Note_on_c, 9, 42, 0
10, 91680, Note_on_c, 9, 38, 100
10, 91680, Note_on_c, 9, 42, 100
10, 91680, Note_on_c, 9, 54, 115
10, 91780, Note_on_c, 9, 54, 0
10, 91780, Note_on_c, 9, 42, 0
10, 91780, Note_on_c, 9, 38, 0
10, 91920, Note_on_c, 9, 35, 70
10, 91920, Note_on_c, 9, 42, 70
10, 92020, Note_on_c, 9, 42, 0
10, 92020, Note_on_c, 9, 35, 0
10, 92160, Note_on_c, 9, 35, 90
10, 92160, Note_on_c, 9, 42, 90
10, 92260, Note_on_c, 9, 42, 0
10, 92260, Note_on_c, 9, 35, 0
10, 92400, Note_on_c, 9, 42, 70
10, 92500, Note_on_c, 9, 42, 0
10, 92640, Note_on_c, 9, 38, 100
10, 92640, Note_on_c, 9, 42, 115
10, 92740, Note_on_c, 9, 42, 0
10, 92740, Note_on_c, 9, 38, 0
10, 92880, Note_on_c, 9, 35, 80
10, 92880, Note_on_c, 9, 42, 70
10, 92980, Note_on_c, 9, 42, 0
10, 92980, Note_on_c, 9, 35, 0
10, 93120, Note_on_c, 9, 35, 100
10, 93120, Note_on_c, 9, 42, 90
10, 93220, Note_on_c, 9, 42, 0
10, 93220, Note_on_c, 9, 35, 0
10, 93360, Note_on_c, 9, 42, 70
10, 93460, Note_on_c, 9, 42, 0
10, 93600, Note_on_c, 9, 38, 100
10, 93600, Note_on_c, 9, 42, 100
10, 93700, Note_on_c, 9, 42, 0
10, 93700, Note_on_c, 9, 38, 0
10, 93840, Note_on_c, 9, 42, 70
10, 93940, Note_on_c, 9, 42, 0
10, 94080, Note_on_c, 9, 35, 90
10, 94080, Note_on_c, 9, 42, 100
10, 94180, Note_on_c, 9, 42, 0
10, 94180, Note_on_c, 9, 35, 0
10, 94320, Note_on_c, 9, 42, 70
10, 94420, Note_on_c, 9, 42, 0
10, 94560, Note_on_c, 9, 38, 100
10, 94560, Note_on_c, 9, 42, 115
10, 94660, Note_on_c, 9, 42, 0
10, 94660, Note_on_c, 9, 38, 0
10, 94800, Note_on_c, 9, 35, 80
10, 94800, Note_on_c, 9, 42, 70
10, 94900, Note_on_c, 9, 42, 0
10, 94900, Note_on_c, 9, 35, 0
10, 95040, Note_on_c, 9, 35, 100
10, 95040, Note_on_c, 9, 42, 90
10, 95140, Note_on_c, 9, 42, 0
10, 95140, Note_on_c, 9, 35, 0
10, 95280, Note_on_c, 9, 42, 70
10, 95380, Note_on_c, 9, 42, 0
10, 95520, Note_on_c, 9, 38, 100
10, 95520, Note_on_c, 9, 42, 100
10, 95620, Note_on_c, 9, 42, 0
10, 95620, Note_on_c, 9, 38, 0
10, 95760, Note_on_c, 9, 42, 70
10, 95860, Note_on_c, 9, 42, 0
10, 96000, Note_on_c, 9, 35, 90
10, 96000, Note_on_c, 9, 42, 90
10, 96100, Note_on_c, 9, 42, 0
10, 96100, Note_on_c, 9, 35, 0
10, 96240, Note_on_c, 9, 42, 70
10, 96340, Note_on_c, 9, 42, 0
10, 96480, Note_on_c, 9, 38, 100
10, 96480, Note_on_c, 9, 42, 115
10, 96580, Note_on_c, 9, 42, 0
10, 96580, Note_on_c, 9, 38, 0
10, 96720, Note_on_c, 9, 35, 80
10, 96720, Note_on_c, 9, 42, 70
10, 96820, Note_on_c, 9, 42, 0
10, 96820, Note_on_c, 9, 35, 0
10, 96960, Note_on_c, 9, 35, 100
10, 96960, Note_on_c, 9, 42, 90
10, 97060, Note_on_c, 9, 42, 0
10, 97060, Note_on_c, 9, 35, 0
10, 97200, Note_on_c, 9, 46, 72
10, 97300, Note_on_c, 9, 46, 0
10, 97440, Note_on_c, 9, 38, 100
10, 97440, Note_on_c, 9, 42, 100
10, 97540, Note_on_c, 9, 42, 0
10, 97540, Note_on_c, 9, 38, 0
10, 97680, Note_on_c, 9, 42, 70
10, 97780, Note_on_c, 9, 42, 0
10, 97920, Note_on_c, 9, 35, 90
10, 97920, Note_on_c, 9, 42, 100
10, 98020, Note_on_c, 9, 42, 0
10, 98020, Note_on_c, 9, 35, 0
10, 98160, Note_on_c, 9, 42, 70
10, 98260, Note_on_c, 9, 42, 0
10, 98400, Note_on_c, 9, 38, 100
10, 98400, Note_on_c, 9, 42, 115
10, 98500, Note_on_c, 9, 42, 0
10, 98500, Note_on_c, 9, 38, 0
10, 98520, Note_on_c, 9, 42, 60
10, 98620, Note_on_c, 9, 42, 0
10, 98640, Note_on_c, 9, 35, 80
10, 98640, Note_on_c, 9, 42, 70
10, 98740, Note_on_c, 9, 42, 0
10, 98740, Note_on_c, 9, 35, 0
10, 98880, Note_on_c, 9, 35, 100
10, 98880, Note_on_c, 9, 42, 90
10, 98980, Note_on_c, 9, 42, 0
10, 98980, Note_on_c, 9, 35, 0
10, 99120, Note_on_c, 9, 42, 70
10, 99220, Note_on_c, 9, 42, 0
10, 99360, Note_on_c, 9, 38, 100
10, 99360, Note_on_c, 9, 42, 100
10, 99460, Note_on_c, 9, 42, 0
10, 99460, Note_on_c, 9, 38, 0
10, 99600, Note_on_c, 9, 42, 70
10, 99700, Note_on_c, 9, 42, 0
10, 99840, Note_on_c, 9, 35, 90
10, 99840, Note_on_c, 9, 42, 90
10, 99940, Note_on_c, 9, 42, 0
10, 99940, Note_on_c, 9, 35, 0
10, 100080, Note_on_c, 9, 42, 70
10, 100180, Note_on_c, 9, 42, 0
10, 100320, Note_on_c, 9, 38, 100
10, 100320, Note_on_c, 9, 42, 115
10, 100420, Note_on_c, 9, 42, 0
10, 100420, Note_on_c, 9, 38, 0
10, 100560, Note_on_c, 9, 35, 80
10, 100560, Note_on_c, 9, 42, 70
10, 100660, Note_on_c, 9, 42, 0
10, 100660, Note_on_c, 9, 35, 0
10, 100800, Note_on_c, 9, 35, 100
10, 100800, Note_on_c, 9, 38, 50
10, 100800, Note_on_c, 9, 42, 90
10, 100900, Note_on_c, 9, 42, 0
10, 100900, Note_on_c, 9, 38, 0
10, 100900, Note_on_c, 9, 35, 0
10, 100920, Note_on_c, 9, 38, 40
10, 101020, Note_on_c, 9, 38, 0
10, 101040, Note_on_c, 9, 38, 70
10, 101040, Note_on_c, 9, 42, 60
10, 101140, Note_on_c, 9, 42, 0
10, 101140, Note_on_c, 9, 38, 0
10, 101160, Note_on_c, 9, 38, 60
10, 101260, Note_on_c, 9, 38, 0
10, 101280, Note_on_c, 9, 42, 80
10, 101280, Note_on_c, 9, 45, 70
10, 101380, Note_on_c, 9, 45, 0
10, 101380, Note_on_c, 9, 42, 0
10, 101400, Note_on_c, 9, 45, 60
10, 101500, Note_on_c, 9, 45, 0
10, 101520, Note_on_c, 9, 42, 60
10, 101520, Note_on_c, 9, 45, 80
10, 101620, Note_on_c, 9, 45, 0
10, 101620, Note_on_c, 9, 42, 0
10, 101640, Note_on_c, 9, 45, 70
10, 101740, Note_on_c, 9, 45, 0
10, 101760, Note_on_c, 9, 35, 90
10, 101760, Note_on_c, 9, 38, 90
10, 101760, Note_on_c, 9, 42, 90
10, 101760, Note_on_c, 9, 49, 80
10, 101860, Note_on_c, 9, 49, 0
10, 101860, Note_on_c, 9, 35, 0
10, 101860, Note_on_c, 9, 38, 0
10, 101860, Note_on_c, 9, 42, 0
10, 102000, Note_on_c, 9, 42, 90
10, 102100, Note_on_c, 9, 42, 0
10, 102240, Note_on_c, 9, 38, 100
10, 102240, Note_on_c, 9, 42, 115
10, 102340, Note_on_c, 9, 42, 0
10, 102340, Note_on_c, 9, 38, 0
10, 102480, Note_on_c, 9, 35, 80
10, 102480, Note_on_c, 9, 42, 70
10, 102580, Note_on_c, 9, 42, 0
10, 102580, Note_on_c, 9, 35, 0
10, 102720, Note_on_c, 9, 35, 100
10, 102720, Note_on_c, 9, 42, 90
10, 102820, Note_on_c, 9, 42, 0
10, 102820, Note_on_c, 9, 35, 0
10, 102960, Note_on_c, 9, 42, 70
10, 103060, Note_on_c, 9, 42, 0
10, 103200, Note_on_c, 9, 38, 100
10, 103200, Note_on_c, 9, 42, 100
10, 103300, Note_on_c, 9, 42, 0
10, 103300, Note_on_c, 9, 38, 0
10, 103440, Note_on_c, 9, 42, 70
10, 103540, Note_on_c, 9, 42, 0
10, 103680, Note_on_c, 9, 35, 90
10, 103680, Note_on_c, 9, 42, 90
10, 103780, Note_on_c, 9, 42, 0
10, 103780, Note_on_c, 9, 35, 0
10, 103920, Note_on_c, 9, 42, 70
10, 104020, Note_on_c, 9, 42, 0
10, 104160, Note_on_c, 9, 38, 100
10, 104160, Note_on_c, 9, 42, 115
10, 104260, Note_on_c, 9, 42, 0
10, 104260, Note_on_c, 9, 38, 0
10, 104400, Note_on_c, 9, 35, 80
10, 104400, Note_on_c, 9, 42, 80
10, 104500, Note_on_c, 9, 42, 0
10, 104500, Note_on_c, 9, 35, 0
10, 104640, Note_on_c, 9, 35, 100
10, 104640, Note_on_c, 9, 42, 90
10, 104740, Note_on_c, 9, 42, 0
10, 104740, Note_on_c, 9, 35, 0
10, 104880, Note_on_c, 9, 42, 70
10, 104980, Note_on_c, 9, 42, 0
10, 105120, Note_on_c, 9, 38, 100
10, 105120, Note_on_c, 9, 42, 100
10, 105120, Note_on_c, 9, 54, 115
10, 105220, Note_on_c, 9, 54, 0
10, 105220, Note_on_c, 9, 42, 0
10, 105220, Note_on_c, 9, 38, 0
10, 105360, Note_on_c, 9, 35, 70
10, 105360, Note_on_c, 9, 42, 70
10, 105460, Note_on_c, 9, 42, 0
10, 105460, Note_on_c, 9, 35, 0
10, 105600, Note_on_c, 9, 35, 90
10, 105600, Note_on_c, 9, 42, 90
10, 105700, Note_on_c, 9, 42, 0
10, 105700, Note_on_c, 9, 35, 0
10, 105840, Note_on_c, 9, 42, 70
10, 105940, Note_on_c, 9, 42, 0
10, 106080, Note_on_c, 9, 38, 100
10, 106080, Note_on_c, 9, 42, 115
10, 106180, Note_on_c, 9, 42, 0
10, 106180, Note_on_c, 9, 38, 0
10, 106320, Note_on_c, 9, 35, 80
10, 106320, Note_on_c, 9, 42, 70
10, 106420, Note_on_c, 9, 42, 0
10, 106420, Note_on_c, 9, 35, 0
10, 106560, Note_on_c, 9, 35, 100
10, 106560, Note_on_c, 9, 42, 90
10, 106660, Note_on_c, 9, 42, 0
10, 106660, Note_on_c, 9, 35, 0
10, 106800, Note_on_c, 9, 42, 70
10, 106900, Note_on_c, 9, 42, 0
10, 107040, Note_on_c, 9, 38, 100
10, 107040, Note_on_c, 9, 42, 100
10, 107140, Note_on_c, 9, 42, 0
10, 107140, Note_on_c, 9, 38, 0
10, 107280, Note_on_c, 9, 42, 70
10, 107380, Note_on_c, 9, 42, 0
10, 107520, Note_on_c, 9, 35, 90
10, 107520, Note_on_c, 9, 42, 90
10, 107620, Note_on_c, 9, 42, 0
10, 107620, Note_on_c, 9, 35, 0
10, 107760, Note_on_c, 9, 42, 70
10, 107860, Note_on_c, 9, 42, 0
10, 108000, Note_on_c, 9, 38, 100
10, 108000, Note_on_c, 9, 42, 115
10, 108100, Note_on_c, 9, 42, 0
10, 108100, Note_on_c, 9, 38, 0
10, 108240, Note_on_c, 9, 35, 80
10, 108240, Note_on_c, 9, 42, 80
10, 108340, Note_on_c, 9, 42, 0
10, 108340, Note_on_c, 9, 35, 0
10, 108480, Note_on_c, 9, 35, 100
10, 108480, Note_on_c, 9, 42, 90
10, 108580, Note_on_c, 9, 42, 0
10, 108580, Note_on_c, 9, 35, 0
10, 108720, Note_on_c, 9, 42, 70
10, 108820, Note_on_c, 9, 42, 0
10, 108960, Note_on_c, 9, 38, 100
10, 108960, Note_on_c, 9, 42, 100
10, 108960, Note_on_c, 9, 54, 115
10, 109060, Note_on_c, 9, 54, 0
10, 109060, Note_on_c, 9, 42, 0
10, 109060, Note_on_c, 9, 38, 0
10, 109200, Note_on_c, 9, 35, 70
10, 109200, Note_on_c, 9, 42, 70
10, 109300, Note_on_c, 9, 42, 0
10, 109300, Note_on_c, 9, 35, 0
10, 109440, Note_on_c, 9, 35, 90
10, 109440, Note_on_c, 9, 42, 90
10, 109540, Note_on_c, 9, 42, 0
10, 109540, Note_on_c, 9, 35, 0
10, 109680, Note_on_c, 9, 42, 70
10, 109780, Note_on_c, 9, 42, 0
10, 109920, Note_on_c, 9, 38, 100
10, 109920, Note_on_c, 9, 42, 115
10, 110020, Note_on_c, 9, 42, 0
10, 110020, Note_on_c, 9, 38, 0
10, 110160, Note_on_c, 9, 35, 80
10, 110160, Note_on_c, 9, 42, 70
10, 110260, Note_on_c, 9, 42, 0
10, 110260, Note_on_c, 9, 35, 0
10, 110400, Note_on_c, 9, 35, 100
10, 110400, Note_on_c, 9, 42, 90
10, 110500, Note_on_c, 9, 42, 0
10, 110500, Note_on_c, 9, 35, 0
10, 110640, Note_on_c, 9, 42, 70
10, 110740, Note_on_c, 9, 42, 0
10, 110880, Note_on_c, 9, 38, 100
10, 110880, Note_on_c, 9, 42, 100
10, 110980, Note_on_c, 9, 42, 0
10, 110980, Note_on_c, 9, 38, 0
10, 111120, Note_on_c, 9, 42, 70
10, 111220, Note_on_c, 9, 42, 0
10, 111360, Note_on_c, 9, 35, 90
10, 111360, Note_on_c, 9, 42, 90
10, 111460, Note_on_c, 9, 42, 0
10, 111460, Note_on_c, 9, 35, 0
10, 111600, Note_on_c, 9, 42, 70
10, 111700, Note_on_c, 9, 42, 0
10, 111840, Note_on_c, 9, 38, 100
10, 111840, Note_on_c, 9, 42, 115
10, 111940, Note_on_c, 9, 42, 0
10, 111940, Note_on_c, 9, 38, 0
10, 112080, Note_on_c, 9, 35, 80
10, 112080, Note_on_c, 9, 42, 75
10, 112180, Note_on_c, 9, 42, 0
10, 112180, Note_on_c, 9, 35, 0
10, 112320, Note_on_c, 9, 35, 100
10, 112320, Note_on_c, 9, 42, 90
10, 112420, Note_on_c, 9, 42, 0
10, 112420, Note_on_c, 9, 35, 0
10, 112560, Note_on_c, 9, 42, 70
10, 112660, Note_on_c, 9, 42, 0
10, 112800, Note_on_c, 9, 38, 100
10, 112800, Note_on_c, 9, 42, 100
10, 112800, Note_on_c, 9, 54, 115
10, 112900, Note_on_c, 9, 54, 0
10, 112900, Note_on_c, 9, 42, 0
10, 112900, Note_on_c, 9, 38, 0
10, 113040, Note_on_c, 9, 35, 70
10, 113040, Note_on_c, 9, 46, 80
10, 113140, Note_on_c, 9, 46, 0
10, 113140, Note_on_c, 9, 35, 0
10, 113280, Note_on_c, 9, 35, 90
10, 113280, Note_on_c, 9, 42, 90
10, 113380, Note_on_c, 9, 42, 0
10, 113380, Note_on_c, 9, 35, 0
10, 113520, Note_on_c, 9, 42, 70
10, 113620, Note_on_c, 9, 42, 0
10, 113760, Note_on_c, 9, 38, 100
10, 113760, Note_on_c, 9, 42, 115
10, 113860, Note_on_c, 9, 42, 0
10, 113860, Note_on_c, 9, 38, 0
10, 114000, Note_on_c, 9, 35, 80
10, 114000, Note_on_c, 9, 42, 70
10, 114100, Note_on_c, 9, 42, 0
10, 114100, Note_on_c, 9, 35, 0
10, 114240, Note_on_c, 9, 35, 100
10, 114240, Note_on_c, 9, 42, 90
10, 114340, Note_on_c, 9, 42, 0
10, 114340, Note_on_c, 9, 35, 0
10, 114480, Note_on_c, 9, 42, 70
10, 114580, Note_on_c, 9, 42, 0
10, 114720, Note_on_c, 9, 38, 100
10, 114720, Note_on_c, 9, 42, 100
10, 114820, Note_on_c, 9, 42, 0
10, 114820, Note_on_c, 9, 38, 0
10, 114960, Note_on_c, 9, 42, 70
10, 115060, Note_on_c, 9, 42, 0
10, 115200, Note_on_c, 9, 35, 90
10, 115200, Note_on_c, 9, 42, 90
10, 115300, Note_on_c, 9, 42, 0
10, 115300, Note_on_c, 9, 35, 0
10, 115440, Note_on_c, 9, 42, 70
10, 115540, Note_on_c, 9, 42, 0
10, 115680, Note_on_c, 9, 38, 100
10, 115680, Note_on_c, 9, 42, 115
10, 115780, Note_on_c, 9, 42, 0
10, 115780, Note_on_c, 9, 38, 0
10, 115920, Note_on_c, 9, 35, 80
10, 115920, Note_on_c, 9, 42, 70
10, 116020, Note_on_c, 9, 42, 0
10, 116020, Note_on_c, 9, 35, 0
10, 116160, Note_on_c, 9, 35, 100
10, 116160, Note_on_c, 9, 42, 90
10, 116260, Note_on_c, 9, 42, 0
10, 116260, Note_on_c, 9, 35, 0
10, 116400, Note_on_c, 9, 38, 50
10, 116400, Note_on_c, 9, 42, 50
10, 116500, Note_on_c, 9, 42, 0
10, 116500, Note_on_c, 9, 38, 0
10, 116520, Note_on_c, 9, 38, 40
10, 116620, Note_on_c, 9, 38, 0
10, 116640, Note_on_c, 9, 38, 80
10, 116640, Note_on_c, 9, 42, 70
10, 116740, Note_on_c, 9, 42, 0
10, 116740, Note_on_c, 9, 38, 0
10, 116760, Note_on_c, 9, 38, 50
10, 116860, Note_on_c, 9, 38, 0
10, 116880, Note_on_c, 9, 38, 90
10, 116880, Note_on_c, 9, 42, 50
10, 116980, Note_on_c, 9, 42, 0
10, 116980, Note_on_c, 9, 38, 0
10, 117000, Note_on_c, 9, 38, 60
10, 117100, Note_on_c, 9, 38, 0
10, 117120, Note_on_c, 9, 35, 90
10, 117120, Note_on_c, 9, 42, 90
10, 117220, Note_on_c, 9, 42, 0
10, 117220, Note_on_c, 9, 35, 0
10, 117360, Note_on_c, 9, 42, 70
10, 117460, Note_on_c, 9, 42, 0
10, 117600, Note_on_c, 9, 38, 100
10, 117600, Note_on_c, 9, 42, 100
10, 117700, Note_on_c, 9, 42, 0
10, 117700, Note_on_c, 9, 38, 0
10, 117840, Note_on_c, 9, 35, 80
10, 117840, Note_on_c, 9, 42, 70
10, 117940, Note_on_c, 9, 42, 0
10, 117940, Note_on_c, 9, 35, 0
10, 118080, Note_on_c, 9, 35, 100
10, 118080, Note_on_c, 9, 42, 90
10, 118180, Note_on_c, 9, 42, 0
10, 118180, Note_on_c, 9, 35, 0
10, 118320, Note_on_c, 9, 42, 70
10, 118420, Note_on_c, 9, 42, 0
10, 118560, Note_on_c, 9, 38, 100
10, 118560, Note_on_c, 9, 42, 100
10, 118660, Note_on_c, 9, 42, 0
10, 118660, Note_on_c, 9, 38, 0
10, 118800, Note_on_c, 9, 35, 70
10, 118800, Note_on_c, 9, 42, 70
10, 118900, Note_on_c, 9, 42, 0
10, 118900, Note_on_c, 9, 35, 0
10, 118920, Note_on_c, 9, 46, 70
10, 119020, Note_on_c, 9, 46, 0
10, 119040, Note_on_c, 9, 35, 90
10, 119040, Note_on_c, 9, 42, 90
10, 119140, Note_on_c, 9, 42, 0
10, 119140, Note_on_c, 9, 35, 0
10, 119280, Note_on_c, 9, 42, 70
10, 119380, Note_on_c, 9, 42, 0
10, 119520, Note_on_c, 9, 38, 100
10, 119520, Note_on_c, 9, 42, 100
10, 119620, Note_on_c, 9, 42, 0
10, 119620, Note_on_c, 9, 38, 0
10, 119760, Note_on_c, 9, 35, 80
10, 119760, Note_on_c, 9, 42, 100
10, 119860, Note_on_c, 9, 42, 0
10, 119860, Note_on_c, 9, 35, 0
10, 120000, Note_on_c, 9, 35, 100
10, 120000, Note_on_c, 9, 42, 90
10, 120100, Note_on_c, 9, 42, 0
10, 120100, Note_on_c, 9, 35, 0
10, 120240, Note_on_c, 9, 35, 90
10, 120240, Note_on_c, 9, 42, 70
10, 120340, Note_on_c, 9, 42, 0
10, 120340, Note_on_c, 9, 35, 0
10, 120480, Note_on_c, 9, 38, 100
10, 120480, Note_on_c, 9, 42, 100
10, 120580, Note_on_c, 9, 42, 0
10, 120580, Note_on_c, 9, 38, 0
10, 120720, Note_on_c, 9, 35, 70
10, 120720, Note_on_c, 9, 42, 70
10, 120820, Note_on_c, 9, 42, 0
10, 120820, Note_on_c, 9, 35, 0
10, 120960, Note_on_c, 9, 35, 90
10, 120960, Note_on_c, 9, 42, 90
10, 121060, Note_on_c, 9, 42, 0
10, 121060, Note_on_c, 9, 35, 0
10, 121200, Note_on_c, 9, 42, 70
10, 121300, Note_on_c, 9, 42, 0
10, 121440, Note_on_c, 9, 38, 100
10, 121440, Note_on_c, 9, 42, 100
10, 121540, Note_on_c, 9, 42, 0
10, 121540, Note_on_c, 9, 38, 0
10, 121680, Note_on_c, 9, 35, 80
10, 121680, Note_on_c, 9, 42, 70
10, 121780, Note_on_c, 9, 42, 0
10, 121780, Note_on_c, 9, 35, 0
10, 121920, Note_on_c, 9, 35, 100
10, 121920, Note_on_c, 9, 42, 90
10, 122020, Note_on_c, 9, 42, 0
10, 122020, Note_on_c, 9, 35, 0
10, 122160, Note_on_c, 9, 41, 72
10, 122260, Note_on_c, 9, 41, 0
10, 122400, Note_on_c, 9, 38, 100
10, 122400, Note_on_c, 9, 42, 100
10, 122500, Note_on_c, 9, 42, 0
10, 122500, Note_on_c, 9, 38, 0
10, 122640, Note_on_c, 9, 35, 70
10, 122640, Note_on_c, 9, 42, 70
10, 122740, Note_on_c, 9, 42, 0
10, 122740, Note_on_c, 9, 35, 0
10, 122880, Note_on_c, 9, 35, 100
10, 122880, Note_on_c, 9, 42, 90
10, 122980, Note_on_c, 9, 42, 0
10, 122980, Note_on_c, 9, 35, 0
10, 122980, End_track
11, 0, Start_track
11, 0, Title_t, "Do You Wanna Dance"
11, 0, End_track
12, 0, Start_track
12, 0, Title_t, "Words and Music by:"
12, 0, End_track
13, 0, Start_track
13, 0, Title_t, "Bobby Freeman"
13, 0, End_track
14, 0, Start_track
14, 0, Title_t, "Sequenced by:"
14, 0, End_track
15, 0, Start_track
15, 0, Title_t, "Gary Rogers"
15, 0, End_track
0, 0, End_of_file
