0, 0, Header, 1, 5, 960
1, 0, Start_track
1, 0, Control_c, 0, 101, 0
1, 0, Control_c, 0, 100, 0
1, 0, Control_c, 0, 6, 12
1, 0, Control_c, 0, 38, 0
1, 0, Control_c, 1, 101, 0
1, 0, Control_c, 1, 100, 0
1, 0, Control_c, 1, 6, 12
1, 0, Control_c, 1, 38, 0
1, 0, Control_c, 2, 101, 0
1, 0, Control_c, 2, 100, 0
1, 0, Control_c, 2, 6, 12
1, 0, Control_c, 2, 38, 0
1, 0, Control_c, 3, 101, 0
1, 0, Control_c, 3, 100, 0
1, 0, Control_c, 3, 6, 12
1, 0, Control_c, 3, 38, 0
1, 0, Control_c, 4, 101, 0
1, 0, Control_c, 4, 100, 0
1, 0, Control_c, 4, 6, 12
1, 0, Control_c, 4, 38, 0
1, 0, Control_c, 5, 101, 0
1, 0, Control_c, 5, 100, 0
1, 0, Control_c, 5, 6, 12
1, 0, Control_c, 5, 38, 0
1, 0, Control_c, 6, 101, 0
1, 0, Control_c, 6, 100, 0
1, 0, Control_c, 6, 6, 12
1, 0, Control_c, 6, 38, 0
1, 0, Control_c, 7, 101, 0
1, 0, Control_c, 7, 100, 0
1, 0, Control_c, 7, 6, 12
1, 0, Control_c, 7, 38, 0
1, 0, Control_c, 8, 101, 0
1, 0, Control_c, 8, 100, 0
1, 0, Control_c, 8, 6, 12
1, 0, Control_c, 8, 38, 0
1, 0, Control_c, 9, 101, 0
1, 0, Control_c, 9, 100, 0
1, 0, Control_c, 9, 6, 12
1, 0, Control_c, 9, 38, 0
1, 0, Control_c, 10, 101, 0
1, 0, Control_c, 10, 100, 0
1, 0, Control_c, 10, 6, 12
1, 0, Control_c, 10, 38, 0
1, 0, Control_c, 11, 101, 0
1, 0, Control_c, 11, 100, 0
1, 0, Control_c, 11, 6, 12
1, 0, Control_c, 11, 38, 0
1, 0, Control_c, 12, 101, 0
1, 0, Control_c, 12, 100, 0
1, 0, Control_c, 12, 6, 12
1, 0, Control_c, 12, 38, 0
1, 0, Control_c, 13, 101, 0
1, 0, Control_c, 13, 100, 0
1, 0, Control_c, 13, 6, 12
1, 0, Control_c, 13, 38, 0
1, 0, Control_c, 14, 101, 0
1, 0, Control_c, 14, 100, 0
1, 0, Control_c, 14, 6, 12
1, 0, Control_c, 14, 38, 0
1, 0, Control_c, 15, 101, 0
1, 0, Control_c, 15, 100, 0
1, 0, Control_c, 15, 6, 12
1, 0, Control_c, 15, 38, 0
1, 0, Time_signature, 3, 2, 24, 8
1, 0, Tempo, 545454
1, 446400, Tempo, 750000
1, 446400, End_track
2, 0, Start_track
2, 0, Pitch_bend_c, 0, 8192
2, 0, Control_c, 0, 7, 79
2, 0, Control_c, 0, 10, 63
2, 0, Control_c, 0, 93, 15
2, 0, Control_c, 0, 91, 127
2, 0, Control_c, 0, 95, 0
2, 0, Control_c, 0, 92, 0
2, 0, Control_c, 0, 11, 127
2, 0, Program_c, 0, 26
2, 0, Control_c, 1, 7, 79
2, 0, Control_c, 1, 10, 63
2, 0, Control_c, 1, 93, 15
2, 0, Control_c, 1, 91, 127
2, 0, Control_c, 1, 95, 0
2, 0, Control_c, 1, 92, 0
2, 0, Control_c, 1, 11, 127
2, 0, Program_c, 1, 26
2, 11200, Note_on_c, 0, 55, 95
2, 11520, Note_off_c, 0, 55, 95
2, 11520, Note_on_c, 1, 55, 95
2, 11640, Pitch_bend_c, 1, 8832
2, 11760, Pitch_bend_c, 1, 9600
2, 11760, Pitch_bend_c, 1, 8192
2, 11760, Note_off_c, 1, 55, 95
2, 11760, Note_on_c, 0, 57, 95
2, 12480, Note_off_c, 0, 57, 95
2, 12480, Note_on_c, 0, 60, 95
2, 13920, Note_off_c, 0, 60, 95
2, 14080, Note_on_c, 0, 62, 95
2, 14880, Note_off_c, 0, 62, 95
2, 14880, Note_on_c, 0, 65, 95
2, 15360, Note_off_c, 0, 65, 95
2, 15360, Note_on_c, 0, 64, 95
2, 16800, Note_off_c, 0, 64, 95
2, 16920, Pitch_bend_c, 1, 8448
2, 16960, Note_on_c, 1, 62, 95
2, 17040, Pitch_bend_c, 1, 8832
2, 17160, Pitch_bend_c, 1, 9216
2, 17280, Pitch_bend_c, 1, 9600
2, 17280, Pitch_bend_c, 1, 8192
2, 17280, Note_off_c, 1, 62, 95
2, 17280, Note_on_c, 0, 64, 95
2, 18240, Note_off_c, 0, 64, 95
2, 18240, Note_on_c, 0, 65, 95
2, 19680, Note_off_c, 0, 65, 95
2, 19840, Note_on_c, 0, 60, 95
2, 20160, Note_off_c, 0, 60, 95
2, 20160, Note_on_c, 0, 57, 95
2, 22080, Note_off_c, 0, 57, 95
2, 22680, Pitch_bend_c, 1, 8448
2, 22720, Note_on_c, 1, 55, 95
2, 22800, Pitch_bend_c, 1, 8832
2, 22920, Pitch_bend_c, 1, 9216
2, 23040, Pitch_bend_c, 1, 9600
2, 23040, Pitch_bend_c, 1, 8192
2, 23040, Note_off_c, 1, 55, 95
2, 23040, Note_on_c, 0, 57, 95
2, 24000, Note_off_c, 0, 57, 95
2, 24000, Note_on_c, 0, 60, 95
2, 25440, Note_off_c, 0, 60, 95
2, 25600, Note_on_c, 0, 62, 95
2, 26280, Note_off_c, 0, 62, 95
2, 26280, Note_on_c, 0, 65, 95
2, 26640, Note_off_c, 0, 65, 95
2, 26640, Note_on_c, 0, 64, 95
2, 28320, Note_off_c, 0, 64, 95
2, 28480, Note_on_c, 0, 57, 95
2, 28800, Note_off_c, 0, 57, 95
2, 28800, Note_on_c, 1, 60, 47
2, 28920, Pitch_bend_c, 1, 8192
2, 29040, Pitch_bend_c, 1, 8192
2, 29160, Pitch_bend_c, 1, 8192
2, 29280, Pitch_bend_c, 1, 8192
2, 29400, Pitch_bend_c, 1, 8192
2, 29520, Pitch_bend_c, 1, 8192
2, 29640, Pitch_bend_c, 1, 8192
2, 29760, Pitch_bend_c, 1, 8192
2, 29880, Pitch_bend_c, 1, 8192
2, 30000, Pitch_bend_c, 1, 8192
2, 30120, Pitch_bend_c, 1, 8192
2, 30240, Pitch_bend_c, 1, 8192
2, 30360, Pitch_bend_c, 1, 8192
2, 30480, Pitch_bend_c, 1, 8192
2, 30600, Pitch_bend_c, 1, 8192
2, 30720, Pitch_bend_c, 1, 8192
2, 30840, Pitch_bend_c, 1, 8192
2, 30960, Pitch_bend_c, 1, 8192
2, 31080, Pitch_bend_c, 1, 8192
2, 31200, Pitch_bend_c, 1, 8192
2, 31320, Pitch_bend_c, 1, 8192
2, 31440, Pitch_bend_c, 1, 8192
2, 31560, Pitch_bend_c, 1, 8192
2, 31680, Pitch_bend_c, 1, 8192
2, 31680, Pitch_bend_c, 1, 8192
2, 33600, Note_off_c, 1, 60, 47
2, 34200, Pitch_bend_c, 1, 8448
2, 34240, Note_on_c, 1, 55, 95
2, 34320, Pitch_bend_c, 1, 8832
2, 34440, Pitch_bend_c, 1, 9216
2, 34560, Pitch_bend_c, 1, 9600
2, 34560, Pitch_bend_c, 1, 8192
2, 34560, Note_off_c, 1, 55, 95
2, 34560, Note_on_c, 0, 57, 95
2, 35520, Note_off_c, 0, 57, 95
2, 35520, Note_on_c, 0, 60, 95
2, 36960, Note_off_c, 0, 60, 95
2, 37120, Note_on_c, 0, 62, 95
2, 37800, Note_off_c, 0, 62, 95
2, 37800, Note_on_c, 0, 65, 95
2, 38160, Note_off_c, 0, 65, 95
2, 38160, Note_on_c, 0, 64, 95
2, 39360, Note_off_c, 0, 64, 95
2, 39960, Pitch_bend_c, 1, 8448
2, 40000, Note_on_c, 1, 62, 95
2, 40080, Pitch_bend_c, 1, 8832
2, 40200, Pitch_bend_c, 1, 9216
2, 40320, Pitch_bend_c, 1, 9600
2, 40320, Pitch_bend_c, 1, 8192
2, 40320, Note_off_c, 1, 62, 95
2, 40320, Note_on_c, 0, 64, 95
2, 41280, Note_off_c, 0, 64, 95
2, 41280, Note_on_c, 0, 65, 95
2, 42720, Note_off_c, 0, 65, 95
2, 42880, Note_on_c, 0, 60, 95
2, 43200, Note_off_c, 0, 60, 95
2, 43200, Note_on_c, 0, 57, 95
2, 45120, Note_off_c, 0, 57, 95
2, 45720, Pitch_bend_c, 1, 8448
2, 45760, Note_on_c, 1, 55, 95
2, 45840, Pitch_bend_c, 1, 8832
2, 45960, Pitch_bend_c, 1, 9216
2, 46080, Pitch_bend_c, 1, 9600
2, 46080, Pitch_bend_c, 1, 8192
2, 46080, Note_off_c, 1, 55, 95
2, 46080, Note_on_c, 0, 57, 95
2, 47040, Note_off_c, 0, 57, 95
2, 47040, Note_on_c, 0, 60, 95
2, 48480, Note_off_c, 0, 60, 95
2, 48640, Note_on_c, 0, 62, 95
2, 49440, Note_off_c, 0, 62, 95
2, 49440, Note_on_c, 0, 65, 95
2, 49800, Note_off_c, 0, 65, 95
2, 49800, Note_on_c, 0, 64, 95
2, 50880, Note_off_c, 0, 64, 95
2, 51520, Note_on_c, 0, 57, 95
2, 51840, Note_off_c, 0, 57, 95
2, 51840, Note_on_c, 0, 60, 95
2, 54240, Note_off_c, 0, 60, 95
2, 54400, Note_on_c, 0, 60, 95
2, 54720, Note_off_c, 0, 60, 95
2, 54720, Note_on_c, 0, 58, 95
2, 56160, Note_off_c, 0, 58, 95
2, 56160, Note_on_c, 0, 55, 95
2, 57600, Note_off_c, 0, 55, 95
2, 57600, Note_on_c, 0, 53, 95
2, 58560, Note_off_c, 0, 53, 95
2, 58560, Note_on_c, 1, 52, 95
2, 58680, Pitch_bend_c, 1, 8320
2, 58800, Pitch_bend_c, 1, 8448
2, 58920, Pitch_bend_c, 1, 8704
2, 59040, Pitch_bend_c, 1, 8832
2, 59040, Pitch_bend_c, 1, 8192
2, 59200, Note_off_c, 1, 52, 95
2, 59200, Note_on_c, 0, 53, 95
2, 59520, Note_off_c, 0, 53, 95
2, 59520, Note_on_c, 1, 54, 95
2, 59640, Pitch_bend_c, 1, 8320
2, 59760, Pitch_bend_c, 1, 8448
2, 59880, Pitch_bend_c, 1, 8704
2, 60000, Pitch_bend_c, 1, 8832
2, 60000, Pitch_bend_c, 1, 8192
2, 60160, Note_off_c, 1, 54, 95
2, 60160, Note_on_c, 0, 55, 95
2, 63360, Note_off_c, 0, 55, 95
2, 64320, Note_on_c, 0, 58, 95
2, 64640, Note_off_c, 0, 58, 95
2, 64640, Note_on_c, 0, 58, 95
2, 64960, Note_off_c, 0, 58, 95
2, 64960, Note_on_c, 0, 60, 95
2, 65280, Note_off_c, 0, 60, 95
2, 65280, Note_on_c, 1, 60, 95
2, 65400, Pitch_bend_c, 1, 8832
2, 65520, Pitch_bend_c, 1, 9600
2, 65520, Pitch_bend_c, 1, 8192
2, 65520, Note_off_c, 1, 60, 95
2, 65520, Note_on_c, 0, 62, 95
2, 67080, Note_on_c, 1, 58, 95
2, 67200, Note_off_c, 0, 62, 95
2, 67200, Note_off_c, 1, 58, 95
2, 67200, Note_on_c, 1, 60, 95
2, 68160, Note_off_c, 1, 60, 95
2, 68160, Note_on_c, 1, 58, 47
2, 69120, Note_off_c, 1, 58, 47
2, 70080, Note_on_c, 1, 55, 95
2, 70240, Pitch_bend_c, 1, 8832
2, 70400, Pitch_bend_c, 1, 9600
2, 70400, Pitch_bend_c, 1, 8192
2, 70400, Note_off_c, 1, 55, 95
2, 70400, Note_on_c, 0, 57, 95
2, 72000, Note_off_c, 0, 57, 95
2, 75840, Note_on_c, 0, 55, 95
2, 76160, Note_off_c, 0, 55, 95
2, 76160, Note_on_c, 0, 55, 95
2, 76480, Note_off_c, 0, 55, 95
2, 76480, Note_on_c, 0, 57, 95
2, 77040, Note_off_c, 0, 57, 95
2, 77040, Note_on_c, 1, 58, 95
2, 77160, Pitch_bend_c, 1, 8192
2, 77280, Pitch_bend_c, 1, 8064
2, 77400, Pitch_bend_c, 1, 7936
2, 77520, Pitch_bend_c, 1, 7808
2, 77640, Pitch_bend_c, 1, 7680
2, 77760, Pitch_bend_c, 1, 7552
2, 77760, Pitch_bend_c, 1, 8192
2, 77760, Note_off_c, 1, 58, 95
2, 77760, Note_on_c, 0, 57, 95
2, 78480, Note_off_c, 0, 57, 95
2, 78480, Note_on_c, 0, 55, 95
2, 79200, Note_off_c, 0, 55, 95
2, 79360, Note_on_c, 0, 53, 95
2, 80640, Note_off_c, 0, 53, 95
2, 80640, Note_on_c, 0, 52, 95
2, 80960, Note_off_c, 0, 52, 95
2, 80960, Note_on_c, 0, 52, 95
2, 81280, Note_off_c, 0, 52, 95
2, 81280, Note_on_c, 0, 53, 95
2, 81600, Note_off_c, 0, 53, 95
2, 81600, Note_on_c, 0, 55, 95
2, 81920, Note_off_c, 0, 55, 95
2, 81920, Note_on_c, 0, 53, 95
2, 82240, Note_off_c, 0, 53, 95
2, 82240, Note_on_c, 0, 52, 95
2, 82560, Note_off_c, 0, 52, 95
2, 82560, Note_on_c, 1, 53, 95
2, 82680, Pitch_bend_c, 1, 7808
2, 82800, Pitch_bend_c, 1, 7424
2, 82920, Pitch_bend_c, 1, 6912
2, 83040, Pitch_bend_c, 1, 6528
2, 83160, Pitch_bend_c, 1, 6016
2, 83280, Pitch_bend_c, 1, 5632
2, 83400, Pitch_bend_c, 1, 5120
2, 83520, Pitch_bend_c, 1, 4736
2, 83520, Pitch_bend_c, 1, 8192
2, 83520, Note_off_c, 1, 53, 95
2, 83520, Note_on_c, 0, 48, 47
2, 86400, Note_off_c, 0, 48, 47
2, 87360, Note_on_c, 0, 60, 95
2, 87680, Note_off_c, 0, 60, 95
2, 87680, Note_on_c, 0, 60, 95
2, 88000, Note_off_c, 0, 60, 95
2, 88000, Note_on_c, 0, 62, 95
2, 88320, Note_off_c, 0, 62, 95
2, 88320, Note_on_c, 1, 62, 95
2, 88440, Pitch_bend_c, 1, 8832
2, 88560, Pitch_bend_c, 1, 9600
2, 88560, Pitch_bend_c, 1, 8192
2, 88560, Note_off_c, 1, 62, 95
2, 88560, Note_on_c, 0, 64, 95
2, 88800, Note_off_c, 0, 64, 95
2, 88800, Note_on_c, 0, 64, 95
2, 89280, Note_off_c, 0, 64, 95
2, 89280, Note_on_c, 0, 64, 95
2, 89600, Note_off_c, 0, 64, 95
2, 89600, Note_on_c, 0, 65, 95
2, 89920, Note_off_c, 0, 65, 95
2, 89920, Note_on_c, 0, 64, 95
2, 90240, Note_off_c, 0, 64, 95
2, 90240, Note_on_c, 0, 62, 95
2, 90560, Note_off_c, 0, 62, 95
2, 90560, Note_on_c, 0, 60, 95
2, 92160, Note_off_c, 0, 60, 95
2, 93120, Note_on_c, 0, 60, 95
2, 93280, Note_off_c, 0, 60, 95
2, 93280, Note_on_c, 0, 62, 70
2, 93440, Note_off_c, 0, 62, 70
2, 93440, Note_on_c, 1, 60, 70
2, 93600, Pitch_bend_c, 1, 8192
2, 93600, Pitch_bend_c, 1, 8192
2, 93840, Note_off_c, 1, 60, 70
2, 93840, Note_on_c, 0, 58, 95
2, 94560, Note_off_c, 0, 58, 95
2, 94800, Note_on_c, 0, 58, 95
2, 95040, Note_off_c, 0, 58, 95
2, 96960, Note_on_c, 1, 53, 95
2, 97080, Pitch_bend_c, 1, 8832
2, 97200, Pitch_bend_c, 1, 9600
2, 97200, Pitch_bend_c, 1, 8192
2, 97200, Note_off_c, 1, 53, 95
2, 97200, Note_on_c, 0, 55, 95
2, 97920, Note_off_c, 0, 55, 95
2, 97920, Note_on_c, 0, 53, 95
2, 99360, Note_off_c, 0, 53, 95
2, 99520, Note_on_c, 0, 57, 95
2, 99535, Note_on_c, 0, 60, 95
2, 99550, Note_on_c, 0, 65, 95
2, 99840, Note_on_c, 0, 53, 95
2, 100320, Note_off_c, 0, 65, 95
2, 100320, Note_off_c, 0, 60, 95
2, 100320, Note_off_c, 0, 57, 95
2, 100480, Note_off_c, 0, 53, 95
2, 100480, Note_on_c, 0, 57, 95
2, 100495, Note_on_c, 0, 60, 95
2, 100510, Note_on_c, 0, 65, 95
2, 100800, Note_on_c, 0, 48, 95
2, 101760, Note_off_c, 0, 65, 95
2, 101760, Note_off_c, 0, 60, 95
2, 101760, Note_off_c, 0, 57, 95
2, 102240, Note_off_c, 0, 48, 95
2, 102400, Note_on_c, 0, 57, 95
2, 102415, Note_on_c, 0, 60, 95
2, 102430, Note_on_c, 0, 65, 95
2, 102720, Note_on_c, 0, 48, 95
2, 103200, Note_off_c, 0, 65, 95
2, 103200, Note_off_c, 0, 60, 95
2, 103200, Note_off_c, 0, 57, 95
2, 103360, Note_off_c, 0, 48, 95
2, 103360, Note_on_c, 0, 57, 95
2, 103375, Note_on_c, 0, 60, 95
2, 103390, Note_on_c, 0, 65, 95
2, 103680, Note_on_c, 0, 53, 95
2, 104640, Note_off_c, 0, 65, 95
2, 104640, Note_off_c, 0, 60, 95
2, 104640, Note_off_c, 0, 57, 95
2, 105120, Note_off_c, 0, 53, 95
2, 105280, Note_on_c, 0, 57, 95
2, 105295, Note_on_c, 0, 60, 95
2, 105310, Note_on_c, 0, 65, 95
2, 105600, Note_on_c, 0, 53, 95
2, 106080, Note_off_c, 0, 65, 95
2, 106080, Note_off_c, 0, 60, 95
2, 106080, Note_off_c, 0, 57, 95
2, 106240, Note_off_c, 0, 53, 95
2, 106240, Note_on_c, 0, 57, 95
2, 106255, Note_on_c, 0, 60, 95
2, 106270, Note_on_c, 0, 65, 95
2, 106560, Note_on_c, 0, 48, 95
2, 107520, Note_off_c, 0, 65, 95
2, 107520, Note_off_c, 0, 60, 95
2, 107520, Note_off_c, 0, 57, 95
2, 108000, Note_off_c, 0, 48, 95
2, 108160, Note_on_c, 0, 57, 95
2, 108175, Note_on_c, 0, 60, 95
2, 108190, Note_on_c, 0, 65, 95
2, 108480, Note_on_c, 0, 48, 95
2, 108960, Note_off_c, 0, 65, 95
2, 108960, Note_off_c, 0, 60, 95
2, 108960, Note_off_c, 0, 57, 95
2, 109120, Note_off_c, 0, 48, 95
2, 109120, Note_on_c, 0, 57, 95
2, 109135, Note_on_c, 0, 60, 95
2, 109150, Note_on_c, 0, 65, 95
2, 109440, Note_on_c, 0, 53, 95
2, 110400, Note_off_c, 0, 65, 95
2, 110400, Note_off_c, 0, 60, 95
2, 110400, Note_off_c, 0, 57, 95
2, 110880, Note_off_c, 0, 53, 95
2, 111040, Note_on_c, 0, 57, 95
2, 111055, Note_on_c, 0, 60, 95
2, 111070, Note_on_c, 0, 65, 95
2, 111360, Note_on_c, 0, 53, 95
2, 111840, Note_off_c, 0, 65, 95
2, 111840, Note_off_c, 0, 60, 95
2, 111840, Note_off_c, 0, 57, 95
2, 112000, Note_off_c, 0, 53, 95
2, 112000, Note_on_c, 0, 57, 95
2, 112015, Note_on_c, 0, 60, 95
2, 112030, Note_on_c, 0, 65, 95
2, 112320, Note_on_c, 0, 48, 95
2, 113280, Note_off_c, 0, 65, 95
2, 113280, Note_off_c, 0, 60, 95
2, 113280, Note_off_c, 0, 57, 95
2, 113760, Note_off_c, 0, 48, 95
2, 113920, Note_on_c, 0, 57, 95
2, 113935, Note_on_c, 0, 60, 95
2, 113950, Note_on_c, 0, 65, 95
2, 114240, Note_on_c, 0, 48, 95
2, 114720, Note_off_c, 0, 65, 95
2, 114720, Note_off_c, 0, 60, 95
2, 114720, Note_off_c, 0, 57, 95
2, 114880, Note_off_c, 0, 48, 95
2, 114880, Note_on_c, 0, 57, 95
2, 114895, Note_on_c, 0, 60, 95
2, 114910, Note_on_c, 0, 65, 95
2, 115200, Note_on_c, 0, 53, 95
2, 116160, Note_off_c, 0, 65, 95
2, 116160, Note_off_c, 0, 60, 95
2, 116160, Note_off_c, 0, 57, 95
2, 116640, Note_off_c, 0, 53, 95
2, 116800, Note_on_c, 0, 57, 95
2, 116815, Note_on_c, 0, 60, 95
2, 116830, Note_on_c, 0, 65, 95
2, 117120, Note_on_c, 0, 53, 95
2, 117600, Note_off_c, 0, 65, 95
2, 117600, Note_off_c, 0, 60, 95
2, 117600, Note_off_c, 0, 57, 95
2, 117760, Note_off_c, 0, 53, 95
2, 117760, Note_on_c, 0, 57, 95
2, 117775, Note_on_c, 0, 60, 95
2, 117790, Note_on_c, 0, 65, 95
2, 118080, Note_on_c, 0, 48, 95
2, 119040, Note_off_c, 0, 65, 95
2, 119040, Note_off_c, 0, 60, 95
2, 119040, Note_off_c, 0, 57, 95
2, 119520, Note_off_c, 0, 48, 95
2, 119680, Note_on_c, 0, 57, 95
2, 119695, Note_on_c, 0, 60, 95
2, 119710, Note_on_c, 0, 65, 95
2, 120000, Note_on_c, 0, 48, 95
2, 120480, Note_off_c, 0, 65, 95
2, 120480, Note_off_c, 0, 60, 95
2, 120480, Note_off_c, 0, 57, 95
2, 120640, Note_off_c, 0, 48, 95
2, 120640, Note_on_c, 0, 57, 95
2, 120655, Note_on_c, 0, 60, 95
2, 120670, Note_on_c, 0, 65, 95
2, 120960, Note_on_c, 0, 53, 95
2, 121920, Note_off_c, 0, 65, 95
2, 121920, Note_off_c, 0, 60, 95
2, 121920, Note_off_c, 0, 57, 95
2, 122400, Note_off_c, 0, 53, 95
2, 122560, Note_on_c, 0, 57, 95
2, 122575, Note_on_c, 0, 60, 95
2, 122590, Note_on_c, 0, 65, 95
2, 122880, Note_on_c, 0, 53, 95
2, 123360, Note_off_c, 0, 65, 95
2, 123360, Note_off_c, 0, 60, 95
2, 123360, Note_off_c, 0, 57, 95
2, 123520, Note_off_c, 0, 53, 95
2, 123520, Note_on_c, 0, 57, 95
2, 123535, Note_on_c, 0, 60, 95
2, 123550, Note_on_c, 0, 65, 95
2, 123840, Note_on_c, 0, 48, 95
2, 124800, Note_off_c, 0, 65, 95
2, 124800, Note_off_c, 0, 60, 95
2, 124800, Note_off_c, 0, 57, 95
2, 125280, Note_off_c, 0, 48, 95
2, 125440, Note_on_c, 0, 57, 95
2, 125455, Note_on_c, 0, 60, 95
2, 125470, Note_on_c, 0, 65, 95
2, 125760, Note_on_c, 0, 48, 95
2, 126240, Note_off_c, 0, 65, 95
2, 126240, Note_off_c, 0, 60, 95
2, 126240, Note_off_c, 0, 57, 95
2, 126400, Note_off_c, 0, 48, 95
2, 126400, Note_on_c, 0, 57, 95
2, 126415, Note_on_c, 0, 60, 95
2, 126430, Note_on_c, 0, 65, 95
2, 126720, Note_on_c, 0, 53, 95
2, 127680, Note_off_c, 0, 65, 95
2, 127680, Note_off_c, 0, 60, 95
2, 127680, Note_off_c, 0, 57, 95
2, 128160, Note_off_c, 0, 53, 95
2, 128320, Note_on_c, 0, 57, 95
2, 128335, Note_on_c, 0, 60, 95
2, 128350, Note_on_c, 0, 65, 95
2, 128640, Note_on_c, 0, 53, 95
2, 129120, Note_off_c, 0, 65, 95
2, 129120, Note_off_c, 0, 60, 95
2, 129120, Note_off_c, 0, 57, 95
2, 129280, Note_off_c, 0, 53, 95
2, 129280, Note_on_c, 0, 57, 95
2, 129295, Note_on_c, 0, 60, 95
2, 129310, Note_on_c, 0, 65, 95
2, 129600, Note_on_c, 0, 48, 95
2, 130560, Note_off_c, 0, 65, 95
2, 130560, Note_off_c, 0, 60, 95
2, 130560, Note_off_c, 0, 57, 95
2, 131040, Note_off_c, 0, 48, 95
2, 131200, Note_on_c, 0, 57, 95
2, 131215, Note_on_c, 0, 60, 95
2, 131230, Note_on_c, 0, 65, 95
2, 131520, Note_on_c, 0, 48, 95
2, 132000, Note_off_c, 0, 65, 95
2, 132000, Note_off_c, 0, 60, 95
2, 132000, Note_off_c, 0, 57, 95
2, 132160, Note_off_c, 0, 48, 95
2, 132160, Note_on_c, 0, 57, 95
2, 132175, Note_on_c, 0, 60, 95
2, 132190, Note_on_c, 0, 65, 95
2, 132480, Note_on_c, 0, 53, 95
2, 133440, Note_off_c, 0, 65, 95
2, 133440, Note_off_c, 0, 60, 95
2, 133440, Note_off_c, 0, 57, 95
2, 133920, Note_off_c, 0, 53, 95
2, 134080, Note_on_c, 0, 57, 95
2, 134095, Note_on_c, 0, 60, 95
2, 134110, Note_on_c, 0, 65, 95
2, 134400, Note_on_c, 0, 53, 95
2, 134880, Note_off_c, 0, 65, 95
2, 134880, Note_off_c, 0, 60, 95
2, 134880, Note_off_c, 0, 57, 95
2, 135040, Note_off_c, 0, 53, 95
2, 135040, Note_on_c, 0, 57, 95
2, 135055, Note_on_c, 0, 60, 95
2, 135070, Note_on_c, 0, 65, 95
2, 135360, Note_on_c, 0, 48, 95
2, 136320, Note_off_c, 0, 65, 95
2, 136320, Note_off_c, 0, 60, 95
2, 136320, Note_off_c, 0, 57, 95
2, 136800, Note_off_c, 0, 48, 95
2, 136960, Note_on_c, 0, 57, 95
2, 136975, Note_on_c, 0, 60, 95
2, 136990, Note_on_c, 0, 65, 95
2, 137280, Note_on_c, 0, 48, 95
2, 137760, Note_off_c, 0, 65, 95
2, 137760, Note_off_c, 0, 60, 95
2, 137760, Note_off_c, 0, 57, 95
2, 137920, Note_off_c, 0, 48, 95
2, 137920, Note_on_c, 0, 57, 95
2, 137935, Note_on_c, 0, 60, 95
2, 137950, Note_on_c, 0, 65, 95
2, 138240, Note_on_c, 0, 53, 95
2, 139200, Note_off_c, 0, 65, 95
2, 139200, Note_off_c, 0, 60, 95
2, 139200, Note_off_c, 0, 57, 95
2, 139680, Note_off_c, 0, 53, 95
2, 139840, Note_on_c, 0, 57, 95
2, 139855, Note_on_c, 0, 60, 95
2, 139870, Note_on_c, 0, 65, 95
2, 140160, Note_on_c, 0, 53, 95
2, 140640, Note_off_c, 0, 65, 95
2, 140640, Note_off_c, 0, 60, 95
2, 140640, Note_off_c, 0, 57, 95
2, 140800, Note_off_c, 0, 53, 95
2, 140800, Note_on_c, 0, 57, 95
2, 140815, Note_on_c, 0, 60, 95
2, 140830, Note_on_c, 0, 65, 95
2, 141120, Note_on_c, 0, 48, 95
2, 142080, Note_off_c, 0, 65, 95
2, 142080, Note_off_c, 0, 60, 95
2, 142080, Note_off_c, 0, 57, 95
2, 142560, Note_off_c, 0, 48, 95
2, 142720, Note_on_c, 0, 57, 95
2, 142735, Note_on_c, 0, 60, 95
2, 142750, Note_on_c, 0, 65, 95
2, 143040, Note_on_c, 0, 48, 95
2, 143520, Note_off_c, 0, 65, 95
2, 143520, Note_off_c, 0, 60, 95
2, 143520, Note_off_c, 0, 57, 95
2, 143680, Note_off_c, 0, 48, 95
2, 143680, Note_on_c, 0, 57, 95
2, 143695, Note_on_c, 0, 60, 95
2, 143710, Note_on_c, 0, 65, 95
2, 144000, Note_on_c, 0, 53, 95
2, 144960, Note_off_c, 0, 65, 95
2, 144960, Note_off_c, 0, 60, 95
2, 144960, Note_off_c, 0, 57, 95
2, 145440, Note_off_c, 0, 53, 95
2, 145600, Note_on_c, 0, 57, 95
2, 145615, Note_on_c, 0, 60, 95
2, 145630, Note_on_c, 0, 65, 95
2, 145920, Note_on_c, 0, 53, 95
2, 146400, Note_off_c, 0, 65, 95
2, 146400, Note_off_c, 0, 60, 95
2, 146400, Note_off_c, 0, 57, 95
2, 146560, Note_off_c, 0, 53, 95
2, 146560, Note_on_c, 0, 57, 95
2, 146575, Note_on_c, 0, 60, 95
2, 146590, Note_on_c, 0, 65, 95
2, 146880, Note_on_c, 0, 48, 95
2, 147840, Note_off_c, 0, 65, 95
2, 147840, Note_off_c, 0, 60, 95
2, 147840, Note_off_c, 0, 57, 95
2, 148320, Note_off_c, 0, 48, 95
2, 148480, Note_on_c, 0, 55, 95
2, 148495, Note_on_c, 0, 60, 95
2, 148510, Note_on_c, 0, 64, 95
2, 148800, Note_off_c, 0, 64, 95
2, 148800, Note_off_c, 0, 60, 95
2, 148800, Note_off_c, 0, 55, 95
2, 148800, Note_on_c, 0, 52, 95
2, 148800, Note_on_c, 0, 48, 95
2, 149400, Pitch_bend_c, 1, 8448
2, 149440, Note_off_c, 0, 52, 95
2, 149440, Note_off_c, 0, 48, 95
2, 149440, Note_on_c, 1, 53, 95
2, 149520, Pitch_bend_c, 1, 8832
2, 149640, Pitch_bend_c, 1, 9216
2, 149760, Pitch_bend_c, 1, 9600
2, 149760, Pitch_bend_c, 1, 8192
2, 149760, Note_off_c, 1, 53, 95
2, 149760, Note_on_c, 0, 55, 95
2, 151200, Note_off_c, 0, 55, 95
2, 151360, Note_on_c, 0, 52, 95
2, 151375, Note_on_c, 0, 55, 95
2, 151390, Note_on_c, 0, 60, 95
2, 151680, Note_off_c, 0, 60, 95
2, 151680, Note_off_c, 0, 55, 95
2, 151680, Note_off_c, 0, 52, 95
2, 151680, Note_on_c, 0, 48, 95
2, 152320, Note_off_c, 0, 48, 95
2, 152320, Note_on_c, 0, 52, 95
2, 152335, Note_on_c, 0, 55, 95
2, 152350, Note_on_c, 0, 60, 95
2, 152640, Note_off_c, 0, 60, 95
2, 152640, Note_off_c, 0, 55, 95
2, 152640, Note_off_c, 0, 52, 95
2, 152640, Note_on_c, 0, 43, 95
2, 154080, Note_off_c, 0, 43, 95
2, 154240, Note_on_c, 0, 50, 95
2, 154255, Note_on_c, 0, 55, 95
2, 154270, Note_on_c, 0, 59, 95
2, 154560, Note_off_c, 0, 59, 95
2, 154560, Note_off_c, 0, 55, 95
2, 154560, Note_off_c, 0, 50, 95
2, 154560, Note_on_c, 0, 43, 95
2, 155200, Note_off_c, 0, 43, 95
2, 155200, Note_on_c, 0, 50, 95
2, 155215, Note_on_c, 0, 55, 95
2, 155230, Note_on_c, 0, 59, 95
2, 155520, Note_off_c, 0, 59, 95
2, 155520, Note_off_c, 0, 55, 95
2, 155520, Note_off_c, 0, 50, 95
2, 155520, Note_on_c, 0, 48, 95
2, 156960, Note_off_c, 0, 48, 95
2, 157120, Note_on_c, 0, 52, 95
2, 157135, Note_on_c, 0, 55, 95
2, 157150, Note_on_c, 0, 60, 95
2, 157440, Note_off_c, 0, 60, 95
2, 157440, Note_off_c, 0, 55, 95
2, 157440, Note_off_c, 0, 52, 95
2, 157440, Note_on_c, 0, 48, 95
2, 158080, Note_off_c, 0, 48, 95
2, 158080, Note_on_c, 0, 52, 95
2, 158095, Note_on_c, 0, 55, 95
2, 158110, Note_on_c, 0, 60, 95
2, 158400, Note_off_c, 0, 60, 95
2, 158400, Note_off_c, 0, 55, 95
2, 158400, Note_off_c, 0, 52, 95
2, 158400, Note_on_c, 0, 43, 95
2, 159840, Note_off_c, 0, 43, 95
2, 160000, Note_on_c, 0, 50, 95
2, 160015, Note_on_c, 0, 55, 95
2, 160030, Note_on_c, 0, 59, 95
2, 160320, Note_off_c, 0, 59, 95
2, 160320, Note_off_c, 0, 55, 95
2, 160320, Note_off_c, 0, 50, 95
2, 160320, Note_on_c, 0, 43, 95
2, 160960, Note_off_c, 0, 43, 95
2, 160960, Note_on_c, 0, 50, 95
2, 160975, Note_on_c, 0, 55, 95
2, 160990, Note_on_c, 0, 59, 95
2, 161280, Note_off_c, 0, 59, 95
2, 161280, Note_off_c, 0, 55, 95
2, 161280, Note_off_c, 0, 50, 95
2, 161280, Note_on_c, 0, 53, 95
2, 161280, Note_on_c, 0, 46, 95
2, 164160, Note_off_c, 0, 53, 95
2, 164160, Note_off_c, 0, 46, 95
2, 164160, Note_on_c, 0, 60, 95
2, 164400, Note_off_c, 0, 60, 95
2, 164400, Note_on_c, 0, 58, 70
2, 167040, Note_off_c, 0, 58, 70
2, 167040, Note_on_c, 0, 60, 95
2, 167280, Note_off_c, 0, 60, 95
2, 167280, Note_on_c, 0, 62, 70
2, 169440, Note_off_c, 0, 62, 70
2, 169600, Note_on_c, 0, 60, 95
2, 169920, Note_off_c, 0, 60, 95
2, 169920, Note_on_c, 0, 62, 95
2, 170160, Note_off_c, 0, 62, 95
2, 170160, Note_on_c, 0, 60, 70
2, 170400, Note_off_c, 0, 60, 70
2, 170400, Note_on_c, 0, 58, 95
2, 170880, Note_off_c, 0, 58, 95
2, 171520, Note_on_c, 0, 58, 95
2, 171520, Note_on_c, 0, 53, 95
2, 171520, Note_on_c, 0, 48, 95
2, 171840, Note_off_c, 0, 58, 95
2, 171840, Note_off_c, 0, 53, 95
2, 171840, Note_off_c, 0, 48, 95
2, 172440, Pitch_bend_c, 1, 8448
2, 172440, Pitch_bend_c, 1, 8448
2, 172440, Pitch_bend_c, 1, 8448
2, 172480, Note_on_c, 1, 48, 95
2, 172495, Note_on_c, 1, 53, 95
2, 172510, Note_on_c, 1, 58, 95
2, 172560, Pitch_bend_c, 1, 8832
2, 172560, Pitch_bend_c, 1, 8832
2, 172560, Pitch_bend_c, 1, 8832
2, 172680, Pitch_bend_c, 1, 9216
2, 172680, Pitch_bend_c, 1, 9216
2, 172680, Pitch_bend_c, 1, 9216
2, 172800, Pitch_bend_c, 1, 9600
2, 172800, Pitch_bend_c, 1, 8192
2, 172800, Note_off_c, 1, 58, 95
2, 172800, Pitch_bend_c, 1, 9600
2, 172800, Pitch_bend_c, 1, 8192
2, 172800, Note_off_c, 1, 53, 95
2, 172800, Pitch_bend_c, 1, 9600
2, 172800, Pitch_bend_c, 1, 8192
2, 172800, Note_off_c, 1, 48, 95
2, 172800, Note_on_c, 0, 60, 95
2, 172800, Note_on_c, 0, 55, 95
2, 172800, Note_on_c, 0, 50, 95
2, 175200, Note_off_c, 0, 60, 95
2, 175200, Note_off_c, 0, 55, 95
2, 175200, Note_off_c, 0, 50, 95
2, 175360, Note_on_c, 0, 55, 95
2, 175680, Note_off_c, 0, 55, 95
2, 175680, Note_on_c, 0, 57, 95
2, 176160, Note_off_c, 0, 57, 95
2, 176160, Note_on_c, 0, 55, 95
2, 178560, Note_off_c, 0, 55, 95
2, 178560, Note_on_c, 0, 57, 95
2, 179040, Note_off_c, 0, 57, 95
2, 179040, Note_on_c, 0, 58, 95
2, 180960, Note_off_c, 0, 58, 95
2, 181120, Note_on_c, 0, 58, 95
2, 181440, Note_off_c, 0, 58, 95
2, 181440, Note_on_c, 0, 57, 95
2, 181920, Note_off_c, 0, 57, 95
2, 181920, Note_on_c, 0, 55, 95
2, 183840, Note_off_c, 0, 55, 95
2, 184000, Note_on_c, 0, 60, 95
2, 184320, Note_off_c, 0, 60, 95
2, 184320, Note_on_c, 0, 60, 95
2, 184800, Note_off_c, 0, 60, 95
2, 184800, Note_on_c, 0, 62, 95
2, 186720, Note_off_c, 0, 62, 95
2, 186880, Note_on_c, 0, 62, 95
2, 187200, Note_off_c, 0, 62, 95
2, 187200, Note_on_c, 0, 62, 95
2, 187520, Note_off_c, 0, 62, 95
2, 187520, Note_on_c, 0, 60, 95
2, 187840, Note_off_c, 0, 60, 95
2, 187840, Note_on_c, 0, 58, 95
2, 189600, Note_off_c, 0, 58, 95
2, 189760, Note_on_c, 0, 58, 95
2, 190080, Note_off_c, 0, 58, 95
2, 190080, Note_on_c, 0, 58, 95
2, 190560, Note_off_c, 0, 58, 95
2, 190560, Note_on_c, 0, 57, 95
2, 192480, Note_off_c, 0, 57, 95
2, 192640, Note_on_c, 0, 57, 95
2, 192960, Note_off_c, 0, 57, 95
2, 192960, Note_on_c, 0, 57, 95
2, 193600, Note_off_c, 0, 57, 95
2, 193600, Note_on_c, 0, 55, 95
2, 194400, Note_off_c, 0, 55, 95
2, 194560, Note_on_c, 0, 57, 95
2, 194880, Note_off_c, 0, 57, 95
2, 194880, Note_on_c, 0, 55, 95
2, 195520, Note_off_c, 0, 55, 95
2, 195520, Note_on_c, 0, 57, 95
2, 195840, Note_off_c, 0, 57, 95
2, 195840, Note_on_c, 0, 53, 95
2, 197280, Note_off_c, 0, 53, 95
2, 197440, Note_on_c, 0, 57, 95
2, 197455, Note_on_c, 0, 60, 95
2, 197470, Note_on_c, 0, 65, 95
2, 197760, Note_on_c, 0, 53, 95
2, 198240, Note_off_c, 0, 65, 95
2, 198240, Note_off_c, 0, 60, 95
2, 198240, Note_off_c, 0, 57, 95
2, 198400, Note_off_c, 0, 53, 95
2, 198400, Note_on_c, 0, 57, 95
2, 198415, Note_on_c, 0, 60, 95
2, 198430, Note_on_c, 0, 65, 95
2, 198720, Note_on_c, 0, 48, 95
2, 199680, Note_off_c, 0, 65, 95
2, 199680, Note_off_c, 0, 60, 95
2, 199680, Note_off_c, 0, 57, 95
2, 200160, Note_off_c, 0, 48, 95
2, 200320, Note_on_c, 0, 57, 95
2, 200335, Note_on_c, 0, 60, 95
2, 200350, Note_on_c, 0, 65, 95
2, 200640, Note_on_c, 0, 48, 95
2, 201120, Note_off_c, 0, 65, 95
2, 201120, Note_off_c, 0, 60, 95
2, 201120, Note_off_c, 0, 57, 95
2, 201280, Note_off_c, 0, 48, 95
2, 201280, Note_on_c, 0, 57, 95
2, 201295, Note_on_c, 0, 60, 95
2, 201310, Note_on_c, 0, 65, 95
2, 201600, Note_on_c, 0, 53, 95
2, 202560, Note_off_c, 0, 65, 95
2, 202560, Note_off_c, 0, 60, 95
2, 202560, Note_off_c, 0, 57, 95
2, 203040, Note_off_c, 0, 53, 95
2, 203200, Note_on_c, 0, 57, 95
2, 203215, Note_on_c, 0, 60, 95
2, 203230, Note_on_c, 0, 65, 95
2, 203520, Note_on_c, 0, 53, 95
2, 204000, Note_off_c, 0, 65, 95
2, 204000, Note_off_c, 0, 60, 95
2, 204000, Note_off_c, 0, 57, 95
2, 204160, Note_off_c, 0, 53, 95
2, 204160, Note_on_c, 0, 57, 95
2, 204175, Note_on_c, 0, 60, 95
2, 204190, Note_on_c, 0, 65, 95
2, 204480, Note_on_c, 0, 48, 95
2, 205440, Note_off_c, 0, 65, 95
2, 205440, Note_off_c, 0, 60, 95
2, 205440, Note_off_c, 0, 57, 95
2, 205920, Note_off_c, 0, 48, 95
2, 206080, Note_on_c, 0, 57, 95
2, 206095, Note_on_c, 0, 60, 95
2, 206110, Note_on_c, 0, 65, 95
2, 206400, Note_on_c, 0, 48, 95
2, 206880, Note_off_c, 0, 65, 95
2, 206880, Note_off_c, 0, 60, 95
2, 206880, Note_off_c, 0, 57, 95
2, 207040, Note_off_c, 0, 48, 95
2, 207040, Note_on_c, 0, 57, 95
2, 207055, Note_on_c, 0, 60, 95
2, 207070, Note_on_c, 0, 65, 95
2, 207360, Note_on_c, 0, 53, 95
2, 208320, Note_off_c, 0, 65, 95
2, 208320, Note_off_c, 0, 60, 95
2, 208320, Note_off_c, 0, 57, 95
2, 208800, Note_off_c, 0, 53, 95
2, 208960, Note_on_c, 0, 57, 95
2, 208975, Note_on_c, 0, 60, 95
2, 208990, Note_on_c, 0, 65, 95
2, 209280, Note_on_c, 0, 53, 95
2, 209760, Note_off_c, 0, 65, 95
2, 209760, Note_off_c, 0, 60, 95
2, 209760, Note_off_c, 0, 57, 95
2, 209920, Note_off_c, 0, 53, 95
2, 209920, Note_on_c, 0, 57, 95
2, 209935, Note_on_c, 0, 60, 95
2, 209950, Note_on_c, 0, 65, 95
2, 210240, Note_on_c, 0, 48, 95
2, 211200, Note_off_c, 0, 65, 95
2, 211200, Note_off_c, 0, 60, 95
2, 211200, Note_off_c, 0, 57, 95
2, 211680, Note_off_c, 0, 48, 95
2, 211840, Note_on_c, 0, 57, 95
2, 211855, Note_on_c, 0, 60, 95
2, 211870, Note_on_c, 0, 65, 95
2, 212160, Note_on_c, 0, 48, 95
2, 212640, Note_off_c, 0, 65, 95
2, 212640, Note_off_c, 0, 60, 95
2, 212640, Note_off_c, 0, 57, 95
2, 212800, Note_off_c, 0, 48, 95
2, 212800, Note_on_c, 0, 57, 95
2, 212815, Note_on_c, 0, 60, 95
2, 212830, Note_on_c, 0, 65, 95
2, 213120, Note_on_c, 0, 53, 95
2, 214080, Note_off_c, 0, 65, 95
2, 214080, Note_off_c, 0, 60, 95
2, 214080, Note_off_c, 0, 57, 95
2, 214560, Note_off_c, 0, 53, 95
2, 214720, Note_on_c, 0, 57, 95
2, 214735, Note_on_c, 0, 60, 95
2, 214750, Note_on_c, 0, 65, 95
2, 215040, Note_on_c, 0, 53, 95
2, 215520, Note_off_c, 0, 65, 95
2, 215520, Note_off_c, 0, 60, 95
2, 215520, Note_off_c, 0, 57, 95
2, 215680, Note_off_c, 0, 53, 95
2, 215680, Note_on_c, 0, 57, 95
2, 215695, Note_on_c, 0, 60, 95
2, 215710, Note_on_c, 0, 65, 95
2, 216000, Note_on_c, 0, 48, 95
2, 216960, Note_off_c, 0, 65, 95
2, 216960, Note_off_c, 0, 60, 95
2, 216960, Note_off_c, 0, 57, 95
2, 217440, Note_off_c, 0, 48, 95
2, 217600, Note_on_c, 0, 57, 95
2, 217615, Note_on_c, 0, 60, 95
2, 217630, Note_on_c, 0, 65, 95
2, 217920, Note_on_c, 0, 48, 95
2, 218400, Note_off_c, 0, 65, 95
2, 218400, Note_off_c, 0, 60, 95
2, 218400, Note_off_c, 0, 57, 95
2, 218560, Note_off_c, 0, 48, 95
2, 218560, Note_on_c, 0, 57, 95
2, 218575, Note_on_c, 0, 60, 95
2, 218590, Note_on_c, 0, 65, 95
2, 218880, Note_on_c, 0, 53, 95
2, 219840, Note_off_c, 0, 65, 95
2, 219840, Note_off_c, 0, 60, 95
2, 219840, Note_off_c, 0, 57, 95
2, 220320, Note_off_c, 0, 53, 95
2, 220480, Note_on_c, 0, 57, 95
2, 220495, Note_on_c, 0, 60, 95
2, 220510, Note_on_c, 0, 65, 95
2, 220800, Note_on_c, 0, 53, 95
2, 221280, Note_off_c, 0, 65, 95
2, 221280, Note_off_c, 0, 60, 95
2, 221280, Note_off_c, 0, 57, 95
2, 221440, Note_off_c, 0, 53, 95
2, 221440, Note_on_c, 0, 57, 95
2, 221455, Note_on_c, 0, 60, 95
2, 221470, Note_on_c, 0, 65, 95
2, 221760, Note_on_c, 0, 48, 95
2, 222720, Note_off_c, 0, 65, 95
2, 222720, Note_off_c, 0, 60, 95
2, 222720, Note_off_c, 0, 57, 95
2, 223200, Note_off_c, 0, 48, 95
2, 223360, Note_on_c, 0, 57, 95
2, 223375, Note_on_c, 0, 60, 95
2, 223390, Note_on_c, 0, 65, 95
2, 223680, Note_on_c, 0, 48, 95
2, 224160, Note_off_c, 0, 65, 95
2, 224160, Note_off_c, 0, 60, 95
2, 224160, Note_off_c, 0, 57, 95
2, 224320, Note_off_c, 0, 48, 95
2, 224320, Note_on_c, 0, 57, 95
2, 224335, Note_on_c, 0, 60, 95
2, 224350, Note_on_c, 0, 65, 95
2, 224640, Note_on_c, 0, 53, 95
2, 225600, Note_off_c, 0, 65, 95
2, 225600, Note_off_c, 0, 60, 95
2, 225600, Note_off_c, 0, 57, 95
2, 226080, Note_off_c, 0, 53, 95
2, 226240, Note_on_c, 0, 57, 95
2, 226255, Note_on_c, 0, 60, 95
2, 226270, Note_on_c, 0, 65, 95
2, 226560, Note_on_c, 0, 53, 95
2, 227040, Note_off_c, 0, 65, 95
2, 227040, Note_off_c, 0, 60, 95
2, 227040, Note_off_c, 0, 57, 95
2, 227200, Note_off_c, 0, 53, 95
2, 227200, Note_on_c, 0, 57, 95
2, 227215, Note_on_c, 0, 60, 95
2, 227230, Note_on_c, 0, 65, 95
2, 227520, Note_on_c, 0, 48, 95
2, 228480, Note_off_c, 0, 65, 95
2, 228480, Note_off_c, 0, 60, 95
2, 228480, Note_off_c, 0, 57, 95
2, 228960, Note_off_c, 0, 48, 95
2, 229120, Note_on_c, 0, 57, 95
2, 229135, Note_on_c, 0, 60, 95
2, 229150, Note_on_c, 0, 65, 95
2, 229440, Note_on_c, 0, 48, 95
2, 229920, Note_off_c, 0, 65, 95
2, 229920, Note_off_c, 0, 60, 95
2, 229920, Note_off_c, 0, 57, 95
2, 230080, Note_off_c, 0, 48, 95
2, 230080, Note_on_c, 0, 57, 95
2, 230095, Note_on_c, 0, 60, 95
2, 230110, Note_on_c, 0, 65, 95
2, 230400, Note_on_c, 0, 53, 95
2, 231360, Note_off_c, 0, 65, 95
2, 231360, Note_off_c, 0, 60, 95
2, 231360, Note_off_c, 0, 57, 95
2, 231840, Note_off_c, 0, 53, 95
2, 232000, Note_on_c, 0, 57, 95
2, 232015, Note_on_c, 0, 60, 95
2, 232030, Note_on_c, 0, 65, 95
2, 232320, Note_on_c, 0, 53, 95
2, 232800, Note_off_c, 0, 65, 95
2, 232800, Note_off_c, 0, 60, 95
2, 232800, Note_off_c, 0, 57, 95
2, 232960, Note_off_c, 0, 53, 95
2, 232960, Note_on_c, 0, 57, 95
2, 232975, Note_on_c, 0, 60, 95
2, 232990, Note_on_c, 0, 65, 95
2, 233280, Note_on_c, 0, 48, 95
2, 234240, Note_off_c, 0, 65, 95
2, 234240, Note_off_c, 0, 60, 95
2, 234240, Note_off_c, 0, 57, 95
2, 234720, Note_off_c, 0, 48, 95
2, 234880, Note_on_c, 0, 57, 95
2, 234895, Note_on_c, 0, 60, 95
2, 234910, Note_on_c, 0, 65, 95
2, 235200, Note_on_c, 0, 48, 95
2, 235680, Note_off_c, 0, 65, 95
2, 235680, Note_off_c, 0, 60, 95
2, 235680, Note_off_c, 0, 57, 95
2, 235840, Note_off_c, 0, 48, 95
2, 235840, Note_on_c, 0, 57, 95
2, 235855, Note_on_c, 0, 60, 95
2, 235870, Note_on_c, 0, 65, 95
2, 236160, Note_on_c, 0, 53, 95
2, 237120, Note_off_c, 0, 65, 95
2, 237120, Note_off_c, 0, 60, 95
2, 237120, Note_off_c, 0, 57, 95
2, 237600, Note_off_c, 0, 53, 95
2, 237760, Note_on_c, 0, 57, 95
2, 237775, Note_on_c, 0, 60, 95
2, 237790, Note_on_c, 0, 65, 95
2, 238080, Note_on_c, 0, 53, 95
2, 238560, Note_off_c, 0, 65, 95
2, 238560, Note_off_c, 0, 60, 95
2, 238560, Note_off_c, 0, 57, 95
2, 238720, Note_off_c, 0, 53, 95
2, 238720, Note_on_c, 0, 57, 95
2, 238735, Note_on_c, 0, 60, 95
2, 238750, Note_on_c, 0, 65, 95
2, 239040, Note_on_c, 0, 48, 95
2, 240000, Note_off_c, 0, 65, 95
2, 240000, Note_off_c, 0, 60, 95
2, 240000, Note_off_c, 0, 57, 95
2, 240480, Note_off_c, 0, 48, 95
2, 240640, Note_on_c, 0, 57, 95
2, 240655, Note_on_c, 0, 60, 95
2, 240670, Note_on_c, 0, 65, 95
2, 240960, Note_on_c, 0, 48, 95
2, 241440, Note_off_c, 0, 65, 95
2, 241440, Note_off_c, 0, 60, 95
2, 241440, Note_off_c, 0, 57, 95
2, 241600, Note_off_c, 0, 48, 95
2, 241600, Note_on_c, 0, 57, 95
2, 241615, Note_on_c, 0, 60, 95
2, 241630, Note_on_c, 0, 65, 95
2, 241920, Note_on_c, 0, 53, 95
2, 242880, Note_off_c, 0, 65, 95
2, 242880, Note_off_c, 0, 60, 95
2, 242880, Note_off_c, 0, 57, 95
2, 243360, Note_off_c, 0, 53, 95
2, 243520, Note_on_c, 0, 57, 95
2, 243535, Note_on_c, 0, 60, 95
2, 243550, Note_on_c, 0, 65, 95
2, 243840, Note_on_c, 0, 53, 95
2, 244320, Note_off_c, 0, 65, 95
2, 244320, Note_off_c, 0, 60, 95
2, 244320, Note_off_c, 0, 57, 95
2, 244480, Note_off_c, 0, 53, 95
2, 244480, Note_on_c, 0, 57, 95
2, 244495, Note_on_c, 0, 60, 95
2, 244510, Note_on_c, 0, 65, 95
2, 244800, Note_on_c, 0, 48, 95
2, 245760, Note_off_c, 0, 65, 95
2, 245760, Note_off_c, 0, 60, 95
2, 245760, Note_off_c, 0, 57, 95
2, 246240, Note_off_c, 0, 48, 95
2, 246400, Note_on_c, 0, 55, 95
2, 246415, Note_on_c, 0, 60, 95
2, 246430, Note_on_c, 0, 64, 95
2, 246720, Note_off_c, 0, 64, 95
2, 246720, Note_off_c, 0, 60, 95
2, 246720, Note_off_c, 0, 55, 95
2, 246720, Note_on_c, 0, 52, 95
2, 246720, Note_on_c, 0, 48, 95
2, 247320, Pitch_bend_c, 1, 8448
2, 247360, Note_off_c, 0, 52, 95
2, 247360, Note_off_c, 0, 48, 95
2, 247360, Note_on_c, 1, 53, 95
2, 247440, Pitch_bend_c, 1, 8832
2, 247560, Pitch_bend_c, 1, 9216
2, 247680, Pitch_bend_c, 1, 9600
2, 247680, Pitch_bend_c, 1, 8192
2, 247680, Note_off_c, 1, 53, 95
2, 247680, Note_on_c, 0, 55, 95
2, 249120, Note_off_c, 0, 55, 95
2, 249280, Note_on_c, 0, 52, 95
2, 249295, Note_on_c, 0, 55, 95
2, 249310, Note_on_c, 0, 60, 95
2, 249600, Note_off_c, 0, 60, 95
2, 249600, Note_off_c, 0, 55, 95
2, 249600, Note_off_c, 0, 52, 95
2, 249600, Note_on_c, 0, 48, 95
2, 250240, Note_off_c, 0, 48, 95
2, 250240, Note_on_c, 0, 52, 95
2, 250255, Note_on_c, 0, 55, 95
2, 250270, Note_on_c, 0, 60, 95
2, 250560, Note_off_c, 0, 60, 95
2, 250560, Note_off_c, 0, 55, 95
2, 250560, Note_off_c, 0, 52, 95
2, 250560, Note_on_c, 0, 43, 95
2, 252000, Note_off_c, 0, 43, 95
2, 252160, Note_on_c, 0, 50, 95
2, 252175, Note_on_c, 0, 55, 95
2, 252190, Note_on_c, 0, 59, 95
2, 252480, Note_off_c, 0, 59, 95
2, 252480, Note_off_c, 0, 55, 95
2, 252480, Note_off_c, 0, 50, 95
2, 252480, Note_on_c, 0, 43, 95
2, 253120, Note_off_c, 0, 43, 95
2, 253120, Note_on_c, 0, 50, 95
2, 253135, Note_on_c, 0, 55, 95
2, 253150, Note_on_c, 0, 59, 95
2, 253440, Note_off_c, 0, 59, 95
2, 253440, Note_off_c, 0, 55, 95
2, 253440, Note_off_c, 0, 50, 95
2, 253440, Note_on_c, 0, 48, 95
2, 254880, Note_off_c, 0, 48, 95
2, 255040, Note_on_c, 0, 52, 95
2, 255055, Note_on_c, 0, 55, 95
2, 255070, Note_on_c, 0, 60, 95
2, 255360, Note_off_c, 0, 60, 95
2, 255360, Note_off_c, 0, 55, 95
2, 255360, Note_off_c, 0, 52, 95
2, 255360, Note_on_c, 0, 48, 95
2, 256000, Note_off_c, 0, 48, 95
2, 256000, Note_on_c, 0, 52, 95
2, 256015, Note_on_c, 0, 55, 95
2, 256030, Note_on_c, 0, 60, 95
2, 256320, Note_off_c, 0, 60, 95
2, 256320, Note_off_c, 0, 55, 95
2, 256320, Note_off_c, 0, 52, 95
2, 256320, Note_on_c, 0, 43, 95
2, 257760, Note_off_c, 0, 43, 95
2, 257920, Note_on_c, 0, 50, 95
2, 257935, Note_on_c, 0, 55, 95
2, 257950, Note_on_c, 0, 59, 95
2, 258240, Note_off_c, 0, 59, 95
2, 258240, Note_off_c, 0, 55, 95
2, 258240, Note_off_c, 0, 50, 95
2, 258240, Note_on_c, 0, 43, 95
2, 258880, Note_off_c, 0, 43, 95
2, 258880, Note_on_c, 0, 50, 95
2, 258895, Note_on_c, 0, 55, 95
2, 258910, Note_on_c, 0, 59, 95
2, 259200, Note_off_c, 0, 55, 95
2, 259200, Note_off_c, 0, 50, 95
2, 259200, Note_on_c, 1, 53, 95
2, 259200, Note_on_c, 1, 46, 95
2, 259320, Pitch_bend_c, 1, 8192
2, 259320, Pitch_bend_c, 1, 8192
2, 259440, Pitch_bend_c, 1, 8192
2, 259440, Pitch_bend_c, 1, 8192
2, 259560, Pitch_bend_c, 1, 8192
2, 259560, Pitch_bend_c, 1, 8192
2, 259680, Pitch_bend_c, 1, 8192
2, 259680, Pitch_bend_c, 1, 8192
2, 259800, Pitch_bend_c, 1, 8192
2, 259800, Pitch_bend_c, 1, 8192
2, 259920, Pitch_bend_c, 1, 8192
2, 259920, Pitch_bend_c, 1, 8192
2, 260040, Pitch_bend_c, 1, 8192
2, 260040, Pitch_bend_c, 1, 8192
2, 260160, Pitch_bend_c, 1, 8192
2, 260160, Pitch_bend_c, 1, 8192
2, 260280, Pitch_bend_c, 1, 8192
2, 260280, Pitch_bend_c, 1, 8192
2, 260400, Pitch_bend_c, 1, 8192
2, 260400, Pitch_bend_c, 1, 8192
2, 260520, Pitch_bend_c, 1, 8192
2, 260520, Pitch_bend_c, 1, 8192
2, 260640, Pitch_bend_c, 1, 8192
2, 260640, Pitch_bend_c, 1, 8192
2, 260760, Pitch_bend_c, 1, 8192
2, 260760, Pitch_bend_c, 1, 8192
2, 260880, Pitch_bend_c, 1, 8192
2, 260880, Pitch_bend_c, 1, 8192
2, 261000, Pitch_bend_c, 1, 8192
2, 261000, Pitch_bend_c, 1, 8192
2, 261120, Pitch_bend_c, 1, 8192
2, 261120, Pitch_bend_c, 1, 8192
2, 261120, Pitch_bend_c, 1, 8192
2, 261120, Pitch_bend_c, 1, 8192
2, 262080, Note_off_c, 1, 53, 95
2, 262080, Note_off_c, 1, 46, 95
2, 262080, Note_on_c, 0, 60, 95
2, 262560, Note_off_c, 0, 60, 95
2, 262560, Note_on_c, 0, 58, 95
2, 264480, Note_off_c, 0, 58, 95
2, 264640, Note_on_c, 0, 58, 95
2, 264960, Note_off_c, 0, 58, 95
2, 264960, Note_on_c, 0, 60, 95
2, 265600, Note_off_c, 0, 60, 95
2, 265600, Note_on_c, 0, 62, 95
2, 267360, Note_off_c, 0, 62, 95
2, 267520, Note_on_c, 0, 62, 95
2, 267840, Note_off_c, 0, 62, 95
2, 267840, Note_on_c, 0, 60, 95
2, 268320, Note_off_c, 0, 60, 95
2, 268320, Note_on_c, 0, 58, 95
2, 269760, Note_off_c, 0, 58, 95
2, 269760, Note_on_c, 1, 58, 95
2, 269760, Note_on_c, 1, 53, 95
2, 269760, Note_on_c, 1, 48, 95
2, 269880, Pitch_bend_c, 1, 8320
2, 269880, Pitch_bend_c, 1, 8320
2, 269880, Pitch_bend_c, 1, 8320
2, 270000, Pitch_bend_c, 1, 8448
2, 270000, Pitch_bend_c, 1, 8448
2, 270000, Pitch_bend_c, 1, 8448
2, 270120, Pitch_bend_c, 1, 8704
2, 270120, Pitch_bend_c, 1, 8704
2, 270120, Pitch_bend_c, 1, 8704
2, 270240, Pitch_bend_c, 1, 8832
2, 270240, Pitch_bend_c, 1, 8832
2, 270240, Pitch_bend_c, 1, 8832
2, 270360, Pitch_bend_c, 1, 8960
2, 270360, Pitch_bend_c, 1, 8960
2, 270360, Pitch_bend_c, 1, 8960
2, 270480, Pitch_bend_c, 1, 9216
2, 270480, Pitch_bend_c, 1, 9216
2, 270480, Pitch_bend_c, 1, 9216
2, 270600, Pitch_bend_c, 1, 9344
2, 270600, Pitch_bend_c, 1, 9344
2, 270600, Pitch_bend_c, 1, 9344
2, 270720, Pitch_bend_c, 1, 9600
2, 270720, Pitch_bend_c, 1, 8192
2, 270720, Note_off_c, 1, 58, 95
2, 270720, Pitch_bend_c, 1, 9600
2, 270720, Pitch_bend_c, 1, 8192
2, 270720, Note_off_c, 1, 53, 95
2, 270720, Pitch_bend_c, 1, 9600
2, 270720, Pitch_bend_c, 1, 8192
2, 270720, Note_off_c, 1, 48, 95
2, 270720, Note_on_c, 0, 60, 95
2, 270720, Note_on_c, 0, 55, 95
2, 270720, Note_on_c, 0, 50, 95
2, 272640, Note_off_c, 0, 50, 95
2, 273120, Note_off_c, 0, 59, 95
2, 273120, Note_off_c, 0, 60, 95
2, 273120, Note_off_c, 0, 55, 95
2, 273280, Note_on_c, 0, 55, 95
2, 273600, Note_off_c, 0, 55, 95
2, 273600, Note_on_c, 0, 57, 95
2, 274080, Note_off_c, 0, 57, 95
2, 274080, Note_on_c, 0, 55, 95
2, 276480, Note_off_c, 0, 55, 95
2, 276480, Note_on_c, 0, 57, 95
2, 276960, Note_off_c, 0, 57, 95
2, 276960, Note_on_c, 0, 58, 95
2, 278880, Note_off_c, 0, 58, 95
2, 279040, Note_on_c, 0, 58, 95
2, 279360, Note_off_c, 0, 58, 95
2, 279360, Note_on_c, 0, 57, 95
2, 280000, Note_off_c, 0, 57, 95
2, 280000, Note_on_c, 0, 55, 95
2, 281760, Note_off_c, 0, 55, 95
2, 281920, Note_on_c, 0, 58, 95
2, 282240, Note_off_c, 0, 58, 95
2, 282240, Note_on_c, 0, 60, 95
2, 282720, Note_off_c, 0, 60, 95
2, 282720, Note_on_c, 0, 62, 95
2, 284640, Note_off_c, 0, 62, 95
2, 284800, Note_on_c, 0, 62, 95
2, 285120, Note_off_c, 0, 62, 95
2, 285120, Note_on_c, 0, 62, 95
2, 285440, Note_off_c, 0, 62, 95
2, 285440, Note_on_c, 0, 60, 95
2, 285760, Note_off_c, 0, 60, 95
2, 285760, Note_on_c, 0, 58, 95
2, 286080, Note_off_c, 0, 58, 95
2, 286080, Note_on_c, 0, 58, 95
2, 287520, Note_off_c, 0, 58, 95
2, 287680, Note_on_c, 0, 58, 95
2, 288000, Note_off_c, 0, 58, 95
2, 288000, Note_on_c, 0, 58, 95
2, 288480, Note_off_c, 0, 58, 95
2, 288480, Note_on_c, 0, 57, 95
2, 290400, Note_off_c, 0, 57, 95
2, 290560, Note_on_c, 0, 57, 95
2, 290880, Note_off_c, 0, 57, 95
2, 290880, Note_on_c, 0, 57, 95
2, 291520, Note_off_c, 0, 57, 95
2, 291520, Note_on_c, 0, 55, 95
2, 291840, Note_off_c, 0, 55, 95
2, 291840, Note_on_c, 0, 58, 95
2, 291840, Note_on_c, 0, 53, 95
2, 292480, Note_off_c, 0, 58, 95
2, 292480, Note_off_c, 0, 53, 95
2, 292480, Note_on_c, 0, 60, 95
2, 292480, Note_on_c, 0, 55, 95
2, 292800, Note_off_c, 0, 60, 95
2, 292800, Note_off_c, 0, 55, 95
2, 292800, Note_on_c, 0, 58, 95
2, 292800, Note_on_c, 0, 53, 95
2, 293440, Note_off_c, 0, 58, 95
2, 293440, Note_off_c, 0, 53, 95
2, 293440, Note_on_c, 0, 60, 95
2, 293440, Note_on_c, 0, 55, 95
2, 293760, Note_off_c, 0, 60, 95
2, 293760, Note_off_c, 0, 55, 95
2, 293760, Note_on_c, 0, 53, 95
2, 295200, Note_off_c, 0, 53, 95
2, 295360, Note_on_c, 0, 57, 95
2, 295375, Note_on_c, 0, 60, 95
2, 295390, Note_on_c, 0, 65, 95
2, 295680, Note_on_c, 0, 53, 95
2, 296160, Note_off_c, 0, 65, 95
2, 296160, Note_off_c, 0, 60, 95
2, 296160, Note_off_c, 0, 57, 95
2, 296320, Note_off_c, 0, 53, 95
2, 296320, Note_on_c, 0, 57, 95
2, 296335, Note_on_c, 0, 60, 95
2, 296350, Note_on_c, 0, 65, 95
2, 296640, Note_on_c, 0, 48, 95
2, 297600, Note_off_c, 0, 65, 95
2, 297600, Note_off_c, 0, 60, 95
2, 297600, Note_off_c, 0, 57, 95
2, 298080, Note_off_c, 0, 48, 95
2, 298240, Note_on_c, 0, 57, 95
2, 298255, Note_on_c, 0, 60, 95
2, 298270, Note_on_c, 0, 65, 95
2, 298560, Note_on_c, 0, 48, 95
2, 299040, Note_off_c, 0, 65, 95
2, 299040, Note_off_c, 0, 60, 95
2, 299040, Note_off_c, 0, 57, 95
2, 299200, Note_off_c, 0, 48, 95
2, 299200, Note_on_c, 0, 57, 95
2, 299215, Note_on_c, 0, 60, 95
2, 299230, Note_on_c, 0, 65, 95
2, 299520, Note_on_c, 0, 53, 95
2, 300480, Note_off_c, 0, 65, 95
2, 300480, Note_off_c, 0, 60, 95
2, 300480, Note_off_c, 0, 57, 95
2, 300960, Note_off_c, 0, 53, 95
2, 301120, Note_on_c, 0, 57, 95
2, 301135, Note_on_c, 0, 60, 95
2, 301150, Note_on_c, 0, 65, 95
2, 301440, Note_on_c, 0, 53, 95
2, 301920, Note_off_c, 0, 65, 95
2, 301920, Note_off_c, 0, 60, 95
2, 301920, Note_off_c, 0, 57, 95
2, 302080, Note_off_c, 0, 53, 95
2, 302080, Note_on_c, 0, 57, 95
2, 302095, Note_on_c, 0, 60, 95
2, 302110, Note_on_c, 0, 65, 95
2, 302400, Note_off_c, 0, 65, 95
2, 302400, Note_off_c, 0, 60, 95
2, 302400, Note_off_c, 0, 57, 95
2, 302400, Note_on_c, 0, 53, 95
2, 302400, Note_on_c, 0, 48, 95
2, 303840, Note_off_c, 0, 53, 95
2, 303840, Note_off_c, 0, 48, 95
2, 304000, Note_on_c, 0, 53, 95
2, 304320, Note_off_c, 0, 53, 95
2, 304320, Note_on_c, 0, 53, 95
2, 304960, Note_off_c, 0, 53, 95
2, 304960, Note_on_c, 0, 55, 95
2, 305280, Note_off_c, 0, 55, 95
2, 305280, Note_on_c, 1, 55, 95
2, 305400, Pitch_bend_c, 1, 8832
2, 305520, Pitch_bend_c, 1, 9600
2, 305520, Pitch_bend_c, 1, 8192
2, 305520, Note_off_c, 1, 55, 95
2, 305520, Note_on_c, 0, 57, 95
2, 307680, Note_off_c, 0, 57, 95
2, 307840, Note_on_c, 0, 57, 95
2, 308160, Note_off_c, 0, 57, 95
2, 308160, Note_on_c, 0, 58, 95
2, 308640, Note_off_c, 0, 58, 95
2, 308640, Note_on_c, 0, 57, 95
2, 310560, Note_off_c, 0, 57, 95
2, 310720, Note_on_c, 0, 55, 95
2, 311040, Note_off_c, 0, 55, 95
2, 311040, Note_on_c, 0, 57, 95
2, 311360, Note_off_c, 0, 57, 95
2, 311360, Note_on_c, 0, 55, 95
2, 311680, Note_off_c, 0, 55, 95
2, 311680, Note_on_c, 0, 53, 95
2, 313920, Note_off_c, 0, 53, 95
2, 313920, Note_on_c, 0, 53, 95
2, 315360, Note_off_c, 0, 53, 95
2, 315520, Note_on_c, 0, 53, 95
2, 315840, Note_off_c, 0, 53, 95
2, 315840, Note_on_c, 0, 53, 95
2, 316480, Note_off_c, 0, 53, 95
2, 316480, Note_on_c, 0, 55, 95
2, 316800, Note_off_c, 0, 55, 95
2, 316800, Note_on_c, 1, 55, 95
2, 316920, Pitch_bend_c, 1, 8832
2, 317040, Pitch_bend_c, 1, 9600
2, 317040, Pitch_bend_c, 1, 8192
2, 317040, Note_off_c, 1, 55, 95
2, 317040, Note_on_c, 0, 57, 95
2, 318720, Note_off_c, 0, 57, 95
2, 318720, Note_on_c, 0, 57, 95
2, 319360, Note_off_c, 0, 57, 95
2, 319360, Note_on_c, 0, 57, 95
2, 319680, Note_off_c, 0, 57, 95
2, 319680, Note_on_c, 0, 58, 95
2, 320160, Note_off_c, 0, 58, 95
2, 320160, Note_on_c, 1, 58, 95
2, 320280, Pitch_bend_c, 1, 8832
2, 320400, Pitch_bend_c, 1, 9600
2, 320400, Pitch_bend_c, 1, 8192
2, 320400, Note_off_c, 1, 58, 95
2, 320400, Note_on_c, 0, 60, 95
2, 322080, Note_off_c, 0, 60, 95
2, 322240, Note_on_c, 0, 58, 95
2, 322560, Note_off_c, 0, 58, 95
2, 322560, Note_on_c, 0, 60, 95
2, 322880, Note_off_c, 0, 60, 95
2, 322880, Note_on_c, 0, 58, 95
2, 323200, Note_off_c, 0, 58, 95
2, 323200, Note_on_c, 0, 57, 95
2, 326880, Note_off_c, 0, 57, 95
2, 327040, Note_on_c, 0, 60, 95
2, 327360, Note_off_c, 0, 60, 95
2, 327360, Note_on_c, 0, 60, 95
2, 328000, Note_off_c, 0, 60, 95
2, 328000, Note_on_c, 0, 62, 95
2, 328320, Note_off_c, 0, 62, 95
2, 328320, Note_on_c, 1, 62, 95
2, 328440, Pitch_bend_c, 1, 8448
2, 328560, Pitch_bend_c, 1, 8832
2, 328560, Pitch_bend_c, 1, 8192
2, 328560, Note_off_c, 1, 62, 95
2, 328560, Note_on_c, 0, 63, 95
2, 329280, Note_off_c, 0, 63, 95
2, 329280, Note_on_c, 0, 62, 95
2, 330720, Note_off_c, 0, 62, 95
2, 330880, Note_on_c, 0, 60, 95
2, 331200, Note_off_c, 0, 60, 95
2, 331200, Note_on_c, 0, 62, 95
2, 331680, Note_off_c, 0, 62, 95
2, 331680, Note_on_c, 0, 60, 95
2, 333600, Note_off_c, 0, 60, 95
2, 333760, Note_on_c, 0, 58, 95
2, 334080, Note_off_c, 0, 58, 95
2, 334080, Note_on_c, 0, 58, 95
2, 334400, Note_off_c, 0, 58, 95
2, 334400, Note_on_c, 0, 58, 95
2, 334720, Note_off_c, 0, 58, 95
2, 334720, Note_on_c, 0, 60, 70
2, 335040, Note_off_c, 0, 60, 70
2, 335040, Note_on_c, 0, 62, 95
2, 335360, Note_off_c, 0, 62, 95
2, 335360, Note_on_c, 0, 60, 95
2, 335680, Note_off_c, 0, 60, 95
2, 335680, Note_on_c, 0, 58, 70
2, 336320, Note_off_c, 0, 58, 70
2, 336320, Note_on_c, 0, 58, 95
2, 336640, Note_off_c, 0, 58, 95
2, 336640, Note_on_c, 0, 60, 95
2, 339360, Note_off_c, 0, 60, 95
2, 339520, Note_on_c, 0, 57, 95
2, 339840, Note_off_c, 0, 57, 95
2, 339840, Note_on_c, 0, 57, 95
2, 340160, Note_off_c, 0, 57, 95
2, 340480, Note_on_c, 0, 58, 95
2, 341040, Note_off_c, 0, 58, 95
2, 341040, Note_on_c, 0, 60, 95
2, 341280, Note_off_c, 0, 60, 95
2, 341280, Note_on_c, 0, 58, 95
2, 341520, Note_off_c, 0, 58, 95
2, 341520, Note_on_c, 1, 57, 95
2, 341640, Pitch_bend_c, 1, 7552
2, 341760, Pitch_bend_c, 1, 6784
2, 341760, Pitch_bend_c, 1, 8192
2, 341760, Note_off_c, 1, 57, 95
2, 341760, Note_on_c, 0, 55, 95
2, 342240, Note_off_c, 0, 55, 95
2, 342240, Note_on_c, 0, 55, 95
2, 342400, Note_off_c, 0, 55, 95
2, 342400, Note_on_c, 0, 57, 95
2, 342560, Note_off_c, 0, 57, 95
2, 342560, Note_on_c, 0, 55, 95
2, 342720, Note_off_c, 0, 55, 95
2, 342720, Note_on_c, 0, 53, 95
2, 343040, Note_off_c, 0, 53, 95
2, 343040, Note_on_c, 1, 52, 95
2, 343200, Pitch_bend_c, 1, 8448
2, 343360, Pitch_bend_c, 1, 8832
2, 343360, Pitch_bend_c, 1, 8192
2, 343360, Note_off_c, 1, 52, 95
2, 343360, Note_on_c, 0, 53, 95
2, 344000, Note_off_c, 0, 53, 95
2, 344000, Note_on_c, 1, 52, 95
2, 344160, Pitch_bend_c, 1, 8448
2, 344320, Pitch_bend_c, 1, 8832
2, 344320, Pitch_bend_c, 1, 8192
2, 344320, Note_off_c, 1, 52, 95
2, 344320, Note_on_c, 0, 53, 95
2, 344640, Note_off_c, 0, 53, 95
2, 344640, Note_on_c, 1, 52, 95
2, 344800, Pitch_bend_c, 1, 8448
2, 344960, Pitch_bend_c, 1, 8832
2, 344960, Pitch_bend_c, 1, 8192
2, 344960, Note_off_c, 1, 52, 95
2, 344960, Note_on_c, 0, 53, 95
2, 345280, Note_off_c, 0, 53, 95
2, 345280, Note_on_c, 1, 53, 95
2, 345440, Pitch_bend_c, 1, 8832
2, 345600, Pitch_bend_c, 1, 9600
2, 345600, Pitch_bend_c, 1, 8192
2, 345600, Note_off_c, 1, 53, 95
2, 345600, Note_on_c, 0, 55, 95
2, 347040, Note_off_c, 0, 55, 95
2, 347200, Note_on_c, 0, 48, 95
2, 347520, Note_off_c, 0, 48, 95
2, 347520, Note_on_c, 0, 48, 95
2, 348160, Note_off_c, 0, 48, 95
2, 348160, Note_on_c, 0, 48, 95
2, 348480, Note_off_c, 0, 48, 95
2, 348480, Note_on_c, 0, 48, 95
2, 349920, Note_off_c, 0, 48, 95
2, 350080, Note_on_c, 0, 43, 95
2, 350400, Note_off_c, 0, 43, 95
2, 350400, Note_on_c, 0, 43, 95
2, 351040, Note_off_c, 0, 43, 95
2, 351040, Note_on_c, 0, 43, 95
2, 351360, Note_off_c, 0, 43, 95
2, 351360, Note_on_c, 0, 48, 95
2, 352800, Note_off_c, 0, 48, 95
2, 352960, Note_on_c, 0, 48, 95
2, 353280, Note_off_c, 0, 48, 95
2, 353280, Note_on_c, 0, 48, 95
2, 353920, Note_off_c, 0, 48, 95
2, 353920, Note_on_c, 0, 48, 95
2, 354240, Note_off_c, 0, 48, 95
2, 354240, Note_on_c, 0, 48, 95
2, 355680, Note_off_c, 0, 48, 95
2, 355840, Note_on_c, 0, 48, 95
2, 356160, Note_off_c, 0, 48, 95
2, 356160, Note_on_c, 0, 53, 95
2, 356800, Note_off_c, 0, 53, 95
2, 356800, Note_on_c, 0, 55, 95
2, 357120, Note_off_c, 0, 55, 95
2, 357120, Note_on_c, 1, 57, 95
2, 357240, Pitch_bend_c, 1, 8448
2, 357360, Pitch_bend_c, 1, 8832
2, 357360, Pitch_bend_c, 1, 8192
2, 357360, Note_off_c, 1, 57, 95
2, 357360, Note_on_c, 0, 58, 95
2, 358560, Note_off_c, 0, 58, 95
2, 358720, Note_on_c, 0, 58, 95
2, 359040, Note_off_c, 0, 58, 95
2, 359040, Note_on_c, 0, 60, 95
2, 359680, Note_off_c, 0, 60, 95
2, 359680, Note_on_c, 0, 62, 95
2, 360000, Note_off_c, 0, 62, 95
2, 360000, Note_on_c, 0, 60, 95
2, 360480, Note_off_c, 0, 60, 95
2, 360480, Note_on_c, 0, 58, 95
2, 362400, Note_off_c, 0, 58, 95
2, 362560, Note_on_c, 0, 57, 95
2, 362880, Note_off_c, 0, 57, 95
2, 362880, Note_on_c, 0, 57, 95
2, 363200, Note_off_c, 0, 57, 95
2, 363200, Note_on_c, 0, 58, 95
2, 363520, Note_off_c, 0, 58, 95
2, 363520, Note_on_c, 0, 60, 95
2, 363840, Note_off_c, 0, 60, 95
2, 363840, Note_on_c, 0, 58, 95
2, 364160, Note_off_c, 0, 58, 95
2, 364160, Note_on_c, 0, 57, 95
2, 364800, Note_off_c, 0, 57, 95
2, 364800, Note_on_c, 1, 55, 95
2, 364920, Pitch_bend_c, 1, 8832
2, 365040, Pitch_bend_c, 1, 9600
2, 365040, Pitch_bend_c, 1, 8192
2, 365040, Note_off_c, 1, 55, 95
2, 365040, Note_on_c, 0, 57, 95
2, 367200, Note_off_c, 0, 57, 95
2, 367200, Note_on_c, 0, 57, 95
2, 367520, Note_off_c, 0, 57, 95
2, 367520, Note_on_c, 0, 57, 95
2, 367840, Note_off_c, 0, 57, 95
2, 367840, Note_on_c, 0, 57, 95
2, 368160, Note_off_c, 0, 57, 95
2, 368160, Note_on_c, 0, 58, 95
2, 368640, Note_off_c, 0, 58, 95
2, 368640, Note_on_c, 0, 60, 95
2, 368960, Note_off_c, 0, 60, 95
2, 368960, Note_on_c, 0, 58, 95
2, 369280, Note_off_c, 0, 58, 95
2, 369280, Note_on_c, 0, 55, 95
2, 369600, Note_off_c, 0, 55, 95
2, 369600, Note_on_c, 0, 53, 95
2, 369920, Note_off_c, 0, 53, 95
2, 369920, Note_on_c, 0, 52, 95
2, 370560, Note_off_c, 0, 52, 95
2, 370560, Note_on_c, 0, 52, 95
2, 372960, Note_off_c, 0, 52, 95
2, 372960, Note_on_c, 0, 52, 95
2, 373280, Note_off_c, 0, 52, 95
2, 373280, Note_on_c, 0, 52, 95
2, 373600, Note_off_c, 0, 52, 95
2, 373600, Note_on_c, 0, 52, 95
2, 373920, Note_off_c, 0, 52, 95
2, 373920, Note_on_c, 0, 53, 95
2, 374400, Note_off_c, 0, 53, 95
2, 374400, Pitch_bend_c, 1, 8192
2, 374400, Note_on_c, 1, 55, 95
2, 374509, Pitch_bend_c, 1, 8320
2, 374618, Pitch_bend_c, 1, 8448
2, 374727, Pitch_bend_c, 1, 8576
2, 374836, Pitch_bend_c, 1, 8704
2, 374945, Pitch_bend_c, 1, 8832
2, 375054, Pitch_bend_c, 1, 8960
2, 375163, Pitch_bend_c, 1, 9088
2, 375272, Pitch_bend_c, 1, 9216
2, 375381, Pitch_bend_c, 1, 9344
2, 375490, Pitch_bend_c, 1, 9472
2, 375599, Pitch_bend_c, 1, 9600
2, 375600, Pitch_bend_c, 1, 9600
2, 376800, Pitch_bend_c, 1, 9600
2, 376800, Pitch_bend_c, 1, 8192
2, 376800, Note_off_c, 1, 55, 95
2, 376960, Note_on_c, 0, 52, 95
2, 377280, Note_off_c, 0, 52, 95
2, 377280, Note_on_c, 0, 48, 95
2, 379200, Note_off_c, 0, 48, 95
2, 379840, Note_on_c, 0, 48, 95
2, 380160, Note_off_c, 0, 48, 95
2, 380160, Note_on_c, 0, 48, 95
2, 380480, Note_off_c, 0, 48, 95
2, 380480, Note_on_c, 0, 50, 95
2, 380800, Note_off_c, 0, 50, 95
2, 380800, Note_on_c, 0, 52, 95
2, 381120, Note_off_c, 0, 52, 95
2, 381120, Note_on_c, 0, 52, 95
2, 381440, Note_off_c, 0, 52, 95
2, 381440, Note_on_c, 0, 53, 95
2, 381760, Note_off_c, 0, 53, 95
2, 381760, Note_on_c, 0, 52, 95
2, 382400, Note_off_c, 0, 52, 95
2, 382400, Note_on_c, 1, 53, 95
2, 382560, Pitch_bend_c, 1, 8832
2, 382720, Pitch_bend_c, 1, 9600
2, 382720, Pitch_bend_c, 1, 8192
2, 382720, Note_off_c, 1, 53, 95
2, 382720, Note_on_c, 0, 55, 95
2, 384480, Note_off_c, 0, 55, 95
2, 384640, Note_on_c, 0, 53, 95
2, 384900, Note_on_c, 1, 53, 95
2, 384960, Note_off_c, 0, 53, 95
2, 384960, Note_off_c, 1, 53, 95
2, 384960, Note_on_c, 1, 55, 95
2, 385280, Note_off_c, 1, 55, 95
2, 385280, Note_on_c, 1, 55, 95
2, 385440, Pitch_bend_c, 1, 8832
2, 385600, Pitch_bend_c, 1, 9600
2, 385600, Pitch_bend_c, 1, 8192
2, 385600, Note_off_c, 1, 55, 95
2, 385600, Note_on_c, 0, 57, 95
2, 385920, Note_off_c, 0, 57, 95
2, 385920, Note_on_c, 0, 57, 95
2, 386160, Note_off_c, 0, 57, 95
2, 386160, Note_on_c, 0, 55, 95
2, 386640, Note_off_c, 0, 55, 95
2, 386640, Note_on_c, 1, 53, 47
2, 386760, Pitch_bend_c, 1, 7936
2, 386880, Pitch_bend_c, 1, 7552
2, 386880, Pitch_bend_c, 1, 8192
2, 386880, Note_off_c, 1, 53, 47
2, 386880, Note_on_c, 0, 52, 95
2, 387520, Note_off_c, 0, 52, 95
2, 387520, Note_on_c, 0, 53, 95
2, 387840, Note_off_c, 0, 53, 95
2, 387840, Note_on_c, 0, 52, 95
2, 388480, Note_off_c, 0, 52, 95
2, 388480, Note_on_c, 0, 50, 95
2, 389280, Note_off_c, 0, 50, 95
2, 389280, Note_on_c, 0, 48, 95
2, 389520, Note_off_c, 0, 48, 95
2, 389520, Note_on_c, 0, 50, 95
2, 389760, Note_off_c, 0, 50, 95
2, 389760, Note_on_c, 0, 48, 95
2, 390000, Note_off_c, 0, 48, 95
2, 390000, Note_on_c, 0, 45, 95
2, 391680, Note_off_c, 0, 45, 95
2, 391680, Note_on_c, 0, 53, 95
2, 393120, Note_off_c, 0, 53, 95
2, 393280, Note_on_c, 0, 57, 95
2, 393295, Note_on_c, 0, 60, 95
2, 393310, Note_on_c, 0, 65, 95
2, 393600, Note_on_c, 0, 53, 95
2, 394080, Note_off_c, 0, 65, 95
2, 394080, Note_off_c, 0, 60, 95
2, 394080, Note_off_c, 0, 57, 95
2, 394240, Note_off_c, 0, 53, 95
2, 394240, Note_on_c, 0, 57, 95
2, 394255, Note_on_c, 0, 60, 95
2, 394270, Note_on_c, 0, 65, 95
2, 394560, Note_on_c, 0, 48, 95
2, 395520, Note_off_c, 0, 65, 95
2, 395520, Note_off_c, 0, 60, 95
2, 395520, Note_off_c, 0, 57, 95
2, 396000, Note_off_c, 0, 48, 95
2, 396160, Note_on_c, 0, 57, 95
2, 396175, Note_on_c, 0, 60, 95
2, 396190, Note_on_c, 0, 65, 95
2, 396480, Note_on_c, 0, 48, 95
2, 396960, Note_off_c, 0, 65, 95
2, 396960, Note_off_c, 0, 60, 95
2, 396960, Note_off_c, 0, 57, 95
2, 397120, Note_off_c, 0, 48, 95
2, 397120, Note_on_c, 0, 57, 95
2, 397135, Note_on_c, 0, 60, 95
2, 397150, Note_on_c, 0, 65, 95
2, 397440, Note_on_c, 0, 53, 95
2, 398400, Note_off_c, 0, 65, 95
2, 398400, Note_off_c, 0, 60, 95
2, 398400, Note_off_c, 0, 57, 95
2, 398880, Note_off_c, 0, 53, 95
2, 399040, Note_on_c, 0, 57, 95
2, 399055, Note_on_c, 0, 60, 95
2, 399070, Note_on_c, 0, 65, 95
2, 399360, Note_on_c, 0, 53, 95
2, 399840, Note_off_c, 0, 65, 95
2, 399840, Note_off_c, 0, 60, 95
2, 399840, Note_off_c, 0, 57, 95
2, 400000, Note_off_c, 0, 53, 95
2, 400000, Note_on_c, 0, 57, 95
2, 400015, Note_on_c, 0, 60, 95
2, 400030, Note_on_c, 0, 65, 95
2, 400320, Note_on_c, 0, 48, 95
2, 401280, Note_off_c, 0, 65, 95
2, 401280, Note_off_c, 0, 60, 95
2, 401280, Note_off_c, 0, 57, 95
2, 401760, Note_off_c, 0, 48, 95
2, 401920, Note_on_c, 0, 57, 95
2, 401935, Note_on_c, 0, 60, 95
2, 401950, Note_on_c, 0, 65, 95
2, 402240, Note_on_c, 0, 48, 95
2, 402720, Note_off_c, 0, 65, 95
2, 402720, Note_off_c, 0, 60, 95
2, 402720, Note_off_c, 0, 57, 95
2, 402880, Note_off_c, 0, 48, 95
2, 402880, Note_on_c, 0, 57, 95
2, 402895, Note_on_c, 0, 60, 95
2, 402910, Note_on_c, 0, 65, 95
2, 403200, Note_on_c, 0, 53, 95
2, 404160, Note_off_c, 0, 65, 95
2, 404160, Note_off_c, 0, 60, 95
2, 404160, Note_off_c, 0, 57, 95
2, 404640, Note_off_c, 0, 53, 95
2, 404800, Note_on_c, 0, 57, 95
2, 404815, Note_on_c, 0, 60, 95
2, 404830, Note_on_c, 0, 65, 95
2, 405120, Note_on_c, 0, 53, 95
2, 405600, Note_off_c, 0, 65, 95
2, 405600, Note_off_c, 0, 60, 95
2, 405600, Note_off_c, 0, 57, 95
2, 405760, Note_off_c, 0, 53, 95
2, 405760, Note_on_c, 0, 57, 95
2, 405775, Note_on_c, 0, 60, 95
2, 405790, Note_on_c, 0, 65, 95
2, 406080, Note_on_c, 0, 48, 95
2, 407040, Note_off_c, 0, 65, 95
2, 407040, Note_off_c, 0, 60, 95
2, 407040, Note_off_c, 0, 57, 95
2, 407520, Note_off_c, 0, 48, 95
2, 407680, Note_on_c, 0, 57, 95
2, 407695, Note_on_c, 0, 60, 95
2, 407710, Note_on_c, 0, 65, 95
2, 408000, Note_on_c, 0, 48, 95
2, 408480, Note_off_c, 0, 65, 95
2, 408480, Note_off_c, 0, 60, 95
2, 408480, Note_off_c, 0, 57, 95
2, 408640, Note_off_c, 0, 48, 95
2, 408640, Note_on_c, 0, 57, 95
2, 408655, Note_on_c, 0, 60, 95
2, 408670, Note_on_c, 0, 65, 95
2, 408960, Note_on_c, 0, 53, 95
2, 409920, Note_off_c, 0, 65, 95
2, 409920, Note_off_c, 0, 60, 95
2, 409920, Note_off_c, 0, 57, 95
2, 410400, Note_off_c, 0, 53, 95
2, 410560, Note_on_c, 0, 57, 95
2, 410575, Note_on_c, 0, 60, 95
2, 410590, Note_on_c, 0, 65, 95
2, 410880, Note_on_c, 0, 53, 95
2, 411360, Note_off_c, 0, 65, 95
2, 411360, Note_off_c, 0, 60, 95
2, 411360, Note_off_c, 0, 57, 95
2, 411520, Note_off_c, 0, 53, 95
2, 411520, Note_on_c, 0, 57, 95
2, 411535, Note_on_c, 0, 60, 95
2, 411550, Note_on_c, 0, 65, 95
2, 411840, Note_on_c, 0, 48, 95
2, 412800, Note_off_c, 0, 65, 95
2, 412800, Note_off_c, 0, 60, 95
2, 412800, Note_off_c, 0, 57, 95
2, 413280, Note_off_c, 0, 48, 95
2, 413440, Note_on_c, 0, 57, 95
2, 413455, Note_on_c, 0, 60, 95
2, 413470, Note_on_c, 0, 65, 95
2, 413760, Note_on_c, 0, 48, 95
2, 414240, Note_off_c, 0, 65, 95
2, 414240, Note_off_c, 0, 60, 95
2, 414240, Note_off_c, 0, 57, 95
2, 414400, Note_off_c, 0, 48, 95
2, 414400, Note_on_c, 0, 57, 95
2, 414415, Note_on_c, 0, 60, 95
2, 414430, Note_on_c, 0, 65, 95
2, 414720, Note_on_c, 0, 53, 95
2, 415680, Note_off_c, 0, 65, 95
2, 415680, Note_off_c, 0, 60, 95
2, 415680, Note_off_c, 0, 57, 95
2, 416160, Note_off_c, 0, 53, 95
2, 416320, Note_on_c, 0, 57, 95
2, 416335, Note_on_c, 0, 60, 95
2, 416350, Note_on_c, 0, 65, 95
2, 416640, Note_on_c, 0, 53, 95
2, 417120, Note_off_c, 0, 65, 95
2, 417120, Note_off_c, 0, 60, 95
2, 417120, Note_off_c, 0, 57, 95
2, 417280, Note_off_c, 0, 53, 95
2, 417280, Note_on_c, 0, 57, 95
2, 417295, Note_on_c, 0, 60, 95
2, 417310, Note_on_c, 0, 65, 95
2, 417600, Note_on_c, 0, 48, 95
2, 418560, Note_off_c, 0, 65, 95
2, 418560, Note_off_c, 0, 60, 95
2, 418560, Note_off_c, 0, 57, 95
2, 419040, Note_off_c, 0, 48, 95
2, 419200, Note_on_c, 0, 57, 95
2, 419215, Note_on_c, 0, 60, 95
2, 419230, Note_on_c, 0, 65, 95
2, 419520, Note_on_c, 0, 48, 95
2, 420000, Note_off_c, 0, 65, 95
2, 420000, Note_off_c, 0, 60, 95
2, 420000, Note_off_c, 0, 57, 95
2, 420160, Note_off_c, 0, 48, 95
2, 420160, Note_on_c, 0, 57, 95
2, 420175, Note_on_c, 0, 60, 95
2, 420190, Note_on_c, 0, 65, 95
2, 420480, Note_on_c, 0, 53, 95
2, 421440, Note_off_c, 0, 65, 95
2, 421440, Note_off_c, 0, 60, 95
2, 421440, Note_off_c, 0, 57, 95
2, 421920, Note_off_c, 0, 53, 95
2, 422080, Note_on_c, 0, 57, 95
2, 422095, Note_on_c, 0, 60, 95
2, 422110, Note_on_c, 0, 65, 95
2, 422400, Note_on_c, 0, 53, 95
2, 422880, Note_off_c, 0, 65, 95
2, 422880, Note_off_c, 0, 60, 95
2, 422880, Note_off_c, 0, 57, 95
2, 423040, Note_off_c, 0, 53, 95
2, 423040, Note_on_c, 0, 57, 95
2, 423055, Note_on_c, 0, 60, 95
2, 423070, Note_on_c, 0, 65, 95
2, 423360, Note_on_c, 0, 48, 95
2, 424320, Note_off_c, 0, 65, 95
2, 424320, Note_off_c, 0, 60, 95
2, 424320, Note_off_c, 0, 57, 95
2, 424800, Note_off_c, 0, 48, 95
2, 424960, Note_on_c, 0, 57, 95
2, 424975, Note_on_c, 0, 60, 95
2, 424990, Note_on_c, 0, 65, 95
2, 425280, Note_on_c, 0, 48, 95
2, 425760, Note_off_c, 0, 65, 95
2, 425760, Note_off_c, 0, 60, 95
2, 425760, Note_off_c, 0, 57, 95
2, 425920, Note_off_c, 0, 48, 95
2, 425920, Note_on_c, 0, 57, 95
2, 425935, Note_on_c, 0, 60, 95
2, 425950, Note_on_c, 0, 65, 95
2, 426240, Note_on_c, 0, 53, 95
2, 427200, Note_off_c, 0, 65, 95
2, 427200, Note_off_c, 0, 60, 95
2, 427200, Note_off_c, 0, 57, 95
2, 427680, Note_off_c, 0, 53, 95
2, 427840, Note_on_c, 0, 57, 95
2, 427855, Note_on_c, 0, 60, 95
2, 427870, Note_on_c, 0, 65, 95
2, 428160, Note_on_c, 0, 53, 95
2, 428640, Note_off_c, 0, 65, 95
2, 428640, Note_off_c, 0, 60, 95
2, 428640, Note_off_c, 0, 57, 95
2, 428800, Note_off_c, 0, 53, 95
2, 428800, Note_on_c, 0, 57, 95
2, 428815, Note_on_c, 0, 60, 95
2, 428830, Note_on_c, 0, 65, 95
2, 429120, Note_on_c, 0, 48, 95
2, 430080, Note_off_c, 0, 65, 95
2, 430080, Note_off_c, 0, 60, 95
2, 430080, Note_off_c, 0, 57, 95
2, 430560, Note_off_c, 0, 48, 95
2, 430720, Note_on_c, 0, 57, 95
2, 430735, Note_on_c, 0, 60, 95
2, 430750, Note_on_c, 0, 65, 95
2, 431040, Note_on_c, 0, 48, 95
2, 431520, Note_off_c, 0, 65, 95
2, 431520, Note_off_c, 0, 60, 95
2, 431520, Note_off_c, 0, 57, 95
2, 431680, Note_off_c, 0, 48, 95
2, 431680, Note_on_c, 0, 57, 95
2, 431695, Note_on_c, 0, 60, 95
2, 431710, Note_on_c, 0, 65, 95
2, 432000, Note_on_c, 0, 53, 95
2, 432960, Note_off_c, 0, 65, 95
2, 432960, Note_off_c, 0, 60, 95
2, 432960, Note_off_c, 0, 57, 95
2, 433440, Note_off_c, 0, 53, 95
2, 433600, Note_on_c, 0, 57, 95
2, 433615, Note_on_c, 0, 60, 95
2, 433630, Note_on_c, 0, 65, 95
2, 433920, Note_on_c, 0, 53, 95
2, 434400, Note_off_c, 0, 65, 95
2, 434400, Note_off_c, 0, 60, 95
2, 434400, Note_off_c, 0, 57, 95
2, 434560, Note_off_c, 0, 53, 95
2, 434560, Note_on_c, 0, 57, 95
2, 434575, Note_on_c, 0, 60, 95
2, 434590, Note_on_c, 0, 65, 95
2, 434880, Note_on_c, 0, 48, 95
2, 435840, Note_off_c, 0, 65, 95
2, 435840, Note_off_c, 0, 60, 95
2, 435840, Note_off_c, 0, 57, 95
2, 436320, Note_off_c, 0, 48, 95
2, 436480, Note_on_c, 0, 57, 95
2, 436495, Note_on_c, 0, 60, 95
2, 436510, Note_on_c, 0, 65, 95
2, 436800, Note_on_c, 0, 48, 95
2, 437280, Note_off_c, 0, 65, 95
2, 437280, Note_off_c, 0, 60, 95
2, 437280, Note_off_c, 0, 57, 95
2, 437440, Note_off_c, 0, 48, 95
2, 437440, Note_on_c, 0, 57, 95
2, 437455, Note_on_c, 0, 60, 95
2, 437470, Note_on_c, 0, 65, 95
2, 437760, Note_on_c, 0, 53, 95
2, 438720, Note_off_c, 0, 65, 95
2, 438720, Note_off_c, 0, 60, 95
2, 438720, Note_off_c, 0, 57, 95
2, 439200, Note_off_c, 0, 53, 95
2, 439360, Note_on_c, 0, 57, 95
2, 439375, Note_on_c, 0, 60, 95
2, 439390, Note_on_c, 0, 65, 95
2, 439680, Note_on_c, 0, 53, 95
2, 440160, Note_off_c, 0, 65, 95
2, 440160, Note_off_c, 0, 60, 95
2, 440160, Note_off_c, 0, 57, 95
2, 440320, Note_off_c, 0, 53, 95
2, 440320, Note_on_c, 0, 57, 95
2, 440335, Note_on_c, 0, 60, 95
2, 440350, Note_on_c, 0, 65, 95
2, 440640, Note_on_c, 0, 48, 95
2, 441600, Note_off_c, 0, 65, 95
2, 441600, Note_off_c, 0, 60, 95
2, 441600, Note_off_c, 0, 57, 95
2, 442080, Note_off_c, 0, 48, 95
2, 442240, Note_on_c, 0, 57, 95
2, 442255, Note_on_c, 0, 60, 95
2, 442270, Note_on_c, 0, 65, 95
2, 442560, Note_on_c, 0, 48, 95
2, 443040, Note_off_c, 0, 65, 95
2, 443040, Note_off_c, 0, 60, 95
2, 443040, Note_off_c, 0, 57, 95
2, 443200, Note_off_c, 0, 48, 95
2, 443200, Note_on_c, 0, 57, 95
2, 443215, Note_on_c, 0, 60, 95
2, 443230, Note_on_c, 0, 65, 95
2, 443520, Note_on_c, 0, 53, 95
2, 444480, Note_off_c, 0, 65, 95
2, 444480, Note_off_c, 0, 60, 95
2, 444480, Note_off_c, 0, 57, 95
2, 444960, Note_off_c, 0, 53, 95
2, 445120, Note_on_c, 0, 57, 95
2, 445135, Note_on_c, 0, 60, 95
2, 445150, Note_on_c, 0, 65, 95
2, 445440, Note_on_c, 0, 53, 95
2, 445920, Note_off_c, 0, 65, 95
2, 445920, Note_off_c, 0, 60, 95
2, 445920, Note_off_c, 0, 57, 95
2, 446080, Note_off_c, 0, 53, 95
2, 446080, Note_on_c, 0, 57, 95
2, 446095, Note_on_c, 0, 60, 95
2, 446110, Note_on_c, 0, 65, 95
2, 446400, Note_off_c, 0, 65, 95
2, 446400, Note_off_c, 0, 60, 95
2, 446400, Note_off_c, 0, 57, 95
2, 446400, Note_on_c, 0, 48, 95
2, 447360, Note_off_c, 0, 48, 95
2, 447360, Note_on_c, 0, 53, 95
2, 448320, Note_off_c, 0, 53, 95
2, 448320, Note_on_c, 0, 50, 95
2, 449280, Note_off_c, 0, 50, 95
2, 449280, Note_on_c, 0, 41, 95
2, 449340, Note_on_c, 0, 48, 95
2, 449400, Note_on_c, 0, 53, 95
2, 449460, Note_on_c, 0, 57, 95
2, 449520, Note_on_c, 0, 60, 95
2, 449580, Note_on_c, 0, 65, 95
2, 452160, Note_off_c, 0, 48, 95
2, 452160, Note_off_c, 0, 41, 95
2, 455040, Note_off_c, 0, 65, 95
2, 455040, Note_off_c, 0, 60, 95
2, 455040, Note_off_c, 0, 57, 95
2, 455040, Note_off_c, 0, 53, 95
2, 455040, End_track
3, 0, Start_track
3, 0, Pitch_bend_c, 6, 8192
3, 0, Control_c, 6, 7, 79
3, 0, Control_c, 6, 10, 63
3, 0, Control_c, 6, 93, 23
3, 0, Control_c, 6, 91, 87
3, 0, Control_c, 6, 95, 0
3, 0, Control_c, 6, 92, 0
3, 0, Control_c, 6, 11, 127
3, 0, Program_c, 6, 85
3, 0, Control_c, 7, 7, 79
3, 0, Control_c, 7, 10, 63
3, 0, Control_c, 7, 93, 23
3, 0, Control_c, 7, 91, 87
3, 0, Control_c, 7, 95, 0
3, 0, Control_c, 7, 92, 0
3, 0, Control_c, 7, 11, 127
3, 0, Program_c, 7, 85
3, 109120, Note_on_c, 6, 55, 95
3, 109440, Note_off_c, 6, 55, 95
3, 109440, Note_on_c, 6, 57, 95
3, 110400, Note_off_c, 6, 57, 95
3, 110400, Note_on_c, 6, 60, 95
3, 111840, Note_off_c, 6, 60, 95
3, 112000, Note_on_c, 6, 62, 95
3, 112320, Note_off_c, 6, 62, 95
3, 112320, Note_on_c, 7, 65, 95
3, 112440, Pitch_bend_c, 7, 8064
3, 112560, Pitch_bend_c, 7, 7936
3, 112680, Pitch_bend_c, 7, 7680
3, 112800, Pitch_bend_c, 7, 7552
3, 112800, Pitch_bend_c, 7, 8192
3, 112960, Note_off_c, 7, 65, 95
3, 112960, Note_on_c, 6, 64, 95
3, 114960, Note_off_c, 6, 64, 95
3, 114960, Note_on_c, 6, 62, 95
3, 115200, Note_off_c, 6, 62, 95
3, 115200, Note_on_c, 6, 64, 95
3, 116160, Note_off_c, 6, 64, 95
3, 116160, Note_on_c, 6, 65, 95
3, 117120, Note_off_c, 6, 65, 95
3, 117120, Note_on_c, 6, 60, 95
3, 118080, Note_off_c, 6, 60, 95
3, 118080, Note_on_c, 6, 57, 95
3, 120000, Note_off_c, 6, 57, 95
3, 120720, Note_on_c, 6, 55, 95
3, 120960, Note_off_c, 6, 55, 95
3, 120960, Note_on_c, 6, 57, 95
3, 121920, Note_off_c, 6, 57, 95
3, 121920, Note_on_c, 6, 57, 95
3, 123360, Note_off_c, 6, 57, 95
3, 123360, Note_on_c, 6, 57, 95
3, 123600, Note_off_c, 6, 57, 95
3, 123600, Note_on_c, 6, 57, 95
3, 123840, Note_off_c, 6, 57, 95
3, 123840, Note_on_c, 6, 57, 95
3, 124800, Note_off_c, 6, 57, 95
3, 124800, Note_on_c, 6, 57, 95
3, 125760, Note_off_c, 6, 57, 95
3, 125760, Note_on_c, 6, 60, 95
3, 126720, Note_off_c, 6, 60, 95
3, 126720, Note_on_c, 6, 60, 95
3, 131520, Note_off_c, 6, 60, 95
3, 132160, Note_on_c, 6, 55, 95
3, 132480, Note_off_c, 6, 55, 95
3, 132480, Note_on_c, 6, 57, 95
3, 133440, Note_off_c, 6, 57, 95
3, 133440, Note_on_c, 6, 57, 95
3, 135120, Note_off_c, 6, 57, 95
3, 135120, Note_on_c, 6, 60, 95
3, 135360, Note_off_c, 6, 60, 95
3, 135360, Note_on_c, 7, 62, 95
3, 135480, Pitch_bend_c, 7, 9216
3, 135600, Pitch_bend_c, 7, 10240
3, 135600, Pitch_bend_c, 7, 8192
3, 135600, Note_off_c, 7, 62, 95
3, 135600, Note_on_c, 6, 65, 95
3, 136080, Note_off_c, 6, 65, 95
3, 136320, Note_on_c, 6, 64, 95
3, 138000, Note_off_c, 6, 64, 95
3, 138000, Note_on_c, 6, 62, 95
3, 138240, Note_off_c, 6, 62, 95
3, 138240, Note_on_c, 6, 64, 95
3, 139200, Note_off_c, 6, 64, 95
3, 139200, Note_on_c, 6, 65, 95
3, 140640, Note_off_c, 6, 65, 95
3, 140800, Note_on_c, 6, 60, 95
3, 141120, Note_off_c, 6, 60, 95
3, 141120, Note_on_c, 6, 57, 95
3, 143520, Note_off_c, 6, 57, 95
3, 143680, Note_on_c, 6, 55, 95
3, 144000, Note_off_c, 6, 55, 95
3, 144000, Note_on_c, 6, 57, 95
3, 144480, Note_off_c, 6, 57, 95
3, 144480, Note_on_c, 6, 57, 95
3, 146880, Note_off_c, 6, 57, 95
3, 146880, Note_on_c, 6, 57, 95
3, 148800, Note_off_c, 6, 57, 95
3, 148800, Note_on_c, 7, 60, 95
3, 149440, Note_off_c, 7, 60, 95
3, 149760, Note_on_c, 6, 60, 95
3, 152640, Note_off_c, 6, 60, 95
3, 161280, Note_on_c, 6, 58, 95
3, 164160, Note_off_c, 6, 58, 95
3, 164160, Note_on_c, 6, 58, 95
3, 166080, Note_off_c, 6, 58, 95
3, 166080, Note_on_c, 6, 57, 95
3, 166720, Note_off_c, 6, 57, 95
3, 166720, Note_on_c, 6, 55, 95
3, 167040, Note_off_c, 6, 55, 95
3, 167040, Note_on_c, 6, 55, 95
3, 168000, Note_off_c, 6, 55, 95
3, 168000, Pitch_bend_c, 7, 8192
3, 168000, Note_on_c, 7, 55, 95
3, 168043, Pitch_bend_c, 7, 8320
3, 168086, Pitch_bend_c, 7, 8448
3, 168129, Pitch_bend_c, 7, 8576
3, 168172, Pitch_bend_c, 7, 8704
3, 168215, Pitch_bend_c, 7, 8832
3, 168258, Pitch_bend_c, 7, 8960
3, 168301, Pitch_bend_c, 7, 9088
3, 168344, Pitch_bend_c, 7, 9216
3, 168387, Pitch_bend_c, 7, 9344
3, 168430, Pitch_bend_c, 7, 9472
3, 168473, Pitch_bend_c, 7, 9600
3, 168480, Pitch_bend_c, 7, 9600
3, 168960, Pitch_bend_c, 7, 9600
3, 168960, Pitch_bend_c, 7, 8192
3, 168960, Note_off_c, 7, 55, 95
3, 168960, Note_on_c, 6, 57, 95
3, 169920, Note_off_c, 6, 57, 95
3, 169920, Note_on_c, 6, 57, 95
3, 172800, Note_off_c, 6, 57, 95
3, 172800, Note_on_c, 6, 58, 95
3, 173280, Note_off_c, 6, 58, 95
3, 173280, Note_on_c, 6, 60, 95
3, 175680, Note_off_c, 6, 60, 95
3, 175680, Note_on_c, 6, 60, 95
3, 178080, Note_off_c, 6, 60, 95
3, 178240, Note_on_c, 6, 55, 95
3, 178560, Note_off_c, 6, 55, 95
3, 178560, Note_on_c, 6, 58, 95
3, 179520, Note_off_c, 6, 58, 95
3, 179520, Pitch_bend_c, 7, 8192
3, 179520, Note_on_c, 7, 58, 95
3, 179563, Pitch_bend_c, 7, 8320
3, 179606, Pitch_bend_c, 7, 8448
3, 179649, Pitch_bend_c, 7, 8576
3, 179692, Pitch_bend_c, 7, 8704
3, 179735, Pitch_bend_c, 7, 8832
3, 179778, Pitch_bend_c, 7, 8960
3, 179821, Pitch_bend_c, 7, 9088
3, 179864, Pitch_bend_c, 7, 9216
3, 179907, Pitch_bend_c, 7, 9344
3, 179950, Pitch_bend_c, 7, 9472
3, 179993, Pitch_bend_c, 7, 9600
3, 180000, Pitch_bend_c, 7, 9600
3, 180480, Pitch_bend_c, 7, 9600
3, 180480, Pitch_bend_c, 7, 8192
3, 180480, Note_off_c, 7, 58, 95
3, 180480, Note_on_c, 6, 60, 95
3, 181440, Note_off_c, 6, 60, 95
3, 181440, Note_on_c, 6, 60, 95
3, 183840, Note_off_c, 6, 60, 95
3, 184000, Note_on_c, 6, 58, 95
3, 184320, Note_off_c, 6, 58, 95
3, 184320, Pitch_bend_c, 7, 8192
3, 184320, Note_on_c, 7, 58, 95
3, 184363, Pitch_bend_c, 7, 8320
3, 184406, Pitch_bend_c, 7, 8448
3, 184449, Pitch_bend_c, 7, 8576
3, 184492, Pitch_bend_c, 7, 8704
3, 184535, Pitch_bend_c, 7, 8832
3, 184578, Pitch_bend_c, 7, 8960
3, 184621, Pitch_bend_c, 7, 9088
3, 184664, Pitch_bend_c, 7, 9216
3, 184707, Pitch_bend_c, 7, 9344
3, 184750, Pitch_bend_c, 7, 9472
3, 184793, Pitch_bend_c, 7, 9600
3, 184800, Pitch_bend_c, 7, 9600
3, 185280, Pitch_bend_c, 7, 9600
3, 185280, Pitch_bend_c, 7, 8192
3, 185280, Note_off_c, 7, 58, 95
3, 185280, Note_on_c, 6, 60, 95
3, 186240, Note_off_c, 6, 60, 95
3, 186240, Note_on_c, 6, 60, 95
3, 187200, Note_off_c, 6, 60, 95
3, 187200, Note_on_c, 6, 60, 95
3, 190080, Note_off_c, 6, 60, 95
3, 190080, Note_on_c, 6, 58, 95
3, 191040, Note_off_c, 6, 58, 95
3, 191040, Note_on_c, 6, 60, 95
3, 192480, Note_off_c, 6, 60, 95
3, 192640, Note_on_c, 6, 62, 95
3, 192960, Note_off_c, 6, 62, 95
3, 192960, Note_on_c, 6, 62, 95
3, 193920, Note_off_c, 6, 62, 95
3, 193920, Note_on_c, 6, 60, 95
3, 194880, Note_off_c, 6, 60, 95
3, 194880, Note_on_c, 6, 58, 95
3, 195840, Note_off_c, 6, 58, 95
3, 195840, Note_on_c, 6, 57, 95
3, 197760, Note_off_c, 6, 57, 95
3, 206400, Note_on_c, 6, 57, 95
3, 206720, Note_off_c, 6, 57, 95
3, 206720, Note_on_c, 6, 57, 95
3, 207360, Note_off_c, 6, 57, 95
3, 207360, Note_on_c, 6, 57, 95
3, 208320, Note_off_c, 6, 57, 95
3, 208320, Note_on_c, 6, 57, 95
3, 209760, Note_off_c, 6, 57, 95
3, 209920, Note_on_c, 6, 60, 95
3, 210240, Note_off_c, 6, 60, 95
3, 210240, Note_on_c, 7, 65, 95
3, 210360, Pitch_bend_c, 7, 7936
3, 210480, Pitch_bend_c, 7, 7552
3, 210480, Pitch_bend_c, 7, 8192
3, 210480, Note_off_c, 7, 65, 95
3, 210480, Note_on_c, 6, 64, 95
3, 211200, Note_off_c, 6, 64, 95
3, 211200, Note_on_c, 6, 64, 95
3, 213120, Note_off_c, 6, 64, 95
3, 213120, Note_on_c, 6, 64, 95
3, 214080, Note_off_c, 6, 64, 95
3, 214080, Note_on_c, 7, 64, 95
3, 214200, Pitch_bend_c, 7, 8448
3, 214320, Pitch_bend_c, 7, 8832
3, 214320, Pitch_bend_c, 7, 8192
3, 214320, Note_off_c, 7, 64, 95
3, 214320, Note_on_c, 6, 65, 95
3, 214560, Note_off_c, 6, 65, 95
3, 215040, Note_on_c, 6, 60, 95
3, 216000, Note_off_c, 6, 60, 95
3, 216000, Note_on_c, 6, 57, 95
3, 217920, Note_off_c, 6, 57, 95
3, 218560, Note_on_c, 6, 57, 95
3, 218880, Note_off_c, 6, 57, 95
3, 218880, Note_on_c, 6, 57, 95
3, 219360, Note_off_c, 6, 57, 95
3, 219360, Note_on_c, 6, 57, 95
3, 221280, Note_off_c, 6, 57, 95
3, 221440, Note_on_c, 6, 57, 95
3, 221760, Note_off_c, 6, 57, 95
3, 221760, Note_on_c, 6, 57, 95
3, 223680, Note_off_c, 6, 57, 95
3, 223680, Note_on_c, 6, 60, 95
3, 224640, Note_off_c, 6, 60, 95
3, 224640, Note_on_c, 6, 60, 95
3, 227520, Note_off_c, 6, 60, 95
3, 230080, Note_on_c, 6, 55, 95
3, 230400, Note_off_c, 6, 55, 95
3, 230400, Note_on_c, 6, 57, 95
3, 231360, Note_off_c, 6, 57, 95
3, 231360, Note_on_c, 6, 60, 95
3, 232800, Note_off_c, 6, 60, 95
3, 232960, Note_on_c, 6, 62, 95
3, 233280, Note_off_c, 6, 62, 95
3, 233280, Note_on_c, 7, 65, 95
3, 233400, Pitch_bend_c, 7, 7936
3, 233520, Pitch_bend_c, 7, 7552
3, 233520, Pitch_bend_c, 7, 8192
3, 233520, Note_off_c, 7, 65, 95
3, 233520, Note_on_c, 6, 64, 95
3, 235200, Note_off_c, 6, 64, 95
3, 235200, Note_on_c, 6, 64, 95
3, 235840, Note_off_c, 6, 64, 95
3, 235840, Note_on_c, 6, 62, 95
3, 236160, Note_off_c, 6, 62, 95
3, 236160, Note_on_c, 6, 64, 95
3, 236800, Note_off_c, 6, 64, 95
3, 237120, Note_on_c, 6, 65, 95
3, 238080, Note_off_c, 6, 65, 95
3, 238080, Note_on_c, 6, 60, 95
3, 239040, Note_off_c, 6, 60, 95
3, 239040, Note_on_c, 6, 57, 95
3, 241440, Note_off_c, 6, 57, 95
3, 241600, Note_on_c, 6, 55, 95
3, 241920, Note_off_c, 6, 55, 95
3, 241920, Note_on_c, 6, 57, 95
3, 242880, Note_off_c, 6, 57, 95
3, 242880, Note_on_c, 6, 57, 95
3, 244320, Note_off_c, 6, 57, 95
3, 244440, Pitch_bend_c, 7, 8448
3, 244480, Note_on_c, 7, 55, 95
3, 244560, Pitch_bend_c, 7, 8832
3, 244680, Pitch_bend_c, 7, 9216
3, 244800, Pitch_bend_c, 7, 9600
3, 244800, Pitch_bend_c, 7, 8192
3, 244800, Note_off_c, 7, 55, 95
3, 244800, Note_on_c, 6, 57, 95
3, 245760, Note_on_c, 6, 57, 95
3, 245920, Note_off_c, 6, 57, 95
3, 246720, Note_off_c, 6, 57, 95
3, 246720, Note_on_c, 6, 60, 95
3, 247360, Note_off_c, 6, 60, 95
3, 247680, Note_on_c, 6, 60, 95
3, 250560, Note_off_c, 6, 60, 95
3, 259200, Note_on_c, 6, 58, 95
3, 262080, Note_off_c, 6, 58, 95
3, 262080, Note_on_c, 6, 58, 95
3, 264000, Note_off_c, 6, 58, 95
3, 264000, Note_on_c, 6, 57, 95
3, 264640, Note_off_c, 6, 57, 95
3, 264640, Note_on_c, 6, 55, 95
3, 264960, Note_off_c, 6, 55, 95
3, 264960, Note_on_c, 6, 55, 95
3, 265920, Note_off_c, 6, 55, 95
3, 265920, Pitch_bend_c, 7, 8192
3, 265920, Note_on_c, 7, 55, 95
3, 265963, Pitch_bend_c, 7, 8320
3, 266006, Pitch_bend_c, 7, 8448
3, 266049, Pitch_bend_c, 7, 8576
3, 266092, Pitch_bend_c, 7, 8704
3, 266135, Pitch_bend_c, 7, 8832
3, 266178, Pitch_bend_c, 7, 8960
3, 266221, Pitch_bend_c, 7, 9088
3, 266264, Pitch_bend_c, 7, 9216
3, 266307, Pitch_bend_c, 7, 9344
3, 266350, Pitch_bend_c, 7, 9472
3, 266393, Pitch_bend_c, 7, 9600
3, 266400, Pitch_bend_c, 7, 9600
3, 266880, Pitch_bend_c, 7, 9600
3, 266880, Pitch_bend_c, 7, 8192
3, 266880, Note_off_c, 7, 55, 95
3, 266880, Note_on_c, 6, 57, 95
3, 267840, Note_off_c, 6, 57, 95
3, 267840, Note_on_c, 6, 57, 95
3, 270720, Note_off_c, 6, 57, 95
3, 270720, Note_on_c, 7, 58, 95
3, 270840, Pitch_bend_c, 7, 8448
3, 270960, Pitch_bend_c, 7, 8832
3, 271080, Pitch_bend_c, 7, 9216
3, 271200, Pitch_bend_c, 7, 9600
3, 271200, Pitch_bend_c, 7, 8192
3, 271200, Note_off_c, 7, 58, 95
3, 271200, Note_on_c, 6, 60, 95
3, 273600, Note_off_c, 6, 60, 95
3, 273600, Note_on_c, 6, 60, 95
3, 276000, Note_off_c, 6, 60, 95
3, 276160, Note_on_c, 6, 55, 95
3, 276480, Note_off_c, 6, 55, 95
3, 276480, Note_on_c, 6, 58, 95
3, 277440, Note_off_c, 6, 58, 95
3, 277440, Pitch_bend_c, 7, 8192
3, 277440, Note_on_c, 7, 58, 95
3, 277483, Pitch_bend_c, 7, 8320
3, 277526, Pitch_bend_c, 7, 8448
3, 277569, Pitch_bend_c, 7, 8576
3, 277612, Pitch_bend_c, 7, 8704
3, 277655, Pitch_bend_c, 7, 8832
3, 277698, Pitch_bend_c, 7, 8960
3, 277741, Pitch_bend_c, 7, 9088
3, 277784, Pitch_bend_c, 7, 9216
3, 277827, Pitch_bend_c, 7, 9344
3, 277870, Pitch_bend_c, 7, 9472
3, 277913, Pitch_bend_c, 7, 9600
3, 277920, Pitch_bend_c, 7, 9600
3, 278400, Pitch_bend_c, 7, 9600
3, 278400, Pitch_bend_c, 7, 8192
3, 278400, Note_off_c, 7, 58, 95
3, 278400, Note_on_c, 6, 60, 95
3, 279360, Note_off_c, 6, 60, 95
3, 279360, Note_on_c, 6, 60, 95
3, 281760, Note_off_c, 6, 60, 95
3, 281920, Note_on_c, 6, 58, 95
3, 282240, Note_off_c, 6, 58, 95
3, 282240, Note_on_c, 6, 58, 95
3, 283200, Note_off_c, 6, 58, 95
3, 283200, Pitch_bend_c, 7, 8192
3, 283200, Note_on_c, 7, 58, 95
3, 283243, Pitch_bend_c, 7, 8320
3, 283286, Pitch_bend_c, 7, 8448
3, 283329, Pitch_bend_c, 7, 8576
3, 283372, Pitch_bend_c, 7, 8704
3, 283415, Pitch_bend_c, 7, 8832
3, 283458, Pitch_bend_c, 7, 8960
3, 283501, Pitch_bend_c, 7, 9088
3, 283544, Pitch_bend_c, 7, 9216
3, 283587, Pitch_bend_c, 7, 9344
3, 283630, Pitch_bend_c, 7, 9472
3, 283673, Pitch_bend_c, 7, 9600
3, 283680, Pitch_bend_c, 7, 9600
3, 284160, Pitch_bend_c, 7, 9600
3, 284160, Pitch_bend_c, 7, 8192
3, 284160, Note_off_c, 7, 58, 95
3, 284160, Note_on_c, 6, 60, 95
3, 285120, Note_off_c, 6, 60, 95
3, 285120, Note_on_c, 7, 60, 95
3, 285760, Note_off_c, 7, 60, 95
3, 288000, Note_on_c, 6, 58, 95
3, 288960, Note_off_c, 6, 58, 95
3, 288960, Note_on_c, 6, 60, 95
3, 290400, Note_off_c, 6, 60, 95
3, 290560, Note_on_c, 6, 62, 95
3, 290880, Note_off_c, 6, 62, 95
3, 290880, Note_on_c, 6, 62, 95
3, 291840, Note_off_c, 6, 62, 95
3, 291840, Note_on_c, 6, 60, 95
3, 292800, Note_off_c, 6, 60, 95
3, 292800, Note_on_c, 6, 58, 95
3, 293760, Note_off_c, 6, 58, 95
3, 293760, Note_on_c, 6, 57, 95
3, 295680, Note_off_c, 6, 57, 95
3, 403200, Note_on_c, 6, 57, 95
3, 406080, Note_off_c, 6, 57, 95
3, 406080, Note_on_c, 6, 57, 95
3, 408000, Note_off_c, 6, 57, 95
3, 408640, Note_on_c, 6, 55, 95
3, 408960, Note_off_c, 6, 55, 95
3, 408960, Note_on_c, 6, 57, 95
3, 409920, Note_off_c, 6, 57, 95
3, 409920, Note_on_c, 6, 57, 95
3, 410880, Note_off_c, 6, 57, 95
3, 410880, Note_on_c, 6, 60, 95
3, 411840, Note_off_c, 6, 60, 95
3, 411840, Note_on_c, 6, 60, 95
3, 413760, Note_off_c, 6, 60, 95
3, 414720, Note_on_c, 6, 57, 95
3, 417600, Note_off_c, 6, 57, 95
3, 417600, Note_on_c, 6, 57, 95
3, 419040, Note_off_c, 6, 57, 95
3, 420160, Note_on_c, 6, 55, 95
3, 420480, Note_off_c, 6, 55, 95
3, 420480, Note_on_c, 6, 57, 95
3, 421440, Note_off_c, 6, 57, 95
3, 421440, Note_on_c, 6, 57, 95
3, 422400, Note_off_c, 6, 57, 95
3, 422400, Note_on_c, 6, 60, 95
3, 423360, Note_off_c, 6, 60, 95
3, 423360, Note_on_c, 6, 60, 95
3, 425280, Note_off_c, 6, 60, 95
3, 426240, Note_on_c, 6, 57, 95
3, 429120, Note_off_c, 6, 57, 95
3, 429120, Note_on_c, 6, 57, 95
3, 431040, Note_off_c, 6, 57, 95
3, 431680, Note_on_c, 6, 55, 95
3, 432000, Note_off_c, 6, 55, 95
3, 432000, Note_on_c, 6, 57, 95
3, 432960, Note_off_c, 6, 57, 95
3, 432960, Note_on_c, 6, 57, 95
3, 433920, Note_off_c, 6, 57, 95
3, 433920, Note_on_c, 6, 60, 95
3, 434880, Note_off_c, 6, 60, 95
3, 434880, Note_on_c, 6, 60, 95
3, 436800, Note_off_c, 6, 60, 95
3, 437760, Note_on_c, 6, 57, 95
3, 440640, Note_off_c, 6, 57, 95
3, 440640, Note_on_c, 6, 57, 95
3, 442080, Note_off_c, 6, 57, 95
3, 443200, Note_on_c, 6, 55, 95
3, 443520, Note_off_c, 6, 55, 95
3, 443520, Note_on_c, 6, 57, 95
3, 444480, Note_off_c, 6, 57, 95
3, 444480, Note_on_c, 6, 57, 95
3, 445440, Note_off_c, 6, 57, 95
3, 445440, Note_on_c, 6, 60, 95
3, 446400, Note_off_c, 6, 60, 95
3, 446400, Note_on_c, 6, 60, 95
3, 448320, Note_off_c, 6, 60, 95
3, 448320, Note_on_c, 7, 60, 95
3, 448440, Pitch_bend_c, 7, 7936
3, 448560, Pitch_bend_c, 7, 7680
3, 448680, Pitch_bend_c, 7, 7424
3, 448800, Pitch_bend_c, 7, 7168
3, 448920, Pitch_bend_c, 7, 6912
3, 449040, Pitch_bend_c, 7, 6656
3, 449160, Pitch_bend_c, 7, 6400
3, 449280, Pitch_bend_c, 7, 6144
3, 449280, Pitch_bend_c, 7, 8192
3, 449280, Note_off_c, 7, 60, 95
3, 449280, Note_on_c, 6, 57, 95
3, 451680, Note_off_c, 6, 57, 95
3, 451680, End_track
4, 0, Start_track
4, 0, Pitch_bend_c, 14, 8192
4, 0, Control_c, 14, 7, 119
4, 0, Control_c, 14, 10, 63
4, 0, Control_c, 14, 93, 31
4, 0, Control_c, 14, 91, 127
4, 0, Control_c, 14, 95, 0
4, 0, Control_c, 14, 92, 0
4, 0, Control_c, 14, 11, 127
4, 0, Program_c, 14, 33
4, 0, Control_c, 15, 7, 119
4, 0, Control_c, 15, 10, 63
4, 0, Control_c, 15, 93, 31
4, 0, Control_c, 15, 91, 127
4, 0, Control_c, 15, 95, 0
4, 0, Control_c, 15, 92, 0
4, 0, Control_c, 15, 11, 127
4, 0, Program_c, 15, 33
4, 0, Note_on_c, 14, 41, 95
4, 1600, Note_on_c, 14, 48, 95
4, 1920, Note_off_c, 14, 41, 95
4, 1920, Note_on_c, 14, 41, 95
4, 2400, Note_off_c, 14, 48, 95
4, 2560, Note_on_c, 14, 48, 95
4, 2880, Note_off_c, 14, 48, 95
4, 2880, Note_on_c, 14, 36, 95
4, 3040, Note_off_c, 14, 41, 95
4, 4480, Note_on_c, 14, 43, 95
4, 4800, Note_off_c, 14, 36, 95
4, 4800, Note_on_c, 14, 36, 95
4, 5280, Note_off_c, 14, 43, 95
4, 5440, Note_on_c, 14, 43, 95
4, 5760, Note_off_c, 14, 43, 95
4, 5760, Note_on_c, 14, 41, 95
4, 5920, Note_off_c, 14, 36, 95
4, 7360, Note_on_c, 14, 48, 95
4, 7680, Note_off_c, 14, 41, 95
4, 7680, Note_on_c, 14, 41, 95
4, 8160, Note_off_c, 14, 48, 95
4, 8320, Note_on_c, 14, 48, 95
4, 8640, Note_off_c, 14, 48, 95
4, 8640, Note_on_c, 14, 36, 95
4, 8800, Note_off_c, 14, 41, 95
4, 9600, Note_off_c, 14, 36, 95
4, 9600, Note_on_c, 14, 38, 95
4, 10560, Note_off_c, 14, 38, 95
4, 10560, Note_on_c, 14, 40, 95
4, 11520, Note_off_c, 14, 40, 95
4, 11520, Note_on_c, 14, 41, 95
4, 13120, Note_on_c, 14, 48, 95
4, 13440, Note_off_c, 14, 41, 95
4, 13440, Note_on_c, 14, 41, 95
4, 13920, Note_off_c, 14, 48, 95
4, 14080, Note_on_c, 14, 48, 95
4, 14400, Note_off_c, 14, 48, 95
4, 14400, Note_on_c, 14, 36, 95
4, 14560, Note_off_c, 14, 41, 95
4, 16000, Note_on_c, 14, 43, 95
4, 16320, Note_off_c, 14, 36, 95
4, 16320, Note_on_c, 14, 36, 95
4, 16800, Note_off_c, 14, 43, 95
4, 16960, Note_on_c, 14, 43, 95
4, 17280, Note_off_c, 14, 43, 95
4, 17280, Note_on_c, 14, 41, 95
4, 17440, Note_off_c, 14, 36, 95
4, 18880, Note_on_c, 14, 48, 95
4, 19200, Note_off_c, 14, 41, 95
4, 19200, Note_on_c, 14, 41, 95
4, 19680, Note_off_c, 14, 48, 95
4, 19840, Note_on_c, 14, 48, 95
4, 20160, Note_off_c, 14, 48, 95
4, 20160, Note_on_c, 14, 36, 95
4, 20320, Note_off_c, 14, 41, 95
4, 21760, Note_on_c, 14, 43, 95
4, 22080, Note_off_c, 14, 36, 95
4, 22080, Note_on_c, 14, 36, 95
4, 22560, Note_off_c, 14, 43, 95
4, 22720, Note_on_c, 14, 43, 95
4, 23040, Note_off_c, 14, 43, 95
4, 23040, Note_on_c, 14, 41, 95
4, 23200, Note_off_c, 14, 36, 95
4, 24640, Note_on_c, 14, 48, 95
4, 24960, Note_off_c, 14, 41, 95
4, 24960, Note_on_c, 14, 41, 95
4, 25440, Note_off_c, 14, 48, 95
4, 25600, Note_on_c, 14, 48, 95
4, 25920, Note_off_c, 14, 48, 95
4, 25920, Note_on_c, 14, 36, 95
4, 26080, Note_off_c, 14, 41, 95
4, 27520, Note_on_c, 14, 43, 95
4, 27840, Note_off_c, 14, 36, 95
4, 27840, Note_on_c, 14, 36, 95
4, 28320, Note_off_c, 14, 43, 95
4, 28480, Note_on_c, 14, 43, 95
4, 28800, Note_off_c, 14, 43, 95
4, 28800, Note_on_c, 14, 41, 95
4, 28960, Note_off_c, 14, 36, 95
4, 30400, Note_on_c, 14, 48, 95
4, 30720, Note_off_c, 14, 41, 95
4, 30720, Note_on_c, 14, 41, 95
4, 31200, Note_off_c, 14, 48, 95
4, 31360, Note_on_c, 14, 48, 95
4, 31680, Note_off_c, 14, 48, 95
4, 31680, Note_on_c, 14, 36, 95
4, 31840, Note_off_c, 14, 41, 95
4, 33280, Note_on_c, 14, 43, 95
4, 33600, Note_off_c, 14, 36, 95
4, 33600, Note_on_c, 14, 36, 95
4, 34080, Note_off_c, 14, 43, 95
4, 34240, Note_on_c, 14, 43, 95
4, 34560, Note_off_c, 14, 43, 95
4, 34560, Note_on_c, 14, 41, 95
4, 34720, Note_off_c, 14, 36, 95
4, 36160, Note_on_c, 14, 48, 95
4, 36480, Note_off_c, 14, 41, 95
4, 36480, Note_on_c, 14, 41, 95
4, 36960, Note_off_c, 14, 48, 95
4, 37120, Note_on_c, 14, 48, 95
4, 37440, Note_off_c, 14, 48, 95
4, 37440, Note_on_c, 14, 36, 95
4, 37600, Note_off_c, 14, 41, 95
4, 39040, Note_on_c, 14, 43, 95
4, 39360, Note_off_c, 14, 36, 95
4, 39360, Note_on_c, 14, 36, 95
4, 39840, Note_off_c, 14, 43, 95
4, 40000, Note_on_c, 14, 43, 95
4, 40320, Note_off_c, 14, 43, 95
4, 40320, Note_on_c, 14, 41, 95
4, 40480, Note_off_c, 14, 36, 95
4, 41920, Note_on_c, 14, 48, 95
4, 42240, Note_off_c, 14, 41, 95
4, 42240, Note_on_c, 14, 41, 95
4, 42720, Note_off_c, 14, 48, 95
4, 42880, Note_on_c, 14, 48, 95
4, 43200, Note_off_c, 14, 48, 95
4, 43200, Note_on_c, 14, 36, 95
4, 43360, Note_off_c, 14, 41, 95
4, 44800, Note_on_c, 14, 43, 95
4, 45120, Note_off_c, 14, 36, 95
4, 45120, Note_on_c, 14, 36, 95
4, 45600, Note_off_c, 14, 43, 95
4, 45760, Note_on_c, 14, 43, 95
4, 46080, Note_off_c, 14, 43, 95
4, 46080, Note_on_c, 14, 41, 95
4, 46240, Note_off_c, 14, 36, 95
4, 47680, Note_on_c, 14, 48, 95
4, 48000, Note_off_c, 14, 41, 95
4, 48000, Note_on_c, 14, 41, 95
4, 48480, Note_off_c, 14, 48, 95
4, 48640, Note_on_c, 14, 48, 95
4, 48960, Note_off_c, 14, 48, 95
4, 48960, Note_on_c, 14, 36, 95
4, 49120, Note_off_c, 14, 41, 95
4, 50560, Note_on_c, 14, 43, 95
4, 50880, Note_off_c, 14, 36, 95
4, 50880, Note_on_c, 14, 36, 95
4, 51360, Note_off_c, 14, 43, 95
4, 51520, Note_on_c, 14, 43, 95
4, 51840, Note_off_c, 14, 43, 95
4, 51840, Note_on_c, 14, 36, 95
4, 52000, Note_off_c, 14, 36, 95
4, 53440, Note_on_c, 14, 43, 95
4, 53760, Note_off_c, 14, 36, 95
4, 53760, Note_on_c, 14, 36, 95
4, 54240, Note_off_c, 14, 43, 95
4, 54400, Note_on_c, 14, 43, 95
4, 54720, Note_off_c, 14, 43, 95
4, 54720, Note_on_c, 14, 31, 95
4, 54880, Note_off_c, 14, 36, 95
4, 56640, Note_off_c, 14, 31, 95
4, 56640, Note_on_c, 14, 31, 95
4, 57600, Note_off_c, 14, 31, 95
4, 57600, Note_on_c, 14, 36, 95
4, 59200, Note_on_c, 14, 43, 95
4, 59520, Note_off_c, 14, 36, 95
4, 59520, Note_on_c, 14, 36, 95
4, 60000, Note_off_c, 14, 43, 95
4, 60160, Note_on_c, 14, 43, 95
4, 60480, Note_off_c, 14, 43, 95
4, 60480, Note_on_c, 14, 31, 95
4, 60640, Note_off_c, 14, 36, 95
4, 61920, Note_off_c, 14, 31, 95
4, 61920, Note_on_c, 14, 31, 95
4, 62880, Note_off_c, 14, 31, 95
4, 63040, Note_on_c, 14, 31, 95
4, 63360, Note_off_c, 14, 31, 95
4, 63360, Note_on_c, 15, 34, 95
4, 63480, Pitch_bend_c, 15, 8192
4, 63600, Pitch_bend_c, 15, 8192
4, 63720, Pitch_bend_c, 15, 8192
4, 63840, Pitch_bend_c, 15, 8192
4, 63960, Pitch_bend_c, 15, 8192
4, 64080, Pitch_bend_c, 15, 8192
4, 64200, Pitch_bend_c, 15, 8192
4, 64320, Pitch_bend_c, 15, 8192
4, 64320, Pitch_bend_c, 15, 8192
4, 64960, Note_on_c, 14, 41, 95
4, 65280, Note_off_c, 15, 34, 95
4, 65280, Note_on_c, 14, 34, 95
4, 65760, Note_off_c, 14, 41, 95
4, 65920, Note_on_c, 14, 41, 95
4, 66240, Note_off_c, 14, 41, 95
4, 66240, Note_on_c, 14, 46, 95
4, 66400, Note_off_c, 14, 34, 95
4, 67840, Note_on_c, 14, 53, 95
4, 68160, Note_off_c, 14, 46, 95
4, 68160, Note_on_c, 14, 46, 95
4, 68640, Note_off_c, 14, 53, 95
4, 68800, Note_on_c, 14, 53, 95
4, 69120, Note_off_c, 14, 53, 95
4, 69120, Note_on_c, 14, 43, 95
4, 69280, Note_off_c, 14, 46, 95
4, 70720, Note_on_c, 14, 50, 95
4, 71040, Note_off_c, 14, 43, 95
4, 71040, Note_on_c, 14, 43, 95
4, 71520, Note_off_c, 14, 50, 95
4, 71680, Note_on_c, 14, 50, 95
4, 72000, Note_off_c, 14, 50, 95
4, 72000, Note_on_c, 14, 38, 95
4, 72160, Note_off_c, 14, 43, 95
4, 73600, Note_on_c, 14, 45, 95
4, 73920, Note_off_c, 14, 38, 95
4, 73920, Note_on_c, 14, 38, 95
4, 74400, Note_off_c, 14, 45, 95
4, 74560, Note_on_c, 14, 45, 95
4, 74880, Note_off_c, 14, 45, 95
4, 74880, Note_on_c, 14, 36, 95
4, 75040, Note_off_c, 14, 38, 95
4, 76480, Note_on_c, 14, 43, 95
4, 76800, Note_off_c, 14, 36, 95
4, 76800, Note_on_c, 14, 36, 95
4, 77280, Note_off_c, 14, 43, 95
4, 77400, Pitch_bend_c, 15, 8448
4, 77440, Note_on_c, 15, 43, 95
4, 77520, Pitch_bend_c, 15, 8832
4, 77640, Pitch_bend_c, 15, 9216
4, 77760, Pitch_bend_c, 15, 9600
4, 77760, Pitch_bend_c, 15, 8192
4, 77760, Note_off_c, 15, 43, 95
4, 77760, Note_on_c, 14, 45, 95
4, 77920, Note_off_c, 14, 36, 95
4, 79200, Note_off_c, 14, 45, 95
4, 79360, Note_on_c, 14, 45, 95
4, 79680, Note_off_c, 14, 45, 95
4, 79680, Note_on_c, 15, 45, 95
4, 79800, Pitch_bend_c, 15, 7936
4, 79920, Pitch_bend_c, 15, 7552
4, 80040, Pitch_bend_c, 15, 7168
4, 80160, Pitch_bend_c, 15, 6784
4, 80160, Pitch_bend_c, 15, 8192
4, 80320, Note_off_c, 15, 45, 95
4, 80320, Note_on_c, 14, 43, 95
4, 80640, Note_off_c, 14, 43, 95
4, 80640, Note_on_c, 14, 43, 95
4, 82240, Note_on_c, 14, 50, 95
4, 82560, Note_off_c, 14, 43, 95
4, 82560, Note_on_c, 14, 43, 95
4, 83040, Note_off_c, 14, 50, 95
4, 83200, Note_on_c, 14, 50, 95
4, 83520, Note_off_c, 14, 50, 95
4, 83520, Note_on_c, 14, 36, 95
4, 83680, Note_off_c, 14, 43, 95
4, 85120, Note_on_c, 14, 43, 95
4, 85440, Note_off_c, 14, 36, 95
4, 85440, Note_on_c, 14, 36, 95
4, 85920, Note_off_c, 14, 43, 95
4, 86080, Note_on_c, 14, 43, 95
4, 86400, Note_off_c, 14, 43, 95
4, 86400, Note_on_c, 14, 36, 95
4, 86560, Note_off_c, 14, 36, 95
4, 88000, Note_on_c, 14, 43, 95
4, 88320, Note_off_c, 14, 36, 95
4, 88320, Note_on_c, 14, 36, 95
4, 88800, Note_off_c, 14, 43, 95
4, 88960, Note_on_c, 14, 43, 95
4, 89280, Note_off_c, 14, 43, 95
4, 89280, Note_on_c, 14, 43, 95
4, 89440, Note_off_c, 14, 36, 95
4, 90880, Note_on_c, 14, 48, 95
4, 91200, Note_off_c, 14, 43, 95
4, 91200, Note_on_c, 14, 43, 95
4, 91680, Note_off_c, 14, 48, 95
4, 91840, Note_on_c, 14, 48, 95
4, 92160, Note_off_c, 14, 48, 95
4, 92160, Note_on_c, 14, 36, 95
4, 92320, Note_off_c, 14, 43, 95
4, 93760, Note_on_c, 14, 43, 95
4, 94080, Note_off_c, 14, 36, 95
4, 94080, Note_on_c, 14, 36, 95
4, 94560, Note_off_c, 14, 43, 95
4, 94720, Note_on_c, 14, 43, 95
4, 95040, Note_off_c, 14, 43, 95
4, 95040, Note_on_c, 14, 36, 95
4, 95200, Note_off_c, 14, 36, 95
4, 96000, Note_off_c, 14, 36, 95
4, 96000, Note_on_c, 14, 38, 95
4, 96960, Note_off_c, 14, 38, 95
4, 96960, Note_on_c, 14, 40, 95
4, 97920, Note_off_c, 14, 40, 95
4, 97920, Note_on_c, 14, 41, 95
4, 99520, Note_on_c, 14, 48, 95
4, 99840, Note_off_c, 14, 41, 95
4, 99840, Note_on_c, 14, 41, 95
4, 100320, Note_off_c, 14, 48, 95
4, 100480, Note_on_c, 14, 48, 95
4, 100800, Note_off_c, 14, 48, 95
4, 100800, Note_on_c, 14, 36, 95
4, 100960, Note_off_c, 14, 41, 95
4, 102400, Note_on_c, 14, 43, 95
4, 102720, Note_off_c, 14, 36, 95
4, 102720, Note_on_c, 14, 36, 95
4, 103200, Note_off_c, 14, 43, 95
4, 103360, Note_on_c, 14, 43, 95
4, 103680, Note_off_c, 14, 43, 95
4, 103680, Note_on_c, 14, 41, 95
4, 103840, Note_off_c, 14, 36, 95
4, 105280, Note_on_c, 14, 48, 95
4, 105600, Note_off_c, 14, 41, 95
4, 105600, Note_on_c, 14, 41, 95
4, 106080, Note_off_c, 14, 48, 95
4, 106240, Note_on_c, 14, 48, 95
4, 106560, Note_off_c, 14, 48, 95
4, 106560, Note_on_c, 14, 36, 95
4, 106720, Note_off_c, 14, 41, 95
4, 107520, Note_off_c, 14, 36, 95
4, 107520, Note_on_c, 14, 38, 95
4, 108480, Note_off_c, 14, 38, 95
4, 108480, Note_on_c, 14, 40, 95
4, 109440, Note_off_c, 14, 40, 95
4, 109440, Note_on_c, 14, 41, 95
4, 111040, Note_on_c, 14, 48, 95
4, 111360, Note_off_c, 14, 41, 95
4, 111360, Note_on_c, 14, 41, 95
4, 111840, Note_off_c, 14, 48, 95
4, 112000, Note_on_c, 14, 48, 95
4, 112320, Note_off_c, 14, 48, 95
4, 112320, Note_on_c, 14, 36, 95
4, 112480, Note_off_c, 14, 41, 95
4, 113920, Note_on_c, 14, 43, 95
4, 114240, Note_off_c, 14, 36, 95
4, 114240, Note_on_c, 14, 36, 95
4, 114720, Note_off_c, 14, 43, 95
4, 114880, Note_on_c, 14, 43, 95
4, 115200, Note_off_c, 14, 43, 95
4, 115200, Note_on_c, 14, 41, 95
4, 115360, Note_off_c, 14, 36, 95
4, 116800, Note_on_c, 14, 48, 95
4, 117120, Note_off_c, 14, 41, 95
4, 117120, Note_on_c, 14, 41, 95
4, 117600, Note_off_c, 14, 48, 95
4, 117760, Note_on_c, 14, 48, 95
4, 118080, Note_off_c, 14, 48, 95
4, 118080, Note_on_c, 14, 36, 95
4, 118240, Note_off_c, 14, 41, 95
4, 119680, Note_on_c, 14, 43, 95
4, 120000, Note_off_c, 14, 36, 95
4, 120000, Note_on_c, 14, 36, 95
4, 120480, Note_off_c, 14, 43, 95
4, 120640, Note_on_c, 14, 43, 95
4, 120960, Note_off_c, 14, 43, 95
4, 120960, Note_on_c, 14, 41, 95
4, 121120, Note_off_c, 14, 36, 95
4, 122560, Note_on_c, 14, 48, 95
4, 122880, Note_off_c, 14, 41, 95
4, 122880, Note_on_c, 14, 41, 95
4, 123360, Note_off_c, 14, 48, 95
4, 123520, Note_on_c, 14, 48, 95
4, 123840, Note_off_c, 14, 48, 95
4, 123840, Note_on_c, 14, 36, 95
4, 124000, Note_off_c, 14, 41, 95
4, 125440, Note_on_c, 14, 43, 95
4, 125760, Note_off_c, 14, 36, 95
4, 125760, Note_on_c, 14, 36, 95
4, 126240, Note_off_c, 14, 43, 95
4, 126400, Note_on_c, 14, 43, 95
4, 126720, Note_off_c, 14, 43, 95
4, 126720, Note_on_c, 14, 41, 95
4, 126880, Note_off_c, 14, 36, 95
4, 128320, Note_on_c, 14, 48, 95
4, 128640, Note_off_c, 14, 41, 95
4, 128640, Note_on_c, 14, 41, 95
4, 129120, Note_off_c, 14, 48, 95
4, 129280, Note_on_c, 14, 48, 95
4, 129600, Note_off_c, 14, 48, 95
4, 129600, Note_on_c, 14, 36, 95
4, 129760, Note_off_c, 14, 41, 95
4, 131200, Note_on_c, 14, 43, 95
4, 131520, Note_off_c, 14, 36, 95
4, 131520, Note_on_c, 14, 36, 95
4, 132000, Note_off_c, 14, 43, 95
4, 132160, Note_on_c, 14, 43, 95
4, 132480, Note_off_c, 14, 43, 95
4, 132480, Note_on_c, 14, 41, 95
4, 132640, Note_off_c, 14, 36, 95
4, 134080, Note_on_c, 14, 48, 95
4, 134400, Note_off_c, 14, 41, 95
4, 134400, Note_on_c, 14, 41, 95
4, 134880, Note_off_c, 14, 48, 95
4, 135040, Note_on_c, 14, 48, 95
4, 135360, Note_off_c, 14, 48, 95
4, 135360, Note_on_c, 14, 36, 95
4, 135520, Note_off_c, 14, 41, 95
4, 136960, Note_on_c, 14, 43, 95
4, 137280, Note_off_c, 14, 36, 95
4, 137280, Note_on_c, 14, 36, 95
4, 137760, Note_off_c, 14, 43, 95
4, 137920, Note_on_c, 14, 43, 95
4, 138240, Note_off_c, 14, 43, 95
4, 138240, Note_on_c, 14, 41, 95
4, 138400, Note_off_c, 14, 36, 95
4, 139840, Note_on_c, 14, 48, 95
4, 140160, Note_off_c, 14, 41, 95
4, 140160, Note_on_c, 14, 41, 95
4, 140640, Note_off_c, 14, 48, 95
4, 140800, Note_on_c, 14, 48, 95
4, 141120, Note_off_c, 14, 48, 95
4, 141120, Note_on_c, 14, 36, 95
4, 141280, Note_off_c, 14, 41, 95
4, 142720, Note_on_c, 14, 43, 95
4, 143040, Note_off_c, 14, 36, 95
4, 143040, Note_on_c, 14, 36, 95
4, 143520, Note_off_c, 14, 43, 95
4, 143680, Note_on_c, 14, 43, 95
4, 144000, Note_off_c, 14, 43, 95
4, 144000, Note_on_c, 14, 41, 95
4, 144160, Note_off_c, 14, 36, 95
4, 145600, Note_on_c, 14, 48, 95
4, 145920, Note_off_c, 14, 41, 95
4, 145920, Note_on_c, 14, 41, 95
4, 146400, Note_off_c, 14, 48, 95
4, 146560, Note_on_c, 14, 48, 95
4, 146880, Note_off_c, 14, 48, 95
4, 146880, Note_on_c, 14, 36, 95
4, 147040, Note_off_c, 14, 41, 95
4, 148480, Note_on_c, 14, 43, 95
4, 148800, Note_off_c, 14, 36, 95
4, 148800, Note_on_c, 14, 36, 95
4, 149280, Note_off_c, 14, 43, 95
4, 149440, Note_on_c, 14, 43, 95
4, 149760, Note_off_c, 14, 43, 95
4, 149760, Note_on_c, 14, 36, 95
4, 149920, Note_off_c, 14, 36, 95
4, 151360, Note_on_c, 14, 43, 95
4, 151680, Note_off_c, 14, 36, 95
4, 151680, Note_on_c, 14, 36, 95
4, 152160, Note_off_c, 14, 43, 95
4, 152320, Note_on_c, 14, 43, 95
4, 152640, Note_off_c, 14, 43, 95
4, 152640, Note_on_c, 14, 31, 95
4, 152800, Note_off_c, 14, 36, 95
4, 154560, Note_off_c, 14, 31, 95
4, 154560, Note_on_c, 14, 31, 95
4, 155520, Note_off_c, 14, 31, 95
4, 155520, Note_on_c, 14, 36, 95
4, 157120, Note_on_c, 14, 43, 95
4, 157440, Note_off_c, 14, 36, 95
4, 157440, Note_on_c, 14, 36, 95
4, 157920, Note_off_c, 14, 43, 95
4, 158080, Note_on_c, 14, 43, 95
4, 158400, Note_off_c, 14, 43, 95
4, 158400, Note_on_c, 14, 31, 95
4, 158560, Note_off_c, 14, 36, 95
4, 160320, Note_off_c, 14, 31, 95
4, 160320, Note_on_c, 14, 31, 95
4, 161280, Note_off_c, 14, 31, 95
4, 161280, Note_on_c, 15, 34, 95
4, 161400, Pitch_bend_c, 15, 8192
4, 161520, Pitch_bend_c, 15, 8192
4, 161640, Pitch_bend_c, 15, 8192
4, 161760, Pitch_bend_c, 15, 8192
4, 161880, Pitch_bend_c, 15, 8192
4, 162000, Pitch_bend_c, 15, 8192
4, 162120, Pitch_bend_c, 15, 8192
4, 162240, Pitch_bend_c, 15, 8192
4, 162240, Pitch_bend_c, 15, 8192
4, 162880, Note_on_c, 14, 41, 95
4, 163200, Note_off_c, 15, 34, 95
4, 163200, Note_on_c, 14, 34, 95
4, 163680, Note_off_c, 14, 41, 95
4, 163840, Note_on_c, 14, 41, 95
4, 164160, Note_off_c, 14, 41, 95
4, 164160, Note_on_c, 14, 46, 95
4, 164320, Note_off_c, 14, 34, 95
4, 165760, Note_on_c, 14, 53, 95
4, 166080, Note_off_c, 14, 46, 95
4, 166080, Note_on_c, 14, 46, 95
4, 166560, Note_off_c, 14, 53, 95
4, 166720, Note_on_c, 14, 53, 95
4, 167040, Note_off_c, 14, 53, 95
4, 167040, Note_on_c, 14, 43, 95
4, 167200, Note_off_c, 14, 46, 95
4, 168640, Note_on_c, 14, 50, 95
4, 168960, Note_off_c, 14, 43, 95
4, 168960, Note_on_c, 14, 43, 95
4, 169440, Note_off_c, 14, 50, 95
4, 169600, Note_on_c, 14, 50, 95
4, 169920, Note_off_c, 14, 50, 95
4, 169920, Note_on_c, 14, 38, 95
4, 170080, Note_off_c, 14, 43, 95
4, 171520, Note_on_c, 14, 45, 95
4, 171840, Note_off_c, 14, 38, 95
4, 171840, Note_on_c, 14, 38, 95
4, 172320, Note_off_c, 14, 45, 95
4, 172480, Note_on_c, 14, 45, 95
4, 172800, Note_off_c, 14, 45, 95
4, 172800, Note_on_c, 14, 36, 95
4, 172960, Note_off_c, 14, 38, 95
4, 174400, Note_on_c, 14, 43, 95
4, 174720, Note_off_c, 14, 36, 95
4, 174720, Note_on_c, 14, 36, 95
4, 175200, Note_off_c, 14, 43, 95
4, 175320, Pitch_bend_c, 15, 8448
4, 175360, Note_on_c, 15, 43, 95
4, 175440, Pitch_bend_c, 15, 8832
4, 175560, Pitch_bend_c, 15, 9216
4, 175680, Pitch_bend_c, 15, 9600
4, 175680, Pitch_bend_c, 15, 8192
4, 175680, Note_off_c, 15, 43, 95
4, 175680, Note_on_c, 14, 45, 95
4, 175840, Note_off_c, 14, 36, 95
4, 177120, Note_off_c, 14, 45, 95
4, 177280, Note_on_c, 14, 45, 95
4, 177600, Note_off_c, 14, 45, 95
4, 177600, Note_on_c, 15, 45, 95
4, 177720, Pitch_bend_c, 15, 7936
4, 177840, Pitch_bend_c, 15, 7552
4, 177960, Pitch_bend_c, 15, 7168
4, 178080, Pitch_bend_c, 15, 6784
4, 178080, Pitch_bend_c, 15, 8192
4, 178240, Note_off_c, 15, 45, 95
4, 178240, Note_on_c, 14, 43, 95
4, 178560, Note_off_c, 14, 43, 95
4, 178560, Note_on_c, 14, 43, 95
4, 180160, Note_on_c, 14, 50, 95
4, 180480, Note_off_c, 14, 43, 95
4, 180480, Note_on_c, 14, 43, 95
4, 180960, Note_off_c, 14, 50, 95
4, 181120, Note_on_c, 14, 50, 95
4, 181440, Note_off_c, 14, 50, 95
4, 181440, Note_on_c, 14, 36, 95
4, 181600, Note_off_c, 14, 43, 95
4, 183040, Note_on_c, 14, 43, 95
4, 183360, Note_off_c, 14, 36, 95
4, 183360, Note_on_c, 14, 36, 95
4, 183840, Note_off_c, 14, 43, 95
4, 184000, Note_on_c, 14, 43, 95
4, 184320, Note_off_c, 14, 43, 95
4, 184320, Note_on_c, 14, 36, 95
4, 184480, Note_off_c, 14, 36, 95
4, 185920, Note_on_c, 14, 43, 95
4, 186240, Note_off_c, 14, 36, 95
4, 186240, Note_on_c, 14, 36, 95
4, 186720, Note_off_c, 14, 43, 95
4, 186880, Note_on_c, 14, 43, 95
4, 187200, Note_off_c, 14, 43, 95
4, 187200, Note_on_c, 14, 43, 95
4, 187360, Note_off_c, 14, 36, 95
4, 188800, Note_on_c, 14, 48, 95
4, 189120, Note_off_c, 14, 43, 95
4, 189120, Note_on_c, 14, 43, 95
4, 189600, Note_off_c, 14, 48, 95
4, 189760, Note_on_c, 14, 48, 95
4, 190080, Note_off_c, 14, 48, 95
4, 190080, Note_on_c, 14, 36, 95
4, 190240, Note_off_c, 14, 43, 95
4, 191680, Note_on_c, 14, 43, 95
4, 192000, Note_off_c, 14, 36, 95
4, 192000, Note_on_c, 14, 36, 95
4, 192480, Note_off_c, 14, 43, 95
4, 192640, Note_on_c, 14, 43, 95
4, 192960, Note_off_c, 14, 43, 95
4, 192960, Note_on_c, 14, 36, 95
4, 193120, Note_off_c, 14, 36, 95
4, 193920, Note_off_c, 14, 36, 95
4, 193920, Note_on_c, 14, 38, 95
4, 194880, Note_off_c, 14, 38, 95
4, 194880, Note_on_c, 14, 40, 95
4, 195840, Note_off_c, 14, 40, 95
4, 195840, Note_on_c, 14, 41, 95
4, 197440, Note_on_c, 14, 48, 95
4, 197760, Note_off_c, 14, 41, 95
4, 197760, Note_on_c, 14, 41, 95
4, 198240, Note_off_c, 14, 48, 95
4, 198400, Note_on_c, 14, 48, 95
4, 198720, Note_off_c, 14, 48, 95
4, 198720, Note_on_c, 14, 36, 95
4, 198880, Note_off_c, 14, 41, 95
4, 200320, Note_on_c, 14, 43, 95
4, 200640, Note_off_c, 14, 36, 95
4, 200640, Note_on_c, 14, 36, 95
4, 201120, Note_off_c, 14, 43, 95
4, 201280, Note_on_c, 14, 43, 95
4, 201600, Note_off_c, 14, 43, 95
4, 201600, Note_on_c, 14, 41, 95
4, 201760, Note_off_c, 14, 36, 95
4, 203200, Note_on_c, 14, 48, 95
4, 203520, Note_off_c, 14, 41, 95
4, 203520, Note_on_c, 14, 41, 95
4, 204000, Note_off_c, 14, 48, 95
4, 204160, Note_on_c, 14, 48, 95
4, 204480, Note_off_c, 14, 48, 95
4, 204480, Note_on_c, 14, 36, 95
4, 204640, Note_off_c, 14, 41, 95
4, 205440, Note_off_c, 14, 36, 95
4, 205440, Note_on_c, 14, 38, 95
4, 206400, Note_off_c, 14, 38, 95
4, 206400, Note_on_c, 14, 40, 95
4, 207360, Note_off_c, 14, 40, 95
4, 207360, Note_on_c, 14, 41, 95
4, 208960, Note_on_c, 14, 48, 95
4, 209280, Note_off_c, 14, 41, 95
4, 209280, Note_on_c, 14, 41, 95
4, 209760, Note_off_c, 14, 48, 95
4, 209920, Note_on_c, 14, 48, 95
4, 210240, Note_off_c, 14, 48, 95
4, 210240, Note_on_c, 14, 36, 95
4, 210400, Note_off_c, 14, 41, 95
4, 211840, Note_on_c, 14, 43, 95
4, 212160, Note_off_c, 14, 36, 95
4, 212160, Note_on_c, 14, 36, 95
4, 212640, Note_off_c, 14, 43, 95
4, 212800, Note_on_c, 14, 43, 95
4, 213120, Note_off_c, 14, 43, 95
4, 213120, Note_on_c, 14, 41, 95
4, 213280, Note_off_c, 14, 36, 95
4, 214720, Note_on_c, 14, 48, 95
4, 215040, Note_off_c, 14, 41, 95
4, 215040, Note_on_c, 14, 41, 95
4, 215520, Note_off_c, 14, 48, 95
4, 215680, Note_on_c, 14, 48, 95
4, 216000, Note_off_c, 14, 48, 95
4, 216000, Note_on_c, 14, 36, 95
4, 216160, Note_off_c, 14, 41, 95
4, 217600, Note_on_c, 14, 43, 95
4, 217920, Note_off_c, 14, 36, 95
4, 217920, Note_on_c, 14, 36, 95
4, 218400, Note_off_c, 14, 43, 95
4, 218560, Note_on_c, 14, 43, 95
4, 218880, Note_off_c, 14, 43, 95
4, 218880, Note_on_c, 14, 41, 95
4, 219040, Note_off_c, 14, 36, 95
4, 220480, Note_on_c, 14, 48, 95
4, 220800, Note_off_c, 14, 41, 95
4, 220800, Note_on_c, 14, 41, 95
4, 221280, Note_off_c, 14, 48, 95
4, 221440, Note_on_c, 14, 48, 95
4, 221760, Note_off_c, 14, 48, 95
4, 221760, Note_on_c, 14, 36, 95
4, 221920, Note_off_c, 14, 41, 95
4, 223360, Note_on_c, 14, 43, 95
4, 223680, Note_off_c, 14, 36, 95
4, 223680, Note_on_c, 14, 36, 95
4, 224160, Note_off_c, 14, 43, 95
4, 224320, Note_on_c, 14, 43, 95
4, 224640, Note_off_c, 14, 43, 95
4, 224640, Note_on_c, 14, 41, 95
4, 224800, Note_off_c, 14, 36, 95
4, 226240, Note_on_c, 14, 48, 95
4, 226560, Note_off_c, 14, 41, 95
4, 226560, Note_on_c, 14, 41, 95
4, 227040, Note_off_c, 14, 48, 95
4, 227200, Note_on_c, 14, 48, 95
4, 227520, Note_off_c, 14, 48, 95
4, 227520, Note_on_c, 14, 36, 95
4, 227680, Note_off_c, 14, 41, 95
4, 229120, Note_on_c, 14, 43, 95
4, 229440, Note_off_c, 14, 36, 95
4, 229440, Note_on_c, 14, 36, 95
4, 229920, Note_off_c, 14, 43, 95
4, 230080, Note_on_c, 14, 43, 95
4, 230400, Note_off_c, 14, 43, 95
4, 230400, Note_on_c, 14, 41, 95
4, 230560, Note_off_c, 14, 36, 95
4, 232000, Note_on_c, 14, 48, 95
4, 232320, Note_off_c, 14, 41, 95
4, 232320, Note_on_c, 14, 41, 95
4, 232800, Note_off_c, 14, 48, 95
4, 232960, Note_on_c, 14, 48, 95
4, 233280, Note_off_c, 14, 48, 95
4, 233280, Note_on_c, 14, 36, 95
4, 233440, Note_off_c, 14, 41, 95
4, 234880, Note_on_c, 14, 43, 95
4, 235200, Note_off_c, 14, 36, 95
4, 235200, Note_on_c, 14, 36, 95
4, 235680, Note_off_c, 14, 43, 95
4, 235840, Note_on_c, 14, 43, 95
4, 236160, Note_off_c, 14, 43, 95
4, 236160, Note_on_c, 14, 41, 95
4, 236320, Note_off_c, 14, 36, 95
4, 237760, Note_on_c, 14, 48, 95
4, 238080, Note_off_c, 14, 41, 95
4, 238080, Note_on_c, 14, 41, 95
4, 238560, Note_off_c, 14, 48, 95
4, 238720, Note_on_c, 14, 48, 95
4, 239040, Note_off_c, 14, 48, 95
4, 239040, Note_on_c, 14, 36, 95
4, 239200, Note_off_c, 14, 41, 95
4, 240640, Note_on_c, 14, 43, 95
4, 240960, Note_off_c, 14, 36, 95
4, 240960, Note_on_c, 14, 36, 95
4, 241440, Note_off_c, 14, 43, 95
4, 241600, Note_on_c, 14, 43, 95
4, 241920, Note_off_c, 14, 43, 95
4, 241920, Note_on_c, 14, 41, 95
4, 242080, Note_off_c, 14, 36, 95
4, 243520, Note_on_c, 14, 48, 95
4, 243840, Note_off_c, 14, 41, 95
4, 243840, Note_on_c, 14, 41, 95
4, 244320, Note_off_c, 14, 48, 95
4, 244480, Note_on_c, 14, 48, 95
4, 244800, Note_off_c, 14, 48, 95
4, 244800, Note_on_c, 14, 36, 95
4, 244960, Note_off_c, 14, 41, 95
4, 246400, Note_on_c, 14, 43, 95
4, 246720, Note_off_c, 14, 36, 95
4, 246720, Note_on_c, 14, 36, 95
4, 247200, Note_off_c, 14, 43, 95
4, 247360, Note_on_c, 14, 43, 95
4, 247680, Note_off_c, 14, 43, 95
4, 247680, Note_on_c, 14, 36, 95
4, 247840, Note_off_c, 14, 36, 95
4, 249280, Note_on_c, 14, 43, 95
4, 249600, Note_off_c, 14, 36, 95
4, 249600, Note_on_c, 14, 36, 95
4, 250080, Note_off_c, 14, 43, 95
4, 250240, Note_on_c, 14, 43, 95
4, 250560, Note_off_c, 14, 43, 95
4, 250560, Note_on_c, 14, 31, 95
4, 250720, Note_off_c, 14, 36, 95
4, 252480, Note_off_c, 14, 31, 95
4, 252480, Note_on_c, 14, 31, 95
4, 253440, Note_off_c, 14, 31, 95
4, 253440, Note_on_c, 14, 36, 95
4, 255040, Note_on_c, 14, 43, 95
4, 255360, Note_off_c, 14, 36, 95
4, 255360, Note_on_c, 14, 36, 95
4, 255840, Note_off_c, 14, 43, 95
4, 256000, Note_on_c, 14, 43, 95
4, 256320, Note_off_c, 14, 43, 95
4, 256320, Note_on_c, 14, 31, 95
4, 256480, Note_off_c, 14, 36, 95
4, 258240, Note_off_c, 14, 31, 95
4, 258240, Note_on_c, 14, 31, 95
4, 259200, Note_off_c, 14, 31, 95
4, 259200, Note_on_c, 15, 34, 95
4, 259320, Pitch_bend_c, 15, 8192
4, 259440, Pitch_bend_c, 15, 8192
4, 259560, Pitch_bend_c, 15, 8192
4, 259680, Pitch_bend_c, 15, 8192
4, 259800, Pitch_bend_c, 15, 8192
4, 259920, Pitch_bend_c, 15, 8192
4, 260040, Pitch_bend_c, 15, 8192
4, 260160, Pitch_bend_c, 15, 8192
4, 260160, Pitch_bend_c, 15, 8192
4, 260800, Note_on_c, 14, 41, 95
4, 261120, Note_off_c, 15, 34, 95
4, 261120, Note_on_c, 14, 34, 95
4, 261600, Note_off_c, 14, 41, 95
4, 261760, Note_on_c, 14, 41, 95
4, 262080, Note_off_c, 14, 41, 95
4, 262080, Note_on_c, 14, 46, 95
4, 262240, Note_off_c, 14, 34, 95
4, 263680, Note_on_c, 14, 53, 95
4, 264000, Note_off_c, 14, 46, 95
4, 264000, Note_on_c, 14, 46, 95
4, 264480, Note_off_c, 14, 53, 95
4, 264640, Note_on_c, 14, 53, 95
4, 264960, Note_off_c, 14, 53, 95
4, 264960, Note_on_c, 14, 43, 95
4, 265120, Note_off_c, 14, 46, 95
4, 266560, Note_on_c, 14, 50, 95
4, 266880, Note_off_c, 14, 43, 95
4, 266880, Note_on_c, 14, 43, 95
4, 267360, Note_off_c, 14, 50, 95
4, 267520, Note_on_c, 14, 50, 95
4, 267840, Note_off_c, 14, 50, 95
4, 267840, Note_on_c, 14, 38, 95
4, 268000, Note_off_c, 14, 43, 95
4, 269440, Note_on_c, 14, 45, 95
4, 269760, Note_off_c, 14, 38, 95
4, 269760, Note_on_c, 14, 38, 95
4, 270240, Note_off_c, 14, 45, 95
4, 270400, Note_on_c, 14, 45, 95
4, 270720, Note_off_c, 14, 45, 95
4, 270720, Note_on_c, 14, 36, 95
4, 270880, Note_off_c, 14, 38, 95
4, 272320, Note_on_c, 14, 43, 95
4, 272640, Note_off_c, 14, 36, 95
4, 272640, Note_on_c, 14, 36, 95
4, 273120, Note_off_c, 14, 43, 95
4, 273240, Pitch_bend_c, 15, 8448
4, 273280, Note_on_c, 15, 43, 95
4, 273360, Pitch_bend_c, 15, 8832
4, 273480, Pitch_bend_c, 15, 9216
4, 273600, Pitch_bend_c, 15, 9600
4, 273600, Pitch_bend_c, 15, 8192
4, 273600, Note_off_c, 15, 43, 95
4, 273600, Note_on_c, 14, 45, 95
4, 273760, Note_off_c, 14, 36, 95
4, 275040, Note_off_c, 14, 45, 95
4, 275200, Note_on_c, 14, 45, 95
4, 275520, Note_off_c, 14, 45, 95
4, 275520, Note_on_c, 15, 45, 95
4, 275640, Pitch_bend_c, 15, 7936
4, 275760, Pitch_bend_c, 15, 7552
4, 275880, Pitch_bend_c, 15, 7168
4, 276000, Pitch_bend_c, 15, 6784
4, 276000, Pitch_bend_c, 15, 8192
4, 276160, Note_off_c, 15, 45, 95
4, 276160, Note_on_c, 14, 43, 95
4, 276480, Note_off_c, 14, 43, 95
4, 276480, Note_on_c, 14, 43, 95
4, 278080, Note_on_c, 14, 50, 95
4, 278400, Note_off_c, 14, 43, 95
4, 278400, Note_on_c, 14, 43, 95
4, 278880, Note_off_c, 14, 50, 95
4, 279040, Note_on_c, 14, 50, 95
4, 279360, Note_off_c, 14, 50, 95
4, 279360, Note_on_c, 14, 36, 95
4, 279520, Note_off_c, 14, 43, 95
4, 280960, Note_on_c, 14, 43, 95
4, 281280, Note_off_c, 14, 36, 95
4, 281280, Note_on_c, 14, 36, 95
4, 281760, Note_off_c, 14, 43, 95
4, 281920, Note_on_c, 14, 43, 95
4, 282240, Note_off_c, 14, 43, 95
4, 282240, Note_on_c, 14, 36, 95
4, 282400, Note_off_c, 14, 36, 95
4, 283840, Note_on_c, 14, 43, 95
4, 284160, Note_off_c, 14, 36, 95
4, 284160, Note_on_c, 14, 36, 95
4, 284640, Note_off_c, 14, 43, 95
4, 284800, Note_on_c, 14, 43, 95
4, 285120, Note_off_c, 14, 43, 95
4, 285120, Note_on_c, 14, 43, 95
4, 285280, Note_off_c, 14, 36, 95
4, 286720, Note_on_c, 14, 48, 95
4, 287040, Note_off_c, 14, 43, 95
4, 287040, Note_on_c, 14, 43, 95
4, 287520, Note_off_c, 14, 48, 95
4, 287680, Note_on_c, 14, 48, 95
4, 288000, Note_off_c, 14, 48, 95
4, 288000, Note_on_c, 14, 36, 95
4, 288160, Note_off_c, 14, 43, 95
4, 289600, Note_on_c, 14, 43, 95
4, 289920, Note_off_c, 14, 36, 95
4, 289920, Note_on_c, 14, 36, 95
4, 290400, Note_off_c, 14, 43, 95
4, 290560, Note_on_c, 14, 43, 95
4, 290880, Note_off_c, 14, 43, 95
4, 290880, Note_on_c, 14, 36, 95
4, 291040, Note_off_c, 14, 36, 95
4, 291840, Note_off_c, 14, 36, 95
4, 291840, Note_on_c, 14, 38, 95
4, 292800, Note_off_c, 14, 38, 95
4, 292800, Note_on_c, 14, 40, 95
4, 293760, Note_off_c, 14, 40, 95
4, 293760, Note_on_c, 14, 41, 95
4, 295360, Note_on_c, 14, 48, 95
4, 295680, Note_off_c, 14, 41, 95
4, 295680, Note_on_c, 14, 41, 95
4, 296160, Note_off_c, 14, 48, 95
4, 296320, Note_on_c, 14, 48, 95
4, 296640, Note_off_c, 14, 48, 95
4, 296640, Note_on_c, 14, 36, 95
4, 296800, Note_off_c, 14, 41, 95
4, 298240, Note_on_c, 14, 43, 95
4, 298560, Note_off_c, 14, 36, 95
4, 298560, Note_on_c, 14, 36, 95
4, 299040, Note_off_c, 14, 43, 95
4, 299200, Note_on_c, 14, 43, 95
4, 299520, Note_off_c, 14, 43, 95
4, 299520, Note_on_c, 14, 41, 95
4, 299680, Note_off_c, 14, 36, 95
4, 301120, Note_on_c, 14, 48, 95
4, 301440, Note_off_c, 14, 41, 95
4, 301440, Note_on_c, 14, 41, 95
4, 301920, Note_off_c, 14, 48, 95
4, 302080, Note_on_c, 14, 48, 95
4, 302400, Note_off_c, 14, 48, 95
4, 302400, Note_on_c, 14, 36, 95
4, 302560, Note_off_c, 14, 41, 95
4, 303360, Note_off_c, 14, 36, 95
4, 303360, Note_on_c, 14, 38, 95
4, 304320, Note_off_c, 14, 38, 95
4, 304320, Note_on_c, 14, 40, 95
4, 305280, Note_off_c, 14, 40, 95
4, 305280, Note_on_c, 14, 41, 95
4, 306880, Note_on_c, 14, 48, 95
4, 307200, Note_off_c, 14, 41, 95
4, 307200, Note_on_c, 14, 41, 95
4, 307680, Note_off_c, 14, 48, 95
4, 307840, Note_on_c, 14, 48, 95
4, 308160, Note_off_c, 14, 48, 95
4, 308160, Note_on_c, 14, 36, 95
4, 308320, Note_off_c, 14, 41, 95
4, 309760, Note_on_c, 14, 43, 95
4, 310080, Note_off_c, 14, 36, 95
4, 310080, Note_on_c, 14, 36, 95
4, 310560, Note_off_c, 14, 43, 95
4, 310720, Note_on_c, 14, 43, 95
4, 311040, Note_off_c, 14, 43, 95
4, 311040, Note_on_c, 14, 41, 95
4, 311200, Note_off_c, 14, 36, 95
4, 312640, Note_on_c, 14, 48, 95
4, 312960, Note_off_c, 14, 41, 95
4, 312960, Note_on_c, 14, 41, 95
4, 313440, Note_off_c, 14, 48, 95
4, 313600, Note_on_c, 14, 48, 95
4, 313920, Note_off_c, 14, 48, 95
4, 313920, Note_on_c, 14, 36, 95
4, 314080, Note_off_c, 14, 41, 95
4, 315520, Note_on_c, 14, 43, 95
4, 315840, Note_off_c, 14, 36, 95
4, 315840, Note_on_c, 14, 36, 95
4, 316320, Note_off_c, 14, 43, 95
4, 316480, Note_on_c, 14, 43, 95
4, 316800, Note_off_c, 14, 43, 95
4, 316800, Note_on_c, 14, 41, 95
4, 316960, Note_off_c, 14, 36, 95
4, 318400, Note_on_c, 14, 48, 95
4, 318720, Note_off_c, 14, 41, 95
4, 318720, Note_on_c, 14, 41, 95
4, 319200, Note_off_c, 14, 48, 95
4, 319360, Note_on_c, 14, 48, 95
4, 319680, Note_off_c, 14, 48, 95
4, 319680, Note_on_c, 14, 36, 95
4, 319840, Note_off_c, 14, 41, 95
4, 321280, Note_on_c, 14, 43, 95
4, 321600, Note_off_c, 14, 36, 95
4, 321600, Note_on_c, 14, 36, 95
4, 322080, Note_off_c, 14, 43, 95
4, 322240, Note_on_c, 14, 43, 95
4, 322560, Note_off_c, 14, 43, 95
4, 322560, Note_on_c, 14, 41, 95
4, 322720, Note_off_c, 14, 36, 95
4, 324160, Note_on_c, 14, 48, 95
4, 324480, Note_off_c, 14, 41, 95
4, 324480, Note_on_c, 14, 41, 95
4, 324960, Note_off_c, 14, 48, 95
4, 325120, Note_on_c, 14, 48, 95
4, 325440, Note_off_c, 14, 48, 95
4, 325440, Note_on_c, 14, 36, 95
4, 325600, Note_off_c, 14, 41, 95
4, 327040, Note_on_c, 14, 43, 95
4, 327360, Note_off_c, 14, 36, 95
4, 327360, Note_on_c, 14, 36, 95
4, 327840, Note_off_c, 14, 43, 95
4, 328000, Note_on_c, 14, 43, 95
4, 328320, Note_off_c, 14, 43, 95
4, 328320, Note_on_c, 14, 41, 95
4, 328480, Note_off_c, 14, 36, 95
4, 329920, Note_on_c, 14, 48, 95
4, 330240, Note_off_c, 14, 41, 95
4, 330240, Note_on_c, 14, 41, 95
4, 330720, Note_off_c, 14, 48, 95
4, 330880, Note_on_c, 14, 48, 95
4, 331200, Note_off_c, 14, 48, 95
4, 331200, Note_on_c, 14, 36, 95
4, 331360, Note_off_c, 14, 41, 95
4, 332800, Note_on_c, 14, 43, 95
4, 333120, Note_off_c, 14, 36, 95
4, 333120, Note_on_c, 14, 36, 95
4, 333600, Note_off_c, 14, 43, 95
4, 333760, Note_on_c, 14, 43, 95
4, 334080, Note_off_c, 14, 43, 95
4, 334080, Note_on_c, 14, 41, 95
4, 334240, Note_off_c, 14, 36, 95
4, 335680, Note_on_c, 14, 48, 95
4, 336000, Note_off_c, 14, 41, 95
4, 336000, Note_on_c, 14, 41, 95
4, 336480, Note_off_c, 14, 48, 95
4, 336640, Note_on_c, 14, 48, 95
4, 336960, Note_off_c, 14, 48, 95
4, 336960, Note_on_c, 14, 36, 95
4, 337120, Note_off_c, 14, 41, 95
4, 338560, Note_on_c, 14, 43, 95
4, 338880, Note_off_c, 14, 36, 95
4, 338880, Note_on_c, 14, 36, 95
4, 339360, Note_off_c, 14, 43, 95
4, 339520, Note_on_c, 14, 43, 95
4, 339840, Note_off_c, 14, 43, 95
4, 339840, Note_on_c, 14, 41, 95
4, 340000, Note_off_c, 14, 36, 95
4, 341440, Note_on_c, 14, 48, 95
4, 341760, Note_off_c, 14, 41, 95
4, 341760, Note_on_c, 14, 41, 95
4, 342240, Note_off_c, 14, 48, 95
4, 342400, Note_on_c, 14, 48, 95
4, 342720, Note_off_c, 14, 48, 95
4, 342720, Note_on_c, 14, 36, 95
4, 342880, Note_off_c, 14, 41, 95
4, 344320, Note_on_c, 14, 43, 95
4, 344640, Note_off_c, 14, 36, 95
4, 344640, Note_on_c, 14, 36, 95
4, 345120, Note_off_c, 14, 43, 95
4, 345280, Note_on_c, 14, 43, 95
4, 345600, Note_off_c, 14, 43, 95
4, 345600, Note_on_c, 14, 36, 95
4, 345760, Note_off_c, 14, 36, 95
4, 347200, Note_on_c, 14, 43, 95
4, 347520, Note_off_c, 14, 36, 95
4, 347520, Note_on_c, 14, 36, 95
4, 348000, Note_off_c, 14, 43, 95
4, 348160, Note_on_c, 14, 43, 95
4, 348480, Note_off_c, 14, 43, 95
4, 348480, Note_on_c, 14, 31, 95
4, 348640, Note_off_c, 14, 36, 95
4, 350400, Note_off_c, 14, 31, 95
4, 350400, Note_on_c, 14, 31, 95
4, 351360, Note_off_c, 14, 31, 95
4, 351360, Note_on_c, 14, 36, 95
4, 352960, Note_on_c, 14, 43, 95
4, 353280, Note_off_c, 14, 36, 95
4, 353280, Note_on_c, 14, 36, 95
4, 353760, Note_off_c, 14, 43, 95
4, 353920, Note_on_c, 14, 43, 95
4, 354240, Note_off_c, 14, 43, 95
4, 354240, Note_on_c, 14, 31, 95
4, 354400, Note_off_c, 14, 36, 95
4, 356160, Note_off_c, 14, 31, 95
4, 356160, Note_on_c, 14, 31, 95
4, 357120, Note_off_c, 14, 31, 95
4, 357120, Note_on_c, 15, 34, 95
4, 357240, Pitch_bend_c, 15, 8192
4, 357360, Pitch_bend_c, 15, 8192
4, 357480, Pitch_bend_c, 15, 8192
4, 357600, Pitch_bend_c, 15, 8192
4, 357720, Pitch_bend_c, 15, 8192
4, 357840, Pitch_bend_c, 15, 8192
4, 357960, Pitch_bend_c, 15, 8192
4, 358080, Pitch_bend_c, 15, 8192
4, 358080, Pitch_bend_c, 15, 8192
4, 358720, Note_on_c, 14, 41, 95
4, 359040, Note_off_c, 15, 34, 95
4, 359040, Note_on_c, 14, 34, 95
4, 359520, Note_off_c, 14, 41, 95
4, 359680, Note_on_c, 14, 41, 95
4, 360000, Note_off_c, 14, 41, 95
4, 360000, Note_on_c, 14, 46, 95
4, 360160, Note_off_c, 14, 34, 95
4, 361600, Note_on_c, 14, 53, 95
4, 361920, Note_off_c, 14, 46, 95
4, 361920, Note_on_c, 14, 46, 95
4, 362400, Note_off_c, 14, 53, 95
4, 362560, Note_on_c, 14, 53, 95
4, 362880, Note_off_c, 14, 53, 95
4, 362880, Note_on_c, 14, 43, 95
4, 363040, Note_off_c, 14, 46, 95
4, 364480, Note_on_c, 14, 50, 95
4, 364800, Note_off_c, 14, 43, 95
4, 364800, Note_on_c, 14, 43, 95
4, 365280, Note_off_c, 14, 50, 95
4, 365440, Note_on_c, 14, 50, 95
4, 365760, Note_off_c, 14, 50, 95
4, 365760, Note_on_c, 14, 38, 95
4, 365920, Note_off_c, 14, 43, 95
4, 367360, Note_on_c, 14, 45, 95
4, 367680, Note_off_c, 14, 38, 95
4, 367680, Note_on_c, 14, 38, 95
4, 368160, Note_off_c, 14, 45, 95
4, 368320, Note_on_c, 14, 45, 95
4, 368640, Note_off_c, 14, 45, 95
4, 368640, Note_on_c, 14, 36, 95
4, 368800, Note_off_c, 14, 38, 95
4, 370240, Note_on_c, 14, 43, 95
4, 370560, Note_off_c, 14, 36, 95
4, 370560, Note_on_c, 14, 36, 95
4, 371040, Note_off_c, 14, 43, 95
4, 371160, Pitch_bend_c, 15, 8448
4, 371200, Note_on_c, 15, 43, 95
4, 371280, Pitch_bend_c, 15, 8832
4, 371400, Pitch_bend_c, 15, 9216
4, 371520, Pitch_bend_c, 15, 9600
4, 371520, Pitch_bend_c, 15, 8192
4, 371520, Note_off_c, 15, 43, 95
4, 371520, Note_on_c, 14, 45, 95
4, 371680, Note_off_c, 14, 36, 95
4, 372960, Note_off_c, 14, 45, 95
4, 373120, Note_on_c, 14, 45, 95
4, 373440, Note_off_c, 14, 45, 95
4, 373440, Note_on_c, 15, 45, 95
4, 373560, Pitch_bend_c, 15, 7936
4, 373680, Pitch_bend_c, 15, 7552
4, 373800, Pitch_bend_c, 15, 7168
4, 373920, Pitch_bend_c, 15, 6784
4, 373920, Pitch_bend_c, 15, 8192
4, 374080, Note_off_c, 15, 45, 95
4, 374080, Note_on_c, 14, 43, 95
4, 374400, Note_off_c, 14, 43, 95
4, 374400, Note_on_c, 14, 43, 95
4, 376000, Note_on_c, 14, 50, 95
4, 376320, Note_off_c, 14, 43, 95
4, 376320, Note_on_c, 14, 43, 95
4, 376800, Note_off_c, 14, 50, 95
4, 376960, Note_on_c, 14, 50, 95
4, 377280, Note_off_c, 14, 50, 95
4, 377280, Note_on_c, 14, 36, 95
4, 377440, Note_off_c, 14, 43, 95
4, 378880, Note_on_c, 14, 43, 95
4, 379200, Note_off_c, 14, 36, 95
4, 379200, Note_on_c, 14, 36, 95
4, 379680, Note_off_c, 14, 43, 95
4, 379840, Note_on_c, 14, 43, 95
4, 380160, Note_off_c, 14, 43, 95
4, 380160, Note_on_c, 14, 36, 95
4, 380320, Note_off_c, 14, 36, 95
4, 381760, Note_on_c, 14, 43, 95
4, 382080, Note_off_c, 14, 36, 95
4, 382080, Note_on_c, 14, 36, 95
4, 382560, Note_off_c, 14, 43, 95
4, 382720, Note_on_c, 14, 43, 95
4, 383040, Note_off_c, 14, 43, 95
4, 383040, Note_on_c, 14, 43, 95
4, 383200, Note_off_c, 14, 36, 95
4, 384640, Note_on_c, 14, 48, 95
4, 384960, Note_off_c, 14, 43, 95
4, 384960, Note_on_c, 14, 43, 95
4, 385440, Note_off_c, 14, 48, 95
4, 385600, Note_on_c, 14, 48, 95
4, 385920, Note_off_c, 14, 48, 95
4, 385920, Note_on_c, 14, 36, 95
4, 386080, Note_off_c, 14, 43, 95
4, 387520, Note_on_c, 14, 43, 95
4, 387840, Note_off_c, 14, 36, 95
4, 387840, Note_on_c, 14, 36, 95
4, 388320, Note_off_c, 14, 43, 95
4, 388480, Note_on_c, 14, 43, 95
4, 388800, Note_off_c, 14, 43, 95
4, 388800, Note_on_c, 14, 36, 95
4, 388960, Note_off_c, 14, 36, 95
4, 389760, Note_off_c, 14, 36, 95
4, 389760, Note_on_c, 14, 38, 95
4, 390720, Note_off_c, 14, 38, 95
4, 390720, Note_on_c, 14, 40, 95
4, 391680, Note_off_c, 14, 40, 95
4, 391680, Note_on_c, 14, 41, 95
4, 393280, Note_on_c, 14, 48, 95
4, 393600, Note_off_c, 14, 41, 95
4, 393600, Note_on_c, 14, 41, 95
4, 394080, Note_off_c, 14, 48, 95
4, 394240, Note_on_c, 14, 48, 95
4, 394560, Note_off_c, 14, 48, 95
4, 394560, Note_on_c, 14, 36, 95
4, 394720, Note_off_c, 14, 41, 95
4, 396160, Note_on_c, 14, 43, 95
4, 396480, Note_off_c, 14, 36, 95
4, 396480, Note_on_c, 14, 36, 95
4, 396960, Note_off_c, 14, 43, 95
4, 397120, Note_on_c, 14, 43, 95
4, 397440, Note_off_c, 14, 43, 95
4, 397440, Note_on_c, 14, 41, 95
4, 397600, Note_off_c, 14, 36, 95
4, 399040, Note_on_c, 14, 48, 95
4, 399360, Note_off_c, 14, 41, 95
4, 399360, Note_on_c, 14, 41, 95
4, 399840, Note_off_c, 14, 48, 95
4, 400000, Note_on_c, 14, 48, 95
4, 400320, Note_off_c, 14, 48, 95
4, 400320, Note_on_c, 14, 36, 95
4, 400480, Note_off_c, 14, 41, 95
4, 401280, Note_off_c, 14, 36, 95
4, 401280, Note_on_c, 14, 38, 95
4, 402240, Note_off_c, 14, 38, 95
4, 402240, Note_on_c, 14, 40, 95
4, 403200, Note_off_c, 14, 40, 95
4, 403200, Note_on_c, 14, 41, 95
4, 404800, Note_on_c, 14, 48, 95
4, 405120, Note_off_c, 14, 41, 95
4, 405120, Note_on_c, 14, 41, 95
4, 405600, Note_off_c, 14, 48, 95
4, 405760, Note_on_c, 14, 48, 95
4, 406080, Note_off_c, 14, 48, 95
4, 406080, Note_on_c, 14, 36, 95
4, 406240, Note_off_c, 14, 41, 95
4, 407680, Note_on_c, 14, 43, 95
4, 408000, Note_off_c, 14, 36, 95
4, 408000, Note_on_c, 14, 36, 95
4, 408480, Note_off_c, 14, 43, 95
4, 408640, Note_on_c, 14, 43, 95
4, 408960, Note_off_c, 14, 43, 95
4, 408960, Note_on_c, 14, 41, 95
4, 409120, Note_off_c, 14, 36, 95
4, 410560, Note_on_c, 14, 48, 95
4, 410880, Note_off_c, 14, 41, 95
4, 410880, Note_on_c, 14, 41, 95
4, 411360, Note_off_c, 14, 48, 95
4, 411520, Note_on_c, 14, 48, 95
4, 411840, Note_off_c, 14, 48, 95
4, 411840, Note_on_c, 14, 36, 95
4, 412000, Note_off_c, 14, 41, 95
4, 413440, Note_on_c, 14, 43, 95
4, 413760, Note_off_c, 14, 36, 95
4, 413760, Note_on_c, 14, 36, 95
4, 414240, Note_off_c, 14, 43, 95
4, 414400, Note_on_c, 14, 43, 95
4, 414720, Note_off_c, 14, 43, 95
4, 414720, Note_on_c, 14, 41, 95
4, 414880, Note_off_c, 14, 36, 95
4, 416320, Note_on_c, 14, 48, 95
4, 416640, Note_off_c, 14, 41, 95
4, 416640, Note_on_c, 14, 41, 95
4, 417120, Note_off_c, 14, 48, 95
4, 417280, Note_on_c, 14, 48, 95
4, 417600, Note_off_c, 14, 48, 95
4, 417600, Note_on_c, 14, 36, 95
4, 417760, Note_off_c, 14, 41, 95
4, 419200, Note_on_c, 14, 43, 95
4, 419520, Note_off_c, 14, 36, 95
4, 419520, Note_on_c, 14, 36, 95
4, 420000, Note_off_c, 14, 43, 95
4, 420160, Note_on_c, 14, 43, 95
4, 420480, Note_off_c, 14, 43, 95
4, 420480, Note_on_c, 14, 41, 95
4, 420640, Note_off_c, 14, 36, 95
4, 422080, Note_on_c, 14, 48, 95
4, 422400, Note_off_c, 14, 41, 95
4, 422400, Note_on_c, 14, 41, 95
4, 422880, Note_off_c, 14, 48, 95
4, 423040, Note_on_c, 14, 48, 95
4, 423360, Note_off_c, 14, 48, 95
4, 423360, Note_on_c, 14, 36, 95
4, 423520, Note_off_c, 14, 41, 95
4, 424960, Note_on_c, 14, 43, 95
4, 425280, Note_off_c, 14, 36, 95
4, 425280, Note_on_c, 14, 36, 95
4, 425760, Note_off_c, 14, 43, 95
4, 425920, Note_on_c, 14, 43, 95
4, 426240, Note_off_c, 14, 43, 95
4, 426240, Note_on_c, 14, 41, 95
4, 426400, Note_off_c, 14, 36, 95
4, 427840, Note_on_c, 14, 48, 95
4, 428160, Note_off_c, 14, 41, 95
4, 428160, Note_on_c, 14, 41, 95
4, 428640, Note_off_c, 14, 48, 95
4, 428800, Note_on_c, 14, 48, 95
4, 429120, Note_off_c, 14, 48, 95
4, 429120, Note_on_c, 14, 36, 95
4, 429280, Note_off_c, 14, 41, 95
4, 430720, Note_on_c, 14, 43, 95
4, 431040, Note_off_c, 14, 36, 95
4, 431040, Note_on_c, 14, 36, 95
4, 431520, Note_off_c, 14, 43, 95
4, 431680, Note_on_c, 14, 43, 95
4, 432000, Note_off_c, 14, 43, 95
4, 432000, Note_on_c, 14, 41, 95
4, 432160, Note_off_c, 14, 36, 95
4, 433600, Note_on_c, 14, 48, 95
4, 433920, Note_off_c, 14, 41, 95
4, 433920, Note_on_c, 14, 41, 95
4, 434400, Note_off_c, 14, 48, 95
4, 434560, Note_on_c, 14, 48, 95
4, 434880, Note_off_c, 14, 48, 95
4, 434880, Note_on_c, 14, 36, 95
4, 435040, Note_off_c, 14, 41, 95
4, 436480, Note_on_c, 14, 43, 95
4, 436800, Note_off_c, 14, 36, 95
4, 436800, Note_on_c, 14, 36, 95
4, 437280, Note_off_c, 14, 43, 95
4, 437440, Note_on_c, 14, 43, 95
4, 437760, Note_off_c, 14, 43, 95
4, 437760, Note_on_c, 14, 41, 95
4, 437920, Note_off_c, 14, 36, 95
4, 439360, Note_on_c, 14, 48, 95
4, 439680, Note_off_c, 14, 41, 95
4, 439680, Note_on_c, 14, 41, 95
4, 440160, Note_off_c, 14, 48, 95
4, 440320, Note_on_c, 14, 48, 95
4, 440640, Note_off_c, 14, 48, 95
4, 440640, Note_on_c, 14, 36, 95
4, 440800, Note_off_c, 14, 41, 95
4, 442240, Note_on_c, 14, 43, 95
4, 442560, Note_off_c, 14, 36, 95
4, 442560, Note_on_c, 14, 36, 95
4, 443040, Note_off_c, 14, 43, 95
4, 443200, Note_on_c, 14, 43, 95
4, 443520, Note_off_c, 14, 43, 95
4, 443520, Note_on_c, 14, 41, 95
4, 443680, Note_off_c, 14, 36, 95
4, 445120, Note_on_c, 14, 48, 95
4, 445440, Note_off_c, 14, 41, 95
4, 445440, Note_on_c, 14, 41, 95
4, 445920, Note_off_c, 14, 48, 95
4, 446080, Note_on_c, 14, 48, 95
4, 446400, Note_off_c, 14, 48, 95
4, 446400, Note_on_c, 14, 36, 95
4, 446560, Note_off_c, 14, 41, 95
4, 447360, Note_off_c, 14, 36, 95
4, 447360, Note_on_c, 14, 38, 95
4, 448320, Note_off_c, 14, 38, 95
4, 448320, Note_on_c, 14, 40, 95
4, 449280, Note_off_c, 14, 40, 95
4, 449280, Note_on_c, 14, 41, 95
4, 455040, Note_off_c, 14, 41, 95
4, 455040, End_track
5, 0, Start_track
5, 0, Pitch_bend_c, 9, 8192
5, 0, Control_c, 9, 7, 63
5, 0, Control_c, 9, 10, 63
5, 0, Control_c, 9, 93, 0
5, 0, Control_c, 9, 91, 63
5, 0, Control_c, 9, 95, 0
5, 0, Control_c, 9, 92, 0
5, 0, Control_c, 9, 11, 127
5, 0, Program_c, 9, 0
5, 11520, Note_on_c, 9, 46, 47
5, 12480, Note_off_c, 9, 46, 47
5, 12480, Note_on_c, 9, 44, 95
5, 13440, Note_off_c, 9, 44, 95
5, 13440, Note_on_c, 9, 42, 95
5, 14400, Note_off_c, 9, 42, 95
5, 14400, Note_on_c, 9, 69, 95
5, 14400, Note_on_c, 9, 44, 95
5, 15360, Note_off_c, 9, 69, 95
5, 15360, Note_off_c, 9, 44, 95
5, 15360, Note_on_c, 9, 44, 95
5, 16320, Note_off_c, 9, 44, 95
5, 16320, Note_on_c, 9, 44, 95
5, 17280, Note_off_c, 9, 44, 95
5, 17280, Note_on_c, 9, 44, 95
5, 18240, Note_off_c, 9, 44, 95
5, 18240, Note_on_c, 9, 42, 95
5, 19200, Note_off_c, 9, 42, 95
5, 19200, Note_on_c, 9, 46, 95
5, 20160, Note_off_c, 9, 46, 95
5, 20160, Note_on_c, 9, 69, 95
5, 20160, Note_on_c, 9, 44, 95
5, 21120, Note_off_c, 9, 69, 95
5, 21120, Note_off_c, 9, 44, 95
5, 21120, Note_on_c, 9, 44, 95
5, 22080, Note_off_c, 9, 44, 95
5, 22080, Note_on_c, 9, 44, 95
5, 23040, Note_off_c, 9, 44, 95
5, 23040, Note_on_c, 9, 44, 95
5, 24000, Note_off_c, 9, 44, 95
5, 24000, Note_on_c, 9, 44, 95
5, 24960, Note_off_c, 9, 44, 95
5, 24960, Note_on_c, 9, 46, 95
5, 25920, Note_off_c, 9, 46, 95
5, 25920, Note_on_c, 9, 69, 95
5, 25920, Note_on_c, 9, 44, 95
5, 26880, Note_off_c, 9, 69, 95
5, 26880, Note_off_c, 9, 44, 95
5, 26880, Note_on_c, 9, 44, 95
5, 27840, Note_off_c, 9, 44, 95
5, 27840, Note_on_c, 9, 69, 95
5, 27840, Note_on_c, 9, 44, 95
5, 28800, Note_off_c, 9, 69, 95
5, 28800, Note_off_c, 9, 44, 95
5, 28800, Note_on_c, 9, 44, 95
5, 29760, Note_off_c, 9, 44, 95
5, 29760, Note_on_c, 9, 44, 95
5, 30720, Note_off_c, 9, 44, 95
5, 30720, Note_on_c, 9, 46, 95
5, 31680, Note_off_c, 9, 46, 95
5, 31680, Note_on_c, 9, 69, 95
5, 31680, Note_on_c, 9, 44, 95
5, 32640, Note_off_c, 9, 69, 95
5, 32640, Note_off_c, 9, 44, 95
5, 32640, Note_on_c, 9, 44, 95
5, 33600, Note_off_c, 9, 44, 95
5, 33600, Note_on_c, 9, 44, 95
5, 34560, Note_off_c, 9, 44, 95
5, 34560, Note_on_c, 9, 44, 95
5, 35520, Note_off_c, 9, 44, 95
5, 35520, Note_on_c, 9, 44, 95
5, 36480, Note_off_c, 9, 44, 95
5, 36480, Note_on_c, 9, 46, 95
5, 37440, Note_off_c, 9, 46, 95
5, 37440, Note_on_c, 9, 69, 95
5, 37440, Note_on_c, 9, 44, 95
5, 38400, Note_off_c, 9, 69, 95
5, 38400, Note_off_c, 9, 44, 95
5, 38400, Note_on_c, 9, 44, 95
5, 39360, Note_off_c, 9, 44, 95
5, 39360, Note_on_c, 9, 44, 95
5, 40320, Note_off_c, 9, 44, 95
5, 40320, Note_on_c, 9, 44, 95
5, 41280, Note_off_c, 9, 44, 95
5, 41280, Note_on_c, 9, 44, 95
5, 42240, Note_off_c, 9, 44, 95
5, 42240, Note_on_c, 9, 46, 95
5, 43200, Note_off_c, 9, 46, 95
5, 43200, Note_on_c, 9, 69, 95
5, 43200, Note_on_c, 9, 44, 95
5, 44160, Note_off_c, 9, 69, 95
5, 44160, Note_off_c, 9, 44, 95
5, 44160, Note_on_c, 9, 44, 95
5, 45120, Note_off_c, 9, 44, 95
5, 45120, Note_on_c, 9, 75, 95
5, 45120, Note_on_c, 9, 44, 95
5, 46080, Note_off_c, 9, 75, 95
5, 46080, Note_off_c, 9, 44, 95
5, 46080, Note_on_c, 9, 44, 95
5, 47040, Note_off_c, 9, 44, 95
5, 47040, Note_on_c, 9, 44, 95
5, 48000, Note_off_c, 9, 44, 95
5, 48000, Note_on_c, 9, 46, 95
5, 48960, Note_off_c, 9, 46, 95
5, 48960, Note_on_c, 9, 69, 95
5, 48960, Note_on_c, 9, 44, 95
5, 49920, Note_off_c, 9, 69, 95
5, 49920, Note_off_c, 9, 44, 95
5, 49920, Note_on_c, 9, 44, 95
5, 50880, Note_off_c, 9, 44, 95
5, 50880, Note_on_c, 9, 69, 95
5, 50880, Note_on_c, 9, 44, 95
5, 51840, Note_off_c, 9, 69, 95
5, 51840, Note_off_c, 9, 44, 95
5, 51840, Note_on_c, 9, 51, 95
5, 52800, Note_off_c, 9, 51, 95
5, 52800, Note_on_c, 9, 44, 95
5, 53760, Note_off_c, 9, 44, 95
5, 53760, Note_on_c, 9, 46, 95
5, 54720, Note_off_c, 9, 46, 95
5, 54720, Note_on_c, 9, 69, 95
5, 54720, Note_on_c, 9, 44, 95
5, 55680, Note_off_c, 9, 69, 95
5, 55680, Note_off_c, 9, 44, 95
5, 55680, Note_on_c, 9, 44, 95
5, 56640, Note_off_c, 9, 44, 95
5, 56640, Note_on_c, 9, 44, 95
5, 57600, Note_off_c, 9, 44, 95
5, 57600, Note_on_c, 9, 44, 95
5, 58560, Note_off_c, 9, 44, 95
5, 58560, Note_on_c, 9, 44, 95
5, 59520, Note_off_c, 9, 44, 95
5, 59520, Note_on_c, 9, 46, 95
5, 60480, Note_off_c, 9, 46, 95
5, 60480, Note_on_c, 9, 69, 95
5, 60480, Note_on_c, 9, 44, 95
5, 61440, Note_off_c, 9, 69, 95
5, 61440, Note_off_c, 9, 44, 95
5, 61440, Note_on_c, 9, 44, 95
5, 62400, Note_off_c, 9, 44, 95
5, 62400, Note_on_c, 9, 69, 95
5, 62400, Note_on_c, 9, 44, 95
5, 63360, Note_off_c, 9, 69, 95
5, 63360, Note_off_c, 9, 44, 95
5, 63360, Note_on_c, 9, 44, 95
5, 64320, Note_off_c, 9, 44, 95
5, 64320, Note_on_c, 9, 44, 95
5, 65280, Note_off_c, 9, 44, 95
5, 65280, Note_on_c, 9, 46, 95
5, 66240, Note_off_c, 9, 46, 95
5, 66240, Note_on_c, 9, 69, 95
5, 66240, Note_on_c, 9, 44, 95
5, 67200, Note_off_c, 9, 69, 95
5, 67200, Note_off_c, 9, 44, 95
5, 67200, Note_on_c, 9, 44, 95
5, 68160, Note_off_c, 9, 44, 95
5, 68160, Note_on_c, 9, 44, 95
5, 69120, Note_off_c, 9, 44, 95
5, 69120, Note_on_c, 9, 44, 95
5, 70080, Note_off_c, 9, 44, 95
5, 70080, Note_on_c, 9, 44, 95
5, 71040, Note_off_c, 9, 44, 95
5, 71040, Note_on_c, 9, 46, 95
5, 72000, Note_off_c, 9, 46, 95
5, 72000, Note_on_c, 9, 69, 95
5, 72000, Note_on_c, 9, 44, 95
5, 72960, Note_off_c, 9, 69, 95
5, 72960, Note_off_c, 9, 44, 95
5, 72960, Note_on_c, 9, 44, 95
5, 73920, Note_off_c, 9, 44, 95
5, 73920, Note_on_c, 9, 44, 95
5, 74880, Note_off_c, 9, 44, 95
5, 74880, Note_on_c, 9, 44, 95
5, 75840, Note_off_c, 9, 44, 95
5, 75840, Note_on_c, 9, 44, 95
5, 76800, Note_off_c, 9, 44, 95
5, 76800, Note_on_c, 9, 46, 95
5, 77760, Note_off_c, 9, 46, 95
5, 77760, Note_on_c, 9, 69, 95
5, 77760, Note_on_c, 9, 44, 95
5, 78720, Note_off_c, 9, 69, 95
5, 78720, Note_off_c, 9, 44, 95
5, 78720, Note_on_c, 9, 44, 95
5, 79680, Note_off_c, 9, 44, 95
5, 79680, Note_on_c, 9, 69, 95
5, 79680, Note_on_c, 9, 44, 95
5, 80640, Note_off_c, 9, 69, 95
5, 80640, Note_off_c, 9, 44, 95
5, 80640, Note_on_c, 9, 44, 95
5, 81600, Note_off_c, 9, 44, 95
5, 81600, Note_on_c, 9, 44, 95
5, 82560, Note_off_c, 9, 44, 95
5, 82560, Note_on_c, 9, 46, 95
5, 83520, Note_off_c, 9, 46, 95
5, 83520, Note_on_c, 9, 69, 95
5, 83520, Note_on_c, 9, 44, 95
5, 84480, Note_off_c, 9, 69, 95
5, 84480, Note_off_c, 9, 44, 95
5, 84480, Note_on_c, 9, 44, 95
5, 85440, Note_off_c, 9, 44, 95
5, 85440, Note_on_c, 9, 69, 95
5, 85440, Note_on_c, 9, 44, 95
5, 86400, Note_off_c, 9, 69, 95
5, 86400, Note_off_c, 9, 44, 95
5, 86400, Note_on_c, 9, 44, 95
5, 87360, Note_off_c, 9, 44, 95
5, 87360, Note_on_c, 9, 44, 95
5, 88320, Note_off_c, 9, 44, 95
5, 88320, Note_on_c, 9, 46, 95
5, 89280, Note_off_c, 9, 46, 95
5, 89280, Note_on_c, 9, 69, 95
5, 89280, Note_on_c, 9, 44, 95
5, 90240, Note_off_c, 9, 69, 95
5, 90240, Note_off_c, 9, 44, 95
5, 90240, Note_on_c, 9, 44, 95
5, 91200, Note_off_c, 9, 44, 95
5, 91200, Note_on_c, 9, 44, 95
5, 92160, Note_off_c, 9, 44, 95
5, 92160, Note_on_c, 9, 44, 95
5, 93120, Note_off_c, 9, 44, 95
5, 93120, Note_on_c, 9, 44, 95
5, 94080, Note_off_c, 9, 44, 95
5, 94080, Note_on_c, 9, 46, 95
5, 95040, Note_off_c, 9, 46, 95
5, 95040, Note_on_c, 9, 69, 95
5, 95040, Note_on_c, 9, 44, 95
5, 96000, Note_off_c, 9, 69, 95
5, 96000, Note_off_c, 9, 44, 95
5, 96000, Note_on_c, 9, 44, 95
5, 96960, Note_off_c, 9, 44, 95
5, 96960, Note_on_c, 9, 69, 95
5, 96960, Note_on_c, 9, 44, 95
5, 97920, Note_off_c, 9, 69, 95
5, 97920, Note_off_c, 9, 44, 95
5, 97920, Note_on_c, 9, 51, 95
5, 98880, Note_off_c, 9, 51, 95
5, 98880, Note_on_c, 9, 44, 95
5, 99840, Note_off_c, 9, 44, 95
5, 99840, Note_on_c, 9, 44, 95
5, 100800, Note_off_c, 9, 44, 95
5, 100800, Note_on_c, 9, 69, 95
5, 100800, Note_on_c, 9, 44, 95
5, 101760, Note_off_c, 9, 69, 95
5, 101760, Note_off_c, 9, 44, 95
5, 101760, Note_on_c, 9, 44, 95
5, 102720, Note_off_c, 9, 44, 95
5, 102720, Note_on_c, 9, 44, 95
5, 103680, Note_off_c, 9, 44, 95
5, 103680, Note_on_c, 9, 44, 95
5, 104640, Note_off_c, 9, 44, 95
5, 104640, Note_on_c, 9, 44, 95
5, 105600, Note_off_c, 9, 44, 95
5, 105600, Note_on_c, 9, 46, 95
5, 106560, Note_off_c, 9, 46, 95
5, 106560, Note_on_c, 9, 69, 95
5, 106560, Note_on_c, 9, 44, 95
5, 107520, Note_off_c, 9, 69, 95
5, 107520, Note_off_c, 9, 44, 95
5, 107520, Note_on_c, 9, 44, 95
5, 108480, Note_off_c, 9, 44, 95
5, 108480, Note_on_c, 9, 44, 95
5, 109440, Note_off_c, 9, 44, 95
5, 109440, Note_on_c, 9, 44, 95
5, 110400, Note_off_c, 9, 44, 95
5, 110400, Note_on_c, 9, 44, 95
5, 111360, Note_off_c, 9, 44, 95
5, 111360, Note_on_c, 9, 46, 95
5, 112320, Note_off_c, 9, 46, 95
5, 112320, Note_on_c, 9, 69, 95
5, 112320, Note_on_c, 9, 44, 95
5, 113280, Note_off_c, 9, 69, 95
5, 113280, Note_off_c, 9, 44, 95
5, 113280, Note_on_c, 9, 44, 95
5, 114240, Note_off_c, 9, 44, 95
5, 114240, Note_on_c, 9, 44, 95
5, 115200, Note_off_c, 9, 44, 95
5, 115200, Note_on_c, 9, 44, 95
5, 116160, Note_off_c, 9, 44, 95
5, 116160, Note_on_c, 9, 44, 95
5, 117120, Note_off_c, 9, 44, 95
5, 117120, Note_on_c, 9, 46, 95
5, 118080, Note_off_c, 9, 46, 95
5, 118080, Note_on_c, 9, 69, 95
5, 118080, Note_on_c, 9, 44, 95
5, 119040, Note_off_c, 9, 69, 95
5, 119040, Note_off_c, 9, 44, 95
5, 119040, Note_on_c, 9, 44, 95
5, 120000, Note_off_c, 9, 44, 95
5, 120000, Note_on_c, 9, 44, 95
5, 120960, Note_off_c, 9, 44, 95
5, 120960, Note_on_c, 9, 44, 95
5, 121920, Note_off_c, 9, 44, 95
5, 121920, Note_on_c, 9, 44, 95
5, 122880, Note_off_c, 9, 44, 95
5, 122880, Note_on_c, 9, 46, 95
5, 123840, Note_off_c, 9, 46, 95
5, 123840, Note_on_c, 9, 69, 95
5, 123840, Note_on_c, 9, 44, 95
5, 124800, Note_off_c, 9, 69, 95
5, 124800, Note_off_c, 9, 44, 95
5, 124800, Note_on_c, 9, 44, 95
5, 125760, Note_off_c, 9, 44, 95
5, 125760, Note_on_c, 9, 69, 95
5, 125760, Note_on_c, 9, 44, 95
5, 126720, Note_off_c, 9, 69, 95
5, 126720, Note_off_c, 9, 44, 95
5, 126720, Note_on_c, 9, 44, 95
5, 127680, Note_off_c, 9, 44, 95
5, 127680, Note_on_c, 9, 44, 95
5, 128640, Note_off_c, 9, 44, 95
5, 128640, Note_on_c, 9, 46, 95
5, 129600, Note_off_c, 9, 46, 95
5, 129600, Note_on_c, 9, 69, 95
5, 129600, Note_on_c, 9, 44, 95
5, 130560, Note_off_c, 9, 69, 95
5, 130560, Note_off_c, 9, 44, 95
5, 130560, Note_on_c, 9, 44, 95
5, 131520, Note_off_c, 9, 44, 95
5, 131520, Note_on_c, 9, 44, 95
5, 132480, Note_off_c, 9, 44, 95
5, 132480, Note_on_c, 9, 44, 95
5, 133440, Note_off_c, 9, 44, 95
5, 133440, Note_on_c, 9, 44, 95
5, 134400, Note_off_c, 9, 44, 95
5, 134400, Note_on_c, 9, 46, 95
5, 135360, Note_off_c, 9, 46, 95
5, 135360, Note_on_c, 9, 69, 95
5, 135360, Note_on_c, 9, 44, 95
5, 136320, Note_off_c, 9, 69, 95
5, 136320, Note_off_c, 9, 44, 95
5, 136320, Note_on_c, 9, 46, 95
5, 137280, Note_off_c, 9, 46, 95
5, 137280, Note_on_c, 9, 44, 95
5, 138240, Note_off_c, 9, 44, 95
5, 138240, Note_on_c, 9, 44, 95
5, 139200, Note_off_c, 9, 44, 95
5, 139200, Note_on_c, 9, 44, 95
5, 140160, Note_off_c, 9, 44, 95
5, 140160, Note_on_c, 9, 46, 95
5, 141120, Note_off_c, 9, 46, 95
5, 141120, Note_on_c, 9, 69, 95
5, 141120, Note_on_c, 9, 44, 95
5, 142080, Note_off_c, 9, 69, 95
5, 142080, Note_off_c, 9, 44, 95
5, 142080, Note_on_c, 9, 44, 95
5, 143040, Note_off_c, 9, 44, 95
5, 143040, Note_on_c, 9, 44, 95
5, 144000, Note_off_c, 9, 44, 95
5, 144000, Note_on_c, 9, 44, 95
5, 144960, Note_off_c, 9, 44, 95
5, 144960, Note_on_c, 9, 44, 95
5, 145920, Note_off_c, 9, 44, 95
5, 145920, Note_on_c, 9, 46, 95
5, 146880, Note_off_c, 9, 46, 95
5, 146880, Note_on_c, 9, 69, 95
5, 146880, Note_on_c, 9, 44, 95
5, 147840, Note_off_c, 9, 69, 95
5, 147840, Note_off_c, 9, 44, 95
5, 147840, Note_on_c, 9, 44, 95
5, 148800, Note_off_c, 9, 44, 95
5, 148800, Note_on_c, 9, 69, 95
5, 148800, Note_on_c, 9, 44, 95
5, 149760, Note_off_c, 9, 69, 95
5, 149760, Note_off_c, 9, 44, 95
5, 149760, Note_on_c, 9, 44, 95
5, 150720, Note_off_c, 9, 44, 95
5, 150720, Note_on_c, 9, 44, 95
5, 151680, Note_off_c, 9, 44, 95
5, 151680, Note_on_c, 9, 46, 95
5, 152640, Note_off_c, 9, 46, 95
5, 152640, Note_on_c, 9, 69, 95
5, 152640, Note_on_c, 9, 44, 95
5, 153600, Note_off_c, 9, 69, 95
5, 153600, Note_off_c, 9, 44, 95
5, 153600, Note_on_c, 9, 44, 95
5, 154560, Note_off_c, 9, 44, 95
5, 154560, Note_on_c, 9, 69, 95
5, 154560, Note_on_c, 9, 44, 95
5, 155520, Note_off_c, 9, 69, 95
5, 155520, Note_off_c, 9, 44, 95
5, 155520, Note_on_c, 9, 44, 95
5, 156480, Note_off_c, 9, 44, 95
5, 156480, Note_on_c, 9, 44, 95
5, 157440, Note_off_c, 9, 44, 95
5, 157440, Note_on_c, 9, 44, 95
5, 158400, Note_off_c, 9, 44, 95
5, 158400, Note_on_c, 9, 69, 95
5, 158400, Note_on_c, 9, 44, 95
5, 159360, Note_off_c, 9, 69, 95
5, 159360, Note_off_c, 9, 44, 95
5, 159360, Note_on_c, 9, 44, 95
5, 160320, Note_off_c, 9, 44, 95
5, 160320, Note_on_c, 9, 69, 95
5, 160320, Note_on_c, 9, 44, 95
5, 161280, Note_off_c, 9, 69, 95
5, 161280, Note_off_c, 9, 44, 95
5, 161280, Note_on_c, 9, 51, 95
5, 164160, Note_off_c, 9, 51, 95
5, 164160, Note_on_c, 9, 69, 95
5, 164160, Note_on_c, 9, 44, 95
5, 165120, Note_off_c, 9, 69, 95
5, 165120, Note_off_c, 9, 44, 95
5, 165120, Note_on_c, 9, 44, 95
5, 166080, Note_off_c, 9, 44, 95
5, 166080, Note_on_c, 9, 44, 95
5, 167040, Note_off_c, 9, 44, 95
5, 167040, Note_on_c, 9, 44, 95
5, 168000, Note_off_c, 9, 44, 95
5, 168000, Note_on_c, 9, 44, 95
5, 168960, Note_off_c, 9, 44, 95
5, 168960, Note_on_c, 9, 44, 95
5, 169920, Note_off_c, 9, 44, 95
5, 169920, Note_on_c, 9, 69, 95
5, 169920, Note_on_c, 9, 44, 95
5, 170880, Note_off_c, 9, 69, 95
5, 170880, Note_off_c, 9, 44, 95
5, 170880, Note_on_c, 9, 44, 95
5, 171840, Note_off_c, 9, 44, 95
5, 171840, Note_on_c, 9, 69, 95
5, 171840, Note_on_c, 9, 44, 95
5, 172800, Note_off_c, 9, 69, 95
5, 172800, Note_off_c, 9, 44, 95
5, 172800, Note_on_c, 9, 44, 95
5, 173760, Note_off_c, 9, 44, 95
5, 173760, Note_on_c, 9, 44, 95
5, 174720, Note_off_c, 9, 44, 95
5, 174720, Note_on_c, 9, 46, 95
5, 175680, Note_off_c, 9, 46, 95
5, 175680, Note_on_c, 9, 69, 95
5, 175680, Note_on_c, 9, 44, 95
5, 176640, Note_off_c, 9, 69, 95
5, 176640, Note_off_c, 9, 44, 95
5, 176640, Note_on_c, 9, 44, 95
5, 177600, Note_off_c, 9, 44, 95
5, 177600, Note_on_c, 9, 69, 95
5, 177600, Note_on_c, 9, 44, 95
5, 178560, Note_off_c, 9, 69, 95
5, 178560, Note_off_c, 9, 44, 95
5, 178560, Note_on_c, 9, 69, 95
5, 178560, Note_on_c, 9, 44, 95
5, 179520, Note_off_c, 9, 69, 95
5, 179520, Note_off_c, 9, 44, 95
5, 179520, Note_on_c, 9, 44, 95
5, 180480, Note_off_c, 9, 44, 95
5, 180480, Note_on_c, 9, 46, 95
5, 181440, Note_off_c, 9, 46, 95
5, 181440, Note_on_c, 9, 69, 95
5, 181440, Note_on_c, 9, 44, 95
5, 182400, Note_off_c, 9, 69, 95
5, 182400, Note_off_c, 9, 44, 95
5, 182400, Note_on_c, 9, 44, 95
5, 183360, Note_off_c, 9, 44, 95
5, 183360, Note_on_c, 9, 44, 95
5, 184320, Note_off_c, 9, 44, 95
5, 184320, Note_on_c, 9, 44, 95
5, 185280, Note_off_c, 9, 44, 95
5, 185280, Note_on_c, 9, 44, 95
5, 186240, Note_off_c, 9, 44, 95
5, 186240, Note_on_c, 9, 46, 95
5, 187200, Note_off_c, 9, 46, 95
5, 187200, Note_on_c, 9, 69, 95
5, 187200, Note_on_c, 9, 44, 95
5, 188160, Note_off_c, 9, 69, 95
5, 188160, Note_off_c, 9, 44, 95
5, 188160, Note_on_c, 9, 44, 95
5, 189120, Note_off_c, 9, 44, 95
5, 189120, Note_on_c, 9, 69, 95
5, 189120, Note_on_c, 9, 44, 95
5, 190080, Note_off_c, 9, 69, 95
5, 190080, Note_off_c, 9, 44, 95
5, 190080, Note_on_c, 9, 44, 95
5, 191040, Note_off_c, 9, 44, 95
5, 191040, Note_on_c, 9, 44, 95
5, 192000, Note_off_c, 9, 44, 95
5, 192000, Note_on_c, 9, 44, 95
5, 192960, Note_off_c, 9, 44, 95
5, 192960, Note_on_c, 9, 46, 95
5, 193920, Note_off_c, 9, 46, 95
5, 193920, Note_on_c, 9, 69, 95
5, 193920, Note_on_c, 9, 44, 95
5, 194880, Note_off_c, 9, 69, 95
5, 194880, Note_off_c, 9, 44, 95
5, 194880, Note_on_c, 9, 69, 95
5, 194880, Note_on_c, 9, 44, 95
5, 195840, Note_off_c, 9, 69, 95
5, 195840, Note_off_c, 9, 44, 95
5, 195840, Note_on_c, 9, 46, 95
5, 197760, Note_off_c, 9, 46, 95
5, 197760, Note_on_c, 9, 44, 95
5, 198720, Note_off_c, 9, 44, 95
5, 198720, Note_on_c, 9, 69, 95
5, 198720, Note_on_c, 9, 44, 95
5, 199680, Note_off_c, 9, 69, 95
5, 199680, Note_off_c, 9, 44, 95
5, 199680, Note_on_c, 9, 44, 95
5, 200640, Note_off_c, 9, 44, 95
5, 200640, Note_on_c, 9, 44, 95
5, 201600, Note_off_c, 9, 44, 95
5, 201600, Note_on_c, 9, 44, 95
5, 202560, Note_off_c, 9, 44, 95
5, 202560, Note_on_c, 9, 44, 95
5, 203520, Note_off_c, 9, 44, 95
5, 203520, Note_on_c, 9, 46, 95
5, 204480, Note_off_c, 9, 46, 95
5, 204480, Note_on_c, 9, 69, 95
5, 204480, Note_on_c, 9, 44, 95
5, 205440, Note_off_c, 9, 69, 95
5, 205440, Note_off_c, 9, 44, 95
5, 205440, Note_on_c, 9, 44, 95
5, 206400, Note_off_c, 9, 44, 95
5, 206400, Note_on_c, 9, 69, 95
5, 206400, Note_on_c, 9, 44, 95
5, 207360, Note_off_c, 9, 69, 95
5, 207360, Note_off_c, 9, 44, 95
5, 207360, Note_on_c, 9, 46, 95
5, 208320, Note_off_c, 9, 46, 95
5, 208320, Note_on_c, 9, 44, 95
5, 209280, Note_off_c, 9, 44, 95
5, 209280, Note_on_c, 9, 44, 95
5, 210240, Note_off_c, 9, 44, 95
5, 210240, Note_on_c, 9, 69, 95
5, 210240, Note_on_c, 9, 44, 95
5, 211200, Note_off_c, 9, 69, 95
5, 211200, Note_off_c, 9, 44, 95
5, 211200, Note_on_c, 9, 44, 95
5, 212160, Note_off_c, 9, 44, 95
5, 212160, Note_on_c, 9, 44, 95
5, 212800, Note_off_c, 9, 44, 95
5, 212800, Note_on_c, 9, 44, 95
5, 213120, Note_off_c, 9, 44, 95
5, 213120, Note_on_c, 9, 44, 95
5, 214080, Note_off_c, 9, 44, 95
5, 214080, Note_on_c, 9, 44, 95
5, 215040, Note_off_c, 9, 44, 95
5, 215040, Note_on_c, 9, 46, 47
5, 216000, Note_off_c, 9, 46, 47
5, 216000, Note_on_c, 9, 69, 95
5, 216000, Note_on_c, 9, 44, 95
5, 216960, Note_off_c, 9, 69, 95
5, 216960, Note_off_c, 9, 44, 95
5, 216960, Note_on_c, 9, 44, 95
5, 217920, Note_off_c, 9, 44, 95
5, 217920, Note_on_c, 9, 69, 95
5, 217920, Note_on_c, 9, 44, 95
5, 218880, Note_off_c, 9, 69, 95
5, 218880, Note_off_c, 9, 44, 95
5, 218880, Note_on_c, 9, 44, 95
5, 219840, Note_off_c, 9, 44, 95
5, 219840, Note_on_c, 9, 44, 95
5, 220800, Note_off_c, 9, 44, 95
5, 220800, Note_on_c, 9, 46, 95
5, 221760, Note_off_c, 9, 46, 95
5, 221760, Note_on_c, 9, 69, 95
5, 221760, Note_on_c, 9, 44, 95
5, 222720, Note_off_c, 9, 69, 95
5, 222720, Note_off_c, 9, 44, 95
5, 222720, Note_on_c, 9, 44, 95
5, 223680, Note_off_c, 9, 44, 95
5, 223680, Note_on_c, 9, 69, 95
5, 223680, Note_on_c, 9, 44, 95
5, 224640, Note_off_c, 9, 69, 95
5, 224640, Note_off_c, 9, 44, 95
5, 224640, Note_on_c, 9, 44, 95
5, 225600, Note_off_c, 9, 44, 95
5, 225600, Note_on_c, 9, 44, 95
5, 226560, Note_off_c, 9, 44, 95
5, 226560, Note_on_c, 9, 46, 95
5, 227520, Note_off_c, 9, 46, 95
5, 227520, Note_on_c, 9, 69, 95
5, 227520, Note_on_c, 9, 44, 95
5, 228480, Note_off_c, 9, 69, 95
5, 228480, Note_off_c, 9, 44, 95
5, 228480, Note_on_c, 9, 44, 95
5, 229440, Note_off_c, 9, 44, 95
5, 229440, Note_on_c, 9, 69, 95
5, 229440, Note_on_c, 9, 44, 95
5, 230400, Note_off_c, 9, 69, 95
5, 230400, Note_off_c, 9, 44, 95
5, 230400, Note_on_c, 9, 44, 95
5, 231360, Note_off_c, 9, 44, 95
5, 231360, Note_on_c, 9, 44, 95
5, 232320, Note_off_c, 9, 44, 95
5, 232320, Note_on_c, 9, 46, 95
5, 233280, Note_off_c, 9, 46, 95
5, 233280, Note_on_c, 9, 69, 95
5, 233280, Note_on_c, 9, 44, 95
5, 234240, Note_off_c, 9, 69, 95
5, 234240, Note_off_c, 9, 44, 95
5, 234240, Note_on_c, 9, 44, 95
5, 235200, Note_off_c, 9, 44, 95
5, 235200, Note_on_c, 9, 44, 95
5, 236160, Note_off_c, 9, 44, 95
5, 236160, Note_on_c, 9, 44, 95
5, 237120, Note_off_c, 9, 44, 95
5, 237120, Note_on_c, 9, 44, 95
5, 238080, Note_off_c, 9, 44, 95
5, 238080, Note_on_c, 9, 44, 95
5, 239040, Note_off_c, 9, 44, 95
5, 239040, Note_on_c, 9, 69, 95
5, 239040, Note_on_c, 9, 44, 95
5, 240000, Note_off_c, 9, 69, 95
5, 240000, Note_off_c, 9, 44, 95
5, 240000, Note_on_c, 9, 44, 95
5, 240960, Note_off_c, 9, 44, 95
5, 240960, Note_on_c, 9, 44, 95
5, 241920, Note_off_c, 9, 44, 95
5, 241920, Note_on_c, 9, 44, 95
5, 242880, Note_off_c, 9, 44, 95
5, 242880, Note_on_c, 9, 44, 95
5, 243840, Note_off_c, 9, 44, 95
5, 243840, Note_on_c, 9, 46, 95
5, 244800, Note_off_c, 9, 46, 95
5, 244800, Note_on_c, 9, 69, 95
5, 244800, Note_on_c, 9, 44, 95
5, 245760, Note_off_c, 9, 69, 95
5, 245760, Note_off_c, 9, 44, 95
5, 245760, Note_on_c, 9, 44, 95
5, 246720, Note_off_c, 9, 44, 95
5, 246720, Note_on_c, 9, 69, 95
5, 246720, Note_on_c, 9, 44, 95
5, 247680, Note_off_c, 9, 69, 95
5, 247680, Note_off_c, 9, 44, 95
5, 247680, Note_on_c, 9, 51, 95
5, 248640, Note_off_c, 9, 51, 95
5, 248640, Note_on_c, 9, 44, 95
5, 249600, Note_off_c, 9, 44, 95
5, 249600, Note_on_c, 9, 44, 95
5, 250560, Note_off_c, 9, 44, 95
5, 250560, Note_on_c, 9, 69, 95
5, 250560, Note_on_c, 9, 44, 95
5, 251520, Note_off_c, 9, 69, 95
5, 251520, Note_off_c, 9, 44, 95
5, 251520, Note_on_c, 9, 44, 95
5, 252480, Note_off_c, 9, 44, 95
5, 252480, Note_on_c, 9, 44, 95
5, 253120, Note_off_c, 9, 44, 95
5, 253120, Note_on_c, 9, 44, 95
5, 253440, Note_off_c, 9, 44, 95
5, 253440, Note_on_c, 9, 44, 95
5, 254400, Note_off_c, 9, 44, 95
5, 254400, Note_on_c, 9, 44, 95
5, 255360, Note_off_c, 9, 44, 95
5, 255360, Note_on_c, 9, 46, 95
5, 256320, Note_off_c, 9, 46, 95
5, 256320, Note_on_c, 9, 69, 95
5, 256320, Note_on_c, 9, 44, 95
5, 257280, Note_off_c, 9, 69, 95
5, 257280, Note_off_c, 9, 44, 95
5, 257280, Note_on_c, 9, 44, 95
5, 258240, Note_off_c, 9, 44, 95
5, 258240, Note_on_c, 9, 46, 95
5, 258240, Note_on_c, 9, 69, 95
5, 259200, Note_off_c, 9, 46, 95
5, 259200, Note_off_c, 9, 69, 95
5, 259200, Note_on_c, 9, 46, 95
5, 261120, Note_off_c, 9, 46, 95
5, 261120, Note_on_c, 9, 44, 95
5, 262080, Note_off_c, 9, 44, 95
5, 262080, Note_on_c, 9, 69, 95
5, 262080, Note_on_c, 9, 44, 95
5, 263040, Note_off_c, 9, 69, 95
5, 263040, Note_off_c, 9, 44, 95
5, 263040, Note_on_c, 9, 44, 95
5, 264000, Note_off_c, 9, 44, 95
5, 264000, Note_on_c, 9, 44, 95
5, 264960, Note_off_c, 9, 44, 95
5, 264960, Note_on_c, 9, 44, 95
5, 265920, Note_off_c, 9, 44, 95
5, 265920, Note_on_c, 9, 44, 95
5, 266880, Note_off_c, 9, 44, 95
5, 266880, Note_on_c, 9, 46, 95
5, 267840, Note_off_c, 9, 46, 95
5, 267840, Note_on_c, 9, 69, 95
5, 267840, Note_on_c, 9, 44, 95
5, 268800, Note_off_c, 9, 69, 95
5, 268800, Note_off_c, 9, 44, 95
5, 268800, Note_on_c, 9, 44, 95
5, 269760, Note_off_c, 9, 44, 95
5, 269760, Note_on_c, 9, 69, 95
5, 269760, Note_on_c, 9, 44, 95
5, 270720, Note_off_c, 9, 69, 95
5, 270720, Note_off_c, 9, 44, 95
5, 270720, Note_on_c, 9, 44, 95
5, 271680, Note_off_c, 9, 44, 95
5, 271680, Note_on_c, 9, 44, 95
5, 272640, Note_off_c, 9, 44, 95
5, 272640, Note_on_c, 9, 46, 95
5, 273600, Note_off_c, 9, 46, 95
5, 273600, Note_on_c, 9, 69, 95
5, 273600, Note_on_c, 9, 44, 95
5, 274560, Note_off_c, 9, 69, 95
5, 274560, Note_off_c, 9, 44, 95
5, 274560, Note_on_c, 9, 44, 95
5, 275520, Note_off_c, 9, 44, 95
5, 275520, Note_on_c, 9, 44, 95
5, 276480, Note_off_c, 9, 44, 95
5, 276480, Note_on_c, 9, 44, 95
5, 277440, Note_off_c, 9, 44, 95
5, 277440, Note_on_c, 9, 44, 95
5, 278400, Note_off_c, 9, 44, 95
5, 278400, Note_on_c, 9, 46, 95
5, 279360, Note_off_c, 9, 46, 95
5, 279360, Note_on_c, 9, 69, 95
5, 279360, Note_on_c, 9, 44, 95
5, 280320, Note_off_c, 9, 69, 95
5, 280320, Note_off_c, 9, 44, 95
5, 280320, Note_on_c, 9, 44, 95
5, 281280, Note_off_c, 9, 44, 95
5, 281280, Note_on_c, 9, 69, 95
5, 281280, Note_on_c, 9, 44, 95
5, 282240, Note_off_c, 9, 69, 95
5, 282240, Note_off_c, 9, 44, 95
5, 282240, Note_on_c, 9, 44, 95
5, 283200, Note_off_c, 9, 44, 95
5, 283200, Note_on_c, 9, 44, 95
5, 284160, Note_off_c, 9, 44, 95
5, 284160, Note_on_c, 9, 46, 95
5, 285120, Note_off_c, 9, 46, 95
5, 285120, Note_on_c, 9, 69, 95
5, 285120, Note_on_c, 9, 44, 95
5, 286080, Note_off_c, 9, 69, 95
5, 286080, Note_off_c, 9, 44, 95
5, 286080, Note_on_c, 9, 44, 95
5, 287040, Note_off_c, 9, 44, 95
5, 287040, Note_on_c, 9, 69, 95
5, 287040, Note_on_c, 9, 44, 95
5, 288000, Note_off_c, 9, 69, 95
5, 288000, Note_off_c, 9, 44, 95
5, 288000, Note_on_c, 9, 44, 95
5, 288960, Note_off_c, 9, 44, 95
5, 288960, Note_on_c, 9, 44, 95
5, 289920, Note_off_c, 9, 44, 95
5, 289920, Note_on_c, 9, 44, 95
5, 290880, Note_off_c, 9, 44, 95
5, 290880, Note_on_c, 9, 46, 95
5, 290880, Note_on_c, 9, 69, 95
5, 291840, Note_off_c, 9, 69, 95
5, 291840, Note_on_c, 9, 69, 95
5, 292800, Note_off_c, 9, 69, 95
5, 292800, Note_on_c, 9, 69, 95
5, 293760, Note_off_c, 9, 46, 95
5, 293760, Note_off_c, 9, 69, 95
5, 293760, Note_on_c, 9, 46, 95
5, 294720, Note_off_c, 9, 46, 95
5, 294720, Note_on_c, 9, 44, 95
5, 295680, Note_off_c, 9, 44, 95
5, 295680, Note_on_c, 9, 44, 95
5, 296640, Note_off_c, 9, 44, 95
5, 296640, Note_on_c, 9, 69, 95
5, 296640, Note_on_c, 9, 44, 95
5, 297600, Note_off_c, 9, 69, 95
5, 297600, Note_off_c, 9, 44, 95
5, 297600, Note_on_c, 9, 44, 95
5, 298560, Note_off_c, 9, 44, 95
5, 298560, Note_on_c, 9, 69, 95
5, 298560, Note_on_c, 9, 44, 95
5, 299520, Note_off_c, 9, 69, 95
5, 299520, Note_off_c, 9, 44, 95
5, 299520, Note_on_c, 9, 44, 95
5, 300480, Note_off_c, 9, 44, 95
5, 300480, Note_on_c, 9, 44, 95
5, 301440, Note_off_c, 9, 44, 95
5, 301440, Note_on_c, 9, 44, 95
5, 302400, Note_off_c, 9, 44, 95
5, 302400, Note_on_c, 9, 46, 95
5, 302400, Note_on_c, 9, 69, 95
5, 303360, Note_off_c, 9, 69, 95
5, 303360, Note_on_c, 9, 69, 95
5, 304320, Note_off_c, 9, 69, 95
5, 304320, Note_on_c, 9, 69, 95
5, 305280, Note_off_c, 9, 46, 95
5, 305280, Note_off_c, 9, 69, 95
5, 305280, Note_on_c, 9, 46, 95
5, 306240, Note_off_c, 9, 46, 95
5, 306240, Note_on_c, 9, 51, 95
5, 307200, Note_off_c, 9, 51, 95
5, 307200, Note_on_c, 9, 51, 95
5, 308160, Note_off_c, 9, 51, 95
5, 308160, Note_on_c, 9, 69, 95
5, 308160, Note_on_c, 9, 51, 95
5, 309120, Note_off_c, 9, 69, 95
5, 309120, Note_off_c, 9, 51, 95
5, 309120, Note_on_c, 9, 51, 95
5, 310080, Note_off_c, 9, 51, 95
5, 310080, Note_on_c, 9, 51, 95
5, 310720, Note_off_c, 9, 51, 95
5, 310720, Note_on_c, 9, 51, 95
5, 311040, Note_off_c, 9, 51, 95
5, 311040, Note_on_c, 9, 51, 95
5, 312000, Note_off_c, 9, 51, 95
5, 312000, Note_on_c, 9, 51, 95
5, 312960, Note_off_c, 9, 51, 95
5, 312960, Note_on_c, 9, 51, 95
5, 313920, Note_off_c, 9, 51, 95
5, 313920, Note_on_c, 9, 69, 95
5, 313920, Note_on_c, 9, 51, 95
5, 314880, Note_off_c, 9, 69, 95
5, 314880, Note_off_c, 9, 51, 95
5, 314880, Note_on_c, 9, 51, 95
5, 315840, Note_off_c, 9, 51, 95
5, 315840, Note_on_c, 9, 69, 95
5, 315840, Note_on_c, 9, 51, 95
5, 316800, Note_off_c, 9, 69, 95
5, 316800, Note_off_c, 9, 51, 95
5, 316800, Note_on_c, 9, 51, 95
5, 317760, Note_off_c, 9, 51, 95
5, 317760, Note_on_c, 9, 51, 95
5, 318720, Note_off_c, 9, 51, 95
5, 318720, Note_on_c, 9, 51, 95
5, 319680, Note_off_c, 9, 51, 95
5, 319680, Note_on_c, 9, 69, 95
5, 319680, Note_on_c, 9, 51, 95
5, 320640, Note_off_c, 9, 69, 95
5, 320640, Note_off_c, 9, 51, 95
5, 320640, Note_on_c, 9, 51, 95
5, 321600, Note_off_c, 9, 51, 95
5, 321600, Note_on_c, 9, 69, 95
5, 321600, Note_on_c, 9, 51, 95
5, 322560, Note_off_c, 9, 69, 95
5, 322560, Note_off_c, 9, 51, 95
5, 322560, Note_on_c, 9, 51, 95
5, 323520, Note_off_c, 9, 51, 95
5, 323520, Note_on_c, 9, 51, 95
5, 324480, Note_off_c, 9, 51, 95
5, 324480, Note_on_c, 9, 51, 95
5, 325440, Note_off_c, 9, 51, 95
5, 325440, Note_on_c, 9, 69, 95
5, 325440, Note_on_c, 9, 51, 95
5, 326400, Note_off_c, 9, 69, 95
5, 326400, Note_off_c, 9, 51, 95
5, 326400, Note_on_c, 9, 51, 95
5, 327360, Note_off_c, 9, 51, 95
5, 327360, Note_on_c, 9, 69, 95
5, 327360, Note_on_c, 9, 51, 95
5, 328320, Note_off_c, 9, 69, 95
5, 328320, Note_off_c, 9, 51, 95
5, 328320, Note_on_c, 9, 51, 95
5, 329280, Note_off_c, 9, 51, 95
5, 329280, Note_on_c, 9, 51, 95
5, 330240, Note_off_c, 9, 51, 95
5, 330240, Note_on_c, 9, 51, 95
5, 331200, Note_off_c, 9, 51, 95
5, 331200, Note_on_c, 9, 69, 95
5, 331200, Note_on_c, 9, 51, 95
5, 332160, Note_off_c, 9, 69, 95
5, 332160, Note_off_c, 9, 51, 95
5, 332160, Note_on_c, 9, 51, 95
5, 333120, Note_off_c, 9, 51, 95
5, 333120, Note_on_c, 9, 69, 95
5, 333120, Note_on_c, 9, 51, 95
5, 334080, Note_off_c, 9, 69, 95
5, 334080, Note_off_c, 9, 51, 95
5, 334080, Note_on_c, 9, 51, 95
5, 335040, Note_off_c, 9, 51, 95
5, 335040, Note_on_c, 9, 51, 95
5, 336000, Note_off_c, 9, 51, 95
5, 336000, Note_on_c, 9, 51, 95
5, 336960, Note_off_c, 9, 51, 95
5, 336960, Note_on_c, 9, 69, 95
5, 336960, Note_on_c, 9, 51, 95
5, 337920, Note_off_c, 9, 69, 95
5, 337920, Note_off_c, 9, 51, 95
5, 337920, Note_on_c, 9, 51, 95
5, 338880, Note_off_c, 9, 51, 95
5, 338880, Note_on_c, 9, 69, 95
5, 338880, Note_on_c, 9, 51, 95
5, 339840, Note_off_c, 9, 69, 95
5, 339840, Note_off_c, 9, 51, 95
5, 339840, Note_on_c, 9, 51, 95
5, 340800, Note_off_c, 9, 51, 95
5, 340800, Note_on_c, 9, 51, 95
5, 341760, Note_off_c, 9, 51, 95
5, 341760, Note_on_c, 9, 51, 95
5, 342720, Note_off_c, 9, 51, 95
5, 342720, Note_on_c, 9, 69, 95
5, 342720, Note_on_c, 9, 51, 95
5, 343680, Note_off_c, 9, 69, 95
5, 343680, Note_off_c, 9, 51, 95
5, 343680, Note_on_c, 9, 51, 95
5, 344640, Note_off_c, 9, 51, 95
5, 344640, Note_on_c, 9, 46, 95
5, 344640, Note_on_c, 9, 51, 95
5, 345600, Note_off_c, 9, 46, 95
5, 345600, Note_off_c, 9, 51, 95
5, 345600, Note_on_c, 9, 46, 95
5, 345600, Note_on_c, 9, 51, 95
5, 347520, Note_off_c, 9, 46, 95
5, 347520, Note_off_c, 9, 51, 95
5, 347520, Note_on_c, 9, 51, 95
5, 348480, Note_off_c, 9, 51, 95
5, 348480, Note_on_c, 9, 69, 95
5, 348480, Note_on_c, 9, 51, 95
5, 349440, Note_off_c, 9, 69, 95
5, 349440, Note_off_c, 9, 51, 95
5, 349440, Note_on_c, 9, 51, 95
5, 350400, Note_off_c, 9, 51, 95
5, 350400, Note_on_c, 9, 69, 95
5, 350400, Note_on_c, 9, 51, 95
5, 351360, Note_off_c, 9, 69, 95
5, 351360, Note_off_c, 9, 51, 95
5, 351360, Note_on_c, 9, 51, 95
5, 352320, Note_off_c, 9, 51, 95
5, 352320, Note_on_c, 9, 51, 95
5, 353280, Note_off_c, 9, 51, 95
5, 353280, Note_on_c, 9, 51, 95
5, 354240, Note_off_c, 9, 51, 95
5, 354240, Note_on_c, 9, 69, 95
5, 354240, Note_on_c, 9, 51, 95
5, 355200, Note_off_c, 9, 69, 95
5, 355200, Note_off_c, 9, 51, 95
5, 355200, Note_on_c, 9, 51, 95
5, 356160, Note_off_c, 9, 51, 95
5, 356160, Note_on_c, 9, 46, 95
5, 356160, Note_on_c, 9, 51, 95
5, 357120, Note_off_c, 9, 46, 95
5, 357120, Note_off_c, 9, 51, 95
5, 357120, Note_on_c, 9, 46, 95
5, 357120, Note_on_c, 9, 51, 95
5, 359040, Note_off_c, 9, 46, 95
5, 359040, Note_off_c, 9, 51, 95
5, 359040, Note_on_c, 9, 51, 95
5, 360000, Note_off_c, 9, 51, 95
5, 360000, Note_on_c, 9, 69, 95
5, 360000, Note_on_c, 9, 51, 95
5, 360960, Note_off_c, 9, 69, 95
5, 360960, Note_off_c, 9, 51, 95
5, 360960, Note_on_c, 9, 51, 95
5, 361920, Note_off_c, 9, 51, 95
5, 361920, Note_on_c, 9, 69, 95
5, 361920, Note_on_c, 9, 51, 95
5, 362880, Note_off_c, 9, 69, 95
5, 362880, Note_off_c, 9, 51, 95
5, 362880, Note_on_c, 9, 51, 95
5, 363840, Note_off_c, 9, 51, 95
5, 363840, Note_on_c, 9, 51, 95
5, 364800, Note_off_c, 9, 51, 95
5, 364800, Note_on_c, 9, 51, 95
5, 365760, Note_off_c, 9, 51, 95
5, 365760, Note_on_c, 9, 69, 95
5, 365760, Note_on_c, 9, 51, 95
5, 366720, Note_off_c, 9, 69, 95
5, 366720, Note_off_c, 9, 51, 95
5, 366720, Note_on_c, 9, 51, 95
5, 367680, Note_off_c, 9, 51, 95
5, 367680, Note_on_c, 9, 69, 95
5, 367680, Note_on_c, 9, 51, 95
5, 368640, Note_off_c, 9, 69, 95
5, 368640, Note_off_c, 9, 51, 95
5, 368640, Note_on_c, 9, 51, 95
5, 369600, Note_off_c, 9, 51, 95
5, 369600, Note_on_c, 9, 51, 95
5, 370560, Note_off_c, 9, 51, 95
5, 370560, Note_on_c, 9, 51, 95
5, 371520, Note_off_c, 9, 51, 95
5, 371520, Note_on_c, 9, 69, 95
5, 371520, Note_on_c, 9, 51, 95
5, 372480, Note_off_c, 9, 69, 95
5, 372480, Note_off_c, 9, 51, 95
5, 372480, Note_on_c, 9, 51, 95
5, 373440, Note_off_c, 9, 51, 95
5, 373440, Note_on_c, 9, 69, 95
5, 373440, Note_on_c, 9, 51, 95
5, 374400, Note_off_c, 9, 69, 95
5, 374400, Note_off_c, 9, 51, 95
5, 374400, Note_on_c, 9, 46, 95
5, 374400, Note_on_c, 9, 51, 95
5, 375360, Note_off_c, 9, 46, 95
5, 375360, Note_off_c, 9, 51, 95
5, 375360, Note_on_c, 9, 51, 95
5, 376320, Note_off_c, 9, 51, 95
5, 376320, Note_on_c, 9, 51, 95
5, 377280, Note_off_c, 9, 51, 95
5, 377280, Note_on_c, 9, 69, 95
5, 377280, Note_on_c, 9, 51, 95
5, 378240, Note_off_c, 9, 69, 95
5, 378240, Note_off_c, 9, 51, 95
5, 378240, Note_on_c, 9, 51, 95
5, 379200, Note_off_c, 9, 51, 95
5, 379200, Note_on_c, 9, 69, 95
5, 379200, Note_on_c, 9, 51, 95
5, 380160, Note_off_c, 9, 69, 95
5, 380160, Note_off_c, 9, 51, 95
5, 380160, Note_on_c, 9, 51, 95
5, 381120, Note_off_c, 9, 51, 95
5, 381120, Note_on_c, 9, 51, 95
5, 382080, Note_off_c, 9, 51, 95
5, 382080, Note_on_c, 9, 51, 95
5, 383040, Note_off_c, 9, 51, 95
5, 383040, Note_on_c, 9, 69, 95
5, 383040, Note_on_c, 9, 51, 95
5, 384000, Note_off_c, 9, 69, 95
5, 384000, Note_off_c, 9, 51, 95
5, 384000, Note_on_c, 9, 51, 95
5, 384960, Note_off_c, 9, 51, 95
5, 384960, Note_on_c, 9, 69, 95
5, 384960, Note_on_c, 9, 51, 95
5, 385920, Note_off_c, 9, 69, 95
5, 385920, Note_off_c, 9, 51, 95
5, 385920, Note_on_c, 9, 51, 95
5, 386880, Note_off_c, 9, 51, 95
5, 386880, Note_on_c, 9, 51, 95
5, 387840, Note_off_c, 9, 51, 95
5, 387840, Note_on_c, 9, 51, 95
5, 388800, Note_off_c, 9, 51, 95
5, 388800, Note_on_c, 9, 69, 95
5, 388800, Note_on_c, 9, 51, 95
5, 389760, Note_off_c, 9, 69, 95
5, 389760, Note_off_c, 9, 51, 95
5, 389760, Note_on_c, 9, 69, 95
5, 389760, Note_on_c, 9, 51, 95
5, 390720, Note_off_c, 9, 69, 95
5, 390720, Note_off_c, 9, 51, 95
5, 390720, Note_on_c, 9, 69, 95
5, 390720, Note_on_c, 9, 51, 95
5, 391680, Note_off_c, 9, 69, 95
5, 391680, Note_off_c, 9, 51, 95
5, 391680, Note_on_c, 9, 46, 95
5, 392640, Note_off_c, 9, 46, 95
5, 392640, Note_on_c, 9, 51, 95
5, 393600, Note_off_c, 9, 51, 95
5, 393600, Note_on_c, 9, 51, 95
5, 394560, Note_off_c, 9, 51, 95
5, 394560, Note_on_c, 9, 69, 95
5, 394560, Note_on_c, 9, 51, 95
5, 395520, Note_off_c, 9, 69, 95
5, 395520, Note_off_c, 9, 51, 95
5, 395520, Note_on_c, 9, 51, 95
5, 396480, Note_off_c, 9, 51, 95
5, 396480, Note_on_c, 9, 69, 95
5, 396480, Note_on_c, 9, 51, 95
5, 397120, Note_off_c, 9, 69, 95
5, 397120, Note_off_c, 9, 51, 95
5, 397120, Note_on_c, 9, 51, 95
5, 397440, Note_off_c, 9, 51, 95
5, 397440, Note_on_c, 9, 51, 95
5, 398400, Note_off_c, 9, 51, 95
5, 398400, Note_on_c, 9, 51, 95
5, 399360, Note_off_c, 9, 51, 95
5, 399360, Note_on_c, 9, 51, 95
5, 400320, Note_off_c, 9, 51, 95
5, 400320, Note_on_c, 9, 69, 95
5, 400320, Note_on_c, 9, 51, 95
5, 401280, Note_off_c, 9, 69, 95
5, 401280, Note_off_c, 9, 51, 95
5, 401280, Note_on_c, 9, 46, 95
5, 401280, Note_on_c, 9, 69, 95
5, 402240, Note_off_c, 9, 69, 95
5, 402240, Note_on_c, 9, 69, 95
5, 403200, Note_off_c, 9, 46, 95
5, 403200, Note_off_c, 9, 69, 95
5, 403200, Note_on_c, 9, 51, 95
5, 406080, Note_off_c, 9, 51, 95
5, 406080, Note_on_c, 9, 69, 95
5, 406080, Note_on_c, 9, 44, 95
5, 407040, Note_off_c, 9, 69, 95
5, 407040, Note_off_c, 9, 44, 95
5, 407040, Note_on_c, 9, 44, 95
5, 408000, Note_off_c, 9, 44, 95
5, 408000, Note_on_c, 9, 44, 95
5, 408960, Note_off_c, 9, 44, 95
5, 408960, Note_on_c, 9, 44, 95
5, 409920, Note_off_c, 9, 44, 95
5, 409920, Note_on_c, 9, 44, 95
5, 410880, Note_off_c, 9, 44, 95
5, 410880, Note_on_c, 9, 44, 95
5, 411840, Note_off_c, 9, 44, 95
5, 411840, Note_on_c, 9, 69, 95
5, 411840, Note_on_c, 9, 44, 95
5, 412800, Note_off_c, 9, 69, 95
5, 412800, Note_off_c, 9, 44, 95
5, 412800, Note_on_c, 9, 44, 95
5, 413760, Note_off_c, 9, 44, 95
5, 413760, Note_on_c, 9, 44, 95
5, 414720, Note_off_c, 9, 44, 95
5, 414720, Note_on_c, 9, 44, 95
5, 415680, Note_off_c, 9, 44, 95
5, 415680, Note_on_c, 9, 44, 95
5, 416640, Note_off_c, 9, 44, 95
5, 416640, Note_on_c, 9, 46, 95
5, 417600, Note_off_c, 9, 46, 95
5, 417600, Note_on_c, 9, 69, 95
5, 417600, Note_on_c, 9, 44, 95
5, 418560, Note_off_c, 9, 69, 95
5, 418560, Note_off_c, 9, 44, 95
5, 418560, Note_on_c, 9, 44, 95
5, 419520, Note_off_c, 9, 44, 95
5, 419520, Note_on_c, 9, 69, 95
5, 419520, Note_on_c, 9, 44, 95
5, 420480, Note_off_c, 9, 69, 95
5, 420480, Note_off_c, 9, 44, 95
5, 420480, Note_on_c, 9, 44, 95
5, 421440, Note_off_c, 9, 44, 95
5, 421440, Note_on_c, 9, 44, 95
5, 422400, Note_off_c, 9, 44, 95
5, 422400, Note_on_c, 9, 44, 95
5, 423360, Note_off_c, 9, 44, 95
5, 423360, Note_on_c, 9, 69, 95
5, 423360, Note_on_c, 9, 44, 95
5, 424320, Note_off_c, 9, 69, 95
5, 424320, Note_off_c, 9, 44, 95
5, 424320, Note_on_c, 9, 44, 95
5, 425280, Note_off_c, 9, 44, 95
5, 425280, Note_on_c, 9, 69, 95
5, 425280, Note_on_c, 9, 44, 95
5, 426240, Note_off_c, 9, 69, 95
5, 426240, Note_off_c, 9, 44, 95
5, 426240, Note_on_c, 9, 51, 95
5, 427200, Note_off_c, 9, 51, 95
5, 427200, Note_on_c, 9, 44, 95
5, 428160, Note_off_c, 9, 44, 95
5, 428160, Note_on_c, 9, 46, 95
5, 429120, Note_off_c, 9, 46, 95
5, 429120, Note_on_c, 9, 69, 95
5, 429120, Note_on_c, 9, 44, 95
5, 430080, Note_off_c, 9, 69, 95
5, 430080, Note_off_c, 9, 44, 95
5, 430080, Note_on_c, 9, 44, 95
5, 431040, Note_off_c, 9, 44, 95
5, 431040, Note_on_c, 9, 69, 95
5, 431040, Note_on_c, 9, 44, 95
5, 432000, Note_off_c, 9, 69, 95
5, 432000, Note_off_c, 9, 44, 95
5, 432000, Note_on_c, 9, 44, 95
5, 432960, Note_off_c, 9, 44, 95
5, 432960, Note_on_c, 9, 44, 95
5, 433920, Note_off_c, 9, 44, 95
5, 433920, Note_on_c, 9, 46, 95
5, 434880, Note_off_c, 9, 46, 95
5, 434880, Note_on_c, 9, 69, 95
5, 434880, Note_on_c, 9, 44, 95
5, 435840, Note_off_c, 9, 69, 95
5, 435840, Note_off_c, 9, 44, 95
5, 435840, Note_on_c, 9, 44, 95
5, 436800, Note_off_c, 9, 44, 95
5, 436800, Note_on_c, 9, 69, 95
5, 436800, Note_on_c, 9, 44, 95
5, 437760, Note_off_c, 9, 69, 95
5, 437760, Note_off_c, 9, 44, 95
5, 437760, Note_on_c, 9, 51, 95
5, 440640, Note_off_c, 9, 51, 95
5, 440640, Note_on_c, 9, 69, 95
5, 440640, Note_on_c, 9, 44, 95
5, 441600, Note_off_c, 9, 69, 95
5, 441600, Note_off_c, 9, 44, 95
5, 441600, Note_on_c, 9, 44, 95
5, 442560, Note_off_c, 9, 44, 95
5, 442560, Note_on_c, 9, 69, 95
5, 442560, Note_on_c, 9, 44, 95
5, 443520, Note_off_c, 9, 69, 95
5, 443520, Note_off_c, 9, 44, 95
5, 443520, Note_on_c, 9, 44, 95
5, 444480, Note_off_c, 9, 44, 95
5, 444480, Note_on_c, 9, 44, 95
5, 445440, Note_off_c, 9, 44, 95
5, 445440, Note_on_c, 9, 44, 95
5, 446400, Note_off_c, 9, 44, 95
5, 446400, Note_on_c, 9, 51, 95
5, 446400, Note_on_c, 9, 69, 95
5, 447360, Note_off_c, 9, 51, 95
5, 447360, Note_off_c, 9, 69, 95
5, 447360, Note_on_c, 9, 46, 95
5, 447360, Note_on_c, 9, 69, 95
5, 448320, Note_off_c, 9, 69, 95
5, 448320, Note_on_c, 9, 69, 95
5, 449280, Note_off_c, 9, 46, 95
5, 449280, Note_off_c, 9, 69, 95
5, 449280, Note_on_c, 9, 46, 95
5, 452160, Note_off_c, 9, 46, 95
5, 452160, End_track
0, 0, End_of_file
