0, 0, Header, 1, 21, 120
1, 0, Start_track
1, 0, Title_t, "untitled"
1, 0, Time_signature, 4, 2, 24, 8
1, 0, Key_signature, 0, "major"
1, 0, Tempo, 576923
1, 0, End_track
2, 0, Start_track
2, 0, MIDI_port, 0
2, 0, Title_t, "Drums"
2, 0, Control_c, 9, 7, 127
2, 0, Program_c, 9, 0
2, 0, Control_c, 9, 123, 0
2, 0, Note_on_c, 9, 37, 94
2, 120, Note_on_c, 9, 37, 0
2, 240, Note_on_c, 9, 37, 94
2, 360, Note_on_c, 9, 37, 0
2, 480, Note_on_c, 9, 37, 74
2, 600, Note_on_c, 9, 37, 0
2, 600, Note_on_c, 9, 37, 94
2, 720, Note_on_c, 9, 37, 0
2, 720, Note_on_c, 9, 37, 74
2, 840, Note_on_c, 9, 37, 0
2, 840, Note_on_c, 9, 37, 94
2, 960, Note_on_c, 9, 37, 0
2, 960, Note_on_c, 9, 35, 110
2, 960, Note_on_c, 9, 42, 110
2, 960, Note_on_c, 9, 49, 110
2, 985, Note_on_c, 9, 49, 0
2, 985, Note_on_c, 9, 42, 0
2, 985, Note_on_c, 9, 35, 0
2, 1020, Note_on_c, 9, 42, 80
2, 1045, Note_on_c, 9, 42, 0
2, 1080, Note_on_c, 9, 38, 125
2, 1080, Note_on_c, 9, 42, 110
2, 1105, Note_on_c, 9, 42, 0
2, 1105, Note_on_c, 9, 38, 0
2, 1140, Note_on_c, 9, 42, 80
2, 1165, Note_on_c, 9, 42, 0
2, 1200, Note_on_c, 9, 35, 110
2, 1200, Note_on_c, 9, 42, 110
2, 1225, Note_on_c, 9, 42, 0
2, 1225, Note_on_c, 9, 35, 0
2, 1260, Note_on_c, 9, 35, 100
2, 1260, Note_on_c, 9, 42, 80
2, 1285, Note_on_c, 9, 42, 0
2, 1285, Note_on_c, 9, 35, 0
2, 1320, Note_on_c, 9, 38, 125
2, 1320, Note_on_c, 9, 42, 110
2, 1345, Note_on_c, 9, 42, 0
2, 1345, Note_on_c, 9, 38, 0
2, 1380, Note_on_c, 9, 42, 80
2, 1405, Note_on_c, 9, 42, 0
2, 1440, Note_on_c, 9, 35, 110
2, 1440, Note_on_c, 9, 42, 110
2, 1465, Note_on_c, 9, 42, 0
2, 1465, Note_on_c, 9, 35, 0
2, 1500, Note_on_c, 9, 42, 80
2, 1525, Note_on_c, 9, 42, 0
2, 1560, Note_on_c, 9, 38, 125
2, 1560, Note_on_c, 9, 42, 110
2, 1585, Note_on_c, 9, 42, 0
2, 1585, Note_on_c, 9, 38, 0
2, 1620, Note_on_c, 9, 42, 80
2, 1645, Note_on_c, 9, 42, 0
2, 1680, Note_on_c, 9, 35, 110
2, 1680, Note_on_c, 9, 42, 110
2, 1705, Note_on_c, 9, 42, 0
2, 1705, Note_on_c, 9, 35, 0
2, 1740, Note_on_c, 9, 35, 100
2, 1740, Note_on_c, 9, 42, 64
2, 1765, Note_on_c, 9, 42, 0
2, 1765, Note_on_c, 9, 35, 0
2, 1800, Note_on_c, 9, 38, 125
2, 1800, Note_on_c, 9, 42, 110
2, 1825, Note_on_c, 9, 42, 0
2, 1825, Note_on_c, 9, 38, 0
2, 1860, Note_on_c, 9, 35, 105
2, 1860, Note_on_c, 9, 42, 80
2, 1885, Note_on_c, 9, 42, 0
2, 1885, Note_on_c, 9, 35, 0
2, 1920, Note_on_c, 9, 35, 110
2, 1920, Note_on_c, 9, 42, 110
2, 1945, Note_on_c, 9, 42, 0
2, 1945, Note_on_c, 9, 35, 0
2, 1980, Note_on_c, 9, 42, 76
2, 2005, Note_on_c, 9, 42, 0
2, 2040, Note_on_c, 9, 38, 125
2, 2040, Note_on_c, 9, 42, 110
2, 2065, Note_on_c, 9, 42, 0
2, 2065, Note_on_c, 9, 38, 0
2, 2100, Note_on_c, 9, 42, 70
2, 2125, Note_on_c, 9, 42, 0
2, 2160, Note_on_c, 9, 35, 110
2, 2160, Note_on_c, 9, 42, 115
2, 2185, Note_on_c, 9, 42, 0
2, 2185, Note_on_c, 9, 35, 0
2, 2220, Note_on_c, 9, 35, 100
2, 2220, Note_on_c, 9, 42, 85
2, 2245, Note_on_c, 9, 42, 0
2, 2245, Note_on_c, 9, 35, 0
2, 2280, Note_on_c, 9, 38, 125
2, 2280, Note_on_c, 9, 42, 120
2, 2305, Note_on_c, 9, 42, 0
2, 2305, Note_on_c, 9, 38, 0
2, 2340, Note_on_c, 9, 42, 87
2, 2365, Note_on_c, 9, 42, 0
2, 2400, Note_on_c, 9, 35, 110
2, 2400, Note_on_c, 9, 42, 110
2, 2425, Note_on_c, 9, 42, 0
2, 2425, Note_on_c, 9, 35, 0
2, 2460, Note_on_c, 9, 42, 80
2, 2485, Note_on_c, 9, 42, 0
2, 2520, Note_on_c, 9, 38, 125
2, 2520, Note_on_c, 9, 42, 110
2, 2545, Note_on_c, 9, 42, 0
2, 2545, Note_on_c, 9, 38, 0
2, 2580, Note_on_c, 9, 42, 80
2, 2605, Note_on_c, 9, 42, 0
2, 2640, Note_on_c, 9, 35, 110
2, 2640, Note_on_c, 9, 42, 118
2, 2665, Note_on_c, 9, 42, 0
2, 2665, Note_on_c, 9, 35, 0
2, 2700, Note_on_c, 9, 35, 100
2, 2700, Note_on_c, 9, 42, 80
2, 2725, Note_on_c, 9, 42, 0
2, 2725, Note_on_c, 9, 35, 0
2, 2760, Note_on_c, 9, 38, 125
2, 2760, Note_on_c, 9, 42, 110
2, 2785, Note_on_c, 9, 42, 0
2, 2785, Note_on_c, 9, 38, 0
2, 2820, Note_on_c, 9, 35, 105
2, 2820, Note_on_c, 9, 42, 80
2, 2845, Note_on_c, 9, 42, 0
2, 2845, Note_on_c, 9, 35, 0
2, 2880, Note_on_c, 9, 35, 110
2, 2880, Note_on_c, 9, 42, 110
2, 2905, Note_on_c, 9, 42, 0
2, 2905, Note_on_c, 9, 35, 0
2, 2940, Note_on_c, 9, 42, 80
2, 2965, Note_on_c, 9, 42, 0
2, 3000, Note_on_c, 9, 38, 125
2, 3000, Note_on_c, 9, 42, 110
2, 3025, Note_on_c, 9, 42, 0
2, 3025, Note_on_c, 9, 38, 0
2, 3060, Note_on_c, 9, 42, 80
2, 3085, Note_on_c, 9, 42, 0
2, 3120, Note_on_c, 9, 35, 110
2, 3120, Note_on_c, 9, 42, 110
2, 3145, Note_on_c, 9, 42, 0
2, 3145, Note_on_c, 9, 35, 0
2, 3180, Note_on_c, 9, 35, 100
2, 3180, Note_on_c, 9, 42, 80
2, 3205, Note_on_c, 9, 42, 0
2, 3205, Note_on_c, 9, 35, 0
2, 3240, Note_on_c, 9, 38, 125
2, 3240, Note_on_c, 9, 42, 110
2, 3265, Note_on_c, 9, 42, 0
2, 3265, Note_on_c, 9, 38, 0
2, 3300, Note_on_c, 9, 42, 80
2, 3325, Note_on_c, 9, 42, 0
2, 3360, Note_on_c, 9, 35, 110
2, 3360, Note_on_c, 9, 42, 114
2, 3385, Note_on_c, 9, 42, 0
2, 3385, Note_on_c, 9, 35, 0
2, 3420, Note_on_c, 9, 42, 80
2, 3445, Note_on_c, 9, 42, 0
2, 3480, Note_on_c, 9, 38, 125
2, 3480, Note_on_c, 9, 42, 104
2, 3505, Note_on_c, 9, 42, 0
2, 3505, Note_on_c, 9, 38, 0
2, 3540, Note_on_c, 9, 42, 65
2, 3565, Note_on_c, 9, 42, 0
2, 3600, Note_on_c, 9, 35, 110
2, 3600, Note_on_c, 9, 42, 110
2, 3625, Note_on_c, 9, 42, 0
2, 3625, Note_on_c, 9, 35, 0
2, 3660, Note_on_c, 9, 35, 100
2, 3660, Note_on_c, 9, 42, 80
2, 3685, Note_on_c, 9, 42, 0
2, 3685, Note_on_c, 9, 35, 0
2, 3720, Note_on_c, 9, 38, 125
2, 3720, Note_on_c, 9, 42, 110
2, 3745, Note_on_c, 9, 42, 0
2, 3745, Note_on_c, 9, 38, 0
2, 3780, Note_on_c, 9, 35, 105
2, 3780, Note_on_c, 9, 46, 100
2, 3805, Note_on_c, 9, 46, 0
2, 3805, Note_on_c, 9, 35, 0
2, 3840, Note_on_c, 9, 35, 110
2, 3840, Note_on_c, 9, 42, 110
2, 3865, Note_on_c, 9, 42, 0
2, 3865, Note_on_c, 9, 35, 0
2, 3900, Note_on_c, 9, 42, 80
2, 3925, Note_on_c, 9, 42, 0
2, 3960, Note_on_c, 9, 38, 125
2, 3960, Note_on_c, 9, 42, 110
2, 3985, Note_on_c, 9, 42, 0
2, 3985, Note_on_c, 9, 38, 0
2, 4020, Note_on_c, 9, 42, 80
2, 4045, Note_on_c, 9, 42, 0
2, 4080, Note_on_c, 9, 35, 110
2, 4080, Note_on_c, 9, 42, 110
2, 4105, Note_on_c, 9, 42, 0
2, 4105, Note_on_c, 9, 35, 0
2, 4140, Note_on_c, 9, 35, 100
2, 4140, Note_on_c, 9, 42, 80
2, 4165, Note_on_c, 9, 42, 0
2, 4165, Note_on_c, 9, 35, 0
2, 4200, Note_on_c, 9, 38, 125
2, 4200, Note_on_c, 9, 42, 110
2, 4225, Note_on_c, 9, 42, 0
2, 4225, Note_on_c, 9, 38, 0
2, 4260, Note_on_c, 9, 42, 80
2, 4285, Note_on_c, 9, 42, 0
2, 4320, Note_on_c, 9, 35, 110
2, 4320, Note_on_c, 9, 42, 114
2, 4345, Note_on_c, 9, 42, 0
2, 4345, Note_on_c, 9, 35, 0
2, 4380, Note_on_c, 9, 42, 80
2, 4405, Note_on_c, 9, 42, 0
2, 4440, Note_on_c, 9, 38, 125
2, 4440, Note_on_c, 9, 42, 104
2, 4465, Note_on_c, 9, 42, 0
2, 4465, Note_on_c, 9, 38, 0
2, 4500, Note_on_c, 9, 42, 65
2, 4525, Note_on_c, 9, 42, 0
2, 4560, Note_on_c, 9, 35, 110
2, 4560, Note_on_c, 9, 42, 110
2, 4585, Note_on_c, 9, 42, 0
2, 4585, Note_on_c, 9, 35, 0
2, 4620, Note_on_c, 9, 35, 100
2, 4620, Note_on_c, 9, 42, 80
2, 4645, Note_on_c, 9, 42, 0
2, 4645, Note_on_c, 9, 35, 0
2, 4680, Note_on_c, 9, 38, 125
2, 4680, Note_on_c, 9, 42, 110
2, 4705, Note_on_c, 9, 42, 0
2, 4705, Note_on_c, 9, 38, 0
2, 4740, Note_on_c, 9, 35, 105
2, 4740, Note_on_c, 9, 42, 80
2, 4765, Note_on_c, 9, 42, 0
2, 4765, Note_on_c, 9, 35, 0
2, 4800, Note_on_c, 9, 35, 110
2, 4800, Note_on_c, 9, 42, 110
2, 4825, Note_on_c, 9, 42, 0
2, 4825, Note_on_c, 9, 35, 0
2, 4860, Note_on_c, 9, 42, 80
2, 4885, Note_on_c, 9, 42, 0
2, 4920, Note_on_c, 9, 38, 125
2, 4920, Note_on_c, 9, 42, 110
2, 4945, Note_on_c, 9, 42, 0
2, 4945, Note_on_c, 9, 38, 0
2, 4980, Note_on_c, 9, 42, 80
2, 5005, Note_on_c, 9, 42, 0
2, 5040, Note_on_c, 9, 35, 110
2, 5040, Note_on_c, 9, 42, 110
2, 5065, Note_on_c, 9, 42, 0
2, 5065, Note_on_c, 9, 35, 0
2, 5100, Note_on_c, 9, 35, 100
2, 5100, Note_on_c, 9, 42, 80
2, 5125, Note_on_c, 9, 42, 0
2, 5125, Note_on_c, 9, 35, 0
2, 5160, Note_on_c, 9, 38, 125
2, 5160, Note_on_c, 9, 42, 110
2, 5185, Note_on_c, 9, 42, 0
2, 5185, Note_on_c, 9, 38, 0
2, 5220, Note_on_c, 9, 42, 80
2, 5245, Note_on_c, 9, 42, 0
2, 5280, Note_on_c, 9, 35, 110
2, 5280, Note_on_c, 9, 42, 114
2, 5305, Note_on_c, 9, 42, 0
2, 5305, Note_on_c, 9, 35, 0
2, 5340, Note_on_c, 9, 42, 80
2, 5365, Note_on_c, 9, 42, 0
2, 5400, Note_on_c, 9, 38, 125
2, 5400, Note_on_c, 9, 42, 104
2, 5425, Note_on_c, 9, 42, 0
2, 5425, Note_on_c, 9, 38, 0
2, 5460, Note_on_c, 9, 42, 65
2, 5485, Note_on_c, 9, 42, 0
2, 5520, Note_on_c, 9, 35, 110
2, 5520, Note_on_c, 9, 42, 110
2, 5545, Note_on_c, 9, 42, 0
2, 5545, Note_on_c, 9, 35, 0
2, 5580, Note_on_c, 9, 35, 100
2, 5580, Note_on_c, 9, 42, 80
2, 5605, Note_on_c, 9, 42, 0
2, 5605, Note_on_c, 9, 35, 0
2, 5640, Note_on_c, 9, 38, 125
2, 5640, Note_on_c, 9, 42, 110
2, 5665, Note_on_c, 9, 42, 0
2, 5665, Note_on_c, 9, 38, 0
2, 5700, Note_on_c, 9, 35, 105
2, 5700, Note_on_c, 9, 42, 80
2, 5725, Note_on_c, 9, 42, 0
2, 5725, Note_on_c, 9, 35, 0
2, 5760, Note_on_c, 9, 35, 110
2, 5760, Note_on_c, 9, 42, 110
2, 5785, Note_on_c, 9, 42, 0
2, 5785, Note_on_c, 9, 35, 0
2, 5820, Note_on_c, 9, 42, 76
2, 5845, Note_on_c, 9, 42, 0
2, 5880, Note_on_c, 9, 38, 125
2, 5880, Note_on_c, 9, 42, 110
2, 5905, Note_on_c, 9, 42, 0
2, 5905, Note_on_c, 9, 38, 0
2, 5940, Note_on_c, 9, 42, 70
2, 5965, Note_on_c, 9, 42, 0
2, 6000, Note_on_c, 9, 35, 110
2, 6000, Note_on_c, 9, 42, 115
2, 6025, Note_on_c, 9, 42, 0
2, 6025, Note_on_c, 9, 35, 0
2, 6060, Note_on_c, 9, 35, 100
2, 6060, Note_on_c, 9, 46, 100
2, 6085, Note_on_c, 9, 46, 0
2, 6085, Note_on_c, 9, 35, 0
2, 6120, Note_on_c, 9, 38, 125
2, 6120, Note_on_c, 9, 42, 120
2, 6145, Note_on_c, 9, 42, 0
2, 6145, Note_on_c, 9, 38, 0
2, 6180, Note_on_c, 9, 42, 87
2, 6205, Note_on_c, 9, 42, 0
2, 6240, Note_on_c, 9, 35, 110
2, 6240, Note_on_c, 9, 42, 114
2, 6265, Note_on_c, 9, 42, 0
2, 6265, Note_on_c, 9, 35, 0
2, 6300, Note_on_c, 9, 42, 80
2, 6325, Note_on_c, 9, 42, 0
2, 6360, Note_on_c, 9, 38, 125
2, 6360, Note_on_c, 9, 42, 104
2, 6385, Note_on_c, 9, 42, 0
2, 6385, Note_on_c, 9, 38, 0
2, 6420, Note_on_c, 9, 42, 65
2, 6445, Note_on_c, 9, 42, 0
2, 6450, Note_on_c, 9, 38, 60
2, 6475, Note_on_c, 9, 38, 0
2, 6480, Note_on_c, 9, 35, 110
2, 6480, Note_on_c, 9, 42, 110
2, 6505, Note_on_c, 9, 42, 0
2, 6505, Note_on_c, 9, 35, 0
2, 6540, Note_on_c, 9, 35, 100
2, 6540, Note_on_c, 9, 42, 80
2, 6565, Note_on_c, 9, 42, 0
2, 6565, Note_on_c, 9, 35, 0
2, 6600, Note_on_c, 9, 38, 125
2, 6600, Note_on_c, 9, 42, 110
2, 6625, Note_on_c, 9, 42, 0
2, 6625, Note_on_c, 9, 38, 0
2, 6660, Note_on_c, 9, 35, 105
2, 6660, Note_on_c, 9, 42, 80
2, 6685, Note_on_c, 9, 42, 0
2, 6685, Note_on_c, 9, 35, 0
2, 6720, Note_on_c, 9, 35, 110
2, 6720, Note_on_c, 9, 42, 110
2, 6745, Note_on_c, 9, 42, 0
2, 6745, Note_on_c, 9, 35, 0
2, 6780, Note_on_c, 9, 42, 76
2, 6805, Note_on_c, 9, 42, 0
2, 6840, Note_on_c, 9, 38, 125
2, 6840, Note_on_c, 9, 42, 110
2, 6865, Note_on_c, 9, 42, 0
2, 6865, Note_on_c, 9, 38, 0
2, 6900, Note_on_c, 9, 42, 70
2, 6925, Note_on_c, 9, 42, 0
2, 6960, Note_on_c, 9, 35, 110
2, 6960, Note_on_c, 9, 42, 115
2, 6985, Note_on_c, 9, 42, 0
2, 6985, Note_on_c, 9, 35, 0
2, 7020, Note_on_c, 9, 35, 100
2, 7020, Note_on_c, 9, 46, 100
2, 7045, Note_on_c, 9, 46, 0
2, 7045, Note_on_c, 9, 35, 0
2, 7080, Note_on_c, 9, 38, 125
2, 7080, Note_on_c, 9, 42, 120
2, 7105, Note_on_c, 9, 42, 0
2, 7105, Note_on_c, 9, 38, 0
2, 7140, Note_on_c, 9, 42, 87
2, 7165, Note_on_c, 9, 42, 0
2, 7200, Note_on_c, 9, 35, 110
2, 7200, Note_on_c, 9, 42, 110
2, 7225, Note_on_c, 9, 42, 0
2, 7225, Note_on_c, 9, 35, 0
2, 7260, Note_on_c, 9, 42, 80
2, 7285, Note_on_c, 9, 42, 0
2, 7320, Note_on_c, 9, 38, 125
2, 7320, Note_on_c, 9, 42, 110
2, 7345, Note_on_c, 9, 42, 0
2, 7345, Note_on_c, 9, 38, 0
2, 7380, Note_on_c, 9, 42, 80
2, 7405, Note_on_c, 9, 42, 0
2, 7440, Note_on_c, 9, 35, 110
2, 7440, Note_on_c, 9, 42, 110
2, 7465, Note_on_c, 9, 42, 0
2, 7465, Note_on_c, 9, 35, 0
2, 7500, Note_on_c, 9, 35, 100
2, 7500, Note_on_c, 9, 42, 64
2, 7525, Note_on_c, 9, 42, 0
2, 7525, Note_on_c, 9, 35, 0
2, 7560, Note_on_c, 9, 38, 125
2, 7560, Note_on_c, 9, 42, 110
2, 7585, Note_on_c, 9, 42, 0
2, 7585, Note_on_c, 9, 38, 0
2, 7620, Note_on_c, 9, 35, 105
2, 7620, Note_on_c, 9, 42, 80
2, 7645, Note_on_c, 9, 42, 0
2, 7645, Note_on_c, 9, 35, 0
2, 7680, Note_on_c, 9, 35, 110
2, 7680, Note_on_c, 9, 42, 110
2, 7705, Note_on_c, 9, 42, 0
2, 7705, Note_on_c, 9, 35, 0
2, 7740, Note_on_c, 9, 42, 76
2, 7765, Note_on_c, 9, 42, 0
2, 7800, Note_on_c, 9, 38, 125
2, 7800, Note_on_c, 9, 42, 110
2, 7825, Note_on_c, 9, 42, 0
2, 7825, Note_on_c, 9, 38, 0
2, 7860, Note_on_c, 9, 42, 70
2, 7885, Note_on_c, 9, 42, 0
2, 7920, Note_on_c, 9, 35, 110
2, 7920, Note_on_c, 9, 42, 115
2, 7945, Note_on_c, 9, 42, 0
2, 7945, Note_on_c, 9, 35, 0
2, 7980, Note_on_c, 9, 35, 100
2, 7980, Note_on_c, 9, 42, 85
2, 8005, Note_on_c, 9, 42, 0
2, 8005, Note_on_c, 9, 35, 0
2, 8040, Note_on_c, 9, 38, 125
2, 8040, Note_on_c, 9, 42, 120
2, 8065, Note_on_c, 9, 42, 0
2, 8065, Note_on_c, 9, 38, 0
2, 8100, Note_on_c, 9, 42, 87
2, 8125, Note_on_c, 9, 42, 0
2, 8160, Note_on_c, 9, 35, 110
2, 8160, Note_on_c, 9, 42, 110
2, 8185, Note_on_c, 9, 42, 0
2, 8185, Note_on_c, 9, 35, 0
2, 8220, Note_on_c, 9, 42, 80
2, 8245, Note_on_c, 9, 42, 0
2, 8280, Note_on_c, 9, 38, 125
2, 8280, Note_on_c, 9, 42, 110
2, 8305, Note_on_c, 9, 42, 0
2, 8305, Note_on_c, 9, 38, 0
2, 8340, Note_on_c, 9, 42, 80
2, 8365, Note_on_c, 9, 42, 0
2, 8400, Note_on_c, 9, 35, 110
2, 8400, Note_on_c, 9, 42, 110
2, 8425, Note_on_c, 9, 42, 0
2, 8425, Note_on_c, 9, 35, 0
2, 8430, Note_on_c, 9, 46, 90
2, 8455, Note_on_c, 9, 46, 0
2, 8460, Note_on_c, 9, 35, 100
2, 8460, Note_on_c, 9, 42, 80
2, 8485, Note_on_c, 9, 42, 0
2, 8485, Note_on_c, 9, 35, 0
2, 8490, Note_on_c, 9, 46, 100
2, 8515, Note_on_c, 9, 46, 0
2, 8520, Note_on_c, 9, 38, 125
2, 8520, Note_on_c, 9, 42, 110
2, 8545, Note_on_c, 9, 42, 0
2, 8545, Note_on_c, 9, 38, 0
2, 8580, Note_on_c, 9, 38, 125
2, 8580, Note_on_c, 9, 49, 110
2, 8605, Note_on_c, 9, 49, 0
2, 8605, Note_on_c, 9, 38, 0
2, 8640, Note_on_c, 9, 35, 110
2, 8640, Note_on_c, 9, 42, 110
2, 8665, Note_on_c, 9, 42, 0
2, 8665, Note_on_c, 9, 35, 0
2, 8700, Note_on_c, 9, 42, 76
2, 8725, Note_on_c, 9, 42, 0
2, 8760, Note_on_c, 9, 38, 125
2, 8760, Note_on_c, 9, 42, 110
2, 8785, Note_on_c, 9, 42, 0
2, 8785, Note_on_c, 9, 38, 0
2, 8820, Note_on_c, 9, 42, 70
2, 8845, Note_on_c, 9, 42, 0
2, 8880, Note_on_c, 9, 35, 110
2, 8880, Note_on_c, 9, 42, 115
2, 8905, Note_on_c, 9, 42, 0
2, 8905, Note_on_c, 9, 35, 0
2, 8940, Note_on_c, 9, 35, 100
2, 8940, Note_on_c, 9, 42, 85
2, 8965, Note_on_c, 9, 42, 0
2, 8965, Note_on_c, 9, 35, 0
2, 9000, Note_on_c, 9, 38, 125
2, 9000, Note_on_c, 9, 42, 120
2, 9025, Note_on_c, 9, 42, 0
2, 9025, Note_on_c, 9, 38, 0
2, 9060, Note_on_c, 9, 42, 87
2, 9085, Note_on_c, 9, 42, 0
2, 9120, Note_on_c, 9, 35, 110
2, 9120, Note_on_c, 9, 42, 110
2, 9145, Note_on_c, 9, 42, 0
2, 9145, Note_on_c, 9, 35, 0
2, 9180, Note_on_c, 9, 42, 64
2, 9205, Note_on_c, 9, 42, 0
2, 9240, Note_on_c, 9, 38, 125
2, 9240, Note_on_c, 9, 42, 110
2, 9265, Note_on_c, 9, 42, 0
2, 9265, Note_on_c, 9, 38, 0
2, 9300, Note_on_c, 9, 42, 80
2, 9325, Note_on_c, 9, 42, 0
2, 9360, Note_on_c, 9, 35, 110
2, 9360, Note_on_c, 9, 42, 110
2, 9385, Note_on_c, 9, 42, 0
2, 9385, Note_on_c, 9, 35, 0
2, 9420, Note_on_c, 9, 35, 100
2, 9420, Note_on_c, 9, 42, 64
2, 9445, Note_on_c, 9, 42, 0
2, 9445, Note_on_c, 9, 35, 0
2, 9480, Note_on_c, 9, 38, 125
2, 9480, Note_on_c, 9, 42, 110
2, 9505, Note_on_c, 9, 42, 0
2, 9505, Note_on_c, 9, 38, 0
2, 9540, Note_on_c, 9, 35, 105
2, 9540, Note_on_c, 9, 42, 80
2, 9565, Note_on_c, 9, 42, 0
2, 9565, Note_on_c, 9, 35, 0
2, 9600, Note_on_c, 9, 35, 110
2, 9600, Note_on_c, 9, 42, 110
2, 9625, Note_on_c, 9, 42, 0
2, 9625, Note_on_c, 9, 35, 0
2, 9660, Note_on_c, 9, 42, 76
2, 9685, Note_on_c, 9, 42, 0
2, 9720, Note_on_c, 9, 38, 125
2, 9720, Note_on_c, 9, 42, 110
2, 9745, Note_on_c, 9, 42, 0
2, 9745, Note_on_c, 9, 38, 0
2, 9780, Note_on_c, 9, 42, 70
2, 9805, Note_on_c, 9, 42, 0
2, 9840, Note_on_c, 9, 35, 110
2, 9840, Note_on_c, 9, 42, 115
2, 9865, Note_on_c, 9, 42, 0
2, 9865, Note_on_c, 9, 35, 0
2, 9900, Note_on_c, 9, 35, 100
2, 9900, Note_on_c, 9, 46, 100
2, 9925, Note_on_c, 9, 46, 0
2, 9925, Note_on_c, 9, 35, 0
2, 9960, Note_on_c, 9, 38, 125
2, 9960, Note_on_c, 9, 42, 120
2, 9985, Note_on_c, 9, 42, 0
2, 9985, Note_on_c, 9, 38, 0
2, 10020, Note_on_c, 9, 42, 87
2, 10045, Note_on_c, 9, 42, 0
2, 10050, Note_on_c, 9, 38, 60
2, 10075, Note_on_c, 9, 38, 0
2, 10080, Note_on_c, 9, 35, 110
2, 10080, Note_on_c, 9, 42, 110
2, 10105, Note_on_c, 9, 42, 0
2, 10105, Note_on_c, 9, 35, 0
2, 10140, Note_on_c, 9, 42, 80
2, 10165, Note_on_c, 9, 42, 0
2, 10200, Note_on_c, 9, 38, 125
2, 10200, Note_on_c, 9, 42, 110
2, 10225, Note_on_c, 9, 42, 0
2, 10225, Note_on_c, 9, 38, 0
2, 10260, Note_on_c, 9, 42, 80
2, 10285, Note_on_c, 9, 42, 0
2, 10320, Note_on_c, 9, 35, 110
2, 10320, Note_on_c, 9, 42, 110
2, 10345, Note_on_c, 9, 42, 0
2, 10345, Note_on_c, 9, 35, 0
2, 10380, Note_on_c, 9, 35, 100
2, 10380, Note_on_c, 9, 42, 80
2, 10405, Note_on_c, 9, 42, 0
2, 10405, Note_on_c, 9, 35, 0
2, 10440, Note_on_c, 9, 38, 125
2, 10440, Note_on_c, 9, 42, 110
2, 10465, Note_on_c, 9, 42, 0
2, 10465, Note_on_c, 9, 38, 0
2, 10500, Note_on_c, 9, 35, 105
2, 10500, Note_on_c, 9, 42, 80
2, 10525, Note_on_c, 9, 42, 0
2, 10525, Note_on_c, 9, 35, 0
2, 10560, Note_on_c, 9, 35, 110
2, 10560, Note_on_c, 9, 42, 110
2, 10585, Note_on_c, 9, 42, 0
2, 10585, Note_on_c, 9, 35, 0
2, 10620, Note_on_c, 9, 42, 118
2, 10645, Note_on_c, 9, 42, 0
2, 10680, Note_on_c, 9, 38, 125
2, 10680, Note_on_c, 9, 42, 110
2, 10705, Note_on_c, 9, 42, 0
2, 10705, Note_on_c, 9, 38, 0
2, 10740, Note_on_c, 9, 42, 80
2, 10765, Note_on_c, 9, 42, 0
2, 10800, Note_on_c, 9, 35, 110
2, 10800, Note_on_c, 9, 42, 110
2, 10825, Note_on_c, 9, 42, 0
2, 10825, Note_on_c, 9, 35, 0
2, 10860, Note_on_c, 9, 35, 100
2, 10860, Note_on_c, 9, 42, 80
2, 10885, Note_on_c, 9, 42, 0
2, 10885, Note_on_c, 9, 35, 0
2, 10920, Note_on_c, 9, 38, 125
2, 10920, Note_on_c, 9, 42, 110
2, 10945, Note_on_c, 9, 42, 0
2, 10945, Note_on_c, 9, 38, 0
2, 10980, Note_on_c, 9, 42, 80
2, 11005, Note_on_c, 9, 42, 0
2, 11040, Note_on_c, 9, 35, 110
2, 11040, Note_on_c, 9, 42, 110
2, 11065, Note_on_c, 9, 42, 0
2, 11065, Note_on_c, 9, 35, 0
2, 11100, Note_on_c, 9, 42, 80
2, 11125, Note_on_c, 9, 42, 0
2, 11160, Note_on_c, 9, 38, 125
2, 11160, Note_on_c, 9, 42, 110
2, 11185, Note_on_c, 9, 42, 0
2, 11185, Note_on_c, 9, 38, 0
2, 11220, Note_on_c, 9, 42, 80
2, 11245, Note_on_c, 9, 42, 0
2, 11280, Note_on_c, 9, 35, 110
2, 11280, Note_on_c, 9, 42, 118
2, 11305, Note_on_c, 9, 42, 0
2, 11305, Note_on_c, 9, 35, 0
2, 11340, Note_on_c, 9, 35, 100
2, 11340, Note_on_c, 9, 42, 80
2, 11365, Note_on_c, 9, 42, 0
2, 11365, Note_on_c, 9, 35, 0
2, 11400, Note_on_c, 9, 38, 125
2, 11400, Note_on_c, 9, 42, 110
2, 11425, Note_on_c, 9, 42, 0
2, 11425, Note_on_c, 9, 38, 0
2, 11460, Note_on_c, 9, 35, 105
2, 11460, Note_on_c, 9, 42, 80
2, 11485, Note_on_c, 9, 42, 0
2, 11485, Note_on_c, 9, 35, 0
2, 11520, Note_on_c, 9, 35, 110
2, 11520, Note_on_c, 9, 42, 110
2, 11545, Note_on_c, 9, 42, 0
2, 11545, Note_on_c, 9, 35, 0
2, 11580, Note_on_c, 9, 42, 80
2, 11605, Note_on_c, 9, 42, 0
2, 11640, Note_on_c, 9, 38, 125
2, 11640, Note_on_c, 9, 42, 110
2, 11665, Note_on_c, 9, 42, 0
2, 11665, Note_on_c, 9, 38, 0
2, 11700, Note_on_c, 9, 46, 100
2, 11725, Note_on_c, 9, 46, 0
2, 11760, Note_on_c, 9, 35, 110
2, 11760, Note_on_c, 9, 42, 110
2, 11785, Note_on_c, 9, 42, 0
2, 11785, Note_on_c, 9, 35, 0
2, 11820, Note_on_c, 9, 35, 100
2, 11820, Note_on_c, 9, 42, 80
2, 11845, Note_on_c, 9, 42, 0
2, 11845, Note_on_c, 9, 35, 0
2, 11880, Note_on_c, 9, 38, 125
2, 11880, Note_on_c, 9, 42, 110
2, 11905, Note_on_c, 9, 42, 0
2, 11905, Note_on_c, 9, 38, 0
2, 11940, Note_on_c, 9, 42, 80
2, 11965, Note_on_c, 9, 42, 0
2, 12000, Note_on_c, 9, 35, 110
2, 12000, Note_on_c, 9, 42, 110
2, 12025, Note_on_c, 9, 42, 0
2, 12025, Note_on_c, 9, 35, 0
2, 12060, Note_on_c, 9, 42, 80
2, 12085, Note_on_c, 9, 42, 0
2, 12120, Note_on_c, 9, 38, 125
2, 12120, Note_on_c, 9, 42, 110
2, 12145, Note_on_c, 9, 42, 0
2, 12145, Note_on_c, 9, 38, 0
2, 12180, Note_on_c, 9, 42, 80
2, 12205, Note_on_c, 9, 42, 0
2, 12240, Note_on_c, 9, 35, 110
2, 12240, Note_on_c, 9, 42, 110
2, 12265, Note_on_c, 9, 42, 0
2, 12265, Note_on_c, 9, 35, 0
2, 12300, Note_on_c, 9, 35, 100
2, 12300, Note_on_c, 9, 42, 64
2, 12325, Note_on_c, 9, 42, 0
2, 12325, Note_on_c, 9, 35, 0
2, 12360, Note_on_c, 9, 38, 125
2, 12360, Note_on_c, 9, 42, 110
2, 12385, Note_on_c, 9, 42, 0
2, 12385, Note_on_c, 9, 38, 0
2, 12420, Note_on_c, 9, 35, 105
2, 12420, Note_on_c, 9, 42, 80
2, 12445, Note_on_c, 9, 42, 0
2, 12445, Note_on_c, 9, 35, 0
2, 12480, Note_on_c, 9, 35, 110
2, 12480, Note_on_c, 9, 42, 110
2, 12505, Note_on_c, 9, 42, 0
2, 12505, Note_on_c, 9, 35, 0
2, 12540, Note_on_c, 9, 42, 76
2, 12565, Note_on_c, 9, 42, 0
2, 12600, Note_on_c, 9, 38, 125
2, 12600, Note_on_c, 9, 42, 110
2, 12625, Note_on_c, 9, 42, 0
2, 12625, Note_on_c, 9, 38, 0
2, 12660, Note_on_c, 9, 42, 70
2, 12685, Note_on_c, 9, 42, 0
2, 12720, Note_on_c, 9, 35, 110
2, 12720, Note_on_c, 9, 42, 115
2, 12745, Note_on_c, 9, 42, 0
2, 12745, Note_on_c, 9, 35, 0
2, 12780, Note_on_c, 9, 35, 100
2, 12780, Note_on_c, 9, 42, 85
2, 12805, Note_on_c, 9, 42, 0
2, 12805, Note_on_c, 9, 35, 0
2, 12840, Note_on_c, 9, 38, 125
2, 12840, Note_on_c, 9, 42, 120
2, 12865, Note_on_c, 9, 42, 0
2, 12865, Note_on_c, 9, 38, 0
2, 12900, Note_on_c, 9, 42, 87
2, 12925, Note_on_c, 9, 42, 0
2, 12960, Note_on_c, 9, 35, 110
2, 12960, Note_on_c, 9, 42, 110
2, 12985, Note_on_c, 9, 42, 0
2, 12985, Note_on_c, 9, 35, 0
2, 13020, Note_on_c, 9, 42, 80
2, 13045, Note_on_c, 9, 42, 0
2, 13080, Note_on_c, 9, 38, 125
2, 13080, Note_on_c, 9, 42, 110
2, 13105, Note_on_c, 9, 42, 0
2, 13105, Note_on_c, 9, 38, 0
2, 13140, Note_on_c, 9, 42, 80
2, 13165, Note_on_c, 9, 42, 0
2, 13200, Note_on_c, 9, 35, 110
2, 13200, Note_on_c, 9, 42, 110
2, 13225, Note_on_c, 9, 42, 0
2, 13225, Note_on_c, 9, 35, 0
2, 13260, Note_on_c, 9, 35, 100
2, 13260, Note_on_c, 9, 42, 80
2, 13285, Note_on_c, 9, 42, 0
2, 13285, Note_on_c, 9, 35, 0
2, 13320, Note_on_c, 9, 38, 125
2, 13320, Note_on_c, 9, 42, 110
2, 13345, Note_on_c, 9, 42, 0
2, 13345, Note_on_c, 9, 38, 0
2, 13380, Note_on_c, 9, 35, 105
2, 13380, Note_on_c, 9, 42, 80
2, 13405, Note_on_c, 9, 42, 0
2, 13405, Note_on_c, 9, 35, 0
2, 13440, Note_on_c, 9, 35, 110
2, 13440, Note_on_c, 9, 42, 110
2, 13465, Note_on_c, 9, 42, 0
2, 13465, Note_on_c, 9, 35, 0
2, 13500, Note_on_c, 9, 42, 118
2, 13525, Note_on_c, 9, 42, 0
2, 13560, Note_on_c, 9, 38, 125
2, 13560, Note_on_c, 9, 42, 110
2, 13585, Note_on_c, 9, 42, 0
2, 13585, Note_on_c, 9, 38, 0
2, 13620, Note_on_c, 9, 42, 80
2, 13645, Note_on_c, 9, 42, 0
2, 13680, Note_on_c, 9, 35, 110
2, 13680, Note_on_c, 9, 42, 110
2, 13705, Note_on_c, 9, 42, 0
2, 13705, Note_on_c, 9, 35, 0
2, 13740, Note_on_c, 9, 35, 100
2, 13740, Note_on_c, 9, 42, 80
2, 13765, Note_on_c, 9, 42, 0
2, 13765, Note_on_c, 9, 35, 0
2, 13800, Note_on_c, 9, 38, 125
2, 13800, Note_on_c, 9, 42, 110
2, 13825, Note_on_c, 9, 42, 0
2, 13825, Note_on_c, 9, 38, 0
2, 13860, Note_on_c, 9, 42, 80
2, 13885, Note_on_c, 9, 42, 0
2, 13920, Note_on_c, 9, 35, 110
2, 13920, Note_on_c, 9, 42, 114
2, 13945, Note_on_c, 9, 42, 0
2, 13945, Note_on_c, 9, 35, 0
2, 13980, Note_on_c, 9, 42, 80
2, 14005, Note_on_c, 9, 42, 0
2, 14040, Note_on_c, 9, 38, 125
2, 14040, Note_on_c, 9, 42, 104
2, 14065, Note_on_c, 9, 42, 0
2, 14065, Note_on_c, 9, 38, 0
2, 14100, Note_on_c, 9, 42, 65
2, 14125, Note_on_c, 9, 42, 0
2, 14160, Note_on_c, 9, 35, 110
2, 14160, Note_on_c, 9, 42, 110
2, 14185, Note_on_c, 9, 42, 0
2, 14185, Note_on_c, 9, 35, 0
2, 14220, Note_on_c, 9, 35, 100
2, 14220, Note_on_c, 9, 42, 80
2, 14245, Note_on_c, 9, 42, 0
2, 14245, Note_on_c, 9, 35, 0
2, 14280, Note_on_c, 9, 38, 125
2, 14280, Note_on_c, 9, 42, 110
2, 14305, Note_on_c, 9, 42, 0
2, 14305, Note_on_c, 9, 38, 0
2, 14340, Note_on_c, 9, 35, 105
2, 14340, Note_on_c, 9, 46, 100
2, 14365, Note_on_c, 9, 46, 0
2, 14365, Note_on_c, 9, 35, 0
2, 14400, Note_on_c, 9, 35, 110
2, 14400, Note_on_c, 9, 42, 110
2, 14425, Note_on_c, 9, 42, 0
2, 14425, Note_on_c, 9, 35, 0
2, 14460, Note_on_c, 9, 42, 76
2, 14485, Note_on_c, 9, 42, 0
2, 14520, Note_on_c, 9, 38, 125
2, 14520, Note_on_c, 9, 42, 110
2, 14545, Note_on_c, 9, 42, 0
2, 14545, Note_on_c, 9, 38, 0
2, 14580, Note_on_c, 9, 42, 70
2, 14605, Note_on_c, 9, 42, 0
2, 14640, Note_on_c, 9, 35, 110
2, 14640, Note_on_c, 9, 42, 115
2, 14665, Note_on_c, 9, 42, 0
2, 14665, Note_on_c, 9, 35, 0
2, 14700, Note_on_c, 9, 35, 100
2, 14700, Note_on_c, 9, 42, 85
2, 14725, Note_on_c, 9, 42, 0
2, 14725, Note_on_c, 9, 35, 0
2, 14760, Note_on_c, 9, 38, 125
2, 14760, Note_on_c, 9, 42, 120
2, 14785, Note_on_c, 9, 42, 0
2, 14785, Note_on_c, 9, 38, 0
2, 14820, Note_on_c, 9, 42, 87
2, 14845, Note_on_c, 9, 42, 0
2, 14880, Note_on_c, 9, 35, 110
2, 14880, Note_on_c, 9, 42, 110
2, 14905, Note_on_c, 9, 42, 0
2, 14905, Note_on_c, 9, 35, 0
2, 14940, Note_on_c, 9, 42, 80
2, 14965, Note_on_c, 9, 42, 0
2, 15000, Note_on_c, 9, 38, 125
2, 15000, Note_on_c, 9, 42, 110
2, 15025, Note_on_c, 9, 42, 0
2, 15025, Note_on_c, 9, 38, 0
2, 15060, Note_on_c, 9, 42, 80
2, 15085, Note_on_c, 9, 42, 0
2, 15120, Note_on_c, 9, 35, 110
2, 15120, Note_on_c, 9, 42, 110
2, 15145, Note_on_c, 9, 42, 0
2, 15145, Note_on_c, 9, 35, 0
2, 15180, Note_on_c, 9, 35, 100
2, 15180, Note_on_c, 9, 42, 80
2, 15205, Note_on_c, 9, 42, 0
2, 15205, Note_on_c, 9, 35, 0
2, 15240, Note_on_c, 9, 38, 125
2, 15240, Note_on_c, 9, 42, 110
2, 15265, Note_on_c, 9, 42, 0
2, 15265, Note_on_c, 9, 38, 0
2, 15300, Note_on_c, 9, 35, 105
2, 15300, Note_on_c, 9, 42, 80
2, 15325, Note_on_c, 9, 42, 0
2, 15325, Note_on_c, 9, 35, 0
2, 15360, Note_on_c, 9, 35, 110
2, 15360, Note_on_c, 9, 42, 110
2, 15385, Note_on_c, 9, 42, 0
2, 15385, Note_on_c, 9, 35, 0
2, 15420, Note_on_c, 9, 42, 76
2, 15445, Note_on_c, 9, 42, 0
2, 15480, Note_on_c, 9, 38, 125
2, 15480, Note_on_c, 9, 42, 110
2, 15505, Note_on_c, 9, 42, 0
2, 15505, Note_on_c, 9, 38, 0
2, 15540, Note_on_c, 9, 42, 70
2, 15565, Note_on_c, 9, 42, 0
2, 15600, Note_on_c, 9, 35, 110
2, 15600, Note_on_c, 9, 42, 115
2, 15625, Note_on_c, 9, 42, 0
2, 15625, Note_on_c, 9, 35, 0
2, 15660, Note_on_c, 9, 35, 100
2, 15660, Note_on_c, 9, 42, 85
2, 15685, Note_on_c, 9, 42, 0
2, 15685, Note_on_c, 9, 35, 0
2, 15720, Note_on_c, 9, 38, 125
2, 15720, Note_on_c, 9, 42, 120
2, 15745, Note_on_c, 9, 42, 0
2, 15745, Note_on_c, 9, 38, 0
2, 15780, Note_on_c, 9, 42, 87
2, 15805, Note_on_c, 9, 42, 0
2, 15840, Note_on_c, 9, 35, 110
2, 15840, Note_on_c, 9, 42, 110
2, 15865, Note_on_c, 9, 42, 0
2, 15865, Note_on_c, 9, 35, 0
2, 15900, Note_on_c, 9, 42, 80
2, 15925, Note_on_c, 9, 42, 0
2, 15960, Note_on_c, 9, 38, 125
2, 15960, Note_on_c, 9, 42, 110
2, 15985, Note_on_c, 9, 42, 0
2, 15985, Note_on_c, 9, 38, 0
2, 16020, Note_on_c, 9, 42, 80
2, 16045, Note_on_c, 9, 42, 0
2, 16080, Note_on_c, 9, 35, 110
2, 16080, Note_on_c, 9, 42, 110
2, 16105, Note_on_c, 9, 42, 0
2, 16105, Note_on_c, 9, 35, 0
2, 16110, Note_on_c, 9, 46, 90
2, 16135, Note_on_c, 9, 46, 0
2, 16140, Note_on_c, 9, 35, 100
2, 16140, Note_on_c, 9, 42, 80
2, 16165, Note_on_c, 9, 42, 0
2, 16165, Note_on_c, 9, 35, 0
2, 16170, Note_on_c, 9, 46, 100
2, 16195, Note_on_c, 9, 46, 0
2, 16200, Note_on_c, 9, 38, 125
2, 16200, Note_on_c, 9, 42, 110
2, 16225, Note_on_c, 9, 42, 0
2, 16225, Note_on_c, 9, 38, 0
2, 16260, Note_on_c, 9, 38, 125
2, 16260, Note_on_c, 9, 49, 110
2, 16285, Note_on_c, 9, 49, 0
2, 16285, Note_on_c, 9, 38, 0
2, 16320, Note_on_c, 9, 35, 110
2, 16320, Note_on_c, 9, 42, 110
2, 16345, Note_on_c, 9, 42, 0
2, 16345, Note_on_c, 9, 35, 0
2, 16380, Note_on_c, 9, 42, 76
2, 16405, Note_on_c, 9, 42, 0
2, 16440, Note_on_c, 9, 38, 125
2, 16440, Note_on_c, 9, 42, 110
2, 16465, Note_on_c, 9, 42, 0
2, 16465, Note_on_c, 9, 38, 0
2, 16500, Note_on_c, 9, 42, 70
2, 16525, Note_on_c, 9, 42, 0
2, 16560, Note_on_c, 9, 35, 110
2, 16560, Note_on_c, 9, 42, 115
2, 16585, Note_on_c, 9, 42, 0
2, 16585, Note_on_c, 9, 35, 0
2, 16620, Note_on_c, 9, 35, 100
2, 16620, Note_on_c, 9, 42, 85
2, 16645, Note_on_c, 9, 42, 0
2, 16645, Note_on_c, 9, 35, 0
2, 16680, Note_on_c, 9, 38, 125
2, 16680, Note_on_c, 9, 42, 120
2, 16705, Note_on_c, 9, 42, 0
2, 16705, Note_on_c, 9, 38, 0
2, 16740, Note_on_c, 9, 42, 87
2, 16765, Note_on_c, 9, 42, 0
2, 16800, Note_on_c, 9, 35, 110
2, 16800, Note_on_c, 9, 42, 110
2, 16825, Note_on_c, 9, 42, 0
2, 16825, Note_on_c, 9, 35, 0
2, 16860, Note_on_c, 9, 42, 64
2, 16885, Note_on_c, 9, 42, 0
2, 16920, Note_on_c, 9, 38, 125
2, 16920, Note_on_c, 9, 42, 110
2, 16945, Note_on_c, 9, 42, 0
2, 16945, Note_on_c, 9, 38, 0
2, 16980, Note_on_c, 9, 42, 80
2, 17005, Note_on_c, 9, 42, 0
2, 17040, Note_on_c, 9, 35, 110
2, 17040, Note_on_c, 9, 42, 110
2, 17065, Note_on_c, 9, 42, 0
2, 17065, Note_on_c, 9, 35, 0
2, 17100, Note_on_c, 9, 35, 100
2, 17100, Note_on_c, 9, 42, 64
2, 17125, Note_on_c, 9, 42, 0
2, 17125, Note_on_c, 9, 35, 0
2, 17160, Note_on_c, 9, 38, 125
2, 17160, Note_on_c, 9, 42, 110
2, 17185, Note_on_c, 9, 42, 0
2, 17185, Note_on_c, 9, 38, 0
2, 17220, Note_on_c, 9, 35, 105
2, 17220, Note_on_c, 9, 42, 80
2, 17245, Note_on_c, 9, 42, 0
2, 17245, Note_on_c, 9, 35, 0
2, 17280, Note_on_c, 9, 35, 110
2, 17280, Note_on_c, 9, 42, 110
2, 17305, Note_on_c, 9, 42, 0
2, 17305, Note_on_c, 9, 35, 0
2, 17340, Note_on_c, 9, 42, 76
2, 17365, Note_on_c, 9, 42, 0
2, 17400, Note_on_c, 9, 38, 125
2, 17400, Note_on_c, 9, 42, 110
2, 17425, Note_on_c, 9, 42, 0
2, 17425, Note_on_c, 9, 38, 0
2, 17460, Note_on_c, 9, 42, 70
2, 17485, Note_on_c, 9, 42, 0
2, 17520, Note_on_c, 9, 35, 110
2, 17520, Note_on_c, 9, 42, 115
2, 17545, Note_on_c, 9, 42, 0
2, 17545, Note_on_c, 9, 35, 0
2, 17580, Note_on_c, 9, 35, 100
2, 17580, Note_on_c, 9, 46, 100
2, 17605, Note_on_c, 9, 46, 0
2, 17605, Note_on_c, 9, 35, 0
2, 17640, Note_on_c, 9, 38, 125
2, 17640, Note_on_c, 9, 42, 120
2, 17665, Note_on_c, 9, 42, 0
2, 17665, Note_on_c, 9, 38, 0
2, 17700, Note_on_c, 9, 42, 87
2, 17725, Note_on_c, 9, 42, 0
2, 17730, Note_on_c, 9, 38, 60
2, 17755, Note_on_c, 9, 38, 0
2, 17760, Note_on_c, 9, 35, 110
2, 17760, Note_on_c, 9, 42, 110
2, 17785, Note_on_c, 9, 42, 0
2, 17785, Note_on_c, 9, 35, 0
2, 17820, Note_on_c, 9, 42, 80
2, 17845, Note_on_c, 9, 42, 0
2, 17880, Note_on_c, 9, 38, 125
2, 17880, Note_on_c, 9, 42, 110
2, 17905, Note_on_c, 9, 42, 0
2, 17905, Note_on_c, 9, 38, 0
2, 17940, Note_on_c, 9, 42, 80
2, 17965, Note_on_c, 9, 42, 0
2, 18000, Note_on_c, 9, 35, 110
2, 18000, Note_on_c, 9, 42, 110
2, 18025, Note_on_c, 9, 42, 0
2, 18025, Note_on_c, 9, 35, 0
2, 18060, Note_on_c, 9, 35, 100
2, 18060, Note_on_c, 9, 42, 80
2, 18085, Note_on_c, 9, 42, 0
2, 18085, Note_on_c, 9, 35, 0
2, 18120, Note_on_c, 9, 38, 125
2, 18120, Note_on_c, 9, 42, 110
2, 18145, Note_on_c, 9, 42, 0
2, 18145, Note_on_c, 9, 38, 0
2, 18180, Note_on_c, 9, 35, 105
2, 18180, Note_on_c, 9, 42, 80
2, 18205, Note_on_c, 9, 42, 0
2, 18205, Note_on_c, 9, 35, 0
2, 18240, Note_on_c, 9, 35, 110
2, 18240, Note_on_c, 9, 42, 110
2, 18265, Note_on_c, 9, 42, 0
2, 18265, Note_on_c, 9, 35, 0
2, 18300, Note_on_c, 9, 42, 118
2, 18325, Note_on_c, 9, 42, 0
2, 18360, Note_on_c, 9, 38, 125
2, 18360, Note_on_c, 9, 42, 110
2, 18385, Note_on_c, 9, 42, 0
2, 18385, Note_on_c, 9, 38, 0
2, 18420, Note_on_c, 9, 42, 80
2, 18445, Note_on_c, 9, 42, 0
2, 18480, Note_on_c, 9, 35, 110
2, 18480, Note_on_c, 9, 42, 110
2, 18505, Note_on_c, 9, 42, 0
2, 18505, Note_on_c, 9, 35, 0
2, 18540, Note_on_c, 9, 35, 100
2, 18540, Note_on_c, 9, 42, 80
2, 18565, Note_on_c, 9, 42, 0
2, 18565, Note_on_c, 9, 35, 0
2, 18600, Note_on_c, 9, 38, 125
2, 18600, Note_on_c, 9, 42, 110
2, 18625, Note_on_c, 9, 42, 0
2, 18625, Note_on_c, 9, 38, 0
2, 18660, Note_on_c, 9, 42, 80
2, 18685, Note_on_c, 9, 42, 0
2, 18720, Note_on_c, 9, 35, 110
2, 18720, Note_on_c, 9, 42, 110
2, 18745, Note_on_c, 9, 42, 0
2, 18745, Note_on_c, 9, 35, 0
2, 18780, Note_on_c, 9, 42, 80
2, 18805, Note_on_c, 9, 42, 0
2, 18840, Note_on_c, 9, 38, 125
2, 18840, Note_on_c, 9, 42, 110
2, 18865, Note_on_c, 9, 42, 0
2, 18865, Note_on_c, 9, 38, 0
2, 18900, Note_on_c, 9, 42, 80
2, 18925, Note_on_c, 9, 42, 0
2, 18960, Note_on_c, 9, 35, 110
2, 18960, Note_on_c, 9, 42, 118
2, 18985, Note_on_c, 9, 42, 0
2, 18985, Note_on_c, 9, 35, 0
2, 19020, Note_on_c, 9, 35, 100
2, 19020, Note_on_c, 9, 42, 80
2, 19045, Note_on_c, 9, 42, 0
2, 19045, Note_on_c, 9, 35, 0
2, 19080, Note_on_c, 9, 38, 125
2, 19080, Note_on_c, 9, 42, 110
2, 19105, Note_on_c, 9, 42, 0
2, 19105, Note_on_c, 9, 38, 0
2, 19140, Note_on_c, 9, 35, 105
2, 19140, Note_on_c, 9, 42, 80
2, 19165, Note_on_c, 9, 42, 0
2, 19165, Note_on_c, 9, 35, 0
2, 19200, Note_on_c, 9, 35, 110
2, 19200, Note_on_c, 9, 42, 110
2, 19225, Note_on_c, 9, 42, 0
2, 19225, Note_on_c, 9, 35, 0
2, 19260, Note_on_c, 9, 42, 80
2, 19285, Note_on_c, 9, 42, 0
2, 19320, Note_on_c, 9, 38, 125
2, 19320, Note_on_c, 9, 42, 110
2, 19345, Note_on_c, 9, 42, 0
2, 19345, Note_on_c, 9, 38, 0
2, 19380, Note_on_c, 9, 46, 100
2, 19405, Note_on_c, 9, 46, 0
2, 19440, Note_on_c, 9, 35, 110
2, 19440, Note_on_c, 9, 42, 110
2, 19465, Note_on_c, 9, 42, 0
2, 19465, Note_on_c, 9, 35, 0
2, 19500, Note_on_c, 9, 35, 100
2, 19500, Note_on_c, 9, 42, 80
2, 19525, Note_on_c, 9, 42, 0
2, 19525, Note_on_c, 9, 35, 0
2, 19560, Note_on_c, 9, 38, 125
2, 19560, Note_on_c, 9, 42, 110
2, 19585, Note_on_c, 9, 42, 0
2, 19585, Note_on_c, 9, 38, 0
2, 19620, Note_on_c, 9, 42, 80
2, 19645, Note_on_c, 9, 42, 0
2, 19680, Note_on_c, 9, 35, 110
2, 19680, Note_on_c, 9, 42, 114
2, 19705, Note_on_c, 9, 42, 0
2, 19705, Note_on_c, 9, 35, 0
2, 19740, Note_on_c, 9, 42, 80
2, 19765, Note_on_c, 9, 42, 0
2, 19800, Note_on_c, 9, 38, 125
2, 19800, Note_on_c, 9, 42, 104
2, 19825, Note_on_c, 9, 42, 0
2, 19825, Note_on_c, 9, 38, 0
2, 19860, Note_on_c, 9, 42, 65
2, 19885, Note_on_c, 9, 42, 0
2, 19920, Note_on_c, 9, 35, 110
2, 19920, Note_on_c, 9, 42, 110
2, 19945, Note_on_c, 9, 42, 0
2, 19945, Note_on_c, 9, 35, 0
2, 19980, Note_on_c, 9, 35, 100
2, 19980, Note_on_c, 9, 42, 80
2, 20005, Note_on_c, 9, 42, 0
2, 20005, Note_on_c, 9, 35, 0
2, 20040, Note_on_c, 9, 38, 125
2, 20040, Note_on_c, 9, 42, 110
2, 20065, Note_on_c, 9, 42, 0
2, 20065, Note_on_c, 9, 38, 0
2, 20100, Note_on_c, 9, 35, 105
2, 20100, Note_on_c, 9, 42, 80
2, 20125, Note_on_c, 9, 42, 0
2, 20125, Note_on_c, 9, 35, 0
2, 20160, Note_on_c, 9, 35, 110
2, 20160, Note_on_c, 9, 42, 110
2, 20185, Note_on_c, 9, 42, 0
2, 20185, Note_on_c, 9, 35, 0
2, 20220, Note_on_c, 9, 42, 80
2, 20245, Note_on_c, 9, 42, 0
2, 20280, Note_on_c, 9, 38, 125
2, 20280, Note_on_c, 9, 42, 110
2, 20305, Note_on_c, 9, 42, 0
2, 20305, Note_on_c, 9, 38, 0
2, 20340, Note_on_c, 9, 42, 80
2, 20365, Note_on_c, 9, 42, 0
2, 20400, Note_on_c, 9, 35, 110
2, 20400, Note_on_c, 9, 42, 110
2, 20425, Note_on_c, 9, 42, 0
2, 20425, Note_on_c, 9, 35, 0
2, 20460, Note_on_c, 9, 35, 100
2, 20460, Note_on_c, 9, 42, 80
2, 20485, Note_on_c, 9, 42, 0
2, 20485, Note_on_c, 9, 35, 0
2, 20520, Note_on_c, 9, 38, 125
2, 20520, Note_on_c, 9, 42, 110
2, 20545, Note_on_c, 9, 42, 0
2, 20545, Note_on_c, 9, 38, 0
2, 20580, Note_on_c, 9, 42, 80
2, 20605, Note_on_c, 9, 42, 0
2, 20640, Note_on_c, 9, 35, 110
2, 20640, Note_on_c, 9, 42, 114
2, 20665, Note_on_c, 9, 42, 0
2, 20665, Note_on_c, 9, 35, 0
2, 20700, Note_on_c, 9, 42, 80
2, 20725, Note_on_c, 9, 42, 0
2, 20760, Note_on_c, 9, 38, 125
2, 20760, Note_on_c, 9, 42, 104
2, 20785, Note_on_c, 9, 42, 0
2, 20785, Note_on_c, 9, 38, 0
2, 20820, Note_on_c, 9, 42, 65
2, 20845, Note_on_c, 9, 42, 0
2, 20880, Note_on_c, 9, 35, 110
2, 20880, Note_on_c, 9, 42, 110
2, 20905, Note_on_c, 9, 42, 0
2, 20905, Note_on_c, 9, 35, 0
2, 20940, Note_on_c, 9, 35, 100
2, 20940, Note_on_c, 9, 42, 80
2, 20965, Note_on_c, 9, 42, 0
2, 20965, Note_on_c, 9, 35, 0
2, 21000, Note_on_c, 9, 38, 125
2, 21000, Note_on_c, 9, 42, 110
2, 21025, Note_on_c, 9, 42, 0
2, 21025, Note_on_c, 9, 38, 0
2, 21060, Note_on_c, 9, 35, 105
2, 21060, Note_on_c, 9, 42, 80
2, 21085, Note_on_c, 9, 42, 0
2, 21085, Note_on_c, 9, 35, 0
2, 21120, Note_on_c, 9, 35, 110
2, 21120, Note_on_c, 9, 42, 110
2, 21145, Note_on_c, 9, 42, 0
2, 21145, Note_on_c, 9, 35, 0
2, 21180, Note_on_c, 9, 42, 76
2, 21205, Note_on_c, 9, 42, 0
2, 21240, Note_on_c, 9, 38, 125
2, 21240, Note_on_c, 9, 42, 110
2, 21265, Note_on_c, 9, 42, 0
2, 21265, Note_on_c, 9, 38, 0
2, 21300, Note_on_c, 9, 42, 70
2, 21325, Note_on_c, 9, 42, 0
2, 21360, Note_on_c, 9, 35, 110
2, 21360, Note_on_c, 9, 42, 115
2, 21385, Note_on_c, 9, 42, 0
2, 21385, Note_on_c, 9, 35, 0
2, 21420, Note_on_c, 9, 35, 100
2, 21420, Note_on_c, 9, 46, 100
2, 21445, Note_on_c, 9, 46, 0
2, 21445, Note_on_c, 9, 35, 0
2, 21480, Note_on_c, 9, 38, 125
2, 21480, Note_on_c, 9, 42, 120
2, 21505, Note_on_c, 9, 42, 0
2, 21505, Note_on_c, 9, 38, 0
2, 21540, Note_on_c, 9, 42, 87
2, 21565, Note_on_c, 9, 42, 0
2, 21600, Note_on_c, 9, 35, 110
2, 21600, Note_on_c, 9, 42, 114
2, 21625, Note_on_c, 9, 42, 0
2, 21625, Note_on_c, 9, 35, 0
2, 21660, Note_on_c, 9, 42, 80
2, 21685, Note_on_c, 9, 42, 0
2, 21720, Note_on_c, 9, 38, 125
2, 21720, Note_on_c, 9, 42, 104
2, 21745, Note_on_c, 9, 42, 0
2, 21745, Note_on_c, 9, 38, 0
2, 21780, Note_on_c, 9, 42, 65
2, 21805, Note_on_c, 9, 42, 0
2, 21810, Note_on_c, 9, 38, 60
2, 21835, Note_on_c, 9, 38, 0
2, 21840, Note_on_c, 9, 35, 110
2, 21840, Note_on_c, 9, 42, 110
2, 21865, Note_on_c, 9, 42, 0
2, 21865, Note_on_c, 9, 35, 0
2, 21900, Note_on_c, 9, 35, 100
2, 21900, Note_on_c, 9, 42, 80
2, 21925, Note_on_c, 9, 42, 0
2, 21925, Note_on_c, 9, 35, 0
2, 21960, Note_on_c, 9, 38, 125
2, 21960, Note_on_c, 9, 42, 110
2, 21985, Note_on_c, 9, 42, 0
2, 21985, Note_on_c, 9, 38, 0
2, 22020, Note_on_c, 9, 35, 105
2, 22020, Note_on_c, 9, 42, 80
2, 22045, Note_on_c, 9, 42, 0
2, 22045, Note_on_c, 9, 35, 0
2, 22080, Note_on_c, 9, 35, 110
2, 22080, Note_on_c, 9, 42, 110
2, 22105, Note_on_c, 9, 42, 0
2, 22105, Note_on_c, 9, 35, 0
2, 22140, Note_on_c, 9, 42, 76
2, 22165, Note_on_c, 9, 42, 0
2, 22200, Note_on_c, 9, 38, 125
2, 22200, Note_on_c, 9, 42, 110
2, 22225, Note_on_c, 9, 42, 0
2, 22225, Note_on_c, 9, 38, 0
2, 22260, Note_on_c, 9, 42, 70
2, 22285, Note_on_c, 9, 42, 0
2, 22320, Note_on_c, 9, 35, 110
2, 22320, Note_on_c, 9, 42, 115
2, 22345, Note_on_c, 9, 42, 0
2, 22345, Note_on_c, 9, 35, 0
2, 22380, Note_on_c, 9, 35, 100
2, 22380, Note_on_c, 9, 46, 100
2, 22405, Note_on_c, 9, 46, 0
2, 22405, Note_on_c, 9, 35, 0
2, 22440, Note_on_c, 9, 38, 125
2, 22440, Note_on_c, 9, 42, 120
2, 22465, Note_on_c, 9, 42, 0
2, 22465, Note_on_c, 9, 38, 0
2, 22500, Note_on_c, 9, 42, 87
2, 22525, Note_on_c, 9, 42, 0
2, 22560, Note_on_c, 9, 35, 110
2, 22560, Note_on_c, 9, 42, 110
2, 22585, Note_on_c, 9, 42, 0
2, 22585, Note_on_c, 9, 35, 0
2, 22620, Note_on_c, 9, 42, 80
2, 22645, Note_on_c, 9, 42, 0
2, 22680, Note_on_c, 9, 38, 125
2, 22680, Note_on_c, 9, 42, 110
2, 22705, Note_on_c, 9, 42, 0
2, 22705, Note_on_c, 9, 38, 0
2, 22740, Note_on_c, 9, 42, 80
2, 22765, Note_on_c, 9, 42, 0
2, 22800, Note_on_c, 9, 35, 110
2, 22800, Note_on_c, 9, 42, 110
2, 22825, Note_on_c, 9, 42, 0
2, 22825, Note_on_c, 9, 35, 0
2, 22860, Note_on_c, 9, 35, 100
2, 22860, Note_on_c, 9, 42, 64
2, 22885, Note_on_c, 9, 42, 0
2, 22885, Note_on_c, 9, 35, 0
2, 22920, Note_on_c, 9, 38, 125
2, 22920, Note_on_c, 9, 42, 110
2, 22945, Note_on_c, 9, 42, 0
2, 22945, Note_on_c, 9, 38, 0
2, 22980, Note_on_c, 9, 35, 105
2, 22980, Note_on_c, 9, 42, 80
2, 23005, Note_on_c, 9, 42, 0
2, 23005, Note_on_c, 9, 35, 0
2, 23040, Note_on_c, 9, 35, 110
2, 23040, Note_on_c, 9, 42, 110
2, 23065, Note_on_c, 9, 42, 0
2, 23065, Note_on_c, 9, 35, 0
2, 23100, Note_on_c, 9, 42, 76
2, 23125, Note_on_c, 9, 42, 0
2, 23160, Note_on_c, 9, 38, 125
2, 23160, Note_on_c, 9, 42, 110
2, 23185, Note_on_c, 9, 42, 0
2, 23185, Note_on_c, 9, 38, 0
2, 23220, Note_on_c, 9, 42, 70
2, 23245, Note_on_c, 9, 42, 0
2, 23280, Note_on_c, 9, 35, 110
2, 23280, Note_on_c, 9, 42, 115
2, 23305, Note_on_c, 9, 42, 0
2, 23305, Note_on_c, 9, 35, 0
2, 23340, Note_on_c, 9, 35, 100
2, 23340, Note_on_c, 9, 42, 85
2, 23365, Note_on_c, 9, 42, 0
2, 23365, Note_on_c, 9, 35, 0
2, 23400, Note_on_c, 9, 38, 125
2, 23400, Note_on_c, 9, 42, 120
2, 23425, Note_on_c, 9, 42, 0
2, 23425, Note_on_c, 9, 38, 0
2, 23460, Note_on_c, 9, 42, 87
2, 23485, Note_on_c, 9, 42, 0
2, 23520, Note_on_c, 9, 35, 110
2, 23520, Note_on_c, 9, 42, 110
2, 23545, Note_on_c, 9, 42, 0
2, 23545, Note_on_c, 9, 35, 0
2, 23580, Note_on_c, 9, 42, 80
2, 23605, Note_on_c, 9, 42, 0
2, 23640, Note_on_c, 9, 38, 125
2, 23640, Note_on_c, 9, 42, 110
2, 23665, Note_on_c, 9, 42, 0
2, 23665, Note_on_c, 9, 38, 0
2, 23700, Note_on_c, 9, 42, 80
2, 23725, Note_on_c, 9, 42, 0
2, 23760, Note_on_c, 9, 35, 110
2, 23760, Note_on_c, 9, 42, 110
2, 23785, Note_on_c, 9, 42, 0
2, 23785, Note_on_c, 9, 35, 0
2, 23790, Note_on_c, 9, 46, 90
2, 23815, Note_on_c, 9, 46, 0
2, 23820, Note_on_c, 9, 35, 100
2, 23820, Note_on_c, 9, 42, 80
2, 23845, Note_on_c, 9, 42, 0
2, 23845, Note_on_c, 9, 35, 0
2, 23850, Note_on_c, 9, 46, 100
2, 23875, Note_on_c, 9, 46, 0
2, 23880, Note_on_c, 9, 38, 125
2, 23880, Note_on_c, 9, 42, 110
2, 23905, Note_on_c, 9, 42, 0
2, 23905, Note_on_c, 9, 38, 0
2, 23940, Note_on_c, 9, 38, 125
2, 23940, Note_on_c, 9, 49, 110
2, 23965, Note_on_c, 9, 49, 0
2, 23965, Note_on_c, 9, 38, 0
2, 24000, Note_on_c, 9, 35, 110
2, 24000, Note_on_c, 9, 42, 110
2, 24025, Note_on_c, 9, 42, 0
2, 24025, Note_on_c, 9, 35, 0
2, 24060, Note_on_c, 9, 42, 76
2, 24085, Note_on_c, 9, 42, 0
2, 24120, Note_on_c, 9, 38, 125
2, 24120, Note_on_c, 9, 42, 110
2, 24145, Note_on_c, 9, 42, 0
2, 24145, Note_on_c, 9, 38, 0
2, 24180, Note_on_c, 9, 42, 70
2, 24205, Note_on_c, 9, 42, 0
2, 24240, Note_on_c, 9, 35, 110
2, 24240, Note_on_c, 9, 42, 115
2, 24265, Note_on_c, 9, 42, 0
2, 24265, Note_on_c, 9, 35, 0
2, 24300, Note_on_c, 9, 35, 100
2, 24300, Note_on_c, 9, 42, 85
2, 24325, Note_on_c, 9, 42, 0
2, 24325, Note_on_c, 9, 35, 0
2, 24360, Note_on_c, 9, 38, 125
2, 24360, Note_on_c, 9, 42, 120
2, 24385, Note_on_c, 9, 42, 0
2, 24385, Note_on_c, 9, 38, 0
2, 24420, Note_on_c, 9, 42, 87
2, 24445, Note_on_c, 9, 42, 0
2, 24480, Note_on_c, 9, 35, 110
2, 24480, Note_on_c, 9, 42, 110
2, 24505, Note_on_c, 9, 42, 0
2, 24505, Note_on_c, 9, 35, 0
2, 24540, Note_on_c, 9, 42, 64
2, 24565, Note_on_c, 9, 42, 0
2, 24600, Note_on_c, 9, 38, 125
2, 24600, Note_on_c, 9, 42, 110
2, 24625, Note_on_c, 9, 42, 0
2, 24625, Note_on_c, 9, 38, 0
2, 24660, Note_on_c, 9, 42, 80
2, 24685, Note_on_c, 9, 42, 0
2, 24720, Note_on_c, 9, 35, 110
2, 24720, Note_on_c, 9, 42, 110
2, 24745, Note_on_c, 9, 42, 0
2, 24745, Note_on_c, 9, 35, 0
2, 24780, Note_on_c, 9, 35, 100
2, 24780, Note_on_c, 9, 42, 64
2, 24805, Note_on_c, 9, 42, 0
2, 24805, Note_on_c, 9, 35, 0
2, 24840, Note_on_c, 9, 38, 125
2, 24840, Note_on_c, 9, 42, 110
2, 24865, Note_on_c, 9, 42, 0
2, 24865, Note_on_c, 9, 38, 0
2, 24900, Note_on_c, 9, 35, 105
2, 24900, Note_on_c, 9, 42, 80
2, 24925, Note_on_c, 9, 42, 0
2, 24925, Note_on_c, 9, 35, 0
2, 24960, Note_on_c, 9, 35, 110
2, 24960, Note_on_c, 9, 42, 110
2, 24985, Note_on_c, 9, 42, 0
2, 24985, Note_on_c, 9, 35, 0
2, 25020, Note_on_c, 9, 42, 76
2, 25045, Note_on_c, 9, 42, 0
2, 25080, Note_on_c, 9, 38, 125
2, 25080, Note_on_c, 9, 42, 110
2, 25105, Note_on_c, 9, 42, 0
2, 25105, Note_on_c, 9, 38, 0
2, 25140, Note_on_c, 9, 42, 70
2, 25165, Note_on_c, 9, 42, 0
2, 25200, Note_on_c, 9, 35, 110
2, 25200, Note_on_c, 9, 42, 115
2, 25225, Note_on_c, 9, 42, 0
2, 25225, Note_on_c, 9, 35, 0
2, 25260, Note_on_c, 9, 35, 100
2, 25260, Note_on_c, 9, 46, 100
2, 25285, Note_on_c, 9, 46, 0
2, 25285, Note_on_c, 9, 35, 0
2, 25320, Note_on_c, 9, 38, 125
2, 25320, Note_on_c, 9, 42, 120
2, 25345, Note_on_c, 9, 42, 0
2, 25345, Note_on_c, 9, 38, 0
2, 25380, Note_on_c, 9, 42, 87
2, 25405, Note_on_c, 9, 42, 0
2, 25410, Note_on_c, 9, 38, 60
2, 25435, Note_on_c, 9, 38, 0
2, 25440, Note_on_c, 9, 35, 110
2, 25440, Note_on_c, 9, 42, 110
2, 25465, Note_on_c, 9, 42, 0
2, 25465, Note_on_c, 9, 35, 0
2, 25500, Note_on_c, 9, 42, 80
2, 25525, Note_on_c, 9, 42, 0
2, 25560, Note_on_c, 9, 38, 125
2, 25560, Note_on_c, 9, 42, 110
2, 25585, Note_on_c, 9, 42, 0
2, 25585, Note_on_c, 9, 38, 0
2, 25620, Note_on_c, 9, 42, 80
2, 25645, Note_on_c, 9, 42, 0
2, 25680, Note_on_c, 9, 35, 110
2, 25680, Note_on_c, 9, 42, 110
2, 25705, Note_on_c, 9, 42, 0
2, 25705, Note_on_c, 9, 35, 0
2, 25740, Note_on_c, 9, 35, 100
2, 25740, Note_on_c, 9, 42, 80
2, 25765, Note_on_c, 9, 42, 0
2, 25765, Note_on_c, 9, 35, 0
2, 25800, Note_on_c, 9, 38, 125
2, 25800, Note_on_c, 9, 42, 110
2, 25825, Note_on_c, 9, 42, 0
2, 25825, Note_on_c, 9, 38, 0
2, 25860, Note_on_c, 9, 35, 105
2, 25860, Note_on_c, 9, 42, 80
2, 25885, Note_on_c, 9, 42, 0
2, 25885, Note_on_c, 9, 35, 0
2, 25920, Note_on_c, 9, 35, 110
2, 25920, Note_on_c, 9, 42, 110
2, 25945, Note_on_c, 9, 42, 0
2, 25945, Note_on_c, 9, 35, 0
2, 25980, Note_on_c, 9, 42, 118
2, 26005, Note_on_c, 9, 42, 0
2, 26040, Note_on_c, 9, 38, 125
2, 26040, Note_on_c, 9, 42, 110
2, 26065, Note_on_c, 9, 42, 0
2, 26065, Note_on_c, 9, 38, 0
2, 26100, Note_on_c, 9, 42, 80
2, 26125, Note_on_c, 9, 42, 0
2, 26160, Note_on_c, 9, 35, 110
2, 26160, Note_on_c, 9, 42, 110
2, 26185, Note_on_c, 9, 42, 0
2, 26185, Note_on_c, 9, 35, 0
2, 26220, Note_on_c, 9, 35, 100
2, 26220, Note_on_c, 9, 42, 80
2, 26245, Note_on_c, 9, 42, 0
2, 26245, Note_on_c, 9, 35, 0
2, 26280, Note_on_c, 9, 38, 125
2, 26280, Note_on_c, 9, 42, 110
2, 26305, Note_on_c, 9, 42, 0
2, 26305, Note_on_c, 9, 38, 0
2, 26340, Note_on_c, 9, 42, 80
2, 26365, Note_on_c, 9, 42, 0
2, 26400, Note_on_c, 9, 35, 110
2, 26400, Note_on_c, 9, 42, 110
2, 26425, Note_on_c, 9, 42, 0
2, 26425, Note_on_c, 9, 35, 0
2, 26460, Note_on_c, 9, 42, 80
2, 26485, Note_on_c, 9, 42, 0
2, 26520, Note_on_c, 9, 38, 125
2, 26520, Note_on_c, 9, 42, 110
2, 26545, Note_on_c, 9, 42, 0
2, 26545, Note_on_c, 9, 38, 0
2, 26580, Note_on_c, 9, 42, 80
2, 26605, Note_on_c, 9, 42, 0
2, 26640, Note_on_c, 9, 35, 110
2, 26640, Note_on_c, 9, 42, 118
2, 26665, Note_on_c, 9, 42, 0
2, 26665, Note_on_c, 9, 35, 0
2, 26700, Note_on_c, 9, 35, 100
2, 26700, Note_on_c, 9, 42, 80
2, 26725, Note_on_c, 9, 42, 0
2, 26725, Note_on_c, 9, 35, 0
2, 26760, Note_on_c, 9, 38, 125
2, 26760, Note_on_c, 9, 42, 110
2, 26785, Note_on_c, 9, 42, 0
2, 26785, Note_on_c, 9, 38, 0
2, 26820, Note_on_c, 9, 35, 105
2, 26820, Note_on_c, 9, 42, 80
2, 26845, Note_on_c, 9, 42, 0
2, 26845, Note_on_c, 9, 35, 0
2, 26880, Note_on_c, 9, 35, 110
2, 26880, Note_on_c, 9, 42, 110
2, 26905, Note_on_c, 9, 42, 0
2, 26905, Note_on_c, 9, 35, 0
2, 26940, Note_on_c, 9, 42, 80
2, 26965, Note_on_c, 9, 42, 0
2, 27000, Note_on_c, 9, 38, 125
2, 27000, Note_on_c, 9, 42, 110
2, 27025, Note_on_c, 9, 42, 0
2, 27025, Note_on_c, 9, 38, 0
2, 27060, Note_on_c, 9, 46, 100
2, 27085, Note_on_c, 9, 46, 0
2, 27120, Note_on_c, 9, 35, 110
2, 27120, Note_on_c, 9, 42, 110
2, 27145, Note_on_c, 9, 42, 0
2, 27145, Note_on_c, 9, 35, 0
2, 27180, Note_on_c, 9, 35, 100
2, 27180, Note_on_c, 9, 42, 80
2, 27205, Note_on_c, 9, 42, 0
2, 27205, Note_on_c, 9, 35, 0
2, 27240, Note_on_c, 9, 38, 125
2, 27240, Note_on_c, 9, 42, 110
2, 27265, Note_on_c, 9, 42, 0
2, 27265, Note_on_c, 9, 38, 0
2, 27300, Note_on_c, 9, 42, 80
2, 27325, Note_on_c, 9, 42, 0
2, 27360, Note_on_c, 9, 35, 110
2, 27360, Note_on_c, 9, 42, 110
2, 27385, Note_on_c, 9, 42, 0
2, 27385, Note_on_c, 9, 35, 0
2, 27420, Note_on_c, 9, 42, 80
2, 27445, Note_on_c, 9, 42, 0
2, 27480, Note_on_c, 9, 38, 125
2, 27480, Note_on_c, 9, 42, 110
2, 27505, Note_on_c, 9, 42, 0
2, 27505, Note_on_c, 9, 38, 0
2, 27540, Note_on_c, 9, 42, 80
2, 27565, Note_on_c, 9, 42, 0
2, 27600, Note_on_c, 9, 35, 110
2, 27600, Note_on_c, 9, 42, 110
2, 27625, Note_on_c, 9, 42, 0
2, 27625, Note_on_c, 9, 35, 0
2, 27660, Note_on_c, 9, 35, 100
2, 27660, Note_on_c, 9, 42, 64
2, 27685, Note_on_c, 9, 42, 0
2, 27685, Note_on_c, 9, 35, 0
2, 27720, Note_on_c, 9, 38, 125
2, 27720, Note_on_c, 9, 42, 110
2, 27745, Note_on_c, 9, 42, 0
2, 27745, Note_on_c, 9, 38, 0
2, 27780, Note_on_c, 9, 35, 105
2, 27780, Note_on_c, 9, 42, 80
2, 27805, Note_on_c, 9, 42, 0
2, 27805, Note_on_c, 9, 35, 0
2, 27840, Note_on_c, 9, 35, 110
2, 27840, Note_on_c, 9, 42, 110
2, 27865, Note_on_c, 9, 42, 0
2, 27865, Note_on_c, 9, 35, 0
2, 27900, Note_on_c, 9, 42, 76
2, 27925, Note_on_c, 9, 42, 0
2, 27960, Note_on_c, 9, 38, 125
2, 27960, Note_on_c, 9, 42, 110
2, 27985, Note_on_c, 9, 42, 0
2, 27985, Note_on_c, 9, 38, 0
2, 28020, Note_on_c, 9, 42, 70
2, 28045, Note_on_c, 9, 42, 0
2, 28080, Note_on_c, 9, 35, 110
2, 28080, Note_on_c, 9, 42, 115
2, 28105, Note_on_c, 9, 42, 0
2, 28105, Note_on_c, 9, 35, 0
2, 28140, Note_on_c, 9, 35, 100
2, 28140, Note_on_c, 9, 42, 85
2, 28165, Note_on_c, 9, 42, 0
2, 28165, Note_on_c, 9, 35, 0
2, 28200, Note_on_c, 9, 38, 125
2, 28200, Note_on_c, 9, 42, 120
2, 28225, Note_on_c, 9, 42, 0
2, 28225, Note_on_c, 9, 38, 0
2, 28260, Note_on_c, 9, 42, 87
2, 28285, Note_on_c, 9, 42, 0
2, 28320, Note_on_c, 9, 35, 110
2, 28320, Note_on_c, 9, 42, 110
2, 28345, Note_on_c, 9, 42, 0
2, 28345, Note_on_c, 9, 35, 0
2, 28380, Note_on_c, 9, 42, 80
2, 28405, Note_on_c, 9, 42, 0
2, 28440, Note_on_c, 9, 38, 125
2, 28440, Note_on_c, 9, 42, 110
2, 28465, Note_on_c, 9, 42, 0
2, 28465, Note_on_c, 9, 38, 0
2, 28500, Note_on_c, 9, 42, 80
2, 28525, Note_on_c, 9, 42, 0
2, 28560, Note_on_c, 9, 35, 110
2, 28560, Note_on_c, 9, 42, 110
2, 28585, Note_on_c, 9, 42, 0
2, 28585, Note_on_c, 9, 35, 0
2, 28620, Note_on_c, 9, 35, 100
2, 28620, Note_on_c, 9, 42, 80
2, 28645, Note_on_c, 9, 42, 0
2, 28645, Note_on_c, 9, 35, 0
2, 28680, Note_on_c, 9, 38, 125
2, 28680, Note_on_c, 9, 42, 110
2, 28705, Note_on_c, 9, 42, 0
2, 28705, Note_on_c, 9, 38, 0
2, 28740, Note_on_c, 9, 35, 105
2, 28740, Note_on_c, 9, 42, 80
2, 28765, Note_on_c, 9, 42, 0
2, 28765, Note_on_c, 9, 35, 0
2, 28800, Note_on_c, 9, 35, 110
2, 28800, Note_on_c, 9, 42, 110
2, 28825, Note_on_c, 9, 42, 0
2, 28825, Note_on_c, 9, 35, 0
2, 28860, Note_on_c, 9, 42, 118
2, 28885, Note_on_c, 9, 42, 0
2, 28920, Note_on_c, 9, 38, 125
2, 28920, Note_on_c, 9, 42, 110
2, 28945, Note_on_c, 9, 42, 0
2, 28945, Note_on_c, 9, 38, 0
2, 28980, Note_on_c, 9, 42, 80
2, 29005, Note_on_c, 9, 42, 0
2, 29040, Note_on_c, 9, 35, 110
2, 29040, Note_on_c, 9, 42, 110
2, 29065, Note_on_c, 9, 42, 0
2, 29065, Note_on_c, 9, 35, 0
2, 29100, Note_on_c, 9, 35, 100
2, 29100, Note_on_c, 9, 42, 80
2, 29125, Note_on_c, 9, 42, 0
2, 29125, Note_on_c, 9, 35, 0
2, 29160, Note_on_c, 9, 38, 125
2, 29160, Note_on_c, 9, 42, 110
2, 29185, Note_on_c, 9, 42, 0
2, 29185, Note_on_c, 9, 38, 0
2, 29220, Note_on_c, 9, 42, 80
2, 29245, Note_on_c, 9, 42, 0
2, 29280, Note_on_c, 9, 35, 110
2, 29280, Note_on_c, 9, 42, 114
2, 29305, Note_on_c, 9, 42, 0
2, 29305, Note_on_c, 9, 35, 0
2, 29340, Note_on_c, 9, 42, 80
2, 29365, Note_on_c, 9, 42, 0
2, 29375, Control_c, 9, 7, 126
2, 29385, Control_c, 9, 7, 125
2, 29390, Control_c, 9, 7, 124
2, 29400, Note_on_c, 9, 38, 125
2, 29400, Note_on_c, 9, 42, 104
2, 29425, Note_on_c, 9, 42, 0
2, 29425, Note_on_c, 9, 38, 0
2, 29440, Control_c, 9, 7, 123
2, 29460, Note_on_c, 9, 42, 65
2, 29485, Note_on_c, 9, 42, 0
2, 29505, Control_c, 9, 7, 122
2, 29515, Control_c, 9, 7, 121
2, 29520, Note_on_c, 9, 35, 110
2, 29520, Note_on_c, 9, 42, 110
2, 29523, Control_c, 9, 7, 120
2, 29526, Control_c, 9, 7, 119
2, 29545, Note_on_c, 9, 42, 0
2, 29545, Note_on_c, 9, 35, 0
2, 29580, Note_on_c, 9, 35, 100
2, 29580, Note_on_c, 9, 42, 80
2, 29585, Control_c, 9, 7, 118
2, 29605, Note_on_c, 9, 42, 0
2, 29605, Note_on_c, 9, 35, 0
2, 29630, Control_c, 9, 7, 117
2, 29635, Control_c, 9, 7, 116
2, 29640, Control_c, 9, 7, 115
2, 29640, Note_on_c, 9, 38, 125
2, 29640, Note_on_c, 9, 42, 110
2, 29644, Control_c, 9, 7, 114
2, 29665, Note_on_c, 9, 42, 0
2, 29665, Note_on_c, 9, 38, 0
2, 29699, Control_c, 9, 7, 113
2, 29700, Note_on_c, 9, 35, 105
2, 29700, Note_on_c, 9, 46, 100
2, 29703, Control_c, 9, 7, 112
2, 29725, Note_on_c, 9, 46, 0
2, 29725, Note_on_c, 9, 35, 0
2, 29758, Control_c, 9, 7, 111
2, 29760, Note_on_c, 9, 35, 110
2, 29760, Note_on_c, 9, 42, 110
2, 29762, Control_c, 9, 7, 110
2, 29768, Control_c, 9, 7, 109
2, 29785, Note_on_c, 9, 42, 0
2, 29785, Note_on_c, 9, 35, 0
2, 29820, Note_on_c, 9, 42, 76
2, 29845, Note_on_c, 9, 42, 0
2, 29845, Control_c, 9, 7, 108
2, 29850, Control_c, 9, 7, 107
2, 29855, Control_c, 9, 7, 106
2, 29865, Control_c, 9, 7, 105
2, 29880, Note_on_c, 9, 38, 125
2, 29880, Note_on_c, 9, 42, 110
2, 29905, Note_on_c, 9, 42, 0
2, 29905, Note_on_c, 9, 38, 0
2, 29905, Control_c, 9, 7, 104
2, 29910, Control_c, 9, 7, 103
2, 29940, Note_on_c, 9, 42, 70
2, 29965, Note_on_c, 9, 42, 0
2, 29965, Control_c, 9, 7, 102
2, 29975, Control_c, 9, 7, 101
2, 29980, Control_c, 9, 7, 100
2, 30000, Note_on_c, 9, 35, 110
2, 30000, Note_on_c, 9, 42, 115
2, 30012, Control_c, 9, 7, 99
2, 30017, Control_c, 9, 7, 98
2, 30022, Control_c, 9, 7, 97
2, 30025, Note_on_c, 9, 42, 0
2, 30025, Note_on_c, 9, 35, 0
2, 30025, Control_c, 9, 7, 96
2, 30060, Note_on_c, 9, 35, 100
2, 30060, Note_on_c, 9, 42, 85
2, 30063, Control_c, 9, 7, 95
2, 30071, Control_c, 9, 7, 94
2, 30076, Control_c, 9, 7, 93
2, 30081, Control_c, 9, 7, 92
2, 30085, Note_on_c, 9, 42, 0
2, 30085, Note_on_c, 9, 35, 0
2, 30115, Control_c, 9, 7, 91
2, 30120, Note_on_c, 9, 38, 125
2, 30120, Note_on_c, 9, 42, 120
2, 30124, Control_c, 9, 7, 90
2, 30129, Control_c, 9, 7, 89
2, 30132, Control_c, 9, 7, 88
2, 30137, Control_c, 9, 7, 87
2, 30145, Note_on_c, 9, 42, 0
2, 30145, Note_on_c, 9, 38, 0
2, 30146, Control_c, 9, 7, 86
2, 30180, Note_on_c, 9, 42, 87
2, 30205, Note_on_c, 9, 42, 0
2, 30205, Control_c, 9, 7, 85
2, 30210, Control_c, 9, 7, 84
2, 30240, Note_on_c, 9, 35, 110
2, 30240, Note_on_c, 9, 42, 110
2, 30248, Control_c, 9, 7, 83
2, 30253, Control_c, 9, 7, 82
2, 30258, Control_c, 9, 7, 81
2, 30265, Note_on_c, 9, 42, 0
2, 30265, Note_on_c, 9, 35, 0
2, 30300, Note_on_c, 9, 42, 80
2, 30325, Note_on_c, 9, 42, 0
2, 30345, Control_c, 9, 7, 80
2, 30350, Control_c, 9, 7, 79
2, 30360, Note_on_c, 9, 38, 125
2, 30360, Note_on_c, 9, 42, 110
2, 30369, Control_c, 9, 7, 78
2, 30385, Note_on_c, 9, 42, 0
2, 30385, Note_on_c, 9, 38, 0
2, 30385, Control_c, 9, 7, 77
2, 30400, Control_c, 9, 7, 76
2, 30420, Note_on_c, 9, 42, 80
2, 30445, Note_on_c, 9, 42, 0
2, 30470, Control_c, 9, 7, 75
2, 30480, Note_on_c, 9, 35, 110
2, 30480, Note_on_c, 9, 42, 110
2, 30489, Control_c, 9, 7, 74
2, 30499, Control_c, 9, 7, 73
2, 30505, Note_on_c, 9, 42, 0
2, 30505, Note_on_c, 9, 35, 0
2, 30510, Control_c, 9, 7, 72
2, 30540, Note_on_c, 9, 35, 100
2, 30540, Note_on_c, 9, 42, 80
2, 30545, Control_c, 9, 7, 71
2, 30550, Control_c, 9, 7, 70
2, 30555, Control_c, 9, 7, 69
2, 30560, Control_c, 9, 7, 68
2, 30565, Note_on_c, 9, 42, 0
2, 30565, Note_on_c, 9, 35, 0
2, 30600, Note_on_c, 9, 38, 125
2, 30600, Note_on_c, 9, 42, 110
2, 30607, Control_c, 9, 7, 67
2, 30612, Control_c, 9, 7, 65
2, 30617, Control_c, 9, 7, 64
2, 30625, Note_on_c, 9, 42, 0
2, 30625, Note_on_c, 9, 38, 0
2, 30660, Note_on_c, 9, 35, 105
2, 30660, Note_on_c, 9, 42, 80
2, 30667, Control_c, 9, 7, 63
2, 30672, Control_c, 9, 7, 62
2, 30677, Control_c, 9, 7, 61
2, 30685, Note_on_c, 9, 42, 0
2, 30685, Note_on_c, 9, 35, 0
2, 30720, Note_on_c, 9, 35, 110
2, 30720, Note_on_c, 9, 42, 110
2, 30723, Control_c, 9, 7, 60
2, 30728, Control_c, 9, 7, 59
2, 30732, Control_c, 9, 7, 57
2, 30737, Control_c, 9, 7, 56
2, 30745, Note_on_c, 9, 42, 0
2, 30745, Note_on_c, 9, 35, 0
2, 30745, Control_c, 9, 7, 55
2, 30780, Note_on_c, 9, 42, 76
2, 30798, Control_c, 9, 7, 54
2, 30803, Control_c, 9, 7, 53
2, 30805, Note_on_c, 9, 42, 0
2, 30805, Control_c, 9, 7, 52
2, 30810, Control_c, 9, 7, 51
2, 30840, Note_on_c, 9, 38, 125
2, 30840, Note_on_c, 9, 42, 110
2, 30865, Note_on_c, 9, 42, 0
2, 30865, Note_on_c, 9, 38, 0
2, 30870, Control_c, 9, 7, 50
2, 30880, Control_c, 9, 7, 48
2, 30880, Control_c, 9, 7, 49
2, 30900, Note_on_c, 9, 42, 70
2, 30910, Control_c, 9, 7, 47
2, 30915, Control_c, 9, 7, 46
2, 30920, Control_c, 9, 7, 45
2, 30925, Note_on_c, 9, 42, 0
2, 30925, Control_c, 9, 7, 44
2, 30930, Control_c, 9, 7, 43
2, 30940, Control_c, 9, 7, 42
2, 30955, Control_c, 9, 7, 41
2, 30960, Note_on_c, 9, 35, 110
2, 30960, Note_on_c, 9, 42, 115
2, 30970, Control_c, 9, 7, 40
2, 30975, Control_c, 9, 7, 39
2, 30980, Control_c, 9, 7, 38
2, 30985, Note_on_c, 9, 42, 0
2, 30985, Note_on_c, 9, 35, 0
2, 30985, Control_c, 9, 7, 37
2, 31012, Control_c, 9, 7, 36
2, 31015, Control_c, 9, 7, 35
2, 31020, Control_c, 9, 7, 34
2, 31020, Note_on_c, 9, 35, 100
2, 31020, Note_on_c, 9, 42, 85
2, 31045, Note_on_c, 9, 42, 0
2, 31045, Note_on_c, 9, 35, 0
2, 31045, Control_c, 9, 7, 33
2, 31050, Control_c, 9, 7, 32
2, 31055, Control_c, 9, 7, 31
2, 31060, Control_c, 9, 7, 30
2, 31065, Control_c, 9, 7, 29
2, 31070, Control_c, 9, 7, 27
2, 31080, Note_on_c, 9, 38, 125
2, 31080, Note_on_c, 9, 42, 120
2, 31096, Control_c, 9, 7, 26
2, 31101, Control_c, 9, 7, 25
2, 31105, Note_on_c, 9, 42, 0
2, 31105, Note_on_c, 9, 38, 0
2, 31105, Control_c, 9, 7, 24
2, 31115, Control_c, 9, 7, 23
2, 31140, Note_on_c, 9, 42, 87
2, 31141, Control_c, 9, 7, 22
2, 31150, Control_c, 9, 7, 21
2, 31155, Control_c, 9, 7, 20
2, 31165, Note_on_c, 9, 42, 0
2, 31174, Control_c, 9, 7, 19
2, 31179, Control_c, 9, 7, 18
2, 31189, Control_c, 9, 7, 17
2, 31200, Note_on_c, 9, 35, 110
2, 31200, Note_on_c, 9, 42, 110
2, 31219, Control_c, 9, 7, 16
2, 31225, Note_on_c, 9, 42, 0
2, 31225, Note_on_c, 9, 35, 0
2, 31225, Control_c, 9, 7, 15
2, 31230, Control_c, 9, 7, 14
2, 31235, Control_c, 9, 7, 13
2, 31250, Control_c, 9, 7, 12
2, 31260, Note_on_c, 9, 42, 80
2, 31265, Control_c, 9, 7, 11
2, 31275, Control_c, 9, 7, 10
2, 31285, Note_on_c, 9, 42, 0
2, 31300, Control_c, 9, 7, 9
2, 31305, Control_c, 9, 7, 8
2, 31315, Control_c, 9, 7, 7
2, 31320, Note_on_c, 9, 38, 125
2, 31320, Note_on_c, 9, 42, 110
2, 31330, Control_c, 9, 7, 6
2, 31332, Control_c, 9, 7, 5
2, 31342, Control_c, 9, 7, 4
2, 31345, Note_on_c, 9, 42, 0
2, 31345, Note_on_c, 9, 38, 0
2, 31345, Control_c, 9, 7, 3
2, 31350, Control_c, 9, 7, 2
2, 31355, Control_c, 9, 7, 1
2, 31365, Control_c, 9, 7, 0
2, 31380, Note_on_c, 9, 42, 80
2, 31405, Note_on_c, 9, 42, 0
2, 31440, Note_on_c, 9, 35, 110
2, 31440, Note_on_c, 9, 42, 110
2, 31465, Note_on_c, 9, 42, 0
2, 31465, Note_on_c, 9, 35, 0
2, 31470, Note_on_c, 9, 46, 90
2, 31495, Note_on_c, 9, 46, 0
2, 31500, Note_on_c, 9, 35, 100
2, 31500, Note_on_c, 9, 42, 80
2, 31525, Note_on_c, 9, 42, 0
2, 31525, Note_on_c, 9, 35, 0
2, 31530, Note_on_c, 9, 46, 100
2, 31555, Note_on_c, 9, 46, 0
2, 31560, Note_on_c, 9, 38, 125
2, 31560, Note_on_c, 9, 42, 110
2, 31585, Note_on_c, 9, 42, 0
2, 31585, Note_on_c, 9, 38, 0
2, 31620, Note_on_c, 9, 38, 125
2, 31620, Note_on_c, 9, 49, 110
2, 31645, Note_on_c, 9, 49, 0
2, 31645, Note_on_c, 9, 38, 0
2, 31645, End_track
3, 0, Start_track
3, 0, MIDI_port, 0
3, 0, Title_t, "Accoustic Grand Piano"
3, 0, Control_c, 1, 7, 102
3, 0, Control_c, 1, 10, 47
3, 0, Program_c, 1, 0
3, 480, Note_on_c, 1, 41, 115
3, 480, Note_on_c, 1, 53, 107
3, 480, Note_on_c, 1, 57, 118
3, 480, Note_on_c, 1, 60, 118
3, 480, Note_on_c, 1, 65, 118
3, 539, Note_on_c, 1, 65, 0
3, 539, Note_on_c, 1, 57, 0
3, 539, Note_on_c, 1, 41, 0
3, 539, Note_on_c, 1, 53, 0
3, 539, Note_on_c, 1, 60, 0
3, 600, Note_on_c, 1, 65, 118
3, 600, Note_on_c, 1, 53, 97
3, 600, Note_on_c, 1, 41, 107
3, 600, Note_on_c, 1, 60, 122
3, 600, Note_on_c, 1, 57, 118
3, 659, Note_on_c, 1, 57, 0
3, 659, Note_on_c, 1, 41, 0
3, 659, Note_on_c, 1, 65, 0
3, 659, Note_on_c, 1, 53, 0
3, 659, Note_on_c, 1, 60, 0
3, 720, Note_on_c, 1, 65, 121
3, 720, Note_on_c, 1, 53, 118
3, 720, Note_on_c, 1, 60, 121
3, 720, Note_on_c, 1, 57, 121
3, 720, Note_on_c, 1, 41, 118
3, 779, Note_on_c, 1, 41, 0
3, 779, Note_on_c, 1, 60, 0
3, 779, Note_on_c, 1, 65, 0
3, 779, Note_on_c, 1, 53, 0
3, 779, Note_on_c, 1, 57, 0
3, 840, Note_on_c, 1, 53, 93
3, 840, Note_on_c, 1, 65, 115
3, 840, Note_on_c, 1, 57, 121
3, 840, Note_on_c, 1, 41, 87
3, 840, Note_on_c, 1, 60, 121
3, 840, Note_on_c, 1, 63, 103
3, 899, Note_on_c, 1, 63, 0
3, 899, Note_on_c, 1, 65, 0
3, 899, Note_on_c, 1, 57, 0
3, 899, Note_on_c, 1, 53, 0
3, 899, Note_on_c, 1, 60, 0
3, 899, Note_on_c, 1, 41, 0
3, 900, Note_on_c, 1, 60, 97
3, 900, Note_on_c, 1, 65, 115
3, 900, Note_on_c, 1, 57, 97
3, 959, Note_on_c, 1, 57, 0
3, 959, Note_on_c, 1, 65, 0
3, 959, Note_on_c, 1, 60, 0
3, 960, Note_on_c, 1, 50, 103
3, 960, Note_on_c, 1, 65, 118
3, 960, Note_on_c, 1, 38, 107
3, 960, Note_on_c, 1, 57, 121
3, 960, Note_on_c, 1, 62, 121
3, 1019, Note_on_c, 1, 62, 0
3, 1019, Note_on_c, 1, 38, 0
3, 1019, Note_on_c, 1, 50, 0
3, 1019, Note_on_c, 1, 65, 0
3, 1019, Note_on_c, 1, 57, 0
3, 1020, Note_on_c, 1, 57, 91
3, 1020, Note_on_c, 1, 65, 103
3, 1020, Note_on_c, 1, 62, 107
3, 1079, Note_on_c, 1, 62, 0
3, 1079, Note_on_c, 1, 65, 0
3, 1079, Note_on_c, 1, 57, 0
3, 1080, Note_on_c, 1, 65, 118
3, 1080, Note_on_c, 1, 62, 122
3, 1080, Note_on_c, 1, 57, 121
3, 1080, Note_on_c, 1, 50, 121
3, 1080, Note_on_c, 1, 38, 118
3, 1139, Note_on_c, 1, 38, 0
3, 1139, Note_on_c, 1, 57, 0
3, 1139, Note_on_c, 1, 65, 0
3, 1139, Note_on_c, 1, 62, 0
3, 1139, Note_on_c, 1, 50, 0
3, 1140, Note_on_c, 1, 65, 118
3, 1140, Note_on_c, 1, 57, 118
3, 1140, Note_on_c, 1, 62, 121
3, 1199, Note_on_c, 1, 62, 0
3, 1199, Note_on_c, 1, 57, 0
3, 1199, Note_on_c, 1, 65, 0
3, 1200, Note_on_c, 1, 50, 118
3, 1200, Note_on_c, 1, 38, 118
3, 1259, Note_on_c, 1, 38, 0
3, 1259, Note_on_c, 1, 50, 0
3, 1260, Note_on_c, 1, 62, 115
3, 1260, Note_on_c, 1, 65, 107
3, 1260, Note_on_c, 1, 57, 115
3, 1319, Note_on_c, 1, 57, 0
3, 1319, Note_on_c, 1, 65, 0
3, 1319, Note_on_c, 1, 62, 0
3, 1320, Note_on_c, 1, 50, 118
3, 1320, Note_on_c, 1, 62, 115
3, 1320, Note_on_c, 1, 65, 107
3, 1320, Note_on_c, 1, 38, 118
3, 1320, Note_on_c, 1, 57, 103
3, 1379, Note_on_c, 1, 57, 0
3, 1379, Note_on_c, 1, 65, 0
3, 1379, Note_on_c, 1, 50, 0
3, 1379, Note_on_c, 1, 62, 0
3, 1379, Note_on_c, 1, 38, 0
3, 1380, Note_on_c, 1, 65, 107
3, 1380, Note_on_c, 1, 62, 97
3, 1380, Note_on_c, 1, 57, 97
3, 1439, Note_on_c, 1, 57, 0
3, 1439, Note_on_c, 1, 62, 0
3, 1439, Note_on_c, 1, 65, 0
3, 1440, Note_on_c, 1, 46, 97
3, 1440, Note_on_c, 1, 62, 115
3, 1440, Note_on_c, 1, 34, 107
3, 1440, Note_on_c, 1, 65, 118
3, 1440, Note_on_c, 1, 58, 122
3, 1499, Note_on_c, 1, 58, 0
3, 1499, Note_on_c, 1, 34, 0
3, 1499, Note_on_c, 1, 46, 0
3, 1499, Note_on_c, 1, 62, 0
3, 1499, Note_on_c, 1, 65, 0
3, 1560, Note_on_c, 1, 65, 103
3, 1560, Note_on_c, 1, 58, 107
3, 1560, Note_on_c, 1, 46, 103
3, 1560, Note_on_c, 1, 62, 107
3, 1560, Note_on_c, 1, 34, 107
3, 1619, Note_on_c, 1, 34, 0
3, 1619, Note_on_c, 1, 46, 0
3, 1619, Note_on_c, 1, 65, 0
3, 1619, Note_on_c, 1, 58, 0
3, 1619, Note_on_c, 1, 62, 0
3, 1620, Note_on_c, 1, 65, 103
3, 1620, Note_on_c, 1, 62, 103
3, 1620, Note_on_c, 1, 58, 107
3, 1679, Note_on_c, 1, 58, 0
3, 1679, Note_on_c, 1, 62, 0
3, 1679, Note_on_c, 1, 65, 0
3, 1680, Note_on_c, 1, 34, 118
3, 1680, Note_on_c, 1, 46, 121
3, 1739, Note_on_c, 1, 46, 0
3, 1739, Note_on_c, 1, 34, 0
3, 1740, Note_on_c, 1, 65, 93
3, 1740, Note_on_c, 1, 58, 97
3, 1740, Note_on_c, 1, 62, 107
3, 1799, Note_on_c, 1, 62, 0
3, 1799, Note_on_c, 1, 58, 0
3, 1799, Note_on_c, 1, 65, 0
3, 1800, Note_on_c, 1, 34, 115
3, 1800, Note_on_c, 1, 46, 115
3, 1800, Note_on_c, 1, 62, 107
3, 1800, Note_on_c, 1, 65, 103
3, 1800, Note_on_c, 1, 58, 103
3, 1859, Note_on_c, 1, 58, 0
3, 1859, Note_on_c, 1, 62, 0
3, 1859, Note_on_c, 1, 34, 0
3, 1859, Note_on_c, 1, 46, 0
3, 1859, Note_on_c, 1, 65, 0
3, 1860, Note_on_c, 1, 58, 93
3, 1860, Note_on_c, 1, 62, 97
3, 1860, Note_on_c, 1, 65, 91
3, 1919, Note_on_c, 1, 65, 0
3, 1919, Note_on_c, 1, 62, 0
3, 1919, Note_on_c, 1, 58, 0
3, 1920, Note_on_c, 1, 60, 115
3, 1920, Note_on_c, 1, 64, 118
3, 1920, Note_on_c, 1, 67, 115
3, 1920, Note_on_c, 1, 48, 83
3, 1920, Note_on_c, 1, 36, 97
3, 1979, Note_on_c, 1, 36, 0
3, 1979, Note_on_c, 1, 67, 0
3, 1979, Note_on_c, 1, 60, 0
3, 1979, Note_on_c, 1, 64, 0
3, 1979, Note_on_c, 1, 48, 0
3, 2040, Note_on_c, 1, 48, 83
3, 2040, Note_on_c, 1, 64, 107
3, 2040, Note_on_c, 1, 60, 115
3, 2040, Note_on_c, 1, 67, 97
3, 2040, Note_on_c, 1, 36, 97
3, 2099, Note_on_c, 1, 36, 0
3, 2099, Note_on_c, 1, 60, 0
3, 2099, Note_on_c, 1, 48, 0
3, 2099, Note_on_c, 1, 64, 0
3, 2099, Note_on_c, 1, 67, 0
3, 2100, Note_on_c, 1, 64, 103
3, 2100, Note_on_c, 1, 60, 107
3, 2100, Note_on_c, 1, 67, 103
3, 2159, Note_on_c, 1, 67, 0
3, 2159, Note_on_c, 1, 60, 0
3, 2159, Note_on_c, 1, 64, 0
3, 2160, Note_on_c, 1, 48, 103
3, 2160, Note_on_c, 1, 36, 107
3, 2219, Note_on_c, 1, 36, 0
3, 2219, Note_on_c, 1, 48, 0
3, 2220, Note_on_c, 1, 67, 97
3, 2220, Note_on_c, 1, 60, 103
3, 2220, Note_on_c, 1, 64, 103
3, 2279, Note_on_c, 1, 64, 0
3, 2279, Note_on_c, 1, 60, 0
3, 2279, Note_on_c, 1, 67, 0
3, 2280, Note_on_c, 1, 64, 115
3, 2280, Note_on_c, 1, 67, 115
3, 2280, Note_on_c, 1, 60, 115
3, 2280, Note_on_c, 1, 48, 93
3, 2280, Note_on_c, 1, 36, 103
3, 2339, Note_on_c, 1, 36, 0
3, 2339, Note_on_c, 1, 60, 0
3, 2339, Note_on_c, 1, 64, 0
3, 2339, Note_on_c, 1, 67, 0
3, 2339, Note_on_c, 1, 48, 0
3, 2340, Note_on_c, 1, 67, 107
3, 2340, Note_on_c, 1, 60, 97
3, 2340, Note_on_c, 1, 64, 97
3, 2399, Note_on_c, 1, 64, 0
3, 2399, Note_on_c, 1, 60, 0
3, 2399, Note_on_c, 1, 67, 0
3, 2400, Note_on_c, 1, 65, 107
3, 2400, Note_on_c, 1, 60, 118
3, 2400, Note_on_c, 1, 57, 115
3, 2400, Note_on_c, 1, 41, 93
3, 2400, Note_on_c, 1, 53, 75
3, 2459, Note_on_c, 1, 53, 0
3, 2459, Note_on_c, 1, 57, 0
3, 2459, Note_on_c, 1, 65, 0
3, 2459, Note_on_c, 1, 60, 0
3, 2459, Note_on_c, 1, 41, 0
3, 2520, Note_on_c, 1, 65, 103
3, 2520, Note_on_c, 1, 60, 118
3, 2520, Note_on_c, 1, 57, 103
3, 2520, Note_on_c, 1, 53, 103
3, 2520, Note_on_c, 1, 41, 107
3, 2579, Note_on_c, 1, 41, 0
3, 2579, Note_on_c, 1, 57, 0
3, 2579, Note_on_c, 1, 65, 0
3, 2579, Note_on_c, 1, 60, 0
3, 2579, Note_on_c, 1, 53, 0
3, 2580, Note_on_c, 1, 60, 122
3, 2580, Note_on_c, 1, 65, 118
3, 2580, Note_on_c, 1, 57, 118
3, 2639, Note_on_c, 1, 57, 0
3, 2639, Note_on_c, 1, 65, 0
3, 2639, Note_on_c, 1, 60, 0
3, 2640, Note_on_c, 1, 53, 115
3, 2640, Note_on_c, 1, 41, 115
3, 2699, Note_on_c, 1, 41, 0
3, 2699, Note_on_c, 1, 53, 0
3, 2700, Note_on_c, 1, 65, 107
3, 2700, Note_on_c, 1, 60, 118
3, 2700, Note_on_c, 1, 57, 115
3, 2759, Note_on_c, 1, 57, 0
3, 2759, Note_on_c, 1, 60, 0
3, 2759, Note_on_c, 1, 65, 0
3, 2760, Note_on_c, 1, 53, 103
3, 2760, Note_on_c, 1, 41, 107
3, 2760, Note_on_c, 1, 60, 121
3, 2760, Note_on_c, 1, 65, 115
3, 2760, Note_on_c, 1, 57, 118
3, 2819, Note_on_c, 1, 57, 0
3, 2819, Note_on_c, 1, 60, 0
3, 2819, Note_on_c, 1, 53, 0
3, 2819, Note_on_c, 1, 41, 0
3, 2819, Note_on_c, 1, 65, 0
3, 2820, Note_on_c, 1, 65, 103
3, 2820, Note_on_c, 1, 60, 97
3, 2820, Note_on_c, 1, 57, 97
3, 2879, Note_on_c, 1, 57, 0
3, 2879, Note_on_c, 1, 60, 0
3, 2879, Note_on_c, 1, 65, 0
3, 2880, Note_on_c, 1, 65, 118
3, 2880, Note_on_c, 1, 50, 91
3, 2880, Note_on_c, 1, 57, 115
3, 2880, Note_on_c, 1, 62, 118
3, 2880, Note_on_c, 1, 38, 91
3, 2939, Note_on_c, 1, 38, 0
3, 2939, Note_on_c, 1, 57, 0
3, 2939, Note_on_c, 1, 65, 0
3, 2939, Note_on_c, 1, 50, 0
3, 2939, Note_on_c, 1, 62, 0
3, 3000, Note_on_c, 1, 65, 93
3, 3000, Note_on_c, 1, 57, 115
3, 3000, Note_on_c, 1, 62, 115
3, 3000, Note_on_c, 1, 50, 97
3, 3000, Note_on_c, 1, 38, 103
3, 3059, Note_on_c, 1, 38, 0
3, 3059, Note_on_c, 1, 62, 0
3, 3059, Note_on_c, 1, 65, 0
3, 3059, Note_on_c, 1, 57, 0
3, 3059, Note_on_c, 1, 50, 0
3, 3060, Note_on_c, 1, 65, 107
3, 3060, Note_on_c, 1, 62, 118
3, 3060, Note_on_c, 1, 57, 115
3, 3119, Note_on_c, 1, 57, 0
3, 3119, Note_on_c, 1, 62, 0
3, 3119, Note_on_c, 1, 65, 0
3, 3120, Note_on_c, 1, 50, 107
3, 3120, Note_on_c, 1, 38, 103
3, 3179, Note_on_c, 1, 38, 0
3, 3179, Note_on_c, 1, 50, 0
3, 3180, Note_on_c, 1, 65, 107
3, 3180, Note_on_c, 1, 57, 107
3, 3180, Note_on_c, 1, 62, 121
3, 3239, Note_on_c, 1, 62, 0
3, 3239, Note_on_c, 1, 57, 0
3, 3239, Note_on_c, 1, 65, 0
3, 3240, Note_on_c, 1, 65, 103
3, 3240, Note_on_c, 1, 57, 107
3, 3240, Note_on_c, 1, 62, 118
3, 3240, Note_on_c, 1, 50, 115
3, 3240, Note_on_c, 1, 38, 93
3, 3299, Note_on_c, 1, 38, 0
3, 3299, Note_on_c, 1, 62, 0
3, 3299, Note_on_c, 1, 65, 0
3, 3299, Note_on_c, 1, 57, 0
3, 3299, Note_on_c, 1, 50, 0
3, 3300, Note_on_c, 1, 65, 107
3, 3300, Note_on_c, 1, 57, 87
3, 3300, Note_on_c, 1, 62, 103
3, 3359, Note_on_c, 1, 62, 0
3, 3359, Note_on_c, 1, 57, 0
3, 3359, Note_on_c, 1, 65, 0
3, 3360, Note_on_c, 1, 46, 97
3, 3360, Note_on_c, 1, 34, 93
3, 3360, Note_on_c, 1, 65, 107
3, 3360, Note_on_c, 1, 62, 107
3, 3360, Note_on_c, 1, 58, 122
3, 3419, Note_on_c, 1, 58, 0
3, 3419, Note_on_c, 1, 65, 0
3, 3419, Note_on_c, 1, 46, 0
3, 3419, Note_on_c, 1, 34, 0
3, 3419, Note_on_c, 1, 62, 0
3, 3480, Note_on_c, 1, 65, 107
3, 3480, Note_on_c, 1, 46, 93
3, 3480, Note_on_c, 1, 34, 97
3, 3480, Note_on_c, 1, 62, 103
3, 3480, Note_on_c, 1, 58, 107
3, 3539, Note_on_c, 1, 58, 0
3, 3539, Note_on_c, 1, 34, 0
3, 3539, Note_on_c, 1, 65, 0
3, 3539, Note_on_c, 1, 46, 0
3, 3539, Note_on_c, 1, 62, 0
3, 3540, Note_on_c, 1, 65, 107
3, 3540, Note_on_c, 1, 58, 107
3, 3540, Note_on_c, 1, 62, 107
3, 3599, Note_on_c, 1, 62, 0
3, 3599, Note_on_c, 1, 58, 0
3, 3599, Note_on_c, 1, 65, 0
3, 3600, Note_on_c, 1, 34, 118
3, 3600, Note_on_c, 1, 46, 118
3, 3659, Note_on_c, 1, 46, 0
3, 3659, Note_on_c, 1, 34, 0
3, 3660, Note_on_c, 1, 65, 115
3, 3660, Note_on_c, 1, 62, 107
3, 3660, Note_on_c, 1, 58, 115
3, 3719, Note_on_c, 1, 58, 0
3, 3719, Note_on_c, 1, 62, 0
3, 3719, Note_on_c, 1, 65, 0
3, 3720, Note_on_c, 1, 46, 107
3, 3720, Note_on_c, 1, 34, 107
3, 3720, Note_on_c, 1, 65, 107
3, 3720, Note_on_c, 1, 58, 103
3, 3720, Note_on_c, 1, 62, 107
3, 3779, Note_on_c, 1, 62, 0
3, 3779, Note_on_c, 1, 65, 0
3, 3779, Note_on_c, 1, 46, 0
3, 3779, Note_on_c, 1, 34, 0
3, 3779, Note_on_c, 1, 58, 0
3, 3780, Note_on_c, 1, 65, 103
3, 3780, Note_on_c, 1, 58, 91
3, 3780, Note_on_c, 1, 62, 97
3, 3839, Note_on_c, 1, 62, 0
3, 3839, Note_on_c, 1, 58, 0
3, 3839, Note_on_c, 1, 65, 0
3, 3840, Note_on_c, 1, 60, 118
3, 3840, Note_on_c, 1, 64, 118
3, 3840, Note_on_c, 1, 67, 103
3, 3840, Note_on_c, 1, 48, 77
3, 3840, Note_on_c, 1, 36, 93
3, 3899, Note_on_c, 1, 36, 0
3, 3899, Note_on_c, 1, 67, 0
3, 3899, Note_on_c, 1, 60, 0
3, 3899, Note_on_c, 1, 64, 0
3, 3899, Note_on_c, 1, 48, 0
3, 3960, Note_on_c, 1, 60, 107
3, 3960, Note_on_c, 1, 64, 103
3, 3960, Note_on_c, 1, 67, 103
3, 3960, Note_on_c, 1, 36, 93
3, 3960, Note_on_c, 1, 48, 97
3, 4019, Note_on_c, 1, 48, 0
3, 4019, Note_on_c, 1, 67, 0
3, 4019, Note_on_c, 1, 60, 0
3, 4019, Note_on_c, 1, 64, 0
3, 4019, Note_on_c, 1, 36, 0
3, 4020, Note_on_c, 1, 64, 115
3, 4020, Note_on_c, 1, 60, 118
3, 4020, Note_on_c, 1, 67, 103
3, 4079, Note_on_c, 1, 67, 0
3, 4079, Note_on_c, 1, 60, 0
3, 4079, Note_on_c, 1, 64, 0
3, 4080, Note_on_c, 1, 48, 115
3, 4080, Note_on_c, 1, 36, 115
3, 4139, Note_on_c, 1, 36, 0
3, 4139, Note_on_c, 1, 48, 0
3, 4140, Note_on_c, 1, 64, 118
3, 4140, Note_on_c, 1, 67, 115
3, 4140, Note_on_c, 1, 60, 121
3, 4199, Note_on_c, 1, 60, 0
3, 4199, Note_on_c, 1, 67, 0
3, 4199, Note_on_c, 1, 64, 0
3, 4200, Note_on_c, 1, 64, 115
3, 4200, Note_on_c, 1, 48, 103
3, 4200, Note_on_c, 1, 36, 107
3, 4200, Note_on_c, 1, 60, 118
3, 4200, Note_on_c, 1, 67, 107
3, 4259, Note_on_c, 1, 67, 0
3, 4259, Note_on_c, 1, 36, 0
3, 4259, Note_on_c, 1, 64, 0
3, 4259, Note_on_c, 1, 48, 0
3, 4259, Note_on_c, 1, 60, 0
3, 4260, Note_on_c, 1, 67, 103
3, 4260, Note_on_c, 1, 64, 107
3, 4260, Note_on_c, 1, 60, 115
3, 4319, Note_on_c, 1, 60, 0
3, 4319, Note_on_c, 1, 64, 0
3, 4319, Note_on_c, 1, 67, 0
3, 4320, Note_on_c, 1, 41, 115
3, 4320, Note_on_c, 1, 53, 107
3, 4320, Note_on_c, 1, 57, 118
3, 4320, Note_on_c, 1, 60, 118
3, 4320, Note_on_c, 1, 65, 118
3, 4379, Note_on_c, 1, 65, 0
3, 4379, Note_on_c, 1, 57, 0
3, 4379, Note_on_c, 1, 41, 0
3, 4379, Note_on_c, 1, 53, 0
3, 4379, Note_on_c, 1, 60, 0
3, 4440, Note_on_c, 1, 65, 118
3, 4440, Note_on_c, 1, 53, 97
3, 4440, Note_on_c, 1, 41, 107
3, 4440, Note_on_c, 1, 60, 122
3, 4440, Note_on_c, 1, 57, 118
3, 4499, Note_on_c, 1, 57, 0
3, 4499, Note_on_c, 1, 41, 0
3, 4499, Note_on_c, 1, 65, 0
3, 4499, Note_on_c, 1, 53, 0
3, 4499, Note_on_c, 1, 60, 0
3, 4560, Note_on_c, 1, 65, 121
3, 4560, Note_on_c, 1, 53, 118
3, 4560, Note_on_c, 1, 60, 121
3, 4560, Note_on_c, 1, 57, 121
3, 4560, Note_on_c, 1, 41, 118
3, 4619, Note_on_c, 1, 41, 0
3, 4619, Note_on_c, 1, 60, 0
3, 4619, Note_on_c, 1, 65, 0
3, 4619, Note_on_c, 1, 53, 0
3, 4619, Note_on_c, 1, 57, 0
3, 4680, Note_on_c, 1, 53, 93
3, 4680, Note_on_c, 1, 65, 115
3, 4680, Note_on_c, 1, 57, 121
3, 4680, Note_on_c, 1, 41, 87
3, 4680, Note_on_c, 1, 60, 121
3, 4680, Note_on_c, 1, 63, 103
3, 4739, Note_on_c, 1, 63, 0
3, 4739, Note_on_c, 1, 65, 0
3, 4739, Note_on_c, 1, 57, 0
3, 4739, Note_on_c, 1, 53, 0
3, 4739, Note_on_c, 1, 60, 0
3, 4739, Note_on_c, 1, 41, 0
3, 4740, Note_on_c, 1, 60, 97
3, 4740, Note_on_c, 1, 65, 115
3, 4740, Note_on_c, 1, 57, 97
3, 4799, Note_on_c, 1, 57, 0
3, 4799, Note_on_c, 1, 65, 0
3, 4799, Note_on_c, 1, 60, 0
3, 4800, Note_on_c, 1, 50, 103
3, 4800, Note_on_c, 1, 65, 118
3, 4800, Note_on_c, 1, 38, 107
3, 4800, Note_on_c, 1, 57, 121
3, 4800, Note_on_c, 1, 62, 121
3, 4859, Note_on_c, 1, 62, 0
3, 4859, Note_on_c, 1, 38, 0
3, 4859, Note_on_c, 1, 50, 0
3, 4859, Note_on_c, 1, 65, 0
3, 4859, Note_on_c, 1, 57, 0
3, 4860, Note_on_c, 1, 57, 91
3, 4860, Note_on_c, 1, 65, 103
3, 4860, Note_on_c, 1, 62, 107
3, 4919, Note_on_c, 1, 62, 0
3, 4919, Note_on_c, 1, 65, 0
3, 4919, Note_on_c, 1, 57, 0
3, 4920, Note_on_c, 1, 65, 118
3, 4920, Note_on_c, 1, 62, 122
3, 4920, Note_on_c, 1, 57, 121
3, 4920, Note_on_c, 1, 50, 121
3, 4920, Note_on_c, 1, 38, 118
3, 4979, Note_on_c, 1, 38, 0
3, 4979, Note_on_c, 1, 57, 0
3, 4979, Note_on_c, 1, 65, 0
3, 4979, Note_on_c, 1, 62, 0
3, 4979, Note_on_c, 1, 50, 0
3, 4980, Note_on_c, 1, 65, 118
3, 4980, Note_on_c, 1, 57, 118
3, 4980, Note_on_c, 1, 62, 121
3, 5039, Note_on_c, 1, 62, 0
3, 5039, Note_on_c, 1, 57, 0
3, 5039, Note_on_c, 1, 65, 0
3, 5040, Note_on_c, 1, 50, 118
3, 5040, Note_on_c, 1, 38, 118
3, 5099, Note_on_c, 1, 38, 0
3, 5099, Note_on_c, 1, 50, 0
3, 5100, Note_on_c, 1, 62, 115
3, 5100, Note_on_c, 1, 65, 107
3, 5100, Note_on_c, 1, 57, 115
3, 5159, Note_on_c, 1, 57, 0
3, 5159, Note_on_c, 1, 65, 0
3, 5159, Note_on_c, 1, 62, 0
3, 5160, Note_on_c, 1, 50, 118
3, 5160, Note_on_c, 1, 62, 115
3, 5160, Note_on_c, 1, 65, 107
3, 5160, Note_on_c, 1, 38, 118
3, 5160, Note_on_c, 1, 57, 103
3, 5219, Note_on_c, 1, 57, 0
3, 5219, Note_on_c, 1, 65, 0
3, 5219, Note_on_c, 1, 50, 0
3, 5219, Note_on_c, 1, 62, 0
3, 5219, Note_on_c, 1, 38, 0
3, 5220, Note_on_c, 1, 65, 107
3, 5220, Note_on_c, 1, 62, 97
3, 5220, Note_on_c, 1, 57, 97
3, 5279, Note_on_c, 1, 57, 0
3, 5279, Note_on_c, 1, 62, 0
3, 5279, Note_on_c, 1, 65, 0
3, 5280, Note_on_c, 1, 46, 97
3, 5280, Note_on_c, 1, 62, 115
3, 5280, Note_on_c, 1, 34, 107
3, 5280, Note_on_c, 1, 65, 118
3, 5280, Note_on_c, 1, 58, 122
3, 5339, Note_on_c, 1, 58, 0
3, 5339, Note_on_c, 1, 34, 0
3, 5339, Note_on_c, 1, 46, 0
3, 5339, Note_on_c, 1, 62, 0
3, 5339, Note_on_c, 1, 65, 0
3, 5400, Note_on_c, 1, 65, 103
3, 5400, Note_on_c, 1, 58, 107
3, 5400, Note_on_c, 1, 46, 103
3, 5400, Note_on_c, 1, 62, 107
3, 5400, Note_on_c, 1, 34, 107
3, 5459, Note_on_c, 1, 34, 0
3, 5459, Note_on_c, 1, 46, 0
3, 5459, Note_on_c, 1, 65, 0
3, 5459, Note_on_c, 1, 58, 0
3, 5459, Note_on_c, 1, 62, 0
3, 5460, Note_on_c, 1, 65, 103
3, 5460, Note_on_c, 1, 62, 103
3, 5460, Note_on_c, 1, 58, 107
3, 5519, Note_on_c, 1, 58, 0
3, 5519, Note_on_c, 1, 62, 0
3, 5519, Note_on_c, 1, 65, 0
3, 5520, Note_on_c, 1, 34, 118
3, 5520, Note_on_c, 1, 46, 121
3, 5579, Note_on_c, 1, 46, 0
3, 5579, Note_on_c, 1, 34, 0
3, 5580, Note_on_c, 1, 65, 93
3, 5580, Note_on_c, 1, 58, 97
3, 5580, Note_on_c, 1, 62, 107
3, 5639, Note_on_c, 1, 62, 0
3, 5639, Note_on_c, 1, 58, 0
3, 5639, Note_on_c, 1, 65, 0
3, 5640, Note_on_c, 1, 34, 115
3, 5640, Note_on_c, 1, 46, 115
3, 5640, Note_on_c, 1, 62, 107
3, 5640, Note_on_c, 1, 65, 103
3, 5640, Note_on_c, 1, 58, 103
3, 5699, Note_on_c, 1, 58, 0
3, 5699, Note_on_c, 1, 62, 0
3, 5699, Note_on_c, 1, 34, 0
3, 5699, Note_on_c, 1, 46, 0
3, 5699, Note_on_c, 1, 65, 0
3, 5700, Note_on_c, 1, 58, 93
3, 5700, Note_on_c, 1, 62, 97
3, 5700, Note_on_c, 1, 65, 91
3, 5759, Note_on_c, 1, 65, 0
3, 5759, Note_on_c, 1, 62, 0
3, 5759, Note_on_c, 1, 58, 0
3, 5760, Note_on_c, 1, 60, 115
3, 5760, Note_on_c, 1, 64, 118
3, 5760, Note_on_c, 1, 67, 115
3, 5760, Note_on_c, 1, 48, 83
3, 5760, Note_on_c, 1, 36, 97
3, 5819, Note_on_c, 1, 36, 0
3, 5819, Note_on_c, 1, 67, 0
3, 5819, Note_on_c, 1, 60, 0
3, 5819, Note_on_c, 1, 64, 0
3, 5819, Note_on_c, 1, 48, 0
3, 5880, Note_on_c, 1, 48, 83
3, 5880, Note_on_c, 1, 64, 107
3, 5880, Note_on_c, 1, 60, 115
3, 5880, Note_on_c, 1, 67, 97
3, 5880, Note_on_c, 1, 36, 97
3, 5939, Note_on_c, 1, 36, 0
3, 5939, Note_on_c, 1, 60, 0
3, 5939, Note_on_c, 1, 48, 0
3, 5939, Note_on_c, 1, 64, 0
3, 5939, Note_on_c, 1, 67, 0
3, 5940, Note_on_c, 1, 64, 103
3, 5940, Note_on_c, 1, 60, 107
3, 5940, Note_on_c, 1, 67, 103
3, 5999, Note_on_c, 1, 67, 0
3, 5999, Note_on_c, 1, 60, 0
3, 5999, Note_on_c, 1, 64, 0
3, 6000, Note_on_c, 1, 48, 103
3, 6000, Note_on_c, 1, 36, 107
3, 6059, Note_on_c, 1, 36, 0
3, 6059, Note_on_c, 1, 48, 0
3, 6060, Note_on_c, 1, 67, 97
3, 6060, Note_on_c, 1, 60, 103
3, 6060, Note_on_c, 1, 64, 103
3, 6119, Note_on_c, 1, 64, 0
3, 6119, Note_on_c, 1, 60, 0
3, 6119, Note_on_c, 1, 67, 0
3, 6120, Note_on_c, 1, 64, 115
3, 6120, Note_on_c, 1, 67, 115
3, 6120, Note_on_c, 1, 60, 115
3, 6120, Note_on_c, 1, 48, 93
3, 6120, Note_on_c, 1, 36, 103
3, 6179, Note_on_c, 1, 36, 0
3, 6179, Note_on_c, 1, 60, 0
3, 6179, Note_on_c, 1, 64, 0
3, 6179, Note_on_c, 1, 67, 0
3, 6179, Note_on_c, 1, 48, 0
3, 6180, Note_on_c, 1, 67, 107
3, 6180, Note_on_c, 1, 60, 97
3, 6180, Note_on_c, 1, 64, 97
3, 6239, Note_on_c, 1, 64, 0
3, 6239, Note_on_c, 1, 60, 0
3, 6239, Note_on_c, 1, 67, 0
3, 6240, Note_on_c, 1, 65, 107
3, 6240, Note_on_c, 1, 60, 118
3, 6240, Note_on_c, 1, 57, 115
3, 6240, Note_on_c, 1, 41, 93
3, 6240, Note_on_c, 1, 53, 75
3, 6299, Note_on_c, 1, 53, 0
3, 6299, Note_on_c, 1, 57, 0
3, 6299, Note_on_c, 1, 65, 0
3, 6299, Note_on_c, 1, 60, 0
3, 6299, Note_on_c, 1, 41, 0
3, 6360, Note_on_c, 1, 65, 103
3, 6360, Note_on_c, 1, 60, 118
3, 6360, Note_on_c, 1, 57, 103
3, 6360, Note_on_c, 1, 53, 103
3, 6360, Note_on_c, 1, 41, 107
3, 6419, Note_on_c, 1, 41, 0
3, 6419, Note_on_c, 1, 57, 0
3, 6419, Note_on_c, 1, 65, 0
3, 6419, Note_on_c, 1, 60, 0
3, 6419, Note_on_c, 1, 53, 0
3, 6420, Note_on_c, 1, 60, 122
3, 6420, Note_on_c, 1, 65, 118
3, 6420, Note_on_c, 1, 57, 118
3, 6479, Note_on_c, 1, 57, 0
3, 6479, Note_on_c, 1, 65, 0
3, 6479, Note_on_c, 1, 60, 0
3, 6480, Note_on_c, 1, 53, 115
3, 6480, Note_on_c, 1, 41, 115
3, 6539, Note_on_c, 1, 41, 0
3, 6539, Note_on_c, 1, 53, 0
3, 6540, Note_on_c, 1, 65, 107
3, 6540, Note_on_c, 1, 60, 118
3, 6540, Note_on_c, 1, 57, 115
3, 6599, Note_on_c, 1, 57, 0
3, 6599, Note_on_c, 1, 60, 0
3, 6599, Note_on_c, 1, 65, 0
3, 6600, Note_on_c, 1, 53, 103
3, 6600, Note_on_c, 1, 41, 107
3, 6600, Note_on_c, 1, 60, 121
3, 6600, Note_on_c, 1, 65, 115
3, 6600, Note_on_c, 1, 57, 118
3, 6659, Note_on_c, 1, 57, 0
3, 6659, Note_on_c, 1, 60, 0
3, 6659, Note_on_c, 1, 53, 0
3, 6659, Note_on_c, 1, 41, 0
3, 6659, Note_on_c, 1, 65, 0
3, 6660, Note_on_c, 1, 65, 103
3, 6660, Note_on_c, 1, 60, 97
3, 6660, Note_on_c, 1, 57, 97
3, 6719, Note_on_c, 1, 57, 0
3, 6719, Note_on_c, 1, 60, 0
3, 6719, Note_on_c, 1, 65, 0
3, 6720, Note_on_c, 1, 65, 118
3, 6720, Note_on_c, 1, 50, 91
3, 6720, Note_on_c, 1, 57, 115
3, 6720, Note_on_c, 1, 62, 118
3, 6720, Note_on_c, 1, 38, 91
3, 6779, Note_on_c, 1, 38, 0
3, 6779, Note_on_c, 1, 57, 0
3, 6779, Note_on_c, 1, 65, 0
3, 6779, Note_on_c, 1, 50, 0
3, 6779, Note_on_c, 1, 62, 0
3, 6840, Note_on_c, 1, 65, 93
3, 6840, Note_on_c, 1, 57, 115
3, 6840, Note_on_c, 1, 62, 115
3, 6840, Note_on_c, 1, 50, 97
3, 6840, Note_on_c, 1, 38, 103
3, 6899, Note_on_c, 1, 38, 0
3, 6899, Note_on_c, 1, 62, 0
3, 6899, Note_on_c, 1, 65, 0
3, 6899, Note_on_c, 1, 57, 0
3, 6899, Note_on_c, 1, 50, 0
3, 6900, Note_on_c, 1, 65, 107
3, 6900, Note_on_c, 1, 62, 118
3, 6900, Note_on_c, 1, 57, 115
3, 6959, Note_on_c, 1, 57, 0
3, 6959, Note_on_c, 1, 62, 0
3, 6959, Note_on_c, 1, 65, 0
3, 6960, Note_on_c, 1, 50, 107
3, 6960, Note_on_c, 1, 38, 103
3, 7019, Note_on_c, 1, 38, 0
3, 7019, Note_on_c, 1, 50, 0
3, 7020, Note_on_c, 1, 65, 107
3, 7020, Note_on_c, 1, 57, 107
3, 7020, Note_on_c, 1, 62, 121
3, 7079, Note_on_c, 1, 62, 0
3, 7079, Note_on_c, 1, 57, 0
3, 7079, Note_on_c, 1, 65, 0
3, 7080, Note_on_c, 1, 65, 103
3, 7080, Note_on_c, 1, 57, 107
3, 7080, Note_on_c, 1, 62, 118
3, 7080, Note_on_c, 1, 50, 115
3, 7080, Note_on_c, 1, 38, 93
3, 7139, Note_on_c, 1, 38, 0
3, 7139, Note_on_c, 1, 62, 0
3, 7139, Note_on_c, 1, 65, 0
3, 7139, Note_on_c, 1, 57, 0
3, 7139, Note_on_c, 1, 50, 0
3, 7140, Note_on_c, 1, 65, 107
3, 7140, Note_on_c, 1, 57, 87
3, 7140, Note_on_c, 1, 62, 103
3, 7199, Note_on_c, 1, 62, 0
3, 7199, Note_on_c, 1, 57, 0
3, 7199, Note_on_c, 1, 65, 0
3, 7200, Note_on_c, 1, 46, 97
3, 7200, Note_on_c, 1, 34, 93
3, 7200, Note_on_c, 1, 65, 107
3, 7200, Note_on_c, 1, 62, 107
3, 7200, Note_on_c, 1, 58, 122
3, 7259, Note_on_c, 1, 58, 0
3, 7259, Note_on_c, 1, 65, 0
3, 7259, Note_on_c, 1, 46, 0
3, 7259, Note_on_c, 1, 34, 0
3, 7259, Note_on_c, 1, 62, 0
3, 7320, Note_on_c, 1, 65, 107
3, 7320, Note_on_c, 1, 46, 93
3, 7320, Note_on_c, 1, 34, 97
3, 7320, Note_on_c, 1, 62, 103
3, 7320, Note_on_c, 1, 58, 107
3, 7379, Note_on_c, 1, 58, 0
3, 7379, Note_on_c, 1, 34, 0
3, 7379, Note_on_c, 1, 65, 0
3, 7379, Note_on_c, 1, 46, 0
3, 7379, Note_on_c, 1, 62, 0
3, 7380, Note_on_c, 1, 65, 107
3, 7380, Note_on_c, 1, 58, 107
3, 7380, Note_on_c, 1, 62, 107
3, 7439, Note_on_c, 1, 62, 0
3, 7439, Note_on_c, 1, 58, 0
3, 7439, Note_on_c, 1, 65, 0
3, 7440, Note_on_c, 1, 34, 118
3, 7440, Note_on_c, 1, 46, 118
3, 7499, Note_on_c, 1, 46, 0
3, 7499, Note_on_c, 1, 34, 0
3, 7500, Note_on_c, 1, 65, 115
3, 7500, Note_on_c, 1, 62, 107
3, 7500, Note_on_c, 1, 58, 115
3, 7559, Note_on_c, 1, 58, 0
3, 7559, Note_on_c, 1, 62, 0
3, 7559, Note_on_c, 1, 65, 0
3, 7560, Note_on_c, 1, 46, 107
3, 7560, Note_on_c, 1, 34, 107
3, 7560, Note_on_c, 1, 65, 107
3, 7560, Note_on_c, 1, 58, 103
3, 7560, Note_on_c, 1, 62, 107
3, 7619, Note_on_c, 1, 62, 0
3, 7619, Note_on_c, 1, 65, 0
3, 7619, Note_on_c, 1, 46, 0
3, 7619, Note_on_c, 1, 34, 0
3, 7619, Note_on_c, 1, 58, 0
3, 7620, Note_on_c, 1, 65, 103
3, 7620, Note_on_c, 1, 58, 91
3, 7620, Note_on_c, 1, 62, 97
3, 7679, Note_on_c, 1, 62, 0
3, 7679, Note_on_c, 1, 58, 0
3, 7679, Note_on_c, 1, 65, 0
3, 7680, Note_on_c, 1, 60, 118
3, 7680, Note_on_c, 1, 64, 118
3, 7680, Note_on_c, 1, 67, 103
3, 7680, Note_on_c, 1, 48, 77
3, 7680, Note_on_c, 1, 36, 93
3, 7739, Note_on_c, 1, 36, 0
3, 7739, Note_on_c, 1, 67, 0
3, 7739, Note_on_c, 1, 60, 0
3, 7739, Note_on_c, 1, 64, 0
3, 7739, Note_on_c, 1, 48, 0
3, 7800, Note_on_c, 1, 60, 107
3, 7800, Note_on_c, 1, 64, 103
3, 7800, Note_on_c, 1, 67, 103
3, 7800, Note_on_c, 1, 36, 93
3, 7800, Note_on_c, 1, 48, 97
3, 7859, Note_on_c, 1, 48, 0
3, 7859, Note_on_c, 1, 67, 0
3, 7859, Note_on_c, 1, 60, 0
3, 7859, Note_on_c, 1, 64, 0
3, 7859, Note_on_c, 1, 36, 0
3, 7860, Note_on_c, 1, 64, 115
3, 7860, Note_on_c, 1, 60, 118
3, 7860, Note_on_c, 1, 67, 103
3, 7919, Note_on_c, 1, 67, 0
3, 7919, Note_on_c, 1, 60, 0
3, 7919, Note_on_c, 1, 64, 0
3, 7920, Note_on_c, 1, 48, 115
3, 7920, Note_on_c, 1, 36, 115
3, 7979, Note_on_c, 1, 36, 0
3, 7979, Note_on_c, 1, 48, 0
3, 7980, Note_on_c, 1, 64, 118
3, 7980, Note_on_c, 1, 67, 115
3, 7980, Note_on_c, 1, 60, 121
3, 8039, Note_on_c, 1, 60, 0
3, 8039, Note_on_c, 1, 67, 0
3, 8039, Note_on_c, 1, 64, 0
3, 8040, Note_on_c, 1, 64, 115
3, 8040, Note_on_c, 1, 48, 103
3, 8040, Note_on_c, 1, 36, 107
3, 8040, Note_on_c, 1, 60, 118
3, 8040, Note_on_c, 1, 67, 107
3, 8099, Note_on_c, 1, 67, 0
3, 8099, Note_on_c, 1, 36, 0
3, 8099, Note_on_c, 1, 64, 0
3, 8099, Note_on_c, 1, 48, 0
3, 8099, Note_on_c, 1, 60, 0
3, 8100, Note_on_c, 1, 67, 103
3, 8100, Note_on_c, 1, 64, 107
3, 8100, Note_on_c, 1, 60, 115
3, 8159, Note_on_c, 1, 60, 0
3, 8159, Note_on_c, 1, 64, 0
3, 8159, Note_on_c, 1, 67, 0
3, 8160, Note_on_c, 1, 41, 115
3, 8160, Note_on_c, 1, 65, 121
3, 8160, Note_on_c, 1, 53, 107
3, 8160, Note_on_c, 1, 57, 121
3, 8160, Note_on_c, 1, 60, 121
3, 8219, Note_on_c, 1, 57, 0
3, 8219, Note_on_c, 1, 53, 0
3, 8219, Note_on_c, 1, 41, 0
3, 8280, Note_on_c, 1, 65, 0
3, 8280, Note_on_c, 1, 60, 0
3, 8280, Note_on_c, 1, 60, 118
3, 8280, Note_on_c, 1, 65, 107
3, 8280, Note_on_c, 1, 57, 121
3, 8280, Note_on_c, 1, 41, 107
3, 8280, Note_on_c, 1, 53, 107
3, 8339, Note_on_c, 1, 53, 0
3, 8339, Note_on_c, 1, 57, 0
3, 8339, Note_on_c, 1, 60, 0
3, 8339, Note_on_c, 1, 65, 0
3, 8339, Note_on_c, 1, 41, 0
3, 8340, Note_on_c, 1, 60, 115
3, 8340, Note_on_c, 1, 65, 107
3, 8340, Note_on_c, 1, 57, 115
3, 8399, Note_on_c, 1, 57, 0
3, 8399, Note_on_c, 1, 65, 0
3, 8399, Note_on_c, 1, 60, 0
3, 8400, Note_on_c, 1, 53, 121
3, 8400, Note_on_c, 1, 41, 118
3, 8459, Note_on_c, 1, 41, 0
3, 8459, Note_on_c, 1, 53, 0
3, 8460, Note_on_c, 1, 60, 121
3, 8460, Note_on_c, 1, 65, 118
3, 8460, Note_on_c, 1, 57, 118
3, 8519, Note_on_c, 1, 57, 0
3, 8519, Note_on_c, 1, 65, 0
3, 8519, Note_on_c, 1, 60, 0
3, 8520, Note_on_c, 1, 60, 121
3, 8520, Note_on_c, 1, 65, 118
3, 8520, Note_on_c, 1, 57, 118
3, 8520, Note_on_c, 1, 53, 97
3, 8520, Note_on_c, 1, 41, 115
3, 8579, Note_on_c, 1, 41, 0
3, 8579, Note_on_c, 1, 57, 0
3, 8579, Note_on_c, 1, 60, 0
3, 8579, Note_on_c, 1, 65, 0
3, 8579, Note_on_c, 1, 53, 0
3, 8580, Note_on_c, 1, 65, 97
3, 8580, Note_on_c, 1, 60, 103
3, 8580, Note_on_c, 1, 57, 97
3, 8639, Note_on_c, 1, 57, 0
3, 8639, Note_on_c, 1, 60, 0
3, 8639, Note_on_c, 1, 65, 0
3, 8640, Note_on_c, 1, 65, 121
3, 8640, Note_on_c, 1, 60, 121
3, 8640, Note_on_c, 1, 57, 118
3, 8640, Note_on_c, 1, 53, 115
3, 8640, Note_on_c, 1, 41, 118
3, 8699, Note_on_c, 1, 41, 0
3, 8699, Note_on_c, 1, 57, 0
3, 8699, Note_on_c, 1, 65, 0
3, 8699, Note_on_c, 1, 60, 0
3, 8699, Note_on_c, 1, 53, 0
3, 8760, Note_on_c, 1, 53, 115
3, 8760, Note_on_c, 1, 41, 118
3, 8760, Note_on_c, 1, 60, 118
3, 8760, Note_on_c, 1, 65, 115
3, 8760, Note_on_c, 1, 57, 115
3, 8819, Note_on_c, 1, 57, 0
3, 8819, Note_on_c, 1, 60, 0
3, 8819, Note_on_c, 1, 53, 0
3, 8819, Note_on_c, 1, 41, 0
3, 8819, Note_on_c, 1, 65, 0
3, 8820, Note_on_c, 1, 60, 115
3, 8820, Note_on_c, 1, 57, 107
3, 8820, Note_on_c, 1, 65, 115
3, 8879, Note_on_c, 1, 65, 0
3, 8879, Note_on_c, 1, 57, 0
3, 8879, Note_on_c, 1, 60, 0
3, 8880, Note_on_c, 1, 53, 118
3, 8880, Note_on_c, 1, 41, 115
3, 8939, Note_on_c, 1, 41, 0
3, 8939, Note_on_c, 1, 53, 0
3, 8940, Note_on_c, 1, 65, 107
3, 8940, Note_on_c, 1, 60, 122
3, 8940, Note_on_c, 1, 57, 118
3, 8999, Note_on_c, 1, 57, 0
3, 8999, Note_on_c, 1, 60, 0
3, 8999, Note_on_c, 1, 65, 0
3, 9000, Note_on_c, 1, 53, 103
3, 9000, Note_on_c, 1, 41, 103
3, 9000, Note_on_c, 1, 60, 107
3, 9000, Note_on_c, 1, 65, 107
3, 9000, Note_on_c, 1, 57, 107
3, 9059, Note_on_c, 1, 57, 0
3, 9059, Note_on_c, 1, 60, 0
3, 9059, Note_on_c, 1, 53, 0
3, 9059, Note_on_c, 1, 41, 0
3, 9059, Note_on_c, 1, 65, 0
3, 9060, Note_on_c, 1, 60, 107
3, 9060, Note_on_c, 1, 65, 107
3, 9060, Note_on_c, 1, 57, 115
3, 9119, Note_on_c, 1, 57, 0
3, 9119, Note_on_c, 1, 65, 0
3, 9119, Note_on_c, 1, 60, 0
3, 9120, Note_on_c, 1, 65, 115
3, 9120, Note_on_c, 1, 38, 115
3, 9120, Note_on_c, 1, 57, 115
3, 9120, Note_on_c, 1, 50, 118
3, 9120, Note_on_c, 1, 62, 121
3, 9179, Note_on_c, 1, 62, 0
3, 9179, Note_on_c, 1, 57, 0
3, 9179, Note_on_c, 1, 65, 0
3, 9179, Note_on_c, 1, 38, 0
3, 9179, Note_on_c, 1, 50, 0
3, 9240, Note_on_c, 1, 62, 118
3, 9240, Note_on_c, 1, 65, 118
3, 9240, Note_on_c, 1, 57, 115
3, 9240, Note_on_c, 1, 50, 115
3, 9240, Note_on_c, 1, 38, 107
3, 9299, Note_on_c, 1, 38, 0
3, 9299, Note_on_c, 1, 57, 0
3, 9299, Note_on_c, 1, 62, 0
3, 9299, Note_on_c, 1, 65, 0
3, 9299, Note_on_c, 1, 50, 0
3, 9300, Note_on_c, 1, 65, 115
3, 9300, Note_on_c, 1, 62, 115
3, 9300, Note_on_c, 1, 57, 103
3, 9359, Note_on_c, 1, 57, 0
3, 9359, Note_on_c, 1, 62, 0
3, 9359, Note_on_c, 1, 65, 0
3, 9360, Note_on_c, 1, 50, 118
3, 9360, Note_on_c, 1, 38, 115
3, 9419, Note_on_c, 1, 38, 0
3, 9419, Note_on_c, 1, 50, 0
3, 9420, Note_on_c, 1, 62, 107
3, 9420, Note_on_c, 1, 65, 115
3, 9420, Note_on_c, 1, 57, 103
3, 9479, Note_on_c, 1, 57, 0
3, 9479, Note_on_c, 1, 65, 0
3, 9479, Note_on_c, 1, 62, 0
3, 9480, Note_on_c, 1, 50, 107
3, 9480, Note_on_c, 1, 38, 115
3, 9480, Note_on_c, 1, 62, 103
3, 9480, Note_on_c, 1, 65, 107
3, 9480, Note_on_c, 1, 57, 97
3, 9539, Note_on_c, 1, 57, 0
3, 9539, Note_on_c, 1, 62, 0
3, 9539, Note_on_c, 1, 50, 0
3, 9539, Note_on_c, 1, 38, 0
3, 9539, Note_on_c, 1, 65, 0
3, 9540, Note_on_c, 1, 65, 107
3, 9540, Note_on_c, 1, 62, 107
3, 9540, Note_on_c, 1, 57, 107
3, 9599, Note_on_c, 1, 57, 0
3, 9599, Note_on_c, 1, 62, 0
3, 9599, Note_on_c, 1, 65, 0
3, 9600, Note_on_c, 1, 65, 118
3, 9600, Note_on_c, 1, 62, 115
3, 9600, Note_on_c, 1, 57, 118
3, 9600, Note_on_c, 1, 38, 115
3, 9600, Note_on_c, 1, 50, 115
3, 9659, Note_on_c, 1, 50, 0
3, 9659, Note_on_c, 1, 57, 0
3, 9659, Note_on_c, 1, 65, 0
3, 9659, Note_on_c, 1, 62, 0
3, 9659, Note_on_c, 1, 38, 0
3, 9720, Note_on_c, 1, 62, 103
3, 9720, Note_on_c, 1, 65, 115
3, 9720, Note_on_c, 1, 57, 93
3, 9720, Note_on_c, 1, 50, 103
3, 9720, Note_on_c, 1, 38, 103
3, 9779, Note_on_c, 1, 38, 0
3, 9779, Note_on_c, 1, 57, 0
3, 9779, Note_on_c, 1, 62, 0
3, 9779, Note_on_c, 1, 65, 0
3, 9779, Note_on_c, 1, 50, 0
3, 9780, Note_on_c, 1, 65, 107
3, 9780, Note_on_c, 1, 62, 118
3, 9780, Note_on_c, 1, 57, 115
3, 9839, Note_on_c, 1, 57, 0
3, 9839, Note_on_c, 1, 62, 0
3, 9839, Note_on_c, 1, 65, 0
3, 9840, Note_on_c, 1, 50, 115
3, 9840, Note_on_c, 1, 38, 103
3, 9899, Note_on_c, 1, 38, 0
3, 9899, Note_on_c, 1, 50, 0
3, 9900, Note_on_c, 1, 65, 97
3, 9900, Note_on_c, 1, 62, 103
3, 9900, Note_on_c, 1, 57, 103
3, 9959, Note_on_c, 1, 57, 0
3, 9959, Note_on_c, 1, 62, 0
3, 9959, Note_on_c, 1, 65, 0
3, 9960, Note_on_c, 1, 50, 103
3, 9960, Note_on_c, 1, 38, 103
3, 9960, Note_on_c, 1, 62, 103
3, 9960, Note_on_c, 1, 65, 118
3, 9960, Note_on_c, 1, 57, 103
3, 10019, Note_on_c, 1, 57, 0
3, 10019, Note_on_c, 1, 62, 0
3, 10019, Note_on_c, 1, 50, 0
3, 10019, Note_on_c, 1, 38, 0
3, 10019, Note_on_c, 1, 65, 0
3, 10020, Note_on_c, 1, 65, 115
3, 10020, Note_on_c, 1, 62, 107
3, 10020, Note_on_c, 1, 57, 93
3, 10079, Note_on_c, 1, 57, 0
3, 10079, Note_on_c, 1, 62, 0
3, 10079, Note_on_c, 1, 65, 0
3, 10080, Note_on_c, 1, 65, 103
3, 10080, Note_on_c, 1, 62, 115
3, 10080, Note_on_c, 1, 58, 121
3, 10080, Note_on_c, 1, 34, 97
3, 10080, Note_on_c, 1, 46, 103
3, 10139, Note_on_c, 1, 46, 0
3, 10139, Note_on_c, 1, 58, 0
3, 10139, Note_on_c, 1, 65, 0
3, 10139, Note_on_c, 1, 62, 0
3, 10139, Note_on_c, 1, 34, 0
3, 10200, Note_on_c, 1, 34, 103
3, 10200, Note_on_c, 1, 65, 115
3, 10200, Note_on_c, 1, 62, 103
3, 10200, Note_on_c, 1, 58, 103
3, 10200, Note_on_c, 1, 46, 107
3, 10259, Note_on_c, 1, 46, 0
3, 10259, Note_on_c, 1, 62, 0
3, 10259, Note_on_c, 1, 34, 0
3, 10259, Note_on_c, 1, 65, 0
3, 10259, Note_on_c, 1, 58, 0
3, 10260, Note_on_c, 1, 65, 97
3, 10260, Note_on_c, 1, 58, 97
3, 10260, Note_on_c, 1, 62, 103
3, 10319, Note_on_c, 1, 62, 0
3, 10319, Note_on_c, 1, 58, 0
3, 10319, Note_on_c, 1, 65, 0
3, 10320, Note_on_c, 1, 34, 107
3, 10320, Note_on_c, 1, 46, 118
3, 10379, Note_on_c, 1, 46, 0
3, 10379, Note_on_c, 1, 34, 0
3, 10380, Note_on_c, 1, 65, 115
3, 10380, Note_on_c, 1, 58, 103
3, 10380, Note_on_c, 1, 62, 115
3, 10439, Note_on_c, 1, 62, 0
3, 10439, Note_on_c, 1, 58, 0
3, 10439, Note_on_c, 1, 65, 0
3, 10440, Note_on_c, 1, 65, 115
3, 10440, Note_on_c, 1, 34, 115
3, 10440, Note_on_c, 1, 46, 107
3, 10440, Note_on_c, 1, 62, 103
3, 10440, Note_on_c, 1, 58, 115
3, 10499, Note_on_c, 1, 58, 0
3, 10499, Note_on_c, 1, 46, 0
3, 10499, Note_on_c, 1, 65, 0
3, 10499, Note_on_c, 1, 34, 0
3, 10499, Note_on_c, 1, 62, 0
3, 10500, Note_on_c, 1, 65, 103
3, 10500, Note_on_c, 1, 58, 93
3, 10500, Note_on_c, 1, 62, 103
3, 10559, Note_on_c, 1, 62, 0
3, 10559, Note_on_c, 1, 58, 0
3, 10559, Note_on_c, 1, 65, 0
3, 10560, Note_on_c, 1, 65, 107
3, 10560, Note_on_c, 1, 62, 107
3, 10560, Note_on_c, 1, 34, 115
3, 10560, Note_on_c, 1, 58, 115
3, 10560, Note_on_c, 1, 46, 121
3, 10619, Note_on_c, 1, 46, 0
3, 10619, Note_on_c, 1, 34, 0
3, 10619, Note_on_c, 1, 65, 0
3, 10619, Note_on_c, 1, 62, 0
3, 10619, Note_on_c, 1, 58, 0
3, 10680, Note_on_c, 1, 46, 107
3, 10680, Note_on_c, 1, 65, 107
3, 10680, Note_on_c, 1, 34, 115
3, 10680, Note_on_c, 1, 58, 115
3, 10680, Note_on_c, 1, 62, 107
3, 10739, Note_on_c, 1, 62, 0
3, 10739, Note_on_c, 1, 34, 0
3, 10739, Note_on_c, 1, 46, 0
3, 10739, Note_on_c, 1, 65, 0
3, 10739, Note_on_c, 1, 58, 0
3, 10740, Note_on_c, 1, 58, 103
3, 10740, Note_on_c, 1, 65, 103
3, 10740, Note_on_c, 1, 62, 97
3, 10799, Note_on_c, 1, 62, 0
3, 10799, Note_on_c, 1, 65, 0
3, 10799, Note_on_c, 1, 58, 0
3, 10800, Note_on_c, 1, 34, 115
3, 10800, Note_on_c, 1, 46, 115
3, 10800, Note_on_c, 1, 65, 107
3, 10800, Note_on_c, 1, 62, 115
3, 10800, Note_on_c, 1, 58, 115
3, 10859, Note_on_c, 1, 58, 0
3, 10859, Note_on_c, 1, 65, 0
3, 10859, Note_on_c, 1, 34, 0
3, 10859, Note_on_c, 1, 46, 0
3, 10859, Note_on_c, 1, 62, 0
3, 10860, Note_on_c, 1, 58, 107
3, 10860, Note_on_c, 1, 65, 107
3, 10860, Note_on_c, 1, 62, 103
3, 10919, Note_on_c, 1, 62, 0
3, 10919, Note_on_c, 1, 65, 0
3, 10919, Note_on_c, 1, 58, 0
3, 10920, Note_on_c, 1, 34, 118
3, 10920, Note_on_c, 1, 46, 118
3, 10979, Note_on_c, 1, 46, 0
3, 10979, Note_on_c, 1, 34, 0
3, 10980, Note_on_c, 1, 58, 97
3, 10980, Note_on_c, 1, 65, 103
3, 10980, Note_on_c, 1, 62, 103
3, 11039, Note_on_c, 1, 62, 0
3, 11039, Note_on_c, 1, 65, 0
3, 11039, Note_on_c, 1, 58, 0
3, 11040, Note_on_c, 1, 60, 118
3, 11040, Note_on_c, 1, 64, 121
3, 11040, Note_on_c, 1, 48, 91
3, 11040, Note_on_c, 1, 67, 115
3, 11040, Note_on_c, 1, 36, 97
3, 11099, Note_on_c, 1, 67, 0
3, 11099, Note_on_c, 1, 48, 0
3, 11099, Note_on_c, 1, 60, 0
3, 11099, Note_on_c, 1, 64, 0
3, 11160, Note_on_c, 1, 36, 0
3, 11160, Note_on_c, 1, 60, 121
3, 11160, Note_on_c, 1, 48, 97
3, 11160, Note_on_c, 1, 64, 118
3, 11160, Note_on_c, 1, 67, 107
3, 11160, Note_on_c, 1, 36, 107
3, 11219, Note_on_c, 1, 36, 0
3, 11219, Note_on_c, 1, 64, 0
3, 11219, Note_on_c, 1, 60, 0
3, 11219, Note_on_c, 1, 48, 0
3, 11219, Note_on_c, 1, 67, 0
3, 11220, Note_on_c, 1, 67, 107
3, 11220, Note_on_c, 1, 64, 118
3, 11220, Note_on_c, 1, 60, 115
3, 11279, Note_on_c, 1, 60, 0
3, 11279, Note_on_c, 1, 64, 0
3, 11279, Note_on_c, 1, 67, 0
3, 11280, Note_on_c, 1, 48, 103
3, 11280, Note_on_c, 1, 36, 107
3, 11339, Note_on_c, 1, 36, 0
3, 11339, Note_on_c, 1, 48, 0
3, 11340, Note_on_c, 1, 60, 118
3, 11340, Note_on_c, 1, 67, 115
3, 11340, Note_on_c, 1, 64, 121
3, 11399, Note_on_c, 1, 64, 0
3, 11399, Note_on_c, 1, 67, 0
3, 11399, Note_on_c, 1, 60, 0
3, 11400, Note_on_c, 1, 48, 115
3, 11400, Note_on_c, 1, 60, 121
3, 11400, Note_on_c, 1, 64, 121
3, 11400, Note_on_c, 1, 67, 118
3, 11400, Note_on_c, 1, 36, 118
3, 11459, Note_on_c, 1, 36, 0
3, 11459, Note_on_c, 1, 64, 0
3, 11459, Note_on_c, 1, 48, 0
3, 11459, Note_on_c, 1, 60, 0
3, 11459, Note_on_c, 1, 67, 0
3, 11520, Note_on_c, 1, 60, 118
3, 11520, Note_on_c, 1, 64, 121
3, 11520, Note_on_c, 1, 48, 91
3, 11520, Note_on_c, 1, 67, 115
3, 11520, Note_on_c, 1, 36, 97
3, 11579, Note_on_c, 1, 67, 0
3, 11579, Note_on_c, 1, 48, 0
3, 11579, Note_on_c, 1, 60, 0
3, 11579, Note_on_c, 1, 64, 0
3, 11640, Note_on_c, 1, 36, 0
3, 11640, Note_on_c, 1, 60, 121
3, 11640, Note_on_c, 1, 48, 97
3, 11640, Note_on_c, 1, 64, 118
3, 11640, Note_on_c, 1, 67, 107
3, 11640, Note_on_c, 1, 36, 107
3, 11699, Note_on_c, 1, 36, 0
3, 11699, Note_on_c, 1, 64, 0
3, 11699, Note_on_c, 1, 60, 0
3, 11699, Note_on_c, 1, 48, 0
3, 11699, Note_on_c, 1, 67, 0
3, 11700, Note_on_c, 1, 67, 107
3, 11700, Note_on_c, 1, 64, 118
3, 11700, Note_on_c, 1, 60, 115
3, 11759, Note_on_c, 1, 60, 0
3, 11759, Note_on_c, 1, 64, 0
3, 11759, Note_on_c, 1, 67, 0
3, 11760, Note_on_c, 1, 48, 103
3, 11760, Note_on_c, 1, 36, 107
3, 11819, Note_on_c, 1, 36, 0
3, 11819, Note_on_c, 1, 48, 0
3, 11820, Note_on_c, 1, 60, 118
3, 11820, Note_on_c, 1, 67, 115
3, 11820, Note_on_c, 1, 64, 121
3, 11879, Note_on_c, 1, 64, 0
3, 11879, Note_on_c, 1, 67, 0
3, 11879, Note_on_c, 1, 60, 0
3, 11880, Note_on_c, 1, 48, 115
3, 11880, Note_on_c, 1, 60, 121
3, 11880, Note_on_c, 1, 64, 121
3, 11880, Note_on_c, 1, 67, 118
3, 11880, Note_on_c, 1, 36, 118
3, 11939, Note_on_c, 1, 36, 0
3, 11939, Note_on_c, 1, 64, 0
3, 11939, Note_on_c, 1, 48, 0
3, 11939, Note_on_c, 1, 60, 0
3, 11939, Note_on_c, 1, 67, 0
3, 12000, Note_on_c, 1, 41, 115
3, 12000, Note_on_c, 1, 53, 107
3, 12000, Note_on_c, 1, 57, 118
3, 12000, Note_on_c, 1, 60, 118
3, 12000, Note_on_c, 1, 65, 118
3, 12059, Note_on_c, 1, 65, 0
3, 12059, Note_on_c, 1, 57, 0
3, 12059, Note_on_c, 1, 41, 0
3, 12059, Note_on_c, 1, 53, 0
3, 12059, Note_on_c, 1, 60, 0
3, 12120, Note_on_c, 1, 65, 118
3, 12120, Note_on_c, 1, 53, 97
3, 12120, Note_on_c, 1, 41, 107
3, 12120, Note_on_c, 1, 60, 122
3, 12120, Note_on_c, 1, 57, 118
3, 12179, Note_on_c, 1, 57, 0
3, 12179, Note_on_c, 1, 41, 0
3, 12179, Note_on_c, 1, 65, 0
3, 12179, Note_on_c, 1, 53, 0
3, 12179, Note_on_c, 1, 60, 0
3, 12240, Note_on_c, 1, 65, 121
3, 12240, Note_on_c, 1, 53, 118
3, 12240, Note_on_c, 1, 60, 121
3, 12240, Note_on_c, 1, 57, 121
3, 12240, Note_on_c, 1, 41, 118
3, 12299, Note_on_c, 1, 41, 0
3, 12299, Note_on_c, 1, 60, 0
3, 12299, Note_on_c, 1, 65, 0
3, 12299, Note_on_c, 1, 53, 0
3, 12299, Note_on_c, 1, 57, 0
3, 12360, Note_on_c, 1, 53, 93
3, 12360, Note_on_c, 1, 65, 115
3, 12360, Note_on_c, 1, 57, 121
3, 12360, Note_on_c, 1, 41, 87
3, 12360, Note_on_c, 1, 60, 121
3, 12360, Note_on_c, 1, 63, 103
3, 12419, Note_on_c, 1, 63, 0
3, 12419, Note_on_c, 1, 65, 0
3, 12419, Note_on_c, 1, 57, 0
3, 12419, Note_on_c, 1, 53, 0
3, 12419, Note_on_c, 1, 60, 0
3, 12419, Note_on_c, 1, 41, 0
3, 12420, Note_on_c, 1, 60, 97
3, 12420, Note_on_c, 1, 65, 115
3, 12420, Note_on_c, 1, 57, 97
3, 12479, Note_on_c, 1, 57, 0
3, 12479, Note_on_c, 1, 65, 0
3, 12479, Note_on_c, 1, 60, 0
3, 12480, Note_on_c, 1, 50, 103
3, 12480, Note_on_c, 1, 65, 118
3, 12480, Note_on_c, 1, 38, 107
3, 12480, Note_on_c, 1, 57, 121
3, 12480, Note_on_c, 1, 62, 121
3, 12539, Note_on_c, 1, 62, 0
3, 12539, Note_on_c, 1, 38, 0
3, 12539, Note_on_c, 1, 50, 0
3, 12539, Note_on_c, 1, 65, 0
3, 12539, Note_on_c, 1, 57, 0
3, 12540, Note_on_c, 1, 57, 91
3, 12540, Note_on_c, 1, 65, 103
3, 12540, Note_on_c, 1, 62, 107
3, 12599, Note_on_c, 1, 62, 0
3, 12599, Note_on_c, 1, 65, 0
3, 12599, Note_on_c, 1, 57, 0
3, 12600, Note_on_c, 1, 65, 118
3, 12600, Note_on_c, 1, 62, 122
3, 12600, Note_on_c, 1, 57, 121
3, 12600, Note_on_c, 1, 50, 121
3, 12600, Note_on_c, 1, 38, 118
3, 12659, Note_on_c, 1, 38, 0
3, 12659, Note_on_c, 1, 57, 0
3, 12659, Note_on_c, 1, 65, 0
3, 12659, Note_on_c, 1, 62, 0
3, 12659, Note_on_c, 1, 50, 0
3, 12660, Note_on_c, 1, 65, 118
3, 12660, Note_on_c, 1, 57, 118
3, 12660, Note_on_c, 1, 62, 121
3, 12719, Note_on_c, 1, 62, 0
3, 12719, Note_on_c, 1, 57, 0
3, 12719, Note_on_c, 1, 65, 0
3, 12720, Note_on_c, 1, 50, 118
3, 12720, Note_on_c, 1, 38, 118
3, 12779, Note_on_c, 1, 38, 0
3, 12779, Note_on_c, 1, 50, 0
3, 12780, Note_on_c, 1, 62, 115
3, 12780, Note_on_c, 1, 65, 107
3, 12780, Note_on_c, 1, 57, 115
3, 12839, Note_on_c, 1, 57, 0
3, 12839, Note_on_c, 1, 65, 0
3, 12839, Note_on_c, 1, 62, 0
3, 12840, Note_on_c, 1, 50, 118
3, 12840, Note_on_c, 1, 62, 115
3, 12840, Note_on_c, 1, 65, 107
3, 12840, Note_on_c, 1, 38, 118
3, 12840, Note_on_c, 1, 57, 103
3, 12899, Note_on_c, 1, 57, 0
3, 12899, Note_on_c, 1, 65, 0
3, 12899, Note_on_c, 1, 50, 0
3, 12899, Note_on_c, 1, 62, 0
3, 12899, Note_on_c, 1, 38, 0
3, 12900, Note_on_c, 1, 65, 107
3, 12900, Note_on_c, 1, 62, 97
3, 12900, Note_on_c, 1, 57, 97
3, 12959, Note_on_c, 1, 57, 0
3, 12959, Note_on_c, 1, 62, 0
3, 12959, Note_on_c, 1, 65, 0
3, 12960, Note_on_c, 1, 46, 97
3, 12960, Note_on_c, 1, 62, 115
3, 12960, Note_on_c, 1, 34, 107
3, 12960, Note_on_c, 1, 65, 118
3, 12960, Note_on_c, 1, 58, 122
3, 13019, Note_on_c, 1, 58, 0
3, 13019, Note_on_c, 1, 34, 0
3, 13019, Note_on_c, 1, 46, 0
3, 13019, Note_on_c, 1, 62, 0
3, 13019, Note_on_c, 1, 65, 0
3, 13080, Note_on_c, 1, 65, 103
3, 13080, Note_on_c, 1, 58, 107
3, 13080, Note_on_c, 1, 46, 103
3, 13080, Note_on_c, 1, 62, 107
3, 13080, Note_on_c, 1, 34, 107
3, 13139, Note_on_c, 1, 34, 0
3, 13139, Note_on_c, 1, 46, 0
3, 13139, Note_on_c, 1, 65, 0
3, 13139, Note_on_c, 1, 58, 0
3, 13139, Note_on_c, 1, 62, 0
3, 13140, Note_on_c, 1, 65, 103
3, 13140, Note_on_c, 1, 62, 103
3, 13140, Note_on_c, 1, 58, 107
3, 13199, Note_on_c, 1, 58, 0
3, 13199, Note_on_c, 1, 62, 0
3, 13199, Note_on_c, 1, 65, 0
3, 13200, Note_on_c, 1, 34, 118
3, 13200, Note_on_c, 1, 46, 121
3, 13259, Note_on_c, 1, 46, 0
3, 13259, Note_on_c, 1, 34, 0
3, 13260, Note_on_c, 1, 65, 93
3, 13260, Note_on_c, 1, 58, 97
3, 13260, Note_on_c, 1, 62, 107
3, 13319, Note_on_c, 1, 62, 0
3, 13319, Note_on_c, 1, 58, 0
3, 13319, Note_on_c, 1, 65, 0
3, 13320, Note_on_c, 1, 34, 115
3, 13320, Note_on_c, 1, 46, 115
3, 13320, Note_on_c, 1, 62, 107
3, 13320, Note_on_c, 1, 65, 103
3, 13320, Note_on_c, 1, 58, 103
3, 13379, Note_on_c, 1, 58, 0
3, 13379, Note_on_c, 1, 62, 0
3, 13379, Note_on_c, 1, 34, 0
3, 13379, Note_on_c, 1, 46, 0
3, 13379, Note_on_c, 1, 65, 0
3, 13380, Note_on_c, 1, 58, 93
3, 13380, Note_on_c, 1, 62, 97
3, 13380, Note_on_c, 1, 65, 91
3, 13439, Note_on_c, 1, 65, 0
3, 13439, Note_on_c, 1, 62, 0
3, 13439, Note_on_c, 1, 58, 0
3, 13440, Note_on_c, 1, 60, 115
3, 13440, Note_on_c, 1, 64, 118
3, 13440, Note_on_c, 1, 67, 115
3, 13440, Note_on_c, 1, 48, 83
3, 13440, Note_on_c, 1, 36, 97
3, 13499, Note_on_c, 1, 36, 0
3, 13499, Note_on_c, 1, 67, 0
3, 13499, Note_on_c, 1, 60, 0
3, 13499, Note_on_c, 1, 64, 0
3, 13499, Note_on_c, 1, 48, 0
3, 13560, Note_on_c, 1, 48, 83
3, 13560, Note_on_c, 1, 64, 107
3, 13560, Note_on_c, 1, 60, 115
3, 13560, Note_on_c, 1, 67, 97
3, 13560, Note_on_c, 1, 36, 97
3, 13619, Note_on_c, 1, 36, 0
3, 13619, Note_on_c, 1, 60, 0
3, 13619, Note_on_c, 1, 48, 0
3, 13619, Note_on_c, 1, 64, 0
3, 13619, Note_on_c, 1, 67, 0
3, 13620, Note_on_c, 1, 64, 103
3, 13620, Note_on_c, 1, 60, 107
3, 13620, Note_on_c, 1, 67, 103
3, 13679, Note_on_c, 1, 67, 0
3, 13679, Note_on_c, 1, 60, 0
3, 13679, Note_on_c, 1, 64, 0
3, 13680, Note_on_c, 1, 48, 103
3, 13680, Note_on_c, 1, 36, 107
3, 13739, Note_on_c, 1, 36, 0
3, 13739, Note_on_c, 1, 48, 0
3, 13740, Note_on_c, 1, 67, 97
3, 13740, Note_on_c, 1, 60, 103
3, 13740, Note_on_c, 1, 64, 103
3, 13799, Note_on_c, 1, 64, 0
3, 13799, Note_on_c, 1, 60, 0
3, 13799, Note_on_c, 1, 67, 0
3, 13800, Note_on_c, 1, 64, 115
3, 13800, Note_on_c, 1, 67, 115
3, 13800, Note_on_c, 1, 60, 115
3, 13800, Note_on_c, 1, 48, 93
3, 13800, Note_on_c, 1, 36, 103
3, 13859, Note_on_c, 1, 36, 0
3, 13859, Note_on_c, 1, 60, 0
3, 13859, Note_on_c, 1, 64, 0
3, 13859, Note_on_c, 1, 67, 0
3, 13859, Note_on_c, 1, 48, 0
3, 13860, Note_on_c, 1, 67, 107
3, 13860, Note_on_c, 1, 60, 97
3, 13860, Note_on_c, 1, 64, 97
3, 13919, Note_on_c, 1, 64, 0
3, 13919, Note_on_c, 1, 60, 0
3, 13919, Note_on_c, 1, 67, 0
3, 13920, Note_on_c, 1, 65, 107
3, 13920, Note_on_c, 1, 60, 118
3, 13920, Note_on_c, 1, 57, 115
3, 13920, Note_on_c, 1, 41, 93
3, 13920, Note_on_c, 1, 53, 75
3, 13979, Note_on_c, 1, 53, 0
3, 13979, Note_on_c, 1, 57, 0
3, 13979, Note_on_c, 1, 65, 0
3, 13979, Note_on_c, 1, 60, 0
3, 13979, Note_on_c, 1, 41, 0
3, 14040, Note_on_c, 1, 65, 103
3, 14040, Note_on_c, 1, 60, 118
3, 14040, Note_on_c, 1, 57, 103
3, 14040, Note_on_c, 1, 53, 103
3, 14040, Note_on_c, 1, 41, 107
3, 14099, Note_on_c, 1, 41, 0
3, 14099, Note_on_c, 1, 57, 0
3, 14099, Note_on_c, 1, 65, 0
3, 14099, Note_on_c, 1, 60, 0
3, 14099, Note_on_c, 1, 53, 0
3, 14100, Note_on_c, 1, 60, 122
3, 14100, Note_on_c, 1, 65, 118
3, 14100, Note_on_c, 1, 57, 118
3, 14159, Note_on_c, 1, 57, 0
3, 14159, Note_on_c, 1, 65, 0
3, 14159, Note_on_c, 1, 60, 0
3, 14160, Note_on_c, 1, 53, 115
3, 14160, Note_on_c, 1, 41, 115
3, 14219, Note_on_c, 1, 41, 0
3, 14219, Note_on_c, 1, 53, 0
3, 14220, Note_on_c, 1, 65, 107
3, 14220, Note_on_c, 1, 60, 118
3, 14220, Note_on_c, 1, 57, 115
3, 14279, Note_on_c, 1, 57, 0
3, 14279, Note_on_c, 1, 60, 0
3, 14279, Note_on_c, 1, 65, 0
3, 14280, Note_on_c, 1, 53, 103
3, 14280, Note_on_c, 1, 41, 107
3, 14280, Note_on_c, 1, 60, 121
3, 14280, Note_on_c, 1, 65, 115
3, 14280, Note_on_c, 1, 57, 118
3, 14339, Note_on_c, 1, 57, 0
3, 14339, Note_on_c, 1, 60, 0
3, 14339, Note_on_c, 1, 53, 0
3, 14339, Note_on_c, 1, 41, 0
3, 14339, Note_on_c, 1, 65, 0
3, 14340, Note_on_c, 1, 65, 103
3, 14340, Note_on_c, 1, 60, 97
3, 14340, Note_on_c, 1, 57, 97
3, 14399, Note_on_c, 1, 57, 0
3, 14399, Note_on_c, 1, 60, 0
3, 14399, Note_on_c, 1, 65, 0
3, 14400, Note_on_c, 1, 65, 118
3, 14400, Note_on_c, 1, 50, 91
3, 14400, Note_on_c, 1, 57, 115
3, 14400, Note_on_c, 1, 62, 118
3, 14400, Note_on_c, 1, 38, 91
3, 14459, Note_on_c, 1, 38, 0
3, 14459, Note_on_c, 1, 57, 0
3, 14459, Note_on_c, 1, 65, 0
3, 14459, Note_on_c, 1, 50, 0
3, 14459, Note_on_c, 1, 62, 0
3, 14520, Note_on_c, 1, 65, 93
3, 14520, Note_on_c, 1, 57, 115
3, 14520, Note_on_c, 1, 62, 115
3, 14520, Note_on_c, 1, 50, 97
3, 14520, Note_on_c, 1, 38, 103
3, 14579, Note_on_c, 1, 38, 0
3, 14579, Note_on_c, 1, 62, 0
3, 14579, Note_on_c, 1, 65, 0
3, 14579, Note_on_c, 1, 57, 0
3, 14579, Note_on_c, 1, 50, 0
3, 14580, Note_on_c, 1, 65, 107
3, 14580, Note_on_c, 1, 62, 118
3, 14580, Note_on_c, 1, 57, 115
3, 14639, Note_on_c, 1, 57, 0
3, 14639, Note_on_c, 1, 62, 0
3, 14639, Note_on_c, 1, 65, 0
3, 14640, Note_on_c, 1, 50, 107
3, 14640, Note_on_c, 1, 38, 103
3, 14699, Note_on_c, 1, 38, 0
3, 14699, Note_on_c, 1, 50, 0
3, 14700, Note_on_c, 1, 65, 107
3, 14700, Note_on_c, 1, 57, 107
3, 14700, Note_on_c, 1, 62, 121
3, 14759, Note_on_c, 1, 62, 0
3, 14759, Note_on_c, 1, 57, 0
3, 14759, Note_on_c, 1, 65, 0
3, 14760, Note_on_c, 1, 65, 103
3, 14760, Note_on_c, 1, 57, 107
3, 14760, Note_on_c, 1, 62, 118
3, 14760, Note_on_c, 1, 50, 115
3, 14760, Note_on_c, 1, 38, 93
3, 14819, Note_on_c, 1, 38, 0
3, 14819, Note_on_c, 1, 62, 0
3, 14819, Note_on_c, 1, 65, 0
3, 14819, Note_on_c, 1, 57, 0
3, 14819, Note_on_c, 1, 50, 0
3, 14820, Note_on_c, 1, 65, 107
3, 14820, Note_on_c, 1, 57, 87
3, 14820, Note_on_c, 1, 62, 103
3, 14879, Note_on_c, 1, 62, 0
3, 14879, Note_on_c, 1, 57, 0
3, 14879, Note_on_c, 1, 65, 0
3, 14880, Note_on_c, 1, 46, 97
3, 14880, Note_on_c, 1, 34, 93
3, 14880, Note_on_c, 1, 65, 107
3, 14880, Note_on_c, 1, 62, 107
3, 14880, Note_on_c, 1, 58, 122
3, 14939, Note_on_c, 1, 58, 0
3, 14939, Note_on_c, 1, 65, 0
3, 14939, Note_on_c, 1, 46, 0
3, 14939, Note_on_c, 1, 34, 0
3, 14939, Note_on_c, 1, 62, 0
3, 15000, Note_on_c, 1, 65, 107
3, 15000, Note_on_c, 1, 46, 93
3, 15000, Note_on_c, 1, 34, 97
3, 15000, Note_on_c, 1, 62, 103
3, 15000, Note_on_c, 1, 58, 107
3, 15059, Note_on_c, 1, 58, 0
3, 15059, Note_on_c, 1, 34, 0
3, 15059, Note_on_c, 1, 65, 0
3, 15059, Note_on_c, 1, 46, 0
3, 15059, Note_on_c, 1, 62, 0
3, 15060, Note_on_c, 1, 65, 107
3, 15060, Note_on_c, 1, 58, 107
3, 15060, Note_on_c, 1, 62, 107
3, 15119, Note_on_c, 1, 62, 0
3, 15119, Note_on_c, 1, 58, 0
3, 15119, Note_on_c, 1, 65, 0
3, 15120, Note_on_c, 1, 34, 118
3, 15120, Note_on_c, 1, 46, 118
3, 15179, Note_on_c, 1, 46, 0
3, 15179, Note_on_c, 1, 34, 0
3, 15180, Note_on_c, 1, 65, 115
3, 15180, Note_on_c, 1, 62, 107
3, 15180, Note_on_c, 1, 58, 115
3, 15239, Note_on_c, 1, 58, 0
3, 15239, Note_on_c, 1, 62, 0
3, 15239, Note_on_c, 1, 65, 0
3, 15240, Note_on_c, 1, 46, 107
3, 15240, Note_on_c, 1, 34, 107
3, 15240, Note_on_c, 1, 65, 107
3, 15240, Note_on_c, 1, 58, 103
3, 15240, Note_on_c, 1, 62, 107
3, 15299, Note_on_c, 1, 62, 0
3, 15299, Note_on_c, 1, 65, 0
3, 15299, Note_on_c, 1, 46, 0
3, 15299, Note_on_c, 1, 34, 0
3, 15299, Note_on_c, 1, 58, 0
3, 15300, Note_on_c, 1, 65, 103
3, 15300, Note_on_c, 1, 58, 91
3, 15300, Note_on_c, 1, 62, 97
3, 15359, Note_on_c, 1, 62, 0
3, 15359, Note_on_c, 1, 58, 0
3, 15359, Note_on_c, 1, 65, 0
3, 15360, Note_on_c, 1, 60, 118
3, 15360, Note_on_c, 1, 64, 118
3, 15360, Note_on_c, 1, 67, 103
3, 15360, Note_on_c, 1, 48, 77
3, 15360, Note_on_c, 1, 36, 93
3, 15419, Note_on_c, 1, 36, 0
3, 15419, Note_on_c, 1, 67, 0
3, 15419, Note_on_c, 1, 60, 0
3, 15419, Note_on_c, 1, 64, 0
3, 15419, Note_on_c, 1, 48, 0
3, 15480, Note_on_c, 1, 60, 107
3, 15480, Note_on_c, 1, 64, 103
3, 15480, Note_on_c, 1, 67, 103
3, 15480, Note_on_c, 1, 36, 93
3, 15480, Note_on_c, 1, 48, 97
3, 15539, Note_on_c, 1, 48, 0
3, 15539, Note_on_c, 1, 67, 0
3, 15539, Note_on_c, 1, 60, 0
3, 15539, Note_on_c, 1, 64, 0
3, 15539, Note_on_c, 1, 36, 0
3, 15540, Note_on_c, 1, 64, 115
3, 15540, Note_on_c, 1, 60, 118
3, 15540, Note_on_c, 1, 67, 103
3, 15599, Note_on_c, 1, 67, 0
3, 15599, Note_on_c, 1, 60, 0
3, 15599, Note_on_c, 1, 64, 0
3, 15600, Note_on_c, 1, 48, 115
3, 15600, Note_on_c, 1, 36, 115
3, 15659, Note_on_c, 1, 36, 0
3, 15659, Note_on_c, 1, 48, 0
3, 15660, Note_on_c, 1, 64, 118
3, 15660, Note_on_c, 1, 67, 115
3, 15660, Note_on_c, 1, 60, 121
3, 15719, Note_on_c, 1, 60, 0
3, 15719, Note_on_c, 1, 67, 0
3, 15719, Note_on_c, 1, 64, 0
3, 15720, Note_on_c, 1, 64, 115
3, 15720, Note_on_c, 1, 48, 103
3, 15720, Note_on_c, 1, 36, 107
3, 15720, Note_on_c, 1, 60, 118
3, 15720, Note_on_c, 1, 67, 107
3, 15779, Note_on_c, 1, 67, 0
3, 15779, Note_on_c, 1, 36, 0
3, 15779, Note_on_c, 1, 64, 0
3, 15779, Note_on_c, 1, 48, 0
3, 15779, Note_on_c, 1, 60, 0
3, 15780, Note_on_c, 1, 67, 103
3, 15780, Note_on_c, 1, 64, 107
3, 15780, Note_on_c, 1, 60, 115
3, 15839, Note_on_c, 1, 60, 0
3, 15839, Note_on_c, 1, 64, 0
3, 15839, Note_on_c, 1, 67, 0
3, 15840, Note_on_c, 1, 41, 115
3, 15840, Note_on_c, 1, 65, 121
3, 15840, Note_on_c, 1, 53, 107
3, 15840, Note_on_c, 1, 57, 121
3, 15840, Note_on_c, 1, 60, 121
3, 15899, Note_on_c, 1, 57, 0
3, 15899, Note_on_c, 1, 53, 0
3, 15899, Note_on_c, 1, 41, 0
3, 15960, Note_on_c, 1, 65, 0
3, 15960, Note_on_c, 1, 60, 0
3, 15960, Note_on_c, 1, 60, 118
3, 15960, Note_on_c, 1, 65, 107
3, 15960, Note_on_c, 1, 57, 121
3, 15960, Note_on_c, 1, 41, 107
3, 15960, Note_on_c, 1, 53, 107
3, 16019, Note_on_c, 1, 53, 0
3, 16019, Note_on_c, 1, 57, 0
3, 16019, Note_on_c, 1, 60, 0
3, 16019, Note_on_c, 1, 65, 0
3, 16019, Note_on_c, 1, 41, 0
3, 16020, Note_on_c, 1, 60, 115
3, 16020, Note_on_c, 1, 65, 107
3, 16020, Note_on_c, 1, 57, 115
3, 16079, Note_on_c, 1, 57, 0
3, 16079, Note_on_c, 1, 65, 0
3, 16079, Note_on_c, 1, 60, 0
3, 16080, Note_on_c, 1, 53, 121
3, 16080, Note_on_c, 1, 41, 118
3, 16139, Note_on_c, 1, 41, 0
3, 16139, Note_on_c, 1, 53, 0
3, 16140, Note_on_c, 1, 60, 121
3, 16140, Note_on_c, 1, 65, 118
3, 16140, Note_on_c, 1, 57, 118
3, 16199, Note_on_c, 1, 57, 0
3, 16199, Note_on_c, 1, 65, 0
3, 16199, Note_on_c, 1, 60, 0
3, 16200, Note_on_c, 1, 60, 121
3, 16200, Note_on_c, 1, 65, 118
3, 16200, Note_on_c, 1, 57, 118
3, 16200, Note_on_c, 1, 53, 97
3, 16200, Note_on_c, 1, 41, 115
3, 16259, Note_on_c, 1, 41, 0
3, 16259, Note_on_c, 1, 57, 0
3, 16259, Note_on_c, 1, 60, 0
3, 16259, Note_on_c, 1, 65, 0
3, 16259, Note_on_c, 1, 53, 0
3, 16260, Note_on_c, 1, 65, 97
3, 16260, Note_on_c, 1, 60, 103
3, 16260, Note_on_c, 1, 57, 97
3, 16319, Note_on_c, 1, 57, 0
3, 16319, Note_on_c, 1, 60, 0
3, 16319, Note_on_c, 1, 65, 0
3, 16320, Note_on_c, 1, 65, 121
3, 16320, Note_on_c, 1, 60, 121
3, 16320, Note_on_c, 1, 57, 118
3, 16320, Note_on_c, 1, 53, 115
3, 16320, Note_on_c, 1, 41, 118
3, 16379, Note_on_c, 1, 41, 0
3, 16379, Note_on_c, 1, 57, 0
3, 16379, Note_on_c, 1, 65, 0
3, 16379, Note_on_c, 1, 60, 0
3, 16379, Note_on_c, 1, 53, 0
3, 16440, Note_on_c, 1, 53, 115
3, 16440, Note_on_c, 1, 41, 118
3, 16440, Note_on_c, 1, 60, 118
3, 16440, Note_on_c, 1, 65, 115
3, 16440, Note_on_c, 1, 57, 115
3, 16499, Note_on_c, 1, 57, 0
3, 16499, Note_on_c, 1, 60, 0
3, 16499, Note_on_c, 1, 53, 0
3, 16499, Note_on_c, 1, 41, 0
3, 16499, Note_on_c, 1, 65, 0
3, 16500, Note_on_c, 1, 60, 115
3, 16500, Note_on_c, 1, 57, 107
3, 16500, Note_on_c, 1, 65, 115
3, 16559, Note_on_c, 1, 65, 0
3, 16559, Note_on_c, 1, 57, 0
3, 16559, Note_on_c, 1, 60, 0
3, 16560, Note_on_c, 1, 53, 118
3, 16560, Note_on_c, 1, 41, 115
3, 16619, Note_on_c, 1, 41, 0
3, 16619, Note_on_c, 1, 53, 0
3, 16620, Note_on_c, 1, 65, 107
3, 16620, Note_on_c, 1, 60, 122
3, 16620, Note_on_c, 1, 57, 118
3, 16679, Note_on_c, 1, 57, 0
3, 16679, Note_on_c, 1, 60, 0
3, 16679, Note_on_c, 1, 65, 0
3, 16680, Note_on_c, 1, 53, 103
3, 16680, Note_on_c, 1, 41, 103
3, 16680, Note_on_c, 1, 60, 107
3, 16680, Note_on_c, 1, 65, 107
3, 16680, Note_on_c, 1, 57, 107
3, 16739, Note_on_c, 1, 57, 0
3, 16739, Note_on_c, 1, 60, 0
3, 16739, Note_on_c, 1, 53, 0
3, 16739, Note_on_c, 1, 41, 0
3, 16739, Note_on_c, 1, 65, 0
3, 16740, Note_on_c, 1, 60, 107
3, 16740, Note_on_c, 1, 65, 107
3, 16740, Note_on_c, 1, 57, 115
3, 16799, Note_on_c, 1, 57, 0
3, 16799, Note_on_c, 1, 65, 0
3, 16799, Note_on_c, 1, 60, 0
3, 16800, Note_on_c, 1, 65, 115
3, 16800, Note_on_c, 1, 38, 115
3, 16800, Note_on_c, 1, 57, 115
3, 16800, Note_on_c, 1, 50, 118
3, 16800, Note_on_c, 1, 62, 121
3, 16859, Note_on_c, 1, 62, 0
3, 16859, Note_on_c, 1, 57, 0
3, 16859, Note_on_c, 1, 65, 0
3, 16859, Note_on_c, 1, 38, 0
3, 16859, Note_on_c, 1, 50, 0
3, 16920, Note_on_c, 1, 62, 118
3, 16920, Note_on_c, 1, 65, 118
3, 16920, Note_on_c, 1, 57, 115
3, 16920, Note_on_c, 1, 50, 115
3, 16920, Note_on_c, 1, 38, 107
3, 16979, Note_on_c, 1, 38, 0
3, 16979, Note_on_c, 1, 57, 0
3, 16979, Note_on_c, 1, 62, 0
3, 16979, Note_on_c, 1, 65, 0
3, 16979, Note_on_c, 1, 50, 0
3, 16980, Note_on_c, 1, 65, 115
3, 16980, Note_on_c, 1, 62, 115
3, 16980, Note_on_c, 1, 57, 103
3, 17039, Note_on_c, 1, 57, 0
3, 17039, Note_on_c, 1, 62, 0
3, 17039, Note_on_c, 1, 65, 0
3, 17040, Note_on_c, 1, 50, 118
3, 17040, Note_on_c, 1, 38, 115
3, 17099, Note_on_c, 1, 38, 0
3, 17099, Note_on_c, 1, 50, 0
3, 17100, Note_on_c, 1, 62, 107
3, 17100, Note_on_c, 1, 65, 115
3, 17100, Note_on_c, 1, 57, 103
3, 17159, Note_on_c, 1, 57, 0
3, 17159, Note_on_c, 1, 65, 0
3, 17159, Note_on_c, 1, 62, 0
3, 17160, Note_on_c, 1, 50, 107
3, 17160, Note_on_c, 1, 38, 115
3, 17160, Note_on_c, 1, 62, 103
3, 17160, Note_on_c, 1, 65, 107
3, 17160, Note_on_c, 1, 57, 97
3, 17219, Note_on_c, 1, 57, 0
3, 17219, Note_on_c, 1, 62, 0
3, 17219, Note_on_c, 1, 50, 0
3, 17219, Note_on_c, 1, 38, 0
3, 17219, Note_on_c, 1, 65, 0
3, 17220, Note_on_c, 1, 65, 107
3, 17220, Note_on_c, 1, 62, 107
3, 17220, Note_on_c, 1, 57, 107
3, 17279, Note_on_c, 1, 57, 0
3, 17279, Note_on_c, 1, 62, 0
3, 17279, Note_on_c, 1, 65, 0
3, 17280, Note_on_c, 1, 65, 118
3, 17280, Note_on_c, 1, 62, 115
3, 17280, Note_on_c, 1, 57, 118
3, 17280, Note_on_c, 1, 38, 115
3, 17280, Note_on_c, 1, 50, 115
3, 17339, Note_on_c, 1, 50, 0
3, 17339, Note_on_c, 1, 57, 0
3, 17339, Note_on_c, 1, 65, 0
3, 17339, Note_on_c, 1, 62, 0
3, 17339, Note_on_c, 1, 38, 0
3, 17400, Note_on_c, 1, 62, 103
3, 17400, Note_on_c, 1, 65, 115
3, 17400, Note_on_c, 1, 57, 93
3, 17400, Note_on_c, 1, 50, 103
3, 17400, Note_on_c, 1, 38, 103
3, 17459, Note_on_c, 1, 38, 0
3, 17459, Note_on_c, 1, 57, 0
3, 17459, Note_on_c, 1, 62, 0
3, 17459, Note_on_c, 1, 65, 0
3, 17459, Note_on_c, 1, 50, 0
3, 17460, Note_on_c, 1, 65, 107
3, 17460, Note_on_c, 1, 62, 118
3, 17460, Note_on_c, 1, 57, 115
3, 17519, Note_on_c, 1, 57, 0
3, 17519, Note_on_c, 1, 62, 0
3, 17519, Note_on_c, 1, 65, 0
3, 17520, Note_on_c, 1, 50, 115
3, 17520, Note_on_c, 1, 38, 103
3, 17579, Note_on_c, 1, 38, 0
3, 17579, Note_on_c, 1, 50, 0
3, 17580, Note_on_c, 1, 65, 97
3, 17580, Note_on_c, 1, 62, 103
3, 17580, Note_on_c, 1, 57, 103
3, 17639, Note_on_c, 1, 57, 0
3, 17639, Note_on_c, 1, 62, 0
3, 17639, Note_on_c, 1, 65, 0
3, 17640, Note_on_c, 1, 50, 103
3, 17640, Note_on_c, 1, 38, 103
3, 17640, Note_on_c, 1, 62, 103
3, 17640, Note_on_c, 1, 65, 118
3, 17640, Note_on_c, 1, 57, 103
3, 17699, Note_on_c, 1, 57, 0
3, 17699, Note_on_c, 1, 62, 0
3, 17699, Note_on_c, 1, 50, 0
3, 17699, Note_on_c, 1, 38, 0
3, 17699, Note_on_c, 1, 65, 0
3, 17700, Note_on_c, 1, 65, 115
3, 17700, Note_on_c, 1, 62, 107
3, 17700, Note_on_c, 1, 57, 93
3, 17759, Note_on_c, 1, 57, 0
3, 17759, Note_on_c, 1, 62, 0
3, 17759, Note_on_c, 1, 65, 0
3, 17760, Note_on_c, 1, 65, 103
3, 17760, Note_on_c, 1, 62, 115
3, 17760, Note_on_c, 1, 58, 121
3, 17760, Note_on_c, 1, 34, 97
3, 17760, Note_on_c, 1, 46, 103
3, 17819, Note_on_c, 1, 46, 0
3, 17819, Note_on_c, 1, 58, 0
3, 17819, Note_on_c, 1, 65, 0
3, 17819, Note_on_c, 1, 62, 0
3, 17819, Note_on_c, 1, 34, 0
3, 17880, Note_on_c, 1, 34, 103
3, 17880, Note_on_c, 1, 65, 115
3, 17880, Note_on_c, 1, 62, 103
3, 17880, Note_on_c, 1, 58, 103
3, 17880, Note_on_c, 1, 46, 107
3, 17939, Note_on_c, 1, 46, 0
3, 17939, Note_on_c, 1, 62, 0
3, 17939, Note_on_c, 1, 34, 0
3, 17939, Note_on_c, 1, 65, 0
3, 17939, Note_on_c, 1, 58, 0
3, 17940, Note_on_c, 1, 65, 97
3, 17940, Note_on_c, 1, 58, 97
3, 17940, Note_on_c, 1, 62, 103
3, 17999, Note_on_c, 1, 62, 0
3, 17999, Note_on_c, 1, 58, 0
3, 17999, Note_on_c, 1, 65, 0
3, 18000, Note_on_c, 1, 34, 107
3, 18000, Note_on_c, 1, 46, 118
3, 18059, Note_on_c, 1, 46, 0
3, 18059, Note_on_c, 1, 34, 0
3, 18060, Note_on_c, 1, 65, 115
3, 18060, Note_on_c, 1, 58, 103
3, 18060, Note_on_c, 1, 62, 115
3, 18119, Note_on_c, 1, 62, 0
3, 18119, Note_on_c, 1, 58, 0
3, 18119, Note_on_c, 1, 65, 0
3, 18120, Note_on_c, 1, 65, 115
3, 18120, Note_on_c, 1, 34, 115
3, 18120, Note_on_c, 1, 46, 107
3, 18120, Note_on_c, 1, 62, 103
3, 18120, Note_on_c, 1, 58, 115
3, 18179, Note_on_c, 1, 58, 0
3, 18179, Note_on_c, 1, 46, 0
3, 18179, Note_on_c, 1, 65, 0
3, 18179, Note_on_c, 1, 34, 0
3, 18179, Note_on_c, 1, 62, 0
3, 18180, Note_on_c, 1, 65, 103
3, 18180, Note_on_c, 1, 58, 93
3, 18180, Note_on_c, 1, 62, 103
3, 18239, Note_on_c, 1, 62, 0
3, 18239, Note_on_c, 1, 58, 0
3, 18239, Note_on_c, 1, 65, 0
3, 18240, Note_on_c, 1, 65, 107
3, 18240, Note_on_c, 1, 62, 107
3, 18240, Note_on_c, 1, 34, 115
3, 18240, Note_on_c, 1, 58, 115
3, 18240, Note_on_c, 1, 46, 121
3, 18299, Note_on_c, 1, 46, 0
3, 18299, Note_on_c, 1, 34, 0
3, 18299, Note_on_c, 1, 65, 0
3, 18299, Note_on_c, 1, 62, 0
3, 18299, Note_on_c, 1, 58, 0
3, 18360, Note_on_c, 1, 46, 107
3, 18360, Note_on_c, 1, 65, 107
3, 18360, Note_on_c, 1, 34, 115
3, 18360, Note_on_c, 1, 58, 115
3, 18360, Note_on_c, 1, 62, 107
3, 18419, Note_on_c, 1, 62, 0
3, 18419, Note_on_c, 1, 34, 0
3, 18419, Note_on_c, 1, 46, 0
3, 18419, Note_on_c, 1, 65, 0
3, 18419, Note_on_c, 1, 58, 0
3, 18420, Note_on_c, 1, 58, 103
3, 18420, Note_on_c, 1, 65, 103
3, 18420, Note_on_c, 1, 62, 97
3, 18479, Note_on_c, 1, 62, 0
3, 18479, Note_on_c, 1, 65, 0
3, 18479, Note_on_c, 1, 58, 0
3, 18480, Note_on_c, 1, 34, 115
3, 18480, Note_on_c, 1, 46, 115
3, 18480, Note_on_c, 1, 65, 107
3, 18480, Note_on_c, 1, 62, 115
3, 18480, Note_on_c, 1, 58, 115
3, 18539, Note_on_c, 1, 58, 0
3, 18539, Note_on_c, 1, 65, 0
3, 18539, Note_on_c, 1, 34, 0
3, 18539, Note_on_c, 1, 46, 0
3, 18539, Note_on_c, 1, 62, 0
3, 18540, Note_on_c, 1, 58, 107
3, 18540, Note_on_c, 1, 65, 107
3, 18540, Note_on_c, 1, 62, 103
3, 18599, Note_on_c, 1, 62, 0
3, 18599, Note_on_c, 1, 65, 0
3, 18599, Note_on_c, 1, 58, 0
3, 18600, Note_on_c, 1, 34, 118
3, 18600, Note_on_c, 1, 46, 118
3, 18659, Note_on_c, 1, 46, 0
3, 18659, Note_on_c, 1, 34, 0
3, 18660, Note_on_c, 1, 58, 97
3, 18660, Note_on_c, 1, 65, 103
3, 18660, Note_on_c, 1, 62, 103
3, 18719, Note_on_c, 1, 62, 0
3, 18719, Note_on_c, 1, 65, 0
3, 18719, Note_on_c, 1, 58, 0
3, 18720, Note_on_c, 1, 60, 118
3, 18720, Note_on_c, 1, 64, 121
3, 18720, Note_on_c, 1, 48, 91
3, 18720, Note_on_c, 1, 67, 115
3, 18720, Note_on_c, 1, 36, 97
3, 18779, Note_on_c, 1, 67, 0
3, 18779, Note_on_c, 1, 48, 0
3, 18779, Note_on_c, 1, 60, 0
3, 18779, Note_on_c, 1, 64, 0
3, 18840, Note_on_c, 1, 36, 0
3, 18840, Note_on_c, 1, 60, 121
3, 18840, Note_on_c, 1, 48, 97
3, 18840, Note_on_c, 1, 64, 118
3, 18840, Note_on_c, 1, 67, 107
3, 18840, Note_on_c, 1, 36, 107
3, 18899, Note_on_c, 1, 36, 0
3, 18899, Note_on_c, 1, 64, 0
3, 18899, Note_on_c, 1, 60, 0
3, 18899, Note_on_c, 1, 48, 0
3, 18899, Note_on_c, 1, 67, 0
3, 18900, Note_on_c, 1, 67, 107
3, 18900, Note_on_c, 1, 64, 118
3, 18900, Note_on_c, 1, 60, 115
3, 18959, Note_on_c, 1, 60, 0
3, 18959, Note_on_c, 1, 64, 0
3, 18959, Note_on_c, 1, 67, 0
3, 18960, Note_on_c, 1, 48, 103
3, 18960, Note_on_c, 1, 36, 107
3, 19019, Note_on_c, 1, 36, 0
3, 19019, Note_on_c, 1, 48, 0
3, 19020, Note_on_c, 1, 60, 118
3, 19020, Note_on_c, 1, 67, 115
3, 19020, Note_on_c, 1, 64, 121
3, 19079, Note_on_c, 1, 64, 0
3, 19079, Note_on_c, 1, 67, 0
3, 19079, Note_on_c, 1, 60, 0
3, 19080, Note_on_c, 1, 48, 115
3, 19080, Note_on_c, 1, 60, 121
3, 19080, Note_on_c, 1, 64, 121
3, 19080, Note_on_c, 1, 67, 118
3, 19080, Note_on_c, 1, 36, 118
3, 19139, Note_on_c, 1, 36, 0
3, 19139, Note_on_c, 1, 64, 0
3, 19139, Note_on_c, 1, 48, 0
3, 19139, Note_on_c, 1, 60, 0
3, 19139, Note_on_c, 1, 67, 0
3, 19200, Note_on_c, 1, 60, 118
3, 19200, Note_on_c, 1, 64, 121
3, 19200, Note_on_c, 1, 48, 91
3, 19200, Note_on_c, 1, 67, 115
3, 19200, Note_on_c, 1, 36, 97
3, 19259, Note_on_c, 1, 67, 0
3, 19259, Note_on_c, 1, 48, 0
3, 19259, Note_on_c, 1, 60, 0
3, 19259, Note_on_c, 1, 64, 0
3, 19320, Note_on_c, 1, 36, 0
3, 19320, Note_on_c, 1, 60, 121
3, 19320, Note_on_c, 1, 48, 97
3, 19320, Note_on_c, 1, 64, 118
3, 19320, Note_on_c, 1, 67, 107
3, 19320, Note_on_c, 1, 36, 107
3, 19379, Note_on_c, 1, 36, 0
3, 19379, Note_on_c, 1, 64, 0
3, 19379, Note_on_c, 1, 60, 0
3, 19379, Note_on_c, 1, 48, 0
3, 19379, Note_on_c, 1, 67, 0
3, 19380, Note_on_c, 1, 67, 107
3, 19380, Note_on_c, 1, 64, 118
3, 19380, Note_on_c, 1, 60, 115
3, 19439, Note_on_c, 1, 60, 0
3, 19439, Note_on_c, 1, 64, 0
3, 19439, Note_on_c, 1, 67, 0
3, 19440, Note_on_c, 1, 48, 103
3, 19440, Note_on_c, 1, 36, 107
3, 19499, Note_on_c, 1, 36, 0
3, 19499, Note_on_c, 1, 48, 0
3, 19500, Note_on_c, 1, 60, 118
3, 19500, Note_on_c, 1, 67, 115
3, 19500, Note_on_c, 1, 64, 121
3, 19559, Note_on_c, 1, 64, 0
3, 19559, Note_on_c, 1, 67, 0
3, 19559, Note_on_c, 1, 60, 0
3, 19560, Note_on_c, 1, 48, 115
3, 19560, Note_on_c, 1, 60, 121
3, 19560, Note_on_c, 1, 64, 121
3, 19560, Note_on_c, 1, 67, 118
3, 19560, Note_on_c, 1, 36, 118
3, 19619, Note_on_c, 1, 36, 0
3, 19619, Note_on_c, 1, 64, 0
3, 19619, Note_on_c, 1, 48, 0
3, 19619, Note_on_c, 1, 60, 0
3, 19619, Note_on_c, 1, 67, 0
3, 19680, Note_on_c, 1, 41, 115
3, 19680, Note_on_c, 1, 53, 107
3, 19680, Note_on_c, 1, 57, 118
3, 19680, Note_on_c, 1, 60, 118
3, 19680, Note_on_c, 1, 65, 118
3, 19739, Note_on_c, 1, 65, 0
3, 19739, Note_on_c, 1, 57, 0
3, 19739, Note_on_c, 1, 41, 0
3, 19739, Note_on_c, 1, 53, 0
3, 19739, Note_on_c, 1, 60, 0
3, 19800, Note_on_c, 1, 65, 118
3, 19800, Note_on_c, 1, 53, 97
3, 19800, Note_on_c, 1, 41, 107
3, 19800, Note_on_c, 1, 60, 122
3, 19800, Note_on_c, 1, 57, 118
3, 19859, Note_on_c, 1, 57, 0
3, 19859, Note_on_c, 1, 41, 0
3, 19859, Note_on_c, 1, 65, 0
3, 19859, Note_on_c, 1, 53, 0
3, 19859, Note_on_c, 1, 60, 0
3, 19920, Note_on_c, 1, 65, 121
3, 19920, Note_on_c, 1, 53, 118
3, 19920, Note_on_c, 1, 60, 121
3, 19920, Note_on_c, 1, 57, 121
3, 19920, Note_on_c, 1, 41, 118
3, 19979, Note_on_c, 1, 41, 0
3, 19979, Note_on_c, 1, 60, 0
3, 19979, Note_on_c, 1, 65, 0
3, 19979, Note_on_c, 1, 53, 0
3, 19979, Note_on_c, 1, 57, 0
3, 20040, Note_on_c, 1, 53, 93
3, 20040, Note_on_c, 1, 65, 115
3, 20040, Note_on_c, 1, 57, 121
3, 20040, Note_on_c, 1, 41, 87
3, 20040, Note_on_c, 1, 60, 121
3, 20040, Note_on_c, 1, 63, 103
3, 20099, Note_on_c, 1, 63, 0
3, 20099, Note_on_c, 1, 65, 0
3, 20099, Note_on_c, 1, 57, 0
3, 20099, Note_on_c, 1, 53, 0
3, 20099, Note_on_c, 1, 60, 0
3, 20099, Note_on_c, 1, 41, 0
3, 20100, Note_on_c, 1, 60, 97
3, 20100, Note_on_c, 1, 65, 115
3, 20100, Note_on_c, 1, 57, 97
3, 20159, Note_on_c, 1, 57, 0
3, 20159, Note_on_c, 1, 65, 0
3, 20159, Note_on_c, 1, 60, 0
3, 20160, Note_on_c, 1, 50, 103
3, 20160, Note_on_c, 1, 65, 118
3, 20160, Note_on_c, 1, 38, 107
3, 20160, Note_on_c, 1, 57, 121
3, 20160, Note_on_c, 1, 62, 121
3, 20219, Note_on_c, 1, 62, 0
3, 20219, Note_on_c, 1, 38, 0
3, 20219, Note_on_c, 1, 50, 0
3, 20219, Note_on_c, 1, 65, 0
3, 20219, Note_on_c, 1, 57, 0
3, 20220, Note_on_c, 1, 57, 91
3, 20220, Note_on_c, 1, 65, 103
3, 20220, Note_on_c, 1, 62, 107
3, 20279, Note_on_c, 1, 62, 0
3, 20279, Note_on_c, 1, 65, 0
3, 20279, Note_on_c, 1, 57, 0
3, 20280, Note_on_c, 1, 65, 118
3, 20280, Note_on_c, 1, 62, 122
3, 20280, Note_on_c, 1, 57, 121
3, 20280, Note_on_c, 1, 50, 121
3, 20280, Note_on_c, 1, 38, 118
3, 20339, Note_on_c, 1, 38, 0
3, 20339, Note_on_c, 1, 57, 0
3, 20339, Note_on_c, 1, 65, 0
3, 20339, Note_on_c, 1, 62, 0
3, 20339, Note_on_c, 1, 50, 0
3, 20340, Note_on_c, 1, 65, 118
3, 20340, Note_on_c, 1, 57, 118
3, 20340, Note_on_c, 1, 62, 121
3, 20399, Note_on_c, 1, 62, 0
3, 20399, Note_on_c, 1, 57, 0
3, 20399, Note_on_c, 1, 65, 0
3, 20400, Note_on_c, 1, 50, 118
3, 20400, Note_on_c, 1, 38, 118
3, 20459, Note_on_c, 1, 38, 0
3, 20459, Note_on_c, 1, 50, 0
3, 20460, Note_on_c, 1, 62, 115
3, 20460, Note_on_c, 1, 65, 107
3, 20460, Note_on_c, 1, 57, 115
3, 20519, Note_on_c, 1, 57, 0
3, 20519, Note_on_c, 1, 65, 0
3, 20519, Note_on_c, 1, 62, 0
3, 20520, Note_on_c, 1, 50, 118
3, 20520, Note_on_c, 1, 62, 115
3, 20520, Note_on_c, 1, 65, 107
3, 20520, Note_on_c, 1, 38, 118
3, 20520, Note_on_c, 1, 57, 103
3, 20579, Note_on_c, 1, 57, 0
3, 20579, Note_on_c, 1, 65, 0
3, 20579, Note_on_c, 1, 50, 0
3, 20579, Note_on_c, 1, 62, 0
3, 20579, Note_on_c, 1, 38, 0
3, 20580, Note_on_c, 1, 65, 107
3, 20580, Note_on_c, 1, 62, 97
3, 20580, Note_on_c, 1, 57, 97
3, 20639, Note_on_c, 1, 57, 0
3, 20639, Note_on_c, 1, 62, 0
3, 20639, Note_on_c, 1, 65, 0
3, 20640, Note_on_c, 1, 46, 97
3, 20640, Note_on_c, 1, 62, 115
3, 20640, Note_on_c, 1, 34, 107
3, 20640, Note_on_c, 1, 65, 118
3, 20640, Note_on_c, 1, 58, 122
3, 20699, Note_on_c, 1, 58, 0
3, 20699, Note_on_c, 1, 34, 0
3, 20699, Note_on_c, 1, 46, 0
3, 20699, Note_on_c, 1, 62, 0
3, 20699, Note_on_c, 1, 65, 0
3, 20760, Note_on_c, 1, 65, 103
3, 20760, Note_on_c, 1, 58, 107
3, 20760, Note_on_c, 1, 46, 103
3, 20760, Note_on_c, 1, 62, 107
3, 20760, Note_on_c, 1, 34, 107
3, 20819, Note_on_c, 1, 34, 0
3, 20819, Note_on_c, 1, 46, 0
3, 20819, Note_on_c, 1, 65, 0
3, 20819, Note_on_c, 1, 58, 0
3, 20819, Note_on_c, 1, 62, 0
3, 20820, Note_on_c, 1, 65, 103
3, 20820, Note_on_c, 1, 62, 103
3, 20820, Note_on_c, 1, 58, 107
3, 20879, Note_on_c, 1, 58, 0
3, 20879, Note_on_c, 1, 62, 0
3, 20879, Note_on_c, 1, 65, 0
3, 20880, Note_on_c, 1, 34, 118
3, 20880, Note_on_c, 1, 46, 121
3, 20939, Note_on_c, 1, 46, 0
3, 20939, Note_on_c, 1, 34, 0
3, 20940, Note_on_c, 1, 65, 93
3, 20940, Note_on_c, 1, 58, 97
3, 20940, Note_on_c, 1, 62, 107
3, 20999, Note_on_c, 1, 62, 0
3, 20999, Note_on_c, 1, 58, 0
3, 20999, Note_on_c, 1, 65, 0
3, 21000, Note_on_c, 1, 34, 115
3, 21000, Note_on_c, 1, 46, 115
3, 21000, Note_on_c, 1, 62, 107
3, 21000, Note_on_c, 1, 65, 103
3, 21000, Note_on_c, 1, 58, 103
3, 21059, Note_on_c, 1, 58, 0
3, 21059, Note_on_c, 1, 62, 0
3, 21059, Note_on_c, 1, 34, 0
3, 21059, Note_on_c, 1, 46, 0
3, 21059, Note_on_c, 1, 65, 0
3, 21060, Note_on_c, 1, 58, 93
3, 21060, Note_on_c, 1, 62, 97
3, 21060, Note_on_c, 1, 65, 91
3, 21119, Note_on_c, 1, 65, 0
3, 21119, Note_on_c, 1, 62, 0
3, 21119, Note_on_c, 1, 58, 0
3, 21120, Note_on_c, 1, 60, 115
3, 21120, Note_on_c, 1, 64, 118
3, 21120, Note_on_c, 1, 67, 115
3, 21120, Note_on_c, 1, 48, 83
3, 21120, Note_on_c, 1, 36, 97
3, 21179, Note_on_c, 1, 36, 0
3, 21179, Note_on_c, 1, 67, 0
3, 21179, Note_on_c, 1, 60, 0
3, 21179, Note_on_c, 1, 64, 0
3, 21179, Note_on_c, 1, 48, 0
3, 21240, Note_on_c, 1, 48, 83
3, 21240, Note_on_c, 1, 64, 107
3, 21240, Note_on_c, 1, 60, 115
3, 21240, Note_on_c, 1, 67, 97
3, 21240, Note_on_c, 1, 36, 97
3, 21299, Note_on_c, 1, 36, 0
3, 21299, Note_on_c, 1, 60, 0
3, 21299, Note_on_c, 1, 48, 0
3, 21299, Note_on_c, 1, 64, 0
3, 21299, Note_on_c, 1, 67, 0
3, 21300, Note_on_c, 1, 64, 103
3, 21300, Note_on_c, 1, 60, 107
3, 21300, Note_on_c, 1, 67, 103
3, 21359, Note_on_c, 1, 67, 0
3, 21359, Note_on_c, 1, 60, 0
3, 21359, Note_on_c, 1, 64, 0
3, 21360, Note_on_c, 1, 48, 103
3, 21360, Note_on_c, 1, 36, 107
3, 21419, Note_on_c, 1, 36, 0
3, 21419, Note_on_c, 1, 48, 0
3, 21420, Note_on_c, 1, 67, 97
3, 21420, Note_on_c, 1, 60, 103
3, 21420, Note_on_c, 1, 64, 103
3, 21479, Note_on_c, 1, 64, 0
3, 21479, Note_on_c, 1, 60, 0
3, 21479, Note_on_c, 1, 67, 0
3, 21480, Note_on_c, 1, 64, 115
3, 21480, Note_on_c, 1, 67, 115
3, 21480, Note_on_c, 1, 60, 115
3, 21480, Note_on_c, 1, 48, 93
3, 21480, Note_on_c, 1, 36, 103
3, 21539, Note_on_c, 1, 36, 0
3, 21539, Note_on_c, 1, 60, 0
3, 21539, Note_on_c, 1, 64, 0
3, 21539, Note_on_c, 1, 67, 0
3, 21539, Note_on_c, 1, 48, 0
3, 21540, Note_on_c, 1, 67, 107
3, 21540, Note_on_c, 1, 60, 97
3, 21540, Note_on_c, 1, 64, 97
3, 21599, Note_on_c, 1, 64, 0
3, 21599, Note_on_c, 1, 60, 0
3, 21599, Note_on_c, 1, 67, 0
3, 21600, Note_on_c, 1, 65, 107
3, 21600, Note_on_c, 1, 60, 118
3, 21600, Note_on_c, 1, 57, 115
3, 21600, Note_on_c, 1, 41, 93
3, 21600, Note_on_c, 1, 53, 75
3, 21659, Note_on_c, 1, 53, 0
3, 21659, Note_on_c, 1, 57, 0
3, 21659, Note_on_c, 1, 65, 0
3, 21659, Note_on_c, 1, 60, 0
3, 21659, Note_on_c, 1, 41, 0
3, 21720, Note_on_c, 1, 65, 103
3, 21720, Note_on_c, 1, 60, 118
3, 21720, Note_on_c, 1, 57, 103
3, 21720, Note_on_c, 1, 53, 103
3, 21720, Note_on_c, 1, 41, 107
3, 21779, Note_on_c, 1, 41, 0
3, 21779, Note_on_c, 1, 57, 0
3, 21779, Note_on_c, 1, 65, 0
3, 21779, Note_on_c, 1, 60, 0
3, 21779, Note_on_c, 1, 53, 0
3, 21780, Note_on_c, 1, 60, 122
3, 21780, Note_on_c, 1, 65, 118
3, 21780, Note_on_c, 1, 57, 118
3, 21839, Note_on_c, 1, 57, 0
3, 21839, Note_on_c, 1, 65, 0
3, 21839, Note_on_c, 1, 60, 0
3, 21840, Note_on_c, 1, 53, 115
3, 21840, Note_on_c, 1, 41, 115
3, 21899, Note_on_c, 1, 41, 0
3, 21899, Note_on_c, 1, 53, 0
3, 21900, Note_on_c, 1, 65, 107
3, 21900, Note_on_c, 1, 60, 118
3, 21900, Note_on_c, 1, 57, 115
3, 21959, Note_on_c, 1, 57, 0
3, 21959, Note_on_c, 1, 60, 0
3, 21959, Note_on_c, 1, 65, 0
3, 21960, Note_on_c, 1, 53, 103
3, 21960, Note_on_c, 1, 41, 107
3, 21960, Note_on_c, 1, 60, 121
3, 21960, Note_on_c, 1, 65, 115
3, 21960, Note_on_c, 1, 57, 118
3, 22019, Note_on_c, 1, 57, 0
3, 22019, Note_on_c, 1, 60, 0
3, 22019, Note_on_c, 1, 53, 0
3, 22019, Note_on_c, 1, 41, 0
3, 22019, Note_on_c, 1, 65, 0
3, 22020, Note_on_c, 1, 65, 103
3, 22020, Note_on_c, 1, 60, 97
3, 22020, Note_on_c, 1, 57, 97
3, 22079, Note_on_c, 1, 57, 0
3, 22079, Note_on_c, 1, 60, 0
3, 22079, Note_on_c, 1, 65, 0
3, 22080, Note_on_c, 1, 65, 118
3, 22080, Note_on_c, 1, 50, 91
3, 22080, Note_on_c, 1, 57, 115
3, 22080, Note_on_c, 1, 62, 118
3, 22080, Note_on_c, 1, 38, 91
3, 22139, Note_on_c, 1, 38, 0
3, 22139, Note_on_c, 1, 57, 0
3, 22139, Note_on_c, 1, 65, 0
3, 22139, Note_on_c, 1, 50, 0
3, 22139, Note_on_c, 1, 62, 0
3, 22200, Note_on_c, 1, 65, 93
3, 22200, Note_on_c, 1, 57, 115
3, 22200, Note_on_c, 1, 62, 115
3, 22200, Note_on_c, 1, 50, 97
3, 22200, Note_on_c, 1, 38, 103
3, 22259, Note_on_c, 1, 38, 0
3, 22259, Note_on_c, 1, 62, 0
3, 22259, Note_on_c, 1, 65, 0
3, 22259, Note_on_c, 1, 57, 0
3, 22259, Note_on_c, 1, 50, 0
3, 22260, Note_on_c, 1, 65, 107
3, 22260, Note_on_c, 1, 62, 118
3, 22260, Note_on_c, 1, 57, 115
3, 22319, Note_on_c, 1, 57, 0
3, 22319, Note_on_c, 1, 62, 0
3, 22319, Note_on_c, 1, 65, 0
3, 22320, Note_on_c, 1, 50, 107
3, 22320, Note_on_c, 1, 38, 103
3, 22379, Note_on_c, 1, 38, 0
3, 22379, Note_on_c, 1, 50, 0
3, 22380, Note_on_c, 1, 65, 107
3, 22380, Note_on_c, 1, 57, 107
3, 22380, Note_on_c, 1, 62, 121
3, 22439, Note_on_c, 1, 62, 0
3, 22439, Note_on_c, 1, 57, 0
3, 22439, Note_on_c, 1, 65, 0
3, 22440, Note_on_c, 1, 65, 103
3, 22440, Note_on_c, 1, 57, 107
3, 22440, Note_on_c, 1, 62, 118
3, 22440, Note_on_c, 1, 50, 115
3, 22440, Note_on_c, 1, 38, 93
3, 22499, Note_on_c, 1, 38, 0
3, 22499, Note_on_c, 1, 62, 0
3, 22499, Note_on_c, 1, 65, 0
3, 22499, Note_on_c, 1, 57, 0
3, 22499, Note_on_c, 1, 50, 0
3, 22500, Note_on_c, 1, 65, 107
3, 22500, Note_on_c, 1, 57, 87
3, 22500, Note_on_c, 1, 62, 103
3, 22559, Note_on_c, 1, 62, 0
3, 22559, Note_on_c, 1, 57, 0
3, 22559, Note_on_c, 1, 65, 0
3, 22560, Note_on_c, 1, 46, 97
3, 22560, Note_on_c, 1, 34, 93
3, 22560, Note_on_c, 1, 65, 107
3, 22560, Note_on_c, 1, 62, 107
3, 22560, Note_on_c, 1, 58, 122
3, 22619, Note_on_c, 1, 58, 0
3, 22619, Note_on_c, 1, 65, 0
3, 22619, Note_on_c, 1, 46, 0
3, 22619, Note_on_c, 1, 34, 0
3, 22619, Note_on_c, 1, 62, 0
3, 22680, Note_on_c, 1, 65, 107
3, 22680, Note_on_c, 1, 46, 93
3, 22680, Note_on_c, 1, 34, 97
3, 22680, Note_on_c, 1, 62, 103
3, 22680, Note_on_c, 1, 58, 107
3, 22739, Note_on_c, 1, 58, 0
3, 22739, Note_on_c, 1, 34, 0
3, 22739, Note_on_c, 1, 65, 0
3, 22739, Note_on_c, 1, 46, 0
3, 22739, Note_on_c, 1, 62, 0
3, 22740, Note_on_c, 1, 65, 107
3, 22740, Note_on_c, 1, 58, 107
3, 22740, Note_on_c, 1, 62, 107
3, 22799, Note_on_c, 1, 62, 0
3, 22799, Note_on_c, 1, 58, 0
3, 22799, Note_on_c, 1, 65, 0
3, 22800, Note_on_c, 1, 34, 118
3, 22800, Note_on_c, 1, 46, 118
3, 22859, Note_on_c, 1, 46, 0
3, 22859, Note_on_c, 1, 34, 0
3, 22860, Note_on_c, 1, 65, 115
3, 22860, Note_on_c, 1, 62, 107
3, 22860, Note_on_c, 1, 58, 115
3, 22919, Note_on_c, 1, 58, 0
3, 22919, Note_on_c, 1, 62, 0
3, 22919, Note_on_c, 1, 65, 0
3, 22920, Note_on_c, 1, 46, 107
3, 22920, Note_on_c, 1, 34, 107
3, 22920, Note_on_c, 1, 65, 107
3, 22920, Note_on_c, 1, 58, 103
3, 22920, Note_on_c, 1, 62, 107
3, 22979, Note_on_c, 1, 62, 0
3, 22979, Note_on_c, 1, 65, 0
3, 22979, Note_on_c, 1, 46, 0
3, 22979, Note_on_c, 1, 34, 0
3, 22979, Note_on_c, 1, 58, 0
3, 22980, Note_on_c, 1, 65, 103
3, 22980, Note_on_c, 1, 58, 91
3, 22980, Note_on_c, 1, 62, 97
3, 23039, Note_on_c, 1, 62, 0
3, 23039, Note_on_c, 1, 58, 0
3, 23039, Note_on_c, 1, 65, 0
3, 23040, Note_on_c, 1, 60, 118
3, 23040, Note_on_c, 1, 64, 118
3, 23040, Note_on_c, 1, 67, 103
3, 23040, Note_on_c, 1, 48, 77
3, 23040, Note_on_c, 1, 36, 93
3, 23099, Note_on_c, 1, 36, 0
3, 23099, Note_on_c, 1, 67, 0
3, 23099, Note_on_c, 1, 60, 0
3, 23099, Note_on_c, 1, 64, 0
3, 23099, Note_on_c, 1, 48, 0
3, 23160, Note_on_c, 1, 60, 107
3, 23160, Note_on_c, 1, 64, 103
3, 23160, Note_on_c, 1, 67, 103
3, 23160, Note_on_c, 1, 36, 93
3, 23160, Note_on_c, 1, 48, 97
3, 23219, Note_on_c, 1, 48, 0
3, 23219, Note_on_c, 1, 67, 0
3, 23219, Note_on_c, 1, 60, 0
3, 23219, Note_on_c, 1, 64, 0
3, 23219, Note_on_c, 1, 36, 0
3, 23220, Note_on_c, 1, 64, 115
3, 23220, Note_on_c, 1, 60, 118
3, 23220, Note_on_c, 1, 67, 103
3, 23279, Note_on_c, 1, 67, 0
3, 23279, Note_on_c, 1, 60, 0
3, 23279, Note_on_c, 1, 64, 0
3, 23280, Note_on_c, 1, 48, 115
3, 23280, Note_on_c, 1, 36, 115
3, 23339, Note_on_c, 1, 36, 0
3, 23339, Note_on_c, 1, 48, 0
3, 23340, Note_on_c, 1, 64, 118
3, 23340, Note_on_c, 1, 67, 115
3, 23340, Note_on_c, 1, 60, 121
3, 23399, Note_on_c, 1, 60, 0
3, 23399, Note_on_c, 1, 67, 0
3, 23399, Note_on_c, 1, 64, 0
3, 23400, Note_on_c, 1, 64, 115
3, 23400, Note_on_c, 1, 48, 103
3, 23400, Note_on_c, 1, 36, 107
3, 23400, Note_on_c, 1, 60, 118
3, 23400, Note_on_c, 1, 67, 107
3, 23459, Note_on_c, 1, 67, 0
3, 23459, Note_on_c, 1, 36, 0
3, 23459, Note_on_c, 1, 64, 0
3, 23459, Note_on_c, 1, 48, 0
3, 23459, Note_on_c, 1, 60, 0
3, 23460, Note_on_c, 1, 67, 103
3, 23460, Note_on_c, 1, 64, 107
3, 23460, Note_on_c, 1, 60, 115
3, 23519, Note_on_c, 1, 60, 0
3, 23519, Note_on_c, 1, 64, 0
3, 23519, Note_on_c, 1, 67, 0
3, 23520, Note_on_c, 1, 41, 115
3, 23520, Note_on_c, 1, 65, 121
3, 23520, Note_on_c, 1, 53, 107
3, 23520, Note_on_c, 1, 57, 121
3, 23520, Note_on_c, 1, 60, 121
3, 23579, Note_on_c, 1, 57, 0
3, 23579, Note_on_c, 1, 53, 0
3, 23579, Note_on_c, 1, 41, 0
3, 23640, Note_on_c, 1, 65, 0
3, 23640, Note_on_c, 1, 60, 0
3, 23640, Note_on_c, 1, 60, 118
3, 23640, Note_on_c, 1, 65, 107
3, 23640, Note_on_c, 1, 57, 121
3, 23640, Note_on_c, 1, 41, 107
3, 23640, Note_on_c, 1, 53, 107
3, 23699, Note_on_c, 1, 53, 0
3, 23699, Note_on_c, 1, 57, 0
3, 23699, Note_on_c, 1, 60, 0
3, 23699, Note_on_c, 1, 65, 0
3, 23699, Note_on_c, 1, 41, 0
3, 23700, Note_on_c, 1, 60, 115
3, 23700, Note_on_c, 1, 65, 107
3, 23700, Note_on_c, 1, 57, 115
3, 23759, Note_on_c, 1, 57, 0
3, 23759, Note_on_c, 1, 65, 0
3, 23759, Note_on_c, 1, 60, 0
3, 23760, Note_on_c, 1, 53, 121
3, 23760, Note_on_c, 1, 41, 118
3, 23819, Note_on_c, 1, 41, 0
3, 23819, Note_on_c, 1, 53, 0
3, 23820, Note_on_c, 1, 60, 121
3, 23820, Note_on_c, 1, 65, 118
3, 23820, Note_on_c, 1, 57, 118
3, 23879, Note_on_c, 1, 57, 0
3, 23879, Note_on_c, 1, 65, 0
3, 23879, Note_on_c, 1, 60, 0
3, 23880, Note_on_c, 1, 60, 121
3, 23880, Note_on_c, 1, 65, 118
3, 23880, Note_on_c, 1, 57, 118
3, 23880, Note_on_c, 1, 53, 97
3, 23880, Note_on_c, 1, 41, 115
3, 23939, Note_on_c, 1, 41, 0
3, 23939, Note_on_c, 1, 57, 0
3, 23939, Note_on_c, 1, 60, 0
3, 23939, Note_on_c, 1, 65, 0
3, 23939, Note_on_c, 1, 53, 0
3, 23940, Note_on_c, 1, 65, 97
3, 23940, Note_on_c, 1, 60, 103
3, 23940, Note_on_c, 1, 57, 97
3, 23999, Note_on_c, 1, 57, 0
3, 23999, Note_on_c, 1, 60, 0
3, 23999, Note_on_c, 1, 65, 0
3, 24000, Note_on_c, 1, 65, 121
3, 24000, Note_on_c, 1, 60, 121
3, 24000, Note_on_c, 1, 57, 118
3, 24000, Note_on_c, 1, 53, 115
3, 24000, Note_on_c, 1, 41, 118
3, 24059, Note_on_c, 1, 41, 0
3, 24059, Note_on_c, 1, 57, 0
3, 24059, Note_on_c, 1, 65, 0
3, 24059, Note_on_c, 1, 60, 0
3, 24059, Note_on_c, 1, 53, 0
3, 24120, Note_on_c, 1, 53, 115
3, 24120, Note_on_c, 1, 41, 118
3, 24120, Note_on_c, 1, 60, 118
3, 24120, Note_on_c, 1, 65, 115
3, 24120, Note_on_c, 1, 57, 115
3, 24179, Note_on_c, 1, 57, 0
3, 24179, Note_on_c, 1, 60, 0
3, 24179, Note_on_c, 1, 53, 0
3, 24179, Note_on_c, 1, 41, 0
3, 24179, Note_on_c, 1, 65, 0
3, 24180, Note_on_c, 1, 60, 115
3, 24180, Note_on_c, 1, 57, 107
3, 24180, Note_on_c, 1, 65, 115
3, 24239, Note_on_c, 1, 65, 0
3, 24239, Note_on_c, 1, 57, 0
3, 24239, Note_on_c, 1, 60, 0
3, 24240, Note_on_c, 1, 53, 118
3, 24240, Note_on_c, 1, 41, 115
3, 24299, Note_on_c, 1, 41, 0
3, 24299, Note_on_c, 1, 53, 0
3, 24300, Note_on_c, 1, 65, 107
3, 24300, Note_on_c, 1, 60, 122
3, 24300, Note_on_c, 1, 57, 118
3, 24359, Note_on_c, 1, 57, 0
3, 24359, Note_on_c, 1, 60, 0
3, 24359, Note_on_c, 1, 65, 0
3, 24360, Note_on_c, 1, 53, 103
3, 24360, Note_on_c, 1, 41, 103
3, 24360, Note_on_c, 1, 60, 107
3, 24360, Note_on_c, 1, 65, 107
3, 24360, Note_on_c, 1, 57, 107
3, 24419, Note_on_c, 1, 57, 0
3, 24419, Note_on_c, 1, 60, 0
3, 24419, Note_on_c, 1, 53, 0
3, 24419, Note_on_c, 1, 41, 0
3, 24419, Note_on_c, 1, 65, 0
3, 24420, Note_on_c, 1, 60, 107
3, 24420, Note_on_c, 1, 65, 107
3, 24420, Note_on_c, 1, 57, 115
3, 24479, Note_on_c, 1, 57, 0
3, 24479, Note_on_c, 1, 65, 0
3, 24479, Note_on_c, 1, 60, 0
3, 24480, Note_on_c, 1, 65, 115
3, 24480, Note_on_c, 1, 38, 115
3, 24480, Note_on_c, 1, 57, 115
3, 24480, Note_on_c, 1, 50, 118
3, 24480, Note_on_c, 1, 62, 121
3, 24539, Note_on_c, 1, 62, 0
3, 24539, Note_on_c, 1, 57, 0
3, 24539, Note_on_c, 1, 65, 0
3, 24539, Note_on_c, 1, 38, 0
3, 24539, Note_on_c, 1, 50, 0
3, 24600, Note_on_c, 1, 62, 118
3, 24600, Note_on_c, 1, 65, 118
3, 24600, Note_on_c, 1, 57, 115
3, 24600, Note_on_c, 1, 50, 115
3, 24600, Note_on_c, 1, 38, 107
3, 24659, Note_on_c, 1, 38, 0
3, 24659, Note_on_c, 1, 57, 0
3, 24659, Note_on_c, 1, 62, 0
3, 24659, Note_on_c, 1, 65, 0
3, 24659, Note_on_c, 1, 50, 0
3, 24660, Note_on_c, 1, 65, 115
3, 24660, Note_on_c, 1, 62, 115
3, 24660, Note_on_c, 1, 57, 103
3, 24719, Note_on_c, 1, 57, 0
3, 24719, Note_on_c, 1, 62, 0
3, 24719, Note_on_c, 1, 65, 0
3, 24720, Note_on_c, 1, 50, 118
3, 24720, Note_on_c, 1, 38, 115
3, 24779, Note_on_c, 1, 38, 0
3, 24779, Note_on_c, 1, 50, 0
3, 24780, Note_on_c, 1, 62, 107
3, 24780, Note_on_c, 1, 65, 115
3, 24780, Note_on_c, 1, 57, 103
3, 24839, Note_on_c, 1, 57, 0
3, 24839, Note_on_c, 1, 65, 0
3, 24839, Note_on_c, 1, 62, 0
3, 24840, Note_on_c, 1, 50, 107
3, 24840, Note_on_c, 1, 38, 115
3, 24840, Note_on_c, 1, 62, 103
3, 24840, Note_on_c, 1, 65, 107
3, 24840, Note_on_c, 1, 57, 97
3, 24899, Note_on_c, 1, 57, 0
3, 24899, Note_on_c, 1, 62, 0
3, 24899, Note_on_c, 1, 50, 0
3, 24899, Note_on_c, 1, 38, 0
3, 24899, Note_on_c, 1, 65, 0
3, 24900, Note_on_c, 1, 65, 107
3, 24900, Note_on_c, 1, 62, 107
3, 24900, Note_on_c, 1, 57, 107
3, 24959, Note_on_c, 1, 57, 0
3, 24959, Note_on_c, 1, 62, 0
3, 24959, Note_on_c, 1, 65, 0
3, 24960, Note_on_c, 1, 65, 118
3, 24960, Note_on_c, 1, 62, 115
3, 24960, Note_on_c, 1, 57, 118
3, 24960, Note_on_c, 1, 38, 115
3, 24960, Note_on_c, 1, 50, 115
3, 25019, Note_on_c, 1, 50, 0
3, 25019, Note_on_c, 1, 57, 0
3, 25019, Note_on_c, 1, 65, 0
3, 25019, Note_on_c, 1, 62, 0
3, 25019, Note_on_c, 1, 38, 0
3, 25080, Note_on_c, 1, 62, 103
3, 25080, Note_on_c, 1, 65, 115
3, 25080, Note_on_c, 1, 57, 93
3, 25080, Note_on_c, 1, 50, 103
3, 25080, Note_on_c, 1, 38, 103
3, 25139, Note_on_c, 1, 38, 0
3, 25139, Note_on_c, 1, 57, 0
3, 25139, Note_on_c, 1, 62, 0
3, 25139, Note_on_c, 1, 65, 0
3, 25139, Note_on_c, 1, 50, 0
3, 25140, Note_on_c, 1, 65, 107
3, 25140, Note_on_c, 1, 62, 118
3, 25140, Note_on_c, 1, 57, 115
3, 25199, Note_on_c, 1, 57, 0
3, 25199, Note_on_c, 1, 62, 0
3, 25199, Note_on_c, 1, 65, 0
3, 25200, Note_on_c, 1, 50, 115
3, 25200, Note_on_c, 1, 38, 103
3, 25259, Note_on_c, 1, 38, 0
3, 25259, Note_on_c, 1, 50, 0
3, 25260, Note_on_c, 1, 65, 97
3, 25260, Note_on_c, 1, 62, 103
3, 25260, Note_on_c, 1, 57, 103
3, 25319, Note_on_c, 1, 57, 0
3, 25319, Note_on_c, 1, 62, 0
3, 25319, Note_on_c, 1, 65, 0
3, 25320, Note_on_c, 1, 50, 103
3, 25320, Note_on_c, 1, 38, 103
3, 25320, Note_on_c, 1, 62, 103
3, 25320, Note_on_c, 1, 65, 118
3, 25320, Note_on_c, 1, 57, 103
3, 25379, Note_on_c, 1, 57, 0
3, 25379, Note_on_c, 1, 62, 0
3, 25379, Note_on_c, 1, 50, 0
3, 25379, Note_on_c, 1, 38, 0
3, 25379, Note_on_c, 1, 65, 0
3, 25380, Note_on_c, 1, 65, 115
3, 25380, Note_on_c, 1, 62, 107
3, 25380, Note_on_c, 1, 57, 93
3, 25439, Note_on_c, 1, 57, 0
3, 25439, Note_on_c, 1, 62, 0
3, 25439, Note_on_c, 1, 65, 0
3, 25440, Note_on_c, 1, 65, 103
3, 25440, Note_on_c, 1, 62, 115
3, 25440, Note_on_c, 1, 58, 121
3, 25440, Note_on_c, 1, 34, 97
3, 25440, Note_on_c, 1, 46, 103
3, 25499, Note_on_c, 1, 46, 0
3, 25499, Note_on_c, 1, 58, 0
3, 25499, Note_on_c, 1, 65, 0
3, 25499, Note_on_c, 1, 62, 0
3, 25499, Note_on_c, 1, 34, 0
3, 25560, Note_on_c, 1, 34, 103
3, 25560, Note_on_c, 1, 65, 115
3, 25560, Note_on_c, 1, 62, 103
3, 25560, Note_on_c, 1, 58, 103
3, 25560, Note_on_c, 1, 46, 107
3, 25619, Note_on_c, 1, 46, 0
3, 25619, Note_on_c, 1, 62, 0
3, 25619, Note_on_c, 1, 34, 0
3, 25619, Note_on_c, 1, 65, 0
3, 25619, Note_on_c, 1, 58, 0
3, 25620, Note_on_c, 1, 65, 97
3, 25620, Note_on_c, 1, 58, 97
3, 25620, Note_on_c, 1, 62, 103
3, 25679, Note_on_c, 1, 62, 0
3, 25679, Note_on_c, 1, 58, 0
3, 25679, Note_on_c, 1, 65, 0
3, 25680, Note_on_c, 1, 34, 107
3, 25680, Note_on_c, 1, 46, 118
3, 25739, Note_on_c, 1, 46, 0
3, 25739, Note_on_c, 1, 34, 0
3, 25740, Note_on_c, 1, 65, 115
3, 25740, Note_on_c, 1, 58, 103
3, 25740, Note_on_c, 1, 62, 115
3, 25799, Note_on_c, 1, 62, 0
3, 25799, Note_on_c, 1, 58, 0
3, 25799, Note_on_c, 1, 65, 0
3, 25800, Note_on_c, 1, 65, 115
3, 25800, Note_on_c, 1, 34, 115
3, 25800, Note_on_c, 1, 46, 107
3, 25800, Note_on_c, 1, 62, 103
3, 25800, Note_on_c, 1, 58, 115
3, 25859, Note_on_c, 1, 58, 0
3, 25859, Note_on_c, 1, 46, 0
3, 25859, Note_on_c, 1, 65, 0
3, 25859, Note_on_c, 1, 34, 0
3, 25859, Note_on_c, 1, 62, 0
3, 25860, Note_on_c, 1, 65, 103
3, 25860, Note_on_c, 1, 58, 93
3, 25860, Note_on_c, 1, 62, 103
3, 25919, Note_on_c, 1, 62, 0
3, 25919, Note_on_c, 1, 58, 0
3, 25919, Note_on_c, 1, 65, 0
3, 25920, Note_on_c, 1, 65, 107
3, 25920, Note_on_c, 1, 62, 107
3, 25920, Note_on_c, 1, 34, 115
3, 25920, Note_on_c, 1, 58, 115
3, 25920, Note_on_c, 1, 46, 121
3, 25979, Note_on_c, 1, 46, 0
3, 25979, Note_on_c, 1, 34, 0
3, 25979, Note_on_c, 1, 65, 0
3, 25979, Note_on_c, 1, 62, 0
3, 25979, Note_on_c, 1, 58, 0
3, 26040, Note_on_c, 1, 46, 107
3, 26040, Note_on_c, 1, 65, 107
3, 26040, Note_on_c, 1, 34, 115
3, 26040, Note_on_c, 1, 58, 115
3, 26040, Note_on_c, 1, 62, 107
3, 26099, Note_on_c, 1, 62, 0
3, 26099, Note_on_c, 1, 34, 0
3, 26099, Note_on_c, 1, 46, 0
3, 26099, Note_on_c, 1, 65, 0
3, 26099, Note_on_c, 1, 58, 0
3, 26100, Note_on_c, 1, 58, 103
3, 26100, Note_on_c, 1, 65, 103
3, 26100, Note_on_c, 1, 62, 97
3, 26159, Note_on_c, 1, 62, 0
3, 26159, Note_on_c, 1, 65, 0
3, 26159, Note_on_c, 1, 58, 0
3, 26160, Note_on_c, 1, 34, 115
3, 26160, Note_on_c, 1, 46, 115
3, 26160, Note_on_c, 1, 65, 107
3, 26160, Note_on_c, 1, 62, 115
3, 26160, Note_on_c, 1, 58, 115
3, 26219, Note_on_c, 1, 58, 0
3, 26219, Note_on_c, 1, 65, 0
3, 26219, Note_on_c, 1, 34, 0
3, 26219, Note_on_c, 1, 46, 0
3, 26219, Note_on_c, 1, 62, 0
3, 26220, Note_on_c, 1, 58, 107
3, 26220, Note_on_c, 1, 65, 107
3, 26220, Note_on_c, 1, 62, 103
3, 26279, Note_on_c, 1, 62, 0
3, 26279, Note_on_c, 1, 65, 0
3, 26279, Note_on_c, 1, 58, 0
3, 26280, Note_on_c, 1, 34, 118
3, 26280, Note_on_c, 1, 46, 118
3, 26339, Note_on_c, 1, 46, 0
3, 26339, Note_on_c, 1, 34, 0
3, 26340, Note_on_c, 1, 58, 97
3, 26340, Note_on_c, 1, 65, 103
3, 26340, Note_on_c, 1, 62, 103
3, 26399, Note_on_c, 1, 62, 0
3, 26399, Note_on_c, 1, 65, 0
3, 26399, Note_on_c, 1, 58, 0
3, 26400, Note_on_c, 1, 60, 118
3, 26400, Note_on_c, 1, 64, 121
3, 26400, Note_on_c, 1, 48, 91
3, 26400, Note_on_c, 1, 67, 115
3, 26400, Note_on_c, 1, 36, 97
3, 26459, Note_on_c, 1, 67, 0
3, 26459, Note_on_c, 1, 48, 0
3, 26459, Note_on_c, 1, 60, 0
3, 26459, Note_on_c, 1, 64, 0
3, 26520, Note_on_c, 1, 36, 0
3, 26520, Note_on_c, 1, 60, 121
3, 26520, Note_on_c, 1, 48, 97
3, 26520, Note_on_c, 1, 64, 118
3, 26520, Note_on_c, 1, 67, 107
3, 26520, Note_on_c, 1, 36, 107
3, 26579, Note_on_c, 1, 36, 0
3, 26579, Note_on_c, 1, 64, 0
3, 26579, Note_on_c, 1, 60, 0
3, 26579, Note_on_c, 1, 48, 0
3, 26579, Note_on_c, 1, 67, 0
3, 26580, Note_on_c, 1, 67, 107
3, 26580, Note_on_c, 1, 64, 118
3, 26580, Note_on_c, 1, 60, 115
3, 26639, Note_on_c, 1, 60, 0
3, 26639, Note_on_c, 1, 64, 0
3, 26639, Note_on_c, 1, 67, 0
3, 26640, Note_on_c, 1, 48, 103
3, 26640, Note_on_c, 1, 36, 107
3, 26699, Note_on_c, 1, 36, 0
3, 26699, Note_on_c, 1, 48, 0
3, 26700, Note_on_c, 1, 60, 118
3, 26700, Note_on_c, 1, 67, 115
3, 26700, Note_on_c, 1, 64, 121
3, 26759, Note_on_c, 1, 64, 0
3, 26759, Note_on_c, 1, 67, 0
3, 26759, Note_on_c, 1, 60, 0
3, 26760, Note_on_c, 1, 48, 115
3, 26760, Note_on_c, 1, 60, 121
3, 26760, Note_on_c, 1, 64, 121
3, 26760, Note_on_c, 1, 67, 118
3, 26760, Note_on_c, 1, 36, 118
3, 26819, Note_on_c, 1, 36, 0
3, 26819, Note_on_c, 1, 64, 0
3, 26819, Note_on_c, 1, 48, 0
3, 26819, Note_on_c, 1, 60, 0
3, 26819, Note_on_c, 1, 67, 0
3, 26880, Note_on_c, 1, 60, 118
3, 26880, Note_on_c, 1, 64, 121
3, 26880, Note_on_c, 1, 48, 91
3, 26880, Note_on_c, 1, 67, 115
3, 26880, Note_on_c, 1, 36, 97
3, 26939, Note_on_c, 1, 67, 0
3, 26939, Note_on_c, 1, 48, 0
3, 26939, Note_on_c, 1, 60, 0
3, 26939, Note_on_c, 1, 64, 0
3, 27000, Note_on_c, 1, 36, 0
3, 27000, Note_on_c, 1, 60, 121
3, 27000, Note_on_c, 1, 48, 97
3, 27000, Note_on_c, 1, 64, 118
3, 27000, Note_on_c, 1, 67, 107
3, 27000, Note_on_c, 1, 36, 107
3, 27059, Note_on_c, 1, 36, 0
3, 27059, Note_on_c, 1, 64, 0
3, 27059, Note_on_c, 1, 60, 0
3, 27059, Note_on_c, 1, 48, 0
3, 27059, Note_on_c, 1, 67, 0
3, 27060, Note_on_c, 1, 67, 107
3, 27060, Note_on_c, 1, 64, 118
3, 27060, Note_on_c, 1, 60, 115
3, 27119, Note_on_c, 1, 60, 0
3, 27119, Note_on_c, 1, 64, 0
3, 27119, Note_on_c, 1, 67, 0
3, 27120, Note_on_c, 1, 48, 103
3, 27120, Note_on_c, 1, 36, 107
3, 27179, Note_on_c, 1, 36, 0
3, 27179, Note_on_c, 1, 48, 0
3, 27180, Note_on_c, 1, 60, 118
3, 27180, Note_on_c, 1, 67, 115
3, 27180, Note_on_c, 1, 64, 121
3, 27239, Note_on_c, 1, 64, 0
3, 27239, Note_on_c, 1, 67, 0
3, 27239, Note_on_c, 1, 60, 0
3, 27240, Note_on_c, 1, 48, 115
3, 27240, Note_on_c, 1, 60, 121
3, 27240, Note_on_c, 1, 64, 121
3, 27240, Note_on_c, 1, 67, 118
3, 27240, Note_on_c, 1, 36, 118
3, 27299, Note_on_c, 1, 36, 0
3, 27299, Note_on_c, 1, 64, 0
3, 27299, Note_on_c, 1, 48, 0
3, 27299, Note_on_c, 1, 60, 0
3, 27299, Note_on_c, 1, 67, 0
3, 27360, Note_on_c, 1, 41, 115
3, 27360, Note_on_c, 1, 53, 107
3, 27360, Note_on_c, 1, 57, 118
3, 27360, Note_on_c, 1, 60, 118
3, 27360, Note_on_c, 1, 65, 118
3, 27419, Note_on_c, 1, 65, 0
3, 27419, Note_on_c, 1, 57, 0
3, 27419, Note_on_c, 1, 41, 0
3, 27419, Note_on_c, 1, 53, 0
3, 27419, Note_on_c, 1, 60, 0
3, 27480, Note_on_c, 1, 65, 118
3, 27480, Note_on_c, 1, 53, 97
3, 27480, Note_on_c, 1, 41, 107
3, 27480, Note_on_c, 1, 60, 122
3, 27480, Note_on_c, 1, 57, 118
3, 27539, Note_on_c, 1, 57, 0
3, 27539, Note_on_c, 1, 41, 0
3, 27539, Note_on_c, 1, 65, 0
3, 27539, Note_on_c, 1, 53, 0
3, 27539, Note_on_c, 1, 60, 0
3, 27600, Note_on_c, 1, 65, 121
3, 27600, Note_on_c, 1, 53, 118
3, 27600, Note_on_c, 1, 60, 121
3, 27600, Note_on_c, 1, 57, 121
3, 27600, Note_on_c, 1, 41, 118
3, 27659, Note_on_c, 1, 41, 0
3, 27659, Note_on_c, 1, 60, 0
3, 27659, Note_on_c, 1, 65, 0
3, 27659, Note_on_c, 1, 53, 0
3, 27659, Note_on_c, 1, 57, 0
3, 27720, Note_on_c, 1, 53, 93
3, 27720, Note_on_c, 1, 65, 115
3, 27720, Note_on_c, 1, 57, 121
3, 27720, Note_on_c, 1, 41, 87
3, 27720, Note_on_c, 1, 60, 121
3, 27720, Note_on_c, 1, 63, 103
3, 27779, Note_on_c, 1, 63, 0
3, 27779, Note_on_c, 1, 65, 0
3, 27779, Note_on_c, 1, 57, 0
3, 27779, Note_on_c, 1, 53, 0
3, 27779, Note_on_c, 1, 60, 0
3, 27779, Note_on_c, 1, 41, 0
3, 27780, Note_on_c, 1, 60, 97
3, 27780, Note_on_c, 1, 65, 115
3, 27780, Note_on_c, 1, 57, 97
3, 27839, Note_on_c, 1, 57, 0
3, 27839, Note_on_c, 1, 65, 0
3, 27839, Note_on_c, 1, 60, 0
3, 27840, Note_on_c, 1, 50, 103
3, 27840, Note_on_c, 1, 65, 118
3, 27840, Note_on_c, 1, 38, 107
3, 27840, Note_on_c, 1, 57, 121
3, 27840, Note_on_c, 1, 62, 121
3, 27899, Note_on_c, 1, 62, 0
3, 27899, Note_on_c, 1, 38, 0
3, 27899, Note_on_c, 1, 50, 0
3, 27899, Note_on_c, 1, 65, 0
3, 27899, Note_on_c, 1, 57, 0
3, 27900, Note_on_c, 1, 57, 91
3, 27900, Note_on_c, 1, 65, 103
3, 27900, Note_on_c, 1, 62, 107
3, 27959, Note_on_c, 1, 62, 0
3, 27959, Note_on_c, 1, 65, 0
3, 27959, Note_on_c, 1, 57, 0
3, 27960, Note_on_c, 1, 65, 118
3, 27960, Note_on_c, 1, 62, 122
3, 27960, Note_on_c, 1, 57, 121
3, 27960, Note_on_c, 1, 50, 121
3, 27960, Note_on_c, 1, 38, 118
3, 28019, Note_on_c, 1, 38, 0
3, 28019, Note_on_c, 1, 57, 0
3, 28019, Note_on_c, 1, 65, 0
3, 28019, Note_on_c, 1, 62, 0
3, 28019, Note_on_c, 1, 50, 0
3, 28020, Note_on_c, 1, 65, 118
3, 28020, Note_on_c, 1, 57, 118
3, 28020, Note_on_c, 1, 62, 121
3, 28079, Note_on_c, 1, 62, 0
3, 28079, Note_on_c, 1, 57, 0
3, 28079, Note_on_c, 1, 65, 0
3, 28080, Note_on_c, 1, 50, 118
3, 28080, Note_on_c, 1, 38, 118
3, 28139, Note_on_c, 1, 38, 0
3, 28139, Note_on_c, 1, 50, 0
3, 28140, Note_on_c, 1, 62, 115
3, 28140, Note_on_c, 1, 65, 107
3, 28140, Note_on_c, 1, 57, 115
3, 28199, Note_on_c, 1, 57, 0
3, 28199, Note_on_c, 1, 65, 0
3, 28199, Note_on_c, 1, 62, 0
3, 28200, Note_on_c, 1, 50, 118
3, 28200, Note_on_c, 1, 62, 115
3, 28200, Note_on_c, 1, 65, 107
3, 28200, Note_on_c, 1, 38, 118
3, 28200, Note_on_c, 1, 57, 103
3, 28259, Note_on_c, 1, 57, 0
3, 28259, Note_on_c, 1, 65, 0
3, 28259, Note_on_c, 1, 50, 0
3, 28259, Note_on_c, 1, 62, 0
3, 28259, Note_on_c, 1, 38, 0
3, 28260, Note_on_c, 1, 65, 107
3, 28260, Note_on_c, 1, 62, 97
3, 28260, Note_on_c, 1, 57, 97
3, 28319, Note_on_c, 1, 57, 0
3, 28319, Note_on_c, 1, 62, 0
3, 28319, Note_on_c, 1, 65, 0
3, 28320, Note_on_c, 1, 46, 97
3, 28320, Note_on_c, 1, 62, 115
3, 28320, Note_on_c, 1, 34, 107
3, 28320, Note_on_c, 1, 65, 118
3, 28320, Note_on_c, 1, 58, 122
3, 28379, Note_on_c, 1, 58, 0
3, 28379, Note_on_c, 1, 34, 0
3, 28379, Note_on_c, 1, 46, 0
3, 28379, Note_on_c, 1, 62, 0
3, 28379, Note_on_c, 1, 65, 0
3, 28440, Note_on_c, 1, 65, 103
3, 28440, Note_on_c, 1, 58, 107
3, 28440, Note_on_c, 1, 46, 103
3, 28440, Note_on_c, 1, 62, 107
3, 28440, Note_on_c, 1, 34, 107
3, 28499, Note_on_c, 1, 34, 0
3, 28499, Note_on_c, 1, 46, 0
3, 28499, Note_on_c, 1, 65, 0
3, 28499, Note_on_c, 1, 58, 0
3, 28499, Note_on_c, 1, 62, 0
3, 28500, Note_on_c, 1, 65, 103
3, 28500, Note_on_c, 1, 62, 103
3, 28500, Note_on_c, 1, 58, 107
3, 28559, Note_on_c, 1, 58, 0
3, 28559, Note_on_c, 1, 62, 0
3, 28559, Note_on_c, 1, 65, 0
3, 28560, Note_on_c, 1, 34, 118
3, 28560, Note_on_c, 1, 46, 121
3, 28619, Note_on_c, 1, 46, 0
3, 28619, Note_on_c, 1, 34, 0
3, 28620, Note_on_c, 1, 65, 93
3, 28620, Note_on_c, 1, 58, 97
3, 28620, Note_on_c, 1, 62, 107
3, 28679, Note_on_c, 1, 62, 0
3, 28679, Note_on_c, 1, 58, 0
3, 28679, Note_on_c, 1, 65, 0
3, 28680, Note_on_c, 1, 34, 115
3, 28680, Note_on_c, 1, 46, 115
3, 28680, Note_on_c, 1, 62, 107
3, 28680, Note_on_c, 1, 65, 103
3, 28680, Note_on_c, 1, 58, 103
3, 28739, Note_on_c, 1, 58, 0
3, 28739, Note_on_c, 1, 62, 0
3, 28739, Note_on_c, 1, 34, 0
3, 28739, Note_on_c, 1, 46, 0
3, 28739, Note_on_c, 1, 65, 0
3, 28740, Note_on_c, 1, 58, 93
3, 28740, Note_on_c, 1, 62, 97
3, 28740, Note_on_c, 1, 65, 91
3, 28799, Note_on_c, 1, 65, 0
3, 28799, Note_on_c, 1, 62, 0
3, 28799, Note_on_c, 1, 58, 0
3, 28800, Note_on_c, 1, 60, 115
3, 28800, Note_on_c, 1, 64, 118
3, 28800, Note_on_c, 1, 67, 115
3, 28800, Note_on_c, 1, 48, 83
3, 28800, Note_on_c, 1, 36, 97
3, 28859, Note_on_c, 1, 36, 0
3, 28859, Note_on_c, 1, 67, 0
3, 28859, Note_on_c, 1, 60, 0
3, 28859, Note_on_c, 1, 64, 0
3, 28859, Note_on_c, 1, 48, 0
3, 28920, Note_on_c, 1, 48, 83
3, 28920, Note_on_c, 1, 64, 107
3, 28920, Note_on_c, 1, 60, 115
3, 28920, Note_on_c, 1, 67, 97
3, 28920, Note_on_c, 1, 36, 97
3, 28979, Note_on_c, 1, 36, 0
3, 28979, Note_on_c, 1, 60, 0
3, 28979, Note_on_c, 1, 48, 0
3, 28979, Note_on_c, 1, 64, 0
3, 28979, Note_on_c, 1, 67, 0
3, 28980, Note_on_c, 1, 64, 103
3, 28980, Note_on_c, 1, 60, 107
3, 28980, Note_on_c, 1, 67, 103
3, 29039, Note_on_c, 1, 67, 0
3, 29039, Note_on_c, 1, 60, 0
3, 29039, Note_on_c, 1, 64, 0
3, 29040, Note_on_c, 1, 48, 103
3, 29040, Note_on_c, 1, 36, 107
3, 29099, Note_on_c, 1, 36, 0
3, 29099, Note_on_c, 1, 48, 0
3, 29100, Note_on_c, 1, 67, 97
3, 29100, Note_on_c, 1, 60, 103
3, 29100, Note_on_c, 1, 64, 103
3, 29159, Note_on_c, 1, 64, 0
3, 29159, Note_on_c, 1, 60, 0
3, 29159, Note_on_c, 1, 67, 0
3, 29160, Note_on_c, 1, 64, 115
3, 29160, Note_on_c, 1, 67, 115
3, 29160, Note_on_c, 1, 60, 115
3, 29160, Note_on_c, 1, 48, 93
3, 29160, Note_on_c, 1, 36, 103
3, 29219, Note_on_c, 1, 36, 0
3, 29219, Note_on_c, 1, 60, 0
3, 29219, Note_on_c, 1, 64, 0
3, 29219, Note_on_c, 1, 67, 0
3, 29219, Note_on_c, 1, 48, 0
3, 29220, Note_on_c, 1, 67, 107
3, 29220, Note_on_c, 1, 60, 97
3, 29220, Note_on_c, 1, 64, 97
3, 29279, Note_on_c, 1, 64, 0
3, 29279, Note_on_c, 1, 60, 0
3, 29279, Note_on_c, 1, 67, 0
3, 29280, Note_on_c, 1, 65, 107
3, 29280, Note_on_c, 1, 60, 118
3, 29280, Note_on_c, 1, 57, 115
3, 29280, Note_on_c, 1, 41, 93
3, 29280, Note_on_c, 1, 53, 75
3, 29339, Note_on_c, 1, 53, 0
3, 29339, Note_on_c, 1, 57, 0
3, 29339, Note_on_c, 1, 65, 0
3, 29339, Note_on_c, 1, 60, 0
3, 29339, Note_on_c, 1, 41, 0
3, 29375, Control_c, 1, 7, 120
3, 29385, Control_c, 1, 7, 119
3, 29390, Control_c, 1, 7, 118
3, 29400, Note_on_c, 1, 65, 103
3, 29400, Note_on_c, 1, 60, 118
3, 29400, Note_on_c, 1, 57, 103
3, 29400, Note_on_c, 1, 53, 103
3, 29400, Note_on_c, 1, 41, 107
3, 29440, Control_c, 1, 7, 117
3, 29459, Note_on_c, 1, 41, 0
3, 29459, Note_on_c, 1, 57, 0
3, 29459, Note_on_c, 1, 65, 0
3, 29459, Note_on_c, 1, 60, 0
3, 29459, Note_on_c, 1, 53, 0
3, 29460, Note_on_c, 1, 60, 122
3, 29460, Note_on_c, 1, 65, 118
3, 29460, Note_on_c, 1, 57, 118
3, 29505, Control_c, 1, 7, 116
3, 29515, Control_c, 1, 7, 115
3, 29519, Note_on_c, 1, 57, 0
3, 29519, Note_on_c, 1, 65, 0
3, 29519, Note_on_c, 1, 60, 0
3, 29520, Note_on_c, 1, 53, 115
3, 29520, Note_on_c, 1, 41, 115
3, 29523, Control_c, 1, 7, 114
3, 29526, Control_c, 1, 7, 113
3, 29579, Note_on_c, 1, 41, 0
3, 29579, Note_on_c, 1, 53, 0
3, 29580, Note_on_c, 1, 65, 107
3, 29580, Note_on_c, 1, 60, 118
3, 29580, Note_on_c, 1, 57, 115
3, 29585, Control_c, 1, 7, 112
3, 29630, Control_c, 1, 7, 111
3, 29635, Control_c, 1, 7, 110
3, 29639, Note_on_c, 1, 57, 0
3, 29639, Note_on_c, 1, 60, 0
3, 29639, Note_on_c, 1, 65, 0
3, 29640, Control_c, 1, 7, 109
3, 29640, Note_on_c, 1, 53, 103
3, 29640, Note_on_c, 1, 41, 107
3, 29640, Note_on_c, 1, 60, 121
3, 29640, Note_on_c, 1, 65, 115
3, 29640, Note_on_c, 1, 57, 118
3, 29644, Control_c, 1, 7, 108
3, 29699, Note_on_c, 1, 57, 0
3, 29699, Note_on_c, 1, 60, 0
3, 29699, Note_on_c, 1, 53, 0
3, 29699, Note_on_c, 1, 41, 0
3, 29699, Note_on_c, 1, 65, 0
3, 29699, Control_c, 1, 7, 107
3, 29700, Note_on_c, 1, 65, 103
3, 29700, Note_on_c, 1, 60, 97
3, 29700, Note_on_c, 1, 57, 97
3, 29703, Control_c, 1, 7, 106
3, 29758, Control_c, 1, 7, 105
3, 29759, Note_on_c, 1, 57, 0
3, 29759, Note_on_c, 1, 60, 0
3, 29759, Note_on_c, 1, 65, 0
3, 29760, Note_on_c, 1, 65, 118
3, 29760, Note_on_c, 1, 50, 91
3, 29760, Note_on_c, 1, 57, 115
3, 29760, Note_on_c, 1, 62, 118
3, 29760, Note_on_c, 1, 38, 91
3, 29762, Control_c, 1, 7, 104
3, 29768, Control_c, 1, 7, 103
3, 29819, Note_on_c, 1, 38, 0
3, 29819, Note_on_c, 1, 57, 0
3, 29819, Note_on_c, 1, 65, 0
3, 29819, Note_on_c, 1, 50, 0
3, 29819, Note_on_c, 1, 62, 0
3, 29845, Control_c, 1, 7, 102
3, 29850, Control_c, 1, 7, 101
3, 29855, Control_c, 1, 7, 100
3, 29880, Note_on_c, 1, 65, 93
3, 29880, Note_on_c, 1, 57, 115
3, 29880, Note_on_c, 1, 62, 115
3, 29880, Note_on_c, 1, 50, 97
3, 29880, Note_on_c, 1, 38, 103
3, 29905, Control_c, 1, 7, 99
3, 29910, Control_c, 1, 7, 98
3, 29939, Note_on_c, 1, 38, 0
3, 29939, Note_on_c, 1, 62, 0
3, 29939, Note_on_c, 1, 65, 0
3, 29939, Note_on_c, 1, 57, 0
3, 29939, Note_on_c, 1, 50, 0
3, 29940, Note_on_c, 1, 65, 107
3, 29940, Note_on_c, 1, 62, 118
3, 29940, Note_on_c, 1, 57, 115
3, 29965, Control_c, 1, 7, 97
3, 29975, Control_c, 1, 7, 96
3, 29980, Control_c, 1, 7, 95
3, 29999, Note_on_c, 1, 57, 0
3, 29999, Note_on_c, 1, 62, 0
3, 29999, Note_on_c, 1, 65, 0
3, 30000, Note_on_c, 1, 50, 107
3, 30000, Note_on_c, 1, 38, 103
3, 30012, Control_c, 1, 7, 94
3, 30017, Control_c, 1, 7, 93
3, 30022, Control_c, 1, 7, 92
3, 30025, Control_c, 1, 7, 91
3, 30059, Note_on_c, 1, 38, 0
3, 30059, Note_on_c, 1, 50, 0
3, 30060, Note_on_c, 1, 65, 107
3, 30060, Note_on_c, 1, 57, 107
3, 30060, Note_on_c, 1, 62, 121
3, 30063, Control_c, 1, 7, 90
3, 30071, Control_c, 1, 7, 89
3, 30076, Control_c, 1, 7, 88
3, 30081, Control_c, 1, 7, 87
3, 30115, Control_c, 1, 7, 86
3, 30119, Note_on_c, 1, 62, 0
3, 30119, Note_on_c, 1, 57, 0
3, 30119, Note_on_c, 1, 65, 0
3, 30120, Note_on_c, 1, 65, 103
3, 30120, Note_on_c, 1, 57, 107
3, 30120, Note_on_c, 1, 62, 118
3, 30120, Note_on_c, 1, 50, 115
3, 30120, Note_on_c, 1, 38, 93
3, 30124, Control_c, 1, 7, 85
3, 30129, Control_c, 1, 7, 84
3, 30132, Control_c, 1, 7, 83
3, 30137, Control_c, 1, 7, 82
3, 30146, Control_c, 1, 7, 81
3, 30179, Note_on_c, 1, 38, 0
3, 30179, Note_on_c, 1, 62, 0
3, 30179, Note_on_c, 1, 65, 0
3, 30179, Note_on_c, 1, 57, 0
3, 30179, Note_on_c, 1, 50, 0
3, 30180, Note_on_c, 1, 65, 107
3, 30180, Note_on_c, 1, 57, 87
3, 30180, Note_on_c, 1, 62, 103
3, 30205, Control_c, 1, 7, 80
3, 30239, Note_on_c, 1, 62, 0
3, 30239, Note_on_c, 1, 57, 0
3, 30239, Note_on_c, 1, 65, 0
3, 30240, Note_on_c, 1, 46, 97
3, 30240, Note_on_c, 1, 34, 93
3, 30240, Note_on_c, 1, 65, 107
3, 30240, Note_on_c, 1, 62, 107
3, 30240, Note_on_c, 1, 58, 122
3, 30248, Control_c, 1, 7, 79
3, 30253, Control_c, 1, 7, 78
3, 30258, Control_c, 1, 7, 77
3, 30299, Note_on_c, 1, 58, 0
3, 30299, Note_on_c, 1, 65, 0
3, 30299, Note_on_c, 1, 46, 0
3, 30299, Note_on_c, 1, 34, 0
3, 30299, Note_on_c, 1, 62, 0
3, 30345, Control_c, 1, 7, 76
3, 30350, Control_c, 1, 7, 75
3, 30360, Note_on_c, 1, 65, 107
3, 30360, Note_on_c, 1, 46, 93
3, 30360, Note_on_c, 1, 34, 97
3, 30360, Note_on_c, 1, 62, 103
3, 30360, Note_on_c, 1, 58, 107
3, 30369, Control_c, 1, 7, 74
3, 30385, Control_c, 1, 7, 73
3, 30400, Control_c, 1, 7, 72
3, 30419, Note_on_c, 1, 58, 0
3, 30419, Note_on_c, 1, 34, 0
3, 30419, Note_on_c, 1, 65, 0
3, 30419, Note_on_c, 1, 46, 0
3, 30419, Note_on_c, 1, 62, 0
3, 30420, Note_on_c, 1, 65, 107
3, 30420, Note_on_c, 1, 58, 107
3, 30420, Note_on_c, 1, 62, 107
3, 30470, Control_c, 1, 7, 71
3, 30479, Note_on_c, 1, 62, 0
3, 30479, Note_on_c, 1, 58, 0
3, 30479, Note_on_c, 1, 65, 0
3, 30480, Note_on_c, 1, 34, 118
3, 30480, Note_on_c, 1, 46, 118
3, 30489, Control_c, 1, 7, 70
3, 30499, Control_c, 1, 7, 69
3, 30510, Control_c, 1, 7, 68
3, 30539, Note_on_c, 1, 46, 0
3, 30539, Note_on_c, 1, 34, 0
3, 30540, Note_on_c, 1, 65, 115
3, 30540, Note_on_c, 1, 62, 107
3, 30540, Note_on_c, 1, 58, 115
3, 30545, Control_c, 1, 7, 67
3, 30550, Control_c, 1, 7, 66
3, 30555, Control_c, 1, 7, 65
3, 30560, Control_c, 1, 7, 64
3, 30599, Note_on_c, 1, 58, 0
3, 30599, Note_on_c, 1, 62, 0
3, 30599, Note_on_c, 1, 65, 0
3, 30600, Note_on_c, 1, 46, 107
3, 30600, Note_on_c, 1, 34, 107
3, 30600, Note_on_c, 1, 65, 107
3, 30600, Note_on_c, 1, 58, 103
3, 30600, Note_on_c, 1, 62, 107
3, 30607, Control_c, 1, 7, 63
3, 30612, Control_c, 1, 7, 61
3, 30617, Control_c, 1, 7, 60
3, 30659, Note_on_c, 1, 62, 0
3, 30659, Note_on_c, 1, 65, 0
3, 30659, Note_on_c, 1, 46, 0
3, 30659, Note_on_c, 1, 34, 0
3, 30659, Note_on_c, 1, 58, 0
3, 30660, Note_on_c, 1, 65, 103
3, 30660, Note_on_c, 1, 58, 91
3, 30660, Note_on_c, 1, 62, 97
3, 30672, Control_c, 1, 7, 59
3, 30677, Control_c, 1, 7, 58
3, 30719, Note_on_c, 1, 62, 0
3, 30719, Note_on_c, 1, 58, 0
3, 30719, Note_on_c, 1, 65, 0
3, 30720, Note_on_c, 1, 60, 118
3, 30720, Note_on_c, 1, 64, 118
3, 30720, Note_on_c, 1, 67, 103
3, 30720, Note_on_c, 1, 48, 77
3, 30720, Note_on_c, 1, 36, 93
3, 30723, Control_c, 1, 7, 57
3, 30728, Control_c, 1, 7, 56
3, 30732, Control_c, 1, 7, 54
3, 30737, Control_c, 1, 7, 53
3, 30745, Control_c, 1, 7, 52
3, 30779, Note_on_c, 1, 36, 0
3, 30779, Note_on_c, 1, 67, 0
3, 30779, Note_on_c, 1, 60, 0
3, 30779, Note_on_c, 1, 64, 0
3, 30779, Note_on_c, 1, 48, 0
3, 30798, Control_c, 1, 7, 51
3, 30803, Control_c, 1, 7, 50
3, 30805, Control_c, 1, 7, 49
3, 30810, Control_c, 1, 7, 48
3, 30840, Note_on_c, 1, 60, 107
3, 30840, Note_on_c, 1, 64, 103
3, 30840, Note_on_c, 1, 67, 103
3, 30840, Note_on_c, 1, 36, 93
3, 30840, Note_on_c, 1, 48, 97
3, 30870, Control_c, 1, 7, 47
3, 30880, Control_c, 1, 7, 45
3, 30880, Control_c, 1, 7, 46
3, 30899, Note_on_c, 1, 48, 0
3, 30899, Note_on_c, 1, 67, 0
3, 30899, Note_on_c, 1, 60, 0
3, 30899, Note_on_c, 1, 64, 0
3, 30899, Note_on_c, 1, 36, 0
3, 30900, Note_on_c, 1, 64, 115
3, 30900, Note_on_c, 1, 60, 118
3, 30900, Note_on_c, 1, 67, 103
3, 30910, Control_c, 1, 7, 44
3, 30915, Control_c, 1, 7, 43
3, 30920, Control_c, 1, 7, 42
3, 30925, Control_c, 1, 7, 41
3, 30930, Control_c, 1, 7, 40
3, 30955, Control_c, 1, 7, 39
3, 30959, Note_on_c, 1, 67, 0
3, 30959, Note_on_c, 1, 60, 0
3, 30959, Note_on_c, 1, 64, 0
3, 30960, Note_on_c, 1, 48, 115
3, 30960, Note_on_c, 1, 36, 115
3, 30970, Control_c, 1, 7, 38
3, 30975, Control_c, 1, 7, 37
3, 30980, Control_c, 1, 7, 36
3, 30985, Control_c, 1, 7, 35
3, 31012, Control_c, 1, 7, 34
3, 31015, Control_c, 1, 7, 33
3, 31019, Note_on_c, 1, 36, 0
3, 31019, Note_on_c, 1, 48, 0
3, 31020, Control_c, 1, 7, 32
3, 31020, Note_on_c, 1, 64, 118
3, 31020, Note_on_c, 1, 67, 115
3, 31020, Note_on_c, 1, 60, 121
3, 31045, Control_c, 1, 7, 31
3, 31050, Control_c, 1, 7, 30
3, 31055, Control_c, 1, 7, 29
3, 31060, Control_c, 1, 7, 28
3, 31065, Control_c, 1, 7, 27
3, 31070, Control_c, 1, 7, 25
3, 31079, Note_on_c, 1, 60, 0
3, 31079, Note_on_c, 1, 67, 0
3, 31079, Note_on_c, 1, 64, 0
3, 31080, Note_on_c, 1, 64, 115
3, 31080, Note_on_c, 1, 48, 103
3, 31080, Note_on_c, 1, 36, 107
3, 31080, Note_on_c, 1, 60, 118
3, 31080, Note_on_c, 1, 67, 107
3, 31096, Control_c, 1, 7, 24
3, 31101, Control_c, 1, 7, 23
3, 31105, Control_c, 1, 7, 22
3, 31115, Control_c, 1, 7, 21
3, 31139, Note_on_c, 1, 67, 0
3, 31139, Note_on_c, 1, 36, 0
3, 31139, Note_on_c, 1, 64, 0
3, 31139, Note_on_c, 1, 48, 0
3, 31139, Note_on_c, 1, 60, 0
3, 31140, Note_on_c, 1, 67, 103
3, 31140, Note_on_c, 1, 64, 107
3, 31140, Note_on_c, 1, 60, 115
3, 31141, Control_c, 1, 7, 20
3, 31155, Control_c, 1, 7, 19
3, 31174, Control_c, 1, 7, 18
3, 31179, Control_c, 1, 7, 17
3, 31189, Control_c, 1, 7, 16
3, 31199, Note_on_c, 1, 60, 0
3, 31199, Note_on_c, 1, 64, 0
3, 31199, Note_on_c, 1, 67, 0
3, 31200, Note_on_c, 1, 41, 115
3, 31200, Note_on_c, 1, 65, 121
3, 31200, Note_on_c, 1, 53, 107
3, 31200, Note_on_c, 1, 57, 121
3, 31200, Note_on_c, 1, 60, 121
3, 31219, Control_c, 1, 7, 15
3, 31225, Control_c, 1, 7, 14
3, 31230, Control_c, 1, 7, 13
3, 31235, Control_c, 1, 7, 12
3, 31250, Control_c, 1, 7, 11
3, 31259, Note_on_c, 1, 57, 0
3, 31259, Note_on_c, 1, 53, 0
3, 31259, Note_on_c, 1, 41, 0
3, 31265, Control_c, 1, 7, 10
3, 31275, Control_c, 1, 7, 9
3, 31300, Control_c, 1, 7, 8
3, 31305, Control_c, 1, 7, 7
3, 31315, Control_c, 1, 7, 6
3, 31320, Note_on_c, 1, 65, 0
3, 31320, Note_on_c, 1, 60, 0
3, 31320, Note_on_c, 1, 60, 118
3, 31320, Note_on_c, 1, 65, 107
3, 31320, Note_on_c, 1, 57, 121
3, 31320, Note_on_c, 1, 41, 107
3, 31320, Note_on_c, 1, 53, 107
3, 31330, Control_c, 1, 7, 5
3, 31332, Control_c, 1, 7, 4
3, 31342, Control_c, 1, 7, 3
3, 31345, Control_c, 1, 7, 2
3, 31350, Control_c, 1, 7, 1
3, 31355, Control_c, 1, 7, 0
3, 31379, Note_on_c, 1, 53, 0
3, 31379, Note_on_c, 1, 57, 0
3, 31379, Note_on_c, 1, 60, 0
3, 31379, Note_on_c, 1, 65, 0
3, 31379, Note_on_c, 1, 41, 0
3, 31380, Note_on_c, 1, 60, 115
3, 31380, Note_on_c, 1, 65, 107
3, 31380, Note_on_c, 1, 57, 115
3, 31439, Note_on_c, 1, 57, 0
3, 31439, Note_on_c, 1, 65, 0
3, 31439, Note_on_c, 1, 60, 0
3, 31440, Note_on_c, 1, 53, 121
3, 31440, Note_on_c, 1, 41, 118
3, 31499, Note_on_c, 1, 41, 0
3, 31499, Note_on_c, 1, 53, 0
3, 31500, Note_on_c, 1, 60, 121
3, 31500, Note_on_c, 1, 65, 118
3, 31500, Note_on_c, 1, 57, 118
3, 31559, Note_on_c, 1, 57, 0
3, 31559, Note_on_c, 1, 65, 0
3, 31559, Note_on_c, 1, 60, 0
3, 31560, Note_on_c, 1, 60, 121
3, 31560, Note_on_c, 1, 65, 118
3, 31560, Note_on_c, 1, 57, 118
3, 31560, Note_on_c, 1, 53, 97
3, 31560, Note_on_c, 1, 41, 115
3, 31619, Note_on_c, 1, 41, 0
3, 31619, Note_on_c, 1, 57, 0
3, 31619, Note_on_c, 1, 60, 0
3, 31619, Note_on_c, 1, 65, 0
3, 31619, Note_on_c, 1, 53, 0
3, 31620, Note_on_c, 1, 65, 97
3, 31620, Note_on_c, 1, 60, 103
3, 31620, Note_on_c, 1, 57, 97
3, 31679, Note_on_c, 1, 57, 0
3, 31679, Note_on_c, 1, 60, 0
3, 31679, Note_on_c, 1, 65, 0
3, 31679, End_track
4, 0, Start_track
4, 0, MIDI_port, 0
4, 0, Title_t, "Fretless Bass"
4, 0, Program_c, 2, 35
4, 0, Control_c, 2, 7, 102
4, 0, Control_c, 2, 10, 55
4, 0, Program_c, 2, 35
4, 481, Note_on_c, 2, 53, 118
4, 536, Note_on_c, 2, 53, 0
4, 603, Note_on_c, 2, 53, 118
4, 659, Note_on_c, 2, 53, 0
4, 725, Note_on_c, 2, 53, 118
4, 785, Note_on_c, 2, 53, 0
4, 837, Note_on_c, 2, 53, 118
4, 900, Note_on_c, 2, 52, 115
4, 908, Note_on_c, 2, 53, 0
4, 958, Note_on_c, 2, 52, 0
4, 966, Note_on_c, 2, 50, 122
4, 1045, Note_on_c, 2, 50, 0
4, 1088, Note_on_c, 2, 50, 121
4, 1149, Note_on_c, 2, 50, 0
4, 1206, Note_on_c, 2, 50, 121
4, 1269, Note_on_c, 2, 50, 0
4, 1325, Note_on_c, 2, 50, 121
4, 1380, Note_on_c, 2, 50, 0
4, 1382, Note_on_c, 2, 53, 115
4, 1417, Note_on_c, 2, 53, 0
4, 1442, Note_on_c, 2, 46, 122
4, 1507, Note_on_c, 2, 46, 0
4, 1564, Note_on_c, 2, 46, 121
4, 1623, Note_on_c, 2, 46, 0
4, 1682, Note_on_c, 2, 46, 121
4, 1741, Note_on_c, 2, 46, 0
4, 1796, Note_on_c, 2, 46, 118
4, 1851, Note_on_c, 2, 50, 107
4, 1857, Note_on_c, 2, 46, 0
4, 1888, Note_on_c, 2, 50, 0
4, 1917, Note_on_c, 2, 48, 121
4, 1985, Note_on_c, 2, 48, 0
4, 2041, Note_on_c, 2, 48, 118
4, 2117, Note_on_c, 2, 48, 0
4, 2160, Note_on_c, 2, 48, 122
4, 2231, Note_on_c, 2, 48, 0
4, 2284, Note_on_c, 2, 48, 122
4, 2317, Note_on_c, 2, 48, 0
4, 2341, Note_on_c, 2, 48, 118
4, 2377, Note_on_c, 2, 48, 0
4, 2400, Note_on_c, 2, 53, 118
4, 2473, Note_on_c, 2, 53, 0
4, 2520, Note_on_c, 2, 53, 118
4, 2587, Note_on_c, 2, 53, 0
4, 2645, Note_on_c, 2, 53, 121
4, 2703, Note_on_c, 2, 53, 0
4, 2757, Note_on_c, 2, 53, 121
4, 2811, Note_on_c, 2, 53, 0
4, 2824, Note_on_c, 2, 52, 118
4, 2865, Note_on_c, 2, 52, 0
4, 2881, Note_on_c, 2, 50, 118
4, 2944, Note_on_c, 2, 50, 0
4, 3000, Note_on_c, 2, 50, 121
4, 3060, Note_on_c, 2, 50, 0
4, 3122, Note_on_c, 2, 50, 122
4, 3174, Note_on_c, 2, 50, 0
4, 3236, Note_on_c, 2, 50, 118
4, 3288, Note_on_c, 2, 50, 0
4, 3295, Note_on_c, 2, 53, 115
4, 3324, Note_on_c, 2, 53, 0
4, 3357, Note_on_c, 2, 46, 121
4, 3413, Note_on_c, 2, 46, 0
4, 3479, Note_on_c, 2, 46, 121
4, 3535, Note_on_c, 2, 46, 0
4, 3597, Note_on_c, 2, 46, 121
4, 3654, Note_on_c, 2, 46, 0
4, 3714, Note_on_c, 2, 46, 121
4, 3777, Note_on_c, 2, 46, 0
4, 3777, Note_on_c, 2, 50, 107
4, 3816, Note_on_c, 2, 50, 0
4, 3838, Note_on_c, 2, 48, 122
4, 3901, Note_on_c, 2, 48, 0
4, 3960, Note_on_c, 2, 48, 121
4, 4015, Note_on_c, 2, 48, 0
4, 4080, Note_on_c, 2, 48, 121
4, 4132, Note_on_c, 2, 48, 0
4, 4202, Note_on_c, 2, 48, 115
4, 4240, Note_on_c, 2, 48, 0
4, 11517, Note_on_c, 2, 48, 122
4, 11536, Note_on_c, 2, 48, 0
4, 11548, Note_on_c, 2, 48, 121
4, 11550, Note_on_c, 2, 50, 122
4, 11564, Note_on_c, 2, 50, 0
4, 11572, Note_on_c, 2, 48, 0
4, 11608, Note_on_c, 2, 48, 118
4, 11623, Note_on_c, 2, 48, 0
4, 11633, Note_on_c, 2, 46, 125
4, 11652, Note_on_c, 2, 46, 0
4, 11667, Note_on_c, 2, 46, 118
4, 11691, Note_on_c, 2, 46, 0
4, 11727, Note_on_c, 2, 46, 122
4, 11741, Note_on_c, 2, 46, 0
4, 11755, Note_on_c, 2, 45, 125
4, 11805, Note_on_c, 2, 45, 0
4, 11844, Note_on_c, 2, 45, 122
4, 11857, Note_on_c, 2, 45, 0
4, 11875, Note_on_c, 2, 43, 125
4, 11875, Note_on_c, 2, 45, 118
4, 11882, Note_on_c, 2, 45, 0
4, 11911, Note_on_c, 2, 43, 0
4, 11922, Note_on_c, 2, 43, 107
4, 11941, Note_on_c, 2, 43, 0
4, 19197, Note_on_c, 2, 48, 122
4, 19216, Note_on_c, 2, 48, 0
4, 19228, Note_on_c, 2, 48, 121
4, 19230, Note_on_c, 2, 50, 122
4, 19244, Note_on_c, 2, 50, 0
4, 19252, Note_on_c, 2, 48, 0
4, 19288, Note_on_c, 2, 48, 118
4, 19303, Note_on_c, 2, 48, 0
4, 19313, Note_on_c, 2, 46, 125
4, 19332, Note_on_c, 2, 46, 0
4, 19347, Note_on_c, 2, 46, 118
4, 19371, Note_on_c, 2, 46, 0
4, 19407, Note_on_c, 2, 46, 122
4, 19421, Note_on_c, 2, 46, 0
4, 19435, Note_on_c, 2, 45, 125
4, 19485, Note_on_c, 2, 45, 0
4, 19524, Note_on_c, 2, 45, 122
4, 19537, Note_on_c, 2, 45, 0
4, 19555, Note_on_c, 2, 43, 125
4, 19555, Note_on_c, 2, 45, 118
4, 19562, Note_on_c, 2, 45, 0
4, 19591, Note_on_c, 2, 43, 0
4, 19602, Note_on_c, 2, 43, 107
4, 19621, Note_on_c, 2, 43, 0
4, 26877, Note_on_c, 2, 48, 122
4, 26896, Note_on_c, 2, 48, 0
4, 26908, Note_on_c, 2, 48, 121
4, 26910, Note_on_c, 2, 50, 122
4, 26924, Note_on_c, 2, 50, 0
4, 26932, Note_on_c, 2, 48, 0
4, 26968, Note_on_c, 2, 48, 118
4, 26983, Note_on_c, 2, 48, 0
4, 26993, Note_on_c, 2, 46, 125
4, 27012, Note_on_c, 2, 46, 0
4, 27027, Note_on_c, 2, 46, 118
4, 27051, Note_on_c, 2, 46, 0
4, 27087, Note_on_c, 2, 46, 122
4, 27101, Note_on_c, 2, 46, 0
4, 27115, Note_on_c, 2, 45, 125
4, 27165, Note_on_c, 2, 45, 0
4, 27204, Note_on_c, 2, 45, 122
4, 27217, Note_on_c, 2, 45, 0
4, 27235, Note_on_c, 2, 43, 125
4, 27235, Note_on_c, 2, 45, 118
4, 27242, Note_on_c, 2, 45, 0
4, 27271, Note_on_c, 2, 43, 0
4, 27282, Note_on_c, 2, 43, 107
4, 27301, Note_on_c, 2, 43, 0
4, 29375, Control_c, 2, 7, 101
4, 29385, Control_c, 2, 7, 100
4, 29390, Control_c, 2, 7, 99
4, 29440, Control_c, 2, 7, 98
4, 29505, Control_c, 2, 7, 97
4, 29523, Control_c, 2, 7, 96
4, 29526, Control_c, 2, 7, 95
4, 29585, Control_c, 2, 7, 94
4, 29630, Control_c, 2, 7, 93
4, 29640, Control_c, 2, 7, 92
4, 29644, Control_c, 2, 7, 91
4, 29699, Control_c, 2, 7, 90
4, 29703, Control_c, 2, 7, 89
4, 29762, Control_c, 2, 7, 88
4, 29768, Control_c, 2, 7, 87
4, 29845, Control_c, 2, 7, 86
4, 29850, Control_c, 2, 7, 85
4, 29865, Control_c, 2, 7, 84
4, 29905, Control_c, 2, 7, 83
4, 29910, Control_c, 2, 7, 82
4, 29965, Control_c, 2, 7, 81
4, 29980, Control_c, 2, 7, 80
4, 30012, Control_c, 2, 7, 79
4, 30017, Control_c, 2, 7, 78
4, 30022, Control_c, 2, 7, 77
4, 30063, Control_c, 2, 7, 76
4, 30071, Control_c, 2, 7, 75
4, 30076, Control_c, 2, 7, 74
4, 30081, Control_c, 2, 7, 73
4, 30124, Control_c, 2, 7, 72
4, 30129, Control_c, 2, 7, 71
4, 30132, Control_c, 2, 7, 70
4, 30137, Control_c, 2, 7, 69
4, 30205, Control_c, 2, 7, 68
4, 30210, Control_c, 2, 7, 67
4, 30248, Control_c, 2, 7, 66
4, 30253, Control_c, 2, 7, 65
4, 30345, Control_c, 2, 7, 64
4, 30350, Control_c, 2, 7, 63
4, 30369, Control_c, 2, 7, 62
4, 30385, Control_c, 2, 7, 61
4, 30470, Control_c, 2, 7, 60
4, 30489, Control_c, 2, 7, 59
4, 30499, Control_c, 2, 7, 58
4, 30510, Control_c, 2, 7, 57
4, 30550, Control_c, 2, 7, 56
4, 30555, Control_c, 2, 7, 55
4, 30560, Control_c, 2, 7, 54
4, 30607, Control_c, 2, 7, 53
4, 30612, Control_c, 2, 7, 52
4, 30617, Control_c, 2, 7, 51
4, 30667, Control_c, 2, 7, 50
4, 30672, Control_c, 2, 7, 49
4, 30677, Control_c, 2, 7, 48
4, 30728, Control_c, 2, 7, 47
4, 30732, Control_c, 2, 7, 45
4, 30737, Control_c, 2, 7, 44
4, 30798, Control_c, 2, 7, 43
4, 30803, Control_c, 2, 7, 42
4, 30805, Control_c, 2, 7, 41
4, 30810, Control_c, 2, 7, 40
4, 30880, Control_c, 2, 7, 38
4, 30880, Control_c, 2, 7, 39
4, 30910, Control_c, 2, 7, 37
4, 30915, Control_c, 2, 7, 36
4, 30925, Control_c, 2, 7, 35
4, 30930, Control_c, 2, 7, 34
4, 30940, Control_c, 2, 7, 33
4, 30955, Control_c, 2, 7, 32
4, 30975, Control_c, 2, 7, 31
4, 30980, Control_c, 2, 7, 30
4, 30985, Control_c, 2, 7, 29
4, 31012, Control_c, 2, 7, 28
4, 31020, Control_c, 2, 7, 27
4, 31045, Control_c, 2, 7, 26
4, 31050, Control_c, 2, 7, 25
4, 31055, Control_c, 2, 7, 24
4, 31065, Control_c, 2, 7, 23
4, 31070, Control_c, 2, 7, 21
4, 31096, Control_c, 2, 7, 20
4, 31105, Control_c, 2, 7, 19
4, 31115, Control_c, 2, 7, 18
4, 31141, Control_c, 2, 7, 17
4, 31150, Control_c, 2, 7, 16
4, 31174, Control_c, 2, 7, 15
4, 31179, Control_c, 2, 7, 14
4, 31189, Control_c, 2, 7, 13
4, 31219, Control_c, 2, 7, 12
4, 31230, Control_c, 2, 7, 11
4, 31235, Control_c, 2, 7, 10
4, 31250, Control_c, 2, 7, 9
4, 31265, Control_c, 2, 7, 8
4, 31300, Control_c, 2, 7, 7
4, 31305, Control_c, 2, 7, 6
4, 31315, Control_c, 2, 7, 5
4, 31330, Control_c, 2, 7, 4
4, 31342, Control_c, 2, 7, 3
4, 31345, Control_c, 2, 7, 2
4, 31350, Control_c, 2, 7, 1
4, 31355, Control_c, 2, 7, 0
4, 31355, End_track
5, 0, Start_track
5, 0, MIDI_port, 0
5, 0, Title_t, "Tenor Sax"
5, 0, Program_c, 3, 65
5, 0, Control_c, 3, 7, 127
5, 0, Control_c, 3, 7, 127
5, 0, Control_c, 3, 10, 66
5, 0, Program_c, 3, 65
5, 4202, Note_on_c, 3, 57, 127
5, 4272, Note_on_c, 3, 55, 127
5, 4279, Note_on_c, 3, 57, 0
5, 4326, Note_on_c, 3, 55, 0
5, 4328, Note_on_c, 3, 53, 127
5, 4642, Note_on_c, 3, 55, 127
5, 4647, Note_on_c, 3, 53, 0
5, 4711, Note_on_c, 3, 55, 0
5, 4719, Note_on_c, 3, 53, 127
5, 4755, Note_on_c, 3, 55, 117
5, 4760, Note_on_c, 3, 53, 0
5, 4793, Note_on_c, 3, 55, 0
5, 4800, Note_on_c, 3, 53, 127
5, 5082, Note_on_c, 3, 53, 0
5, 5105, Note_on_c, 3, 57, 127
5, 5162, Note_on_c, 3, 55, 127
5, 5165, Note_on_c, 3, 57, 0
5, 5204, Note_on_c, 3, 53, 127
5, 5205, Note_on_c, 3, 55, 0
5, 5241, Note_on_c, 3, 53, 0
5, 5249, Note_on_c, 3, 55, 127
5, 5280, Note_on_c, 3, 53, 125
5, 5282, Note_on_c, 3, 55, 0
5, 5564, Note_on_c, 3, 53, 0
5, 5569, Note_on_c, 3, 50, 127
5, 5605, Note_on_c, 3, 53, 127
5, 5608, Note_on_c, 3, 50, 0
5, 5667, Note_on_c, 3, 53, 0
5, 5694, Note_on_c, 3, 53, 127
5, 5748, Note_on_c, 3, 53, 0
5, 5757, Note_on_c, 3, 50, 127
5, 5797, Note_on_c, 3, 50, 0
5, 5805, Note_on_c, 3, 48, 127
5, 6095, Note_on_c, 3, 48, 0
5, 6118, Note_on_c, 3, 48, 127
5, 6171, Note_on_c, 3, 48, 0
5, 6184, Note_on_c, 3, 53, 127
5, 6525, Note_on_c, 3, 57, 127
5, 6534, Note_on_c, 3, 53, 0
5, 6614, Note_on_c, 3, 60, 127
5, 6625, Note_on_c, 3, 57, 0
5, 6661, Note_on_c, 3, 62, 127
5, 6668, Note_on_c, 3, 60, 0
5, 6709, Note_on_c, 3, 62, 0
5, 6725, Note_on_c, 3, 64, 127
5, 6773, Note_on_c, 3, 64, 0
5, 6787, Note_on_c, 3, 62, 127
5, 7024, Note_on_c, 3, 57, 127
5, 7034, Note_on_c, 3, 62, 0
5, 7106, Note_on_c, 3, 57, 0
5, 7106, Note_on_c, 3, 55, 127
5, 7147, Note_on_c, 3, 53, 117
5, 7154, Note_on_c, 3, 55, 0
5, 7180, Note_on_c, 3, 53, 0
5, 7192, Note_on_c, 3, 55, 127
5, 7251, Note_on_c, 3, 53, 127
5, 7257, Note_on_c, 3, 55, 0
5, 7554, Note_on_c, 3, 57, 127
5, 7560, Note_on_c, 3, 53, 0
5, 7602, Note_on_c, 3, 57, 0
5, 7620, Note_on_c, 3, 57, 127
5, 7730, Note_on_c, 3, 58, 125
5, 7735, Note_on_c, 3, 57, 0
5, 7756, Note_on_c, 3, 57, 127
5, 7768, Note_on_c, 3, 58, 0
5, 7779, Note_on_c, 3, 55, 127
5, 7787, Note_on_c, 3, 57, 0
5, 8042, Note_on_c, 3, 57, 127
5, 8045, Note_on_c, 3, 55, 0
5, 8098, Note_on_c, 3, 57, 0
5, 8103, Note_on_c, 3, 58, 127
5, 8143, Note_on_c, 3, 58, 0
5, 8163, Note_on_c, 3, 60, 127
5, 8810, Note_on_c, 3, 60, 0
5, 8814, Note_on_c, 3, 69, 127
5, 8930, Note_on_c, 3, 67, 127
5, 8935, Note_on_c, 3, 69, 0
5, 8989, Note_on_c, 3, 65, 127
5, 8991, Note_on_c, 3, 67, 0
5, 9034, Note_on_c, 3, 67, 127
5, 9042, Note_on_c, 3, 65, 0
5, 9056, Note_on_c, 3, 67, 0
5, 9073, Note_on_c, 3, 69, 127
5, 9142, Note_on_c, 3, 69, 0
5, 9152, Note_on_c, 3, 65, 127
5, 9460, Note_on_c, 3, 65, 0
5, 9470, Note_on_c, 3, 69, 127
5, 9527, Note_on_c, 3, 69, 0
5, 9547, Note_on_c, 3, 65, 127
5, 9811, Note_on_c, 3, 65, 0
5, 9836, Note_on_c, 3, 69, 127
5, 9894, Note_on_c, 3, 67, 127
5, 9898, Note_on_c, 3, 69, 0
5, 9942, Note_on_c, 3, 65, 127
5, 9947, Note_on_c, 3, 67, 0
5, 10019, Note_on_c, 3, 67, 127
5, 10028, Note_on_c, 3, 65, 0
5, 10088, Note_on_c, 3, 65, 127
5, 10089, Note_on_c, 3, 67, 0
5, 10126, Note_on_c, 3, 65, 0
5, 10149, Note_on_c, 3, 65, 127
5, 10492, Note_on_c, 3, 65, 0
5, 10497, Note_on_c, 3, 62, 127
5, 10543, Note_on_c, 3, 62, 0
5, 10559, Note_on_c, 3, 65, 127
5, 10736, Note_on_c, 3, 65, 0
5, 10740, Note_on_c, 3, 62, 127
5, 10781, Note_on_c, 3, 62, 0
5, 10794, Note_on_c, 3, 64, 127
5, 10837, Note_on_c, 3, 64, 0
5, 10858, Note_on_c, 3, 65, 127
5, 10943, Note_on_c, 3, 65, 0
5, 10976, Note_on_c, 3, 69, 127
5, 11106, Note_on_c, 3, 70, 127
5, 11109, Note_on_c, 3, 69, 0
5, 11125, Note_on_c, 3, 70, 0
5, 11133, Note_on_c, 3, 69, 127
5, 11152, Note_on_c, 3, 67, 127
5, 11165, Note_on_c, 3, 69, 0
5, 11463, Note_on_c, 3, 60, 127
5, 11506, Note_on_c, 3, 60, 0
5, 11519, Note_on_c, 3, 69, 127
5, 11523, Note_on_c, 3, 67, 0
5, 11622, Note_on_c, 3, 69, 0
5, 11631, Note_on_c, 3, 67, 127
5, 11746, Note_on_c, 3, 65, 127
5, 11758, Note_on_c, 3, 67, 0
5, 11867, Note_on_c, 3, 65, 0
5, 11867, Note_on_c, 3, 57, 127
5, 11906, Note_on_c, 3, 55, 127
5, 11913, Note_on_c, 3, 57, 0
5, 11949, Note_on_c, 3, 55, 0
5, 11955, Note_on_c, 3, 53, 127
5, 11998, Note_on_c, 3, 53, 0
5, 12238, Note_on_c, 3, 57, 127
5, 12307, Note_on_c, 3, 60, 127
5, 12321, Note_on_c, 3, 57, 0
5, 12377, Note_on_c, 3, 60, 0
5, 12394, Note_on_c, 3, 62, 127
5, 12453, Note_on_c, 3, 62, 0
5, 12479, Note_on_c, 3, 64, 127
5, 12528, Note_on_c, 3, 64, 0
5, 12549, Note_on_c, 3, 62, 127
5, 12774, Note_on_c, 3, 62, 0
5, 12781, Note_on_c, 3, 57, 127
5, 12853, Note_on_c, 3, 57, 0
5, 12853, Note_on_c, 3, 55, 127
5, 12904, Note_on_c, 3, 53, 125
5, 12911, Note_on_c, 3, 55, 0
5, 12950, Note_on_c, 3, 53, 0
5, 12968, Note_on_c, 3, 55, 113
5, 13038, Note_on_c, 3, 53, 127
5, 13043, Note_on_c, 3, 55, 0
5, 13242, Note_on_c, 3, 53, 0
5, 13248, Note_on_c, 3, 50, 127
5, 13292, Note_on_c, 3, 50, 0
5, 13306, Note_on_c, 3, 53, 127
5, 13350, Note_on_c, 3, 53, 0
5, 13373, Note_on_c, 3, 53, 127
5, 13390, Note_on_c, 3, 53, 0
5, 13406, Note_on_c, 3, 53, 127
5, 13439, Note_on_c, 3, 53, 0
5, 13444, Note_on_c, 3, 50, 127
5, 13487, Note_on_c, 3, 50, 0
5, 13498, Note_on_c, 3, 48, 127
5, 13766, Note_on_c, 3, 48, 0
5, 13805, Note_on_c, 3, 48, 127
5, 13838, Note_on_c, 3, 48, 0
5, 13861, Note_on_c, 3, 48, 127
5, 13896, Note_on_c, 3, 48, 0
5, 13918, Note_on_c, 3, 53, 127
5, 14147, Note_on_c, 3, 53, 0
5, 14154, Note_on_c, 3, 57, 127
5, 14209, Note_on_c, 3, 57, 0
5, 14229, Note_on_c, 3, 60, 127
5, 14286, Note_on_c, 3, 60, 0
5, 14307, Note_on_c, 3, 62, 127
5, 14354, Note_on_c, 3, 62, 0
5, 14393, Note_on_c, 3, 64, 127
5, 14445, Note_on_c, 3, 64, 0
5, 14464, Note_on_c, 3, 62, 127
5, 14706, Note_on_c, 3, 62, 0
5, 14708, Note_on_c, 3, 50, 127
5, 14767, Note_on_c, 3, 50, 0
5, 14793, Note_on_c, 3, 50, 127
5, 14844, Note_on_c, 3, 50, 0
5, 14861, Note_on_c, 3, 57, 127
5, 14900, Note_on_c, 3, 55, 127
5, 14907, Note_on_c, 3, 57, 0
5, 14934, Note_on_c, 3, 55, 0
5, 14936, Note_on_c, 3, 53, 127
5, 15147, Note_on_c, 3, 53, 0
5, 15202, Note_on_c, 3, 53, 127
5, 15276, Note_on_c, 3, 53, 0
5, 15284, Note_on_c, 3, 55, 127
5, 15345, Note_on_c, 3, 55, 0
5, 15360, Note_on_c, 3, 57, 127
5, 15409, Note_on_c, 3, 60, 117
5, 15416, Note_on_c, 3, 57, 0
5, 15443, Note_on_c, 3, 57, 127
5, 15457, Note_on_c, 3, 60, 0
5, 15684, Note_on_c, 3, 57, 0
5, 15714, Note_on_c, 3, 57, 127
5, 15772, Note_on_c, 3, 58, 127
5, 15777, Note_on_c, 3, 57, 0
5, 15812, Note_on_c, 3, 58, 0
5, 15832, Note_on_c, 3, 60, 127
5, 16489, Note_on_c, 3, 69, 127
5, 16497, Note_on_c, 3, 60, 0
5, 16544, Note_on_c, 3, 69, 0
5, 16549, Note_on_c, 3, 67, 127
5, 16623, Note_on_c, 3, 67, 0
5, 16623, Note_on_c, 3, 65, 127
5, 16704, Note_on_c, 3, 65, 0
5, 16709, Note_on_c, 3, 67, 127
5, 16744, Note_on_c, 3, 69, 127
5, 16752, Note_on_c, 3, 67, 0
5, 16799, Note_on_c, 3, 67, 127
5, 16807, Note_on_c, 3, 69, 0
5, 16858, Note_on_c, 3, 67, 0
5, 16861, Note_on_c, 3, 65, 127
5, 17152, Note_on_c, 3, 69, 127
5, 17155, Note_on_c, 3, 65, 0
5, 17214, Note_on_c, 3, 69, 0
5, 17222, Note_on_c, 3, 65, 127
5, 17507, Note_on_c, 3, 65, 0
5, 17515, Note_on_c, 3, 69, 127
5, 17564, Note_on_c, 3, 67, 127
5, 17573, Note_on_c, 3, 69, 0
5, 17605, Note_on_c, 3, 65, 127
5, 17612, Note_on_c, 3, 67, 0
5, 17654, Note_on_c, 3, 65, 0
5, 17669, Note_on_c, 3, 67, 127
5, 17719, Note_on_c, 3, 67, 0
5, 17723, Note_on_c, 3, 65, 127
5, 17754, Note_on_c, 3, 65, 0
5, 17775, Note_on_c, 3, 65, 127
5, 18177, Note_on_c, 3, 65, 0
5, 18179, Note_on_c, 3, 62, 127
5, 18218, Note_on_c, 3, 62, 0
5, 18236, Note_on_c, 3, 65, 127
5, 18417, Note_on_c, 3, 65, 0
5, 18418, Note_on_c, 3, 62, 127
5, 18470, Note_on_c, 3, 62, 0
5, 18471, Note_on_c, 3, 64, 127
5, 18528, Note_on_c, 3, 64, 0
5, 18535, Note_on_c, 3, 65, 127
5, 18648, Note_on_c, 3, 65, 0
5, 18652, Note_on_c, 3, 69, 127
5, 18784, Note_on_c, 3, 70, 127
5, 18789, Note_on_c, 3, 69, 0
5, 18809, Note_on_c, 3, 70, 0
5, 18814, Note_on_c, 3, 69, 127
5, 18829, Note_on_c, 3, 67, 127
5, 18834, Note_on_c, 3, 69, 0
5, 19265, Note_on_c, 3, 67, 0
5, 19683, Note_on_c, 3, 69, 127
5, 19800, Note_on_c, 3, 72, 127
5, 19801, Note_on_c, 3, 69, 0
5, 19911, Note_on_c, 3, 72, 0
5, 19923, Note_on_c, 3, 74, 127
5, 20040, Note_on_c, 3, 74, 0
5, 20041, Note_on_c, 3, 76, 127
5, 20148, Note_on_c, 3, 76, 0
5, 20159, Note_on_c, 3, 74, 127
5, 20334, Note_on_c, 3, 74, 0
5, 20340, Note_on_c, 3, 69, 127
5, 20456, Note_on_c, 3, 69, 0
5, 20456, Note_on_c, 3, 67, 127
5, 20511, Note_on_c, 3, 65, 127
5, 20515, Note_on_c, 3, 67, 0
5, 20573, Note_on_c, 3, 65, 0
5, 20573, Note_on_c, 3, 67, 117
5, 20624, Note_on_c, 3, 67, 0
5, 20629, Note_on_c, 3, 69, 127
5, 21024, Note_on_c, 3, 69, 0
5, 21114, Note_on_c, 3, 76, 127
5, 21239, Note_on_c, 3, 74, 125
5, 21248, Note_on_c, 3, 76, 0
5, 21352, Note_on_c, 3, 72, 127
5, 21359, Note_on_c, 3, 74, 0
5, 21477, Note_on_c, 3, 74, 127
5, 21485, Note_on_c, 3, 72, 0
5, 21600, Note_on_c, 3, 74, 0
5, 21600, Note_on_c, 3, 69, 107
5, 21719, Note_on_c, 3, 72, 127
5, 21732, Note_on_c, 3, 69, 0
5, 21844, Note_on_c, 3, 74, 127
5, 21851, Note_on_c, 3, 72, 0
5, 21960, Note_on_c, 3, 76, 127
5, 21963, Note_on_c, 3, 74, 0
5, 22065, Note_on_c, 3, 76, 0
5, 22079, Note_on_c, 3, 74, 127
5, 22268, Note_on_c, 3, 69, 127
5, 22271, Note_on_c, 3, 74, 0
5, 22382, Note_on_c, 3, 67, 125
5, 22383, Note_on_c, 3, 69, 0
5, 22439, Note_on_c, 3, 65, 125
5, 22446, Note_on_c, 3, 67, 0
5, 22496, Note_on_c, 3, 67, 113
5, 22498, Note_on_c, 3, 65, 0
5, 22556, Note_on_c, 3, 69, 127
5, 22557, Note_on_c, 3, 67, 0
5, 22943, Note_on_c, 3, 69, 0
5, 23030, Note_on_c, 3, 76, 127
5, 23151, Note_on_c, 3, 74, 127
5, 23159, Note_on_c, 3, 76, 0
5, 23266, Note_on_c, 3, 72, 127
5, 23267, Note_on_c, 3, 74, 0
5, 23397, Note_on_c, 3, 72, 0
5, 23453, Note_on_c, 3, 57, 127
5, 23508, Note_on_c, 3, 57, 0
5, 23521, Note_on_c, 3, 60, 127
5, 24137, Note_on_c, 3, 60, 0
5, 24165, Note_on_c, 3, 69, 127
5, 24224, Note_on_c, 3, 69, 0
5, 24234, Note_on_c, 3, 67, 127
5, 24294, Note_on_c, 3, 67, 0
5, 24297, Note_on_c, 3, 65, 127
5, 24362, Note_on_c, 3, 65, 0
5, 24380, Note_on_c, 3, 67, 127
5, 24410, Note_on_c, 3, 67, 0
5, 24415, Note_on_c, 3, 69, 127
5, 24452, Note_on_c, 3, 69, 0
5, 24472, Note_on_c, 3, 69, 127
5, 24541, Note_on_c, 3, 69, 0
5, 24546, Note_on_c, 3, 65, 127
5, 24838, Note_on_c, 3, 65, 0
5, 24838, Note_on_c, 3, 69, 127
5, 24889, Note_on_c, 3, 69, 0
5, 24900, Note_on_c, 3, 65, 127
5, 25137, Note_on_c, 3, 65, 0
5, 25156, Note_on_c, 3, 69, 127
5, 25224, Note_on_c, 3, 67, 127
5, 25229, Note_on_c, 3, 69, 0
5, 25265, Note_on_c, 3, 65, 127
5, 25269, Note_on_c, 3, 67, 0
5, 25311, Note_on_c, 3, 65, 0
5, 25324, Note_on_c, 3, 67, 127
5, 25375, Note_on_c, 3, 67, 0
5, 25382, Note_on_c, 3, 65, 127
5, 25416, Note_on_c, 3, 65, 0
5, 25445, Note_on_c, 3, 65, 127
5, 25857, Note_on_c, 3, 65, 0
5, 25862, Note_on_c, 3, 62, 127
5, 25905, Note_on_c, 3, 62, 0
5, 25918, Note_on_c, 3, 65, 127
5, 26099, Note_on_c, 3, 65, 0
5, 26101, Note_on_c, 3, 62, 127
5, 26149, Note_on_c, 3, 62, 0
5, 26155, Note_on_c, 3, 64, 127
5, 26218, Note_on_c, 3, 65, 127
5, 26228, Note_on_c, 3, 64, 0
5, 26326, Note_on_c, 3, 65, 0
5, 26333, Note_on_c, 3, 69, 127
5, 26469, Note_on_c, 3, 70, 127
5, 26476, Note_on_c, 3, 69, 0
5, 26497, Note_on_c, 3, 69, 127
5, 26500, Note_on_c, 3, 70, 0
5, 26520, Note_on_c, 3, 67, 127
5, 26527, Note_on_c, 3, 69, 0
5, 26981, Note_on_c, 3, 67, 0
5, 27363, Note_on_c, 3, 69, 127
5, 27486, Note_on_c, 3, 72, 125
5, 27501, Note_on_c, 3, 69, 0
5, 27604, Note_on_c, 3, 74, 127
5, 27607, Note_on_c, 3, 72, 0
5, 27718, Note_on_c, 3, 74, 0
5, 27724, Note_on_c, 3, 76, 127
5, 27829, Note_on_c, 3, 76, 0
5, 27840, Note_on_c, 3, 74, 127
5, 28027, Note_on_c, 3, 69, 117
5, 28048, Note_on_c, 3, 74, 0
5, 28142, Note_on_c, 3, 67, 127
5, 28143, Note_on_c, 3, 69, 0
5, 28200, Note_on_c, 3, 65, 117
5, 28204, Note_on_c, 3, 67, 0
5, 28257, Note_on_c, 3, 65, 0
5, 28257, Note_on_c, 3, 67, 113
5, 28314, Note_on_c, 3, 67, 0
5, 28314, Note_on_c, 3, 69, 127
5, 28715, Note_on_c, 3, 69, 0
5, 28739, Note_on_c, 3, 69, 127
5, 28793, Note_on_c, 3, 76, 127
5, 28795, Note_on_c, 3, 69, 0
5, 28910, Note_on_c, 3, 76, 0
5, 28913, Note_on_c, 3, 74, 127
5, 29031, Note_on_c, 3, 72, 125
5, 29032, Note_on_c, 3, 74, 0
5, 29156, Note_on_c, 3, 74, 127
5, 29163, Note_on_c, 3, 72, 0
5, 29279, Note_on_c, 3, 69, 127
5, 29282, Note_on_c, 3, 74, 0
5, 29375, Control_c, 3, 7, 126
5, 29385, Control_c, 3, 7, 125
5, 29390, Control_c, 3, 7, 124
5, 29402, Note_on_c, 3, 72, 127
5, 29408, Note_on_c, 3, 69, 0
5, 29440, Control_c, 3, 7, 123
5, 29505, Control_c, 3, 7, 122
5, 29515, Control_c, 3, 7, 121
5, 29520, Note_on_c, 3, 74, 127
5, 29523, Control_c, 3, 7, 120
5, 29526, Note_on_c, 3, 72, 0
5, 29526, Control_c, 3, 7, 119
5, 29585, Control_c, 3, 7, 118
5, 29630, Control_c, 3, 7, 117
5, 29635, Control_c, 3, 7, 116
5, 29639, Note_on_c, 3, 76, 117
5, 29640, Control_c, 3, 7, 115
5, 29644, Note_on_c, 3, 74, 0
5, 29644, Control_c, 3, 7, 114
5, 29699, Control_c, 3, 7, 113
5, 29703, Control_c, 3, 7, 112
5, 29756, Note_on_c, 3, 76, 0
5, 29758, Control_c, 3, 7, 111
5, 29758, Note_on_c, 3, 74, 127
5, 29762, Control_c, 3, 7, 110
5, 29768, Control_c, 3, 7, 109
5, 29845, Control_c, 3, 7, 108
5, 29850, Control_c, 3, 7, 107
5, 29855, Control_c, 3, 7, 106
5, 29865, Control_c, 3, 7, 105
5, 29905, Control_c, 3, 7, 104
5, 29910, Control_c, 3, 7, 103
5, 29948, Note_on_c, 3, 69, 127
5, 29955, Note_on_c, 3, 74, 0
5, 29965, Control_c, 3, 7, 102
5, 29975, Control_c, 3, 7, 101
5, 29980, Control_c, 3, 7, 100
5, 30012, Control_c, 3, 7, 99
5, 30017, Control_c, 3, 7, 98
5, 30022, Control_c, 3, 7, 97
5, 30025, Control_c, 3, 7, 96
5, 30056, Note_on_c, 3, 67, 117
5, 30058, Note_on_c, 3, 69, 0
5, 30063, Control_c, 3, 7, 95
5, 30071, Control_c, 3, 7, 94
5, 30076, Control_c, 3, 7, 93
5, 30081, Control_c, 3, 7, 92
5, 30115, Control_c, 3, 7, 91
5, 30124, Control_c, 3, 7, 90
5, 30129, Control_c, 3, 7, 89
5, 30132, Control_c, 3, 7, 88
5, 30132, Note_on_c, 3, 65, 117
5, 30137, Control_c, 3, 7, 87
5, 30146, Note_on_c, 3, 67, 0
5, 30146, Control_c, 3, 7, 86
5, 30186, Note_on_c, 3, 67, 113
5, 30190, Note_on_c, 3, 65, 0
5, 30205, Control_c, 3, 7, 85
5, 30210, Control_c, 3, 7, 84
5, 30237, Note_on_c, 3, 67, 0
5, 30238, Note_on_c, 3, 69, 127
5, 30248, Control_c, 3, 7, 83
5, 30253, Control_c, 3, 7, 82
5, 30258, Control_c, 3, 7, 81
5, 30345, Control_c, 3, 7, 80
5, 30350, Control_c, 3, 7, 79
5, 30369, Control_c, 3, 7, 78
5, 30385, Control_c, 3, 7, 77
5, 30400, Control_c, 3, 7, 76
5, 30470, Control_c, 3, 7, 75
5, 30489, Control_c, 3, 7, 74
5, 30499, Control_c, 3, 7, 73
5, 30510, Control_c, 3, 7, 72
5, 30545, Control_c, 3, 7, 71
5, 30550, Control_c, 3, 7, 70
5, 30555, Control_c, 3, 7, 69
5, 30560, Control_c, 3, 7, 68
5, 30607, Control_c, 3, 7, 67
5, 30612, Control_c, 3, 7, 65
5, 30617, Control_c, 3, 7, 64
5, 30644, Note_on_c, 3, 69, 0
5, 30662, Note_on_c, 3, 69, 117
5, 30667, Control_c, 3, 7, 63
5, 30672, Control_c, 3, 7, 62
5, 30677, Control_c, 3, 7, 61
5, 30716, Note_on_c, 3, 76, 127
5, 30720, Note_on_c, 3, 69, 0
5, 30723, Control_c, 3, 7, 60
5, 30728, Control_c, 3, 7, 59
5, 30732, Control_c, 3, 7, 57
5, 30737, Control_c, 3, 7, 56
5, 30745, Control_c, 3, 7, 55
5, 30798, Control_c, 3, 7, 54
5, 30803, Control_c, 3, 7, 53
5, 30805, Control_c, 3, 7, 52
5, 30810, Control_c, 3, 7, 51
5, 30835, Note_on_c, 3, 74, 113
5, 30836, Note_on_c, 3, 76, 0
5, 30870, Control_c, 3, 7, 50
5, 30880, Control_c, 3, 7, 48
5, 30880, Control_c, 3, 7, 49
5, 30910, Control_c, 3, 7, 47
5, 30915, Control_c, 3, 7, 46
5, 30920, Control_c, 3, 7, 45
5, 30925, Control_c, 3, 7, 44
5, 30930, Control_c, 3, 7, 43
5, 30940, Control_c, 3, 7, 42
5, 30954, Note_on_c, 3, 74, 0
5, 30955, Control_c, 3, 7, 41
5, 30955, Note_on_c, 3, 72, 127
5, 30970, Control_c, 3, 7, 40
5, 30975, Control_c, 3, 7, 39
5, 30980, Control_c, 3, 7, 38
5, 30985, Control_c, 3, 7, 37
5, 31012, Control_c, 3, 7, 36
5, 31015, Control_c, 3, 7, 35
5, 31020, Control_c, 3, 7, 34
5, 31045, Control_c, 3, 7, 33
5, 31050, Control_c, 3, 7, 32
5, 31055, Control_c, 3, 7, 31
5, 31060, Control_c, 3, 7, 30
5, 31065, Control_c, 3, 7, 29
5, 31070, Control_c, 3, 7, 27
5, 31079, Note_on_c, 3, 74, 117
5, 31086, Note_on_c, 3, 72, 0
5, 31096, Control_c, 3, 7, 26
5, 31101, Control_c, 3, 7, 25
5, 31105, Control_c, 3, 7, 24
5, 31115, Control_c, 3, 7, 23
5, 31141, Control_c, 3, 7, 22
5, 31150, Note_on_c, 3, 74, 0
5, 31150, Control_c, 3, 7, 21
5, 31155, Control_c, 3, 7, 20
5, 31174, Control_c, 3, 7, 19
5, 31179, Control_c, 3, 7, 18
5, 31189, Control_c, 3, 7, 17
5, 31219, Control_c, 3, 7, 16
5, 31225, Control_c, 3, 7, 15
5, 31230, Control_c, 3, 7, 14
5, 31235, Control_c, 3, 7, 13
5, 31250, Control_c, 3, 7, 12
5, 31265, Control_c, 3, 7, 11
5, 31275, Control_c, 3, 7, 10
5, 31300, Control_c, 3, 7, 9
5, 31305, Control_c, 3, 7, 8
5, 31315, Control_c, 3, 7, 7
5, 31330, Control_c, 3, 7, 6
5, 31332, Control_c, 3, 7, 5
5, 31342, Control_c, 3, 7, 4
5, 31345, Control_c, 3, 7, 3
5, 31350, Control_c, 3, 7, 2
5, 31355, Control_c, 3, 7, 1
5, 31365, Control_c, 3, 7, 0
5, 31365, End_track
6, 0, Start_track
6, 0, MIDI_port, 0
6, 0, Title_t, "Accoustic Guitar (nylon)"
6, 0, Program_c, 5, 25
6, 0, Control_c, 5, 7, 127
6, 0, Control_c, 5, 10, 77
6, 0, Program_c, 5, 25
6, 2402, Note_on_c, 5, 60, 91
6, 2402, Note_on_c, 5, 57, 103
6, 2404, Note_on_c, 5, 53, 97
6, 2465, Note_on_c, 5, 57, 0
6, 2471, Note_on_c, 5, 60, 0
6, 2475, Note_on_c, 5, 53, 0
6, 2527, Note_on_c, 5, 60, 91
6, 2528, Note_on_c, 5, 57, 103
6, 2529, Note_on_c, 5, 53, 103
6, 2576, Note_on_c, 5, 57, 0
6, 2578, Note_on_c, 5, 60, 0
6, 2585, Note_on_c, 5, 53, 0
6, 2645, Note_on_c, 5, 57, 115
6, 2645, Note_on_c, 5, 60, 93
6, 2647, Note_on_c, 5, 53, 103
6, 2701, Note_on_c, 5, 57, 0
6, 2703, Note_on_c, 5, 60, 0
6, 2705, Note_on_c, 5, 53, 0
6, 2757, Note_on_c, 5, 60, 93
6, 2758, Note_on_c, 5, 57, 107
6, 2760, Note_on_c, 5, 53, 97
6, 2803, Note_on_c, 5, 57, 0
6, 2805, Note_on_c, 5, 53, 0
6, 2805, Note_on_c, 5, 60, 0
6, 2821, Note_on_c, 5, 60, 87
6, 2821, Note_on_c, 5, 57, 107
6, 2823, Note_on_c, 5, 53, 93
6, 2860, Note_on_c, 5, 60, 0
6, 2864, Note_on_c, 5, 57, 0
6, 2865, Note_on_c, 5, 53, 0
6, 2882, Note_on_c, 5, 53, 103
6, 2882, Note_on_c, 5, 57, 118
6, 2883, Note_on_c, 5, 62, 118
6, 2945, Note_on_c, 5, 62, 0
6, 2945, Note_on_c, 5, 57, 0
6, 2950, Note_on_c, 5, 53, 0
6, 3001, Note_on_c, 5, 62, 103
6, 3001, Note_on_c, 5, 57, 107
6, 3001, Note_on_c, 5, 53, 97
6, 3064, Note_on_c, 5, 57, 0
6, 3067, Note_on_c, 5, 62, 0
6, 3075, Note_on_c, 5, 53, 0
6, 3125, Note_on_c, 5, 57, 107
6, 3125, Note_on_c, 5, 62, 97
6, 3125, Note_on_c, 5, 53, 97
6, 3189, Note_on_c, 5, 57, 0
6, 3191, Note_on_c, 5, 62, 0
6, 3197, Note_on_c, 5, 53, 0
6, 3241, Note_on_c, 5, 62, 93
6, 3241, Note_on_c, 5, 57, 107
6, 3242, Note_on_c, 5, 53, 93
6, 3285, Note_on_c, 5, 62, 0
6, 3287, Note_on_c, 5, 57, 0
6, 3290, Note_on_c, 5, 53, 0
6, 3302, Note_on_c, 5, 57, 103
6, 3304, Note_on_c, 5, 62, 97
6, 3304, Note_on_c, 5, 53, 103
6, 3341, Note_on_c, 5, 53, 0
6, 3342, Note_on_c, 5, 57, 0
6, 3344, Note_on_c, 5, 62, 0
6, 3360, Note_on_c, 5, 62, 121
6, 3360, Note_on_c, 5, 58, 118
6, 3361, Note_on_c, 5, 55, 121
6, 3418, Note_on_c, 5, 58, 0
6, 3421, Note_on_c, 5, 62, 0
6, 3423, Note_on_c, 5, 55, 0
6, 3476, Note_on_c, 5, 62, 115
6, 3477, Note_on_c, 5, 58, 118
6, 3477, Note_on_c, 5, 55, 103
6, 3532, Note_on_c, 5, 58, 0
6, 3534, Note_on_c, 5, 62, 0
6, 3539, Note_on_c, 5, 55, 0
6, 3600, Note_on_c, 5, 58, 103
6, 3600, Note_on_c, 5, 62, 107
6, 3602, Note_on_c, 5, 55, 103
6, 3663, Note_on_c, 5, 62, 0
6, 3663, Note_on_c, 5, 58, 0
6, 3667, Note_on_c, 5, 55, 0
6, 3721, Note_on_c, 5, 58, 103
6, 3722, Note_on_c, 5, 62, 115
6, 3722, Note_on_c, 5, 55, 103
6, 3762, Note_on_c, 5, 62, 0
6, 3762, Note_on_c, 5, 58, 0
6, 3765, Note_on_c, 5, 55, 0
6, 3779, Note_on_c, 5, 58, 107
6, 3779, Note_on_c, 5, 62, 115
6, 3781, Note_on_c, 5, 55, 97
6, 3816, Note_on_c, 5, 62, 0
6, 3816, Note_on_c, 5, 58, 0
6, 3819, Note_on_c, 5, 55, 0
6, 3836, Note_on_c, 5, 55, 97
6, 3840, Note_on_c, 5, 64, 121
6, 3840, Note_on_c, 5, 60, 121
6, 3896, Note_on_c, 5, 64, 0
6, 3899, Note_on_c, 5, 60, 0
6, 3901, Note_on_c, 5, 55, 0
6, 3955, Note_on_c, 5, 64, 118
6, 3958, Note_on_c, 5, 60, 118
6, 3959, Note_on_c, 5, 55, 115
6, 4015, Note_on_c, 5, 60, 0
6, 4017, Note_on_c, 5, 55, 0
6, 4017, Note_on_c, 5, 64, 0
6, 4073, Note_on_c, 5, 64, 115
6, 4074, Note_on_c, 5, 55, 107
6, 4074, Note_on_c, 5, 60, 103
6, 4143, Note_on_c, 5, 60, 0
6, 4146, Note_on_c, 5, 64, 0
6, 4148, Note_on_c, 5, 55, 0
6, 4198, Note_on_c, 5, 60, 103
6, 4198, Note_on_c, 5, 64, 107
6, 4199, Note_on_c, 5, 55, 103
6, 4241, Note_on_c, 5, 64, 0
6, 4241, Note_on_c, 5, 60, 0
6, 4243, Note_on_c, 5, 55, 0
6, 4259, Note_on_c, 5, 55, 97
6, 4261, Note_on_c, 5, 64, 103
6, 4262, Note_on_c, 5, 60, 103
6, 4293, Note_on_c, 5, 64, 0
6, 4294, Note_on_c, 5, 60, 0
6, 4299, Note_on_c, 5, 55, 0
6, 4322, Note_on_c, 5, 60, 103
6, 4325, Note_on_c, 5, 57, 118
6, 4325, Note_on_c, 5, 53, 118
6, 4381, Note_on_c, 5, 57, 0
6, 4389, Note_on_c, 5, 53, 0
6, 4391, Note_on_c, 5, 60, 0
6, 4443, Note_on_c, 5, 60, 91
6, 4445, Note_on_c, 5, 57, 103
6, 4446, Note_on_c, 5, 53, 97
6, 4501, Note_on_c, 5, 57, 0
6, 4504, Note_on_c, 5, 53, 0
6, 4507, Note_on_c, 5, 60, 0
6, 4567, Note_on_c, 5, 60, 93
6, 4569, Note_on_c, 5, 57, 103
6, 4570, Note_on_c, 5, 53, 93
6, 4628, Note_on_c, 5, 57, 0
6, 4630, Note_on_c, 5, 53, 0
6, 4633, Note_on_c, 5, 60, 0
6, 4685, Note_on_c, 5, 60, 93
6, 4686, Note_on_c, 5, 57, 107
6, 4687, Note_on_c, 5, 53, 93
6, 4730, Note_on_c, 5, 57, 0
6, 4731, Note_on_c, 5, 53, 0
6, 4731, Note_on_c, 5, 60, 0
6, 4746, Note_on_c, 5, 60, 97
6, 4746, Note_on_c, 5, 57, 107
6, 4746, Note_on_c, 5, 53, 93
6, 4786, Note_on_c, 5, 53, 0
6, 4786, Note_on_c, 5, 57, 0
6, 4787, Note_on_c, 5, 60, 0
6, 4807, Note_on_c, 5, 53, 103
6, 4808, Note_on_c, 5, 57, 118
6, 4808, Note_on_c, 5, 62, 118
6, 4868, Note_on_c, 5, 62, 0
6, 4868, Note_on_c, 5, 57, 0
6, 4868, Note_on_c, 5, 53, 0
6, 4924, Note_on_c, 5, 62, 91
6, 4926, Note_on_c, 5, 57, 107
6, 4926, Note_on_c, 5, 53, 93
6, 4981, Note_on_c, 5, 57, 0
6, 4987, Note_on_c, 5, 62, 0
6, 4991, Note_on_c, 5, 53, 0
6, 5045, Note_on_c, 5, 57, 107
6, 5045, Note_on_c, 5, 53, 103
6, 5045, Note_on_c, 5, 62, 103
6, 5098, Note_on_c, 5, 57, 0
6, 5108, Note_on_c, 5, 62, 0
6, 5108, Note_on_c, 5, 53, 0
6, 5161, Note_on_c, 5, 57, 107
6, 5161, Note_on_c, 5, 62, 93
6, 5163, Note_on_c, 5, 53, 93
6, 5204, Note_on_c, 5, 62, 0
6, 5207, Note_on_c, 5, 57, 0
6, 5208, Note_on_c, 5, 53, 0
6, 5224, Note_on_c, 5, 57, 103
6, 5225, Note_on_c, 5, 53, 91
6, 5225, Note_on_c, 5, 62, 97
6, 5264, Note_on_c, 5, 53, 0
6, 5266, Note_on_c, 5, 57, 0
6, 5267, Note_on_c, 5, 62, 0
6, 5283, Note_on_c, 5, 55, 118
6, 5285, Note_on_c, 5, 58, 121
6, 5285, Note_on_c, 5, 62, 115
6, 5341, Note_on_c, 5, 62, 0
6, 5341, Note_on_c, 5, 58, 0
6, 5345, Note_on_c, 5, 55, 0
6, 5404, Note_on_c, 5, 58, 93
6, 5404, Note_on_c, 5, 62, 91
6, 5405, Note_on_c, 5, 53, 97
6, 5408, Note_on_c, 5, 55, 97
6, 5411, Note_on_c, 5, 55, 0
6, 5469, Note_on_c, 5, 58, 0
6, 5472, Note_on_c, 5, 53, 0
6, 5472, Note_on_c, 5, 62, 0
6, 5522, Note_on_c, 5, 58, 107
6, 5522, Note_on_c, 5, 62, 107
6, 5522, Note_on_c, 5, 55, 118
6, 5578, Note_on_c, 5, 62, 0
6, 5582, Note_on_c, 5, 58, 0
6, 5584, Note_on_c, 5, 55, 0
6, 5640, Note_on_c, 5, 62, 97
6, 5640, Note_on_c, 5, 58, 103
6, 5641, Note_on_c, 5, 55, 107
6, 5680, Note_on_c, 5, 58, 0
6, 5680, Note_on_c, 5, 62, 0
6, 5682, Note_on_c, 5, 55, 0
6, 5697, Note_on_c, 5, 58, 93
6, 5699, Note_on_c, 5, 62, 103
6, 5699, Note_on_c, 5, 55, 91
6, 5733, Note_on_c, 5, 62, 0
6, 5733, Note_on_c, 5, 58, 0
6, 5739, Note_on_c, 5, 55, 0
6, 5756, Note_on_c, 5, 55, 103
6, 5760, Note_on_c, 5, 60, 118
6, 5760, Note_on_c, 5, 64, 115
6, 5818, Note_on_c, 5, 60, 0
6, 5819, Note_on_c, 5, 64, 0
6, 5820, Note_on_c, 5, 55, 0
6, 5877, Note_on_c, 5, 64, 103
6, 5878, Note_on_c, 5, 60, 115
6, 5879, Note_on_c, 5, 55, 115
6, 5936, Note_on_c, 5, 55, 0
6, 5936, Note_on_c, 5, 60, 0
6, 5936, Note_on_c, 5, 64, 0
6, 5997, Note_on_c, 5, 64, 103
6, 5997, Note_on_c, 5, 60, 115
6, 5999, Note_on_c, 5, 55, 103
6, 6055, Note_on_c, 5, 64, 0
6, 6056, Note_on_c, 5, 60, 0
6, 6057, Note_on_c, 5, 55, 0
6, 6121, Note_on_c, 5, 60, 103
6, 6122, Note_on_c, 5, 55, 107
6, 6123, Note_on_c, 5, 64, 115
6, 6165, Note_on_c, 5, 64, 0
6, 6166, Note_on_c, 5, 55, 0
6, 6166, Note_on_c, 5, 60, 0
6, 6184, Note_on_c, 5, 60, 103
6, 6184, Note_on_c, 5, 55, 103
6, 6184, Note_on_c, 5, 64, 115
6, 6213, Note_on_c, 5, 64, 0
6, 6215, Note_on_c, 5, 60, 0
6, 6219, Note_on_c, 5, 55, 0
6, 6241, Note_on_c, 5, 60, 97
6, 6244, Note_on_c, 5, 57, 118
6, 6244, Note_on_c, 5, 53, 115
6, 6299, Note_on_c, 5, 57, 0
6, 6304, Note_on_c, 5, 53, 0
6, 6304, Note_on_c, 5, 60, 0
6, 6366, Note_on_c, 5, 60, 93
6, 6366, Note_on_c, 5, 57, 103
6, 6368, Note_on_c, 5, 53, 93
6, 6421, Note_on_c, 5, 57, 0
6, 6424, Note_on_c, 5, 60, 0
6, 6434, Note_on_c, 5, 53, 0
6, 6489, Note_on_c, 5, 60, 103
6, 6489, Note_on_c, 5, 53, 103
6, 6490, Note_on_c, 5, 57, 107
6, 6539, Note_on_c, 5, 57, 0
6, 6546, Note_on_c, 5, 53, 0
6, 6546, Note_on_c, 5, 60, 0
6, 6597, Note_on_c, 5, 60, 103
6, 6598, Note_on_c, 5, 57, 107
6, 6598, Note_on_c, 5, 53, 103
6, 6642, Note_on_c, 5, 57, 0
6, 6643, Note_on_c, 5, 60, 0
6, 6644, Note_on_c, 5, 53, 0
6, 6661, Note_on_c, 5, 60, 97
6, 6663, Note_on_c, 5, 57, 107
6, 6663, Note_on_c, 5, 53, 97
6, 6700, Note_on_c, 5, 57, 0
6, 6702, Note_on_c, 5, 53, 0
6, 6702, Note_on_c, 5, 60, 0
6, 6722, Note_on_c, 5, 53, 103
6, 6722, Note_on_c, 5, 57, 121
6, 6724, Note_on_c, 5, 62, 118
6, 6729, Note_on_c, 5, 61, 97
6, 6732, Note_on_c, 5, 61, 0
6, 6782, Note_on_c, 5, 53, 0
6, 6782, Note_on_c, 5, 57, 0
6, 6785, Note_on_c, 5, 62, 0
6, 6840, Note_on_c, 5, 62, 103
6, 6841, Note_on_c, 5, 57, 107
6, 6842, Note_on_c, 5, 53, 103
6, 6901, Note_on_c, 5, 57, 0
6, 6901, Note_on_c, 5, 62, 0
6, 6903, Note_on_c, 5, 53, 0
6, 6961, Note_on_c, 5, 62, 103
6, 6962, Note_on_c, 5, 57, 118
6, 6963, Note_on_c, 5, 53, 115
6, 7016, Note_on_c, 5, 53, 0
6, 7016, Note_on_c, 5, 57, 0
6, 7021, Note_on_c, 5, 62, 0
6, 7079, Note_on_c, 5, 62, 103
6, 7079, Note_on_c, 5, 57, 118
6, 7080, Note_on_c, 5, 53, 118
6, 7125, Note_on_c, 5, 53, 0
6, 7125, Note_on_c, 5, 57, 0
6, 7125, Note_on_c, 5, 62, 0
6, 7145, Note_on_c, 5, 53, 107
6, 7146, Note_on_c, 5, 57, 107
6, 7146, Note_on_c, 5, 62, 118
6, 7178, Note_on_c, 5, 53, 0
6, 7180, Note_on_c, 5, 57, 0
6, 7184, Note_on_c, 5, 62, 0
6, 7201, Note_on_c, 5, 55, 118
6, 7201, Note_on_c, 5, 58, 122
6, 7201, Note_on_c, 5, 62, 118
6, 7260, Note_on_c, 5, 58, 0
6, 7264, Note_on_c, 5, 55, 0
6, 7267, Note_on_c, 5, 62, 0
6, 7320, Note_on_c, 5, 62, 107
6, 7320, Note_on_c, 5, 58, 121
6, 7320, Note_on_c, 5, 55, 115
6, 7375, Note_on_c, 5, 58, 0
6, 7377, Note_on_c, 5, 62, 0
6, 7382, Note_on_c, 5, 55, 0
6, 7440, Note_on_c, 5, 58, 122
6, 7440, Note_on_c, 5, 55, 118
6, 7441, Note_on_c, 5, 62, 121
6, 7499, Note_on_c, 5, 58, 0
6, 7501, Note_on_c, 5, 62, 0
6, 7501, Note_on_c, 5, 55, 0
6, 7554, Note_on_c, 5, 58, 121
6, 7556, Note_on_c, 5, 62, 107
6, 7557, Note_on_c, 5, 55, 115
6, 7596, Note_on_c, 5, 58, 0
6, 7597, Note_on_c, 5, 62, 0
6, 7599, Note_on_c, 5, 55, 0
6, 7617, Note_on_c, 5, 58, 97
6, 7618, Note_on_c, 5, 62, 107
6, 7618, Note_on_c, 5, 55, 97
6, 7653, Note_on_c, 5, 58, 0
6, 7655, Note_on_c, 5, 62, 0
6, 7656, Note_on_c, 5, 55, 0
6, 7677, Note_on_c, 5, 55, 91
6, 7680, Note_on_c, 5, 64, 118
6, 7681, Note_on_c, 5, 60, 118
6, 7744, Note_on_c, 5, 60, 0
6, 7744, Note_on_c, 5, 64, 0
6, 7744, Note_on_c, 5, 55, 0
6, 7799, Note_on_c, 5, 64, 115
6, 7800, Note_on_c, 5, 55, 121
6, 7802, Note_on_c, 5, 60, 118
6, 7855, Note_on_c, 5, 60, 0
6, 7855, Note_on_c, 5, 64, 0
6, 7856, Note_on_c, 5, 55, 0
6, 7918, Note_on_c, 5, 64, 107
6, 7920, Note_on_c, 5, 60, 118
6, 7920, Note_on_c, 5, 55, 115
6, 7980, Note_on_c, 5, 60, 0
6, 7981, Note_on_c, 5, 64, 0
6, 7982, Note_on_c, 5, 55, 0
6, 8037, Note_on_c, 5, 64, 115
6, 8039, Note_on_c, 5, 60, 118
6, 8039, Note_on_c, 5, 55, 115
6, 8081, Note_on_c, 5, 64, 0
6, 8084, Note_on_c, 5, 55, 0
6, 8084, Note_on_c, 5, 60, 0
6, 8103, Note_on_c, 5, 60, 103
6, 8103, Note_on_c, 5, 55, 107
6, 8103, Note_on_c, 5, 64, 115
6, 8132, Note_on_c, 5, 60, 0
6, 8134, Note_on_c, 5, 64, 0
6, 8134, Note_on_c, 5, 55, 0
6, 12004, Note_on_c, 5, 60, 93
6, 12005, Note_on_c, 5, 57, 107
6, 12007, Note_on_c, 5, 53, 97
6, 12070, Note_on_c, 5, 57, 0
6, 12072, Note_on_c, 5, 60, 0
6, 12073, Note_on_c, 5, 53, 0
6, 12125, Note_on_c, 5, 57, 107
6, 12125, Note_on_c, 5, 60, 97
6, 12128, Note_on_c, 5, 53, 107
6, 12168, Note_on_c, 5, 60, 0
6, 12168, Note_on_c, 5, 57, 0
6, 12176, Note_on_c, 5, 53, 0
6, 12248, Note_on_c, 5, 57, 103
6, 12248, Note_on_c, 5, 60, 93
6, 12249, Note_on_c, 5, 53, 93
6, 12292, Note_on_c, 5, 60, 0
6, 12296, Note_on_c, 5, 57, 0
6, 12299, Note_on_c, 5, 53, 0
6, 12360, Note_on_c, 5, 57, 115
6, 12360, Note_on_c, 5, 60, 93
6, 12361, Note_on_c, 5, 53, 97
6, 12402, Note_on_c, 5, 57, 0
6, 12405, Note_on_c, 5, 53, 0
6, 12407, Note_on_c, 5, 60, 0
6, 12478, Note_on_c, 5, 62, 79
6, 12480, Note_on_c, 5, 57, 93
6, 12481, Note_on_c, 5, 53, 87
6, 12492, Note_on_c, 5, 61, 15
6, 12501, Note_on_c, 5, 61, 0
6, 12525, Note_on_c, 5, 53, 0
6, 12526, Note_on_c, 5, 57, 0
6, 12526, Note_on_c, 5, 62, 0
6, 12602, Note_on_c, 5, 62, 107
6, 12604, Note_on_c, 5, 57, 103
6, 12605, Note_on_c, 5, 53, 97
6, 12648, Note_on_c, 5, 57, 0
6, 12650, Note_on_c, 5, 62, 0
6, 12655, Note_on_c, 5, 53, 0
6, 12728, Note_on_c, 5, 62, 107
6, 12728, Note_on_c, 5, 57, 103
6, 12729, Note_on_c, 5, 53, 97
6, 12772, Note_on_c, 5, 62, 0
6, 12774, Note_on_c, 5, 57, 0
6, 12779, Note_on_c, 5, 53, 0
6, 12842, Note_on_c, 5, 62, 103
6, 12843, Note_on_c, 5, 57, 103
6, 12844, Note_on_c, 5, 53, 115
6, 12882, Note_on_c, 5, 62, 0
6, 12883, Note_on_c, 5, 57, 0
6, 12887, Note_on_c, 5, 53, 0
6, 12900, Note_on_c, 5, 62, 107
6, 12901, Note_on_c, 5, 57, 103
6, 12903, Note_on_c, 5, 53, 97
6, 12938, Note_on_c, 5, 53, 0
6, 12940, Note_on_c, 5, 57, 0
6, 12944, Note_on_c, 5, 62, 0
6, 12961, Note_on_c, 5, 55, 107
6, 12961, Note_on_c, 5, 62, 115
6, 12962, Note_on_c, 5, 58, 118
6, 13011, Note_on_c, 5, 58, 0
6, 13016, Note_on_c, 5, 62, 0
6, 13018, Note_on_c, 5, 55, 0
6, 13080, Note_on_c, 5, 58, 118
6, 13081, Note_on_c, 5, 62, 107
6, 13082, Note_on_c, 5, 55, 115
6, 13122, Note_on_c, 5, 62, 0
6, 13124, Note_on_c, 5, 58, 0
6, 13134, Note_on_c, 5, 55, 0
6, 13195, Note_on_c, 5, 62, 115
6, 13196, Note_on_c, 5, 58, 97
6, 13198, Note_on_c, 5, 55, 107
6, 13248, Note_on_c, 5, 62, 0
6, 13252, Note_on_c, 5, 58, 0
6, 13253, Note_on_c, 5, 55, 0
6, 13317, Note_on_c, 5, 62, 115
6, 13317, Note_on_c, 5, 58, 115
6, 13318, Note_on_c, 5, 55, 107
6, 13322, Note_on_c, 5, 61, 67
6, 13326, Note_on_c, 5, 61, 0
6, 13354, Note_on_c, 5, 58, 0
6, 13356, Note_on_c, 5, 62, 0
6, 13359, Note_on_c, 5, 55, 0
6, 13379, Note_on_c, 5, 62, 107
6, 13380, Note_on_c, 5, 58, 97
6, 13380, Note_on_c, 5, 55, 93
6, 13410, Note_on_c, 5, 62, 0
6, 13414, Note_on_c, 5, 55, 0
6, 13414, Note_on_c, 5, 58, 0
6, 13439, Note_on_c, 5, 55, 97
6, 13441, Note_on_c, 5, 64, 121
6, 13441, Note_on_c, 5, 60, 118
6, 13492, Note_on_c, 5, 64, 0
6, 13498, Note_on_c, 5, 60, 0
6, 13503, Note_on_c, 5, 55, 0
6, 13554, Note_on_c, 5, 64, 107
6, 13555, Note_on_c, 5, 60, 107
6, 13556, Note_on_c, 5, 55, 93
6, 13609, Note_on_c, 5, 64, 0
6, 13610, Note_on_c, 5, 60, 0
6, 13614, Note_on_c, 5, 55, 0
6, 13677, Note_on_c, 5, 60, 103
6, 13677, Note_on_c, 5, 64, 115
6, 13678, Note_on_c, 5, 55, 103
6, 13740, Note_on_c, 5, 60, 0
6, 13744, Note_on_c, 5, 55, 0
6, 13744, Note_on_c, 5, 64, 0
6, 13798, Note_on_c, 5, 64, 107
6, 13798, Note_on_c, 5, 60, 103
6, 13800, Note_on_c, 5, 55, 91
6, 13839, Note_on_c, 5, 64, 0
6, 13841, Note_on_c, 5, 60, 0
6, 13844, Note_on_c, 5, 55, 0
6, 13863, Note_on_c, 5, 55, 97
6, 13863, Note_on_c, 5, 60, 103
6, 13865, Note_on_c, 5, 64, 118
6, 13894, Note_on_c, 5, 64, 0
6, 13897, Note_on_c, 5, 60, 0
6, 13902, Note_on_c, 5, 55, 0
6, 13926, Note_on_c, 5, 60, 107
6, 13926, Note_on_c, 5, 57, 121
6, 13927, Note_on_c, 5, 53, 121
6, 13981, Note_on_c, 5, 57, 0
6, 13984, Note_on_c, 5, 53, 0
6, 13984, Note_on_c, 5, 60, 0
6, 14044, Note_on_c, 5, 60, 87
6, 14045, Note_on_c, 5, 57, 107
6, 14046, Note_on_c, 5, 53, 93
6, 14100, Note_on_c, 5, 57, 0
6, 14103, Note_on_c, 5, 60, 0
6, 14106, Note_on_c, 5, 53, 0
6, 14162, Note_on_c, 5, 60, 91
6, 14162, Note_on_c, 5, 57, 103
6, 14163, Note_on_c, 5, 53, 93
6, 14214, Note_on_c, 5, 57, 0
6, 14216, Note_on_c, 5, 53, 0
6, 14219, Note_on_c, 5, 60, 0
6, 14282, Note_on_c, 5, 60, 93
6, 14282, Note_on_c, 5, 57, 103
6, 14284, Note_on_c, 5, 53, 97
6, 14324, Note_on_c, 5, 57, 0
6, 14326, Note_on_c, 5, 53, 0
6, 14327, Note_on_c, 5, 60, 0
6, 14340, Note_on_c, 5, 60, 91
6, 14342, Note_on_c, 5, 57, 118
6, 14343, Note_on_c, 5, 53, 91
6, 14379, Note_on_c, 5, 57, 0
6, 14382, Note_on_c, 5, 53, 0
6, 14382, Note_on_c, 5, 60, 0
6, 14401, Note_on_c, 5, 57, 115
6, 14402, Note_on_c, 5, 53, 97
6, 14402, Note_on_c, 5, 62, 118
6, 14459, Note_on_c, 5, 62, 0
6, 14461, Note_on_c, 5, 57, 0
6, 14462, Note_on_c, 5, 53, 0
6, 14520, Note_on_c, 5, 62, 97
6, 14521, Note_on_c, 5, 57, 97
6, 14522, Note_on_c, 5, 53, 103
6, 14577, Note_on_c, 5, 57, 0
6, 14579, Note_on_c, 5, 62, 0
6, 14580, Note_on_c, 5, 53, 0
6, 14645, Note_on_c, 5, 62, 97
6, 14646, Note_on_c, 5, 57, 107
6, 14647, Note_on_c, 5, 53, 103
6, 14703, Note_on_c, 5, 57, 0
6, 14709, Note_on_c, 5, 62, 0
6, 14711, Note_on_c, 5, 53, 0
6, 14761, Note_on_c, 5, 62, 103
6, 14761, Note_on_c, 5, 57, 107
6, 14762, Note_on_c, 5, 53, 97
6, 14808, Note_on_c, 5, 57, 0
6, 14808, Note_on_c, 5, 62, 0
6, 14811, Note_on_c, 5, 53, 0
6, 14825, Note_on_c, 5, 57, 103
6, 14827, Note_on_c, 5, 53, 91
6, 14827, Note_on_c, 5, 62, 93
6, 14859, Note_on_c, 5, 53, 0
6, 14861, Note_on_c, 5, 57, 0
6, 14864, Note_on_c, 5, 62, 0
6, 14882, Note_on_c, 5, 55, 115
6, 14883, Note_on_c, 5, 58, 118
6, 14883, Note_on_c, 5, 62, 115
6, 14935, Note_on_c, 5, 62, 0
6, 14935, Note_on_c, 5, 58, 0
6, 14938, Note_on_c, 5, 55, 0
6, 15003, Note_on_c, 5, 55, 97
6, 15004, Note_on_c, 5, 58, 103
6, 15004, Note_on_c, 5, 62, 97
6, 15049, Note_on_c, 5, 58, 0
6, 15053, Note_on_c, 5, 62, 0
6, 15062, Note_on_c, 5, 55, 0
6, 15122, Note_on_c, 5, 58, 103
6, 15124, Note_on_c, 5, 55, 103
6, 15124, Note_on_c, 5, 62, 103
6, 15174, Note_on_c, 5, 62, 0
6, 15175, Note_on_c, 5, 58, 0
6, 15177, Note_on_c, 5, 55, 0
6, 15241, Note_on_c, 5, 58, 103
6, 15241, Note_on_c, 5, 62, 103
6, 15241, Note_on_c, 5, 55, 107
6, 15281, Note_on_c, 5, 62, 0
6, 15283, Note_on_c, 5, 55, 0
6, 15283, Note_on_c, 5, 58, 0
6, 15299, Note_on_c, 5, 58, 97
6, 15301, Note_on_c, 5, 62, 115
6, 15302, Note_on_c, 5, 55, 91
6, 15333, Note_on_c, 5, 62, 0
6, 15336, Note_on_c, 5, 58, 0
6, 15338, Note_on_c, 5, 55, 0
6, 15360, Note_on_c, 5, 55, 93
6, 15362, Note_on_c, 5, 64, 118
6, 15363, Note_on_c, 5, 60, 118
6, 15415, Note_on_c, 5, 64, 0
6, 15418, Note_on_c, 5, 60, 0
6, 15422, Note_on_c, 5, 55, 0
6, 15480, Note_on_c, 5, 64, 107
6, 15481, Note_on_c, 5, 60, 107
6, 15482, Note_on_c, 5, 55, 115
6, 15531, Note_on_c, 5, 64, 0
6, 15534, Note_on_c, 5, 60, 0
6, 15538, Note_on_c, 5, 55, 0
6, 15603, Note_on_c, 5, 64, 103
6, 15604, Note_on_c, 5, 60, 97
6, 15605, Note_on_c, 5, 55, 103
6, 15652, Note_on_c, 5, 64, 0
6, 15655, Note_on_c, 5, 55, 0
6, 15655, Note_on_c, 5, 60, 0
6, 15715, Note_on_c, 5, 60, 97
6, 15716, Note_on_c, 5, 64, 107
6, 15718, Note_on_c, 5, 55, 103
6, 15760, Note_on_c, 5, 64, 0
6, 15760, Note_on_c, 5, 60, 0
6, 15762, Note_on_c, 5, 55, 0
6, 15779, Note_on_c, 5, 60, 107
6, 15781, Note_on_c, 5, 55, 103
6, 15781, Note_on_c, 5, 64, 115
6, 15812, Note_on_c, 5, 64, 0
6, 15813, Note_on_c, 5, 60, 0
6, 15814, Note_on_c, 5, 55, 0
6, 19682, Note_on_c, 5, 60, 103
6, 19685, Note_on_c, 5, 57, 118
6, 19685, Note_on_c, 5, 53, 118
6, 19741, Note_on_c, 5, 57, 0
6, 19749, Note_on_c, 5, 53, 0
6, 19751, Note_on_c, 5, 60, 0
6, 19803, Note_on_c, 5, 60, 91
6, 19805, Note_on_c, 5, 57, 103
6, 19806, Note_on_c, 5, 53, 97
6, 19861, Note_on_c, 5, 57, 0
6, 19864, Note_on_c, 5, 53, 0
6, 19867, Note_on_c, 5, 60, 0
6, 19927, Note_on_c, 5, 60, 93
6, 19929, Note_on_c, 5, 57, 103
6, 19930, Note_on_c, 5, 53, 93
6, 19988, Note_on_c, 5, 57, 0
6, 19990, Note_on_c, 5, 53, 0
6, 19993, Note_on_c, 5, 60, 0
6, 20045, Note_on_c, 5, 60, 93
6, 20046, Note_on_c, 5, 57, 107
6, 20047, Note_on_c, 5, 53, 93
6, 20090, Note_on_c, 5, 57, 0
6, 20091, Note_on_c, 5, 53, 0
6, 20091, Note_on_c, 5, 60, 0
6, 20106, Note_on_c, 5, 60, 97
6, 20106, Note_on_c, 5, 57, 107
6, 20106, Note_on_c, 5, 53, 93
6, 20146, Note_on_c, 5, 53, 0
6, 20146, Note_on_c, 5, 57, 0
6, 20147, Note_on_c, 5, 60, 0
6, 20167, Note_on_c, 5, 53, 103
6, 20168, Note_on_c, 5, 57, 118
6, 20168, Note_on_c, 5, 62, 118
6, 20228, Note_on_c, 5, 62, 0
6, 20228, Note_on_c, 5, 57, 0
6, 20228, Note_on_c, 5, 53, 0
6, 20284, Note_on_c, 5, 62, 91
6, 20286, Note_on_c, 5, 57, 107
6, 20286, Note_on_c, 5, 53, 93
6, 20341, Note_on_c, 5, 57, 0
6, 20347, Note_on_c, 5, 62, 0
6, 20351, Note_on_c, 5, 53, 0
6, 20405, Note_on_c, 5, 57, 107
6, 20405, Note_on_c, 5, 53, 103
6, 20405, Note_on_c, 5, 62, 103
6, 20458, Note_on_c, 5, 57, 0
6, 20468, Note_on_c, 5, 62, 0
6, 20468, Note_on_c, 5, 53, 0
6, 20521, Note_on_c, 5, 57, 107
6, 20521, Note_on_c, 5, 62, 93
6, 20523, Note_on_c, 5, 53, 93
6, 20564, Note_on_c, 5, 62, 0
6, 20567, Note_on_c, 5, 57, 0
6, 20568, Note_on_c, 5, 53, 0
6, 20584, Note_on_c, 5, 57, 103
6, 20585, Note_on_c, 5, 53, 91
6, 20585, Note_on_c, 5, 62, 97
6, 20624, Note_on_c, 5, 53, 0
6, 20626, Note_on_c, 5, 57, 0
6, 20627, Note_on_c, 5, 62, 0
6, 20643, Note_on_c, 5, 55, 118
6, 20645, Note_on_c, 5, 58, 121
6, 20645, Note_on_c, 5, 62, 115
6, 20701, Note_on_c, 5, 62, 0
6, 20701, Note_on_c, 5, 58, 0
6, 20705, Note_on_c, 5, 55, 0
6, 20764, Note_on_c, 5, 58, 93
6, 20764, Note_on_c, 5, 62, 91
6, 20765, Note_on_c, 5, 53, 97
6, 20768, Note_on_c, 5, 55, 97
6, 20771, Note_on_c, 5, 55, 0
6, 20829, Note_on_c, 5, 58, 0
6, 20832, Note_on_c, 5, 53, 0
6, 20832, Note_on_c, 5, 62, 0
6, 20882, Note_on_c, 5, 58, 107
6, 20882, Note_on_c, 5, 62, 107
6, 20882, Note_on_c, 5, 55, 118
6, 20938, Note_on_c, 5, 62, 0
6, 20942, Note_on_c, 5, 58, 0
6, 20944, Note_on_c, 5, 55, 0
6, 21000, Note_on_c, 5, 62, 97
6, 21000, Note_on_c, 5, 58, 103
6, 21001, Note_on_c, 5, 55, 107
6, 21040, Note_on_c, 5, 58, 0
6, 21040, Note_on_c, 5, 62, 0
6, 21042, Note_on_c, 5, 55, 0
6, 21057, Note_on_c, 5, 58, 93
6, 21059, Note_on_c, 5, 62, 103
6, 21059, Note_on_c, 5, 55, 91
6, 21093, Note_on_c, 5, 62, 0
6, 21093, Note_on_c, 5, 58, 0
6, 21099, Note_on_c, 5, 55, 0
6, 21116, Note_on_c, 5, 55, 103
6, 21120, Note_on_c, 5, 60, 118
6, 21120, Note_on_c, 5, 64, 115
6, 21178, Note_on_c, 5, 60, 0
6, 21179, Note_on_c, 5, 64, 0
6, 21180, Note_on_c, 5, 55, 0
6, 21237, Note_on_c, 5, 64, 103
6, 21238, Note_on_c, 5, 60, 115
6, 21239, Note_on_c, 5, 55, 115
6, 21296, Note_on_c, 5, 55, 0
6, 21296, Note_on_c, 5, 60, 0
6, 21296, Note_on_c, 5, 64, 0
6, 21357, Note_on_c, 5, 64, 103
6, 21357, Note_on_c, 5, 60, 115
6, 21359, Note_on_c, 5, 55, 103
6, 21415, Note_on_c, 5, 64, 0
6, 21416, Note_on_c, 5, 60, 0
6, 21417, Note_on_c, 5, 55, 0
6, 21481, Note_on_c, 5, 60, 103
6, 21482, Note_on_c, 5, 55, 107
6, 21483, Note_on_c, 5, 64, 115
6, 21525, Note_on_c, 5, 64, 0
6, 21526, Note_on_c, 5, 55, 0
6, 21526, Note_on_c, 5, 60, 0
6, 21544, Note_on_c, 5, 60, 103
6, 21544, Note_on_c, 5, 55, 103
6, 21544, Note_on_c, 5, 64, 115
6, 21573, Note_on_c, 5, 64, 0
6, 21575, Note_on_c, 5, 60, 0
6, 21579, Note_on_c, 5, 55, 0
6, 21601, Note_on_c, 5, 60, 97
6, 21604, Note_on_c, 5, 57, 118
6, 21604, Note_on_c, 5, 53, 115
6, 21659, Note_on_c, 5, 57, 0
6, 21664, Note_on_c, 5, 53, 0
6, 21664, Note_on_c, 5, 60, 0
6, 21726, Note_on_c, 5, 60, 93
6, 21726, Note_on_c, 5, 57, 103
6, 21728, Note_on_c, 5, 53, 93
6, 21781, Note_on_c, 5, 57, 0
6, 21784, Note_on_c, 5, 60, 0
6, 21794, Note_on_c, 5, 53, 0
6, 21849, Note_on_c, 5, 60, 103
6, 21849, Note_on_c, 5, 53, 103
6, 21850, Note_on_c, 5, 57, 107
6, 21899, Note_on_c, 5, 57, 0
6, 21906, Note_on_c, 5, 53, 0
6, 21906, Note_on_c, 5, 60, 0
6, 21957, Note_on_c, 5, 60, 103
6, 21958, Note_on_c, 5, 57, 107
6, 21958, Note_on_c, 5, 53, 103
6, 22002, Note_on_c, 5, 57, 0
6, 22003, Note_on_c, 5, 60, 0
6, 22004, Note_on_c, 5, 53, 0
6, 22021, Note_on_c, 5, 60, 97
6, 22023, Note_on_c, 5, 57, 107
6, 22023, Note_on_c, 5, 53, 97
6, 22060, Note_on_c, 5, 57, 0
6, 22062, Note_on_c, 5, 53, 0
6, 22062, Note_on_c, 5, 60, 0
6, 22082, Note_on_c, 5, 53, 103
6, 22082, Note_on_c, 5, 57, 121
6, 22084, Note_on_c, 5, 62, 118
6, 22089, Note_on_c, 5, 61, 97
6, 22092, Note_on_c, 5, 61, 0
6, 22142, Note_on_c, 5, 53, 0
6, 22142, Note_on_c, 5, 57, 0
6, 22145, Note_on_c, 5, 62, 0
6, 22200, Note_on_c, 5, 62, 103
6, 22201, Note_on_c, 5, 57, 107
6, 22202, Note_on_c, 5, 53, 103
6, 22261, Note_on_c, 5, 57, 0
6, 22261, Note_on_c, 5, 62, 0
6, 22263, Note_on_c, 5, 53, 0
6, 22321, Note_on_c, 5, 62, 103
6, 22322, Note_on_c, 5, 57, 118
6, 22323, Note_on_c, 5, 53, 115
6, 22376, Note_on_c, 5, 53, 0
6, 22376, Note_on_c, 5, 57, 0
6, 22381, Note_on_c, 5, 62, 0
6, 22439, Note_on_c, 5, 62, 103
6, 22439, Note_on_c, 5, 57, 118
6, 22440, Note_on_c, 5, 53, 118
6, 22485, Note_on_c, 5, 53, 0
6, 22485, Note_on_c, 5, 57, 0
6, 22485, Note_on_c, 5, 62, 0
6, 22505, Note_on_c, 5, 53, 107
6, 22506, Note_on_c, 5, 57, 107
6, 22506, Note_on_c, 5, 62, 118
6, 22538, Note_on_c, 5, 53, 0
6, 22540, Note_on_c, 5, 57, 0
6, 22544, Note_on_c, 5, 62, 0
6, 22561, Note_on_c, 5, 55, 118
6, 22561, Note_on_c, 5, 58, 122
6, 22561, Note_on_c, 5, 62, 118
6, 22620, Note_on_c, 5, 58, 0
6, 22624, Note_on_c, 5, 55, 0
6, 22627, Note_on_c, 5, 62, 0
6, 22680, Note_on_c, 5, 62, 107
6, 22680, Note_on_c, 5, 58, 121
6, 22680, Note_on_c, 5, 55, 115
6, 22735, Note_on_c, 5, 58, 0
6, 22737, Note_on_c, 5, 62, 0
6, 22742, Note_on_c, 5, 55, 0
6, 22800, Note_on_c, 5, 58, 122
6, 22800, Note_on_c, 5, 55, 118
6, 22801, Note_on_c, 5, 62, 121
6, 22859, Note_on_c, 5, 58, 0
6, 22861, Note_on_c, 5, 62, 0
6, 22861, Note_on_c, 5, 55, 0
6, 22914, Note_on_c, 5, 58, 121
6, 22916, Note_on_c, 5, 62, 107
6, 22917, Note_on_c, 5, 55, 115
6, 22956, Note_on_c, 5, 58, 0
6, 22957, Note_on_c, 5, 62, 0
6, 22959, Note_on_c, 5, 55, 0
6, 22977, Note_on_c, 5, 58, 97
6, 22978, Note_on_c, 5, 62, 107
6, 22978, Note_on_c, 5, 55, 97
6, 23013, Note_on_c, 5, 58, 0
6, 23015, Note_on_c, 5, 62, 0
6, 23016, Note_on_c, 5, 55, 0
6, 23037, Note_on_c, 5, 55, 91
6, 23040, Note_on_c, 5, 64, 118
6, 23041, Note_on_c, 5, 60, 118
6, 23104, Note_on_c, 5, 60, 0
6, 23104, Note_on_c, 5, 64, 0
6, 23104, Note_on_c, 5, 55, 0
6, 23159, Note_on_c, 5, 64, 115
6, 23160, Note_on_c, 5, 55, 121
6, 23162, Note_on_c, 5, 60, 118
6, 23215, Note_on_c, 5, 60, 0
6, 23215, Note_on_c, 5, 64, 0
6, 23216, Note_on_c, 5, 55, 0
6, 23278, Note_on_c, 5, 64, 107
6, 23280, Note_on_c, 5, 60, 118
6, 23280, Note_on_c, 5, 55, 115
6, 23340, Note_on_c, 5, 60, 0
6, 23341, Note_on_c, 5, 64, 0
6, 23342, Note_on_c, 5, 55, 0
6, 23397, Note_on_c, 5, 64, 115
6, 23399, Note_on_c, 5, 60, 118
6, 23399, Note_on_c, 5, 55, 115
6, 23441, Note_on_c, 5, 64, 0
6, 23444, Note_on_c, 5, 55, 0
6, 23444, Note_on_c, 5, 60, 0
6, 23463, Note_on_c, 5, 60, 103
6, 23463, Note_on_c, 5, 55, 107
6, 23463, Note_on_c, 5, 64, 115
6, 23492, Note_on_c, 5, 60, 0
6, 23494, Note_on_c, 5, 64, 0
6, 23494, Note_on_c, 5, 55, 0
6, 27364, Note_on_c, 5, 60, 93
6, 27365, Note_on_c, 5, 57, 107
6, 27367, Note_on_c, 5, 53, 97
6, 27430, Note_on_c, 5, 57, 0
6, 27432, Note_on_c, 5, 60, 0
6, 27433, Note_on_c, 5, 53, 0
6, 27485, Note_on_c, 5, 57, 107
6, 27485, Note_on_c, 5, 60, 97
6, 27488, Note_on_c, 5, 53, 107
6, 27528, Note_on_c, 5, 60, 0
6, 27528, Note_on_c, 5, 57, 0
6, 27536, Note_on_c, 5, 53, 0
6, 27608, Note_on_c, 5, 57, 103
6, 27608, Note_on_c, 5, 60, 93
6, 27609, Note_on_c, 5, 53, 93
6, 27652, Note_on_c, 5, 60, 0
6, 27656, Note_on_c, 5, 57, 0
6, 27659, Note_on_c, 5, 53, 0
6, 27720, Note_on_c, 5, 57, 115
6, 27720, Note_on_c, 5, 60, 93
6, 27721, Note_on_c, 5, 53, 97
6, 27762, Note_on_c, 5, 57, 0
6, 27765, Note_on_c, 5, 53, 0
6, 27767, Note_on_c, 5, 60, 0
6, 27838, Note_on_c, 5, 62, 79
6, 27840, Note_on_c, 5, 57, 93
6, 27841, Note_on_c, 5, 53, 87
6, 27852, Note_on_c, 5, 61, 15
6, 27861, Note_on_c, 5, 61, 0
6, 27885, Note_on_c, 5, 53, 0
6, 27886, Note_on_c, 5, 57, 0
6, 27886, Note_on_c, 5, 62, 0
6, 27962, Note_on_c, 5, 62, 107
6, 27964, Note_on_c, 5, 57, 103
6, 27965, Note_on_c, 5, 53, 97
6, 28008, Note_on_c, 5, 57, 0
6, 28010, Note_on_c, 5, 62, 0
6, 28015, Note_on_c, 5, 53, 0
6, 28088, Note_on_c, 5, 62, 107
6, 28088, Note_on_c, 5, 57, 103
6, 28089, Note_on_c, 5, 53, 97
6, 28132, Note_on_c, 5, 62, 0
6, 28134, Note_on_c, 5, 57, 0
6, 28139, Note_on_c, 5, 53, 0
6, 28202, Note_on_c, 5, 62, 103
6, 28203, Note_on_c, 5, 57, 103
6, 28204, Note_on_c, 5, 53, 115
6, 28242, Note_on_c, 5, 62, 0
6, 28243, Note_on_c, 5, 57, 0
6, 28247, Note_on_c, 5, 53, 0
6, 28260, Note_on_c, 5, 62, 107
6, 28261, Note_on_c, 5, 57, 103
6, 28263, Note_on_c, 5, 53, 97
6, 28298, Note_on_c, 5, 53, 0
6, 28300, Note_on_c, 5, 57, 0
6, 28304, Note_on_c, 5, 62, 0
6, 28321, Note_on_c, 5, 55, 107
6, 28321, Note_on_c, 5, 62, 115
6, 28322, Note_on_c, 5, 58, 118
6, 28371, Note_on_c, 5, 58, 0
6, 28376, Note_on_c, 5, 62, 0
6, 28378, Note_on_c, 5, 55, 0
6, 28440, Note_on_c, 5, 58, 118
6, 28441, Note_on_c, 5, 62, 107
6, 28442, Note_on_c, 5, 55, 115
6, 28482, Note_on_c, 5, 62, 0
6, 28484, Note_on_c, 5, 58, 0
6, 28494, Note_on_c, 5, 55, 0
6, 28555, Note_on_c, 5, 62, 115
6, 28556, Note_on_c, 5, 58, 97
6, 28558, Note_on_c, 5, 55, 107
6, 28608, Note_on_c, 5, 62, 0
6, 28612, Note_on_c, 5, 58, 0
6, 28613, Note_on_c, 5, 55, 0
6, 28677, Note_on_c, 5, 62, 115
6, 28677, Note_on_c, 5, 58, 115
6, 28678, Note_on_c, 5, 55, 107
6, 28682, Note_on_c, 5, 61, 67
6, 28686, Note_on_c, 5, 61, 0
6, 28714, Note_on_c, 5, 58, 0
6, 28716, Note_on_c, 5, 62, 0
6, 28719, Note_on_c, 5, 55, 0
6, 28739, Note_on_c, 5, 62, 107
6, 28740, Note_on_c, 5, 58, 97
6, 28740, Note_on_c, 5, 55, 93
6, 28770, Note_on_c, 5, 62, 0
6, 28774, Note_on_c, 5, 55, 0
6, 28774, Note_on_c, 5, 58, 0
6, 28799, Note_on_c, 5, 55, 97
6, 28801, Note_on_c, 5, 64, 121
6, 28801, Note_on_c, 5, 60, 118
6, 28852, Note_on_c, 5, 64, 0
6, 28858, Note_on_c, 5, 60, 0
6, 28863, Note_on_c, 5, 55, 0
6, 28914, Note_on_c, 5, 64, 107
6, 28915, Note_on_c, 5, 60, 107
6, 28916, Note_on_c, 5, 55, 93
6, 28969, Note_on_c, 5, 64, 0
6, 28970, Note_on_c, 5, 60, 0
6, 28974, Note_on_c, 5, 55, 0
6, 29037, Note_on_c, 5, 60, 103
6, 29037, Note_on_c, 5, 64, 115
6, 29038, Note_on_c, 5, 55, 103
6, 29100, Note_on_c, 5, 60, 0
6, 29104, Note_on_c, 5, 55, 0
6, 29104, Note_on_c, 5, 64, 0
6, 29158, Note_on_c, 5, 64, 107
6, 29158, Note_on_c, 5, 60, 103
6, 29160, Note_on_c, 5, 55, 91
6, 29199, Note_on_c, 5, 64, 0
6, 29201, Note_on_c, 5, 60, 0
6, 29204, Note_on_c, 5, 55, 0
6, 29223, Note_on_c, 5, 55, 97
6, 29223, Note_on_c, 5, 60, 103
6, 29225, Note_on_c, 5, 64, 118
6, 29254, Note_on_c, 5, 64, 0
6, 29257, Note_on_c, 5, 60, 0
6, 29262, Note_on_c, 5, 55, 0
6, 29286, Note_on_c, 5, 60, 107
6, 29286, Note_on_c, 5, 57, 121
6, 29287, Note_on_c, 5, 53, 121
6, 29341, Note_on_c, 5, 57, 0
6, 29344, Note_on_c, 5, 53, 0
6, 29344, Note_on_c, 5, 60, 0
6, 29375, Control_c, 5, 7, 119
6, 29385, Control_c, 5, 7, 118
6, 29390, Control_c, 5, 7, 117
6, 29404, Note_on_c, 5, 60, 87
6, 29405, Note_on_c, 5, 57, 107
6, 29406, Note_on_c, 5, 53, 93
6, 29440, Control_c, 5, 7, 116
6, 29460, Note_on_c, 5, 57, 0
6, 29463, Note_on_c, 5, 60, 0
6, 29466, Note_on_c, 5, 53, 0
6, 29505, Control_c, 5, 7, 115
6, 29515, Control_c, 5, 7, 114
6, 29522, Note_on_c, 5, 60, 91
6, 29522, Note_on_c, 5, 57, 103
6, 29523, Control_c, 5, 7, 113
6, 29523, Note_on_c, 5, 53, 93
6, 29526, Control_c, 5, 7, 112
6, 29574, Note_on_c, 5, 57, 0
6, 29576, Note_on_c, 5, 53, 0
6, 29579, Note_on_c, 5, 60, 0
6, 29585, Control_c, 5, 7, 111
6, 29630, Control_c, 5, 7, 110
6, 29635, Control_c, 5, 7, 109
6, 29640, Control_c, 5, 7, 108
6, 29642, Note_on_c, 5, 60, 93
6, 29642, Note_on_c, 5, 57, 103
6, 29644, Control_c, 5, 7, 107
6, 29644, Note_on_c, 5, 53, 97
6, 29684, Note_on_c, 5, 57, 0
6, 29686, Note_on_c, 5, 53, 0
6, 29687, Note_on_c, 5, 60, 0
6, 29699, Control_c, 5, 7, 106
6, 29700, Note_on_c, 5, 60, 91
6, 29702, Note_on_c, 5, 57, 118
6, 29703, Control_c, 5, 7, 105
6, 29703, Note_on_c, 5, 53, 91
6, 29739, Note_on_c, 5, 57, 0
6, 29742, Note_on_c, 5, 53, 0
6, 29742, Note_on_c, 5, 60, 0
6, 29758, Control_c, 5, 7, 104
6, 29761, Note_on_c, 5, 57, 115
6, 29762, Control_c, 5, 7, 103
6, 29762, Note_on_c, 5, 53, 97
6, 29762, Note_on_c, 5, 62, 118
6, 29768, Control_c, 5, 7, 102
6, 29819, Note_on_c, 5, 62, 0
6, 29821, Note_on_c, 5, 57, 0
6, 29822, Note_on_c, 5, 53, 0
6, 29850, Control_c, 5, 7, 101
6, 29855, Control_c, 5, 7, 100
6, 29865, Control_c, 5, 7, 99
6, 29880, Note_on_c, 5, 62, 97
6, 29881, Note_on_c, 5, 57, 97
6, 29882, Note_on_c, 5, 53, 103
6, 29905, Control_c, 5, 7, 98
6, 29910, Control_c, 5, 7, 97
6, 29937, Note_on_c, 5, 57, 0
6, 29939, Note_on_c, 5, 62, 0
6, 29940, Note_on_c, 5, 53, 0
6, 29965, Control_c, 5, 7, 96
6, 29975, Control_c, 5, 7, 95
6, 29980, Control_c, 5, 7, 94
6, 30005, Note_on_c, 5, 62, 97
6, 30006, Note_on_c, 5, 57, 107
6, 30007, Note_on_c, 5, 53, 103
6, 30012, Control_c, 5, 7, 93
6, 30017, Control_c, 5, 7, 92
6, 30022, Control_c, 5, 7, 91
6, 30025, Control_c, 5, 7, 90
6, 30063, Note_on_c, 5, 57, 0
6, 30063, Control_c, 5, 7, 89
6, 30069, Note_on_c, 5, 62, 0
6, 30071, Note_on_c, 5, 53, 0
6, 30071, Control_c, 5, 7, 88
6, 30076, Control_c, 5, 7, 87
6, 30081, Control_c, 5, 7, 86
6, 30115, Control_c, 5, 7, 85
6, 30121, Note_on_c, 5, 62, 103
6, 30121, Note_on_c, 5, 57, 107
6, 30122, Note_on_c, 5, 53, 97
6, 30129, Control_c, 5, 7, 84
6, 30132, Control_c, 5, 7, 83
6, 30137, Control_c, 5, 7, 82
6, 30146, Control_c, 5, 7, 81
6, 30168, Note_on_c, 5, 57, 0
6, 30168, Note_on_c, 5, 62, 0
6, 30171, Note_on_c, 5, 53, 0
6, 30185, Note_on_c, 5, 57, 103
6, 30187, Note_on_c, 5, 53, 91
6, 30187, Note_on_c, 5, 62, 93
6, 30205, Control_c, 5, 7, 80
6, 30210, Control_c, 5, 7, 79
6, 30219, Note_on_c, 5, 53, 0
6, 30221, Note_on_c, 5, 57, 0
6, 30224, Note_on_c, 5, 62, 0
6, 30242, Note_on_c, 5, 55, 115
6, 30243, Note_on_c, 5, 58, 118
6, 30243, Note_on_c, 5, 62, 115
6, 30248, Control_c, 5, 7, 78
6, 30253, Control_c, 5, 7, 77
6, 30258, Control_c, 5, 7, 76
6, 30295, Note_on_c, 5, 62, 0
6, 30295, Note_on_c, 5, 58, 0
6, 30298, Note_on_c, 5, 55, 0
6, 30345, Control_c, 5, 7, 75
6, 30350, Control_c, 5, 7, 74
6, 30363, Note_on_c, 5, 55, 97
6, 30364, Note_on_c, 5, 58, 103
6, 30364, Note_on_c, 5, 62, 97
6, 30369, Control_c, 5, 7, 73
6, 30385, Control_c, 5, 7, 72
6, 30400, Control_c, 5, 7, 71
6, 30409, Note_on_c, 5, 58, 0
6, 30413, Note_on_c, 5, 62, 0
6, 30422, Note_on_c, 5, 55, 0
6, 30470, Control_c, 5, 7, 70
6, 30482, Note_on_c, 5, 58, 103
6, 30484, Note_on_c, 5, 55, 103
6, 30484, Note_on_c, 5, 62, 103
6, 30489, Control_c, 5, 7, 69
6, 30499, Control_c, 5, 7, 68
6, 30534, Note_on_c, 5, 62, 0
6, 30535, Note_on_c, 5, 58, 0
6, 30537, Note_on_c, 5, 55, 0
6, 30545, Control_c, 5, 7, 67
6, 30550, Control_c, 5, 7, 66
6, 30555, Control_c, 5, 7, 65
6, 30560, Control_c, 5, 7, 64
6, 30601, Note_on_c, 5, 58, 103
6, 30601, Note_on_c, 5, 62, 103
6, 30601, Note_on_c, 5, 55, 107
6, 30607, Control_c, 5, 7, 63
6, 30612, Control_c, 5, 7, 61
6, 30617, Control_c, 5, 7, 60
6, 30641, Note_on_c, 5, 62, 0
6, 30643, Note_on_c, 5, 55, 0
6, 30643, Note_on_c, 5, 58, 0
6, 30659, Note_on_c, 5, 58, 97
6, 30661, Note_on_c, 5, 62, 115
6, 30662, Note_on_c, 5, 55, 91
6, 30667, Control_c, 5, 7, 59
6, 30672, Control_c, 5, 7, 58
6, 30677, Control_c, 5, 7, 57
6, 30693, Note_on_c, 5, 62, 0
6, 30696, Note_on_c, 5, 58, 0
6, 30698, Note_on_c, 5, 55, 0
6, 30720, Note_on_c, 5, 55, 93
6, 30722, Note_on_c, 5, 64, 118
6, 30723, Control_c, 5, 7, 56
6, 30723, Note_on_c, 5, 60, 118
6, 30728, Control_c, 5, 7, 55
6, 30732, Control_c, 5, 7, 53
6, 30737, Control_c, 5, 7, 52
6, 30745, Control_c, 5, 7, 51
6, 30775, Note_on_c, 5, 64, 0
6, 30778, Note_on_c, 5, 60, 0
6, 30782, Note_on_c, 5, 55, 0
6, 30803, Control_c, 5, 7, 50
6, 30805, Control_c, 5, 7, 49
6, 30810, Control_c, 5, 7, 48
6, 30840, Note_on_c, 5, 64, 107
6, 30841, Note_on_c, 5, 60, 107
6, 30842, Note_on_c, 5, 55, 115
6, 30870, Control_c, 5, 7, 47
6, 30880, Control_c, 5, 7, 45
6, 30880, Control_c, 5, 7, 46
6, 30891, Note_on_c, 5, 64, 0
6, 30894, Note_on_c, 5, 60, 0
6, 30898, Note_on_c, 5, 55, 0
6, 30910, Control_c, 5, 7, 44
6, 30915, Control_c, 5, 7, 43
6, 30920, Control_c, 5, 7, 42
6, 30925, Control_c, 5, 7, 41
6, 30930, Control_c, 5, 7, 40
6, 30940, Control_c, 5, 7, 39
6, 30955, Control_c, 5, 7, 38
6, 30963, Note_on_c, 5, 64, 103
6, 30964, Note_on_c, 5, 60, 97
6, 30965, Note_on_c, 5, 55, 103
6, 30970, Control_c, 5, 7, 37
6, 30975, Control_c, 5, 7, 36
6, 30980, Control_c, 5, 7, 35
6, 30985, Control_c, 5, 7, 34
6, 31012, Note_on_c, 5, 64, 0
6, 31015, Note_on_c, 5, 55, 0
6, 31015, Note_on_c, 5, 60, 0
6, 31015, Control_c, 5, 7, 33
6, 31020, Control_c, 5, 7, 32
6, 31045, Control_c, 5, 7, 31
6, 31050, Control_c, 5, 7, 30
6, 31055, Control_c, 5, 7, 29
6, 31060, Control_c, 5, 7, 28
6, 31065, Control_c, 5, 7, 27
6, 31070, Control_c, 5, 7, 25
6, 31075, Note_on_c, 5, 60, 97
6, 31076, Note_on_c, 5, 64, 107
6, 31078, Note_on_c, 5, 55, 103
6, 31096, Control_c, 5, 7, 24
6, 31101, Control_c, 5, 7, 23
6, 31105, Control_c, 5, 7, 22
6, 31115, Control_c, 5, 7, 21
6, 31120, Note_on_c, 5, 64, 0
6, 31120, Note_on_c, 5, 60, 0
6, 31122, Note_on_c, 5, 55, 0
6, 31139, Note_on_c, 5, 60, 107
6, 31141, Control_c, 5, 7, 20
6, 31141, Note_on_c, 5, 55, 103
6, 31141, Note_on_c, 5, 64, 115
6, 31150, Control_c, 5, 7, 19
6, 31155, Control_c, 5, 7, 18
6, 31172, Note_on_c, 5, 64, 0
6, 31173, Note_on_c, 5, 60, 0
6, 31174, Note_on_c, 5, 55, 0
6, 31174, Control_c, 5, 7, 17
6, 31189, Control_c, 5, 7, 16
6, 31219, Control_c, 5, 7, 15
6, 31225, Control_c, 5, 7, 14
6, 31230, Control_c, 5, 7, 13
6, 31235, Control_c, 5, 7, 12
6, 31250, Control_c, 5, 7, 11
6, 31265, Control_c, 5, 7, 10
6, 31275, Control_c, 5, 7, 9
6, 31300, Control_c, 5, 7, 8
6, 31305, Control_c, 5, 7, 7
6, 31315, Control_c, 5, 7, 6
6, 31330, Control_c, 5, 7, 5
6, 31332, Control_c, 5, 7, 4
6, 31342, Control_c, 5, 7, 3
6, 31345, Control_c, 5, 7, 2
6, 31350, Control_c, 5, 7, 1
6, 31355, Control_c, 5, 7, 0
6, 31355, End_track
7, 0, Start_track
7, 0, MIDI_port, 0
7, 0, Title_t, "Accoustic Guitar (steel)"
7, 0, Program_c, 6, 25
7, 0, Control_c, 6, 7, 127
7, 0, Control_c, 6, 10, 51
7, 0, Program_c, 6, 25
7, 8154, Note_on_c, 6, 65, 103
7, 8157, Note_on_c, 6, 60, 107
7, 8157, Note_on_c, 6, 57, 103
7, 9110, Note_on_c, 6, 60, 0
7, 9111, Note_on_c, 6, 57, 0
7, 9112, Note_on_c, 6, 65, 0
7, 9123, Note_on_c, 6, 57, 103
7, 9124, Note_on_c, 6, 65, 107
7, 9124, Note_on_c, 6, 62, 118
7, 10057, Note_on_c, 6, 57, 0
7, 10064, Note_on_c, 6, 62, 0
7, 10066, Note_on_c, 6, 65, 0
7, 10075, Note_on_c, 6, 65, 97
7, 10077, Note_on_c, 6, 62, 118
7, 10081, Note_on_c, 6, 58, 121
7, 10976, Note_on_c, 6, 58, 0
7, 10979, Note_on_c, 6, 62, 0
7, 10989, Note_on_c, 6, 65, 0
7, 11039, Note_on_c, 6, 67, 97
7, 11040, Note_on_c, 6, 64, 107
7, 11040, Note_on_c, 6, 60, 103
7, 11950, Note_on_c, 6, 64, 0
7, 11953, Note_on_c, 6, 67, 0
7, 11955, Note_on_c, 6, 60, 0
7, 15841, Note_on_c, 6, 65, 103
7, 15842, Note_on_c, 6, 60, 107
7, 15844, Note_on_c, 6, 57, 103
7, 16793, Note_on_c, 6, 60, 0
7, 16797, Note_on_c, 6, 57, 0
7, 16798, Note_on_c, 6, 65, 0
7, 16804, Note_on_c, 6, 57, 77
7, 16805, Note_on_c, 6, 65, 107
7, 16805, Note_on_c, 6, 62, 115
7, 17738, Note_on_c, 6, 57, 0
7, 17744, Note_on_c, 6, 65, 0
7, 17749, Note_on_c, 6, 62, 0
7, 17757, Note_on_c, 6, 62, 107
7, 17757, Note_on_c, 6, 65, 107
7, 17760, Note_on_c, 6, 58, 115
7, 18684, Note_on_c, 6, 58, 0
7, 18697, Note_on_c, 6, 62, 0
7, 18706, Note_on_c, 6, 65, 0
7, 18718, Note_on_c, 6, 67, 103
7, 18718, Note_on_c, 6, 60, 121
7, 18721, Note_on_c, 6, 64, 118
7, 19640, Note_on_c, 6, 64, 0
7, 19642, Note_on_c, 6, 67, 0
7, 19645, Note_on_c, 6, 60, 0
7, 23514, Note_on_c, 6, 65, 103
7, 23517, Note_on_c, 6, 60, 107
7, 23517, Note_on_c, 6, 57, 103
7, 24470, Note_on_c, 6, 60, 0
7, 24471, Note_on_c, 6, 57, 0
7, 24472, Note_on_c, 6, 65, 0
7, 24483, Note_on_c, 6, 57, 103
7, 24484, Note_on_c, 6, 65, 107
7, 24484, Note_on_c, 6, 62, 118
7, 25417, Note_on_c, 6, 57, 0
7, 25424, Note_on_c, 6, 62, 0
7, 25426, Note_on_c, 6, 65, 0
7, 25435, Note_on_c, 6, 65, 97
7, 25437, Note_on_c, 6, 62, 118
7, 25441, Note_on_c, 6, 58, 121
7, 26336, Note_on_c, 6, 58, 0
7, 26339, Note_on_c, 6, 62, 0
7, 26349, Note_on_c, 6, 65, 0
7, 26399, Note_on_c, 6, 67, 97
7, 26400, Note_on_c, 6, 64, 107
7, 26400, Note_on_c, 6, 60, 103
7, 27310, Note_on_c, 6, 64, 0
7, 27313, Note_on_c, 6, 67, 0
7, 27315, Note_on_c, 6, 60, 0
7, 29375, Control_c, 6, 7, 120
7, 29385, Control_c, 6, 7, 119
7, 29390, Control_c, 6, 7, 118
7, 29440, Control_c, 6, 7, 117
7, 29505, Control_c, 6, 7, 116
7, 29515, Control_c, 6, 7, 115
7, 29523, Control_c, 6, 7, 114
7, 29526, Control_c, 6, 7, 113
7, 29585, Control_c, 6, 7, 112
7, 29630, Control_c, 6, 7, 111
7, 29635, Control_c, 6, 7, 110
7, 29640, Control_c, 6, 7, 109
7, 29644, Control_c, 6, 7, 108
7, 29699, Control_c, 6, 7, 107
7, 29703, Control_c, 6, 7, 106
7, 29758, Control_c, 6, 7, 105
7, 29762, Control_c, 6, 7, 104
7, 29768, Control_c, 6, 7, 103
7, 29845, Control_c, 6, 7, 102
7, 29850, Control_c, 6, 7, 101
7, 29855, Control_c, 6, 7, 100
7, 29905, Control_c, 6, 7, 99
7, 29910, Control_c, 6, 7, 98
7, 29965, Control_c, 6, 7, 97
7, 29975, Control_c, 6, 7, 96
7, 29980, Control_c, 6, 7, 95
7, 30012, Control_c, 6, 7, 94
7, 30017, Control_c, 6, 7, 93
7, 30022, Control_c, 6, 7, 92
7, 30025, Control_c, 6, 7, 91
7, 30063, Control_c, 6, 7, 90
7, 30071, Control_c, 6, 7, 89
7, 30076, Control_c, 6, 7, 88
7, 30081, Control_c, 6, 7, 87
7, 30115, Control_c, 6, 7, 86
7, 30124, Control_c, 6, 7, 85
7, 30129, Control_c, 6, 7, 84
7, 30132, Control_c, 6, 7, 83
7, 30137, Control_c, 6, 7, 82
7, 30146, Control_c, 6, 7, 81
7, 30205, Control_c, 6, 7, 80
7, 30248, Control_c, 6, 7, 79
7, 30253, Control_c, 6, 7, 78
7, 30258, Control_c, 6, 7, 77
7, 30345, Control_c, 6, 7, 76
7, 30350, Control_c, 6, 7, 75
7, 30369, Control_c, 6, 7, 74
7, 30385, Control_c, 6, 7, 73
7, 30400, Control_c, 6, 7, 72
7, 30470, Control_c, 6, 7, 71
7, 30489, Control_c, 6, 7, 70
7, 30499, Control_c, 6, 7, 69
7, 30510, Control_c, 6, 7, 68
7, 30545, Control_c, 6, 7, 67
7, 30550, Control_c, 6, 7, 66
7, 30555, Control_c, 6, 7, 65
7, 30560, Control_c, 6, 7, 64
7, 30607, Control_c, 6, 7, 63
7, 30612, Control_c, 6, 7, 61
7, 30617, Control_c, 6, 7, 60
7, 30672, Control_c, 6, 7, 59
7, 30677, Control_c, 6, 7, 58
7, 30723, Control_c, 6, 7, 57
7, 30728, Control_c, 6, 7, 56
7, 30732, Control_c, 6, 7, 54
7, 30737, Control_c, 6, 7, 53
7, 30745, Control_c, 6, 7, 52
7, 30798, Control_c, 6, 7, 51
7, 30803, Control_c, 6, 7, 50
7, 30805, Control_c, 6, 7, 49
7, 30810, Control_c, 6, 7, 48
7, 30870, Control_c, 6, 7, 47
7, 30880, Control_c, 6, 7, 45
7, 30880, Control_c, 6, 7, 46
7, 30910, Control_c, 6, 7, 44
7, 30915, Control_c, 6, 7, 43
7, 30920, Control_c, 6, 7, 42
7, 30925, Control_c, 6, 7, 41
7, 30930, Control_c, 6, 7, 40
7, 30955, Control_c, 6, 7, 39
7, 30970, Control_c, 6, 7, 38
7, 30975, Control_c, 6, 7, 37
7, 30980, Control_c, 6, 7, 36
7, 30985, Control_c, 6, 7, 35
7, 31012, Control_c, 6, 7, 34
7, 31015, Control_c, 6, 7, 33
7, 31020, Control_c, 6, 7, 32
7, 31045, Control_c, 6, 7, 31
7, 31050, Control_c, 6, 7, 30
7, 31055, Control_c, 6, 7, 29
7, 31060, Control_c, 6, 7, 28
7, 31065, Control_c, 6, 7, 27
7, 31070, Control_c, 6, 7, 25
7, 31096, Control_c, 6, 7, 24
7, 31101, Control_c, 6, 7, 23
7, 31105, Control_c, 6, 7, 22
7, 31115, Control_c, 6, 7, 21
7, 31141, Control_c, 6, 7, 20
7, 31155, Control_c, 6, 7, 19
7, 31174, Control_c, 6, 7, 18
7, 31179, Control_c, 6, 7, 17
7, 31189, Control_c, 6, 7, 16
7, 31201, Note_on_c, 6, 65, 103
7, 31202, Note_on_c, 6, 60, 107
7, 31204, Note_on_c, 6, 57, 103
7, 31219, Control_c, 6, 7, 15
7, 31225, Control_c, 6, 7, 14
7, 31230, Control_c, 6, 7, 13
7, 31235, Control_c, 6, 7, 12
7, 31250, Control_c, 6, 7, 11
7, 31265, Control_c, 6, 7, 10
7, 31275, Control_c, 6, 7, 9
7, 31300, Control_c, 6, 7, 8
7, 31305, Control_c, 6, 7, 7
7, 31315, Control_c, 6, 7, 6
7, 31330, Control_c, 6, 7, 5
7, 31332, Control_c, 6, 7, 4
7, 31342, Control_c, 6, 7, 3
7, 31345, Control_c, 6, 7, 2
7, 31350, Control_c, 6, 7, 1
7, 31355, Control_c, 6, 7, 0
7, 32153, Note_on_c, 6, 60, 0
7, 32157, Note_on_c, 6, 57, 0
7, 32158, Note_on_c, 6, 65, 0
7, 32158, End_track
8, 0, Start_track
8, 0, MIDI_port, 0
8, 0, Title_t, "Accoustic Bass"
8, 0, Program_c, 7, 34
8, 0, Control_c, 7, 7, 110
8, 0, Control_c, 7, 10, 80
8, 0, Program_c, 7, 32
8, 2410, Note_on_c, 7, 41, 122
8, 2474, Note_on_c, 7, 41, 0
8, 2765, Note_on_c, 7, 41, 122
8, 2857, Note_on_c, 7, 41, 0
8, 2883, Note_on_c, 7, 50, 122
8, 2944, Note_on_c, 7, 50, 0
8, 3244, Note_on_c, 7, 50, 122
8, 3333, Note_on_c, 7, 50, 0
8, 3362, Note_on_c, 7, 43, 122
8, 3429, Note_on_c, 7, 43, 0
8, 3719, Note_on_c, 7, 43, 122
8, 3792, Note_on_c, 7, 43, 0
8, 3842, Note_on_c, 7, 48, 125
8, 3912, Note_on_c, 7, 48, 0
8, 4201, Note_on_c, 7, 48, 122
8, 4286, Note_on_c, 7, 48, 0
8, 4319, Note_on_c, 7, 41, 127
8, 4385, Note_on_c, 7, 41, 0
8, 4685, Note_on_c, 7, 41, 125
8, 4761, Note_on_c, 7, 41, 0
8, 4804, Note_on_c, 7, 50, 122
8, 4860, Note_on_c, 7, 50, 0
8, 5164, Note_on_c, 7, 50, 121
8, 5225, Note_on_c, 7, 50, 0
8, 5283, Note_on_c, 7, 43, 122
8, 5352, Note_on_c, 7, 43, 0
8, 5644, Note_on_c, 7, 43, 125
8, 5700, Note_on_c, 7, 43, 0
8, 5763, Note_on_c, 7, 48, 127
8, 5823, Note_on_c, 7, 48, 0
8, 6125, Note_on_c, 7, 48, 125
8, 6185, Note_on_c, 7, 48, 0
8, 6243, Note_on_c, 7, 41, 125
8, 6310, Note_on_c, 7, 41, 0
8, 6603, Note_on_c, 7, 41, 122
8, 6661, Note_on_c, 7, 41, 0
8, 6727, Note_on_c, 7, 50, 122
8, 6777, Note_on_c, 7, 50, 0
8, 7082, Note_on_c, 7, 50, 121
8, 7140, Note_on_c, 7, 50, 0
8, 7201, Note_on_c, 7, 43, 125
8, 7267, Note_on_c, 7, 43, 0
8, 7562, Note_on_c, 7, 43, 122
8, 7627, Note_on_c, 7, 43, 0
8, 7681, Note_on_c, 7, 48, 122
8, 7741, Note_on_c, 7, 48, 0
8, 8161, Note_on_c, 7, 41, 122
8, 8325, Note_on_c, 7, 41, 0
8, 8340, Note_on_c, 7, 45, 125
8, 8374, Note_on_c, 7, 45, 0
8, 8398, Note_on_c, 7, 48, 125
8, 8510, Note_on_c, 7, 48, 0
8, 8524, Note_on_c, 7, 45, 125
8, 8576, Note_on_c, 7, 45, 0
8, 8581, Note_on_c, 7, 48, 118
8, 8627, Note_on_c, 7, 48, 0
8, 8642, Note_on_c, 7, 41, 127
8, 8826, Note_on_c, 7, 45, 122
8, 8842, Note_on_c, 7, 41, 0
8, 8863, Note_on_c, 7, 45, 0
8, 8882, Note_on_c, 7, 48, 122
8, 9002, Note_on_c, 7, 48, 0
8, 9003, Note_on_c, 7, 45, 122
8, 9064, Note_on_c, 7, 48, 121
8, 9071, Note_on_c, 7, 45, 0
8, 9111, Note_on_c, 7, 48, 0
8, 9122, Note_on_c, 7, 41, 122
8, 9300, Note_on_c, 7, 45, 122
8, 9308, Note_on_c, 7, 41, 0
8, 9340, Note_on_c, 7, 45, 0
8, 9361, Note_on_c, 7, 50, 125
8, 9482, Note_on_c, 7, 50, 0
8, 9485, Note_on_c, 7, 45, 125
8, 9543, Note_on_c, 7, 50, 107
8, 9545, Note_on_c, 7, 45, 0
8, 9575, Note_on_c, 7, 50, 0
8, 9601, Note_on_c, 7, 41, 125
8, 9785, Note_on_c, 7, 45, 122
8, 9793, Note_on_c, 7, 41, 0
8, 9822, Note_on_c, 7, 45, 0
8, 9839, Note_on_c, 7, 50, 122
8, 9956, Note_on_c, 7, 50, 0
8, 9957, Note_on_c, 7, 45, 121
8, 10020, Note_on_c, 7, 50, 118
8, 10022, Note_on_c, 7, 49, 103
8, 10025, Note_on_c, 7, 45, 0
8, 10028, Note_on_c, 7, 49, 0
8, 10072, Note_on_c, 7, 50, 0
8, 10078, Note_on_c, 7, 43, 122
8, 10256, Note_on_c, 7, 43, 0
8, 10268, Note_on_c, 7, 46, 122
8, 10295, Note_on_c, 7, 46, 0
8, 10322, Note_on_c, 7, 50, 125
8, 10439, Note_on_c, 7, 50, 0
8, 10439, Note_on_c, 7, 46, 125
8, 10500, Note_on_c, 7, 50, 118
8, 10502, Note_on_c, 7, 46, 0
8, 10547, Note_on_c, 7, 50, 0
8, 10558, Note_on_c, 7, 43, 122
8, 10741, Note_on_c, 7, 46, 122
8, 10752, Note_on_c, 7, 43, 0
8, 10781, Note_on_c, 7, 46, 0
8, 10795, Note_on_c, 7, 50, 121
8, 10916, Note_on_c, 7, 50, 0
8, 10916, Note_on_c, 7, 46, 122
8, 10974, Note_on_c, 7, 50, 115
8, 10982, Note_on_c, 7, 46, 0
8, 11015, Note_on_c, 7, 50, 0
8, 11037, Note_on_c, 7, 36, 122
8, 11229, Note_on_c, 7, 40, 121
8, 11239, Note_on_c, 7, 36, 0
8, 11263, Note_on_c, 7, 40, 0
8, 11282, Note_on_c, 7, 43, 122
8, 11396, Note_on_c, 7, 43, 0
8, 11401, Note_on_c, 7, 40, 125
8, 11456, Note_on_c, 7, 43, 118
8, 11463, Note_on_c, 7, 40, 0
8, 11502, Note_on_c, 7, 43, 0
8, 11518, Note_on_c, 7, 36, 125
8, 11624, Note_on_c, 7, 36, 0
8, 11648, Note_on_c, 7, 36, 121
8, 11760, Note_on_c, 7, 38, 107
8, 11771, Note_on_c, 7, 36, 0
8, 11873, Note_on_c, 7, 40, 115
8, 11875, Note_on_c, 7, 38, 0
8, 11942, Note_on_c, 7, 40, 0
8, 12004, Note_on_c, 7, 41, 122
8, 12063, Note_on_c, 7, 41, 0
8, 12367, Note_on_c, 7, 41, 125
8, 12438, Note_on_c, 7, 41, 0
8, 12492, Note_on_c, 7, 50, 125
8, 12546, Note_on_c, 7, 50, 0
8, 12847, Note_on_c, 7, 50, 122
8, 12910, Note_on_c, 7, 50, 0
8, 12966, Note_on_c, 7, 43, 125
8, 13037, Note_on_c, 7, 43, 0
8, 13319, Note_on_c, 7, 43, 122
8, 13397, Note_on_c, 7, 43, 0
8, 13444, Note_on_c, 7, 48, 122
8, 13500, Note_on_c, 7, 48, 0
8, 13805, Note_on_c, 7, 48, 122
8, 13837, Note_on_c, 7, 48, 0
8, 13861, Note_on_c, 7, 48, 118
8, 13897, Note_on_c, 7, 48, 0
8, 13914, Note_on_c, 7, 41, 122
8, 13989, Note_on_c, 7, 41, 0
8, 14282, Note_on_c, 7, 41, 122
8, 14360, Note_on_c, 7, 41, 0
8, 14408, Note_on_c, 7, 50, 122
8, 14465, Note_on_c, 7, 50, 0
8, 14764, Note_on_c, 7, 50, 121
8, 14825, Note_on_c, 7, 50, 0
8, 14880, Note_on_c, 7, 43, 125
8, 14952, Note_on_c, 7, 43, 0
8, 15247, Note_on_c, 7, 43, 122
8, 15326, Note_on_c, 7, 43, 0
8, 15372, Note_on_c, 7, 48, 125
8, 15428, Note_on_c, 7, 48, 0
8, 15842, Note_on_c, 7, 41, 121
8, 16008, Note_on_c, 7, 41, 0
8, 16021, Note_on_c, 7, 45, 122
8, 16058, Note_on_c, 7, 45, 0
8, 16082, Note_on_c, 7, 48, 125
8, 16198, Note_on_c, 7, 48, 0
8, 16200, Note_on_c, 7, 45, 125
8, 16252, Note_on_c, 7, 45, 0
8, 16258, Note_on_c, 7, 48, 121
8, 16304, Note_on_c, 7, 48, 0
8, 16319, Note_on_c, 7, 41, 125
8, 16498, Note_on_c, 7, 41, 0
8, 16507, Note_on_c, 7, 45, 122
8, 16544, Note_on_c, 7, 45, 0
8, 16564, Note_on_c, 7, 48, 125
8, 16680, Note_on_c, 7, 48, 0
8, 16685, Note_on_c, 7, 45, 122
8, 16743, Note_on_c, 7, 48, 118
8, 16747, Note_on_c, 7, 45, 0
8, 16791, Note_on_c, 7, 48, 0
8, 16803, Note_on_c, 7, 41, 125
8, 16982, Note_on_c, 7, 45, 122
8, 16993, Note_on_c, 7, 41, 0
8, 17022, Note_on_c, 7, 45, 0
8, 17043, Note_on_c, 7, 50, 125
8, 17162, Note_on_c, 7, 50, 0
8, 17166, Note_on_c, 7, 45, 122
8, 17220, Note_on_c, 7, 50, 97
8, 17223, Note_on_c, 7, 45, 0
8, 17262, Note_on_c, 7, 50, 0
8, 17283, Note_on_c, 7, 41, 125
8, 17462, Note_on_c, 7, 41, 0
8, 17465, Note_on_c, 7, 45, 122
8, 17497, Note_on_c, 7, 45, 0
8, 17519, Note_on_c, 7, 50, 122
8, 17634, Note_on_c, 7, 50, 0
8, 17637, Note_on_c, 7, 45, 121
8, 17697, Note_on_c, 7, 50, 107
8, 17700, Note_on_c, 7, 45, 0
8, 17744, Note_on_c, 7, 50, 0
8, 17755, Note_on_c, 7, 43, 125
8, 17924, Note_on_c, 7, 43, 0
8, 17944, Note_on_c, 7, 46, 125
8, 17978, Note_on_c, 7, 46, 0
8, 18002, Note_on_c, 7, 50, 122
8, 18124, Note_on_c, 7, 46, 125
8, 18125, Note_on_c, 7, 50, 0
8, 18184, Note_on_c, 7, 50, 118
8, 18186, Note_on_c, 7, 46, 0
8, 18216, Note_on_c, 7, 50, 0
8, 18245, Note_on_c, 7, 43, 122
8, 18427, Note_on_c, 7, 46, 127
8, 18435, Note_on_c, 7, 43, 0
8, 18463, Note_on_c, 7, 46, 0
8, 18479, Note_on_c, 7, 50, 121
8, 18606, Note_on_c, 7, 46, 122
8, 18608, Note_on_c, 7, 50, 0
8, 18656, Note_on_c, 7, 50, 118
8, 18661, Note_on_c, 7, 46, 0
8, 18686, Note_on_c, 7, 50, 0
8, 18713, Note_on_c, 7, 36, 125
8, 18887, Note_on_c, 7, 36, 0
8, 18905, Note_on_c, 7, 40, 122
8, 18939, Note_on_c, 7, 40, 0
8, 18958, Note_on_c, 7, 43, 122
8, 19078, Note_on_c, 7, 43, 0
8, 19081, Note_on_c, 7, 40, 121
8, 19139, Note_on_c, 7, 43, 107
8, 19143, Note_on_c, 7, 40, 0
8, 19184, Note_on_c, 7, 43, 0
8, 19199, Note_on_c, 7, 36, 125
8, 19297, Note_on_c, 7, 36, 0
8, 19322, Note_on_c, 7, 36, 121
8, 19444, Note_on_c, 7, 36, 0
8, 19446, Note_on_c, 7, 38, 121
8, 19544, Note_on_c, 7, 38, 0
8, 19557, Note_on_c, 7, 40, 122
8, 19630, Note_on_c, 7, 40, 0
8, 20045, Note_on_c, 7, 41, 125
8, 20121, Note_on_c, 7, 41, 0
8, 20164, Note_on_c, 7, 50, 122
8, 20220, Note_on_c, 7, 50, 0
8, 20524, Note_on_c, 7, 50, 121
8, 20585, Note_on_c, 7, 50, 0
8, 20643, Note_on_c, 7, 43, 122
8, 20712, Note_on_c, 7, 43, 0
8, 21004, Note_on_c, 7, 43, 125
8, 21060, Note_on_c, 7, 43, 0
8, 21123, Note_on_c, 7, 48, 127
8, 21183, Note_on_c, 7, 48, 0
8, 21485, Note_on_c, 7, 48, 125
8, 21545, Note_on_c, 7, 48, 0
8, 21603, Note_on_c, 7, 41, 125
8, 21670, Note_on_c, 7, 41, 0
8, 21963, Note_on_c, 7, 41, 122
8, 22021, Note_on_c, 7, 41, 0
8, 22087, Note_on_c, 7, 50, 122
8, 22137, Note_on_c, 7, 50, 0
8, 22442, Note_on_c, 7, 50, 121
8, 22500, Note_on_c, 7, 50, 0
8, 22561, Note_on_c, 7, 43, 125
8, 22627, Note_on_c, 7, 43, 0
8, 22922, Note_on_c, 7, 43, 122
8, 22987, Note_on_c, 7, 43, 0
8, 23041, Note_on_c, 7, 48, 122
8, 23101, Note_on_c, 7, 48, 0
8, 23521, Note_on_c, 7, 41, 122
8, 23685, Note_on_c, 7, 41, 0
8, 23700, Note_on_c, 7, 45, 125
8, 23734, Note_on_c, 7, 45, 0
8, 23758, Note_on_c, 7, 48, 125
8, 23870, Note_on_c, 7, 48, 0
8, 23884, Note_on_c, 7, 45, 125
8, 23936, Note_on_c, 7, 45, 0
8, 23941, Note_on_c, 7, 48, 118
8, 23987, Note_on_c, 7, 48, 0
8, 24002, Note_on_c, 7, 41, 127
8, 24186, Note_on_c, 7, 45, 122
8, 24202, Note_on_c, 7, 41, 0
8, 24223, Note_on_c, 7, 45, 0
8, 24242, Note_on_c, 7, 48, 122
8, 24362, Note_on_c, 7, 48, 0
8, 24363, Note_on_c, 7, 45, 122
8, 24424, Note_on_c, 7, 48, 121
8, 24431, Note_on_c, 7, 45, 0
8, 24471, Note_on_c, 7, 48, 0
8, 24482, Note_on_c, 7, 41, 122
8, 24660, Note_on_c, 7, 45, 122
8, 24668, Note_on_c, 7, 41, 0
8, 24700, Note_on_c, 7, 45, 0
8, 24721, Note_on_c, 7, 50, 125
8, 24842, Note_on_c, 7, 50, 0
8, 24845, Note_on_c, 7, 45, 125
8, 24903, Note_on_c, 7, 50, 107
8, 24905, Note_on_c, 7, 45, 0
8, 24935, Note_on_c, 7, 50, 0
8, 24961, Note_on_c, 7, 41, 125
8, 25145, Note_on_c, 7, 45, 122
8, 25153, Note_on_c, 7, 41, 0
8, 25182, Note_on_c, 7, 45, 0
8, 25199, Note_on_c, 7, 50, 122
8, 25316, Note_on_c, 7, 50, 0
8, 25317, Note_on_c, 7, 45, 121
8, 25380, Note_on_c, 7, 50, 118
8, 25382, Note_on_c, 7, 49, 103
8, 25385, Note_on_c, 7, 45, 0
8, 25388, Note_on_c, 7, 49, 0
8, 25432, Note_on_c, 7, 50, 0
8, 25438, Note_on_c, 7, 43, 122
8, 25616, Note_on_c, 7, 43, 0
8, 25628, Note_on_c, 7, 46, 122
8, 25655, Note_on_c, 7, 46, 0
8, 25682, Note_on_c, 7, 50, 125
8, 25799, Note_on_c, 7, 50, 0
8, 25799, Note_on_c, 7, 46, 125
8, 25860, Note_on_c, 7, 50, 118
8, 25862, Note_on_c, 7, 46, 0
8, 25907, Note_on_c, 7, 50, 0
8, 25918, Note_on_c, 7, 43, 122
8, 26101, Note_on_c, 7, 46, 122
8, 26112, Note_on_c, 7, 43, 0
8, 26141, Note_on_c, 7, 46, 0
8, 26155, Note_on_c, 7, 50, 121
8, 26276, Note_on_c, 7, 50, 0
8, 26276, Note_on_c, 7, 46, 122
8, 26334, Note_on_c, 7, 50, 115
8, 26342, Note_on_c, 7, 46, 0
8, 26375, Note_on_c, 7, 50, 0
8, 26397, Note_on_c, 7, 36, 122
8, 26589, Note_on_c, 7, 40, 121
8, 26599, Note_on_c, 7, 36, 0
8, 26623, Note_on_c, 7, 40, 0
8, 26642, Note_on_c, 7, 43, 122
8, 26756, Note_on_c, 7, 43, 0
8, 26761, Note_on_c, 7, 40, 125
8, 26816, Note_on_c, 7, 43, 118
8, 26823, Note_on_c, 7, 40, 0
8, 26862, Note_on_c, 7, 43, 0
8, 26878, Note_on_c, 7, 36, 125
8, 26984, Note_on_c, 7, 36, 0
8, 27008, Note_on_c, 7, 36, 121
8, 27120, Note_on_c, 7, 38, 107
8, 27131, Note_on_c, 7, 36, 0
8, 27233, Note_on_c, 7, 40, 115
8, 27235, Note_on_c, 7, 38, 0
8, 27302, Note_on_c, 7, 40, 0
8, 27364, Note_on_c, 7, 41, 122
8, 27423, Note_on_c, 7, 41, 0
8, 27727, Note_on_c, 7, 41, 125
8, 27798, Note_on_c, 7, 41, 0
8, 27852, Note_on_c, 7, 50, 125
8, 27906, Note_on_c, 7, 50, 0
8, 28207, Note_on_c, 7, 50, 122
8, 28270, Note_on_c, 7, 50, 0
8, 28326, Note_on_c, 7, 43, 125
8, 28397, Note_on_c, 7, 43, 0
8, 28679, Note_on_c, 7, 43, 122
8, 28757, Note_on_c, 7, 43, 0
8, 28804, Note_on_c, 7, 48, 122
8, 28860, Note_on_c, 7, 48, 0
8, 29165, Note_on_c, 7, 48, 122
8, 29197, Note_on_c, 7, 48, 0
8, 29221, Note_on_c, 7, 48, 118
8, 29257, Note_on_c, 7, 48, 0
8, 29274, Note_on_c, 7, 41, 122
8, 29349, Note_on_c, 7, 41, 0
8, 29375, Control_c, 7, 7, 117
8, 29385, Control_c, 7, 7, 116
8, 29390, Control_c, 7, 7, 115
8, 29440, Control_c, 7, 7, 114
8, 29505, Control_c, 7, 7, 113
8, 29515, Control_c, 7, 7, 112
8, 29523, Control_c, 7, 7, 111
8, 29526, Control_c, 7, 7, 110
8, 29585, Control_c, 7, 7, 109
8, 29630, Control_c, 7, 7, 108
8, 29635, Control_c, 7, 7, 107
8, 29640, Control_c, 7, 7, 106
8, 29642, Note_on_c, 7, 41, 122
8, 29644, Control_c, 7, 7, 105
8, 29699, Control_c, 7, 7, 104
8, 29720, Note_on_c, 7, 41, 0
8, 29758, Control_c, 7, 7, 103
8, 29762, Control_c, 7, 7, 102
8, 29768, Control_c, 7, 7, 101
8, 29768, Note_on_c, 7, 50, 122
8, 29825, Note_on_c, 7, 50, 0
8, 29845, Control_c, 7, 7, 100
8, 29850, Control_c, 7, 7, 99
8, 29855, Control_c, 7, 7, 98
8, 29865, Control_c, 7, 7, 97
8, 29905, Control_c, 7, 7, 96
8, 29910, Control_c, 7, 7, 95
8, 29965, Control_c, 7, 7, 94
8, 29975, Control_c, 7, 7, 93
8, 29980, Control_c, 7, 7, 92
8, 30012, Control_c, 7, 7, 91
8, 30022, Control_c, 7, 7, 90
8, 30025, Control_c, 7, 7, 89
8, 30063, Control_c, 7, 7, 88
8, 30071, Control_c, 7, 7, 87
8, 30076, Control_c, 7, 7, 86
8, 30081, Control_c, 7, 7, 85
8, 30115, Control_c, 7, 7, 84
8, 30124, Control_c, 7, 7, 83
8, 30124, Note_on_c, 7, 50, 121
8, 30129, Control_c, 7, 7, 82
8, 30132, Control_c, 7, 7, 81
8, 30137, Control_c, 7, 7, 80
8, 30146, Control_c, 7, 7, 79
8, 30185, Note_on_c, 7, 50, 0
8, 30205, Control_c, 7, 7, 78
8, 30240, Note_on_c, 7, 43, 125
8, 30248, Control_c, 7, 7, 77
8, 30253, Control_c, 7, 7, 76
8, 30258, Control_c, 7, 7, 75
8, 30312, Note_on_c, 7, 43, 0
8, 30345, Control_c, 7, 7, 74
8, 30350, Control_c, 7, 7, 73
8, 30369, Control_c, 7, 7, 72
8, 30385, Control_c, 7, 7, 71
8, 30400, Control_c, 7, 7, 70
8, 30470, Control_c, 7, 7, 69
8, 30489, Control_c, 7, 7, 68
8, 30499, Control_c, 7, 7, 67
8, 30510, Control_c, 7, 7, 66
8, 30545, Control_c, 7, 7, 65
8, 30555, Control_c, 7, 7, 64
8, 30560, Control_c, 7, 7, 63
8, 30607, Control_c, 7, 7, 62
8, 30607, Note_on_c, 7, 43, 122
8, 30612, Control_c, 7, 7, 60
8, 30617, Control_c, 7, 7, 59
8, 30667, Control_c, 7, 7, 58
8, 30672, Control_c, 7, 7, 57
8, 30677, Control_c, 7, 7, 56
8, 30686, Note_on_c, 7, 43, 0
8, 30723, Control_c, 7, 7, 55
8, 30728, Control_c, 7, 7, 54
8, 30732, Control_c, 7, 7, 52
8, 30732, Note_on_c, 7, 48, 125
8, 30745, Control_c, 7, 7, 51
8, 30788, Note_on_c, 7, 48, 0
8, 30798, Control_c, 7, 7, 50
8, 30803, Control_c, 7, 7, 49
8, 30805, Control_c, 7, 7, 48
8, 30810, Control_c, 7, 7, 47
8, 30870, Control_c, 7, 7, 46
8, 30880, Control_c, 7, 7, 44
8, 30880, Control_c, 7, 7, 45
8, 30910, Control_c, 7, 7, 43
8, 30915, Control_c, 7, 7, 42
8, 30920, Control_c, 7, 7, 41
8, 30925, Control_c, 7, 7, 40
8, 30930, Control_c, 7, 7, 39
8, 30955, Control_c, 7, 7, 38
8, 30970, Control_c, 7, 7, 37
8, 30975, Control_c, 7, 7, 36
8, 30980, Control_c, 7, 7, 35
8, 30985, Control_c, 7, 7, 34
8, 31012, Control_c, 7, 7, 33
8, 31015, Control_c, 7, 7, 32
8, 31020, Control_c, 7, 7, 31
8, 31045, Control_c, 7, 7, 30
8, 31050, Control_c, 7, 7, 29
8, 31055, Control_c, 7, 7, 28
8, 31060, Control_c, 7, 7, 27
8, 31065, Control_c, 7, 7, 26
8, 31070, Control_c, 7, 7, 25
8, 31096, Control_c, 7, 7, 24
8, 31101, Control_c, 7, 7, 23
8, 31105, Control_c, 7, 7, 22
8, 31115, Control_c, 7, 7, 21
8, 31141, Control_c, 7, 7, 20
8, 31150, Control_c, 7, 7, 19
8, 31155, Control_c, 7, 7, 18
8, 31174, Control_c, 7, 7, 17
8, 31179, Control_c, 7, 7, 16
8, 31189, Control_c, 7, 7, 15
8, 31202, Note_on_c, 7, 41, 121
8, 31219, Control_c, 7, 7, 14
8, 31225, Control_c, 7, 7, 13
8, 31235, Control_c, 7, 7, 12
8, 31250, Control_c, 7, 7, 11
8, 31265, Control_c, 7, 7, 10
8, 31275, Control_c, 7, 7, 9
8, 31300, Control_c, 7, 7, 8
8, 31305, Control_c, 7, 7, 7
8, 31315, Control_c, 7, 7, 6
8, 31330, Control_c, 7, 7, 5
8, 31332, Control_c, 7, 7, 4
8, 31342, Control_c, 7, 7, 3
8, 31345, Control_c, 7, 7, 2
8, 31350, Control_c, 7, 7, 1
8, 31355, Control_c, 7, 7, 0
8, 31368, Note_on_c, 7, 41, 0
8, 31381, Note_on_c, 7, 45, 122
8, 31418, Note_on_c, 7, 45, 0
8, 31442, Note_on_c, 7, 48, 125
8, 31558, Note_on_c, 7, 48, 0
8, 31560, Note_on_c, 7, 45, 125
8, 31612, Note_on_c, 7, 45, 0
8, 31618, Note_on_c, 7, 48, 121
8, 31664, Note_on_c, 7, 48, 0
8, 31679, Note_on_c, 7, 41, 125
8, 31858, Note_on_c, 7, 41, 0
8, 31858, End_track
9, 0, Start_track
9, 0, MIDI_port, 0
9, 0, Title_t, "Baritone Sax"
9, 0, Program_c, 8, 66
9, 0, Control_c, 8, 7, 127
9, 0, Control_c, 8, 7, 127
9, 0, Control_c, 8, 10, 50
9, 0, Program_c, 8, 66
9, 2404, Note_on_c, 8, 65, 122
9, 2459, Note_on_c, 8, 65, 0
9, 2520, Note_on_c, 8, 65, 122
9, 2571, Note_on_c, 8, 65, 0
9, 2637, Note_on_c, 8, 65, 122
9, 2689, Note_on_c, 8, 65, 0
9, 2693, Note_on_c, 8, 64, 121
9, 2739, Note_on_c, 8, 64, 0
9, 2747, Note_on_c, 8, 65, 121
9, 2806, Note_on_c, 8, 65, 0
9, 2809, Note_on_c, 8, 64, 121
9, 2855, Note_on_c, 8, 64, 0
9, 2872, Note_on_c, 8, 62, 122
9, 2925, Note_on_c, 8, 62, 0
9, 2989, Note_on_c, 8, 62, 121
9, 3045, Note_on_c, 8, 62, 0
9, 3111, Note_on_c, 8, 62, 122
9, 3165, Note_on_c, 8, 62, 0
9, 3172, Note_on_c, 8, 60, 121
9, 3217, Note_on_c, 8, 60, 0
9, 3234, Note_on_c, 8, 62, 122
9, 3288, Note_on_c, 8, 60, 122
9, 3296, Note_on_c, 8, 62, 0
9, 3320, Note_on_c, 8, 60, 0
9, 3352, Note_on_c, 8, 58, 122
9, 3409, Note_on_c, 8, 58, 0
9, 3476, Note_on_c, 8, 58, 122
9, 3536, Note_on_c, 8, 58, 0
9, 3593, Note_on_c, 8, 58, 122
9, 3652, Note_on_c, 8, 58, 0
9, 3658, Note_on_c, 8, 57, 121
9, 3709, Note_on_c, 8, 57, 0
9, 3714, Note_on_c, 8, 58, 122
9, 3771, Note_on_c, 8, 58, 0
9, 3780, Note_on_c, 8, 62, 115
9, 3824, Note_on_c, 8, 62, 0
9, 3835, Note_on_c, 8, 60, 122
9, 3901, Note_on_c, 8, 60, 0
9, 3956, Note_on_c, 8, 60, 122
9, 4020, Note_on_c, 8, 60, 0
9, 4077, Note_on_c, 8, 60, 125
9, 4123, Note_on_c, 8, 60, 0
9, 8167, Note_on_c, 8, 53, 115
9, 8519, Note_on_c, 8, 57, 121
9, 8527, Note_on_c, 8, 53, 0
9, 8635, Note_on_c, 8, 57, 0
9, 8635, Note_on_c, 8, 60, 122
9, 9105, Note_on_c, 8, 60, 0
9, 9107, Note_on_c, 8, 53, 118
9, 9475, Note_on_c, 8, 57, 121
9, 9492, Note_on_c, 8, 53, 0
9, 9585, Note_on_c, 8, 57, 0
9, 9590, Note_on_c, 8, 62, 122
9, 10106, Note_on_c, 8, 55, 118
9, 10130, Note_on_c, 8, 62, 0
9, 10436, Note_on_c, 8, 58, 118
9, 10445, Note_on_c, 8, 55, 0
9, 10554, Note_on_c, 8, 62, 115
9, 10555, Note_on_c, 8, 58, 0
9, 11026, Note_on_c, 8, 62, 0
9, 11031, Note_on_c, 8, 48, 121
9, 11391, Note_on_c, 8, 52, 121
9, 11397, Note_on_c, 8, 48, 0
9, 11503, Note_on_c, 8, 52, 0
9, 11994, Note_on_c, 8, 53, 97
9, 12484, Note_on_c, 8, 62, 97
9, 12496, Note_on_c, 8, 53, 0
9, 12961, Note_on_c, 8, 55, 107
9, 12962, Note_on_c, 8, 62, 0
9, 13432, Note_on_c, 8, 60, 107
9, 13435, Note_on_c, 8, 55, 0
9, 13922, Note_on_c, 8, 53, 93
9, 13927, Note_on_c, 8, 60, 0
9, 14400, Note_on_c, 8, 62, 103
9, 14408, Note_on_c, 8, 53, 0
9, 14882, Note_on_c, 8, 62, 0
9, 14882, Note_on_c, 8, 55, 121
9, 15355, Note_on_c, 8, 60, 107
9, 15358, Note_on_c, 8, 55, 0
9, 15826, Note_on_c, 8, 60, 0
9, 15834, Note_on_c, 8, 53, 121
9, 16198, Note_on_c, 8, 57, 115
9, 16208, Note_on_c, 8, 53, 0
9, 16334, Note_on_c, 8, 60, 97
9, 16341, Note_on_c, 8, 57, 0
9, 16787, Note_on_c, 8, 60, 0
9, 16789, Note_on_c, 8, 53, 118
9, 17155, Note_on_c, 8, 57, 118
9, 17170, Note_on_c, 8, 53, 0
9, 17276, Note_on_c, 8, 57, 0
9, 17276, Note_on_c, 8, 62, 121
9, 17745, Note_on_c, 8, 62, 0
9, 17749, Note_on_c, 8, 55, 118
9, 18113, Note_on_c, 8, 58, 118
9, 18121, Note_on_c, 8, 55, 0
9, 18236, Note_on_c, 8, 62, 118
9, 18237, Note_on_c, 8, 58, 0
9, 18710, Note_on_c, 8, 62, 0
9, 18713, Note_on_c, 8, 48, 118
9, 19073, Note_on_c, 8, 52, 115
9, 19083, Note_on_c, 8, 48, 0
9, 19186, Note_on_c, 8, 52, 0
9, 23521, Note_on_c, 8, 53, 115
9, 23879, Note_on_c, 8, 57, 115
9, 23892, Note_on_c, 8, 53, 0
9, 23989, Note_on_c, 8, 57, 0
9, 23996, Note_on_c, 8, 60, 121
9, 24478, Note_on_c, 8, 60, 0
9, 24480, Note_on_c, 8, 53, 122
9, 24839, Note_on_c, 8, 57, 118
9, 24853, Note_on_c, 8, 53, 0
9, 24944, Note_on_c, 8, 57, 0
9, 24953, Note_on_c, 8, 62, 121
9, 25440, Note_on_c, 8, 62, 0
9, 25442, Note_on_c, 8, 55, 121
9, 25789, Note_on_c, 8, 55, 0
9, 25789, Note_on_c, 8, 58, 121
9, 25911, Note_on_c, 8, 58, 0
9, 25914, Note_on_c, 8, 62, 118
9, 26389, Note_on_c, 8, 62, 0
9, 26393, Note_on_c, 8, 48, 121
9, 26755, Note_on_c, 8, 52, 107
9, 26764, Note_on_c, 8, 48, 0
9, 26862, Note_on_c, 8, 52, 0
9, 27351, Note_on_c, 8, 53, 121
9, 27848, Note_on_c, 8, 62, 97
9, 27862, Note_on_c, 8, 53, 0
9, 28319, Note_on_c, 8, 55, 115
9, 28321, Note_on_c, 8, 62, 0
9, 28797, Note_on_c, 8, 55, 0
9, 28797, Note_on_c, 8, 60, 97
9, 29276, Note_on_c, 8, 53, 118
9, 29279, Note_on_c, 8, 60, 0
9, 29375, Control_c, 8, 7, 104
9, 29385, Control_c, 8, 7, 103
9, 29390, Control_c, 8, 7, 102
9, 29440, Control_c, 8, 7, 101
9, 29505, Control_c, 8, 7, 100
9, 29523, Control_c, 8, 7, 99
9, 29526, Control_c, 8, 7, 98
9, 29585, Control_c, 8, 7, 97
9, 29630, Control_c, 8, 7, 96
9, 29635, Control_c, 8, 7, 95
9, 29644, Control_c, 8, 7, 94
9, 29699, Control_c, 8, 7, 93
9, 29703, Control_c, 8, 7, 92
9, 29758, Control_c, 8, 7, 91
9, 29761, Note_on_c, 8, 62, 103
9, 29762, Control_c, 8, 7, 90
9, 29767, Note_on_c, 8, 53, 0
9, 29845, Control_c, 8, 7, 89
9, 29850, Control_c, 8, 7, 88
9, 29855, Control_c, 8, 7, 87
9, 29865, Control_c, 8, 7, 86
9, 29905, Control_c, 8, 7, 85
9, 29965, Control_c, 8, 7, 84
9, 29975, Control_c, 8, 7, 83
9, 29980, Control_c, 8, 7, 82
9, 30012, Control_c, 8, 7, 81
9, 30022, Control_c, 8, 7, 80
9, 30025, Control_c, 8, 7, 79
9, 30063, Control_c, 8, 7, 78
9, 30071, Control_c, 8, 7, 77
9, 30076, Control_c, 8, 7, 76
9, 30115, Control_c, 8, 7, 75
9, 30124, Control_c, 8, 7, 74
9, 30129, Control_c, 8, 7, 73
9, 30132, Control_c, 8, 7, 72
9, 30137, Control_c, 8, 7, 71
9, 30205, Control_c, 8, 7, 70
9, 30210, Control_c, 8, 7, 69
9, 30238, Note_on_c, 8, 55, 93
9, 30239, Note_on_c, 8, 62, 0
9, 30248, Control_c, 8, 7, 68
9, 30253, Control_c, 8, 7, 67
9, 30258, Control_c, 8, 7, 66
9, 30350, Control_c, 8, 7, 65
9, 30369, Control_c, 8, 7, 64
9, 30385, Control_c, 8, 7, 63
9, 30400, Control_c, 8, 7, 62
9, 30489, Control_c, 8, 7, 61
9, 30499, Control_c, 8, 7, 60
9, 30510, Control_c, 8, 7, 59
9, 30545, Control_c, 8, 7, 58
9, 30550, Control_c, 8, 7, 57
9, 30560, Control_c, 8, 7, 56
9, 30607, Control_c, 8, 7, 55
9, 30612, Control_c, 8, 7, 53
9, 30617, Control_c, 8, 7, 52
9, 30672, Control_c, 8, 7, 51
9, 30677, Control_c, 8, 7, 50
9, 30721, Note_on_c, 8, 60, 103
9, 30723, Note_on_c, 8, 55, 0
9, 30723, Control_c, 8, 7, 49
9, 30728, Control_c, 8, 7, 48
9, 30732, Control_c, 8, 7, 47
9, 30737, Control_c, 8, 7, 46
9, 30745, Control_c, 8, 7, 45
9, 30798, Control_c, 8, 7, 44
9, 30803, Control_c, 8, 7, 43
9, 30805, Control_c, 8, 7, 42
9, 30870, Control_c, 8, 7, 41
9, 30880, Control_c, 8, 7, 39
9, 30880, Control_c, 8, 7, 40
9, 30910, Control_c, 8, 7, 38
9, 30920, Control_c, 8, 7, 37
9, 30925, Control_c, 8, 7, 36
9, 30930, Control_c, 8, 7, 35
9, 30940, Control_c, 8, 7, 34
9, 30955, Control_c, 8, 7, 33
9, 30975, Control_c, 8, 7, 32
9, 30980, Control_c, 8, 7, 31
9, 30985, Control_c, 8, 7, 30
9, 31012, Control_c, 8, 7, 29
9, 31015, Control_c, 8, 7, 28
9, 31045, Control_c, 8, 7, 27
9, 31050, Control_c, 8, 7, 26
9, 31055, Control_c, 8, 7, 25
9, 31060, Control_c, 8, 7, 24
9, 31065, Control_c, 8, 7, 23
9, 31070, Control_c, 8, 7, 22
9, 31096, Control_c, 8, 7, 21
9, 31101, Control_c, 8, 7, 20
9, 31105, Control_c, 8, 7, 19
9, 31141, Control_c, 8, 7, 18
9, 31150, Control_c, 8, 7, 17
9, 31155, Control_c, 8, 7, 16
9, 31174, Control_c, 8, 7, 15
9, 31179, Control_c, 8, 7, 14
9, 31219, Control_c, 8, 7, 13
9, 31225, Control_c, 8, 7, 12
9, 31230, Control_c, 8, 7, 11
9, 31235, Control_c, 8, 7, 10
9, 31250, Control_c, 8, 7, 9
9, 31275, Control_c, 8, 7, 8
9, 31300, Control_c, 8, 7, 7
9, 31305, Control_c, 8, 7, 6
9, 31315, Control_c, 8, 7, 5
9, 31330, Control_c, 8, 7, 4
9, 31332, Note_on_c, 8, 60, 0
9, 31342, Control_c, 8, 7, 3
9, 31345, Control_c, 8, 7, 2
9, 31350, Control_c, 8, 7, 1
9, 31355, Control_c, 8, 7, 0
9, 31355, End_track
10, 0, Start_track
10, 0, MIDI_port, 0
10, 0, Title_t, "*************************************"
10, 0, End_track
11, 0, Start_track
11, 0, MIDI_port, 0
11, 0, Title_t, "      The Duke Of Earl"
11, 0, End_track
12, 0, Start_track
12, 0, MIDI_port, 0
12, 0, Title_t, "         Sequenced by "
12, 0, End_track
13, 0, Start_track
13, 0, MIDI_port, 0
13, 0, Title_t, "       Redsal@aol.com"
13, 0, End_track
14, 0, Start_track
14, 0, MIDI_port, 0
14, 0, Title_t, "               For"
14, 0, End_track
15, 0, Start_track
15, 0, MIDI_port, 0
15, 0, Title_t, "            Big Pappy"
15, 0, End_track
16, 0, Start_track
16, 0, MIDI_port, 0
16, 0, Title_t, "***********************************"
16, 0, End_track
17, 0, Start_track
17, 0, MIDI_port, 0
17, 0, Title_t, "             8/03/97"
17, 0, End_track
18, 0, Start_track
18, 0, MIDI_port, 0
18, 0, Title_t, "====================="
18, 0, End_track
19, 0, Start_track
19, 0, MIDI_port, 0
19, 0, Title_t, "resequenced on 10-19-97"
19, 0, End_track
20, 0, Start_track
20, 0, MIDI_port, 0
20, 0, Title_t, "by The Cookie Jar"
20, 0, End_track
21, 0, Start_track
21, 0, MIDI_port, 0
21, 0, Title_t, "thecookiejar@geocities.com"
21, 0, End_track
0, 0, End_of_file
