0, 0, Header, 1, 3, 960
1, 0, Start_track
1, 0, Control_c, 0, 101, 0
1, 0, Control_c, 0, 100, 0
1, 0, Control_c, 0, 6, 12
1, 0, Control_c, 0, 38, 0
1, 0, Control_c, 1, 101, 0
1, 0, Control_c, 1, 100, 0
1, 0, Control_c, 1, 6, 12
1, 0, Control_c, 1, 38, 0
1, 0, Control_c, 2, 101, 0
1, 0, Control_c, 2, 100, 0
1, 0, Control_c, 2, 6, 12
1, 0, Control_c, 2, 38, 0
1, 0, Control_c, 3, 101, 0
1, 0, Control_c, 3, 100, 0
1, 0, Control_c, 3, 6, 12
1, 0, Control_c, 3, 38, 0
1, 0, Control_c, 4, 101, 0
1, 0, Control_c, 4, 100, 0
1, 0, Control_c, 4, 6, 12
1, 0, Control_c, 4, 38, 0
1, 0, Control_c, 5, 101, 0
1, 0, Control_c, 5, 100, 0
1, 0, Control_c, 5, 6, 12
1, 0, Control_c, 5, 38, 0
1, 0, Control_c, 6, 101, 0
1, 0, Control_c, 6, 100, 0
1, 0, Control_c, 6, 6, 12
1, 0, Control_c, 6, 38, 0
1, 0, Control_c, 7, 101, 0
1, 0, Control_c, 7, 100, 0
1, 0, Control_c, 7, 6, 12
1, 0, Control_c, 7, 38, 0
1, 0, Control_c, 8, 101, 0
1, 0, Control_c, 8, 100, 0
1, 0, Control_c, 8, 6, 12
1, 0, Control_c, 8, 38, 0
1, 0, Control_c, 9, 101, 0
1, 0, Control_c, 9, 100, 0
1, 0, Control_c, 9, 6, 12
1, 0, Control_c, 9, 38, 0
1, 0, Control_c, 10, 101, 0
1, 0, Control_c, 10, 100, 0
1, 0, Control_c, 10, 6, 12
1, 0, Control_c, 10, 38, 0
1, 0, Control_c, 11, 101, 0
1, 0, Control_c, 11, 100, 0
1, 0, Control_c, 11, 6, 12
1, 0, Control_c, 11, 38, 0
1, 0, Control_c, 12, 101, 0
1, 0, Control_c, 12, 100, 0
1, 0, Control_c, 12, 6, 12
1, 0, Control_c, 12, 38, 0
1, 0, Control_c, 13, 101, 0
1, 0, Control_c, 13, 100, 0
1, 0, Control_c, 13, 6, 12
1, 0, Control_c, 13, 38, 0
1, 0, Control_c, 14, 101, 0
1, 0, Control_c, 14, 100, 0
1, 0, Control_c, 14, 6, 12
1, 0, Control_c, 14, 38, 0
1, 0, Control_c, 15, 101, 0
1, 0, Control_c, 15, 100, 0
1, 0, Control_c, 15, 6, 12
1, 0, Control_c, 15, 38, 0
1, 0, Time_signature, 4, 2, 24, 8
1, 0, Tempo, 750000
1, 0, End_track
2, 0, Start_track
2, 0, Pitch_bend_c, 0, 8192
2, 0, Control_c, 0, 7, 87
2, 0, Control_c, 0, 10, 63
2, 0, Control_c, 0, 93, 0
2, 0, Control_c, 0, 91, 0
2, 0, Control_c, 0, 95, 0
2, 0, Control_c, 0, 92, 0
2, 0, Control_c, 0, 11, 127
2, 0, Program_c, 0, 33
2, 2880, Note_on_c, 0, 50, 95
2, 3120, Note_off_c, 0, 50, 95
2, 3120, Note_on_c, 0, 52, 95
2, 3360, Note_off_c, 0, 52, 95
2, 3360, Note_on_c, 0, 56, 95
2, 3600, Note_off_c, 0, 56, 95
2, 3600, Note_on_c, 0, 57, 95
2, 3840, Note_off_c, 0, 57, 95
2, 3840, Note_on_c, 0, 59, 95
2, 5040, Note_off_c, 0, 59, 95
2, 5040, Note_on_c, 0, 61, 95
2, 5280, Note_off_c, 0, 61, 95
2, 5280, Note_on_c, 0, 59, 95
2, 5520, Note_off_c, 0, 59, 95
2, 5520, Note_on_c, 0, 57, 95
2, 6840, Note_on_c, 0, 53, 95
2, 6960, Note_off_c, 0, 57, 95
2, 6960, Note_off_c, 0, 53, 95
2, 6960, Note_on_c, 0, 54, 95
2, 7200, Note_off_c, 0, 54, 95
2, 7200, Note_on_c, 0, 57, 95
2, 7440, Note_off_c, 0, 57, 95
2, 7440, Note_on_c, 0, 57, 95
2, 7680, Note_off_c, 0, 57, 95
2, 7680, Note_on_c, 0, 56, 95
2, 8400, Note_off_c, 0, 56, 95
2, 8400, Note_on_c, 0, 56, 95
2, 8640, Note_off_c, 0, 56, 95
2, 8640, Note_on_c, 0, 59, 95
2, 9120, Note_off_c, 0, 59, 95
2, 9120, Note_on_c, 0, 56, 95
2, 9360, Note_off_c, 0, 56, 95
2, 9360, Note_on_c, 0, 54, 95
2, 10440, Note_on_c, 0, 47, 95
2, 10560, Note_off_c, 0, 54, 95
2, 10560, Note_off_c, 0, 47, 95
2, 10560, Note_on_c, 0, 49, 95
2, 11040, Note_off_c, 0, 49, 95
2, 11040, Note_on_c, 0, 52, 95
2, 11280, Note_off_c, 0, 52, 95
2, 11280, Note_on_c, 0, 52, 95
2, 12720, Note_off_c, 0, 52, 95
2, 12720, Note_on_c, 0, 54, 95
2, 12960, Note_off_c, 0, 54, 95
2, 12960, Note_on_c, 0, 52, 95
2, 13200, Note_off_c, 0, 52, 95
2, 13200, Note_on_c, 0, 50, 95
2, 14400, Note_off_c, 0, 50, 95
2, 14400, Note_on_c, 0, 50, 95
2, 14640, Note_off_c, 0, 50, 95
2, 14640, Note_on_c, 0, 52, 95
2, 14880, Note_off_c, 0, 52, 95
2, 14880, Note_on_c, 0, 50, 95
2, 15120, Note_off_c, 0, 50, 95
2, 15120, Note_on_c, 0, 49, 95
2, 16080, Note_off_c, 0, 49, 95
2, 16080, Note_on_c, 0, 47, 95
2, 16320, Note_off_c, 0, 47, 95
2, 16320, Pitch_bend_c, 0, 9600
2, 16320, Note_on_c, 0, 50, 95
2, 16400, Pitch_bend_c, 0, 9600
2, 16407, Pitch_bend_c, 0, 9472
2, 16414, Pitch_bend_c, 0, 9344
2, 16421, Pitch_bend_c, 0, 9216
2, 16428, Pitch_bend_c, 0, 9088
2, 16435, Pitch_bend_c, 0, 8960
2, 16442, Pitch_bend_c, 0, 8832
2, 16449, Pitch_bend_c, 0, 8704
2, 16456, Pitch_bend_c, 0, 8576
2, 16463, Pitch_bend_c, 0, 8448
2, 16470, Pitch_bend_c, 0, 8320
2, 16477, Pitch_bend_c, 0, 8192
2, 16480, Pitch_bend_c, 0, 8192
2, 16560, Pitch_bend_c, 0, 8192
2, 16560, Pitch_bend_c, 0, 8192
2, 16560, Note_off_c, 0, 50, 95
2, 16560, Note_on_c, 0, 49, 95
2, 16800, Note_off_c, 0, 49, 95
2, 16800, Note_on_c, 0, 47, 95
2, 18240, Note_off_c, 0, 47, 95
2, 18240, Note_on_c, 0, 50, 95
2, 18480, Note_off_c, 0, 50, 95
2, 18480, Note_on_c, 0, 52, 95
2, 18720, Note_off_c, 0, 52, 95
2, 18720, Note_on_c, 0, 56, 95
2, 18960, Note_off_c, 0, 56, 95
2, 18960, Note_on_c, 0, 57, 95
2, 19200, Note_off_c, 0, 57, 95
2, 19200, Note_on_c, 0, 59, 95
2, 20400, Note_off_c, 0, 59, 95
2, 20400, Note_on_c, 0, 61, 95
2, 20640, Note_off_c, 0, 61, 95
2, 20640, Note_on_c, 0, 59, 95
2, 20880, Note_off_c, 0, 59, 95
2, 20880, Note_on_c, 0, 57, 95
2, 22200, Note_on_c, 0, 53, 95
2, 22320, Note_off_c, 0, 57, 95
2, 22320, Note_off_c, 0, 53, 95
2, 22320, Note_on_c, 0, 54, 95
2, 22560, Note_off_c, 0, 54, 95
2, 22560, Note_on_c, 0, 57, 95
2, 22800, Note_off_c, 0, 57, 95
2, 22800, Note_on_c, 0, 57, 95
2, 23040, Note_off_c, 0, 57, 95
2, 23040, Note_on_c, 0, 56, 95
2, 23760, Note_off_c, 0, 56, 95
2, 23760, Note_on_c, 0, 56, 95
2, 24000, Note_off_c, 0, 56, 95
2, 24000, Note_on_c, 0, 59, 95
2, 24480, Note_off_c, 0, 59, 95
2, 24480, Note_on_c, 0, 56, 95
2, 24720, Note_off_c, 0, 56, 95
2, 24720, Note_on_c, 0, 54, 95
2, 25800, Note_on_c, 0, 47, 95
2, 25920, Note_off_c, 0, 54, 95
2, 25920, Note_off_c, 0, 47, 95
2, 25920, Note_on_c, 0, 49, 95
2, 26400, Note_off_c, 0, 49, 95
2, 26400, Note_on_c, 0, 52, 95
2, 26640, Note_off_c, 0, 52, 95
2, 26640, Note_on_c, 0, 52, 95
2, 28080, Note_off_c, 0, 52, 95
2, 28080, Note_on_c, 0, 54, 95
2, 28320, Note_off_c, 0, 54, 95
2, 28320, Note_on_c, 0, 52, 95
2, 28560, Note_off_c, 0, 52, 95
2, 28560, Note_on_c, 0, 50, 95
2, 29760, Note_off_c, 0, 50, 95
2, 29760, Note_on_c, 0, 50, 95
2, 30000, Note_off_c, 0, 50, 95
2, 30000, Note_on_c, 0, 52, 95
2, 30240, Note_off_c, 0, 52, 95
2, 30240, Note_on_c, 0, 50, 95
2, 30480, Note_off_c, 0, 50, 95
2, 30480, Note_on_c, 0, 49, 95
2, 31440, Note_off_c, 0, 49, 95
2, 31440, Note_on_c, 0, 47, 95
2, 31680, Note_off_c, 0, 47, 95
2, 31680, Pitch_bend_c, 0, 8192
2, 31680, Note_on_c, 0, 50, 95
2, 31690, Pitch_bend_c, 0, 8320
2, 31700, Pitch_bend_c, 0, 8448
2, 31710, Pitch_bend_c, 0, 8576
2, 31720, Pitch_bend_c, 0, 8704
2, 31730, Pitch_bend_c, 0, 8832
2, 31740, Pitch_bend_c, 0, 8960
2, 31750, Pitch_bend_c, 0, 9088
2, 31760, Pitch_bend_c, 0, 9216
2, 31770, Pitch_bend_c, 0, 9344
2, 31780, Pitch_bend_c, 0, 9472
2, 31790, Pitch_bend_c, 0, 9600
2, 31800, Pitch_bend_c, 0, 9600
2, 31920, Pitch_bend_c, 0, 9600
2, 31920, Pitch_bend_c, 0, 8192
2, 31920, Note_off_c, 0, 50, 95
2, 31920, Note_on_c, 0, 49, 95
2, 32160, Note_off_c, 0, 49, 95
2, 32160, Note_on_c, 0, 47, 95
2, 33600, Note_off_c, 0, 47, 95
2, 33600, Note_on_c, 0, 40, 95
2, 33840, Note_off_c, 0, 40, 95
2, 33840, Note_on_c, 0, 42, 95
2, 34080, Note_off_c, 0, 42, 95
2, 34080, Note_on_c, 0, 44, 95
2, 34320, Note_off_c, 0, 44, 95
2, 34320, Note_on_c, 0, 47, 95
2, 34560, Note_off_c, 0, 47, 95
2, 34560, Note_on_c, 0, 49, 95
2, 35040, Note_off_c, 0, 49, 95
2, 35040, Note_on_c, 0, 52, 95
2, 35280, Note_off_c, 0, 52, 95
2, 35280, Note_on_c, 0, 54, 95
2, 36000, Note_off_c, 0, 54, 95
2, 36000, Note_on_c, 0, 54, 95
2, 36240, Note_off_c, 0, 54, 95
2, 36240, Note_on_c, 0, 56, 95
2, 37440, Note_off_c, 0, 56, 95
2, 37440, Note_on_c, 0, 56, 95
2, 37680, Note_off_c, 0, 56, 95
2, 37680, Note_on_c, 0, 57, 95
2, 37920, Note_off_c, 0, 57, 95
2, 37920, Note_on_c, 0, 56, 95
2, 38160, Note_off_c, 0, 56, 95
2, 38160, Note_on_c, 0, 54, 95
2, 40080, Note_off_c, 0, 54, 95
2, 40080, Note_on_c, 0, 54, 95
2, 40320, Note_off_c, 0, 54, 95
2, 40320, Note_on_c, 0, 52, 95
2, 40560, Note_off_c, 0, 52, 95
2, 40800, Note_on_c, 0, 52, 95
2, 41520, Note_off_c, 0, 52, 95
2, 41520, Note_on_c, 0, 50, 95
2, 42000, Note_off_c, 0, 50, 95
2, 42000, Note_on_c, 0, 43, 95
2, 42240, Note_off_c, 0, 43, 95
2, 42240, Note_on_c, 0, 49, 95
2, 43200, Note_off_c, 0, 49, 95
2, 43440, Note_on_c, 0, 49, 95
2, 43680, Note_off_c, 0, 49, 95
2, 43920, Note_on_c, 0, 43, 95
2, 44160, Note_off_c, 0, 43, 95
2, 44160, Note_on_c, 0, 47, 95
2, 45120, Note_off_c, 0, 47, 95
2, 45360, Note_on_c, 0, 47, 95
2, 45600, Note_off_c, 0, 47, 95
2, 46560, Note_on_c, 0, 40, 95
2, 46800, Note_off_c, 0, 40, 95
2, 46800, Note_on_c, 0, 35, 95
2, 47040, Note_off_c, 0, 35, 95
2, 47040, Note_on_c, 0, 28, 95
2, 48960, Note_off_c, 0, 28, 95
2, 48960, Note_on_c, 0, 40, 95
2, 49200, Note_off_c, 0, 40, 95
2, 49200, Note_on_c, 0, 42, 95
2, 49440, Note_off_c, 0, 42, 95
2, 49440, Note_on_c, 0, 44, 95
2, 49680, Note_off_c, 0, 44, 95
2, 49680, Note_on_c, 0, 47, 95
2, 49920, Note_off_c, 0, 47, 95
2, 49920, Note_on_c, 0, 49, 95
2, 50400, Note_off_c, 0, 49, 95
2, 50400, Note_on_c, 0, 52, 95
2, 50640, Note_off_c, 0, 52, 95
2, 50640, Note_on_c, 0, 54, 95
2, 51360, Note_off_c, 0, 54, 95
2, 51360, Note_on_c, 0, 54, 95
2, 51600, Note_off_c, 0, 54, 95
2, 51600, Note_on_c, 0, 56, 95
2, 52800, Note_off_c, 0, 56, 95
2, 52800, Note_on_c, 0, 56, 95
2, 53040, Note_off_c, 0, 56, 95
2, 53040, Note_on_c, 0, 57, 95
2, 53280, Note_off_c, 0, 57, 95
2, 53280, Note_on_c, 0, 56, 95
2, 53520, Note_off_c, 0, 56, 95
2, 53520, Note_on_c, 0, 54, 95
2, 55440, Note_off_c, 0, 54, 95
2, 55440, Note_on_c, 0, 54, 95
2, 55680, Note_off_c, 0, 54, 95
2, 55680, Note_on_c, 0, 52, 95
2, 55920, Note_off_c, 0, 52, 95
2, 56160, Note_on_c, 0, 52, 95
2, 56880, Note_off_c, 0, 52, 95
2, 56880, Note_on_c, 0, 50, 95
2, 57360, Note_off_c, 0, 50, 95
2, 57360, Note_on_c, 0, 43, 95
2, 57600, Note_off_c, 0, 43, 95
2, 57600, Note_on_c, 0, 49, 95
2, 58560, Note_off_c, 0, 49, 95
2, 58800, Note_on_c, 0, 49, 95
2, 59040, Note_off_c, 0, 49, 95
2, 59280, Note_on_c, 0, 49, 95
2, 59520, Note_off_c, 0, 49, 95
2, 59520, Note_on_c, 0, 51, 95
2, 60480, Note_off_c, 0, 51, 95
2, 60480, Note_on_c, 0, 49, 95
2, 60960, Note_off_c, 0, 49, 95
2, 60960, Note_on_c, 0, 51, 95
2, 61260, Note_on_c, 0, 47, 95
2, 61440, Note_off_c, 0, 51, 95
2, 61440, Note_off_c, 0, 47, 95
2, 61440, Note_on_c, 0, 49, 95
2, 61600, Pitch_bend_c, 0, 8192
2, 61760, Pitch_bend_c, 0, 8320
2, 61920, Pitch_bend_c, 0, 8192
2, 62080, Pitch_bend_c, 0, 8320
2, 62240, Pitch_bend_c, 0, 8192
2, 62400, Pitch_bend_c, 0, 8320
2, 62400, Pitch_bend_c, 0, 8192
2, 62400, Note_off_c, 0, 49, 95
2, 62400, Note_on_c, 0, 47, 95
2, 63360, Note_off_c, 0, 47, 95
2, 64320, Note_on_c, 0, 50, 95
2, 64560, Note_off_c, 0, 50, 95
2, 64560, Note_on_c, 0, 52, 95
2, 64800, Note_off_c, 0, 52, 95
2, 64800, Note_on_c, 0, 56, 95
2, 65040, Note_off_c, 0, 56, 95
2, 65040, Note_on_c, 0, 57, 95
2, 65280, Note_off_c, 0, 57, 95
2, 65280, Note_on_c, 0, 59, 95
2, 66480, Note_off_c, 0, 59, 95
2, 66480, Note_on_c, 0, 61, 95
2, 66720, Note_off_c, 0, 61, 95
2, 66720, Note_on_c, 0, 59, 95
2, 66960, Note_off_c, 0, 59, 95
2, 66960, Note_on_c, 0, 57, 95
2, 68280, Note_on_c, 0, 53, 95
2, 68400, Note_off_c, 0, 57, 95
2, 68400, Note_off_c, 0, 53, 95
2, 68400, Note_on_c, 0, 54, 95
2, 68640, Note_off_c, 0, 54, 95
2, 68640, Note_on_c, 0, 57, 95
2, 68880, Note_off_c, 0, 57, 95
2, 68880, Note_on_c, 0, 57, 95
2, 69120, Note_off_c, 0, 57, 95
2, 69120, Note_on_c, 0, 56, 95
2, 69840, Note_off_c, 0, 56, 95
2, 69840, Note_on_c, 0, 56, 95
2, 70080, Note_off_c, 0, 56, 95
2, 70080, Note_on_c, 0, 59, 95
2, 70560, Note_off_c, 0, 59, 95
2, 70560, Note_on_c, 0, 56, 95
2, 70800, Note_off_c, 0, 56, 95
2, 70800, Note_on_c, 0, 54, 95
2, 71880, Note_on_c, 0, 47, 95
2, 72000, Note_off_c, 0, 54, 95
2, 72000, Note_off_c, 0, 47, 95
2, 72000, Note_on_c, 0, 49, 95
2, 72480, Note_off_c, 0, 49, 95
2, 72480, Note_on_c, 0, 52, 95
2, 72720, Note_off_c, 0, 52, 95
2, 72720, Note_on_c, 0, 52, 95
2, 74160, Note_off_c, 0, 52, 95
2, 74160, Note_on_c, 0, 54, 95
2, 74400, Note_off_c, 0, 54, 95
2, 74400, Note_on_c, 0, 52, 95
2, 74640, Note_off_c, 0, 52, 95
2, 74640, Note_on_c, 0, 50, 95
2, 75840, Note_off_c, 0, 50, 95
2, 75840, Note_on_c, 0, 50, 95
2, 76080, Note_off_c, 0, 50, 95
2, 76080, Note_on_c, 0, 52, 95
2, 76320, Note_off_c, 0, 52, 95
2, 76320, Note_on_c, 0, 50, 95
2, 76560, Note_off_c, 0, 50, 95
2, 76560, Note_on_c, 0, 49, 95
2, 77520, Note_off_c, 0, 49, 95
2, 77520, Note_on_c, 0, 47, 95
2, 77760, Note_off_c, 0, 47, 95
2, 77760, Pitch_bend_c, 0, 9600
2, 77760, Note_on_c, 0, 50, 95
2, 77840, Pitch_bend_c, 0, 9600
2, 77847, Pitch_bend_c, 0, 9472
2, 77854, Pitch_bend_c, 0, 9344
2, 77861, Pitch_bend_c, 0, 9216
2, 77868, Pitch_bend_c, 0, 9088
2, 77875, Pitch_bend_c, 0, 8960
2, 77882, Pitch_bend_c, 0, 8832
2, 77889, Pitch_bend_c, 0, 8704
2, 77896, Pitch_bend_c, 0, 8576
2, 77903, Pitch_bend_c, 0, 8448
2, 77910, Pitch_bend_c, 0, 8320
2, 77917, Pitch_bend_c, 0, 8192
2, 77920, Pitch_bend_c, 0, 8192
2, 78000, Pitch_bend_c, 0, 8192
2, 78000, Pitch_bend_c, 0, 8192
2, 78000, Note_off_c, 0, 50, 95
2, 78000, Note_on_c, 0, 49, 95
2, 78240, Note_off_c, 0, 49, 95
2, 78240, Note_on_c, 0, 47, 95
2, 79680, Note_off_c, 0, 47, 95
2, 79680, Note_on_c, 0, 50, 95
2, 79920, Note_off_c, 0, 50, 95
2, 79920, Note_on_c, 0, 52, 95
2, 80160, Note_off_c, 0, 52, 95
2, 80160, Note_on_c, 0, 56, 95
2, 80400, Note_off_c, 0, 56, 95
2, 80400, Note_on_c, 0, 57, 95
2, 80640, Note_off_c, 0, 57, 95
2, 80640, Note_on_c, 0, 59, 95
2, 81840, Note_off_c, 0, 59, 95
2, 81840, Note_on_c, 0, 61, 95
2, 82080, Note_off_c, 0, 61, 95
2, 82080, Note_on_c, 0, 59, 95
2, 82320, Note_off_c, 0, 59, 95
2, 82320, Note_on_c, 0, 57, 95
2, 83640, Note_on_c, 0, 53, 95
2, 83760, Note_off_c, 0, 57, 95
2, 83760, Note_off_c, 0, 53, 95
2, 83760, Note_on_c, 0, 54, 95
2, 84000, Note_off_c, 0, 54, 95
2, 84000, Note_on_c, 0, 57, 95
2, 84240, Note_off_c, 0, 57, 95
2, 84240, Note_on_c, 0, 57, 95
2, 84480, Note_off_c, 0, 57, 95
2, 84480, Note_on_c, 0, 56, 95
2, 85200, Note_off_c, 0, 56, 95
2, 85200, Note_on_c, 0, 56, 95
2, 85440, Note_off_c, 0, 56, 95
2, 85440, Note_on_c, 0, 59, 95
2, 85920, Note_off_c, 0, 59, 95
2, 85920, Note_on_c, 0, 56, 95
2, 86160, Note_off_c, 0, 56, 95
2, 86160, Note_on_c, 0, 54, 95
2, 87240, Note_on_c, 0, 47, 95
2, 87360, Note_off_c, 0, 54, 95
2, 87360, Note_off_c, 0, 47, 95
2, 87360, Note_on_c, 0, 49, 95
2, 87840, Note_off_c, 0, 49, 95
2, 87840, Note_on_c, 0, 52, 95
2, 88080, Note_off_c, 0, 52, 95
2, 88080, Note_on_c, 0, 52, 95
2, 89520, Note_off_c, 0, 52, 95
2, 89520, Note_on_c, 0, 54, 95
2, 89760, Note_off_c, 0, 54, 95
2, 89760, Note_on_c, 0, 52, 95
2, 90000, Note_off_c, 0, 52, 95
2, 90000, Note_on_c, 0, 50, 95
2, 91200, Note_off_c, 0, 50, 95
2, 91200, Note_on_c, 0, 50, 95
2, 91440, Note_off_c, 0, 50, 95
2, 91440, Note_on_c, 0, 52, 95
2, 91680, Note_off_c, 0, 52, 95
2, 91680, Note_on_c, 0, 50, 95
2, 91920, Note_off_c, 0, 50, 95
2, 91920, Note_on_c, 0, 49, 95
2, 92880, Note_off_c, 0, 49, 95
2, 92880, Note_on_c, 0, 47, 95
2, 93120, Note_off_c, 0, 47, 95
2, 93120, Pitch_bend_c, 0, 9600
2, 93120, Note_on_c, 0, 50, 95
2, 93200, Pitch_bend_c, 0, 9600
2, 93207, Pitch_bend_c, 0, 9472
2, 93214, Pitch_bend_c, 0, 9344
2, 93221, Pitch_bend_c, 0, 9216
2, 93228, Pitch_bend_c, 0, 9088
2, 93235, Pitch_bend_c, 0, 8960
2, 93242, Pitch_bend_c, 0, 8832
2, 93249, Pitch_bend_c, 0, 8704
2, 93256, Pitch_bend_c, 0, 8576
2, 93263, Pitch_bend_c, 0, 8448
2, 93270, Pitch_bend_c, 0, 8320
2, 93277, Pitch_bend_c, 0, 8192
2, 93280, Pitch_bend_c, 0, 8192
2, 93360, Pitch_bend_c, 0, 8192
2, 93360, Pitch_bend_c, 0, 8192
2, 93360, Note_off_c, 0, 50, 95
2, 93360, Note_on_c, 0, 49, 95
2, 93600, Note_off_c, 0, 49, 95
2, 93600, Note_on_c, 0, 47, 95
2, 96000, Note_off_c, 0, 47, 95
2, 99600, Note_on_c, 0, 28, 95
2, 100080, Note_off_c, 0, 28, 95
2, 100080, Note_on_c, 0, 28, 95
2, 100320, Note_off_c, 0, 28, 95
2, 100320, Note_on_c, 0, 37, 95
2, 100560, Note_off_c, 0, 37, 95
2, 100560, Note_on_c, 0, 37, 95
2, 100800, Note_off_c, 0, 37, 95
2, 100800, Note_on_c, 0, 38, 95
2, 101040, Note_off_c, 0, 38, 95
2, 101040, Note_on_c, 0, 38, 95
2, 101280, Note_off_c, 0, 38, 95
2, 101280, Note_on_c, 0, 40, 95
2, 101520, Note_off_c, 0, 40, 95
2, 101520, Note_on_c, 0, 28, 95
2, 102000, Note_off_c, 0, 28, 95
2, 102000, Note_on_c, 0, 28, 95
2, 102240, Note_off_c, 0, 28, 95
2, 102240, Note_on_c, 0, 35, 95
2, 102480, Note_off_c, 0, 35, 95
2, 102480, Note_on_c, 0, 37, 95
2, 102720, Note_off_c, 0, 37, 95
2, 102720, Note_on_c, 0, 42, 95
2, 102960, Note_off_c, 0, 42, 95
2, 102960, Note_on_c, 0, 42, 95
2, 103200, Note_off_c, 0, 42, 95
2, 103200, Note_on_c, 0, 40, 95
2, 103440, Note_off_c, 0, 40, 95
2, 103440, Note_on_c, 0, 28, 95
2, 103920, Note_off_c, 0, 28, 95
2, 103920, Note_on_c, 0, 28, 95
2, 104160, Note_off_c, 0, 28, 95
2, 104160, Note_on_c, 0, 37, 95
2, 104400, Note_off_c, 0, 37, 95
2, 104400, Note_on_c, 0, 37, 95
2, 104640, Note_off_c, 0, 37, 95
2, 104640, Note_on_c, 0, 38, 95
2, 104880, Note_off_c, 0, 38, 95
2, 104880, Note_on_c, 0, 38, 95
2, 105120, Note_off_c, 0, 38, 95
2, 105120, Note_on_c, 0, 40, 95
2, 105360, Note_off_c, 0, 40, 95
2, 105360, Note_on_c, 0, 28, 95
2, 105840, Note_off_c, 0, 28, 95
2, 105840, Note_on_c, 0, 33, 95
2, 106080, Note_off_c, 0, 33, 95
2, 106080, Note_on_c, 0, 35, 95
2, 106320, Note_off_c, 0, 35, 95
2, 106320, Note_on_c, 0, 47, 95
2, 106440, Note_on_c, 0, 35, 95
2, 106560, Note_off_c, 0, 47, 95
2, 106560, Note_off_c, 0, 35, 95
2, 106560, Note_on_c, 0, 37, 95
2, 106800, Note_off_c, 0, 37, 95
2, 106800, Note_on_c, 0, 47, 95
2, 107040, Note_off_c, 0, 47, 95
2, 107040, Note_on_c, 0, 45, 95
2, 107280, Note_off_c, 0, 45, 95
2, 107280, Note_on_c, 0, 28, 95
2, 107760, Note_off_c, 0, 28, 95
2, 107760, Note_on_c, 0, 28, 95
2, 108000, Note_off_c, 0, 28, 95
2, 108000, Note_on_c, 0, 37, 95
2, 108240, Note_off_c, 0, 37, 95
2, 108240, Note_on_c, 0, 37, 95
2, 108480, Note_off_c, 0, 37, 95
2, 108480, Note_on_c, 0, 38, 95
2, 108720, Note_off_c, 0, 38, 95
2, 108720, Note_on_c, 0, 38, 95
2, 108960, Note_off_c, 0, 38, 95
2, 108960, Note_on_c, 0, 40, 95
2, 109200, Note_off_c, 0, 40, 95
2, 109200, Note_on_c, 0, 28, 95
2, 109680, Note_off_c, 0, 28, 95
2, 109680, Note_on_c, 0, 28, 95
2, 109920, Note_off_c, 0, 28, 95
2, 109920, Note_on_c, 0, 35, 95
2, 110160, Note_off_c, 0, 35, 95
2, 110160, Note_on_c, 0, 37, 95
2, 110400, Note_off_c, 0, 37, 95
2, 110400, Note_on_c, 0, 42, 95
2, 110640, Note_off_c, 0, 42, 95
2, 110640, Note_on_c, 0, 42, 95
2, 110880, Note_off_c, 0, 42, 95
2, 110880, Note_on_c, 0, 40, 95
2, 111120, Note_off_c, 0, 40, 95
2, 111120, Note_on_c, 0, 28, 95
2, 111600, Note_off_c, 0, 28, 95
2, 111600, Note_on_c, 0, 28, 95
2, 111840, Note_off_c, 0, 28, 95
2, 111840, Note_on_c, 0, 37, 95
2, 112080, Note_off_c, 0, 37, 95
2, 112080, Note_on_c, 0, 37, 95
2, 112320, Note_off_c, 0, 37, 95
2, 112320, Note_on_c, 0, 38, 95
2, 112560, Note_off_c, 0, 38, 95
2, 112560, Note_on_c, 0, 38, 95
2, 112800, Note_off_c, 0, 38, 95
2, 112800, Note_on_c, 0, 40, 95
2, 113040, Note_off_c, 0, 40, 95
2, 113040, Note_on_c, 0, 28, 95
2, 113520, Note_off_c, 0, 28, 95
2, 113520, Note_on_c, 0, 33, 95
2, 113760, Note_off_c, 0, 33, 95
2, 113760, Note_on_c, 0, 35, 95
2, 114000, Note_off_c, 0, 35, 95
2, 114000, Note_on_c, 0, 47, 95
2, 114120, Note_on_c, 0, 35, 95
2, 114240, Note_off_c, 0, 47, 95
2, 114240, Note_off_c, 0, 35, 95
2, 114240, Note_on_c, 0, 37, 95
2, 114480, Note_off_c, 0, 37, 95
2, 114480, Note_on_c, 0, 47, 95
2, 114720, Note_off_c, 0, 47, 95
2, 114720, Note_on_c, 0, 45, 95
2, 114960, Note_off_c, 0, 45, 95
2, 114960, Note_on_c, 0, 28, 95
2, 115440, Note_off_c, 0, 28, 95
2, 115440, Note_on_c, 0, 28, 95
2, 115680, Note_off_c, 0, 28, 95
2, 115680, Note_on_c, 0, 37, 95
2, 115920, Note_off_c, 0, 37, 95
2, 115920, Note_on_c, 0, 37, 95
2, 116160, Note_off_c, 0, 37, 95
2, 116160, Note_on_c, 0, 38, 95
2, 116400, Note_off_c, 0, 38, 95
2, 116400, Note_on_c, 0, 38, 95
2, 116640, Note_off_c, 0, 38, 95
2, 116640, Note_on_c, 0, 40, 95
2, 116880, Note_off_c, 0, 40, 95
2, 116880, Note_on_c, 0, 28, 95
2, 117360, Note_off_c, 0, 28, 95
2, 117360, Note_on_c, 0, 28, 95
2, 117600, Note_off_c, 0, 28, 95
2, 117600, Note_on_c, 0, 35, 95
2, 117840, Note_off_c, 0, 35, 95
2, 117840, Note_on_c, 0, 37, 95
2, 118080, Note_off_c, 0, 37, 95
2, 118080, Note_on_c, 0, 42, 95
2, 118320, Note_off_c, 0, 42, 95
2, 118320, Note_on_c, 0, 42, 95
2, 118560, Note_off_c, 0, 42, 95
2, 118560, Note_on_c, 0, 40, 95
2, 118800, Note_off_c, 0, 40, 95
2, 118800, Note_on_c, 0, 28, 95
2, 119280, Note_off_c, 0, 28, 95
2, 119280, Note_on_c, 0, 28, 95
2, 119520, Note_off_c, 0, 28, 95
2, 119520, Note_on_c, 0, 37, 95
2, 119760, Note_off_c, 0, 37, 95
2, 119760, Note_on_c, 0, 37, 95
2, 120000, Note_off_c, 0, 37, 95
2, 120000, Note_on_c, 0, 38, 95
2, 120240, Note_off_c, 0, 38, 95
2, 120240, Note_on_c, 0, 38, 95
2, 120480, Note_off_c, 0, 38, 95
2, 120480, Note_on_c, 0, 40, 95
2, 120720, Note_off_c, 0, 40, 95
2, 120720, Note_on_c, 0, 28, 95
2, 121200, Note_off_c, 0, 28, 95
2, 121200, Note_on_c, 0, 33, 95
2, 121440, Note_off_c, 0, 33, 95
2, 121440, Note_on_c, 0, 35, 95
2, 121680, Note_off_c, 0, 35, 95
2, 121680, Note_on_c, 0, 47, 95
2, 121800, Note_on_c, 0, 35, 95
2, 121920, Note_off_c, 0, 47, 95
2, 121920, Note_off_c, 0, 35, 95
2, 121920, Note_on_c, 0, 37, 95
2, 122160, Note_off_c, 0, 37, 95
2, 122160, Note_on_c, 0, 47, 95
2, 122400, Note_off_c, 0, 47, 95
2, 122400, Note_on_c, 0, 45, 95
2, 122640, Note_off_c, 0, 45, 95
2, 122640, Note_on_c, 0, 28, 95
2, 123120, Note_off_c, 0, 28, 95
2, 123120, Note_on_c, 0, 28, 95
2, 123360, Note_off_c, 0, 28, 95
2, 123360, Note_on_c, 0, 37, 95
2, 123600, Note_off_c, 0, 37, 95
2, 123600, Note_on_c, 0, 37, 95
2, 123840, Note_off_c, 0, 37, 95
2, 123840, Note_on_c, 0, 38, 95
2, 124080, Note_off_c, 0, 38, 95
2, 124080, Note_on_c, 0, 38, 95
2, 124320, Note_off_c, 0, 38, 95
2, 124320, Note_on_c, 0, 40, 95
2, 124560, Note_off_c, 0, 40, 95
2, 124560, Note_on_c, 0, 28, 95
2, 125040, Note_off_c, 0, 28, 95
2, 125040, Note_on_c, 0, 28, 95
2, 125280, Note_off_c, 0, 28, 95
2, 125280, Note_on_c, 0, 35, 95
2, 125520, Note_off_c, 0, 35, 95
2, 125520, Note_on_c, 0, 37, 95
2, 125760, Note_off_c, 0, 37, 95
2, 125760, Note_on_c, 0, 42, 95
2, 126000, Note_off_c, 0, 42, 95
2, 126000, Note_on_c, 0, 42, 95
2, 126240, Note_off_c, 0, 42, 95
2, 126240, Note_on_c, 0, 40, 95
2, 126480, Note_off_c, 0, 40, 95
2, 126480, Note_on_c, 0, 28, 95
2, 126960, Note_off_c, 0, 28, 95
2, 126960, Note_on_c, 0, 28, 95
2, 127200, Note_off_c, 0, 28, 95
2, 127200, Note_on_c, 0, 37, 95
2, 127440, Note_off_c, 0, 37, 95
2, 127440, Note_on_c, 0, 37, 95
2, 127680, Note_off_c, 0, 37, 95
2, 127680, Note_on_c, 0, 38, 95
2, 127920, Note_off_c, 0, 38, 95
2, 127920, Note_on_c, 0, 38, 95
2, 128160, Note_off_c, 0, 38, 95
2, 128160, Note_on_c, 0, 40, 95
2, 128400, Note_off_c, 0, 40, 95
2, 128400, Note_on_c, 0, 28, 95
2, 128880, Note_off_c, 0, 28, 95
2, 128880, Note_on_c, 0, 33, 95
2, 129120, Note_off_c, 0, 33, 95
2, 129120, Note_on_c, 0, 35, 95
2, 129360, Note_off_c, 0, 35, 95
2, 129360, Note_on_c, 0, 47, 95
2, 129480, Note_on_c, 0, 35, 95
2, 129600, Note_off_c, 0, 47, 95
2, 129600, Note_off_c, 0, 35, 95
2, 129600, Note_on_c, 0, 37, 95
2, 129840, Note_off_c, 0, 37, 95
2, 129840, Note_on_c, 0, 47, 95
2, 130080, Note_off_c, 0, 47, 95
2, 130080, Note_on_c, 0, 45, 95
2, 130320, Note_off_c, 0, 45, 95
2, 130320, Note_on_c, 0, 28, 95
2, 130800, Note_off_c, 0, 28, 95
2, 130800, Note_on_c, 0, 28, 95
2, 131040, Note_off_c, 0, 28, 95
2, 131040, Note_on_c, 0, 37, 95
2, 131280, Note_off_c, 0, 37, 95
2, 131280, Note_on_c, 0, 37, 95
2, 131520, Note_off_c, 0, 37, 95
2, 131520, Note_on_c, 0, 38, 95
2, 131760, Note_off_c, 0, 38, 95
2, 131760, Note_on_c, 0, 38, 95
2, 132000, Note_off_c, 0, 38, 95
2, 132000, Note_on_c, 0, 40, 95
2, 132240, Note_off_c, 0, 40, 95
2, 132240, Note_on_c, 0, 28, 95
2, 132720, Note_off_c, 0, 28, 95
2, 132720, Note_on_c, 0, 28, 95
2, 132960, Note_off_c, 0, 28, 95
2, 132960, Note_on_c, 0, 35, 95
2, 133200, Note_off_c, 0, 35, 95
2, 133200, Note_on_c, 0, 37, 95
2, 133440, Note_off_c, 0, 37, 95
2, 133440, Note_on_c, 0, 42, 95
2, 133680, Note_off_c, 0, 42, 95
2, 133680, Note_on_c, 0, 42, 95
2, 133920, Note_off_c, 0, 42, 95
2, 133920, Note_on_c, 0, 40, 95
2, 134160, Note_off_c, 0, 40, 95
2, 134160, Note_on_c, 0, 28, 95
2, 134640, Note_off_c, 0, 28, 95
2, 134640, Note_on_c, 0, 28, 95
2, 134880, Note_off_c, 0, 28, 95
2, 134880, Note_on_c, 0, 37, 95
2, 135120, Note_off_c, 0, 37, 95
2, 135120, Note_on_c, 0, 37, 95
2, 135360, Note_off_c, 0, 37, 95
2, 135360, Note_on_c, 0, 38, 95
2, 135600, Note_off_c, 0, 38, 95
2, 135600, Note_on_c, 0, 38, 95
2, 135840, Note_off_c, 0, 38, 95
2, 135840, Note_on_c, 0, 40, 95
2, 136080, Note_off_c, 0, 40, 95
2, 136080, Note_on_c, 0, 28, 95
2, 136560, Note_off_c, 0, 28, 95
2, 136560, Note_on_c, 0, 33, 95
2, 136800, Note_off_c, 0, 33, 95
2, 136800, Note_on_c, 0, 35, 95
2, 137040, Note_off_c, 0, 35, 95
2, 137040, Note_on_c, 0, 47, 95
2, 137160, Note_on_c, 0, 35, 95
2, 137280, Note_off_c, 0, 47, 95
2, 137280, Note_off_c, 0, 35, 95
2, 137280, Note_on_c, 0, 37, 95
2, 137520, Note_off_c, 0, 37, 95
2, 137520, Note_on_c, 0, 47, 95
2, 137760, Note_off_c, 0, 47, 95
2, 137760, Note_on_c, 0, 45, 95
2, 138000, Note_off_c, 0, 45, 95
2, 138000, Note_on_c, 0, 28, 95
2, 138480, Note_off_c, 0, 28, 95
2, 138480, Note_on_c, 0, 28, 95
2, 138720, Note_off_c, 0, 28, 95
2, 138720, Note_on_c, 0, 37, 95
2, 138960, Note_off_c, 0, 37, 95
2, 138960, Note_on_c, 0, 37, 95
2, 139200, Note_off_c, 0, 37, 95
2, 139200, Note_on_c, 0, 38, 95
2, 139440, Note_off_c, 0, 38, 95
2, 139440, Note_on_c, 0, 38, 95
2, 139680, Note_off_c, 0, 38, 95
2, 139680, Note_on_c, 0, 40, 95
2, 139920, Note_off_c, 0, 40, 95
2, 139920, Note_on_c, 0, 28, 95
2, 140400, Note_off_c, 0, 28, 95
2, 140400, Note_on_c, 0, 28, 95
2, 140640, Note_off_c, 0, 28, 95
2, 140640, Note_on_c, 0, 35, 95
2, 140880, Note_off_c, 0, 35, 95
2, 140880, Note_on_c, 0, 37, 95
2, 141120, Note_off_c, 0, 37, 95
2, 141120, Note_on_c, 0, 42, 95
2, 141360, Note_off_c, 0, 42, 95
2, 141360, Note_on_c, 0, 42, 95
2, 141600, Note_off_c, 0, 42, 95
2, 141600, Note_on_c, 0, 40, 95
2, 141840, Note_off_c, 0, 40, 95
2, 141840, Note_on_c, 0, 28, 95
2, 142320, Note_off_c, 0, 28, 95
2, 142320, Note_on_c, 0, 28, 95
2, 142560, Note_off_c, 0, 28, 95
2, 142560, Note_on_c, 0, 37, 95
2, 142800, Note_off_c, 0, 37, 95
2, 142800, Note_on_c, 0, 37, 95
2, 143040, Note_off_c, 0, 37, 95
2, 143040, Note_on_c, 0, 38, 95
2, 143280, Note_off_c, 0, 38, 95
2, 143280, Note_on_c, 0, 38, 95
2, 143520, Note_off_c, 0, 38, 95
2, 143520, Note_on_c, 0, 40, 95
2, 143760, Note_off_c, 0, 40, 95
2, 143760, Note_on_c, 0, 28, 95
2, 144240, Note_off_c, 0, 28, 95
2, 144240, Note_on_c, 0, 33, 95
2, 144480, Note_off_c, 0, 33, 95
2, 144480, Note_on_c, 0, 35, 95
2, 144720, Note_off_c, 0, 35, 95
2, 144720, Note_on_c, 0, 47, 95
2, 144840, Note_on_c, 0, 35, 95
2, 144960, Note_off_c, 0, 47, 95
2, 144960, Note_off_c, 0, 35, 95
2, 144960, Note_on_c, 0, 37, 95
2, 145200, Note_off_c, 0, 37, 95
2, 145200, Note_on_c, 0, 47, 95
2, 145440, Note_off_c, 0, 47, 95
2, 145440, Note_on_c, 0, 45, 95
2, 145680, Note_off_c, 0, 45, 95
2, 145680, Note_on_c, 0, 28, 95
2, 146160, Note_off_c, 0, 28, 95
2, 146160, Note_on_c, 0, 28, 95
2, 146400, Note_off_c, 0, 28, 95
2, 146400, Note_on_c, 0, 37, 95
2, 146640, Note_off_c, 0, 37, 95
2, 146640, Note_on_c, 0, 37, 95
2, 146880, Note_off_c, 0, 37, 95
2, 146880, Note_on_c, 0, 38, 95
2, 147120, Note_off_c, 0, 38, 95
2, 147120, Note_on_c, 0, 38, 95
2, 147360, Note_off_c, 0, 38, 95
2, 147360, Note_on_c, 0, 40, 95
2, 147600, Note_off_c, 0, 40, 95
2, 147600, Note_on_c, 0, 28, 95
2, 148080, Note_off_c, 0, 28, 95
2, 148080, Note_on_c, 0, 28, 95
2, 148320, Note_off_c, 0, 28, 95
2, 148320, Note_on_c, 0, 35, 95
2, 148560, Note_off_c, 0, 35, 95
2, 148560, Note_on_c, 0, 37, 95
2, 148800, Note_off_c, 0, 37, 95
2, 148800, Note_on_c, 0, 42, 95
2, 149040, Note_off_c, 0, 42, 95
2, 149040, Note_on_c, 0, 42, 95
2, 149280, Note_off_c, 0, 42, 95
2, 149280, Note_on_c, 0, 40, 95
2, 149520, Note_off_c, 0, 40, 95
2, 149520, Note_on_c, 0, 28, 95
2, 150000, Note_off_c, 0, 28, 95
2, 150000, Note_on_c, 0, 28, 95
2, 150240, Note_off_c, 0, 28, 95
2, 150240, Note_on_c, 0, 37, 95
2, 150480, Note_off_c, 0, 37, 95
2, 150480, Note_on_c, 0, 37, 95
2, 150720, Note_off_c, 0, 37, 95
2, 150720, Note_on_c, 0, 38, 95
2, 150960, Note_off_c, 0, 38, 95
2, 150960, Note_on_c, 0, 38, 95
2, 151200, Note_off_c, 0, 38, 95
2, 151200, Note_on_c, 0, 40, 95
2, 151440, Note_off_c, 0, 40, 95
2, 151440, Note_on_c, 0, 28, 95
2, 151920, Note_off_c, 0, 28, 95
2, 151920, Note_on_c, 0, 33, 95
2, 152160, Note_off_c, 0, 33, 95
2, 152160, Note_on_c, 0, 35, 95
2, 152400, Note_off_c, 0, 35, 95
2, 152400, Note_on_c, 0, 47, 95
2, 152520, Note_on_c, 0, 35, 95
2, 152640, Note_off_c, 0, 47, 95
2, 152640, Note_off_c, 0, 35, 95
2, 152640, Note_on_c, 0, 37, 95
2, 152880, Note_off_c, 0, 37, 95
2, 152880, Note_on_c, 0, 47, 95
2, 153120, Note_off_c, 0, 47, 95
2, 153120, Note_on_c, 0, 45, 95
2, 153360, Note_off_c, 0, 45, 95
2, 153360, Note_on_c, 0, 28, 95
2, 153840, Note_off_c, 0, 28, 95
2, 153840, Note_on_c, 0, 28, 95
2, 154080, Note_off_c, 0, 28, 95
2, 154080, Note_on_c, 0, 37, 95
2, 154320, Note_off_c, 0, 37, 95
2, 154320, Note_on_c, 0, 37, 95
2, 154560, Note_off_c, 0, 37, 95
2, 154560, Note_on_c, 0, 38, 95
2, 154800, Note_off_c, 0, 38, 95
2, 154800, Note_on_c, 0, 38, 95
2, 155040, Note_off_c, 0, 38, 95
2, 155040, Note_on_c, 0, 40, 95
2, 155280, Note_off_c, 0, 40, 95
2, 155280, Note_on_c, 0, 28, 95
2, 155760, Note_off_c, 0, 28, 95
2, 155760, Note_on_c, 0, 28, 95
2, 156000, Note_off_c, 0, 28, 95
2, 156000, Note_on_c, 0, 35, 95
2, 156240, Note_off_c, 0, 35, 95
2, 156240, Note_on_c, 0, 37, 95
2, 156480, Note_off_c, 0, 37, 95
2, 156480, Note_on_c, 0, 42, 95
2, 156720, Note_off_c, 0, 42, 95
2, 156720, Note_on_c, 0, 42, 95
2, 156960, Note_off_c, 0, 42, 95
2, 156960, Note_on_c, 0, 40, 95
2, 157200, Note_off_c, 0, 40, 95
2, 157200, Note_on_c, 0, 28, 95
2, 157680, Note_off_c, 0, 28, 95
2, 157680, Note_on_c, 0, 28, 95
2, 157920, Note_off_c, 0, 28, 95
2, 157920, Note_on_c, 0, 37, 95
2, 158160, Note_off_c, 0, 37, 95
2, 158160, Note_on_c, 0, 37, 95
2, 158400, Note_off_c, 0, 37, 95
2, 158400, Note_on_c, 0, 38, 95
2, 158640, Note_off_c, 0, 38, 95
2, 158640, Note_on_c, 0, 38, 95
2, 158880, Note_off_c, 0, 38, 95
2, 158880, Note_on_c, 0, 40, 95
2, 159120, Note_off_c, 0, 40, 95
2, 159120, Note_on_c, 0, 28, 95
2, 159600, Note_off_c, 0, 28, 95
2, 159600, Note_on_c, 0, 33, 95
2, 159840, Note_off_c, 0, 33, 95
2, 159840, Note_on_c, 0, 35, 95
2, 160080, Note_off_c, 0, 35, 95
2, 160080, Note_on_c, 0, 47, 95
2, 160200, Note_on_c, 0, 35, 95
2, 160320, Note_off_c, 0, 47, 95
2, 160320, Note_off_c, 0, 35, 95
2, 160320, Note_on_c, 0, 37, 95
2, 160560, Note_off_c, 0, 37, 95
2, 160560, Note_on_c, 0, 47, 95
2, 160800, Note_off_c, 0, 47, 95
2, 160800, Note_on_c, 0, 45, 95
2, 161040, Note_off_c, 0, 45, 95
2, 161040, Note_on_c, 0, 28, 95
2, 161520, Note_off_c, 0, 28, 95
2, 161520, Note_on_c, 0, 28, 95
2, 161760, Note_off_c, 0, 28, 95
2, 161760, Note_on_c, 0, 37, 95
2, 162000, Note_off_c, 0, 37, 95
2, 162000, Note_on_c, 0, 37, 95
2, 162240, Note_off_c, 0, 37, 95
2, 162240, Note_on_c, 0, 38, 95
2, 162480, Note_off_c, 0, 38, 95
2, 162480, Note_on_c, 0, 38, 95
2, 162720, Note_off_c, 0, 38, 95
2, 162720, Note_on_c, 0, 40, 95
2, 162960, Note_off_c, 0, 40, 95
2, 162960, Note_on_c, 0, 28, 95
2, 163440, Note_off_c, 0, 28, 95
2, 163440, Note_on_c, 0, 28, 95
2, 163680, Note_off_c, 0, 28, 95
2, 163680, Note_on_c, 0, 35, 95
2, 163920, Note_off_c, 0, 35, 95
2, 163920, Note_on_c, 0, 37, 95
2, 164160, Note_off_c, 0, 37, 95
2, 164160, Note_on_c, 0, 42, 95
2, 164400, Note_off_c, 0, 42, 95
2, 164400, Note_on_c, 0, 42, 95
2, 164640, Note_off_c, 0, 42, 95
2, 164640, Note_on_c, 0, 40, 95
2, 164880, Note_off_c, 0, 40, 95
2, 164880, Note_on_c, 0, 28, 95
2, 165360, Note_off_c, 0, 28, 95
2, 165360, Note_on_c, 0, 28, 95
2, 165600, Note_off_c, 0, 28, 95
2, 165600, Note_on_c, 0, 37, 95
2, 165840, Note_off_c, 0, 37, 95
2, 165840, Note_on_c, 0, 37, 95
2, 166080, Note_off_c, 0, 37, 95
2, 166080, Note_on_c, 0, 38, 95
2, 166320, Note_off_c, 0, 38, 95
2, 166320, Note_on_c, 0, 38, 95
2, 166560, Note_off_c, 0, 38, 95
2, 166560, Note_on_c, 0, 40, 95
2, 166800, Note_off_c, 0, 40, 95
2, 166800, Note_on_c, 0, 28, 95
2, 167280, Note_off_c, 0, 28, 95
2, 167280, Note_on_c, 0, 33, 95
2, 167520, Note_off_c, 0, 33, 95
2, 167520, Note_on_c, 0, 35, 95
2, 167760, Note_off_c, 0, 35, 95
2, 167760, Note_on_c, 0, 47, 95
2, 167880, Note_on_c, 0, 35, 95
2, 168000, Note_off_c, 0, 47, 95
2, 168000, Note_off_c, 0, 35, 95
2, 168000, Note_on_c, 0, 37, 95
2, 168240, Note_off_c, 0, 37, 95
2, 168240, Note_on_c, 0, 47, 95
2, 168480, Note_off_c, 0, 47, 95
2, 168480, Note_on_c, 0, 45, 95
2, 168720, Note_off_c, 0, 45, 95
2, 168720, Note_on_c, 0, 28, 95
2, 169200, Note_off_c, 0, 28, 95
2, 169200, Note_on_c, 0, 28, 95
2, 169440, Note_off_c, 0, 28, 95
2, 169440, Note_on_c, 0, 37, 95
2, 169680, Note_off_c, 0, 37, 95
2, 169680, Note_on_c, 0, 37, 95
2, 169920, Note_off_c, 0, 37, 95
2, 169920, Note_on_c, 0, 38, 95
2, 170160, Note_off_c, 0, 38, 95
2, 170160, Note_on_c, 0, 38, 95
2, 170400, Note_off_c, 0, 38, 95
2, 170400, Note_on_c, 0, 40, 95
2, 170640, Note_off_c, 0, 40, 95
2, 170640, Note_on_c, 0, 28, 95
2, 171120, Note_off_c, 0, 28, 95
2, 171120, Note_on_c, 0, 28, 95
2, 171360, Note_off_c, 0, 28, 95
2, 171360, Note_on_c, 0, 35, 95
2, 171600, Note_off_c, 0, 35, 95
2, 171600, Note_on_c, 0, 37, 95
2, 171840, Note_off_c, 0, 37, 95
2, 171840, Note_on_c, 0, 42, 95
2, 172080, Note_off_c, 0, 42, 95
2, 172080, Note_on_c, 0, 42, 95
2, 172320, Note_off_c, 0, 42, 95
2, 172320, Note_on_c, 0, 40, 95
2, 172560, Note_off_c, 0, 40, 95
2, 172560, Note_on_c, 0, 28, 95
2, 173040, Note_off_c, 0, 28, 95
2, 173040, Note_on_c, 0, 28, 95
2, 173280, Note_off_c, 0, 28, 95
2, 173280, Note_on_c, 0, 37, 95
2, 173520, Note_off_c, 0, 37, 95
2, 173520, Note_on_c, 0, 37, 95
2, 173760, Note_off_c, 0, 37, 95
2, 173760, Note_on_c, 0, 38, 95
2, 174000, Note_off_c, 0, 38, 95
2, 174000, Note_on_c, 0, 38, 95
2, 174240, Note_off_c, 0, 38, 95
2, 174240, Note_on_c, 0, 40, 95
2, 174480, Note_off_c, 0, 40, 95
2, 174480, Note_on_c, 0, 28, 95
2, 174960, Note_off_c, 0, 28, 95
2, 174960, Note_on_c, 0, 33, 95
2, 175200, Note_off_c, 0, 33, 95
2, 175200, Note_on_c, 0, 35, 95
2, 175440, Note_off_c, 0, 35, 95
2, 175440, Note_on_c, 0, 47, 95
2, 175560, Note_on_c, 0, 35, 95
2, 175680, Note_off_c, 0, 47, 95
2, 175680, Note_off_c, 0, 35, 95
2, 175680, Note_on_c, 0, 37, 95
2, 175920, Note_off_c, 0, 37, 95
2, 175920, Note_on_c, 0, 47, 95
2, 176160, Note_off_c, 0, 47, 95
2, 176160, Note_on_c, 0, 45, 95
2, 176400, Note_off_c, 0, 45, 95
2, 176400, Note_on_c, 0, 28, 95
2, 176880, Note_off_c, 0, 28, 95
2, 176880, Note_on_c, 0, 28, 95
2, 177120, Note_off_c, 0, 28, 95
2, 177120, Note_on_c, 0, 37, 95
2, 177360, Note_off_c, 0, 37, 95
2, 177360, Note_on_c, 0, 37, 95
2, 177600, Note_off_c, 0, 37, 95
2, 177600, Note_on_c, 0, 38, 95
2, 177840, Note_off_c, 0, 38, 95
2, 177840, Note_on_c, 0, 38, 95
2, 178080, Note_off_c, 0, 38, 95
2, 178080, Note_on_c, 0, 40, 95
2, 178320, Note_off_c, 0, 40, 95
2, 178320, Note_on_c, 0, 28, 95
2, 178800, Note_off_c, 0, 28, 95
2, 178800, Note_on_c, 0, 28, 95
2, 179040, Note_off_c, 0, 28, 95
2, 179040, Note_on_c, 0, 35, 95
2, 179280, Note_off_c, 0, 35, 95
2, 179280, Note_on_c, 0, 37, 95
2, 179520, Note_off_c, 0, 37, 95
2, 179520, Note_on_c, 0, 42, 95
2, 179760, Note_off_c, 0, 42, 95
2, 179760, Note_on_c, 0, 42, 95
2, 180000, Note_off_c, 0, 42, 95
2, 180000, Note_on_c, 0, 40, 95
2, 180240, Note_off_c, 0, 40, 95
2, 180240, Note_on_c, 0, 28, 95
2, 180720, Note_off_c, 0, 28, 95
2, 180720, Note_on_c, 0, 28, 95
2, 180960, Note_off_c, 0, 28, 95
2, 180960, Note_on_c, 0, 37, 95
2, 181200, Note_off_c, 0, 37, 95
2, 181200, Note_on_c, 0, 37, 95
2, 181440, Note_off_c, 0, 37, 95
2, 181440, Note_on_c, 0, 38, 95
2, 181680, Note_off_c, 0, 38, 95
2, 181680, Note_on_c, 0, 38, 95
2, 181920, Note_off_c, 0, 38, 95
2, 181920, Note_on_c, 0, 40, 95
2, 182160, Note_off_c, 0, 40, 95
2, 182160, Note_on_c, 0, 28, 95
2, 182640, Note_off_c, 0, 28, 95
2, 182640, Note_on_c, 0, 33, 95
2, 182880, Note_off_c, 0, 33, 95
2, 182880, Note_on_c, 0, 35, 95
2, 183120, Note_off_c, 0, 35, 95
2, 183120, Note_on_c, 0, 47, 95
2, 183240, Note_on_c, 0, 35, 95
2, 183360, Note_off_c, 0, 47, 95
2, 183360, Note_off_c, 0, 35, 95
2, 183360, Note_on_c, 0, 37, 95
2, 183600, Note_off_c, 0, 37, 95
2, 183600, Note_on_c, 0, 47, 95
2, 183840, Note_off_c, 0, 47, 95
2, 183840, Note_on_c, 0, 45, 95
2, 184080, Note_off_c, 0, 45, 95
2, 184080, Note_on_c, 0, 28, 95
2, 184560, Note_off_c, 0, 28, 95
2, 184560, Note_on_c, 0, 28, 95
2, 184800, Note_off_c, 0, 28, 95
2, 184800, Note_on_c, 0, 37, 95
2, 185040, Note_off_c, 0, 37, 95
2, 185040, Note_on_c, 0, 37, 95
2, 185280, Note_off_c, 0, 37, 95
2, 185280, Note_on_c, 0, 38, 95
2, 185520, Note_off_c, 0, 38, 95
2, 185520, Note_on_c, 0, 38, 95
2, 185760, Note_off_c, 0, 38, 95
2, 185760, Note_on_c, 0, 40, 95
2, 186000, Note_off_c, 0, 40, 95
2, 186000, Note_on_c, 0, 28, 95
2, 186480, Note_off_c, 0, 28, 95
2, 186480, Note_on_c, 0, 28, 95
2, 186720, Note_off_c, 0, 28, 95
2, 186720, Note_on_c, 0, 35, 95
2, 186960, Note_off_c, 0, 35, 95
2, 186960, Note_on_c, 0, 37, 95
2, 187200, Note_off_c, 0, 37, 95
2, 187200, Note_on_c, 0, 42, 95
2, 187440, Note_off_c, 0, 42, 95
2, 187440, Note_on_c, 0, 42, 95
2, 187680, Note_off_c, 0, 42, 95
2, 187680, Note_on_c, 0, 40, 95
2, 187920, Note_off_c, 0, 40, 95
2, 187920, Note_on_c, 0, 28, 95
2, 188400, Note_off_c, 0, 28, 95
2, 188400, Note_on_c, 0, 28, 95
2, 188640, Note_off_c, 0, 28, 95
2, 188640, Note_on_c, 0, 37, 95
2, 188880, Note_off_c, 0, 37, 95
2, 188880, Note_on_c, 0, 37, 95
2, 189120, Note_off_c, 0, 37, 95
2, 189120, Note_on_c, 0, 38, 95
2, 189360, Note_off_c, 0, 38, 95
2, 189360, Note_on_c, 0, 38, 95
2, 189600, Note_off_c, 0, 38, 95
2, 189600, Note_on_c, 0, 40, 95
2, 189840, Note_off_c, 0, 40, 95
2, 189840, Note_on_c, 0, 28, 95
2, 190320, Note_off_c, 0, 28, 95
2, 190320, Note_on_c, 0, 33, 95
2, 190560, Note_off_c, 0, 33, 95
2, 190560, Note_on_c, 0, 35, 95
2, 190800, Note_off_c, 0, 35, 95
2, 190800, Note_on_c, 0, 47, 95
2, 190920, Note_on_c, 0, 35, 95
2, 191040, Note_off_c, 0, 47, 95
2, 191040, Note_off_c, 0, 35, 95
2, 191040, Note_on_c, 0, 37, 95
2, 191280, Note_off_c, 0, 37, 95
2, 191280, Note_on_c, 0, 47, 95
2, 191400, Note_on_c, 0, 36, 95
2, 191520, Note_off_c, 0, 47, 95
2, 191520, Note_off_c, 0, 36, 95
2, 191520, Note_on_c, 0, 38, 95
2, 191760, Note_off_c, 0, 38, 95
2, 191760, Note_on_c, 0, 50, 95
2, 193920, Note_off_c, 0, 50, 95
2, 206400, Note_on_c, 0, 50, 95
2, 206640, Note_off_c, 0, 50, 95
2, 206640, Note_on_c, 0, 52, 95
2, 206880, Note_off_c, 0, 52, 95
2, 206880, Note_on_c, 0, 56, 95
2, 207120, Note_off_c, 0, 56, 95
2, 207120, Note_on_c, 0, 57, 95
2, 207360, Note_off_c, 0, 57, 95
2, 207360, Note_on_c, 0, 59, 95
2, 208560, Note_off_c, 0, 59, 95
2, 208560, Note_on_c, 0, 61, 95
2, 208800, Note_off_c, 0, 61, 95
2, 208800, Note_on_c, 0, 59, 95
2, 209040, Note_off_c, 0, 59, 95
2, 209040, Note_on_c, 0, 57, 95
2, 210360, Note_on_c, 0, 53, 95
2, 210480, Note_off_c, 0, 57, 95
2, 210480, Note_off_c, 0, 53, 95
2, 210480, Note_on_c, 0, 54, 95
2, 210720, Note_off_c, 0, 54, 95
2, 210720, Note_on_c, 0, 57, 95
2, 210960, Note_off_c, 0, 57, 95
2, 210960, Note_on_c, 0, 57, 95
2, 211200, Note_off_c, 0, 57, 95
2, 211200, Note_on_c, 0, 56, 95
2, 211920, Note_off_c, 0, 56, 95
2, 211920, Note_on_c, 0, 56, 95
2, 212160, Note_off_c, 0, 56, 95
2, 212160, Note_on_c, 0, 59, 95
2, 212640, Note_off_c, 0, 59, 95
2, 212640, Note_on_c, 0, 56, 95
2, 212880, Note_off_c, 0, 56, 95
2, 212880, Note_on_c, 0, 54, 95
2, 213960, Note_on_c, 0, 47, 95
2, 214080, Note_off_c, 0, 54, 95
2, 214080, Note_off_c, 0, 47, 95
2, 214080, Note_on_c, 0, 49, 95
2, 214560, Note_off_c, 0, 49, 95
2, 214560, Note_on_c, 0, 52, 95
2, 214800, Note_off_c, 0, 52, 95
2, 214800, Note_on_c, 0, 52, 95
2, 216240, Note_off_c, 0, 52, 95
2, 216240, Note_on_c, 0, 54, 95
2, 216480, Note_off_c, 0, 54, 95
2, 216480, Note_on_c, 0, 52, 95
2, 216720, Note_off_c, 0, 52, 95
2, 216720, Note_on_c, 0, 50, 95
2, 217920, Note_off_c, 0, 50, 95
2, 217920, Note_on_c, 0, 50, 95
2, 218160, Note_off_c, 0, 50, 95
2, 218160, Note_on_c, 0, 52, 95
2, 218400, Note_off_c, 0, 52, 95
2, 218400, Note_on_c, 0, 50, 95
2, 218640, Note_off_c, 0, 50, 95
2, 218640, Note_on_c, 0, 49, 95
2, 219600, Note_off_c, 0, 49, 95
2, 219600, Note_on_c, 0, 47, 95
2, 219840, Note_off_c, 0, 47, 95
2, 219840, Note_on_c, 0, 50, 95
2, 220080, Note_off_c, 0, 50, 95
2, 220080, Note_on_c, 0, 49, 95
2, 220320, Note_off_c, 0, 49, 95
2, 220320, Note_on_c, 0, 47, 95
2, 221760, Note_off_c, 0, 47, 95
2, 221760, Note_on_c, 0, 50, 95
2, 222000, Note_off_c, 0, 50, 95
2, 222000, Note_on_c, 0, 52, 95
2, 222240, Note_off_c, 0, 52, 95
2, 222240, Note_on_c, 0, 56, 95
2, 222480, Note_off_c, 0, 56, 95
2, 222480, Note_on_c, 0, 57, 95
2, 222720, Note_off_c, 0, 57, 95
2, 222720, Note_on_c, 0, 59, 95
2, 223920, Note_off_c, 0, 59, 95
2, 223920, Note_on_c, 0, 61, 95
2, 224160, Note_off_c, 0, 61, 95
2, 224160, Note_on_c, 0, 59, 95
2, 224400, Note_off_c, 0, 59, 95
2, 224400, Note_on_c, 0, 57, 95
2, 225720, Note_on_c, 0, 53, 95
2, 225840, Note_off_c, 0, 57, 95
2, 225840, Note_off_c, 0, 53, 95
2, 225840, Note_on_c, 0, 54, 95
2, 226080, Note_off_c, 0, 54, 95
2, 226080, Note_on_c, 0, 57, 95
2, 226320, Note_off_c, 0, 57, 95
2, 226320, Note_on_c, 0, 57, 95
2, 226560, Note_off_c, 0, 57, 95
2, 226560, Note_on_c, 0, 56, 95
2, 227280, Note_off_c, 0, 56, 95
2, 227280, Note_on_c, 0, 56, 95
2, 227520, Note_off_c, 0, 56, 95
2, 227520, Note_on_c, 0, 59, 95
2, 228000, Note_off_c, 0, 59, 95
2, 228000, Note_on_c, 0, 56, 95
2, 228240, Note_off_c, 0, 56, 95
2, 228240, Note_on_c, 0, 54, 95
2, 229320, Note_on_c, 0, 47, 95
2, 229440, Note_off_c, 0, 54, 95
2, 229440, Note_off_c, 0, 47, 95
2, 229440, Note_on_c, 0, 49, 95
2, 229920, Note_off_c, 0, 49, 95
2, 229920, Note_on_c, 0, 52, 95
2, 230160, Note_off_c, 0, 52, 95
2, 230160, Note_on_c, 0, 52, 95
2, 231600, Note_off_c, 0, 52, 95
2, 231600, Note_on_c, 0, 54, 95
2, 231840, Note_off_c, 0, 54, 95
2, 231840, Note_on_c, 0, 52, 95
2, 232080, Note_off_c, 0, 52, 95
2, 232080, Note_on_c, 0, 50, 95
2, 233280, Note_off_c, 0, 50, 95
2, 233280, Note_on_c, 0, 50, 95
2, 233520, Note_off_c, 0, 50, 95
2, 233520, Note_on_c, 0, 52, 95
2, 233760, Note_off_c, 0, 52, 95
2, 233760, Note_on_c, 0, 50, 95
2, 234000, Note_off_c, 0, 50, 95
2, 234000, Note_on_c, 0, 49, 95
2, 234960, Note_off_c, 0, 49, 95
2, 234960, Note_on_c, 0, 47, 95
2, 235200, Note_off_c, 0, 47, 95
2, 235200, Note_on_c, 0, 50, 95
2, 235440, Note_off_c, 0, 50, 95
2, 235440, Note_on_c, 0, 49, 95
2, 235680, Note_off_c, 0, 49, 95
2, 235680, Note_on_c, 0, 47, 95
2, 237120, Note_off_c, 0, 47, 95
2, 237120, Note_on_c, 0, 50, 95
2, 237360, Note_off_c, 0, 50, 95
2, 237360, Note_on_c, 0, 52, 95
2, 237600, Note_off_c, 0, 52, 95
2, 237600, Note_on_c, 0, 56, 95
2, 237840, Note_off_c, 0, 56, 95
2, 237840, Note_on_c, 0, 57, 95
2, 238080, Note_off_c, 0, 57, 95
2, 238080, Note_on_c, 0, 59, 95
2, 239280, Note_off_c, 0, 59, 95
2, 239280, Note_on_c, 0, 61, 95
2, 239520, Note_off_c, 0, 61, 95
2, 239520, Note_on_c, 0, 59, 95
2, 239760, Note_off_c, 0, 59, 95
2, 239760, Note_on_c, 0, 57, 95
2, 241080, Note_on_c, 0, 53, 95
2, 241200, Note_off_c, 0, 57, 95
2, 241200, Note_off_c, 0, 53, 95
2, 241200, Note_on_c, 0, 54, 95
2, 241440, Note_off_c, 0, 54, 95
2, 241440, Note_on_c, 0, 57, 95
2, 241680, Note_off_c, 0, 57, 95
2, 241680, Note_on_c, 0, 57, 95
2, 241920, Note_off_c, 0, 57, 95
2, 241920, Note_on_c, 0, 56, 95
2, 242640, Note_off_c, 0, 56, 95
2, 242640, Note_on_c, 0, 56, 95
2, 242880, Note_off_c, 0, 56, 95
2, 242880, Note_on_c, 0, 59, 95
2, 243360, Note_off_c, 0, 59, 95
2, 243360, Note_on_c, 0, 56, 95
2, 243600, Note_off_c, 0, 56, 95
2, 243600, Note_on_c, 0, 54, 95
2, 244680, Note_on_c, 0, 47, 95
2, 244800, Note_off_c, 0, 54, 95
2, 244800, Note_off_c, 0, 47, 95
2, 244800, Note_on_c, 0, 49, 95
2, 245280, Note_off_c, 0, 49, 95
2, 245280, Note_on_c, 0, 52, 95
2, 245520, Note_off_c, 0, 52, 95
2, 245520, Note_on_c, 0, 52, 95
2, 246960, Note_off_c, 0, 52, 95
2, 246960, Note_on_c, 0, 54, 95
2, 247200, Note_off_c, 0, 54, 95
2, 247200, Note_on_c, 0, 52, 95
2, 247440, Note_off_c, 0, 52, 95
2, 247440, Note_on_c, 0, 50, 95
2, 248640, Note_off_c, 0, 50, 95
2, 248640, Note_on_c, 0, 50, 95
2, 248880, Note_off_c, 0, 50, 95
2, 248880, Note_on_c, 0, 52, 95
2, 249120, Note_off_c, 0, 52, 95
2, 249120, Note_on_c, 0, 50, 95
2, 249360, Note_off_c, 0, 50, 95
2, 249360, Note_on_c, 0, 49, 95
2, 250320, Note_off_c, 0, 49, 95
2, 250320, Note_on_c, 0, 47, 95
2, 250560, Note_off_c, 0, 47, 95
2, 250560, Note_on_c, 0, 50, 95
2, 250800, Note_off_c, 0, 50, 95
2, 250800, Note_on_c, 0, 49, 95
2, 251040, Note_off_c, 0, 49, 95
2, 251040, Note_on_c, 0, 47, 95
2, 252480, Note_off_c, 0, 47, 95
2, 252480, Note_on_c, 0, 50, 95
2, 252720, Note_off_c, 0, 50, 95
2, 252720, Note_on_c, 0, 52, 95
2, 252960, Note_off_c, 0, 52, 95
2, 252960, Note_on_c, 0, 56, 95
2, 253200, Note_off_c, 0, 56, 95
2, 253200, Note_on_c, 0, 57, 95
2, 253440, Note_off_c, 0, 57, 95
2, 253440, Note_on_c, 0, 59, 95
2, 254640, Note_off_c, 0, 59, 95
2, 254640, Note_on_c, 0, 61, 95
2, 254880, Note_off_c, 0, 61, 95
2, 254880, Note_on_c, 0, 59, 95
2, 255120, Note_off_c, 0, 59, 95
2, 255120, Note_on_c, 0, 57, 95
2, 256440, Note_on_c, 0, 53, 95
2, 256560, Note_off_c, 0, 57, 95
2, 256560, Note_off_c, 0, 53, 95
2, 256560, Note_on_c, 0, 54, 95
2, 256800, Note_off_c, 0, 54, 95
2, 256800, Note_on_c, 0, 57, 95
2, 257040, Note_off_c, 0, 57, 95
2, 257040, Note_on_c, 0, 57, 95
2, 257280, Note_off_c, 0, 57, 95
2, 257280, Note_on_c, 0, 56, 95
2, 258000, Note_off_c, 0, 56, 95
2, 258000, Note_on_c, 0, 56, 95
2, 258240, Note_off_c, 0, 56, 95
2, 258240, Note_on_c, 0, 59, 95
2, 258720, Note_off_c, 0, 59, 95
2, 258720, Note_on_c, 0, 56, 95
2, 258960, Note_off_c, 0, 56, 95
2, 258960, Note_on_c, 0, 54, 95
2, 260040, Note_on_c, 0, 47, 95
2, 260160, Note_off_c, 0, 54, 95
2, 260160, Note_off_c, 0, 47, 95
2, 260160, Note_on_c, 0, 49, 95
2, 260640, Note_off_c, 0, 49, 95
2, 260640, Note_on_c, 0, 52, 95
2, 260880, Note_off_c, 0, 52, 95
2, 260880, Note_on_c, 0, 52, 95
2, 262320, Note_off_c, 0, 52, 95
2, 262320, Note_on_c, 0, 54, 95
2, 262560, Note_off_c, 0, 54, 95
2, 262560, Note_on_c, 0, 52, 95
2, 262800, Note_off_c, 0, 52, 95
2, 262800, Note_on_c, 0, 50, 95
2, 264000, Note_off_c, 0, 50, 95
2, 264000, Note_on_c, 0, 50, 95
2, 264240, Note_off_c, 0, 50, 95
2, 264240, Note_on_c, 0, 52, 95
2, 264480, Note_off_c, 0, 52, 95
2, 264480, Note_on_c, 0, 50, 95
2, 264720, Note_off_c, 0, 50, 95
2, 264720, Note_on_c, 0, 49, 95
2, 265680, Note_off_c, 0, 49, 95
2, 265680, Note_on_c, 0, 47, 95
2, 265920, Note_off_c, 0, 47, 95
2, 265920, Note_on_c, 0, 50, 95
2, 266160, Note_off_c, 0, 50, 95
2, 266160, Note_on_c, 0, 49, 95
2, 266400, Note_off_c, 0, 49, 95
2, 266400, Note_on_c, 0, 47, 95
2, 267840, Note_off_c, 0, 47, 95
2, 267840, Note_on_c, 0, 50, 95
2, 268080, Note_off_c, 0, 50, 95
2, 268080, Note_on_c, 0, 52, 95
2, 268320, Note_off_c, 0, 52, 95
2, 268320, Note_on_c, 0, 56, 95
2, 268560, Note_off_c, 0, 56, 95
2, 268560, Note_on_c, 0, 57, 95
2, 268800, Note_off_c, 0, 57, 95
2, 268800, Note_on_c, 0, 59, 95
2, 270000, Note_off_c, 0, 59, 95
2, 270000, Note_on_c, 0, 61, 95
2, 270240, Note_off_c, 0, 61, 95
2, 270240, Note_on_c, 0, 59, 95
2, 270480, Note_off_c, 0, 59, 95
2, 270480, Note_on_c, 0, 57, 95
2, 271800, Note_on_c, 0, 53, 95
2, 271920, Note_off_c, 0, 57, 95
2, 271920, Note_off_c, 0, 53, 95
2, 271920, Note_on_c, 0, 54, 95
2, 272160, Note_off_c, 0, 54, 95
2, 272160, Note_on_c, 0, 57, 95
2, 272400, Note_off_c, 0, 57, 95
2, 272400, Note_on_c, 0, 57, 95
2, 272640, Note_off_c, 0, 57, 95
2, 272640, Note_on_c, 0, 56, 95
2, 273360, Note_off_c, 0, 56, 95
2, 273360, Note_on_c, 0, 56, 95
2, 273600, Note_off_c, 0, 56, 95
2, 273600, Note_on_c, 0, 59, 95
2, 274080, Note_off_c, 0, 59, 95
2, 274080, Note_on_c, 0, 56, 95
2, 274320, Note_off_c, 0, 56, 95
2, 274320, Note_on_c, 0, 54, 95
2, 275400, Note_on_c, 0, 47, 95
2, 275520, Note_off_c, 0, 54, 95
2, 275520, Note_off_c, 0, 47, 95
2, 275520, Note_on_c, 0, 49, 95
2, 276000, Note_off_c, 0, 49, 95
2, 276000, Note_on_c, 0, 52, 95
2, 276240, Note_off_c, 0, 52, 95
2, 276240, Note_on_c, 0, 52, 95
2, 277680, Note_off_c, 0, 52, 95
2, 277680, Note_on_c, 0, 54, 95
2, 277920, Note_off_c, 0, 54, 95
2, 277920, Note_on_c, 0, 52, 95
2, 278160, Note_off_c, 0, 52, 95
2, 278160, Note_on_c, 0, 50, 95
2, 279360, Note_off_c, 0, 50, 95
2, 279360, Note_on_c, 0, 50, 95
2, 279600, Note_off_c, 0, 50, 95
2, 279600, Note_on_c, 0, 52, 95
2, 279840, Note_off_c, 0, 52, 95
2, 279840, Note_on_c, 0, 50, 95
2, 280080, Note_off_c, 0, 50, 95
2, 280080, Note_on_c, 0, 49, 95
2, 281040, Note_off_c, 0, 49, 95
2, 281040, Note_on_c, 0, 47, 95
2, 281280, Note_off_c, 0, 47, 95
2, 281280, Note_on_c, 0, 50, 95
2, 281520, Note_off_c, 0, 50, 95
2, 281520, Note_on_c, 0, 49, 95
2, 281760, Note_off_c, 0, 49, 95
2, 281760, Note_on_c, 0, 47, 95
2, 284160, Note_off_c, 0, 47, 95
2, 287760, Note_on_c, 0, 28, 95
2, 288000, Note_off_c, 0, 28, 95
2, 288000, Note_on_c, 0, 28, 95
2, 288480, Note_off_c, 0, 28, 95
2, 288480, Note_on_c, 0, 28, 95
2, 288520, Note_off_c, 0, 28, 95
2, 288720, Note_on_c, 0, 28, 95
2, 288760, Note_off_c, 0, 28, 95
2, 288840, Note_on_c, 0, 47, 95
2, 288840, Note_on_c, 0, 40, 95
2, 288960, Note_off_c, 0, 47, 95
2, 288960, Note_on_c, 0, 49, 95
2, 288960, Note_off_c, 0, 40, 95
2, 288960, Note_on_c, 0, 42, 95
2, 289680, Note_off_c, 0, 49, 95
2, 289680, Note_off_c, 0, 42, 95
2, 289680, Note_on_c, 0, 47, 95
2, 289680, Note_on_c, 0, 40, 95
2, 289920, Note_off_c, 0, 47, 95
2, 289920, Note_off_c, 0, 40, 95
2, 290160, Note_on_c, 0, 28, 95
2, 290640, Note_off_c, 0, 28, 95
2, 290640, Note_on_c, 0, 28, 95
2, 290680, Note_off_c, 0, 28, 95
2, 290880, Note_on_c, 0, 49, 95
2, 290880, Note_on_c, 0, 42, 95
2, 291120, Note_off_c, 0, 49, 95
2, 291120, Note_off_c, 0, 42, 95
2, 291120, Note_on_c, 0, 49, 95
2, 291120, Note_on_c, 0, 42, 95
2, 291360, Note_off_c, 0, 49, 95
2, 291360, Note_off_c, 0, 42, 95
2, 291360, Note_on_c, 0, 47, 95
2, 291360, Note_on_c, 0, 40, 95
2, 291840, Note_off_c, 0, 47, 95
2, 291840, Note_off_c, 0, 40, 95
2, 291840, Note_on_c, 0, 28, 95
2, 292320, Note_off_c, 0, 28, 95
2, 292320, Note_on_c, 0, 28, 95
2, 292360, Note_off_c, 0, 28, 95
2, 292560, Note_on_c, 0, 28, 95
2, 292600, Note_off_c, 0, 28, 95
2, 292680, Note_on_c, 0, 47, 95
2, 292680, Note_on_c, 0, 40, 95
2, 292800, Note_off_c, 0, 47, 95
2, 292800, Note_on_c, 0, 49, 95
2, 292800, Note_off_c, 0, 40, 95
2, 292800, Note_on_c, 0, 42, 95
2, 293520, Note_off_c, 0, 49, 95
2, 293520, Note_off_c, 0, 42, 95
2, 293520, Note_on_c, 0, 47, 95
2, 293520, Note_on_c, 0, 40, 95
2, 293760, Note_off_c, 0, 47, 95
2, 293760, Note_off_c, 0, 40, 95
2, 294000, Note_on_c, 0, 28, 95
2, 294480, Note_off_c, 0, 28, 95
2, 294480, Note_on_c, 0, 28, 95
2, 294520, Note_off_c, 0, 28, 95
2, 294720, Note_on_c, 0, 49, 95
2, 294720, Note_on_c, 0, 42, 95
2, 294960, Note_off_c, 0, 49, 95
2, 294960, Note_off_c, 0, 42, 95
2, 294960, Note_on_c, 0, 49, 95
2, 294960, Note_on_c, 0, 42, 95
2, 295200, Note_off_c, 0, 49, 95
2, 295200, Note_off_c, 0, 42, 95
2, 295200, Note_on_c, 0, 47, 95
2, 295200, Note_on_c, 0, 40, 95
2, 295680, Note_off_c, 0, 47, 95
2, 295680, Note_off_c, 0, 40, 95
2, 295680, Note_on_c, 0, 28, 95
2, 296160, Note_off_c, 0, 28, 95
2, 296160, Note_on_c, 0, 28, 95
2, 296200, Note_off_c, 0, 28, 95
2, 296400, Note_on_c, 0, 28, 95
2, 296440, Note_off_c, 0, 28, 95
2, 296520, Note_on_c, 0, 47, 95
2, 296520, Note_on_c, 0, 40, 95
2, 296640, Note_off_c, 0, 47, 95
2, 296640, Note_on_c, 0, 49, 95
2, 296640, Note_off_c, 0, 40, 95
2, 296640, Note_on_c, 0, 42, 95
2, 297360, Note_off_c, 0, 49, 95
2, 297360, Note_off_c, 0, 42, 95
2, 297360, Note_on_c, 0, 47, 95
2, 297360, Note_on_c, 0, 40, 95
2, 297600, Note_off_c, 0, 47, 95
2, 297600, Note_off_c, 0, 40, 95
2, 297840, Note_on_c, 0, 28, 95
2, 298320, Note_off_c, 0, 28, 95
2, 298320, Note_on_c, 0, 28, 95
2, 298360, Note_off_c, 0, 28, 95
2, 298560, Note_on_c, 0, 49, 95
2, 298560, Note_on_c, 0, 42, 95
2, 298800, Note_off_c, 0, 49, 95
2, 298800, Note_off_c, 0, 42, 95
2, 298800, Note_on_c, 0, 49, 95
2, 298800, Note_on_c, 0, 42, 95
2, 299040, Note_off_c, 0, 49, 95
2, 299040, Note_off_c, 0, 42, 95
2, 299040, Note_on_c, 0, 47, 95
2, 299040, Note_on_c, 0, 40, 95
2, 299520, Note_off_c, 0, 47, 95
2, 299520, Note_off_c, 0, 40, 95
2, 299520, Note_on_c, 0, 28, 95
2, 300000, Note_off_c, 0, 28, 95
2, 300000, Note_on_c, 0, 28, 95
2, 300040, Note_off_c, 0, 28, 95
2, 300240, Note_on_c, 0, 28, 95
2, 300280, Note_off_c, 0, 28, 95
2, 300360, Note_on_c, 0, 47, 95
2, 300360, Note_on_c, 0, 40, 95
2, 300480, Note_off_c, 0, 47, 95
2, 300480, Note_on_c, 0, 49, 95
2, 300480, Note_off_c, 0, 40, 95
2, 300480, Note_on_c, 0, 42, 95
2, 301200, Note_off_c, 0, 49, 95
2, 301200, Note_off_c, 0, 42, 95
2, 301200, Note_on_c, 0, 47, 95
2, 301200, Note_on_c, 0, 40, 95
2, 301440, Note_off_c, 0, 47, 95
2, 301440, Note_off_c, 0, 40, 95
2, 301680, Note_on_c, 0, 28, 95
2, 302160, Note_off_c, 0, 28, 95
2, 302160, Note_on_c, 0, 28, 95
2, 302200, Note_off_c, 0, 28, 95
2, 302400, Note_on_c, 0, 49, 95
2, 302400, Note_on_c, 0, 42, 95
2, 302640, Note_off_c, 0, 49, 95
2, 302640, Note_off_c, 0, 42, 95
2, 302640, Note_on_c, 0, 49, 95
2, 302640, Note_on_c, 0, 42, 95
2, 302880, Note_off_c, 0, 49, 95
2, 302880, Note_off_c, 0, 42, 95
2, 302880, Note_on_c, 0, 47, 95
2, 302880, Note_on_c, 0, 40, 95
2, 303360, Note_off_c, 0, 47, 95
2, 303360, Note_off_c, 0, 40, 95
2, 303360, Note_on_c, 0, 28, 95
2, 303840, Note_off_c, 0, 28, 95
2, 303840, Note_on_c, 0, 28, 95
2, 303880, Note_off_c, 0, 28, 95
2, 304080, Note_on_c, 0, 28, 95
2, 304120, Note_off_c, 0, 28, 95
2, 304200, Note_on_c, 0, 47, 95
2, 304200, Note_on_c, 0, 40, 95
2, 304320, Note_off_c, 0, 47, 95
2, 304320, Note_on_c, 0, 49, 95
2, 304320, Note_off_c, 0, 40, 95
2, 304320, Note_on_c, 0, 42, 95
2, 305040, Note_off_c, 0, 49, 95
2, 305040, Note_off_c, 0, 42, 95
2, 305040, Note_on_c, 0, 47, 95
2, 305040, Note_on_c, 0, 40, 95
2, 305280, Note_off_c, 0, 47, 95
2, 305280, Note_off_c, 0, 40, 95
2, 305520, Note_on_c, 0, 28, 95
2, 306000, Note_off_c, 0, 28, 95
2, 306000, Note_on_c, 0, 28, 95
2, 306040, Note_off_c, 0, 28, 95
2, 306240, Note_on_c, 0, 49, 95
2, 306240, Note_on_c, 0, 42, 95
2, 306480, Note_off_c, 0, 49, 95
2, 306480, Note_off_c, 0, 42, 95
2, 306480, Note_on_c, 0, 49, 95
2, 306480, Note_on_c, 0, 42, 95
2, 306720, Note_off_c, 0, 49, 95
2, 306720, Note_off_c, 0, 42, 95
2, 306720, Note_on_c, 0, 47, 95
2, 306720, Note_on_c, 0, 40, 95
2, 307200, Note_off_c, 0, 47, 95
2, 307200, Note_off_c, 0, 40, 95
2, 307200, Note_on_c, 0, 28, 95
2, 307680, Note_off_c, 0, 28, 95
2, 307680, Note_on_c, 0, 28, 95
2, 307720, Note_off_c, 0, 28, 95
2, 307920, Note_on_c, 0, 28, 95
2, 307960, Note_off_c, 0, 28, 95
2, 308040, Note_on_c, 0, 47, 95
2, 308040, Note_on_c, 0, 40, 95
2, 308160, Note_off_c, 0, 47, 95
2, 308160, Note_on_c, 0, 49, 95
2, 308160, Note_off_c, 0, 40, 95
2, 308160, Note_on_c, 0, 42, 95
2, 308880, Note_off_c, 0, 49, 95
2, 308880, Note_off_c, 0, 42, 95
2, 308880, Note_on_c, 0, 47, 95
2, 308880, Note_on_c, 0, 40, 95
2, 309120, Note_off_c, 0, 47, 95
2, 309120, Note_off_c, 0, 40, 95
2, 309360, Note_on_c, 0, 28, 95
2, 309840, Note_off_c, 0, 28, 95
2, 309840, Note_on_c, 0, 28, 95
2, 309880, Note_off_c, 0, 28, 95
2, 310080, Note_on_c, 0, 49, 95
2, 310080, Note_on_c, 0, 42, 95
2, 310320, Note_off_c, 0, 49, 95
2, 310320, Note_off_c, 0, 42, 95
2, 310320, Note_on_c, 0, 49, 95
2, 310320, Note_on_c, 0, 42, 95
2, 310560, Note_off_c, 0, 49, 95
2, 310560, Note_off_c, 0, 42, 95
2, 310560, Note_on_c, 0, 47, 95
2, 310560, Note_on_c, 0, 40, 95
2, 311040, Note_off_c, 0, 47, 95
2, 311040, Note_off_c, 0, 40, 95
2, 311040, Note_on_c, 0, 28, 95
2, 311520, Note_off_c, 0, 28, 95
2, 311520, Note_on_c, 0, 28, 95
2, 311560, Note_off_c, 0, 28, 95
2, 311760, Note_on_c, 0, 28, 95
2, 311800, Note_off_c, 0, 28, 95
2, 311880, Note_on_c, 0, 47, 95
2, 311880, Note_on_c, 0, 40, 95
2, 312000, Note_off_c, 0, 47, 95
2, 312000, Note_on_c, 0, 49, 95
2, 312000, Note_off_c, 0, 40, 95
2, 312000, Note_on_c, 0, 42, 95
2, 312720, Note_off_c, 0, 49, 95
2, 312720, Note_off_c, 0, 42, 95
2, 312720, Note_on_c, 0, 47, 95
2, 312720, Note_on_c, 0, 40, 95
2, 312960, Note_off_c, 0, 47, 95
2, 312960, Note_off_c, 0, 40, 95
2, 313200, Note_on_c, 0, 28, 95
2, 313680, Note_off_c, 0, 28, 95
2, 313680, Note_on_c, 0, 28, 95
2, 313720, Note_off_c, 0, 28, 95
2, 313920, Note_on_c, 0, 49, 95
2, 313920, Note_on_c, 0, 42, 95
2, 314160, Note_off_c, 0, 49, 95
2, 314160, Note_off_c, 0, 42, 95
2, 314160, Note_on_c, 0, 49, 95
2, 314160, Note_on_c, 0, 42, 95
2, 314400, Note_off_c, 0, 49, 95
2, 314400, Note_off_c, 0, 42, 95
2, 314400, Note_on_c, 0, 47, 95
2, 314400, Note_on_c, 0, 40, 95
2, 314880, Note_off_c, 0, 47, 95
2, 314880, Note_off_c, 0, 40, 95
2, 314880, End_track
3, 0, Start_track
3, 0, Pitch_bend_c, 0, 8192
3, 0, Control_c, 0, 7, 87
3, 0, Control_c, 0, 10, 63
3, 0, Control_c, 0, 93, 0
3, 0, Control_c, 0, 91, 0
3, 0, Control_c, 0, 95, 0
3, 0, Control_c, 0, 92, 0
3, 0, Control_c, 0, 11, 127
3, 0, Program_c, 0, 33
3, 4320, Note_on_c, 0, 28, 95
3, 5760, Note_off_c, 0, 28, 95
3, 5760, Note_on_c, 0, 38, 95
3, 6480, Note_off_c, 0, 38, 95
3, 6480, Note_on_c, 0, 38, 95
3, 6720, Note_off_c, 0, 38, 95
3, 7920, Note_on_c, 0, 28, 95
3, 9600, Note_off_c, 0, 28, 95
3, 9600, Note_on_c, 0, 38, 95
3, 10320, Note_off_c, 0, 38, 95
3, 10320, Note_on_c, 0, 38, 95
3, 10560, Note_off_c, 0, 38, 95
3, 11520, Note_on_c, 0, 33, 95
3, 12240, Note_off_c, 0, 33, 95
3, 12240, Note_on_c, 0, 33, 95
3, 13440, Note_off_c, 0, 33, 95
3, 13440, Note_on_c, 0, 41, 95
3, 14160, Note_off_c, 0, 41, 95
3, 14160, Note_on_c, 0, 41, 95
3, 14640, Note_off_c, 0, 41, 95
3, 15360, Note_on_c, 0, 33, 95
3, 17040, Note_off_c, 0, 33, 95
3, 17040, Note_on_c, 0, 28, 95
3, 18240, Note_off_c, 0, 28, 95
3, 19680, Note_on_c, 0, 28, 95
3, 21120, Note_off_c, 0, 28, 95
3, 21120, Note_on_c, 0, 38, 95
3, 21840, Note_off_c, 0, 38, 95
3, 21840, Note_on_c, 0, 38, 95
3, 22080, Note_off_c, 0, 38, 95
3, 23280, Note_on_c, 0, 28, 95
3, 24960, Note_off_c, 0, 28, 95
3, 24960, Note_on_c, 0, 38, 95
3, 25680, Note_off_c, 0, 38, 95
3, 25680, Note_on_c, 0, 38, 95
3, 25920, Note_off_c, 0, 38, 95
3, 26880, Note_on_c, 0, 33, 95
3, 27600, Note_off_c, 0, 33, 95
3, 27600, Note_on_c, 0, 33, 95
3, 28800, Note_off_c, 0, 33, 95
3, 28800, Note_on_c, 0, 41, 95
3, 29520, Note_off_c, 0, 41, 95
3, 29520, Note_on_c, 0, 41, 95
3, 30000, Note_off_c, 0, 41, 95
3, 30720, Note_on_c, 0, 33, 95
3, 32160, Note_off_c, 0, 33, 95
3, 32400, Note_on_c, 0, 28, 95
3, 33600, Note_off_c, 0, 28, 95
3, 34800, Note_on_c, 0, 33, 95
3, 35520, Note_off_c, 0, 33, 95
3, 35520, Note_on_c, 0, 38, 95
3, 36240, Note_off_c, 0, 38, 95
3, 36240, Note_on_c, 0, 28, 95
3, 37440, Note_off_c, 0, 28, 95
3, 38400, Note_on_c, 0, 38, 95
3, 40080, Note_off_c, 0, 38, 95
3, 40560, Note_on_c, 0, 43, 95
3, 41520, Note_off_c, 0, 43, 95
3, 41520, Note_on_c, 0, 41, 95
3, 42000, Note_off_c, 0, 41, 95
3, 42960, Note_on_c, 0, 33, 95
3, 44160, Note_off_c, 0, 33, 95
3, 44640, Note_on_c, 0, 28, 95
3, 45120, Note_off_c, 0, 28, 95
3, 50160, Note_on_c, 0, 33, 95
3, 50880, Note_off_c, 0, 33, 95
3, 50880, Note_on_c, 0, 38, 95
3, 51600, Note_off_c, 0, 38, 95
3, 51600, Note_on_c, 0, 28, 95
3, 52800, Note_off_c, 0, 28, 95
3, 53760, Note_on_c, 0, 38, 95
3, 55440, Note_off_c, 0, 38, 95
3, 55920, Note_on_c, 0, 43, 95
3, 56880, Note_off_c, 0, 43, 95
3, 56880, Note_on_c, 0, 41, 95
3, 57360, Note_off_c, 0, 41, 95
3, 58320, Note_on_c, 0, 33, 95
3, 59520, Note_off_c, 0, 33, 95
3, 60000, Note_on_c, 0, 35, 95
3, 60480, Note_off_c, 0, 35, 95
3, 60480, Note_on_c, 0, 33, 95
3, 60960, Note_off_c, 0, 33, 95
3, 65760, Note_on_c, 0, 28, 95
3, 67200, Note_off_c, 0, 28, 95
3, 67200, Note_on_c, 0, 38, 95
3, 67920, Note_off_c, 0, 38, 95
3, 67920, Note_on_c, 0, 38, 95
3, 68160, Note_off_c, 0, 38, 95
3, 69360, Note_on_c, 0, 28, 95
3, 71040, Note_off_c, 0, 28, 95
3, 71040, Note_on_c, 0, 38, 95
3, 71760, Note_off_c, 0, 38, 95
3, 71760, Note_on_c, 0, 38, 95
3, 72000, Note_off_c, 0, 38, 95
3, 72960, Note_on_c, 0, 33, 95
3, 73680, Note_off_c, 0, 33, 95
3, 73680, Note_on_c, 0, 33, 95
3, 74880, Note_off_c, 0, 33, 95
3, 74880, Note_on_c, 0, 41, 95
3, 75600, Note_off_c, 0, 41, 95
3, 75600, Note_on_c, 0, 41, 95
3, 76080, Note_off_c, 0, 41, 95
3, 76800, Note_on_c, 0, 33, 95
3, 78480, Note_off_c, 0, 33, 95
3, 78480, Note_on_c, 0, 28, 95
3, 79680, Note_off_c, 0, 28, 95
3, 81120, Note_on_c, 0, 28, 95
3, 82560, Note_off_c, 0, 28, 95
3, 82560, Note_on_c, 0, 38, 95
3, 83280, Note_off_c, 0, 38, 95
3, 83280, Note_on_c, 0, 38, 95
3, 83520, Note_off_c, 0, 38, 95
3, 84720, Note_on_c, 0, 28, 95
3, 86400, Note_off_c, 0, 28, 95
3, 86400, Note_on_c, 0, 38, 95
3, 87120, Note_off_c, 0, 38, 95
3, 87120, Note_on_c, 0, 38, 95
3, 87360, Note_off_c, 0, 38, 95
3, 88320, Note_on_c, 0, 33, 95
3, 89040, Note_off_c, 0, 33, 95
3, 89040, Note_on_c, 0, 33, 95
3, 90240, Note_off_c, 0, 33, 95
3, 90240, Note_on_c, 0, 41, 95
3, 90960, Note_off_c, 0, 41, 95
3, 90960, Note_on_c, 0, 41, 95
3, 91440, Note_off_c, 0, 41, 95
3, 92160, Note_on_c, 0, 33, 95
3, 93600, Note_off_c, 0, 33, 95
3, 93840, Note_on_c, 0, 28, 95
3, 96000, Note_off_c, 0, 28, 95
3, 207840, Note_on_c, 0, 28, 95
3, 209280, Note_off_c, 0, 28, 95
3, 209280, Note_on_c, 0, 38, 95
3, 210000, Note_off_c, 0, 38, 95
3, 210000, Note_on_c, 0, 38, 95
3, 210240, Note_off_c, 0, 38, 95
3, 211440, Note_on_c, 0, 28, 95
3, 213120, Note_off_c, 0, 28, 95
3, 213120, Note_on_c, 0, 38, 95
3, 213840, Note_off_c, 0, 38, 95
3, 213840, Note_on_c, 0, 38, 95
3, 214080, Note_off_c, 0, 38, 95
3, 215040, Note_on_c, 0, 33, 95
3, 215760, Note_off_c, 0, 33, 95
3, 215760, Note_on_c, 0, 33, 95
3, 216960, Note_off_c, 0, 33, 95
3, 216960, Note_on_c, 0, 41, 95
3, 217680, Note_off_c, 0, 41, 95
3, 217680, Note_on_c, 0, 41, 95
3, 218160, Note_off_c, 0, 41, 95
3, 218880, Note_on_c, 0, 33, 95
3, 220560, Note_off_c, 0, 33, 95
3, 220560, Note_on_c, 0, 28, 95
3, 221760, Note_off_c, 0, 28, 95
3, 223200, Note_on_c, 0, 28, 95
3, 224640, Note_off_c, 0, 28, 95
3, 224640, Note_on_c, 0, 38, 95
3, 225360, Note_off_c, 0, 38, 95
3, 225360, Note_on_c, 0, 38, 95
3, 225600, Note_off_c, 0, 38, 95
3, 226800, Note_on_c, 0, 28, 95
3, 228480, Note_off_c, 0, 28, 95
3, 228480, Note_on_c, 0, 38, 95
3, 229200, Note_off_c, 0, 38, 95
3, 229200, Note_on_c, 0, 38, 95
3, 229440, Note_off_c, 0, 38, 95
3, 230400, Note_on_c, 0, 33, 95
3, 231120, Note_off_c, 0, 33, 95
3, 231120, Note_on_c, 0, 33, 95
3, 232320, Note_off_c, 0, 33, 95
3, 232320, Note_on_c, 0, 41, 95
3, 233040, Note_off_c, 0, 41, 95
3, 233040, Note_on_c, 0, 41, 95
3, 233520, Note_off_c, 0, 41, 95
3, 234240, Note_on_c, 0, 33, 95
3, 235920, Note_off_c, 0, 33, 95
3, 235920, Note_on_c, 0, 28, 95
3, 237120, Note_off_c, 0, 28, 95
3, 238560, Note_on_c, 0, 28, 95
3, 240000, Note_off_c, 0, 28, 95
3, 240000, Note_on_c, 0, 38, 95
3, 240720, Note_off_c, 0, 38, 95
3, 240720, Note_on_c, 0, 38, 95
3, 240960, Note_off_c, 0, 38, 95
3, 242160, Note_on_c, 0, 28, 95
3, 243840, Note_off_c, 0, 28, 95
3, 243840, Note_on_c, 0, 38, 95
3, 244560, Note_off_c, 0, 38, 95
3, 244560, Note_on_c, 0, 38, 95
3, 244800, Note_off_c, 0, 38, 95
3, 245760, Note_on_c, 0, 33, 95
3, 246480, Note_off_c, 0, 33, 95
3, 246480, Note_on_c, 0, 33, 95
3, 247680, Note_off_c, 0, 33, 95
3, 247680, Note_on_c, 0, 41, 95
3, 248400, Note_off_c, 0, 41, 95
3, 248400, Note_on_c, 0, 41, 95
3, 248880, Note_off_c, 0, 41, 95
3, 249600, Note_on_c, 0, 33, 95
3, 251280, Note_off_c, 0, 33, 95
3, 251280, Note_on_c, 0, 28, 95
3, 252480, Note_off_c, 0, 28, 95
3, 253920, Note_on_c, 0, 28, 95
3, 255360, Note_off_c, 0, 28, 95
3, 255360, Note_on_c, 0, 38, 95
3, 256080, Note_off_c, 0, 38, 95
3, 256080, Note_on_c, 0, 38, 95
3, 256320, Note_off_c, 0, 38, 95
3, 257520, Note_on_c, 0, 28, 95
3, 259200, Note_off_c, 0, 28, 95
3, 259200, Note_on_c, 0, 38, 95
3, 259920, Note_off_c, 0, 38, 95
3, 259920, Note_on_c, 0, 38, 95
3, 260160, Note_off_c, 0, 38, 95
3, 261120, Note_on_c, 0, 33, 95
3, 261840, Note_off_c, 0, 33, 95
3, 261840, Note_on_c, 0, 33, 95
3, 263040, Note_off_c, 0, 33, 95
3, 263040, Note_on_c, 0, 41, 95
3, 263760, Note_off_c, 0, 41, 95
3, 263760, Note_on_c, 0, 41, 95
3, 264240, Note_off_c, 0, 41, 95
3, 264960, Note_on_c, 0, 33, 95
3, 266640, Note_off_c, 0, 33, 95
3, 266640, Note_on_c, 0, 28, 95
3, 267840, Note_off_c, 0, 28, 95
3, 269280, Note_on_c, 0, 28, 95
3, 270720, Note_off_c, 0, 28, 95
3, 270720, Note_on_c, 0, 38, 95
3, 271440, Note_off_c, 0, 38, 95
3, 271440, Note_on_c, 0, 38, 95
3, 271680, Note_off_c, 0, 38, 95
3, 272880, Note_on_c, 0, 28, 95
3, 274560, Note_off_c, 0, 28, 95
3, 274560, Note_on_c, 0, 38, 95
3, 275280, Note_off_c, 0, 38, 95
3, 275280, Note_on_c, 0, 38, 95
3, 275520, Note_off_c, 0, 38, 95
3, 276480, Note_on_c, 0, 33, 95
3, 277200, Note_off_c, 0, 33, 95
3, 277200, Note_on_c, 0, 33, 95
3, 278400, Note_off_c, 0, 33, 95
3, 278400, Note_on_c, 0, 41, 95
3, 279120, Note_off_c, 0, 41, 95
3, 279120, Note_on_c, 0, 41, 95
3, 279600, Note_off_c, 0, 41, 95
3, 280320, Note_on_c, 0, 33, 95
3, 281760, Note_off_c, 0, 33, 95
3, 282000, Note_on_c, 0, 28, 95
3, 284160, Note_off_c, 0, 28, 95
3, 284160, End_track
0, 0, End_of_file
