0, 0, Header, 1, 15, 480
1, 0, Start_track
1, 0, Title_t, "Dust My Broom"
1, 0, Title_t, "Elmore James"
1, 0, MIDI_port, 0
1, 0, System_exclusive, 10, 65, 16, 66, 18, 64, 0, 127, 0, 65, 247
1, 0, MIDI_port, 0
1, 0, Time_signature, 4, 2, 24, 8
1, 0, Key_signature, 0, "major"
1, 0, Tempo, 526316
1, 0, End_track
2, 0, Start_track
2, 0, MIDI_port, 0
2, 0, Control_c, 0, 91, 89
2, 0, Control_c, 0, 93, 69
2, 0, Control_c, 0, 121, 0
2, 1, Control_c, 0, 32, 0
2, 18, Control_c, 0, 101, 0
2, 18, Control_c, 0, 100, 0
2, 18, Control_c, 0, 6, 12
2, 18, Control_c, 0, 38, 0
2, 21, Control_c, 0, 11, 127
2, 482, Program_c, 0, 29
2, 483, Control_c, 0, 7, 120
2, 483, Control_c, 0, 10, 40
2, 1976, Pitch_bend_c, 0, 8192
2, 1976, Control_c, 0, 101, 0
2, 1976, Control_c, 0, 100, 0
2, 1976, Control_c, 0, 6, 12
2, 1976, Control_c, 0, 38, 0
2, 1980, Note_on_c, 0, 62, 56
2, 1988, Pitch_bend_c, 0, 8176
2, 1992, Pitch_bend_c, 0, 8160
2, 2072, Pitch_bend_c, 0, 8192
2, 2080, Note_on_c, 0, 62, 0
2, 2116, Pitch_bend_c, 0, 8192
2, 2116, Note_on_c, 0, 62, 64
2, 2124, Pitch_bend_c, 0, 8176
2, 2128, Pitch_bend_c, 0, 8160
2, 2220, Note_on_c, 0, 62, 0
2, 2256, Pitch_bend_c, 0, 8192
2, 2256, Note_on_c, 0, 62, 56
2, 2264, Pitch_bend_c, 0, 8176
2, 2268, Pitch_bend_c, 0, 8160
2, 2368, Note_on_c, 0, 62, 0
2, 2424, Pitch_bend_c, 0, 8192
2, 2428, Note_on_c, 0, 62, 62
2, 2432, Pitch_bend_c, 0, 8176
2, 2440, Pitch_bend_c, 0, 8160
2, 2516, Note_on_c, 0, 62, 0
2, 2580, Pitch_bend_c, 0, 8192
2, 2580, Note_on_c, 0, 62, 40
2, 2588, Pitch_bend_c, 0, 8176
2, 2596, Pitch_bend_c, 0, 8160
2, 2600, Pitch_bend_c, 0, 8144
2, 2604, Pitch_bend_c, 0, 8160
2, 2608, Pitch_bend_c, 0, 8144
2, 2612, Pitch_bend_c, 0, 8160
2, 2636, Pitch_bend_c, 0, 8176
2, 2648, Pitch_bend_c, 0, 8160
2, 2668, Note_on_c, 0, 62, 0
2, 2716, Pitch_bend_c, 0, 8192
2, 2720, Note_on_c, 0, 62, 59
2, 2728, Pitch_bend_c, 0, 8176
2, 2736, Pitch_bend_c, 0, 8160
2, 2832, Note_on_c, 0, 62, 0
2, 2888, Pitch_bend_c, 0, 8192
2, 2888, Note_on_c, 0, 62, 88
2, 2896, Pitch_bend_c, 0, 8176
2, 2904, Pitch_bend_c, 0, 8160
2, 2960, Pitch_bend_c, 0, 8192
2, 2964, Pitch_bend_c, 0, 8208
2, 2968, Pitch_bend_c, 0, 8224
2, 2976, Note_on_c, 0, 62, 0
2, 3020, Pitch_bend_c, 0, 8192
2, 3020, Note_on_c, 0, 62, 53
2, 3028, Pitch_bend_c, 0, 8176
2, 3036, Pitch_bend_c, 0, 8160
2, 3072, Pitch_bend_c, 0, 8144
2, 3076, Pitch_bend_c, 0, 8160
2, 3088, Pitch_bend_c, 0, 8176
2, 3104, Pitch_bend_c, 0, 8160
2, 3132, Note_on_c, 0, 62, 0
2, 3180, Pitch_bend_c, 0, 8192
2, 3180, Note_on_c, 0, 62, 55
2, 3188, Pitch_bend_c, 0, 8176
2, 3196, Pitch_bend_c, 0, 8160
2, 3272, Pitch_bend_c, 0, 8208
2, 3288, Note_on_c, 0, 62, 0
2, 3340, Pitch_bend_c, 0, 8192
2, 3344, Note_on_c, 0, 62, 66
2, 3348, Pitch_bend_c, 0, 8176
2, 3352, Pitch_bend_c, 0, 8160
2, 3416, Note_on_c, 0, 62, 0
2, 3508, Pitch_bend_c, 0, 8192
2, 3508, Note_on_c, 0, 62, 50
2, 3508, Pitch_bend_c, 0, 8176
2, 3516, Pitch_bend_c, 0, 8160
2, 3520, Pitch_bend_c, 0, 8176
2, 3524, Pitch_bend_c, 0, 8160
2, 3528, Pitch_bend_c, 0, 8144
2, 3552, Pitch_bend_c, 0, 8160
2, 3556, Pitch_bend_c, 0, 8144
2, 3568, Pitch_bend_c, 0, 8160
2, 3568, Pitch_bend_c, 0, 8144
2, 3572, Pitch_bend_c, 0, 8128
2, 3576, Pitch_bend_c, 0, 8144
2, 3596, Note_on_c, 0, 62, 0
2, 3656, Pitch_bend_c, 0, 8192
2, 3656, Note_on_c, 0, 62, 55
2, 3664, Pitch_bend_c, 0, 8176
2, 3668, Pitch_bend_c, 0, 8160
2, 3792, Note_on_c, 0, 62, 0
2, 3828, Pitch_bend_c, 0, 8192
2, 3828, Note_on_c, 0, 62, 88
2, 3836, Pitch_bend_c, 0, 8176
2, 3840, Pitch_bend_c, 0, 8160
2, 3948, Pitch_bend_c, 0, 8176
2, 3956, Note_on_c, 0, 62, 0
2, 4296, Pitch_bend_c, 0, 8192
2, 4296, Note_on_c, 0, 67, 99
2, 4308, Pitch_bend_c, 0, 8208
2, 4312, Pitch_bend_c, 0, 8240
2, 4316, Pitch_bend_c, 0, 8272
2, 4352, Pitch_bend_c, 0, 8288
2, 4376, Pitch_bend_c, 0, 8272
2, 4464, Pitch_bend_c, 0, 8288
2, 4472, Pitch_bend_c, 0, 8272
2, 4480, Pitch_bend_c, 0, 8256
2, 4504, Pitch_bend_c, 0, 8240
2, 4516, Pitch_bend_c, 0, 8256
2, 4520, Pitch_bend_c, 0, 8272
2, 4528, Pitch_bend_c, 0, 8288
2, 4532, Pitch_bend_c, 0, 8304
2, 4540, Pitch_bend_c, 0, 8336
2, 4560, Pitch_bend_c, 0, 8368
2, 4564, Pitch_bend_c, 0, 8432
2, 4604, Pitch_bend_c, 0, 9152
2, 4616, Pitch_bend_c, 0, 9168
2, 4620, Pitch_bend_c, 0, 9200
2, 4624, Pitch_bend_c, 0, 9248
2, 4636, Pitch_bend_c, 0, 9296
2, 4636, Pitch_bend_c, 0, 9408
2, 4656, Pitch_bend_c, 0, 9440
2, 4664, Pitch_bend_c, 0, 9456
2, 4668, Pitch_bend_c, 0, 9472
2, 4680, Pitch_bend_c, 0, 9488
2, 4684, Pitch_bend_c, 0, 9504
2, 4688, Pitch_bend_c, 0, 9520
2, 4824, Pitch_bend_c, 0, 9504
2, 4892, Pitch_bend_c, 0, 9488
2, 4896, Pitch_bend_c, 0, 9472
2, 4916, Pitch_bend_c, 0, 9488
2, 4924, Pitch_bend_c, 0, 9504
2, 4932, Pitch_bend_c, 0, 9488
2, 4936, Pitch_bend_c, 0, 9472
2, 4944, Pitch_bend_c, 0, 9456
2, 5000, Pitch_bend_c, 0, 9472
2, 5008, Pitch_bend_c, 0, 9456
2, 5016, Pitch_bend_c, 0, 9472
2, 5064, Pitch_bend_c, 0, 9488
2, 5096, Pitch_bend_c, 0, 9456
2, 5104, Pitch_bend_c, 0, 9424
2, 5116, Pitch_bend_c, 0, 9408
2, 5132, Pitch_bend_c, 0, 9392
2, 5136, Pitch_bend_c, 0, 9360
2, 5144, Pitch_bend_c, 0, 9344
2, 5144, Pitch_bend_c, 0, 9328
2, 5156, Pitch_bend_c, 0, 9312
2, 5164, Pitch_bend_c, 0, 9280
2, 5168, Pitch_bend_c, 0, 9248
2, 5184, Pitch_bend_c, 0, 9200
2, 5196, Pitch_bend_c, 0, 9120
2, 5196, Pitch_bend_c, 0, 8992
2, 5204, Pitch_bend_c, 0, 8960
2, 5208, Pitch_bend_c, 0, 8928
2, 5244, Pitch_bend_c, 0, 8704
2, 5248, Pitch_bend_c, 0, 8368
2, 5292, Note_on_c, 0, 67, 0
2, 5800, Pitch_bend_c, 0, 8192
2, 5800, Note_on_c, 0, 72, 55
2, 5808, Pitch_bend_c, 0, 8304
2, 5816, Pitch_bend_c, 0, 8400
2, 5824, Pitch_bend_c, 0, 8464
2, 5824, Pitch_bend_c, 0, 8576
2, 5824, Pitch_bend_c, 0, 8736
2, 5828, Pitch_bend_c, 0, 8896
2, 5836, Note_on_c, 0, 72, 0
2, 5908, Pitch_bend_c, 0, 8192
2, 5908, Note_on_c, 0, 73, 53
2, 5912, Pitch_bend_c, 0, 8208
2, 5916, Pitch_bend_c, 0, 8336
2, 5920, Pitch_bend_c, 0, 8480
2, 5924, Pitch_bend_c, 0, 8528
2, 5928, Pitch_bend_c, 0, 8592
2, 5932, Pitch_bend_c, 0, 8672
2, 5936, Pitch_bend_c, 0, 8656
2, 5936, Pitch_bend_c, 0, 8560
2, 5936, Pitch_bend_c, 0, 8624
2, 5948, Pitch_bend_c, 0, 8688
2, 5956, Pitch_bend_c, 0, 8736
2, 5960, Pitch_bend_c, 0, 8784
2, 5960, Pitch_bend_c, 0, 8816
2, 5964, Pitch_bend_c, 0, 8848
2, 5964, Pitch_bend_c, 0, 8880
2, 5968, Pitch_bend_c, 0, 8896
2, 5972, Pitch_bend_c, 0, 8912
2, 5976, Pitch_bend_c, 0, 8832
2, 5980, Pitch_bend_c, 0, 8768
2, 5980, Pitch_bend_c, 0, 8720
2, 5984, Pitch_bend_c, 0, 8688
2, 5988, Pitch_bend_c, 0, 8656
2, 5988, Pitch_bend_c, 0, 8672
2, 5992, Pitch_bend_c, 0, 8720
2, 5992, Pitch_bend_c, 0, 8752
2, 6000, Pitch_bend_c, 0, 8736
2, 6004, Note_on_c, 0, 73, 0
2, 6036, Pitch_bend_c, 0, 8192
2, 6036, Note_on_c, 0, 74, 97
2, 6072, Pitch_bend_c, 0, 8112
2, 6076, Pitch_bend_c, 0, 8080
2, 6104, Pitch_bend_c, 0, 8064
2, 6124, Pitch_bend_c, 0, 8080
2, 6156, Pitch_bend_c, 0, 8096
2, 6196, Note_on_c, 0, 74, 0
2, 6212, Pitch_bend_c, 0, 8192
2, 6212, Note_on_c, 0, 72, 98
2, 6228, Pitch_bend_c, 0, 9440
2, 6236, Pitch_bend_c, 0, 9424
2, 6260, Pitch_bend_c, 0, 9440
2, 6260, Pitch_bend_c, 0, 9424
2, 6264, Pitch_bend_c, 0, 9440
2, 6304, Pitch_bend_c, 0, 9424
2, 6308, Pitch_bend_c, 0, 9440
2, 6324, Pitch_bend_c, 0, 9424
2, 6324, Pitch_bend_c, 0, 9408
2, 6332, Note_on_c, 0, 72, 0
2, 6368, Pitch_bend_c, 0, 8192
2, 6368, Note_on_c, 0, 74, 93
2, 6372, Pitch_bend_c, 0, 8144
2, 6392, Pitch_bend_c, 0, 8096
2, 6396, Pitch_bend_c, 0, 8064
2, 6408, Pitch_bend_c, 0, 8080
2, 6428, Pitch_bend_c, 0, 8064
2, 6428, Pitch_bend_c, 0, 8080
2, 6468, Pitch_bend_c, 0, 8064
2, 6468, Pitch_bend_c, 0, 8048
2, 6488, Note_on_c, 0, 74, 0
2, 6512, Pitch_bend_c, 0, 8192
2, 6516, Note_on_c, 0, 74, 93
2, 6548, Pitch_bend_c, 0, 8128
2, 6548, Pitch_bend_c, 0, 8096
2, 6552, Pitch_bend_c, 0, 8064
2, 6560, Pitch_bend_c, 0, 8080
2, 6612, Pitch_bend_c, 0, 8064
2, 6620, Pitch_bend_c, 0, 8080
2, 6636, Pitch_bend_c, 0, 8064
2, 6640, Pitch_bend_c, 0, 8080
2, 6648, Note_on_c, 0, 74, 0
2, 6692, Pitch_bend_c, 0, 8192
2, 6692, Note_on_c, 0, 74, 99
2, 6700, Pitch_bend_c, 0, 8144
2, 6700, Pitch_bend_c, 0, 8112
2, 6704, Pitch_bend_c, 0, 8080
2, 6708, Pitch_bend_c, 0, 8064
2, 6712, Pitch_bend_c, 0, 8080
2, 6800, Note_on_c, 0, 74, 0
2, 6836, Pitch_bend_c, 0, 8192
2, 6836, Note_on_c, 0, 74, 62
2, 6840, Pitch_bend_c, 0, 8176
2, 6844, Pitch_bend_c, 0, 8128
2, 6848, Pitch_bend_c, 0, 8080
2, 6848, Pitch_bend_c, 0, 8048
2, 6852, Pitch_bend_c, 0, 8032
2, 6852, Pitch_bend_c, 0, 8016
2, 6856, Pitch_bend_c, 0, 8000
2, 6860, Pitch_bend_c, 0, 7984
2, 6872, Pitch_bend_c, 0, 8000
2, 6876, Pitch_bend_c, 0, 8032
2, 6880, Pitch_bend_c, 0, 8064
2, 6880, Pitch_bend_c, 0, 8096
2, 6888, Pitch_bend_c, 0, 8112
2, 6892, Pitch_bend_c, 0, 8096
2, 6904, Pitch_bend_c, 0, 8112
2, 6912, Pitch_bend_c, 0, 8096
2, 6916, Pitch_bend_c, 0, 8080
2, 6916, Pitch_bend_c, 0, 8096
2, 6928, Pitch_bend_c, 0, 8112
2, 6928, Pitch_bend_c, 0, 8128
2, 6940, Pitch_bend_c, 0, 8144
2, 6940, Pitch_bend_c, 0, 8112
2, 6944, Pitch_bend_c, 0, 8080
2, 6956, Note_on_c, 0, 74, 0
2, 6956, Pitch_bend_c, 0, 8032
2, 6972, Pitch_bend_c, 0, 8192
2, 6972, Note_on_c, 0, 71, 90
2, 6980, Pitch_bend_c, 0, 8256
2, 6992, Pitch_bend_c, 0, 10112
2, 7016, Pitch_bend_c, 0, 10128
2, 7036, Pitch_bend_c, 0, 10112
2, 7040, Pitch_bend_c, 0, 10096
2, 7048, Pitch_bend_c, 0, 10112
2, 7064, Pitch_bend_c, 0, 10128
2, 7116, Pitch_bend_c, 0, 10112
2, 7144, Note_on_c, 0, 71, 0
2, 7160, Pitch_bend_c, 0, 8192
2, 7164, Note_on_c, 0, 76, 98
2, 7172, Pitch_bend_c, 0, 6720
2, 7284, Note_on_c, 0, 76, 0
2, 7320, Pitch_bend_c, 0, 8192
2, 7320, Note_on_c, 0, 74, 80
2, 7344, Pitch_bend_c, 0, 8176
2, 7348, Pitch_bend_c, 0, 8128
2, 7356, Pitch_bend_c, 0, 8080
2, 7364, Pitch_bend_c, 0, 8064
2, 7364, Pitch_bend_c, 0, 8048
2, 7368, Pitch_bend_c, 0, 8032
2, 7376, Pitch_bend_c, 0, 8048
2, 7384, Pitch_bend_c, 0, 8064
2, 7392, Pitch_bend_c, 0, 8080
2, 7396, Pitch_bend_c, 0, 8064
2, 7404, Pitch_bend_c, 0, 8048
2, 7416, Pitch_bend_c, 0, 8032
2, 7424, Pitch_bend_c, 0, 8048
2, 7440, Note_on_c, 0, 74, 0
2, 7468, Pitch_bend_c, 0, 8192
2, 7468, Note_on_c, 0, 74, 75
2, 7476, Pitch_bend_c, 0, 8144
2, 7480, Pitch_bend_c, 0, 8112
2, 7484, Pitch_bend_c, 0, 8096
2, 7488, Pitch_bend_c, 0, 8080
2, 7528, Pitch_bend_c, 0, 8096
2, 7556, Pitch_bend_c, 0, 8064
2, 7560, Pitch_bend_c, 0, 8048
2, 7568, Pitch_bend_c, 0, 8032
2, 7572, Pitch_bend_c, 0, 8016
2, 7576, Pitch_bend_c, 0, 8000
2, 7580, Pitch_bend_c, 0, 7968
2, 7584, Pitch_bend_c, 0, 7936
2, 7588, Pitch_bend_c, 0, 7888
2, 7588, Pitch_bend_c, 0, 7872
2, 7592, Pitch_bend_c, 0, 7856
2, 7600, Pitch_bend_c, 0, 7840
2, 7600, Pitch_bend_c, 0, 7808
2, 7616, Pitch_bend_c, 0, 7776
2, 7616, Pitch_bend_c, 0, 7680
2, 7624, Pitch_bend_c, 0, 7664
2, 7632, Pitch_bend_c, 0, 7648
2, 7640, Pitch_bend_c, 0, 7616
2, 7676, Pitch_bend_c, 0, 7600
2, 7676, Pitch_bend_c, 0, 7568
2, 7684, Pitch_bend_c, 0, 7552
2, 7704, Pitch_bend_c, 0, 7568
2, 7708, Pitch_bend_c, 0, 7584
2, 7712, Pitch_bend_c, 0, 7568
2, 7720, Pitch_bend_c, 0, 7584
2, 7740, Pitch_bend_c, 0, 7600
2, 7760, Pitch_bend_c, 0, 7616
2, 7768, Pitch_bend_c, 0, 7632
2, 7772, Pitch_bend_c, 0, 7648
2, 7776, Pitch_bend_c, 0, 7664
2, 7776, Pitch_bend_c, 0, 7696
2, 7788, Pitch_bend_c, 0, 7712
2, 7792, Pitch_bend_c, 0, 7728
2, 7800, Pitch_bend_c, 0, 7744
2, 7804, Pitch_bend_c, 0, 7776
2, 7812, Pitch_bend_c, 0, 7824
2, 7812, Pitch_bend_c, 0, 7840
2, 7812, Pitch_bend_c, 0, 7888
2, 7820, Pitch_bend_c, 0, 7904
2, 7828, Pitch_bend_c, 0, 7920
2, 7832, Pitch_bend_c, 0, 7936
2, 7840, Pitch_bend_c, 0, 7952
2, 7844, Pitch_bend_c, 0, 7984
2, 7848, Pitch_bend_c, 0, 8000
2, 7856, Pitch_bend_c, 0, 8016
2, 7868, Pitch_bend_c, 0, 8032
2, 7868, Pitch_bend_c, 0, 8048
2, 7880, Pitch_bend_c, 0, 8064
2, 7888, Pitch_bend_c, 0, 8080
2, 7896, Pitch_bend_c, 0, 8096
2, 7916, Pitch_bend_c, 0, 8112
2, 7936, Note_on_c, 0, 74, 0
2, 8224, Pitch_bend_c, 0, 8192
2, 8224, Note_on_c, 0, 72, 31
2, 8248, Pitch_bend_c, 0, 8096
2, 8260, Note_on_c, 0, 72, 0
2, 9632, Pitch_bend_c, 0, 8192
2, 9632, Note_on_c, 0, 71, 99
2, 9644, Pitch_bend_c, 0, 8256
2, 9648, Pitch_bend_c, 0, 8336
2, 9648, Pitch_bend_c, 0, 8432
2, 9652, Pitch_bend_c, 0, 8512
2, 9652, Pitch_bend_c, 0, 8704
2, 9656, Pitch_bend_c, 0, 8736
2, 9660, Pitch_bend_c, 0, 8800
2, 9664, Pitch_bend_c, 0, 8880
2, 9668, Pitch_bend_c, 0, 8944
2, 9668, Pitch_bend_c, 0, 9024
2, 9672, Pitch_bend_c, 0, 9104
2, 9676, Pitch_bend_c, 0, 9168
2, 9680, Pitch_bend_c, 0, 9248
2, 9684, Pitch_bend_c, 0, 9472
2, 9684, Pitch_bend_c, 0, 9488
2, 9688, Pitch_bend_c, 0, 9536
2, 9692, Pitch_bend_c, 0, 9600
2, 9696, Pitch_bend_c, 0, 9664
2, 9700, Pitch_bend_c, 0, 9728
2, 9700, Pitch_bend_c, 0, 9792
2, 9704, Pitch_bend_c, 0, 9856
2, 9708, Pitch_bend_c, 0, 9904
2, 9708, Pitch_bend_c, 0, 10000
2, 9712, Pitch_bend_c, 0, 10032
2, 9720, Pitch_bend_c, 0, 10048
2, 9724, Pitch_bend_c, 0, 10096
2, 9728, Pitch_bend_c, 0, 10112
2, 9732, Pitch_bend_c, 0, 10144
2, 9736, Pitch_bend_c, 0, 10160
2, 9752, Note_on_c, 0, 71, 0
2, 9780, Pitch_bend_c, 0, 8192
2, 9780, Note_on_c, 0, 74, 88
2, 9800, Pitch_bend_c, 0, 8160
2, 9804, Pitch_bend_c, 0, 8144
2, 9812, Pitch_bend_c, 0, 8128
2, 9824, Pitch_bend_c, 0, 8144
2, 9840, Pitch_bend_c, 0, 8112
2, 9844, Pitch_bend_c, 0, 8080
2, 9856, Pitch_bend_c, 0, 8064
2, 9896, Note_on_c, 0, 74, 0
2, 9924, Pitch_bend_c, 0, 8192
2, 9924, Note_on_c, 0, 74, 94
2, 9940, Pitch_bend_c, 0, 8160
2, 9948, Pitch_bend_c, 0, 8144
2, 9964, Pitch_bend_c, 0, 8112
2, 9972, Pitch_bend_c, 0, 8096
2, 9980, Pitch_bend_c, 0, 8112
2, 9988, Pitch_bend_c, 0, 8128
2, 10024, Pitch_bend_c, 0, 8096
2, 10024, Pitch_bend_c, 0, 8080
2, 10024, Pitch_bend_c, 0, 8064
2, 10044, Pitch_bend_c, 0, 8080
2, 10072, Note_on_c, 0, 74, 0
2, 10092, Pitch_bend_c, 0, 8192
2, 10092, Note_on_c, 0, 74, 99
2, 10104, Pitch_bend_c, 0, 8160
2, 10108, Pitch_bend_c, 0, 8144
2, 10108, Pitch_bend_c, 0, 8160
2, 10220, Note_on_c, 0, 74, 0
2, 10240, Pitch_bend_c, 0, 8192
2, 10240, Note_on_c, 0, 74, 67
2, 10240, Pitch_bend_c, 0, 8208
2, 10260, Pitch_bend_c, 0, 8224
2, 10280, Pitch_bend_c, 0, 8208
2, 10288, Pitch_bend_c, 0, 8192
2, 10288, Pitch_bend_c, 0, 8176
2, 10292, Pitch_bend_c, 0, 8160
2, 10300, Pitch_bend_c, 0, 8176
2, 10304, Pitch_bend_c, 0, 8192
2, 10308, Pitch_bend_c, 0, 8208
2, 10328, Pitch_bend_c, 0, 8176
2, 10328, Pitch_bend_c, 0, 8160
2, 10348, Pitch_bend_c, 0, 8176
2, 10352, Pitch_bend_c, 0, 8208
2, 10364, Note_on_c, 0, 74, 0
2, 10380, Pitch_bend_c, 0, 8192
2, 10384, Note_on_c, 0, 74, 78
2, 10384, Pitch_bend_c, 0, 8224
2, 10400, Pitch_bend_c, 0, 8208
2, 10412, Pitch_bend_c, 0, 8192
2, 10424, Pitch_bend_c, 0, 8208
2, 10440, Pitch_bend_c, 0, 8192
2, 10456, Pitch_bend_c, 0, 8176
2, 10460, Pitch_bend_c, 0, 8160
2, 10460, Pitch_bend_c, 0, 8192
2, 10464, Pitch_bend_c, 0, 8208
2, 10468, Pitch_bend_c, 0, 8224
2, 10480, Pitch_bend_c, 0, 8208
2, 10484, Pitch_bend_c, 0, 8192
2, 10488, Pitch_bend_c, 0, 8208
2, 10508, Pitch_bend_c, 0, 8192
2, 10524, Note_on_c, 0, 74, 0
2, 10556, Pitch_bend_c, 0, 8192
2, 10556, Note_on_c, 0, 74, 99
2, 10560, Pitch_bend_c, 0, 8176
2, 10564, Pitch_bend_c, 0, 8160
2, 10568, Pitch_bend_c, 0, 8176
2, 10672, Note_on_c, 0, 74, 0
2, 10708, Pitch_bend_c, 0, 8192
2, 10708, Note_on_c, 0, 74, 59
2, 10728, Pitch_bend_c, 0, 8176
2, 10728, Pitch_bend_c, 0, 8192
2, 10732, Pitch_bend_c, 0, 8208
2, 10740, Pitch_bend_c, 0, 8224
2, 10752, Pitch_bend_c, 0, 8240
2, 10752, Pitch_bend_c, 0, 8224
2, 10756, Pitch_bend_c, 0, 8208
2, 10760, Pitch_bend_c, 0, 8224
2, 10764, Pitch_bend_c, 0, 8240
2, 10784, Pitch_bend_c, 0, 8224
2, 10788, Pitch_bend_c, 0, 8208
2, 10792, Pitch_bend_c, 0, 8192
2, 10804, Pitch_bend_c, 0, 8176
2, 10804, Pitch_bend_c, 0, 8160
2, 10808, Pitch_bend_c, 0, 8144
2, 10816, Note_on_c, 0, 74, 0
2, 10856, Pitch_bend_c, 0, 8192
2, 10856, Note_on_c, 0, 74, 80
2, 10860, Pitch_bend_c, 0, 8208
2, 10868, Pitch_bend_c, 0, 8224
2, 10872, Pitch_bend_c, 0, 8240
2, 10876, Pitch_bend_c, 0, 8272
2, 10880, Pitch_bend_c, 0, 8288
2, 10892, Pitch_bend_c, 0, 8272
2, 10892, Pitch_bend_c, 0, 8288
2, 10904, Pitch_bend_c, 0, 8272
2, 10904, Pitch_bend_c, 0, 8240
2, 10908, Pitch_bend_c, 0, 8224
2, 10912, Pitch_bend_c, 0, 8208
2, 10912, Pitch_bend_c, 0, 8224
2, 10916, Pitch_bend_c, 0, 8256
2, 10920, Pitch_bend_c, 0, 8272
2, 10936, Pitch_bend_c, 0, 8256
2, 10936, Pitch_bend_c, 0, 8224
2, 10936, Pitch_bend_c, 0, 8176
2, 10956, Pitch_bend_c, 0, 8192
2, 10956, Pitch_bend_c, 0, 8208
2, 10956, Pitch_bend_c, 0, 8224
2, 10960, Pitch_bend_c, 0, 8240
2, 10964, Pitch_bend_c, 0, 8272
2, 10984, Pitch_bend_c, 0, 8256
2, 10988, Pitch_bend_c, 0, 8224
2, 10992, Pitch_bend_c, 0, 8192
2, 10996, Note_on_c, 0, 74, 0
2, 11024, Pitch_bend_c, 0, 8192
2, 11024, Note_on_c, 0, 74, 99
2, 11032, Pitch_bend_c, 0, 8176
2, 11036, Pitch_bend_c, 0, 8160
2, 11040, Pitch_bend_c, 0, 8176
2, 11160, Note_on_c, 0, 74, 0
2, 11176, Pitch_bend_c, 0, 8192
2, 11180, Note_on_c, 0, 74, 77
2, 11180, Pitch_bend_c, 0, 8176
2, 11184, Pitch_bend_c, 0, 8160
2, 11188, Pitch_bend_c, 0, 8144
2, 11192, Pitch_bend_c, 0, 8112
2, 11196, Pitch_bend_c, 0, 8160
2, 11196, Pitch_bend_c, 0, 8208
2, 11200, Pitch_bend_c, 0, 8224
2, 11204, Pitch_bend_c, 0, 8208
2, 11208, Pitch_bend_c, 0, 8080
2, 11212, Pitch_bend_c, 0, 8208
2, 11216, Pitch_bend_c, 0, 8080
2, 11232, Pitch_bend_c, 0, 8128
2, 11236, Pitch_bend_c, 0, 8096
2, 11236, Pitch_bend_c, 0, 8016
2, 11244, Pitch_bend_c, 0, 8000
2, 11248, Pitch_bend_c, 0, 8032
2, 11248, Pitch_bend_c, 0, 8016
2, 11264, Pitch_bend_c, 0, 8064
2, 11268, Pitch_bend_c, 0, 8112
2, 11272, Pitch_bend_c, 0, 8128
2, 11272, Pitch_bend_c, 0, 8176
2, 11276, Pitch_bend_c, 0, 8224
2, 11280, Pitch_bend_c, 0, 8240
2, 11296, Note_on_c, 0, 74, 0
2, 11332, Pitch_bend_c, 0, 8192
2, 11332, Note_on_c, 0, 74, 89
2, 11344, Pitch_bend_c, 0, 8208
2, 11348, Pitch_bend_c, 0, 8224
2, 11360, Pitch_bend_c, 0, 8208
2, 11368, Pitch_bend_c, 0, 8192
2, 11396, Pitch_bend_c, 0, 8176
2, 11404, Pitch_bend_c, 0, 8192
2, 11456, Pitch_bend_c, 0, 8016
2, 11472, Pitch_bend_c, 0, 7840
2, 11472, Pitch_bend_c, 0, 7584
2, 11480, Pitch_bend_c, 0, 7568
2, 11488, Pitch_bend_c, 0, 7584
2, 11492, Pitch_bend_c, 0, 7568
2, 11520, Pitch_bend_c, 0, 7520
2, 11524, Pitch_bend_c, 0, 7504
2, 11552, Pitch_bend_c, 0, 7520
2, 11556, Pitch_bend_c, 0, 7536
2, 11584, Pitch_bend_c, 0, 7552
2, 11596, Pitch_bend_c, 0, 7568
2, 11648, Pitch_bend_c, 0, 7600
2, 11668, Pitch_bend_c, 0, 7648
2, 11684, Pitch_bend_c, 0, 7712
2, 11700, Pitch_bend_c, 0, 7776
2, 11720, Pitch_bend_c, 0, 7840
2, 11720, Pitch_bend_c, 0, 7952
2, 11728, Pitch_bend_c, 0, 7968
2, 11728, Pitch_bend_c, 0, 7984
2, 11732, Pitch_bend_c, 0, 8016
2, 11736, Pitch_bend_c, 0, 8048
2, 11744, Pitch_bend_c, 0, 8096
2, 11744, Pitch_bend_c, 0, 8112
2, 11752, Pitch_bend_c, 0, 8096
2, 11760, Pitch_bend_c, 0, 8080
2, 11776, Pitch_bend_c, 0, 8096
2, 11776, Pitch_bend_c, 0, 8112
2, 11780, Pitch_bend_c, 0, 8128
2, 11788, Pitch_bend_c, 0, 8144
2, 11800, Pitch_bend_c, 0, 8160
2, 11812, Pitch_bend_c, 0, 8144
2, 11856, Pitch_bend_c, 0, 8128
2, 11880, Pitch_bend_c, 0, 8144
2, 11892, Pitch_bend_c, 0, 8160
2, 11896, Pitch_bend_c, 0, 8144
2, 11908, Pitch_bend_c, 0, 8128
2, 11920, Pitch_bend_c, 0, 8112
2, 11944, Pitch_bend_c, 0, 8080
2, 12032, Pitch_bend_c, 0, 6528
2, 12036, Pitch_bend_c, 0, 6512
2, 12056, Note_on_c, 0, 74, 0
2, 12724, Pitch_bend_c, 0, 8192
2, 12724, Note_on_c, 0, 74, 99
2, 12736, Pitch_bend_c, 0, 8144
2, 12744, Pitch_bend_c, 0, 8128
2, 12748, Pitch_bend_c, 0, 8112
2, 12760, Pitch_bend_c, 0, 8128
2, 12800, Pitch_bend_c, 0, 8112
2, 12804, Pitch_bend_c, 0, 8096
2, 12820, Pitch_bend_c, 0, 8080
2, 12820, Pitch_bend_c, 0, 8064
2, 12860, Pitch_bend_c, 0, 8048
2, 12868, Pitch_bend_c, 0, 8032
2, 12872, Pitch_bend_c, 0, 8016
2, 12876, Pitch_bend_c, 0, 8000
2, 12888, Pitch_bend_c, 0, 7984
2, 12900, Pitch_bend_c, 0, 7952
2, 12904, Pitch_bend_c, 0, 7936
2, 12904, Pitch_bend_c, 0, 7920
2, 12904, Pitch_bend_c, 0, 7904
2, 12912, Pitch_bend_c, 0, 7888
2, 12920, Pitch_bend_c, 0, 7872
2, 12936, Pitch_bend_c, 0, 7856
2, 12940, Pitch_bend_c, 0, 7824
2, 12944, Pitch_bend_c, 0, 7808
2, 12948, Pitch_bend_c, 0, 7792
2, 12952, Pitch_bend_c, 0, 7760
2, 12960, Pitch_bend_c, 0, 7728
2, 12964, Pitch_bend_c, 0, 7648
2, 12964, Pitch_bend_c, 0, 7632
2, 12968, Pitch_bend_c, 0, 7600
2, 12976, Pitch_bend_c, 0, 8192
2, 13008, Pitch_bend_c, 0, 8112
2, 13012, Pitch_bend_c, 0, 7376
2, 13028, Note_on_c, 0, 74, 0
2, 13040, Pitch_bend_c, 0, 8192
2, 13040, Note_on_c, 0, 72, 92
2, 13048, Pitch_bend_c, 0, 8112
2, 13048, Pitch_bend_c, 0, 8016
2, 13056, Pitch_bend_c, 0, 7952
2, 13072, Pitch_bend_c, 0, 7488
2, 13084, Pitch_bend_c, 0, 8032
2, 13084, Pitch_bend_c, 0, 7968
2, 13084, Pitch_bend_c, 0, 7936
2, 13088, Pitch_bend_c, 0, 7920
2, 13088, Pitch_bend_c, 0, 7904
2, 13096, Pitch_bend_c, 0, 7888
2, 13100, Pitch_bend_c, 0, 7872
2, 13100, Pitch_bend_c, 0, 7856
2, 13100, Pitch_bend_c, 0, 7824
2, 13104, Pitch_bend_c, 0, 7808
2, 13108, Pitch_bend_c, 0, 6752
2, 13112, Pitch_bend_c, 0, 7776
2, 13112, Pitch_bend_c, 0, 7712
2, 13116, Pitch_bend_c, 0, 7664
2, 13120, Pitch_bend_c, 0, 7632
2, 13120, Pitch_bend_c, 0, 7616
2, 13124, Pitch_bend_c, 0, 7568
2, 13128, Pitch_bend_c, 0, 7552
2, 13128, Pitch_bend_c, 0, 7520
2, 13132, Pitch_bend_c, 0, 7504
2, 13132, Pitch_bend_c, 0, 7472
2, 13136, Pitch_bend_c, 0, 6512
2, 13136, Pitch_bend_c, 0, 6192
2, 13136, Pitch_bend_c, 0, 6176
2, 13136, Pitch_bend_c, 0, 7456
2, 13140, Pitch_bend_c, 0, 7408
2, 13140, Pitch_bend_c, 0, 7392
2, 13144, Pitch_bend_c, 0, 6128
2, 13144, Pitch_bend_c, 0, 7360
2, 13144, Pitch_bend_c, 0, 7344
2, 13148, Pitch_bend_c, 0, 7328
2, 13148, Pitch_bend_c, 0, 7312
2, 13152, Pitch_bend_c, 0, 7280
2, 13152, Pitch_bend_c, 0, 7264
2, 13156, Pitch_bend_c, 0, 7216
2, 13176, Pitch_bend_c, 0, 5440
2, 13224, Note_on_c, 0, 72, 0
2, 13256, Pitch_bend_c, 0, 8192
2, 13264, Pitch_bend_c, 0, 8208
2, 13264, Pitch_bend_c, 0, 8224
2, 13268, Pitch_bend_c, 0, 8240
2, 13344, Pitch_bend_c, 0, 8288
2, 15104, Pitch_bend_c, 0, 8192
2, 15104, Note_on_c, 0, 65, 55
2, 15116, Note_on_c, 0, 65, 0
2, 15124, Pitch_bend_c, 0, 8192
2, 15128, Note_on_c, 0, 65, 55
2, 15132, Pitch_bend_c, 0, 8208
2, 15140, Pitch_bend_c, 0, 8224
2, 15148, Pitch_bend_c, 0, 8240
2, 15152, Pitch_bend_c, 0, 8272
2, 15156, Pitch_bend_c, 0, 8304
2, 15168, Pitch_bend_c, 0, 8320
2, 15172, Pitch_bend_c, 0, 8352
2, 15176, Pitch_bend_c, 0, 8368
2, 15184, Pitch_bend_c, 0, 8400
2, 15188, Pitch_bend_c, 0, 8432
2, 15188, Pitch_bend_c, 0, 8464
2, 15200, Pitch_bend_c, 0, 8496
2, 15204, Pitch_bend_c, 0, 8544
2, 15208, Pitch_bend_c, 0, 8576
2, 15208, Pitch_bend_c, 0, 8688
2, 15224, Pitch_bend_c, 0, 8720
2, 15232, Pitch_bend_c, 0, 8768
2, 15236, Pitch_bend_c, 0, 8800
2, 15248, Pitch_bend_c, 0, 8848
2, 15252, Pitch_bend_c, 0, 8896
2, 15260, Pitch_bend_c, 0, 8960
2, 15260, Pitch_bend_c, 0, 9008
2, 15264, Pitch_bend_c, 0, 9056
2, 15272, Pitch_bend_c, 0, 9104
2, 15276, Pitch_bend_c, 0, 9152
2, 15284, Pitch_bend_c, 0, 9200
2, 15296, Pitch_bend_c, 0, 9248
2, 15296, Pitch_bend_c, 0, 9392
2, 15304, Pitch_bend_c, 0, 9408
2, 15308, Pitch_bend_c, 0, 9424
2, 15320, Pitch_bend_c, 0, 9440
2, 15340, Pitch_bend_c, 0, 9456
2, 15380, Pitch_bend_c, 0, 9440
2, 15388, Pitch_bend_c, 0, 9456
2, 15400, Pitch_bend_c, 0, 9472
2, 15420, Pitch_bend_c, 0, 9488
2, 15456, Pitch_bend_c, 0, 9456
2, 15460, Pitch_bend_c, 0, 9440
2, 15472, Pitch_bend_c, 0, 9456
2, 15480, Pitch_bend_c, 0, 9472
2, 15496, Pitch_bend_c, 0, 9488
2, 15504, Pitch_bend_c, 0, 9504
2, 15504, Pitch_bend_c, 0, 9488
2, 15516, Pitch_bend_c, 0, 9504
2, 15520, Pitch_bend_c, 0, 9520
2, 15524, Pitch_bend_c, 0, 9536
2, 15532, Pitch_bend_c, 0, 9552
2, 15536, Pitch_bend_c, 0, 9536
2, 15540, Pitch_bend_c, 0, 9520
2, 15552, Pitch_bend_c, 0, 9536
2, 15560, Pitch_bend_c, 0, 9520
2, 15568, Pitch_bend_c, 0, 9504
2, 15576, Pitch_bend_c, 0, 9488
2, 15580, Pitch_bend_c, 0, 9472
2, 15584, Pitch_bend_c, 0, 9456
2, 15600, Pitch_bend_c, 0, 9440
2, 15608, Pitch_bend_c, 0, 9408
2, 15616, Pitch_bend_c, 0, 9376
2, 15636, Pitch_bend_c, 0, 9280
2, 15636, Pitch_bend_c, 0, 9200
2, 15640, Pitch_bend_c, 0, 9136
2, 15644, Pitch_bend_c, 0, 9024
2, 15648, Pitch_bend_c, 0, 8992
2, 15652, Pitch_bend_c, 0, 8944
2, 15660, Pitch_bend_c, 0, 8896
2, 15668, Pitch_bend_c, 0, 8800
2, 15672, Pitch_bend_c, 0, 8704
2, 15684, Pitch_bend_c, 0, 8576
2, 15688, Pitch_bend_c, 0, 8480
2, 15688, Pitch_bend_c, 0, 8352
2, 15692, Pitch_bend_c, 0, 8336
2, 15696, Pitch_bend_c, 0, 8320
2, 15712, Note_on_c, 0, 65, 0
2, 17280, Pitch_bend_c, 0, 8192
2, 17280, Note_on_c, 0, 72, 99
2, 17292, Pitch_bend_c, 0, 8160
2, 17300, Pitch_bend_c, 0, 8192
2, 17304, Pitch_bend_c, 0, 8288
2, 17308, Pitch_bend_c, 0, 8384
2, 17316, Pitch_bend_c, 0, 8496
2, 17316, Pitch_bend_c, 0, 8736
2, 17320, Pitch_bend_c, 0, 8800
2, 17324, Pitch_bend_c, 0, 8864
2, 17324, Pitch_bend_c, 0, 8944
2, 17328, Pitch_bend_c, 0, 9024
2, 17332, Pitch_bend_c, 0, 9104
2, 17340, Pitch_bend_c, 0, 9184
2, 17344, Pitch_bend_c, 0, 9264
2, 17344, Pitch_bend_c, 0, 9424
2, 17348, Pitch_bend_c, 0, 9440
2, 17352, Pitch_bend_c, 0, 9456
2, 17356, Pitch_bend_c, 0, 9472
2, 17356, Pitch_bend_c, 0, 9504
2, 17360, Pitch_bend_c, 0, 9520
2, 17364, Pitch_bend_c, 0, 9552
2, 17364, Pitch_bend_c, 0, 9568
2, 17368, Pitch_bend_c, 0, 9584
2, 17380, Pitch_bend_c, 0, 9568
2, 17380, Pitch_bend_c, 0, 9552
2, 17404, Note_on_c, 0, 72, 0
2, 17444, Pitch_bend_c, 0, 8192
2, 17444, Note_on_c, 0, 74, 70
2, 17464, Pitch_bend_c, 0, 8208
2, 17504, Pitch_bend_c, 0, 8160
2, 17504, Pitch_bend_c, 0, 8128
2, 17508, Pitch_bend_c, 0, 8096
2, 17508, Pitch_bend_c, 0, 8080
2, 17512, Pitch_bend_c, 0, 8064
2, 17516, Pitch_bend_c, 0, 8096
2, 17516, Pitch_bend_c, 0, 8128
2, 17520, Pitch_bend_c, 0, 8160
2, 17524, Pitch_bend_c, 0, 8192
2, 17532, Pitch_bend_c, 0, 8208
2, 17552, Note_on_c, 0, 74, 0
2, 17576, Pitch_bend_c, 0, 8192
2, 17576, Note_on_c, 0, 74, 80
2, 17628, Pitch_bend_c, 0, 8160
2, 17636, Pitch_bend_c, 0, 8128
2, 17640, Pitch_bend_c, 0, 8112
2, 17640, Pitch_bend_c, 0, 8096
2, 17644, Pitch_bend_c, 0, 8112
2, 17644, Pitch_bend_c, 0, 8144
2, 17648, Pitch_bend_c, 0, 8160
2, 17652, Pitch_bend_c, 0, 8176
2, 17660, Pitch_bend_c, 0, 8160
2, 17664, Pitch_bend_c, 0, 8176
2, 17668, Pitch_bend_c, 0, 8192
2, 17668, Pitch_bend_c, 0, 8208
2, 17680, Pitch_bend_c, 0, 8192
2, 17680, Pitch_bend_c, 0, 8176
2, 17684, Pitch_bend_c, 0, 8160
2, 17688, Pitch_bend_c, 0, 8144
2, 17728, Note_on_c, 0, 74, 0
2, 17744, Pitch_bend_c, 0, 8192
2, 17744, Note_on_c, 0, 74, 99
2, 17748, Pitch_bend_c, 0, 8176
2, 17756, Pitch_bend_c, 0, 8160
2, 17836, Pitch_bend_c, 0, 8176
2, 17852, Pitch_bend_c, 0, 8192
2, 17856, Pitch_bend_c, 0, 8208
2, 17868, Note_on_c, 0, 74, 0
2, 17884, Pitch_bend_c, 0, 8192
2, 17888, Note_on_c, 0, 74, 62
2, 17892, Note_on_c, 0, 74, 0
2, 18040, Pitch_bend_c, 0, 8192
2, 18044, Note_on_c, 0, 74, 85
2, 18136, Pitch_bend_c, 0, 8208
2, 18148, Pitch_bend_c, 0, 8224
2, 18156, Pitch_bend_c, 0, 8240
2, 18168, Note_on_c, 0, 74, 0
2, 18196, Pitch_bend_c, 0, 8192
2, 18196, Note_on_c, 0, 76, 99
2, 18200, Pitch_bend_c, 0, 8208
2, 18208, Pitch_bend_c, 0, 6800
2, 18224, Pitch_bend_c, 0, 6816
2, 18300, Pitch_bend_c, 0, 6800
2, 18304, Pitch_bend_c, 0, 6816
2, 18320, Note_on_c, 0, 76, 0
2, 18360, Pitch_bend_c, 0, 8192
2, 18360, Note_on_c, 0, 74, 70
2, 18364, Pitch_bend_c, 0, 8160
2, 18368, Pitch_bend_c, 0, 8144
2, 18372, Pitch_bend_c, 0, 8128
2, 18396, Pitch_bend_c, 0, 8144
2, 18400, Pitch_bend_c, 0, 8176
2, 18404, Pitch_bend_c, 0, 8192
2, 18408, Pitch_bend_c, 0, 8208
2, 18416, Pitch_bend_c, 0, 8224
2, 18416, Pitch_bend_c, 0, 8208
2, 18468, Note_on_c, 0, 74, 0
2, 18500, Pitch_bend_c, 0, 8192
2, 18500, Note_on_c, 0, 74, 96
2, 18524, Pitch_bend_c, 0, 8208
2, 18652, Note_on_c, 0, 74, 0
2, 18676, Pitch_bend_c, 0, 8192
2, 18676, Note_on_c, 0, 74, 98
2, 18708, Pitch_bend_c, 0, 8176
2, 18712, Pitch_bend_c, 0, 8160
2, 18752, Pitch_bend_c, 0, 8176
2, 18780, Pitch_bend_c, 0, 8192
2, 18784, Pitch_bend_c, 0, 8208
2, 18792, Pitch_bend_c, 0, 8192
2, 18808, Note_on_c, 0, 74, 0
2, 18836, Pitch_bend_c, 0, 8192
2, 18840, Note_on_c, 0, 74, 88
2, 18840, Pitch_bend_c, 0, 8176
2, 18848, Pitch_bend_c, 0, 8192
2, 18848, Pitch_bend_c, 0, 8208
2, 18852, Pitch_bend_c, 0, 8224
2, 18852, Pitch_bend_c, 0, 8240
2, 18936, Pitch_bend_c, 0, 8256
2, 18944, Note_on_c, 0, 74, 0
2, 18992, Pitch_bend_c, 0, 8192
2, 18992, Note_on_c, 0, 74, 78
2, 19012, Pitch_bend_c, 0, 8208
2, 19016, Pitch_bend_c, 0, 8224
2, 19020, Pitch_bend_c, 0, 8240
2, 19032, Pitch_bend_c, 0, 8272
2, 19072, Pitch_bend_c, 0, 8192
2, 19084, Pitch_bend_c, 0, 8160
2, 19100, Pitch_bend_c, 0, 8096
2, 19116, Pitch_bend_c, 0, 8032
2, 19136, Pitch_bend_c, 0, 7984
2, 19148, Pitch_bend_c, 0, 7920
2, 19160, Pitch_bend_c, 0, 7808
2, 19160, Pitch_bend_c, 0, 7648
2, 19188, Pitch_bend_c, 0, 7632
2, 19192, Pitch_bend_c, 0, 7600
2, 19192, Pitch_bend_c, 0, 7632
2, 19200, Pitch_bend_c, 0, 7664
2, 19204, Pitch_bend_c, 0, 7680
2, 19204, Pitch_bend_c, 0, 7712
2, 19208, Pitch_bend_c, 0, 7744
2, 19212, Pitch_bend_c, 0, 7712
2, 19220, Pitch_bend_c, 0, 7664
2, 19220, Pitch_bend_c, 0, 7632
2, 19244, Pitch_bend_c, 0, 7600
2, 19256, Pitch_bend_c, 0, 7616
2, 19260, Pitch_bend_c, 0, 7648
2, 19268, Pitch_bend_c, 0, 7632
2, 19268, Pitch_bend_c, 0, 7648
2, 19272, Pitch_bend_c, 0, 7680
2, 19276, Pitch_bend_c, 0, 7744
2, 19288, Pitch_bend_c, 0, 7760
2, 19288, Pitch_bend_c, 0, 7792
2, 19292, Pitch_bend_c, 0, 7776
2, 19300, Pitch_bend_c, 0, 7760
2, 19304, Pitch_bend_c, 0, 7728
2, 19308, Pitch_bend_c, 0, 7696
2, 19312, Pitch_bend_c, 0, 7744
2, 19312, Pitch_bend_c, 0, 7792
2, 19324, Pitch_bend_c, 0, 7840
2, 19328, Pitch_bend_c, 0, 7888
2, 19328, Pitch_bend_c, 0, 7984
2, 19336, Pitch_bend_c, 0, 7952
2, 19340, Pitch_bend_c, 0, 7920
2, 19360, Pitch_bend_c, 0, 7936
2, 19364, Pitch_bend_c, 0, 7968
2, 19368, Pitch_bend_c, 0, 8000
2, 19380, Pitch_bend_c, 0, 8016
2, 19384, Pitch_bend_c, 0, 8032
2, 19384, Pitch_bend_c, 0, 8048
2, 19396, Pitch_bend_c, 0, 8064
2, 19396, Pitch_bend_c, 0, 8112
2, 19400, Pitch_bend_c, 0, 8144
2, 19400, Pitch_bend_c, 0, 8128
2, 19400, Pitch_bend_c, 0, 8112
2, 19424, Pitch_bend_c, 0, 8144
2, 19428, Pitch_bend_c, 0, 8176
2, 19428, Pitch_bend_c, 0, 8192
2, 19432, Pitch_bend_c, 0, 8176
2, 19436, Pitch_bend_c, 0, 8192
2, 19444, Pitch_bend_c, 0, 8208
2, 19460, Pitch_bend_c, 0, 8224
2, 19480, Pitch_bend_c, 0, 8208
2, 19488, Pitch_bend_c, 0, 8192
2, 19492, Pitch_bend_c, 0, 8208
2, 19496, Pitch_bend_c, 0, 8192
2, 19500, Pitch_bend_c, 0, 8176
2, 19504, Pitch_bend_c, 0, 8208
2, 19508, Pitch_bend_c, 0, 8224
2, 19532, Pitch_bend_c, 0, 8240
2, 19540, Pitch_bend_c, 0, 8256
2, 19548, Pitch_bend_c, 0, 8272
2, 19548, Pitch_bend_c, 0, 8288
2, 19580, Pitch_bend_c, 0, 8304
2, 19592, Pitch_bend_c, 0, 8320
2, 19604, Pitch_bend_c, 0, 8272
2, 19608, Pitch_bend_c, 0, 8224
2, 19656, Pitch_bend_c, 0, 8144
2, 19664, Note_on_c, 0, 74, 0
2, 19688, Pitch_bend_c, 0, 8192
2, 19688, Note_on_c, 0, 72, 25
2, 19688, Pitch_bend_c, 0, 8144
2, 19696, Pitch_bend_c, 0, 8064
2, 19704, Pitch_bend_c, 0, 7952
2, 19708, Pitch_bend_c, 0, 7824
2, 19712, Pitch_bend_c, 0, 7520
2, 19724, Pitch_bend_c, 0, 7392
2, 19736, Note_on_c, 0, 72, 0
2, 20664, Pitch_bend_c, 0, 8192
2, 20664, Note_on_c, 0, 73, 87
2, 20672, Pitch_bend_c, 0, 8256
2, 20676, Pitch_bend_c, 0, 8336
2, 20684, Pitch_bend_c, 0, 8368
2, 20684, Pitch_bend_c, 0, 8400
2, 20688, Pitch_bend_c, 0, 8416
2, 20688, Pitch_bend_c, 0, 8464
2, 20692, Pitch_bend_c, 0, 8480
2, 20696, Pitch_bend_c, 0, 8512
2, 20700, Pitch_bend_c, 0, 8528
2, 20700, Pitch_bend_c, 0, 8560
2, 20716, Pitch_bend_c, 0, 8576
2, 20716, Pitch_bend_c, 0, 8592
2, 20720, Pitch_bend_c, 0, 8624
2, 20724, Pitch_bend_c, 0, 8656
2, 20728, Pitch_bend_c, 0, 8672
2, 20728, Pitch_bend_c, 0, 8656
2, 20732, Pitch_bend_c, 0, 8672
2, 20736, Pitch_bend_c, 0, 8688
2, 20744, Pitch_bend_c, 0, 8704
2, 20744, Pitch_bend_c, 0, 8720
2, 20748, Pitch_bend_c, 0, 8736
2, 20752, Pitch_bend_c, 0, 8752
2, 20756, Pitch_bend_c, 0, 8768
2, 20760, Pitch_bend_c, 0, 8784
2, 20772, Pitch_bend_c, 0, 8800
2, 20772, Pitch_bend_c, 0, 8816
2, 20780, Pitch_bend_c, 0, 8832
2, 20796, Pitch_bend_c, 0, 8816
2, 20800, Pitch_bend_c, 0, 8800
2, 20808, Pitch_bend_c, 0, 8784
2, 20816, Pitch_bend_c, 0, 8768
2, 20824, Pitch_bend_c, 0, 8752
2, 20828, Pitch_bend_c, 0, 8736
2, 20832, Pitch_bend_c, 0, 8720
2, 20832, Pitch_bend_c, 0, 8704
2, 20836, Pitch_bend_c, 0, 8688
2, 20840, Pitch_bend_c, 0, 8672
2, 20844, Pitch_bend_c, 0, 8640
2, 20844, Pitch_bend_c, 0, 8608
2, 20848, Pitch_bend_c, 0, 8576
2, 20852, Pitch_bend_c, 0, 8560
2, 20860, Note_on_c, 0, 73, 0
2, 20936, Pitch_bend_c, 0, 8192
2, 20936, Note_on_c, 0, 72, 88
2, 20944, Pitch_bend_c, 0, 8224
2, 20944, Pitch_bend_c, 0, 8256
2, 20948, Pitch_bend_c, 0, 8272
2, 20956, Pitch_bend_c, 0, 8288
2, 20960, Pitch_bend_c, 0, 8272
2, 20972, Pitch_bend_c, 0, 8256
2, 20988, Pitch_bend_c, 0, 8240
2, 21000, Pitch_bend_c, 0, 8224
2, 21016, Pitch_bend_c, 0, 8240
2, 21028, Note_on_c, 0, 72, 0
2, 22844, Pitch_bend_c, 0, 8192
2, 22844, Note_on_c, 0, 65, 64
2, 22856, Pitch_bend_c, 0, 8208
2, 22860, Pitch_bend_c, 0, 8224
2, 22860, Pitch_bend_c, 0, 8240
2, 22872, Pitch_bend_c, 0, 8272
2, 22872, Pitch_bend_c, 0, 8288
2, 22880, Pitch_bend_c, 0, 8304
2, 22888, Pitch_bend_c, 0, 8336
2, 22896, Pitch_bend_c, 0, 8352
2, 22900, Pitch_bend_c, 0, 8400
2, 22904, Pitch_bend_c, 0, 8432
2, 22904, Pitch_bend_c, 0, 8448
2, 22908, Pitch_bend_c, 0, 8464
2, 22912, Pitch_bend_c, 0, 8480
2, 22916, Pitch_bend_c, 0, 8496
2, 22920, Pitch_bend_c, 0, 8528
2, 22920, Pitch_bend_c, 0, 8560
2, 22924, Pitch_bend_c, 0, 8640
2, 22936, Pitch_bend_c, 0, 8656
2, 22940, Pitch_bend_c, 0, 8688
2, 22940, Pitch_bend_c, 0, 8720
2, 22944, Pitch_bend_c, 0, 8768
2, 22948, Pitch_bend_c, 0, 8800
2, 22952, Pitch_bend_c, 0, 8832
2, 22956, Pitch_bend_c, 0, 8864
2, 22960, Pitch_bend_c, 0, 8912
2, 22968, Pitch_bend_c, 0, 8960
2, 22972, Pitch_bend_c, 0, 9008
2, 22972, Pitch_bend_c, 0, 9072
2, 22976, Pitch_bend_c, 0, 9104
2, 22980, Pitch_bend_c, 0, 9120
2, 22988, Pitch_bend_c, 0, 9168
2, 22992, Pitch_bend_c, 0, 9216
2, 23004, Pitch_bend_c, 0, 9264
2, 23004, Pitch_bend_c, 0, 9408
2, 23012, Pitch_bend_c, 0, 9424
2, 23016, Pitch_bend_c, 0, 9440
2, 23024, Pitch_bend_c, 0, 9456
2, 23032, Pitch_bend_c, 0, 9472
2, 23040, Pitch_bend_c, 0, 9488
2, 23060, Pitch_bend_c, 0, 9472
2, 23068, Pitch_bend_c, 0, 9488
2, 23076, Pitch_bend_c, 0, 9504
2, 23080, Pitch_bend_c, 0, 9488
2, 23088, Pitch_bend_c, 0, 9472
2, 23104, Pitch_bend_c, 0, 9488
2, 23112, Pitch_bend_c, 0, 9504
2, 23120, Pitch_bend_c, 0, 9488
2, 23124, Pitch_bend_c, 0, 9472
2, 23132, Pitch_bend_c, 0, 9456
2, 23140, Pitch_bend_c, 0, 9472
2, 23144, Pitch_bend_c, 0, 9488
2, 23148, Pitch_bend_c, 0, 9504
2, 23176, Pitch_bend_c, 0, 9488
2, 23184, Pitch_bend_c, 0, 9472
2, 23200, Pitch_bend_c, 0, 9488
2, 23204, Pitch_bend_c, 0, 9504
2, 23212, Pitch_bend_c, 0, 9488
2, 23232, Pitch_bend_c, 0, 9504
2, 23240, Pitch_bend_c, 0, 9488
2, 23272, Pitch_bend_c, 0, 9472
2, 23276, Pitch_bend_c, 0, 9456
2, 23280, Pitch_bend_c, 0, 9440
2, 23288, Pitch_bend_c, 0, 9408
2, 23308, Pitch_bend_c, 0, 9424
2, 23308, Pitch_bend_c, 0, 9440
2, 23316, Pitch_bend_c, 0, 9456
2, 23316, Pitch_bend_c, 0, 9472
2, 23320, Pitch_bend_c, 0, 9488
2, 23340, Pitch_bend_c, 0, 9328
2, 23344, Pitch_bend_c, 0, 9216
2, 23348, Pitch_bend_c, 0, 9152
2, 23348, Pitch_bend_c, 0, 9056
2, 23356, Pitch_bend_c, 0, 9024
2, 23356, Pitch_bend_c, 0, 8976
2, 23364, Pitch_bend_c, 0, 8928
2, 23368, Pitch_bend_c, 0, 8896
2, 23388, Pitch_bend_c, 0, 8768
2, 23396, Pitch_bend_c, 0, 8656
2, 23400, Pitch_bend_c, 0, 8576
2, 23404, Pitch_bend_c, 0, 8512
2, 23408, Pitch_bend_c, 0, 8432
2, 23412, Pitch_bend_c, 0, 8336
2, 23428, Pitch_bend_c, 0, 8256
2, 23428, Pitch_bend_c, 0, 8192
2, 23440, Pitch_bend_c, 0, 8128
2, 23440, Pitch_bend_c, 0, 8080
2, 23480, Note_on_c, 0, 65, 0
2, 25288, Pitch_bend_c, 0, 8192
2, 25288, Note_on_c, 0, 62, 98
2, 25292, Pitch_bend_c, 0, 8176
2, 25300, Pitch_bend_c, 0, 8160
2, 25412, Note_on_c, 0, 62, 0
2, 25440, Pitch_bend_c, 0, 8192
2, 25440, Note_on_c, 0, 62, 81
2, 25444, Pitch_bend_c, 0, 8176
2, 25452, Pitch_bend_c, 0, 8160
2, 25556, Note_on_c, 0, 62, 0
2, 25592, Pitch_bend_c, 0, 8192
2, 25592, Note_on_c, 0, 62, 47
2, 25596, Pitch_bend_c, 0, 8176
2, 25604, Pitch_bend_c, 0, 8160
2, 25688, Note_on_c, 0, 62, 0
2, 25736, Pitch_bend_c, 0, 8192
2, 25736, Note_on_c, 0, 62, 67
2, 25740, Pitch_bend_c, 0, 8176
2, 25744, Pitch_bend_c, 0, 8160
2, 25844, Note_on_c, 0, 62, 0
2, 25896, Pitch_bend_c, 0, 8192
2, 25896, Note_on_c, 0, 62, 78
2, 25904, Pitch_bend_c, 0, 8176
2, 25908, Pitch_bend_c, 0, 8160
2, 26008, Pitch_bend_c, 0, 8128
2, 26020, Note_on_c, 0, 62, 0
2, 26052, Pitch_bend_c, 0, 8192
2, 26052, Note_on_c, 0, 62, 55
2, 26056, Pitch_bend_c, 0, 8176
2, 26060, Pitch_bend_c, 0, 8160
2, 26156, Note_on_c, 0, 62, 0
2, 26192, Pitch_bend_c, 0, 8192
2, 26192, Note_on_c, 0, 62, 44
2, 26200, Pitch_bend_c, 0, 8176
2, 26204, Pitch_bend_c, 0, 8160
2, 26328, Pitch_bend_c, 0, 8144
2, 26340, Note_on_c, 0, 62, 0
2, 26372, Pitch_bend_c, 0, 8192
2, 26372, Note_on_c, 0, 62, 85
2, 26380, Pitch_bend_c, 0, 8176
2, 26384, Pitch_bend_c, 0, 8160
2, 26496, Note_on_c, 0, 62, 0
2, 26544, Pitch_bend_c, 0, 8192
2, 26544, Note_on_c, 0, 62, 56
2, 26548, Pitch_bend_c, 0, 8176
2, 26556, Pitch_bend_c, 0, 8160
2, 26640, Note_on_c, 0, 62, 0
2, 26688, Pitch_bend_c, 0, 8192
2, 26688, Note_on_c, 0, 62, 59
2, 26692, Pitch_bend_c, 0, 8176
2, 26700, Pitch_bend_c, 0, 8160
2, 26828, Note_on_c, 0, 62, 0
2, 26864, Pitch_bend_c, 0, 8192
2, 26864, Note_on_c, 0, 62, 92
2, 26872, Pitch_bend_c, 0, 8176
2, 26876, Pitch_bend_c, 0, 8160
2, 27000, Pitch_bend_c, 0, 8176
2, 27004, Note_on_c, 0, 62, 0
2, 32716, Pitch_bend_c, 0, 8192
2, 32716, Note_on_c, 0, 73, 88
2, 32736, Pitch_bend_c, 0, 8208
2, 32740, Pitch_bend_c, 0, 8256
2, 32744, Pitch_bend_c, 0, 8288
2, 32748, Pitch_bend_c, 0, 8320
2, 32752, Pitch_bend_c, 0, 8352
2, 32760, Pitch_bend_c, 0, 8384
2, 32764, Pitch_bend_c, 0, 8400
2, 32768, Pitch_bend_c, 0, 8448
2, 32772, Pitch_bend_c, 0, 8464
2, 32772, Pitch_bend_c, 0, 8496
2, 32780, Pitch_bend_c, 0, 8512
2, 32780, Pitch_bend_c, 0, 8528
2, 32784, Pitch_bend_c, 0, 8576
2, 32784, Pitch_bend_c, 0, 8592
2, 32792, Pitch_bend_c, 0, 8608
2, 32792, Pitch_bend_c, 0, 8624
2, 32796, Pitch_bend_c, 0, 8656
2, 32804, Pitch_bend_c, 0, 8672
2, 32812, Note_on_c, 0, 73, 0
2, 32848, Pitch_bend_c, 0, 8192
2, 32852, Note_on_c, 0, 74, 69
2, 32868, Pitch_bend_c, 0, 8096
2, 32868, Pitch_bend_c, 0, 8064
2, 32872, Pitch_bend_c, 0, 8032
2, 32908, Pitch_bend_c, 0, 8048
2, 32912, Pitch_bend_c, 0, 8064
2, 32948, Note_on_c, 0, 74, 0
2, 32988, Pitch_bend_c, 0, 8192
2, 32992, Note_on_c, 0, 74, 88
2, 33012, Pitch_bend_c, 0, 8208
2, 33020, Pitch_bend_c, 0, 8224
2, 33052, Pitch_bend_c, 0, 8240
2, 33056, Pitch_bend_c, 0, 8224
2, 33112, Note_on_c, 0, 74, 0
2, 33136, Pitch_bend_c, 0, 8192
2, 33136, Note_on_c, 0, 73, 98
2, 33144, Pitch_bend_c, 0, 8176
2, 33148, Pitch_bend_c, 0, 8192
2, 33160, Pitch_bend_c, 0, 8224
2, 33164, Pitch_bend_c, 0, 8256
2, 33164, Pitch_bend_c, 0, 8288
2, 33168, Pitch_bend_c, 0, 8304
2, 33180, Pitch_bend_c, 0, 8336
2, 33184, Pitch_bend_c, 0, 8352
2, 33188, Pitch_bend_c, 0, 8416
2, 33192, Pitch_bend_c, 0, 8480
2, 33192, Pitch_bend_c, 0, 8560
2, 33192, Pitch_bend_c, 0, 8704
2, 33200, Pitch_bend_c, 0, 8720
2, 33204, Pitch_bend_c, 0, 8768
2, 33208, Pitch_bend_c, 0, 8816
2, 33212, Pitch_bend_c, 0, 8864
2, 33212, Pitch_bend_c, 0, 8880
2, 33220, Pitch_bend_c, 0, 8912
2, 33224, Pitch_bend_c, 0, 8928
2, 33256, Note_on_c, 0, 73, 0
2, 33300, Pitch_bend_c, 0, 8192
2, 33300, Note_on_c, 0, 74, 67
2, 33316, Pitch_bend_c, 0, 8208
2, 33324, Pitch_bend_c, 0, 8224
2, 33332, Pitch_bend_c, 0, 8144
2, 33336, Pitch_bend_c, 0, 8240
2, 33364, Pitch_bend_c, 0, 8304
2, 33372, Pitch_bend_c, 0, 8272
2, 33404, Note_on_c, 0, 74, 0
2, 33436, Pitch_bend_c, 0, 8192
2, 33436, Note_on_c, 0, 74, 93
2, 33452, Pitch_bend_c, 0, 8208
2, 33456, Pitch_bend_c, 0, 8224
2, 33472, Pitch_bend_c, 0, 8240
2, 33548, Note_on_c, 0, 74, 0
2, 33592, Pitch_bend_c, 0, 8192
2, 33592, Note_on_c, 0, 73, 99
2, 33604, Pitch_bend_c, 0, 8208
2, 33608, Pitch_bend_c, 0, 8224
2, 33612, Pitch_bend_c, 0, 8240
2, 33616, Pitch_bend_c, 0, 8272
2, 33620, Pitch_bend_c, 0, 8288
2, 33624, Pitch_bend_c, 0, 8304
2, 33628, Pitch_bend_c, 0, 8336
2, 33632, Pitch_bend_c, 0, 8352
2, 33644, Pitch_bend_c, 0, 8384
2, 33644, Pitch_bend_c, 0, 8448
2, 33648, Pitch_bend_c, 0, 8496
2, 33652, Pitch_bend_c, 0, 8560
2, 33652, Pitch_bend_c, 0, 8688
2, 33660, Pitch_bend_c, 0, 8720
2, 33668, Pitch_bend_c, 0, 8768
2, 33672, Pitch_bend_c, 0, 8800
2, 33672, Pitch_bend_c, 0, 8848
2, 33680, Pitch_bend_c, 0, 8864
2, 33692, Pitch_bend_c, 0, 8880
2, 33700, Pitch_bend_c, 0, 8912
2, 33712, Note_on_c, 0, 73, 0
2, 33760, Pitch_bend_c, 0, 8192
2, 33760, Note_on_c, 0, 73, 86
2, 33764, Pitch_bend_c, 0, 8272
2, 33768, Pitch_bend_c, 0, 8384
2, 33784, Pitch_bend_c, 0, 8496
2, 33784, Pitch_bend_c, 0, 8560
2, 33784, Pitch_bend_c, 0, 8704
2, 33792, Pitch_bend_c, 0, 8736
2, 33800, Pitch_bend_c, 0, 8784
2, 33804, Pitch_bend_c, 0, 8832
2, 33804, Pitch_bend_c, 0, 8880
2, 33804, Pitch_bend_c, 0, 8896
2, 33852, Note_on_c, 0, 73, 0
2, 33892, Pitch_bend_c, 0, 8192
2, 33892, Note_on_c, 0, 74, 93
2, 33912, Pitch_bend_c, 0, 8208
2, 33912, Pitch_bend_c, 0, 8256
2, 33916, Pitch_bend_c, 0, 8288
2, 33920, Pitch_bend_c, 0, 8368
2, 33932, Pitch_bend_c, 0, 8192
2, 33956, Pitch_bend_c, 0, 8080
2, 33960, Pitch_bend_c, 0, 8064
2, 33960, Pitch_bend_c, 0, 8144
2, 33968, Pitch_bend_c, 0, 8272
2, 34004, Note_on_c, 0, 74, 0
2, 34044, Pitch_bend_c, 0, 8192
2, 34044, Note_on_c, 0, 75, 96
2, 34056, Pitch_bend_c, 0, 6816
2, 34072, Pitch_bend_c, 0, 6832
2, 34080, Pitch_bend_c, 0, 6848
2, 34084, Pitch_bend_c, 0, 6864
2, 34088, Pitch_bend_c, 0, 6880
2, 34092, Pitch_bend_c, 0, 6896
2, 34096, Pitch_bend_c, 0, 6928
2, 34100, Pitch_bend_c, 0, 6960
2, 34104, Pitch_bend_c, 0, 6976
2, 34108, Pitch_bend_c, 0, 7024
2, 34112, Pitch_bend_c, 0, 7072
2, 34112, Pitch_bend_c, 0, 7136
2, 34116, Pitch_bend_c, 0, 7216
2, 34116, Pitch_bend_c, 0, 7392
2, 34124, Pitch_bend_c, 0, 7408
2, 34124, Pitch_bend_c, 0, 7440
2, 34132, Pitch_bend_c, 0, 7472
2, 34132, Pitch_bend_c, 0, 7504
2, 34152, Pitch_bend_c, 0, 7520
2, 34168, Note_on_c, 0, 75, 0
2, 34200, Pitch_bend_c, 0, 8192
2, 34200, Note_on_c, 0, 74, 81
2, 34208, Pitch_bend_c, 0, 8096
2, 34212, Pitch_bend_c, 0, 8064
2, 34216, Pitch_bend_c, 0, 8032
2, 34220, Pitch_bend_c, 0, 8016
2, 34232, Pitch_bend_c, 0, 8032
2, 34232, Pitch_bend_c, 0, 8016
2, 34248, Pitch_bend_c, 0, 8032
2, 34252, Pitch_bend_c, 0, 8048
2, 34252, Pitch_bend_c, 0, 8064
2, 34260, Pitch_bend_c, 0, 8080
2, 34264, Pitch_bend_c, 0, 8096
2, 34272, Pitch_bend_c, 0, 8128
2, 34288, Pitch_bend_c, 0, 8176
2, 34292, Pitch_bend_c, 0, 8208
2, 34292, Pitch_bend_c, 0, 8224
2, 34300, Note_on_c, 0, 74, 0
2, 34332, Pitch_bend_c, 0, 8192
2, 34332, Note_on_c, 0, 74, 87
2, 34352, Pitch_bend_c, 0, 8208
2, 34352, Pitch_bend_c, 0, 8224
2, 34376, Pitch_bend_c, 0, 8240
2, 34432, Pitch_bend_c, 0, 8016
2, 34432, Pitch_bend_c, 0, 7888
2, 34436, Pitch_bend_c, 0, 7824
2, 34436, Pitch_bend_c, 0, 7744
2, 34444, Pitch_bend_c, 0, 7712
2, 34460, Pitch_bend_c, 0, 7632
2, 34472, Pitch_bend_c, 0, 7552
2, 34476, Pitch_bend_c, 0, 7488
2, 34556, Pitch_bend_c, 0, 7408
2, 34560, Pitch_bend_c, 0, 7376
2, 34564, Pitch_bend_c, 0, 7344
2, 34572, Pitch_bend_c, 0, 7328
2, 34576, Pitch_bend_c, 0, 7344
2, 34588, Pitch_bend_c, 0, 7360
2, 34600, Pitch_bend_c, 0, 7376
2, 34620, Pitch_bend_c, 0, 7392
2, 34632, Pitch_bend_c, 0, 7408
2, 34648, Pitch_bend_c, 0, 7440
2, 34652, Pitch_bend_c, 0, 7456
2, 34660, Pitch_bend_c, 0, 7472
2, 34660, Pitch_bend_c, 0, 7488
2, 34664, Pitch_bend_c, 0, 7504
2, 34672, Pitch_bend_c, 0, 7536
2, 34680, Pitch_bend_c, 0, 7568
2, 34680, Pitch_bend_c, 0, 7600
2, 34684, Pitch_bend_c, 0, 7616
2, 34688, Pitch_bend_c, 0, 7632
2, 34700, Pitch_bend_c, 0, 7664
2, 34700, Pitch_bend_c, 0, 7696
2, 34708, Pitch_bend_c, 0, 7728
2, 34712, Pitch_bend_c, 0, 7760
2, 34712, Pitch_bend_c, 0, 7776
2, 34716, Pitch_bend_c, 0, 7792
2, 34720, Pitch_bend_c, 0, 7808
2, 34724, Pitch_bend_c, 0, 7824
2, 34736, Pitch_bend_c, 0, 7840
2, 34748, Pitch_bend_c, 0, 7872
2, 34764, Note_on_c, 0, 74, 0
2, 40356, Pitch_bend_c, 0, 8192
2, 40356, Note_on_c, 0, 73, 70
2, 40372, Pitch_bend_c, 0, 8208
2, 40376, Pitch_bend_c, 0, 8272
2, 40380, Pitch_bend_c, 0, 8336
2, 40388, Pitch_bend_c, 0, 8416
2, 40396, Pitch_bend_c, 0, 8528
2, 40404, Pitch_bend_c, 0, 8624
2, 40404, Pitch_bend_c, 0, 8800
2, 40424, Pitch_bend_c, 0, 8784
2, 40440, Pitch_bend_c, 0, 8800
2, 40444, Pitch_bend_c, 0, 8832
2, 40448, Pitch_bend_c, 0, 8848
2, 40472, Note_on_c, 0, 73, 0
2, 40504, Pitch_bend_c, 0, 8192
2, 40504, Note_on_c, 0, 74, 40
2, 40516, Pitch_bend_c, 0, 8096
2, 40524, Pitch_bend_c, 0, 8144
2, 40528, Pitch_bend_c, 0, 8192
2, 40544, Pitch_bend_c, 0, 8240
2, 40544, Pitch_bend_c, 0, 8304
2, 40552, Pitch_bend_c, 0, 8352
2, 40560, Pitch_bend_c, 0, 8416
2, 40564, Pitch_bend_c, 0, 8448
2, 40576, Pitch_bend_c, 0, 8496
2, 40592, Pitch_bend_c, 0, 8528
2, 40616, Note_on_c, 0, 74, 0
2, 40664, Pitch_bend_c, 0, 8192
2, 40668, Note_on_c, 0, 74, 80
2, 40728, Pitch_bend_c, 0, 8208
2, 40736, Pitch_bend_c, 0, 8240
2, 40776, Note_on_c, 0, 74, 0
2, 40824, Pitch_bend_c, 0, 8192
2, 40824, Note_on_c, 0, 73, 99
2, 40844, Pitch_bend_c, 0, 8240
2, 40848, Pitch_bend_c, 0, 8336
2, 40876, Pitch_bend_c, 0, 8928
2, 40888, Pitch_bend_c, 0, 8912
2, 40892, Pitch_bend_c, 0, 8928
2, 40900, Pitch_bend_c, 0, 8912
2, 40924, Note_on_c, 0, 73, 0
2, 40992, Pitch_bend_c, 0, 8192
2, 40996, Note_on_c, 0, 74, 83
2, 41044, Pitch_bend_c, 0, 8208
2, 41052, Pitch_bend_c, 0, 8224
2, 41056, Pitch_bend_c, 0, 8240
2, 41064, Pitch_bend_c, 0, 8256
2, 41068, Note_on_c, 0, 74, 0
2, 41116, Pitch_bend_c, 0, 8192
2, 41116, Note_on_c, 0, 74, 88
2, 41136, Pitch_bend_c, 0, 8208
2, 41144, Pitch_bend_c, 0, 8192
2, 41152, Pitch_bend_c, 0, 8208
2, 41156, Pitch_bend_c, 0, 8224
2, 41192, Pitch_bend_c, 0, 8208
2, 41200, Pitch_bend_c, 0, 8224
2, 41248, Note_on_c, 0, 74, 0
2, 41284, Pitch_bend_c, 0, 8192
2, 41284, Note_on_c, 0, 73, 99
2, 41296, Pitch_bend_c, 0, 8208
2, 41296, Pitch_bend_c, 0, 8224
2, 41300, Pitch_bend_c, 0, 8240
2, 41308, Pitch_bend_c, 0, 8272
2, 41316, Pitch_bend_c, 0, 8288
2, 41316, Pitch_bend_c, 0, 8304
2, 41320, Pitch_bend_c, 0, 8336
2, 41324, Pitch_bend_c, 0, 8368
2, 41328, Pitch_bend_c, 0, 8384
2, 41332, Pitch_bend_c, 0, 8416
2, 41336, Pitch_bend_c, 0, 8448
2, 41340, Pitch_bend_c, 0, 8480
2, 41344, Pitch_bend_c, 0, 8512
2, 41348, Pitch_bend_c, 0, 8560
2, 41348, Pitch_bend_c, 0, 8656
2, 41356, Pitch_bend_c, 0, 8672
2, 41356, Pitch_bend_c, 0, 8688
2, 41364, Pitch_bend_c, 0, 8720
2, 41364, Pitch_bend_c, 0, 8768
2, 41368, Pitch_bend_c, 0, 8800
2, 41372, Pitch_bend_c, 0, 8816
2, 41376, Pitch_bend_c, 0, 8848
2, 41392, Pitch_bend_c, 0, 8864
2, 41400, Note_on_c, 0, 73, 0
2, 41456, Pitch_bend_c, 0, 8192
2, 41456, Note_on_c, 0, 74, 74
2, 41480, Pitch_bend_c, 0, 8144
2, 41484, Pitch_bend_c, 0, 8112
2, 41484, Pitch_bend_c, 0, 8080
2, 41516, Pitch_bend_c, 0, 8096
2, 41524, Pitch_bend_c, 0, 8112
2, 41524, Pitch_bend_c, 0, 8128
2, 41528, Pitch_bend_c, 0, 8144
2, 41536, Pitch_bend_c, 0, 8160
2, 41536, Pitch_bend_c, 0, 8176
2, 41560, Note_on_c, 0, 74, 0
2, 41596, Pitch_bend_c, 0, 8192
2, 41596, Note_on_c, 0, 74, 88
2, 41604, Pitch_bend_c, 0, 8208
2, 41608, Pitch_bend_c, 0, 8224
2, 41664, Pitch_bend_c, 0, 8208
2, 41676, Pitch_bend_c, 0, 8192
2, 41676, Pitch_bend_c, 0, 8176
2, 41696, Pitch_bend_c, 0, 8032
2, 41700, Pitch_bend_c, 0, 7936
2, 41704, Pitch_bend_c, 0, 7856
2, 41704, Pitch_bend_c, 0, 7808
2, 41712, Pitch_bend_c, 0, 7776
2, 41712, Pitch_bend_c, 0, 7728
2, 41728, Pitch_bend_c, 0, 7536
2, 41752, Note_on_c, 0, 74, 0
2, 41764, Pitch_bend_c, 0, 8192
2, 41764, Note_on_c, 0, 73, 97
2, 41772, Pitch_bend_c, 0, 8160
2, 41780, Pitch_bend_c, 0, 8144
2, 41800, Pitch_bend_c, 0, 8160
2, 41804, Pitch_bend_c, 0, 8192
2, 41804, Pitch_bend_c, 0, 8224
2, 41808, Pitch_bend_c, 0, 8256
2, 41816, Pitch_bend_c, 0, 8288
2, 41824, Pitch_bend_c, 0, 8320
2, 41824, Pitch_bend_c, 0, 8352
2, 41832, Pitch_bend_c, 0, 8400
2, 41832, Pitch_bend_c, 0, 8416
2, 41836, Pitch_bend_c, 0, 8464
2, 41844, Pitch_bend_c, 0, 8480
2, 41852, Pitch_bend_c, 0, 8528
2, 41852, Pitch_bend_c, 0, 8560
2, 41852, Pitch_bend_c, 0, 8640
2, 41864, Pitch_bend_c, 0, 8656
2, 41868, Pitch_bend_c, 0, 8672
2, 41872, Pitch_bend_c, 0, 8688
2, 41872, Pitch_bend_c, 0, 8704
2, 41884, Note_on_c, 0, 73, 0
2, 41920, Pitch_bend_c, 0, 8192
2, 41920, Note_on_c, 0, 74, 86
2, 41924, Pitch_bend_c, 0, 8144
2, 41928, Pitch_bend_c, 0, 8112
2, 41948, Pitch_bend_c, 0, 8096
2, 41968, Pitch_bend_c, 0, 8112
2, 41976, Pitch_bend_c, 0, 8128
2, 41980, Pitch_bend_c, 0, 8144
2, 41984, Pitch_bend_c, 0, 8160
2, 41984, Pitch_bend_c, 0, 8192
2, 41992, Pitch_bend_c, 0, 8208
2, 41996, Pitch_bend_c, 0, 8224
2, 42008, Pitch_bend_c, 0, 8208
2, 42032, Note_on_c, 0, 74, 0
2, 42052, Pitch_bend_c, 0, 8192
2, 42052, Note_on_c, 0, 74, 69
2, 42056, Pitch_bend_c, 0, 8208
2, 42096, Pitch_bend_c, 0, 8224
2, 42100, Pitch_bend_c, 0, 8240
2, 42104, Pitch_bend_c, 0, 8256
2, 42148, Pitch_bend_c, 0, 8064
2, 42152, Pitch_bend_c, 0, 7968
2, 42164, Pitch_bend_c, 0, 7840
2, 42164, Pitch_bend_c, 0, 7664
2, 42232, Pitch_bend_c, 0, 7600
2, 42232, Pitch_bend_c, 0, 7552
2, 42232, Pitch_bend_c, 0, 7504
2, 42244, Pitch_bend_c, 0, 7456
2, 42244, Pitch_bend_c, 0, 7440
2, 42252, Pitch_bend_c, 0, 7456
2, 42272, Pitch_bend_c, 0, 7472
2, 42276, Pitch_bend_c, 0, 7504
2, 42320, Pitch_bend_c, 0, 7488
2, 42324, Pitch_bend_c, 0, 7472
2, 42336, Pitch_bend_c, 0, 7504
2, 42344, Pitch_bend_c, 0, 7520
2, 42348, Pitch_bend_c, 0, 7552
2, 42352, Pitch_bend_c, 0, 7568
2, 42356, Pitch_bend_c, 0, 7584
2, 42364, Pitch_bend_c, 0, 7600
2, 42368, Pitch_bend_c, 0, 7616
2, 42388, Pitch_bend_c, 0, 7648
2, 42392, Pitch_bend_c, 0, 7680
2, 42396, Pitch_bend_c, 0, 7712
2, 42404, Pitch_bend_c, 0, 7744
2, 42408, Pitch_bend_c, 0, 7776
2, 42412, Pitch_bend_c, 0, 7808
2, 42420, Pitch_bend_c, 0, 7824
2, 42420, Pitch_bend_c, 0, 7872
2, 42432, Pitch_bend_c, 0, 7888
2, 42444, Pitch_bend_c, 0, 7920
2, 42444, Pitch_bend_c, 0, 7936
2, 42448, Pitch_bend_c, 0, 7952
2, 42452, Pitch_bend_c, 0, 7984
2, 42460, Pitch_bend_c, 0, 8016
2, 42464, Pitch_bend_c, 0, 8032
2, 42468, Pitch_bend_c, 0, 8048
2, 42484, Pitch_bend_c, 0, 8064
2, 42504, Pitch_bend_c, 0, 8080
2, 42512, Pitch_bend_c, 0, 8096
2, 42520, Pitch_bend_c, 0, 8080
2, 42544, Pitch_bend_c, 0, 8064
2, 42544, Pitch_bend_c, 0, 8080
2, 42552, Pitch_bend_c, 0, 8112
2, 42556, Pitch_bend_c, 0, 8096
2, 42568, Pitch_bend_c, 0, 8112
2, 42592, Pitch_bend_c, 0, 8096
2, 42596, Pitch_bend_c, 0, 8112
2, 42600, Pitch_bend_c, 0, 8128
2, 42624, Pitch_bend_c, 0, 8112
2, 42632, Pitch_bend_c, 0, 8096
2, 42656, Pitch_bend_c, 0, 8112
2, 42684, Pitch_bend_c, 0, 8128
2, 42700, Pitch_bend_c, 0, 8144
2, 42740, Pitch_bend_c, 0, 8128
2, 42752, Pitch_bend_c, 0, 8144
2, 42756, Pitch_bend_c, 0, 8112
2, 42756, Pitch_bend_c, 0, 8096
2, 42764, Pitch_bend_c, 0, 8080
2, 42764, Pitch_bend_c, 0, 8096
2, 42804, Pitch_bend_c, 0, 8080
2, 42820, Pitch_bend_c, 0, 8096
2, 42824, Pitch_bend_c, 0, 8064
2, 42844, Pitch_bend_c, 0, 8048
2, 42844, Pitch_bend_c, 0, 8016
2, 42852, Pitch_bend_c, 0, 7984
2, 42852, Pitch_bend_c, 0, 7968
2, 42864, Pitch_bend_c, 0, 7936
2, 42864, Pitch_bend_c, 0, 7888
2, 42872, Pitch_bend_c, 0, 7856
2, 42880, Pitch_bend_c, 0, 7808
2, 42884, Pitch_bend_c, 0, 7776
2, 42884, Pitch_bend_c, 0, 7728
2, 42888, Pitch_bend_c, 0, 7696
2, 42892, Pitch_bend_c, 0, 7616
2, 42896, Pitch_bend_c, 0, 7552
2, 42900, Pitch_bend_c, 0, 7520
2, 42904, Pitch_bend_c, 0, 7472
2, 42908, Pitch_bend_c, 0, 7424
2, 42912, Pitch_bend_c, 0, 7344
2, 42916, Pitch_bend_c, 0, 7280
2, 42932, Pitch_bend_c, 0, 6816
2, 42940, Pitch_bend_c, 0, 6800
2, 42944, Pitch_bend_c, 0, 6768
2, 42952, Pitch_bend_c, 0, 6704
2, 42964, Pitch_bend_c, 0, 6592
2, 42972, Pitch_bend_c, 0, 6464
2, 42972, Pitch_bend_c, 0, 6112
2, 42984, Pitch_bend_c, 0, 6048
2, 42988, Pitch_bend_c, 0, 6016
2, 42992, Pitch_bend_c, 0, 5952
2, 43012, Pitch_bend_c, 0, 5184
2, 43016, Note_on_c, 0, 74, 0
2, 48512, Pitch_bend_c, 0, 8192
2, 48512, Note_on_c, 0, 62, 74
2, 48592, Pitch_bend_c, 0, 8208
2, 48600, Note_on_c, 0, 62, 0
2, 48648, Pitch_bend_c, 0, 8192
2, 48648, Note_on_c, 0, 62, 44
2, 48656, Note_on_c, 0, 62, 0
2, 48668, Pitch_bend_c, 0, 8192
2, 48668, Note_on_c, 0, 62, 81
2, 48756, Note_on_c, 0, 62, 0
2, 48788, Pitch_bend_c, 0, 8192
2, 48788, Note_on_c, 0, 62, 55
2, 48908, Note_on_c, 0, 62, 0
2, 48964, Pitch_bend_c, 0, 8192
2, 48968, Note_on_c, 0, 62, 88
2, 49052, Note_on_c, 0, 62, 0
2, 49088, Pitch_bend_c, 0, 8192
2, 49092, Note_on_c, 0, 62, 74
2, 49212, Note_on_c, 0, 62, 0
2, 49248, Pitch_bend_c, 0, 8192
2, 49248, Note_on_c, 0, 62, 66
2, 49376, Note_on_c, 0, 62, 0
2, 49416, Pitch_bend_c, 0, 8192
2, 49416, Note_on_c, 0, 62, 86
2, 49520, Pitch_bend_c, 0, 8208
2, 49524, Pitch_bend_c, 0, 8224
2, 49544, Note_on_c, 0, 62, 0
2, 49564, Pitch_bend_c, 0, 8192
2, 49564, Note_on_c, 0, 62, 50
2, 49664, Note_on_c, 0, 62, 0
2, 49696, Pitch_bend_c, 0, 8192
2, 49696, Note_on_c, 0, 62, 58
2, 49836, Note_on_c, 0, 62, 0
2, 49876, Pitch_bend_c, 0, 8192
2, 49876, Note_on_c, 0, 59, 61
2, 49880, Pitch_bend_c, 0, 8224
2, 49888, Pitch_bend_c, 0, 10256
2, 50028, Note_on_c, 0, 59, 0
2, 55348, Pitch_bend_c, 0, 8192
2, 55348, Note_on_c, 0, 74, 25
2, 55360, Pitch_bend_c, 0, 8256
2, 55364, Pitch_bend_c, 0, 8288
2, 55368, Pitch_bend_c, 0, 8272
2, 55368, Pitch_bend_c, 0, 8240
2, 55376, Pitch_bend_c, 0, 8224
2, 55376, Pitch_bend_c, 0, 8192
2, 55380, Pitch_bend_c, 0, 8176
2, 55380, Pitch_bend_c, 0, 8192
2, 55388, Pitch_bend_c, 0, 8208
2, 55392, Pitch_bend_c, 0, 8192
2, 55396, Pitch_bend_c, 0, 8160
2, 55400, Pitch_bend_c, 0, 8192
2, 55400, Pitch_bend_c, 0, 8240
2, 55408, Pitch_bend_c, 0, 8224
2, 55408, Pitch_bend_c, 0, 8256
2, 55412, Pitch_bend_c, 0, 8240
2, 55416, Pitch_bend_c, 0, 8224
2, 55420, Pitch_bend_c, 0, 8192
2, 55424, Pitch_bend_c, 0, 8176
2, 55428, Pitch_bend_c, 0, 8144
2, 55428, Pitch_bend_c, 0, 8096
2, 55440, Pitch_bend_c, 0, 8080
2, 55444, Pitch_bend_c, 0, 8064
2, 55448, Pitch_bend_c, 0, 8080
2, 55452, Pitch_bend_c, 0, 8048
2, 55456, Pitch_bend_c, 0, 7968
2, 55460, Pitch_bend_c, 0, 7888
2, 55464, Pitch_bend_c, 0, 7920
2, 55468, Pitch_bend_c, 0, 7984
2, 55472, Pitch_bend_c, 0, 8016
2, 55480, Pitch_bend_c, 0, 8032
2, 55484, Pitch_bend_c, 0, 7984
2, 55488, Pitch_bend_c, 0, 7920
2, 55488, Pitch_bend_c, 0, 7872
2, 55492, Pitch_bend_c, 0, 7824
2, 55500, Pitch_bend_c, 0, 7792
2, 55508, Pitch_bend_c, 0, 7456
2, 55508, Pitch_bend_c, 0, 7472
2, 55516, Pitch_bend_c, 0, 7488
2, 55520, Pitch_bend_c, 0, 7440
2, 55524, Pitch_bend_c, 0, 7408
2, 55528, Pitch_bend_c, 0, 7392
2, 55532, Pitch_bend_c, 0, 7360
2, 55536, Pitch_bend_c, 0, 7344
2, 55540, Pitch_bend_c, 0, 7296
2, 55544, Pitch_bend_c, 0, 7248
2, 55548, Pitch_bend_c, 0, 7232
2, 55548, Pitch_bend_c, 0, 7152
2, 55560, Pitch_bend_c, 0, 7088
2, 55564, Pitch_bend_c, 0, 7056
2, 55568, Pitch_bend_c, 0, 7024
2, 55568, Pitch_bend_c, 0, 6992
2, 55660, Note_on_c, 0, 74, 0
2, 55708, Pitch_bend_c, 0, 8192
2, 55708, Note_on_c, 0, 72, 56
2, 55720, Pitch_bend_c, 0, 8240
2, 55732, Pitch_bend_c, 0, 9184
2, 55744, Pitch_bend_c, 0, 9200
2, 55748, Pitch_bend_c, 0, 9232
2, 55756, Pitch_bend_c, 0, 9280
2, 55756, Pitch_bend_c, 0, 9360
2, 55764, Pitch_bend_c, 0, 9296
2, 55792, Pitch_bend_c, 0, 9344
2, 55800, Note_on_c, 0, 72, 0
2, 55924, Pitch_bend_c, 0, 8192
2, 55928, Note_on_c, 0, 63, 50
2, 55936, Note_on_c, 0, 63, 0
2, 55988, Pitch_bend_c, 0, 8192
2, 55988, Note_on_c, 0, 74, 66
2, 56000, Pitch_bend_c, 0, 8160
2, 56008, Pitch_bend_c, 0, 8144
2, 56012, Pitch_bend_c, 0, 8112
2, 56028, Pitch_bend_c, 0, 8128
2, 56068, Pitch_bend_c, 0, 8032
2, 56072, Pitch_bend_c, 0, 8000
2, 56076, Pitch_bend_c, 0, 8016
2, 56080, Pitch_bend_c, 0, 8000
2, 56100, Pitch_bend_c, 0, 7904
2, 56124, Note_on_c, 0, 74, 0
2, 56124, Pitch_bend_c, 0, 7920
2, 56152, Pitch_bend_c, 0, 8192
2, 56152, Note_on_c, 0, 73, 96
2, 56160, Pitch_bend_c, 0, 8176
2, 56172, Pitch_bend_c, 0, 8208
2, 56172, Pitch_bend_c, 0, 8224
2, 56180, Pitch_bend_c, 0, 8240
2, 56180, Pitch_bend_c, 0, 8272
2, 56184, Pitch_bend_c, 0, 8288
2, 56188, Pitch_bend_c, 0, 8304
2, 56192, Pitch_bend_c, 0, 8336
2, 56196, Pitch_bend_c, 0, 8368
2, 56200, Pitch_bend_c, 0, 8416
2, 56200, Pitch_bend_c, 0, 8448
2, 56208, Pitch_bend_c, 0, 8480
2, 56212, Pitch_bend_c, 0, 8512
2, 56220, Pitch_bend_c, 0, 8544
2, 56220, Pitch_bend_c, 0, 8624
2, 56232, Pitch_bend_c, 0, 8672
2, 56236, Pitch_bend_c, 0, 8736
2, 56240, Pitch_bend_c, 0, 8768
2, 56240, Pitch_bend_c, 0, 8800
2, 56244, Pitch_bend_c, 0, 8816
2, 56248, Pitch_bend_c, 0, 8848
2, 56264, Note_on_c, 0, 73, 0
2, 56312, Pitch_bend_c, 0, 8192
2, 56312, Note_on_c, 0, 74, 81
2, 56320, Pitch_bend_c, 0, 8128
2, 56320, Pitch_bend_c, 0, 8064
2, 56324, Pitch_bend_c, 0, 8032
2, 56328, Pitch_bend_c, 0, 8016
2, 56336, Pitch_bend_c, 0, 8032
2, 56344, Pitch_bend_c, 0, 8048
2, 56368, Pitch_bend_c, 0, 8016
2, 56372, Pitch_bend_c, 0, 8000
2, 56392, Pitch_bend_c, 0, 8016
2, 56400, Note_on_c, 0, 74, 0
2, 56448, Pitch_bend_c, 0, 8192
2, 56448, Note_on_c, 0, 74, 93
2, 56488, Pitch_bend_c, 0, 8208
2, 56516, Pitch_bend_c, 0, 8224
2, 56576, Note_on_c, 0, 74, 0
2, 56608, Pitch_bend_c, 0, 8192
2, 56612, Note_on_c, 0, 73, 99
2, 56628, Pitch_bend_c, 0, 8224
2, 56632, Pitch_bend_c, 0, 8272
2, 56632, Pitch_bend_c, 0, 8304
2, 56636, Pitch_bend_c, 0, 8352
2, 56652, Pitch_bend_c, 0, 8384
2, 56660, Pitch_bend_c, 0, 8448
2, 56668, Pitch_bend_c, 0, 8512
2, 56672, Pitch_bend_c, 0, 8560
2, 56676, Pitch_bend_c, 0, 8656
2, 56676, Pitch_bend_c, 0, 8672
2, 56680, Pitch_bend_c, 0, 8688
2, 56684, Pitch_bend_c, 0, 8704
2, 56688, Pitch_bend_c, 0, 8720
2, 56692, Pitch_bend_c, 0, 8736
2, 56700, Pitch_bend_c, 0, 8752
2, 56708, Pitch_bend_c, 0, 8768
2, 56732, Note_on_c, 0, 73, 0
2, 56784, Pitch_bend_c, 0, 8192
2, 56784, Note_on_c, 0, 74, 89
2, 56796, Pitch_bend_c, 0, 8160
2, 56800, Pitch_bend_c, 0, 8128
2, 56804, Pitch_bend_c, 0, 8112
2, 56808, Pitch_bend_c, 0, 8080
2, 56816, Pitch_bend_c, 0, 8064
2, 56864, Pitch_bend_c, 0, 8080
2, 56868, Note_on_c, 0, 74, 0
2, 56908, Pitch_bend_c, 0, 8192
2, 56908, Note_on_c, 0, 74, 93
2, 56940, Pitch_bend_c, 0, 8208
2, 57020, Pitch_bend_c, 0, 8064
2, 57024, Pitch_bend_c, 0, 8000
2, 57028, Pitch_bend_c, 0, 7936
2, 57048, Note_on_c, 0, 74, 0
2, 57096, Pitch_bend_c, 0, 8192
2, 57096, Note_on_c, 0, 73, 98
2, 57108, Pitch_bend_c, 0, 8208
2, 57116, Pitch_bend_c, 0, 8256
2, 57120, Pitch_bend_c, 0, 8304
2, 57128, Pitch_bend_c, 0, 8352
2, 57132, Pitch_bend_c, 0, 8384
2, 57136, Pitch_bend_c, 0, 8416
2, 57136, Pitch_bend_c, 0, 8448
2, 57140, Pitch_bend_c, 0, 8464
2, 57144, Pitch_bend_c, 0, 8512
2, 57156, Pitch_bend_c, 0, 8560
2, 57160, Pitch_bend_c, 0, 8592
2, 57164, Pitch_bend_c, 0, 8656
2, 57176, Pitch_bend_c, 0, 8672
2, 57196, Pitch_bend_c, 0, 8688
2, 57208, Note_on_c, 0, 73, 0
2, 57252, Pitch_bend_c, 0, 8192
2, 57252, Note_on_c, 0, 74, 94
2, 57324, Pitch_bend_c, 0, 8160
2, 57328, Pitch_bend_c, 0, 8144
2, 57336, Pitch_bend_c, 0, 8160
2, 57348, Note_on_c, 0, 74, 0
2, 57396, Pitch_bend_c, 0, 8192
2, 57396, Note_on_c, 0, 74, 90
2, 57420, Pitch_bend_c, 0, 8208
2, 57424, Pitch_bend_c, 0, 8224
2, 57428, Pitch_bend_c, 0, 8240
2, 57436, Pitch_bend_c, 0, 8256
2, 57448, Pitch_bend_c, 0, 8240
2, 57452, Pitch_bend_c, 0, 8224
2, 57456, Pitch_bend_c, 0, 8208
2, 57480, Pitch_bend_c, 0, 8128
2, 57488, Pitch_bend_c, 0, 8048
2, 57488, Pitch_bend_c, 0, 8000
2, 57500, Pitch_bend_c, 0, 7952
2, 57504, Pitch_bend_c, 0, 7888
2, 57512, Pitch_bend_c, 0, 7824
2, 57516, Pitch_bend_c, 0, 7760
2, 57516, Pitch_bend_c, 0, 7632
2, 57528, Pitch_bend_c, 0, 7600
2, 57556, Pitch_bend_c, 0, 7584
2, 57568, Pitch_bend_c, 0, 7552
2, 57572, Pitch_bend_c, 0, 7520
2, 57576, Pitch_bend_c, 0, 7536
2, 57580, Pitch_bend_c, 0, 7552
2, 57588, Pitch_bend_c, 0, 7568
2, 57648, Pitch_bend_c, 0, 7552
2, 57704, Pitch_bend_c, 0, 7568
2, 57708, Pitch_bend_c, 0, 7584
2, 57744, Pitch_bend_c, 0, 7600
2, 57756, Pitch_bend_c, 0, 7664
2, 57788, Pitch_bend_c, 0, 7696
2, 57788, Pitch_bend_c, 0, 7792
2, 57796, Pitch_bend_c, 0, 8224
2, 57804, Pitch_bend_c, 0, 8208
2, 57812, Pitch_bend_c, 0, 8176
2, 57824, Note_on_c, 0, 74, 0
2, 63412, Pitch_bend_c, 0, 8192
2, 63412, Note_on_c, 0, 71, 50
2, 63432, Pitch_bend_c, 0, 8304
2, 63452, Pitch_bend_c, 0, 8464
2, 63452, Pitch_bend_c, 0, 8800
2, 63460, Pitch_bend_c, 0, 8864
2, 63476, Pitch_bend_c, 0, 9024
2, 63484, Pitch_bend_c, 0, 9184
2, 63484, Pitch_bend_c, 0, 9488
2, 63492, Pitch_bend_c, 0, 9520
2, 63492, Pitch_bend_c, 0, 9584
2, 63496, Pitch_bend_c, 0, 9664
2, 63500, Pitch_bend_c, 0, 9712
2, 63520, Note_on_c, 0, 71, 0
2, 63552, Pitch_bend_c, 0, 8192
2, 63552, Note_on_c, 0, 74, 62
2, 63564, Pitch_bend_c, 0, 8160
2, 63568, Pitch_bend_c, 0, 8112
2, 63572, Pitch_bend_c, 0, 8096
2, 63576, Pitch_bend_c, 0, 8112
2, 63580, Pitch_bend_c, 0, 8128
2, 63592, Pitch_bend_c, 0, 8096
2, 63616, Pitch_bend_c, 0, 8128
2, 63632, Pitch_bend_c, 0, 8144
2, 63648, Note_on_c, 0, 74, 0
2, 63680, Pitch_bend_c, 0, 8192
2, 63680, Note_on_c, 0, 73, 64
2, 63692, Pitch_bend_c, 0, 8320
2, 63708, Pitch_bend_c, 0, 8432
2, 63712, Pitch_bend_c, 0, 8688
2, 63752, Pitch_bend_c, 0, 8752
2, 63752, Pitch_bend_c, 0, 8832
2, 63760, Pitch_bend_c, 0, 8896
2, 63764, Pitch_bend_c, 0, 8928
2, 63772, Pitch_bend_c, 0, 8944
2, 63788, Pitch_bend_c, 0, 8880
2, 63800, Pitch_bend_c, 0, 8784
2, 63804, Pitch_bend_c, 0, 8672
2, 63832, Note_on_c, 0, 73, 0
2, 63868, Pitch_bend_c, 0, 8192
2, 63872, Note_on_c, 0, 73, 98
2, 63888, Pitch_bend_c, 0, 8208
2, 63892, Pitch_bend_c, 0, 8256
2, 63900, Pitch_bend_c, 0, 8288
2, 63904, Pitch_bend_c, 0, 8336
2, 63908, Pitch_bend_c, 0, 8384
2, 63908, Pitch_bend_c, 0, 8416
2, 63912, Pitch_bend_c, 0, 8432
2, 63920, Pitch_bend_c, 0, 8448
2, 63920, Pitch_bend_c, 0, 8464
2, 63928, Pitch_bend_c, 0, 8496
2, 63932, Pitch_bend_c, 0, 8512
2, 63940, Pitch_bend_c, 0, 8544
2, 63944, Pitch_bend_c, 0, 8560
2, 63948, Pitch_bend_c, 0, 8608
2, 63948, Pitch_bend_c, 0, 8720
2, 64000, Note_on_c, 0, 73, 0
2, 64016, Pitch_bend_c, 0, 8192
2, 64016, Note_on_c, 0, 74, 87
2, 64028, Pitch_bend_c, 0, 8096
2, 64040, Pitch_bend_c, 0, 8032
2, 64044, Pitch_bend_c, 0, 8016
2, 64048, Pitch_bend_c, 0, 8000
2, 64048, Pitch_bend_c, 0, 7984
2, 64076, Pitch_bend_c, 0, 8000
2, 64136, Note_on_c, 0, 74, 0
2, 64160, Pitch_bend_c, 0, 8192
2, 64160, Note_on_c, 0, 74, 67
2, 64200, Pitch_bend_c, 0, 8160
2, 64204, Pitch_bend_c, 0, 8144
2, 64204, Pitch_bend_c, 0, 8112
2, 64208, Pitch_bend_c, 0, 8096
2, 64224, Pitch_bend_c, 0, 8080
2, 64264, Pitch_bend_c, 0, 8000
2, 64272, Pitch_bend_c, 0, 7920
2, 64276, Pitch_bend_c, 0, 7856
2, 64280, Note_on_c, 0, 74, 0
2, 64280, Pitch_bend_c, 0, 7808
2, 64328, Pitch_bend_c, 0, 8192
2, 64328, Note_on_c, 0, 73, 74
2, 64344, Pitch_bend_c, 0, 8208
2, 64348, Pitch_bend_c, 0, 8224
2, 64368, Pitch_bend_c, 0, 8272
2, 64368, Pitch_bend_c, 0, 8320
2, 64372, Pitch_bend_c, 0, 8368
2, 64380, Pitch_bend_c, 0, 8448
2, 64380, Pitch_bend_c, 0, 8496
2, 64384, Pitch_bend_c, 0, 8512
2, 64388, Pitch_bend_c, 0, 8528
2, 64404, Pitch_bend_c, 0, 8576
2, 64408, Pitch_bend_c, 0, 8624
2, 64420, Pitch_bend_c, 0, 8640
2, 64440, Pitch_bend_c, 0, 8672
2, 64472, Pitch_bend_c, 0, 8720
2, 64476, Note_on_c, 0, 73, 0
2, 64488, Pitch_bend_c, 0, 8192
2, 64488, Note_on_c, 0, 74, 77
2, 64544, Pitch_bend_c, 0, 8128
2, 64548, Pitch_bend_c, 0, 8080
2, 64556, Pitch_bend_c, 0, 8064
2, 64608, Note_on_c, 0, 74, 0
2, 64628, Pitch_bend_c, 0, 8192
2, 64628, Note_on_c, 0, 74, 70
2, 64644, Pitch_bend_c, 0, 8208
2, 64672, Pitch_bend_c, 0, 8224
2, 64692, Pitch_bend_c, 0, 8128
2, 64696, Pitch_bend_c, 0, 8080
2, 64700, Pitch_bend_c, 0, 8048
2, 64700, Pitch_bend_c, 0, 8000
2, 64712, Pitch_bend_c, 0, 7952
2, 64716, Pitch_bend_c, 0, 7904
2, 64720, Pitch_bend_c, 0, 7856
2, 64728, Pitch_bend_c, 0, 7808
2, 64728, Pitch_bend_c, 0, 7744
2, 64728, Pitch_bend_c, 0, 7632
2, 64740, Note_on_c, 0, 74, 0
2, 64784, Pitch_bend_c, 0, 8192
2, 64784, Note_on_c, 0, 73, 92
2, 64808, Pitch_bend_c, 0, 8224
2, 64808, Pitch_bend_c, 0, 8256
2, 64812, Pitch_bend_c, 0, 8304
2, 64820, Pitch_bend_c, 0, 8336
2, 64824, Pitch_bend_c, 0, 8368
2, 64824, Pitch_bend_c, 0, 8400
2, 64828, Pitch_bend_c, 0, 8432
2, 64832, Pitch_bend_c, 0, 8448
2, 64836, Pitch_bend_c, 0, 8464
2, 64840, Pitch_bend_c, 0, 8512
2, 64840, Pitch_bend_c, 0, 8560
2, 64844, Pitch_bend_c, 0, 8592
2, 64848, Pitch_bend_c, 0, 8656
2, 64852, Pitch_bend_c, 0, 8640
2, 64856, Pitch_bend_c, 0, 8656
2, 64860, Pitch_bend_c, 0, 8672
2, 64876, Pitch_bend_c, 0, 8688
2, 64880, Pitch_bend_c, 0, 8704
2, 64892, Note_on_c, 0, 73, 0
2, 64936, Pitch_bend_c, 0, 8192
2, 64940, Note_on_c, 0, 74, 90
2, 64948, Pitch_bend_c, 0, 8128
2, 64948, Pitch_bend_c, 0, 8096
2, 64952, Pitch_bend_c, 0, 8080
2, 64956, Pitch_bend_c, 0, 8064
2, 64984, Pitch_bend_c, 0, 8048
2, 65052, Note_on_c, 0, 74, 0
2, 65076, Pitch_bend_c, 0, 8192
2, 65076, Note_on_c, 0, 74, 75
2, 65080, Pitch_bend_c, 0, 8176
2, 65088, Pitch_bend_c, 0, 8160
2, 65096, Pitch_bend_c, 0, 8192
2, 65108, Pitch_bend_c, 0, 8208
2, 65108, Pitch_bend_c, 0, 8224
2, 65192, Pitch_bend_c, 0, 7984
2, 65196, Pitch_bend_c, 0, 7680
2, 65204, Pitch_bend_c, 0, 7664
2, 65208, Pitch_bend_c, 0, 7632
2, 65208, Pitch_bend_c, 0, 7600
2, 65212, Pitch_bend_c, 0, 7568
2, 65216, Pitch_bend_c, 0, 7552
2, 65320, Pitch_bend_c, 0, 7520
2, 65320, Pitch_bend_c, 0, 7504
2, 65340, Pitch_bend_c, 0, 7520
2, 65360, Pitch_bend_c, 0, 7536
2, 65376, Pitch_bend_c, 0, 7552
2, 65388, Pitch_bend_c, 0, 7568
2, 65388, Pitch_bend_c, 0, 7600
2, 65396, Pitch_bend_c, 0, 7616
2, 65400, Pitch_bend_c, 0, 7632
2, 65408, Pitch_bend_c, 0, 7648
2, 65412, Pitch_bend_c, 0, 7664
2, 65420, Pitch_bend_c, 0, 7696
2, 65420, Pitch_bend_c, 0, 7712
2, 65428, Pitch_bend_c, 0, 7728
2, 65432, Pitch_bend_c, 0, 7760
2, 65436, Pitch_bend_c, 0, 7792
2, 65440, Pitch_bend_c, 0, 7824
2, 65440, Pitch_bend_c, 0, 7856
2, 65444, Pitch_bend_c, 0, 7920
2, 65460, Pitch_bend_c, 0, 7952
2, 65472, Pitch_bend_c, 0, 7968
2, 65476, Pitch_bend_c, 0, 8000
2, 65484, Pitch_bend_c, 0, 8016
2, 65500, Pitch_bend_c, 0, 8048
2, 65500, Pitch_bend_c, 0, 8064
2, 65508, Pitch_bend_c, 0, 8080
2, 65520, Pitch_bend_c, 0, 8096
2, 65528, Pitch_bend_c, 0, 8112
2, 65548, Pitch_bend_c, 0, 8128
2, 65556, Pitch_bend_c, 0, 8144
2, 65564, Pitch_bend_c, 0, 8160
2, 65580, Pitch_bend_c, 0, 8144
2, 65628, Pitch_bend_c, 0, 8160
2, 65632, Pitch_bend_c, 0, 8144
2, 65660, Pitch_bend_c, 0, 8128
2, 65680, Pitch_bend_c, 0, 8144
2, 65708, Pitch_bend_c, 0, 8128
2, 65708, Pitch_bend_c, 0, 8112
2, 65720, Pitch_bend_c, 0, 8096
2, 65720, Pitch_bend_c, 0, 8080
2, 65728, Pitch_bend_c, 0, 8064
2, 65728, Pitch_bend_c, 0, 8032
2, 65736, Pitch_bend_c, 0, 8016
2, 65748, Pitch_bend_c, 0, 7984
2, 65748, Pitch_bend_c, 0, 7952
2, 65752, Pitch_bend_c, 0, 7920
2, 65764, Pitch_bend_c, 0, 7856
2, 65768, Pitch_bend_c, 0, 7808
2, 65768, Pitch_bend_c, 0, 7680
2, 65788, Pitch_bend_c, 0, 7600
2, 65800, Pitch_bend_c, 0, 7488
2, 65812, Pitch_bend_c, 0, 7344
2, 65832, Pitch_bend_c, 0, 6752
2, 65852, Pitch_bend_c, 0, 6176
2, 65868, Pitch_bend_c, 0, 6128
2, 65868, Pitch_bend_c, 0, 6032
2, 65888, Note_on_c, 0, 74, 0
2, 65940, Pitch_bend_c, 0, 8192
2, 65940, Note_on_c, 0, 68, 25
2, 65948, Note_on_c, 0, 68, 0
2, 71340, Pitch_bend_c, 0, 8192
2, 71344, Note_on_c, 0, 62, 99
2, 71424, Pitch_bend_c, 0, 8208
2, 71444, Note_on_c, 0, 62, 0
2, 71484, Pitch_bend_c, 0, 8192
2, 71484, Note_on_c, 0, 62, 92
2, 71572, Note_on_c, 0, 62, 0
2, 71644, Pitch_bend_c, 0, 8192
2, 71644, Note_on_c, 0, 62, 55
2, 71740, Note_on_c, 0, 62, 0
2, 71784, Pitch_bend_c, 0, 8192
2, 71784, Note_on_c, 0, 62, 90
2, 71916, Note_on_c, 0, 62, 0
2, 71964, Pitch_bend_c, 0, 8192
2, 71964, Note_on_c, 0, 62, 92
2, 72060, Pitch_bend_c, 0, 8208
2, 72060, Pitch_bend_c, 0, 8224
2, 72080, Note_on_c, 0, 62, 0
2, 72132, Pitch_bend_c, 0, 8192
2, 72132, Note_on_c, 0, 62, 59
2, 72200, Note_on_c, 0, 62, 0
2, 72260, Pitch_bend_c, 0, 8192
2, 72260, Note_on_c, 0, 62, 62
2, 72392, Note_on_c, 0, 62, 0
2, 72428, Pitch_bend_c, 0, 8192
2, 72428, Note_on_c, 0, 62, 86
2, 72512, Pitch_bend_c, 0, 8208
2, 72520, Note_on_c, 0, 62, 0
2, 72580, Pitch_bend_c, 0, 8192
2, 72580, Note_on_c, 0, 62, 70
2, 72696, Note_on_c, 0, 62, 0
2, 72744, Pitch_bend_c, 0, 8192
2, 72748, Note_on_c, 0, 62, 74
2, 72856, Note_on_c, 0, 62, 0
2, 72904, Pitch_bend_c, 0, 8192
2, 72904, Note_on_c, 0, 62, 93
2, 73032, Note_on_c, 0, 62, 0
2, 78792, Pitch_bend_c, 0, 8192
2, 78792, Note_on_c, 0, 73, 97
2, 78812, Pitch_bend_c, 0, 8224
2, 78816, Pitch_bend_c, 0, 8240
2, 78820, Pitch_bend_c, 0, 8272
2, 78824, Pitch_bend_c, 0, 8288
2, 78824, Pitch_bend_c, 0, 8320
2, 78832, Pitch_bend_c, 0, 8352
2, 78832, Pitch_bend_c, 0, 8368
2, 78840, Pitch_bend_c, 0, 8384
2, 78840, Pitch_bend_c, 0, 8400
2, 78844, Pitch_bend_c, 0, 8432
2, 78848, Pitch_bend_c, 0, 8448
2, 78852, Pitch_bend_c, 0, 8464
2, 78864, Pitch_bend_c, 0, 8480
2, 78868, Pitch_bend_c, 0, 8464
2, 78900, Note_on_c, 0, 73, 0
2, 78932, Pitch_bend_c, 0, 8192
2, 78932, Note_on_c, 0, 74, 59
2, 78940, Pitch_bend_c, 0, 8144
2, 78944, Pitch_bend_c, 0, 8080
2, 78944, Pitch_bend_c, 0, 7984
2, 78952, Pitch_bend_c, 0, 7952
2, 78956, Pitch_bend_c, 0, 7936
2, 78968, Pitch_bend_c, 0, 7952
2, 78984, Pitch_bend_c, 0, 7968
2, 78988, Pitch_bend_c, 0, 7984
2, 79004, Pitch_bend_c, 0, 7936
2, 79008, Pitch_bend_c, 0, 7888
2, 79012, Pitch_bend_c, 0, 7856
2, 79020, Pitch_bend_c, 0, 7904
2, 79032, Note_on_c, 0, 74, 0
2, 79064, Pitch_bend_c, 0, 8192
2, 79064, Note_on_c, 0, 74, 64
2, 79072, Pitch_bend_c, 0, 8160
2, 79076, Pitch_bend_c, 0, 8144
2, 79080, Pitch_bend_c, 0, 8112
2, 79084, Pitch_bend_c, 0, 8128
2, 79088, Pitch_bend_c, 0, 8160
2, 79092, Pitch_bend_c, 0, 8208
2, 79092, Pitch_bend_c, 0, 8240
2, 79112, Pitch_bend_c, 0, 8256
2, 79116, Pitch_bend_c, 0, 8272
2, 79168, Pitch_bend_c, 0, 8048
2, 79176, Pitch_bend_c, 0, 7920
2, 79184, Pitch_bend_c, 0, 7840
2, 79192, Pitch_bend_c, 0, 7664
2, 79200, Note_on_c, 0, 74, 0
2, 79232, Pitch_bend_c, 0, 8192
2, 79232, Note_on_c, 0, 69, 96
2, 79256, Pitch_bend_c, 0, 11024
2, 79260, Pitch_bend_c, 0, 11056
2, 79264, Pitch_bend_c, 0, 11088
2, 79272, Pitch_bend_c, 0, 11120
2, 79272, Pitch_bend_c, 0, 11168
2, 79280, Pitch_bend_c, 0, 11200
2, 79284, Pitch_bend_c, 0, 11248
2, 79284, Pitch_bend_c, 0, 11344
2, 79284, Pitch_bend_c, 0, 11392
2, 79292, Pitch_bend_c, 0, 11456
2, 79292, Pitch_bend_c, 0, 11520
2, 79296, Pitch_bend_c, 0, 11584
2, 79304, Pitch_bend_c, 0, 11600
2, 79308, Pitch_bend_c, 0, 11632
2, 79312, Pitch_bend_c, 0, 11648
2, 79348, Note_on_c, 0, 69, 0
2, 79388, Pitch_bend_c, 0, 8192
2, 79388, Note_on_c, 0, 74, 80
2, 79392, Pitch_bend_c, 0, 8128
2, 79396, Pitch_bend_c, 0, 8080
2, 79400, Pitch_bend_c, 0, 8032
2, 79404, Pitch_bend_c, 0, 8000
2, 79408, Pitch_bend_c, 0, 7984
2, 79408, Pitch_bend_c, 0, 8048
2, 79412, Pitch_bend_c, 0, 8080
2, 79424, Pitch_bend_c, 0, 8128
2, 79424, Pitch_bend_c, 0, 8144
2, 79432, Pitch_bend_c, 0, 8160
2, 79444, Pitch_bend_c, 0, 8176
2, 79448, Pitch_bend_c, 0, 8192
2, 79456, Pitch_bend_c, 0, 8208
2, 79460, Pitch_bend_c, 0, 8224
2, 79464, Pitch_bend_c, 0, 8256
2, 79480, Pitch_bend_c, 0, 8224
2, 79484, Pitch_bend_c, 0, 8240
2, 79512, Note_on_c, 0, 74, 0
2, 79532, Pitch_bend_c, 0, 8192
2, 79532, Note_on_c, 0, 74, 86
2, 79548, Pitch_bend_c, 0, 8208
2, 79552, Pitch_bend_c, 0, 8224
2, 79556, Pitch_bend_c, 0, 8240
2, 79604, Pitch_bend_c, 0, 8208
2, 79604, Pitch_bend_c, 0, 8192
2, 79612, Pitch_bend_c, 0, 8176
2, 79612, Pitch_bend_c, 0, 8128
2, 79616, Pitch_bend_c, 0, 8048
2, 79620, Pitch_bend_c, 0, 8000
2, 79624, Pitch_bend_c, 0, 7968
2, 79632, Pitch_bend_c, 0, 7888
2, 79632, Pitch_bend_c, 0, 7824
2, 79636, Pitch_bend_c, 0, 7792
2, 79640, Pitch_bend_c, 0, 7744
2, 79664, Note_on_c, 0, 74, 0
2, 79692, Pitch_bend_c, 0, 8192
2, 79696, Note_on_c, 0, 73, 98
2, 79704, Pitch_bend_c, 0, 8208
2, 79704, Pitch_bend_c, 0, 8256
2, 79708, Pitch_bend_c, 0, 8288
2, 79712, Pitch_bend_c, 0, 8320
2, 79712, Pitch_bend_c, 0, 8352
2, 79716, Pitch_bend_c, 0, 8400
2, 79720, Pitch_bend_c, 0, 8416
2, 79724, Pitch_bend_c, 0, 8448
2, 79728, Pitch_bend_c, 0, 8464
2, 79732, Pitch_bend_c, 0, 8496
2, 79732, Pitch_bend_c, 0, 8528
2, 79736, Pitch_bend_c, 0, 8576
2, 79736, Pitch_bend_c, 0, 8688
2, 79744, Pitch_bend_c, 0, 8704
2, 79744, Pitch_bend_c, 0, 8720
2, 79752, Pitch_bend_c, 0, 8736
2, 79752, Pitch_bend_c, 0, 8768
2, 79756, Pitch_bend_c, 0, 8800
2, 79760, Pitch_bend_c, 0, 8816
2, 79764, Pitch_bend_c, 0, 8848
2, 79764, Pitch_bend_c, 0, 8864
2, 79768, Pitch_bend_c, 0, 8880
2, 79800, Note_on_c, 0, 73, 0
2, 79852, Pitch_bend_c, 0, 8192
2, 79852, Note_on_c, 0, 73, 92
2, 79852, Pitch_bend_c, 0, 8272
2, 79860, Pitch_bend_c, 0, 8384
2, 79860, Pitch_bend_c, 0, 8464
2, 79864, Pitch_bend_c, 0, 8640
2, 79864, Pitch_bend_c, 0, 8656
2, 79872, Pitch_bend_c, 0, 8672
2, 79900, Pitch_bend_c, 0, 8704
2, 79908, Pitch_bend_c, 0, 8736
2, 79912, Pitch_bend_c, 0, 8784
2, 79916, Pitch_bend_c, 0, 8816
2, 79924, Pitch_bend_c, 0, 8848
2, 79924, Pitch_bend_c, 0, 8880
2, 79932, Pitch_bend_c, 0, 8896
2, 79944, Note_on_c, 0, 73, 0
2, 79984, Pitch_bend_c, 0, 8192
2, 79988, Note_on_c, 0, 74, 94
2, 80012, Pitch_bend_c, 0, 8208
2, 80020, Pitch_bend_c, 0, 8224
2, 80048, Pitch_bend_c, 0, 8208
2, 80052, Pitch_bend_c, 0, 8224
2, 80056, Pitch_bend_c, 0, 8240
2, 80068, Pitch_bend_c, 0, 8224
2, 80084, Pitch_bend_c, 0, 8096
2, 80084, Pitch_bend_c, 0, 8000
2, 80088, Pitch_bend_c, 0, 7936
2, 80092, Pitch_bend_c, 0, 7872
2, 80136, Note_on_c, 0, 74, 0
2, 80152, Pitch_bend_c, 0, 8192
2, 80152, Note_on_c, 0, 73, 98
2, 80156, Pitch_bend_c, 0, 8176
2, 80164, Pitch_bend_c, 0, 8160
2, 80168, Pitch_bend_c, 0, 8192
2, 80172, Pitch_bend_c, 0, 8208
2, 80176, Pitch_bend_c, 0, 8224
2, 80176, Pitch_bend_c, 0, 8240
2, 80184, Pitch_bend_c, 0, 8272
2, 80184, Pitch_bend_c, 0, 8288
2, 80188, Pitch_bend_c, 0, 8304
2, 80192, Pitch_bend_c, 0, 8336
2, 80196, Pitch_bend_c, 0, 8352
2, 80196, Pitch_bend_c, 0, 8368
2, 80200, Pitch_bend_c, 0, 8384
2, 80208, Pitch_bend_c, 0, 8416
2, 80212, Pitch_bend_c, 0, 8448
2, 80212, Pitch_bend_c, 0, 8480
2, 80216, Pitch_bend_c, 0, 8544
2, 80220, Pitch_bend_c, 0, 8608
2, 80220, Pitch_bend_c, 0, 8768
2, 80232, Pitch_bend_c, 0, 8784
2, 80236, Pitch_bend_c, 0, 8816
2, 80240, Pitch_bend_c, 0, 8848
2, 80248, Pitch_bend_c, 0, 8864
2, 80252, Pitch_bend_c, 0, 8880
2, 80256, Pitch_bend_c, 0, 8896
2, 80272, Note_on_c, 0, 73, 0
2, 80304, Pitch_bend_c, 0, 8192
2, 80304, Note_on_c, 0, 74, 88
2, 80312, Pitch_bend_c, 0, 8128
2, 80316, Pitch_bend_c, 0, 8080
2, 80324, Pitch_bend_c, 0, 8048
2, 80332, Pitch_bend_c, 0, 8032
2, 80340, Pitch_bend_c, 0, 8016
2, 80356, Pitch_bend_c, 0, 8000
2, 80376, Pitch_bend_c, 0, 7984
2, 80384, Pitch_bend_c, 0, 8016
2, 80388, Pitch_bend_c, 0, 8048
2, 80392, Pitch_bend_c, 0, 8096
2, 80396, Pitch_bend_c, 0, 8144
2, 80400, Note_on_c, 0, 74, 0
2, 80440, Pitch_bend_c, 0, 8192
2, 80440, Note_on_c, 0, 74, 87
2, 80480, Pitch_bend_c, 0, 8208
2, 80484, Pitch_bend_c, 0, 8224
2, 80540, Pitch_bend_c, 0, 7712
2, 80544, Pitch_bend_c, 0, 7696
2, 80560, Pitch_bend_c, 0, 7648
2, 80592, Pitch_bend_c, 0, 7568
2, 80632, Pitch_bend_c, 0, 7456
2, 80636, Pitch_bend_c, 0, 7392
2, 80640, Pitch_bend_c, 0, 7376
2, 80660, Pitch_bend_c, 0, 7360
2, 80752, Pitch_bend_c, 0, 7408
2, 80800, Pitch_bend_c, 0, 7472
2, 80820, Pitch_bend_c, 0, 7552
2, 80852, Pitch_bend_c, 0, 7648
2, 80872, Pitch_bend_c, 0, 7744
2, 80876, Pitch_bend_c, 0, 7824
2, 80876, Pitch_bend_c, 0, 7984
2, 80900, Pitch_bend_c, 0, 8000
2, 80904, Pitch_bend_c, 0, 8016
2, 80972, Pitch_bend_c, 0, 8032
2, 81052, Pitch_bend_c, 0, 8016
2, 81104, Pitch_bend_c, 0, 7984
2, 81112, Pitch_bend_c, 0, 7968
2, 81116, Pitch_bend_c, 0, 7952
2, 81120, Pitch_bend_c, 0, 7920
2, 81120, Pitch_bend_c, 0, 7904
2, 81172, Pitch_bend_c, 0, 7520
2, 81176, Pitch_bend_c, 0, 7472
2, 81192, Pitch_bend_c, 0, 7376
2, 81192, Pitch_bend_c, 0, 7248
2, 81200, Pitch_bend_c, 0, 7120
2, 81200, Pitch_bend_c, 0, 6880
2, 81204, Pitch_bend_c, 0, 6832
2, 81216, Pitch_bend_c, 0, 6752
2, 81232, Pitch_bend_c, 0, 6592
2, 81256, Pitch_bend_c, 0, 5552
2, 81272, Pitch_bend_c, 0, 5456
2, 81272, Pitch_bend_c, 0, 5360
2, 81280, Pitch_bend_c, 0, 5216
2, 81284, Pitch_bend_c, 0, 4816
2, 81292, Pitch_bend_c, 0, 4768
2, 81296, Pitch_bend_c, 0, 4704
2, 81304, Pitch_bend_c, 0, 4560
2, 81332, Note_on_c, 0, 74, 0
2, 86420, Pitch_bend_c, 0, 8192
2, 86424, Note_on_c, 0, 73, 74
2, 86432, Pitch_bend_c, 0, 8176
2, 86436, Pitch_bend_c, 0, 8192
2, 86436, Pitch_bend_c, 0, 8224
2, 86440, Pitch_bend_c, 0, 8256
2, 86444, Pitch_bend_c, 0, 8304
2, 86448, Pitch_bend_c, 0, 8336
2, 86452, Pitch_bend_c, 0, 8368
2, 86456, Pitch_bend_c, 0, 8416
2, 86456, Pitch_bend_c, 0, 8480
2, 86468, Pitch_bend_c, 0, 8576
2, 86472, Pitch_bend_c, 0, 8928
2, 86496, Pitch_bend_c, 0, 8880
2, 86504, Pitch_bend_c, 0, 8848
2, 86508, Pitch_bend_c, 0, 8864
2, 86508, Pitch_bend_c, 0, 8880
2, 86512, Pitch_bend_c, 0, 8912
2, 86516, Pitch_bend_c, 0, 8928
2, 86556, Note_on_c, 0, 73, 0
2, 86724, Pitch_bend_c, 0, 8192
2, 86724, Note_on_c, 0, 74, 88
2, 86732, Pitch_bend_c, 0, 8208
2, 86736, Pitch_bend_c, 0, 8224
2, 86740, Pitch_bend_c, 0, 8240
2, 86752, Pitch_bend_c, 0, 8224
2, 86840, Pitch_bend_c, 0, 7968
2, 86840, Pitch_bend_c, 0, 7680
2, 86844, Pitch_bend_c, 0, 7648
2, 86844, Pitch_bend_c, 0, 7616
2, 86864, Pitch_bend_c, 0, 7600
2, 86896, Pitch_bend_c, 0, 7568
2, 86896, Pitch_bend_c, 0, 7536
2, 86908, Pitch_bend_c, 0, 7552
2, 86920, Pitch_bend_c, 0, 7584
2, 86924, Pitch_bend_c, 0, 7616
2, 86932, Pitch_bend_c, 0, 7632
2, 86936, Pitch_bend_c, 0, 7680
2, 86940, Pitch_bend_c, 0, 7728
2, 86944, Pitch_bend_c, 0, 7760
2, 86944, Pitch_bend_c, 0, 7808
2, 86948, Pitch_bend_c, 0, 7840
2, 86952, Pitch_bend_c, 0, 7920
2, 86960, Pitch_bend_c, 0, 7936
2, 86964, Pitch_bend_c, 0, 7968
2, 86968, Pitch_bend_c, 0, 8016
2, 86976, Pitch_bend_c, 0, 8064
2, 86980, Pitch_bend_c, 0, 8096
2, 86984, Pitch_bend_c, 0, 8112
2, 86992, Pitch_bend_c, 0, 8144
2, 86996, Pitch_bend_c, 0, 8160
2, 87008, Note_on_c, 0, 74, 0
2, 87056, Pitch_bend_c, 0, 8192
2, 87056, Note_on_c, 0, 74, 81
2, 87060, Pitch_bend_c, 0, 8208
2, 87092, Pitch_bend_c, 0, 8144
2, 87096, Pitch_bend_c, 0, 8112
2, 87096, Pitch_bend_c, 0, 8080
2, 87104, Pitch_bend_c, 0, 8096
2, 87136, Pitch_bend_c, 0, 8080
2, 87148, Pitch_bend_c, 0, 8096
2, 87156, Note_on_c, 0, 74, 0
2, 87200, Pitch_bend_c, 0, 8192
2, 87204, Note_on_c, 0, 74, 77
2, 87220, Pitch_bend_c, 0, 8208
2, 87304, Pitch_bend_c, 0, 8032
2, 87304, Pitch_bend_c, 0, 7920
2, 87308, Pitch_bend_c, 0, 7840
2, 87320, Note_on_c, 0, 74, 0
2, 87356, Pitch_bend_c, 0, 8192
2, 87356, Note_on_c, 0, 73, 98
2, 87364, Pitch_bend_c, 0, 8208
2, 87364, Pitch_bend_c, 0, 8240
2, 87368, Pitch_bend_c, 0, 8256
2, 87372, Pitch_bend_c, 0, 8272
2, 87376, Pitch_bend_c, 0, 8288
2, 87380, Pitch_bend_c, 0, 8304
2, 87384, Pitch_bend_c, 0, 8320
2, 87384, Pitch_bend_c, 0, 8352
2, 87392, Pitch_bend_c, 0, 8368
2, 87396, Pitch_bend_c, 0, 8384
2, 87396, Pitch_bend_c, 0, 8400
2, 87400, Pitch_bend_c, 0, 8416
2, 87404, Pitch_bend_c, 0, 8432
2, 87404, Pitch_bend_c, 0, 8448
2, 87408, Pitch_bend_c, 0, 8480
2, 87416, Pitch_bend_c, 0, 8496
2, 87416, Pitch_bend_c, 0, 8512
2, 87428, Pitch_bend_c, 0, 8528
2, 87432, Pitch_bend_c, 0, 8560
2, 87432, Pitch_bend_c, 0, 8640
2, 87444, Pitch_bend_c, 0, 8656
2, 87456, Pitch_bend_c, 0, 8672
2, 87456, Pitch_bend_c, 0, 8688
2, 87464, Pitch_bend_c, 0, 8704
2, 87476, Note_on_c, 0, 73, 0
2, 87520, Pitch_bend_c, 0, 8192
2, 87524, Note_on_c, 0, 74, 72
2, 87536, Pitch_bend_c, 0, 8128
2, 87540, Pitch_bend_c, 0, 8064
2, 87544, Pitch_bend_c, 0, 8048
2, 87548, Pitch_bend_c, 0, 8064
2, 87556, Pitch_bend_c, 0, 8080
2, 87584, Pitch_bend_c, 0, 8048
2, 87592, Pitch_bend_c, 0, 8080
2, 87596, Pitch_bend_c, 0, 8096
2, 87596, Pitch_bend_c, 0, 8112
2, 87600, Pitch_bend_c, 0, 8128
2, 87604, Pitch_bend_c, 0, 8144
2, 87612, Pitch_bend_c, 0, 8160
2, 87616, Pitch_bend_c, 0, 8176
2, 87632, Note_on_c, 0, 74, 0
2, 87656, Pitch_bend_c, 0, 8192
2, 87656, Note_on_c, 0, 74, 78
2, 87672, Pitch_bend_c, 0, 8208
2, 87676, Pitch_bend_c, 0, 8224
2, 87756, Pitch_bend_c, 0, 8032
2, 87796, Pitch_bend_c, 0, 7856
2, 87796, Pitch_bend_c, 0, 7600
2, 87804, Note_on_c, 0, 74, 0
2, 87832, Pitch_bend_c, 0, 8192
2, 87832, Note_on_c, 0, 73, 89
2, 87852, Pitch_bend_c, 0, 8208
2, 87852, Pitch_bend_c, 0, 8240
2, 87860, Pitch_bend_c, 0, 8272
2, 87864, Pitch_bend_c, 0, 8304
2, 87864, Pitch_bend_c, 0, 8320
2, 87868, Pitch_bend_c, 0, 8352
2, 87872, Pitch_bend_c, 0, 8384
2, 87876, Pitch_bend_c, 0, 8400
2, 87880, Pitch_bend_c, 0, 8432
2, 87884, Pitch_bend_c, 0, 8464
2, 87888, Pitch_bend_c, 0, 8496
2, 87892, Pitch_bend_c, 0, 8528
2, 87896, Pitch_bend_c, 0, 8560
2, 87900, Pitch_bend_c, 0, 8592
2, 87908, Pitch_bend_c, 0, 8624
2, 87912, Pitch_bend_c, 0, 8640
2, 87912, Pitch_bend_c, 0, 8656
2, 87916, Pitch_bend_c, 0, 8688
2, 87924, Pitch_bend_c, 0, 8704
2, 87924, Pitch_bend_c, 0, 8720
2, 87928, Pitch_bend_c, 0, 8736
2, 87932, Pitch_bend_c, 0, 8752
2, 87936, Pitch_bend_c, 0, 8768
2, 87952, Note_on_c, 0, 73, 0
2, 87984, Pitch_bend_c, 0, 8192
2, 87984, Note_on_c, 0, 74, 85
2, 87988, Pitch_bend_c, 0, 8160
2, 87988, Pitch_bend_c, 0, 8128
2, 88072, Pitch_bend_c, 0, 8144
2, 88084, Note_on_c, 0, 74, 0
2, 88124, Pitch_bend_c, 0, 8192
2, 88124, Note_on_c, 0, 74, 72
2, 88216, Pitch_bend_c, 0, 8048
2, 88244, Pitch_bend_c, 0, 7712
2, 88244, Pitch_bend_c, 0, 7696
2, 88252, Pitch_bend_c, 0, 7680
2, 88252, Pitch_bend_c, 0, 7648
2, 88312, Pitch_bend_c, 0, 7584
2, 88316, Pitch_bend_c, 0, 7552
2, 88320, Pitch_bend_c, 0, 7520
2, 88324, Pitch_bend_c, 0, 7504
2, 88332, Pitch_bend_c, 0, 7520
2, 88352, Pitch_bend_c, 0, 7504
2, 88356, Pitch_bend_c, 0, 7520
2, 88360, Pitch_bend_c, 0, 7536
2, 88372, Pitch_bend_c, 0, 7520
2, 88392, Pitch_bend_c, 0, 7536
2, 88412, Pitch_bend_c, 0, 7552
2, 88424, Pitch_bend_c, 0, 7568
2, 88472, Pitch_bend_c, 0, 7648
2, 88504, Pitch_bend_c, 0, 7744
2, 88544, Note_on_c, 0, 74, 0
2, 94416, Pitch_bend_c, 0, 8192
2, 94416, Note_on_c, 0, 62, 83
2, 94512, Note_on_c, 0, 62, 0
2, 94568, Pitch_bend_c, 0, 8192
2, 94568, Note_on_c, 0, 62, 87
2, 94668, Note_on_c, 0, 62, 0
2, 94708, Pitch_bend_c, 0, 8192
2, 94708, Note_on_c, 0, 62, 56
2, 94808, Note_on_c, 0, 62, 0
2, 94852, Pitch_bend_c, 0, 8192
2, 94852, Note_on_c, 0, 62, 69
2, 94972, Note_on_c, 0, 62, 0
2, 95020, Pitch_bend_c, 0, 8192
2, 95020, Note_on_c, 0, 62, 92
2, 95116, Pitch_bend_c, 0, 8208
2, 95124, Note_on_c, 0, 62, 0
2, 95164, Pitch_bend_c, 0, 8192
2, 95164, Note_on_c, 0, 62, 62
2, 95268, Note_on_c, 0, 62, 0
2, 95320, Pitch_bend_c, 0, 8192
2, 95320, Note_on_c, 0, 62, 55
2, 95324, Pitch_bend_c, 0, 8176
2, 95432, Note_on_c, 0, 62, 0
2, 95492, Pitch_bend_c, 0, 8192
2, 95496, Note_on_c, 0, 62, 67
2, 95568, Note_on_c, 0, 62, 0
2, 95612, Pitch_bend_c, 0, 8192
2, 95612, Note_on_c, 0, 62, 53
2, 95616, Pitch_bend_c, 0, 8176
2, 95716, Note_on_c, 0, 62, 0
2, 95764, Pitch_bend_c, 0, 8192
2, 95764, Note_on_c, 0, 62, 64
2, 95872, Note_on_c, 0, 62, 0
2, 95908, Pitch_bend_c, 0, 8192
2, 95912, Note_on_c, 0, 62, 83
2, 96072, Note_on_c, 0, 62, 0
2, 97884, Pitch_bend_c, 0, 8192
2, 97884, Note_on_c, 0, 65, 110
2, 97904, Pitch_bend_c, 0, 8176
2, 97948, Pitch_bend_c, 0, 8160
2, 98040, Note_on_c, 0, 65, 0
2, 99776, Pitch_bend_c, 0, 8192
2, 99780, Note_on_c, 0, 65, 108
2, 99792, Pitch_bend_c, 0, 8208
2, 99800, Pitch_bend_c, 0, 8224
2, 99812, Pitch_bend_c, 0, 8240
2, 99960, Pitch_bend_c, 0, 8224
2, 100012, Note_on_c, 0, 65, 0
2, 100284, Pitch_bend_c, 0, 8192
2, 100284, Note_on_c, 0, 67, 108
2, 100288, Pitch_bend_c, 0, 8224
2, 100292, Pitch_bend_c, 0, 8272
2, 100296, Pitch_bend_c, 0, 8320
2, 100304, Pitch_bend_c, 0, 8336
2, 100304, Pitch_bend_c, 0, 8352
2, 100308, Pitch_bend_c, 0, 8368
2, 100516, Pitch_bend_c, 0, 8352
2, 100528, Pitch_bend_c, 0, 8336
2, 100536, Pitch_bend_c, 0, 8320
2, 100544, Pitch_bend_c, 0, 8304
2, 100560, Pitch_bend_c, 0, 8272
2, 100564, Pitch_bend_c, 0, 8256
2, 100576, Pitch_bend_c, 0, 8192
2, 100580, Pitch_bend_c, 0, 8160
2, 100584, Pitch_bend_c, 0, 8128
2, 100588, Pitch_bend_c, 0, 8112
2, 100600, Pitch_bend_c, 0, 8048
2, 100600, Pitch_bend_c, 0, 8000
2, 100604, Pitch_bend_c, 0, 7968
2, 100616, Pitch_bend_c, 0, 7904
2, 100620, Pitch_bend_c, 0, 7856
2, 100620, Pitch_bend_c, 0, 7808
2, 100624, Pitch_bend_c, 0, 7776
2, 100628, Pitch_bend_c, 0, 7712
2, 100632, Pitch_bend_c, 0, 7696
2, 100636, Pitch_bend_c, 0, 7664
2, 100644, Pitch_bend_c, 0, 7616
2, 100648, Pitch_bend_c, 0, 7568
2, 100648, Pitch_bend_c, 0, 7536
2, 100652, Pitch_bend_c, 0, 7504
2, 100656, Pitch_bend_c, 0, 7456
2, 100660, Pitch_bend_c, 0, 7424
2, 100672, Pitch_bend_c, 0, 7360
2, 100676, Pitch_bend_c, 0, 7312
2, 100688, Pitch_bend_c, 0, 7232
2, 100700, Pitch_bend_c, 0, 7040
2, 100708, Pitch_bend_c, 0, 7024
2, 100708, Pitch_bend_c, 0, 7008
2, 100712, Pitch_bend_c, 0, 6992
2, 100716, Pitch_bend_c, 0, 6976
2, 100720, Note_on_c, 0, 67, 0
2, 100800, Pitch_bend_c, 0, 8192
2, 100800, Note_on_c, 0, 65, 108
2, 100816, Pitch_bend_c, 0, 8176
2, 100820, Pitch_bend_c, 0, 8160
2, 100840, Pitch_bend_c, 0, 8176
2, 100852, Pitch_bend_c, 0, 8192
2, 100860, Pitch_bend_c, 0, 8208
2, 101024, Pitch_bend_c, 0, 8224
2, 101024, Pitch_bend_c, 0, 8256
2, 101028, Pitch_bend_c, 0, 8272
2, 101032, Pitch_bend_c, 0, 8288
2, 101032, Pitch_bend_c, 0, 8304
2, 101040, Note_on_c, 0, 65, 0
2, 101132, Pitch_bend_c, 0, 8192
2, 101132, Note_on_c, 0, 66, 64
2, 101140, Pitch_bend_c, 0, 8128
2, 101140, Pitch_bend_c, 0, 8064
2, 101144, Pitch_bend_c, 0, 8032
2, 101152, Pitch_bend_c, 0, 8048
2, 101160, Pitch_bend_c, 0, 8064
2, 101164, Pitch_bend_c, 0, 8096
2, 101168, Pitch_bend_c, 0, 8128
2, 101168, Pitch_bend_c, 0, 8160
2, 101172, Pitch_bend_c, 0, 8192
2, 101180, Pitch_bend_c, 0, 8224
2, 101184, Pitch_bend_c, 0, 8272
2, 101184, Pitch_bend_c, 0, 8304
2, 101188, Pitch_bend_c, 0, 8336
2, 101192, Pitch_bend_c, 0, 8368
2, 101196, Pitch_bend_c, 0, 8416
2, 101196, Pitch_bend_c, 0, 8448
2, 101200, Pitch_bend_c, 0, 8480
2, 101204, Pitch_bend_c, 0, 8512
2, 101208, Pitch_bend_c, 0, 8528
2, 101212, Pitch_bend_c, 0, 8592
2, 101212, Pitch_bend_c, 0, 8608
2, 101216, Pitch_bend_c, 0, 8624
2, 101220, Pitch_bend_c, 0, 8640
2, 101224, Pitch_bend_c, 0, 8656
2, 101224, Pitch_bend_c, 0, 8688
2, 101232, Pitch_bend_c, 0, 8720
2, 101236, Pitch_bend_c, 0, 8736
2, 101240, Pitch_bend_c, 0, 8768
2, 101244, Pitch_bend_c, 0, 8784
2, 101248, Pitch_bend_c, 0, 8800
2, 101252, Pitch_bend_c, 0, 8832
2, 101256, Pitch_bend_c, 0, 8848
2, 101256, Pitch_bend_c, 0, 8864
2, 101260, Pitch_bend_c, 0, 8880
2, 101276, Pitch_bend_c, 0, 8896
2, 101280, Pitch_bend_c, 0, 8928
2, 101284, Pitch_bend_c, 0, 8944
2, 101296, Pitch_bend_c, 0, 8960
2, 101316, Pitch_bend_c, 0, 8976
2, 101324, Pitch_bend_c, 0, 8960
2, 101328, Pitch_bend_c, 0, 8944
2, 101332, Pitch_bend_c, 0, 8928
2, 101352, Pitch_bend_c, 0, 8944
2, 101384, Pitch_bend_c, 0, 8960
2, 101400, Pitch_bend_c, 0, 8944
2, 101416, Pitch_bend_c, 0, 8960
2, 101440, Pitch_bend_c, 0, 8976
2, 101448, Pitch_bend_c, 0, 8960
2, 101456, Pitch_bend_c, 0, 8944
2, 101460, Pitch_bend_c, 0, 8928
2, 101488, Pitch_bend_c, 0, 8912
2, 101492, Pitch_bend_c, 0, 8896
2, 101508, Pitch_bend_c, 0, 8880
2, 101512, Pitch_bend_c, 0, 8864
2, 101512, Pitch_bend_c, 0, 8832
2, 101516, Pitch_bend_c, 0, 8800
2, 101524, Pitch_bend_c, 0, 8752
2, 101528, Pitch_bend_c, 0, 8736
2, 101536, Pitch_bend_c, 0, 8720
2, 101536, Pitch_bend_c, 0, 8688
2, 101544, Pitch_bend_c, 0, 8656
2, 101556, Pitch_bend_c, 0, 8576
2, 101564, Pitch_bend_c, 0, 8336
2, 101600, Pitch_bend_c, 0, 8128
2, 101608, Pitch_bend_c, 0, 7968
2, 101616, Pitch_bend_c, 0, 7872
2, 101624, Pitch_bend_c, 0, 7600
2, 101648, Pitch_bend_c, 0, 7488
2, 101656, Pitch_bend_c, 0, 7392
2, 101660, Pitch_bend_c, 0, 7328
2, 101664, Pitch_bend_c, 0, 7264
2, 101672, Pitch_bend_c, 0, 7232
2, 101680, Pitch_bend_c, 0, 7184
2, 101700, Pitch_bend_c, 0, 7120
2, 101700, Pitch_bend_c, 0, 7024
2, 101704, Pitch_bend_c, 0, 7008
2, 101708, Pitch_bend_c, 0, 6992
2, 101716, Pitch_bend_c, 0, 6976
2, 101716, Pitch_bend_c, 0, 6960
2, 101744, Pitch_bend_c, 0, 6944
2, 101748, Pitch_bend_c, 0, 6960
2, 101760, Pitch_bend_c, 0, 6976
2, 101772, Pitch_bend_c, 0, 6992
2, 101776, Pitch_bend_c, 0, 7024
2, 101784, Pitch_bend_c, 0, 7040
2, 101788, Pitch_bend_c, 0, 7056
2, 101788, Pitch_bend_c, 0, 7072
2, 101804, Pitch_bend_c, 0, 7088
2, 101820, Pitch_bend_c, 0, 7136
2, 101832, Pitch_bend_c, 0, 7200
2, 101832, Pitch_bend_c, 0, 7248
2, 101832, Pitch_bend_c, 0, 7376
2, 101844, Pitch_bend_c, 0, 7392
2, 101848, Pitch_bend_c, 0, 7408
2, 101864, Pitch_bend_c, 0, 7424
2, 101868, Pitch_bend_c, 0, 7456
2, 101872, Pitch_bend_c, 0, 7472
2, 101880, Pitch_bend_c, 0, 7488
2, 101904, Pitch_bend_c, 0, 7520
2, 101912, Pitch_bend_c, 0, 7552
2, 101916, Pitch_bend_c, 0, 7536
2, 101916, Pitch_bend_c, 0, 7520
2, 101920, Pitch_bend_c, 0, 7536
2, 101944, Pitch_bend_c, 0, 7568
2, 101956, Pitch_bend_c, 0, 7552
2, 101976, Note_on_c, 0, 66, 0
2, 102072, Pitch_bend_c, 0, 8192
2, 102076, Note_on_c, 0, 62, 107
2, 102080, Pitch_bend_c, 0, 8176
2, 102100, Pitch_bend_c, 0, 8160
2, 102320, Pitch_bend_c, 0, 8176
2, 102360, Note_on_c, 0, 62, 0
2, 103056, Pitch_bend_c, 0, 8192
2, 103060, Note_on_c, 0, 62, 100
2, 103152, Note_on_c, 0, 62, 0
2, 103180, Pitch_bend_c, 0, 8192
2, 103180, Note_on_c, 0, 65, 83
2, 103192, Pitch_bend_c, 0, 8208
2, 103192, Pitch_bend_c, 0, 8240
2, 103196, Pitch_bend_c, 0, 8272
2, 103200, Pitch_bend_c, 0, 8288
2, 103216, Pitch_bend_c, 0, 8304
2, 103228, Pitch_bend_c, 0, 8320
2, 103244, Pitch_bend_c, 0, 8336
2, 103252, Pitch_bend_c, 0, 8352
2, 103256, Pitch_bend_c, 0, 8368
2, 103264, Pitch_bend_c, 0, 8384
2, 103284, Pitch_bend_c, 0, 8400
2, 103292, Pitch_bend_c, 0, 8416
2, 103344, Pitch_bend_c, 0, 8400
2, 103352, Pitch_bend_c, 0, 8384
2, 103356, Pitch_bend_c, 0, 8368
2, 103388, Pitch_bend_c, 0, 6160
2, 103396, Pitch_bend_c, 0, 6144
2, 103460, Pitch_bend_c, 0, 7680
2, 103512, Pitch_bend_c, 0, 7600
2, 103516, Pitch_bend_c, 0, 7552
2, 103528, Pitch_bend_c, 0, 7536
2, 103532, Pitch_bend_c, 0, 7504
2, 103540, Pitch_bend_c, 0, 7488
2, 103672, Pitch_bend_c, 0, 7552
2, 103684, Pitch_bend_c, 0, 7616
2, 103688, Pitch_bend_c, 0, 7680
2, 103696, Pitch_bend_c, 0, 7792
2, 103708, Pitch_bend_c, 0, 8192
2, 103716, Pitch_bend_c, 0, 8176
2, 103760, Pitch_bend_c, 0, 8320
2, 103836, Pitch_bend_c, 0, 8464
2, 103848, Pitch_bend_c, 0, 8560
2, 103848, Pitch_bend_c, 0, 8736
2, 103872, Pitch_bend_c, 0, 8720
2, 103876, Pitch_bend_c, 0, 8736
2, 103888, Pitch_bend_c, 0, 8752
2, 103908, Pitch_bend_c, 0, 8768
2, 103920, Note_on_c, 0, 65, 0
2, 104008, Pitch_bend_c, 0, 8192
2, 104008, Note_on_c, 0, 62, 108
2, 104180, Pitch_bend_c, 0, 8224
2, 104240, Note_on_c, 0, 62, 0
2, 105572, Pitch_bend_c, 0, 8192
2, 105572, Note_on_c, 0, 65, 108
2, 105624, Pitch_bend_c, 0, 8160
2, 105688, Pitch_bend_c, 0, 8176
2, 105692, Pitch_bend_c, 0, 8192
2, 105700, Pitch_bend_c, 0, 8208
2, 105740, Pitch_bend_c, 0, 8192
2, 105748, Pitch_bend_c, 0, 8176
2, 105760, Pitch_bend_c, 0, 8160
2, 105760, Pitch_bend_c, 0, 8144
2, 105796, Note_on_c, 0, 65, 0
2, 107464, Pitch_bend_c, 0, 8192
2, 107464, Note_on_c, 0, 65, 109
2, 107480, Pitch_bend_c, 0, 8208
2, 107488, Pitch_bend_c, 0, 8224
2, 107492, Pitch_bend_c, 0, 8240
2, 107624, Pitch_bend_c, 0, 8224
2, 107676, Note_on_c, 0, 65, 0
2, 107956, Pitch_bend_c, 0, 8192
2, 107956, Note_on_c, 0, 59, 62
2, 107960, Pitch_bend_c, 0, 8208
2, 107964, Note_on_c, 0, 59, 0
2, 107972, Pitch_bend_c, 0, 8192
2, 107976, Note_on_c, 0, 67, 109
2, 107980, Pitch_bend_c, 0, 8240
2, 107984, Pitch_bend_c, 0, 8320
2, 107984, Pitch_bend_c, 0, 8368
2, 107992, Pitch_bend_c, 0, 8416
2, 107996, Pitch_bend_c, 0, 8432
2, 107996, Pitch_bend_c, 0, 8448
2, 108220, Pitch_bend_c, 0, 8432
2, 108228, Pitch_bend_c, 0, 8416
2, 108232, Pitch_bend_c, 0, 8400
2, 108244, Pitch_bend_c, 0, 8384
2, 108248, Pitch_bend_c, 0, 8368
2, 108256, Pitch_bend_c, 0, 8320
2, 108264, Pitch_bend_c, 0, 8288
2, 108268, Pitch_bend_c, 0, 8272
2, 108272, Pitch_bend_c, 0, 8240
2, 108276, Pitch_bend_c, 0, 8224
2, 108296, Pitch_bend_c, 0, 8144
2, 108296, Pitch_bend_c, 0, 8096
2, 108300, Pitch_bend_c, 0, 8048
2, 108312, Pitch_bend_c, 0, 7984
2, 108316, Pitch_bend_c, 0, 7936
2, 108320, Pitch_bend_c, 0, 7888
2, 108324, Pitch_bend_c, 0, 7840
2, 108328, Pitch_bend_c, 0, 7808
2, 108328, Pitch_bend_c, 0, 7776
2, 108332, Pitch_bend_c, 0, 7680
2, 108336, Pitch_bend_c, 0, 7664
2, 108340, Pitch_bend_c, 0, 7648
2, 108344, Pitch_bend_c, 0, 7616
2, 108348, Pitch_bend_c, 0, 7584
2, 108364, Pitch_bend_c, 0, 7488
2, 108368, Pitch_bend_c, 0, 7424
2, 108376, Pitch_bend_c, 0, 7344
2, 108384, Pitch_bend_c, 0, 7296
2, 108388, Pitch_bend_c, 0, 7248
2, 108388, Pitch_bend_c, 0, 7216
2, 108408, Pitch_bend_c, 0, 7136
2, 108408, Pitch_bend_c, 0, 7040
2, 108416, Note_on_c, 0, 67, 0
2, 108488, Pitch_bend_c, 0, 8192
2, 108488, Note_on_c, 0, 65, 107
2, 108492, Pitch_bend_c, 0, 8160
2, 108496, Pitch_bend_c, 0, 8144
2, 108496, Pitch_bend_c, 0, 8128
2, 108532, Pitch_bend_c, 0, 8144
2, 108584, Pitch_bend_c, 0, 8160
2, 108632, Pitch_bend_c, 0, 8176
2, 108652, Pitch_bend_c, 0, 8192
2, 108660, Pitch_bend_c, 0, 8208
2, 108664, Pitch_bend_c, 0, 8224
2, 108668, Pitch_bend_c, 0, 8240
2, 108672, Pitch_bend_c, 0, 8256
2, 108676, Pitch_bend_c, 0, 8272
2, 108680, Pitch_bend_c, 0, 8288
2, 108684, Pitch_bend_c, 0, 8304
2, 108684, Pitch_bend_c, 0, 8320
2, 108688, Pitch_bend_c, 0, 8336
2, 108692, Pitch_bend_c, 0, 8352
2, 108692, Pitch_bend_c, 0, 8384
2, 108700, Note_on_c, 0, 65, 0
2, 108948, Pitch_bend_c, 0, 8192
2, 108948, Note_on_c, 0, 67, 45
2, 108956, Pitch_bend_c, 0, 8272
2, 108964, Pitch_bend_c, 0, 8304
2, 108968, Pitch_bend_c, 0, 8320
2, 108976, Pitch_bend_c, 0, 8368
2, 108976, Pitch_bend_c, 0, 8432
2, 108980, Pitch_bend_c, 0, 8464
2, 108992, Pitch_bend_c, 0, 8512
2, 108992, Pitch_bend_c, 0, 8544
2, 109004, Pitch_bend_c, 0, 8512
2, 109008, Pitch_bend_c, 0, 8480
2, 109008, Pitch_bend_c, 0, 8464
2, 109020, Pitch_bend_c, 0, 8496
2, 109028, Pitch_bend_c, 0, 8528
2, 109032, Pitch_bend_c, 0, 8544
2, 109036, Pitch_bend_c, 0, 8560
2, 109048, Pitch_bend_c, 0, 8544
2, 109064, Pitch_bend_c, 0, 8560
2, 109072, Pitch_bend_c, 0, 8512
2, 109080, Pitch_bend_c, 0, 8496
2, 109084, Pitch_bend_c, 0, 8512
2, 109088, Pitch_bend_c, 0, 8528
2, 109096, Pitch_bend_c, 0, 8544
2, 109104, Pitch_bend_c, 0, 8560
2, 109108, Pitch_bend_c, 0, 8544
2, 109112, Pitch_bend_c, 0, 8512
2, 109120, Pitch_bend_c, 0, 8496
2, 109128, Pitch_bend_c, 0, 8480
2, 109136, Pitch_bend_c, 0, 8464
2, 109136, Pitch_bend_c, 0, 8448
2, 109144, Pitch_bend_c, 0, 8432
2, 109144, Pitch_bend_c, 0, 8416
2, 109148, Pitch_bend_c, 0, 8400
2, 109152, Pitch_bend_c, 0, 8416
2, 109168, Pitch_bend_c, 0, 8368
2, 109172, Pitch_bend_c, 0, 8320
2, 109180, Pitch_bend_c, 0, 8288
2, 109180, Pitch_bend_c, 0, 8256
2, 109184, Pitch_bend_c, 0, 8192
2, 109192, Pitch_bend_c, 0, 8160
2, 109200, Pitch_bend_c, 0, 8144
2, 109204, Pitch_bend_c, 0, 8128
2, 109208, Pitch_bend_c, 0, 8112
2, 109212, Pitch_bend_c, 0, 8048
2, 109216, Pitch_bend_c, 0, 8000
2, 109224, Pitch_bend_c, 0, 7984
2, 109224, Pitch_bend_c, 0, 7952
2, 109232, Pitch_bend_c, 0, 7904
2, 109236, Pitch_bend_c, 0, 7888
2, 109240, Pitch_bend_c, 0, 7840
2, 109264, Pitch_bend_c, 0, 7504
2, 109268, Pitch_bend_c, 0, 7488
2, 109276, Pitch_bend_c, 0, 7456
2, 109280, Pitch_bend_c, 0, 7408
2, 109288, Pitch_bend_c, 0, 7376
2, 109308, Pitch_bend_c, 0, 7344
2, 109316, Pitch_bend_c, 0, 7312
2, 109316, Pitch_bend_c, 0, 7264
2, 109324, Pitch_bend_c, 0, 7232
2, 109332, Pitch_bend_c, 0, 7200
2, 109336, Pitch_bend_c, 0, 7168
2, 109340, Pitch_bend_c, 0, 7104
2, 109352, Pitch_bend_c, 0, 7040
2, 109352, Pitch_bend_c, 0, 6928
2, 109368, Pitch_bend_c, 0, 6912
2, 109372, Pitch_bend_c, 0, 6896
2, 109372, Pitch_bend_c, 0, 6880
2, 109388, Pitch_bend_c, 0, 6864
2, 109396, Pitch_bend_c, 0, 6832
2, 109404, Pitch_bend_c, 0, 6784
2, 109408, Pitch_bend_c, 0, 6768
2, 109424, Pitch_bend_c, 0, 6752
2, 109456, Pitch_bend_c, 0, 6720
2, 109468, Pitch_bend_c, 0, 6672
2, 109468, Pitch_bend_c, 0, 6656
2, 109476, Pitch_bend_c, 0, 6704
2, 109484, Pitch_bend_c, 0, 6688
2, 109492, Pitch_bend_c, 0, 6656
2, 109496, Pitch_bend_c, 0, 6704
2, 109500, Pitch_bend_c, 0, 6784
2, 109508, Pitch_bend_c, 0, 6816
2, 109512, Pitch_bend_c, 0, 6784
2, 109528, Pitch_bend_c, 0, 6816
2, 109536, Pitch_bend_c, 0, 6832
2, 109540, Pitch_bend_c, 0, 6784
2, 109540, Pitch_bend_c, 0, 6800
2, 109548, Pitch_bend_c, 0, 6880
2, 109556, Pitch_bend_c, 0, 6928
2, 109560, Pitch_bend_c, 0, 6896
2, 109576, Pitch_bend_c, 0, 6944
2, 109612, Pitch_bend_c, 0, 6912
2, 109612, Pitch_bend_c, 0, 6880
2, 109620, Pitch_bend_c, 0, 6896
2, 109628, Pitch_bend_c, 0, 6880
2, 109656, Pitch_bend_c, 0, 6848
2, 109660, Note_on_c, 0, 67, 0
2, 109740, Pitch_bend_c, 0, 8192
2, 109740, Note_on_c, 0, 62, 108
2, 109964, Note_on_c, 0, 62, 0
2, 110748, Pitch_bend_c, 0, 8192
2, 110748, Note_on_c, 0, 62, 108
2, 110868, Pitch_bend_c, 0, 8240
2, 110868, Pitch_bend_c, 0, 8368
2, 110904, Pitch_bend_c, 0, 10272
2, 110924, Pitch_bend_c, 0, 10288
2, 110932, Pitch_bend_c, 0, 10320
2, 110936, Pitch_bend_c, 0, 10336
2, 110948, Pitch_bend_c, 0, 10352
2, 110952, Pitch_bend_c, 0, 10368
2, 110968, Pitch_bend_c, 0, 10400
2, 110984, Pitch_bend_c, 0, 10416
2, 111028, Pitch_bend_c, 0, 10384
2, 111080, Pitch_bend_c, 0, 8208
2, 111108, Pitch_bend_c, 0, 8192
2, 111124, Pitch_bend_c, 0, 8272
2, 111152, Pitch_bend_c, 0, 9584
2, 111164, Note_on_c, 0, 62, 0
2, 111244, Pitch_bend_c, 0, 8192
2, 111244, Note_on_c, 0, 66, 41
2, 111256, Pitch_bend_c, 0, 8208
2, 111284, Pitch_bend_c, 0, 6976
2, 111288, Pitch_bend_c, 0, 6944
2, 111296, Pitch_bend_c, 0, 6912
2, 111296, Pitch_bend_c, 0, 6896
2, 111300, Pitch_bend_c, 0, 6880
2, 111316, Pitch_bend_c, 0, 6864
2, 111320, Pitch_bend_c, 0, 6880
2, 111352, Pitch_bend_c, 0, 6944
2, 111360, Pitch_bend_c, 0, 7024
2, 111364, Pitch_bend_c, 0, 7104
2, 111368, Pitch_bend_c, 0, 7184
2, 111368, Pitch_bend_c, 0, 7344
2, 111380, Pitch_bend_c, 0, 7376
2, 111384, Pitch_bend_c, 0, 7408
2, 111392, Pitch_bend_c, 0, 7456
2, 111400, Pitch_bend_c, 0, 7520
2, 111412, Pitch_bend_c, 0, 7600
2, 111412, Pitch_bend_c, 0, 7664
2, 111416, Pitch_bend_c, 0, 7744
2, 111424, Pitch_bend_c, 0, 7792
2, 111428, Pitch_bend_c, 0, 7856
2, 111428, Pitch_bend_c, 0, 8000
2, 111448, Pitch_bend_c, 0, 8016
2, 111456, Pitch_bend_c, 0, 8032
2, 111456, Pitch_bend_c, 0, 8064
2, 111464, Pitch_bend_c, 0, 8080
2, 111472, Pitch_bend_c, 0, 8096
2, 111484, Pitch_bend_c, 0, 8128
2, 111484, Pitch_bend_c, 0, 8160
2, 111500, Pitch_bend_c, 0, 8176
2, 111500, Pitch_bend_c, 0, 8192
2, 111520, Pitch_bend_c, 0, 8208
2, 111540, Pitch_bend_c, 0, 8224
2, 111548, Pitch_bend_c, 0, 8240
2, 111564, Pitch_bend_c, 0, 8256
2, 111588, Pitch_bend_c, 0, 8272
2, 111616, Pitch_bend_c, 0, 8224
2, 111620, Note_on_c, 0, 66, 0
2, 111688, Pitch_bend_c, 0, 8192
2, 111700, Pitch_bend_c, 0, 8192
2, 111700, Note_on_c, 0, 62, 109
2, 111716, Pitch_bend_c, 0, 8176
2, 111744, Pitch_bend_c, 0, 8160
2, 111840, Pitch_bend_c, 0, 8176
2, 111844, Pitch_bend_c, 0, 8192
2, 111864, Note_on_c, 0, 62, 0
2, 112604, Pitch_bend_c, 0, 8192
2, 112604, Note_on_c, 0, 64, 103
2, 112608, Pitch_bend_c, 0, 8256
2, 112616, Pitch_bend_c, 0, 8368
2, 112620, Pitch_bend_c, 0, 8464
2, 112624, Pitch_bend_c, 0, 8528
2, 112624, Pitch_bend_c, 0, 8656
2, 112628, Pitch_bend_c, 0, 8672
2, 112636, Pitch_bend_c, 0, 8688
2, 112636, Pitch_bend_c, 0, 8704
2, 112644, Pitch_bend_c, 0, 8720
2, 112648, Pitch_bend_c, 0, 8752
2, 112652, Pitch_bend_c, 0, 8784
2, 112656, Pitch_bend_c, 0, 8816
2, 112664, Pitch_bend_c, 0, 8848
2, 112668, Pitch_bend_c, 0, 8896
2, 112672, Pitch_bend_c, 0, 8928
2, 112676, Pitch_bend_c, 0, 8976
2, 112680, Pitch_bend_c, 0, 9008
2, 112684, Pitch_bend_c, 0, 9056
2, 112688, Pitch_bend_c, 0, 9088
2, 112696, Pitch_bend_c, 0, 9136
2, 112696, Pitch_bend_c, 0, 9184
2, 112700, Pitch_bend_c, 0, 9216
2, 112700, Pitch_bend_c, 0, 9296
2, 112708, Pitch_bend_c, 0, 9312
2, 112712, Pitch_bend_c, 0, 9344
2, 112716, Pitch_bend_c, 0, 9392
2, 112720, Pitch_bend_c, 0, 9440
2, 112724, Pitch_bend_c, 0, 9488
2, 112728, Pitch_bend_c, 0, 9552
2, 112736, Pitch_bend_c, 0, 9600
2, 112740, Pitch_bend_c, 0, 9664
2, 112740, Pitch_bend_c, 0, 9712
2, 112748, Pitch_bend_c, 0, 9776
2, 112752, Pitch_bend_c, 0, 9840
2, 112752, Pitch_bend_c, 0, 9888
2, 112756, Pitch_bend_c, 0, 9936
2, 112756, Pitch_bend_c, 0, 10032
2, 112768, Pitch_bend_c, 0, 10048
2, 112768, Pitch_bend_c, 0, 10096
2, 112772, Pitch_bend_c, 0, 10160
2, 112780, Pitch_bend_c, 0, 10208
2, 112780, Pitch_bend_c, 0, 10272
2, 112784, Pitch_bend_c, 0, 10352
2, 112792, Pitch_bend_c, 0, 10416
2, 112796, Pitch_bend_c, 0, 10480
2, 112796, Pitch_bend_c, 0, 10528
2, 112800, Pitch_bend_c, 0, 10576
2, 112804, Pitch_bend_c, 0, 10688
2, 112808, Pitch_bend_c, 0, 10720
2, 112812, Pitch_bend_c, 0, 10752
2, 112812, Pitch_bend_c, 0, 10800
2, 112816, Pitch_bend_c, 0, 10848
2, 112824, Pitch_bend_c, 0, 10896
2, 112824, Pitch_bend_c, 0, 10944
2, 112828, Pitch_bend_c, 0, 11008
2, 112832, Pitch_bend_c, 0, 11056
2, 112836, Pitch_bend_c, 0, 11104
2, 112840, Pitch_bend_c, 0, 11136
2, 112844, Pitch_bend_c, 0, 11184
2, 112848, Pitch_bend_c, 0, 11232
2, 112852, Pitch_bend_c, 0, 11264
2, 112852, Pitch_bend_c, 0, 11344
2, 112860, Pitch_bend_c, 0, 11360
2, 112864, Pitch_bend_c, 0, 11392
2, 112868, Pitch_bend_c, 0, 11424
2, 112868, Pitch_bend_c, 0, 11456
2, 112876, Pitch_bend_c, 0, 11488
2, 112880, Pitch_bend_c, 0, 11504
2, 112884, Pitch_bend_c, 0, 11536
2, 112884, Pitch_bend_c, 0, 11552
2, 112888, Pitch_bend_c, 0, 11568
2, 112892, Pitch_bend_c, 0, 11600
2, 112896, Pitch_bend_c, 0, 11616
2, 112900, Pitch_bend_c, 0, 11632
2, 112908, Pitch_bend_c, 0, 11648
2, 112920, Pitch_bend_c, 0, 11664
2, 112984, Note_on_c, 0, 64, 0
2, 113072, Pitch_bend_c, 0, 8192
2, 113072, Note_on_c, 0, 69, 72
2, 113076, Pitch_bend_c, 0, 8208
2, 113080, Pitch_bend_c, 0, 8256
2, 113084, Pitch_bend_c, 0, 8272
2, 113084, Pitch_bend_c, 0, 8304
2, 113088, Pitch_bend_c, 0, 8320
2, 113092, Pitch_bend_c, 0, 8336
2, 113100, Pitch_bend_c, 0, 8352
2, 113100, Pitch_bend_c, 0, 8368
2, 113108, Pitch_bend_c, 0, 8384
2, 113144, Pitch_bend_c, 0, 8368
2, 113144, Pitch_bend_c, 0, 8352
2, 113148, Pitch_bend_c, 0, 8336
2, 113172, Pitch_bend_c, 0, 8208
2, 113176, Pitch_bend_c, 0, 8144
2, 113188, Pitch_bend_c, 0, 8032
2, 113192, Pitch_bend_c, 0, 7968
2, 113196, Pitch_bend_c, 0, 7904
2, 113200, Pitch_bend_c, 0, 7872
2, 113204, Pitch_bend_c, 0, 7824
2, 113212, Note_on_c, 0, 69, 0
2, 113292, Pitch_bend_c, 0, 8192
2, 113292, Note_on_c, 0, 67, 90
2, 113300, Pitch_bend_c, 0, 8272
2, 113300, Pitch_bend_c, 0, 8352
2, 113304, Pitch_bend_c, 0, 8416
2, 113308, Pitch_bend_c, 0, 8464
2, 113316, Pitch_bend_c, 0, 8496
2, 113316, Pitch_bend_c, 0, 8528
2, 113316, Pitch_bend_c, 0, 8576
2, 113324, Pitch_bend_c, 0, 8592
2, 113328, Pitch_bend_c, 0, 8608
2, 113328, Pitch_bend_c, 0, 8624
2, 113336, Pitch_bend_c, 0, 8656
2, 113340, Pitch_bend_c, 0, 8672
2, 113344, Pitch_bend_c, 0, 8704
2, 113344, Pitch_bend_c, 0, 8736
2, 113352, Pitch_bend_c, 0, 8768
2, 113356, Pitch_bend_c, 0, 8800
2, 113360, Pitch_bend_c, 0, 8816
2, 113364, Pitch_bend_c, 0, 8848
2, 113368, Pitch_bend_c, 0, 8880
2, 113372, Pitch_bend_c, 0, 8912
2, 113372, Pitch_bend_c, 0, 8928
2, 113380, Pitch_bend_c, 0, 8960
2, 113384, Pitch_bend_c, 0, 8992
2, 113388, Pitch_bend_c, 0, 9008
2, 113388, Pitch_bend_c, 0, 9024
2, 113392, Pitch_bend_c, 0, 9056
2, 113400, Pitch_bend_c, 0, 9072
2, 113400, Pitch_bend_c, 0, 9088
2, 113404, Pitch_bend_c, 0, 9120
2, 113408, Pitch_bend_c, 0, 9152
2, 113412, Pitch_bend_c, 0, 9168
2, 113416, Pitch_bend_c, 0, 9200
2, 113424, Pitch_bend_c, 0, 9216
2, 113424, Pitch_bend_c, 0, 9264
2, 113432, Pitch_bend_c, 0, 9280
2, 113440, Pitch_bend_c, 0, 9312
2, 113444, Pitch_bend_c, 0, 9328
2, 113444, Pitch_bend_c, 0, 9344
2, 113452, Pitch_bend_c, 0, 9360
2, 113456, Pitch_bend_c, 0, 9376
2, 113460, Pitch_bend_c, 0, 9408
2, 113460, Pitch_bend_c, 0, 9424
2, 113464, Pitch_bend_c, 0, 9440
2, 113472, Pitch_bend_c, 0, 9456
2, 113476, Pitch_bend_c, 0, 9472
2, 113480, Pitch_bend_c, 0, 9488
2, 113484, Pitch_bend_c, 0, 9504
2, 113488, Pitch_bend_c, 0, 9520
2, 113496, Pitch_bend_c, 0, 9536
2, 113500, Pitch_bend_c, 0, 9552
2, 113504, Pitch_bend_c, 0, 9568
2, 113508, Pitch_bend_c, 0, 9584
2, 113516, Pitch_bend_c, 0, 9600
2, 113520, Pitch_bend_c, 0, 9616
2, 113528, Pitch_bend_c, 0, 9632
2, 113532, Pitch_bend_c, 0, 9648
2, 113536, Pitch_bend_c, 0, 9680
2, 113544, Pitch_bend_c, 0, 9696
2, 113548, Note_on_c, 0, 67, 0
2, 113608, Pitch_bend_c, 0, 8192
2, 113612, Note_on_c, 0, 69, 103
2, 113616, Pitch_bend_c, 0, 8208
2, 113616, Pitch_bend_c, 0, 8224
2, 113632, Pitch_bend_c, 0, 8208
2, 113632, Pitch_bend_c, 0, 8176
2, 113636, Pitch_bend_c, 0, 8144
2, 113640, Pitch_bend_c, 0, 8128
2, 113644, Pitch_bend_c, 0, 8096
2, 113648, Pitch_bend_c, 0, 8064
2, 113652, Pitch_bend_c, 0, 8032
2, 113660, Pitch_bend_c, 0, 7968
2, 113664, Pitch_bend_c, 0, 7936
2, 113668, Pitch_bend_c, 0, 7888
2, 113676, Pitch_bend_c, 0, 7856
2, 113676, Pitch_bend_c, 0, 7824
2, 113684, Pitch_bend_c, 0, 7792
2, 113684, Pitch_bend_c, 0, 7712
2, 113688, Pitch_bend_c, 0, 7696
2, 113696, Pitch_bend_c, 0, 7648
2, 113700, Pitch_bend_c, 0, 7616
2, 113704, Pitch_bend_c, 0, 7584
2, 113708, Pitch_bend_c, 0, 7552
2, 113712, Pitch_bend_c, 0, 7520
2, 113716, Pitch_bend_c, 0, 7488
2, 113732, Note_on_c, 0, 69, 0
2, 113796, Pitch_bend_c, 0, 8192
2, 113800, Note_on_c, 0, 68, 103
2, 113804, Pitch_bend_c, 0, 8128
2, 113804, Pitch_bend_c, 0, 8080
2, 113812, Pitch_bend_c, 0, 8048
2, 113816, Pitch_bend_c, 0, 8032
2, 113820, Pitch_bend_c, 0, 8048
2, 113828, Pitch_bend_c, 0, 8064
2, 113832, Pitch_bend_c, 0, 8080
2, 113832, Pitch_bend_c, 0, 8096
2, 113840, Pitch_bend_c, 0, 8128
2, 113844, Pitch_bend_c, 0, 8144
2, 113848, Pitch_bend_c, 0, 8160
2, 113848, Pitch_bend_c, 0, 8192
2, 113856, Pitch_bend_c, 0, 8208
2, 113860, Pitch_bend_c, 0, 8240
2, 113864, Pitch_bend_c, 0, 8256
2, 113864, Pitch_bend_c, 0, 8288
2, 113868, Pitch_bend_c, 0, 8304
2, 113876, Pitch_bend_c, 0, 8336
2, 113876, Pitch_bend_c, 0, 8368
2, 113880, Pitch_bend_c, 0, 8384
2, 113884, Pitch_bend_c, 0, 8416
2, 113892, Pitch_bend_c, 0, 8432
2, 113892, Pitch_bend_c, 0, 8448
2, 113896, Pitch_bend_c, 0, 8480
2, 113900, Pitch_bend_c, 0, 8496
2, 113904, Pitch_bend_c, 0, 8512
2, 113908, Pitch_bend_c, 0, 8528
2, 113908, Pitch_bend_c, 0, 8576
2, 113912, Pitch_bend_c, 0, 8592
2, 113920, Pitch_bend_c, 0, 8608
2, 113924, Pitch_bend_c, 0, 8624
2, 113928, Pitch_bend_c, 0, 8640
2, 113936, Pitch_bend_c, 0, 8656
2, 113936, Pitch_bend_c, 0, 8688
2, 113940, Pitch_bend_c, 0, 8704
2, 113944, Pitch_bend_c, 0, 8720
2, 113948, Pitch_bend_c, 0, 8736
2, 113948, Pitch_bend_c, 0, 8752
2, 113960, Pitch_bend_c, 0, 8768
2, 113964, Pitch_bend_c, 0, 8784
2, 113964, Pitch_bend_c, 0, 8800
2, 113968, Pitch_bend_c, 0, 8816
2, 113980, Pitch_bend_c, 0, 8832
2, 113992, Note_on_c, 0, 68, 0
2, 114100, Pitch_bend_c, 0, 8192
2, 114100, Note_on_c, 0, 69, 97
2, 114108, Pitch_bend_c, 0, 8208
2, 114108, Pitch_bend_c, 0, 8256
2, 114112, Pitch_bend_c, 0, 8272
2, 114116, Pitch_bend_c, 0, 8288
2, 114128, Pitch_bend_c, 0, 8272
2, 114132, Pitch_bend_c, 0, 8256
2, 114136, Pitch_bend_c, 0, 8240
2, 114164, Pitch_bend_c, 0, 8128
2, 114168, Pitch_bend_c, 0, 8032
2, 114184, Pitch_bend_c, 0, 7936
2, 114188, Pitch_bend_c, 0, 7856
2, 114192, Pitch_bend_c, 0, 7808
2, 114204, Pitch_bend_c, 0, 7680
2, 114224, Pitch_bend_c, 0, 7616
2, 114224, Pitch_bend_c, 0, 7568
2, 114232, Pitch_bend_c, 0, 7536
2, 114236, Pitch_bend_c, 0, 7504
2, 114236, Pitch_bend_c, 0, 7488
2, 114240, Pitch_bend_c, 0, 7456
2, 114244, Pitch_bend_c, 0, 7440
2, 114252, Pitch_bend_c, 0, 7408
2, 114256, Pitch_bend_c, 0, 7376
2, 114260, Pitch_bend_c, 0, 7360
2, 114268, Pitch_bend_c, 0, 7344
2, 114288, Pitch_bend_c, 0, 7328
2, 114292, Pitch_bend_c, 0, 7296
2, 114324, Pitch_bend_c, 0, 7280
2, 114348, Pitch_bend_c, 0, 7296
2, 114356, Pitch_bend_c, 0, 7312
2, 114360, Pitch_bend_c, 0, 7296
2, 114364, Pitch_bend_c, 0, 7312
2, 114368, Pitch_bend_c, 0, 7328
2, 114372, Pitch_bend_c, 0, 7344
2, 114376, Pitch_bend_c, 0, 7360
2, 114380, Pitch_bend_c, 0, 7376
2, 114388, Pitch_bend_c, 0, 7392
2, 114392, Pitch_bend_c, 0, 7408
2, 114400, Pitch_bend_c, 0, 7424
2, 114404, Pitch_bend_c, 0, 7440
2, 114412, Pitch_bend_c, 0, 7456
2, 114416, Pitch_bend_c, 0, 7472
2, 114420, Pitch_bend_c, 0, 7488
2, 114424, Pitch_bend_c, 0, 7520
2, 114424, Pitch_bend_c, 0, 7536
2, 114432, Pitch_bend_c, 0, 7568
2, 114436, Pitch_bend_c, 0, 7600
2, 114440, Pitch_bend_c, 0, 7648
2, 114448, Pitch_bend_c, 0, 7680
2, 114452, Pitch_bend_c, 0, 7712
2, 114456, Pitch_bend_c, 0, 7760
2, 114464, Pitch_bend_c, 0, 7792
2, 114468, Pitch_bend_c, 0, 7824
2, 114468, Pitch_bend_c, 0, 7872
2, 114468, Pitch_bend_c, 0, 7888
2, 114476, Pitch_bend_c, 0, 7920
2, 114480, Pitch_bend_c, 0, 7968
2, 114484, Pitch_bend_c, 0, 7984
2, 114488, Pitch_bend_c, 0, 8032
2, 114496, Pitch_bend_c, 0, 8048
2, 114496, Pitch_bend_c, 0, 8080
2, 114504, Pitch_bend_c, 0, 8112
2, 114508, Pitch_bend_c, 0, 8144
2, 114512, Pitch_bend_c, 0, 8160
2, 114516, Pitch_bend_c, 0, 8192
2, 114520, Pitch_bend_c, 0, 8208
2, 114524, Pitch_bend_c, 0, 8240
2, 114532, Pitch_bend_c, 0, 8256
2, 114540, Pitch_bend_c, 0, 8272
2, 114548, Pitch_bend_c, 0, 8288
2, 114556, Pitch_bend_c, 0, 8304
2, 114560, Pitch_bend_c, 0, 8336
2, 114568, Pitch_bend_c, 0, 8352
2, 114596, Pitch_bend_c, 0, 8336
2, 114728, Pitch_bend_c, 0, 8352
2, 114752, Note_on_c, 0, 69, 0
2, 115204, Pitch_bend_c, 0, 8192
2, 115204, Note_on_c, 0, 65, 109
2, 115224, Pitch_bend_c, 0, 8208
2, 115232, Pitch_bend_c, 0, 8224
2, 115340, Pitch_bend_c, 0, 8240
2, 115376, Pitch_bend_c, 0, 8224
2, 115476, Note_on_c, 0, 65, 0
2, 115692, Pitch_bend_c, 0, 8192
2, 115692, Note_on_c, 0, 67, 109
2, 115696, Pitch_bend_c, 0, 8208
2, 115704, Pitch_bend_c, 0, 8240
2, 115708, Pitch_bend_c, 0, 8256
2, 115708, Pitch_bend_c, 0, 8288
2, 115708, Pitch_bend_c, 0, 8304
2, 115912, Pitch_bend_c, 0, 8288
2, 115924, Pitch_bend_c, 0, 8272
2, 115928, Pitch_bend_c, 0, 8256
2, 115936, Pitch_bend_c, 0, 8240
2, 115940, Pitch_bend_c, 0, 8224
2, 115948, Pitch_bend_c, 0, 8192
2, 115952, Pitch_bend_c, 0, 8160
2, 115956, Pitch_bend_c, 0, 8144
2, 115960, Pitch_bend_c, 0, 8128
2, 115968, Pitch_bend_c, 0, 8096
2, 115968, Pitch_bend_c, 0, 8080
2, 115972, Pitch_bend_c, 0, 8064
2, 115976, Pitch_bend_c, 0, 8032
2, 115984, Pitch_bend_c, 0, 7984
2, 115992, Pitch_bend_c, 0, 7936
2, 115996, Pitch_bend_c, 0, 7904
2, 115996, Pitch_bend_c, 0, 7872
2, 116000, Pitch_bend_c, 0, 7856
2, 116004, Pitch_bend_c, 0, 7840
2, 116008, Pitch_bend_c, 0, 7808
2, 116012, Pitch_bend_c, 0, 7680
2, 116020, Pitch_bend_c, 0, 7664
2, 116024, Pitch_bend_c, 0, 7632
2, 116024, Pitch_bend_c, 0, 7616
2, 116028, Pitch_bend_c, 0, 7584
2, 116032, Pitch_bend_c, 0, 7552
2, 116044, Pitch_bend_c, 0, 7488
2, 116048, Pitch_bend_c, 0, 7424
2, 116052, Pitch_bend_c, 0, 7376
2, 116056, Pitch_bend_c, 0, 7344
2, 116060, Pitch_bend_c, 0, 7296
2, 116080, Pitch_bend_c, 0, 7200
2, 116080, Pitch_bend_c, 0, 7152
2, 116084, Pitch_bend_c, 0, 7088
2, 116088, Pitch_bend_c, 0, 7024
2, 116092, Pitch_bend_c, 0, 7008
2, 116092, Pitch_bend_c, 0, 6992
2, 116100, Note_on_c, 0, 67, 0
2, 116180, Pitch_bend_c, 0, 8192
2, 116184, Note_on_c, 0, 63, 109
2, 116188, Pitch_bend_c, 0, 8176
2, 116196, Pitch_bend_c, 0, 9536
2, 116236, Pitch_bend_c, 0, 9552
2, 116328, Pitch_bend_c, 0, 9568
2, 116356, Pitch_bend_c, 0, 9584
2, 116372, Pitch_bend_c, 0, 9600
2, 116376, Pitch_bend_c, 0, 9616
2, 116428, Pitch_bend_c, 0, 9648
2, 116432, Note_on_c, 0, 63, 0
2, 116868, Pitch_bend_c, 0, 8192
2, 116868, Note_on_c, 0, 66, 34
2, 116869, Note_on_c, 0, 66, 0
2, 117560, Pitch_bend_c, 0, 8192
2, 117560, Note_on_c, 0, 62, 81
2, 117680, Note_on_c, 0, 62, 0
2, 117740, Pitch_bend_c, 0, 8192
2, 117760, Note_on_c, 0, 62, 88
2, 117828, Note_on_c, 0, 62, 0
2, 117904, Pitch_bend_c, 0, 8192
2, 117920, Note_on_c, 0, 62, 88
2, 117988, Note_on_c, 0, 62, 0
2, 118052, Pitch_bend_c, 0, 8192
2, 118080, Note_on_c, 0, 62, 88
2, 118148, Note_on_c, 0, 62, 0
2, 118176, Pitch_bend_c, 0, 8192
2, 118240, Note_on_c, 0, 62, 93
2, 118320, Note_on_c, 0, 62, 0
2, 118360, Pitch_bend_c, 0, 8192
2, 118400, Note_on_c, 0, 62, 76
2, 118516, Pitch_bend_c, 0, 8192
2, 118520, Note_on_c, 0, 62, 0
2, 118560, Note_on_c, 0, 62, 81
2, 118652, Note_on_c, 0, 62, 0
2, 118688, Pitch_bend_c, 0, 8192
2, 118720, Note_on_c, 0, 62, 98
2, 118824, Note_on_c, 0, 62, 0
2, 118876, Pitch_bend_c, 0, 8192
2, 118880, Note_on_c, 0, 62, 81
2, 118972, Note_on_c, 0, 62, 0
2, 119020, Pitch_bend_c, 0, 8192
2, 119020, Note_on_c, 0, 62, 107
2, 119164, Note_on_c, 0, 62, 0
2, 119332, Pitch_bend_c, 0, 8192
2, 119332, Note_on_c, 0, 62, 48
2, 119392, Pitch_bend_c, 0, 8208
2, 119396, Pitch_bend_c, 0, 8192
2, 119404, Pitch_bend_c, 0, 8176
2, 119424, Note_on_c, 0, 62, 0
2, 119504, Pitch_bend_c, 0, 8192
2, 119504, Note_on_c, 0, 69, 109
2, 119520, Pitch_bend_c, 0, 8208
2, 119524, Pitch_bend_c, 0, 8224
2, 119536, Pitch_bend_c, 0, 8240
2, 119600, Pitch_bend_c, 0, 8208
2, 119612, Pitch_bend_c, 0, 8192
2, 119616, Pitch_bend_c, 0, 8176
2, 119652, Pitch_bend_c, 0, 8160
2, 119664, Pitch_bend_c, 0, 8176
2, 119668, Pitch_bend_c, 0, 8192
2, 119696, Pitch_bend_c, 0, 8208
2, 119712, Pitch_bend_c, 0, 8240
2, 119716, Pitch_bend_c, 0, 8272
2, 119724, Pitch_bend_c, 0, 8288
2, 119728, Pitch_bend_c, 0, 8304
2, 119736, Pitch_bend_c, 0, 8352
2, 119740, Pitch_bend_c, 0, 8400
2, 119744, Pitch_bend_c, 0, 8464
2, 119748, Pitch_bend_c, 0, 8512
2, 119752, Pitch_bend_c, 0, 8544
2, 119756, Pitch_bend_c, 0, 8624
2, 119756, Pitch_bend_c, 0, 8640
2, 119768, Pitch_bend_c, 0, 8704
2, 119772, Pitch_bend_c, 0, 8800
2, 119792, Pitch_bend_c, 0, 8960
2, 119800, Pitch_bend_c, 0, 9776
2, 119804, Pitch_bend_c, 0, 9824
2, 119812, Pitch_bend_c, 0, 9888
2, 119820, Pitch_bend_c, 0, 10256
2, 119828, Pitch_bend_c, 0, 10304
2, 119844, Pitch_bend_c, 0, 10432
2, 119860, Pitch_bend_c, 0, 11632
2, 119896, Pitch_bend_c, 0, 11648
2, 119900, Pitch_bend_c, 0, 11680
2, 119904, Pitch_bend_c, 0, 11696
2, 120120, Pitch_bend_c, 0, 11664
2, 120128, Pitch_bend_c, 0, 11648
2, 120128, Pitch_bend_c, 0, 11632
2, 120144, Pitch_bend_c, 0, 11648
2, 120144, Pitch_bend_c, 0, 11632
2, 120148, Pitch_bend_c, 0, 11616
2, 120160, Pitch_bend_c, 0, 11600
2, 120164, Pitch_bend_c, 0, 11584
2, 120196, Pitch_bend_c, 0, 11600
2, 120208, Pitch_bend_c, 0, 11616
2, 120232, Pitch_bend_c, 0, 11632
2, 120288, Pitch_bend_c, 0, 11648
2, 120296, Pitch_bend_c, 0, 11664
2, 120344, Pitch_bend_c, 0, 11648
2, 120360, Pitch_bend_c, 0, 11632
2, 120392, Pitch_bend_c, 0, 11616
2, 120432, Pitch_bend_c, 0, 11600
2, 120436, Pitch_bend_c, 0, 11552
2, 120444, Pitch_bend_c, 0, 11520
2, 120464, Pitch_bend_c, 0, 11424
2, 120476, Pitch_bend_c, 0, 11280
2, 120480, Pitch_bend_c, 0, 11056
2, 120488, Pitch_bend_c, 0, 11024
2, 120492, Pitch_bend_c, 0, 10976
2, 120496, Pitch_bend_c, 0, 10896
2, 120500, Pitch_bend_c, 0, 10832
2, 120508, Pitch_bend_c, 0, 10704
2, 120512, Pitch_bend_c, 0, 10592
2, 120516, Pitch_bend_c, 0, 10496
2, 120520, Pitch_bend_c, 0, 10336
2, 120520, Pitch_bend_c, 0, 10320
2, 120524, Pitch_bend_c, 0, 10272
2, 120532, Pitch_bend_c, 0, 10208
2, 120576, Note_on_c, 0, 69, 0
2, 120576, End_track
3, 0, Start_track
3, 0, MIDI_port, 0
3, 0, Control_c, 1, 91, 89
3, 0, Control_c, 1, 93, 69
3, 0, Control_c, 1, 121, 0
3, 1, Control_c, 1, 32, 0
3, 18, Control_c, 1, 101, 0
3, 18, Control_c, 1, 100, 0
3, 18, Control_c, 1, 6, 12
3, 18, Control_c, 1, 38, 0
3, 21, Control_c, 1, 11, 127
3, 487, Program_c, 1, 29
3, 488, Control_c, 1, 7, 120
3, 488, Control_c, 1, 10, 41
3, 1976, Control_c, 1, 101, 0
3, 1976, Control_c, 1, 100, 0
3, 1976, Control_c, 1, 6, 12
3, 1976, Control_c, 1, 38, 0
3, 4136, Pitch_bend_c, 1, 8192
3, 4140, Note_on_c, 1, 57, 40
3, 4144, Pitch_bend_c, 1, 8160
3, 4160, Pitch_bend_c, 1, 8176
3, 4164, Pitch_bend_c, 1, 8160
3, 4176, Pitch_bend_c, 1, 8144
3, 4192, Pitch_bend_c, 1, 8128
3, 4204, Pitch_bend_c, 1, 8144
3, 4204, Pitch_bend_c, 1, 8160
3, 4224, Pitch_bend_c, 1, 8176
3, 4232, Pitch_bend_c, 1, 8160
3, 4244, Pitch_bend_c, 1, 8144
3, 4248, Note_on_c, 1, 57, 0
3, 4284, Pitch_bend_c, 1, 8192
3, 4288, Note_on_c, 1, 62, 100
3, 4308, Pitch_bend_c, 1, 8208
3, 4316, Pitch_bend_c, 1, 8224
3, 4332, Pitch_bend_c, 1, 8240
3, 4336, Pitch_bend_c, 1, 8272
3, 4356, Pitch_bend_c, 1, 8288
3, 4384, Pitch_bend_c, 1, 8272
3, 4536, Pitch_bend_c, 1, 8288
3, 4544, Pitch_bend_c, 1, 8320
3, 4556, Pitch_bend_c, 1, 8368
3, 4560, Pitch_bend_c, 1, 8416
3, 4580, Pitch_bend_c, 1, 8512
3, 4596, Pitch_bend_c, 1, 9024
3, 4604, Pitch_bend_c, 1, 9056
3, 4608, Pitch_bend_c, 1, 9088
3, 4620, Pitch_bend_c, 1, 9152
3, 4628, Pitch_bend_c, 1, 9216
3, 4636, Pitch_bend_c, 1, 9280
3, 4636, Pitch_bend_c, 1, 9440
3, 4648, Pitch_bend_c, 1, 9456
3, 4656, Pitch_bend_c, 1, 9472
3, 4676, Pitch_bend_c, 1, 9488
3, 4676, Pitch_bend_c, 1, 9504
3, 4696, Pitch_bend_c, 1, 9520
3, 4840, Pitch_bend_c, 1, 9504
3, 5068, Pitch_bend_c, 1, 9488
3, 5092, Pitch_bend_c, 1, 9472
3, 5104, Pitch_bend_c, 1, 9456
3, 5112, Pitch_bend_c, 1, 9440
3, 5116, Pitch_bend_c, 1, 9424
3, 5132, Pitch_bend_c, 1, 9408
3, 5144, Pitch_bend_c, 1, 9392
3, 5156, Pitch_bend_c, 1, 9360
3, 5160, Pitch_bend_c, 1, 9328
3, 5196, Pitch_bend_c, 1, 8976
3, 5240, Pitch_bend_c, 1, 8752
3, 5256, Pitch_bend_c, 1, 8576
3, 5260, Pitch_bend_c, 1, 8160
3, 5284, Pitch_bend_c, 1, 8016
3, 5304, Note_on_c, 1, 62, 0
3, 5760, Pitch_bend_c, 1, 8192
3, 5760, Note_on_c, 1, 65, 100
3, 5764, Pitch_bend_c, 1, 8256
3, 5764, Pitch_bend_c, 1, 8368
3, 5768, Pitch_bend_c, 1, 8480
3, 5772, Pitch_bend_c, 1, 8592
3, 5772, Pitch_bend_c, 1, 8832
3, 5776, Pitch_bend_c, 1, 8848
3, 5776, Pitch_bend_c, 1, 8880
3, 5776, Pitch_bend_c, 1, 8928
3, 5780, Pitch_bend_c, 1, 8992
3, 5784, Pitch_bend_c, 1, 9072
3, 5792, Pitch_bend_c, 1, 9184
3, 5792, Pitch_bend_c, 1, 9536
3, 5796, Pitch_bend_c, 1, 9552
3, 5800, Pitch_bend_c, 1, 9616
3, 5804, Pitch_bend_c, 1, 9680
3, 5808, Pitch_bend_c, 1, 9776
3, 5812, Pitch_bend_c, 1, 9856
3, 5812, Pitch_bend_c, 1, 9936
3, 5816, Pitch_bend_c, 1, 10128
3, 5816, Pitch_bend_c, 1, 10144
3, 5820, Pitch_bend_c, 1, 10160
3, 5824, Pitch_bend_c, 1, 10208
3, 5828, Pitch_bend_c, 1, 10272
3, 5832, Pitch_bend_c, 1, 10336
3, 5836, Pitch_bend_c, 1, 10400
3, 5844, Pitch_bend_c, 1, 10464
3, 5848, Pitch_bend_c, 1, 10528
3, 5852, Pitch_bend_c, 1, 10576
3, 5852, Pitch_bend_c, 1, 10688
3, 5856, Pitch_bend_c, 1, 10704
3, 5860, Pitch_bend_c, 1, 10768
3, 5860, Pitch_bend_c, 1, 10848
3, 5864, Pitch_bend_c, 1, 10896
3, 5868, Note_on_c, 1, 65, 0
3, 5900, Pitch_bend_c, 1, 8192
3, 5904, Note_on_c, 1, 69, 100
3, 5916, Pitch_bend_c, 1, 8160
3, 5916, Pitch_bend_c, 1, 8144
3, 5920, Pitch_bend_c, 1, 8128
3, 5928, Pitch_bend_c, 1, 8112
3, 5936, Pitch_bend_c, 1, 8096
3, 5996, Note_on_c, 1, 69, 0
3, 6032, Pitch_bend_c, 1, 8192
3, 6032, Note_on_c, 1, 69, 100
3, 6040, Pitch_bend_c, 1, 8160
3, 6044, Pitch_bend_c, 1, 8144
3, 6048, Pitch_bend_c, 1, 8128
3, 6060, Pitch_bend_c, 1, 8112
3, 6064, Pitch_bend_c, 1, 8096
3, 6092, Pitch_bend_c, 1, 8080
3, 6184, Note_on_c, 1, 69, 0
3, 6208, Pitch_bend_c, 1, 8192
3, 6208, Note_on_c, 1, 69, 99
3, 6216, Pitch_bend_c, 1, 8160
3, 6220, Pitch_bend_c, 1, 8144
3, 6228, Pitch_bend_c, 1, 8128
3, 6232, Pitch_bend_c, 1, 8112
3, 6232, Pitch_bend_c, 1, 8096
3, 6240, Pitch_bend_c, 1, 8080
3, 6312, Pitch_bend_c, 1, 8096
3, 6340, Note_on_c, 1, 69, 0
3, 6364, Pitch_bend_c, 1, 8192
3, 6364, Note_on_c, 1, 69, 100
3, 6376, Pitch_bend_c, 1, 8160
3, 6380, Pitch_bend_c, 1, 8128
3, 6388, Pitch_bend_c, 1, 8112
3, 6400, Pitch_bend_c, 1, 8096
3, 6484, Note_on_c, 1, 69, 0
3, 6512, Pitch_bend_c, 1, 8192
3, 6512, Note_on_c, 1, 69, 99
3, 6520, Pitch_bend_c, 1, 8160
3, 6524, Pitch_bend_c, 1, 8144
3, 6528, Pitch_bend_c, 1, 8128
3, 6532, Pitch_bend_c, 1, 8112
3, 6536, Pitch_bend_c, 1, 8096
3, 6552, Pitch_bend_c, 1, 8080
3, 6652, Note_on_c, 1, 69, 0
3, 6672, Pitch_bend_c, 1, 8192
3, 6672, Note_on_c, 1, 69, 100
3, 6680, Pitch_bend_c, 1, 8160
3, 6684, Pitch_bend_c, 1, 8128
3, 6692, Pitch_bend_c, 1, 8112
3, 6708, Pitch_bend_c, 1, 8096
3, 6744, Pitch_bend_c, 1, 8080
3, 6804, Note_on_c, 1, 69, 0
3, 6832, Pitch_bend_c, 1, 8192
3, 6832, Note_on_c, 1, 69, 98
3, 6864, Pitch_bend_c, 1, 8128
3, 6868, Pitch_bend_c, 1, 8112
3, 6876, Pitch_bend_c, 1, 8096
3, 6928, Pitch_bend_c, 1, 8080
3, 6936, Pitch_bend_c, 1, 8096
3, 6952, Note_on_c, 1, 69, 0
3, 6972, Pitch_bend_c, 1, 8192
3, 6972, Note_on_c, 1, 69, 97
3, 6976, Pitch_bend_c, 1, 8160
3, 6980, Pitch_bend_c, 1, 8128
3, 6984, Pitch_bend_c, 1, 8112
3, 6984, Pitch_bend_c, 1, 8096
3, 6988, Pitch_bend_c, 1, 8080
3, 7000, Pitch_bend_c, 1, 8096
3, 7060, Pitch_bend_c, 1, 8080
3, 7068, Pitch_bend_c, 1, 8096
3, 7120, Pitch_bend_c, 1, 8080
3, 7124, Note_on_c, 1, 69, 0
3, 7160, Pitch_bend_c, 1, 8192
3, 7160, Note_on_c, 1, 69, 99
3, 7168, Pitch_bend_c, 1, 8160
3, 7168, Pitch_bend_c, 1, 8144
3, 7176, Pitch_bend_c, 1, 8128
3, 7176, Pitch_bend_c, 1, 8112
3, 7180, Pitch_bend_c, 1, 8096
3, 7292, Note_on_c, 1, 69, 0
3, 7312, Pitch_bend_c, 1, 8192
3, 7312, Note_on_c, 1, 69, 96
3, 7324, Pitch_bend_c, 1, 8160
3, 7372, Pitch_bend_c, 1, 8128
3, 7376, Pitch_bend_c, 1, 8112
3, 7424, Note_on_c, 1, 69, 0
3, 7464, Pitch_bend_c, 1, 8192
3, 7464, Note_on_c, 1, 69, 100
3, 7496, Pitch_bend_c, 1, 8144
3, 7504, Pitch_bend_c, 1, 8128
3, 7504, Pitch_bend_c, 1, 8112
3, 7516, Pitch_bend_c, 1, 8096
3, 7552, Pitch_bend_c, 1, 8080
3, 7560, Pitch_bend_c, 1, 8064
3, 7564, Pitch_bend_c, 1, 8048
3, 7568, Pitch_bend_c, 1, 8032
3, 7572, Pitch_bend_c, 1, 8016
3, 7588, Pitch_bend_c, 1, 7952
3, 7596, Pitch_bend_c, 1, 7904
3, 7596, Pitch_bend_c, 1, 7856
3, 7608, Note_on_c, 1, 69, 0
3, 7660, Pitch_bend_c, 1, 8192
3, 7660, Note_on_c, 1, 68, 88
3, 7684, Pitch_bend_c, 1, 8224
3, 7704, Pitch_bend_c, 1, 8240
3, 7720, Pitch_bend_c, 1, 8256
3, 7724, Pitch_bend_c, 1, 8224
3, 7736, Pitch_bend_c, 1, 8304
3, 7740, Pitch_bend_c, 1, 8320
3, 7760, Pitch_bend_c, 1, 8336
3, 7784, Pitch_bend_c, 1, 8320
3, 7792, Pitch_bend_c, 1, 8352
3, 7796, Pitch_bend_c, 1, 8320
3, 7800, Pitch_bend_c, 1, 8384
3, 7820, Pitch_bend_c, 1, 8480
3, 7824, Pitch_bend_c, 1, 8528
3, 7824, Pitch_bend_c, 1, 8560
3, 7828, Pitch_bend_c, 1, 8576
3, 7836, Pitch_bend_c, 1, 8656
3, 7840, Pitch_bend_c, 1, 8672
3, 7852, Pitch_bend_c, 1, 8656
3, 7852, Pitch_bend_c, 1, 8736
3, 7860, Pitch_bend_c, 1, 8752
3, 7864, Pitch_bend_c, 1, 8736
3, 7884, Pitch_bend_c, 1, 8784
3, 7888, Pitch_bend_c, 1, 8848
3, 7904, Pitch_bend_c, 1, 8704
3, 7908, Pitch_bend_c, 1, 8608
3, 7912, Pitch_bend_c, 1, 8560
3, 7916, Pitch_bend_c, 1, 8768
3, 7920, Pitch_bend_c, 1, 8752
3, 7928, Pitch_bend_c, 1, 8736
3, 7932, Pitch_bend_c, 1, 8768
3, 7932, Pitch_bend_c, 1, 8816
3, 7940, Pitch_bend_c, 1, 8832
3, 7940, Pitch_bend_c, 1, 8848
3, 7960, Pitch_bend_c, 1, 8864
3, 7960, Pitch_bend_c, 1, 8880
3, 7964, Pitch_bend_c, 1, 8944
3, 7972, Pitch_bend_c, 1, 8976
3, 7980, Pitch_bend_c, 1, 8992
3, 7984, Pitch_bend_c, 1, 9008
3, 7992, Pitch_bend_c, 1, 9024
3, 8020, Pitch_bend_c, 1, 8960
3, 8020, Pitch_bend_c, 1, 8928
3, 8024, Pitch_bend_c, 1, 8912
3, 8040, Pitch_bend_c, 1, 8928
3, 8048, Pitch_bend_c, 1, 8832
3, 8056, Pitch_bend_c, 1, 8752
3, 8060, Pitch_bend_c, 1, 8848
3, 8064, Pitch_bend_c, 1, 8960
3, 8072, Pitch_bend_c, 1, 8864
3, 8076, Pitch_bend_c, 1, 8800
3, 8120, Pitch_bend_c, 1, 8752
3, 8152, Pitch_bend_c, 1, 8720
3, 8168, Pitch_bend_c, 1, 8656
3, 8168, Pitch_bend_c, 1, 8560
3, 8196, Pitch_bend_c, 1, 8224
3, 8200, Pitch_bend_c, 1, 8208
3, 8208, Pitch_bend_c, 1, 8160
3, 8216, Pitch_bend_c, 1, 8048
3, 8228, Pitch_bend_c, 1, 7312
3, 8240, Pitch_bend_c, 1, 7296
3, 8248, Pitch_bend_c, 1, 7152
3, 8256, Pitch_bend_c, 1, 6752
3, 8264, Pitch_bend_c, 1, 6704
3, 8264, Pitch_bend_c, 1, 6624
3, 8272, Pitch_bend_c, 1, 6576
3, 8276, Pitch_bend_c, 1, 6512
3, 8280, Note_on_c, 1, 68, 0
3, 9612, Pitch_bend_c, 1, 8192
3, 9612, Note_on_c, 1, 65, 100
3, 9620, Pitch_bend_c, 1, 8272
3, 9624, Pitch_bend_c, 1, 8384
3, 9628, Pitch_bend_c, 1, 8496
3, 9628, Pitch_bend_c, 1, 8704
3, 9636, Pitch_bend_c, 1, 8752
3, 9640, Pitch_bend_c, 1, 8832
3, 9640, Pitch_bend_c, 1, 8912
3, 9644, Pitch_bend_c, 1, 9008
3, 9648, Pitch_bend_c, 1, 9088
3, 9656, Pitch_bend_c, 1, 9184
3, 9660, Pitch_bend_c, 1, 9536
3, 9668, Pitch_bend_c, 1, 9568
3, 9668, Pitch_bend_c, 1, 9648
3, 9676, Pitch_bend_c, 1, 9792
3, 9688, Pitch_bend_c, 1, 10384
3, 9692, Pitch_bend_c, 1, 10400
3, 9700, Pitch_bend_c, 1, 10448
3, 9704, Pitch_bend_c, 1, 10496
3, 9708, Pitch_bend_c, 1, 10560
3, 9716, Pitch_bend_c, 1, 10608
3, 9716, Pitch_bend_c, 1, 10736
3, 9720, Pitch_bend_c, 1, 10768
3, 9720, Pitch_bend_c, 1, 10784
3, 9724, Pitch_bend_c, 1, 10816
3, 9728, Pitch_bend_c, 1, 10832
3, 9732, Pitch_bend_c, 1, 10848
3, 9736, Pitch_bend_c, 1, 10864
3, 9768, Pitch_bend_c, 1, 10880
3, 9776, Pitch_bend_c, 1, 10896
3, 9788, Pitch_bend_c, 1, 10880
3, 9816, Pitch_bend_c, 1, 10864
3, 9824, Pitch_bend_c, 1, 10848
3, 9896, Note_on_c, 1, 65, 0
3, 9920, Pitch_bend_c, 1, 8192
3, 9920, Note_on_c, 1, 69, 99
3, 9936, Pitch_bend_c, 1, 8176
3, 9936, Pitch_bend_c, 1, 8160
3, 9940, Pitch_bend_c, 1, 8144
3, 9948, Pitch_bend_c, 1, 8128
3, 10056, Note_on_c, 1, 69, 0
3, 10088, Pitch_bend_c, 1, 8192
3, 10088, Note_on_c, 1, 69, 100
3, 10096, Pitch_bend_c, 1, 8160
3, 10096, Pitch_bend_c, 1, 8144
3, 10100, Pitch_bend_c, 1, 8128
3, 10208, Note_on_c, 1, 69, 0
3, 10236, Pitch_bend_c, 1, 8192
3, 10236, Note_on_c, 1, 69, 99
3, 10244, Pitch_bend_c, 1, 8160
3, 10248, Pitch_bend_c, 1, 8144
3, 10252, Pitch_bend_c, 1, 8128
3, 10264, Pitch_bend_c, 1, 8112
3, 10276, Pitch_bend_c, 1, 8096
3, 10352, Note_on_c, 1, 69, 0
3, 10380, Pitch_bend_c, 1, 8192
3, 10380, Note_on_c, 1, 69, 100
3, 10384, Pitch_bend_c, 1, 8160
3, 10392, Pitch_bend_c, 1, 8144
3, 10420, Pitch_bend_c, 1, 8112
3, 10424, Pitch_bend_c, 1, 8096
3, 10520, Note_on_c, 1, 69, 0
3, 10552, Pitch_bend_c, 1, 8192
3, 10552, Note_on_c, 1, 69, 99
3, 10564, Pitch_bend_c, 1, 8160
3, 10572, Pitch_bend_c, 1, 8144
3, 10576, Pitch_bend_c, 1, 8128
3, 10580, Pitch_bend_c, 1, 8112
3, 10588, Pitch_bend_c, 1, 8096
3, 10676, Note_on_c, 1, 69, 0
3, 10704, Pitch_bend_c, 1, 8192
3, 10708, Note_on_c, 1, 69, 100
3, 10712, Pitch_bend_c, 1, 8160
3, 10724, Pitch_bend_c, 1, 8128
3, 10732, Pitch_bend_c, 1, 8112
3, 10740, Pitch_bend_c, 1, 8096
3, 10828, Note_on_c, 1, 69, 0
3, 10852, Pitch_bend_c, 1, 8192
3, 10852, Note_on_c, 1, 69, 99
3, 10860, Pitch_bend_c, 1, 8160
3, 10864, Pitch_bend_c, 1, 8144
3, 10872, Pitch_bend_c, 1, 8128
3, 10872, Pitch_bend_c, 1, 8112
3, 10884, Pitch_bend_c, 1, 8096
3, 11008, Note_on_c, 1, 69, 0
3, 11024, Pitch_bend_c, 1, 8192
3, 11024, Note_on_c, 1, 69, 99
3, 11028, Pitch_bend_c, 1, 8160
3, 11036, Pitch_bend_c, 1, 8128
3, 11040, Pitch_bend_c, 1, 8112
3, 11040, Pitch_bend_c, 1, 8096
3, 11044, Pitch_bend_c, 1, 8080
3, 11076, Pitch_bend_c, 1, 8096
3, 11112, Pitch_bend_c, 1, 8080
3, 11148, Note_on_c, 1, 69, 0
3, 11176, Pitch_bend_c, 1, 8192
3, 11176, Note_on_c, 1, 69, 99
3, 11184, Pitch_bend_c, 1, 8160
3, 11188, Pitch_bend_c, 1, 8144
3, 11204, Pitch_bend_c, 1, 8128
3, 11208, Pitch_bend_c, 1, 8112
3, 11212, Pitch_bend_c, 1, 8096
3, 11220, Pitch_bend_c, 1, 8080
3, 11288, Note_on_c, 1, 69, 0
3, 11328, Pitch_bend_c, 1, 8192
3, 11328, Note_on_c, 1, 69, 100
3, 11344, Pitch_bend_c, 1, 8160
3, 11348, Pitch_bend_c, 1, 8128
3, 11352, Pitch_bend_c, 1, 8112
3, 11356, Pitch_bend_c, 1, 8096
3, 11360, Pitch_bend_c, 1, 8080
3, 11420, Pitch_bend_c, 1, 8064
3, 11424, Pitch_bend_c, 1, 8048
3, 11428, Pitch_bend_c, 1, 8032
3, 11432, Pitch_bend_c, 1, 8016
3, 11436, Pitch_bend_c, 1, 8000
3, 11436, Pitch_bend_c, 1, 7984
3, 11452, Pitch_bend_c, 1, 7888
3, 11460, Pitch_bend_c, 1, 7840
3, 11460, Pitch_bend_c, 1, 7792
3, 11460, Pitch_bend_c, 1, 7728
3, 11464, Pitch_bend_c, 1, 7712
3, 11464, Pitch_bend_c, 1, 7696
3, 11472, Note_on_c, 1, 69, 0
3, 11716, Pitch_bend_c, 1, 8192
3, 11720, Note_on_c, 1, 69, 53
3, 11732, Pitch_bend_c, 1, 8160
3, 11732, Pitch_bend_c, 1, 8144
3, 11744, Pitch_bend_c, 1, 8096
3, 11756, Pitch_bend_c, 1, 8064
3, 11760, Pitch_bend_c, 1, 8080
3, 11764, Pitch_bend_c, 1, 8128
3, 11780, Pitch_bend_c, 1, 8144
3, 11808, Pitch_bend_c, 1, 8128
3, 11820, Pitch_bend_c, 1, 8112
3, 11828, Pitch_bend_c, 1, 8096
3, 11836, Pitch_bend_c, 1, 8128
3, 11852, Pitch_bend_c, 1, 8160
3, 11856, Pitch_bend_c, 1, 8176
3, 11864, Pitch_bend_c, 1, 8192
3, 11868, Pitch_bend_c, 1, 8176
3, 11880, Pitch_bend_c, 1, 8160
3, 11916, Pitch_bend_c, 1, 8128
3, 11916, Pitch_bend_c, 1, 8096
3, 11924, Pitch_bend_c, 1, 8048
3, 11948, Pitch_bend_c, 1, 8032
3, 11976, Pitch_bend_c, 1, 7984
3, 11980, Pitch_bend_c, 1, 7952
3, 11984, Pitch_bend_c, 1, 7888
3, 12000, Pitch_bend_c, 1, 7216
3, 12020, Pitch_bend_c, 1, 7168
3, 12040, Pitch_bend_c, 1, 6384
3, 12048, Pitch_bend_c, 1, 6288
3, 12052, Pitch_bend_c, 1, 6176
3, 12064, Pitch_bend_c, 1, 6048
3, 12068, Pitch_bend_c, 1, 5920
3, 12068, Pitch_bend_c, 1, 5824
3, 12068, Pitch_bend_c, 1, 5744
3, 12072, Pitch_bend_c, 1, 5616
3, 12100, Note_on_c, 1, 69, 0
3, 12716, Pitch_bend_c, 1, 8192
3, 12716, Note_on_c, 1, 69, 100
3, 12752, Pitch_bend_c, 1, 8176
3, 12764, Pitch_bend_c, 1, 8160
3, 12796, Pitch_bend_c, 1, 8144
3, 12820, Pitch_bend_c, 1, 8128
3, 12852, Pitch_bend_c, 1, 8112
3, 12860, Pitch_bend_c, 1, 8096
3, 12864, Pitch_bend_c, 1, 8080
3, 12876, Pitch_bend_c, 1, 8064
3, 12880, Pitch_bend_c, 1, 8048
3, 12888, Pitch_bend_c, 1, 8032
3, 12896, Pitch_bend_c, 1, 8016
3, 12904, Pitch_bend_c, 1, 8000
3, 12908, Pitch_bend_c, 1, 7984
3, 12920, Pitch_bend_c, 1, 7968
3, 12924, Pitch_bend_c, 1, 7952
3, 12936, Pitch_bend_c, 1, 7920
3, 12948, Pitch_bend_c, 1, 7888
3, 12948, Pitch_bend_c, 1, 7840
3, 12956, Pitch_bend_c, 1, 7792
3, 12956, Pitch_bend_c, 1, 7728
3, 12964, Pitch_bend_c, 1, 7712
3, 12968, Pitch_bend_c, 1, 7680
3, 12976, Pitch_bend_c, 1, 7632
3, 12980, Pitch_bend_c, 1, 7584
3, 12992, Pitch_bend_c, 1, 7520
3, 12996, Pitch_bend_c, 1, 7456
3, 13004, Pitch_bend_c, 1, 7392
3, 13008, Pitch_bend_c, 1, 7328
3, 13020, Pitch_bend_c, 1, 7216
3, 13020, Pitch_bend_c, 1, 7136
3, 13024, Pitch_bend_c, 1, 7008
3, 13028, Pitch_bend_c, 1, 6992
3, 13032, Pitch_bend_c, 1, 6960
3, 13052, Pitch_bend_c, 1, 6880
3, 13060, Pitch_bend_c, 1, 6752
3, 13064, Pitch_bend_c, 1, 6624
3, 13064, Pitch_bend_c, 1, 6496
3, 13068, Pitch_bend_c, 1, 6256
3, 13072, Pitch_bend_c, 1, 6240
3, 13080, Pitch_bend_c, 1, 6192
3, 13092, Pitch_bend_c, 1, 6032
3, 13112, Pitch_bend_c, 1, 5856
3, 13112, Pitch_bend_c, 1, 5520
3, 13120, Pitch_bend_c, 1, 5440
3, 13132, Pitch_bend_c, 1, 5296
3, 13140, Pitch_bend_c, 1, 5136
3, 13144, Pitch_bend_c, 1, 4688
3, 13152, Pitch_bend_c, 1, 4640
3, 13156, Pitch_bend_c, 1, 4592
3, 13168, Pitch_bend_c, 1, 4208
3, 13168, Pitch_bend_c, 1, 4192
3, 13172, Pitch_bend_c, 1, 4144
3, 13196, Note_on_c, 1, 69, 0
3, 13436, Pitch_bend_c, 1, 8192
3, 13440, Pitch_bend_c, 1, 8240
3, 13444, Pitch_bend_c, 1, 8336
3, 13444, Pitch_bend_c, 1, 8400
3, 13448, Pitch_bend_c, 1, 8464
3, 13452, Pitch_bend_c, 1, 8528
3, 13452, Pitch_bend_c, 1, 8704
3, 13460, Pitch_bend_c, 1, 8720
3, 13460, Pitch_bend_c, 1, 8768
3, 13464, Pitch_bend_c, 1, 8800
3, 13468, Pitch_bend_c, 1, 8832
3, 13472, Pitch_bend_c, 1, 8864
3, 13476, Pitch_bend_c, 1, 8928
3, 13476, Pitch_bend_c, 1, 8992
3, 13480, Pitch_bend_c, 1, 9056
3, 13484, Pitch_bend_c, 1, 9120
3, 13488, Pitch_bend_c, 1, 9168
3, 13492, Pitch_bend_c, 1, 9216
3, 13492, Pitch_bend_c, 1, 9344
3, 13496, Pitch_bend_c, 1, 9360
3, 13500, Pitch_bend_c, 1, 9376
3, 13504, Pitch_bend_c, 1, 9408
3, 13504, Pitch_bend_c, 1, 9424
3, 13508, Pitch_bend_c, 1, 9440
3, 13512, Pitch_bend_c, 1, 9472
3, 13516, Pitch_bend_c, 1, 9488
3, 13516, Pitch_bend_c, 1, 9504
3, 13520, Pitch_bend_c, 1, 9520
3, 13556, Pitch_bend_c, 1, 9504
3, 13576, Pitch_bend_c, 1, 9488
3, 13608, Pitch_bend_c, 1, 9472
3, 13612, Pitch_bend_c, 1, 9456
3, 13616, Pitch_bend_c, 1, 9440
3, 13620, Pitch_bend_c, 1, 9424
3, 13624, Pitch_bend_c, 1, 9408
3, 13628, Pitch_bend_c, 1, 9392
3, 13636, Pitch_bend_c, 1, 9376
3, 13640, Pitch_bend_c, 1, 9360
3, 13644, Pitch_bend_c, 1, 9344
3, 13648, Pitch_bend_c, 1, 9328
3, 13652, Pitch_bend_c, 1, 9296
3, 13652, Pitch_bend_c, 1, 9280
3, 13656, Pitch_bend_c, 1, 9264
3, 13656, Pitch_bend_c, 1, 9232
3, 13660, Pitch_bend_c, 1, 9216
3, 13668, Pitch_bend_c, 1, 9200
3, 13668, Pitch_bend_c, 1, 9168
3, 13672, Pitch_bend_c, 1, 9136
3, 13672, Pitch_bend_c, 1, 9072
3, 13672, Pitch_bend_c, 1, 9056
3, 13676, Pitch_bend_c, 1, 9040
3, 13680, Pitch_bend_c, 1, 9024
3, 13684, Pitch_bend_c, 1, 8976
3, 13684, Pitch_bend_c, 1, 8944
3, 13688, Pitch_bend_c, 1, 8912
3, 13692, Pitch_bend_c, 1, 8864
3, 13692, Pitch_bend_c, 1, 8832
3, 13696, Pitch_bend_c, 1, 8768
3, 13700, Pitch_bend_c, 1, 8720
3, 13708, Pitch_bend_c, 1, 8624
3, 13712, Pitch_bend_c, 1, 8544
3, 13716, Pitch_bend_c, 1, 8464
3, 13716, Pitch_bend_c, 1, 8336
3, 13716, Pitch_bend_c, 1, 8320
3, 13720, Pitch_bend_c, 1, 8288
3, 13724, Pitch_bend_c, 1, 8240
3, 13728, Pitch_bend_c, 1, 8176
3, 13736, Pitch_bend_c, 1, 8080
3, 13736, Pitch_bend_c, 1, 7984
3, 13740, Pitch_bend_c, 1, 7904
3, 13740, Pitch_bend_c, 1, 7856
3, 13760, Pitch_bend_c, 1, 8192
3, 13776, Pitch_bend_c, 1, 7984
3, 13780, Pitch_bend_c, 1, 7536
3, 13780, Pitch_bend_c, 1, 7504
3, 13796, Pitch_bend_c, 1, 7312
3, 13796, Pitch_bend_c, 1, 7184
3, 13808, Pitch_bend_c, 1, 8192
3, 13820, Pitch_bend_c, 1, 8032
3, 15112, Pitch_bend_c, 1, 8192
3, 15112, Note_on_c, 1, 60, 72
3, 15132, Pitch_bend_c, 1, 8208
3, 15144, Pitch_bend_c, 1, 8240
3, 15148, Pitch_bend_c, 1, 8256
3, 15156, Pitch_bend_c, 1, 8288
3, 15160, Pitch_bend_c, 1, 8320
3, 15160, Pitch_bend_c, 1, 8336
3, 15172, Pitch_bend_c, 1, 8352
3, 15180, Pitch_bend_c, 1, 8400
3, 15188, Pitch_bend_c, 1, 8416
3, 15192, Pitch_bend_c, 1, 8464
3, 15200, Pitch_bend_c, 1, 8496
3, 15204, Pitch_bend_c, 1, 8528
3, 15204, Pitch_bend_c, 1, 8576
3, 15204, Pitch_bend_c, 1, 8592
3, 15216, Pitch_bend_c, 1, 8608
3, 15220, Pitch_bend_c, 1, 8624
3, 15220, Pitch_bend_c, 1, 8672
3, 15224, Pitch_bend_c, 1, 8720
3, 15228, Pitch_bend_c, 1, 8752
3, 15236, Pitch_bend_c, 1, 8784
3, 15240, Pitch_bend_c, 1, 8832
3, 15244, Pitch_bend_c, 1, 8864
3, 15248, Pitch_bend_c, 1, 8896
3, 15252, Pitch_bend_c, 1, 8928
3, 15256, Pitch_bend_c, 1, 8976
3, 15264, Pitch_bend_c, 1, 9040
3, 15268, Pitch_bend_c, 1, 9088
3, 15272, Pitch_bend_c, 1, 9136
3, 15280, Pitch_bend_c, 1, 9168
3, 15288, Pitch_bend_c, 1, 9232
3, 15288, Pitch_bend_c, 1, 9360
3, 15292, Pitch_bend_c, 1, 9376
3, 15296, Pitch_bend_c, 1, 9392
3, 15300, Pitch_bend_c, 1, 9424
3, 15308, Pitch_bend_c, 1, 9440
3, 15312, Pitch_bend_c, 1, 9456
3, 15324, Pitch_bend_c, 1, 9472
3, 15328, Pitch_bend_c, 1, 9488
3, 15344, Pitch_bend_c, 1, 9472
3, 15396, Pitch_bend_c, 1, 9488
3, 15400, Pitch_bend_c, 1, 9504
3, 15400, Pitch_bend_c, 1, 9520
3, 15408, Pitch_bend_c, 1, 9504
3, 15428, Pitch_bend_c, 1, 9488
3, 15444, Pitch_bend_c, 1, 9472
3, 15448, Pitch_bend_c, 1, 9488
3, 15456, Pitch_bend_c, 1, 9472
3, 15464, Pitch_bend_c, 1, 9488
3, 15476, Pitch_bend_c, 1, 9472
3, 15476, Pitch_bend_c, 1, 9488
3, 15484, Pitch_bend_c, 1, 9504
3, 15492, Pitch_bend_c, 1, 9520
3, 15500, Pitch_bend_c, 1, 9536
3, 15524, Pitch_bend_c, 1, 9552
3, 15560, Pitch_bend_c, 1, 9536
3, 15592, Pitch_bend_c, 1, 9520
3, 15596, Pitch_bend_c, 1, 9488
3, 15600, Pitch_bend_c, 1, 9472
3, 15604, Pitch_bend_c, 1, 9440
3, 15624, Pitch_bend_c, 1, 9360
3, 15628, Pitch_bend_c, 1, 9296
3, 15632, Pitch_bend_c, 1, 9216
3, 15640, Pitch_bend_c, 1, 9168
3, 15640, Pitch_bend_c, 1, 9072
3, 15644, Pitch_bend_c, 1, 9056
3, 15648, Pitch_bend_c, 1, 9008
3, 15696, Note_on_c, 1, 60, 0
3, 17264, Pitch_bend_c, 1, 8192
3, 17264, Note_on_c, 1, 66, 99
3, 17292, Pitch_bend_c, 1, 8272
3, 17296, Pitch_bend_c, 1, 9024
3, 17304, Pitch_bend_c, 1, 9056
3, 17308, Pitch_bend_c, 1, 9120
3, 17308, Pitch_bend_c, 1, 9184
3, 17312, Pitch_bend_c, 1, 9536
3, 17320, Pitch_bend_c, 1, 9568
3, 17324, Pitch_bend_c, 1, 9616
3, 17328, Pitch_bend_c, 1, 9696
3, 17336, Pitch_bend_c, 1, 9760
3, 17336, Pitch_bend_c, 1, 9840
3, 17340, Pitch_bend_c, 1, 9904
3, 17340, Pitch_bend_c, 1, 10064
3, 17344, Pitch_bend_c, 1, 10080
3, 17348, Pitch_bend_c, 1, 10096
3, 17352, Pitch_bend_c, 1, 10112
3, 17356, Pitch_bend_c, 1, 10144
3, 17360, Pitch_bend_c, 1, 10176
3, 17364, Pitch_bend_c, 1, 10208
3, 17368, Pitch_bend_c, 1, 10224
3, 17372, Pitch_bend_c, 1, 10256
3, 17384, Pitch_bend_c, 1, 10272
3, 17396, Note_on_c, 1, 66, 0
3, 17428, Pitch_bend_c, 1, 8192
3, 17428, Note_on_c, 1, 69, 100
3, 17436, Pitch_bend_c, 1, 8176
3, 17440, Pitch_bend_c, 1, 8160
3, 17472, Pitch_bend_c, 1, 8144
3, 17492, Pitch_bend_c, 1, 8160
3, 17508, Pitch_bend_c, 1, 8176
3, 17536, Note_on_c, 1, 69, 0
3, 17568, Pitch_bend_c, 1, 8192
3, 17568, Note_on_c, 1, 69, 100
3, 17608, Pitch_bend_c, 1, 8176
3, 17612, Pitch_bend_c, 1, 8160
3, 17700, Note_on_c, 1, 69, 0
3, 17736, Pitch_bend_c, 1, 8192
3, 17740, Note_on_c, 1, 69, 100
3, 17756, Pitch_bend_c, 1, 8176
3, 17760, Pitch_bend_c, 1, 8160
3, 17860, Note_on_c, 1, 69, 0
3, 17884, Pitch_bend_c, 1, 8192
3, 17884, Note_on_c, 1, 69, 99
3, 17940, Pitch_bend_c, 1, 8176
3, 18000, Note_on_c, 1, 69, 0
3, 18032, Pitch_bend_c, 1, 8192
3, 18032, Note_on_c, 1, 69, 99
3, 18112, Pitch_bend_c, 1, 8160
3, 18116, Pitch_bend_c, 1, 8144
3, 18120, Pitch_bend_c, 1, 8160
3, 18140, Pitch_bend_c, 1, 8176
3, 18164, Note_on_c, 1, 69, 0
3, 18192, Pitch_bend_c, 1, 8192
3, 18192, Note_on_c, 1, 69, 100
3, 18260, Pitch_bend_c, 1, 8176
3, 18268, Pitch_bend_c, 1, 8160
3, 18328, Note_on_c, 1, 69, 0
3, 18352, Pitch_bend_c, 1, 8192
3, 18356, Note_on_c, 1, 69, 99
3, 18452, Pitch_bend_c, 1, 8176
3, 18456, Note_on_c, 1, 69, 0
3, 18496, Pitch_bend_c, 1, 8192
3, 18500, Note_on_c, 1, 69, 99
3, 18632, Pitch_bend_c, 1, 8160
3, 18636, Pitch_bend_c, 1, 8144
3, 18644, Note_on_c, 1, 69, 0
3, 18672, Pitch_bend_c, 1, 8192
3, 18672, Note_on_c, 1, 69, 99
3, 18792, Note_on_c, 1, 69, 0
3, 18832, Pitch_bend_c, 1, 8192
3, 18836, Note_on_c, 1, 69, 98
3, 18916, Pitch_bend_c, 1, 8144
3, 18916, Pitch_bend_c, 1, 8128
3, 18920, Pitch_bend_c, 1, 8144
3, 18932, Pitch_bend_c, 1, 8160
3, 18936, Pitch_bend_c, 1, 8176
3, 18944, Note_on_c, 1, 69, 0
3, 18988, Pitch_bend_c, 1, 8192
3, 18988, Note_on_c, 1, 69, 100
3, 19004, Pitch_bend_c, 1, 8208
3, 19100, Pitch_bend_c, 1, 8160
3, 19100, Pitch_bend_c, 1, 8096
3, 19108, Pitch_bend_c, 1, 8064
3, 19108, Pitch_bend_c, 1, 8032
3, 19112, Pitch_bend_c, 1, 7984
3, 19116, Pitch_bend_c, 1, 7952
3, 19120, Pitch_bend_c, 1, 7920
3, 19172, Note_on_c, 1, 69, 0
3, 19180, Pitch_bend_c, 1, 8192
3, 19180, Note_on_c, 1, 68, 50
3, 19188, Pitch_bend_c, 1, 8208
3, 19196, Pitch_bend_c, 1, 8240
3, 19200, Pitch_bend_c, 1, 8208
3, 19208, Pitch_bend_c, 1, 8192
3, 19216, Pitch_bend_c, 1, 8176
3, 19224, Pitch_bend_c, 1, 8160
3, 19228, Pitch_bend_c, 1, 8176
3, 19236, Pitch_bend_c, 1, 8208
3, 19236, Pitch_bend_c, 1, 8224
3, 19244, Pitch_bend_c, 1, 8256
3, 19248, Pitch_bend_c, 1, 8288
3, 19260, Pitch_bend_c, 1, 8304
3, 19264, Pitch_bend_c, 1, 8320
3, 19280, Pitch_bend_c, 1, 8304
3, 19296, Pitch_bend_c, 1, 8320
3, 19312, Pitch_bend_c, 1, 8352
3, 19320, Pitch_bend_c, 1, 8400
3, 19324, Pitch_bend_c, 1, 8416
3, 19336, Pitch_bend_c, 1, 8464
3, 19336, Pitch_bend_c, 1, 8512
3, 19340, Pitch_bend_c, 1, 8528
3, 19344, Pitch_bend_c, 1, 8576
3, 19352, Pitch_bend_c, 1, 8544
3, 19360, Pitch_bend_c, 1, 8608
3, 19368, Pitch_bend_c, 1, 8656
3, 19372, Pitch_bend_c, 1, 8672
3, 19388, Pitch_bend_c, 1, 8704
3, 19408, Pitch_bend_c, 1, 8720
3, 19408, Pitch_bend_c, 1, 8736
3, 19412, Note_on_c, 1, 68, 0
3, 19416, Pitch_bend_c, 1, 8192
3, 19416, Note_on_c, 1, 69, 53
3, 19448, Pitch_bend_c, 1, 8208
3, 19464, Pitch_bend_c, 1, 8224
3, 19492, Pitch_bend_c, 1, 8240
3, 19492, Pitch_bend_c, 1, 8256
3, 19512, Pitch_bend_c, 1, 8240
3, 19532, Pitch_bend_c, 1, 8224
3, 19536, Pitch_bend_c, 1, 8208
3, 19564, Pitch_bend_c, 1, 8224
3, 19576, Pitch_bend_c, 1, 8256
3, 19620, Pitch_bend_c, 1, 8048
3, 19624, Pitch_bend_c, 1, 7936
3, 19628, Pitch_bend_c, 1, 7984
3, 19636, Pitch_bend_c, 1, 8000
3, 19640, Pitch_bend_c, 1, 7984
3, 19656, Pitch_bend_c, 1, 7856
3, 19672, Pitch_bend_c, 1, 7760
3, 19672, Pitch_bend_c, 1, 7584
3, 19680, Pitch_bend_c, 1, 7456
3, 19696, Pitch_bend_c, 1, 6656
3, 19704, Pitch_bend_c, 1, 6640
3, 19740, Pitch_bend_c, 1, 5696
3, 19744, Pitch_bend_c, 1, 5664
3, 19748, Pitch_bend_c, 1, 5536
3, 19756, Pitch_bend_c, 1, 5440
3, 19756, Pitch_bend_c, 1, 5360
3, 19760, Pitch_bend_c, 1, 5232
3, 19764, Note_on_c, 1, 69, 0
3, 21116, Pitch_bend_c, 1, 8192
3, 21120, Note_on_c, 1, 67, 100
3, 21120, Pitch_bend_c, 1, 8240
3, 21124, Pitch_bend_c, 1, 8320
3, 21128, Pitch_bend_c, 1, 8384
3, 21132, Pitch_bend_c, 1, 8448
3, 21136, Pitch_bend_c, 1, 8496
3, 21140, Pitch_bend_c, 1, 8544
3, 21140, Pitch_bend_c, 1, 8640
3, 21144, Pitch_bend_c, 1, 8656
3, 21148, Pitch_bend_c, 1, 8688
3, 21152, Pitch_bend_c, 1, 8752
3, 21156, Pitch_bend_c, 1, 8800
3, 21160, Pitch_bend_c, 1, 8864
3, 21164, Pitch_bend_c, 1, 8912
3, 21168, Pitch_bend_c, 1, 8960
3, 21172, Pitch_bend_c, 1, 9008
3, 21176, Pitch_bend_c, 1, 9056
3, 21176, Pitch_bend_c, 1, 9088
3, 21184, Pitch_bend_c, 1, 9120
3, 21188, Pitch_bend_c, 1, 9152
3, 21192, Pitch_bend_c, 1, 9168
3, 21192, Pitch_bend_c, 1, 9200
3, 21200, Pitch_bend_c, 1, 9232
3, 21204, Pitch_bend_c, 1, 9248
3, 21212, Pitch_bend_c, 1, 9264
3, 21220, Pitch_bend_c, 1, 9280
3, 21232, Pitch_bend_c, 1, 9296
3, 21240, Pitch_bend_c, 1, 9312
3, 21248, Pitch_bend_c, 1, 9328
3, 21248, Pitch_bend_c, 1, 9344
3, 21256, Pitch_bend_c, 1, 9360
3, 21260, Pitch_bend_c, 1, 9376
3, 21264, Pitch_bend_c, 1, 9392
3, 21272, Pitch_bend_c, 1, 9408
3, 21276, Pitch_bend_c, 1, 9424
3, 21392, Pitch_bend_c, 1, 9408
3, 21408, Pitch_bend_c, 1, 9392
3, 21416, Pitch_bend_c, 1, 9376
3, 21424, Pitch_bend_c, 1, 9360
3, 21428, Pitch_bend_c, 1, 9344
3, 21432, Pitch_bend_c, 1, 9328
3, 21436, Pitch_bend_c, 1, 9312
3, 21440, Pitch_bend_c, 1, 9296
3, 21448, Pitch_bend_c, 1, 9280
3, 21452, Pitch_bend_c, 1, 9264
3, 21452, Pitch_bend_c, 1, 9248
3, 21456, Pitch_bend_c, 1, 9232
3, 21460, Pitch_bend_c, 1, 9216
3, 21472, Pitch_bend_c, 1, 9168
3, 21476, Pitch_bend_c, 1, 9152
3, 21476, Pitch_bend_c, 1, 9088
3, 21484, Pitch_bend_c, 1, 9072
3, 21488, Pitch_bend_c, 1, 9056
3, 21492, Pitch_bend_c, 1, 9024
3, 21500, Pitch_bend_c, 1, 8960
3, 21504, Pitch_bend_c, 1, 8912
3, 21508, Pitch_bend_c, 1, 8864
3, 21508, Pitch_bend_c, 1, 8832
3, 21524, Pitch_bend_c, 1, 8752
3, 21524, Pitch_bend_c, 1, 8688
3, 21528, Pitch_bend_c, 1, 8640
3, 21532, Pitch_bend_c, 1, 8608
3, 21536, Pitch_bend_c, 1, 8560
3, 21536, Pitch_bend_c, 1, 8528
3, 21544, Pitch_bend_c, 1, 8496
3, 21548, Pitch_bend_c, 1, 8448
3, 21552, Pitch_bend_c, 1, 8400
3, 21552, Pitch_bend_c, 1, 8288
3, 21552, Pitch_bend_c, 1, 8272
3, 21564, Pitch_bend_c, 1, 8224
3, 21568, Pitch_bend_c, 1, 8160
3, 21572, Pitch_bend_c, 1, 8096
3, 21576, Pitch_bend_c, 1, 8032
3, 21588, Pitch_bend_c, 1, 7936
3, 21592, Pitch_bend_c, 1, 7728
3, 21596, Pitch_bend_c, 1, 7680
3, 21604, Pitch_bend_c, 1, 7632
3, 21616, Pitch_bend_c, 1, 7456
3, 21620, Pitch_bend_c, 1, 7328
3, 21624, Pitch_bend_c, 1, 7232
3, 21632, Pitch_bend_c, 1, 7136
3, 21632, Pitch_bend_c, 1, 6960
3, 21652, Pitch_bend_c, 1, 6768
3, 21652, Pitch_bend_c, 1, 6640
3, 21660, Pitch_bend_c, 1, 6544
3, 21664, Note_on_c, 1, 67, 0
3, 21680, Pitch_bend_c, 1, 8192
3, 21680, Note_on_c, 1, 64, 95
3, 21688, Pitch_bend_c, 1, 8144
3, 21700, Note_on_c, 1, 64, 0
3, 22800, Pitch_bend_c, 1, 8192
3, 22804, Note_on_c, 1, 60, 59
3, 22808, Note_on_c, 1, 60, 0
3, 22820, Pitch_bend_c, 1, 8192
3, 22820, Note_on_c, 1, 60, 86
3, 22844, Pitch_bend_c, 1, 8208
3, 22852, Pitch_bend_c, 1, 8224
3, 22864, Pitch_bend_c, 1, 8256
3, 22872, Pitch_bend_c, 1, 8272
3, 22876, Pitch_bend_c, 1, 8288
3, 22880, Pitch_bend_c, 1, 8304
3, 22884, Pitch_bend_c, 1, 8336
3, 22888, Pitch_bend_c, 1, 8352
3, 22900, Pitch_bend_c, 1, 8368
3, 22908, Pitch_bend_c, 1, 8416
3, 22912, Pitch_bend_c, 1, 8448
3, 22916, Pitch_bend_c, 1, 8496
3, 22928, Pitch_bend_c, 1, 8544
3, 22928, Pitch_bend_c, 1, 8688
3, 22936, Pitch_bend_c, 1, 8704
3, 22944, Pitch_bend_c, 1, 8736
3, 22956, Pitch_bend_c, 1, 8784
3, 22960, Pitch_bend_c, 1, 8848
3, 22964, Pitch_bend_c, 1, 8896
3, 22976, Pitch_bend_c, 1, 8960
3, 22980, Pitch_bend_c, 1, 9040
3, 22988, Pitch_bend_c, 1, 9120
3, 22992, Pitch_bend_c, 1, 9184
3, 22992, Pitch_bend_c, 1, 9232
3, 22996, Pitch_bend_c, 1, 9344
3, 23000, Pitch_bend_c, 1, 9360
3, 23004, Pitch_bend_c, 1, 9376
3, 23008, Pitch_bend_c, 1, 9392
3, 23016, Pitch_bend_c, 1, 9408
3, 23020, Pitch_bend_c, 1, 9424
3, 23024, Pitch_bend_c, 1, 9440
3, 23028, Pitch_bend_c, 1, 9456
3, 23040, Pitch_bend_c, 1, 9472
3, 23040, Pitch_bend_c, 1, 9488
3, 23048, Pitch_bend_c, 1, 9504
3, 23264, Pitch_bend_c, 1, 9488
3, 23276, Pitch_bend_c, 1, 9472
3, 23292, Pitch_bend_c, 1, 9440
3, 23296, Pitch_bend_c, 1, 9424
3, 23300, Pitch_bend_c, 1, 9408
3, 23348, Pitch_bend_c, 1, 9264
3, 23356, Pitch_bend_c, 1, 9152
3, 23356, Pitch_bend_c, 1, 9008
3, 23364, Pitch_bend_c, 1, 8976
3, 23400, Pitch_bend_c, 1, 8768
3, 23416, Pitch_bend_c, 1, 8288
3, 23416, Pitch_bend_c, 1, 8272
3, 23424, Pitch_bend_c, 1, 8256
3, 23428, Pitch_bend_c, 1, 8208
3, 23432, Pitch_bend_c, 1, 8160
3, 23444, Note_on_c, 1, 60, 0
3, 32688, Pitch_bend_c, 1, 8192
3, 32688, Note_on_c, 1, 67, 100
3, 32696, Pitch_bend_c, 1, 8208
3, 32704, Pitch_bend_c, 1, 8256
3, 32708, Pitch_bend_c, 1, 8320
3, 32720, Pitch_bend_c, 1, 8384
3, 32724, Pitch_bend_c, 1, 8464
3, 32728, Pitch_bend_c, 1, 8560
3, 32728, Pitch_bend_c, 1, 8784
3, 32732, Pitch_bend_c, 1, 8800
3, 32732, Pitch_bend_c, 1, 8816
3, 32736, Pitch_bend_c, 1, 8832
3, 32744, Pitch_bend_c, 1, 8864
3, 32752, Pitch_bend_c, 1, 8912
3, 32752, Pitch_bend_c, 1, 8976
3, 32760, Pitch_bend_c, 1, 9024
3, 32764, Pitch_bend_c, 1, 9072
3, 32768, Pitch_bend_c, 1, 9120
3, 32772, Pitch_bend_c, 1, 9152
3, 32784, Pitch_bend_c, 1, 9200
3, 32788, Pitch_bend_c, 1, 9232
3, 32788, Pitch_bend_c, 1, 9296
3, 32796, Pitch_bend_c, 1, 9312
3, 32800, Pitch_bend_c, 1, 9328
3, 32812, Pitch_bend_c, 1, 9280
3, 32816, Note_on_c, 1, 67, 0
3, 32844, Pitch_bend_c, 1, 8192
3, 32844, Note_on_c, 1, 69, 100
3, 32856, Pitch_bend_c, 1, 8128
3, 32864, Pitch_bend_c, 1, 8080
3, 32872, Pitch_bend_c, 1, 8048
3, 32872, Pitch_bend_c, 1, 8032
3, 32880, Pitch_bend_c, 1, 8016
3, 32884, Pitch_bend_c, 1, 8000
3, 32944, Pitch_bend_c, 1, 8016
3, 32964, Pitch_bend_c, 1, 8144
3, 32964, Pitch_bend_c, 1, 8160
3, 32972, Pitch_bend_c, 1, 8128
3, 32972, Pitch_bend_c, 1, 8112
3, 32976, Pitch_bend_c, 1, 8080
3, 32980, Pitch_bend_c, 1, 8064
3, 33004, Pitch_bend_c, 1, 8080
3, 33020, Pitch_bend_c, 1, 8096
3, 33064, Pitch_bend_c, 1, 8080
3, 33084, Pitch_bend_c, 1, 8032
3, 33088, Pitch_bend_c, 1, 7984
3, 33092, Pitch_bend_c, 1, 7936
3, 33104, Note_on_c, 1, 69, 0
3, 33132, Pitch_bend_c, 1, 8192
3, 33132, Note_on_c, 1, 68, 100
3, 33144, Pitch_bend_c, 1, 8208
3, 33148, Pitch_bend_c, 1, 8224
3, 33152, Pitch_bend_c, 1, 8240
3, 33164, Pitch_bend_c, 1, 8256
3, 33168, Pitch_bend_c, 1, 8272
3, 33172, Pitch_bend_c, 1, 8304
3, 33180, Pitch_bend_c, 1, 8320
3, 33184, Pitch_bend_c, 1, 8352
3, 33188, Pitch_bend_c, 1, 8384
3, 33196, Pitch_bend_c, 1, 8416
3, 33196, Pitch_bend_c, 1, 8448
3, 33204, Pitch_bend_c, 1, 8464
3, 33204, Pitch_bend_c, 1, 8496
3, 33216, Pitch_bend_c, 1, 8528
3, 33220, Pitch_bend_c, 1, 8560
3, 33220, Pitch_bend_c, 1, 8656
3, 33244, Pitch_bend_c, 1, 8672
3, 33252, Pitch_bend_c, 1, 8656
3, 33264, Note_on_c, 1, 68, 0
3, 33292, Pitch_bend_c, 1, 8192
3, 33292, Note_on_c, 1, 69, 99
3, 33304, Pitch_bend_c, 1, 8128
3, 33312, Pitch_bend_c, 1, 8080
3, 33312, Pitch_bend_c, 1, 8048
3, 33344, Pitch_bend_c, 1, 8032
3, 33348, Pitch_bend_c, 1, 8016
3, 33352, Pitch_bend_c, 1, 8000
3, 33400, Note_on_c, 1, 69, 0
3, 33432, Pitch_bend_c, 1, 8192
3, 33432, Note_on_c, 1, 69, 100
3, 33444, Pitch_bend_c, 1, 8160
3, 33452, Pitch_bend_c, 1, 8128
3, 33452, Pitch_bend_c, 1, 8112
3, 33480, Pitch_bend_c, 1, 8096
3, 33500, Pitch_bend_c, 1, 8080
3, 33504, Pitch_bend_c, 1, 8064
3, 33508, Pitch_bend_c, 1, 8048
3, 33512, Pitch_bend_c, 1, 8032
3, 33520, Pitch_bend_c, 1, 8000
3, 33524, Pitch_bend_c, 1, 7968
3, 33532, Pitch_bend_c, 1, 7936
3, 33536, Pitch_bend_c, 1, 7888
3, 33540, Pitch_bend_c, 1, 7840
3, 33548, Note_on_c, 1, 69, 0
3, 33592, Pitch_bend_c, 1, 8192
3, 33592, Note_on_c, 1, 68, 100
3, 33612, Pitch_bend_c, 1, 8208
3, 33616, Pitch_bend_c, 1, 8224
3, 33624, Pitch_bend_c, 1, 8240
3, 33628, Pitch_bend_c, 1, 8272
3, 33632, Pitch_bend_c, 1, 8288
3, 33636, Pitch_bend_c, 1, 8320
3, 33640, Pitch_bend_c, 1, 8352
3, 33644, Pitch_bend_c, 1, 8368
3, 33652, Pitch_bend_c, 1, 8400
3, 33656, Pitch_bend_c, 1, 8432
3, 33660, Pitch_bend_c, 1, 8464
3, 33664, Pitch_bend_c, 1, 8496
3, 33672, Pitch_bend_c, 1, 8512
3, 33676, Pitch_bend_c, 1, 8528
3, 33680, Pitch_bend_c, 1, 8576
3, 33704, Pitch_bend_c, 1, 8592
3, 33712, Note_on_c, 1, 68, 0
3, 33752, Pitch_bend_c, 1, 8192
3, 33752, Note_on_c, 1, 69, 99
3, 33764, Pitch_bend_c, 1, 8112
3, 33772, Pitch_bend_c, 1, 8032
3, 33772, Pitch_bend_c, 1, 7968
3, 33772, Pitch_bend_c, 1, 7936
3, 33780, Pitch_bend_c, 1, 7920
3, 33784, Pitch_bend_c, 1, 7904
3, 33796, Pitch_bend_c, 1, 7888
3, 33828, Pitch_bend_c, 1, 7904
3, 33836, Pitch_bend_c, 1, 7920
3, 33840, Pitch_bend_c, 1, 7936
3, 33844, Pitch_bend_c, 1, 7968
3, 33852, Pitch_bend_c, 1, 8000
3, 33856, Note_on_c, 1, 69, 0
3, 33884, Pitch_bend_c, 1, 8192
3, 33884, Note_on_c, 1, 69, 100
3, 33900, Pitch_bend_c, 1, 8160
3, 33904, Pitch_bend_c, 1, 8144
3, 33912, Pitch_bend_c, 1, 8128
3, 33916, Pitch_bend_c, 1, 8112
3, 33932, Pitch_bend_c, 1, 8096
3, 33944, Pitch_bend_c, 1, 8080
3, 33952, Pitch_bend_c, 1, 8064
3, 33956, Pitch_bend_c, 1, 8048
3, 33964, Pitch_bend_c, 1, 8032
3, 33964, Pitch_bend_c, 1, 8016
3, 33972, Pitch_bend_c, 1, 8000
3, 33976, Pitch_bend_c, 1, 7968
3, 33984, Pitch_bend_c, 1, 7920
3, 33984, Pitch_bend_c, 1, 7872
3, 33988, Pitch_bend_c, 1, 7840
3, 33992, Pitch_bend_c, 1, 7792
3, 33992, Pitch_bend_c, 1, 7712
3, 33996, Pitch_bend_c, 1, 7696
3, 34004, Note_on_c, 1, 69, 0
3, 34040, Pitch_bend_c, 1, 8192
3, 34040, Note_on_c, 1, 68, 100
3, 34052, Pitch_bend_c, 1, 8176
3, 34060, Pitch_bend_c, 1, 8160
3, 34064, Pitch_bend_c, 1, 8144
3, 34072, Pitch_bend_c, 1, 8160
3, 34076, Pitch_bend_c, 1, 8176
3, 34084, Pitch_bend_c, 1, 8192
3, 34084, Pitch_bend_c, 1, 8208
3, 34092, Pitch_bend_c, 1, 8224
3, 34100, Pitch_bend_c, 1, 8256
3, 34104, Pitch_bend_c, 1, 8304
3, 34108, Pitch_bend_c, 1, 8352
3, 34120, Pitch_bend_c, 1, 8384
3, 34124, Pitch_bend_c, 1, 8432
3, 34124, Pitch_bend_c, 1, 8480
3, 34132, Pitch_bend_c, 1, 8512
3, 34136, Pitch_bend_c, 1, 8544
3, 34140, Pitch_bend_c, 1, 8624
3, 34152, Pitch_bend_c, 1, 8640
3, 34156, Pitch_bend_c, 1, 8656
3, 34164, Note_on_c, 1, 68, 0
3, 34196, Pitch_bend_c, 1, 8192
3, 34196, Note_on_c, 1, 69, 100
3, 34208, Pitch_bend_c, 1, 8144
3, 34212, Pitch_bend_c, 1, 8096
3, 34216, Pitch_bend_c, 1, 8064
3, 34224, Pitch_bend_c, 1, 8048
3, 34240, Pitch_bend_c, 1, 8032
3, 34252, Pitch_bend_c, 1, 8016
3, 34312, Note_on_c, 1, 69, 0
3, 34340, Pitch_bend_c, 1, 8192
3, 34340, Note_on_c, 1, 69, 100
3, 34364, Pitch_bend_c, 1, 8128
3, 34368, Pitch_bend_c, 1, 8096
3, 34372, Pitch_bend_c, 1, 8080
3, 34372, Pitch_bend_c, 1, 8064
3, 34392, Pitch_bend_c, 1, 8048
3, 34408, Pitch_bend_c, 1, 8016
3, 34412, Pitch_bend_c, 1, 7984
3, 34432, Pitch_bend_c, 1, 7904
3, 34440, Pitch_bend_c, 1, 7808
3, 34440, Pitch_bend_c, 1, 7664
3, 34448, Pitch_bend_c, 1, 7632
3, 34460, Note_on_c, 1, 69, 0
3, 34520, Pitch_bend_c, 1, 8192
3, 34520, Note_on_c, 1, 67, 37
3, 34528, Pitch_bend_c, 1, 8208
3, 34540, Pitch_bend_c, 1, 8256
3, 34548, Pitch_bend_c, 1, 8304
3, 34560, Pitch_bend_c, 1, 8432
3, 34580, Pitch_bend_c, 1, 8528
3, 34612, Pitch_bend_c, 1, 8560
3, 34616, Pitch_bend_c, 1, 8608
3, 34620, Pitch_bend_c, 1, 8736
3, 34620, Pitch_bend_c, 1, 8688
3, 34628, Pitch_bend_c, 1, 8752
3, 34636, Pitch_bend_c, 1, 8944
3, 34640, Pitch_bend_c, 1, 8896
3, 34648, Pitch_bend_c, 1, 8832
3, 34660, Pitch_bend_c, 1, 8864
3, 34672, Pitch_bend_c, 1, 8816
3, 34676, Pitch_bend_c, 1, 8784
3, 34692, Pitch_bend_c, 1, 8816
3, 34692, Pitch_bend_c, 1, 8960
3, 34704, Pitch_bend_c, 1, 9040
3, 34720, Pitch_bend_c, 1, 9104
3, 34732, Pitch_bend_c, 1, 9168
3, 34740, Pitch_bend_c, 1, 9136
3, 34752, Pitch_bend_c, 1, 9120
3, 34752, Pitch_bend_c, 1, 9184
3, 34764, Pitch_bend_c, 1, 9264
3, 34764, Pitch_bend_c, 1, 9424
3, 34780, Pitch_bend_c, 1, 9504
3, 34792, Pitch_bend_c, 1, 9488
3, 34792, Pitch_bend_c, 1, 9440
3, 34796, Pitch_bend_c, 1, 9424
3, 34800, Pitch_bend_c, 1, 9408
3, 34804, Pitch_bend_c, 1, 9392
3, 34872, Pitch_bend_c, 1, 9424
3, 34880, Pitch_bend_c, 1, 9504
3, 34900, Pitch_bend_c, 1, 9440
3, 34900, Pitch_bend_c, 1, 9408
3, 34904, Pitch_bend_c, 1, 9424
3, 34908, Pitch_bend_c, 1, 9472
3, 34916, Pitch_bend_c, 1, 9504
3, 34920, Pitch_bend_c, 1, 9520
3, 34932, Pitch_bend_c, 1, 9456
3, 34936, Pitch_bend_c, 1, 9440
3, 34948, Pitch_bend_c, 1, 9456
3, 34952, Pitch_bend_c, 1, 9440
3, 34952, Pitch_bend_c, 1, 9408
3, 34956, Pitch_bend_c, 1, 9456
3, 34964, Pitch_bend_c, 1, 9504
3, 34968, Pitch_bend_c, 1, 9552
3, 34980, Pitch_bend_c, 1, 9680
3, 34980, Pitch_bend_c, 1, 9600
3, 34984, Pitch_bend_c, 1, 9456
3, 34988, Pitch_bend_c, 1, 9344
3, 35024, Pitch_bend_c, 1, 9376
3, 35048, Pitch_bend_c, 1, 9392
3, 35092, Pitch_bend_c, 1, 9360
3, 35116, Pitch_bend_c, 1, 9328
3, 35152, Pitch_bend_c, 1, 8352
3, 35172, Pitch_bend_c, 1, 8288
3, 35176, Pitch_bend_c, 1, 8208
3, 35188, Pitch_bend_c, 1, 8144
3, 35192, Pitch_bend_c, 1, 8048
3, 35196, Pitch_bend_c, 1, 7904
3, 35236, Pitch_bend_c, 1, 6688
3, 35240, Pitch_bend_c, 1, 6656
3, 35244, Pitch_bend_c, 1, 6624
3, 35252, Pitch_bend_c, 1, 6608
3, 35252, Pitch_bend_c, 1, 6544
3, 35292, Note_on_c, 1, 67, 0
3, 40332, Pitch_bend_c, 1, 8192
3, 40332, Note_on_c, 1, 68, 100
3, 40360, Pitch_bend_c, 1, 8160
3, 40364, Pitch_bend_c, 1, 8208
3, 40364, Pitch_bend_c, 1, 8288
3, 40368, Pitch_bend_c, 1, 8352
3, 40384, Pitch_bend_c, 1, 8416
3, 40384, Pitch_bend_c, 1, 8480
3, 40392, Pitch_bend_c, 1, 8528
3, 40396, Pitch_bend_c, 1, 8576
3, 40396, Pitch_bend_c, 1, 8688
3, 40412, Pitch_bend_c, 1, 8704
3, 40416, Pitch_bend_c, 1, 8720
3, 40420, Pitch_bend_c, 1, 8736
3, 40436, Pitch_bend_c, 1, 8752
3, 40440, Pitch_bend_c, 1, 8768
3, 40448, Pitch_bend_c, 1, 8784
3, 40456, Note_on_c, 1, 68, 0
3, 40488, Pitch_bend_c, 1, 8192
3, 40488, Note_on_c, 1, 69, 99
3, 40520, Pitch_bend_c, 1, 8160
3, 40524, Pitch_bend_c, 1, 8144
3, 40536, Pitch_bend_c, 1, 8128
3, 40604, Note_on_c, 1, 69, 0
3, 40628, Pitch_bend_c, 1, 8192
3, 40628, Note_on_c, 1, 69, 100
3, 40636, Pitch_bend_c, 1, 8176
3, 40664, Pitch_bend_c, 1, 8144
3, 40672, Pitch_bend_c, 1, 8128
3, 40692, Pitch_bend_c, 1, 8144
3, 40696, Pitch_bend_c, 1, 8160
3, 40732, Pitch_bend_c, 1, 8128
3, 40756, Note_on_c, 1, 69, 0
3, 40800, Pitch_bend_c, 1, 8192
3, 40800, Note_on_c, 1, 68, 100
3, 40812, Pitch_bend_c, 1, 8208
3, 40844, Pitch_bend_c, 1, 8240
3, 40844, Pitch_bend_c, 1, 8304
3, 40848, Pitch_bend_c, 1, 8352
3, 40876, Pitch_bend_c, 1, 8432
3, 40880, Pitch_bend_c, 1, 8512
3, 40884, Pitch_bend_c, 1, 8592
3, 40884, Pitch_bend_c, 1, 8736
3, 40984, Pitch_bend_c, 1, 8752
3, 40996, Pitch_bend_c, 1, 8768
3, 41028, Pitch_bend_c, 1, 8752
3, 41036, Pitch_bend_c, 1, 8768
3, 41080, Note_on_c, 1, 68, 0
3, 41112, Pitch_bend_c, 1, 8192
3, 41112, Note_on_c, 1, 69, 100
3, 41136, Pitch_bend_c, 1, 8160
3, 41136, Pitch_bend_c, 1, 8144
3, 41140, Pitch_bend_c, 1, 8128
3, 41200, Pitch_bend_c, 1, 8112
3, 41208, Pitch_bend_c, 1, 8096
3, 41212, Pitch_bend_c, 1, 8080
3, 41216, Pitch_bend_c, 1, 8064
3, 41216, Pitch_bend_c, 1, 8032
3, 41220, Pitch_bend_c, 1, 8000
3, 41228, Pitch_bend_c, 1, 7968
3, 41232, Pitch_bend_c, 1, 7936
3, 41236, Note_on_c, 1, 69, 0
3, 41272, Pitch_bend_c, 1, 8192
3, 41272, Note_on_c, 1, 68, 100
3, 41304, Pitch_bend_c, 1, 8208
3, 41308, Pitch_bend_c, 1, 8224
3, 41316, Pitch_bend_c, 1, 8256
3, 41324, Pitch_bend_c, 1, 8272
3, 41324, Pitch_bend_c, 1, 8320
3, 41336, Pitch_bend_c, 1, 8352
3, 41340, Pitch_bend_c, 1, 8400
3, 41348, Pitch_bend_c, 1, 8448
3, 41356, Pitch_bend_c, 1, 8496
3, 41360, Pitch_bend_c, 1, 8528
3, 41360, Pitch_bend_c, 1, 8640
3, 41364, Pitch_bend_c, 1, 8656
3, 41368, Pitch_bend_c, 1, 8672
3, 41376, Pitch_bend_c, 1, 8688
3, 41376, Pitch_bend_c, 1, 8704
3, 41384, Pitch_bend_c, 1, 8720
3, 41384, Pitch_bend_c, 1, 8736
3, 41412, Note_on_c, 1, 68, 0
3, 41432, Pitch_bend_c, 1, 8192
3, 41432, Note_on_c, 1, 69, 97
3, 41460, Pitch_bend_c, 1, 8128
3, 41460, Pitch_bend_c, 1, 8112
3, 41464, Pitch_bend_c, 1, 8096
3, 41472, Pitch_bend_c, 1, 8080
3, 41520, Pitch_bend_c, 1, 8064
3, 41536, Pitch_bend_c, 1, 8080
3, 41540, Pitch_bend_c, 1, 8096
3, 41552, Note_on_c, 1, 69, 0
3, 41592, Pitch_bend_c, 1, 8192
3, 41592, Note_on_c, 1, 69, 100
3, 41616, Pitch_bend_c, 1, 8160
3, 41624, Pitch_bend_c, 1, 8144
3, 41656, Pitch_bend_c, 1, 8128
3, 41664, Pitch_bend_c, 1, 8112
3, 41668, Pitch_bend_c, 1, 8096
3, 41676, Pitch_bend_c, 1, 8080
3, 41676, Pitch_bend_c, 1, 8064
3, 41688, Pitch_bend_c, 1, 7984
3, 41692, Pitch_bend_c, 1, 7936
3, 41704, Pitch_bend_c, 1, 7872
3, 41708, Note_on_c, 1, 69, 0
3, 41748, Pitch_bend_c, 1, 8192
3, 41752, Note_on_c, 1, 68, 99
3, 41768, Pitch_bend_c, 1, 8144
3, 41772, Pitch_bend_c, 1, 8112
3, 41776, Pitch_bend_c, 1, 8080
3, 41792, Pitch_bend_c, 1, 8096
3, 41792, Pitch_bend_c, 1, 8112
3, 41800, Pitch_bend_c, 1, 8128
3, 41804, Pitch_bend_c, 1, 8144
3, 41812, Pitch_bend_c, 1, 8192
3, 41812, Pitch_bend_c, 1, 8224
3, 41820, Pitch_bend_c, 1, 8272
3, 41824, Pitch_bend_c, 1, 8304
3, 41828, Pitch_bend_c, 1, 8336
3, 41836, Pitch_bend_c, 1, 8384
3, 41840, Pitch_bend_c, 1, 8432
3, 41844, Pitch_bend_c, 1, 8480
3, 41848, Pitch_bend_c, 1, 8512
3, 41856, Pitch_bend_c, 1, 8528
3, 41856, Pitch_bend_c, 1, 8592
3, 41872, Note_on_c, 1, 68, 0
3, 41916, Pitch_bend_c, 1, 8192
3, 41916, Note_on_c, 1, 69, 98
3, 41924, Pitch_bend_c, 1, 8160
3, 41928, Pitch_bend_c, 1, 8112
3, 41932, Pitch_bend_c, 1, 8096
3, 41940, Pitch_bend_c, 1, 8080
3, 41944, Pitch_bend_c, 1, 8064
3, 41960, Pitch_bend_c, 1, 8080
3, 41972, Pitch_bend_c, 1, 8096
3, 42000, Pitch_bend_c, 1, 8112
3, 42012, Note_on_c, 1, 69, 0
3, 42052, Pitch_bend_c, 1, 8192
3, 42052, Note_on_c, 1, 69, 99
3, 42072, Pitch_bend_c, 1, 8208
3, 42120, Pitch_bend_c, 1, 8144
3, 42124, Pitch_bend_c, 1, 8096
3, 42128, Pitch_bend_c, 1, 8048
3, 42132, Pitch_bend_c, 1, 8000
3, 42156, Pitch_bend_c, 1, 7888
3, 42160, Note_on_c, 1, 69, 0
3, 42160, Pitch_bend_c, 1, 7808
3, 42224, Pitch_bend_c, 1, 8192
3, 42224, Note_on_c, 1, 68, 77
3, 42260, Pitch_bend_c, 1, 8128
3, 42284, Pitch_bend_c, 1, 8096
3, 42296, Pitch_bend_c, 1, 8080
3, 42304, Pitch_bend_c, 1, 8128
3, 42316, Pitch_bend_c, 1, 8256
3, 42324, Pitch_bend_c, 1, 8336
3, 42332, Pitch_bend_c, 1, 8320
3, 42344, Pitch_bend_c, 1, 8176
3, 42352, Pitch_bend_c, 1, 8000
3, 42360, Pitch_bend_c, 1, 8080
3, 42384, Pitch_bend_c, 1, 8032
3, 42392, Pitch_bend_c, 1, 8048
3, 42400, Pitch_bend_c, 1, 8096
3, 42412, Pitch_bend_c, 1, 8192
3, 42432, Pitch_bend_c, 1, 8304
3, 42436, Pitch_bend_c, 1, 8448
3, 42456, Pitch_bend_c, 1, 9024
3, 42460, Pitch_bend_c, 1, 9056
3, 42472, Pitch_bend_c, 1, 8976
3, 42476, Pitch_bend_c, 1, 9008
3, 42484, Pitch_bend_c, 1, 9088
3, 42512, Pitch_bend_c, 1, 8960
3, 42516, Pitch_bend_c, 1, 8928
3, 42544, Pitch_bend_c, 1, 8896
3, 42552, Pitch_bend_c, 1, 8864
3, 42556, Pitch_bend_c, 1, 8832
3, 42560, Pitch_bend_c, 1, 8864
3, 42592, Pitch_bend_c, 1, 8880
3, 42604, Pitch_bend_c, 1, 8912
3, 42608, Pitch_bend_c, 1, 8928
3, 42612, Pitch_bend_c, 1, 8944
3, 42644, Pitch_bend_c, 1, 8976
3, 42644, Pitch_bend_c, 1, 8992
3, 42652, Pitch_bend_c, 1, 9024
3, 42664, Note_on_c, 1, 68, 0
3, 43044, Pitch_bend_c, 1, 8192
3, 43044, Note_on_c, 1, 57, 37
3, 43084, Note_on_c, 1, 57, 0
3, 55672, Pitch_bend_c, 1, 8192
3, 55672, Note_on_c, 1, 67, 100
3, 55684, Pitch_bend_c, 1, 8176
3, 55688, Pitch_bend_c, 1, 8208
3, 55692, Pitch_bend_c, 1, 8224
3, 55700, Pitch_bend_c, 1, 8272
3, 55700, Pitch_bend_c, 1, 8320
3, 55704, Pitch_bend_c, 1, 8368
3, 55708, Pitch_bend_c, 1, 8432
3, 55712, Pitch_bend_c, 1, 8496
3, 55720, Pitch_bend_c, 1, 8560
3, 55720, Pitch_bend_c, 1, 8720
3, 55724, Pitch_bend_c, 1, 8736
3, 55728, Pitch_bend_c, 1, 8768
3, 55736, Pitch_bend_c, 1, 8816
3, 55740, Pitch_bend_c, 1, 8880
3, 55744, Pitch_bend_c, 1, 8928
3, 55748, Pitch_bend_c, 1, 8992
3, 55756, Pitch_bend_c, 1, 9040
3, 55760, Pitch_bend_c, 1, 9088
3, 55764, Pitch_bend_c, 1, 9136
3, 55768, Pitch_bend_c, 1, 9168
3, 55772, Pitch_bend_c, 1, 9184
3, 55776, Pitch_bend_c, 1, 9216
3, 55780, Pitch_bend_c, 1, 9232
3, 55780, Pitch_bend_c, 1, 9264
3, 55800, Note_on_c, 1, 67, 0
3, 55828, Pitch_bend_c, 1, 8192
3, 55828, Note_on_c, 1, 69, 99
3, 55844, Pitch_bend_c, 1, 8112
3, 55848, Pitch_bend_c, 1, 8048
3, 55852, Pitch_bend_c, 1, 8000
3, 55860, Pitch_bend_c, 1, 7968
3, 55860, Pitch_bend_c, 1, 7936
3, 55868, Pitch_bend_c, 1, 7920
3, 55920, Pitch_bend_c, 1, 7936
3, 55932, Note_on_c, 1, 69, 0
3, 55976, Pitch_bend_c, 1, 8192
3, 55980, Note_on_c, 1, 69, 99
3, 55992, Pitch_bend_c, 1, 8144
3, 56000, Pitch_bend_c, 1, 8112
3, 56004, Pitch_bend_c, 1, 8080
3, 56008, Pitch_bend_c, 1, 8064
3, 56040, Pitch_bend_c, 1, 8080
3, 56064, Pitch_bend_c, 1, 8064
3, 56068, Pitch_bend_c, 1, 8048
3, 56076, Pitch_bend_c, 1, 8032
3, 56080, Pitch_bend_c, 1, 8000
3, 56088, Pitch_bend_c, 1, 7968
3, 56092, Pitch_bend_c, 1, 7920
3, 56100, Pitch_bend_c, 1, 7872
3, 56116, Note_on_c, 1, 69, 0
3, 56148, Pitch_bend_c, 1, 8192
3, 56148, Note_on_c, 1, 68, 100
3, 56160, Pitch_bend_c, 1, 8176
3, 56168, Pitch_bend_c, 1, 8192
3, 56184, Pitch_bend_c, 1, 8224
3, 56188, Pitch_bend_c, 1, 8256
3, 56188, Pitch_bend_c, 1, 8288
3, 56200, Pitch_bend_c, 1, 8336
3, 56204, Pitch_bend_c, 1, 8400
3, 56208, Pitch_bend_c, 1, 8448
3, 56212, Pitch_bend_c, 1, 8496
3, 56216, Pitch_bend_c, 1, 8528
3, 56216, Pitch_bend_c, 1, 8624
3, 56228, Pitch_bend_c, 1, 8640
3, 56228, Pitch_bend_c, 1, 8656
3, 56240, Pitch_bend_c, 1, 8688
3, 56252, Pitch_bend_c, 1, 8704
3, 56256, Pitch_bend_c, 1, 8720
3, 56260, Pitch_bend_c, 1, 8704
3, 56272, Note_on_c, 1, 68, 0
3, 56308, Pitch_bend_c, 1, 8192
3, 56308, Note_on_c, 1, 69, 97
3, 56328, Pitch_bend_c, 1, 8128
3, 56332, Pitch_bend_c, 1, 8080
3, 56348, Pitch_bend_c, 1, 8064
3, 56348, Pitch_bend_c, 1, 8048
3, 56396, Pitch_bend_c, 1, 8032
3, 56400, Pitch_bend_c, 1, 8048
3, 56420, Note_on_c, 1, 69, 0
3, 56440, Pitch_bend_c, 1, 8192
3, 56440, Note_on_c, 1, 69, 99
3, 56456, Pitch_bend_c, 1, 8176
3, 56460, Pitch_bend_c, 1, 8160
3, 56468, Pitch_bend_c, 1, 8144
3, 56468, Pitch_bend_c, 1, 8160
3, 56492, Pitch_bend_c, 1, 8176
3, 56528, Pitch_bend_c, 1, 8160
3, 56536, Pitch_bend_c, 1, 8144
3, 56536, Pitch_bend_c, 1, 8128
3, 56568, Note_on_c, 1, 69, 0
3, 56608, Pitch_bend_c, 1, 8192
3, 56608, Note_on_c, 1, 68, 100
3, 56628, Pitch_bend_c, 1, 8208
3, 56636, Pitch_bend_c, 1, 8256
3, 56656, Pitch_bend_c, 1, 8352
3, 56656, Pitch_bend_c, 1, 8432
3, 56660, Pitch_bend_c, 1, 8496
3, 56664, Pitch_bend_c, 1, 8624
3, 56668, Pitch_bend_c, 1, 8640
3, 56676, Pitch_bend_c, 1, 8656
3, 56676, Pitch_bend_c, 1, 8672
3, 56684, Pitch_bend_c, 1, 8688
3, 56688, Pitch_bend_c, 1, 8704
3, 56696, Pitch_bend_c, 1, 8720
3, 56696, Pitch_bend_c, 1, 8736
3, 56704, Pitch_bend_c, 1, 8752
3, 56716, Pitch_bend_c, 1, 8768
3, 56756, Pitch_bend_c, 1, 8816
3, 56764, Pitch_bend_c, 1, 8800
3, 56768, Pitch_bend_c, 1, 8784
3, 56768, Pitch_bend_c, 1, 8768
3, 56876, Note_on_c, 1, 68, 0
3, 56904, Pitch_bend_c, 1, 8192
3, 56904, Note_on_c, 1, 69, 94
3, 56940, Pitch_bend_c, 1, 8160
3, 56948, Pitch_bend_c, 1, 8144
3, 57040, Pitch_bend_c, 1, 7664
3, 57048, Note_on_c, 1, 69, 0
3, 57080, Pitch_bend_c, 1, 8192
3, 57080, Note_on_c, 1, 68, 100
3, 57096, Pitch_bend_c, 1, 8208
3, 57104, Pitch_bend_c, 1, 8224
3, 57108, Pitch_bend_c, 1, 8240
3, 57108, Pitch_bend_c, 1, 8272
3, 57112, Pitch_bend_c, 1, 8288
3, 57116, Pitch_bend_c, 1, 8304
3, 57120, Pitch_bend_c, 1, 8336
3, 57128, Pitch_bend_c, 1, 8352
3, 57128, Pitch_bend_c, 1, 8384
3, 57136, Pitch_bend_c, 1, 8416
3, 57148, Pitch_bend_c, 1, 8448
3, 57148, Pitch_bend_c, 1, 8496
3, 57152, Pitch_bend_c, 1, 8544
3, 57156, Pitch_bend_c, 1, 8640
3, 57168, Pitch_bend_c, 1, 8656
3, 57204, Pitch_bend_c, 1, 8672
3, 57216, Note_on_c, 1, 68, 0
3, 57248, Pitch_bend_c, 1, 8192
3, 57248, Note_on_c, 1, 69, 96
3, 57256, Pitch_bend_c, 1, 8160
3, 57264, Pitch_bend_c, 1, 8128
3, 57268, Pitch_bend_c, 1, 8112
3, 57288, Pitch_bend_c, 1, 8096
3, 57296, Pitch_bend_c, 1, 8080
3, 57312, Pitch_bend_c, 1, 8096
3, 57328, Pitch_bend_c, 1, 8112
3, 57340, Pitch_bend_c, 1, 8128
3, 57356, Note_on_c, 1, 69, 0
3, 57388, Pitch_bend_c, 1, 8192
3, 57388, Note_on_c, 1, 69, 99
3, 57400, Pitch_bend_c, 1, 8208
3, 57404, Pitch_bend_c, 1, 8224
3, 57408, Pitch_bend_c, 1, 8240
3, 57496, Pitch_bend_c, 1, 8064
3, 57508, Pitch_bend_c, 1, 7888
3, 57508, Pitch_bend_c, 1, 7664
3, 57528, Note_on_c, 1, 69, 0
3, 57780, Pitch_bend_c, 1, 8192
3, 57780, Note_on_c, 1, 69, 55
3, 57816, Pitch_bend_c, 1, 8160
3, 57836, Pitch_bend_c, 1, 8176
3, 57884, Note_on_c, 1, 69, 0
3, 58156, Pitch_bend_c, 1, 8192
3, 58156, Note_on_c, 1, 67, 37
3, 58168, Pitch_bend_c, 1, 8160
3, 58176, Pitch_bend_c, 1, 8048
3, 58192, Pitch_bend_c, 1, 7312
3, 58204, Pitch_bend_c, 1, 7216
3, 58220, Pitch_bend_c, 1, 6752
3, 58236, Pitch_bend_c, 1, 6704
3, 58236, Pitch_bend_c, 1, 6592
3, 58248, Pitch_bend_c, 1, 6768
3, 58276, Pitch_bend_c, 1, 6848
3, 58296, Note_on_c, 1, 67, 0
3, 63408, Pitch_bend_c, 1, 8192
3, 63408, Note_on_c, 1, 66, 99
3, 63440, Pitch_bend_c, 1, 8320
3, 63456, Pitch_bend_c, 1, 8928
3, 63460, Pitch_bend_c, 1, 8976
3, 63464, Pitch_bend_c, 1, 9040
3, 63472, Pitch_bend_c, 1, 9136
3, 63480, Pitch_bend_c, 1, 9232
3, 63488, Pitch_bend_c, 1, 9568
3, 63492, Pitch_bend_c, 1, 9584
3, 63504, Note_on_c, 1, 66, 0
3, 63540, Pitch_bend_c, 1, 8192
3, 63540, Note_on_c, 1, 69, 96
3, 63560, Pitch_bend_c, 1, 8160
3, 63564, Pitch_bend_c, 1, 8144
3, 63572, Pitch_bend_c, 1, 8128
3, 63660, Note_on_c, 1, 69, 0
3, 63672, Pitch_bend_c, 1, 8192
3, 63672, Note_on_c, 1, 69, 100
3, 63696, Pitch_bend_c, 1, 8160
3, 63712, Pitch_bend_c, 1, 8144
3, 63740, Pitch_bend_c, 1, 8160
3, 63788, Pitch_bend_c, 1, 8128
3, 63792, Pitch_bend_c, 1, 8096
3, 63800, Pitch_bend_c, 1, 8064
3, 63808, Pitch_bend_c, 1, 8032
3, 63816, Note_on_c, 1, 69, 0
3, 63860, Pitch_bend_c, 1, 8192
3, 63860, Note_on_c, 1, 68, 100
3, 63884, Pitch_bend_c, 1, 8224
3, 63888, Pitch_bend_c, 1, 8240
3, 63892, Pitch_bend_c, 1, 8272
3, 63896, Pitch_bend_c, 1, 8288
3, 63900, Pitch_bend_c, 1, 8304
3, 63924, Pitch_bend_c, 1, 8352
3, 63928, Pitch_bend_c, 1, 8416
3, 63936, Pitch_bend_c, 1, 8496
3, 63940, Pitch_bend_c, 1, 8544
3, 63940, Pitch_bend_c, 1, 8656
3, 63956, Pitch_bend_c, 1, 8672
3, 63980, Note_on_c, 1, 68, 0
3, 64012, Pitch_bend_c, 1, 8192
3, 64012, Note_on_c, 1, 69, 95
3, 64024, Pitch_bend_c, 1, 8128
3, 64028, Pitch_bend_c, 1, 8080
3, 64028, Pitch_bend_c, 1, 8048
3, 64032, Pitch_bend_c, 1, 8032
3, 64044, Pitch_bend_c, 1, 8016
3, 64084, Pitch_bend_c, 1, 8000
3, 64124, Note_on_c, 1, 69, 0
3, 64164, Pitch_bend_c, 1, 8192
3, 64164, Note_on_c, 1, 69, 97
3, 64180, Pitch_bend_c, 1, 8160
3, 64180, Pitch_bend_c, 1, 8144
3, 64188, Pitch_bend_c, 1, 8128
3, 64244, Pitch_bend_c, 1, 8096
3, 64248, Pitch_bend_c, 1, 8080
3, 64252, Pitch_bend_c, 1, 8064
3, 64260, Pitch_bend_c, 1, 8016
3, 64292, Note_on_c, 1, 69, 0
3, 64324, Pitch_bend_c, 1, 8192
3, 64324, Note_on_c, 1, 68, 99
3, 64348, Pitch_bend_c, 1, 8224
3, 64360, Pitch_bend_c, 1, 8272
3, 64360, Pitch_bend_c, 1, 8336
3, 64368, Pitch_bend_c, 1, 8384
3, 64388, Pitch_bend_c, 1, 8448
3, 64396, Pitch_bend_c, 1, 8528
3, 64400, Pitch_bend_c, 1, 8576
3, 64400, Pitch_bend_c, 1, 8704
3, 64424, Pitch_bend_c, 1, 8720
3, 64448, Note_on_c, 1, 68, 0
3, 64488, Pitch_bend_c, 1, 8192
3, 64488, Note_on_c, 1, 69, 86
3, 64496, Pitch_bend_c, 1, 8160
3, 64500, Pitch_bend_c, 1, 8128
3, 64500, Pitch_bend_c, 1, 8112
3, 64508, Pitch_bend_c, 1, 8080
3, 64544, Pitch_bend_c, 1, 8064
3, 64572, Pitch_bend_c, 1, 8080
3, 64580, Pitch_bend_c, 1, 8096
3, 64584, Note_on_c, 1, 69, 0
3, 64628, Pitch_bend_c, 1, 8192
3, 64628, Note_on_c, 1, 69, 86
3, 64640, Pitch_bend_c, 1, 8208
3, 64648, Pitch_bend_c, 1, 8224
3, 64696, Pitch_bend_c, 1, 8128
3, 64700, Pitch_bend_c, 1, 8064
3, 64708, Pitch_bend_c, 1, 8000
3, 64708, Pitch_bend_c, 1, 7936
3, 64716, Pitch_bend_c, 1, 7872
3, 64720, Pitch_bend_c, 1, 7808
3, 64724, Pitch_bend_c, 1, 7760
3, 64724, Pitch_bend_c, 1, 7680
3, 64732, Pitch_bend_c, 1, 7664
3, 64740, Note_on_c, 1, 69, 0
3, 64780, Pitch_bend_c, 1, 8192
3, 64780, Note_on_c, 1, 68, 99
3, 64792, Pitch_bend_c, 1, 8176
3, 64804, Pitch_bend_c, 1, 8192
3, 64812, Pitch_bend_c, 1, 8224
3, 64820, Pitch_bend_c, 1, 8256
3, 64820, Pitch_bend_c, 1, 8288
3, 64828, Pitch_bend_c, 1, 8336
3, 64840, Pitch_bend_c, 1, 8400
3, 64848, Pitch_bend_c, 1, 8480
3, 64848, Pitch_bend_c, 1, 8544
3, 64852, Pitch_bend_c, 1, 8656
3, 64868, Pitch_bend_c, 1, 8672
3, 64880, Pitch_bend_c, 1, 8688
3, 64888, Pitch_bend_c, 1, 8704
3, 64892, Note_on_c, 1, 68, 0
3, 64940, Pitch_bend_c, 1, 8192
3, 64940, Note_on_c, 1, 69, 91
3, 64948, Pitch_bend_c, 1, 8144
3, 64952, Pitch_bend_c, 1, 8096
3, 64960, Pitch_bend_c, 1, 8064
3, 64960, Pitch_bend_c, 1, 8048
3, 64976, Pitch_bend_c, 1, 8032
3, 65016, Pitch_bend_c, 1, 8048
3, 65024, Pitch_bend_c, 1, 8064
3, 65028, Pitch_bend_c, 1, 8080
3, 65036, Note_on_c, 1, 69, 0
3, 65076, Pitch_bend_c, 1, 8192
3, 65076, Note_on_c, 1, 69, 93
3, 65088, Pitch_bend_c, 1, 8208
3, 65092, Pitch_bend_c, 1, 8224
3, 65172, Pitch_bend_c, 1, 8064
3, 65188, Pitch_bend_c, 1, 7952
3, 65216, Note_on_c, 1, 69, 0
3, 65256, Pitch_bend_c, 1, 8192
3, 65260, Note_on_c, 1, 68, 37
3, 65280, Pitch_bend_c, 1, 8176
3, 65288, Pitch_bend_c, 1, 8208
3, 65292, Pitch_bend_c, 1, 8304
3, 65296, Pitch_bend_c, 1, 8256
3, 65308, Pitch_bend_c, 1, 8144
3, 65312, Pitch_bend_c, 1, 8112
3, 65320, Pitch_bend_c, 1, 8096
3, 65324, Pitch_bend_c, 1, 8016
3, 65332, Pitch_bend_c, 1, 7968
3, 65344, Pitch_bend_c, 1, 8032
3, 65348, Pitch_bend_c, 1, 8112
3, 65368, Pitch_bend_c, 1, 8160
3, 65380, Pitch_bend_c, 1, 8192
3, 65380, Pitch_bend_c, 1, 8176
3, 65388, Pitch_bend_c, 1, 8144
3, 65392, Pitch_bend_c, 1, 8176
3, 65400, Pitch_bend_c, 1, 8224
3, 65404, Pitch_bend_c, 1, 8256
3, 65408, Pitch_bend_c, 1, 8320
3, 65408, Pitch_bend_c, 1, 8416
3, 65432, Pitch_bend_c, 1, 8448
3, 65440, Pitch_bend_c, 1, 8464
3, 65448, Pitch_bend_c, 1, 8480
3, 65460, Pitch_bend_c, 1, 8512
3, 65480, Pitch_bend_c, 1, 9200
3, 65504, Pitch_bend_c, 1, 9072
3, 65508, Pitch_bend_c, 1, 8992
3, 65512, Pitch_bend_c, 1, 8944
3, 65516, Pitch_bend_c, 1, 8912
3, 65548, Pitch_bend_c, 1, 8864
3, 65608, Pitch_bend_c, 1, 8880
3, 65608, Pitch_bend_c, 1, 8864
3, 65644, Pitch_bend_c, 1, 8848
3, 65652, Pitch_bend_c, 1, 8816
3, 65668, Pitch_bend_c, 1, 8800
3, 65688, Pitch_bend_c, 1, 8848
3, 65716, Pitch_bend_c, 1, 8768
3, 65728, Pitch_bend_c, 1, 8704
3, 65748, Pitch_bend_c, 1, 8608
3, 65756, Pitch_bend_c, 1, 8576
3, 65768, Pitch_bend_c, 1, 8608
3, 65792, Pitch_bend_c, 1, 8528
3, 65796, Pitch_bend_c, 1, 8512
3, 65804, Pitch_bend_c, 1, 8480
3, 65816, Note_on_c, 1, 68, 0
3, 65932, Pitch_bend_c, 1, 8192
3, 65932, Note_on_c, 1, 61, 31
3, 65940, Note_on_c, 1, 61, 0
3, 78764, Pitch_bend_c, 1, 8192
3, 78764, Note_on_c, 1, 67, 100
3, 78776, Pitch_bend_c, 1, 8240
3, 78784, Pitch_bend_c, 1, 8336
3, 78788, Pitch_bend_c, 1, 8432
3, 78792, Pitch_bend_c, 1, 8528
3, 78792, Pitch_bend_c, 1, 8704
3, 78800, Pitch_bend_c, 1, 8720
3, 78804, Pitch_bend_c, 1, 8768
3, 78812, Pitch_bend_c, 1, 8832
3, 78816, Pitch_bend_c, 1, 8896
3, 78824, Pitch_bend_c, 1, 8944
3, 78828, Pitch_bend_c, 1, 8992
3, 78832, Pitch_bend_c, 1, 9024
3, 78844, Pitch_bend_c, 1, 9056
3, 78844, Pitch_bend_c, 1, 9088
3, 78852, Pitch_bend_c, 1, 9104
3, 78856, Pitch_bend_c, 1, 9120
3, 78868, Pitch_bend_c, 1, 9136
3, 78876, Note_on_c, 1, 67, 0
3, 78932, Pitch_bend_c, 1, 8192
3, 78936, Note_on_c, 1, 69, 100
3, 78944, Pitch_bend_c, 1, 8112
3, 78956, Pitch_bend_c, 1, 8032
3, 78964, Pitch_bend_c, 1, 8000
3, 78964, Pitch_bend_c, 1, 7968
3, 78984, Pitch_bend_c, 1, 7952
3, 79000, Pitch_bend_c, 1, 7968
3, 79016, Pitch_bend_c, 1, 7984
3, 79028, Note_on_c, 1, 69, 0
3, 79064, Pitch_bend_c, 1, 8192
3, 79068, Note_on_c, 1, 69, 100
3, 79072, Pitch_bend_c, 1, 8144
3, 79080, Pitch_bend_c, 1, 8096
3, 79084, Pitch_bend_c, 1, 8080
3, 79092, Pitch_bend_c, 1, 8064
3, 79136, Pitch_bend_c, 1, 8048
3, 79144, Pitch_bend_c, 1, 8032
3, 79152, Pitch_bend_c, 1, 8016
3, 79156, Pitch_bend_c, 1, 8000
3, 79164, Pitch_bend_c, 1, 7968
3, 79172, Pitch_bend_c, 1, 7904
3, 79184, Pitch_bend_c, 1, 7680
3, 79188, Pitch_bend_c, 1, 7664
3, 79192, Pitch_bend_c, 1, 7648
3, 79204, Note_on_c, 1, 69, 0
3, 79228, Pitch_bend_c, 1, 8192
3, 79228, Note_on_c, 1, 68, 99
3, 79244, Pitch_bend_c, 1, 8208
3, 79248, Pitch_bend_c, 1, 8224
3, 79252, Pitch_bend_c, 1, 8256
3, 79264, Pitch_bend_c, 1, 8304
3, 79268, Pitch_bend_c, 1, 8352
3, 79272, Pitch_bend_c, 1, 8384
3, 79280, Pitch_bend_c, 1, 8432
3, 79288, Pitch_bend_c, 1, 8480
3, 79292, Pitch_bend_c, 1, 8528
3, 79300, Pitch_bend_c, 1, 8560
3, 79300, Pitch_bend_c, 1, 8640
3, 79312, Pitch_bend_c, 1, 8656
3, 79352, Note_on_c, 1, 68, 0
3, 79392, Pitch_bend_c, 1, 8192
3, 79392, Note_on_c, 1, 69, 98
3, 79400, Pitch_bend_c, 1, 8128
3, 79440, Pitch_bend_c, 1, 8064
3, 79444, Pitch_bend_c, 1, 8032
3, 79452, Pitch_bend_c, 1, 8016
3, 79452, Pitch_bend_c, 1, 8000
3, 79496, Note_on_c, 1, 69, 0
3, 79524, Pitch_bend_c, 1, 8192
3, 79524, Note_on_c, 1, 69, 86
3, 79548, Pitch_bend_c, 1, 8096
3, 79556, Pitch_bend_c, 1, 8064
3, 79564, Pitch_bend_c, 1, 8032
3, 79592, Pitch_bend_c, 1, 8016
3, 79612, Pitch_bend_c, 1, 8000
3, 79644, Note_on_c, 1, 69, 0
3, 79696, Pitch_bend_c, 1, 8192
3, 79696, Note_on_c, 1, 68, 100
3, 79704, Pitch_bend_c, 1, 8224
3, 79712, Pitch_bend_c, 1, 8272
3, 79720, Pitch_bend_c, 1, 8336
3, 79724, Pitch_bend_c, 1, 8384
3, 79728, Pitch_bend_c, 1, 8432
3, 79740, Pitch_bend_c, 1, 8464
3, 79744, Pitch_bend_c, 1, 8528
3, 79752, Pitch_bend_c, 1, 8576
3, 79752, Pitch_bend_c, 1, 8656
3, 79828, Note_on_c, 1, 68, 0
3, 79848, Pitch_bend_c, 1, 8192
3, 79848, Note_on_c, 1, 69, 91
3, 79864, Pitch_bend_c, 1, 8128
3, 79864, Pitch_bend_c, 1, 8080
3, 79872, Pitch_bend_c, 1, 8048
3, 79896, Pitch_bend_c, 1, 8016
3, 79904, Pitch_bend_c, 1, 8000
3, 79904, Pitch_bend_c, 1, 7984
3, 79944, Pitch_bend_c, 1, 8000
3, 79956, Note_on_c, 1, 69, 0
3, 79980, Pitch_bend_c, 1, 8192
3, 79984, Note_on_c, 1, 69, 87
3, 79992, Pitch_bend_c, 1, 8144
3, 79992, Pitch_bend_c, 1, 8096
3, 80028, Pitch_bend_c, 1, 8064
3, 80032, Pitch_bend_c, 1, 8048
3, 80076, Pitch_bend_c, 1, 8016
3, 80084, Pitch_bend_c, 1, 7968
3, 80088, Pitch_bend_c, 1, 7952
3, 80100, Pitch_bend_c, 1, 7872
3, 80108, Pitch_bend_c, 1, 7664
3, 80112, Note_on_c, 1, 69, 0
3, 80144, Pitch_bend_c, 1, 8192
3, 80144, Note_on_c, 1, 68, 100
3, 80180, Pitch_bend_c, 1, 8208
3, 80184, Pitch_bend_c, 1, 8224
3, 80188, Pitch_bend_c, 1, 8256
3, 80204, Pitch_bend_c, 1, 8304
3, 80204, Pitch_bend_c, 1, 8352
3, 80208, Pitch_bend_c, 1, 8400
3, 80224, Pitch_bend_c, 1, 8448
3, 80224, Pitch_bend_c, 1, 8512
3, 80232, Pitch_bend_c, 1, 8560
3, 80232, Pitch_bend_c, 1, 8688
3, 80256, Pitch_bend_c, 1, 8704
3, 80272, Pitch_bend_c, 1, 8688
3, 80284, Note_on_c, 1, 68, 0
3, 80304, Pitch_bend_c, 1, 8192
3, 80304, Note_on_c, 1, 69, 95
3, 80324, Pitch_bend_c, 1, 8096
3, 80328, Pitch_bend_c, 1, 8064
3, 80332, Pitch_bend_c, 1, 8048
3, 80364, Pitch_bend_c, 1, 8032
3, 80372, Pitch_bend_c, 1, 8016
3, 80416, Note_on_c, 1, 69, 0
3, 80440, Pitch_bend_c, 1, 8192
3, 80444, Note_on_c, 1, 69, 92
3, 80448, Pitch_bend_c, 1, 8160
3, 80452, Pitch_bend_c, 1, 8128
3, 80468, Pitch_bend_c, 1, 8112
3, 80472, Pitch_bend_c, 1, 8096
3, 80492, Pitch_bend_c, 1, 8080
3, 80500, Pitch_bend_c, 1, 8064
3, 80500, Pitch_bend_c, 1, 8048
3, 80540, Pitch_bend_c, 1, 7728
3, 80560, Note_on_c, 1, 69, 0
3, 80888, Pitch_bend_c, 1, 8192
3, 80888, Note_on_c, 1, 69, 53
3, 80892, Pitch_bend_c, 1, 8144
3, 80896, Pitch_bend_c, 1, 8096
3, 80900, Pitch_bend_c, 1, 8064
3, 80936, Pitch_bend_c, 1, 8080
3, 80940, Pitch_bend_c, 1, 8112
3, 80944, Pitch_bend_c, 1, 8128
3, 80960, Pitch_bend_c, 1, 8112
3, 80976, Pitch_bend_c, 1, 8096
3, 81000, Pitch_bend_c, 1, 8064
3, 81000, Pitch_bend_c, 1, 8048
3, 81008, Pitch_bend_c, 1, 8032
3, 81028, Pitch_bend_c, 1, 8016
3, 81036, Pitch_bend_c, 1, 8032
3, 81040, Pitch_bend_c, 1, 8048
3, 81048, Pitch_bend_c, 1, 8032
3, 81056, Pitch_bend_c, 1, 8048
3, 81060, Pitch_bend_c, 1, 8112
3, 81072, Pitch_bend_c, 1, 8144
3, 81080, Pitch_bend_c, 1, 8080
3, 81088, Pitch_bend_c, 1, 8048
3, 81096, Pitch_bend_c, 1, 8000
3, 81104, Pitch_bend_c, 1, 7984
3, 81112, Pitch_bend_c, 1, 7936
3, 81132, Pitch_bend_c, 1, 7920
3, 81152, Pitch_bend_c, 1, 7888
3, 81180, Pitch_bend_c, 1, 7536
3, 81188, Pitch_bend_c, 1, 7440
3, 81200, Pitch_bend_c, 1, 7280
3, 81208, Pitch_bend_c, 1, 7040
3, 81212, Pitch_bend_c, 1, 6960
3, 81224, Pitch_bend_c, 1, 6784
3, 81232, Pitch_bend_c, 1, 6640
3, 81260, Pitch_bend_c, 1, 5264
3, 81260, Pitch_bend_c, 1, 5232
3, 81272, Pitch_bend_c, 1, 5168
3, 81292, Pitch_bend_c, 1, 4688
3, 81296, Pitch_bend_c, 1, 4624
3, 81372, Note_on_c, 1, 69, 0
3, 86412, Pitch_bend_c, 1, 8192
3, 86416, Note_on_c, 1, 68, 100
3, 86424, Pitch_bend_c, 1, 8128
3, 86428, Pitch_bend_c, 1, 8080
3, 86436, Pitch_bend_c, 1, 8112
3, 86444, Pitch_bend_c, 1, 8160
3, 86448, Pitch_bend_c, 1, 8208
3, 86452, Pitch_bend_c, 1, 8288
3, 86460, Pitch_bend_c, 1, 8352
3, 86464, Pitch_bend_c, 1, 8416
3, 86464, Pitch_bend_c, 1, 8480
3, 86476, Pitch_bend_c, 1, 8528
3, 86476, Pitch_bend_c, 1, 8560
3, 86476, Pitch_bend_c, 1, 8640
3, 86484, Pitch_bend_c, 1, 8656
3, 86492, Pitch_bend_c, 1, 8672
3, 86496, Pitch_bend_c, 1, 8688
3, 86500, Pitch_bend_c, 1, 8704
3, 86504, Pitch_bend_c, 1, 8720
3, 86516, Pitch_bend_c, 1, 8736
3, 86520, Pitch_bend_c, 1, 8752
3, 86524, Pitch_bend_c, 1, 8768
3, 86532, Note_on_c, 1, 68, 0
3, 86564, Pitch_bend_c, 1, 8192
3, 86564, Note_on_c, 1, 69, 99
3, 86576, Pitch_bend_c, 1, 8160
3, 86576, Pitch_bend_c, 1, 8144
3, 86580, Pitch_bend_c, 1, 8128
3, 86584, Pitch_bend_c, 1, 8112
3, 86592, Pitch_bend_c, 1, 8096
3, 86672, Note_on_c, 1, 69, 0
3, 86700, Pitch_bend_c, 1, 8192
3, 86704, Note_on_c, 1, 69, 99
3, 86728, Pitch_bend_c, 1, 8144
3, 86732, Pitch_bend_c, 1, 8128
3, 86736, Pitch_bend_c, 1, 8112
3, 86744, Pitch_bend_c, 1, 8096
3, 86804, Pitch_bend_c, 1, 8080
3, 86808, Pitch_bend_c, 1, 8048
3, 86824, Pitch_bend_c, 1, 7968
3, 86832, Pitch_bend_c, 1, 7888
3, 86848, Note_on_c, 1, 69, 0
3, 86884, Pitch_bend_c, 1, 8192
3, 86884, Note_on_c, 1, 68, 100
3, 86904, Pitch_bend_c, 1, 8176
3, 86912, Pitch_bend_c, 1, 8192
3, 86916, Pitch_bend_c, 1, 8208
3, 86924, Pitch_bend_c, 1, 8240
3, 86924, Pitch_bend_c, 1, 8272
3, 86928, Pitch_bend_c, 1, 8304
3, 86932, Pitch_bend_c, 1, 8320
3, 86936, Pitch_bend_c, 1, 8352
3, 86948, Pitch_bend_c, 1, 8384
3, 86956, Pitch_bend_c, 1, 8448
3, 86956, Pitch_bend_c, 1, 8512
3, 86964, Pitch_bend_c, 1, 8560
3, 86964, Pitch_bend_c, 1, 8688
3, 86976, Pitch_bend_c, 1, 8704
3, 86980, Pitch_bend_c, 1, 8720
3, 86984, Pitch_bend_c, 1, 8736
3, 87016, Note_on_c, 1, 68, 0
3, 87052, Pitch_bend_c, 1, 8192
3, 87052, Note_on_c, 1, 69, 92
3, 87064, Pitch_bend_c, 1, 8160
3, 87068, Pitch_bend_c, 1, 8128
3, 87084, Pitch_bend_c, 1, 8112
3, 87088, Pitch_bend_c, 1, 8096
3, 87108, Pitch_bend_c, 1, 8080
3, 87164, Note_on_c, 1, 69, 0
3, 87196, Pitch_bend_c, 1, 8192
3, 87196, Note_on_c, 1, 69, 96
3, 87236, Pitch_bend_c, 1, 8160
3, 87248, Pitch_bend_c, 1, 8144
3, 87296, Pitch_bend_c, 1, 8032
3, 87316, Note_on_c, 1, 69, 0
3, 87356, Pitch_bend_c, 1, 8192
3, 87356, Note_on_c, 1, 68, 100
3, 87364, Pitch_bend_c, 1, 8208
3, 87372, Pitch_bend_c, 1, 8224
3, 87380, Pitch_bend_c, 1, 8240
3, 87384, Pitch_bend_c, 1, 8272
3, 87392, Pitch_bend_c, 1, 8288
3, 87396, Pitch_bend_c, 1, 8320
3, 87400, Pitch_bend_c, 1, 8352
3, 87412, Pitch_bend_c, 1, 8384
3, 87416, Pitch_bend_c, 1, 8432
3, 87424, Pitch_bend_c, 1, 8464
3, 87424, Pitch_bend_c, 1, 8496
3, 87436, Pitch_bend_c, 1, 8544
3, 87436, Pitch_bend_c, 1, 8624
3, 87444, Pitch_bend_c, 1, 8640
3, 87456, Pitch_bend_c, 1, 8656
3, 87464, Pitch_bend_c, 1, 8672
3, 87476, Pitch_bend_c, 1, 8688
3, 87484, Note_on_c, 1, 68, 0
3, 87516, Pitch_bend_c, 1, 8192
3, 87516, Note_on_c, 1, 69, 96
3, 87540, Pitch_bend_c, 1, 8128
3, 87588, Pitch_bend_c, 1, 8096
3, 87596, Pitch_bend_c, 1, 8080
3, 87616, Pitch_bend_c, 1, 8096
3, 87624, Note_on_c, 1, 69, 0
3, 87656, Pitch_bend_c, 1, 8192
3, 87656, Note_on_c, 1, 69, 90
3, 87716, Pitch_bend_c, 1, 8160
3, 87720, Pitch_bend_c, 1, 8128
3, 87724, Pitch_bend_c, 1, 8112
3, 87728, Pitch_bend_c, 1, 8096
3, 87732, Pitch_bend_c, 1, 8080
3, 87740, Pitch_bend_c, 1, 8048
3, 87744, Pitch_bend_c, 1, 8016
3, 87744, Pitch_bend_c, 1, 7984
3, 87772, Note_on_c, 1, 69, 0
3, 87812, Pitch_bend_c, 1, 8192
3, 87812, Note_on_c, 1, 68, 99
3, 87828, Pitch_bend_c, 1, 8176
3, 87836, Pitch_bend_c, 1, 8160
3, 87840, Pitch_bend_c, 1, 8176
3, 87844, Pitch_bend_c, 1, 8192
3, 87856, Pitch_bend_c, 1, 8208
3, 87860, Pitch_bend_c, 1, 8224
3, 87864, Pitch_bend_c, 1, 8240
3, 87872, Pitch_bend_c, 1, 8288
3, 87876, Pitch_bend_c, 1, 8336
3, 87884, Pitch_bend_c, 1, 8368
3, 87892, Pitch_bend_c, 1, 8416
3, 87892, Pitch_bend_c, 1, 8448
3, 87904, Pitch_bend_c, 1, 8512
3, 87912, Pitch_bend_c, 1, 8544
3, 87920, Pitch_bend_c, 1, 8608
3, 87920, Pitch_bend_c, 1, 8720
3, 87940, Note_on_c, 1, 68, 0
3, 87980, Pitch_bend_c, 1, 8192
3, 87980, Note_on_c, 1, 69, 88
3, 87992, Pitch_bend_c, 1, 8160
3, 87996, Pitch_bend_c, 1, 8144
3, 88000, Pitch_bend_c, 1, 8128
3, 88084, Note_on_c, 1, 69, 0
3, 88124, Pitch_bend_c, 1, 8192
3, 88124, Note_on_c, 1, 69, 99
3, 88184, Pitch_bend_c, 1, 8128
3, 88188, Pitch_bend_c, 1, 8080
3, 88192, Pitch_bend_c, 1, 8048
3, 88212, Pitch_bend_c, 1, 7936
3, 88224, Pitch_bend_c, 1, 7728
3, 88260, Note_on_c, 1, 69, 0
3, 88528, Pitch_bend_c, 1, 8192
3, 88532, Note_on_c, 1, 69, 53
3, 88544, Pitch_bend_c, 1, 8160
3, 88548, Pitch_bend_c, 1, 8128
3, 88552, Pitch_bend_c, 1, 8144
3, 88556, Pitch_bend_c, 1, 8192
3, 88560, Pitch_bend_c, 1, 8208
3, 88696, Pitch_bend_c, 1, 8112
3, 88720, Pitch_bend_c, 1, 8096
3, 88744, Pitch_bend_c, 1, 8128
3, 88748, Pitch_bend_c, 1, 8144
3, 88760, Pitch_bend_c, 1, 8176
3, 88792, Pitch_bend_c, 1, 8128
3, 88832, Pitch_bend_c, 1, 8080
3, 88836, Pitch_bend_c, 1, 8032
3, 88840, Pitch_bend_c, 1, 7984
3, 88844, Pitch_bend_c, 1, 7952
3, 88848, Pitch_bend_c, 1, 7936
3, 88880, Pitch_bend_c, 1, 7840
3, 88884, Pitch_bend_c, 1, 7760
3, 88884, Pitch_bend_c, 1, 7664
3, 88896, Pitch_bend_c, 1, 7632
3, 88904, Pitch_bend_c, 1, 7552
3, 88908, Pitch_bend_c, 1, 7440
3, 88920, Pitch_bend_c, 1, 7344
3, 88924, Pitch_bend_c, 1, 7248
3, 88924, Pitch_bend_c, 1, 7136
3, 88924, Pitch_bend_c, 1, 6928
3, 88932, Pitch_bend_c, 1, 6896
3, 88932, Pitch_bend_c, 1, 6864
3, 88944, Pitch_bend_c, 1, 6800
3, 88952, Pitch_bend_c, 1, 6752
3, 88952, Pitch_bend_c, 1, 6672
3, 88964, Pitch_bend_c, 1, 6192
3, 88968, Pitch_bend_c, 1, 6160
3, 88972, Pitch_bend_c, 1, 6112
3, 88992, Pitch_bend_c, 1, 5904
3, 88992, Pitch_bend_c, 1, 5776
3, 88992, Pitch_bend_c, 1, 5584
3, 89004, Pitch_bend_c, 1, 5552
3, 89004, Pitch_bend_c, 1, 5472
3, 89008, Pitch_bend_c, 1, 5360
3, 89032, Note_on_c, 1, 69, 0
3, 97788, Note_on_c, 1, 60, 127
3, 97788, Pitch_bend_c, 1, 8192
3, 97812, Pitch_bend_c, 1, 8128
3, 97840, Pitch_bend_c, 1, 8144
3, 97852, Pitch_bend_c, 1, 8112
3, 97864, Pitch_bend_c, 1, 8128
3, 97912, Pitch_bend_c, 1, 8144
3, 97916, Pitch_bend_c, 1, 8160
3, 97976, Pitch_bend_c, 1, 8144
3, 98028, Pitch_bend_c, 1, 8128
3, 98080, Note_on_c, 1, 60, 0
3, 98184, Pitch_bend_c, 1, 8192
3, 98184, Note_on_c, 1, 60, 108
3, 98192, Pitch_bend_c, 1, 8240
3, 98200, Pitch_bend_c, 1, 8320
3, 98212, Pitch_bend_c, 1, 8432
3, 98216, Pitch_bend_c, 1, 8544
3, 98220, Pitch_bend_c, 1, 8608
3, 98224, Pitch_bend_c, 1, 8720
3, 98228, Pitch_bend_c, 1, 8752
3, 98228, Pitch_bend_c, 1, 8784
3, 98236, Pitch_bend_c, 1, 8864
3, 98244, Pitch_bend_c, 1, 8928
3, 98244, Pitch_bend_c, 1, 8976
3, 98252, Pitch_bend_c, 1, 9024
3, 98252, Pitch_bend_c, 1, 9072
3, 98256, Pitch_bend_c, 1, 9120
3, 98264, Pitch_bend_c, 1, 9168
3, 98272, Pitch_bend_c, 1, 9200
3, 98272, Pitch_bend_c, 1, 9248
3, 98272, Pitch_bend_c, 1, 9328
3, 98280, Pitch_bend_c, 1, 9344
3, 98284, Pitch_bend_c, 1, 9360
3, 98296, Pitch_bend_c, 1, 9376
3, 98300, Pitch_bend_c, 1, 9408
3, 98308, Pitch_bend_c, 1, 9440
3, 98316, Pitch_bend_c, 1, 9456
3, 98324, Pitch_bend_c, 1, 9488
3, 98328, Pitch_bend_c, 1, 9504
3, 98328, Pitch_bend_c, 1, 9520
3, 98332, Pitch_bend_c, 1, 9536
3, 98344, Pitch_bend_c, 1, 9552
3, 98348, Pitch_bend_c, 1, 9568
3, 98372, Pitch_bend_c, 1, 9584
3, 98420, Pitch_bend_c, 1, 9568
3, 98432, Pitch_bend_c, 1, 9552
3, 98476, Pitch_bend_c, 1, 9536
3, 98516, Pitch_bend_c, 1, 9520
3, 98524, Pitch_bend_c, 1, 9504
3, 98552, Pitch_bend_c, 1, 9456
3, 98568, Pitch_bend_c, 1, 9376
3, 98612, Pitch_bend_c, 1, 8768
3, 98616, Pitch_bend_c, 1, 8752
3, 98616, Pitch_bend_c, 1, 8720
3, 98624, Pitch_bend_c, 1, 8688
3, 98632, Pitch_bend_c, 1, 8656
3, 98632, Pitch_bend_c, 1, 8608
3, 98644, Pitch_bend_c, 1, 8560
3, 98652, Pitch_bend_c, 1, 8288
3, 98656, Pitch_bend_c, 1, 8272
3, 98660, Pitch_bend_c, 1, 8240
3, 98664, Pitch_bend_c, 1, 8192
3, 98668, Pitch_bend_c, 1, 8160
3, 98684, Pitch_bend_c, 1, 8096
3, 98688, Pitch_bend_c, 1, 8032
3, 98696, Pitch_bend_c, 1, 7984
3, 98716, Note_on_c, 1, 60, 0
3, 99716, Pitch_bend_c, 1, 8192
3, 99716, Note_on_c, 1, 60, 90
3, 99728, Pitch_bend_c, 1, 8208
3, 99736, Pitch_bend_c, 1, 8224
3, 99740, Pitch_bend_c, 1, 8272
3, 99744, Pitch_bend_c, 1, 8304
3, 99752, Pitch_bend_c, 1, 8272
3, 99756, Pitch_bend_c, 1, 8224
3, 99768, Pitch_bend_c, 1, 8192
3, 99772, Pitch_bend_c, 1, 8208
3, 99784, Pitch_bend_c, 1, 8192
3, 99800, Pitch_bend_c, 1, 8224
3, 99804, Pitch_bend_c, 1, 8208
3, 99812, Pitch_bend_c, 1, 8192
3, 99824, Pitch_bend_c, 1, 8176
3, 99828, Pitch_bend_c, 1, 8208
3, 99832, Pitch_bend_c, 1, 8240
3, 99844, Pitch_bend_c, 1, 8256
3, 99856, Pitch_bend_c, 1, 8224
3, 99864, Pitch_bend_c, 1, 8240
3, 99872, Pitch_bend_c, 1, 8272
3, 99876, Pitch_bend_c, 1, 8256
3, 99880, Pitch_bend_c, 1, 8240
3, 99884, Pitch_bend_c, 1, 8256
3, 99892, Pitch_bend_c, 1, 8272
3, 99908, Pitch_bend_c, 1, 8240
3, 99912, Pitch_bend_c, 1, 8208
3, 99968, Pitch_bend_c, 1, 8192
3, 99976, Pitch_bend_c, 1, 8208
3, 99980, Pitch_bend_c, 1, 8192
3, 99992, Pitch_bend_c, 1, 8176
3, 99996, Pitch_bend_c, 1, 8160
3, 100000, Pitch_bend_c, 1, 8096
3, 100012, Note_on_c, 1, 60, 0
3, 101296, Pitch_bend_c, 1, 8192
3, 101296, Note_on_c, 1, 62, 96
3, 101304, Pitch_bend_c, 1, 8208
3, 101308, Pitch_bend_c, 1, 8224
3, 101312, Pitch_bend_c, 1, 8240
3, 101320, Pitch_bend_c, 1, 8256
3, 101328, Pitch_bend_c, 1, 8272
3, 101480, Pitch_bend_c, 1, 8256
3, 101496, Pitch_bend_c, 1, 8240
3, 101524, Pitch_bend_c, 1, 8160
3, 101528, Pitch_bend_c, 1, 8112
3, 101532, Pitch_bend_c, 1, 8064
3, 101540, Pitch_bend_c, 1, 8016
3, 101544, Pitch_bend_c, 1, 7984
3, 101544, Pitch_bend_c, 1, 7936
3, 101548, Pitch_bend_c, 1, 7888
3, 101560, Pitch_bend_c, 1, 7824
3, 101564, Pitch_bend_c, 1, 7760
3, 101568, Pitch_bend_c, 1, 7632
3, 101572, Pitch_bend_c, 1, 7600
3, 101572, Pitch_bend_c, 1, 7568
3, 101612, Pitch_bend_c, 1, 7328
3, 101616, Pitch_bend_c, 1, 7200
3, 101616, Pitch_bend_c, 1, 7024
3, 101624, Pitch_bend_c, 1, 6976
3, 101628, Pitch_bend_c, 1, 6928
3, 101636, Pitch_bend_c, 1, 6880
3, 101640, Pitch_bend_c, 1, 6816
3, 101644, Pitch_bend_c, 1, 6768
3, 101656, Pitch_bend_c, 1, 6688
3, 101660, Pitch_bend_c, 1, 6624
3, 101668, Pitch_bend_c, 1, 6576
3, 101676, Pitch_bend_c, 1, 6528
3, 101684, Pitch_bend_c, 1, 6480
3, 101688, Pitch_bend_c, 1, 6368
3, 101712, Pitch_bend_c, 1, 6320
3, 101716, Pitch_bend_c, 1, 6288
3, 101724, Pitch_bend_c, 1, 6256
3, 101744, Pitch_bend_c, 1, 6240
3, 101776, Pitch_bend_c, 1, 6256
3, 101788, Pitch_bend_c, 1, 6288
3, 101792, Pitch_bend_c, 1, 6352
3, 101800, Pitch_bend_c, 1, 6368
3, 101804, Pitch_bend_c, 1, 6400
3, 101808, Pitch_bend_c, 1, 6432
3, 101812, Pitch_bend_c, 1, 6480
3, 101816, Pitch_bend_c, 1, 6512
3, 101816, Pitch_bend_c, 1, 6576
3, 101844, Pitch_bend_c, 1, 6608
3, 101856, Pitch_bend_c, 1, 6640
3, 101860, Pitch_bend_c, 1, 6672
3, 101868, Pitch_bend_c, 1, 6720
3, 101872, Pitch_bend_c, 1, 6736
3, 101888, Pitch_bend_c, 1, 6752
3, 101888, Pitch_bend_c, 1, 6784
3, 101904, Pitch_bend_c, 1, 6816
3, 101908, Pitch_bend_c, 1, 6848
3, 101924, Pitch_bend_c, 1, 6864
3, 101960, Pitch_bend_c, 1, 6880
3, 101972, Pitch_bend_c, 1, 6864
3, 101988, Pitch_bend_c, 1, 6880
3, 102000, Pitch_bend_c, 1, 6864
3, 102004, Pitch_bend_c, 1, 6848
3, 102020, Pitch_bend_c, 1, 6864
3, 102028, Pitch_bend_c, 1, 6880
3, 102060, Pitch_bend_c, 1, 4784
3, 102076, Pitch_bend_c, 1, 4768
3, 102080, Pitch_bend_c, 1, 4752
3, 102088, Pitch_bend_c, 1, 4768
3, 102088, Pitch_bend_c, 1, 4752
3, 102096, Pitch_bend_c, 1, 4736
3, 102104, Pitch_bend_c, 1, 4752
3, 102120, Pitch_bend_c, 1, 4736
3, 102128, Pitch_bend_c, 1, 4752
3, 102160, Pitch_bend_c, 1, 4736
3, 102168, Pitch_bend_c, 1, 4752
3, 102184, Pitch_bend_c, 1, 4736
3, 102200, Pitch_bend_c, 1, 4752
3, 102204, Pitch_bend_c, 1, 4736
3, 102212, Pitch_bend_c, 1, 4752
3, 102232, Pitch_bend_c, 1, 4768
3, 102244, Pitch_bend_c, 1, 4784
3, 102248, Pitch_bend_c, 1, 4768
3, 102260, Pitch_bend_c, 1, 4752
3, 102268, Pitch_bend_c, 1, 4736
3, 102276, Pitch_bend_c, 1, 4768
3, 102292, Pitch_bend_c, 1, 4736
3, 102300, Pitch_bend_c, 1, 4784
3, 102312, Pitch_bend_c, 1, 4752
3, 102320, Pitch_bend_c, 1, 4784
3, 102336, Pitch_bend_c, 1, 4736
3, 102336, Pitch_bend_c, 1, 4752
3, 102344, Pitch_bend_c, 1, 4768
3, 102348, Note_on_c, 1, 62, 0
3, 103228, Pitch_bend_c, 1, 8192
3, 103228, Note_on_c, 1, 60, 103
3, 103244, Pitch_bend_c, 1, 8224
3, 103248, Pitch_bend_c, 1, 8272
3, 103252, Pitch_bend_c, 1, 8304
3, 103256, Pitch_bend_c, 1, 8320
3, 103260, Pitch_bend_c, 1, 8336
3, 103268, Pitch_bend_c, 1, 8352
3, 103272, Pitch_bend_c, 1, 8368
3, 103280, Pitch_bend_c, 1, 8384
3, 103304, Pitch_bend_c, 1, 8400
3, 103316, Pitch_bend_c, 1, 8416
3, 103360, Pitch_bend_c, 1, 8352
3, 103364, Pitch_bend_c, 1, 8272
3, 103372, Pitch_bend_c, 1, 6144
3, 103488, Pitch_bend_c, 1, 6192
3, 103532, Pitch_bend_c, 1, 7536
3, 103564, Pitch_bend_c, 1, 7552
3, 103568, Pitch_bend_c, 1, 7520
3, 103632, Pitch_bend_c, 1, 7552
3, 103652, Pitch_bend_c, 1, 7568
3, 103652, Pitch_bend_c, 1, 7600
3, 103660, Pitch_bend_c, 1, 7648
3, 103676, Pitch_bend_c, 1, 7696
3, 103680, Pitch_bend_c, 1, 7760
3, 103688, Pitch_bend_c, 1, 7824
3, 103708, Pitch_bend_c, 1, 8240
3, 103724, Pitch_bend_c, 1, 8272
3, 103740, Pitch_bend_c, 1, 8336
3, 103748, Pitch_bend_c, 1, 8400
3, 103748, Pitch_bend_c, 1, 8464
3, 103756, Pitch_bend_c, 1, 8496
3, 103756, Pitch_bend_c, 1, 8560
3, 103772, Pitch_bend_c, 1, 8576
3, 103776, Pitch_bend_c, 1, 8608
3, 103784, Pitch_bend_c, 1, 8640
3, 103792, Pitch_bend_c, 1, 8672
3, 103800, Pitch_bend_c, 1, 8704
3, 103852, Pitch_bend_c, 1, 8720
3, 103856, Pitch_bend_c, 1, 8752
3, 103868, Pitch_bend_c, 1, 8784
3, 103876, Pitch_bend_c, 1, 8768
3, 103880, Pitch_bend_c, 1, 8752
3, 103888, Pitch_bend_c, 1, 8768
3, 103896, Pitch_bend_c, 1, 8752
3, 103912, Pitch_bend_c, 1, 8768
3, 103920, Pitch_bend_c, 1, 8784
3, 103944, Pitch_bend_c, 1, 8768
3, 104000, Pitch_bend_c, 1, 6080
3, 104012, Pitch_bend_c, 1, 6064
3, 104020, Pitch_bend_c, 1, 6096
3, 104020, Pitch_bend_c, 1, 6080
3, 104024, Pitch_bend_c, 1, 6096
3, 104036, Pitch_bend_c, 1, 6080
3, 104044, Pitch_bend_c, 1, 6112
3, 104048, Pitch_bend_c, 1, 6128
3, 104052, Pitch_bend_c, 1, 6160
3, 104072, Pitch_bend_c, 1, 6128
3, 104080, Pitch_bend_c, 1, 6080
3, 104092, Pitch_bend_c, 1, 6032
3, 104096, Pitch_bend_c, 1, 6064
3, 104100, Pitch_bend_c, 1, 6032
3, 104112, Pitch_bend_c, 1, 6016
3, 104120, Pitch_bend_c, 1, 6048
3, 104124, Pitch_bend_c, 1, 6112
3, 104128, Pitch_bend_c, 1, 6160
3, 104136, Pitch_bend_c, 1, 6192
3, 104148, Pitch_bend_c, 1, 6272
3, 104156, Pitch_bend_c, 1, 6192
3, 104172, Pitch_bend_c, 1, 6176
3, 104180, Note_on_c, 1, 60, 0
3, 105476, Note_on_c, 1, 60, 100
3, 105476, Pitch_bend_c, 1, 8192
3, 105500, Pitch_bend_c, 1, 8176
3, 105544, Pitch_bend_c, 1, 8144
3, 105564, Pitch_bend_c, 1, 8160
3, 105572, Pitch_bend_c, 1, 8192
3, 105576, Pitch_bend_c, 1, 8176
3, 105588, Pitch_bend_c, 1, 8160
3, 105592, Pitch_bend_c, 1, 8144
3, 105596, Pitch_bend_c, 1, 8096
3, 105616, Pitch_bend_c, 1, 8080
3, 105620, Pitch_bend_c, 1, 8112
3, 105688, Pitch_bend_c, 1, 8144
3, 105692, Pitch_bend_c, 1, 8160
3, 105700, Pitch_bend_c, 1, 8144
3, 105736, Pitch_bend_c, 1, 8176
3, 105764, Pitch_bend_c, 1, 8160
3, 105768, Pitch_bend_c, 1, 8128
3, 105772, Pitch_bend_c, 1, 8112
3, 105780, Pitch_bend_c, 1, 8096
3, 105784, Note_on_c, 1, 60, 0
3, 105856, Pitch_bend_c, 1, 8192
3, 105860, Note_on_c, 1, 57, 60
3, 105880, Pitch_bend_c, 1, 8192
3, 105880, Note_on_c, 1, 60, 110
3, 105892, Pitch_bend_c, 1, 8256
3, 105896, Pitch_bend_c, 1, 8352
3, 105900, Pitch_bend_c, 1, 8480
3, 105904, Pitch_bend_c, 1, 9024
3, 105908, Pitch_bend_c, 1, 8976
3, 105912, Pitch_bend_c, 1, 8896
3, 105924, Pitch_bend_c, 1, 8928
3, 105928, Pitch_bend_c, 1, 8976
3, 105932, Pitch_bend_c, 1, 9040
3, 105936, Pitch_bend_c, 1, 9104
3, 105948, Pitch_bend_c, 1, 9168
3, 105952, Pitch_bend_c, 1, 9232
3, 105952, Pitch_bend_c, 1, 9280
3, 105956, Pitch_bend_c, 1, 9392
3, 105968, Pitch_bend_c, 1, 9424
3, 105968, Pitch_bend_c, 1, 9440
3, 105976, Pitch_bend_c, 1, 9472
3, 105980, Pitch_bend_c, 1, 9504
3, 105988, Pitch_bend_c, 1, 9520
3, 105992, Pitch_bend_c, 1, 9552
3, 105996, Pitch_bend_c, 1, 9568
3, 106000, Pitch_bend_c, 1, 9584
3, 106004, Pitch_bend_c, 1, 9616
3, 106020, Pitch_bend_c, 1, 9632
3, 106188, Pitch_bend_c, 1, 9616
3, 106196, Pitch_bend_c, 1, 9600
3, 106212, Pitch_bend_c, 1, 9584
3, 106216, Pitch_bend_c, 1, 9568
3, 106224, Pitch_bend_c, 1, 9552
3, 106240, Pitch_bend_c, 1, 9536
3, 106244, Pitch_bend_c, 1, 9504
3, 106256, Pitch_bend_c, 1, 9488
3, 106260, Pitch_bend_c, 1, 9472
3, 106264, Pitch_bend_c, 1, 9440
3, 106268, Pitch_bend_c, 1, 9408
3, 106272, Pitch_bend_c, 1, 9392
3, 106280, Pitch_bend_c, 1, 9360
3, 106284, Pitch_bend_c, 1, 9344
3, 106284, Pitch_bend_c, 1, 9328
3, 106288, Pitch_bend_c, 1, 9296
3, 106292, Pitch_bend_c, 1, 9264
3, 106312, Pitch_bend_c, 1, 9072
3, 106324, Pitch_bend_c, 1, 9040
3, 106328, Pitch_bend_c, 1, 8976
3, 106336, Pitch_bend_c, 1, 8896
3, 106340, Pitch_bend_c, 1, 8784
3, 106352, Pitch_bend_c, 1, 8688
3, 106364, Pitch_bend_c, 1, 8544
3, 106368, Pitch_bend_c, 1, 8336
3, 106372, Pitch_bend_c, 1, 8288
3, 106380, Pitch_bend_c, 1, 8208
3, 106404, Note_on_c, 1, 60, 0
3, 106440, Note_on_c, 1, 57, 0
3, 107460, Note_on_c, 1, 60, 99
3, 107468, Pitch_bend_c, 1, 8192
3, 107492, Pitch_bend_c, 1, 8064
3, 107504, Pitch_bend_c, 1, 7952
3, 107508, Pitch_bend_c, 1, 8080
3, 107524, Pitch_bend_c, 1, 8032
3, 107536, Pitch_bend_c, 1, 8048
3, 107536, Pitch_bend_c, 1, 8112
3, 107548, Pitch_bend_c, 1, 8288
3, 107556, Pitch_bend_c, 1, 8208
3, 107572, Pitch_bend_c, 1, 8144
3, 107584, Pitch_bend_c, 1, 8272
3, 107596, Pitch_bend_c, 1, 8256
3, 107600, Pitch_bend_c, 1, 8272
3, 107604, Pitch_bend_c, 1, 8352
3, 107624, Pitch_bend_c, 1, 8304
3, 107632, Pitch_bend_c, 1, 8256
3, 107636, Pitch_bend_c, 1, 8224
3, 107640, Pitch_bend_c, 1, 8208
3, 107652, Note_on_c, 1, 60, 0
3, 108988, Pitch_bend_c, 1, 8192
3, 108988, Note_on_c, 1, 62, 98
3, 109004, Pitch_bend_c, 1, 8272
3, 109008, Pitch_bend_c, 1, 8352
3, 109012, Pitch_bend_c, 1, 8416
3, 109016, Pitch_bend_c, 1, 8448
3, 109024, Pitch_bend_c, 1, 8480
3, 109036, Pitch_bend_c, 1, 8496
3, 109048, Pitch_bend_c, 1, 8512
3, 109104, Pitch_bend_c, 1, 8496
3, 109124, Pitch_bend_c, 1, 8480
3, 109128, Pitch_bend_c, 1, 8464
3, 109148, Pitch_bend_c, 1, 8432
3, 109152, Pitch_bend_c, 1, 8416
3, 109156, Pitch_bend_c, 1, 8400
3, 109160, Pitch_bend_c, 1, 8368
3, 109164, Pitch_bend_c, 1, 8336
3, 109168, Pitch_bend_c, 1, 8320
3, 109208, Pitch_bend_c, 1, 8160
3, 109220, Pitch_bend_c, 1, 8064
3, 109224, Pitch_bend_c, 1, 7984
3, 109224, Pitch_bend_c, 1, 7936
3, 109236, Pitch_bend_c, 1, 7888
3, 109236, Pitch_bend_c, 1, 7840
3, 109248, Pitch_bend_c, 1, 7776
3, 109248, Pitch_bend_c, 1, 7680
3, 109256, Pitch_bend_c, 1, 7664
3, 109260, Pitch_bend_c, 1, 7616
3, 109264, Pitch_bend_c, 1, 7568
3, 109284, Pitch_bend_c, 1, 7456
3, 109292, Pitch_bend_c, 1, 7392
3, 109296, Pitch_bend_c, 1, 7344
3, 109296, Pitch_bend_c, 1, 7296
3, 109304, Pitch_bend_c, 1, 7248
3, 109308, Pitch_bend_c, 1, 7216
3, 109316, Pitch_bend_c, 1, 7184
3, 109324, Pitch_bend_c, 1, 7136
3, 109324, Pitch_bend_c, 1, 7104
3, 109328, Pitch_bend_c, 1, 7040
3, 109348, Pitch_bend_c, 1, 6960
3, 109352, Pitch_bend_c, 1, 6896
3, 109360, Pitch_bend_c, 1, 6864
3, 109364, Pitch_bend_c, 1, 6848
3, 109368, Pitch_bend_c, 1, 6816
3, 109376, Pitch_bend_c, 1, 6800
3, 109388, Pitch_bend_c, 1, 6784
3, 109396, Pitch_bend_c, 1, 6752
3, 109408, Pitch_bend_c, 1, 6736
3, 109412, Pitch_bend_c, 1, 6720
3, 109460, Pitch_bend_c, 1, 6736
3, 109476, Pitch_bend_c, 1, 6752
3, 109480, Pitch_bend_c, 1, 6784
3, 109488, Pitch_bend_c, 1, 6800
3, 109492, Pitch_bend_c, 1, 6784
3, 109496, Pitch_bend_c, 1, 6768
3, 109520, Pitch_bend_c, 1, 6784
3, 109552, Pitch_bend_c, 1, 6816
3, 109568, Pitch_bend_c, 1, 6800
3, 109576, Pitch_bend_c, 1, 6816
3, 109584, Pitch_bend_c, 1, 6784
3, 109588, Pitch_bend_c, 1, 6800
3, 109596, Pitch_bend_c, 1, 6816
3, 109596, Pitch_bend_c, 1, 6800
3, 109600, Pitch_bend_c, 1, 6768
3, 109644, Pitch_bend_c, 1, 6784
3, 109668, Pitch_bend_c, 1, 6800
3, 109680, Note_on_c, 1, 62, 0
3, 110920, Pitch_bend_c, 1, 8192
3, 110944, Pitch_bend_c, 1, 8208
3, 110956, Pitch_bend_c, 1, 8256
3, 110968, Pitch_bend_c, 1, 8288
3, 110972, Pitch_bend_c, 1, 8320
3, 110996, Pitch_bend_c, 1, 8352
3, 111004, Pitch_bend_c, 1, 8368
3, 111020, Pitch_bend_c, 1, 8352
3, 111036, Pitch_bend_c, 1, 8288
3, 111252, Pitch_bend_c, 1, 8048
3, 111384, Pitch_bend_c, 1, 7984
3, 111396, Pitch_bend_c, 1, 8032
3, 111400, Pitch_bend_c, 1, 8144
3, 111408, Pitch_bend_c, 1, 8256
3, 111416, Pitch_bend_c, 1, 8368
3, 111432, Pitch_bend_c, 1, 8464
3, 111440, Pitch_bend_c, 1, 8544
3, 111440, Pitch_bend_c, 1, 8736
3, 111456, Pitch_bend_c, 1, 8752
3, 111460, Pitch_bend_c, 1, 8784
3, 111468, Pitch_bend_c, 1, 8816
3, 111476, Pitch_bend_c, 1, 8832
3, 111480, Pitch_bend_c, 1, 8848
3, 111488, Pitch_bend_c, 1, 8864
3, 111492, Pitch_bend_c, 1, 8880
3, 111508, Pitch_bend_c, 1, 8912
3, 111528, Pitch_bend_c, 1, 8896
3, 111556, Pitch_bend_c, 1, 8912
3, 111584, Pitch_bend_c, 1, 8896
3, 111592, Pitch_bend_c, 1, 8880
3, 111596, Pitch_bend_c, 1, 8896
3, 111604, Pitch_bend_c, 1, 8928
3, 111628, Pitch_bend_c, 1, 8912
3, 111664, Pitch_bend_c, 1, 8896
3, 115132, Pitch_bend_c, 1, 8192
3, 115132, Note_on_c, 1, 60, 110
3, 115156, Pitch_bend_c, 1, 8208
3, 115228, Pitch_bend_c, 1, 8224
3, 115300, Pitch_bend_c, 1, 8208
3, 115396, Note_on_c, 1, 60, 0
3, 116644, Pitch_bend_c, 1, 8192
3, 116644, Note_on_c, 1, 60, 109
3, 116656, Pitch_bend_c, 1, 8224
3, 116660, Pitch_bend_c, 1, 8320
3, 116664, Pitch_bend_c, 1, 8400
3, 116668, Pitch_bend_c, 1, 8848
3, 116668, Pitch_bend_c, 1, 8864
3, 116672, Pitch_bend_c, 1, 8848
3, 116672, Pitch_bend_c, 1, 8800
3, 116676, Pitch_bend_c, 1, 8784
3, 116680, Pitch_bend_c, 1, 8832
3, 116684, Pitch_bend_c, 1, 8896
3, 116688, Pitch_bend_c, 1, 8928
3, 116692, Pitch_bend_c, 1, 8976
3, 116696, Pitch_bend_c, 1, 9040
3, 116700, Pitch_bend_c, 1, 9088
3, 116700, Pitch_bend_c, 1, 9104
3, 116704, Pitch_bend_c, 1, 9152
3, 116712, Pitch_bend_c, 1, 9200
3, 116716, Pitch_bend_c, 1, 9248
3, 116716, Pitch_bend_c, 1, 9344
3, 116716, Pitch_bend_c, 1, 9360
3, 116720, Pitch_bend_c, 1, 9376
3, 116724, Pitch_bend_c, 1, 9392
3, 116728, Pitch_bend_c, 1, 9408
3, 116728, Pitch_bend_c, 1, 9424
3, 116732, Pitch_bend_c, 1, 9456
3, 116732, Pitch_bend_c, 1, 9488
3, 116736, Pitch_bend_c, 1, 9504
3, 116740, Pitch_bend_c, 1, 9520
3, 116744, Pitch_bend_c, 1, 9536
3, 116748, Pitch_bend_c, 1, 9552
3, 116752, Pitch_bend_c, 1, 9568
3, 116764, Pitch_bend_c, 1, 9552
3, 116772, Pitch_bend_c, 1, 9536
3, 116776, Pitch_bend_c, 1, 9520
3, 116780, Pitch_bend_c, 1, 9504
3, 116780, Pitch_bend_c, 1, 9488
3, 116784, Pitch_bend_c, 1, 9472
3, 116788, Pitch_bend_c, 1, 9456
3, 116788, Pitch_bend_c, 1, 9440
3, 116792, Pitch_bend_c, 1, 9424
3, 116796, Pitch_bend_c, 1, 9408
3, 116800, Pitch_bend_c, 1, 9376
3, 116804, Pitch_bend_c, 1, 9360
3, 116808, Pitch_bend_c, 1, 9312
3, 116812, Pitch_bend_c, 1, 9280
3, 116828, Note_on_c, 1, 60, 0
3, 116828, Pitch_bend_c, 1, 9184
3, 116948, Pitch_bend_c, 1, 8192
3, 116948, Note_on_c, 1, 60, 109
3, 116952, Pitch_bend_c, 1, 8160
3, 116952, Pitch_bend_c, 1, 8176
3, 116960, Pitch_bend_c, 1, 8272
3, 116964, Pitch_bend_c, 1, 8288
3, 116972, Pitch_bend_c, 1, 8304
3, 116976, Pitch_bend_c, 1, 8320
3, 116976, Pitch_bend_c, 1, 8336
3, 116988, Pitch_bend_c, 1, 8352
3, 116992, Pitch_bend_c, 1, 8368
3, 117000, Pitch_bend_c, 1, 8400
3, 117004, Pitch_bend_c, 1, 8416
3, 117008, Pitch_bend_c, 1, 8432
3, 117012, Pitch_bend_c, 1, 8448
3, 117020, Pitch_bend_c, 1, 8464
3, 117020, Pitch_bend_c, 1, 8480
3, 117028, Pitch_bend_c, 1, 8496
3, 117032, Pitch_bend_c, 1, 8528
3, 117040, Pitch_bend_c, 1, 8560
3, 117040, Pitch_bend_c, 1, 8640
3, 117048, Pitch_bend_c, 1, 8656
3, 117052, Pitch_bend_c, 1, 8672
3, 117060, Pitch_bend_c, 1, 8704
3, 117060, Pitch_bend_c, 1, 8752
3, 117064, Pitch_bend_c, 1, 8800
3, 117072, Pitch_bend_c, 1, 8848
3, 117076, Pitch_bend_c, 1, 8912
3, 117080, Pitch_bend_c, 1, 8976
3, 117088, Pitch_bend_c, 1, 9040
3, 117092, Pitch_bend_c, 1, 9088
3, 117096, Pitch_bend_c, 1, 9136
3, 117100, Pitch_bend_c, 1, 9200
3, 117104, Pitch_bend_c, 1, 9248
3, 117104, Pitch_bend_c, 1, 9360
3, 117108, Pitch_bend_c, 1, 9376
3, 117116, Pitch_bend_c, 1, 9392
3, 117120, Pitch_bend_c, 1, 9440
3, 117120, Pitch_bend_c, 1, 9472
3, 117128, Pitch_bend_c, 1, 9504
3, 117132, Pitch_bend_c, 1, 9552
3, 117140, Pitch_bend_c, 1, 9584
3, 117144, Pitch_bend_c, 1, 9600
3, 117148, Pitch_bend_c, 1, 9632
3, 117156, Pitch_bend_c, 1, 9648
3, 117192, Pitch_bend_c, 1, 9600
3, 117192, Pitch_bend_c, 1, 9584
3, 117204, Pitch_bend_c, 1, 9552
3, 117204, Pitch_bend_c, 1, 9536
3, 117212, Pitch_bend_c, 1, 9504
3, 117216, Pitch_bend_c, 1, 9472
3, 117228, Pitch_bend_c, 1, 9440
3, 117232, Pitch_bend_c, 1, 9424
3, 117236, Pitch_bend_c, 1, 9408
3, 117256, Pitch_bend_c, 1, 9424
3, 117264, Pitch_bend_c, 1, 9440
3, 117268, Pitch_bend_c, 1, 9456
3, 117276, Pitch_bend_c, 1, 9472
3, 117280, Pitch_bend_c, 1, 9488
3, 117288, Pitch_bend_c, 1, 9504
3, 117292, Pitch_bend_c, 1, 9520
3, 117296, Pitch_bend_c, 1, 9536
3, 117304, Pitch_bend_c, 1, 9552
3, 117308, Pitch_bend_c, 1, 9568
3, 117312, Pitch_bend_c, 1, 9584
3, 117316, Pitch_bend_c, 1, 9600
3, 117324, Pitch_bend_c, 1, 9616
3, 117332, Pitch_bend_c, 1, 9632
3, 117336, Pitch_bend_c, 1, 9648
3, 117396, Pitch_bend_c, 1, 9664
3, 117408, Pitch_bend_c, 1, 9680
3, 117524, Pitch_bend_c, 1, 6144
3, 117772, Note_on_c, 1, 60, 0
3, 119320, Pitch_bend_c, 1, 8192
3, 119320, Note_on_c, 1, 57, 91
3, 119324, Pitch_bend_c, 1, 8176
3, 119392, Pitch_bend_c, 1, 8160
3, 119396, Pitch_bend_c, 1, 8176
3, 119424, Pitch_bend_c, 1, 8192
3, 119448, Note_on_c, 1, 57, 0
3, 119496, Pitch_bend_c, 1, 8192
3, 119500, Note_on_c, 1, 64, 110
3, 119524, Pitch_bend_c, 1, 8176
3, 119536, Pitch_bend_c, 1, 8160
3, 119560, Pitch_bend_c, 1, 8176
3, 119636, Pitch_bend_c, 1, 8160
3, 119700, Pitch_bend_c, 1, 8176
3, 119712, Pitch_bend_c, 1, 8192
3, 119720, Pitch_bend_c, 1, 8240
3, 119728, Pitch_bend_c, 1, 8272
3, 119732, Pitch_bend_c, 1, 8304
3, 119736, Pitch_bend_c, 1, 8352
3, 119740, Pitch_bend_c, 1, 8400
3, 119756, Pitch_bend_c, 1, 8496
3, 119760, Pitch_bend_c, 1, 8592
3, 119772, Pitch_bend_c, 1, 8976
3, 119776, Pitch_bend_c, 1, 9008
3, 119784, Pitch_bend_c, 1, 9056
3, 119784, Pitch_bend_c, 1, 9152
3, 119788, Pitch_bend_c, 1, 9232
3, 119812, Pitch_bend_c, 1, 9760
3, 119812, Pitch_bend_c, 1, 9856
3, 119828, Pitch_bend_c, 1, 10528
3, 119832, Pitch_bend_c, 1, 10560
3, 119840, Pitch_bend_c, 1, 10624
3, 119844, Pitch_bend_c, 1, 10928
3, 119848, Pitch_bend_c, 1, 10960
3, 119856, Pitch_bend_c, 1, 11024
3, 119860, Pitch_bend_c, 1, 11104
3, 119868, Pitch_bend_c, 1, 11200
3, 119876, Pitch_bend_c, 1, 11296
3, 119876, Pitch_bend_c, 1, 11520
3, 119884, Pitch_bend_c, 1, 11536
3, 119884, Pitch_bend_c, 1, 11568
3, 119888, Pitch_bend_c, 1, 11600
3, 119900, Pitch_bend_c, 1, 11648
3, 119900, Pitch_bend_c, 1, 11680
3, 119908, Pitch_bend_c, 1, 11712
3, 119912, Pitch_bend_c, 1, 11728
3, 119920, Pitch_bend_c, 1, 11744
3, 119928, Pitch_bend_c, 1, 11728
3, 120072, Pitch_bend_c, 1, 11744
3, 120076, Pitch_bend_c, 1, 11760
3, 120096, Pitch_bend_c, 1, 11744
3, 120100, Pitch_bend_c, 1, 11728
3, 120132, Pitch_bend_c, 1, 11712
3, 120148, Pitch_bend_c, 1, 11696
3, 120160, Pitch_bend_c, 1, 11680
3, 120404, Note_on_c, 1, 64, 0
3, 120404, End_track
4, 0, Start_track
4, 0, MIDI_port, 0
4, 0, Control_c, 2, 91, 89
4, 0, Control_c, 2, 93, 69
4, 0, Control_c, 2, 121, 0
4, 1, Control_c, 2, 32, 0
4, 18, Control_c, 2, 101, 0
4, 18, Control_c, 2, 100, 0
4, 18, Control_c, 2, 6, 12
4, 18, Control_c, 2, 38, 0
4, 21, Control_c, 2, 11, 127
4, 492, Program_c, 2, 29
4, 493, Control_c, 2, 7, 120
4, 493, Control_c, 2, 10, 42
4, 1976, Control_c, 2, 101, 0
4, 1976, Control_c, 2, 100, 0
4, 1976, Control_c, 2, 6, 12
4, 1976, Control_c, 2, 38, 0
4, 4140, Pitch_bend_c, 2, 8192
4, 4140, Note_on_c, 2, 54, 58
4, 4148, Pitch_bend_c, 2, 8160
4, 4156, Pitch_bend_c, 2, 8128
4, 4156, Pitch_bend_c, 2, 8112
4, 4172, Pitch_bend_c, 2, 8096
4, 4248, Note_on_c, 2, 54, 0
4, 4284, Pitch_bend_c, 2, 8192
4, 4284, Note_on_c, 2, 59, 99
4, 4320, Pitch_bend_c, 2, 8208
4, 4324, Pitch_bend_c, 2, 8224
4, 4476, Pitch_bend_c, 2, 8208
4, 4536, Pitch_bend_c, 2, 8224
4, 4544, Pitch_bend_c, 2, 8256
4, 4560, Pitch_bend_c, 2, 8288
4, 4584, Pitch_bend_c, 2, 8384
4, 4612, Pitch_bend_c, 2, 9008
4, 4616, Pitch_bend_c, 2, 9056
4, 4632, Pitch_bend_c, 2, 9136
4, 4644, Pitch_bend_c, 2, 9200
4, 4644, Pitch_bend_c, 2, 9280
4, 4644, Pitch_bend_c, 2, 9424
4, 4656, Pitch_bend_c, 2, 9440
4, 4692, Pitch_bend_c, 2, 9456
4, 4704, Pitch_bend_c, 2, 9472
4, 4804, Pitch_bend_c, 2, 9488
4, 4988, Pitch_bend_c, 2, 9472
4, 5004, Pitch_bend_c, 2, 9456
4, 5048, Pitch_bend_c, 2, 9440
4, 5108, Pitch_bend_c, 2, 9408
4, 5156, Pitch_bend_c, 2, 9328
4, 5160, Pitch_bend_c, 2, 9280
4, 5184, Pitch_bend_c, 2, 9072
4, 5252, Pitch_bend_c, 2, 8288
4, 5292, Pitch_bend_c, 2, 7632
4, 5320, Note_on_c, 2, 59, 0
4, 7656, Pitch_bend_c, 2, 8192
4, 7656, Note_on_c, 2, 65, 99
4, 7668, Pitch_bend_c, 2, 8160
4, 7672, Pitch_bend_c, 2, 8112
4, 7680, Pitch_bend_c, 2, 8096
4, 7684, Pitch_bend_c, 2, 8064
4, 7704, Pitch_bend_c, 2, 8048
4, 7732, Pitch_bend_c, 2, 8064
4, 7748, Pitch_bend_c, 2, 8080
4, 7752, Pitch_bend_c, 2, 8096
4, 7756, Pitch_bend_c, 2, 8112
4, 7760, Pitch_bend_c, 2, 8128
4, 7768, Pitch_bend_c, 2, 8144
4, 7776, Pitch_bend_c, 2, 8160
4, 7784, Pitch_bend_c, 2, 8192
4, 7792, Pitch_bend_c, 2, 8224
4, 7796, Pitch_bend_c, 2, 8272
4, 7804, Pitch_bend_c, 2, 8304
4, 7808, Pitch_bend_c, 2, 8336
4, 7812, Pitch_bend_c, 2, 8368
4, 7820, Pitch_bend_c, 2, 8400
4, 7824, Pitch_bend_c, 2, 8432
4, 7828, Pitch_bend_c, 2, 8464
4, 7836, Pitch_bend_c, 2, 8496
4, 7840, Pitch_bend_c, 2, 8512
4, 7844, Pitch_bend_c, 2, 8528
4, 7844, Pitch_bend_c, 2, 8592
4, 7856, Pitch_bend_c, 2, 8608
4, 7868, Pitch_bend_c, 2, 8624
4, 7880, Pitch_bend_c, 2, 8640
4, 7880, Pitch_bend_c, 2, 8656
4, 7896, Pitch_bend_c, 2, 8672
4, 7900, Pitch_bend_c, 2, 8688
4, 7916, Pitch_bend_c, 2, 8704
4, 7920, Pitch_bend_c, 2, 8720
4, 7944, Note_on_c, 2, 65, 0
4, 7976, Pitch_bend_c, 2, 8192
4, 7980, Note_on_c, 2, 66, 88
4, 8040, Pitch_bend_c, 2, 8112
4, 8044, Pitch_bend_c, 2, 8064
4, 8052, Pitch_bend_c, 2, 8032
4, 8060, Pitch_bend_c, 2, 8048
4, 8068, Pitch_bend_c, 2, 8032
4, 8156, Pitch_bend_c, 2, 7984
4, 8156, Pitch_bend_c, 2, 7936
4, 8160, Pitch_bend_c, 2, 7920
4, 8220, Pitch_bend_c, 2, 6816
4, 8260, Pitch_bend_c, 2, 5904
4, 8276, Pitch_bend_c, 2, 5600
4, 8292, Note_on_c, 2, 66, 0
4, 9760, Pitch_bend_c, 2, 8192
4, 9760, Note_on_c, 2, 66, 37
4, 9764, Pitch_bend_c, 2, 8144
4, 9776, Pitch_bend_c, 2, 8096
4, 9796, Pitch_bend_c, 2, 8080
4, 9808, Pitch_bend_c, 2, 8096
4, 9840, Pitch_bend_c, 2, 8112
4, 9852, Note_on_c, 2, 66, 0
4, 11512, Pitch_bend_c, 2, 8192
4, 11512, Note_on_c, 2, 65, 99
4, 11580, Pitch_bend_c, 2, 8128
4, 11584, Pitch_bend_c, 2, 8096
4, 11596, Pitch_bend_c, 2, 8080
4, 11652, Pitch_bend_c, 2, 8112
4, 11652, Pitch_bend_c, 2, 8160
4, 11668, Pitch_bend_c, 2, 8208
4, 11684, Pitch_bend_c, 2, 8272
4, 11704, Pitch_bend_c, 2, 8336
4, 11716, Pitch_bend_c, 2, 8416
4, 11724, Pitch_bend_c, 2, 8480
4, 11724, Pitch_bend_c, 2, 8640
4, 11736, Pitch_bend_c, 2, 8656
4, 11740, Pitch_bend_c, 2, 8672
4, 11756, Pitch_bend_c, 2, 8688
4, 11768, Pitch_bend_c, 2, 8704
4, 11788, Note_on_c, 2, 65, 0
4, 12016, Pitch_bend_c, 2, 8192
4, 12016, Note_on_c, 2, 64, 50
4, 12032, Pitch_bend_c, 2, 8128
4, 12036, Pitch_bend_c, 2, 8016
4, 12048, Pitch_bend_c, 2, 7392
4, 12052, Pitch_bend_c, 2, 7360
4, 12076, Note_on_c, 2, 64, 0
4, 12772, Pitch_bend_c, 2, 8192
4, 12776, Pitch_bend_c, 2, 8160
4, 12780, Pitch_bend_c, 2, 8144
4, 12784, Pitch_bend_c, 2, 8128
4, 12792, Pitch_bend_c, 2, 8144
4, 12800, Pitch_bend_c, 2, 8160
4, 12800, Pitch_bend_c, 2, 8176
4, 12808, Pitch_bend_c, 2, 8192
4, 12812, Pitch_bend_c, 2, 8208
4, 12812, Pitch_bend_c, 2, 8224
4, 12816, Pitch_bend_c, 2, 8240
4, 12816, Pitch_bend_c, 2, 8256
4, 12820, Pitch_bend_c, 2, 8272
4, 12824, Pitch_bend_c, 2, 8288
4, 12824, Pitch_bend_c, 2, 8304
4, 12828, Pitch_bend_c, 2, 8336
4, 12828, Pitch_bend_c, 2, 8352
4, 12832, Pitch_bend_c, 2, 8368
4, 12832, Pitch_bend_c, 2, 8384
4, 12832, Pitch_bend_c, 2, 8416
4, 12836, Pitch_bend_c, 2, 8432
4, 12840, Pitch_bend_c, 2, 8448
4, 12844, Pitch_bend_c, 2, 8480
4, 12844, Pitch_bend_c, 2, 8496
4, 12848, Pitch_bend_c, 2, 8512
4, 12848, Pitch_bend_c, 2, 8528
4, 12848, Pitch_bend_c, 2, 8576
4, 12856, Pitch_bend_c, 2, 8592
4, 12860, Pitch_bend_c, 2, 8576
4, 12916, Pitch_bend_c, 2, 8192
4, 12924, Pitch_bend_c, 2, 8160
4, 12940, Pitch_bend_c, 2, 8144
4, 12948, Pitch_bend_c, 2, 8128
4, 13108, Pitch_bend_c, 2, 8192
4, 13108, Note_on_c, 2, 62, 25
4, 13132, Note_on_c, 2, 62, 0
4, 13760, Pitch_bend_c, 2, 8192
4, 13768, Pitch_bend_c, 2, 8128
4, 13792, Pitch_bend_c, 2, 7216
4, 15092, Pitch_bend_c, 2, 8192
4, 15092, Note_on_c, 2, 57, 83
4, 15140, Pitch_bend_c, 2, 8208
4, 15144, Pitch_bend_c, 2, 8224
4, 15152, Pitch_bend_c, 2, 8256
4, 15156, Pitch_bend_c, 2, 8272
4, 15164, Pitch_bend_c, 2, 8288
4, 15164, Pitch_bend_c, 2, 8304
4, 15172, Pitch_bend_c, 2, 8320
4, 15176, Pitch_bend_c, 2, 8336
4, 15180, Pitch_bend_c, 2, 8352
4, 15184, Pitch_bend_c, 2, 8368
4, 15188, Pitch_bend_c, 2, 8384
4, 15192, Pitch_bend_c, 2, 8400
4, 15200, Pitch_bend_c, 2, 8416
4, 15212, Pitch_bend_c, 2, 8464
4, 15224, Pitch_bend_c, 2, 8544
4, 15228, Pitch_bend_c, 2, 8608
4, 15228, Pitch_bend_c, 2, 8736
4, 15240, Pitch_bend_c, 2, 8768
4, 15240, Pitch_bend_c, 2, 8816
4, 15248, Pitch_bend_c, 2, 8848
4, 15252, Pitch_bend_c, 2, 8896
4, 15260, Pitch_bend_c, 2, 8928
4, 15264, Pitch_bend_c, 2, 8976
4, 15268, Pitch_bend_c, 2, 9024
4, 15268, Pitch_bend_c, 2, 9072
4, 15276, Pitch_bend_c, 2, 9104
4, 15280, Pitch_bend_c, 2, 9136
4, 15284, Pitch_bend_c, 2, 9184
4, 15292, Pitch_bend_c, 2, 9232
4, 15292, Pitch_bend_c, 2, 9360
4, 15304, Pitch_bend_c, 2, 9376
4, 15308, Pitch_bend_c, 2, 9392
4, 15312, Pitch_bend_c, 2, 9408
4, 15320, Pitch_bend_c, 2, 9424
4, 15324, Pitch_bend_c, 2, 9440
4, 15388, Pitch_bend_c, 2, 9456
4, 15400, Pitch_bend_c, 2, 9472
4, 15404, Pitch_bend_c, 2, 9488
4, 15412, Pitch_bend_c, 2, 9504
4, 15428, Pitch_bend_c, 2, 9488
4, 15432, Pitch_bend_c, 2, 9472
4, 15472, Pitch_bend_c, 2, 9456
4, 15484, Pitch_bend_c, 2, 9440
4, 15488, Pitch_bend_c, 2, 9456
4, 15492, Pitch_bend_c, 2, 9472
4, 15500, Pitch_bend_c, 2, 9488
4, 15508, Pitch_bend_c, 2, 9504
4, 15596, Pitch_bend_c, 2, 9472
4, 15600, Pitch_bend_c, 2, 9440
4, 15604, Pitch_bend_c, 2, 9408
4, 15640, Pitch_bend_c, 2, 8976
4, 15672, Note_on_c, 2, 57, 0
4, 17284, Pitch_bend_c, 2, 8192
4, 17284, Note_on_c, 2, 64, 25
4, 17288, Pitch_bend_c, 2, 8128
4, 17296, Note_on_c, 2, 64, 0
4, 19176, Pitch_bend_c, 2, 8192
4, 19176, Note_on_c, 2, 65, 98
4, 19184, Pitch_bend_c, 2, 8160
4, 19188, Pitch_bend_c, 2, 8144
4, 19192, Pitch_bend_c, 2, 8128
4, 19196, Pitch_bend_c, 2, 8112
4, 19204, Pitch_bend_c, 2, 8096
4, 19256, Pitch_bend_c, 2, 8112
4, 19272, Pitch_bend_c, 2, 8128
4, 19276, Pitch_bend_c, 2, 8144
4, 19296, Pitch_bend_c, 2, 8160
4, 19296, Pitch_bend_c, 2, 8176
4, 19308, Pitch_bend_c, 2, 8192
4, 19312, Pitch_bend_c, 2, 8208
4, 19320, Pitch_bend_c, 2, 8240
4, 19320, Pitch_bend_c, 2, 8256
4, 19324, Pitch_bend_c, 2, 8288
4, 19328, Pitch_bend_c, 2, 8304
4, 19340, Pitch_bend_c, 2, 8352
4, 19344, Pitch_bend_c, 2, 8384
4, 19348, Pitch_bend_c, 2, 8416
4, 19352, Pitch_bend_c, 2, 8448
4, 19356, Pitch_bend_c, 2, 8464
4, 19364, Pitch_bend_c, 2, 8496
4, 19368, Pitch_bend_c, 2, 8528
4, 19372, Pitch_bend_c, 2, 8544
4, 19372, Pitch_bend_c, 2, 8624
4, 19380, Pitch_bend_c, 2, 8640
4, 19388, Pitch_bend_c, 2, 8656
4, 19392, Pitch_bend_c, 2, 8672
4, 19396, Pitch_bend_c, 2, 8688
4, 19404, Pitch_bend_c, 2, 8704
4, 19408, Pitch_bend_c, 2, 8720
4, 19424, Pitch_bend_c, 2, 8736
4, 19436, Pitch_bend_c, 2, 8752
4, 19464, Note_on_c, 2, 65, 0
4, 19528, Pitch_bend_c, 2, 8192
4, 19528, Note_on_c, 2, 66, 56
4, 19548, Pitch_bend_c, 2, 8176
4, 19552, Pitch_bend_c, 2, 8144
4, 19556, Pitch_bend_c, 2, 8128
4, 19564, Pitch_bend_c, 2, 8144
4, 19568, Pitch_bend_c, 2, 8128
4, 19568, Pitch_bend_c, 2, 8096
4, 19584, Pitch_bend_c, 2, 8112
4, 19612, Pitch_bend_c, 2, 8160
4, 19636, Pitch_bend_c, 2, 8144
4, 19636, Pitch_bend_c, 2, 8064
4, 19644, Pitch_bend_c, 2, 7984
4, 19680, Pitch_bend_c, 2, 7184
4, 19736, Pitch_bend_c, 2, 5376
4, 19756, Pitch_bend_c, 2, 5232
4, 19760, Pitch_bend_c, 2, 5136
4, 19776, Note_on_c, 2, 66, 0
4, 20452, Pitch_bend_c, 2, 8192
4, 20452, Note_on_c, 2, 58, 50
4, 20453, Note_on_c, 2, 58, 0
4, 20468, Pitch_bend_c, 2, 8192
4, 20468, Note_on_c, 2, 63, 99
4, 20472, Pitch_bend_c, 2, 8128
4, 20476, Pitch_bend_c, 2, 8064
4, 20480, Pitch_bend_c, 2, 8016
4, 20484, Pitch_bend_c, 2, 8000
4, 20484, Pitch_bend_c, 2, 7984
4, 20492, Pitch_bend_c, 2, 8000
4, 20496, Pitch_bend_c, 2, 8016
4, 20500, Pitch_bend_c, 2, 8032
4, 20500, Pitch_bend_c, 2, 8048
4, 20504, Pitch_bend_c, 2, 8064
4, 20504, Pitch_bend_c, 2, 8080
4, 20508, Pitch_bend_c, 2, 8096
4, 20512, Pitch_bend_c, 2, 8128
4, 20512, Pitch_bend_c, 2, 8144
4, 20516, Pitch_bend_c, 2, 8160
4, 20520, Pitch_bend_c, 2, 8192
4, 20520, Pitch_bend_c, 2, 8208
4, 20524, Pitch_bend_c, 2, 8224
4, 20528, Pitch_bend_c, 2, 8240
4, 20528, Pitch_bend_c, 2, 8272
4, 20532, Pitch_bend_c, 2, 8288
4, 20536, Pitch_bend_c, 2, 8320
4, 20540, Pitch_bend_c, 2, 8352
4, 20544, Pitch_bend_c, 2, 8384
4, 20544, Pitch_bend_c, 2, 8400
4, 20548, Pitch_bend_c, 2, 8448
4, 20548, Pitch_bend_c, 2, 8464
4, 20552, Pitch_bend_c, 2, 8496
4, 20556, Pitch_bend_c, 2, 8528
4, 20560, Pitch_bend_c, 2, 8560
4, 20560, Pitch_bend_c, 2, 8656
4, 20564, Pitch_bend_c, 2, 8672
4, 20572, Pitch_bend_c, 2, 8704
4, 20572, Pitch_bend_c, 2, 8752
4, 20576, Pitch_bend_c, 2, 8800
4, 20580, Pitch_bend_c, 2, 8848
4, 20584, Pitch_bend_c, 2, 8880
4, 20584, Pitch_bend_c, 2, 8928
4, 20632, Note_on_c, 2, 63, 0
4, 20668, Pitch_bend_c, 2, 8192
4, 20668, Note_on_c, 2, 65, 61
4, 20712, Note_on_c, 2, 65, 0
4, 22800, Pitch_bend_c, 2, 8192
4, 22800, Note_on_c, 2, 57, 85
4, 22872, Pitch_bend_c, 2, 8208
4, 22884, Pitch_bend_c, 2, 8240
4, 22888, Pitch_bend_c, 2, 8256
4, 22900, Pitch_bend_c, 2, 8304
4, 22904, Pitch_bend_c, 2, 8336
4, 22912, Pitch_bend_c, 2, 8368
4, 22932, Pitch_bend_c, 2, 8432
4, 22940, Pitch_bend_c, 2, 8512
4, 22948, Pitch_bend_c, 2, 8608
4, 22948, Pitch_bend_c, 2, 8832
4, 22960, Pitch_bend_c, 2, 8864
4, 22964, Pitch_bend_c, 2, 8896
4, 22968, Pitch_bend_c, 2, 8944
4, 22972, Pitch_bend_c, 2, 8992
4, 22976, Pitch_bend_c, 2, 9024
4, 22980, Pitch_bend_c, 2, 9056
4, 22984, Pitch_bend_c, 2, 9088
4, 22988, Pitch_bend_c, 2, 9136
4, 22996, Pitch_bend_c, 2, 9184
4, 23000, Pitch_bend_c, 2, 9216
4, 23008, Pitch_bend_c, 2, 9264
4, 23008, Pitch_bend_c, 2, 9344
4, 23016, Pitch_bend_c, 2, 9360
4, 23020, Pitch_bend_c, 2, 9376
4, 23024, Pitch_bend_c, 2, 9392
4, 23032, Pitch_bend_c, 2, 9408
4, 23040, Pitch_bend_c, 2, 9424
4, 23048, Pitch_bend_c, 2, 9440
4, 23080, Pitch_bend_c, 2, 9456
4, 23092, Pitch_bend_c, 2, 9472
4, 23144, Pitch_bend_c, 2, 9488
4, 23148, Pitch_bend_c, 2, 9504
4, 23156, Pitch_bend_c, 2, 9520
4, 23160, Pitch_bend_c, 2, 9536
4, 23164, Pitch_bend_c, 2, 9520
4, 23176, Pitch_bend_c, 2, 9504
4, 23184, Pitch_bend_c, 2, 9488
4, 23200, Pitch_bend_c, 2, 9472
4, 23264, Pitch_bend_c, 2, 9456
4, 23276, Pitch_bend_c, 2, 9440
4, 23292, Pitch_bend_c, 2, 9408
4, 23296, Pitch_bend_c, 2, 9392
4, 23332, Pitch_bend_c, 2, 9280
4, 23340, Pitch_bend_c, 2, 9072
4, 23408, Pitch_bend_c, 2, 8720
4, 23408, Pitch_bend_c, 2, 8336
4, 23432, Note_on_c, 2, 57, 0
4, 34504, Pitch_bend_c, 2, 8192
4, 34504, Note_on_c, 2, 64, 99
4, 34532, Pitch_bend_c, 2, 8240
4, 34536, Pitch_bend_c, 2, 8288
4, 34540, Pitch_bend_c, 2, 8336
4, 34548, Pitch_bend_c, 2, 8352
4, 34552, Pitch_bend_c, 2, 8368
4, 34556, Pitch_bend_c, 2, 8384
4, 34580, Pitch_bend_c, 2, 8400
4, 34592, Pitch_bend_c, 2, 8416
4, 34612, Pitch_bend_c, 2, 8432
4, 34632, Pitch_bend_c, 2, 8464
4, 34636, Pitch_bend_c, 2, 8480
4, 34652, Pitch_bend_c, 2, 8496
4, 34656, Pitch_bend_c, 2, 8528
4, 34660, Pitch_bend_c, 2, 8544
4, 34664, Pitch_bend_c, 2, 8624
4, 34672, Pitch_bend_c, 2, 8640
4, 34676, Pitch_bend_c, 2, 8656
4, 34680, Pitch_bend_c, 2, 8688
4, 34692, Pitch_bend_c, 2, 8704
4, 34696, Pitch_bend_c, 2, 8752
4, 34716, Pitch_bend_c, 2, 8816
4, 34720, Pitch_bend_c, 2, 8880
4, 34728, Pitch_bend_c, 2, 8928
4, 34732, Pitch_bend_c, 2, 8960
4, 34740, Pitch_bend_c, 2, 8992
4, 34740, Pitch_bend_c, 2, 9024
4, 34744, Pitch_bend_c, 2, 9056
4, 34752, Pitch_bend_c, 2, 9072
4, 34756, Pitch_bend_c, 2, 9088
4, 34760, Pitch_bend_c, 2, 9120
4, 34772, Pitch_bend_c, 2, 9136
4, 34780, Pitch_bend_c, 2, 9152
4, 34780, Pitch_bend_c, 2, 9184
4, 34804, Note_on_c, 2, 64, 0
4, 35180, Pitch_bend_c, 2, 8192
4, 35180, Note_on_c, 2, 63, 40
4, 35212, Pitch_bend_c, 2, 8240
4, 35216, Pitch_bend_c, 2, 8144
4, 35272, Note_on_c, 2, 63, 0
4, 40324, Pitch_bend_c, 2, 8192
4, 40324, Note_on_c, 2, 64, 25
4, 40344, Pitch_bend_c, 2, 8240
4, 40352, Pitch_bend_c, 2, 8336
4, 40356, Pitch_bend_c, 2, 8416
4, 40376, Pitch_bend_c, 2, 8432
4, 40396, Pitch_bend_c, 2, 9328
4, 40424, Pitch_bend_c, 2, 9232
4, 40428, Pitch_bend_c, 2, 9216
4, 40432, Pitch_bend_c, 2, 9264
4, 40436, Pitch_bend_c, 2, 9312
4, 40456, Pitch_bend_c, 2, 9280
4, 40456, Pitch_bend_c, 2, 9328
4, 40524, Pitch_bend_c, 2, 9296
4, 40532, Pitch_bend_c, 2, 9280
4, 40540, Pitch_bend_c, 2, 9264
4, 40548, Pitch_bend_c, 2, 9296
4, 40556, Pitch_bend_c, 2, 9344
4, 40556, Pitch_bend_c, 2, 9328
4, 40568, Pitch_bend_c, 2, 9296
4, 40576, Pitch_bend_c, 2, 9312
4, 40596, Pitch_bend_c, 2, 9264
4, 40640, Pitch_bend_c, 2, 9280
4, 40644, Pitch_bend_c, 2, 9312
4, 40656, Pitch_bend_c, 2, 9376
4, 40660, Pitch_bend_c, 2, 9424
4, 40664, Pitch_bend_c, 2, 9440
4, 40672, Pitch_bend_c, 2, 9424
4, 40676, Pitch_bend_c, 2, 9376
4, 40680, Pitch_bend_c, 2, 9312
4, 40700, Pitch_bend_c, 2, 9344
4, 40736, Pitch_bend_c, 2, 9264
4, 40744, Pitch_bend_c, 2, 9216
4, 40752, Pitch_bend_c, 2, 9152
4, 40768, Note_on_c, 2, 64, 0
4, 42224, Pitch_bend_c, 2, 8192
4, 42224, Note_on_c, 2, 64, 99
4, 42236, Pitch_bend_c, 2, 8256
4, 42244, Pitch_bend_c, 2, 8336
4, 42248, Pitch_bend_c, 2, 8400
4, 42256, Pitch_bend_c, 2, 8432
4, 42264, Pitch_bend_c, 2, 8448
4, 42268, Pitch_bend_c, 2, 8464
4, 42272, Pitch_bend_c, 2, 8480
4, 42276, Pitch_bend_c, 2, 8496
4, 42304, Pitch_bend_c, 2, 8512
4, 42324, Pitch_bend_c, 2, 8528
4, 42332, Pitch_bend_c, 2, 8544
4, 42332, Pitch_bend_c, 2, 8576
4, 42352, Pitch_bend_c, 2, 8592
4, 42360, Pitch_bend_c, 2, 8608
4, 42364, Pitch_bend_c, 2, 8624
4, 42368, Pitch_bend_c, 2, 8640
4, 42372, Pitch_bend_c, 2, 8656
4, 42380, Pitch_bend_c, 2, 8688
4, 42384, Pitch_bend_c, 2, 8720
4, 42388, Pitch_bend_c, 2, 8752
4, 42392, Pitch_bend_c, 2, 8784
4, 42404, Pitch_bend_c, 2, 8800
4, 42412, Pitch_bend_c, 2, 8832
4, 42420, Pitch_bend_c, 2, 8864
4, 42424, Pitch_bend_c, 2, 8896
4, 42440, Pitch_bend_c, 2, 8928
4, 42452, Pitch_bend_c, 2, 8976
4, 42452, Pitch_bend_c, 2, 9024
4, 42464, Pitch_bend_c, 2, 9072
4, 42468, Pitch_bend_c, 2, 9104
4, 42472, Pitch_bend_c, 2, 9136
4, 42472, Pitch_bend_c, 2, 9152
4, 42480, Pitch_bend_c, 2, 9168
4, 42484, Pitch_bend_c, 2, 9200
4, 42492, Pitch_bend_c, 2, 9216
4, 42492, Pitch_bend_c, 2, 9232
4, 42520, Note_on_c, 2, 64, 0
4, 42576, Pitch_bend_c, 2, 8192
4, 42580, Note_on_c, 2, 66, 70
4, 42604, Pitch_bend_c, 2, 8112
4, 42608, Pitch_bend_c, 2, 8032
4, 42612, Pitch_bend_c, 2, 7984
4, 42620, Pitch_bend_c, 2, 7968
4, 42628, Pitch_bend_c, 2, 7952
4, 42636, Pitch_bend_c, 2, 7936
4, 42652, Pitch_bend_c, 2, 7952
4, 42656, Pitch_bend_c, 2, 7936
4, 42672, Pitch_bend_c, 2, 7904
4, 42672, Pitch_bend_c, 2, 7920
4, 42684, Pitch_bend_c, 2, 7936
4, 42708, Pitch_bend_c, 2, 7920
4, 42736, Pitch_bend_c, 2, 7936
4, 42748, Pitch_bend_c, 2, 7952
4, 42808, Pitch_bend_c, 2, 7936
4, 42824, Pitch_bend_c, 2, 7920
4, 42828, Pitch_bend_c, 2, 7904
4, 42832, Pitch_bend_c, 2, 7888
4, 42848, Pitch_bend_c, 2, 7840
4, 42864, Pitch_bend_c, 2, 7680
4, 42884, Pitch_bend_c, 2, 7664
4, 42916, Pitch_bend_c, 2, 6976
4, 42924, Pitch_bend_c, 2, 6960
4, 42932, Pitch_bend_c, 2, 6912
4, 42940, Pitch_bend_c, 2, 6816
4, 42944, Pitch_bend_c, 2, 6704
4, 42948, Pitch_bend_c, 2, 6608
4, 42952, Pitch_bend_c, 2, 6544
4, 42956, Pitch_bend_c, 2, 6464
4, 42960, Pitch_bend_c, 2, 6384
4, 42960, Pitch_bend_c, 2, 6224
4, 42964, Pitch_bend_c, 2, 6192
4, 42968, Pitch_bend_c, 2, 6160
4, 42972, Pitch_bend_c, 2, 6064
4, 43012, Note_on_c, 2, 66, 0
4, 43012, Pitch_bend_c, 2, 8192
4, 43012, Note_on_c, 2, 54, 44
4, 43016, Pitch_bend_c, 2, 8144
4, 43020, Pitch_bend_c, 2, 8096
4, 43024, Pitch_bend_c, 2, 8064
4, 43028, Pitch_bend_c, 2, 8048
4, 43048, Note_on_c, 2, 54, 0
4, 57568, Pitch_bend_c, 2, 8192
4, 57568, Note_on_c, 2, 65, 99
4, 57588, Pitch_bend_c, 2, 8112
4, 57756, Pitch_bend_c, 2, 8128
4, 57792, Pitch_bend_c, 2, 8192
4, 57796, Pitch_bend_c, 2, 8288
4, 57800, Pitch_bend_c, 2, 8352
4, 57808, Pitch_bend_c, 2, 8416
4, 57816, Pitch_bend_c, 2, 8448
4, 57820, Pitch_bend_c, 2, 8480
4, 57836, Note_on_c, 2, 65, 0
4, 57880, Pitch_bend_c, 2, 8192
4, 57880, Note_on_c, 2, 66, 64
4, 57932, Pitch_bend_c, 2, 8064
4, 58128, Pitch_bend_c, 2, 7952
4, 58140, Note_on_c, 2, 66, 0
4, 58140, Pitch_bend_c, 2, 7872
4, 58164, Pitch_bend_c, 2, 8192
4, 58164, Note_on_c, 2, 63, 50
4, 58176, Pitch_bend_c, 2, 8256
4, 58276, Note_on_c, 2, 63, 0
4, 63452, Pitch_bend_c, 2, 8192
4, 63452, Note_on_c, 2, 64, 40
4, 63468, Pitch_bend_c, 2, 8176
4, 63468, Pitch_bend_c, 2, 8192
4, 63472, Pitch_bend_c, 2, 8272
4, 63480, Pitch_bend_c, 2, 8336
4, 63500, Pitch_bend_c, 2, 8432
4, 63520, Pitch_bend_c, 2, 9152
4, 63548, Pitch_bend_c, 2, 9184
4, 63552, Pitch_bend_c, 2, 9232
4, 63552, Pitch_bend_c, 2, 9360
4, 63560, Pitch_bend_c, 2, 9344
4, 63572, Pitch_bend_c, 2, 9312
4, 63580, Pitch_bend_c, 2, 9280
4, 63584, Pitch_bend_c, 2, 9312
4, 63592, Pitch_bend_c, 2, 9328
4, 63592, Pitch_bend_c, 2, 9312
4, 63600, Pitch_bend_c, 2, 9280
4, 63620, Pitch_bend_c, 2, 9248
4, 63632, Pitch_bend_c, 2, 9280
4, 63636, Pitch_bend_c, 2, 9296
4, 63644, Pitch_bend_c, 2, 9280
4, 63692, Pitch_bend_c, 2, 9360
4, 63692, Pitch_bend_c, 2, 9408
4, 63700, Pitch_bend_c, 2, 9312
4, 63712, Pitch_bend_c, 2, 9248
4, 63728, Pitch_bend_c, 2, 9216
4, 63732, Pitch_bend_c, 2, 9232
4, 63740, Pitch_bend_c, 2, 9248
4, 63752, Pitch_bend_c, 2, 9344
4, 63760, Pitch_bend_c, 2, 9376
4, 63780, Pitch_bend_c, 2, 9280
4, 63780, Pitch_bend_c, 2, 9296
4, 63788, Pitch_bend_c, 2, 9264
4, 63796, Pitch_bend_c, 2, 9216
4, 63800, Pitch_bend_c, 2, 9168
4, 63800, Pitch_bend_c, 2, 9072
4, 63808, Pitch_bend_c, 2, 9056
4, 63816, Pitch_bend_c, 2, 9088
4, 63824, Pitch_bend_c, 2, 9120
4, 63828, Pitch_bend_c, 2, 9040
4, 63860, Pitch_bend_c, 2, 8976
4, 63864, Pitch_bend_c, 2, 8880
4, 63868, Pitch_bend_c, 2, 8784
4, 63872, Pitch_bend_c, 2, 8832
4, 63884, Pitch_bend_c, 2, 8784
4, 63904, Pitch_bend_c, 2, 8768
4, 63908, Pitch_bend_c, 2, 8816
4, 63916, Pitch_bend_c, 2, 8896
4, 63924, Pitch_bend_c, 2, 9008
4, 63956, Pitch_bend_c, 2, 9120
4, 63960, Pitch_bend_c, 2, 9232
4, 63960, Pitch_bend_c, 2, 9472
4, 63968, Pitch_bend_c, 2, 9440
4, 63976, Pitch_bend_c, 2, 9376
4, 64036, Pitch_bend_c, 2, 9328
4, 64040, Pitch_bend_c, 2, 9344
4, 64052, Pitch_bend_c, 2, 9360
4, 64052, Pitch_bend_c, 2, 9328
4, 64060, Pitch_bend_c, 2, 9232
4, 64072, Pitch_bend_c, 2, 9184
4, 64100, Pitch_bend_c, 2, 9216
4, 64112, Pitch_bend_c, 2, 9200
4, 64120, Pitch_bend_c, 2, 9184
4, 64120, Pitch_bend_c, 2, 9200
4, 64168, Pitch_bend_c, 2, 9216
4, 64172, Pitch_bend_c, 2, 9232
4, 64188, Pitch_bend_c, 2, 9264
4, 64200, Pitch_bend_c, 2, 9296
4, 64208, Pitch_bend_c, 2, 9312
4, 64224, Pitch_bend_c, 2, 9328
4, 64228, Pitch_bend_c, 2, 9344
4, 64240, Pitch_bend_c, 2, 9328
4, 64248, Pitch_bend_c, 2, 9296
4, 64248, Pitch_bend_c, 2, 9280
4, 64256, Pitch_bend_c, 2, 9264
4, 64260, Pitch_bend_c, 2, 9200
4, 64268, Pitch_bend_c, 2, 9120
4, 64280, Pitch_bend_c, 2, 9072
4, 64292, Pitch_bend_c, 2, 9024
4, 64360, Pitch_bend_c, 2, 9008
4, 64384, Pitch_bend_c, 2, 8992
4, 64392, Pitch_bend_c, 2, 9008
4, 64396, Pitch_bend_c, 2, 9040
4, 64404, Pitch_bend_c, 2, 9072
4, 64412, Pitch_bend_c, 2, 9120
4, 64416, Pitch_bend_c, 2, 9168
4, 64432, Pitch_bend_c, 2, 9184
4, 64440, Pitch_bend_c, 2, 9200
4, 64500, Pitch_bend_c, 2, 9232
4, 64504, Pitch_bend_c, 2, 9328
4, 64508, Pitch_bend_c, 2, 9296
4, 64520, Pitch_bend_c, 2, 9248
4, 64528, Pitch_bend_c, 2, 9200
4, 64528, Pitch_bend_c, 2, 9184
4, 64536, Pitch_bend_c, 2, 9200
4, 64540, Pitch_bend_c, 2, 9216
4, 64548, Pitch_bend_c, 2, 9232
4, 64556, Pitch_bend_c, 2, 9264
4, 64564, Pitch_bend_c, 2, 9296
4, 64572, Pitch_bend_c, 2, 9312
4, 64640, Pitch_bend_c, 2, 9248
4, 64648, Pitch_bend_c, 2, 9216
4, 64668, Note_on_c, 2, 64, 0
4, 65240, Pitch_bend_c, 2, 8192
4, 65244, Note_on_c, 2, 64, 99
4, 65280, Pitch_bend_c, 2, 8272
4, 65280, Pitch_bend_c, 2, 8352
4, 65284, Pitch_bend_c, 2, 8416
4, 65288, Pitch_bend_c, 2, 8448
4, 65300, Pitch_bend_c, 2, 8480
4, 65312, Pitch_bend_c, 2, 8512
4, 65324, Pitch_bend_c, 2, 8528
4, 65340, Pitch_bend_c, 2, 8544
4, 65348, Pitch_bend_c, 2, 8576
4, 65364, Pitch_bend_c, 2, 8592
4, 65368, Pitch_bend_c, 2, 8608
4, 65372, Pitch_bend_c, 2, 8624
4, 65376, Pitch_bend_c, 2, 8640
4, 65384, Pitch_bend_c, 2, 8656
4, 65396, Pitch_bend_c, 2, 8688
4, 65400, Pitch_bend_c, 2, 8704
4, 65404, Pitch_bend_c, 2, 8752
4, 65416, Pitch_bend_c, 2, 8784
4, 65428, Pitch_bend_c, 2, 8832
4, 65448, Pitch_bend_c, 2, 8896
4, 65452, Pitch_bend_c, 2, 8960
4, 65456, Pitch_bend_c, 2, 9024
4, 65464, Pitch_bend_c, 2, 9072
4, 65468, Pitch_bend_c, 2, 9104
4, 65468, Pitch_bend_c, 2, 9136
4, 65480, Pitch_bend_c, 2, 9168
4, 65488, Pitch_bend_c, 2, 9200
4, 65516, Note_on_c, 2, 64, 0
4, 65576, Pitch_bend_c, 2, 8192
4, 65576, Note_on_c, 2, 66, 44
4, 65588, Pitch_bend_c, 2, 8096
4, 65608, Pitch_bend_c, 2, 8080
4, 65616, Pitch_bend_c, 2, 8016
4, 65620, Pitch_bend_c, 2, 7968
4, 65628, Pitch_bend_c, 2, 8000
4, 65640, Pitch_bend_c, 2, 8048
4, 65652, Pitch_bend_c, 2, 8112
4, 65660, Pitch_bend_c, 2, 8256
4, 65684, Pitch_bend_c, 2, 8336
4, 65692, Pitch_bend_c, 2, 8400
4, 65696, Pitch_bend_c, 2, 8432
4, 65708, Pitch_bend_c, 2, 8352
4, 65712, Pitch_bend_c, 2, 8160
4, 65724, Pitch_bend_c, 2, 8096
4, 65732, Pitch_bend_c, 2, 7968
4, 65756, Pitch_bend_c, 2, 7456
4, 65788, Pitch_bend_c, 2, 7344
4, 65800, Pitch_bend_c, 2, 7264
4, 65812, Pitch_bend_c, 2, 7328
4, 65832, Pitch_bend_c, 2, 7408
4, 65860, Pitch_bend_c, 2, 5584
4, 65868, Pitch_bend_c, 2, 5632
4, 65872, Pitch_bend_c, 2, 5728
4, 65884, Pitch_bend_c, 2, 5584
4, 65896, Note_on_c, 2, 66, 0
4, 65924, Pitch_bend_c, 2, 8192
4, 65924, Note_on_c, 2, 60, 25
4, 65952, Note_on_c, 2, 60, 0
4, 80608, Pitch_bend_c, 2, 8192
4, 80608, Note_on_c, 2, 64, 99
4, 80660, Pitch_bend_c, 2, 8240
4, 80676, Pitch_bend_c, 2, 8304
4, 80680, Pitch_bend_c, 2, 8368
4, 80680, Pitch_bend_c, 2, 8400
4, 80700, Pitch_bend_c, 2, 8432
4, 80716, Pitch_bend_c, 2, 8448
4, 80756, Pitch_bend_c, 2, 8480
4, 80800, Pitch_bend_c, 2, 8576
4, 80852, Pitch_bend_c, 2, 9072
4, 80872, Pitch_bend_c, 2, 9088
4, 80872, Pitch_bend_c, 2, 9104
4, 80904, Note_on_c, 2, 64, 0
4, 80948, Pitch_bend_c, 2, 8192
4, 80948, Note_on_c, 2, 66, 66
4, 80960, Pitch_bend_c, 2, 8176
4, 80968, Pitch_bend_c, 2, 8128
4, 80972, Pitch_bend_c, 2, 8016
4, 80980, Pitch_bend_c, 2, 7952
4, 80992, Pitch_bend_c, 2, 7888
4, 81020, Pitch_bend_c, 2, 7856
4, 81036, Pitch_bend_c, 2, 7808
4, 81044, Pitch_bend_c, 2, 7680
4, 81048, Pitch_bend_c, 2, 7712
4, 81052, Pitch_bend_c, 2, 7728
4, 81056, Pitch_bend_c, 2, 7744
4, 81072, Pitch_bend_c, 2, 7760
4, 81100, Pitch_bend_c, 2, 7776
4, 81108, Pitch_bend_c, 2, 7824
4, 81132, Pitch_bend_c, 2, 7728
4, 81284, Pitch_bend_c, 2, 7392
4, 81308, Note_on_c, 2, 66, 0
4, 88312, Pitch_bend_c, 2, 8192
4, 88312, Note_on_c, 2, 65, 99
4, 88376, Pitch_bend_c, 2, 8112
4, 88504, Pitch_bend_c, 2, 8144
4, 88524, Pitch_bend_c, 2, 8208
4, 88524, Pitch_bend_c, 2, 8304
4, 88532, Pitch_bend_c, 2, 8384
4, 88532, Pitch_bend_c, 2, 8432
4, 88536, Pitch_bend_c, 2, 8464
4, 88540, Pitch_bend_c, 2, 8480
4, 88544, Pitch_bend_c, 2, 8512
4, 88552, Pitch_bend_c, 2, 8528
4, 88552, Pitch_bend_c, 2, 8576
4, 88564, Note_on_c, 2, 65, 0
4, 88912, Pitch_bend_c, 2, 8192
4, 88912, Note_on_c, 2, 64, 31
4, 88932, Pitch_bend_c, 2, 8240
4, 88976, Pitch_bend_c, 2, 6672
4, 88984, Pitch_bend_c, 2, 6688
4, 88992, Pitch_bend_c, 2, 6736
4, 89000, Pitch_bend_c, 2, 6800
4, 89004, Pitch_bend_c, 2, 6752
4, 89012, Pitch_bend_c, 2, 6672
4, 89028, Note_on_c, 2, 64, 0
4, 97680, Pitch_bend_c, 2, 8192
4, 97680, Note_on_c, 2, 57, 108
4, 97688, Pitch_bend_c, 2, 8128
4, 97700, Pitch_bend_c, 2, 8080
4, 97704, Pitch_bend_c, 2, 8032
4, 97708, Pitch_bend_c, 2, 8000
4, 97716, Pitch_bend_c, 2, 7984
4, 98000, Pitch_bend_c, 2, 8000
4, 98040, Pitch_bend_c, 2, 7984
4, 98092, Pitch_bend_c, 2, 7968
4, 98096, Pitch_bend_c, 2, 7952
4, 98112, Pitch_bend_c, 2, 7936
4, 98120, Pitch_bend_c, 2, 7920
4, 98132, Pitch_bend_c, 2, 7936
4, 98140, Pitch_bend_c, 2, 7952
4, 98148, Pitch_bend_c, 2, 7968
4, 98156, Pitch_bend_c, 2, 7984
4, 98156, Pitch_bend_c, 2, 8016
4, 98164, Pitch_bend_c, 2, 8032
4, 98168, Pitch_bend_c, 2, 8064
4, 98172, Pitch_bend_c, 2, 8112
4, 98180, Pitch_bend_c, 2, 8128
4, 98184, Pitch_bend_c, 2, 8176
4, 98184, Pitch_bend_c, 2, 8208
4, 98196, Pitch_bend_c, 2, 8256
4, 98200, Pitch_bend_c, 2, 8320
4, 98208, Pitch_bend_c, 2, 8384
4, 98212, Pitch_bend_c, 2, 8432
4, 98212, Pitch_bend_c, 2, 8480
4, 98224, Pitch_bend_c, 2, 8544
4, 98224, Pitch_bend_c, 2, 8656
4, 98228, Pitch_bend_c, 2, 8688
4, 98236, Pitch_bend_c, 2, 8720
4, 98244, Pitch_bend_c, 2, 8768
4, 98248, Pitch_bend_c, 2, 8816
4, 98256, Pitch_bend_c, 2, 8864
4, 98260, Pitch_bend_c, 2, 8928
4, 98260, Pitch_bend_c, 2, 8976
4, 98272, Pitch_bend_c, 2, 9024
4, 98280, Pitch_bend_c, 2, 9088
4, 98284, Pitch_bend_c, 2, 9136
4, 98288, Pitch_bend_c, 2, 9168
4, 98296, Pitch_bend_c, 2, 9200
4, 98304, Pitch_bend_c, 2, 9248
4, 98304, Pitch_bend_c, 2, 9328
4, 98324, Pitch_bend_c, 2, 9344
4, 98328, Pitch_bend_c, 2, 9360
4, 98336, Pitch_bend_c, 2, 9376
4, 98540, Pitch_bend_c, 2, 9328
4, 98568, Note_on_c, 2, 57, 0
4, 98592, Pitch_bend_c, 2, 8192
4, 98596, Note_on_c, 2, 58, 81
4, 98600, Pitch_bend_c, 2, 8160
4, 98604, Pitch_bend_c, 2, 8128
4, 98632, Pitch_bend_c, 2, 7920
4, 98636, Pitch_bend_c, 2, 7648
4, 98640, Pitch_bend_c, 2, 7632
4, 98644, Pitch_bend_c, 2, 7568
4, 98652, Pitch_bend_c, 2, 7520
4, 98660, Pitch_bend_c, 2, 7456
4, 98660, Pitch_bend_c, 2, 7392
4, 98664, Pitch_bend_c, 2, 7344
4, 98672, Pitch_bend_c, 2, 7296
4, 98676, Pitch_bend_c, 2, 7248
4, 98680, Pitch_bend_c, 2, 7200
4, 98696, Pitch_bend_c, 2, 6944
4, 98704, Pitch_bend_c, 2, 6928
4, 98708, Pitch_bend_c, 2, 6896
4, 98712, Pitch_bend_c, 2, 6880
4, 98716, Pitch_bend_c, 2, 6848
4, 98736, Note_on_c, 2, 58, 0
4, 99612, Pitch_bend_c, 2, 8192
4, 99612, Note_on_c, 2, 57, 109
4, 99616, Pitch_bend_c, 2, 8144
4, 99624, Pitch_bend_c, 2, 8128
4, 99772, Pitch_bend_c, 2, 8112
4, 99784, Pitch_bend_c, 2, 8096
4, 99808, Pitch_bend_c, 2, 8080
4, 99908, Pitch_bend_c, 2, 8064
4, 99948, Pitch_bend_c, 2, 8048
4, 99980, Note_on_c, 2, 57, 0
4, 100052, Pitch_bend_c, 2, 8192
4, 100092, Pitch_bend_c, 2, 8144
4, 100100, Pitch_bend_c, 2, 8096
4, 100100, Pitch_bend_c, 2, 8064
4, 100112, Pitch_bend_c, 2, 8048
4, 101772, Pitch_bend_c, 2, 8192
4, 101772, Note_on_c, 2, 56, 109
4, 101796, Pitch_bend_c, 2, 8224
4, 101808, Pitch_bend_c, 2, 8272
4, 101816, Pitch_bend_c, 2, 8304
4, 101824, Pitch_bend_c, 2, 8368
4, 101832, Pitch_bend_c, 2, 8400
4, 101836, Pitch_bend_c, 2, 8448
4, 101844, Pitch_bend_c, 2, 8496
4, 101848, Pitch_bend_c, 2, 8528
4, 101852, Pitch_bend_c, 2, 8560
4, 101856, Pitch_bend_c, 2, 8640
4, 101872, Pitch_bend_c, 2, 8656
4, 101880, Pitch_bend_c, 2, 8672
4, 101884, Pitch_bend_c, 2, 8688
4, 101896, Pitch_bend_c, 2, 8704
4, 101904, Pitch_bend_c, 2, 8720
4, 101940, Pitch_bend_c, 2, 8736
4, 102012, Pitch_bend_c, 2, 8752
4, 102020, Pitch_bend_c, 2, 8704
4, 102052, Pitch_bend_c, 2, 6640
4, 102408, Note_on_c, 2, 56, 0
4, 105408, Pitch_bend_c, 2, 8192
4, 105408, Note_on_c, 2, 57, 109
4, 105420, Pitch_bend_c, 2, 8080
4, 105424, Pitch_bend_c, 2, 8032
4, 105428, Pitch_bend_c, 2, 8000
4, 105432, Pitch_bend_c, 2, 7984
4, 105704, Pitch_bend_c, 2, 8000
4, 105728, Pitch_bend_c, 2, 8016
4, 105740, Note_on_c, 2, 57, 0
4, 105828, Pitch_bend_c, 2, 8192
4, 105828, Note_on_c, 2, 54, 93
4, 105836, Note_on_c, 2, 54, 0
4, 105836, Pitch_bend_c, 2, 8144
4, 105852, Pitch_bend_c, 2, 8192
4, 105856, Note_on_c, 2, 57, 51
4, 105860, Note_on_c, 2, 57, 0
4, 105880, Pitch_bend_c, 2, 8160
4, 105888, Pitch_bend_c, 2, 8192
4, 105896, Pitch_bend_c, 2, 8240
4, 105908, Pitch_bend_c, 2, 8288
4, 105912, Pitch_bend_c, 2, 8384
4, 105924, Pitch_bend_c, 2, 8464
4, 105928, Pitch_bend_c, 2, 8848
4, 105940, Pitch_bend_c, 2, 8864
4, 105944, Pitch_bend_c, 2, 8912
4, 105948, Pitch_bend_c, 2, 8976
4, 105964, Pitch_bend_c, 2, 9072
4, 105968, Pitch_bend_c, 2, 9136
4, 105976, Pitch_bend_c, 2, 9200
4, 105976, Pitch_bend_c, 2, 9296
4, 105980, Pitch_bend_c, 2, 9328
4, 105984, Pitch_bend_c, 2, 9360
4, 105988, Pitch_bend_c, 2, 9376
4, 105996, Pitch_bend_c, 2, 9408
4, 106000, Pitch_bend_c, 2, 9424
4, 106008, Pitch_bend_c, 2, 9440
4, 106016, Pitch_bend_c, 2, 9456
4, 106016, Pitch_bend_c, 2, 9472
4, 106024, Pitch_bend_c, 2, 9456
4, 106032, Pitch_bend_c, 2, 9472
4, 106040, Pitch_bend_c, 2, 9456
4, 106080, Pitch_bend_c, 2, 9440
4, 106088, Pitch_bend_c, 2, 9424
4, 106092, Pitch_bend_c, 2, 9440
4, 106096, Pitch_bend_c, 2, 9456
4, 106112, Pitch_bend_c, 2, 9440
4, 106124, Pitch_bend_c, 2, 9424
4, 106144, Pitch_bend_c, 2, 9440
4, 106160, Pitch_bend_c, 2, 9456
4, 106168, Pitch_bend_c, 2, 9440
4, 106196, Pitch_bend_c, 2, 9424
4, 106196, Pitch_bend_c, 2, 9408
4, 106220, Pitch_bend_c, 2, 9392
4, 106232, Pitch_bend_c, 2, 9360
4, 106240, Pitch_bend_c, 2, 9344
4, 106244, Pitch_bend_c, 2, 9328
4, 106252, Pitch_bend_c, 2, 9312
4, 106256, Pitch_bend_c, 2, 9296
4, 106260, Pitch_bend_c, 2, 9280
4, 106268, Pitch_bend_c, 2, 9248
4, 106276, Pitch_bend_c, 2, 9216
4, 106276, Pitch_bend_c, 2, 9184
4, 106296, Pitch_bend_c, 2, 9152
4, 106296, Pitch_bend_c, 2, 8944
4, 106304, Pitch_bend_c, 2, 8960
4, 106308, Pitch_bend_c, 2, 8976
4, 106320, Pitch_bend_c, 2, 8928
4, 106324, Pitch_bend_c, 2, 8896
4, 106328, Pitch_bend_c, 2, 8816
4, 106340, Pitch_bend_c, 2, 8688
4, 106344, Pitch_bend_c, 2, 8592
4, 106356, Pitch_bend_c, 2, 8496
4, 106356, Pitch_bend_c, 2, 8336
4, 106368, Pitch_bend_c, 2, 8256
4, 106376, Pitch_bend_c, 2, 8240
4, 106392, Pitch_bend_c, 2, 8208
4, 106400, Pitch_bend_c, 2, 8272
4, 106400, Pitch_bend_c, 2, 8160
4, 107292, Pitch_bend_c, 2, 8192
4, 107296, Note_on_c, 2, 57, 109
4, 107300, Pitch_bend_c, 2, 8160
4, 107308, Pitch_bend_c, 2, 8128
4, 107308, Pitch_bend_c, 2, 8112
4, 107320, Pitch_bend_c, 2, 8096
4, 107480, Pitch_bend_c, 2, 8080
4, 107640, Note_on_c, 2, 57, 0
4, 109440, Pitch_bend_c, 2, 8192
4, 109444, Note_on_c, 2, 57, 108
4, 109464, Pitch_bend_c, 2, 8128
4, 109492, Pitch_bend_c, 2, 8032
4, 109500, Pitch_bend_c, 2, 8000
4, 109508, Pitch_bend_c, 2, 7984
4, 109512, Pitch_bend_c, 2, 7968
4, 109592, Pitch_bend_c, 2, 7952
4, 109656, Note_on_c, 2, 57, 0
4, 109704, Pitch_bend_c, 2, 8192
4, 109704, Note_on_c, 2, 54, 93
4, 109728, Pitch_bend_c, 2, 8128
4, 109732, Pitch_bend_c, 2, 8080
4, 109740, Pitch_bend_c, 2, 8048
4, 109744, Pitch_bend_c, 2, 8032
4, 109784, Pitch_bend_c, 2, 8016
4, 109784, Pitch_bend_c, 2, 8000
4, 109800, Pitch_bend_c, 2, 8016
4, 109824, Pitch_bend_c, 2, 8000
4, 109836, Pitch_bend_c, 2, 8016
4, 109844, Pitch_bend_c, 2, 8000
4, 109884, Pitch_bend_c, 2, 8016
4, 109900, Pitch_bend_c, 2, 8000
4, 109980, Note_on_c, 2, 54, 0
4, 110912, Pitch_bend_c, 2, 8192
4, 110912, Note_on_c, 2, 57, 67
4, 110936, Pitch_bend_c, 2, 8176
4, 110940, Pitch_bend_c, 2, 8192
4, 110960, Pitch_bend_c, 2, 8208
4, 110984, Pitch_bend_c, 2, 8224
4, 110988, Pitch_bend_c, 2, 8208
4, 111032, Note_on_c, 2, 57, 0
4, 111048, Pitch_bend_c, 2, 8192
4, 111064, Pitch_bend_c, 2, 8144
4, 111068, Pitch_bend_c, 2, 8096
4, 111068, Pitch_bend_c, 2, 8064
4, 111076, Pitch_bend_c, 2, 8032
4, 111088, Pitch_bend_c, 2, 8016
4, 111096, Pitch_bend_c, 2, 8000
4, 111108, Pitch_bend_c, 2, 7984
4, 111112, Pitch_bend_c, 2, 8000
4, 111236, Pitch_bend_c, 2, 8192
4, 111256, Pitch_bend_c, 2, 8272
4, 111384, Pitch_bend_c, 2, 8192
4, 111384, Note_on_c, 2, 56, 34
4, 111448, Pitch_bend_c, 2, 8272
4, 111484, Pitch_bend_c, 2, 8224
4, 111500, Pitch_bend_c, 2, 8256
4, 111512, Pitch_bend_c, 2, 8400
4, 111572, Pitch_bend_c, 2, 8512
4, 111624, Pitch_bend_c, 2, 8592
4, 111656, Pitch_bend_c, 2, 8576
4, 111672, Pitch_bend_c, 2, 6656
4, 111688, Pitch_bend_c, 2, 6640
4, 111716, Pitch_bend_c, 2, 6608
4, 111720, Pitch_bend_c, 2, 6592
4, 111728, Pitch_bend_c, 2, 6640
4, 111756, Pitch_bend_c, 2, 6608
4, 111776, Pitch_bend_c, 2, 6592
4, 111784, Pitch_bend_c, 2, 6608
4, 111800, Pitch_bend_c, 2, 6592
4, 111816, Pitch_bend_c, 2, 6608
4, 111824, Pitch_bend_c, 2, 6592
4, 111832, Pitch_bend_c, 2, 6624
4, 111840, Pitch_bend_c, 2, 6640
4, 111860, Pitch_bend_c, 2, 6656
4, 111916, Note_on_c, 2, 56, 0
4, 114280, Pitch_bend_c, 2, 8192
4, 114280, Note_on_c, 2, 59, 108
4, 114292, Pitch_bend_c, 2, 8240
4, 114296, Pitch_bend_c, 2, 8288
4, 114296, Pitch_bend_c, 2, 8320
4, 114300, Pitch_bend_c, 2, 8336
4, 114308, Pitch_bend_c, 2, 8352
4, 114308, Pitch_bend_c, 2, 8368
4, 114340, Pitch_bend_c, 2, 8384
4, 114352, Pitch_bend_c, 2, 8400
4, 114364, Pitch_bend_c, 2, 8416
4, 114372, Pitch_bend_c, 2, 8432
4, 114380, Pitch_bend_c, 2, 8448
4, 114380, Pitch_bend_c, 2, 8464
4, 114388, Pitch_bend_c, 2, 8480
4, 114396, Pitch_bend_c, 2, 8496
4, 114404, Pitch_bend_c, 2, 8512
4, 114412, Pitch_bend_c, 2, 8544
4, 114412, Pitch_bend_c, 2, 8640
4, 114416, Pitch_bend_c, 2, 8656
4, 114420, Pitch_bend_c, 2, 8672
4, 114424, Pitch_bend_c, 2, 8688
4, 114432, Pitch_bend_c, 2, 8720
4, 114440, Pitch_bend_c, 2, 8736
4, 114444, Pitch_bend_c, 2, 8768
4, 114452, Pitch_bend_c, 2, 8816
4, 114460, Pitch_bend_c, 2, 8864
4, 114468, Pitch_bend_c, 2, 8912
4, 114476, Pitch_bend_c, 2, 8976
4, 114484, Pitch_bend_c, 2, 9056
4, 114488, Pitch_bend_c, 2, 9136
4, 114492, Pitch_bend_c, 2, 9184
4, 114500, Pitch_bend_c, 2, 9232
4, 114500, Pitch_bend_c, 2, 9328
4, 114512, Pitch_bend_c, 2, 9360
4, 114524, Pitch_bend_c, 2, 9376
4, 114528, Pitch_bend_c, 2, 9408
4, 114536, Pitch_bend_c, 2, 9424
4, 114540, Pitch_bend_c, 2, 9440
4, 114548, Pitch_bend_c, 2, 9472
4, 114552, Pitch_bend_c, 2, 9488
4, 114556, Pitch_bend_c, 2, 9504
4, 114576, Pitch_bend_c, 2, 9520
4, 114584, Pitch_bend_c, 2, 9536
4, 114592, Pitch_bend_c, 2, 9520
4, 114604, Pitch_bend_c, 2, 9536
4, 114676, Pitch_bend_c, 2, 9520
4, 114732, Pitch_bend_c, 2, 9536
4, 114740, Pitch_bend_c, 2, 9520
4, 114768, Note_on_c, 2, 59, 0
4, 115052, Pitch_bend_c, 2, 8192
4, 115056, Note_on_c, 2, 57, 109
4, 115060, Pitch_bend_c, 2, 8160
4, 115064, Pitch_bend_c, 2, 8096
4, 115072, Pitch_bend_c, 2, 8048
4, 115076, Pitch_bend_c, 2, 8032
4, 115084, Pitch_bend_c, 2, 8016
4, 115104, Pitch_bend_c, 2, 8032
4, 115144, Pitch_bend_c, 2, 8016
4, 115144, Pitch_bend_c, 2, 8032
4, 115236, Pitch_bend_c, 2, 8048
4, 115280, Pitch_bend_c, 2, 8064
4, 115376, Note_on_c, 2, 57, 0
4, 115436, Pitch_bend_c, 2, 8192
4, 115436, Note_on_c, 2, 54, 62
4, 115444, Pitch_bend_c, 2, 8128
4, 115560, Note_on_c, 2, 54, 0
4, 119308, Pitch_bend_c, 2, 8192
4, 119308, Note_on_c, 2, 54, 84
4, 119372, Pitch_bend_c, 2, 8096
4, 119376, Pitch_bend_c, 2, 8048
4, 119384, Pitch_bend_c, 2, 8016
4, 119396, Pitch_bend_c, 2, 8000
4, 119476, Note_on_c, 2, 54, 0
4, 119508, Pitch_bend_c, 2, 8192
4, 119508, Note_on_c, 2, 61, 109
4, 119512, Pitch_bend_c, 2, 8128
4, 119524, Pitch_bend_c, 2, 8080
4, 119528, Pitch_bend_c, 2, 8032
4, 119540, Pitch_bend_c, 2, 8016
4, 119544, Pitch_bend_c, 2, 8000
4, 119568, Pitch_bend_c, 2, 8080
4, 119576, Pitch_bend_c, 2, 8144
4, 119580, Pitch_bend_c, 2, 8112
4, 119596, Pitch_bend_c, 2, 8080
4, 119608, Pitch_bend_c, 2, 8048
4, 119612, Pitch_bend_c, 2, 8016
4, 119640, Pitch_bend_c, 2, 8000
4, 119640, Pitch_bend_c, 2, 7984
4, 119700, Pitch_bend_c, 2, 8000
4, 119720, Pitch_bend_c, 2, 8032
4, 119724, Pitch_bend_c, 2, 8064
4, 119728, Pitch_bend_c, 2, 8096
4, 119740, Pitch_bend_c, 2, 8144
4, 119756, Pitch_bend_c, 2, 8240
4, 119764, Pitch_bend_c, 2, 8352
4, 119768, Pitch_bend_c, 2, 8464
4, 119772, Pitch_bend_c, 2, 8880
4, 119780, Pitch_bend_c, 2, 8912
4, 119788, Pitch_bend_c, 2, 8992
4, 119800, Pitch_bend_c, 2, 9120
4, 119828, Pitch_bend_c, 2, 10288
4, 119832, Pitch_bend_c, 2, 10304
4, 119836, Pitch_bend_c, 2, 10368
4, 119840, Pitch_bend_c, 2, 10480
4, 119856, Pitch_bend_c, 2, 11056
4, 119872, Pitch_bend_c, 2, 11088
4, 119872, Pitch_bend_c, 2, 11152
4, 119876, Pitch_bend_c, 2, 11216
4, 119888, Pitch_bend_c, 2, 11280
4, 119888, Pitch_bend_c, 2, 11392
4, 119900, Pitch_bend_c, 2, 11424
4, 119912, Pitch_bend_c, 2, 11440
4, 119916, Pitch_bend_c, 2, 11472
4, 119928, Pitch_bend_c, 2, 11488
4, 119936, Pitch_bend_c, 2, 11520
4, 119956, Pitch_bend_c, 2, 11536
4, 119988, Pitch_bend_c, 2, 11504
4, 120016, Pitch_bend_c, 2, 11520
4, 120124, Pitch_bend_c, 2, 11504
4, 120152, Pitch_bend_c, 2, 11488
4, 120164, Pitch_bend_c, 2, 11472
4, 120324, Pitch_bend_c, 2, 11488
4, 120372, Pitch_bend_c, 2, 11456
4, 120376, Pitch_bend_c, 2, 11472
4, 120392, Pitch_bend_c, 2, 11424
4, 120548, Note_on_c, 2, 61, 0
4, 120548, End_track
5, 0, Start_track
5, 0, MIDI_port, 0
5, 0, Control_c, 3, 91, 89
5, 0, Control_c, 3, 93, 69
5, 0, Control_c, 3, 121, 0
5, 1, Control_c, 3, 32, 0
5, 18, Control_c, 3, 101, 0
5, 18, Control_c, 3, 100, 0
5, 18, Control_c, 3, 6, 12
5, 18, Control_c, 3, 38, 0
5, 21, Control_c, 3, 11, 127
5, 497, Program_c, 3, 29
5, 498, Control_c, 3, 7, 120
5, 498, Control_c, 3, 10, 43
5, 1976, Control_c, 3, 101, 0
5, 1976, Control_c, 3, 100, 0
5, 1976, Control_c, 3, 6, 12
5, 1976, Control_c, 3, 38, 0
5, 4296, Pitch_bend_c, 3, 8192
5, 4296, Note_on_c, 3, 54, 37
5, 4297, Note_on_c, 3, 54, 0
5, 4308, Pitch_bend_c, 3, 8192
5, 4312, Note_on_c, 3, 55, 31
5, 4328, Pitch_bend_c, 3, 8032
5, 4336, Pitch_bend_c, 3, 8128
5, 4352, Pitch_bend_c, 3, 8208
5, 4384, Pitch_bend_c, 3, 8272
5, 4400, Pitch_bend_c, 3, 8224
5, 4436, Pitch_bend_c, 3, 8304
5, 4484, Pitch_bend_c, 3, 8160
5, 4500, Pitch_bend_c, 3, 8256
5, 4516, Pitch_bend_c, 3, 8352
5, 4532, Pitch_bend_c, 3, 8416
5, 4664, Pitch_bend_c, 3, 9280
5, 4676, Note_on_c, 3, 55, 0
5, 7964, Pitch_bend_c, 3, 8192
5, 7968, Note_on_c, 3, 62, 100
5, 7988, Pitch_bend_c, 3, 8128
5, 7988, Pitch_bend_c, 3, 8112
5, 7992, Pitch_bend_c, 3, 8080
5, 8036, Pitch_bend_c, 3, 8048
5, 8040, Pitch_bend_c, 3, 8032
5, 8048, Pitch_bend_c, 3, 8016
5, 8076, Pitch_bend_c, 3, 8032
5, 8160, Pitch_bend_c, 3, 7952
5, 8168, Pitch_bend_c, 3, 7888
5, 8172, Pitch_bend_c, 3, 7824
5, 8196, Pitch_bend_c, 3, 7376
5, 8232, Note_on_c, 3, 62, 0
5, 11800, Pitch_bend_c, 3, 8192
5, 11800, Note_on_c, 3, 62, 99
5, 11820, Pitch_bend_c, 3, 8160
5, 11868, Pitch_bend_c, 3, 8080
5, 11888, Pitch_bend_c, 3, 8048
5, 11892, Pitch_bend_c, 3, 8032
5, 11916, Pitch_bend_c, 3, 8016
5, 11948, Pitch_bend_c, 3, 8000
5, 11984, Pitch_bend_c, 3, 7888
5, 12000, Note_on_c, 3, 62, 0
5, 12008, Pitch_bend_c, 3, 8192
5, 12008, Note_on_c, 3, 60, 89
5, 12096, Note_on_c, 3, 60, 0
5, 19484, Pitch_bend_c, 3, 8192
5, 19484, Note_on_c, 3, 62, 98
5, 19556, Pitch_bend_c, 3, 8096
5, 19560, Pitch_bend_c, 3, 8064
5, 19564, Pitch_bend_c, 3, 8032
5, 19580, Pitch_bend_c, 3, 8016
5, 19584, Pitch_bend_c, 3, 8032
5, 19620, Pitch_bend_c, 3, 8016
5, 19624, Pitch_bend_c, 3, 8000
5, 19624, Pitch_bend_c, 3, 7968
5, 19632, Pitch_bend_c, 3, 7936
5, 19636, Pitch_bend_c, 3, 7904
5, 19640, Note_on_c, 3, 62, 0
5, 19640, Pitch_bend_c, 3, 7840
5, 19668, Pitch_bend_c, 3, 8192
5, 19668, Note_on_c, 3, 61, 89
5, 19676, Pitch_bend_c, 3, 8016
5, 19740, Pitch_bend_c, 3, 6016
5, 19760, Note_on_c, 3, 61, 0
5, 22792, Pitch_bend_c, 3, 8192
5, 22792, Note_on_c, 3, 50, 40
5, 22824, Pitch_bend_c, 3, 8160
5, 22828, Pitch_bend_c, 3, 8128
5, 22836, Pitch_bend_c, 3, 8112
5, 22840, Pitch_bend_c, 3, 8096
5, 22884, Note_on_c, 3, 50, 0
5, 34820, Pitch_bend_c, 3, 8192
5, 34820, Note_on_c, 3, 62, 98
5, 34876, Pitch_bend_c, 3, 8144
5, 34880, Pitch_bend_c, 3, 8096
5, 34884, Pitch_bend_c, 3, 8064
5, 34888, Pitch_bend_c, 3, 8048
5, 34892, Pitch_bend_c, 3, 8032
5, 34904, Pitch_bend_c, 3, 8016
5, 35120, Pitch_bend_c, 3, 7584
5, 35188, Pitch_bend_c, 3, 6720
5, 35196, Pitch_bend_c, 3, 6656
5, 35204, Pitch_bend_c, 3, 6544
5, 35220, Pitch_bend_c, 3, 5984
5, 35224, Pitch_bend_c, 3, 5936
5, 35236, Pitch_bend_c, 3, 5392
5, 35264, Note_on_c, 3, 62, 0
5, 42532, Pitch_bend_c, 3, 8192
5, 42532, Note_on_c, 3, 62, 74
5, 42556, Pitch_bend_c, 3, 8128
5, 42564, Pitch_bend_c, 3, 8096
5, 42572, Pitch_bend_c, 3, 8064
5, 42584, Pitch_bend_c, 3, 8048
5, 42592, Pitch_bend_c, 3, 8064
5, 42676, Pitch_bend_c, 3, 8048
5, 42704, Pitch_bend_c, 3, 8032
5, 42832, Pitch_bend_c, 3, 8000
5, 42836, Pitch_bend_c, 3, 7984
5, 42836, Pitch_bend_c, 3, 7968
5, 42852, Pitch_bend_c, 3, 7920
5, 42872, Pitch_bend_c, 3, 7856
5, 42872, Pitch_bend_c, 3, 7792
5, 42876, Pitch_bend_c, 3, 7712
5, 42884, Pitch_bend_c, 3, 7680
5, 42892, Pitch_bend_c, 3, 7632
5, 42896, Pitch_bend_c, 3, 7552
5, 42904, Pitch_bend_c, 3, 7472
5, 42920, Note_on_c, 3, 62, 0
5, 57876, Pitch_bend_c, 3, 8192
5, 57876, Note_on_c, 3, 62, 97
5, 58040, Pitch_bend_c, 3, 8128
5, 58196, Pitch_bend_c, 3, 6048
5, 58228, Pitch_bend_c, 3, 5136
5, 58228, Pitch_bend_c, 3, 5120
5, 58244, Pitch_bend_c, 3, 5056
5, 58248, Pitch_bend_c, 3, 4640
5, 58264, Note_on_c, 3, 62, 0
5, 65552, Pitch_bend_c, 3, 8192
5, 65552, Note_on_c, 3, 62, 93
5, 65632, Pitch_bend_c, 3, 8128
5, 65636, Pitch_bend_c, 3, 8096
5, 65644, Pitch_bend_c, 3, 8080
5, 65648, Pitch_bend_c, 3, 8064
5, 65656, Pitch_bend_c, 3, 8080
5, 65732, Pitch_bend_c, 3, 8064
5, 65740, Pitch_bend_c, 3, 7984
5, 65776, Pitch_bend_c, 3, 7568
5, 65804, Pitch_bend_c, 3, 7440
5, 65816, Note_on_c, 3, 62, 0
5, 65828, Pitch_bend_c, 3, 8192
5, 65828, Note_on_c, 3, 60, 67
5, 65856, Pitch_bend_c, 3, 8080
5, 65880, Pitch_bend_c, 3, 6752
5, 65888, Pitch_bend_c, 3, 6720
5, 65896, Pitch_bend_c, 3, 6624
5, 65900, Pitch_bend_c, 3, 6512
5, 65916, Note_on_c, 3, 60, 0
5, 65928, Pitch_bend_c, 3, 8192
5, 65928, Note_on_c, 3, 50, 50
5, 65984, Note_on_c, 3, 50, 0
5, 80628, Pitch_bend_c, 3, 8192
5, 80628, Note_on_c, 3, 60, 25
5, 80660, Note_on_c, 3, 60, 0
5, 80932, Pitch_bend_c, 3, 8192
5, 80932, Note_on_c, 3, 62, 94
5, 80980, Pitch_bend_c, 3, 8096
5, 81000, Pitch_bend_c, 3, 8048
5, 81012, Pitch_bend_c, 3, 8016
5, 81076, Pitch_bend_c, 3, 8000
5, 81080, Pitch_bend_c, 3, 7984
5, 81092, Pitch_bend_c, 3, 7968
5, 81108, Pitch_bend_c, 3, 7952
5, 81112, Pitch_bend_c, 3, 7936
5, 81128, Pitch_bend_c, 3, 7888
5, 81132, Pitch_bend_c, 3, 7840
5, 81140, Note_on_c, 3, 62, 0
5, 81160, Pitch_bend_c, 3, 8192
5, 81164, Note_on_c, 3, 61, 74
5, 81168, Pitch_bend_c, 3, 8160
5, 81176, Pitch_bend_c, 3, 8112
5, 81244, Pitch_bend_c, 3, 6512
5, 81252, Pitch_bend_c, 3, 6448
5, 81264, Note_on_c, 3, 61, 0
5, 88612, Pitch_bend_c, 3, 8192
5, 88612, Note_on_c, 3, 62, 85
5, 88668, Pitch_bend_c, 3, 8160
5, 88696, Pitch_bend_c, 3, 8128
5, 88700, Pitch_bend_c, 3, 8112
5, 88720, Pitch_bend_c, 3, 8096
5, 88792, Pitch_bend_c, 3, 8064
5, 88804, Pitch_bend_c, 3, 8032
5, 88816, Pitch_bend_c, 3, 8000
5, 88820, Pitch_bend_c, 3, 7968
5, 88876, Pitch_bend_c, 3, 7856
5, 88884, Pitch_bend_c, 3, 7760
5, 88884, Pitch_bend_c, 3, 7568
5, 88892, Pitch_bend_c, 3, 7536
5, 88928, Pitch_bend_c, 3, 6960
5, 88944, Pitch_bend_c, 3, 6848
5, 88944, Pitch_bend_c, 3, 6736
5, 88980, Pitch_bend_c, 3, 5952
5, 88996, Pitch_bend_c, 3, 5872
5, 89012, Note_on_c, 3, 62, 0
5, 97724, Pitch_bend_c, 3, 8192
5, 97724, Note_on_c, 3, 53, 48
5, 97736, Pitch_bend_c, 3, 8176
5, 97744, Pitch_bend_c, 3, 8208
5, 97752, Pitch_bend_c, 3, 8256
5, 97764, Pitch_bend_c, 3, 8272
5, 97768, Pitch_bend_c, 3, 8176
5, 97788, Pitch_bend_c, 3, 8080
5, 97808, Pitch_bend_c, 3, 8016
5, 97824, Pitch_bend_c, 3, 7984
5, 97828, Pitch_bend_c, 3, 7952
5, 97840, Pitch_bend_c, 3, 7936
5, 97844, Pitch_bend_c, 3, 7920
5, 97876, Note_on_c, 3, 53, 0
5, 103544, Pitch_bend_c, 3, 8192
5, 103544, Note_on_c, 3, 52, 110
5, 103560, Pitch_bend_c, 3, 8176
5, 103560, Pitch_bend_c, 3, 8160
5, 103568, Pitch_bend_c, 3, 8144
5, 103636, Pitch_bend_c, 3, 8160
5, 103640, Pitch_bend_c, 3, 8192
5, 103648, Pitch_bend_c, 3, 8208
5, 103648, Pitch_bend_c, 3, 8240
5, 103656, Pitch_bend_c, 3, 8256
5, 103660, Pitch_bend_c, 3, 8288
5, 103668, Pitch_bend_c, 3, 8320
5, 103676, Pitch_bend_c, 3, 8384
5, 103688, Pitch_bend_c, 3, 8432
5, 103704, Pitch_bend_c, 3, 8544
5, 103704, Pitch_bend_c, 3, 8624
5, 103704, Pitch_bend_c, 3, 8832
5, 103720, Pitch_bend_c, 3, 8848
5, 103724, Pitch_bend_c, 3, 8880
5, 103732, Pitch_bend_c, 3, 8944
5, 103732, Pitch_bend_c, 3, 8992
5, 103740, Pitch_bend_c, 3, 9040
5, 103744, Pitch_bend_c, 3, 9088
5, 103752, Pitch_bend_c, 3, 9136
5, 103764, Pitch_bend_c, 3, 9200
5, 103788, Pitch_bend_c, 3, 9264
5, 103792, Pitch_bend_c, 3, 9440
5, 103824, Pitch_bend_c, 3, 9456
5, 103832, Pitch_bend_c, 3, 9472
5, 103836, Pitch_bend_c, 3, 9488
5, 103844, Pitch_bend_c, 3, 9504
5, 103848, Pitch_bend_c, 3, 9536
5, 103864, Pitch_bend_c, 3, 9552
5, 103876, Pitch_bend_c, 3, 9536
5, 103892, Pitch_bend_c, 3, 9520
5, 103896, Pitch_bend_c, 3, 9504
5, 103900, Pitch_bend_c, 3, 9488
5, 103948, Note_on_c, 3, 52, 0
5, 104016, Pitch_bend_c, 3, 8192
5, 104016, Note_on_c, 3, 50, 83
5, 104052, Pitch_bend_c, 3, 8176
5, 104140, Pitch_bend_c, 3, 8144
5, 104160, Pitch_bend_c, 3, 8128
5, 104164, Pitch_bend_c, 3, 8112
5, 104236, Pitch_bend_c, 3, 8128
5, 104260, Pitch_bend_c, 3, 8096
5, 104264, Pitch_bend_c, 3, 8080
5, 104280, Pitch_bend_c, 3, 8096
5, 104296, Note_on_c, 3, 50, 0
5, 110924, Pitch_bend_c, 3, 8192
5, 110996, Pitch_bend_c, 3, 8288
5, 111228, Pitch_bend_c, 3, 8192
5, 111228, Note_on_c, 3, 52, 109
5, 111280, Pitch_bend_c, 3, 8176
5, 111360, Pitch_bend_c, 3, 8272
5, 111368, Pitch_bend_c, 3, 8384
5, 111376, Pitch_bend_c, 3, 8480
5, 111380, Pitch_bend_c, 3, 8656
5, 111388, Pitch_bend_c, 3, 8688
5, 111400, Pitch_bend_c, 3, 8768
5, 111404, Pitch_bend_c, 3, 8864
5, 111432, Pitch_bend_c, 3, 8976
5, 111440, Pitch_bend_c, 3, 9104
5, 111464, Pitch_bend_c, 3, 9232
5, 111476, Pitch_bend_c, 3, 9552
5, 111496, Pitch_bend_c, 3, 9568
5, 111512, Pitch_bend_c, 3, 9600
5, 111516, Pitch_bend_c, 3, 9616
5, 111524, Pitch_bend_c, 3, 9648
5, 111528, Pitch_bend_c, 3, 9664
5, 111540, Pitch_bend_c, 3, 9680
5, 111628, Note_on_c, 3, 52, 0
5, 111688, Pitch_bend_c, 3, 8192
5, 111692, Note_on_c, 3, 50, 74
5, 111728, Pitch_bend_c, 3, 8128
5, 111736, Pitch_bend_c, 3, 8112
5, 111744, Pitch_bend_c, 3, 8096
5, 111764, Pitch_bend_c, 3, 8112
5, 111788, Pitch_bend_c, 3, 8128
5, 111792, Pitch_bend_c, 3, 8208
5, 111860, Pitch_bend_c, 3, 8192
5, 111904, Note_on_c, 3, 50, 0
5, 114588, Pitch_bend_c, 3, 8192
5, 114588, Note_on_c, 3, 56, 107
5, 114628, Pitch_bend_c, 3, 9008
5, 114672, Pitch_bend_c, 3, 8992
5, 114772, Note_on_c, 3, 56, 0
5, 114772, End_track
6, 0, Start_track
6, 0, MIDI_port, 0
6, 0, Control_c, 4, 91, 89
6, 0, Control_c, 4, 93, 69
6, 0, Control_c, 4, 121, 0
6, 1, Control_c, 4, 32, 0
6, 18, Control_c, 4, 101, 0
6, 18, Control_c, 4, 100, 0
6, 18, Control_c, 4, 6, 12
6, 18, Control_c, 4, 38, 0
6, 21, Control_c, 4, 11, 127
6, 502, Program_c, 4, 29
6, 503, Control_c, 4, 7, 120
6, 503, Control_c, 4, 10, 44
6, 1976, Control_c, 4, 101, 0
6, 1976, Control_c, 4, 100, 0
6, 1976, Control_c, 4, 6, 12
6, 1976, Control_c, 4, 38, 0
6, 4844, Pitch_bend_c, 4, 8192
6, 4844, Note_on_c, 4, 52, 31
6, 4904, Pitch_bend_c, 4, 8336
6, 4976, Pitch_bend_c, 4, 8304
6, 5144, Note_on_c, 4, 52, 0
6, 5144, End_track
7, 0, Start_track
7, 0, MIDI_port, 0
7, 0, Control_c, 6, 91, 99
7, 0, Control_c, 6, 93, 79
7, 0, Control_c, 6, 121, 0
7, 1, Control_c, 6, 32, 0
7, 18, Control_c, 6, 101, 0
7, 18, Control_c, 6, 100, 0
7, 18, Control_c, 6, 6, 12
7, 18, Control_c, 6, 38, 0
7, 21, Control_c, 6, 11, 127
7, 512, Program_c, 6, 28
7, 513, Control_c, 6, 7, 120
7, 513, Control_c, 6, 10, 52
7, 5784, Note_on_c, 6, 38, 87
7, 5796, Note_on_c, 6, 45, 87
7, 6036, Note_on_c, 6, 38, 0
7, 6052, Note_on_c, 6, 45, 0
7, 6092, Note_on_c, 6, 38, 87
7, 6100, Note_on_c, 6, 45, 87
7, 6224, Note_on_c, 6, 45, 0
7, 6224, Note_on_c, 6, 38, 0
7, 6264, Note_on_c, 6, 38, 87
7, 6268, Note_on_c, 6, 47, 88
7, 6524, Note_on_c, 6, 38, 0
7, 6528, Note_on_c, 6, 47, 0
7, 6540, Note_on_c, 6, 47, 87
7, 6556, Note_on_c, 6, 38, 87
7, 6664, Note_on_c, 6, 47, 0
7, 6704, Note_on_c, 6, 38, 0
7, 6720, Note_on_c, 6, 45, 88
7, 6736, Note_on_c, 6, 38, 87
7, 6964, Note_on_c, 6, 45, 0
7, 7008, Note_on_c, 6, 38, 0
7, 7044, Note_on_c, 6, 38, 87
7, 7052, Note_on_c, 6, 45, 83
7, 7180, Note_on_c, 6, 38, 0
7, 7196, Note_on_c, 6, 45, 0
7, 7224, Note_on_c, 6, 38, 87
7, 7228, Note_on_c, 6, 47, 88
7, 7464, Note_on_c, 6, 38, 0
7, 7484, Note_on_c, 6, 47, 0
7, 7500, Note_on_c, 6, 47, 87
7, 7512, Note_on_c, 6, 38, 87
7, 7624, Note_on_c, 6, 47, 0
7, 7688, Note_on_c, 6, 43, 88
7, 7692, Note_on_c, 6, 50, 86
7, 7956, Note_on_c, 6, 50, 0
7, 7964, Note_on_c, 6, 43, 0
7, 7988, Note_on_c, 6, 43, 88
7, 7996, Note_on_c, 6, 50, 83
7, 8108, Note_on_c, 6, 50, 0
7, 8132, Note_on_c, 6, 43, 0
7, 8136, Note_on_c, 6, 52, 70
7, 8148, Note_on_c, 6, 52, 0
7, 8172, Note_on_c, 6, 43, 88
7, 8180, Note_on_c, 6, 52, 87
7, 8452, Note_on_c, 6, 52, 0
7, 8460, Note_on_c, 6, 43, 0
7, 8460, Note_on_c, 6, 52, 83
7, 8484, Note_on_c, 6, 43, 88
7, 8572, Note_on_c, 6, 52, 0
7, 8632, Note_on_c, 6, 43, 0
7, 8668, Note_on_c, 6, 43, 88
7, 8676, Note_on_c, 6, 50, 87
7, 8936, Note_on_c, 6, 50, 0
7, 8952, Note_on_c, 6, 43, 0
7, 8968, Note_on_c, 6, 43, 87
7, 8972, Note_on_c, 6, 50, 84
7, 9088, Note_on_c, 6, 50, 0
7, 9108, Note_on_c, 6, 52, 72
7, 9112, Note_on_c, 6, 43, 0
7, 9132, Note_on_c, 6, 52, 0
7, 9152, Note_on_c, 6, 43, 88
7, 9156, Note_on_c, 6, 52, 87
7, 9400, Note_on_c, 6, 52, 0
7, 9408, Note_on_c, 6, 43, 0
7, 9440, Note_on_c, 6, 52, 74
7, 9560, Note_on_c, 6, 38, 0
7, 9576, Note_on_c, 6, 52, 0
7, 9576, Note_on_c, 6, 45, 81
7, 9612, Note_on_c, 6, 45, 0
7, 9612, Note_on_c, 6, 38, 88
7, 9620, Note_on_c, 6, 45, 87
7, 9896, Note_on_c, 6, 45, 0
7, 9900, Note_on_c, 6, 38, 0
7, 9900, Note_on_c, 6, 45, 86
7, 9916, Note_on_c, 6, 38, 87
7, 10028, Note_on_c, 6, 45, 0
7, 10056, Note_on_c, 6, 47, 54
7, 10064, Note_on_c, 6, 47, 0
7, 10064, Note_on_c, 6, 38, 0
7, 10092, Note_on_c, 6, 38, 87
7, 10100, Note_on_c, 6, 47, 87
7, 10352, Note_on_c, 6, 38, 0
7, 10356, Note_on_c, 6, 47, 0
7, 10388, Note_on_c, 6, 38, 87
7, 10400, Note_on_c, 6, 47, 72
7, 10528, Note_on_c, 6, 47, 0
7, 10532, Note_on_c, 6, 38, 0
7, 10564, Note_on_c, 6, 38, 88
7, 10572, Note_on_c, 6, 45, 88
7, 10844, Note_on_c, 6, 38, 0
7, 10848, Note_on_c, 6, 45, 0
7, 10868, Note_on_c, 6, 38, 87
7, 10876, Note_on_c, 6, 45, 86
7, 11004, Note_on_c, 6, 45, 0
7, 11012, Note_on_c, 6, 47, 72
7, 11020, Note_on_c, 6, 38, 0
7, 11036, Note_on_c, 6, 47, 0
7, 11048, Note_on_c, 6, 38, 87
7, 11052, Note_on_c, 6, 47, 88
7, 11316, Note_on_c, 6, 38, 0
7, 11320, Note_on_c, 6, 47, 0
7, 11340, Note_on_c, 6, 38, 86
7, 11356, Note_on_c, 6, 47, 78
7, 11464, Note_on_c, 6, 47, 0
7, 11480, Note_on_c, 6, 38, 0
7, 11516, Note_on_c, 6, 38, 87
7, 11532, Note_on_c, 6, 45, 88
7, 11804, Note_on_c, 6, 38, 0
7, 11812, Note_on_c, 6, 45, 0
7, 11820, Note_on_c, 6, 45, 86
7, 11828, Note_on_c, 6, 38, 87
7, 11956, Note_on_c, 6, 45, 0
7, 11964, Note_on_c, 6, 47, 36
7, 11972, Note_on_c, 6, 38, 0
7, 11988, Note_on_c, 6, 47, 0
7, 12004, Note_on_c, 6, 38, 87
7, 12008, Note_on_c, 6, 47, 88
7, 12272, Note_on_c, 6, 47, 0
7, 12272, Note_on_c, 6, 38, 0
7, 12304, Note_on_c, 6, 38, 87
7, 12312, Note_on_c, 6, 47, 87
7, 12436, Note_on_c, 6, 47, 0
7, 12448, Note_on_c, 6, 38, 0
7, 12484, Note_on_c, 6, 38, 87
7, 12492, Note_on_c, 6, 45, 87
7, 12752, Note_on_c, 6, 38, 0
7, 12756, Note_on_c, 6, 45, 0
7, 12792, Note_on_c, 6, 38, 88
7, 12792, Note_on_c, 6, 45, 86
7, 12928, Note_on_c, 6, 45, 0
7, 12928, Note_on_c, 6, 38, 0
7, 12956, Note_on_c, 6, 38, 87
7, 12960, Note_on_c, 6, 47, 87
7, 13196, Note_on_c, 6, 38, 0
7, 13220, Note_on_c, 6, 47, 0
7, 13264, Note_on_c, 6, 47, 84
7, 13384, Note_on_c, 6, 47, 0
7, 13436, Note_on_c, 6, 43, 88
7, 13440, Note_on_c, 6, 50, 63
7, 13716, Note_on_c, 6, 50, 0
7, 13724, Note_on_c, 6, 43, 0
7, 13740, Note_on_c, 6, 43, 88
7, 13772, Note_on_c, 6, 50, 86
7, 13892, Note_on_c, 6, 50, 0
7, 13892, Note_on_c, 6, 43, 0
7, 13892, Note_on_c, 6, 52, 77
7, 13916, Note_on_c, 6, 52, 0
7, 13928, Note_on_c, 6, 43, 88
7, 13948, Note_on_c, 6, 52, 87
7, 14188, Note_on_c, 6, 43, 0
7, 14212, Note_on_c, 6, 52, 0
7, 14224, Note_on_c, 6, 43, 88
7, 14232, Note_on_c, 6, 52, 87
7, 14376, Note_on_c, 6, 52, 0
7, 14388, Note_on_c, 6, 43, 0
7, 14416, Note_on_c, 6, 43, 88
7, 14420, Note_on_c, 6, 50, 86
7, 14680, Note_on_c, 6, 43, 0
7, 14684, Note_on_c, 6, 50, 0
7, 14704, Note_on_c, 6, 43, 87
7, 14712, Note_on_c, 6, 50, 87
7, 14836, Note_on_c, 6, 43, 0
7, 14860, Note_on_c, 6, 50, 0
7, 14884, Note_on_c, 6, 43, 88
7, 14904, Note_on_c, 6, 52, 87
7, 15140, Note_on_c, 6, 43, 0
7, 15160, Note_on_c, 6, 52, 0
7, 15164, Note_on_c, 6, 43, 88
7, 15176, Note_on_c, 6, 52, 87
7, 15300, Note_on_c, 6, 52, 0
7, 15312, Note_on_c, 6, 43, 0
7, 15352, Note_on_c, 6, 43, 88
7, 15356, Note_on_c, 6, 50, 87
7, 15632, Note_on_c, 6, 50, 0
7, 15648, Note_on_c, 6, 43, 0
7, 15664, Note_on_c, 6, 43, 88
7, 15668, Note_on_c, 6, 50, 85
7, 15812, Note_on_c, 6, 43, 0
7, 15820, Note_on_c, 6, 50, 0
7, 15840, Note_on_c, 6, 43, 87
7, 15844, Note_on_c, 6, 52, 87
7, 16116, Note_on_c, 6, 52, 0
7, 16148, Note_on_c, 6, 52, 78
7, 16292, Note_on_c, 6, 43, 0
7, 16296, Note_on_c, 6, 52, 0
7, 16316, Note_on_c, 6, 43, 88
7, 16320, Note_on_c, 6, 50, 86
7, 16588, Note_on_c, 6, 43, 0
7, 16596, Note_on_c, 6, 50, 0
7, 16612, Note_on_c, 6, 43, 88
7, 16624, Note_on_c, 6, 50, 87
7, 16744, Note_on_c, 6, 50, 0
7, 16752, Note_on_c, 6, 52, 78
7, 16760, Note_on_c, 6, 43, 0
7, 16768, Note_on_c, 6, 52, 0
7, 16800, Note_on_c, 6, 43, 88
7, 16804, Note_on_c, 6, 52, 87
7, 17040, Note_on_c, 6, 52, 0
7, 17048, Note_on_c, 6, 43, 0
7, 17080, Note_on_c, 6, 43, 87
7, 17080, Note_on_c, 6, 52, 87
7, 17212, Note_on_c, 6, 52, 0
7, 17240, Note_on_c, 6, 43, 0
7, 17264, Note_on_c, 6, 38, 87
7, 17272, Note_on_c, 6, 45, 86
7, 17544, Note_on_c, 6, 38, 0
7, 17548, Note_on_c, 6, 45, 0
7, 17572, Note_on_c, 6, 38, 88
7, 17584, Note_on_c, 6, 45, 85
7, 17696, Note_on_c, 6, 45, 0
7, 17712, Note_on_c, 6, 38, 0
7, 17748, Note_on_c, 6, 38, 87
7, 17756, Note_on_c, 6, 47, 85
7, 18024, Note_on_c, 6, 38, 0
7, 18032, Note_on_c, 6, 47, 0
7, 18064, Note_on_c, 6, 38, 87
7, 18076, Note_on_c, 6, 47, 88
7, 18196, Note_on_c, 6, 47, 0
7, 18200, Note_on_c, 6, 38, 0
7, 18244, Note_on_c, 6, 38, 87
7, 18276, Note_on_c, 6, 45, 87
7, 18504, Note_on_c, 6, 38, 0
7, 18524, Note_on_c, 6, 45, 0
7, 18540, Note_on_c, 6, 38, 87
7, 18548, Note_on_c, 6, 45, 86
7, 18676, Note_on_c, 6, 45, 0
7, 18684, Note_on_c, 6, 38, 0
7, 18724, Note_on_c, 6, 38, 88
7, 18728, Note_on_c, 6, 47, 85
7, 18980, Note_on_c, 6, 38, 0
7, 18992, Note_on_c, 6, 47, 0
7, 19016, Note_on_c, 6, 38, 88
7, 19024, Note_on_c, 6, 47, 85
7, 19164, Note_on_c, 6, 47, 0
7, 19168, Note_on_c, 6, 38, 0
7, 19200, Note_on_c, 6, 38, 87
7, 19208, Note_on_c, 6, 45, 87
7, 19472, Note_on_c, 6, 38, 0
7, 19484, Note_on_c, 6, 45, 0
7, 19504, Note_on_c, 6, 38, 87
7, 19520, Note_on_c, 6, 45, 84
7, 19656, Note_on_c, 6, 45, 0
7, 19656, Note_on_c, 6, 38, 0
7, 19684, Note_on_c, 6, 38, 87
7, 19696, Note_on_c, 6, 47, 87
7, 19940, Note_on_c, 6, 38, 0
7, 19960, Note_on_c, 6, 47, 0
7, 19980, Note_on_c, 6, 47, 85
7, 19984, Note_on_c, 6, 38, 87
7, 20120, Note_on_c, 6, 47, 0
7, 20132, Note_on_c, 6, 38, 0
7, 20160, Note_on_c, 6, 38, 88
7, 20168, Note_on_c, 6, 45, 87
7, 20420, Note_on_c, 6, 38, 0
7, 20436, Note_on_c, 6, 45, 0
7, 20464, Note_on_c, 6, 38, 87
7, 20476, Note_on_c, 6, 45, 79
7, 20604, Note_on_c, 6, 38, 0
7, 20612, Note_on_c, 6, 45, 0
7, 20636, Note_on_c, 6, 38, 88
7, 20644, Note_on_c, 6, 47, 87
7, 20872, Note_on_c, 6, 47, 0
7, 20880, Note_on_c, 6, 38, 0
7, 20940, Note_on_c, 6, 38, 87
7, 21080, Note_on_c, 6, 38, 0
7, 21116, Note_on_c, 6, 52, 85
7, 21120, Note_on_c, 6, 45, 88
7, 21368, Note_on_c, 6, 52, 0
7, 21380, Note_on_c, 6, 45, 0
7, 21400, Note_on_c, 6, 45, 88
7, 21412, Note_on_c, 6, 52, 72
7, 21500, Note_on_c, 6, 52, 0
7, 21552, Note_on_c, 6, 45, 0
7, 21592, Note_on_c, 6, 45, 88
7, 21596, Note_on_c, 6, 54, 87
7, 21840, Note_on_c, 6, 45, 0
7, 21856, Note_on_c, 6, 54, 0
7, 21884, Note_on_c, 6, 45, 88
7, 21888, Note_on_c, 6, 54, 60
7, 21972, Note_on_c, 6, 54, 0
7, 22028, Note_on_c, 6, 45, 0
7, 22080, Note_on_c, 6, 45, 88
7, 22088, Note_on_c, 6, 52, 70
7, 22340, Note_on_c, 6, 45, 0
7, 22348, Note_on_c, 6, 52, 0
7, 22376, Note_on_c, 6, 45, 87
7, 22392, Note_on_c, 6, 52, 49
7, 22468, Note_on_c, 6, 52, 0
7, 22564, Note_on_c, 6, 54, 87
7, 22804, Note_on_c, 6, 54, 0
7, 22812, Note_on_c, 6, 45, 0
7, 22832, Note_on_c, 6, 45, 88
7, 22852, Note_on_c, 6, 54, 81
7, 23020, Note_on_c, 6, 54, 0
7, 23024, Note_on_c, 6, 45, 0
7, 23048, Note_on_c, 6, 43, 88
7, 23052, Note_on_c, 6, 50, 87
7, 23356, Note_on_c, 6, 50, 0
7, 23364, Note_on_c, 6, 50, 76
7, 23464, Note_on_c, 6, 50, 0
7, 23480, Note_on_c, 6, 52, 59
7, 23496, Note_on_c, 6, 43, 0
7, 23508, Note_on_c, 6, 52, 0
7, 23536, Note_on_c, 6, 43, 88
7, 23540, Note_on_c, 6, 52, 87
7, 23796, Note_on_c, 6, 52, 0
7, 23812, Note_on_c, 6, 43, 0
7, 23832, Note_on_c, 6, 43, 88
7, 23840, Note_on_c, 6, 52, 87
7, 23968, Note_on_c, 6, 52, 0
7, 23988, Note_on_c, 6, 43, 0
7, 24020, Note_on_c, 6, 43, 88
7, 24028, Note_on_c, 6, 50, 87
7, 24288, Note_on_c, 6, 43, 0
7, 24292, Note_on_c, 6, 50, 0
7, 24316, Note_on_c, 6, 43, 88
7, 24464, Note_on_c, 6, 43, 0
7, 24492, Note_on_c, 6, 43, 88
7, 24496, Note_on_c, 6, 52, 87
7, 24728, Note_on_c, 6, 52, 0
7, 24732, Note_on_c, 6, 43, 0
7, 24764, Note_on_c, 6, 43, 88
7, 24780, Note_on_c, 6, 52, 79
7, 24900, Note_on_c, 6, 52, 0
7, 24916, Note_on_c, 6, 43, 0
7, 24968, Note_on_c, 6, 38, 88
7, 24984, Note_on_c, 6, 45, 85
7, 25224, Note_on_c, 6, 38, 0
7, 25244, Note_on_c, 6, 45, 0
7, 25272, Note_on_c, 6, 38, 87
7, 25400, Note_on_c, 6, 47, 52
7, 25416, Note_on_c, 6, 38, 0
7, 25420, Note_on_c, 6, 47, 0
7, 25444, Note_on_c, 6, 38, 87
7, 25452, Note_on_c, 6, 47, 88
7, 25704, Note_on_c, 6, 38, 0
7, 25716, Note_on_c, 6, 47, 0
7, 25740, Note_on_c, 6, 38, 87
7, 25756, Note_on_c, 6, 47, 80
7, 25868, Note_on_c, 6, 47, 0
7, 25880, Note_on_c, 6, 38, 0
7, 25912, Note_on_c, 6, 38, 87
7, 25924, Note_on_c, 6, 45, 85
7, 26168, Note_on_c, 6, 38, 0
7, 26184, Note_on_c, 6, 45, 0
7, 26208, Note_on_c, 6, 38, 87
7, 26224, Note_on_c, 6, 45, 58
7, 26336, Note_on_c, 6, 45, 0
7, 26336, Note_on_c, 6, 38, 0
7, 26336, Note_on_c, 6, 47, 48
7, 26360, Note_on_c, 6, 47, 0
7, 26380, Note_on_c, 6, 38, 87
7, 26388, Note_on_c, 6, 47, 87
7, 26640, Note_on_c, 6, 38, 0
7, 26652, Note_on_c, 6, 47, 0
7, 26700, Note_on_c, 6, 38, 87
7, 26720, Note_on_c, 6, 47, 52
7, 26812, Note_on_c, 6, 47, 0
7, 26832, Note_on_c, 6, 38, 0
7, 26880, Note_on_c, 6, 38, 88
7, 26880, Note_on_c, 6, 45, 88
7, 27088, Note_on_c, 6, 45, 0
7, 27088, Note_on_c, 6, 38, 0
7, 27180, Note_on_c, 6, 38, 88
7, 27180, Note_on_c, 6, 45, 88
7, 27360, Note_on_c, 6, 50, 88
7, 27360, Note_on_c, 6, 43, 88
7, 27388, Note_on_c, 6, 45, 0
7, 27388, Note_on_c, 6, 38, 0
7, 27616, Note_on_c, 6, 50, 0
7, 27616, Note_on_c, 6, 43, 0
7, 27640, Note_on_c, 6, 45, 88
7, 27648, Note_on_c, 6, 52, 87
7, 28824, Note_on_c, 6, 38, 87
7, 28836, Note_on_c, 6, 45, 87
7, 28840, Note_on_c, 6, 45, 0
7, 28848, Note_on_c, 6, 52, 0
7, 29076, Note_on_c, 6, 38, 0
7, 29092, Note_on_c, 6, 45, 0
7, 29132, Note_on_c, 6, 38, 87
7, 29140, Note_on_c, 6, 45, 87
7, 29264, Note_on_c, 6, 45, 0
7, 29264, Note_on_c, 6, 38, 0
7, 29304, Note_on_c, 6, 38, 87
7, 29308, Note_on_c, 6, 47, 88
7, 29564, Note_on_c, 6, 38, 0
7, 29568, Note_on_c, 6, 47, 0
7, 29580, Note_on_c, 6, 47, 87
7, 29596, Note_on_c, 6, 38, 87
7, 29704, Note_on_c, 6, 47, 0
7, 29744, Note_on_c, 6, 38, 0
7, 29760, Note_on_c, 6, 45, 88
7, 29776, Note_on_c, 6, 38, 87
7, 30004, Note_on_c, 6, 45, 0
7, 30048, Note_on_c, 6, 38, 0
7, 30084, Note_on_c, 6, 38, 87
7, 30092, Note_on_c, 6, 45, 83
7, 30220, Note_on_c, 6, 38, 0
7, 30236, Note_on_c, 6, 45, 0
7, 30264, Note_on_c, 6, 38, 87
7, 30268, Note_on_c, 6, 47, 88
7, 30504, Note_on_c, 6, 38, 0
7, 30524, Note_on_c, 6, 47, 0
7, 30540, Note_on_c, 6, 47, 87
7, 30552, Note_on_c, 6, 38, 87
7, 30664, Note_on_c, 6, 47, 0
7, 30728, Note_on_c, 6, 43, 88
7, 30732, Note_on_c, 6, 50, 86
7, 30996, Note_on_c, 6, 50, 0
7, 31004, Note_on_c, 6, 43, 0
7, 31028, Note_on_c, 6, 43, 88
7, 31036, Note_on_c, 6, 50, 83
7, 31148, Note_on_c, 6, 50, 0
7, 31172, Note_on_c, 6, 43, 0
7, 31176, Note_on_c, 6, 52, 70
7, 31188, Note_on_c, 6, 52, 0
7, 31212, Note_on_c, 6, 43, 88
7, 31220, Note_on_c, 6, 52, 87
7, 31492, Note_on_c, 6, 52, 0
7, 31500, Note_on_c, 6, 43, 0
7, 31500, Note_on_c, 6, 52, 83
7, 31524, Note_on_c, 6, 43, 88
7, 31612, Note_on_c, 6, 52, 0
7, 31672, Note_on_c, 6, 43, 0
7, 31708, Note_on_c, 6, 43, 88
7, 31716, Note_on_c, 6, 50, 87
7, 31976, Note_on_c, 6, 50, 0
7, 31992, Note_on_c, 6, 43, 0
7, 32008, Note_on_c, 6, 43, 87
7, 32012, Note_on_c, 6, 50, 84
7, 32128, Note_on_c, 6, 50, 0
7, 32148, Note_on_c, 6, 52, 72
7, 32152, Note_on_c, 6, 43, 0
7, 32172, Note_on_c, 6, 52, 0
7, 32192, Note_on_c, 6, 43, 88
7, 32196, Note_on_c, 6, 52, 87
7, 32440, Note_on_c, 6, 52, 0
7, 32448, Note_on_c, 6, 43, 0
7, 32480, Note_on_c, 6, 52, 74
7, 32600, Note_on_c, 6, 38, 0
7, 32616, Note_on_c, 6, 52, 0
7, 32616, Note_on_c, 6, 45, 81
7, 32652, Note_on_c, 6, 45, 0
7, 32652, Note_on_c, 6, 38, 88
7, 32660, Note_on_c, 6, 45, 87
7, 32936, Note_on_c, 6, 45, 0
7, 32940, Note_on_c, 6, 38, 0
7, 32940, Note_on_c, 6, 45, 86
7, 32956, Note_on_c, 6, 38, 87
7, 33068, Note_on_c, 6, 45, 0
7, 33096, Note_on_c, 6, 47, 54
7, 33104, Note_on_c, 6, 47, 0
7, 33104, Note_on_c, 6, 38, 0
7, 33132, Note_on_c, 6, 38, 87
7, 33140, Note_on_c, 6, 47, 87
7, 33392, Note_on_c, 6, 38, 0
7, 33396, Note_on_c, 6, 47, 0
7, 33428, Note_on_c, 6, 38, 87
7, 33440, Note_on_c, 6, 47, 72
7, 33568, Note_on_c, 6, 47, 0
7, 33572, Note_on_c, 6, 38, 0
7, 33604, Note_on_c, 6, 38, 88
7, 33612, Note_on_c, 6, 45, 88
7, 33884, Note_on_c, 6, 38, 0
7, 33888, Note_on_c, 6, 45, 0
7, 33908, Note_on_c, 6, 38, 87
7, 33916, Note_on_c, 6, 45, 86
7, 34044, Note_on_c, 6, 45, 0
7, 34052, Note_on_c, 6, 47, 72
7, 34060, Note_on_c, 6, 38, 0
7, 34076, Note_on_c, 6, 47, 0
7, 34088, Note_on_c, 6, 38, 87
7, 34092, Note_on_c, 6, 47, 88
7, 34356, Note_on_c, 6, 38, 0
7, 34360, Note_on_c, 6, 47, 0
7, 34380, Note_on_c, 6, 38, 86
7, 34396, Note_on_c, 6, 47, 78
7, 34504, Note_on_c, 6, 47, 0
7, 34520, Note_on_c, 6, 38, 0
7, 34556, Note_on_c, 6, 38, 87
7, 34572, Note_on_c, 6, 45, 88
7, 34844, Note_on_c, 6, 38, 0
7, 34852, Note_on_c, 6, 45, 0
7, 34860, Note_on_c, 6, 45, 86
7, 34868, Note_on_c, 6, 38, 87
7, 34996, Note_on_c, 6, 45, 0
7, 35004, Note_on_c, 6, 47, 36
7, 35012, Note_on_c, 6, 38, 0
7, 35028, Note_on_c, 6, 47, 0
7, 35044, Note_on_c, 6, 38, 87
7, 35048, Note_on_c, 6, 47, 88
7, 35312, Note_on_c, 6, 47, 0
7, 35312, Note_on_c, 6, 38, 0
7, 35344, Note_on_c, 6, 38, 87
7, 35352, Note_on_c, 6, 47, 87
7, 35476, Note_on_c, 6, 47, 0
7, 35488, Note_on_c, 6, 38, 0
7, 35524, Note_on_c, 6, 38, 87
7, 35532, Note_on_c, 6, 45, 87
7, 35792, Note_on_c, 6, 38, 0
7, 35796, Note_on_c, 6, 45, 0
7, 35832, Note_on_c, 6, 38, 88
7, 35832, Note_on_c, 6, 45, 86
7, 35968, Note_on_c, 6, 45, 0
7, 35968, Note_on_c, 6, 38, 0
7, 35996, Note_on_c, 6, 38, 87
7, 36000, Note_on_c, 6, 47, 87
7, 36236, Note_on_c, 6, 38, 0
7, 36260, Note_on_c, 6, 47, 0
7, 36304, Note_on_c, 6, 47, 84
7, 36424, Note_on_c, 6, 47, 0
7, 36476, Note_on_c, 6, 43, 88
7, 36480, Note_on_c, 6, 50, 63
7, 36756, Note_on_c, 6, 50, 0
7, 36764, Note_on_c, 6, 43, 0
7, 36780, Note_on_c, 6, 43, 88
7, 36812, Note_on_c, 6, 50, 86
7, 36932, Note_on_c, 6, 50, 0
7, 36932, Note_on_c, 6, 43, 0
7, 36932, Note_on_c, 6, 52, 77
7, 36956, Note_on_c, 6, 52, 0
7, 36968, Note_on_c, 6, 43, 88
7, 36988, Note_on_c, 6, 52, 87
7, 37228, Note_on_c, 6, 43, 0
7, 37252, Note_on_c, 6, 52, 0
7, 37264, Note_on_c, 6, 43, 88
7, 37272, Note_on_c, 6, 52, 87
7, 37416, Note_on_c, 6, 52, 0
7, 37428, Note_on_c, 6, 43, 0
7, 37456, Note_on_c, 6, 43, 88
7, 37460, Note_on_c, 6, 50, 86
7, 37720, Note_on_c, 6, 43, 0
7, 37724, Note_on_c, 6, 50, 0
7, 37744, Note_on_c, 6, 43, 87
7, 37752, Note_on_c, 6, 50, 87
7, 37876, Note_on_c, 6, 43, 0
7, 37900, Note_on_c, 6, 50, 0
7, 37924, Note_on_c, 6, 43, 88
7, 37944, Note_on_c, 6, 52, 87
7, 38180, Note_on_c, 6, 43, 0
7, 38200, Note_on_c, 6, 52, 0
7, 38204, Note_on_c, 6, 43, 88
7, 38216, Note_on_c, 6, 52, 87
7, 38340, Note_on_c, 6, 52, 0
7, 38352, Note_on_c, 6, 43, 0
7, 38392, Note_on_c, 6, 43, 88
7, 38396, Note_on_c, 6, 50, 87
7, 38672, Note_on_c, 6, 50, 0
7, 38688, Note_on_c, 6, 43, 0
7, 38704, Note_on_c, 6, 43, 88
7, 38708, Note_on_c, 6, 50, 85
7, 38852, Note_on_c, 6, 43, 0
7, 38860, Note_on_c, 6, 50, 0
7, 38880, Note_on_c, 6, 43, 87
7, 38884, Note_on_c, 6, 52, 87
7, 39156, Note_on_c, 6, 52, 0
7, 39188, Note_on_c, 6, 52, 78
7, 39332, Note_on_c, 6, 43, 0
7, 39336, Note_on_c, 6, 52, 0
7, 39356, Note_on_c, 6, 43, 88
7, 39360, Note_on_c, 6, 50, 86
7, 39628, Note_on_c, 6, 43, 0
7, 39636, Note_on_c, 6, 50, 0
7, 39652, Note_on_c, 6, 43, 88
7, 39664, Note_on_c, 6, 50, 87
7, 39784, Note_on_c, 6, 50, 0
7, 39792, Note_on_c, 6, 52, 78
7, 39800, Note_on_c, 6, 43, 0
7, 39808, Note_on_c, 6, 52, 0
7, 39840, Note_on_c, 6, 43, 88
7, 39844, Note_on_c, 6, 52, 87
7, 40080, Note_on_c, 6, 52, 0
7, 40088, Note_on_c, 6, 43, 0
7, 40120, Note_on_c, 6, 43, 87
7, 40120, Note_on_c, 6, 52, 87
7, 40252, Note_on_c, 6, 52, 0
7, 40280, Note_on_c, 6, 43, 0
7, 40304, Note_on_c, 6, 38, 87
7, 40312, Note_on_c, 6, 45, 86
7, 40584, Note_on_c, 6, 38, 0
7, 40588, Note_on_c, 6, 45, 0
7, 40612, Note_on_c, 6, 38, 88
7, 40624, Note_on_c, 6, 45, 85
7, 40736, Note_on_c, 6, 45, 0
7, 40752, Note_on_c, 6, 38, 0
7, 40788, Note_on_c, 6, 38, 87
7, 40796, Note_on_c, 6, 47, 85
7, 41064, Note_on_c, 6, 38, 0
7, 41072, Note_on_c, 6, 47, 0
7, 41104, Note_on_c, 6, 38, 87
7, 41116, Note_on_c, 6, 47, 88
7, 41236, Note_on_c, 6, 47, 0
7, 41240, Note_on_c, 6, 38, 0
7, 41284, Note_on_c, 6, 38, 87
7, 41316, Note_on_c, 6, 45, 87
7, 41544, Note_on_c, 6, 38, 0
7, 41564, Note_on_c, 6, 45, 0
7, 41580, Note_on_c, 6, 38, 87
7, 41588, Note_on_c, 6, 45, 86
7, 41716, Note_on_c, 6, 45, 0
7, 41724, Note_on_c, 6, 38, 0
7, 41764, Note_on_c, 6, 38, 88
7, 41768, Note_on_c, 6, 47, 85
7, 42020, Note_on_c, 6, 38, 0
7, 42032, Note_on_c, 6, 47, 0
7, 42056, Note_on_c, 6, 38, 88
7, 42064, Note_on_c, 6, 47, 85
7, 42204, Note_on_c, 6, 47, 0
7, 42208, Note_on_c, 6, 38, 0
7, 42240, Note_on_c, 6, 38, 87
7, 42248, Note_on_c, 6, 45, 87
7, 42512, Note_on_c, 6, 38, 0
7, 42524, Note_on_c, 6, 45, 0
7, 42544, Note_on_c, 6, 38, 87
7, 42560, Note_on_c, 6, 45, 84
7, 42696, Note_on_c, 6, 45, 0
7, 42696, Note_on_c, 6, 38, 0
7, 42724, Note_on_c, 6, 38, 87
7, 42736, Note_on_c, 6, 47, 87
7, 42980, Note_on_c, 6, 38, 0
7, 43000, Note_on_c, 6, 47, 0
7, 43020, Note_on_c, 6, 47, 85
7, 43024, Note_on_c, 6, 38, 87
7, 43160, Note_on_c, 6, 47, 0
7, 43172, Note_on_c, 6, 38, 0
7, 43200, Note_on_c, 6, 38, 88
7, 43208, Note_on_c, 6, 45, 87
7, 43460, Note_on_c, 6, 38, 0
7, 43476, Note_on_c, 6, 45, 0
7, 43504, Note_on_c, 6, 38, 87
7, 43516, Note_on_c, 6, 45, 79
7, 43644, Note_on_c, 6, 38, 0
7, 43652, Note_on_c, 6, 45, 0
7, 43676, Note_on_c, 6, 38, 88
7, 43684, Note_on_c, 6, 47, 87
7, 43912, Note_on_c, 6, 47, 0
7, 43920, Note_on_c, 6, 38, 0
7, 43980, Note_on_c, 6, 38, 87
7, 44120, Note_on_c, 6, 38, 0
7, 44156, Note_on_c, 6, 52, 85
7, 44160, Note_on_c, 6, 45, 88
7, 44408, Note_on_c, 6, 52, 0
7, 44420, Note_on_c, 6, 45, 0
7, 44440, Note_on_c, 6, 45, 88
7, 44452, Note_on_c, 6, 52, 72
7, 44540, Note_on_c, 6, 52, 0
7, 44592, Note_on_c, 6, 45, 0
7, 44632, Note_on_c, 6, 45, 88
7, 44636, Note_on_c, 6, 54, 87
7, 44880, Note_on_c, 6, 45, 0
7, 44896, Note_on_c, 6, 54, 0
7, 44924, Note_on_c, 6, 45, 88
7, 44928, Note_on_c, 6, 54, 60
7, 45012, Note_on_c, 6, 54, 0
7, 45068, Note_on_c, 6, 45, 0
7, 45120, Note_on_c, 6, 45, 88
7, 45128, Note_on_c, 6, 52, 70
7, 45380, Note_on_c, 6, 45, 0
7, 45388, Note_on_c, 6, 52, 0
7, 45416, Note_on_c, 6, 45, 87
7, 45432, Note_on_c, 6, 52, 49
7, 45508, Note_on_c, 6, 52, 0
7, 45604, Note_on_c, 6, 54, 87
7, 45844, Note_on_c, 6, 54, 0
7, 45852, Note_on_c, 6, 45, 0
7, 45872, Note_on_c, 6, 45, 88
7, 45892, Note_on_c, 6, 54, 81
7, 46060, Note_on_c, 6, 54, 0
7, 46064, Note_on_c, 6, 45, 0
7, 46088, Note_on_c, 6, 43, 88
7, 46092, Note_on_c, 6, 50, 87
7, 46396, Note_on_c, 6, 50, 0
7, 46404, Note_on_c, 6, 50, 76
7, 46504, Note_on_c, 6, 50, 0
7, 46520, Note_on_c, 6, 52, 59
7, 46536, Note_on_c, 6, 43, 0
7, 46548, Note_on_c, 6, 52, 0
7, 46576, Note_on_c, 6, 43, 88
7, 46580, Note_on_c, 6, 52, 87
7, 46836, Note_on_c, 6, 52, 0
7, 46852, Note_on_c, 6, 43, 0
7, 46872, Note_on_c, 6, 43, 88
7, 46880, Note_on_c, 6, 52, 87
7, 47008, Note_on_c, 6, 52, 0
7, 47028, Note_on_c, 6, 43, 0
7, 47060, Note_on_c, 6, 43, 88
7, 47068, Note_on_c, 6, 50, 87
7, 47328, Note_on_c, 6, 43, 0
7, 47332, Note_on_c, 6, 50, 0
7, 47356, Note_on_c, 6, 43, 88
7, 47504, Note_on_c, 6, 43, 0
7, 47532, Note_on_c, 6, 43, 88
7, 47536, Note_on_c, 6, 52, 87
7, 47768, Note_on_c, 6, 52, 0
7, 47772, Note_on_c, 6, 43, 0
7, 47804, Note_on_c, 6, 43, 88
7, 47820, Note_on_c, 6, 52, 79
7, 47940, Note_on_c, 6, 52, 0
7, 47956, Note_on_c, 6, 43, 0
7, 48008, Note_on_c, 6, 38, 88
7, 48024, Note_on_c, 6, 45, 85
7, 48264, Note_on_c, 6, 38, 0
7, 48284, Note_on_c, 6, 45, 0
7, 48312, Note_on_c, 6, 38, 87
7, 48440, Note_on_c, 6, 47, 52
7, 48456, Note_on_c, 6, 38, 0
7, 48460, Note_on_c, 6, 47, 0
7, 48484, Note_on_c, 6, 38, 87
7, 48492, Note_on_c, 6, 47, 88
7, 48744, Note_on_c, 6, 38, 0
7, 48756, Note_on_c, 6, 47, 0
7, 48780, Note_on_c, 6, 38, 87
7, 48796, Note_on_c, 6, 47, 80
7, 48908, Note_on_c, 6, 47, 0
7, 48920, Note_on_c, 6, 38, 0
7, 48952, Note_on_c, 6, 38, 87
7, 48964, Note_on_c, 6, 45, 85
7, 49208, Note_on_c, 6, 38, 0
7, 49224, Note_on_c, 6, 45, 0
7, 49248, Note_on_c, 6, 38, 87
7, 49264, Note_on_c, 6, 45, 58
7, 49376, Note_on_c, 6, 45, 0
7, 49376, Note_on_c, 6, 38, 0
7, 49376, Note_on_c, 6, 47, 48
7, 49400, Note_on_c, 6, 47, 0
7, 49420, Note_on_c, 6, 38, 87
7, 49428, Note_on_c, 6, 47, 87
7, 49680, Note_on_c, 6, 38, 0
7, 49692, Note_on_c, 6, 47, 0
7, 49740, Note_on_c, 6, 38, 87
7, 49760, Note_on_c, 6, 47, 52
7, 49852, Note_on_c, 6, 47, 0
7, 49872, Note_on_c, 6, 38, 0
7, 49920, Note_on_c, 6, 38, 88
7, 49920, Note_on_c, 6, 45, 88
7, 50128, Note_on_c, 6, 45, 0
7, 50128, Note_on_c, 6, 38, 0
7, 50220, Note_on_c, 6, 38, 88
7, 50220, Note_on_c, 6, 45, 88
7, 50400, Note_on_c, 6, 50, 88
7, 50400, Note_on_c, 6, 43, 88
7, 50428, Note_on_c, 6, 45, 0
7, 50428, Note_on_c, 6, 38, 0
7, 50656, Note_on_c, 6, 50, 0
7, 50656, Note_on_c, 6, 43, 0
7, 50680, Note_on_c, 6, 45, 88
7, 50688, Note_on_c, 6, 52, 87
7, 51864, Note_on_c, 6, 38, 87
7, 51876, Note_on_c, 6, 45, 87
7, 51880, Note_on_c, 6, 45, 0
7, 51888, Note_on_c, 6, 52, 0
7, 52116, Note_on_c, 6, 38, 0
7, 52132, Note_on_c, 6, 45, 0
7, 52172, Note_on_c, 6, 38, 87
7, 52180, Note_on_c, 6, 45, 87
7, 52304, Note_on_c, 6, 45, 0
7, 52304, Note_on_c, 6, 38, 0
7, 52344, Note_on_c, 6, 38, 87
7, 52348, Note_on_c, 6, 47, 88
7, 52604, Note_on_c, 6, 38, 0
7, 52608, Note_on_c, 6, 47, 0
7, 52620, Note_on_c, 6, 47, 87
7, 52636, Note_on_c, 6, 38, 87
7, 52744, Note_on_c, 6, 47, 0
7, 52784, Note_on_c, 6, 38, 0
7, 52800, Note_on_c, 6, 45, 88
7, 52816, Note_on_c, 6, 38, 87
7, 53044, Note_on_c, 6, 45, 0
7, 53088, Note_on_c, 6, 38, 0
7, 53124, Note_on_c, 6, 38, 87
7, 53132, Note_on_c, 6, 45, 83
7, 53260, Note_on_c, 6, 38, 0
7, 53276, Note_on_c, 6, 45, 0
7, 53304, Note_on_c, 6, 38, 87
7, 53308, Note_on_c, 6, 47, 88
7, 53544, Note_on_c, 6, 38, 0
7, 53564, Note_on_c, 6, 47, 0
7, 53580, Note_on_c, 6, 47, 87
7, 53592, Note_on_c, 6, 38, 87
7, 53704, Note_on_c, 6, 47, 0
7, 53768, Note_on_c, 6, 43, 88
7, 53772, Note_on_c, 6, 50, 86
7, 54036, Note_on_c, 6, 50, 0
7, 54044, Note_on_c, 6, 43, 0
7, 54068, Note_on_c, 6, 43, 88
7, 54076, Note_on_c, 6, 50, 83
7, 54188, Note_on_c, 6, 50, 0
7, 54212, Note_on_c, 6, 43, 0
7, 54216, Note_on_c, 6, 52, 70
7, 54228, Note_on_c, 6, 52, 0
7, 54252, Note_on_c, 6, 43, 88
7, 54260, Note_on_c, 6, 52, 87
7, 54532, Note_on_c, 6, 52, 0
7, 54540, Note_on_c, 6, 43, 0
7, 54540, Note_on_c, 6, 52, 83
7, 54564, Note_on_c, 6, 43, 88
7, 54652, Note_on_c, 6, 52, 0
7, 54712, Note_on_c, 6, 43, 0
7, 54748, Note_on_c, 6, 43, 88
7, 54756, Note_on_c, 6, 50, 87
7, 55016, Note_on_c, 6, 50, 0
7, 55032, Note_on_c, 6, 43, 0
7, 55048, Note_on_c, 6, 43, 87
7, 55052, Note_on_c, 6, 50, 84
7, 55168, Note_on_c, 6, 50, 0
7, 55188, Note_on_c, 6, 52, 72
7, 55192, Note_on_c, 6, 43, 0
7, 55212, Note_on_c, 6, 52, 0
7, 55232, Note_on_c, 6, 43, 88
7, 55236, Note_on_c, 6, 52, 87
7, 55480, Note_on_c, 6, 52, 0
7, 55488, Note_on_c, 6, 43, 0
7, 55520, Note_on_c, 6, 52, 74
7, 55640, Note_on_c, 6, 38, 0
7, 55656, Note_on_c, 6, 52, 0
7, 55656, Note_on_c, 6, 45, 81
7, 55692, Note_on_c, 6, 45, 0
7, 55692, Note_on_c, 6, 38, 88
7, 55700, Note_on_c, 6, 45, 87
7, 55976, Note_on_c, 6, 45, 0
7, 55980, Note_on_c, 6, 38, 0
7, 55980, Note_on_c, 6, 45, 86
7, 55996, Note_on_c, 6, 38, 87
7, 56108, Note_on_c, 6, 45, 0
7, 56136, Note_on_c, 6, 47, 54
7, 56144, Note_on_c, 6, 47, 0
7, 56144, Note_on_c, 6, 38, 0
7, 56172, Note_on_c, 6, 38, 87
7, 56180, Note_on_c, 6, 47, 87
7, 56432, Note_on_c, 6, 38, 0
7, 56436, Note_on_c, 6, 47, 0
7, 56468, Note_on_c, 6, 38, 87
7, 56480, Note_on_c, 6, 47, 72
7, 56608, Note_on_c, 6, 47, 0
7, 56612, Note_on_c, 6, 38, 0
7, 56644, Note_on_c, 6, 38, 88
7, 56652, Note_on_c, 6, 45, 88
7, 56924, Note_on_c, 6, 38, 0
7, 56928, Note_on_c, 6, 45, 0
7, 56948, Note_on_c, 6, 38, 87
7, 56956, Note_on_c, 6, 45, 86
7, 57084, Note_on_c, 6, 45, 0
7, 57092, Note_on_c, 6, 47, 72
7, 57100, Note_on_c, 6, 38, 0
7, 57116, Note_on_c, 6, 47, 0
7, 57128, Note_on_c, 6, 38, 87
7, 57132, Note_on_c, 6, 47, 88
7, 57396, Note_on_c, 6, 38, 0
7, 57400, Note_on_c, 6, 47, 0
7, 57420, Note_on_c, 6, 38, 86
7, 57436, Note_on_c, 6, 47, 78
7, 57544, Note_on_c, 6, 47, 0
7, 57560, Note_on_c, 6, 38, 0
7, 57596, Note_on_c, 6, 38, 87
7, 57612, Note_on_c, 6, 45, 88
7, 57884, Note_on_c, 6, 38, 0
7, 57892, Note_on_c, 6, 45, 0
7, 57900, Note_on_c, 6, 45, 86
7, 57908, Note_on_c, 6, 38, 87
7, 58036, Note_on_c, 6, 45, 0
7, 58044, Note_on_c, 6, 47, 36
7, 58052, Note_on_c, 6, 38, 0
7, 58068, Note_on_c, 6, 47, 0
7, 58084, Note_on_c, 6, 38, 87
7, 58088, Note_on_c, 6, 47, 88
7, 58352, Note_on_c, 6, 47, 0
7, 58352, Note_on_c, 6, 38, 0
7, 58384, Note_on_c, 6, 38, 87
7, 58392, Note_on_c, 6, 47, 87
7, 58516, Note_on_c, 6, 47, 0
7, 58528, Note_on_c, 6, 38, 0
7, 58564, Note_on_c, 6, 38, 87
7, 58572, Note_on_c, 6, 45, 87
7, 58832, Note_on_c, 6, 38, 0
7, 58836, Note_on_c, 6, 45, 0
7, 58872, Note_on_c, 6, 38, 88
7, 58872, Note_on_c, 6, 45, 86
7, 59008, Note_on_c, 6, 45, 0
7, 59008, Note_on_c, 6, 38, 0
7, 59036, Note_on_c, 6, 38, 87
7, 59040, Note_on_c, 6, 47, 87
7, 59276, Note_on_c, 6, 38, 0
7, 59300, Note_on_c, 6, 47, 0
7, 59344, Note_on_c, 6, 47, 84
7, 59464, Note_on_c, 6, 47, 0
7, 59516, Note_on_c, 6, 43, 88
7, 59520, Note_on_c, 6, 50, 63
7, 59796, Note_on_c, 6, 50, 0
7, 59804, Note_on_c, 6, 43, 0
7, 59820, Note_on_c, 6, 43, 88
7, 59852, Note_on_c, 6, 50, 86
7, 59972, Note_on_c, 6, 50, 0
7, 59972, Note_on_c, 6, 43, 0
7, 59972, Note_on_c, 6, 52, 77
7, 59996, Note_on_c, 6, 52, 0
7, 60008, Note_on_c, 6, 43, 88
7, 60028, Note_on_c, 6, 52, 87
7, 60268, Note_on_c, 6, 43, 0
7, 60292, Note_on_c, 6, 52, 0
7, 60304, Note_on_c, 6, 43, 88
7, 60312, Note_on_c, 6, 52, 87
7, 60456, Note_on_c, 6, 52, 0
7, 60468, Note_on_c, 6, 43, 0
7, 60496, Note_on_c, 6, 43, 88
7, 60500, Note_on_c, 6, 50, 86
7, 60760, Note_on_c, 6, 43, 0
7, 60764, Note_on_c, 6, 50, 0
7, 60784, Note_on_c, 6, 43, 87
7, 60792, Note_on_c, 6, 50, 87
7, 60916, Note_on_c, 6, 43, 0
7, 60940, Note_on_c, 6, 50, 0
7, 60964, Note_on_c, 6, 43, 88
7, 60984, Note_on_c, 6, 52, 87
7, 61220, Note_on_c, 6, 43, 0
7, 61240, Note_on_c, 6, 52, 0
7, 61244, Note_on_c, 6, 43, 88
7, 61256, Note_on_c, 6, 52, 87
7, 61380, Note_on_c, 6, 52, 0
7, 61392, Note_on_c, 6, 43, 0
7, 61432, Note_on_c, 6, 43, 88
7, 61436, Note_on_c, 6, 50, 87
7, 61712, Note_on_c, 6, 50, 0
7, 61728, Note_on_c, 6, 43, 0
7, 61744, Note_on_c, 6, 43, 88
7, 61748, Note_on_c, 6, 50, 85
7, 61892, Note_on_c, 6, 43, 0
7, 61900, Note_on_c, 6, 50, 0
7, 61920, Note_on_c, 6, 43, 87
7, 61924, Note_on_c, 6, 52, 87
7, 62196, Note_on_c, 6, 52, 0
7, 62228, Note_on_c, 6, 52, 78
7, 62372, Note_on_c, 6, 43, 0
7, 62376, Note_on_c, 6, 52, 0
7, 62396, Note_on_c, 6, 43, 88
7, 62400, Note_on_c, 6, 50, 86
7, 62668, Note_on_c, 6, 43, 0
7, 62676, Note_on_c, 6, 50, 0
7, 62692, Note_on_c, 6, 43, 88
7, 62704, Note_on_c, 6, 50, 87
7, 62824, Note_on_c, 6, 50, 0
7, 62832, Note_on_c, 6, 52, 78
7, 62840, Note_on_c, 6, 43, 0
7, 62848, Note_on_c, 6, 52, 0
7, 62880, Note_on_c, 6, 43, 88
7, 62884, Note_on_c, 6, 52, 87
7, 63120, Note_on_c, 6, 52, 0
7, 63128, Note_on_c, 6, 43, 0
7, 63160, Note_on_c, 6, 43, 87
7, 63160, Note_on_c, 6, 52, 87
7, 63292, Note_on_c, 6, 52, 0
7, 63320, Note_on_c, 6, 43, 0
7, 63344, Note_on_c, 6, 38, 87
7, 63352, Note_on_c, 6, 45, 86
7, 63624, Note_on_c, 6, 38, 0
7, 63628, Note_on_c, 6, 45, 0
7, 63652, Note_on_c, 6, 38, 88
7, 63664, Note_on_c, 6, 45, 85
7, 63776, Note_on_c, 6, 45, 0
7, 63792, Note_on_c, 6, 38, 0
7, 63828, Note_on_c, 6, 38, 87
7, 63836, Note_on_c, 6, 47, 85
7, 64104, Note_on_c, 6, 38, 0
7, 64112, Note_on_c, 6, 47, 0
7, 64144, Note_on_c, 6, 38, 87
7, 64156, Note_on_c, 6, 47, 88
7, 64276, Note_on_c, 6, 47, 0
7, 64280, Note_on_c, 6, 38, 0
7, 64324, Note_on_c, 6, 38, 87
7, 64356, Note_on_c, 6, 45, 87
7, 64584, Note_on_c, 6, 38, 0
7, 64604, Note_on_c, 6, 45, 0
7, 64620, Note_on_c, 6, 38, 87
7, 64628, Note_on_c, 6, 45, 86
7, 64756, Note_on_c, 6, 45, 0
7, 64764, Note_on_c, 6, 38, 0
7, 64804, Note_on_c, 6, 38, 88
7, 64808, Note_on_c, 6, 47, 85
7, 65060, Note_on_c, 6, 38, 0
7, 65072, Note_on_c, 6, 47, 0
7, 65096, Note_on_c, 6, 38, 88
7, 65104, Note_on_c, 6, 47, 85
7, 65244, Note_on_c, 6, 47, 0
7, 65248, Note_on_c, 6, 38, 0
7, 65280, Note_on_c, 6, 38, 87
7, 65288, Note_on_c, 6, 45, 87
7, 65552, Note_on_c, 6, 38, 0
7, 65564, Note_on_c, 6, 45, 0
7, 65584, Note_on_c, 6, 38, 87
7, 65600, Note_on_c, 6, 45, 84
7, 65736, Note_on_c, 6, 45, 0
7, 65736, Note_on_c, 6, 38, 0
7, 65764, Note_on_c, 6, 38, 87
7, 65776, Note_on_c, 6, 47, 87
7, 66020, Note_on_c, 6, 38, 0
7, 66040, Note_on_c, 6, 47, 0
7, 66060, Note_on_c, 6, 47, 85
7, 66064, Note_on_c, 6, 38, 87
7, 66200, Note_on_c, 6, 47, 0
7, 66212, Note_on_c, 6, 38, 0
7, 66240, Note_on_c, 6, 38, 88
7, 66248, Note_on_c, 6, 45, 87
7, 66500, Note_on_c, 6, 38, 0
7, 66516, Note_on_c, 6, 45, 0
7, 66544, Note_on_c, 6, 38, 87
7, 66556, Note_on_c, 6, 45, 79
7, 66684, Note_on_c, 6, 38, 0
7, 66692, Note_on_c, 6, 45, 0
7, 66716, Note_on_c, 6, 38, 88
7, 66724, Note_on_c, 6, 47, 87
7, 66952, Note_on_c, 6, 47, 0
7, 66960, Note_on_c, 6, 38, 0
7, 67020, Note_on_c, 6, 38, 87
7, 67160, Note_on_c, 6, 38, 0
7, 67196, Note_on_c, 6, 52, 85
7, 67200, Note_on_c, 6, 45, 88
7, 67448, Note_on_c, 6, 52, 0
7, 67460, Note_on_c, 6, 45, 0
7, 67480, Note_on_c, 6, 45, 88
7, 67492, Note_on_c, 6, 52, 72
7, 67580, Note_on_c, 6, 52, 0
7, 67632, Note_on_c, 6, 45, 0
7, 67672, Note_on_c, 6, 45, 88
7, 67676, Note_on_c, 6, 54, 87
7, 67920, Note_on_c, 6, 45, 0
7, 67936, Note_on_c, 6, 54, 0
7, 67964, Note_on_c, 6, 45, 88
7, 67968, Note_on_c, 6, 54, 60
7, 68052, Note_on_c, 6, 54, 0
7, 68108, Note_on_c, 6, 45, 0
7, 68160, Note_on_c, 6, 45, 88
7, 68168, Note_on_c, 6, 52, 70
7, 68420, Note_on_c, 6, 45, 0
7, 68428, Note_on_c, 6, 52, 0
7, 68456, Note_on_c, 6, 45, 87
7, 68472, Note_on_c, 6, 52, 49
7, 68548, Note_on_c, 6, 52, 0
7, 68644, Note_on_c, 6, 54, 87
7, 68884, Note_on_c, 6, 54, 0
7, 68892, Note_on_c, 6, 45, 0
7, 68912, Note_on_c, 6, 45, 88
7, 68932, Note_on_c, 6, 54, 81
7, 69100, Note_on_c, 6, 54, 0
7, 69104, Note_on_c, 6, 45, 0
7, 69128, Note_on_c, 6, 43, 88
7, 69132, Note_on_c, 6, 50, 87
7, 69436, Note_on_c, 6, 50, 0
7, 69444, Note_on_c, 6, 50, 76
7, 69544, Note_on_c, 6, 50, 0
7, 69560, Note_on_c, 6, 52, 59
7, 69576, Note_on_c, 6, 43, 0
7, 69588, Note_on_c, 6, 52, 0
7, 69616, Note_on_c, 6, 43, 88
7, 69620, Note_on_c, 6, 52, 87
7, 69876, Note_on_c, 6, 52, 0
7, 69892, Note_on_c, 6, 43, 0
7, 69912, Note_on_c, 6, 43, 88
7, 69920, Note_on_c, 6, 52, 87
7, 70048, Note_on_c, 6, 52, 0
7, 70068, Note_on_c, 6, 43, 0
7, 70100, Note_on_c, 6, 43, 88
7, 70108, Note_on_c, 6, 50, 87
7, 70368, Note_on_c, 6, 43, 0
7, 70372, Note_on_c, 6, 50, 0
7, 70396, Note_on_c, 6, 43, 88
7, 70544, Note_on_c, 6, 43, 0
7, 70572, Note_on_c, 6, 43, 88
7, 70576, Note_on_c, 6, 52, 87
7, 70808, Note_on_c, 6, 52, 0
7, 70812, Note_on_c, 6, 43, 0
7, 70844, Note_on_c, 6, 43, 88
7, 70860, Note_on_c, 6, 52, 79
7, 70980, Note_on_c, 6, 52, 0
7, 70996, Note_on_c, 6, 43, 0
7, 71048, Note_on_c, 6, 38, 88
7, 71064, Note_on_c, 6, 45, 85
7, 71304, Note_on_c, 6, 38, 0
7, 71324, Note_on_c, 6, 45, 0
7, 71352, Note_on_c, 6, 38, 87
7, 71480, Note_on_c, 6, 47, 52
7, 71496, Note_on_c, 6, 38, 0
7, 71500, Note_on_c, 6, 47, 0
7, 71524, Note_on_c, 6, 38, 87
7, 71532, Note_on_c, 6, 47, 88
7, 71784, Note_on_c, 6, 38, 0
7, 71796, Note_on_c, 6, 47, 0
7, 71820, Note_on_c, 6, 38, 87
7, 71836, Note_on_c, 6, 47, 80
7, 71948, Note_on_c, 6, 47, 0
7, 71960, Note_on_c, 6, 38, 0
7, 71992, Note_on_c, 6, 38, 87
7, 72004, Note_on_c, 6, 45, 85
7, 72248, Note_on_c, 6, 38, 0
7, 72264, Note_on_c, 6, 45, 0
7, 72288, Note_on_c, 6, 38, 87
7, 72304, Note_on_c, 6, 45, 58
7, 72416, Note_on_c, 6, 45, 0
7, 72416, Note_on_c, 6, 38, 0
7, 72416, Note_on_c, 6, 47, 48
7, 72440, Note_on_c, 6, 47, 0
7, 72460, Note_on_c, 6, 38, 87
7, 72468, Note_on_c, 6, 47, 87
7, 72720, Note_on_c, 6, 38, 0
7, 72732, Note_on_c, 6, 47, 0
7, 72780, Note_on_c, 6, 38, 87
7, 72800, Note_on_c, 6, 47, 52
7, 72892, Note_on_c, 6, 47, 0
7, 72912, Note_on_c, 6, 38, 0
7, 72960, Note_on_c, 6, 38, 88
7, 72960, Note_on_c, 6, 45, 88
7, 73168, Note_on_c, 6, 45, 0
7, 73168, Note_on_c, 6, 38, 0
7, 73260, Note_on_c, 6, 38, 88
7, 73260, Note_on_c, 6, 45, 88
7, 73440, Note_on_c, 6, 50, 88
7, 73440, Note_on_c, 6, 43, 88
7, 73468, Note_on_c, 6, 45, 0
7, 73468, Note_on_c, 6, 38, 0
7, 73696, Note_on_c, 6, 50, 0
7, 73696, Note_on_c, 6, 43, 0
7, 73720, Note_on_c, 6, 45, 88
7, 73728, Note_on_c, 6, 52, 87
7, 74904, Note_on_c, 6, 38, 87
7, 74916, Note_on_c, 6, 45, 87
7, 74920, Note_on_c, 6, 45, 0
7, 74928, Note_on_c, 6, 52, 0
7, 75156, Note_on_c, 6, 38, 0
7, 75172, Note_on_c, 6, 45, 0
7, 75212, Note_on_c, 6, 38, 87
7, 75220, Note_on_c, 6, 45, 87
7, 75344, Note_on_c, 6, 45, 0
7, 75344, Note_on_c, 6, 38, 0
7, 75384, Note_on_c, 6, 38, 87
7, 75388, Note_on_c, 6, 47, 88
7, 75644, Note_on_c, 6, 38, 0
7, 75648, Note_on_c, 6, 47, 0
7, 75660, Note_on_c, 6, 47, 87
7, 75676, Note_on_c, 6, 38, 87
7, 75784, Note_on_c, 6, 47, 0
7, 75824, Note_on_c, 6, 38, 0
7, 75840, Note_on_c, 6, 45, 88
7, 75856, Note_on_c, 6, 38, 87
7, 76084, Note_on_c, 6, 45, 0
7, 76128, Note_on_c, 6, 38, 0
7, 76164, Note_on_c, 6, 38, 87
7, 76172, Note_on_c, 6, 45, 83
7, 76300, Note_on_c, 6, 38, 0
7, 76316, Note_on_c, 6, 45, 0
7, 76344, Note_on_c, 6, 38, 87
7, 76348, Note_on_c, 6, 47, 88
7, 76584, Note_on_c, 6, 38, 0
7, 76604, Note_on_c, 6, 47, 0
7, 76620, Note_on_c, 6, 47, 87
7, 76632, Note_on_c, 6, 38, 87
7, 76744, Note_on_c, 6, 47, 0
7, 76808, Note_on_c, 6, 43, 88
7, 76812, Note_on_c, 6, 50, 86
7, 77076, Note_on_c, 6, 50, 0
7, 77084, Note_on_c, 6, 43, 0
7, 77108, Note_on_c, 6, 43, 88
7, 77116, Note_on_c, 6, 50, 83
7, 77228, Note_on_c, 6, 50, 0
7, 77252, Note_on_c, 6, 43, 0
7, 77256, Note_on_c, 6, 52, 70
7, 77268, Note_on_c, 6, 52, 0
7, 77292, Note_on_c, 6, 43, 88
7, 77300, Note_on_c, 6, 52, 87
7, 77572, Note_on_c, 6, 52, 0
7, 77580, Note_on_c, 6, 43, 0
7, 77580, Note_on_c, 6, 52, 83
7, 77604, Note_on_c, 6, 43, 88
7, 77692, Note_on_c, 6, 52, 0
7, 77752, Note_on_c, 6, 43, 0
7, 77788, Note_on_c, 6, 43, 88
7, 77796, Note_on_c, 6, 50, 87
7, 78056, Note_on_c, 6, 50, 0
7, 78072, Note_on_c, 6, 43, 0
7, 78088, Note_on_c, 6, 43, 87
7, 78092, Note_on_c, 6, 50, 84
7, 78208, Note_on_c, 6, 50, 0
7, 78228, Note_on_c, 6, 52, 72
7, 78232, Note_on_c, 6, 43, 0
7, 78252, Note_on_c, 6, 52, 0
7, 78272, Note_on_c, 6, 43, 88
7, 78276, Note_on_c, 6, 52, 87
7, 78520, Note_on_c, 6, 52, 0
7, 78528, Note_on_c, 6, 43, 0
7, 78560, Note_on_c, 6, 52, 74
7, 78680, Note_on_c, 6, 38, 0
7, 78696, Note_on_c, 6, 52, 0
7, 78696, Note_on_c, 6, 45, 81
7, 78732, Note_on_c, 6, 45, 0
7, 78732, Note_on_c, 6, 38, 88
7, 78740, Note_on_c, 6, 45, 87
7, 79016, Note_on_c, 6, 45, 0
7, 79020, Note_on_c, 6, 38, 0
7, 79020, Note_on_c, 6, 45, 86
7, 79036, Note_on_c, 6, 38, 87
7, 79148, Note_on_c, 6, 45, 0
7, 79176, Note_on_c, 6, 47, 54
7, 79184, Note_on_c, 6, 47, 0
7, 79184, Note_on_c, 6, 38, 0
7, 79212, Note_on_c, 6, 38, 87
7, 79220, Note_on_c, 6, 47, 87
7, 79472, Note_on_c, 6, 38, 0
7, 79476, Note_on_c, 6, 47, 0
7, 79508, Note_on_c, 6, 38, 87
7, 79520, Note_on_c, 6, 47, 72
7, 79648, Note_on_c, 6, 47, 0
7, 79652, Note_on_c, 6, 38, 0
7, 79684, Note_on_c, 6, 38, 88
7, 79692, Note_on_c, 6, 45, 88
7, 79964, Note_on_c, 6, 38, 0
7, 79968, Note_on_c, 6, 45, 0
7, 79988, Note_on_c, 6, 38, 87
7, 79996, Note_on_c, 6, 45, 86
7, 80124, Note_on_c, 6, 45, 0
7, 80132, Note_on_c, 6, 47, 72
7, 80140, Note_on_c, 6, 38, 0
7, 80156, Note_on_c, 6, 47, 0
7, 80168, Note_on_c, 6, 38, 87
7, 80172, Note_on_c, 6, 47, 88
7, 80436, Note_on_c, 6, 38, 0
7, 80440, Note_on_c, 6, 47, 0
7, 80460, Note_on_c, 6, 38, 86
7, 80476, Note_on_c, 6, 47, 78
7, 80584, Note_on_c, 6, 47, 0
7, 80600, Note_on_c, 6, 38, 0
7, 80636, Note_on_c, 6, 38, 87
7, 80652, Note_on_c, 6, 45, 88
7, 80924, Note_on_c, 6, 38, 0
7, 80932, Note_on_c, 6, 45, 0
7, 80940, Note_on_c, 6, 45, 86
7, 80948, Note_on_c, 6, 38, 87
7, 81076, Note_on_c, 6, 45, 0
7, 81084, Note_on_c, 6, 47, 36
7, 81092, Note_on_c, 6, 38, 0
7, 81108, Note_on_c, 6, 47, 0
7, 81124, Note_on_c, 6, 38, 87
7, 81128, Note_on_c, 6, 47, 88
7, 81392, Note_on_c, 6, 47, 0
7, 81392, Note_on_c, 6, 38, 0
7, 81424, Note_on_c, 6, 38, 87
7, 81432, Note_on_c, 6, 47, 87
7, 81556, Note_on_c, 6, 47, 0
7, 81568, Note_on_c, 6, 38, 0
7, 81604, Note_on_c, 6, 38, 87
7, 81612, Note_on_c, 6, 45, 87
7, 81872, Note_on_c, 6, 38, 0
7, 81876, Note_on_c, 6, 45, 0
7, 81912, Note_on_c, 6, 38, 88
7, 81912, Note_on_c, 6, 45, 86
7, 82048, Note_on_c, 6, 45, 0
7, 82048, Note_on_c, 6, 38, 0
7, 82076, Note_on_c, 6, 38, 87
7, 82080, Note_on_c, 6, 47, 87
7, 82316, Note_on_c, 6, 38, 0
7, 82340, Note_on_c, 6, 47, 0
7, 82384, Note_on_c, 6, 47, 84
7, 82504, Note_on_c, 6, 47, 0
7, 82556, Note_on_c, 6, 43, 88
7, 82560, Note_on_c, 6, 50, 63
7, 82836, Note_on_c, 6, 50, 0
7, 82844, Note_on_c, 6, 43, 0
7, 82860, Note_on_c, 6, 43, 88
7, 82892, Note_on_c, 6, 50, 86
7, 83012, Note_on_c, 6, 50, 0
7, 83012, Note_on_c, 6, 43, 0
7, 83012, Note_on_c, 6, 52, 77
7, 83036, Note_on_c, 6, 52, 0
7, 83048, Note_on_c, 6, 43, 88
7, 83068, Note_on_c, 6, 52, 87
7, 83308, Note_on_c, 6, 43, 0
7, 83332, Note_on_c, 6, 52, 0
7, 83344, Note_on_c, 6, 43, 88
7, 83352, Note_on_c, 6, 52, 87
7, 83496, Note_on_c, 6, 52, 0
7, 83508, Note_on_c, 6, 43, 0
7, 83536, Note_on_c, 6, 43, 88
7, 83540, Note_on_c, 6, 50, 86
7, 83800, Note_on_c, 6, 43, 0
7, 83804, Note_on_c, 6, 50, 0
7, 83824, Note_on_c, 6, 43, 87
7, 83832, Note_on_c, 6, 50, 87
7, 83956, Note_on_c, 6, 43, 0
7, 83980, Note_on_c, 6, 50, 0
7, 84004, Note_on_c, 6, 43, 88
7, 84024, Note_on_c, 6, 52, 87
7, 84260, Note_on_c, 6, 43, 0
7, 84280, Note_on_c, 6, 52, 0
7, 84284, Note_on_c, 6, 43, 88
7, 84296, Note_on_c, 6, 52, 87
7, 84420, Note_on_c, 6, 52, 0
7, 84432, Note_on_c, 6, 43, 0
7, 84472, Note_on_c, 6, 43, 88
7, 84476, Note_on_c, 6, 50, 87
7, 84752, Note_on_c, 6, 50, 0
7, 84768, Note_on_c, 6, 43, 0
7, 84784, Note_on_c, 6, 43, 88
7, 84788, Note_on_c, 6, 50, 85
7, 84932, Note_on_c, 6, 43, 0
7, 84940, Note_on_c, 6, 50, 0
7, 84960, Note_on_c, 6, 43, 87
7, 84964, Note_on_c, 6, 52, 87
7, 85236, Note_on_c, 6, 52, 0
7, 85268, Note_on_c, 6, 52, 78
7, 85412, Note_on_c, 6, 43, 0
7, 85416, Note_on_c, 6, 52, 0
7, 85436, Note_on_c, 6, 43, 88
7, 85440, Note_on_c, 6, 50, 86
7, 85708, Note_on_c, 6, 43, 0
7, 85716, Note_on_c, 6, 50, 0
7, 85732, Note_on_c, 6, 43, 88
7, 85744, Note_on_c, 6, 50, 87
7, 85864, Note_on_c, 6, 50, 0
7, 85872, Note_on_c, 6, 52, 78
7, 85880, Note_on_c, 6, 43, 0
7, 85888, Note_on_c, 6, 52, 0
7, 85920, Note_on_c, 6, 43, 88
7, 85924, Note_on_c, 6, 52, 87
7, 86160, Note_on_c, 6, 52, 0
7, 86168, Note_on_c, 6, 43, 0
7, 86200, Note_on_c, 6, 43, 87
7, 86200, Note_on_c, 6, 52, 87
7, 86332, Note_on_c, 6, 52, 0
7, 86360, Note_on_c, 6, 43, 0
7, 86384, Note_on_c, 6, 38, 87
7, 86392, Note_on_c, 6, 45, 86
7, 86664, Note_on_c, 6, 38, 0
7, 86668, Note_on_c, 6, 45, 0
7, 86692, Note_on_c, 6, 38, 88
7, 86704, Note_on_c, 6, 45, 85
7, 86816, Note_on_c, 6, 45, 0
7, 86832, Note_on_c, 6, 38, 0
7, 86868, Note_on_c, 6, 38, 87
7, 86876, Note_on_c, 6, 47, 85
7, 87144, Note_on_c, 6, 38, 0
7, 87152, Note_on_c, 6, 47, 0
7, 87184, Note_on_c, 6, 38, 87
7, 87196, Note_on_c, 6, 47, 88
7, 87316, Note_on_c, 6, 47, 0
7, 87320, Note_on_c, 6, 38, 0
7, 87364, Note_on_c, 6, 38, 87
7, 87396, Note_on_c, 6, 45, 87
7, 87624, Note_on_c, 6, 38, 0
7, 87644, Note_on_c, 6, 45, 0
7, 87660, Note_on_c, 6, 38, 87
7, 87668, Note_on_c, 6, 45, 86
7, 87796, Note_on_c, 6, 45, 0
7, 87804, Note_on_c, 6, 38, 0
7, 87844, Note_on_c, 6, 38, 88
7, 87848, Note_on_c, 6, 47, 85
7, 88100, Note_on_c, 6, 38, 0
7, 88112, Note_on_c, 6, 47, 0
7, 88136, Note_on_c, 6, 38, 88
7, 88144, Note_on_c, 6, 47, 85
7, 88284, Note_on_c, 6, 47, 0
7, 88288, Note_on_c, 6, 38, 0
7, 88320, Note_on_c, 6, 38, 87
7, 88328, Note_on_c, 6, 45, 87
7, 88592, Note_on_c, 6, 38, 0
7, 88604, Note_on_c, 6, 45, 0
7, 88624, Note_on_c, 6, 38, 87
7, 88640, Note_on_c, 6, 45, 84
7, 88776, Note_on_c, 6, 45, 0
7, 88776, Note_on_c, 6, 38, 0
7, 88804, Note_on_c, 6, 38, 87
7, 88816, Note_on_c, 6, 47, 87
7, 89060, Note_on_c, 6, 38, 0
7, 89080, Note_on_c, 6, 47, 0
7, 89100, Note_on_c, 6, 47, 85
7, 89104, Note_on_c, 6, 38, 87
7, 89240, Note_on_c, 6, 47, 0
7, 89252, Note_on_c, 6, 38, 0
7, 89280, Note_on_c, 6, 38, 88
7, 89288, Note_on_c, 6, 45, 87
7, 89540, Note_on_c, 6, 38, 0
7, 89556, Note_on_c, 6, 45, 0
7, 89584, Note_on_c, 6, 38, 87
7, 89596, Note_on_c, 6, 45, 79
7, 89724, Note_on_c, 6, 38, 0
7, 89732, Note_on_c, 6, 45, 0
7, 89756, Note_on_c, 6, 38, 88
7, 89764, Note_on_c, 6, 47, 87
7, 89992, Note_on_c, 6, 47, 0
7, 90000, Note_on_c, 6, 38, 0
7, 90060, Note_on_c, 6, 38, 87
7, 90200, Note_on_c, 6, 38, 0
7, 90236, Note_on_c, 6, 52, 85
7, 90240, Note_on_c, 6, 45, 88
7, 90488, Note_on_c, 6, 52, 0
7, 90500, Note_on_c, 6, 45, 0
7, 90520, Note_on_c, 6, 45, 88
7, 90532, Note_on_c, 6, 52, 72
7, 90620, Note_on_c, 6, 52, 0
7, 90672, Note_on_c, 6, 45, 0
7, 90712, Note_on_c, 6, 45, 88
7, 90716, Note_on_c, 6, 54, 87
7, 90960, Note_on_c, 6, 45, 0
7, 90976, Note_on_c, 6, 54, 0
7, 91004, Note_on_c, 6, 45, 88
7, 91008, Note_on_c, 6, 54, 60
7, 91092, Note_on_c, 6, 54, 0
7, 91148, Note_on_c, 6, 45, 0
7, 91200, Note_on_c, 6, 45, 88
7, 91208, Note_on_c, 6, 52, 70
7, 91460, Note_on_c, 6, 45, 0
7, 91468, Note_on_c, 6, 52, 0
7, 91496, Note_on_c, 6, 45, 87
7, 91512, Note_on_c, 6, 52, 49
7, 91588, Note_on_c, 6, 52, 0
7, 91684, Note_on_c, 6, 54, 87
7, 91924, Note_on_c, 6, 54, 0
7, 91932, Note_on_c, 6, 45, 0
7, 91952, Note_on_c, 6, 45, 88
7, 91972, Note_on_c, 6, 54, 81
7, 92140, Note_on_c, 6, 54, 0
7, 92144, Note_on_c, 6, 45, 0
7, 92168, Note_on_c, 6, 43, 88
7, 92172, Note_on_c, 6, 50, 87
7, 92476, Note_on_c, 6, 50, 0
7, 92484, Note_on_c, 6, 50, 76
7, 92584, Note_on_c, 6, 50, 0
7, 92600, Note_on_c, 6, 52, 59
7, 92616, Note_on_c, 6, 43, 0
7, 92628, Note_on_c, 6, 52, 0
7, 92656, Note_on_c, 6, 43, 88
7, 92660, Note_on_c, 6, 52, 87
7, 92916, Note_on_c, 6, 52, 0
7, 92932, Note_on_c, 6, 43, 0
7, 92952, Note_on_c, 6, 43, 88
7, 92960, Note_on_c, 6, 52, 87
7, 93088, Note_on_c, 6, 52, 0
7, 93108, Note_on_c, 6, 43, 0
7, 93140, Note_on_c, 6, 43, 88
7, 93148, Note_on_c, 6, 50, 87
7, 93408, Note_on_c, 6, 43, 0
7, 93412, Note_on_c, 6, 50, 0
7, 93436, Note_on_c, 6, 43, 88
7, 93584, Note_on_c, 6, 43, 0
7, 93612, Note_on_c, 6, 43, 88
7, 93616, Note_on_c, 6, 52, 87
7, 93848, Note_on_c, 6, 52, 0
7, 93852, Note_on_c, 6, 43, 0
7, 93884, Note_on_c, 6, 43, 88
7, 93900, Note_on_c, 6, 52, 79
7, 94020, Note_on_c, 6, 52, 0
7, 94036, Note_on_c, 6, 43, 0
7, 94088, Note_on_c, 6, 38, 88
7, 94104, Note_on_c, 6, 45, 85
7, 94344, Note_on_c, 6, 38, 0
7, 94364, Note_on_c, 6, 45, 0
7, 94392, Note_on_c, 6, 38, 87
7, 94520, Note_on_c, 6, 47, 52
7, 94536, Note_on_c, 6, 38, 0
7, 94540, Note_on_c, 6, 47, 0
7, 94564, Note_on_c, 6, 38, 87
7, 94572, Note_on_c, 6, 47, 88
7, 94824, Note_on_c, 6, 38, 0
7, 94836, Note_on_c, 6, 47, 0
7, 94860, Note_on_c, 6, 38, 87
7, 94876, Note_on_c, 6, 47, 80
7, 94988, Note_on_c, 6, 47, 0
7, 95000, Note_on_c, 6, 38, 0
7, 95032, Note_on_c, 6, 38, 87
7, 95044, Note_on_c, 6, 45, 85
7, 95288, Note_on_c, 6, 38, 0
7, 95304, Note_on_c, 6, 45, 0
7, 95328, Note_on_c, 6, 38, 87
7, 95344, Note_on_c, 6, 45, 58
7, 95456, Note_on_c, 6, 45, 0
7, 95456, Note_on_c, 6, 38, 0
7, 95456, Note_on_c, 6, 47, 48
7, 95480, Note_on_c, 6, 47, 0
7, 95500, Note_on_c, 6, 38, 87
7, 95508, Note_on_c, 6, 47, 87
7, 95760, Note_on_c, 6, 38, 0
7, 95772, Note_on_c, 6, 47, 0
7, 95820, Note_on_c, 6, 38, 87
7, 95840, Note_on_c, 6, 47, 52
7, 95932, Note_on_c, 6, 47, 0
7, 95952, Note_on_c, 6, 38, 0
7, 96000, Note_on_c, 6, 38, 88
7, 96000, Note_on_c, 6, 45, 88
7, 96208, Note_on_c, 6, 45, 0
7, 96208, Note_on_c, 6, 38, 0
7, 96300, Note_on_c, 6, 38, 88
7, 96300, Note_on_c, 6, 45, 88
7, 96480, Note_on_c, 6, 50, 88
7, 96480, Note_on_c, 6, 43, 88
7, 96508, Note_on_c, 6, 45, 0
7, 96508, Note_on_c, 6, 38, 0
7, 96736, Note_on_c, 6, 50, 0
7, 96736, Note_on_c, 6, 43, 0
7, 96760, Note_on_c, 6, 45, 88
7, 96768, Note_on_c, 6, 52, 87
7, 97944, Note_on_c, 6, 38, 87
7, 97956, Note_on_c, 6, 45, 87
7, 97960, Note_on_c, 6, 45, 0
7, 97968, Note_on_c, 6, 52, 0
7, 98196, Note_on_c, 6, 38, 0
7, 98212, Note_on_c, 6, 45, 0
7, 98252, Note_on_c, 6, 38, 87
7, 98260, Note_on_c, 6, 45, 87
7, 98384, Note_on_c, 6, 45, 0
7, 98384, Note_on_c, 6, 38, 0
7, 98424, Note_on_c, 6, 38, 87
7, 98428, Note_on_c, 6, 47, 88
7, 98684, Note_on_c, 6, 38, 0
7, 98688, Note_on_c, 6, 47, 0
7, 98700, Note_on_c, 6, 47, 87
7, 98716, Note_on_c, 6, 38, 87
7, 98824, Note_on_c, 6, 47, 0
7, 98864, Note_on_c, 6, 38, 0
7, 98880, Note_on_c, 6, 45, 88
7, 98896, Note_on_c, 6, 38, 87
7, 99124, Note_on_c, 6, 45, 0
7, 99168, Note_on_c, 6, 38, 0
7, 99204, Note_on_c, 6, 38, 87
7, 99212, Note_on_c, 6, 45, 83
7, 99340, Note_on_c, 6, 38, 0
7, 99356, Note_on_c, 6, 45, 0
7, 99384, Note_on_c, 6, 38, 87
7, 99388, Note_on_c, 6, 47, 88
7, 99624, Note_on_c, 6, 38, 0
7, 99644, Note_on_c, 6, 47, 0
7, 99660, Note_on_c, 6, 47, 87
7, 99672, Note_on_c, 6, 38, 87
7, 99784, Note_on_c, 6, 47, 0
7, 99848, Note_on_c, 6, 43, 88
7, 99852, Note_on_c, 6, 50, 86
7, 100116, Note_on_c, 6, 50, 0
7, 100124, Note_on_c, 6, 43, 0
7, 100148, Note_on_c, 6, 43, 88
7, 100156, Note_on_c, 6, 50, 83
7, 100268, Note_on_c, 6, 50, 0
7, 100292, Note_on_c, 6, 43, 0
7, 100296, Note_on_c, 6, 52, 70
7, 100308, Note_on_c, 6, 52, 0
7, 100332, Note_on_c, 6, 43, 88
7, 100340, Note_on_c, 6, 52, 87
7, 100612, Note_on_c, 6, 52, 0
7, 100620, Note_on_c, 6, 43, 0
7, 100620, Note_on_c, 6, 52, 83
7, 100644, Note_on_c, 6, 43, 88
7, 100732, Note_on_c, 6, 52, 0
7, 100792, Note_on_c, 6, 43, 0
7, 100828, Note_on_c, 6, 43, 88
7, 100836, Note_on_c, 6, 50, 87
7, 101096, Note_on_c, 6, 50, 0
7, 101112, Note_on_c, 6, 43, 0
7, 101128, Note_on_c, 6, 43, 87
7, 101132, Note_on_c, 6, 50, 84
7, 101248, Note_on_c, 6, 50, 0
7, 101268, Note_on_c, 6, 52, 72
7, 101272, Note_on_c, 6, 43, 0
7, 101292, Note_on_c, 6, 52, 0
7, 101312, Note_on_c, 6, 43, 88
7, 101316, Note_on_c, 6, 52, 87
7, 101560, Note_on_c, 6, 52, 0
7, 101568, Note_on_c, 6, 43, 0
7, 101600, Note_on_c, 6, 52, 74
7, 101720, Note_on_c, 6, 38, 0
7, 101736, Note_on_c, 6, 52, 0
7, 101736, Note_on_c, 6, 45, 81
7, 101772, Note_on_c, 6, 45, 0
7, 101772, Note_on_c, 6, 38, 88
7, 101780, Note_on_c, 6, 45, 87
7, 102056, Note_on_c, 6, 45, 0
7, 102060, Note_on_c, 6, 38, 0
7, 102060, Note_on_c, 6, 45, 86
7, 102076, Note_on_c, 6, 38, 87
7, 102188, Note_on_c, 6, 45, 0
7, 102216, Note_on_c, 6, 47, 54
7, 102224, Note_on_c, 6, 47, 0
7, 102224, Note_on_c, 6, 38, 0
7, 102252, Note_on_c, 6, 38, 87
7, 102260, Note_on_c, 6, 47, 87
7, 102512, Note_on_c, 6, 38, 0
7, 102516, Note_on_c, 6, 47, 0
7, 102548, Note_on_c, 6, 38, 87
7, 102560, Note_on_c, 6, 47, 72
7, 102688, Note_on_c, 6, 47, 0
7, 102692, Note_on_c, 6, 38, 0
7, 102724, Note_on_c, 6, 38, 88
7, 102732, Note_on_c, 6, 45, 88
7, 103004, Note_on_c, 6, 38, 0
7, 103008, Note_on_c, 6, 45, 0
7, 103028, Note_on_c, 6, 38, 87
7, 103036, Note_on_c, 6, 45, 86
7, 103164, Note_on_c, 6, 45, 0
7, 103172, Note_on_c, 6, 47, 72
7, 103180, Note_on_c, 6, 38, 0
7, 103196, Note_on_c, 6, 47, 0
7, 103208, Note_on_c, 6, 38, 87
7, 103212, Note_on_c, 6, 47, 88
7, 103476, Note_on_c, 6, 38, 0
7, 103480, Note_on_c, 6, 47, 0
7, 103500, Note_on_c, 6, 38, 86
7, 103516, Note_on_c, 6, 47, 78
7, 103624, Note_on_c, 6, 47, 0
7, 103640, Note_on_c, 6, 38, 0
7, 103676, Note_on_c, 6, 38, 87
7, 103692, Note_on_c, 6, 45, 88
7, 103964, Note_on_c, 6, 38, 0
7, 103972, Note_on_c, 6, 45, 0
7, 103980, Note_on_c, 6, 45, 86
7, 103988, Note_on_c, 6, 38, 87
7, 104116, Note_on_c, 6, 45, 0
7, 104124, Note_on_c, 6, 47, 36
7, 104132, Note_on_c, 6, 38, 0
7, 104148, Note_on_c, 6, 47, 0
7, 104164, Note_on_c, 6, 38, 87
7, 104168, Note_on_c, 6, 47, 88
7, 104432, Note_on_c, 6, 47, 0
7, 104432, Note_on_c, 6, 38, 0
7, 104464, Note_on_c, 6, 38, 87
7, 104472, Note_on_c, 6, 47, 87
7, 104596, Note_on_c, 6, 47, 0
7, 104608, Note_on_c, 6, 38, 0
7, 104644, Note_on_c, 6, 38, 87
7, 104652, Note_on_c, 6, 45, 87
7, 104912, Note_on_c, 6, 38, 0
7, 104916, Note_on_c, 6, 45, 0
7, 104952, Note_on_c, 6, 38, 88
7, 104952, Note_on_c, 6, 45, 86
7, 105088, Note_on_c, 6, 45, 0
7, 105088, Note_on_c, 6, 38, 0
7, 105116, Note_on_c, 6, 38, 87
7, 105120, Note_on_c, 6, 47, 87
7, 105356, Note_on_c, 6, 38, 0
7, 105380, Note_on_c, 6, 47, 0
7, 105424, Note_on_c, 6, 47, 84
7, 105544, Note_on_c, 6, 47, 0
7, 105596, Note_on_c, 6, 43, 88
7, 105600, Note_on_c, 6, 50, 63
7, 105876, Note_on_c, 6, 50, 0
7, 105884, Note_on_c, 6, 43, 0
7, 105900, Note_on_c, 6, 43, 88
7, 105932, Note_on_c, 6, 50, 86
7, 106052, Note_on_c, 6, 50, 0
7, 106052, Note_on_c, 6, 43, 0
7, 106052, Note_on_c, 6, 52, 77
7, 106076, Note_on_c, 6, 52, 0
7, 106088, Note_on_c, 6, 43, 88
7, 106108, Note_on_c, 6, 52, 87
7, 106348, Note_on_c, 6, 43, 0
7, 106372, Note_on_c, 6, 52, 0
7, 106384, Note_on_c, 6, 43, 88
7, 106392, Note_on_c, 6, 52, 87
7, 106536, Note_on_c, 6, 52, 0
7, 106548, Note_on_c, 6, 43, 0
7, 106576, Note_on_c, 6, 43, 88
7, 106580, Note_on_c, 6, 50, 86
7, 106840, Note_on_c, 6, 43, 0
7, 106844, Note_on_c, 6, 50, 0
7, 106864, Note_on_c, 6, 43, 87
7, 106872, Note_on_c, 6, 50, 87
7, 106996, Note_on_c, 6, 43, 0
7, 107020, Note_on_c, 6, 50, 0
7, 107044, Note_on_c, 6, 43, 88
7, 107064, Note_on_c, 6, 52, 87
7, 107300, Note_on_c, 6, 43, 0
7, 107320, Note_on_c, 6, 52, 0
7, 107324, Note_on_c, 6, 43, 88
7, 107336, Note_on_c, 6, 52, 87
7, 107460, Note_on_c, 6, 52, 0
7, 107472, Note_on_c, 6, 43, 0
7, 107512, Note_on_c, 6, 43, 88
7, 107516, Note_on_c, 6, 50, 87
7, 107792, Note_on_c, 6, 50, 0
7, 107808, Note_on_c, 6, 43, 0
7, 107824, Note_on_c, 6, 43, 88
7, 107828, Note_on_c, 6, 50, 85
7, 107972, Note_on_c, 6, 43, 0
7, 107980, Note_on_c, 6, 50, 0
7, 108000, Note_on_c, 6, 43, 87
7, 108004, Note_on_c, 6, 52, 87
7, 108276, Note_on_c, 6, 52, 0
7, 108308, Note_on_c, 6, 52, 78
7, 108452, Note_on_c, 6, 43, 0
7, 108456, Note_on_c, 6, 52, 0
7, 108476, Note_on_c, 6, 43, 88
7, 108480, Note_on_c, 6, 50, 86
7, 108748, Note_on_c, 6, 43, 0
7, 108756, Note_on_c, 6, 50, 0
7, 108772, Note_on_c, 6, 43, 88
7, 108784, Note_on_c, 6, 50, 87
7, 108904, Note_on_c, 6, 50, 0
7, 108912, Note_on_c, 6, 52, 78
7, 108920, Note_on_c, 6, 43, 0
7, 108928, Note_on_c, 6, 52, 0
7, 108960, Note_on_c, 6, 43, 88
7, 108964, Note_on_c, 6, 52, 87
7, 109200, Note_on_c, 6, 52, 0
7, 109208, Note_on_c, 6, 43, 0
7, 109240, Note_on_c, 6, 43, 87
7, 109240, Note_on_c, 6, 52, 87
7, 109372, Note_on_c, 6, 52, 0
7, 109400, Note_on_c, 6, 43, 0
7, 109424, Note_on_c, 6, 38, 87
7, 109432, Note_on_c, 6, 45, 86
7, 109704, Note_on_c, 6, 38, 0
7, 109708, Note_on_c, 6, 45, 0
7, 109732, Note_on_c, 6, 38, 88
7, 109744, Note_on_c, 6, 45, 85
7, 109856, Note_on_c, 6, 45, 0
7, 109872, Note_on_c, 6, 38, 0
7, 109908, Note_on_c, 6, 38, 87
7, 109916, Note_on_c, 6, 47, 85
7, 110184, Note_on_c, 6, 38, 0
7, 110192, Note_on_c, 6, 47, 0
7, 110224, Note_on_c, 6, 38, 87
7, 110236, Note_on_c, 6, 47, 88
7, 110356, Note_on_c, 6, 47, 0
7, 110360, Note_on_c, 6, 38, 0
7, 110404, Note_on_c, 6, 38, 87
7, 110436, Note_on_c, 6, 45, 87
7, 110664, Note_on_c, 6, 38, 0
7, 110684, Note_on_c, 6, 45, 0
7, 110700, Note_on_c, 6, 38, 87
7, 110708, Note_on_c, 6, 45, 86
7, 110836, Note_on_c, 6, 45, 0
7, 110844, Note_on_c, 6, 38, 0
7, 110884, Note_on_c, 6, 38, 88
7, 110888, Note_on_c, 6, 47, 85
7, 111140, Note_on_c, 6, 38, 0
7, 111152, Note_on_c, 6, 47, 0
7, 111176, Note_on_c, 6, 38, 88
7, 111184, Note_on_c, 6, 47, 85
7, 111324, Note_on_c, 6, 47, 0
7, 111328, Note_on_c, 6, 38, 0
7, 111360, Note_on_c, 6, 38, 87
7, 111368, Note_on_c, 6, 45, 87
7, 111632, Note_on_c, 6, 38, 0
7, 111644, Note_on_c, 6, 45, 0
7, 111664, Note_on_c, 6, 38, 87
7, 111680, Note_on_c, 6, 45, 84
7, 111816, Note_on_c, 6, 45, 0
7, 111816, Note_on_c, 6, 38, 0
7, 111844, Note_on_c, 6, 38, 87
7, 111856, Note_on_c, 6, 47, 87
7, 112100, Note_on_c, 6, 38, 0
7, 112120, Note_on_c, 6, 47, 0
7, 112140, Note_on_c, 6, 47, 85
7, 112144, Note_on_c, 6, 38, 87
7, 112280, Note_on_c, 6, 47, 0
7, 112292, Note_on_c, 6, 38, 0
7, 112320, Note_on_c, 6, 38, 88
7, 112328, Note_on_c, 6, 45, 87
7, 112580, Note_on_c, 6, 38, 0
7, 112596, Note_on_c, 6, 45, 0
7, 112624, Note_on_c, 6, 38, 87
7, 112636, Note_on_c, 6, 45, 79
7, 112764, Note_on_c, 6, 38, 0
7, 112772, Note_on_c, 6, 45, 0
7, 112796, Note_on_c, 6, 38, 88
7, 112804, Note_on_c, 6, 47, 87
7, 113032, Note_on_c, 6, 47, 0
7, 113040, Note_on_c, 6, 38, 0
7, 113100, Note_on_c, 6, 38, 87
7, 113240, Note_on_c, 6, 38, 0
7, 113276, Note_on_c, 6, 52, 85
7, 113280, Note_on_c, 6, 45, 88
7, 113528, Note_on_c, 6, 52, 0
7, 113540, Note_on_c, 6, 45, 0
7, 113560, Note_on_c, 6, 45, 88
7, 113572, Note_on_c, 6, 52, 72
7, 113660, Note_on_c, 6, 52, 0
7, 113712, Note_on_c, 6, 45, 0
7, 113752, Note_on_c, 6, 45, 88
7, 113756, Note_on_c, 6, 54, 87
7, 114000, Note_on_c, 6, 45, 0
7, 114016, Note_on_c, 6, 54, 0
7, 114044, Note_on_c, 6, 45, 88
7, 114048, Note_on_c, 6, 54, 60
7, 114132, Note_on_c, 6, 54, 0
7, 114188, Note_on_c, 6, 45, 0
7, 114240, Note_on_c, 6, 45, 88
7, 114248, Note_on_c, 6, 52, 70
7, 114500, Note_on_c, 6, 45, 0
7, 114508, Note_on_c, 6, 52, 0
7, 114536, Note_on_c, 6, 45, 87
7, 114552, Note_on_c, 6, 52, 49
7, 114628, Note_on_c, 6, 52, 0
7, 114724, Note_on_c, 6, 54, 87
7, 114964, Note_on_c, 6, 54, 0
7, 114972, Note_on_c, 6, 45, 0
7, 114992, Note_on_c, 6, 45, 88
7, 115012, Note_on_c, 6, 54, 81
7, 115180, Note_on_c, 6, 54, 0
7, 115184, Note_on_c, 6, 45, 0
7, 115208, Note_on_c, 6, 43, 88
7, 115212, Note_on_c, 6, 50, 87
7, 115516, Note_on_c, 6, 50, 0
7, 115524, Note_on_c, 6, 50, 76
7, 115624, Note_on_c, 6, 50, 0
7, 115640, Note_on_c, 6, 52, 59
7, 115656, Note_on_c, 6, 43, 0
7, 115668, Note_on_c, 6, 52, 0
7, 115696, Note_on_c, 6, 43, 88
7, 115700, Note_on_c, 6, 52, 87
7, 115956, Note_on_c, 6, 52, 0
7, 115972, Note_on_c, 6, 43, 0
7, 115992, Note_on_c, 6, 43, 88
7, 116000, Note_on_c, 6, 52, 87
7, 116128, Note_on_c, 6, 52, 0
7, 116148, Note_on_c, 6, 43, 0
7, 116180, Note_on_c, 6, 43, 88
7, 116188, Note_on_c, 6, 50, 87
7, 116448, Note_on_c, 6, 43, 0
7, 116452, Note_on_c, 6, 50, 0
7, 116476, Note_on_c, 6, 43, 88
7, 116624, Note_on_c, 6, 43, 0
7, 116652, Note_on_c, 6, 43, 88
7, 116656, Note_on_c, 6, 52, 87
7, 116888, Note_on_c, 6, 52, 0
7, 116892, Note_on_c, 6, 43, 0
7, 116924, Note_on_c, 6, 43, 88
7, 116940, Note_on_c, 6, 52, 79
7, 117060, Note_on_c, 6, 52, 0
7, 117076, Note_on_c, 6, 43, 0
7, 117128, Note_on_c, 6, 38, 88
7, 117144, Note_on_c, 6, 45, 85
7, 117384, Note_on_c, 6, 38, 0
7, 117404, Note_on_c, 6, 45, 0
7, 117432, Note_on_c, 6, 38, 87
7, 117560, Note_on_c, 6, 47, 52
7, 117576, Note_on_c, 6, 38, 0
7, 117580, Note_on_c, 6, 47, 0
7, 117604, Note_on_c, 6, 38, 87
7, 117612, Note_on_c, 6, 47, 88
7, 117864, Note_on_c, 6, 38, 0
7, 117876, Note_on_c, 6, 47, 0
7, 117900, Note_on_c, 6, 38, 87
7, 117916, Note_on_c, 6, 47, 80
7, 118028, Note_on_c, 6, 47, 0
7, 118040, Note_on_c, 6, 38, 0
7, 118072, Note_on_c, 6, 38, 87
7, 118084, Note_on_c, 6, 45, 85
7, 118328, Note_on_c, 6, 38, 0
7, 118344, Note_on_c, 6, 45, 0
7, 118368, Note_on_c, 6, 38, 87
7, 118384, Note_on_c, 6, 45, 58
7, 118496, Note_on_c, 6, 45, 0
7, 118496, Note_on_c, 6, 38, 0
7, 118496, Note_on_c, 6, 47, 48
7, 118520, Note_on_c, 6, 47, 0
7, 118540, Note_on_c, 6, 38, 87
7, 118548, Note_on_c, 6, 47, 87
7, 118800, Note_on_c, 6, 38, 0
7, 118812, Note_on_c, 6, 47, 0
7, 118860, Note_on_c, 6, 38, 87
7, 118880, Note_on_c, 6, 47, 52
7, 118972, Note_on_c, 6, 47, 0
7, 118992, Note_on_c, 6, 38, 0
7, 119040, Note_on_c, 6, 45, 87
7, 119040, Pitch_bend_c, 6, 8192
7, 119040, Pitch_bend_c, 6, 8192
7, 119052, Pitch_bend_c, 6, 8192
7, 119056, Note_on_c, 6, 38, 87
7, 120764, Note_on_c, 6, 38, 0
7, 120780, Note_on_c, 6, 45, 0
7, 120780, End_track
8, 0, Start_track
8, 0, MIDI_port, 0
8, 0, Control_c, 7, 91, 99
8, 0, Control_c, 7, 93, 79
8, 0, Control_c, 7, 121, 0
8, 1, Control_c, 7, 32, 0
8, 18, Control_c, 7, 101, 0
8, 18, Control_c, 7, 100, 0
8, 18, Control_c, 7, 6, 12
8, 18, Control_c, 7, 38, 0
8, 21, Control_c, 7, 11, 127
8, 517, Program_c, 7, 35
8, 518, Control_c, 7, 7, 120
8, 518, Control_c, 7, 10, 60
8, 2924, Note_on_c, 7, 29, 69
8, 3056, Note_on_c, 7, 29, 0
8, 3880, Note_on_c, 7, 28, 71
8, 4020, Note_on_c, 7, 28, 0
8, 4656, Note_on_c, 7, 26, 82
8, 5544, Note_on_c, 7, 26, 0
8, 5764, Note_on_c, 7, 26, 87
8, 6164, Note_on_c, 7, 26, 0
8, 6232, Note_on_c, 7, 30, 87
8, 6644, Note_on_c, 7, 30, 0
8, 6728, Note_on_c, 7, 33, 88
8, 7128, Note_on_c, 7, 33, 0
8, 7188, Note_on_c, 7, 35, 88
8, 7592, Note_on_c, 7, 35, 0
8, 7660, Note_on_c, 7, 31, 88
8, 8080, Note_on_c, 7, 31, 0
8, 8160, Note_on_c, 7, 35, 88
8, 8584, Note_on_c, 7, 35, 0
8, 8636, Note_on_c, 7, 35, 87
8, 8680, Note_on_c, 7, 35, 0
8, 8684, Note_on_c, 7, 38, 87
8, 9044, Note_on_c, 7, 38, 0
8, 9116, Note_on_c, 7, 40, 86
8, 9488, Note_on_c, 7, 40, 0
8, 9596, Note_on_c, 7, 26, 87
8, 10016, Note_on_c, 7, 26, 0
8, 10080, Note_on_c, 7, 30, 87
8, 10488, Note_on_c, 7, 30, 0
8, 10560, Note_on_c, 7, 33, 88
8, 10968, Note_on_c, 7, 33, 0
8, 11032, Note_on_c, 7, 35, 88
8, 11452, Note_on_c, 7, 35, 0
8, 11516, Note_on_c, 7, 38, 87
8, 11948, Note_on_c, 7, 38, 0
8, 12008, Note_on_c, 7, 35, 88
8, 12404, Note_on_c, 7, 35, 0
8, 12484, Note_on_c, 7, 33, 88
8, 12940, Note_on_c, 7, 33, 0
8, 12972, Note_on_c, 7, 30, 87
8, 13348, Note_on_c, 7, 30, 0
8, 13440, Note_on_c, 7, 31, 88
8, 13864, Note_on_c, 7, 31, 0
8, 13920, Note_on_c, 7, 35, 88
8, 14360, Note_on_c, 7, 35, 0
8, 14412, Note_on_c, 7, 38, 87
8, 14820, Note_on_c, 7, 38, 0
8, 14888, Note_on_c, 7, 40, 86
8, 15320, Note_on_c, 7, 40, 0
8, 15380, Note_on_c, 7, 31, 88
8, 15800, Note_on_c, 7, 31, 0
8, 15852, Note_on_c, 7, 35, 87
8, 16256, Note_on_c, 7, 35, 0
8, 16320, Note_on_c, 7, 38, 87
8, 16704, Note_on_c, 7, 38, 0
8, 16816, Note_on_c, 7, 40, 87
8, 17224, Note_on_c, 7, 40, 0
8, 17288, Note_on_c, 7, 26, 87
8, 17700, Note_on_c, 7, 26, 0
8, 17772, Note_on_c, 7, 30, 87
8, 18180, Note_on_c, 7, 30, 0
8, 18244, Note_on_c, 7, 33, 88
8, 18660, Note_on_c, 7, 33, 0
8, 18728, Note_on_c, 7, 35, 88
8, 19144, Note_on_c, 7, 35, 0
8, 19208, Note_on_c, 7, 38, 87
8, 19660, Note_on_c, 7, 38, 0
8, 19700, Note_on_c, 7, 35, 88
8, 20112, Note_on_c, 7, 35, 0
8, 20180, Note_on_c, 7, 33, 87
8, 20604, Note_on_c, 7, 33, 0
8, 20652, Note_on_c, 7, 30, 87
8, 21012, Note_on_c, 7, 30, 0
8, 21132, Note_on_c, 7, 33, 87
8, 21536, Note_on_c, 7, 33, 0
8, 21612, Note_on_c, 7, 37, 84
8, 22008, Note_on_c, 7, 37, 0
8, 22080, Note_on_c, 7, 40, 88
8, 22508, Note_on_c, 7, 40, 0
8, 22576, Note_on_c, 7, 42, 87
8, 22864, Note_on_c, 7, 42, 0
8, 23044, Note_on_c, 7, 31, 88
8, 23440, Note_on_c, 7, 31, 0
8, 23520, Note_on_c, 7, 35, 87
8, 23944, Note_on_c, 7, 35, 0
8, 24036, Note_on_c, 7, 38, 87
8, 24396, Note_on_c, 7, 38, 0
8, 24484, Note_on_c, 7, 40, 86
8, 24844, Note_on_c, 7, 40, 0
8, 24968, Note_on_c, 7, 26, 85
8, 25348, Note_on_c, 7, 26, 0
8, 25436, Note_on_c, 7, 30, 87
8, 25816, Note_on_c, 7, 30, 0
8, 25884, Note_on_c, 7, 29, 87
8, 26284, Note_on_c, 7, 29, 0
8, 26364, Note_on_c, 7, 28, 87
8, 26416, Note_on_c, 7, 40, 27
8, 26832, Note_on_c, 7, 28, 0
8, 26904, Note_on_c, 7, 38, 88
8, 27088, Note_on_c, 7, 40, 0
8, 27104, Note_on_c, 7, 38, 0
8, 27336, Note_on_c, 7, 43, 88
8, 27592, Note_on_c, 7, 43, 0
8, 27652, Note_on_c, 7, 45, 88
8, 28480, Note_on_c, 7, 45, 0
8, 28804, Note_on_c, 7, 26, 87
8, 29204, Note_on_c, 7, 26, 0
8, 29272, Note_on_c, 7, 30, 87
8, 29684, Note_on_c, 7, 30, 0
8, 29768, Note_on_c, 7, 33, 88
8, 30168, Note_on_c, 7, 33, 0
8, 30228, Note_on_c, 7, 35, 88
8, 30632, Note_on_c, 7, 35, 0
8, 30700, Note_on_c, 7, 31, 88
8, 31120, Note_on_c, 7, 31, 0
8, 31200, Note_on_c, 7, 35, 88
8, 31624, Note_on_c, 7, 35, 0
8, 31676, Note_on_c, 7, 35, 87
8, 31720, Note_on_c, 7, 35, 0
8, 31724, Note_on_c, 7, 38, 87
8, 32084, Note_on_c, 7, 38, 0
8, 32156, Note_on_c, 7, 40, 86
8, 32528, Note_on_c, 7, 40, 0
8, 32636, Note_on_c, 7, 26, 87
8, 33056, Note_on_c, 7, 26, 0
8, 33120, Note_on_c, 7, 30, 87
8, 33528, Note_on_c, 7, 30, 0
8, 33600, Note_on_c, 7, 33, 88
8, 34008, Note_on_c, 7, 33, 0
8, 34072, Note_on_c, 7, 35, 88
8, 34492, Note_on_c, 7, 35, 0
8, 34556, Note_on_c, 7, 38, 87
8, 34988, Note_on_c, 7, 38, 0
8, 35048, Note_on_c, 7, 35, 88
8, 35444, Note_on_c, 7, 35, 0
8, 35524, Note_on_c, 7, 33, 88
8, 35980, Note_on_c, 7, 33, 0
8, 36012, Note_on_c, 7, 30, 87
8, 36388, Note_on_c, 7, 30, 0
8, 36480, Note_on_c, 7, 31, 88
8, 36904, Note_on_c, 7, 31, 0
8, 36960, Note_on_c, 7, 35, 88
8, 37400, Note_on_c, 7, 35, 0
8, 37452, Note_on_c, 7, 38, 87
8, 37860, Note_on_c, 7, 38, 0
8, 37928, Note_on_c, 7, 40, 86
8, 38360, Note_on_c, 7, 40, 0
8, 38420, Note_on_c, 7, 31, 88
8, 38840, Note_on_c, 7, 31, 0
8, 38892, Note_on_c, 7, 35, 87
8, 39296, Note_on_c, 7, 35, 0
8, 39360, Note_on_c, 7, 38, 87
8, 39744, Note_on_c, 7, 38, 0
8, 39856, Note_on_c, 7, 40, 87
8, 40264, Note_on_c, 7, 40, 0
8, 40328, Note_on_c, 7, 26, 87
8, 40740, Note_on_c, 7, 26, 0
8, 40812, Note_on_c, 7, 30, 87
8, 41220, Note_on_c, 7, 30, 0
8, 41284, Note_on_c, 7, 33, 88
8, 41700, Note_on_c, 7, 33, 0
8, 41768, Note_on_c, 7, 35, 88
8, 42184, Note_on_c, 7, 35, 0
8, 42248, Note_on_c, 7, 38, 87
8, 42700, Note_on_c, 7, 38, 0
8, 42740, Note_on_c, 7, 35, 88
8, 43152, Note_on_c, 7, 35, 0
8, 43220, Note_on_c, 7, 33, 87
8, 43644, Note_on_c, 7, 33, 0
8, 43692, Note_on_c, 7, 30, 87
8, 44052, Note_on_c, 7, 30, 0
8, 44172, Note_on_c, 7, 33, 87
8, 44576, Note_on_c, 7, 33, 0
8, 44652, Note_on_c, 7, 37, 84
8, 45048, Note_on_c, 7, 37, 0
8, 45120, Note_on_c, 7, 40, 88
8, 45548, Note_on_c, 7, 40, 0
8, 45616, Note_on_c, 7, 42, 87
8, 45904, Note_on_c, 7, 42, 0
8, 46084, Note_on_c, 7, 31, 88
8, 46480, Note_on_c, 7, 31, 0
8, 46560, Note_on_c, 7, 35, 87
8, 46984, Note_on_c, 7, 35, 0
8, 47076, Note_on_c, 7, 38, 87
8, 47436, Note_on_c, 7, 38, 0
8, 47524, Note_on_c, 7, 40, 86
8, 47884, Note_on_c, 7, 40, 0
8, 48008, Note_on_c, 7, 26, 85
8, 48388, Note_on_c, 7, 26, 0
8, 48476, Note_on_c, 7, 30, 87
8, 48856, Note_on_c, 7, 30, 0
8, 48924, Note_on_c, 7, 29, 87
8, 49324, Note_on_c, 7, 29, 0
8, 49404, Note_on_c, 7, 28, 87
8, 49456, Note_on_c, 7, 40, 27
8, 49872, Note_on_c, 7, 28, 0
8, 49944, Note_on_c, 7, 38, 88
8, 50128, Note_on_c, 7, 40, 0
8, 50144, Note_on_c, 7, 38, 0
8, 50376, Note_on_c, 7, 43, 88
8, 50632, Note_on_c, 7, 43, 0
8, 50692, Note_on_c, 7, 45, 88
8, 51520, Note_on_c, 7, 45, 0
8, 51844, Note_on_c, 7, 26, 87
8, 52244, Note_on_c, 7, 26, 0
8, 52312, Note_on_c, 7, 30, 87
8, 52724, Note_on_c, 7, 30, 0
8, 52808, Note_on_c, 7, 33, 88
8, 53208, Note_on_c, 7, 33, 0
8, 53268, Note_on_c, 7, 35, 88
8, 53672, Note_on_c, 7, 35, 0
8, 53740, Note_on_c, 7, 31, 88
8, 54160, Note_on_c, 7, 31, 0
8, 54240, Note_on_c, 7, 35, 88
8, 54664, Note_on_c, 7, 35, 0
8, 54716, Note_on_c, 7, 35, 87
8, 54760, Note_on_c, 7, 35, 0
8, 54764, Note_on_c, 7, 38, 87
8, 55124, Note_on_c, 7, 38, 0
8, 55196, Note_on_c, 7, 40, 86
8, 55568, Note_on_c, 7, 40, 0
8, 55676, Note_on_c, 7, 26, 87
8, 56096, Note_on_c, 7, 26, 0
8, 56160, Note_on_c, 7, 30, 87
8, 56568, Note_on_c, 7, 30, 0
8, 56640, Note_on_c, 7, 33, 88
8, 57048, Note_on_c, 7, 33, 0
8, 57112, Note_on_c, 7, 35, 88
8, 57532, Note_on_c, 7, 35, 0
8, 57596, Note_on_c, 7, 38, 87
8, 58028, Note_on_c, 7, 38, 0
8, 58088, Note_on_c, 7, 35, 88
8, 58484, Note_on_c, 7, 35, 0
8, 58564, Note_on_c, 7, 33, 88
8, 59020, Note_on_c, 7, 33, 0
8, 59052, Note_on_c, 7, 30, 87
8, 59428, Note_on_c, 7, 30, 0
8, 59520, Note_on_c, 7, 31, 88
8, 59944, Note_on_c, 7, 31, 0
8, 60000, Note_on_c, 7, 35, 88
8, 60440, Note_on_c, 7, 35, 0
8, 60492, Note_on_c, 7, 38, 87
8, 60900, Note_on_c, 7, 38, 0
8, 60968, Note_on_c, 7, 40, 86
8, 61400, Note_on_c, 7, 40, 0
8, 61460, Note_on_c, 7, 31, 88
8, 61880, Note_on_c, 7, 31, 0
8, 61932, Note_on_c, 7, 35, 87
8, 62336, Note_on_c, 7, 35, 0
8, 62400, Note_on_c, 7, 38, 87
8, 62784, Note_on_c, 7, 38, 0
8, 62896, Note_on_c, 7, 40, 87
8, 63304, Note_on_c, 7, 40, 0
8, 63368, Note_on_c, 7, 26, 87
8, 63780, Note_on_c, 7, 26, 0
8, 63852, Note_on_c, 7, 30, 87
8, 64260, Note_on_c, 7, 30, 0
8, 64324, Note_on_c, 7, 33, 88
8, 64740, Note_on_c, 7, 33, 0
8, 64808, Note_on_c, 7, 35, 88
8, 65224, Note_on_c, 7, 35, 0
8, 65288, Note_on_c, 7, 38, 87
8, 65740, Note_on_c, 7, 38, 0
8, 65780, Note_on_c, 7, 35, 88
8, 66192, Note_on_c, 7, 35, 0
8, 66260, Note_on_c, 7, 33, 87
8, 66684, Note_on_c, 7, 33, 0
8, 66732, Note_on_c, 7, 30, 87
8, 67092, Note_on_c, 7, 30, 0
8, 67212, Note_on_c, 7, 33, 87
8, 67616, Note_on_c, 7, 33, 0
8, 67692, Note_on_c, 7, 37, 84
8, 68088, Note_on_c, 7, 37, 0
8, 68160, Note_on_c, 7, 40, 88
8, 68588, Note_on_c, 7, 40, 0
8, 68656, Note_on_c, 7, 42, 87
8, 68944, Note_on_c, 7, 42, 0
8, 69124, Note_on_c, 7, 31, 88
8, 69520, Note_on_c, 7, 31, 0
8, 69600, Note_on_c, 7, 35, 87
8, 70024, Note_on_c, 7, 35, 0
8, 70116, Note_on_c, 7, 38, 87
8, 70476, Note_on_c, 7, 38, 0
8, 70564, Note_on_c, 7, 40, 86
8, 70924, Note_on_c, 7, 40, 0
8, 71048, Note_on_c, 7, 26, 85
8, 71428, Note_on_c, 7, 26, 0
8, 71516, Note_on_c, 7, 30, 87
8, 71896, Note_on_c, 7, 30, 0
8, 71964, Note_on_c, 7, 29, 87
8, 72364, Note_on_c, 7, 29, 0
8, 72444, Note_on_c, 7, 28, 87
8, 72496, Note_on_c, 7, 40, 27
8, 72912, Note_on_c, 7, 28, 0
8, 72984, Note_on_c, 7, 38, 88
8, 73168, Note_on_c, 7, 40, 0
8, 73184, Note_on_c, 7, 38, 0
8, 73416, Note_on_c, 7, 43, 88
8, 73672, Note_on_c, 7, 43, 0
8, 73732, Note_on_c, 7, 45, 88
8, 74560, Note_on_c, 7, 45, 0
8, 74884, Note_on_c, 7, 26, 87
8, 75284, Note_on_c, 7, 26, 0
8, 75352, Note_on_c, 7, 30, 87
8, 75764, Note_on_c, 7, 30, 0
8, 75848, Note_on_c, 7, 33, 88
8, 76248, Note_on_c, 7, 33, 0
8, 76308, Note_on_c, 7, 35, 88
8, 76712, Note_on_c, 7, 35, 0
8, 76780, Note_on_c, 7, 31, 88
8, 77200, Note_on_c, 7, 31, 0
8, 77280, Note_on_c, 7, 35, 88
8, 77704, Note_on_c, 7, 35, 0
8, 77756, Note_on_c, 7, 35, 87
8, 77800, Note_on_c, 7, 35, 0
8, 77804, Note_on_c, 7, 38, 87
8, 78164, Note_on_c, 7, 38, 0
8, 78236, Note_on_c, 7, 40, 86
8, 78608, Note_on_c, 7, 40, 0
8, 78716, Note_on_c, 7, 26, 87
8, 79136, Note_on_c, 7, 26, 0
8, 79200, Note_on_c, 7, 30, 87
8, 79608, Note_on_c, 7, 30, 0
8, 79680, Note_on_c, 7, 33, 88
8, 80088, Note_on_c, 7, 33, 0
8, 80152, Note_on_c, 7, 35, 88
8, 80572, Note_on_c, 7, 35, 0
8, 80636, Note_on_c, 7, 38, 87
8, 81068, Note_on_c, 7, 38, 0
8, 81128, Note_on_c, 7, 35, 88
8, 81524, Note_on_c, 7, 35, 0
8, 81604, Note_on_c, 7, 33, 88
8, 82060, Note_on_c, 7, 33, 0
8, 82092, Note_on_c, 7, 30, 87
8, 82468, Note_on_c, 7, 30, 0
8, 82560, Note_on_c, 7, 31, 88
8, 82984, Note_on_c, 7, 31, 0
8, 83040, Note_on_c, 7, 35, 88
8, 83480, Note_on_c, 7, 35, 0
8, 83532, Note_on_c, 7, 38, 87
8, 83940, Note_on_c, 7, 38, 0
8, 84008, Note_on_c, 7, 40, 86
8, 84440, Note_on_c, 7, 40, 0
8, 84500, Note_on_c, 7, 31, 88
8, 84920, Note_on_c, 7, 31, 0
8, 84972, Note_on_c, 7, 35, 87
8, 85376, Note_on_c, 7, 35, 0
8, 85440, Note_on_c, 7, 38, 87
8, 85824, Note_on_c, 7, 38, 0
8, 85936, Note_on_c, 7, 40, 87
8, 86344, Note_on_c, 7, 40, 0
8, 86408, Note_on_c, 7, 26, 87
8, 86820, Note_on_c, 7, 26, 0
8, 86892, Note_on_c, 7, 30, 87
8, 87300, Note_on_c, 7, 30, 0
8, 87364, Note_on_c, 7, 33, 88
8, 87780, Note_on_c, 7, 33, 0
8, 87848, Note_on_c, 7, 35, 88
8, 88264, Note_on_c, 7, 35, 0
8, 88328, Note_on_c, 7, 38, 87
8, 88780, Note_on_c, 7, 38, 0
8, 88820, Note_on_c, 7, 35, 88
8, 89232, Note_on_c, 7, 35, 0
8, 89300, Note_on_c, 7, 33, 87
8, 89724, Note_on_c, 7, 33, 0
8, 89772, Note_on_c, 7, 30, 87
8, 90132, Note_on_c, 7, 30, 0
8, 90252, Note_on_c, 7, 33, 87
8, 90656, Note_on_c, 7, 33, 0
8, 90732, Note_on_c, 7, 37, 84
8, 91128, Note_on_c, 7, 37, 0
8, 91200, Note_on_c, 7, 40, 88
8, 91628, Note_on_c, 7, 40, 0
8, 91696, Note_on_c, 7, 42, 87
8, 91984, Note_on_c, 7, 42, 0
8, 92164, Note_on_c, 7, 31, 88
8, 92560, Note_on_c, 7, 31, 0
8, 92640, Note_on_c, 7, 35, 87
8, 93064, Note_on_c, 7, 35, 0
8, 93156, Note_on_c, 7, 38, 87
8, 93516, Note_on_c, 7, 38, 0
8, 93604, Note_on_c, 7, 40, 86
8, 93964, Note_on_c, 7, 40, 0
8, 94088, Note_on_c, 7, 26, 85
8, 94468, Note_on_c, 7, 26, 0
8, 94556, Note_on_c, 7, 30, 87
8, 94936, Note_on_c, 7, 30, 0
8, 95004, Note_on_c, 7, 29, 87
8, 95404, Note_on_c, 7, 29, 0
8, 95484, Note_on_c, 7, 28, 87
8, 95536, Note_on_c, 7, 40, 27
8, 95952, Note_on_c, 7, 28, 0
8, 96024, Note_on_c, 7, 38, 88
8, 96208, Note_on_c, 7, 40, 0
8, 96224, Note_on_c, 7, 38, 0
8, 96456, Note_on_c, 7, 43, 88
8, 96712, Note_on_c, 7, 43, 0
8, 96772, Note_on_c, 7, 45, 88
8, 97600, Note_on_c, 7, 45, 0
8, 97924, Note_on_c, 7, 26, 87
8, 98324, Note_on_c, 7, 26, 0
8, 98392, Note_on_c, 7, 30, 87
8, 98804, Note_on_c, 7, 30, 0
8, 98888, Note_on_c, 7, 33, 88
8, 99288, Note_on_c, 7, 33, 0
8, 99348, Note_on_c, 7, 35, 88
8, 99752, Note_on_c, 7, 35, 0
8, 99820, Note_on_c, 7, 31, 88
8, 100240, Note_on_c, 7, 31, 0
8, 100320, Note_on_c, 7, 35, 88
8, 100744, Note_on_c, 7, 35, 0
8, 100796, Note_on_c, 7, 35, 87
8, 100840, Note_on_c, 7, 35, 0
8, 100844, Note_on_c, 7, 38, 87
8, 101204, Note_on_c, 7, 38, 0
8, 101276, Note_on_c, 7, 40, 86
8, 101648, Note_on_c, 7, 40, 0
8, 101756, Note_on_c, 7, 26, 87
8, 102176, Note_on_c, 7, 26, 0
8, 102240, Note_on_c, 7, 30, 87
8, 102648, Note_on_c, 7, 30, 0
8, 102720, Note_on_c, 7, 33, 88
8, 103128, Note_on_c, 7, 33, 0
8, 103192, Note_on_c, 7, 35, 88
8, 103612, Note_on_c, 7, 35, 0
8, 103676, Note_on_c, 7, 38, 87
8, 104108, Note_on_c, 7, 38, 0
8, 104168, Note_on_c, 7, 35, 88
8, 104564, Note_on_c, 7, 35, 0
8, 104644, Note_on_c, 7, 33, 88
8, 105100, Note_on_c, 7, 33, 0
8, 105132, Note_on_c, 7, 30, 87
8, 105508, Note_on_c, 7, 30, 0
8, 105600, Note_on_c, 7, 31, 88
8, 106024, Note_on_c, 7, 31, 0
8, 106080, Note_on_c, 7, 35, 88
8, 106520, Note_on_c, 7, 35, 0
8, 106572, Note_on_c, 7, 38, 87
8, 106980, Note_on_c, 7, 38, 0
8, 107048, Note_on_c, 7, 40, 86
8, 107480, Note_on_c, 7, 40, 0
8, 107540, Note_on_c, 7, 31, 88
8, 107960, Note_on_c, 7, 31, 0
8, 108012, Note_on_c, 7, 35, 87
8, 108416, Note_on_c, 7, 35, 0
8, 108480, Note_on_c, 7, 38, 87
8, 108864, Note_on_c, 7, 38, 0
8, 108976, Note_on_c, 7, 40, 87
8, 109384, Note_on_c, 7, 40, 0
8, 109448, Note_on_c, 7, 26, 87
8, 109860, Note_on_c, 7, 26, 0
8, 109932, Note_on_c, 7, 30, 87
8, 110340, Note_on_c, 7, 30, 0
8, 110404, Note_on_c, 7, 33, 88
8, 110820, Note_on_c, 7, 33, 0
8, 110888, Note_on_c, 7, 35, 88
8, 111304, Note_on_c, 7, 35, 0
8, 111368, Note_on_c, 7, 38, 87
8, 111820, Note_on_c, 7, 38, 0
8, 111860, Note_on_c, 7, 35, 88
8, 112272, Note_on_c, 7, 35, 0
8, 112340, Note_on_c, 7, 33, 87
8, 112764, Note_on_c, 7, 33, 0
8, 112812, Note_on_c, 7, 30, 87
8, 113172, Note_on_c, 7, 30, 0
8, 113292, Note_on_c, 7, 33, 87
8, 113696, Note_on_c, 7, 33, 0
8, 113772, Note_on_c, 7, 37, 84
8, 114168, Note_on_c, 7, 37, 0
8, 114240, Note_on_c, 7, 40, 88
8, 114668, Note_on_c, 7, 40, 0
8, 114736, Note_on_c, 7, 42, 87
8, 115024, Note_on_c, 7, 42, 0
8, 115204, Note_on_c, 7, 31, 88
8, 115600, Note_on_c, 7, 31, 0
8, 115680, Note_on_c, 7, 35, 87
8, 116104, Note_on_c, 7, 35, 0
8, 116196, Note_on_c, 7, 38, 87
8, 116556, Note_on_c, 7, 38, 0
8, 116644, Note_on_c, 7, 40, 86
8, 117004, Note_on_c, 7, 40, 0
8, 117128, Note_on_c, 7, 26, 85
8, 117508, Note_on_c, 7, 26, 0
8, 117596, Note_on_c, 7, 30, 87
8, 117976, Note_on_c, 7, 30, 0
8, 118044, Note_on_c, 7, 29, 87
8, 118444, Note_on_c, 7, 29, 0
8, 118524, Note_on_c, 7, 28, 87
8, 118576, Note_on_c, 7, 40, 27
8, 118992, Note_on_c, 7, 28, 0
8, 119064, Note_on_c, 7, 38, 88
8, 119248, Note_on_c, 7, 40, 0
8, 119264, Note_on_c, 7, 38, 0
8, 119460, Note_on_c, 7, 30, 88
8, 119716, Note_on_c, 7, 30, 0
8, 119760, Note_on_c, 7, 26, 88
8, 120588, Note_on_c, 7, 26, 0
8, 120588, End_track
9, 0, Start_track
9, 0, MIDI_port, 0
9, 0, Control_c, 8, 91, 99
9, 0, Control_c, 8, 93, 79
9, 0, Control_c, 8, 121, 0
9, 1, Control_c, 8, 32, 0
9, 18, Control_c, 8, 101, 0
9, 18, Control_c, 8, 100, 0
9, 18, Control_c, 8, 6, 12
9, 18, Control_c, 8, 38, 0
9, 21, Control_c, 8, 11, 127
9, 522, Program_c, 8, 1
9, 523, Control_c, 8, 7, 120
9, 523, Control_c, 8, 10, 68
9, 5804, Note_on_c, 8, 62, 73
9, 5808, Note_on_c, 8, 66, 69
9, 5808, Note_on_c, 8, 69, 59
9, 5940, Note_on_c, 8, 66, 0
9, 5956, Note_on_c, 8, 69, 0
9, 5972, Note_on_c, 8, 66, 61
9, 6072, Note_on_c, 8, 66, 0
9, 6108, Note_on_c, 8, 69, 58
9, 6112, Note_on_c, 8, 66, 71
9, 6216, Note_on_c, 8, 62, 0
9, 6240, Note_on_c, 8, 66, 0
9, 6240, Note_on_c, 8, 62, 74
9, 6248, Note_on_c, 8, 66, 75
9, 6252, Note_on_c, 8, 69, 0
9, 6260, Note_on_c, 8, 69, 74
9, 6368, Note_on_c, 8, 66, 0
9, 6404, Note_on_c, 8, 69, 0
9, 6420, Note_on_c, 8, 66, 69
9, 6428, Note_on_c, 8, 69, 62
9, 6448, Note_on_c, 8, 50, 23
9, 6536, Note_on_c, 8, 69, 0
9, 6540, Note_on_c, 8, 66, 0
9, 6552, Note_on_c, 8, 66, 73
9, 6564, Note_on_c, 8, 69, 72
9, 6700, Note_on_c, 8, 69, 0
9, 6724, Note_on_c, 8, 69, 74
9, 6852, Note_on_c, 8, 66, 0
9, 6892, Note_on_c, 8, 66, 74
9, 6996, Note_on_c, 8, 66, 0
9, 7016, Note_on_c, 8, 69, 0
9, 7032, Note_on_c, 8, 66, 73
9, 7040, Note_on_c, 8, 69, 70
9, 7180, Note_on_c, 8, 66, 0
9, 7184, Note_on_c, 8, 69, 0
9, 7200, Note_on_c, 8, 66, 74
9, 7204, Note_on_c, 8, 69, 74
9, 7220, Note_on_c, 8, 50, 0
9, 7344, Note_on_c, 8, 66, 0
9, 7364, Note_on_c, 8, 66, 73
9, 7368, Note_on_c, 8, 69, 0
9, 7372, Note_on_c, 8, 69, 73
9, 7468, Note_on_c, 8, 66, 0
9, 7504, Note_on_c, 8, 66, 74
9, 7512, Note_on_c, 8, 69, 0
9, 7520, Note_on_c, 8, 69, 74
9, 7540, Note_on_c, 8, 62, 0
9, 7556, Note_on_c, 8, 66, 0
9, 7572, Note_on_c, 8, 60, 30
9, 7664, Note_on_c, 8, 69, 0
9, 7672, Note_on_c, 8, 67, 74
9, 7676, Note_on_c, 8, 67, 0
9, 7676, Note_on_c, 8, 67, 74
9, 7688, Note_on_c, 8, 60, 0
9, 7692, Note_on_c, 8, 67, 0
9, 7692, Note_on_c, 8, 61, 32
9, 7696, Note_on_c, 8, 71, 74
9, 7832, Note_on_c, 8, 71, 0
9, 7836, Note_on_c, 8, 67, 73
9, 7844, Note_on_c, 8, 71, 72
9, 7928, Note_on_c, 8, 61, 0
9, 7928, Note_on_c, 8, 62, 28
9, 7964, Note_on_c, 8, 67, 0
9, 7976, Note_on_c, 8, 67, 74
9, 7980, Note_on_c, 8, 71, 0
9, 7992, Note_on_c, 8, 71, 72
9, 8136, Note_on_c, 8, 67, 0
9, 8144, Note_on_c, 8, 71, 0
9, 8144, Note_on_c, 8, 67, 75
9, 8156, Note_on_c, 8, 71, 74
9, 8292, Note_on_c, 8, 67, 0
9, 8320, Note_on_c, 8, 71, 0
9, 8320, Note_on_c, 8, 67, 75
9, 8328, Note_on_c, 8, 71, 74
9, 8460, Note_on_c, 8, 67, 0
9, 8472, Note_on_c, 8, 67, 75
9, 8552, Note_on_c, 8, 62, 0
9, 8552, Note_on_c, 8, 61, 23
9, 8628, Note_on_c, 8, 71, 0
9, 8640, Note_on_c, 8, 71, 75
9, 8656, Note_on_c, 8, 61, 0
9, 8808, Note_on_c, 8, 71, 0
9, 8820, Note_on_c, 8, 71, 73
9, 8956, Note_on_c, 8, 71, 0
9, 8976, Note_on_c, 8, 71, 74
9, 9088, Note_on_c, 8, 60, 18
9, 9116, Note_on_c, 8, 71, 0
9, 9116, Note_on_c, 8, 67, 0
9, 9128, Note_on_c, 8, 67, 75
9, 9136, Note_on_c, 8, 71, 75
9, 9284, Note_on_c, 8, 67, 0
9, 9296, Note_on_c, 8, 71, 0
9, 9304, Note_on_c, 8, 67, 74
9, 9312, Note_on_c, 8, 71, 74
9, 9428, Note_on_c, 8, 67, 0
9, 9444, Note_on_c, 8, 67, 75
9, 9520, Note_on_c, 8, 71, 0
9, 9564, Note_on_c, 8, 69, 32
9, 9572, Note_on_c, 8, 60, 0
9, 9588, Note_on_c, 8, 69, 0
9, 9588, Note_on_c, 8, 60, 74
9, 9592, Note_on_c, 8, 67, 0
9, 9608, Note_on_c, 8, 64, 75
9, 9616, Note_on_c, 8, 56, 23
9, 9616, Note_on_c, 8, 69, 74
9, 9624, Note_on_c, 8, 56, 0
9, 9656, Note_on_c, 8, 60, 0
9, 9656, Note_on_c, 8, 62, 74
9, 9660, Note_on_c, 8, 64, 0
9, 9660, Note_on_c, 8, 66, 70
9, 9744, Note_on_c, 8, 66, 0
9, 9764, Note_on_c, 8, 66, 73
9, 9768, Note_on_c, 8, 69, 0
9, 9776, Note_on_c, 8, 69, 72
9, 9880, Note_on_c, 8, 66, 0
9, 9900, Note_on_c, 8, 69, 0
9, 9916, Note_on_c, 8, 66, 75
9, 9924, Note_on_c, 8, 69, 74
9, 10048, Note_on_c, 8, 62, 0
9, 10052, Note_on_c, 8, 66, 0
9, 10068, Note_on_c, 8, 62, 73
9, 10076, Note_on_c, 8, 66, 75
9, 10080, Note_on_c, 8, 69, 0
9, 10088, Note_on_c, 8, 69, 74
9, 10220, Note_on_c, 8, 66, 0
9, 10248, Note_on_c, 8, 66, 74
9, 10368, Note_on_c, 8, 66, 0
9, 10396, Note_on_c, 8, 66, 75
9, 10404, Note_on_c, 8, 69, 0
9, 10412, Note_on_c, 8, 69, 74
9, 10536, Note_on_c, 8, 66, 0
9, 10552, Note_on_c, 8, 69, 0
9, 10572, Note_on_c, 8, 66, 75
9, 10572, Note_on_c, 8, 66, 73
9, 10573, Note_on_c, 8, 66, 0
9, 10600, Note_on_c, 8, 66, 0
9, 10600, Note_on_c, 8, 69, 74
9, 10752, Note_on_c, 8, 66, 75
9, 10860, Note_on_c, 8, 66, 0
9, 10888, Note_on_c, 8, 66, 75
9, 10896, Note_on_c, 8, 69, 0
9, 10908, Note_on_c, 8, 69, 73
9, 11036, Note_on_c, 8, 69, 0
9, 11044, Note_on_c, 8, 66, 0
9, 11056, Note_on_c, 8, 66, 75
9, 11064, Note_on_c, 8, 69, 74
9, 11200, Note_on_c, 8, 70, 23
9, 11208, Note_on_c, 8, 69, 0
9, 11212, Note_on_c, 8, 66, 0
9, 11252, Note_on_c, 8, 69, 73
9, 11256, Note_on_c, 8, 66, 74
9, 11312, Note_on_c, 8, 69, 0
9, 11312, Note_on_c, 8, 70, 0
9, 11312, Note_on_c, 8, 69, 23
9, 11356, Note_on_c, 8, 66, 0
9, 11368, Note_on_c, 8, 66, 75
9, 11372, Note_on_c, 8, 69, 0
9, 11396, Note_on_c, 8, 69, 74
9, 11452, Note_on_c, 8, 69, 0
9, 11508, Note_on_c, 8, 66, 0
9, 11532, Note_on_c, 8, 66, 75
9, 11536, Note_on_c, 8, 67, 73
9, 11556, Note_on_c, 8, 67, 0
9, 11556, Note_on_c, 8, 69, 74
9, 11672, Note_on_c, 8, 66, 0
9, 11692, Note_on_c, 8, 69, 0
9, 11704, Note_on_c, 8, 66, 75
9, 11716, Note_on_c, 8, 69, 73
9, 11828, Note_on_c, 8, 66, 0
9, 11840, Note_on_c, 8, 69, 0
9, 11860, Note_on_c, 8, 66, 75
9, 11868, Note_on_c, 8, 69, 73
9, 11996, Note_on_c, 8, 66, 0
9, 12016, Note_on_c, 8, 66, 75
9, 12020, Note_on_c, 8, 69, 0
9, 12028, Note_on_c, 8, 69, 74
9, 12116, Note_on_c, 8, 62, 0
9, 12152, Note_on_c, 8, 66, 0
9, 12164, Note_on_c, 8, 69, 0
9, 12176, Note_on_c, 8, 66, 75
9, 12200, Note_on_c, 8, 69, 74
9, 12328, Note_on_c, 8, 69, 0
9, 12344, Note_on_c, 8, 69, 73
9, 12468, Note_on_c, 8, 66, 0
9, 12488, Note_on_c, 8, 66, 75
9, 12596, Note_on_c, 8, 68, 28
9, 12632, Note_on_c, 8, 66, 0
9, 12644, Note_on_c, 8, 66, 75
9, 12652, Note_on_c, 8, 68, 0
9, 12652, Note_on_c, 8, 69, 0
9, 12652, Note_on_c, 8, 70, 28
9, 12664, Note_on_c, 8, 69, 75
9, 12672, Note_on_c, 8, 70, 0
9, 12784, Note_on_c, 8, 69, 0
9, 12784, Note_on_c, 8, 66, 0
9, 12796, Note_on_c, 8, 66, 74
9, 12820, Note_on_c, 8, 69, 73
9, 12940, Note_on_c, 8, 66, 0
9, 12956, Note_on_c, 8, 69, 0
9, 12968, Note_on_c, 8, 66, 74
9, 12976, Note_on_c, 8, 69, 74
9, 13092, Note_on_c, 8, 66, 0
9, 13128, Note_on_c, 8, 66, 74
9, 13136, Note_on_c, 8, 69, 0
9, 13136, Note_on_c, 8, 57, 28
9, 13148, Note_on_c, 8, 69, 74
9, 13248, Note_on_c, 8, 66, 0
9, 13280, Note_on_c, 8, 66, 75
9, 13324, Note_on_c, 8, 66, 0
9, 13368, Note_on_c, 8, 57, 0
9, 13372, Note_on_c, 8, 64, 63
9, 13420, Note_on_c, 8, 64, 0
9, 13436, Note_on_c, 8, 61, 74
9, 13440, Note_on_c, 8, 67, 75
9, 13448, Note_on_c, 8, 69, 0
9, 13452, Note_on_c, 8, 71, 74
9, 13468, Note_on_c, 8, 61, 0
9, 13480, Note_on_c, 8, 62, 57
9, 13576, Note_on_c, 8, 67, 0
9, 13604, Note_on_c, 8, 71, 0
9, 13612, Note_on_c, 8, 67, 75
9, 13620, Note_on_c, 8, 71, 74
9, 13736, Note_on_c, 8, 67, 0
9, 13752, Note_on_c, 8, 71, 0
9, 13752, Note_on_c, 8, 67, 75
9, 13760, Note_on_c, 8, 71, 74
9, 13912, Note_on_c, 8, 71, 0
9, 13928, Note_on_c, 8, 71, 75
9, 14096, Note_on_c, 8, 71, 0
9, 14108, Note_on_c, 8, 71, 74
9, 14240, Note_on_c, 8, 71, 0
9, 14244, Note_on_c, 8, 67, 0
9, 14256, Note_on_c, 8, 67, 75
9, 14256, Note_on_c, 8, 76, 73
9, 14276, Note_on_c, 8, 76, 0
9, 14276, Note_on_c, 8, 71, 74
9, 14380, Note_on_c, 8, 62, 0
9, 14408, Note_on_c, 8, 62, 74
9, 14416, Note_on_c, 8, 67, 0
9, 14416, Note_on_c, 8, 55, 43
9, 14428, Note_on_c, 8, 71, 0
9, 14428, Note_on_c, 8, 67, 75
9, 14436, Note_on_c, 8, 71, 74
9, 14576, Note_on_c, 8, 67, 0
9, 14584, Note_on_c, 8, 71, 0
9, 14584, Note_on_c, 8, 67, 75
9, 14596, Note_on_c, 8, 71, 75
9, 14724, Note_on_c, 8, 67, 0
9, 14744, Note_on_c, 8, 67, 75
9, 14888, Note_on_c, 8, 71, 0
9, 14896, Note_on_c, 8, 67, 0
9, 14908, Note_on_c, 8, 67, 75
9, 14916, Note_on_c, 8, 71, 75
9, 15048, Note_on_c, 8, 67, 0
9, 15076, Note_on_c, 8, 71, 0
9, 15088, Note_on_c, 8, 67, 75
9, 15096, Note_on_c, 8, 71, 74
9, 15188, Note_on_c, 8, 67, 0
9, 15220, Note_on_c, 8, 71, 0
9, 15228, Note_on_c, 8, 67, 75
9, 15236, Note_on_c, 8, 71, 70
9, 15364, Note_on_c, 8, 67, 0
9, 15376, Note_on_c, 8, 67, 74
9, 15388, Note_on_c, 8, 71, 0
9, 15396, Note_on_c, 8, 71, 74
9, 15532, Note_on_c, 8, 71, 0
9, 15536, Note_on_c, 8, 67, 0
9, 15548, Note_on_c, 8, 67, 75
9, 15556, Note_on_c, 8, 71, 73
9, 15668, Note_on_c, 8, 67, 0
9, 15704, Note_on_c, 8, 67, 75
9, 15832, Note_on_c, 8, 67, 0
9, 15860, Note_on_c, 8, 71, 0
9, 15868, Note_on_c, 8, 71, 75
9, 15872, Note_on_c, 8, 67, 75
9, 16000, Note_on_c, 8, 67, 0
9, 16020, Note_on_c, 8, 67, 75
9, 16024, Note_on_c, 8, 71, 0
9, 16032, Note_on_c, 8, 71, 74
9, 16136, Note_on_c, 8, 67, 0
9, 16160, Note_on_c, 8, 71, 0
9, 16172, Note_on_c, 8, 67, 75
9, 16184, Note_on_c, 8, 71, 72
9, 16320, Note_on_c, 8, 67, 0
9, 16332, Note_on_c, 8, 67, 74
9, 16344, Note_on_c, 8, 71, 0
9, 16352, Note_on_c, 8, 71, 74
9, 16480, Note_on_c, 8, 67, 0
9, 16496, Note_on_c, 8, 71, 0
9, 16504, Note_on_c, 8, 67, 75
9, 16512, Note_on_c, 8, 71, 73
9, 16616, Note_on_c, 8, 67, 0
9, 16628, Note_on_c, 8, 71, 0
9, 16644, Note_on_c, 8, 67, 75
9, 16668, Note_on_c, 8, 71, 72
9, 16800, Note_on_c, 8, 67, 0
9, 16820, Note_on_c, 8, 67, 75
9, 16824, Note_on_c, 8, 71, 0
9, 16832, Note_on_c, 8, 71, 74
9, 16844, Note_on_c, 8, 62, 0
9, 16956, Note_on_c, 8, 67, 0
9, 16984, Note_on_c, 8, 67, 75
9, 17116, Note_on_c, 8, 67, 0
9, 17128, Note_on_c, 8, 67, 75
9, 17216, Note_on_c, 8, 67, 0
9, 17240, Note_on_c, 8, 71, 0
9, 17240, Note_on_c, 8, 69, 37
9, 17244, Note_on_c, 8, 64, 58
9, 17252, Note_on_c, 8, 60, 40
9, 17260, Note_on_c, 8, 60, 0
9, 17264, Note_on_c, 8, 64, 0
9, 17264, Note_on_c, 8, 55, 0
9, 17284, Note_on_c, 8, 69, 0
9, 17304, Note_on_c, 8, 64, 74
9, 17304, Note_on_c, 8, 56, 40
9, 17304, Note_on_c, 8, 69, 74
9, 17332, Note_on_c, 8, 64, 0
9, 17332, Note_on_c, 8, 66, 75
9, 17440, Note_on_c, 8, 66, 0
9, 17452, Note_on_c, 8, 66, 75
9, 17464, Note_on_c, 8, 69, 0
9, 17472, Note_on_c, 8, 69, 72
9, 17588, Note_on_c, 8, 66, 0
9, 17616, Note_on_c, 8, 69, 0
9, 17616, Note_on_c, 8, 66, 75
9, 17624, Note_on_c, 8, 69, 74
9, 17648, Note_on_c, 8, 56, 0
9, 17760, Note_on_c, 8, 69, 0
9, 17764, Note_on_c, 8, 66, 0
9, 17780, Note_on_c, 8, 66, 75
9, 17784, Note_on_c, 8, 69, 73
9, 17924, Note_on_c, 8, 66, 0
9, 17944, Note_on_c, 8, 69, 0
9, 17956, Note_on_c, 8, 66, 75
9, 17976, Note_on_c, 8, 69, 74
9, 18084, Note_on_c, 8, 69, 0
9, 18084, Note_on_c, 8, 66, 0
9, 18104, Note_on_c, 8, 66, 75
9, 18112, Note_on_c, 8, 69, 74
9, 18236, Note_on_c, 8, 66, 0
9, 18264, Note_on_c, 8, 66, 75
9, 18272, Note_on_c, 8, 69, 0
9, 18280, Note_on_c, 8, 69, 73
9, 18408, Note_on_c, 8, 62, 56
9, 18420, Note_on_c, 8, 66, 0
9, 18432, Note_on_c, 8, 69, 0
9, 18440, Note_on_c, 8, 66, 75
9, 18448, Note_on_c, 8, 69, 70
9, 18528, Note_on_c, 8, 70, 28
9, 18544, Note_on_c, 8, 66, 0
9, 18548, Note_on_c, 8, 62, 0
9, 18560, Note_on_c, 8, 62, 74
9, 18588, Note_on_c, 8, 69, 0
9, 18588, Note_on_c, 8, 66, 75
9, 18604, Note_on_c, 8, 69, 72
9, 18732, Note_on_c, 8, 69, 0
9, 18732, Note_on_c, 8, 66, 0
9, 18744, Note_on_c, 8, 66, 75
9, 18752, Note_on_c, 8, 69, 74
9, 18824, Note_on_c, 8, 70, 0
9, 18824, Note_on_c, 8, 67, 28
9, 18896, Note_on_c, 8, 66, 0
9, 18904, Note_on_c, 8, 66, 75
9, 18908, Note_on_c, 8, 69, 0
9, 18928, Note_on_c, 8, 69, 74
9, 19044, Note_on_c, 8, 66, 0
9, 19056, Note_on_c, 8, 66, 75
9, 19100, Note_on_c, 8, 67, 0
9, 19204, Note_on_c, 8, 69, 0
9, 19236, Note_on_c, 8, 69, 75
9, 19356, Note_on_c, 8, 66, 0
9, 19372, Note_on_c, 8, 69, 0
9, 19384, Note_on_c, 8, 66, 75
9, 19396, Note_on_c, 8, 69, 65
9, 19496, Note_on_c, 8, 66, 0
9, 19512, Note_on_c, 8, 69, 0
9, 19540, Note_on_c, 8, 66, 75
9, 19544, Note_on_c, 8, 69, 73
9, 19664, Note_on_c, 8, 66, 0
9, 19684, Note_on_c, 8, 69, 0
9, 19696, Note_on_c, 8, 66, 75
9, 19700, Note_on_c, 8, 76, 72
9, 19728, Note_on_c, 8, 76, 0
9, 19728, Note_on_c, 8, 69, 74
9, 19824, Note_on_c, 8, 66, 0
9, 19856, Note_on_c, 8, 69, 0
9, 19868, Note_on_c, 8, 66, 75
9, 19884, Note_on_c, 8, 69, 74
9, 19992, Note_on_c, 8, 66, 0
9, 20008, Note_on_c, 8, 69, 0
9, 20020, Note_on_c, 8, 66, 75
9, 20032, Note_on_c, 8, 69, 74
9, 20176, Note_on_c, 8, 66, 0
9, 20196, Note_on_c, 8, 66, 75
9, 20204, Note_on_c, 8, 69, 0
9, 20224, Note_on_c, 8, 69, 73
9, 20356, Note_on_c, 8, 66, 0
9, 20368, Note_on_c, 8, 66, 75
9, 20372, Note_on_c, 8, 69, 0
9, 20380, Note_on_c, 8, 69, 73
9, 20504, Note_on_c, 8, 66, 0
9, 20516, Note_on_c, 8, 66, 75
9, 20524, Note_on_c, 8, 69, 0
9, 20540, Note_on_c, 8, 69, 73
9, 20676, Note_on_c, 8, 66, 0
9, 20688, Note_on_c, 8, 66, 75
9, 20692, Note_on_c, 8, 69, 0
9, 20712, Note_on_c, 8, 69, 74
9, 20840, Note_on_c, 8, 66, 0
9, 20852, Note_on_c, 8, 66, 75
9, 20856, Note_on_c, 8, 69, 0
9, 20868, Note_on_c, 8, 69, 74
9, 20996, Note_on_c, 8, 66, 0
9, 21012, Note_on_c, 8, 69, 0
9, 21016, Note_on_c, 8, 64, 74
9, 21024, Note_on_c, 8, 69, 74
9, 21068, Note_on_c, 8, 62, 0
9, 21072, Note_on_c, 8, 60, 23
9, 21128, Note_on_c, 8, 60, 0
9, 21140, Note_on_c, 8, 57, 34
9, 21152, Note_on_c, 8, 50, 30
9, 21156, Note_on_c, 8, 64, 0
9, 21156, Note_on_c, 8, 61, 74
9, 21172, Note_on_c, 8, 64, 75
9, 21220, Note_on_c, 8, 50, 0
9, 21220, Note_on_c, 8, 52, 28
9, 21328, Note_on_c, 8, 64, 0
9, 21336, Note_on_c, 8, 64, 75
9, 21340, Note_on_c, 8, 69, 0
9, 21360, Note_on_c, 8, 69, 73
9, 21468, Note_on_c, 8, 64, 0
9, 21476, Note_on_c, 8, 69, 0
9, 21484, Note_on_c, 8, 64, 75
9, 21488, Note_on_c, 8, 69, 74
9, 21608, Note_on_c, 8, 64, 0
9, 21636, Note_on_c, 8, 69, 0
9, 21644, Note_on_c, 8, 69, 74
9, 21644, Note_on_c, 8, 64, 75
9, 21784, Note_on_c, 8, 64, 0
9, 21796, Note_on_c, 8, 69, 0
9, 21796, Note_on_c, 8, 64, 75
9, 21812, Note_on_c, 8, 69, 74
9, 21820, Note_on_c, 8, 50, 23
9, 21932, Note_on_c, 8, 64, 0
9, 21940, Note_on_c, 8, 64, 75
9, 21948, Note_on_c, 8, 69, 0
9, 21956, Note_on_c, 8, 69, 74
9, 22100, Note_on_c, 8, 69, 0
9, 22108, Note_on_c, 8, 69, 74
9, 22240, Note_on_c, 8, 64, 0
9, 22260, Note_on_c, 8, 64, 74
9, 22268, Note_on_c, 8, 69, 0
9, 22276, Note_on_c, 8, 69, 74
9, 22388, Note_on_c, 8, 64, 0
9, 22400, Note_on_c, 8, 64, 75
9, 22416, Note_on_c, 8, 69, 0
9, 22424, Note_on_c, 8, 69, 72
9, 22560, Note_on_c, 8, 64, 0
9, 22568, Note_on_c, 8, 64, 75
9, 22576, Note_on_c, 8, 69, 0
9, 22616, Note_on_c, 8, 69, 75
9, 22628, Note_on_c, 8, 50, 0
9, 22716, Note_on_c, 8, 64, 0
9, 22732, Note_on_c, 8, 64, 75
9, 22736, Note_on_c, 8, 69, 0
9, 22752, Note_on_c, 8, 69, 74
9, 22848, Note_on_c, 8, 69, 0
9, 22884, Note_on_c, 8, 69, 73
9, 22896, Note_on_c, 8, 52, 0
9, 22904, Note_on_c, 8, 57, 0
9, 22936, Note_on_c, 8, 55, 28
9, 22940, Note_on_c, 8, 50, 23
9, 22952, Note_on_c, 8, 55, 0
9, 22968, Note_on_c, 8, 61, 0
9, 22968, Note_on_c, 8, 60, 40
9, 23032, Note_on_c, 8, 64, 0
9, 23048, Note_on_c, 8, 69, 0
9, 23064, Note_on_c, 8, 71, 74
9, 23064, Note_on_c, 8, 67, 75
9, 23072, Note_on_c, 8, 60, 0
9, 23088, Note_on_c, 8, 61, 34
9, 23192, Note_on_c, 8, 67, 0
9, 23196, Note_on_c, 8, 51, 30
9, 23200, Note_on_c, 8, 67, 75
9, 23208, Note_on_c, 8, 71, 0
9, 23224, Note_on_c, 8, 71, 72
9, 23232, Note_on_c, 8, 61, 0
9, 23232, Note_on_c, 8, 62, 32
9, 23360, Note_on_c, 8, 71, 0
9, 23384, Note_on_c, 8, 71, 74
9, 23484, Note_on_c, 8, 50, 0
9, 23508, Note_on_c, 8, 67, 0
9, 23516, Note_on_c, 8, 71, 0
9, 23524, Note_on_c, 8, 67, 75
9, 23528, Note_on_c, 8, 71, 74
9, 23660, Note_on_c, 8, 67, 0
9, 23688, Note_on_c, 8, 67, 74
9, 23692, Note_on_c, 8, 71, 0
9, 23712, Note_on_c, 8, 71, 73
9, 23828, Note_on_c, 8, 67, 0
9, 23840, Note_on_c, 8, 71, 0
9, 23848, Note_on_c, 8, 67, 75
9, 23856, Note_on_c, 8, 71, 73
9, 24008, Note_on_c, 8, 67, 0
9, 24020, Note_on_c, 8, 67, 75
9, 24172, Note_on_c, 8, 67, 0
9, 24184, Note_on_c, 8, 71, 0
9, 24184, Note_on_c, 8, 67, 75
9, 24196, Note_on_c, 8, 71, 73
9, 24320, Note_on_c, 8, 67, 0
9, 24336, Note_on_c, 8, 71, 0
9, 24336, Note_on_c, 8, 67, 75
9, 24348, Note_on_c, 8, 71, 67
9, 24504, Note_on_c, 8, 71, 0
9, 24520, Note_on_c, 8, 71, 75
9, 24588, Note_on_c, 8, 51, 0
9, 24656, Note_on_c, 8, 67, 0
9, 24676, Note_on_c, 8, 67, 75
9, 24796, Note_on_c, 8, 67, 0
9, 24812, Note_on_c, 8, 71, 0
9, 24824, Note_on_c, 8, 69, 74
9, 24824, Note_on_c, 8, 64, 75
9, 24864, Note_on_c, 8, 62, 0
9, 24868, Note_on_c, 8, 60, 18
9, 24928, Note_on_c, 8, 60, 0
9, 24932, Note_on_c, 8, 56, 43
9, 24936, Note_on_c, 8, 61, 47
9, 24948, Note_on_c, 8, 64, 0
9, 24960, Note_on_c, 8, 69, 0
9, 24972, Note_on_c, 8, 66, 75
9, 24980, Note_on_c, 8, 69, 72
9, 24984, Note_on_c, 8, 61, 0
9, 24988, Note_on_c, 8, 62, 40
9, 25132, Note_on_c, 8, 69, 0
9, 25140, Note_on_c, 8, 69, 73
9, 25176, Note_on_c, 8, 56, 0
9, 25180, Note_on_c, 8, 57, 13
9, 25256, Note_on_c, 8, 66, 0
9, 25268, Note_on_c, 8, 66, 75
9, 25280, Note_on_c, 8, 69, 0
9, 25300, Note_on_c, 8, 69, 65
9, 25400, Note_on_c, 8, 68, 23
9, 25416, Note_on_c, 8, 68, 0
9, 25420, Note_on_c, 8, 69, 0
9, 25420, Note_on_c, 8, 69, 23
9, 25504, Note_on_c, 8, 69, 0
9, 25588, Note_on_c, 8, 66, 0
9, 25612, Note_on_c, 8, 66, 74
9, 25632, Note_on_c, 8, 69, 69
9, 25712, Note_on_c, 8, 66, 0
9, 25740, Note_on_c, 8, 69, 0
9, 25752, Note_on_c, 8, 66, 75
9, 25764, Note_on_c, 8, 69, 72
9, 25908, Note_on_c, 8, 66, 0
9, 25916, Note_on_c, 8, 69, 0
9, 25916, Note_on_c, 8, 66, 75
9, 25928, Note_on_c, 8, 69, 74
9, 26024, Note_on_c, 8, 70, 23
9, 26052, Note_on_c, 8, 66, 0
9, 26068, Note_on_c, 8, 69, 0
9, 26076, Note_on_c, 8, 66, 75
9, 26092, Note_on_c, 8, 69, 66
9, 26212, Note_on_c, 8, 66, 0
9, 26216, Note_on_c, 8, 70, 0
9, 26220, Note_on_c, 8, 66, 75
9, 26232, Note_on_c, 8, 69, 0
9, 26240, Note_on_c, 8, 69, 72
9, 26364, Note_on_c, 8, 69, 0
9, 26400, Note_on_c, 8, 69, 74
9, 26500, Note_on_c, 8, 57, 0
9, 26520, Note_on_c, 8, 66, 0
9, 26544, Note_on_c, 8, 66, 74
9, 26560, Note_on_c, 8, 69, 0
9, 26568, Note_on_c, 8, 69, 68
9, 26628, Note_on_c, 8, 62, 0
9, 26652, Note_on_c, 8, 66, 0
9, 26676, Note_on_c, 8, 69, 0
9, 26688, Note_on_c, 8, 66, 74
9, 26720, Note_on_c, 8, 69, 74
9, 26844, Note_on_c, 8, 66, 0
9, 26860, Note_on_c, 8, 69, 0
9, 26864, Note_on_c, 8, 66, 74
9, 26868, Note_on_c, 8, 60, 18
9, 26872, Note_on_c, 8, 69, 74
9, 27008, Note_on_c, 8, 66, 0
9, 27028, Note_on_c, 8, 66, 75
9, 27048, Note_on_c, 8, 60, 0
9, 27048, Note_on_c, 8, 62, 18
9, 27140, Note_on_c, 8, 62, 0
9, 27148, Note_on_c, 8, 68, 23
9, 27156, Note_on_c, 8, 66, 0
9, 27164, Note_on_c, 8, 69, 0
9, 27176, Note_on_c, 8, 76, 23
9, 27200, Note_on_c, 8, 69, 73
9, 27208, Note_on_c, 8, 64, 74
9, 27264, Note_on_c, 8, 68, 0
9, 27272, Note_on_c, 8, 76, 0
9, 27284, Note_on_c, 8, 69, 0
9, 27300, Note_on_c, 8, 71, 64
9, 27304, Note_on_c, 8, 64, 0
9, 27336, Note_on_c, 8, 71, 0
9, 27348, Note_on_c, 8, 67, 74
9, 27360, Note_on_c, 8, 71, 74
9, 27440, Note_on_c, 8, 52, 32
9, 27500, Note_on_c, 8, 67, 0
9, 27512, Note_on_c, 8, 67, 75
9, 27548, Note_on_c, 8, 71, 0
9, 27584, Note_on_c, 8, 67, 0
9, 27592, Note_on_c, 8, 67, 30
9, 27628, Note_on_c, 8, 52, 0
9, 27632, Note_on_c, 8, 50, 23
9, 27652, Note_on_c, 8, 62, 18
9, 27656, Note_on_c, 8, 66, 75
9, 27680, Note_on_c, 8, 73, 74
9, 27704, Note_on_c, 8, 66, 0
9, 27708, Note_on_c, 8, 69, 75
9, 27712, Note_on_c, 8, 62, 0
9, 27712, Note_on_c, 8, 63, 28
9, 27752, Note_on_c, 8, 63, 0
9, 27752, Note_on_c, 8, 64, 23
9, 27848, Note_on_c, 8, 50, 0
9, 27848, Note_on_c, 8, 45, 30
9, 27928, Note_on_c, 8, 64, 0
9, 27928, Note_on_c, 8, 63, 18
9, 27972, Note_on_c, 8, 63, 0
9, 27972, Note_on_c, 8, 64, 18
9, 28480, Note_on_c, 8, 69, 0
9, 28504, Note_on_c, 8, 64, 0
9, 28512, Note_on_c, 8, 73, 0
9, 28656, Note_on_c, 8, 67, 0
9, 28692, Note_on_c, 8, 45, 0
9, 28844, Note_on_c, 8, 62, 73
9, 28848, Note_on_c, 8, 66, 69
9, 28848, Note_on_c, 8, 69, 59
9, 28980, Note_on_c, 8, 66, 0
9, 28996, Note_on_c, 8, 69, 0
9, 29012, Note_on_c, 8, 66, 61
9, 29112, Note_on_c, 8, 66, 0
9, 29148, Note_on_c, 8, 69, 58
9, 29152, Note_on_c, 8, 66, 71
9, 29256, Note_on_c, 8, 62, 0
9, 29280, Note_on_c, 8, 66, 0
9, 29280, Note_on_c, 8, 62, 74
9, 29288, Note_on_c, 8, 66, 75
9, 29292, Note_on_c, 8, 69, 0
9, 29300, Note_on_c, 8, 69, 74
9, 29408, Note_on_c, 8, 66, 0
9, 29444, Note_on_c, 8, 69, 0
9, 29460, Note_on_c, 8, 66, 69
9, 29468, Note_on_c, 8, 69, 62
9, 29488, Note_on_c, 8, 50, 23
9, 29576, Note_on_c, 8, 69, 0
9, 29580, Note_on_c, 8, 66, 0
9, 29592, Note_on_c, 8, 66, 73
9, 29604, Note_on_c, 8, 69, 72
9, 29740, Note_on_c, 8, 69, 0
9, 29764, Note_on_c, 8, 69, 74
9, 29892, Note_on_c, 8, 66, 0
9, 29932, Note_on_c, 8, 66, 74
9, 30036, Note_on_c, 8, 66, 0
9, 30056, Note_on_c, 8, 69, 0
9, 30072, Note_on_c, 8, 66, 73
9, 30080, Note_on_c, 8, 69, 70
9, 30220, Note_on_c, 8, 66, 0
9, 30224, Note_on_c, 8, 69, 0
9, 30240, Note_on_c, 8, 66, 74
9, 30244, Note_on_c, 8, 69, 74
9, 30260, Note_on_c, 8, 50, 0
9, 30384, Note_on_c, 8, 66, 0
9, 30404, Note_on_c, 8, 66, 73
9, 30408, Note_on_c, 8, 69, 0
9, 30412, Note_on_c, 8, 69, 73
9, 30508, Note_on_c, 8, 66, 0
9, 30544, Note_on_c, 8, 66, 74
9, 30552, Note_on_c, 8, 69, 0
9, 30560, Note_on_c, 8, 69, 74
9, 30580, Note_on_c, 8, 62, 0
9, 30596, Note_on_c, 8, 66, 0
9, 30612, Note_on_c, 8, 60, 30
9, 30704, Note_on_c, 8, 69, 0
9, 30712, Note_on_c, 8, 67, 74
9, 30716, Note_on_c, 8, 67, 0
9, 30716, Note_on_c, 8, 67, 74
9, 30728, Note_on_c, 8, 60, 0
9, 30732, Note_on_c, 8, 67, 0
9, 30732, Note_on_c, 8, 61, 32
9, 30736, Note_on_c, 8, 71, 74
9, 30872, Note_on_c, 8, 71, 0
9, 30876, Note_on_c, 8, 67, 73
9, 30884, Note_on_c, 8, 71, 72
9, 30968, Note_on_c, 8, 61, 0
9, 30968, Note_on_c, 8, 62, 28
9, 31004, Note_on_c, 8, 67, 0
9, 31016, Note_on_c, 8, 67, 74
9, 31020, Note_on_c, 8, 71, 0
9, 31032, Note_on_c, 8, 71, 72
9, 31176, Note_on_c, 8, 67, 0
9, 31184, Note_on_c, 8, 71, 0
9, 31184, Note_on_c, 8, 67, 75
9, 31196, Note_on_c, 8, 71, 74
9, 31332, Note_on_c, 8, 67, 0
9, 31360, Note_on_c, 8, 71, 0
9, 31360, Note_on_c, 8, 67, 75
9, 31368, Note_on_c, 8, 71, 74
9, 31500, Note_on_c, 8, 67, 0
9, 31512, Note_on_c, 8, 67, 75
9, 31592, Note_on_c, 8, 62, 0
9, 31592, Note_on_c, 8, 61, 23
9, 31668, Note_on_c, 8, 71, 0
9, 31680, Note_on_c, 8, 71, 75
9, 31696, Note_on_c, 8, 61, 0
9, 31848, Note_on_c, 8, 71, 0
9, 31860, Note_on_c, 8, 71, 73
9, 31996, Note_on_c, 8, 71, 0
9, 32016, Note_on_c, 8, 71, 74
9, 32128, Note_on_c, 8, 60, 18
9, 32156, Note_on_c, 8, 71, 0
9, 32156, Note_on_c, 8, 67, 0
9, 32168, Note_on_c, 8, 67, 75
9, 32176, Note_on_c, 8, 71, 75
9, 32324, Note_on_c, 8, 67, 0
9, 32336, Note_on_c, 8, 71, 0
9, 32344, Note_on_c, 8, 67, 74
9, 32352, Note_on_c, 8, 71, 74
9, 32468, Note_on_c, 8, 67, 0
9, 32484, Note_on_c, 8, 67, 75
9, 32560, Note_on_c, 8, 71, 0
9, 32604, Note_on_c, 8, 69, 32
9, 32612, Note_on_c, 8, 60, 0
9, 32628, Note_on_c, 8, 69, 0
9, 32628, Note_on_c, 8, 60, 74
9, 32632, Note_on_c, 8, 67, 0
9, 32648, Note_on_c, 8, 64, 75
9, 32656, Note_on_c, 8, 56, 23
9, 32656, Note_on_c, 8, 69, 74
9, 32664, Note_on_c, 8, 56, 0
9, 32696, Note_on_c, 8, 60, 0
9, 32696, Note_on_c, 8, 62, 74
9, 32700, Note_on_c, 8, 64, 0
9, 32700, Note_on_c, 8, 66, 70
9, 32784, Note_on_c, 8, 66, 0
9, 32804, Note_on_c, 8, 66, 73
9, 32808, Note_on_c, 8, 69, 0
9, 32816, Note_on_c, 8, 69, 72
9, 32920, Note_on_c, 8, 66, 0
9, 32940, Note_on_c, 8, 69, 0
9, 32956, Note_on_c, 8, 66, 75
9, 32964, Note_on_c, 8, 69, 74
9, 33088, Note_on_c, 8, 62, 0
9, 33092, Note_on_c, 8, 66, 0
9, 33108, Note_on_c, 8, 62, 73
9, 33116, Note_on_c, 8, 66, 75
9, 33120, Note_on_c, 8, 69, 0
9, 33128, Note_on_c, 8, 69, 74
9, 33260, Note_on_c, 8, 66, 0
9, 33288, Note_on_c, 8, 66, 74
9, 33408, Note_on_c, 8, 66, 0
9, 33436, Note_on_c, 8, 66, 75
9, 33444, Note_on_c, 8, 69, 0
9, 33452, Note_on_c, 8, 69, 74
9, 33576, Note_on_c, 8, 66, 0
9, 33592, Note_on_c, 8, 69, 0
9, 33612, Note_on_c, 8, 66, 75
9, 33612, Note_on_c, 8, 66, 73
9, 33613, Note_on_c, 8, 66, 0
9, 33640, Note_on_c, 8, 66, 0
9, 33640, Note_on_c, 8, 69, 74
9, 33792, Note_on_c, 8, 66, 75
9, 33900, Note_on_c, 8, 66, 0
9, 33928, Note_on_c, 8, 66, 75
9, 33936, Note_on_c, 8, 69, 0
9, 33948, Note_on_c, 8, 69, 73
9, 34076, Note_on_c, 8, 69, 0
9, 34084, Note_on_c, 8, 66, 0
9, 34096, Note_on_c, 8, 66, 75
9, 34104, Note_on_c, 8, 69, 74
9, 34240, Note_on_c, 8, 70, 23
9, 34248, Note_on_c, 8, 69, 0
9, 34252, Note_on_c, 8, 66, 0
9, 34292, Note_on_c, 8, 69, 73
9, 34296, Note_on_c, 8, 66, 74
9, 34352, Note_on_c, 8, 69, 0
9, 34352, Note_on_c, 8, 70, 0
9, 34352, Note_on_c, 8, 69, 23
9, 34396, Note_on_c, 8, 66, 0
9, 34408, Note_on_c, 8, 66, 75
9, 34412, Note_on_c, 8, 69, 0
9, 34436, Note_on_c, 8, 69, 74
9, 34492, Note_on_c, 8, 69, 0
9, 34548, Note_on_c, 8, 66, 0
9, 34572, Note_on_c, 8, 66, 75
9, 34576, Note_on_c, 8, 67, 73
9, 34596, Note_on_c, 8, 67, 0
9, 34596, Note_on_c, 8, 69, 74
9, 34712, Note_on_c, 8, 66, 0
9, 34732, Note_on_c, 8, 69, 0
9, 34744, Note_on_c, 8, 66, 75
9, 34756, Note_on_c, 8, 69, 73
9, 34868, Note_on_c, 8, 66, 0
9, 34880, Note_on_c, 8, 69, 0
9, 34900, Note_on_c, 8, 66, 75
9, 34908, Note_on_c, 8, 69, 73
9, 35036, Note_on_c, 8, 66, 0
9, 35056, Note_on_c, 8, 66, 75
9, 35060, Note_on_c, 8, 69, 0
9, 35068, Note_on_c, 8, 69, 74
9, 35156, Note_on_c, 8, 62, 0
9, 35192, Note_on_c, 8, 66, 0
9, 35204, Note_on_c, 8, 69, 0
9, 35216, Note_on_c, 8, 66, 75
9, 35240, Note_on_c, 8, 69, 74
9, 35368, Note_on_c, 8, 69, 0
9, 35384, Note_on_c, 8, 69, 73
9, 35508, Note_on_c, 8, 66, 0
9, 35528, Note_on_c, 8, 66, 75
9, 35636, Note_on_c, 8, 68, 28
9, 35672, Note_on_c, 8, 66, 0
9, 35684, Note_on_c, 8, 66, 75
9, 35692, Note_on_c, 8, 68, 0
9, 35692, Note_on_c, 8, 69, 0
9, 35692, Note_on_c, 8, 70, 28
9, 35704, Note_on_c, 8, 69, 75
9, 35712, Note_on_c, 8, 70, 0
9, 35824, Note_on_c, 8, 69, 0
9, 35824, Note_on_c, 8, 66, 0
9, 35836, Note_on_c, 8, 66, 74
9, 35860, Note_on_c, 8, 69, 73
9, 35980, Note_on_c, 8, 66, 0
9, 35996, Note_on_c, 8, 69, 0
9, 36008, Note_on_c, 8, 66, 74
9, 36016, Note_on_c, 8, 69, 74
9, 36132, Note_on_c, 8, 66, 0
9, 36168, Note_on_c, 8, 66, 74
9, 36176, Note_on_c, 8, 69, 0
9, 36176, Note_on_c, 8, 57, 28
9, 36188, Note_on_c, 8, 69, 74
9, 36288, Note_on_c, 8, 66, 0
9, 36320, Note_on_c, 8, 66, 75
9, 36364, Note_on_c, 8, 66, 0
9, 36408, Note_on_c, 8, 57, 0
9, 36412, Note_on_c, 8, 64, 63
9, 36460, Note_on_c, 8, 64, 0
9, 36476, Note_on_c, 8, 61, 74
9, 36480, Note_on_c, 8, 67, 75
9, 36488, Note_on_c, 8, 69, 0
9, 36492, Note_on_c, 8, 71, 74
9, 36508, Note_on_c, 8, 61, 0
9, 36520, Note_on_c, 8, 62, 57
9, 36616, Note_on_c, 8, 67, 0
9, 36644, Note_on_c, 8, 71, 0
9, 36652, Note_on_c, 8, 67, 75
9, 36660, Note_on_c, 8, 71, 74
9, 36776, Note_on_c, 8, 67, 0
9, 36792, Note_on_c, 8, 71, 0
9, 36792, Note_on_c, 8, 67, 75
9, 36800, Note_on_c, 8, 71, 74
9, 36952, Note_on_c, 8, 71, 0
9, 36968, Note_on_c, 8, 71, 75
9, 37136, Note_on_c, 8, 71, 0
9, 37148, Note_on_c, 8, 71, 74
9, 37280, Note_on_c, 8, 71, 0
9, 37284, Note_on_c, 8, 67, 0
9, 37296, Note_on_c, 8, 67, 75
9, 37296, Note_on_c, 8, 76, 73
9, 37316, Note_on_c, 8, 76, 0
9, 37316, Note_on_c, 8, 71, 74
9, 37420, Note_on_c, 8, 62, 0
9, 37448, Note_on_c, 8, 62, 74
9, 37456, Note_on_c, 8, 67, 0
9, 37456, Note_on_c, 8, 55, 43
9, 37468, Note_on_c, 8, 71, 0
9, 37468, Note_on_c, 8, 67, 75
9, 37476, Note_on_c, 8, 71, 74
9, 37616, Note_on_c, 8, 67, 0
9, 37624, Note_on_c, 8, 71, 0
9, 37624, Note_on_c, 8, 67, 75
9, 37636, Note_on_c, 8, 71, 75
9, 37764, Note_on_c, 8, 67, 0
9, 37784, Note_on_c, 8, 67, 75
9, 37928, Note_on_c, 8, 71, 0
9, 37936, Note_on_c, 8, 67, 0
9, 37948, Note_on_c, 8, 67, 75
9, 37956, Note_on_c, 8, 71, 75
9, 38088, Note_on_c, 8, 67, 0
9, 38116, Note_on_c, 8, 71, 0
9, 38128, Note_on_c, 8, 67, 75
9, 38136, Note_on_c, 8, 71, 74
9, 38228, Note_on_c, 8, 67, 0
9, 38260, Note_on_c, 8, 71, 0
9, 38268, Note_on_c, 8, 67, 75
9, 38276, Note_on_c, 8, 71, 70
9, 38404, Note_on_c, 8, 67, 0
9, 38416, Note_on_c, 8, 67, 74
9, 38428, Note_on_c, 8, 71, 0
9, 38436, Note_on_c, 8, 71, 74
9, 38572, Note_on_c, 8, 71, 0
9, 38576, Note_on_c, 8, 67, 0
9, 38588, Note_on_c, 8, 67, 75
9, 38596, Note_on_c, 8, 71, 73
9, 38708, Note_on_c, 8, 67, 0
9, 38744, Note_on_c, 8, 67, 75
9, 38872, Note_on_c, 8, 67, 0
9, 38900, Note_on_c, 8, 71, 0
9, 38908, Note_on_c, 8, 71, 75
9, 38912, Note_on_c, 8, 67, 75
9, 39040, Note_on_c, 8, 67, 0
9, 39060, Note_on_c, 8, 67, 75
9, 39064, Note_on_c, 8, 71, 0
9, 39072, Note_on_c, 8, 71, 74
9, 39176, Note_on_c, 8, 67, 0
9, 39200, Note_on_c, 8, 71, 0
9, 39212, Note_on_c, 8, 67, 75
9, 39224, Note_on_c, 8, 71, 72
9, 39360, Note_on_c, 8, 67, 0
9, 39372, Note_on_c, 8, 67, 74
9, 39384, Note_on_c, 8, 71, 0
9, 39392, Note_on_c, 8, 71, 74
9, 39520, Note_on_c, 8, 67, 0
9, 39536, Note_on_c, 8, 71, 0
9, 39544, Note_on_c, 8, 67, 75
9, 39552, Note_on_c, 8, 71, 73
9, 39656, Note_on_c, 8, 67, 0
9, 39668, Note_on_c, 8, 71, 0
9, 39684, Note_on_c, 8, 67, 75
9, 39708, Note_on_c, 8, 71, 72
9, 39840, Note_on_c, 8, 67, 0
9, 39860, Note_on_c, 8, 67, 75
9, 39864, Note_on_c, 8, 71, 0
9, 39872, Note_on_c, 8, 71, 74
9, 39884, Note_on_c, 8, 62, 0
9, 39996, Note_on_c, 8, 67, 0
9, 40024, Note_on_c, 8, 67, 75
9, 40156, Note_on_c, 8, 67, 0
9, 40168, Note_on_c, 8, 67, 75
9, 40256, Note_on_c, 8, 67, 0
9, 40280, Note_on_c, 8, 71, 0
9, 40280, Note_on_c, 8, 69, 37
9, 40284, Note_on_c, 8, 64, 58
9, 40292, Note_on_c, 8, 60, 40
9, 40300, Note_on_c, 8, 60, 0
9, 40304, Note_on_c, 8, 64, 0
9, 40304, Note_on_c, 8, 55, 0
9, 40324, Note_on_c, 8, 69, 0
9, 40344, Note_on_c, 8, 64, 74
9, 40344, Note_on_c, 8, 56, 40
9, 40344, Note_on_c, 8, 69, 74
9, 40372, Note_on_c, 8, 64, 0
9, 40372, Note_on_c, 8, 66, 75
9, 40480, Note_on_c, 8, 66, 0
9, 40492, Note_on_c, 8, 66, 75
9, 40504, Note_on_c, 8, 69, 0
9, 40512, Note_on_c, 8, 69, 72
9, 40628, Note_on_c, 8, 66, 0
9, 40656, Note_on_c, 8, 69, 0
9, 40656, Note_on_c, 8, 66, 75
9, 40664, Note_on_c, 8, 69, 74
9, 40688, Note_on_c, 8, 56, 0
9, 40800, Note_on_c, 8, 69, 0
9, 40804, Note_on_c, 8, 66, 0
9, 40820, Note_on_c, 8, 66, 75
9, 40824, Note_on_c, 8, 69, 73
9, 40964, Note_on_c, 8, 66, 0
9, 40984, Note_on_c, 8, 69, 0
9, 40996, Note_on_c, 8, 66, 75
9, 41016, Note_on_c, 8, 69, 74
9, 41124, Note_on_c, 8, 69, 0
9, 41124, Note_on_c, 8, 66, 0
9, 41144, Note_on_c, 8, 66, 75
9, 41152, Note_on_c, 8, 69, 74
9, 41276, Note_on_c, 8, 66, 0
9, 41304, Note_on_c, 8, 66, 75
9, 41312, Note_on_c, 8, 69, 0
9, 41320, Note_on_c, 8, 69, 73
9, 41448, Note_on_c, 8, 62, 56
9, 41460, Note_on_c, 8, 66, 0
9, 41472, Note_on_c, 8, 69, 0
9, 41480, Note_on_c, 8, 66, 75
9, 41488, Note_on_c, 8, 69, 70
9, 41568, Note_on_c, 8, 70, 28
9, 41584, Note_on_c, 8, 66, 0
9, 41588, Note_on_c, 8, 62, 0
9, 41600, Note_on_c, 8, 62, 74
9, 41628, Note_on_c, 8, 69, 0
9, 41628, Note_on_c, 8, 66, 75
9, 41644, Note_on_c, 8, 69, 72
9, 41772, Note_on_c, 8, 69, 0
9, 41772, Note_on_c, 8, 66, 0
9, 41784, Note_on_c, 8, 66, 75
9, 41792, Note_on_c, 8, 69, 74
9, 41864, Note_on_c, 8, 70, 0
9, 41864, Note_on_c, 8, 67, 28
9, 41936, Note_on_c, 8, 66, 0
9, 41944, Note_on_c, 8, 66, 75
9, 41948, Note_on_c, 8, 69, 0
9, 41968, Note_on_c, 8, 69, 74
9, 42084, Note_on_c, 8, 66, 0
9, 42096, Note_on_c, 8, 66, 75
9, 42140, Note_on_c, 8, 67, 0
9, 42244, Note_on_c, 8, 69, 0
9, 42276, Note_on_c, 8, 69, 75
9, 42396, Note_on_c, 8, 66, 0
9, 42412, Note_on_c, 8, 69, 0
9, 42424, Note_on_c, 8, 66, 75
9, 42436, Note_on_c, 8, 69, 65
9, 42536, Note_on_c, 8, 66, 0
9, 42552, Note_on_c, 8, 69, 0
9, 42580, Note_on_c, 8, 66, 75
9, 42584, Note_on_c, 8, 69, 73
9, 42704, Note_on_c, 8, 66, 0
9, 42724, Note_on_c, 8, 69, 0
9, 42736, Note_on_c, 8, 66, 75
9, 42740, Note_on_c, 8, 76, 72
9, 42768, Note_on_c, 8, 76, 0
9, 42768, Note_on_c, 8, 69, 74
9, 42864, Note_on_c, 8, 66, 0
9, 42896, Note_on_c, 8, 69, 0
9, 42908, Note_on_c, 8, 66, 75
9, 42924, Note_on_c, 8, 69, 74
9, 43032, Note_on_c, 8, 66, 0
9, 43048, Note_on_c, 8, 69, 0
9, 43060, Note_on_c, 8, 66, 75
9, 43072, Note_on_c, 8, 69, 74
9, 43216, Note_on_c, 8, 66, 0
9, 43236, Note_on_c, 8, 66, 75
9, 43244, Note_on_c, 8, 69, 0
9, 43264, Note_on_c, 8, 69, 73
9, 43396, Note_on_c, 8, 66, 0
9, 43408, Note_on_c, 8, 66, 75
9, 43412, Note_on_c, 8, 69, 0
9, 43420, Note_on_c, 8, 69, 73
9, 43544, Note_on_c, 8, 66, 0
9, 43556, Note_on_c, 8, 66, 75
9, 43564, Note_on_c, 8, 69, 0
9, 43580, Note_on_c, 8, 69, 73
9, 43716, Note_on_c, 8, 66, 0
9, 43728, Note_on_c, 8, 66, 75
9, 43732, Note_on_c, 8, 69, 0
9, 43752, Note_on_c, 8, 69, 74
9, 43880, Note_on_c, 8, 66, 0
9, 43892, Note_on_c, 8, 66, 75
9, 43896, Note_on_c, 8, 69, 0
9, 43908, Note_on_c, 8, 69, 74
9, 44036, Note_on_c, 8, 66, 0
9, 44052, Note_on_c, 8, 69, 0
9, 44056, Note_on_c, 8, 64, 74
9, 44064, Note_on_c, 8, 69, 74
9, 44108, Note_on_c, 8, 62, 0
9, 44112, Note_on_c, 8, 60, 23
9, 44168, Note_on_c, 8, 60, 0
9, 44180, Note_on_c, 8, 57, 34
9, 44192, Note_on_c, 8, 50, 30
9, 44196, Note_on_c, 8, 64, 0
9, 44196, Note_on_c, 8, 61, 74
9, 44212, Note_on_c, 8, 64, 75
9, 44260, Note_on_c, 8, 50, 0
9, 44260, Note_on_c, 8, 52, 28
9, 44368, Note_on_c, 8, 64, 0
9, 44376, Note_on_c, 8, 64, 75
9, 44380, Note_on_c, 8, 69, 0
9, 44400, Note_on_c, 8, 69, 73
9, 44508, Note_on_c, 8, 64, 0
9, 44516, Note_on_c, 8, 69, 0
9, 44524, Note_on_c, 8, 64, 75
9, 44528, Note_on_c, 8, 69, 74
9, 44648, Note_on_c, 8, 64, 0
9, 44676, Note_on_c, 8, 69, 0
9, 44684, Note_on_c, 8, 69, 74
9, 44684, Note_on_c, 8, 64, 75
9, 44824, Note_on_c, 8, 64, 0
9, 44836, Note_on_c, 8, 69, 0
9, 44836, Note_on_c, 8, 64, 75
9, 44852, Note_on_c, 8, 69, 74
9, 44860, Note_on_c, 8, 50, 23
9, 44972, Note_on_c, 8, 64, 0
9, 44980, Note_on_c, 8, 64, 75
9, 44988, Note_on_c, 8, 69, 0
9, 44996, Note_on_c, 8, 69, 74
9, 45140, Note_on_c, 8, 69, 0
9, 45148, Note_on_c, 8, 69, 74
9, 45280, Note_on_c, 8, 64, 0
9, 45300, Note_on_c, 8, 64, 74
9, 45308, Note_on_c, 8, 69, 0
9, 45316, Note_on_c, 8, 69, 74
9, 45428, Note_on_c, 8, 64, 0
9, 45440, Note_on_c, 8, 64, 75
9, 45456, Note_on_c, 8, 69, 0
9, 45464, Note_on_c, 8, 69, 72
9, 45600, Note_on_c, 8, 64, 0
9, 45608, Note_on_c, 8, 64, 75
9, 45616, Note_on_c, 8, 69, 0
9, 45656, Note_on_c, 8, 69, 75
9, 45668, Note_on_c, 8, 50, 0
9, 45756, Note_on_c, 8, 64, 0
9, 45772, Note_on_c, 8, 64, 75
9, 45776, Note_on_c, 8, 69, 0
9, 45792, Note_on_c, 8, 69, 74
9, 45888, Note_on_c, 8, 69, 0
9, 45924, Note_on_c, 8, 69, 73
9, 45936, Note_on_c, 8, 52, 0
9, 45944, Note_on_c, 8, 57, 0
9, 45976, Note_on_c, 8, 55, 28
9, 45980, Note_on_c, 8, 50, 23
9, 45992, Note_on_c, 8, 55, 0
9, 46008, Note_on_c, 8, 61, 0
9, 46008, Note_on_c, 8, 60, 40
9, 46072, Note_on_c, 8, 64, 0
9, 46088, Note_on_c, 8, 69, 0
9, 46104, Note_on_c, 8, 71, 74
9, 46104, Note_on_c, 8, 67, 75
9, 46112, Note_on_c, 8, 60, 0
9, 46128, Note_on_c, 8, 61, 34
9, 46232, Note_on_c, 8, 67, 0
9, 46236, Note_on_c, 8, 51, 30
9, 46240, Note_on_c, 8, 67, 75
9, 46248, Note_on_c, 8, 71, 0
9, 46264, Note_on_c, 8, 71, 72
9, 46272, Note_on_c, 8, 61, 0
9, 46272, Note_on_c, 8, 62, 32
9, 46400, Note_on_c, 8, 71, 0
9, 46424, Note_on_c, 8, 71, 74
9, 46524, Note_on_c, 8, 50, 0
9, 46548, Note_on_c, 8, 67, 0
9, 46556, Note_on_c, 8, 71, 0
9, 46564, Note_on_c, 8, 67, 75
9, 46568, Note_on_c, 8, 71, 74
9, 46700, Note_on_c, 8, 67, 0
9, 46728, Note_on_c, 8, 67, 74
9, 46732, Note_on_c, 8, 71, 0
9, 46752, Note_on_c, 8, 71, 73
9, 46868, Note_on_c, 8, 67, 0
9, 46880, Note_on_c, 8, 71, 0
9, 46888, Note_on_c, 8, 67, 75
9, 46896, Note_on_c, 8, 71, 73
9, 47048, Note_on_c, 8, 67, 0
9, 47060, Note_on_c, 8, 67, 75
9, 47212, Note_on_c, 8, 67, 0
9, 47224, Note_on_c, 8, 71, 0
9, 47224, Note_on_c, 8, 67, 75
9, 47236, Note_on_c, 8, 71, 73
9, 47360, Note_on_c, 8, 67, 0
9, 47376, Note_on_c, 8, 71, 0
9, 47376, Note_on_c, 8, 67, 75
9, 47388, Note_on_c, 8, 71, 67
9, 47544, Note_on_c, 8, 71, 0
9, 47560, Note_on_c, 8, 71, 75
9, 47628, Note_on_c, 8, 51, 0
9, 47696, Note_on_c, 8, 67, 0
9, 47716, Note_on_c, 8, 67, 75
9, 47836, Note_on_c, 8, 67, 0
9, 47852, Note_on_c, 8, 71, 0
9, 47864, Note_on_c, 8, 69, 74
9, 47864, Note_on_c, 8, 64, 75
9, 47904, Note_on_c, 8, 62, 0
9, 47908, Note_on_c, 8, 60, 18
9, 47968, Note_on_c, 8, 60, 0
9, 47972, Note_on_c, 8, 56, 43
9, 47976, Note_on_c, 8, 61, 47
9, 47988, Note_on_c, 8, 64, 0
9, 48000, Note_on_c, 8, 69, 0
9, 48012, Note_on_c, 8, 66, 75
9, 48020, Note_on_c, 8, 69, 72
9, 48024, Note_on_c, 8, 61, 0
9, 48028, Note_on_c, 8, 62, 40
9, 48172, Note_on_c, 8, 69, 0
9, 48180, Note_on_c, 8, 69, 73
9, 48216, Note_on_c, 8, 56, 0
9, 48220, Note_on_c, 8, 57, 13
9, 48296, Note_on_c, 8, 66, 0
9, 48308, Note_on_c, 8, 66, 75
9, 48320, Note_on_c, 8, 69, 0
9, 48340, Note_on_c, 8, 69, 65
9, 48440, Note_on_c, 8, 68, 23
9, 48456, Note_on_c, 8, 68, 0
9, 48460, Note_on_c, 8, 69, 0
9, 48460, Note_on_c, 8, 69, 23
9, 48544, Note_on_c, 8, 69, 0
9, 48628, Note_on_c, 8, 66, 0
9, 48652, Note_on_c, 8, 66, 74
9, 48672, Note_on_c, 8, 69, 69
9, 48752, Note_on_c, 8, 66, 0
9, 48780, Note_on_c, 8, 69, 0
9, 48792, Note_on_c, 8, 66, 75
9, 48804, Note_on_c, 8, 69, 72
9, 48948, Note_on_c, 8, 66, 0
9, 48956, Note_on_c, 8, 69, 0
9, 48956, Note_on_c, 8, 66, 75
9, 48968, Note_on_c, 8, 69, 74
9, 49064, Note_on_c, 8, 70, 23
9, 49092, Note_on_c, 8, 66, 0
9, 49108, Note_on_c, 8, 69, 0
9, 49116, Note_on_c, 8, 66, 75
9, 49132, Note_on_c, 8, 69, 66
9, 49252, Note_on_c, 8, 66, 0
9, 49256, Note_on_c, 8, 70, 0
9, 49260, Note_on_c, 8, 66, 75
9, 49272, Note_on_c, 8, 69, 0
9, 49280, Note_on_c, 8, 69, 72
9, 49404, Note_on_c, 8, 69, 0
9, 49440, Note_on_c, 8, 69, 74
9, 49540, Note_on_c, 8, 57, 0
9, 49560, Note_on_c, 8, 66, 0
9, 49584, Note_on_c, 8, 66, 74
9, 49600, Note_on_c, 8, 69, 0
9, 49608, Note_on_c, 8, 69, 68
9, 49668, Note_on_c, 8, 62, 0
9, 49692, Note_on_c, 8, 66, 0
9, 49716, Note_on_c, 8, 69, 0
9, 49728, Note_on_c, 8, 66, 74
9, 49760, Note_on_c, 8, 69, 74
9, 49884, Note_on_c, 8, 66, 0
9, 49900, Note_on_c, 8, 69, 0
9, 49904, Note_on_c, 8, 66, 74
9, 49908, Note_on_c, 8, 60, 18
9, 49912, Note_on_c, 8, 69, 74
9, 50048, Note_on_c, 8, 66, 0
9, 50068, Note_on_c, 8, 66, 75
9, 50088, Note_on_c, 8, 60, 0
9, 50088, Note_on_c, 8, 62, 18
9, 50180, Note_on_c, 8, 62, 0
9, 50188, Note_on_c, 8, 68, 23
9, 50196, Note_on_c, 8, 66, 0
9, 50204, Note_on_c, 8, 69, 0
9, 50216, Note_on_c, 8, 76, 23
9, 50240, Note_on_c, 8, 69, 73
9, 50248, Note_on_c, 8, 64, 74
9, 50304, Note_on_c, 8, 68, 0
9, 50312, Note_on_c, 8, 76, 0
9, 50324, Note_on_c, 8, 69, 0
9, 50340, Note_on_c, 8, 71, 64
9, 50344, Note_on_c, 8, 64, 0
9, 50376, Note_on_c, 8, 71, 0
9, 50388, Note_on_c, 8, 67, 74
9, 50400, Note_on_c, 8, 71, 74
9, 50480, Note_on_c, 8, 52, 32
9, 50540, Note_on_c, 8, 67, 0
9, 50552, Note_on_c, 8, 67, 75
9, 50588, Note_on_c, 8, 71, 0
9, 50624, Note_on_c, 8, 67, 0
9, 50632, Note_on_c, 8, 67, 30
9, 50668, Note_on_c, 8, 52, 0
9, 50672, Note_on_c, 8, 50, 23
9, 50692, Note_on_c, 8, 62, 18
9, 50696, Note_on_c, 8, 66, 75
9, 50720, Note_on_c, 8, 73, 74
9, 50744, Note_on_c, 8, 66, 0
9, 50748, Note_on_c, 8, 69, 75
9, 50752, Note_on_c, 8, 62, 0
9, 50752, Note_on_c, 8, 63, 28
9, 50792, Note_on_c, 8, 63, 0
9, 50792, Note_on_c, 8, 64, 23
9, 50888, Note_on_c, 8, 50, 0
9, 50888, Note_on_c, 8, 45, 30
9, 50968, Note_on_c, 8, 64, 0
9, 50968, Note_on_c, 8, 63, 18
9, 51012, Note_on_c, 8, 63, 0
9, 51012, Note_on_c, 8, 64, 18
9, 51520, Note_on_c, 8, 69, 0
9, 51544, Note_on_c, 8, 64, 0
9, 51552, Note_on_c, 8, 73, 0
9, 51696, Note_on_c, 8, 67, 0
9, 51732, Note_on_c, 8, 45, 0
9, 51884, Note_on_c, 8, 62, 73
9, 51888, Note_on_c, 8, 66, 69
9, 51888, Note_on_c, 8, 69, 59
9, 52020, Note_on_c, 8, 66, 0
9, 52036, Note_on_c, 8, 69, 0
9, 52052, Note_on_c, 8, 66, 61
9, 52152, Note_on_c, 8, 66, 0
9, 52188, Note_on_c, 8, 69, 58
9, 52192, Note_on_c, 8, 66, 71
9, 52296, Note_on_c, 8, 62, 0
9, 52320, Note_on_c, 8, 66, 0
9, 52320, Note_on_c, 8, 62, 74
9, 52328, Note_on_c, 8, 66, 75
9, 52332, Note_on_c, 8, 69, 0
9, 52340, Note_on_c, 8, 69, 74
9, 52448, Note_on_c, 8, 66, 0
9, 52484, Note_on_c, 8, 69, 0
9, 52500, Note_on_c, 8, 66, 69
9, 52508, Note_on_c, 8, 69, 62
9, 52528, Note_on_c, 8, 50, 23
9, 52616, Note_on_c, 8, 69, 0
9, 52620, Note_on_c, 8, 66, 0
9, 52632, Note_on_c, 8, 66, 73
9, 52644, Note_on_c, 8, 69, 72
9, 52780, Note_on_c, 8, 69, 0
9, 52804, Note_on_c, 8, 69, 74
9, 52932, Note_on_c, 8, 66, 0
9, 52972, Note_on_c, 8, 66, 74
9, 53076, Note_on_c, 8, 66, 0
9, 53096, Note_on_c, 8, 69, 0
9, 53112, Note_on_c, 8, 66, 73
9, 53120, Note_on_c, 8, 69, 70
9, 53260, Note_on_c, 8, 66, 0
9, 53264, Note_on_c, 8, 69, 0
9, 53280, Note_on_c, 8, 66, 74
9, 53284, Note_on_c, 8, 69, 74
9, 53300, Note_on_c, 8, 50, 0
9, 53424, Note_on_c, 8, 66, 0
9, 53444, Note_on_c, 8, 66, 73
9, 53448, Note_on_c, 8, 69, 0
9, 53452, Note_on_c, 8, 69, 73
9, 53548, Note_on_c, 8, 66, 0
9, 53584, Note_on_c, 8, 66, 74
9, 53592, Note_on_c, 8, 69, 0
9, 53600, Note_on_c, 8, 69, 74
9, 53620, Note_on_c, 8, 62, 0
9, 53636, Note_on_c, 8, 66, 0
9, 53652, Note_on_c, 8, 60, 30
9, 53744, Note_on_c, 8, 69, 0
9, 53752, Note_on_c, 8, 67, 74
9, 53756, Note_on_c, 8, 67, 0
9, 53756, Note_on_c, 8, 67, 74
9, 53768, Note_on_c, 8, 60, 0
9, 53772, Note_on_c, 8, 67, 0
9, 53772, Note_on_c, 8, 61, 32
9, 53776, Note_on_c, 8, 71, 74
9, 53912, Note_on_c, 8, 71, 0
9, 53916, Note_on_c, 8, 67, 73
9, 53924, Note_on_c, 8, 71, 72
9, 54008, Note_on_c, 8, 61, 0
9, 54008, Note_on_c, 8, 62, 28
9, 54044, Note_on_c, 8, 67, 0
9, 54056, Note_on_c, 8, 67, 74
9, 54060, Note_on_c, 8, 71, 0
9, 54072, Note_on_c, 8, 71, 72
9, 54216, Note_on_c, 8, 67, 0
9, 54224, Note_on_c, 8, 71, 0
9, 54224, Note_on_c, 8, 67, 75
9, 54236, Note_on_c, 8, 71, 74
9, 54372, Note_on_c, 8, 67, 0
9, 54400, Note_on_c, 8, 71, 0
9, 54400, Note_on_c, 8, 67, 75
9, 54408, Note_on_c, 8, 71, 74
9, 54540, Note_on_c, 8, 67, 0
9, 54552, Note_on_c, 8, 67, 75
9, 54632, Note_on_c, 8, 62, 0
9, 54632, Note_on_c, 8, 61, 23
9, 54708, Note_on_c, 8, 71, 0
9, 54720, Note_on_c, 8, 71, 75
9, 54736, Note_on_c, 8, 61, 0
9, 54888, Note_on_c, 8, 71, 0
9, 54900, Note_on_c, 8, 71, 73
9, 55036, Note_on_c, 8, 71, 0
9, 55056, Note_on_c, 8, 71, 74
9, 55168, Note_on_c, 8, 60, 18
9, 55196, Note_on_c, 8, 71, 0
9, 55196, Note_on_c, 8, 67, 0
9, 55208, Note_on_c, 8, 67, 75
9, 55216, Note_on_c, 8, 71, 75
9, 55364, Note_on_c, 8, 67, 0
9, 55376, Note_on_c, 8, 71, 0
9, 55384, Note_on_c, 8, 67, 74
9, 55392, Note_on_c, 8, 71, 74
9, 55508, Note_on_c, 8, 67, 0
9, 55524, Note_on_c, 8, 67, 75
9, 55600, Note_on_c, 8, 71, 0
9, 55644, Note_on_c, 8, 69, 32
9, 55652, Note_on_c, 8, 60, 0
9, 55668, Note_on_c, 8, 69, 0
9, 55668, Note_on_c, 8, 60, 74
9, 55672, Note_on_c, 8, 67, 0
9, 55688, Note_on_c, 8, 64, 75
9, 55696, Note_on_c, 8, 56, 23
9, 55696, Note_on_c, 8, 69, 74
9, 55704, Note_on_c, 8, 56, 0
9, 55736, Note_on_c, 8, 60, 0
9, 55736, Note_on_c, 8, 62, 74
9, 55740, Note_on_c, 8, 64, 0
9, 55740, Note_on_c, 8, 66, 70
9, 55824, Note_on_c, 8, 66, 0
9, 55844, Note_on_c, 8, 66, 73
9, 55848, Note_on_c, 8, 69, 0
9, 55856, Note_on_c, 8, 69, 72
9, 55960, Note_on_c, 8, 66, 0
9, 55980, Note_on_c, 8, 69, 0
9, 55996, Note_on_c, 8, 66, 75
9, 56004, Note_on_c, 8, 69, 74
9, 56128, Note_on_c, 8, 62, 0
9, 56132, Note_on_c, 8, 66, 0
9, 56148, Note_on_c, 8, 62, 73
9, 56156, Note_on_c, 8, 66, 75
9, 56160, Note_on_c, 8, 69, 0
9, 56168, Note_on_c, 8, 69, 74
9, 56300, Note_on_c, 8, 66, 0
9, 56328, Note_on_c, 8, 66, 74
9, 56448, Note_on_c, 8, 66, 0
9, 56476, Note_on_c, 8, 66, 75
9, 56484, Note_on_c, 8, 69, 0
9, 56492, Note_on_c, 8, 69, 74
9, 56616, Note_on_c, 8, 66, 0
9, 56632, Note_on_c, 8, 69, 0
9, 56652, Note_on_c, 8, 66, 75
9, 56652, Note_on_c, 8, 66, 73
9, 56653, Note_on_c, 8, 66, 0
9, 56680, Note_on_c, 8, 66, 0
9, 56680, Note_on_c, 8, 69, 74
9, 56832, Note_on_c, 8, 66, 75
9, 56940, Note_on_c, 8, 66, 0
9, 56968, Note_on_c, 8, 66, 75
9, 56976, Note_on_c, 8, 69, 0
9, 56988, Note_on_c, 8, 69, 73
9, 57116, Note_on_c, 8, 69, 0
9, 57124, Note_on_c, 8, 66, 0
9, 57136, Note_on_c, 8, 66, 75
9, 57144, Note_on_c, 8, 69, 74
9, 57280, Note_on_c, 8, 70, 23
9, 57288, Note_on_c, 8, 69, 0
9, 57292, Note_on_c, 8, 66, 0
9, 57332, Note_on_c, 8, 69, 73
9, 57336, Note_on_c, 8, 66, 74
9, 57392, Note_on_c, 8, 69, 0
9, 57392, Note_on_c, 8, 70, 0
9, 57392, Note_on_c, 8, 69, 23
9, 57436, Note_on_c, 8, 66, 0
9, 57448, Note_on_c, 8, 66, 75
9, 57452, Note_on_c, 8, 69, 0
9, 57476, Note_on_c, 8, 69, 74
9, 57532, Note_on_c, 8, 69, 0
9, 57588, Note_on_c, 8, 66, 0
9, 57612, Note_on_c, 8, 66, 75
9, 57616, Note_on_c, 8, 67, 73
9, 57636, Note_on_c, 8, 67, 0
9, 57636, Note_on_c, 8, 69, 74
9, 57752, Note_on_c, 8, 66, 0
9, 57772, Note_on_c, 8, 69, 0
9, 57784, Note_on_c, 8, 66, 75
9, 57796, Note_on_c, 8, 69, 73
9, 57908, Note_on_c, 8, 66, 0
9, 57920, Note_on_c, 8, 69, 0
9, 57940, Note_on_c, 8, 66, 75
9, 57948, Note_on_c, 8, 69, 73
9, 58076, Note_on_c, 8, 66, 0
9, 58096, Note_on_c, 8, 66, 75
9, 58100, Note_on_c, 8, 69, 0
9, 58108, Note_on_c, 8, 69, 74
9, 58196, Note_on_c, 8, 62, 0
9, 58232, Note_on_c, 8, 66, 0
9, 58244, Note_on_c, 8, 69, 0
9, 58256, Note_on_c, 8, 66, 75
9, 58280, Note_on_c, 8, 69, 74
9, 58408, Note_on_c, 8, 69, 0
9, 58424, Note_on_c, 8, 69, 73
9, 58548, Note_on_c, 8, 66, 0
9, 58568, Note_on_c, 8, 66, 75
9, 58676, Note_on_c, 8, 68, 28
9, 58712, Note_on_c, 8, 66, 0
9, 58724, Note_on_c, 8, 66, 75
9, 58732, Note_on_c, 8, 68, 0
9, 58732, Note_on_c, 8, 69, 0
9, 58732, Note_on_c, 8, 70, 28
9, 58744, Note_on_c, 8, 69, 75
9, 58752, Note_on_c, 8, 70, 0
9, 58864, Note_on_c, 8, 69, 0
9, 58864, Note_on_c, 8, 66, 0
9, 58876, Note_on_c, 8, 66, 74
9, 58900, Note_on_c, 8, 69, 73
9, 59020, Note_on_c, 8, 66, 0
9, 59036, Note_on_c, 8, 69, 0
9, 59048, Note_on_c, 8, 66, 74
9, 59056, Note_on_c, 8, 69, 74
9, 59172, Note_on_c, 8, 66, 0
9, 59208, Note_on_c, 8, 66, 74
9, 59216, Note_on_c, 8, 69, 0
9, 59216, Note_on_c, 8, 57, 28
9, 59228, Note_on_c, 8, 69, 74
9, 59328, Note_on_c, 8, 66, 0
9, 59360, Note_on_c, 8, 66, 75
9, 59404, Note_on_c, 8, 66, 0
9, 59448, Note_on_c, 8, 57, 0
9, 59452, Note_on_c, 8, 64, 63
9, 59500, Note_on_c, 8, 64, 0
9, 59516, Note_on_c, 8, 61, 74
9, 59520, Note_on_c, 8, 67, 75
9, 59528, Note_on_c, 8, 69, 0
9, 59532, Note_on_c, 8, 71, 74
9, 59548, Note_on_c, 8, 61, 0
9, 59560, Note_on_c, 8, 62, 57
9, 59656, Note_on_c, 8, 67, 0
9, 59684, Note_on_c, 8, 71, 0
9, 59692, Note_on_c, 8, 67, 75
9, 59700, Note_on_c, 8, 71, 74
9, 59816, Note_on_c, 8, 67, 0
9, 59832, Note_on_c, 8, 71, 0
9, 59832, Note_on_c, 8, 67, 75
9, 59840, Note_on_c, 8, 71, 74
9, 59992, Note_on_c, 8, 71, 0
9, 60008, Note_on_c, 8, 71, 75
9, 60176, Note_on_c, 8, 71, 0
9, 60188, Note_on_c, 8, 71, 74
9, 60320, Note_on_c, 8, 71, 0
9, 60324, Note_on_c, 8, 67, 0
9, 60336, Note_on_c, 8, 67, 75
9, 60336, Note_on_c, 8, 76, 73
9, 60356, Note_on_c, 8, 76, 0
9, 60356, Note_on_c, 8, 71, 74
9, 60460, Note_on_c, 8, 62, 0
9, 60488, Note_on_c, 8, 62, 74
9, 60496, Note_on_c, 8, 67, 0
9, 60496, Note_on_c, 8, 55, 43
9, 60508, Note_on_c, 8, 71, 0
9, 60508, Note_on_c, 8, 67, 75
9, 60516, Note_on_c, 8, 71, 74
9, 60656, Note_on_c, 8, 67, 0
9, 60664, Note_on_c, 8, 71, 0
9, 60664, Note_on_c, 8, 67, 75
9, 60676, Note_on_c, 8, 71, 75
9, 60804, Note_on_c, 8, 67, 0
9, 60824, Note_on_c, 8, 67, 75
9, 60968, Note_on_c, 8, 71, 0
9, 60976, Note_on_c, 8, 67, 0
9, 60988, Note_on_c, 8, 67, 75
9, 60996, Note_on_c, 8, 71, 75
9, 61128, Note_on_c, 8, 67, 0
9, 61156, Note_on_c, 8, 71, 0
9, 61168, Note_on_c, 8, 67, 75
9, 61176, Note_on_c, 8, 71, 74
9, 61268, Note_on_c, 8, 67, 0
9, 61300, Note_on_c, 8, 71, 0
9, 61308, Note_on_c, 8, 67, 75
9, 61316, Note_on_c, 8, 71, 70
9, 61444, Note_on_c, 8, 67, 0
9, 61456, Note_on_c, 8, 67, 74
9, 61468, Note_on_c, 8, 71, 0
9, 61476, Note_on_c, 8, 71, 74
9, 61612, Note_on_c, 8, 71, 0
9, 61616, Note_on_c, 8, 67, 0
9, 61628, Note_on_c, 8, 67, 75
9, 61636, Note_on_c, 8, 71, 73
9, 61748, Note_on_c, 8, 67, 0
9, 61784, Note_on_c, 8, 67, 75
9, 61912, Note_on_c, 8, 67, 0
9, 61940, Note_on_c, 8, 71, 0
9, 61948, Note_on_c, 8, 71, 75
9, 61952, Note_on_c, 8, 67, 75
9, 62080, Note_on_c, 8, 67, 0
9, 62100, Note_on_c, 8, 67, 75
9, 62104, Note_on_c, 8, 71, 0
9, 62112, Note_on_c, 8, 71, 74
9, 62216, Note_on_c, 8, 67, 0
9, 62240, Note_on_c, 8, 71, 0
9, 62252, Note_on_c, 8, 67, 75
9, 62264, Note_on_c, 8, 71, 72
9, 62400, Note_on_c, 8, 67, 0
9, 62412, Note_on_c, 8, 67, 74
9, 62424, Note_on_c, 8, 71, 0
9, 62432, Note_on_c, 8, 71, 74
9, 62560, Note_on_c, 8, 67, 0
9, 62576, Note_on_c, 8, 71, 0
9, 62584, Note_on_c, 8, 67, 75
9, 62592, Note_on_c, 8, 71, 73
9, 62696, Note_on_c, 8, 67, 0
9, 62708, Note_on_c, 8, 71, 0
9, 62724, Note_on_c, 8, 67, 75
9, 62748, Note_on_c, 8, 71, 72
9, 62880, Note_on_c, 8, 67, 0
9, 62900, Note_on_c, 8, 67, 75
9, 62904, Note_on_c, 8, 71, 0
9, 62912, Note_on_c, 8, 71, 74
9, 62924, Note_on_c, 8, 62, 0
9, 63036, Note_on_c, 8, 67, 0
9, 63064, Note_on_c, 8, 67, 75
9, 63196, Note_on_c, 8, 67, 0
9, 63208, Note_on_c, 8, 67, 75
9, 63296, Note_on_c, 8, 67, 0
9, 63320, Note_on_c, 8, 71, 0
9, 63320, Note_on_c, 8, 69, 37
9, 63324, Note_on_c, 8, 64, 58
9, 63332, Note_on_c, 8, 60, 40
9, 63340, Note_on_c, 8, 60, 0
9, 63344, Note_on_c, 8, 64, 0
9, 63344, Note_on_c, 8, 55, 0
9, 63364, Note_on_c, 8, 69, 0
9, 63384, Note_on_c, 8, 64, 74
9, 63384, Note_on_c, 8, 56, 40
9, 63384, Note_on_c, 8, 69, 74
9, 63412, Note_on_c, 8, 64, 0
9, 63412, Note_on_c, 8, 66, 75
9, 63520, Note_on_c, 8, 66, 0
9, 63532, Note_on_c, 8, 66, 75
9, 63544, Note_on_c, 8, 69, 0
9, 63552, Note_on_c, 8, 69, 72
9, 63668, Note_on_c, 8, 66, 0
9, 63696, Note_on_c, 8, 69, 0
9, 63696, Note_on_c, 8, 66, 75
9, 63704, Note_on_c, 8, 69, 74
9, 63728, Note_on_c, 8, 56, 0
9, 63840, Note_on_c, 8, 69, 0
9, 63844, Note_on_c, 8, 66, 0
9, 63860, Note_on_c, 8, 66, 75
9, 63864, Note_on_c, 8, 69, 73
9, 64004, Note_on_c, 8, 66, 0
9, 64024, Note_on_c, 8, 69, 0
9, 64036, Note_on_c, 8, 66, 75
9, 64056, Note_on_c, 8, 69, 74
9, 64164, Note_on_c, 8, 69, 0
9, 64164, Note_on_c, 8, 66, 0
9, 64184, Note_on_c, 8, 66, 75
9, 64192, Note_on_c, 8, 69, 74
9, 64316, Note_on_c, 8, 66, 0
9, 64344, Note_on_c, 8, 66, 75
9, 64352, Note_on_c, 8, 69, 0
9, 64360, Note_on_c, 8, 69, 73
9, 64488, Note_on_c, 8, 62, 56
9, 64500, Note_on_c, 8, 66, 0
9, 64512, Note_on_c, 8, 69, 0
9, 64520, Note_on_c, 8, 66, 75
9, 64528, Note_on_c, 8, 69, 70
9, 64608, Note_on_c, 8, 70, 28
9, 64624, Note_on_c, 8, 66, 0
9, 64628, Note_on_c, 8, 62, 0
9, 64640, Note_on_c, 8, 62, 74
9, 64668, Note_on_c, 8, 69, 0
9, 64668, Note_on_c, 8, 66, 75
9, 64684, Note_on_c, 8, 69, 72
9, 64812, Note_on_c, 8, 69, 0
9, 64812, Note_on_c, 8, 66, 0
9, 64824, Note_on_c, 8, 66, 75
9, 64832, Note_on_c, 8, 69, 74
9, 64904, Note_on_c, 8, 70, 0
9, 64904, Note_on_c, 8, 67, 28
9, 64976, Note_on_c, 8, 66, 0
9, 64984, Note_on_c, 8, 66, 75
9, 64988, Note_on_c, 8, 69, 0
9, 65008, Note_on_c, 8, 69, 74
9, 65124, Note_on_c, 8, 66, 0
9, 65136, Note_on_c, 8, 66, 75
9, 65180, Note_on_c, 8, 67, 0
9, 65284, Note_on_c, 8, 69, 0
9, 65316, Note_on_c, 8, 69, 75
9, 65436, Note_on_c, 8, 66, 0
9, 65452, Note_on_c, 8, 69, 0
9, 65464, Note_on_c, 8, 66, 75
9, 65476, Note_on_c, 8, 69, 65
9, 65576, Note_on_c, 8, 66, 0
9, 65592, Note_on_c, 8, 69, 0
9, 65620, Note_on_c, 8, 66, 75
9, 65624, Note_on_c, 8, 69, 73
9, 65744, Note_on_c, 8, 66, 0
9, 65764, Note_on_c, 8, 69, 0
9, 65776, Note_on_c, 8, 66, 75
9, 65780, Note_on_c, 8, 76, 72
9, 65808, Note_on_c, 8, 76, 0
9, 65808, Note_on_c, 8, 69, 74
9, 65904, Note_on_c, 8, 66, 0
9, 65936, Note_on_c, 8, 69, 0
9, 65948, Note_on_c, 8, 66, 75
9, 65964, Note_on_c, 8, 69, 74
9, 66072, Note_on_c, 8, 66, 0
9, 66088, Note_on_c, 8, 69, 0
9, 66100, Note_on_c, 8, 66, 75
9, 66112, Note_on_c, 8, 69, 74
9, 66256, Note_on_c, 8, 66, 0
9, 66276, Note_on_c, 8, 66, 75
9, 66284, Note_on_c, 8, 69, 0
9, 66304, Note_on_c, 8, 69, 73
9, 66436, Note_on_c, 8, 66, 0
9, 66448, Note_on_c, 8, 66, 75
9, 66452, Note_on_c, 8, 69, 0
9, 66460, Note_on_c, 8, 69, 73
9, 66584, Note_on_c, 8, 66, 0
9, 66596, Note_on_c, 8, 66, 75
9, 66604, Note_on_c, 8, 69, 0
9, 66620, Note_on_c, 8, 69, 73
9, 66756, Note_on_c, 8, 66, 0
9, 66768, Note_on_c, 8, 66, 75
9, 66772, Note_on_c, 8, 69, 0
9, 66792, Note_on_c, 8, 69, 74
9, 66920, Note_on_c, 8, 66, 0
9, 66932, Note_on_c, 8, 66, 75
9, 66936, Note_on_c, 8, 69, 0
9, 66948, Note_on_c, 8, 69, 74
9, 67076, Note_on_c, 8, 66, 0
9, 67092, Note_on_c, 8, 69, 0
9, 67096, Note_on_c, 8, 64, 74
9, 67104, Note_on_c, 8, 69, 74
9, 67148, Note_on_c, 8, 62, 0
9, 67152, Note_on_c, 8, 60, 23
9, 67208, Note_on_c, 8, 60, 0
9, 67220, Note_on_c, 8, 57, 34
9, 67232, Note_on_c, 8, 50, 30
9, 67236, Note_on_c, 8, 64, 0
9, 67236, Note_on_c, 8, 61, 74
9, 67252, Note_on_c, 8, 64, 75
9, 67300, Note_on_c, 8, 50, 0
9, 67300, Note_on_c, 8, 52, 28
9, 67408, Note_on_c, 8, 64, 0
9, 67416, Note_on_c, 8, 64, 75
9, 67420, Note_on_c, 8, 69, 0
9, 67440, Note_on_c, 8, 69, 73
9, 67548, Note_on_c, 8, 64, 0
9, 67556, Note_on_c, 8, 69, 0
9, 67564, Note_on_c, 8, 64, 75
9, 67568, Note_on_c, 8, 69, 74
9, 67688, Note_on_c, 8, 64, 0
9, 67716, Note_on_c, 8, 69, 0
9, 67724, Note_on_c, 8, 69, 74
9, 67724, Note_on_c, 8, 64, 75
9, 67864, Note_on_c, 8, 64, 0
9, 67876, Note_on_c, 8, 69, 0
9, 67876, Note_on_c, 8, 64, 75
9, 67892, Note_on_c, 8, 69, 74
9, 67900, Note_on_c, 8, 50, 23
9, 68012, Note_on_c, 8, 64, 0
9, 68020, Note_on_c, 8, 64, 75
9, 68028, Note_on_c, 8, 69, 0
9, 68036, Note_on_c, 8, 69, 74
9, 68180, Note_on_c, 8, 69, 0
9, 68188, Note_on_c, 8, 69, 74
9, 68320, Note_on_c, 8, 64, 0
9, 68340, Note_on_c, 8, 64, 74
9, 68348, Note_on_c, 8, 69, 0
9, 68356, Note_on_c, 8, 69, 74
9, 68468, Note_on_c, 8, 64, 0
9, 68480, Note_on_c, 8, 64, 75
9, 68496, Note_on_c, 8, 69, 0
9, 68504, Note_on_c, 8, 69, 72
9, 68640, Note_on_c, 8, 64, 0
9, 68648, Note_on_c, 8, 64, 75
9, 68656, Note_on_c, 8, 69, 0
9, 68696, Note_on_c, 8, 69, 75
9, 68708, Note_on_c, 8, 50, 0
9, 68796, Note_on_c, 8, 64, 0
9, 68812, Note_on_c, 8, 64, 75
9, 68816, Note_on_c, 8, 69, 0
9, 68832, Note_on_c, 8, 69, 74
9, 68928, Note_on_c, 8, 69, 0
9, 68964, Note_on_c, 8, 69, 73
9, 68976, Note_on_c, 8, 52, 0
9, 68984, Note_on_c, 8, 57, 0
9, 69016, Note_on_c, 8, 55, 28
9, 69020, Note_on_c, 8, 50, 23
9, 69032, Note_on_c, 8, 55, 0
9, 69048, Note_on_c, 8, 61, 0
9, 69048, Note_on_c, 8, 60, 40
9, 69112, Note_on_c, 8, 64, 0
9, 69128, Note_on_c, 8, 69, 0
9, 69144, Note_on_c, 8, 71, 74
9, 69144, Note_on_c, 8, 67, 75
9, 69152, Note_on_c, 8, 60, 0
9, 69168, Note_on_c, 8, 61, 34
9, 69272, Note_on_c, 8, 67, 0
9, 69276, Note_on_c, 8, 51, 30
9, 69280, Note_on_c, 8, 67, 75
9, 69288, Note_on_c, 8, 71, 0
9, 69304, Note_on_c, 8, 71, 72
9, 69312, Note_on_c, 8, 61, 0
9, 69312, Note_on_c, 8, 62, 32
9, 69440, Note_on_c, 8, 71, 0
9, 69464, Note_on_c, 8, 71, 74
9, 69564, Note_on_c, 8, 50, 0
9, 69588, Note_on_c, 8, 67, 0
9, 69596, Note_on_c, 8, 71, 0
9, 69604, Note_on_c, 8, 67, 75
9, 69608, Note_on_c, 8, 71, 74
9, 69740, Note_on_c, 8, 67, 0
9, 69768, Note_on_c, 8, 67, 74
9, 69772, Note_on_c, 8, 71, 0
9, 69792, Note_on_c, 8, 71, 73
9, 69908, Note_on_c, 8, 67, 0
9, 69920, Note_on_c, 8, 71, 0
9, 69928, Note_on_c, 8, 67, 75
9, 69936, Note_on_c, 8, 71, 73
9, 70088, Note_on_c, 8, 67, 0
9, 70100, Note_on_c, 8, 67, 75
9, 70252, Note_on_c, 8, 67, 0
9, 70264, Note_on_c, 8, 71, 0
9, 70264, Note_on_c, 8, 67, 75
9, 70276, Note_on_c, 8, 71, 73
9, 70400, Note_on_c, 8, 67, 0
9, 70416, Note_on_c, 8, 71, 0
9, 70416, Note_on_c, 8, 67, 75
9, 70428, Note_on_c, 8, 71, 67
9, 70584, Note_on_c, 8, 71, 0
9, 70600, Note_on_c, 8, 71, 75
9, 70668, Note_on_c, 8, 51, 0
9, 70736, Note_on_c, 8, 67, 0
9, 70756, Note_on_c, 8, 67, 75
9, 70876, Note_on_c, 8, 67, 0
9, 70892, Note_on_c, 8, 71, 0
9, 70904, Note_on_c, 8, 69, 74
9, 70904, Note_on_c, 8, 64, 75
9, 70944, Note_on_c, 8, 62, 0
9, 70948, Note_on_c, 8, 60, 18
9, 71008, Note_on_c, 8, 60, 0
9, 71012, Note_on_c, 8, 56, 43
9, 71016, Note_on_c, 8, 61, 47
9, 71028, Note_on_c, 8, 64, 0
9, 71040, Note_on_c, 8, 69, 0
9, 71052, Note_on_c, 8, 66, 75
9, 71060, Note_on_c, 8, 69, 72
9, 71064, Note_on_c, 8, 61, 0
9, 71068, Note_on_c, 8, 62, 40
9, 71212, Note_on_c, 8, 69, 0
9, 71220, Note_on_c, 8, 69, 73
9, 71256, Note_on_c, 8, 56, 0
9, 71260, Note_on_c, 8, 57, 13
9, 71336, Note_on_c, 8, 66, 0
9, 71348, Note_on_c, 8, 66, 75
9, 71360, Note_on_c, 8, 69, 0
9, 71380, Note_on_c, 8, 69, 65
9, 71480, Note_on_c, 8, 68, 23
9, 71496, Note_on_c, 8, 68, 0
9, 71500, Note_on_c, 8, 69, 0
9, 71500, Note_on_c, 8, 69, 23
9, 71584, Note_on_c, 8, 69, 0
9, 71668, Note_on_c, 8, 66, 0
9, 71692, Note_on_c, 8, 66, 74
9, 71712, Note_on_c, 8, 69, 69
9, 71792, Note_on_c, 8, 66, 0
9, 71820, Note_on_c, 8, 69, 0
9, 71832, Note_on_c, 8, 66, 75
9, 71844, Note_on_c, 8, 69, 72
9, 71988, Note_on_c, 8, 66, 0
9, 71996, Note_on_c, 8, 69, 0
9, 71996, Note_on_c, 8, 66, 75
9, 72008, Note_on_c, 8, 69, 74
9, 72104, Note_on_c, 8, 70, 23
9, 72132, Note_on_c, 8, 66, 0
9, 72148, Note_on_c, 8, 69, 0
9, 72156, Note_on_c, 8, 66, 75
9, 72172, Note_on_c, 8, 69, 66
9, 72292, Note_on_c, 8, 66, 0
9, 72296, Note_on_c, 8, 70, 0
9, 72300, Note_on_c, 8, 66, 75
9, 72312, Note_on_c, 8, 69, 0
9, 72320, Note_on_c, 8, 69, 72
9, 72444, Note_on_c, 8, 69, 0
9, 72480, Note_on_c, 8, 69, 74
9, 72580, Note_on_c, 8, 57, 0
9, 72600, Note_on_c, 8, 66, 0
9, 72624, Note_on_c, 8, 66, 74
9, 72640, Note_on_c, 8, 69, 0
9, 72648, Note_on_c, 8, 69, 68
9, 72708, Note_on_c, 8, 62, 0
9, 72732, Note_on_c, 8, 66, 0
9, 72756, Note_on_c, 8, 69, 0
9, 72768, Note_on_c, 8, 66, 74
9, 72800, Note_on_c, 8, 69, 74
9, 72924, Note_on_c, 8, 66, 0
9, 72940, Note_on_c, 8, 69, 0
9, 72944, Note_on_c, 8, 66, 74
9, 72948, Note_on_c, 8, 60, 18
9, 72952, Note_on_c, 8, 69, 74
9, 73088, Note_on_c, 8, 66, 0
9, 73108, Note_on_c, 8, 66, 75
9, 73128, Note_on_c, 8, 60, 0
9, 73128, Note_on_c, 8, 62, 18
9, 73220, Note_on_c, 8, 62, 0
9, 73228, Note_on_c, 8, 68, 23
9, 73236, Note_on_c, 8, 66, 0
9, 73244, Note_on_c, 8, 69, 0
9, 73256, Note_on_c, 8, 76, 23
9, 73280, Note_on_c, 8, 69, 73
9, 73288, Note_on_c, 8, 64, 74
9, 73344, Note_on_c, 8, 68, 0
9, 73352, Note_on_c, 8, 76, 0
9, 73364, Note_on_c, 8, 69, 0
9, 73380, Note_on_c, 8, 71, 64
9, 73384, Note_on_c, 8, 64, 0
9, 73416, Note_on_c, 8, 71, 0
9, 73428, Note_on_c, 8, 67, 74
9, 73440, Note_on_c, 8, 71, 74
9, 73520, Note_on_c, 8, 52, 32
9, 73580, Note_on_c, 8, 67, 0
9, 73592, Note_on_c, 8, 67, 75
9, 73628, Note_on_c, 8, 71, 0
9, 73664, Note_on_c, 8, 67, 0
9, 73672, Note_on_c, 8, 67, 30
9, 73708, Note_on_c, 8, 52, 0
9, 73712, Note_on_c, 8, 50, 23
9, 73732, Note_on_c, 8, 62, 18
9, 73736, Note_on_c, 8, 66, 75
9, 73760, Note_on_c, 8, 73, 74
9, 73784, Note_on_c, 8, 66, 0
9, 73788, Note_on_c, 8, 69, 75
9, 73792, Note_on_c, 8, 62, 0
9, 73792, Note_on_c, 8, 63, 28
9, 73832, Note_on_c, 8, 63, 0
9, 73832, Note_on_c, 8, 64, 23
9, 73928, Note_on_c, 8, 50, 0
9, 73928, Note_on_c, 8, 45, 30
9, 74008, Note_on_c, 8, 64, 0
9, 74008, Note_on_c, 8, 63, 18
9, 74052, Note_on_c, 8, 63, 0
9, 74052, Note_on_c, 8, 64, 18
9, 74560, Note_on_c, 8, 69, 0
9, 74584, Note_on_c, 8, 64, 0
9, 74592, Note_on_c, 8, 73, 0
9, 74736, Note_on_c, 8, 67, 0
9, 74772, Note_on_c, 8, 45, 0
9, 74924, Note_on_c, 8, 62, 73
9, 74928, Note_on_c, 8, 66, 69
9, 74928, Note_on_c, 8, 69, 59
9, 75060, Note_on_c, 8, 66, 0
9, 75076, Note_on_c, 8, 69, 0
9, 75092, Note_on_c, 8, 66, 61
9, 75192, Note_on_c, 8, 66, 0
9, 75228, Note_on_c, 8, 69, 58
9, 75232, Note_on_c, 8, 66, 71
9, 75336, Note_on_c, 8, 62, 0
9, 75360, Note_on_c, 8, 66, 0
9, 75360, Note_on_c, 8, 62, 74
9, 75368, Note_on_c, 8, 66, 75
9, 75372, Note_on_c, 8, 69, 0
9, 75380, Note_on_c, 8, 69, 74
9, 75488, Note_on_c, 8, 66, 0
9, 75524, Note_on_c, 8, 69, 0
9, 75540, Note_on_c, 8, 66, 69
9, 75548, Note_on_c, 8, 69, 62
9, 75568, Note_on_c, 8, 50, 23
9, 75656, Note_on_c, 8, 69, 0
9, 75660, Note_on_c, 8, 66, 0
9, 75672, Note_on_c, 8, 66, 73
9, 75684, Note_on_c, 8, 69, 72
9, 75820, Note_on_c, 8, 69, 0
9, 75844, Note_on_c, 8, 69, 74
9, 75972, Note_on_c, 8, 66, 0
9, 76012, Note_on_c, 8, 66, 74
9, 76116, Note_on_c, 8, 66, 0
9, 76136, Note_on_c, 8, 69, 0
9, 76152, Note_on_c, 8, 66, 73
9, 76160, Note_on_c, 8, 69, 70
9, 76300, Note_on_c, 8, 66, 0
9, 76304, Note_on_c, 8, 69, 0
9, 76320, Note_on_c, 8, 66, 74
9, 76324, Note_on_c, 8, 69, 74
9, 76340, Note_on_c, 8, 50, 0
9, 76464, Note_on_c, 8, 66, 0
9, 76484, Note_on_c, 8, 66, 73
9, 76488, Note_on_c, 8, 69, 0
9, 76492, Note_on_c, 8, 69, 73
9, 76588, Note_on_c, 8, 66, 0
9, 76624, Note_on_c, 8, 66, 74
9, 76632, Note_on_c, 8, 69, 0
9, 76640, Note_on_c, 8, 69, 74
9, 76660, Note_on_c, 8, 62, 0
9, 76676, Note_on_c, 8, 66, 0
9, 76692, Note_on_c, 8, 60, 30
9, 76784, Note_on_c, 8, 69, 0
9, 76792, Note_on_c, 8, 67, 74
9, 76796, Note_on_c, 8, 67, 0
9, 76796, Note_on_c, 8, 67, 74
9, 76808, Note_on_c, 8, 60, 0
9, 76812, Note_on_c, 8, 67, 0
9, 76812, Note_on_c, 8, 61, 32
9, 76816, Note_on_c, 8, 71, 74
9, 76952, Note_on_c, 8, 71, 0
9, 76956, Note_on_c, 8, 67, 73
9, 76964, Note_on_c, 8, 71, 72
9, 77048, Note_on_c, 8, 61, 0
9, 77048, Note_on_c, 8, 62, 28
9, 77084, Note_on_c, 8, 67, 0
9, 77096, Note_on_c, 8, 67, 74
9, 77100, Note_on_c, 8, 71, 0
9, 77112, Note_on_c, 8, 71, 72
9, 77256, Note_on_c, 8, 67, 0
9, 77264, Note_on_c, 8, 71, 0
9, 77264, Note_on_c, 8, 67, 75
9, 77276, Note_on_c, 8, 71, 74
9, 77412, Note_on_c, 8, 67, 0
9, 77440, Note_on_c, 8, 71, 0
9, 77440, Note_on_c, 8, 67, 75
9, 77448, Note_on_c, 8, 71, 74
9, 77580, Note_on_c, 8, 67, 0
9, 77592, Note_on_c, 8, 67, 75
9, 77672, Note_on_c, 8, 62, 0
9, 77672, Note_on_c, 8, 61, 23
9, 77748, Note_on_c, 8, 71, 0
9, 77760, Note_on_c, 8, 71, 75
9, 77776, Note_on_c, 8, 61, 0
9, 77928, Note_on_c, 8, 71, 0
9, 77940, Note_on_c, 8, 71, 73
9, 78076, Note_on_c, 8, 71, 0
9, 78096, Note_on_c, 8, 71, 74
9, 78208, Note_on_c, 8, 60, 18
9, 78236, Note_on_c, 8, 71, 0
9, 78236, Note_on_c, 8, 67, 0
9, 78248, Note_on_c, 8, 67, 75
9, 78256, Note_on_c, 8, 71, 75
9, 78404, Note_on_c, 8, 67, 0
9, 78416, Note_on_c, 8, 71, 0
9, 78424, Note_on_c, 8, 67, 74
9, 78432, Note_on_c, 8, 71, 74
9, 78548, Note_on_c, 8, 67, 0
9, 78564, Note_on_c, 8, 67, 75
9, 78640, Note_on_c, 8, 71, 0
9, 78684, Note_on_c, 8, 69, 32
9, 78692, Note_on_c, 8, 60, 0
9, 78708, Note_on_c, 8, 69, 0
9, 78708, Note_on_c, 8, 60, 74
9, 78712, Note_on_c, 8, 67, 0
9, 78728, Note_on_c, 8, 64, 75
9, 78736, Note_on_c, 8, 56, 23
9, 78736, Note_on_c, 8, 69, 74
9, 78744, Note_on_c, 8, 56, 0
9, 78776, Note_on_c, 8, 60, 0
9, 78776, Note_on_c, 8, 62, 74
9, 78780, Note_on_c, 8, 64, 0
9, 78780, Note_on_c, 8, 66, 70
9, 78864, Note_on_c, 8, 66, 0
9, 78884, Note_on_c, 8, 66, 73
9, 78888, Note_on_c, 8, 69, 0
9, 78896, Note_on_c, 8, 69, 72
9, 79000, Note_on_c, 8, 66, 0
9, 79020, Note_on_c, 8, 69, 0
9, 79036, Note_on_c, 8, 66, 75
9, 79044, Note_on_c, 8, 69, 74
9, 79168, Note_on_c, 8, 62, 0
9, 79172, Note_on_c, 8, 66, 0
9, 79188, Note_on_c, 8, 62, 73
9, 79196, Note_on_c, 8, 66, 75
9, 79200, Note_on_c, 8, 69, 0
9, 79208, Note_on_c, 8, 69, 74
9, 79340, Note_on_c, 8, 66, 0
9, 79368, Note_on_c, 8, 66, 74
9, 79488, Note_on_c, 8, 66, 0
9, 79516, Note_on_c, 8, 66, 75
9, 79524, Note_on_c, 8, 69, 0
9, 79532, Note_on_c, 8, 69, 74
9, 79656, Note_on_c, 8, 66, 0
9, 79672, Note_on_c, 8, 69, 0
9, 79692, Note_on_c, 8, 66, 75
9, 79692, Note_on_c, 8, 66, 73
9, 79693, Note_on_c, 8, 66, 0
9, 79720, Note_on_c, 8, 66, 0
9, 79720, Note_on_c, 8, 69, 74
9, 79872, Note_on_c, 8, 66, 75
9, 79980, Note_on_c, 8, 66, 0
9, 80008, Note_on_c, 8, 66, 75
9, 80016, Note_on_c, 8, 69, 0
9, 80028, Note_on_c, 8, 69, 73
9, 80156, Note_on_c, 8, 69, 0
9, 80164, Note_on_c, 8, 66, 0
9, 80176, Note_on_c, 8, 66, 75
9, 80184, Note_on_c, 8, 69, 74
9, 80320, Note_on_c, 8, 70, 23
9, 80328, Note_on_c, 8, 69, 0
9, 80332, Note_on_c, 8, 66, 0
9, 80372, Note_on_c, 8, 69, 73
9, 80376, Note_on_c, 8, 66, 74
9, 80432, Note_on_c, 8, 69, 0
9, 80432, Note_on_c, 8, 70, 0
9, 80432, Note_on_c, 8, 69, 23
9, 80476, Note_on_c, 8, 66, 0
9, 80488, Note_on_c, 8, 66, 75
9, 80492, Note_on_c, 8, 69, 0
9, 80516, Note_on_c, 8, 69, 74
9, 80572, Note_on_c, 8, 69, 0
9, 80628, Note_on_c, 8, 66, 0
9, 80652, Note_on_c, 8, 66, 75
9, 80656, Note_on_c, 8, 67, 73
9, 80676, Note_on_c, 8, 67, 0
9, 80676, Note_on_c, 8, 69, 74
9, 80792, Note_on_c, 8, 66, 0
9, 80812, Note_on_c, 8, 69, 0
9, 80824, Note_on_c, 8, 66, 75
9, 80836, Note_on_c, 8, 69, 73
9, 80948, Note_on_c, 8, 66, 0
9, 80960, Note_on_c, 8, 69, 0
9, 80980, Note_on_c, 8, 66, 75
9, 80988, Note_on_c, 8, 69, 73
9, 81116, Note_on_c, 8, 66, 0
9, 81136, Note_on_c, 8, 66, 75
9, 81140, Note_on_c, 8, 69, 0
9, 81148, Note_on_c, 8, 69, 74
9, 81236, Note_on_c, 8, 62, 0
9, 81272, Note_on_c, 8, 66, 0
9, 81284, Note_on_c, 8, 69, 0
9, 81296, Note_on_c, 8, 66, 75
9, 81320, Note_on_c, 8, 69, 74
9, 81448, Note_on_c, 8, 69, 0
9, 81464, Note_on_c, 8, 69, 73
9, 81588, Note_on_c, 8, 66, 0
9, 81608, Note_on_c, 8, 66, 75
9, 81716, Note_on_c, 8, 68, 28
9, 81752, Note_on_c, 8, 66, 0
9, 81764, Note_on_c, 8, 66, 75
9, 81772, Note_on_c, 8, 68, 0
9, 81772, Note_on_c, 8, 69, 0
9, 81772, Note_on_c, 8, 70, 28
9, 81784, Note_on_c, 8, 69, 75
9, 81792, Note_on_c, 8, 70, 0
9, 81904, Note_on_c, 8, 69, 0
9, 81904, Note_on_c, 8, 66, 0
9, 81916, Note_on_c, 8, 66, 74
9, 81940, Note_on_c, 8, 69, 73
9, 82060, Note_on_c, 8, 66, 0
9, 82076, Note_on_c, 8, 69, 0
9, 82088, Note_on_c, 8, 66, 74
9, 82096, Note_on_c, 8, 69, 74
9, 82212, Note_on_c, 8, 66, 0
9, 82248, Note_on_c, 8, 66, 74
9, 82256, Note_on_c, 8, 69, 0
9, 82256, Note_on_c, 8, 57, 28
9, 82268, Note_on_c, 8, 69, 74
9, 82368, Note_on_c, 8, 66, 0
9, 82400, Note_on_c, 8, 66, 75
9, 82444, Note_on_c, 8, 66, 0
9, 82488, Note_on_c, 8, 57, 0
9, 82492, Note_on_c, 8, 64, 63
9, 82540, Note_on_c, 8, 64, 0
9, 82556, Note_on_c, 8, 61, 74
9, 82560, Note_on_c, 8, 67, 75
9, 82568, Note_on_c, 8, 69, 0
9, 82572, Note_on_c, 8, 71, 74
9, 82588, Note_on_c, 8, 61, 0
9, 82600, Note_on_c, 8, 62, 57
9, 82696, Note_on_c, 8, 67, 0
9, 82724, Note_on_c, 8, 71, 0
9, 82732, Note_on_c, 8, 67, 75
9, 82740, Note_on_c, 8, 71, 74
9, 82856, Note_on_c, 8, 67, 0
9, 82872, Note_on_c, 8, 71, 0
9, 82872, Note_on_c, 8, 67, 75
9, 82880, Note_on_c, 8, 71, 74
9, 83032, Note_on_c, 8, 71, 0
9, 83048, Note_on_c, 8, 71, 75
9, 83216, Note_on_c, 8, 71, 0
9, 83228, Note_on_c, 8, 71, 74
9, 83360, Note_on_c, 8, 71, 0
9, 83364, Note_on_c, 8, 67, 0
9, 83376, Note_on_c, 8, 67, 75
9, 83376, Note_on_c, 8, 76, 73
9, 83396, Note_on_c, 8, 76, 0
9, 83396, Note_on_c, 8, 71, 74
9, 83500, Note_on_c, 8, 62, 0
9, 83528, Note_on_c, 8, 62, 74
9, 83536, Note_on_c, 8, 67, 0
9, 83536, Note_on_c, 8, 55, 43
9, 83548, Note_on_c, 8, 71, 0
9, 83548, Note_on_c, 8, 67, 75
9, 83556, Note_on_c, 8, 71, 74
9, 83696, Note_on_c, 8, 67, 0
9, 83704, Note_on_c, 8, 71, 0
9, 83704, Note_on_c, 8, 67, 75
9, 83716, Note_on_c, 8, 71, 75
9, 83844, Note_on_c, 8, 67, 0
9, 83864, Note_on_c, 8, 67, 75
9, 84008, Note_on_c, 8, 71, 0
9, 84016, Note_on_c, 8, 67, 0
9, 84028, Note_on_c, 8, 67, 75
9, 84036, Note_on_c, 8, 71, 75
9, 84168, Note_on_c, 8, 67, 0
9, 84196, Note_on_c, 8, 71, 0
9, 84208, Note_on_c, 8, 67, 75
9, 84216, Note_on_c, 8, 71, 74
9, 84308, Note_on_c, 8, 67, 0
9, 84340, Note_on_c, 8, 71, 0
9, 84348, Note_on_c, 8, 67, 75
9, 84356, Note_on_c, 8, 71, 70
9, 84484, Note_on_c, 8, 67, 0
9, 84496, Note_on_c, 8, 67, 74
9, 84508, Note_on_c, 8, 71, 0
9, 84516, Note_on_c, 8, 71, 74
9, 84652, Note_on_c, 8, 71, 0
9, 84656, Note_on_c, 8, 67, 0
9, 84668, Note_on_c, 8, 67, 75
9, 84676, Note_on_c, 8, 71, 73
9, 84788, Note_on_c, 8, 67, 0
9, 84824, Note_on_c, 8, 67, 75
9, 84952, Note_on_c, 8, 67, 0
9, 84980, Note_on_c, 8, 71, 0
9, 84988, Note_on_c, 8, 71, 75
9, 84992, Note_on_c, 8, 67, 75
9, 85120, Note_on_c, 8, 67, 0
9, 85140, Note_on_c, 8, 67, 75
9, 85144, Note_on_c, 8, 71, 0
9, 85152, Note_on_c, 8, 71, 74
9, 85256, Note_on_c, 8, 67, 0
9, 85280, Note_on_c, 8, 71, 0
9, 85292, Note_on_c, 8, 67, 75
9, 85304, Note_on_c, 8, 71, 72
9, 85440, Note_on_c, 8, 67, 0
9, 85452, Note_on_c, 8, 67, 74
9, 85464, Note_on_c, 8, 71, 0
9, 85472, Note_on_c, 8, 71, 74
9, 85600, Note_on_c, 8, 67, 0
9, 85616, Note_on_c, 8, 71, 0
9, 85624, Note_on_c, 8, 67, 75
9, 85632, Note_on_c, 8, 71, 73
9, 85736, Note_on_c, 8, 67, 0
9, 85748, Note_on_c, 8, 71, 0
9, 85764, Note_on_c, 8, 67, 75
9, 85788, Note_on_c, 8, 71, 72
9, 85920, Note_on_c, 8, 67, 0
9, 85940, Note_on_c, 8, 67, 75
9, 85944, Note_on_c, 8, 71, 0
9, 85952, Note_on_c, 8, 71, 74
9, 85964, Note_on_c, 8, 62, 0
9, 86076, Note_on_c, 8, 67, 0
9, 86104, Note_on_c, 8, 67, 75
9, 86236, Note_on_c, 8, 67, 0
9, 86248, Note_on_c, 8, 67, 75
9, 86336, Note_on_c, 8, 67, 0
9, 86360, Note_on_c, 8, 71, 0
9, 86360, Note_on_c, 8, 69, 37
9, 86364, Note_on_c, 8, 64, 58
9, 86372, Note_on_c, 8, 60, 40
9, 86380, Note_on_c, 8, 60, 0
9, 86384, Note_on_c, 8, 64, 0
9, 86384, Note_on_c, 8, 55, 0
9, 86404, Note_on_c, 8, 69, 0
9, 86424, Note_on_c, 8, 64, 74
9, 86424, Note_on_c, 8, 56, 40
9, 86424, Note_on_c, 8, 69, 74
9, 86452, Note_on_c, 8, 64, 0
9, 86452, Note_on_c, 8, 66, 75
9, 86560, Note_on_c, 8, 66, 0
9, 86572, Note_on_c, 8, 66, 75
9, 86584, Note_on_c, 8, 69, 0
9, 86592, Note_on_c, 8, 69, 72
9, 86708, Note_on_c, 8, 66, 0
9, 86736, Note_on_c, 8, 69, 0
9, 86736, Note_on_c, 8, 66, 75
9, 86744, Note_on_c, 8, 69, 74
9, 86768, Note_on_c, 8, 56, 0
9, 86880, Note_on_c, 8, 69, 0
9, 86884, Note_on_c, 8, 66, 0
9, 86900, Note_on_c, 8, 66, 75
9, 86904, Note_on_c, 8, 69, 73
9, 87044, Note_on_c, 8, 66, 0
9, 87064, Note_on_c, 8, 69, 0
9, 87076, Note_on_c, 8, 66, 75
9, 87096, Note_on_c, 8, 69, 74
9, 87204, Note_on_c, 8, 69, 0
9, 87204, Note_on_c, 8, 66, 0
9, 87224, Note_on_c, 8, 66, 75
9, 87232, Note_on_c, 8, 69, 74
9, 87356, Note_on_c, 8, 66, 0
9, 87384, Note_on_c, 8, 66, 75
9, 87392, Note_on_c, 8, 69, 0
9, 87400, Note_on_c, 8, 69, 73
9, 87528, Note_on_c, 8, 62, 56
9, 87540, Note_on_c, 8, 66, 0
9, 87552, Note_on_c, 8, 69, 0
9, 87560, Note_on_c, 8, 66, 75
9, 87568, Note_on_c, 8, 69, 70
9, 87648, Note_on_c, 8, 70, 28
9, 87664, Note_on_c, 8, 66, 0
9, 87668, Note_on_c, 8, 62, 0
9, 87680, Note_on_c, 8, 62, 74
9, 87708, Note_on_c, 8, 69, 0
9, 87708, Note_on_c, 8, 66, 75
9, 87724, Note_on_c, 8, 69, 72
9, 87852, Note_on_c, 8, 69, 0
9, 87852, Note_on_c, 8, 66, 0
9, 87864, Note_on_c, 8, 66, 75
9, 87872, Note_on_c, 8, 69, 74
9, 87944, Note_on_c, 8, 70, 0
9, 87944, Note_on_c, 8, 67, 28
9, 88016, Note_on_c, 8, 66, 0
9, 88024, Note_on_c, 8, 66, 75
9, 88028, Note_on_c, 8, 69, 0
9, 88048, Note_on_c, 8, 69, 74
9, 88164, Note_on_c, 8, 66, 0
9, 88176, Note_on_c, 8, 66, 75
9, 88220, Note_on_c, 8, 67, 0
9, 88324, Note_on_c, 8, 69, 0
9, 88356, Note_on_c, 8, 69, 75
9, 88476, Note_on_c, 8, 66, 0
9, 88492, Note_on_c, 8, 69, 0
9, 88504, Note_on_c, 8, 66, 75
9, 88516, Note_on_c, 8, 69, 65
9, 88616, Note_on_c, 8, 66, 0
9, 88632, Note_on_c, 8, 69, 0
9, 88660, Note_on_c, 8, 66, 75
9, 88664, Note_on_c, 8, 69, 73
9, 88784, Note_on_c, 8, 66, 0
9, 88804, Note_on_c, 8, 69, 0
9, 88816, Note_on_c, 8, 66, 75
9, 88820, Note_on_c, 8, 76, 72
9, 88848, Note_on_c, 8, 76, 0
9, 88848, Note_on_c, 8, 69, 74
9, 88944, Note_on_c, 8, 66, 0
9, 88976, Note_on_c, 8, 69, 0
9, 88988, Note_on_c, 8, 66, 75
9, 89004, Note_on_c, 8, 69, 74
9, 89112, Note_on_c, 8, 66, 0
9, 89128, Note_on_c, 8, 69, 0
9, 89140, Note_on_c, 8, 66, 75
9, 89152, Note_on_c, 8, 69, 74
9, 89296, Note_on_c, 8, 66, 0
9, 89316, Note_on_c, 8, 66, 75
9, 89324, Note_on_c, 8, 69, 0
9, 89344, Note_on_c, 8, 69, 73
9, 89476, Note_on_c, 8, 66, 0
9, 89488, Note_on_c, 8, 66, 75
9, 89492, Note_on_c, 8, 69, 0
9, 89500, Note_on_c, 8, 69, 73
9, 89624, Note_on_c, 8, 66, 0
9, 89636, Note_on_c, 8, 66, 75
9, 89644, Note_on_c, 8, 69, 0
9, 89660, Note_on_c, 8, 69, 73
9, 89796, Note_on_c, 8, 66, 0
9, 89808, Note_on_c, 8, 66, 75
9, 89812, Note_on_c, 8, 69, 0
9, 89832, Note_on_c, 8, 69, 74
9, 89960, Note_on_c, 8, 66, 0
9, 89972, Note_on_c, 8, 66, 75
9, 89976, Note_on_c, 8, 69, 0
9, 89988, Note_on_c, 8, 69, 74
9, 90116, Note_on_c, 8, 66, 0
9, 90132, Note_on_c, 8, 69, 0
9, 90136, Note_on_c, 8, 64, 74
9, 90144, Note_on_c, 8, 69, 74
9, 90188, Note_on_c, 8, 62, 0
9, 90192, Note_on_c, 8, 60, 23
9, 90248, Note_on_c, 8, 60, 0
9, 90260, Note_on_c, 8, 57, 34
9, 90272, Note_on_c, 8, 50, 30
9, 90276, Note_on_c, 8, 64, 0
9, 90276, Note_on_c, 8, 61, 74
9, 90292, Note_on_c, 8, 64, 75
9, 90340, Note_on_c, 8, 50, 0
9, 90340, Note_on_c, 8, 52, 28
9, 90448, Note_on_c, 8, 64, 0
9, 90456, Note_on_c, 8, 64, 75
9, 90460, Note_on_c, 8, 69, 0
9, 90480, Note_on_c, 8, 69, 73
9, 90588, Note_on_c, 8, 64, 0
9, 90596, Note_on_c, 8, 69, 0
9, 90604, Note_on_c, 8, 64, 75
9, 90608, Note_on_c, 8, 69, 74
9, 90728, Note_on_c, 8, 64, 0
9, 90756, Note_on_c, 8, 69, 0
9, 90764, Note_on_c, 8, 69, 74
9, 90764, Note_on_c, 8, 64, 75
9, 90904, Note_on_c, 8, 64, 0
9, 90916, Note_on_c, 8, 69, 0
9, 90916, Note_on_c, 8, 64, 75
9, 90932, Note_on_c, 8, 69, 74
9, 90940, Note_on_c, 8, 50, 23
9, 91052, Note_on_c, 8, 64, 0
9, 91060, Note_on_c, 8, 64, 75
9, 91068, Note_on_c, 8, 69, 0
9, 91076, Note_on_c, 8, 69, 74
9, 91220, Note_on_c, 8, 69, 0
9, 91228, Note_on_c, 8, 69, 74
9, 91360, Note_on_c, 8, 64, 0
9, 91380, Note_on_c, 8, 64, 74
9, 91388, Note_on_c, 8, 69, 0
9, 91396, Note_on_c, 8, 69, 74
9, 91508, Note_on_c, 8, 64, 0
9, 91520, Note_on_c, 8, 64, 75
9, 91536, Note_on_c, 8, 69, 0
9, 91544, Note_on_c, 8, 69, 72
9, 91680, Note_on_c, 8, 64, 0
9, 91688, Note_on_c, 8, 64, 75
9, 91696, Note_on_c, 8, 69, 0
9, 91736, Note_on_c, 8, 69, 75
9, 91748, Note_on_c, 8, 50, 0
9, 91836, Note_on_c, 8, 64, 0
9, 91852, Note_on_c, 8, 64, 75
9, 91856, Note_on_c, 8, 69, 0
9, 91872, Note_on_c, 8, 69, 74
9, 91968, Note_on_c, 8, 69, 0
9, 92004, Note_on_c, 8, 69, 73
9, 92016, Note_on_c, 8, 52, 0
9, 92024, Note_on_c, 8, 57, 0
9, 92056, Note_on_c, 8, 55, 28
9, 92060, Note_on_c, 8, 50, 23
9, 92072, Note_on_c, 8, 55, 0
9, 92088, Note_on_c, 8, 61, 0
9, 92088, Note_on_c, 8, 60, 40
9, 92152, Note_on_c, 8, 64, 0
9, 92168, Note_on_c, 8, 69, 0
9, 92184, Note_on_c, 8, 71, 74
9, 92184, Note_on_c, 8, 67, 75
9, 92192, Note_on_c, 8, 60, 0
9, 92208, Note_on_c, 8, 61, 34
9, 92312, Note_on_c, 8, 67, 0
9, 92316, Note_on_c, 8, 51, 30
9, 92320, Note_on_c, 8, 67, 75
9, 92328, Note_on_c, 8, 71, 0
9, 92344, Note_on_c, 8, 71, 72
9, 92352, Note_on_c, 8, 61, 0
9, 92352, Note_on_c, 8, 62, 32
9, 92480, Note_on_c, 8, 71, 0
9, 92504, Note_on_c, 8, 71, 74
9, 92604, Note_on_c, 8, 50, 0
9, 92628, Note_on_c, 8, 67, 0
9, 92636, Note_on_c, 8, 71, 0
9, 92644, Note_on_c, 8, 67, 75
9, 92648, Note_on_c, 8, 71, 74
9, 92780, Note_on_c, 8, 67, 0
9, 92808, Note_on_c, 8, 67, 74
9, 92812, Note_on_c, 8, 71, 0
9, 92832, Note_on_c, 8, 71, 73
9, 92948, Note_on_c, 8, 67, 0
9, 92960, Note_on_c, 8, 71, 0
9, 92968, Note_on_c, 8, 67, 75
9, 92976, Note_on_c, 8, 71, 73
9, 93128, Note_on_c, 8, 67, 0
9, 93140, Note_on_c, 8, 67, 75
9, 93292, Note_on_c, 8, 67, 0
9, 93304, Note_on_c, 8, 71, 0
9, 93304, Note_on_c, 8, 67, 75
9, 93316, Note_on_c, 8, 71, 73
9, 93440, Note_on_c, 8, 67, 0
9, 93456, Note_on_c, 8, 71, 0
9, 93456, Note_on_c, 8, 67, 75
9, 93468, Note_on_c, 8, 71, 67
9, 93624, Note_on_c, 8, 71, 0
9, 93640, Note_on_c, 8, 71, 75
9, 93708, Note_on_c, 8, 51, 0
9, 93776, Note_on_c, 8, 67, 0
9, 93796, Note_on_c, 8, 67, 75
9, 93916, Note_on_c, 8, 67, 0
9, 93932, Note_on_c, 8, 71, 0
9, 93944, Note_on_c, 8, 69, 74
9, 93944, Note_on_c, 8, 64, 75
9, 93984, Note_on_c, 8, 62, 0
9, 93988, Note_on_c, 8, 60, 18
9, 94048, Note_on_c, 8, 60, 0
9, 94052, Note_on_c, 8, 56, 43
9, 94056, Note_on_c, 8, 61, 47
9, 94068, Note_on_c, 8, 64, 0
9, 94080, Note_on_c, 8, 69, 0
9, 94092, Note_on_c, 8, 66, 75
9, 94100, Note_on_c, 8, 69, 72
9, 94104, Note_on_c, 8, 61, 0
9, 94108, Note_on_c, 8, 62, 40
9, 94252, Note_on_c, 8, 69, 0
9, 94260, Note_on_c, 8, 69, 73
9, 94296, Note_on_c, 8, 56, 0
9, 94300, Note_on_c, 8, 57, 13
9, 94376, Note_on_c, 8, 66, 0
9, 94388, Note_on_c, 8, 66, 75
9, 94400, Note_on_c, 8, 69, 0
9, 94420, Note_on_c, 8, 69, 65
9, 94520, Note_on_c, 8, 68, 23
9, 94536, Note_on_c, 8, 68, 0
9, 94540, Note_on_c, 8, 69, 0
9, 94540, Note_on_c, 8, 69, 23
9, 94624, Note_on_c, 8, 69, 0
9, 94708, Note_on_c, 8, 66, 0
9, 94732, Note_on_c, 8, 66, 74
9, 94752, Note_on_c, 8, 69, 69
9, 94832, Note_on_c, 8, 66, 0
9, 94860, Note_on_c, 8, 69, 0
9, 94872, Note_on_c, 8, 66, 75
9, 94884, Note_on_c, 8, 69, 72
9, 95028, Note_on_c, 8, 66, 0
9, 95036, Note_on_c, 8, 69, 0
9, 95036, Note_on_c, 8, 66, 75
9, 95048, Note_on_c, 8, 69, 74
9, 95144, Note_on_c, 8, 70, 23
9, 95172, Note_on_c, 8, 66, 0
9, 95188, Note_on_c, 8, 69, 0
9, 95196, Note_on_c, 8, 66, 75
9, 95212, Note_on_c, 8, 69, 66
9, 95332, Note_on_c, 8, 66, 0
9, 95336, Note_on_c, 8, 70, 0
9, 95340, Note_on_c, 8, 66, 75
9, 95352, Note_on_c, 8, 69, 0
9, 95360, Note_on_c, 8, 69, 72
9, 95484, Note_on_c, 8, 69, 0
9, 95520, Note_on_c, 8, 69, 74
9, 95620, Note_on_c, 8, 57, 0
9, 95640, Note_on_c, 8, 66, 0
9, 95664, Note_on_c, 8, 66, 74
9, 95680, Note_on_c, 8, 69, 0
9, 95688, Note_on_c, 8, 69, 68
9, 95748, Note_on_c, 8, 62, 0
9, 95772, Note_on_c, 8, 66, 0
9, 95796, Note_on_c, 8, 69, 0
9, 95808, Note_on_c, 8, 66, 74
9, 95840, Note_on_c, 8, 69, 74
9, 95964, Note_on_c, 8, 66, 0
9, 95980, Note_on_c, 8, 69, 0
9, 95984, Note_on_c, 8, 66, 74
9, 95988, Note_on_c, 8, 60, 18
9, 95992, Note_on_c, 8, 69, 74
9, 96128, Note_on_c, 8, 66, 0
9, 96148, Note_on_c, 8, 66, 75
9, 96168, Note_on_c, 8, 60, 0
9, 96168, Note_on_c, 8, 62, 18
9, 96260, Note_on_c, 8, 62, 0
9, 96268, Note_on_c, 8, 68, 23
9, 96276, Note_on_c, 8, 66, 0
9, 96284, Note_on_c, 8, 69, 0
9, 96296, Note_on_c, 8, 76, 23
9, 96320, Note_on_c, 8, 69, 73
9, 96328, Note_on_c, 8, 64, 74
9, 96384, Note_on_c, 8, 68, 0
9, 96392, Note_on_c, 8, 76, 0
9, 96404, Note_on_c, 8, 69, 0
9, 96420, Note_on_c, 8, 71, 64
9, 96424, Note_on_c, 8, 64, 0
9, 96456, Note_on_c, 8, 71, 0
9, 96468, Note_on_c, 8, 67, 74
9, 96480, Note_on_c, 8, 71, 74
9, 96560, Note_on_c, 8, 52, 32
9, 96620, Note_on_c, 8, 67, 0
9, 96632, Note_on_c, 8, 67, 75
9, 96668, Note_on_c, 8, 71, 0
9, 96704, Note_on_c, 8, 67, 0
9, 96712, Note_on_c, 8, 67, 30
9, 96748, Note_on_c, 8, 52, 0
9, 96752, Note_on_c, 8, 50, 23
9, 96772, Note_on_c, 8, 62, 18
9, 96776, Note_on_c, 8, 66, 75
9, 96800, Note_on_c, 8, 73, 74
9, 96824, Note_on_c, 8, 66, 0
9, 96828, Note_on_c, 8, 69, 75
9, 96832, Note_on_c, 8, 62, 0
9, 96832, Note_on_c, 8, 63, 28
9, 96872, Note_on_c, 8, 63, 0
9, 96872, Note_on_c, 8, 64, 23
9, 96968, Note_on_c, 8, 50, 0
9, 96968, Note_on_c, 8, 45, 30
9, 97048, Note_on_c, 8, 64, 0
9, 97048, Note_on_c, 8, 63, 18
9, 97092, Note_on_c, 8, 63, 0
9, 97092, Note_on_c, 8, 64, 18
9, 97600, Note_on_c, 8, 69, 0
9, 97624, Note_on_c, 8, 64, 0
9, 97632, Note_on_c, 8, 73, 0
9, 97776, Note_on_c, 8, 67, 0
9, 97812, Note_on_c, 8, 45, 0
9, 97964, Note_on_c, 8, 62, 73
9, 97968, Note_on_c, 8, 66, 69
9, 97968, Note_on_c, 8, 69, 59
9, 98100, Note_on_c, 8, 66, 0
9, 98116, Note_on_c, 8, 69, 0
9, 98132, Note_on_c, 8, 66, 61
9, 98232, Note_on_c, 8, 66, 0
9, 98268, Note_on_c, 8, 69, 58
9, 98272, Note_on_c, 8, 66, 71
9, 98376, Note_on_c, 8, 62, 0
9, 98400, Note_on_c, 8, 66, 0
9, 98400, Note_on_c, 8, 62, 74
9, 98408, Note_on_c, 8, 66, 75
9, 98412, Note_on_c, 8, 69, 0
9, 98420, Note_on_c, 8, 69, 74
9, 98528, Note_on_c, 8, 66, 0
9, 98564, Note_on_c, 8, 69, 0
9, 98580, Note_on_c, 8, 66, 69
9, 98588, Note_on_c, 8, 69, 62
9, 98608, Note_on_c, 8, 50, 23
9, 98696, Note_on_c, 8, 69, 0
9, 98700, Note_on_c, 8, 66, 0
9, 98712, Note_on_c, 8, 66, 73
9, 98724, Note_on_c, 8, 69, 72
9, 98860, Note_on_c, 8, 69, 0
9, 98884, Note_on_c, 8, 69, 74
9, 99012, Note_on_c, 8, 66, 0
9, 99052, Note_on_c, 8, 66, 74
9, 99156, Note_on_c, 8, 66, 0
9, 99176, Note_on_c, 8, 69, 0
9, 99192, Note_on_c, 8, 66, 73
9, 99200, Note_on_c, 8, 69, 70
9, 99340, Note_on_c, 8, 66, 0
9, 99344, Note_on_c, 8, 69, 0
9, 99360, Note_on_c, 8, 66, 74
9, 99364, Note_on_c, 8, 69, 74
9, 99380, Note_on_c, 8, 50, 0
9, 99504, Note_on_c, 8, 66, 0
9, 99524, Note_on_c, 8, 66, 73
9, 99528, Note_on_c, 8, 69, 0
9, 99532, Note_on_c, 8, 69, 73
9, 99628, Note_on_c, 8, 66, 0
9, 99664, Note_on_c, 8, 66, 74
9, 99672, Note_on_c, 8, 69, 0
9, 99680, Note_on_c, 8, 69, 74
9, 99700, Note_on_c, 8, 62, 0
9, 99716, Note_on_c, 8, 66, 0
9, 99732, Note_on_c, 8, 60, 30
9, 99824, Note_on_c, 8, 69, 0
9, 99832, Note_on_c, 8, 67, 74
9, 99836, Note_on_c, 8, 67, 0
9, 99836, Note_on_c, 8, 67, 74
9, 99848, Note_on_c, 8, 60, 0
9, 99852, Note_on_c, 8, 67, 0
9, 99852, Note_on_c, 8, 61, 32
9, 99856, Note_on_c, 8, 71, 74
9, 99992, Note_on_c, 8, 71, 0
9, 99996, Note_on_c, 8, 67, 73
9, 100004, Note_on_c, 8, 71, 72
9, 100088, Note_on_c, 8, 61, 0
9, 100088, Note_on_c, 8, 62, 28
9, 100124, Note_on_c, 8, 67, 0
9, 100136, Note_on_c, 8, 67, 74
9, 100140, Note_on_c, 8, 71, 0
9, 100152, Note_on_c, 8, 71, 72
9, 100296, Note_on_c, 8, 67, 0
9, 100304, Note_on_c, 8, 71, 0
9, 100304, Note_on_c, 8, 67, 75
9, 100316, Note_on_c, 8, 71, 74
9, 100452, Note_on_c, 8, 67, 0
9, 100480, Note_on_c, 8, 71, 0
9, 100480, Note_on_c, 8, 67, 75
9, 100488, Note_on_c, 8, 71, 74
9, 100620, Note_on_c, 8, 67, 0
9, 100632, Note_on_c, 8, 67, 75
9, 100712, Note_on_c, 8, 62, 0
9, 100712, Note_on_c, 8, 61, 23
9, 100788, Note_on_c, 8, 71, 0
9, 100800, Note_on_c, 8, 71, 75
9, 100816, Note_on_c, 8, 61, 0
9, 100968, Note_on_c, 8, 71, 0
9, 100980, Note_on_c, 8, 71, 73
9, 101116, Note_on_c, 8, 71, 0
9, 101136, Note_on_c, 8, 71, 74
9, 101248, Note_on_c, 8, 60, 18
9, 101276, Note_on_c, 8, 71, 0
9, 101276, Note_on_c, 8, 67, 0
9, 101288, Note_on_c, 8, 67, 75
9, 101296, Note_on_c, 8, 71, 75
9, 101444, Note_on_c, 8, 67, 0
9, 101456, Note_on_c, 8, 71, 0
9, 101464, Note_on_c, 8, 67, 74
9, 101472, Note_on_c, 8, 71, 74
9, 101588, Note_on_c, 8, 67, 0
9, 101604, Note_on_c, 8, 67, 75
9, 101680, Note_on_c, 8, 71, 0
9, 101724, Note_on_c, 8, 69, 32
9, 101732, Note_on_c, 8, 60, 0
9, 101748, Note_on_c, 8, 69, 0
9, 101748, Note_on_c, 8, 60, 74
9, 101752, Note_on_c, 8, 67, 0
9, 101768, Note_on_c, 8, 64, 75
9, 101776, Note_on_c, 8, 56, 23
9, 101776, Note_on_c, 8, 69, 74
9, 101784, Note_on_c, 8, 56, 0
9, 101816, Note_on_c, 8, 60, 0
9, 101816, Note_on_c, 8, 62, 74
9, 101820, Note_on_c, 8, 64, 0
9, 101820, Note_on_c, 8, 66, 70
9, 101904, Note_on_c, 8, 66, 0
9, 101924, Note_on_c, 8, 66, 73
9, 101928, Note_on_c, 8, 69, 0
9, 101936, Note_on_c, 8, 69, 72
9, 102040, Note_on_c, 8, 66, 0
9, 102060, Note_on_c, 8, 69, 0
9, 102076, Note_on_c, 8, 66, 75
9, 102084, Note_on_c, 8, 69, 74
9, 102208, Note_on_c, 8, 62, 0
9, 102212, Note_on_c, 8, 66, 0
9, 102228, Note_on_c, 8, 62, 73
9, 102236, Note_on_c, 8, 66, 75
9, 102240, Note_on_c, 8, 69, 0
9, 102248, Note_on_c, 8, 69, 74
9, 102380, Note_on_c, 8, 66, 0
9, 102408, Note_on_c, 8, 66, 74
9, 102528, Note_on_c, 8, 66, 0
9, 102556, Note_on_c, 8, 66, 75
9, 102564, Note_on_c, 8, 69, 0
9, 102572, Note_on_c, 8, 69, 74
9, 102696, Note_on_c, 8, 66, 0
9, 102712, Note_on_c, 8, 69, 0
9, 102732, Note_on_c, 8, 66, 75
9, 102732, Note_on_c, 8, 66, 73
9, 102733, Note_on_c, 8, 66, 0
9, 102760, Note_on_c, 8, 66, 0
9, 102760, Note_on_c, 8, 69, 74
9, 102912, Note_on_c, 8, 66, 75
9, 103020, Note_on_c, 8, 66, 0
9, 103048, Note_on_c, 8, 66, 75
9, 103056, Note_on_c, 8, 69, 0
9, 103068, Note_on_c, 8, 69, 73
9, 103196, Note_on_c, 8, 69, 0
9, 103204, Note_on_c, 8, 66, 0
9, 103216, Note_on_c, 8, 66, 75
9, 103224, Note_on_c, 8, 69, 74
9, 103360, Note_on_c, 8, 70, 23
9, 103368, Note_on_c, 8, 69, 0
9, 103372, Note_on_c, 8, 66, 0
9, 103412, Note_on_c, 8, 69, 73
9, 103416, Note_on_c, 8, 66, 74
9, 103472, Note_on_c, 8, 69, 0
9, 103472, Note_on_c, 8, 70, 0
9, 103472, Note_on_c, 8, 69, 23
9, 103516, Note_on_c, 8, 66, 0
9, 103528, Note_on_c, 8, 66, 75
9, 103532, Note_on_c, 8, 69, 0
9, 103556, Note_on_c, 8, 69, 74
9, 103612, Note_on_c, 8, 69, 0
9, 103668, Note_on_c, 8, 66, 0
9, 103692, Note_on_c, 8, 66, 75
9, 103696, Note_on_c, 8, 67, 73
9, 103716, Note_on_c, 8, 67, 0
9, 103716, Note_on_c, 8, 69, 74
9, 103832, Note_on_c, 8, 66, 0
9, 103852, Note_on_c, 8, 69, 0
9, 103864, Note_on_c, 8, 66, 75
9, 103876, Note_on_c, 8, 69, 73
9, 103988, Note_on_c, 8, 66, 0
9, 104000, Note_on_c, 8, 69, 0
9, 104020, Note_on_c, 8, 66, 75
9, 104028, Note_on_c, 8, 69, 73
9, 104156, Note_on_c, 8, 66, 0
9, 104176, Note_on_c, 8, 66, 75
9, 104180, Note_on_c, 8, 69, 0
9, 104188, Note_on_c, 8, 69, 74
9, 104276, Note_on_c, 8, 62, 0
9, 104312, Note_on_c, 8, 66, 0
9, 104324, Note_on_c, 8, 69, 0
9, 104336, Note_on_c, 8, 66, 75
9, 104360, Note_on_c, 8, 69, 74
9, 104488, Note_on_c, 8, 69, 0
9, 104504, Note_on_c, 8, 69, 73
9, 104628, Note_on_c, 8, 66, 0
9, 104648, Note_on_c, 8, 66, 75
9, 104756, Note_on_c, 8, 68, 28
9, 104792, Note_on_c, 8, 66, 0
9, 104804, Note_on_c, 8, 66, 75
9, 104812, Note_on_c, 8, 68, 0
9, 104812, Note_on_c, 8, 69, 0
9, 104812, Note_on_c, 8, 70, 28
9, 104824, Note_on_c, 8, 69, 75
9, 104832, Note_on_c, 8, 70, 0
9, 104944, Note_on_c, 8, 69, 0
9, 104944, Note_on_c, 8, 66, 0
9, 104956, Note_on_c, 8, 66, 74
9, 104980, Note_on_c, 8, 69, 73
9, 105100, Note_on_c, 8, 66, 0
9, 105116, Note_on_c, 8, 69, 0
9, 105128, Note_on_c, 8, 66, 74
9, 105136, Note_on_c, 8, 69, 74
9, 105252, Note_on_c, 8, 66, 0
9, 105288, Note_on_c, 8, 66, 74
9, 105296, Note_on_c, 8, 69, 0
9, 105296, Note_on_c, 8, 57, 28
9, 105308, Note_on_c, 8, 69, 74
9, 105408, Note_on_c, 8, 66, 0
9, 105440, Note_on_c, 8, 66, 75
9, 105484, Note_on_c, 8, 66, 0
9, 105528, Note_on_c, 8, 57, 0
9, 105532, Note_on_c, 8, 64, 63
9, 105580, Note_on_c, 8, 64, 0
9, 105596, Note_on_c, 8, 61, 74
9, 105600, Note_on_c, 8, 67, 75
9, 105608, Note_on_c, 8, 69, 0
9, 105612, Note_on_c, 8, 71, 74
9, 105628, Note_on_c, 8, 61, 0
9, 105640, Note_on_c, 8, 62, 57
9, 105736, Note_on_c, 8, 67, 0
9, 105764, Note_on_c, 8, 71, 0
9, 105772, Note_on_c, 8, 67, 75
9, 105780, Note_on_c, 8, 71, 74
9, 105896, Note_on_c, 8, 67, 0
9, 105912, Note_on_c, 8, 71, 0
9, 105912, Note_on_c, 8, 67, 75
9, 105920, Note_on_c, 8, 71, 74
9, 106072, Note_on_c, 8, 71, 0
9, 106088, Note_on_c, 8, 71, 75
9, 106256, Note_on_c, 8, 71, 0
9, 106268, Note_on_c, 8, 71, 74
9, 106400, Note_on_c, 8, 71, 0
9, 106404, Note_on_c, 8, 67, 0
9, 106416, Note_on_c, 8, 67, 75
9, 106416, Note_on_c, 8, 76, 73
9, 106436, Note_on_c, 8, 76, 0
9, 106436, Note_on_c, 8, 71, 74
9, 106540, Note_on_c, 8, 62, 0
9, 106568, Note_on_c, 8, 62, 74
9, 106576, Note_on_c, 8, 67, 0
9, 106576, Note_on_c, 8, 55, 43
9, 106588, Note_on_c, 8, 71, 0
9, 106588, Note_on_c, 8, 67, 75
9, 106596, Note_on_c, 8, 71, 74
9, 106736, Note_on_c, 8, 67, 0
9, 106744, Note_on_c, 8, 71, 0
9, 106744, Note_on_c, 8, 67, 75
9, 106756, Note_on_c, 8, 71, 75
9, 106884, Note_on_c, 8, 67, 0
9, 106904, Note_on_c, 8, 67, 75
9, 107048, Note_on_c, 8, 71, 0
9, 107056, Note_on_c, 8, 67, 0
9, 107068, Note_on_c, 8, 67, 75
9, 107076, Note_on_c, 8, 71, 75
9, 107208, Note_on_c, 8, 67, 0
9, 107236, Note_on_c, 8, 71, 0
9, 107248, Note_on_c, 8, 67, 75
9, 107256, Note_on_c, 8, 71, 74
9, 107348, Note_on_c, 8, 67, 0
9, 107380, Note_on_c, 8, 71, 0
9, 107388, Note_on_c, 8, 67, 75
9, 107396, Note_on_c, 8, 71, 70
9, 107524, Note_on_c, 8, 67, 0
9, 107536, Note_on_c, 8, 67, 74
9, 107548, Note_on_c, 8, 71, 0
9, 107556, Note_on_c, 8, 71, 74
9, 107692, Note_on_c, 8, 71, 0
9, 107696, Note_on_c, 8, 67, 0
9, 107708, Note_on_c, 8, 67, 75
9, 107716, Note_on_c, 8, 71, 73
9, 107828, Note_on_c, 8, 67, 0
9, 107864, Note_on_c, 8, 67, 75
9, 107992, Note_on_c, 8, 67, 0
9, 108020, Note_on_c, 8, 71, 0
9, 108028, Note_on_c, 8, 71, 75
9, 108032, Note_on_c, 8, 67, 75
9, 108160, Note_on_c, 8, 67, 0
9, 108180, Note_on_c, 8, 67, 75
9, 108184, Note_on_c, 8, 71, 0
9, 108192, Note_on_c, 8, 71, 74
9, 108296, Note_on_c, 8, 67, 0
9, 108320, Note_on_c, 8, 71, 0
9, 108332, Note_on_c, 8, 67, 75
9, 108344, Note_on_c, 8, 71, 72
9, 108480, Note_on_c, 8, 67, 0
9, 108492, Note_on_c, 8, 67, 74
9, 108504, Note_on_c, 8, 71, 0
9, 108512, Note_on_c, 8, 71, 74
9, 108640, Note_on_c, 8, 67, 0
9, 108656, Note_on_c, 8, 71, 0
9, 108664, Note_on_c, 8, 67, 75
9, 108672, Note_on_c, 8, 71, 73
9, 108776, Note_on_c, 8, 67, 0
9, 108788, Note_on_c, 8, 71, 0
9, 108804, Note_on_c, 8, 67, 75
9, 108828, Note_on_c, 8, 71, 72
9, 108960, Note_on_c, 8, 67, 0
9, 108980, Note_on_c, 8, 67, 75
9, 108984, Note_on_c, 8, 71, 0
9, 108992, Note_on_c, 8, 71, 74
9, 109004, Note_on_c, 8, 62, 0
9, 109116, Note_on_c, 8, 67, 0
9, 109144, Note_on_c, 8, 67, 75
9, 109276, Note_on_c, 8, 67, 0
9, 109288, Note_on_c, 8, 67, 75
9, 109376, Note_on_c, 8, 67, 0
9, 109400, Note_on_c, 8, 71, 0
9, 109400, Note_on_c, 8, 69, 37
9, 109404, Note_on_c, 8, 64, 58
9, 109412, Note_on_c, 8, 60, 40
9, 109420, Note_on_c, 8, 60, 0
9, 109424, Note_on_c, 8, 64, 0
9, 109424, Note_on_c, 8, 55, 0
9, 109444, Note_on_c, 8, 69, 0
9, 109464, Note_on_c, 8, 64, 74
9, 109464, Note_on_c, 8, 56, 40
9, 109464, Note_on_c, 8, 69, 74
9, 109492, Note_on_c, 8, 64, 0
9, 109492, Note_on_c, 8, 66, 75
9, 109600, Note_on_c, 8, 66, 0
9, 109612, Note_on_c, 8, 66, 75
9, 109624, Note_on_c, 8, 69, 0
9, 109632, Note_on_c, 8, 69, 72
9, 109748, Note_on_c, 8, 66, 0
9, 109776, Note_on_c, 8, 69, 0
9, 109776, Note_on_c, 8, 66, 75
9, 109784, Note_on_c, 8, 69, 74
9, 109808, Note_on_c, 8, 56, 0
9, 109920, Note_on_c, 8, 69, 0
9, 109924, Note_on_c, 8, 66, 0
9, 109940, Note_on_c, 8, 66, 75
9, 109944, Note_on_c, 8, 69, 73
9, 110084, Note_on_c, 8, 66, 0
9, 110104, Note_on_c, 8, 69, 0
9, 110116, Note_on_c, 8, 66, 75
9, 110136, Note_on_c, 8, 69, 74
9, 110244, Note_on_c, 8, 69, 0
9, 110244, Note_on_c, 8, 66, 0
9, 110264, Note_on_c, 8, 66, 75
9, 110272, Note_on_c, 8, 69, 74
9, 110396, Note_on_c, 8, 66, 0
9, 110424, Note_on_c, 8, 66, 75
9, 110432, Note_on_c, 8, 69, 0
9, 110440, Note_on_c, 8, 69, 73
9, 110568, Note_on_c, 8, 62, 56
9, 110580, Note_on_c, 8, 66, 0
9, 110592, Note_on_c, 8, 69, 0
9, 110600, Note_on_c, 8, 66, 75
9, 110608, Note_on_c, 8, 69, 70
9, 110688, Note_on_c, 8, 70, 28
9, 110704, Note_on_c, 8, 66, 0
9, 110708, Note_on_c, 8, 62, 0
9, 110720, Note_on_c, 8, 62, 74
9, 110748, Note_on_c, 8, 69, 0
9, 110748, Note_on_c, 8, 66, 75
9, 110764, Note_on_c, 8, 69, 72
9, 110892, Note_on_c, 8, 69, 0
9, 110892, Note_on_c, 8, 66, 0
9, 110904, Note_on_c, 8, 66, 75
9, 110912, Note_on_c, 8, 69, 74
9, 110984, Note_on_c, 8, 70, 0
9, 110984, Note_on_c, 8, 67, 28
9, 111056, Note_on_c, 8, 66, 0
9, 111064, Note_on_c, 8, 66, 75
9, 111068, Note_on_c, 8, 69, 0
9, 111088, Note_on_c, 8, 69, 74
9, 111204, Note_on_c, 8, 66, 0
9, 111216, Note_on_c, 8, 66, 75
9, 111260, Note_on_c, 8, 67, 0
9, 111364, Note_on_c, 8, 69, 0
9, 111396, Note_on_c, 8, 69, 75
9, 111516, Note_on_c, 8, 66, 0
9, 111532, Note_on_c, 8, 69, 0
9, 111544, Note_on_c, 8, 66, 75
9, 111556, Note_on_c, 8, 69, 65
9, 111656, Note_on_c, 8, 66, 0
9, 111672, Note_on_c, 8, 69, 0
9, 111700, Note_on_c, 8, 66, 75
9, 111704, Note_on_c, 8, 69, 73
9, 111824, Note_on_c, 8, 66, 0
9, 111844, Note_on_c, 8, 69, 0
9, 111856, Note_on_c, 8, 66, 75
9, 111860, Note_on_c, 8, 76, 72
9, 111888, Note_on_c, 8, 76, 0
9, 111888, Note_on_c, 8, 69, 74
9, 111984, Note_on_c, 8, 66, 0
9, 112016, Note_on_c, 8, 69, 0
9, 112028, Note_on_c, 8, 66, 75
9, 112044, Note_on_c, 8, 69, 74
9, 112152, Note_on_c, 8, 66, 0
9, 112168, Note_on_c, 8, 69, 0
9, 112180, Note_on_c, 8, 66, 75
9, 112192, Note_on_c, 8, 69, 74
9, 112336, Note_on_c, 8, 66, 0
9, 112356, Note_on_c, 8, 66, 75
9, 112364, Note_on_c, 8, 69, 0
9, 112384, Note_on_c, 8, 69, 73
9, 112516, Note_on_c, 8, 66, 0
9, 112528, Note_on_c, 8, 66, 75
9, 112532, Note_on_c, 8, 69, 0
9, 112540, Note_on_c, 8, 69, 73
9, 112664, Note_on_c, 8, 66, 0
9, 112676, Note_on_c, 8, 66, 75
9, 112684, Note_on_c, 8, 69, 0
9, 112700, Note_on_c, 8, 69, 73
9, 112836, Note_on_c, 8, 66, 0
9, 112848, Note_on_c, 8, 66, 75
9, 112852, Note_on_c, 8, 69, 0
9, 112872, Note_on_c, 8, 69, 74
9, 113000, Note_on_c, 8, 66, 0
9, 113012, Note_on_c, 8, 66, 75
9, 113016, Note_on_c, 8, 69, 0
9, 113028, Note_on_c, 8, 69, 74
9, 113156, Note_on_c, 8, 66, 0
9, 113172, Note_on_c, 8, 69, 0
9, 113176, Note_on_c, 8, 64, 74
9, 113184, Note_on_c, 8, 69, 74
9, 113228, Note_on_c, 8, 62, 0
9, 113232, Note_on_c, 8, 60, 23
9, 113288, Note_on_c, 8, 60, 0
9, 113300, Note_on_c, 8, 57, 34
9, 113312, Note_on_c, 8, 50, 30
9, 113316, Note_on_c, 8, 64, 0
9, 113316, Note_on_c, 8, 61, 74
9, 113332, Note_on_c, 8, 64, 75
9, 113380, Note_on_c, 8, 50, 0
9, 113380, Note_on_c, 8, 52, 28
9, 113488, Note_on_c, 8, 64, 0
9, 113496, Note_on_c, 8, 64, 75
9, 113500, Note_on_c, 8, 69, 0
9, 113520, Note_on_c, 8, 69, 73
9, 113628, Note_on_c, 8, 64, 0
9, 113636, Note_on_c, 8, 69, 0
9, 113644, Note_on_c, 8, 64, 75
9, 113648, Note_on_c, 8, 69, 74
9, 113768, Note_on_c, 8, 64, 0
9, 113796, Note_on_c, 8, 69, 0
9, 113804, Note_on_c, 8, 69, 74
9, 113804, Note_on_c, 8, 64, 75
9, 113940, Note_on_c, 8, 50, 23
9, 113944, Note_on_c, 8, 64, 0
9, 113956, Note_on_c, 8, 69, 0
9, 113956, Note_on_c, 8, 64, 75
9, 113972, Note_on_c, 8, 69, 74
9, 114092, Note_on_c, 8, 64, 0
9, 114100, Note_on_c, 8, 64, 75
9, 114108, Note_on_c, 8, 69, 0
9, 114116, Note_on_c, 8, 69, 74
9, 114260, Note_on_c, 8, 69, 0
9, 114268, Note_on_c, 8, 69, 74
9, 114400, Note_on_c, 8, 64, 0
9, 114420, Note_on_c, 8, 64, 74
9, 114428, Note_on_c, 8, 69, 0
9, 114436, Note_on_c, 8, 69, 74
9, 114548, Note_on_c, 8, 64, 0
9, 114560, Note_on_c, 8, 64, 75
9, 114576, Note_on_c, 8, 69, 0
9, 114584, Note_on_c, 8, 69, 72
9, 114720, Note_on_c, 8, 64, 0
9, 114728, Note_on_c, 8, 64, 75
9, 114736, Note_on_c, 8, 69, 0
9, 114748, Note_on_c, 8, 50, 0
9, 114776, Note_on_c, 8, 69, 75
9, 114876, Note_on_c, 8, 64, 0
9, 114892, Note_on_c, 8, 64, 75
9, 114896, Note_on_c, 8, 69, 0
9, 114912, Note_on_c, 8, 69, 74
9, 115008, Note_on_c, 8, 69, 0
9, 115044, Note_on_c, 8, 69, 73
9, 115056, Note_on_c, 8, 52, 0
9, 115064, Note_on_c, 8, 57, 0
9, 115096, Note_on_c, 8, 55, 28
9, 115100, Note_on_c, 8, 50, 23
9, 115112, Note_on_c, 8, 55, 0
9, 115128, Note_on_c, 8, 61, 0
9, 115128, Note_on_c, 8, 60, 40
9, 115192, Note_on_c, 8, 64, 0
9, 115208, Note_on_c, 8, 69, 0
9, 115224, Note_on_c, 8, 71, 74
9, 115224, Note_on_c, 8, 67, 75
9, 115232, Note_on_c, 8, 60, 0
9, 115248, Note_on_c, 8, 61, 34
9, 115352, Note_on_c, 8, 67, 0
9, 115356, Note_on_c, 8, 51, 30
9, 115360, Note_on_c, 8, 67, 75
9, 115368, Note_on_c, 8, 71, 0
9, 115384, Note_on_c, 8, 71, 72
9, 115392, Note_on_c, 8, 61, 0
9, 115392, Note_on_c, 8, 62, 32
9, 115520, Note_on_c, 8, 71, 0
9, 115544, Note_on_c, 8, 71, 74
9, 115644, Note_on_c, 8, 50, 0
9, 115668, Note_on_c, 8, 67, 0
9, 115676, Note_on_c, 8, 71, 0
9, 115684, Note_on_c, 8, 67, 75
9, 115688, Note_on_c, 8, 71, 74
9, 115820, Note_on_c, 8, 67, 0
9, 115848, Note_on_c, 8, 67, 74
9, 115852, Note_on_c, 8, 71, 0
9, 115872, Note_on_c, 8, 71, 73
9, 115988, Note_on_c, 8, 67, 0
9, 116000, Note_on_c, 8, 71, 0
9, 116008, Note_on_c, 8, 67, 75
9, 116016, Note_on_c, 8, 71, 73
9, 116168, Note_on_c, 8, 67, 0
9, 116180, Note_on_c, 8, 67, 75
9, 116332, Note_on_c, 8, 67, 0
9, 116344, Note_on_c, 8, 71, 0
9, 116344, Note_on_c, 8, 67, 75
9, 116356, Note_on_c, 8, 71, 73
9, 116480, Note_on_c, 8, 67, 0
9, 116496, Note_on_c, 8, 71, 0
9, 116496, Note_on_c, 8, 67, 75
9, 116508, Note_on_c, 8, 71, 67
9, 116664, Note_on_c, 8, 71, 0
9, 116680, Note_on_c, 8, 71, 75
9, 116748, Note_on_c, 8, 51, 0
9, 116816, Note_on_c, 8, 67, 0
9, 116836, Note_on_c, 8, 67, 75
9, 116956, Note_on_c, 8, 67, 0
9, 116972, Note_on_c, 8, 71, 0
9, 116984, Note_on_c, 8, 69, 74
9, 116984, Note_on_c, 8, 64, 75
9, 117024, Note_on_c, 8, 62, 0
9, 117028, Note_on_c, 8, 60, 18
9, 117088, Note_on_c, 8, 60, 0
9, 117092, Note_on_c, 8, 56, 43
9, 117096, Note_on_c, 8, 61, 47
9, 117108, Note_on_c, 8, 64, 0
9, 117120, Note_on_c, 8, 69, 0
9, 117132, Note_on_c, 8, 66, 75
9, 117140, Note_on_c, 8, 69, 72
9, 117144, Note_on_c, 8, 61, 0
9, 117148, Note_on_c, 8, 62, 40
9, 117292, Note_on_c, 8, 69, 0
9, 117300, Note_on_c, 8, 69, 73
9, 117336, Note_on_c, 8, 56, 0
9, 117340, Note_on_c, 8, 57, 13
9, 117416, Note_on_c, 8, 66, 0
9, 117428, Note_on_c, 8, 66, 75
9, 117440, Note_on_c, 8, 69, 0
9, 117460, Note_on_c, 8, 69, 65
9, 117560, Note_on_c, 8, 68, 23
9, 117576, Note_on_c, 8, 68, 0
9, 117580, Note_on_c, 8, 69, 0
9, 117580, Note_on_c, 8, 69, 23
9, 117664, Note_on_c, 8, 69, 0
9, 117748, Note_on_c, 8, 66, 0
9, 117772, Note_on_c, 8, 66, 74
9, 117792, Note_on_c, 8, 69, 69
9, 117872, Note_on_c, 8, 66, 0
9, 117900, Note_on_c, 8, 69, 0
9, 117912, Note_on_c, 8, 66, 75
9, 117924, Note_on_c, 8, 69, 72
9, 118068, Note_on_c, 8, 66, 0
9, 118076, Note_on_c, 8, 69, 0
9, 118076, Note_on_c, 8, 66, 75
9, 118088, Note_on_c, 8, 69, 74
9, 118184, Note_on_c, 8, 70, 23
9, 118212, Note_on_c, 8, 66, 0
9, 118228, Note_on_c, 8, 69, 0
9, 118236, Note_on_c, 8, 66, 75
9, 118252, Note_on_c, 8, 69, 66
9, 118372, Note_on_c, 8, 66, 0
9, 118376, Note_on_c, 8, 70, 0
9, 118380, Note_on_c, 8, 66, 75
9, 118392, Note_on_c, 8, 69, 0
9, 118400, Note_on_c, 8, 69, 72
9, 118524, Note_on_c, 8, 69, 0
9, 118560, Note_on_c, 8, 69, 74
9, 118660, Note_on_c, 8, 57, 0
9, 118680, Note_on_c, 8, 66, 0
9, 118704, Note_on_c, 8, 66, 74
9, 118720, Note_on_c, 8, 69, 0
9, 118728, Note_on_c, 8, 69, 68
9, 118788, Note_on_c, 8, 62, 0
9, 118812, Note_on_c, 8, 66, 0
9, 118836, Note_on_c, 8, 69, 0
9, 118848, Note_on_c, 8, 66, 74
9, 118880, Note_on_c, 8, 69, 74
9, 119004, Note_on_c, 8, 66, 0
9, 119020, Note_on_c, 8, 69, 0
9, 119024, Note_on_c, 8, 66, 74
9, 119028, Note_on_c, 8, 60, 18
9, 119032, Note_on_c, 8, 69, 74
9, 119168, Note_on_c, 8, 66, 0
9, 119188, Note_on_c, 8, 66, 75
9, 119208, Note_on_c, 8, 60, 0
9, 119208, Note_on_c, 8, 62, 18
9, 119300, Note_on_c, 8, 62, 0
9, 119308, Note_on_c, 8, 68, 23
9, 119316, Note_on_c, 8, 66, 0
9, 119324, Note_on_c, 8, 69, 0
9, 119336, Note_on_c, 8, 76, 23
9, 119360, Note_on_c, 8, 69, 73
9, 119368, Note_on_c, 8, 64, 74
9, 119424, Note_on_c, 8, 68, 0
9, 119432, Note_on_c, 8, 76, 0
9, 119444, Note_on_c, 8, 69, 0
9, 119460, Note_on_c, 8, 71, 64
9, 119464, Note_on_c, 8, 64, 0
9, 119496, Note_on_c, 8, 71, 0
9, 119508, Note_on_c, 8, 67, 74
9, 119520, Note_on_c, 8, 71, 74
9, 119600, Note_on_c, 8, 52, 32
9, 119660, Note_on_c, 8, 67, 0
9, 119672, Note_on_c, 8, 67, 75
9, 119708, Note_on_c, 8, 71, 0
9, 119744, Note_on_c, 8, 67, 0
9, 119752, Note_on_c, 8, 67, 30
9, 119788, Note_on_c, 8, 52, 0
9, 119792, Note_on_c, 8, 50, 23
9, 119812, Note_on_c, 8, 62, 18
9, 119816, Note_on_c, 8, 66, 75
9, 119840, Note_on_c, 8, 73, 74
9, 119864, Note_on_c, 8, 66, 0
9, 119868, Note_on_c, 8, 69, 75
9, 119872, Note_on_c, 8, 62, 0
9, 119872, Note_on_c, 8, 63, 28
9, 119912, Note_on_c, 8, 63, 0
9, 119912, Note_on_c, 8, 64, 23
9, 120008, Note_on_c, 8, 50, 0
9, 120008, Note_on_c, 8, 45, 30
9, 120088, Note_on_c, 8, 64, 0
9, 120088, Note_on_c, 8, 63, 18
9, 120132, Note_on_c, 8, 63, 0
9, 120132, Note_on_c, 8, 64, 18
9, 120640, Note_on_c, 8, 69, 0
9, 120664, Note_on_c, 8, 64, 0
9, 120672, Note_on_c, 8, 73, 0
9, 120816, Note_on_c, 8, 67, 0
9, 120852, Note_on_c, 8, 45, 0
9, 120852, End_track
10, 0, Start_track
10, 0, MIDI_port, 0
10, 0, Control_c, 9, 91, 119
10, 0, Control_c, 9, 93, 39
10, 0, Control_c, 9, 121, 0
10, 1, Control_c, 9, 32, 0
10, 18, Control_c, 9, 101, 0
10, 18, Control_c, 9, 100, 0
10, 18, Control_c, 9, 6, 12
10, 18, Control_c, 9, 38, 0
10, 21, Control_c, 9, 11, 127
10, 527, Program_c, 9, 40
10, 528, Control_c, 9, 7, 120
10, 528, Control_c, 9, 10, 63
10, 5816, Note_on_c, 9, 36, 86
10, 5904, Note_on_c, 9, 29, 33
10, 5916, Note_on_c, 9, 29, 0
10, 5980, Note_on_c, 9, 36, 0
10, 6096, Note_on_c, 9, 36, 87
10, 6192, Note_on_c, 9, 36, 0
10, 6260, Note_on_c, 9, 36, 85
10, 6448, Note_on_c, 9, 36, 0
10, 6580, Note_on_c, 9, 36, 86
10, 6680, Note_on_c, 9, 36, 0
10, 6744, Note_on_c, 9, 36, 87
10, 6912, Note_on_c, 9, 36, 0
10, 7060, Note_on_c, 9, 36, 87
10, 7172, Note_on_c, 9, 36, 0
10, 7224, Note_on_c, 9, 36, 87
10, 7400, Note_on_c, 9, 36, 0
10, 7552, Note_on_c, 9, 36, 87
10, 7644, Note_on_c, 9, 36, 0
10, 7712, Note_on_c, 9, 36, 87
10, 7908, Note_on_c, 9, 36, 0
10, 8020, Note_on_c, 9, 36, 86
10, 8128, Note_on_c, 9, 36, 0
10, 8184, Note_on_c, 9, 36, 87
10, 8380, Note_on_c, 9, 36, 0
10, 8508, Note_on_c, 9, 36, 86
10, 8616, Note_on_c, 9, 36, 0
10, 8676, Note_on_c, 9, 36, 86
10, 8864, Note_on_c, 9, 36, 0
10, 9000, Note_on_c, 9, 36, 87
10, 9108, Note_on_c, 9, 36, 0
10, 9160, Note_on_c, 9, 36, 86
10, 9360, Note_on_c, 9, 36, 0
10, 9468, Note_on_c, 9, 36, 86
10, 9572, Note_on_c, 9, 36, 0
10, 9640, Note_on_c, 9, 36, 87
10, 9816, Note_on_c, 9, 36, 0
10, 9952, Note_on_c, 9, 36, 86
10, 10036, Note_on_c, 9, 36, 0
10, 10104, Note_on_c, 9, 36, 87
10, 10312, Note_on_c, 9, 36, 0
10, 10428, Note_on_c, 9, 36, 86
10, 10532, Note_on_c, 9, 36, 0
10, 10600, Note_on_c, 9, 36, 87
10, 10792, Note_on_c, 9, 36, 0
10, 10912, Note_on_c, 9, 36, 87
10, 11004, Note_on_c, 9, 36, 0
10, 11068, Note_on_c, 9, 36, 87
10, 11260, Note_on_c, 9, 36, 0
10, 11364, Note_on_c, 9, 36, 87
10, 11492, Note_on_c, 9, 36, 0
10, 11536, Note_on_c, 9, 36, 87
10, 11716, Note_on_c, 9, 36, 0
10, 11852, Note_on_c, 9, 36, 87
10, 11964, Note_on_c, 9, 36, 0
10, 12028, Note_on_c, 9, 36, 87
10, 12220, Note_on_c, 9, 36, 0
10, 12352, Note_on_c, 9, 36, 87
10, 12456, Note_on_c, 9, 36, 0
10, 12516, Note_on_c, 9, 36, 87
10, 12692, Note_on_c, 9, 36, 0
10, 12824, Note_on_c, 9, 36, 87
10, 12940, Note_on_c, 9, 36, 0
10, 12992, Note_on_c, 9, 36, 87
10, 13192, Note_on_c, 9, 36, 0
10, 13316, Note_on_c, 9, 36, 85
10, 13412, Note_on_c, 9, 36, 0
10, 13480, Note_on_c, 9, 36, 87
10, 13636, Note_on_c, 9, 36, 0
10, 13784, Note_on_c, 9, 36, 85
10, 13896, Note_on_c, 9, 36, 0
10, 13952, Note_on_c, 9, 36, 87
10, 14144, Note_on_c, 9, 36, 0
10, 14264, Note_on_c, 9, 36, 85
10, 14368, Note_on_c, 9, 36, 0
10, 14432, Note_on_c, 9, 36, 86
10, 14588, Note_on_c, 9, 36, 0
10, 14752, Note_on_c, 9, 36, 86
10, 14860, Note_on_c, 9, 36, 0
10, 14924, Note_on_c, 9, 36, 87
10, 15120, Note_on_c, 9, 36, 0
10, 15232, Note_on_c, 9, 36, 86
10, 15340, Note_on_c, 9, 36, 0
10, 15404, Note_on_c, 9, 36, 87
10, 15552, Note_on_c, 9, 36, 0
10, 15728, Note_on_c, 9, 36, 85
10, 15804, Note_on_c, 9, 36, 0
10, 15888, Note_on_c, 9, 36, 88
10, 16044, Note_on_c, 9, 36, 0
10, 16208, Note_on_c, 9, 36, 85
10, 16304, Note_on_c, 9, 36, 0
10, 16376, Note_on_c, 9, 36, 87
10, 16524, Note_on_c, 9, 36, 0
10, 16688, Note_on_c, 9, 36, 85
10, 16780, Note_on_c, 9, 36, 0
10, 16840, Note_on_c, 9, 36, 87
10, 17024, Note_on_c, 9, 36, 0
10, 17172, Note_on_c, 9, 36, 86
10, 17260, Note_on_c, 9, 36, 0
10, 17328, Note_on_c, 9, 36, 87
10, 17484, Note_on_c, 9, 36, 0
10, 17632, Note_on_c, 9, 36, 85
10, 17724, Note_on_c, 9, 36, 0
10, 17784, Note_on_c, 9, 36, 87
10, 17952, Note_on_c, 9, 36, 0
10, 18116, Note_on_c, 9, 36, 87
10, 18204, Note_on_c, 9, 36, 0
10, 18272, Note_on_c, 9, 36, 87
10, 18424, Note_on_c, 9, 36, 0
10, 18596, Note_on_c, 9, 36, 86
10, 18700, Note_on_c, 9, 36, 0
10, 18768, Note_on_c, 9, 36, 87
10, 18944, Note_on_c, 9, 36, 0
10, 19092, Note_on_c, 9, 36, 85
10, 19180, Note_on_c, 9, 36, 0
10, 19244, Note_on_c, 9, 36, 87
10, 19404, Note_on_c, 9, 36, 0
10, 19568, Note_on_c, 9, 36, 87
10, 19664, Note_on_c, 9, 36, 0
10, 19720, Note_on_c, 9, 36, 87
10, 19908, Note_on_c, 9, 36, 0
10, 20064, Note_on_c, 9, 36, 87
10, 20156, Note_on_c, 9, 36, 0
10, 20220, Note_on_c, 9, 36, 87
10, 20388, Note_on_c, 9, 36, 0
10, 20520, Note_on_c, 9, 36, 86
10, 20624, Note_on_c, 9, 36, 0
10, 20676, Note_on_c, 9, 36, 86
10, 20872, Note_on_c, 9, 36, 0
10, 21004, Note_on_c, 9, 36, 87
10, 21104, Note_on_c, 9, 36, 0
10, 21164, Note_on_c, 9, 36, 86
10, 21336, Note_on_c, 9, 36, 0
10, 21468, Note_on_c, 9, 36, 87
10, 21564, Note_on_c, 9, 36, 0
10, 21640, Note_on_c, 9, 36, 87
10, 21820, Note_on_c, 9, 36, 0
10, 21948, Note_on_c, 9, 36, 87
10, 22060, Note_on_c, 9, 36, 0
10, 22132, Note_on_c, 9, 36, 86
10, 22284, Note_on_c, 9, 36, 0
10, 22432, Note_on_c, 9, 36, 86
10, 22536, Note_on_c, 9, 36, 0
10, 22592, Note_on_c, 9, 36, 87
10, 22776, Note_on_c, 9, 36, 0
10, 22920, Note_on_c, 9, 36, 87
10, 23004, Note_on_c, 9, 36, 0
10, 23072, Note_on_c, 9, 36, 86
10, 23264, Note_on_c, 9, 36, 0
10, 23376, Note_on_c, 9, 36, 85
10, 23480, Note_on_c, 9, 36, 0
10, 23544, Note_on_c, 9, 36, 87
10, 23744, Note_on_c, 9, 36, 0
10, 23864, Note_on_c, 9, 36, 76
10, 23948, Note_on_c, 9, 36, 0
10, 24020, Note_on_c, 9, 36, 86
10, 24212, Note_on_c, 9, 36, 0
10, 24320, Note_on_c, 9, 36, 86
10, 24424, Note_on_c, 9, 36, 0
10, 24492, Note_on_c, 9, 36, 86
10, 24676, Note_on_c, 9, 36, 0
10, 24800, Note_on_c, 9, 36, 86
10, 24888, Note_on_c, 9, 36, 0
10, 24968, Note_on_c, 9, 36, 86
10, 25116, Note_on_c, 9, 36, 0
10, 25292, Note_on_c, 9, 36, 74
10, 25356, Note_on_c, 9, 36, 0
10, 25444, Note_on_c, 9, 36, 87
10, 25644, Note_on_c, 9, 36, 0
10, 25788, Note_on_c, 9, 36, 76
10, 25864, Note_on_c, 9, 36, 0
10, 25952, Note_on_c, 9, 36, 87
10, 26116, Note_on_c, 9, 36, 0
10, 26260, Note_on_c, 9, 36, 86
10, 26344, Note_on_c, 9, 36, 0
10, 26428, Note_on_c, 9, 36, 87
10, 26596, Note_on_c, 9, 36, 0
10, 26736, Note_on_c, 9, 36, 86
10, 26824, Note_on_c, 9, 36, 0
10, 26896, Note_on_c, 9, 36, 86
10, 27048, Note_on_c, 9, 36, 0
10, 27216, Note_on_c, 9, 36, 87
10, 27328, Note_on_c, 9, 36, 0
10, 27388, Note_on_c, 9, 36, 87
10, 27556, Note_on_c, 9, 36, 0
10, 27704, Note_on_c, 9, 36, 87
10, 27792, Note_on_c, 9, 36, 0
10, 27880, Note_on_c, 9, 36, 87
10, 28008, Note_on_c, 9, 36, 0
10, 28200, Note_on_c, 9, 36, 86
10, 28300, Note_on_c, 9, 36, 0
10, 28368, Note_on_c, 9, 36, 87
10, 28532, Note_on_c, 9, 36, 0
10, 28680, Note_on_c, 9, 36, 86
10, 28780, Note_on_c, 9, 36, 0
10, 28856, Note_on_c, 9, 36, 86
10, 28944, Note_on_c, 9, 29, 33
10, 28956, Note_on_c, 9, 29, 0
10, 29020, Note_on_c, 9, 36, 0
10, 29136, Note_on_c, 9, 36, 87
10, 29232, Note_on_c, 9, 36, 0
10, 29300, Note_on_c, 9, 36, 85
10, 29488, Note_on_c, 9, 36, 0
10, 29620, Note_on_c, 9, 36, 86
10, 29720, Note_on_c, 9, 36, 0
10, 29784, Note_on_c, 9, 36, 87
10, 29952, Note_on_c, 9, 36, 0
10, 30100, Note_on_c, 9, 36, 87
10, 30212, Note_on_c, 9, 36, 0
10, 30264, Note_on_c, 9, 36, 87
10, 30440, Note_on_c, 9, 36, 0
10, 30592, Note_on_c, 9, 36, 87
10, 30684, Note_on_c, 9, 36, 0
10, 30752, Note_on_c, 9, 36, 87
10, 30948, Note_on_c, 9, 36, 0
10, 31060, Note_on_c, 9, 36, 86
10, 31168, Note_on_c, 9, 36, 0
10, 31224, Note_on_c, 9, 36, 87
10, 31420, Note_on_c, 9, 36, 0
10, 31548, Note_on_c, 9, 36, 86
10, 31656, Note_on_c, 9, 36, 0
10, 31716, Note_on_c, 9, 36, 86
10, 31904, Note_on_c, 9, 36, 0
10, 32040, Note_on_c, 9, 36, 87
10, 32148, Note_on_c, 9, 36, 0
10, 32200, Note_on_c, 9, 36, 86
10, 32400, Note_on_c, 9, 36, 0
10, 32508, Note_on_c, 9, 36, 86
10, 32612, Note_on_c, 9, 36, 0
10, 32680, Note_on_c, 9, 36, 87
10, 32856, Note_on_c, 9, 36, 0
10, 32992, Note_on_c, 9, 36, 86
10, 33076, Note_on_c, 9, 36, 0
10, 33144, Note_on_c, 9, 36, 87
10, 33352, Note_on_c, 9, 36, 0
10, 33468, Note_on_c, 9, 36, 86
10, 33572, Note_on_c, 9, 36, 0
10, 33640, Note_on_c, 9, 36, 87
10, 33832, Note_on_c, 9, 36, 0
10, 33952, Note_on_c, 9, 36, 87
10, 34044, Note_on_c, 9, 36, 0
10, 34108, Note_on_c, 9, 36, 87
10, 34300, Note_on_c, 9, 36, 0
10, 34404, Note_on_c, 9, 36, 87
10, 34532, Note_on_c, 9, 36, 0
10, 34576, Note_on_c, 9, 36, 87
10, 34756, Note_on_c, 9, 36, 0
10, 34892, Note_on_c, 9, 36, 87
10, 35004, Note_on_c, 9, 36, 0
10, 35068, Note_on_c, 9, 36, 87
10, 35260, Note_on_c, 9, 36, 0
10, 35392, Note_on_c, 9, 36, 87
10, 35496, Note_on_c, 9, 36, 0
10, 35556, Note_on_c, 9, 36, 87
10, 35732, Note_on_c, 9, 36, 0
10, 35864, Note_on_c, 9, 36, 87
10, 35980, Note_on_c, 9, 36, 0
10, 36032, Note_on_c, 9, 36, 87
10, 36232, Note_on_c, 9, 36, 0
10, 36356, Note_on_c, 9, 36, 85
10, 36452, Note_on_c, 9, 36, 0
10, 36520, Note_on_c, 9, 36, 87
10, 36676, Note_on_c, 9, 36, 0
10, 36824, Note_on_c, 9, 36, 85
10, 36936, Note_on_c, 9, 36, 0
10, 36992, Note_on_c, 9, 36, 87
10, 37184, Note_on_c, 9, 36, 0
10, 37304, Note_on_c, 9, 36, 85
10, 37408, Note_on_c, 9, 36, 0
10, 37472, Note_on_c, 9, 36, 86
10, 37628, Note_on_c, 9, 36, 0
10, 37792, Note_on_c, 9, 36, 86
10, 37900, Note_on_c, 9, 36, 0
10, 37964, Note_on_c, 9, 36, 87
10, 38160, Note_on_c, 9, 36, 0
10, 38272, Note_on_c, 9, 36, 86
10, 38380, Note_on_c, 9, 36, 0
10, 38444, Note_on_c, 9, 36, 87
10, 38592, Note_on_c, 9, 36, 0
10, 38768, Note_on_c, 9, 36, 85
10, 38844, Note_on_c, 9, 36, 0
10, 38928, Note_on_c, 9, 36, 88
10, 39084, Note_on_c, 9, 36, 0
10, 39248, Note_on_c, 9, 36, 85
10, 39344, Note_on_c, 9, 36, 0
10, 39416, Note_on_c, 9, 36, 87
10, 39564, Note_on_c, 9, 36, 0
10, 39728, Note_on_c, 9, 36, 85
10, 39820, Note_on_c, 9, 36, 0
10, 39880, Note_on_c, 9, 36, 87
10, 40064, Note_on_c, 9, 36, 0
10, 40212, Note_on_c, 9, 36, 86
10, 40300, Note_on_c, 9, 36, 0
10, 40368, Note_on_c, 9, 36, 87
10, 40524, Note_on_c, 9, 36, 0
10, 40672, Note_on_c, 9, 36, 85
10, 40764, Note_on_c, 9, 36, 0
10, 40824, Note_on_c, 9, 36, 87
10, 40992, Note_on_c, 9, 36, 0
10, 41156, Note_on_c, 9, 36, 87
10, 41244, Note_on_c, 9, 36, 0
10, 41312, Note_on_c, 9, 36, 87
10, 41464, Note_on_c, 9, 36, 0
10, 41636, Note_on_c, 9, 36, 86
10, 41740, Note_on_c, 9, 36, 0
10, 41808, Note_on_c, 9, 36, 87
10, 41984, Note_on_c, 9, 36, 0
10, 42132, Note_on_c, 9, 36, 85
10, 42220, Note_on_c, 9, 36, 0
10, 42284, Note_on_c, 9, 36, 87
10, 42444, Note_on_c, 9, 36, 0
10, 42608, Note_on_c, 9, 36, 87
10, 42704, Note_on_c, 9, 36, 0
10, 42760, Note_on_c, 9, 36, 87
10, 42948, Note_on_c, 9, 36, 0
10, 43104, Note_on_c, 9, 36, 87
10, 43196, Note_on_c, 9, 36, 0
10, 43260, Note_on_c, 9, 36, 87
10, 43428, Note_on_c, 9, 36, 0
10, 43560, Note_on_c, 9, 36, 86
10, 43664, Note_on_c, 9, 36, 0
10, 43716, Note_on_c, 9, 36, 86
10, 43912, Note_on_c, 9, 36, 0
10, 44044, Note_on_c, 9, 36, 87
10, 44144, Note_on_c, 9, 36, 0
10, 44204, Note_on_c, 9, 36, 86
10, 44376, Note_on_c, 9, 36, 0
10, 44508, Note_on_c, 9, 36, 87
10, 44604, Note_on_c, 9, 36, 0
10, 44680, Note_on_c, 9, 36, 87
10, 44860, Note_on_c, 9, 36, 0
10, 44988, Note_on_c, 9, 36, 87
10, 45100, Note_on_c, 9, 36, 0
10, 45172, Note_on_c, 9, 36, 86
10, 45324, Note_on_c, 9, 36, 0
10, 45472, Note_on_c, 9, 36, 86
10, 45576, Note_on_c, 9, 36, 0
10, 45632, Note_on_c, 9, 36, 87
10, 45816, Note_on_c, 9, 36, 0
10, 45960, Note_on_c, 9, 36, 87
10, 46044, Note_on_c, 9, 36, 0
10, 46112, Note_on_c, 9, 36, 86
10, 46304, Note_on_c, 9, 36, 0
10, 46416, Note_on_c, 9, 36, 85
10, 46520, Note_on_c, 9, 36, 0
10, 46584, Note_on_c, 9, 36, 87
10, 46784, Note_on_c, 9, 36, 0
10, 46904, Note_on_c, 9, 36, 76
10, 46988, Note_on_c, 9, 36, 0
10, 47060, Note_on_c, 9, 36, 86
10, 47252, Note_on_c, 9, 36, 0
10, 47360, Note_on_c, 9, 36, 86
10, 47464, Note_on_c, 9, 36, 0
10, 47532, Note_on_c, 9, 36, 86
10, 47716, Note_on_c, 9, 36, 0
10, 47840, Note_on_c, 9, 36, 86
10, 47928, Note_on_c, 9, 36, 0
10, 48008, Note_on_c, 9, 36, 86
10, 48156, Note_on_c, 9, 36, 0
10, 48332, Note_on_c, 9, 36, 74
10, 48396, Note_on_c, 9, 36, 0
10, 48484, Note_on_c, 9, 36, 87
10, 48684, Note_on_c, 9, 36, 0
10, 48828, Note_on_c, 9, 36, 76
10, 48904, Note_on_c, 9, 36, 0
10, 48992, Note_on_c, 9, 36, 87
10, 49156, Note_on_c, 9, 36, 0
10, 49300, Note_on_c, 9, 36, 86
10, 49384, Note_on_c, 9, 36, 0
10, 49468, Note_on_c, 9, 36, 87
10, 49636, Note_on_c, 9, 36, 0
10, 49776, Note_on_c, 9, 36, 86
10, 49864, Note_on_c, 9, 36, 0
10, 49936, Note_on_c, 9, 36, 86
10, 50088, Note_on_c, 9, 36, 0
10, 50256, Note_on_c, 9, 36, 87
10, 50368, Note_on_c, 9, 36, 0
10, 50428, Note_on_c, 9, 36, 87
10, 50596, Note_on_c, 9, 36, 0
10, 50744, Note_on_c, 9, 36, 87
10, 50832, Note_on_c, 9, 36, 0
10, 50920, Note_on_c, 9, 36, 87
10, 51048, Note_on_c, 9, 36, 0
10, 51240, Note_on_c, 9, 36, 86
10, 51340, Note_on_c, 9, 36, 0
10, 51408, Note_on_c, 9, 36, 87
10, 51572, Note_on_c, 9, 36, 0
10, 51720, Note_on_c, 9, 36, 86
10, 51820, Note_on_c, 9, 36, 0
10, 51896, Note_on_c, 9, 36, 86
10, 51984, Note_on_c, 9, 29, 33
10, 51996, Note_on_c, 9, 29, 0
10, 52060, Note_on_c, 9, 36, 0
10, 52176, Note_on_c, 9, 36, 87
10, 52272, Note_on_c, 9, 36, 0
10, 52340, Note_on_c, 9, 36, 85
10, 52528, Note_on_c, 9, 36, 0
10, 52660, Note_on_c, 9, 36, 86
10, 52760, Note_on_c, 9, 36, 0
10, 52824, Note_on_c, 9, 36, 87
10, 52992, Note_on_c, 9, 36, 0
10, 53140, Note_on_c, 9, 36, 87
10, 53252, Note_on_c, 9, 36, 0
10, 53304, Note_on_c, 9, 36, 87
10, 53480, Note_on_c, 9, 36, 0
10, 53632, Note_on_c, 9, 36, 87
10, 53724, Note_on_c, 9, 36, 0
10, 53792, Note_on_c, 9, 36, 87
10, 53988, Note_on_c, 9, 36, 0
10, 54100, Note_on_c, 9, 36, 86
10, 54208, Note_on_c, 9, 36, 0
10, 54264, Note_on_c, 9, 36, 87
10, 54460, Note_on_c, 9, 36, 0
10, 54588, Note_on_c, 9, 36, 86
10, 54696, Note_on_c, 9, 36, 0
10, 54756, Note_on_c, 9, 36, 86
10, 54944, Note_on_c, 9, 36, 0
10, 55080, Note_on_c, 9, 36, 87
10, 55188, Note_on_c, 9, 36, 0
10, 55240, Note_on_c, 9, 36, 86
10, 55440, Note_on_c, 9, 36, 0
10, 55548, Note_on_c, 9, 36, 86
10, 55652, Note_on_c, 9, 36, 0
10, 55720, Note_on_c, 9, 36, 87
10, 55896, Note_on_c, 9, 36, 0
10, 56032, Note_on_c, 9, 36, 86
10, 56116, Note_on_c, 9, 36, 0
10, 56184, Note_on_c, 9, 36, 87
10, 56392, Note_on_c, 9, 36, 0
10, 56508, Note_on_c, 9, 36, 86
10, 56612, Note_on_c, 9, 36, 0
10, 56680, Note_on_c, 9, 36, 87
10, 56872, Note_on_c, 9, 36, 0
10, 56992, Note_on_c, 9, 36, 87
10, 57084, Note_on_c, 9, 36, 0
10, 57148, Note_on_c, 9, 36, 87
10, 57340, Note_on_c, 9, 36, 0
10, 57444, Note_on_c, 9, 36, 87
10, 57572, Note_on_c, 9, 36, 0
10, 57616, Note_on_c, 9, 36, 87
10, 57796, Note_on_c, 9, 36, 0
10, 57932, Note_on_c, 9, 36, 87
10, 58044, Note_on_c, 9, 36, 0
10, 58108, Note_on_c, 9, 36, 87
10, 58300, Note_on_c, 9, 36, 0
10, 58432, Note_on_c, 9, 36, 87
10, 58536, Note_on_c, 9, 36, 0
10, 58596, Note_on_c, 9, 36, 87
10, 58772, Note_on_c, 9, 36, 0
10, 58904, Note_on_c, 9, 36, 87
10, 59020, Note_on_c, 9, 36, 0
10, 59072, Note_on_c, 9, 36, 87
10, 59272, Note_on_c, 9, 36, 0
10, 59396, Note_on_c, 9, 36, 85
10, 59492, Note_on_c, 9, 36, 0
10, 59560, Note_on_c, 9, 36, 87
10, 59716, Note_on_c, 9, 36, 0
10, 59864, Note_on_c, 9, 36, 85
10, 59976, Note_on_c, 9, 36, 0
10, 60032, Note_on_c, 9, 36, 87
10, 60224, Note_on_c, 9, 36, 0
10, 60344, Note_on_c, 9, 36, 85
10, 60448, Note_on_c, 9, 36, 0
10, 60512, Note_on_c, 9, 36, 86
10, 60668, Note_on_c, 9, 36, 0
10, 60832, Note_on_c, 9, 36, 86
10, 60940, Note_on_c, 9, 36, 0
10, 61004, Note_on_c, 9, 36, 87
10, 61200, Note_on_c, 9, 36, 0
10, 61312, Note_on_c, 9, 36, 86
10, 61420, Note_on_c, 9, 36, 0
10, 61484, Note_on_c, 9, 36, 87
10, 61632, Note_on_c, 9, 36, 0
10, 61808, Note_on_c, 9, 36, 85
10, 61884, Note_on_c, 9, 36, 0
10, 61968, Note_on_c, 9, 36, 88
10, 62124, Note_on_c, 9, 36, 0
10, 62288, Note_on_c, 9, 36, 85
10, 62384, Note_on_c, 9, 36, 0
10, 62456, Note_on_c, 9, 36, 87
10, 62604, Note_on_c, 9, 36, 0
10, 62768, Note_on_c, 9, 36, 85
10, 62860, Note_on_c, 9, 36, 0
10, 62920, Note_on_c, 9, 36, 87
10, 63104, Note_on_c, 9, 36, 0
10, 63252, Note_on_c, 9, 36, 86
10, 63340, Note_on_c, 9, 36, 0
10, 63408, Note_on_c, 9, 36, 87
10, 63564, Note_on_c, 9, 36, 0
10, 63712, Note_on_c, 9, 36, 85
10, 63804, Note_on_c, 9, 36, 0
10, 63864, Note_on_c, 9, 36, 87
10, 64032, Note_on_c, 9, 36, 0
10, 64196, Note_on_c, 9, 36, 87
10, 64284, Note_on_c, 9, 36, 0
10, 64352, Note_on_c, 9, 36, 87
10, 64504, Note_on_c, 9, 36, 0
10, 64676, Note_on_c, 9, 36, 86
10, 64780, Note_on_c, 9, 36, 0
10, 64848, Note_on_c, 9, 36, 87
10, 65024, Note_on_c, 9, 36, 0
10, 65172, Note_on_c, 9, 36, 85
10, 65260, Note_on_c, 9, 36, 0
10, 65324, Note_on_c, 9, 36, 87
10, 65484, Note_on_c, 9, 36, 0
10, 65648, Note_on_c, 9, 36, 87
10, 65744, Note_on_c, 9, 36, 0
10, 65800, Note_on_c, 9, 36, 87
10, 65988, Note_on_c, 9, 36, 0
10, 66144, Note_on_c, 9, 36, 87
10, 66236, Note_on_c, 9, 36, 0
10, 66300, Note_on_c, 9, 36, 87
10, 66468, Note_on_c, 9, 36, 0
10, 66600, Note_on_c, 9, 36, 86
10, 66704, Note_on_c, 9, 36, 0
10, 66756, Note_on_c, 9, 36, 86
10, 66952, Note_on_c, 9, 36, 0
10, 67084, Note_on_c, 9, 36, 87
10, 67184, Note_on_c, 9, 36, 0
10, 67244, Note_on_c, 9, 36, 86
10, 67416, Note_on_c, 9, 36, 0
10, 67548, Note_on_c, 9, 36, 87
10, 67644, Note_on_c, 9, 36, 0
10, 67720, Note_on_c, 9, 36, 87
10, 67900, Note_on_c, 9, 36, 0
10, 68028, Note_on_c, 9, 36, 87
10, 68140, Note_on_c, 9, 36, 0
10, 68212, Note_on_c, 9, 36, 86
10, 68364, Note_on_c, 9, 36, 0
10, 68512, Note_on_c, 9, 36, 86
10, 68616, Note_on_c, 9, 36, 0
10, 68672, Note_on_c, 9, 36, 87
10, 68856, Note_on_c, 9, 36, 0
10, 69000, Note_on_c, 9, 36, 87
10, 69084, Note_on_c, 9, 36, 0
10, 69152, Note_on_c, 9, 36, 86
10, 69344, Note_on_c, 9, 36, 0
10, 69456, Note_on_c, 9, 36, 85
10, 69560, Note_on_c, 9, 36, 0
10, 69624, Note_on_c, 9, 36, 87
10, 69824, Note_on_c, 9, 36, 0
10, 69944, Note_on_c, 9, 36, 76
10, 70028, Note_on_c, 9, 36, 0
10, 70100, Note_on_c, 9, 36, 86
10, 70292, Note_on_c, 9, 36, 0
10, 70400, Note_on_c, 9, 36, 86
10, 70504, Note_on_c, 9, 36, 0
10, 70572, Note_on_c, 9, 36, 86
10, 70756, Note_on_c, 9, 36, 0
10, 70880, Note_on_c, 9, 36, 86
10, 70968, Note_on_c, 9, 36, 0
10, 71048, Note_on_c, 9, 36, 86
10, 71196, Note_on_c, 9, 36, 0
10, 71372, Note_on_c, 9, 36, 74
10, 71436, Note_on_c, 9, 36, 0
10, 71524, Note_on_c, 9, 36, 87
10, 71724, Note_on_c, 9, 36, 0
10, 71868, Note_on_c, 9, 36, 76
10, 71944, Note_on_c, 9, 36, 0
10, 72032, Note_on_c, 9, 36, 87
10, 72196, Note_on_c, 9, 36, 0
10, 72340, Note_on_c, 9, 36, 86
10, 72424, Note_on_c, 9, 36, 0
10, 72508, Note_on_c, 9, 36, 87
10, 72676, Note_on_c, 9, 36, 0
10, 72816, Note_on_c, 9, 36, 86
10, 72904, Note_on_c, 9, 36, 0
10, 72976, Note_on_c, 9, 36, 86
10, 73128, Note_on_c, 9, 36, 0
10, 73296, Note_on_c, 9, 36, 87
10, 73408, Note_on_c, 9, 36, 0
10, 73468, Note_on_c, 9, 36, 87
10, 73636, Note_on_c, 9, 36, 0
10, 73784, Note_on_c, 9, 36, 87
10, 73872, Note_on_c, 9, 36, 0
10, 73960, Note_on_c, 9, 36, 87
10, 74088, Note_on_c, 9, 36, 0
10, 74280, Note_on_c, 9, 36, 86
10, 74380, Note_on_c, 9, 36, 0
10, 74448, Note_on_c, 9, 36, 87
10, 74612, Note_on_c, 9, 36, 0
10, 74760, Note_on_c, 9, 36, 86
10, 74860, Note_on_c, 9, 36, 0
10, 74936, Note_on_c, 9, 36, 86
10, 75024, Note_on_c, 9, 29, 33
10, 75036, Note_on_c, 9, 29, 0
10, 75100, Note_on_c, 9, 36, 0
10, 75216, Note_on_c, 9, 36, 87
10, 75312, Note_on_c, 9, 36, 0
10, 75380, Note_on_c, 9, 36, 85
10, 75568, Note_on_c, 9, 36, 0
10, 75700, Note_on_c, 9, 36, 86
10, 75800, Note_on_c, 9, 36, 0
10, 75864, Note_on_c, 9, 36, 87
10, 76032, Note_on_c, 9, 36, 0
10, 76180, Note_on_c, 9, 36, 87
10, 76292, Note_on_c, 9, 36, 0
10, 76344, Note_on_c, 9, 36, 87
10, 76520, Note_on_c, 9, 36, 0
10, 76672, Note_on_c, 9, 36, 87
10, 76764, Note_on_c, 9, 36, 0
10, 76832, Note_on_c, 9, 36, 87
10, 77028, Note_on_c, 9, 36, 0
10, 77140, Note_on_c, 9, 36, 86
10, 77248, Note_on_c, 9, 36, 0
10, 77304, Note_on_c, 9, 36, 87
10, 77500, Note_on_c, 9, 36, 0
10, 77628, Note_on_c, 9, 36, 86
10, 77736, Note_on_c, 9, 36, 0
10, 77796, Note_on_c, 9, 36, 86
10, 77984, Note_on_c, 9, 36, 0
10, 78120, Note_on_c, 9, 36, 87
10, 78228, Note_on_c, 9, 36, 0
10, 78280, Note_on_c, 9, 36, 86
10, 78480, Note_on_c, 9, 36, 0
10, 78588, Note_on_c, 9, 36, 86
10, 78692, Note_on_c, 9, 36, 0
10, 78760, Note_on_c, 9, 36, 87
10, 78936, Note_on_c, 9, 36, 0
10, 79072, Note_on_c, 9, 36, 86
10, 79156, Note_on_c, 9, 36, 0
10, 79224, Note_on_c, 9, 36, 87
10, 79432, Note_on_c, 9, 36, 0
10, 79548, Note_on_c, 9, 36, 86
10, 79652, Note_on_c, 9, 36, 0
10, 79720, Note_on_c, 9, 36, 87
10, 79912, Note_on_c, 9, 36, 0
10, 80032, Note_on_c, 9, 36, 87
10, 80124, Note_on_c, 9, 36, 0
10, 80188, Note_on_c, 9, 36, 87
10, 80380, Note_on_c, 9, 36, 0
10, 80484, Note_on_c, 9, 36, 87
10, 80612, Note_on_c, 9, 36, 0
10, 80656, Note_on_c, 9, 36, 87
10, 80836, Note_on_c, 9, 36, 0
10, 80972, Note_on_c, 9, 36, 87
10, 81084, Note_on_c, 9, 36, 0
10, 81148, Note_on_c, 9, 36, 87
10, 81340, Note_on_c, 9, 36, 0
10, 81472, Note_on_c, 9, 36, 87
10, 81576, Note_on_c, 9, 36, 0
10, 81636, Note_on_c, 9, 36, 87
10, 81812, Note_on_c, 9, 36, 0
10, 81944, Note_on_c, 9, 36, 87
10, 82060, Note_on_c, 9, 36, 0
10, 82112, Note_on_c, 9, 36, 87
10, 82312, Note_on_c, 9, 36, 0
10, 82436, Note_on_c, 9, 36, 85
10, 82532, Note_on_c, 9, 36, 0
10, 82600, Note_on_c, 9, 36, 87
10, 82756, Note_on_c, 9, 36, 0
10, 82904, Note_on_c, 9, 36, 85
10, 83016, Note_on_c, 9, 36, 0
10, 83072, Note_on_c, 9, 36, 87
10, 83264, Note_on_c, 9, 36, 0
10, 83384, Note_on_c, 9, 36, 85
10, 83488, Note_on_c, 9, 36, 0
10, 83552, Note_on_c, 9, 36, 86
10, 83708, Note_on_c, 9, 36, 0
10, 83872, Note_on_c, 9, 36, 86
10, 83980, Note_on_c, 9, 36, 0
10, 84044, Note_on_c, 9, 36, 87
10, 84240, Note_on_c, 9, 36, 0
10, 84352, Note_on_c, 9, 36, 86
10, 84460, Note_on_c, 9, 36, 0
10, 84524, Note_on_c, 9, 36, 87
10, 84672, Note_on_c, 9, 36, 0
10, 84848, Note_on_c, 9, 36, 85
10, 84924, Note_on_c, 9, 36, 0
10, 85008, Note_on_c, 9, 36, 88
10, 85164, Note_on_c, 9, 36, 0
10, 85328, Note_on_c, 9, 36, 85
10, 85424, Note_on_c, 9, 36, 0
10, 85496, Note_on_c, 9, 36, 87
10, 85644, Note_on_c, 9, 36, 0
10, 85808, Note_on_c, 9, 36, 85
10, 85900, Note_on_c, 9, 36, 0
10, 85960, Note_on_c, 9, 36, 87
10, 86144, Note_on_c, 9, 36, 0
10, 86292, Note_on_c, 9, 36, 86
10, 86380, Note_on_c, 9, 36, 0
10, 86448, Note_on_c, 9, 36, 87
10, 86604, Note_on_c, 9, 36, 0
10, 86752, Note_on_c, 9, 36, 85
10, 86844, Note_on_c, 9, 36, 0
10, 86904, Note_on_c, 9, 36, 87
10, 87072, Note_on_c, 9, 36, 0
10, 87236, Note_on_c, 9, 36, 87
10, 87324, Note_on_c, 9, 36, 0
10, 87392, Note_on_c, 9, 36, 87
10, 87544, Note_on_c, 9, 36, 0
10, 87716, Note_on_c, 9, 36, 86
10, 87820, Note_on_c, 9, 36, 0
10, 87888, Note_on_c, 9, 36, 87
10, 88064, Note_on_c, 9, 36, 0
10, 88212, Note_on_c, 9, 36, 85
10, 88300, Note_on_c, 9, 36, 0
10, 88364, Note_on_c, 9, 36, 87
10, 88524, Note_on_c, 9, 36, 0
10, 88688, Note_on_c, 9, 36, 87
10, 88784, Note_on_c, 9, 36, 0
10, 88840, Note_on_c, 9, 36, 87
10, 89028, Note_on_c, 9, 36, 0
10, 89184, Note_on_c, 9, 36, 87
10, 89276, Note_on_c, 9, 36, 0
10, 89340, Note_on_c, 9, 36, 87
10, 89508, Note_on_c, 9, 36, 0
10, 89640, Note_on_c, 9, 36, 86
10, 89744, Note_on_c, 9, 36, 0
10, 89796, Note_on_c, 9, 36, 86
10, 89992, Note_on_c, 9, 36, 0
10, 90124, Note_on_c, 9, 36, 87
10, 90224, Note_on_c, 9, 36, 0
10, 90284, Note_on_c, 9, 36, 86
10, 90456, Note_on_c, 9, 36, 0
10, 90588, Note_on_c, 9, 36, 87
10, 90684, Note_on_c, 9, 36, 0
10, 90760, Note_on_c, 9, 36, 87
10, 90940, Note_on_c, 9, 36, 0
10, 91068, Note_on_c, 9, 36, 87
10, 91180, Note_on_c, 9, 36, 0
10, 91252, Note_on_c, 9, 36, 86
10, 91404, Note_on_c, 9, 36, 0
10, 91552, Note_on_c, 9, 36, 86
10, 91656, Note_on_c, 9, 36, 0
10, 91712, Note_on_c, 9, 36, 87
10, 91896, Note_on_c, 9, 36, 0
10, 92040, Note_on_c, 9, 36, 87
10, 92124, Note_on_c, 9, 36, 0
10, 92192, Note_on_c, 9, 36, 86
10, 92384, Note_on_c, 9, 36, 0
10, 92496, Note_on_c, 9, 36, 85
10, 92600, Note_on_c, 9, 36, 0
10, 92664, Note_on_c, 9, 36, 87
10, 92864, Note_on_c, 9, 36, 0
10, 92984, Note_on_c, 9, 36, 76
10, 93068, Note_on_c, 9, 36, 0
10, 93140, Note_on_c, 9, 36, 86
10, 93332, Note_on_c, 9, 36, 0
10, 93440, Note_on_c, 9, 36, 86
10, 93544, Note_on_c, 9, 36, 0
10, 93612, Note_on_c, 9, 36, 86
10, 93796, Note_on_c, 9, 36, 0
10, 93920, Note_on_c, 9, 36, 86
10, 94008, Note_on_c, 9, 36, 0
10, 94088, Note_on_c, 9, 36, 86
10, 94236, Note_on_c, 9, 36, 0
10, 94412, Note_on_c, 9, 36, 74
10, 94476, Note_on_c, 9, 36, 0
10, 94564, Note_on_c, 9, 36, 87
10, 94764, Note_on_c, 9, 36, 0
10, 94908, Note_on_c, 9, 36, 76
10, 94984, Note_on_c, 9, 36, 0
10, 95072, Note_on_c, 9, 36, 87
10, 95236, Note_on_c, 9, 36, 0
10, 95380, Note_on_c, 9, 36, 86
10, 95464, Note_on_c, 9, 36, 0
10, 95548, Note_on_c, 9, 36, 87
10, 95716, Note_on_c, 9, 36, 0
10, 95856, Note_on_c, 9, 36, 86
10, 95944, Note_on_c, 9, 36, 0
10, 96016, Note_on_c, 9, 36, 86
10, 96168, Note_on_c, 9, 36, 0
10, 96336, Note_on_c, 9, 36, 87
10, 96448, Note_on_c, 9, 36, 0
10, 96508, Note_on_c, 9, 36, 87
10, 96676, Note_on_c, 9, 36, 0
10, 96824, Note_on_c, 9, 36, 87
10, 96912, Note_on_c, 9, 36, 0
10, 97000, Note_on_c, 9, 36, 87
10, 97128, Note_on_c, 9, 36, 0
10, 97320, Note_on_c, 9, 36, 86
10, 97420, Note_on_c, 9, 36, 0
10, 97488, Note_on_c, 9, 36, 87
10, 97652, Note_on_c, 9, 36, 0
10, 97800, Note_on_c, 9, 36, 86
10, 97900, Note_on_c, 9, 36, 0
10, 97976, Note_on_c, 9, 36, 86
10, 98064, Note_on_c, 9, 29, 33
10, 98076, Note_on_c, 9, 29, 0
10, 98140, Note_on_c, 9, 36, 0
10, 98256, Note_on_c, 9, 36, 87
10, 98352, Note_on_c, 9, 36, 0
10, 98420, Note_on_c, 9, 36, 85
10, 98608, Note_on_c, 9, 36, 0
10, 98740, Note_on_c, 9, 36, 86
10, 98840, Note_on_c, 9, 36, 0
10, 98904, Note_on_c, 9, 36, 87
10, 99072, Note_on_c, 9, 36, 0
10, 99220, Note_on_c, 9, 36, 87
10, 99332, Note_on_c, 9, 36, 0
10, 99384, Note_on_c, 9, 36, 87
10, 99560, Note_on_c, 9, 36, 0
10, 99712, Note_on_c, 9, 36, 87
10, 99804, Note_on_c, 9, 36, 0
10, 99872, Note_on_c, 9, 36, 87
10, 100068, Note_on_c, 9, 36, 0
10, 100180, Note_on_c, 9, 36, 86
10, 100288, Note_on_c, 9, 36, 0
10, 100344, Note_on_c, 9, 36, 87
10, 100540, Note_on_c, 9, 36, 0
10, 100668, Note_on_c, 9, 36, 86
10, 100776, Note_on_c, 9, 36, 0
10, 100836, Note_on_c, 9, 36, 86
10, 101024, Note_on_c, 9, 36, 0
10, 101160, Note_on_c, 9, 36, 87
10, 101268, Note_on_c, 9, 36, 0
10, 101320, Note_on_c, 9, 36, 86
10, 101520, Note_on_c, 9, 36, 0
10, 101628, Note_on_c, 9, 36, 86
10, 101732, Note_on_c, 9, 36, 0
10, 101800, Note_on_c, 9, 36, 87
10, 101976, Note_on_c, 9, 36, 0
10, 102112, Note_on_c, 9, 36, 86
10, 102196, Note_on_c, 9, 36, 0
10, 102264, Note_on_c, 9, 36, 87
10, 102472, Note_on_c, 9, 36, 0
10, 102588, Note_on_c, 9, 36, 86
10, 102692, Note_on_c, 9, 36, 0
10, 102760, Note_on_c, 9, 36, 87
10, 102952, Note_on_c, 9, 36, 0
10, 103072, Note_on_c, 9, 36, 87
10, 103164, Note_on_c, 9, 36, 0
10, 103228, Note_on_c, 9, 36, 87
10, 103420, Note_on_c, 9, 36, 0
10, 103524, Note_on_c, 9, 36, 87
10, 103652, Note_on_c, 9, 36, 0
10, 103696, Note_on_c, 9, 36, 87
10, 103876, Note_on_c, 9, 36, 0
10, 104012, Note_on_c, 9, 36, 87
10, 104124, Note_on_c, 9, 36, 0
10, 104188, Note_on_c, 9, 36, 87
10, 104380, Note_on_c, 9, 36, 0
10, 104512, Note_on_c, 9, 36, 87
10, 104616, Note_on_c, 9, 36, 0
10, 104676, Note_on_c, 9, 36, 87
10, 104852, Note_on_c, 9, 36, 0
10, 104984, Note_on_c, 9, 36, 87
10, 105100, Note_on_c, 9, 36, 0
10, 105152, Note_on_c, 9, 36, 87
10, 105352, Note_on_c, 9, 36, 0
10, 105476, Note_on_c, 9, 36, 85
10, 105572, Note_on_c, 9, 36, 0
10, 105640, Note_on_c, 9, 36, 87
10, 105796, Note_on_c, 9, 36, 0
10, 105944, Note_on_c, 9, 36, 85
10, 106056, Note_on_c, 9, 36, 0
10, 106112, Note_on_c, 9, 36, 87
10, 106304, Note_on_c, 9, 36, 0
10, 106424, Note_on_c, 9, 36, 85
10, 106528, Note_on_c, 9, 36, 0
10, 106592, Note_on_c, 9, 36, 86
10, 106748, Note_on_c, 9, 36, 0
10, 106912, Note_on_c, 9, 36, 86
10, 107020, Note_on_c, 9, 36, 0
10, 107084, Note_on_c, 9, 36, 87
10, 107280, Note_on_c, 9, 36, 0
10, 107392, Note_on_c, 9, 36, 86
10, 107500, Note_on_c, 9, 36, 0
10, 107564, Note_on_c, 9, 36, 87
10, 107712, Note_on_c, 9, 36, 0
10, 107888, Note_on_c, 9, 36, 85
10, 107964, Note_on_c, 9, 36, 0
10, 108048, Note_on_c, 9, 36, 88
10, 108204, Note_on_c, 9, 36, 0
10, 108368, Note_on_c, 9, 36, 85
10, 108464, Note_on_c, 9, 36, 0
10, 108536, Note_on_c, 9, 36, 87
10, 108684, Note_on_c, 9, 36, 0
10, 108848, Note_on_c, 9, 36, 85
10, 108940, Note_on_c, 9, 36, 0
10, 109000, Note_on_c, 9, 36, 87
10, 109184, Note_on_c, 9, 36, 0
10, 109332, Note_on_c, 9, 36, 86
10, 109420, Note_on_c, 9, 36, 0
10, 109488, Note_on_c, 9, 36, 87
10, 109644, Note_on_c, 9, 36, 0
10, 109792, Note_on_c, 9, 36, 85
10, 109884, Note_on_c, 9, 36, 0
10, 109944, Note_on_c, 9, 36, 87
10, 110112, Note_on_c, 9, 36, 0
10, 110276, Note_on_c, 9, 36, 87
10, 110364, Note_on_c, 9, 36, 0
10, 110432, Note_on_c, 9, 36, 87
10, 110584, Note_on_c, 9, 36, 0
10, 110756, Note_on_c, 9, 36, 86
10, 110860, Note_on_c, 9, 36, 0
10, 110928, Note_on_c, 9, 36, 87
10, 111104, Note_on_c, 9, 36, 0
10, 111252, Note_on_c, 9, 36, 85
10, 111340, Note_on_c, 9, 36, 0
10, 111404, Note_on_c, 9, 36, 87
10, 111564, Note_on_c, 9, 36, 0
10, 111728, Note_on_c, 9, 36, 87
10, 111824, Note_on_c, 9, 36, 0
10, 111880, Note_on_c, 9, 36, 87
10, 112068, Note_on_c, 9, 36, 0
10, 112224, Note_on_c, 9, 36, 87
10, 112316, Note_on_c, 9, 36, 0
10, 112380, Note_on_c, 9, 36, 87
10, 112548, Note_on_c, 9, 36, 0
10, 112680, Note_on_c, 9, 36, 86
10, 112784, Note_on_c, 9, 36, 0
10, 112836, Note_on_c, 9, 36, 86
10, 113032, Note_on_c, 9, 36, 0
10, 113164, Note_on_c, 9, 36, 87
10, 113264, Note_on_c, 9, 36, 0
10, 113324, Note_on_c, 9, 36, 86
10, 113496, Note_on_c, 9, 36, 0
10, 113628, Note_on_c, 9, 36, 87
10, 113724, Note_on_c, 9, 36, 0
10, 113800, Note_on_c, 9, 36, 87
10, 113980, Note_on_c, 9, 36, 0
10, 114108, Note_on_c, 9, 36, 87
10, 114220, Note_on_c, 9, 36, 0
10, 114292, Note_on_c, 9, 36, 86
10, 114444, Note_on_c, 9, 36, 0
10, 114592, Note_on_c, 9, 36, 86
10, 114696, Note_on_c, 9, 36, 0
10, 114752, Note_on_c, 9, 36, 87
10, 114936, Note_on_c, 9, 36, 0
10, 115080, Note_on_c, 9, 36, 87
10, 115164, Note_on_c, 9, 36, 0
10, 115232, Note_on_c, 9, 36, 86
10, 115424, Note_on_c, 9, 36, 0
10, 115536, Note_on_c, 9, 36, 85
10, 115640, Note_on_c, 9, 36, 0
10, 115704, Note_on_c, 9, 36, 87
10, 115904, Note_on_c, 9, 36, 0
10, 116024, Note_on_c, 9, 36, 76
10, 116108, Note_on_c, 9, 36, 0
10, 116180, Note_on_c, 9, 36, 86
10, 116372, Note_on_c, 9, 36, 0
10, 116480, Note_on_c, 9, 36, 86
10, 116584, Note_on_c, 9, 36, 0
10, 116652, Note_on_c, 9, 36, 86
10, 116836, Note_on_c, 9, 36, 0
10, 116960, Note_on_c, 9, 36, 86
10, 117048, Note_on_c, 9, 36, 0
10, 117128, Note_on_c, 9, 36, 86
10, 117276, Note_on_c, 9, 36, 0
10, 117452, Note_on_c, 9, 36, 74
10, 117516, Note_on_c, 9, 36, 0
10, 117604, Note_on_c, 9, 36, 87
10, 117804, Note_on_c, 9, 36, 0
10, 117948, Note_on_c, 9, 36, 76
10, 118024, Note_on_c, 9, 36, 0
10, 118112, Note_on_c, 9, 36, 87
10, 118276, Note_on_c, 9, 36, 0
10, 118420, Note_on_c, 9, 35, 86
10, 118504, Note_on_c, 9, 35, 0
10, 118588, Note_on_c, 9, 36, 87
10, 118756, Note_on_c, 9, 36, 0
10, 118896, Note_on_c, 9, 36, 86
10, 118984, Note_on_c, 9, 36, 0
10, 119060, Note_on_c, 9, 36, 85
10, 119228, Note_on_c, 9, 36, 0
10, 119536, Note_on_c, 9, 36, 81
10, 119652, Note_on_c, 9, 36, 0
10, 119812, Note_on_c, 9, 36, 89
10, 120020, Note_on_c, 9, 36, 0
10, 120020, End_track
11, 0, Start_track
11, 0, MIDI_port, 0
11, 0, Control_c, 9, 91, 119
11, 0, Control_c, 9, 93, 39
11, 0, Control_c, 9, 121, 0
11, 1, Control_c, 9, 32, 0
11, 18, Control_c, 9, 101, 0
11, 18, Control_c, 9, 100, 0
11, 18, Control_c, 9, 6, 12
11, 18, Control_c, 9, 38, 0
11, 21, Control_c, 9, 11, 127
11, 527, Program_c, 9, 40
11, 528, Control_c, 9, 7, 120
11, 528, Control_c, 9, 10, 64
11, 6240, Note_on_c, 9, 39, 97
11, 6472, Note_on_c, 9, 39, 0
11, 7212, Note_on_c, 9, 39, 96
11, 7416, Note_on_c, 9, 39, 0
11, 8188, Note_on_c, 9, 39, 96
11, 8384, Note_on_c, 9, 39, 0
11, 9148, Note_on_c, 9, 39, 96
11, 9352, Note_on_c, 9, 39, 0
11, 10124, Note_on_c, 9, 39, 97
11, 10312, Note_on_c, 9, 39, 0
11, 11068, Note_on_c, 9, 39, 97
11, 11272, Note_on_c, 9, 39, 0
11, 12016, Note_on_c, 9, 39, 97
11, 12228, Note_on_c, 9, 39, 0
11, 13004, Note_on_c, 9, 39, 96
11, 13224, Note_on_c, 9, 39, 0
11, 13960, Note_on_c, 9, 39, 96
11, 14172, Note_on_c, 9, 39, 0
11, 14912, Note_on_c, 9, 39, 97
11, 15144, Note_on_c, 9, 39, 0
11, 15860, Note_on_c, 9, 39, 96
11, 16072, Note_on_c, 9, 39, 0
11, 16840, Note_on_c, 9, 39, 96
11, 17068, Note_on_c, 9, 39, 0
11, 17760, Note_on_c, 9, 39, 97
11, 17968, Note_on_c, 9, 39, 0
11, 18756, Note_on_c, 9, 39, 96
11, 18928, Note_on_c, 9, 39, 0
11, 19732, Note_on_c, 9, 39, 97
11, 19908, Note_on_c, 9, 39, 0
11, 20672, Note_on_c, 9, 39, 97
11, 20880, Note_on_c, 9, 39, 0
11, 21632, Note_on_c, 9, 39, 97
11, 21844, Note_on_c, 9, 39, 0
11, 22616, Note_on_c, 9, 39, 98
11, 22784, Note_on_c, 9, 39, 0
11, 23556, Note_on_c, 9, 39, 96
11, 23756, Note_on_c, 9, 39, 0
11, 24508, Note_on_c, 9, 39, 97
11, 24696, Note_on_c, 9, 39, 0
11, 25464, Note_on_c, 9, 39, 97
11, 25636, Note_on_c, 9, 39, 0
11, 26400, Note_on_c, 9, 39, 97
11, 26600, Note_on_c, 9, 39, 0
11, 27200, Note_on_c, 9, 39, 97
11, 27304, Note_on_c, 9, 39, 0
11, 27352, Note_on_c, 9, 39, 96
11, 27496, Note_on_c, 9, 39, 0
11, 27684, Note_on_c, 9, 39, 96
11, 27784, Note_on_c, 9, 39, 0
11, 27832, Note_on_c, 9, 39, 96
11, 28080, Note_on_c, 9, 39, 0
11, 28152, Note_on_c, 9, 39, 97
11, 28252, Note_on_c, 9, 39, 0
11, 28308, Note_on_c, 9, 39, 96
11, 28468, Note_on_c, 9, 39, 0
11, 29280, Note_on_c, 9, 39, 97
11, 29512, Note_on_c, 9, 39, 0
11, 30252, Note_on_c, 9, 39, 96
11, 30456, Note_on_c, 9, 39, 0
11, 31228, Note_on_c, 9, 39, 96
11, 31424, Note_on_c, 9, 39, 0
11, 32188, Note_on_c, 9, 39, 96
11, 32392, Note_on_c, 9, 39, 0
11, 33164, Note_on_c, 9, 39, 97
11, 33352, Note_on_c, 9, 39, 0
11, 34108, Note_on_c, 9, 39, 97
11, 34312, Note_on_c, 9, 39, 0
11, 35056, Note_on_c, 9, 39, 97
11, 35268, Note_on_c, 9, 39, 0
11, 36044, Note_on_c, 9, 39, 96
11, 36264, Note_on_c, 9, 39, 0
11, 37000, Note_on_c, 9, 39, 96
11, 37212, Note_on_c, 9, 39, 0
11, 37952, Note_on_c, 9, 39, 97
11, 38184, Note_on_c, 9, 39, 0
11, 38900, Note_on_c, 9, 39, 96
11, 39112, Note_on_c, 9, 39, 0
11, 39880, Note_on_c, 9, 39, 96
11, 40108, Note_on_c, 9, 39, 0
11, 40800, Note_on_c, 9, 39, 97
11, 41008, Note_on_c, 9, 39, 0
11, 41796, Note_on_c, 9, 39, 96
11, 41968, Note_on_c, 9, 39, 0
11, 42772, Note_on_c, 9, 39, 97
11, 42948, Note_on_c, 9, 39, 0
11, 43712, Note_on_c, 9, 39, 97
11, 43920, Note_on_c, 9, 39, 0
11, 44672, Note_on_c, 9, 39, 97
11, 44884, Note_on_c, 9, 39, 0
11, 45656, Note_on_c, 9, 39, 98
11, 45824, Note_on_c, 9, 39, 0
11, 46596, Note_on_c, 9, 39, 96
11, 46796, Note_on_c, 9, 39, 0
11, 47548, Note_on_c, 9, 39, 97
11, 47736, Note_on_c, 9, 39, 0
11, 48504, Note_on_c, 9, 39, 97
11, 48676, Note_on_c, 9, 39, 0
11, 49440, Note_on_c, 9, 39, 97
11, 49640, Note_on_c, 9, 39, 0
11, 50240, Note_on_c, 9, 39, 97
11, 50344, Note_on_c, 9, 39, 0
11, 50392, Note_on_c, 9, 39, 96
11, 50536, Note_on_c, 9, 39, 0
11, 50724, Note_on_c, 9, 39, 96
11, 50824, Note_on_c, 9, 39, 0
11, 50872, Note_on_c, 9, 39, 96
11, 51120, Note_on_c, 9, 39, 0
11, 51192, Note_on_c, 9, 39, 97
11, 51292, Note_on_c, 9, 39, 0
11, 51348, Note_on_c, 9, 39, 96
11, 51508, Note_on_c, 9, 39, 0
11, 52320, Note_on_c, 9, 39, 97
11, 52552, Note_on_c, 9, 39, 0
11, 53292, Note_on_c, 9, 39, 96
11, 53496, Note_on_c, 9, 39, 0
11, 54268, Note_on_c, 9, 39, 96
11, 54464, Note_on_c, 9, 39, 0
11, 55228, Note_on_c, 9, 39, 96
11, 55432, Note_on_c, 9, 39, 0
11, 56204, Note_on_c, 9, 39, 97
11, 56392, Note_on_c, 9, 39, 0
11, 57148, Note_on_c, 9, 39, 97
11, 57352, Note_on_c, 9, 39, 0
11, 58096, Note_on_c, 9, 39, 97
11, 58308, Note_on_c, 9, 39, 0
11, 59084, Note_on_c, 9, 39, 96
11, 59304, Note_on_c, 9, 39, 0
11, 60040, Note_on_c, 9, 39, 96
11, 60252, Note_on_c, 9, 39, 0
11, 60992, Note_on_c, 9, 39, 97
11, 61224, Note_on_c, 9, 39, 0
11, 61940, Note_on_c, 9, 39, 96
11, 62152, Note_on_c, 9, 39, 0
11, 62920, Note_on_c, 9, 39, 96
11, 63148, Note_on_c, 9, 39, 0
11, 63840, Note_on_c, 9, 39, 97
11, 64048, Note_on_c, 9, 39, 0
11, 64836, Note_on_c, 9, 39, 96
11, 65008, Note_on_c, 9, 39, 0
11, 65812, Note_on_c, 9, 39, 97
11, 65988, Note_on_c, 9, 39, 0
11, 66752, Note_on_c, 9, 39, 97
11, 66960, Note_on_c, 9, 39, 0
11, 67712, Note_on_c, 9, 39, 97
11, 67924, Note_on_c, 9, 39, 0
11, 68696, Note_on_c, 9, 39, 98
11, 68864, Note_on_c, 9, 39, 0
11, 69636, Note_on_c, 9, 39, 96
11, 69836, Note_on_c, 9, 39, 0
11, 70588, Note_on_c, 9, 39, 97
11, 70776, Note_on_c, 9, 39, 0
11, 71544, Note_on_c, 9, 39, 97
11, 71716, Note_on_c, 9, 39, 0
11, 72480, Note_on_c, 9, 39, 97
11, 72680, Note_on_c, 9, 39, 0
11, 73280, Note_on_c, 9, 39, 97
11, 73384, Note_on_c, 9, 39, 0
11, 73432, Note_on_c, 9, 39, 96
11, 73576, Note_on_c, 9, 39, 0
11, 73764, Note_on_c, 9, 39, 96
11, 73864, Note_on_c, 9, 39, 0
11, 73912, Note_on_c, 9, 39, 96
11, 74160, Note_on_c, 9, 39, 0
11, 74232, Note_on_c, 9, 39, 97
11, 74332, Note_on_c, 9, 39, 0
11, 74388, Note_on_c, 9, 39, 96
11, 74548, Note_on_c, 9, 39, 0
11, 75360, Note_on_c, 9, 39, 97
11, 75592, Note_on_c, 9, 39, 0
11, 76332, Note_on_c, 9, 39, 96
11, 76536, Note_on_c, 9, 39, 0
11, 77308, Note_on_c, 9, 39, 96
11, 77504, Note_on_c, 9, 39, 0
11, 78268, Note_on_c, 9, 39, 96
11, 78472, Note_on_c, 9, 39, 0
11, 79244, Note_on_c, 9, 39, 97
11, 79432, Note_on_c, 9, 39, 0
11, 80188, Note_on_c, 9, 39, 97
11, 80392, Note_on_c, 9, 39, 0
11, 81136, Note_on_c, 9, 39, 97
11, 81348, Note_on_c, 9, 39, 0
11, 82124, Note_on_c, 9, 39, 96
11, 82344, Note_on_c, 9, 39, 0
11, 83080, Note_on_c, 9, 39, 96
11, 83292, Note_on_c, 9, 39, 0
11, 84032, Note_on_c, 9, 39, 97
11, 84264, Note_on_c, 9, 39, 0
11, 84980, Note_on_c, 9, 39, 96
11, 85192, Note_on_c, 9, 39, 0
11, 85960, Note_on_c, 9, 39, 96
11, 86188, Note_on_c, 9, 39, 0
11, 86880, Note_on_c, 9, 39, 97
11, 87088, Note_on_c, 9, 39, 0
11, 87876, Note_on_c, 9, 39, 96
11, 88048, Note_on_c, 9, 39, 0
11, 88852, Note_on_c, 9, 39, 97
11, 89028, Note_on_c, 9, 39, 0
11, 89792, Note_on_c, 9, 39, 97
11, 90000, Note_on_c, 9, 39, 0
11, 90752, Note_on_c, 9, 39, 97
11, 90964, Note_on_c, 9, 39, 0
11, 91736, Note_on_c, 9, 39, 98
11, 91904, Note_on_c, 9, 39, 0
11, 92676, Note_on_c, 9, 39, 96
11, 92876, Note_on_c, 9, 39, 0
11, 93628, Note_on_c, 9, 39, 97
11, 93816, Note_on_c, 9, 39, 0
11, 94584, Note_on_c, 9, 39, 97
11, 94756, Note_on_c, 9, 39, 0
11, 95520, Note_on_c, 9, 39, 97
11, 95720, Note_on_c, 9, 39, 0
11, 96320, Note_on_c, 9, 39, 97
11, 96424, Note_on_c, 9, 39, 0
11, 96472, Note_on_c, 9, 39, 96
11, 96616, Note_on_c, 9, 39, 0
11, 96804, Note_on_c, 9, 39, 96
11, 96904, Note_on_c, 9, 39, 0
11, 96952, Note_on_c, 9, 39, 96
11, 97200, Note_on_c, 9, 39, 0
11, 97272, Note_on_c, 9, 39, 97
11, 97372, Note_on_c, 9, 39, 0
11, 97428, Note_on_c, 9, 39, 96
11, 97588, Note_on_c, 9, 39, 0
11, 98400, Note_on_c, 9, 39, 97
11, 98632, Note_on_c, 9, 39, 0
11, 99372, Note_on_c, 9, 39, 96
11, 99576, Note_on_c, 9, 39, 0
11, 100348, Note_on_c, 9, 39, 96
11, 100544, Note_on_c, 9, 39, 0
11, 101308, Note_on_c, 9, 39, 96
11, 101512, Note_on_c, 9, 39, 0
11, 102284, Note_on_c, 9, 39, 97
11, 102472, Note_on_c, 9, 39, 0
11, 103228, Note_on_c, 9, 39, 97
11, 103432, Note_on_c, 9, 39, 0
11, 104176, Note_on_c, 9, 39, 97
11, 104388, Note_on_c, 9, 39, 0
11, 105164, Note_on_c, 9, 39, 96
11, 105384, Note_on_c, 9, 39, 0
11, 106120, Note_on_c, 9, 39, 96
11, 106332, Note_on_c, 9, 39, 0
11, 107072, Note_on_c, 9, 39, 97
11, 107304, Note_on_c, 9, 39, 0
11, 108020, Note_on_c, 9, 39, 96
11, 108232, Note_on_c, 9, 39, 0
11, 109000, Note_on_c, 9, 39, 96
11, 109228, Note_on_c, 9, 39, 0
11, 109920, Note_on_c, 9, 39, 97
11, 110128, Note_on_c, 9, 39, 0
11, 110916, Note_on_c, 9, 39, 96
11, 111088, Note_on_c, 9, 39, 0
11, 111892, Note_on_c, 9, 39, 97
11, 112068, Note_on_c, 9, 39, 0
11, 112832, Note_on_c, 9, 39, 97
11, 113040, Note_on_c, 9, 39, 0
11, 113792, Note_on_c, 9, 39, 97
11, 114004, Note_on_c, 9, 39, 0
11, 114776, Note_on_c, 9, 39, 98
11, 114944, Note_on_c, 9, 39, 0
11, 115716, Note_on_c, 9, 39, 96
11, 115916, Note_on_c, 9, 39, 0
11, 116668, Note_on_c, 9, 39, 97
11, 116856, Note_on_c, 9, 39, 0
11, 117624, Note_on_c, 9, 39, 97
11, 117796, Note_on_c, 9, 39, 0
11, 118560, Note_on_c, 9, 39, 97
11, 118760, Note_on_c, 9, 39, 0
11, 119556, Note_on_c, 9, 39, 96
11, 119740, Note_on_c, 9, 39, 0
11, 119864, Note_on_c, 9, 37, 99
11, 120084, Note_on_c, 9, 37, 0
11, 120084, End_track
12, 0, Start_track
12, 0, MIDI_port, 0
12, 0, Control_c, 9, 91, 119
12, 0, Control_c, 9, 93, 39
12, 0, Control_c, 9, 121, 0
12, 1, Control_c, 9, 32, 0
12, 18, Control_c, 9, 101, 0
12, 18, Control_c, 9, 100, 0
12, 18, Control_c, 9, 6, 12
12, 18, Control_c, 9, 38, 0
12, 21, Control_c, 9, 11, 127
12, 527, Program_c, 9, 40
12, 528, Control_c, 9, 7, 120
12, 528, Control_c, 9, 10, 65
12, 5812, Note_on_c, 9, 42, 98
12, 5988, Note_on_c, 9, 42, 0
12, 6072, Note_on_c, 9, 42, 87
12, 6192, Note_on_c, 9, 42, 0
12, 6244, Note_on_c, 9, 46, 95
12, 6548, Note_on_c, 9, 46, 0
12, 6560, Note_on_c, 9, 42, 81
12, 6688, Note_on_c, 9, 42, 0
12, 6716, Note_on_c, 9, 42, 96
12, 6944, Note_on_c, 9, 42, 0
12, 7012, Note_on_c, 9, 42, 96
12, 7128, Note_on_c, 9, 42, 0
12, 7192, Note_on_c, 9, 46, 97
12, 7484, Note_on_c, 9, 46, 0
12, 7520, Note_on_c, 9, 42, 96
12, 7644, Note_on_c, 9, 42, 0
12, 7688, Note_on_c, 9, 42, 95
12, 7924, Note_on_c, 9, 42, 0
12, 7992, Note_on_c, 9, 42, 97
12, 8092, Note_on_c, 9, 42, 0
12, 8160, Note_on_c, 9, 46, 96
12, 8460, Note_on_c, 9, 46, 0
12, 8480, Note_on_c, 9, 42, 88
12, 8616, Note_on_c, 9, 42, 0
12, 8652, Note_on_c, 9, 42, 97
12, 8872, Note_on_c, 9, 42, 0
12, 8944, Note_on_c, 9, 42, 96
12, 9048, Note_on_c, 9, 42, 0
12, 9124, Note_on_c, 9, 46, 96
12, 9420, Note_on_c, 9, 46, 0
12, 9432, Note_on_c, 9, 42, 83
12, 9564, Note_on_c, 9, 42, 0
12, 9596, Note_on_c, 9, 42, 97
12, 9824, Note_on_c, 9, 42, 0
12, 9904, Note_on_c, 9, 42, 96
12, 10024, Note_on_c, 9, 42, 0
12, 10080, Note_on_c, 9, 46, 97
12, 10396, Note_on_c, 9, 46, 0
12, 10412, Note_on_c, 9, 42, 94
12, 10536, Note_on_c, 9, 42, 0
12, 10576, Note_on_c, 9, 42, 97
12, 10816, Note_on_c, 9, 42, 0
12, 10880, Note_on_c, 9, 42, 97
12, 10988, Note_on_c, 9, 42, 0
12, 11048, Note_on_c, 9, 46, 95
12, 11372, Note_on_c, 9, 46, 0
12, 11372, Note_on_c, 9, 42, 80
12, 11492, Note_on_c, 9, 42, 0
12, 11520, Note_on_c, 9, 42, 95
12, 11756, Note_on_c, 9, 42, 0
12, 11824, Note_on_c, 9, 42, 96
12, 11936, Note_on_c, 9, 42, 0
12, 11988, Note_on_c, 9, 46, 95
12, 12308, Note_on_c, 9, 46, 0
12, 12324, Note_on_c, 9, 42, 94
12, 12440, Note_on_c, 9, 42, 0
12, 12488, Note_on_c, 9, 42, 96
12, 12732, Note_on_c, 9, 42, 0
12, 12808, Note_on_c, 9, 42, 97
12, 12936, Note_on_c, 9, 42, 0
12, 12980, Note_on_c, 9, 46, 96
12, 13276, Note_on_c, 9, 46, 0
12, 13288, Note_on_c, 9, 42, 95
12, 13408, Note_on_c, 9, 42, 0
12, 13460, Note_on_c, 9, 42, 97
12, 13692, Note_on_c, 9, 42, 0
12, 13744, Note_on_c, 9, 42, 97
12, 13868, Note_on_c, 9, 42, 0
12, 13928, Note_on_c, 9, 46, 97
12, 14244, Note_on_c, 9, 46, 0
12, 14252, Note_on_c, 9, 42, 93
12, 14364, Note_on_c, 9, 42, 0
12, 14424, Note_on_c, 9, 42, 97
12, 14644, Note_on_c, 9, 42, 0
12, 14720, Note_on_c, 9, 42, 97
12, 14824, Note_on_c, 9, 42, 0
12, 14888, Note_on_c, 9, 46, 96
12, 15192, Note_on_c, 9, 46, 0
12, 15216, Note_on_c, 9, 42, 97
12, 15324, Note_on_c, 9, 42, 0
12, 15376, Note_on_c, 9, 42, 96
12, 15584, Note_on_c, 9, 42, 0
12, 15656, Note_on_c, 9, 42, 96
12, 15776, Note_on_c, 9, 42, 0
12, 15828, Note_on_c, 9, 46, 95
12, 16120, Note_on_c, 9, 46, 0
12, 16156, Note_on_c, 9, 42, 97
12, 16268, Note_on_c, 9, 42, 0
12, 16324, Note_on_c, 9, 42, 97
12, 16556, Note_on_c, 9, 42, 0
12, 16628, Note_on_c, 9, 42, 97
12, 16748, Note_on_c, 9, 42, 0
12, 16812, Note_on_c, 9, 46, 97
12, 17116, Note_on_c, 9, 46, 0
12, 17148, Note_on_c, 9, 42, 96
12, 17284, Note_on_c, 9, 42, 0
12, 17316, Note_on_c, 9, 42, 96
12, 17532, Note_on_c, 9, 42, 0
12, 17604, Note_on_c, 9, 42, 97
12, 17700, Note_on_c, 9, 42, 0
12, 17764, Note_on_c, 9, 46, 96
12, 18064, Note_on_c, 9, 46, 0
12, 18096, Note_on_c, 9, 42, 97
12, 18220, Note_on_c, 9, 42, 0
12, 18256, Note_on_c, 9, 42, 96
12, 18468, Note_on_c, 9, 42, 0
12, 18552, Note_on_c, 9, 42, 95
12, 18668, Note_on_c, 9, 42, 0
12, 18728, Note_on_c, 9, 46, 96
12, 19028, Note_on_c, 9, 46, 0
12, 19052, Note_on_c, 9, 42, 96
12, 19056, Note_on_c, 9, 45, 55
12, 19108, Note_on_c, 9, 45, 0
12, 19180, Note_on_c, 9, 42, 0
12, 19232, Note_on_c, 9, 42, 98
12, 19420, Note_on_c, 9, 42, 0
12, 19504, Note_on_c, 9, 42, 96
12, 19612, Note_on_c, 9, 42, 0
12, 19676, Note_on_c, 9, 46, 97
12, 19968, Note_on_c, 9, 46, 0
12, 20000, Note_on_c, 9, 42, 95
12, 20116, Note_on_c, 9, 42, 0
12, 20180, Note_on_c, 9, 42, 98
12, 20400, Note_on_c, 9, 42, 0
12, 20456, Note_on_c, 9, 44, 30
12, 20480, Note_on_c, 9, 44, 0
12, 20480, Note_on_c, 9, 42, 96
12, 20584, Note_on_c, 9, 42, 0
12, 20656, Note_on_c, 9, 46, 97
12, 20940, Note_on_c, 9, 46, 0
12, 20972, Note_on_c, 9, 42, 97
12, 20980, Note_on_c, 9, 45, 49
12, 21024, Note_on_c, 9, 45, 0
12, 21092, Note_on_c, 9, 42, 0
12, 21140, Note_on_c, 9, 42, 97
12, 21144, Note_on_c, 9, 44, 24
12, 21148, Note_on_c, 9, 44, 0
12, 21328, Note_on_c, 9, 42, 0
12, 21424, Note_on_c, 9, 42, 97
12, 21532, Note_on_c, 9, 42, 0
12, 21596, Note_on_c, 9, 46, 96
12, 21892, Note_on_c, 9, 46, 0
12, 21924, Note_on_c, 9, 42, 96
12, 21928, Note_on_c, 9, 45, 52
12, 21980, Note_on_c, 9, 45, 0
12, 22032, Note_on_c, 9, 42, 0
12, 22100, Note_on_c, 9, 42, 98
12, 22316, Note_on_c, 9, 42, 0
12, 22400, Note_on_c, 9, 42, 97
12, 22516, Note_on_c, 9, 42, 0
12, 22564, Note_on_c, 9, 46, 96
12, 22888, Note_on_c, 9, 46, 0
12, 22904, Note_on_c, 9, 42, 97
12, 23020, Note_on_c, 9, 42, 0
12, 23068, Note_on_c, 9, 42, 97
12, 23280, Note_on_c, 9, 42, 0
12, 23356, Note_on_c, 9, 42, 96
12, 23472, Note_on_c, 9, 42, 0
12, 23520, Note_on_c, 9, 46, 96
12, 23828, Note_on_c, 9, 46, 0
12, 23856, Note_on_c, 9, 42, 95
12, 23860, Note_on_c, 9, 45, 54
12, 23916, Note_on_c, 9, 45, 0
12, 23976, Note_on_c, 9, 42, 0
12, 24024, Note_on_c, 9, 42, 96
12, 24228, Note_on_c, 9, 42, 0
12, 24316, Note_on_c, 9, 42, 96
12, 24432, Note_on_c, 9, 42, 0
12, 24488, Note_on_c, 9, 46, 97
12, 24804, Note_on_c, 9, 46, 0
12, 24804, Note_on_c, 9, 42, 97
12, 24920, Note_on_c, 9, 42, 0
12, 24976, Note_on_c, 9, 42, 97
12, 25184, Note_on_c, 9, 42, 0
12, 25256, Note_on_c, 9, 42, 95
12, 25372, Note_on_c, 9, 42, 0
12, 25428, Note_on_c, 9, 46, 96
12, 25728, Note_on_c, 9, 46, 0
12, 25752, Note_on_c, 9, 42, 96
12, 25880, Note_on_c, 9, 42, 0
12, 25948, Note_on_c, 9, 42, 97
12, 26156, Note_on_c, 9, 42, 0
12, 26232, Note_on_c, 9, 42, 96
12, 26236, Note_on_c, 9, 44, 43
12, 26240, Note_on_c, 9, 44, 0
12, 26344, Note_on_c, 9, 42, 0
12, 26412, Note_on_c, 9, 46, 97
12, 26688, Note_on_c, 9, 46, 0
12, 26752, Note_on_c, 9, 42, 84
12, 26836, Note_on_c, 9, 42, 0
12, 26900, Note_on_c, 9, 42, 97
12, 27084, Note_on_c, 9, 42, 0
12, 27156, Note_on_c, 9, 42, 97
12, 27288, Note_on_c, 9, 42, 0
12, 27340, Note_on_c, 9, 46, 96
12, 27584, Note_on_c, 9, 46, 0
12, 27648, Note_on_c, 9, 42, 96
12, 27780, Note_on_c, 9, 42, 0
12, 27820, Note_on_c, 9, 46, 97
12, 28068, Note_on_c, 9, 46, 0
12, 28128, Note_on_c, 9, 42, 97
12, 28252, Note_on_c, 9, 42, 0
12, 28308, Note_on_c, 9, 46, 96
12, 28552, Note_on_c, 9, 46, 0
12, 28636, Note_on_c, 9, 42, 96
12, 28736, Note_on_c, 9, 42, 0
12, 28796, Note_on_c, 9, 42, 97
12, 28852, Note_on_c, 9, 42, 98
12, 28956, Note_on_c, 9, 42, 0
12, 29028, Note_on_c, 9, 42, 0
12, 29112, Note_on_c, 9, 42, 87
12, 29232, Note_on_c, 9, 42, 0
12, 29284, Note_on_c, 9, 46, 95
12, 29588, Note_on_c, 9, 46, 0
12, 29600, Note_on_c, 9, 42, 81
12, 29728, Note_on_c, 9, 42, 0
12, 29756, Note_on_c, 9, 42, 96
12, 29984, Note_on_c, 9, 42, 0
12, 30052, Note_on_c, 9, 42, 96
12, 30168, Note_on_c, 9, 42, 0
12, 30232, Note_on_c, 9, 46, 97
12, 30524, Note_on_c, 9, 46, 0
12, 30560, Note_on_c, 9, 42, 96
12, 30684, Note_on_c, 9, 42, 0
12, 30728, Note_on_c, 9, 42, 95
12, 30964, Note_on_c, 9, 42, 0
12, 31032, Note_on_c, 9, 42, 97
12, 31132, Note_on_c, 9, 42, 0
12, 31200, Note_on_c, 9, 46, 96
12, 31500, Note_on_c, 9, 46, 0
12, 31520, Note_on_c, 9, 42, 88
12, 31656, Note_on_c, 9, 42, 0
12, 31692, Note_on_c, 9, 42, 97
12, 31912, Note_on_c, 9, 42, 0
12, 31984, Note_on_c, 9, 42, 96
12, 32088, Note_on_c, 9, 42, 0
12, 32164, Note_on_c, 9, 46, 96
12, 32460, Note_on_c, 9, 46, 0
12, 32472, Note_on_c, 9, 42, 83
12, 32604, Note_on_c, 9, 42, 0
12, 32636, Note_on_c, 9, 42, 97
12, 32864, Note_on_c, 9, 42, 0
12, 32944, Note_on_c, 9, 42, 96
12, 33064, Note_on_c, 9, 42, 0
12, 33120, Note_on_c, 9, 46, 97
12, 33436, Note_on_c, 9, 46, 0
12, 33452, Note_on_c, 9, 42, 94
12, 33576, Note_on_c, 9, 42, 0
12, 33616, Note_on_c, 9, 42, 97
12, 33856, Note_on_c, 9, 42, 0
12, 33920, Note_on_c, 9, 42, 97
12, 34028, Note_on_c, 9, 42, 0
12, 34088, Note_on_c, 9, 46, 95
12, 34412, Note_on_c, 9, 46, 0
12, 34412, Note_on_c, 9, 42, 80
12, 34532, Note_on_c, 9, 42, 0
12, 34560, Note_on_c, 9, 42, 95
12, 34796, Note_on_c, 9, 42, 0
12, 34864, Note_on_c, 9, 42, 96
12, 34976, Note_on_c, 9, 42, 0
12, 35028, Note_on_c, 9, 46, 95
12, 35348, Note_on_c, 9, 46, 0
12, 35364, Note_on_c, 9, 42, 94
12, 35480, Note_on_c, 9, 42, 0
12, 35528, Note_on_c, 9, 42, 96
12, 35772, Note_on_c, 9, 42, 0
12, 35848, Note_on_c, 9, 42, 97
12, 35976, Note_on_c, 9, 42, 0
12, 36020, Note_on_c, 9, 46, 96
12, 36316, Note_on_c, 9, 46, 0
12, 36328, Note_on_c, 9, 42, 95
12, 36448, Note_on_c, 9, 42, 0
12, 36500, Note_on_c, 9, 42, 97
12, 36732, Note_on_c, 9, 42, 0
12, 36784, Note_on_c, 9, 42, 97
12, 36908, Note_on_c, 9, 42, 0
12, 36968, Note_on_c, 9, 46, 97
12, 37284, Note_on_c, 9, 46, 0
12, 37292, Note_on_c, 9, 42, 93
12, 37404, Note_on_c, 9, 42, 0
12, 37464, Note_on_c, 9, 42, 97
12, 37684, Note_on_c, 9, 42, 0
12, 37760, Note_on_c, 9, 42, 97
12, 37864, Note_on_c, 9, 42, 0
12, 37928, Note_on_c, 9, 46, 96
12, 38232, Note_on_c, 9, 46, 0
12, 38256, Note_on_c, 9, 42, 97
12, 38364, Note_on_c, 9, 42, 0
12, 38416, Note_on_c, 9, 42, 96
12, 38624, Note_on_c, 9, 42, 0
12, 38696, Note_on_c, 9, 42, 96
12, 38816, Note_on_c, 9, 42, 0
12, 38868, Note_on_c, 9, 46, 95
12, 39160, Note_on_c, 9, 46, 0
12, 39196, Note_on_c, 9, 42, 97
12, 39308, Note_on_c, 9, 42, 0
12, 39364, Note_on_c, 9, 42, 97
12, 39596, Note_on_c, 9, 42, 0
12, 39668, Note_on_c, 9, 42, 97
12, 39788, Note_on_c, 9, 42, 0
12, 39852, Note_on_c, 9, 46, 97
12, 40156, Note_on_c, 9, 46, 0
12, 40188, Note_on_c, 9, 42, 96
12, 40324, Note_on_c, 9, 42, 0
12, 40356, Note_on_c, 9, 42, 96
12, 40572, Note_on_c, 9, 42, 0
12, 40644, Note_on_c, 9, 42, 97
12, 40740, Note_on_c, 9, 42, 0
12, 40804, Note_on_c, 9, 46, 96
12, 41104, Note_on_c, 9, 46, 0
12, 41136, Note_on_c, 9, 42, 97
12, 41260, Note_on_c, 9, 42, 0
12, 41296, Note_on_c, 9, 42, 96
12, 41508, Note_on_c, 9, 42, 0
12, 41592, Note_on_c, 9, 42, 95
12, 41708, Note_on_c, 9, 42, 0
12, 41768, Note_on_c, 9, 46, 96
12, 42068, Note_on_c, 9, 46, 0
12, 42092, Note_on_c, 9, 42, 96
12, 42096, Note_on_c, 9, 45, 55
12, 42148, Note_on_c, 9, 45, 0
12, 42220, Note_on_c, 9, 42, 0
12, 42272, Note_on_c, 9, 42, 98
12, 42460, Note_on_c, 9, 42, 0
12, 42544, Note_on_c, 9, 42, 96
12, 42652, Note_on_c, 9, 42, 0
12, 42716, Note_on_c, 9, 46, 97
12, 43008, Note_on_c, 9, 46, 0
12, 43040, Note_on_c, 9, 42, 95
12, 43156, Note_on_c, 9, 42, 0
12, 43220, Note_on_c, 9, 42, 98
12, 43440, Note_on_c, 9, 42, 0
12, 43496, Note_on_c, 9, 44, 30
12, 43520, Note_on_c, 9, 44, 0
12, 43520, Note_on_c, 9, 42, 96
12, 43624, Note_on_c, 9, 42, 0
12, 43696, Note_on_c, 9, 46, 97
12, 43980, Note_on_c, 9, 46, 0
12, 44012, Note_on_c, 9, 42, 97
12, 44020, Note_on_c, 9, 45, 49
12, 44064, Note_on_c, 9, 45, 0
12, 44132, Note_on_c, 9, 42, 0
12, 44180, Note_on_c, 9, 42, 97
12, 44184, Note_on_c, 9, 44, 24
12, 44188, Note_on_c, 9, 44, 0
12, 44368, Note_on_c, 9, 42, 0
12, 44464, Note_on_c, 9, 42, 97
12, 44572, Note_on_c, 9, 42, 0
12, 44636, Note_on_c, 9, 46, 96
12, 44932, Note_on_c, 9, 46, 0
12, 44964, Note_on_c, 9, 42, 96
12, 44968, Note_on_c, 9, 45, 52
12, 45020, Note_on_c, 9, 45, 0
12, 45072, Note_on_c, 9, 42, 0
12, 45140, Note_on_c, 9, 42, 98
12, 45356, Note_on_c, 9, 42, 0
12, 45440, Note_on_c, 9, 42, 97
12, 45556, Note_on_c, 9, 42, 0
12, 45604, Note_on_c, 9, 46, 96
12, 45928, Note_on_c, 9, 46, 0
12, 45944, Note_on_c, 9, 42, 97
12, 46060, Note_on_c, 9, 42, 0
12, 46108, Note_on_c, 9, 42, 97
12, 46320, Note_on_c, 9, 42, 0
12, 46396, Note_on_c, 9, 42, 96
12, 46512, Note_on_c, 9, 42, 0
12, 46560, Note_on_c, 9, 46, 96
12, 46868, Note_on_c, 9, 46, 0
12, 46896, Note_on_c, 9, 42, 95
12, 46900, Note_on_c, 9, 45, 54
12, 46956, Note_on_c, 9, 45, 0
12, 47016, Note_on_c, 9, 42, 0
12, 47064, Note_on_c, 9, 42, 96
12, 47268, Note_on_c, 9, 42, 0
12, 47356, Note_on_c, 9, 42, 96
12, 47472, Note_on_c, 9, 42, 0
12, 47528, Note_on_c, 9, 46, 97
12, 47844, Note_on_c, 9, 46, 0
12, 47844, Note_on_c, 9, 42, 97
12, 47960, Note_on_c, 9, 42, 0
12, 48016, Note_on_c, 9, 42, 97
12, 48224, Note_on_c, 9, 42, 0
12, 48296, Note_on_c, 9, 42, 95
12, 48412, Note_on_c, 9, 42, 0
12, 48468, Note_on_c, 9, 46, 96
12, 48768, Note_on_c, 9, 46, 0
12, 48792, Note_on_c, 9, 42, 96
12, 48920, Note_on_c, 9, 42, 0
12, 48988, Note_on_c, 9, 42, 97
12, 49196, Note_on_c, 9, 42, 0
12, 49272, Note_on_c, 9, 42, 96
12, 49276, Note_on_c, 9, 44, 43
12, 49280, Note_on_c, 9, 44, 0
12, 49384, Note_on_c, 9, 42, 0
12, 49452, Note_on_c, 9, 46, 97
12, 49728, Note_on_c, 9, 46, 0
12, 49792, Note_on_c, 9, 42, 84
12, 49876, Note_on_c, 9, 42, 0
12, 49940, Note_on_c, 9, 42, 97
12, 50124, Note_on_c, 9, 42, 0
12, 50196, Note_on_c, 9, 42, 97
12, 50328, Note_on_c, 9, 42, 0
12, 50380, Note_on_c, 9, 46, 96
12, 50624, Note_on_c, 9, 46, 0
12, 50688, Note_on_c, 9, 42, 96
12, 50820, Note_on_c, 9, 42, 0
12, 50860, Note_on_c, 9, 46, 97
12, 51108, Note_on_c, 9, 46, 0
12, 51168, Note_on_c, 9, 42, 97
12, 51292, Note_on_c, 9, 42, 0
12, 51348, Note_on_c, 9, 46, 96
12, 51592, Note_on_c, 9, 46, 0
12, 51676, Note_on_c, 9, 42, 96
12, 51776, Note_on_c, 9, 42, 0
12, 51836, Note_on_c, 9, 42, 97
12, 51892, Note_on_c, 9, 42, 98
12, 51996, Note_on_c, 9, 42, 0
12, 52068, Note_on_c, 9, 42, 0
12, 52152, Note_on_c, 9, 42, 87
12, 52272, Note_on_c, 9, 42, 0
12, 52324, Note_on_c, 9, 46, 95
12, 52628, Note_on_c, 9, 46, 0
12, 52640, Note_on_c, 9, 42, 81
12, 52768, Note_on_c, 9, 42, 0
12, 52796, Note_on_c, 9, 42, 96
12, 53024, Note_on_c, 9, 42, 0
12, 53092, Note_on_c, 9, 42, 96
12, 53208, Note_on_c, 9, 42, 0
12, 53272, Note_on_c, 9, 46, 97
12, 53564, Note_on_c, 9, 46, 0
12, 53600, Note_on_c, 9, 42, 96
12, 53724, Note_on_c, 9, 42, 0
12, 53768, Note_on_c, 9, 42, 95
12, 54004, Note_on_c, 9, 42, 0
12, 54072, Note_on_c, 9, 42, 97
12, 54172, Note_on_c, 9, 42, 0
12, 54240, Note_on_c, 9, 46, 96
12, 54540, Note_on_c, 9, 46, 0
12, 54560, Note_on_c, 9, 42, 88
12, 54696, Note_on_c, 9, 42, 0
12, 54732, Note_on_c, 9, 42, 97
12, 54952, Note_on_c, 9, 42, 0
12, 55024, Note_on_c, 9, 42, 96
12, 55128, Note_on_c, 9, 42, 0
12, 55204, Note_on_c, 9, 46, 96
12, 55500, Note_on_c, 9, 46, 0
12, 55512, Note_on_c, 9, 42, 83
12, 55644, Note_on_c, 9, 42, 0
12, 55676, Note_on_c, 9, 42, 97
12, 55904, Note_on_c, 9, 42, 0
12, 55984, Note_on_c, 9, 42, 96
12, 56104, Note_on_c, 9, 42, 0
12, 56160, Note_on_c, 9, 46, 97
12, 56476, Note_on_c, 9, 46, 0
12, 56492, Note_on_c, 9, 42, 94
12, 56616, Note_on_c, 9, 42, 0
12, 56656, Note_on_c, 9, 42, 97
12, 56896, Note_on_c, 9, 42, 0
12, 56960, Note_on_c, 9, 42, 97
12, 57068, Note_on_c, 9, 42, 0
12, 57128, Note_on_c, 9, 46, 95
12, 57452, Note_on_c, 9, 46, 0
12, 57452, Note_on_c, 9, 42, 80
12, 57572, Note_on_c, 9, 42, 0
12, 57600, Note_on_c, 9, 42, 95
12, 57836, Note_on_c, 9, 42, 0
12, 57904, Note_on_c, 9, 42, 96
12, 58016, Note_on_c, 9, 42, 0
12, 58068, Note_on_c, 9, 46, 95
12, 58388, Note_on_c, 9, 46, 0
12, 58404, Note_on_c, 9, 42, 94
12, 58520, Note_on_c, 9, 42, 0
12, 58568, Note_on_c, 9, 42, 96
12, 58812, Note_on_c, 9, 42, 0
12, 58888, Note_on_c, 9, 42, 97
12, 59016, Note_on_c, 9, 42, 0
12, 59060, Note_on_c, 9, 46, 96
12, 59356, Note_on_c, 9, 46, 0
12, 59368, Note_on_c, 9, 42, 95
12, 59488, Note_on_c, 9, 42, 0
12, 59540, Note_on_c, 9, 42, 97
12, 59772, Note_on_c, 9, 42, 0
12, 59824, Note_on_c, 9, 42, 97
12, 59948, Note_on_c, 9, 42, 0
12, 60008, Note_on_c, 9, 46, 97
12, 60324, Note_on_c, 9, 46, 0
12, 60332, Note_on_c, 9, 42, 93
12, 60444, Note_on_c, 9, 42, 0
12, 60504, Note_on_c, 9, 42, 97
12, 60724, Note_on_c, 9, 42, 0
12, 60800, Note_on_c, 9, 42, 97
12, 60904, Note_on_c, 9, 42, 0
12, 60968, Note_on_c, 9, 46, 96
12, 61272, Note_on_c, 9, 46, 0
12, 61296, Note_on_c, 9, 42, 97
12, 61404, Note_on_c, 9, 42, 0
12, 61456, Note_on_c, 9, 42, 96
12, 61664, Note_on_c, 9, 42, 0
12, 61736, Note_on_c, 9, 42, 96
12, 61856, Note_on_c, 9, 42, 0
12, 61908, Note_on_c, 9, 46, 95
12, 62200, Note_on_c, 9, 46, 0
12, 62236, Note_on_c, 9, 42, 97
12, 62348, Note_on_c, 9, 42, 0
12, 62404, Note_on_c, 9, 42, 97
12, 62636, Note_on_c, 9, 42, 0
12, 62708, Note_on_c, 9, 42, 97
12, 62828, Note_on_c, 9, 42, 0
12, 62892, Note_on_c, 9, 46, 97
12, 63196, Note_on_c, 9, 46, 0
12, 63228, Note_on_c, 9, 42, 96
12, 63364, Note_on_c, 9, 42, 0
12, 63396, Note_on_c, 9, 42, 96
12, 63612, Note_on_c, 9, 42, 0
12, 63684, Note_on_c, 9, 42, 97
12, 63780, Note_on_c, 9, 42, 0
12, 63844, Note_on_c, 9, 46, 96
12, 64144, Note_on_c, 9, 46, 0
12, 64176, Note_on_c, 9, 42, 97
12, 64300, Note_on_c, 9, 42, 0
12, 64336, Note_on_c, 9, 42, 96
12, 64548, Note_on_c, 9, 42, 0
12, 64632, Note_on_c, 9, 42, 95
12, 64748, Note_on_c, 9, 42, 0
12, 64808, Note_on_c, 9, 46, 96
12, 65108, Note_on_c, 9, 46, 0
12, 65132, Note_on_c, 9, 42, 96
12, 65136, Note_on_c, 9, 45, 55
12, 65188, Note_on_c, 9, 45, 0
12, 65260, Note_on_c, 9, 42, 0
12, 65312, Note_on_c, 9, 42, 98
12, 65500, Note_on_c, 9, 42, 0
12, 65584, Note_on_c, 9, 42, 96
12, 65692, Note_on_c, 9, 42, 0
12, 65756, Note_on_c, 9, 46, 97
12, 66048, Note_on_c, 9, 46, 0
12, 66080, Note_on_c, 9, 42, 95
12, 66196, Note_on_c, 9, 42, 0
12, 66260, Note_on_c, 9, 42, 98
12, 66480, Note_on_c, 9, 42, 0
12, 66536, Note_on_c, 9, 44, 30
12, 66560, Note_on_c, 9, 44, 0
12, 66560, Note_on_c, 9, 42, 96
12, 66664, Note_on_c, 9, 42, 0
12, 66736, Note_on_c, 9, 46, 97
12, 67020, Note_on_c, 9, 46, 0
12, 67052, Note_on_c, 9, 42, 97
12, 67060, Note_on_c, 9, 45, 49
12, 67104, Note_on_c, 9, 45, 0
12, 67172, Note_on_c, 9, 42, 0
12, 67220, Note_on_c, 9, 42, 97
12, 67224, Note_on_c, 9, 44, 24
12, 67228, Note_on_c, 9, 44, 0
12, 67408, Note_on_c, 9, 42, 0
12, 67504, Note_on_c, 9, 42, 97
12, 67612, Note_on_c, 9, 42, 0
12, 67676, Note_on_c, 9, 46, 96
12, 67972, Note_on_c, 9, 46, 0
12, 68004, Note_on_c, 9, 42, 96
12, 68008, Note_on_c, 9, 45, 52
12, 68060, Note_on_c, 9, 45, 0
12, 68112, Note_on_c, 9, 42, 0
12, 68180, Note_on_c, 9, 42, 98
12, 68396, Note_on_c, 9, 42, 0
12, 68480, Note_on_c, 9, 42, 97
12, 68596, Note_on_c, 9, 42, 0
12, 68644, Note_on_c, 9, 46, 96
12, 68968, Note_on_c, 9, 46, 0
12, 68984, Note_on_c, 9, 42, 97
12, 69100, Note_on_c, 9, 42, 0
12, 69148, Note_on_c, 9, 42, 97
12, 69360, Note_on_c, 9, 42, 0
12, 69436, Note_on_c, 9, 42, 96
12, 69552, Note_on_c, 9, 42, 0
12, 69600, Note_on_c, 9, 46, 96
12, 69908, Note_on_c, 9, 46, 0
12, 69936, Note_on_c, 9, 42, 95
12, 69940, Note_on_c, 9, 45, 54
12, 69996, Note_on_c, 9, 45, 0
12, 70056, Note_on_c, 9, 42, 0
12, 70104, Note_on_c, 9, 42, 96
12, 70308, Note_on_c, 9, 42, 0
12, 70396, Note_on_c, 9, 42, 96
12, 70512, Note_on_c, 9, 42, 0
12, 70568, Note_on_c, 9, 46, 97
12, 70884, Note_on_c, 9, 46, 0
12, 70884, Note_on_c, 9, 42, 97
12, 71000, Note_on_c, 9, 42, 0
12, 71056, Note_on_c, 9, 42, 97
12, 71264, Note_on_c, 9, 42, 0
12, 71336, Note_on_c, 9, 42, 95
12, 71452, Note_on_c, 9, 42, 0
12, 71508, Note_on_c, 9, 46, 96
12, 71808, Note_on_c, 9, 46, 0
12, 71832, Note_on_c, 9, 42, 96
12, 71960, Note_on_c, 9, 42, 0
12, 72028, Note_on_c, 9, 42, 97
12, 72236, Note_on_c, 9, 42, 0
12, 72312, Note_on_c, 9, 42, 96
12, 72316, Note_on_c, 9, 44, 43
12, 72320, Note_on_c, 9, 44, 0
12, 72424, Note_on_c, 9, 42, 0
12, 72492, Note_on_c, 9, 46, 97
12, 72768, Note_on_c, 9, 46, 0
12, 72832, Note_on_c, 9, 42, 84
12, 72916, Note_on_c, 9, 42, 0
12, 72980, Note_on_c, 9, 42, 97
12, 73164, Note_on_c, 9, 42, 0
12, 73236, Note_on_c, 9, 42, 97
12, 73368, Note_on_c, 9, 42, 0
12, 73420, Note_on_c, 9, 46, 96
12, 73664, Note_on_c, 9, 46, 0
12, 73728, Note_on_c, 9, 42, 96
12, 73860, Note_on_c, 9, 42, 0
12, 73900, Note_on_c, 9, 46, 97
12, 74148, Note_on_c, 9, 46, 0
12, 74208, Note_on_c, 9, 42, 97
12, 74332, Note_on_c, 9, 42, 0
12, 74388, Note_on_c, 9, 46, 96
12, 74632, Note_on_c, 9, 46, 0
12, 74716, Note_on_c, 9, 42, 96
12, 74816, Note_on_c, 9, 42, 0
12, 74876, Note_on_c, 9, 42, 97
12, 74932, Note_on_c, 9, 42, 98
12, 75036, Note_on_c, 9, 42, 0
12, 75108, Note_on_c, 9, 42, 0
12, 75192, Note_on_c, 9, 42, 87
12, 75312, Note_on_c, 9, 42, 0
12, 75364, Note_on_c, 9, 46, 95
12, 75668, Note_on_c, 9, 46, 0
12, 75680, Note_on_c, 9, 42, 81
12, 75808, Note_on_c, 9, 42, 0
12, 75836, Note_on_c, 9, 42, 96
12, 76064, Note_on_c, 9, 42, 0
12, 76132, Note_on_c, 9, 42, 96
12, 76248, Note_on_c, 9, 42, 0
12, 76312, Note_on_c, 9, 46, 97
12, 76604, Note_on_c, 9, 46, 0
12, 76640, Note_on_c, 9, 42, 96
12, 76764, Note_on_c, 9, 42, 0
12, 76808, Note_on_c, 9, 42, 95
12, 77044, Note_on_c, 9, 42, 0
12, 77112, Note_on_c, 9, 42, 97
12, 77212, Note_on_c, 9, 42, 0
12, 77280, Note_on_c, 9, 46, 96
12, 77580, Note_on_c, 9, 46, 0
12, 77600, Note_on_c, 9, 42, 88
12, 77736, Note_on_c, 9, 42, 0
12, 77772, Note_on_c, 9, 42, 97
12, 77992, Note_on_c, 9, 42, 0
12, 78064, Note_on_c, 9, 42, 96
12, 78168, Note_on_c, 9, 42, 0
12, 78244, Note_on_c, 9, 46, 96
12, 78540, Note_on_c, 9, 46, 0
12, 78552, Note_on_c, 9, 42, 83
12, 78684, Note_on_c, 9, 42, 0
12, 78716, Note_on_c, 9, 42, 97
12, 78944, Note_on_c, 9, 42, 0
12, 79024, Note_on_c, 9, 42, 96
12, 79144, Note_on_c, 9, 42, 0
12, 79200, Note_on_c, 9, 46, 97
12, 79516, Note_on_c, 9, 46, 0
12, 79532, Note_on_c, 9, 42, 94
12, 79656, Note_on_c, 9, 42, 0
12, 79696, Note_on_c, 9, 42, 97
12, 79936, Note_on_c, 9, 42, 0
12, 80000, Note_on_c, 9, 42, 97
12, 80108, Note_on_c, 9, 42, 0
12, 80168, Note_on_c, 9, 46, 95
12, 80492, Note_on_c, 9, 46, 0
12, 80492, Note_on_c, 9, 42, 80
12, 80612, Note_on_c, 9, 42, 0
12, 80640, Note_on_c, 9, 42, 95
12, 80876, Note_on_c, 9, 42, 0
12, 80944, Note_on_c, 9, 42, 96
12, 81056, Note_on_c, 9, 42, 0
12, 81108, Note_on_c, 9, 46, 95
12, 81428, Note_on_c, 9, 46, 0
12, 81444, Note_on_c, 9, 42, 94
12, 81560, Note_on_c, 9, 42, 0
12, 81608, Note_on_c, 9, 42, 96
12, 81852, Note_on_c, 9, 42, 0
12, 81928, Note_on_c, 9, 42, 97
12, 82056, Note_on_c, 9, 42, 0
12, 82100, Note_on_c, 9, 46, 96
12, 82396, Note_on_c, 9, 46, 0
12, 82408, Note_on_c, 9, 42, 95
12, 82528, Note_on_c, 9, 42, 0
12, 82580, Note_on_c, 9, 42, 97
12, 82812, Note_on_c, 9, 42, 0
12, 82864, Note_on_c, 9, 42, 97
12, 82988, Note_on_c, 9, 42, 0
12, 83048, Note_on_c, 9, 46, 97
12, 83364, Note_on_c, 9, 46, 0
12, 83372, Note_on_c, 9, 42, 93
12, 83484, Note_on_c, 9, 42, 0
12, 83544, Note_on_c, 9, 42, 97
12, 83764, Note_on_c, 9, 42, 0
12, 83840, Note_on_c, 9, 42, 97
12, 83944, Note_on_c, 9, 42, 0
12, 84008, Note_on_c, 9, 46, 96
12, 84312, Note_on_c, 9, 46, 0
12, 84336, Note_on_c, 9, 42, 97
12, 84444, Note_on_c, 9, 42, 0
12, 84496, Note_on_c, 9, 42, 96
12, 84704, Note_on_c, 9, 42, 0
12, 84776, Note_on_c, 9, 42, 96
12, 84896, Note_on_c, 9, 42, 0
12, 84948, Note_on_c, 9, 46, 95
12, 85240, Note_on_c, 9, 46, 0
12, 85276, Note_on_c, 9, 42, 97
12, 85388, Note_on_c, 9, 42, 0
12, 85444, Note_on_c, 9, 42, 97
12, 85676, Note_on_c, 9, 42, 0
12, 85748, Note_on_c, 9, 42, 97
12, 85868, Note_on_c, 9, 42, 0
12, 85932, Note_on_c, 9, 46, 97
12, 86236, Note_on_c, 9, 46, 0
12, 86268, Note_on_c, 9, 42, 96
12, 86404, Note_on_c, 9, 42, 0
12, 86436, Note_on_c, 9, 42, 96
12, 86652, Note_on_c, 9, 42, 0
12, 86724, Note_on_c, 9, 42, 97
12, 86820, Note_on_c, 9, 42, 0
12, 86884, Note_on_c, 9, 46, 96
12, 87184, Note_on_c, 9, 46, 0
12, 87216, Note_on_c, 9, 42, 97
12, 87340, Note_on_c, 9, 42, 0
12, 87376, Note_on_c, 9, 42, 96
12, 87588, Note_on_c, 9, 42, 0
12, 87672, Note_on_c, 9, 42, 95
12, 87788, Note_on_c, 9, 42, 0
12, 87848, Note_on_c, 9, 46, 96
12, 88148, Note_on_c, 9, 46, 0
12, 88172, Note_on_c, 9, 42, 96
12, 88176, Note_on_c, 9, 45, 55
12, 88228, Note_on_c, 9, 45, 0
12, 88300, Note_on_c, 9, 42, 0
12, 88352, Note_on_c, 9, 42, 98
12, 88540, Note_on_c, 9, 42, 0
12, 88624, Note_on_c, 9, 42, 96
12, 88732, Note_on_c, 9, 42, 0
12, 88796, Note_on_c, 9, 46, 97
12, 89088, Note_on_c, 9, 46, 0
12, 89120, Note_on_c, 9, 42, 95
12, 89236, Note_on_c, 9, 42, 0
12, 89300, Note_on_c, 9, 42, 98
12, 89520, Note_on_c, 9, 42, 0
12, 89576, Note_on_c, 9, 44, 30
12, 89600, Note_on_c, 9, 44, 0
12, 89600, Note_on_c, 9, 42, 96
12, 89704, Note_on_c, 9, 42, 0
12, 89776, Note_on_c, 9, 46, 97
12, 90060, Note_on_c, 9, 46, 0
12, 90092, Note_on_c, 9, 42, 97
12, 90100, Note_on_c, 9, 45, 49
12, 90144, Note_on_c, 9, 45, 0
12, 90212, Note_on_c, 9, 42, 0
12, 90260, Note_on_c, 9, 42, 97
12, 90264, Note_on_c, 9, 44, 24
12, 90268, Note_on_c, 9, 44, 0
12, 90448, Note_on_c, 9, 42, 0
12, 90544, Note_on_c, 9, 42, 97
12, 90652, Note_on_c, 9, 42, 0
12, 90716, Note_on_c, 9, 46, 96
12, 91012, Note_on_c, 9, 46, 0
12, 91044, Note_on_c, 9, 42, 96
12, 91048, Note_on_c, 9, 45, 52
12, 91100, Note_on_c, 9, 45, 0
12, 91152, Note_on_c, 9, 42, 0
12, 91220, Note_on_c, 9, 42, 98
12, 91436, Note_on_c, 9, 42, 0
12, 91520, Note_on_c, 9, 42, 97
12, 91636, Note_on_c, 9, 42, 0
12, 91684, Note_on_c, 9, 46, 96
12, 92008, Note_on_c, 9, 46, 0
12, 92024, Note_on_c, 9, 42, 97
12, 92140, Note_on_c, 9, 42, 0
12, 92188, Note_on_c, 9, 42, 97
12, 92400, Note_on_c, 9, 42, 0
12, 92476, Note_on_c, 9, 42, 96
12, 92592, Note_on_c, 9, 42, 0
12, 92640, Note_on_c, 9, 46, 96
12, 92948, Note_on_c, 9, 46, 0
12, 92976, Note_on_c, 9, 42, 95
12, 92980, Note_on_c, 9, 45, 54
12, 93036, Note_on_c, 9, 45, 0
12, 93096, Note_on_c, 9, 42, 0
12, 93144, Note_on_c, 9, 42, 96
12, 93348, Note_on_c, 9, 42, 0
12, 93436, Note_on_c, 9, 42, 96
12, 93552, Note_on_c, 9, 42, 0
12, 93608, Note_on_c, 9, 46, 97
12, 93924, Note_on_c, 9, 46, 0
12, 93924, Note_on_c, 9, 42, 97
12, 94040, Note_on_c, 9, 42, 0
12, 94096, Note_on_c, 9, 42, 97
12, 94304, Note_on_c, 9, 42, 0
12, 94376, Note_on_c, 9, 42, 95
12, 94492, Note_on_c, 9, 42, 0
12, 94548, Note_on_c, 9, 46, 96
12, 94848, Note_on_c, 9, 46, 0
12, 94872, Note_on_c, 9, 42, 96
12, 95000, Note_on_c, 9, 42, 0
12, 95068, Note_on_c, 9, 42, 97
12, 95276, Note_on_c, 9, 42, 0
12, 95352, Note_on_c, 9, 42, 96
12, 95356, Note_on_c, 9, 44, 43
12, 95360, Note_on_c, 9, 44, 0
12, 95464, Note_on_c, 9, 42, 0
12, 95532, Note_on_c, 9, 46, 97
12, 95808, Note_on_c, 9, 46, 0
12, 95872, Note_on_c, 9, 42, 84
12, 95956, Note_on_c, 9, 42, 0
12, 96020, Note_on_c, 9, 42, 97
12, 96204, Note_on_c, 9, 42, 0
12, 96276, Note_on_c, 9, 42, 97
12, 96408, Note_on_c, 9, 42, 0
12, 96460, Note_on_c, 9, 46, 96
12, 96704, Note_on_c, 9, 46, 0
12, 96768, Note_on_c, 9, 42, 96
12, 96900, Note_on_c, 9, 42, 0
12, 96940, Note_on_c, 9, 46, 97
12, 97188, Note_on_c, 9, 46, 0
12, 97248, Note_on_c, 9, 42, 97
12, 97372, Note_on_c, 9, 42, 0
12, 97428, Note_on_c, 9, 46, 96
12, 97672, Note_on_c, 9, 46, 0
12, 97756, Note_on_c, 9, 42, 96
12, 97856, Note_on_c, 9, 42, 0
12, 97916, Note_on_c, 9, 42, 97
12, 97972, Note_on_c, 9, 42, 98
12, 98076, Note_on_c, 9, 42, 0
12, 98148, Note_on_c, 9, 42, 0
12, 98232, Note_on_c, 9, 42, 87
12, 98352, Note_on_c, 9, 42, 0
12, 98404, Note_on_c, 9, 46, 95
12, 98708, Note_on_c, 9, 46, 0
12, 98720, Note_on_c, 9, 42, 81
12, 98848, Note_on_c, 9, 42, 0
12, 98876, Note_on_c, 9, 42, 96
12, 99104, Note_on_c, 9, 42, 0
12, 99172, Note_on_c, 9, 42, 96
12, 99288, Note_on_c, 9, 42, 0
12, 99352, Note_on_c, 9, 46, 97
12, 99644, Note_on_c, 9, 46, 0
12, 99680, Note_on_c, 9, 42, 96
12, 99804, Note_on_c, 9, 42, 0
12, 99848, Note_on_c, 9, 42, 95
12, 100084, Note_on_c, 9, 42, 0
12, 100152, Note_on_c, 9, 42, 97
12, 100252, Note_on_c, 9, 42, 0
12, 100320, Note_on_c, 9, 46, 96
12, 100620, Note_on_c, 9, 46, 0
12, 100640, Note_on_c, 9, 42, 88
12, 100776, Note_on_c, 9, 42, 0
12, 100812, Note_on_c, 9, 42, 97
12, 101032, Note_on_c, 9, 42, 0
12, 101104, Note_on_c, 9, 42, 96
12, 101208, Note_on_c, 9, 42, 0
12, 101284, Note_on_c, 9, 46, 96
12, 101580, Note_on_c, 9, 46, 0
12, 101592, Note_on_c, 9, 42, 83
12, 101724, Note_on_c, 9, 42, 0
12, 101756, Note_on_c, 9, 42, 97
12, 101984, Note_on_c, 9, 42, 0
12, 102064, Note_on_c, 9, 42, 96
12, 102184, Note_on_c, 9, 42, 0
12, 102240, Note_on_c, 9, 46, 97
12, 102556, Note_on_c, 9, 46, 0
12, 102572, Note_on_c, 9, 42, 94
12, 102696, Note_on_c, 9, 42, 0
12, 102736, Note_on_c, 9, 42, 97
12, 102976, Note_on_c, 9, 42, 0
12, 103040, Note_on_c, 9, 42, 97
12, 103148, Note_on_c, 9, 42, 0
12, 103208, Note_on_c, 9, 46, 95
12, 103532, Note_on_c, 9, 46, 0
12, 103532, Note_on_c, 9, 42, 80
12, 103652, Note_on_c, 9, 42, 0
12, 103680, Note_on_c, 9, 42, 95
12, 103916, Note_on_c, 9, 42, 0
12, 103984, Note_on_c, 9, 42, 96
12, 104096, Note_on_c, 9, 42, 0
12, 104148, Note_on_c, 9, 46, 95
12, 104468, Note_on_c, 9, 46, 0
12, 104484, Note_on_c, 9, 42, 94
12, 104600, Note_on_c, 9, 42, 0
12, 104648, Note_on_c, 9, 42, 96
12, 104892, Note_on_c, 9, 42, 0
12, 104968, Note_on_c, 9, 42, 97
12, 105096, Note_on_c, 9, 42, 0
12, 105140, Note_on_c, 9, 46, 96
12, 105436, Note_on_c, 9, 46, 0
12, 105448, Note_on_c, 9, 42, 95
12, 105568, Note_on_c, 9, 42, 0
12, 105620, Note_on_c, 9, 42, 97
12, 105852, Note_on_c, 9, 42, 0
12, 105904, Note_on_c, 9, 42, 97
12, 106028, Note_on_c, 9, 42, 0
12, 106088, Note_on_c, 9, 46, 97
12, 106404, Note_on_c, 9, 46, 0
12, 106412, Note_on_c, 9, 42, 93
12, 106524, Note_on_c, 9, 42, 0
12, 106584, Note_on_c, 9, 42, 97
12, 106804, Note_on_c, 9, 42, 0
12, 106880, Note_on_c, 9, 42, 97
12, 106984, Note_on_c, 9, 42, 0
12, 107048, Note_on_c, 9, 46, 96
12, 107352, Note_on_c, 9, 46, 0
12, 107376, Note_on_c, 9, 42, 97
12, 107484, Note_on_c, 9, 42, 0
12, 107536, Note_on_c, 9, 42, 96
12, 107744, Note_on_c, 9, 42, 0
12, 107816, Note_on_c, 9, 42, 96
12, 107936, Note_on_c, 9, 42, 0
12, 107988, Note_on_c, 9, 46, 95
12, 108280, Note_on_c, 9, 46, 0
12, 108316, Note_on_c, 9, 42, 97
12, 108428, Note_on_c, 9, 42, 0
12, 108484, Note_on_c, 9, 42, 97
12, 108716, Note_on_c, 9, 42, 0
12, 108788, Note_on_c, 9, 42, 97
12, 108908, Note_on_c, 9, 42, 0
12, 108972, Note_on_c, 9, 46, 97
12, 109276, Note_on_c, 9, 46, 0
12, 109308, Note_on_c, 9, 42, 96
12, 109444, Note_on_c, 9, 42, 0
12, 109476, Note_on_c, 9, 42, 96
12, 109692, Note_on_c, 9, 42, 0
12, 109764, Note_on_c, 9, 42, 97
12, 109860, Note_on_c, 9, 42, 0
12, 109924, Note_on_c, 9, 46, 96
12, 110224, Note_on_c, 9, 46, 0
12, 110256, Note_on_c, 9, 42, 97
12, 110380, Note_on_c, 9, 42, 0
12, 110416, Note_on_c, 9, 42, 96
12, 110628, Note_on_c, 9, 42, 0
12, 110712, Note_on_c, 9, 42, 95
12, 110828, Note_on_c, 9, 42, 0
12, 110888, Note_on_c, 9, 46, 96
12, 111188, Note_on_c, 9, 46, 0
12, 111212, Note_on_c, 9, 42, 96
12, 111216, Note_on_c, 9, 45, 55
12, 111268, Note_on_c, 9, 45, 0
12, 111340, Note_on_c, 9, 42, 0
12, 111392, Note_on_c, 9, 42, 98
12, 111580, Note_on_c, 9, 42, 0
12, 111664, Note_on_c, 9, 42, 96
12, 111772, Note_on_c, 9, 42, 0
12, 111836, Note_on_c, 9, 46, 97
12, 112128, Note_on_c, 9, 46, 0
12, 112160, Note_on_c, 9, 42, 95
12, 112276, Note_on_c, 9, 42, 0
12, 112340, Note_on_c, 9, 42, 98
12, 112560, Note_on_c, 9, 42, 0
12, 112616, Note_on_c, 9, 44, 30
12, 112640, Note_on_c, 9, 44, 0
12, 112640, Note_on_c, 9, 42, 96
12, 112744, Note_on_c, 9, 42, 0
12, 112816, Note_on_c, 9, 46, 97
12, 113100, Note_on_c, 9, 46, 0
12, 113132, Note_on_c, 9, 42, 97
12, 113140, Note_on_c, 9, 45, 49
12, 113184, Note_on_c, 9, 45, 0
12, 113252, Note_on_c, 9, 42, 0
12, 113300, Note_on_c, 9, 42, 97
12, 113304, Note_on_c, 9, 44, 24
12, 113308, Note_on_c, 9, 44, 0
12, 113488, Note_on_c, 9, 42, 0
12, 113584, Note_on_c, 9, 42, 97
12, 113692, Note_on_c, 9, 42, 0
12, 113756, Note_on_c, 9, 46, 96
12, 114052, Note_on_c, 9, 46, 0
12, 114084, Note_on_c, 9, 42, 96
12, 114088, Note_on_c, 9, 45, 52
12, 114140, Note_on_c, 9, 45, 0
12, 114192, Note_on_c, 9, 42, 0
12, 114260, Note_on_c, 9, 42, 98
12, 114476, Note_on_c, 9, 42, 0
12, 114560, Note_on_c, 9, 42, 97
12, 114676, Note_on_c, 9, 42, 0
12, 114724, Note_on_c, 9, 46, 96
12, 115048, Note_on_c, 9, 46, 0
12, 115064, Note_on_c, 9, 42, 97
12, 115180, Note_on_c, 9, 42, 0
12, 115228, Note_on_c, 9, 42, 97
12, 115440, Note_on_c, 9, 42, 0
12, 115516, Note_on_c, 9, 42, 96
12, 115632, Note_on_c, 9, 42, 0
12, 115680, Note_on_c, 9, 46, 96
12, 115988, Note_on_c, 9, 46, 0
12, 116016, Note_on_c, 9, 42, 95
12, 116020, Note_on_c, 9, 45, 54
12, 116076, Note_on_c, 9, 45, 0
12, 116136, Note_on_c, 9, 42, 0
12, 116184, Note_on_c, 9, 42, 96
12, 116388, Note_on_c, 9, 42, 0
12, 116476, Note_on_c, 9, 42, 96
12, 116592, Note_on_c, 9, 42, 0
12, 116648, Note_on_c, 9, 46, 97
12, 116964, Note_on_c, 9, 46, 0
12, 116964, Note_on_c, 9, 42, 97
12, 117080, Note_on_c, 9, 42, 0
12, 117136, Note_on_c, 9, 42, 97
12, 117344, Note_on_c, 9, 42, 0
12, 117416, Note_on_c, 9, 42, 95
12, 117532, Note_on_c, 9, 42, 0
12, 117588, Note_on_c, 9, 46, 96
12, 117888, Note_on_c, 9, 46, 0
12, 117912, Note_on_c, 9, 42, 96
12, 118040, Note_on_c, 9, 42, 0
12, 118108, Note_on_c, 9, 42, 97
12, 118316, Note_on_c, 9, 42, 0
12, 118392, Note_on_c, 9, 42, 96
12, 118396, Note_on_c, 9, 44, 43
12, 118400, Note_on_c, 9, 44, 0
12, 118504, Note_on_c, 9, 42, 0
12, 118572, Note_on_c, 9, 46, 97
12, 118848, Note_on_c, 9, 46, 0
12, 118912, Note_on_c, 9, 42, 84
12, 118996, Note_on_c, 9, 42, 0
12, 119360, Note_on_c, 9, 42, 100
12, 119476, Note_on_c, 9, 42, 0
12, 119508, Note_on_c, 9, 46, 125
12, 119740, Note_on_c, 9, 46, 0
12, 119808, Note_on_c, 9, 49, 126
12, 121280, Note_on_c, 9, 49, 0
12, 121280, End_track
13, 0, Start_track
13, 0, MIDI_port, 0
13, 0, Control_c, 10, 121, 0
13, 1, Control_c, 10, 32, 0
13, 18, Control_c, 10, 101, 0
13, 18, Control_c, 10, 100, 0
13, 18, Control_c, 10, 6, 12
13, 18, Control_c, 10, 38, 0
13, 21, Control_c, 10, 11, 127
13, 532, Program_c, 10, 3
13, 533, Control_c, 10, 7, 120
13, 533, Control_c, 10, 10, 48
13, 8464, Note_on_c, 10, 80, 90
13, 8476, Note_on_c, 10, 85, 65
13, 8596, Note_on_c, 10, 85, 0
13, 8620, Note_on_c, 10, 80, 0
13, 8632, Note_on_c, 10, 81, 90
13, 8648, Note_on_c, 10, 86, 86
13, 8760, Note_on_c, 10, 86, 0
13, 8772, Note_on_c, 10, 81, 0
13, 8792, Note_on_c, 10, 86, 62
13, 8792, Note_on_c, 10, 81, 89
13, 8800, Note_on_c, 10, 86, 0
13, 8812, Note_on_c, 10, 86, 69
13, 8924, Note_on_c, 10, 81, 0
13, 8928, Note_on_c, 10, 86, 0
13, 8964, Note_on_c, 10, 81, 90
13, 8972, Note_on_c, 10, 86, 59
13, 9080, Note_on_c, 10, 86, 0
13, 9104, Note_on_c, 10, 81, 0
13, 9124, Note_on_c, 10, 81, 89
13, 9132, Note_on_c, 10, 85, 89
13, 9148, Note_on_c, 10, 85, 0
13, 9152, Note_on_c, 10, 86, 88
13, 9260, Note_on_c, 10, 81, 0
13, 9268, Note_on_c, 10, 86, 0
13, 9284, Note_on_c, 10, 86, 58
13, 9284, Note_on_c, 10, 81, 88
13, 9296, Note_on_c, 10, 86, 0
13, 9308, Note_on_c, 10, 86, 63
13, 9404, Note_on_c, 10, 86, 0
13, 9416, Note_on_c, 10, 81, 0
13, 9444, Note_on_c, 10, 81, 89
13, 9452, Note_on_c, 10, 85, 81
13, 9480, Note_on_c, 10, 85, 0
13, 9484, Note_on_c, 10, 86, 80
13, 9572, Note_on_c, 10, 86, 0
13, 9584, Note_on_c, 10, 81, 0
13, 9616, Note_on_c, 10, 81, 89
13, 9628, Note_on_c, 10, 86, 89
13, 9756, Note_on_c, 10, 81, 0
13, 9772, Note_on_c, 10, 81, 89
13, 9788, Note_on_c, 10, 86, 0
13, 9900, Note_on_c, 10, 81, 0
13, 9920, Note_on_c, 10, 81, 88
13, 9928, Note_on_c, 10, 86, 76
13, 9928, Note_on_c, 10, 72, 28
13, 10044, Note_on_c, 10, 86, 0
13, 10044, Note_on_c, 10, 85, 52
13, 10052, Note_on_c, 10, 81, 0
13, 10068, Note_on_c, 10, 85, 0
13, 10088, Note_on_c, 10, 80, 90
13, 10096, Note_on_c, 10, 82, 88
13, 10124, Note_on_c, 10, 82, 0
13, 10128, Note_on_c, 10, 85, 88
13, 10148, Note_on_c, 10, 80, 0
13, 10148, Note_on_c, 10, 81, 89
13, 10156, Note_on_c, 10, 72, 0
13, 10196, Note_on_c, 10, 85, 0
13, 10196, Note_on_c, 10, 86, 76
13, 10232, Note_on_c, 10, 86, 0
13, 10232, Note_on_c, 10, 81, 0
13, 10260, Note_on_c, 10, 81, 89
13, 10276, Note_on_c, 10, 86, 62
13, 10376, Note_on_c, 10, 81, 0
13, 10392, Note_on_c, 10, 86, 0
13, 10420, Note_on_c, 10, 81, 90
13, 10432, Note_on_c, 10, 86, 58
13, 10544, Note_on_c, 10, 81, 0
13, 10560, Note_on_c, 10, 86, 0
13, 10580, Note_on_c, 10, 81, 89
13, 10584, Note_on_c, 10, 83, 83
13, 10612, Note_on_c, 10, 83, 0
13, 10612, Note_on_c, 10, 86, 82
13, 10692, Note_on_c, 10, 75, 34
13, 10704, Note_on_c, 10, 86, 0
13, 10704, Note_on_c, 10, 81, 0
13, 10728, Note_on_c, 10, 86, 63
13, 10736, Note_on_c, 10, 75, 0
13, 10736, Note_on_c, 10, 81, 89
13, 10836, Note_on_c, 10, 81, 0
13, 10836, Note_on_c, 10, 86, 0
13, 10836, Note_on_c, 10, 68, 36
13, 10880, Note_on_c, 10, 81, 90
13, 10896, Note_on_c, 10, 86, 76
13, 10952, Note_on_c, 10, 68, 0
13, 11000, Note_on_c, 10, 86, 0
13, 11008, Note_on_c, 10, 81, 0
13, 11048, Note_on_c, 10, 80, 90
13, 11052, Note_on_c, 10, 85, 89
13, 11128, Note_on_c, 10, 85, 0
13, 11128, Note_on_c, 10, 86, 88
13, 11140, Note_on_c, 10, 80, 0
13, 11140, Note_on_c, 10, 81, 90
13, 11188, Note_on_c, 10, 86, 0
13, 11208, Note_on_c, 10, 81, 0
13, 11228, Note_on_c, 10, 86, 59
13, 11236, Note_on_c, 10, 81, 89
13, 11328, Note_on_c, 10, 81, 0
13, 11332, Note_on_c, 10, 86, 0
13, 11376, Note_on_c, 10, 81, 90
13, 11380, Note_on_c, 10, 89, 70
13, 11400, Note_on_c, 10, 89, 0
13, 11400, Note_on_c, 10, 86, 48
13, 11472, Note_on_c, 10, 86, 0
13, 11472, Note_on_c, 10, 81, 0
13, 11472, Note_on_c, 10, 85, 36
13, 11488, Note_on_c, 10, 80, 70
13, 11500, Note_on_c, 10, 85, 0
13, 11520, Note_on_c, 10, 80, 0
13, 11536, Note_on_c, 10, 80, 90
13, 11540, Note_on_c, 10, 85, 88
13, 11576, Note_on_c, 10, 80, 0
13, 11580, Note_on_c, 10, 85, 0
13, 11580, Note_on_c, 10, 81, 90
13, 11580, Note_on_c, 10, 86, 70
13, 11660, Note_on_c, 10, 86, 0
13, 11672, Note_on_c, 10, 81, 0
13, 11688, Note_on_c, 10, 81, 89
13, 11692, Note_on_c, 10, 84, 79
13, 11728, Note_on_c, 10, 84, 0
13, 11728, Note_on_c, 10, 86, 78
13, 11824, Note_on_c, 10, 86, 0
13, 11848, Note_on_c, 10, 86, 72
13, 11864, Note_on_c, 10, 80, 28
13, 11916, Note_on_c, 10, 86, 0
13, 11920, Note_on_c, 10, 85, 55
13, 11932, Note_on_c, 10, 81, 0
13, 11948, Note_on_c, 10, 80, 0
13, 11948, Note_on_c, 10, 80, 72
13, 11960, Note_on_c, 10, 85, 0
13, 11988, Note_on_c, 10, 80, 0
13, 12004, Note_on_c, 10, 80, 89
13, 12016, Note_on_c, 10, 85, 88
13, 12044, Note_on_c, 10, 80, 0
13, 12048, Note_on_c, 10, 85, 0
13, 12048, Note_on_c, 10, 81, 90
13, 12048, Note_on_c, 10, 86, 80
13, 12124, Note_on_c, 10, 81, 0
13, 12148, Note_on_c, 10, 86, 0
13, 12164, Note_on_c, 10, 81, 89
13, 12168, Note_on_c, 10, 86, 78
13, 12276, Note_on_c, 10, 86, 0
13, 12300, Note_on_c, 10, 81, 0
13, 12320, Note_on_c, 10, 81, 89
13, 12320, Note_on_c, 10, 86, 80
13, 12396, Note_on_c, 10, 81, 0
13, 12404, Note_on_c, 10, 86, 0
13, 12404, Note_on_c, 10, 85, 45
13, 12412, Note_on_c, 10, 80, 80
13, 12432, Note_on_c, 10, 85, 0
13, 12444, Note_on_c, 10, 80, 0
13, 12484, Note_on_c, 10, 80, 89
13, 12484, Note_on_c, 10, 84, 88
13, 12496, Note_on_c, 10, 84, 0
13, 12496, Note_on_c, 10, 85, 86
13, 12544, Note_on_c, 10, 85, 0
13, 12544, Note_on_c, 10, 80, 0
13, 12544, Note_on_c, 10, 86, 75
13, 12548, Note_on_c, 10, 81, 90
13, 12600, Note_on_c, 10, 81, 0
13, 12628, Note_on_c, 10, 86, 0
13, 12648, Note_on_c, 10, 81, 89
13, 12652, Note_on_c, 10, 86, 70
13, 12756, Note_on_c, 10, 86, 0
13, 12772, Note_on_c, 10, 81, 0
13, 12796, Note_on_c, 10, 81, 89
13, 12796, Note_on_c, 10, 86, 80
13, 12908, Note_on_c, 10, 86, 0
13, 12912, Note_on_c, 10, 81, 0
13, 12944, Note_on_c, 10, 81, 90
13, 12948, Note_on_c, 10, 86, 80
13, 13036, Note_on_c, 10, 86, 0
13, 13072, Note_on_c, 10, 81, 0
13, 13100, Note_on_c, 10, 79, 88
13, 13108, Note_on_c, 10, 83, 88
13, 13124, Note_on_c, 10, 83, 0
13, 13152, Note_on_c, 10, 82, 68
13, 13172, Note_on_c, 10, 79, 0
13, 13172, Note_on_c, 10, 78, 89
13, 13176, Note_on_c, 10, 82, 0
13, 13220, Note_on_c, 10, 78, 0
13, 13252, Note_on_c, 10, 86, 55
13, 13256, Note_on_c, 10, 76, 51
13, 13260, Note_on_c, 10, 81, 89
13, 13288, Note_on_c, 10, 76, 0
13, 13372, Note_on_c, 10, 81, 0
13, 13372, Note_on_c, 10, 82, 89
13, 13376, Note_on_c, 10, 86, 0
13, 13388, Note_on_c, 10, 82, 0
13, 13420, Note_on_c, 10, 83, 90
13, 13424, Note_on_c, 10, 91, 84
13, 13440, Note_on_c, 10, 83, 0
13, 13440, Note_on_c, 10, 84, 90
13, 13468, Note_on_c, 10, 91, 0
13, 13468, Note_on_c, 10, 92, 77
13, 13472, Note_on_c, 10, 84, 0
13, 13472, Note_on_c, 10, 85, 90
13, 13496, Note_on_c, 10, 92, 0
13, 13496, Note_on_c, 10, 93, 72
13, 13504, Note_on_c, 10, 85, 0
13, 13504, Note_on_c, 10, 86, 90
13, 13548, Note_on_c, 10, 93, 0
13, 13572, Note_on_c, 10, 86, 0
13, 13584, Note_on_c, 10, 86, 90
13, 13588, Note_on_c, 10, 93, 80
13, 13720, Note_on_c, 10, 93, 0
13, 13732, Note_on_c, 10, 86, 0
13, 13744, Note_on_c, 10, 86, 90
13, 13764, Note_on_c, 10, 93, 68
13, 13776, Note_on_c, 10, 75, 28
13, 13880, Note_on_c, 10, 86, 0
13, 13888, Note_on_c, 10, 93, 0
13, 13920, Note_on_c, 10, 86, 90
13, 13924, Note_on_c, 10, 93, 89
13, 14052, Note_on_c, 10, 93, 0
13, 14052, Note_on_c, 10, 75, 0
13, 14112, Note_on_c, 10, 93, 62
13, 14224, Note_on_c, 10, 93, 0
13, 14236, Note_on_c, 10, 86, 0
13, 14248, Note_on_c, 10, 86, 90
13, 14252, Note_on_c, 10, 93, 73
13, 14396, Note_on_c, 10, 93, 0
13, 14404, Note_on_c, 10, 86, 0
13, 14420, Note_on_c, 10, 86, 90
13, 14428, Note_on_c, 10, 93, 90
13, 14468, Note_on_c, 10, 73, 28
13, 14516, Note_on_c, 10, 85, 45
13, 14544, Note_on_c, 10, 93, 0
13, 14556, Note_on_c, 10, 86, 0
13, 14556, Note_on_c, 10, 85, 0
13, 14556, Note_on_c, 10, 86, 42
13, 14572, Note_on_c, 10, 86, 0
13, 14588, Note_on_c, 10, 86, 90
13, 14592, Note_on_c, 10, 93, 85
13, 14700, Note_on_c, 10, 86, 0
13, 14716, Note_on_c, 10, 93, 0
13, 14728, Note_on_c, 10, 86, 90
13, 14772, Note_on_c, 10, 93, 84
13, 14792, Note_on_c, 10, 73, 0
13, 14792, Note_on_c, 10, 74, 22
13, 14812, Note_on_c, 10, 86, 0
13, 14812, Note_on_c, 10, 87, 42
13, 14852, Note_on_c, 10, 93, 0
13, 14868, Note_on_c, 10, 87, 0
13, 14872, Note_on_c, 10, 86, 42
13, 14873, Note_on_c, 10, 86, 0
13, 14916, Note_on_c, 10, 86, 90
13, 14916, Note_on_c, 10, 93, 89
13, 14928, Note_on_c, 10, 74, 0
13, 15028, Note_on_c, 10, 93, 0
13, 15040, Note_on_c, 10, 86, 0
13, 15048, Note_on_c, 10, 86, 90
13, 15080, Note_on_c, 10, 93, 86
13, 15160, Note_on_c, 10, 93, 0
13, 15184, Note_on_c, 10, 86, 0
13, 15216, Note_on_c, 10, 86, 90
13, 15224, Note_on_c, 10, 93, 80
13, 15332, Note_on_c, 10, 93, 0
13, 15348, Note_on_c, 10, 86, 0
13, 15396, Note_on_c, 10, 86, 90
13, 15404, Note_on_c, 10, 91, 89
13, 15496, Note_on_c, 10, 86, 0
13, 15500, Note_on_c, 10, 87, 34
13, 15508, Note_on_c, 10, 91, 0
13, 15548, Note_on_c, 10, 86, 89
13, 15664, Note_on_c, 10, 86, 0
13, 15708, Note_on_c, 10, 86, 90
13, 15708, Note_on_c, 10, 91, 81
13, 15756, Note_on_c, 10, 86, 0
13, 15756, Note_on_c, 10, 87, 0
13, 15756, Note_on_c, 10, 86, 36
13, 15832, Note_on_c, 10, 86, 0
13, 15844, Note_on_c, 10, 91, 0
13, 15868, Note_on_c, 10, 86, 90
13, 15868, Note_on_c, 10, 90, 87
13, 15884, Note_on_c, 10, 90, 0
13, 15888, Note_on_c, 10, 91, 88
13, 15976, Note_on_c, 10, 86, 0
13, 16040, Note_on_c, 10, 86, 90
13, 16156, Note_on_c, 10, 91, 0
13, 16172, Note_on_c, 10, 86, 0
13, 16188, Note_on_c, 10, 86, 90
13, 16192, Note_on_c, 10, 92, 82
13, 16300, Note_on_c, 10, 92, 0
13, 16300, Note_on_c, 10, 91, 76
13, 16308, Note_on_c, 10, 86, 0
13, 16364, Note_on_c, 10, 91, 0
13, 16372, Note_on_c, 10, 88, 90
13, 16372, Note_on_c, 10, 82, 52
13, 16380, Note_on_c, 10, 93, 88
13, 16408, Note_on_c, 10, 82, 0
13, 16492, Note_on_c, 10, 93, 0
13, 16500, Note_on_c, 10, 88, 0
13, 16524, Note_on_c, 10, 86, 90
13, 16544, Note_on_c, 10, 91, 86
13, 16624, Note_on_c, 10, 91, 0
13, 16632, Note_on_c, 10, 86, 0
13, 16688, Note_on_c, 10, 84, 89
13, 16688, Note_on_c, 10, 88, 78
13, 16756, Note_on_c, 10, 88, 0
13, 16776, Note_on_c, 10, 84, 0
13, 16804, Note_on_c, 10, 86, 36
13, 16832, Note_on_c, 10, 91, 73
13, 16848, Note_on_c, 10, 74, 22
13, 16940, Note_on_c, 10, 91, 0
13, 16976, Note_on_c, 10, 86, 0
13, 16992, Note_on_c, 10, 88, 90
13, 16992, Note_on_c, 10, 84, 83
13, 16992, Note_on_c, 10, 92, 88
13, 17024, Note_on_c, 10, 92, 0
13, 17028, Note_on_c, 10, 93, 87
13, 17064, Note_on_c, 10, 93, 0
13, 17084, Note_on_c, 10, 88, 0
13, 17116, Note_on_c, 10, 74, 0
13, 17116, Note_on_c, 10, 75, 22
13, 17148, Note_on_c, 10, 86, 90
13, 17156, Note_on_c, 10, 90, 80
13, 17240, Note_on_c, 10, 75, 0
13, 17248, Note_on_c, 10, 84, 0
13, 17292, Note_on_c, 10, 86, 0
13, 17316, Note_on_c, 10, 84, 90
13, 17320, Note_on_c, 10, 88, 90
13, 17336, Note_on_c, 10, 90, 0
13, 17340, Note_on_c, 10, 92, 17
13, 17352, Note_on_c, 10, 80, 76
13, 17396, Note_on_c, 10, 80, 0
13, 17436, Note_on_c, 10, 92, 0
13, 17436, Note_on_c, 10, 88, 0
13, 17468, Note_on_c, 10, 84, 0
13, 19516, Note_on_c, 10, 78, 34
13, 19520, Note_on_c, 10, 78, 0
13, 19528, Note_on_c, 10, 85, 51
13, 19536, Note_on_c, 10, 80, 90
13, 19640, Note_on_c, 10, 80, 0
13, 19656, Note_on_c, 10, 85, 0
13, 19700, Note_on_c, 10, 81, 89
13, 19700, Note_on_c, 10, 86, 45
13, 19736, Note_on_c, 10, 86, 0
13, 19736, Note_on_c, 10, 85, 36
13, 19776, Note_on_c, 10, 85, 0
13, 19780, Note_on_c, 10, 86, 36
13, 19816, Note_on_c, 10, 81, 0
13, 19844, Note_on_c, 10, 86, 0
13, 19864, Note_on_c, 10, 86, 56
13, 19868, Note_on_c, 10, 81, 90
13, 19968, Note_on_c, 10, 86, 0
13, 19976, Note_on_c, 10, 81, 0
13, 20020, Note_on_c, 10, 81, 89
13, 20024, Note_on_c, 10, 86, 65
13, 20032, Note_on_c, 10, 86, 0
13, 20044, Note_on_c, 10, 86, 60
13, 20088, Note_on_c, 10, 81, 0
13, 20088, Note_on_c, 10, 80, 90
13, 20092, Note_on_c, 10, 86, 0
13, 20092, Note_on_c, 10, 85, 52
13, 20144, Note_on_c, 10, 85, 0
13, 20144, Note_on_c, 10, 80, 0
13, 20204, Note_on_c, 10, 81, 90
13, 20208, Note_on_c, 10, 86, 79
13, 20304, Note_on_c, 10, 86, 0
13, 20320, Note_on_c, 10, 86, 65
13, 20328, Note_on_c, 10, 81, 0
13, 20364, Note_on_c, 10, 81, 90
13, 20476, Note_on_c, 10, 86, 0
13, 20492, Note_on_c, 10, 81, 0
13, 20520, Note_on_c, 10, 81, 90
13, 20520, Note_on_c, 10, 86, 52
13, 20632, Note_on_c, 10, 86, 0
13, 20652, Note_on_c, 10, 81, 0
13, 20676, Note_on_c, 10, 81, 90
13, 20680, Note_on_c, 10, 86, 51
13, 20784, Note_on_c, 10, 81, 0
13, 20796, Note_on_c, 10, 86, 0
13, 20828, Note_on_c, 10, 79, 89
13, 20856, Note_on_c, 10, 83, 84
13, 20868, Note_on_c, 10, 69, 28
13, 20896, Note_on_c, 10, 69, 0
13, 20984, Note_on_c, 10, 83, 0
13, 20984, Note_on_c, 10, 86, 55
13, 21008, Note_on_c, 10, 81, 87
13, 21048, Note_on_c, 10, 79, 0
13, 21120, Note_on_c, 10, 81, 0
13, 21120, Note_on_c, 10, 86, 0
13, 21168, Note_on_c, 10, 81, 90
13, 21176, Note_on_c, 10, 86, 77
13, 21444, Note_on_c, 10, 86, 0
13, 21456, Note_on_c, 10, 81, 0
13, 21484, Note_on_c, 10, 83, 90
13, 21484, Note_on_c, 10, 88, 85
13, 21660, Note_on_c, 10, 88, 0
13, 21700, Note_on_c, 10, 83, 0
13, 22008, Note_on_c, 10, 68, 34
13, 22368, Note_on_c, 10, 68, 0
13, 22396, Note_on_c, 10, 88, 90
13, 22396, Note_on_c, 10, 93, 88
13, 22540, Note_on_c, 10, 88, 0
13, 22552, Note_on_c, 10, 93, 0
13, 22616, Note_on_c, 10, 86, 90
13, 22624, Note_on_c, 10, 90, 51
13, 22640, Note_on_c, 10, 90, 0
13, 22640, Note_on_c, 10, 91, 48
13, 22652, Note_on_c, 10, 69, 28
13, 22776, Note_on_c, 10, 91, 0
13, 22780, Note_on_c, 10, 86, 0
13, 22832, Note_on_c, 10, 84, 89
13, 22840, Note_on_c, 10, 88, 48
13, 22920, Note_on_c, 10, 69, 0
13, 22940, Note_on_c, 10, 84, 0
13, 22968, Note_on_c, 10, 88, 0
13, 23028, Note_on_c, 10, 91, 89
13, 23028, Note_on_c, 10, 86, 90
13, 23028, Note_on_c, 10, 85, 68
13, 23044, Note_on_c, 10, 85, 0
13, 23164, Note_on_c, 10, 87, 34
13, 23244, Note_on_c, 10, 91, 0
13, 23260, Note_on_c, 10, 86, 0
13, 23280, Note_on_c, 10, 93, 60
13, 23296, Note_on_c, 10, 82, 42
13, 23304, Note_on_c, 10, 82, 0
13, 23304, Note_on_c, 10, 87, 0
13, 23320, Note_on_c, 10, 84, 89
13, 23336, Note_on_c, 10, 88, 79
13, 23440, Note_on_c, 10, 93, 0
13, 23472, Note_on_c, 10, 88, 0
13, 23492, Note_on_c, 10, 84, 0
13, 23552, Note_on_c, 10, 91, 49
13, 23556, Note_on_c, 10, 86, 90
13, 23700, Note_on_c, 10, 91, 0
13, 23716, Note_on_c, 10, 86, 0
13, 23776, Note_on_c, 10, 79, 52
13, 23776, Note_on_c, 10, 88, 82
13, 23780, Note_on_c, 10, 84, 89
13, 23912, Note_on_c, 10, 79, 0
13, 23928, Note_on_c, 10, 88, 0
13, 23972, Note_on_c, 10, 84, 0
13, 23972, End_track
14, 0, Start_track
14, 0, MIDI_port, 0
14, 0, Control_c, 11, 91, 99
14, 0, Control_c, 11, 93, 89
14, 0, Control_c, 11, 121, 0
14, 1, Control_c, 11, 32, 0
14, 18, Control_c, 11, 101, 0
14, 18, Control_c, 11, 100, 0
14, 18, Control_c, 11, 6, 12
14, 18, Control_c, 11, 38, 0
14, 21, Control_c, 11, 11, 127
14, 537, Program_c, 11, 66
14, 538, Control_c, 11, 7, 110
14, 538, Control_c, 11, 10, 72
14, 28604, Note_on_c, 11, 62, 127
14, 28648, Note_on_c, 11, 62, 0
14, 28648, Note_on_c, 11, 60, 123
14, 28740, Note_on_c, 11, 60, 0
14, 28812, Note_on_c, 11, 62, 127
14, 29060, Note_on_c, 11, 62, 0
14, 29124, Note_on_c, 11, 60, 126
14, 29296, Note_on_c, 11, 60, 0
14, 29496, Note_on_c, 11, 57, 127
14, 29564, Note_on_c, 11, 57, 0
14, 29564, Note_on_c, 11, 55, 127
14, 29688, Note_on_c, 11, 55, 0
14, 29712, Note_on_c, 11, 53, 126
14, 29720, Note_on_c, 11, 54, 84
14, 29784, Note_on_c, 11, 54, 0
14, 29988, Note_on_c, 11, 53, 0
14, 30044, Note_on_c, 11, 50, 126
14, 30256, Note_on_c, 11, 50, 0
14, 31052, Note_on_c, 11, 62, 127
14, 31228, Note_on_c, 11, 62, 0
14, 31492, Note_on_c, 11, 60, 117
14, 31616, Note_on_c, 11, 60, 0
14, 31684, Note_on_c, 11, 57, 127
14, 31688, Note_on_c, 11, 59, 56
14, 31692, Note_on_c, 11, 59, 0
14, 31912, Note_on_c, 11, 57, 0
14, 31988, Note_on_c, 11, 55, 125
14, 32104, Note_on_c, 11, 55, 0
14, 32164, Note_on_c, 11, 53, 126
14, 32408, Note_on_c, 11, 53, 0
14, 32476, Note_on_c, 11, 50, 125
14, 34536, Note_on_c, 11, 50, 0
14, 36264, Note_on_c, 11, 62, 127
14, 36340, Note_on_c, 11, 62, 0
14, 36344, Note_on_c, 11, 60, 126
14, 36412, Note_on_c, 11, 60, 0
14, 36480, Note_on_c, 11, 62, 127
14, 36728, Note_on_c, 11, 62, 0
14, 36804, Note_on_c, 11, 60, 127
14, 36968, Note_on_c, 11, 60, 0
14, 37164, Note_on_c, 11, 57, 126
14, 37264, Note_on_c, 11, 57, 0
14, 37264, Note_on_c, 11, 55, 125
14, 37356, Note_on_c, 11, 55, 0
14, 37384, Note_on_c, 11, 53, 126
14, 37680, Note_on_c, 11, 53, 0
14, 37740, Note_on_c, 11, 50, 126
14, 37748, Note_on_c, 11, 53, 48
14, 37760, Note_on_c, 11, 53, 0
14, 37948, Note_on_c, 11, 50, 0
14, 38756, Note_on_c, 11, 62, 127
14, 38916, Note_on_c, 11, 62, 0
14, 39180, Note_on_c, 11, 60, 127
14, 39296, Note_on_c, 11, 60, 0
14, 39360, Note_on_c, 11, 57, 127
14, 39608, Note_on_c, 11, 57, 0
14, 39664, Note_on_c, 11, 55, 120
14, 39800, Note_on_c, 11, 55, 0
14, 39824, Note_on_c, 11, 53, 125
14, 40072, Note_on_c, 11, 53, 0
14, 40124, Note_on_c, 11, 50, 126
14, 42088, Note_on_c, 11, 50, 0
14, 42712, Note_on_c, 11, 45, 68
14, 42724, Note_on_c, 11, 45, 0
14, 43488, Note_on_c, 11, 56, 127
14, 43520, Note_on_c, 11, 56, 0
14, 43524, Note_on_c, 11, 57, 127
14, 43620, Note_on_c, 11, 57, 0
14, 43696, Note_on_c, 11, 56, 127
14, 43748, Note_on_c, 11, 56, 0
14, 43748, Note_on_c, 11, 57, 127
14, 43916, Note_on_c, 11, 57, 0
14, 43992, Note_on_c, 11, 56, 127
14, 44052, Note_on_c, 11, 56, 0
14, 44052, Note_on_c, 11, 57, 127
14, 44096, Note_on_c, 11, 57, 0
14, 44192, Note_on_c, 11, 57, 127
14, 44440, Note_on_c, 11, 57, 0
14, 44488, Note_on_c, 11, 60, 127
14, 44592, Note_on_c, 11, 60, 0
14, 44656, Note_on_c, 11, 57, 127
14, 44872, Note_on_c, 11, 57, 0
14, 44948, Note_on_c, 11, 55, 127
14, 45076, Note_on_c, 11, 55, 0
14, 45116, Note_on_c, 11, 57, 127
14, 45380, Note_on_c, 11, 57, 0
14, 45436, Note_on_c, 11, 60, 126
14, 45600, Note_on_c, 11, 59, 40
14, 45604, Note_on_c, 11, 50, 40
14, 45628, Note_on_c, 11, 59, 0
14, 45644, Note_on_c, 11, 60, 0
14, 45648, Note_on_c, 11, 50, 0
14, 46408, Note_on_c, 11, 62, 127
14, 46604, Note_on_c, 11, 62, 0
14, 46872, Note_on_c, 11, 60, 126
14, 46992, Note_on_c, 11, 60, 0
14, 47060, Note_on_c, 11, 57, 127
14, 47268, Note_on_c, 11, 57, 0
14, 47360, Note_on_c, 11, 55, 120
14, 47464, Note_on_c, 11, 55, 0
14, 47520, Note_on_c, 11, 53, 126
14, 47748, Note_on_c, 11, 53, 0
14, 47804, Note_on_c, 11, 50, 126
14, 49396, Note_on_c, 11, 50, 0
14, 51628, Note_on_c, 11, 62, 126
14, 51688, Note_on_c, 11, 62, 0
14, 51688, Note_on_c, 11, 60, 126
14, 51764, Note_on_c, 11, 60, 0
14, 51768, Note_on_c, 11, 62, 116
14, 52032, Note_on_c, 11, 62, 0
14, 52096, Note_on_c, 11, 65, 126
14, 52264, Note_on_c, 11, 65, 0
14, 52496, Note_on_c, 11, 62, 126
14, 52564, Note_on_c, 11, 62, 0
14, 52568, Note_on_c, 11, 60, 126
14, 52652, Note_on_c, 11, 60, 0
14, 52716, Note_on_c, 11, 57, 126
14, 52724, Note_on_c, 11, 62, 68
14, 52728, Note_on_c, 11, 62, 0
14, 52968, Note_on_c, 11, 57, 0
14, 53044, Note_on_c, 11, 55, 127
14, 53212, Note_on_c, 11, 55, 0
14, 54056, Note_on_c, 11, 62, 126
14, 54228, Note_on_c, 11, 62, 0
14, 54480, Note_on_c, 11, 60, 126
14, 54604, Note_on_c, 11, 60, 0
14, 54684, Note_on_c, 11, 57, 127
14, 54916, Note_on_c, 11, 57, 0
14, 54972, Note_on_c, 11, 55, 126
14, 55092, Note_on_c, 11, 55, 0
14, 55144, Note_on_c, 11, 53, 126
14, 55380, Note_on_c, 11, 53, 0
14, 55448, Note_on_c, 11, 50, 126
14, 57560, Note_on_c, 11, 50, 0
14, 59344, Note_on_c, 11, 62, 126
14, 59380, Note_on_c, 11, 62, 0
14, 59380, Note_on_c, 11, 60, 126
14, 59468, Note_on_c, 11, 60, 0
14, 59480, Note_on_c, 11, 62, 111
14, 59756, Note_on_c, 11, 62, 0
14, 59812, Note_on_c, 11, 65, 126
14, 59996, Note_on_c, 11, 65, 0
14, 60232, Note_on_c, 11, 62, 125
14, 60276, Note_on_c, 11, 62, 0
14, 60276, Note_on_c, 11, 60, 125
14, 60388, Note_on_c, 11, 60, 0
14, 60396, Note_on_c, 11, 57, 48
14, 60400, Note_on_c, 11, 61, 78
14, 60416, Note_on_c, 11, 57, 0
14, 60428, Note_on_c, 11, 61, 0
14, 60444, Note_on_c, 11, 57, 127
14, 60692, Note_on_c, 11, 57, 0
14, 60748, Note_on_c, 11, 60, 72
14, 60748, Note_on_c, 11, 55, 127
14, 60792, Note_on_c, 11, 60, 0
14, 60920, Note_on_c, 11, 55, 0
14, 61772, Note_on_c, 11, 62, 126
14, 61944, Note_on_c, 11, 62, 0
14, 62204, Note_on_c, 11, 60, 126
14, 62316, Note_on_c, 11, 60, 0
14, 62392, Note_on_c, 11, 57, 126
14, 62620, Note_on_c, 11, 57, 0
14, 62696, Note_on_c, 11, 55, 117
14, 62784, Note_on_c, 11, 55, 0
14, 62848, Note_on_c, 11, 53, 126
14, 63084, Note_on_c, 11, 53, 0
14, 63136, Note_on_c, 11, 50, 126
14, 65296, Note_on_c, 11, 50, 0
14, 66580, Note_on_c, 11, 57, 127
14, 66772, Note_on_c, 11, 57, 0
14, 67000, Note_on_c, 11, 60, 125
14, 67572, Note_on_c, 11, 60, 0
14, 67664, Note_on_c, 11, 57, 127
14, 67856, Note_on_c, 11, 57, 0
14, 67944, Note_on_c, 11, 55, 127
14, 68116, Note_on_c, 11, 55, 0
14, 68120, Note_on_c, 11, 57, 125
14, 68380, Note_on_c, 11, 57, 0
14, 68444, Note_on_c, 11, 60, 126
14, 68624, Note_on_c, 11, 60, 0
14, 69452, Note_on_c, 11, 65, 126
14, 69732, Note_on_c, 11, 65, 0
14, 69884, Note_on_c, 11, 62, 126
14, 69996, Note_on_c, 11, 62, 0
14, 70068, Note_on_c, 11, 60, 127
14, 70284, Note_on_c, 11, 60, 0
14, 70372, Note_on_c, 11, 57, 114
14, 70468, Note_on_c, 11, 57, 0
14, 70520, Note_on_c, 11, 55, 126
14, 70764, Note_on_c, 11, 55, 0
14, 70820, Note_on_c, 11, 50, 127
14, 70824, Note_on_c, 11, 53, 116
14, 70876, Note_on_c, 11, 53, 0
14, 72536, Note_on_c, 11, 50, 0
14, 74712, Note_on_c, 11, 50, 126
14, 74760, Note_on_c, 11, 50, 0
14, 74764, Note_on_c, 11, 48, 125
14, 74852, Note_on_c, 11, 48, 0
14, 74856, Note_on_c, 11, 50, 114
14, 75132, Note_on_c, 11, 50, 0
14, 75200, Note_on_c, 11, 53, 126
14, 75396, Note_on_c, 11, 53, 0
14, 75572, Note_on_c, 11, 50, 127
14, 75648, Note_on_c, 11, 50, 0
14, 75652, Note_on_c, 11, 48, 115
14, 75756, Note_on_c, 11, 48, 0
14, 75804, Note_on_c, 11, 57, 126
14, 76024, Note_on_c, 11, 57, 0
14, 76100, Note_on_c, 11, 53, 126
14, 76112, Note_on_c, 11, 53, 0
14, 76112, Note_on_c, 11, 55, 125
14, 76280, Note_on_c, 11, 55, 0
14, 77104, Note_on_c, 11, 62, 127
14, 77264, Note_on_c, 11, 62, 0
14, 77544, Note_on_c, 11, 60, 126
14, 77664, Note_on_c, 11, 60, 0
14, 77704, Note_on_c, 11, 59, 72
14, 77708, Note_on_c, 11, 57, 126
14, 77740, Note_on_c, 11, 59, 0
14, 77952, Note_on_c, 11, 57, 0
14, 78024, Note_on_c, 11, 55, 127
14, 78140, Note_on_c, 11, 55, 0
14, 78180, Note_on_c, 11, 53, 126
14, 78424, Note_on_c, 11, 53, 0
14, 78488, Note_on_c, 11, 50, 126
14, 80572, Note_on_c, 11, 50, 0
14, 82368, Note_on_c, 11, 50, 126
14, 82404, Note_on_c, 11, 50, 0
14, 82424, Note_on_c, 11, 48, 124
14, 82528, Note_on_c, 11, 48, 0
14, 82528, Note_on_c, 11, 50, 116
14, 82796, Note_on_c, 11, 50, 0
14, 82860, Note_on_c, 11, 53, 126
14, 83064, Note_on_c, 11, 53, 0
14, 83240, Note_on_c, 11, 50, 127
14, 83292, Note_on_c, 11, 50, 0
14, 83292, Note_on_c, 11, 48, 123
14, 83444, Note_on_c, 11, 48, 0
14, 83500, Note_on_c, 11, 62, 127
14, 83716, Note_on_c, 11, 62, 0
14, 83804, Note_on_c, 11, 60, 127
14, 83964, Note_on_c, 11, 60, 0
14, 84832, Note_on_c, 11, 62, 127
14, 84964, Note_on_c, 11, 62, 0
14, 85220, Note_on_c, 11, 60, 121
14, 85344, Note_on_c, 11, 60, 0
14, 85424, Note_on_c, 11, 65, 118
14, 85620, Note_on_c, 11, 65, 0
14, 85712, Note_on_c, 11, 62, 126
14, 85848, Note_on_c, 11, 62, 0
14, 85880, Note_on_c, 11, 57, 127
14, 86052, Note_on_c, 11, 57, 0
14, 86192, Note_on_c, 11, 62, 127
14, 88152, Note_on_c, 11, 62, 0
14, 89576, Note_on_c, 11, 57, 127
14, 89764, Note_on_c, 11, 57, 0
14, 90024, Note_on_c, 11, 60, 126
14, 90588, Note_on_c, 11, 60, 0
14, 90688, Note_on_c, 11, 57, 127
14, 90896, Note_on_c, 11, 57, 0
14, 90992, Note_on_c, 11, 55, 99
14, 91088, Note_on_c, 11, 55, 0
14, 91148, Note_on_c, 11, 57, 127
14, 91408, Note_on_c, 11, 57, 0
14, 91488, Note_on_c, 11, 60, 126
14, 91740, Note_on_c, 11, 60, 0
14, 92472, Note_on_c, 11, 65, 127
14, 92660, Note_on_c, 11, 65, 0
14, 92896, Note_on_c, 11, 62, 127
14, 92980, Note_on_c, 11, 62, 0
14, 93092, Note_on_c, 11, 67, 126
14, 93268, Note_on_c, 11, 67, 0
14, 93392, Note_on_c, 11, 65, 127
14, 93492, Note_on_c, 11, 65, 0
14, 93556, Note_on_c, 11, 62, 126
14, 93744, Note_on_c, 11, 62, 0
14, 94044, Note_on_c, 11, 38, 127
14, 94232, Note_on_c, 11, 38, 0
14, 94232, End_track
15, 0, Start_track
15, 0, MIDI_port, 0
15, 0, Title_t, "Jef Scoville"
15, 0, End_track
0, 0, End_of_file
